<?xml version="1.0" standalone="no"?>
<!DOCTYPE svg PUBLIC "-//W3C//DTD SVG 20010904//EN"
 "http://www.w3.org/TR/2001/REC-SVG-20010904/DTD/svg10.dtd">
<svg version="1.0" xmlns="http://www.w3.org/2000/svg"
 width="100.000000pt" height="100.000000pt" viewBox="0 0 100.000000 100.000000"
 preserveAspectRatio="xMidYMid meet">
<metadata>
Created by potrace 1.16, written by Peter Selinger 2001-2019
</metadata>
<g transform="translate(0.000000,100.000000) scale(0.100000,-0.100000)"
fill="#000000" stroke="none">
<path d="M230 800 c0 -27 -3 -30 -30 -30 l-30 0 0 -60 0 -60 -30 0 c-28 0 -30
-3 -30 -35 0 -33 -2 -35 -35 -35 -32 0 -35 -2 -35 -30 0 -23 -4 -30 -20 -30
-11 0 -20 -4 -20 -10 0 -5 13 -10 30 -10 27 0 30 3 30 30 0 28 3 30 35 30 33
0 35 2 35 35 0 32 2 35 30 35 l30 0 0 60 0 60 30 0 c27 0 30 3 30 30 l0 30
185 0 185 0 0 -30 c0 -28 3 -30 35 -30 32 0 35 -2 35 -30 l0 -30 90 0 90 0 0
-65 0 -65 65 0 c37 0 65 4 65 10 0 6 -25 10 -55 10 l-55 0 0 65 0 65 -90 0
-90 0 0 30 c0 28 -3 30 -35 30 -32 0 -35 2 -35 30 l0 30 -205 0 -205 0 0 -30z"/>
<path d="M310 625 l0 -65 -30 0 c-27 0 -30 -3 -30 -30 0 -27 -3 -30 -30 -30
l-30 0 0 -60 0 -60 -30 0 c-28 0 -30 -3 -30 -35 0 -32 2 -35 30 -35 27 0 30
-3 30 -30 l0 -30 -95 0 c-57 0 -95 -4 -95 -10 0 -6 42 -10 105 -10 l105 0 0
50 c0 49 -1 50 -30 50 -20 0 -30 5 -30 15 0 10 10 15 30 15 l30 0 0 60 0 60
30 0 c27 0 30 3 30 30 0 27 3 30 30 30 l30 0 0 65 0 65 105 0 105 0 0 -30 0
-30 65 0 65 0 0 -35 0 -35 60 0 60 0 0 -30 c0 -27 3 -30 30 -30 17 0 30 -4 30
-10 0 -6 -110 -10 -310 -10 l-310 0 0 -115 0 -115 115 0 115 0 0 65 c0 37 4
65 10 65 6 0 10 -28 10 -65 l0 -65 115 0 115 0 0 30 c0 17 5 30 10 30 6 0 10
-13 10 -30 l0 -30 115 0 115 0 0 65 c0 58 2 65 20 65 11 0 20 5 20 10 0 6 -13
10 -30 10 l-30 0 0 -65 0 -65 -95 0 -95 0 0 30 c0 27 -3 30 -30 30 -27 0 -30
-3 -30 -30 l0 -30 -95 0 -95 0 0 65 0 65 -30 0 -30 0 0 -65 0 -65 -95 0 -95 0
0 95 0 95 310 0 310 0 0 30 c0 27 -3 30 -30 30 -27 0 -30 3 -30 30 l0 30 -60
0 -60 0 0 35 0 35 -65 0 -65 0 0 30 0 30 -125 0 -125 0 0 -65z"/>
<path d="M940 470 c0 -27 3 -30 30 -30 17 0 30 5 30 10 0 6 -9 10 -20 10 -11
0 -20 5 -20 10 0 6 9 10 20 10 11 0 20 5 20 10 0 6 -13 10 -30 10 -27 0 -30
-3 -30 -30z"/>
</g>
</svg>
