<?xml version="1.0" standalone="no"?>
<!DOCTYPE svg PUBLIC "-//W3C//DTD SVG 20010904//EN"
 "http://www.w3.org/TR/2001/REC-SVG-20010904/DTD/svg10.dtd">
<svg version="1.0" xmlns="http://www.w3.org/2000/svg"
 width="256.000000pt" height="256.000000pt" viewBox="0 0 256.000000 256.000000"
 preserveAspectRatio="xMidYMid meet">
<metadata>
Created by potrace 1.16, written by Peter Selinger 2001-2019
</metadata>
<g transform="translate(0.000000,256.000000) scale(0.100000,-0.100000)"
fill="#000000" stroke="none">
<path d="M1158 2073 c7 -3 16 -2 19 1 4 3 -2 6 -13 5 -11 0 -14 -3 -6 -6z"/>
<path d="M1228 2063 c7 -3 16 -2 19 1 4 3 -2 6 -13 5 -11 0 -14 -3 -6 -6z"/>
<path d="M1428 2053 c6 -2 18 -2 25 0 6 3 1 5 -13 5 -14 0 -19 -2 -12 -5z"/>
<path d="M1498 2053 c7 -3 16 -2 19 1 4 3 -2 6 -13 5 -11 0 -14 -3 -6 -6z"/>
<path d="M1055 2030 c-13 -5 -14 -9 -5 -9 8 0 24 4 35 9 13 5 14 9 5 9 -8 0
-24 -4 -35 -9z"/>
<path d="M1215 2029 c-16 -5 -118 -29 -225 -53 -199 -45 -482 -109 -648 -148
l-92 -21 0 -524 c0 -485 1 -523 17 -523 9 0 241 -56 515 -125 l499 -126 422
107 c232 59 438 110 457 114 19 5 61 14 93 21 l57 13 0 521 0 522 -52 12
c-280 63 -875 199 -923 211 -48 12 -80 11 -120 -1z m109 -49 c81 -25 190 -49
199 -43 6 3 7 1 3 -6 -5 -8 1 -11 21 -10 15 1 56 -6 89 -15 34 -9 72 -16 84
-16 13 0 19 -4 14 -11 -5 -9 1 -10 22 -5 22 5 25 4 14 -4 -11 -8 -3 -9 30 -5
l45 5 -47 -17 c-26 -10 -50 -21 -54 -25 -4 -5 -19 -8 -33 -8 -14 0 -33 -5 -41
-10 -25 -17 49 0 116 26 49 19 68 22 94 14 18 -5 36 -8 40 -5 3 2 26 -3 50
-11 40 -14 246 -63 278 -66 6 -1 12 -8 12 -15 0 -9 -7 -13 -17 -10 -108 29
-111 29 -134 16 -40 -21 -87 -28 -99 -14 -5 6 -7 14 -4 18 3 3 -4 3 -17 0 -22
-6 -22 -7 -3 -14 24 -11 -77 -1 -131 12 -22 5 -112 21 -200 34 -88 14 -209 35
-269 46 -104 20 -113 20 -190 5 -45 -9 -146 -28 -226 -41 -80 -14 -170 -29
-200 -35 -180 -33 -251 -44 -302 -48 -32 -2 -58 -7 -58 -12 0 -4 -12 -5 -27
-2 -24 5 -26 3 -20 -24 3 -16 11 -66 17 -111 7 -45 15 -82 19 -81 3 0 16 0 28
-1 22 -1 22 -2 5 -19 -15 -16 -18 -16 -24 -2 -4 8 -5 -1 -2 -20 4 -27 -7 -66
-46 -164 -28 -71 -54 -142 -57 -157 l-5 -29 58 0 c42 -1 54 -3 43 -10 -11 -6
-19 -32 -25 -72 -4 -35 -9 -67 -10 -73 -1 -5 -2 -23 -3 -38 -1 -19 -5 -26 -13
-21 -9 5 -10 4 -3 -3 6 -6 77 -20 159 -31 83 -12 154 -26 160 -32 5 -5 15 -10
20 -10 6 0 4 5 -4 11 -12 8 -10 9 10 5 14 -4 106 -20 205 -37 99 -17 216 -38
260 -46 94 -17 178 -22 185 -11 3 4 28 9 55 12 28 2 58 7 68 11 9 4 26 5 37 2
11 -3 20 -1 20 4 0 5 10 9 23 9 12 0 54 7 92 15 39 9 92 16 119 16 33 1 44 4
35 10 -19 12 3 12 35 -1 17 -6 34 -6 48 1 21 9 21 9 -4 4 -15 -3 -29 -1 -32 4
-3 5 13 9 37 9 61 -1 69 1 62 12 -3 6 1 10 10 10 9 0 13 -4 10 -10 -4 -6 6
-10 22 -11 l28 -1 -25 -9 c-34 -11 38 -4 100 11 83 20 113 23 106 11 -4 -6
-17 -11 -30 -11 -12 0 -27 -5 -34 -12 -6 -6 -25 -11 -42 -10 -17 0 -28 -4 -25
-9 9 -14 34 -11 113 16 86 29 92 30 92 10 0 -8 -17 -19 -42 -26 -24 -7 -47
-16 -53 -20 -11 -7 -133 -24 -152 -20 -7 1 -13 -2 -13 -8 0 -9 -48 -25 -77
-26 -6 0 -15 -4 -19 -8 -4 -4 -30 -7 -58 -8 -41 -1 -46 -3 -26 -9 23 -7 23 -8
-10 -11 -19 -1 -48 -1 -65 0 -23 1 -27 0 -15 -8 12 -9 10 -11 -11 -11 -15 0
-54 -9 -88 -20 -34 -10 -68 -17 -76 -14 -8 4 -15 1 -15 -4 0 -6 -17 -14 -37
-17 -21 -4 -47 -10 -58 -15 -11 -5 -38 -13 -60 -18 -22 -6 -54 -15 -70 -20
-23 -7 -49 -5 -100 9 -39 11 -81 17 -95 14 -19 -4 -21 -3 -10 4 17 12 21 10
-95 39 -44 12 -111 30 -150 42 -38 12 -92 27 -120 35 -205 55 -251 68 -261 76
-6 5 -14 6 -17 3 -3 -3 -12 -2 -19 2 -15 10 -19 11 -54 13 -14 0 -22 5 -19 11
3 6 -5 10 -19 10 -13 0 -31 3 -40 6 -9 3 -16 2 -16 -4 0 -10 87 -42 114 -42 9
0 16 -4 16 -9 0 -5 9 -7 21 -4 12 3 24 1 28 -4 3 -6 42 -20 86 -31 44 -12 71
-21 59 -21 -11 -1 -56 8 -99 19 -43 11 -89 20 -102 20 -16 0 -22 4 -17 12 5 8
0 9 -14 6 -12 -4 -22 -2 -22 4 0 6 -11 7 -26 4 -17 -5 -23 -3 -19 4 5 9 -15
15 -37 11 -5 0 -8 215 -8 479 l0 480 25 0 c13 0 75 14 137 31 335 92 578 151
595 145 8 -3 11 -2 8 4 -3 5 11 12 32 16 21 3 70 14 108 24 82 22 98 23 139
10z m-279 -25 c-63 -18 -81 -18 -35 0 19 7 46 14 60 14 14 0 4 -6 -25 -14z
m515 0 c71 -17 33 -18 -45 -1 -33 8 -49 14 -35 15 14 0 50 -6 80 -14z m-630
-25 c-8 -5 -22 -9 -30 -9 -10 0 -8 3 5 9 27 12 43 12 25 0z m717 4 c-3 -3 -12
-4 -19 -1 -8 3 -5 6 6 6 11 1 17 -2 13 -5z m-848 -38 c-2 -2 -22 -6 -44 -9
-28 -5 -34 -4 -20 3 19 8 73 14 64 6z m1091 -21 c19 -7 28 -14 20 -14 -8 0
-28 6 -45 14 -39 17 -21 18 25 0z m-1190 -5 c0 -5 -6 -10 -14 -10 -8 0 -18 5
-21 10 -3 6 3 10 14 10 12 0 21 -4 21 -10z m-55 -10 c3 -6 -1 -7 -9 -4 -18 7
-21 14 -7 14 6 0 13 -4 16 -10z m1370 -10 c14 -7 8 -8 -20 -3 -22 3 -42 7 -44
9 -9 8 45 2 64 -6z m-1412 -7 c-7 -2 -21 -2 -30 0 -10 3 -4 5 12 5 17 0 24 -2
18 -5z m-68 -10 c-11 -2 -34 -11 -51 -18 -42 -20 -110 -29 -118 -17 -3 6 7 10
27 11 17 0 50 7 72 15 22 8 51 15 65 14 20 0 21 -1 5 -5z m1140 -69 c204 -36
397 -70 430 -75 33 -6 60 -11 61 -12 0 -1 -4 -38 -10 -82 l-12 -80 -867 0
-867 -1 -1 51 c-1 27 -4 64 -8 80 l-6 30 440 80 c242 45 447 79 455 78 8 -2
182 -33 385 -69z m532 40 c-3 -3 -12 -4 -19 -1 -8 3 -5 6 6 6 11 1 17 -2 13
-5z m-1851 -20 c18 -15 18 -15 -8 -10 -15 4 -30 2 -33 -4 -10 -16 -35 -12 -35
6 0 11 6 15 20 11 11 -3 20 -1 20 4 0 13 14 11 36 -7z m1911 0 c-3 -3 -12 -4
-19 -1 -8 3 -5 6 6 6 11 1 17 -2 13 -5z m-122 -34 c-3 -5 3 -10 14 -10 28 0
101 -30 101 -41 0 -5 -12 -6 -26 -3 -19 5 -25 4 -20 -5 4 -6 14 -11 22 -11 11
0 14 -16 14 -74 l0 -74 -32 3 -33 3 -1 68 c-1 101 -2 102 -26 102 -13 0 -42 3
-66 7 l-43 8 38 18 c43 20 67 24 58 9z m90 -270 c0 -30 -26 -38 -49 -14 -13
13 -14 19 -5 31 20 23 54 12 54 -17z m-1451 -17 c-4 -15 -10 -30 -13 -33 -3
-3 -13 -18 -21 -35 -8 -16 -16 -34 -19 -39 -2 -5 1 -6 7 -2 8 5 10 2 6 -8 -3
-9 -10 -14 -14 -11 -5 3 -12 0 -16 -6 -5 -8 -3 -9 6 -4 10 6 12 4 7 -9 -4 -10
-10 -29 -13 -42 -5 -20 -8 -21 -20 -9 -8 7 -14 23 -14 34 0 11 -4 22 -9 25 -4
3 -16 32 -25 65 -9 32 -23 64 -31 71 -8 7 -15 16 -15 19 0 4 43 8 95 10 l96 2
-7 -28z m260 -23 c0 -25 -2 -65 -3 -90 -2 -41 -3 -43 -13 -20 -5 14 -19 45
-30 69 -16 36 -16 42 -4 32 30 -25 16 5 -16 32 l-31 28 49 -3 49 -3 -1 -45z
m277 35 c-4 -5 -13 -29 -21 -52 -14 -46 -34 -49 -24 -5 4 21 3 24 -5 12 -9
-13 -11 -12 -11 4 0 13 5 17 20 13 12 -3 20 0 20 8 0 7 -9 11 -24 8 -15 -3
-25 1 -29 11 -5 13 2 15 38 13 27 -1 40 -6 36 -12z m233 9 c13 -5 13 -8 1 -20
-16 -16 -42 -9 -42 11 0 16 15 19 41 9z m392 -9 c-11 -8 -40 -16 -65 -16 -45
-2 -46 -2 -11 -9 29 -5 32 -8 16 -15 -11 -5 -25 -4 -35 4 -9 6 -29 20 -44 30
l-28 19 93 1 c84 1 91 -1 74 -14z m-183 -11 c43 -22 76 -53 94 -89 16 -29 16
-29 24 -7 11 30 46 65 89 91 73 44 192 16 248 -57 23 -30 27 -45 27 -102 0
-56 -4 -72 -26 -101 -39 -51 -99 -79 -167 -79 -32 1 -66 6 -78 13 -47 27 -77
59 -89 93 l-12 36 -19 -38 c-12 -24 -38 -52 -68 -71 -67 -45 -141 -46 -208 -4
-48 31 -68 57 -68 88 0 14 2 15 9 4 8 -13 6 44 -4 109 -5 35 32 86 80 110 49
24 124 26 168 4z m-1166 -31 c9 -21 28 -73 44 -115 15 -42 38 -100 51 -127 22
-48 25 -51 60 -51 21 0 38 5 38 10 0 6 -12 8 -27 6 -14 -3 -30 -3 -34 0 -4 2
11 48 33 102 52 126 70 174 65 179 -2 2 -26 -52 -52 -119 -27 -68 -52 -127
-57 -132 -19 -22 -6 27 31 115 21 52 44 111 50 132 l13 37 66 0 67 -1 60 -152
c33 -84 66 -157 73 -163 19 -14 96 -18 87 -4 -3 5 -19 10 -36 10 l-29 0 2 140
c2 77 0 140 -4 140 -5 0 -8 -62 -9 -137 0 -87 -4 -131 -9 -118 -5 11 -9 80 -9
153 l-1 132 78 0 77 0 23 -78 c12 -43 22 -86 22 -95 0 -30 18 -18 25 16 4 17
16 60 28 95 l20 62 73 0 74 0 0 -175 0 -175 -60 0 -60 0 0 35 c0 19 6 54 14
77 20 64 27 106 16 113 -5 3 -12 -7 -16 -22 -4 -15 -19 -66 -34 -113 l-27 -85
-39 -3 c-38 -3 -39 -2 -56 46 -10 28 -18 74 -19 103 0 30 -4 63 -9 74 -12 27
-12 18 -10 -113 l2 -112 -123 2 c-122 3 -123 3 -129 28 -5 23 -11 25 -63 28
-51 3 -57 1 -57 -16 0 -36 -23 -43 -131 -40 -101 3 -103 4 -109 28 -5 22 -12
25 -53 28 -27 2 -45 7 -42 13 4 5 2 9 -4 9 -6 0 -16 -18 -22 -40 l-12 -40 -57
0 c-31 0 -59 2 -62 5 -3 3 25 82 61 175 l66 170 63 0 63 0 16 -37z m1653 -3
c0 -5 -5 -10 -11 -10 -5 0 -7 5 -4 10 3 6 8 10 11 10 2 0 4 -4 4 -10z m-11
-261 c-12 -7 -12 -11 -1 -18 18 -11 13 -262 -5 -268 -8 -3 -9 6 -3 31 4 21 4
36 -1 36 -5 0 -9 -7 -9 -16 0 -8 -5 -12 -11 -8 -16 10 0 -38 17 -52 8 -6 14
-14 14 -18 0 -10 -45 -7 -55 3 -11 11 -95 -3 -131 -21 -12 -5 -36 -7 -54 -3
-35 8 -34 15 2 20 37 4 151 26 172 32 17 5 18 13 14 82 -3 42 -2 65 2 51 5
-14 9 -38 9 -55 1 -22 4 -26 10 -15 5 9 5 41 -1 75 -12 77 -17 92 -26 79 -9
-12 -31 -12 -34 1 -2 6 7 11 20 13 12 2 22 8 22 15 0 8 3 8 12 -1 14 -14 38
-16 38 -2 0 5 -7 7 -15 4 -18 -7 -19 -3 -4 30 7 14 16 23 22 19 5 -3 3 -9 -4
-14z m-294 -52 c29 -16 26 -16 -80 -15 -60 0 -102 2 -92 5 9 2 17 9 17 14 0 6
5 7 10 4 6 -3 22 8 36 25 l27 31 26 -24 c14 -14 40 -32 56 -40z m-1402 16 c-5
-12 -2 -15 10 -10 11 4 14 2 11 -7 -3 -9 -24 -14 -59 -14 -49 0 -53 1 -40 15
8 8 15 19 15 24 0 5 16 9 35 9 28 0 33 -3 28 -17z m365 -8 l27 -25 -26 0 c-17
0 -30 8 -38 23 l-12 22 5 -22 c3 -17 -1 -23 -14 -23 -13 0 -16 6 -12 25 3 16
11 25 24 25 10 0 31 -11 46 -25z m639 -7 c-6 -3 5 -8 24 -11 25 -3 21 -4 -19
-5 -49 -2 -52 -1 -43 17 6 10 8 21 4 24 -3 4 6 1 20 -6 16 -7 21 -14 14 -19z
m-324 -15 c-7 -2 -21 -2 -30 0 -10 3 -4 5 12 5 17 0 24 -2 18 -5z m140 0 c-7
-2 -21 -2 -30 0 -10 3 -4 5 12 5 17 0 24 -2 18 -5z m795 -108 c6 -44 9 -81 8
-82 -1 -1 -87 -18 -191 -37 -105 -19 -285 -53 -401 -75 -332 -63 -224 -69
-854 48 -118 22 -239 43 -268 47 -29 3 -54 10 -56 13 -3 4 0 42 6 86 l10 80
868 0 867 0 11 -80z m87 -215 c-3 -5 -16 -10 -28 -9 -20 1 -20 2 3 9 14 4 26
8 28 9 2 1 0 -3 -3 -9z m-88 -26 c-3 -3 -12 -4 -19 -1 -8 3 -5 6 6 6 11 1 17
-2 13 -5z m-1487 -54 c-20 -13 -33 -13 -25 0 3 6 14 10 23 10 15 0 15 -2 2
-10z m43 -17 c-7 -2 -21 -2 -30 0 -10 3 -4 5 12 5 17 0 24 -2 18 -5z m1187 3
c0 -2 -13 -6 -29 -8 -17 -2 -28 -1 -25 4 5 8 54 12 54 4z m-1127 -13 c-7 -2
-19 -2 -25 0 -7 3 -2 5 12 5 14 0 19 -2 13 -5z"/>
<path d="M1170 1934 c-22 -8 -28 -13 -15 -13 11 0 34 6 50 14 38 17 11 17 -35
-1z"/>
<path d="M1338 1933 c6 -2 18 -2 25 0 6 3 1 5 -13 5 -14 0 -19 -2 -12 -5z"/>
<path d="M1440 1936 c0 -2 7 -7 16 -10 8 -3 12 -2 9 4 -6 10 -25 14 -25 6z"/>
<path d="M1258 1923 c7 -3 16 -2 19 1 4 3 -2 6 -13 5 -11 0 -14 -3 -6 -6z"/>
<path d="M1255 1895 l-30 -14 28 -1 c15 0 27 4 27 9 0 5 8 12 18 14 11 3 12 5
2 5 -8 0 -28 -6 -45 -13z"/>
<path d="M1328 1903 c6 -2 18 -2 25 0 6 3 1 5 -13 5 -14 0 -19 -2 -12 -5z"/>
<path d="M938 1873 c7 -3 16 -2 19 1 4 3 -2 6 -13 5 -11 0 -14 -3 -6 -6z"/>
<path d="M1313 1873 c9 -2 25 -2 35 0 9 3 1 5 -18 5 -19 0 -27 -2 -17 -5z"/>
<path d="M863 1853 c9 -2 23 -2 30 0 6 3 -1 5 -18 5 -16 0 -22 -2 -12 -5z"/>
<path d="M930 1840 c19 -13 30 -13 30 0 0 6 -10 10 -22 10 -19 0 -20 -2 -8
-10z"/>
<path d="M1680 1841 c0 -4 11 -6 25 -3 14 2 25 6 25 8 0 2 -11 4 -25 4 -14 0
-25 -4 -25 -9z"/>
<path d="M790 1830 c8 -5 22 -9 30 -9 10 0 8 3 -5 9 -27 12 -43 12 -25 0z"/>
<path d="M878 1828 c6 -6 18 -8 28 -6 14 3 12 5 -9 10 -19 3 -25 2 -19 -4z"/>
<path d="M1588 1833 c6 -2 18 -2 25 0 6 3 1 5 -13 5 -14 0 -19 -2 -12 -5z"/>
<path d="M728 1823 c6 -2 18 -2 25 0 6 3 1 5 -13 5 -14 0 -19 -2 -12 -5z"/>
<path d="M1608 1813 c7 -3 16 -2 19 1 4 3 -2 6 -13 5 -11 0 -14 -3 -6 -6z"/>
<path d="M813 1803 c15 -2 39 -2 55 0 15 2 2 4 -28 4 -30 0 -43 -2 -27 -4z"/>
<path d="M1818 1803 c7 -3 16 -2 19 1 4 3 -2 6 -13 5 -11 0 -14 -3 -6 -6z"/>
<path d="M620 1790 c0 -5 5 -10 10 -10 6 0 10 5 10 10 0 6 -4 10 -10 10 -5 0
-10 -4 -10 -10z"/>
<path d="M658 1793 c6 -2 18 -2 25 0 6 3 1 5 -13 5 -14 0 -19 -2 -12 -5z"/>
<path d="M570 1780 c-12 -8 -10 -10 8 -10 13 0 20 4 17 10 -7 12 -6 12 -25 0z"/>
<path d="M2030 1779 c0 -5 17 -9 37 -9 20 0 33 3 30 6 -10 11 -67 13 -67 3z"/>
<path d="M508 1763 c6 -2 18 -2 25 0 6 3 1 5 -13 5 -14 0 -19 -2 -12 -5z"/>
<path d="M315 1702 c1 -9 6 -25 10 -35 4 -10 5 -36 1 -58 -4 -27 -3 -38 4 -34
13 8 13 105 0 105 -5 0 -7 6 -4 14 3 8 1 16 -4 20 -5 3 -8 -3 -7 -12z"/>
<path d="M351 1534 c0 -11 3 -14 6 -6 3 7 2 16 -1 19 -3 4 -6 -2 -5 -13z"/>
<path d="M349 1468 c-3 -21 -2 -38 2 -38 12 0 16 24 9 50 -6 22 -7 21 -11 -12z"/>
<path d="M355 1410 c3 -5 10 -10 16 -10 5 0 9 5 9 10 0 6 -7 10 -16 10 -8 0
-12 -4 -9 -10z"/>
<path d="M341 1363 c-1 -12 4 -25 9 -28 12 -7 12 2 0 30 -8 19 -9 19 -9 -2z"/>
<path d="M320 1344 c0 -10 5 -26 10 -34 8 -11 9 -7 4 15 -8 37 -14 45 -14 19z"/>
<path d="M315 1069 c-4 -6 -5 -12 -2 -15 2 -3 7 2 10 11 7 17 1 20 -8 4z"/>
<path d="M340 1070 c0 -5 5 -10 10 -10 6 0 10 5 10 10 0 6 -4 10 -10 10 -5 0
-10 -4 -10 -10z"/>
<path d="M346 1035 c4 -8 8 -15 10 -15 2 0 4 7 4 15 0 8 -4 15 -10 15 -5 0 -7
-7 -4 -15z"/>
<path d="M325 945 c-3 -26 -4 -49 -2 -51 3 -3 8 16 12 41 3 26 4 49 2 51 -3 3
-8 -16 -12 -41z"/>
<path d="M466 818 c6 -10 51 -11 57 0 3 4 -10 7 -28 8 -19 0 -32 -3 -29 -8z"/>
<path d="M1906 807 c-16 -12 -16 -13 2 -13 10 0 19 6 19 13 0 7 -1 13 -2 13
-1 0 -9 -6 -19 -13z"/>
<path d="M540 800 c0 -5 4 -10 9 -10 6 0 13 5 16 10 3 6 -1 10 -9 10 -9 0 -16
-4 -16 -10z"/>
<path d="M635 800 c3 -5 11 -10 16 -10 6 0 7 5 4 10 -3 6 -11 10 -16 10 -6 0
-7 -4 -4 -10z"/>
<path d="M623 774 c16 -8 36 -13 45 -11 12 3 11 5 -5 6 -12 0 -25 6 -28 11 -3
6 -14 10 -23 10 -11 -1 -8 -6 11 -16z"/>
<path d="M871 761 c-8 -5 -9 -11 -3 -15 5 -3 12 1 16 9 6 17 6 18 -13 6z"/>
<path d="M1538 753 c7 -3 16 -2 19 1 4 3 -2 6 -13 5 -11 0 -14 -3 -6 -6z"/>
<path d="M1005 730 c-3 -5 -1 -10 4 -10 6 0 11 5 11 10 0 6 -2 10 -4 10 -3 0
-8 -4 -11 -10z"/>
<path d="M1465 730 c-4 -7 3 -8 22 -4 38 9 42 14 10 14 -14 0 -29 -5 -32 -10z"/>
<path d="M1538 733 c7 -3 16 -2 19 1 4 3 -2 6 -13 5 -11 0 -14 -3 -6 -6z"/>
<path d="M790 720 c-11 -8 -7 -9 15 -4 37 8 45 14 19 14 -10 0 -26 -5 -34 -10z"/>
<path d="M1073 723 c9 -2 23 -2 30 0 6 3 -1 5 -18 5 -16 0 -22 -2 -12 -5z"/>
<path d="M1408 723 c7 -3 16 -2 19 1 4 3 -2 6 -13 5 -11 0 -14 -3 -6 -6z"/>
<path d="M1648 723 c6 -2 18 -2 25 0 6 3 1 5 -13 5 -14 0 -19 -2 -12 -5z"/>
<path d="M865 710 c-3 -5 -1 -10 4 -10 6 0 11 5 11 10 0 6 -2 10 -4 10 -3 0
-8 -4 -11 -10z"/>
<path d="M1758 713 c6 -2 18 -2 25 0 6 3 1 5 -13 5 -14 0 -19 -2 -12 -5z"/>
<path d="M1178 633 c7 -3 16 -2 19 1 4 3 -2 6 -13 5 -11 0 -14 -3 -6 -6z"/>
<path d="M1368 633 c6 -2 18 -2 25 0 6 3 1 5 -13 5 -14 0 -19 -2 -12 -5z"/>
<path d="M1440 630 c0 -5 5 -10 11 -10 5 0 7 5 4 10 -3 6 -8 10 -11 10 -2 0
-4 -4 -4 -10z"/>
<path d="M1208 613 c7 -3 16 -2 19 1 4 3 -2 6 -13 5 -11 0 -14 -3 -6 -6z"/>
<path d="M1268 1783 c12 -2 30 -2 40 0 9 3 -1 5 -23 4 -22 0 -30 -2 -17 -4z"/>
<path d="M1166 1771 c-4 -5 3 -7 14 -4 23 6 26 13 6 13 -8 0 -17 -4 -20 -9z"/>
<path d="M1348 1773 c7 -3 16 -2 19 1 4 3 -2 6 -13 5 -11 0 -14 -3 -6 -6z"/>
<path d="M1278 1763 c6 -2 18 -2 25 0 6 3 1 5 -13 5 -14 0 -19 -2 -12 -5z"/>
<path d="M1428 1763 c7 -3 16 -2 19 1 4 3 -2 6 -13 5 -11 0 -14 -3 -6 -6z"/>
<path d="M1345 1750 c-19 -8 -19 -9 3 -9 12 -1 22 4 22 9 0 6 -1 10 -2 9 -2 0
-12 -4 -23 -9z"/>
<path d="M1033 1743 c9 -2 23 -2 30 0 6 3 -1 5 -18 5 -16 0 -22 -2 -12 -5z"/>
<path d="M1380 1720 c-24 -8 -24 -8 5 -9 17 0 37 4 45 9 12 8 11 10 -5 9 -11
-1 -31 -5 -45 -9z"/>
<path d="M888 1713 c6 -2 18 -2 25 0 6 3 1 5 -13 5 -14 0 -19 -2 -12 -5z"/>
<path d="M988 1713 c6 -2 18 -2 25 0 6 3 1 5 -13 5 -14 0 -19 -2 -12 -5z"/>
<path d="M1148 1713 c7 -3 16 -2 19 1 4 3 -2 6 -13 5 -11 0 -14 -3 -6 -6z"/>
<path d="M1568 1713 c6 -2 18 -2 25 0 6 3 1 5 -13 5 -14 0 -19 -2 -12 -5z"/>
<path d="M1628 1713 c7 -3 16 -2 19 1 4 3 -2 6 -13 5 -11 0 -14 -3 -6 -6z"/>
<path d="M758 1703 c6 -2 18 -2 25 0 6 3 1 5 -13 5 -14 0 -19 -2 -12 -5z"/>
<path d="M570 1665 c0 -8 9 -15 20 -15 17 0 20 -7 20 -51 0 -35 4 -49 12 -47
8 3 11 21 9 51 -2 42 0 47 18 47 12 0 21 6 21 15 0 11 -12 15 -50 15 -38 0
-50 -4 -50 -15z"/>
<path d="M690 1614 c0 -48 3 -65 13 -61 6 2 12 14 11 26 -1 30 32 28 40 -4 4
-14 11 -25 16 -25 16 0 22 21 9 36 -9 11 -9 18 -1 26 32 32 1 68 -57 68 l-31
0 0 -66z m78 24 c-3 -7 -15 -13 -28 -13 -13 0 -25 6 -27 13 -3 8 6 12 27 12
21 0 30 -4 28 -12z"/>
<path d="M835 1624 c-16 -35 -22 -61 -16 -67 6 -6 13 -1 20 12 13 24 51 29 51
7 0 -17 16 -29 29 -22 10 7 -33 119 -48 124 -6 2 -22 -22 -36 -54z m45 -10 c0
-14 -12 -19 -23 -8 -9 9 4 35 14 28 5 -3 9 -12 9 -20z"/>
<path d="M950 1615 c0 -71 17 -90 22 -24 l3 42 25 -39 c14 -21 30 -39 35 -39
6 0 11 28 13 63 3 53 1 62 -14 62 -12 0 -15 -7 -12 -30 7 -44 -7 -46 -32 -5
-12 19 -26 35 -31 35 -5 0 -9 -29 -9 -65z"/>
<path d="M1082 1668 c-23 -23 -13 -46 23 -58 19 -6 35 -16 35 -22 0 -6 -13 -8
-35 -4 -27 5 -35 4 -35 -7 0 -18 39 -27 68 -16 39 15 24 62 -23 71 -30 5 -14
23 18 20 32 -4 36 13 5 22 -33 8 -43 7 -56 -6z"/>
<path d="M1190 1615 c0 -70 16 -90 22 -27 3 30 5 33 12 17 25 -63 24 -62 31
-27 10 45 25 50 25 8 0 -20 5 -36 10 -36 6 0 10 28 10 65 0 73 -13 84 -36 30
-8 -19 -16 -35 -19 -35 -3 0 -11 16 -19 35 -23 54 -36 43 -36 -30z"/>
<path d="M1330 1615 c0 -48 3 -66 12 -63 16 6 15 121 -1 126 -7 2 -11 -19 -11
-63z"/>
<path d="M1390 1665 c-19 -23 -8 -48 28 -57 40 -11 32 -32 -9 -23 -22 5 -29 3
-29 -8 0 -19 36 -28 66 -17 41 16 27 63 -21 72 -30 5 -14 23 18 20 32 -4 36
13 5 22 -34 9 -44 7 -58 -9z"/>
<path d="M1502 1671 c-26 -16 -10 -54 26 -63 40 -11 32 -32 -9 -24 -21 4 -29
2 -29 -8 0 -18 36 -27 66 -16 41 16 27 63 -21 72 -23 4 -18 24 5 21 8 -1 22 0
30 3 12 5 11 8 -5 14 -27 11 -47 12 -63 1z"/>
<path d="M1600 1615 c0 -49 3 -66 13 -62 16 5 15 119 -1 125 -8 2 -12 -16 -12
-63z"/>
<path d="M1666 1664 c-26 -25 -20 -81 9 -100 23 -15 27 -15 50 0 45 30 26 116
-25 116 -10 0 -26 -7 -34 -16z m59 -33 c8 -26 -4 -51 -26 -51 -20 0 -36 40
-24 59 10 18 43 12 50 -8z"/>
<path d="M1770 1614 c0 -48 3 -64 13 -61 7 2 11 19 10 41 -3 47 8 46 36 -4 12
-22 26 -40 32 -40 5 0 9 30 9 66 0 48 -3 65 -12 62 -8 -3 -12 -19 -10 -41 2
-20 1 -37 -2 -37 -3 0 -15 18 -26 40 -32 62 -50 53 -50 -26z"/>
<path d="M1899 1664 c-16 -20 -1 -46 31 -54 13 -3 26 -12 28 -19 4 -11 -4 -13
-32 -8 -40 6 -48 -6 -15 -24 31 -16 69 3 69 36 0 20 -6 27 -30 32 -16 3 -30
12 -30 19 0 10 9 12 30 8 31 -7 42 9 14 20 -27 10 -51 7 -65 -10z"/>
<path d="M437 1640 c-3 -11 -1 -20 4 -20 5 0 9 6 9 14 0 8 8 17 18 19 13 4 13
5 -4 6 -14 1 -24 -6 -27 -19z"/>
<path d="M2121 1614 c0 -11 3 -14 6 -6 3 7 2 16 -1 19 -3 4 -6 -2 -5 -13z"/>
<path d="M435 1599 c-4 -6 -5 -12 -2 -15 2 -3 7 2 10 11 7 17 1 20 -8 4z"/>
<path d="M466 1597 c3 -10 9 -15 12 -12 3 3 0 11 -7 18 -10 9 -11 8 -5 -6z"/>
<path d="M2097 1589 c4 -13 8 -18 11 -10 2 7 -1 18 -6 23 -8 8 -9 4 -5 -13z"/>
<path d="M560 1593 c0 -4 5 -15 10 -23 8 -13 10 -13 10 2 0 9 -4 20 -10 23 -5
3 -10 3 -10 -2z"/>
<path d="M2108 1733 c7 -3 16 -2 19 1 4 3 -2 6 -13 5 -11 0 -14 -3 -6 -6z"/>
<path d="M2150 1720 c-9 -6 -10 -10 -3 -10 6 0 15 5 18 10 8 12 4 12 -15 0z"/>
<path d="M2200 1668 c1 -7 8 -24 16 -38 8 -14 13 -17 10 -7 -3 10 -6 27 -6 38
0 10 -4 19 -10 19 -5 0 -10 -6 -10 -12z"/>
<path d="M2192 1620 c0 -14 2 -19 5 -12 2 6 2 18 0 25 -3 6 -5 1 -5 -13z"/>
<path d="M2220 1589 c0 -5 5 -7 10 -4 6 3 10 8 10 11 0 2 -4 4 -10 4 -5 0 -10
-5 -10 -11z"/>
<path d="M630 1468 c0 -4 21 -8 48 -7 52 1 48 6 -10 11 -21 2 -38 0 -38 -4z"/>
<path d="M738 1463 c7 -3 16 -2 19 1 4 3 -2 6 -13 5 -11 0 -14 -3 -6 -6z"/>
<path d="M727 1430 c3 -11 7 -20 9 -20 2 0 4 9 4 20 0 11 -4 20 -9 20 -5 0 -7
-9 -4 -20z"/>
<path d="M688 1433 c7 -3 16 -2 19 1 4 3 -2 6 -13 5 -11 0 -14 -3 -6 -6z"/>
<path d="M668 1383 c6 -2 18 -2 25 0 6 3 1 5 -13 5 -14 0 -19 -2 -12 -5z"/>
<path d="M691 1294 c0 -11 3 -14 6 -6 3 7 2 16 -1 19 -3 4 -6 -2 -5 -13z"/>
<path d="M1022 1420 c0 -14 2 -19 5 -12 2 6 2 18 0 25 -3 6 -5 1 -5 -13z"/>
<path d="M1836 1471 c-3 -4 6 -6 19 -3 14 2 25 6 25 8 0 8 -39 4 -44 -5z"/>
<path d="M1898 1473 c7 -3 16 -2 19 1 4 3 -2 6 -13 5 -11 0 -14 -3 -6 -6z"/>
<path d="M2019 1413 c-13 -16 -12 -17 4 -4 9 7 17 15 17 17 0 8 -8 3 -21 -13z"/>
<path d="M1685 1410 c3 -5 15 -10 25 -10 10 0 27 -11 38 -25 15 -19 29 -25 57
-25 21 0 34 4 30 10 -3 6 -22 10 -41 10 -19 0 -34 5 -34 11 0 7 -8 18 -17 25
-21 16 -67 19 -58 4z"/>
<path d="M2060 1411 c0 -5 13 -11 29 -14 35 -7 64 -63 57 -107 -2 -17 0 -28 5
-24 5 3 9 26 9 50 0 37 -6 51 -29 75 -28 27 -71 40 -71 20z"/>
<path d="M1648 1378 c-9 -7 -21 -31 -27 -53 -9 -32 -7 -46 7 -75 15 -31 21
-35 57 -35 32 0 42 5 52 25 11 22 19 25 70 25 l57 0 2 37 3 36 -54 -5 c-51 -5
-56 -4 -84 26 -31 33 -57 39 -83 19z m59 -35 c10 -27 23 -33 81 -33 28 0 52
-4 52 -10 0 -5 -22 -10 -48 -10 -27 0 -52 -3 -56 -7 -11 -11 -46 -14 -46 -3 0
19 -19 10 -26 -12 -7 -22 -7 -22 -17 5 -12 37 8 87 35 87 10 0 22 -8 25 -17z
m-21 -90 c-6 -15 -4 -15 14 2 11 10 20 13 20 8 0 -16 -28 -36 -40 -28 -13 8
-13 35 1 35 6 0 8 -7 5 -17z"/>
<path d="M1670 1330 c0 -13 18 -22 24 -11 3 5 -1 11 -9 15 -8 3 -15 1 -15 -4z"/>
<path d="M1708 1293 c7 -3 16 -2 19 1 4 3 -2 6 -13 5 -11 0 -14 -3 -6 -6z"/>
<path d="M1950 1380 c0 -6 7 -10 15 -10 8 0 15 2 15 4 0 2 -7 6 -15 10 -8 3
-15 1 -15 -4z"/>
<path d="M2014 1369 c-13 -15 -19 -36 -19 -69 0 -59 24 -90 69 -90 25 0 36 7
50 31 50 85 -37 197 -100 128z m67 -30 c23 -27 22 -82 -2 -97 -19 -12 -49 -6
-49 9 0 13 18 11 23 -3 4 -10 6 -10 6 0 1 8 -8 16 -19 19 -21 5 -25 28 -14 71
8 28 31 28 55 1z"/>
<path d="M2030 1308 c0 -9 5 -20 11 -23 17 -11 18 -2 3 19 -12 17 -14 17 -14
4z"/>
<path d="M1572 1344 c-2 -19 -1 -34 2 -34 7 0 13 61 6 65 -3 2 -7 -12 -8 -31z"/>
<path d="M1890 1344 c-15 -38 -12 -71 9 -112 22 -43 67 -79 107 -87 16 -3 22
-2 14 1 -85 35 -131 105 -120 179 8 51 4 57 -10 19z"/>
<path d="M2197 1313 c-6 -30 1 -53 15 -53 5 0 6 6 1 12 -4 7 -6 25 -4 40 3 36
-5 36 -12 1z"/>
<path d="M1930 1291 c0 -6 4 -13 10 -16 6 -3 7 1 4 9 -7 18 -14 21 -14 7z"/>
<path d="M1783 1233 c9 -2 23 -2 30 0 6 3 -1 5 -18 5 -16 0 -22 -2 -12 -5z"/>
<path d="M1965 1230 c3 -5 8 -10 11 -10 2 0 4 5 4 10 0 6 -5 10 -11 10 -5 0
-7 -4 -4 -10z"/>
<path d="M2150 1230 c0 -5 5 -10 11 -10 5 0 7 5 4 10 -3 6 -8 10 -11 10 -2 0
-4 -4 -4 -10z"/>
<path d="M1540 1213 c0 -17 58 -62 88 -69 15 -3 35 -7 45 -9 9 -2 17 0 17 5 0
4 -19 10 -41 13 -23 3 -45 9 -48 14 -16 22 -61 55 -61 46z"/>
<path d="M447 1413 c-7 -39 -1 -40 11 -4 6 17 7 31 3 31 -5 0 -11 -12 -14 -27z"/>
<path d="M886 1383 c-10 -32 -22 -71 -27 -87 -14 -44 -12 -46 37 -44 37 1 44
4 40 17 -23 75 -34 129 -30 148 12 48 -4 21 -20 -34z m27 -80 c6 -32 3 -38
-12 -28 -13 8 -15 55 -2 55 5 0 11 -12 14 -27z"/>
<path d="M491 1404 c0 -11 3 -14 6 -6 3 7 2 16 -1 19 -3 4 -6 -2 -5 -13z"/>
<path d="M920 1411 c0 -6 4 -13 10 -16 6 -3 7 1 4 9 -7 18 -14 21 -14 7z"/>
<path d="M520 1378 c-1 -13 -9 -47 -19 -75 l-18 -53 50 0 c43 0 48 2 42 18 -3
9 -11 37 -17 62 -17 70 -17 70 -28 70 -5 0 -10 -10 -10 -22z m34 -107 c-9 -11
-24 15 -23 42 l1 32 12 -35 c8 -19 12 -37 10 -39z"/>
<path d="M1442 1363 c-6 -20 -10 -39 -8 -41 2 -2 9 13 16 33 7 20 10 38 8 41
-3 2 -10 -13 -16 -33z"/>
<path d="M942 1350 c0 -19 2 -27 5 -17 2 9 2 25 0 35 -3 9 -5 1 -5 -18z"/>
<path d="M832 1345 c0 -16 2 -22 5 -12 2 9 2 23 0 30 -3 6 -5 -1 -5 -18z"/>
<path d="M415 1319 c-4 -6 -5 -12 -2 -15 2 -3 7 2 10 11 7 17 1 20 -8 4z"/>
<path d="M450 1310 c0 -11 4 -20 9 -20 5 0 7 9 4 20 -3 11 -7 20 -9 20 -2 0
-4 -9 -4 -20z"/>
<path d="M604 1295 c0 -14 4 -25 9 -25 10 0 9 38 -2 44 -5 3 -8 -5 -7 -19z"/>
<path d="M1451 1304 c0 -11 3 -14 6 -6 3 7 2 16 -1 19 -3 4 -6 -2 -5 -13z"/>
<path d="M1421 1294 c0 -11 3 -14 6 -6 3 7 2 16 -1 19 -3 4 -6 -2 -5 -13z"/>
<path d="M805 1270 c-10 -11 -15 -20 -11 -20 11 0 39 30 34 36 -3 2 -13 -5
-23 -16z"/>
<path d="M595 1240 c-3 -5 -1 -10 4 -10 6 0 11 5 11 10 0 6 -2 10 -4 10 -3 0
-8 -4 -11 -10z"/>
<path d="M961 1243 c-1 -17 16 -25 25 -12 4 7 3 9 -4 5 -5 -3 -13 0 -15 6 -4
9 -6 10 -6 1z"/>
<path d="M1437 1243 c-4 -3 -7 -16 -6 -27 0 -19 1 -19 10 3 10 24 8 36 -4 24z"/>
<path d="M810 1229 c0 -5 5 -7 10 -4 6 3 10 8 10 11 0 2 -4 4 -10 4 -5 0 -10
-5 -10 -11z"/>
<path d="M1298 1217 c-3 -19 -2 -25 4 -19 6 6 8 18 6 28 -3 14 -5 12 -10 -9z"/>
<path d="M1231 1215 c1 -19 18 -51 18 -35 0 8 -4 22 -9 30 -5 8 -9 11 -9 5z"/>
<path d="M990 1199 c0 -5 5 -7 10 -4 6 3 10 8 10 11 0 2 -4 4 -10 4 -5 0 -10
-5 -10 -11z"/>
<path d="M590 1170 c18 -25 28 -30 61 -30 24 0 38 4 34 10 -3 6 -24 10 -46 10
-21 0 -38 3 -38 8 3 20 -3 32 -17 32 -13 0 -12 -5 6 -30z"/>
<path d="M946 1178 c10 -13 24 -26 29 -30 15 -11 75 -9 75 2 0 6 -17 10 -39
10 -30 0 -40 4 -44 20 -3 11 -13 20 -23 20 -16 0 -16 -2 2 -22z"/>
<path d="M360 1148 c0 -4 16 -8 35 -8 19 0 35 5 35 10 0 6 -16 10 -35 8 -19
-1 -35 -6 -35 -10z"/>
<path d="M1270 1150 c0 -5 9 -10 20 -10 11 0 20 5 20 10 0 6 -9 10 -20 10 -11
0 -20 -4 -20 -10z"/>
<path d="M1409 1149 c-9 -6 -1 -9 24 -9 20 0 37 4 37 9 0 11 -44 11 -61 0z"/>
<path d="M2222 1015 c0 -16 2 -22 5 -12 2 9 2 23 0 30 -3 6 -5 -1 -5 -18z"/>
<path d="M1840 1129 c0 -5 5 -7 10 -4 6 3 10 8 10 11 0 2 -4 4 -10 4 -5 0 -10
-5 -10 -11z"/>
<path d="M459 1012 c5 -34 6 -35 9 -8 2 16 0 32 -5 37 -5 5 -7 -7 -4 -29z"/>
<path d="M2121 1034 c0 -11 3 -14 6 -6 3 7 2 16 -1 19 -3 4 -6 -2 -5 -13z"/>
<path d="M1007 1033 c-4 -3 -7 -33 -7 -65 l0 -59 43 3 c44 3 51 23 7 23 -23 1
-25 4 -25 47 0 47 -6 64 -18 51z"/>
<path d="M2092 1015 c0 -16 2 -22 5 -12 2 9 2 23 0 30 -3 6 -5 -1 -5 -18z"/>
<path d="M573 1018 c2 -7 11 -12 21 -10 13 2 16 -6 16 -48 0 -39 3 -50 16 -50
12 0 15 10 13 48 -3 35 0 47 11 47 7 0 15 6 18 13 2 8 -11 12 -48 12 -37 0
-50 -4 -47 -12z"/>
<path d="M692 1018 c-36 -46 -13 -112 36 -106 39 4 60 46 43 87 -11 24 -20 31
-41 31 -15 0 -32 -6 -38 -12z m56 -42 c4 -32 -15 -51 -35 -34 -14 11 -18 50
-6 62 15 15 38 -1 41 -28z"/>
<path d="M783 1018 c2 -7 11 -12 21 -10 13 2 16 -6 16 -48 0 -27 5 -50 10 -50
6 0 10 23 10 50 0 42 3 50 16 48 10 -2 19 3 21 10 3 8 -10 12 -47 12 -37 0
-50 -4 -47 -12z"/>
<path d="M895 978 c-11 -29 -21 -56 -23 -60 -2 -4 3 -8 12 -8 9 0 16 7 16 15
0 9 9 15 25 15 16 0 25 -6 25 -15 0 -8 7 -15 16 -15 11 0 14 6 8 23 -36 114
-51 122 -79 45z m45 -3 c0 -8 -7 -15 -15 -15 -16 0 -20 12 -8 23 11 12 23 8
23 -8z"/>
<path d="M1150 1011 c-22 -42 -2 -101 35 -101 24 0 45 12 45 26 0 17 -12 18
-28 2 -14 -14 -42 6 -42 32 0 27 27 45 44 31 16 -13 32 2 21 19 -11 18 -64 11
-75 -9z"/>
<path d="M1266 974 c-17 -55 -14 -86 5 -51 13 22 38 22 55 0 23 -32 26 -5 6
49 -27 72 -44 72 -66 2z m44 1 c0 -8 -7 -15 -15 -15 -9 0 -12 6 -9 15 4 8 10
15 15 15 5 0 9 -7 9 -15z"/>
<path d="M1370 971 c0 -49 3 -61 16 -61 10 0 14 7 12 22 -4 31 20 34 32 4 5
-14 16 -26 25 -26 18 0 19 12 4 27 -8 8 -7 17 3 32 20 32 0 55 -51 59 l-41 3
0 -60z m75 29 c8 -13 -37 -31 -49 -20 -4 5 -5 13 -2 19 9 14 43 14 51 1z"/>
<path d="M1541 1016 c-17 -20 -10 -87 10 -99 21 -13 69 -1 69 18 0 18 -12 19
-28 3 -14 -14 -42 6 -42 32 0 27 27 45 44 31 16 -13 32 2 21 19 -9 15 -61 12
-74 -4z"/>
<path d="M1655 978 c-11 -29 -21 -56 -23 -60 -2 -4 3 -8 12 -8 9 0 16 7 16 15
0 9 9 15 25 15 16 0 25 -6 25 -15 0 -8 7 -15 15 -15 19 0 19 5 -4 65 -25 67
-42 68 -66 3z m45 -9 c0 -5 -7 -9 -15 -9 -15 0 -20 12 -9 23 8 8 24 -1 24 -14z"/>
<path d="M1762 968 c2 -36 7 -62 13 -60 6 1 10 12 10 24 0 31 20 33 33 3 12
-26 32 -34 32 -12 0 7 -5 18 -12 25 -8 8 -8 12 -1 12 15 0 22 34 11 54 -6 11
-22 16 -49 16 l-40 0 3 -62z m63 31 c9 -13 5 -16 -20 -21 -12 -2 -21 3 -23 15
-4 19 32 25 43 6z"/>
<path d="M1880 969 l0 -60 43 3 c46 3 50 24 5 22 -18 -1 -28 3 -28 12 0 8 9
14 21 14 12 0 19 5 16 13 -2 6 -12 11 -21 11 -9 -1 -16 5 -16 13 0 10 9 13 32
11 18 -2 33 2 35 10 3 8 -9 12 -41 12 l-46 0 0 -61z"/>
<path d="M2111 974 c0 -11 3 -14 6 -6 3 7 2 16 -1 19 -3 4 -6 -2 -5 -13z"/>
<path d="M561 964 c0 -11 3 -14 6 -6 3 7 2 16 -1 19 -3 4 -6 -2 -5 -13z"/>
<path d="M1990 960 c0 -5 5 -10 11 -10 5 0 7 5 4 10 -3 6 -8 10 -11 10 -2 0
-4 -4 -4 -10z"/>
<path d="M500 950 c0 -5 7 -7 15 -4 8 4 15 8 15 10 0 2 -7 4 -15 4 -8 0 -15
-4 -15 -10z"/>
<path d="M572 920 c0 -14 2 -19 5 -12 2 6 2 18 0 25 -3 6 -5 1 -5 -13z"/>
<path d="M1490 920 c0 -5 5 -10 11 -10 5 0 7 5 4 10 -3 6 -8 10 -11 10 -2 0
-4 -4 -4 -10z"/>
<path d="M1505 890 c-3 -6 1 -7 9 -4 18 7 21 14 7 14 -6 0 -13 -4 -16 -10z"/>
<path d="M796 878 c3 -5 10 -6 15 -3 13 9 11 12 -6 12 -8 0 -12 -4 -9 -9z"/>
<path d="M1000 880 c8 -5 22 -9 30 -9 10 0 8 3 -5 9 -27 12 -43 12 -25 0z"/>
<path d="M1298 883 c7 -3 16 -2 19 1 4 3 -2 6 -13 5 -11 0 -14 -3 -6 -6z"/>
<path d="M1545 880 c-3 -5 -1 -10 4 -10 6 0 11 5 11 10 0 6 -2 10 -4 10 -3 0
-8 -4 -11 -10z"/>
<path d="M1620 880 c0 -4 11 -10 25 -12 13 -3 22 -2 20 2 -7 11 -45 20 -45 10z"/>
<path d="M1755 870 c3 -5 8 -10 11 -10 2 0 4 5 4 10 0 6 -5 10 -11 10 -5 0 -7
-4 -4 -10z"/>
<path d="M878 863 c7 -3 16 -2 19 1 4 3 -2 6 -13 5 -11 0 -14 -3 -6 -6z"/>
<path d="M1698 863 c6 -2 18 -2 25 0 6 3 1 5 -13 5 -14 0 -19 -2 -12 -5z"/>
<path d="M1470 2030 c34 -11 60 -11 35 0 -11 5 -29 8 -40 8 -16 0 -15 -2 5 -8z"/>
<path d="M1670 1990 c8 -5 28 -10 44 -10 39 0 30 6 -19 13 -27 4 -35 3 -25 -3z"/>
<path d="M1818 1993 c7 -3 16 -2 19 1 4 3 -2 6 -13 5 -11 0 -14 -3 -6 -6z"/>
<path d="M728 1973 c7 -3 16 -2 19 1 4 3 -2 6 -13 5 -11 0 -14 -3 -6 -6z"/>
<path d="M1760 1970 c-9 -6 -10 -10 -3 -10 6 0 15 5 18 10 8 12 4 12 -15 0z"/>
<path d="M1925 1930 c3 -5 11 -10 16 -10 6 0 7 5 4 10 -3 6 -11 10 -16 10 -6
0 -7 -4 -4 -10z"/>
<path d="M468 1913 c7 -3 16 -2 19 1 4 3 -2 6 -13 5 -11 0 -14 -3 -6 -6z"/>
<path d="M320 1899 c0 -5 5 -7 10 -4 6 3 10 8 10 11 0 2 -4 4 -10 4 -5 0 -10
-5 -10 -11z"/>
<path d="M508 1903 c7 -3 16 -2 19 1 4 3 -2 6 -13 5 -11 0 -14 -3 -6 -6z"/>
<path d="M2160 1880 c0 -6 7 -10 15 -10 8 0 15 2 15 4 0 2 -7 6 -15 10 -8 3
-15 1 -15 -4z"/>
<path d="M2343 1280 c0 -47 2 -66 4 -42 2 23 2 61 0 85 -2 23 -4 4 -4 -43z"/>
<path d="M2343 840 c0 -25 2 -35 4 -22 2 12 2 32 0 45 -2 12 -4 2 -4 -23z"/>
<path d="M265 730 c3 -5 8 -10 11 -10 2 0 4 5 4 10 0 6 -5 10 -11 10 -5 0 -7
-4 -4 -10z"/>
<path d="M2070 670 c8 -5 20 -10 25 -10 6 0 3 5 -5 10 -8 5 -19 10 -25 10 -5
0 -3 -5 5 -10z"/>
<path d="M413 663 c9 -2 23 -2 30 0 6 3 -1 5 -18 5 -16 0 -22 -2 -12 -5z"/>
<path d="M2138 663 c7 -3 16 -2 19 1 4 3 -2 6 -13 5 -11 0 -14 -3 -6 -6z"/>
<path d="M2030 650 c0 -5 5 -10 11 -10 5 0 7 5 4 10 -3 6 -8 10 -11 10 -2 0
-4 -4 -4 -10z"/>
<path d="M548 643 c7 -3 16 -2 19 1 4 3 -2 6 -13 5 -11 0 -14 -3 -6 -6z"/>
<path d="M1998 643 c7 -3 16 -2 19 1 4 3 -2 6 -13 5 -11 0 -14 -3 -6 -6z"/>
<path d="M808 573 c7 -3 16 -2 19 1 4 3 -2 6 -13 5 -11 0 -14 -3 -6 -6z"/>
<path d="M850 576 c0 -2 9 -6 20 -9 11 -3 18 -1 14 4 -5 9 -34 13 -34 5z"/>
<path d="M1675 570 c-3 -6 1 -7 9 -4 18 7 21 14 7 14 -6 0 -13 -4 -16 -10z"/>
<path d="M1725 570 c-25 -11 1 -11 35 0 20 6 21 8 5 8 -11 0 -29 -3 -40 -8z"/>
<path d="M1048 503 c7 -3 16 -2 19 1 4 3 -2 6 -13 5 -11 0 -14 -3 -6 -6z"/>
<path d="M1118 483 c7 -3 16 -2 19 1 4 3 -2 6 -13 5 -11 0 -14 -3 -6 -6z"/>
<path d="M1218 483 c7 -3 16 -2 19 1 4 3 -2 6 -13 5 -11 0 -14 -3 -6 -6z"/>
<path d="M1418 483 c7 -3 16 -2 19 1 4 3 -2 6 -13 5 -11 0 -14 -3 -6 -6z"/>
<path d="M1488 483 c6 -2 18 -2 25 0 6 3 1 5 -13 5 -14 0 -19 -2 -12 -5z"/>
</g>
</svg>
