<?xml version="1.0" standalone="no"?>
<!DOCTYPE svg PUBLIC "-//W3C//DTD SVG 20010904//EN"
 "http://www.w3.org/TR/2001/REC-SVG-20010904/DTD/svg10.dtd">
<svg version="1.0" xmlns="http://www.w3.org/2000/svg"
 width="192.000000pt" height="192.000000pt" viewBox="0 0 192.000000 192.000000"
 preserveAspectRatio="xMidYMid meet">
<metadata>
Created by potrace 1.16, written by Peter Selinger 2001-2019
</metadata>
<g transform="translate(0.000000,192.000000) scale(0.100000,-0.100000)"
fill="#000000" stroke="none">
<path d="M458 1573 l-458 -106 0 -497 0 -498 465 -116 c256 -64 481 -116 501
-116 28 0 455 104 907 221 l37 10 0 499 c0 275 -2 500 -4 500 -2 0 -209 47
-461 105 -251 58 -474 105 -494 104 -20 0 -242 -48 -493 -106z m967 -18 c252
-58 459 -105 461 -105 2 0 4 -216 4 -480 l0 -479 -37 -10 c-21 -5 -229 -58
-463 -117 l-424 -108 -473 118 -473 118 0 478 0 477 428 97 c235 54 441 102
457 106 17 5 37 9 46 9 9 1 223 -46 474 -104z"/>
<path d="M655 1555 c-289 -70 -538 -137 -580 -155 -56 -25 42 -4 323 70 169
43 363 93 432 110 l125 31 220 -54 c121 -31 247 -60 280 -67 151 -29 381 -83
389 -91 21 -19 -6 -16 -133 16 -163 41 -162 29 2 -15 l117 -32 0 -84 c0 -79
-1 -84 -21 -84 -20 0 -21 4 -15 38 21 113 21 120 -10 128 -16 4 -59 8 -95 8
-38 1 -62 5 -55 9 6 5 -4 6 -24 4 -19 -3 -66 1 -105 9 -38 7 -177 31 -308 54
l-239 41 -191 -36 c-166 -30 -620 -105 -638 -105 -4 0 -3 -17 1 -37 5 -21 14
-71 20 -112 9 -52 15 -70 22 -60 22 32 -6 -73 -53 -194 -27 -71 -49 -133 -49
-138 0 -5 24 -9 53 -9 28 0 47 -4 40 -8 -9 -6 -47 -193 -40 -198 1 0 99 -16
217 -34 118 -18 300 -47 403 -66 103 -19 199 -34 213 -34 36 0 756 129 812
146 7 2 12 24 13 61 l1 58 9 -45 c5 -25 11 -55 14 -67 4 -19 0 -22 -53 -28
-70 -8 -185 -33 -157 -34 42 -1 207 27 217 37 8 8 5 42 -9 121 l-20 110 29 27
28 28 0 -146 0 -146 -130 -43 c-72 -23 -128 -44 -126 -46 2 -2 61 12 131 32
118 34 152 38 129 15 -5 -5 -112 -34 -239 -65 -126 -31 -320 -82 -430 -113
-110 -30 -208 -55 -218 -54 -9 0 -178 47 -375 103 -517 147 -522 149 -522 139
0 -5 19 -14 43 -21 23 -6 60 -17 82 -24 241 -78 734 -215 775 -215 16 0 339
82 873 221 l37 10 0 448 0 449 -22 5 c-13 3 -213 49 -446 102 -232 53 -428 98
-435 100 -7 2 -147 -30 -312 -70z m703 -160 c200 -36 372 -65 383 -65 18 0 19
-5 13 -72 -4 -40 -8 -74 -9 -76 -3 -3 -1568 -3 -1571 1 -1 1 -3 33 -5 71 l-4
69 395 72 c217 40 404 71 415 69 11 -2 183 -33 383 -69z m399 -41 c-3 -3 -12
-4 -19 -1 -8 3 -5 6 6 6 11 1 17 -2 13 -5z m36 -41 c-8 -51 -10 -51 -15 -4 -2
28 0 41 9 41 8 0 10 -12 6 -37z m37 -163 c0 -25 -25 -36 -45 -20 -20 16 -7 40
21 40 17 0 24 -6 24 -20z m-1354 -106 c-22 -58 -42 -100 -45 -93 -2 8 -21 55
-42 106 l-38 93 83 0 84 0 -42 -106z m269 27 c0 -44 -1 -78 -2 -77 -3 2 -63
150 -63 154 0 1 15 2 33 2 l33 0 -1 -79z m244 67 c0 -7 -6 -29 -14 -48 -8 -23
-15 -30 -18 -20 -28 80 -28 80 4 80 17 0 29 -5 28 -12z m230 9 c-2 -1 -11 -8
-20 -15 -14 -10 -18 -10 -23 3 -4 11 1 15 21 15 14 0 24 -1 22 -3z m196 -26
c33 -19 78 -78 72 -95 -5 -14 -107 -21 -107 -7 0 17 -31 41 -54 41 -55 0 -82
-94 -41 -140 25 -28 76 -24 90 8 8 19 17 22 62 22 l53 0 0 33 c1 17 6 42 13
55 11 20 13 15 9 -40 -2 -50 1 -70 17 -95 26 -42 88 -73 148 -74 45 -1 46 -1
15 -9 -69 -16 -140 18 -178 84 l-21 37 -13 -31 c-34 -81 -159 -118 -245 -72
-29 15 -52 43 -64 77 -9 25 -8 27 2 11 47 -71 90 -97 159 -95 l43 1 -53 8
c-57 9 -118 47 -131 83 -12 31 -19 137 -9 131 4 -3 5 1 2 9 -7 19 55 67 99 77
41 10 94 2 132 -19z m116 3 c-16 -14 -33 -25 -36 -25 -3 0 -20 11 -36 25 l-31
26 67 0 67 0 -31 -26z m221 0 c38 -19 78 -75 85 -118 8 -49 -21 -120 -60 -151
-30 -22 -37 -23 -99 -15 -117 14 -160 64 -156 176 2 62 4 68 35 91 56 43 130
49 195 17z m-821 -67 c12 -40 24 -79 26 -87 3 -8 17 24 32 72 l26 88 68 0 67
0 0 -155 0 -155 -56 0 c-47 0 -55 3 -50 16 3 9 7 34 7 57 l2 42 7 -35 c6 -27
8 -17 9 44 0 44 -2 76 -5 73 -4 -3 -19 -48 -34 -99 l-28 -93 -39 -3 -39 -3
-16 63 c-21 78 -17 86 8 16 17 -46 23 -53 47 -54 24 -1 24 -1 3 3 -22 4 -29
16 -53 91 -15 48 -30 91 -35 96 -4 5 -5 -41 -1 -103 l6 -112 -114 3 c-110 3
-114 4 -117 26 -3 20 -9 22 -57 22 -48 0 -54 -2 -57 -22 -3 -22 -8 -23 -104
-26 -101 -3 -102 -2 -108 22 -5 21 -13 25 -54 29 l-47 3 47 2 c36 2 52 -3 67
-19 14 -15 28 -19 52 -16 l34 4 -36 1 c-27 2 -38 7 -42 22 -4 17 -14 20 -66
20 l-60 0 -7 -35 -6 -35 -58 0 -59 0 23 58 c13 31 40 101 61 155 l37 98 60 -3
60 -3 18 -45 c9 -25 34 -89 55 -142 l37 -98 42 2 c41 1 41 1 5 5 l-36 4 53
130 c29 71 50 129 46 129 -4 0 -29 -57 -57 -126 -27 -70 -51 -122 -52 -117 -2
5 18 66 45 134 l48 124 60 3 60 3 53 -133 c29 -73 58 -139 63 -145 6 -7 29
-12 52 -11 37 1 38 2 9 5 l-33 4 -2 132 -2 132 -6 -130 c-3 -80 -8 -120 -12
-105 -8 26 -11 244 -4 251 2 2 34 2 70 1 l65 -4 22 -71z m487 -67 c33 0 51 -4
47 -10 -3 -5 -28 -10 -55 -10 -39 0 -50 -4 -55 -19 -9 -29 -33 -33 -50 -8 -19
28 -19 47 2 76 l16 24 22 -26 c18 -23 28 -27 73 -27z m82 -129 c0 -6 19 -21
43 -35 l42 -26 -95 0 c-90 1 -93 2 -63 15 18 7 38 23 45 34 13 22 28 28 28 12z
m-1197 -41 c5 -18 0 -20 -39 -20 -42 0 -43 1 -32 20 8 12 24 20 39 20 18 0 28
-6 32 -20z m327 0 c10 -19 8 -20 -34 -20 -39 0 -44 2 -39 20 4 14 14 20 34 20
18 0 32 -7 39 -20z m582 0 l33 -20 -37 0 c-31 0 -38 4 -38 20 0 25 2 25 42 0z
m558 -20 c0 -5 -7 -7 -15 -4 -8 4 -15 8 -15 10 0 2 7 4 15 4 8 0 15 -4 15 -10z
m-16 -91 c4 -39 5 -73 2 -77 -3 -3 -183 -39 -398 -79 l-393 -74 -400 72 c-220
40 -402 74 -404 75 -2 2 0 37 4 79 l7 75 788 0 787 0 7 -71z"/>
<path d="M358 1322 c-36 -3 -55 -22 -23 -22 11 0 15 -12 15 -46 0 -32 4 -44
12 -42 8 3 11 20 9 46 -2 37 0 42 18 42 12 0 21 4 21 9 0 14 -11 17 -52 13z"/>
<path d="M430 1268 c0 -32 4 -58 10 -58 6 0 10 9 10 19 0 31 19 35 30 7 5 -14
17 -26 25 -26 13 0 14 4 5 21 -8 15 -8 24 0 34 22 26 3 53 -40 57 l-40 4 0
-58z m65 17 c0 -5 -10 -11 -22 -13 -16 -2 -23 2 -23 13 0 11 7 15 23 13 12 -2
22 -7 22 -13z"/>
<path d="M565 1295 c-23 -55 -29 -85 -17 -85 5 0 12 7 16 15 3 8 15 15 26 15
11 0 20 -7 20 -15 0 -8 7 -15 16 -15 11 0 14 5 9 18 -4 9 -12 31 -17 47 -6 17
-16 36 -24 44 -10 12 -15 8 -29 -24z m35 -26 c0 -5 -7 -9 -15 -9 -9 0 -12 6
-9 15 6 15 24 11 24 -6z"/>
<path d="M660 1270 c0 -66 17 -83 22 -22 l3 37 22 -37 c12 -21 27 -38 33 -38
6 0 10 26 10 61 0 44 -3 59 -12 56 -8 -2 -12 -17 -10 -35 4 -41 -1 -40 -28 3
-12 19 -26 35 -31 35 -5 0 -9 -27 -9 -60z"/>
<path d="M880 1270 c0 -61 19 -87 21 -27 l1 32 13 -35 c8 -23 15 -30 18 -20
18 53 21 56 25 23 6 -56 22 -36 22 27 0 69 -14 78 -37 23 l-15 -38 -15 38 c-8
20 -19 37 -24 37 -5 0 -9 -27 -9 -60z"/>
<path d="M1007 1323 c-4 -3 -7 -30 -7 -60 0 -40 4 -53 15 -53 12 0 15 13 15
60 0 55 -6 70 -23 53z"/>
<path d="M1072 1319 c-36 -14 -21 -59 20 -59 10 0 18 -4 18 -9 0 -17 -20 -23
-35 -11 -10 8 -15 8 -20 -1 -14 -22 36 -38 63 -20 20 12 11 55 -13 59 -34 6
-44 24 -11 20 16 -1 31 2 33 8 5 15 -28 23 -55 13z"/>
<path d="M1165 1316 c-23 -17 -15 -49 13 -56 29 -6 25 -26 -5 -22 -31 4 -29
-16 2 -24 54 -13 77 46 25 65 -36 12 -39 24 -5 19 29 -4 34 13 7 23 -12 5 -27
2 -37 -5z"/>
<path d="M1250 1270 c0 -33 4 -60 10 -60 6 0 10 27 10 60 0 33 -4 60 -10 60
-6 0 -10 -27 -10 -60z"/>
<path d="M1409 1326 c-5 -47 1 -111 11 -114 9 -3 11 6 8 32 -5 45 2 46 26 1
11 -20 24 -34 29 -32 14 4 12 110 -2 115 -7 2 -11 -11 -11 -35 l0 -38 -19 31
c-19 31 -40 51 -42 40z"/>
<path d="M1538 1322 c-39 -8 -27 -62 14 -62 12 0 18 -5 15 -12 -2 -7 -11 -11
-18 -10 -28 7 -32 7 -36 -5 -5 -14 31 -26 56 -18 40 12 32 65 -10 65 -11 0
-19 5 -19 11 0 5 10 9 22 7 11 -2 23 2 25 8 4 13 -23 22 -49 16z"/>
<path d="M777 1313 c-17 -16 -5 -42 24 -52 35 -12 30 -34 -7 -25 -14 4 -24 2
-24 -4 0 -15 36 -25 61 -17 27 9 23 58 -6 63 -34 6 -44 24 -11 20 17 -2 31 2
33 10 5 13 -58 18 -70 5z"/>
<path d="M1298 1294 c-10 -21 -9 -31 3 -52 32 -58 109 -9 81 52 -9 20 -19 26
-42 26 -23 0 -33 -6 -42 -26z m60 -26 c-2 -21 -8 -33 -18 -33 -10 0 -16 12
-18 33 -3 27 0 32 18 32 18 0 21 -5 18 -32z"/>
<path d="M1320 1082 c0 -4 10 -8 23 -9 12 -1 28 -11 36 -23 10 -15 23 -20 55
-18 39 1 39 1 7 5 -21 3 -42 14 -53 29 -18 22 -68 34 -68 16z"/>
<path d="M1665 1080 c-3 -6 5 -10 19 -10 34 0 56 -35 57 -90 0 -40 1 -42 10
-20 13 33 3 86 -22 111 -20 20 -54 25 -64 9z"/>
<path d="M1624 1039 c-42 -47 -12 -139 46 -139 31 0 45 13 55 53 20 79 -51
141 -101 86z m60 -21 c22 -31 20 -75 -3 -88 -16 -8 -23 -6 -35 12 -19 27 -20
39 -4 73 14 31 22 31 42 3z"/>
<path d="M201 1068 c-21 -50 -36 -95 -28 -88 8 8 56 130 51 130 -3 0 -13 -19
-23 -42z"/>
<path d="M277 1060 c-3 -8 -11 -34 -17 -58 -6 -24 -13 -49 -16 -55 -3 -9 9
-13 41 -13 50 0 49 -8 15 91 -11 31 -20 44 -23 35z m22 -95 c1 -17 -1 -17 -9
-5 -5 8 -9 26 -9 40 0 23 1 23 9 5 5 -11 9 -29 9 -40z"/>
<path d="M587 1006 c-9 -35 -17 -66 -17 -68 0 -3 18 -4 40 -4 22 1 40 3 40 4
0 15 -35 132 -40 132 -3 0 -14 -29 -23 -64z m42 -44 c1 -7 -3 -10 -9 -7 -5 3
-10 18 -9 33 0 24 1 25 9 7 5 -11 9 -26 9 -33z"/>
<path d="M156 955 c-9 -26 -7 -32 5 -12 6 10 9 21 6 23 -2 3 -7 -2 -11 -11z"/>
<path d="M136 905 c-9 -26 -7 -32 5 -12 6 10 9 21 6 23 -2 3 -7 -2 -11 -11z"/>
<path d="M598 883 c39 -3 56 -9 65 -24 9 -14 22 -19 52 -17 l40 1 -36 4 c-26
3 -38 10 -42 24 -4 17 -13 19 -69 17 l-63 -2 53 -3z"/>
<path d="M138 843 c12 -2 30 -2 40 0 9 3 -1 5 -23 4 -22 0 -30 -2 -17 -4z"/>
<path d="M1083 843 c9 -2 25 -2 35 0 9 3 1 5 -18 5 -19 0 -27 -2 -17 -5z"/>
<path d="M320 725 c0 -8 8 -15 18 -15 14 0 17 -7 14 -40 -3 -32 -1 -40 12 -40
12 0 16 10 16 45 0 28 4 44 11 43 6 -2 14 3 16 10 3 8 -9 12 -41 12 -34 0 -46
-4 -46 -15z"/>
<path d="M424 715 c-26 -39 -9 -79 34 -83 27 -3 34 1 42 23 23 62 -42 112 -76
60z m51 -31 c0 -19 -6 -30 -17 -32 -14 -3 -18 3 -18 26 0 16 3 32 7 36 14 13
28 -1 28 -30z"/>
<path d="M510 724 c0 -10 6 -14 15 -10 12 4 15 -4 15 -39 0 -30 4 -45 13 -45
9 0 11 12 9 39 -3 32 0 39 17 44 38 10 23 27 -24 27 -35 0 -45 -4 -45 -16z"/>
<path d="M624 723 c-4 -10 -13 -33 -20 -52 -17 -41 -17 -41 1 -41 8 0 15 5 15
10 0 6 9 10 20 10 11 0 20 -4 20 -10 0 -5 7 -10 15 -10 18 0 19 -5 -4 55 -20
53 -37 67 -47 38z m26 -38 c0 -8 -4 -15 -10 -15 -5 0 -10 7 -10 15 0 8 5 15
10 15 6 0 10 -7 10 -15z"/>
<path d="M709 736 c-2 -2 -2 -27 -1 -55 4 -51 4 -51 38 -51 19 0 34 5 34 10 0
6 -11 10 -25 10 -23 0 -25 4 -25 45 0 40 -7 54 -21 41z"/>
<path d="M847 722 c-35 -39 -11 -96 38 -90 16 1 30 9 33 17 3 10 -3 12 -26 7
-34 -8 -49 13 -32 45 8 15 15 17 29 9 23 -12 35 -2 20 17 -16 18 -43 16 -62
-5z"/>
<path d="M956 708 c-24 -57 -28 -78 -17 -78 6 0 11 5 11 10 0 14 47 13 52 -1
2 -7 9 -10 15 -8 12 5 -24 109 -39 109 -5 0 -15 -15 -22 -32z m34 -29 c0 -5
-4 -9 -10 -9 -5 0 -10 7 -10 16 0 8 5 12 10 9 6 -3 10 -10 10 -16z"/>
<path d="M1040 686 c0 -44 3 -56 16 -56 11 0 14 6 9 20 -4 14 -2 20 9 20 8 0
18 -9 21 -20 3 -11 13 -20 21 -20 11 0 13 4 6 17 -7 11 -6 23 1 35 18 28 -3
52 -47 56 l-36 3 0 -55z m68 17 c2 -8 -6 -13 -22 -13 -25 0 -33 10 -19 24 10
10 36 3 41 -11z"/>
<path d="M1194 714 c-27 -40 -9 -79 35 -79 19 0 36 6 39 13 3 9 -5 12 -24 10
-24 -2 -30 1 -32 21 -5 31 12 48 32 32 11 -9 16 -9 21 0 9 13 -12 29 -37 29
-10 0 -25 -12 -34 -26z"/>
<path d="M1306 707 c-23 -57 -28 -77 -17 -77 5 0 13 5 16 10 8 14 42 13 47 -1
2 -7 9 -10 15 -8 13 5 -23 109 -38 109 -5 0 -15 -15 -23 -33z m34 -22 c0 -8
-4 -15 -10 -15 -5 0 -10 7 -10 15 0 8 5 15 10 15 6 0 10 -7 10 -15z"/>
<path d="M1394 685 c1 -37 5 -55 14 -55 6 0 12 9 12 20 0 11 4 20 9 20 5 0 13
-9 16 -20 3 -11 13 -20 21 -20 17 0 18 12 3 27 -8 8 -8 13 0 17 17 11 13 53
-5 60 -9 3 -28 6 -43 6 -26 0 -27 -2 -27 -55z m64 18 c2 -8 -5 -13 -17 -13
-12 0 -21 6 -21 16 0 18 31 15 38 -3z"/>
<path d="M1500 685 l0 -55 40 0 c22 0 40 5 40 10 0 6 -13 10 -30 10 -21 0 -30
5 -30 16 0 10 6 14 15 11 8 -4 17 -2 21 4 3 6 -3 13 -15 16 -33 8 -25 23 9 17
23 -5 30 -3 30 10 0 12 -10 16 -40 16 l-40 0 0 -55z"/>
<path d="M100 1442 c-36 -8 -59 -17 -52 -20 13 -4 152 27 152 34 0 7 -32 2
-100 -14z"/>
<path d="M40 970 c0 -259 4 -419 9 -411 13 20 13 802 1 821 -6 10 -10 -131
-10 -410z"/>
<path d="M41 516 c7 -7 171 -47 175 -43 2 2 -31 14 -75 25 -75 21 -109 27
-100 18z"/>
<path d="M1548 483 c7 -3 16 -2 19 1 4 3 -2 6 -13 5 -11 0 -14 -3 -6 -6z"/>
</g>
</svg>
