<?xml version="1.0" standalone="no"?>
<!DOCTYPE svg PUBLIC "-//W3C//DTD SVG 20010904//EN"
 "http://www.w3.org/TR/2001/REC-SVG-20010904/DTD/svg10.dtd">
<svg version="1.0" xmlns="http://www.w3.org/2000/svg"
 width="192.000000pt" height="192.000000pt" viewBox="0 0 192.000000 192.000000"
 preserveAspectRatio="xMidYMid meet">
<metadata>
Created by potrace 1.16, written by Peter Selinger 2001-2019
</metadata>
<g transform="translate(0.000000,192.000000) scale(0.100000,-0.100000)"
fill="#000000" stroke="none">
<path d="M895 1705 c-5 -2 -41 -10 -80 -19 -67 -14 -180 -41 -310 -71 -33 -7
-94 -21 -135 -30 -41 -10 -131 -30 -200 -46 -69 -16 -135 -32 -147 -34 -13 -3
-23 -12 -23 -20 0 -11 6 -12 28 -5 24 7 159 39 392 91 47 11 103 24 125 29 22
5 81 19 130 30 50 11 118 27 153 36 134 32 133 32 417 -36 43 -10 116 -27 260
-60 50 -11 108 -24 130 -30 22 -5 83 -19 135 -31 52 -11 107 -25 123 -30 21
-6 27 -5 27 6 0 8 -12 17 -27 21 -16 3 -66 15 -113 25 -47 11 -103 24 -125 29
-22 6 -80 19 -130 30 -49 11 -108 25 -130 30 -22 5 -69 16 -105 24 -36 9 -113
27 -172 41 -94 22 -191 31 -223 20z"/>
<path d="M635 1579 c-159 -38 -357 -85 -440 -105 -82 -20 -154 -37 -160 -38
-5 0 -13 -17 -17 -36 -8 -43 -10 -781 -2 -841 l6 -44 82 -21 c44 -12 256 -68
470 -125 l388 -103 167 43 c91 24 301 78 466 121 l300 77 3 466 2 467 -22 5
c-13 3 -183 41 -378 86 -195 44 -389 89 -432 99 -42 11 -91 20 -110 19 -18 0
-163 -31 -323 -70z m751 -49 c235 -60 442 -112 461 -116 l33 -6 0 -115 c0
-104 -1 -113 -16 -99 -19 19 -35 20 -53 4 -11 -11 -12 -3 -7 42 3 30 9 71 12
90 l5 35 -433 71 -433 72 -195 -34 c-107 -19 -298 -50 -425 -70 -126 -20 -231
-38 -233 -39 -1 -1 9 -63 23 -137 l25 -135 -55 -144 -54 -144 44 -3 c25 -2 45
-6 45 -10 0 -4 -7 -45 -15 -92 -8 -47 -15 -92 -15 -100 0 -12 33 -20 152 -38
84 -13 277 -44 429 -69 l276 -46 309 51 c170 28 365 59 434 69 69 9 127 18
129 19 3 3 -21 150 -34 212 -4 17 0 25 20 32 14 5 34 24 45 42 l20 33 0 -177
c0 -160 -2 -177 -17 -182 -271 -82 -882 -256 -899 -256 -18 0 -374 99 -902
252 l-32 9 0 425 c0 331 3 426 13 429 18 6 901 233 909 234 4 1 199 -48 434
-109z m-39 -110 c488 -86 445 -77 439 -98 -2 -9 -7 -43 -11 -74 l-6 -58 -808
0 -808 0 -7 71 c-3 40 -5 74 -2 76 2 2 183 37 402 77 220 41 400 74 401 75 1
0 181 -31 400 -69z m513 -263 c0 -14 -20 -37 -32 -37 -4 0 -5 8 -2 18 5 14 4
15 -5 2 -10 -13 -12 -13 -21 0 -14 21 -12 28 7 39 20 11 53 -3 53 -22z m-1693
-9 c-3 -8 -6 -5 -6 6 -1 11 2 17 5 13 3 -3 4 -12 1 -19z m317 -55 c-14 -38
-33 -87 -42 -110 -16 -42 -32 -57 -32 -29 0 8 -16 56 -35 106 -19 50 -35 94
-35 96 0 2 38 4 85 4 l85 0 -26 -67z m262 36 c-3 -17 -6 -59 -7 -93 l0 -61
-18 55 c-10 30 -26 72 -35 93 l-16 37 41 0 c41 0 41 0 35 -31z m237 -21 c-8
-29 -16 -54 -17 -56 -2 -1 -10 23 -18 53 l-15 55 33 0 33 0 -16 -52z m246 49
c-2 -1 -14 -11 -26 -21 -23 -19 -23 -19 -23 2 0 17 6 22 27 22 14 0 24 -1 22
-3z m201 -29 c38 -21 63 -50 74 -85 7 -22 5 -23 -45 -23 -42 0 -56 5 -75 25
-46 50 -108 16 -108 -60 0 -76 73 -116 110 -60 14 22 24 25 70 25 30 0 54 -3
54 -6 0 -11 -23 -50 -44 -72 -71 -79 -214 -70 -273 18 -13 18 -23 40 -23 49 0
9 11 -3 25 -26 32 -53 96 -86 157 -80 l43 4 -45 1 c-55 3 -118 37 -141 77 -9
17 -19 59 -21 94 -4 61 -3 65 28 96 56 56 140 65 214 23z m118 0 c-30 -30 -34
-32 -46 -16 -7 10 -23 24 -35 33 -20 14 -17 15 47 15 l68 0 -34 -32z m239 -4
c87 -50 107 -165 41 -240 -42 -47 -80 -65 -139 -66 -120 0 -203 104 -169 215
9 31 14 37 22 26 7 -10 8 -8 3 8 -4 16 2 27 27 46 67 51 139 55 215 11z
m-1433 -92 c22 -59 46 -123 55 -142 8 -19 14 -38 13 -42 -1 -5 19 -7 46 -6 44
1 45 2 9 5 -25 3 -37 9 -34 16 40 95 96 244 94 249 -1 4 -24 -49 -52 -118 -27
-70 -51 -122 -52 -117 -2 5 18 66 45 134 l48 124 61 3 c42 2 62 -1 66 -10 64
-165 112 -275 121 -280 6 -4 29 -7 51 -6 37 1 37 2 8 5 l-33 4 0 135 c0 74 -3
134 -7 134 -5 0 -7 -52 -5 -115 2 -66 -1 -122 -7 -132 -8 -13 -10 22 -11 125
l0 142 69 0 69 0 20 -62 c11 -35 23 -76 27 -93 7 -27 10 -21 36 63 l30 92 68
0 68 0 0 -160 0 -160 -53 0 -54 0 0 48 c0 26 4 52 9 58 11 12 23 104 13 104
-4 0 -21 -46 -38 -103 l-30 -102 -38 0 c-38 0 -39 1 -57 55 -21 66 -24 93 -8
70 9 -13 10 -13 6 2 -3 9 -9 33 -13 52 -3 20 -11 39 -16 42 -6 4 -7 -37 -4
-110 l6 -116 -114 0 c-113 0 -114 0 -120 25 -6 22 -12 25 -52 25 -28 0 -43 4
-39 10 3 6 2 10 -4 10 -6 0 -14 -15 -19 -32 l-8 -33 -102 -3 c-101 -3 -102 -2
-112 23 -8 22 -15 25 -55 25 -28 0 -44 4 -40 10 3 6 2 10 -3 10 -12 0 -22 -24
-22 -51 0 -17 -8 -19 -60 -19 -33 0 -60 2 -60 4 0 2 6 19 14 37 7 19 35 89 60
157 l48 122 61 0 62 0 39 -108z m1526 66 c-1 -26 -3 -30 -10 -16 -6 9 -7 23
-4 32 9 25 14 19 14 -16z m-520 -78 c9 -16 21 -20 65 -20 37 0 55 -4 55 -12 0
-9 -14 -12 -48 -10 -44 3 -49 1 -60 -23 -15 -33 -41 -30 -61 7 -12 21 -13 31
-3 52 14 31 37 34 52 6z m220 -205 c25 -15 37 -24 27 -21 -10 3 -58 6 -105 6
l-87 0 34 17 c18 9 38 27 44 40 11 24 11 24 26 4 9 -11 36 -32 61 -46z m-1299
8 c8 -22 6 -23 -35 -23 -41 0 -43 1 -38 26 4 21 9 25 35 22 20 -2 32 -10 38
-25z m337 0 c3 -21 -1 -23 -36 -23 -37 0 -39 2 -34 26 4 21 9 25 36 22 23 -2
32 -8 34 -25z m606 -4 c20 -12 36 -22 36 -23 0 -1 -18 0 -40 2 -31 3 -40 8
-40 23 0 24 1 24 44 -2z m546 -19 c0 -5 -2 -10 -4 -10 -3 0 -8 5 -11 10 -3 6
-1 10 4 10 6 0 11 -4 11 -10z m12 -102 c4 -39 7 -73 5 -74 -1 -1 -186 -37
-411 -79 -297 -56 -421 -75 -450 -71 -47 8 -740 134 -774 141 -17 4 -21 11
-18 28 3 12 8 47 11 77 l6 55 812 -2 812 -3 7 -72z m83 -168 c-3 -5 -14 -10
-23 -9 -14 0 -13 2 3 9 27 11 27 11 20 0z"/>
<path d="M1252 1505 c0 -16 2 -22 5 -12 2 9 2 23 0 30 -3 6 -5 -1 -5 -18z"/>
<path d="M1253 435 c0 -22 2 -30 4 -17 2 12 2 30 0 40 -3 9 -5 -1 -4 -23z"/>
<path d="M300 1330 c0 -5 8 -10 18 -10 15 0 18 -8 18 -42 -1 -60 18 -64 22 -5
2 38 6 47 18 43 8 -3 14 1 14 9 0 11 -12 15 -45 15 -25 0 -45 -4 -45 -10z"/>
<path d="M412 1285 c3 -54 20 -76 26 -35 5 28 21 25 32 -5 13 -34 34 -33 26 1
-4 14 -2 32 4 39 22 26 -6 55 -51 55 l-40 0 3 -55z m68 20 c0 -8 -9 -15 -20
-15 -11 0 -20 7 -20 15 0 8 9 15 20 15 11 0 20 -7 20 -15z"/>
<path d="M546 1288 c-21 -60 -21 -61 -7 -66 6 -2 11 3 11 12 0 22 39 21 56 -1
23 -32 26 -5 6 49 -26 70 -42 72 -66 6z m44 -4 c0 -8 -4 -14 -10 -14 -5 0 -10
9 -10 21 0 11 5 17 10 14 6 -3 10 -13 10 -21z"/>
<path d="M652 1285 c2 -31 7 -54 13 -53 6 2 9 19 7 38 -2 31 -1 33 10 16 7
-10 23 -31 34 -45 l22 -26 3 63 c3 45 1 62 -8 62 -8 0 -13 -14 -13 -37 l0 -38
-22 38 c-33 55 -50 49 -46 -18z"/>
<path d="M777 1334 c-4 -4 -7 -17 -7 -30 0 -17 7 -24 30 -29 38 -8 40 -27 3
-23 -16 2 -29 -1 -30 -7 -2 -5 14 -10 35 -10 31 0 38 4 40 23 3 18 -3 26 -27
35 -36 13 -41 29 -8 25 12 -2 24 2 27 7 6 11 -52 20 -63 9z"/>
<path d="M876 1283 c1 -62 23 -90 25 -31 l1 33 11 -27 c14 -37 23 -35 33 5 l8
32 3 -37 c6 -60 23 -44 23 22 0 45 -4 60 -14 60 -8 0 -17 -13 -21 -30 -4 -16
-10 -30 -15 -30 -4 0 -13 14 -19 30 -17 51 -36 37 -35 -27z"/>
<path d="M1010 1280 c0 -33 4 -60 10 -60 6 0 10 27 10 60 0 33 -4 60 -10 60
-6 0 -10 -27 -10 -60z"/>
<path d="M1067 1334 c-4 -4 -7 -17 -7 -30 0 -17 7 -24 30 -29 38 -8 40 -27 3
-23 -16 2 -29 -1 -30 -7 -2 -5 14 -10 35 -10 31 0 38 4 40 23 3 18 -3 26 -27
35 -36 13 -41 29 -8 25 12 -2 24 2 27 7 6 11 -52 20 -63 9z"/>
<path d="M1167 1334 c-4 -4 -7 -17 -7 -30 0 -17 7 -24 30 -29 38 -8 40 -27 3
-23 -16 2 -29 -1 -30 -7 -2 -5 14 -10 35 -10 31 0 38 4 40 23 3 18 -3 26 -27
35 -36 13 -41 29 -8 25 12 -2 24 2 27 7 6 11 -52 20 -63 9z"/>
<path d="M1260 1279 c0 -42 4 -59 12 -57 16 6 17 118 1 118 -9 0 -13 -19 -13
-61z"/>
<path d="M1321 1326 c-7 -8 -11 -32 -9 -53 3 -33 6 -38 31 -41 16 -2 35 2 43
9 17 14 19 70 2 87 -16 16 -53 15 -67 -2z m54 -41 c0 -23 -4 -30 -20 -30 -21
0 -31 25 -21 51 11 28 41 12 41 -21z"/>
<path d="M1420 1279 c0 -44 3 -60 13 -56 7 2 11 19 9 43 -2 34 -1 37 10 20 7
-10 23 -31 35 -45 l22 -26 1 63 c0 35 -4 62 -10 62 -5 0 -10 -17 -10 -37 l0
-38 -22 38 c-33 56 -48 48 -48 -24z"/>
<path d="M1537 1326 c-10 -24 2 -44 29 -50 30 -8 32 -28 2 -24 -13 1 -25 -2
-28 -7 -8 -16 62 -18 71 -3 16 24 9 39 -21 49 -35 13 -40 31 -7 27 12 -2 24 2
27 7 3 6 -11 11 -31 13 -26 2 -38 -2 -42 -12z"/>
<path d="M1335 1090 c-3 -6 4 -10 18 -10 13 0 32 -9 41 -19 17 -19 86 -34 86
-19 0 4 -16 8 -35 8 -24 0 -35 5 -35 15 0 26 -61 47 -75 25z"/>
<path d="M1690 1090 c0 -5 8 -10 18 -10 28 0 55 -36 63 -83 l6 -42 2 48 c1 39
-4 53 -24 72 -24 25 -65 34 -65 15z"/>
<path d="M1643 1044 c-36 -55 -8 -144 46 -144 38 0 63 31 65 78 2 82 -71 126
-111 66z m75 -37 c19 -39 8 -79 -21 -75 -32 5 -52 46 -38 81 14 36 41 33 59
-6z"/>
<path d="M1531 988 c-1 -53 2 -61 35 -98 40 -44 90 -64 144 -57 33 4 33 4 -8
5 -53 2 -116 33 -139 69 -10 15 -21 52 -24 83 l-6 55 -2 -57z"/>
<path d="M191 1113 c-1 -6 -4 -20 -7 -30 -5 -17 -5 -17 6 0 6 10 9 23 6 30 -3
9 -5 9 -5 0z"/>
<path d="M257 1070 c-3 -8 -11 -34 -17 -58 -6 -24 -14 -50 -17 -58 -4 -11 5
-14 42 -14 52 0 51 -8 15 95 -11 31 -20 44 -23 35z m27 -95 c5 -21 4 -27 -3
-20 -6 6 -13 26 -16 45 -7 42 8 21 19 -25z"/>
<path d="M580 1023 c-7 -32 -15 -64 -17 -70 -4 -9 8 -13 40 -13 l45 0 -22 70
c-11 38 -24 70 -27 70 -3 0 -12 -26 -19 -57z m40 -53 c0 -20 -2 -22 -10 -10
-5 8 -10 26 -10 40 0 20 2 22 10 10 5 -8 10 -26 10 -40z"/>
<path d="M161 1029 c-6 -18 -9 -34 -7 -36 2 -2 9 10 15 28 6 18 9 34 7 36 -2
2 -9 -10 -15 -28z"/>
<path d="M136 965 c-9 -26 -7 -32 5 -12 6 10 9 21 6 23 -2 3 -7 -2 -11 -11z"/>
<path d="M298 880 c12 -5 25 -16 28 -25 4 -10 19 -14 48 -13 l41 1 -39 4 c-27
3 -40 10 -43 24 -4 13 -14 19 -32 18 -26 0 -26 0 -3 -9z"/>
<path d="M636 880 c12 -4 24 -15 27 -24 5 -12 18 -16 49 -14 l43 1 -39 4 c-27
3 -40 10 -43 24 -4 13 -14 19 -32 18 -24 0 -25 -1 -5 -9z"/>
<path d="M118 843 c12 -2 30 -2 40 0 9 3 -1 5 -23 4 -22 0 -30 -2 -17 -4z"/>
<path d="M953 843 c9 -2 23 -2 30 0 6 3 -1 5 -18 5 -16 0 -22 -2 -12 -5z"/>
<path d="M1088 843 c12 -2 30 -2 40 0 9 3 -1 5 -23 4 -22 0 -30 -2 -17 -4z"/>
<path d="M700 680 l0 -60 40 0 c29 0 40 4 40 15 0 11 -8 13 -30 9 l-30 -6 0
51 c0 28 -4 51 -10 51 -6 0 -10 -27 -10 -60z"/>
<path d="M300 720 c0 -5 9 -10 20 -10 17 0 20 -7 20 -45 0 -25 5 -45 10 -45 6
0 10 20 10 45 0 33 4 45 15 45 8 0 15 5 15 10 0 6 -20 10 -45 10 -25 0 -45 -4
-45 -10z"/>
<path d="M412 718 c-7 -7 -12 -26 -12 -43 0 -36 15 -55 45 -55 12 0 26 5 33
12 13 13 16 56 6 82 -7 19 -55 21 -72 4z m53 -43 c0 -23 -4 -30 -20 -30 -21 0
-31 25 -21 51 11 28 41 12 41 -21z"/>
<path d="M500 720 c0 -5 7 -10 15 -10 11 0 15 -12 15 -45 0 -29 4 -45 13 -45
8 0 11 14 9 45 -4 40 -2 45 17 45 12 0 21 5 21 10 0 6 -20 10 -45 10 -25 0
-45 -4 -45 -10z"/>
<path d="M606 697 c-27 -65 -28 -77 -12 -77 9 0 16 7 16 15 0 21 30 19 46 -2
22 -31 26 -7 7 46 -21 59 -37 64 -57 18z m30 -24 c-10 -10 -19 5 -10 18 6 11
8 11 12 0 2 -7 1 -15 -2 -18z"/>
<path d="M842 718 c-15 -15 -16 -52 -2 -79 12 -22 52 -25 69 -6 14 18 2 30
-16 15 -20 -17 -47 13 -38 41 6 19 12 21 37 16 23 -6 29 -4 26 6 -6 18 -60 23
-76 7z"/>
<path d="M947 679 c-19 -53 -15 -77 7 -46 16 21 46 23 46 2 0 -8 7 -15 16 -15
16 0 14 14 -12 78 -19 46 -37 40 -57 -19z m43 0 c0 -5 -4 -9 -10 -9 -5 0 -10
7 -10 16 0 8 5 12 10 9 6 -3 10 -10 10 -16z"/>
<path d="M1050 675 c0 -30 5 -55 10 -55 6 0 10 9 10 20 0 11 6 20 14 20 7 0
16 -9 19 -20 3 -11 12 -20 21 -20 14 0 15 4 6 20 -7 14 -7 25 1 38 20 32 4 52
-41 52 l-40 0 0 -55z m65 20 c0 -5 -10 -11 -22 -13 -16 -2 -23 2 -23 13 0 11
7 15 23 13 12 -2 22 -7 22 -13z"/>
<path d="M1201 711 c-15 -28 -14 -57 5 -75 28 -28 87 -15 69 14 -5 8 -11 7
-20 0 -20 -17 -35 -3 -35 32 0 29 2 30 31 24 22 -4 29 -2 27 7 -3 6 -19 13
-36 15 -22 2 -34 -2 -41 -17z"/>
<path d="M1323 713 c-3 -10 -12 -33 -19 -52 -17 -41 -17 -41 1 -41 8 0 15 7
15 15 0 21 30 19 46 -2 22 -31 26 -7 7 46 -18 52 -39 65 -50 34z m23 -40 c-10
-10 -19 5 -10 18 6 11 8 11 12 0 2 -7 1 -15 -2 -18z"/>
<path d="M1410 675 c0 -30 5 -55 10 -55 6 0 10 9 10 20 0 11 6 20 14 20 8 0
18 -9 21 -20 3 -11 13 -20 21 -20 17 0 18 12 3 27 -8 8 -7 16 2 30 20 33 5 53
-41 53 l-40 0 0 -55z m68 23 c-7 -20 -48 -23 -48 -4 0 11 9 16 26 16 16 0 24
-5 22 -12z"/>
<path d="M1520 675 l0 -55 40 0 c29 0 40 4 40 15 0 11 -8 13 -30 9 -23 -5 -30
-3 -30 10 0 9 8 16 20 16 11 0 20 5 20 10 0 6 -9 10 -20 10 -11 0 -20 5 -20
10 0 6 14 10 30 10 17 0 30 5 30 10 0 6 -18 10 -40 10 l-40 0 0 -55z"/>
<path d="M2 459 c2 -7 127 -42 278 -80 151 -38 291 -73 310 -79 144 -41 330
-80 378 -80 32 0 103 12 157 26 55 15 125 32 155 40 30 7 163 40 295 74 132
34 264 67 293 73 32 6 52 16 52 24 0 9 -8 12 -22 8 -81 -18 -128 -30 -343 -85
-132 -34 -265 -67 -295 -74 -30 -8 -100 -25 -155 -40 -54 -14 -116 -26 -137
-26 -31 0 -237 46 -358 80 -63 18 -594 150 -603 150 -5 0 -7 -5 -5 -11z"/>
</g>
</svg>
