<?xml version="1.0" standalone="no"?>
<!DOCTYPE svg PUBLIC "-//W3C//DTD SVG 20010904//EN"
 "http://www.w3.org/TR/2001/REC-SVG-20010904/DTD/svg10.dtd">
<svg version="1.0" xmlns="http://www.w3.org/2000/svg"
 width="100.000000pt" height="100.000000pt" viewBox="0 0 100.000000 100.000000"
 preserveAspectRatio="xMidYMid meet">
<metadata>
Created by potrace 1.16, written by Peter Selinger 2001-2019
</metadata>
<g transform="translate(0.000000,100.000000) scale(0.100000,-0.100000)"
fill="#000000" stroke="none">
<path d="M440 990 c0 -5 -8 -10 -18 -10 -10 0 -24 -9 -32 -20 -8 -11 -19 -20
-25 -20 -6 0 -17 -9 -25 -20 -8 -11 -22 -20 -32 -20 -10 0 -18 -5 -18 -10 0
-15 -46 -60 -61 -60 -6 0 -24 -13 -39 -30 -15 -16 -35 -30 -44 -30 -9 0 -16
-4 -16 -10 0 -5 -5 -10 -11 -10 -16 0 -39 -26 -39 -44 0 -10 -9 -16 -26 -16
-29 0 -54 -21 -54 -44 0 -22 13 -20 30 4 8 12 26 20 42 20 19 0 28 5 28 16 0
18 23 44 39 44 6 0 11 5 11 10 0 14 38 12 43 -2 2 -7 8 -9 13 -5 5 4 2 12 -5
17 -11 6 -8 13 12 34 14 14 31 26 37 26 14 0 60 46 60 60 0 5 8 10 18 10 10 0
24 9 32 20 8 11 19 20 25 20 6 0 17 9 25 20 8 11 20 20 28 20 13 0 42 23 42
34 0 3 -9 6 -20 6 -11 0 -20 -4 -20 -10z"/>
<path d="M750 992 c0 -4 9 -14 20 -22 11 -8 20 -21 20 -28 0 -8 14 -27 30 -42
17 -15 30 -37 30 -49 0 -12 5 -21 10 -21 14 0 80 -66 80 -80 0 -11 45 -60 55
-60 14 0 3 37 -15 50 -11 8 -20 20 -20 28 0 15 -65 82 -80 82 -5 0 -10 9 -10
21 0 12 -13 34 -30 49 -16 15 -30 33 -30 40 0 6 -6 18 -14 26 -15 15 -46 19
-46 6z"/>
<path d="M440 890 c0 -5 5 -10 10 -10 6 0 10 5 10 10 0 6 -4 10 -10 10 -5 0
-10 -4 -10 -10z"/>
<path d="M0 339 c0 -33 6 -47 30 -69 16 -15 30 -33 30 -39 0 -12 44 -61 55
-61 13 0 35 -29 35 -45 0 -9 13 -30 30 -45 16 -15 30 -33 30 -40 0 -16 26 -40
44 -40 22 0 20 13 -4 30 -11 8 -20 21 -20 28 0 8 -14 27 -30 42 -17 15 -30 36
-30 45 0 16 -22 45 -35 45 -11 0 -55 49 -55 61 0 6 -14 24 -30 39 -21 19 -30
37 -30 59 0 17 -4 31 -10 31 -5 0 -10 -18 -10 -41z"/>
<path d="M930 310 c-19 -21 -43 -39 -53 -40 -11 0 -32 -13 -47 -30 -17 -18
-38 -30 -54 -30 -18 0 -26 -5 -26 -18 0 -10 -9 -24 -20 -32 -11 -8 -20 -20
-20 -27 0 -7 -8 -13 -18 -13 -10 0 -24 -9 -32 -20 -8 -11 -20 -20 -27 -20 -7
0 -13 -4 -13 -10 0 -5 -7 -10 -15 -10 -15 0 -65 -42 -65 -55 0 -14 37 -3 50
15 8 11 22 20 32 20 10 0 18 5 18 10 0 6 6 10 13 10 7 0 19 9 27 20 8 11 22
20 32 20 10 0 18 6 18 13 0 7 9 19 20 27 11 8 20 22 20 32 0 13 8 18 26 18 16
0 37 12 54 30 15 17 35 30 44 30 15 0 106 82 106 95 0 18 -40 -2 -70 -35z"/>
<path d="M295 10 c3 -5 8 -10 11 -10 2 0 4 5 4 10 0 6 -5 10 -11 10 -5 0 -7
-4 -4 -10z"/>
</g>
</svg>
