<?xml version="1.0" standalone="no"?>
<!DOCTYPE svg PUBLIC "-//W3C//DTD SVG 20010904//EN"
 "http://www.w3.org/TR/2001/REC-SVG-20010904/DTD/svg10.dtd">
<svg version="1.0" xmlns="http://www.w3.org/2000/svg"
 width="192.000000pt" height="192.000000pt" viewBox="0 0 192.000000 192.000000"
 preserveAspectRatio="xMidYMid meet">
<metadata>
Created by potrace 1.16, written by Peter Selinger 2001-2019
</metadata>
<g transform="translate(0.000000,192.000000) scale(0.100000,-0.100000)"
fill="#000000" stroke="none">
<path d="M833 1593 c9 -2 23 -2 30 0 6 3 -1 5 -18 5 -16 0 -22 -2 -12 -5z"/>
<path d="M388 1583 c7 -3 16 -2 19 1 4 3 -2 6 -13 5 -11 0 -14 -3 -6 -6z"/>
<path d="M528 1583 c23 -2 59 -2 80 0 20 2 1 4 -43 4 -44 0 -61 -2 -37 -4z"/>
<path d="M360 1540 c0 -24 6 -25 28 -4 14 15 17 15 29 -1 10 -15 15 -16 28 -5
14 12 18 11 26 -1 6 -9 9 -10 9 -2 0 10 78 12 350 11 193 -1 350 -5 350 -10 0
-4 5 -8 10 -8 6 0 10 9 10 20 0 20 -7 20 -420 20 -413 0 -420 0 -420 -20z"/>
<path d="M244 1489 c-3 -6 -1 -16 5 -22 8 -8 11 -5 11 11 0 24 -5 28 -16 11z"/>
<path d="M300 1470 c0 -27 -3 -30 -30 -30 l-30 0 0 -270 0 -270 64 0 c61 0 63
-1 59 -24 -4 -17 -10 -22 -24 -19 -10 3 -19 12 -19 19 0 8 -4 14 -10 14 -5 0
-10 -11 -10 -25 l0 -25 129 0 c75 0 132 4 136 10 3 5 0 7 -8 4 -10 -3 -17 4
-21 20 -4 16 -13 26 -24 26 -16 -1 -16 -2 1 -14 13 -10 15 -15 5 -18 -30 -11
-43 3 -40 40 l4 37 103 -1 c56 -1 108 -4 114 -8 6 -4 8 -18 5 -31 -3 -13 -1
-32 5 -42 8 -14 10 -7 11 35 0 45 3 53 18 50 21 -4 29 -53 11 -74 -9 -11 -8
-14 5 -14 10 0 14 5 11 10 -3 6 -2 10 4 10 5 0 11 15 13 33 5 49 33 43 33 -7
0 -24 5 -41 14 -44 11 -4 12 3 8 29 -10 50 0 57 66 49 31 -3 57 -4 57 -1 0 4
56 5 125 4 71 -1 125 3 125 8 0 5 -165 9 -406 9 -267 0 -403 -3 -399 -10 3 -5
17 -10 31 -10 13 0 24 -6 25 -12 0 -7 2 -20 4 -29 1 -9 -1 -23 -6 -30 -8 -12
-11 -12 -19 1 -5 8 -10 10 -10 4 0 -6 -11 -11 -25 -11 -20 0 -25 5 -25 23 0
13 5 24 10 24 6 0 10 4 10 9 0 5 -17 8 -37 6 -21 -1 -30 -1 -20 2 9 2 17 12
16 21 0 11 -3 12 -6 5 -2 -7 -12 -13 -20 -13 -13 0 -13 2 -2 17 12 15 12 16
-3 10 -10 -3 -18 -2 -18 3 0 6 -11 10 -25 10 -22 0 -25 4 -25 34 0 28 4 35 25
40 29 7 24 26 -6 26 -10 0 -19 7 -19 15 0 8 9 15 20 15 24 0 17 26 -10 33 -13
3 -17 11 -13 25 3 12 11 18 18 16 7 -3 16 -1 20 5 3 7 -2 11 -14 11 -18 0 -21
6 -21 40 0 22 5 40 10 40 6 0 9 15 9 33 l-1 32 -8 -30 c-8 -30 -8 -30 -9 8 0
20 2 36 7 36 28 -5 41 4 47 31 4 17 11 30 17 30 6 0 8 -12 5 -30 -5 -22 -3
-30 8 -30 10 0 15 11 15 35 0 23 6 38 15 41 9 4 14 13 13 22 -2 12 8 17 42 19
40 3 43 2 28 -10 -10 -8 -18 -17 -18 -21 0 -12 29 -6 37 9 7 12 57 16 304 21
319 7 412 2 402 -22 -3 -8 0 -14 6 -14 6 0 11 9 11 20 0 14 7 20 21 20 14 0
19 -5 16 -14 -3 -8 -1 -17 6 -20 7 -2 0 -5 -15 -5 -26 -1 -28 -4 -27 -43 0
-32 2 -38 8 -23 5 11 6 26 4 33 -3 6 2 12 11 12 8 0 13 -6 11 -12 -7 -19 22
-51 39 -45 16 6 31 -19 16 -28 -4 -3 -10 0 -12 7 -2 6 -10 8 -16 4 -17 -10 -5
-26 19 -26 29 0 23 -16 -11 -30 -33 -14 -32 -22 3 -25 24 -2 35 -31 18 -48 -8
-8 -11 -6 -11 7 0 10 -6 16 -12 14 -26 -9 -13 -33 17 -33 l30 0 3 118 3 117
-31 0 c-27 0 -30 3 -30 30 l0 30 -480 0 -480 0 0 -30z m60 -10 c0 -15 -7 -20
-25 -20 -28 0 -30 5 -12 25 18 21 37 18 37 -5z m-60 -55 c0 -20 -5 -25 -26
-25 l-26 0 23 25 c30 30 29 30 29 0z m997 -2 c0 -20 -16 -35 -29 -27 -16 10
-8 44 10 44 11 0 19 -7 19 -17z m10 -119 c-3 -3 -12 -4 -19 -1 -8 3 -5 6 6 6
11 1 17 -2 13 -5z m-1007 -349 c0 -14 -4 -25 -10 -25 -5 0 -10 7 -10 16 0 8
-4 13 -9 10 -5 -3 -11 1 -15 9 -4 11 2 15 19 15 20 0 25 -5 25 -25z"/>
<path d="M1286 1473 c-3 -7 -2 -13 3 -13 5 0 14 6 20 13 8 10 7 14 -4 14 -8 0
-16 -6 -19 -14z"/>
<path d="M400 1450 c0 -5 5 -10 11 -10 5 0 7 5 4 10 -3 6 -8 10 -11 10 -2 0
-4 -4 -4 -10z"/>
<path d="M501 1456 c8 -8 219 -12 219 -4 0 5 -50 8 -112 8 -61 0 -109 -2 -107
-4z"/>
<path d="M1125 1449 c-16 -6 -14 -8 13 -8 33 -1 41 4 20 12 -7 2 -22 1 -33 -4z"/>
<path d="M200 1430 c0 -5 5 -10 10 -10 6 0 10 5 10 10 0 6 -4 10 -10 10 -5 0
-10 -4 -10 -10z"/>
<path d="M973 1433 c9 -2 25 -2 35 0 9 3 1 5 -18 5 -19 0 -27 -2 -17 -5z"/>
<path d="M1360 1430 c0 -5 4 -10 9 -10 6 0 13 5 16 10 3 6 -1 10 -9 10 -9 0
-16 -4 -16 -10z"/>
<path d="M960 1390 c0 -6 33 -10 80 -10 47 0 80 4 80 10 0 6 -33 10 -80 10
-47 0 -80 -4 -80 -10z"/>
<path d="M178 1170 c3 -201 4 -210 22 -210 11 0 20 7 20 15 0 8 -7 15 -15 15
-8 0 -15 7 -15 15 0 8 7 15 15 15 8 0 15 5 15 10 0 6 -4 10 -10 10 -5 0 -10 9
-10 20 0 11 7 20 15 20 8 0 15 5 15 10 0 6 -8 10 -17 10 -13 0 -14 3 -5 12 14
14 16 98 2 98 -5 0 -10 5 -10 11 0 5 5 7 10 4 6 -3 10 3 10 15 0 12 -4 18 -10
15 -6 -4 -10 5 -10 20 0 14 4 24 9 21 5 -3 11 1 15 9 4 10 -1 15 -15 15 -20 0
-21 1 -5 25 21 32 20 35 -6 35 l-23 0 3 -210z m29 -32 c-2 -13 -4 -3 -4 22 0
25 2 35 4 23 2 -13 2 -33 0 -45z"/>
<path d="M1350 1354 c9 -21 7 -29 -7 -40 -17 -13 -17 -13 0 -14 19 0 22 -22 7
-50 -8 -15 -6 -21 10 -30 19 -10 20 -8 20 75 0 78 -2 85 -20 85 -17 0 -18 -3
-10 -26z"/>
<path d="M744 1344 c3 -9 6 -19 6 -22 0 -9 20 21 20 31 0 4 -7 7 -16 7 -11 0
-14 -5 -10 -16z"/>
<path d="M880 1340 c0 -19 4 -21 26 -16 15 4 32 2 40 -5 8 -6 14 -7 14 -2 0 6
53 9 130 9 82 -1 130 2 130 9 0 6 -56 10 -157 9 -94 -1 -163 2 -170 8 -10 8
-13 5 -13 -12z"/>
<path d="M800 1336 c0 -18 27 -21 50 -6 13 8 13 10 -2 10 -9 0 -23 3 -32 6
-11 4 -16 1 -16 -10z"/>
<path d="M1420 1329 c0 -5 5 -7 10 -4 6 3 10 8 10 11 0 2 -4 4 -10 4 -5 0 -10
-5 -10 -11z"/>
<path d="M705 1290 c-3 -5 -1 -10 4 -10 6 0 11 5 11 10 0 6 -2 10 -4 10 -3 0
-8 -4 -11 -10z"/>
<path d="M752 1288 c-16 -16 -15 -28 3 -28 8 0 15 9 15 20 0 23 -2 24 -18 8z"/>
<path d="M941 1286 c-7 -9 -10 -16 -5 -16 100 -3 286 -2 289 2 3 3 -1 11 -10
18 -10 8 -15 9 -15 1 0 -15 -237 -15 -242 0 -2 7 -9 5 -17 -5z"/>
<path d="M1415 1290 c-3 -5 -1 -10 4 -10 6 0 11 5 11 10 0 6 -2 10 -4 10 -3 0
-8 -4 -11 -10z"/>
<path d="M800 1280 c0 -6 18 -11 40 -11 22 -1 45 -2 50 -3 6 -1 9 3 8 9 -4 12
-98 17 -98 5z"/>
<path d="M272 1245 c0 -16 2 -22 5 -12 2 9 2 23 0 30 -3 6 -5 -1 -5 -18z"/>
<path d="M707 1243 c-5 -17 -16 -34 -25 -36 -14 -4 -13 -5 3 -6 19 -1 20 -7
17 -118 -2 -85 0 -115 8 -107 7 7 10 61 8 155 -2 98 -6 134 -11 112z"/>
<path d="M877 1220 c-4 -16 0 -20 20 -20 25 0 26 0 8 20 -10 11 -19 20 -20 20
-2 0 -5 -9 -8 -20z"/>
<path d="M942 1228 c-16 -16 -15 -28 3 -28 8 0 15 9 15 20 0 23 -2 24 -18 8z"/>
<path d="M1200 1221 c0 -12 5 -21 10 -21 6 0 10 6 10 14 0 8 -4 18 -10 21 -5
3 -10 -3 -10 -14z"/>
<path d="M800 1215 c0 -9 9 -15 24 -15 30 0 42 15 20 24 -27 10 -44 7 -44 -9z"/>
<path d="M1009 1220 c-7 -5 -10 -12 -6 -17 5 -4 12 -1 17 7 7 10 10 11 10 3 0
-7 12 -13 26 -13 15 0 24 5 22 11 -5 15 -50 20 -69 9z"/>
<path d="M1090 1216 c0 -9 5 -16 10 -16 6 0 10 4 10 9 0 6 -4 13 -10 16 -5 3
-10 -1 -10 -9z"/>
<path d="M1120 1214 c0 -10 8 -14 25 -11 35 4 36 19 3 23 -19 2 -28 -2 -28
-12z"/>
<path d="M740 1210 c0 -5 12 -10 26 -10 14 0 23 4 19 10 -3 6 -15 10 -26 10
-10 0 -19 -4 -19 -10z"/>
<path d="M1320 1020 l0 -180 -364 0 c-359 0 -364 0 -359 -20 3 -11 10 -20 15
-20 5 0 6 5 3 10 -3 6 1 10 10 10 9 0 13 -5 9 -11 -3 -6 8 -4 24 5 29 15 32
15 42 -2 8 -12 13 -13 16 -4 7 16 104 17 104 0 0 -9 3 -9 12 0 16 16 45 15 51
0 4 -10 6 -10 6 0 1 7 14 12 32 12 17 0 28 -4 24 -10 -3 -5 -1 -10 4 -10 6 0
11 5 11 10 0 15 177 13 183 -2 4 -10 7 -10 18 0 18 16 39 15 39 -3 0 -9 6 -12
15 -9 8 4 12 10 9 15 -3 5 13 9 36 9 27 0 39 -4 34 -11 -3 -6 -15 -8 -27 -5
-13 3 -17 2 -10 -5 11 -11 66 -1 59 10 -11 17 14 32 55 35 61 5 61 5 55 15 -3
5 -25 7 -48 5 -24 -2 -37 -1 -30 2 19 9 14 24 -5 17 -14 -4 -15 -3 -7 6 7 8
53 12 137 12 93 0 127 3 127 12 0 8 -19 12 -62 10 -35 -1 -79 2 -100 7 -27 5
-40 4 -51 -8 -16 -16 -47 -10 -47 8 0 6 4 9 9 6 5 -4 11 0 13 6 4 10 47 14
161 16 l157 4 0 -151 c0 -144 1 -151 20 -151 11 0 20 -4 20 -10 0 -5 -6 -10
-12 -10 -9 0 -8 -4 2 -10 12 -8 11 -10 -7 -10 -13 0 -23 6 -23 14 0 8 -6 16
-14 19 -10 4 -13 -5 -11 -39 1 -25 -1 -47 -5 -49 -9 -5 -19 202 -12 223 4 11
6 11 13 0 7 -10 9 -9 9 5 0 10 -8 17 -20 17 -19 0 -20 -7 -20 -129 0 -72 -4
-132 -8 -135 -5 -3 -156 -6 -335 -7 -314 -1 -327 -2 -327 -20 0 -17 -8 -19
-75 -19 -59 0 -75 3 -76 15 -3 35 -6 40 -18 37 -18 -4 -41 17 -41 38 0 10 -7
21 -16 24 -8 3 -12 10 -9 16 8 13 62 13 70 0 4 -7 13 -6 27 1 11 6 36 9 54 6
36 -6 40 -2 24 23 -7 12 -10 12 -10 1 0 -9 -11 -12 -40 -9 -22 2 -41 -1 -43
-7 -3 -7 -8 -6 -18 1 -17 13 -89 16 -89 3 0 -4 8 -5 17 -2 15 6 16 5 3 -9 -19
-20 -30 -14 -30 18 0 13 -4 24 -10 24 -6 0 -10 -30 -10 -70 l0 -70 30 0 c27 0
30 -3 30 -30 l0 -30 480 0 480 0 0 60 c0 57 1 60 25 60 28 0 35 -20 8 -21 -12
0 -13 -2 -5 -6 10 -4 9 -8 -5 -19 -17 -12 -16 -13 10 -14 l27 0 0 270 c0 263
0 270 -20 270 -11 0 -20 -4 -20 -10 0 -5 5 -10 11 -10 5 0 7 -4 4 -10 -3 -5
-1 -10 4 -10 6 0 11 -4 11 -10 0 -5 -11 -10 -25 -10 -21 0 -25 5 -25 30 0 27
-3 30 -30 30 -26 0 -30 4 -30 26 0 20 4 25 16 20 9 -3 18 -6 20 -6 3 0 3 -4 0
-9 -3 -5 1 -11 9 -15 11 -4 15 2 15 19 l0 25 -140 0 c-113 0 -140 3 -140 14 0
14 29 26 63 26 10 0 15 -4 12 -10 -3 -5 1 -10 9 -10 9 0 16 5 16 11 0 6 6 9
13 6 47 -19 47 -19 47 2 0 20 -5 21 -90 21 l-90 0 0 -120 c0 -113 -1 -120 -20
-120 -13 0 -20 7 -20 20 0 11 5 20 10 20 6 0 10 5 10 10 0 6 -6 10 -12 10 -9
0 -12 15 -10 50 2 28 9 50 15 50 7 0 7 4 -1 12 -17 17 -15 39 6 54 15 12 14
13 -10 14 l-28 0 0 -180z m214 89 c-4 -7 -23 -9 -50 -5 -34 4 -44 2 -44 -8 0
-11 12 -14 46 -12 25 1 47 -1 50 -6 8 -13 24 1 24 23 0 23 28 26 37 3 3 -9 -3
-21 -16 -30 -11 -8 -21 -21 -20 -27 0 -9 2 -9 5 0 3 7 12 9 20 6 8 -3 14 -1
14 4 0 5 14 8 30 5 28 -4 30 -7 29 -46 0 -32 -2 -37 -9 -21 -8 18 -9 18 -9 2
-1 -16 -11 -18 -101 -16 -97 3 -100 3 -100 26 0 20 5 23 38 23 20 0 42 4 49 8
7 4 -11 8 -40 7 -51 0 -52 0 -55 -32 -2 -18 -8 -33 -13 -33 -16 0 -22 29 -9
45 9 10 9 15 1 15 -14 0 -14 20 2 53 11 25 17 27 70 27 40 0 56 -3 51 -11z
m170 -120 c-16 -7 -17 -8 -1 -8 24 -1 22 -21 -3 -21 -14 0 -20 7 -20 24 0 20
4 23 22 18 21 -5 21 -6 2 -13z m13 -179 c-1 -102 -4 -130 -15 -130 -7 0 -11 4
-8 8 3 5 6 63 7 130 0 67 5 122 9 122 5 0 8 -58 7 -130z m-997 -225 c0 -27 -6
-30 -29 -16 -17 11 -7 41 14 41 9 0 15 -9 15 -25z m60 -65 c0 -13 -7 -20 -20
-20 -13 0 -20 7 -20 20 0 13 7 20 20 20 13 0 20 -7 20 -20z m890 13 c0 -14
-15 -29 -32 -36 -14 -5 -18 -1 -18 18 0 20 5 25 25 25 14 0 25 -3 25 -7z
m-426 -24 c-3 -5 -10 -7 -15 -4 -5 4 -9 1 -9 -6 0 -10 -3 -10 -11 -2 -16 16
-3 32 21 26 11 -3 17 -9 14 -14z m-124 0 c0 -5 -36 -9 -80 -9 -44 0 -80 3 -80
8 0 4 36 8 80 9 45 1 80 -2 80 -8z m52 -1 c-17 -8 -26 -8 -34 0 -9 9 -4 12 23
11 32 0 33 -1 11 -11z m428 4 c0 -5 -76 -8 -170 -8 -93 1 -170 4 -170 9 0 4
77 7 170 7 94 0 170 -4 170 -8z"/>
<path d="M1625 1040 c3 -5 10 -10 16 -10 5 0 9 5 9 10 0 6 -7 10 -16 10 -8 0
-12 -4 -9 -10z"/>
<path d="M1575 1190 c3 -5 14 -10 23 -10 15 0 15 -2 2 -10 -13 -8 -12 -10 3
-10 10 0 17 8 17 20 0 15 -7 20 -26 20 -14 0 -23 -4 -19 -10z"/>
<path d="M640 1180 c0 -5 5 -10 11 -10 5 0 7 5 4 10 -3 6 -8 10 -11 10 -2 0
-4 -4 -4 -10z"/>
<path d="M815 1138 c2 -24 4 -71 4 -105 1 -36 5 -63 11 -63 7 0 10 39 9 105
-1 77 -5 105 -14 105 -9 0 -12 -13 -10 -42z"/>
<path d="M870 1153 c0 -26 1 -26 14 -8 14 20 12 35 -5 35 -5 0 -9 -12 -9 -27z"/>
<path d="M945 1080 c0 -55 3 -100 7 -100 5 0 8 45 8 100 0 55 -3 100 -8 100
-4 0 -7 -45 -7 -100z"/>
<path d="M1150 1161 c0 -14 5 -19 15 -14 17 6 15 25 -3 31 -7 2 -12 -5 -12
-17z"/>
<path d="M1201 1077 c-1 -60 2 -106 7 -103 11 7 14 146 3 181 -7 23 -9 4 -10
-78z"/>
<path d="M1280 1160 c0 -19 3 -21 12 -12 9 9 9 15 0 24 -9 9 -12 7 -12 -12z"/>
<path d="M980 1150 c0 -5 32 -9 70 -9 39 0 70 4 70 9 0 5 -31 9 -70 9 -38 0
-70 -4 -70 -9z"/>
<path d="M328 1113 c6 -2 18 -2 25 0 6 3 1 5 -13 5 -14 0 -19 -2 -12 -5z"/>
<path d="M400 1096 c0 -27 -1 -28 -41 -21 -32 6 -40 4 -37 -6 3 -8 20 -13 41
-14 29 0 38 5 47 24 8 17 8 27 0 35 -7 7 -10 2 -10 -18z"/>
<path d="M463 1080 c-1 -22 3 -40 8 -40 5 0 9 18 9 40 0 52 -14 52 -17 0z"/>
<path d="M640 1045 c0 -43 4 -75 10 -75 6 0 10 32 10 75 0 43 -4 75 -10 75 -6
0 -10 -32 -10 -75z"/>
<path d="M870 1096 c0 -14 5 -28 10 -31 6 -4 10 7 10 24 0 17 -4 31 -10 31 -5
0 -10 -11 -10 -24z"/>
<path d="M1280 1099 c0 -11 5 -17 10 -14 6 3 10 13 10 21 0 8 -4 14 -10 14 -5
0 -10 -9 -10 -21z"/>
<path d="M752 1075 c0 -16 2 -22 5 -12 2 9 2 23 0 30 -3 6 -5 -1 -5 -18z"/>
<path d="M310 1035 c0 -26 19 -37 54 -33 20 2 36 0 36 -4 0 -5 11 -6 25 -2 15
4 32 1 40 -6 13 -11 15 -8 15 14 0 19 -4 25 -12 19 -19 -11 -142 -3 -150 10
-4 7 -8 8 -8 2z"/>
<path d="M861 1010 c0 -26 2 -31 9 -20 6 10 10 11 10 3 0 -7 5 -13 10 -13 6 0
10 7 10 15 0 8 -6 15 -14 15 -8 0 -17 8 -19 18 -3 9 -5 1 -6 -18z"/>
<path d="M745 1010 c-7 -12 2 -30 16 -30 12 0 12 27 0 35 -5 3 -12 1 -16 -5z"/>
<path d="M1285 1010 c3 -5 8 -10 11 -10 2 0 4 5 4 10 0 6 -5 10 -11 10 -5 0
-7 -4 -4 -10z"/>
<path d="M502 998 c6 -18 28 -21 28 -4 0 9 -7 16 -16 16 -9 0 -14 -5 -12 -12z"/>
<path d="M1142 998 c7 -19 38 -22 38 -4 0 10 -9 16 -21 16 -12 0 -19 -5 -17
-12z"/>
<path d="M1096 988 c3 -5 10 -6 15 -3 13 9 11 12 -6 12 -8 0 -12 -4 -9 -9z"/>
<path d="M375 950 c3 -5 8 -10 11 -10 2 0 4 5 4 10 0 6 -5 10 -11 10 -5 0 -7
-4 -4 -10z"/>
<path d="M1260 938 c0 -12 7 -18 23 -17 21 0 21 1 2 9 -17 7 -17 9 -2 9 9 1
17 5 17 10 0 6 -9 9 -20 8 -12 -1 -20 -8 -20 -19z"/>
<path d="M1760 950 c0 -5 5 -10 10 -10 6 0 10 -9 10 -20 0 -11 -4 -20 -10 -20
-5 0 -10 -7 -10 -16 0 -8 5 -12 10 -9 6 4 10 -20 10 -64 0 -41 -4 -71 -10 -71
-5 0 -10 -4 -10 -10 0 -5 7 -10 15 -10 8 0 15 -3 15 -6 0 -3 -7 -12 -15 -20
-21 -21 -19 -34 5 -34 19 0 20 7 20 150 0 143 -1 150 -20 150 -11 0 -20 -4
-20 -10z"/>
<path d="M1820 930 c0 -5 5 -10 10 -10 6 0 10 5 10 10 0 6 -4 10 -10 10 -5 0
-10 -4 -10 -10z"/>
<path d="M1620 910 c0 -5 9 -10 20 -10 11 0 20 5 20 10 0 6 -9 10 -20 10 -11
0 -20 -4 -20 -10z"/>
<path d="M640 895 c0 -8 7 -15 16 -15 14 0 14 3 4 15 -7 8 -14 15 -16 15 -2 0
-4 -7 -4 -15z"/>
<path d="M870 884 c0 -23 1 -24 16 -10 8 9 12 20 9 26 -12 19 -25 10 -25 -16z"/>
<path d="M943 894 c-3 -8 -1 -20 6 -27 8 -8 11 -4 11 16 0 30 -7 35 -17 11z"/>
<path d="M1200 880 c0 -13 6 -20 18 -19 11 0 12 2 4 6 -10 4 -9 8 5 19 17 13
17 13 -4 14 -16 0 -23 -6 -23 -20z"/>
<path d="M1260 874 c0 -16 5 -24 13 -21 6 2 11 10 10 16 -2 6 4 11 12 11 8 0
15 5 15 10 0 6 -11 10 -25 10 -20 0 -25 -5 -25 -26z"/>
<path d="M260 870 c0 -5 5 -10 11 -10 5 0 7 5 4 10 -3 6 -8 10 -11 10 -2 0 -4
-4 -4 -10z"/>
<path d="M580 865 c0 -8 5 -15 10 -15 6 0 10 7 10 15 0 8 -4 15 -10 15 -5 0
-10 -7 -10 -15z"/>
<path d="M620 870 c0 -5 5 -10 11 -10 5 0 7 5 4 10 -3 6 -8 10 -11 10 -2 0 -4
-4 -4 -10z"/>
<path d="M1135 870 c4 -6 11 -8 16 -5 14 9 11 15 -7 15 -8 0 -12 -5 -9 -10z"/>
<path d="M1508 863 c-38 -2 -68 -8 -68 -13 0 -15 153 -7 158 8 2 7 -2 11 -10
10 -7 -1 -43 -3 -80 -5z"/>
<path d="M1616 861 c-3 -5 1 -12 10 -15 25 -10 34 -7 34 9 0 16 -35 21 -44 6z"/>
<path d="M248 843 c7 -3 16 -2 19 1 4 3 -2 6 -13 5 -11 0 -14 -3 -6 -6z"/>
<path d="M540 741 c0 -84 1 -89 20 -84 20 5 28 23 11 23 -5 0 -11 9 -14 20 -3
13 0 20 9 20 8 0 14 7 14 15 0 8 -6 15 -12 15 -10 0 -9 3 1 9 11 7 11 9 0 14
-10 4 -10 6 -1 6 6 1 12 11 11 24 0 21 -1 21 -9 2 -8 -19 -9 -19 -9 3 -1 12
-5 22 -11 22 -6 0 -10 -36 -10 -89z"/>
<path d="M310 811 c0 -6 4 -13 10 -16 6 -3 7 1 4 9 -7 18 -14 21 -14 7z"/>
<path d="M360 800 c0 -18 7 -20 86 -20 64 0 85 3 82 13 -3 6 -18 12 -34 12
-16 0 -32 5 -36 10 -5 6 -8 4 -8 -5 0 -13 -1 -13 -10 0 -8 13 -11 12 -25 -5
-14 -19 -16 -19 -29 -2 -17 22 -26 22 -26 -3z"/>
<path d="M1440 811 c0 -5 -16 -9 -35 -8 -34 1 -54 -8 -43 -19 4 -3 15 -1 25 4
10 5 27 6 38 1 11 -4 39 -8 63 -8 36 -1 43 2 40 16 -2 10 -12 19 -23 20 -20 3
-20 3 0 -5 18 -8 17 -9 -8 -16 -33 -8 -56 2 -36 15 11 7 10 9 -3 9 -10 0 -18
-4 -18 -9z"/>
<path d="M753 803 c9 -2 23 -2 30 0 6 3 -1 5 -18 5 -16 0 -22 -2 -12 -5z"/>
<path d="M1555 790 c3 -5 12 -10 20 -10 8 0 17 5 20 10 4 6 -5 10 -20 10 -15
0 -24 -4 -20 -10z"/>
<path d="M600 686 l0 -93 25 5 c27 5 35 22 10 22 -8 0 -15 9 -15 20 0 11 7 20
15 20 8 0 15 5 15 10 0 6 -7 10 -15 10 -15 0 -21 35 -7 44 4 2 16 -2 27 -10
18 -13 18 -14 0 -14 -10 0 -16 -3 -12 -6 8 -8 47 5 47 17 0 5 -8 9 -17 9 -20
1 -53 23 -53 35 0 4 6 2 14 -4 11 -9 19 -9 36 1 17 11 22 11 30 -2 9 -13 11
-13 19 -1 8 12 12 12 25 2 11 -9 20 -10 35 -2 11 6 53 11 93 11 67 0 74 -2 74
-20 0 -16 -7 -20 -33 -20 -24 0 -33 -4 -33 -17 0 -13 3 -14 12 -5 17 17 45 15
57 -5 8 -15 10 -10 11 22 l0 40 79 1 78 1 -1 -31 c-1 -17 -5 -34 -11 -38 -5
-4 1 -8 14 -8 22 0 23 3 17 40 -6 38 -5 40 20 40 19 0 25 -4 20 -15 -3 -9 0
-15 9 -15 9 0 15 10 15 25 l0 25 -300 0 -300 0 0 -94z"/>
<path d="M1222 753 c5 -25 28 -28 28 -4 0 12 -6 21 -16 21 -9 0 -14 -7 -12
-17z"/>
<path d="M1360 750 c0 -5 5 -10 10 -10 6 0 10 5 10 10 0 6 -4 10 -10 10 -5 0
-10 -4 -10 -10z"/>
<path d="M1430 755 c-1 -5 -2 -14 -1 -19 1 -5 -4 -13 -11 -19 -9 -6 -6 -6 7
-1 11 5 39 8 63 9 35 0 42 3 41 20 0 11 -3 14 -6 8 -2 -7 -22 -13 -43 -13 -21
0 -41 6 -43 13 -3 6 -6 8 -7 2z"/>
<path d="M1562 691 c0 -45 5 -71 12 -71 14 0 12 133 -2 138 -7 2 -10 -23 -10
-67z"/>
<path d="M448 743 c7 -3 16 -2 19 1 4 3 -2 6 -13 5 -11 0 -14 -3 -6 -6z"/>
<path d="M365 730 c-3 -5 -2 -10 4 -10 5 0 13 5 16 10 3 6 2 10 -4 10 -5 0
-13 -4 -16 -10z"/>
<path d="M480 731 c0 -6 4 -13 10 -16 6 -3 7 1 4 9 -7 18 -14 21 -14 7z"/>
<path d="M700 710 c0 -5 5 -10 10 -10 6 0 10 5 10 10 0 6 -4 10 -10 10 -5 0
-10 -4 -10 -10z"/>
<path d="M740 705 c0 -8 9 -15 20 -15 11 0 20 7 20 15 0 8 -9 15 -20 15 -11 0
-20 -7 -20 -15z"/>
<path d="M980 704 c0 -9 7 -14 17 -12 25 5 28 28 4 28 -12 0 -21 -6 -21 -16z"/>
<path d="M1053 713 c18 -5 18 -5 0 -19 -17 -12 -17 -13 0 -14 20 0 23 -20 3
-20 -8 0 -16 -5 -18 -11 -3 -8 -10 -8 -26 2 -15 9 -25 10 -32 3 -7 -7 3 -13
30 -20 22 -6 37 -7 34 -3 -10 17 9 9 22 -8 12 -16 13 -10 14 40 0 53 -2 57
-22 56 -19 -1 -19 -2 -5 -6z"/>
<path d="M1180 706 c0 -8 -6 -17 -12 -19 -7 -3 -4 -6 7 -6 14 -1 21 6 22 19 1
11 -2 20 -8 20 -5 0 -9 -6 -9 -14z"/>
<path d="M1237 700 c3 -11 9 -20 14 -20 5 0 9 9 9 20 0 11 -6 20 -14 20 -9 0
-12 -7 -9 -20z"/>
<path d="M1296 713 c-12 -12 -6 -33 9 -33 8 0 15 6 15 14 0 17 -14 28 -24 19z"/>
<path d="M1356 704 c-8 -22 -8 -24 8 -24 9 0 14 9 13 20 -2 24 -13 26 -21 4z"/>
<path d="M1531 694 c0 -11 3 -14 6 -6 3 7 2 16 -1 19 -3 4 -6 -2 -5 -13z"/>
<path d="M1400 690 c0 -5 15 -10 33 -10 24 0 28 3 17 10 -20 13 -50 13 -50 0z"/>
<path d="M1490 690 c0 -5 7 -10 15 -10 8 0 15 5 15 10 0 6 -7 10 -15 10 -8 0
-15 -4 -15 -10z"/>
<path d="M690 680 c0 -5 7 -7 15 -4 8 4 15 8 15 10 0 2 -7 4 -15 4 -8 0 -15
-4 -15 -10z"/>
<path d="M481 654 c0 -11 3 -14 6 -6 3 7 2 16 -1 19 -3 4 -6 -2 -5 -13z"/>
<path d="M945 657 c-4 -10 -5 -21 -1 -24 10 -10 18 4 13 24 -4 17 -4 17 -12 0z"/>
<path d="M1531 654 c0 -11 3 -14 6 -6 3 7 2 16 -1 19 -3 4 -6 -2 -5 -13z"/>
<path d="M1108 640 c26 -24 28 -40 7 -40 -8 0 -15 -4 -15 -10 0 -5 6 -10 13
-10 8 0 7 -4 -3 -10 -12 -8 -11 -10 8 -10 20 0 22 5 22 45 0 38 3 45 20 45 11
0 20 -7 20 -15 0 -8 5 -15 10 -15 6 0 10 9 10 20 0 18 -7 20 -57 20 l-57 0 22
-20z"/>
<path d="M1220 650 c-12 -8 -10 -10 8 -10 13 0 21 -4 17 -9 -3 -5 -1 -12 4
-15 10 -6 22 29 13 38 -8 9 -25 7 -42 -4z"/>
<path d="M1294 644 c3 -9 6 -18 6 -20 0 -2 5 -4 10 -4 6 0 10 9 10 20 0 12 -7
20 -16 20 -11 0 -14 -5 -10 -16z"/>
<path d="M1346 651 c-3 -5 35 -8 84 -7 50 0 90 4 90 9 0 10 -168 9 -174 -2z"/>
<path d="M1465 630 c-4 -6 6 -10 22 -10 22 0 25 2 13 10 -19 12 -27 12 -35 0z"/>
<path d="M1760 630 c0 -5 5 -10 10 -10 6 0 10 5 10 10 0 6 -4 10 -10 10 -5 0
-10 -4 -10 -10z"/>
<path d="M1348 623 c6 -2 18 -2 25 0 6 3 1 5 -13 5 -14 0 -19 -2 -12 -5z"/>
<path d="M560 611 c0 -6 4 -13 10 -16 6 -3 7 1 4 9 -7 18 -14 21 -14 7z"/>
<path d="M800 584 c0 -11 5 -14 16 -10 9 3 23 6 32 7 14 0 13 2 -3 9 -31 13
-45 11 -45 -6z"/>
<path d="M880 585 c0 -9 5 -15 11 -13 6 2 11 8 11 13 0 5 -5 11 -11 13 -6 2
-11 -4 -11 -13z"/>
<path d="M936 591 c-3 -5 1 -14 9 -21 13 -10 15 -9 15 9 0 21 -14 28 -24 12z"/>
<path d="M983 589 c-10 -3 -12 -8 -7 -12 13 -7 55 -4 72 7 7 4 12 1 12 -8 0
-9 5 -16 10 -16 6 0 10 9 10 20 0 18 -6 20 -40 18 -22 -2 -48 -6 -57 -9z"/>
<path d="M1161 578 c0 -13 3 -17 6 -10 2 6 9 12 14 12 6 0 7 -4 4 -10 -3 -5
-2 -10 3 -10 5 0 12 9 15 20 4 16 0 20 -19 20 -18 0 -24 -5 -23 -22z"/>
<path d="M1220 590 c0 -5 7 -10 16 -10 8 0 13 -4 9 -9 -3 -5 -1 -12 5 -16 6
-4 10 5 10 19 0 19 -5 26 -20 26 -11 0 -20 -4 -20 -10z"/>
<path d="M1288 580 c12 -11 24 -20 27 -20 3 0 5 9 5 20 0 15 -7 20 -27 20
l-27 0 22 -20z"/>
<path d="M1340 590 c0 -6 40 -10 100 -10 60 0 100 4 100 10 0 6 -40 10 -100
10 -60 0 -100 -4 -100 -10z"/>
<path d="M1550 590 c0 -5 14 -10 30 -10 17 0 30 5 30 10 0 6 -13 10 -30 10
-16 0 -30 -4 -30 -10z"/>
<path d="M600 560 c0 -14 7 -20 21 -20 15 0 19 4 15 16 -3 9 -6 18 -6 20 0 2
-7 4 -15 4 -8 0 -15 -9 -15 -20z"/>
<path d="M1353 563 c9 -2 23 -2 30 0 6 3 -1 5 -18 5 -16 0 -22 -2 -12 -5z"/>
<path d="M1568 563 c7 -3 16 -2 19 1 4 3 -2 6 -13 5 -11 0 -14 -3 -6 -6z"/>
<path d="M660 505 c0 -18 5 -25 20 -25 24 0 26 13 4 34 -21 21 -24 20 -24 -9z"/>
<path d="M565 510 c-3 -5 -1 -10 4 -10 6 0 11 5 11 10 0 6 -2 10 -4 10 -3 0
-8 -4 -11 -10z"/>
<path d="M780 450 c0 -24 -20 -27 -21 -2 0 14 -2 14 -9 -3 -7 -17 -9 -17 -9
-2 -1 24 -21 22 -21 -3 0 -19 9 -20 450 -22 l450 -3 0 23 c0 26 -12 28 -34 7
-19 -20 -26 -19 -26 4 0 14 -5 18 -21 14 -16 -4 -17 -8 -7 -14 9 -6 7 -9 -9
-9 -13 0 -23 5 -23 10 0 6 -7 10 -15 10 -8 0 -15 -5 -15 -10 0 -13 -200 -10
-217 3 -9 6 -19 5 -30 -4 -13 -11 -17 -11 -20 -1 -3 6 -10 9 -16 5 -18 -11
-326 -9 -331 2 -3 6 -9 4 -14 -4 -9 -12 -14 -12 -36 3 -25 16 -26 16 -26 -4z"/>
</g>
</svg>
