<?xml version="1.0" standalone="no"?>
<!DOCTYPE svg PUBLIC "-//W3C//DTD SVG 20010904//EN"
 "http://www.w3.org/TR/2001/REC-SVG-20010904/DTD/svg10.dtd">
<svg version="1.0" xmlns="http://www.w3.org/2000/svg"
 width="100.000000pt" height="100.000000pt" viewBox="0 0 100.000000 100.000000"
 preserveAspectRatio="xMidYMid meet">
<metadata>
Created by potrace 1.16, written by Peter Selinger 2001-2019
</metadata>
<g transform="translate(0.000000,100.000000) scale(0.100000,-0.100000)"
fill="#000000" stroke="none">
<path d="M252 980 c0 -14 2 -19 5 -12 2 6 2 18 0 25 -3 6 -5 1 -5 -13z"/>
<path d="M310 980 c0 -11 5 -20 10 -20 6 0 10 9 10 20 0 11 -4 20 -10 20 -5 0
-10 -9 -10 -20z"/>
<path d="M370 980 c0 -11 5 -20 10 -20 6 0 10 9 10 20 0 11 -4 20 -10 20 -5 0
-10 -9 -10 -20z"/>
<path d="M440 980 c0 -11 5 -20 10 -20 6 0 10 9 10 20 0 11 -4 20 -10 20 -5 0
-10 -9 -10 -20z"/>
<path d="M540 980 c0 -11 5 -20 10 -20 6 0 10 9 10 20 0 11 -4 20 -10 20 -5 0
-10 -9 -10 -20z"/>
<path d="M600 980 c0 -11 5 -20 10 -20 6 0 10 9 10 20 0 11 -4 20 -10 20 -5 0
-10 -9 -10 -20z"/>
<path d="M670 980 c0 -11 5 -20 10 -20 6 0 10 9 10 20 0 11 -4 20 -10 20 -5 0
-10 -9 -10 -20z"/>
<path d="M742 980 c0 -14 2 -19 5 -12 2 6 2 18 0 25 -3 6 -5 1 -5 -13z"/>
<path d="M131 913 c0 -16 3 -21 6 -13 3 8 12 21 21 28 14 10 13 12 -6 12 -18
0 -22 -6 -21 -27z"/>
<path d="M190 909 c0 -17 4 -28 10 -24 6 3 10 12 10 19 0 8 9 16 20 19 17 4
20 0 20 -24 0 -29 0 -29 -60 -29 l-60 0 0 -30 c0 -28 -3 -30 -35 -30 l-35 0 0
-90 0 -90 -30 0 c-17 0 -30 -4 -30 -10 0 -5 8 -10 19 -10 12 0 20 -9 23 -25 4
-21 1 -25 -18 -25 -13 0 -24 -4 -24 -10 0 -5 9 -10 20 -10 17 0 20 -7 20 -40
0 -33 -3 -40 -20 -40 -11 0 -20 -4 -20 -10 0 -5 9 -10 20 -10 13 0 20 -7 20
-20 0 -13 -7 -20 -20 -20 -11 0 -20 -4 -20 -10 0 -5 13 -10 30 -10 l30 0 0
-95 0 -95 35 0 c32 0 35 -2 35 -30 l0 -30 60 0 c60 0 60 0 60 -29 0 -24 -3
-28 -20 -24 -11 3 -20 11 -20 19 0 7 -5 16 -10 19 -6 4 -10 -7 -10 -24 l0 -31
125 0 125 0 0 25 c0 24 3 25 60 25 52 0 60 -3 60 -19 0 -16 -6 -17 -49 -13
-30 2 -51 0 -55 -7 -5 -8 43 -11 173 -11 l181 0 0 31 c0 17 -4 28 -10 24 -6
-3 -10 -12 -10 -19 0 -8 -9 -16 -20 -19 -17 -4 -20 0 -20 24 0 29 0 29 60 29
l60 0 0 30 c0 28 3 30 35 30 l35 0 0 95 0 95 30 0 c17 0 30 5 30 10 0 6 -9 10
-20 10 -13 0 -20 7 -20 20 0 13 7 20 20 20 11 0 20 5 20 10 0 6 -9 10 -20 10
-17 0 -20 7 -20 40 0 33 3 40 20 40 11 0 20 5 20 10 0 6 -9 10 -20 10 -15 0
-20 7 -20 25 0 18 5 25 20 25 11 0 20 5 20 10 0 6 -13 10 -30 10 l-30 0 0 90
0 90 -35 0 c-32 0 -35 2 -35 30 l0 30 -60 0 c-60 0 -60 0 -60 29 0 24 3 28 20
24 11 -3 20 -11 20 -19 0 -7 5 -16 10 -19 6 -4 10 7 10 24 l0 31 -310 0 -310
0 0 -31z m250 -2 c0 -20 -4 -23 -35 -19 -45 5 -46 29 -2 35 17 2 33 5 35 5 1
1 2 -8 2 -21z m180 -3 c0 -8 -10 -14 -25 -14 -14 0 -25 -4 -25 -10 0 -6 37
-10 90 -10 l90 0 0 -30 c0 -27 3 -30 30 -30 27 0 30 -3 30 -30 0 -27 3 -30 30
-30 l30 0 0 -250 0 -250 -30 0 c-27 0 -30 -3 -30 -30 0 -27 -3 -30 -30 -30
l-30 0 0 155 c0 148 -1 155 -20 155 -11 0 -20 -4 -20 -10 0 -5 4 -10 9 -10 5
0 11 -9 14 -20 3 -13 0 -20 -9 -20 -8 0 -14 -4 -14 -10 0 -5 5 -10 10 -10 14
0 12 -37 -2 -44 -10 -5 -10 -7 0 -12 6 -3 12 -16 12 -29 0 -13 -6 -26 -12 -29
-10 -5 -10 -7 0 -12 20 -10 15 -44 -8 -44 -19 0 -20 7 -20 220 l0 220 -25 0
c-14 0 -25 -4 -25 -10 0 -5 7 -10 15 -10 8 0 15 -2 15 -4 0 -2 3 -11 6 -20 4
-12 0 -16 -15 -16 -12 0 -21 -4 -21 -10 0 -5 6 -10 14 -10 7 0 16 -11 18 -24
4 -21 1 -26 -21 -29 -26 -4 -26 -4 -3 -12 31 -11 30 -45 -3 -45 l-25 0 0 155
0 155 -27 0 c-24 -1 -26 -2 -12 -13 8 -7 18 -20 22 -29 5 -14 1 -18 -18 -18
-25 0 -25 1 -25 88 l0 89 30 -5 c17 -2 30 -10 30 -18z m-330 1 c0 -8 -4 -15
-10 -15 -5 0 -10 7 -10 15 0 8 5 15 10 15 6 0 10 -7 10 -15z m60 0 c0 -8 -9
-15 -20 -15 -11 0 -20 7 -20 15 0 8 9 15 20 15 11 0 20 -7 20 -15z m190 0 c0
-11 -11 -15 -40 -15 -29 0 -40 4 -40 15 0 11 11 15 40 15 29 0 40 -4 40 -15z
m150 0 c0 -9 -9 -15 -25 -15 -16 0 -25 6 -25 15 0 9 9 15 25 15 16 0 25 -6 25
-15z m40 0 c0 -8 -4 -15 -10 -15 -5 0 -10 7 -10 15 0 8 5 15 10 15 6 0 10 -7
10 -15z m-290 -95 c0 -60 0 -60 -29 -60 -24 0 -28 3 -24 20 3 11 11 20 19 20
7 0 16 5 19 10 4 6 -7 10 -24 10 l-31 0 0 -185 c0 -178 -1 -185 -20 -185 -13
0 -20 7 -20 20 0 11 7 20 15 20 8 0 15 5 15 10 0 6 -7 10 -15 10 -21 0 -19 30
3 46 16 12 16 13 -4 14 -17 0 -20 5 -16 25 2 14 8 25 13 25 5 0 9 5 9 10 0 6
-9 10 -20 10 -19 0 -20 -7 -20 -190 0 -183 -1 -190 -20 -190 -23 0 -28 34 -7
44 10 5 10 7 0 12 -15 7 -17 54 -3 54 6 0 10 5 10 10 0 6 -6 10 -14 10 -9 0
-12 7 -9 20 3 11 9 20 14 20 5 0 9 5 9 10 0 6 -6 10 -14 10 -9 0 -12 7 -9 20
3 11 9 20 14 20 5 0 9 5 9 10 0 6 -9 10 -20 10 -19 0 -20 -7 -20 -155 l0 -155
-30 0 c-27 0 -30 3 -30 30 0 27 -3 30 -30 30 l-30 0 0 250 0 250 30 0 c27 0
30 3 30 30 0 27 3 30 30 30 27 0 30 3 30 30 l0 30 95 0 95 0 0 -60z m100 30
c0 -28 -2 -30 -40 -30 -38 0 -40 2 -40 30 0 28 2 30 40 30 38 0 40 -2 40 -30z
m-350 2 c0 -10 -22 -32 -32 -32 -4 0 -8 9 -8 20 0 13 7 20 20 20 11 0 20 -4
20 -8z m40 -2 c0 -5 -4 -10 -10 -10 -5 0 -10 5 -10 10 0 6 5 10 10 10 6 0 10
-4 10 -10z m560 0 c0 -5 -4 -10 -10 -10 -5 0 -10 5 -10 10 0 6 5 10 10 10 6 0
10 -4 10 -10z m60 -10 c0 -23 -10 -26 -28 -8 -18 18 -15 28 8 28 13 0 20 -7
20 -20z m-720 -55 c0 -21 -5 -25 -29 -25 -24 0 -28 3 -24 19 3 11 15 22 27 24
11 2 22 5 24 6 1 0 2 -10 2 -24z m793 -6 c4 -15 0 -19 -24 -19 -24 0 -29 4
-29 24 0 19 4 22 24 19 13 -3 26 -14 29 -24z m-753 11 c0 -5 -4 -10 -10 -10
-5 0 -10 5 -10 10 0 6 5 10 10 10 6 0 10 -4 10 -10z m370 -12 c1 -29 30 -69
37 -50 7 19 23 14 23 -8 0 -13 -7 -20 -20 -20 -19 0 -20 -7 -20 -190 0 -183 1
-190 20 -190 20 0 28 15 11 22 -4 2 -12 13 -15 26 -6 18 -4 22 16 22 20 1 21
2 7 13 -8 7 -18 20 -22 30 -5 13 -1 17 18 17 l25 0 0 -125 0 -125 31 0 c17 0
28 4 24 10 -3 5 -12 10 -19 10 -8 0 -16 9 -19 20 -4 17 0 20 24 20 29 0 29 0
29 -60 l0 -60 -190 0 -190 0 0 60 c0 57 1 60 25 60 19 0 23 -4 18 -18 -4 -9
-14 -22 -22 -29 -14 -11 -12 -12 12 -13 l27 0 0 125 0 125 25 0 c18 0 25 -5
25 -20 0 -13 -7 -20 -20 -20 -11 0 -20 -4 -20 -10 0 -5 12 -10 26 -10 20 0 25
-4 20 -16 -3 -9 -6 -20 -6 -25 0 -5 -7 -9 -15 -9 -8 0 -15 -4 -15 -10 0 -5 11
-10 25 -10 l25 0 0 190 0 190 -25 0 c-18 0 -25 5 -25 20 0 14 7 20 24 20 13 0
27 -6 30 -12 5 -10 7 -10 12 0 3 6 10 12 15 12 14 0 11 -28 -3 -33 -7 -3 -3
-6 10 -6 18 -1 22 4 22 29 0 23 -4 30 -20 30 -13 0 -20 7 -20 20 0 17 7 20 40
20 35 0 40 -3 40 -22z m310 12 c0 -5 -4 -10 -10 -10 -5 0 -10 5 -10 10 0 6 5
10 10 10 6 0 10 -4 10 -10z m-740 -60 c0 -5 -7 -10 -15 -10 -8 0 -15 5 -15 10
0 6 7 10 15 10 8 0 15 -4 15 -10z m810 0 c0 -5 -7 -10 -15 -10 -8 0 -15 5 -15
10 0 6 7 10 15 10 8 0 15 -4 15 -10z m-810 -50 c0 -11 -7 -20 -15 -20 -8 0
-15 9 -15 20 0 11 7 20 15 20 8 0 15 -9 15 -20z m810 0 c0 -11 -7 -20 -15 -20
-8 0 -15 9 -15 20 0 11 7 20 15 20 8 0 15 -9 15 -20z m-497 -20 c4 -15 0 -20
-14 -20 -12 0 -19 7 -19 20 0 11 6 20 14 20 7 0 16 -9 19 -20z m177 0 c0 -11
-4 -20 -10 -20 -5 0 -10 9 -10 20 0 11 5 20 10 20 6 0 10 -9 10 -20z m-490
-45 c0 -16 -6 -25 -15 -25 -8 0 -15 -4 -15 -10 0 -5 7 -10 15 -10 12 0 15 -13
15 -60 0 -47 -3 -60 -15 -60 -8 0 -15 -4 -15 -10 0 -5 7 -10 15 -10 8 0 15 -9
15 -20 0 -15 -7 -20 -25 -20 l-25 0 0 125 0 125 25 0 c20 0 25 -5 25 -25z
m830 -100 l0 -125 -25 0 c-18 0 -25 5 -25 20 0 11 7 20 15 20 8 0 15 5 15 10
0 6 -7 10 -15 10 -12 0 -15 13 -15 60 0 47 3 60 15 60 8 0 15 5 15 10 0 6 -7
10 -15 10 -9 0 -15 9 -15 25 0 20 5 25 25 25 l25 0 0 -125z m-520 60 c0 -33
-4 -45 -15 -45 -11 0 -15 12 -15 45 0 33 4 45 15 45 11 0 15 -12 15 -45z m180
0 c0 -25 -4 -45 -10 -45 -5 0 -10 20 -10 45 0 25 5 45 10 45 6 0 10 -20 10
-45z m-180 -85 c0 -11 -7 -20 -15 -20 -8 0 -15 9 -15 20 0 11 7 20 15 20 8 0
15 -9 15 -20z m200 10 c0 -5 11 -10 25 -10 18 0 25 -5 25 -20 0 -13 -7 -20
-20 -20 -11 0 -20 5 -20 10 0 6 -11 10 -25 10 -18 0 -25 5 -25 20 0 13 7 20
20 20 11 0 20 -4 20 -10z m-270 -115 c0 -25 -4 -45 -10 -45 -5 0 -10 20 -10
45 0 25 5 45 10 45 6 0 10 -20 10 -45z m320 35 c0 -5 -7 -10 -15 -10 -8 0 -15
5 -15 10 0 6 7 10 15 10 8 0 15 -4 15 -10z m0 -55 c0 -16 -6 -25 -15 -25 -9 0
-15 9 -15 25 0 16 6 25 15 25 9 0 15 -9 15 -25z m-560 -20 c0 -16 -6 -25 -15
-25 -9 0 -15 9 -15 25 0 16 6 25 15 25 9 0 15 -9 15 -25z m810 0 c0 -16 -6
-25 -15 -25 -9 0 -15 9 -15 25 0 16 6 25 15 25 9 0 15 -9 15 -25z m-570 -45
c0 -11 -4 -20 -9 -20 -5 0 -11 9 -14 20 -3 13 0 20 9 20 8 0 14 -9 14 -20z
m323 0 c-3 -11 -12 -20 -19 -20 -8 0 -14 9 -14 20 0 13 7 20 19 20 14 0 18 -5
14 -20z m-563 -10 c0 -5 -7 -10 -15 -10 -8 0 -15 5 -15 10 0 6 7 10 15 10 8 0
15 -4 15 -10z m810 0 c0 -5 -7 -10 -15 -10 -8 0 -15 5 -15 10 0 6 7 10 15 10
8 0 15 -4 15 -10z m-790 -54 c0 -19 -4 -22 -24 -19 -13 3 -26 14 -29 24 -4 15
0 19 24 19 24 0 29 -4 29 -24z m793 4 c-3 -13 -14 -20 -29 -20 -17 0 -24 6
-24 20 0 15 7 20 29 20 24 0 28 -3 24 -20z m-753 -10 c0 -5 -4 -10 -10 -10 -5
0 -10 5 -10 10 0 6 5 10 10 10 6 0 10 -4 10 -10z m120 -10 c0 -11 -4 -20 -10
-20 -5 0 -10 9 -10 20 0 11 5 20 10 20 6 0 10 -9 10 -20z m440 -20 c0 -22 -4
-40 -10 -40 -5 0 -10 18 -10 40 0 22 5 40 10 40 6 0 10 -18 10 -40z m120 30
c0 -5 -4 -10 -10 -10 -5 0 -10 5 -10 10 0 6 5 10 10 10 6 0 10 -4 10 -10z
m-662 -53 c2 -12 -3 -17 -17 -17 -15 0 -21 6 -21 21 0 25 33 22 38 -4z m662 3
c0 -13 -7 -20 -20 -20 -22 0 -23 1 -14 24 9 23 34 20 34 -4z m-600 -10 c0 -5
-9 -10 -20 -10 -11 0 -20 5 -20 10 0 6 9 10 20 10 11 0 20 -4 20 -10z m40 0
c0 -5 -7 -10 -15 -10 -8 0 -15 5 -15 10 0 6 7 10 15 10 8 0 15 -4 15 -10z
m500 0 c0 -5 -9 -10 -20 -10 -11 0 -20 5 -20 10 0 6 9 10 20 10 11 0 20 -4 20
-10z m-500 -55 c0 -14 -4 -25 -10 -25 -5 0 -10 11 -10 25 0 14 5 25 10 25 6 0
10 -11 10 -25z m440 0 c0 -14 -4 -25 -10 -25 -5 0 -10 11 -10 25 0 14 5 25 10
25 6 0 10 -11 10 -25z m-380 -10 c0 -8 -9 -15 -20 -15 -11 0 -20 7 -20 15 0 8
9 15 20 15 11 0 20 -7 20 -15z m70 0 c0 -9 -9 -15 -25 -15 -16 0 -25 6 -25 15
0 9 9 15 25 15 16 0 25 -6 25 -15z m200 -4 c0 -14 -5 -18 -20 -14 -11 3 -20
12 -20 19 0 8 9 14 20 14 13 0 20 -7 20 -19z m70 4 c0 -9 -9 -15 -25 -15 -16
0 -25 6 -25 15 0 9 9 15 25 15 16 0 25 -6 25 -15z"/>
<path d="M600 841 c0 -6 5 -13 10 -16 6 -3 10 1 10 9 0 9 -4 16 -10 16 -5 0
-10 -4 -10 -9z"/>
<path d="M690 830 c0 -15 7 -20 27 -20 l27 0 -22 20 c-12 11 -24 20 -27 20 -3
0 -5 -9 -5 -20z"/>
<path d="M750 770 c0 -13 7 -20 20 -20 24 0 25 6 6 26 -20 19 -26 18 -26 -6z"/>
<path d="M650 743 c8 -3 21 -12 28 -21 10 -14 12 -13 12 6 0 18 -6 22 -27 21
-16 0 -21 -3 -13 -6z"/>
<path d="M810 717 c0 -20 5 -27 20 -27 11 0 20 2 20 5 0 3 -9 15 -20 27 l-20
22 0 -27z"/>
<path d="M710 554 c0 -7 27 -34 34 -34 3 0 6 9 6 20 0 13 -7 20 -20 20 -11 0
-20 -3 -20 -6z"/>
<path d="M810 283 l0 -27 20 22 c11 12 20 24 20 27 0 3 -9 5 -20 5 -15 0 -20
-7 -20 -27z"/>
<path d="M770 240 c0 -5 5 -10 10 -10 6 0 10 5 10 10 0 6 -4 10 -10 10 -5 0
-10 -4 -10 -10z"/>
<path d="M276 829 c-19 -19 -19 -19 7 -19 20 0 27 5 27 20 0 25 -9 25 -34 -1z"/>
<path d="M370 834 c0 -8 5 -12 10 -9 6 3 10 10 10 16 0 5 -4 9 -10 9 -5 0 -10
-7 -10 -16z"/>
<path d="M223 775 c-18 -20 -16 -25 7 -25 13 0 20 7 20 20 0 23 -10 25 -27 5z"/>
<path d="M310 739 c0 -5 5 -7 10 -4 6 3 10 8 10 11 0 2 -4 4 -10 4 -5 0 -10
-5 -10 -11z"/>
<path d="M167 720 c-22 -26 -21 -30 3 -30 15 0 20 7 20 25 0 30 -1 30 -23 5z"/>
<path d="M310 663 l0 -27 20 22 c11 12 20 24 20 27 0 3 -9 5 -20 5 -15 0 -20
-7 -20 -27z"/>
<path d="M175 640 c-3 -5 -1 -10 4 -10 6 0 11 5 11 10 0 6 -2 10 -4 10 -3 0
-8 -4 -11 -10z"/>
<path d="M250 538 c0 -17 3 -19 9 -9 5 7 15 17 22 22 10 6 8 9 -8 9 -17 0 -23
-6 -23 -22z"/>
<path d="M175 370 c3 -5 8 -10 11 -10 2 0 4 5 4 10 0 6 -5 10 -11 10 -5 0 -7
-4 -4 -10z"/>
<path d="M150 305 c0 -3 9 -15 20 -27 l20 -22 0 27 c0 20 -5 27 -20 27 -11 0
-20 -2 -20 -5z"/>
<path d="M210 240 c0 -5 5 -10 10 -10 6 0 10 5 10 10 0 6 -4 10 -10 10 -5 0
-10 -4 -10 -10z"/>
<path d="M491 664 c0 -11 3 -14 6 -6 3 7 2 16 -1 19 -3 4 -6 -2 -5 -13z"/>
<path d="M455 620 c3 -5 24 -10 45 -10 21 0 42 5 45 10 4 6 -13 10 -45 10 -32
0 -49 -4 -45 -10z"/>
<path d="M455 570 c-4 -6 13 -10 45 -10 32 0 49 4 45 10 -3 6 -24 10 -45 10
-21 0 -42 -4 -45 -10z"/>
<path d="M450 510 c0 -5 23 -10 50 -10 28 0 50 5 50 10 0 6 -22 10 -50 10 -27
0 -50 -4 -50 -10z"/>
<path d="M491 473 c-1 -7 -8 -13 -16 -13 -8 0 -15 -4 -15 -10 0 -5 18 -10 40
-10 22 0 40 5 40 10 0 6 -9 10 -19 10 -11 0 -22 6 -24 13 -4 10 -6 10 -6 0z"/>
<path d="M420 280 c0 -5 -7 -10 -15 -10 -8 0 -15 -4 -15 -10 0 -5 11 -10 25
-10 18 0 25 5 25 20 0 11 -4 20 -10 20 -5 0 -10 -4 -10 -10z"/>
<path d="M560 270 c0 -13 7 -20 20 -20 24 0 25 6 6 26 -20 19 -26 18 -26 -6z"/>
<path d="M356 171 c-4 -7 -5 -15 -2 -18 9 -9 19 4 14 18 -4 11 -6 11 -12 0z"/>
<path d="M620 166 c0 -9 5 -16 10 -16 6 0 10 4 10 9 0 6 -4 13 -10 16 -5 3
-10 -1 -10 -9z"/>
<path d="M842 928 c9 -7 18 -20 21 -28 3 -8 6 -3 6 13 1 21 -3 27 -21 27 -19
0 -20 -2 -6 -12z"/>
<path d="M60 850 c0 -11 5 -20 10 -20 6 0 10 5 10 10 0 6 7 10 15 10 8 0 15 5
15 10 0 6 -11 10 -25 10 -18 0 -25 -5 -25 -20z"/>
<path d="M890 860 c0 -5 7 -10 15 -10 8 0 15 -4 15 -10 0 -5 5 -10 10 -10 6 0
10 9 10 20 0 15 -7 20 -25 20 -14 0 -25 -4 -25 -10z"/>
<path d="M0 740 c0 -5 9 -10 20 -10 11 0 20 5 20 10 0 6 -9 10 -20 10 -11 0
-20 -4 -20 -10z"/>
<path d="M960 740 c0 -5 9 -10 20 -10 11 0 20 5 20 10 0 6 -9 10 -20 10 -11 0
-20 -4 -20 -10z"/>
<path d="M0 680 c0 -5 9 -10 19 -10 11 0 23 5 26 10 4 6 -5 10 -19 10 -14 0
-26 -4 -26 -10z"/>
<path d="M955 680 c3 -5 15 -10 26 -10 10 0 19 5 19 10 0 6 -12 10 -26 10 -14
0 -23 -4 -19 -10z"/>
<path d="M0 320 c0 -5 12 -10 26 -10 14 0 23 4 19 10 -3 6 -15 10 -26 10 -10
0 -19 -4 -19 -10z"/>
<path d="M955 320 c-4 -6 5 -10 19 -10 14 0 26 5 26 10 0 6 -9 10 -19 10 -11
0 -23 -4 -26 -10z"/>
<path d="M0 260 c0 -5 9 -10 20 -10 11 0 20 5 20 10 0 6 -9 10 -20 10 -11 0
-20 -4 -20 -10z"/>
<path d="M960 260 c0 -5 9 -10 20 -10 11 0 20 5 20 10 0 6 -9 10 -20 10 -11 0
-20 -4 -20 -10z"/>
<path d="M60 150 c0 -15 7 -20 25 -20 14 0 25 5 25 10 0 6 -7 10 -15 10 -8 0
-15 5 -15 10 0 6 -4 10 -10 10 -5 0 -10 -9 -10 -20z"/>
<path d="M920 160 c0 -5 -7 -10 -15 -10 -8 0 -15 -4 -15 -10 0 -5 11 -10 25
-10 18 0 25 5 25 20 0 11 -4 20 -10 20 -5 0 -10 -4 -10 -10z"/>
<path d="M131 88 c-1 -22 3 -28 21 -28 19 0 20 2 6 12 -9 7 -18 20 -21 28 -3
8 -6 3 -6 -12z"/>
<path d="M860 95 c0 -7 -8 -19 -17 -24 -16 -9 -16 -10 5 -11 17 0 22 6 22 25
0 14 -2 25 -5 25 -3 0 -5 -7 -5 -15z"/>
<path d="M252 20 c0 -14 2 -19 5 -12 2 6 2 18 0 25 -3 6 -5 1 -5 -13z"/>
<path d="M310 20 c0 -11 5 -20 10 -20 6 0 10 9 10 20 0 11 -4 20 -10 20 -5 0
-10 -9 -10 -20z"/>
<path d="M370 20 c0 -11 5 -20 10 -20 6 0 10 9 10 20 0 11 -4 20 -10 20 -5 0
-10 -9 -10 -20z"/>
<path d="M440 20 c0 -11 5 -20 10 -20 6 0 10 9 10 20 0 11 -4 20 -10 20 -5 0
-10 -9 -10 -20z"/>
<path d="M540 20 c0 -11 5 -20 10 -20 6 0 10 9 10 20 0 11 -4 20 -10 20 -5 0
-10 -9 -10 -20z"/>
<path d="M600 20 c0 -11 5 -20 10 -20 6 0 10 9 10 20 0 11 -4 20 -10 20 -5 0
-10 -9 -10 -20z"/>
<path d="M670 20 c0 -11 5 -20 10 -20 6 0 10 9 10 20 0 11 -4 20 -10 20 -5 0
-10 -9 -10 -20z"/>
<path d="M742 20 c0 -14 2 -19 5 -12 2 6 2 18 0 25 -3 6 -5 1 -5 -13z"/>
</g>
</svg>
