<?xml version="1.0" standalone="no"?>
<!DOCTYPE svg PUBLIC "-//W3C//DTD SVG 20010904//EN"
 "http://www.w3.org/TR/2001/REC-SVG-20010904/DTD/svg10.dtd">
<svg version="1.0" xmlns="http://www.w3.org/2000/svg"
 width="100.000000pt" height="100.000000pt" viewBox="0 0 100.000000 100.000000"
 preserveAspectRatio="xMidYMid meet">
<metadata>
Created by potrace 1.16, written by Peter Selinger 2001-2019
</metadata>
<g transform="translate(0.000000,100.000000) scale(0.100000,-0.100000)"
fill="#000000" stroke="none">
<path d="M440 955 c0 -33 -4 -45 -15 -45 -10 0 -15 -11 -15 -35 0 -28 -4 -35
-20 -35 -18 0 -20 -7 -20 -60 0 -47 -3 -60 -15 -60 -10 0 -15 -10 -15 -30 0
-20 -5 -30 -15 -30 -10 0 -15 -11 -15 -35 0 -24 -5 -35 -15 -35 -12 0 -15 -13
-15 -60 0 -47 -3 -60 -15 -60 -8 0 -15 -7 -15 -15 0 -12 -17 -15 -95 -15 -78
0 -95 -3 -95 -15 0 -10 -10 -15 -30 -15 -17 0 -30 -4 -30 -10 0 -5 18 -10 40
-10 29 0 40 4 40 15 0 12 17 15 95 15 78 0 95 3 95 15 0 8 7 15 15 15 12 0 15
13 15 60 0 47 3 60 15 60 10 0 15 11 15 35 0 24 5 35 15 35 10 0 15 10 15 30
0 20 5 30 15 30 12 0 15 13 15 60 0 53 2 60 20 60 16 0 20 7 20 35 0 24 5 35
15 35 12 0 15 13 15 55 0 30 -4 55 -10 55 -5 0 -10 -20 -10 -45z"/>
<path d="M600 975 c0 -18 5 -25 20 -25 11 0 20 -7 20 -15 0 -8 7 -15 15 -15
10 0 15 -11 15 -35 0 -24 5 -35 15 -35 11 0 15 -12 15 -45 0 -33 4 -45 15 -45
11 0 15 -12 15 -45 0 -33 4 -45 15 -45 11 0 15 -12 15 -50 0 -38 4 -50 15 -50
10 0 15 -10 15 -30 0 -20 5 -30 15 -30 10 0 15 -10 15 -30 0 -20 5 -30 15 -30
12 0 15 -14 15 -65 0 -58 2 -65 20 -65 11 0 20 -7 20 -15 0 -8 7 -15 15 -15
12 0 15 -15 15 -75 0 -60 3 -75 15 -75 11 0 15 -12 15 -45 0 -33 -4 -45 -15
-45 -9 0 -15 -9 -15 -25 0 -14 5 -25 10 -25 6 0 10 7 10 15 0 8 7 15 15 15 12
0 15 14 15 65 0 51 -3 65 -15 65 -12 0 -15 15 -15 75 0 60 -3 75 -15 75 -8 0
-15 7 -15 15 0 8 -9 15 -20 15 -18 0 -20 7 -20 65 0 51 -3 65 -15 65 -10 0
-15 10 -15 30 0 20 -5 30 -15 30 -10 0 -15 10 -15 30 0 20 -5 30 -15 30 -11 0
-15 12 -15 50 0 38 -4 50 -15 50 -11 0 -15 12 -15 45 0 33 -4 45 -15 45 -11 0
-15 12 -15 45 0 33 -4 45 -15 45 -10 0 -15 11 -15 35 0 24 -5 35 -15 35 -8 0
-15 7 -15 15 0 8 -9 15 -20 15 -11 0 -20 7 -20 15 0 8 -4 15 -10 15 -5 0 -10
-11 -10 -25z"/>
<path d="M510 580 c0 -20 -5 -30 -15 -30 -10 0 -15 -10 -15 -30 0 -20 -5 -30
-15 -30 -10 0 -15 -11 -15 -35 l0 -35 95 0 95 0 0 35 c0 24 -5 35 -15 35 -12
0 -15 13 -15 60 l0 60 -50 0 c-49 0 -50 -1 -50 -30z m80 -50 c0 -47 3 -60 15
-60 8 0 15 -7 15 -15 0 -12 -15 -15 -75 -15 -60 0 -75 3 -75 15 0 8 7 15 15
15 10 0 15 10 15 30 0 20 5 30 15 30 10 0 15 10 15 30 0 27 3 30 30 30 l30 0
0 -60z"/>
<path d="M640 330 c0 -23 -4 -30 -20 -30 -11 0 -20 -7 -20 -15 0 -12 -18 -15
-105 -15 l-105 0 0 -45 c0 -38 -3 -45 -20 -45 -11 0 -20 -7 -20 -15 0 -8 -7
-15 -15 -15 -10 0 -15 -11 -15 -35 0 -24 -5 -35 -15 -35 -11 0 -15 -11 -15
-40 0 -22 5 -40 10 -40 6 0 10 13 10 30 0 20 5 30 15 30 10 0 15 11 15 35 0
24 5 35 15 35 8 0 15 7 15 15 0 8 9 15 20 15 17 0 20 7 20 45 l0 45 105 0 c87
0 105 3 105 15 0 8 9 15 20 15 16 0 20 7 20 30 0 20 5 30 15 30 12 0 15 -13
15 -60 0 -47 3 -60 15 -60 10 0 15 -10 15 -30 0 -20 5 -30 15 -30 11 0 15 -12
15 -50 0 -38 4 -50 15 -50 10 0 15 -10 15 -30 0 -17 5 -30 10 -30 6 0 10 18
10 40 0 29 -4 40 -15 40 -11 0 -15 12 -15 50 0 38 -4 50 -15 50 -10 0 -15 10
-15 30 0 20 -5 30 -15 30 -12 0 -15 13 -15 60 l0 60 -35 0 c-32 0 -35 -2 -35
-30z"/>
<path d="M0 290 c0 -5 7 -10 15 -10 8 0 15 -7 15 -15 0 -12 14 -15 65 -15 l65
0 0 -45 c0 -33 -4 -45 -15 -45 -11 0 -15 -12 -15 -50 0 -38 4 -50 15 -50 10 0
15 -10 15 -30 0 -17 5 -30 10 -30 6 0 10 18 10 40 0 29 -4 40 -15 40 -10 0
-15 10 -15 30 0 20 5 30 15 30 12 0 15 14 15 65 l0 65 -65 0 c-51 0 -65 3 -65
15 0 9 -9 15 -25 15 -14 0 -25 -4 -25 -10z"/>
</g>
</svg>
