<?xml version="1.0" standalone="no"?>
<!DOCTYPE svg PUBLIC "-//W3C//DTD SVG 20010904//EN"
 "http://www.w3.org/TR/2001/REC-SVG-20010904/DTD/svg10.dtd">
<svg version="1.0" xmlns="http://www.w3.org/2000/svg"
 width="100.000000pt" height="100.000000pt" viewBox="0 0 100.000000 100.000000"
 preserveAspectRatio="xMidYMid meet">
<metadata>
Created by potrace 1.16, written by Peter Selinger 2001-2019
</metadata>
<g transform="translate(0.000000,100.000000) scale(0.100000,-0.100000)"
fill="#000000" stroke="none">
<path d="M493 953 c-7 -2 -13 -18 -13 -34 0 -26 -4 -29 -30 -29 -27 0 -30 -3
-30 -34 0 -24 -5 -36 -17 -39 -17 -4 -17 -5 0 -6 25 -2 23 -41 -3 -42 -11 -1
-26 -2 -32 -3 -9 -1 -14 -22 -16 -58 -2 -48 -6 -58 -21 -58 -27 0 -41 -42 -41
-120 l0 -70 -87 -1 c-49 0 -97 -4 -108 -9 -17 -7 -17 -9 -2 -9 28 -1 21 -38
-8 -43 -18 -4 -25 -1 -25 11 0 14 -2 14 -10 1 -12 -18 -12 -107 0 -135 8 -20
9 -20 9 1 1 17 6 20 26 16 32 -6 34 -39 3 -45 -14 -2 -3 -7 29 -12 l52 -7 3
-92 3 -91 105 0 105 0 3 63 c3 63 10 70 55 63 4 -1 10 12 13 29 l7 30 103 0
104 0 1 -57 c0 -54 17 -124 18 -80 1 10 9 17 21 17 15 0 20 -7 20 -25 0 -14
-6 -25 -12 -25 -9 0 -8 -4 2 -10 18 -12 157 -12 185 0 17 7 17 9 3 9 -28 1
-23 47 5 56 l22 8 -22 4 c-18 3 -23 11 -23 34 0 24 4 29 25 29 22 0 24 -4 27
-57 l3 -58 9 49 c10 58 1 80 -38 84 -25 3 -26 5 -26 75 0 75 -16 117 -45 117
-10 0 -15 16 -17 58 -2 36 -7 57 -15 58 -7 1 -20 2 -28 3 -24 2 -18 39 8 44
l22 4 -22 2 c-21 1 -23 6 -23 59 0 60 -11 82 -42 82 -15 0 -18 9 -19 58 0 53
-17 123 -18 80 -1 -12 -9 -18 -26 -18 -33 0 -35 37 -2 43 l22 4 -22 2 c-17 1
-23 7 -23 25 0 40 -25 56 -83 55 -29 0 -58 -3 -64 -6z m127 -38 c0 -18 -5 -25
-20 -25 -11 0 -20 7 -20 15 0 8 -4 15 -10 15 -5 0 -10 -7 -10 -15 0 -10 -10
-15 -30 -15 -25 0 -30 4 -30 25 0 24 3 25 60 25 57 0 60 -1 60 -25z m-137 -65
c-3 -11 -12 -20 -19 -20 -8 0 -14 -4 -14 -10 0 -5 9 -10 20 -10 24 0 26 -13 5
-34 -20 -20 -19 -26 5 -26 18 0 20 7 20 60 l0 60 60 0 60 0 0 -90 c0 -89 0
-90 25 -90 14 0 25 5 25 10 0 6 -6 10 -14 10 -7 0 -16 9 -19 19 -4 15 1 21 22
24 25 4 26 4 4 12 -32 11 -31 45 2 45 l25 0 0 -155 0 -155 -25 0 c-14 0 -25
-4 -25 -10 0 -5 7 -10 15 -10 8 0 15 -4 15 -10 0 -5 5 -10 10 -10 6 0 10 9 10
20 0 13 7 20 20 20 11 0 20 5 20 10 0 6 -4 10 -9 10 -5 0 -11 9 -14 20 -4 15
0 20 16 20 20 1 21 2 5 14 -25 19 -24 56 2 56 19 0 20 -7 20 -160 0 -153 -1
-160 -20 -160 -11 0 -20 -2 -20 -5 0 -3 9 -15 20 -27 l20 -22 0 27 c0 20 5 27
20 27 20 0 28 15 11 22 -4 2 -12 13 -15 26 -6 18 -4 22 16 22 21 1 22 2 6 14
-10 7 -18 21 -18 30 0 9 8 16 18 16 16 1 16 1 0 14 -24 18 -23 46 2 46 19 0
20 -7 20 -175 0 -117 4 -175 11 -175 6 0 8 9 4 20 -5 14 -2 20 9 20 9 0 16 5
16 10 0 6 -4 10 -9 10 -5 0 -11 9 -14 20 -4 15 0 20 16 20 20 1 21 2 5 14 -24
18 -23 46 2 46 19 0 20 -7 20 -125 l0 -125 -60 0 c-59 0 -60 1 -60 28 0 26 2
27 46 23 25 -2 51 2 57 8 8 8 -4 11 -46 11 l-57 0 0 60 c0 53 -2 60 -20 60
-11 0 -20 -4 -20 -10 0 -5 4 -10 9 -10 5 0 11 -9 14 -20 4 -15 0 -20 -16 -20
-20 -1 -21 -2 -4 -14 23 -18 22 -46 -3 -46 -19 0 -20 7 -20 155 l0 155 -25 0
c-14 0 -25 -4 -25 -10 0 -5 6 -10 14 -10 7 0 16 -9 19 -20 4 -17 0 -20 -24
-20 l-29 0 0 125 0 125 25 0 c14 0 25 5 25 10 0 6 -7 10 -15 10 -8 0 -15 5
-15 10 0 6 -4 10 -10 10 -5 0 -10 -9 -10 -20 0 -15 -7 -20 -27 -20 -24 -1 -26
-2 -12 -13 8 -7 18 -22 21 -34 5 -19 2 -23 -15 -23 -20 -1 -21 -2 -4 -14 23
-18 22 -46 -3 -46 -18 0 -20 7 -20 65 0 63 -1 65 -25 65 -27 0 -30 7 -14 30 8
11 12 12 16 3 8 -20 23 -15 23 7 0 16 -7 20 -30 20 -26 0 -30 4 -30 27 l0 27
-20 -22 c-11 -12 -20 -24 -20 -27 0 -3 9 -5 20 -5 19 0 20 -7 20 -125 l0 -125
50 0 c43 0 50 -3 50 -20 0 -25 -9 -25 -26 -2 -13 16 -13 16 -14 0 0 -10 -7
-18 -16 -18 -9 0 -23 8 -30 18 -13 16 -13 16 -14 0 0 -26 -40 -24 -40 2 0 11
6 20 13 21 10 0 10 2 0 6 -15 6 -17 33 -3 33 6 0 10 5 10 10 0 6 -9 10 -20 10
-18 0 -20 -7 -20 -60 l0 -60 90 0 90 0 0 -35 0 -35 -125 0 -125 0 0 -90 0 -90
-60 0 -60 0 0 90 0 90 -60 0 -60 0 0 35 0 35 90 0 90 0 0 90 c0 83 1 90 20 90
25 0 26 -28 3 -46 -17 -12 -16 -13 4 -14 17 0 21 -4 16 -17 -4 -10 -14 -23
-22 -30 -14 -11 -12 -12 12 -13 l27 0 0 155 0 155 25 0 c33 0 34 -35 3 -45
l-23 -8 23 -4 c13 -3 22 -12 22 -23 0 -10 -10 -21 -22 -25 -22 -7 -22 -8 5
-12 20 -3 27 -9 23 -20 -3 -8 -6 -19 -6 -24 0 -5 -7 -9 -15 -9 -8 0 -15 -4
-15 -10 0 -5 11 -10 25 -10 20 0 25 -5 25 -27 l0 -27 20 22 c11 12 20 24 20
27 0 3 -9 5 -20 5 -19 0 -20 7 -20 155 l0 155 24 0 c19 0 23 -4 19 -20z m267
-184 c0 -19 -4 -23 -20 -19 -11 3 -20 14 -20 24 0 12 7 19 20 19 14 0 20 -7
20 -24z m-400 -60 c0 -15 -7 -26 -20 -29 -17 -4 -20 0 -20 24 0 22 5 29 20 29
14 0 20 -7 20 -24z m192 -21 c4 -17 1 -25 -8 -25 -8 0 -14 11 -14 25 0 14 4
25 9 25 5 0 11 -11 13 -25z m-2 -65 c0 -11 -4 -20 -10 -20 -5 0 -10 9 -10 20
0 11 5 20 10 20 6 0 10 -9 10 -20z m60 -50 c0 -7 -24 -20 -36 -20 -2 0 -4 9
-4 19 0 14 5 18 20 14 11 -3 20 -9 20 -13z m-60 0 c0 -5 -4 -10 -10 -10 -5 0
-10 5 -10 10 0 6 5 10 10 10 6 0 10 -4 10 -10z m-247 -50 c-6 -22 -42 -28 -44
-7 0 10 -2 10 -6 0 -2 -7 -15 -13 -28 -13 -13 0 -26 6 -28 13 -4 8 -8 9 -14 1
-4 -6 -16 -13 -25 -17 -14 -5 -18 -1 -18 18 0 25 1 25 84 25 79 0 84 -1 79
-20z m-183 -75 c0 -31 -3 -35 -25 -35 -22 0 -25 4 -25 35 0 31 3 35 25 35 22
0 25 -4 25 -35z m760 6 c0 -24 -3 -28 -20 -24 -13 3 -20 14 -20 29 0 17 6 24
20 24 15 0 20 -7 20 -29z m-200 -16 c0 -18 -5 -25 -19 -25 -14 0 -17 6 -13 25
2 14 11 25 18 25 8 0 14 -10 14 -25z m-497 -59 c6 -8 10 -7 14 2 8 19 40 14
46 -8 5 -18 0 -20 -49 -20 -51 0 -54 1 -54 25 0 19 4 23 18 18 9 -4 21 -11 25
-17z m462 -3 c10 23 35 22 35 -3 0 -19 -7 -20 -145 -20 -80 0 -145 2 -145 4 0
32 51 51 64 24 5 -10 7 -10 12 0 3 7 25 12 55 12 40 0 49 -3 49 -17 1 -16 2
-16 13 -2 20 26 41 28 48 5 6 -19 7 -19 14 -3z m-405 -51 c0 -2 -8 -11 -17
-18 -17 -13 -17 -13 0 -14 12 0 17 -8 17 -30 0 -22 -5 -30 -17 -30 -16 -1 -16
-2 -2 -13 8 -7 18 -22 21 -34 5 -19 2 -23 -18 -23 -24 0 -24 2 -24 89 0 84 1
89 20 84 11 -3 20 -8 20 -11z m210 -12 c0 -15 -7 -20 -25 -20 -18 0 -25 5 -25
20 0 15 7 20 25 20 18 0 25 -5 25 -20z m-130 -117 c0 -13 5 -23 10 -23 6 0 10
8 10 19 0 10 9 21 20 24 17 4 20 0 20 -24 0 -29 0 -29 -60 -29 -59 0 -60 1
-60 28 0 23 4 27 30 27 24 0 30 -4 30 -22z"/>
<path d="M560 830 c0 -15 7 -20 27 -20 l27 0 -22 20 c-12 11 -24 20 -27 20 -3
0 -5 -9 -5 -20z"/>
<path d="M520 820 c0 -5 7 -10 16 -10 8 0 12 5 9 10 -3 6 -10 10 -16 10 -5 0
-9 -4 -9 -10z"/>
<path d="M560 770 c0 -13 7 -20 20 -20 24 0 25 6 6 26 -20 19 -26 18 -26 -6z"/>
<path d="M575 680 c3 -5 10 -10 16 -10 5 0 9 5 9 10 0 6 -7 10 -16 10 -8 0
-12 -4 -9 -10z"/>
<path d="M390 510 c0 -5 7 -10 15 -10 8 0 15 5 15 10 0 6 -7 10 -15 10 -8 0
-15 -4 -15 -10z"/>
<path d="M710 450 c0 -5 5 -10 10 -10 6 0 10 5 10 10 0 6 -4 10 -10 10 -5 0
-10 -4 -10 -10z"/>
<path d="M398 433 c7 -3 16 -2 19 1 4 3 -2 6 -13 5 -11 0 -14 -3 -6 -6z"/>
<path d="M347 410 c-22 -26 -21 -30 3 -30 15 0 20 7 20 25 0 30 -1 30 -23 5z"/>
<path d="M398 383 c7 -3 16 -2 19 1 4 3 -2 6 -13 5 -11 0 -14 -3 -6 -6z"/>
<path d="M560 345 c0 -15 4 -24 10 -20 6 3 10 12 10 20 0 8 -4 17 -10 20 -6 4
-10 -5 -10 -20z"/>
<path d="M170 345 c0 -8 5 -15 10 -15 6 0 10 7 10 15 0 8 -4 15 -10 15 -5 0
-10 -7 -10 -15z"/>
<path d="M273 296 c20 -15 23 -36 5 -36 -7 0 0 -7 16 -15 33 -17 56 -19 56 -5
0 6 -9 10 -20 10 -16 0 -20 7 -20 30 0 26 -4 30 -27 30 -25 -1 -26 -2 -10 -14z"/>
<path d="M770 260 c0 -5 5 -10 10 -10 6 0 10 5 10 10 0 6 -4 10 -10 10 -5 0
-10 -4 -10 -10z"/>
<path d="M270 200 c0 -5 7 -10 15 -10 8 0 15 5 15 10 0 6 -7 10 -15 10 -8 0
-15 -4 -15 -10z"/>
<path d="M310 163 l0 -27 20 22 c11 12 20 24 20 27 0 3 -9 5 -20 5 -15 0 -20
-7 -20 -27z"/>
<path d="M770 180 c0 -5 5 -10 10 -10 6 0 10 5 10 10 0 6 -4 10 -10 10 -5 0
-10 -4 -10 -10z"/>
</g>
</svg>
