<?xml version="1.0" standalone="no"?>
<!DOCTYPE svg PUBLIC "-//W3C//DTD SVG 20010904//EN"
 "http://www.w3.org/TR/2001/REC-SVG-20010904/DTD/svg10.dtd">
<svg version="1.0" xmlns="http://www.w3.org/2000/svg"
 width="192.000000pt" height="192.000000pt" viewBox="0 0 192.000000 192.000000"
 preserveAspectRatio="xMidYMid meet">
<metadata>
Created by potrace 1.16, written by Peter Selinger 2001-2019
</metadata>
<g transform="translate(0.000000,192.000000) scale(0.100000,-0.100000)"
fill="#000000" stroke="none">
<path d="M930 1686 c-14 -8 -29 -12 -34 -9 -5 4 -6 1 -2 -5 4 -7 2 -12 -4 -12
-7 0 -10 -7 -6 -15 3 -8 2 -15 -2 -15 -11 0 -53 -85 -50 -101 2 -8 -4 -13 -13
-11 -12 2 -15 -6 -14 -30 2 -36 -48 -184 -72 -210 -8 -10 -13 -24 -10 -32 4
-9 0 -28 -8 -43 -8 -15 -15 -22 -15 -15 0 6 -9 12 -20 12 -11 0 -20 -5 -20
-11 0 -5 4 -7 10 -4 5 3 16 0 23 -6 11 -11 11 -18 0 -41 -17 -34 -23 -36 -17
-5 4 20 4 20 -6 -2 -6 -14 -8 -31 -5 -39 3 -7 -2 -23 -10 -35 -8 -12 -15 -28
-15 -37 0 -8 -7 -28 -15 -44 -8 -15 -15 -35 -15 -42 0 -8 -5 -14 -11 -14 -6 0
-8 -9 -4 -20 7 -22 -5 -26 -23 -8 -9 9 -12 8 -12 -6 0 -9 4 -15 9 -11 5 3 12
1 16 -5 3 -5 2 -10 -4 -10 -6 0 -8 -6 -5 -14 4 -11 -16 -14 -110 -15 -111 -2
-115 -1 -111 19 2 13 -1 20 -11 20 -9 0 -12 -5 -8 -12 5 -8 2 -9 -9 -5 -11 4
-17 1 -17 -9 0 -8 -15 -21 -34 -29 -45 -19 -64 -80 -45 -146 6 -24 13 -53 14
-63 1 -11 7 -21 14 -22 6 -1 7 0 1 3 -14 7 -2 23 16 23 8 0 12 -5 9 -10 -4 -7
3 -9 22 -5 21 5 24 4 13 -4 -11 -7 10 -9 75 -6 62 3 77 1 50 -4 l-40 -8 40 -2
c33 -1 37 -4 25 -14 -8 -7 -16 -26 -17 -44 -2 -34 -28 -93 -47 -105 -8 -5 -7
-8 2 -8 8 0 10 -5 6 -12 -10 -15 -12 -128 -2 -122 4 2 9 0 13 -6 3 -5 1 -10
-6 -10 -7 0 -9 -3 -6 -6 4 -4 14 -1 23 6 13 12 17 11 25 -1 5 -8 9 -10 9 -4 0
5 5 4 12 -3 17 -17 78 -15 122 3 20 8 36 18 36 21 0 3 -6 2 -12 -2 -7 -4 -2 4
12 18 14 15 30 32 35 40 6 7 17 22 25 33 14 17 13 18 -3 12 -15 -6 -16 -4 -6
15 9 16 13 18 20 7 5 -8 9 -9 9 -4 0 6 -5 16 -12 23 -9 9 -9 12 1 12 8 0 11 7
8 20 -3 11 -2 20 2 20 4 0 13 23 20 50 7 28 17 50 23 50 6 0 8 7 4 15 -5 13
14 15 134 15 76 0 151 -5 165 -10 18 -7 32 -7 43 0 15 10 14 10 -3 6 -11 -3
-27 -1 -35 5 -12 8 -11 9 5 5 11 -3 27 -1 35 4 13 9 13 10 0 10 -8 0 -2 7 14
15 15 8 38 15 51 15 19 0 21 4 16 28 -5 25 -6 25 -9 5 -2 -13 -10 -23 -18 -23
-11 0 -13 7 -8 28 4 15 12 30 18 34 7 5 3 8 -8 8 -20 0 -20 0 0 15 12 10 14
14 5 13 -8 -2 -22 12 -31 30 -9 18 -20 29 -25 25 -4 -4 -5 0 -1 11 5 15 2 17
-14 13 -11 -3 -17 -1 -14 4 3 6 -5 7 -20 3 -16 -4 -26 -2 -26 5 0 6 -5 11 -11
11 -5 0 -7 -4 -4 -10 4 -6 -25 -10 -79 -10 -54 0 -86 4 -86 11 0 5 5 7 10 4 6
-3 10 -2 10 4 0 5 12 12 28 14 23 4 22 4 -5 3 l-31 -2 15 41 c8 22 21 54 29
72 8 17 14 39 14 49 0 14 3 15 12 6 9 -9 9 -18 -1 -38 -6 -15 -10 -28 -8 -31
2 -2 10 11 17 28 10 24 11 36 2 50 -14 22 -15 32 -3 25 5 -3 11 9 14 27 12 82
22 100 57 102 16 1 23 -6 27 -26 3 -16 9 -26 14 -23 5 3 9 1 9 -5 0 -5 -4 -13
-10 -16 -5 -3 -10 -11 -10 -17 0 -6 6 -5 16 3 15 12 15 10 0 -25 -9 -22 -15
-41 -12 -43 2 -2 9 10 16 28 l13 31 19 -59 c10 -32 19 -66 20 -75 1 -10 5 -18
9 -18 4 0 9 -7 12 -14 4 -10 1 -13 -9 -9 -14 5 -14 3 -4 -14 9 -14 10 -25 3
-38 -12 -21 2 -75 20 -75 7 0 7 4 -1 12 -14 14 -16 57 -3 77 6 10 12 4 21 -23
6 -19 9 -40 5 -46 -3 -5 -1 -10 5 -10 7 0 6 -5 -2 -14 -7 -8 -17 -11 -23 -8
-5 2 -4 -1 3 -9 11 -12 14 -12 22 1 12 19 26 5 35 -33 6 -23 5 -26 -11 -22
-12 4 -11 1 4 -6 23 -13 30 -29 11 -29 -5 0 -7 -5 -4 -11 4 -6 10 -8 13 -4 10
10 59 -139 56 -172 -1 -18 2 -33 8 -33 5 0 7 10 4 23 -4 14 -1 11 9 -8 19 -41
20 -65 0 -39 -8 10 -15 14 -15 7 0 -13 27 -43 39 -43 12 0 33 -79 25 -92 -5
-8 -2 -9 9 -5 10 3 17 2 17 -2 0 -5 3 -18 6 -28 6 -17 6 -17 -8 1 -12 15 -17
16 -23 6 -5 -9 -4 -11 3 -6 7 4 12 3 12 -3 0 -6 10 -15 21 -22 17 -9 20 -8 13
3 -4 7 1 5 12 -4 23 -20 96 -34 121 -23 32 14 52 15 56 2 2 -6 3 -4 2 5 -2 9
3 25 11 35 7 10 14 28 14 41 0 12 5 22 10 22 12 0 13 33 1 45 -12 13 -34 84
-36 115 -1 14 -3 35 -3 48 -1 13 -7 20 -12 17 -7 -4 -6 -13 1 -26 6 -12 8 -23
6 -26 -8 -7 -21 39 -19 72 0 17 -2 22 -5 12 -4 -17 -6 -16 -18 6 -12 24 -28
78 -30 102 -1 6 -11 29 -23 53 -12 23 -20 42 -16 42 4 0 2 6 -4 13 -18 21 -41
98 -35 115 4 10 2 13 -5 8 -7 -4 -14 4 -18 21 -4 15 -20 61 -35 100 -16 40
-26 80 -22 89 4 11 3 15 -5 10 -9 -5 -22 17 -27 44 0 3 -6 15 -13 28 -7 12
-12 28 -11 35 1 6 -6 30 -16 52 -29 64 -32 78 -19 129 5 19 2 31 -7 37 -22 14
-36 10 -16 -5 21 -16 22 -43 2 -43 -8 0 -13 2 -11 5 3 2 -5 22 -16 44 -11 21
-21 57 -21 80 0 22 -3 34 -7 28 -6 -9 -11 -6 -19 9 -7 12 -10 25 -7 29 2 4 -3
16 -11 27 -15 19 -15 19 -9 -5 5 -24 5 -24 -6 2 -6 14 -22 31 -35 37 -33 15
-143 13 -173 -3z m181 -43 c23 -23 61 -112 170 -404 292 -779 319 -855 319
-892 0 -62 -51 -96 -128 -84 -51 9 -69 36 -124 184 -25 71 -71 196 -101 278
-99 271 -218 600 -223 615 -3 8 -22 -35 -44 -95 -21 -61 -65 -182 -97 -270
l-60 -160 129 -5 c127 -5 130 -6 154 -33 33 -39 33 -99 -1 -132 -13 -14 -32
-26 -42 -26 -10 -1 -85 -2 -168 -4 -117 -2 -150 -5 -153 -16 -2 -8 -26 -76
-54 -152 -59 -160 -81 -187 -154 -187 -34 0 -51 6 -69 25 -36 35 -32 84 15
212 22 59 40 112 40 117 0 4 -12 5 -26 2 -14 -4 -65 -4 -112 0 -102 8 -132 29
-132 89 0 87 36 105 212 105 l133 0 124 333 c159 426 175 464 203 494 32 35
56 43 111 39 38 -2 56 -10 78 -33z m-93 -410 c-11 -15 -11 -16 5 -10 12 5 17
3 15 -5 -7 -19 -25 -20 -32 -3 -3 9 -1 26 6 38 7 14 13 17 16 9 2 -7 -2 -20
-10 -29z m-578 -964 c0 -6 -4 -7 -10 -4 -5 3 -10 11 -10 16 0 6 5 7 10 4 6 -3
10 -11 10 -16z"/>
<path d="M1056 1615 c7 -18 14 -18 34 -4 13 9 12 10 -2 5 -10 -3 -18 -1 -18 4
0 6 -4 10 -10 10 -5 0 -7 -7 -4 -15z"/>
<path d="M1025 1610 c3 -5 8 -10 11 -10 2 0 4 5 4 10 0 6 -5 10 -11 10 -5 0
-7 -4 -4 -10z"/>
<path d="M932 1570 c0 -14 2 -19 5 -12 2 6 2 18 0 25 -3 6 -5 1 -5 -13z"/>
<path d="M940 1530 c0 -5 5 -10 11 -10 5 0 7 5 4 10 -3 6 -8 10 -11 10 -2 0
-4 -4 -4 -10z"/>
<path d="M1140 1481 c0 -7 -4 -9 -10 -6 -5 3 -10 -3 -10 -14 0 -12 4 -21 9
-21 10 0 23 41 16 49 -3 2 -5 -1 -5 -8z"/>
<path d="M865 1440 c3 -5 8 -10 11 -10 2 0 4 5 4 10 0 6 -5 10 -11 10 -5 0 -7
-4 -4 -10z"/>
<path d="M856 1384 c-8 -21 -8 -21 8 -21 8 0 11 8 8 19 -5 22 -8 23 -16 2z"/>
<path d="M963 1335 c0 -28 12 -25 20 5 3 12 0 20 -8 20 -7 0 -12 -11 -12 -25z"/>
<path d="M1206 1305 c-3 -9 -6 -24 -6 -33 1 -15 2 -15 11 1 6 10 15 14 22 10
7 -4 5 2 -3 13 -8 10 -15 20 -16 22 -1 2 -4 -4 -8 -13z"/>
<path d="M1088 1272 c7 -5 10 -16 6 -25 -3 -10 -1 -17 5 -17 6 0 11 4 11 9 0
5 3 16 6 25 5 12 0 16 -17 16 -16 0 -20 -3 -11 -8z"/>
<path d="M1240 1235 c0 -5 5 -17 10 -25 5 -8 10 -10 10 -5 0 6 -5 17 -10 25
-5 8 -10 11 -10 5z"/>
<path d="M780 1210 c-13 -8 -12 -10 3 -10 9 0 17 5 17 10 0 12 -1 12 -20 0z"/>
<path d="M1105 1211 c-3 -5 -2 -12 3 -15 5 -3 9 1 9 9 0 17 -3 19 -12 6z"/>
<path d="M1205 1210 c-3 -5 -1 -10 4 -10 6 0 11 5 11 10 0 6 -2 10 -4 10 -3 0
-8 -4 -11 -10z"/>
<path d="M791 1134 c0 -11 3 -14 6 -6 3 7 2 16 -1 19 -3 4 -6 -2 -5 -13z"/>
<path d="M896 1137 c3 -10 9 -15 12 -12 3 3 0 11 -7 18 -10 9 -11 8 -5 -6z"/>
<path d="M886 1107 c3 -10 9 -15 12 -12 3 3 0 11 -7 18 -10 9 -11 8 -5 -6z"/>
<path d="M1145 1110 c3 -5 8 -10 11 -10 2 0 4 5 4 10 0 6 -5 10 -11 10 -5 0
-7 -4 -4 -10z"/>
<path d="M1181 1113 c0 -5 4 -17 9 -28 8 -18 9 -17 9 8 1 15 -3 27 -9 27 -5 0
-10 -3 -9 -7z"/>
<path d="M1294 1098 c3 -10 1 -20 -4 -23 -6 -4 -10 -11 -10 -16 0 -6 7 -3 16
5 12 12 13 20 4 33 -10 16 -11 16 -6 1z"/>
<path d="M1176 1041 c-19 -7 -19 -8 0 -13 13 -3 21 0 21 8 0 8 -1 14 -1 13 -1
0 -10 -4 -20 -8z"/>
<path d="M1180 991 c0 -6 4 -13 10 -16 6 -3 7 1 4 9 -7 18 -14 21 -14 7z"/>
<path d="M695 971 c-3 -5 -1 -12 5 -16 5 -3 10 1 10 9 0 18 -6 21 -15 7z"/>
<path d="M810 925 c0 -8 4 -15 10 -15 5 0 7 7 4 15 -4 8 -8 15 -10 15 -2 0 -4
-7 -4 -15z"/>
<path d="M712 905 c0 -16 2 -22 5 -12 2 9 2 23 0 30 -3 6 -5 -1 -5 -18z"/>
<path d="M800 884 c0 -8 5 -12 10 -9 6 4 8 11 5 16 -9 14 -15 11 -15 -7z"/>
<path d="M1257 863 c3 -7 9 -10 14 -7 14 8 11 21 -5 21 -8 0 -12 -6 -9 -14z"/>
<path d="M1265 820 c3 -5 8 -10 11 -10 2 0 4 5 4 10 0 6 -5 10 -11 10 -5 0 -7
-4 -4 -10z"/>
<path d="M1250 796 c0 -2 7 -6 15 -10 8 -3 15 -1 15 4 0 6 -7 10 -15 10 -8 0
-15 -2 -15 -4z"/>
<path d="M290 754 c0 -5 7 -18 15 -28 8 -11 15 -16 15 -10 0 5 -7 18 -15 28
-8 11 -15 16 -15 10z"/>
<path d="M1075 730 c-3 -6 1 -7 9 -4 18 7 21 14 7 14 -6 0 -13 -4 -16 -10z"/>
<path d="M1070 695 c-7 -9 -8 -15 -2 -15 5 0 12 7 16 15 3 8 4 15 2 15 -2 0
-9 -7 -16 -15z"/>
<path d="M1040 664 c0 -8 5 -12 10 -9 6 4 8 11 5 16 -9 14 -15 11 -15 -7z"/>
<path d="M1457 666 c4 -11 2 -17 -3 -13 -5 3 -10 -6 -11 -21 0 -15 1 -19 4 -9
2 9 8 15 13 12 16 -10 19 12 5 31 -15 19 -15 19 -8 0z"/>
<path d="M1340 630 c0 -5 5 -10 10 -10 6 0 10 5 10 10 0 6 -4 10 -10 10 -5 0
-10 -4 -10 -10z"/>
<path d="M544 599 c0 -10 4 -19 8 -19 4 0 8 6 8 14 0 8 -4 17 -8 20 -4 2 -8
-4 -8 -15z"/>
<path d="M1447 580 c-3 -11 -1 -20 4 -20 5 0 9 2 9 4 0 2 3 11 6 20 3 9 2 16
-4 16 -5 0 -12 -9 -15 -20z"/>
<path d="M546 534 c-4 -14 -5 -28 -3 -31 3 -2 8 8 11 23 4 14 5 28 3 31 -3 2
-8 -8 -11 -23z"/>
<path d="M1390 460 c0 -5 5 -10 11 -10 5 0 7 5 4 10 -3 6 -8 10 -11 10 -2 0
-4 -4 -4 -10z"/>
<path d="M1530 451 c0 -6 4 -13 10 -16 6 -3 7 1 4 9 -7 18 -14 21 -14 7z"/>
<path d="M1397 407 c-3 -8 1 -14 8 -14 7 0 11 6 8 14 -3 7 -6 13 -8 13 -2 0
-5 -6 -8 -13z"/>
<path d="M1410 361 c0 -6 4 -13 10 -16 6 -3 7 1 4 9 -7 18 -14 21 -14 7z"/>
<path d="M537 313 c-10 -10 -8 -23 4 -23 5 0 8 4 5 9 -4 5 0 12 6 14 7 3 8 6
2 6 -6 1 -14 -2 -17 -6z"/>
<path d="M570 311 c0 -6 4 -13 10 -16 6 -3 7 1 4 9 -7 18 -14 21 -14 7z"/>
<path d="M1525 310 c3 -5 8 -10 11 -10 2 0 4 5 4 10 0 6 -5 10 -11 10 -5 0 -7
-4 -4 -10z"/>
<path d="M1180 1665 c-7 -9 -8 -15 -2 -15 5 0 12 7 16 15 3 8 4 15 2 15 -2 0
-9 -7 -16 -15z"/>
<path d="M1185 1629 c-4 -6 -5 -12 -2 -15 2 -3 7 2 10 11 7 17 1 20 -8 4z"/>
<path d="M811 1574 c0 -11 3 -14 6 -6 3 7 2 16 -1 19 -3 4 -6 -2 -5 -13z"/>
<path d="M1248 1513 c7 -3 16 -2 19 1 4 3 -2 6 -13 5 -11 0 -14 -3 -6 -6z"/>
<path d="M1266 1395 c4 -8 8 -15 10 -15 2 0 4 7 4 15 0 8 -4 15 -10 15 -5 0
-7 -7 -4 -15z"/>
<path d="M730 1356 c0 -2 7 -6 15 -10 8 -3 15 -1 15 4 0 6 -7 10 -15 10 -8 0
-15 -2 -15 -4z"/>
<path d="M730 1319 c0 -5 5 -7 10 -4 6 3 10 8 10 11 0 2 -4 4 -10 4 -5 0 -10
-5 -10 -11z"/>
<path d="M1325 1259 c-10 -30 -2 -32 12 -3 6 13 7 24 3 24 -5 0 -12 -9 -15
-21z"/>
<path d="M1338 1212 c-3 -11 -2 -25 2 -32 5 -8 9 -5 12 8 3 11 2 25 -2 32 -5
8 -9 5 -12 -8z"/>
<path d="M997 1163 c-12 -12 -7 -22 8 -17 8 4 15 10 15 15 0 11 -14 12 -23 2z"/>
<path d="M1075 1050 c-3 -5 -1 -10 4 -10 6 0 11 5 11 10 0 6 -2 10 -4 10 -3 0
-8 -4 -11 -10z"/>
<path d="M1411 1014 c0 -11 3 -14 6 -6 3 7 2 16 -1 19 -3 4 -6 -2 -5 -13z"/>
<path d="M572 940 c0 -14 2 -19 5 -12 2 6 2 18 0 25 -3 6 -5 1 -5 -13z"/>
<path d="M1065 870 l-20 -9 20 0 c11 0 29 4 40 9 l20 9 -20 0 c-11 0 -29 -4
-40 -9z"/>
<path d="M261 844 c-12 -14 -11 -16 4 -12 10 1 20 9 23 16 5 17 -10 15 -27 -4z"/>
<path d="M385 850 c-3 -5 -1 -10 4 -10 6 0 11 5 11 10 0 6 -2 10 -4 10 -3 0
-8 -4 -11 -10z"/>
<path d="M1150 851 c0 -5 5 -13 10 -16 6 -3 10 -2 10 4 0 5 -4 13 -10 16 -5 3
-10 2 -10 -4z"/>
<path d="M1472 849 c2 -7 10 -15 17 -17 8 -3 12 1 9 9 -2 7 -10 15 -17 17 -8
3 -12 -1 -9 -9z"/>
<path d="M433 843 c9 -2 25 -2 35 0 9 3 1 5 -18 5 -19 0 -27 -2 -17 -5z"/>
<path d="M503 843 c9 -2 23 -2 30 0 6 3 -1 5 -18 5 -16 0 -22 -2 -12 -5z"/>
<path d="M1487 804 c-8 -8 14 -54 26 -54 5 0 3 7 -4 17 -11 13 -11 17 -1 20 6
3 10 9 6 14 -6 10 -18 12 -27 3z"/>
<path d="M1191 764 c0 -11 3 -14 6 -6 3 7 2 16 -1 19 -3 4 -6 -2 -5 -13z"/>
<path d="M1585 610 c3 -5 8 -10 11 -10 2 0 4 5 4 10 0 6 -5 10 -11 10 -5 0 -7
-4 -4 -10z"/>
<path d="M370 570 c-8 -5 -10 -10 -5 -10 6 0 17 5 25 10 8 5 11 10 5 10 -5 0
-17 -5 -25 -10z"/>
<path d="M777 566 c-2 -6 -1 -22 2 -36 5 -25 5 -25 11 5 5 27 10 31 50 36 l45
7 -52 -1 c-29 0 -54 -5 -56 -11z"/>
<path d="M913 573 c9 -2 25 -2 35 0 9 3 1 5 -18 5 -19 0 -27 -2 -17 -5z"/>
<path d="M413 545 c-9 -24 1 -27 15 -5 8 13 8 20 2 20 -6 0 -13 -7 -17 -15z"/>
<path d="M756 531 c-4 -7 -5 -15 -2 -18 9 -9 19 4 14 18 -4 11 -6 11 -12 0z"/>
<path d="M401 498 c-1 -9 4 -20 9 -23 6 -4 8 -16 5 -28 -5 -19 -4 -19 9 3 18
29 21 64 5 55 -6 -4 -8 -13 -5 -21 3 -8 3 -14 0 -14 -2 0 -9 10 -14 23 -6 16
-9 17 -9 5z"/>
<path d="M711 334 c0 -11 3 -14 6 -6 3 7 2 16 -1 19 -3 4 -6 -2 -5 -13z"/>
<path d="M1367 249 c7 -7 15 -10 18 -7 3 3 -2 9 -12 12 -14 6 -15 5 -6 -5z"/>
</g>
</svg>
