<?xml version="1.0" standalone="no"?>
<!DOCTYPE svg PUBLIC "-//W3C//DTD SVG 20010904//EN"
 "http://www.w3.org/TR/2001/REC-SVG-20010904/DTD/svg10.dtd">
<svg version="1.0" xmlns="http://www.w3.org/2000/svg"
 width="100.000000pt" height="100.000000pt" viewBox="0 0 100.000000 100.000000"
 preserveAspectRatio="xMidYMid meet">
<metadata>
Created by potrace 1.16, written by Peter Selinger 2001-2019
</metadata>
<g transform="translate(0.000000,100.000000) scale(0.100000,-0.100000)"
fill="#000000" stroke="none">
<path d="M440 955 c0 -33 -4 -45 -15 -45 -10 0 -15 -11 -15 -35 0 -28 -4 -35
-20 -35 -18 0 -20 -7 -20 -60 0 -47 -3 -60 -15 -60 -10 0 -15 -10 -15 -30 0
-20 -5 -30 -15 -30 -10 0 -15 -11 -15 -35 0 -24 -5 -35 -15 -35 -12 0 -15 -13
-15 -60 0 -47 -3 -60 -15 -60 -8 0 -15 -7 -15 -15 0 -12 -17 -15 -95 -15 -78
0 -95 -3 -95 -15 0 -10 -10 -15 -30 -15 -19 0 -30 -5 -30 -14 0 -18 71 -12 82
7 6 12 24 14 85 10 73 -5 80 -4 105 20 22 21 28 35 29 77 2 39 7 53 22 61 14
8 18 18 15 40 -3 20 0 29 9 29 8 0 13 12 13 30 0 20 5 30 15 30 9 0 15 9 15
25 0 14 5 25 10 25 6 0 10 7 10 15 0 8 -4 15 -10 15 -5 0 -10 9 -10 21 0 16 4
19 20 14 18 -6 20 -2 21 37 0 33 2 38 9 23 8 -19 11 -18 14 7 0 7 10 14 20 16
14 3 17 0 13 -12 -4 -9 -2 -16 3 -16 6 0 10 9 10 20 0 14 -7 20 -21 20 -17 0
-20 4 -15 23 6 27 -3 67 -15 67 -5 0 -9 -20 -9 -45z"/>
<path d="M600 975 c0 -19 5 -25 23 -26 12 0 16 -3 10 -6 -22 -8 -14 -23 11
-23 22 0 24 -3 20 -52 -1 -29 0 -45 2 -35 10 33 31 19 29 -20 -4 -65 -4 -66
-25 -60 -11 3 -20 2 -20 -3 0 -14 36 -17 48 -3 20 21 32 6 32 -38 0 -28 4 -39
15 -39 12 0 14 -11 11 -56 -4 -51 -2 -55 15 -51 10 3 16 1 13 -4 -9 -15 6 -49
22 -49 9 0 14 -10 14 -29 0 -16 6 -31 15 -35 18 -7 20 -62 3 -69 -10 -4 -10
-6 0 -6 6 -1 12 -12 12 -26 0 -18 5 -25 20 -25 11 0 20 -7 20 -15 0 -8 7 -15
15 -15 14 0 21 -31 9 -42 -14 -15 -44 6 -44 30 0 14 -3 23 -6 19 -4 -3 -3 -22
0 -42 6 -29 11 -35 31 -35 16 0 25 -6 25 -16 0 -8 -4 -12 -10 -9 -14 9 -13 -8
2 -23 9 -9 8 -17 -2 -37 -7 -14 -10 -28 -7 -32 4 -3 7 1 7 9 0 9 8 18 18 20
12 4 17 -1 17 -19 0 -15 -6 -23 -17 -23 -10 0 -18 -7 -18 -15 0 -18 12 -19 28
-3 9 9 12 9 12 -4 0 -8 -14 -20 -32 -26 -18 -5 -25 -10 -15 -11 9 -1 17 -8 17
-16 0 -8 5 -15 10 -15 6 0 10 7 10 15 0 8 7 15 15 15 12 0 15 14 15 65 0 51
-3 65 -15 65 -12 0 -15 15 -15 75 0 60 -3 75 -15 75 -8 0 -15 7 -15 15 0 8 -9
15 -20 15 -18 0 -20 7 -20 65 0 51 -3 65 -15 65 -10 0 -15 10 -15 30 0 20 -5
30 -15 30 -10 0 -15 10 -15 30 0 20 -5 30 -15 30 -11 0 -15 12 -15 50 0 38 -4
50 -15 50 -11 0 -15 12 -15 45 0 33 -4 45 -15 45 -11 0 -15 12 -15 45 0 33 -4
45 -15 45 -10 0 -15 11 -15 35 0 24 -5 35 -15 35 -8 0 -15 7 -15 15 0 8 -9 15
-20 15 -11 0 -20 7 -20 15 0 8 -4 15 -10 15 -5 0 -10 -11 -10 -25z"/>
<path d="M677 980 c3 -11 7 -20 9 -20 2 0 4 9 4 20 0 11 -4 20 -9 20 -5 0 -7
-9 -4 -20z"/>
<path d="M370 959 c0 -5 5 -7 10 -4 6 3 10 8 10 11 0 2 -4 4 -10 4 -5 0 -10
-5 -10 -11z"/>
<path d="M491 954 c0 -11 3 -14 6 -6 3 7 2 16 -1 19 -3 4 -6 -2 -5 -13z"/>
<path d="M713 930 c0 -25 2 -35 4 -22 2 12 2 32 0 45 -2 12 -4 2 -4 -23z"/>
<path d="M343 905 c0 -22 2 -30 4 -17 2 12 2 30 0 40 -3 9 -5 -1 -4 -23z"/>
<path d="M370 900 c0 -24 5 -40 12 -40 6 0 9 2 6 6 -3 3 -2 21 2 40 6 26 5 34
-6 34 -10 0 -14 -12 -14 -40z"/>
<path d="M743 835 c0 -22 2 -30 4 -17 2 12 2 30 0 40 -3 9 -5 -1 -4 -23z"/>
<path d="M773 790 c0 -47 2 -66 4 -42 2 23 2 61 0 85 -2 23 -4 4 -4 -43z"/>
<path d="M342 815 c0 -16 2 -22 5 -12 2 9 2 23 0 30 -3 6 -5 -1 -5 -18z"/>
<path d="M440 825 c0 -8 7 -15 15 -15 8 0 15 7 15 15 0 8 -7 15 -15 15 -8 0
-15 -7 -15 -15z"/>
<path d="M620 797 c0 -8 14 -14 35 -15 26 -2 35 1 35 13 0 18 -26 20 -33 3 -4
-10 -6 -10 -6 0 -1 16 -31 16 -31 -1z"/>
<path d="M436 777 c3 -10 9 -15 12 -12 3 3 0 11 -7 18 -10 9 -11 8 -5 -6z"/>
<path d="M282 725 c0 -16 2 -22 5 -12 2 9 2 23 0 30 -3 6 -5 -1 -5 -18z"/>
<path d="M312 713 c1 -37 1 -37 5 -6 3 19 11 34 21 36 12 3 10 5 -5 6 -20 1
-23 -3 -21 -36z"/>
<path d="M840 705 c0 -9 6 -12 15 -9 8 4 15 10 15 15 0 5 -7 9 -15 9 -8 0 -15
-7 -15 -15z"/>
<path d="M803 650 c0 -25 2 -35 4 -22 2 12 2 32 0 45 -2 12 -4 2 -4 -23z"/>
<path d="M371 618 c-1 -55 -2 -58 -26 -58 -14 0 -25 -4 -25 -10 0 -5 4 -10 9
-10 5 0 16 -2 24 -6 24 -9 42 49 30 99 l-11 42 -1 -57z"/>
<path d="M282 635 c0 -16 2 -22 5 -12 2 9 2 23 0 30 -3 6 -5 -1 -5 -18z"/>
<path d="M842 653 c10 -2 18 -17 21 -36 4 -31 4 -31 5 6 2 33 -1 37 -20 36
-16 -1 -18 -3 -6 -6z"/>
<path d="M251 614 c0 -11 3 -14 6 -6 3 7 2 16 -1 19 -3 4 -6 -2 -5 -13z"/>
<path d="M504 595 c5 -27 3 -37 -9 -41 -9 -4 -15 -18 -15 -35 0 -18 -5 -29
-14 -29 -15 0 -27 -42 -17 -58 8 -13 108 -23 154 -15 34 5 37 8 37 38 0 20 -6
35 -15 39 -11 4 -14 19 -13 54 2 35 -3 54 -14 66 -19 18 -38 21 -38 6 0 -5 -7
-10 -15 -10 -8 0 -15 5 -15 10 0 6 -7 10 -16 10 -13 0 -15 -7 -10 -35z m86
-65 c0 -47 3 -60 15 -60 8 0 15 -7 15 -15 0 -12 -15 -15 -75 -15 -60 0 -75 3
-75 15 0 8 7 15 15 15 10 0 15 10 15 30 0 20 5 30 15 30 10 0 15 10 15 30 0
27 3 30 30 30 l30 0 0 -60z"/>
<path d="M560 521 c0 -5 -10 -12 -22 -14 -20 -4 -19 -4 5 -6 18 -1 27 4 27 14
0 8 -2 15 -5 15 -3 0 -5 -4 -5 -9z"/>
<path d="M621 614 c0 -11 3 -14 6 -6 3 7 2 16 -1 19 -3 4 -6 -2 -5 -13z"/>
<path d="M831 614 c0 -11 3 -14 6 -6 3 7 2 16 -1 19 -3 4 -6 -2 -5 -13z"/>
<path d="M223 535 c0 -33 2 -45 4 -27 2 18 2 45 0 60 -2 15 -4 0 -4 -33z"/>
<path d="M253 540 c0 -30 2 -43 4 -27 2 15 2 39 0 55 -2 15 -4 2 -4 -28z"/>
<path d="M832 570 c0 -14 2 -19 5 -12 2 6 2 18 0 25 -3 6 -5 1 -5 -13z"/>
<path d="M858 525 c2 -19 6 -35 8 -35 2 0 4 16 4 35 0 19 -4 35 -8 35 -4 0 -6
-16 -4 -35z"/>
<path d="M892 495 c0 -36 4 -68 9 -71 5 -3 9 27 9 65 0 39 -4 71 -9 71 -5 0
-9 -29 -9 -65z"/>
<path d="M620 521 c0 -12 5 -21 10 -21 6 0 10 6 10 14 0 8 -4 18 -10 21 -5 3
-10 -3 -10 -14z"/>
<path d="M310 515 c0 -8 7 -15 15 -15 8 0 15 7 15 15 0 8 -7 15 -15 15 -8 0
-15 -7 -15 -15z"/>
<path d="M370 485 c0 -8 9 -15 20 -15 11 0 20 7 20 15 0 8 -9 15 -20 15 -11 0
-20 -7 -20 -15z"/>
<path d="M758 493 c7 -3 16 -2 19 1 4 3 -2 6 -13 5 -11 0 -14 -3 -6 -6z"/>
<path d="M53 463 c32 -2 81 -2 110 0 29 2 3 3 -58 3 -61 0 -84 -1 -52 -3z"/>
<path d="M340 455 c0 -8 7 -15 15 -15 8 0 15 7 15 15 0 8 -7 15 -15 15 -8 0
-15 -7 -15 -15z"/>
<path d="M742 439 c-10 -15 -11 -24 -3 -32 8 -8 11 -5 11 11 0 13 6 22 15 22
10 0 15 -10 15 -30 0 -20 5 -30 15 -30 8 0 15 7 15 15 0 8 -4 15 -9 15 -5 0
-12 11 -15 25 -8 31 -27 32 -44 4z"/>
<path d="M410 429 c0 -17 -5 -20 -24 -17 -19 4 -22 1 -18 -14 3 -12 -1 -18
-12 -18 -11 0 -16 9 -16 27 0 26 -1 26 -15 7 -21 -27 -19 -32 16 -39 23 -5 34
-3 40 8 5 8 20 18 34 21 28 7 34 31 10 40 -10 4 -15 -1 -15 -15z"/>
<path d="M7 433 c7 -2 19 -2 26 0 6 3 1 5 -13 5 -14 0 -19 -2 -13 -5z"/>
<path d="M280 422 c0 -7 -7 -12 -15 -12 -8 0 -15 -7 -15 -15 0 -23 27 -18 33
7 4 12 4 24 2 27 -3 2 -5 -1 -5 -7z"/>
<path d="M90 395 c0 -8 -7 -15 -15 -15 -8 0 -15 -9 -15 -20 0 -11 -7 -20 -15
-20 -8 0 -15 -7 -15 -15 0 -8 5 -15 10 -15 6 0 13 7 16 15 4 8 12 15 20 15 8
0 14 -7 14 -15 0 -27 35 -16 48 14 11 25 20 31 55 34 39 3 39 4 -10 5 -40 2
-53 6 -53 17 0 8 -9 15 -20 15 -11 0 -20 -7 -20 -15z m40 -35 c0 -13 -7 -20
-20 -20 -13 0 -20 7 -20 20 0 13 7 20 20 20 13 0 20 -7 20 -20z"/>
<path d="M453 404 c9 -9 77 -11 77 -2 0 5 -19 8 -42 8 -23 0 -39 -3 -35 -6z"/>
<path d="M590 395 c0 -8 7 -15 15 -15 8 0 15 7 15 15 0 8 -7 15 -15 15 -8 0
-15 -7 -15 -15z"/>
<path d="M661 389 c0 -15 -7 -29 -15 -32 -9 -4 -12 -14 -9 -25 3 -14 -1 -22
-16 -27 -12 -3 -21 -13 -21 -21 0 -11 -21 -14 -105 -14 l-105 0 0 -33 c0 -21
-7 -36 -20 -45 -11 -7 -20 -19 -20 -27 0 -8 -7 -15 -15 -15 -16 0 -31 -42 -21
-58 3 -6 -3 -8 -14 -5 -23 6 -27 43 -5 43 8 0 15 5 15 10 0 21 -29 9 -50 -20
-21 -29 -21 -30 -2 -30 20 0 32 -25 32 -67 0 -13 5 -23 10 -23 6 0 10 13 10
30 0 20 5 30 15 30 10 0 15 11 15 35 0 24 5 35 15 35 8 0 15 7 15 15 0 8 9 15
20 15 17 0 20 7 20 45 l0 45 105 0 c87 0 105 3 105 15 0 8 9 15 20 15 16 0 20
7 20 30 0 20 5 30 15 30 12 0 15 -13 15 -60 0 -47 3 -60 15 -60 10 0 15 -10
15 -30 0 -20 5 -30 15 -30 11 0 15 -12 15 -50 0 -38 4 -50 15 -50 10 0 15 -10
15 -30 0 -17 5 -30 10 -30 19 0 14 71 -6 83 -9 5 -14 25 -14 52 0 33 -4 45
-15 45 -10 0 -15 10 -15 30 0 18 -5 30 -13 30 -9 0 -13 12 -13 35 1 27 5 35
18 35 14 0 18 8 18 35 0 24 -5 35 -15 35 -8 0 -15 -9 -15 -20 0 -11 5 -20 11
-20 5 0 7 -4 4 -10 -10 -17 -25 -11 -25 10 0 13 -7 20 -19 20 -14 0 -21 8 -24
28 l-4 27 -2 -26z"/>
<path d="M895 400 c3 -5 8 -10 11 -10 2 0 4 5 4 10 0 6 -5 10 -11 10 -5 0 -7
-4 -4 -10z"/>
<path d="M925 400 c3 -5 8 -10 11 -10 2 0 4 5 4 10 0 6 -5 10 -11 10 -5 0 -7
-4 -4 -10z"/>
<path d="M558 373 c7 -3 16 -2 19 1 4 3 -2 6 -13 5 -11 0 -14 -3 -6 -6z"/>
<path d="M890 370 c0 -5 5 -10 10 -10 6 0 10 5 10 10 0 6 -4 10 -10 10 -5 0
-10 -4 -10 -10z"/>
<path d="M921 373 c0 -5 4 -17 9 -28 8 -18 9 -17 9 8 1 15 -3 27 -9 27 -5 0
-10 -3 -9 -7z"/>
<path d="M612 330 c0 -14 2 -19 5 -12 2 6 2 18 0 25 -3 6 -5 1 -5 -13z"/>
<path d="M962 310 c0 -19 2 -27 5 -17 2 9 2 25 0 35 -3 9 -5 1 -5 -18z"/>
<path d="M0 290 c0 -5 7 -10 15 -10 8 0 15 -7 15 -15 0 -12 14 -15 65 -15 l65
0 0 -45 c0 -33 -4 -45 -15 -45 -11 0 -15 -12 -15 -50 0 -38 4 -50 15 -50 10 0
15 -10 15 -30 0 -17 5 -30 10 -30 6 0 10 18 10 40 0 22 -4 40 -10 40 -13 0
-13 57 0 65 6 3 10 33 10 66 l0 59 -65 0 c-51 0 -65 3 -65 15 0 9 -9 15 -25
15 -14 0 -25 -4 -25 -10z"/>
<path d="M208 253 c-25 -6 -22 -30 4 -36 12 -4 24 -4 27 -2 2 3 -1 5 -7 5 -7
0 -12 7 -12 16 0 11 6 15 20 11 11 -3 18 -1 14 4 -5 9 -17 10 -46 2z"/>
<path d="M648 253 c7 -3 16 -2 19 1 4 3 -2 6 -13 5 -11 0 -14 -3 -6 -6z"/>
<path d="M962 230 c0 -14 2 -19 5 -12 2 6 2 18 0 25 -3 6 -5 1 -5 -13z"/>
<path d="M18 223 c12 -2 32 -2 45 0 12 2 2 4 -23 4 -25 0 -35 -2 -22 -4z"/>
<path d="M132 205 c0 -16 2 -22 5 -12 2 9 2 23 0 30 -3 6 -5 -1 -5 -18z"/>
<path d="M433 195 c0 -22 2 -30 4 -17 2 12 2 30 0 40 -3 9 -5 -1 -4 -23z"/>
<path d="M457 210 c-3 -11 -1 -20 4 -20 5 0 9 9 9 20 0 11 -2 20 -4 20 -2 0
-6 -9 -9 -20z"/>
<path d="M523 223 c26 -2 67 -2 90 0 23 2 2 3 -48 3 -49 0 -68 -1 -42 -3z"/>
<path d="M660 182 c0 -29 4 -52 9 -52 8 0 3 90 -5 99 -2 2 -4 -19 -4 -47z"/>
<path d="M90 106 c0 -64 4 -106 10 -106 6 0 10 40 10 99 0 56 -4 103 -10 106
-6 4 -10 -32 -10 -99z"/>
<path d="M598 193 c7 -3 16 -2 19 1 4 3 -2 6 -13 5 -11 0 -14 -3 -6 -6z"/>
<path d="M690 165 c0 -19 4 -35 8 -35 4 0 6 16 4 35 -2 19 -6 35 -8 35 -2 0
-4 -16 -4 -35z"/>
<path d="M190 177 c0 -9 12 -14 30 -15 20 0 30 4 30 14 0 9 -11 14 -30 14 -18
0 -30 -5 -30 -13z"/>
<path d="M960 186 c0 -2 9 -6 20 -9 11 -3 20 -1 20 4 0 5 -9 9 -20 9 -11 0
-20 -2 -20 -4z"/>
<path d="M605 170 c-3 -5 -1 -10 4 -10 6 0 11 5 11 10 0 6 -2 10 -4 10 -3 0
-8 -4 -11 -10z"/>
<path d="M466 145 c-4 -10 1 -15 14 -15 11 0 20 7 20 15 0 8 -6 15 -14 15 -8
0 -16 -7 -20 -15z"/>
<path d="M190 120 c0 -19 5 -30 14 -30 18 0 17 32 -1 49 -10 9 -13 6 -13 -19z"/>
<path d="M425 140 c-3 -5 -1 -10 4 -10 6 0 11 5 11 10 0 6 -2 10 -4 10 -3 0
-8 -4 -11 -10z"/>
<path d="M810 105 c0 -18 4 -23 15 -19 8 4 15 15 15 25 0 10 -7 19 -15 19 -9
0 -15 -9 -15 -25z"/>
<path d="M862 110 c0 -14 2 -19 5 -12 2 6 2 18 0 25 -3 6 -5 1 -5 -13z"/>
<path d="M396 111 c-4 -7 -5 -15 -2 -18 9 -9 19 4 14 18 -4 11 -6 11 -12 0z"/>
<path d="M362 85 c0 -16 2 -22 5 -12 2 9 2 23 0 30 -3 6 -5 -1 -5 -18z"/>
<path d="M690 100 c0 -5 5 -10 11 -10 5 0 7 5 4 10 -3 6 -8 10 -11 10 -2 0 -4
-4 -4 -10z"/>
<path d="M723 40 c0 -25 2 -35 4 -22 2 12 2 32 0 45 -2 12 -4 2 -4 -23z"/>
<path d="M250 45 c0 -8 7 -15 15 -15 8 0 15 7 15 15 0 8 -7 15 -15 15 -8 0
-15 -7 -15 -15z"/>
<path d="M810 45 c0 -8 7 -15 15 -15 8 0 15 7 15 15 0 8 -7 15 -15 15 -8 0
-15 -7 -15 -15z"/>
<path d="M205 40 c-3 -5 -1 -10 4 -10 6 0 11 5 11 10 0 6 -2 10 -4 10 -3 0 -8
-4 -11 -10z"/>
<path d="M132 20 c0 -14 2 -19 5 -12 2 6 2 18 0 25 -3 6 -5 1 -5 -13z"/>
<path d="M362 20 c0 -14 2 -19 5 -12 2 6 2 18 0 25 -3 6 -5 1 -5 -13z"/>
<path d="M752 20 c0 -14 2 -19 5 -12 2 6 2 18 0 25 -3 6 -5 1 -5 -13z"/>
<path d="M258 3 c7 -3 16 -2 19 1 4 3 -2 6 -13 5 -11 0 -14 -3 -6 -6z"/>
</g>
</svg>
