<?xml version="1.0" standalone="no"?>
<!DOCTYPE svg PUBLIC "-//W3C//DTD SVG 20010904//EN"
 "http://www.w3.org/TR/2001/REC-SVG-20010904/DTD/svg10.dtd">
<svg version="1.0" xmlns="http://www.w3.org/2000/svg"
 width="256.000000pt" height="256.000000pt" viewBox="0 0 256.000000 256.000000"
 preserveAspectRatio="xMidYMid meet">
<metadata>
Created by potrace 1.16, written by Peter Selinger 2001-2019
</metadata>
<g transform="translate(0.000000,256.000000) scale(0.100000,-0.100000)"
fill="#000000" stroke="none">
<path d="M419 2373 l-36 -4 -18 -107 c-9 -59 -24 -143 -32 -187 -9 -44 -18
-93 -21 -109 l-5 -29 154 7 c369 16 477 17 626 6 208 -15 269 -24 385 -61 116
-37 190 -85 236 -154 17 -27 32 -53 32 -56 0 -3 -37 -7 -82 -8 -46 -1 -153
-10 -238 -21 -85 -10 -186 -21 -225 -25 -70 -6 -307 -46 -400 -66 -347 -77
-622 -227 -730 -399 -20 -32 -65 -146 -65 -165 0 -3 6 -5 14 -5 7 0 16 14 20
30 38 193 294 384 646 484 143 40 397 88 535 101 39 4 142 15 229 26 88 10
195 19 238 19 l78 0 0 28 c0 41 -58 122 -118 163 -58 41 -208 93 -312 108
-209 31 -484 36 -882 15 l-117 -7 10 34 c5 19 18 90 29 159 11 69 23 142 26
162 l6 37 74 6 c40 4 250 5 466 2 301 -4 412 -9 473 -21 44 -9 109 -20 145
-26 142 -23 368 -113 469 -188 115 -85 212 -208 254 -322 10 -25 26 -94 37
-154 18 -100 20 -154 20 -605 0 -273 -3 -553 -6 -622 l-7 -125 -161 -13 c-89
-8 -334 -16 -546 -18 -400 -5 -552 5 -820 52 -361 63 -638 221 -735 421 -19
39 -35 79 -35 88 0 9 -7 16 -15 16 -21 0 -12 -36 31 -125 95 -198 374 -358
734 -420 271 -47 418 -57 840 -52 223 2 477 10 566 17 l161 14 7 125 c3 69 6
358 6 642 0 471 -2 525 -20 625 -11 60 -27 129 -37 154 -42 114 -139 237 -254
322 -101 75 -327 165 -469 188 -36 6 -101 17 -145 26 -65 13 -167 17 -530 19
-247 1 -466 1 -486 -2z"/>
<path d="M1575 1285 c-55 -8 -154 -19 -220 -25 -347 -33 -610 -110 -723 -213
-48 -44 -52 -164 -8 -229 78 -116 348 -185 789 -203 92 -4 212 -4 267 0 l100
7 0 339 0 339 -52 -1 c-29 -1 -98 -7 -153 -14z m185 -325 l0 -320 -52 -1
c-610 -15 -995 62 -1075 215 -21 41 -21 118 1 150 9 15 40 42 69 60 135 86
367 147 672 176 66 6 165 17 220 25 55 7 115 13 133 14 l32 1 0 -320z"/>
</g>
</svg>
