<?xml version="1.0" standalone="no"?>
<!DOCTYPE svg PUBLIC "-//W3C//DTD SVG 20010904//EN"
 "http://www.w3.org/TR/2001/REC-SVG-20010904/DTD/svg10.dtd">
<svg version="1.0" xmlns="http://www.w3.org/2000/svg"
 width="256.000000pt" height="256.000000pt" viewBox="0 0 256.000000 256.000000"
 preserveAspectRatio="xMidYMid meet">
<metadata>
Created by potrace 1.16, written by Peter Selinger 2001-2019
</metadata>
<g transform="translate(0.000000,256.000000) scale(0.100000,-0.100000)"
fill="#000000" stroke="none">
<path d="M1190 2220 c20 -13 200 -13 200 0 0 6 -42 10 -107 10 -74 0 -103 -3
-93 -10z"/>
<path d="M1088 2208 c8 -8 17 -8 34 0 22 10 21 11 -11 11 -27 1 -32 -2 -23
-11z"/>
<path d="M1420 2210 c20 -13 70 -13 70 0 0 6 -19 10 -42 10 -32 0 -39 -3 -28
-10z"/>
<path d="M925 2194 c-33 -8 -73 -18 -90 -23 -117 -34 -155 -47 -155 -53 0 -5
-9 -8 -19 -8 -11 0 -23 -4 -26 -10 -3 -5 -13 -10 -22 -10 -26 0 -132 -54 -132
-67 -1 -18 -4 -18 90 30 46 24 101 47 121 51 20 4 38 11 40 16 2 5 20 12 42
14 21 3 44 10 51 16 6 5 14 7 17 5 3 -3 18 0 34 6 16 6 46 13 67 15 44 4 117
23 117 29 0 10 -76 3 -135 -11z"/>
<path d="M1525 2195 c17 -7 59 -16 93 -19 35 -2 70 -10 77 -16 7 -6 24 -13 37
-14 13 -2 32 -7 43 -11 45 -18 170 -65 172 -65 2 0 3 6 3 14 0 14 -49 36 -81
36 -11 0 -19 4 -19 9 0 5 -15 12 -32 16 -18 4 -46 11 -63 16 -64 20 -204 49
-231 48 l-29 -1 30 -13z"/>
<path d="M5 1775 c0 -236 1 -332 2 -212 2 120 2 314 0 430 -1 117 -2 19 -2
-218z"/>
<path d="M1080 2185 c-242 -30 -491 -116 -657 -228 -38 -25 -59 -33 -78 -29
-17 3 -30 0 -35 -9 -15 -23 0 -29 28 -12 15 9 9 1 -13 -17 -61 -51 -141 -138
-182 -197 -24 -35 -43 -53 -57 -53 -34 0 -47 -44 -51 -170 l-4 -115 14 60 c34
149 94 255 214 376 135 136 293 230 500 299 413 137 823 114 1207 -69 134 -64
211 -117 312 -215 160 -155 231 -300 240 -487 5 -128 -12 -222 -62 -325 -130
-271 -453 -488 -854 -575 -69 -14 -149 -22 -277 -26 -156 -5 -197 -2 -310 17
-432 73 -776 293 -917 585 -21 44 -45 110 -52 145 l-14 65 0 -103 c1 -57 5
-105 11 -109 6 -4 7 8 3 33 l-6 39 18 -41 c152 -357 590 -616 1106 -653 l111
-8 -82 -2 c-48 0 -83 -5 -83 -11 0 -6 63 -10 170 -10 107 0 170 4 170 10 0 6
-37 11 -87 12 -57 1 -69 3 -33 5 290 16 554 91 761 216 42 25 64 33 88 29 24
-3 31 -1 31 12 0 9 8 16 19 16 10 0 21 6 24 14 10 25 -6 26 -37 3 -35 -27 -67
-45 -51 -30 37 34 105 83 105 74 0 -22 37 -10 68 22 31 32 46 86 20 71 -7 -4
-2 6 12 22 40 47 45 51 27 22 -17 -28 -11 -43 12 -28 9 5 12 18 8 36 -3 19 1
38 14 55 35 50 79 153 95 227 26 117 16 282 -25 391 -107 290 -410 524 -811
626 -204 52 -405 65 -610 40z m-996 -587 c-9 -17 -22 -47 -29 -67 -10 -26 -14
-30 -14 -15 -1 12 11 42 25 68 29 52 43 63 18 14z m2266 -821 c0 -2 -17 -19
-37 -38 l-38 -34 34 38 c33 34 41 42 41 34z"/>
<path d="M1190 2094 c-178 -47 -326 -263 -386 -562 -9 -45 -14 -89 -11 -96 7
-17 88 -48 217 -84 87 -24 110 -27 270 -26 157 1 185 3 272 27 53 15 121 38
152 51 66 29 66 32 37 167 -51 230 -175 430 -308 497 -40 20 -129 42 -166 41
-12 0 -47 -7 -77 -15z m205 -33 c99 -45 200 -160 260 -296 32 -71 70 -203 80
-271 l7 -51 -67 -27 c-103 -41 -219 -66 -340 -73 -110 -6 -263 8 -308 28 -20
8 -19 9 6 4 59 -12 137 -16 137 -8 0 7 -120 36 -209 50 -43 7 -34 -13 10 -22
17 -4 28 -9 25 -12 -5 -5 -152 41 -174 55 -29 19 40 268 111 394 44 79 136
183 181 204 l31 14 -25 -17 c-51 -36 -95 -82 -87 -90 5 -4 19 4 32 20 13 15
31 27 40 27 8 0 15 5 15 10 0 6 7 10 15 10 8 0 15 5 15 10 0 6 9 10 19 10 11
0 23 5 26 10 3 6 22 10 41 10 24 0 34 4 31 13 -4 12 -27 12 -57 0 -22 -8 -63
-13 -56 -6 3 3 27 12 53 19 57 16 132 10 188 -15z"/>
<path d="M1290 2062 c0 -5 23 -13 51 -17 29 -4 59 -15 70 -26 10 -10 23 -19
29 -19 5 0 14 -9 20 -20 6 -11 20 -20 30 -20 13 0 20 -7 20 -20 0 -11 4 -20 9
-20 5 0 17 -7 25 -16 25 -25 19 6 -7 38 -32 39 -109 98 -129 98 -9 0 -18 4
-20 10 -4 14 -98 26 -98 12z"/>
<path d="M998 1918 c-18 -28 -29 -70 -17 -62 5 3 9 12 9 20 0 8 7 14 15 14 9
0 15 9 15 25 0 31 -4 31 -22 3z"/>
<path d="M1568 1868 c7 -7 12 -20 12 -30 0 -12 7 -18 21 -18 l20 0 -21 30
c-12 17 -26 30 -33 30 -8 0 -8 -3 1 -12z"/>
<path d="M907 1751 c-46 -98 -79 -223 -68 -254 8 -20 9 -19 15 13 13 66 57
215 73 245 24 47 33 75 25 75 -5 0 -25 -36 -45 -79z"/>
<path d="M1200 1804 c0 -12 5 -13 23 -7 12 4 43 7 70 6 27 -1 45 2 42 8 -4 5
-35 9 -71 9 -51 0 -64 -3 -64 -16z"/>
<path d="M1364 1786 c11 -9 27 -16 35 -16 21 0 2 16 -29 24 -24 7 -24 6 -6 -8z"/>
<path d="M1195 1774 c-66 -34 -101 -84 -115 -163 l-9 -46 1 45 c1 25 5 50 8
55 11 16 18 65 9 59 -5 -3 -9 -11 -9 -19 0 -7 -6 -15 -12 -17 -9 -3 -13 -30
-13 -88 0 -58 4 -85 13 -87 6 -3 12 -11 12 -18 0 -8 5 -17 11 -21 8 -5 10 0 6
17 -17 63 -17 71 1 34 20 -43 68 -89 102 -100 11 -4 18 -11 14 -16 -3 -6 -10
-6 -17 -1 -12 9 -57 23 -57 17 0 -2 18 -12 40 -24 48 -25 142 -28 180 -6 l25
14 -26 1 c-14 0 -39 -5 -56 -10 -19 -7 -38 -7 -54 -1 -21 9 -19 10 19 10 47 1
106 22 135 49 65 59 76 187 23 257 -51 67 -162 95 -231 59z m166 -33 c97 -61
107 -183 22 -263 -76 -72 -189 -59 -248 30 -35 53 -41 94 -21 146 41 107 153
147 247 87z"/>
<path d="M1627 1757 c3 -12 8 -31 13 -42 29 -71 51 -150 56 -202 l7 -60 -74
-22 c-41 -11 -87 -25 -104 -30 -16 -5 -56 -13 -87 -16 -32 -4 -58 -12 -58 -17
0 -12 91 -4 119 11 12 7 26 9 31 6 5 -3 25 1 45 10 19 10 60 25 92 35 50 15
58 21 57 42 -3 49 -14 101 -25 114 -6 7 -8 17 -5 23 8 13 -45 159 -60 165 -8
3 -10 -3 -7 -17z"/>
<path d="M1471 1668 c0 -7 4 -22 9 -33 8 -18 9 -17 9 7 1 15 -3 30 -9 33 -5 3
-10 0 -9 -7z"/>
<path d="M1472 1557 c-7 -16 -12 -31 -12 -34 0 -3 -11 -21 -25 -39 -28 -36
-34 -65 -9 -40 8 9 20 16 25 16 5 0 9 9 9 19 0 11 7 27 16 35 9 9 14 27 12 43
l-4 28 -12 -28z"/>
<path d="M855 1441 c36 -25 45 -26 45 -6 0 8 -9 15 -19 15 -11 0 -28 3 -38 6
-10 3 -4 -3 12 -15z"/>
<path d="M1205 1360 c11 -5 43 -9 70 -9 28 0 59 4 70 9 13 6 -11 9 -70 9 -59
0 -83 -3 -70 -9z"/>
<path d="M835 2054 c-113 -31 -236 -84 -345 -147 -158 -92 -350 -317 -350
-410 0 -69 217 -157 350 -142 68 8 153 31 200 55 34 17 36 22 49 97 32 194
131 414 225 502 14 14 26 35 26 48 0 19 -5 23 -32 22 -18 0 -73 -12 -123 -25z
m112 -26 c-17 -18 -52 -67 -79 -108 -26 -41 -48 -70 -48 -64 0 5 5 15 12 22 9
9 7 12 -10 12 -15 0 -22 -6 -22 -20 0 -11 -4 -20 -10 -20 -5 0 -10 -10 -10
-22 0 -12 -6 -29 -13 -37 -19 -24 -57 -152 -78 -265 -7 -37 -19 -70 -26 -73
-7 -3 -13 -9 -13 -13 0 -5 11 -3 25 3 24 12 30 29 26 75 -1 13 3 29 8 36 6 7
12 26 13 42 1 16 5 34 10 40 5 7 11 29 14 50 2 22 9 40 14 42 5 2 12 19 16 38
3 19 10 34 15 34 5 0 9 6 9 14 0 8 5 18 11 21 5 4 2 -10 -7 -32 -31 -71 -72
-211 -84 -287 l-13 -75 -46 -19 c-57 -25 -120 -42 -146 -41 -32 1 38 22 93 28
6 0 12 6 12 11 0 13 -33 13 -64 -1 -19 -9 -29 -9 -39 -1 -12 10 -57 6 -57 -6
0 -2 8 -11 17 -18 17 -12 17 -13 0 -20 -54 -20 -244 44 -297 101 l-24 25 28
57 c66 136 219 283 374 362 51 26 55 21 6 -8 -20 -12 -34 -24 -31 -27 8 -8 77
16 77 27 0 5 8 9 19 9 10 0 29 9 43 19 13 11 41 22 61 26 23 5 37 13 37 22 0
10 -6 12 -22 7 -13 -4 -25 -10 -28 -14 -6 -8 -103 -40 -108 -36 -13 13 278
110 306 103 12 -3 11 -5 -5 -6 -12 0 -34 -6 -50 -13 -30 -12 -38 -14 -65 -16
-10 -1 -18 -7 -18 -13 0 -12 21 -9 93 9 27 7 37 7 37 -2 0 -6 9 0 19 14 11 13
17 28 15 32 -3 4 4 8 14 8 18 0 16 -4 -11 -32z"/>
<path d="M867 1980 c-8 -30 9 -33 27 -5 16 24 15 25 -3 25 -10 0 -21 -9 -24
-20z"/>
<path d="M842 1938 c-7 -7 -12 -16 -12 -21 0 -5 7 -1 16 8 9 9 14 18 12 20 -2
3 -10 -1 -16 -7z"/>
<path d="M469 1857 c-55 -39 -109 -84 -109 -91 0 -3 9 -6 20 -6 20 0 44 32 33
44 -3 3 6 6 20 6 15 0 27 5 27 10 0 6 7 10 15 10 8 0 15 5 15 10 0 6 7 10 15
10 8 0 15 9 15 20 0 24 4 25 -51 -13z"/>
<path d="M406 1733 c-3 -4 -17 -8 -29 -10 -12 -2 -24 -8 -26 -14 -1 -5 -11
-18 -20 -27 -36 -35 -53 -89 -45 -148 3 -30 13 -61 20 -69 16 -15 19 -35 6
-35 -17 0 -72 32 -72 41 0 5 -11 9 -25 9 l-25 0 20 50 c11 28 20 56 20 62 0
20 -26 -10 -45 -52 -17 -37 -17 -41 -1 -58 19 -22 117 -73 149 -79 12 -2 37
-6 55 -9 19 -4 32 -2 32 4 0 12 -24 22 -58 23 -24 0 -25 1 -7 9 18 7 18 9 3
15 -25 10 -57 84 -54 125 3 59 24 93 76 129 42 29 55 33 90 28 23 -3 38 -1 34
4 -6 11 -87 12 -98 2z"/>
<path d="M524 1716 c3 -19 39 -55 49 -49 6 3 7 1 3 -5 -4 -7 -4 -18 1 -24 4
-7 8 -31 9 -53 2 -37 1 -36 -12 15 -17 73 -57 110 -117 110 -86 0 -137 -58
-137 -156 0 -50 3 -59 34 -90 30 -30 40 -34 85 -34 42 0 56 5 86 31 19 17 38
42 41 55 3 13 10 22 14 19 5 -3 6 -15 3 -28 -5 -18 -3 -20 8 -9 21 20 18 120
-5 168 -19 38 -66 76 -62 50z m-11 -47 c35 -27 52 -89 37 -134 -27 -83 -124
-113 -181 -56 -25 25 -29 37 -29 81 0 47 4 56 39 91 45 46 92 52 134 18z"/>
<path d="M285 1696 c-6 -8 -20 -28 -33 -45 -23 -31 -23 -31 -3 -31 14 0 21 6
21 19 0 11 9 23 20 26 11 3 20 15 20 26 0 22 -11 25 -25 5z"/>
<path d="M534 1445 c-18 -14 -18 -14 4 -8 12 3 22 9 22 14 0 12 -3 11 -26 -6z"/>
<path d="M1570 2054 c0 -16 17 -45 45 -77 85 -98 171 -295 200 -461 16 -93 26
-104 129 -137 142 -46 308 -23 419 57 55 40 60 69 26 137 -114 225 -369 404
-693 487 -108 27 -126 27 -126 -6z m294 -72 c153 -62 248 -124 361 -237 75
-75 110 -119 139 -173 45 -87 44 -90 -62 -145 -77 -40 -172 -61 -240 -52 -69
10 -152 34 -152 45 0 6 5 10 10 10 6 0 10 -4 10 -9 0 -17 106 -35 142 -25 l33
10 -43 21 c-32 16 -42 17 -42 7 0 -8 -5 -14 -11 -14 -24 0 -99 23 -99 31 0 4
-9 11 -20 14 -14 4 -20 15 -20 36 0 16 -5 29 -10 29 -6 0 -10 -16 -8 -36 1
-25 9 -41 25 -52 13 -8 22 -17 19 -19 -2 -3 -16 3 -30 12 -18 12 -26 26 -26
47 0 44 -36 182 -72 273 -36 92 -91 187 -148 255 -22 26 -40 50 -40 53 0 10
192 -44 284 -81z"/>
<path d="M1610 2043 c1 -5 12 -21 25 -38 23 -28 25 -29 25 -8 0 21 2 21 33 9
17 -8 51 -17 75 -21 23 -4 42 -10 42 -15 0 -4 11 -10 25 -12 16 -4 25 -1 25 8
0 7 -15 15 -32 19 -18 4 -48 13 -67 22 -19 9 -46 16 -60 18 -14 1 -39 7 -54
13 -33 14 -37 14 -37 5z"/>
<path d="M1670 1985 c0 -5 5 -17 10 -25 5 -8 10 -10 10 -5 0 6 -5 17 -10 25
-5 8 -10 11 -10 5z"/>
<path d="M1911 1936 c11 -9 89 -46 89 -41 0 9 -64 45 -79 45 -8 0 -12 -2 -10
-4z"/>
<path d="M1710 1923 c5 -2 10 -13 10 -24 0 -10 4 -19 10 -19 13 0 -4 43 -19
46 -6 1 -7 0 -1 -3z"/>
<path d="M2046 1872 c-7 -11 6 -27 26 -35 28 -10 30 9 3 27 -13 9 -26 12 -29
8z"/>
<path d="M2117 1810 c19 -22 26 -21 17 4 -3 9 -12 16 -20 16 -11 0 -10 -4 3
-20z"/>
<path d="M1765 1800 c3 -5 11 -10 16 -10 6 0 7 5 4 10 -3 6 -11 10 -16 10 -6
0 -7 -4 -4 -10z"/>
<path d="M2170 1772 c0 -4 20 -28 45 -52 29 -29 45 -39 45 -28 0 9 -18 32 -40
52 -41 37 -50 42 -50 28z"/>
<path d="M1790 1748 c0 -7 5 -20 10 -28 8 -12 10 -11 10 7 0 12 -4 25 -10 28
-5 3 -10 0 -10 -7z"/>
<path d="M2046 1731 c-3 -5 11 -8 32 -8 20 1 47 -2 60 -6 17 -6 22 -5 22 7 0
13 -12 16 -54 16 -30 0 -57 -4 -60 -9z"/>
<path d="M1988 1691 c-19 -19 -25 -46 -8 -36 6 4 8 11 5 16 -4 5 1 9 9 9 9 0
16 7 16 15 0 18 -1 18 -22 -4z"/>
<path d="M2028 1687 c-36 -31 -48 -58 -48 -112 0 -91 51 -145 136 -145 45 0
57 4 83 31 17 17 31 37 31 45 0 11 6 13 20 9 18 -6 20 -2 20 45 0 42 -21 110
-34 110 -2 0 0 -19 5 -42 4 -24 8 -56 7 -73 0 -21 -3 -15 -8 18 -5 27 -16 59
-25 73 -41 63 -136 84 -187 41z m130 -17 c41 -25 66 -81 58 -129 -8 -49 -51
-91 -93 -91 -74 0 -123 52 -123 131 0 33 6 47 34 75 40 40 75 44 124 14z"/>
<path d="M1814 1666 c3 -21 9 -43 15 -50 5 -6 12 -26 16 -44 4 -18 9 -32 11
-29 7 7 -23 138 -35 150 -9 9 -10 1 -7 -27z"/>
<path d="M2270 1665 c0 -18 5 -25 20 -25 20 0 20 1 4 25 -9 14 -18 25 -20 25
-2 0 -4 -11 -4 -25z"/>
<path d="M1957 1633 c-4 -3 -7 -18 -6 -32 1 -26 1 -25 10 3 9 31 7 41 -4 29z"/>
<path d="M2330 1580 c0 -8 7 -28 16 -45 10 -19 11 -31 5 -33 -6 -2 -11 -9 -11
-15 0 -7 -22 -20 -50 -30 -27 -10 -50 -22 -50 -27 0 -13 -37 -13 -44 -1 -8 12
-66 -16 -66 -31 0 -19 89 -1 153 31 94 47 97 51 87 96 -9 40 -40 83 -40 55z"/>
<path d="M1950 1532 c0 -22 5 -32 16 -32 11 0 14 6 9 23 -12 38 -25 43 -25 9z"/>
<path d="M2218 1459 c-19 -11 -24 -29 -8 -29 5 0 14 9 20 20 12 23 12 23 -12
9z"/>
<path d="M2040 2032 c0 -4 27 -24 60 -45 54 -33 60 -35 60 -17 0 13 -7 20 -20
20 -10 0 -23 6 -27 13 -9 15 -73 40 -73 29z"/>
<path d="M433 2003 c-13 -2 -23 -9 -23 -14 0 -5 -7 -9 -15 -9 -8 0 -15 -9 -15
-20 0 -19 2 -19 40 6 22 15 40 31 40 35 0 5 -1 8 -2 8 -2 -1 -13 -4 -25 -6z"/>
<path d="M2185 1941 c-5 -9 93 -86 101 -79 11 12 -10 38 -32 38 -13 0 -23 3
-23 8 3 20 -3 30 -21 35 -11 3 -22 2 -25 -2z"/>
<path d="M221 1839 c-45 -56 -31 -61 26 -9 27 24 50 45 52 47 2 2 -7 3 -21 3
-17 0 -35 -13 -57 -41z"/>
<path d="M2350 1794 c0 -13 74 -103 81 -99 14 9 -4 45 -22 45 -13 0 -19 7 -19
24 0 13 -7 27 -16 30 -20 8 -24 8 -24 0z"/>
<path d="M143 1753 c-7 -3 -13 -10 -13 -16 0 -7 -9 -23 -20 -37 -23 -29 -27
-48 -5 -26 8 8 15 20 15 26 0 6 4 9 9 6 5 -3 16 5 25 19 16 24 11 36 -11 28z"/>
<path d="M2440 1686 c0 -4 7 -14 15 -22 8 -9 15 -11 15 -6 0 5 -7 15 -15 22
-8 7 -15 9 -15 6z"/>
<path d="M2473 1618 c3 -7 13 -33 23 -58 10 -25 20 -47 24 -50 10 -8 31 -90
26 -99 -3 -4 -1 -21 4 -37 8 -27 8 -26 9 14 1 48 -29 172 -41 172 -4 0 -8 9
-8 19 0 31 -11 51 -27 51 -8 0 -13 -6 -10 -12z"/>
<path d="M96 1354 c-10 -27 -7 -109 9 -189 27 -141 154 -355 211 -355 l24 0 0
234 0 233 -45 13 c-25 7 -71 28 -102 46 -61 37 -88 42 -97 18z m94 -42 c48
-30 49 -34 3 -15 -7 3 -13 -2 -13 -11 0 -9 12 -18 28 -22 15 -3 41 -13 59 -22
32 -16 51 -13 38 7 -3 6 -17 11 -31 11 -13 0 -24 5 -24 10 0 12 0 12 38 -1 41
-14 44 -30 40 -258 -3 -153 -6 -185 -18 -189 -8 -3 -12 -1 -8 3 4 4 -9 27 -30
50 -95 109 -151 246 -159 393 -5 80 -4 94 8 86 8 -4 39 -24 69 -42z"/>
<path d="M131 1314 c0 -11 3 -14 6 -6 3 7 2 16 -1 19 -3 4 -6 -2 -5 -13z"/>
<path d="M130 1218 c0 -13 5 -30 10 -38 7 -11 10 -5 10 23 0 20 -4 37 -10 37
-5 0 -10 -10 -10 -22z"/>
<path d="M150 1133 c0 -17 12 -55 27 -85 15 -29 27 -55 26 -58 -1 -3 7 -17 18
-30 l19 -25 0 28 c0 15 -4 27 -10 27 -10 0 -50 76 -50 96 0 6 -7 27 -15 45
l-14 34 -1 -32z"/>
<path d="M2377 1348 c-16 -11 -59 -33 -95 -48 l-67 -27 -3 -231 -2 -232 24 0
c48 0 156 155 196 281 18 56 24 98 24 174 1 100 1 100 -24 102 -14 2 -38 -7
-53 -19z m63 -65 c0 -76 -19 -165 -49 -236 -17 -38 -25 -47 -46 -47 -21 0 -25
-5 -25 -27 l0 -28 21 25 21 25 -20 -35 c-26 -44 -94 -129 -104 -130 -5 0 -8
96 -8 214 l0 213 58 22 c31 11 75 32 97 46 22 13 43 25 48 25 4 0 7 -30 7 -67z"/>
<path d="M2367 1303 c-32 -21 -53 -39 -47 -41 6 -2 16 0 23 6 7 5 24 12 40 16
26 6 27 5 28 -31 0 -35 1 -36 10 -13 6 13 9 41 7 62 l-3 38 -58 -37z"/>
<path d="M2244 1251 c-2 -2 -4 -94 -4 -205 0 -152 3 -197 12 -188 8 8 11 66 9
197 -2 159 0 185 13 185 8 0 17 4 20 9 6 9 -41 10 -50 2z"/>
<path d="M2391 1151 c-6 -30 -15 -59 -20 -65 -5 -6 -10 -23 -13 -38 -7 -39 19
-24 27 15 4 18 13 46 21 64 9 21 11 39 5 55 -7 20 -10 16 -20 -31z"/>
<path d="M2280 915 c0 -14 2 -25 4 -25 2 0 11 11 20 25 16 24 16 25 -4 25 -15
0 -20 -7 -20 -25z"/>
<path d="M6 1324 c-9 -22 -8 -24 9 -24 8 0 15 9 15 20 0 24 -15 27 -24 4z"/>
<path d="M787 1313 c-20 -20 6 -254 44 -393 11 -41 42 -120 69 -175 38 -79 63
-116 115 -168 54 -55 72 -68 94 -65 l26 3 3 362 2 363 -22 4 c-140 29 -189 41
-236 57 -58 20 -84 23 -95 12z m257 -75 l76 -12 0 -348 c0 -266 -3 -348 -12
-348 -25 0 -144 136 -180 206 -43 81 -99 241 -97 275 1 21 2 21 6 4 14 -64 47
-165 54 -165 4 0 11 -15 14 -32 8 -42 70 -155 81 -148 12 6 5 33 -11 42 -7 4
-16 20 -20 35 -3 16 -14 39 -23 53 -19 28 -68 191 -78 257 -7 51 -24 57 -25
11 l-1 -33 -9 35 c-5 19 -12 80 -15 136 l-7 101 85 -28 c47 -16 120 -34 162
-41z"/>
<path d="M810 1278 c0 -13 61 -35 145 -53 28 -6 29 -5 10 8 -11 8 -45 22 -75
32 -30 10 -61 20 -67 23 -7 2 -13 -2 -13 -10z"/>
<path d="M995 1219 c3 -4 26 -11 50 -15 l45 -6 0 -324 c0 -178 3 -324 8 -324
7 0 6 659 -1 667 -8 8 -107 10 -102 2z"/>
<path d="M818 1184 c-6 -6 7 -62 17 -72 3 -3 5 13 5 36 0 39 -8 51 -22 36z"/>
<path d="M1690 1309 c-46 -19 -205 -59 -232 -59 -17 0 -31 -8 -38 -19 -11 -21
-15 -677 -4 -705 26 -69 178 80 255 249 56 125 99 328 99 473 l0 72 -27 -1
c-16 0 -39 -5 -53 -10z m57 -106 c-14 -253 -97 -477 -224 -608 -101 -103 -93
-127 -93 277 l0 353 74 12 c59 10 136 32 245 72 2 0 1 -47 -2 -106z"/>
<path d="M1708 1283 c-10 -2 -18 -9 -18 -14 0 -5 -9 -9 -19 -9 -27 0 -193 -40
-211 -51 -44 -25 132 4 213 36 20 8 40 15 42 15 3 0 5 -19 6 -42 0 -33 2 -38
9 -23 11 25 13 95 3 94 -5 -1 -16 -3 -25 -6z"/>
<path d="M1710 1136 c0 -53 -34 -196 -70 -291 -21 -58 -27 -85 -19 -85 5 0 9
7 9 15 0 8 4 15 8 15 8 0 45 93 47 120 0 8 4 20 8 26 22 36 46 224 28 224 -6
0 -11 -11 -11 -24z"/>
<path d="M1573 710 c-6 -16 -7 -30 -3 -30 5 0 18 14 30 30 20 28 20 30 3 30
-11 0 -23 -12 -30 -30z"/>
<path d="M1517 639 c-9 -6 -17 -17 -17 -24 0 -8 -6 -15 -12 -15 -7 0 -21 -12
-31 -25 -38 -53 27 -17 76 42 20 23 11 37 -16 22z"/>
<path d="M615 1290 c-27 -10 -62 -21 -78 -25 l-27 -5 2 -308 3 -307 80 -42
c90 -48 265 -108 343 -119 49 -6 52 -5 52 15 0 11 -22 49 -50 83 -127 158
-210 407 -222 668 -3 51 -5 55 -28 57 -14 0 -47 -7 -75 -17z m83 -62 l-2 -63
-3 53 c-2 28 -6 52 -9 52 -3 0 -35 -8 -70 -17 l-64 -17 0 -288 0 -287 30 -16
c17 -9 30 -18 30 -20 0 -3 -18 4 -40 15 l-40 20 0 291 c0 223 3 290 13 293 6
2 39 12 72 23 88 30 85 31 83 -39z m-9 -73 c16 5 19 -3 25 -64 18 -177 117
-423 215 -533 28 -31 51 -59 51 -61 0 -16 -283 75 -340 109 l-25 15 25 -7 c14
-3 48 -17 76 -30 28 -13 73 -28 100 -35 27 -6 64 -15 82 -21 19 -5 36 -7 40
-4 3 4 -4 9 -16 13 -12 3 -22 8 -22 12 0 3 -10 7 -22 8 -52 5 -98 16 -98 23 0
4 -17 11 -37 15 -21 4 -49 15 -64 26 -15 10 -34 19 -43 19 -9 0 -16 4 -16 9 0
5 -13 14 -30 20 l-30 10 0 270 c0 251 1 271 18 272 9 0 33 6 52 12 l35 12 3
-48 c3 -41 6 -47 21 -42z"/>
<path d="M680 1109 c1 -64 57 -299 71 -299 5 0 9 -11 9 -24 0 -13 7 -29 15
-36 12 -10 15 -10 15 3 0 16 -30 101 -50 142 -6 11 -12 36 -15 55 -7 54 -33
171 -39 178 -3 3 -6 -6 -6 -19z"/>
<path d="M823 655 c6 -19 14 -35 19 -35 4 0 8 -7 8 -15 0 -8 9 -15 20 -15 19
0 17 4 -12 50 -39 58 -50 63 -35 15z"/>
<path d="M1836 1294 c-3 -9 -6 -43 -6 -77 0 -151 -60 -378 -133 -510 -21 -37
-60 -94 -88 -127 -77 -93 -65 -113 54 -85 109 27 196 59 291 106 l86 42 0 309
c0 238 -3 309 -12 312 -7 2 -45 13 -84 25 -84 25 -100 26 -108 5z m36 -25 c-2
-13 -1 -21 3 -17 4 4 17 1 29 -7 11 -8 32 -15 46 -15 24 1 24 1 6 15 -11 8
-30 15 -43 15 -13 0 -23 5 -23 11 0 7 7 8 18 4 9 -3 38 -11 65 -17 l47 -11 0
-294 0 -293 -41 -21 c-23 -11 -38 -16 -35 -11 3 5 19 15 36 22 l30 12 0 290
c0 200 -3 289 -11 286 -7 -2 -10 -93 -9 -279 l1 -276 -31 -13 c-16 -7 -30 -16
-30 -21 0 -5 -7 -9 -16 -9 -9 0 -28 -8 -42 -19 -15 -10 -43 -22 -62 -26 -19
-4 -57 -16 -83 -26 -49 -19 -82 -25 -61 -11 15 10 25 40 14 47 -9 5 -34 -30
-35 -49 0 -5 -7 -10 -17 -12 -11 -1 -5 13 23 50 108 141 186 375 196 589 4 79
10 116 17 114 6 -2 9 -15 8 -28z m3 -679 c-73 -35 -233 -83 -257 -76 -10 2
-18 0 -18 -5 0 -5 -8 -9 -17 -9 -37 0 5 21 49 25 25 2 54 8 64 13 11 5 41 15
69 21 27 7 52 16 55 20 5 8 88 39 105 39 6 0 -17 -13 -50 -28z"/>
<path d="M1866 1193 c-3 -16 -8 -62 -11 -103 -6 -73 -26 -165 -45 -205 -5 -11
-19 -45 -30 -75 -12 -30 -32 -74 -45 -97 -21 -39 -22 -43 -6 -43 19 0 51 57
51 90 0 11 5 20 10 20 6 0 10 11 10 24 0 13 4 26 8 28 14 5 62 224 69 309 6
77 0 106 -11 52z"/>
<path d="M1710 655 c-1 -5 -2 -13 -1 -17 0 -5 -3 -8 -9 -8 -5 0 -10 -5 -10
-12 0 -8 6 -7 16 4 9 9 14 22 11 30 -3 7 -6 9 -7 3z"/>
<path d="M2 1249 c2 -6 8 -10 13 -10 5 0 11 4 13 10 2 6 -4 11 -13 11 -9 0
-15 -5 -13 -11z"/>
<path d="M5 790 c0 -239 1 -337 2 -218 2 120 2 316 0 435 -1 120 -2 22 -2
-217z"/>
<path d="M2542 1150 c-8 -36 -27 -99 -43 -140 -16 -41 -29 -80 -29 -87 0 -6
-6 -14 -12 -16 -10 -4 -10 -6 0 -6 7 -1 19 17 28 39 9 22 20 40 25 40 5 0 9
11 9 25 0 14 4 25 9 25 14 0 33 98 29 145 -3 39 -3 38 -16 -25z"/>
<path d="M76 918 c4 -13 10 -25 13 -28 4 -3 17 -18 29 -34 12 -16 22 -24 22
-18 0 6 -7 17 -15 26 -9 8 -14 19 -13 23 4 13 -22 53 -33 53 -6 0 -7 -9 -3
-22z"/>
<path d="M150 819 c0 -15 7 -29 15 -32 23 -9 25 6 4 33 l-19 25 0 -26z"/>
<path d="M276 693 c-11 -11 15 -43 34 -43 11 0 20 -6 20 -14 0 -15 37 -29 44
-17 6 9 -90 82 -98 74z"/>
<path d="M2140 591 c0 -6 -6 -11 -12 -9 -15 3 -78 -33 -78 -44 0 -11 63 14 84
34 11 10 16 21 13 25 -4 3 -7 1 -7 -6z"/>
<path d="M420 585 c0 -18 39 -45 96 -66 29 -11 60 -27 68 -35 8 -8 24 -14 35
-14 11 0 23 -4 26 -10 3 -5 16 -10 28 -9 13 0 -11 16 -61 40 -45 21 -100 50
-121 63 -21 14 -42 22 -45 18 -4 -3 -11 0 -16 8 -6 8 -10 10 -10 5z"/>
<path d="M1910 482 c-36 -15 -67 -29 -70 -33 -3 -3 -12 -9 -20 -13 -8 -3 3 -3
25 0 22 3 42 10 43 15 2 5 15 9 28 9 13 0 24 5 24 10 0 6 11 10 25 10 16 0 25
6 25 15 0 19 -3 19 -80 -13z"/>
<path d="M727 429 c12 -12 44 -21 198 -55 118 -25 184 -31 153 -13 -10 5 -43
11 -75 13 -32 3 -75 12 -95 20 -21 9 -50 18 -65 20 -16 2 -41 8 -56 15 -37 15
-75 15 -60 0z"/>
<path d="M1726 415 c-13 -7 -26 -11 -28 -9 -2 2 -33 -4 -68 -12 -35 -8 -82
-17 -103 -20 -57 -7 -83 -23 -37 -23 59 0 285 50 302 67 14 14 -37 12 -66 -3z"/>
</g>
</svg>
