<?xml version="1.0" standalone="no"?>
<!DOCTYPE svg PUBLIC "-//W3C//DTD SVG 20010904//EN"
 "http://www.w3.org/TR/2001/REC-SVG-20010904/DTD/svg10.dtd">
<svg version="1.0" xmlns="http://www.w3.org/2000/svg"
 width="192.000000pt" height="192.000000pt" viewBox="0 0 192.000000 192.000000"
 preserveAspectRatio="xMidYMid meet">
<metadata>
Created by potrace 1.16, written by Peter Selinger 2001-2019
</metadata>
<g transform="translate(0.000000,192.000000) scale(0.100000,-0.100000)"
fill="#000000" stroke="none">
<path d="M510 1893 c-110 -44 -211 -112 -283 -188 -152 -162 -189 -403 -92
-607 60 -127 219 -258 395 -326 134 -51 198 -63 371 -69 197 -7 289 4 437 53
265 86 442 258 487 469 19 89 19 128 -1 221 -24 117 -58 178 -149 270 -112
112 -282 205 -373 203 -20 0 -30 -3 -22 -6 173 -57 274 -116 375 -217 93 -94
127 -156 151 -279 15 -77 15 -90 0 -163 -8 -43 -30 -108 -48 -144 -43 -86
-149 -191 -255 -253 -95 -56 -255 -110 -373 -128 -114 -16 -352 -6 -445 19
-441 121 -663 418 -555 743 59 177 221 320 458 404 66 24 66 24 27 24 -22 0
-69 -11 -105 -26z"/>
<path d="M649 1903 c-13 -7 -61 -27 -107 -44 -45 -18 -93 -42 -106 -54 -13
-12 -36 -25 -50 -29 -14 -3 -26 -13 -26 -21 0 -12 10 -9 42 11 76 48 127 72
223 104 52 17 95 35 95 40 0 11 -42 7 -71 -7z"/>
<path d="M1203 1906 c2 -5 32 -18 67 -27 35 -10 78 -25 96 -34 18 -8 35 -15
38 -15 4 0 25 -12 47 -26 23 -14 44 -23 47 -19 10 9 -37 43 -78 56 -19 6 -57
21 -85 34 -86 39 -139 52 -132 31z"/>
<path d="M860 1872 c-19 -10 -47 -29 -63 -42 -28 -25 -36 -45 -14 -37 6 2 11
10 9 16 -1 7 2 10 7 7 5 -3 19 3 32 13 89 69 192 67 267 -6 8 -7 18 -10 24 -7
7 4 8 2 4 -4 -4 -6 1 -19 11 -29 20 -20 78 -106 75 -111 -4 -5 30 -64 34 -59
7 6 -25 85 -52 127 -33 54 -88 105 -136 129 -56 26 -148 28 -198 3z"/>
<path d="M695 1865 c-33 -7 -71 -18 -85 -23 -23 -10 -24 -11 -3 -11 12 -1 49
6 83 15 66 17 81 14 60 -11 -7 -8 -9 -15 -5 -15 4 0 -4 -10 -19 -21 -15 -12
-25 -23 -23 -26 3 -2 -5 -15 -18 -29 -36 -38 -80 -164 -91 -256 -4 -32 -10
-56 -13 -54 -4 3 -29 -6 -56 -20 -62 -30 -135 -31 -205 -5 -28 11 -53 15 -56
10 -11 -19 54 -34 151 -34 85 0 107 4 143 23 26 14 42 29 42 41 0 78 77 271
137 340 31 37 43 74 26 84 -5 2 -35 -1 -68 -8z"/>
<path d="M1150 1852 c0 -17 10 -38 25 -52 14 -13 25 -19 25 -13 0 6 -7 14 -16
17 -9 4 -14 9 -11 13 4 3 2 12 -5 20 -6 7 -8 16 -5 19 10 11 187 -45 258 -81
38 -19 69 -30 69 -25 0 19 -153 86 -245 108 -101 25 -95 25 -95 -6z"/>
<path d="M879 1840 c-89 -47 -171 -173 -203 -314 -9 -38 -15 -70 -13 -72 15
-16 114 -46 196 -59 95 -16 107 -16 204 0 56 9 107 20 112 25 6 4 27 13 48 20
22 7 36 17 34 24 -3 6 -10 38 -17 71 -19 93 -80 207 -143 266 -62 58 -151 74
-218 39z m139 -19 c87 -44 174 -175 201 -300 10 -47 7 -61 -12 -61 -7 0 -24
-6 -38 -14 -14 -7 -43 -16 -65 -20 l-39 -8 20 22 c15 17 21 40 23 99 3 67 1
80 -20 111 -54 80 -210 78 -263 -3 -34 -52 -27 -173 12 -212 15 -15 13 -16
-23 -9 -48 9 -124 40 -124 51 1 32 27 110 56 170 38 77 96 143 153 173 46 24
73 25 119 1z m15 -153 c49 -26 74 -130 44 -188 -28 -55 -109 -84 -169 -61
-115 45 -109 225 8 261 31 10 88 4 117 -12z"/>
<path d="M905 1656 c-44 -19 -59 -42 -61 -95 -2 -52 7 -76 44 -108 33 -30 93
-31 135 -1 42 29 43 31 46 84 5 106 -71 161 -164 120z m121 -31 c18 -17 28
-38 31 -68 5 -39 2 -47 -30 -80 -45 -48 -82 -49 -132 -6 -30 27 -35 37 -35 76
0 90 101 138 166 78z"/>
<path d="M650 1819 c-141 -41 -284 -134 -364 -236 -57 -72 -65 -100 -34 -122
76 -54 176 -66 263 -31 52 21 54 23 61 68 16 110 79 256 137 320 24 26 21 26
-63 1z m0 -35 c0 -4 -9 -21 -19 -38 -24 -39 -66 -166 -75 -228 -4 -26 -13 -49
-21 -52 -12 -4 -15 8 -15 68 0 82 -9 96 -75 119 l-38 13 29 21 c39 28 186 103
202 103 6 0 12 -3 12 -6z m-180 -173 c21 -15 26 -28 28 -73 3 -51 0 -58 -28
-87 -66 -66 -160 -26 -160 68 0 55 20 88 64 107 35 15 59 11 96 -15z m-180
-108 c0 -34 -1 -36 -16 -21 -13 13 -14 19 -2 37 7 11 14 21 15 21 2 0 3 -17 3
-37z"/>
<path d="M370 1603 c-35 -24 -40 -33 -40 -78 0 -59 22 -85 71 -85 24 0 38 4
34 10 -3 6 1 10 9 10 9 0 16 5 16 11 0 7 -10 5 -25 -5 -33 -22 -48 -20 -73 7
-29 31 -28 72 3 102 48 49 111 19 103 -50 -2 -19 0 -35 4 -35 4 0 8 21 8 48 0
42 -3 49 -31 65 -38 21 -48 21 -79 0z"/>
<path d="M1224 1795 c42 -56 94 -177 108 -254 16 -88 21 -94 78 -114 79 -28
141 -24 217 13 34 17 63 36 63 42 0 15 -37 75 -78 126 -67 83 -205 168 -346
211 -37 12 -70 21 -73 21 -2 0 12 -20 31 -45z m160 -52 c39 -19 83 -44 100
-56 l29 -21 -39 -13 c-66 -23 -79 -43 -79 -123 0 -39 -3 -70 -8 -70 -11 0 -25
39 -32 90 -4 36 -38 129 -82 229 -8 18 23 8 111 -36z m159 -117 c44 -18 67
-56 67 -110 0 -37 -5 -48 -31 -70 -41 -35 -85 -34 -129 2 -30 26 -34 34 -34
80 0 56 13 78 59 98 37 16 30 16 68 0z m105 -117 c10 -13 9 -19 -3 -29 -13
-11 -15 -8 -15 20 0 19 1 31 3 29 1 -2 8 -11 15 -20z"/>
<path d="M1462 1591 c-34 -31 -40 -60 -22 -105 6 -17 17 -26 30 -26 13 0 18
-4 15 -11 -5 -7 6 -9 31 -7 22 2 39 9 42 18 4 12 2 13 -9 3 -34 -33 -99 13
-99 71 0 56 61 86 102 49 10 -9 18 -11 18 -5 0 14 -40 42 -60 42 -9 0 -30 -13
-48 -29z"/>
<path d="M1580 1568 c-6 -34 -5 -98 1 -98 5 0 9 23 9 50 0 28 -2 50 -5 50 -3
0 -5 -1 -5 -2z"/>
<path d="M488 1789 c-62 -31 -82 -60 -23 -32 19 9 35 21 35 25 0 5 4 7 9 4 9
-6 49 20 41 27 -3 3 -31 -8 -62 -24z"/>
<path d="M741 1768 c-56 -89 -111 -243 -111 -313 0 -36 70 -66 210 -91 92 -16
103 -17 95 -4 -3 6 -18 10 -32 10 -47 0 -147 22 -192 43 -24 11 -51 20 -59 20
-10 0 -12 8 -7 31 4 17 11 51 15 76 10 54 32 116 48 132 7 7 12 22 12 34 0 12
7 25 16 28 8 3 13 10 10 15 -4 5 -1 11 5 13 7 2 10 9 8 16 -2 7 -10 3 -18 -10z"/>
<path d="M1510 1782 c0 -5 12 -18 28 -28 51 -36 158 -149 184 -196 47 -85 60
-141 56 -236 -3 -64 -10 -103 -30 -149 -14 -35 -22 -63 -17 -63 20 0 55 102
65 190 10 86 -34 249 -82 306 -27 32 -125 132 -147 150 -24 20 -57 35 -57 26z"/>
<path d="M1206 1758 c4 -7 13 -20 20 -28 22 -27 65 -144 80 -220 8 -41 20 -79
26 -85 8 -7 9 -4 3 10 -4 11 -11 48 -15 82 -4 35 -17 82 -28 105 -11 24 -30
67 -43 96 -12 28 -29 52 -36 52 -9 0 -11 -5 -7 -12z"/>
<path d="M314 1726 c-21 -18 -24 -25 -13 -26 17 0 56 37 47 46 -3 3 -19 -6
-34 -20z"/>
<path d="M374 1722 c-67 -49 -170 -172 -144 -172 5 0 10 7 10 15 0 8 7 15 15
15 13 0 17 6 14 26 0 4 11 14 26 24 15 10 35 28 44 41 9 13 22 25 29 27 18 3
57 40 50 47 -2 3 -22 -8 -44 -23z"/>
<path d="M1500 1741 c0 -6 5 -13 10 -16 6 -3 10 1 10 9 0 9 -4 16 -10 16 -5 0
-10 -4 -10 -9z"/>
<path d="M1530 1722 c0 -5 7 -15 15 -22 8 -7 15 -8 15 -2 0 5 -7 15 -15 22 -8
7 -15 8 -15 2z"/>
<path d="M1570 1693 c0 -6 14 -23 30 -36 17 -14 30 -30 30 -36 0 -5 6 -16 13
-23 24 -25 67 -107 67 -128 0 -12 4 -18 10 -15 25 15 -25 115 -95 192 -30 32
-54 53 -55 46z"/>
<path d="M269 1683 c-1 -5 -1 -11 -1 -14 1 -3 -9 -11 -21 -18 -22 -12 -77 -89
-81 -113 -1 -7 -5 -18 -9 -24 -14 -24 -37 -130 -37 -176 0 -90 39 -215 87
-277 34 -46 114 -123 121 -117 3 4 -12 25 -34 49 -113 118 -155 209 -156 339
-2 114 49 235 135 326 24 25 27 32 14 32 -9 0 -18 -3 -18 -7z"/>
<path d="M1254 1573 c2 -16 8 -49 11 -75 3 -27 10 -48 15 -48 9 0 4 50 -11
113 -11 43 -23 51 -15 10z"/>
<path d="M206 1531 c-10 -15 -14 -71 -7 -76 4 -2 12 14 18 36 9 36 2 62 -11
40z"/>
<path d="M220 1447 c0 -8 7 -17 15 -21 8 -3 15 -2 15 3 0 5 -7 14 -15 21 -12
10 -15 10 -15 -3z"/>
<path d="M1630 1423 c-74 -37 -156 -44 -206 -18 -29 15 -84 21 -70 8 37 -38
225 -41 293 -5 38 20 60 40 52 46 -2 1 -33 -13 -69 -31z"/>
<path d="M1222 1422 c-23 -7 -40 -18 -37 -22 6 -10 21 -6 73 17 55 24 32 28
-36 5z"/>
<path d="M164 1375 c-7 -30 2 -114 16 -146 11 -25 10 -10 -5 91 -9 58 4 66 66
37 30 -13 62 -27 72 -31 17 -6 18 -18 16 -151 -2 -80 -4 -145 -5 -145 -11 0
-69 72 -94 116 -38 65 -52 65 -21 0 38 -78 78 -126 106 -126 14 0 25 6 26 13
0 6 2 74 3 151 2 142 -4 166 -40 166 -8 0 -32 11 -54 25 -51 32 -78 32 -86 0z"/>
<path d="M1638 1363 l-67 -34 0 -154 0 -155 23 0 c47 0 125 111 147 209 27
119 21 173 -20 169 -9 0 -46 -16 -83 -35z m102 -55 c0 -45 -20 -106 -60 -179
-11 -20 -17 -39 -13 -43 3 -3 1 -6 -5 -6 -6 0 -24 -11 -40 -25 l-30 -25 2 146
1 145 65 29 c74 33 80 30 80 -42z"/>
<path d="M1663 1334 l-53 -25 0 -121 c0 -118 0 -121 19 -104 37 34 85 147 89
214 2 34 3 62 1 61 -2 0 -28 -12 -56 -25z m17 -104 c-11 -29 -27 -62 -35 -74
-14 -19 -15 -14 -15 57 l0 77 33 13 c28 12 32 12 35 -3 2 -9 -6 -41 -18 -70z"/>
<path d="M1095 1380 c-16 -4 -47 -8 -67 -9 -21 0 -38 -5 -38 -10 0 -6 17 -7
38 -5 65 9 142 25 142 30 0 6 -40 3 -75 -6z"/>
<path d="M190 1347 c0 -76 61 -230 105 -267 13 -11 15 1 15 109 l0 121 -27 10
c-16 6 -40 17 -55 25 -32 18 -38 19 -38 2z m93 -56 c4 -4 7 -41 5 -81 l-3 -74
-27 50 c-14 27 -30 67 -34 88 l-7 39 29 -7 c16 -4 33 -11 37 -15z"/>
<path d="M490 1340 c-36 -15 -40 -19 -20 -19 14 -1 42 4 63 10 22 6 41 9 43 6
2 -2 9 -53 15 -113 6 -60 18 -125 26 -144 8 -19 18 -44 23 -55 29 -76 55 -125
67 -125 11 0 10 7 -5 28 -50 69 -91 207 -100 330 l-7 97 -30 2 c-16 1 -50 -7
-75 -17z"/>
<path d="M621 1319 c2 -44 2 -44 8 -9 6 35 7 35 51 32 25 -2 50 -7 55 -12 6
-4 36 -11 67 -14 48 -6 57 -11 61 -29 4 -20 4 -19 6 3 1 24 -4 27 -81 44 -46
10 -102 21 -125 23 l-43 5 1 -43z"/>
<path d="M1182 1345 c-23 -8 -59 -16 -79 -20 -20 -3 -39 -8 -42 -11 -8 -8 110
7 129 16 8 4 32 10 53 14 33 6 38 4 47 -16 5 -13 9 -18 9 -11 3 45 -35 53
-117 28z"/>
<path d="M1360 1343 c19 -8 53 -17 75 -19 l40 -4 -50 19 c-27 11 -61 19 -75
19 -22 0 -21 -1 10 -15z"/>
<path d="M1318 1252 c-12 -143 -59 -268 -144 -380 -18 -24 -30 -50 -27 -58 6
-16 63 -20 63 -4 0 6 -11 8 -25 4 -29 -7 -32 4 -7 32 43 47 60 76 55 91 -4 10
-2 14 4 10 30 -19 97 229 91 340 -3 53 -4 49 -10 -35z"/>
<path d="M654 1273 c18 -156 73 -304 142 -375 19 -21 37 -38 40 -38 2 0 4 97
4 215 l0 214 -37 7 c-21 3 -60 12 -87 20 -27 8 -54 14 -59 14 -5 0 -7 -24 -3
-57z m62 18 c16 -5 46 -12 67 -16 l37 -6 0 -176 c0 -174 0 -176 -20 -158 -45
40 -102 191 -119 313 -8 56 -8 56 35 43z"/>
<path d="M1203 1316 c-23 -8 -62 -17 -87 -20 l-46 -7 0 -220 c0 -206 1 -219
18 -208 33 21 91 107 126 189 17 40 42 149 51 228 6 58 6 59 -62 38z m37 -45
c0 -95 -61 -263 -122 -334 l-27 -32 -1 182 0 182 48 7 c26 4 56 10 67 15 32
12 35 11 35 -20z"/>
<path d="M1347 1241 c-10 -141 -60 -285 -129 -373 -16 -21 -28 -38 -26 -38 13
0 158 53 204 75 l54 26 0 182 0 183 -49 16 -48 15 -6 -86z m61 43 c22 -6 22
-9 22 -169 l0 -164 -32 -16 c-52 -26 -128 -55 -128 -49 0 3 13 34 29 68 37 77
61 171 68 264 3 39 9 72 12 72 3 0 16 -3 29 -6z"/>
<path d="M503 1309 l-33 -10 0 -184 0 -185 38 -19 c33 -17 206 -81 218 -81 3
0 -11 20 -30 45 -64 84 -125 266 -126 372 0 74 -6 79 -67 62z m49 -103 c8 -91
28 -165 69 -255 16 -35 28 -65 26 -67 -1 -2 -36 11 -77 29 l-75 32 -3 164 c-3
169 1 185 38 178 11 -2 17 -23 22 -81z"/>
<path d="M442 1113 c-2 -200 -2 -203 21 -217 29 -19 204 -86 225 -86 27 0 0
16 -63 38 -33 11 -85 29 -115 40 l-55 20 -5 204 -6 203 -2 -202z"/>
<path d="M1474 1120 c0 -107 2 -151 3 -97 2 53 2 141 0 195 -1 53 -3 9 -3 -98z"/>
<path d="M1280 1249 c0 -22 -4 -48 -9 -57 -4 -9 -11 -42 -14 -72 l-5 -55 13
38 c15 41 32 187 21 187 -3 0 -6 -18 -6 -41z"/>
<path d="M631 1218 c19 -133 50 -225 103 -303 60 -88 136 -126 136 -67 l-1 27
-13 -24 c-8 -15 -16 -20 -20 -12 -4 6 -16 11 -27 11 -11 0 -17 5 -14 10 4 6
-12 28 -35 51 -22 22 -38 44 -35 48 2 5 -4 20 -15 34 -11 14 -20 30 -20 36 0
6 -4 19 -9 29 -13 25 -41 153 -41 185 0 15 -4 27 -8 27 -5 0 -5 -24 -1 -52z"/>
<path d="M1690 1067 c-14 -17 -51 -57 -82 -88 -32 -31 -58 -59 -58 -62 0 -4
20 7 44 24 52 34 99 87 90 100 -3 5 2 9 10 9 8 0 18 9 21 21 10 32 2 31 -25
-4z"/>
<path d="M1226 1044 c-3 -9 -6 -22 -6 -30 0 -13 -51 -94 -77 -122 -21 -22 -15
-37 7 -17 40 36 107 169 91 180 -5 3 -12 -2 -15 -11z"/>
<path d="M340 940 c0 -6 8 -14 18 -17 9 -4 20 -11 24 -17 4 -6 10 -8 13 -4 3
3 -8 16 -24 28 -17 12 -31 16 -31 10z"/>
<path d="M1466 878 c-82 -49 -233 -101 -337 -117 -95 -15 -279 -13 -370 5 -70
13 -200 55 -248 80 -14 7 -27 11 -29 9 -10 -10 13 -25 61 -40 28 -9 61 -21 72
-26 60 -28 133 -40 272 -46 145 -6 312 7 352 27 9 4 55 20 103 34 48 15 91 34
96 42 4 8 18 16 29 18 27 6 73 35 73 47 0 12 5 14 -74 -33z"/>
<path d="M1417 895 c-9 -8 -53 -27 -99 -41 -76 -24 -118 -44 -91 -44 41 0 226
77 218 91 -8 12 -11 12 -28 -6z"/>
<path d="M412 888 c6 -18 45 -40 52 -29 3 5 -8 16 -25 25 -18 9 -29 11 -27 4z"/>
<path d="M720 884 c0 -5 9 -20 20 -34 26 -34 25 -43 -5 -36 -14 4 -25 2 -25
-4 0 -5 14 -10 30 -10 25 0 30 4 30 23 0 13 -11 34 -25 47 -14 13 -25 19 -25
14z"/>
<path d="M1075 835 c-29 -14 -29 -14 -5 -14 14 0 34 6 44 14 25 19 3 19 -39 0z"/>
<path d="M194 488 c-6 -24 -38 -122 -71 -218 -48 -139 -67 -182 -92 -208 -18
-18 -31 -36 -28 -39 11 -10 47 9 65 35 18 26 123 322 146 410 11 42 11 43 50
40 40 -3 40 -3 68 -78 16 -41 32 -84 37 -95 5 -11 33 -81 61 -155 60 -156 68
-170 87 -144 16 22 19 375 3 404 -5 10 -21 21 -35 24 -14 4 -25 13 -25 20 0
11 28 16 123 21 273 15 405 -46 441 -206 14 -58 14 -72 1 -115 -18 -63 -52
-108 -111 -151 -42 -29 -45 -33 -23 -33 52 0 122 72 151 154 l17 51 1 -60 c0
-70 -18 -105 -56 -105 -17 0 -24 -5 -24 -20 0 -11 5 -20 10 -20 6 0 10 5 10
10 0 6 11 10 24 10 49 0 56 28 56 223 0 99 -4 187 -10 197 -5 10 -23 21 -40
25 -21 5 -30 13 -30 26 0 18 8 19 133 19 155 0 199 -10 245 -56 33 -33 34 -36
30 -101 -4 -61 -7 -68 -38 -95 -33 -27 -34 -29 -19 -54 36 -59 94 -133 100
-126 10 11 139 398 139 416 0 12 10 16 43 16 l42 0 85 -225 c46 -124 92 -234
102 -245 19 -20 58 -27 58 -11 0 5 -9 12 -19 16 -25 8 -41 44 -132 287 l-74
198 -62 0 c-51 0 -63 -3 -63 -16 0 -23 -124 -384 -131 -384 -4 0 -20 21 -37
46 l-30 47 27 22 c24 21 26 31 30 109 l3 86 -34 34 c-47 47 -90 56 -265 56
l-153 0 0 -39 c0 -36 3 -40 30 -46 40 -9 50 -31 49 -112 l-1 -68 -14 61 c-37
157 -181 217 -476 199 l-128 -7 0 -34 c0 -28 4 -35 25 -40 14 -3 30 -14 35
-24 12 -23 13 -358 2 -344 -5 5 -30 65 -56 134 -26 69 -52 134 -57 145 -5 11
-21 54 -37 95 l-28 75 -60 3 -59 3 -11 -43z"/>
<path d="M232 458 c-31 -76 -122 -354 -122 -370 0 -10 -4 -18 -9 -18 -5 0 -13
-9 -16 -21 -4 -11 -21 -27 -38 -34 -29 -13 -30 -14 -8 -15 14 0 33 8 43 17 17
15 19 15 31 -1 10 -14 12 -7 13 41 0 33 8 72 17 90 10 18 17 41 17 53 0 19 6
20 85 20 114 0 113 -3 54 155 -12 33 -28 64 -35 68 -18 10 -18 37 0 37 7 0 19
-15 26 -32 7 -18 18 -46 25 -63 7 -16 20 -50 29 -75 40 -118 105 -275 115
-278 10 -3 -4 39 -59 178 -12 30 -26 59 -31 65 -5 5 -9 19 -9 32 0 13 -4 23
-10 23 -5 0 -10 10 -10 23 0 12 -6 32 -14 43 -8 11 -18 36 -23 55 -7 26 -15
35 -34 37 -19 2 -27 -4 -37 -30z m62 -124 c20 -50 36 -94 36 -98 0 -9 -138 -7
-144 3 -7 11 57 202 65 193 4 -4 23 -48 43 -98z"/>
<path d="M222 323 c-12 -37 -20 -69 -18 -71 2 -1 26 -2 53 0 l50 3 -25 68
c-14 37 -28 67 -31 67 -4 0 -17 -30 -29 -67z m44 -50 c-2 -3 -11 -3 -19 -1
-11 2 -12 9 -5 28 l10 25 9 -24 c5 -13 7 -26 5 -28z"/>
<path d="M580 258 c3 -128 9 -239 13 -245 5 -7 18 -13 30 -13 17 0 19 2 7 9
-8 6 -17 8 -20 6 -11 -7 -12 13 -17 242 l-4 222 48 4 48 3 -55 2 -55 2 5 -232z"/>
<path d="M703 483 c9 -2 25 -2 35 0 9 3 1 5 -18 5 -19 0 -27 -2 -17 -5z"/>
<path d="M1035 481 c11 -5 23 -7 27 -4 4 2 13 -7 20 -19 9 -16 15 -84 18 -213
l6 -190 2 187 c1 103 -2 198 -8 212 -8 22 -7 26 8 26 16 0 17 -17 17 -205 -1
-236 5 -270 50 -271 26 -1 26 0 4 3 -36 6 -39 25 -39 274 l0 209 -62 -1 c-43
0 -56 -3 -43 -8z"/>
<path d="M1257 479 c46 -13 78 -63 77 -119 -1 -79 -6 -89 -46 -108 -43 -20
-46 -27 -18 -44 11 -7 20 -18 20 -25 0 -7 9 -22 20 -33 11 -11 18 -20 15 -20
-9 0 27 -53 52 -77 33 -32 94 -28 109 7 19 43 44 124 44 143 0 15 11 17 91 17
l91 0 -5 38 c-7 51 -55 175 -73 185 -19 11 -18 37 1 37 18 0 15 8 106 -240 64
-173 99 -248 99 -213 0 6 -4 13 -10 15 -5 2 -16 30 -24 62 -9 33 -25 78 -36
101 -11 23 -20 45 -20 49 0 4 -6 22 -14 39 -8 18 -24 61 -36 97 -12 36 -26 70
-31 76 -5 6 -6 14 -2 17 3 4 -7 7 -24 7 -20 0 -33 -6 -36 -17 -3 -10 -37 -108
-75 -217 -68 -198 -69 -199 -99 -202 -34 -4 -49 11 -121 117 -29 43 -30 48
-15 60 13 11 15 11 9 1 -9 -14 80 -158 103 -167 23 -9 22 0 -1 26 -13 14 -34
42 -48 62 -14 20 -28 37 -32 37 -5 0 -8 13 -8 30 0 22 7 33 29 44 35 19 41 33
41 101 0 43 -5 59 -22 76 -30 28 -80 49 -115 48 l-28 -1 32 -9z m123 -118 c0
-20 -7 -46 -15 -57 -14 -18 -15 -16 -12 26 2 25 -3 63 -10 85 l-13 40 25 -28
c17 -19 25 -40 25 -66z m301 -60 c10 -30 19 -58 19 -63 0 -4 -34 -8 -75 -8
-41 0 -75 2 -75 5 0 6 45 143 60 180 l11 29 21 -44 c11 -25 29 -69 39 -99z"/>
<path d="M1616 390 c-3 -8 -14 -42 -25 -75 l-20 -60 51 -3 c28 -2 52 -1 54 1
2 2 -9 37 -25 78 -17 44 -31 68 -35 59z m23 -107 c1 -7 -8 -13 -18 -13 -18 0
-19 3 -9 32 10 28 12 30 19 12 4 -10 8 -25 8 -31z"/>
<path d="M511 473 c32 -8 39 -50 39 -233 0 -189 -7 -226 -44 -233 -14 -3 -11
-5 10 -6 19 0 34 5 37 13 8 20 9 396 1 434 -5 27 -11 32 -33 31 -14 -1 -19 -3
-10 -6z"/>
<path d="M799 468 c38 -11 80 -35 98 -58 7 -8 13 -10 13 -5 1 6 13 -26 26 -70
29 -92 26 -151 -9 -224 -22 -45 -87 -94 -139 -104 -19 -4 -18 -5 7 -6 45 -2
173 78 159 100 -3 5 2 9 10 9 23 0 59 107 50 150 -8 34 -8 34 -14 -20 -5 -45
-23 -100 -33 -100 -2 0 -3 42 -2 93 0 67 -5 101 -17 125 -9 18 -12 32 -6 30 6
-2 21 -24 34 -48 20 -38 24 -41 24 -20 0 43 -43 93 -110 128 -35 17 -77 32
-94 31 l-31 -1 34 -10z"/>
<path d="M1160 360 l0 -120 35 0 c43 0 88 22 109 52 21 30 20 93 -1 129 -18
30 -76 59 -118 59 l-25 0 0 -120z m69 84 c80 -32 92 -114 22 -161 -64 -44 -71
-36 -71 77 0 55 2 100 5 100 2 0 22 -7 44 -16z"/>
<path d="M610 261 c0 -255 -5 -245 114 -239 99 5 154 35 188 100 25 51 30 151
9 212 -30 86 -121 136 -248 136 l-63 0 0 -209z m156 174 c93 -27 147 -101 147
-200 0 -108 -73 -183 -188 -193 -95 -7 -95 -8 -95 219 l0 189 43 0 c24 0 66
-7 93 -15z"/>
<path d="M350 205 c0 -9 11 -49 25 -87 14 -38 23 -73 20 -78 -3 -5 -1 -11 5
-15 19 -11 10 51 -16 121 -28 76 -34 86 -34 59z"/>
<path d="M1720 216 c0 -2 11 -41 24 -87 13 -46 26 -93 29 -104 3 -13 5 -8 6
13 0 19 -11 67 -25 108 -23 63 -34 87 -34 70z"/>
<path d="M1160 136 c0 -41 3 -82 6 -90 4 -9 23 -19 45 -22 21 -4 39 -10 39
-15 0 -5 5 -9 10 -9 6 0 10 8 10 19 0 14 -10 20 -39 25 -45 7 -51 18 -51 92 0
49 2 54 23 54 16 0 32 -17 62 -62 59 -92 93 -128 121 -128 24 0 24 1 -9 30
-19 16 -56 64 -83 105 -48 74 -50 75 -91 75 l-43 0 0 -74z"/>
<path d="M170 168 c-43 -119 -42 -148 5 -148 14 0 25 -4 25 -10 0 -5 5 -10 10
-10 6 0 10 9 10 19 0 14 -8 21 -27 23 -32 3 -34 24 -6 96 l16 42 52 0 53 0 22
-59 c24 -66 21 -81 -16 -81 -17 0 -24 -5 -24 -20 0 -11 5 -20 10 -20 6 0 10 5
10 10 0 6 9 10 19 10 30 0 51 11 51 25 0 8 -12 46 -26 84 l-26 71 -73 0 -73 0
-12 -32z"/>
<path d="M1525 119 c-29 -89 -26 -99 28 -99 15 0 27 -4 27 -10 0 -5 5 -10 10
-10 6 0 10 9 10 20 0 15 -7 20 -29 20 -17 0 -32 3 -34 7 -3 5 4 36 15 71 l19
63 56 -3 56 -3 19 -55 c21 -64 18 -80 -17 -80 -18 0 -25 -5 -25 -20 0 -11 5
-20 10 -20 6 0 10 5 10 10 0 6 10 10 23 10 50 0 53 13 26 97 l-25 78 -76 3
-76 3 -27 -82z"/>
<path d="M1081 32 c-7 -13 -11 -26 -8 -28 8 -8 29 25 25 38 -3 8 -9 4 -17 -10z"/>
<path d="M1430 16 c0 -9 5 -16 10 -16 6 0 10 4 10 9 0 6 -4 13 -10 16 -5 3
-10 -1 -10 -9z"/>
<path d="M1735 10 c-19 -8 -19 -9 3 -9 12 -1 22 4 22 9 0 6 -1 10 -2 9 -2 0
-12 -4 -23 -9z"/>
<path d="M378 3 c7 -3 16 -2 19 1 4 3 -2 6 -13 5 -11 0 -14 -3 -6 -6z"/>
<path d="M1848 3 c6 -2 18 -2 25 0 6 3 1 5 -13 5 -14 0 -19 -2 -12 -5z"/>
</g>
</svg>
