<?xml version="1.0" standalone="no"?>
<!DOCTYPE svg PUBLIC "-//W3C//DTD SVG 20010904//EN"
 "http://www.w3.org/TR/2001/REC-SVG-20010904/DTD/svg10.dtd">
<svg version="1.0" xmlns="http://www.w3.org/2000/svg"
 width="256.000000pt" height="256.000000pt" viewBox="0 0 256.000000 256.000000"
 preserveAspectRatio="xMidYMid meet">
<metadata>
Created by potrace 1.16, written by Peter Selinger 2001-2019
</metadata>
<g transform="translate(0.000000,256.000000) scale(0.100000,-0.100000)"
fill="#000000" stroke="none">
<path d="M1045 2215 c-111 -15 -280 -56 -371 -91 -66 -24 -174 -74 -184 -84
-3 -3 -25 -16 -50 -29 -105 -57 -262 -198 -330 -295 -17 -26 -48 -81 -67 -124
-30 -64 -36 -90 -39 -157 -3 -82 -2 -81 17 15 14 65 65 181 109 246 65 93 217
231 323 292 43 25 47 26 47 12 0 -5 -5 -10 -11 -10 -26 0 -194 -128 -261 -199
-103 -108 -179 -245 -193 -347 -10 -69 -16 -94 -24 -94 -4 0 -5 -17 -2 -37 4
-21 4 -57 0 -80 -3 -25 -1 -47 5 -53 7 -7 6 -10 -2 -10 -25 0 -13 -97 22 -184
29 -73 85 -171 107 -186 3 -3 23 -25 44 -50 56 -67 167 -158 244 -200 25 -14
48 -27 51 -30 9 -9 114 -58 183 -85 189 -74 371 -105 617 -105 188 0 334 15
440 46 291 84 476 185 635 347 120 122 206 276 204 365 l-1 47 -12 -45 c-54
-194 -212 -387 -421 -516 -110 -68 -273 -139 -379 -165 -23 -5 -48 -12 -56
-14 -107 -32 -313 -53 -460 -48 -236 7 -469 63 -670 161 -30 15 -57 29 -60 32
-3 3 -26 16 -51 30 -77 42 -188 133 -244 200 -21 25 -41 47 -44 50 -38 27
-131 222 -146 305 -11 60 10 31 24 -31 63 -302 434 -600 860 -690 89 -18 91
-19 201 -34 84 -12 347 -9 420 5 19 3 44 8 55 10 219 40 421 118 580 224 185
123 342 326 375 486 6 31 15 53 18 51 4 -2 7 18 7 45 1 72 -16 55 -36 -37 -20
-91 -43 -155 -76 -203 -13 -19 -23 -40 -23 -47 0 -8 -4 -14 -8 -14 -4 0 -15
-12 -24 -28 -24 -39 -148 -162 -199 -197 -24 -17 -46 -33 -49 -36 -6 -8 -102
-63 -145 -83 -166 -79 -281 -114 -495 -151 -19 -3 -93 -8 -165 -10 -266 -7
-508 42 -745 153 -74 34 -201 112 -236 146 -6 6 -35 31 -65 56 -145 124 -251
341 -253 520 -3 258 136 492 397 669 141 96 364 182 562 218 134 24 449 24
582 0 100 -18 296 -80 383 -121 132 -62 273 -160 362 -253 96 -100 172 -242
196 -367 19 -97 38 -120 37 -46 0 26 -3 46 -6 44 -3 -2 -12 22 -19 54 -53 240
-276 467 -590 605 -92 40 -276 94 -346 102 -32 4 -62 9 -65 11 -28 16 -311 25
-404 12 -261 -36 -428 -83 -568 -159 -21 -11 -41 -18 -45 -15 -7 7 -10 5 58
38 256 124 608 182 905 148 107 -13 322 -64 382 -91 23 -10 47 -19 53 -19 28
0 262 -130 297 -166 8 -8 18 -14 23 -14 16 0 169 -160 208 -217 43 -64 97
-180 111 -240 l9 -38 1 48 c1 57 -41 161 -101 250 -39 57 -192 217 -208 217
-5 0 -15 6 -23 14 -34 34 -270 166 -297 166 -6 0 -30 9 -53 19 -60 27 -275 78
-382 91 -118 13 -337 11 -450 -5z"/>
<path d="M1199 2096 c-60 -16 -136 -61 -176 -104 -18 -19 -33 -36 -33 -39 0
-2 -11 -16 -25 -31 -88 -94 -202 -471 -154 -508 20 -16 195 -70 270 -85 82
-16 325 -15 409 0 65 13 171 46 243 76 43 18 45 28 23 145 -25 128 -96 302
-151 369 -79 97 -134 143 -200 168 -46 18 -154 23 -206 9z m242 -56 c61 -40
153 -140 184 -201 33 -65 93 -210 98 -240 30 -156 29 -153 12 -165 -36 -26
-241 -84 -315 -89 l-75 -5 95 19 c127 25 177 38 227 62 24 10 47 19 52 19 21
0 20 23 -4 122 -60 241 -172 415 -310 483 -59 29 -184 27 -247 -4 -87 -42
-192 -166 -239 -281 -11 -25 -23 -52 -28 -62 -8 -13 -33 -114 -57 -226 -4 -19
4 -26 53 -48 52 -22 100 -35 288 -73 l50 -10 -65 5 c-36 2 -72 6 -80 8 -8 1
-31 6 -50 10 -67 14 -194 63 -204 79 -29 46 89 385 159 461 12 13 32 37 43 53
27 38 86 79 155 107 48 19 65 21 131 15 62 -6 87 -14 127 -39z m-54 -17 c129
-61 248 -242 303 -460 23 -93 24 -103 10 -103 -6 0 -29 -9 -53 -20 -46 -21
-182 -55 -265 -66 -45 -6 -52 -9 -47 -25 6 -17 0 -19 -49 -19 -34 0 -56 4 -56
11 0 7 14 8 39 4 24 -4 42 -2 46 4 4 7 -5 11 -22 11 -29 0 -159 22 -248 40
-74 16 -185 61 -185 76 0 22 41 186 51 203 5 9 20 41 33 71 13 30 40 78 60
105 20 28 44 62 53 77 10 16 22 28 26 28 5 0 25 13 45 29 77 61 176 74 259 34z"/>
<path d="M1200 1814 c-145 -56 -187 -264 -77 -381 37 -39 74 -56 118 -51 l34
4 -43 12 c-59 18 -114 70 -135 129 -23 64 -22 90 7 155 69 157 279 159 358 5
52 -103 -11 -261 -112 -283 -48 -11 -56 -18 -26 -22 41 -5 69 4 104 35 52 46
72 96 72 184 0 70 -3 81 -32 125 -52 76 -76 89 -171 91 -45 1 -89 0 -97 -3z"/>
<path d="M1217 1776 c-48 -18 -63 -30 -93 -82 -56 -95 -19 -219 80 -271 64
-33 166 -13 215 42 86 98 57 243 -59 303 -50 25 -88 27 -143 8z m145 -38 c119
-67 109 -231 -19 -297 -62 -32 -150 -1 -194 68 -92 144 64 312 213 229z"/>
<path d="M870 2064 c-222 -56 -414 -158 -553 -292 -96 -92 -181 -229 -175
-280 6 -55 161 -134 288 -148 56 -6 134 9 230 43 62 23 78 38 85 86 13 90 39
195 62 257 26 69 86 185 109 210 49 54 84 105 79 117 -3 8 -5 17 -5 19 0 8
-66 2 -120 -12z m59 -66 c-99 -123 -175 -297 -194 -443 -13 -106 -27 -126
-109 -154 -135 -46 -235 -43 -347 11 -67 32 -119 69 -119 84 0 28 104 194 122
194 6 0 -1 -15 -15 -32 -15 -18 -43 -61 -62 -96 l-36 -62 28 -24 c113 -97 294
-120 438 -56 l63 28 11 59 c41 218 102 360 222 516 12 15 15 25 7 23 -7 -3
-62 -21 -123 -40 -60 -19 -141 -49 -180 -66 -94 -44 -226 -133 -282 -192 -26
-26 -51 -48 -57 -48 -19 0 79 92 161 150 44 32 105 70 135 83 29 13 75 34 101
46 26 12 89 33 140 47 51 14 97 27 102 29 43 15 42 2 -6 -57z m-86 -50 c-63
-92 -109 -216 -155 -422 l-13 -59 -65 -29 c-62 -28 -64 -28 -43 -6 26 27 53
98 53 138 0 28 -14 79 -32 117 -18 38 -66 55 -141 51 -37 -1 -67 -2 -67 -1 0
18 186 142 275 183 68 31 207 79 213 74 2 -1 -9 -22 -25 -46z m-313 -245 c30
-18 42 -36 60 -96 16 -51 -9 -125 -56 -167 -30 -26 -43 -30 -91 -30 -51 0 -58
3 -93 38 -53 52 -62 112 -29 179 13 27 39 58 58 70 41 28 110 30 151 6z m-245
-146 c0 -52 5 -80 17 -99 l17 -26 -43 24 c-69 38 -73 48 -46 97 18 34 49 77
54 77 1 0 1 -33 1 -73z"/>
<path d="M385 1685 c-88 -59 -85 -221 5 -252 98 -34 190 32 190 136 0 69 -37
130 -79 132 -9 0 -32 1 -51 2 -20 1 -47 -6 -65 -18z m139 -30 c49 -49 46 -120
-5 -173 -25 -25 -40 -32 -71 -32 -53 0 -75 14 -93 57 -20 48 -19 72 6 113 30
48 48 59 96 60 32 0 48 -6 67 -25z"/>
<path d="M1577 2073 c-14 -13 -6 -41 19 -69 100 -113 178 -275 214 -444 11
-52 23 -105 25 -118 11 -48 203 -109 305 -98 127 15 272 86 286 141 6 26 -31
116 -70 168 -21 29 -158 170 -186 192 -93 72 -327 184 -420 201 -14 3 -50 12
-81 20 -63 16 -82 17 -92 7z m133 -43 c100 -24 229 -73 282 -107 21 -12 40
-23 43 -23 15 0 119 -76 179 -131 99 -91 205 -247 190 -281 -10 -26 -124 -89
-194 -108 -96 -26 -239 -6 -320 45 -33 21 -36 28 -49 101 -30 175 -115 371
-206 472 -49 54 -54 66 -27 58 9 -2 55 -14 102 -26z"/>
<path d="M1642 2013 c96 -106 201 -347 215 -499 l6 -62 66 -30 c124 -57 269
-52 380 13 90 53 91 56 52 129 -58 105 -106 160 -211 241 -128 100 -228 150
-400 201 -63 19 -119 34 -124 34 -5 0 2 -12 16 -27z m262 -89 c80 -37 147 -78
227 -139 l66 -51 -63 4 c-82 5 -106 -1 -143 -39 -30 -30 -31 -33 -31 -120 0
-90 17 -149 42 -149 6 0 8 -3 5 -7 -4 -4 -34 6 -66 21 l-58 28 -6 62 c-11 116
-86 314 -161 427 l-25 36 77 -22 c42 -13 104 -35 136 -51z m269 -215 c32 -17
76 -67 83 -95 4 -14 4 -50 2 -81 -4 -49 -10 -61 -41 -90 -32 -28 -44 -33 -88
-33 -55 0 -83 11 -116 47 -44 46 -53 156 -17 207 35 50 123 73 177 45z m161
-150 c30 -58 28 -63 -33 -97 l-41 -23 10 26 c6 14 10 58 10 97 0 82 10 81 54
-3z"/>
<path d="M2064 1700 c-56 -17 -69 -43 -69 -131 0 -71 3 -81 25 -104 27 -26
101 -46 144 -38 13 3 37 18 53 35 25 26 28 37 28 92 0 67 -17 104 -58 130 -30
20 -86 27 -123 16z m120 -52 c42 -42 53 -95 30 -144 -9 -20 -29 -40 -43 -46
-40 -15 -101 -3 -130 26 -22 23 -26 35 -26 85 0 79 27 111 93 111 36 0 50 -6
76 -32z"/>
<path d="M2366 1335 c-32 -20 -71 -38 -85 -41 -14 -3 -35 -12 -46 -20 -19 -14
-20 -28 -23 -208 -2 -106 1 -208 5 -227 8 -30 13 -34 37 -31 60 7 138 123 191
282 14 40 19 86 19 165 1 103 0 110 -19 113 -11 1 -46 -14 -79 -33z m83 -17
c-1 -19 -3 -25 -6 -13 -4 19 -10 17 -98 -25 l-94 -45 -1 -192 c0 -106 4 -193
8 -193 13 0 64 68 99 131 33 58 79 199 86 259 l4 35 1 -35 c4 -99 -76 -293
-156 -377 l-46 -48 -7 30 c-4 17 -7 112 -8 211 -1 199 -4 190 63 213 22 8 64
29 95 47 31 18 57 33 59 34 1 0 1 -15 1 -32z m-29 -65 c0 -44 -48 -189 -86
-258 -61 -111 -64 -109 -64 66 l0 154 68 32 c83 39 82 39 82 6z"/>
<path d="M97 1323 c-10 -64 9 -203 38 -276 50 -124 151 -253 191 -245 18 3 19
18 22 235 l2 231 -57 22 c-32 12 -75 32 -95 46 -21 13 -51 24 -67 24 -25 0
-29 -4 -34 -37z m128 -32 c22 -12 45 -21 52 -21 7 0 13 -4 13 -10 0 -5 -2 -10
-5 -10 -9 0 -127 59 -140 70 -10 8 -14 7 -18 -2 -3 -7 -6 -3 -6 10 l-1 24 33
-20 c17 -11 50 -29 72 -41z m-50 -21 c28 -12 65 -29 83 -37 l32 -13 0 -151 c0
-149 0 -151 -18 -128 -50 66 -85 139 -105 220 -12 49 -25 89 -29 89 -26 0 20
-180 64 -253 18 -28 48 -74 68 -102 l35 -50 3 55 c2 30 2 124 0 208 -2 98 1
151 7 149 8 -3 16 -437 8 -437 -6 0 -39 36 -74 80 -48 60 -96 157 -113 227
-19 76 -30 176 -19 171 4 -3 31 -15 58 -28z"/>
<path d="M797 1313 c-4 -3 -7 -37 -7 -75 0 -288 96 -552 251 -692 63 -56 94
-61 101 -14 6 43 4 696 -2 702 -3 2 -59 16 -125 31 -66 15 -135 33 -154 41
-37 15 -54 17 -64 7z m198 -68 c55 -13 90 -24 77 -24 -35 -1 -173 29 -204 45
-45 23 -50 19 -47 -46 1 -33 -1 -63 -4 -67 -4 -3 -7 28 -7 70 l0 76 43 -15
c23 -9 87 -26 142 -39z m-129 -4 c8 -9 133 -36 194 -43 l25 -3 3 -297 c1 -164
-1 -298 -5 -298 -11 0 -62 65 -100 125 -50 79 -91 195 -118 331 -33 165 -33
217 1 185z m259 -371 c0 -253 -3 -350 -11 -350 -21 0 -142 138 -180 206 -49
88 -103 260 -109 348 -5 68 -4 66 20 -46 45 -213 125 -372 234 -463 l26 -23
-2 339 c-2 263 0 339 10 339 9 0 12 -79 12 -350z"/>
<path d="M1720 1310 c-14 -8 -155 -45 -255 -66 l-40 -9 -3 -367 -2 -368 26 0
c56 0 165 121 227 250 60 127 96 288 110 492 5 72 -17 96 -63 68z m41 -23 c-1
-4 -2 -33 -2 -64 -1 -55 -2 -56 -9 -19 -4 21 -5 47 -3 58 6 22 9 22 -58 -1
-30 -11 -86 -25 -124 -31 -39 -6 -80 -15 -92 -20 l-23 -10 0 -330 c0 -322 1
-330 19 -321 52 28 131 137 184 251 30 66 70 210 87 310 9 52 9 51 4 -19 -13
-175 -105 -391 -214 -503 -37 -37 -72 -68 -79 -68 -14 0 -16 686 -2 695 8 5
49 14 126 30 74 15 137 33 155 45 16 10 32 9 31 -3z m-36 -107 c-10 -99 -57
-283 -92 -360 -37 -80 -81 -151 -125 -199 l-33 -36 -3 294 c-1 177 1 298 7
304 5 5 46 16 91 24 44 7 97 20 118 27 20 8 39 14 41 15 1 0 0 -31 -4 -69z"/>
<path d="M607 1285 c-43 -13 -81 -26 -85 -30 -9 -8 -13 -571 -5 -604 5 -18 28
-34 107 -71 56 -27 120 -53 143 -59 23 -6 70 -20 104 -31 34 -11 77 -20 95
-20 29 0 34 3 34 25 0 13 -8 32 -18 42 -89 87 -207 330 -227 468 -3 22 -9 65
-15 95 -5 30 -12 87 -15 127 -5 55 -11 72 -24 76 -9 2 -52 -6 -94 -18z m92
-22 c-1 -19 -3 -22 -6 -10 -3 10 -10 16 -16 14 -7 -2 -37 -12 -68 -22 l-57
-18 0 -283 c0 -206 3 -285 11 -291 45 -32 305 -133 343 -133 13 0 24 -4 24
-10 0 -13 7 -13 -74 10 -95 27 -200 69 -266 105 l-55 31 0 289 0 290 80 27
c44 14 81 27 83 27 1 1 1 -11 1 -26z m-6 -37 c15 5 17 -2 17 -52 0 -33 4 -75
9 -94 5 -19 12 -57 16 -85 8 -66 58 -214 97 -289 18 -34 58 -96 90 -138 40
-53 53 -78 43 -78 -9 0 -21 14 -26 30 -6 17 -14 30 -19 30 -11 0 -86 120 -120
193 -51 107 -100 303 -100 399 0 31 -4 60 -10 63 -6 4 -10 -21 -10 -67 1 -164
78 -407 176 -552 22 -33 23 -38 8 -32 -11 5 -53 20 -94 35 -41 16 -102 41
-135 57 l-60 29 -3 266 -2 265 47 15 c27 9 51 12 54 7 3 -5 13 -6 22 -2z"/>
<path d="M1853 1303 c-9 -3 -13 -28 -13 -77 0 -115 -40 -309 -86 -412 -44
-100 -58 -129 -65 -134 -3 -3 -13 -18 -22 -35 -8 -16 -33 -51 -56 -77 -42 -47
-52 -84 -26 -94 34 -13 281 63 398 122 71 36 67 14 67 355 l0 307 -67 20 c-88
26 -115 31 -130 25z m135 -52 l42 -12 0 -295 0 -295 -107 -51 c-96 -44 -320
-114 -331 -103 -2 2 16 27 41 56 24 28 51 63 58 78 8 14 16 28 19 31 12 12 31
54 64 137 44 115 62 181 73 275 3 26 9 46 13 43 22 -14 -42 -266 -98 -385 -30
-64 -111 -190 -122 -190 -4 0 -10 -6 -13 -14 -4 -10 3 -11 36 -5 76 15 237 75
325 122 l23 12 2 287 2 286 -55 17 c-30 9 -60 18 -66 21 -8 3 -15 -20 -22 -68
l-10 -73 0 75 c1 41 2 78 4 82 2 3 21 0 42 -7 20 -7 56 -18 80 -24z m-32 -32
l44 -11 -2 -266 -3 -266 -25 -13 c-88 -44 -144 -68 -207 -88 -70 -22 -77 -20
-47 15 27 32 93 179 123 273 18 56 35 140 41 195 12 117 20 172 26 172 3 0 25
-5 50 -11z"/>
</g>
</svg>
