<?xml version="1.0" standalone="no"?>
<!DOCTYPE svg PUBLIC "-//W3C//DTD SVG 20010904//EN"
 "http://www.w3.org/TR/2001/REC-SVG-20010904/DTD/svg10.dtd">
<svg version="1.0" xmlns="http://www.w3.org/2000/svg"
 width="100.000000pt" height="100.000000pt" viewBox="0 0 100.000000 100.000000"
 preserveAspectRatio="xMidYMid meet">
<metadata>
Created by potrace 1.16, written by Peter Selinger 2001-2019
</metadata>
<g transform="translate(0.000000,100.000000) scale(0.100000,-0.100000)"
fill="#000000" stroke="none">
<path d="M230 875 c0 -10 -10 -15 -30 -15 -20 0 -30 -5 -30 -15 0 -8 -7 -15
-15 -15 -8 0 -15 -7 -15 -15 0 -8 -7 -15 -15 -15 -8 0 -15 -7 -15 -15 0 -8 -9
-15 -20 -15 -16 0 -20 -7 -20 -30 0 -20 -5 -30 -15 -30 -10 0 -15 -10 -15 -30
0 -20 -5 -30 -15 -30 -13 0 -15 -25 -15 -165 0 -140 2 -165 15 -165 10 0 15
-10 15 -30 0 -20 5 -30 15 -30 10 0 15 -10 15 -30 0 -23 4 -30 20 -30 11 0 20
-7 20 -15 0 -8 7 -15 15 -15 8 0 15 -7 15 -15 0 -10 10 -15 30 -15 20 0 30 -5
30 -15 0 -10 10 -15 30 -15 23 0 30 -4 30 -20 0 -19 7 -20 160 -20 153 0 160
1 160 20 0 11 5 20 10 20 6 0 10 -9 10 -20 0 -19 7 -20 195 -20 l195 0 0 85
c0 69 -3 85 -15 85 -11 0 -15 12 -15 45 0 33 -4 45 -15 45 -12 0 -15 14 -15
65 0 58 -2 65 -20 65 -17 0 -20 7 -20 45 0 33 -4 45 -15 45 -11 0 -15 12 -15
50 0 38 -4 50 -15 50 -12 0 -15 13 -15 60 0 47 -3 60 -15 60 -11 0 -15 12 -15
45 0 33 -4 45 -15 45 -8 0 -15 7 -15 15 0 13 -37 15 -270 15 -233 0 -270 -2
-270 -15z m520 -20 c0 -8 7 -15 15 -15 11 0 15 -12 15 -45 0 -33 4 -45 15 -45
12 0 15 -13 15 -60 0 -47 3 -60 15 -60 11 0 15 -12 15 -50 0 -38 4 -50 15 -50
11 0 15 -12 15 -45 0 -38 3 -45 20 -45 18 0 20 -7 20 -65 0 -51 3 -65 15 -65
11 0 15 -12 15 -45 0 -33 4 -45 15 -45 12 0 15 -14 15 -65 l0 -65 -175 0
c-168 0 -175 1 -175 20 0 16 -7 20 -30 20 -23 0 -30 -4 -30 -20 0 -19 -7 -20
-140 -20 -133 0 -140 1 -140 20 0 16 -7 20 -30 20 -20 0 -30 5 -30 15 0 10
-10 15 -30 15 -20 0 -30 5 -30 15 0 8 -7 15 -15 15 -8 0 -15 7 -15 15 0 8 -9
15 -20 15 -16 0 -20 7 -20 30 0 20 -5 30 -15 30 -10 0 -15 10 -15 30 0 20 -5
30 -15 30 -13 0 -15 23 -15 145 0 122 2 145 15 145 10 0 15 10 15 30 0 20 5
30 15 30 10 0 15 10 15 30 0 23 4 30 20 30 11 0 20 7 20 15 0 8 7 15 15 15 8
0 15 7 15 15 0 8 7 15 15 15 8 0 15 7 15 15 0 10 10 15 30 15 20 0 30 5 30 15
0 13 34 15 250 15 216 0 250 -2 250 -15z"/>
<path d="M478 653 c7 -3 16 -2 19 1 4 3 -2 6 -13 5 -11 0 -14 -3 -6 -6z"/>
<path d="M472 368 l3 -263 2 253 c2 156 7 252 13 252 6 0 10 5 10 10 0 6 -7
10 -15 10 -13 0 -15 -35 -13 -262z"/>
<path d="M510 545 c9 -10 9 -15 1 -15 -8 0 -10 -61 -9 -212 l2 -213 7 180 c4
99 10 201 14 228 6 40 5 47 -10 47 -14 0 -15 -3 -5 -15z"/>
<path d="M546 455 c4 -8 1 -15 -5 -15 -8 0 -10 -51 -9 -167 l2 -168 8 115 c4
63 10 145 14 183 4 44 2 67 -5 67 -6 0 -8 -7 -5 -15z"/>
<path d="M575 360 c3 -11 2 -20 -3 -20 -5 0 -10 -43 -10 -97 -1 -100 1 -107
13 -40 8 52 24 47 18 -6 -4 -34 -2 -45 11 -50 14 -6 16 3 16 63 0 39 -4 70
-10 70 -5 0 -7 -7 -4 -15 4 -8 1 -15 -5 -15 -7 0 -11 24 -11 65 0 39 -4 65
-11 65 -6 0 -8 -9 -4 -20z"/>
<path d="M640 175 c0 -8 5 -15 10 -15 6 0 10 7 10 15 0 8 -4 15 -10 15 -5 0
-10 -7 -10 -15z"/>
<path d="M645 140 c-3 -5 -1 -10 4 -10 6 0 11 5 11 10 0 6 -2 10 -4 10 -3 0
-8 -4 -11 -10z"/>
</g>
</svg>
