<?xml version="1.0" standalone="no"?>
<!DOCTYPE svg PUBLIC "-//W3C//DTD SVG 20010904//EN"
 "http://www.w3.org/TR/2001/REC-SVG-20010904/DTD/svg10.dtd">
<svg version="1.0" xmlns="http://www.w3.org/2000/svg"
 width="100.000000pt" height="100.000000pt" viewBox="0 0 100.000000 100.000000"
 preserveAspectRatio="xMidYMid meet">
<metadata>
Created by potrace 1.16, written by Peter Selinger 2001-2019
</metadata>
<g transform="translate(0.000000,100.000000) scale(0.100000,-0.100000)"
fill="#000000" stroke="none">
<path d="M670 860 c0 -28 -3 -30 -35 -30 l-35 0 0 -50 0 -50 35 0 c19 0 35 -4
35 -10 0 -5 -16 -10 -35 -10 -32 0 -35 -2 -35 -30 0 -27 -3 -30 -30 -30 -28 0
-30 -3 -30 -35 0 -32 -2 -35 -30 -35 -27 0 -30 -3 -30 -30 0 -27 -3 -30 -30
-30 -27 0 -30 -3 -30 -30 0 -28 -3 -30 -35 -30 -32 0 -35 -2 -35 -30 0 -27 -3
-30 -30 -30 -28 0 -30 -3 -30 -35 0 -32 -2 -35 -30 -35 -27 0 -30 -3 -30 -30
0 -27 -3 -30 -30 -30 -27 0 -30 -3 -30 -30 l0 -30 -85 0 c-50 0 -85 -4 -85
-10 0 -6 38 -10 95 -10 l95 0 0 30 c0 27 3 30 30 30 27 0 30 -3 30 -30 l0 -30
185 0 185 0 0 95 0 95 -125 0 -125 0 0 30 c0 28 3 30 35 30 32 0 35 2 35 30 0
27 3 30 30 30 27 0 30 3 30 30 0 27 3 30 30 30 27 0 30 -3 30 -30 0 -27 3 -30
30 -30 27 0 30 3 30 30 0 27 -3 30 -30 30 -28 0 -30 3 -30 35 0 32 2 35 30 35
27 0 30 3 30 30 0 28 3 30 35 30 32 0 35 2 35 30 0 27 3 30 30 30 27 0 30 3
30 30 0 27 -3 30 -30 30 -27 0 -30 3 -30 30 l0 30 60 0 60 0 0 -215 0 -215 30
0 30 0 0 -95 0 -95 65 0 c37 0 65 4 65 10 0 6 -25 10 -55 10 l-55 0 0 95 0 95
-30 0 -30 0 0 215 0 215 -80 0 -80 0 0 -30z m20 -80 c0 -28 -3 -30 -35 -30
-32 0 -35 2 -35 30 0 28 3 30 35 30 32 0 35 -2 35 -30z m40 0 c0 -5 -4 -10
-10 -10 -5 0 -10 5 -10 10 0 6 5 10 10 10 6 0 10 -4 10 -10z m-130 -250 c0 -5
-4 -10 -10 -10 -5 0 -10 5 -10 10 0 6 5 10 10 10 6 0 10 -4 10 -10z m-230
-185 c0 -32 -2 -35 -30 -35 -28 0 -30 3 -30 35 0 32 2 35 30 35 28 0 30 -3 30
-35z m230 -60 l0 -75 -165 0 c-103 0 -165 4 -165 10 0 6 14 10 30 10 27 0 30
3 30 30 0 27 3 30 30 30 28 0 30 3 30 35 l0 35 105 0 105 0 0 -75z m-290 -5
c0 -27 -3 -30 -30 -30 -27 0 -30 3 -30 30 0 27 3 30 30 30 27 0 30 -3 30 -30z"/>
<path d="M750 840 c0 -5 5 -10 10 -10 6 0 10 5 10 10 0 6 -4 10 -10 10 -5 0
-10 -4 -10 -10z"/>
<path d="M710 700 c0 -5 9 -10 20 -10 19 0 20 -7 20 -95 l0 -95 -55 0 c-32 0
-55 -4 -55 -11 0 -14 112 -9 122 5 4 6 8 48 8 94 0 69 -3 85 -20 102 -22 22
-40 26 -40 10z"/>
<path d="M670 660 c0 -5 -7 -10 -15 -10 -8 0 -15 -4 -15 -10 0 -5 11 -10 25
-10 18 0 25 5 25 20 0 11 -4 20 -10 20 -5 0 -10 -4 -10 -10z"/>
<path d="M600 595 c0 -8 5 -15 10 -15 6 0 10 7 10 15 0 8 -4 15 -10 15 -5 0
-10 -7 -10 -15z"/>
<path d="M682 540 c0 -14 2 -19 5 -12 2 6 2 18 0 25 -3 6 -5 1 -5 -13z"/>
<path d="M460 450 c0 -6 55 -10 145 -10 l145 0 0 -65 0 -65 -30 0 c-28 0 -30
3 -30 35 0 19 -4 35 -10 35 -5 0 -10 -16 -10 -35 0 -19 5 -35 10 -35 6 0 10
-22 10 -50 0 -27 5 -50 10 -50 6 0 10 18 10 40 0 22 5 40 10 40 6 0 10 -18 10
-40 0 -22 5 -40 10 -40 6 0 10 23 10 50 0 48 1 50 28 50 23 1 25 2 11 13 -8 7
-18 22 -21 35 -5 17 -2 22 15 23 16 1 17 3 6 6 -9 2 -19 17 -22 32 -4 19 -14
31 -29 35 -39 10 -278 7 -278 -4z"/>
<path d="M420 410 c0 -5 5 -10 10 -10 6 0 10 5 10 10 0 6 -4 10 -10 10 -5 0
-10 -4 -10 -10z"/>
<path d="M620 410 c0 -5 5 -10 10 -10 6 0 10 5 10 10 0 6 -4 10 -10 10 -5 0
-10 -4 -10 -10z"/>
<path d="M708 383 c7 -3 16 -2 19 1 4 3 -2 6 -13 5 -11 0 -14 -3 -6 -6z"/>
<path d="M811 267 c-1 -86 2 -112 14 -124 9 -8 19 -12 23 -8 4 4 1 10 -5 12
-7 3 -13 13 -13 23 0 10 6 21 13 23 10 4 10 6 0 6 -9 1 -13 20 -14 59 -3 113
-17 121 -18 9z"/>
<path d="M640 260 c0 -5 7 -10 15 -10 8 0 15 5 15 10 0 6 -7 10 -15 10 -8 0
-15 -4 -15 -10z"/>
<path d="M920 190 c0 -22 5 -40 10 -40 6 0 10 18 10 40 0 22 -4 40 -10 40 -5
0 -10 -18 -10 -40z"/>
<path d="M960 200 c0 -5 9 -10 20 -10 11 0 20 5 20 10 0 6 -9 10 -20 10 -11 0
-20 -4 -20 -10z"/>
<path d="M640 180 c0 -5 7 -10 15 -10 8 0 15 5 15 10 0 6 -7 10 -15 10 -8 0
-15 -4 -15 -10z"/>
<path d="M690 160 c0 -28 -3 -30 -35 -30 -33 0 -35 -2 -35 -35 l0 -35 -310 0
c-200 0 -310 -4 -310 -10 0 -6 113 -10 320 -10 l320 0 0 35 c0 33 2 35 35 35
32 0 35 2 35 30 0 17 5 30 10 30 6 0 10 -13 10 -30 0 -27 3 -30 30 -30 28 0
30 -3 30 -35 l0 -35 50 0 50 0 0 35 c0 24 5 35 15 35 10 0 15 -11 15 -35 0
-34 1 -35 40 -35 22 0 40 5 40 10 0 6 -13 10 -30 10 -28 0 -30 3 -30 35 0 33
-2 35 -35 35 -33 0 -35 -2 -35 -35 0 -32 -2 -35 -30 -35 -28 0 -30 3 -30 35 0
32 -2 35 -30 35 -27 0 -30 3 -30 30 0 27 -3 30 -30 30 -27 0 -30 -3 -30 -30z"/>
<path d="M60 150 c0 -19 6 -20 218 -19 143 1 202 4 172 10 -25 4 -118 8 -207
8 -102 1 -163 5 -163 11 0 6 -4 10 -10 10 -5 0 -10 -9 -10 -20z"/>
<path d="M554 145 c1 -13 8 -20 24 -21 17 -1 18 -1 3 3 -11 2 -22 12 -24 21
-3 12 -4 11 -3 -3z"/>
<path d="M61 94 c0 -11 3 -14 6 -6 3 7 2 16 -1 19 -3 4 -6 -2 -5 -13z"/>
<path d="M371 94 c0 -11 3 -14 6 -6 3 7 2 16 -1 19 -3 4 -6 -2 -5 -13z"/>
<path d="M501 94 c0 -11 3 -14 6 -6 3 7 2 16 -1 19 -3 4 -6 -2 -5 -13z"/>
</g>
</svg>
