<?xml version="1.0" standalone="no"?>
<!DOCTYPE svg PUBLIC "-//W3C//DTD SVG 20010904//EN"
 "http://www.w3.org/TR/2001/REC-SVG-20010904/DTD/svg10.dtd">
<svg version="1.0" xmlns="http://www.w3.org/2000/svg"
 width="192.000000pt" height="192.000000pt" viewBox="0 0 192.000000 192.000000"
 preserveAspectRatio="xMidYMid meet">
<metadata>
Created by potrace 1.16, written by Peter Selinger 2001-2019
</metadata>
<g transform="translate(0.000000,192.000000) scale(0.100000,-0.100000)"
fill="#000000" stroke="none">
<path d="M10 955 c0 -630 3 -955 10 -955 7 0 10 322 10 945 l0 945 945 0 c623
0 945 3 945 10 0 7 -325 10 -955 10 l-955 0 0 -955z"/>
<path d="M863 1745 c-44 -19 -57 -48 -58 -136 -1 -77 -1 -77 -48 -129 -39 -43
-52 -69 -77 -149 -17 -53 -39 -141 -50 -196 -11 -55 -30 -126 -41 -157 -23
-63 -20 -122 7 -132 26 -10 69 -7 83 6 10 11 11 4 6 -32 -17 -116 -27 -157
-44 -181 -10 -14 -33 -54 -51 -90 -18 -35 -48 -85 -66 -110 -49 -68 -47 -109
9 -161 53 -50 100 -71 138 -63 24 5 29 12 29 35 0 19 -7 33 -20 40 -44 23 -36
52 48 174 54 78 89 142 108 196 16 44 31 80 34 80 3 0 16 -19 29 -43 31 -55
205 -404 220 -441 10 -25 15 -28 49 -23 33 5 128 34 190 58 16 6 22 17 22 39
0 34 -10 38 -99 42 -55 3 -55 3 -79 52 -13 26 -59 150 -102 275 -43 124 -87
250 -99 279 -12 31 -16 52 -10 52 6 0 35 -25 64 -55 60 -61 99 -71 135 -35 35
35 25 82 -24 107 -17 9 -65 47 -107 86 l-77 69 -7 72 c-4 39 -13 101 -22 138
-15 70 -12 88 13 88 29 0 54 61 54 130 0 78 -15 105 -68 120 -46 12 -50 12
-89 -5z m107 -35 c25 -25 34 -61 27 -107 -8 -47 -33 -83 -58 -83 -19 0 -20 -5
-16 -52 2 -29 12 -105 20 -168 l17 -115 72 -68 c40 -38 90 -77 111 -88 32 -17
38 -25 35 -47 -2 -21 -9 -28 -32 -30 -23 -3 -34 4 -58 32 -31 37 -109 96 -127
96 -16 0 -13 -56 3 -88 8 -15 53 -140 100 -277 47 -138 98 -275 114 -305 l27
-55 72 -5 c39 -3 74 -8 78 -12 14 -13 -6 -26 -57 -39 -29 -6 -73 -20 -96 -31
-44 -18 -62 -17 -62 5 0 7 -61 135 -137 285 l-137 272 -36 -102 c-44 -126 -45
-127 -136 -261 -41 -59 -74 -114 -74 -123 0 -23 27 -71 45 -77 26 -11 16 -27
-16 -27 -23 0 -43 13 -85 51 -30 29 -54 58 -54 66 0 8 13 31 29 51 15 20 47
73 71 117 24 44 51 90 60 102 12 15 22 58 30 125 6 57 20 160 31 229 29 190
24 215 -17 94 -18 -55 -33 -112 -34 -127 0 -61 -36 -102 -66 -77 -18 15 -18
62 0 97 8 15 23 74 35 132 23 113 65 260 86 300 7 14 32 44 54 67 l41 42 0 86
c0 78 2 88 25 110 31 31 86 34 115 5z"/>
</g>
</svg>
