<?xml version="1.0" standalone="no"?>
<!DOCTYPE svg PUBLIC "-//W3C//DTD SVG 20010904//EN"
 "http://www.w3.org/TR/2001/REC-SVG-20010904/DTD/svg10.dtd">
<svg version="1.0" xmlns="http://www.w3.org/2000/svg"
 width="256.000000pt" height="256.000000pt" viewBox="0 0 256.000000 256.000000"
 preserveAspectRatio="xMidYMid meet">
<metadata>
Created by potrace 1.16, written by Peter Selinger 2001-2019
</metadata>
<g transform="translate(0.000000,256.000000) scale(0.100000,-0.100000)"
fill="#000000" stroke="none">
<path d="M10 1275 c0 -843 3 -1275 10 -1275 7 0 10 428 10 1265 l0 1265 1265
0 c837 0 1265 3 1265 10 0 7 -432 10 -1275 10 l-1275 0 0 -1275z"/>
<path d="M1150 2317 c-57 -30 -74 -72 -67 -171 6 -87 -6 -130 -44 -158 -77
-57 -138 -214 -199 -507 -15 -75 -37 -160 -49 -189 -39 -99 -21 -162 47 -162
21 0 48 7 61 17 l24 16 -7 -89 c-9 -123 -27 -192 -63 -245 -17 -24 -50 -82
-73 -129 -23 -47 -60 -107 -81 -134 -31 -39 -39 -57 -39 -90 0 -37 6 -46 70
-108 74 -71 118 -90 169 -72 36 13 40 52 8 79 -13 11 -32 34 -41 52 -18 35
-26 19 130 244 58 84 99 168 134 277 12 40 26 69 30 65 5 -4 21 -33 38 -63 16
-30 45 -84 64 -120 56 -102 216 -429 237 -482 9 -24 16 -28 48 -28 21 0 67 11
103 25 36 13 91 32 123 40 55 16 57 17 57 51 0 44 -24 54 -125 54 -66 0 -74 2
-89 25 -28 43 -80 182 -212 569 -41 120 -81 231 -89 247 -8 15 -15 37 -15 49
0 20 2 19 45 -10 24 -17 63 -53 86 -80 40 -47 45 -50 90 -50 58 0 79 18 79 69
0 40 -20 66 -75 94 -16 9 -74 57 -127 109 l-98 93 -10 108 c-5 60 -17 135 -25
169 -22 82 -17 121 15 128 75 18 106 213 44 282 -44 48 -112 58 -174 25z m149
-42 c24 -23 26 -33 26 -105 0 -89 -21 -133 -68 -138 -37 -4 -45 -54 -23 -133
9 -33 23 -117 31 -188 l14 -128 63 -60 c111 -105 152 -140 185 -157 31 -15 53
-43 53 -65 0 -19 -32 -41 -61 -41 -22 0 -34 8 -54 38 -24 37 -82 85 -157 131
l-38 23 0 -44 c0 -25 13 -74 30 -117 17 -40 59 -160 94 -265 128 -379 189
-534 218 -553 7 -4 53 -10 103 -13 71 -4 90 -8 93 -21 2 -12 -16 -21 -75 -38
-43 -12 -101 -31 -130 -43 -28 -11 -57 -18 -65 -15 -8 2 -20 24 -27 48 -7 23
-35 81 -62 128 -26 47 -60 114 -74 149 -14 35 -49 104 -77 155 -28 51 -72 136
-98 190 l-47 98 -11 -38 c-19 -70 -72 -215 -99 -267 -14 -28 -68 -112 -119
-187 -61 -88 -94 -146 -94 -163 0 -37 24 -80 55 -100 32 -21 24 -36 -20 -36
-53 0 -185 115 -185 161 0 9 17 37 38 62 20 25 57 86 82 134 25 48 60 110 78
137 37 55 53 132 72 333 6 68 17 146 24 175 8 29 16 98 20 153 l6 100 -44
-134 c-25 -74 -47 -159 -51 -190 -4 -30 -11 -63 -16 -72 -12 -24 -44 -32 -69
-19 -26 14 -27 72 -1 131 11 24 31 105 46 179 28 139 85 342 112 395 8 16 41
56 72 88 l56 58 1 110 c1 119 12 148 65 177 36 19 97 8 128 -23z"/>
</g>
</svg>
