<?xml version="1.0" standalone="no"?>
<!DOCTYPE svg PUBLIC "-//W3C//DTD SVG 20010904//EN"
 "http://www.w3.org/TR/2001/REC-SVG-20010904/DTD/svg10.dtd">
<svg version="1.0" xmlns="http://www.w3.org/2000/svg"
 width="240.000000pt" height="240.000000pt" viewBox="0 0 240.000000 240.000000"
 preserveAspectRatio="xMidYMid meet">
<metadata>
Created by potrace 1.16, written by Peter Selinger 2001-2019
</metadata>
<g transform="translate(0.000000,240.000000) scale(0.100000,-0.100000)"
fill="#000000" stroke="none">
<path d="M1100 2152 c0 -6 -8 -13 -17 -15 -10 -3 2 -3 27 -1 38 3 40 2 14 -5
-17 -4 -36 -11 -43 -15 -6 -4 -19 -2 -28 6 -14 11 -16 11 -11 -3 7 -18 -27
-44 -57 -44 -12 0 -20 -7 -20 -17 0 -10 -6 -23 -13 -30 -6 -6 -12 -18 -12 -25
0 -7 -7 -10 -15 -7 -9 4 -18 -1 -22 -12 -6 -16 -7 -16 -14 2 -5 14 -7 10 -6
-14 l0 -34 16 26 c14 23 39 39 29 19 -24 -50 -46 -73 -70 -73 -15 0 -30 -5
-34 -12 -5 -8 2 -9 24 -5 33 7 45 -8 17 -19 -8 -4 -15 -11 -15 -18 0 -19 -46
-107 -52 -100 -10 9 -49 -6 -42 -17 3 -5 14 -7 25 -4 10 4 19 2 19 -4 0 -5 -9
-13 -20 -16 -21 -7 -28 -25 -9 -25 5 0 8 -4 4 -10 -3 -5 -13 -7 -23 -4 -12 4
-13 3 -4 -3 10 -8 10 -16 -1 -43 -10 -22 -16 -28 -21 -19 -3 8 -3 4 0 -8 3
-13 1 -23 -3 -23 -5 0 -22 -31 -38 -69 -18 -42 -33 -65 -37 -58 -5 7 -8 2 -8
-13 0 -14 -7 -34 -15 -44 -8 -11 -15 -31 -15 -45 0 -21 -2 -23 -10 -11 -8 12
-10 10 -10 -8 0 -34 -18 -62 -35 -56 -8 4 -15 1 -15 -5 0 -6 5 -11 11 -11 6 0
2 -16 -10 -36 -12 -19 -21 -41 -21 -49 0 -23 -22 -65 -31 -59 -5 3 -6 -2 -3
-10 3 -8 -1 -25 -10 -38 -32 -50 -77 -182 -78 -232 -2 -75 5 -156 14 -156 5 0
6 -12 2 -27 -4 -19 -3 -24 4 -14 8 11 11 11 18 0 4 -7 3 -14 -4 -17 -8 -2 -7
-12 3 -33 16 -31 30 -37 38 -16 6 12 11 -16 8 -43 -2 -12 0 -12 7 -1 12 16 20
4 17 -27 -1 -13 3 -21 9 -19 6 2 10 13 8 23 -2 16 1 15 20 -6 13 -14 28 -25
33 -26 6 0 33 -11 60 -24 74 -34 173 -38 266 -11 39 13 82 29 95 38 22 14 24
14 33 -8 7 -17 10 -19 10 -7 1 10 10 22 22 28 11 7 18 14 15 17 -3 3 -12 0
-21 -7 -9 -7 -18 -10 -21 -8 -6 7 58 48 74 48 6 0 12 5 14 11 2 6 15 12 30 12
16 1 24 7 21 15 -4 10 -9 10 -19 1 -12 -10 -13 -9 -8 5 8 20 18 20 38 0 12
-12 16 -12 16 -2 1 8 6 7 15 -5 10 -15 21 -17 46 -12 22 5 29 4 25 -4 -4 -6
-1 -11 7 -11 18 0 49 -34 40 -44 -5 -4 1 -6 12 -4 12 2 19 -2 17 -10 -1 -7 3
-12 10 -11 7 1 33 -7 58 -18 58 -26 137 -43 199 -43 46 0 164 32 187 51 6 5
14 6 17 2 4 -3 7 -1 7 5 0 6 7 9 17 5 10 -4 14 -2 10 4 -4 5 5 21 18 33 14 13
25 20 25 15 0 -4 -8 -14 -17 -22 -17 -14 -17 -14 0 -9 18 6 24 -9 7 -17 -6 -3
-5 -4 2 -3 8 1 14 21 16 45 2 23 7 39 13 36 5 -4 9 1 9 9 0 9 6 13 14 10 18
-7 33 16 17 26 -9 5 -7 20 10 55 19 41 22 63 20 134 -1 47 -3 111 -4 141 0 30
-3 47 -5 38 -2 -10 -7 -18 -11 -18 -6 0 -34 62 -36 80 0 3 -5 12 -10 20 -5 8
-22 39 -38 69 -22 42 -25 56 -15 62 8 5 9 9 2 9 -22 0 -59 74 -59 117 0 39
-11 50 -27 28 -4 -6 -8 -2 -8 8 0 20 -30 80 -42 85 -5 2 -8 7 -8 12 0 17 -64
150 -72 150 -4 0 -8 5 -8 12 0 20 -50 118 -61 118 -5 0 -9 6 -8 13 2 19 -12
57 -22 57 -5 0 -9 7 -9 15 0 18 17 20 22 3 3 -8 7 -6 10 4 5 12 1 15 -18 13
-18 -2 -26 3 -30 21 -3 13 -12 28 -20 35 -8 6 -11 16 -7 22 4 6 1 7 -7 2 -9
-6 -10 -2 -5 15 5 15 4 20 -3 16 -12 -7 -37 32 -28 42 3 3 6 0 6 -6 0 -16 17
-15 23 2 4 10 -3 12 -26 10 -16 -2 -27 -1 -24 3 4 3 2 12 -3 18 -6 7 -11 24
-12 38 -1 14 -6 23 -10 21 -4 -3 -29 5 -55 17 -38 17 -44 23 -30 31 19 10 23
28 6 28 -5 0 -8 -4 -5 -9 9 -14 -37 -21 -69 -11 -28 9 -27 10 9 5 35 -4 38 -3
25 11 -12 12 -21 12 -48 3 -30 -11 -110 -7 -146 7 -8 4 -15 1 -15 -4z m213
-59 c96 -37 125 -81 354 -544 282 -567 313 -642 313 -750 0 -162 -94 -288
-254 -339 -55 -18 -81 -21 -133 -16 -118 12 -251 83 -344 183 l-46 49 -52 -52
c-108 -106 -229 -170 -346 -181 -119 -11 -264 62 -331 168 -58 93 -71 213 -33
316 53 144 446 954 507 1043 91 134 222 178 365 123z m-323 -27 c0 -3 -4 -8
-10 -11 -5 -3 -10 -1 -10 4 0 6 5 11 10 11 6 0 10 -2 10 -4z m431 -13 c13 -16
12 -17 -3 -4 -10 7 -18 15 -18 17 0 8 8 3 21 -13z m-186 -1453 c22 -23 25 -30
12 -30 -9 0 -17 7 -17 16 0 11 -6 15 -19 11 -19 -5 -36 15 -24 27 11 11 19 7
48 -24z m-780 0 c3 -5 1 -10 -4 -10 -6 0 -11 5 -11 10 0 6 2 10 4 10 3 0 8 -4
11 -10z"/>
<path d="M1115 2071 c-3 -5 0 -13 6 -17 7 -4 9 -3 5 4 -3 5 0 13 6 15 9 4 10
6 1 6 -6 1 -14 -3 -18 -8z"/>
<path d="M1250 2066 c0 -2 9 -6 20 -9 11 -3 20 -1 20 4 0 5 -9 9 -20 9 -11 0
-20 -2 -20 -4z"/>
<path d="M1075 2050 c-3 -5 -1 -10 4 -10 6 0 11 5 11 10 0 6 -2 10 -4 10 -3 0
-8 -4 -11 -10z"/>
<path d="M1198 2053 c6 -2 18 -2 25 0 6 3 1 5 -13 5 -14 0 -19 -2 -12 -5z"/>
<path d="M1310 2050 c0 -5 5 -10 11 -10 5 0 7 5 4 10 -3 6 -8 10 -11 10 -2 0
-4 -4 -4 -10z"/>
<path d="M1258 2033 c7 -3 16 -2 19 1 4 3 -2 6 -13 5 -11 0 -14 -3 -6 -6z"/>
<path d="M1021 2010 c10 -7 49 -2 49 5 0 2 -14 3 -31 3 -17 -1 -25 -4 -18 -8z"/>
<path d="M1124 1990 c-46 -19 -95 -101 -293 -504 -246 -497 -265 -538 -287
-612 -50 -174 75 -324 260 -312 80 5 149 39 244 119 72 61 84 85 59 111 -7 7
-27 33 -44 58 -105 154 -143 252 -143 370 0 112 28 169 117 240 32 26 103 45
168 45 106 0 174 -37 254 -140 4 -6 14 -35 21 -64 30 -124 -25 -299 -145 -459
-30 -40 -55 -77 -55 -82 0 -18 141 -137 196 -165 151 -77 322 -26 373 111 25
66 27 127 5 191 -30 88 -293 635 -437 908 -67 127 -99 168 -145 186 -29 11
-120 11 -148 -1z m176 -51 c60 -65 72 -80 66 -86 -3 -3 1 -12 9 -19 7 -8 11
-23 8 -35 -4 -15 -2 -20 5 -15 6 3 13 2 17 -4 3 -5 1 -10 -5 -10 -6 0 1 -12
15 -27 14 -16 26 -41 26 -58 1 -18 3 -23 6 -12 6 21 78 -119 74 -143 -2 -8 1
-12 5 -8 9 10 85 -143 77 -156 -3 -5 -1 -6 4 -3 14 9 23 -15 17 -41 -3 -10 1
-25 8 -33 36 -38 56 -72 51 -86 -5 -12 -3 -14 7 -8 10 6 11 2 6 -18 -3 -14 -1
-36 4 -49 10 -22 10 -22 5 5 -3 15 -1 27 5 27 5 0 10 -6 10 -14 0 -7 12 -35
26 -62 18 -33 24 -58 21 -79 -3 -16 -3 -24 0 -17 8 20 25 14 18 -8 -5 -15 -3
-18 8 -14 18 7 31 -37 14 -48 -9 -5 -9 -10 1 -20 9 -9 12 -9 13 2 1 8 9 -9 18
-38 16 -48 16 -59 3 -110 -21 -83 -46 -111 -102 -112 l-45 -2 35 -13 35 -13
-31 -1 c-16 -1 -35 4 -42 11 -9 9 -15 9 -24 0 -9 -9 -7 -12 9 -12 12 0 24 -4
28 -9 6 -10 -24 -13 -113 -13 -53 0 -122 24 -122 42 0 6 -6 10 -13 10 -7 0
-22 7 -33 16 -19 15 -19 16 0 9 19 -6 19 -5 1 15 -10 11 -21 16 -25 11 -13
-22 -53 37 -44 66 3 10 -1 7 -9 -6 -9 -15 -17 -20 -21 -12 -4 6 -2 11 3 11 6
0 11 5 11 11 0 6 -7 9 -14 6 -10 -4 -13 -1 -9 9 3 8 12 13 19 10 8 -3 15 0 15
7 1 7 2 17 3 24 0 6 12 24 26 40 14 16 26 36 28 43 2 8 8 21 13 30 7 11 8 6 4
-15 -5 -28 -5 -29 5 -6 6 14 9 30 6 37 -3 7 2 20 9 31 14 17 14 17 15 -2 1
-19 1 -19 11 -1 8 13 8 20 0 26 -9 5 -7 20 8 56 24 62 52 349 31 314 -5 -7 -7
-29 -4 -49 2 -20 1 -27 -2 -16 -3 11 -12 34 -20 52 -8 18 -12 43 -8 58 4 15 2
25 -5 25 -6 0 -11 -7 -11 -16 0 -13 -3 -14 -14 -4 -8 6 -13 17 -10 25 7 16
-64 75 -91 75 -16 0 -17 -2 -5 -9 8 -6 17 -8 21 -5 4 2 13 -4 20 -13 12 -15
12 -16 -6 -8 -119 50 -192 57 -280 26 -31 -11 -53 -15 -50 -10 4 5 -1 9 -9 9
-10 0 -13 -6 -10 -15 5 -12 -1 -14 -27 -10 -19 3 -28 3 -21 -1 20 -10 14 -32
-22 -71 -18 -21 -36 -50 -40 -65 -3 -16 -12 -27 -18 -25 -7 1 -14 -6 -16 -17
-2 -11 0 -16 7 -12 12 8 15 -16 4 -28 -13 -12 -11 -236 1 -238 6 0 18 -1 26
-2 8 -1 35 -41 61 -90 26 -48 53 -92 60 -97 8 -5 10 -9 6 -9 -4 0 4 -11 18
-24 22 -20 24 -27 15 -51 -7 -18 -15 -25 -25 -21 -8 3 -15 1 -15 -4 0 -6 5
-10 12 -10 6 0 3 -6 -8 -14 -14 -11 -21 -11 -26 -3 -7 11 -12 3 -9 -15 1 -8
-62 -57 -108 -82 -24 -13 -56 -19 -105 -20 -71 -1 -141 18 -130 35 3 5 -4 9
-15 9 -15 0 -21 6 -21 21 0 12 -4 18 -11 13 -6 -3 -15 0 -20 7 -12 19 -11 32
1 24 6 -3 10 -1 10 4 0 6 -7 11 -15 11 -38 0 -50 105 -20 188 13 35 24 51 32
47 13 -4 39 42 29 52 -2 3 -7 -5 -11 -16 -3 -12 -11 -21 -16 -21 -6 0 1 21 14
48 61 118 92 187 89 195 -2 6 10 7 28 4 25 -6 28 -4 18 7 -7 8 -16 12 -20 9
-13 -7 -9 11 6 32 7 11 15 25 16 30 1 6 8 24 16 40 8 18 12 21 8 8 -3 -13 -1
-30 4 -38 6 -11 8 -3 9 27 0 39 12 73 68 190 35 73 51 98 59 91 4 -4 7 -1 5 7
-4 21 10 60 22 60 6 0 7 5 4 10 -3 6 -2 10 4 10 6 0 8 7 5 15 -4 8 1 17 10 21
9 3 16 15 16 25 0 20 16 26 22 9 2 -6 8 -6 18 0 13 8 12 10 -2 10 -22 0 -23
19 -2 48 8 12 12 22 7 22 -4 0 -3 4 2 8 6 4 16 20 23 36 7 16 15 26 19 23 3
-4 0 -13 -6 -21 -7 -8 -11 -23 -9 -33 2 -9 12 10 23 43 15 42 25 58 37 56 9
-1 18 4 22 13 4 11 21 15 62 15 53 0 58 -2 94 -41z m-381 -862 c14 -35 14 -34
-4 -34 -10 0 -13 6 -9 19 3 10 1 18 -4 18 -5 0 -9 24 -10 53 l0 52 8 -40 c5
-22 13 -53 19 -68z"/>
<path d="M1162 1961 c-11 -7 -10 -10 3 -15 23 -9 25 -8 25 9 0 17 -9 19 -28 6z"/>
<path d="M1240 1956 c40 -12 41 -14 16 -15 -37 -1 -31 -7 16 -14 37 -6 37 -5
19 14 -10 11 -36 22 -57 24 l-39 5 45 -14z"/>
<path d="M1105 1910 c-3 -5 -1 -10 4 -10 6 0 11 5 11 10 0 6 -2 10 -4 10 -3 0
-8 -4 -11 -10z"/>
<path d="M1090 1855 c0 -8 2 -15 4 -15 2 0 6 7 10 15 3 8 1 15 -4 15 -6 0 -10
-7 -10 -15z"/>
<path d="M1360 1811 c0 -25 6 -27 13 -6 4 8 2 17 -3 20 -6 4 -10 -3 -10 -14z"/>
<path d="M1360 1720 c0 -5 5 -10 10 -10 6 0 10 5 10 10 0 6 -4 10 -10 10 -5 0
-10 -4 -10 -10z"/>
<path d="M980 1700 c0 -13 11 -13 30 0 12 8 11 10 -7 10 -13 0 -23 -4 -23 -10z"/>
<path d="M1405 1690 c-3 -5 1 -10 10 -10 9 0 13 5 10 10 -3 6 -8 10 -10 10 -2
0 -7 -4 -10 -10z"/>
<path d="M947 1653 c-4 -3 -7 -13 -7 -22 1 -13 3 -13 11 2 11 19 8 33 -4 20z"/>
<path d="M1446 1635 c-11 -29 -7 -37 10 -20 11 11 13 20 7 26 -7 7 -12 5 -17
-6z"/>
<path d="M973 1513 c9 -2 23 -2 30 0 6 3 -1 5 -18 5 -16 0 -22 -2 -12 -5z"/>
<path d="M1424 1512 c-9 -5 -8 -10 1 -19 11 -10 13 -9 12 7 -1 11 -1 20 -2 20
0 0 -5 -4 -11 -8z"/>
<path d="M861 1480 c0 -14 28 -72 29 -59 0 4 -7 22 -15 40 -8 19 -14 27 -14
19z"/>
<path d="M1521 1467 c-1 -32 22 -33 27 -1 2 15 1 16 -6 5 -8 -11 -11 -10 -15
5 -3 13 -5 10 -6 -9z"/>
<path d="M1506 1427 c3 -10 9 -15 12 -12 3 3 0 11 -7 18 -10 9 -11 8 -5 -6z"/>
<path d="M920 1420 c0 -5 5 -10 10 -10 6 0 10 5 10 10 0 6 -4 10 -10 10 -5 0
-10 -4 -10 -10z"/>
<path d="M875 1371 c-3 -5 -1 -12 5 -16 5 -3 10 1 10 9 0 18 -6 21 -15 7z"/>
<path d="M1600 1340 c0 -5 5 -10 11 -10 5 0 7 5 4 10 -3 6 -8 10 -11 10 -2 0
-4 -4 -4 -10z"/>
<path d="M775 1257 c-12 -9 -14 -16 -7 -21 6 -3 16 3 22 14 13 24 10 25 -15 7z"/>
<path d="M1600 1239 c0 -5 5 -7 10 -4 6 3 10 8 10 11 0 2 -4 4 -10 4 -5 0 -10
-5 -10 -11z"/>
<path d="M707 1140 c-3 -11 -1 -20 4 -20 5 0 9 9 9 20 0 11 -2 20 -4 20 -2 0
-6 -9 -9 -20z"/>
<path d="M1511 1124 c0 -11 3 -14 6 -6 3 7 2 16 -1 19 -3 4 -6 -2 -5 -13z"/>
<path d="M682 1088 c5 -15 28 -23 28 -10 0 5 -7 13 -16 16 -10 4 -14 1 -12 -6z"/>
<path d="M1491 1057 c-12 -37 -5 -91 10 -81 5 3 9 0 9 -7 0 -7 3 -9 6 -6 4 4
-1 18 -10 33 -15 22 -16 30 -5 55 6 16 9 32 6 35 -3 3 -10 -10 -16 -29z"/>
<path d="M660 1055 c0 -8 2 -15 4 -15 2 0 6 7 10 15 3 8 1 15 -4 15 -6 0 -10
-7 -10 -15z"/>
<path d="M685 1050 c-3 -5 -1 -10 4 -10 6 0 11 5 11 10 0 6 -2 10 -4 10 -3 0
-8 -4 -11 -10z"/>
<path d="M911 976 c-10 -12 -8 -13 9 -9 25 7 37 23 17 23 -8 0 -20 -6 -26 -14z"/>
<path d="M1761 954 c0 -11 3 -14 6 -6 3 7 2 16 -1 19 -3 4 -6 -2 -5 -13z"/>
<path d="M963 910 c0 -23 3 -28 9 -16 5 9 5 23 0 32 -6 12 -9 7 -9 -16z"/>
<path d="M596 904 c-9 -24 -7 -27 9 -10 17 17 19 26 6 26 -5 0 -12 -7 -15 -16z"/>
<path d="M632 900 c0 -14 2 -19 5 -12 2 6 2 18 0 25 -3 6 -5 1 -5 -13z"/>
<path d="M1777 900 c3 -11 9 -20 13 -20 5 0 6 9 3 20 -3 11 -9 20 -13 20 -5 0
-6 -9 -3 -20z"/>
<path d="M990 810 c-13 -8 -12 -10 3 -10 9 0 17 5 17 10 0 12 -1 12 -20 0z"/>
<path d="M1056 791 c4 -16 3 -21 -5 -17 -6 4 -11 3 -11 -3 0 -5 4 -12 9 -15
14 -9 22 24 11 42 -9 14 -10 12 -4 -7z"/>
<path d="M1400 716 c0 -2 9 -6 20 -9 11 -3 20 -1 20 4 0 5 -9 9 -20 9 -11 0
-20 -2 -20 -4z"/>
<path d="M1760 711 c0 -5 5 -13 10 -16 6 -3 10 -2 10 4 0 5 -4 13 -10 16 -5 3
-10 2 -10 -4z"/>
<path d="M1796 704 c-11 -28 -6 -39 9 -20 8 11 15 23 15 28 0 14 -18 9 -24 -8z"/>
<path d="M960 674 c0 -14 3 -14 15 -4 8 7 15 14 15 16 0 2 -7 4 -15 4 -8 0
-15 -7 -15 -16z"/>
<path d="M1760 660 c0 -5 5 -10 11 -10 5 0 7 5 4 10 -3 6 -8 10 -11 10 -2 0
-4 -4 -4 -10z"/>
<path d="M705 630 c-8 -14 3 -30 21 -30 18 0 18 8 0 26 -9 9 -17 10 -21 4z"/>
<path d="M813 620 c-1 -11 2 -20 8 -20 5 0 9 9 9 20 0 11 -4 20 -8 20 -4 0 -8
-9 -9 -20z"/>
<path d="M872 631 c-11 -6 -10 -10 4 -15 9 -3 19 -4 22 -1 3 3 -1 5 -9 5 -11
0 -11 2 1 10 8 5 11 10 5 10 -5 0 -16 -4 -23 -9z"/>
<path d="M1490 631 c0 -5 7 -11 14 -14 10 -4 13 -1 9 9 -6 15 -23 19 -23 5z"/>
<path d="M1565 630 c-3 -5 1 -10 9 -10 9 0 16 5 16 10 0 6 -4 10 -9 10 -6 0
-13 -4 -16 -10z"/>
<path d="M786 619 c3 -6 0 -15 -7 -20 -11 -7 -10 -9 4 -9 10 0 17 8 17 20 0
11 -5 20 -11 20 -5 0 -7 -5 -3 -11z"/>
<path d="M1600 604 c0 -8 5 -12 10 -9 6 4 8 11 5 16 -9 14 -15 11 -15 -7z"/>
<path d="M1558 603 c6 -2 18 -2 25 0 6 3 1 5 -13 5 -14 0 -19 -2 -12 -5z"/>
<path d="M1010 1980 c-12 -8 -11 -10 7 -10 12 0 25 5 28 10 8 13 -15 13 -35 0z"/>
<path d="M1371 1974 c0 -11 3 -14 6 -6 3 7 2 16 -1 19 -3 4 -6 -2 -5 -13z"/>
<path d="M1400 1971 c0 -6 4 -13 10 -16 6 -3 7 1 4 9 -7 18 -14 21 -14 7z"/>
<path d="M975 1920 c-3 -5 -2 -10 4 -10 5 0 13 5 16 10 3 6 2 10 -4 10 -5 0
-13 -4 -16 -10z"/>
<path d="M1421 1921 c-7 -5 -12 -14 -10 -20 2 -6 10 -2 17 9 14 22 13 23 -7
11z"/>
<path d="M1522 1740 c7 -10 14 -18 15 -16 6 6 -9 36 -18 36 -5 0 -4 -9 3 -20z"/>
<path d="M890 1730 c0 -5 4 -10 9 -10 6 0 13 5 16 10 3 6 -1 10 -9 10 -9 0
-16 -4 -16 -10z"/>
<path d="M856 1721 c-4 -7 -5 -15 -2 -18 9 -9 19 4 14 18 -4 11 -6 11 -12 0z"/>
<path d="M1595 1590 c3 -5 8 -10 11 -10 2 0 4 5 4 10 0 6 -5 10 -11 10 -5 0
-7 -4 -4 -10z"/>
<path d="M790 1575 c0 -5 5 -17 10 -25 5 -8 10 -10 10 -5 0 6 -5 17 -10 25 -5
8 -10 11 -10 5z"/>
<path d="M1185 1440 c-8 -13 5 -13 25 0 13 8 13 10 -2 10 -9 0 -20 -4 -23 -10z"/>
<path d="M1318 1443 c7 -3 16 -2 19 1 4 3 -2 6 -13 5 -11 0 -14 -3 -6 -6z"/>
<path d="M1035 1410 c-3 -6 1 -7 9 -4 18 7 21 14 7 14 -6 0 -13 -4 -16 -10z"/>
<path d="M1660 1415 c0 -5 5 -17 10 -25 5 -8 10 -10 10 -5 0 6 -5 17 -10 25
-5 8 -10 11 -10 5z"/>
<path d="M1156 1393 c-43 -11 -98 -55 -113 -91 -22 -53 -13 -161 20 -234 29
-64 125 -218 137 -218 12 0 98 133 130 202 50 109 54 229 9 284 -34 41 -129
71 -183 57z m116 -36 c11 -8 16 -19 12 -32 -5 -19 -4 -19 9 -2 14 17 16 16 36
-16 13 -22 21 -51 21 -79 0 -60 -10 -109 -21 -102 -13 8 -11 48 3 62 9 9 9 12
-3 12 -17 0 -38 -79 -28 -107 7 -16 8 -16 8 0 1 9 6 17 12 17 6 0 9 -3 7 -7
-3 -5 -10 -23 -17 -40 -7 -19 -18 -30 -24 -26 -6 4 -7 1 -2 -6 4 -8 -6 -26
-26 -48 -19 -20 -27 -32 -19 -28 8 5 3 -7 -11 -26 -15 -18 -30 -34 -34 -34 -4
0 -17 18 -29 40 -11 22 -28 46 -37 55 -21 20 -33 54 -16 44 6 -4 2 4 -10 17
-53 59 -68 204 -28 265 l18 27 14 -24 14 -24 -4 28 c-4 22 0 30 17 37 31 12
116 10 138 -3z"/>
<path d="M1082 1298 c2 -6 10 -14 16 -16 7 -2 10 2 6 12 -7 18 -28 22 -22 4z"/>
<path d="M1300 1295 c-8 -9 -8 -15 -2 -15 12 0 26 19 19 26 -2 2 -10 -2 -17
-11z"/>
<path d="M1112 1205 c0 -16 2 -22 5 -12 2 9 2 23 0 30 -3 6 -5 -1 -5 -18z"/>
<path d="M1070 1186 c6 -8 10 -25 9 -38 -2 -13 1 -24 6 -25 6 -2 10 4 9 12 -3
59 -5 65 -20 65 -13 0 -14 -3 -4 -14z"/>
<path d="M1280 1078 c0 -9 5 -20 10 -23 13 -8 13 5 0 25 -8 13 -10 13 -10 -2z"/>
<path d="M1196 1005 c-9 -26 -7 -32 5 -12 6 10 9 21 6 23 -2 3 -7 -2 -11 -11z"/>
<path d="M1166 953 c5 -5 12 -12 15 -16 3 -5 9 -2 12 7 5 12 0 16 -15 16 -12
0 -17 -3 -12 -7z"/>
<path d="M1400 1350 c0 -5 5 -10 10 -10 6 0 10 5 10 10 0 6 -4 10 -10 10 -5 0
-10 -4 -10 -10z"/>
<path d="M972 1300 c0 -14 2 -19 5 -12 2 6 2 18 0 25 -3 6 -5 1 -5 -13z"/>
<path d="M1421 1304 c0 -11 3 -14 6 -6 3 7 2 16 -1 19 -3 4 -6 -2 -5 -13z"/>
<path d="M1726 1282 c-3 -5 1 -9 9 -9 8 0 12 4 9 9 -3 4 -7 8 -9 8 -2 0 -6 -4
-9 -8z"/>
<path d="M1411 1244 c0 -11 3 -14 6 -6 3 7 2 16 -1 19 -3 4 -6 -2 -5 -13z"/>
<path d="M1752 1220 c0 -14 2 -19 5 -12 2 6 2 18 0 25 -3 6 -5 1 -5 -13z"/>
<path d="M625 1219 c-4 -6 -5 -12 -2 -15 2 -3 7 2 10 11 7 17 1 20 -8 4z"/>
<path d="M960 1210 c0 -5 5 -10 11 -10 5 0 7 5 4 10 -3 6 -8 10 -11 10 -2 0
-4 -4 -4 -10z"/>
<path d="M1410 1130 c0 -5 5 -10 10 -10 6 0 10 5 10 10 0 6 -4 10 -10 10 -5 0
-10 -4 -10 -10z"/>
<path d="M1820 1090 c13 -23 20 -26 20 -6 0 8 -7 16 -15 20 -13 4 -14 2 -5
-14z"/>
<path d="M552 1068 c-7 -7 -12 -16 -12 -21 0 -5 7 -1 16 8 9 9 14 18 12 20 -2
3 -10 -1 -16 -7z"/>
<path d="M1829 1043 c-13 -16 -12 -17 4 -4 16 13 21 21 13 21 -2 0 -10 -8 -17
-17z"/>
<path d="M514 1029 c0 -10 4 -19 8 -19 4 0 8 6 8 14 0 8 -4 17 -8 20 -4 2 -8
-4 -8 -15z"/>
<path d="M1850 1021 c0 -6 5 -13 10 -16 6 -3 10 1 10 9 0 9 -4 16 -10 16 -5 0
-10 -4 -10 -9z"/>
<path d="M1335 970 c-3 -5 -1 -10 4 -10 6 0 11 5 11 10 0 6 -2 10 -4 10 -3 0
-8 -4 -11 -10z"/>
<path d="M506 961 c-4 -5 3 -7 14 -4 23 6 26 13 6 13 -8 0 -17 -4 -20 -9z"/>
<path d="M1871 944 c0 -11 3 -14 6 -6 3 7 2 16 -1 19 -3 4 -6 -2 -5 -13z"/>
<path d="M470 891 c0 -6 4 -13 10 -16 6 -3 7 1 4 9 -7 18 -14 21 -14 7z"/>
<path d="M1100 874 c0 -1 8 -8 17 -15 9 -8 14 -9 10 -2 -4 6 -1 13 5 16 7 3 3
4 -9 4 -13 -1 -23 -2 -23 -3z"/>
<path d="M1901 844 c0 -11 3 -14 6 -6 3 7 2 16 -1 19 -3 4 -6 -2 -5 -13z"/>
<path d="M462 820 c0 -14 2 -19 5 -12 2 6 2 18 0 25 -3 6 -5 1 -5 -13z"/>
<path d="M501 815 c-1 -17 -3 -17 -11 -5 -7 11 -10 6 -10 -20 l0 -35 15 29 c9
16 14 34 11 40 -2 6 -5 2 -5 -9z"/>
<path d="M1145 820 c3 -5 8 -10 11 -10 2 0 4 5 4 10 0 6 -5 10 -11 10 -5 0 -7
-4 -4 -10z"/>
<path d="M1180 810 c-8 -5 -10 -10 -5 -10 6 0 17 5 25 10 8 5 11 10 5 10 -5 0
-17 -5 -25 -10z"/>
<path d="M1180 780 c0 -5 5 -10 10 -10 6 0 10 5 10 10 0 6 -4 10 -10 10 -5 0
-10 -4 -10 -10z"/>
<path d="M1941 744 c0 -11 3 -14 6 -6 3 7 2 16 -1 19 -3 4 -6 -2 -5 -13z"/>
<path d="M1180 736 c0 -8 -6 -16 -12 -18 -7 -3 -4 -7 7 -10 16 -4 20 0 21 19
1 12 -2 23 -7 23 -5 0 -9 -6 -9 -14z"/>
<path d="M1215 709 c-11 -16 -1 -19 13 -3 7 8 8 14 3 14 -5 0 -13 -5 -16 -11z"/>
<path d="M470 695 c0 -5 5 -17 10 -25 5 -8 10 -10 10 -5 0 6 -5 17 -10 25 -5
8 -10 11 -10 5z"/>
<path d="M1258 678 c7 -28 20 -31 18 -5 0 13 -6 24 -12 24 -6 0 -9 -9 -6 -19z"/>
<path d="M1890 684 c0 -14 3 -15 18 -3 9 7 19 15 21 16 2 2 -5 3 -17 3 -14 0
-22 -6 -22 -16z"/>
<path d="M1101 669 c-1 -9 7 -23 17 -30 15 -12 16 -12 6 1 -6 8 -14 22 -17 30
-5 13 -6 12 -6 -1z"/>
<path d="M1140 669 c0 -5 5 -7 10 -4 6 3 10 8 10 11 0 2 -4 4 -10 4 -5 0 -10
-5 -10 -11z"/>
<path d="M1882 640 c-18 -29 -15 -38 4 -12 9 13 14 25 12 27 -2 2 -9 -5 -16
-15z"/>
<path d="M525 630 c21 -24 26 -25 19 -6 -3 8 -13 17 -22 21 -13 5 -13 2 3 -15z"/>
<path d="M1325 638 c11 -6 23 -16 27 -22 5 -8 8 -7 8 1 0 7 -9 17 -19 23 -27
14 -41 12 -16 -2z"/>
<path d="M1066 614 c-5 -14 -4 -15 9 -4 17 14 19 20 6 20 -5 0 -12 -7 -15 -16z"/>
<path d="M1008 598 c6 -6 18 -8 28 -6 14 3 12 5 -9 10 -19 3 -25 2 -19 -4z"/>
<path d="M550 580 c0 -19 3 -21 12 -12 9 9 9 15 0 24 -9 9 -12 7 -12 -12z"/>
<path d="M1400 590 c-8 -5 -12 -12 -9 -15 4 -3 12 1 19 10 14 17 11 19 -10 5z"/>
<path d="M1815 570 c-17 -7 -17 -9 -2 -9 9 -1 20 -1 24 -2 4 0 9 4 11 10 4 13
-5 13 -33 1z"/>
<path d="M580 559 c0 -5 5 -7 10 -4 6 3 10 8 10 11 0 2 -4 4 -10 4 -5 0 -10
-5 -10 -11z"/>
<path d="M1005 560 c-3 -5 -2 -10 4 -10 5 0 13 5 16 10 3 6 2 10 -4 10 -5 0
-13 -4 -16 -10z"/>
<path d="M1400 560 c-9 -6 -10 -10 -3 -10 6 0 15 5 18 10 8 12 4 12 -15 0z"/>
<path d="M930 545 c0 -8 2 -15 4 -15 2 0 6 7 10 15 3 8 1 15 -4 15 -6 0 -10
-7 -10 -15z"/>
<path d="M768 523 c6 -2 18 -2 25 0 6 3 1 5 -13 5 -14 0 -19 -2 -12 -5z"/>
<path d="M835 520 c-30 -8 -30 -8 8 -9 20 0 37 4 37 9 0 11 -2 11 -45 0z"/>
<path d="M1458 523 c7 -3 16 -2 19 1 4 3 -2 6 -13 5 -11 0 -14 -3 -6 -6z"/>
<path d="M1520 520 c0 -5 5 -10 10 -10 6 0 10 5 10 10 0 6 -4 10 -10 10 -5 0
-10 -4 -10 -10z"/>
<path d="M1608 523 c6 -2 18 -2 25 0 6 3 1 5 -13 5 -14 0 -19 -2 -12 -5z"/>
<path d="M900 510 c0 -5 5 -10 11 -10 5 0 7 5 4 10 -3 6 -8 10 -11 10 -2 0 -4
-4 -4 -10z"/>
<path d="M778 493 c7 -3 16 -2 19 1 4 3 -2 6 -13 5 -11 0 -14 -3 -6 -6z"/>
<path d="M1188 2153 c7 -3 16 -2 19 1 4 3 -2 6 -13 5 -11 0 -14 -3 -6 -6z"/>
<path d="M815 1840 c3 -5 8 -10 11 -10 2 0 4 5 4 10 0 6 -5 10 -11 10 -5 0 -7
-4 -4 -10z"/>
<path d="M1591 1784 c0 -11 3 -14 6 -6 3 7 2 16 -1 19 -3 4 -6 -2 -5 -13z"/>
<path d="M720 1670 c0 -8 5 -22 10 -30 9 -13 10 -13 10 0 0 8 -5 22 -10 30 -9
13 -10 13 -10 0z"/>
<path d="M1666 1664 c-3 -9 -2 -22 2 -31 6 -10 9 -5 9 16 0 35 -2 38 -11 15z"/>
<path d="M651 1484 c0 -11 3 -14 6 -6 3 7 2 16 -1 19 -3 4 -6 -2 -5 -13z"/>
<path d="M1740 1495 c0 -5 5 -17 10 -25 5 -8 10 -10 10 -5 0 6 -5 17 -10 25
-5 8 -10 11 -10 5z"/>
<path d="M565 1350 c3 -5 8 -10 11 -10 2 0 4 5 4 10 0 6 -5 10 -11 10 -5 0 -7
-4 -4 -10z"/>
<path d="M1838 1273 c7 -3 16 -2 19 1 4 3 -2 6 -13 5 -11 0 -14 -3 -6 -6z"/>
<path d="M480 1240 c0 -19 3 -21 12 -12 9 9 9 15 0 24 -9 9 -12 7 -12 -12z"/>
<path d="M1907 1179 c4 -13 8 -18 11 -10 2 7 -1 18 -6 23 -8 8 -9 4 -5 -13z"/>
<path d="M480 1160 c0 -11 4 -20 9 -20 5 0 7 9 4 20 -3 11 -7 20 -9 20 -2 0
-4 -9 -4 -20z"/>
<path d="M1891 1164 c0 -11 3 -14 6 -6 3 7 2 16 -1 19 -3 4 -6 -2 -5 -13z"/>
<path d="M1955 1080 c10 -11 24 -20 32 -20 9 0 7 6 -7 20 -11 11 -25 20 -32
20 -6 0 -3 -9 7 -20z"/>
<path d="M430 1029 c0 -5 5 -7 10 -4 6 3 10 8 10 11 0 2 -4 4 -10 4 -5 0 -10
-5 -10 -11z"/>
<path d="M1960 1032 c0 -5 7 -9 15 -9 8 0 15 4 15 9 0 4 -7 8 -15 8 -8 0 -15
-4 -15 -8z"/>
<path d="M404 976 c0 -35 1 -35 13 -14 14 27 18 62 4 39 -7 -10 -10 -10 -13
-1 -2 7 -4 -4 -4 -24z"/>
<path d="M2011 924 c0 -11 3 -14 6 -6 3 7 2 16 -1 19 -3 4 -6 -2 -5 -13z"/>
<path d="M1985 639 c-4 -6 -5 -12 -2 -15 2 -3 7 2 10 11 7 17 1 20 -8 4z"/>
<path d="M406 573 c-6 -14 -5 -15 5 -6 7 7 10 15 7 18 -3 3 -9 -2 -12 -12z"/>
<path d="M1991 574 c0 -11 3 -14 6 -6 3 7 2 16 -1 19 -3 4 -6 -2 -5 -13z"/>
<path d="M1280 520 c0 -5 9 -10 21 -10 11 0 17 5 14 10 -3 6 -13 10 -21 10 -8
0 -14 -4 -14 -10z"/>
<path d="M578 450 c27 -12 29 -24 2 -17 -11 3 -20 1 -20 -4 0 -10 21 -12 44
-3 15 6 15 8 -1 20 -10 7 -25 13 -33 13 -8 0 -5 -4 8 -9z"/>
<path d="M1780 440 c-13 -9 -13 -10 0 -9 8 0 24 4 35 9 l20 9 -20 0 c-11 0
-27 -4 -35 -9z"/>
<path d="M900 420 c0 -5 4 -10 9 -10 6 0 13 5 16 10 3 6 -1 10 -9 10 -9 0 -16
-4 -16 -10z"/>
<path d="M1710 415 c-30 -17 -26 -18 18 -6 21 6 32 6 32 0 0 -6 5 -7 11 -3 8
4 7 9 -2 15 -19 12 -30 11 -59 -6z"/>
<path d="M985 410 c-3 -5 3 -10 15 -10 12 0 18 5 15 10 -3 6 -10 10 -15 10 -5
0 -12 -4 -15 -10z"/>
<path d="M1440 410 c0 -5 7 -7 15 -4 8 4 15 8 15 10 0 2 -7 4 -15 4 -8 0 -15
-4 -15 -10z"/>
<path d="M1520 409 c0 -5 5 -7 10 -4 6 3 10 8 10 11 0 2 -4 4 -10 4 -5 0 -10
-5 -10 -11z"/>
<path d="M1810 410 c20 -13 33 -13 25 0 -3 6 -14 10 -23 10 -15 0 -15 -2 -2
-10z"/>
<path d="M623 403 c9 -2 23 -2 30 0 6 3 -1 5 -18 5 -16 0 -22 -2 -12 -5z"/>
<path d="M813 403 c9 -2 23 -2 30 0 6 3 -1 5 -18 5 -16 0 -22 -2 -12 -5z"/>
<path d="M938 403 c7 -3 16 -2 19 1 4 3 -2 6 -13 5 -11 0 -14 -3 -6 -6z"/>
<path d="M1563 403 c9 -2 23 -2 30 0 6 3 -1 5 -18 5 -16 0 -22 -2 -12 -5z"/>
<path d="M1658 403 c7 -3 16 -2 19 1 4 3 -2 6 -13 5 -11 0 -14 -3 -6 -6z"/>
</g>
</svg>
