<?xml version="1.0" standalone="no"?>
<!DOCTYPE svg PUBLIC "-//W3C//DTD SVG 20010904//EN"
 "http://www.w3.org/TR/2001/REC-SVG-20010904/DTD/svg10.dtd">
<svg version="1.0" xmlns="http://www.w3.org/2000/svg"
 width="64.000000pt" height="64.000000pt" viewBox="0 0 64.000000 64.000000"
 preserveAspectRatio="xMidYMid meet">
<metadata>
Created by potrace 1.16, written by Peter Selinger 2001-2019
</metadata>
<g transform="translate(0.000000,64.000000) scale(0.100000,-0.100000)"
fill="#000000" stroke="none">
<path d="M0 500 c0 -5 20 -10 45 -10 25 0 45 -1 45 -3 0 -2 -20 -63 -45 -137
-26 -76 -45 -153 -45 -177 l0 -43 320 0 c194 0 320 4 320 9 0 6 -20 11 -43 13
l-44 3 43 135 c24 74 44 154 44 178 l0 42 -320 0 c-207 0 -320 -4 -320 -10z
m436 -90 c14 -47 28 -92 30 -100 3 -8 20 29 37 83 l31 97 48 0 c26 0 48 -3 48
-7 0 -5 -25 -82 -55 -173 l-55 -165 -49 3 -50 4 -55 166 c-31 92 -56 169 -56
172 0 3 23 5 50 5 l51 0 25 -85z m-162 -88 c31 -92 56 -169 56 -172 0 -3 -23
-3 -52 0 l-51 5 -24 75 c-12 41 -23 83 -23 93 0 9 -4 17 -10 17 -5 0 -10 -5
-10 -12 0 -7 -11 -49 -25 -95 l-26 -83 -49 0 c-28 0 -50 4 -50 8 0 6 88 274
105 320 3 7 23 12 54 12 l49 0 56 -168z m57 11 c28 -87 54 -164 57 -170 2 -7
-3 -13 -11 -13 -11 0 -31 46 -68 158 -28 86 -54 163 -57 170 -2 6 3 12 11 12
11 0 31 -46 68 -157z m168 145 c0 -7 -6 -29 -14 -48 l-13 -35 -10 25 c-26 67
-26 70 7 70 19 0 31 -5 30 -12z m-320 -260 c25 -66 24 -68 -8 -68 -35 0 -35
-1 -19 51 13 45 16 47 27 17z"/>
</g>
</svg>
