<?xml version="1.0" standalone="no"?>
<!DOCTYPE svg PUBLIC "-//W3C//DTD SVG 20010904//EN"
 "http://www.w3.org/TR/2001/REC-SVG-20010904/DTD/svg10.dtd">
<svg version="1.0" xmlns="http://www.w3.org/2000/svg"
 width="100.000000pt" height="100.000000pt" viewBox="0 0 100.000000 100.000000"
 preserveAspectRatio="xMidYMid meet">
<metadata>
Created by potrace 1.16, written by Peter Selinger 2001-2019
</metadata>
<g transform="translate(0.000000,100.000000) scale(0.100000,-0.100000)"
fill="#000000" stroke="none">
<path d="M0 920 c0 -6 82 -11 213 -13 l212 -2 -212 -3 c-180 -2 -213 -4 -213
-17 0 -12 31 -15 196 -17 l195 -3 -19 -20 c-24 -26 -35 -75 -16 -75 7 0 15 -8
17 -17 3 -10 3 4 1 31 -4 43 -2 48 14 44 15 -4 18 -1 14 18 -3 17 0 24 12 24
13 0 16 -11 16 -50 0 -30 -4 -50 -11 -50 -6 0 -9 7 -5 15 3 8 1 15 -4 15 -6 0
-10 -22 -10 -50 0 -39 3 -50 16 -50 12 0 15 6 11 21 -6 22 12 49 32 49 15 0
14 27 -1 33 -8 2 -9 8 -4 13 5 5 11 4 13 -3 3 -7 11 -13 19 -13 18 0 20 66 2
72 -9 3 -9 6 0 12 7 4 12 4 12 -1 0 -4 97 -7 215 -5 l215 2 0 -55 c0 -30 5
-55 10 -55 6 0 10 -9 10 -20 0 -11 -4 -20 -10 -20 -15 0 -13 -197 3 -203 9 -4
8 -8 -3 -16 -11 -8 -11 -11 -2 -11 10 0 12 -42 10 -200 -2 -129 1 -200 7 -200
6 0 5 -4 -1 -8 -7 -4 -86 -6 -176 -4 l-164 3 1 55 c0 31 -3 61 -7 67 -4 7 -8
-23 -8 -65 l0 -78 185 0 185 0 0 415 0 415 -250 0 -250 0 0 -35 c0 -25 -4 -35
-16 -35 -11 0 -14 6 -9 20 4 11 2 20 -4 20 -6 0 -11 10 -11 23 l0 22 285 -3
c189 -2 285 1 285 8 0 7 -166 10 -500 10 -320 0 -500 -4 -500 -10z"/>
<path d="M986 885 c4 -8 8 -15 10 -15 2 0 4 7 4 15 0 8 -4 15 -10 15 -5 0 -7
-7 -4 -15z"/>
<path d="M630 785 c0 -10 11 -15 35 -15 24 0 35 5 35 15 0 10 -11 15 -35 15
-24 0 -35 -5 -35 -15z"/>
<path d="M0 750 c0 -19 7 -20 175 -20 117 0 175 4 175 11 0 5 -4 7 -10 4 -5
-3 -10 1 -10 9 0 14 -22 16 -165 16 -158 0 -165 -1 -165 -20z"/>
<path d="M570 750 c0 -15 7 -20 26 -20 14 0 23 -4 20 -8 -3 -5 -19 -7 -36 -4
-26 4 -30 1 -30 -18 0 -12 -6 -27 -13 -34 -15 -15 -67 -18 -67 -5 0 16 -32 10
-46 -8 -11 -15 -15 -16 -23 -4 -5 7 -6 22 -4 32 3 10 0 19 -6 19 -5 0 -8 7 -5
15 4 8 1 15 -5 15 -6 0 -11 -13 -11 -30 0 -23 -4 -30 -20 -30 -16 0 -20 -7
-20 -35 0 -19 -4 -35 -10 -35 -5 0 -7 7 -4 15 4 8 1 15 -5 15 -7 0 -11 -20
-11 -50 0 -39 3 -50 16 -50 13 0 15 7 11 33 -3 17 -3 26 0 20 7 -18 26 -16 19
2 -3 9 0 15 9 15 8 0 15 7 15 15 0 8 -7 15 -16 15 -14 0 -14 2 -3 16 12 14 14
14 20 -3 3 -10 4 -46 1 -80 -4 -54 -2 -63 12 -63 13 0 16 11 16 65 0 36 3 65
8 65 4 0 7 -29 8 -65 0 -36 -3 -65 -8 -65 -4 0 -8 -7 -8 -16 0 -12 7 -15 28
-10 15 3 21 3 15 0 -7 -3 -13 -14 -13 -25 0 -25 40 -26 41 -1 1 9 4 4 8 -13 8
-32 4 -46 -7 -29 -4 7 -15 8 -27 3 -19 -7 -19 -8 3 -8 12 -1 22 -7 22 -15 0
-8 6 -14 13 -13 42 1 77 -4 77 -13 0 -5 -7 -10 -15 -10 -8 0 -15 -4 -15 -10 0
-5 9 -10 20 -10 11 0 20 -4 20 -10 0 -5 12 -10 27 -10 14 0 23 -3 20 -7 -4 -4
-32 -5 -62 -4 -44 2 -55 -1 -55 -13 0 -13 13 -16 65 -16 l65 0 0 -85 0 -85
150 0 150 0 0 50 c0 35 -4 50 -13 50 -9 0 -14 -13 -15 -36 -1 -20 -3 -37 -4
-38 -2 -1 -61 1 -133 4 -112 4 -127 7 -110 18 14 9 16 15 8 18 -7 3 -13 10
-13 15 0 6 5 7 10 4 6 -3 10 -2 10 4 0 5 -6 12 -12 14 -10 4 -9 8 2 16 10 7
11 11 3 11 -7 0 -13 9 -13 20 0 11 -4 20 -10 20 -5 0 -10 14 -10 30 0 23 4 30
20 30 11 0 20 5 20 10 0 6 -7 10 -15 10 -8 0 -15 5 -15 10 0 6 20 10 45 10 33
0 45 4 45 15 0 11 -12 15 -47 15 -25 0 -44 3 -40 6 10 10 87 14 87 4 0 -6 9
-10 20 -10 23 0 26 10 8 28 -6 6 -8 15 -3 19 4 5 10 2 12 -4 3 -7 11 -13 19
-13 17 0 19 36 2 44 -7 3 -1 3 13 0 18 -4 28 -1 32 10 4 9 13 16 22 16 8 0 15
7 15 15 0 8 -4 15 -10 15 -5 0 -10 18 -10 39 0 22 -4 43 -10 46 -6 4 -10 -12
-10 -39 0 -34 -4 -46 -15 -46 -8 0 -15 -5 -15 -11 0 -6 7 -9 15 -5 8 3 15 1
15 -4 0 -6 -13 -10 -30 -10 -20 0 -30 -5 -30 -15 0 -8 -9 -15 -20 -15 -13 0
-20 -7 -20 -20 0 -17 -7 -20 -50 -20 l-50 0 0 -50 c0 -49 -1 -50 -30 -50 -28
0 -30 3 -30 35 0 33 -2 35 -35 35 -19 0 -35 4 -35 9 0 5 22 8 49 6 27 -1 55 1
62 6 9 5 -10 9 -48 9 -56 0 -63 2 -63 20 0 11 -7 20 -15 20 -8 0 -15 7 -15 15
0 8 -9 15 -20 15 -18 0 -20 7 -20 65 l0 65 68 -1 c37 -1 59 -3 50 -6 -24 -6
-23 -23 2 -23 17 0 20 7 20 50 0 49 1 50 30 50 20 0 30 5 30 15 0 10 11 15 35
15 24 0 35 -5 35 -15 0 -8 7 -15 15 -15 10 0 15 -11 15 -35 l0 -35 70 0 70 0
0 -50 c0 -38 4 -50 15 -50 11 0 15 12 15 50 0 38 -4 50 -15 50 -8 0 -15 9 -15
20 0 11 -7 20 -16 20 -8 0 -12 -4 -9 -10 3 -5 1 -10 -4 -10 -6 0 -11 5 -11 10
0 6 -7 10 -15 10 -8 0 -15 -4 -15 -10 0 -5 -5 -10 -11 -10 -17 0 -39 27 -39
49 0 12 -6 21 -14 21 -9 0 -12 8 -8 25 3 18 0 25 -12 25 -9 0 -16 -8 -16 -17
0 -13 -3 -14 -11 -6 -8 8 -20 8 -35 3 -19 -7 -24 -6 -24 5 0 10 -10 15 -30 15
-23 0 -30 -4 -30 -20z"/>
<path d="M992 750 c0 -14 2 -19 5 -12 2 6 2 18 0 25 -3 6 -5 1 -5 -13z"/>
<path d="M450 740 c0 -5 5 -10 10 -10 6 0 10 5 10 10 0 6 -4 10 -10 10 -5 0
-10 -4 -10 -10z"/>
<path d="M778 723 c7 -3 16 -2 19 1 4 3 -2 6 -13 5 -11 0 -14 -3 -6 -6z"/>
<path d="M280 700 c0 -13 11 -13 30 0 12 8 11 10 -7 10 -13 0 -23 -4 -23 -10z"/>
<path d="M330 690 c0 -5 5 -10 10 -10 6 0 10 5 10 10 0 6 -4 10 -10 10 -5 0
-10 -4 -10 -10z"/>
<path d="M500 685 c0 -8 7 -15 15 -15 8 0 15 7 15 15 0 8 -7 15 -15 15 -8 0
-15 -7 -15 -15z"/>
<path d="M770 685 c0 -8 7 -15 15 -15 8 0 15 7 15 15 0 8 -7 15 -15 15 -8 0
-15 -7 -15 -15z"/>
<path d="M588 640 c-2 -22 0 -40 4 -40 5 0 8 18 8 40 0 22 -2 40 -4 40 -2 0
-6 -18 -8 -40z"/>
<path d="M0 650 c0 -19 7 -20 131 -20 101 0 130 -3 126 -13 -2 -6 2 -18 10
-26 13 -12 14 -11 8 8 -5 17 0 28 22 47 l28 24 -162 0 c-156 0 -163 -1 -163
-20z"/>
<path d="M700 635 c0 -33 2 -35 35 -35 19 0 35 4 35 10 0 5 -7 7 -16 3 -20 -7
-45 22 -37 43 3 8 0 14 -6 14 -6 0 -11 -16 -11 -35z"/>
<path d="M453 603 c9 -2 25 -2 35 0 9 3 1 5 -18 5 -19 0 -27 -2 -17 -5z"/>
<path d="M0 585 c0 -13 21 -15 125 -15 81 0 125 4 125 11 0 5 -4 7 -10 4 -6
-3 -10 -1 -10 4 0 7 -41 11 -115 11 -96 0 -115 -3 -115 -15z"/>
<path d="M270 535 c0 -28 -4 -35 -20 -35 -16 0 -20 -7 -20 -35 0 -19 -5 -35
-11 -35 -6 0 -8 9 -4 20 4 11 2 20 -4 20 -6 0 -11 -21 -11 -50 0 -39 3 -50 16
-50 11 0 15 6 12 18 -5 18 13 42 32 42 14 0 13 37 -2 42 -9 3 -9 6 0 12 7 4
12 2 12 -3 0 -6 7 -11 15 -11 10 0 15 10 15 30 0 17 -4 30 -9 30 -5 0 -7 9 -4
20 3 11 0 20 -6 20 -6 0 -11 -16 -11 -35z"/>
<path d="M0 540 c0 -6 38 -10 95 -10 84 0 95 -2 93 -16 -2 -10 2 -19 9 -21 7
-3 9 3 6 16 -6 23 22 31 30 9 2 -7 8 -10 12 -6 4 4 0 14 -8 23 -12 12 -40 15
-126 15 -67 0 -111 -4 -111 -10z"/>
<path d="M0 490 c0 -6 32 -10 75 -10 58 0 75 -3 75 -14 0 -8 -9 -18 -20 -21
-17 -6 -25 -22 -21 -47 1 -7 -13 -10 -89 -21 -14 -3 -4 -5 21 -6 44 -1 46 -2
41 -26 -3 -18 0 -25 10 -25 11 0 14 7 10 25 -3 18 0 25 12 25 13 0 16 -11 16
-50 0 -27 -4 -50 -10 -50 -5 0 -7 7 -4 15 4 8 1 15 -5 15 -7 0 -11 -20 -11
-50 0 -39 3 -50 16 -50 11 0 15 6 11 19 -5 20 9 51 23 51 14 0 7 -63 -9 -80
-13 -13 -12 -15 4 -18 9 -2 21 1 25 8 5 9 9 9 14 1 4 -6 2 -11 -3 -11 -6 0
-10 -10 -8 -21 2 -19 -4 -22 -49 -25 -59 -3 -86 8 -66 28 9 9 12 9 12 -5 0 -9
7 -17 15 -17 10 0 15 11 15 35 0 19 -4 35 -10 35 -5 0 -7 7 -4 15 4 8 1 15 -5
15 -6 0 -11 -13 -11 -30 0 -21 -5 -30 -16 -30 -14 0 -14 3 -4 15 10 12 10 15
-4 15 -12 0 -16 9 -16 35 0 25 -4 35 -15 35 -17 0 -17 -30 0 -42 6 -5 5 -8 -2
-8 -7 0 -13 -4 -13 -10 0 -5 7 -10 15 -10 10 0 15 -11 15 -35 0 -24 -5 -35
-15 -35 -8 0 -15 -7 -15 -16 0 -14 3 -14 15 -4 10 8 15 9 15 1 0 -7 62 -12
198 -14 l197 -2 -212 -3 c-134 -1 -213 -6 -213 -12 0 -6 95 -10 265 -10 223 0
265 2 265 14 0 8 10 17 23 19 12 2 -2 2 -30 -1 l-53 -4 0 66 c0 59 -2 66 -20
66 -16 0 -20 -7 -20 -30 0 -16 4 -30 9 -30 5 0 9 -13 9 -29 -1 -15 2 -33 5
-39 4 -5 0 -12 -8 -16 -12 -4 -15 4 -15 39 0 33 -4 45 -15 45 -9 0 -14 -8 -12
-22 2 -20 -2 -21 -85 -23 -86 -2 -88 -1 -88 22 0 12 -5 23 -11 23 -6 0 -8 -9
-4 -20 4 -11 2 -20 -4 -20 -6 0 -11 16 -11 35 0 24 -5 35 -15 35 -11 0 -15 12
-15 50 0 30 -4 50 -11 50 -6 0 -9 7 -5 15 3 8 1 15 -5 15 -6 0 -6 7 1 20 9 16
8 20 -5 20 -10 0 -15 10 -15 30 0 23 5 30 19 30 11 0 21 -6 24 -12 3 -11 3 11
-2 75 -1 11 -171 9 -171 -3z"/>
<path d="M485 490 c3 -5 8 -10 11 -10 2 0 4 5 4 10 0 6 -5 10 -11 10 -5 0 -7
-4 -4 -10z"/>
<path d="M980 485 c0 -8 5 -15 10 -15 6 0 10 7 10 15 0 8 -4 15 -10 15 -5 0
-10 -7 -10 -15z"/>
<path d="M855 480 c-3 -5 -1 -10 4 -10 6 0 11 5 11 10 0 6 -2 10 -4 10 -3 0
-8 -4 -11 -10z"/>
<path d="M912 471 c-10 -6 -10 -10 3 -21 13 -11 15 -9 15 9 0 24 0 24 -18 12z"/>
<path d="M900 331 c0 -75 4 -101 15 -111 13 -11 15 1 15 99 0 92 -3 111 -15
111 -12 0 -15 -18 -15 -99z"/>
<path d="M255 410 c-3 -5 -1 -10 4 -10 6 0 11 5 11 10 0 6 -2 10 -4 10 -3 0
-8 -4 -11 -10z"/>
<path d="M170 350 c0 -38 4 -50 15 -50 10 0 15 11 15 35 0 19 -4 35 -10 35 -5
0 -7 7 -4 15 4 8 1 15 -5 15 -7 0 -11 -20 -11 -50z"/>
<path d="M590 389 c0 -5 5 -7 10 -4 6 3 10 8 10 11 0 2 -4 4 -10 4 -5 0 -10
-5 -10 -11z"/>
<path d="M585 360 c3 -5 13 -10 21 -10 8 0 14 5 14 10 0 6 -9 10 -21 10 -11 0
-17 -4 -14 -10z"/>
<path d="M28 323 c17 -2 32 -8 32 -14 0 -5 -15 -10 -32 -10 l-33 -1 30 -7 c16
-3 34 -16 41 -29 9 -19 13 -20 17 -8 4 9 2 16 -3 16 -6 0 -10 14 -10 30 0 28
-2 30 -37 28 -37 -1 -37 -1 -5 -5z"/>
<path d="M470 250 c0 -11 4 -20 9 -20 4 0 7 -13 5 -30 -2 -16 1 -30 6 -30 6 0
10 14 10 30 l0 30 60 0 c33 0 60 4 60 10 0 6 -27 10 -60 10 -33 0 -60 4 -60
10 0 6 -7 10 -15 10 -8 0 -15 -9 -15 -20z"/>
<path d="M980 260 c0 -5 5 -10 10 -10 6 0 10 5 10 10 0 6 -4 10 -10 10 -5 0
-10 -4 -10 -10z"/>
<path d="M196 233 c-6 -14 -5 -15 5 -6 7 7 10 15 7 18 -3 3 -9 -2 -12 -12z"/>
<path d="M230 215 c0 -8 5 -15 10 -15 6 0 10 7 10 15 0 8 -4 15 -10 15 -5 0
-10 -7 -10 -15z"/>
<path d="M691 214 c0 -11 3 -14 6 -6 3 7 2 16 -1 19 -3 4 -6 -2 -5 -13z"/>
<path d="M991 214 c0 -11 3 -14 6 -6 3 7 2 16 -1 19 -3 4 -6 -2 -5 -13z"/>
<path d="M555 200 c-3 -5 -2 -10 4 -10 5 0 13 5 16 10 3 6 2 10 -4 10 -5 0
-13 -4 -16 -10z"/>
<path d="M843 193 c9 -2 25 -2 35 0 9 3 1 5 -18 5 -19 0 -27 -2 -17 -5z"/>
<path d="M530 150 c0 -15 7 -20 27 -20 14 0 23 3 20 7 -4 3 -2 12 4 20 9 10 5
13 -20 13 -24 0 -31 -4 -31 -20z"/>
<path d="M690 160 c20 -13 187 -13 195 0 4 6 -32 10 -102 10 -73 0 -103 -3
-93 -10z"/>
<path d="M501 134 c0 -11 3 -14 6 -6 3 7 2 16 -1 19 -3 4 -6 -2 -5 -13z"/>
<path d="M545 80 c-3 -5 3 -10 15 -10 12 0 18 5 15 10 -3 6 -10 10 -15 10 -5
0 -12 -4 -15 -10z"/>
<path d="M985 80 c-3 -5 -1 -10 4 -10 6 0 11 5 11 10 0 6 -2 10 -4 10 -3 0 -8
-4 -11 -10z"/>
</g>
</svg>
