<?xml version="1.0" standalone="no"?>
<!DOCTYPE svg PUBLIC "-//W3C//DTD SVG 20010904//EN"
 "http://www.w3.org/TR/2001/REC-SVG-20010904/DTD/svg10.dtd">
<svg version="1.0" xmlns="http://www.w3.org/2000/svg"
 width="256.000000pt" height="256.000000pt" viewBox="0 0 256.000000 256.000000"
 preserveAspectRatio="xMidYMid meet">
<metadata>
Created by potrace 1.16, written by Peter Selinger 2001-2019
</metadata>
<g transform="translate(0.000000,256.000000) scale(0.100000,-0.100000)"
fill="#000000" stroke="none">
<path d="M1080 2550 c-99 -13 -243 -60 -365 -121 -269 -133 -463 -329 -595
-604 -50 -103 -105 -282 -113 -370 -5 -44 -4 -48 9 -30 8 10 14 35 14 56 0
125 149 464 264 599 17 20 166 169 186 186 135 115 474 264 599 264 21 0 46 7
57 15 10 8 15 14 9 13 -5 0 -35 -4 -65 -8z"/>
<path d="M1425 2544 c10 -8 35 -14 56 -14 125 0 464 -149 599 -264 20 -17 169
-166 186 -186 115 -135 264 -474 264 -599 0 -21 6 -46 14 -56 13 -18 14 -14 9
30 -8 88 -63 267 -113 370 -132 275 -325 471 -595 605 -122 60 -292 114 -390
123 -44 5 -48 4 -30 -9z"/>
<path d="M1287 2273 c-8 -21 -51 -112 -95 -203 -44 -91 -153 -316 -241 -500
l-161 -335 -73 3 c-39 2 -106 10 -147 18 -41 8 -92 14 -112 14 -33 0 -38 -3
-38 -23 0 -21 19 -33 149 -93 l148 -70 -104 -214 c-57 -118 -103 -223 -101
-235 3 -19 9 -20 216 -20 l213 0 67 148 c36 81 70 147 74 147 4 0 110 -49 235
-108 125 -60 262 -123 303 -141 41 -18 83 -37 92 -42 10 -5 112 -9 228 -9
l210 0 0 23 c0 25 -597 1280 -612 1285 -4 2 -8 9 -8 16 0 7 -38 93 -84 192
-79 170 -85 179 -113 182 -27 3 -32 -1 -46 -35z m213 -334 c0 -10 -11 -34 -76
-177 -19 -41 -34 -75 -34 -78 0 -2 -13 -32 -29 -66 -16 -35 -68 -151 -116
-258 -48 -107 -98 -218 -111 -246 -13 -28 -61 -136 -107 -240 -47 -104 -90
-201 -97 -216 l-13 -28 -187 0 c-103 0 -189 2 -192 5 -2 3 12 38 31 77 36 72
146 302 274 568 72 150 166 344 282 585 96 199 173 359 192 404 l14 34 85
-177 c46 -98 84 -182 84 -187z m49 -91 c29 -64 75 -161 196 -413 37 -77 135
-282 217 -455 83 -173 154 -319 159 -325 5 -5 9 -13 9 -17 0 -5 -89 -7 -197
-6 l-196 3 -27 65 c-15 36 -34 81 -42 100 -69 154 -206 464 -283 641 l-37 86
40 89 c75 167 89 199 108 246 10 27 20 48 22 48 2 0 16 -28 31 -62z m-113
-591 c31 -70 54 -131 50 -134 -6 -6 -296 35 -296 42 0 2 36 83 75 170 7 17 25
57 40 90 l27 60 24 -50 c13 -27 49 -108 80 -178z m-831 -32 c142 -23 159 -26
163 -29 2 -3 -24 -67 -34 -84 -2 -2 -60 23 -131 56 -70 33 -138 63 -151 67
-12 3 -20 10 -17 15 3 5 20 4 38 -1 17 -4 77 -15 132 -24z m764 -116 l144 -23
19 -45 c24 -55 82 -188 111 -251 40 -91 57 -133 55 -135 -2 -1 -68 29 -148 68
-80 38 -212 101 -295 139 -82 38 -154 73 -158 77 -8 8 1 34 56 154 19 42 25
48 47 44 14 -3 90 -16 169 -28z"/>
<path d="M7 1105 c8 -88 63 -267 113 -370 134 -277 324 -470 595 -605 122 -60
292 -114 390 -123 44 -5 48 -4 30 9 -10 8 -35 14 -56 14 -124 0 -465 150 -599
264 -20 18 -168 166 -190 191 -107 121 -260 471 -260 594 0 21 -6 46 -14 56
-13 18 -14 14 -9 -30z"/>
<path d="M2540 1131 c-5 -11 -10 -35 -10 -54 0 -123 -151 -463 -264 -597 -17
-20 -166 -169 -186 -186 -135 -115 -474 -264 -599 -264 -21 0 -46 -6 -56 -14
-18 -13 -14 -14 30 -9 88 8 267 63 370 113 275 132 471 325 605 595 60 121
114 292 123 388 5 52 3 57 -13 28z"/>
</g>
</svg>
