<?xml version="1.0" standalone="no"?>
<!DOCTYPE svg PUBLIC "-//W3C//DTD SVG 20010904//EN"
 "http://www.w3.org/TR/2001/REC-SVG-20010904/DTD/svg10.dtd">
<svg version="1.0" xmlns="http://www.w3.org/2000/svg"
 width="256.000000pt" height="256.000000pt" viewBox="0 0 256.000000 256.000000"
 preserveAspectRatio="xMidYMid meet">
<metadata>
Created by potrace 1.16, written by Peter Selinger 2001-2019
</metadata>
<g transform="translate(0.000000,256.000000) scale(0.100000,-0.100000)"
fill="#000000" stroke="none">
<path d="M525 2464 c-115 -24 -228 -87 -316 -174 -82 -81 -116 -132 -161 -243
-39 -96 -50 -272 -24 -389 44 -198 173 -365 351 -452 95 -48 180 -66 306 -66
199 0 345 58 479 190 130 129 190 277 190 472 0 126 -11 186 -53 287 -22 54
-32 69 -38 58 -6 -10 0 -35 16 -72 81 -183 73 -396 -23 -580 -52 -99 -163
-207 -269 -262 -253 -129 -557 -84 -757 113 -135 133 -205 314 -193 498 3 50
8 100 11 111 41 174 184 353 346 432 78 38 203 73 263 73 20 0 34 -16 75 -85
l51 -85 -35 -52 c-19 -29 -40 -65 -46 -80 -10 -21 -21 -28 -58 -33 -105 -15
-209 -94 -251 -188 -34 -77 -33 -183 2 -258 33 -69 89 -127 155 -160 40 -20
64 -24 134 -24 73 0 93 4 142 28 65 32 122 90 150 155 22 50 35 160 23 189 -5
10 -7 21 -7 26 3 13 -27 77 -36 77 -18 0 -21 -13 -7 -34 8 -11 15 -33 15 -48
0 -15 5 -30 11 -34 7 -4 10 -26 6 -60 -22 -209 -240 -341 -414 -251 -196 102
-235 329 -82 472 54 51 110 79 177 90 23 4 42 11 42 16 0 10 52 1 100 -18 47
-19 130 -75 130 -89 0 -6 8 -18 18 -27 15 -13 39 -17 115 -17 53 0 97 4 97 9
0 5 18 41 40 81 29 50 39 77 34 92 -12 39 -175 192 -241 227 -35 18 -63 27
-63 21 0 -6 17 -19 38 -28 60 -28 109 -65 127 -95 9 -15 32 -38 51 -50 18 -12
34 -30 34 -39 0 -10 6 -18 14 -18 30 0 26 -22 -16 -100 l-43 -80 -70 0 c-94 0
-106 5 -135 51 -14 23 -35 42 -50 46 -14 3 -38 13 -55 23 -16 10 -47 21 -67
24 l-37 7 39 65 c22 35 40 74 40 85 0 22 -54 124 -71 134 -5 4 -9 11 -9 17 0
7 4 7 13 0 6 -6 44 -15 82 -20 39 -6 78 -13 88 -17 9 -4 17 -3 17 2 0 12 -54
28 -145 44 -38 6 -74 15 -79 20 -14 13 -90 10 -171 -7z"/>
<path d="M1135 2300 c-10 -17 22 -47 35 -34 7 7 4 16 -9 28 -14 12 -21 14 -26
6z"/>
<path d="M160 2146 c-22 -13 -16 -14 63 -12 l87 3 39 -70 c21 -38 41 -65 45
-59 9 15 -62 140 -82 145 -41 10 -129 5 -152 -7z"/>
<path d="M758 2083 c7 -3 16 -2 19 1 4 3 -2 6 -13 5 -11 0 -14 -3 -6 -6z"/>
<path d="M860 2040 c0 -5 5 -10 11 -10 5 0 7 5 4 10 -3 6 -8 10 -11 10 -2 0
-4 -4 -4 -10z"/>
<path d="M258 1653 c23 -2 59 -2 80 0 20 2 1 4 -43 4 -44 0 -61 -2 -37 -4z"/>
<path d="M977 1644 c-3 -3 13 -41 36 -84 41 -76 43 -78 77 -75 19 2 59 4 88 4
84 1 60 20 -30 23 l-82 3 -34 60 c-38 68 -46 78 -55 69z"/>
<path d="M185 1619 c-4 -6 -5 -12 -2 -15 2 -3 7 2 10 11 7 17 1 20 -8 4z"/>
<path d="M140 1539 c-7 -11 -10 -23 -7 -25 2 -2 9 7 15 21 14 30 7 33 -8 4z"/>
<path d="M632 1400 c-23 -39 -42 -73 -42 -77 0 -19 83 -143 95 -143 10 0 2 20
-25 63 -22 34 -40 69 -40 77 0 24 71 139 89 143 9 3 5 5 -9 6 -22 1 -33 -10
-68 -69z"/>
<path d="M718 1183 c6 -2 18 -2 25 0 6 3 1 5 -13 5 -14 0 -19 -2 -12 -5z"/>
<path d="M375 971 c-39 -6 -40 -7 -43 -48 -3 -38 -1 -43 17 -43 20 0 21 -5 21
-138 0 -76 -3 -141 -6 -145 -3 -3 -17 -1 -30 5 -23 11 -24 16 -24 97 0 100
-11 123 -66 141 -40 13 -127 7 -181 -12 -28 -10 -33 -17 -33 -44 0 -44 20 -57
88 -55 67 1 55 -14 -21 -24 -70 -10 -87 -31 -87 -105 0 -33 4 -60 10 -60 6 0
10 -6 10 -14 0 -8 6 -16 14 -19 8 -3 123 -6 255 -6 l241 0 0 32 c1 27 2 29 11
14 25 -43 52 -46 349 -47 270 0 282 1 287 19 5 19 5 19 36 0 36 -22 165 -27
214 -8 20 7 29 7 31 -1 5 -14 1038 -13 1064 1 27 14 25 85 -2 94 -18 6 -20 15
-20 85 0 101 -10 127 -57 147 -41 16 -132 13 -192 -8 -27 -10 -31 -16 -31 -47
0 -58 8 -64 81 -58 44 4 58 3 44 -3 -11 -5 -31 -10 -45 -10 -14 -1 -41 -9 -60
-19 -28 -14 -37 -26 -45 -62 -11 -44 -12 -43 -19 61 -4 58 -4 140 0 182 8 95
1 107 -67 107 -38 0 -51 -4 -63 -22 -18 -26 -21 -71 -6 -98 9 -16 6 -21 -15
-26 -21 -5 -25 -12 -25 -44 0 -29 4 -39 20 -43 18 -5 20 -14 20 -80 0 -63 -3
-75 -17 -79 -39 -10 -43 0 -43 107 0 134 -11 151 -97 149 -69 -2 -113 -2 -248
-1 -121 1 -175 -8 -175 -29 0 -12 -5 -11 -26 5 -22 17 -41 21 -106 21 -135 0
-168 -33 -168 -170 0 -47 -4 -80 -10 -80 -6 0 -10 42 -10 105 0 91 -3 108 -20
125 -26 26 -61 34 -121 27 l-49 -6 0 71 0 71 -71 -7 c-96 -10 -99 -12 -99 -56
0 -29 4 -39 20 -43 16 -4 20 -14 20 -46 l0 -40 -25 24 c-21 22 -33 25 -102 25
-132 0 -173 -42 -173 -175 0 -60 -3 -75 -15 -75 -13 0 -15 28 -15 195 l0 195
-42 -1 c-24 -1 -61 -5 -83 -8z m105 -205 c0 -185 1 -194 20 -199 12 -3 20 -14
20 -26 0 -20 -5 -21 -80 -21 -66 0 -82 3 -87 17 -4 11 1 22 15 31 21 14 22 21
22 173 0 154 -1 159 -21 159 -15 0 -20 5 -17 23 3 22 30 31 106 36 l22 1 0
-194z m458 105 c-3 -89 -3 -90 17 -71 43 40 142 34 165 -11 6 -10 10 -63 10
-118 0 -92 2 -100 21 -106 12 -4 19 -14 17 -23 -3 -14 -18 -18 -86 -20 -78 -3
-82 -2 -82 19 0 12 8 23 20 26 18 5 20 14 20 78 0 92 -5 105 -40 105 -57 0
-60 -5 -60 -95 0 -74 2 -83 20 -88 12 -3 20 -14 20 -26 0 -20 -5 -21 -85 -21
-77 0 -85 2 -85 19 0 11 9 23 20 26 19 6 20 15 20 167 0 151 -1 160 -20 165
-28 7 -26 41 3 48 112 24 109 27 105 -74z m1220 77 c18 -18 14 -63 -8 -83 -45
-41 -110 18 -76 70 18 27 63 34 84 13z m-1923 -132 c46 -20 55 -42 55 -139 0
-80 1 -84 25 -95 31 -14 32 -26 3 -46 -31 -22 -94 -21 -107 1 -9 17 -10 17
-28 0 -13 -11 -36 -17 -66 -17 -57 0 -87 27 -87 78 0 64 18 77 133 97 32 5 38
10 35 28 -3 20 -9 22 -67 23 -61 1 -80 11 -81 40 0 6 17 16 38 22 81 25 103
26 147 8z m1370 -25 c-4 -9 5 -5 20 9 36 33 119 35 145 2 l17 -21 21 21 c16
16 34 22 72 22 78 1 90 -18 90 -149 0 -95 2 -104 20 -110 11 -3 20 -15 20 -26
0 -17 -8 -19 -80 -19 -72 0 -80 2 -80 19 0 11 9 23 20 26 18 6 20 15 20 89 0
98 -11 114 -63 100 l-32 -10 -3 -86 c-3 -79 -1 -87 18 -93 11 -3 20 -15 20
-26 0 -17 -8 -19 -80 -19 -72 0 -80 2 -80 19 0 11 9 23 20 26 18 6 20 15 20
89 0 98 -11 114 -63 100 l-32 -10 -3 -86 c-3 -79 -1 -87 18 -93 11 -3 20 -15
20 -26 0 -17 -8 -19 -80 -19 -72 0 -80 2 -80 19 0 11 9 23 20 26 18 6 20 15
20 106 0 92 -1 99 -20 99 -13 0 -20 7 -20 20 0 14 9 21 38 25 20 4 42 8 47 9
17 5 36 -16 30 -33z m560 -91 c6 -115 9 -130 26 -135 10 -4 19 -15 19 -26 0
-17 -8 -19 -90 -19 -84 0 -90 1 -90 20 0 12 9 24 21 28 19 7 21 17 22 100 2
89 1 93 -20 99 -39 9 -29 41 15 48 20 4 44 8 52 10 8 1 20 3 26 4 8 1 14 -43
19 -129z m270 115 c45 -18 55 -46 55 -147 0 -71 2 -80 20 -85 26 -7 26 -39 1
-53 -33 -17 -89 -12 -103 9 -11 18 -12 18 -32 0 -26 -25 -96 -25 -124 -1 -12
9 -22 28 -23 42 -6 76 12 94 110 111 55 10 62 14 59 33 -3 19 -9 21 -68 21
-66 0 -80 6 -80 37 0 16 34 32 90 41 47 8 61 7 95 -8z m-1650 -19 c26 -26 25
-51 -3 -73 -12 -10 -22 -7 -52 17 -37 30 -38 30 -61 11 -19 -16 -23 -28 -23
-76 0 -73 16 -88 94 -83 53 3 55 2 58 -24 4 -35 -25 -48 -104 -48 -101 0 -144
43 -144 145 0 104 50 155 153 155 48 0 62 -4 82 -24z m645 -3 c22 -20 33 -40
37 -69 l5 -41 -62 -6 c-35 -4 -78 -7 -96 -7 -37 0 -40 -6 -22 -45 14 -31 43
-40 108 -32 48 6 60 -1 60 -34 0 -18 -69 -39 -127 -39 -67 0 -118 25 -133 66
-15 39 -12 141 5 174 22 42 60 59 132 60 55 0 67 -4 93 -27z m80 -122 c0 -60
-4 -80 -14 -84 -9 -4 -17 2 -21 15 -6 18 -12 20 -70 13 -53 -5 -65 -3 -80 12
-18 17 -16 18 73 27 l92 8 0 44 c0 24 5 44 10 44 6 0 10 -33 10 -79z m-680 -8
c-1 -61 -3 -74 -11 -59 -10 15 -19 17 -63 12 -66 -9 -88 6 -88 58 0 54 15 65
52 38 16 -12 36 -22 45 -22 25 0 55 19 55 35 0 8 2 15 5 15 3 0 5 -35 5 -77z
m184 51 c3 -9 6 -40 6 -70 0 -53 0 -54 -30 -54 l-30 0 0 64 c0 62 5 73 36 75
7 1 15 -6 18 -15z m674 -55 c2 -53 0 -68 -13 -72 -34 -14 -45 3 -45 67 0 69 4
78 35 74 17 -3 20 -11 23 -69z m180 0 c2 -53 0 -68 -13 -72 -34 -14 -45 3 -45
67 0 69 4 78 35 74 17 -3 20 -11 23 -69z"/>
<path d="M380 548 c0 -5 26 -7 58 -7 61 1 55 6 -15 11 -24 2 -43 0 -43 -4z"/>
<path d="M991 793 c-1 -17 16 -25 25 -12 4 7 3 9 -4 5 -5 -3 -13 0 -15 6 -4 9
-6 10 -6 1z"/>
<path d="M1053 543 c15 -2 39 -2 55 0 15 2 2 4 -28 4 -30 0 -43 -2 -27 -4z"/>
<path d="M175 800 c-3 -6 1 -7 9 -4 18 7 21 14 7 14 -6 0 -13 -4 -16 -10z"/>
<path d="M123 773 c15 -2 37 -2 50 0 12 2 0 4 -28 4 -27 0 -38 -2 -22 -4z"/>
<path d="M261 714 c0 -11 3 -14 6 -6 3 7 2 16 -1 19 -3 4 -6 -2 -5 -13z"/>
<path d="M263 655 c0 -22 2 -30 4 -17 2 12 2 30 0 40 -3 9 -5 -1 -4 -23z"/>
<path d="M138 663 c7 -3 16 -2 19 1 4 3 -2 6 -13 5 -11 0 -14 -3 -6 -6z"/>
<path d="M60 639 c0 -5 5 -7 10 -4 6 3 10 8 10 11 0 2 -4 4 -10 4 -5 0 -10 -5
-10 -11z"/>
<path d="M248 543 c6 -2 18 -2 25 0 6 3 1 5 -13 5 -14 0 -19 -2 -12 -5z"/>
<path d="M1556 791 c-3 -5 2 -15 12 -22 15 -12 16 -12 5 2 -7 9 -10 19 -6 22
3 4 4 7 0 7 -3 0 -8 -4 -11 -9z"/>
<path d="M1736 674 c1 -69 5 -128 9 -132 5 -4 5 2 2 13 -7 18 -6 19 6 3 21
-26 17 177 -3 214 -14 25 -15 18 -14 -98z m21 34 c-3 -8 -6 -5 -6 6 -1 11 2
17 5 13 3 -3 4 -12 1 -19z m0 -40 c-3 -8 -6 -5 -6 6 -1 11 2 17 5 13 3 -3 4
-12 1 -19z m0 -40 c-3 -8 -6 -5 -6 6 -1 11 2 17 5 13 3 -3 4 -12 1 -19z m0
-40 c-3 -8 -6 -5 -6 6 -1 11 2 17 5 13 3 -3 4 -12 1 -19z"/>
<path d="M1554 666 c0 -52 3 -97 6 -99 3 -3 4 37 4 89 -1 52 -4 97 -6 100 -3
2 -5 -38 -4 -90z"/>
<path d="M2366 595 c-9 -26 -7 -32 5 -12 6 10 9 21 6 23 -2 3 -7 -2 -11 -11z"/>
<path d="M1350 790 c-23 -14 -20 -79 3 -92 13 -7 17 -7 13 0 -3 6 -2 14 4 17
8 5 8 11 0 20 -7 8 -7 15 -1 19 9 6 9 31 0 40 -2 3 -11 1 -19 -4z m16 -17 c-2
-9 -9 -19 -17 -21 -11 -3 -11 -1 1 7 13 10 13 11 0 11 -13 0 -13 1 0 10 19 12
19 13 16 -7z m-4 -48 c0 -5 -5 -10 -11 -11 -8 -2 -7 -1 0 3 8 4 7 8 -2 15 -11
8 -11 9 -1 6 8 -2 14 -8 14 -13z"/>
<path d="M1345 561 c-3 -5 -2 -12 3 -15 5 -3 9 1 9 9 0 17 -3 19 -12 6z"/>
<path d="M83 407 c-41 -7 -53 -13 -53 -27 0 -10 9 -20 20 -23 18 -5 20 -14 20
-100 0 -88 -2 -95 -21 -100 -13 -4 -20 -12 -17 -24 3 -16 14 -18 83 -18 69 0
80 2 83 18 3 12 -4 20 -17 24 -19 5 -21 13 -21 89 0 80 1 84 24 90 13 3 35 4
47 2 23 -3 24 -7 27 -89 3 -81 1 -87 -18 -92 -14 -4 -21 -12 -18 -24 3 -16 14
-18 83 -18 69 0 80 2 83 18 3 12 -4 20 -17 24 -20 5 -21 12 -21 108 0 132 -11
150 -93 150 -38 0 -61 -5 -74 -17 -24 -22 -33 -23 -33 -4 0 22 -9 23 -67 13z
m230 -39 c14 -16 17 -39 17 -119 0 -83 3 -100 18 -108 13 -8 3 -10 -42 -11
-51 0 -57 2 -43 13 15 10 17 27 15 112 l-3 100 -44 5 c-35 4 -41 7 -30 16 36
29 83 26 112 -8z m-183 7 c0 -8 8 -15 17 -15 13 0 14 -3 5 -12 -8 -8 -12 -46
-12 -105 0 -77 3 -94 18 -102 13 -8 2 -10 -43 -10 -33 1 -52 3 -42 6 16 4 18
17 17 121 -1 64 -1 120 -1 125 2 14 41 7 41 -8z"/>
<path d="M516 410 c-116 -36 -145 -218 -44 -280 44 -27 132 -27 172 -1 47 31
66 69 66 135 0 67 -23 115 -65 134 -37 17 -96 23 -129 12z m106 -32 c61 -23
88 -123 49 -182 -61 -92 -190 -86 -227 11 -29 75 6 152 81 177 39 14 45 13 97
-6z"/>
<path d="M1155 413 c-42 -9 -75 -26 -75 -38 0 -37 10 -42 57 -34 60 11 83 4
83 -26 0 -20 -7 -24 -62 -34 -47 -8 -69 -17 -85 -36 -51 -59 -11 -135 70 -135
31 0 49 6 62 20 l18 20 14 -20 c15 -22 56 -26 97 -10 35 13 35 47 1 56 -25 6
-26 8 -24 93 1 58 -3 95 -12 109 -22 34 -81 49 -144 35z m81 -23 c45 -18 53
-38 54 -132 0 -80 2 -88 22 -99 l22 -12 -23 -9 c-26 -9 -61 -2 -61 13 0 15
-39 11 -70 -7 -55 -33 -124 15 -99 69 12 27 42 41 117 52 41 7 42 8 42 45 0
52 -18 64 -82 57 -75 -9 -35 20 44 32 4 1 19 -4 34 -9z"/>
<path d="M714 398 c-4 -6 2 -19 13 -28 11 -9 44 -71 73 -138 44 -100 57 -122
74 -122 34 0 41 10 90 122 27 59 57 114 67 124 10 9 19 25 19 36 0 16 -8 18
-65 18 -58 0 -65 -2 -65 -19 0 -11 9 -23 20 -26 11 -4 18 -11 15 -16 -4 -5
-16 -38 -29 -74 l-22 -64 -35 99 -34 100 -57 0 c-32 0 -60 -5 -64 -12z m106
-17 c0 -6 14 -48 31 -95 24 -66 35 -86 49 -86 17 0 18 -4 9 -29 -20 -56 -34
-44 -84 72 -27 62 -55 120 -63 130 -14 16 -12 17 21 17 21 0 37 -4 37 -9z
m183 -17 c-12 -19 -18 -22 -21 -13 -3 8 -9 20 -15 27 -7 9 -2 12 22 12 l31 0
-17 -26z"/>
<path d="M1326 309 c-9 -45 -7 -92 4 -109 7 -10 10 9 10 63 0 42 -2 77 -4 77
-2 0 -6 -14 -10 -31z"/>
<path d="M1170 326 c0 -2 7 -7 16 -10 8 -3 12 -2 9 4 -6 10 -25 14 -25 6z"/>
<path d="M732 265 c0 -16 2 -22 5 -12 2 9 2 23 0 30 -3 6 -5 -1 -5 -18z"/>
<path d="M1022 185 c0 -16 2 -22 5 -12 2 9 2 23 0 30 -3 6 -5 -1 -5 -18z"/>
</g>
</svg>
