<?xml version="1.0" standalone="no"?>
<!DOCTYPE svg PUBLIC "-//W3C//DTD SVG 20010904//EN"
 "http://www.w3.org/TR/2001/REC-SVG-20010904/DTD/svg10.dtd">
<svg version="1.0" xmlns="http://www.w3.org/2000/svg"
 width="256.000000pt" height="256.000000pt" viewBox="0 0 256.000000 256.000000"
 preserveAspectRatio="xMidYMid meet">
<metadata>
Created by potrace 1.16, written by Peter Selinger 2001-2019
</metadata>
<g transform="translate(0.000000,256.000000) scale(0.100000,-0.100000)"
fill="#000000" stroke="none">
<path d="M1143 2235 c-134 -29 -262 -117 -334 -228 -41 -63 -423 -950 -445
-1032 -18 -67 -18 -217 1 -288 47 -181 191 -318 381 -363 134 -31 309 -2 419
70 98 65 111 69 147 50 18 -9 55 -32 83 -50 110 -72 285 -101 419 -70 190 45
334 182 381 363 19 71 19 221 1 288 -22 83 -404 969 -445 1032 -121 188 -368
280 -608 228z m288 -30 c109 -31 214 -104 282 -194 34 -46 92 -169 247 -533
112 -260 209 -498 216 -528 16 -65 18 -168 3 -230 -32 -140 -140 -273 -271
-335 -177 -84 -347 -66 -534 56 -79 51 -109 51 -188 0 -187 -122 -357 -140
-534 -56 -131 62 -239 195 -271 335 -15 62 -13 165 3 230 7 30 104 268 216
528 155 364 213 487 247 533 86 114 222 192 368 213 47 6 165 -4 216 -19z"/>
<path d="M1160 2126 c-111 -31 -213 -106 -267 -197 -56 -95 -422 -966 -434
-1034 -30 -174 63 -351 229 -432 74 -37 79 -38 182 -38 121 0 149 10 274 94
130 88 143 88 267 4 129 -88 157 -98 279 -98 103 0 108 1 182 38 166 81 259
258 229 432 -12 68 -378 939 -434 1034 -97 162 -320 249 -507 197z m263 -36
c73 -27 156 -91 205 -155 24 -34 106 -211 242 -530 l205 -480 0 -95 c0 -85 -4
-102 -30 -155 -59 -123 -192 -218 -322 -231 -84 -9 -177 20 -268 84 -96 67
-127 82 -175 82 -48 0 -79 -15 -175 -82 -91 -64 -184 -93 -268 -84 -130 13
-263 108 -322 231 -26 53 -30 70 -30 155 l0 95 198 465 c109 256 210 484 223
507 14 24 46 64 72 90 122 121 291 160 445 103z"/>
<path d="M1197 2070 c-98 -17 -197 -84 -253 -170 -12 -19 -112 -244 -221 -500
l-198 -465 0 -105 c0 -89 4 -112 23 -151 74 -149 231 -223 398 -189 108 22
178 69 261 172 33 41 61 68 73 68 12 0 40 -27 73 -68 83 -103 153 -150 261
-172 167 -34 324 40 398 189 19 39 23 62 23 151 l0 105 -203 474 c-118 277
-216 492 -234 516 -42 54 -105 102 -165 125 -59 22 -171 32 -236 20z m243 -54
c71 -35 141 -104 173 -170 14 -28 109 -249 212 -491 146 -341 188 -452 192
-495 10 -110 -48 -233 -141 -297 -59 -40 -113 -56 -191 -54 -119 2 -211 53
-306 168 -53 65 -57 68 -99 68 -42 0 -46 -3 -99 -68 -95 -115 -187 -166 -306
-168 -78 -2 -132 14 -191 54 -93 64 -151 187 -141 297 4 43 47 154 192 495
219 515 225 528 273 579 84 87 161 117 287 113 74 -2 99 -8 145 -31z"/>
<path d="M1186 1954 c-36 -11 -64 -31 -104 -72 -54 -56 -60 -69 -254 -522
l-199 -465 3 -71 c3 -58 9 -80 33 -120 60 -96 175 -136 285 -99 55 18 104 62
210 184 77 90 163 90 240 0 106 -122 155 -166 210 -184 110 -37 225 3 285 99
24 40 30 62 33 120 l3 71 -199 465 c-193 453 -200 466 -254 522 -81 83 -177
107 -292 72z m199 -36 c52 -26 102 -74 125 -119 10 -19 104 -236 209 -482 137
-321 191 -457 191 -484 -1 -87 -75 -181 -165 -209 -48 -15 -55 -15 -109 0 -46
14 -69 29 -114 74 -32 32 -68 74 -82 95 -40 59 -84 82 -160 82 -76 0 -120 -23
-160 -82 -14 -21 -50 -63 -82 -95 -45 -45 -68 -60 -114 -74 -54 -15 -61 -15
-109 0 -90 28 -164 122 -165 209 0 27 54 163 191 484 219 513 216 508 261 549
86 82 186 100 283 52z"/>
<path d="M1169 1880 c-20 -11 -48 -33 -62 -49 -13 -16 -113 -237 -221 -490
-216 -508 -219 -515 -173 -601 30 -57 80 -83 157 -83 90 0 122 22 222 154 113
148 126 159 188 159 62 0 75 -11 188 -159 100 -132 132 -154 222 -154 77 0
127 26 157 83 46 86 43 93 -173 601 -108 253 -208 474 -221 490 -42 49 -92 69
-175 69 -52 -1 -83 -6 -109 -20z m189 -16 c74 -31 83 -47 289 -528 214 -500
221 -523 177 -583 -55 -74 -143 -95 -217 -50 -23 14 -74 70 -125 137 -109 142
-125 155 -202 155 -77 0 -93 -13 -202 -155 -51 -67 -102 -123 -125 -137 -74
-45 -162 -24 -217 50 -44 60 -37 83 177 583 137 321 206 468 225 487 57 55
147 72 220 41z"/>
<path d="M1235 1787 c-17 -8 -36 -21 -42 -29 -23 -28 -393 -903 -393 -930 0
-17 10 -34 26 -47 54 -42 87 -22 186 113 45 61 93 122 107 134 89 82 233 82
322 0 14 -12 62 -73 107 -134 99 -135 132 -155 186 -113 16 13 26 30 26 47 0
15 -87 229 -192 476 -143 332 -200 454 -218 467 -34 26 -79 32 -115 16z m99
-39 c17 -16 87 -169 216 -471 183 -430 191 -450 174 -468 -38 -42 -62 -24
-169 123 -91 126 -138 163 -223 177 -29 4 -75 4 -104 0 -85 -14 -132 -51 -223
-177 -107 -147 -131 -165 -169 -123 -17 18 -9 38 174 468 129 302 199 455 216
471 14 12 38 22 54 22 16 0 40 -10 54 -22z"/>
</g>
</svg>
