<?xml version="1.0" standalone="no"?>
<!DOCTYPE svg PUBLIC "-//W3C//DTD SVG 20010904//EN"
 "http://www.w3.org/TR/2001/REC-SVG-20010904/DTD/svg10.dtd">
<svg version="1.0" xmlns="http://www.w3.org/2000/svg"
 width="100.000000pt" height="100.000000pt" viewBox="0 0 100.000000 100.000000"
 preserveAspectRatio="xMidYMid meet">
<metadata>
Created by potrace 1.16, written by Peter Selinger 2001-2019
</metadata>
<g transform="translate(0.000000,100.000000) scale(0.100000,-0.100000)"
fill="#000000" stroke="none">
<path d="M253 863 c54 -2 139 -2 190 0 51 1 7 3 -98 3 -104 0 -146 -2 -92 -3z"/>
<path d="M130 700 c0 -77 3 -140 8 -140 4 0 7 63 7 140 0 77 -3 140 -7 140 -5
0 -8 -63 -8 -140z"/>
<path d="M160 700 l0 -140 185 0 185 0 0 -45 0 -45 -185 0 -185 0 0 -155 0
-155 140 0 c118 0 140 2 140 15 0 8 7 15 15 15 8 0 15 7 15 15 0 8 7 15 15 15
8 0 15 7 15 15 0 8 7 15 15 15 11 0 15 -12 15 -45 l0 -45 155 0 155 0 -1 253
c0 174 -3 244 -10 228 -5 -14 -7 -31 -5 -38 3 -7 1 -13 -4 -13 -6 0 -10 23
-10 50 0 38 -4 50 -15 50 -8 0 -15 7 -15 15 0 8 -7 15 -15 15 -8 0 -15 7 -15
15 0 8 -7 15 -15 15 -8 0 -15 7 -15 15 0 8 -7 15 -15 15 -8 0 -15 7 -15 15 0
12 -14 15 -67 15 -74 0 -80 7 -13 15 24 3 46 8 49 10 2 3 -109 5 -247 5 l-252
0 0 -140z m384 105 c4 -10 20 -15 50 -15 30 0 46 -5 50 -15 3 -8 17 -15 31
-15 16 0 25 -6 25 -15 0 -8 7 -15 15 -15 8 0 15 -7 15 -15 0 -8 7 -15 15 -15
10 0 15 -10 15 -30 0 -20 5 -30 15 -30 11 0 15 -11 15 -39 0 -22 6 -44 15 -51
12 -10 15 -45 15 -191 l0 -179 -135 0 -135 0 0 45 c0 45 0 45 -35 45 -24 0
-35 -5 -35 -15 0 -8 -7 -15 -15 -15 -8 0 -15 -7 -15 -15 0 -10 -10 -15 -30
-15 -20 0 -30 -5 -30 -15 0 -12 -18 -15 -105 -15 l-105 0 0 120 0 120 120 0
120 0 0 -50 c0 -43 3 -50 20 -50 11 0 20 -4 20 -10 0 -5 11 -10 25 -10 14 0
25 5 25 10 0 6 9 10 20 10 13 0 20 7 20 19 0 10 7 21 15 25 21 8 19 53 -2 66
-17 10 -17 10 0 20 23 14 25 100 2 100 -8 0 -15 7 -15 15 0 13 -27 15 -185 15
l-185 0 0 120 0 120 179 0 c150 0 180 -2 185 -15z m15 -307 c0 -28 -2 -30 -9
-13 -12 28 -12 45 0 45 6 0 10 -15 9 -32z m-196 -55 c-35 -2 -91 -2 -125 0
-35 2 -7 3 62 3 69 0 97 -1 63 -3z m167 -53 l0 -50 -45 0 -45 0 0 50 0 50 45
0 45 0 0 -50z m27 -2 c-3 -8 -6 -5 -6 6 -1 11 2 17 5 13 3 -3 4 -12 1 -19z
m-60 -74 c-3 -3 -12 -4 -19 -1 -8 3 -5 6 6 6 11 1 17 -2 13 -5z"/>
<path d="M455 420 c-3 -5 -1 -10 4 -10 6 0 11 5 11 10 0 6 -2 10 -4 10 -3 0
-8 -4 -11 -10z"/>
<path d="M450 371 c0 -6 5 -13 10 -16 6 -3 10 1 10 9 0 9 -4 16 -10 16 -5 0
-10 -4 -10 -9z"/>
<path d="M705 800 c3 -5 8 -10 11 -10 2 0 4 5 4 10 0 6 -5 10 -11 10 -5 0 -7
-4 -4 -10z"/>
<path d="M735 770 c3 -5 8 -10 11 -10 2 0 4 5 4 10 0 6 -5 10 -11 10 -5 0 -7
-4 -4 -10z"/>
<path d="M765 740 c3 -5 8 -10 11 -10 2 0 4 5 4 10 0 6 -5 10 -11 10 -5 0 -7
-4 -4 -10z"/>
<path d="M864 360 c0 -113 2 -159 3 -102 2 56 2 148 0 205 -1 56 -3 10 -3
-103z"/>
<path d="M130 540 c0 -5 5 -10 11 -10 5 0 7 5 4 10 -3 6 -8 10 -11 10 -2 0 -4
-4 -4 -10z"/>
<path d="M160 538 c0 -5 82 -8 182 -8 100 0 179 2 176 5 -9 9 -358 11 -358 3z"/>
<path d="M130 315 c0 -85 3 -155 8 -155 4 0 7 70 7 155 0 85 -3 155 -7 155 -5
0 -8 -70 -8 -155z"/>
<path d="M485 200 c-3 -5 -1 -10 4 -10 6 0 11 5 11 10 0 6 -2 10 -4 10 -3 0
-8 -4 -11 -10z"/>
<path d="M223 133 c37 -2 96 -2 130 0 34 2 4 3 -68 3 -72 0 -99 -1 -62 -3z"/>
<path d="M608 133 c46 -2 118 -2 160 0 42 1 5 3 -83 3 -88 0 -123 -2 -77 -3z"/>
</g>
</svg>
