<?xml version="1.0" standalone="no"?>
<!DOCTYPE svg PUBLIC "-//W3C//DTD SVG 20010904//EN"
 "http://www.w3.org/TR/2001/REC-SVG-20010904/DTD/svg10.dtd">
<svg version="1.0" xmlns="http://www.w3.org/2000/svg"
 width="192.000000pt" height="192.000000pt" viewBox="0 0 192.000000 192.000000"
 preserveAspectRatio="xMidYMid meet">
<metadata>
Created by potrace 1.16, written by Peter Selinger 2001-2019
</metadata>
<g transform="translate(0.000000,192.000000) scale(0.100000,-0.100000)"
fill="#000000" stroke="none">
<path d="M303 1545 c-106 -81 -193 -150 -193 -154 0 -3 66 -65 146 -136 81
-72 266 -237 413 -368 146 -130 272 -236 278 -235 18 4 861 721 862 733 1 9
-69 61 -346 260 l-55 39 -457 4 -456 4 -192 -147z m540 105 c-4 -4 -34 -15
-65 -25 -55 -17 -57 -17 -82 2 -14 11 -24 22 -21 24 2 2 43 5 90 5 48 1 83 -2
78 -6z m-326 -87 c-47 -49 -95 -99 -107 -113 l-21 -25 5 25 c2 14 8 48 11 75
6 42 13 56 48 87 37 33 48 37 96 38 l54 0 -86 -87z m528 47 c106 -39 105 -39
83 -51 -10 -5 -55 -41 -101 -78 l-84 -69 -94 80 c-52 44 -95 81 -97 83 -5 4
183 74 193 71 6 -2 51 -18 100 -36z m150 15 c-16 -13 -34 -22 -40 -20 -5 2
-34 11 -62 20 -29 9 -53 18 -53 21 0 2 42 4 93 4 l92 0 -30 -25z m252 -16 c42
-30 45 -36 58 -132 l6 -47 -105 107 c-58 60 -106 109 -106 110 0 1 24 -1 53
-4 33 -4 67 -16 94 -34z m-783 2 l28 -29 -104 -58 c-56 -33 -107 -61 -113 -63
-5 -2 28 37 75 87 47 49 85 90 86 91 0 1 13 -12 28 -28z m682 -65 c46 -46 84
-86 84 -90 0 -3 -17 4 -37 17 -21 13 -72 41 -113 63 -41 21 -77 40 -80 42 -4
3 50 51 59 52 2 0 41 -38 87 -84z m-616 24 c0 -5 -2 -10 -4 -10 -3 0 -8 5 -11
10 -3 6 -1 10 4 10 6 0 11 -4 11 -10z m450 0 c0 -5 -4 -10 -10 -10 -5 0 -10 5
-10 10 0 6 5 10 10 10 6 0 10 -4 10 -10z m-820 -113 l-10 -77 86 -136 c48 -74
84 -137 82 -139 -2 -2 -22 19 -45 48 -22 29 -78 95 -123 146 -69 78 -81 97
-72 110 6 9 28 42 48 74 20 31 39 56 40 54 2 -2 0 -38 -6 -80z m314 9 l-23
-75 74 -198 c40 -108 73 -199 71 -200 -3 -3 -38 33 -283 287 l-101 105 106 59
c59 32 121 67 137 77 17 10 33 19 36 19 4 0 -4 -33 -17 -74z m76 67 c0 -5 38
-39 85 -77 47 -39 85 -75 85 -80 -1 -36 -79 -398 -83 -386 -2 8 -36 101 -75
207 l-70 192 20 76 c12 41 25 75 30 75 4 0 8 -3 8 -7z m435 -80 l18 -63 -79
-205 c-43 -112 -82 -205 -86 -205 -5 0 -8 10 -8 23 0 13 -16 102 -35 197 -19
96 -31 178 -27 182 47 47 188 152 193 144 3 -6 14 -39 24 -73z m160 8 c77 -41
142 -76 145 -78 3 -3 -87 -94 -200 -203 -113 -109 -206 -197 -208 -196 -1 2
11 32 27 67 15 35 52 125 81 200 l52 136 -24 77 c-14 42 -23 75 -19 74 3 -2
69 -36 146 -77z m252 -2 l49 -65 -109 -120 c-60 -65 -121 -134 -135 -152 -13
-18 -27 -30 -30 -28 -2 3 37 66 88 142 l92 136 -6 62 c-4 33 -10 72 -13 86 -7
31 0 24 64 -61z m-1345 -25 c-37 -45 -42 -35 99 -187 56 -59 100 -110 98 -112
-2 -2 -49 38 -105 88 -55 51 -119 109 -143 131 -36 31 -41 40 -29 47 9 5 35
25 58 44 52 44 63 39 22 -11z m1460 -16 l46 -35 -136 -119 c-76 -65 -181 -156
-234 -202 l-98 -83 32 50 c21 35 38 51 52 51 19 0 137 112 280 267 l40 43 -32
39 c-35 43 -42 63 -14 39 9 -9 38 -31 64 -50z m-844 -601 c17 -45 32 -82 32
-84 0 -2 -53 44 -117 102 -107 97 -124 117 -199 241 -46 74 -91 146 -102 162
-10 15 -23 34 -27 42 -5 8 79 -75 186 -184 187 -192 195 -202 227 -279z m484
317 c-54 -82 -107 -164 -119 -183 -18 -30 -234 -224 -241 -217 -1 2 11 39 28
82 29 78 32 82 227 275 109 107 199 195 201 193 2 -1 -41 -68 -96 -150z m-402
129 c0 -10 14 -93 32 -185 l32 -167 -29 -83 c-36 -106 -42 -118 -49 -98 -2 8
-19 54 -36 101 l-32 87 31 153 c17 84 31 165 31 181 0 15 5 28 10 28 6 0 10
-8 10 -17z m-390 -209 c31 -49 21 -51 -25 -4 -34 35 -37 40 -18 40 14 0 29
-13 43 -36z m290 -104 c0 -5 -4 -10 -10 -10 -5 0 -10 5 -10 10 0 6 5 10 10 10
6 0 10 -4 10 -10z m210 6 c0 -3 -4 -8 -10 -11 -5 -3 -10 -1 -10 4 0 6 5 11 10
11 6 0 10 -2 10 -4z m-103 -262 c-3 -3 -12 -4 -19 -1 -8 3 -5 6 6 6 11 1 17
-2 13 -5z"/>
<path d="M888 593 c-39 -33 -286 -251 -343 -304 -22 -21 -104 -94 -183 -163
-108 -95 -137 -126 -120 -126 13 0 37 12 53 26 57 48 125 115 125 122 0 4 48
50 107 102 59 52 104 86 100 76 -13 -33 -99 -166 -107 -166 -7 0 -68 -88 -79
-115 -2 -5 -11 -16 -19 -24 -9 -10 -11 -16 -4 -19 21 -7 61 46 178 236 35 56
64 105 64 108 0 4 12 16 27 28 74 57 195 173 206 195 7 14 24 30 38 35 24 8
33 2 110 -75 46 -46 105 -99 131 -118 25 -18 52 -46 58 -62 7 -16 16 -29 21
-29 5 0 9 -5 9 -10 0 -12 72 -124 83 -128 4 -2 7 -8 7 -14 0 -29 122 -179 136
-166 4 5 -91 147 -120 178 -25 27 -116 164 -116 175 0 10 95 -70 166 -140 62
-61 194 -180 223 -202 9 -7 26 -13 39 -13 21 0 21 1 5 18 -10 11 -21 17 -25
15 -3 -2 -8 1 -10 6 -1 4 -41 41 -88 81 -47 39 -99 84 -116 98 -17 15 -52 45
-79 67 -26 22 -63 55 -81 72 -19 18 -34 29 -34 25 0 -4 -4 -2 -8 5 -4 7 -66
62 -137 122 -144 123 -161 129 -217 84z"/>
<path d="M900 538 c-10 -17 -28 -56 -40 -87 -18 -48 -48 -84 -199 -240 -114
-118 -177 -190 -173 -199 3 -10 51 32 146 130 78 79 156 164 175 188 31 38 35
41 42 23 4 -10 6 -34 4 -51 -3 -47 48 -295 63 -300 19 -6 14 50 -21 220 -18
87 -29 164 -25 172 4 7 21 50 38 95 30 82 25 107 -10 49z"/>
<path d="M960 543 c20 -65 43 -129 51 -139 5 -6 -5 -80 -24 -175 -34 -171 -39
-220 -22 -226 13 -4 65 253 65 320 0 26 4 47 10 47 5 0 28 -23 50 -52 65 -82
315 -317 328 -309 7 4 -59 78 -183 201 -107 107 -195 199 -196 204 -1 24 -56
146 -62 140 -4 -4 -7 -2 -7 4 0 7 -4 12 -9 12 -6 0 -6 -11 -1 -27z"/>
<path d="M1054 293 c61 -175 113 -293 129 -293 9 0 17 2 17 5 0 6 -93 239
-111 278 -14 30 -45 39 -35 10z"/>
<path d="M800 286 c0 -6 -6 -22 -13 -36 -8 -14 -18 -39 -24 -55 -6 -17 -25
-67 -42 -112 -28 -75 -29 -83 -12 -83 14 0 29 30 69 138 29 77 52 143 52 149
0 5 -7 10 -15 10 -8 0 -15 -5 -15 -11z"/>
<path d="M1406 168 c4 -7 39 -48 77 -90 52 -58 76 -78 94 -78 23 0 15 11 -65
90 -50 50 -95 90 -102 90 -6 0 -8 -6 -4 -12z"/>
<path d="M390 80 c-65 -66 -75 -80 -57 -80 13 0 34 14 52 37 17 20 47 56 69
80 67 74 19 47 -64 -37z"/>
</g>
</svg>
