<?xml version="1.0" standalone="no"?>
<!DOCTYPE svg PUBLIC "-//W3C//DTD SVG 20010904//EN"
 "http://www.w3.org/TR/2001/REC-SVG-20010904/DTD/svg10.dtd">
<svg version="1.0" xmlns="http://www.w3.org/2000/svg"
 width="180.000000pt" height="180.000000pt" viewBox="0 0 180.000000 180.000000"
 preserveAspectRatio="xMidYMid meet">
<metadata>
Created by potrace 1.16, written by Peter Selinger 2001-2019
</metadata>
<g transform="translate(0.000000,180.000000) scale(0.100000,-0.100000)"
fill="#000000" stroke="none">
<path d="M496 1760 c-43 -22 -86 -45 -95 -53 -9 -7 -29 -19 -46 -27 -16 -8
-74 -59 -128 -114 -90 -91 -102 -108 -159 -224 -48 -99 -62 -138 -65 -182 l-3
-55 19 58 c11 32 44 109 75 172 50 101 67 124 154 212 53 54 111 105 127 113
17 8 41 22 54 32 26 19 112 62 181 89 l45 18 -40 0 c-27 0 -67 -13 -119 -39z"/>
<path d="M1175 1785 c37 -11 142 -63 239 -118 43 -24 159 -134 217 -207 20
-25 56 -85 79 -135 53 -114 56 -120 75 -180 l15 -50 -4 61 c-2 33 -8 69 -14
80 -5 10 -29 60 -52 109 -47 100 -82 148 -186 250 -72 72 -87 82 -236 160 -67
34 -98 45 -130 44 l-43 -1 40 -13z"/>
<path d="M815 1454 c-73 -18 -152 -51 -205 -85 -33 -21 -65 -39 -70 -39 -4 0
-18 -12 -30 -27 -11 -16 -41 -54 -66 -86 -27 -34 -58 -91 -76 -140 -27 -71
-31 -95 -31 -177 0 -78 5 -107 27 -165 15 -38 28 -74 29 -80 1 -5 4 -12 8 -15
3 -3 31 -38 63 -78 31 -40 76 -84 99 -98 23 -14 54 -34 69 -45 15 -10 62 -31
105 -46 176 -60 363 -19 537 118 16 13 38 38 49 56 10 18 24 30 30 26 5 -3 7
-2 4 4 -4 5 2 19 12 30 51 54 95 191 94 293 0 101 -39 228 -88 288 -7 9 -32
41 -55 70 -49 62 -172 146 -248 168 -29 9 -50 19 -48 22 5 8 -179 13 -209 6z
m236 -47 c91 -32 200 -106 249 -170 23 -28 48 -60 55 -69 46 -57 87 -186 87
-273 -1 -87 -48 -221 -94 -269 -11 -12 -31 -37 -43 -57 -64 -100 -265 -200
-405 -201 -70 -1 -199 36 -248 71 -15 11 -46 31 -69 45 -45 28 -138 138 -170
201 -38 74 -56 148 -56 220 1 93 44 213 107 292 25 32 55 70 66 86 12 15 26
27 30 27 5 0 37 18 70 39 52 34 128 65 205 85 39 10 151 -4 216 -27z"/>
<path d="M1772 626 c-36 -109 -106 -246 -149 -293 -22 -24 -38 -43 -37 -43 11
0 -140 -137 -172 -157 -50 -30 -210 -108 -249 -121 l-30 -10 40 -1 c39 -1 155
50 259 112 45 27 152 130 212 202 72 89 157 281 152 345 -3 35 -4 33 -26 -34z"/>
<path d="M3 640 c4 -65 87 -247 146 -320 56 -70 175 -183 218 -208 124 -71
219 -112 257 -111 l41 0 -50 18 c-47 17 -138 62 -228 114 -43 24 -162 137
-218 207 -41 50 -121 211 -150 299 l-19 56 3 -55z"/>
</g>
</svg>
