<?xml version="1.0" standalone="no"?>
<!DOCTYPE svg PUBLIC "-//W3C//DTD SVG 20010904//EN"
 "http://www.w3.org/TR/2001/REC-SVG-20010904/DTD/svg10.dtd">
<svg version="1.0" xmlns="http://www.w3.org/2000/svg"
 width="180.000000pt" height="180.000000pt" viewBox="0 0 180.000000 180.000000"
 preserveAspectRatio="xMidYMid meet">
<metadata>
Created by potrace 1.16, written by Peter Selinger 2001-2019
</metadata>
<g transform="translate(0.000000,180.000000) scale(0.100000,-0.100000)"
fill="#000000" stroke="none">
<path d="M852 1598 c-8 -8 -12 -47 -12 -111 0 -90 -2 -99 -17 -92 -57 22 -127
28 -190 16 -177 -33 -283 -157 -283 -333 l0 -58 -93 0 c-105 0 -117 -6 -117
-60 0 -55 11 -60 137 -60 79 0 113 -3 113 -12 0 -6 101 -113 225 -238 l225
-226 0 -105 c0 -68 4 -109 12 -117 7 -7 29 -12 50 -12 50 0 58 21 58 143 l0
92 200 200 c110 110 212 217 227 238 l26 37 98 0 c129 0 149 8 149 58 0 21 -5
43 -12 50 -8 8 -47 12 -107 12 l-96 0 -1 68 c-4 184 -128 312 -318 328 -37 3
-81 0 -113 -9 l-53 -14 0 83 c0 113 -9 134 -58 134 -21 0 -43 -5 -50 -12z m76
-135 l3 -122 36 21 c25 15 58 23 114 26 110 6 166 -15 245 -93 73 -72 94 -125
94 -232 l0 -74 101 2 c104 2 124 -5 117 -37 -3 -17 -17 -20 -126 -24 -116 -5
-124 -6 -136 -28 -6 -12 -110 -121 -229 -240 l-217 -218 0 -113 c0 -94 -3
-113 -16 -118 -9 -3 -24 -2 -33 4 -13 8 -16 31 -18 118 l-1 107 -220 222
c-121 121 -223 231 -226 244 -7 21 -12 22 -127 22 -102 0 -121 2 -126 16 -3 9
-2 24 4 32 8 13 28 15 109 13 l99 -2 0 78 c0 69 4 87 33 145 33 68 81 116 152
154 51 28 209 27 265 -1 l40 -20 -4 108 c-4 115 4 141 43 135 20 -3 21 -10 24
-125z"/>
<path d="M594 1306 c-46 -20 -103 -74 -125 -119 -23 -44 -35 -131 -25 -171 l6
-26 206 2 205 3 1 135 0 135 -53 28 c-42 22 -66 27 -118 27 -36 -1 -80 -7 -97
-14z m194 -32 l52 -26 0 -114 0 -114 -185 0 -185 0 0 58 c0 71 36 134 102 180
73 50 138 55 216 16z"/>
<path d="M1011 1309 c-13 -5 -36 -18 -52 -30 l-29 -20 0 -135 0 -134 207 2
207 3 8 35 c11 51 -9 133 -45 187 -46 68 -117 103 -206 102 -36 0 -77 -5 -90
-10z m163 -23 c49 -20 116 -85 137 -131 10 -22 19 -61 19 -87 l0 -48 -185 0
-185 0 0 113 0 113 33 19 c61 38 124 45 181 21z"/>
<path d="M665 737 c105 -107 192 -195 195 -195 3 -1 5 86 5 193 l0 195 -195 0
-194 0 189 -193z m175 18 c0 -80 -1 -145 -3 -145 -1 0 -67 65 -147 145 l-145
145 148 0 147 0 0 -145z"/>
<path d="M930 733 l0 -198 190 190 c105 104 190 193 190 197 0 5 -85 8 -190 8
l-190 0 0 -197z m244 95 c-40 -40 -104 -107 -143 -148 l-70 -75 -1 148 0 147
143 0 143 0 -72 -72z"/>
</g>
</svg>
