<?xml version="1.0" standalone="no"?>
<!DOCTYPE svg PUBLIC "-//W3C//DTD SVG 20010904//EN"
 "http://www.w3.org/TR/2001/REC-SVG-20010904/DTD/svg10.dtd">
<svg version="1.0" xmlns="http://www.w3.org/2000/svg"
 width="180.000000pt" height="180.000000pt" viewBox="0 0 180.000000 180.000000"
 preserveAspectRatio="xMidYMid meet">
<metadata>
Created by potrace 1.16, written by Peter Selinger 2001-2019
</metadata>
<g transform="translate(0.000000,180.000000) scale(0.100000,-0.100000)"
fill="#000000" stroke="none">
<path d="M1250 1791 l-25 -7 26 -5 c17 -4 26 -1 26 8 0 7 -1 13 -1 12 -1 -1
-12 -4 -26 -8z"/>
<path d="M518 1783 c7 -3 16 -2 19 1 4 3 -2 6 -13 5 -11 0 -14 -3 -6 -6z"/>
<path d="M480 1769 c0 -5 5 -7 10 -4 6 3 10 8 10 11 0 2 -4 4 -10 4 -5 0 -10
-5 -10 -11z"/>
<path d="M604 1751 c-242 -82 -409 -230 -514 -454 -67 -142 -75 -186 -75 -402
0 -187 1 -192 32 -290 72 -224 229 -407 441 -514 77 -39 239 -83 289 -79 52 4
53 25 1 25 -24 0 -72 8 -107 18 -58 17 -62 20 -45 32 18 13 17 14 -8 8 -16 -4
-35 -5 -43 -1 -18 7 -9 33 13 39 12 3 11 5 -5 6 -14 1 -24 -6 -28 -19 -7 -21
-25 -28 -25 -9 0 6 -6 9 -14 6 -7 -3 -25 6 -39 19 -17 15 -32 21 -43 17 -14
-5 -16 -3 -11 11 5 14 3 17 -8 12 -8 -3 -15 -1 -15 4 0 6 -9 10 -20 10 -11 0
-20 6 -20 13 0 8 -11 19 -24 27 -14 7 -22 18 -20 25 3 7 0 16 -7 21 -8 4 -10
3 -5 -4 16 -26 -14 -10 -34 18 -12 17 -26 27 -32 24 -6 -4 -8 -2 -4 4 3 6 2
13 -4 17 -5 3 -10 18 -10 33 -1 30 -26 70 -37 58 -4 -4 -3 -10 3 -14 6 -4 15
-18 19 -32 9 -30 4 -26 -30 23 -14 21 -20 35 -13 32 7 -4 5 0 -5 8 -11 9 -15
21 -10 32 5 13 3 16 -6 10 -10 -6 -11 -2 -6 15 5 15 4 20 -4 16 -14 -9 -38 40
-67 137 -28 95 -29 101 -9 93 12 -4 15 2 14 27 -1 24 -3 26 -6 9 -3 -13 -10
-21 -16 -19 -8 3 -12 45 -12 143 0 154 10 230 26 201 6 -9 8 -21 5 -26 -3 -5
1 -12 10 -15 13 -5 15 -2 9 11 -4 10 -8 27 -9 38 0 11 -5 23 -9 26 -5 3 1 29
13 57 12 28 19 56 14 63 -4 8 -3 10 4 5 8 -5 12 1 12 14 0 13 4 19 11 14 6 -3
9 -17 6 -30 -3 -16 0 -24 10 -24 10 0 12 10 7 39 -4 27 -1 50 11 75 18 37 47
61 59 48 4 -3 4 1 0 11 -3 9 -11 14 -17 10 -6 -3 -7 -1 -3 5 11 19 26 14 36
-10 6 -17 9 -18 9 -6 1 9 -4 20 -9 23 -6 3 -10 13 -10 21 0 8 4 13 9 10 4 -3
13 6 20 20 6 14 15 23 20 20 5 -4 11 -1 13 6 2 6 10 8 16 4 17 -10 15 -24 -5
-29 -17 -4 -17 -5 0 -6 25 -1 34 29 13 44 -15 12 -14 14 14 26 16 8 30 17 30
21 0 5 7 8 16 8 8 0 13 -4 10 -9 -3 -5 3 -11 14 -14 11 -3 23 -1 26 4 3 5 -1
9 -9 9 -8 0 -19 6 -25 13 -9 10 -6 17 10 28 12 8 30 23 42 34 11 11 34 19 52
19 18 0 30 4 28 8 -3 4 4 8 15 8 12 0 21 -4 21 -10 0 -5 -4 -10 -10 -10 -5 0
-10 -4 -10 -10 0 -17 17 -11 25 8 4 10 1 21 -9 27 -12 7 -7 12 22 23 20 8 52
15 70 14 18 0 30 4 27 9 -4 5 5 9 19 9 14 0 28 5 31 10 3 6 15 10 26 10 10 0
19 -4 19 -10 0 -5 7 -10 16 -10 8 0 13 3 11 8 -9 13 152 7 165 -6 7 -7 19 -12
28 -11 10 0 9 3 -5 9 -19 8 -18 9 5 11 87 7 110 6 110 -2 0 -5 -5 -9 -11 -9
-5 0 -7 -4 -4 -10 9 -14 -8 -13 -23 2 -8 8 -12 8 -12 1 0 -12 23 -23 46 -23 8
0 14 6 14 14 0 24 22 24 86 0 93 -34 103 -40 97 -66 -4 -14 -2 -20 3 -15 5 5
9 14 9 20 0 5 6 12 13 15 6 2 12 -1 12 -7 0 -6 7 -11 15 -11 8 0 15 -4 15 -10
0 -5 8 -10 19 -10 10 0 24 -7 31 -15 7 -8 18 -15 26 -15 7 0 16 -5 20 -11 4
-8 0 -9 -15 -4 -12 4 -21 2 -21 -4 0 -6 7 -11 15 -11 9 0 12 -6 9 -15 -4 -10
-14 -14 -28 -10 -18 5 -17 3 4 -9 23 -13 25 -13 28 2 5 22 22 41 22 24 0 -7 5
-12 12 -12 15 0 105 -95 123 -130 8 -16 10 -32 5 -40 -10 -16 14 -70 31 -70 6
0 1 12 -10 26 -16 20 -18 31 -10 45 12 23 24 25 15 3 -8 -22 4 -40 16 -23 7
10 8 8 4 -7 -4 -14 2 -27 19 -42 16 -14 22 -27 18 -38 -4 -11 1 -23 13 -32 16
-12 16 -14 2 -9 -19 7 -38 -18 -38 -51 0 -11 -7 -23 -16 -26 -13 -5 -15 -1
-11 16 2 13 8 32 12 42 6 14 5 17 -3 12 -7 -4 -23 4 -37 20 -25 27 -34 51 -15
39 6 -3 10 -2 10 4 0 5 -6 14 -13 18 -7 4 -17 22 -23 38 -6 17 -16 29 -23 27
-6 -1 -22 20 -34 48 -17 38 -27 50 -44 50 -13 0 -24 8 -28 20 -5 16 -12 19
-27 14 -14 -4 -18 -3 -13 6 4 6 0 17 -8 23 -9 7 -18 23 -20 37 -4 25 -4 25 -6
-2 l-1 -27 -51 29 c-28 17 -55 28 -60 25 -5 -4 -9 -4 -9 0 0 3 10 10 23 15 19
8 17 9 -15 9 -21 1 -40 1 -43 1 -3 1 -22 7 -44 15 -22 7 -43 10 -47 7 -4 -4
-5 0 -2 8 4 12 -4 15 -46 13 -28 -1 -41 1 -28 3 12 3 22 10 22 15 0 5 -10 7
-22 5 -50 -10 -112 -17 -107 -11 4 3 26 10 50 15 l44 9 -49 -4 c-28 -3 -53
-10 -57 -16 -4 -7 -18 -9 -33 -5 -15 4 -43 2 -64 -3 -20 -5 -60 -12 -88 -15
-28 -3 -70 -13 -94 -21 -24 -8 -53 -13 -64 -10 -12 3 -16 2 -9 -1 10 -4 10 -8
0 -19 -8 -9 -19 -10 -36 -4 -13 5 -26 7 -29 4 -3 -3 0 -5 7 -5 7 0 9 -5 6 -11
-4 -6 -14 -8 -22 -5 -8 3 -11 1 -8 -4 3 -5 -5 -15 -19 -22 -14 -6 -26 -15 -26
-20 0 -4 -5 -8 -11 -8 -7 0 -27 -16 -45 -36 -20 -20 -39 -32 -45 -28 -8 4 -9
3 -5 -4 4 -7 2 -12 -3 -12 -6 0 -11 -6 -11 -12 -1 -22 -38 -58 -53 -52 -21 8
-30 -12 -16 -37 6 -13 7 -19 1 -15 -6 3 -16 -11 -22 -31 -17 -51 -27 -61 -24
-21 3 27 1 25 -10 -12 -7 -25 -18 -44 -24 -43 -6 2 -9 -4 -5 -13 5 -13 8 -13
15 -2 11 14 11 15 -23 -79 -11 -29 -19 -62 -19 -73 0 -11 -3 -20 -8 -20 -4 0
-6 -21 -5 -47 2 -45 2 -46 -7 -16 -12 38 -37 59 -26 22 16 -54 18 -89 7 -89
-6 0 -11 6 -11 13 0 6 -5 4 -11 -6 -6 -10 -8 -23 -5 -30 2 -7 5 -4 5 6 1 10 6
15 11 12 6 -3 10 -32 11 -63 1 -43 3 -51 9 -32 4 14 5 35 3 46 -3 12 0 24 5
28 6 3 9 -21 8 -64 -1 -39 2 -70 6 -70 4 0 8 -11 8 -24 0 -13 9 -52 21 -87 12
-39 18 -78 15 -99 -4 -27 -3 -31 5 -17 11 20 31 23 27 4 -1 -6 8 -31 20 -54
20 -38 20 -42 4 -46 -9 -2 -5 -3 11 -1 22 3 27 0 27 -17 0 -11 4 -17 10 -14 5
3 15 -5 21 -19 7 -14 23 -33 36 -41 12 -9 23 -22 23 -31 0 -8 4 -12 10 -9 6 4
7 -1 3 -11 -5 -13 -3 -16 10 -11 9 3 17 2 17 -3 0 -6 6 -10 14 -10 7 0 20 -7
27 -16 7 -9 24 -20 37 -25 14 -5 20 -14 16 -21 -5 -7 -2 -9 9 -5 8 3 32 -3 51
-13 22 -11 31 -20 24 -23 -13 -6 22 -10 57 -8 16 1 14 -4 -15 -29 -22 -19 -29
-30 -19 -30 9 0 28 11 43 25 24 23 54 26 41 5 -10 -15 389 -17 409 -1 9 7 16
7 26 -2 10 -10 12 -8 6 7 -5 15 -2 17 14 13 11 -3 22 -1 25 4 10 16 31 -2 31
-26 0 -17 -6 -25 -17 -25 -10 0 -21 -5 -25 -11 -5 -8 1 -10 20 -7 14 3 26 1
26 -3 0 -5 -8 -10 -17 -11 -33 -2 -38 -3 -49 -10 -16 -11 -124 -26 -144 -21
-10 3 -21 0 -24 -6 -4 -6 -1 -11 6 -11 11 0 10 -2 0 -9 -22 -13 85 -1 173 20
348 84 617 398 648 757 2 32 1 48 -4 40 -7 -11 -11 -10 -19 2 -8 11 -9 8 -4
-13 7 -31 -16 -163 -26 -146 -4 6 -7 -7 -7 -28 0 -44 -96 -252 -108 -233 -3 5
-4 14 -1 18 3 5 0 9 -7 9 -7 0 -13 -12 -14 -25 -1 -18 1 -21 8 -11 5 8 9 10 9
4 -1 -16 -26 -45 -39 -45 -7 0 -10 -4 -7 -9 3 -5 -1 -12 -10 -15 -22 -8 -24
-8 -24 5 0 7 -8 17 -17 24 -15 11 -15 15 6 49 13 20 26 36 31 36 5 0 11 10 13
23 l4 22 2 -22 c0 -13 5 -23 9 -23 5 0 8 17 7 38 -1 21 7 54 19 77 11 22 19
44 18 48 -1 4 3 18 10 30 7 12 13 40 15 62 2 22 7 53 13 70 9 30 7 249 -4 294
-3 13 -1 32 5 42 7 15 6 17 -6 13 -10 -4 -15 0 -15 15 0 20 14 29 23 14 2 -5
3 -3 2 2 -2 6 0 28 4 49 6 37 7 39 23 22 26 -26 61 -153 60 -217 -1 -52 1 -56
18 -52 11 3 17 10 14 15 -4 6 -8 40 -9 77 -7 156 -100 346 -240 487 -106 106
-195 163 -333 210 l-97 34 -215 -1 c-208 0 -217 -1 -296 -28z m498 -121 c29
-6 96 -32 148 -58 178 -86 318 -259 371 -459 29 -107 32 -307 5 -413 -61 -250
-253 -456 -486 -523 -219 -63 -449 -37 -634 72 -114 67 -209 171 -268 291 -62
128 -78 202 -79 358 0 230 63 393 204 535 94 94 178 147 292 183 130 41 303
47 447 14z m381 -181 c4 -16 3 -18 -9 -8 -16 13 -19 29 -5 29 5 0 11 -9 14
-21z m-1218 -69 c3 -5 1 -10 -4 -10 -6 0 -11 5 -11 10 0 6 2 10 4 10 3 0 8 -4
11 -10z m1289 -26 c5 -14 4 -15 -9 -4 -17 14 -19 20 -6 20 5 0 12 -7 15 -16z
m76 -140 c0 -8 -4 -12 -10 -9 -5 3 -10 10 -10 16 0 5 5 9 10 9 6 0 10 -7 10
-16z m-95 -887 c12 -28 11 -32 -10 -49 -25 -19 -45 -23 -45 -9 0 5 -10 7 -22
3 -16 -4 -18 -7 -8 -10 16 -5 30 -22 30 -36 0 -5 -6 -3 -14 3 -11 9 -15 7 -18
-7 -3 -10 -21 -26 -41 -35 -20 -10 -39 -22 -42 -27 -11 -18 -86 -52 -102 -46
-19 8 -49 -20 -30 -28 6 -3 3 -4 -8 -3 -12 2 -18 9 -16 18 3 8 5 28 6 44 2 26
6 30 34 33 21 2 31 8 28 16 -3 8 8 12 37 11 36 -1 42 1 44 19 0 12 10 28 21
37 11 9 17 20 13 23 -3 4 1 4 11 0 12 -4 17 -1 17 12 0 9 2 15 5 12 3 -3 21
10 40 29 38 38 50 36 70 -10z m-196 -108 c-22 -13 -31 -11 -17 5 7 8 17 12 22
9 4 -3 2 -9 -5 -14z"/>
<path d="M758 1603 c7 -3 16 -2 19 1 4 3 -2 6 -13 5 -11 0 -14 -3 -6 -6z"/>
<path d="M728 1583 c7 -3 16 -2 19 1 4 3 -2 6 -13 5 -11 0 -14 -3 -6 -6z"/>
<path d="M1090 1580 c-8 -5 -11 -12 -8 -16 4 -3 14 1 23 10 18 17 9 21 -15 6z"/>
<path d="M646 1562 c-2 -4 4 -8 15 -8 10 0 19 4 19 8 0 4 -6 8 -14 8 -8 0 -17
-4 -20 -8z"/>
<path d="M1158 1563 c7 -3 16 -2 19 1 4 3 -2 6 -13 5 -11 0 -14 -3 -6 -6z"/>
<path d="M930 1550 c-12 -8 -11 -10 8 -10 12 0 22 5 22 10 0 13 -11 13 -30 0z"/>
<path d="M1020 1539 c0 -5 5 -7 10 -4 6 3 10 8 10 11 0 2 -4 4 -10 4 -5 0 -10
-5 -10 -11z"/>
<path d="M645 1530 c-3 -5 -1 -10 4 -10 6 0 11 5 11 10 0 6 -2 10 -4 10 -3 0
-8 -4 -11 -10z"/>
<path d="M534 1515 c-10 -8 -14 -15 -8 -15 6 0 17 7 24 15 16 19 9 19 -16 0z"/>
<path d="M733 1523 c15 -2 37 -2 50 0 12 2 0 4 -28 4 -27 0 -38 -2 -22 -4z"/>
<path d="M694 1491 c-2 -2 -4 -28 -4 -58 l0 -53 34 0 c22 0 36 -6 40 -16 3 -9
6 -231 6 -495 l0 -479 130 0 130 0 0 524 c0 500 -1 525 -19 547 -18 23 -27 24
-166 29 -81 3 -149 3 -151 1z m282 -46 c-3 -8 2 -18 10 -23 13 -7 15 -25 12
-95 -2 -48 -1 -87 2 -87 3 0 5 -162 5 -360 0 -198 -4 -360 -8 -360 -5 0 -7
-22 -5 -48 2 -41 0 -48 -15 -50 -16 -1 -17 2 -5 16 11 15 10 15 -8 0 -15 -14
-39 -18 -92 -18 l-72 0 -2 458 c-1 251 -2 470 -1 485 1 16 -1 26 -4 23 -3 -3
-12 1 -20 9 -8 8 -23 15 -34 15 -14 0 -19 7 -19 25 l0 25 131 0 c111 0 130 -2
125 -15z m31 -977 c-3 -7 -5 -2 -5 12 0 14 2 19 5 13 2 -7 2 -19 0 -25z"/>
<path d="M971 1363 c1 -53 6 -49 11 10 2 20 0 37 -4 37 -4 0 -8 -21 -7 -47z"/>
<path d="M975 890 c0 -195 1 -275 2 -178 2 98 2 258 0 355 -1 98 -2 18 -2
-177z"/>
<path d="M426 1451 c-4 -7 -5 -15 -2 -18 9 -9 19 4 14 18 -4 11 -6 11 -12 0z"/>
<path d="M471 1414 c0 -11 3 -14 6 -6 3 7 2 16 -1 19 -3 4 -6 -2 -5 -13z"/>
<path d="M1370 1420 c0 -5 5 -10 10 -10 6 0 10 5 10 10 0 6 -4 10 -10 10 -5 0
-10 -4 -10 -10z"/>
<path d="M347 1374 c-20 -27 -14 -32 10 -9 8 8 13 19 11 24 -2 5 -11 -2 -21
-15z"/>
<path d="M391 1383 c0 -12 -13 -31 -27 -42 -15 -12 -22 -21 -17 -21 19 0 55
48 50 67 -4 15 -5 14 -6 -4z"/>
<path d="M641 1384 c0 -11 3 -14 6 -6 3 7 2 16 -1 19 -3 4 -6 -2 -5 -13z"/>
<path d="M1440 1363 c0 -17 28 -48 36 -40 4 4 2 7 -4 7 -7 0 -12 6 -12 14 0 8
-4 18 -10 21 -5 3 -10 2 -10 -2z"/>
<path d="M695 1330 c3 -5 1 -10 -6 -10 -7 0 -10 -2 -7 -5 3 -3 18 1 34 10 l29
15 -28 0 c-16 0 -26 -4 -22 -10z"/>
<path d="M418 1313 c-21 -5 -23 -19 -6 -29 7 -4 8 -3 4 4 -4 7 -1 12 8 12 9 0
16 5 16 10 0 6 -1 9 -2 9 -2 -1 -11 -3 -20 -6z"/>
<path d="M650 1310 c-13 -8 -12 -10 3 -10 9 0 17 5 17 10 0 12 -1 12 -20 0z"/>
<path d="M1190 1312 c0 -4 17 -6 38 -4 58 5 62 10 10 11 -27 1 -48 -3 -48 -7z"/>
<path d="M1395 1310 c-3 -5 -2 -10 4 -10 5 0 13 5 16 10 3 6 2 10 -4 10 -5 0
-13 -4 -16 -10z"/>
<path d="M508 1303 c12 -2 30 -2 40 0 9 3 -1 5 -23 4 -22 0 -30 -2 -17 -4z"/>
<path d="M705 1290 c-3 -5 -1 -10 4 -10 6 0 11 5 11 10 0 6 -2 10 -4 10 -3 0
-8 -4 -11 -10z"/>
<path d="M1410 1286 c0 -2 7 -9 15 -16 13 -11 14 -10 9 4 -5 14 -24 23 -24 12z"/>
<path d="M542 1271 c-155 -9 -142 33 -142 -467 l0 -414 130 0 130 0 0 445 c0
245 -3 444 -7 443 -5 -1 -55 -4 -111 -7z m88 -442 l0 -410 -97 2 -98 3 2 390
c0 215 2 396 2 403 1 15 29 20 119 22 l72 1 0 -411z"/>
<path d="M447 1203 c-12 -12 -7 -22 8 -17 8 4 15 10 15 15 0 11 -14 12 -23 2z"/>
<path d="M461 1123 c1 -53 6 -49 11 10 2 20 0 37 -4 37 -4 0 -8 -21 -7 -47z"/>
<path d="M463 480 c0 -25 2 -35 4 -22 2 12 2 32 0 45 -2 12 -4 2 -4 -23z"/>
<path d="M1150 1273 c0 -2 0 -200 0 -440 l0 -438 130 -3 130 -3 -1 393 c-1
216 -4 404 -8 418 -15 62 -21 65 -140 70 -61 3 -111 4 -111 3z m209 -54 c18
-17 20 -23 10 -30 -11 -6 -11 -11 -1 -21 9 -9 12 -100 12 -380 l0 -368 -99 0
c-81 0 -100 3 -105 16 -3 9 -6 193 -6 410 l0 394 83 0 c71 0 87 -3 106 -21z"/>
<path d="M300 1259 c0 -6 -7 -8 -16 -5 -8 3 -12 2 -9 -4 10 -15 35 -12 35 5 0
8 -2 15 -5 15 -3 0 -5 -5 -5 -11z"/>
<path d="M697 1263 c-4 -3 -7 -11 -7 -17 0 -6 5 -5 12 2 6 6 9 14 7 17 -3 3
-9 2 -12 -2z"/>
<path d="M351 1224 c0 -11 3 -14 6 -6 3 7 2 16 -1 19 -3 4 -6 -2 -5 -13z"/>
<path d="M1531 1214 c0 -11 3 -14 6 -6 3 7 2 16 -1 19 -3 4 -6 -2 -5 -13z"/>
<path d="M1556 1177 c3 -10 9 -15 12 -12 3 3 0 11 -7 18 -10 9 -11 8 -5 -6z"/>
<path d="M216 1115 c-9 -26 -7 -32 5 -12 6 10 9 21 6 23 -2 3 -7 -2 -11 -11z"/>
<path d="M221 1034 c0 -11 3 -14 6 -6 3 7 2 16 -1 19 -3 4 -6 -2 -5 -13z"/>
<path d="M205 1000 c3 -5 8 -10 11 -10 2 0 4 5 4 10 0 6 -5 10 -11 10 -5 0 -7
-4 -4 -10z"/>
<path d="M1602 945 c0 -16 2 -22 5 -12 2 9 2 23 0 30 -3 6 -5 -1 -5 -18z"/>
<path d="M1602 860 c0 -14 2 -19 5 -12 2 6 2 18 0 25 -3 6 -5 1 -5 -13z"/>
<path d="M216 795 c-4 -14 -2 -33 4 -43 8 -13 9 -11 4 11 -4 17 -2 27 5 27 6
0 11 7 11 15 0 24 -17 17 -24 -10z"/>
<path d="M1530 670 c0 -5 5 -10 10 -10 6 0 10 5 10 10 0 6 -4 10 -10 10 -5 0
-10 -4 -10 -10z"/>
<path d="M1557 643 c-9 -9 -9 -41 1 -46 4 -3 7 8 8 24 1 31 1 32 -9 22z"/>
<path d="M255 589 c-11 -17 1 -21 15 -4 8 9 8 15 2 15 -6 0 -14 -5 -17 -11z"/>
<path d="M305 590 c3 -5 8 -10 11 -10 2 0 4 5 4 10 0 6 -5 10 -11 10 -5 0 -7
-4 -4 -10z"/>
<path d="M1541 574 c0 -11 3 -14 6 -6 3 7 2 16 -1 19 -3 4 -6 -2 -5 -13z"/>
<path d="M280 550 c0 -5 5 -10 10 -10 6 0 10 5 10 10 0 6 -4 10 -10 10 -5 0
-10 -4 -10 -10z"/>
<path d="M290 510 c0 -5 7 -7 15 -4 8 4 15 8 15 10 0 2 -7 4 -15 4 -8 0 -15
-4 -15 -10z"/>
<path d="M343 475 c0 -27 2 -38 4 -22 2 15 2 37 0 50 -2 12 -4 0 -4 -28z"/>
<path d="M1480 511 c0 -5 9 -7 20 -4 11 3 20 7 20 9 0 2 -9 4 -20 4 -11 0 -20
-4 -20 -9z"/>
<path d="M1446 445 c-9 -26 -7 -32 5 -12 6 10 9 21 6 23 -2 3 -7 -2 -11 -11z"/>
<path d="M710 393 c0 -5 5 -15 10 -23 8 -12 10 -11 10 8 0 12 -4 22 -10 22 -5
0 -10 -3 -10 -7z"/>
<path d="M425 350 c4 -6 11 -8 16 -5 14 9 11 15 -7 15 -8 0 -12 -5 -9 -10z"/>
<path d="M1337 349 c7 -7 15 -10 18 -7 3 3 -2 9 -12 12 -14 6 -15 5 -6 -5z"/>
<path d="M1300 341 c0 -6 4 -12 10 -16 5 -3 6 -13 3 -23 -6 -15 -4 -15 9 -4
15 12 15 15 0 33 -19 21 -22 23 -22 10z"/>
<path d="M1275 280 c-3 -5 -1 -10 4 -10 6 0 11 5 11 10 0 6 -2 10 -4 10 -3 0
-8 -4 -11 -10z"/>
<path d="M558 273 c7 -3 16 -2 19 1 4 3 -2 6 -13 5 -11 0 -14 -3 -6 -6z"/>
<path d="M1225 260 c-3 -5 -2 -10 4 -10 5 0 13 5 16 10 3 6 2 10 -4 10 -5 0
-13 -4 -16 -10z"/>
<path d="M565 253 c11 -3 24 -9 30 -14 14 -13 45 -11 45 4 0 8 -17 12 -48 13
-26 1 -38 -1 -27 -3z"/>
<path d="M748 188 c5 -5 16 -8 23 -6 8 3 3 7 -10 11 -17 4 -21 3 -13 -5z"/>
<path d="M797 189 c7 -7 15 -10 18 -7 3 3 -2 9 -12 12 -14 6 -15 5 -6 -5z"/>
<path d="M888 183 c6 -2 18 -2 25 0 6 3 1 5 -13 5 -14 0 -19 -2 -12 -5z"/>
<path d="M975 180 l-20 -9 20 0 c11 0 27 4 35 9 13 9 13 10 0 9 -8 0 -24 -4
-35 -9z"/>
<path d="M1505 300 c-15 -17 -16 -20 -3 -20 9 0 19 7 22 16 10 25 1 27 -19 4z"/>
<path d="M1265 130 c-3 -5 -1 -10 4 -10 6 0 11 5 11 10 0 6 -2 10 -4 10 -3 0
-8 -4 -11 -10z"/>
<path d="M858 1733 c12 -2 22 -9 22 -14 0 -5 12 -9 28 -9 27 1 27 1 -7 15 -18
8 -41 14 -50 14 -9 -1 -6 -4 7 -6z"/>
<path d="M720 1715 c0 -8 5 -15 10 -15 6 0 10 7 10 15 0 8 -4 15 -10 15 -5 0
-10 -7 -10 -15z"/>
<path d="M768 1723 c7 -3 16 -2 19 1 4 3 -2 6 -13 5 -11 0 -14 -3 -6 -6z"/>
<path d="M800 1720 c0 -5 7 -10 16 -10 8 0 12 5 9 10 -3 6 -10 10 -16 10 -5 0
-9 -4 -9 -10z"/>
<path d="M365 1710 c-3 -5 1 -10 9 -10 9 0 16 5 16 10 0 6 -4 10 -9 10 -6 0
-13 -4 -16 -10z"/>
<path d="M1388 1703 c6 -2 18 -2 25 0 6 3 1 5 -13 5 -14 0 -19 -2 -12 -5z"/>
<path d="M320 1689 c0 -5 5 -7 10 -4 6 3 10 8 10 11 0 2 -4 4 -10 4 -5 0 -10
-5 -10 -11z"/>
<path d="M745 1690 c-28 -7 -27 -8 13 -9 23 0 42 4 42 9 0 11 -11 11 -55 0z"/>
<path d="M483 1636 c0 -8 8 -11 20 -8 14 4 16 7 5 13 -19 12 -25 11 -25 -5z"/>
<path d="M280 1630 c-9 -6 -10 -10 -3 -10 6 0 15 5 18 10 8 12 4 12 -15 0z"/>
<path d="M1370 1621 c0 -6 5 -13 10 -16 6 -3 10 1 10 9 0 9 -4 16 -10 16 -5 0
-10 -4 -10 -9z"/>
<path d="M1525 1620 c-3 -5 -4 -10 -1 -10 2 0 12 -3 20 -6 12 -5 15 -2 10 10
-7 18 -20 21 -29 6z"/>
<path d="M1591 1614 c0 -11 3 -14 6 -6 3 7 2 16 -1 19 -3 4 -6 -2 -5 -13z"/>
<path d="M250 1606 c0 -2 7 -7 16 -10 8 -3 12 -2 9 4 -6 10 -25 14 -25 6z"/>
<path d="M1570 1570 c0 -5 5 -10 10 -10 6 0 10 5 10 10 0 6 -4 10 -10 10 -5 0
-10 -4 -10 -10z"/>
<path d="M166 1513 c-6 -14 -5 -15 5 -6 7 7 10 15 7 18 -3 3 -9 -2 -12 -12z"/>
<path d="M110 1469 c0 -5 5 -7 10 -4 6 3 10 8 10 11 0 2 -4 4 -10 4 -5 0 -10
-5 -10 -11z"/>
<path d="M1511 1464 c0 -11 3 -14 6 -6 3 7 2 16 -1 19 -3 4 -6 -2 -5 -13z"/>
<path d="M80 1460 c0 -5 5 -10 11 -10 5 0 7 5 4 10 -3 6 -8 10 -11 10 -2 0 -4
-4 -4 -10z"/>
<path d="M86 1399 c-8 -40 -4 -45 10 -14 6 13 8 28 4 35 -4 7 -10 -2 -14 -21z"/>
<path d="M1565 1390 c3 -5 8 -10 11 -10 2 0 4 5 4 10 0 6 -5 10 -11 10 -5 0
-7 -4 -4 -10z"/>
<path d="M1747 1363 c-4 -3 -7 -11 -7 -17 0 -6 5 -5 12 2 6 6 9 14 7 17 -3 3
-9 2 -12 -2z"/>
<path d="M156 1313 c7 -4 14 -17 17 -28 5 -16 5 -15 4 4 -1 14 -9 26 -17 28
-10 3 -11 2 -4 -4z"/>
<path d="M26 1267 c3 -10 9 -15 12 -12 3 3 0 11 -7 18 -10 9 -11 8 -5 -6z"/>
<path d="M12 1230 c0 -14 2 -19 5 -12 2 6 2 18 0 25 -3 6 -5 1 -5 -13z"/>
<path d="M1705 1170 c-3 -5 -1 -10 4 -10 6 0 11 5 11 10 0 6 -2 10 -4 10 -3 0
-8 -4 -11 -10z"/>
<path d="M50 1020 c-13 -8 -12 -11 5 -24 11 -8 22 -12 25 -9 3 3 0 8 -7 10 -7
2 -9 11 -6 19 6 16 3 17 -17 4z"/>
<path d="M52 940 c0 -14 2 -19 5 -12 2 6 2 18 0 25 -3 6 -5 1 -5 -13z"/>
<path d="M40 843 c0 -35 3 -44 10 -33 13 20 13 80 0 80 -5 0 -10 -21 -10 -47z"/>
<path d="M1671 724 c0 -11 3 -14 6 -6 3 7 2 16 -1 19 -3 4 -6 -2 -5 -13z"/>
<path d="M60 704 c0 -10 5 -26 10 -34 8 -11 9 -7 4 15 -8 37 -14 45 -14 19z"/>
<path d="M1668 680 c6 -8 12 -23 11 -34 0 -21 0 -21 -9 -1 -7 16 -9 17 -9 3
-1 -9 -3 -22 -4 -30 -2 -7 -2 -9 1 -5 2 4 10 0 18 -10 12 -17 13 -16 7 6 -5
21 -4 22 16 12 17 -10 21 -9 21 5 0 10 -5 14 -15 10 -10 -3 -15 1 -15 13 0 10
-8 25 -17 32 -15 11 -16 11 -5 -1z"/>
<path d="M1693 575 c-6 -14 -7 -25 -2 -25 11 0 22 25 17 39 -1 6 -8 -1 -15
-14z"/>
<path d="M10 570 c0 -5 5 -10 11 -10 5 0 7 5 4 10 -3 6 -8 10 -11 10 -2 0 -4
-4 -4 -10z"/>
<path d="M0 540 c0 -6 7 -13 15 -17 24 -9 27 1 5 15 -13 8 -20 8 -20 2z"/>
<path d="M1749 493 c-1 -5 -1 -23 -1 -41 1 -51 9 -49 10 3 1 25 -1 45 -3 45
-3 0 -6 -3 -6 -7z"/>
<path d="M35 450 c-3 -5 -1 -10 4 -10 6 0 11 5 11 10 0 6 -2 10 -4 10 -3 0 -8
-4 -11 -10z"/>
<path d="M1716 424 c-4 -9 -4 -19 -1 -22 2 -3 7 3 11 12 4 9 4 19 1 22 -2 3
-7 -3 -11 -12z"/>
<path d="M81 423 c0 -4 4 -17 9 -28 8 -19 9 -19 9 2 1 12 -3 25 -9 28 -5 3
-10 3 -9 -2z"/>
<path d="M237 414 c-11 -11 -8 -26 3 -19 6 3 10 1 10 -6 0 -7 3 -10 6 -6 3 3
2 13 -3 22 -5 8 -12 12 -16 9z"/>
<path d="M272 374 c-11 -12 -9 -14 8 -14 11 0 20 4 20 9 0 17 -15 19 -28 5z"/>
<path d="M1685 380 c-3 -5 -1 -10 4 -10 6 0 11 5 11 10 0 6 -2 10 -4 10 -3 0
-8 -4 -11 -10z"/>
<path d="M230 359 c0 -5 5 -7 10 -4 6 3 10 8 10 11 0 2 -4 4 -10 4 -5 0 -10
-5 -10 -11z"/>
<path d="M320 330 c0 -5 5 -10 10 -10 6 0 10 5 10 10 0 6 -4 10 -10 10 -5 0
-10 -4 -10 -10z"/>
<path d="M163 279 c-2 -23 3 -25 10 -4 4 8 3 16 -1 19 -4 3 -9 -4 -9 -15z"/>
<path d="M325 290 c3 -5 11 -10 16 -10 6 0 7 5 4 10 -3 6 -11 10 -16 10 -6 0
-7 -4 -4 -10z"/>
<path d="M410 230 c6 -11 7 -20 3 -20 -4 -1 4 -8 20 -16 27 -15 47 -12 47 7 0
5 -12 9 -26 9 -18 0 -25 4 -21 14 3 8 -1 17 -9 20 -24 9 -26 8 -14 -14z"/>
<path d="M160 220 c0 -5 5 -10 10 -10 6 0 10 5 10 10 0 6 -4 10 -10 10 -5 0
-10 -4 -10 -10z"/>
<path d="M210 215 c0 -8 5 -15 10 -15 6 0 10 7 10 15 0 8 -4 15 -10 15 -5 0
-10 -7 -10 -15z"/>
<path d="M1570 220 c0 -5 5 -10 10 -10 6 0 10 5 10 10 0 6 -4 10 -10 10 -5 0
-10 -4 -10 -10z"/>
<path d="M1455 140 c-3 -5 -1 -10 4 -10 6 0 11 5 11 10 0 6 -2 10 -4 10 -3 0
-8 -4 -11 -10z"/>
<path d="M1143 118 c-13 -6 -23 -15 -23 -19 0 -4 14 -1 30 7 29 15 39 25 23
23 -5 0 -18 -5 -30 -11z"/>
<path d="M1410 105 c-7 -8 -9 -15 -6 -15 4 0 14 7 22 15 9 8 11 15 6 15 -5 0
-15 -7 -22 -15z"/>
<path d="M400 68 c0 -5 11 -8 24 -8 14 0 27 3 29 8 3 4 -8 7 -24 7 -16 0 -29
-3 -29 -7z"/>
<path d="M1375 60 c3 -5 10 -10 16 -10 5 0 9 5 9 10 0 6 -7 10 -16 10 -8 0
-12 -4 -9 -10z"/>
<path d="M1305 50 c-3 -5 -1 -10 4 -10 6 0 11 5 11 10 0 6 -2 10 -4 10 -3 0
-8 -4 -11 -10z"/>
<path d="M1340 49 c0 -5 5 -7 10 -4 6 3 10 8 10 11 0 2 -4 4 -10 4 -5 0 -10
-5 -10 -11z"/>
<path d="M860 30 c0 -5 5 -10 10 -10 6 0 10 5 10 10 0 6 -4 10 -10 10 -5 0
-10 -4 -10 -10z"/>
<path d="M835 10 c-3 -5 -1 -10 4 -10 6 0 11 5 11 10 0 6 -2 10 -4 10 -3 0 -8
-4 -11 -10z"/>
</g>
</svg>
