<?xml version="1.0" standalone="no"?>
<!DOCTYPE svg PUBLIC "-//W3C//DTD SVG 20010904//EN"
 "http://www.w3.org/TR/2001/REC-SVG-20010904/DTD/svg10.dtd">
<svg version="1.0" xmlns="http://www.w3.org/2000/svg"
 width="256.000000pt" height="256.000000pt" viewBox="0 0 256.000000 256.000000"
 preserveAspectRatio="xMidYMid meet">
<metadata>
Created by potrace 1.16, written by Peter Selinger 2001-2019
</metadata>
<g transform="translate(0.000000,256.000000) scale(0.100000,-0.100000)"
fill="#000000" stroke="none">
<path d="M1080 2553 c-193 -30 -413 -116 -558 -220 -158 -112 -304 -282 -387
-449 -53 -107 -75 -169 -103 -285 -30 -125 -34 -159 -16 -159 9 0 14 10 14 29
0 31 39 188 65 260 31 89 108 230 170 312 118 158 267 282 442 368 117 58 318
121 386 121 17 0 27 5 27 15 0 8 -3 14 -7 14 -5 -1 -19 -3 -33 -6z"/>
<path d="M1440 2545 c0 -9 10 -15 26 -15 36 0 143 -27 243 -62 188 -65 323
-149 466 -293 144 -143 228 -278 293 -466 35 -100 62 -207 62 -243 0 -16 6
-26 15 -26 16 0 15 16 -12 135 -56 249 -163 446 -338 620 -174 175 -371 282
-620 338 -119 27 -135 28 -135 12z"/>
<path d="M1125 2364 c-148 -23 -262 -58 -370 -114 -209 -110 -367 -279 -457
-491 -52 -123 -66 -171 -83 -297 -19 -142 -19 -222 1 -364 34 -249 127 -440
299 -614 131 -133 292 -219 505 -271 108 -26 403 -26 515 0 226 53 371 132
522 284 232 235 336 574 289 944 -9 69 -23 145 -31 169 -8 23 -15 49 -15 56 0
24 -89 202 -133 266 -84 123 -222 244 -362 318 -152 80 -284 111 -495 115 -85
2 -168 1 -185 -1z m405 -43 c122 -29 165 -44 255 -91 140 -74 278 -195 362
-318 44 -64 133 -242 133 -266 0 -7 7 -33 15 -56 8 -24 22 -102 31 -173 13
-108 14 -149 5 -241 -7 -61 -16 -127 -20 -146 -53 -218 -136 -373 -274 -513
-151 -152 -296 -231 -522 -284 -111 -25 -368 -25 -475 0 -332 80 -575 271
-710 560 -57 122 -77 194 -97 350 -17 130 -17 144 0 277 19 148 29 186 85 319
128 300 393 515 722 584 116 25 126 26 270 22 90 -2 163 -10 220 -24z"/>
<path d="M980 2046 l0 -86 33 0 c66 0 61 50 67 -712 l5 -693 190 0 190 0 0
740 c0 800 1 789 -53 816 -19 9 -87 14 -229 17 l-203 4 0 -86z m412 45 c54
-27 53 -18 53 -796 l0 -720 -170 0 -170 0 -5 693 c-6 762 -1 712 -67 712 l-33
0 0 66 0 66 183 -4 c124 -3 191 -8 209 -17z"/>
<path d="M633 1806 c-17 -8 -40 -27 -50 -42 -17 -26 -18 -67 -21 -621 l-3
-593 188 2 188 3 0 630 0 630 -135 2 c-98 2 -144 -1 -167 -11z m282 -621 l0
-610 -168 -3 -168 -2 3 573 c3 535 4 575 21 601 30 45 68 56 197 53 l115 -2 0
-610z"/>
<path d="M1620 1190 l0 -630 190 0 191 0 -3 589 c-3 577 -3 590 -24 617 -31
42 -74 52 -221 53 l-133 1 0 -630z m279 596 c19 -7 44 -25 55 -40 21 -27 21
-40 24 -597 l3 -569 -171 0 -170 0 0 610 0 610 113 -1 c62 0 127 -6 146 -13z"/>
<path d="M6 1083 c3 -21 15 -76 26 -123 57 -237 155 -417 322 -588 194 -199
435 -319 734 -366 24 -4 32 -2 32 9 0 10 -10 15 -27 15 -40 0 -154 28 -253 63
-178 63 -332 161 -466 299 -165 169 -257 335 -319 576 -14 52 -25 107 -25 123
0 19 -5 29 -14 29 -11 0 -13 -9 -10 -37z"/>
<path d="M2530 1096 c0 -32 -35 -177 -59 -248 -114 -332 -400 -626 -725 -747
-80 -29 -241 -71 -277 -71 -19 0 -29 -5 -29 -14 0 -18 34 -14 160 16 230 55
409 152 578 312 176 167 298 384 351 626 31 137 32 150 16 150 -9 0 -15 -10
-15 -24z"/>
</g>
</svg>
