<?xml version="1.0" standalone="no"?>
<!DOCTYPE svg PUBLIC "-//W3C//DTD SVG 20010904//EN"
 "http://www.w3.org/TR/2001/REC-SVG-20010904/DTD/svg10.dtd">
<svg version="1.0" xmlns="http://www.w3.org/2000/svg"
 width="100.000000pt" height="100.000000pt" viewBox="0 0 100.000000 100.000000"
 preserveAspectRatio="xMidYMid meet">
<metadata>
Created by potrace 1.16, written by Peter Selinger 2001-2019
</metadata>
<g transform="translate(0.000000,100.000000) scale(0.100000,-0.100000)"
fill="#000000" stroke="none">
<path d="M263 993 c-20 -3 -33 -10 -33 -19 0 -9 -11 -14 -30 -14 -20 0 -30 -5
-30 -15 0 -8 -7 -15 -15 -15 -8 0 -15 -9 -15 -20 0 -11 -7 -20 -15 -20 -8 0
-15 -7 -15 -15 0 -8 -9 -15 -20 -15 -11 0 -20 -7 -20 -15 0 -8 -7 -15 -15 -15
-10 0 -15 -10 -15 -30 0 -20 -5 -30 -15 -30 -9 0 -15 -9 -15 -24 0 -13 -3 -31
-6 -40 -4 -11 -1 -16 10 -16 11 0 16 9 16 30 0 20 5 30 15 30 10 0 15 10 15
30 0 20 5 30 15 30 8 0 15 7 15 15 0 8 9 15 20 15 11 0 20 7 20 15 0 8 7 15
15 15 8 0 15 9 15 20 0 11 7 20 15 20 8 0 15 7 15 15 0 10 10 15 30 15 20 0
30 5 30 15 0 10 10 15 30 15 20 0 30 5 30 15 0 8 -3 14 -7 13 -5 0 -23 -3 -40
-5z"/>
<path d="M340 983 c0 -6 6 -14 13 -17 8 -4 7 -5 -3 -4 -24 2 -74 -14 -88 -29
-7 -7 -22 -13 -33 -13 -10 0 -19 -7 -19 -15 0 -8 -7 -15 -15 -15 -8 0 -15 -6
-15 -12 0 -16 -44 -58 -59 -58 -6 0 -11 -7 -11 -15 0 -8 -7 -15 -15 -15 -8 0
-15 -9 -15 -19 0 -11 -6 -26 -13 -33 -15 -14 -31 -64 -29 -88 1 -10 0 -11 -4
-2 -3 6 -11 12 -17 12 -9 0 -11 -41 -9 -150 3 -125 5 -150 18 -150 8 0 14 -6
12 -13 -1 -6 1 -25 6 -41 6 -24 9 -27 17 -15 7 11 9 10 7 -6 -4 -46 48 -121
60 -86 2 6 8 8 14 5 6 -4 5 -10 -3 -15 -11 -7 -8 -14 14 -36 22 -22 29 -25 36
-14 6 9 11 10 15 2 4 -6 2 -11 -3 -11 -6 0 -11 -9 -11 -20 0 -11 -7 -20 -15
-20 -8 0 -15 9 -15 20 0 11 -7 20 -15 20 -8 0 -15 7 -15 15 0 8 -9 15 -20 15
-11 0 -20 7 -20 15 0 8 -7 15 -15 15 -10 0 -15 10 -15 30 0 20 -5 30 -15 30
-10 0 -15 10 -15 30 0 21 -5 30 -16 30 -11 0 -14 -5 -10 -16 3 -9 6 -27 6 -40
0 -15 6 -24 15 -24 10 0 15 -10 15 -30 0 -20 5 -30 15 -30 8 0 15 -7 15 -15 0
-8 9 -15 20 -15 11 0 20 -7 20 -15 0 -8 7 -15 15 -15 8 0 15 -9 15 -20 0 -11
7 -20 15 -20 8 0 15 -7 15 -15 0 -10 10 -15 30 -15 20 0 30 -5 30 -15 0 -9 9
-15 24 -15 13 0 31 -3 40 -6 11 -4 16 -1 16 10 0 11 -9 16 -30 16 -20 0 -30 5
-30 15 0 10 -10 15 -30 15 -20 0 -30 5 -30 15 0 8 6 15 14 15 8 0 17 5 19 10
3 6 4 5 3 -2 -3 -17 40 -39 62 -32 13 5 14 4 3 -4 -10 -7 -6 -13 18 -23 17 -8
31 -20 31 -26 0 -7 5 -13 11 -13 6 0 9 7 6 14 -4 9 2 17 13 21 31 10 183 13
205 4 12 -4 -25 -8 -92 -8 -83 -1 -113 -4 -113 -13 0 -10 32 -13 125 -13 93 0
125 3 125 13 0 6 -5 12 -12 12 -6 0 -9 2 -7 5 11 10 47 -8 42 -21 -3 -8 0 -14
6 -14 6 0 11 6 11 13 0 6 14 18 30 25 17 8 28 17 25 22 -3 4 4 6 15 3 12 -3
20 0 20 7 0 7 7 10 15 6 8 -3 15 -1 15 4 0 6 7 10 15 10 8 0 15 -7 15 -15 0
-10 -10 -15 -30 -15 -20 0 -30 -5 -30 -15 0 -10 -10 -15 -30 -15 -21 0 -30 -5
-30 -16 0 -11 5 -14 16 -10 9 3 27 6 40 6 15 0 24 6 24 15 0 10 10 15 30 15
20 0 30 5 30 15 0 8 7 15 15 15 8 0 15 9 15 20 0 11 7 20 15 20 8 0 15 7 15
15 0 8 9 15 20 15 11 0 20 7 20 15 0 8 7 15 15 15 10 0 15 10 15 30 0 20 5 30
15 30 9 0 15 9 15 24 0 13 3 31 6 40 4 11 1 16 -10 16 -11 0 -16 -9 -16 -30 0
-20 -5 -30 -15 -30 -10 0 -15 -10 -15 -30 0 -20 -5 -30 -15 -30 -8 0 -15 7
-15 15 0 8 4 15 10 15 5 0 7 7 4 15 -4 8 -1 15 6 15 8 0 10 9 6 28 -4 17 -3
22 2 13 7 -10 13 -5 23 18 8 17 20 31 26 31 7 0 13 5 13 11 0 6 -6 9 -14 6
-22 -9 -35 55 -32 161 2 101 7 122 32 122 8 0 14 5 14 10 0 6 -6 10 -13 10 -7
0 -19 15 -27 33 -14 30 -15 16 -18 -176 -2 -141 -6 -207 -13 -207 -6 0 -9 7
-5 15 3 8 1 15 -4 15 -6 0 -10 -20 -10 -45 0 -38 -3 -45 -20 -45 -11 0 -20 -7
-20 -15 0 -8 -7 -15 -15 -15 -8 0 -15 -7 -15 -15 0 -8 -7 -15 -15 -15 -8 0
-15 -7 -15 -15 0 -8 -7 -15 -15 -15 -8 0 -15 -7 -15 -15 0 -10 -10 -15 -30
-15 -21 0 -30 -5 -30 -16 0 -14 3 -14 15 -4 12 10 15 10 15 -4 0 -12 -10 -16
-45 -16 -25 0 -45 -4 -45 -10 0 -5 7 -7 15 -4 8 4 15 1 15 -5 0 -8 -58 -11
-190 -11 -132 0 -190 3 -190 11 0 6 7 9 15 5 8 -3 15 -1 15 4 0 6 -20 10 -45
10 -38 0 -45 3 -45 20 0 11 -7 20 -15 20 -8 0 -15 7 -15 15 0 8 -7 15 -15 15
-8 0 -15 7 -15 15 0 8 -7 15 -15 15 -8 0 -15 7 -15 15 0 8 -7 15 -15 15 -8 0
-15 7 -15 15 0 8 -9 15 -20 15 -16 0 -20 7 -20 30 0 20 -5 30 -15 30 -13 0
-15 29 -15 205 0 126 4 205 10 205 5 0 7 -7 4 -15 -4 -8 -1 -15 5 -15 6 0 11
14 11 30 0 23 4 30 20 30 16 0 20 7 20 30 0 17 4 30 10 30 5 0 7 -7 4 -15 -4
-8 -1 -15 5 -15 6 0 11 14 11 30 0 27 3 30 30 30 17 0 30 5 30 11 0 6 -7 9
-15 5 -8 -3 -15 -1 -15 4 0 6 14 10 30 10 23 0 30 4 30 20 0 17 7 20 48 21 39
0 43 2 24 10 -13 5 -28 7 -33 3 -5 -3 -9 0 -9 5 0 8 67 11 205 11 119 0 205
-4 205 -9 0 -5 -8 -12 -17 -14 -10 -3 3 -5 30 -6 40 -1 47 -4 47 -21 0 -11 7
-20 15 -20 8 0 15 -7 15 -15 0 -8 7 -15 15 -15 8 0 15 -7 15 -15 0 -8 5 -15
11 -15 6 0 9 7 5 15 -3 8 -1 15 4 15 6 0 10 -13 10 -30 0 -20 5 -30 15 -30 8
0 15 -7 15 -15 0 -8 9 -15 20 -15 17 0 20 -7 21 -47 l0 -48 14 38 c19 50 8 71
-73 154 -68 67 -146 116 -187 116 -15 0 -25 5 -25 13 0 11 -19 14 -77 15 -43
0 -111 2 -151 2 -49 2 -72 -2 -72 -10z m264 -23 c-26 -10 -176 -11 -212 0 -17
5 20 8 103 9 80 0 122 -4 109 -9z m116 -30 c0 -5 -2 -10 -4 -10 -3 0 -8 5 -11
10 -3 6 -1 10 4 10 6 0 11 -4 11 -10z m-480 -24 c0 -3 -4 -8 -10 -11 -5 -3
-10 -1 -10 4 0 6 5 11 10 11 6 0 10 -2 10 -4z m540 -6 c0 -5 -2 -10 -4 -10 -3
0 -8 5 -11 10 -3 6 -1 10 4 10 6 0 11 -4 11 -10z m30 -40 c0 -5 -2 -10 -4 -10
-3 0 -8 5 -11 10 -3 6 -1 10 4 10 6 0 11 -4 11 -10z m60 -60 c0 -5 -2 -10 -4
-10 -3 0 -8 5 -11 10 -3 6 -1 10 4 10 6 0 11 -4 11 -10z m-760 -24 c0 -3 -4
-8 -10 -11 -5 -3 -10 -1 -10 4 0 6 5 11 10 11 6 0 10 -2 10 -4z m800 -6 c0 -5
-2 -10 -4 -10 -3 0 -8 5 -11 10 -3 6 -1 10 4 10 6 0 11 -4 11 -10z m-863 -265
c0 -69 -4 -125 -8 -125 -5 0 -9 56 -9 125 0 69 4 125 8 125 5 0 9 -56 9 -125z
m844 -315 c10 0 19 -7 19 -15 0 -8 -9 -15 -20 -15 -11 0 -20 -7 -20 -15 0 -8
-7 -15 -15 -15 -8 0 -15 -9 -15 -20 0 -11 -7 -20 -15 -20 -8 0 -15 9 -15 19 0
11 -6 22 -12 25 -7 3 -1 3 15 0 20 -5 27 -2 27 10 0 9 -5 16 -11 16 -5 0 -7 5
-3 12 6 9 9 9 12 0 5 -17 32 -15 32 3 0 8 -5 15 -11 15 -5 0 -7 5 -3 12 6 9 9
9 12 0 2 -7 12 -12 23 -12z m-716 -20 c3 -5 1 -10 -4 -10 -6 0 -11 5 -11 10 0
6 2 10 4 10 3 0 8 -4 11 -10z"/>
<path d="M690 986 c0 -11 9 -16 30 -16 20 0 30 -5 30 -15 0 -10 10 -15 30 -15
20 0 30 -5 30 -15 0 -8 7 -15 15 -15 8 0 15 -9 15 -20 0 -11 7 -20 15 -20 8 0
15 -7 15 -15 0 -8 9 -15 20 -15 11 0 20 -7 20 -15 0 -8 7 -15 15 -15 10 0 15
-10 15 -30 0 -20 5 -30 15 -30 10 0 15 -10 15 -30 0 -21 5 -30 16 -30 11 0 14
5 10 16 -3 9 -6 27 -6 40 0 15 -6 24 -15 24 -10 0 -15 10 -15 30 0 20 -5 30
-15 30 -8 0 -15 7 -15 15 0 8 -9 15 -20 15 -11 0 -20 7 -20 15 0 8 -7 15 -15
15 -8 0 -15 9 -15 20 0 11 -7 20 -15 20 -8 0 -15 7 -15 15 0 10 -10 15 -30 15
-20 0 -30 5 -30 15 0 9 -9 15 -24 15 -13 0 -31 3 -40 6 -11 4 -16 1 -16 -10z"/>
<path d="M410 899 c0 -5 5 -7 10 -4 6 3 10 8 10 11 0 2 -4 4 -10 4 -5 0 -10
-5 -10 -11z"/>
<path d="M440 900 c0 -6 24 -10 60 -9 33 1 60 6 60 10 0 5 -27 9 -60 9 -35 0
-60 -4 -60 -10z"/>
<path d="M575 900 c3 -5 8 -10 11 -10 2 0 4 5 4 10 0 6 -5 10 -11 10 -5 0 -7
-4 -4 -10z"/>
<path d="M265 880 c-3 -5 -1 -10 4 -10 6 0 11 5 11 10 0 6 -2 10 -4 10 -3 0
-8 -4 -11 -10z"/>
<path d="M720 880 c0 -5 5 -10 11 -10 5 0 7 5 4 10 -3 6 -8 10 -11 10 -2 0 -4
-4 -4 -10z"/>
<path d="M340 859 c0 -6 7 -9 15 -5 8 3 15 1 15 -4 0 -4 54 -8 120 -7 66 1
116 1 110 -1 -5 -2 -10 -9 -10 -16 0 -8 14 -12 38 -12 l37 1 -4 -43 c-2 -32
-6 -41 -14 -33 -15 15 -27 14 -27 -3 0 -11 14 -16 48 -19 45 -4 45 -4 -8 -3
l-55 0 -3 -241 -2 -240 52 -9 c41 -6 47 -9 25 -12 -16 -2 -31 -10 -34 -18 -3
-10 -21 -14 -58 -14 -64 0 -93 -9 -73 -21 9 -6 7 -9 -10 -9 -12 0 -21 5 -20
13 2 8 -15 13 -56 15 -35 2 -64 9 -70 17 -6 7 -22 16 -36 18 -14 2 1 5 33 6
l57 1 0 235 c0 208 -2 235 -16 235 -9 0 -14 5 -12 11 2 6 7 10 12 9 5 -1 13 4
17 12 7 10 16 -442 10 -476 -4 -17 21 -23 95 -25 l74 -2 -1 278 c-1 153 -4
289 -8 302 -7 28 -4 27 -173 35 -92 5 -128 3 -128 -5 0 -6 7 -9 15 -5 8 3 15
1 15 -4 0 -6 51 -10 125 -10 l125 0 0 -280 0 -280 -60 0 -60 0 0 250 0 250
-35 0 c-31 0 -35 3 -35 26 0 14 -4 23 -10 19 -5 -3 -10 -17 -10 -29 0 -20 -7
-25 -42 -32 l-43 -8 38 -4 c21 -2 45 2 53 9 11 9 14 8 14 -7 0 -17 -8 -19 -67
-19 l-68 0 -5 -217 c-5 -205 -9 -244 -25 -219 -3 6 -1 11 4 11 8 0 11 66 10
203 -1 184 -2 196 -13 137 -6 -36 -11 -98 -10 -137 1 -65 -1 -73 -17 -73 -17
0 -19 -8 -19 -65 0 -36 4 -65 10 -65 5 0 7 7 4 15 -4 8 -1 15 5 15 6 0 11 -13
11 -30 0 -20 5 -30 15 -30 8 0 15 -7 15 -15 0 -10 10 -15 30 -15 17 0 30 -4
30 -10 0 -5 -7 -7 -15 -4 -8 4 -15 1 -15 -5 0 -6 14 -11 30 -11 20 0 30 -5 30
-15 0 -12 16 -15 83 -16 75 -1 78 -2 38 -10 -24 -5 -48 -6 -52 -3 -5 3 -9 0
-9 -5 0 -7 44 -11 125 -11 69 0 125 4 125 8 0 5 -13 8 -28 7 -16 -1 -37 2 -48
6 -11 4 15 8 64 8 53 1 82 5 82 12 0 6 -7 9 -15 5 -8 -3 -15 -1 -15 4 0 6 14
10 30 10 20 0 30 5 30 15 0 10 10 15 30 15 27 0 30 3 30 30 0 20 5 30 15 30
10 0 15 10 15 30 0 17 4 30 10 30 5 0 7 -7 4 -15 -4 -8 -1 -15 5 -15 8 0 11
58 11 190 0 162 -2 190 -15 190 -10 0 -15 10 -15 30 0 17 -5 30 -11 30 -6 0
-9 -7 -5 -15 3 -8 1 -15 -4 -15 -6 0 -10 14 -10 30 0 20 -5 30 -15 30 -8 0
-15 7 -15 15 0 10 -10 15 -30 15 -16 0 -30 5 -30 11 0 6 7 9 15 5 8 -3 15 -1
15 4 0 6 -22 10 -50 10 -29 0 -50 5 -50 11 0 6 9 8 20 4 11 -4 20 -2 20 4 0 7
-53 11 -160 11 -110 0 -160 -3 -160 -11z m395 -69 c3 -5 1 -10 -4 -10 -6 0
-11 5 -11 10 0 6 2 10 4 10 3 0 8 -4 11 -10z m-45 -31 c0 -17 -4 -28 -10 -24
-5 3 -10 17 -10 31 0 13 5 24 10 24 6 0 10 -14 10 -31z m30 -11 c0 -16 -3 -19
-11 -11 -6 6 -8 16 -5 22 11 17 16 13 16 -11z m45 12 c3 -5 1 -10 -4 -10 -6 0
-11 5 -11 10 0 6 2 10 4 10 3 0 8 -4 11 -10z m25 -90 c0 -20 5 -30 15 -30 13
0 15 -22 15 -140 0 -118 -2 -140 -15 -140 -10 0 -15 -10 -15 -30 0 -16 -5 -30
-10 -30 -8 0 -10 66 -9 200 1 110 5 200 10 200 5 0 9 -13 9 -30z m-420 -199
l0 -219 -62 -4 -63 -3 3 223 3 222 59 0 60 0 0 -219z m380 -1 c0 -148 3 -220
11 -220 5 0 7 -5 3 -12 -6 -9 -9 -9 -12 0 -2 8 -27 12 -68 12 l-64 0 0 220 0
220 65 0 65 0 0 -220z m75 200 c3 -5 1 -10 -4 -10 -6 0 -11 5 -11 10 0 6 2 10
4 10 3 0 8 -4 11 -10z m-625 -299 c0 -42 -15 -46 -16 -5 0 19 3 34 8 34 4 0 8
-13 8 -29z m140 -191 c0 -5 -2 -10 -4 -10 -3 0 -8 5 -11 10 -3 6 -1 10 4 10 6
0 11 -4 11 -10z"/>
<path d="M344 470 c0 -113 2 -159 3 -102 2 56 2 148 0 205 -1 56 -3 10 -3
-103z"/>
<path d="M283 273 c9 -2 25 -2 35 0 9 3 1 5 -18 5 -19 0 -27 -2 -17 -5z"/>
<path d="M721 614 c0 -11 3 -14 6 -6 3 7 2 16 -1 19 -3 4 -6 -2 -5 -13z"/>
<path d="M660 489 c0 -5 5 -7 10 -4 6 3 10 8 10 11 0 2 -4 4 -10 4 -5 0 -10
-5 -10 -11z"/>
<path d="M660 459 c0 -5 5 -7 10 -4 6 3 10 8 10 11 0 2 -4 4 -10 4 -5 0 -10
-5 -10 -11z"/>
<path d="M660 399 c0 -5 5 -7 10 -4 6 3 10 8 10 11 0 2 -4 4 -10 4 -5 0 -10
-5 -10 -11z"/>
<path d="M690 399 c0 -5 5 -7 10 -4 6 3 10 8 10 11 0 2 -4 4 -10 4 -5 0 -10
-5 -10 -11z"/>
<path d="M660 369 c0 -5 5 -7 10 -4 6 3 10 8 10 11 0 2 -4 4 -10 4 -5 0 -10
-5 -10 -11z"/>
<path d="M721 364 c0 -11 3 -14 6 -6 3 7 2 16 -1 19 -3 4 -6 -2 -5 -13z"/>
<path d="M660 329 c0 -5 5 -7 10 -4 6 3 10 8 10 11 0 2 -4 4 -10 4 -5 0 -10
-5 -10 -11z"/>
<path d="M663 273 c15 -2 37 -2 50 0 12 2 0 4 -28 4 -27 0 -38 -2 -22 -4z"/>
<path d="M175 820 c-3 -5 -1 -10 4 -10 6 0 11 5 11 10 0 6 -2 10 -4 10 -3 0
-8 -4 -11 -10z"/>
<path d="M250 795 c0 -8 -7 -15 -15 -15 -8 0 -15 -7 -15 -15 0 -8 -7 -15 -15
-15 -10 0 -15 -10 -15 -30 0 -21 5 -30 16 -30 11 0 15 6 11 19 -3 14 0 17 15
13 15 -4 19 0 16 14 -2 13 2 18 15 16 10 -2 17 3 17 13 0 8 7 15 15 15 8 0 15
7 15 15 0 10 -10 15 -30 15 -20 0 -30 -5 -30 -15z"/>
<path d="M390 786 c0 -8 5 -18 10 -21 6 -3 10 3 10 14 0 12 -4 21 -10 21 -5 0
-10 -6 -10 -14z"/>
<path d="M480 790 l-55 -7 63 -1 c40 -1 61 2 57 8 -3 6 -7 9 -8 8 -1 -1 -27
-4 -57 -8z"/>
<path d="M621 774 c0 -11 3 -14 6 -6 3 7 2 16 -1 19 -3 4 -6 -2 -5 -13z"/>
<path d="M534 525 c0 -132 2 -185 3 -117 2 68 2 176 0 240 -1 64 -3 9 -3 -123z"/>
<path d="M115 730 c-3 -5 -1 -10 4 -10 6 0 11 5 11 10 0 6 -2 10 -4 10 -3 0
-8 -4 -11 -10z"/>
<path d="M870 730 c0 -5 5 -10 11 -10 5 0 7 5 4 10 -3 6 -8 10 -11 10 -2 0 -4
-4 -4 -10z"/>
<path d="M160 675 c0 -26 -5 -45 -11 -45 -6 0 -9 7 -5 15 3 8 1 15 -4 15 -6 0
-10 -63 -10 -160 0 -88 3 -160 8 -160 10 0 14 47 16 172 0 59 5 100 9 92 15
-27 24 -14 26 36 0 28 -4 50 -9 50 -5 0 -7 7 -4 15 4 8 1 15 -5 15 -6 0 -11
-19 -11 -45z"/>
<path d="M911 624 c0 -11 3 -14 6 -6 3 7 2 16 -1 19 -3 4 -6 -2 -5 -13z"/>
<path d="M852 525 c0 -59 3 -116 8 -128 6 -15 9 21 9 106 1 70 -3 127 -7 127
-5 0 -9 -47 -10 -105z"/>
<path d="M970 505 c0 -93 3 -125 13 -125 9 0 12 32 12 125 0 93 -3 125 -12
125 -10 0 -13 -32 -13 -125z"/>
<path d="M90 500 c0 -33 4 -60 9 -60 5 0 9 27 9 60 0 33 -4 60 -9 60 -5 0 -9
-27 -9 -60z"/>
<path d="M913 505 c0 -33 2 -45 4 -27 2 18 2 45 0 60 -2 15 -4 0 -4 -33z"/>
<path d="M870 329 c0 -5 5 -7 10 -4 6 3 10 8 10 11 0 2 -4 4 -10 4 -5 0 -10
-5 -10 -11z"/>
<path d="M115 270 c3 -5 8 -10 11 -10 2 0 4 5 4 10 0 6 -5 10 -11 10 -5 0 -7
-4 -4 -10z"/>
<path d="M473 273 c9 -2 25 -2 35 0 9 3 1 5 -18 5 -19 0 -27 -2 -17 -5z"/>
<path d="M870 270 c0 -5 5 -10 10 -10 6 0 10 5 10 10 0 6 -4 10 -10 10 -5 0
-10 -4 -10 -10z"/>
<path d="M795 260 c-3 -5 -1 -10 4 -10 6 0 11 5 11 10 0 6 -2 10 -4 10 -3 0
-8 -4 -11 -10z"/>
<path d="M735 200 c-3 -5 -1 -10 4 -10 6 0 11 5 11 10 0 6 -2 10 -4 10 -3 0
-8 -4 -11 -10z"/>
<path d="M640 136 c0 -2 7 -7 16 -10 8 -3 12 -2 9 4 -6 10 -25 14 -25 6z"/>
<path d="M260 120 c0 -5 5 -10 10 -10 6 0 10 5 10 10 0 6 -4 10 -10 10 -5 0
-10 -4 -10 -10z"/>
<path d="M453 83 c26 -2 67 -2 90 0 23 2 2 3 -48 3 -49 0 -68 -1 -42 -3z"/>
</g>
</svg>
