<?xml version="1.0" standalone="no"?>
<!DOCTYPE svg PUBLIC "-//W3C//DTD SVG 20010904//EN"
 "http://www.w3.org/TR/2001/REC-SVG-20010904/DTD/svg10.dtd">
<svg version="1.0" xmlns="http://www.w3.org/2000/svg"
 width="100.000000pt" height="100.000000pt" viewBox="0 0 100.000000 100.000000"
 preserveAspectRatio="xMidYMid meet">
<metadata>
Created by potrace 1.16, written by Peter Selinger 2001-2019
</metadata>
<g transform="translate(0.000000,100.000000) scale(0.100000,-0.100000)"
fill="#000000" stroke="none">
<path d="M310 915 c0 -14 5 -25 10 -25 6 0 10 6 10 14 0 7 9 16 20 19 15 4 20
0 20 -14 0 -10 5 -19 10 -19 6 0 10 7 10 15 0 12 18 15 105 15 87 0 105 -3
105 -15 0 -8 5 -15 10 -15 6 0 10 11 10 25 l0 25 -155 0 -155 0 0 -25z"/>
<path d="M635 930 c3 -5 13 -10 21 -10 8 0 14 -7 14 -15 0 -8 5 -15 10 -15 6
0 10 11 10 25 0 21 -5 25 -31 25 -17 0 -28 -4 -24 -10z"/>
<path d="M190 850 c0 -11 2 -20 5 -20 3 0 15 9 27 20 l22 20 -27 0 c-20 0 -27
-5 -27 -20z"/>
<path d="M250 840 l0 -30 -60 0 -60 0 0 -60 0 -60 -35 0 -35 0 0 -220 0 -220
35 0 35 0 0 -60 0 -60 60 0 60 0 0 -30 c0 -16 -2 -30 -4 -30 -16 0 -36 14 -36
25 0 8 -4 17 -10 20 -6 4 -10 -7 -10 -24 l0 -31 125 0 125 0 0 -30 c0 -17 5
-30 10 -30 6 0 10 13 10 29 0 17 -4 33 -10 36 -5 3 -10 15 -10 26 0 17 7 19
60 19 54 0 60 -2 60 -20 0 -17 -5 -19 -25 -14 -15 4 -32 1 -40 -6 -17 -14 -21
-70 -5 -70 6 0 10 13 10 30 l0 30 125 0 125 0 0 35 c0 32 2 35 30 35 27 0 30
3 30 30 0 27 3 30 30 30 l30 0 0 60 c0 60 0 60 29 60 24 0 28 -3 24 -20 -3
-11 -11 -20 -19 -20 -7 0 -16 -4 -19 -10 -4 -6 7 -10 24 -10 l31 0 0 220 0
220 -31 0 c-17 0 -28 -4 -24 -10 3 -5 12 -10 19 -10 8 0 16 -9 19 -20 4 -17 0
-20 -24 -20 -29 0 -29 0 -29 60 l0 60 -30 0 c-27 0 -30 3 -30 30 0 27 -3 30
-30 30 -27 0 -30 3 -30 30 l0 30 -250 0 -250 0 0 -30z m310 5 c0 -12 -13 -15
-60 -15 -77 0 -79 18 -2 23 31 2 58 4 60 5 1 1 2 -5 2 -13z m-250 -5 c0 -5 -9
-10 -20 -10 -11 0 -20 5 -20 10 0 6 9 10 20 10 11 0 20 -4 20 -10z m40 0 c0
-5 -4 -10 -10 -10 -5 0 -10 5 -10 10 0 6 5 10 10 10 6 0 10 -4 10 -10z m70 0
c0 -5 -11 -10 -25 -10 -14 0 -25 5 -25 10 0 6 11 10 25 10 14 0 25 -4 25 -10z
m250 0 c0 -5 -20 -10 -45 -10 -25 0 -45 5 -45 10 0 6 20 10 45 10 25 0 45 -4
45 -10z m63 -10 c4 -16 0 -20 -19 -20 -17 0 -24 6 -24 20 0 13 7 20 19 20 10
0 21 -9 24 -20z m-440 -40 c-3 -11 -14 -20 -24 -20 -12 0 -19 7 -19 20 0 14 7
20 24 20 19 0 23 -4 19 -20z m397 -10 c0 -27 3 -30 30 -30 27 0 30 -3 30 -30
0 -27 3 -30 30 -30 l30 0 0 -220 0 -220 -30 0 -30 0 0 190 0 190 -65 0 -65 0
0 -190 0 -190 65 0 65 0 0 -30 0 -30 -65 0 c-58 0 -65 -2 -65 -20 0 -20 15
-28 22 -11 2 4 13 12 26 15 19 6 22 4 22 -18 l0 -26 -190 0 -190 0 0 30 c0 27
-3 30 -30 30 -27 0 -30 3 -30 30 l0 30 60 0 60 0 0 190 0 190 -60 0 -60 0 0
-190 0 -190 -30 0 -30 0 0 65 c0 58 -2 65 -20 65 -20 0 -28 -15 -11 -22 4 -1
12 -13 15 -25 6 -20 4 -23 -18 -23 l-26 0 0 160 0 160 26 0 c22 0 24 -3 18
-22 -3 -13 -11 -24 -15 -26 -17 -7 -9 -22 11 -22 19 0 20 7 20 95 0 94 0 95
24 95 19 0 23 -4 19 -20 -3 -11 -12 -20 -19 -20 -8 0 -14 -4 -14 -10 0 -5 11
-10 25 -10 21 0 25 5 25 30 0 27 3 30 30 30 27 0 30 3 30 30 l0 30 190 0 190
0 0 -30z m-500 -5 c0 -20 -5 -25 -24 -25 -19 0 -23 4 -19 19 3 11 12 22 22 24
9 3 17 5 19 6 1 0 2 -10 2 -24z m40 5 c0 -5 -4 -10 -10 -10 -5 0 -10 5 -10 10
0 6 5 10 10 10 6 0 10 -4 10 -10z m560 -30 c0 -22 -4 -40 -10 -40 -5 0 -10 14
-10 30 0 27 -3 30 -30 30 -16 0 -30 5 -30 10 0 6 18 10 40 10 l40 0 0 -40z
m-620 -30 c0 -5 -4 -10 -10 -10 -5 0 -10 5 -10 10 0 6 5 10 10 10 6 0 10 -4
10 -10z m680 -10 c0 -11 -7 -20 -15 -20 -8 0 -15 2 -15 4 0 2 -3 11 -6 20 -4
12 0 16 15 16 14 0 21 -6 21 -20z m-680 -40 c0 -15 -7 -20 -25 -20 -14 0 -25
-4 -25 -10 0 -5 -9 -10 -20 -10 -13 0 -20 7 -20 20 0 16 7 20 30 20 17 0 30 5
30 10 0 6 7 10 15 10 8 0 15 -9 15 -20z m680 -10 c0 -5 -4 -10 -10 -10 -5 0
-10 5 -10 10 0 6 5 10 10 10 6 0 10 -4 10 -10z m10 -40 c0 -5 14 -10 30 -10
25 0 30 -4 30 -25 0 -20 -5 -25 -25 -25 -14 0 -25 5 -25 10 0 6 -9 10 -20 10
-15 0 -20 7 -20 25 0 16 6 25 15 25 8 0 15 -4 15 -10z m-750 -150 c0 -118 -2
-140 -15 -140 -13 0 -15 22 -15 140 0 118 2 140 15 140 13 0 15 -22 15 -140z
m240 -30 l0 -170 -40 0 -40 0 0 170 0 170 40 0 40 0 0 -170z m380 0 l0 -170
-45 0 -45 0 0 170 0 170 45 0 45 0 0 -170z m140 30 c0 -87 -1 -90 -22 -90 -22
0 -23 3 -23 90 0 87 1 90 23 90 21 0 22 -3 22 -90z m50 0 c0 -56 -3 -70 -15
-70 -12 0 -15 14 -15 70 0 56 3 70 15 70 12 0 15 -14 15 -70z m0 -115 c0 -21
-5 -25 -30 -25 -16 0 -30 -4 -30 -10 0 -5 -7 -10 -15 -10 -9 0 -15 9 -15 25 0
18 5 25 20 25 11 0 20 5 20 10 0 6 11 10 25 10 20 0 25 -5 25 -25z m-800 -55
c0 -5 11 -10 25 -10 18 0 25 -5 25 -20 0 -11 -7 -20 -15 -20 -8 0 -15 5 -15
10 0 6 -13 10 -30 10 -23 0 -30 4 -30 20 0 13 7 20 20 20 11 0 20 -4 20 -10z
m730 -20 c0 -5 -4 -10 -10 -10 -5 0 -10 5 -10 10 0 6 5 10 10 10 6 0 10 -4 10
-10z m0 -50 c0 -16 -7 -20 -30 -20 -16 0 -30 -4 -30 -10 0 -5 -4 -10 -10 -10
-5 0 -10 9 -10 20 0 16 7 20 30 20 17 0 30 5 30 10 0 6 5 10 10 10 6 0 10 -9
10 -20z m-620 -21 c0 -12 -7 -19 -20 -19 -14 0 -20 7 -20 24 0 19 4 23 20 19
11 -3 20 -14 20 -24z m-60 11 c0 -5 -4 -10 -10 -10 -5 0 -10 5 -10 10 0 6 5
10 10 10 6 0 10 -4 10 -10z m20 -54 c0 -19 -4 -23 -19 -19 -11 3 -21 13 -24
24 -4 15 0 19 19 19 19 0 24 -5 24 -24z m40 -6 c0 -5 -4 -10 -10 -10 -5 0 -10
5 -10 10 0 6 5 10 10 10 6 0 10 -4 10 -10z m63 -10 c4 -16 0 -20 -19 -20 -17
0 -24 6 -24 20 0 13 7 20 19 20 10 0 21 -9 24 -20z m497 10 c0 -5 -18 -10 -40
-10 -22 0 -40 5 -40 10 0 6 18 10 40 10 22 0 40 -4 40 -10z m-58 -55 c-6 -35
-42 -35 -42 0 0 20 5 25 24 25 19 0 22 -4 18 -25z m-422 -10 c0 -8 -9 -15 -20
-15 -11 0 -20 7 -20 15 0 8 9 15 20 15 11 0 20 -7 20 -15z m40 0 c0 -8 -4 -15
-10 -15 -5 0 -10 7 -10 15 0 8 5 15 10 15 6 0 10 -7 10 -15z m70 0 c0 -9 -9
-15 -25 -15 -16 0 -25 6 -25 15 0 9 9 15 25 15 16 0 25 -6 25 -15z m200 0 c0
-8 -9 -15 -20 -15 -11 0 -20 7 -20 15 0 8 9 15 20 15 11 0 20 -7 20 -15z m50
0 c0 -8 -7 -15 -15 -15 -8 0 -15 7 -15 15 0 8 7 15 15 15 8 0 15 -7 15 -15z"/>
<path d="M336 769 c-19 -19 -19 -19 7 -19 23 0 27 -4 27 -30 0 -28 3 -30 35
-30 l35 0 0 -220 0 -220 60 0 60 0 0 250 0 250 -95 0 c-88 0 -95 1 -95 20 0
25 -9 25 -34 -1z m104 -49 c0 -5 -11 -10 -25 -10 -14 0 -25 5 -25 10 0 6 11
10 25 10 14 0 25 -4 25 -10z m100 -220 l0 -230 -40 0 -40 0 0 230 0 230 40 0
40 0 0 -230z"/>
<path d="M620 770 c0 -16 7 -20 31 -20 17 0 28 4 24 10 -3 6 -13 10 -21 10 -8
0 -14 5 -14 10 0 6 -4 10 -10 10 -5 0 -10 -9 -10 -20z"/>
<path d="M690 710 c0 -13 7 -20 20 -20 24 0 25 6 6 26 -20 19 -26 18 -26 -6z"/>
<path d="M221 654 c-18 -21 -6 -30 14 -11 8 9 15 18 15 21 0 11 -15 5 -29 -10z"/>
<path d="M750 655 c0 -16 27 -32 37 -22 5 6 -21 37 -31 37 -3 0 -6 -7 -6 -15z"/>
<path d="M167 530 c-22 -26 -21 -30 3 -30 15 0 20 7 20 25 0 30 -1 30 -23 5z"/>
<path d="M150 435 c0 -3 9 -15 20 -27 l20 -22 0 27 c0 20 -5 27 -20 27 -11 0
-20 -2 -20 -5z"/>
<path d="M330 184 c0 -7 27 -34 34 -34 3 0 6 9 6 20 0 13 -7 20 -20 20 -11 0
-20 -3 -20 -6z"/>
<path d="M770 864 c0 -3 6 -12 14 -20 20 -19 26 -18 26 6 0 13 -7 20 -20 20
-11 0 -20 -3 -20 -6z"/>
<path d="M830 804 c0 -3 6 -12 14 -20 20 -19 26 -18 26 6 0 13 -7 20 -20 20
-11 0 -20 -3 -20 -6z"/>
<path d="M60 723 c1 -25 2 -26 14 -10 7 9 18 17 25 17 6 0 11 5 11 10 0 6 -11
10 -25 10 -21 0 -25 -5 -25 -27z"/>
<path d="M890 740 c0 -5 7 -10 15 -10 8 0 15 -4 15 -10 0 -5 5 -10 10 -10 6 0
10 9 10 20 0 15 -7 20 -25 20 -14 0 -25 -4 -25 -10z"/>
<path d="M0 620 c0 -5 9 -10 20 -10 11 0 20 5 20 10 0 6 -9 10 -20 10 -11 0
-20 -4 -20 -10z"/>
<path d="M0 550 c0 -5 9 -10 20 -10 11 0 20 5 20 10 0 6 -9 10 -20 10 -11 0
-20 -4 -20 -10z"/>
<path d="M0 490 c0 -5 9 -10 20 -10 11 0 20 5 20 10 0 6 -9 10 -20 10 -11 0
-20 -4 -20 -10z"/>
<path d="M0 450 c0 -5 9 -10 20 -10 11 0 20 5 20 10 0 6 -9 10 -20 10 -11 0
-20 -4 -20 -10z"/>
<path d="M0 390 c0 -5 9 -10 20 -10 11 0 20 5 20 10 0 6 -9 10 -20 10 -11 0
-20 -4 -20 -10z"/>
<path d="M0 320 c0 -5 9 -10 20 -10 11 0 20 5 20 10 0 6 -9 10 -20 10 -11 0
-20 -4 -20 -10z"/>
<path d="M60 218 c0 -23 4 -28 25 -28 14 0 25 5 25 10 0 6 -5 10 -11 10 -7 0
-18 8 -25 18 -12 15 -13 14 -14 -10z"/>
<path d="M920 220 c0 -5 -7 -10 -15 -10 -8 0 -15 -4 -15 -10 0 -5 11 -10 25
-10 18 0 25 5 25 20 0 11 -4 20 -10 20 -5 0 -10 -4 -10 -10z"/>
<path d="M843 155 c-18 -20 -16 -25 7 -25 13 0 20 7 20 20 0 23 -10 25 -27 5z"/>
<path d="M790 95 c0 -8 -4 -15 -10 -15 -5 0 -10 -4 -10 -10 0 -5 9 -10 20 -10
15 0 20 7 20 25 0 14 -4 25 -10 25 -5 0 -10 -7 -10 -15z"/>
<path d="M540 25 c0 -14 5 -25 10 -25 6 0 10 11 10 25 0 14 -4 25 -10 25 -5 0
-10 -11 -10 -25z"/>
<path d="M607 43 c-11 -10 -8 -43 3 -43 6 0 10 11 10 25 0 26 -2 29 -13 18z"/>
<path d="M250 20 c0 -11 5 -20 10 -20 6 0 10 9 10 20 0 11 -4 20 -10 20 -5 0
-10 -9 -10 -20z"/>
<path d="M310 20 c0 -11 5 -20 10 -20 6 0 10 9 10 20 0 11 -4 20 -10 20 -5 0
-10 -9 -10 -20z"/>
<path d="M370 20 c0 -11 5 -20 10 -20 6 0 10 9 10 20 0 11 -4 20 -10 20 -5 0
-10 -9 -10 -20z"/>
<path d="M670 20 c0 -11 5 -20 10 -20 6 0 10 9 10 20 0 11 -4 20 -10 20 -5 0
-10 -9 -10 -20z"/>
</g>
</svg>
