<?xml version="1.0" standalone="no"?>
<!DOCTYPE svg PUBLIC "-//W3C//DTD SVG 20010904//EN"
 "http://www.w3.org/TR/2001/REC-SVG-20010904/DTD/svg10.dtd">
<svg version="1.0" xmlns="http://www.w3.org/2000/svg"
 width="256.000000pt" height="256.000000pt" viewBox="0 0 256.000000 256.000000"
 preserveAspectRatio="xMidYMid meet">
<metadata>
Created by potrace 1.16, written by Peter Selinger 2001-2019
</metadata>
<g transform="translate(0.000000,256.000000) scale(0.100000,-0.100000)"
fill="#000000" stroke="none">
<path d="M1055 2548 c-44 -5 -89 -12 -100 -17 -11 -5 -38 -13 -60 -16 -22 -4
-44 -10 -50 -14 -5 -4 -35 -15 -65 -26 -30 -10 -57 -21 -60 -24 -3 -3 -38 -22
-77 -41 -40 -19 -73 -38 -73 -42 0 -5 -6 -8 -14 -8 -8 0 -16 -3 -18 -7 -1 -5
-23 -21 -47 -38 -85 -57 -224 -206 -299 -319 -40 -60 -72 -117 -72 -127 0 -9
-3 -19 -8 -21 -10 -4 -72 -165 -72 -188 0 -10 -4 -21 -9 -24 -5 -3 -12 -34
-16 -68 -3 -35 -9 -71 -11 -80 -3 -11 0 -18 9 -18 11 0 16 19 21 70 4 38 11
72 17 75 5 4 9 15 9 25 0 23 62 184 72 188 5 2 8 12 8 21 0 10 32 67 72 127
75 113 214 262 299 319 24 17 46 33 47 38 2 4 10 7 18 7 8 0 14 3 14 8 0 4 33
23 73 42 39 19 74 38 77 41 3 3 30 14 60 24 30 11 60 23 65 27 6 4 31 10 55
14 25 4 50 11 56 15 6 5 52 12 103 16 64 4 91 10 91 19 0 7 -8 12 -17 11 -10
-1 -54 -5 -98 -9z"/>
<path d="M1390 2547 c0 -10 23 -16 87 -21 47 -3 91 -10 97 -15 6 -5 32 -12 58
-15 26 -4 50 -11 53 -17 4 -5 17 -9 31 -9 13 0 24 -4 24 -10 0 -5 8 -10 18
-10 24 0 173 -76 253 -130 94 -64 257 -231 322 -331 81 -124 167 -318 167
-376 0 -12 4 -24 9 -28 5 -3 13 -41 17 -85 5 -60 10 -80 21 -80 9 0 12 7 9 18
-2 9 -8 50 -11 90 -4 39 -11 75 -16 78 -5 3 -9 15 -9 27 0 58 -86 252 -167
376 -65 100 -228 267 -322 331 -80 54 -229 130 -253 130 -10 0 -18 5 -18 10 0
6 -11 10 -24 10 -14 0 -27 4 -31 9 -3 6 -27 13 -53 17 -26 3 -51 10 -57 14 -5
5 -41 11 -80 15 -38 4 -82 9 -97 11 -19 3 -28 0 -28 -9z"/>
<path d="M1135 2340 c-16 -4 -49 -8 -72 -9 -23 0 -44 -5 -47 -10 -3 -5 -31
-12 -61 -16 -30 -3 -55 -11 -55 -16 0 -5 -10 -9 -22 -9 -13 0 -32 -7 -42 -15
-11 -8 -28 -15 -38 -15 -10 0 -18 -4 -18 -9 0 -5 -13 -12 -30 -16 -16 -4 -30
-11 -30 -16 0 -5 -6 -9 -13 -9 -7 0 -28 -13 -47 -30 -19 -16 -39 -29 -45 -30
-12 0 -189 -179 -199 -200 -9 -20 -27 -49 -51 -85 -25 -37 -59 -107 -76 -160
-7 -22 -16 -44 -20 -50 -4 -5 -10 -32 -14 -60 -4 -27 -13 -56 -19 -64 -16 -20
-15 -473 1 -492 6 -8 14 -40 18 -71 4 -32 11 -58 16 -58 5 0 9 -9 9 -20 0 -11
4 -28 10 -38 16 -30 50 -111 50 -121 0 -5 3 -11 8 -13 4 -1 23 -28 42 -58 19
-30 43 -64 53 -75 41 -46 148 -155 152 -155 5 0 96 -61 105 -70 11 -12 141
-70 155 -70 8 0 15 -4 15 -9 0 -5 19 -11 42 -15 23 -4 47 -10 53 -15 5 -4 63
-16 127 -26 162 -24 400 -12 493 26 11 4 34 11 52 14 29 6 70 23 173 73 19 9
37 20 40 23 3 4 15 9 28 13 12 4 22 12 22 17 0 5 5 9 10 9 6 0 25 13 43 29 69
64 90 81 98 81 4 0 10 8 13 18 3 9 21 33 39 52 18 19 36 42 40 50 4 8 16 29
27 45 11 17 23 38 26 47 4 10 10 18 15 18 5 0 9 5 9 11 0 5 12 36 26 67 14 31
28 72 31 89 3 18 9 33 14 33 4 0 11 29 14 65 4 36 11 68 16 71 5 3 9 97 9 209
0 112 -4 206 -9 209 -5 3 -12 35 -16 71 -3 36 -10 65 -15 65 -4 0 -11 20 -14
45 -4 25 -11 45 -17 45 -5 0 -9 9 -9 19 0 11 -4 22 -9 26 -5 3 -12 19 -16 35
-4 17 -10 30 -13 30 -4 0 -13 14 -20 30 -8 17 -19 36 -25 43 -7 7 -27 34 -46
61 -45 64 -103 123 -176 176 -33 25 -62 48 -65 51 -3 4 -15 9 -27 13 -13 4
-23 11 -23 16 0 5 -13 11 -30 15 -16 4 -30 11 -30 16 0 5 -7 9 -16 9 -9 0 -30
7 -47 16 -58 30 -64 32 -113 39 -27 4 -53 11 -59 15 -12 10 -244 30 -318 29
-29 -1 -65 -5 -82 -9z m290 -25 c44 -4 85 -10 90 -15 6 -4 32 -11 59 -15 49
-7 55 -9 113 -39 17 -9 38 -16 47 -16 9 0 16 -4 16 -9 0 -5 14 -12 30 -16 17
-4 30 -10 30 -15 0 -5 10 -12 23 -16 12 -4 24 -9 27 -13 3 -3 32 -26 65 -51
73 -53 131 -112 176 -176 19 -27 39 -54 46 -61 6 -7 17 -26 25 -43 7 -16 16
-30 20 -30 3 0 9 -13 13 -30 4 -16 11 -32 16 -35 5 -4 9 -15 9 -26 0 -10 4
-19 10 -19 5 0 7 -6 4 -14 -3 -8 -1 -17 5 -21 6 -3 11 -17 11 -31 0 -13 4 -24
9 -24 5 0 13 -29 16 -65 4 -36 11 -68 16 -71 12 -7 12 -371 0 -378 -5 -3 -12
-35 -16 -71 -3 -36 -10 -65 -14 -65 -5 0 -11 -15 -14 -33 -3 -17 -17 -58 -31
-89 -14 -31 -26 -62 -26 -67 0 -6 -4 -11 -9 -11 -5 0 -11 -8 -15 -18 -3 -9
-15 -30 -26 -47 -11 -16 -23 -37 -27 -45 -4 -8 -22 -31 -40 -50 -18 -19 -36
-43 -39 -52 -3 -10 -9 -18 -13 -18 -8 0 -29 -17 -98 -81 -18 -16 -37 -29 -43
-29 -5 0 -10 -4 -10 -9 0 -5 -10 -13 -22 -17 -13 -4 -25 -9 -28 -13 -3 -3 -21
-14 -40 -23 -107 -52 -147 -68 -179 -74 -20 -4 -40 -10 -46 -14 -5 -4 -32 -10
-60 -14 -27 -4 -66 -11 -85 -14 -46 -9 -234 -9 -285 0 -22 4 -62 10 -90 14
-27 4 -55 10 -60 15 -6 4 -30 11 -53 15 -23 4 -42 10 -42 15 0 5 -7 9 -15 9
-14 0 -144 58 -155 70 -9 9 -100 70 -105 70 -4 0 -111 109 -152 155 -10 11
-34 45 -53 75 -19 30 -38 56 -42 58 -5 2 -8 8 -8 13 0 10 -34 91 -50 121 -6
10 -10 27 -10 38 0 11 -4 20 -9 20 -5 0 -12 26 -16 58 -4 31 -12 63 -18 71
-16 19 -17 432 -1 452 6 8 15 37 19 64 4 28 10 55 14 60 4 6 13 28 20 50 17
53 51 123 76 160 24 36 42 65 51 85 10 21 187 200 199 200 6 1 26 14 45 30 19
17 40 30 47 30 7 0 13 4 13 9 0 5 14 12 30 16 17 4 30 11 30 16 0 5 8 9 18 9
10 0 27 7 38 15 10 8 29 15 42 15 12 0 22 4 22 9 0 5 25 13 55 16 30 4 58 11
61 16 3 5 24 10 47 10 23 1 56 4 72 8 35 8 155 6 270 -4z"/>
<path d="M970 2036 l0 -96 34 0 c72 0 66 62 66 -694 0 -517 3 -685 12 -694 8
-8 67 -12 199 -12 161 0 188 2 193 16 11 27 7 1460 -4 1489 -5 14 -21 38 -35
53 l-25 27 -220 3 -220 3 0 -95z m445 42 c14 -15 30 -39 35 -53 11 -29 15
-1422 4 -1449 -5 -14 -30 -16 -173 -16 -117 0 -171 4 -179 12 -9 9 -12 177
-12 694 0 756 6 694 -66 694 l-34 0 0 76 0 76 200 -4 200 -3 25 -27z"/>
<path d="M685 1820 c-3 -5 -21 -10 -40 -10 -25 0 -40 -8 -59 -31 l-26 -31 0
-604 0 -604 189 0 c163 0 190 2 195 16 11 29 7 1234 -4 1255 -10 17 -22 19
-130 19 -68 0 -121 -4 -125 -10z m235 -29 c11 -21 15 -1186 4 -1215 -5 -14
-30 -16 -175 -16 l-169 0 0 584 0 584 26 31 c19 23 34 31 59 31 19 0 37 5 40
10 3 6 50 10 105 10 88 0 100 -2 110 -19z"/>
<path d="M1612 1818 c-9 -9 -12 -162 -12 -629 0 -340 3 -624 6 -633 5 -14 32
-16 200 -16 l194 0 0 589 c0 343 -4 600 -9 614 -15 40 -51 67 -88 67 -18 0
-33 5 -33 10 0 15 -243 13 -258 -2z m238 -18 c0 -5 15 -10 33 -10 37 0 73 -27
88 -67 5 -14 9 -263 9 -594 l0 -569 -174 0 c-149 0 -175 2 -180 16 -3 9 -6
284 -6 613 0 451 3 600 12 609 15 15 218 17 218 2z"/>
<path d="M2527 1064 c-3 -47 -10 -91 -15 -97 -5 -7 -12 -31 -16 -55 -3 -24
-10 -51 -15 -60 -5 -9 -17 -35 -26 -57 -9 -22 -20 -48 -25 -57 -6 -10 -10 -23
-10 -29 0 -12 -16 -39 -99 -169 -52 -83 -297 -320 -330 -320 -6 0 -11 -4 -11
-8 0 -4 -30 -23 -67 -42 -38 -19 -70 -37 -73 -40 -7 -7 -70 -31 -97 -37 -13
-3 -23 -9 -23 -14 0 -4 -22 -11 -50 -15 -27 -4 -50 -10 -50 -14 0 -5 -29 -12
-65 -15 -46 -5 -65 -11 -65 -21 0 -10 8 -13 28 -9 15 2 48 8 75 11 26 4 47 10
47 14 0 4 23 10 50 14 28 4 50 11 50 15 0 5 10 11 23 14 27 6 90 30 97 37 3 3
35 21 73 40 37 19 67 38 67 42 0 4 5 8 11 8 33 0 278 237 330 320 83 130 99
157 99 169 0 6 4 19 10 29 5 9 16 35 25 57 9 22 21 48 26 57 5 9 12 36 15 60
4 24 10 48 15 53 4 6 10 39 14 75 3 36 8 80 11 98 3 22 0 32 -10 32 -9 0 -15
-24 -19 -86z"/>
<path d="M4 1063 c2 -16 8 -53 11 -83 4 -30 11 -59 15 -65 4 -5 10 -27 14 -47
4 -21 14 -54 23 -75 9 -21 17 -40 18 -43 7 -32 102 -194 158 -269 81 -107 110
-139 182 -196 28 -22 52 -43 55 -46 9 -11 164 -106 200 -122 132 -59 159 -70
193 -74 20 -3 37 -9 37 -13 0 -5 28 -11 63 -15 34 -3 70 -9 79 -11 11 -3 18 0
18 9 0 11 -19 16 -70 21 -39 4 -70 11 -70 15 0 5 -17 11 -37 14 -34 4 -61 15
-193 74 -36 16 -191 111 -200 122 -3 3 -27 24 -55 46 -27 22 -64 53 -80 70
-51 52 -172 218 -203 280 -57 113 -91 193 -98 231 -3 22 -10 44 -15 50 -5 6
-12 43 -15 82 -5 51 -11 72 -21 72 -9 0 -12 -9 -9 -27z"/>
</g>
</svg>
