<?xml version="1.0" standalone="no"?>
<!DOCTYPE svg PUBLIC "-//W3C//DTD SVG 20010904//EN"
 "http://www.w3.org/TR/2001/REC-SVG-20010904/DTD/svg10.dtd">
<svg version="1.0" xmlns="http://www.w3.org/2000/svg"
 width="159.000000pt" height="159.000000pt" viewBox="0 0 159.000000 159.000000"
 preserveAspectRatio="xMidYMid meet">
<metadata>
Created by potrace 1.16, written by Peter Selinger 2001-2019
</metadata>
<g transform="translate(0.000000,159.000000) scale(0.100000,-0.100000)"
fill="#000000" stroke="none">
<path d="M493 1561 c-116 -40 -218 -107 -305 -200 -113 -119 -189 -279 -187
-390 l1 -56 12 55 c60 271 247 484 499 571 45 15 111 32 147 37 l65 10 -75 1
c-59 0 -93 -5 -157 -28z"/>
<path d="M911 1580 c253 -32 472 -185 588 -409 45 -89 59 -128 76 -225 l13
-71 1 66 c2 157 -111 368 -263 491 -122 98 -277 159 -400 157 l-71 -2 56 -7z"/>
<path d="M640 1435 c-229 -52 -414 -232 -477 -465 -23 -88 -23 -272 1 -359 41
-150 136 -286 256 -366 213 -142 498 -149 719 -18 82 49 187 161 229 247 56
112 75 210 70 350 -8 187 -61 315 -181 436 -119 121 -261 180 -442 186 -72 2
-133 -2 -175 -11z m345 -40 c257 -86 419 -300 432 -570 4 -81 1 -117 -15 -183
-23 -91 -69 -189 -112 -242 l-29 -35 -1 357 c0 201 -4 368 -10 382 -12 33 -61
46 -177 46 l-93 0 0 -415 0 -415 117 0 c116 0 117 0 98 -19 -65 -64 -230 -132
-351 -145 -125 -14 -285 30 -406 110 l-73 49 118 3 117 3 0 415 0 416 -114 -3
c-171 -6 -156 35 -156 -417 l0 -375 -31 39 c-43 54 -94 159 -115 235 -23 85
-23 233 0 319 61 232 247 413 476 465 95 21 227 13 325 -20z m-405 -660 l0
-395 -115 0 -115 0 0 373 c0 344 1 375 18 389 23 21 44 25 135 27 l77 1 0
-395z m603 384 c26 -7 41 -18 47 -35 6 -14 10 -181 10 -385 l0 -359 -120 0
-120 0 0 395 0 395 73 0 c39 0 89 -5 110 -11z"/>
<path d="M590 1266 c0 -74 0 -75 28 -78 l27 -3 3 -432 2 -433 140 0 140 0 0
489 0 490 -26 20 c-24 19 -40 21 -170 21 l-144 0 0 -74z m294 33 l26 -20 0
-470 0 -469 -120 0 -120 0 -2 433 -3 432 -27 3 c-27 3 -28 6 -28 58 l0 54 124
0 c110 0 126 -2 150 -21z"/>
<path d="M1582 680 c-3 -48 -27 -140 -56 -212 -91 -225 -282 -386 -531 -449
l-70 -18 52 0 c89 -2 222 54 334 139 163 123 285 346 276 506 -1 38 -4 53 -5
34z"/>
<path d="M4 600 c12 -270 324 -585 591 -597 l70 -3 -61 14 c-297 68 -521 294
-588 591 l-16 70 4 -75z"/>
</g>
</svg>
