<?xml version="1.0" standalone="no"?>
<!DOCTYPE svg PUBLIC "-//W3C//DTD SVG 20010904//EN"
 "http://www.w3.org/TR/2001/REC-SVG-20010904/DTD/svg10.dtd">
<svg version="1.0" xmlns="http://www.w3.org/2000/svg"
 width="192.000000pt" height="192.000000pt" viewBox="0 0 192.000000 192.000000"
 preserveAspectRatio="xMidYMid meet">
<metadata>
Created by potrace 1.16, written by Peter Selinger 2001-2019
</metadata>
<g transform="translate(0.000000,192.000000) scale(0.100000,-0.100000)"
fill="#000000" stroke="none">
<path d="M710 1914 c-8 -3 -43 -14 -77 -25 -106 -34 -244 -118 -333 -201 -148
-140 -258 -348 -290 -548 -13 -84 -13 -276 0 -360 39 -247 181 -477 385 -624
135 -97 260 -147 380 -152 82 -3 81 -2 -15 17 -254 51 -479 219 -618 462 -164
288 -164 666 0 954 139 243 364 411 618 462 30 6 64 13 75 15 11 2 -9 4 -45 4
-36 0 -72 -2 -80 -4z"/>
<path d="M1085 1914 c11 -2 45 -9 75 -15 197 -40 413 -174 528 -328 15 -20 30
-38 33 -41 4 -3 29 -44 57 -93 165 -288 165 -666 0 -954 -28 -49 -53 -90 -57
-93 -3 -3 -18 -21 -33 -41 -115 -154 -331 -288 -528 -328 -96 -19 -97 -20 -15
-17 87 4 167 28 263 78 115 62 236 161 300 247 15 20 30 38 33 41 4 3 29 44
57 93 86 150 122 297 122 497 0 200 -36 347 -122 497 -28 49 -53 90 -57 93 -3
3 -18 21 -33 41 -64 86 -185 185 -300 247 -96 50 -176 74 -263 78 -44 2 -71 1
-60 -2z"/>
<path d="M794 1740 c-61 -12 -194 -66 -249 -101 -74 -47 -172 -146 -225 -226
-171 -259 -171 -645 -1 -906 58 -88 178 -202 257 -244 127 -67 198 -85 344
-90 154 -6 214 3 329 47 326 126 516 463 474 843 -27 239 -146 439 -341 570
-60 41 -189 93 -264 107 -60 12 -265 11 -324 0z m304 -20 c75 -14 204 -66 264
-107 373 -251 457 -760 188 -1130 l-35 -48 -2 440 c-2 324 -6 446 -15 463 -22
42 -57 52 -188 52 l-120 0 0 -495 0 -495 142 0 141 0 -23 -25 c-65 -69 -236
-154 -359 -177 -31 -5 -108 -8 -171 -5 -92 4 -130 10 -190 32 -105 38 -178 79
-236 130 l-49 44 143 1 142 0 0 490 0 490 -125 0 c-68 0 -135 -5 -148 -11 -44
-20 -47 -48 -47 -503 0 -308 -3 -425 -11 -420 -26 16 -109 160 -138 239 -107
296 -32 630 191 842 35 33 86 75 113 92 55 35 188 89 249 101 59 11 224 12
284 0z m335 -361 c58 -30 57 -15 57 -496 l0 -443 -140 0 -140 0 0 475 0 475
101 0 c55 0 110 -5 122 -11z m-723 -469 l0 -470 -140 0 -140 0 0 427 c0 448 3
482 44 502 12 5 69 10 129 10 l107 1 0 -470z"/>
<path d="M720 1536 l0 -84 30 -7 c17 -4 35 -15 40 -25 6 -12 10 -207 10 -519
l0 -501 160 0 160 0 0 583 c-1 482 -3 585 -15 600 -21 28 -75 36 -237 37
l-148 0 0 -84z m313 55 c70 -16 66 14 67 -608 l0 -563 -140 0 -140 0 0 501 c0
312 -4 507 -10 519 -5 10 -23 21 -40 25 -30 6 -30 8 -30 71 l0 64 128 0 c70 0
144 -4 165 -9z"/>
</g>
</svg>
