<?xml version="1.0" standalone="no"?>
<!DOCTYPE svg PUBLIC "-//W3C//DTD SVG 20010904//EN"
 "http://www.w3.org/TR/2001/REC-SVG-20010904/DTD/svg10.dtd">
<svg version="1.0" xmlns="http://www.w3.org/2000/svg"
 width="254.000000pt" height="254.000000pt" viewBox="0 0 254.000000 254.000000"
 preserveAspectRatio="xMidYMid meet">
<metadata>
Created by potrace 1.16, written by Peter Selinger 2001-2019
</metadata>
<g transform="translate(0.000000,254.000000) scale(0.100000,-0.100000)"
fill="#000000" stroke="none">
<path d="M545 1385 l0 -1085 725 0 725 0 -3 1085 -2 1085 -723 0 -722 0 0
-1085z m1425 0 l0 -1065 -700 0 -700 0 2 193 3 192 2 -187 3 -188 690 0 690 0
0 1055 0 1055 -688 -2 -687 -3 -5 -815 -5 -815 -3 823 -2 822 700 0 700 0 0
-1065z m-200 1026 c0 -5 -9 -15 -19 -22 -24 -17 -262 -341 -256 -347 9 -9 35
21 133 156 147 201 134 192 127 92 -5 -73 -10 -91 -35 -127 -17 -23 -30 -52
-31 -65 0 -12 -3 -18 -5 -11 -4 8 -109 -40 -310 -140 -167 -83 -304 -154 -303
-157 0 -3 42 -32 92 -65 51 -32 176 -114 279 -181 l187 -122 5 61 c8 82 36
503 36 537 0 17 20 53 52 96 l53 69 3 118 4 117 79 0 79 0 0 -1035 0 -1035
-670 0 -670 0 0 191 c0 164 -2 190 -15 186 -23 -10 -25 7 -4 39 18 28 19 55
19 842 l0 812 585 0 c329 0 585 -4 585 -9z m-125 -428 c-3 -38 -12 -166 -20
-287 -8 -120 -16 -220 -17 -221 -5 -5 -472 302 -475 312 -3 7 490 261 510 262
5 1 6 -29 2 -66z"/>
<path d="M919 1267 c-157 -216 -290 -403 -294 -417 -5 -17 -4 -22 3 -15 9 9
525 714 581 793 15 21 18 32 9 31 -7 0 -142 -176 -299 -392z"/>
<path d="M1086 1303 c-121 -164 -262 -357 -315 -430 -89 -122 -99 -132 -128
-132 -18 -1 -33 -5 -33 -11 0 -5 19 -10 43 -10 l42 1 315 428 c173 235 316
433 318 440 2 6 -2 11 -10 11 -7 0 -112 -134 -232 -297z"/>
<path d="M1283 972 l-102 -177 201 -3 c110 -1 203 0 205 2 5 5 -189 355 -197
356 -3 0 -51 -80 -107 -178z m186 -18 c40 -69 70 -128 68 -130 -2 -3 -72 -3
-154 -2 l-150 3 75 132 c42 73 79 130 82 128 4 -3 40 -61 79 -131z"/>
<path d="M1350 643 c-28 -5 -60 -30 -60 -47 0 -7 43 -11 130 -11 72 0 130 3
130 6 0 11 -93 46 -135 51 -22 3 -51 3 -65 1z m73 -30 c-13 -2 -35 -2 -50 0
-16 2 -5 4 22 4 28 0 40 -2 28 -4z"/>
<path d="M587 125 c-66 -90 -67 -95 -23 -95 23 0 39 5 42 15 8 21 92 20 115
-1 10 -9 30 -14 49 -12 l32 3 -54 75 c-44 61 -59 75 -83 77 -26 3 -36 -5 -78
-62z m96 27 c16 -18 15 -18 -12 -14 -20 3 -28 8 -24 18 7 19 17 18 36 -4z
m-53 -47 c0 -19 -5 -25 -20 -25 -20 0 -20 1 -3 25 22 30 23 30 23 0z m45 5 c3
-5 -1 -10 -9 -10 -9 0 -16 5 -16 10 0 6 4 10 9 10 6 0 13 -4 16 -10z m53 -19
l21 -29 -25 12 c-13 6 -24 19 -24 29 0 23 3 22 28 -12z"/>
<path d="M1760 110 l0 -80 29 0 c28 0 30 3 33 45 l3 45 67 -45 c37 -25 79 -45
93 -45 25 0 25 1 25 75 l0 75 -35 0 c-34 0 -35 -1 -35 -40 l0 -40 -67 45 c-37
25 -78 45 -90 45 -22 0 -23 -4 -23 -80z m52 32 c-7 -2 -12 -21 -12 -48 0 -24
-4 -44 -10 -44 -6 0 -10 27 -10 60 0 60 0 61 22 49 14 -8 18 -14 10 -17z m178
-37 c0 -30 -3 -55 -7 -55 -14 1 -47 30 -35 30 7 0 12 16 12 40 0 29 4 40 15
40 12 0 15 -13 15 -55z"/>
<path d="M920 105 l0 -75 70 0 c63 0 70 2 70 20 0 17 -7 20 -40 20 l-40 0 0
55 c0 54 0 55 -30 55 l-30 0 0 -75z m40 0 c0 -30 -4 -55 -10 -55 -5 0 -10 25
-10 55 0 30 5 55 10 55 6 0 10 -25 10 -55z"/>
<path d="M1160 165 c0 -10 10 -15 30 -15 l30 0 0 -60 0 -60 30 0 30 0 0 60 0
60 30 0 c20 0 30 5 30 15 0 12 -17 15 -90 15 -73 0 -90 -3 -90 -15z m100 -60
c0 -30 -4 -55 -10 -55 -5 0 -10 25 -10 55 0 30 5 55 10 55 6 0 10 -25 10 -55z"/>
<path d="M1460 105 l0 -75 80 0 c73 0 80 2 80 20 0 17 -7 20 -45 20 -33 0 -45
4 -45 15 0 11 11 15 40 15 29 0 40 4 40 15 0 11 -11 15 -40 15 -22 0 -40 5
-40 10 0 6 20 10 45 10 33 0 45 4 45 15 0 12 -16 15 -80 15 l-80 0 0 -75z m50
0 c0 -42 -3 -55 -15 -55 -12 0 -15 13 -15 55 0 42 3 55 15 55 12 0 15 -13 15
-55z"/>
</g>
</svg>
