<?xml version="1.0" standalone="no"?>
<!DOCTYPE svg PUBLIC "-//W3C//DTD SVG 20010904//EN"
 "http://www.w3.org/TR/2001/REC-SVG-20010904/DTD/svg10.dtd">
<svg version="1.0" xmlns="http://www.w3.org/2000/svg"
 width="192.000000pt" height="192.000000pt" viewBox="0 0 192.000000 192.000000"
 preserveAspectRatio="xMidYMid meet">
<metadata>
Created by potrace 1.16, written by Peter Selinger 2001-2019
</metadata>
<g transform="translate(0.000000,192.000000) scale(0.100000,-0.100000)"
fill="#000000" stroke="none">
<path d="M420 970 l0 -830 570 0 570 0 0 830 0 830 -570 0 -570 0 0 -830z
m1120 0 l0 -810 -550 0 -550 0 0 810 0 810 550 0 550 0 0 -810z"/>
<path d="M470 975 l0 -775 518 0 517 0 0 775 0 775 -517 0 -518 0 0 -775z
m844 707 c-36 -31 -174 -216 -174 -233 0 -21 31 13 103 111 39 52 74 99 79
105 5 6 6 -15 2 -49 -13 -109 -29 -124 -272 -245 l-214 -107 201 -132 c111
-73 203 -132 205 -132 1 0 9 101 16 225 l13 226 38 48 c38 48 39 51 39 130 l0
81 55 0 55 0 0 -735 0 -735 -475 0 -475 0 0 133 0 133 33 -4 c30 -3 36 1 93
80 33 46 136 186 229 311 92 125 165 230 162 233 -13 14 -48 -28 -247 -298
-173 -234 -218 -290 -251 -306 -43 -21 -57 -16 -34 14 12 16 14 110 15 597 l0
577 418 0 417 -1 -31 -27z m-78 -389 c-4 -76 -9 -161 -13 -189 l-5 -51 -159
101 c-87 55 -158 103 -158 106 -1 6 319 169 333 169 5 1 6 -57 2 -136z"/>
<path d="M918 1153 c-57 -66 -379 -518 -384 -540 -6 -25 -2 -22 28 17 74 97
388 529 388 534 0 12 -17 6 -32 -11z"/>
<path d="M994 682 l-71 -127 74 -3 c40 -2 106 -2 146 0 l74 3 -71 127 c-39 70
-73 127 -76 127 -3 0 -37 -57 -76 -127z m124 -16 c23 -40 42 -76 42 -80 0 -3
-40 -6 -90 -6 -49 0 -90 3 -90 6 0 11 84 154 90 154 3 0 25 -33 48 -74z"/>
<path d="M1023 440 c-13 -5 -23 -16 -23 -25 0 -12 16 -15 95 -15 52 0 95 2 95
5 0 4 -19 15 -42 25 -46 21 -89 24 -125 10z"/>
</g>
</svg>
