<?xml version="1.0" standalone="no"?>
<!DOCTYPE svg PUBLIC "-//W3C//DTD SVG 20010904//EN"
 "http://www.w3.org/TR/2001/REC-SVG-20010904/DTD/svg10.dtd">
<svg version="1.0" xmlns="http://www.w3.org/2000/svg"
 width="196.000000pt" height="196.000000pt" viewBox="0 0 196.000000 196.000000"
 preserveAspectRatio="xMidYMid meet">
<metadata>
Created by potrace 1.16, written by Peter Selinger 2001-2019
</metadata>
<g transform="translate(0.000000,196.000000) scale(0.100000,-0.100000)"
fill="#000000" stroke="none">
<path d="M3 1924 c1 -18 5 -30 10 -27 9 6 9 -11 0 -21 -12 -11 -12 -65 0 -63
5 1 12 -4 14 -10 3 -7 -2 -13 -10 -13 -10 0 -15 -11 -15 -35 0 -19 4 -35 10
-35 5 0 6 -4 3 -10 -3 -5 -2 -10 3 -10 6 0 12 6 15 14 3 8 14 13 24 11 10 -2
21 -4 25 -4 4 -1 5 -13 3 -28 -2 -16 -4 -31 -4 -35 -1 -5 -6 -7 -12 -5 -6 1
-14 -4 -16 -10 -4 -11 22 -19 50 -14 4 0 7 -5 7 -12 0 -8 4 -7 10 3 5 8 10 10
10 4 0 -18 -27 -37 -35 -24 -7 12 -26 14 -24 3 4 -22 -2 -34 -13 -30 -7 2 -22
-3 -33 -12 -20 -16 -20 -16 -2 6 10 12 18 30 17 40 -4 38 1 54 19 61 13 5 16
12 10 27 -7 18 -8 18 -8 1 -1 -12 -6 -16 -16 -13 -8 4 -17 2 -20 -4 -4 -5 -10
-7 -14 -5 -8 6 -6 -42 4 -66 4 -11 3 -18 -5 -18 -14 0 -11 -79 4 -99 8 -11 8
-13 -1 -7 -8 4 -13 1 -13 -8 0 -9 6 -16 13 -16 8 0 7 -4 -3 -10 -13 -9 -13
-11 0 -20 8 -5 10 -10 4 -10 -15 0 -16 -63 -1 -72 9 -6 9 -10 0 -16 -19 -12
-14 -82 6 -82 12 0 11 -3 -4 -13 -10 -8 -15 -19 -11 -26 6 -9 11 -9 22 0 8 6
14 8 14 3 0 -5 5 -2 11 6 9 13 10 12 5 -2 -4 -13 1 -17 17 -16 52 2 72 -2 57
-11 -8 -6 -18 -7 -23 -4 -6 3 -31 7 -58 7 -42 2 -47 0 -46 -19 0 -11 6 -23 12
-27 7 -6 7 -10 -1 -15 -14 -11 -15 -186 0 -195 8 -5 7 -8 -1 -8 -8 0 -13 -15
-13 -40 0 -25 5 -40 13 -40 7 0 8 -3 2 -8 -16 -11 -17 -42 -3 -60 7 -9 8 -13
2 -9 -7 4 -11 -5 -11 -23 0 -16 4 -27 9 -24 4 3 8 0 8 -5 0 -6 -4 -11 -10 -11
-5 0 -10 -5 -10 -11 0 -5 5 -7 11 -3 8 4 8 1 1 -12 -13 -25 -11 -117 2 -126 6
-4 16 -2 24 4 10 9 16 8 22 -1 5 -9 10 -9 14 -3 3 6 0 17 -9 25 -12 13 -12 16
0 20 7 3 19 -2 27 -11 9 -11 10 -14 1 -8 -18 10 -16 -9 2 -24 11 -9 13 -16 6
-23 -13 -13 -43 -19 -36 -7 3 4 -2 11 -11 14 -23 9 -26 8 -18 -6 6 -10 4 -10
-7 -1 -7 7 -16 13 -20 13 -12 0 -8 -75 4 -82 8 -5 7 -8 -3 -8 -13 0 -13 -1 0
-10 10 -6 11 -10 3 -10 -8 0 -13 -15 -13 -40 0 -25 5 -40 13 -40 7 0 8 -3 2
-8 -16 -11 -17 -42 -3 -60 7 -9 8 -13 2 -9 -7 4 -11 -5 -11 -23 0 -16 4 -27 9
-24 4 3 8 0 8 -5 0 -6 -4 -11 -10 -11 -5 0 -10 -5 -10 -11 0 -5 5 -7 11 -3 8
4 8 1 1 -12 -13 -25 -11 -117 2 -126 6 -4 16 -2 24 4 10 9 16 8 22 -1 5 -9 10
-9 14 -3 3 6 0 17 -9 25 -12 13 -12 16 0 20 7 3 19 -2 27 -11 9 -11 10 -14 1
-8 -18 10 -16 -9 2 -24 11 -9 13 -16 6 -23 -14 -14 -43 -18 -35 -6 3 5 3 9 0
9 -2 0 -12 3 -22 7 -13 5 -15 3 -9 -8 6 -11 5 -12 -6 -1 -21 19 -28 14 -27
-18 l1 -30 64 0 c35 0 62 3 60 8 -3 4 -1 16 4 27 6 17 8 16 9 -10 1 -26 3 -27
9 -10 5 11 6 25 3 30 -3 6 2 4 11 -4 9 -7 17 -19 17 -25 0 -6 -5 -4 -10 4 -8
13 -10 12 -10 -2 0 -14 9 -18 40 -18 39 0 45 6 40 40 -1 11 3 9 15 -5 14 -17
16 -17 11 -2 -3 11 0 17 10 17 12 0 13 -4 4 -20 -6 -11 -15 -18 -21 -15 -5 4
-9 1 -9 -4 0 -6 18 -11 40 -11 l39 0 -1 73 c-1 40 -6 75 -12 79 -7 5 -8 8 0 8
16 0 18 91 2 101 -10 7 -10 9 0 9 17 0 15 370 -2 370 -7 0 -8 3 -1 8 17 11 19
93 3 103 -10 6 -10 9 -1 9 10 0 13 31 12 121 0 99 -3 120 -14 115 -8 -3 -17
-1 -21 5 -4 7 -10 6 -18 0 -7 -6 -17 -7 -21 -3 -5 4 -5 -2 -2 -13 6 -18 5 -18
-5 -4 -7 9 -21 15 -31 13 -9 -1 -15 2 -11 7 3 5 10 7 15 4 5 -4 12 0 15 8 3 8
19 14 38 14 25 0 33 -4 29 -14 -3 -9 0 -11 10 -7 13 5 16 38 17 240 1 218 -1
234 -17 234 -16 1 -16 2 -3 13 19 15 24 55 10 72 -8 9 -8 15 0 20 8 5 8 10 0
20 -7 9 -8 15 -1 20 16 9 12 146 -4 162 -21 20 -32 16 -31 -14 1 -21 -4 -27
-21 -28 -17 -1 -23 4 -22 19 0 12 3 15 6 9 2 -7 9 -13 14 -13 6 0 9 6 8 13 -4
29 3 37 31 37 27 0 30 3 30 31 0 24 -4 30 -15 25 -9 -3 -15 0 -15 9 0 8 -8 15
-17 15 -15 0 -16 -2 -3 -10 8 -5 11 -10 5 -11 -5 0 -17 -2 -26 -4 -12 -2 -14
4 -11 26 4 30 26 39 36 17 5 -10 7 -10 12 0 9 20 27 14 21 -8 -3 -11 -1 -20 4
-20 5 0 9 15 9 34 0 24 5 36 18 39 9 3 3 5 -15 6 -20 1 -36 -5 -43 -16 -11
-17 -11 -17 -6 0 5 15 -2 17 -55 16 -43 -1 -62 -6 -70 -18 -10 -15 -10 -15 -6
0 5 14 -5 16 -74 15 l-79 0 3 -32z m95 -7 c13 4 14 3 3 -5 -8 -6 -9 -12 -3
-16 5 -3 15 1 22 9 14 17 30 20 30 4 0 -5 -4 -7 -10 -4 -6 3 -7 -1 -3 -10 5
-13 7 -14 14 -3 7 10 9 10 10 1 3 -28 4 -32 11 -38 9 -9 -1 -35 -14 -35 -6 0
-8 9 -5 20 3 13 0 20 -8 20 -8 0 -18 7 -23 15 -7 13 -12 12 -32 -10 -13 -14
-19 -25 -13 -25 6 0 13 -10 17 -22 5 -19 8 -21 16 -8 5 8 10 10 10 4 0 -15
-35 -46 -43 -37 -4 3 -7 -2 -8 -13 0 -11 -3 -13 -6 -6 -2 6 -9 10 -14 7 -5 -4
-6 1 -3 9 3 8 14 13 25 11 10 -2 21 1 25 6 3 6 -2 10 -12 9 -11 -1 -26 -2 -34
-1 -13 1 -13 3 0 10 8 6 18 7 22 5 4 -3 8 -1 8 5 0 5 -4 13 -10 16 -5 3 -10
13 -10 21 0 8 4 13 9 10 5 -3 14 1 20 8 9 11 9 16 0 22 -7 4 -15 2 -17 -5 -3
-9 -7 -9 -18 0 -12 10 -12 14 3 25 10 7 19 9 21 4 2 -5 11 -6 20 -3z m100 -25
c2 -12 -2 -22 -8 -22 -6 0 -8 5 -5 10 3 6 -1 13 -9 16 -22 8 -20 26 2 22 9 -2
18 -13 20 -26z m42 17 c0 -5 -4 -8 -9 -5 -5 4 -11 1 -13 -6 -3 -8 -7 -6 -11 5
-5 12 -1 17 13 17 11 0 20 -5 20 -11z m-190 -54 c0 -5 -5 -3 -10 5 -5 8 -10
20 -10 25 0 6 5 3 10 -5 5 -8 10 -19 10 -25z m180 15 c0 -5 -2 -10 -4 -10 -3
0 -8 5 -11 10 -3 6 -1 10 4 10 6 0 11 -4 11 -10z m-93 -42 c-3 -8 -6 -5 -6 6
-1 11 2 17 5 13 3 -3 4 -12 1 -19z m164 -1 c-10 -9 -11 -8 -5 6 3 10 9 15 12
12 3 -3 0 -11 -7 -18z m-246 3 c3 -5 1 -10 -4 -10 -6 0 -11 5 -11 10 0 6 2 10
4 10 3 0 8 -4 11 -10z m213 -20 c-7 -10 -14 -17 -16 -15 -3 2 -14 -2 -24 -10
-22 -15 -52 -9 -41 8 3 6 1 7 -5 3 -6 -3 -9 -15 -7 -26 2 -12 0 -18 -6 -15 -5
4 -9 0 -10 -7 0 -10 -2 -10 -6 1 -5 11 -7 11 -14 0 -6 -9 -9 -10 -9 -2 0 6 5
15 10 18 6 3 10 11 10 16 0 6 -4 8 -8 5 -5 -3 -9 1 -9 9 0 23 67 20 68 -2 0
-15 2 -15 8 2 5 11 4 23 -1 26 -5 3 9 6 32 7 37 2 39 1 28 -18z m-164 -58 c3
-5 -1 -9 -9 -9 -8 0 -12 4 -9 9 3 4 7 8 9 8 2 0 6 -4 9 -8z m126 2 c0 -8 -19
-13 -24 -6 -3 5 1 9 9 9 8 0 15 -2 15 -3z m-77 -31 c3 7 7 4 12 -8 3 -11 11
-28 16 -39 7 -12 7 -16 1 -12 -6 3 -12 3 -15 -1 -2 -5 -2 -2 -1 4 3 13 -3 20
-41 49 -20 15 -20 15 2 5 16 -8 23 -8 26 2z m76 -29 c-6 -8 -14 -14 -16 -14
-3 0 0 7 7 15 10 12 10 15 -4 15 -9 0 -16 -7 -16 -17 0 -18 -15 -8 -15 10 -1
19 17 26 38 16 14 -8 16 -13 6 -25z m81 14 c0 -4 0 -11 0 -15 0 -5 -3 -8 -7
-8 -5 0 -14 -4 -22 -9 -11 -7 -13 -5 -8 7 3 9 2 19 -2 22 -5 2 -11 -5 -14 -17
-4 -12 -9 -19 -12 -16 -14 14 16 48 40 46 14 -1 25 -6 25 -10z m-165 -20 c3
-3 -3 -8 -14 -11 -11 -3 -26 2 -32 10 -10 12 -8 14 14 11 14 -2 29 -7 32 -10z
m47 -87 c10 -33 1 -41 -10 -10 l-9 23 -18 -27 c-17 -26 -45 -37 -45 -17 0 5 7
7 15 4 11 -5 15 1 15 21 0 15 4 24 10 20 6 -3 10 -1 10 4 0 21 25 6 32 -18z
m83 12 c0 -6 3 -15 8 -19 4 -4 7 4 7 17 1 21 2 22 11 6 8 -13 6 -21 -5 -33
-18 -18 -20 -30 -6 -39 6 -4 8 -11 5 -16 -4 -5 -1 -9 4 -9 15 0 13 -11 -4 -34
-12 -16 -19 -18 -39 -8 -15 6 -28 7 -31 2 -11 -17 -45 -6 -46 15 0 14 -5 10
-15 -15 -12 -31 -14 -32 -10 -7 2 18 -1 27 -11 27 -8 0 -11 -5 -7 -12 4 -6 3
-8 -4 -4 -6 3 -8 19 -6 33 7 36 14 42 14 12 0 -13 4 -19 8 -13 4 5 17 10 30
10 17 0 22 -5 19 -18 -3 -10 -1 -21 4 -24 5 -3 9 -1 9 5 0 5 9 8 20 6 27 -5
25 3 -2 15 -24 9 -21 10 31 14 22 1 40 15 23 17 -27 3 -31 4 -39 13 -5 5 -2 6
6 1 11 -6 13 -3 8 14 -5 19 -3 21 11 9 15 -12 16 -11 3 5 -13 17 -15 17 -36
-3 -16 -15 -22 -17 -22 -6 0 8 3 15 6 14 21 -2 22 4 5 18 -10 8 -14 13 -7 10
6 -4 15 -2 18 4 9 14 40 8 40 -7z m-179 -48 c1 -8 -6 -13 -16 -12 -14 1 -16 4
-7 19 12 18 20 16 23 -7z m64 -12 c-11 -17 -11 -17 -6 0 3 10 6 24 7 30 0 9 2
9 5 0 3 -7 0 -20 -6 -30z m-49 -36 c-7 -17 -7 -28 -1 -32 6 -4 10 -12 9 -18 0
-9 -2 -9 -6 1 -6 16 -18 15 -37 -3 -14 -14 -16 -13 -22 10 -3 14 -10 25 -15
25 -5 0 -6 7 -3 15 4 8 10 12 15 9 5 -3 8 -8 5 -12 -2 -4 0 -16 5 -27 6 -15 7
-12 6 14 -1 19 3 36 9 38 7 2 10 -8 8 -28 -4 -31 4 -36 10 -7 5 22 18 49 23
45 2 -2 -1 -16 -6 -30z m153 -72 c-4 -8 -2 -15 3 -15 5 0 9 -10 10 -22 2 -21
0 -20 -13 5 -8 15 -12 32 -9 37 9 15 15 12 9 -5z m56 -17 c0 -4 -4 -8 -9 -8
-6 0 -12 4 -15 8 -3 5 1 9 9 9 8 0 15 -4 15 -9z m-260 -10 c0 -5 9 -4 20 2 19
10 20 10 8 -9 -8 -13 -16 -17 -24 -11 -6 6 -13 7 -16 4 -3 -2 -8 1 -11 9 -3 8
1 14 9 14 8 0 14 -4 14 -9z m200 -20 c0 -11 -18 -10 -24 1 -3 5 -14 8 -24 6
-9 -1 -11 0 -4 2 7 3 10 8 7 13 -3 4 6 3 20 -3 14 -7 25 -15 25 -19z m-153
-20 c-3 -7 -5 -2 -5 12 0 14 2 19 5 13 2 -7 2 -19 0 -25z m64 23 c-7 -5 -9
-15 -5 -26 7 -18 8 -18 16 1 8 18 8 18 5 -1 -4 -31 -42 -27 -41 5 2 22 1 23
-12 6 -12 -18 -13 -18 -12 1 2 13 10 19 31 20 16 0 24 -2 18 -6z m-91 -46 c-1
-18 -1 -19 -11 -2 -6 9 -14 15 -20 12 -5 -4 -9 -2 -9 4 0 5 9 9 20 8 13 -1 20
-8 20 -22z m-2 -45 c15 0 15 2 2 10 -9 6 -10 10 -3 10 6 0 15 -5 18 -10 4 -6
12 -7 18 -4 8 5 8 3 0 -6 -7 -8 -26 -15 -42 -16 -25 -2 -28 1 -28 23 0 21 1
23 9 10 5 -10 17 -17 26 -17z m95 10 c4 0 6 4 3 8 -2 4 4 9 15 9 10 1 19 -3
19 -9 0 -6 7 -5 18 3 15 13 16 12 4 -3 -7 -9 -21 -15 -30 -14 -9 2 -23 -4 -29
-13 -11 -14 -14 -14 -23 -1 -8 12 -10 13 -10 1 0 -8 -3 -11 -6 -8 -4 4 -2 13
4 20 7 8 10 16 8 19 -1 3 2 2 8 -3 5 -5 14 -9 19 -9z m110 -11 c3 -12 0 -19
-9 -19 -8 0 -14 -6 -14 -14 0 -8 -4 -18 -10 -21 -5 -3 -7 0 -4 9 9 24 -4 38
-26 26 -10 -6 -21 -6 -24 -2 -3 5 1 9 9 10 8 1 22 3 30 4 14 1 19 11 16 30 -2
16 27 -5 32 -23z m32 2 c3 -5 2 -12 -3 -15 -5 -3 -9 1 -9 9 0 17 3 19 12 6z
m-220 -43 c5 4 5 1 1 -6 -5 -9 -12 -9 -27 -2 -10 6 -19 13 -19 16 0 2 8 0 19
-5 10 -6 22 -7 26 -3z m80 -8 c-3 -5 -12 -10 -18 -10 -7 0 -6 4 3 10 19 12 23
12 15 0z m-81 -28 c3 -5 -1 -9 -9 -9 -8 0 -12 4 -9 9 3 4 7 8 9 8 2 0 6 -4 9
-8z m128 -45 c9 -18 8 -18 -16 -2 -14 9 -30 14 -36 10 -5 -3 -18 1 -27 10 -15
16 -14 16 20 11 26 -4 37 -2 38 7 0 7 3 6 6 -3 3 -8 10 -23 15 -33z m64 22 c3
-6 1 -16 -6 -22 -10 -9 -12 -8 -7 6 4 9 2 17 -2 17 -5 0 -11 -5 -13 -11 -2 -7
-8 -6 -15 3 -10 11 -7 14 12 16 13 1 27 -3 31 -9z m-209 -35 c-3 -3 -12 -4
-19 -1 -8 3 -5 6 6 6 11 1 17 -2 13 -5z m-23 -49 c-2 -19 0 -36 6 -36 5 -1 14
-2 19 -3 5 0 13 -4 17 -8 3 -4 -4 -5 -17 -2 -13 3 -29 6 -35 6 -8 1 -9 10 -4
27 4 14 5 32 3 39 -3 6 0 12 5 12 6 0 9 -15 6 -35z m66 25 c0 -5 -4 -10 -10
-10 -5 0 -10 5 -10 10 0 6 5 10 10 10 6 0 10 -4 10 -10z m140 -10 c0 -5 -8
-10 -17 -10 -15 0 -16 2 -3 10 19 12 20 12 20 0z m-80 -4 c0 -3 -4 -8 -10 -11
-5 -3 -10 -1 -10 4 0 6 5 11 10 11 6 0 10 -2 10 -4z m35 -29 c0 -20 -5 -34
-12 -34 -8 0 -9 6 -3 16 5 9 4 23 -1 33 -7 13 -6 18 3 18 8 0 13 -13 13 -33z
m-131 1 c-3 -4 -9 -8 -15 -8 -5 0 -9 4 -9 8 0 5 7 9 15 9 8 0 12 -4 9 -9z m70
4 c3 -5 -1 -9 -9 -9 -8 0 -12 4 -9 9 3 4 7 8 9 8 2 0 6 -4 9 -8z m36 0 c0 -5
-7 -17 -15 -28 -14 -18 -14 -17 -4 9 12 27 19 34 19 19z m90 -7 c0 -2 -9 -3
-19 -2 -11 0 -18 5 -15 9 4 6 34 0 34 -7z m18 -15 c-7 -11 -14 -17 -17 -15 -2
3 1 11 7 18 7 8 8 18 4 22 -4 5 -1 5 5 1 10 -5 10 -11 1 -26z m-28 -5 c0 -7
-30 -13 -34 -7 -3 4 4 9 15 9 10 1 19 0 19 -2z m-190 -46 c0 -19 2 -20 18 -8
14 11 15 11 5 0 -6 -7 -10 -19 -9 -25 2 -6 1 -8 -1 -3 -3 4 -9 5 -14 1 -5 -3
-9 1 -9 10 0 8 -5 16 -12 18 -6 2 -8 10 -4 16 12 19 26 14 26 -9z m51 -32
c-10 -9 -11 -8 -5 6 3 10 9 15 12 12 3 -3 0 -11 -7 -18z m50 -1 c1 5 1 12 1
15 -1 3 6 6 15 6 12 0 9 -7 -10 -23 -15 -13 -23 -25 -18 -29 6 -3 9 -14 8 -24
-1 -15 -5 -17 -18 -11 -9 6 -20 5 -26 -1 -6 -6 -10 -5 -10 5 0 8 4 13 8 11 13
-9 27 20 23 50 -3 28 -2 29 12 11 8 -11 15 -16 15 -10z m90 -66 c6 0 8 4 5 8
-3 5 1 9 9 9 13 0 13 -3 0 -17 -8 -9 -12 -20 -8 -23 7 -8 -10 -10 -46 -7 -19
1 -23 -2 -17 -17 6 -17 6 -17 -8 0 -14 18 -15 17 -19 -10 -4 -27 -4 -27 -6 5
-1 26 3 32 17 30 9 -2 16 2 14 10 -1 9 6 7 25 -5 l26 -17 -6 29 c-3 17 -4 24
-1 18 3 -7 10 -13 15 -13z m-211 -17 c0 -12 3 -11 16 1 8 9 18 16 21 16 4 0 3
-3 0 -7 -4 -3 2 -12 13 -20 11 -8 20 -20 19 -26 0 -8 -3 -7 -6 2 -5 11 -7 11
-15 0 -8 -11 -9 -10 -5 3 3 9 -1 19 -8 22 -11 4 -14 -2 -11 -24 2 -16 1 -29
-3 -28 -22 2 -41 -4 -41 -13 0 -5 5 -7 12 -3 7 4 8 3 4 -4 -4 -7 -3 -12 3 -12
5 0 13 5 17 11 5 8 9 8 14 -1 11 -17 0 -50 -16 -50 -8 0 -14 -6 -14 -13 0 -23
13 -28 30 -12 14 13 17 13 17 0 0 -8 -4 -12 -8 -9 -9 5 -31 -31 -23 -39 3 -3
-1 -8 -8 -13 -7 -4 -10 -4 -6 1 4 4 2 15 -5 23 -9 13 -9 14 1 8 6 -4 12 -3 12
2 0 5 -10 14 -22 20 -13 6 -17 11 -10 11 6 1 12 6 12 12 0 5 -6 7 -13 4 -6 -4
-3 0 7 9 10 8 22 13 26 11 5 -3 10 2 13 9 5 12 -2 13 -31 9 -20 -2 -32 -1 -27
4 6 4 10 14 11 21 3 36 5 42 15 42 5 0 7 -6 3 -12 -5 -8 0 -7 11 2 14 12 15
16 4 18 -21 4 -42 39 -23 39 8 0 14 -7 14 -14z m101 -12 c4 8 7 -6 5 -33 l-4
-47 35 4 c42 4 31 -10 -13 -18 -25 -5 -31 -3 -31 11 0 41 -3 48 -12 33 -12
-19 -38 -22 -38 -5 0 10 4 11 12 4 15 -12 29 13 27 45 -1 12 1 15 4 6 5 -11 8
-11 15 0z m123 -90 c-5 -5 -44 30 -44 40 0 4 11 -2 24 -14 14 -12 23 -24 20
-26z m20 28 c-3 -5 -10 -7 -15 -3 -5 3 -7 10 -3 15 3 5 10 7 15 3 5 -3 7 -10
3 -15z m-167 -61 c-3 -8 -6 -5 -6 6 -1 11 2 17 5 13 3 -3 4 -12 1 -19z m125
-7 c-3 -16 2 -21 19 -21 27 0 17 -13 -11 -15 -14 -1 -20 5 -20 20 0 11 -5 26
-11 32 -9 9 -7 11 7 9 13 -2 18 -10 16 -25z m-105 -3 c-3 -8 -6 -5 -6 6 -1 11
2 17 5 13 3 -3 4 -12 1 -19z m43 -22 c0 -3 -4 -8 -10 -11 -5 -3 -10 -1 -10 4
0 6 5 11 10 11 6 0 10 -2 10 -4z m7 -38 c-3 -8 -6 -5 -6 6 -1 11 2 17 5 13 3
-3 4 -12 1 -19z m-57 2 c5 9 9 8 13 -3 4 -10 0 -14 -11 -13 -9 2 -17 8 -18 15
-2 8 -1 8 3 0 4 -8 7 -8 13 1z m133 -30 c-3 -3 -8 1 -10 8 -4 10 -8 10 -21 0
-14 -12 -14 -11 -2 9 13 20 15 20 26 5 7 -9 10 -19 7 -22z m-185 13 c-23 -27
-30 -53 -14 -53 8 0 17 5 19 10 3 6 4 5 3 -2 -1 -7 -11 -15 -22 -17 -10 -1
-26 -10 -36 -18 -12 -11 -18 -11 -24 -2 -4 8 -3 10 4 5 12 -7 16 4 13 37 -2
10 8 21 22 26 14 6 28 15 32 20 3 6 9 11 12 11 3 0 -1 -8 -9 -17z m92 -13 c0
-5 -9 -14 -20 -20 -16 -9 -18 -8 -14 5 3 8 10 12 15 9 5 -3 9 0 9 5 0 6 2 11
5 11 3 0 5 -4 5 -10z m-55 -20 c3 -5 1 -10 -4 -10 -6 0 -11 5 -11 10 0 6 2 10
4 10 3 0 8 -4 11 -10z m-104 -17 c13 -16 12 -17 -3 -4 -17 13 -22 21 -14 21 2
0 10 -8 17 -17z m229 1 c0 -14 -3 -14 -15 -4 -8 7 -15 14 -15 16 0 2 7 4 15 4
8 0 15 -7 15 -16z m25 7 c3 -5 2 -12 -3 -15 -5 -3 -9 1 -9 9 0 17 3 19 12 6z
m-112 -38 c3 -16 1 -32 -5 -38 -8 -7 -9 -6 -4 2 3 6 2 23 -4 37 -5 14 -6 26
-1 26 5 0 11 -12 14 -27z m41 9 c3 -5 -1 -9 -9 -9 -8 0 -12 4 -9 9 3 4 7 8 9
8 2 0 6 -4 9 -8z m-90 -17 c-4 -8 -10 -15 -16 -15 -5 0 -7 4 -4 9 4 5 0 12 -6
14 -7 3 -3 6 9 6 16 1 21 -3 17 -14z m22 -12 c-2 -16 -4 -34 -5 -40 0 -7 -6
-13 -11 -13 -7 0 -7 6 0 20 6 10 10 23 9 27 -2 14 1 33 5 33 3 0 3 -12 2 -27z
m145 -10 c-5 -10 -11 -22 -13 -27 -1 -6 -16 -11 -32 -11 -20 -1 -30 4 -34 17
-2 10 -9 15 -15 11 -6 -4 -7 -1 -2 7 6 10 11 10 20 -3 14 -20 29 -22 22 -4 -3
8 4 14 16 15 16 1 18 -1 8 -7 -9 -6 -10 -11 -3 -15 6 -4 16 3 22 14 6 11 13
20 16 20 2 0 0 -8 -5 -17z m-111 -39 c0 -2 -7 -4 -15 -4 -8 0 -15 4 -15 10 0
5 7 7 15 4 8 -4 15 -8 15 -10z m-40 -40 c0 -14 -4 -23 -9 -20 -5 3 -7 15 -4
26 7 28 13 25 13 -6z m40 -8 c0 -6 -5 -4 -10 4 -8 13 -10 13 -10 -2 0 -17 33
-42 43 -32 3 3 8 0 12 -6 5 -8 -1 -11 -16 -8 -16 2 -23 -2 -21 -10 2 -10 -2
-10 -16 -3 -13 7 -23 6 -31 -2 -10 -9 -11 -8 -5 6 3 10 13 16 20 13 16 -6 28
10 14 19 -5 3 -9 17 -8 30 2 18 5 21 15 13 7 -6 13 -16 13 -22z m86 17 c-3 11
0 17 10 17 12 0 13 -4 4 -20 -6 -11 -16 -17 -22 -14 -8 5 -9 1 -5 -10 4 -10 7
-24 7 -32 0 -8 5 -14 11 -14 5 0 8 4 4 9 -3 5 -1 12 4 15 16 11 22 -11 6 -24
-8 -7 -12 -16 -9 -21 6 -10 -7 -12 -45 -9 -19 1 -23 -2 -17 -17 6 -17 6 -17
-8 0 -14 18 -15 17 -19 -10 -4 -27 -4 -27 -6 5 -1 26 3 32 17 30 9 -2 16 2 14
10 -1 9 6 7 24 -5 25 -16 26 -16 22 3 -2 10 -9 18 -14 17 -6 -1 -11 4 -11 12
0 8 4 12 8 9 5 -2 6 12 3 33 -4 36 -4 36 12 18 13 -17 15 -17 10 -2z m-166
-19 c0 -2 -13 -4 -30 -4 -16 0 -30 4 -30 8 0 5 14 7 30 4 17 -2 30 -6 30 -8z
m220 10 c0 -8 -19 -13 -24 -6 -3 5 1 9 9 9 8 0 15 -2 15 -3z m-243 -46 c-3 -8
-6 -5 -6 6 -1 11 2 17 5 13 3 -3 4 -12 1 -19z m43 7 c0 -8 -4 -15 -10 -15 -5
0 -7 7 -4 15 4 8 8 15 10 15 2 0 4 -7 4 -15z m-60 -42 c0 -12 3 -11 16 1 8 9
18 16 21 16 4 0 3 -3 0 -7 -4 -3 2 -12 13 -20 11 -8 20 -20 19 -26 0 -8 -3 -7
-6 2 -5 11 -7 11 -15 0 -8 -11 -9 -10 -5 3 3 9 -1 19 -8 22 -11 4 -14 -2 -11
-24 2 -16 1 -29 -3 -28 -22 2 -41 -4 -41 -13 0 -5 5 -7 12 -3 7 4 8 3 4 -4 -4
-7 -3 -12 3 -12 5 0 13 5 17 11 5 8 9 8 14 -1 11 -17 0 -50 -16 -50 -8 0 -14
-6 -14 -13 0 -23 13 -28 30 -12 14 13 17 13 17 0 0 -8 -4 -12 -8 -9 -9 5 -31
-31 -23 -39 3 -3 -1 -8 -8 -13 -7 -4 -10 -4 -6 1 4 4 2 15 -5 23 -9 13 -9 14
1 8 6 -4 12 -3 12 2 0 5 -10 14 -22 20 -13 6 -17 11 -10 11 6 1 12 6 12 12 0
5 -6 7 -13 4 -6 -4 -3 0 7 9 10 8 22 13 26 11 5 -3 10 2 13 9 5 12 -2 13 -31
9 -20 -2 -32 -1 -27 4 6 4 10 14 11 21 3 36 5 42 15 42 5 0 7 -6 3 -12 -5 -8
0 -7 11 2 14 12 15 16 4 18 -21 4 -42 39 -23 39 8 0 14 -7 14 -14z m101 -12
c4 8 7 -6 5 -33 l-4 -47 35 4 c42 4 31 -10 -13 -18 -25 -5 -31 -3 -31 11 0 41
-3 48 -12 33 -12 -19 -38 -22 -38 -5 0 10 4 11 12 4 15 -12 29 13 27 45 -1 12
1 15 4 6 5 -11 8 -11 15 0z m123 -90 c-5 -5 -44 30 -44 40 0 4 11 -2 24 -14
14 -12 23 -24 20 -26z m20 28 c-3 -5 -10 -7 -15 -3 -5 3 -7 10 -3 15 3 5 10 7
15 3 5 -3 7 -10 3 -15z m-167 -61 c-3 -8 -6 -5 -6 6 -1 11 2 17 5 13 3 -3 4
-12 1 -19z m125 -7 c-3 -16 2 -21 19 -21 27 0 17 -13 -11 -15 -14 -1 -20 5
-20 20 0 11 -5 26 -11 32 -9 9 -7 11 7 9 13 -2 18 -10 16 -25z m-105 -3 c-3
-8 -6 -5 -6 6 -1 11 2 17 5 13 3 -3 4 -12 1 -19z m43 -22 c0 -3 -4 -8 -10 -11
-5 -3 -10 -1 -10 4 0 6 5 11 10 11 6 0 10 -2 10 -4z m7 -38 c-3 -8 -6 -5 -6 6
-1 11 2 17 5 13 3 -3 4 -12 1 -19z m-57 2 c5 9 9 8 13 -3 4 -10 0 -14 -11 -13
-9 2 -17 8 -18 15 -2 8 -1 8 3 0 4 -8 7 -8 13 1z m133 -30 c-3 -3 -8 1 -10 8
-4 10 -8 10 -21 0 -14 -12 -14 -11 -2 9 13 20 15 20 26 5 7 -9 10 -19 7 -22z
m-185 13 c-23 -27 -30 -53 -14 -53 8 0 17 5 19 10 3 6 4 5 3 -2 -1 -7 -11 -15
-22 -17 -10 -1 -26 -10 -36 -18 -12 -11 -18 -11 -24 -2 -4 8 -3 10 4 5 12 -7
16 4 13 37 -2 10 8 21 22 26 14 6 28 15 32 20 3 6 9 11 12 11 3 0 -1 -8 -9
-17z m92 -13 c0 -5 -9 -14 -20 -20 -16 -9 -18 -8 -14 5 3 8 10 12 15 9 5 -3 9
0 9 5 0 6 2 11 5 11 3 0 5 -4 5 -10z m-55 -20 c3 -5 1 -10 -4 -10 -6 0 -11 5
-11 10 0 6 2 10 4 10 3 0 8 -4 11 -10z m-104 -17 c13 -16 12 -17 -3 -4 -17 13
-22 21 -14 21 2 0 10 -8 17 -17z m229 1 c0 -14 -3 -14 -15 -4 -8 7 -15 14 -15
16 0 2 7 4 15 4 8 0 15 -7 15 -16z m25 7 c3 -5 2 -12 -3 -15 -5 -3 -9 1 -9 9
0 17 3 19 12 6z m-112 -38 c3 -16 1 -32 -5 -38 -8 -7 -9 -6 -4 2 3 6 2 23 -4
37 -5 14 -6 26 -1 26 5 0 11 -12 14 -27z m41 9 c3 -5 -1 -9 -9 -9 -8 0 -12 4
-9 9 3 4 7 8 9 8 2 0 6 -4 9 -8z m-90 -17 c-4 -8 -10 -15 -16 -15 -5 0 -7 4
-4 9 4 5 0 12 -6 14 -7 3 -3 6 9 6 16 1 21 -3 17 -14z m22 -12 c-2 -16 -4 -34
-5 -40 0 -7 -6 -13 -11 -13 -7 0 -7 6 0 20 6 10 10 23 9 27 -2 14 1 33 5 33 3
0 3 -12 2 -27z m145 -10 c-5 -10 -11 -22 -13 -27 -1 -6 -16 -11 -32 -11 -20
-1 -30 4 -34 17 -2 10 -9 15 -15 11 -6 -4 -7 -1 -2 7 6 10 11 10 20 -3 14 -20
29 -22 22 -4 -3 8 4 14 16 15 16 1 18 -1 8 -7 -9 -6 -10 -11 -3 -15 6 -4 16 3
22 14 6 11 13 20 16 20 2 0 0 -8 -5 -17z m-111 -39 c0 -2 -7 -4 -15 -4 -8 0
-15 4 -15 10 0 5 7 7 15 4 8 -4 15 -8 15 -10z m-80 -50 c0 -2 -13 -4 -30 -4
-16 0 -30 4 -30 8 0 5 14 7 30 4 17 -2 30 -6 30 -8z m220 10 c0 -8 -19 -13
-24 -6 -3 5 1 9 9 9 8 0 15 -2 15 -3z"/>
<path d="M225 1809 c-4 -6 -4 -13 -1 -16 3 -4 6 -1 6 5 0 6 8 13 18 15 15 4
15 5 0 6 -9 0 -20 -4 -23 -10z"/>
<path d="M265 1499 c-3 -4 2 -6 10 -5 21 3 28 13 10 13 -9 0 -18 -4 -20 -8z"/>
<path d="M256 1303 c-6 -14 -5 -15 5 -6 7 7 10 15 7 18 -3 3 -9 -2 -12 -12z"/>
<path d="M388 1953 c12 -2 32 -2 45 0 12 2 2 4 -23 4 -25 0 -35 -2 -22 -4z"/>
<path d="M478 1953 c12 -2 32 -2 45 0 12 2 2 4 -23 4 -25 0 -35 -2 -22 -4z"/>
<path d="M577 1953 c18 -2 50 -2 70 0 21 2 7 4 -32 4 -38 0 -55 -2 -38 -4z"/>
<path d="M713 1953 c15 -2 37 -2 50 0 12 2 0 4 -28 4 -27 0 -38 -2 -22 -4z"/>
<path d="M817 1953 c18 -2 50 -2 70 0 21 2 7 4 -32 4 -38 0 -55 -2 -38 -4z"/>
<path d="M953 1953 c15 -2 39 -2 55 0 15 2 2 4 -28 4 -30 0 -43 -2 -27 -4z"/>
<path d="M1063 1953 c15 -2 37 -2 50 0 12 2 0 4 -28 4 -27 0 -38 -2 -22 -4z"/>
<path d="M1148 1953 c7 -3 16 -2 19 1 4 3 -2 6 -13 5 -11 0 -14 -3 -6 -6z"/>
<path d="M1223 1953 c9 -2 25 -2 35 0 9 3 1 5 -18 5 -19 0 -27 -2 -17 -5z"/>
<path d="M1343 1953 c15 -2 37 -2 50 0 12 2 0 4 -28 4 -27 0 -38 -2 -22 -4z"/>
<path d="M1458 1953 c6 -2 18 -2 25 0 6 3 1 5 -13 5 -14 0 -19 -2 -12 -5z"/>
<path d="M1553 1953 c15 -2 37 -2 50 0 12 2 0 4 -28 4 -27 0 -38 -2 -22 -4z"/>
<path d="M1630 1935 c0 -24 3 -26 40 -22 29 3 40 0 40 -10 0 -11 5 -10 25 3
14 9 25 12 25 6 0 -6 10 -8 22 -4 14 3 19 2 14 -6 -12 -19 25 -14 40 6 8 10
13 12 14 5 0 -7 7 -10 18 -7 13 5 14 4 3 -4 -9 -7 -10 -12 -2 -16 13 -8 5 -26
-10 -26 -5 0 -9 6 -7 14 2 8 -1 15 -7 15 -5 1 -10 -4 -10 -9 0 -6 -13 -17 -28
-25 -24 -12 -29 -12 -34 0 -3 8 -3 21 0 28 3 8 -4 14 -19 15 -17 1 -22 -2 -18
-13 4 -8 10 -12 16 -9 5 3 4 -3 -3 -14 -9 -15 -15 -17 -25 -8 -9 8 -9 13 0 19
7 5 3 7 -9 5 -14 -3 -19 -10 -17 -23 2 -11 2 -18 0 -15 -2 3 -10 14 -18 24 -8
11 -10 17 -4 13 7 -4 14 0 17 7 4 11 -2 14 -24 14 -19 -1 -25 -4 -18 -9 10 -6
10 -13 1 -31 -12 -23 -12 -23 -6 0 3 12 1 22 -5 22 -6 0 -11 -16 -11 -36 0
-21 4 -33 10 -29 6 3 10 1 10 -4 0 -6 -4 -11 -9 -11 -4 0 -8 -44 -8 -97 0 -54
2 -92 4 -85 3 6 18 12 34 12 18 0 29 -5 28 -12 -1 -7 -1 -20 0 -28 1 -13 2
-13 11 0 6 10 10 11 10 3 0 -7 0 -16 0 -20 0 -3 -13 -7 -29 -7 -25 -1 -28 1
-19 17 5 10 7 21 4 25 -3 3 -6 0 -6 -6 0 -6 -9 -14 -20 -17 -14 -4 -20 -15
-20 -36 0 -24 4 -29 25 -29 l24 0 -24 -26 c-16 -17 -25 -39 -25 -58 0 -21 3
-27 9 -18 7 11 9 11 14 -2 3 -8 2 -18 -3 -21 -15 -9 -12 -27 3 -20 6 4 5 0 -5
-7 -11 -9 -16 -27 -15 -55 2 -36 4 -40 16 -28 12 11 12 17 2 29 -11 13 -10 17
3 22 9 4 20 4 23 0 4 -3 -2 -6 -12 -6 -10 0 -15 -3 -11 -7 4 -5 22 -8 39 -8
27 0 32 -4 35 -26 3 -24 0 -27 -27 -25 -16 1 -33 5 -37 9 -10 9 -34 -12 -34
-30 0 -7 7 -16 15 -19 8 -4 12 -11 9 -16 -4 -7 -9 -6 -14 1 -4 7 -8 -9 -8 -35
-2 -50 15 -85 29 -62 7 11 9 11 9 0 0 -7 -8 -21 -17 -30 -16 -16 -16 -16 -10
1 3 9 2 17 -3 17 -6 0 -10 -10 -10 -23 0 -18 6 -23 31 -25 17 -1 28 2 25 7 -4
5 -2 12 3 15 5 4 12 2 15 -3 9 -14 -20 -33 -46 -29 -17 2 -24 -2 -26 -19 -3
-21 -2 -22 24 -8 25 12 29 12 40 -3 10 -14 16 -15 32 -5 15 9 19 8 19 -2 0 -8
-3 -14 -6 -13 -3 0 -14 0 -23 -1 -22 -1 -24 -21 -3 -21 9 0 12 -6 9 -15 -6
-14 -8 -13 -21 2 -13 15 -14 16 -10 1 5 -14 -4 -17 -30 -9 -2 1 6 10 17 21 22
22 18 49 -5 30 -7 -6 -19 -9 -26 -8 -8 2 -14 -11 -16 -37 -2 -25 0 -35 6 -27
6 11 9 10 15 -3 9 -24 8 -25 -10 -18 -12 4 -15 2 -12 -8 3 -8 12 -13 19 -11 9
1 8 -3 -3 -11 -21 -16 -25 -52 -5 -41 10 6 10 4 0 -7 -13 -14 -17 -51 -7 -62
9 -9 35 4 28 14 -3 5 -2 9 3 8 23 -4 31 3 27 24 -2 12 3 4 10 -18 9 -24 15
-32 15 -20 1 11 6 27 11 35 7 11 8 6 4 -17 -4 -22 -3 -33 5 -33 6 0 11 6 11
13 0 7 3 8 8 2 13 -18 31 -15 42 5 6 11 15 18 21 15 5 -4 9 -1 9 6 0 7 7 4 16
-7 15 -19 16 -19 10 1 -6 20 -6 20 9 1 8 -11 15 -25 15 -30 0 -6 7 -2 15 8 9
12 15 15 15 7 0 -11 3 -11 15 -1 8 7 12 16 9 21 -3 5 0 9 5 9 15 0 13 -9 -8
-45 -10 -16 -26 -31 -37 -32 -14 -2 -13 -1 4 7 13 6 20 15 16 21 -3 6 -9 7
-13 2 -3 -5 -17 -10 -30 -10 -13 -1 -27 -6 -30 -10 -9 -12 -33 -15 -26 -3 3 5
-1 10 -10 10 -10 0 -14 -5 -10 -12 4 -7 0 -5 -7 4 -13 15 -18 15 -42 3 -14 -8
-24 -10 -20 -4 3 6 -5 8 -23 6 -15 -2 -34 0 -40 6 -9 6 -13 6 -13 -2 0 -7 -4
-10 -8 -7 -10 6 -9 -55 1 -71 5 -8 3 -13 -4 -13 -8 0 -7 -5 2 -17 8 -9 9 -14
4 -11 -7 4 -12 -7 -13 -30 -1 -28 1 -32 7 -17 5 11 7 23 4 28 -2 4 1 7 6 7 14
0 14 -4 -2 -43 -16 -38 -20 -97 -6 -97 5 0 9 -5 9 -11 0 -5 -4 -7 -10 -4 -6 3
-10 -4 -10 -17 0 -16 3 -19 9 -10 7 11 10 10 15 -3 9 -24 8 -25 -10 -18 -12 4
-15 2 -12 -8 3 -8 12 -13 19 -11 9 1 8 -3 -3 -11 -21 -16 -25 -52 -5 -41 10 6
10 4 0 -7 -13 -14 -17 -51 -7 -62 9 -9 35 4 28 14 -3 5 -2 9 3 8 23 -4 31 3
27 24 -2 12 3 4 10 -18 9 -24 15 -32 15 -20 1 11 6 27 11 35 7 11 8 6 4 -17
-4 -22 -3 -33 5 -33 6 0 11 6 11 13 0 7 3 8 8 2 13 -18 31 -15 42 5 6 11 15
18 21 15 5 -4 9 -1 9 6 0 7 7 4 16 -7 15 -19 16 -19 10 1 -6 20 -6 20 9 1 8
-11 15 -25 15 -30 0 -6 7 -2 15 8 9 12 15 15 15 7 0 -11 3 -11 15 -1 8 7 12
16 9 21 -3 5 0 9 5 9 15 0 13 -9 -8 -45 -10 -16 -26 -31 -37 -32 -14 -2 -13
-1 4 7 13 6 20 15 16 21 -3 6 -9 7 -13 2 -3 -5 -17 -10 -30 -10 -13 -1 -27 -6
-30 -10 -9 -12 -33 -15 -26 -3 3 5 -1 10 -10 10 -10 0 -14 -5 -10 -13 4 -6 0
-4 -7 5 -13 15 -18 15 -42 3 -14 -8 -24 -10 -20 -4 3 6 -5 8 -23 6 -15 -2 -34
0 -40 6 -9 6 -13 6 -13 -2 0 -7 -4 -10 -8 -7 -10 6 -9 -55 1 -71 5 -8 3 -13
-4 -13 -8 0 -7 -5 2 -17 8 -9 9 -14 4 -11 -7 4 -12 -7 -13 -30 -1 -28 1 -32 7
-17 5 11 7 23 4 28 -2 4 1 7 6 7 14 0 14 -2 -4 -48 -9 -22 -15 -45 -13 -53 2
-11 -14 -15 -67 -20 l-70 -5 94 -2 c79 -2 96 1 107 15 13 17 14 17 8 0 -6 -17
3 -18 123 -16 l130 1 2 126 c1 92 -2 128 -11 134 -10 6 -10 8 0 8 9 0 12 26
12 95 0 91 -5 106 -26 85 -6 -6 -10 -1 -12 15 -1 13 3 27 9 31 7 4 9 -1 4 -15
-5 -16 -3 -20 8 -15 20 7 24 273 4 286 -9 6 -9 8 1 8 9 0 12 26 12 95 0 52 -4
95 -8 95 -4 0 -14 -6 -22 -13 -8 -6 -5 0 8 14 12 14 22 34 22 45 -1 16 -3 15
-15 -7 -14 -25 -56 -59 -72 -59 -4 0 0 5 10 11 9 6 14 15 11 21 -5 7 -2 9 8 6
17 -7 43 28 28 37 -6 3 -10 1 -10 -4 0 -6 -8 -11 -17 -11 -14 0 -15 2 -5 9 11
7 11 9 -2 14 -8 3 -22 -1 -31 -9 -13 -13 -15 -13 -15 -1 0 8 9 17 19 20 11 2
21 13 24 23 3 12 3 11 2 -3 -1 -13 1 -23 4 -24 3 0 14 -2 24 -4 9 -2 17 1 17
6 0 6 5 7 10 4 11 -7 14 43 4 69 -5 12 -10 14 -19 6 -9 -8 -14 -6 -19 5 -3 9
-1 15 7 14 32 -4 35 3 35 84 0 45 -4 90 -9 100 -6 11 -6 17 1 17 12 0 11 178
-2 186 -4 3 -8 2 -7 -3 4 -21 -3 -29 -26 -31 -14 -1 -25 3 -25 8 0 6 5 10 10
10 6 0 10 8 11 18 0 14 2 14 9 -3 8 -19 9 -19 9 2 1 12 6 25 13 29 7 4 8 3 4
-4 -4 -7 -2 -12 4 -12 18 0 8 65 -10 66 -29 2 -31 4 -20 24 6 11 17 20 25 20
8 0 15 5 15 11 0 5 -6 7 -12 3 -9 -6 -9 -3 0 9 14 16 8 42 -7 33 -4 -3 -8 1
-8 9 0 8 7 15 14 15 10 0 13 10 11 33 -2 19 -8 31 -15 30 -17 -4 -16 5 2 23
11 11 15 37 15 88 0 72 -1 74 -25 74 -14 0 -22 -5 -18 -11 3 -5 1 -7 -5 -3 -5
3 -12 3 -15 -1 -2 -5 -2 -2 0 5 2 10 -11 12 -53 11 -40 -2 -53 -6 -50 -15 3
-8 1 -16 -4 -19 -6 -4 -10 4 -10 17 -1 23 -1 23 -17 3 -13 -16 -15 -17 -10 -2
6 15 0 17 -38 15 -29 -1 -42 -5 -38 -12 3 -6 0 -5 -8 2 -21 20 -39 14 -39 -13z
m312 -47 c-15 -15 -24 -6 -16 16 5 12 10 14 17 7 8 -8 8 -14 -1 -23z m-25 16
c-3 -3 -12 -4 -19 -1 -8 3 -5 6 6 6 11 1 17 -2 13 -5z m-2 -44 c-3 -5 -10 -10
-16 -10 -5 0 -9 5 -9 10 0 6 7 10 16 10 8 0 12 -4 9 -10z m-70 -30 c3 -5 1
-10 -4 -10 -6 0 -11 5 -11 10 0 6 2 10 4 10 3 0 8 -4 11 -10z m-85 -28 c-5 -2
-7 -9 -4 -15 8 -21 -31 -17 -44 4 -15 24 -4 25 15 2 13 -17 14 -17 12 2 -2 33
0 36 15 23 8 -7 10 -14 6 -16z m140 24 c0 -3 -4 -8 -10 -11 -5 -3 -10 -1 -10
4 0 6 5 11 10 11 6 0 10 -2 10 -4z m-207 -36 c16 -19 16 -20 -8 -18 -25 2 -36
18 -12 18 8 0 7 4 -3 10 -8 5 -10 10 -5 10 6 0 18 -9 28 -20z m119 2 c3 -9 1
-26 -3 -37 -7 -19 -8 -19 -8 2 -1 16 -6 21 -16 17 -8 -4 -15 -1 -15 5 0 6 3
10 8 10 19 -3 25 2 12 11 -13 8 -13 10 1 10 9 0 19 -8 21 -18z m31 6 c4 -10 8
-9 16 2 8 12 10 11 9 -6 -2 -16 -7 -19 -25 -16 -13 2 -23 11 -23 18 0 17 17
18 23 2z m77 -13 c0 -1 -7 -15 -15 -31 l-14 -28 2 36 c1 24 6 34 14 31 7 -3
13 -6 13 -8z m25 -35 c-3 -5 -12 -10 -18 -10 -7 0 -6 4 3 10 19 12 23 12 15 0z
m-194 -40 c35 -1 66 -1 69 0 16 6 80 4 80 -3 0 -4 5 -5 10 -2 6 3 10 -3 10
-14 0 -12 -7 -21 -16 -21 -8 0 -12 -4 -9 -10 10 -17 -1 -11 -19 9 -17 19 -17
19 6 15 21 -4 21 -3 3 5 -13 5 -25 5 -34 -2 -16 -14 -42 -18 -55 -9 -6 3 -15
7 -21 8 -5 1 -18 5 -29 10 -16 6 -17 3 -12 -17 3 -13 3 -18 0 -11 -3 6 -11 9
-16 6 -7 -4 -8 -2 -4 4 4 7 5 12 1 12 -3 0 -9 -10 -14 -22 l-8 -22 -5 22 c-4
14 -2 20 4 15 7 -4 8 -1 4 6 -5 7 -15 10 -23 7 -8 -3 -19 -3 -24 0 -15 9 0 23
20 19 10 -2 47 -4 82 -5z m114 -60 c-3 -5 -12 -10 -18 -10 -7 0 -6 4 3 10 19
12 23 12 15 0z m-78 -34 c-3 -8 -2 -17 2 -22 5 -5 4 -20 0 -34 l-9 -25 4 27
c2 19 -2 28 -15 31 -12 3 -16 0 -12 -10 4 -11 1 -14 -8 -11 -8 3 -14 16 -15
29 -1 20 4 24 28 26 22 2 28 -1 25 -11z m113 3 c0 -5 -4 -8 -9 -4 -5 3 -12 1
-16 -5 -3 -5 1 -10 10 -10 9 0 13 -5 10 -10 -4 -6 -11 -8 -16 -5 -5 4 -9 1 -9
-5 0 -6 -4 -8 -10 -5 -5 3 -10 17 -10 31 0 19 5 24 25 24 14 0 25 -5 25 -11z
m-72 -21 c7 -7 12 -19 12 -27 0 -13 -2 -13 -9 -2 -5 8 -10 9 -12 2 -2 -5 -9 1
-16 14 -12 28 3 35 25 13z m70 -63 c-3 -3 -9 2 -12 12 -6 14 -5 15 5 6 7 -7
10 -15 7 -18z m-202 -17 c-1 -27 3 -33 20 -33 13 0 20 5 17 12 -3 7 -9 10 -14
7 -5 -3 -9 -1 -9 3 0 5 23 10 50 11 30 1 50 -2 50 -9 0 -5 -4 -7 -10 -4 -5 3
-10 1 -10 -4 0 -6 7 -11 15 -11 8 0 15 7 15 15 0 8 5 15 11 15 6 0 8 -7 5 -16
-3 -9 -6 -19 -6 -24 0 -4 -11 -10 -24 -12 -20 -4 -26 0 -28 16 -3 24 -33 29
-33 6 0 -9 -9 -15 -23 -14 -12 0 -22 -4 -22 -10 0 -6 -5 -3 -11 7 -6 9 -14 15
-20 12 -5 -4 -9 -2 -9 3 0 6 7 13 16 16 9 3 14 12 11 20 -5 12 0 26 9 26 1 0
1 -15 0 -32z m204 -9 c0 -5 -3 -8 -7 -8 -5 1 -15 1 -23 0 -13 -1 -13 -2 0 -11
8 -5 10 -10 4 -10 -30 0 -25 35 6 37 11 1 20 -2 20 -8z m-183 -71 c-3 -8 -6
-5 -6 6 -1 11 2 17 5 13 3 -3 4 -12 1 -19z m177 -10 c-3 -4 -9 -8 -15 -8 -5 0
-9 4 -9 8 0 5 7 9 15 9 8 0 12 -4 9 -9z m-174 -27 c0 -18 -18 -21 -30 -6 -10
13 -9 15 9 15 11 0 21 -4 21 -9z m30 5 c0 -3 -4 -8 -10 -11 -5 -3 -10 -1 -10
4 0 6 5 11 10 11 6 0 10 -2 10 -4z m56 -27 c-1 -22 -4 -25 -18 -18 -10 6 -18
12 -18 15 0 3 5 2 10 -1 6 -3 10 -1 10 4 0 6 -4 11 -10 11 -5 0 -10 4 -10 9 0
6 8 9 18 8 14 -1 19 -9 18 -28z m60 7 c0 -13 -4 -22 -8 -20 -9 6 -6 44 3 44 4
0 6 -11 5 -24z m-149 -41 c-4 -8 -12 -15 -19 -14 -10 0 -10 2 0 6 6 2 12 12
12 21 0 8 3 13 6 9 4 -3 4 -13 1 -22z m148 -5 c7 0 18 -7 25 -15 11 -13 14
-13 26 2 11 14 13 15 9 2 -3 -9 1 -22 9 -29 17 -13 12 -35 -5 -24 -5 3 -17 0
-26 -8 -10 -8 -14 -8 -10 -1 4 6 3 14 -2 18 -6 3 -8 12 -5 20 4 10 -3 18 -20
25 -14 5 -26 15 -25 22 0 10 2 10 6 1 2 -7 10 -13 18 -13z m-109 -35 c-3 -20
-16 -31 -16 -13 0 13 8 28 16 28 1 0 1 -7 0 -15z m87 1 c5 -8 10 -7 16 3 6 9
9 6 9 -13 0 -30 -13 -42 -24 -25 -4 8 -3 9 4 5 7 -4 12 -2 12 3 0 6 -7 11 -15
11 -8 0 -15 -8 -15 -17 0 -15 -2 -16 -10 -3 -8 13 -10 12 -10 -3 0 -10 -5 -15
-10 -12 -6 4 -8 11 -4 16 3 5 0 8 -8 7 -7 -2 -14 6 -16 18 -2 17 2 20 30 21
18 0 36 -5 41 -11z m-73 -66 c0 -5 -5 -10 -11 -10 -5 0 -7 5 -4 10 3 6 8 10
11 10 2 0 4 -4 4 -10z m136 -6 c15 6 16 4 7 -5 -14 -14 -43 -5 -43 13 0 10 3
9 9 -1 6 -9 16 -11 27 -7z m44 6 c0 -5 -2 -10 -4 -10 -3 0 -8 5 -11 10 -3 6
-1 10 4 10 6 0 11 -4 11 -10z m-92 -5 c-10 -10 -49 -14 -43 -4 4 5 16 9 27 9
12 0 19 -2 16 -5z m-63 -15 c-3 -5 -12 -10 -18 -10 -7 0 -6 4 3 10 19 12 23
12 15 0z m-97 -12 c10 -10 17 -10 35 1 20 13 21 13 8 -2 -7 -10 -19 -17 -27
-17 -7 0 -15 -8 -17 -17 -2 -10 -3 -8 -2 5 1 12 -5 27 -14 32 -9 5 -11 10 -5
10 5 0 16 -6 22 -12z m168 3 c-3 -4 3 -16 14 -26 11 -10 20 -23 20 -29 0 -6
-7 0 -16 12 -8 12 -20 19 -26 16 -6 -4 -8 -2 -4 4 3 6 2 13 -4 17 -5 3 -10 -2
-10 -11 0 -10 -3 -15 -6 -11 -11 11 5 37 21 37 9 0 14 -4 11 -9z m79 -9 c-3
-3 -11 0 -18 7 -9 10 -8 11 6 5 10 -3 15 -9 12 -12z m-271 -10 c3 -5 -1 -9 -9
-9 -8 0 -12 4 -9 9 3 4 7 8 9 8 2 0 6 -4 9 -8z m146 4 c0 -2 -7 -6 -15 -10 -8
-3 -15 -1 -15 4 0 6 7 10 15 10 8 0 15 -2 15 -4z m-135 -70 c15 -17 57 -16 51
1 -3 8 -2 11 3 8 6 -3 9 -13 8 -23 -2 -27 -67 -25 -67 1 0 14 -5 18 -20 14
-13 -3 -20 0 -20 9 0 15 28 9 45 -10z m192 8 c-3 -3 -12 -4 -19 -1 -8 3 -5 6
6 6 11 1 17 -2 13 -5z m-76 -32 c-14 -2 -18 -8 -14 -20 6 -14 5 -15 -8 -2 -20
18 -20 40 -1 32 10 -4 13 -1 8 7 -6 9 -3 9 13 -1 21 -13 21 -13 2 -16z m97 1
c-5 -11 -57 -13 -63 -2 -4 5 2 6 11 2 12 -4 15 -3 10 5 -4 7 -1 12 9 12 9 0
14 -5 10 -12 -3 -7 0 -5 7 5 12 15 24 8 16 -10z m-152 -48 c1 -8 -4 -15 -12
-15 -9 0 -13 -4 -9 -9 3 -5 1 -12 -4 -15 -13 -8 -8 19 7 36 6 8 10 18 7 21 -3
4 -2 5 2 2 4 -3 8 -12 9 -20z m198 -2 c4 -10 4 -14 0 -10 -4 4 -14 1 -22 -6
-13 -11 -14 -9 -1 11 17 26 15 26 23 5z m-132 -8 c10 10 28 -23 22 -39 -5 -12
-15 -16 -37 -13 -32 3 -51 27 -23 27 9 0 16 -4 16 -10 0 -5 8 -10 18 -10 15 0
15 2 2 11 -12 9 -12 10 3 5 12 -4 17 -2 15 6 -3 7 -10 13 -15 13 -6 0 -14 3
-18 7 -4 4 -14 4 -23 1 -14 -4 -15 -3 -2 5 9 7 19 7 26 2 6 -6 13 -8 16 -5z
m43 5 c3 -5 1 -10 -4 -10 -6 0 -11 5 -11 10 0 6 2 10 4 10 3 0 8 -4 11 -10z
m-47 -88 c-9 -2 -18 -9 -20 -17 -2 -11 -5 -11 -16 1 -11 12 -10 14 3 14 9 0
14 4 11 9 -4 5 4 6 16 3 18 -5 19 -7 6 -10z m67 -2 c3 -5 -1 -10 -10 -10 -9 0
-13 5 -10 10 3 6 8 10 10 10 2 0 7 -4 10 -10z m-155 -45 c0 -7 -30 -13 -34 -7
-3 4 4 9 15 9 10 1 19 0 19 -2z m30 1 c0 -3 -4 -8 -10 -11 -5 -3 -10 -1 -10 4
0 6 5 11 10 11 6 0 10 -2 10 -4z m103 -9 c7 3 9 3 5 -2 -4 -4 -2 -15 4 -24 10
-13 10 -14 -2 -4 -9 8 -17 9 -25 3 -9 -8 -11 -3 -7 17 3 16 7 22 10 15 2 -6 9
-9 15 -5z m87 -4 c0 -10 -4 -14 -8 -8 -4 6 -11 13 -16 18 -5 4 -2 7 7 7 10 0
17 -8 17 -17z m-140 -30 c0 -7 0 -15 0 -18 0 -8 -15 -6 -15 3 0 4 -3 12 -7 18
-4 6 -1 11 7 11 8 0 15 -6 15 -14z m-97 -13 c3 -11 1 -20 -4 -20 -5 0 -9 9 -9
20 0 11 2 20 4 20 2 0 6 -9 9 -20z m37 -7 c0 -21 -3 -24 -9 -14 -5 8 -7 20 -4
28 8 21 13 15 13 -14z m204 2 c-8 -21 -28 -24 -49 -9 -10 8 -14 14 -8 14 7 0
15 -5 18 -10 5 -8 11 -7 21 1 7 6 11 16 7 22 -3 6 -1 7 5 3 6 -4 9 -13 6 -21z
m-97 -7 c-3 -8 -6 -5 -6 6 -1 11 2 17 5 13 3 -3 4 -12 1 -19z m48 -18 c3 -5 1
-10 -4 -10 -6 0 -11 5 -11 10 0 6 2 10 4 10 3 0 8 -4 11 -10z m-242 -35 c-3
-9 -8 -14 -10 -11 -3 3 -2 9 2 15 9 16 15 13 8 -4z m137 0 c0 -8 -2 -15 -4
-15 -2 0 -6 7 -10 15 -3 8 -1 15 4 15 6 0 10 -7 10 -15z m-71 -140 c12 -14 12
-17 1 -8 -8 6 -18 12 -22 12 -5 1 -8 3 -8 6 0 3 1 15 1 28 1 20 2 20 6 2 3
-11 12 -29 22 -40z m181 9 c0 -8 5 -12 10 -9 18 11 10 -2 -12 -21 -13 -10 -18
-12 -11 -5 8 9 9 21 2 38 -6 16 -5 22 1 18 6 -3 10 -13 10 -21z m-110 -3 c-7
-14 -7 -22 1 -27 7 -4 7 -10 1 -16 -5 -5 -7 -18 -5 -29 5 -18 15 -23 40 -20 6
1 14 -3 18 -9 4 -6 -1 -7 -12 -3 -16 6 -17 5 -3 -13 14 -18 14 -18 -4 -4 -11
8 -21 14 -23 13 -1 -2 -11 -3 -20 -2 -10 0 -13 3 -7 5 15 6 6 44 -10 44 -6 0
-3 5 7 11 10 6 14 15 10 22 -11 17 -10 31 2 39 16 12 17 10 5 -11z m40 -6 c0
-8 -4 -15 -10 -15 -5 0 -7 7 -4 15 4 8 8 15 10 15 2 0 4 -7 4 -15z m-137 -30
c4 -8 3 -16 -1 -19 -4 -3 -9 4 -9 15 -2 23 3 25 10 4z m54 -17 c-3 -7 -5 -2
-5 12 0 14 2 19 5 13 2 -7 2 -19 0 -25z m110 0 c-3 -8 -6 -5 -6 6 -1 11 2 17
5 13 3 -3 4 -12 1 -19z m93 16 c0 -8 -19 -13 -24 -6 -3 5 1 9 9 9 8 0 15 -2
15 -3z m-40 -28 c0 -2 -7 -6 -15 -10 -8 -3 -15 -1 -15 4 0 6 7 10 15 10 8 0
15 -2 15 -4z m-200 -26 c0 -4 -7 -11 -16 -14 -13 -5 -14 -4 -6 7 7 8 8 18 4
22 -4 5 -1 5 6 1 6 -4 12 -11 12 -16z m17 -19 c0 -11 -5 -18 -9 -15 -4 3 -5
11 -1 19 7 21 12 19 10 -4z m194 2 c-1 -4 -7 -8 -13 -8 -7 0 -13 -7 -13 -15 0
-8 -8 -15 -18 -16 -12 -1 -13 -1 -2 3 8 2 13 8 10 13 -3 5 2 16 11 25 16 16
27 15 25 -2z m-241 -39 c0 -2 -7 -4 -15 -4 -8 0 -15 4 -15 10 0 5 7 7 15 4 8
-4 15 -8 15 -10z m21 -16 c-4 -13 -6 -28 -4 -35 5 -13 -22 -12 -34 2 -4 4 -3
5 4 2 6 -4 15 5 22 23 5 17 12 30 15 30 3 0 2 -10 -3 -22z m92 -38 c-7 -28
-13 -25 -13 6 0 14 4 23 9 20 5 -3 7 -15 4 -26z m-23 5 c0 -2 -13 -5 -30 -7
-22 -3 -27 -2 -19 8 8 10 49 9 49 -1z m85 3 c3 -3 -8 -8 -24 -10 -23 -3 -28
-2 -20 8 10 12 33 13 44 2z m44 -14 c-6 -8 -17 -14 -23 -14 -6 0 -3 5 7 11 9
6 14 15 11 21 -4 7 -2 8 5 4 9 -6 9 -11 0 -22z m-179 -29 c0 -7 -30 -13 -34
-7 -3 4 4 9 15 9 10 1 19 0 19 -2z m30 1 c0 -3 -4 -8 -10 -11 -5 -3 -10 -1
-10 4 0 6 5 11 10 11 6 0 10 -2 10 -4z m103 -9 c7 3 9 3 5 -2 -4 -4 -2 -15 4
-24 10 -13 10 -14 -2 -4 -9 8 -17 9 -25 3 -9 -8 -11 -3 -7 17 3 16 7 22 10 15
2 -6 9 -9 15 -5z m87 -4 c0 -10 -4 -14 -8 -8 -4 6 -11 13 -16 18 -5 4 -2 7 7
7 10 0 17 -8 17 -17z m-140 -30 c0 -7 0 -15 0 -18 0 -8 -15 -6 -15 3 0 4 -3
12 -7 18 -4 6 -1 11 7 11 8 0 15 -6 15 -14z m-97 -13 c3 -11 1 -20 -4 -20 -5
0 -9 9 -9 20 0 11 2 20 4 20 2 0 6 -9 9 -20z m37 -7 c0 -21 -3 -24 -9 -14 -5
8 -7 20 -4 28 8 21 13 15 13 -14z m204 2 c-8 -21 -28 -24 -49 -9 -10 8 -14 14
-8 14 7 0 15 -5 18 -10 5 -8 11 -7 21 1 7 6 11 16 7 22 -3 6 -1 7 5 3 6 -4 9
-13 6 -21z m-97 -7 c-3 -8 -6 -5 -6 6 -1 11 2 17 5 13 3 -3 4 -12 1 -19z m48
-18 c3 -5 1 -10 -4 -10 -6 0 -11 5 -11 10 0 6 2 10 4 10 3 0 8 -4 11 -10z
m-242 -35 c-3 -9 -8 -14 -10 -11 -3 3 -2 9 2 15 9 16 15 13 8 -4z m137 0 c0
-8 -2 -15 -4 -15 -2 0 -6 7 -10 15 -3 8 -1 15 4 15 6 0 10 -7 10 -15z m-71
-140 c12 -14 12 -17 1 -8 -8 6 -18 12 -22 12 -5 1 -8 3 -8 6 0 3 1 15 1 28 1
20 2 20 6 2 3 -11 12 -29 22 -40z m181 9 c0 -8 5 -12 10 -9 18 11 10 -2 -12
-21 -13 -10 -18 -12 -11 -5 8 9 9 21 2 38 -6 16 -5 22 1 18 6 -3 10 -13 10
-21z m-110 -3 c-7 -14 -7 -22 1 -27 7 -4 7 -10 1 -16 -5 -5 -7 -18 -5 -29 5
-18 15 -23 40 -20 6 1 14 -3 18 -9 4 -6 -1 -7 -12 -3 -16 6 -17 5 -3 -13 14
-18 14 -18 -4 -4 -11 8 -21 14 -23 13 -1 -2 -11 -3 -20 -2 -10 0 -13 3 -7 5
15 6 6 44 -10 44 -6 0 -3 5 7 11 10 6 14 15 10 22 -11 17 -10 31 2 39 16 12
17 10 5 -11z m40 -6 c0 -8 -4 -15 -10 -15 -5 0 -7 7 -4 15 4 8 8 15 10 15 2 0
4 -7 4 -15z m-137 -30 c4 -8 3 -16 -1 -19 -4 -3 -9 4 -9 15 -2 23 3 25 10 4z
m54 -17 c-3 -7 -5 -2 -5 12 0 14 2 19 5 13 2 -7 2 -19 0 -25z m110 0 c-3 -8
-6 -5 -6 6 -1 11 2 17 5 13 3 -3 4 -12 1 -19z m93 16 c0 -8 -19 -13 -24 -6 -3
5 1 9 9 9 8 0 15 -2 15 -3z m-40 -28 c0 -2 -7 -6 -15 -10 -8 -3 -15 -1 -15 4
0 6 7 10 15 10 8 0 15 -2 15 -4z m-200 -26 c0 -4 -7 -11 -16 -14 -13 -5 -14
-4 -6 7 7 8 8 18 4 22 -4 5 -1 5 6 1 6 -4 12 -11 12 -16z m17 -19 c0 -11 -5
-18 -9 -15 -4 3 -5 11 -1 19 7 21 12 19 10 -4z m194 2 c-1 -4 -7 -8 -13 -8 -7
0 -13 -7 -13 -15 0 -8 -8 -15 -18 -16 -12 -1 -13 -1 -2 3 8 2 13 8 10 13 -3 5
2 16 11 25 16 16 27 15 25 -2z m-241 -39 c0 -2 -7 -4 -15 -4 -8 0 -15 4 -15
10 0 5 7 7 15 4 8 -4 15 -8 15 -10z"/>
<path d="M1910 1306 c0 -2 8 -10 18 -17 15 -13 16 -12 3 4 -13 16 -21 21 -21
13z"/>
<path d="M341 1173 l0 -768 20 25 c19 25 20 44 22 743 l2 717 595 0 595 0 0
-910 0 -910 -595 0 -595 0 -3 164 c-2 158 -3 164 -22 159 -19 -5 -20 -14 -20
-189 l0 -184 640 0 640 0 2 683 c0 375 0 706 -1 735 -2 33 1 52 8 52 6 0 11 5
11 11 0 5 -4 7 -10 4 -6 -4 -10 13 -10 45 0 38 3 49 13 44 10 -6 10 -4 0 7 -9
9 -13 59 -13 176 l0 163 -640 0 -640 0 1 -767z"/>
<path d="M1408 1873 c-10 -2 -34 -28 -55 -56 -21 -29 -41 -56 -45 -62 -74 -94
-138 -188 -133 -194 9 -8 35 23 119 137 138 188 124 178 118 87 -4 -64 -10
-85 -36 -125 -30 -46 -40 -52 -303 -181 -150 -73 -273 -136 -272 -139 0 -5
483 -322 500 -328 5 -2 9 20 9 50 0 29 7 156 16 282 l16 230 43 55 c41 55 42
59 50 154 4 53 3 96 -2 96 -4 -1 -16 -3 -25 -6z m-98 -346 c0 -41 -19 -335
-25 -392 -2 -22 -4 -48 -4 -57 -1 -13 -23 -3 -96 45 -53 34 -104 67 -113 72
-76 44 -211 140 -205 146 10 9 425 217 436 218 4 1 7 -14 7 -32z"/>
<path d="M1780 1870 c0 -12 8 -12 35 0 18 8 17 9 -7 9 -16 1 -28 -3 -28 -9z"/>
<path d="M41 1704 c0 -11 3 -14 6 -6 3 7 2 16 -1 19 -3 4 -6 -2 -5 -13z"/>
<path d="M1690 1290 c0 -5 7 -7 15 -4 8 4 15 8 15 10 0 2 -7 4 -15 4 -8 0 -15
-4 -15 -10z"/>
<path d="M1665 1280 c3 -5 8 -10 11 -10 2 0 4 5 4 10 0 6 -5 10 -11 10 -5 0
-7 -4 -4 -10z"/>
<path d="M883 1181 c-15 -22 -35 -49 -43 -61 -52 -76 -255 -346 -262 -348 -4
-2 -8 -8 -8 -13 0 -6 -5 -15 -10 -22 -58 -69 -150 -203 -150 -220 0 -11 2 -18
3 -16 2 2 118 159 257 349 139 190 257 351 263 358 7 8 5 12 -6 12 -8 0 -28
-18 -44 -39z"/>
<path d="M985 1143 c-19 -29 -263 -360 -280 -379 -5 -6 -17 -22 -25 -34 -8
-12 -46 -63 -83 -114 -37 -50 -76 -101 -85 -114 -9 -13 -25 -33 -34 -44 -9
-11 -19 -25 -20 -30 -2 -6 -16 -11 -31 -12 -40 -1 -33 -21 7 -21 34 0 41 9
314 376 153 207 282 381 286 388 4 7 0 11 -12 11 -11 0 -28 -12 -37 -27z"/>
<path d="M260 1009 c0 -5 5 -7 10 -4 6 3 10 8 10 11 0 2 -4 4 -10 4 -5 0 -10
-5 -10 -11z"/>
<path d="M1830 776 c0 -9 8 -16 20 -16 11 0 20 5 20 12 0 6 -3 8 -7 5 -3 -4
-12 -2 -20 4 -10 9 -13 8 -13 -5z"/>
<path d="M995 623 c-50 -86 -91 -160 -93 -164 -2 -5 80 -9 182 -9 102 0 186 2
186 4 0 3 -177 316 -182 321 -2 2 -44 -67 -93 -152z m155 -18 c34 -60 64 -113
67 -117 2 -5 -57 -8 -132 -8 l-137 0 25 43 c45 76 88 152 99 175 6 12 12 21
14 20 1 -2 30 -52 64 -113z"/>
<path d="M1677 773 c-12 -12 -7 -22 8 -17 8 4 15 10 15 15 0 11 -14 12 -23 2z"/>
<path d="M80 544 c0 -8 5 -12 10 -9 6 4 8 11 5 16 -9 14 -15 11 -15 -7z"/>
<path d="M1043 319 c-18 -5 -37 -18 -43 -29 -10 -19 -7 -20 117 -20 l128 1
-45 23 c-55 29 -114 38 -157 25z m65 -26 c-10 -2 -26 -2 -35 0 -10 3 -2 5 17
5 19 0 27 -2 18 -5z"/>
<path d="M1830 286 c0 -9 8 -16 20 -16 11 0 20 5 20 12 0 6 -3 8 -7 5 -3 -4
-12 -2 -20 4 -10 9 -13 8 -13 -5z"/>
<path d="M1677 283 c-12 -12 -7 -22 8 -17 8 4 15 10 15 15 0 11 -14 12 -23 2z"/>
<path d="M80 54 c0 -8 5 -12 10 -9 6 4 8 11 5 16 -9 14 -15 11 -15 -7z"/>
<path d="M363 3 c15 -2 37 -2 50 0 12 2 0 4 -28 4 -27 0 -38 -2 -22 -4z"/>
<path d="M473 3 c15 -2 39 -2 55 0 15 2 2 4 -28 4 -30 0 -43 -2 -27 -4z"/>
<path d="M578 3 c12 -2 32 -2 45 0 12 2 2 4 -23 4 -25 0 -35 -2 -22 -4z"/>
<path d="M673 3 c15 -2 37 -2 50 0 12 2 0 4 -28 4 -27 0 -38 -2 -22 -4z"/>
<path d="M798 3 c29 -2 74 -2 100 0 26 2 2 3 -53 3 -55 0 -76 -1 -47 -3z"/>
<path d="M1013 3 c37 -2 96 -2 130 0 34 2 4 3 -68 3 -71 0 -99 -1 -62 -3z"/>
<path d="M1268 3 c34 -2 88 -2 120 0 31 2 3 3 -63 3 -66 0 -92 -1 -57 -3z"/>
<path d="M1458 3 c6 -2 18 -2 25 0 6 3 1 5 -13 5 -14 0 -19 -2 -12 -5z"/>
</g>
</svg>
