<?xml version="1.0" standalone="no"?>
<!DOCTYPE svg PUBLIC "-//W3C//DTD SVG 20010904//EN"
 "http://www.w3.org/TR/2001/REC-SVG-20010904/DTD/svg10.dtd">
<svg version="1.0" xmlns="http://www.w3.org/2000/svg"
 width="192.000000pt" height="192.000000pt" viewBox="0 0 192.000000 192.000000"
 preserveAspectRatio="xMidYMid meet">
<metadata>
Created by potrace 1.16, written by Peter Selinger 2001-2019
</metadata>
<g transform="translate(0.000000,192.000000) scale(0.100000,-0.100000)"
fill="#000000" stroke="none">
<path d="M1050 1584 c0 -26 -16 -39 -106 -92 -126 -73 -167 -136 -145 -220 13
-48 38 -74 101 -107 25 -13 41 -25 35 -25 -5 -1 -37 -2 -70 -3 l-60 -2 -3 -57
c-3 -59 -9 -67 -30 -46 -9 9 -12 7 -12 -8 0 -17 -12 -25 -61 -39 -48 -15 -62
-16 -68 -6 -6 10 -10 9 -14 -4 -5 -13 -11 -14 -27 -5 -21 11 -29 -3 -9 -16 8
-5 4 -13 -12 -26 l-24 -20 27 6 c16 4 29 1 32 -7 5 -9 7 -9 12 1 3 6 15 12 25
12 11 0 17 4 14 10 -8 13 61 41 108 45 l37 2 0 -108 0 -109 -27 -6 c-17 -5
-28 -3 -31 5 -3 9 -7 9 -18 0 -12 -10 -18 -8 -29 7 -14 18 -14 18 -15 -4 0
-15 -9 -26 -27 -33 -48 -18 -73 -49 -73 -89 0 -20 -5 -41 -11 -47 -8 -8 -5
-13 10 -18 12 -3 21 -11 21 -16 0 -5 6 -9 13 -7 19 4 127 -45 127 -59 0 -7 12
-11 28 -10 26 2 27 0 28 -47 0 -28 6 -52 12 -54 35 -11 298 -59 305 -55 5 3 7
45 6 94 -1 49 2 88 7 86 5 -1 7 -10 6 -19 -2 -10 2 -18 7 -18 6 0 11 7 11 16
0 11 6 13 19 9 14 -4 18 -1 17 11 -1 17 78 48 102 39 6 -2 12 0 12 6 0 6 9 8
20 4 12 -4 20 -2 20 6 0 6 8 18 18 25 16 12 15 13 -5 14 -12 0 -25 5 -29 11
-4 8 -9 7 -14 -2 -7 -10 -11 -10 -24 0 -14 12 -16 10 -16 -12 0 -21 -8 -28
-47 -41 -45 -15 -49 -15 -60 1 -12 16 -13 16 -13 0 0 -9 -7 -17 -15 -17 -12 0
-15 19 -15 113 0 118 6 143 26 106 l12 -22 12 22 c11 22 12 22 32 4 20 -18 21
-18 14 3 -6 19 -2 23 30 29 43 8 94 54 94 84 0 13 7 21 18 21 16 1 16 1 0 11
-10 5 -18 20 -18 31 0 16 -3 19 -11 11 -7 -7 -26 -1 -64 21 -43 25 -53 35 -48
51 4 16 3 18 -8 8 -17 -17 -29 -16 -29 2 0 8 -4 15 -9 15 -5 0 -11 -7 -15 -15
-3 -8 -12 -15 -20 -15 -11 0 -16 15 -18 58 l-3 57 -67 3 c-67 3 -68 3 -68 31
0 32 13 51 93 133 93 94 98 175 16 262 -33 35 -39 38 -39 20z m31 -76 c3 -47
-4 -66 -62 -168 -39 -70 -59 -116 -59 -138 0 -44 -25 -40 -57 7 -47 69 -25
131 81 227 42 37 76 74 76 81 0 23 20 14 21 -9z m35 -80 c-3 -19 -20 -49 -36
-68 l-30 -35 30 55 c16 30 30 64 30 74 0 11 3 17 6 13 4 -3 4 -21 0 -39z
m-205 -14 c-43 -49 -66 -109 -59 -156 6 -36 2 -35 -17 2 -19 37 -19 54 1 97
14 28 94 103 111 103 3 0 -14 -21 -36 -46z m-51 -313 l-25 -7 -5 -344 -5 -345
-3 353 -2 352 33 -1 c29 -1 30 -2 7 -8z m229 -13 c-1 -16 -3 -18 -6 -6 -2 9
-16 19 -31 21 -24 4 -24 4 6 6 27 1 32 -2 31 -21z m-31 -160 l3 -148 -51 0
c-40 0 -50 3 -50 17 0 15 -1 15 -13 -2 -10 -12 -16 -14 -21 -7 -11 18 -27 14
-24 -5 2 -13 -4 -18 -19 -18 -13 0 -23 3 -23 8 0 4 0 75 0 157 l0 151 98 -3
97 -3 3 -147z m82 52 c0 -17 5 -19 25 -14 15 4 25 2 25 -5 0 -17 18 -13 22 5
2 13 9 12 38 -8 29 -20 35 -30 33 -57 -1 -24 3 -31 13 -27 23 9 16 -22 -8 -38
-37 -24 -79 -31 -89 -15 -7 11 -11 11 -17 1 -5 -7 -16 -10 -25 -6 -12 4 -17 1
-17 -10 0 -9 -4 -16 -10 -16 -6 0 -10 42 -10 105 0 63 4 105 10 105 6 0 10 -9
10 -20z m-80 -404 c0 -102 -3 -187 -7 -189 -5 -2 -50 5 -101 17 l-93 21 0 160
c0 137 2 160 15 163 11 2 16 -4 16 -17 0 -25 15 -28 24 -5 4 11 13 14 27 11
12 -3 22 0 26 9 3 9 20 14 49 14 l44 0 0 -184z m-262 56 c3 -105 -5 -123 -34
-84 -13 16 -13 16 -14 0 0 -22 1 -22 -54 2 -25 10 -46 24 -46 30 0 14 -25 40
-39 40 -16 0 -13 22 5 48 24 35 66 52 109 45 26 -4 36 -3 31 5 -6 11 12 22 29
18 6 -2 11 -47 13 -104z m289 -274 c-3 -7 -5 -2 -5 12 0 14 2 19 5 13 2 -7 2
-19 0 -25z"/>
</g>
</svg>
