<?xml version="1.0" standalone="no"?>
<!DOCTYPE svg PUBLIC "-//W3C//DTD SVG 20010904//EN"
 "http://www.w3.org/TR/2001/REC-SVG-20010904/DTD/svg10.dtd">
<svg version="1.0" xmlns="http://www.w3.org/2000/svg"
 width="180.000000pt" height="180.000000pt" viewBox="0 0 180.000000 180.000000"
 preserveAspectRatio="xMidYMid meet">
<metadata>
Created by potrace 1.16, written by Peter Selinger 2001-2019
</metadata>
<g transform="translate(0.000000,180.000000) scale(0.100000,-0.100000)"
fill="#000000" stroke="none">
<path d="M985 1477 c-6 -12 -23 -30 -40 -40 -140 -86 -161 -103 -183 -149 -39
-79 -9 -154 77 -193 23 -10 39 -21 36 -24 -4 -3 -32 -6 -63 -6 l-57 0 -3 -53
c-3 -47 -5 -52 -23 -47 -13 4 -19 2 -19 -9 0 -21 -108 -55 -119 -37 -6 10 -10
9 -15 -4 -5 -15 -9 -15 -23 -4 -14 12 -15 11 -9 -9 5 -16 3 -24 -8 -28 -9 -3
-16 -11 -16 -16 0 -6 7 -7 16 -4 9 4 23 1 30 -5 11 -9 14 -8 14 5 0 13 5 16
20 11 14 -5 18 -3 15 8 -6 15 59 41 108 42 l27 1 0 -102 c0 -96 -1 -102 -22
-107 -12 -4 -27 -2 -33 3 -7 6 -16 5 -23 -2 -8 -8 -13 -7 -18 5 -8 23 -27 22
-20 0 4 -13 -5 -23 -33 -36 -41 -19 -57 -42 -65 -100 -3 -28 -1 -37 10 -37 8
0 14 -7 14 -16 0 -10 6 -14 15 -10 19 7 128 -41 120 -54 -3 -5 7 -8 22 -7 26
2 28 -1 33 -47 l5 -49 140 -28 c77 -15 143 -28 148 -28 4 -1 7 41 8 92 1 59 4
83 9 67 6 -21 8 -22 14 -8 4 9 14 14 22 11 8 -3 14 1 14 10 0 19 91 52 100 36
5 -7 10 -4 14 7 5 13 10 14 18 6 8 -8 15 -5 25 15 16 32 16 34 -1 27 -8 -3
-17 0 -21 6 -5 8 -10 8 -20 0 -10 -8 -15 -8 -21 2 -6 9 -10 5 -14 -12 -7 -31
-85 -64 -99 -42 -7 11 -9 10 -14 -2 -4 -9 -11 -16 -17 -16 -6 0 -10 43 -10
115 0 108 9 143 24 93 l7 -23 11 23 c12 24 23 28 33 12 3 -5 11 -10 17 -10 7
0 7 5 -1 14 -9 11 -5 15 23 20 43 8 86 41 86 66 0 11 8 24 18 30 12 8 13 13 5
16 -7 3 -13 12 -13 21 0 8 -6 13 -12 10 -7 -2 -25 4 -39 14 -15 10 -38 23 -53
28 -16 7 -24 16 -20 25 4 11 0 13 -15 9 -14 -3 -21 -1 -21 8 -1 9 -6 7 -15 -5
-21 -28 -33 -11 -37 49 l-3 50 -62 3 c-63 3 -63 3 -63 33 0 24 14 45 64 97 77
82 86 97 86 160 0 38 -6 58 -29 90 -38 52 -45 55 -56 29z m31 -95 c-3 -19 -29
-73 -57 -120 -35 -56 -53 -98 -57 -128 -2 -24 -8 -44 -12 -44 -14 0 -51 48
-59 78 -15 51 3 94 66 153 31 30 68 66 82 80 32 33 45 27 37 -19z m9 -87 c-34
-60 -42 -58 -10 2 14 27 26 55 26 63 1 11 3 10 6 -3 2 -10 -7 -38 -22 -62z
m-175 29 c-38 -44 -50 -73 -50 -127 l-1 -42 -15 29 c-24 44 -11 87 41 135 55
51 68 53 25 5z m-57 -292 c-10 -6 -13 -88 -16 -333 l-2 -324 -3 333 c-2 310
-1 332 16 332 12 0 13 -3 5 -8z m227 -2 c0 -5 -7 -7 -15 -4 -8 4 -15 8 -15 10
0 2 7 4 15 4 8 0 15 -4 15 -10z m-30 -160 l0 -140 -45 0 c-36 0 -45 3 -45 18
-1 16 -1 16 -11 -1 -8 -14 -14 -16 -25 -6 -11 9 -14 8 -14 -4 0 -14 -20 -27
-41 -27 -10 0 -13 283 -2 293 3 4 46 7 95 7 l88 0 0 -140z m80 44 c0 -11 6
-13 19 -9 13 4 23 0 30 -12 10 -17 10 -17 11 0 0 21 12 22 50 2 24 -13 29 -21
26 -45 -2 -20 1 -30 10 -30 24 0 15 -20 -18 -40 -37 -22 -78 -26 -78 -7 0 9
-2 9 -8 -1 -5 -7 -16 -10 -25 -6 -12 4 -17 1 -17 -10 0 -9 -4 -16 -10 -16 -6
0 -10 40 -10 101 0 64 4 98 10 94 6 -3 10 -13 10 -21z m-83 -550 c-2 -2 -44 4
-93 14 l-89 18 -3 152 c-2 129 0 152 12 152 8 0 19 -7 24 -16 7 -13 10 -13 21
-1 6 8 21 13 31 10 11 -3 20 -1 20 5 0 6 17 12 38 14 l37 3 3 -174 c1 -96 1
-175 -1 -177z m-237 232 c0 -88 -12 -129 -26 -92 -3 9 -10 16 -16 16 -5 0 -6
-4 -3 -10 9 -14 -9 -12 -55 6 -22 9 -40 21 -40 26 0 13 -26 38 -39 38 -13 0
-13 2 -1 34 9 25 82 71 94 59 12 -13 46 -10 46 4 0 7 9 13 20 13 19 0 20 -7
20 -94z"/>
</g>
</svg>
