<?xml version="1.0" standalone="no"?>
<!DOCTYPE svg PUBLIC "-//W3C//DTD SVG 20010904//EN"
 "http://www.w3.org/TR/2001/REC-SVG-20010904/DTD/svg10.dtd">
<svg version="1.0" xmlns="http://www.w3.org/2000/svg"
 width="100.000000pt" height="100.000000pt" viewBox="0 0 100.000000 100.000000"
 preserveAspectRatio="xMidYMid meet">
<metadata>
Created by potrace 1.16, written by Peter Selinger 2001-2019
</metadata>
<g transform="translate(0.000000,100.000000) scale(0.100000,-0.100000)"
fill="#000000" stroke="none">
<path d="M562 980 c0 -14 2 -19 5 -12 2 6 2 18 0 25 -3 6 -5 1 -5 -13z"/>
<path d="M413 943 c15 -2 37 -2 50 0 12 2 0 4 -28 4 -27 0 -38 -2 -22 -4z"/>
<path d="M648 943 c7 -3 16 -2 19 1 4 3 -2 6 -13 5 -11 0 -14 -3 -6 -6z"/>
<path d="M500 905 c0 -32 -2 -35 -30 -35 -27 0 -30 -3 -30 -30 0 -28 -3 -30
-35 -30 l-35 0 0 -60 0 -60 35 0 c32 0 35 -2 35 -30 0 -28 -3 -30 -35 -30
l-35 0 0 -250 0 -250 125 0 125 0 0 125 0 125 35 0 c32 0 35 2 35 30 0 27 3
30 30 30 l30 0 0 60 0 60 -61 0 c-37 0 -58 -4 -54 -10 3 -5 13 -10 21 -10 24
0 16 -17 -11 -22 -24 -5 -25 -4 -25 53 0 59 0 59 -30 59 l-30 0 0 60 0 60 30
0 30 0 0 95 0 95 -60 0 -60 0 0 -35z m60 0 c0 -8 5 -15 10 -15 6 0 10 7 10 15
0 8 5 15 10 15 6 0 10 -11 10 -25 0 -18 -5 -25 -20 -25 -18 0 -20 -7 -20 -60
l0 -60 -30 0 c-30 0 -30 0 -30 56 0 51 2 55 20 49 11 -4 20 -2 20 4 0 6 -4 11
-10 11 -5 0 -10 11 -10 25 0 18 5 25 20 25 11 0 20 -7 20 -15z m-80 -65 c0 -5
-4 -10 -10 -10 -5 0 -10 5 -10 10 0 6 5 10 10 10 6 0 10 -4 10 -10z m120 -10
c0 -11 -4 -20 -10 -20 -5 0 -10 9 -10 20 0 11 5 20 10 20 6 0 10 -9 10 -20z
m-110 -30 c0 -5 -10 -18 -22 -30 l-22 -20 27 0 c20 0 27 -5 27 -20 0 -11 5
-20 10 -20 6 0 10 5 10 10 0 6 5 10 10 10 14 0 12 -37 -2 -44 -10 -5 -10 -7 0
-12 6 -3 12 -14 12 -25 0 -10 5 -19 10 -19 6 0 10 -13 10 -29 0 -24 -3 -28
-20 -24 -11 3 -20 12 -20 19 0 8 -4 14 -10 14 -5 0 -10 -7 -10 -15 0 -9 -9
-15 -25 -15 -14 0 -25 -4 -25 -10 0 -5 25 -10 55 -10 l55 0 0 -185 0 -185 -60
0 -60 0 0 119 c0 114 1 119 20 114 23 -6 27 -23 5 -23 -8 0 -15 -4 -15 -10 0
-5 20 -10 45 -10 26 0 45 5 45 11 0 6 -9 9 -20 6 -15 -4 -20 0 -20 13 0 13 5
17 20 13 11 -3 20 0 20 6 0 7 -20 11 -50 11 l-50 0 0 95 0 95 30 0 c27 0 30 3
30 30 0 27 -3 30 -30 30 l-30 0 0 60 c0 57 1 60 25 60 14 0 25 -4 25 -10z
m-70 -20 c0 -5 -7 -10 -15 -10 -8 0 -15 5 -15 10 0 6 7 10 15 10 8 0 15 -4 15
-10z m180 0 c0 -5 -4 -10 -10 -10 -5 0 -10 5 -10 10 0 6 5 10 10 10 6 0 10 -4
10 -10z m-177 -50 c-3 -11 -12 -20 -19 -20 -8 0 -14 9 -14 20 0 13 7 20 19 20
14 0 18 -5 14 -20z m57 -70 c0 -5 -4 -10 -10 -10 -5 0 -10 5 -10 10 0 6 5 10
10 10 6 0 10 -4 10 -10z m-60 -75 c0 -16 -6 -25 -15 -25 -9 0 -15 9 -15 25 0
16 6 25 15 25 9 0 15 -9 15 -25z m180 5 c0 -11 -4 -20 -10 -20 -5 0 -10 9 -10
20 0 11 5 20 10 20 6 0 10 -9 10 -20z m0 -50 c0 -11 -4 -20 -10 -20 -5 0 -10
9 -10 20 0 11 5 20 10 20 6 0 10 -9 10 -20z m-180 -5 c0 -8 -7 -15 -15 -15 -8
0 -15 7 -15 15 0 8 7 15 15 15 8 0 15 -7 15 -15z m313 -16 c4 -15 0 -19 -19
-19 -19 0 -24 5 -24 24 0 19 4 23 19 19 11 -3 21 -13 24 -24z m-313 -49 c0
-20 -5 -30 -15 -30 -10 0 -15 10 -15 30 0 20 5 30 15 30 10 0 15 -10 15 -30z
m180 0 c0 -16 -4 -30 -10 -30 -5 0 -10 14 -10 30 0 17 5 30 10 30 6 0 10 -13
10 -30z m90 0 c0 -28 -3 -30 -35 -30 -32 0 -35 2 -35 30 0 28 3 30 35 30 32 0
35 -2 35 -30z m40 0 c0 -5 -4 -10 -10 -10 -5 0 -10 5 -10 10 0 6 5 10 10 10 6
0 10 -4 10 -10z m-60 -60 c0 -4 -11 -10 -25 -12 -19 -4 -25 -1 -25 12 0 13 6
16 25 12 14 -2 25 -8 25 -12z m-250 -5 c0 -8 -7 -15 -15 -15 -8 0 -15 7 -15
15 0 8 7 15 15 15 8 0 15 -7 15 -15z m180 5 c0 -5 -4 -10 -10 -10 -5 0 -10 5
-10 10 0 6 5 10 10 10 6 0 10 -4 10 -10z m-180 -95 c0 -51 -3 -65 -15 -65 -12
0 -15 14 -15 65 0 51 3 65 15 65 12 0 15 -14 15 -65z m180 30 c0 -19 -4 -35
-10 -35 -5 0 -10 16 -10 35 0 19 5 35 10 35 6 0 10 -16 10 -35z m0 -75 c0 -11
-4 -20 -10 -20 -5 0 -10 9 -10 20 0 11 5 20 10 20 6 0 10 -9 10 -20z m-180
-50 c0 -5 -7 -10 -15 -10 -8 0 -15 5 -15 10 0 6 7 10 15 10 8 0 15 -4 15 -10z
m180 0 c0 -5 -4 -10 -10 -10 -5 0 -10 5 -10 10 0 6 5 10 10 10 6 0 10 -4 10
-10z m-160 -50 c0 -14 -7 -20 -24 -20 -15 0 -26 7 -29 20 -4 17 0 20 24 20 22
0 29 -5 29 -20z m160 0 c0 -11 -4 -20 -10 -20 -5 0 -10 9 -10 20 0 11 5 20 10
20 6 0 10 -9 10 -20z m-120 -10 c0 -5 -4 -10 -10 -10 -5 0 -10 5 -10 10 0 6 5
10 10 10 6 0 10 -4 10 -10z m80 0 c0 -5 -13 -10 -30 -10 -16 0 -30 5 -30 10 0
6 14 10 30 10 17 0 30 -4 30 -10z"/>
<path d="M515 820 c-3 -5 3 -10 15 -10 12 0 18 5 15 10 -3 6 -10 10 -15 10 -5
0 -12 -4 -15 -10z"/>
<path d="M470 490 c19 -13 30 -13 30 0 0 6 -10 10 -22 10 -19 0 -20 -2 -8 -10z"/>
<path d="M518 493 c7 -3 16 -2 19 1 4 3 -2 6 -13 5 -11 0 -14 -3 -6 -6z"/>
<path d="M480 345 c0 -8 -4 -15 -10 -15 -5 0 -10 -4 -10 -10 0 -5 9 -10 20
-10 15 0 20 7 20 25 0 14 -4 25 -10 25 -5 0 -10 -7 -10 -15z"/>
<path d="M520 320 c0 -5 5 -10 10 -10 6 0 10 5 10 10 0 6 -4 10 -10 10 -5 0
-10 -4 -10 -10z"/>
<path d="M468 258 c-10 -5 -8 -8 5 -8 14 0 17 -5 12 -20 -4 -11 -2 -20 4 -20
6 0 11 9 11 20 0 13 7 20 20 20 11 0 20 4 20 8 0 11 -55 11 -72 0z"/>
<path d="M692 915 c0 -16 2 -22 5 -12 2 9 2 23 0 30 -3 6 -5 -1 -5 -18z"/>
<path d="M361 904 c0 -11 3 -14 6 -6 3 7 2 16 -1 19 -3 4 -6 -2 -5 -13z"/>
<path d="M728 873 c30 -6 32 -59 2 -66 -17 -4 -16 -4 2 -3 19 1 23 7 23 36 0
30 -3 35 -25 37 -22 1 -22 1 -2 -4z"/>
<path d="M370 850 c0 -11 5 -20 10 -20 6 0 10 5 10 10 0 6 7 10 15 10 8 0 15
5 15 10 0 6 -11 10 -25 10 -18 0 -25 -5 -25 -20z"/>
<path d="M640 860 c0 -5 7 -10 15 -10 8 0 15 -4 15 -10 0 -5 -7 -10 -15 -10
-8 0 -15 -4 -15 -10 0 -5 11 -10 25 -10 21 0 25 5 25 30 0 25 -4 30 -25 30
-14 0 -25 -4 -25 -10z"/>
<path d="M302 773 c-2 -81 -3 -83 -27 -83 -21 0 -25 -5 -25 -30 0 -27 3 -30
30 -30 26 0 30 -4 31 -27 0 -16 3 -21 6 -13 3 8 12 21 21 28 14 11 13 12 -6
12 -20 0 -21 5 -25 113 -2 97 -3 101 -5 30z m-12 -108 c0 -8 -7 -15 -15 -15
-16 0 -20 12 -8 23 11 12 23 8 23 -8z"/>
<path d="M692 760 c0 -19 2 -27 5 -17 2 9 2 25 0 35 -3 9 -5 1 -5 -18z"/>
<path d="M648 743 c7 -3 16 -2 19 1 4 3 -2 6 -13 5 -11 0 -14 -3 -6 -6z"/>
<path d="M605 710 c5 -14 2 -20 -9 -20 -20 0 -20 -7 -2 -26 22 -21 26 -17 26
26 0 22 -5 40 -11 40 -6 0 -8 -9 -4 -20z"/>
<path d="M692 680 c0 -19 2 -27 5 -17 2 9 2 25 0 35 -3 9 -5 1 -5 -18z"/>
<path d="M648 693 c7 -3 16 -2 19 1 4 3 -2 6 -13 5 -11 0 -14 -3 -6 -6z"/>
<path d="M370 660 c0 -19 3 -21 12 -12 9 9 9 15 0 24 -9 9 -12 7 -12 -12z"/>
<path d="M718 633 c6 -2 18 -2 25 0 6 3 1 5 -13 5 -14 0 -19 -2 -12 -5z"/>
<path d="M640 620 c0 -5 7 -10 15 -10 8 0 15 -7 15 -15 0 -8 5 -15 10 -15 6 0
10 11 10 25 0 20 -5 25 -25 25 -14 0 -25 -4 -25 -10z"/>
<path d="M752 600 c0 -14 2 -19 5 -12 2 6 2 18 0 25 -3 6 -5 1 -5 -13z"/>
<path d="M241 594 c0 -11 3 -14 6 -6 3 7 2 16 -1 19 -3 4 -6 -2 -5 -13z"/>
<path d="M190 500 c0 -53 2 -60 20 -60 11 0 20 5 20 10 0 6 -4 10 -10 10 -5 0
-10 18 -10 40 0 22 5 40 10 40 6 0 10 5 10 10 0 6 -9 10 -20 10 -18 0 -20 -7
-20 -60z"/>
<path d="M250 530 c0 -30 0 -30 56 -30 37 0 53 4 48 11 -3 6 -15 9 -25 6 -12
-3 -19 0 -19 9 0 8 9 14 20 14 11 0 20 5 20 10 0 6 -22 10 -50 10 -49 0 -50
-1 -50 -30z m40 0 c0 -5 -4 -10 -10 -10 -5 0 -10 5 -10 10 0 6 5 10 10 10 6 0
10 -4 10 -10z"/>
<path d="M770 555 c0 -3 9 -15 20 -27 l20 -22 0 27 c0 20 -5 27 -20 27 -11 0
-20 -2 -20 -5z"/>
<path d="M770 491 c0 -5 6 -11 13 -14 8 -3 6 -10 -8 -21 -20 -15 -19 -15 8
-16 23 0 27 4 27 30 0 23 -4 30 -20 30 -11 0 -20 -4 -20 -9z"/>
<path d="M871 473 c-1 -24 -6 -33 -23 -36 l-23 -4 23 -2 c25 -1 36 16 29 51
-3 18 -5 16 -6 -9z"/>
<path d="M250 468 c0 -24 4 -28 30 -28 27 0 30 -3 30 -30 0 -27 -3 -30 -30
-30 l-30 0 0 -65 0 -65 30 0 c27 0 30 -3 30 -30 0 -26 4 -30 28 -30 26 1 27 1
7 16 -14 11 -16 18 -7 21 19 7 14 23 -8 23 -18 0 -20 7 -20 65 0 58 2 65 20
65 22 0 27 16 8 23 -9 3 -7 10 7 21 20 15 19 15 -7 16 -24 0 -28 4 -28 28 -1
26 -1 26 -15 8 -15 -20 -15 -20 -30 0 -14 18 -14 18 -15 -8z m42 -133 c4 -19
1 -25 -12 -25 -13 0 -16 6 -12 25 2 14 8 25 12 25 4 0 10 -11 12 -25z m-2 -55
c0 -5 -4 -10 -10 -10 -5 0 -10 5 -10 10 0 6 5 10 10 10 6 0 10 -4 10 -10z"/>
<path d="M250 416 c0 -9 5 -16 10 -16 6 0 10 4 10 9 0 6 -4 13 -10 16 -5 3
-10 -1 -10 -9z"/>
<path d="M723 405 c-18 -20 -16 -25 7 -25 13 0 20 7 20 20 0 23 -10 25 -27 5z"/>
<path d="M190 315 c0 -58 2 -65 20 -65 11 0 20 5 20 10 0 6 -4 10 -10 10 -5 0
-10 20 -10 45 0 25 5 45 10 45 6 0 10 5 10 10 0 6 -9 10 -20 10 -18 0 -20 -7
-20 -65z"/>
<path d="M751 344 c0 -11 3 -14 6 -6 3 7 2 16 -1 19 -3 4 -6 -2 -5 -13z"/>
<path d="M330 320 c0 -5 5 -10 10 -10 6 0 10 5 10 10 0 6 -4 10 -10 10 -5 0
-10 -4 -10 -10z"/>
<path d="M838 313 c7 -3 16 -2 19 1 4 3 -2 6 -13 5 -11 0 -14 -3 -6 -6z"/>
<path d="M123 278 c1 -26 7 -33 25 -34 17 -1 18 -1 3 3 -12 3 -22 15 -25 34
-6 28 -6 27 -3 -3z"/>
<path d="M640 299 c0 -7 10 -9 25 -5 22 6 25 3 25 -19 0 -20 -5 -25 -25 -25
-14 0 -25 -4 -25 -10 0 -5 7 -10 15 -10 8 0 15 -4 15 -10 0 -5 -7 -10 -15 -10
-8 0 -15 -4 -15 -10 0 -5 11 -10 25 -10 21 0 25 5 25 30 0 27 3 30 30 30 27 0
30 3 30 30 0 30 -1 30 -55 30 -34 0 -55 -4 -55 -11z m90 -19 c0 -5 -4 -10 -10
-10 -5 0 -10 5 -10 10 0 6 5 10 10 10 6 0 10 -4 10 -10z"/>
<path d="M770 301 c0 -5 6 -12 13 -15 10 -5 10 -7 0 -12 -20 -9 -15 -24 7 -24
16 0 20 7 20 30 0 23 -4 30 -20 30 -11 0 -20 -4 -20 -9z"/>
<path d="M872 280 c0 -19 2 -27 5 -17 2 9 2 25 0 35 -3 9 -5 1 -5 -18z"/>
<path d="M838 243 c7 -3 16 -2 19 1 4 3 -2 6 -13 5 -11 0 -14 -3 -6 -6z"/>
<path d="M250 210 c0 -14 6 -20 23 -19 12 0 16 3 10 6 -7 2 -13 11 -13 19 0 8
-4 14 -10 14 -5 0 -10 -9 -10 -20z"/>
<path d="M740 220 c0 -5 -7 -10 -15 -10 -8 0 -15 -4 -15 -10 0 -5 9 -10 20
-10 13 0 20 7 20 20 0 11 -2 20 -5 20 -3 0 -5 -4 -5 -10z"/>
<path d="M301 154 c0 -11 3 -14 6 -6 3 7 2 16 -1 19 -3 4 -6 -2 -5 -13z"/>
<path d="M692 140 c0 -19 2 -27 5 -17 2 9 2 25 0 35 -3 9 -5 1 -5 -18z"/>
<path d="M318 123 c6 -2 18 -2 25 0 6 3 1 5 -13 5 -14 0 -19 -2 -12 -5z"/>
<path d="M648 123 c7 -3 16 -2 19 1 4 3 -2 6 -13 5 -11 0 -14 -3 -6 -6z"/>
<path d="M603 100 c-6 -23 -43 -27 -43 -5 0 8 -4 15 -10 15 -5 0 -10 -7 -10
-15 0 -8 -4 -15 -10 -15 -5 0 -10 7 -10 15 0 8 -4 15 -10 15 -5 0 -10 -11 -10
-25 0 -24 3 -25 60 -25 l60 0 0 30 c0 34 -9 40 -17 10z"/>
<path d="M361 94 c0 -11 3 -14 6 -6 3 7 2 16 -1 19 -3 4 -6 -2 -5 -13z"/>
<path d="M440 85 c0 -18 5 -25 20 -25 11 0 20 5 20 10 0 6 -4 10 -10 10 -5 0
-10 7 -10 15 0 8 -4 15 -10 15 -5 0 -10 -11 -10 -25z"/>
<path d="M398 53 c7 -3 16 -2 19 1 4 3 -2 6 -13 5 -11 0 -14 -3 -6 -6z"/>
<path d="M432 20 c0 -14 2 -19 5 -12 2 6 2 18 0 25 -3 6 -5 1 -5 -13z"/>
<path d="M622 20 c0 -14 2 -19 5 -12 2 6 2 18 0 25 -3 6 -5 1 -5 -13z"/>
</g>
</svg>
