<?xml version="1.0" standalone="no"?>
<!DOCTYPE svg PUBLIC "-//W3C//DTD SVG 20010904//EN"
 "http://www.w3.org/TR/2001/REC-SVG-20010904/DTD/svg10.dtd">
<svg version="1.0" xmlns="http://www.w3.org/2000/svg"
 width="160.000000pt" height="160.000000pt" viewBox="0 0 160.000000 160.000000"
 preserveAspectRatio="xMidYMid meet">
<metadata>
Created by potrace 1.16, written by Peter Selinger 2001-2019
</metadata>
<g transform="translate(0.000000,160.000000) scale(0.100000,-0.100000)"
fill="#000000" stroke="none">
<path d="M900 1470 c0 -21 -36 -47 -128 -94 -62 -31 -127 -88 -148 -127 -18
-36 -18 -102 1 -138 19 -38 66 -77 110 -91 55 -18 41 -29 -42 -32 l-78 -3 -3
-57 c-3 -59 -9 -67 -30 -46 -9 9 -12 7 -12 -9 0 -17 -12 -25 -66 -43 -55 -19
-68 -20 -75 -9 -8 12 -10 12 -18 0 -5 -8 -16 -11 -30 -6 -23 7 -28 -4 -10 -22
8 -8 5 -14 -10 -22 -27 -15 -27 -31 -1 -24 11 3 27 0 35 -7 12 -10 15 -9 15 5
0 13 6 16 26 11 21 -6 25 -4 20 11 -5 15 6 22 57 40 35 12 66 18 71 13 5 -5
14 -6 20 -4 8 3 10 -30 8 -116 -2 -93 -6 -120 -17 -120 -7 0 -20 -3 -29 -6
-11 -4 -16 -1 -16 10 0 9 -4 16 -10 16 -5 0 -10 -4 -10 -10 0 -5 -7 -10 -15
-10 -8 0 -15 5 -15 10 0 6 -6 10 -14 10 -9 0 -12 -7 -9 -18 3 -13 -8 -23 -41
-39 -56 -27 -81 -63 -73 -103 4 -16 2 -32 -3 -35 -6 -4 -8 -11 -4 -16 3 -5 10
-7 15 -3 6 3 13 -3 16 -15 5 -21 23 -30 23 -12 0 5 32 -5 70 -22 39 -17 70
-37 70 -44 0 -9 9 -11 29 -7 l30 6 3 -58 3 -59 165 -32 c91 -18 171 -32 178
-33 9 0 12 27 12 105 0 63 4 105 10 105 6 0 10 -11 10 -25 0 -14 5 -25 10 -25
6 0 10 7 10 16 0 11 6 14 21 9 16 -5 20 -3 17 11 -4 22 110 64 122 44 6 -9 10
-8 18 6 8 15 13 16 26 5 14 -11 16 -11 16 4 0 10 8 24 18 31 16 12 15 13 -7
14 -13 0 -30 8 -37 18 -13 16 -13 16 -14 0 0 -20 -15 -24 -25 -8 -12 19 -25
10 -20 -13 6 -21 0 -25 -50 -42 -49 -17 -57 -18 -66 -5 -8 13 -11 13 -20 -3
-22 -38 -29 -13 -29 113 0 87 4 130 11 130 6 0 13 -10 16 -21 6 -21 6 -21 24
2 14 19 20 22 30 11 7 -6 20 -12 28 -12 12 0 12 3 3 12 -19 19 -14 25 27 32
42 6 101 49 101 71 0 8 10 23 22 35 18 17 19 20 5 20 -11 0 -17 8 -17 25 0 25
-15 35 -22 14 -2 -7 -19 -1 -43 15 -21 15 -49 29 -63 33 -20 5 -22 10 -17 32
5 21 4 24 -6 14 -19 -18 -39 -16 -39 5 0 14 -3 14 -18 -5 -25 -33 -40 -16 -44
47 l-3 55 -75 5 c-62 4 -75 8 -78 23 -7 38 9 65 79 133 103 100 127 161 93
242 -15 36 -70 102 -86 102 -4 0 -8 -9 -8 -20z m40 -98 c0 -26 -29 -88 -72
-150 -42 -61 -81 -150 -74 -168 9 -24 -3 -35 -25 -23 -31 16 -59 70 -59 113 0
56 35 109 117 177 40 33 78 70 84 81 9 17 13 18 20 7 5 -8 9 -24 9 -37z m37
-59 c-5 -47 -41 -102 -87 -132 -23 -15 -22 -13 6 29 49 70 64 106 64 147 1 32
2 35 11 19 6 -10 9 -38 6 -63z m-194 12 c-79 -71 -108 -128 -100 -198 l6 -52
-24 29 c-46 57 -40 111 20 171 33 33 131 99 155 104 3 0 -23 -24 -57 -54z m99
-355 l68 0 0 -415 c0 -458 5 -426 -60 -405 -24 8 -24 8 7 9 31 1 32 3 38 54 4
30 3 206 -2 393 l-8 339 -133 3 -132 3 2 -379 c2 -300 0 -378 -9 -375 -15 6
-15 5 -13 371 1 257 0 272 -17 272 -17 1 -17 1 0 11 13 8 17 23 17 64 l0 55
75 0 c52 0 75 4 75 12 0 9 3 9 12 0 7 -7 40 -12 80 -12z m26 -201 l2 -156 -47
-7 c-39 -5 -50 -3 -61 11 -11 16 -14 16 -22 3 -7 -12 -12 -12 -22 -2 -17 17
-29 15 -26 -5 2 -13 -5 -19 -24 -21 l-28 -3 0 164 c0 90 3 167 7 171 4 3 54 5
112 4 l106 -3 3 -156z m94 47 c-3 -14 1 -16 18 -11 14 4 28 1 41 -11 18 -16
19 -16 19 4 0 28 9 28 51 -1 20 -14 33 -30 31 -40 -2 -9 3 -17 10 -17 9 0 9
-3 0 -12 -18 -18 -15 -27 8 -21 45 12 11 -32 -43 -55 -36 -15 -64 -15 -71 1
-5 9 -7 9 -12 0 -3 -8 -15 -11 -30 -7 -17 4 -24 2 -22 -6 2 -7 -2 -14 -9 -17
-8 -3 -13 26 -15 107 -3 94 -1 110 12 107 8 -1 14 -11 12 -21z m-92 -431 c0
-169 -2 -205 -14 -205 -12 0 -118 19 -193 36 -23 4 -23 6 -23 179 0 168 1 175
20 175 13 0 20 -7 20 -20 0 -26 12 -25 28 1 8 13 19 18 29 15 8 -4 21 -2 27 3
6 5 27 11 46 14 19 2 41 5 48 5 9 2 12 -45 12 -203z m-299 65 c-2 -111 -11
-137 -32 -99 -13 24 -13 24 -18 3 l-6 -21 -58 25 c-39 17 -56 29 -53 38 3 8
-1 14 -10 14 -11 0 -14 6 -10 16 4 12 1 14 -14 9 -22 -7 -25 2 -10 39 9 25
110 86 110 68 0 -5 13 -9 29 -10 23 0 28 3 24 14 -4 12 1 15 22 12 l28 -3 -2
-105z"/>
</g>
</svg>
