<?xml version="1.0" standalone="no"?>
<!DOCTYPE svg PUBLIC "-//W3C//DTD SVG 20010904//EN"
 "http://www.w3.org/TR/2001/REC-SVG-20010904/DTD/svg10.dtd">
<svg version="1.0" xmlns="http://www.w3.org/2000/svg"
 width="180.000000pt" height="180.000000pt" viewBox="0 0 180.000000 180.000000"
 preserveAspectRatio="xMidYMid meet">
<metadata>
Created by potrace 1.16, written by Peter Selinger 2001-2019
</metadata>
<g transform="translate(0.000000,180.000000) scale(0.100000,-0.100000)"
fill="#000000" stroke="none">
<path d="M125 1668 c-3 -7 -4 -359 -3 -783 l3 -770 780 0 780 0 0 780 0 780
-778 3 c-617 2 -779 0 -782 -10z m1555 -773 l0 -775 -775 0 -775 0 0 775 0
775 775 0 775 0 0 -775z"/>
<path d="M1003 1553 c0 -20 -26 -41 -130 -104 -99 -60 -134 -102 -141 -168 -7
-72 24 -124 93 -158 30 -15 55 -31 55 -35 0 -4 -33 -8 -72 -10 l-73 -3 -3 -56
c-3 -51 -5 -56 -22 -52 -14 4 -20 0 -20 -10 0 -21 -121 -62 -132 -44 -6 9 -10
9 -17 -2 -5 -8 -16 -11 -26 -7 -13 5 -16 2 -11 -11 5 -11 -1 -24 -16 -36 l-23
-19 24 6 c14 3 31 0 38 -6 9 -7 14 -6 19 5 3 9 13 13 25 10 14 -4 18 -1 14 10
-5 11 9 20 57 36 40 14 64 18 66 11 3 -7 8 -7 15 -1 9 7 12 -21 12 -109 0
-119 0 -119 -25 -124 -14 -2 -29 -1 -34 4 -5 5 -15 6 -22 3 -8 -3 -21 0 -29 7
-12 10 -15 9 -15 -8 0 -12 -11 -24 -30 -32 -46 -19 -83 -68 -78 -102 3 -16 1
-31 -4 -34 -13 -8 -9 -24 6 -24 8 0 17 -7 20 -16 4 -9 13 -14 22 -10 17 7 134
-49 134 -64 0 -6 11 -8 25 -4 17 4 25 2 26 -7 0 -8 1 -34 2 -59 l2 -45 160
-33 c88 -18 166 -30 173 -27 11 4 13 27 10 100 -1 52 0 95 5 95 4 0 7 -10 7
-22 1 -20 2 -21 13 -8 7 9 20 14 29 12 12 -2 16 1 13 11 -7 16 101 61 111 45
3 -5 11 -4 19 2 8 7 19 9 25 5 5 -3 10 1 10 10 0 8 7 18 15 21 21 8 19 24 -3
24 -10 0 -23 5 -30 12 -9 9 -12 8 -12 -5 0 -20 -15 -23 -26 -5 -6 9 -10 5 -14
-12 -4 -18 -18 -29 -55 -43 -47 -17 -50 -17 -62 -1 -12 16 -13 16 -13 1 0 -9
-7 -17 -15 -17 -13 0 -15 21 -15 125 0 117 9 155 26 103 l6 -21 18 23 c16 22
20 22 36 10 16 -13 17 -13 11 2 -5 14 2 20 32 28 52 14 88 44 96 80 4 19 13
30 23 30 16 1 15 2 0 14 -10 7 -18 21 -18 32 0 13 -3 15 -11 7 -9 -9 -20 -6
-43 12 -17 13 -43 28 -58 34 -21 8 -25 15 -21 33 5 19 3 21 -8 11 -18 -17 -29
-16 -29 2 0 8 -4 15 -9 15 -5 0 -11 -7 -15 -15 -3 -8 -14 -15 -25 -15 -17 0
-19 5 -14 34 3 19 3 46 -1 60 -6 24 -10 26 -70 26 -39 0 -68 5 -74 13 -19 23
14 87 82 156 70 72 86 101 86 162 0 45 -9 67 -52 122 -32 40 -45 46 -45 20z
m32 -116 c-4 -18 -32 -76 -63 -131 -30 -54 -60 -121 -67 -148 l-11 -49 -27 21
c-38 30 -54 88 -38 143 10 32 35 63 104 132 96 94 116 100 102 32z m-142 -25
c-70 -63 -93 -106 -93 -176 0 -55 -1 -59 -16 -45 -24 25 -33 82 -19 115 14 33
61 79 120 118 55 36 58 32 8 -12z m176 -38 c-6 -20 -29 -55 -51 -78 -31 -31
-37 -35 -24 -13 42 70 66 122 67 146 0 25 1 25 9 4 5 -13 5 -36 -1 -59z m-21
-721 c2 -319 0 -403 -10 -403 -10 0 -12 82 -10 394 l2 395 -56 7 c-66 8 -182
0 -195 -13 -6 -6 -8 -157 -7 -371 2 -198 -1 -357 -5 -353 -7 7 -9 183 -7 698
l0 52 73 3 c39 2 104 1 142 -2 l70 -5 3 -402z m-43 207 l0 -155 -47 -3 c-39
-3 -48 0 -48 14 0 13 -3 14 -15 4 -8 -6 -23 -9 -34 -5 -16 5 -19 3 -15 -8 5
-15 -32 -31 -48 -21 -9 6 -11 294 -2 319 5 13 22 15 108 13 l101 -3 0 -155z
m95 54 c0 -9 7 -14 18 -12 11 2 26 -3 35 -11 15 -12 17 -11 17 3 0 20 4 20 46
0 33 -16 40 -30 36 -78 -2 -12 3 -16 13 -12 25 9 17 -22 -9 -39 -33 -22 -96
-32 -96 -15 0 10 -3 10 -15 0 -8 -7 -22 -10 -30 -6 -9 3 -15 0 -15 -10 0 -9
-5 -14 -11 -12 -16 5 -18 208 -1 208 6 0 12 -7 12 -16z m-90 -428 c0 -106 -2
-195 -5 -198 -3 -3 -50 4 -105 15 -85 17 -101 23 -106 41 -2 12 -3 88 -2 171
3 129 5 150 19 153 10 2 19 -6 23 -20 6 -21 7 -22 20 -5 7 9 22 17 33 17 10 0
23 4 29 9 9 10 73 19 87 13 4 -2 7 -90 7 -196z m-280 65 c0 -102 -11 -146 -26
-107 -3 9 -10 16 -16 16 -5 0 -6 -4 -3 -10 10 -16 -12 -12 -66 11 -27 12 -49
27 -49 33 0 6 -11 19 -24 30 -27 20 -25 37 6 73 25 27 77 50 86 37 11 -14 54
-13 48 2 -4 11 8 18 37 23 4 0 7 -48 7 -108z"/>
</g>
</svg>
