<?xml version="1.0" standalone="no"?>
<!DOCTYPE svg PUBLIC "-//W3C//DTD SVG 20010904//EN"
 "http://www.w3.org/TR/2001/REC-SVG-20010904/DTD/svg10.dtd">
<svg version="1.0" xmlns="http://www.w3.org/2000/svg"
 width="192.000000pt" height="192.000000pt" viewBox="0 0 192.000000 192.000000"
 preserveAspectRatio="xMidYMid meet">
<metadata>
Created by potrace 1.16, written by Peter Selinger 2001-2019
</metadata>
<g transform="translate(0.000000,192.000000) scale(0.100000,-0.100000)"
fill="#000000" stroke="none">
<path d="M630 1896 c-154 -55 -266 -125 -373 -233 -150 -152 -258 -361 -257
-497 1 -51 1 -50 24 39 59 226 205 429 403 561 91 61 170 97 288 130 l80 23
-50 0 c-28 0 -78 -9 -115 -23z"/>
<path d="M1212 1895 c227 -64 424 -207 553 -400 64 -96 98 -171 131 -285 l24
-85 -4 66 c-7 132 -116 336 -253 472 -136 137 -340 246 -472 253 l-66 4 87
-25z"/>
<path d="M1030 1563 c0 -16 -58 -63 -77 -63 -19 0 -127 -83 -140 -108 -20 -37
-20 -110 0 -148 11 -21 31 -38 62 -50 64 -27 60 -46 -10 -43 -30 1 -58 -1 -62
-5 -4 -3 -6 -27 -4 -52 2 -43 2 -45 -18 -34 -18 9 -21 8 -21 -8 0 -24 -109
-60 -122 -40 -6 10 -8 10 -8 -1 0 -9 -8 -11 -24 -7 -20 5 -23 3 -19 -13 3 -10
0 -22 -6 -25 -20 -12 -12 -21 19 -21 17 0 30 3 30 8 0 4 6 7 14 7 8 0 16 4 18
8 6 16 96 51 117 45 20 -5 21 -12 21 -104 0 -94 -1 -100 -22 -108 -17 -7 -26
-5 -35 7 -8 9 -13 11 -13 4 0 -18 -21 -15 -37 6 -13 16 -14 15 -8 -5 5 -18 0
-25 -27 -36 -46 -20 -64 -45 -71 -94 -4 -33 -2 -43 9 -43 8 0 14 -7 14 -15 0
-9 6 -15 13 -13 21 4 117 -35 117 -48 0 -8 11 -12 28 -11 26 2 27 0 28 -43 0
-36 4 -46 20 -49 10 -2 21 -6 24 -10 4 -5 193 -41 239 -45 12 -1 14 15 12 86
-2 58 1 88 8 88 6 0 11 -10 12 -22 0 -13 3 -17 6 -10 2 6 11 12 19 12 8 0 14
7 14 15 0 8 14 17 35 21 19 3 37 9 39 13 3 4 21 6 40 6 23 -1 36 3 36 11 0 7
8 18 18 23 15 10 15 10 -4 11 -11 0 -25 5 -32 12 -9 9 -12 9 -12 -1 0 -8 -7
-10 -22 -6 -17 6 -20 4 -15 -9 5 -13 -2 -21 -28 -32 -42 -17 -72 -18 -78 -1
-3 7 -6 4 -6 -6 -1 -10 -7 -17 -13 -15 -9 3 -14 36 -16 108 -3 105 8 147 27
99 8 -21 10 -22 16 -6 8 18 35 24 35 7 0 -5 4 -10 9 -10 5 0 7 9 4 20 -4 16 0
20 18 20 39 0 85 34 92 68 4 17 14 32 24 35 17 4 17 5 1 6 -10 0 -18 8 -18 17
0 10 -6 14 -14 11 -8 -3 -20 1 -28 10 -7 9 -28 22 -45 30 -23 9 -33 20 -33 35
0 21 -1 21 -13 3 -13 -17 -14 -17 -21 6 l-7 24 -11 -22 c-6 -13 -15 -23 -19
-23 -12 0 -22 46 -16 75 6 33 -6 39 -64 36 -89 -5 -84 56 12 152 90 90 100
167 33 247 -29 34 -44 38 -44 13z m30 -79 c0 -32 -23 -92 -40 -104 -14 -11
-70 -125 -76 -156 -7 -39 -10 -40 -44 -14 -22 17 -25 26 -25 80 l1 60 68 65
c37 36 72 65 77 65 5 0 11 11 15 25 9 35 24 21 24 -21z m30 -47 c0 -22 -9 -43
-27 -63 -16 -17 -23 -23 -17 -15 17 26 34 71 34 91 0 11 2 20 5 20 3 0 5 -15
5 -33z m-200 -32 c-29 -30 -34 -43 -38 -95 -4 -53 -6 -58 -18 -43 -30 40 -14
99 40 145 45 39 56 34 16 -7z m67 -271 c-3 -3 -12 -4 -19 -1 -8 3 -5 6 6 6 11
1 17 -2 13 -5z m-99 -11 l-28 -4 -1 -322 c-1 -177 -4 -302 -8 -277 -3 25 -5
172 -3 328 l3 282 32 -1 c30 -2 30 -2 5 -6z m212 -343 c0 -192 -3 -350 -7
-350 -5 0 -8 154 -8 342 l0 343 -30 6 c-29 6 -29 7 8 8 l37 1 0 -350z m-30
184 l0 -136 -74 4 c-63 4 -75 2 -85 -14 -25 -40 -31 -16 -31 132 l0 150 95 0
95 0 0 -136z m76 52 c3 -8 12 -12 20 -9 7 3 17 -2 20 -11 6 -15 8 -15 19 1 13
17 15 17 42 -3 20 -16 28 -30 28 -53 0 -21 4 -30 12 -26 21 8 14 -19 -10 -36
-12 -9 -34 -19 -49 -23 -23 -5 -28 -3 -28 11 -1 17 -1 17 -11 1 -5 -10 -16
-15 -24 -12 -8 4 -15 1 -15 -5 0 -6 -7 -11 -15 -11 -12 0 -15 17 -15 95 0 59
4 95 10 95 6 0 13 -6 16 -14z m-76 -381 c0 -96 -3 -175 -6 -175 -3 0 -46 7
-95 16 l-89 17 0 148 c0 126 2 149 15 149 8 0 15 -7 15 -17 0 -15 2 -15 18 0
9 8 37 20 62 25 87 19 80 33 80 -163z m-242 52 c2 -80 0 -97 -12 -97 -8 0 -20
8 -25 18 -10 16 -10 16 -11 0 0 -15 -4 -15 -50 4 -27 11 -50 26 -50 33 0 7
-10 19 -21 27 -20 13 -21 16 -8 44 14 28 79 69 89 55 7 -10 51 -11 45 -1 -6 9
14 20 30 16 6 -2 11 -46 13 -99z"/>
<path d="M4 730 c8 -133 117 -337 253 -473 139 -139 341 -246 478 -254 l70 -4
-90 25 c-229 61 -429 205 -561 403 -60 90 -96 168 -131 288 l-23 80 4 -65z"/>
<path d="M1901 733 c-34 -156 -136 -335 -258 -456 -126 -124 -264 -205 -431
-252 l-87 -25 66 4 c132 7 336 116 472 253 134 133 244 337 255 470 2 35 3 63
0 63 -3 0 -10 -26 -17 -57z"/>
</g>
</svg>
