<?xml version="1.0" standalone="no"?>
<!DOCTYPE svg PUBLIC "-//W3C//DTD SVG 20010904//EN"
 "http://www.w3.org/TR/2001/REC-SVG-20010904/DTD/svg10.dtd">
<svg version="1.0" xmlns="http://www.w3.org/2000/svg"
 width="100.000000pt" height="100.000000pt" viewBox="0 0 100.000000 100.000000"
 preserveAspectRatio="xMidYMid meet">
<metadata>
Created by potrace 1.16, written by Peter Selinger 2001-2019
</metadata>
<g transform="translate(0.000000,100.000000) scale(0.100000,-0.100000)"
fill="#000000" stroke="none">
<path d="M290 925 c0 -32 -2 -35 -30 -35 l-30 0 0 -90 0 -90 -30 0 -30 0 0
-125 0 -125 -30 0 -30 0 0 -95 0 -95 -35 0 c-32 0 -35 -2 -35 -30 0 -23 -4
-30 -20 -30 -11 0 -20 -4 -20 -10 0 -5 13 -10 30 -10 27 0 30 3 30 30 0 28 3
30 35 30 l35 0 0 95 0 95 30 0 30 0 0 125 0 125 30 0 30 0 0 90 0 90 30 0 c28
0 30 3 30 35 l0 35 190 0 190 0 0 -65 0 -65 30 0 30 0 0 -90 0 -90 30 0 30 0
0 -95 0 -95 30 0 30 0 0 -65 0 -65 65 0 c37 0 65 4 65 10 0 6 -25 10 -55 10
l-55 0 0 65 0 65 -30 0 -30 0 0 95 0 95 -30 0 -30 0 0 90 0 90 -30 0 -30 0 0
65 0 65 -210 0 -210 0 0 -35z"/>
<path d="M560 95 l0 -35 -280 0 c-180 0 -280 -4 -280 -10 0 -6 103 -10 290
-10 l290 0 0 35 0 35 210 0 c133 0 210 4 210 10 0 6 -80 10 -220 10 l-220 0 0
-35z"/>
</g>
</svg>
