<?xml version="1.0" standalone="no"?>
<!DOCTYPE svg PUBLIC "-//W3C//DTD SVG 20010904//EN"
 "http://www.w3.org/TR/2001/REC-SVG-20010904/DTD/svg10.dtd">
<svg version="1.0" xmlns="http://www.w3.org/2000/svg"
 width="152.000000pt" height="170.000000pt" viewBox="0 0 152.000000 170.000000"
 preserveAspectRatio="xMidYMid meet">
<metadata>
Created by potrace 1.16, written by Peter Selinger 2001-2019
</metadata>
<g transform="translate(0.000000,170.000000) scale(0.100000,-0.100000)"
fill="#000000" stroke="none">
<path d="M600 1648 c0 -12 -348 -1128 -365 -1171 -7 -16 2 -17 135 -15 l143 3
24 90 c13 50 28 107 34 128 l10 37 176 -2 176 -3 35 -127 35 -128 139 0 c76 0
138 3 138 6 0 4 -85 269 -190 589 -104 320 -190 587 -190 593 0 9 -42 12 -150
12 -113 0 -150 -3 -150 -12z m405 -425 c219 -670 235 -719 235 -726 0 -4 -49
-7 -109 -7 l-108 0 -34 125 -34 125 -199 -2 -200 -3 -23 -85 c-13 -47 -28
-102 -33 -122 l-11 -38 -110 0 c-90 0 -110 3 -106 14 3 7 76 238 162 512 86
275 165 527 176 562 l21 62 118 0 119 0 136 -417z"/>
<path d="M725 1398 c-18 -49 -105 -428 -105 -454 l0 -34 135 0 135 0 0 28 c1
15 -25 127 -57 250 -54 208 -59 222 -81 222 -12 0 -25 -6 -27 -12z m91 -250
c30 -115 54 -209 54 -210 0 -2 -52 -3 -116 -3 -110 0 -115 1 -110 20 3 11 26
108 52 215 52 223 55 234 61 205 3 -11 29 -113 59 -227z"/>
<path d="M1398 255 c-2 -2 -50 -6 -108 -9 -58 -4 -123 -9 -145 -11 -22 -2 -80
-6 -130 -10 -85 -5 -128 -8 -277 -20 -35 -2 -101 -7 -148 -10 -47 -3 -107 -8
-135 -10 -27 -2 -93 -7 -145 -11 -52 -3 -106 -8 -120 -9 -14 -2 -44 -4 -67 -4
-41 -1 -44 -3 -73 -54 -30 -52 -37 -73 -22 -63 7 4 58 11 227 31 22 2 81 9
130 15 50 5 108 12 130 15 22 2 81 9 130 15 50 5 108 12 130 15 22 2 81 9 130
15 50 5 108 12 130 15 22 2 83 9 135 15 52 6 109 13 125 15 17 3 64 7 107 11
67 6 77 9 87 31 11 23 10 23 -39 22 -27 -1 -51 -3 -52 -4z m-155 -42 c-7 -2
-19 -2 -25 0 -7 3 -2 5 12 5 14 0 19 -2 13 -5z m-98 -9 c-19 -4 -1059 -124
-1070 -124 -5 0 12 38 22 50 2 2 225 21 496 41 446 33 608 43 552 33z"/>
</g>
</svg>
