<?xml version="1.0" standalone="no"?>
<!DOCTYPE svg PUBLIC "-//W3C//DTD SVG 20010904//EN"
 "http://www.w3.org/TR/2001/REC-SVG-20010904/DTD/svg10.dtd">
<svg version="1.0" xmlns="http://www.w3.org/2000/svg"
 width="64.000000pt" height="64.000000pt" viewBox="0 0 64.000000 64.000000"
 preserveAspectRatio="xMidYMid meet">
<metadata>
Created by potrace 1.16, written by Peter Selinger 2001-2019
</metadata>
<g transform="translate(0.000000,64.000000) scale(0.100000,-0.100000)"
fill="#000000" stroke="none">
<path d="M200 533 c-18 -59 -51 -162 -72 -228 -21 -66 -38 -128 -38 -137 0
-16 10 -18 79 -18 l78 0 13 45 c12 44 13 45 55 45 42 0 43 -1 55 -45 l13 -45
73 0 74 0 0 33 c0 17 -31 126 -69 242 l-68 210 -80 3 -79 3 -34 -108z m245
-140 l72 -223 -57 0 -57 0 -13 45 -13 45 -62 0 -62 0 -13 -45 -13 -45 -57 0
-58 0 34 107 c18 60 50 161 71 226 l37 118 59 -3 60 -3 72 -222z"/>
<path d="M302 455 c-27 -101 -28 -95 12 -95 20 0 36 1 36 3 -1 1 -9 31 -19 67
l-18 65 -11 -40z"/>
<path d="M247 101 c-224 -17 -227 -18 -227 -75 l0 -29 78 5 c83 6 453 46 490
54 17 3 22 11 22 34 l0 30 -77 -1 c-43 -1 -172 -9 -286 -18z m343 -11 c0 -5
-10 -12 -22 -14 -55 -12 -518 -59 -524 -54 -3 4 -1 15 4 25 9 16 38 20 219 34
256 20 323 22 323 9z"/>
</g>
</svg>
