<?xml version="1.0" standalone="no"?>
<!DOCTYPE svg PUBLIC "-//W3C//DTD SVG 20010904//EN"
 "http://www.w3.org/TR/2001/REC-SVG-20010904/DTD/svg10.dtd">
<svg version="1.0" xmlns="http://www.w3.org/2000/svg"
 width="100.000000pt" height="100.000000pt" viewBox="0 0 100.000000 100.000000"
 preserveAspectRatio="xMidYMid meet">
<metadata>
Created by potrace 1.16, written by Peter Selinger 2001-2019
</metadata>
<g transform="translate(0.000000,100.000000) scale(0.100000,-0.100000)"
fill="#000000" stroke="none">
<path d="M620 690 l0 -250 25 0 c14 0 25 5 25 10 0 6 -6 10 -14 10 -7 0 -16 9
-19 20 -4 15 0 20 14 20 10 0 19 5 19 10 0 6 -7 10 -15 10 -12 0 -15 15 -15
75 0 60 3 75 15 75 8 0 15 5 15 10 0 6 -8 10 -18 10 -15 0 -17 9 -17 58 0 52
2 58 25 63 l25 7 -22 7 c-26 8 -31 25 -8 25 8 0 15 5 15 10 0 6 -7 10 -15 10
-9 0 -15 9 -15 25 0 15 6 25 14 25 8 0 18 5 21 10 4 6 -7 10 -24 10 l-31 0 0
-250z"/>
<path d="M690 875 l0 -65 60 0 60 0 0 65 0 65 -60 0 -60 0 0 -65z m100 0 l0
-45 -40 0 -40 0 0 45 0 45 40 0 40 0 0 -45z"/>
<path d="M794 789 c-3 -6 -1 -16 5 -22 8 -8 11 -5 11 11 0 24 -5 28 -16 11z"/>
<path d="M690 780 c0 -5 5 -10 10 -10 6 0 10 5 10 10 0 6 -4 10 -10 10 -5 0
-10 -4 -10 -10z"/>
<path d="M730 780 c0 -5 5 -10 10 -10 6 0 10 5 10 10 0 6 -4 10 -10 10 -5 0
-10 -4 -10 -10z"/>
<path d="M190 659 c0 -62 3 -88 11 -83 6 3 8 17 5 30 -5 17 -2 24 9 24 18 0
20 16 3 24 -10 5 -10 7 0 12 17 8 15 24 -3 24 -8 0 -15 4 -15 9 0 5 7 16 15
25 20 20 19 26 -5 26 -19 0 -20 -7 -20 -91z"/>
<path d="M250 690 l0 -60 95 0 95 0 0 -35 0 -35 -95 0 -95 0 0 -30 c0 -25 -4
-30 -25 -30 -31 0 -32 13 -3 40 l22 20 -27 0 -27 0 0 -125 0 -125 30 0 c27 0
30 -3 30 -30 l0 -30 155 0 155 0 0 220 0 220 -149 0 c-144 0 -149 1 -144 20 6
22 38 27 47 8 5 -10 7 -10 12 0 4 8 30 12 80 12 59 0 74 -3 74 -15 0 -8 5 -15
10 -15 6 0 10 9 10 20 0 26 14 25 40 -2 l20 -22 0 27 0 27 -155 0 -155 0 0
-60z m290 -190 l0 -170 -134 0 -133 0 -6 30 c-5 21 -14 31 -32 36 -32 8 -32
20 0 28 15 4 27 16 31 31 11 45 24 26 24 -35 l0 -60 85 0 85 0 0 80 0 80 -65
0 c-37 0 -65 4 -65 10 0 6 28 10 65 10 l65 0 0 55 0 55 -95 0 c-57 0 -95 4
-95 10 0 6 52 10 135 10 l135 0 0 -170z m-230 20 c0 -14 7 -20 24 -20 19 0 23
-4 19 -19 -3 -11 -13 -21 -24 -24 -15 -4 -19 0 -19 19 0 17 -6 24 -20 24 -13
0 -20 7 -20 20 0 13 7 20 20 20 13 0 20 -7 20 -20z m130 -80 l0 -60 -65 0 -65
0 0 30 c0 27 3 30 30 30 27 0 30 3 30 30 0 28 3 30 35 30 l35 0 0 -60z m-190
20 c0 -13 -7 -20 -20 -20 -13 0 -20 7 -20 20 0 13 7 20 20 20 13 0 20 -7 20
-20z m0 -105 c0 -18 -5 -25 -20 -25 -15 0 -20 7 -20 25 0 18 5 25 20 25 15 0
20 -7 20 -25z m290 -65 c0 -17 -7 -20 -39 -20 -22 0 -42 6 -45 13 -5 10 -7 10
-12 0 -8 -19 -74 -17 -74 2 0 8 -4 15 -10 15 -5 0 -10 -7 -10 -15 0 -20 -10
-19 -26 3 -13 16 -13 16 -14 0 0 -25 -36 -23 -43 2 -5 19 0 20 134 20 132 0
139 -1 139 -20z"/>
<path d="M390 450 c0 -5 7 -10 15 -10 8 0 15 5 15 10 0 6 -7 10 -15 10 -8 0
-15 -4 -15 -10z"/>
<path d="M356 421 c-4 -7 -5 -15 -2 -18 9 -9 19 4 14 18 -4 11 -6 11 -12 0z"/>
<path d="M690 470 l0 -280 -31 0 c-24 0 -30 3 -25 16 3 9 6 18 6 20 0 2 7 4
15 4 8 0 15 5 15 10 0 6 -11 10 -25 10 -25 0 -25 0 -25 -95 l0 -95 65 0 65 0
0 35 c0 32 2 35 30 35 l30 0 0 310 0 310 -60 0 -60 0 0 -280z m64 248 c5 -10
7 -10 12 0 9 19 24 14 24 -8 0 -17 -7 -20 -44 -20 -39 0 -44 2 -39 20 6 22 38
27 47 8z m36 -278 l0 -230 -30 0 c-27 0 -30 -3 -30 -30 0 -27 -3 -30 -30 -30
-28 0 -30 -3 -30 -35 0 -24 -5 -35 -15 -35 -11 0 -15 12 -15 45 0 45 0 45 35
45 l35 0 0 250 0 250 40 0 40 0 0 -230z m0 -270 c0 -13 -7 -20 -20 -20 -13 0
-20 7 -20 20 0 13 7 20 20 20 13 0 20 -7 20 -20z m-57 -64 c-3 -13 -14 -26
-24 -29 -15 -4 -19 0 -19 24 0 24 4 29 24 29 19 0 22 -4 19 -24z"/>
<path d="M580 680 c0 -5 5 -10 10 -10 6 0 10 5 10 10 0 6 -4 10 -10 10 -5 0
-10 -4 -10 -10z"/>
<path d="M580 620 c0 -5 5 -10 10 -10 6 0 10 5 10 10 0 6 -4 10 -10 10 -5 0
-10 -4 -10 -10z"/>
<path d="M370 595 c0 -15 4 -24 10 -20 6 3 10 12 10 20 0 8 -4 17 -10 20 -6 4
-10 -5 -10 -20z"/>
<path d="M250 595 c0 -8 5 -15 10 -15 6 0 10 7 10 15 0 8 -4 15 -10 15 -5 0
-10 -7 -10 -15z"/>
<path d="M290 595 c0 -8 5 -15 10 -15 6 0 10 7 10 15 0 8 -4 15 -10 15 -5 0
-10 -7 -10 -15z"/>
<path d="M620 339 c0 -51 4 -78 10 -74 6 3 10 40 10 81 0 43 -4 74 -10 74 -6
0 -10 -34 -10 -81z"/>
<path d="M580 320 c0 -5 7 -10 16 -10 8 0 12 5 9 10 -3 6 -10 10 -16 10 -5 0
-9 -4 -9 -10z"/>
<path d="M830 301 c0 -5 6 -12 13 -15 10 -5 10 -7 0 -12 -20 -9 -15 -24 7 -24
16 0 20 7 20 30 0 23 -4 30 -20 30 -11 0 -20 -4 -20 -9z"/>
<path d="M190 270 c0 -15 7 -20 27 -20 l27 0 -22 20 c-12 11 -24 20 -27 20 -3
0 -5 -9 -5 -20z"/>
<path d="M575 260 c-3 -5 3 -10 15 -10 12 0 18 5 15 10 -3 6 -10 10 -15 10 -5
0 -12 -4 -15 -10z"/>
<path d="M560 125 c0 -64 0 -65 28 -65 24 1 25 2 10 14 -12 8 -18 27 -18 51 0
24 6 43 18 51 15 12 14 13 -10 14 -28 0 -28 -1 -28 -65z"/>
<path d="M790 95 c0 -8 -4 -15 -10 -15 -5 0 -10 -4 -10 -10 0 -5 9 -10 20 -10
15 0 20 7 20 25 0 14 -4 25 -10 25 -5 0 -10 -7 -10 -15z"/>
</g>
</svg>
