<?xml version="1.0" standalone="no"?>
<!DOCTYPE svg PUBLIC "-//W3C//DTD SVG 20010904//EN"
 "http://www.w3.org/TR/2001/REC-SVG-20010904/DTD/svg10.dtd">
<svg version="1.0" xmlns="http://www.w3.org/2000/svg"
 width="192.000000pt" height="192.000000pt" viewBox="0 0 192.000000 192.000000"
 preserveAspectRatio="xMidYMid meet">
<metadata>
Created by potrace 1.16, written by Peter Selinger 2001-2019
</metadata>
<g transform="translate(0.000000,192.000000) scale(0.100000,-0.100000)"
fill="#000000" stroke="none">
<path d="M880 1818 c-1 -22 -1 -22 -14 -5 -10 13 -24 17 -47 15 -28 -3 -38
-12 -70 -63 -92 -146 -130 -206 -186 -295 -79 -125 -219 -368 -352 -610 -164
-298 -213 -398 -209 -425 2 -19 17 2 62 92 121 239 396 728 519 923 33 52 80
127 104 165 24 39 61 97 82 130 21 33 44 61 52 62 8 2 46 -47 93 -120 77 -118
396 -644 396 -652 0 -2 14 -28 31 -57 38 -64 75 -132 142 -258 27 -52 54 -99
58 -105 5 -5 9 -16 9 -25 0 -15 -26 -18 -228 -23 -247 -7 -712 2 -712 13 0 26
325 580 340 580 11 0 46 -53 96 -148 20 -37 40 -71 44 -77 8 -11 75 -133 98
-177 10 -21 21 -28 43 -28 16 0 29 2 29 4 0 16 -294 522 -417 719 l-24 38 -18
-23 c-9 -13 -35 -52 -56 -88 -21 -36 -66 -110 -100 -165 -77 -125 -190 -318
-240 -410 -21 -38 -47 -86 -58 -105 -31 -55 -115 -213 -183 -345 -34 -66 -67
-121 -73 -123 -6 -2 -29 25 -51 60 -33 52 -40 59 -40 37 0 -14 13 -46 30 -72
22 -36 36 -47 55 -47 22 0 24 -2 15 -26 -6 -14 -10 -38 -10 -53 l0 -27 238
-12 c294 -15 999 -14 1267 1 l200 12 37 70 c21 39 38 84 38 102 0 30 -2 32
-42 36 -31 2 -24 4 25 5 43 1 67 6 67 14 0 8 -29 9 -107 5 -203 -13 -878 -20
-1106 -12 -261 8 -242 -4 -179 112 l37 68 538 1 c295 0 539 3 543 6 5 5 -103
220 -126 253 -4 6 -23 39 -42 75 -58 107 -87 159 -156 275 -36 61 -75 128 -87
150 -31 56 -184 301 -292 466 -24 37 -43 72 -43 78 0 7 31 11 93 11 l94 0 82
-127 c234 -363 518 -856 696 -1208 37 -73 51 -93 53 -76 9 59 -416 818 -729
1304 l-82 127 -114 0 c-110 0 -113 -1 -113 -22z m-40 -409 c0 -5 -11 -9 -25
-9 -23 0 -24 2 -15 21 9 16 14 18 26 8 8 -6 14 -15 14 -20z m18 -76 c16 -27
37 -62 47 -78 l17 -31 -116 -192 c-64 -106 -116 -195 -116 -197 0 -3 -22 -42
-50 -89 -27 -47 -50 -87 -50 -91 0 -3 -11 -22 -23 -43 -13 -20 -54 -95 -92
-167 -37 -72 -72 -136 -78 -143 -5 -7 -7 -16 -3 -19 14 -14 914 -16 1184 -3
144 7 266 10 269 6 4 -4 -10 -42 -32 -84 l-40 -77 -200 -12 c-434 -25 -1465
-9 -1465 23 0 21 180 366 326 626 122 218 368 618 379 618 7 0 26 -21 43 -47z
m112 -145 c0 -5 -8 -8 -18 -8 -15 0 -18 6 -14 31 l5 32 13 -24 c7 -13 13 -27
14 -31z m640 -651 c0 -9 -539 -16 -783 -11 l-276 7 17 29 c14 25 17 27 20 10
3 -18 17 -19 255 -26 139 -3 359 -3 490 1 l237 6 0 31 0 31 20 -38 c11 -20 20
-38 20 -40z m-1092 -228 c31 -1 260 -5 507 -8 l450 -7 -425 -2 c-234 -1 -468
1 -522 5 l-96 6 11 26 c12 25 12 25 15 3 3 -20 10 -22 60 -23z m1095 -6 c-24
-2 -62 -2 -85 0 -24 2 -5 4 42 4 47 0 66 -2 43 -4z"/>
</g>
</svg>
