<?xml version="1.0" standalone="no"?>
<!DOCTYPE svg PUBLIC "-//W3C//DTD SVG 20010904//EN"
 "http://www.w3.org/TR/2001/REC-SVG-20010904/DTD/svg10.dtd">
<svg version="1.0" xmlns="http://www.w3.org/2000/svg"
 width="256.000000pt" height="256.000000pt" viewBox="0 0 256.000000 256.000000"
 preserveAspectRatio="xMidYMid meet">
<metadata>
Created by potrace 1.16, written by Peter Selinger 2001-2019
</metadata>
<g transform="translate(0.000000,256.000000) scale(0.100000,-0.100000)"
fill="#000000" stroke="none">
<path d="M515 1668 c-44 -84 -115 -220 -159 -303 -43 -82 -85 -158 -94 -167
-11 -14 -31 -18 -82 -18 l-68 0 -51 -101 c-28 -55 -51 -111 -51 -125 0 -22 3
-24 55 -24 30 0 55 -2 55 -4 0 -2 -13 -33 -30 -68 -16 -34 -30 -78 -30 -96 l0
-33 152 3 153 3 50 97 50 98 151 0 151 0 7 -62 c4 -35 10 -80 13 -100 l6 -38
138 0 138 0 3 47 3 46 30 -25 c48 -41 127 -76 199 -89 115 -21 270 17 344 84
l22 20 0 -42 0 -42 142 3 142 3 26 142 c14 78 28 144 31 147 3 4 35 -61 70
-144 l64 -150 141 0 141 0 23 133 c12 72 42 242 66 377 24 135 44 266 44 293
l0 47 -140 0 c-137 0 -140 0 -144 -22 -2 -13 -15 -85 -28 -162 l-23 -138 -70
161 -70 160 -137 1 c-155 0 -139 10 -158 -100 -18 -107 -17 -106 -57 -53 -87
113 -176 161 -324 170 -86 6 -159 -8 -229 -43 -45 -22 -121 -90 -156 -140 -19
-26 -34 -42 -34 -36 0 17 -49 382 -56 415 l-6 27 -166 0 -167 0 -80 -152z
m399 105 c3 -16 17 -113 31 -218 14 -104 43 -313 65 -463 22 -150 40 -289 40
-308 l0 -34 -119 0 -119 0 -12 98 c-6 53 -27 200 -46 325 -19 126 -34 243 -34
260 0 26 -15 5 -80 -118 -44 -82 -80 -151 -80 -152 0 -2 40 -3 88 -3 l88 0 12
-83 c20 -141 37 -127 -145 -127 l-158 0 -50 -98 -50 -97 -133 -3 c-107 -2
-132 0 -132 11 0 8 18 50 40 93 22 43 40 82 40 87 0 4 -29 7 -65 7 -36 0 -65
2 -65 5 0 2 23 49 52 105 l52 100 66 0 c51 0 71 4 82 18 9 9 48 80 88 157 40
77 89 169 109 205 20 36 59 109 86 163 l50 97 147 0 146 0 6 -27z m613 -221
c105 -40 200 -134 233 -231 l17 -50 23 132 c12 73 25 138 27 145 4 9 37 12
122 12 l116 -1 85 -195 c56 -128 86 -187 88 -172 2 13 14 84 27 158 22 124 32
183 34 203 1 4 55 7 120 7 66 0 122 -3 124 -7 2 -5 -13 -100 -33 -213 -20
-113 -52 -292 -70 -397 l-33 -193 -121 0 -121 0 -80 189 c-44 104 -81 187 -83
186 -1 -1 -17 -85 -35 -186 l-33 -184 -123 -3 -123 -3 6 36 c3 19 9 52 12 73
l6 37 -53 -52 c-130 -124 -300 -153 -454 -76 -57 30 -110 69 -129 99 -8 11
-29 117 -47 234 l-32 214 23 44 c46 86 139 164 238 199 80 28 185 26 269 -5z
m-814 -255 c4 -29 10 -67 13 -85 l7 -32 -67 0 -67 0 47 90 c26 49 50 87 54 85
4 -2 10 -28 13 -58z"/>
<path d="M1316 1333 c-19 -5 -72 -60 -93 -97 -20 -34 -16 -141 7 -185 39 -77
128 -108 200 -71 75 38 108 96 109 188 2 107 -58 173 -154 171 -27 -1 -58 -3
-69 -6z m145 -43 c97 -70 69 -229 -50 -290 l-43 -22 -47 24 c-76 39 -110 126
-80 205 12 33 65 91 94 104 31 14 91 3 126 -21z"/>
</g>
</svg>
