<?xml version="1.0" standalone="no"?>
<!DOCTYPE svg PUBLIC "-//W3C//DTD SVG 20010904//EN"
 "http://www.w3.org/TR/2001/REC-SVG-20010904/DTD/svg10.dtd">
<svg version="1.0" xmlns="http://www.w3.org/2000/svg"
 width="180.000000pt" height="180.000000pt" viewBox="0 0 180.000000 180.000000"
 preserveAspectRatio="xMidYMid meet">
<metadata>
Created by potrace 1.16, written by Peter Selinger 2001-2019
</metadata>
<g transform="translate(0.000000,180.000000) scale(0.100000,-0.100000)"
fill="#000000" stroke="none">
<path d="M795 1664 c-370 -60 -638 -353 -662 -723 -23 -367 217 -697 581 -798
86 -24 298 -23 385 1 275 75 482 282 557 557 26 91 25 300 0 389 -80 278 -283
481 -551 554 -60 17 -254 29 -310 20z m271 -40 c125 -26 252 -97 383 -216 46
-42 51 -50 51 -90 0 -25 -8 -56 -20 -76 -48 -78 -186 -111 -209 -49 -12 32
-81 92 -140 122 -193 97 -433 58 -575 -95 -29 -32 -62 -78 -74 -104 -27 -56
-52 -157 -52 -208 0 -24 -5 -38 -12 -38 -10 0 -10 -2 0 -9 7 -4 12 -12 11 -17
-1 -5 0 -16 3 -24 3 -8 17 -50 31 -92 l25 -78 -32 0 c-73 0 -166 -77 -166
-137 0 -14 -4 -21 -10 -18 -16 10 -67 115 -90 188 -26 81 -42 219 -26 229 8 6
8 8 0 8 -11 0 -5 64 16 155 17 79 95 228 155 298 124 147 307 246 493 266 79
9 142 5 238 -15z m4 -312 c110 -43 208 -141 252 -252 18 -45 22 -75 22 -165 0
-127 -17 -185 -82 -270 -82 -108 -191 -165 -334 -173 -157 -8 -286 51 -380
176 -184 243 -72 597 220 693 78 26 224 21 302 -9z m500 -81 c16 -32 38 -86
50 -120 25 -76 42 -223 26 -233 -8 -6 -8 -8 0 -8 12 0 5 -65 -16 -155 -16 -70
-79 -199 -133 -272 -91 -123 -259 -233 -414 -274 -105 -27 -251 -27 -354 0
-132 34 -291 128 -367 217 -17 20 -35 33 -41 30 -12 -8 -18 40 -10 82 14 65
67 115 136 128 42 8 83 -2 83 -21 0 -22 78 -91 141 -124 195 -106 438 -67 586
92 74 81 122 202 123 310 0 23 5 37 13 37 9 0 8 3 -2 9 -7 5 -10 14 -7 20 4 6
2 11 -3 11 -6 0 -11 11 -11 25 0 13 -11 54 -25 90 l-24 65 32 0 c74 0 167 77
167 137 0 35 16 20 50 -46z"/>
<path d="M198 903 c7 -3 16 -2 19 1 4 3 -2 6 -13 5 -11 0 -14 -3 -6 -6z"/>
<path d="M248 893 c6 -2 18 -2 25 0 6 3 1 5 -13 5 -14 0 -19 -2 -12 -5z"/>
<path d="M308 883 c6 -2 18 -2 25 0 6 3 1 5 -13 5 -14 0 -19 -2 -12 -5z"/>
<path d="M368 873 c7 -3 16 -2 19 1 4 3 -2 6 -13 5 -11 0 -14 -3 -6 -6z"/>
<path d="M1428 913 c7 -3 16 -2 19 1 4 3 -2 6 -13 5 -11 0 -14 -3 -6 -6z"/>
<path d="M1478 903 c6 -2 18 -2 25 0 6 3 1 5 -13 5 -14 0 -19 -2 -12 -5z"/>
<path d="M1538 893 c6 -2 18 -2 25 0 6 3 1 5 -13 5 -14 0 -19 -2 -12 -5z"/>
<path d="M1598 883 c7 -3 16 -2 19 1 4 3 -2 6 -13 5 -11 0 -14 -3 -6 -6z"/>
<path d="M468 603 c7 -3 16 -2 19 1 4 3 -2 6 -13 5 -11 0 -14 -3 -6 -6z"/>
<path d="M331 484 c0 -11 3 -14 6 -6 3 7 2 16 -1 19 -3 4 -6 -2 -5 -13z"/>
</g>
</svg>
