<?xml version="1.0" standalone="no"?>
<!DOCTYPE svg PUBLIC "-//W3C//DTD SVG 20010904//EN"
 "http://www.w3.org/TR/2001/REC-SVG-20010904/DTD/svg10.dtd">
<svg version="1.0" xmlns="http://www.w3.org/2000/svg"
 width="100.000000pt" height="100.000000pt" viewBox="0 0 100.000000 100.000000"
 preserveAspectRatio="xMidYMid meet">
<metadata>
Created by potrace 1.16, written by Peter Selinger 2001-2019
</metadata>
<g transform="translate(0.000000,100.000000) scale(0.100000,-0.100000)"
fill="#000000" stroke="none">
<path d="M340 772 c0 -10 15 -12 158 -17 85 -3 122 -1 122 6 0 6 9 9 20 6 11
-3 20 -1 20 4 0 5 -71 9 -160 9 -88 0 -160 -4 -160 -8z"/>
<path d="M250 740 c0 -5 7 -7 15 -4 8 4 15 1 15 -5 0 -6 19 -11 45 -11 33 0
45 -4 45 -15 0 -8 -7 -15 -15 -15 -8 0 -15 -7 -15 -15 0 -8 -7 -15 -15 -15 -8
0 -15 -7 -15 -15 0 -8 -7 -15 -15 -15 -8 0 -15 -9 -15 -20 0 -11 -7 -20 -15
-20 -8 0 -15 -7 -15 -15 0 -11 11 -15 41 -15 34 0 39 2 30 14 -9 10 -8 15 4
20 8 3 15 16 15 29 0 14 7 30 15 37 13 11 15 7 15 -29 0 -30 -4 -41 -15 -41
-10 0 -15 -10 -15 -30 l0 -30 80 0 80 0 0 30 c0 20 5 30 15 30 10 0 15 -10 15
-30 l0 -30 125 0 c104 0 125 -2 125 -15 0 -8 -7 -15 -15 -15 -8 0 -15 -7 -15
-15 0 -10 10 -15 30 -15 20 0 30 5 30 15 0 8 7 15 15 15 8 0 15 7 15 15 0 8 7
15 15 15 12 0 15 14 15 65 0 51 -3 65 -15 65 -8 0 -15 7 -15 15 0 11 -12 15
-45 15 -33 0 -45 -4 -45 -15 0 -18 -16 -20 -23 -2 -3 6 -6 -16 -6 -50 -1 -49
-4 -63 -16 -63 -11 0 -15 12 -15 50 l0 50 -110 0 c-91 0 -110 -3 -110 -15 0
-8 -7 -15 -15 -15 -10 0 -15 -11 -15 -35 0 -24 -5 -35 -15 -35 -11 0 -15 12
-15 51 0 44 3 51 18 47 15 -4 16 1 13 41 -2 25 -6 40 -8 34 -3 -7 -17 -13 -31
-13 -26 1 -26 1 -8 15 18 14 12 15 -62 15 -46 0 -82 -4 -82 -10z m560 -145 c0
-51 -3 -65 -15 -65 -12 0 -15 14 -15 65 0 51 3 65 15 65 12 0 15 -14 15 -65z
m-229 43 c35 -10 39 -14 39 -45 0 -23 -5 -33 -15 -33 -10 0 -15 11 -15 35 0
33 -2 35 -36 35 -21 0 -33 -4 -29 -10 3 -5 -1 -10 -9 -10 -22 0 -20 27 2 33 9
3 19 5 21 6 2 0 21 -4 42 -11z m179 -29 c8 -30 8 -45 1 -52 -8 -8 -11 -1 -11
25 0 20 -3 43 -6 52 -3 9 -4 16 0 16 3 0 10 -19 16 -41z m-100 7 c0 -14 5 -28
10 -31 6 -3 10 -10 10 -16 0 -5 -4 -9 -10 -9 -5 0 -10 7 -10 15 0 8 -4 15 -10
15 -5 0 -10 11 -10 25 0 14 5 25 10 25 6 0 10 -11 10 -24z m180 -21 c0 -19 -4
-35 -8 -35 -4 0 -6 16 -4 35 2 19 6 35 8 35 2 0 4 -16 4 -35z m-357 -48 c-7
-12 -10 -6 -16 38 l-6 40 13 -35 c7 -19 11 -39 9 -43z m-97 16 c-10 -10 -19 5
-10 18 6 11 8 11 12 0 2 -7 1 -15 -2 -18z m171 5 c-3 -8 -6 -5 -6 6 -1 11 2
17 5 13 3 -3 4 -12 1 -19z"/>
<path d="M616 743 c-4 -4 -41 -10 -84 -14 -69 -5 -64 -6 56 -7 79 -1 132 2
132 8 0 5 7 7 15 4 8 -4 15 -1 15 5 0 12 -122 16 -134 4z"/>
<path d="M190 705 c0 -8 -7 -15 -15 -15 -8 0 -15 -7 -15 -15 0 -8 -7 -15 -15
-15 -12 0 -15 -16 -15 -80 l0 -80 30 0 c20 0 30 -5 30 -15 0 -10 10 -15 30
-15 17 0 30 4 30 10 0 5 7 7 15 4 8 -4 15 -1 15 5 0 6 -13 11 -30 11 -20 0
-30 5 -30 15 0 8 7 15 15 15 8 0 15 7 15 15 0 11 -11 15 -40 15 -44 0 -49 -6
-22 -26 16 -13 16 -14 -2 -8 -10 4 -21 2 -26 -6 -5 -8 -9 -9 -14 -1 -4 6 -2
11 3 11 6 0 11 21 11 50 0 29 5 50 11 50 6 0 8 -8 5 -17 -3 -10 -1 -25 4 -33
7 -11 10 -2 10 33 0 35 4 47 15 47 18 0 20 27 3 33 -7 2 13 2 45 -1 41 -3 57
-1 57 8 0 7 -7 10 -15 6 -8 -3 -15 -1 -15 4 0 6 -20 10 -45 10 -33 0 -45 -4
-45 -15z"/>
<path d="M720 704 c0 -13 6 -15 28 -9 15 4 35 7 45 7 9 0 17 3 17 9 0 5 -20 9
-45 9 -35 0 -45 -4 -45 -16z"/>
<path d="M690 700 c0 -5 5 -10 11 -10 5 0 7 5 4 10 -3 6 -8 10 -11 10 -2 0 -4
-4 -4 -10z"/>
<path d="M130 679 c0 -5 5 -7 10 -4 6 3 10 8 10 11 0 2 -4 4 -10 4 -5 0 -10
-5 -10 -11z"/>
<path d="M235 670 c-3 -5 -1 -10 4 -10 6 0 11 5 11 10 0 6 -2 10 -4 10 -3 0
-8 -4 -11 -10z"/>
<path d="M90 580 c0 -30 4 -50 11 -50 6 0 9 7 5 15 -3 8 -2 15 2 15 5 0 8 16
8 35 0 22 -5 35 -13 35 -9 0 -13 -16 -13 -50z"/>
<path d="M885 595 c0 -21 5 -35 13 -35 7 0 12 14 12 35 0 21 -5 35 -12 35 -8
0 -13 -14 -13 -35z"/>
<path d="M265 540 c-3 -5 -1 -10 4 -10 6 0 11 5 11 10 0 6 -2 10 -4 10 -3 0
-8 -4 -11 -10z"/>
<path d="M895 540 c-3 -5 -1 -10 4 -10 6 0 11 5 11 10 0 6 -2 10 -4 10 -3 0
-8 -4 -11 -10z"/>
<path d="M340 510 c0 -5 7 -10 15 -10 8 0 15 -7 15 -15 0 -12 -13 -15 -60 -15
-37 0 -60 -4 -60 -11 0 -6 -7 -9 -15 -5 -8 3 -15 1 -15 -5 0 -6 28 -9 75 -8
53 2 75 7 75 16 0 9 16 13 50 13 47 0 50 2 50 26 0 16 -5 24 -12 21 -7 -2 -12
-13 -11 -23 1 -10 0 -13 -3 -6 -3 6 -21 12 -39 12 -19 0 -37 5 -40 10 -3 6
-10 10 -16 10 -5 0 -9 -4 -9 -10z"/>
<path d="M635 510 c-19 -8 -19 -9 3 -9 12 -1 22 4 22 9 0 6 -1 10 -2 9 -2 0
-12 -4 -23 -9z"/>
<path d="M855 510 c-3 -5 -1 -10 4 -10 6 0 11 5 11 10 0 6 -2 10 -4 10 -3 0
-8 -4 -11 -10z"/>
<path d="M533 503 c-53 -7 -43 -33 12 -33 38 0 45 3 45 20 0 11 -6 19 -12 18
-7 0 -28 -3 -45 -5z"/>
<path d="M720 494 c0 -8 5 -12 10 -9 6 4 8 11 5 16 -9 14 -15 11 -15 -7z"/>
<path d="M160 480 c0 -5 5 -10 11 -10 5 0 7 5 4 10 -3 6 -8 10 -11 10 -2 0 -4
-4 -4 -10z"/>
<path d="M620 457 c0 -9 20 -14 65 -15 53 -2 65 0 65 13 0 12 -13 15 -65 15
-47 0 -65 -4 -65 -13z"/>
<path d="M765 450 c-3 -5 -1 -10 4 -10 6 0 11 5 11 10 0 6 -2 10 -4 10 -3 0
-8 -4 -11 -10z"/>
<path d="M340 430 c0 -5 -8 -11 -17 -13 -10 -3 70 -5 177 -5 176 0 191 1 155
13 -44 15 -315 19 -315 5z"/>
<path d="M1 358 c1 -17 2 -19 6 -5 9 33 23 17 22 -25 0 -24 -3 -37 -6 -30 -7
17 -23 15 -23 -3 0 -13 24 -15 160 -15 138 0 159 -2 154 -15 -4 -9 0 -15 10
-15 11 0 16 9 16 30 l0 29 -142 3 c-102 2 -143 6 -146 16 -5 15 74 17 83 2 3
-5 10 -10 16 -10 5 0 9 5 9 10 0 6 -7 10 -15 10 -8 0 -15 9 -15 20 0 18 -7 20
-65 20 -61 0 -65 -1 -64 -22z"/>
<path d="M410 315 l0 -65 63 1 c49 0 57 2 39 10 -13 5 -34 6 -47 3 -12 -3 -26
-1 -29 5 -5 8 72 11 263 11 241 0 271 2 271 16 0 13 -11 15 -70 12 -39 -2 -70
0 -70 4 0 9 67 19 118 17 23 -1 45 1 49 4 3 4 -107 7 -245 7 -245 0 -252 1
-252 20 0 16 -7 20 -30 20 -23 0 -30 -4 -30 -20 0 -16 7 -20 30 -20 17 0 30
-3 30 -7 0 -5 56 -7 125 -5 75 1 125 -2 125 -7 0 -6 -66 -11 -159 -13 l-160
-3 -5 29 c-3 15 -3 32 0 37 3 5 0 9 -5 9 -7 0 -11 -26 -11 -65z m400 5 c0 -5
-7 -10 -15 -10 -8 0 -15 5 -15 10 0 6 7 10 15 10 8 0 15 -4 15 -10z"/>
<path d="M660 370 c0 -5 7 -10 15 -10 8 0 15 5 15 10 0 6 -7 10 -15 10 -8 0
-15 -4 -15 -10z"/>
<path d="M750 365 c0 -17 16 -20 25 -5 3 5 12 7 20 3 8 -3 15 0 15 6 0 6 -13
11 -30 11 -20 0 -30 -5 -30 -15z"/>
<path d="M186 331 c5 -6 32 -6 64 -2 l55 9 -64 1 c-40 1 -61 -3 -55 -8z"/>
<path d="M310 330 c0 -5 7 -10 15 -10 8 0 15 5 15 10 0 6 -7 10 -15 10 -8 0
-15 -4 -15 -10z"/>
<path d="M355 330 c3 -5 8 -10 11 -10 2 0 4 5 4 10 0 6 -5 10 -11 10 -5 0 -7
-4 -4 -10z"/>
<path d="M350 295 c0 -8 5 -15 10 -15 6 0 10 7 10 15 0 8 -4 15 -10 15 -5 0
-10 -7 -10 -15z"/>
<path d="M980 295 c0 -8 5 -15 10 -15 6 0 10 7 10 15 0 8 -4 15 -10 15 -5 0
-10 -7 -10 -15z"/>
<path d="M8 253 c7 -3 16 -2 19 1 4 3 -2 6 -13 5 -11 0 -14 -3 -6 -6z"/>
<path d="M127 253 c24 -2 62 -2 85 0 24 2 5 4 -42 4 -47 0 -66 -2 -43 -4z"/>
<path d="M583 253 c15 -2 39 -2 55 0 15 2 2 4 -28 4 -30 0 -43 -2 -27 -4z"/>
<path d="M718 253 c18 -2 45 -2 60 0 15 2 0 4 -33 4 -33 0 -45 -2 -27 -4z"/>
<path d="M818 253 c7 -3 16 -2 19 1 4 3 -2 6 -13 5 -11 0 -14 -3 -6 -6z"/>
<path d="M883 253 c9 -2 23 -2 30 0 6 3 -1 5 -18 5 -16 0 -22 -2 -12 -5z"/>
<path d="M948 253 c7 -3 16 -2 19 1 4 3 -2 6 -13 5 -11 0 -14 -3 -6 -6z"/>
</g>
</svg>
