<?xml version="1.0" standalone="no"?>
<!DOCTYPE svg PUBLIC "-//W3C//DTD SVG 20010904//EN"
 "http://www.w3.org/TR/2001/REC-SVG-20010904/DTD/svg10.dtd">
<svg version="1.0" xmlns="http://www.w3.org/2000/svg"
 width="100.000000pt" height="100.000000pt" viewBox="0 0 100.000000 100.000000"
 preserveAspectRatio="xMidYMid meet">
<metadata>
Created by potrace 1.16, written by Peter Selinger 2001-2019
</metadata>
<g transform="translate(0.000000,100.000000) scale(0.100000,-0.100000)"
fill="#000000" stroke="none">
<path d="M450 780 c-8 -5 -39 -10 -67 -10 -29 0 -53 -4 -53 -10 0 -5 -13 -10
-30 -10 -16 0 -30 -4 -30 -10 0 -5 -9 -10 -20 -10 -11 0 -20 -4 -20 -10 0 -5
-7 -10 -15 -10 -31 0 -155 -124 -155 -155 0 -8 -4 -15 -10 -15 -5 0 -10 -13
-10 -30 0 -16 -4 -30 -10 -30 -13 0 -13 -77 0 -85 6 -3 10 -17 10 -31 0 -30
16 -59 56 -98 56 -57 49 -56 397 -56 314 0 377 5 377 33 0 4 5 7 10 7 29 0 80
77 80 120 0 16 5 30 10 30 6 0 10 15 10 34 0 19 -4 38 -10 41 -5 3 -10 19 -10
36 0 16 -4 29 -10 29 -5 0 -10 8 -10 18 0 10 -9 24 -20 32 -11 8 -20 20 -20
27 0 6 -15 22 -32 35 -18 12 -42 30 -52 40 -11 10 -26 18 -33 18 -7 0 -13 5
-13 10 0 6 -9 10 -20 10 -11 0 -20 5 -20 10 0 6 -13 10 -30 10 -16 0 -30 4
-30 9 0 5 -26 12 -57 15 -32 3 -78 8 -103 11 -25 3 -52 1 -60 -5z m130 -40
c-18 -6 -5 -8 45 -9 49 -1 66 -4 55 -11 -11 -7 -7 -10 18 -10 17 0 32 -4 32
-10 0 -5 9 -10 20 -10 11 0 20 -4 20 -10 0 -5 10 -10 23 -10 18 0 19 -2 7 -10
-13 -8 -12 -10 3 -10 20 0 47 -23 47 -39 0 -6 5 -11 11 -11 16 0 39 -26 39
-44 0 -9 5 -16 10 -16 6 0 10 -15 10 -32 0 -25 3 -29 10 -18 7 11 10 -4 10
-50 0 -46 -3 -61 -10 -50 -7 11 -10 5 -10 -22 0 -21 -4 -38 -10 -38 -5 0 -10
-7 -10 -16 0 -8 -6 -22 -14 -30 -17 -16 -30 -19 -21 -4 12 19 -11 10 -25 -10
-14 -19 -25 -20 -355 -19 -187 0 -334 3 -328 6 10 3 10 8 -1 19 -17 16 -30 19
-21 4 9 -15 -4 -12 -21 4 -8 8 -14 22 -14 30 0 9 -4 16 -10 16 -5 0 -10 11
-10 25 0 14 -4 25 -10 25 -6 0 -10 27 -10 60 0 33 4 60 10 60 6 0 10 9 10 20
0 11 5 20 10 20 6 0 10 7 10 16 0 18 23 44 39 44 6 0 11 5 11 11 0 16 27 39
47 39 15 0 16 2 3 10 -12 8 -11 10 8 10 12 0 22 5 22 10 0 6 9 10 20 10 11 0
20 5 20 10 0 6 15 10 33 10 24 0 28 3 17 10 -11 7 6 10 55 11 50 1 63 3 45 9
-16 5 13 8 80 8 67 0 96 -3 80 -8z"/>
<path d="M390 700 c19 -6 13 -8 -30 -9 -39 -1 -51 -4 -40 -11 12 -8 11 -10 -7
-10 -23 0 -23 0 -25 -187 l-2 -188 -6 190 -6 190 -2 -192 -2 -193 30 0 30 0 0
95 c0 88 1 95 20 95 19 0 20 -7 20 -95 0 -95 0 -95 25 -95 l25 0 0 210 0 210
-27 -1 -28 -1 25 -8z m-20 -101 c0 -45 -15 -79 -34 -79 -3 0 -6 29 -6 65 0 58
2 65 20 65 17 0 20 -7 20 -51z"/>
<path d="M352 585 c0 -16 2 -22 5 -12 2 9 2 23 0 30 -3 6 -5 -1 -5 -18z"/>
<path d="M440 500 l0 -210 70 0 70 0 0 196 c0 227 1 224 -84 224 l-56 0 0
-210z m17 -102 c-1 -57 -3 -11 -3 102 0 113 2 159 3 103 2 -57 2 -149 0 -205z
m83 102 c0 -163 -1 -170 -20 -170 -19 0 -20 7 -20 170 0 163 1 170 20 170 19
0 20 -7 20 -170z"/>
<path d="M524 490 c0 -85 2 -120 3 -77 2 42 2 112 0 155 -1 42 -3 7 -3 -78z"/>
<path d="M600 490 l0 -200 55 0 c48 0 55 2 55 20 0 13 -7 20 -20 20 -18 0 -20
7 -20 75 0 71 1 75 23 75 18 0 19 -2 7 -10 -11 -7 -7 -10 18 -10 25 0 32 4 32
20 0 14 -7 20 -22 20 -19 0 -20 2 -8 10 11 7 7 10 -17 10 l-33 0 0 55 c0 48 2
55 20 55 12 0 20 7 20 16 0 27 -27 44 -69 44 l-41 0 0 -200z m17 -97 c-1 -54
-3 -10 -3 97 0 107 2 151 3 98 2 -54 2 -142 0 -195z"/>
<path d="M230 640 c0 -5 -9 -10 -20 -10 -11 0 -20 -5 -20 -11 0 -5 5 -7 10 -4
6 3 10 1 10 -4 0 -6 -9 -11 -20 -11 -11 0 -20 -5 -20 -11 0 -6 -6 -9 -13 -6
-10 4 -13 -2 -9 -19 5 -28 -5 -31 -23 -8 -9 13 -11 9 -7 -22 2 -30 1 -35 -7
-24 -8 11 -11 -9 -10 -75 0 -59 3 -83 9 -70 8 18 9 17 9 -7 1 -18 6 -28 16
-28 8 0 15 -4 15 -10 0 -5 5 -10 10 -10 6 0 10 24 9 53 0 38 -3 47 -9 32 -8
-19 -9 -19 -9 3 -1 17 5 22 27 23 24 0 25 1 7 9 -19 8 -19 9 3 9 21 1 22 -3
22 -70 0 -44 -4 -68 -10 -64 -5 3 -10 1 -10 -4 0 -6 14 -11 30 -11 l30 0 0
180 c0 113 -4 180 -10 180 -5 0 -10 -4 -10 -10z m-20 -130 c0 -24 -4 -30 -22
-30 -19 0 -20 -2 -8 -10 12 -8 11 -10 -7 -10 -16 0 -23 6 -23 20 0 11 5 20 10
20 6 0 10 9 10 20 0 13 7 20 20 20 16 0 20 -7 20 -30z m-83 -82 c-3 -8 -6 -5
-6 6 -1 11 2 17 5 13 3 -3 4 -12 1 -19z"/>
<path d="M750 603 c0 -35 3 -44 10 -33 7 11 10 3 10 -30 0 -33 3 -41 10 -30 7
11 10 0 10 -37 0 -29 -4 -53 -10 -53 -5 0 -10 -9 -10 -20 0 -11 -4 -20 -10
-20 -5 0 -10 -17 -10 -37 0 -28 -3 -34 -10 -23 -8 12 -10 11 -10 -7 0 -19 6
-23 30 -23 27 0 30 3 30 30 0 17 5 30 10 30 6 0 10 5 10 11 0 5 -4 7 -10 4 -5
-3 -10 -1 -10 4 0 6 9 11 20 11 16 0 20 -7 20 -35 0 -19 5 -35 10 -35 6 0 10
5 10 10 0 6 7 10 15 10 12 0 15 13 15 57 0 56 -7 66 -15 23 -9 -47 -15 -31
-15 41 1 68 2 72 14 50 13 -24 14 -23 17 21 3 33 1 44 -8 41 -7 -3 -10 -9 -7
-14 3 -5 1 -9 -5 -9 -5 0 -12 6 -15 13 -5 10 -7 10 -12 0 -10 -23 -24 -13 -24
17 0 17 -4 30 -10 30 -5 0 -10 5 -10 11 0 11 -24 39 -34 39 -3 0 -6 -21 -6
-47z"/>
<path d="M805 629 c-4 -6 -5 -12 -2 -15 2 -3 7 2 10 11 7 17 1 20 -8 4z"/>
<path d="M690 610 c0 -5 10 -10 23 -10 18 0 19 2 7 10 -19 13 -30 13 -30 0z"/>
<path d="M351 304 c0 -11 3 -14 6 -6 3 7 2 16 -1 19 -3 4 -6 -2 -5 -13z"/>
</g>
</svg>
