<?xml version="1.0" standalone="no"?>
<!DOCTYPE svg PUBLIC "-//W3C//DTD SVG 20010904//EN"
 "http://www.w3.org/TR/2001/REC-SVG-20010904/DTD/svg10.dtd">
<svg version="1.0" xmlns="http://www.w3.org/2000/svg"
 width="100.000000pt" height="100.000000pt" viewBox="0 0 100.000000 100.000000"
 preserveAspectRatio="xMidYMid meet">
<metadata>
Created by potrace 1.16, written by Peter Selinger 2001-2019
</metadata>
<g transform="translate(0.000000,100.000000) scale(0.100000,-0.100000)"
fill="#000000" stroke="none">
<path d="M0 830 c0 -7 173 -10 500 -10 327 0 500 3 500 10 0 7 -173 10 -500
10 -327 0 -500 -3 -500 -10z"/>
<path d="M320 755 c0 -11 -12 -15 -45 -15 -33 0 -45 -4 -45 -15 0 -8 -8 -15
-19 -15 -10 0 -24 -7 -31 -15 -7 -8 -19 -15 -26 -15 -8 0 -14 -7 -14 -15 0 -8
-7 -15 -15 -15 -8 0 -15 -9 -15 -20 0 -13 -7 -20 -20 -20 -12 0 -20 -7 -20
-16 0 -8 -7 -22 -15 -30 -8 -9 -15 -28 -15 -44 0 -16 -7 -30 -15 -34 -10 -4
-15 -20 -15 -51 0 -33 4 -45 15 -45 11 0 15 -12 15 -45 0 -31 5 -47 15 -51 8
-4 15 -12 15 -20 0 -8 9 -14 20 -14 11 0 20 -7 20 -15 0 -8 7 -15 16 -15 8 0
22 -7 30 -15 23 -22 665 -22 688 0 8 8 22 15 30 15 9 0 16 7 16 15 0 8 9 15
20 15 11 0 20 7 20 15 0 8 7 15 15 15 11 0 15 12 15 50 0 38 4 50 15 50 11 0
15 12 15 45 0 31 -5 47 -15 51 -10 4 -15 20 -15 45 0 26 -5 42 -15 45 -8 4
-15 12 -15 20 0 8 -9 14 -20 14 -13 0 -20 7 -20 20 0 11 -7 20 -15 20 -8 0
-15 7 -15 15 0 8 -6 15 -14 15 -8 0 -16 7 -20 15 -3 8 -17 15 -31 15 -16 0
-25 6 -25 15 0 11 -12 15 -45 15 -33 0 -45 4 -45 15 0 13 -27 15 -180 15 -153
0 -180 -2 -180 -15z m340 -13 c0 -5 -17 -9 -37 -10 -120 -4 -212 -29 -108 -29
25 0 45 4 45 8 0 5 36 9 80 9 64 0 80 -3 80 -15 0 -10 10 -15 30 -15 20 0 30
-5 30 -15 0 -8 7 -15 15 -15 8 0 15 -7 15 -15 0 -10 -10 -15 -30 -15 -28 0
-30 -3 -30 -35 0 -19 5 -35 11 -35 6 0 9 7 5 15 -3 8 -1 15 4 15 6 0 10 8 10
18 0 14 2 15 10 2 6 -10 6 -16 0 -18 -6 -2 -9 -36 -9 -75 1 -40 4 -60 6 -44 6
36 23 35 23 -3 0 -20 -5 -30 -15 -30 -10 0 -15 -10 -15 -30 0 -20 -5 -30 -15
-30 -11 0 -15 -12 -15 -45 0 -25 -4 -45 -10 -45 -5 0 -10 5 -10 10 0 14 -27
12 -33 -2 -3 -7 -6 -1 -6 15 -1 15 -6 27 -12 27 -6 0 -9 -6 -6 -14 6 -14 -21
-32 -31 -21 -3 3 0 5 6 5 8 0 12 26 12 80 l0 80 43 -1 c23 0 36 -3 30 -6 -18
-7 -16 -23 2 -23 10 0 15 10 15 30 0 29 -2 30 -45 30 -25 0 -45 4 -45 10 0 5
7 7 15 4 8 -4 15 -1 15 5 0 6 -7 11 -15 11 -11 0 -15 12 -15 50 0 49 1 50 30
50 20 0 30 5 30 15 0 8 -7 15 -15 15 -8 0 -15 7 -15 15 0 10 -11 15 -35 15
l-35 0 0 -205 0 -205 80 0 80 0 0 30 c0 23 5 30 19 30 14 0 18 5 14 20 -4 14
0 20 11 20 12 0 16 -9 16 -35 0 -24 5 -35 15 -35 8 0 15 -7 15 -15 0 -8 -7
-15 -15 -15 -8 0 -15 -5 -15 -11 0 -6 7 -9 15 -5 8 3 15 1 15 -4 0 -6 -138
-10 -370 -10 -232 0 -370 4 -370 10 0 5 7 7 15 4 8 -4 15 -1 15 5 0 6 -7 11
-15 11 -8 0 -15 7 -15 15 0 10 10 15 30 15 20 0 30 -5 30 -15 0 -10 10 -15 30
-15 l30 0 0 175 0 175 -30 0 c-20 0 -30 5 -30 15 0 8 7 15 15 15 8 0 15 7 15
15 0 10 10 15 30 15 20 0 30 5 30 15 0 12 16 15 80 15 50 0 80 -4 80 -11 0 -5
5 -7 11 -3 18 11 -11 23 -64 26 -26 2 -47 6 -47 11 0 4 72 7 160 7 88 0 160
-4 160 -8z m-480 -86 c0 -3 -4 -8 -10 -11 -5 -3 -10 -1 -10 4 0 6 5 11 10 11
6 0 10 -2 10 -4z m660 -6 c0 -5 -2 -10 -4 -10 -3 0 -8 5 -11 10 -3 6 -1 10 4
10 6 0 11 -4 11 -10z m-650 -40 c0 -11 -7 -20 -15 -20 -8 0 -15 8 -15 17 0 14
-2 15 -12 4 -10 -11 -10 -14 0 -18 6 -3 12 -18 12 -34 0 -25 4 -29 29 -29 25
0 29 -4 33 -32 6 -56 -4 -208 -13 -202 -5 3 -9 14 -9 26 0 16 -5 19 -23 14
-21 -5 -22 -3 -19 34 3 27 9 40 19 40 11 0 14 -7 9 -24 -3 -14 -2 -28 4 -31 8
-5 13 23 9 63 0 4 -9 6 -20 5 -10 -2 -19 2 -19 7 0 6 -7 10 -15 10 -8 0 -15
-5 -15 -11 0 -5 -4 -7 -10 -4 -5 3 -10 11 -10 16 0 7 20 8 55 4 47 -6 55 -5
55 9 0 9 -4 16 -10 16 -5 0 -7 6 -4 14 3 8 1 17 -5 21 -7 3 -11 -2 -11 -14 0
-12 -7 -21 -15 -21 -10 0 -15 10 -15 30 0 17 -4 30 -10 30 -5 0 -7 7 -4 15 4
8 1 15 -5 15 -6 0 -11 16 -11 35 0 32 2 35 30 35 23 0 30 -4 30 -20z m680 -15
c0 -32 -2 -35 -30 -35 -28 0 -30 3 -30 35 0 32 2 35 30 35 28 0 30 -3 30 -35z
m-641 -32 c1 -19 -2 -21 -21 -14 -12 4 -23 13 -24 20 -1 6 0 7 3 1 2 -5 11
-10 19 -10 17 0 19 27 2 32 -7 3 -8 9 -3 18 7 11 10 10 16 -6 4 -10 8 -29 8
-41z m-114 17 c-3 -5 -10 -10 -16 -10 -5 0 -9 5 -9 10 0 6 7 10 16 10 8 0 12
-4 9 -10z m795 0 c0 -5 -4 -10 -9 -10 -6 0 -13 5 -16 10 -3 6 1 10 9 10 9 0
16 -4 16 -10z m-780 -65 c0 -26 -5 -45 -11 -45 -6 0 -9 7 -5 15 3 9 0 15 -8
15 -8 0 -16 5 -18 10 -1 6 -3 -26 -3 -70 0 -44 2 -75 3 -70 2 6 10 10 18 10 8
0 11 6 8 15 -4 8 -1 15 5 15 7 0 11 -20 11 -50 0 -39 -3 -50 -16 -50 -14 0
-14 -3 -4 -15 10 -12 10 -15 -4 -15 -11 0 -16 9 -16 30 0 20 -5 30 -15 30 -12
0 -15 17 -15 95 0 78 3 95 15 95 8 0 15 7 15 15 0 8 9 15 20 15 17 0 20 -7 20
-45z m782 -2 c1 -37 2 -40 5 -15 9 67 23 28 23 -63 0 -78 -3 -95 -15 -95 -8 0
-15 -7 -15 -15 0 -8 -9 -15 -20 -15 -18 0 -20 7 -20 65 0 36 -4 65 -10 65 -5
0 -7 -7 -4 -15 4 -8 1 -15 -5 -15 -6 0 -11 19 -11 45 0 25 4 45 10 45 5 0 7
-7 4 -15 -4 -8 -1 -15 5 -15 6 0 11 19 11 45 0 38 3 45 20 45 17 0 20 -7 22
-47z m-56 24 c4 -4 -5 -7 -19 -7 -15 0 -27 4 -27 10 0 11 35 8 46 -3z m-819
-114 c-3 -10 -5 -2 -5 17 0 19 2 27 5 18 2 -10 2 -26 0 -35z m930 0 c-3 -10
-5 -2 -5 17 0 19 2 27 5 18 2 -10 2 -26 0 -35z m-57 -133 c0 -5 -7 -10 -16
-10 -8 0 -12 5 -9 10 3 6 10 10 16 10 5 0 9 -4 9 -10z m-252 -67 c-87 -2 -229
-2 -316 0 -86 1 -15 3 158 3 173 0 244 -2 158 -3z"/>
<path d="M308 682 c2 -7 11 -11 18 -8 8 3 14 1 14 -4 0 -6 7 -10 15 -10 8 0
15 -5 15 -10 0 -7 -6 -7 -19 0 -11 5 -31 10 -45 10 l-26 0 0 -190 0 -190 30 0
30 0 0 95 c0 78 3 95 15 95 12 0 15 -17 15 -95 0 -88 1 -95 20 -95 19 0 20 7
20 204 l0 204 -54 4 c-41 2 -52 0 -48 -10z m15 -91 c-3 -23 -1 -41 6 -45 7 -5
11 7 11 38 0 34 4 46 15 46 11 0 15 -12 15 -50 0 -49 -1 -50 -30 -50 -27 0
-30 -3 -30 -30 0 -16 3 -30 8 -30 6 0 7 -164 1 -180 -1 -3 -5 42 -9 100 -7
114 -2 240 10 240 5 0 6 -17 3 -39z m57 -91 c-8 -5 -22 -9 -30 -9 -10 0 -8 3
5 9 27 12 43 12 25 0z"/>
<path d="M438 485 c-2 -132 1 -205 7 -205 6 0 10 75 10 205 0 113 -3 205 -7
205 -4 0 -9 -92 -10 -205z"/>
<path d="M470 485 l0 -205 45 0 45 0 0 205 0 205 -45 0 -45 0 0 -205z m60 15
c0 -136 -2 -160 -15 -160 -13 0 -15 24 -15 160 0 136 2 160 15 160 13 0 15
-24 15 -160z m3 -182 c3 -8 -4 -13 -18 -13 -14 0 -21 5 -18 13 3 6 11 12 18
12 7 0 15 -6 18 -12z"/>
<path d="M575 485 c0 -113 3 -205 8 -205 4 0 7 92 7 205 0 113 -3 205 -7 205
-5 0 -8 -92 -8 -205z"/>
<path d="M745 660 c-3 -5 -1 -10 4 -10 6 0 11 5 11 10 0 6 -2 10 -4 10 -3 0
-8 -4 -11 -10z"/>
<path d="M682 580 c0 -19 2 -27 5 -17 2 9 2 25 0 35 -3 9 -5 1 -5 -18z"/>
<path d="M705 600 c-3 -5 1 -10 10 -10 9 0 13 5 10 10 -3 6 -8 10 -10 10 -2 0
-7 -4 -10 -10z"/>
<path d="M746 533 c-6 -14 -5 -15 5 -6 7 7 10 15 7 18 -3 3 -9 -2 -12 -12z"/>
<path d="M683 400 c0 -30 2 -43 4 -27 2 15 2 39 0 55 -2 15 -4 2 -4 -28z"/>
<path d="M705 330 c3 -5 8 -10 11 -10 2 0 4 5 4 10 0 6 -5 10 -11 10 -5 0 -7
-4 -4 -10z"/>
<path d="M795 320 c-3 -5 -1 -10 4 -10 6 0 11 5 11 10 0 6 -2 10 -4 10 -3 0
-8 -4 -11 -10z"/>
<path d="M840 606 c0 -9 5 -16 10 -16 6 0 10 4 10 9 0 6 -4 13 -10 16 -5 3
-10 -1 -10 -9z"/>
<path d="M0 170 c0 -7 173 -10 500 -10 327 0 500 3 500 10 0 7 -173 10 -500
10 -327 0 -500 -3 -500 -10z"/>
</g>
</svg>
