<?xml version="1.0" standalone="no"?>
<!DOCTYPE svg PUBLIC "-//W3C//DTD SVG 20010904//EN"
 "http://www.w3.org/TR/2001/REC-SVG-20010904/DTD/svg10.dtd">
<svg version="1.0" xmlns="http://www.w3.org/2000/svg"
 width="100.000000pt" height="100.000000pt" viewBox="0 0 100.000000 100.000000"
 preserveAspectRatio="xMidYMid meet">
<metadata>
Created by potrace 1.16, written by Peter Selinger 2001-2019
</metadata>
<g transform="translate(0.000000,100.000000) scale(0.100000,-0.100000)"
fill="#000000" stroke="none">
<path d="M13 993 c-17 -6 -16 -23 1 -23 8 0 16 -7 20 -15 4 -10 -1 -15 -14
-15 -11 0 -20 -7 -20 -15 0 -8 7 -15 15 -15 10 0 15 -11 15 -35 0 -24 -5 -35
-15 -35 -8 0 -15 -7 -15 -15 0 -8 7 -15 15 -15 8 0 15 7 15 15 0 15 25 21 33
8 2 -5 2 -2 0 5 -1 8 -3 40 -3 73 0 44 -4 59 -14 59 -8 0 -16 6 -18 13 -2 8
-9 12 -15 10z"/>
<path d="M90 983 c0 -8 12 -13 35 -13 23 0 35 5 35 13 0 9 -12 14 -35 14 -23
0 -35 -5 -35 -14z"/>
<path d="M190 970 c0 -20 5 -30 15 -30 8 0 15 -7 15 -15 0 -10 -10 -15 -30
-15 -20 0 -30 5 -30 15 0 10 -10 15 -34 15 -30 0 -35 -4 -41 -31 -9 -38 4 -52
41 -46 29 4 28 4 -3 6 -26 1 -33 5 -33 21 0 16 7 20 35 20 31 0 35 -3 35 -25
0 -14 5 -25 11 -25 6 0 9 -17 6 -44 -5 -47 2 -56 46 -56 17 0 19 -3 8 -9 -7
-5 -10 -14 -7 -20 13 -21 26 -11 26 19 0 26 -3 30 -29 30 -28 0 -29 2 -33 51
-1 28 0 56 4 62 7 11 12 -7 11 -40 -1 -7 3 -13 8 -13 5 0 9 -7 9 -15 0 -8 -5
-15 -12 -15 -6 0 -9 -2 -7 -5 3 -2 15 -2 27 2 25 6 30 33 7 33 -10 0 -15 11
-15 35 0 24 5 35 15 35 18 0 20 -36 3 -43 -9 -4 -8 -6 2 -6 25 -1 41 14 34 32
-3 9 -10 17 -15 17 -5 0 -9 7 -9 15 0 8 -7 15 -15 15 -10 0 -15 10 -15 30 0
20 -5 30 -15 30 -10 0 -15 -10 -15 -30z"/>
<path d="M250 985 c0 -8 7 -15 15 -15 8 0 15 7 15 15 0 8 -7 15 -15 15 -8 0
-15 -7 -15 -15z"/>
<path d="M310 974 c0 -14 7 -32 15 -40 13 -14 15 -11 15 25 0 30 -4 41 -15 41
-9 0 -15 -10 -15 -26z"/>
<path d="M530 983 c0 -7 -11 -13 -27 -13 l-28 0 22 -18 c13 -9 26 -32 29 -49
5 -26 12 -33 29 -33 23 0 35 17 35 51 0 21 26 26 32 7 3 -9 6 -9 12 0 4 7 2
12 -3 12 -6 0 -11 7 -11 15 0 8 7 15 15 15 9 0 12 6 9 15 -4 8 -10 15 -15 15
-5 0 -9 -7 -9 -15 0 -8 -7 -15 -15 -15 -8 0 -15 6 -15 13 0 8 -12 14 -30 14
-18 0 -30 -6 -30 -14z m60 -28 c0 -8 -7 -15 -15 -15 -10 0 -15 -10 -15 -32 -1
-31 -1 -32 -15 -14 -8 11 -15 32 -15 48 0 24 4 28 30 28 20 0 30 -5 30 -15z"/>
<path d="M690 985 c0 -8 -7 -15 -16 -15 -14 0 -16 -8 -11 -42 2 -24 3 -37 0
-30 -3 6 -13 12 -24 12 -15 0 -19 -7 -19 -35 0 -28 4 -35 20 -35 11 0 20 7 20
15 0 8 7 15 15 15 8 0 15 -7 15 -15 0 -8 5 -15 11 -15 5 0 7 -5 3 -11 -5 -8
-9 -8 -14 1 -6 9 -11 7 -19 -8 -15 -28 -14 -42 4 -42 8 0 15 7 15 15 0 8 7 15
15 15 18 0 19 -14 5 -41 -7 -13 -7 -19 0 -19 5 0 10 7 10 15 0 8 7 15 15 15 8
0 15 -7 15 -15 0 -8 5 -15 10 -15 14 0 12 28 -2 32 -10 4 -10 10 -1 30 9 21 9
27 -1 31 -10 4 -12 -1 -9 -14 4 -13 0 -19 -11 -19 -11 0 -16 9 -16 30 0 20 5
30 15 30 8 0 15 9 15 20 0 11 7 20 15 20 8 0 15 7 15 15 0 8 7 15 15 15 10 0
15 10 15 30 0 17 -4 30 -10 30 -5 0 -10 -11 -10 -25 0 -14 -4 -24 -9 -22 -11
3 -49 -39 -56 -64 -11 -33 -35 -22 -35 15 0 19 -5 36 -12 38 -9 3 -9 6 0 12 7
4 12 2 12 -3 0 -6 7 -11 15 -11 17 0 18 4 9 38 -7 25 -24 30 -24 7z"/>
<path d="M720 985 c0 -8 7 -15 15 -15 8 0 15 7 15 15 0 8 -7 15 -15 15 -8 0
-15 -7 -15 -15z"/>
<path d="M771 984 c0 -11 3 -14 6 -6 3 7 2 16 -1 19 -3 4 -6 -2 -5 -13z"/>
<path d="M840 986 c0 -9 5 -16 10 -16 6 0 10 4 10 9 0 6 -4 13 -10 16 -5 3
-10 -1 -10 -9z"/>
<path d="M870 985 c0 -8 9 -15 20 -15 11 0 20 7 20 15 0 8 -9 15 -20 15 -11 0
-20 -7 -20 -15z"/>
<path d="M940 971 c0 -16 -5 -31 -11 -33 -9 -3 -9 -12 -1 -33 l10 -30 1 33 c1
47 31 44 31 -3 0 -32 -2 -35 -30 -35 -16 0 -30 5 -30 10 0 6 -11 10 -25 10
-18 0 -25 5 -25 19 0 25 -10 51 -20 51 -5 0 -6 -18 -3 -41 4 -27 2 -44 -7 -49
-8 -5 -9 -9 -1 -14 6 -4 11 -2 11 3 0 6 16 11 35 11 32 0 35 -2 35 -30 0 -16
-4 -30 -9 -30 -5 0 -8 -11 -8 -25 0 -27 4 -30 27 -15 10 6 11 10 3 10 -7 0
-13 7 -13 15 0 8 4 15 9 15 5 0 11 10 13 22 2 15 13 25 34 31 26 8 30 13 30
43 0 21 -5 34 -13 34 -13 0 -17 11 -14 43 1 9 -4 17 -13 17 -11 0 -16 -9 -16
-29z"/>
<path d="M370 515 l0 -455 50 0 50 0 0 35 c0 19 -4 35 -10 35 -5 0 -7 -6 -4
-14 3 -8 1 -23 -5 -33 -7 -13 -10 108 -11 420 l0 437 -31 0 c-16 0 -28 4 -25
9 3 5 20 8 37 6 29 -2 32 -6 35 -40 5 -57 14 -55 14 3 l0 52 -50 0 -50 0 0
-455z m41 408 c1 -5 2 -54 4 -110 3 -79 0 -105 -11 -114 -11 -9 -14 -8 -14 5
0 9 5 16 10 16 6 0 10 7 10 15 0 8 -4 15 -10 15 -5 0 -10 20 -10 45 0 25 5 45
10 45 14 0 12 28 -2 33 -10 3 -10 7 1 20 9 11 10 17 2 17 -6 0 -11 5 -11 10 0
12 19 14 21 3z m5 -438 c1 -166 -2 -205 -12 -205 -8 0 -14 7 -14 15 0 8 5 15
10 15 6 0 10 16 10 35 0 19 -4 35 -10 35 -5 0 -10 14 -10 30 0 17 5 30 10 30
6 0 10 7 10 15 0 8 -4 15 -10 15 -5 0 -10 7 -10 15 0 8 5 15 10 15 6 0 10 7
10 15 0 8 -4 15 -10 15 -5 0 -10 7 -10 15 0 8 5 15 10 15 6 0 10 7 10 15 0 8
-4 15 -10 15 -5 0 -10 16 -10 35 0 19 5 35 10 35 6 0 10 7 10 15 0 8 1 15 3
15 1 0 2 -92 3 -205z m6 -267 c-3 -19 -9 -28 -20 -26 -21 4 -28 28 -8 28 9 0
16 7 16 15 0 8 -4 15 -10 15 -5 0 -10 5 -10 10 0 6 7 6 18 -1 13 -8 17 -20 14
-41z m8 -73 c0 -8 -4 -15 -10 -15 -5 0 -10 7 -10 15 0 8 5 15 10 15 6 0 10 -7
10 -15z m-20 -65 c0 -5 -7 -7 -15 -4 -8 4 -15 8 -15 10 0 2 7 4 15 4 8 0 15
-4 15 -10z"/>
<path d="M280 925 c0 -8 7 -15 15 -15 8 0 15 7 15 15 0 8 -7 15 -15 15 -8 0
-15 -7 -15 -15z"/>
<path d="M487 893 c-3 -26 -1 -56 3 -67 6 -15 9 0 9 47 1 37 -1 67 -3 67 -2 0
-6 -21 -9 -47z"/>
<path d="M870 925 c0 -8 9 -15 20 -15 11 0 20 7 20 15 0 8 -9 15 -20 15 -11 0
-20 -7 -20 -15z"/>
<path d="M705 920 c-3 -5 -1 -10 4 -10 6 0 11 5 11 10 0 6 -2 10 -4 10 -3 0
-8 -4 -11 -10z"/>
<path d="M797 923 c-3 -5 -2 -15 2 -22 5 -7 11 -9 14 -4 3 5 2 15 -2 22 -5 7
-11 9 -14 4z"/>
<path d="M344 810 c0 -58 1 -81 3 -52 2 28 2 76 0 105 -2 28 -3 5 -3 -53z"/>
<path d="M295 880 c-3 -5 -1 -10 4 -10 6 0 11 5 11 10 0 6 -2 10 -4 10 -3 0
-8 -4 -11 -10z"/>
<path d="M777 872 c1 -8 3 -65 3 -128 0 -68 4 -114 10 -114 6 0 7 18 3 45 -4
31 -2 45 6 45 6 0 11 -4 11 -9 0 -5 14 -4 30 2 27 10 30 16 30 54 0 32 -4 43
-15 43 -11 0 -15 -12 -15 -45 0 -35 -4 -45 -16 -45 -16 0 -16 13 2 73 3 9 1
17 -5 17 -6 0 -11 -13 -11 -30 0 -16 -4 -30 -8 -30 -4 0 -7 19 -7 43 0 26 4
41 12 40 6 -1 9 6 6 17 -3 11 -11 20 -18 20 -7 0 -15 3 -18 8 -2 4 -2 1 0 -6z"/>
<path d="M590 841 c0 -16 5 -31 12 -33 9 -3 9 -6 0 -12 -7 -4 -12 -2 -12 3 0
6 -7 11 -15 11 -8 0 -15 -7 -15 -15 0 -8 -4 -15 -10 -15 -5 0 -7 7 -4 15 4 8
1 15 -5 15 -6 0 -11 -13 -11 -30 0 -20 -5 -30 -15 -30 -10 0 -15 -10 -15 -30
0 -20 5 -30 15 -30 8 0 15 7 15 15 0 8 7 15 15 15 8 0 15 7 15 15 0 8 7 15 15
15 8 0 15 7 15 15 0 8 7 15 15 15 10 0 15 10 15 30 0 17 -4 30 -10 30 -5 0 -7
7 -4 15 4 8 1 15 -5 15 -6 0 -11 -13 -11 -29z"/>
<path d="M461 808 c0 -31 2 -59 7 -61 4 -3 6 16 4 41 -5 73 -10 82 -11 20z"/>
<path d="M90 735 c0 -63 4 -105 10 -105 15 0 12 -29 -5 -46 -13 -14 -15 -8
-16 53 -1 37 -4 93 -8 123 -5 37 -9 -23 -12 -187 -2 -133 -1 -239 3 -235 9 9
28 118 28 159 0 26 4 33 20 33 19 0 20 7 20 146 0 100 3 143 11 139 6 -4 8
-13 5 -21 -3 -8 -1 -14 4 -14 6 0 10 14 10 30 0 28 -3 30 -35 30 l-35 0 0
-105z m26 -12 c-10 -10 -19 5 -10 18 6 11 8 11 12 0 2 -7 1 -15 -2 -18z m4
-167 c0 -2 -9 -6 -20 -9 -11 -3 -20 -1 -20 4 0 5 9 9 20 9 11 0 20 -2 20 -4z"/>
<path d="M301 824 c0 -11 3 -14 6 -6 3 7 2 16 -1 19 -3 4 -6 -2 -5 -13z"/>
<path d="M560 829 c0 -5 5 -7 10 -4 6 3 10 8 10 11 0 2 -4 4 -10 4 -5 0 -10
-5 -10 -11z"/>
<path d="M840 830 c0 -5 7 -10 15 -10 8 0 15 5 15 10 0 6 -7 10 -15 10 -8 0
-15 -4 -15 -10z"/>
<path d="M940 764 c0 -65 2 -75 16 -70 9 3 22 6 30 6 8 0 14 5 14 10 0 6 -7
10 -15 10 -9 0 -15 9 -15 24 0 14 -4 28 -10 31 -16 10 -5 50 13 47 8 -1 18 2
22 8 4 6 -6 10 -24 10 l-31 0 0 -76z"/>
<path d="M645 820 c-3 -5 -1 -10 4 -10 6 0 11 5 11 10 0 6 -2 10 -4 10 -3 0
-8 -4 -11 -10z"/>
<path d="M970 795 c0 -8 7 -15 15 -15 8 0 15 7 15 15 0 8 -7 15 -15 15 -8 0
-15 -7 -15 -15z"/>
<path d="M30 790 c0 -5 -7 -10 -16 -10 -14 0 -14 -3 -4 -15 9 -10 9 -15 1 -15
-18 0 -13 -27 7 -32 14 -4 17 2 17 39 0 23 -1 43 -2 43 -2 0 -3 -4 -3 -10z"/>
<path d="M296 791 c-4 -6 -2 -11 4 -11 8 0 10 -10 6 -27 -5 -25 -4 -26 5 -7
12 24 -2 66 -15 45z"/>
<path d="M625 765 c-3 -8 -7 -22 -10 -30 -3 -11 3 -15 20 -15 21 0 25 5 25 30
0 32 -26 43 -35 15z"/>
<path d="M160 720 c0 -16 5 -30 11 -30 5 0 9 8 7 18 -1 9 1 23 5 30 5 8 3 12
-7 12 -11 0 -16 -9 -16 -30z"/>
<path d="M264 735 c3 -8 1 -15 -4 -15 -15 0 -12 -19 5 -36 13 -14 15 -11 15
25 0 23 -5 41 -11 41 -6 0 -9 -7 -5 -15z"/>
<path d="M890 735 c10 -12 10 -15 -4 -15 -11 0 -16 -9 -16 -30 0 -23 4 -30 20
-30 17 0 20 7 20 45 0 35 -4 45 -16 45 -14 0 -14 -3 -4 -15z"/>
<path d="M574 708 c-6 -28 -8 -30 -14 -14 -6 19 -7 19 -12 -2 -5 -19 -9 -20
-39 -12 -42 12 -39 13 -39 -5 0 -12 13 -15 60 -15 l60 0 0 40 c0 48 -6 51 -16
8z"/>
<path d="M190 690 c0 -20 5 -30 15 -30 10 0 15 -11 15 -35 0 -32 -2 -35 -30
-35 -28 0 -30 3 -30 35 0 19 5 35 11 35 5 0 7 5 4 10 -4 7 -11 6 -18 -2 -14
-15 -17 -138 -4 -138 5 0 7 -23 5 -50 -2 -35 1 -50 10 -50 6 0 12 -4 12 -10 0
-5 -4 -10 -10 -10 -5 0 -10 -16 -10 -35 0 -35 23 -50 33 -22 3 6 2 -7 0 -30
-5 -35 -3 -43 11 -43 12 0 16 -10 16 -45 0 -35 4 -45 16 -45 14 0 14 3 4 15
-11 13 -8 15 14 15 22 0 26 4 26 30 0 20 -5 30 -15 30 -8 0 -15 7 -15 15 0 18
-27 20 -32 3 -3 -9 -6 -9 -12 0 -4 7 -2 12 3 12 6 0 11 16 11 35 0 24 5 35 15
35 10 0 15 10 15 30 0 20 5 30 15 30 8 0 15 7 15 15 0 8 -6 15 -14 15 -8 0
-17 6 -20 13 -3 6 -3 0 0 -15 5 -21 2 -28 -10 -28 -13 0 -16 12 -16 60 0 41 4
60 13 60 8 0 13 20 14 65 1 51 -1 65 -13 65 -8 0 -14 7 -14 15 0 8 -7 15 -15
15 -10 0 -15 -10 -15 -30z m0 -135 c0 -14 5 -25 10 -25 7 0 7 -7 0 -20 -6 -12
-8 -31 -4 -43 6 -20 5 -20 -10 -8 -12 10 -15 23 -11 42 3 15 1 30 -4 34 -17
10 -13 45 4 45 9 0 15 -9 15 -25z m34 -130 c11 -8 14 -15 8 -15 -7 0 -12 -7
-12 -15 0 -8 -8 -15 -18 -15 -15 0 -18 6 -14 30 5 34 9 35 36 15z"/>
<path d="M301 698 c-1 -21 3 -26 15 -21 9 3 20 0 25 -8 7 -11 9 -11 9 4 0 10
-8 17 -19 17 -11 0 -22 8 -24 18 -3 10 -5 7 -6 -10z"/>
<path d="M465 710 c3 -5 8 -10 11 -10 2 0 4 5 4 10 0 6 -5 10 -11 10 -5 0 -7
-4 -4 -10z"/>
<path d="M690 705 c0 -19 -66 -21 -74 -2 -3 6 -3 0 0 -14 6 -29 -7 -43 -48
-53 -21 -5 -26 -10 -20 -24 6 -16 7 -16 10 1 2 9 10 17 18 17 10 0 14 -13 14
-50 0 -28 -5 -50 -10 -50 -7 0 -7 -7 0 -20 6 -12 9 -31 6 -43 -3 -12 -3 -16 0
-9 3 6 12 12 20 12 8 0 14 6 14 14 0 8 8 16 17 18 14 3 15 5 2 18 -27 30 -43
64 -30 68 6 2 11 19 11 38 0 32 2 34 35 34 24 0 35 5 35 15 0 8 7 15 15 15 32
0 13 -27 -27 -41 -39 -12 -41 -14 -16 -17 21 -2 28 -9 30 -30 l3 -27 14 24
c11 20 11 25 0 32 -9 5 -10 9 -3 9 17 0 25 27 18 56 -7 26 -34 33 -34 9z m-70
-190 c0 -8 -7 -15 -15 -15 -8 0 -15 7 -15 15 0 8 7 15 15 15 8 0 15 -7 15 -15z"/>
<path d="M750 652 c0 -61 2 -68 20 -68 11 0 20 6 20 14 0 7 -4 10 -10 7 -10
-6 -15 34 -12 88 1 15 -2 27 -8 27 -6 0 -10 -29 -10 -68z"/>
<path d="M2 660 c0 -20 4 -30 14 -30 9 0 14 11 14 30 0 18 -5 30 -13 30 -9 0
-14 -12 -15 -30z"/>
<path d="M812 648 c5 -59 28 -63 28 -4 0 35 -4 46 -16 46 -12 0 -15 -9 -12
-42z"/>
<path d="M970 660 c0 -19 5 -30 14 -30 10 0 14 10 14 30 -1 18 -6 30 -15 30
-8 0 -13 -12 -13 -30z"/>
<path d="M256 638 c-9 -36 -7 -48 9 -48 10 0 15 11 15 35 0 39 -14 47 -24 13z"/>
<path d="M293 625 c-2 -19 2 -35 7 -35 6 0 10 16 10 35 0 45 -14 45 -17 0z"/>
<path d="M175 640 c-3 -5 1 -10 10 -10 9 0 13 5 10 10 -3 6 -8 10 -10 10 -2 0
-7 -4 -10 -10z"/>
<path d="M460 640 c0 -5 9 -10 20 -10 16 0 20 -7 20 -35 0 -32 2 -35 30 -35
20 0 30 5 30 15 0 8 -7 15 -15 15 -10 0 -15 10 -15 33 0 25 -3 29 -11 17 -8
-11 -12 -12 -16 -2 -6 14 -43 16 -43 2z"/>
<path d="M871 624 c1 -17 3 -22 6 -11 2 9 11 17 19 17 10 0 14 -14 14 -54 0
-49 -2 -54 -20 -49 -14 4 -20 14 -20 34 0 26 -3 29 -31 29 -30 0 -31 -2 -27
-34 3 -24 0 -32 -9 -29 -6 3 -9 11 -6 19 3 8 0 14 -7 14 -9 0 -11 -23 -9 -83
3 -69 2 -81 -9 -70 -7 7 -10 18 -7 24 11 16 -16 99 -31 99 -8 0 -14 -5 -14
-11 0 -5 -4 -7 -10 -4 -19 12 -10 21 28 32 l37 10 -57 2 c-44 1 -58 5 -58 16
0 8 -9 15 -20 15 -11 0 -20 -7 -20 -15 0 -8 9 -15 20 -15 16 0 20 -7 20 -30 0
-29 2 -30 45 -30 l45 0 0 -110 c0 -81 3 -110 13 -110 8 0 8 -3 -2 -9 -8 -5
-20 -7 -27 -4 -6 2 -18 -5 -26 -16 -8 -12 -18 -18 -21 -14 -4 3 -7 1 -7 -5 0
-7 7 -12 15 -12 8 0 15 -8 15 -18 0 -10 5 -23 12 -30 9 -9 9 -12 -1 -12 -8 0
-11 -6 -7 -15 3 -8 1 -15 -4 -15 -5 0 -7 -7 -4 -15 3 -8 -1 -21 -9 -29 -13
-13 -14 -9 -9 31 5 45 5 45 -24 41 -16 -3 -23 -3 -16 -1 6 3 12 18 12 34 0 22
-5 29 -20 29 -16 0 -20 7 -20 30 0 21 -5 30 -16 30 -9 0 -14 -6 -11 -13 3 -8
1 -20 -4 -28 -5 -8 -6 9 -3 44 5 48 3 57 -10 57 -12 0 -16 10 -16 35 0 24 -5
35 -15 35 -10 0 -15 10 -15 30 0 20 -5 30 -15 30 -11 0 -15 -12 -15 -45 0 -32
4 -45 14 -45 8 0 16 5 18 12 3 9 6 9 12 0 4 -7 2 -12 -3 -12 -6 0 -11 -21 -11
-50 0 -27 4 -50 10 -50 5 0 7 6 4 14 -3 7 1 16 8 18 10 4 12 -6 10 -43 -3 -40
-1 -49 12 -49 12 0 16 -10 16 -45 0 -25 4 -45 9 -45 5 0 9 6 8 12 -2 51 4 67
20 61 11 -4 12 -8 5 -11 -15 -5 -17 -132 -2 -132 5 0 8 16 6 35 -1 24 2 35 11
35 9 0 13 -19 15 -67 0 -38 3 -53 5 -35 5 40 23 42 23 2 0 -21 5 -30 16 -30 8
0 12 4 9 10 -3 5 -1 18 4 27 9 16 10 14 11 -9 0 -16 5 -28 10 -28 6 0 10 13
10 30 0 20 -5 30 -15 30 -10 0 -15 11 -15 35 0 24 5 35 15 35 10 0 15 10 15
30 0 20 -5 30 -15 30 -10 0 -15 10 -15 30 0 27 3 30 30 30 l30 0 0 65 c0 37 4
65 10 65 6 0 10 -32 10 -75 0 -43 -4 -75 -10 -75 -5 0 -10 -11 -10 -25 0 -23
2 -24 20 -15 11 6 24 9 29 6 5 -3 14 1 21 9 11 13 8 15 -14 15 l-26 0 0 140 0
140 60 0 c49 0 58 3 54 15 -4 8 -1 15 5 15 7 0 11 20 11 49 0 38 -4 50 -17 54
-10 2 -26 8 -35 12 -15 6 -18 2 -17 -21z m-11 -85 c0 -16 -4 -29 -10 -29 -5 0
-10 16 -10 36 0 21 4 33 10 29 6 -3 10 -19 10 -36z m-170 1 c0 -5 -5 -10 -11
-10 -5 0 -7 5 -4 10 3 6 8 10 11 10 2 0 4 -4 4 -10z"/>
<path d="M326 615 c4 -8 8 -15 10 -15 2 0 4 7 4 15 0 8 -4 15 -10 15 -5 0 -7
-7 -4 -15z"/>
<path d="M464 570 c1 -44 1 -45 35 -45 19 0 36 -6 38 -12 3 -7 -3 -13 -12 -13
-9 0 -13 -5 -10 -11 4 -6 10 -8 13 -4 3 3 12 -5 19 -17 11 -22 12 -20 13 20 0
30 -4 42 -14 42 -8 0 -16 6 -19 13 -4 10 -7 10 -18 0 -24 -24 -38 -14 -42 30
l-4 42 1 -45z"/>
<path d="M960 618 c-5 -17 -10 -68 -16 -150 -5 -77 -4 -88 10 -88 14 0 16 -15
16 -95 0 -74 3 -95 14 -95 10 0 13 13 11 49 -1 27 -5 54 -9 60 -4 6 -3 11 2
11 6 0 10 15 9 34 -1 25 -6 36 -20 40 -13 3 -18 10 -13 21 3 9 6 55 6 101 0
68 3 84 15 84 8 0 15 5 15 11 0 6 -6 9 -14 6 -8 -3 -17 -1 -20 6 -2 7 -5 9 -6
5z"/>
<path d="M6 601 c-4 -5 0 -12 6 -14 10 -4 10 -6 1 -6 -18 -1 -16 -21 1 -21 8
0 17 -6 19 -12 4 -11 3 24 -2 55 -1 10 -19 9 -25 -2z"/>
<path d="M290 575 c-19 -7 -32 -14 -27 -14 4 -1 -2 -10 -13 -21 -22 -22 -26
-40 -10 -40 6 0 10 7 10 15 0 8 7 15 15 15 8 0 15 7 15 15 0 10 11 15 35 15
24 0 35 5 35 15 0 18 -13 18 -60 0z"/>
<path d="M720 579 c0 -5 5 -7 10 -4 6 3 10 8 10 11 0 2 -4 4 -10 4 -5 0 -10
-5 -10 -11z"/>
<path d="M296 533 c6 -4 14 -15 17 -23 5 -11 6 -9 4 4 -1 11 -9 21 -17 23 -10
3 -11 2 -4 -4z"/>
<path d="M30 485 c0 -35 -4 -45 -16 -45 -14 0 -14 -3 -4 -15 7 -8 8 -15 3 -15
-5 0 -9 -36 -9 -80 0 -54 4 -80 12 -80 7 0 14 -6 17 -13 7 -19 -8 -41 -22 -33
-6 4 -11 2 -11 -3 0 -6 13 -11 30 -11 24 0 30 4 30 23 0 12 2 31 4 42 2 11 1
14 -1 8 -3 -7 -12 -13 -20 -13 -14 0 -15 15 -10 118 3 64 9 127 13 140 4 13 2
22 -5 22 -6 0 -11 -19 -11 -45z"/>
<path d="M344 425 c0 -60 1 -84 3 -52 2 32 2 81 0 110 -2 29 -3 3 -3 -58z"/>
<path d="M1 484 c0 -11 3 -14 6 -6 3 7 2 16 -1 19 -3 4 -6 -2 -5 -13z"/>
<path d="M114 470 c2 -20 -1 -30 -10 -30 -11 0 -14 -24 -14 -110 l0 -110 35 0
c35 0 35 0 35 45 0 25 5 45 11 45 5 0 7 5 3 12 -5 8 -12 1 -21 -20 -8 -18 -11
-37 -8 -42 3 -5 1 -11 -5 -15 -7 -4 -10 38 -10 124 0 79 -4 131 -10 131 -5 0
-8 -13 -6 -30z"/>
<path d="M470 420 c0 -44 -3 -80 -7 -80 -5 0 -8 -13 -8 -30 0 -16 4 -30 9 -30
4 0 5 -12 1 -27 -13 -47 -12 -92 1 -97 7 -3 17 -20 23 -38 l9 -33 1 38 c1 27
-3 37 -14 37 -11 0 -15 12 -15 45 0 44 14 61 23 28 4 -14 7 26 7 82 0 3 -3 5
-7 5 -5 -1 -7 -10 -5 -20 2 -11 -2 -20 -7 -20 -6 0 -11 14 -11 30 0 25 4 30
25 30 25 0 34 14 16 24 -5 4 -11 0 -14 -6 -2 -7 -8 4 -12 24 -4 22 -3 51 4 69
14 42 14 49 -4 49 -12 0 -15 -16 -15 -80z"/>
<path d="M720 471 c0 -25 6 -27 13 -6 4 8 2 17 -3 20 -6 4 -10 -3 -10 -14z"/>
<path d="M870 415 c0 -55 3 -75 13 -75 10 0 12 12 7 50 -4 28 -3 50 0 50 4 0
5 11 2 25 -9 51 -22 23 -22 -50z"/>
<path d="M303 473 c-15 -6 -17 -33 -3 -33 6 0 10 -13 10 -30 0 -16 -5 -30 -11
-30 -5 0 -7 -5 -4 -10 4 -6 12 -4 21 5 13 12 13 21 4 50 -6 19 -9 39 -5 45 7
11 6 11 -12 3z"/>
<path d="M660 463 c0 -12 -6 -24 -12 -26 -8 -4 -9 -6 -2 -6 20 -2 39 28 26 41
-9 9 -12 7 -12 -9z"/>
<path d="M838 473 c7 -3 16 -2 19 1 4 3 -2 6 -13 5 -11 0 -14 -3 -6 -6z"/>
<path d="M912 460 c0 -14 2 -19 5 -12 2 6 2 18 0 25 -3 6 -5 1 -5 -13z"/>
<path d="M690 440 c0 -16 4 -30 9 -30 5 0 9 14 9 30 -1 17 -5 30 -10 30 -4 0
-8 -13 -8 -30z"/>
<path d="M550 429 c0 -5 4 -8 9 -4 11 6 34 -31 27 -44 -6 -9 30 -51 44 -51 6
0 10 -11 10 -25 0 -14 5 -25 10 -25 14 0 12 -28 -2 -32 -9 -3 -9 -6 0 -12 7
-4 12 -2 12 3 0 6 7 11 15 11 8 0 15 7 15 15 0 8 9 15 20 15 11 0 20 7 20 15
0 8 -4 15 -10 15 -5 0 -10 5 -10 11 0 5 4 8 9 5 12 -8 21 72 11 98 -7 16 -9 8
-9 -31 -1 -40 -5 -53 -16 -53 -10 0 -15 -10 -15 -30 0 -20 -5 -30 -15 -30 -11
0 -15 12 -15 50 0 30 -4 50 -11 50 -6 0 -9 -9 -6 -20 3 -13 0 -20 -9 -20 -9 0
-14 12 -14 35 0 24 -5 35 -15 35 -8 0 -15 7 -15 15 0 8 -9 15 -20 15 -11 0
-20 -5 -20 -11z"/>
<path d="M605 430 c3 -5 8 -10 11 -10 2 0 4 5 4 10 0 6 -5 10 -11 10 -5 0 -7
-4 -4 -10z"/>
<path d="M830 426 c0 -9 5 -16 10 -16 6 0 10 4 10 9 0 6 -4 13 -10 16 -5 3
-10 -1 -10 -9z"/>
<path d="M985 430 c3 -5 8 -10 11 -10 2 0 4 5 4 10 0 6 -5 10 -11 10 -5 0 -7
-4 -4 -10z"/>
<path d="M910 383 c0 -36 3 -43 20 -43 24 0 27 15 4 24 -8 3 -12 10 -9 16 3 5
1 18 -4 27 -8 14 -10 9 -11 -24z"/>
<path d="M645 400 c3 -5 8 -10 11 -10 2 0 4 5 4 10 0 6 -5 10 -11 10 -5 0 -7
-4 -4 -10z"/>
<path d="M830 390 c0 -5 5 -10 11 -10 5 0 7 5 4 10 -3 6 -8 10 -11 10 -2 0 -4
-4 -4 -10z"/>
<path d="M250 366 c0 -8 -3 -23 -6 -33 -5 -14 -4 -15 4 -4 15 20 42 -3 35 -29
-6 -22 22 -29 29 -8 3 9 6 9 12 0 4 -7 2 -12 -3 -12 -6 0 -11 -6 -11 -14 0 -8
-5 -16 -11 -18 -5 -2 -13 -22 -16 -46 -6 -42 -5 -42 26 -42 29 0 31 -2 31 -37
0 -47 7 -40 11 12 3 36 2 40 -18 37 -12 -2 -24 2 -28 8 -4 6 5 10 23 10 25 0
29 4 30 30 0 17 -4 30 -9 30 -5 0 -9 14 -9 30 0 20 -5 30 -15 30 -8 0 -15 7
-15 15 0 8 -7 15 -15 15 -8 0 -15 9 -15 20 0 11 -7 20 -15 20 -8 0 -15 -6 -15
-14z m90 -131 c0 -8 -7 -15 -15 -15 -8 0 -15 7 -15 15 0 8 7 15 15 15 8 0 15
-7 15 -15z"/>
<path d="M691 364 c0 -11 3 -14 6 -6 3 7 2 16 -1 19 -3 4 -6 -2 -5 -13z"/>
<path d="M820 329 c0 -6 6 -17 14 -24 12 -12 14 -11 12 10 -1 24 -26 37 -26
14z"/>
<path d="M911 308 c-1 -16 4 -28 9 -28 12 0 12 8 0 35 -8 18 -9 17 -9 -7z"/>
<path d="M940 257 c0 -37 4 -67 8 -67 10 0 7 118 -2 127 -3 4 -6 -24 -6 -60z"/>
<path d="M870 295 c0 -8 -7 -15 -15 -15 -8 0 -15 -7 -15 -15 0 -8 6 -15 14
-15 8 0 16 -5 18 -12 3 -8 9 -8 24 0 18 11 18 11 -3 12 -14 0 -23 6 -23 15 0
8 7 15 15 15 9 0 12 6 9 15 -4 8 -10 15 -15 15 -5 0 -9 -7 -9 -15z"/>
<path d="M179 243 c-1 -10 -1 -22 0 -26 1 -4 -5 -10 -13 -13 -8 -3 -12 -13 -9
-25 3 -11 0 -19 -6 -19 -8 0 -9 -5 -1 -19 5 -11 10 -33 10 -50 0 -29 -3 -31
-35 -31 -33 0 -35 2 -35 35 0 25 4 35 16 35 10 0 13 -6 10 -17 -3 -10 -1 -25
4 -33 7 -11 10 0 10 37 0 44 -3 51 -16 46 -9 -3 -20 0 -24 7 -5 8 -9 9 -14 1
-4 -6 -2 -11 3 -11 6 0 11 -7 11 -15 0 -10 -10 -15 -30 -15 -19 0 -30 -5 -30
-14 0 -9 8 -12 26 -8 20 4 25 1 22 -9 -3 -8 -15 -13 -26 -11 -15 2 -22 -2 -22
-12 0 -11 10 -16 31 -16 28 0 30 -3 26 -28 -2 -15 -2 -22 0 -16 2 7 14 14 27
16 19 4 22 1 18 -14 -3 -12 1 -18 12 -18 10 0 16 8 16 21 0 33 22 99 31 94 4
-3 6 -17 3 -30 -3 -18 0 -25 11 -25 8 0 15 -7 15 -15 0 -8 7 -15 15 -15 8 0
15 -7 15 -15 0 -22 27 -19 33 4 3 14 0 17 -14 14 -13 -4 -19 0 -19 11 0 11 9
16 30 16 20 0 30 5 30 15 0 18 -26 20 -33 3 -4 -10 -6 -10 -6 0 -1 17 -21 15
-21 -3 0 -8 -7 -15 -15 -15 -10 0 -15 11 -15 35 0 31 3 35 28 36 26 0 27 0 4
10 -13 5 -21 13 -17 18 3 5 1 12 -5 16 -6 4 -10 -5 -10 -19 0 -18 -5 -26 -18
-26 -15 0 -17 7 -12 65 3 36 2 65 -2 65 -5 0 -9 -8 -9 -17z"/>
<path d="M518 208 c-5 -11 -3 -18 4 -18 7 0 9 -18 5 -52 -3 -29 -3 -44 0 -33
3 11 12 29 19 40 13 18 14 17 14 -13 0 -19 7 -40 15 -48 13 -14 15 -13 15 4 0
10 -7 33 -16 51 -9 17 -14 38 -11 45 4 9 0 12 -13 9 -12 -3 -19 1 -22 14 -3
17 -4 17 -10 1z"/>
<path d="M870 205 c0 -10 10 -15 30 -15 20 0 30 5 30 15 0 10 -10 15 -30 15
-20 0 -30 -5 -30 -15z"/>
<path d="M74 199 c-3 -5 9 -9 25 -9 17 0 31 2 31 4 0 8 -51 13 -56 5z"/>
<path d="M491 184 c0 -11 3 -14 6 -6 3 7 2 16 -1 19 -3 4 -6 -2 -5 -13z"/>
<path d="M15 170 c-17 -7 -15 -9 13 -9 17 -1 32 4 32 9 0 12 -17 12 -45 0z"/>
<path d="M978 163 c7 -3 16 -2 19 1 4 3 -2 6 -13 5 -11 0 -14 -3 -6 -6z"/>
<path d="M770 150 c0 -5 7 -7 15 -4 8 4 15 8 15 10 0 2 -7 4 -15 4 -8 0 -15
-4 -15 -10z"/>
<path d="M810 145 c0 -8 7 -15 15 -15 8 0 15 4 15 10 0 5 7 7 15 4 8 -4 15 -1
15 5 0 6 -13 11 -30 11 -20 0 -30 -5 -30 -15z"/>
<path d="M280 120 c0 -11 7 -20 15 -20 8 0 15 9 15 20 0 11 -7 20 -15 20 -8 0
-15 -9 -15 -20z"/>
<path d="M765 110 c5 -14 2 -20 -9 -20 -9 0 -16 -4 -16 -8 0 -4 9 -8 20 -8 15
0 20 7 20 28 0 15 -5 28 -11 28 -6 0 -8 -9 -4 -20z"/>
<path d="M840 110 c0 -13 7 -20 20 -20 13 0 18 5 13 15 -4 12 0 15 21 11 14
-2 28 0 31 5 4 5 -14 9 -39 9 -39 0 -46 -3 -46 -20z"/>
<path d="M940 110 c0 -25 17 -26 23 -2 3 9 5 -12 6 -48 2 -54 4 -61 12 -40 6
13 8 39 6 57 -3 18 -1 33 4 33 5 0 9 5 9 10 0 6 -13 10 -30 10 -23 0 -30 -4
-30 -20z"/>
<path d="M795 80 c3 -5 8 -10 11 -10 2 0 4 5 4 10 0 6 -5 10 -11 10 -5 0 -7
-4 -4 -10z"/>
<path d="M323 63 c-19 -7 -17 -63 2 -63 10 0 15 11 15 35 0 19 -1 35 -2 34 -2
0 -9 -3 -15 -6z"/>
<path d="M488 58 c-4 -9 -17 -18 -30 -21 -17 -3 -15 -5 10 -6 23 -1 32 -6 32
-18 0 -9 3 -14 6 -11 3 3 1 21 -3 39 -7 25 -11 29 -15 17z"/>
<path d="M530 30 c0 -20 5 -30 15 -30 10 0 15 10 15 30 0 20 -5 30 -15 30 -10
0 -15 -10 -15 -30z"/>
<path d="M590 30 c0 -17 4 -30 10 -30 5 0 7 7 4 15 -4 11 0 15 16 15 19 0 20
2 10 15 -21 25 -40 18 -40 -15z"/>
<path d="M766 45 c4 -8 10 -13 14 -10 5 3 6 -4 3 -15 -4 -14 0 -20 11 -20 11
0 16 9 16 30 0 25 -4 30 -25 30 -17 0 -23 -4 -19 -15z"/>
<path d="M828 30 c2 -17 6 -30 8 -30 2 0 4 13 4 30 0 17 -4 30 -8 30 -5 0 -7
-13 -4 -30z"/>
<path d="M870 30 c0 -17 5 -30 10 -30 6 0 10 12 10 26 0 23 3 25 25 20 14 -4
25 -2 25 4 0 5 -16 10 -35 10 -32 0 -35 -2 -35 -30z"/>
<path d="M370 18 c0 -11 7 -16 20 -15 11 1 20 7 20 13 0 7 6 14 13 17 6 2 -3
4 -20 3 -24 -1 -33 -6 -33 -18z"/>
<path d="M11 26 c2 -2 14 -9 27 -15 18 -10 22 -9 22 4 0 10 -9 15 -27 15 -14
0 -24 -2 -22 -4z"/>
<path d="M170 21 c0 -6 5 -13 10 -16 6 -3 10 1 10 9 0 9 -4 16 -10 16 -5 0
-10 -4 -10 -9z"/>
<path d="M910 15 c0 -8 7 -15 15 -15 8 0 15 7 15 15 0 8 -7 15 -15 15 -8 0
-15 -7 -15 -15z"/>
<path d="M450 10 c-13 -8 -12 -10 3 -10 9 0 17 5 17 10 0 12 -1 12 -20 0z"/>
</g>
</svg>
