<?xml version="1.0" standalone="no"?>
<!DOCTYPE svg PUBLIC "-//W3C//DTD SVG 20010904//EN"
 "http://www.w3.org/TR/2001/REC-SVG-20010904/DTD/svg10.dtd">
<svg version="1.0" xmlns="http://www.w3.org/2000/svg"
 width="256.000000pt" height="256.000000pt" viewBox="0 0 256.000000 256.000000"
 preserveAspectRatio="xMidYMid meet">
<metadata>
Created by potrace 1.16, written by Peter Selinger 2001-2019
</metadata>
<g transform="translate(0.000000,256.000000) scale(0.100000,-0.100000)"
fill="#000000" stroke="none">
<path d="M1065 2274 c-485 -75 -785 -441 -785 -959 0 -391 165 -694 463 -855
155 -84 317 -117 527 -107 69 3 152 13 185 22 87 24 211 86 285 143 l65 50 3
-89 3 -89 234 0 235 0 0 925 0 925 -235 0 -235 0 0 -96 0 -97 -26 27 c-69 68
-215 146 -339 181 -59 16 -314 29 -380 19z m275 -25 c25 -6 54 -12 65 -13 107
-14 294 -116 379 -206 l46 -49 0 119 0 120 213 0 212 0 0 -905 0 -905 -212 0
-213 0 0 123 0 122 -19 -31 c-17 -29 -115 -106 -191 -152 -69 -40 -168 -75
-260 -90 -91 -14 -340 -5 -371 14 -5 3 -22 8 -37 10 -31 6 -171 61 -187 73 -5
5 -27 18 -48 30 -52 29 -60 36 -147 121 -84 83 -120 133 -167 230 -32 67 -74
186 -80 230 -38 266 -14 479 77 668 50 105 88 160 164 237 145 146 263 204
531 259 42 8 202 5 245 -5z"/>
<path d="M1150 1844 c-213 -53 -357 -213 -397 -442 -16 -87 -16 -98 1 -183 20
-107 50 -178 106 -247 125 -159 344 -233 555 -187 199 43 353 185 406 375 17
59 16 253 -1 310 -8 25 -14 47 -15 50 -3 14 -58 113 -73 132 -40 51 -115 118
-131 118 -5 0 -11 4 -13 8 -1 4 -30 20 -64 34 -107 46 -264 59 -374 32z m302
-35 c216 -63 361 -264 361 -499 0 -220 -135 -410 -348 -487 -39 -14 -79 -18
-180 -18 l-130 1 -88 41 c-199 95 -308 279 -294 498 16 258 189 443 457 489
44 7 153 -5 222 -25z"/>
</g>
</svg>
