<?xml version="1.0" standalone="no"?>
<!DOCTYPE svg PUBLIC "-//W3C//DTD SVG 20010904//EN"
 "http://www.w3.org/TR/2001/REC-SVG-20010904/DTD/svg10.dtd">
<svg version="1.0" xmlns="http://www.w3.org/2000/svg"
 width="152.000000pt" height="152.000000pt" viewBox="0 0 152.000000 152.000000"
 preserveAspectRatio="xMidYMid meet">
<metadata>
Created by potrace 1.16, written by Peter Selinger 2001-2019
</metadata>
<g transform="translate(0.000000,152.000000) scale(0.100000,-0.100000)"
fill="#000000" stroke="none">
<path d="M680 1503 c-102 -69 -397 -401 -506 -568 -54 -84 -64 -110 -64 -170
0 -47 3 -56 28 -73 15 -10 141 -77 280 -148 138 -71 252 -132 252 -136 0 -4
-14 -14 -30 -23 -17 -9 -65 -51 -108 -94 -83 -83 -102 -120 -102 -202 0 -61
21 -89 68 -89 l37 1 -32 14 c-52 22 -64 61 -41 138 14 48 132 171 208 218 28
17 49 36 47 42 -1 5 -122 71 -268 146 -146 75 -278 144 -292 154 -78 51 0 188
302 532 121 139 221 233 274 259 l32 16 -30 0 c-17 0 -42 -8 -55 -17z"/>
<path d="M793 1513 c-21 -8 -15 -22 7 -16 11 3 31 -2 45 -11 13 -9 28 -16 32
-16 4 0 0 5 -9 11 -10 5 -18 16 -18 22 0 13 -35 19 -57 10z"/>
<path d="M889 1498 c56 -51 82 -174 84 -399 1 -96 5 -139 13 -139 31 0 288
-102 329 -130 76 -52 102 -115 75 -184 -9 -24 -80 -102 -125 -136 -31 -24
-185 -124 -231 -150 l-41 -24 68 -35 c37 -20 89 -51 114 -69 41 -29 46 -36 43
-65 -3 -29 -10 -35 -69 -64 -73 -36 -145 -57 -294 -84 l-100 -19 95 4 c113 6
227 34 319 78 l66 33 3 52 c3 51 2 53 -40 83 -24 17 -64 43 -90 57 -43 23 -61
43 -40 43 7 0 151 92 207 133 50 36 125 115 135 143 6 14 10 49 10 77 0 104
-63 156 -278 232 l-139 49 -7 148 c-11 257 -47 388 -105 388 l-25 0 23 -22z"/>
<path d="M708 1455 c-27 -20 -48 -37 -48 -40 0 -4 63 38 109 72 2 2 0 3 -5 3
-5 0 -30 -16 -56 -35z"/>
<path d="M905 1415 c14 -43 35 -173 37 -220 1 -41 2 -44 6 -15 6 48 -17 199
-35 230 -9 17 -12 18 -8 5z"/>
<path d="M585 1359 c-11 -17 1 -21 15 -4 8 9 8 15 2 15 -6 0 -14 -5 -17 -11z"/>
<path d="M524 1278 l-29 -33 33 29 c17 17 32 31 32 33 0 8 -8 1 -36 -29z"/>
<path d="M678 1239 l-53 -51 54 46 c56 49 93 58 110 29 6 -10 11 -13 11 -7 0
5 -5 15 -12 22 -24 24 -56 12 -110 -39z"/>
<path d="M651 1165 c-57 -55 -99 -101 -94 -102 4 -2 53 -11 108 -21 55 -11
109 -23 119 -27 17 -7 18 -5 13 26 -3 19 -9 69 -13 111 -11 127 -15 128 -133
13z m114 -39 l8 -79 -30 6 c-17 3 -53 9 -82 13 -28 4 -51 9 -51 13 0 13 135
140 141 133 4 -4 10 -43 14 -86z"/>
<path d="M806 1170 c7 -114 15 -157 27 -158 7 0 36 -7 64 -15 29 -9 55 -11 58
-7 7 11 0 14 -60 30 -62 16 -75 31 -76 89 0 25 -4 66 -9 91 -7 37 -8 31 -4
-30z"/>
<path d="M413 1153 c-24 -26 -43 -50 -43 -54 0 -4 -12 -17 -27 -28 -14 -12
-23 -25 -19 -29 4 -4 17 6 29 23 12 16 41 51 65 78 37 42 48 58 40 57 -2 0
-22 -22 -45 -47z"/>
<path d="M566 1131 c-16 -16 -47 -34 -72 -40 -46 -12 -68 -35 -80 -86 -3 -16
-30 -55 -58 -85 l-51 -55 55 53 c31 28 61 52 67 52 6 0 10 12 8 27 -3 26 32
73 55 73 16 0 12 -14 -10 -28 -13 -8 -20 -23 -20 -42 0 -39 16 -39 24 0 5 28
9 30 48 31 l43 1 -32 9 c-18 5 -33 14 -33 19 0 5 21 29 48 54 26 25 44 46 41
46 -3 0 -18 -13 -33 -29z"/>
<path d="M948 1101 c-2 -21 0 -49 3 -62 5 -15 7 -1 8 39 1 69 -5 83 -11 23z"/>
<path d="M299 1013 c-13 -16 -12 -17 4 -4 16 13 21 21 13 21 -2 0 -10 -8 -17
-17z"/>
<path d="M665 1010 c50 -10 92 -16 94 -14 6 5 -17 11 -90 23 -102 17 -104 11
-4 -9z"/>
<path d="M795 990 c-19 -8 -19 -9 3 -9 13 -1 31 -5 41 -11 10 -5 29 -11 42
-14 13 -3 35 -8 48 -12 17 -5 22 -3 19 6 -4 12 -46 28 -110 43 -13 3 -32 1
-43 -3z"/>
<path d="M265 970 c-10 -11 -14 -20 -9 -20 5 0 15 9 22 20 7 11 11 20 9 20 -2
0 -12 -9 -22 -20z"/>
<path d="M502 961 c2 -17 0 -27 -5 -24 -5 3 -6 -4 -2 -18 4 -13 12 -26 17 -27
5 -2 17 -20 27 -41 11 -20 40 -64 65 -98 25 -33 46 -63 46 -66 0 -3 26 -30 58
-61 68 -66 137 -105 155 -86 9 9 9 11 -3 10 -29 -4 -46 0 -66 16 -12 10 -14
14 -4 11 8 -2 24 -1 35 4 16 6 13 8 -15 8 -38 1 -97 32 -107 57 -3 8 -22 33
-42 54 -20 21 -45 56 -56 77 -11 21 -26 45 -34 53 -22 22 -51 92 -51 122 0 24
3 27 30 23 16 -2 40 -6 52 -9 15 -4 13 -1 -7 9 -16 8 -45 14 -64 15 -31 0 -33
-2 -29 -29z"/>
<path d="M347 863 c-87 -87 -96 -99 -82 -113 20 -19 94 -64 215 -131 165 -90
174 -95 241 -132 l66 -37 119 72 c156 94 226 146 222 165 -2 8 -37 33 -78 54
l-75 40 -12 -86 c-22 -150 -64 -199 -150 -176 -88 24 -264 229 -343 399 -10
23 -21 42 -22 42 -2 0 -47 -44 -101 -97z m111 20 c59 -136 256 -366 324 -380
21 -4 26 -8 16 -14 -8 -5 -33 3 -68 23 -30 17 -73 41 -95 53 -259 142 -334
186 -336 199 -2 9 131 146 141 146 3 0 11 -12 18 -27z m591 -172 l52 -28 -51
-37 c-63 -46 -86 -55 -78 -34 4 8 9 40 13 71 4 32 8 57 10 57 1 0 25 -13 54
-29z"/>
<path d="M540 955 c0 -24 98 -191 133 -227 7 -7 26 -30 41 -51 28 -37 72 -67
97 -67 8 0 10 31 7 115 -2 63 0 116 4 117 8 3 -44 25 -234 99 -27 11 -48 17
-48 14z m252 -160 c5 -22 7 -67 6 -100 l-3 -60 -30 30 c-52 52 -116 139 -178
241 -3 6 39 -7 95 -30 101 -41 102 -42 110 -81z"/>
<path d="M650 945 c14 -8 30 -14 35 -14 6 0 -1 6 -15 14 -14 8 -29 14 -35 14
-5 0 1 -6 15 -14z"/>
<path d="M1019 915 c35 -14 69 -25 75 -24 16 1 -106 48 -124 48 -8 0 14 -11
49 -24z"/>
<path d="M710 920 c8 -5 20 -10 25 -10 6 0 3 5 -5 10 -8 5 -19 10 -25 10 -5 0
-3 -5 5 -10z"/>
<path d="M1120 880 c8 -5 22 -9 30 -9 10 0 8 3 -5 9 -27 12 -43 12 -25 0z"/>
<path d="M845 860 c-5 -9 69 -47 124 -65 33 -10 25 9 -11 27 -62 32 -107 47
-113 38z"/>
<path d="M185 852 c-12 -8 -35 -71 -35 -94 0 -9 7 -18 15 -22 18 -6 19 -2 4
22 -9 14 -7 27 10 60 22 44 23 47 6 34z"/>
<path d="M250 817 c-33 -39 -33 -40 -6 -19 32 24 62 63 49 61 -4 0 -24 -19
-43 -42z"/>
<path d="M1248 830 c42 -26 56 -26 17 0 -16 11 -34 20 -40 20 -5 0 5 -9 23
-20z"/>
<path d="M834 813 c3 -8 6 -60 7 -116 0 -66 3 -95 9 -82 5 11 6 57 3 103 l-6
82 44 -19 c28 -13 46 -29 51 -43 5 -19 6 -18 7 10 1 30 -3 35 -46 55 -62 27
-76 29 -69 10z"/>
<path d="M1330 774 c14 -17 31 -40 38 -50 7 -11 6 -7 -2 11 -8 17 -24 39 -37
50 -23 19 -22 19 1 -11z"/>
<path d="M1040 779 c32 -22 72 -40 66 -30 -6 10 -64 41 -75 41 -3 0 1 -5 9
-11z"/>
<path d="M230 731 c0 -5 7 -12 16 -15 14 -5 15 -4 4 9 -14 17 -20 19 -20 6z"/>
<path d="M201 716 c10 -9 69 -36 69 -32 0 6 -55 36 -66 36 -4 0 -5 -2 -3 -4z"/>
<path d="M280 695 c7 -8 9 -15 4 -15 -5 -1 2 -7 16 -14 14 -8 28 -12 32 -10 5
3 8 1 8 -4 0 -5 14 -15 30 -22 17 -7 30 -16 30 -21 0 -4 18 -13 40 -19 21 -6
45 -16 52 -23 13 -12 78 -38 78 -31 0 2 -15 11 -32 20 -18 9 -35 20 -38 23 -3
3 -33 19 -68 36 -35 16 -67 34 -70 40 -4 5 -27 20 -50 32 -28 14 -39 17 -32 8z"/>
<path d="M932 685 c0 -16 2 -22 5 -12 2 9 2 23 0 30 -3 6 -5 -1 -5 -18z"/>
<path d="M1151 685 c0 -17 -7 -38 -13 -45 -7 -8 -5 -8 5 1 13 11 17 26 14 45
l-4 29 -2 -30z"/>
<path d="M1356 658 c-9 -17 -16 -34 -16 -37 0 -8 26 32 33 52 10 28 0 19 -17
-15z"/>
<path d="M920 637 c0 -7 -9 -30 -21 -52 -20 -38 -20 -39 -1 -19 19 20 40 84
28 84 -3 0 -6 -6 -6 -13z"/>
<path d="M1065 590 c-3 -5 -1 -10 4 -10 6 0 11 5 11 10 0 6 -2 10 -4 10 -3 0
-8 -4 -11 -10z"/>
<path d="M1291 579 c-13 -11 -22 -22 -19 -24 2 -3 15 6 28 20 28 30 24 32 -9
4z"/>
<path d="M987 541 c-41 -26 -46 -36 -10 -17 17 9 35 20 38 26 8 13 6 12 -28
-9z"/>
<path d="M580 526 c0 -3 24 -17 53 -31 28 -14 43 -19 32 -11 -11 9 -25 19 -31
24 -14 12 -54 25 -54 18z"/>
<path d="M1189 499 c-19 -16 -20 -18 -4 -10 34 17 51 31 39 31 -7 0 -22 -9
-35 -21z"/>
<path d="M905 490 c-16 -11 -25 -20 -20 -20 10 0 64 39 55 40 -3 0 -18 -9 -35
-20z"/>
<path d="M1098 446 c-23 -17 -23 -25 1 -19 11 3 22 11 25 19 7 17 -4 17 -26 0z"/>
<path d="M745 430 c10 -11 20 -20 23 -20 3 0 -3 9 -13 20 -10 11 -20 20 -23
20 -3 0 3 -9 13 -20z"/>
<path d="M828 444 c-4 -3 -14 -7 -24 -8 -18 -3 -34 -26 -17 -26 9 0 61 39 52
40 -3 0 -8 -3 -11 -6z"/>
<path d="M736 384 c-5 -14 -4 -15 9 -4 17 14 19 20 6 20 -5 0 -12 -7 -15 -16z"/>
<path d="M994 374 c-18 -14 -18 -15 4 -4 12 6 22 13 22 15 0 8 -5 6 -26 -11z"/>
<path d="M935 335 l-30 -23 28 5 c16 3 31 12 34 20 9 24 -1 23 -32 -2z"/>
<path d="M674 344 c-7 -3 -38 -30 -70 -61 -57 -54 -50 -55 11 -1 16 14 41 35
55 47 25 20 26 24 4 15z"/>
<path d="M911 279 c-18 -11 -38 -24 -44 -30 -7 -5 -34 -23 -60 -40 -26 -18
-47 -33 -45 -34 2 -1 78 2 170 8 l167 10 -52 36 c-108 75 -100 72 -136 50z
m77 -43 l32 -23 -61 -7 c-34 -3 -74 -6 -88 -6 -24 1 -25 1 -6 12 11 6 29 20
39 30 26 24 46 23 84 -6z"/>
<path d="M1018 283 c10 -10 30 -24 45 -32 15 -8 36 -23 47 -33 11 -10 20 -14
20 -8 0 6 5 8 12 4 7 -4 8 -3 4 5 -4 6 -12 9 -17 6 -5 -4 -9 -2 -9 3 0 9 -101
72 -115 72 -3 0 3 -8 13 -17z"/>
<path d="M825 265 c-21 -18 -24 -23 -10 -18 21 7 61 43 48 43 -4 0 -21 -11
-38 -25z"/>
<path d="M516 194 c-14 -15 -26 -30 -26 -35 0 -4 -3 -16 -6 -26 -3 -10 2 -4
12 12 9 17 26 40 37 53 29 31 15 28 -17 -4z"/>
<path d="M727 196 c-12 -10 -15 -16 -7 -21 13 -8 23 0 26 20 3 18 4 18 -19 1z"/>
<path d="M1173 191 c13 -19 14 -28 5 -40 -8 -11 -6 -10 7 2 19 17 19 17 -4 40
l-24 22 16 -24z"/>
<path d="M1120 183 c0 -7 -57 -14 -155 -18 -89 -4 -155 -12 -155 -17 0 -6 19
-7 48 -4 26 3 94 8 152 12 98 5 133 14 117 31 -4 3 -7 2 -7 -4z"/>
<path d="M715 150 c3 -5 25 -10 47 -10 51 0 47 5 -10 14 -29 4 -41 3 -37 -4z"/>
<path d="M470 94 c0 -20 25 -63 32 -54 3 3 -4 21 -13 40 -14 27 -18 30 -19 14z"/>
<path d="M1030 94 c-25 -7 -67 -20 -95 -29 -32 -9 -37 -13 -15 -9 68 12 105
21 140 37 43 19 30 20 -30 1z"/>
<path d="M848 43 c6 -2 18 -2 25 0 6 3 1 5 -13 5 -14 0 -19 -2 -12 -5z"/>
<path d="M773 33 c9 -2 23 -2 30 0 6 3 -1 5 -18 5 -16 0 -22 -2 -12 -5z"/>
<path d="M550 17 c0 -7 8 -13 19 -13 11 0 17 5 14 13 -3 7 -11 13 -19 13 -8 0
-14 -6 -14 -13z"/>
<path d="M677 18 c-3 -9 6 -13 26 -12 17 0 33 6 35 12 5 16 -55 15 -61 0z"/>
</g>
</svg>
