<?xml version="1.0" standalone="no"?>
<!DOCTYPE svg PUBLIC "-//W3C//DTD SVG 20010904//EN"
 "http://www.w3.org/TR/2001/REC-SVG-20010904/DTD/svg10.dtd">
<svg version="1.0" xmlns="http://www.w3.org/2000/svg"
 width="64.000000pt" height="64.000000pt" viewBox="0 0 64.000000 64.000000"
 preserveAspectRatio="xMidYMid meet">
<metadata>
Created by potrace 1.16, written by Peter Selinger 2001-2019
</metadata>
<g transform="translate(0.000000,64.000000) scale(0.100000,-0.100000)"
fill="#000000" stroke="none">
<path d="M335 596 c-16 -7 -51 -23 -77 -35 l-48 -21 0 -120 0 -119 -76 34
c-42 19 -87 35 -100 35 l-24 0 0 -135 0 -136 78 -35 c114 -54 148 -54 255 -5
l87 41 0 115 c0 63 4 115 9 115 4 0 38 -13 74 -30 110 -50 107 -53 107 108 l0
137 -78 33 c-84 35 -154 41 -207 18z m75 -116 l0 -111 -86 -39 c-47 -22 -88
-40 -90 -40 -2 0 -4 52 -4 115 l0 115 48 21 c87 40 107 48 120 49 9 0 12 -29
12 -110z m112 78 l78 -33 0 -117 0 -118 -57 26 c-32 14 -70 30 -85 36 l-28 10
0 114 c0 63 3 114 7 114 5 0 43 -15 85 -32z m-398 -248 l86 -39 0 -115 0 -116
-22 9 c-13 5 -53 23 -90 40 l-68 30 0 116 c0 63 2 115 4 115 2 0 43 -18 90
-40z m286 -75 l0 -115 -86 -40 c-48 -22 -89 -40 -91 -40 -2 0 -2 53 -1 117 l3
117 85 38 c47 21 86 38 88 38 1 0 2 -52 2 -115z"/>
</g>
</svg>
