<?xml version="1.0" standalone="no"?>
<!DOCTYPE svg PUBLIC "-//W3C//DTD SVG 20010904//EN"
 "http://www.w3.org/TR/2001/REC-SVG-20010904/DTD/svg10.dtd">
<svg version="1.0" xmlns="http://www.w3.org/2000/svg"
 width="256.000000pt" height="256.000000pt" viewBox="0 0 256.000000 256.000000"
 preserveAspectRatio="xMidYMid meet">
<metadata>
Created by potrace 1.16, written by Peter Selinger 2001-2019
</metadata>
<g transform="translate(0.000000,256.000000) scale(0.100000,-0.100000)"
fill="#000000" stroke="none">
<path d="M270 2550 c-138 -17 -248 -131 -263 -273 -6 -64 15 -58 25 7 16 116
150 245 255 246 17 0 35 5 38 11 10 15 6 16 -55 9z"/>
<path d="M2233 2546 c2 -6 24 -14 49 -17 116 -17 230 -131 246 -245 10 -65 31
-71 25 -7 -11 102 -76 199 -166 244 -47 24 -160 42 -154 25z"/>
<path d="M1142 2239 c-101 -39 -192 -163 -192 -263 0 -33 -2 -34 -47 -41 -147
-21 -257 -131 -278 -277 -7 -46 -8 -48 -41 -48 -101 0 -224 -91 -263 -195 -29
-76 -29 -194 0 -270 39 -104 162 -195 263 -195 33 0 34 -2 40 -48 9 -64 59
-165 99 -198 42 -36 121 -71 178 -79 l46 -7 6 -50 c12 -101 79 -193 175 -240
69 -34 205 -38 284 -8 103 38 182 139 195 248 l6 50 46 7 c145 21 255 131 276
276 l7 46 50 6 c108 13 210 92 247 193 29 75 29 193 0 269 -39 104 -162 195
-263 195 -33 0 -34 2 -41 48 -21 146 -131 256 -276 277 l-46 7 -6 50 c-13 108
-92 210 -193 247 -74 28 -198 28 -272 0z m269 -28 c177 -91 232 -315 114 -463
-52 -65 -68 -99 -68 -143 0 -81 60 -145 136 -145 l38 0 -16 -30 c-8 -16 -20
-52 -26 -80 -12 -57 -18 -59 -95 -33 -67 23 -154 110 -177 177 -21 62 -22 158
-2 217 9 25 33 66 55 92 70 85 76 157 19 222 -90 102 -259 44 -259 -89 l0 -24
-50 19 c-28 10 -64 19 -81 19 -31 0 -31 1 -24 37 18 97 114 209 204 238 66 21
177 14 232 -14z m-43 -207 c45 -52 44 -96 -3 -158 -48 -62 -93 -61 -176 5 -45
36 -49 61 -19 127 15 32 29 47 61 61 54 24 93 14 137 -35z m-265 -128 c23 -14
58 -40 78 -57 22 -18 52 -33 76 -36 l40 -5 -18 -49 c-11 -27 -19 -63 -19 -80
0 -29 -1 -30 -32 -24 -54 11 -110 40 -156 78 -73 62 -130 69 -201 26 -37 -22
-76 -98 -66 -129 6 -19 6 -19 -37 0 -24 10 -62 22 -85 26 l-40 6 9 40 c5 22
16 54 24 70 24 47 94 118 138 140 83 42 214 39 289 -6z m653 -1 c99 -58 155
-154 156 -268 1 -85 -19 -138 -77 -207 -40 -48 -55 -79 -55 -114 l0 -23 -52
18 c-29 10 -66 18 -81 19 -27 0 -28 2 -22 33 11 53 40 109 78 155 62 73 69
130 26 201 -22 37 -98 76 -129 66 -19 -6 -19 -6 0 37 10 24 22 62 26 85 l6 40
42 -9 c22 -5 59 -20 82 -33z m-724 -178 c41 -32 43 -36 43 -85 -1 -47 -5 -57
-36 -88 -53 -53 -101 -56 -159 -12 -39 29 -45 39 -48 76 -6 75 52 141 125 142
21 0 46 -11 75 -33z m629 18 c16 -9 39 -30 49 -48 29 -48 25 -88 -13 -139 -32
-41 -36 -43 -85 -43 -45 1 -56 5 -87 35 -38 37 -54 88 -37 124 5 12 22 36 37
54 22 26 34 32 66 32 22 0 53 -7 70 -15z m-451 -126 c57 -12 59 -18 33 -95
-23 -67 -110 -154 -177 -177 -62 -21 -158 -22 -217 -2 -25 9 -66 33 -92 55
-85 70 -157 76 -222 19 -102 -90 -44 -259 89 -259 l24 0 -19 -50 c-10 -28 -19
-64 -19 -81 0 -31 -1 -31 -37 -24 -104 19 -211 115 -239 213 -35 118 1 239 95
324 116 104 281 102 409 -5 69 -58 129 -66 201 -27 33 17 61 70 61 113 l0 38
30 -16 c16 -8 52 -20 80 -26z m855 -31 c183 -91 231 -330 97 -479 -68 -76
-129 -104 -227 -104 -92 0 -153 22 -216 79 -61 56 -127 65 -198 26 -33 -17
-61 -70 -61 -113 l0 -38 -30 16 c-16 8 -52 20 -80 26 -57 12 -59 18 -33 95 23
67 110 154 177 177 62 21 158 22 217 2 25 -9 69 -36 99 -60 30 -25 70 -48 87
-51 101 -19 183 48 183 148 0 76 -52 135 -128 145 l-39 5 18 49 c11 27 19 63
19 80 0 31 1 31 37 24 20 -4 55 -16 78 -27z m-762 -103 c22 -52 110 -138 162
-156 19 -7 35 -16 35 -19 0 -3 -16 -12 -35 -19 -52 -18 -140 -104 -162 -156
-10 -25 -20 -45 -23 -45 -3 0 -13 20 -23 44 -22 53 -108 138 -160 157 -20 7
-37 16 -37 19 0 3 17 12 37 19 48 18 146 116 164 164 7 20 15 37 19 37 3 0 13
-20 23 -45z m697 -75 c84 -60 68 -175 -30 -214 -47 -18 -72 -12 -131 35 -55
43 -51 90 13 172 30 38 33 39 76 33 24 -3 56 -15 72 -26z m-1286 -15 c62 -48
61 -93 -5 -176 -36 -46 -68 -50 -130 -18 -69 35 -92 122 -47 177 23 27 72 52
104 52 20 0 47 -12 78 -35z m197 -105 c29 0 30 -1 24 -32 -11 -54 -40 -110
-78 -156 -62 -73 -69 -130 -26 -201 22 -37 93 -73 127 -64 l22 5 -20 -44 c-10
-24 -22 -62 -26 -85 l-6 -40 -40 9 c-59 13 -108 41 -155 90 -61 62 -86 126
-85 215 1 84 20 136 77 203 41 49 55 78 55 115 l0 23 50 -19 c28 -10 64 -19
81 -19z m155 -17 c67 -23 154 -110 177 -177 21 -62 22 -158 2 -217 -9 -25 -36
-69 -60 -99 -25 -30 -48 -70 -51 -87 -19 -101 48 -183 148 -183 76 0 135 52
145 128 l5 39 49 -18 c27 -11 63 -19 80 -19 31 0 31 -1 24 -37 -28 -151 -175
-263 -329 -251 -241 20 -370 305 -221 490 52 65 68 99 68 143 0 81 -60 145
-136 145 l-38 0 16 30 c8 16 20 52 26 80 12 57 18 59 95 33z m-29 -205 c52
-52 55 -100 11 -158 -29 -39 -39 -45 -76 -48 -100 -7 -177 101 -125 178 42 64
55 72 106 67 39 -3 56 -11 84 -39z m645 9 c37 -28 43 -39 46 -74 4 -52 -19
-98 -61 -123 -48 -29 -88 -25 -139 13 -41 32 -43 36 -43 85 1 43 6 57 30 83
56 59 104 64 167 16z m195 -113 l40 -6 -9 -42 c-19 -87 -97 -179 -184 -217
-50 -23 -148 -27 -209 -11 -39 11 -66 28 -139 85 -19 16 -53 31 -74 34 l-38 5
18 52 c9 28 17 64 18 79 0 27 2 28 33 22 53 -11 109 -40 155 -78 73 -62 130
-69 201 -26 37 22 73 93 64 127 l-5 22 44 -20 c24 -10 62 -22 85 -26z m-564
-187 c51 -22 97 -66 97 -93 0 -41 -31 -103 -63 -126 -64 -46 -149 -17 -181 62
-18 47 -12 72 35 131 34 43 58 48 112 26z"/>
<path d="M10 272 c13 -106 78 -194 174 -237 63 -28 146 -39 146 -19 0 9 -12
14 -37 14 -110 1 -244 127 -261 246 -10 71 -30 68 -22 -4z"/>
<path d="M2537 323 c-4 -3 -7 -20 -7 -37 -1 -108 -152 -256 -262 -256 -26 0
-38 -4 -38 -14 0 -20 83 -9 146 19 96 42 166 141 177 248 4 44 -1 56 -16 40z"/>
</g>
</svg>
