<?xml version="1.0" standalone="no"?>
<!DOCTYPE svg PUBLIC "-//W3C//DTD SVG 20010904//EN"
 "http://www.w3.org/TR/2001/REC-SVG-20010904/DTD/svg10.dtd">
<svg version="1.0" xmlns="http://www.w3.org/2000/svg"
 width="180.000000pt" height="180.000000pt" viewBox="0 0 180.000000 180.000000"
 preserveAspectRatio="xMidYMid meet">
<metadata>
Created by potrace 1.16, written by Peter Selinger 2001-2019
</metadata>
<g transform="translate(0.000000,180.000000) scale(0.100000,-0.100000)"
fill="#000000" stroke="none">
<path d="M1050 1217 c-184 -251 -441 -599 -506 -687 -35 -47 -64 -87 -64 -90
0 -3 44 -4 97 -3 l97 2 71 95 70 96 170 0 170 0 -3 -97 -4 -98 91 0 91 0 0
463 0 462 -87 0 -88 0 -105 -143z m250 -327 l0 -430 -60 0 -60 0 0 94 c0 76
-3 95 -16 100 -9 3 -92 6 -185 6 l-170 0 -30 -32 c-16 -18 -52 -63 -80 -100
l-50 -68 -54 0 c-59 0 -68 10 -32 35 12 8 20 17 17 20 -3 2 3 14 13 25 9 11
17 24 17 30 0 5 6 13 14 17 7 4 26 28 41 53 16 25 42 58 59 74 17 16 25 26 18
22 -8 -5 1 11 18 35 18 24 48 65 67 92 19 26 39 47 44 47 5 0 8 3 7 8 -3 10
84 132 94 132 4 0 8 5 8 11 0 6 27 48 61 92 92 125 102 136 112 130 6 -3 7 -1
3 5 -14 23 6 32 75 32 l69 0 0 -430z"/>
<path d="M1140 1103 c-17 -7 -70 -62 -70 -73 0 -13 -77 -90 -84 -83 -3 3 -6
-3 -6 -14 0 -20 -73 -126 -82 -118 -3 3 -5 -9 -4 -27 l1 -33 140 0 140 0 0
174 c0 174 -3 186 -35 174z m13 -168 l-3 -156 -118 -2 -118 -2 84 110 c47 61
100 131 119 158 19 26 36 47 36 47 1 0 1 -70 0 -155z"/>
</g>
</svg>
