<?xml version="1.0" standalone="no"?>
<!DOCTYPE svg PUBLIC "-//W3C//DTD SVG 20010904//EN"
 "http://www.w3.org/TR/2001/REC-SVG-20010904/DTD/svg10.dtd">
<svg version="1.0" xmlns="http://www.w3.org/2000/svg"
 width="100.000000pt" height="100.000000pt" viewBox="0 0 100.000000 100.000000"
 preserveAspectRatio="xMidYMid meet">
<metadata>
Created by potrace 1.16, written by Peter Selinger 2001-2019
</metadata>
<g transform="translate(0.000000,100.000000) scale(0.100000,-0.100000)"
fill="#000000" stroke="none">
<path d="M618 989 c-12 -6 -18 -22 -18 -44 l0 -35 -80 0 -80 0 0 -30 c0 -16
-4 -30 -10 -30 -5 0 -10 14 -10 30 l0 30 -180 0 -180 0 0 -45 c0 -25 -4 -45
-10 -45 -5 0 -10 -13 -10 -29 0 -17 -4 -33 -10 -36 -5 -3 -10 -21 -10 -40 0
-19 -4 -37 -10 -40 -13 -8 -13 -105 0 -105 6 0 10 14 10 30 0 17 5 30 10 30 6
0 10 18 10 40 0 22 5 40 10 40 6 0 10 20 10 45 0 25 5 45 10 45 6 0 10 20 10
45 l0 45 85 0 85 0 0 -75 c0 -43 4 -75 10 -75 6 0 10 -18 10 -40 0 -22 5 -40
10 -40 6 0 10 -13 10 -30 0 -16 5 -30 10 -30 6 0 10 25 10 55 0 30 -4 55 -10
55 -5 0 -10 20 -10 45 0 25 -4 45 -10 45 -5 0 -10 20 -10 45 l0 45 65 0 65 0
0 -45 c0 -25 5 -45 10 -45 6 0 10 -20 10 -45 0 -25 5 -45 10 -45 6 0 10 28 11
63 0 44 3 56 9 42 6 -15 9 -8 9 28 l1 47 60 0 60 0 0 -30 c0 -16 -4 -30 -10
-30 -6 0 -10 -30 -10 -70 0 -40 -4 -70 -10 -70 -5 0 -10 -13 -10 -30 0 -16 -4
-30 -10 -30 -5 0 -10 -20 -10 -45 0 -25 -4 -45 -10 -45 -5 0 -10 -18 -10 -40
l0 -40 -75 0 c-73 0 -75 1 -75 25 0 14 -4 25 -10 25 -6 0 -10 33 -11 78 -1 68
-2 72 -10 37 -11 -56 -11 -115 1 -115 6 0 10 -18 10 -40 l0 -40 -50 0 c-29 0
-50 4 -50 11 0 7 14 8 39 4 24 -4 42 -2 46 4 4 7 -15 11 -59 11 -64 0 -66 1
-66 25 0 22 -4 25 -35 25 -31 0 -35 -3 -35 -25 0 -24 -3 -25 -60 -25 -33 0
-60 -4 -60 -10 0 -5 22 -8 50 -6 27 1 50 -1 50 -6 0 -4 -22 -8 -50 -8 -38 0
-50 -4 -50 -15 0 -13 62 -15 500 -15 438 0 500 2 500 15 0 11 -12 15 -50 15
-38 0 -50 4 -50 15 0 8 -4 15 -10 15 -5 0 -10 8 -10 18 0 14 2 15 10 2 8 -12
10 -11 10 8 0 20 -5 22 -45 22 -41 0 -45 -2 -45 -25 0 -24 -3 -25 -60 -25
l-60 0 0 40 c0 22 5 40 10 40 6 0 10 27 10 60 0 38 -4 60 -11 60 -8 0 -10 -19
-7 -57 5 -54 4 -56 -8 -28 l-13 30 -1 -47 c0 -27 -4 -48 -10 -48 -5 0 -10 -11
-10 -25 0 -24 -3 -25 -61 -25 -40 0 -58 -4 -54 -11 4 -6 23 -8 46 -5 22 3 39
1 39 -4 0 -6 -22 -10 -50 -10 l-50 0 0 34 c0 19 -3 43 -6 53 -3 10 2 7 10 -7
15 -25 15 -25 16 18 0 23 5 42 10 42 6 0 10 27 10 60 0 33 4 60 10 60 6 0 10
18 10 40 0 22 5 40 10 40 6 0 10 27 10 60 0 57 1 60 25 60 24 0 25 3 25 55 0
57 -3 61 -32 44z m15 -51 c-8 -46 -13 -48 -13 -5 0 21 4 37 10 37 5 0 7 -14 3
-32z m-43 -153 c0 -5 -5 -3 -10 5 -5 8 -10 20 -10 25 0 6 5 3 10 -5 5 -8 10
-19 10 -25z m-319 -22 c-12 -20 -14 -14 -5 12 4 9 9 14 11 11 3 -2 0 -13 -6
-23z m22 -78 c-3 -9 -8 -14 -10 -11 -3 3 -2 9 2 15 9 16 15 13 8 -4z m257
-100 c0 -5 -5 -3 -10 5 -5 8 -10 20 -10 25 0 6 5 3 10 -5 5 -8 10 -19 10 -25z
m-380 -120 c0 -18 5 -25 20 -25 11 0 20 -4 20 -10 0 -5 -20 -10 -45 -10 -25 0
-45 5 -45 10 0 6 5 10 10 10 6 0 10 11 10 25 0 16 6 25 15 25 9 0 15 -9 15
-25z m690 6 c0 -11 5 -23 10 -26 21 -13 9 -25 -25 -25 -19 0 -35 5 -35 10 0 6
5 10 10 10 6 0 10 11 10 25 0 16 6 25 15 25 8 0 15 -9 15 -19z m-166 -20 c3
-5 26 -8 51 -6 25 1 45 -1 45 -6 0 -5 -27 -9 -60 -9 -47 0 -60 3 -60 15 0 16
16 20 24 6z m-214 -13 c0 -5 -25 -8 -55 -8 -30 0 -55 3 -55 8 0 4 25 7 55 7
30 0 55 -3 55 -7z"/>
<path d="M770 970 c0 -16 -4 -30 -10 -30 -5 0 -10 -25 -10 -55 0 -30 -4 -55
-10 -55 -5 0 -10 -20 -10 -45 0 -25 -4 -45 -10 -45 -12 0 -12 -67 0 -95 6 -14
9 -4 9 38 1 31 6 57 11 57 6 0 10 20 10 45 0 25 5 45 10 45 6 0 10 14 10 30
l0 30 75 0 c60 0 75 -3 75 -15 0 -8 5 -15 10 -15 6 0 10 -20 10 -45 0 -25 5
-45 10 -45 6 0 10 -25 10 -55 0 -30 5 -55 10 -55 6 0 10 -27 10 -60 0 -33 4
-60 8 -60 12 0 14 157 2 165 -5 3 -10 24 -10 46 0 21 -4 39 -10 39 -5 0 -10
20 -10 45 0 25 -4 45 -10 45 -5 0 -10 7 -10 15 0 12 -15 15 -75 15 l-75 0 0
45 c0 25 -4 45 -10 45 -5 0 -10 -13 -10 -30z"/>
<path d="M960 940 c0 -43 3 -50 20 -50 11 0 20 5 20 10 0 6 -4 10 -10 10 -5 0
-10 14 -10 30 0 17 5 30 10 30 6 0 10 5 10 10 0 6 -9 10 -20 10 -17 0 -20 -7
-20 -50z"/>
<path d="M830 675 c0 -8 5 -15 10 -15 6 0 10 7 10 15 0 8 -4 15 -10 15 -5 0
-10 -7 -10 -15z"/>
<path d="M914 453 c10 -11 86 -11 86 -1 0 4 -21 8 -47 8 -25 0 -43 -3 -39 -7z"/>
<path d="M248 373 c138 -2 366 -2 505 0 138 1 25 2 -253 2 -278 0 -391 -1
-252 -2z"/>
<path d="M0 275 c0 -13 62 -15 500 -15 438 0 500 2 500 15 0 13 -62 15 -500
15 -438 0 -500 -2 -500 -15z"/>
</g>
</svg>
