<?xml version="1.0" standalone="no"?>
<!DOCTYPE svg PUBLIC "-//W3C//DTD SVG 20010904//EN"
 "http://www.w3.org/TR/2001/REC-SVG-20010904/DTD/svg10.dtd">
<svg version="1.0" xmlns="http://www.w3.org/2000/svg"
 width="113.000000pt" height="95.000000pt" viewBox="0 0 113.000000 95.000000"
 preserveAspectRatio="xMidYMid meet">
<metadata>
Created by potrace 1.16, written by Peter Selinger 2001-2019
</metadata>
<g transform="translate(0.000000,95.000000) scale(0.100000,-0.100000)"
fill="#000000" stroke="none">
<path d="M719 922 c-5 -13 -9 -24 -9 -26 0 -1 25 -2 55 -2 50 1 56 3 64 27 9
25 8 25 -46 25 -48 -1 -56 -4 -64 -24z"/>
<path d="M54 713 c-26 -82 -49 -154 -52 -160 -3 -10 11 -13 51 -13 50 0 56 2
59 23 3 19 10 22 55 25 47 3 52 1 55 -20 3 -21 9 -23 62 -26 44 -2 57 0 53 10
-3 7 -27 79 -54 160 l-48 147 -67 1 -67 0 -47 -147z m161 100 c19 -47 75 -218
75 -230 0 -23 -36 -14 -48 12 -11 23 -17 25 -77 25 -61 0 -66 -2 -75 -25 -6
-15 -17 -25 -30 -25 -11 0 -20 3 -20 6 0 4 19 63 42 130 l42 124 42 0 c30 0
44 -5 49 -17z"/>
<path d="M142 803 c-14 -29 -34 -132 -27 -143 3 -5 28 -10 56 -10 47 0 49 1
49 28 -1 15 -7 52 -14 82 -10 43 -17 56 -34 58 -12 2 -24 -4 -30 -15z m40 -55
c3 -24 7 -49 9 -57 3 -8 -6 -14 -24 -16 -25 -3 -28 -1 -23 18 3 12 8 41 12 64
8 52 20 48 26 -9z"/>
<path d="M304 848 c3 -7 26 -79 52 -160 l48 -148 62 0 62 0 21 63 c12 34 36
106 54 160 l33 97 -56 0 -55 0 -23 -82 c-12 -46 -22 -89 -22 -95 0 -7 -4 -13
-10 -13 -5 0 -10 5 -10 11 0 6 -12 49 -26 95 l-26 84 -55 0 c-40 0 -53 -3 -49
-12z m108 -105 c23 -83 26 -88 54 -91 28 -3 30 -1 55 85 21 72 30 89 48 91 11
2 21 0 21 -5 0 -4 -19 -63 -42 -131 l-43 -123 -39 3 -39 3 -39 115 c-44 131
-45 140 -19 140 15 0 23 -18 43 -87z"/>
<path d="M700 858 c0 -2 -24 -74 -53 -160 l-53 -158 56 0 55 1 48 147 c27 81
51 153 54 160 3 9 -10 12 -51 12 -31 0 -56 -1 -56 -2z m60 -35 c1 -26 -77
-246 -88 -251 -31 -11 -29 19 9 136 33 101 43 122 60 122 10 0 19 -3 19 -7z"/>
<path d="M825 713 c-26 -82 -50 -154 -53 -160 -3 -10 11 -13 52 -13 51 0 56 2
62 25 6 22 11 25 55 25 44 0 49 -3 55 -25 6 -23 10 -25 66 -25 47 0 58 3 50
13 -5 6 -31 78 -58 159 l-49 148 -66 0 -65 0 -49 -147z m79 60 c-7 -32 -13
-73 -14 -90 0 -33 0 -33 50 -33 50 0 50 0 50 33 0 17 -7 57 -15 87 -15 56 -14
67 4 56 11 -7 81 -218 81 -243 0 -24 -37 -14 -44 12 -6 24 -10 25 -76 25 -66
0 -71 -2 -80 -25 -6 -16 -17 -25 -31 -25 -15 0 -19 4 -15 16 3 9 23 67 43 130
21 63 43 114 49 114 9 0 9 -14 -2 -57z m49 -26 c3 -23 9 -50 12 -58 4 -12 -1
-16 -25 -16 -27 0 -31 3 -26 21 4 12 9 40 12 63 8 52 19 48 27 -10z"/>
<path d="M10 428 l0 -38 550 0 550 0 0 38 0 37 -550 0 -550 0 0 -37z m1070 2
c0 -7 -182 -10 -525 -10 -343 0 -525 3 -525 10 0 7 182 10 525 10 343 0 525
-3 525 -10z"/>
<path d="M10 265 l0 -105 550 0 550 0 0 105 0 105 -550 0 -550 0 0 -105z
m1070 5 l0 -80 -525 0 -525 0 0 80 0 80 525 0 525 0 0 -80z"/>
<path d="M20 55 c0 -30 5 -55 10 -55 6 0 10 11 10 25 0 33 14 32 30 -2 8 -18
14 -23 17 -15 3 8 1 18 -5 24 -7 7 -7 16 0 28 17 27 3 50 -32 50 -30 0 -30 0
-30 -55z m50 25 c0 -11 -7 -20 -15 -20 -8 0 -15 9 -15 20 0 11 7 20 15 20 8 0
15 -9 15 -20z"/>
<path d="M136 77 c-7 -19 -17 -45 -20 -58 l-7 -24 17 22 c21 29 50 29 57 1 4
-12 9 -19 13 -16 8 9 -27 108 -38 108 -4 0 -14 -15 -22 -33z m34 -19 c0 -5 -6
-8 -14 -8 -9 0 -12 7 -9 21 4 16 8 17 14 7 5 -7 9 -16 9 -20z"/>
<path d="M230 60 c0 -36 4 -50 14 -50 8 0 21 -3 30 -6 9 -3 16 -1 16 5 0 6
-11 11 -24 11 -22 0 -23 3 -18 45 3 30 1 45 -7 45 -7 0 -11 -19 -11 -50z"/>
<path d="M320 54 c0 -36 4 -53 10 -49 6 4 8 15 5 26 -5 15 -1 19 19 19 14 0
26 5 26 11 0 5 -10 9 -22 7 -15 -2 -24 3 -26 14 -2 12 5 18 25 21 27 4 27 4
-4 6 l-33 1 0 -56z"/>
<path d="M460 60 l0 -50 34 0 c39 0 52 12 40 38 -4 9 -6 27 -5 40 2 19 -2 22
-33 22 l-36 0 0 -50z m58 23 c2 -8 -5 -13 -17 -13 -12 0 -21 6 -21 16 0 18 31
15 38 -3z m2 -48 c0 -8 -9 -15 -20 -15 -11 0 -20 7 -20 15 0 8 9 15 20 15 11
0 20 -7 20 -15z"/>
<path d="M570 54 c0 -34 4 -53 10 -49 6 3 10 28 10 56 0 27 -4 49 -10 49 -5 0
-10 -25 -10 -56z"/>
<path d="M625 61 c0 -46 2 -50 28 -54 15 -2 30 0 33 5 3 4 -6 8 -20 8 -20 0
-26 5 -26 21 0 16 4 19 20 14 11 -4 20 -2 20 4 0 6 -9 11 -20 11 -30 0 -24 28
8 33 23 3 22 4 -8 6 l-35 1 0 -49z"/>
<path d="M720 54 c0 -35 4 -53 10 -49 6 4 8 22 5 43 l-6 37 18 -23 c10 -12 26
-33 35 -45 17 -21 17 -21 16 38 -1 52 -2 54 -5 16 l-4 -45 -25 42 c-14 23 -29
42 -35 42 -5 0 -9 -25 -9 -56z"/>
<path d="M840 61 c0 -47 1 -49 30 -53 17 -3 33 -1 36 4 3 4 -6 8 -20 8 -20 0
-26 5 -26 21 0 16 4 19 20 14 11 -4 20 -2 20 4 0 6 -9 11 -20 11 -30 0 -24 28
8 33 22 3 20 4 -10 6 l-38 1 0 -49z"/>
<path d="M941 53 c1 -32 4 -46 6 -30 2 15 7 27 11 27 3 0 17 -12 30 -27 18
-21 22 -23 16 -8 -4 11 -7 36 -8 55 -1 30 -5 35 -28 38 -28 3 -28 3 -27 -55z
m44 27 c0 -8 -8 -16 -17 -18 -13 -2 -18 3 -18 18 0 15 5 20 18 18 9 -2 17 -10
17 -18z"/>
<path d="M1043 103 c13 -3 17 -15 17 -54 0 -34 4 -48 11 -43 7 4 9 24 6 50 -4
38 -2 43 17 47 11 2 1 4 -24 4 -25 1 -37 -1 -27 -4z"/>
</g>
</svg>
