<?xml version="1.0" standalone="no"?>
<!DOCTYPE svg PUBLIC "-//W3C//DTD SVG 20010904//EN"
 "http://www.w3.org/TR/2001/REC-SVG-20010904/DTD/svg10.dtd">
<svg version="1.0" xmlns="http://www.w3.org/2000/svg"
 width="192.000000pt" height="192.000000pt" viewBox="0 0 192.000000 192.000000"
 preserveAspectRatio="xMidYMid meet">
<metadata>
Created by potrace 1.16, written by Peter Selinger 2001-2019
</metadata>
<g transform="translate(0.000000,192.000000) scale(0.100000,-0.100000)"
fill="#000000" stroke="none">
<path d="M1457 1296 c-78 -29 -117 -88 -117 -176 0 -91 45 -143 154 -180 66
-22 93 -41 81 -60 -11 -18 -80 -11 -108 10 -38 30 -68 25 -110 -18 -41 -42
-48 -79 -19 -105 69 -63 234 -82 325 -38 64 31 97 82 104 158 4 47 0 66 -19
102 -25 47 -52 65 -153 104 -36 13 -60 28 -60 37 0 21 48 24 84 6 46 -24 68
-19 108 24 l36 41 22 -21 c23 -22 74 -27 106 -10 24 14 27 91 3 114 -25 25
-90 21 -111 -8 l-18 -24 -45 26 c-37 22 -58 27 -135 29 -60 2 -103 -1 -128
-11z m240 -42 l55 -26 -42 -43 -42 -43 -32 19 c-55 33 -124 22 -139 -24 -10
-27 22 -52 98 -77 92 -31 135 -71 142 -132 13 -116 -71 -198 -203 -198 -53 0
-133 26 -168 54 l-27 21 39 41 39 41 28 -20 c38 -28 125 -35 148 -12 24 23 21
61 -5 79 -12 9 -51 25 -86 37 -36 12 -78 34 -95 49 -27 24 -31 35 -34 91 -3
51 0 70 16 96 52 82 193 104 308 47z m178 10 c43 -43 -19 -110 -65 -69 -24 22
-25 42 -3 67 20 22 46 23 68 2z"/>
<path d="M1814 1245 c-3 -8 -4 -20 -2 -27 3 -7 7 -1 10 15 6 29 1 36 -8 12z"/>
<path d="M1847 1253 c-4 -3 -7 -11 -7 -17 0 -6 5 -4 10 4 7 12 10 8 10 -15 1
-24 2 -27 10 -13 16 26 -4 61 -23 41z"/>
<path d="M1830 1200 c0 -5 5 -10 10 -10 6 0 10 5 10 10 0 6 -4 10 -10 10 -5 0
-10 -4 -10 -10z"/>
<path d="M260 1279 c-36 -66 -220 -516 -220 -536 0 -24 1 -24 97 -21 l97 3 15
48 15 47 81 0 82 0 21 -50 21 -51 93 3 c76 2 93 6 96 19 2 9 -46 137 -107 285
l-110 269 -85 3 c-78 3 -86 1 -96 -19z m261 -259 c57 -140 105 -260 107 -268
3 -10 -13 -12 -69 -10 l-72 3 -17 50 -17 50 -104 3 -105 3 -18 -56 -19 -55
-74 0 c-70 0 -83 5 -64 26 7 7 93 206 205 474 14 35 14 35 79 35 l65 0 103
-255z"/>
<path d="M319 1057 c-14 -39 -29 -80 -33 -89 -7 -16 -1 -18 59 -18 48 0 66 3
63 13 -18 62 -54 167 -58 167 -3 0 -17 -33 -31 -73z m41 -36 c0 -5 3 -16 6
-25 4 -12 0 -16 -15 -16 -22 0 -25 8 -15 34 7 17 24 22 24 7z"/>
<path d="M537 1294 c-4 -4 -7 -15 -7 -25 0 -13 131 -370 191 -521 11 -28 13
-28 99 -28 l87 0 101 263 101 262 3 -260 3 -260 86 -3 86 -3 7 38 c8 49 8 456
0 505 l-7 37 -182 1 -182 0 -48 -150 c-27 -82 -51 -147 -54 -144 -3 3 -26 69
-51 147 l-46 142 -90 3 c-49 1 -93 0 -97 -4z m216 -189 c31 -93 58 -181 62
-194 6 -18 21 19 69 169 l61 193 73 1 c46 1 71 -2 68 -9 -27 -64 -196 -508
-196 -515 0 -6 -29 -10 -67 -10 l-68 0 -94 253 c-52 138 -98 256 -103 262 -16
18 -8 20 66 20 l75 0 54 -170z m517 -97 l0 -268 -65 0 -65 0 0 268 0 267 65 0
65 0 0 -267z"/>
</g>
</svg>
