<?xml version="1.0" standalone="no"?>
<!DOCTYPE svg PUBLIC "-//W3C//DTD SVG 20010904//EN"
 "http://www.w3.org/TR/2001/REC-SVG-20010904/DTD/svg10.dtd">
<svg version="1.0" xmlns="http://www.w3.org/2000/svg"
 width="100.000000pt" height="100.000000pt" viewBox="0 0 100.000000 100.000000"
 preserveAspectRatio="xMidYMid meet">
<metadata>
Created by potrace 1.16, written by Peter Selinger 2001-2019
</metadata>
<g transform="translate(0.000000,100.000000) scale(0.100000,-0.100000)"
fill="#000000" stroke="none">
<path d="M14 976 c4 -15 1 -26 -7 -29 -7 -3 -5 -6 6 -6 13 -1 17 -10 17 -36 0
-22 5 -35 13 -35 8 0 13 13 14 35 1 24 -3 35 -13 35 -9 0 -14 11 -14 30 0 17
-5 30 -11 30 -7 0 -9 -9 -5 -24z"/>
<path d="M90 984 c0 -8 9 -14 20 -14 11 0 20 6 20 13 0 7 -9 13 -20 14 -11 1
-20 -4 -20 -13z"/>
<path d="M146 985 c-3 -8 -1 -15 4 -15 6 0 10 7 10 15 0 8 -2 15 -4 15 -2 0
-6 -7 -10 -15z"/>
<path d="M250 985 c0 -8 7 -15 15 -15 8 0 15 7 15 15 0 8 -7 15 -15 15 -8 0
-15 -7 -15 -15z"/>
<path d="M301 990 c-1 -24 16 -43 32 -37 18 7 37 -38 37 -84 0 -22 5 -29 20
-29 11 0 20 7 20 15 0 8 -7 15 -15 15 -8 0 -15 5 -15 10 0 6 7 10 15 10 8 0
15 -4 15 -10 0 -5 14 -10 30 -10 27 0 30 -3 30 -30 0 -16 4 -30 9 -30 4 0 7
-13 5 -30 -2 -16 1 -30 6 -30 6 0 10 14 10 30 l0 30 80 0 80 0 0 -75 c0 -60 3
-75 15 -75 12 0 15 13 15 60 0 33 4 60 8 60 5 0 8 -27 8 -60 0 -47 -3 -61 -16
-65 -31 -10 -50 5 -46 36 2 20 -1 29 -10 29 -10 0 -14 -14 -14 -45 l0 -45 65
0 c51 0 65 3 65 15 0 8 -7 15 -15 15 -12 0 -15 13 -15 60 0 47 3 60 15 60 8 0
15 4 15 10 0 5 -15 8 -35 5 -19 -2 -37 0 -40 5 -4 6 28 10 79 10 l86 0 0 -44
c0 -35 -4 -45 -20 -49 -25 -6 -26 8 -2 22 13 8 8 10 -25 11 -41 0 -43 -1 -43
-30 0 -16 5 -30 11 -30 5 0 7 4 4 10 -3 5 -1 18 4 27 9 16 10 14 11 -9 0 -18
5 -28 15 -28 12 0 15 -14 15 -65 l0 -65 -45 0 c-33 0 -45 -4 -45 -15 0 -18 16
-20 23 -2 3 6 6 -5 6 -25 1 -21 -3 -38 -7 -38 -12 0 -44 59 -38 69 3 5 0 11
-7 14 -10 4 -12 -3 -9 -24 2 -16 9 -29 15 -29 6 0 7 -3 4 -7 -4 -3 -2 -12 4
-20 9 -10 8 -13 -5 -13 -13 0 -16 -12 -16 -68 0 -40 -5 -73 -12 -80 -9 -9 -3
-12 29 -12 23 0 43 -3 46 -7 2 -5 2 -2 0 5 -1 8 -3 27 -3 43 0 21 -5 29 -18
29 -14 0 -17 7 -14 45 3 35 8 45 22 45 12 0 21 12 28 38 8 29 10 7 11 -110 1
-102 -2 -148 -10 -148 -6 0 -9 7 -5 15 3 8 1 15 -4 15 -6 0 -10 -13 -10 -30 0
-20 -5 -30 -15 -30 -8 0 -15 -7 -15 -15 0 -11 -12 -15 -50 -15 -27 0 -50 -4
-50 -9 0 -5 9 -7 20 -4 11 3 20 0 20 -6 0 -7 -36 -11 -110 -11 -60 0 -110 4
-110 8 0 5 14 8 30 7 17 -1 30 2 30 7 0 4 -20 8 -45 8 -26 0 -45 5 -45 11 0 6
7 9 15 5 8 -3 15 -1 15 4 0 6 -7 10 -15 10 -8 0 -15 7 -15 15 0 8 -7 15 -16
15 -14 0 -14 -3 -4 -15 10 -12 10 -15 -4 -15 -9 0 -16 7 -16 15 0 8 -7 15 -15
15 -13 0 -15 22 -15 140 0 84 4 140 10 140 5 0 7 -7 4 -15 -4 -8 -1 -15 5 -15
8 0 11 47 11 151 0 108 -3 150 -11 147 -8 -3 -12 -40 -12 -108 0 -58 -2 -76
-4 -40 -9 184 -33 205 -33 30 l0 -120 -30 0 c-28 0 -30 3 -30 35 0 32 -2 35
-30 35 -28 0 -30 -3 -30 -35 0 -32 -2 -35 -30 -35 -28 0 -30 3 -30 35 0 19 5
35 11 35 6 0 9 -9 6 -20 -3 -11 -1 -20 4 -20 5 0 9 29 9 65 0 36 4 65 10 65 5
0 7 -7 4 -15 -4 -8 -1 -15 5 -15 6 0 11 14 11 30 0 20 5 30 15 30 10 0 15 10
15 30 l0 30 110 0 110 0 0 -60 c0 -47 3 -60 15 -60 11 0 15 12 15 53 0 65 -8
94 -27 101 -8 3 -11 1 -8 -4 7 -12 -14 -13 -79 -4 -29 4 -46 12 -46 20 0 8 -4
14 -8 14 -4 0 -9 14 -10 32 -4 54 -12 44 -12 -15 l0 -56 -45 3 c-32 2 -45 0
-45 -10 0 -7 4 -14 8 -16 5 -1 5 -14 1 -28 l-7 -25 -1 28 c-2 44 -31 35 -31
-10 0 -21 -7 -47 -15 -57 -8 -10 -12 -22 -10 -26 3 -5 -2 -10 -10 -14 -9 -3
-15 -18 -15 -35 0 -16 -5 -33 -10 -36 -6 -3 -10 1 -10 9 0 9 -7 16 -16 16 -11
0 -14 -6 -9 -20 5 -16 2 -20 -14 -20 -12 0 -21 -7 -21 -15 0 -10 10 -15 28
-15 15 0 33 -5 40 -12 17 -17 122 -18 122 -1 0 7 -4 13 -8 13 -10 0 -9 36 0
46 4 3 12 3 18 -1 9 -6 9 -9 -1 -15 -10 -7 -10 -14 1 -40 17 -41 80 -69 80
-35 0 10 -10 15 -30 15 -39 0 -39 14 -1 17 18 1 31 -4 35 -13 3 -8 6 -80 7
-160 0 -120 3 -145 14 -140 8 3 17 1 20 -4 4 -6 -5 -10 -19 -10 -16 0 -26 -6
-26 -14 0 -9 7 -12 20 -9 14 4 20 0 20 -11 0 -9 -4 -16 -10 -16 -16 0 -11 -47
6 -54 21 -8 24 -8 24 4 0 6 -7 10 -15 10 -8 0 -15 7 -15 15 0 10 10 15 29 15
16 0 35 2 43 3 7 2 10 2 6 0 -5 -3 -8 -11 -8 -19 0 -12 14 -14 78 -10 42 3
112 3 155 -1 66 -5 77 -8 77 -24 0 -14 -7 -19 -30 -19 -20 0 -30 -5 -30 -15 0
-10 -11 -15 -35 -15 -24 0 -35 -5 -35 -15 0 -10 -10 -15 -30 -15 -16 0 -30 5
-30 11 0 5 -5 7 -10 4 -14 -9 9 -30 43 -39 20 -5 27 -3 27 9 0 11 10 15 35 15
23 0 35 -5 35 -13 0 -8 12 -14 30 -14 18 0 30 6 30 14 0 7 7 13 15 13 8 0 15
7 15 15 0 8 -7 15 -15 15 -8 0 -15 7 -15 15 0 12 9 14 38 11 20 -2 27 -1 15 1
-14 3 -23 12 -23 23 0 11 -10 20 -26 24 -15 4 -32 12 -38 19 -10 9 6 11 71 8
71 -3 83 -1 83 13 0 12 -10 15 -46 13 -25 -2 -48 1 -50 5 -3 4 1 8 8 9 98 8
123 10 127 14 2 3 -21 5 -52 5 -57 0 -78 16 -36 27 16 5 19 11 15 32 -3 14 -3
20 0 14 3 -7 12 -13 19 -13 10 0 13 21 13 91 0 51 4 94 9 98 4 3 8 18 8 34 1
22 -4 27 -23 27 -19 0 -22 4 -17 21 4 11 10 42 15 67 l8 47 1 -63 c1 -56 3
-62 16 -48 17 16 21 76 5 76 -5 0 -10 9 -10 19 0 11 -4 22 -10 26 -5 3 -7 12
-3 21 9 23 33 -3 33 -37 0 -22 5 -29 19 -29 27 0 39 89 14 108 -9 6 -11 12 -5
12 19 0 14 24 -7 37 -18 11 -20 9 -23 -15 -3 -26 -4 -26 -9 6 l-6 32 59 0 c58
0 58 0 58 -29 0 -20 -6 -31 -17 -34 -10 -2 -5 -3 11 -1 37 5 42 10 28 27 -9
10 -8 17 0 25 9 9 8 12 -5 12 -9 0 -17 7 -17 16 0 14 -11 16 -80 12 -73 -4
-80 -3 -80 14 0 10 -6 18 -14 18 -8 0 -17 8 -20 18 -2 9 -2 0 1 -20 4 -31 2
-38 -11 -38 -10 0 -15 4 -12 8 2 4 -11 6 -30 4 -19 -2 -34 -8 -34 -13 0 -5 -7
-6 -15 -3 -8 4 -15 15 -15 25 0 15 -7 19 -35 19 -33 0 -35 2 -35 35 0 35 0 35
44 35 26 0 46 -5 49 -12 4 -10 6 -10 6 0 1 7 14 12 31 12 20 0 30 5 30 15 0 8
-7 15 -15 15 -8 0 -15 -4 -15 -10 0 -5 -7 -10 -15 -10 -8 0 -15 5 -15 10 0 6
-28 10 -65 10 -51 0 -65 3 -65 15 0 8 -7 15 -15 15 -22 0 -18 -27 5 -33 19 -5
26 -30 22 -79 -1 -10 3 -18 8 -18 6 0 10 -9 10 -20 0 -11 -7 -20 -15 -20 -11
0 -15 11 -15 40 0 29 -4 40 -15 40 -19 0 -21 -66 -2 -74 6 -3 -1 -3 -18 1 -16
3 -31 6 -31 7 -6 5 10 66 18 66 5 0 16 7 24 15 14 13 13 15 -10 15 -16 0 -26
6 -26 15 0 15 -31 15 -97 0 -22 -5 -33 -4 -33 4 0 6 -13 11 -29 11 -20 0 -31
6 -34 18 -3 12 -5 13 -6 2z m199 -65 c0 -12 -14 -15 -65 -15 -51 0 -65 3 -65
15 0 12 14 15 65 15 51 0 65 -3 65 -15z m138 -85 c8 0 13 -3 9 -6 -10 -10 -48
7 -40 19 5 8 8 8 11 -1 2 -7 11 -12 20 -12z m272 -135 c0 -8 -9 -15 -20 -15
-11 0 -20 7 -20 15 0 8 9 15 20 15 11 0 20 -7 20 -15z m-800 -130 c0 -8 -4
-15 -10 -15 -5 0 -10 7 -10 15 0 8 5 15 10 15 6 0 10 -7 10 -15z m240 -5 c0
-5 -4 -10 -10 -10 -5 0 -10 5 -10 10 0 6 5 10 10 10 6 0 10 -4 10 -10z m476
-70 c8 0 14 -7 14 -15 0 -8 -7 -15 -15 -15 -12 0 -15 -16 -15 -80 0 -44 -4
-80 -9 -80 -5 0 -7 35 -4 78 2 42 5 91 5 107 1 17 3 24 5 18 3 -7 11 -13 19
-13z m-93 -172 c-2 -4 -11 -4 -20 -1 -11 4 -13 8 -5 11 7 2 12 11 13 20 0 13
2 13 8 -3 5 -11 7 -23 4 -27z m-338 -128 c3 -5 -1 -10 -9 -10 -9 0 -16 5 -16
10 0 6 4 10 9 10 6 0 13 -4 16 -10z m325 -155 c0 -10 -10 -15 -30 -15 -20 0
-30 5 -30 15 0 10 10 15 30 15 20 0 30 -5 30 -15z"/>
<path d="M370 984 c0 -8 9 -14 20 -14 11 0 20 6 20 13 0 7 -9 13 -20 14 -11 1
-20 -4 -20 -13z"/>
<path d="M690 985 c0 -8 7 -15 15 -15 8 0 15 7 15 15 0 8 -7 15 -15 15 -8 0
-15 -7 -15 -15z"/>
<path d="M750 996 c0 -3 4 -16 10 -30 6 -17 6 -26 0 -26 -6 0 -10 -7 -10 -15
0 -11 -12 -15 -45 -15 -38 0 -45 -3 -45 -20 0 -17 7 -20 45 -20 38 0 45 3 45
20 0 11 7 20 15 20 11 0 15 12 15 45 0 33 -4 45 -15 45 -8 0 -15 -2 -15 -4z"/>
<path d="M811 938 c1 -35 3 -55 6 -45 2 9 8 17 12 17 4 0 9 20 9 45 2 34 -1
45 -13 45 -12 0 -15 -13 -14 -62z"/>
<path d="M870 989 c0 -5 5 -7 10 -4 6 3 10 8 10 11 0 2 -4 4 -10 4 -5 0 -10
-5 -10 -11z"/>
<path d="M190 955 c0 -8 2 -15 4 -15 2 0 6 7 10 15 3 8 1 15 -4 15 -6 0 -10
-7 -10 -15z"/>
<path d="M220 955 c0 -8 7 -15 15 -15 9 0 12 6 9 15 -4 8 -10 15 -15 15 -5 0
-9 -7 -9 -15z"/>
<path d="M870 920 l0 -50 65 0 c58 0 65 2 65 20 0 17 -7 20 -47 21 -27 1 -54
1 -60 0 -7 -1 -13 5 -13 14 0 12 13 15 60 15 47 0 60 3 60 15 0 8 -7 15 -15
15 -8 0 -15 -5 -15 -10 0 -7 -6 -7 -19 0 -11 5 -33 10 -50 10 -30 0 -31 -1
-31 -50z"/>
<path d="M108 943 c7 -3 16 -2 19 1 4 3 -2 6 -13 5 -11 0 -14 -3 -6 -6z"/>
<path d="M82 915 c0 -16 2 -22 5 -12 2 9 2 23 0 30 -3 6 -5 -1 -5 -18z"/>
<path d="M310 925 c0 -8 7 -15 15 -15 8 0 15 7 15 15 0 8 -7 15 -15 15 -8 0
-15 -7 -15 -15z"/>
<path d="M178 913 c7 -3 16 -2 19 1 4 3 -2 6 -13 5 -11 0 -14 -3 -6 -6z"/>
<path d="M220 880 c0 -29 4 -40 15 -40 11 0 15 11 15 40 0 29 -4 40 -15 40
-11 0 -15 -11 -15 -40z"/>
<path d="M130 900 c0 -5 5 -10 10 -10 6 0 8 -11 4 -25 -4 -15 -2 -25 5 -25 6
0 11 16 11 35 0 24 -5 35 -15 35 -8 0 -15 -4 -15 -10z"/>
<path d="M620 894 c0 -8 5 -12 10 -9 6 3 10 10 10 16 0 5 -4 9 -10 9 -5 0 -10
-7 -10 -16z"/>
<path d="M320 880 c0 -5 7 -10 16 -10 8 0 12 5 9 10 -3 6 -10 10 -16 10 -5 0
-9 -4 -9 -10z"/>
<path d="M91 833 c1 -37 2 -37 8 -8 4 17 12 29 19 28 7 -2 12 2 12 7 0 6 -9
10 -20 10 -17 0 -20 -6 -19 -37z"/>
<path d="M4 810 c1 -16 4 -30 8 -30 4 0 6 -6 4 -12 -15 -47 -15 -78 -1 -78 12
0 15 16 15 75 0 56 -3 75 -14 75 -8 0 -13 -11 -12 -30z"/>
<path d="M118 823 c0 -10 -1 -24 -1 -30 1 -7 -10 -13 -24 -13 -18 0 -24 4 -19
15 3 8 1 15 -4 15 -6 0 -10 -13 -10 -30 0 -20 5 -30 15 -30 8 0 15 -7 15 -15
0 -8 -7 -15 -15 -15 -8 0 -15 -4 -15 -9 0 -4 16 -3 35 3 35 11 35 11 35 68 0
54 -8 81 -12 41z"/>
<path d="M234 788 c-3 -4 11 -8 30 -8 20 0 36 2 36 4 0 8 -61 12 -66 4z"/>
<path d="M395 789 c-17 -6 -17 -8 -2 -8 14 -1 17 -11 17 -61 l0 -60 30 0 c28
0 30 -3 30 -35 0 -32 2 -35 30 -35 21 0 30 5 30 16 0 11 -6 13 -19 9 -15 -5
-22 1 -30 28 -9 25 -17 33 -34 33 -20 -1 -22 4 -23 57 -1 32 -3 59 -5 61 -2 2
-13 0 -24 -5z"/>
<path d="M560 775 c0 -14 5 -25 11 -25 5 0 8 -4 5 -9 -4 -5 -2 -20 3 -33 8
-18 10 -12 10 35 1 44 -2 57 -14 57 -9 0 -15 -9 -15 -25z"/>
<path d="M510 786 c0 -2 7 -6 15 -10 8 -3 15 -1 15 4 0 6 -7 10 -15 10 -8 0
-15 -2 -15 -4z"/>
<path d="M613 783 c9 -2 23 -2 30 0 6 3 -1 5 -18 5 -16 0 -22 -2 -12 -5z"/>
<path d="M773 783 c9 -2 25 -2 35 0 9 3 1 5 -18 5 -19 0 -27 -2 -17 -5z"/>
<path d="M610 763 c0 -15 19 -37 26 -31 3 4 -1 14 -10 23 -9 9 -16 13 -16 8z"/>
<path d="M530 705 c0 -25 5 -45 11 -45 5 0 7 -5 4 -10 -10 -17 -34 15 -31 41
2 14 -4 31 -13 39 -13 13 -14 12 -8 -4 4 -10 7 -35 7 -57 0 -37 2 -39 30 -39
l30 0 0 60 c0 47 -3 60 -15 60 -11 0 -15 -12 -15 -45z"/>
<path d="M250 706 c0 -8 5 -16 12 -18 9 -3 9 -6 0 -12 -7 -4 -12 -2 -12 3 0 6
-7 11 -15 11 -8 0 -15 -7 -15 -15 0 -10 10 -15 30 -15 27 0 30 3 30 30 0 20
-5 30 -15 30 -8 0 -15 -6 -15 -14z"/>
<path d="M940 705 c0 -8 7 -15 15 -15 8 0 15 7 15 15 0 8 -7 15 -15 15 -8 0
-15 -7 -15 -15z"/>
<path d="M60 675 c0 -8 7 -15 15 -15 8 0 15 7 15 15 0 8 -7 15 -15 15 -8 0
-15 -7 -15 -15z"/>
<path d="M587 636 c5 -42 4 -43 -26 -49 -40 -8 -40 -27 -1 -27 20 0 30 5 30
15 0 8 4 15 8 15 13 0 10 63 -3 77 -10 9 -11 2 -8 -31z"/>
<path d="M776 662 c-7 -12 6 -92 14 -87 5 3 4 21 -1 40 -6 19 -7 40 -4 45 3 6
4 10 1 10 -3 0 -7 -4 -10 -8z"/>
<path d="M0 645 c0 -8 7 -15 15 -15 8 0 15 7 15 15 0 8 -7 15 -15 15 -8 0 -15
-7 -15 -15z"/>
<path d="M970 645 c0 -8 -7 -15 -15 -15 -8 0 -15 -7 -15 -17 0 -15 1 -15 18 0
10 10 24 17 30 17 7 0 12 7 12 15 0 8 -7 15 -15 15 -8 0 -15 -7 -15 -15z"/>
<path d="M390 640 c0 -5 11 -10 25 -10 14 0 25 5 25 10 0 6 -11 10 -25 10 -14
0 -25 -4 -25 -10z"/>
<path d="M266 615 c4 -8 8 -15 10 -15 2 0 4 7 4 15 0 8 -4 15 -10 15 -5 0 -7
-7 -4 -15z"/>
<path d="M620 604 c0 -8 9 -14 20 -14 11 0 20 4 20 9 0 5 -9 11 -20 14 -13 3
-20 0 -20 -9z"/>
<path d="M720 613 c-43 -8 -47 -23 -7 -23 26 0 37 4 37 15 0 8 -1 14 -2 14 -2
-1 -14 -4 -28 -6z"/>
<path d="M896 611 c-4 -7 -5 -15 -2 -18 9 -9 19 4 14 18 -4 11 -6 11 -12 0z"/>
<path d="M411 594 c0 -11 3 -14 6 -6 3 7 2 16 -1 19 -3 4 -6 -2 -5 -13z"/>
<path d="M985 600 c-3 -5 -1 -10 4 -10 6 0 11 5 11 10 0 6 -2 10 -4 10 -3 0
-8 -4 -11 -10z"/>
<path d="M0 575 c0 -8 2 -15 4 -15 2 0 6 7 10 15 3 8 1 15 -4 15 -6 0 -10 -7
-10 -15z"/>
<path d="M265 580 c3 -5 8 -10 11 -10 2 0 4 5 4 10 0 6 -5 10 -11 10 -5 0 -7
-4 -4 -10z"/>
<path d="M440 577 c0 -11 -8 -17 -23 -17 -20 0 -24 -5 -25 -30 -1 -35 15 -41
21 -7 3 21 4 21 15 -5 9 -22 17 -27 42 -25 18 1 30 8 30 16 0 11 3 11 15 1 8
-7 15 -19 15 -26 0 -11 -19 -14 -79 -14 -44 0 -81 3 -84 8 -2 4 -2 1 0 -6 1
-8 3 -45 3 -83 0 -38 4 -69 9 -69 4 0 8 19 9 43 0 83 2 97 12 97 6 0 10 -11
10 -25 0 -24 3 -25 60 -25 l60 0 0 30 c0 26 5 31 30 37 17 3 30 9 30 14 0 5
-13 9 -30 9 -32 0 -41 16 -12 23 9 3 -4 5 -30 6 -37 1 -48 -3 -48 -14 0 -8 -7
-15 -15 -15 -10 0 -15 10 -15 31 0 30 2 31 34 27 19 -2 32 0 30 4 -3 4 -13 8
-23 8 -9 0 -22 5 -29 12 -9 9 -12 8 -12 -5z m70 -127 c11 -7 -1 -9 -40 -9 -46
1 -50 3 -25 9 43 11 48 11 65 0z"/>
<path d="M940 575 c0 -8 7 -15 15 -15 8 0 15 7 15 15 0 8 -7 15 -15 15 -8 0
-15 -7 -15 -15z"/>
<path d="M620 553 c0 -17 -6 -23 -22 -23 l-23 -1 24 -19 c13 -11 31 -19 40
-19 14 1 13 2 -1 6 -25 6 -23 33 2 33 11 0 20 4 20 10 0 5 -7 7 -15 4 -8 -4
-15 -1 -15 5 0 6 7 11 15 11 8 0 15 4 15 8 0 4 -9 8 -20 8 -14 0 -20 -7 -20
-23z"/>
<path d="M910 570 c0 -5 5 -10 11 -10 5 0 7 5 4 10 -3 6 -8 10 -11 10 -2 0 -4
-4 -4 -10z"/>
<path d="M970 545 c0 -8 7 -15 15 -15 8 0 15 7 15 15 0 8 -7 15 -15 15 -8 0
-15 -7 -15 -15z"/>
<path d="M908 533 c-34 -4 -38 -7 -38 -34 0 -22 5 -29 20 -29 11 0 20 7 20 15
0 8 6 15 14 15 7 0 16 9 19 20 3 11 4 19 4 18 -1 -1 -19 -3 -39 -5z"/>
<path d="M30 514 c0 -11 6 -15 19 -11 11 3 29 -2 40 -10 18 -12 24 -12 42 1
16 11 28 12 50 4 16 -5 34 -8 41 -5 7 3 3 6 -9 6 -13 1 -23 7 -23 16 0 10 -10
15 -30 15 -20 0 -30 -5 -30 -15 0 -8 -9 -15 -20 -15 -11 0 -20 7 -20 15 0 10
-10 15 -30 15 -21 0 -30 -5 -30 -16z"/>
<path d="M970 490 c0 -11 7 -20 15 -20 8 0 15 6 15 14 0 8 -7 16 -15 20 -10 4
-15 -1 -15 -14z"/>
<path d="M250 485 c0 -8 7 -15 15 -15 8 0 15 7 15 15 0 8 -7 15 -15 15 -8 0
-15 -7 -15 -15z"/>
<path d="M660 485 c0 -8 -9 -15 -20 -15 -22 0 -28 -26 -7 -33 6 -2 0 -3 -15
-1 -15 2 -28 -2 -30 -8 -3 -9 -6 -9 -12 0 -4 7 -2 12 3 12 6 0 11 7 11 15 0 8
-7 15 -15 15 -10 0 -15 -10 -15 -30 0 -20 5 -30 15 -30 8 0 15 -7 15 -15 0
-17 -36 -20 -74 -5 -15 5 -42 6 -68 1 -43 -9 -43 -9 20 -10 38 -1 62 -5 62
-12 0 -7 12 -10 30 -7 20 3 30 0 30 -9 0 -10 -22 -13 -90 -13 l-90 0 0 -30 0
-30 75 0 c60 0 75 3 75 15 0 11 12 15 49 15 48 0 49 0 53 35 4 31 1 35 -19 35
-14 0 -23 6 -23 15 0 8 9 15 20 15 16 0 20 7 20 30 0 20 5 30 15 30 8 0 15 7
15 15 0 8 -7 15 -15 15 -8 0 -15 -7 -15 -15z m-15 -135 c3 -5 0 -10 -9 -10 -8
0 -16 -5 -18 -12 -2 -6 -9 -8 -16 -4 -6 3 -9 13 -5 21 6 17 39 20 48 5z m-145
-30 c0 -6 -16 -10 -36 -10 -19 0 -33 3 -31 8 8 11 67 13 67 2z m40 -10 c12 -8
11 -10 -7 -10 -13 0 -23 5 -23 10 0 13 11 13 30 0z"/>
<path d="M296 468 c-3 -13 -8 -67 -11 -120 -5 -75 -10 -98 -21 -98 -8 0 -14
-7 -14 -15 0 -8 7 -15 15 -15 8 0 15 7 15 15 0 8 7 15 15 15 13 0 15 20 15
120 0 116 -4 145 -14 98z"/>
<path d="M940 459 c0 -5 5 -7 10 -4 6 3 10 8 10 11 0 2 -4 4 -10 4 -5 0 -10
-5 -10 -11z"/>
<path d="M940 425 c0 -8 7 -15 15 -15 8 0 15 7 15 15 0 8 -7 15 -15 15 -8 0
-15 -7 -15 -15z"/>
<path d="M250 395 c0 -8 7 -15 15 -15 8 0 15 7 15 15 0 8 -7 15 -15 15 -8 0
-15 -7 -15 -15z"/>
<path d="M735 400 c4 -6 11 -8 16 -5 14 9 11 15 -7 15 -8 0 -12 -5 -9 -10z"/>
<path d="M870 375 c0 -28 4 -35 20 -35 16 0 20 7 20 35 0 28 -4 35 -20 35 -16
0 -20 -7 -20 -35z"/>
<path d="M940 325 c0 -8 7 -15 15 -15 8 0 15 7 15 15 0 8 -7 15 -15 15 -8 0
-15 -7 -15 -15z"/>
<path d="M625 290 l-60 -7 63 -1 c36 -1 62 2 62 8 0 6 -1 9 -2 8 -2 -1 -30 -4
-63 -8z"/>
<path d="M940 290 c0 -5 5 -10 11 -10 5 0 7 5 4 10 -3 6 -8 10 -11 10 -2 0 -4
-4 -4 -10z"/>
<path d="M355 270 c3 -5 8 -10 11 -10 2 0 4 5 4 10 0 6 -5 10 -11 10 -5 0 -7
-4 -4 -10z"/>
<path d="M870 265 c0 -8 9 -15 20 -15 11 0 20 7 20 15 0 8 -9 15 -20 15 -11 0
-20 -7 -20 -15z"/>
<path d="M970 265 c0 -8 7 -15 15 -15 8 0 15 7 15 15 0 8 -7 15 -15 15 -8 0
-15 -7 -15 -15z"/>
<path d="M840 254 c0 -8 5 -12 10 -9 6 4 8 11 5 16 -9 14 -15 11 -15 -7z"/>
<path d="M443 253 c28 -4 37 -27 15 -37 -7 -3 -2 -3 10 0 16 4 31 -1 47 -16
13 -12 30 -20 37 -17 9 4 7 6 -4 6 -14 1 -18 10 -18 36 0 19 -4 35 -9 35 -5 0
-7 -9 -4 -20 3 -11 0 -20 -6 -20 -6 0 -11 9 -11 20 0 17 -6 20 -42 19 -30 -2
-35 -3 -15 -6z"/>
<path d="M653 253 c-15 -6 -17 -33 -3 -33 6 0 10 6 10 14 0 8 6 17 13 19 6 3
8 5 2 5 -5 0 -16 -2 -22 -5z"/>
<path d="M590 240 c0 -5 7 -10 15 -10 8 0 15 5 15 10 0 6 -7 10 -15 10 -8 0
-15 -4 -15 -10z"/>
<path d="M690 239 c0 -5 5 -7 10 -4 6 3 10 8 10 11 0 2 -4 4 -10 4 -5 0 -10
-5 -10 -11z"/>
<path d="M720 239 c0 -5 5 -7 10 -4 6 3 10 8 10 11 0 2 -4 4 -10 4 -5 0 -10
-5 -10 -11z"/>
<path d="M555 210 c3 -5 10 -10 16 -10 5 0 9 5 9 10 0 6 -7 10 -16 10 -8 0
-12 -4 -9 -10z"/>
<path d="M590 204 c0 -17 22 -14 28 4 2 7 -3 12 -12 12 -9 0 -16 -7 -16 -16z"/>
<path d="M690 209 c0 -5 5 -7 10 -4 6 3 10 8 10 11 0 2 -4 4 -10 4 -5 0 -10
-5 -10 -11z"/>
<path d="M895 170 c-3 -5 -1 -10 4 -10 6 0 11 5 11 10 0 6 -2 10 -4 10 -3 0
-8 -4 -11 -10z"/>
<path d="M280 145 c0 -8 7 -15 15 -15 8 0 15 7 15 15 0 8 -7 15 -15 15 -8 0
-15 -7 -15 -15z"/>
<path d="M470 110 c0 -11 7 -20 15 -20 8 0 15 -7 15 -15 0 -10 10 -15 30 -15
20 0 30 5 30 15 0 10 10 15 30 15 23 0 30 4 30 20 0 16 -7 20 -30 20 -23 0
-30 -4 -30 -20 0 -16 -7 -20 -30 -20 -23 0 -30 4 -30 20 0 11 -7 20 -15 20 -8
0 -15 -9 -15 -20z"/>
<path d="M645 110 c-3 -5 -1 -10 4 -10 6 0 11 5 11 10 0 6 -2 10 -4 10 -3 0
-8 -4 -11 -10z"/>
<path d="M310 100 c0 -5 5 -10 10 -10 6 0 10 5 10 10 0 6 -4 10 -10 10 -5 0
-10 -4 -10 -10z"/>
<path d="M440 100 c0 -5 5 -10 11 -10 5 0 7 5 4 10 -3 6 -8 10 -11 10 -2 0 -4
-4 -4 -10z"/>
<path d="M270 90 c-9 -6 -10 -10 -3 -10 6 0 15 5 18 10 8 12 4 12 -15 0z"/>
<path d="M340 75 c0 -10 10 -14 35 -13 22 1 35 6 35 15 0 8 -12 13 -35 13 -24
0 -35 -5 -35 -15z"/>
<path d="M250 45 c0 -8 7 -15 15 -15 8 0 15 -7 15 -16 0 -13 3 -14 14 -5 10 8
16 9 21 1 9 -15 25 -12 25 5 0 10 -10 15 -30 15 -20 0 -30 5 -30 15 0 8 -7 15
-15 15 -8 0 -15 -7 -15 -15z"/>
<path d="M420 50 c0 -6 -3 -9 -7 -7 -16 9 -53 -13 -52 -30 1 -17 2 -17 6 0 4
17 47 24 112 18 15 -1 22 2 19 11 -6 16 -78 24 -78 8z"/>
</g>
</svg>
