<?xml version="1.0" standalone="no"?>
<!DOCTYPE svg PUBLIC "-//W3C//DTD SVG 20010904//EN"
 "http://www.w3.org/TR/2001/REC-SVG-20010904/DTD/svg10.dtd">
<svg version="1.0" xmlns="http://www.w3.org/2000/svg"
 width="100.000000pt" height="100.000000pt" viewBox="0 0 100.000000 100.000000"
 preserveAspectRatio="xMidYMid meet">
<metadata>
Created by potrace 1.16, written by Peter Selinger 2001-2019
</metadata>
<g transform="translate(0.000000,100.000000) scale(0.100000,-0.100000)"
fill="#000000" stroke="none">
<path d="M430 941 c-5 -11 -10 -27 -10 -35 0 -12 -10 -16 -35 -16 -31 0 -35
-3 -35 -27 0 -21 -8 -33 -30 -45 -29 -17 -30 -19 -30 -92 0 -74 0 -75 -27 -78
-27 -3 -28 -6 -31 -65 -3 -54 -6 -63 -22 -63 -25 0 -40 -29 -40 -79 0 -31 -4
-41 -16 -41 -31 0 -43 -32 -44 -112 l0 -77 -32 -3 -33 -3 -3 -102 c-2 -66 1
-103 8 -103 5 0 10 10 10 23 0 21 3 22 65 19 56 -3 65 -6 65 -23 0 -10 5 -19
10 -19 6 0 10 9 10 20 0 18 7 20 78 20 88 0 102 8 102 57 0 29 3 33 25 33 14
0 25 5 25 10 0 6 -11 8 -25 4 -19 -5 -25 -2 -25 10 0 14 15 16 105 16 90 0
105 -2 105 -16 0 -11 -6 -15 -20 -11 -11 3 -20 1 -20 -4 0 -5 7 -9 15 -9 8 0
33 -6 55 -12 36 -12 40 -16 40 -45 l0 -33 60 0 c53 0 60 -2 60 -20 0 -11 5
-20 10 -20 6 0 10 9 10 20 0 16 7 20 30 20 23 0 30 -4 30 -20 0 -11 5 -20 10
-20 6 0 10 9 10 20 0 11 7 20 15 20 8 0 15 -9 15 -20 0 -30 18 -24 22 7 2 22
9 29 31 31 31 4 37 22 7 22 -18 0 -20 8 -22 93 l-3 92 -32 3 c-32 3 -33 4 -33
53 0 42 3 49 19 49 15 0 21 -8 24 -32 4 -32 4 -32 5 5 2 33 0 37 -23 37 -15 0
-25 6 -25 15 0 28 -23 65 -41 65 -15 0 -19 10 -21 58 -3 54 -4 57 -30 60 -27
3 -28 5 -28 68 l0 64 -30 0 -30 0 0 78 c0 83 -9 102 -47 102 -17 0 -23 6 -23
21 0 39 -23 49 -114 49 -74 0 -87 -3 -96 -19z m190 -26 c0 -20 -5 -25 -25 -25
-17 0 -25 6 -26 18 -1 16 -2 16 -6 0 -4 -15 -16 -18 -64 -18 -56 0 -59 1 -59
25 0 25 1 25 90 25 89 0 90 0 90 -25z m0 -135 c0 -89 0 -90 25 -90 14 0 25 5
25 10 0 6 -6 10 -14 10 -7 0 -16 9 -19 20 -4 15 0 20 14 20 10 0 19 5 19 10 0
6 -6 10 -14 10 -7 0 -16 9 -19 20 -4 17 0 20 24 20 l29 0 0 -155 c0 -148 1
-155 20 -155 24 0 25 6 5 26 -8 9 -15 20 -15 25 0 5 7 9 15 9 8 0 15 5 15 10
0 6 -4 10 -9 10 -5 0 -11 11 -13 25 -4 20 -1 25 16 25 20 1 20 2 4 14 -24 18
-23 46 2 46 19 0 20 -7 20 -155 0 -148 1 -155 20 -155 11 0 20 5 20 10 0 6 -4
10 -9 10 -5 0 -11 9 -14 20 -3 13 0 20 9 20 8 0 14 5 14 10 0 6 -4 10 -9 10
-5 0 -11 9 -14 20 -4 16 0 20 19 20 l24 0 0 -125 c0 -118 1 -125 20 -125 11 0
20 5 20 10 0 6 -4 10 -9 10 -5 0 -11 9 -14 20 -4 15 0 20 16 20 20 1 21 2 5
14 -25 19 -24 56 2 56 19 0 20 -7 20 -125 l0 -125 -85 0 c-50 0 -85 -4 -85
-10 0 -5 6 -10 14 -10 7 0 17 -10 21 -23 8 -22 8 -22 12 4 3 22 8 25 33 21 19
-3 30 -11 31 -21 1 -15 2 -15 6 0 2 9 15 19 29 22 18 3 24 0 24 -14 0 -11 5
-19 10 -19 6 0 10 7 10 15 0 8 7 15 15 15 8 0 15 5 15 10 0 6 -6 10 -14 10 -8
0 -16 13 -18 30 -4 26 -1 30 19 30 13 0 23 5 23 10 0 6 -9 10 -20 10 -13 0
-20 7 -20 20 0 15 7 20 25 20 25 0 25 0 25 -95 l0 -95 -125 0 -125 0 0 95 0
95 -160 0 -160 0 0 -60 c0 -57 -1 -60 -25 -60 -19 0 -23 4 -18 18 4 9 14 22
22 29 14 11 12 12 -11 13 -28 0 -28 -1 -28 -65 l0 -65 -90 0 -90 0 0 125 c0
118 1 125 20 125 25 0 26 -28 3 -46 -17 -12 -16 -13 4 -14 16 0 20 -5 16 -20
-3 -11 -9 -20 -14 -20 -5 0 -9 -4 -9 -10 0 -5 9 -10 20 -10 19 0 20 7 20 125
0 118 1 125 20 125 25 0 26 -28 3 -46 -17 -12 -17 -13 3 -14 17 0 20 -5 16
-25 -2 -14 -8 -25 -13 -25 -5 0 -9 -4 -9 -10 0 -5 9 -10 20 -10 19 0 20 7 20
125 l0 125 25 0 c19 0 23 -4 18 -17 -4 -10 -14 -23 -22 -30 -14 -11 -13 -12 7
-13 26 0 28 -12 7 -34 -20 -20 -19 -26 5 -26 19 0 20 7 20 155 0 148 1 155 20
155 25 0 26 -28 3 -46 -17 -12 -16 -13 4 -14 16 0 20 -5 16 -20 -3 -11 -9 -20
-14 -20 -5 0 -9 -4 -9 -10 0 -5 9 -10 20 -10 19 0 20 7 20 120 l0 120 125 0
125 0 0 -90z m70 66 c0 -19 -4 -22 -25 -18 -16 3 -25 11 -25 23 0 14 7 19 25
19 20 0 25 -5 25 -24z m-340 -55 c0 -10 -9 -21 -20 -24 -16 -4 -20 0 -20 19 0
17 6 24 20 24 13 0 20 -7 20 -19z m-60 -185 c0 -15 -7 -26 -20 -29 -17 -4 -20
0 -20 24 0 22 5 29 20 29 14 0 20 -7 20 -24z m520 -70 c0 -19 -4 -23 -20 -19
-11 3 -20 14 -20 24 0 12 7 19 20 19 14 0 20 -7 20 -24z m-580 -55 c0 -10 -9
-21 -20 -24 -16 -4 -20 0 -20 19 0 17 6 24 20 24 13 0 20 -7 20 -19z m640 -65
c0 -19 -4 -23 -20 -19 -11 3 -20 14 -20 24 0 12 7 19 20 19 14 0 20 -7 20 -24z
m-700 -60 c0 -15 -7 -26 -20 -29 -17 -4 -20 0 -20 24 0 22 5 29 20 29 14 0 20
-7 20 -24z m503 -147 c5 -18 -2 -19 -143 -19 -143 0 -148 1 -143 20 6 22 52
29 54 8 0 -10 2 -10 6 0 3 8 28 12 75 12 56 0 74 -4 84 -17 12 -17 13 -17 14
3 0 17 5 20 24 17 13 -3 26 -14 29 -24z m-563 -39 c0 -11 -7 -20 -15 -20 -8 0
-15 -4 -15 -10 0 -5 6 -10 14 -10 8 0 15 -14 18 -35 4 -33 2 -35 -24 -35 -28
0 -28 0 -28 65 0 63 1 65 25 65 18 0 25 -5 25 -20z m560 -20 c0 -15 -7 -20
-25 -20 -18 0 -25 5 -25 20 0 15 7 20 25 20 18 0 25 -5 25 -20z m-300 -60 c0
-23 -4 -30 -20 -30 -26 0 -28 46 -2 53 9 3 18 5 20 6 1 0 2 -12 2 -29z"/>
<path d="M420 845 c0 -8 -9 -15 -20 -15 -11 0 -20 -4 -20 -10 0 -5 14 -10 30
-10 25 0 30 4 30 25 0 14 -4 25 -10 25 -5 0 -10 -7 -10 -15z"/>
<path d="M490 843 c0 -7 -6 -13 -14 -13 -8 0 -18 -4 -21 -10 -4 -6 24 -10 76
-10 l83 0 -22 20 c-25 24 -32 25 -32 6 0 -16 -51 -10 -62 8 -5 8 -8 7 -8 -1z"/>
<path d="M424 785 c-4 -8 -12 -15 -20 -15 -8 0 -14 -4 -14 -10 0 -5 11 -10 25
-10 20 0 25 5 25 25 0 28 -8 33 -16 10z"/>
<path d="M560 773 c0 -17 6 -23 23 -23 16 0 18 3 8 9 -7 5 -17 15 -22 22 -6
10 -9 8 -9 -8z"/>
<path d="M420 720 c0 -5 -7 -10 -15 -10 -8 0 -15 -4 -15 -10 0 -5 11 -10 25
-10 18 0 25 5 25 20 0 11 -4 20 -10 20 -5 0 -10 -4 -10 -10z"/>
<path d="M500 668 c0 -21 0 -21 15 -2 15 19 15 19 30 0 15 -19 15 -19 15 2 0
18 -6 22 -30 22 -24 0 -30 -4 -30 -22z"/>
<path d="M620 658 c0 -23 4 -28 25 -28 14 0 25 5 25 10 0 6 -5 10 -11 10 -7 0
-18 8 -25 18 -12 15 -13 14 -14 -10z"/>
<path d="M440 599 c0 -17 4 -28 10 -24 6 3 10 11 10 17 0 6 8 17 18 24 15 12
14 13 -10 14 -25 0 -28 -4 -28 -31z"/>
<path d="M500 599 c0 -17 4 -28 10 -24 6 3 10 13 10 21 0 24 17 16 22 -11 4
-21 1 -25 -18 -25 -20 0 -24 -5 -24 -30 0 -25 -4 -30 -25 -30 -19 0 -23 4 -18
18 4 9 14 22 22 29 14 11 12 12 -11 13 l-28 0 0 -90 0 -90 90 0 90 0 0 60 c0
53 -2 60 -20 60 -11 0 -20 -4 -20 -10 0 -5 5 -10 10 -10 14 0 12 -37 -2 -43
-10 -4 -10 -6 0 -6 20 -1 14 -28 -8 -34 -19 -5 -20 0 -20 114 l0 119 -30 0
c-27 0 -30 -3 -30 -31z m40 -79 c0 -11 -6 -20 -14 -20 -9 0 -12 7 -9 20 3 11
9 20 14 20 5 0 9 -9 9 -20z m-43 -66 c-6 -7 -37 7 -37 16 0 15 35 16 38 2 2
-7 2 -16 -1 -18z m43 16 c0 -5 -4 -10 -10 -10 -5 0 -10 5 -10 10 0 6 5 10 10
10 6 0 10 -4 10 -10z m3 -50 c-6 -23 -18 -26 -27 -7 -5 10 -7 10 -12 0 -10
-21 -44 -16 -44 7 0 17 7 20 44 20 39 0 44 -2 39 -20z"/>
<path d="M353 600 c-3 -11 -9 -20 -14 -20 -5 0 -9 -4 -9 -10 0 -5 9 -10 20
-10 16 0 20 7 20 30 0 34 -9 40 -17 10z"/>
<path d="M398 553 c7 -3 16 -2 19 1 4 3 -2 6 -13 5 -11 0 -14 -3 -6 -6z"/>
<path d="M580 554 c0 -3 6 -12 14 -20 20 -19 26 -18 26 6 0 13 -7 20 -20 20
-11 0 -20 -3 -20 -6z"/>
<path d="M370 440 c0 -57 1 -60 25 -60 14 0 25 5 25 10 0 6 -7 10 -15 10 -11
0 -15 11 -15 40 0 29 4 40 15 40 8 0 15 5 15 10 0 6 -11 10 -25 10 -24 0 -25
-3 -25 -60z"/>
<path d="M690 463 c0 -17 6 -23 23 -23 16 0 18 3 8 9 -7 5 -17 15 -22 22 -6
10 -9 8 -9 -8z"/>
<path d="M283 405 c-18 -20 -16 -25 7 -25 13 0 20 7 20 20 0 23 -10 25 -27 5z"/>
<path d="M750 341 c0 -24 4 -31 20 -31 11 0 20 5 20 10 0 6 -4 10 -10 10 -5 0
-10 6 -10 14 0 8 -4 18 -10 21 -6 4 -10 -7 -10 -24z"/>
<path d="M370 290 c0 -11 5 -20 10 -20 6 0 10 5 10 10 0 16 217 13 223 -2 3
-8 6 -5 6 5 1 14 6 17 24 11 12 -3 23 -11 25 -15 7 -17 22 -9 22 11 0 19 -7
20 -160 20 -153 0 -160 -1 -160 -20z"/>
<path d="M223 275 c-18 -20 -16 -25 7 -25 13 0 20 7 20 20 0 23 -10 25 -27 5z"/>
<path d="M310 223 c1 -24 3 -26 13 -13 7 8 19 21 27 28 12 10 9 12 -13 12 -23
0 -27 -4 -27 -27z"/>
<path d="M810 217 c0 -20 5 -27 20 -27 11 0 20 2 20 5 0 3 -9 15 -20 27 l-20
22 0 -27z"/>
<path d="M250 170 c0 -24 6 -25 26 -6 19 20 18 26 -6 26 -13 0 -20 -7 -20 -20z"/>
<path d="M710 184 c0 -7 27 -34 34 -34 3 0 6 9 6 20 0 13 -7 20 -20 20 -11 0
-20 -3 -20 -6z"/>
<path d="M176 171 c-4 -7 -5 -15 -2 -18 9 -9 19 4 14 18 -4 11 -6 11 -12 0z"/>
<path d="M145 120 c3 -5 28 -10 56 -10 37 0 49 -4 49 -15 0 -8 5 -15 10 -15 6
0 10 5 10 11 0 7 8 18 18 25 15 11 5 13 -66 14 -53 0 -81 -4 -77 -10z"/>
<path d="M742 780 c0 -19 2 -27 5 -17 2 9 2 25 0 35 -3 9 -5 1 -5 -18z"/>
<path d="M802 660 c0 -19 2 -27 5 -17 2 9 2 25 0 35 -3 9 -5 1 -5 -18z"/>
<path d="M478 133 c12 -2 32 -2 45 0 12 2 2 4 -23 4 -25 0 -35 -2 -22 -4z"/>
</g>
</svg>
