<?xml version="1.0" standalone="no"?>
<!DOCTYPE svg PUBLIC "-//W3C//DTD SVG 20010904//EN"
 "http://www.w3.org/TR/2001/REC-SVG-20010904/DTD/svg10.dtd">
<svg version="1.0" xmlns="http://www.w3.org/2000/svg"
 width="100.000000pt" height="100.000000pt" viewBox="0 0 100.000000 100.000000"
 preserveAspectRatio="xMidYMid meet">
<metadata>
Created by potrace 1.16, written by Peter Selinger 2001-2019
</metadata>
<g transform="translate(0.000000,100.000000) scale(0.100000,-0.100000)"
fill="#000000" stroke="none">
<path d="M130 663 c1 -24 2 -26 13 -12 18 23 47 31 47 14 0 -18 16 -20 23 -2
4 9 8 8 16 -3 18 -26 12 -30 -44 -30 l-55 0 0 -65 0 -65 -29 0 c-24 0 -28 3
-24 20 3 11 12 20 19 20 8 0 14 5 14 10 0 6 -11 10 -25 10 -25 0 -25 -1 -25
-90 l0 -90 125 0 125 0 0 60 0 60 -30 0 -30 0 0 95 0 95 -60 0 c-59 0 -60 -1
-60 -27z m60 -78 c0 -18 -5 -25 -20 -25 -15 0 -20 7 -20 25 0 18 5 25 20 25
15 0 20 -7 20 -25z m40 10 c0 -8 -4 -15 -10 -15 -5 0 -10 7 -10 15 0 8 5 15
10 15 6 0 10 -7 10 -15z m0 -51 c0 -9 -8 -23 -17 -30 -16 -12 -15 -13 10 -14
26 0 27 -2 27 -55 0 -55 0 -55 -27 -49 -16 4 -31 12 -35 18 -6 8 -10 8 -15 0
-5 -6 -16 -13 -25 -17 -14 -5 -18 -1 -18 18 0 24 3 25 56 25 37 0 53 4 48 11
-3 6 -15 9 -25 6 -14 -4 -19 0 -19 16 -1 20 -2 21 -14 5 -17 -23 -26 -23 -26
2 0 13 7 20 20 20 16 0 20 7 20 30 0 23 4 30 20 30 12 0 20 -7 20 -16z m-60
-14 c0 -5 -4 -10 -10 -10 -5 0 -10 5 -10 10 0 6 5 10 10 10 6 0 10 -4 10 -10z
m-40 -65 c0 -20 -5 -25 -25 -25 -33 0 -35 37 -2 43 12 2 23 5 25 6 1 0 2 -10
2 -24z m160 -25 c0 -22 -4 -40 -10 -40 -5 0 -10 18 -10 40 0 22 5 40 10 40 6
0 10 -18 10 -40z m-180 -30 c0 -5 -7 -10 -15 -10 -8 0 -15 5 -15 10 0 6 7 10
15 10 8 0 15 -4 15 -10z"/>
<path d="M270 680 c0 -5 5 -10 10 -10 6 0 10 5 10 10 0 6 -4 10 -10 10 -5 0
-10 -4 -10 -10z"/>
<path d="M310 626 c0 -61 -1 -65 -25 -68 l-24 -3 24 -24 25 -23 0 26 c0 22 4
26 30 26 l30 0 0 -90 0 -90 61 0 c52 0 60 -2 55 -16 -3 -9 -6 -20 -6 -25 0 -5
-4 -9 -10 -9 -5 0 -10 7 -10 15 0 8 -4 15 -10 15 -5 0 -10 -8 -10 -17 0 -14
-8 -18 -35 -18 -27 0 -35 4 -35 18 0 9 -4 17 -10 17 -5 0 -10 -7 -10 -15 0 -8
-9 -15 -20 -15 -11 0 -20 7 -20 15 0 8 -4 15 -10 15 -5 0 -10 -7 -10 -15 0 -8
-4 -15 -10 -15 -5 0 -10 6 -10 14 0 8 -4 18 -10 21 -6 4 -10 -7 -10 -24 l0
-31 125 0 125 0 0 95 c0 88 1 95 20 95 25 0 26 -28 3 -46 -17 -12 -16 -13 5
-14 26 0 28 -12 7 -34 -20 -20 -19 -26 5 -26 19 0 20 7 20 125 l0 125 -30 0
-30 0 0 -65 0 -65 -30 0 -30 0 0 65 0 65 -60 0 c-61 0 -67 4 -50 30 8 13 11
12 24 -5 15 -19 15 -19 16 8 0 23 -4 27 -30 27 l-30 0 0 -64z m113 -42 c4 -21
0 -24 -24 -24 -25 0 -29 4 -29 29 0 24 3 28 24 24 16 -3 26 -13 29 -29z m-73
11 c0 -8 -4 -15 -10 -15 -5 0 -10 7 -10 15 0 8 5 15 10 15 6 0 10 -7 10 -15z
m190 -30 c0 -25 -4 -45 -10 -45 -5 0 -10 20 -10 45 0 25 5 45 10 45 6 0 10
-20 10 -45z m-120 -45 c0 -11 -7 -20 -15 -20 -8 0 -15 9 -15 20 0 11 7 20 15
20 8 0 15 -9 15 -20z m0 -50 c0 -5 -7 -10 -15 -10 -8 0 -15 5 -15 10 0 6 7 10
15 10 8 0 15 -4 15 -10z m60 -10 c0 -13 -7 -20 -20 -20 -13 0 -20 7 -20 20 0
13 7 20 20 20 13 0 20 -7 20 -20z m-40 -40 c0 -15 -7 -20 -25 -20 -18 0 -25 5
-25 20 0 15 7 20 25 20 18 0 25 -5 25 -20z m40 -10 c0 -5 -4 -10 -10 -10 -5 0
-10 5 -10 10 0 6 5 10 10 10 6 0 10 -4 10 -10z"/>
<path d="M385 680 c3 -5 11 -10 17 -10 6 0 17 -8 24 -17 12 -16 13 -15 14 10
0 24 -4 27 -31 27 -17 0 -28 -4 -24 -10z"/>
<path d="M500 663 c1 -25 2 -26 14 -10 16 20 101 24 110 5 5 -10 7 -10 12 0 8
17 31 15 38 -4 9 -23 8 -24 -24 -24 l-30 0 0 -160 0 -160 35 0 c32 0 35 2 35
31 0 17 -4 28 -10 24 -5 -3 -10 -13 -10 -21 0 -24 -27 -15 -32 11 -5 22 -2 25
23 25 l29 0 0 155 0 155 -95 0 -95 0 0 -27z m170 -158 c0 -87 -3 -105 -15
-105 -12 0 -15 18 -15 105 0 87 3 105 15 105 12 0 15 -18 15 -105z"/>
<path d="M710 679 c0 -6 9 -8 20 -4 14 5 20 2 20 -9 0 -9 5 -16 10 -16 6 0 10
4 10 9 0 5 9 11 20 14 15 4 20 0 20 -16 1 -20 2 -21 14 -4 20 26 92 24 99 -3
5 -19 0 -20 -84 -20 l-89 0 0 -65 0 -65 60 0 60 0 0 -53 0 -54 -30 5 c-33 5
-41 22 -10 22 11 0 20 5 20 10 0 6 -6 10 -14 10 -9 0 -12 8 -8 25 2 15 0 25
-7 25 -6 0 -11 -11 -11 -25 0 -21 -5 -25 -30 -25 -27 0 -30 -3 -30 -30 l0 -30
95 0 95 0 0 60 0 60 -35 0 c-32 0 -35 2 -35 30 0 27 3 30 31 30 25 0 29 -3 24
-19 -3 -11 -1 -22 5 -26 7 -4 10 24 10 84 l0 91 -115 0 c-75 0 -115 -4 -115
-11z m80 -114 c0 -25 -4 -45 -10 -45 -5 0 -10 20 -10 45 0 25 5 45 10 45 6 0
10 -20 10 -45z m80 20 c0 -21 -5 -25 -27 -25 -25 -1 -26 -2 -10 -14 22 -17 22
-26 -3 -26 -17 0 -20 7 -20 45 0 43 1 45 30 45 25 0 30 -4 30 -25z m50 10 c0
-8 -7 -15 -15 -15 -8 0 -15 7 -15 15 0 8 7 15 15 15 8 0 15 -7 15 -15z m0
-155 c0 -29 -4 -40 -15 -40 -11 0 -15 11 -15 40 0 29 4 40 15 40 11 0 15 -11
15 -40z m-130 -30 c0 -5 -4 -10 -10 -10 -5 0 -10 5 -10 10 0 6 5 10 10 10 6 0
10 -4 10 -10z"/>
<path d="M960 680 c0 -5 9 -10 20 -10 11 0 20 5 20 10 0 6 -9 10 -20 10 -11 0
-20 -4 -20 -10z"/>
<path d="M270 620 c0 -5 5 -10 10 -10 6 0 10 5 10 10 0 6 -4 10 -10 10 -5 0
-10 -4 -10 -10z"/>
<path d="M460 620 c0 -5 5 -10 10 -10 6 0 10 5 10 10 0 6 -4 10 -10 10 -5 0
-10 -4 -10 -10z"/>
<path d="M580 620 c0 -5 5 -10 10 -10 6 0 10 5 10 10 0 6 -4 10 -10 10 -5 0
-10 -4 -10 -10z"/>
<path d="M710 620 c0 -5 5 -10 10 -10 6 0 10 5 10 10 0 6 -4 10 -10 10 -5 0
-10 -4 -10 -10z"/>
<path d="M960 620 c0 -5 9 -10 20 -10 11 0 20 5 20 10 0 6 -9 10 -20 10 -11 0
-20 -4 -20 -10z"/>
<path d="M580 570 c0 -5 5 -10 10 -10 6 0 10 5 10 10 0 6 -4 10 -10 10 -5 0
-10 -4 -10 -10z"/>
<path d="M960 570 c0 -5 9 -10 20 -10 11 0 20 5 20 10 0 6 -9 10 -20 10 -11 0
-20 -4 -20 -10z"/>
<path d="M455 550 c3 -5 10 -10 16 -10 5 0 9 5 9 10 0 6 -7 10 -16 10 -8 0
-12 -4 -9 -10z"/>
<path d="M320 510 c0 -5 9 -10 21 -10 11 0 17 5 14 10 -3 6 -13 10 -21 10 -8
0 -14 -4 -14 -10z"/>
<path d="M580 510 c0 -5 5 -10 10 -10 6 0 10 5 10 10 0 6 -4 10 -10 10 -5 0
-10 -4 -10 -10z"/>
<path d="M955 490 c3 -5 15 -10 26 -10 10 0 19 5 19 10 0 6 -12 10 -26 10 -14
0 -23 -4 -19 -10z"/>
<path d="M730 470 c0 -5 5 -10 10 -10 6 0 10 5 10 10 0 6 -4 10 -10 10 -5 0
-10 -4 -10 -10z"/>
<path d="M960 450 c0 -5 9 -10 20 -10 11 0 20 5 20 10 0 6 -9 10 -20 10 -11 0
-20 -4 -20 -10z"/>
<path d="M0 430 c0 -5 9 -10 20 -10 11 0 20 5 20 10 0 6 -9 10 -20 10 -11 0
-20 -4 -20 -10z"/>
<path d="M330 430 c0 -5 5 -10 10 -10 6 0 10 5 10 10 0 6 -4 10 -10 10 -5 0
-10 -4 -10 -10z"/>
<path d="M710 430 c0 -5 5 -10 10 -10 6 0 10 5 10 10 0 6 -4 10 -10 10 -5 0
-10 -4 -10 -10z"/>
<path d="M330 390 c0 -5 5 -10 10 -10 6 0 10 5 10 10 0 6 -4 10 -10 10 -5 0
-10 -4 -10 -10z"/>
<path d="M710 390 c0 -5 7 -10 16 -10 8 0 12 5 9 10 -3 6 -10 10 -16 10 -5 0
-9 -4 -9 -10z"/>
<path d="M955 390 c-4 -6 5 -10 19 -10 14 0 26 5 26 10 0 6 -9 10 -19 10 -11
0 -23 -4 -26 -10z"/>
<path d="M0 370 c0 -5 9 -10 20 -10 11 0 20 5 20 10 0 6 -9 10 -20 10 -11 0
-20 -4 -20 -10z"/>
<path d="M60 347 c0 -20 -4 -23 -30 -19 -18 3 -30 0 -30 -7 0 -7 24 -11 65
-11 l65 0 0 31 c0 17 -4 28 -10 24 -5 -3 -10 -13 -10 -21 0 -8 -7 -14 -15 -14
-8 0 -15 6 -15 14 0 8 -4 18 -10 21 -6 3 -10 -4 -10 -18z"/>
<path d="M750 341 l0 -31 95 0 95 0 0 31 c0 17 -4 28 -10 24 -5 -3 -10 -13
-10 -21 0 -8 -10 -14 -25 -14 -16 0 -25 6 -25 15 0 8 -4 15 -10 15 -5 0 -10
-7 -10 -15 0 -8 -4 -15 -10 -15 -5 0 -10 7 -10 15 0 8 -4 15 -10 15 -5 0 -10
-7 -10 -15 0 -8 -9 -15 -20 -15 -11 0 -20 6 -20 14 0 8 -4 18 -10 21 -6 4 -10
-7 -10 -24z"/>
<path d="M170 345 c0 -8 -4 -15 -10 -15 -5 0 -10 -4 -10 -10 0 -5 9 -10 20
-10 15 0 20 7 20 25 0 14 -4 25 -10 25 -5 0 -10 -7 -10 -15z"/>
<path d="M710 320 c0 -5 7 -10 16 -10 8 0 12 5 9 10 -3 6 -10 10 -16 10 -5 0
-9 -4 -9 -10z"/>
</g>
</svg>
