<?xml version="1.0" standalone="no"?>
<!DOCTYPE svg PUBLIC "-//W3C//DTD SVG 20010904//EN"
 "http://www.w3.org/TR/2001/REC-SVG-20010904/DTD/svg10.dtd">
<svg version="1.0" xmlns="http://www.w3.org/2000/svg"
 width="192.000000pt" height="192.000000pt" viewBox="0 0 192.000000 192.000000"
 preserveAspectRatio="xMidYMid meet">
<metadata>
Created by potrace 1.16, written by Peter Selinger 2001-2019
</metadata>
<g transform="translate(0.000000,192.000000) scale(0.100000,-0.100000)"
fill="#000000" stroke="none">
<path d="M1448 1263 c6 -2 18 -2 25 0 6 3 1 5 -13 5 -14 0 -19 -2 -12 -5z"/>
<path d="M1515 1255 c-23 -8 -32 -14 -20 -14 38 -2 -6 -19 -67 -26 -57 -7 -62
-11 -59 -47 1 -10 -3 -18 -8 -18 -6 0 -11 -7 -11 -16 0 -8 -4 -12 -10 -9 -12
7 -13 -89 -4 -184 5 -39 11 -61 19 -61 10 0 11 -5 2 -25 -7 -14 -15 -25 -19
-25 -5 0 -8 -7 -8 -15 0 -8 -4 -15 -10 -15 -15 0 -12 21 7 42 14 16 14 18 1
18 -13 0 -15 22 -14 158 1 86 6 166 11 177 8 18 7 19 -8 6 -15 -12 -17 -12
-11 3 5 14 -2 16 -52 17 -33 1 -63 0 -69 -1 -5 -1 -50 -3 -100 -4 l-90 -1 -10
-32 c-10 -37 -26 -45 -22 -12 1 12 -4 24 -10 26 -20 7 -16 -44 4 -56 13 -7 14
-13 6 -23 -5 -7 -13 -25 -17 -40 -4 -20 -13 -28 -29 -29 -12 0 -16 -3 -9 -6
14 -5 15 -49 1 -78 l-9 -20 2 20 c2 11 0 25 -4 30 -3 6 -11 27 -16 49 -9 31
-8 41 4 53 21 22 15 95 -8 99 -10 1 -18 -2 -18 -7 0 -5 4 -9 10 -9 5 0 8 -15
6 -32 -3 -18 -5 -37 -6 -43 -1 -5 -6 1 -11 14 -7 17 -6 27 2 31 7 5 5 9 -5 13
-9 4 -21 18 -26 32 -9 24 -13 25 -88 25 -74 0 -79 -1 -90 -25 -6 -14 -7 -25
-2 -25 13 0 24 -40 21 -82 -2 -24 2 -38 9 -38 9 0 11 10 6 33 -4 21 -3 27 3
17 5 -8 11 -29 14 -47 3 -18 17 -58 32 -90 15 -32 29 -67 30 -78 1 -11 12 -42
24 -68 12 -27 20 -55 17 -63 -3 -8 -1 -14 4 -14 6 0 10 -8 10 -18 0 -15 9 -17
83 -14 45 2 84 8 85 13 2 5 7 7 11 5 3 -2 6 13 6 34 0 21 4 38 10 37 5 -1 12
11 13 28 l4 30 14 -25 14 -25 -6 28 c-5 21 -2 27 10 27 9 0 16 4 16 10 0 5 -7
7 -15 4 -9 -4 -15 0 -15 9 0 8 8 14 17 13 12 -1 19 9 24 34 3 19 10 44 14 54
6 15 5 17 -5 11 -10 -6 -12 -4 -7 9 4 10 7 22 7 27 0 16 18 9 22 -8 3 -10 5 4
6 31 1 27 4 51 7 54 3 3 6 -66 6 -154 1 -87 2 -179 3 -203 l1 -44 90 -2 c100
-1 135 3 135 16 0 5 -11 7 -24 3 -19 -4 -24 -1 -28 20 l-5 26 36 -22 c20 -12
39 -26 43 -32 10 -15 149 -19 197 -6 23 6 51 20 62 31 10 10 23 19 28 19 4 0
13 15 19 33 5 17 10 24 11 15 1 -13 9 -18 29 -17 21 1 23 3 6 6 -20 4 -21 10
-19 66 2 56 2 57 -5 17 -5 -35 -7 -39 -8 -15 -1 17 -6 44 -11 62 -8 26 -6 33
7 36 15 4 15 5 0 6 -10 0 -18 4 -18 9 0 4 -10 13 -22 21 l-23 14 20 -24 c11
-13 4 -9 -16 9 -24 22 -45 32 -69 33 -31 1 -30 2 14 11 29 5 57 18 68 30 15
17 18 18 18 5 0 -9 -12 -23 -27 -31 -26 -14 -24 -17 10 -20 6 -1 15 -5 19 -11
4 -5 7 -1 7 10 -1 37 15 106 31 135 10 18 9 21 -7 18 -10 -2 -17 2 -15 10 1 6
-1 11 -5 10 -5 -1 -25 4 -46 12 -25 9 -36 19 -32 28 3 9 0 12 -9 9 -8 -3 -32
-8 -53 -11 -21 -3 -30 -3 -20 0 9 3 17 9 17 14 0 5 10 11 23 13 18 4 18 4 2 5
-11 0 -38 -6 -60 -13z m-757 -65 l47 0 48 -144 c26 -79 47 -151 47 -160 0 -9
5 -16 10 -16 6 0 10 8 10 17 0 10 21 81 47 159 l47 142 63 4 c35 2 62 0 61 -3
-2 -3 -41 -105 -88 -227 l-85 -222 -58 2 -59 3 -39 105 c-22 58 -51 134 -63
170 -13 36 -33 87 -45 113 -25 58 -26 71 -5 63 9 -3 37 -6 62 -6z m532 -222
l0 -228 -59 0 -59 0 -1 221 c0 122 1 224 3 228 2 3 29 6 60 6 l56 0 0 -227z
m104 217 c-4 -8 -11 -12 -16 -9 -6 4 -5 10 3 15 19 12 19 11 13 -6z m242 -4
c23 -10 44 -23 47 -28 3 -4 -10 -25 -30 -46 -33 -36 -36 -38 -53 -22 -10 9
-36 19 -57 22 -30 4 -42 1 -58 -17 -27 -30 -12 -49 64 -76 107 -39 134 -66
134 -136 0 -58 -21 -96 -68 -123 -54 -32 -142 -34 -207 -5 -69 30 -72 39 -32
83 l35 38 25 -20 c58 -46 134 -35 134 19 0 25 -6 30 -47 45 -101 35 -130 52
-146 88 -10 19 -17 48 -17 65 0 38 36 90 80 113 46 25 141 25 196 0z m-111
-101 c-4 -7 2 -9 19 -4 17 4 26 2 26 -6 0 -7 -7 -10 -15 -7 -8 4 -17 1 -21 -5
-4 -7 -9 -6 -15 3 -7 12 -3 29 7 29 3 0 2 -5 -1 -10z m150 -40 c-3 -5 -12 -10
-18 -10 -7 0 -6 4 3 10 19 12 23 12 15 0z m-309 -76 c9 3 12 1 9 -4 -4 -6 4
-14 16 -18 l23 -9 -25 -8 c-21 -7 -19 -9 18 -12 39 -4 64 -25 43 -38 -6 -4
-10 1 -10 10 0 12 -9 15 -41 13 -36 -3 -42 0 -44 17 -1 11 -4 31 -7 45 -3 14
-3 19 -1 12 3 -8 11 -11 19 -8z m-290 -52 c-11 -10 -15 4 -8 28 l7 25 3 -23
c2 -13 1 -26 -2 -30z m428 -24 c-3 -5 -12 -4 -20 3 -19 16 -18 18 6 12 11 -3
17 -9 14 -15z m29 -17 c3 -13 0 -18 -12 -16 -9 2 -24 4 -34 4 -10 1 -16 5 -13
10 3 5 15 7 26 4 11 -3 20 0 20 6 0 17 7 13 13 -8z"/>
<path d="M1060 1144 c0 -8 -7 -22 -15 -30 -8 -9 -15 -21 -15 -27 1 -20 40 34
40 54 0 10 -2 19 -5 19 -3 0 -5 -7 -5 -16z"/>
<path d="M1030 1139 c0 -5 5 -7 10 -4 6 3 10 8 10 11 0 2 -4 4 -10 4 -5 0 -10
-5 -10 -11z"/>
<path d="M756 1105 c4 -8 10 -12 15 -9 14 8 10 24 -6 24 -9 0 -12 -6 -9 -15z"/>
<path d="M796 1087 c3 -10 9 -15 12 -12 3 3 0 11 -7 18 -10 9 -11 8 -5 -6z"/>
<path d="M1020 1028 c0 -49 5 -47 13 5 3 20 2 37 -4 37 -5 0 -9 -19 -9 -42z"/>
<path d="M796 1024 c-14 -30 -14 -36 -2 -31 9 4 17 -1 20 -11 2 -9 2 1 0 23
-4 30 -3 36 5 25 12 -17 15 -1 3 18 -6 8 -14 1 -26 -24z"/>
<path d="M766 1037 c3 -10 9 -15 12 -12 3 3 0 11 -7 18 -10 9 -11 8 -5 -6z"/>
<path d="M991 1033 c0 -6 -4 -20 -7 -30 -5 -14 -4 -15 5 -7 7 7 11 20 8 30 -3
11 -5 14 -6 7z"/>
<path d="M969 934 c-12 -27 -23 -52 -23 -56 -1 -3 -4 -10 -8 -14 -9 -8 -1 -24
12 -24 5 0 7 7 4 15 -4 8 -2 15 4 15 6 0 13 -6 15 -12 4 -10 6 -10 6 0 1 7 -6
15 -14 18 -12 5 -12 10 2 32 9 15 23 33 32 40 11 9 12 15 3 24 -9 9 -17 -1
-33 -38z"/>
<path d="M812 939 c2 -7 10 -15 17 -17 8 -3 12 1 9 9 -2 7 -10 15 -17 17 -8 3
-12 -1 -9 -9z"/>
<path d="M991 914 c0 -11 3 -14 6 -6 3 7 2 16 -1 19 -3 4 -6 -2 -5 -13z"/>
<path d="M857 859 c4 -14 8 -17 13 -9 6 9 9 9 13 -1 4 -9 6 -10 6 -2 1 7 -8
17 -18 22 -16 9 -18 8 -14 -10z"/>
<path d="M900 840 c0 -5 5 -10 10 -10 6 0 10 5 10 10 0 6 -4 10 -10 10 -5 0
-10 -4 -10 -10z"/>
<path d="M867 815 c-4 -8 -1 -17 5 -21 7 -4 8 -3 4 4 -4 7 -2 12 3 12 6 0 11
5 11 10 0 15 -17 12 -23 -5z"/>
<path d="M935 821 c-3 -5 -1 -12 5 -16 5 -3 10 1 10 9 0 18 -6 21 -15 7z"/>
<path d="M1223 1133 c9 -2 23 -2 30 0 6 3 -1 5 -18 5 -16 0 -22 -2 -12 -5z"/>
<path d="M1510 1162 c0 -11 8 -18 20 -18 11 0 20 1 20 1 0 0 -9 8 -20 18 -19
16 -20 16 -20 -1z"/>
<path d="M1568 1163 c7 -3 16 -2 19 1 4 3 -2 6 -13 5 -11 0 -14 -3 -6 -6z"/>
<path d="M1445 1140 c3 -5 14 -10 23 -10 15 0 15 2 2 10 -20 13 -33 13 -25 0z"/>
<path d="M1609 1148 c-6 -21 -5 -37 2 -32 5 3 6 10 3 16 -4 6 2 8 17 3 19 -5
21 -4 9 4 -14 10 -29 14 -31 9z"/>
<path d="M1436 1115 c10 -8 24 -14 29 -14 6 0 1 6 -9 14 -11 8 -24 15 -30 15
-5 0 -1 -7 10 -15z"/>
<path d="M1397 1095 c-4 -8 -2 -17 3 -20 6 -4 10 3 10 14 0 25 -6 27 -13 6z"/>
<path d="M1420 1051 c0 -6 4 -13 10 -16 6 -3 7 1 4 9 -7 18 -14 21 -14 7z"/>
<path d="M1435 1010 c-3 -5 -1 -10 5 -10 6 0 8 -4 5 -10 -3 -5 1 -10 9 -10 20
0 20 7 2 26 -9 9 -17 10 -21 4z"/>
<path d="M1495 990 c-3 -5 -1 -10 4 -10 6 0 11 5 11 10 0 6 -2 10 -4 10 -3 0
-8 -4 -11 -10z"/>
<path d="M1517 973 c-4 -3 -7 -13 -7 -21 0 -18 13 -7 16 13 2 17 1 18 -9 8z"/>
<path d="M1552 968 c-17 -17 -15 -33 2 -19 7 6 21 9 30 5 22 -8 20 3 -2 15
-13 7 -23 6 -30 -1z"/>
<path d="M1593 929 c9 -6 17 -20 17 -31 0 -26 5 -21 13 12 5 22 3 25 -21 27
-21 1 -23 -1 -9 -8z"/>
<path d="M1636 913 c-4 -9 0 -23 9 -32 10 -10 15 -11 15 -3 0 7 -5 12 -11 12
-6 0 -8 9 -4 20 8 24 0 27 -9 3z"/>
<path d="M1610 861 c0 -6 5 -13 10 -16 6 -3 10 1 10 9 0 9 -4 16 -10 16 -5 0
-10 -4 -10 -9z"/>
<path d="M1640 839 c0 -5 5 -7 10 -4 6 3 10 8 10 11 0 2 -4 4 -10 4 -5 0 -10
-5 -10 -11z"/>
<path d="M1410 810 c0 -5 5 -10 11 -10 5 0 7 5 4 10 -3 6 -8 10 -11 10 -2 0
-4 -4 -4 -10z"/>
<path d="M1621 804 c0 -11 3 -14 6 -6 3 7 2 16 -1 19 -3 4 -6 -2 -5 -13z"/>
<path d="M1585 800 c-3 -5 -1 -10 4 -10 6 0 11 5 11 10 0 6 -2 10 -4 10 -3 0
-8 -4 -11 -10z"/>
<path d="M1418 783 c12 -2 32 -2 45 0 12 2 2 4 -23 4 -25 0 -35 -2 -22 -4z"/>
<path d="M1545 780 c3 -5 10 -10 16 -10 5 0 9 5 9 10 0 6 -7 10 -16 10 -8 0
-12 -4 -9 -10z"/>
<path d="M1448 763 c7 -3 16 -2 19 1 4 3 -2 6 -13 5 -11 0 -14 -3 -6 -6z"/>
<path d="M1508 763 c6 -2 18 -2 25 0 6 3 1 5 -13 5 -14 0 -19 -2 -12 -5z"/>
<path d="M1120 1249 c0 -5 5 -7 10 -4 6 3 10 8 10 11 0 2 -4 4 -10 4 -5 0 -10
-5 -10 -11z"/>
<path d="M345 1209 c-4 -6 -5 -12 -2 -15 2 -3 7 2 10 11 7 17 1 20 -8 4z"/>
<path d="M390 1205 c8 -9 6 -14 -5 -19 -9 -3 -13 -11 -10 -16 4 -6 1 -18 -6
-26 -7 -8 -16 -32 -20 -52 -5 -30 -7 -32 -8 -10 0 15 -5 29 -9 32 -5 3 -7 -17
-5 -45 1 -27 -1 -49 -6 -49 -10 0 -25 -48 -22 -67 1 -8 -4 -10 -14 -7 -8 3
-12 11 -8 17 3 6 1 7 -5 3 -14 -8 -16 -33 -3 -38 5 -1 0 -28 -10 -58 -10 -30
-18 -47 -18 -37 -1 30 -16 19 -18 -14 -1 -17 -8 -37 -14 -45 -6 -8 -8 -25 -5
-39 6 -24 9 -25 84 -25 68 0 80 3 97 23 10 12 19 24 19 27 -1 3 1 13 4 23 4
14 16 17 67 17 66 0 75 -6 75 -52 0 -12 3 -18 7 -15 3 4 11 0 18 -9 9 -12 28
-16 79 -15 37 0 72 3 77 6 14 9 11 53 -7 86 -8 17 -13 33 -10 37 3 3 6 0 6 -7
0 -7 5 -9 10 -6 16 10 12 23 -9 30 -13 4 -18 12 -14 22 4 10 2 14 -4 10 -7 -5
-9 0 -6 14 4 16 8 17 14 7 12 -18 11 -5 -1 26 -6 17 -6 26 0 26 6 0 10 5 10
10 0 7 -6 7 -19 1 -13 -7 -17 -18 -14 -36 3 -14 1 -25 -6 -25 -5 0 -8 6 -5 14
3 8 1 17 -5 20 -6 4 -8 13 -4 21 3 8 0 15 -5 15 -7 0 -10 29 -9 74 1 41 5 72
9 69 4 -2 5 4 1 13 -4 11 -8 13 -11 6 -2 -7 -13 -12 -25 -13 l-22 0 23 -11
c23 -11 30 -42 12 -53 -5 -3 -10 -11 -10 -16 0 -6 5 -7 12 -3 7 4 8 3 4 -5
-13 -20 -26 -1 -20 28 4 17 1 32 -6 36 -9 5 -10 1 -5 -16 5 -19 4 -21 -4 -9
-6 8 -11 24 -11 34 0 11 -11 34 -26 53 -19 25 -22 33 -10 33 9 0 16 4 16 9 0
5 -45 9 -101 9 -81 0 -98 -2 -89 -13z m198 -145 c28 -69 68 -168 91 -220 22
-52 39 -95 38 -96 -1 -1 -29 -4 -61 -5 l-59 -3 -17 45 -18 44 -88 3 -89 3 -14
-45 -13 -44 -66 -4 c-76 -4 -82 -3 -60 15 8 6 54 107 103 224 l87 212 52 3
c28 2 54 1 57 -2 4 -3 29 -61 57 -130z"/>
<path d="M484 1154 c-18 -7 -6 -38 20 -50 21 -10 22 -9 18 15 -3 14 -7 20 -9
14 -3 -7 -9 -13 -15 -13 -5 0 -6 9 -3 20 3 11 5 20 3 19 -2 0 -8 -3 -14 -5z"/>
<path d="M441 1141 c-8 -6 -9 -11 -3 -15 6 -3 14 -1 17 5 9 14 2 20 -14 10z"/>
<path d="M427 1104 c-4 -4 -7 -19 -7 -34 0 -14 -5 -31 -12 -38 -8 -8 -9 -12
-1 -12 6 0 17 16 23 35 12 36 10 62 -3 49z"/>
<path d="M455 1090 c-3 -5 -1 -10 4 -10 6 0 11 5 11 10 0 6 -2 10 -4 10 -3 0
-8 -4 -11 -10z"/>
<path d="M501 1074 c0 -11 3 -14 6 -6 3 7 2 16 -1 19 -3 4 -6 -2 -5 -13z"/>
<path d="M530 1064 c0 -8 5 -12 10 -9 6 3 10 10 10 16 0 5 -4 9 -10 9 -5 0
-10 -7 -10 -16z"/>
<path d="M452 1007 c-13 -34 -25 -69 -28 -77 -4 -12 6 -15 50 -16 31 -1 56 1
56 5 -1 10 -47 141 -51 146 -3 2 -15 -24 -27 -58z m25 -47 c-1 -11 -5 -20 -9
-20 -10 0 -10 4 -2 24 8 22 13 20 11 -4z"/>
<path d="M553 1029 c-2 -23 3 -25 10 -4 4 8 3 16 -1 19 -4 3 -9 -4 -9 -15z"/>
<path d="M531 1015 c0 -11 4 -27 9 -35 9 -13 10 -13 9 0 0 8 -4 24 -9 35 l-9
20 0 -20z"/>
<path d="M375 1010 c-3 -5 -1 -10 4 -10 6 0 11 5 11 10 0 6 -2 10 -4 10 -3 0
-8 -4 -11 -10z"/>
<path d="M561 980 c-7 -22 -7 -29 1 -24 5 4 14 1 18 -6 5 -8 9 -8 13 4 4 9 1
15 -6 13 -7 -1 -11 7 -10 21 4 31 -3 28 -16 -8z"/>
<path d="M375 970 c-3 -5 3 -10 15 -10 12 0 18 5 15 10 -3 6 -10 10 -15 10 -5
0 -12 -4 -15 -10z"/>
<path d="M370 936 c0 -9 5 -16 10 -16 6 0 10 4 10 9 0 6 -4 13 -10 16 -5 3
-10 -1 -10 -9z"/>
<path d="M576 914 c-9 -23 -2 -28 13 -10 7 8 8 17 3 20 -6 3 -13 -1 -16 -10z"/>
<path d="M347 896 c-18 -14 -24 -32 -7 -21 6 3 10 0 11 -7 0 -7 5 -2 10 11 12
30 9 33 -14 17z"/>
<path d="M595 890 c-3 -5 -1 -10 4 -10 6 0 11 5 11 10 0 6 -2 10 -4 10 -3 0
-8 -4 -11 -10z"/>
<path d="M375 880 c-3 -5 -1 -10 4 -10 6 0 11 5 11 10 0 6 -2 10 -4 10 -3 0
-8 -4 -11 -10z"/>
<path d="M400 878 c0 -10 9 -9 35 2 17 8 16 8 -7 7 -16 -1 -28 -5 -28 -9z"/>
<path d="M570 861 c0 -6 5 -13 10 -16 6 -3 10 1 10 9 0 9 -4 16 -10 16 -5 0
-10 -4 -10 -9z"/>
<path d="M610 831 c0 -17 4 -32 8 -35 4 -2 6 11 4 30 -5 42 -12 45 -12 5z"/>
<path d="M336 835 c4 -8 11 -15 16 -15 6 0 5 6 -2 15 -7 8 -14 15 -16 15 -2 0
-1 -7 2 -15z"/>
<path d="M630 831 c0 -6 4 -13 10 -16 6 -3 7 1 4 9 -7 18 -14 21 -14 7z"/>
<path d="M301 808 c-16 -26 -11 -30 11 -7 10 10 14 20 10 23 -5 3 -14 -4 -21
-16z"/>
<path d="M320 785 c0 -8 5 -15 10 -15 6 0 10 7 10 15 0 8 -4 15 -10 15 -5 0
-10 -7 -10 -15z"/>
<path d="M625 780 c-13 -5 -14 -9 -5 -9 8 0 24 4 35 9 13 5 14 9 5 9 -8 0 -24
-4 -35 -9z"/>
<path d="M618 1194 c-5 -4 -8 -16 -8 -28 0 -14 3 -17 11 -9 6 6 9 19 7 28 -1
9 -6 13 -10 9z"/>
<path d="M346 1163 c-6 -14 -5 -15 5 -6 7 7 10 15 7 18 -3 3 -9 -2 -12 -12z"/>
<path d="M1330 1164 c0 -8 5 -12 10 -9 6 3 10 10 10 16 0 5 -4 9 -10 9 -5 0
-10 -7 -10 -16z"/>
<path d="M1740 1166 c-6 -9 -10 -21 -8 -28 3 -8 9 -4 17 10 15 28 9 39 -9 18z"/>
<path d="M920 1109 c0 -5 5 -7 10 -4 6 3 10 8 10 11 0 2 -4 4 -10 4 -5 0 -10
-5 -10 -11z"/>
<path d="M1110 960 c0 -5 5 -10 11 -10 5 0 7 5 4 10 -3 6 -8 10 -11 10 -2 0
-4 -4 -4 -10z"/>
<path d="M1742 920 c6 -23 13 -39 15 -36 7 7 -8 76 -17 76 -4 0 -3 -18 2 -40z"/>
<path d="M241 940 c0 -8 4 -22 9 -30 12 -18 12 -2 0 25 -6 13 -9 15 -9 5z"/>
<path d="M1106 904 c-4 -20 -5 -38 -3 -40 3 -3 8 11 11 32 4 20 5 38 3 40 -3
3 -8 -11 -11 -32z"/>
<path d="M730 924 c0 -13 18 -39 24 -34 2 3 -2 14 -10 24 -8 11 -14 16 -14 10z"/>
<path d="M230 886 c0 -9 5 -16 10 -16 6 0 10 4 10 9 0 6 -4 13 -10 16 -5 3
-10 -1 -10 -9z"/>
<path d="M720 874 c0 -8 5 -12 10 -9 6 4 8 11 5 16 -9 14 -15 11 -15 -7z"/>
<path d="M1740 836 c0 -31 6 -34 13 -6 3 11 1 23 -4 26 -5 3 -9 -6 -9 -20z"/>
<path d="M760 810 c0 -5 7 -10 16 -10 8 0 12 5 9 10 -3 6 -10 10 -16 10 -5 0
-9 -4 -9 -10z"/>
<path d="M165 790 c3 -5 10 -10 16 -10 5 0 9 5 9 10 0 6 -7 10 -16 10 -8 0
-12 -4 -9 -10z"/>
<path d="M1025 759 c-4 -6 -5 -12 -2 -15 2 -3 7 2 10 11 7 17 1 20 -8 4z"/>
<path d="M1116 761 c-4 -7 -5 -15 -2 -18 9 -9 19 4 14 18 -4 11 -6 11 -12 0z"/>
<path d="M790 720 c0 -5 5 -10 11 -10 5 0 7 5 4 10 -3 6 -8 10 -11 10 -2 0 -4
-4 -4 -10z"/>
</g>
</svg>
