<?xml version="1.0" standalone="no"?>
<!DOCTYPE svg PUBLIC "-//W3C//DTD SVG 20010904//EN"
 "http://www.w3.org/TR/2001/REC-SVG-20010904/DTD/svg10.dtd">
<svg version="1.0" xmlns="http://www.w3.org/2000/svg"
 width="60.000000pt" height="60.000000pt" viewBox="0 0 60.000000 60.000000"
 preserveAspectRatio="xMidYMid meet">
<metadata>
Created by potrace 1.16, written by Peter Selinger 2001-2019
</metadata>
<g transform="translate(0.000000,60.000000) scale(0.100000,-0.100000)"
fill="#000000" stroke="none">
<path d="M188 423 c68 -2 176 -2 240 0 64 1 9 3 -123 3 -132 0 -185 -2 -117
-3z"/>
<path d="M555 420 c3 -5 8 -10 11 -10 2 0 4 5 4 10 0 6 -5 10 -11 10 -5 0 -7
-4 -4 -10z"/>
<path d="M564 295 c0 -60 1 -84 3 -52 2 32 2 81 0 110 -2 29 -3 3 -3 -58z"/>
<path d="M144 383 c-27 -4 -33 -11 -57 -73 -27 -71 -33 -99 -19 -101 4 0 15
-2 24 -4 9 -2 28 3 42 10 15 8 26 9 28 3 2 -5 30 -9 63 -9 69 2 75 2 174 -1
67 -2 75 -1 93 22 13 16 18 33 14 50 -3 19 1 29 15 38 23 15 25 35 4 52 -23
19 -245 22 -252 3 -4 -11 -8 -12 -13 -2 -8 13 -65 19 -116 12z m52 -88 c13
-33 24 -61 24 -62 0 -2 -9 -3 -20 -3 -11 0 -20 7 -20 15 0 9 -9 15 -25 15 -14
0 -28 -7 -31 -15 -4 -8 -14 -15 -25 -15 -17 0 -16 4 6 53 14 28 25 58 25 65 0
8 9 12 21 10 14 -2 27 -20 45 -63z m54 18 l13 -48 15 48 c9 26 21 47 29 47 17
0 16 -13 -6 -75 -24 -69 -50 -72 -72 -8 -9 27 -20 56 -24 66 -5 13 -2 17 13
17 15 0 23 -11 32 -47z m120 -18 c0 -51 -3 -65 -15 -65 -12 0 -15 14 -15 65 0
51 3 65 15 65 12 0 15 -14 15 -65z m108 47 c3 -9 -4 -12 -23 -10 -33 4 -46
-19 -14 -24 30 -4 47 -33 33 -55 -14 -23 -79 -25 -79 -3 0 8 6 14 13 13 6 -2
17 -4 23 -5 24 -6 19 22 -5 28 -30 7 -43 39 -25 60 15 18 70 15 77 -4z m36 -3
c-3 -5 -10 -7 -15 -3 -5 3 -7 10 -3 15 3 5 10 7 15 3 5 -3 7 -10 3 -15z"/>
<path d="M147 313 c-12 -12 -7 -33 8 -33 17 0 19 9 7 28 -5 7 -11 9 -15 5z"/>
<path d="M555 170 c-3 -5 -1 -10 4 -10 6 0 11 5 11 10 0 6 -2 10 -4 10 -3 0
-8 -4 -11 -10z"/>
<path d="M188 163 c68 -2 176 -2 240 0 64 1 9 3 -123 3 -132 0 -185 -2 -117
-3z"/>
</g>
</svg>
