<?xml version="1.0" standalone="no"?>
<!DOCTYPE svg PUBLIC "-//W3C//DTD SVG 20010904//EN"
 "http://www.w3.org/TR/2001/REC-SVG-20010904/DTD/svg10.dtd">
<svg version="1.0" xmlns="http://www.w3.org/2000/svg"
 width="256.000000pt" height="256.000000pt" viewBox="0 0 256.000000 256.000000"
 preserveAspectRatio="xMidYMid meet">
<metadata>
Created by potrace 1.16, written by Peter Selinger 2001-2019
</metadata>
<g transform="translate(0.000000,256.000000) scale(0.100000,-0.100000)"
fill="#000000" stroke="none">
<path d="M858 1673 c7 -3 16 -2 19 1 4 3 -2 6 -13 5 -11 0 -14 -3 -6 -6z"/>
<path d="M250 1579 c0 -11 5 -17 10 -14 6 3 10 13 10 21 0 8 -4 14 -10 14 -5
0 -10 -9 -10 -21z"/>
<path d="M290 1584 c0 -8 5 -12 10 -9 6 3 10 10 10 16 0 5 -4 9 -10 9 -5 0
-10 -7 -10 -16z"/>
<path d="M595 1590 c3 -5 8 -10 11 -10 2 0 4 5 4 10 0 6 -5 10 -11 10 -5 0 -7
-4 -4 -10z"/>
<path d="M1648 1593 c7 -3 16 -2 19 1 4 3 -2 6 -13 5 -11 0 -14 -3 -6 -6z"/>
<path d="M1890 1587 c0 -8 7 -18 16 -21 11 -4 14 -1 12 11 -4 21 -28 30 -28
10z"/>
<path d="M2244 1586 c-3 -7 -4 -19 -2 -27 2 -8 -3 -12 -12 -10 -8 2 -39 5 -69
6 -43 2 -59 -2 -75 -18 -12 -11 -15 -16 -7 -12 9 5 12 4 8 -3 -4 -5 -17 -8
-28 -5 -20 5 -21 3 -15 -21 4 -17 3 -25 -3 -22 -14 9 -43 -5 -37 -19 2 -6 0
-18 -6 -26 -7 -11 -8 -9 -3 6 6 19 5 18 -14 -2 -17 -18 -21 -35 -21 -87 0 -56
3 -66 20 -71 11 -3 20 -13 20 -21 0 -8 4 -13 9 -9 10 6 36 -17 44 -37 5 -16
18 -6 21 19 2 10 13 19 27 21 26 4 50 21 28 19 -36 -1 -56 4 -57 16 -10 116 8
167 59 167 16 0 29 5 29 10 0 6 -21 10 -47 10 -58 0 -52 9 9 14 25 2 50 5 54
8 5 2 29 1 54 -3 49 -7 37 -12 -22 -9 -29 1 -38 -2 -38 -14 0 -9 0 -19 -1 -23
-1 -12 -28 -25 -38 -18 -5 3 -11 -28 -13 -69 -2 -56 0 -72 9 -65 7 7 14 6 18
-1 3 -6 10 -8 15 -5 4 3 6 -4 3 -15 -5 -17 0 -20 33 -22 22 -1 48 -2 59 -2 11
-1 21 -9 23 -19 2 -11 13 -17 32 -17 28 0 28 -1 18 -36 -5 -20 -7 -42 -4 -50
3 -8 2 -12 -3 -9 -19 11 -21 -14 -2 -27 20 -14 28 -88 9 -88 -5 0 -8 -10 -6
-22 3 -23 2 -23 -122 -23 -69 0 -110 1 -92 3 24 2 32 8 32 23 0 15 -7 19 -36
19 -33 0 -36 2 -32 25 4 16 1 25 -8 25 -7 0 -14 -12 -16 -27 -2 -16 -8 -27
-15 -26 -6 2 -14 -6 -18 -16 -6 -21 -75 -35 -86 -18 -4 5 -9 5 -12 0 -7 -12 4
-29 23 -35 8 -2 15 -13 15 -24 0 -15 8 -19 43 -21 23 -2 43 2 43 7 1 6 2 16 3
23 1 9 38 12 154 10 128 -1 152 1 152 13 0 9 4 13 9 9 5 -3 16 3 23 14 13 18
15 109 6 175 -4 23 23 41 47 32 12 -4 15 -13 11 -31 -5 -19 -2 -25 10 -25 10
0 14 5 10 15 -3 8 -1 15 4 15 12 0 13 -7 14 -97 1 -40 -2 -73 -5 -73 -12 0
-16 85 -6 98 8 10 7 16 -4 23 -26 16 -32 9 -26 -33 3 -24 2 -61 -3 -83 -4 -22
-8 -35 -9 -29 0 7 -7 14 -15 17 -10 4 -12 -3 -10 -24 2 -16 -1 -29 -6 -29 -6
0 -10 -7 -10 -16 0 -8 5 -12 10 -9 6 3 10 1 10 -4 0 -14 -10 -13 -39 3 -19 11
-30 11 -60 0 -43 -16 -85 -18 -76 -4 4 6 -6 10 -22 10 -22 0 -25 -2 -13 -10 8
-5 10 -10 4 -10 -15 0 -36 25 -27 33 3 4 1 7 -6 7 -8 0 -11 -8 -8 -20 6 -22
-15 -25 -63 -10 -24 8 -23 8 8 9 19 1 31 5 27 11 -9 15 -55 12 -61 -4 -3 -8
-15 -16 -26 -19 -11 -3 -18 -12 -16 -19 4 -9 28 -13 91 -13 48 0 87 -3 87 -7
0 -4 -9 -8 -21 -8 -12 0 -19 -5 -17 -12 3 -8 28 -14 69 -15 35 -2 59 1 52 5
-7 4 -9 13 -4 21 5 7 14 10 20 7 6 -4 11 -3 11 1 0 5 16 7 36 5 24 -3 39 0 45
9 7 12 9 11 10 -1 0 -8 4 -4 8 10 5 16 13 24 24 22 11 -2 21 7 27 23 8 22 20
29 42 26 3 0 6 25 5 57 0 31 2 63 6 69 4 6 2 15 -4 18 -6 5 -8 22 -4 46 6 34
4 39 -13 39 -12 0 -22 9 -25 21 -5 18 -11 20 -34 15 -19 -4 -23 -4 -14 3 28
18 4 39 -48 42 -28 2 -51 1 -51 -3 0 -5 -4 -8 -10 -8 -11 0 -1 32 14 43 6 4
-20 6 -59 5 -42 -2 -70 1 -70 7 -1 19 -17 35 -33 33 -9 -2 -18 5 -20 15 -6 28
7 67 22 67 7 0 17 10 23 23 9 19 18 23 54 22 95 -3 99 -4 99 -24 0 -12 8 -19
23 -19 12 -1 29 -2 37 -3 35 -5 60 2 60 16 0 8 11 17 24 21 17 4 25 14 29 37
6 43 3 47 -46 48 -23 1 -34 3 -24 6 18 5 18 5 0 18 -13 10 -36 12 -80 8 -65
-6 -69 -4 -54 25 8 15 4 18 -30 19 -25 1 -42 -3 -45 -11z m51 -26 c-3 -5 -10
-10 -16 -10 -5 0 -9 5 -9 10 0 6 7 10 16 10 8 0 12 -4 9 -10z m-131 -42 c-7
-11 -41 -10 -49 1 -3 5 8 9 24 9 17 -1 28 -5 25 -10z m76 -4 c0 -2 -12 -4 -27
-4 -21 0 -24 3 -14 9 13 8 41 5 41 -5z m166 3 c11 -10 -9 -76 -23 -82 -13 -4
-14 -3 -3 10 18 21 7 28 -45 30 -69 3 -67 15 3 15 35 0 62 4 62 10 0 6 -18 10
-40 10 -22 0 -40 4 -40 10 0 9 77 7 86 -3z m-103 -4 c-7 -2 -21 -2 -30 0 -10
3 -4 5 12 5 17 0 24 -2 18 -5z m147 -33 c0 -5 -4 -10 -9 -10 -6 0 -13 5 -16
10 -3 6 1 10 9 10 9 0 16 -4 16 -10z m-370 -47 c0 -11 -3 -14 -8 -7 -4 6 -14
14 -22 17 -10 4 -8 6 8 6 15 1 22 -5 22 -16z m-83 -45 c-3 -8 -6 -5 -6 6 -1
11 2 17 5 13 3 -3 4 -12 1 -19z m55 -20 c-13 -13 -24 5 -16 27 7 16 8 16 17 0
6 -11 6 -20 -1 -27z m-2 -53 c0 -19 -4 -35 -9 -35 -7 0 -8 53 -2 68 5 12 11
-5 11 -33z m344 -111 c9 -3 13 -10 10 -16 -3 -5 -11 -4 -20 3 -16 13 -16 16
-14 -113 1 -59 -3 -88 -10 -88 -7 0 -9 21 -6 65 3 35 2 66 -2 69 -4 2 -6 23
-4 45 4 41 13 48 46 35z m-344 -238 c0 -2 -7 -7 -16 -10 -8 -3 -12 -2 -9 4 6
10 25 14 25 6z m230 -120 c0 -2 -11 -6 -25 -8 -14 -3 -25 -1 -25 3 0 5 11 9
25 9 14 0 25 -2 25 -4z"/>
<path d="M2500 1585 c0 -8 2 -15 4 -15 2 0 6 7 10 15 3 8 1 15 -4 15 -6 0 -10
-7 -10 -15z"/>
<path d="M527 1563 c-4 -3 -38 -5 -77 -4 -80 3 -110 -4 -110 -25 0 -8 -5 -12
-11 -8 -7 4 -10 -4 -8 -22 2 -16 0 -35 -4 -42 -5 -6 -4 -12 2 -12 6 0 11 -8
10 -17 0 -11 -3 -13 -6 -5 -2 6 -13 12 -22 12 -15 0 -18 -8 -17 -47 0 -31 -4
-48 -12 -49 -6 -1 -17 -2 -23 -3 -6 0 -9 -15 -7 -33 2 -27 0 -33 -17 -33 -18
0 -20 -6 -19 -58 2 -86 24 -97 27 -13 1 25 6 46 11 46 5 0 6 -36 4 -80 -3 -51
-1 -79 5 -77 12 4 13 9 22 129 7 95 15 131 15 65 0 -20 5 -37 10 -37 6 0 10
18 10 40 0 22 5 40 10 40 14 0 13 27 -1 32 -6 2 -9 13 -6 23 5 19 5 19 12 -2
4 -13 11 -23 16 -23 5 0 10 10 10 23 5 64 8 89 13 94 3 4 6 -1 6 -10 0 -9 4
-17 9 -17 11 0 24 48 16 60 -4 6 -1 10 4 10 6 0 11 -9 11 -20 0 -11 7 -20 15
-20 8 0 15 9 15 20 0 11 4 20 9 20 5 0 16 3 25 6 12 5 14 0 11 -25 -4 -31 18
-45 28 -18 4 10 6 10 6 0 1 -19 29 -15 34 5 3 12 5 10 7 -8 1 -14 3 -36 4 -50
4 -30 -3 -52 -14 -45 -5 3 -11 1 -15 -5 -3 -5 3 -10 14 -10 20 0 27 -23 22
-67 -1 -7 3 -13 9 -13 5 0 10 18 10 40 0 22 4 40 8 40 5 0 8 -19 8 -42 -1 -34
3 -43 19 -48 11 -3 21 -15 22 -27 3 -25 -7 -29 -25 -11 -9 9 -12 2 -12 -34 0
-26 5 -50 10 -53 10 -6 14 7 11 32 -1 6 3 14 9 18 6 4 10 -8 10 -32 0 -48 10
-84 20 -78 5 3 6 22 3 42 -4 26 -3 34 5 29 7 -4 12 -16 12 -26 0 -10 5 -22 10
-25 6 -3 10 -19 10 -36 0 -16 4 -29 8 -29 5 0 9 -8 9 -17 -1 -48 4 -73 13 -73
6 0 10 12 10 27 0 44 7 22 13 -44 4 -39 3 -63 -3 -63 -6 0 -10 9 -10 20 0 17
-5 19 -25 14 -22 -5 -25 -3 -25 21 0 14 -4 24 -9 20 -5 -3 -8 -23 -6 -45 2
-24 0 -38 -6 -35 -5 4 -9 21 -9 39 0 42 19 98 31 90 5 -3 9 4 9 15 0 12 -7 21
-16 21 -8 0 -13 -4 -9 -10 7 -11 -16 -50 -30 -50 -6 0 -10 -29 -10 -68 l1 -67
99 0 c55 0 103 -4 106 -9 4 -5 11 -6 17 -2 15 9 21 45 10 53 -7 4 -8 1 -3 -6
5 -9 0 -12 -16 -9 -22 3 -24 7 -21 46 4 40 2 43 -18 40 -19 -3 -23 2 -25 35
-2 39 -15 61 -22 40 -11 -32 -21 -8 -16 37 5 41 3 50 -10 50 -18 0 -31 26 -28
61 2 19 -5 28 -24 37 -14 7 -23 16 -20 22 8 13 -5 80 -16 80 -5 0 -9 -7 -9
-16 0 -8 -4 -13 -9 -10 -5 3 -7 26 -6 51 3 42 2 45 -21 45 -22 0 -23 2 -17 45
5 40 3 47 -20 65 -14 12 -24 27 -21 34 6 14 -19 39 -29 29z m157 -368 c-4 -8
-10 -12 -15 -9 -14 8 -10 24 6 24 9 0 12 -6 9 -15z m122 -294 c0 -15 -3 -17
-13 -9 -7 6 -10 14 -7 19 9 15 20 10 20 -10z m-72 -17 c3 -8 2 -12 -4 -9 -6 3
-10 10 -10 16 0 14 7 11 14 -7z"/>
<path d="M760 1528 c0 -21 3 -37 8 -37 22 4 32 -3 32 -21 0 -11 5 -29 12 -40
12 -18 13 -18 25 8 11 24 12 20 7 -36 -6 -66 5 -96 32 -85 11 4 13 -5 10 -45
-2 -27 -6 -55 -10 -61 -4 -6 -2 -11 3 -11 6 0 11 7 11 15 0 9 6 12 15 9 13 -5
15 6 12 72 -1 53 -6 79 -14 79 -7 0 -18 6 -24 13 -14 13 -4 16 35 12 14 -1 17
3 12 15 -3 9 -6 19 -6 22 0 3 -12 -2 -26 -12 -26 -17 -27 -17 -21 6 3 13 2 41
-2 62 -5 21 -5 37 0 37 5 0 9 -12 9 -26 0 -23 3 -25 38 -22 31 2 37 0 38 -17
1 -11 5 -28 9 -38 4 -10 5 -21 1 -24 -3 -4 -6 2 -6 12 0 14 -3 16 -11 8 -8 -8
-7 -17 4 -34 10 -15 15 -46 14 -84 0 -34 2 -65 5 -70 3 -6 2 -19 -3 -30 -4
-11 -8 -15 -9 -10 -1 6 -3 15 -5 20 -1 6 -3 29 -3 53 -2 55 -21 46 -22 -11 0
-23 -2 -62 -3 -87 -2 -39 1 -45 18 -45 16 0 19 -7 20 -46 0 -33 4 -45 13 -42
6 3 12 17 12 31 0 14 3 22 7 19 3 -4 6 -39 5 -79 -2 -79 11 -110 34 -81 17 22
18 37 2 27 -7 -4 -8 -3 -4 4 5 8 13 9 25 2 15 -8 18 -6 16 13 -1 12 -3 32 -4
45 0 12 -5 22 -10 22 -5 0 -11 -10 -13 -22 -3 -21 -4 -21 -9 4 -4 15 -2 25 2
22 15 -9 10 13 -6 26 -8 7 -13 16 -10 20 3 5 2 15 -1 24 -6 15 -7 15 -18 0
-10 -13 -12 -1 -13 62 0 44 -1 84 -3 89 -6 22 1 165 8 165 4 0 7 -39 7 -88 0
-102 2 -113 21 -105 9 3 15 -2 15 -13 1 -11 3 -26 4 -34 1 -8 3 -39 4 -67 0
-29 6 -53 11 -53 6 0 10 24 11 53 l1 52 9 -40 c6 -25 6 -48 0 -61 -8 -19 -7
-22 14 -20 22 1 23 5 24 61 0 59 -15 104 -26 78 -12 -32 -19 -7 -16 57 4 65 3
70 -16 70 -17 0 -21 -7 -22 -37 -1 -37 -1 -38 -8 -8 -4 17 -4 34 1 40 12 14
10 105 -3 105 -5 0 -7 5 -4 10 3 6 -1 10 -9 10 -12 0 -16 10 -16 40 0 22 1 41
3 43 4 5 -27 34 -38 35 -5 0 -54 2 -108 4 l-97 3 0 -37z m160 -19 c0 -5 -4 -9
-10 -9 -5 0 -10 7 -10 16 0 8 5 12 10 9 6 -3 10 -10 10 -16z m55 3 c-3 -3 -11
0 -18 7 -9 10 -8 11 6 5 10 -3 15 -9 12 -12z m-126 -19 c0 -25 -1 -26 -9 -8
-12 27 -12 35 0 35 6 0 10 -12 9 -27z m126 -343 c3 -5 1 -10 -4 -10 -6 0 -11
5 -11 10 0 6 2 10 4 10 3 0 8 -4 11 -10z"/>
<path d="M1645 1560 c-8 -13 -7 -708 1 -721 3 -6 13 -7 23 -4 9 4 50 7 91 8
70 2 75 4 76 24 1 18 -2 20 -15 13 -12 -6 -20 -3 -28 10 -14 22 -7 30 24 30
18 0 23 5 22 23 -1 15 -3 17 -6 6 -2 -10 -11 -15 -21 -12 -15 4 -17 21 -13
181 4 203 4 211 -4 314 -4 48 -2 79 5 83 6 3 10 -4 10 -17 0 -22 1 -22 19 5
26 39 17 70 -18 63 -39 -9 -137 -10 -149 -2 -6 3 -13 2 -17 -4z m76 -41 c15
-7 24 -7 35 2 11 9 14 7 14 -13 0 -14 -3 -28 -7 -31 -3 -4 -12 -2 -20 4 -10 9
-13 6 -13 -17 0 -22 3 -25 12 -16 7 7 14 12 18 12 5 0 5 -171 2 -417 l-2 -102
-37 13 -38 13 -2 164 c-2 90 -4 211 -5 269 -3 94 3 130 18 130 3 0 14 -5 25
-11z m10 -586 c28 -12 38 -22 37 -37 -2 -18 -9 -21 -42 -21 -34 0 -41 4 -47
25 -16 56 -9 60 52 33z"/>
<path d="M1693 1491 c3 -15 1 -33 -6 -40 -8 -8 -7 -11 6 -11 13 0 17 9 17 40
0 23 -5 40 -11 40 -7 0 -9 -11 -6 -29z"/>
<path d="M1323 1501 c4 -31 2 -63 -3 -71 -8 -13 -10 -13 -10 1 0 32 -26 15
-28 -19 -2 -20 -6 -40 -9 -45 -3 -6 -1 -7 5 -4 6 5 8 0 5 -12 -3 -11 -11 -17
-19 -14 -18 7 -28 -37 -20 -93 3 -26 2 -44 -4 -44 -6 0 -10 5 -10 10 0 6 -6
10 -14 10 -12 0 -14 -23 -11 -137 2 -76 2 -146 -1 -155 -4 -15 -15 -17 -60
-14 -52 4 -54 3 -55 -23 -1 -26 -1 -26 -8 3 -3 17 -9 29 -13 28 -5 -1 -13 -2
-18 -2 -6 0 -8 -11 -4 -25 4 -15 2 -25 -5 -25 -6 0 -8 -7 -4 -16 5 -13 20 -15
82 -13 42 2 82 -1 89 -5 8 -5 19 -3 25 3 6 6 19 11 29 11 10 0 18 5 18 10 0 6
-4 10 -8 10 -11 0 -12 39 -1 45 5 4 9 17 9 30 0 19 4 22 21 18 19 -5 21 -3 16
18 -3 13 -7 57 -8 97 -2 79 -18 111 -20 40 -5 -145 -8 -158 -34 -158 -7 0 -16
-8 -18 -17 -3 -10 -5 -1 -6 20 -1 30 3 37 18 37 15 0 19 8 19 40 1 22 4 49 7
60 4 11 2 20 -4 20 -17 0 -13 40 4 46 8 4 15 12 15 20 0 8 4 14 9 14 13 0 21
-26 21 -70 0 -54 9 -74 26 -59 10 8 12 23 8 49 -4 23 -2 40 5 44 6 4 11 2 11
-3 0 -6 7 -11 15 -11 12 0 15 11 12 50 -1 30 2 49 8 49 24 -3 36 2 34 14 -1 6
-1 33 0 59 1 40 4 45 20 41 16 -4 18 1 17 34 -1 33 2 38 21 37 13 0 21 1 19 3
-2 2 0 20 4 39 5 20 4 34 -2 34 -5 0 -6 5 -3 10 3 6 17 10 31 10 13 0 24 4 24
9 0 15 -47 21 -154 20 l-99 -1 6 -57z m77 19 c5 0 6 -15 3 -33 -4 -24 0 -37
13 -47 10 -8 15 -10 11 -4 -11 18 16 89 36 90 13 1 17 -6 17 -28 0 -18 -4 -27
-11 -23 -6 4 -8 13 -5 21 3 8 1 14 -4 14 -6 0 -11 -10 -12 -22 -1 -13 -2 -30
-4 -38 -1 -8 -2 -23 -3 -32 -1 -12 -9 -18 -27 -18 -21 0 -25 4 -21 20 3 13 0
20 -9 20 -19 0 -18 -35 2 -55 11 -11 16 -33 16 -66 -1 -66 -1 -66 -11 -50 -5
7 -6 31 -4 52 3 23 1 39 -4 39 -6 0 -12 -26 -13 -57 -1 -32 -3 -68 -4 -81 -1
-18 -6 -21 -26 -18 -22 3 -25 8 -24 40 1 28 -3 36 -16 36 -10 0 -21 7 -24 16
-9 24 -8 26 17 22 18 -2 22 2 22 24 -1 14 2 25 6 22 13 -7 39 8 39 23 0 8 -4
11 -10 8 -5 -3 -10 -1 -10 4 0 6 5 11 10 11 6 0 10 7 10 16 0 8 -4 13 -9 10
-5 -4 -5 10 -1 31 5 20 8 39 8 42 -2 18 4 22 18 17 9 -3 19 -6 24 -6z m-83
-132 c-3 -8 -6 -5 -6 6 -1 11 2 17 5 13 3 -3 4 -12 1 -19z m-29 -175 c-2 -9
-8 -18 -15 -20 -7 -3 -9 3 -6 16 6 25 26 28 21 4z m-38 -64 c0 -5 -4 -9 -10
-9 -5 0 -10 7 -10 16 0 8 5 12 10 9 6 -3 10 -10 10 -16z m5 -29 c9 -14 -5
-100 -16 -100 -5 0 -7 25 -6 55 2 53 9 66 22 45z m-115 -235 c0 -2 -7 -5 -15
-9 -9 -3 -15 0 -15 9 0 9 6 12 15 9 8 -4 15 -7 15 -9z m110 -1 c0 -8 -4 -12
-10 -9 -5 3 -10 10 -10 16 0 5 5 9 10 9 6 0 10 -7 10 -16z m-70 -4 c-20 -13
-33 -13 -25 0 3 6 14 10 23 10 15 0 15 -2 2 -10z"/>
<path d="M1336 1344 c-9 -23 -7 -56 2 -50 8 5 15 66 7 66 -1 0 -6 -7 -9 -16z"/>
<path d="M1330 1263 c0 -23 15 -39 24 -25 3 5 -1 18 -9 28 -14 18 -14 18 -15
-3z"/>
<path d="M1881 1534 c0 -11 3 -14 6 -6 3 7 2 16 -1 19 -3 4 -6 -2 -5 -13z"/>
<path d="M660 1505 c0 -8 7 -15 15 -15 8 0 15 7 15 15 0 8 -7 15 -15 15 -8 0
-15 -7 -15 -15z"/>
<path d="M1201 1484 c0 -11 3 -14 6 -6 3 7 2 16 -1 19 -3 4 -6 -2 -5 -13z"/>
<path d="M271 1464 c0 -11 3 -14 6 -6 3 7 2 16 -1 19 -3 4 -6 -2 -5 -13z"/>
<path d="M1917 1460 c-3 -11 -1 -20 4 -20 5 0 9 9 9 20 0 11 -2 20 -4 20 -2 0
-6 -9 -9 -20z"/>
<path d="M176 1454 c-8 -22 1 -31 16 -16 9 9 9 15 1 23 -7 7 -12 5 -17 -7z"/>
<path d="M1885 1450 c-3 -5 -1 -10 4 -10 6 0 11 5 11 10 0 6 -2 10 -4 10 -3 0
-8 -4 -11 -10z"/>
<path d="M434 1441 c-12 -13 -1 -23 21 -19 14 3 28 1 31 -3 8 -14 24 -10 24 6
0 8 4 15 10 15 5 0 7 -6 4 -14 -7 -17 14 -32 27 -19 17 17 -21 38 -68 38 -25
0 -47 -2 -49 -4z"/>
<path d="M375 1430 c4 -6 11 -8 16 -5 14 9 11 15 -7 15 -8 0 -12 -5 -9 -10z"/>
<path d="M1212 1415 c0 -16 2 -22 5 -12 2 9 2 23 0 30 -3 6 -5 -1 -5 -18z"/>
<path d="M1813 1400 c0 -25 2 -35 4 -22 2 12 2 32 0 45 -2 12 -4 2 -4 -23z"/>
<path d="M1902 1390 c0 -19 2 -27 5 -17 2 9 2 25 0 35 -3 9 -5 1 -5 -18z"/>
<path d="M376 1385 c-9 -26 -7 -32 5 -12 6 10 9 21 6 23 -2 3 -7 -2 -11 -11z"/>
<path d="M415 1394 c-11 -4 -12 -91 -1 -101 3 -4 6 3 6 15 0 12 4 22 9 22 6 0
9 8 9 18 0 9 1 23 3 31 4 14 -9 22 -26 15z"/>
<path d="M460 1389 c0 -5 4 -9 9 -9 5 0 12 -7 15 -16 4 -10 2 -13 -6 -8 -7 5
-8 3 -3 -6 4 -7 7 -37 6 -66 -1 -48 1 -54 19 -54 17 0 20 7 20 39 0 21 -3 59
-6 83 -6 40 -10 46 -30 46 -13 0 -24 -4 -24 -9z"/>
<path d="M1101 1384 c0 -11 3 -14 6 -6 3 7 2 16 -1 19 -3 4 -6 -2 -5 -13z"/>
<path d="M2090 1376 c0 -9 5 -16 10 -16 6 0 10 4 10 9 0 6 -4 13 -10 16 -5 3
-10 -1 -10 -9z"/>
<path d="M2518 1378 c-9 -5 -4 -8 15 -8 15 0 27 4 27 8 0 11 -25 11 -42 0z"/>
<path d="M1833 1335 c0 -22 2 -30 4 -17 2 12 2 30 0 40 -3 9 -5 -1 -4 -23z"/>
<path d="M2406 1361 c-4 -5 3 -7 14 -4 23 6 26 13 6 13 -8 0 -17 -4 -20 -9z"/>
<path d="M68 1333 c5 -21 7 -23 10 -9 2 10 0 22 -6 28 -6 6 -7 0 -4 -19z"/>
<path d="M372 1353 c-19 -4 -21 -7 -11 -19 6 -8 8 -25 5 -39 -4 -15 -4 -43 0
-63 7 -35 7 -36 17 -12 8 19 20 146 13 139 0 -1 -11 -4 -24 -6z"/>
<path d="M530 1291 c0 -38 -4 -72 -9 -75 -10 -7 -2 -54 11 -62 6 -4 14 0 19 7
7 11 9 10 9 -3 0 -10 5 -18 10 -18 6 0 10 -5 10 -11 0 -7 -10 -9 -25 -5 -15 4
-25 2 -25 -5 0 -7 -16 -9 -50 -4 -27 4 -73 4 -101 0 -75 -10 -46 -30 47 -31
41 -1 78 -5 82 -9 4 -4 -33 -6 -83 -5 -49 1 -112 1 -140 1 -46 -2 -49 -3 -31
-16 18 -14 19 -15 2 -15 -12 0 -16 -5 -12 -16 3 -8 2 -12 -4 -9 -6 4 -10 -8
-11 -27 0 -18 -3 -27 -6 -20 -10 25 -23 0 -23 -44 0 -51 -19 -52 -21 -1 l-1
32 -8 -33 c-13 -56 -18 -47 -17 29 2 50 6 73 15 75 7 1 8 0 2 -3 -5 -2 -10
-19 -10 -36 l0 -32 20 25 c23 30 26 60 5 60 -8 0 -15 7 -15 16 0 10 5 14 16
10 13 -5 15 3 12 47 -2 38 -7 52 -18 52 -8 0 -15 -9 -15 -20 -1 -12 -11 -35
-24 -53 -20 -28 -22 -39 -15 -90 3 -32 3 -53 -2 -49 -5 5 -9 14 -10 20 -5 53
-5 53 -16 27 -6 -14 -12 -30 -14 -37 -1 -6 -11 -21 -22 -33 -11 -12 -22 -34
-25 -48 -5 -28 9 -56 24 -46 5 3 47 5 93 5 75 0 84 2 89 20 3 11 -1 23 -9 27
-11 6 -12 15 -6 32 7 19 10 20 15 7 9 -24 39 -10 35 17 -2 13 -10 20 -21 20
-10 -1 -17 5 -17 16 0 11 7 17 17 16 11 0 19 7 21 19 5 39 49 47 181 35 66 -7
126 -10 133 -7 7 3 3 6 -9 6 -22 1 -34 21 -12 21 5 0 8 4 5 9 -3 4 -18 6 -33
4 -26 -4 -26 -4 7 14 26 14 37 27 43 56 10 42 4 56 -16 38 -12 -9 -15 -4 -21
26 -3 21 -6 59 -6 85 0 26 -4 50 -10 53 -6 4 -10 -20 -10 -64z m-400 -381 c0
-16 -4 -30 -10 -30 -11 0 -14 43 -3 53 11 12 13 8 13 -23z m-40 -11 c0 -28
-15 -23 -16 6 -1 14 2 22 7 19 5 -3 9 -14 9 -25z"/>
<path d="M930 1340 c0 -11 2 -20 4 -20 2 0 6 9 9 20 3 11 1 20 -4 20 -5 0 -9
-9 -9 -20z"/>
<path d="M2362 1319 c2 -7 10 -15 17 -17 8 -3 12 1 9 9 -2 7 -10 15 -17 17 -8
3 -12 -1 -9 -9z"/>
<path d="M327 1276 c-4 -25 -4 -52 -1 -61 5 -11 2 -14 -12 -9 -12 4 -15 3 -8
-3 17 -12 21 -68 6 -86 -9 -10 -10 -17 -2 -22 5 -3 10 1 10 9 0 9 8 16 19 16
18 0 19 6 15 86 -5 104 -18 137 -27 70z"/>
<path d="M570 1245 c0 -19 5 -35 10 -35 6 0 10 16 10 35 0 19 -4 35 -10 35 -5
0 -10 -16 -10 -35z"/>
<path d="M750 1270 c0 -5 5 -10 10 -10 6 0 10 5 10 10 0 6 -4 10 -10 10 -5 0
-10 -4 -10 -10z"/>
<path d="M1833 1240 c0 -25 2 -35 4 -22 2 12 2 32 0 45 -2 12 -4 2 -4 -23z"/>
<path d="M1883 1245 c0 -22 2 -30 4 -17 2 12 2 30 0 40 -3 9 -5 -1 -4 -23z"/>
<path d="M804 1239 c-3 -6 -1 -16 5 -22 8 -8 11 -5 11 11 0 24 -5 28 -16 11z"/>
<path d="M2099 1231 c-1 -4 -1 -9 0 -13 0 -5 -3 -8 -9 -8 -5 0 -10 -11 -10
-25 l0 -25 90 5 c59 3 90 1 90 -6 0 -6 -9 -8 -19 -4 -22 7 -33 -5 -22 -23 4
-7 21 -10 40 -8 35 4 53 16 34 23 -7 2 -10 10 -8 16 8 20 -12 44 -25 31 -6 -6
-23 -9 -37 -6 l-26 5 24 18 23 17 -34 5 c-43 7 -110 5 -111 -2z m45 -26 c3 -9
0 -15 -9 -15 -8 0 -15 7 -15 15 0 8 4 15 9 15 5 0 11 -7 15 -15z m49 8 c-7 -2
-19 -2 -25 0 -7 3 -2 5 12 5 14 0 19 -2 13 -5z"/>
<path d="M2540 1230 c0 -5 5 -10 10 -10 6 0 10 5 10 10 0 6 -4 10 -10 10 -5 0
-10 -4 -10 -10z"/>
<path d="M1015 1210 c-3 -5 -1 -10 4 -10 6 0 11 5 11 10 0 6 -2 10 -4 10 -3 0
-8 -4 -11 -10z"/>
<path d="M76 1197 c3 -10 9 -15 12 -12 3 3 0 11 -7 18 -10 9 -11 8 -5 -6z"/>
<path d="M1523 1160 c0 -25 2 -35 4 -22 2 12 2 32 0 45 -2 12 -4 2 -4 -23z"/>
<path d="M2300 1170 c0 -5 5 -10 10 -10 6 0 10 5 10 10 0 6 -4 10 -10 10 -5 0
-10 -4 -10 -10z"/>
<path d="M2400 1151 c0 -5 7 -14 15 -21 13 -10 15 -9 15 9 0 12 -6 21 -15 21
-8 0 -15 -4 -15 -9z"/>
<path d="M610 1130 c0 -5 5 -10 10 -10 6 0 10 5 10 10 0 6 -4 10 -10 10 -5 0
-10 -4 -10 -10z"/>
<path d="M840 1103 c0 -43 5 -41 13 5 4 18 2 32 -3 32 -6 0 -10 -16 -10 -37z"/>
<path d="M1920 1130 c0 -5 5 -10 11 -10 5 0 7 5 4 10 -3 6 -8 10 -11 10 -2 0
-4 -4 -4 -10z"/>
<path d="M2000 1114 c0 -8 5 -12 10 -9 6 4 8 11 5 16 -9 14 -15 11 -15 -7z"/>
<path d="M210 1100 c0 -11 5 -20 10 -20 6 0 10 9 10 20 0 11 -4 20 -10 20 -5
0 -10 -9 -10 -20z"/>
<path d="M1813 1080 c0 -25 2 -35 4 -22 2 12 2 32 0 45 -2 12 -4 2 -4 -23z"/>
<path d="M2080 1100 c0 -11 5 -20 11 -20 6 0 9 6 6 14 -3 8 -1 17 6 20 7 2 4
5 -5 5 -12 1 -18 -6 -18 -19z"/>
<path d="M1421 1094 c0 -11 3 -14 6 -6 3 7 2 16 -1 19 -3 4 -6 -2 -5 -13z"/>
<path d="M1883 1065 c0 -27 2 -38 4 -22 2 15 2 37 0 50 -2 12 -4 0 -4 -28z"/>
<path d="M1922 1080 c0 -14 2 -19 5 -12 2 6 2 18 0 25 -3 6 -5 1 -5 -13z"/>
<path d="M881 1074 c0 -11 3 -14 6 -6 3 7 2 16 -1 19 -3 4 -6 -2 -5 -13z"/>
<path d="M0 1063 c0 -13 5 -23 10 -23 13 0 13 11 0 30 -8 12 -10 11 -10 -7z"/>
<path d="M626 1061 c-4 -7 -5 -15 -2 -18 9 -9 19 4 14 18 -4 11 -6 11 -12 0z"/>
<path d="M1145 1060 c-3 -5 1 -10 9 -10 9 0 16 5 16 10 0 6 -4 10 -9 10 -6 0
-13 -4 -16 -10z"/>
<path d="M2160 1060 c0 -5 12 -10 28 -9 24 0 25 1 7 9 -27 12 -35 12 -35 0z"/>
<path d="M1420 1050 c0 -5 5 -10 11 -10 5 0 7 5 4 10 -3 6 -8 10 -11 10 -2 0
-4 -4 -4 -10z"/>
<path d="M330 1041 c12 -9 11 -11 -7 -11 -27 0 -31 -19 -5 -21 9 -1 31 -2 47
-3 17 -2 47 -3 68 -4 23 -1 36 -6 32 -12 -3 -5 -1 -10 4 -10 6 0 11 6 11 13 0
7 16 13 40 14 32 2 40 -1 41 -15 0 -12 3 -10 10 7 13 33 33 13 31 -33 -1 -25
3 -35 17 -39 16 -4 18 2 17 49 0 30 -3 54 -6 54 -3 1 -59 3 -125 5 -66 3 -136
7 -155 10 -26 4 -31 3 -20 -4z"/>
<path d="M1108 1033 c-10 -2 -18 -8 -18 -13 0 -5 8 -8 18 -8 9 0 23 -1 31 -3
8 -2 17 4 19 14 3 17 -11 20 -50 10z"/>
<path d="M1917 1019 c4 -13 8 -18 11 -10 2 7 -1 18 -6 23 -8 8 -9 4 -5 -13z"/>
<path d="M1813 995 c0 -22 2 -30 4 -17 2 12 2 30 0 40 -3 9 -5 -1 -4 -23z"/>
<path d="M860 1008 c0 -4 4 -8 9 -8 6 0 12 4 15 8 3 5 -1 9 -9 9 -8 0 -15 -4
-15 -9z"/>
<path d="M0 986 c0 -8 5 -18 10 -21 6 -3 10 3 10 14 0 12 -4 21 -10 21 -5 0
-10 -6 -10 -14z"/>
<path d="M386 975 c-3 -8 -1 -15 4 -15 6 0 10 7 10 15 0 8 -2 15 -4 15 -2 0
-6 -7 -10 -15z"/>
<path d="M711 974 c0 -11 3 -14 6 -6 3 7 2 16 -1 19 -3 4 -6 -2 -5 -13z"/>
<path d="M1090 974 c0 -8 5 -12 10 -9 6 4 8 11 5 16 -9 14 -15 11 -15 -7z"/>
<path d="M1125 980 c-3 -5 3 -10 14 -10 12 0 21 5 21 10 0 6 -6 10 -14 10 -8
0 -18 -4 -21 -10z"/>
<path d="M1375 970 c-3 -5 -1 -10 4 -10 6 0 11 5 11 10 0 6 -2 10 -4 10 -3 0
-8 -4 -11 -10z"/>
<path d="M1553 925 c0 -27 2 -38 4 -22 2 15 2 37 0 50 -2 12 -4 0 -4 -28z"/>
<path d="M934 905 c-9 -22 1 -29 15 -11 8 10 9 16 1 21 -5 3 -13 -1 -16 -10z"/>
<path d="M2260 900 c0 -12 17 -12 45 0 17 7 15 9 -12 9 -18 1 -33 -3 -33 -9z"/>
<path d="M440 890 c0 -5 4 -10 9 -10 6 0 13 5 16 10 3 6 -1 10 -9 10 -9 0 -16
-4 -16 -10z"/>
<path d="M538 893 c7 -3 16 -2 19 1 4 3 -2 6 -13 5 -11 0 -14 -3 -6 -6z"/>
<path d="M543 869 c-25 -9 -31 -29 -9 -29 14 0 42 27 35 34 -2 2 -14 0 -26 -5z"/>
<path d="M1521 864 c0 -11 3 -14 6 -6 3 7 2 16 -1 19 -3 4 -6 -2 -5 -13z"/>
<path d="M305 840 c-3 -5 -1 -10 4 -10 6 0 11 5 11 10 0 6 -2 10 -4 10 -3 0
-8 -4 -11 -10z"/>
<path d="M1920 820 c0 -5 9 -10 20 -10 11 0 20 5 20 10 0 6 -9 10 -20 10 -11
0 -20 -4 -20 -10z"/>
<path d="M858 803 c7 -3 16 -2 19 1 4 3 -2 6 -13 5 -11 0 -14 -3 -6 -6z"/>
<path d="M960 795 c0 -9 6 -12 15 -9 8 4 15 10 15 15 0 5 -7 9 -15 9 -8 0 -15
-7 -15 -15z"/>
<path d="M2438 803 c7 -3 16 -2 19 1 4 3 -2 6 -13 5 -11 0 -14 -3 -6 -6z"/>
<path d="M311 784 c0 -11 3 -14 6 -6 3 7 2 16 -1 19 -3 4 -6 -2 -5 -13z"/>
<path d="M2008 793 c7 -3 16 -2 19 1 4 3 -2 6 -13 5 -11 0 -14 -3 -6 -6z"/>
<path d="M2320 750 c0 -5 5 -10 11 -10 5 0 7 5 4 10 -3 6 -8 10 -11 10 -2 0
-4 -4 -4 -10z"/>
<path d="M2225 740 c-3 -5 -1 -10 4 -10 6 0 11 5 11 10 0 6 -2 10 -4 10 -3 0
-8 -4 -11 -10z"/>
<path d="M2168 723 c7 -3 16 -2 19 1 4 3 -2 6 -13 5 -11 0 -14 -3 -6 -6z"/>
</g>
</svg>
