<?xml version="1.0" standalone="no"?>
<!DOCTYPE svg PUBLIC "-//W3C//DTD SVG 20010904//EN"
 "http://www.w3.org/TR/2001/REC-SVG-20010904/DTD/svg10.dtd">
<svg version="1.0" xmlns="http://www.w3.org/2000/svg"
 width="192.000000pt" height="192.000000pt" viewBox="0 0 192.000000 192.000000"
 preserveAspectRatio="xMidYMid meet">
<metadata>
Created by potrace 1.16, written by Peter Selinger 2001-2019
</metadata>
<g transform="translate(0.000000,192.000000) scale(0.100000,-0.100000)"
fill="#000000" stroke="none">
<path d="M1183 1372 c-10 -9 -13 -13 -7 -9 13 8 140 -50 131 -60 -3 -3 -31 8
-61 25 -32 17 -56 25 -56 19 0 -7 21 -24 48 -39 35 -19 52 -24 64 -17 13 7 36
0 89 -26 39 -20 69 -39 66 -41 -3 -3 -23 4 -46 15 -45 23 -51 25 -51 13 0 -5
17 -18 38 -29 27 -16 42 -19 54 -12 13 7 36 0 89 -26 39 -20 69 -39 66 -42 -3
-3 -27 6 -53 21 -62 35 -79 21 -18 -15 36 -20 52 -25 66 -18 13 7 38 -1 99
-31 44 -23 79 -44 76 -46 -3 -3 -28 6 -56 20 -55 28 -61 30 -61 18 0 -17 81
-54 108 -49 17 3 46 -5 85 -24 47 -24 58 -34 55 -51 -2 -16 -80 -63 -347 -210
-190 -104 -349 -187 -355 -186 -24 6 -227 120 -222 125 2 2 25 -7 51 -21 25
-15 51 -23 57 -20 10 7 -68 56 -89 57 -7 0 -13 5 -14 11 0 6 -4 2 -8 -9 -13
-33 -1 -52 47 -75 65 -31 130 -66 148 -80 20 -17 59 -7 127 32 52 30 112 63
202 113 17 10 59 33 95 51 36 19 92 50 125 68 33 19 83 46 110 60 76 40 85 49
85 89 0 30 -5 39 -29 51 -15 8 -41 17 -57 20 -16 3 -36 14 -45 24 -18 23 -67
49 -102 56 -33 6 -67 24 -67 36 0 12 -69 48 -106 54 -16 3 -35 14 -44 25 -14
19 -90 57 -90 46 0 -3 -13 1 -30 10 -16 9 -30 20 -30 25 0 5 -27 23 -59 40
-57 28 -60 29 -78 12z"/>
<path d="M727 1359 c-16 -4 -34 -12 -40 -17 -7 -5 -52 -31 -102 -57 -49 -27
-108 -58 -130 -70 -79 -44 -161 -89 -220 -122 -33 -18 -95 -52 -138 -74 -52
-27 -77 -45 -75 -55 2 -8 5 -14 8 -14 3 1 37 -15 75 -35 39 -21 102 -54 140
-74 101 -53 169 -94 173 -103 2 -5 8 -6 13 -2 5 3 21 -3 37 -13 15 -10 44 -28
64 -38 21 -11 38 -23 38 -28 0 -4 5 -5 10 -2 6 4 16 2 23 -3 17 -13 108 -63
133 -72 14 -6 31 -3 50 7 16 9 60 32 98 52 38 20 70 44 72 53 1 9 -3 15 -10
12 -6 -2 -23 6 -36 18 -14 13 -25 21 -25 19 0 -2 -10 -1 -23 3 -12 4 -20 12
-17 17 3 5 -1 6 -9 3 -10 -4 -18 1 -22 10 -6 15 -9 15 -23 3 -38 -33 -50 -29
-223 78 -156 95 -208 120 -208 97 0 -5 84 -59 187 -121 180 -109 189 -113 221
-103 30 9 42 7 83 -14 27 -13 49 -26 49 -28 0 -7 -133 -76 -147 -76 -15 0
-673 350 -673 359 0 7 643 361 655 361 4 0 91 -46 194 -102 102 -56 231 -126
286 -156 55 -30 120 -65 143 -79 l44 -25 -29 -17 c-15 -10 -62 -36 -103 -59
l-76 -41 -54 25 -55 25 25 19 c14 11 28 20 33 20 4 0 7 12 7 26 0 23 -17 33
-195 120 -106 52 -205 94 -218 94 -27 0 -369 -182 -375 -199 -3 -8 5 -10 23
-5 24 6 56 22 190 96 17 10 61 33 98 52 l69 36 105 -56 c57 -30 126 -63 151
-74 26 -10 69 -28 96 -40 l48 -22 -58 -26 c-33 -14 -60 -27 -62 -27 -10 -7 14
-35 30 -35 11 0 48 -16 83 -35 43 -24 66 -32 70 -25 4 7 26 21 49 31 61 30
109 57 124 69 7 6 28 18 47 26 41 17 43 25 12 40 -23 11 -308 167 -342 187
-11 7 -26 19 -33 27 -9 10 -11 10 -7 2 6 -11 3 -12 -14 -2 -12 6 -19 15 -16
21 6 8 -8 13 -28 10 -9 -1 -230 118 -237 129 -3 4 -18 3 -33 -1z"/>
<path d="M1093 1340 c-22 -10 -44 -23 -47 -29 -4 -6 -11 -9 -16 -6 -16 10 -21
-29 -5 -44 15 -15 17 -14 30 3 7 10 17 16 22 13 5 -3 26 5 47 18 58 35 26 39
-38 4 -32 -17 -59 -29 -62 -26 -3 2 23 19 58 37 74 38 72 37 61 43 -5 3 -27
-3 -50 -13z"/>
<path d="M1040 1236 c0 -2 7 -6 15 -10 8 -3 15 -1 15 4 0 6 -7 10 -15 10 -8 0
-15 -2 -15 -4z"/>
<path d="M1080 1221 c0 -13 49 -37 70 -35 14 1 21 3 60 18 8 3 -5 4 -29 2 -28
-3 -56 1 -73 10 -16 8 -28 10 -28 5z"/>
<path d="M1247 1193 c-3 -3 -21 -7 -39 -9 -47 -6 -60 -24 -17 -25 18 -1 37 -1
42 0 4 0 7 -4 7 -10 0 -5 5 -7 10 -4 6 3 13 -1 16 -9 3 -9 10 -13 15 -10 5 3
7 10 4 15 -10 16 3 10 78 -36 41 -25 77 -45 81 -45 24 0 -23 45 -55 52 -7 2
-21 11 -31 21 -10 10 -23 15 -27 12 -5 -2 -12 2 -15 10 -4 13 -10 14 -26 5
-19 -10 -60 1 -60 16 0 3 9 2 20 -1 11 -3 20 -2 20 4 0 13 -15 22 -23 14z"/>
<path d="M720 1117 c-14 -6 -31 -17 -38 -24 -6 -6 -22 -15 -35 -19 -12 -3 -35
-15 -50 -26 -15 -11 -43 -24 -62 -29 -19 -6 -35 -15 -35 -21 0 -6 7 -7 18 -3
40 16 47 16 28 1 -11 -9 -23 -16 -28 -16 -18 0 -6 -16 25 -34 158 -90 427
-228 427 -217 0 12 -76 52 -84 44 -3 -4 -6 -1 -6 6 0 11 -53 39 -74 39 -5 0
-12 4 -15 9 -11 16 -98 62 -105 56 -3 -3 -6 -2 -6 4 0 5 -29 25 -65 44 -64 33
-65 34 -46 50 19 16 19 17 3 24 -16 6 -16 7 0 16 12 6 24 6 36 0 13 -7 26 -5
46 8 24 16 25 19 9 25 -17 7 -17 8 0 17 11 6 23 7 34 1 11 -6 25 -6 38 0 30
13 135 -30 114 -46 -8 -6 -15 -23 -16 -37 -1 -22 8 -30 84 -68 47 -23 87 -40
90 -38 2 3 -33 22 -78 43 l-82 38 34 14 c51 21 60 31 48 53 -5 11 -14 17 -20
13 -13 -8 -170 66 -163 77 6 11 5 11 -26 -4z m6 -22 c-11 -8 -25 -15 -30 -15
-6 0 -2 7 8 15 11 8 25 15 30 15 6 0 2 -7 -8 -15z m-90 -50 c-11 -8 -25 -15
-30 -15 -6 0 -2 7 8 15 11 8 25 15 30 15 6 0 2 -7 -8 -15z m284 -15 c0 -11
-52 -40 -72 -40 -7 0 5 11 27 24 49 29 45 28 45 16z"/>
<path d="M1292 1119 c2 -7 13 -17 24 -23 10 -6 33 -21 51 -33 17 -13 34 -23
37 -23 3 0 25 -13 49 -30 25 -16 50 -30 56 -30 23 0 10 -28 -16 -33 -16 -3
-44 -17 -63 -31 -19 -14 -53 -35 -76 -46 -51 -25 -160 -90 -150 -90 4 0 20 7
37 15 20 11 35 13 47 6 13 -7 28 -3 55 14 32 19 35 24 20 29 -16 7 -15 9 10
22 19 10 33 12 45 5 20 -11 92 24 92 45 0 8 -16 4 -46 -13 -25 -14 -48 -23
-51 -20 -3 3 23 20 56 37 47 23 66 28 80 21 12 -7 22 -6 29 1 24 24 12 48 -42
83 -63 40 -71 43 -72 30 -1 -5 22 -24 50 -41 49 -29 64 -53 38 -62 -7 -2 -10
2 -7 10 4 10 -32 38 -116 89 -140 84 -143 86 -137 68z m58 -274 c0 -8 -61 -37
-67 -32 -3 3 8 12 24 21 29 16 43 19 43 11z"/>
<path d="M1810 1012 c0 -4 14 -16 30 -25 17 -10 30 -23 30 -29 0 -6 -3 -8 -6
-5 -9 9 -104 -43 -104 -56 0 -6 -3 -7 -6 -4 -9 9 -104 -43 -104 -56 0 -6 -3
-7 -7 -4 -7 8 -93 -39 -105 -57 -4 -6 -8 -7 -8 -3 0 12 -80 -35 -80 -47 0 -5
-3 -6 -7 -3 -7 8 -93 -39 -105 -57 -4 -6 -8 -8 -8 -4 0 5 -30 -8 -67 -28 -41
-21 -69 -31 -71 -24 -5 15 -74 48 -90 42 -8 -2 13 -19 47 -38 l61 -34 268 147
c382 210 416 229 420 241 2 6 -15 20 -37 31 -44 23 -51 25 -51 13z"/>
<path d="M800 969 c0 -17 4 -28 10 -24 6 3 10 1 10 -6 0 -7 3 -9 6 -6 4 4 2
13 -5 20 -6 8 -9 22 -5 31 3 9 1 16 -5 16 -6 0 -11 -14 -11 -31z"/>
<path d="M480 965 c0 -17 8 -29 23 -35 12 -6 54 -28 92 -49 110 -62 175 -93
187 -89 6 2 -56 41 -138 85 -105 58 -148 86 -146 97 2 9 -2 16 -8 16 -5 0 -10
-11 -10 -25z"/>
<path d="M986 861 c-3 -5 0 -11 7 -14 6 -3 47 -21 90 -41 102 -47 100 -28 -3
24 -88 44 -87 44 -94 31z"/>
</g>
</svg>
