<?xml version="1.0" standalone="no"?>
<!DOCTYPE svg PUBLIC "-//W3C//DTD SVG 20010904//EN"
 "http://www.w3.org/TR/2001/REC-SVG-20010904/DTD/svg10.dtd">
<svg version="1.0" xmlns="http://www.w3.org/2000/svg"
 width="72.000000pt" height="72.000000pt" viewBox="0 0 72.000000 72.000000"
 preserveAspectRatio="xMidYMid meet">
<metadata>
Created by potrace 1.16, written by Peter Selinger 2001-2019
</metadata>
<g transform="translate(0.000000,72.000000) scale(0.100000,-0.100000)"
fill="#000000" stroke="none">
<path d="M282 613 c-73 -143 -232 -499 -232 -519 0 -23 2 -24 80 -24 l81 0 26
60 26 60 54 0 c67 0 121 -26 164 -80 l32 -40 79 0 78 0 -1 28 c0 15 -55 144
-123 287 l-122 260 -61 3 -62 3 -19 -38z m214 -193 c90 -193 143 -305 152
-322 2 -5 -23 -8 -56 -8 -58 0 -61 1 -82 35 -35 56 -99 88 -190 93 l-77 4 -28
-66 -28 -66 -59 0 c-56 0 -67 6 -49 26 7 7 72 146 218 462 25 52 26 53 64 50
l40 -3 95 -205z"/>
<path d="M320 398 c-19 -45 -36 -85 -37 -88 -2 -3 26 -5 62 -6 36 0 71 -6 77
-12 33 -33 30 -2 -9 78 -24 50 -43 95 -43 100 0 28 -19 1 -50 -72z m63 -33
l17 -35 -35 0 c-19 0 -35 2 -35 4 0 13 23 66 29 66 4 0 15 -16 24 -35z"/>
</g>
</svg>
