<?xml version="1.0" standalone="no"?>
<!DOCTYPE svg PUBLIC "-//W3C//DTD SVG 20010904//EN"
 "http://www.w3.org/TR/2001/REC-SVG-20010904/DTD/svg10.dtd">
<svg version="1.0" xmlns="http://www.w3.org/2000/svg"
 width="100.000000pt" height="100.000000pt" viewBox="0 0 100.000000 100.000000"
 preserveAspectRatio="xMidYMid meet">
<metadata>
Created by potrace 1.16, written by Peter Selinger 2001-2019
</metadata>
<g transform="translate(0.000000,100.000000) scale(0.100000,-0.100000)"
fill="#000000" stroke="none">
<path d="M418 897 c-15 -18 -28 -38 -28 -44 0 -7 -4 -13 -10 -13 -14 0 -12
-28 2 -32 9 -3 9 -6 0 -12 -7 -4 -12 -2 -12 3 0 6 -6 11 -13 11 -9 0 -13 -12
-12 -34 0 -22 -3 -32 -11 -29 -13 5 -28 -42 -19 -57 4 -6 -1 -10 -9 -10 -17 0
-31 -34 -21 -51 4 -6 -3 -18 -15 -26 -13 -9 -20 -22 -17 -33 2 -10 -4 -22 -15
-29 -11 -7 -17 -17 -15 -24 2 -7 -5 -29 -15 -49 -12 -23 -17 -46 -13 -60 5
-17 4 -19 -4 -8 -14 20 -24 6 -25 -33 -1 -26 -5 -33 -17 -30 -12 4 -15 -3 -15
-29 2 -31 -1 -34 -24 -30 -20 3 -22 1 -10 -8 11 -9 12 -13 3 -17 -17 -6 -17
-30 0 -36 6 -3 2 -6 -10 -6 -25 -1 -34 -24 -27 -66 3 -16 6 -38 7 -48 2 -23
27 -29 117 -25 65 3 75 5 72 21 -2 11 4 17 17 17 20 0 34 26 28 51 -2 8 -2 11
0 7 11 -19 22 -5 30 35 l9 42 98 5 c71 4 101 2 108 -8 6 -6 17 -12 24 -12 8 0
23 -9 35 -21 12 -12 29 -19 39 -16 13 3 16 0 13 -14 -3 -11 0 -19 6 -19 6 0
17 -11 23 -25 6 -14 17 -25 24 -25 7 0 18 -9 24 -20 10 -19 19 -20 97 -18 78
3 87 5 89 23 2 11 5 34 8 50 7 43 -2 65 -27 66 -12 0 -16 3 -9 6 6 2 12 11 12
18 0 7 -6 16 -12 18 -10 4 -9 8 2 17 12 9 10 11 -12 7 -15 -2 -25 0 -22 4 9
15 -8 60 -21 55 -8 -3 -11 2 -8 14 3 11 -10 50 -29 87 -19 38 -33 73 -31 80 3
7 -4 17 -15 24 -11 7 -17 19 -15 29 3 10 -4 24 -16 32 -13 9 -19 21 -15 31 7
20 -14 60 -28 51 -7 -4 -8 -3 -4 4 4 6 4 23 0 37 -5 20 -11 24 -28 20 -11 -2
-15 -2 -8 1 6 3 12 12 12 20 0 9 -4 12 -10 9 -5 -3 -10 3 -10 14 0 23 -15 28
-24 9 -3 -7 -3 -3 -1 8 7 27 -7 61 -38 97 -21 23 -32 27 -78 27 -48 -1 -57 -4
-81 -33z m142 3 c0 -6 -27 -10 -60 -10 -33 0 -60 4 -60 10 0 6 27 10 60 10 33
0 60 -4 60 -10z m0 -60 c0 -16 4 -30 10 -30 5 0 7 7 4 15 -4 8 -1 15 5 15 6 0
11 -19 11 -45 0 -26 5 -45 11 -45 6 0 9 7 5 15 -3 8 -1 15 4 15 6 0 10 -20 10
-45 0 -35 4 -45 16 -45 14 0 14 3 4 15 -10 12 -10 15 4 15 12 0 16 -10 16 -45
0 -26 5 -45 11 -45 6 0 9 7 5 15 -3 8 -1 15 4 15 6 0 10 -29 10 -65 0 -39 4
-65 11 -65 5 0 8 4 5 9 -4 5 -2 20 3 33 8 18 10 10 10 -39 1 -35 5 -63 11 -63
5 0 7 7 4 15 -4 8 -1 15 5 15 6 0 11 -19 11 -45 0 -25 4 -45 10 -45 5 0 7 7 4
15 -4 8 -1 15 5 15 7 0 11 -20 11 -50 0 -29 5 -50 11 -50 6 0 8 9 4 20 -4 11
-2 20 4 20 6 0 11 -21 11 -50 0 -30 4 -50 11 -50 6 0 9 7 5 15 -3 8 -1 15 4
15 6 0 10 -20 10 -45 0 -26 5 -45 11 -45 6 0 9 7 5 15 -3 8 -1 15 4 15 6 0 10
-22 10 -50 0 -39 3 -48 14 -44 8 3 12 12 9 20 -3 8 0 14 6 14 6 0 11 -13 11
-30 l0 -30 -95 0 -95 0 0 30 c0 20 -5 30 -15 30 -8 0 -15 7 -15 15 0 8 -7 15
-15 15 -8 0 -15 7 -15 15 0 10 -11 15 -35 15 -19 0 -35 5 -35 11 0 6 7 9 15 5
8 -3 15 -1 15 4 0 6 -62 10 -155 10 l-155 0 0 -45 c0 -25 -4 -45 -10 -45 -5 0
-7 7 -4 15 4 8 1 15 -5 15 -6 0 -11 -19 -11 -45 l0 -45 -95 0 -95 0 0 30 c0
17 5 30 11 30 6 0 9 -6 6 -14 -3 -8 1 -17 9 -20 11 -4 14 5 14 44 0 28 4 50
10 50 5 0 7 -7 4 -15 -4 -8 -1 -15 5 -15 6 0 11 19 11 45 0 25 4 45 10 45 5 0
7 -7 4 -15 -4 -8 -1 -15 5 -15 7 0 11 20 11 50 0 29 5 50 11 50 6 0 8 -9 4
-20 -4 -11 -2 -20 4 -20 6 0 11 21 11 50 0 30 4 50 11 50 6 0 9 -7 5 -15 -3
-8 -1 -15 4 -15 6 0 10 20 10 45 0 26 5 45 11 45 6 0 9 -7 5 -15 -3 -8 -1 -15
4 -15 6 0 10 27 10 60 0 33 4 60 8 60 5 0 8 -13 7 -30 -1 -16 2 -30 7 -30 4 0
8 29 8 65 0 36 4 65 10 65 5 0 7 -7 4 -15 -4 -8 -1 -15 5 -15 6 0 11 19 11 45
0 25 4 45 10 45 5 0 7 -7 4 -15 -4 -8 -1 -15 5 -15 6 0 11 19 11 45 0 35 4 45
16 45 14 0 14 -3 4 -15 -10 -12 -10 -15 4 -15 12 0 16 10 16 45 0 26 5 45 11
45 6 0 9 -7 5 -15 -3 -8 -1 -15 4 -15 6 0 10 14 10 30 l0 30 60 0 60 0 0 -30z
m90 -616 c0 -2 -7 -4 -15 -4 -8 0 -15 4 -15 10 0 5 7 7 15 4 8 -4 15 -8 15
-10z m55 -54 c3 -5 1 -10 -4 -10 -6 0 -11 5 -11 10 0 6 2 10 4 10 3 0 8 -4 11
-10z m-455 -70 c0 -6 -33 -10 -80 -10 -47 0 -80 4 -80 10 0 6 33 10 80 10 47
0 80 -4 80 -10z m660 0 c0 -6 -33 -10 -80 -10 -47 0 -80 4 -80 10 0 6 33 10
80 10 47 0 80 -4 80 -10z"/>
<path d="M478 843 c12 -2 32 -2 45 0 12 2 2 4 -23 4 -25 0 -35 -2 -22 -4z"/>
<path d="M395 730 c-3 -5 -1 -10 4 -10 6 0 11 5 11 10 0 6 -2 10 -4 10 -3 0
-8 -4 -11 -10z"/>
<path d="M470 683 c0 -5 14 -8 30 -8 17 0 30 3 30 8 0 4 -13 7 -30 7 -16 0
-30 -3 -30 -7z"/>
<path d="M620 670 c0 -5 5 -10 10 -10 6 0 10 5 10 10 0 6 -4 10 -10 10 -5 0
-10 -4 -10 -10z"/>
<path d="M470 610 c0 -30 -4 -50 -11 -50 -6 0 -9 7 -5 15 3 8 1 15 -4 15 -6 0
-10 -27 -10 -60 0 -36 -4 -60 -11 -60 -5 0 -8 4 -5 9 4 5 2 20 -3 33 -8 19
-10 15 -10 -24 l-1 -48 75 0 c41 0 75 -4 75 -8 0 -4 -38 -8 -85 -8 -82 -1 -85
0 -85 23 0 13 -4 23 -10 23 -5 0 -10 -13 -10 -30 l0 -30 123 -1 c67 0 116 -3
110 -6 -18 -7 -16 -23 2 -23 11 0 15 12 15 45 0 25 -4 45 -10 45 -5 0 -7 -6
-4 -14 3 -8 1 -17 -5 -21 -7 -4 -11 11 -11 44 0 29 -5 51 -11 51 -5 0 -8 -4
-5 -9 4 -5 2 -20 -3 -33 -8 -18 -10 -10 -10 40 -1 34 -5 62 -11 62 -5 0 -7 -7
-4 -15 4 -8 1 -15 -5 -15 -7 0 -11 20 -11 50 0 49 -1 50 -30 50 -29 0 -30 -1
-30 -50z m35 30 c3 -5 -1 -10 -10 -10 -9 0 -13 5 -10 10 3 6 8 10 10 10 2 0 7
-4 10 -10z m5 -40 c0 -5 -4 -10 -10 -10 -5 0 -10 5 -10 10 0 6 5 10 10 10 6 0
10 -4 10 -10z m0 -47 c0 -10 7 -27 15 -37 27 -35 19 -51 -25 -51 -35 0 -39 3
-37 23 1 12 7 22 14 22 8 0 13 12 13 30 0 31 20 43 20 13z"/>
<path d="M331 604 c0 -11 3 -14 6 -6 3 7 2 16 -1 19 -3 4 -6 -2 -5 -13z"/>
<path d="M661 604 c0 -11 3 -14 6 -6 3 7 2 16 -1 19 -3 4 -6 -2 -5 -13z"/>
<path d="M340 550 c0 -5 7 -10 15 -10 8 0 15 5 15 10 0 6 -7 10 -15 10 -8 0
-15 -4 -15 -10z"/>
<path d="M636 395 c-3 -9 0 -15 9 -15 8 0 15 7 15 15 0 8 -4 15 -9 15 -5 0
-11 -7 -15 -15z"/>
<path d="M410 360 c0 -18 7 -20 60 -20 53 0 60 2 60 20 0 18 -7 20 -60 20 -53
0 -60 -2 -60 -20z m100 0 c0 -5 -18 -10 -40 -10 -22 0 -40 5 -40 10 0 6 18 10
40 10 22 0 40 -4 40 -10z"/>
<path d="M310 299 c0 -5 5 -7 10 -4 6 3 10 8 10 11 0 2 -4 4 -10 4 -5 0 -10
-5 -10 -11z"/>
<path d="M340 301 c0 -12 176 -11 205 0 12 4 -27 8 -92 8 -65 1 -113 -3 -113
-8z"/>
<path d="M173 153 c9 -2 25 -2 35 0 9 3 1 5 -18 5 -19 0 -27 -2 -17 -5z"/>
<path d="M250 149 c0 -5 5 -7 10 -4 6 3 10 8 10 11 0 2 -4 4 -10 4 -5 0 -10
-5 -10 -11z"/>
<path d="M735 150 c3 -5 8 -10 11 -10 2 0 4 5 4 10 0 6 -5 10 -11 10 -5 0 -7
-4 -4 -10z"/>
<path d="M793 153 c9 -2 25 -2 35 0 9 3 1 5 -18 5 -19 0 -27 -2 -17 -5z"/>
</g>
</svg>
