<?xml version="1.0" standalone="no"?>
<!DOCTYPE svg PUBLIC "-//W3C//DTD SVG 20010904//EN"
 "http://www.w3.org/TR/2001/REC-SVG-20010904/DTD/svg10.dtd">
<svg version="1.0" xmlns="http://www.w3.org/2000/svg"
 width="100.000000pt" height="100.000000pt" viewBox="0 0 100.000000 100.000000"
 preserveAspectRatio="xMidYMid meet">
<metadata>
Created by potrace 1.16, written by Peter Selinger 2001-2019
</metadata>
<g transform="translate(0.000000,100.000000) scale(0.100000,-0.100000)"
fill="#000000" stroke="none">
<path d="M895 990 c3 -5 8 -10 11 -10 2 0 4 5 4 10 0 6 -5 10 -11 10 -5 0 -7
-4 -4 -10z"/>
<path d="M955 990 c3 -5 8 -10 11 -10 2 0 4 5 4 10 0 6 -5 10 -11 10 -5 0 -7
-4 -4 -10z"/>
<path d="M0 960 c0 -7 146 -10 418 -10 382 0 465 -5 433 -24 -6 -4 -11 -2 -11
4 0 6 -4 8 -10 5 -5 -3 -10 -17 -10 -31 0 -13 -3 -23 -7 -22 -10 3 -53 -34
-53 -45 0 -5 -7 -15 -15 -23 -8 -9 -15 -24 -15 -34 0 -14 -5 -18 -16 -13 -11
4 -15 1 -12 -13 2 -10 -2 -19 -9 -19 -14 0 -54 -50 -58 -73 -1 -10 -9 -16 -19
-14 -11 2 -16 -5 -16 -23 0 -14 -4 -24 -8 -21 -11 7 -52 -48 -52 -69 0 -8 -7
-15 -15 -15 -8 0 -15 -7 -15 -15 0 -19 -14 -19 -30 0 -18 21 -257 18 -252 -3
1 -8 -2 -11 -8 -7 -5 3 -13 -1 -17 -10 -3 -9 -19 -31 -34 -48 -16 -17 -29 -42
-29 -54 0 -14 -6 -23 -15 -23 -8 0 -15 -7 -15 -15 0 -8 -6 -15 -13 -15 -16 0
-57 -53 -57 -74 0 -8 -8 -16 -17 -18 -22 -4 -29 -78 -7 -78 9 0 14 11 14 30 0
17 4 30 10 30 5 0 7 -7 4 -15 -4 -8 -1 -15 5 -15 6 0 11 14 11 30 0 17 5 30
11 30 6 0 9 -6 6 -13 -6 -16 20 -41 28 -27 3 6 1 10 -4 10 -6 0 -11 14 -11 30
0 23 4 30 20 30 11 0 20 7 20 15 0 8 7 15 15 15 10 0 15 11 15 35 0 19 5 35
11 35 6 0 8 -9 4 -20 -3 -11 -2 -20 4 -20 5 0 12 -8 14 -17 2 -10 2 6 -1 35
-4 44 -2 52 12 52 11 0 16 9 16 30 0 17 4 30 10 30 5 0 7 -7 4 -15 -4 -8 -1
-15 5 -15 6 0 11 7 11 15 0 12 17 15 95 15 l95 0 0 -45 c0 -43 1 -45 30 -45
28 0 30 -3 30 -35 0 -25 4 -35 16 -35 12 0 15 7 10 28 -3 15 -3 21 0 15 9 -20
34 -15 34 7 0 11 7 20 15 20 8 0 15 -8 15 -17 0 -15 2 -16 10 -3 6 10 6 16 0
18 -6 2 -10 17 -10 33 0 20 -5 29 -16 29 -12 0 -15 -7 -10 -27 3 -16 3 -22 0
-15 -8 17 -34 15 -34 -3 0 -8 -7 -15 -15 -15 -8 0 -15 5 -15 11 0 7 -9 9 -24
5 -20 -5 -23 -2 -23 19 0 14 3 25 8 25 5 0 9 -7 9 -15 0 -8 7 -15 15 -15 8 0
15 7 15 15 0 8 7 15 15 15 8 0 15 7 15 15 0 10 10 15 30 15 20 0 30 -5 30 -15
0 -8 7 -15 15 -15 8 0 15 7 15 15 0 11 12 15 50 15 l50 0 0 -82 c0 -92 9 -100
15 -13 6 93 15 76 15 -28 0 -107 14 -133 18 -35 6 104 12 79 12 -46 0 -77 3
-115 10 -111 6 4 8 10 5 15 -3 4 -1 19 4 32 8 18 10 8 10 -44 l1 -68 -45 0
-45 0 0 65 c0 83 -14 85 -18 3 -5 -91 -12 -85 -12 10 l0 82 -80 0 -80 0 0 -60
0 -60 -125 0 -125 0 0 30 c0 17 5 30 11 30 6 0 9 -7 5 -15 -4 -10 3 -17 22
-21 15 -3 33 -7 40 -10 6 -2 12 1 12 6 0 6 -13 10 -30 10 -29 0 -30 2 -30 45
l0 45 -75 0 c-60 0 -75 -3 -75 -15 0 -8 -7 -15 -15 -15 -8 0 -15 -7 -15 -15 0
-8 -9 -15 -20 -15 -11 0 -20 -7 -20 -15 0 -8 -7 -15 -15 -15 -10 0 -15 -11
-15 -35 0 -32 -2 -35 -30 -35 -17 0 -30 -5 -30 -11 0 -6 17 -9 43 -7 36 3 44
7 57 35 8 18 23 33 33 33 9 0 17 5 17 10 0 23 41 50 75 50 19 0 35 -4 35 -10
0 -5 -7 -10 -15 -10 -11 0 -15 -13 -17 -47 -1 -37 -2 -41 -5 -15 -5 36 -23 34
-23 -2 0 -45 19 -49 203 -47 95 1 178 3 185 3 16 2 27 43 16 65 -6 14 -9 11
-14 -17 -6 -31 -8 -28 -9 23 l-1 57 44 0 44 0 4 -55 c3 -30 8 -58 12 -62 11
-11 133 -20 156 -11 16 6 20 16 20 59 0 41 -3 50 -15 45 -12 -4 -15 3 -15 29
0 34 -15 56 -22 33 -3 -7 -5 12 -6 42 -2 69 -11 110 -23 110 -5 0 -9 15 -9 34
0 36 -14 56 -24 34 -4 -9 -5 -8 -5 2 3 51 -1 59 -33 62 -18 2 -31 8 -28 13 2
6 10 9 17 7 7 -2 13 6 13 18 0 11 5 19 11 18 6 -2 13 5 14 14 2 10 10 25 19
34 9 8 16 24 16 34 0 13 5 17 15 14 9 -4 15 0 15 10 0 9 5 16 10 16 6 0 13 7
17 16 3 9 17 28 31 43 13 14 28 36 33 49 5 13 14 20 20 17 6 -4 13 2 16 14 17
66 23 -32 23 -388 l0 -398 -475 1 c-374 1 -475 -2 -475 -11 0 -10 103 -13 480
-13 422 0 479 -2 474 -15 -4 -8 -1 -15 5 -15 8 0 11 137 11 485 l0 485 -27 0
c-22 -1 -24 -3 -13 -10 17 -10 16 -90 -2 -90 -5 0 -6 9 -3 20 4 11 2 20 -4 20
-6 0 -11 -16 -11 -35 0 -28 -4 -35 -20 -35 -11 0 -20 -7 -20 -15 0 -8 -7 -15
-15 -15 -8 0 -15 -7 -15 -15 0 -8 -7 -15 -15 -15 -10 0 -15 -10 -15 -30 0 -16
-5 -30 -11 -30 -6 0 -9 7 -5 15 3 8 1 15 -4 15 -6 0 -10 -13 -10 -30 0 -20 -5
-30 -15 -30 -10 0 -15 -10 -15 -30 0 -16 -4 -30 -10 -30 -5 0 -7 7 -4 15 4 8
1 15 -5 15 -6 0 -11 -16 -11 -35 0 -19 -5 -35 -11 -35 -6 0 -8 8 -4 19 3 11 0
21 -7 24 -10 3 -12 -6 -10 -34 3 -31 1 -39 -12 -39 -9 0 -16 -7 -16 -15 0 -8
-9 -15 -20 -15 -11 0 -20 -7 -20 -15 0 -11 12 -15 50 -15 28 0 50 -3 50 -7 0
-5 -43 -8 -95 -8 -52 0 -95 3 -95 8 0 4 18 7 41 7 26 0 38 4 33 11 -3 6 -15 9
-25 6 -15 -4 -19 0 -19 19 0 13 5 24 11 24 6 0 9 -7 5 -15 -3 -8 -1 -15 4 -15
6 0 10 14 10 30 0 17 5 30 11 30 6 0 9 -6 6 -14 -6 -14 21 -32 31 -21 3 3 0 5
-6 5 -7 0 -12 15 -12 35 0 28 4 35 20 35 16 0 20 7 20 30 0 17 4 30 10 30 5 0
7 -7 4 -15 -4 -8 -1 -15 5 -15 6 0 11 7 11 15 0 8 7 15 15 15 10 0 15 10 15
30 0 20 5 30 15 30 8 0 15 7 15 15 0 8 7 15 15 15 10 0 15 10 15 30 0 20 5 30
15 30 8 0 15 7 15 15 0 8 5 15 11 15 6 0 9 -6 6 -13 -2 -6 1 -17 8 -24 10 -9
11 -2 7 33 -4 36 -2 44 12 44 9 0 16 8 16 19 0 14 5 18 20 14 14 -4 20 0 20
11 0 14 -43 16 -455 16 -297 0 -455 -3 -455 -10z m770 -154 c0 -3 -4 -8 -10
-11 -5 -3 -10 -1 -10 4 0 6 5 11 10 11 6 0 10 -2 10 -4z m100 -16 c0 -5 -5
-10 -11 -10 -5 0 -7 5 -4 10 3 6 8 10 11 10 2 0 4 -4 4 -10z m-30 -30 c0 -5
-5 -10 -11 -10 -5 0 -7 5 -4 10 3 6 8 10 11 10 2 0 4 -4 4 -10z m-130 -44 c0
-3 -4 -8 -10 -11 -5 -3 -10 -1 -10 4 0 6 5 11 10 11 6 0 10 -2 10 -4z m-270
-223 c0 -5 -43 -8 -95 -8 -52 0 -95 3 -95 8 0 4 43 7 95 7 52 0 95 -3 95 -7z
m30 -3 c0 -5 -2 -10 -4 -10 -3 0 -8 5 -11 10 -3 6 -1 10 4 10 6 0 11 -4 11
-10z m0 -30 c0 -5 -2 -10 -4 -10 -3 0 -8 5 -11 10 -3 6 -1 10 4 10 6 0 11 -4
11 -10z m50 6 c0 -3 -4 -8 -10 -11 -5 -3 -10 -1 -10 4 0 6 5 11 10 11 6 0 10
-2 10 -4z m-370 -130 c0 -3 -4 -8 -10 -11 -5 -3 -10 -1 -10 4 0 6 5 11 10 11
6 0 10 -2 10 -4z m-40 -30 c0 -3 -4 -8 -10 -11 -5 -3 -10 -1 -10 4 0 6 5 11
10 11 6 0 10 -2 10 -4z m143 -83 c-13 -2 -35 -2 -50 0 -16 2 -5 4 22 4 28 0
40 -2 28 -4z m304 -15 c-3 -8 -6 -5 -6 6 -1 11 2 17 5 13 3 -3 4 -12 1 -19z
m91 15 c-16 -2 -40 -2 -55 0 -16 2 -3 4 27 4 30 0 43 -2 28 -4z m-88 -83 l0
-50 -45 0 c-30 0 -45 4 -45 13 0 9 11 12 34 9 32 -4 33 -2 40 37 9 56 16 52
16 -9z m-430 30 c0 -5 -4 -10 -10 -10 -5 0 -10 5 -10 10 0 6 5 10 10 10 6 0
10 -4 10 -10z m140 -34 c0 -19 4 -23 20 -19 11 3 20 0 20 -6 0 -7 9 -9 25 -5
46 12 105 10 105 -3 0 -10 -26 -13 -95 -13 l-95 0 0 35 c0 19 5 35 10 35 6 0
10 -11 10 -24z m570 -11 c0 -19 -4 -35 -8 -35 -4 0 -6 16 -4 35 2 19 6 35 8
35 2 0 4 -16 4 -35z m-750 15 c0 -5 -5 -10 -11 -10 -5 0 -7 5 -4 10 3 6 8 10
11 10 2 0 4 -4 4 -10z"/>
<path d="M985 960 c3 -5 8 -10 11 -10 2 0 4 5 4 10 0 6 -5 10 -11 10 -5 0 -7
-4 -4 -10z"/>
<path d="M861 890 c0 -8 4 -22 9 -30 7 -12 12 -12 22 -2 9 9 9 12 -4 12 -9 0
-19 8 -21 18 -3 12 -5 13 -6 2z"/>
<path d="M795 820 c-3 -5 -1 -10 4 -10 6 0 11 5 11 10 0 6 -2 10 -4 10 -3 0
-8 -4 -11 -10z"/>
<path d="M737 734 c-3 -5 1 -15 9 -22 16 -14 18 -5 5 17 -5 7 -11 9 -14 5z"/>
<path d="M640 604 c0 -10 28 -33 33 -27 3 3 0 12 -8 19 -14 15 -25 18 -25 8z"/>
<path d="M310 436 c0 -31 6 -34 13 -6 3 11 1 23 -4 26 -5 3 -9 -6 -9 -20z"/>
<path d="M347 453 c-11 -10 -8 -143 3 -143 5 0 7 7 4 15 -4 8 -1 15 5 15 7 0
11 23 11 60 0 55 -6 70 -23 53z"/>
<path d="M648 443 c7 -3 16 -2 19 1 4 3 -2 6 -13 5 -11 0 -14 -3 -6 -6z"/>
<path d="M692 430 c0 -14 2 -19 5 -12 2 6 2 18 0 25 -3 6 -5 1 -5 -13z"/>
<path d="M395 430 c3 -5 8 -10 11 -10 2 0 4 5 4 10 0 6 -5 10 -11 10 -5 0 -7
-4 -4 -10z"/>
<path d="M243 420 c2 -8 12 -16 23 -17 13 -2 15 -1 4 4 -8 3 -19 11 -23 17 -6
7 -7 6 -4 -4z"/>
<path d="M607 423 c-4 -7 5 -15 23 -22 18 -6 30 -6 30 0 0 5 -9 9 -19 9 -11 0
-21 5 -23 12 -3 9 -6 9 -11 1z"/>
<path d="M393 396 c3 -8 1 -17 -6 -19 -9 -3 -8 -8 2 -20 12 -15 11 -17 -3 -17
-11 0 -16 -9 -16 -30 0 -23 4 -30 20 -30 18 0 20 7 20 65 0 41 -4 65 -11 65
-6 0 -9 -6 -6 -14z"/>
<path d="M206 392 c-4 -7 -2 -12 3 -12 6 0 11 -7 11 -16 0 -13 3 -14 14 -5 10
9 15 8 20 -4 4 -10 -1 -15 -14 -15 -11 0 -20 -7 -20 -15 0 -10 10 -15 30 -15
28 0 30 3 30 35 0 32 -2 35 -29 35 -16 0 -31 5 -33 12 -3 9 -6 9 -12 0z"/>
<path d="M304 376 c-3 -8 -4 -27 -2 -43 3 -23 5 -20 9 15 5 43 2 53 -7 28z"/>
<path d="M683 375 c-3 -9 -3 -18 -1 -21 3 -3 8 4 11 16 6 23 -1 27 -10 5z"/>
<path d="M620 360 c0 -11 -7 -20 -15 -20 -8 0 -15 -7 -15 -15 0 -10 11 -15 35
-15 33 0 35 2 35 35 0 28 -4 35 -20 35 -13 0 -20 -7 -20 -20z"/>
<path d="M431 324 c0 -11 3 -14 6 -6 3 7 2 16 -1 19 -3 4 -6 -2 -5 -13z"/>
<path d="M470 325 c0 -8 5 -15 10 -15 6 0 10 7 10 15 0 8 -4 15 -10 15 -5 0
-10 -7 -10 -15z"/>
<path d="M676 325 c-3 -8 -1 -15 4 -15 6 0 10 7 10 15 0 8 -2 15 -4 15 -2 0
-6 -7 -10 -15z"/>
<path d="M470 289 c0 -5 11 -9 25 -9 14 0 25 2 25 4 0 2 -11 6 -25 8 -14 3
-25 1 -25 -3z"/>
<path d="M156 275 c5 -11 154 -14 154 -3 0 3 -35 8 -79 10 -49 2 -77 -1 -75
-7z"/>
<path d="M530 273 c0 -5 36 -8 80 -8 44 0 80 3 80 8 0 4 -36 7 -80 7 -44 0
-80 -3 -80 -7z"/>
<path d="M117 262 c-3 -4 1 -13 9 -19 7 -7 15 -9 17 -5 3 4 -1 13 -9 19 -7 7
-15 9 -17 5z"/>
<path d="M332 220 c0 -19 2 -27 5 -17 2 9 2 25 0 35 -3 9 -5 1 -5 -18z"/>
<path d="M370 220 c0 -16 5 -30 10 -30 6 0 10 14 10 30 0 17 -4 30 -10 30 -5
0 -10 -13 -10 -30z"/>
<path d="M410 220 c0 -20 5 -30 15 -30 10 0 15 10 15 30 0 20 -5 30 -15 30
-10 0 -15 -10 -15 -30z"/>
<path d="M462 220 c0 -19 2 -27 5 -17 2 9 2 25 0 35 -3 9 -5 1 -5 -18z"/>
<path d="M502 220 c0 -19 2 -27 5 -17 2 9 2 25 0 35 -3 9 -5 1 -5 -18z"/>
<path d="M746 193 c-6 -14 -5 -15 5 -6 7 7 10 15 7 18 -3 3 -9 -2 -12 -12z"/>
<path d="M440 150 c0 -5 7 -10 15 -10 8 0 15 5 15 10 0 6 -7 10 -15 10 -8 0
-15 -4 -15 -10z"/>
<path d="M0 120 c0 -5 11 -10 25 -10 14 0 25 5 25 10 0 6 -11 10 -25 10 -14 0
-25 -4 -25 -10z"/>
<path d="M730 122 c0 -12 58 -13 65 -1 4 5 -10 9 -29 9 -20 0 -36 -4 -36 -8z"/>
</g>
</svg>
