<?xml version="1.0" standalone="no"?>
<!DOCTYPE svg PUBLIC "-//W3C//DTD SVG 20010904//EN"
 "http://www.w3.org/TR/2001/REC-SVG-20010904/DTD/svg10.dtd">
<svg version="1.0" xmlns="http://www.w3.org/2000/svg"
 width="180.000000pt" height="180.000000pt" viewBox="0 0 180.000000 180.000000"
 preserveAspectRatio="xMidYMid meet">
<metadata>
Created by potrace 1.16, written by Peter Selinger 2001-2019
</metadata>
<g transform="translate(0.000000,180.000000) scale(0.100000,-0.100000)"
fill="#000000" stroke="none">
<path d="M1630 1790 c0 -5 5 -10 11 -10 5 0 7 5 4 10 -3 6 -8 10 -11 10 -2 0
-4 -4 -4 -10z"/>
<path d="M1633 1761 c-23 -21 -39 -41 -37 -44 3 -3 -9 -19 -27 -37 -18 -17
-34 -37 -35 -44 -2 -15 -94 -131 -94 -119 0 4 -6 -2 -14 -12 -8 -11 -12 -23
-10 -27 3 -4 -2 -5 -11 -2 -10 4 -14 2 -10 -7 5 -17 -13 -43 -38 -52 -10 -4
-16 -11 -13 -15 3 -5 -8 -23 -24 -41 -17 -18 -30 -36 -30 -41 0 -5 -13 -18
-30 -30 -16 -12 -30 -30 -30 -41 0 -10 -4 -19 -10 -19 -5 0 -10 -4 -10 -9 0
-5 -13 -24 -29 -41 -38 -43 -52 -59 -80 -98 -19 -28 -25 -31 -39 -20 -13 11
-14 10 -8 -15 5 -23 1 -33 -24 -59 -18 -17 -32 -39 -33 -49 -1 -10 -11 -20
-24 -24 -13 -3 -23 -11 -23 -18 0 -15 -39 -66 -40 -52 0 6 7 21 16 33 9 13 13
26 9 30 -3 4 -10 0 -15 -9 -6 -11 -19 -14 -44 -11 -34 4 -46 15 -28 25 4 2 1
2 -5 1 -7 -2 -13 1 -13 7 0 5 -12 7 -26 5 -15 -3 -95 -6 -178 -6 l-151 -2 -18
-31 c-17 -30 -18 -31 -14 -6 2 15 -1 26 -8 26 -6 0 -10 -16 -9 -39 2 -36 -10
-52 -19 -25 -2 6 -3 5 -2 -3 2 -23 -23 -68 -46 -80 -12 -7 -18 -18 -15 -26 3
-8 2 -14 -3 -14 -4 0 -14 -11 -21 -25 -8 -14 -19 -24 -24 -22 -6 2 -21 -7 -34
-19 -21 -22 -10 -35 14 -16 5 4 0 -2 -11 -13 -11 -11 -36 -44 -55 -72 -19 -29
-38 -53 -42 -53 -4 0 -15 -14 -23 -31 -11 -21 -21 -29 -32 -25 -12 5 -14 1
-11 -19 3 -15 1 -25 -6 -25 -7 0 -20 -14 -31 -32 -10 -18 -20 -27 -23 -20 -2
7 -8 12 -14 12 -6 0 -5 -7 3 -16 11 -13 10 -17 -4 -26 -10 -5 -14 -14 -11 -20
4 -6 8 -27 9 -46 2 -30 0 -33 -10 -19 -10 15 -12 13 -11 -12 1 -22 4 -27 13
-19 7 6 19 8 28 5 8 -4 17 -2 20 3 4 6 15 10 26 10 11 0 17 -4 14 -10 -10 -16
7 -12 28 7 20 17 20 17 13 -1 -5 -16 -4 -17 9 -6 8 7 15 18 15 24 1 18 39 58
49 52 5 -4 12 -2 15 3 3 5 -2 12 -11 15 -15 6 -15 9 -3 16 8 5 18 6 22 4 5 -3
8 -2 7 3 -5 28 2 45 17 39 12 -4 14 -1 9 14 -4 11 -2 20 4 20 10 0 15 -14 12
-32 0 -5 4 -8 10 -8 8 0 10 12 6 35 -4 27 -2 35 9 35 8 0 13 4 9 9 -3 6 9 8
27 7 18 -2 23 -1 11 1 -13 2 -23 9 -23 14 0 6 9 7 20 4 15 -5 20 -2 20 12 1
17 1 17 11 1 5 -10 15 -18 22 -18 7 0 6 4 -3 10 -10 7 12 9 70 8 47 -1 66 -3
43 -5 -56 -5 -55 -23 1 -23 29 0 48 -6 57 -17 8 -10 9 -14 2 -10 -7 5 -18 -5
-29 -28 -9 -19 -21 -35 -26 -35 -5 0 -6 -4 -3 -10 3 -5 -1 -10 -9 -10 -9 0
-16 -7 -16 -15 0 -8 -9 -19 -20 -25 -32 -17 -27 -72 7 -87 33 -16 76 -18 53
-3 -22 14 -3 12 21 -2 17 -11 23 -10 36 7 9 11 13 13 11 5 -4 -11 3 -16 23
-17 16 -1 29 2 29 7 0 5 -7 7 -15 4 -11 -4 -15 0 -15 16 0 18 2 19 15 8 43
-39 49 -42 53 -30 4 14 32 16 32 2 0 -5 5 -10 11 -10 5 0 7 5 4 10 -3 5 1 10
10 10 9 0 13 -4 10 -10 -3 -5 -1 -10 4 -10 6 0 11 5 11 11 0 8 13 10 37 6 33
-5 36 -4 20 7 -14 11 -15 15 -3 25 11 9 15 7 19 -9 4 -18 13 -20 72 -20 41 0
64 -4 60 -10 -3 -5 -1 -10 4 -10 6 0 11 5 11 10 0 6 7 10 16 10 8 0 12 -5 9
-11 -4 -6 2 -5 14 3 25 15 28 59 6 82 -8 8 -15 24 -15 35 0 11 -4 22 -9 25 -5
3 -7 23 -4 44 4 27 0 43 -10 54 -18 18 -12 29 11 21 10 -4 13 -2 8 5 -5 9 21
12 101 11 70 0 101 -3 88 -9 -19 -8 -18 -9 4 -9 23 -1 23 -2 8 -19 -18 -20
-23 -57 -7 -47 5 3 10 15 10 26 0 32 16 21 18 -12 2 -21 -4 -36 -15 -45 -17
-13 -17 -13 0 -14 9 0 17 5 17 10 0 6 4 10 8 10 12 0 33 -88 27 -118 -3 -15
-2 -21 1 -14 3 6 10 9 15 6 6 -3 5 -11 -2 -20 -9 -11 -7 -14 9 -14 11 0 23 -6
25 -12 4 -10 6 -10 6 0 1 17 98 17 104 0 4 -10 6 -10 6 0 1 15 47 16 56 2 4
-7 -3 -8 -22 -4 -22 5 -25 4 -17 -6 7 -6 20 -10 30 -8 21 4 27 53 10 77 -9 12
-8 13 4 6 12 -7 12 -5 -1 11 -9 10 -15 24 -12 30 2 6 -8 34 -22 61 -14 28 -25
62 -25 76 0 14 -5 27 -11 29 -6 2 -11 25 -11 50 -1 26 -4 45 -8 43 -10 -6 -21
36 -13 49 4 5 10 1 14 -10 7 -17 8 -17 8 4 1 19 -3 22 -19 17 -15 -5 -21 0
-26 22 -16 73 -27 109 -34 118 -5 6 -14 23 -20 39 -10 27 -9 28 12 23 l23 -6
-24 20 c-13 10 -18 19 -12 19 7 0 9 5 6 10 -4 6 -11 7 -17 4 -6 -4 -8 1 -4 13
6 18 1 20 -56 22 -34 1 -66 5 -70 7 -5 3 -21 -2 -36 -11 l-27 -17 25 26 c14
15 36 38 49 52 13 13 20 24 16 24 -4 0 0 9 10 20 14 16 21 18 27 8 6 -8 7 -5
3 10 -5 16 -2 22 10 22 9 0 14 4 11 8 -2 4 -1 14 5 22 6 10 9 11 9 3 0 -7 5
-13 11 -13 5 0 7 4 4 10 -9 14 13 50 31 50 8 0 14 6 13 13 -3 23 1 38 9 33 4
-3 16 10 26 28 13 25 23 32 37 29 10 -3 19 0 19 6 0 5 -7 8 -15 5 -8 -4 -15
-1 -15 5 0 6 5 11 10 11 6 0 10 8 11 18 0 15 1 14 8 -2 7 -19 8 -18 15 5 5 13
8 27 7 31 0 4 6 5 14 2 11 -5 13 -2 8 12 -5 13 -3 16 9 11 10 -3 19 0 22 9 4
10 2 12 -6 8 -8 -5 -9 -2 -5 10 4 10 7 21 7 24 0 4 5 0 10 -8 8 -12 10 -11 10
5 0 11 9 28 20 38 18 15 24 14 21 -5 0 -5 4 -8 9 -8 14 0 13 13 -2 28 -9 9 -6
17 12 37 13 14 30 25 38 25 8 0 12 6 8 15 -3 8 -2 15 3 15 4 0 14 12 22 28 8
15 22 36 33 47 10 11 25 30 34 43 12 18 17 20 24 10 6 -9 7 -6 3 10 -4 13 -2
22 4 22 6 0 11 7 11 15 0 9 7 18 15 21 8 4 15 18 15 33 l-1 26 -22 -26 c-12
-15 -31 -39 -42 -55 -11 -15 -27 -35 -35 -44 -9 -9 -31 -37 -49 -63 -19 -26
-38 -47 -43 -47 -4 0 -8 -5 -8 -11 0 -6 -26 -43 -58 -82 -32 -40 -67 -84 -77
-98 -81 -108 -109 -145 -114 -149 -3 -3 -28 -34 -56 -70 -27 -36 -60 -76 -72
-90 -13 -14 -23 -28 -23 -32 0 -3 -6 -13 -13 -20 -7 -7 -23 -27 -35 -44 -19
-28 -27 -31 -76 -33 -30 0 -58 4 -61 9 -3 6 1 10 9 10 8 0 28 18 43 39 52 72
197 256 205 259 5 2 8 10 8 17 0 7 3 15 8 17 4 2 27 28 52 58 24 30 48 57 52
58 5 2 8 8 8 13 0 8 102 139 138 178 7 7 21 26 30 40 19 29 40 56 62 80 8 9
28 33 43 54 37 49 14 48 -40 -2z m-1013 -889 c0 -10 21 -82 45 -162 25 -80 47
-149 48 -153 1 -5 12 5 24 21 l22 30 -43 128 c-24 71 -46 136 -50 144 -5 13 5
15 71 13 l78 -2 6 -33 c14 -70 34 -138 41 -138 4 0 13 10 20 23 7 12 33 50 58
83 44 61 46 62 100 66 30 2 59 1 64 -4 6 -5 6 -8 -1 -8 -7 0 -55 -56 -107
-124 -89 -116 -95 -126 -89 -160 3 -20 10 -35 14 -34 7 2 199 258 234 312 7
10 29 16 69 17 l59 3 14 -55 c7 -30 38 -133 69 -229 30 -96 64 -204 75 -240
11 -36 29 -80 40 -98 l19 -33 -87 3 -86 3 -4 30 c-2 17 -18 78 -36 137 l-32
108 -132 0 -131 0 -21 -33 -20 -33 34 -94 c19 -52 39 -96 45 -98 5 -2 10 -8
10 -13 0 -5 -38 -9 -85 -9 -85 0 -85 0 -85 26 0 14 -5 34 -11 46 -10 19 -12
18 -35 -15 -13 -20 -24 -41 -24 -47 0 -7 -22 -10 -62 -8 -59 3 -62 4 -70 33
-5 17 -12 36 -14 44 -3 10 -13 3 -29 -22 -14 -20 -25 -41 -25 -46 0 -7 -25
-11 -60 -11 -62 0 -74 9 -42 32 10 7 41 43 70 79 l51 66 -15 49 -16 49 -129
-1 -129 -1 -87 -114 c-48 -63 -91 -115 -95 -117 -4 -2 -8 -12 -8 -23 0 -16 -7
-19 -45 -19 -42 0 -45 2 -45 25 0 17 29 63 82 132 253 325 347 452 353 476 5
20 11 22 70 19 53 -3 65 -7 65 -20z m278 -9 c2 -7 -2 -13 -8 -13 -6 0 -9 -8
-6 -17 3 -10 1 -25 -4 -33 -8 -12 -10 -12 -16 3 -3 9 -4 26 -1 37 3 11 1 20
-4 20 -5 0 -9 4 -9 9 0 13 43 8 48 -6z m112 -445 c0 -19 -2 -20 -10 -8 -13 19
-13 30 0 30 6 0 10 -10 10 -22z"/>
<path d="M515 820 c-3 -5 1 -10 9 -10 9 0 16 5 16 10 0 6 -4 10 -9 10 -6 0
-13 -4 -16 -10z"/>
<path d="M1156 794 c-5 -14 -4 -15 9 -4 17 14 19 20 6 20 -5 0 -12 -7 -15 -16z"/>
<path d="M952 784 c-7 -8 -8 -14 -3 -14 10 0 25 19 20 25 -2 1 -10 -3 -17 -11z"/>
<path d="M600 775 c0 -8 4 -15 10 -15 5 0 7 7 4 15 -4 8 -8 15 -10 15 -2 0 -4
-7 -4 -15z"/>
<path d="M460 770 c-9 -6 -10 -10 -3 -10 6 0 15 5 18 10 8 12 4 12 -15 0z"/>
<path d="M1175 765 c-5 -11 -35 -55 -67 -97 l-58 -78 90 0 c50 0 90 2 90 4 0
2 -7 23 -15 47 -9 24 -19 67 -24 94 -6 40 -10 46 -16 30z m5 -130 c0 -8 -9
-15 -20 -15 -11 0 -20 7 -20 15 0 8 9 15 20 15 11 0 20 -7 20 -15z"/>
<path d="M475 712 c-16 -26 -45 -64 -64 -84 l-33 -38 92 0 c68 0 91 3 88 13
-31 116 -43 157 -48 157 -3 -1 -18 -22 -35 -48z m44 -81 c0 -12 -2 -13 -6 -2
-4 11 -7 11 -14 0 -12 -20 -18 -8 -12 25 6 27 7 28 19 11 8 -10 14 -26 13 -34z
m-49 -12 c0 -6 -4 -7 -10 -4 -5 3 -10 11 -10 16 0 6 5 7 10 4 6 -3 10 -11 10
-16z"/>
<path d="M751 734 c0 -11 3 -14 6 -6 3 7 2 16 -1 19 -3 4 -6 -2 -5 -13z"/>
<path d="M1236 724 c-8 -21 -8 -24 3 -24 12 0 22 28 12 35 -5 3 -12 -2 -15
-11z"/>
<path d="M795 720 c-3 -5 -1 -10 4 -10 6 0 11 5 11 10 0 6 -2 10 -4 10 -3 0
-8 -4 -11 -10z"/>
<path d="M805 690 c-3 -5 1 -10 10 -10 9 0 13 5 10 10 -3 6 -8 10 -10 10 -2 0
-7 -4 -10 -10z"/>
<path d="M780 670 c6 -11 13 -20 16 -20 2 0 0 9 -6 20 -6 11 -13 20 -16 20 -2
0 0 -9 6 -20z"/>
<path d="M1250 671 c0 -5 5 -13 10 -16 6 -3 10 -2 10 4 0 5 -4 13 -10 16 -5 3
-10 2 -10 -4z"/>
<path d="M1272 633 c-19 -53 -21 -63 -12 -63 6 0 10 9 10 21 0 11 5 29 11 41
6 11 9 22 6 24 -2 3 -9 -8 -15 -23z"/>
<path d="M1302 640 c-6 -10 -8 -21 -3 -24 5 -3 11 4 14 16 8 29 4 32 -11 8z"/>
<path d="M610 634 c0 -14 3 -14 15 -4 8 7 15 14 15 16 0 2 -7 4 -15 4 -8 0
-15 -7 -15 -16z"/>
<path d="M786 617 c3 -10 9 -15 12 -12 3 3 0 11 -7 18 -10 9 -11 8 -5 -6z"/>
<path d="M600 580 c0 -5 9 -10 20 -10 11 0 20 5 20 10 0 6 -9 10 -20 10 -11 0
-20 -4 -20 -10z"/>
<path d="M663 565 c-7 -8 -9 -16 -4 -19 5 -3 12 1 15 10 8 22 4 25 -11 9z"/>
<path d="M988 573 c7 -3 16 -2 19 1 4 3 -2 6 -13 5 -11 0 -14 -3 -6 -6z"/>
<path d="M330 560 c0 -5 7 -10 16 -10 8 0 12 5 9 10 -3 6 -10 10 -16 10 -5 0
-9 -4 -9 -10z"/>
<path d="M767 549 c7 -7 15 -10 18 -7 3 3 -2 9 -12 12 -14 6 -15 5 -6 -5z"/>
<path d="M1028 553 c6 -2 18 -2 25 0 6 3 1 5 -13 5 -14 0 -19 -2 -12 -5z"/>
<path d="M1250 550 c0 -5 5 -10 10 -10 6 0 10 5 10 10 0 6 -4 10 -10 10 -5 0
-10 -4 -10 -10z"/>
<path d="M610 540 c0 -5 5 -10 10 -10 6 0 10 5 10 10 0 6 -4 10 -10 10 -5 0
-10 -4 -10 -10z"/>
<path d="M705 530 c-3 -5 -1 -10 4 -10 6 0 11 5 11 10 0 6 -2 10 -4 10 -3 0
-8 -4 -11 -10z"/>
<path d="M890 528 c0 -12 7 -18 23 -17 15 0 17 2 7 6 -8 3 -18 11 -22 17 -5 7
-8 4 -8 -6z"/>
<path d="M943 525 c0 -8 4 -12 9 -9 5 3 6 10 3 15 -9 13 -12 11 -12 -6z"/>
<path d="M1300 509 c0 -5 5 -7 10 -4 6 3 10 8 10 11 0 2 -4 4 -10 4 -5 0 -10
-5 -10 -11z"/>
<path d="M1350 515 c0 -5 5 -17 10 -25 5 -8 10 -10 10 -5 0 6 -5 17 -10 25 -5
8 -10 11 -10 5z"/>
<path d="M766 485 c-19 -28 -19 -47 -2 -94 l12 -34 23 37 c21 34 22 42 12 77
-14 45 -23 48 -45 14z"/>
<path d="M625 490 c-3 -5 -1 -10 4 -10 6 0 11 5 11 10 0 6 -2 10 -4 10 -3 0
-8 -4 -11 -10z"/>
<path d="M847 480 c3 -11 7 -20 9 -20 2 0 4 9 4 20 0 11 -4 20 -9 20 -5 0 -7
-9 -4 -20z"/>
<path d="M240 475 c-7 -9 -11 -17 -9 -20 3 -2 10 5 17 15 14 24 10 26 -8 5z"/>
<path d="M870 476 c0 -6 9 -12 20 -12 11 0 20 3 20 7 0 4 -9 9 -20 12 -12 3
-20 0 -20 -7z"/>
<path d="M917 426 c-4 -10 -7 -25 -6 -34 0 -11 4 -9 10 7 5 13 8 29 6 35 -2 5
-6 2 -10 -8z"/>
<path d="M1379 408 c4 -28 6 -29 9 -9 2 13 0 27 -5 32 -6 6 -7 -3 -4 -23z"/>
<path d="M1321 414 c0 -11 3 -14 6 -6 3 7 2 16 -1 19 -3 4 -6 -2 -5 -13z"/>
<path d="M853 397 c3 -25 21 -26 25 -2 2 15 1 17 -6 6 -8 -11 -11 -11 -16 0
-3 9 -5 7 -3 -4z"/>
<path d="M720 386 c0 -8 4 -17 9 -20 5 -4 7 3 4 14 -6 23 -13 26 -13 6z"/>
<path d="M935 370 c-3 -5 -1 -10 4 -10 6 0 11 5 11 10 0 6 -2 10 -4 10 -3 0
-8 -4 -11 -10z"/>
<path d="M810 339 c0 -5 5 -7 10 -4 6 3 10 8 10 11 0 2 -4 4 -10 4 -5 0 -10
-5 -10 -11z"/>
<path d="M701 330 c0 -8 4 -22 9 -30 12 -18 12 -2 0 25 -6 13 -9 15 -9 5z"/>
<path d="M110 319 c0 -5 5 -7 10 -4 6 3 10 8 10 11 0 2 -4 4 -10 4 -5 0 -10
-5 -10 -11z"/>
<path d="M1388 273 c12 -2 30 -2 40 0 9 3 -1 5 -23 4 -22 0 -30 -2 -17 -4z"/>
<path d="M1725 1779 c-4 -6 -5 -12 -2 -15 2 -3 7 2 10 11 7 17 1 20 -8 4z"/>
<path d="M1535 1711 c-3 -5 -1 -12 5 -16 5 -3 10 1 10 9 0 18 -6 21 -15 7z"/>
<path d="M1653 1685 c-9 -24 1 -27 15 -5 8 13 8 20 2 20 -6 0 -13 -7 -17 -15z"/>
<path d="M1610 1609 c0 -5 5 -7 10 -4 6 3 10 8 10 11 0 2 -4 4 -10 4 -5 0 -10
-5 -10 -11z"/>
<path d="M1575 1590 c-3 -5 -1 -10 4 -10 6 0 11 5 11 10 0 6 -2 10 -4 10 -3 0
-8 -4 -11 -10z"/>
<path d="M1523 1503 c-15 -5 -17 -23 -4 -23 5 0 11 7 15 15 3 8 4 15 3 14 -1
0 -8 -3 -14 -6z"/>
<path d="M1595 1470 c-3 -5 -2 -10 4 -10 5 0 13 5 16 10 3 6 2 10 -4 10 -5 0
-13 -4 -16 -10z"/>
<path d="M1442 1420 c0 -14 2 -19 5 -12 2 6 2 18 0 25 -3 6 -5 1 -5 -13z"/>
<path d="M1310 1389 c0 -5 5 -7 10 -4 6 3 10 8 10 11 0 2 -4 4 -10 4 -5 0 -10
-5 -10 -11z"/>
<path d="M1380 1341 c0 -5 5 -13 10 -16 6 -3 10 -2 10 4 0 5 -4 13 -10 16 -5
3 -10 2 -10 -4z"/>
<path d="M1350 1294 c0 -8 5 -12 10 -9 6 4 8 11 5 16 -9 14 -15 11 -15 -7z"/>
<path d="M1290 1209 c0 -5 5 -7 10 -4 6 3 10 8 10 11 0 2 -4 4 -10 4 -5 0 -10
-5 -10 -11z"/>
<path d="M1265 1190 c-3 -5 -1 -10 4 -10 6 0 11 5 11 10 0 6 -2 10 -4 10 -3 0
-8 -4 -11 -10z"/>
<path d="M1195 1110 c-3 -5 -1 -10 4 -10 6 0 11 5 11 10 0 6 -2 10 -4 10 -3 0
-8 -4 -11 -10z"/>
<path d="M1330 1099 c0 -5 5 -7 10 -4 6 3 10 8 10 11 0 2 -4 4 -10 4 -5 0 -10
-5 -10 -11z"/>
<path d="M1155 1039 c-4 -6 -5 -12 -2 -15 2 -3 7 2 10 11 7 17 1 20 -8 4z"/>
<path d="M1020 1010 c0 -5 5 -10 10 -10 6 0 10 5 10 10 0 6 -4 10 -10 10 -5 0
-10 -4 -10 -10z"/>
<path d="M1102 985 c-11 -12 -10 -15 3 -15 8 0 15 7 15 15 0 18 -2 18 -18 0z"/>
<path d="M401 884 c0 -11 3 -14 6 -6 3 7 2 16 -1 19 -3 4 -6 -2 -5 -13z"/>
<path d="M1340 811 c0 -5 5 -13 10 -16 6 -3 10 -2 10 4 0 5 -4 13 -10 16 -5 3
-10 2 -10 -4z"/>
<path d="M164 585 c-10 -8 -14 -14 -9 -15 15 0 40 18 34 24 -3 3 -14 -1 -25
-9z"/>
<path d="M187 563 c-10 -9 -9 -23 2 -23 5 0 11 7 15 15 5 15 -5 20 -17 8z"/>
<path d="M158 533 c5 -21 7 -23 10 -9 2 10 0 22 -6 28 -6 6 -7 0 -4 -19z"/>
<path d="M1030 460 c-12 -8 -10 -10 8 -10 13 0 20 4 17 10 -7 12 -6 12 -25 0z"/>
<path d="M70 431 c0 -6 4 -13 10 -16 6 -3 7 1 4 9 -7 18 -14 21 -14 7z"/>
<path d="M1486 414 c-4 -14 -5 -28 -3 -31 3 -2 8 8 11 23 4 14 5 28 3 31 -3 2
-8 -8 -11 -23z"/>
<path d="M1511 404 c0 -11 3 -14 6 -6 3 7 2 16 -1 19 -3 4 -6 -2 -5 -13z"/>
<path d="M1500 355 c0 -8 2 -15 4 -15 2 0 6 7 10 15 3 8 1 15 -4 15 -6 0 -10
-7 -10 -15z"/>
<path d="M483 345 c-9 -24 1 -27 15 -5 8 13 8 20 2 20 -6 0 -13 -7 -17 -15z"/>
<path d="M798 203 c7 -3 16 -2 19 1 4 3 -2 6 -13 5 -11 0 -14 -3 -6 -6z"/>
<path d="M0 25 c0 -13 107 -15 900 -15 793 0 900 2 900 15 0 13 -107 15 -900
15 -793 0 -900 -2 -900 -15z"/>
</g>
</svg>
