<?xml version="1.0" standalone="no"?>
<!DOCTYPE svg PUBLIC "-//W3C//DTD SVG 20010904//EN"
 "http://www.w3.org/TR/2001/REC-SVG-20010904/DTD/svg10.dtd">
<svg version="1.0" xmlns="http://www.w3.org/2000/svg"
 width="100.000000pt" height="100.000000pt" viewBox="0 0 100.000000 100.000000"
 preserveAspectRatio="xMidYMid meet">
<metadata>
Created by potrace 1.16, written by Peter Selinger 2001-2019
</metadata>
<g transform="translate(0.000000,100.000000) scale(0.100000,-0.100000)"
fill="#000000" stroke="none">
<path d="M13 985 c-15 -17 -17 -65 -3 -65 6 0 10 8 10 18 0 10 9 24 20 32 11
8 20 18 20 22 0 13 -34 8 -47 -7z"/>
<path d="M940 992 c0 -4 9 -14 20 -22 11 -8 20 -22 20 -32 0 -10 5 -18 10 -18
15 0 12 49 -4 66 -15 15 -46 19 -46 6z"/>
<path d="M850 930 c0 -5 11 -10 25 -10 18 0 25 -5 25 -20 0 -11 -4 -20 -10
-20 -5 0 -10 -7 -10 -15 0 -8 -5 -15 -11 -15 -14 0 -39 -26 -39 -40 0 -7 -13
-25 -30 -40 -16 -15 -30 -36 -30 -47 0 -15 -2 -16 -10 -3 -8 12 -10 11 -10 -5
0 -11 -9 -27 -20 -35 -11 -8 -20 -24 -20 -35 0 -16 -2 -17 -10 -5 -8 12 -10
10 -10 -10 0 -14 -9 -32 -20 -40 -11 -8 -20 -22 -20 -32 0 -10 -5 -18 -11 -18
-5 0 -7 5 -4 10 3 6 1 10 -4 10 -6 0 -11 -7 -11 -16 0 -20 -24 -44 -44 -44
-23 0 -20 33 4 50 11 8 20 24 20 35 0 16 2 17 10 5 8 -12 10 -9 10 13 0 15 5
27 10 27 15 0 60 46 60 61 0 6 14 24 30 39 17 15 30 36 30 47 0 15 2 16 10 3
8 -13 10 -12 10 3 0 11 14 32 30 47 17 15 30 37 30 49 0 21 -1 21 -365 21
l-365 0 0 -325 c0 -210 -4 -325 -10 -325 -5 0 -10 -7 -10 -15 0 -8 -4 -15 -10
-15 -5 0 -10 -12 -10 -26 0 -19 4 -25 14 -21 11 4 13 1 9 -10 -4 -11 -2 -14 5
-9 8 5 12 -3 12 -23 l0 -31 400 0 400 0 0 386 c0 254 3 383 10 379 14 -8 13
18 -2 50 -11 25 -58 37 -58 15z m-60 -57 c0 -5 -12 -21 -26 -38 -14 -16 -38
-46 -53 -65 -14 -19 -34 -44 -43 -54 -10 -11 -23 -32 -30 -47 -7 -15 -18 -25
-25 -22 -7 3 -13 -1 -13 -9 0 -8 -9 -23 -20 -33 -11 -10 -20 -24 -20 -32 0 -7
-3 -13 -8 -13 -4 0 -18 -18 -32 -40 l-24 -39 -21 19 c-18 16 -36 20 -101 20
-79 0 -79 0 -111 -37 -18 -21 -33 -42 -33 -47 0 -5 -8 -16 -18 -25 -9 -9 -23
-28 -30 -42 -8 -14 -25 -39 -38 -54 l-24 -28 0 296 0 297 335 0 c184 0 335 -3
335 -7z m90 -408 l0 -345 -380 0 c-331 0 -380 2 -380 15 0 9 9 15 21 15 21 0
49 21 49 37 0 5 15 26 34 46 22 25 42 37 60 37 31 0 33 -10 6 -30 -14 -10 -20
-26 -20 -52 l0 -38 155 0 155 0 0 40 c0 22 -4 40 -10 40 -5 0 -10 9 -10 20 0
16 7 20 31 20 37 0 58 -23 59 -63 0 -43 21 -57 84 -57 l56 0 0 39 c0 22 -4 43
-10 46 -5 3 -10 17 -10 30 0 13 -4 27 -10 30 -5 3 -10 19 -10 35 0 16 -4 32
-10 35 -5 3 -10 22 -10 41 0 19 -4 34 -10 34 -5 0 -10 13 -10 28 0 20 -7 33
-25 42 -24 13 -24 14 -8 42 10 15 21 28 25 28 4 0 8 7 8 15 0 8 4 15 8 15 4 0
16 13 25 30 10 16 23 35 30 42 7 7 24 29 37 48 23 32 61 78 68 79 1 1 2 -154
2 -344z m-420 -24 c0 -33 3 -39 25 -43 13 -3 22 -1 19 3 -3 5 -13 9 -22 10
-14 0 -14 2 -2 6 22 9 40 30 40 47 0 11 9 16 30 16 38 0 38 -5 -1 -41 -21 -19
-30 -36 -26 -48 3 -14 1 -18 -9 -14 -10 4 -14 -3 -14 -21 0 -30 5 -32 27 -11
9 9 13 26 11 40 -3 13 -1 22 3 19 12 -7 59 41 59 61 0 11 10 15 35 15 30 0 35
-3 35 -22 0 -19 2 -20 10 -8 7 11 10 3 10 -30 0 -33 3 -41 10 -30 7 11 10 -3
10 -45 0 -42 3 -56 10 -45 7 11 10 3 10 -30 0 -33 3 -41 10 -30 7 11 10 7 10
-17 0 -30 -3 -33 -30 -33 -27 0 -30 3 -30 33 0 24 -3 28 -10 17 -7 -11 -10 -4
-10 28 l0 42 -75 0 -75 0 0 -42 c0 -32 3 -39 10 -28 7 11 10 7 10 -17 0 -30
-3 -33 -29 -33 -16 0 -32 6 -35 13 -5 10 -7 10 -12 0 -7 -15 -64 -18 -64 -3 0
6 -11 10 -25 10 -14 0 -25 -4 -25 -10 0 -5 -8 -10 -17 -11 -15 0 -15 -2 2 -9
17 -7 15 -9 -12 -9 -28 -1 -33 3 -32 22 0 21 1 21 9 2 6 -14 9 -15 9 -5 1 9
10 22 21 30 14 10 20 26 20 52 l0 38 -55 0 c-46 0 -60 -4 -80 -25 -14 -13 -25
-32 -25 -42 0 -15 -2 -16 -10 -3 -8 13 -10 12 -10 -3 0 -10 -6 -25 -14 -33
-20 -19 -56 -18 -56 2 0 15 23 44 35 44 13 0 35 29 35 47 0 15 2 16 10 3 8
-12 10 -11 10 5 0 11 9 27 20 35 11 8 20 20 20 27 0 7 5 13 10 13 6 0 10 8 10
18 0 10 9 24 20 32 11 8 20 22 20 32 0 16 10 18 85 18 l85 0 0 -39z m97 -263
c-3 -7 -5 -2 -5 12 0 14 2 19 5 13 2 -7 2 -19 0 -25z m213 12 c0 -17 -6 -20
-42 -18 l-43 1 38 4 c24 3 37 9 37 19 0 8 2 14 5 14 3 0 5 -9 5 -20z m-337
-17 c-7 -2 -19 -2 -25 0 -7 3 -2 5 12 5 14 0 19 -2 13 -5z m95 0 c-10 -2 -26
-2 -35 0 -10 3 -2 5 17 5 19 0 27 -2 18 -5z"/>
<path d="M351 454 c0 -11 3 -14 6 -6 3 7 2 16 -1 19 -3 4 -6 -2 -5 -13z"/>
<path d="M377 463 c-4 -3 -7 -31 -6 -62 0 -39 3 -50 8 -36 5 11 7 23 4 28 -2
4 1 7 6 7 6 0 11 -20 11 -45 0 -25 5 -45 11 -45 5 0 7 4 4 10 -3 6 1 10 9 10
11 0 16 9 15 28 0 24 -1 25 -9 7 -6 -15 -9 -7 -9 30 -1 36 -4 46 -11 35 -8
-12 -10 -9 -10 13 0 26 -9 34 -23 20z"/>
<path d="M290 400 c0 -11 -4 -20 -10 -20 -5 0 -10 -9 -10 -21 0 -11 -4 -17
-10 -14 -5 3 -10 1 -10 -4 0 -6 18 -11 40 -11 l40 0 0 45 c0 38 -3 45 -20 45
-13 0 -20 -7 -20 -20z"/>
<path d="M600 400 c0 -11 -4 -20 -10 -20 -5 0 -10 -7 -10 -15 0 -8 -4 -15 -10
-15 -5 0 -10 -4 -10 -10 0 -5 20 -10 45 -10 l45 0 -1 48 -1 47 -13 -45 -13
-45 -1 43 c-1 41 -21 62 -21 22z"/>
<path d="M420 270 c0 -13 7 -20 20 -20 13 0 20 7 20 20 0 13 -7 20 -20 20 -13
0 -20 -7 -20 -20z"/>
<path d="M457 229 c7 -7 15 -10 18 -7 3 3 -2 9 -12 12 -14 6 -15 5 -6 -5z"/>
<path d="M836 895 c18 -28 26 -33 18 -10 -4 11 1 15 17 16 l24 1 -25 8 c-46
15 -52 12 -34 -15z"/>
<path d="M635 610 c-3 -5 -1 -10 4 -10 6 0 11 5 11 10 0 6 -2 10 -4 10 -3 0
-8 -4 -11 -10z"/>
<path d="M0 54 c0 -29 21 -54 44 -54 22 0 20 13 -4 30 -11 8 -20 22 -20 32 0
10 -4 18 -10 18 -5 0 -10 -12 -10 -26z"/>
<path d="M980 62 c0 -10 -9 -24 -20 -32 -11 -8 -20 -18 -20 -22 0 -13 31 -9
46 6 16 17 19 66 4 66 -5 0 -10 -8 -10 -18z"/>
</g>
</svg>
