<?xml version="1.0" standalone="no"?>
<!DOCTYPE svg PUBLIC "-//W3C//DTD SVG 20010904//EN"
 "http://www.w3.org/TR/2001/REC-SVG-20010904/DTD/svg10.dtd">
<svg version="1.0" xmlns="http://www.w3.org/2000/svg"
 width="200.000000pt" height="200.000000pt" viewBox="0 0 200.000000 200.000000"
 preserveAspectRatio="xMidYMid meet">
<metadata>
Created by potrace 1.16, written by Peter Selinger 2001-2019
</metadata>
<g transform="translate(0.000000,200.000000) scale(0.100000,-0.100000)"
fill="#000000" stroke="none">
<path d="M1481 1520 c-267 -345 -371 -487 -371 -505 0 -26 0 -26 76 -23 l77 3
368 479 c217 281 369 487 369 499 0 19 -2 19 -14 7 -7 -8 -166 -213 -352 -455
-186 -242 -351 -457 -367 -477 -29 -36 -33 -38 -91 -38 l-60 0 26 28 c13 15
110 137 213 272 104 135 209 272 235 305 26 33 86 112 135 175 48 63 103 133
122 156 18 23 33 44 33 48 0 35 -81 -62 -399 -474z"/>
<path d="M471 931 c-22 -43 -130 -189 -336 -456 -88 -114 -135 -183 -133 -196
2 -14 24 7 84 84 161 202 368 481 394 530 l27 49 76 1 76 2 7 -40 c3 -22 26
-104 50 -182 24 -78 44 -148 44 -157 0 -25 14 -19 40 16 l23 32 -52 155 c-29
86 -54 161 -57 166 -2 6 28 9 83 8 l86 -2 25 -100 c14 -56 28 -101 31 -101 9
1 119 143 135 175 13 24 19 26 85 28 39 2 71 -1 71 -5 0 -4 -4 -8 -10 -8 -5 0
-61 -65 -124 -144 l-114 -144 12 -42 12 -42 123 162 c67 90 129 177 137 194
15 31 16 31 90 31 65 0 74 -2 74 -18 0 -42 184 -634 217 -699 l14 -28 -96 0
-95 0 0 28 c0 15 -18 85 -40 156 -22 70 -40 129 -40 129 0 1 -68 1 -151 0
l-151 -1 -23 -33 -22 -33 33 -100 c19 -54 41 -110 49 -123 l15 -23 -94 0 -94
0 -7 51 c-7 47 -8 49 -25 34 -9 -8 -26 -31 -36 -50 -19 -35 -19 -35 -90 -35
l-72 0 -7 38 c-11 66 -19 68 -55 13 l-33 -51 -71 0 -70 0 31 27 c16 16 54 58
83 96 55 72 54 64 30 157 l-9 35 -151 -2 -151 -1 -116 -154 c-116 -153 -116
-153 -160 -156 -29 -2 -43 -8 -43 -18 0 -10 12 -14 45 -14 55 0 55 -1 193 183
l104 137 128 0 127 0 13 -44 12 -44 -55 -69 c-30 -37 -64 -77 -76 -87 -12 -11
-21 -31 -21 -48 l0 -28 73 0 c95 0 110 5 127 43 l14 32 7 -29 c11 -39 24 -46
94 -46 79 0 100 7 115 36 14 26 30 23 30 -6 0 -25 39 -32 145 -28 75 3 80 4
83 26 2 13 -3 33 -11 45 -8 12 -27 61 -42 109 -27 83 -28 87 -12 112 17 26 19
26 147 26 l129 0 26 -88 c14 -48 33 -107 41 -131 7 -25 14 -55 14 -67 0 -30
16 -34 131 -34 l99 0 0 30 c0 17 -6 43 -14 58 -29 58 -187 567 -211 680 l-7
32 -93 0 c-65 0 -95 -4 -98 -12 -4 -10 -6 -10 -6 0 -1 9 -27 12 -95 12 -89 0
-94 -1 -100 -22 -7 -27 -101 -150 -108 -142 -3 3 -14 41 -24 84 l-19 80 -207
0 -208 0 -19 -39z m315 -316 c-3 -10 -87 244 -85 261 0 5 20 -49 45 -121 24
-71 42 -134 40 -140z m344 152 c0 -2 -10 -12 -22 -23 l-23 -19 19 23 c18 21
26 27 26 19z m-40 -51 c0 -2 -8 -10 -17 -17 -16 -13 -17 -12 -4 4 13 16 21 21
21 13z m-47 -60 c-10 -13 -20 -22 -22 -20 -4 4 29 44 36 44 2 0 -4 -11 -14
-24z"/>
<path d="M523 777 c-6 -12 -38 -57 -72 -100 l-61 -77 101 0 c82 0 100 3 96 14
-21 54 -47 160 -43 172 9 24 -10 16 -21 -9z m23 -144 c-2 -3 -23 -3 -45 -1
l-42 3 33 44 32 45 13 -44 c7 -24 11 -45 9 -47z"/>
<path d="M1291 780 c-21 -38 -115 -160 -123 -160 -5 0 -8 -4 -8 -10 0 -6 40
-10 101 -10 77 0 99 3 95 13 -11 28 -45 144 -48 167 l-3 25 -14 -25z m17 -110
l10 -40 -50 0 -49 0 32 40 c18 22 36 40 39 40 4 0 12 -18 18 -40z"/>
<path d="M830 476 c-20 -34 -21 -40 -9 -86 7 -28 15 -50 18 -50 3 0 16 16 29
35 21 32 22 40 11 78 -17 60 -24 63 -49 23z m30 -57 c0 -5 -4 -9 -10 -9 -5 0
-10 7 -10 16 0 8 5 12 10 9 6 -3 10 -10 10 -16z"/>
</g>
</svg>
