<?xml version="1.0" standalone="no"?>
<!DOCTYPE svg PUBLIC "-//W3C//DTD SVG 20010904//EN"
 "http://www.w3.org/TR/2001/REC-SVG-20010904/DTD/svg10.dtd">
<svg version="1.0" xmlns="http://www.w3.org/2000/svg"
 width="100.000000pt" height="100.000000pt" viewBox="0 0 100.000000 100.000000"
 preserveAspectRatio="xMidYMid meet">
<metadata>
Created by potrace 1.16, written by Peter Selinger 2001-2019
</metadata>
<g transform="translate(0.000000,100.000000) scale(0.100000,-0.100000)"
fill="#000000" stroke="none">
<path d="M230 877 c0 -12 -9 -29 -20 -37 -11 -8 -20 -22 -20 -32 0 -10 -4 -18
-10 -18 -5 0 -10 -13 -10 -28 0 -16 -8 -34 -20 -42 -11 -8 -20 -22 -20 -32 0
-10 -7 -18 -15 -18 -9 0 -15 -9 -15 -25 0 -14 -4 -25 -10 -25 -5 0 -10 -8 -10
-18 0 -10 -9 -24 -20 -32 -12 -8 -20 -26 -20 -42 0 -15 -4 -28 -10 -28 -5 0
-10 -9 -10 -20 0 -11 -4 -20 -10 -20 -5 0 -10 -9 -10 -20 0 -11 3 -20 6 -20
11 0 34 29 34 44 0 9 5 16 10 16 6 0 10 13 10 28 0 16 8 34 20 42 11 8 20 22
20 32 0 10 5 18 10 18 6 0 10 11 10 25 0 16 6 25 15 25 8 0 15 8 15 18 0 10 9
24 20 32 12 8 20 26 20 42 0 15 5 28 10 28 6 0 10 8 10 18 0 10 9 24 20 32 11
8 20 25 20 37 0 22 4 23 75 23 60 0 75 -3 75 -15 0 -8 5 -15 10 -15 6 0 10 -9
10 -20 0 -11 5 -20 10 -20 6 0 10 -12 10 -26 0 -16 12 -37 30 -54 17 -16 30
-38 30 -52 0 -13 9 -30 20 -38 11 -8 20 -25 20 -37 0 -13 5 -23 10 -23 6 0 10
-13 10 -28 0 -16 8 -34 20 -42 11 -8 20 -22 20 -32 0 -10 5 -18 10 -18 6 0 10
-9 10 -20 0 -11 7 -20 15 -20 8 0 15 -9 15 -20 0 -11 5 -20 10 -20 6 0 10 -7
10 -15 0 -8 5 -15 10 -15 6 0 10 -13 10 -30 0 -36 4 -37 35 -5 16 15 25 36 25
55 0 16 5 30 10 30 6 0 10 8 10 18 0 10 9 24 20 32 11 8 20 25 20 38 0 23 40
72 60 72 5 0 10 16 10 35 0 19 5 35 10 35 6 0 10 9 10 20 0 17 7 20 50 20 28
0 50 5 50 10 0 6 -27 10 -60 10 -53 0 -60 -2 -60 -20 0 -11 -4 -20 -10 -20 -5
0 -10 -16 -10 -35 0 -19 -5 -35 -10 -35 -20 0 -60 -49 -60 -72 0 -13 -9 -30
-20 -38 -11 -8 -20 -22 -20 -32 0 -10 -4 -18 -10 -18 -5 0 -10 -16 -10 -35 0
-19 -3 -35 -6 -35 -10 0 -34 28 -34 39 0 6 -4 11 -10 11 -5 0 -10 9 -10 20 0
11 -7 20 -15 20 -8 0 -15 9 -15 20 0 11 -4 20 -10 20 -5 0 -10 8 -10 18 0 10
-9 24 -20 32 -12 8 -20 26 -20 42 0 15 -4 28 -10 28 -5 0 -10 10 -10 23 0 12
-9 29 -20 37 -11 8 -20 25 -20 38 0 14 -13 36 -30 52 -18 17 -30 38 -30 54 0
14 -4 26 -10 26 -5 0 -10 9 -10 20 0 11 -4 20 -10 20 -5 0 -10 7 -10 15 0 12
-17 15 -95 15 -92 0 -95 -1 -95 -23z"/>
<path d="M310 690 c0 -11 -4 -20 -10 -20 -5 0 -10 -9 -10 -20 0 -11 -4 -20
-10 -20 -5 0 -10 -7 -10 -15 0 -8 -4 -15 -10 -15 -5 0 -10 -8 -10 -18 0 -10
-9 -24 -20 -32 -11 -8 -20 -24 -20 -35 0 -16 -2 -17 -10 -5 -8 12 -10 11 -10
-7 0 -13 -4 -23 -10 -23 -5 0 -10 -16 -10 -36 0 -35 -18 -64 -39 -64 -6 0 -11
-11 -11 -25 0 -24 -3 -25 -60 -25 -33 0 -60 -4 -60 -10 0 -6 30 -10 70 -10 68
0 70 1 70 25 0 14 5 25 11 25 15 0 39 26 39 44 0 8 5 18 10 21 6 3 10 15 10
26 0 11 9 29 20 41 11 12 20 28 20 35 0 7 5 13 10 13 6 0 10 9 10 20 0 11 5
20 10 20 6 0 10 7 10 15 0 8 5 15 10 15 6 0 10 9 10 20 0 11 3 20 6 20 13 0
34 -30 34 -49 0 -12 6 -21 15 -21 8 0 15 -7 15 -16 0 -9 8 -24 18 -33 20 -19
62 -97 62 -117 0 -8 5 -14 10 -14 6 0 10 -15 10 -33 0 -21 7 -38 20 -47 11 -8
20 -22 20 -32 0 -10 5 -18 10 -18 6 0 10 -9 10 -20 0 -11 5 -20 10 -20 6 0 10
-8 10 -18 0 -10 9 -24 20 -32 13 -9 20 -26 20 -47 l0 -33 95 0 c70 0 95 3 95
13 0 7 9 19 20 27 11 8 20 26 20 40 0 14 9 32 20 40 11 8 20 22 20 32 0 10 7
18 15 18 10 0 15 10 15 30 0 17 5 30 10 30 6 0 10 7 10 15 0 8 5 15 10 15 6 0
10 9 10 20 0 11 5 20 10 20 6 0 10 9 10 20 0 11 5 20 10 20 6 0 10 9 10 20 0
11 5 20 10 20 6 0 10 9 10 20 0 11 -3 20 -6 20 -11 0 -34 -29 -34 -44 0 -9 -4
-16 -10 -16 -5 0 -10 -9 -10 -20 0 -11 -4 -20 -10 -20 -5 0 -10 -9 -10 -20 0
-11 -4 -20 -10 -20 -5 0 -10 -7 -10 -15 0 -8 -4 -15 -10 -15 -5 0 -10 -13 -10
-30 0 -20 -5 -30 -15 -30 -8 0 -15 -8 -15 -18 0 -10 -9 -24 -20 -32 -11 -8
-20 -26 -20 -40 0 -14 -9 -32 -20 -40 -11 -8 -20 -20 -20 -27 0 -9 -21 -13
-75 -13 l-75 0 0 33 c0 21 -7 38 -20 47 -11 8 -20 22 -20 32 0 10 -4 18 -10
18 -5 0 -10 9 -10 20 0 11 -4 20 -10 20 -5 0 -10 8 -10 18 0 10 -9 24 -20 32
-13 9 -20 26 -20 47 0 18 -4 33 -10 33 -5 0 -10 19 -10 43 0 31 -3 38 -10 27
-8 -12 -10 -11 -10 8 0 12 -4 22 -10 22 -5 0 -10 9 -10 20 0 13 -7 20 -20 20
-13 0 -20 7 -20 20 0 11 -7 20 -15 20 -9 0 -15 9 -15 25 0 14 -4 25 -10 25 -5
0 -10 7 -10 16 0 15 -23 44 -34 44 -3 0 -6 -9 -6 -20z"/>
<path d="M250 660 c0 -5 5 -10 10 -10 6 0 10 5 10 10 0 6 -4 10 -10 10 -5 0
-10 -4 -10 -10z"/>
<path d="M141 614 c0 -11 3 -14 6 -6 3 7 2 16 -1 19 -3 4 -6 -2 -5 -13z"/>
<path d="M500 600 c0 -5 5 -10 10 -10 6 0 10 5 10 10 0 6 -4 10 -10 10 -5 0
-10 -4 -10 -10z"/>
<path d="M120 569 c0 -5 5 -7 10 -4 6 3 10 8 10 11 0 2 -4 4 -10 4 -5 0 -10
-5 -10 -11z"/>
<path d="M80 510 c0 -5 5 -10 10 -10 6 0 10 5 10 10 0 6 -4 10 -10 10 -5 0
-10 -4 -10 -10z"/>
<path d="M775 200 c-3 -5 -1 -10 4 -10 6 0 11 5 11 10 0 6 -2 10 -4 10 -3 0
-8 -4 -11 -10z"/>
</g>
</svg>
