<?xml version="1.0" standalone="no"?>
<!DOCTYPE svg PUBLIC "-//W3C//DTD SVG 20010904//EN"
 "http://www.w3.org/TR/2001/REC-SVG-20010904/DTD/svg10.dtd">
<svg version="1.0" xmlns="http://www.w3.org/2000/svg"
 width="100.000000pt" height="100.000000pt" viewBox="0 0 100.000000 100.000000"
 preserveAspectRatio="xMidYMid meet">
<metadata>
Created by potrace 1.16, written by Peter Selinger 2001-2019
</metadata>
<g transform="translate(0.000000,100.000000) scale(0.100000,-0.100000)"
fill="#000000" stroke="none">
<path d="M28 993 c-10 -2 -18 -8 -18 -13 0 -5 -3 -15 -6 -24 -4 -11 -1 -16 10
-16 9 0 16 -7 16 -15 0 -8 -6 -15 -14 -15 -9 0 -13 -11 -12 -35 1 -37 20 -47
44 -23 9 9 12 -58 12 -305 0 -205 -4 -317 -10 -317 -5 0 -10 5 -10 10 0 6 -8
10 -18 10 -11 0 -18 -7 -18 -20 0 -18 5 -20 30 -14 27 6 28 5 22 -22 -6 -24
-5 -26 8 -15 14 12 16 59 16 372 l0 359 -25 16 c-28 18 -33 44 -10 44 8 0 15
-7 15 -15 0 -8 7 -15 14 -15 11 0 16 -15 18 -52 4 -48 5 -50 12 -22 7 27 66
78 66 57 0 -4 1 -168 3 -363 l2 -354 37 -4 c20 -2 39 2 43 7 3 6 -2 11 -13 11
-17 0 -19 6 -14 78 2 42 9 85 14 95 11 21 38 23 38 2 0 -8 -7 -15 -15 -15 -12
0 -15 -14 -15 -65 0 -51 3 -65 15 -65 8 0 15 -7 15 -15 0 -12 19 -15 110 -15
91 0 110 3 110 15 0 8 7 15 15 15 10 0 15 10 15 30 l0 30 -95 0 c-78 0 -95 3
-95 15 0 10 -10 15 -30 15 -23 0 -30 4 -30 20 0 11 7 20 15 20 8 0 15 -4 15
-10 0 -5 7 -10 15 -10 8 0 15 5 15 10 0 6 7 10 16 10 11 0 14 -6 9 -20 -5 -16
-2 -20 17 -21 13 0 44 -1 71 -2 l47 -2 0 57 c0 43 -3 56 -13 52 -9 -3 -12 -16
-9 -34 7 -49 -1 -57 -50 -50 -26 3 -42 11 -40 18 1 7 -5 15 -13 18 -8 4 -15
13 -15 21 0 9 -6 13 -15 9 -11 -4 -15 1 -15 19 0 13 -4 27 -10 30 -6 3 -10 -1
-10 -10 0 -9 -3 -14 -7 -12 -5 3 -6 97 -4 209 2 111 7 192 10 178 l7 -25 9 25
c5 14 8 31 7 38 -2 6 3 12 11 12 18 0 59 44 50 54 -5 4 -1 7 7 6 33 -5 70 1
70 10 0 6 -12 10 -26 10 -19 0 -25 4 -20 15 3 8 1 15 -4 15 -6 0 -10 -7 -10
-15 0 -18 -37 -20 -43 -2 -2 6 -2 0 0 -15 3 -21 0 -28 -11 -28 -11 0 -16 9
-16 30 0 17 -4 30 -10 30 -5 0 -10 -9 -10 -20 0 -14 -6 -20 -22 -19 -17 1 -19
2 -5 6 9 2 17 11 17 20 0 13 -3 13 -15 3 -11 -9 -15 -9 -15 -1 0 7 -5 9 -11 6
-6 -4 -8 -13 -5 -20 3 -9 -10 -11 -55 -8 -39 3 -59 1 -59 -6 0 -6 8 -11 18
-11 23 0 48 -17 39 -27 -5 -4 -12 -2 -16 6 -5 7 -27 13 -55 13 -33 0 -46 4
-46 14 0 8 9 14 20 14 11 0 20 7 20 15 0 8 -9 15 -20 15 -11 0 -20 -7 -20 -15
0 -8 -7 -15 -15 -15 -8 0 -15 7 -15 15 0 15 -2 16 -32 8z m212 -68 c0 -8 -4
-15 -10 -15 -5 0 -10 -9 -10 -20 0 -11 7 -20 15 -20 10 0 15 11 15 35 0 35 0
35 45 35 33 0 45 -4 45 -15 0 -17 -14 -19 -40 -5 -15 8 -20 6 -25 -11 -4 -11
-4 -23 -1 -26 3 -4 6 1 6 10 0 10 7 17 15 17 8 0 15 -9 15 -20 0 -13 -7 -20
-19 -20 -11 0 -22 -4 -25 -9 -3 -5 -15 -7 -26 -4 -20 5 -20 0 -20 -286 0 -208
-3 -291 -11 -291 -8 0 -8 -5 1 -15 10 -12 9 -15 -4 -15 -15 0 -16 30 -16 326
1 291 3 327 18 344 21 23 32 25 32 5z m-110 -5 c0 -5 -5 -10 -11 -10 -5 0 -7
5 -4 10 3 6 8 10 11 10 2 0 4 -4 4 -10z m240 0 c0 -5 -5 -10 -11 -10 -5 0 -7
5 -4 10 3 6 8 10 11 10 2 0 4 -4 4 -10z m-310 -30 c0 -11 -7 -20 -15 -20 -8 0
-15 9 -15 20 0 11 7 20 15 20 8 0 15 -9 15 -20z m220 -65 c0 -8 -7 -15 -15
-15 -8 0 -15 7 -15 15 0 8 7 15 15 15 8 0 15 -7 15 -15z m0 -170 c0 -122 -2
-145 -15 -145 -13 0 -15 23 -15 145 0 122 2 145 15 145 13 0 15 -23 15 -145z
m0 -170 c0 -8 -7 -15 -15 -15 -8 0 -15 7 -15 15 0 8 7 15 15 15 8 0 15 -7 15
-15z m1 -45 c19 0 29 -5 29 -15 0 -8 7 -15 15 -15 8 0 15 -7 15 -15 0 -8 -7
-15 -15 -15 -8 0 -15 6 -15 14 0 8 -12 17 -27 21 -28 7 -43 21 -42 40 0 6 3 4
6 -2 2 -7 18 -13 34 -13z m39 -135 c0 -12 17 -15 95 -15 57 0 95 -4 95 -10 0
-5 -7 -10 -15 -10 -8 0 -15 -7 -15 -15 0 -12 -17 -15 -90 -15 -73 0 -90 3 -90
15 0 8 -7 15 -15 15 -9 0 -15 9 -15 25 0 20 5 25 25 25 16 0 25 -6 25 -15z"/>
<path d="M190 989 c0 -5 5 -7 10 -4 6 3 10 8 10 11 0 2 -4 4 -10 4 -5 0 -10
-5 -10 -11z"/>
<path d="M796 985 c4 -10 0 -15 -15 -15 -12 0 -21 -4 -21 -10 0 -5 18 -10 39
-10 22 0 43 5 46 10 3 6 -3 10 -14 10 -12 0 -21 7 -21 15 0 8 -4 15 -10 15 -5
0 -7 -7 -4 -15z"/>
<path d="M870 986 c0 -9 8 -16 20 -16 11 0 20 -7 20 -15 0 -10 10 -15 30 -15
28 0 30 -3 30 -35 0 -24 -5 -35 -15 -35 -8 0 -15 -7 -15 -15 0 -8 7 -15 15
-15 8 0 15 7 15 15 0 8 7 15 16 15 11 0 14 5 10 16 -3 9 -6 29 -6 45 0 26 -4
29 -30 29 -20 0 -30 5 -30 15 0 8 -6 15 -14 15 -8 0 -21 3 -30 6 -11 4 -16 1
-16 -10z"/>
<path d="M843 943 c-18 -2 -33 -9 -33 -15 0 -6 9 -8 19 -5 13 3 21 -1 24 -14
3 -11 11 -18 18 -17 8 2 15 -7 17 -19 2 -12 10 -27 18 -33 8 -7 14 -22 14 -34
0 -11 5 -28 10 -36 7 -11 10 -6 10 21 0 22 -6 39 -13 42 -21 8 -20 75 1 81 9
2 0 2 -20 -1 -30 -4 -38 -2 -38 10 0 8 6 18 13 20 13 6 8 6 -40 0z"/>
<path d="M146 868 c-10 -39 -7 -592 4 -608 6 -10 10 96 10 308 0 177 -2 322
-4 322 -2 0 -6 -10 -10 -22z"/>
<path d="M578 873 c34 -2 88 -2 120 0 31 2 3 3 -63 3 -66 0 -92 -1 -57 -3z"/>
<path d="M437 853 c-13 -13 -7 -20 16 -17 12 1 30 3 40 3 9 1 17 6 17 11 0 11
-63 14 -73 3z"/>
<path d="M705 851 c-6 -10 28 -16 63 -12 6 1 12 -5 12 -14 0 -8 4 -15 10 -15
5 0 8 10 6 23 -2 18 -10 23 -44 25 -22 2 -43 -2 -47 -7z"/>
<path d="M530 825 c0 -8 -7 -15 -15 -15 -8 0 -15 -7 -15 -15 0 -8 -7 -15 -15
-15 -8 0 -15 7 -15 15 0 8 -7 15 -15 15 -8 0 -15 -7 -15 -15 0 -8 7 -15 15
-15 8 0 15 -7 15 -15 0 -12 15 -15 75 -15 60 0 75 -3 75 -15 0 -12 -13 -15
-60 -15 l-60 0 0 -60 c0 -49 -3 -58 -15 -54 -10 4 -15 20 -15 47 0 52 -6 45
-12 -15 l-6 -48 54 0 c30 0 54 -4 54 -10 0 -5 -6 -7 -14 -4 -8 3 -17 1 -21 -5
-3 -7 2 -11 14 -11 12 0 21 -7 21 -15 0 -8 7 -15 15 -15 10 0 15 -10 15 -30 0
-20 -5 -30 -15 -30 -12 0 -15 -16 -15 -80 0 -64 3 -80 15 -80 10 0 15 -10 15
-30 0 -21 -5 -30 -16 -30 -12 0 -14 3 -6 13 7 8 5 16 -6 26 -14 13 -14 10 -9
-26 6 -38 5 -42 -15 -46 -23 -4 -23 -4 2 -15 20 -8 -14 -11 -155 -12 -122 0
-175 -3 -165 -10 19 -13 358 -12 366 1 3 5 0 9 -7 9 -7 0 -9 3 -5 7 4 5 13 8
19 8 15 0 22 84 8 98 -14 14 -14 164 0 172 17 11 7 100 -11 100 -8 0 -15 7
-15 15 0 8 -6 16 -12 16 -7 1 -16 3 -20 4 -5 1 -11 2 -15 1 -5 0 -8 16 -7 37
0 20 3 32 5 26 3 -8 20 -10 46 -6 30 4 39 2 34 -6 -4 -8 3 -16 18 -22 14 -5
26 -14 26 -20 0 -6 5 -8 12 -4 7 5 9 0 6 -14 -3 -12 0 -29 8 -39 12 -16 13
-14 14 20 0 26 4 37 15 37 8 0 15 -7 15 -15 0 -8 -4 -15 -10 -15 -6 0 -10 -73
-10 -200 0 -127 4 -200 10 -200 6 0 10 73 10 200 0 178 2 200 16 200 11 0 15
-6 11 -20 -6 -22 7 -35 24 -24 8 4 7 9 -2 15 -11 7 -11 9 2 9 11 0 19 -12 23
-35 9 -45 6 -315 -3 -315 -4 0 -12 5 -18 11 -16 16 -32 3 -26 -20 3 -13 -2
-20 -19 -24 -36 -10 -38 -9 -38 26 0 24 -3 28 -10 17 -5 -8 -10 -25 -10 -38 0
-13 -4 -21 -9 -17 -6 3 -13 -1 -18 -8 -4 -7 -16 -16 -26 -20 -9 -4 -16 -12
-15 -18 2 -6 -13 -17 -32 -24 l-35 -13 35 -4 c19 -3 -64 -5 -185 -5 -121 0
-200 3 -175 5 l45 5 -40 12 c-22 6 -40 18 -40 26 0 8 -7 14 -15 14 -8 0 -14 8
-12 17 1 9 -2 19 -8 23 -6 3 -10 -3 -10 -16 0 -19 -4 -21 -35 -15 -28 6 -35 4
-35 -9 0 -8 -7 -15 -15 -15 -10 0 -15 10 -15 30 0 21 -5 30 -16 30 -11 0 -14
-5 -10 -16 3 -9 6 -27 6 -40 0 -15 6 -24 15 -24 8 0 15 -7 15 -15 0 -8 -9 -15
-20 -15 -11 0 -20 -4 -20 -10 0 -5 20 -10 45 -10 33 0 45 4 45 15 0 8 -7 15
-15 15 -8 0 -15 9 -15 20 0 16 7 20 35 20 28 0 35 -4 35 -20 0 -11 -4 -20 -10
-20 -5 0 -10 -9 -10 -20 0 -11 5 -20 10 -20 6 0 10 9 10 20 0 11 7 20 15 20 8
0 15 -7 15 -15 0 -13 31 -15 218 -15 119 0 234 -3 254 -6 31 -5 39 -3 45 12 4
10 2 19 -5 22 -17 5 -15 42 3 42 8 0 15 -6 15 -14 0 -9 7 -12 20 -9 11 3 20 9
20 14 0 5 -9 9 -20 9 -11 0 -20 7 -20 15 0 10 10 15 30 15 20 0 30 -5 30 -15
0 -8 7 -15 15 -15 8 0 15 7 15 15 0 8 7 15 15 15 8 0 15 7 15 15 0 8 -7 15
-15 15 -8 0 -15 -7 -15 -15 0 -8 -7 -15 -15 -15 -8 0 -15 7 -15 15 0 8 5 15
11 15 6 0 9 7 5 15 -4 12 0 14 20 9 l24 -6 0 286 c-1 242 -3 286 -16 286 -11
0 -14 -19 -14 -95 0 -78 -3 -95 -15 -95 -8 0 -15 9 -15 20 0 16 -7 20 -30 20
-20 0 -30 5 -30 15 0 8 -7 15 -15 15 -8 0 -15 7 -15 15 0 18 11 19 29 3 11
-11 13 -10 9 2 -4 12 -23 15 -99 14 -52 -1 -71 0 -44 3 28 2 54 8 60 14 5 5
31 9 57 9 47 0 48 -1 48 -30 0 -20 5 -30 15 -30 12 0 15 15 15 75 l0 75 -30 0
c-20 0 -30 5 -30 15 0 12 -16 15 -80 15 -64 0 -80 -3 -80 -15z m140 -20 c0
-10 10 -15 30 -15 25 0 30 -4 30 -25 0 -23 -4 -25 -45 -25 -33 0 -45 4 -45 15
0 12 -13 15 -60 15 -33 0 -60 4 -60 10 0 6 7 10 15 10 8 0 15 7 15 15 0 12 13
15 60 15 47 0 60 -3 60 -15z m-20 -141 c0 -2 -7 -4 -15 -4 -8 0 -15 4 -15 10
0 5 7 7 15 4 8 -4 15 -8 15 -10z m25 -24 c3 -5 1 -10 -4 -10 -6 0 -11 5 -11
10 0 6 2 10 4 10 3 0 8 -4 11 -10z m-85 -90 c0 -5 -2 -10 -4 -10 -3 0 -8 5
-11 10 -3 6 -1 10 4 10 6 0 11 -4 11 -10z m55 -430 c-3 -5 -10 -10 -16 -10 -5
0 -9 5 -9 10 0 6 7 10 16 10 8 0 12 -4 9 -10z m15 -45 c0 -8 -9 -15 -20 -15
-11 0 -20 7 -20 15 0 8 9 15 20 15 11 0 20 -7 20 -15z"/>
<path d="M810 821 c0 -12 5 -21 10 -21 6 0 10 6 10 14 0 8 -4 18 -10 21 -5 3
-10 -3 -10 -14z"/>
<path d="M34 550 c0 -157 2 -221 3 -142 2 78 2 206 0 285 -1 78 -3 14 -3 -143z"/>
<path d="M396 804 c-9 -23 -7 -44 3 -44 5 0 11 14 13 30 5 32 -6 41 -16 14z"/>
<path d="M954 801 c3 -5 15 -7 26 -4 28 7 25 13 -6 13 -14 0 -23 -4 -20 -9z"/>
<path d="M840 765 c0 -8 4 -15 10 -15 5 0 7 7 4 15 -4 8 -8 15 -10 15 -2 0 -4
-7 -4 -15z"/>
<path d="M960 770 c20 -13 40 -13 40 0 0 6 -12 10 -27 10 -22 0 -25 -2 -13
-10z"/>
<path d="M410 655 c0 -57 -4 -95 -10 -95 -19 0 -11 -59 9 -70 25 -13 31 -13
31 0 0 6 -7 10 -15 10 -8 0 -15 5 -15 11 0 6 9 8 20 4 11 -4 20 -2 20 4 0 6
-9 11 -20 11 -11 0 -20 7 -20 15 0 8 6 15 14 15 12 0 15 21 18 95 3 85 1 95
-14 95 -16 0 -18 -11 -18 -95z"/>
<path d="M970 515 c0 -210 2 -235 16 -235 14 0 14 3 4 15 -7 8 -9 15 -4 15 5
0 9 99 9 220 0 169 -3 220 -12 220 -10 0 -13 -54 -13 -235z"/>
<path d="M358 715 c-3 -14 -1 -25 3 -25 5 0 9 11 9 25 0 14 -2 25 -4 25 -2 0
-6 -11 -8 -25z"/>
<path d="M460 709 c0 -5 5 -7 10 -4 6 3 10 8 10 11 0 2 -4 4 -10 4 -5 0 -10
-5 -10 -11z"/>
<path d="M840 435 c0 -153 3 -276 6 -272 7 7 5 539 -1 546 -3 2 -5 -121 -5
-274z"/>
<path d="M362 630 c0 -19 2 -27 5 -17 2 9 2 25 0 35 -3 9 -5 1 -5 -18z"/>
<path d="M356 575 c4 -8 8 -15 10 -15 2 0 4 7 4 15 0 8 -4 15 -10 15 -5 0 -7
-7 -4 -15z"/>
<path d="M470 545 c0 -8 7 -15 15 -15 8 0 15 -7 15 -15 0 -8 -7 -15 -15 -15
-8 0 -15 -7 -15 -15 0 -8 7 -15 15 -15 8 0 15 7 15 15 0 8 7 15 15 15 8 0 15
7 15 15 0 8 -7 15 -15 15 -8 0 -15 7 -15 15 0 8 -7 15 -15 15 -8 0 -15 -7 -15
-15z"/>
<path d="M622 380 c0 -97 3 -155 8 -140 11 34 11 260 0 285 -5 12 -8 -44 -8
-145z"/>
<path d="M750 526 c0 -2 7 -6 15 -10 8 -3 15 -1 15 4 0 6 -7 10 -15 10 -8 0
-15 -2 -15 -4z"/>
<path d="M546 501 c-9 -9 -16 -26 -16 -37 0 -16 2 -15 17 6 9 14 21 28 26 31
5 4 5 9 -1 13 -5 3 -17 -3 -26 -13z"/>
<path d="M755 390 c0 -81 3 -110 13 -110 9 0 12 29 12 110 0 81 -3 110 -12
110 -10 0 -13 -29 -13 -110z"/>
<path d="M533 390 c0 -30 2 -43 4 -27 2 15 2 39 0 55 -2 15 -4 2 -4 -28z"/>
<path d="M755 260 c-3 -5 1 -10 9 -10 9 0 16 5 16 10 0 6 -4 10 -9 10 -6 0
-13 -4 -16 -10z"/>
<path d="M928 254 c-5 -4 -8 -24 -8 -44 0 -21 -7 -43 -15 -50 -8 -7 -14 -20
-13 -29 2 -10 -5 -17 -19 -19 -33 -5 -28 -22 6 -22 27 0 30 4 33 36 l3 37 11
-31 c10 -26 9 -34 -6 -52 -18 -21 -46 -27 -52 -10 -2 6 -25 12 -52 14 -26 2
-52 10 -57 17 -6 10 -9 11 -9 2 0 -7 -7 -13 -15 -13 -8 0 -15 -7 -15 -15 0
-12 15 -15 76 -15 70 0 76 -2 71 -19 -3 -15 0 -17 16 -13 16 4 19 2 14 -11 -4
-10 -2 -17 3 -17 6 0 10 13 10 30 0 23 5 30 19 30 16 0 18 7 16 51 l-3 50 31
-7 c29 -6 30 -5 18 10 -8 10 -23 15 -32 13 -15 -4 -19 3 -21 40 -2 25 -6 41
-10 37z"/>
<path d="M978 253 c7 -3 16 -2 19 1 4 3 -2 6 -13 5 -11 0 -14 -3 -6 -6z"/>
<path d="M90 208 c0 -34 4 -48 14 -48 15 0 13 50 -4 78 -7 13 -9 5 -10 -30z"/>
<path d="M968 223 c6 -2 18 -2 25 0 6 3 1 5 -13 5 -14 0 -19 -2 -12 -5z"/>
<path d="M968 193 c6 -2 18 -2 25 0 6 3 1 5 -13 5 -14 0 -19 -2 -12 -5z"/>
<path d="M293 153 c15 -2 39 -2 55 0 15 2 2 4 -28 4 -30 0 -43 -2 -27 -4z"/>
<path d="M423 153 c9 -2 23 -2 30 0 6 3 -1 5 -18 5 -16 0 -22 -2 -12 -5z"/>
<path d="M478 153 c6 -2 18 -2 25 0 6 3 1 5 -13 5 -14 0 -19 -2 -12 -5z"/>
<path d="M806 131 c-4 -5 -2 -12 3 -15 5 -4 12 -2 15 3 4 5 2 12 -3 15 -5 4
-12 2 -15 -3z"/>
<path d="M970 95 c0 -22 5 -35 13 -35 8 0 13 13 13 35 0 22 -5 35 -13 35 -8 0
-13 -13 -13 -35z"/>
<path d="M690 75 c0 -8 5 -15 10 -15 6 0 10 7 10 15 0 8 -4 15 -10 15 -5 0
-10 -7 -10 -15z"/>
<path d="M958 34 c6 -3 12 -12 12 -20 0 -8 5 -14 11 -14 19 0 4 35 -16 37 -11
2 -14 0 -7 -3z"/>
<path d="M130 18 c0 -10 78 -13 355 -13 277 0 355 3 355 13 0 9 -78 12 -355
12 -277 0 -355 -3 -355 -12z"/>
<path d="M920 15 c0 -8 5 -15 10 -15 6 0 10 7 10 15 0 8 -4 15 -10 15 -5 0
-10 -7 -10 -15z"/>
</g>
</svg>
