<?xml version="1.0" standalone="no"?>
<!DOCTYPE svg PUBLIC "-//W3C//DTD SVG 20010904//EN"
 "http://www.w3.org/TR/2001/REC-SVG-20010904/DTD/svg10.dtd">
<svg version="1.0" xmlns="http://www.w3.org/2000/svg"
 width="192.000000pt" height="192.000000pt" viewBox="0 0 192.000000 192.000000"
 preserveAspectRatio="xMidYMid meet">
<metadata>
Created by potrace 1.16, written by Peter Selinger 2001-2019
</metadata>
<g transform="translate(0.000000,192.000000) scale(0.100000,-0.100000)"
fill="#000000" stroke="none">
<path d="M813 1833 c9 -2 25 -2 35 0 9 3 1 5 -18 5 -19 0 -27 -2 -17 -5z"/>
<path d="M918 1833 c7 -3 16 -2 19 1 4 3 -2 6 -13 5 -11 0 -14 -3 -6 -6z"/>
<path d="M1208 1833 c7 -3 16 -2 19 1 4 3 -2 6 -13 5 -11 0 -14 -3 -6 -6z"/>
<path d="M1275 1832 c2 -3 22 -5 45 -6 23 -2 35 1 28 6 -13 8 -81 8 -73 0z"/>
<path d="M735 1820 c19 -8 73 -14 64 -6 -2 2 -22 6 -44 9 -28 5 -34 4 -20 -3z"/>
<path d="M980 1794 c-14 -2 -56 -9 -95 -15 -203 -31 -381 -118 -515 -251 -107
-106 -179 -276 -180 -423 0 -64 23 -192 49 -272 75 -232 273 -488 485 -627
190 -125 363 -162 542 -116 106 27 119 42 29 34 -189 -17 -400 81 -558 260
-112 126 -183 256 -233 422 -22 75 -27 109 -27 214 -1 177 33 288 128 416 138
184 394 306 647 308 102 1 136 9 86 21 -13 3 -43 9 -68 15 -50 11 -251 21
-290 14z m108 -30 c-10 -10 -89 -13 -83 -3 4 5 25 9 47 9 23 0 39 -3 36 -6z
m-112 -19 c-8 -7 -13 -15 -10 -18 3 -3 -4 -3 -15 0 -14 4 -26 -1 -35 -12 -8
-11 -18 -15 -26 -10 -9 5 -11 4 -6 -3 4 -7 1 -12 -8 -12 -9 0 -16 -5 -16 -11
0 -6 -9 -8 -21 -4 -15 5 -19 4 -14 -5 4 -7 1 -11 -6 -9 -29 3 -41 -2 -36 -15
6 -15 -12 -26 -44 -26 -11 0 -18 -4 -15 -9 3 -5 -5 -16 -19 -25 -22 -14 -25
-15 -25 -1 0 8 -4 15 -10 15 -5 0 -7 -7 -4 -15 4 -8 1 -15 -4 -15 -6 0 -13 8
-15 18 -3 9 -4 5 -4 -10 1 -16 5 -28 9 -28 4 0 8 -4 8 -10 0 -5 -7 -10 -15
-10 -8 0 -15 -7 -15 -15 0 -8 -4 -15 -10 -15 -5 0 -10 5 -10 12 0 9 -3 8 -12
-1 -11 -11 -10 -14 0 -18 6 -3 9 -9 6 -15 -3 -5 -14 -2 -25 8 -17 15 -19 15
-19 1 0 -9 4 -19 10 -22 6 -4 5 -11 -3 -19 -6 -8 -16 -12 -20 -9 -5 3 -7 -3
-5 -13 2 -13 -2 -18 -14 -16 -10 2 -18 -2 -18 -8 0 -5 5 -10 10 -10 6 0 10 -4
10 -10 0 -5 -7 -10 -16 -10 -9 0 -12 -5 -8 -12 4 -6 3 -8 -4 -5 -6 4 -8 24 -5
50 3 23 2 39 -2 35 -4 -4 -8 -40 -10 -81 -1 -40 -4 -78 -8 -83 -9 -15 -37
-173 -39 -224 -2 -25 1 -63 4 -85 5 -27 5 -33 -2 -20 -7 15 -9 10 -8 -25 0
-36 2 -40 8 -20 l7 25 6 -25 c3 -14 11 -60 18 -102 7 -42 16 -75 21 -72 4 3 8
-2 8 -10 0 -8 -5 -18 -11 -22 -8 -4 -8 -9 0 -17 7 -7 7 -14 0 -24 -9 -10 -8
-13 4 -13 9 0 17 10 19 22 2 15 12 -2 32 -53 16 -41 34 -77 39 -81 8 -4 5 -14
-7 -27 -18 -19 -18 -20 3 -18 12 1 21 8 22 17 0 13 1 13 6 0 3 -8 12 -22 19
-31 8 -8 16 -30 18 -48 2 -17 7 -35 11 -39 5 -4 5 1 2 11 -4 9 -2 17 3 17 12
0 80 -81 80 -97 0 -7 9 -13 19 -13 12 0 18 -7 17 -17 0 -10 8 -19 19 -21 19
-4 84 -48 96 -66 4 -5 13 -5 20 -1 9 6 11 3 6 -8 -4 -11 -1 -17 8 -17 8 0 15
-5 15 -11 0 -6 7 -8 16 -5 8 3 25 0 37 -6 12 -7 51 -20 87 -30 64 -16 64 -16
23 -17 -24 -1 -43 4 -43 9 0 6 -22 10 -50 10 -30 0 -50 4 -50 11 0 6 -9 9 -20
6 -11 -3 -18 -1 -14 4 3 5 -4 9 -15 9 -12 0 -20 3 -20 8 3 18 -2 26 -9 14 -7
-10 -19 -8 -57 9 -33 15 -44 24 -35 29 19 12 22 40 4 33 -8 -3 -11 -9 -8 -14
3 -5 -2 -9 -11 -9 -9 0 -13 5 -10 10 3 6 -3 10 -14 10 -33 0 -50 11 -44 28 5
11 2 14 -10 9 -11 -4 -20 1 -27 13 -8 16 -8 20 4 20 8 0 16 -5 18 -11 2 -6 12
0 23 12 11 13 13 18 5 13 -20 -12 -73 -12 -82 1 -5 6 -8 5 -8 -2 0 -8 -8 -5
-20 7 -25 25 -25 31 -2 23 15 -6 15 -5 3 11 -8 9 -20 15 -28 12 -7 -3 -13 1
-13 11 0 9 -3 13 -7 10 -3 -4 -17 3 -30 14 -16 16 -21 29 -17 46 5 18 2 23
-12 22 -11 0 -14 -3 -6 -6 6 -2 12 -10 12 -16 -1 -7 -9 -2 -19 10 -10 12 -22
19 -26 15 -5 -4 -5 1 -2 11 19 53 19 67 1 67 -14 0 -15 -3 -6 -8 7 -5 10 -16
6 -25 -9 -24 -22 -21 -26 6 -2 12 -9 21 -16 20 -7 -2 -14 14 -18 38 -5 27 -10
36 -15 27 -7 -10 -9 -10 -10 2 -1 8 -1 19 0 24 1 5 -5 6 -14 3 -11 -5 -16 3
-21 33 -4 22 -10 40 -13 40 -12 0 -41 69 -41 96 0 14 -4 23 -9 19 -15 -9 -24
14 -12 29 9 10 8 15 -3 19 -14 6 -27 58 -31 127 -2 19 -6 53 -10 74 -5 26 -5
37 2 33 7 -4 10 13 9 46 -1 28 5 76 14 105 16 50 17 52 28 30 11 -20 12 -18 9
24 -1 25 1 44 6 41 4 -2 7 2 7 9 0 10 3 9 11 -2 8 -12 9 -11 4 7 -3 13 2 34
15 55 11 18 20 27 20 20 0 -7 4 -10 10 -7 6 3 10 15 10 25 0 10 5 22 12 26 7
4 8 3 4 -4 -4 -7 -2 -12 3 -12 6 0 11 8 11 18 0 10 5 23 12 30 14 14 42 16 33
2 -3 -5 -1 -10 4 -10 6 0 11 7 11 15 0 8 5 15 11 15 5 0 8 4 5 9 -7 11 21 35
62 51 17 7 32 19 32 26 0 8 5 14 10 14 6 0 10 -4 10 -10 0 -5 11 -10 25 -10
14 0 25 5 25 10 0 5 -3 9 -7 9 -21 -3 -34 2 -28 11 4 6 11 7 17 4 6 -4 14 -1
18 6 4 7 26 13 48 13 30 0 39 3 35 13 -3 8 0 14 6 14 6 0 11 -4 11 -10 0 -5 5
-10 11 -10 6 0 9 6 6 13 -4 10 2 13 20 9 18 -3 24 -1 19 6 -10 16 36 26 80 17
31 -5 36 -4 31 9 -5 13 1 16 40 14 38 -1 43 -3 29 -13z"/>
<path d="M938 1743 c7 -3 16 -2 19 1 4 3 -2 6 -13 5 -11 0 -14 -3 -6 -6z"/>
<path d="M775 1690 c-3 -6 1 -7 9 -4 18 7 21 14 7 14 -6 0 -13 -4 -16 -10z"/>
<path d="M750 1670 c0 -5 5 -10 11 -10 5 0 7 5 4 10 -3 6 -8 10 -11 10 -2 0
-4 -4 -4 -10z"/>
<path d="M722 1650 c0 -14 2 -19 5 -12 2 6 2 18 0 25 -3 6 -5 1 -5 -13z"/>
<path d="M745 1640 c-3 -5 1 -10 9 -10 9 0 16 5 16 10 0 6 -4 10 -9 10 -6 0
-13 -4 -16 -10z"/>
<path d="M575 1610 c-7 -12 12 -12 40 0 18 8 17 9 -7 9 -15 1 -30 -3 -33 -9z"/>
<path d="M387 1463 c-4 -3 -7 -11 -7 -17 0 -6 5 -5 12 2 6 6 9 14 7 17 -3 3
-9 2 -12 -2z"/>
<path d="M301 1328 c0 -7 4 -22 9 -33 7 -17 9 -15 9 13 1 17 -3 32 -9 32 -5 0
-10 -6 -9 -12z"/>
<path d="M407 1176 c-5 -15 -6 -31 -3 -34 8 -8 18 25 14 45 -3 13 -6 10 -11
-11z"/>
<path d="M406 1105 c4 -8 8 -15 10 -15 2 0 4 7 4 15 0 8 -4 15 -10 15 -5 0 -7
-7 -4 -15z"/>
<path d="M402 940 c0 -14 2 -19 5 -12 2 6 2 18 0 25 -3 6 -5 1 -5 -13z"/>
<path d="M407 883 c-10 -9 -9 -23 1 -23 5 0 9 7 9 15 0 17 -1 18 -10 8z"/>
<path d="M306 839 c-3 -17 -3 -37 2 -44 4 -8 8 5 9 31 2 52 -2 56 -11 13z"/>
<path d="M400 789 c0 -5 5 -7 10 -4 6 3 10 8 10 11 0 2 -4 4 -10 4 -5 0 -10
-5 -10 -11z"/>
<path d="M393 723 c-16 -6 -17 -42 -3 -63 8 -11 9 -7 4 14 -5 22 -2 32 11 43
19 13 12 16 -12 6z"/>
<path d="M350 680 c0 -5 5 -10 10 -10 6 0 10 5 10 10 0 6 -4 10 -10 10 -5 0
-10 -4 -10 -10z"/>
<path d="M535 470 c-3 -5 1 -10 10 -10 9 0 13 5 10 10 -3 6 -8 10 -10 10 -2 0
-7 -4 -10 -10z"/>
<path d="M610 390 c0 -5 5 -10 10 -10 6 0 10 5 10 10 0 6 -4 10 -10 10 -5 0
-10 -4 -10 -10z"/>
<path d="M720 275 c0 -8 5 -15 10 -15 6 0 10 7 10 15 0 8 -4 15 -10 15 -5 0
-10 -7 -10 -15z"/>
<path d="M588 1753 c7 -3 16 -2 19 1 4 3 -2 6 -13 5 -11 0 -14 -3 -6 -6z"/>
<path d="M628 1753 c7 -3 16 -2 19 1 4 3 -2 6 -13 5 -11 0 -14 -3 -6 -6z"/>
<path d="M1432 1740 c0 -14 2 -19 5 -12 2 6 2 18 0 25 -3 6 -5 1 -5 -13z"/>
<path d="M566 1731 c-4 -5 3 -7 14 -4 23 6 26 13 6 13 -8 0 -17 -4 -20 -9z"/>
<path d="M1300 1700 c0 -5 12 -10 28 -9 24 0 25 1 7 9 -27 12 -35 12 -35 0z"/>
<path d="M1105 1690 c-16 -7 -17 -9 -3 -9 9 -1 20 4 23 9 7 11 7 11 -20 0z"/>
<path d="M1160 1690 c0 -5 5 -10 10 -10 6 0 10 5 10 10 0 6 -4 10 -10 10 -5 0
-10 -4 -10 -10z"/>
<path d="M1223 1683 c15 -2 37 -2 50 0 12 2 0 4 -28 4 -27 0 -38 -2 -22 -4z"/>
<path d="M425 1657 c-24 -20 -25 -23 -7 -23 12 0 18 5 15 13 -3 7 2 13 11 13
9 0 16 5 16 10 0 15 -6 13 -35 -13z"/>
<path d="M945 1640 c3 -5 8 -10 11 -10 2 0 4 5 4 10 0 6 -5 10 -11 10 -5 0 -7
-4 -4 -10z"/>
<path d="M903 1623 c9 -2 23 -2 30 0 6 3 -1 5 -18 5 -16 0 -22 -2 -12 -5z"/>
<path d="M324 1575 c-1 -14 2 -25 7 -25 5 0 9 11 9 25 0 33 -15 33 -16 0z"/>
<path d="M366 1583 c-6 -14 -5 -15 5 -6 7 7 10 15 7 18 -3 3 -9 -2 -12 -12z"/>
<path d="M1338 1593 c6 -2 18 -2 25 0 6 3 1 5 -13 5 -14 0 -19 -2 -12 -5z"/>
<path d="M1288 1583 c7 -3 16 -2 19 1 4 3 -2 6 -13 5 -11 0 -14 -3 -6 -6z"/>
<path d="M1113 1573 c9 -2 25 -2 35 0 9 3 1 5 -18 5 -19 0 -27 -2 -17 -5z"/>
<path d="M1363 1573 c9 -2 23 -2 30 0 6 3 -1 5 -18 5 -16 0 -22 -2 -12 -5z"/>
<path d="M760 1530 c-8 -5 -10 -10 -5 -10 6 0 17 5 25 10 8 5 11 10 5 10 -5 0
-17 -5 -25 -10z"/>
<path d="M1141 1530 c-345 -48 -549 -277 -527 -590 23 -326 261 -656 535 -740
72 -23 196 -27 267 -9 36 9 55 24 104 79 33 37 57 70 54 73 -3 3 -26 -4 -51
-15 -38 -17 -62 -20 -142 -16 -82 3 -106 8 -164 35 -119 56 -196 153 -232 290
-66 252 123 523 375 540 82 6 170 -11 241 -47 39 -21 122 -96 147 -135 11 -17
12 -5 9 72 -4 83 -9 102 -44 175 -23 48 -62 107 -91 139 -108 118 -291 175
-481 149z m234 -39 c30 -7 30 -7 6 -15 -18 -6 -21 -10 -10 -17 8 -5 23 -8 34
-8 16 1 16 2 -5 9 -24 8 -24 8 7 9 17 1 38 -5 45 -13 8 -7 29 -17 47 -21 22
-5 35 -15 42 -33 7 -17 13 -22 17 -15 5 8 14 2 27 -17 11 -17 24 -30 28 -30 4
0 3 -8 -2 -18 -6 -11 -6 -24 0 -33 7 -11 9 -9 9 9 0 12 4 22 10 22 5 0 7 -7 3
-16 -4 -12 -2 -15 8 -12 16 5 42 -46 53 -105 4 -20 11 -37 16 -37 16 0 11 -30
-6 -37 -8 -3 -21 0 -27 7 -10 10 -8 12 6 7 9 -4 17 -3 17 1 0 16 -25 40 -45
45 -18 4 -18 5 5 15 14 6 20 11 13 11 -24 2 -43 -12 -43 -31 0 -17 5 -19 25
-14 14 4 25 2 25 -4 0 -19 -47 -10 -76 15 -16 14 -31 25 -34 26 -3 0 -21 3
-40 6 -44 8 -214 10 -260 3 -19 -3 -41 -10 -48 -17 -7 -7 -19 -10 -27 -6 -11
4 -13 1 -9 -11 10 -26 -11 -19 -26 9 -7 13 -17 22 -21 19 -5 -3 -2 -16 7 -29
15 -23 14 -24 -16 -40 -17 -9 -35 -13 -40 -10 -6 3 -10 1 -10 -5 0 -7 -8 -9
-21 -5 -20 7 -21 4 -16 -22 4 -20 0 -39 -12 -57 -17 -26 -19 -26 -24 -7 -3 12
-10 21 -16 21 -7 0 -7 -8 -1 -25 6 -15 6 -34 0 -47 -8 -21 -9 -19 -9 11 -1 19
-4 32 -7 28 -11 -11 -14 -67 -4 -67 6 0 10 -7 10 -17 0 -9 -3 -13 -7 -9 -11
10 -32 -108 -32 -179 0 -33 6 -88 13 -122 7 -34 12 -75 10 -90 -2 -15 -1 -22
2 -15 8 17 24 15 24 -3 0 -8 -5 -15 -12 -15 -6 0 -8 -3 -4 -7 4 -5 15 1 23 12
11 14 14 15 10 4 -3 -10 4 -26 19 -40 15 -14 22 -29 18 -41 -3 -10 0 -18 6
-18 6 0 8 6 4 13 -4 6 6 0 23 -15 16 -16 35 -28 42 -28 7 0 10 -7 7 -18 -5
-16 -1 -19 23 -17 17 1 28 -2 26 -5 -5 -8 17 -17 65 -29 16 -4 24 -13 22 -24
-2 -9 2 -17 8 -17 5 0 10 7 10 15 0 18 14 19 42 4 25 -13 107 -21 122 -11 12
7 46 11 46 5 0 -2 -12 -8 -26 -13 -14 -6 -22 -14 -19 -20 3 -5 2 -10 -4 -10
-5 0 -17 -3 -27 -7 -11 -4 -15 -3 -11 4 4 7 -3 10 -18 9 -14 0 -25 -6 -25 -12
0 -15 -120 -7 -205 14 -56 14 -69 21 -67 35 3 19 -14 23 -21 5 -2 -7 -8 -10
-12 -5 -5 4 -3 13 3 19 17 17 15 27 -7 25 -13 -1 -17 -6 -13 -17 5 -12 3 -13
-10 -3 -8 7 -19 9 -23 5 -5 -4 -5 -1 -1 6 4 6 2 12 -4 12 -7 0 -22 8 -35 18
-18 14 -21 22 -13 36 5 10 7 20 4 23 -3 4 -6 1 -6 -5 0 -7 -5 -12 -11 -12 -5
0 -7 5 -3 12 5 7 2 9 -8 5 -22 -8 -61 22 -55 43 2 10 0 24 -5 31 -7 10 -8 9
-4 -5 7 -20 7 -20 -16 0 -31 26 -47 47 -48 61 0 6 -13 27 -30 45 -18 19 -28
39 -25 49 3 10 -1 19 -10 23 -8 3 -15 15 -15 26 0 11 -4 20 -9 20 -17 0 -20
30 -6 57 8 15 15 35 14 43 0 8 -5 4 -10 -10 -8 -20 -12 -22 -19 -10 -9 13 -10
13 -11 0 -3 -29 -38 166 -38 210 0 25 4 65 10 90 6 25 12 54 13 65 1 11 7 19
14 17 7 -1 12 9 12 25 0 19 3 24 9 15 7 -11 9 -11 14 2 4 10 1 16 -8 16 -8 0
-15 5 -15 10 0 6 6 10 14 10 12 0 24 22 30 55 1 6 8 8 16 6 34 -8 44 -5 47 14
1 15 1 16 -3 3 -6 -21 -20 -23 -26 -5 -6 15 60 79 68 66 3 -5 15 -8 27 -8 17
1 18 2 4 6 -9 2 -15 9 -11 14 3 5 10 6 16 3 7 -5 9 -2 6 8 -8 19 66 56 104 52
19 -2 25 1 22 11 -4 10 7 15 40 20 46 7 71 1 61 -16 -4 -5 -1 -9 4 -9 18 0 12
38 -6 43 -29 8 239 5 272 -2z m-305 -406 c10 -12 10 -15 -4 -15 -9 0 -16 7
-16 15 0 8 2 15 4 15 2 0 9 -7 16 -15z"/>
<path d="M1036 1455 c-4 -13 -2 -14 14 -5 23 13 26 20 6 20 -8 0 -16 -7 -20
-15z"/>
<path d="M1590 1190 c0 -5 4 -10 9 -10 6 0 13 5 16 10 3 6 -1 10 -9 10 -9 0
-16 -4 -16 -10z"/>
<path d="M711 1144 c0 -11 3 -14 6 -6 3 7 2 16 -1 19 -3 4 -6 -2 -5 -13z"/>
<path d="M1121 1144 c0 -11 3 -14 6 -6 3 7 2 16 -1 19 -3 4 -6 -2 -5 -13z"/>
<path d="M705 721 c-3 -5 -1 -12 5 -16 5 -3 10 1 10 9 0 18 -6 21 -15 7z"/>
<path d="M771 613 c0 -10 4 -27 8 -38 7 -16 9 -13 13 18 3 26 0 37 -9 37 -7 0
-13 -8 -12 -17z"/>
<path d="M880 570 c0 -5 5 -10 11 -10 5 0 7 5 4 10 -3 6 -8 10 -11 10 -2 0 -4
-4 -4 -10z"/>
<path d="M1100 310 c0 -5 5 -10 10 -10 6 0 10 5 10 10 0 6 -4 10 -10 10 -5 0
-10 -4 -10 -10z"/>
<path d="M1200 250 c0 -5 7 -10 16 -10 8 0 12 5 9 10 -3 6 -10 10 -16 10 -5 0
-9 -4 -9 -10z"/>
<path d="M1270 240 c-13 -9 -13 -10 0 -10 8 0 22 5 30 10 13 9 13 10 0 10 -8
0 -22 -5 -30 -10z"/>
<path d="M245 1509 c-4 -6 -5 -12 -2 -15 2 -3 7 2 10 11 7 17 1 20 -8 4z"/>
<path d="M813 1513 c9 -2 23 -2 30 0 6 3 -1 5 -18 5 -16 0 -22 -2 -12 -5z"/>
<path d="M870 1511 c0 -6 4 -13 10 -16 6 -3 7 1 4 9 -7 18 -14 21 -14 7z"/>
<path d="M908 1513 c7 -3 16 -2 19 1 4 3 -2 6 -13 5 -11 0 -14 -3 -6 -6z"/>
<path d="M1516 1508 c3 -5 10 -6 15 -3 13 9 11 12 -6 12 -8 0 -12 -4 -9 -9z"/>
<path d="M1570 1516 c0 -2 7 -7 16 -10 8 -3 12 -2 9 4 -6 10 -25 14 -25 6z"/>
<path d="M1567 1489 c7 -7 15 -10 18 -7 3 3 -2 9 -12 12 -14 6 -15 5 -6 -5z"/>
<path d="M246 1463 c-4 -9 -3 -20 1 -24 4 -4 9 3 9 17 2 28 -1 31 -10 7z"/>
<path d="M696 1464 c-8 -20 -8 -24 2 -24 4 0 8 9 9 20 2 24 -3 26 -11 4z"/>
<path d="M820 1460 c0 -5 5 -10 11 -10 5 0 7 5 4 10 -3 6 -8 10 -11 10 -2 0
-4 -4 -4 -10z"/>
<path d="M770 1429 c0 -5 5 -7 10 -4 6 3 10 8 10 11 0 2 -4 4 -10 4 -5 0 -10
-5 -10 -11z"/>
<path d="M720 1409 c0 -5 5 -7 10 -4 6 3 10 8 10 11 0 2 -4 4 -10 4 -5 0 -10
-5 -10 -11z"/>
<path d="M646 1351 c-8 -13 4 -42 15 -35 5 3 9 10 9 15 0 6 -5 7 -12 3 -8 -5
-9 -2 -5 9 7 18 2 23 -7 8z"/>
<path d="M1701 1344 c0 -11 3 -14 6 -6 3 7 2 16 -1 19 -3 4 -6 -2 -5 -13z"/>
<path d="M175 1341 c-3 -5 -1 -12 5 -16 5 -3 10 1 10 9 0 18 -6 21 -15 7z"/>
<path d="M1730 1315 c0 -8 4 -15 9 -15 5 0 12 -10 14 -22 3 -17 5 -15 6 8 0
20 -5 34 -14 38 -9 3 -15 0 -15 -9z"/>
<path d="M160 1300 c0 -11 4 -20 9 -20 5 0 7 9 4 20 -3 11 -7 20 -9 20 -2 0
-4 -9 -4 -20z"/>
<path d="M161 1214 c0 -11 3 -14 6 -6 3 7 2 16 -1 19 -3 4 -6 -2 -5 -13z"/>
<path d="M542 1190 c0 -19 2 -27 5 -17 2 9 2 25 0 35 -3 9 -5 1 -5 -18z"/>
<path d="M565 1190 c3 -5 8 -10 11 -10 2 0 4 5 4 10 0 6 -5 10 -11 10 -5 0 -7
-4 -4 -10z"/>
<path d="M521 1164 c0 -11 3 -14 6 -6 3 7 2 16 -1 19 -3 4 -6 -2 -5 -13z"/>
<path d="M542 1058 c-1 -53 1 -99 6 -101 4 -3 6 27 4 66 -4 122 -9 136 -10 35z"/>
<path d="M571 1134 c0 -11 3 -14 6 -6 3 7 2 16 -1 19 -3 4 -6 -2 -5 -13z"/>
<path d="M1436 1105 c4 -8 11 -15 16 -15 6 0 5 6 -2 15 -7 8 -14 15 -16 15 -2
0 -1 -7 2 -15z"/>
<path d="M1505 1111 c-17 -7 -16 -9 9 -15 16 -4 31 -5 34 -1 3 3 -2 5 -12 5
-9 0 -14 5 -11 10 7 11 7 11 -20 1z"/>
<path d="M1792 1095 c0 -16 2 -22 5 -12 2 9 2 23 0 30 -3 6 -5 -1 -5 -18z"/>
<path d="M1831 1104 c0 -11 3 -14 6 -6 3 7 2 16 -1 19 -3 4 -6 -2 -5 -13z"/>
<path d="M571 1064 c-15 -61 -8 -68 9 -9 7 25 10 48 8 51 -3 2 -11 -16 -17
-42z"/>
<path d="M1308 1093 c6 -2 18 -2 25 0 6 3 1 5 -13 5 -14 0 -19 -2 -12 -5z"/>
<path d="M1811 1053 c-1 -12 4 -25 9 -28 12 -7 12 2 0 30 -8 19 -9 19 -9 -2z"/>
<path d="M1174 1051 c3 -5 -6 -16 -20 -26 -14 -9 -23 -19 -21 -22 3 -2 17 3
31 12 26 17 35 45 15 45 -5 0 -8 -4 -5 -9z"/>
<path d="M1325 1047 c-146 -49 -230 -141 -256 -280 -34 -185 103 -371 300
-407 104 -19 237 16 258 67 6 16 23 57 38 92 34 81 85 280 85 333 0 34 -7 46
-55 94 -74 75 -144 105 -248 110 -52 3 -97 -1 -122 -9z m188 -33 c52 -17 76
-40 35 -32 -16 3 -25 0 -25 -8 0 -15 49 -8 55 8 2 4 8 8 14 8 6 0 8 -6 5 -13
-3 -8 3 -14 16 -14 43 -4 67 -44 75 -124 l7 -74 5 55 c3 31 1 59 -5 63 -6 5
-4 7 5 4 20 -6 17 -95 -5 -137 -9 -17 -13 -40 -10 -51 4 -11 0 -30 -9 -44 -9
-13 -16 -34 -16 -45 0 -11 -7 -37 -17 -58 -9 -20 -15 -43 -14 -49 1 -7 -3 -13
-9 -13 -5 0 -10 5 -10 12 0 6 -3 8 -6 5 -4 -4 -1 -14 7 -24 8 -9 9 -14 3 -10
-7 4 -14 -5 -18 -23 -4 -24 -12 -32 -36 -36 -16 -4 -30 -10 -30 -14 0 -12
-190 -4 -222 9 -21 8 -28 18 -29 38 0 27 0 27 -10 5 -5 -13 -13 -20 -19 -17
-6 4 -8 10 -5 15 3 4 -6 11 -20 14 -14 4 -25 13 -25 21 0 8 -4 15 -9 15 -5 0
-12 11 -15 25 -4 14 -12 25 -19 25 -21 0 -40 43 -38 88 1 31 -2 41 -11 36 -7
-5 -9 -2 -6 7 3 8 8 25 12 39 6 19 5 21 -3 10 -9 -13 -11 -13 -11 1 0 8 6 21
12 27 10 10 10 14 0 21 -9 5 -7 18 9 52 12 24 26 46 30 47 5 2 7 8 4 13 -4 5
1 6 9 3 11 -4 16 0 16 10 0 16 45 62 58 60 4 -1 16 5 27 12 11 8 28 14 38 14
10 0 16 4 13 9 -3 5 1 11 8 14 8 3 17 1 20 -6 3 -8 8 -6 16 6 14 22 89 23 153
1z m-343 -494 c0 -5 -2 -10 -4 -10 -3 0 -8 5 -11 10 -3 6 -1 10 4 10 6 0 11
-4 11 -10z"/>
<path d="M1335 980 c-3 -5 1 -10 9 -10 9 0 16 5 16 10 0 6 -4 10 -9 10 -6 0
-13 -4 -16 -10z"/>
<path d="M1276 971 c-4 -5 3 -7 14 -4 23 6 26 13 6 13 -8 0 -17 -4 -20 -9z"/>
<path d="M1440 970 c0 -5 5 -10 11 -10 5 0 7 5 4 10 -3 6 -8 10 -11 10 -2 0
-4 -4 -4 -10z"/>
<path d="M1192 900 c0 -14 2 -19 5 -12 2 6 2 18 0 25 -3 6 -5 1 -5 -13z"/>
<path d="M1604 625 c-10 -26 1 -35 13 -10 6 14 7 25 2 25 -5 0 -12 -7 -15 -15z"/>
<path d="M1622 581 c-16 -31 -20 -47 -13 -54 8 -8 11 -4 11 12 0 14 4 20 12
15 7 -5 8 -3 3 6 -4 7 -2 16 5 20 6 4 10 16 8 26 -2 14 -9 8 -26 -25z"/>
<path d="M1186 547 c3 -10 9 -15 12 -12 3 3 0 11 -7 18 -10 9 -11 8 -5 -6z"/>
<path d="M1663 1025 c0 -8 4 -12 9 -9 5 3 6 10 3 15 -9 13 -12 11 -12 -6z"/>
<path d="M1792 1020 c0 -14 2 -19 5 -12 2 6 2 18 0 25 -3 6 -5 1 -5 -13z"/>
<path d="M1831 994 c0 -11 3 -14 6 -6 3 7 2 16 -1 19 -3 4 -6 -2 -5 -13z"/>
<path d="M571 974 c0 -11 3 -14 6 -6 3 7 2 16 -1 19 -3 4 -6 -2 -5 -13z"/>
<path d="M1120 980 c0 -5 5 -10 11 -10 5 0 7 5 4 10 -3 6 -8 10 -11 10 -2 0
-4 -4 -4 -10z"/>
<path d="M1090 960 c8 -5 20 -10 25 -10 6 0 3 5 -5 10 -8 5 -19 10 -25 10 -5
0 -3 -5 5 -10z"/>
<path d="M530 931 c0 -11 4 -22 9 -25 4 -3 6 6 3 19 -5 30 -12 33 -12 6z"/>
<path d="M1061 894 c0 -11 3 -14 6 -6 3 7 2 16 -1 19 -3 4 -6 -2 -5 -13z"/>
<path d="M172 875 c-7 -14 -12 -31 -12 -38 1 -7 7 3 16 22 17 39 13 54 -4 16z"/>
<path d="M540 864 c0 -8 5 -12 10 -9 6 4 8 11 5 16 -9 14 -15 11 -15 -7z"/>
<path d="M1035 861 c-3 -5 -1 -12 5 -16 5 -3 10 1 10 9 0 18 -6 21 -15 7z"/>
<path d="M186 817 c3 -10 9 -15 12 -12 3 3 0 11 -7 18 -10 9 -11 8 -5 -6z"/>
<path d="M1031 814 c0 -11 3 -14 6 -6 3 7 2 16 -1 19 -3 4 -6 -2 -5 -13z"/>
<path d="M565 810 c-3 -5 -1 -10 4 -10 6 0 11 5 11 10 0 6 -2 10 -4 10 -3 0
-8 -4 -11 -10z"/>
<path d="M1002 780 c0 -14 2 -19 5 -12 2 6 2 18 0 25 -3 6 -5 1 -5 -13z"/>
<path d="M565 730 c-3 -5 -1 -10 4 -10 6 0 11 5 11 10 0 6 -2 10 -4 10 -3 0
-8 -4 -11 -10z"/>
<path d="M1010 735 c0 -5 5 -17 10 -25 5 -8 10 -10 10 -5 0 6 -5 17 -10 25 -5
8 -10 11 -10 5z"/>
<path d="M580 700 c-9 -6 -10 -10 -3 -10 6 0 15 5 18 10 8 12 4 12 -15 0z"/>
<path d="M590 659 c0 -5 5 -7 10 -4 6 3 10 8 10 11 0 2 -4 4 -10 4 -5 0 -10
-5 -10 -11z"/>
<path d="M617 647 c-3 -8 -2 -20 3 -26 5 -9 8 -4 8 13 0 29 -3 32 -11 13z"/>
<path d="M1010 651 c0 -6 4 -13 10 -16 6 -3 7 1 4 9 -7 18 -14 21 -14 7z"/>
<path d="M1740 650 c0 -5 5 -10 10 -10 6 0 10 5 10 10 0 6 -4 10 -10 10 -5 0
-10 -4 -10 -10z"/>
<path d="M1041 614 c0 -11 3 -14 6 -6 3 7 2 16 -1 19 -3 4 -6 -2 -5 -13z"/>
<path d="M651 594 c0 -11 3 -14 6 -6 3 7 2 16 -1 19 -3 4 -6 -2 -5 -13z"/>
<path d="M1740 570 c6 -11 12 -20 14 -20 2 0 2 9 -1 20 -3 11 -9 20 -15 20 -5
0 -4 -9 2 -20z"/>
<path d="M333 513 c1 -18 6 -28 10 -24 4 4 3 18 -2 32 -9 23 -9 22 -8 -8z"/>
<path d="M685 520 c-3 -6 1 -7 9 -4 18 7 21 14 7 14 -6 0 -13 -4 -16 -10z"/>
<path d="M1731 523 c0 -5 4 -17 9 -28 8 -18 9 -17 9 8 1 15 -3 27 -9 27 -5 0
-10 -3 -9 -7z"/>
<path d="M1085 490 c-3 -5 -1 -10 4 -10 6 0 11 5 11 10 0 6 -2 10 -4 10 -3 0
-8 -4 -11 -10z"/>
<path d="M705 480 c3 -5 8 -10 11 -10 2 0 4 5 4 10 0 6 -5 10 -11 10 -5 0 -7
-4 -4 -10z"/>
<path d="M787 405 c-6 -15 10 -32 20 -21 4 3 1 6 -5 6 -6 0 -9 7 -6 15 4 8 4
15 1 15 -3 0 -7 -7 -10 -15z"/>
<path d="M1652 370 c7 -11 16 -20 20 -20 5 0 3 9 -4 20 -7 11 -16 20 -20 20
-5 0 -3 -9 4 -20z"/>
<path d="M1615 360 c3 -5 11 -10 16 -10 6 0 7 5 4 10 -3 6 -11 10 -16 10 -6 0
-7 -4 -4 -10z"/>
<path d="M846 326 c10 -8 21 -12 24 -10 5 6 -21 24 -34 24 -6 0 -1 -6 10 -14z"/>
<path d="M1586 297 c3 -10 9 -15 12 -12 3 3 0 11 -7 18 -10 9 -11 8 -5 -6z"/>
<path d="M910 290 c0 -5 5 -10 11 -10 5 0 7 5 4 10 -3 6 -8 10 -11 10 -2 0 -4
-4 -4 -10z"/>
<path d="M560 268 c0 -20 25 -24 36 -6 5 7 3 8 -6 3 -7 -4 -16 -2 -21 6 -7 11
-9 10 -9 -3z"/>
<path d="M1573 255 c-10 -11 -9 -13 6 -12 11 1 17 7 14 14 -6 16 -5 16 -20 -2z"/>
<path d="M669 180 c13 -11 28 -20 35 -19 6 0 1 5 -11 11 -13 6 -23 15 -23 20
0 4 -6 8 -12 8 -7 -1 -2 -10 11 -20z"/>
<path d="M640 170 c0 -5 5 -10 11 -10 5 0 7 5 4 10 -3 6 -8 10 -11 10 -2 0 -4
-4 -4 -10z"/>
<path d="M729 146 c6 -7 9 -21 5 -30 -3 -9 -1 -16 5 -16 17 0 13 47 -5 54 -14
5 -15 4 -5 -8z"/>
<path d="M780 120 c0 -5 5 -10 11 -10 5 0 7 5 4 10 -3 6 -8 10 -11 10 -2 0 -4
-4 -4 -10z"/>
<path d="M1186 35 c-19 -14 -18 -15 15 -14 27 0 30 2 14 9 -16 6 -10 9 25 12
l45 5 -40 1 c-22 1 -49 -5 -59 -13z"/>
<path d="M960 28 c0 -10 71 -10 87 0 6 4 -11 7 -38 7 -27 0 -49 -3 -49 -7z"/>
<path d="M1128 23 c7 -3 16 -2 19 1 4 3 -2 6 -13 5 -11 0 -14 -3 -6 -6z"/>
</g>
</svg>
