<?xml version="1.0" standalone="no"?>
<!DOCTYPE svg PUBLIC "-//W3C//DTD SVG 20010904//EN"
 "http://www.w3.org/TR/2001/REC-SVG-20010904/DTD/svg10.dtd">
<svg version="1.0" xmlns="http://www.w3.org/2000/svg"
 width="180.000000pt" height="180.000000pt" viewBox="0 0 180.000000 180.000000"
 preserveAspectRatio="xMidYMid meet">
<metadata>
Created by potrace 1.16, written by Peter Selinger 2001-2019
</metadata>
<g transform="translate(0.000000,180.000000) scale(0.100000,-0.100000)"
fill="#000000" stroke="none">
<path d="M905 1649 c-315 -29 -578 -203 -661 -438 -34 -96 -34 -246 1 -365 50
-172 154 -337 301 -476 169 -160 318 -230 495 -230 77 0 181 20 201 38 4 4
-37 7 -90 8 -160 1 -288 57 -428 187 -86 80 -158 183 -203 290 -99 240 -93
463 19 636 123 191 364 311 621 311 44 0 78 4 75 9 -15 24 -209 42 -331 30z
m35 -39 c-366 -95 -568 -393 -506 -748 58 -335 274 -598 560 -684 l61 -18 -58
6 c-322 32 -685 413 -747 783 -54 326 211 609 628 670 31 5 75 9 97 9 34 1 28
-2 -35 -18z"/>
<path d="M1020 1405 c-163 -30 -315 -137 -379 -267 -141 -287 82 -758 414
-873 66 -23 188 -30 245 -15 33 8 58 26 93 62 26 28 47 54 47 58 0 4 -26 -2
-57 -13 -165 -56 -364 34 -449 201 -27 53 -29 66 -29 167 0 103 2 114 32 177
95 201 323 278 515 176 54 -28 105 -76 135 -124 10 -17 12 -14 12 23 3 208
-140 385 -346 428 -82 18 -134 17 -233 0z m235 -29 c28 -7 73 -24 100 -38 53
-27 142 -114 168 -164 17 -33 48 -134 42 -134 -3 0 -25 15 -49 34 -73 56 -126
71 -246 71 -98 0 -110 -3 -171 -32 -304 -148 -306 -619 -4 -759 59 -27 166
-45 224 -37 53 7 52 -3 -1 -27 -62 -28 -169 -27 -250 3 -177 64 -336 238 -408
448 -67 193 -41 354 77 480 75 80 178 135 298 159 64 13 166 11 220 -4z"/>
<path d="M1209 987 c-129 -48 -209 -157 -209 -282 0 -106 65 -216 160 -269 51
-29 62 -31 150 -31 135 0 166 16 203 110 35 87 77 256 77 310 0 35 -6 47 -42
82 -68 65 -119 86 -218 90 -55 2 -98 -2 -121 -10z m175 -22 c61 -16 132 -59
164 -99 23 -30 18 -80 -23 -221 -45 -154 -60 -182 -114 -202 -172 -66 -365 60
-379 247 -4 57 -1 76 18 115 40 82 116 143 207 164 55 13 63 13 127 -4z"/>
</g>
</svg>
