<?xml version="1.0" standalone="no"?>
<!DOCTYPE svg PUBLIC "-//W3C//DTD SVG 20010904//EN"
 "http://www.w3.org/TR/2001/REC-SVG-20010904/DTD/svg10.dtd">
<svg version="1.0" xmlns="http://www.w3.org/2000/svg"
 width="192.000000pt" height="192.000000pt" viewBox="0 0 192.000000 192.000000"
 preserveAspectRatio="xMidYMid meet">
<metadata>
Created by potrace 1.16, written by Peter Selinger 2001-2019
</metadata>
<g transform="translate(0.000000,192.000000) scale(0.100000,-0.100000)"
fill="#000000" stroke="none">
<path d="M730 1590 c-8 -5 -10 -10 -5 -10 6 0 17 5 25 10 8 5 11 10 5 10 -5 0
-17 -5 -25 -10z"/>
<path d="M870 1591 c10 -7 -1 -9 -40 -6 -36 3 -50 1 -40 -5 11 -7 8 -10 -13
-10 -16 0 -26 -4 -22 -10 3 -5 -1 -10 -10 -10 -9 0 -13 5 -10 10 3 6 1 10 -4
10 -6 0 -11 -6 -11 -12 -1 -14 -87 -58 -114 -58 -24 0 -50 -27 -33 -33 7 -3 5
-6 -5 -6 -10 -1 -27 -14 -40 -31 -12 -16 -27 -30 -34 -30 -12 0 -29 -28 -26
-42 1 -4 -5 -5 -13 -2 -11 5 -13 2 -9 -10 8 -20 0 -20 -21 0 -15 15 -15 14 -9
-10 4 -16 1 -32 -6 -41 -10 -12 -10 -15 1 -15 12 0 12 -2 0 -9 -8 -5 -10 -14
-6 -21 5 -8 4 -11 -3 -6 -7 4 -13 -7 -17 -31 -9 -51 -13 -62 -14 -35 -1 12 -6
22 -12 22 -7 0 -8 -12 -4 -32 4 -18 9 -44 11 -58 4 -22 3 -23 -5 -5 -8 16 -10
13 -10 -20 0 -26 2 -35 8 -27 5 9 11 -11 15 -55 4 -37 15 -92 25 -120 10 -29
14 -53 9 -53 -4 0 -8 -7 -8 -15 0 -8 6 -12 13 -9 8 3 14 -2 14 -13 -1 -59 4
-72 26 -75 14 -2 23 -11 25 -25 2 -13 10 -23 19 -23 10 0 13 -6 9 -16 -4 -12
-2 -15 9 -10 8 3 14 1 12 -3 -3 -11 50 -71 63 -71 6 0 10 -8 10 -18 0 -9 9
-23 20 -30 12 -7 18 -18 14 -24 -5 -8 -2 -9 9 -5 10 3 17 2 17 -3 0 -6 -5 -10
-12 -10 -6 0 -3 -6 7 -14 11 -8 25 -12 32 -9 8 3 13 -2 13 -14 0 -24 18 -43
36 -36 7 2 23 -2 36 -11 12 -9 32 -16 43 -16 16 0 17 -2 5 -10 -12 -8 -11 -10
7 -10 21 0 51 -10 102 -34 21 -10 101 -11 274 -4 43 2 61 11 37 20 -6 2 -5 9
1 18 8 11 12 12 16 3 2 -7 9 -13 14 -13 14 0 11 38 -3 44 -7 3 -6 4 4 3 18 -2
118 69 118 84 0 5 7 9 15 9 9 0 15 6 13 13 -4 20 26 57 47 57 16 0 17 2 6 9
-12 8 -13 14 -3 36 7 15 9 31 6 37 -4 7 -2 8 4 4 8 -5 12 0 12 13 0 12 3 20 8
20 19 -3 23 2 11 17 -10 13 -10 17 0 24 8 4 10 13 6 19 -4 7 -1 19 6 27 7 9
15 53 17 102 3 48 8 89 12 92 12 9 31 101 23 113 -5 7 -11 -4 -15 -28 -5 -31
-6 -27 -3 18 2 31 -1 57 -6 57 -5 0 -9 7 -9 15 0 9 -9 35 -20 57 -11 23 -20
46 -20 51 0 5 -16 24 -35 43 -21 19 -33 39 -29 47 4 11 -1 13 -22 9 -16 -3
-25 -1 -21 5 3 5 -25 20 -64 33 -44 14 -68 27 -67 36 2 7 -1 12 -7 11 -5 -1
-9 -5 -8 -9 2 -5 -9 -8 -23 -8 -21 0 -24 3 -15 14 10 12 0 13 -59 11 -39 -2
-74 -6 -78 -10 -4 -4 12 -5 35 -1 24 3 44 2 48 -4 6 -9 -81 -15 -144 -10 -14
1 -21 -2 -17 -9 4 -6 0 -11 -8 -11 -9 0 -16 6 -16 13 0 6 -5 4 -11 -5 -6 -12
-22 -18 -46 -18 -26 0 -34 -4 -30 -14 7 -19 -28 -27 -49 -12 -14 11 -15 15 -3
34 16 26 31 29 22 6 -4 -12 -2 -15 8 -12 8 3 14 11 14 19 0 8 15 22 34 31 32
17 35 17 47 0 7 -9 16 -14 20 -9 4 4 2 7 -4 7 -7 0 -12 7 -12 15 0 8 7 15 16
15 8 0 12 -4 9 -10 -3 -5 1 -10 9 -10 10 0 13 6 9 16 -5 14 -2 16 18 11 53
-13 105 -17 84 -8 -11 5 -30 10 -42 10 -13 1 -23 6 -23 12 0 8 13 9 40 5 25
-4 40 -2 40 4 0 6 27 10 64 10 65 0 78 6 90 47 6 18 4 21 -16 16 -22 -4 -22
-4 -5 10 14 11 15 17 6 23 -7 4 -15 2 -17 -4 -2 -7 -13 -12 -25 -12 -14 0 -18
3 -10 8 7 4 -70 9 -170 10 -123 2 -177 -1 -167 -7z m347 -41 c51 -18 29 -30
-41 -23 -145 13 -364 -79 -458 -192 -36 -44 -74 -113 -93 -170 -22 -62 -21
-208 0 -292 39 -152 153 -316 282 -404 80 -55 158 -80 245 -78 43 1 78 -2 79
-7 1 -20 -88 -35 -186 -32 -93 3 -106 6 -185 44 -96 46 -195 123 -257 199 -56
70 -125 180 -147 235 -10 25 -22 52 -26 61 -18 35 -31 195 -21 256 33 206 220
363 491 413 60 11 277 4 317 -10z m103 -203 c49 -24 90 -56 128 -102 33 -38
80 -194 82 -267 0 -20 -18 -4 -38 31 -22 38 -44 57 -112 94 -52 29 -180 29
-240 1 -59 -29 -114 -83 -147 -147 -24 -45 -28 -64 -28 -137 0 -70 4 -94 24
-134 21 -43 60 -89 102 -121 53 -41 205 -60 264 -33 43 19 41 0 -5 -47 -49
-50 -88 -65 -165 -65 -265 3 -507 313 -481 618 7 83 31 140 83 202 37 42 117
96 160 106 16 4 33 10 38 14 18 15 59 18 170 16 97 -2 117 -5 165 -29z m-513
9 c-4 -10 -1 -13 7 -10 7 3 16 -2 19 -10 4 -10 1 -16 -7 -16 -15 0 -66 -55
-66 -71 0 -5 -4 -8 -10 -4 -5 3 -7 12 -3 20 3 8 1 15 -4 15 -14 0 -33 -23 -33
-39 0 -14 2 -14 11 -1 9 13 10 13 5 0 -3 -8 -9 -23 -12 -32 -4 -10 -13 -18
-21 -18 -8 0 -13 -7 -11 -17 2 -10 -3 -23 -12 -30 -13 -11 -12 -12 5 -13 13 0
16 -3 8 -8 -6 -4 -11 -14 -10 -22 1 -8 -2 -35 -6 -60 -7 -41 2 -145 18 -210 6
-22 5 -23 -6 -6 -14 23 -31 146 -33 241 -1 76 20 137 51 149 14 6 15 9 4 15
-11 7 -10 13 4 35 10 14 24 26 31 26 8 0 14 7 14 16 0 11 6 14 20 9 16 -5 20
-2 20 18 0 22 7 37 18 37 2 0 2 -7 -1 -14z m463 -266 c0 -5 -12 -11 -27 -12
-41 -2 -47 -3 -60 -11 -6 -4 -14 -3 -18 3 -6 9 10 15 65 23 14 3 28 5 33 6 4
0 7 -3 7 -9z m37 -6 c-3 -3 -12 -4 -19 -1 -8 3 -5 6 6 6 11 1 17 -2 13 -5z
m-167 -28 c0 -2 -6 -9 -13 -15 -10 -8 -14 -7 -14 4 0 8 6 15 14 15 7 0 13 -2
13 -4z m271 -42 c22 -14 54 -38 71 -54 29 -29 31 -33 25 -87 -7 -64 -46 -197
-75 -257 -23 -47 -68 -66 -160 -66 -105 0 -188 55 -233 155 -20 44 -27 175 -9
175 6 0 10 9 10 19 0 24 80 108 117 122 89 36 191 33 254 -7z m-370 -47 c-10
-9 -11 -8 -5 6 3 10 9 15 12 12 3 -3 0 -11 -7 -18z m-581 -222 c0 -8 -4 -15
-10 -15 -5 0 -10 7 -10 15 0 8 5 15 10 15 6 0 10 -7 10 -15z m285 -323 c-3 -3
-11 0 -18 7 -9 10 -8 11 6 5 10 -3 15 -9 12 -12z"/>
<path d="M718 1453 c7 -3 16 -2 19 1 4 3 -2 6 -13 5 -11 0 -14 -3 -6 -6z"/>
<path d="M758 1443 c7 -3 16 -2 19 1 4 3 -2 6 -13 5 -11 0 -14 -3 -6 -6z"/>
<path d="M625 1390 c3 -5 8 -10 11 -10 2 0 4 5 4 10 0 6 -5 10 -11 10 -5 0 -7
-4 -4 -10z"/>
<path d="M585 1370 c-3 -5 -2 -10 4 -10 5 0 13 5 16 10 3 6 2 10 -4 10 -5 0
-13 -4 -16 -10z"/>
<path d="M540 1324 c0 -8 5 -12 10 -9 6 4 8 11 5 16 -9 14 -15 11 -15 -7z"/>
<path d="M640 1320 c0 -5 5 -10 11 -10 5 0 7 5 4 10 -3 6 -8 10 -11 10 -2 0
-4 -4 -4 -10z"/>
<path d="M578 1273 c7 -3 16 -2 19 1 4 3 -2 6 -13 5 -11 0 -14 -3 -6 -6z"/>
<path d="M600 1249 c0 -5 5 -7 10 -4 6 3 10 8 10 11 0 2 -4 4 -10 4 -5 0 -10
-5 -10 -11z"/>
<path d="M561 1224 c0 -11 3 -14 6 -6 3 7 2 16 -1 19 -3 4 -6 -2 -5 -13z"/>
<path d="M471 1124 c0 -11 3 -14 6 -6 3 7 2 16 -1 19 -3 4 -6 -2 -5 -13z"/>
<path d="M452 1085 c0 -16 2 -22 5 -12 2 9 2 23 0 30 -3 6 -5 -1 -5 -18z"/>
<path d="M455 1039 c-11 -17 1 -21 15 -4 8 9 8 15 2 15 -6 0 -14 -5 -17 -11z"/>
<path d="M471 994 c0 -11 3 -14 6 -6 3 7 2 16 -1 19 -3 4 -6 -2 -5 -13z"/>
<path d="M561 924 c0 -11 3 -14 6 -6 3 7 2 16 -1 19 -3 4 -6 -2 -5 -13z"/>
<path d="M571 883 c0 -12 -4 -30 -7 -40 -5 -17 -5 -17 6 0 6 10 9 28 7 40 -4
22 -4 22 -6 0z"/>
<path d="M510 796 c0 -2 9 -6 20 -9 11 -3 18 -1 14 4 -5 9 -34 13 -34 5z"/>
<path d="M571 704 c-1 -17 36 -47 51 -41 9 4 8 6 -3 6 -9 1 -24 11 -32 24 -9
12 -16 17 -16 11z"/>
<path d="M631 703 c0 -5 4 -17 9 -28 8 -18 9 -17 9 8 1 15 -3 27 -9 27 -5 0
-10 -3 -9 -7z"/>
<path d="M750 553 c0 -11 38 -49 43 -42 2 2 -7 15 -20 28 -13 13 -23 20 -23
14z"/>
<path d="M1200 1314 c0 -8 5 -12 10 -9 6 3 10 10 10 16 0 5 -4 9 -10 9 -5 0
-10 -7 -10 -16z"/>
<path d="M955 1301 c-6 -11 13 -26 22 -17 4 3 0 6 -8 7 -8 1 -3 5 11 9 23 7
23 8 3 9 -12 1 -24 -3 -28 -8z"/>
<path d="M1285 1300 c3 -5 11 -10 16 -10 6 0 7 5 4 10 -3 6 -11 10 -16 10 -6
0 -7 -4 -4 -10z"/>
<path d="M840 1216 c0 -2 9 -6 20 -9 11 -3 18 -1 14 4 -5 9 -34 13 -34 5z"/>
<path d="M1235 1190 c3 -5 12 -7 20 -3 21 7 19 13 -6 13 -11 0 -18 -4 -14 -10z"/>
<path d="M1120 1179 c0 -5 5 -7 10 -4 6 3 10 8 10 11 0 2 -4 4 -10 4 -5 0 -10
-5 -10 -11z"/>
<path d="M1160 1174 c0 -8 5 -12 10 -9 6 3 10 10 10 16 0 5 -4 9 -10 9 -5 0
-10 -7 -10 -16z"/>
<path d="M780 1138 c0 -7 4 -19 9 -27 7 -10 9 -7 8 12 -2 26 -17 39 -17 15z"/>
<path d="M759 1098 c4 -28 6 -29 9 -9 2 13 0 27 -5 32 -6 6 -7 -3 -4 -23z"/>
<path d="M1040 1109 c0 -5 5 -7 10 -4 6 3 10 8 10 11 0 2 -4 4 -10 4 -5 0 -10
-5 -10 -11z"/>
<path d="M785 1050 c-3 -5 -1 -10 4 -10 6 0 11 5 11 10 0 6 -2 10 -4 10 -3 0
-8 -4 -11 -10z"/>
<path d="M895 880 c-4 -17 -5 -34 -2 -36 2 -3 7 10 11 27 3 18 4 34 2 36 -2 3
-7 -10 -11 -27z"/>
<path d="M751 844 c0 -11 3 -14 6 -6 3 7 2 16 -1 19 -3 4 -6 -2 -5 -13z"/>
<path d="M791 814 c0 -11 3 -14 6 -6 3 7 2 16 -1 19 -3 4 -6 -2 -5 -13z"/>
<path d="M882 770 c0 -19 2 -27 5 -17 2 9 2 25 0 35 -3 9 -5 1 -5 -18z"/>
<path d="M787 783 c-4 -3 -7 -11 -7 -17 0 -6 5 -5 12 2 6 6 9 14 7 17 -3 3 -9
2 -12 -2z"/>
<path d="M830 700 c6 -11 12 -20 14 -20 2 0 2 9 -1 20 -3 11 -9 20 -15 20 -5
0 -4 -9 2 -20z"/>
<path d="M860 709 c0 -5 5 -7 10 -4 6 3 10 8 10 11 0 2 -4 4 -10 4 -5 0 -10
-5 -10 -11z"/>
<path d="M925 630 c3 -5 8 -10 11 -10 2 0 4 5 4 10 0 6 -5 10 -11 10 -5 0 -7
-4 -4 -10z"/>
<path d="M905 600 c3 -5 11 -10 16 -10 6 0 7 5 4 10 -3 6 -11 10 -16 10 -6 0
-7 -4 -4 -10z"/>
<path d="M964 598 c12 -7 21 -7 28 0 6 6 0 10 -18 10 -23 0 -24 -2 -10 -10z"/>
<path d="M985 560 c4 -6 11 -8 16 -5 14 9 11 15 -7 15 -8 0 -12 -5 -9 -10z"/>
<path d="M1085 520 c3 -5 8 -10 11 -10 2 0 4 5 4 10 0 6 -5 10 -11 10 -5 0 -7
-4 -4 -10z"/>
<path d="M1060 490 c0 -13 11 -13 30 0 12 8 11 10 -7 10 -13 0 -23 -4 -23 -10z"/>
<path d="M1117 483 c-3 -5 11 -9 31 -10 26 -1 32 1 22 7 -18 12 -47 13 -53 3z"/>
<path d="M652 1090 c0 -14 2 -19 5 -12 2 6 2 18 0 25 -3 6 -5 1 -5 -13z"/>
<path d="M1233 1003 c9 -2 25 -2 35 0 9 3 1 5 -18 5 -19 0 -27 -2 -17 -5z"/>
<path d="M1218 963 c7 -3 16 -2 19 1 4 3 -2 6 -13 5 -11 0 -14 -3 -6 -6z"/>
<path d="M1441 894 c0 -11 3 -14 6 -6 3 7 2 16 -1 19 -3 4 -6 -2 -5 -13z"/>
<path d="M1088 883 c7 -3 16 -2 19 1 4 3 -2 6 -13 5 -11 0 -14 -3 -6 -6z"/>
<path d="M1461 864 c0 -11 3 -14 6 -6 3 7 2 16 -1 19 -3 4 -6 -2 -5 -13z"/>
<path d="M1106 705 c4 -8 8 -15 10 -15 2 0 4 7 4 15 0 8 -4 15 -10 15 -5 0 -7
-7 -4 -15z"/>
<path d="M1410 709 c0 -5 5 -7 10 -4 6 3 10 8 10 11 0 2 -4 4 -10 4 -5 0 -10
-5 -10 -11z"/>
<path d="M1380 680 c-13 -8 -13 -10 2 -10 9 0 20 5 23 10 8 13 -5 13 -25 0z"/>
<path d="M1170 629 c0 -5 5 -7 10 -4 6 3 10 8 10 11 0 2 -4 4 -10 4 -5 0 -10
-5 -10 -11z"/>
<path d="M1328 633 c6 -2 18 -2 25 0 6 3 1 5 -13 5 -14 0 -19 -2 -12 -5z"/>
<path d="M1225 610 c-3 -5 1 -10 9 -10 9 0 16 5 16 10 0 6 -4 10 -9 10 -6 0
-13 -4 -16 -10z"/>
<path d="M1368 613 c7 -3 16 -2 19 1 4 3 -2 6 -13 5 -11 0 -14 -3 -6 -6z"/>
<path d="M486 1425 c4 -8 10 -12 15 -9 11 6 2 24 -11 24 -5 0 -7 -7 -4 -15z"/>
<path d="M1288 1433 c7 -3 16 -2 19 1 4 3 -2 6 -13 5 -11 0 -14 -3 -6 -6z"/>
<path d="M1330 1425 c0 -7 -8 -16 -17 -18 -17 -4 -17 -5 0 -6 10 0 25 5 32 13
12 12 12 15 0 20 -9 3 -15 0 -15 -9z"/>
<path d="M845 1360 c4 -6 11 -8 16 -5 14 9 11 15 -7 15 -8 0 -12 -5 -9 -10z"/>
<path d="M322 1175 c0 -16 2 -22 5 -12 2 9 2 23 0 30 -3 6 -5 -1 -5 -18z"/>
<path d="M327 1030 c7 -56 10 -60 19 -25 4 15 2 30 -3 34 -6 3 -13 13 -16 21
-3 8 -3 -5 0 -30z"/>
<path d="M1580 980 c0 -11 4 -20 9 -20 5 0 7 9 4 20 -3 11 -7 20 -9 20 -2 0
-4 -9 -4 -20z"/>
<path d="M401 754 c0 -11 3 -14 6 -6 3 7 2 16 -1 19 -3 4 -6 -2 -5 -13z"/>
<path d="M1505 642 c-17 -12 -17 -59 -1 -65 18 -7 20 1 6 23 -5 9 -5 19 2 27
12 15 7 25 -7 15z"/>
<path d="M560 550 c0 -12 11 -33 25 -48 20 -21 25 -23 25 -10 0 9 -7 21 -15
26 -9 4 -17 18 -18 30 -2 28 -17 29 -17 2z"/>
<path d="M640 410 c0 -5 5 -10 10 -10 6 0 10 5 10 10 0 6 -4 10 -10 10 -5 0
-10 -4 -10 -10z"/>
<path d="M800 340 c0 -5 5 -10 11 -10 5 0 7 5 4 10 -3 6 -8 10 -11 10 -2 0 -4
-4 -4 -10z"/>
<path d="M835 339 c-9 -14 -2 -20 14 -10 8 6 9 11 3 15 -6 3 -14 1 -17 -5z"/>
<path d="M870 330 c0 -6 7 -10 15 -10 8 0 15 2 15 4 0 2 -7 6 -15 10 -8 3 -15
1 -15 -4z"/>
</g>
</svg>
