<?xml version="1.0" standalone="no"?>
<!DOCTYPE svg PUBLIC "-//W3C//DTD SVG 20010904//EN"
 "http://www.w3.org/TR/2001/REC-SVG-20010904/DTD/svg10.dtd">
<svg version="1.0" xmlns="http://www.w3.org/2000/svg"
 width="256.000000pt" height="256.000000pt" viewBox="0 0 256.000000 256.000000"
 preserveAspectRatio="xMidYMid meet">
<metadata>
Created by potrace 1.16, written by Peter Selinger 2001-2019
</metadata>
<g transform="translate(0.000000,256.000000) scale(0.100000,-0.100000)"
fill="#000000" stroke="none">
<path d="M1176 2549 c-589 -76 -1042 -380 -1150 -770 -26 -97 -28 -109 -12
-109 8 0 16 15 20 40 29 183 194 410 398 548 202 136 512 245 765 269 43 4 63
10 63 19 0 8 -3 13 -7 13 -5 -1 -39 -6 -77 -10z"/>
<path d="M1610 2544 c0 -9 11 -14 33 -14 17 -1 59 -7 92 -14 l60 -12 -140 -7
c-538 -25 -1007 -304 -1155 -689 -46 -119 -60 -203 -60 -356 0 -279 89 -524
280 -777 242 -319 578 -514 936 -541 l99 -8 -55 -14 c-79 -20 -306 -20 -397 1
-577 131 -1161 713 -1265 1260 -7 40 -18 67 -25 67 -14 0 -11 -22 19 -143 131
-535 706 -1087 1251 -1203 164 -34 368 -27 501 17 113 39 107 44 -53 45 -161
2 -262 22 -415 83 -323 129 -629 444 -771 793 -79 193 -106 435 -70 607 85
404 433 698 962 811 69 15 151 23 276 27 97 3 177 9 177 14 0 15 -120 46 -242
63 -29 3 -38 1 -38 -10z"/>
<path d="M1536 2179 c-111 -12 -275 -55 -377 -98 -234 -101 -391 -268 -461
-491 -20 -64 -23 -94 -22 -210 1 -112 6 -152 28 -233 56 -207 184 -426 346
-588 116 -117 197 -174 331 -238 145 -69 254 -94 404 -95 153 -1 246 21 304
71 44 37 151 159 151 172 0 4 -33 -4 -72 -17 -108 -36 -273 -42 -388 -13 -140
35 -242 91 -335 185 -126 127 -175 242 -175 411 0 171 56 301 185 430 89 89
170 138 295 176 101 32 277 32 393 1 147 -40 299 -140 375 -247 l21 -30 1 91
c1 312 -206 581 -525 683 -145 47 -296 59 -479 40z m279 -20 c345 -42 609
-256 686 -557 10 -41 19 -94 19 -116 l0 -41 -61 57 c-73 68 -189 131 -296 160
-118 32 -330 32 -433 0 -125 -40 -207 -88 -295 -177 -134 -134 -185 -257 -185
-450 0 -191 44 -299 175 -431 92 -93 194 -150 329 -184 88 -22 256 -27 346
-10 29 6 56 7 59 4 3 -3 -24 -34 -60 -68 -60 -57 -74 -65 -140 -82 -166 -42
-365 -14 -558 77 -134 64 -215 121 -331 238 -162 162 -291 382 -346 588 -37
137 -39 296 -5 403 69 222 226 390 460 491 140 60 339 103 501 108 25 0 86 -4
135 -10z"/>
<path d="M1830 1484 c-192 -51 -339 -176 -400 -339 -30 -81 -31 -206 -1 -289
63 -178 233 -320 433 -362 136 -29 371 1 431 54 59 53 189 394 222 589 l18
102 -34 38 c-91 102 -211 177 -334 208 -76 19 -261 19 -335 -1z m315 -19 c122
-31 243 -106 332 -205 l32 -36 -19 -94 c-37 -191 -161 -512 -217 -562 -29 -26
-152 -59 -238 -65 -371 -23 -695 322 -584 623 59 161 208 287 399 338 73 19
221 20 295 1z"/>
</g>
</svg>
