<?xml version="1.0" standalone="no"?>
<!DOCTYPE svg PUBLIC "-//W3C//DTD SVG 20010904//EN"
 "http://www.w3.org/TR/2001/REC-SVG-20010904/DTD/svg10.dtd">
<svg version="1.0" xmlns="http://www.w3.org/2000/svg"
 width="192.000000pt" height="192.000000pt" viewBox="0 0 192.000000 192.000000"
 preserveAspectRatio="xMidYMid meet">
<metadata>
Created by potrace 1.16, written by Peter Selinger 2001-2019
</metadata>
<g transform="translate(0.000000,192.000000) scale(0.100000,-0.100000)"
fill="#000000" stroke="none">
<path d="M825 1905 c-64 -12 -102 -22 -222 -57 -24 -7 -43 -16 -43 -20 0 -4
-7 -8 -16 -8 -17 0 -149 -66 -170 -85 -6 -5 -22 -17 -35 -25 -27 -18 -90 -72
-134 -116 -39 -38 -125 -166 -125 -186 0 -7 -6 -22 -14 -33 -7 -11 -21 -54
-31 -95 -34 -141 -20 -392 32 -540 25 -73 28 -81 74 -173 24 -48 48 -96 54
-107 5 -11 13 -20 17 -20 5 0 8 -5 8 -11 0 -10 50 -77 125 -168 82 -100 272
-261 307 -261 10 0 18 2 18 4 0 2 -34 30 -76 62 -71 53 -181 157 -229 215 -75
91 -125 158 -125 168 0 6 -3 11 -8 11 -4 0 -12 9 -17 20 -6 11 -30 59 -54 107
-46 92 -49 100 -74 173 -50 144 -64 373 -31 505 9 39 23 79 31 90 7 11 13 26
13 33 0 20 86 148 125 186 44 44 107 98 134 116 13 8 29 20 35 25 21 19 153
85 170 85 9 0 16 4 16 8 0 13 190 65 301 82 122 19 397 8 482 -19 95 -31 91
-51 -10 -51 -123 -1 -344 -37 -368 -61 -5 -5 -17 -9 -26 -9 -22 0 -219 -98
-219 -110 0 -5 -8 -11 -17 -14 -10 -3 -38 -24 -63 -46 -25 -22 -48 -40 -52
-40 -5 0 -8 -7 -8 -15 0 -8 -4 -15 -9 -15 -16 0 -107 -133 -136 -199 -63 -145
-86 -331 -56 -461 17 -75 67 -234 88 -278 17 -39 113 -203 122 -212 3 -3 24
-27 46 -55 46 -57 113 -125 171 -173 44 -37 167 -112 183 -112 6 0 11 -4 11
-10 0 -5 5 -10 10 -10 6 0 10 7 10 14 0 13 4 13 35 0 19 -7 51 -14 72 -13 37
0 37 0 -23 23 -63 23 -149 70 -172 93 -7 7 -17 13 -22 13 -5 0 -48 40 -97 89
-84 84 -187 235 -223 326 -67 165 -83 243 -84 390 0 133 15 207 62 302 31 63
111 159 178 213 36 29 205 110 230 110 14 0 33 4 42 9 39 21 238 33 339 21 54
-7 103 -15 108 -20 6 -4 24 -10 40 -14 17 -4 56 -23 87 -42 176 -107 278 -292
278 -505 0 -98 -8 -120 -30 -78 -29 53 -90 111 -162 154 -90 53 -141 67 -251
67 -94 0 -102 -2 -174 -37 -123 -61 -188 -125 -245 -243 -93 -192 -59 -411 85
-553 71 -70 72 -71 153 -110 61 -29 80 -34 171 -37 88 -4 112 -1 168 19 35 12
67 20 71 17 10 -10 -4 -41 -34 -75 -15 -17 -40 -48 -57 -68 -16 -20 -43 -43
-60 -50 l-30 -14 35 -1 c29 0 41 7 70 41 19 23 40 46 45 53 37 41 55 72 55 96
0 19 6 29 19 33 21 5 70 93 90 162 7 22 16 49 20 60 55 140 89 373 61 426 -8
15 -7 19 5 19 13 0 15 19 15 119 0 100 -4 133 -25 199 -29 91 -88 189 -152
249 -52 50 -145 108 -188 119 -16 4 -35 10 -40 15 -6 4 -59 13 -118 20 -84 9
-134 9 -229 0 -67 -7 -130 -17 -140 -22 -9 -5 -28 -9 -42 -9 -25 0 -194 -81
-230 -110 -67 -54 -147 -150 -178 -213 -49 -99 -62 -169 -62 -322 0 -167 15
-240 84 -410 25 -63 133 -233 178 -281 26 -27 54 -58 62 -69 45 -60 -97 78
-157 153 -21 26 -41 49 -44 52 -9 9 -105 173 -122 212 -21 45 -71 205 -87 277
-27 120 -6 281 55 422 29 66 120 199 136 199 5 0 9 7 9 15 0 8 3 15 8 15 4 0
27 18 52 40 25 22 53 43 63 46 9 3 17 9 17 14 0 12 197 110 219 110 9 0 21 4
27 9 23 24 244 60 367 61 l77 0 0 35 c0 33 -1 35 -67 56 -60 20 -93 23 -278
25 -146 2 -231 -1 -280 -11z m808 -815 c68 -34 152 -97 112 -83 -11 4 -22 9
-25 13 -18 21 -126 40 -227 40 -127 0 -192 -16 -270 -66 -83 -53 -134 -114
-164 -197 -25 -68 -27 -275 -3 -332 26 -62 9 -49 -22 18 -27 57 -29 71 -29
172 0 109 0 111 42 195 58 119 121 183 244 244 73 37 75 38 174 34 90 -4 107
-7 168 -38z m6 -67 c31 -10 58 -21 59 -25 2 -5 9 -8 16 -8 15 0 46 -24 95 -71
59 -56 71 -79 71 -132 0 -65 -38 -240 -71 -322 -4 -11 -13 -38 -20 -60 -25
-83 -67 -153 -101 -168 -121 -54 -214 -60 -333 -21 -79 25 -125 53 -176 106
-90 91 -119 165 -119 303 0 135 29 213 113 298 32 32 122 85 173 100 69 22
223 21 293 0z m-758 -890 l24 -26 -27 19 c-15 10 -28 22 -28 27 0 12 5 8 31
-20z m54 -41 c-3 -3 -11 0 -18 7 -9 10 -8 11 6 5 10 -3 15 -9 12 -12z"/>
</g>
</svg>
