<?xml version="1.0" standalone="no"?>
<!DOCTYPE svg PUBLIC "-//W3C//DTD SVG 20010904//EN"
 "http://www.w3.org/TR/2001/REC-SVG-20010904/DTD/svg10.dtd">
<svg version="1.0" xmlns="http://www.w3.org/2000/svg"
 width="180.000000pt" height="180.000000pt" viewBox="0 0 180.000000 180.000000"
 preserveAspectRatio="xMidYMid meet">
<metadata>
Created by potrace 1.16, written by Peter Selinger 2001-2019
</metadata>
<g transform="translate(0.000000,180.000000) scale(0.100000,-0.100000)"
fill="#000000" stroke="none">
<path d="M786 1594 c-362 -80 -585 -328 -562 -624 16 -203 114 -404 282 -580
171 -179 348 -270 522 -270 61 0 179 23 195 39 4 4 -30 8 -75 8 -152 2 -287
64 -414 188 -169 167 -264 380 -264 594 0 176 47 291 169 412 133 131 305 202
498 203 57 1 103 4 103 8 0 32 -335 48 -454 22z m164 -25 c-196 -51 -367 -176
-442 -323 -89 -175 -90 -406 -3 -609 64 -150 150 -265 266 -358 68 -56 180
-113 242 -124 21 -4 36 -10 33 -12 -10 -10 -172 29 -231 56 -146 66 -305 208
-408 362 -261 393 -189 750 188 934 122 59 253 91 385 93 42 1 40 0 -30 -19z"/>
<path d="M1005 1375 c-265 -49 -417 -221 -416 -470 1 -385 348 -744 663 -687
59 10 67 15 120 73 59 64 66 79 29 59 -42 -22 -129 -31 -189 -20 -124 23 -222
97 -276 210 -28 59 -31 74 -31 160 0 82 4 103 27 153 35 74 117 160 185 193
71 35 168 43 248 19 75 -21 160 -77 192 -127 14 -21 27 -38 29 -38 8 0 -9 140
-23 185 -46 149 -166 258 -320 290 -82 18 -144 18 -238 0z m254 -34 c33 -10
80 -30 105 -45 83 -48 168 -170 183 -260 l6 -38 -49 35 c-133 95 -319 99 -451
12 -259 -172 -233 -585 45 -713 43 -20 79 -27 151 -31 87 -6 92 -7 75 -22 -50
-43 -154 -51 -256 -19 -176 54 -344 235 -418 451 -86 246 -17 453 190 576 35
21 142 58 190 66 67 11 172 6 229 -12z"/>
<path d="M1225 971 c-62 -17 -106 -41 -154 -86 -194 -182 -56 -514 215 -517
87 -1 150 18 173 51 31 45 80 185 102 296 l21 107 -48 49 c-27 28 -72 61 -99
75 -55 26 -158 39 -210 25z m165 -40 c54 -21 133 -79 151 -112 17 -33 -32
-228 -87 -345 -22 -48 -28 -53 -80 -69 -131 -41 -286 36 -346 173 -15 34 -19
60 -16 112 6 112 77 202 190 241 69 24 126 24 188 0z"/>
</g>
</svg>
