<?xml version="1.0" standalone="no"?>
<!DOCTYPE svg PUBLIC "-//W3C//DTD SVG 20010904//EN"
 "http://www.w3.org/TR/2001/REC-SVG-20010904/DTD/svg10.dtd">
<svg version="1.0" xmlns="http://www.w3.org/2000/svg"
 width="192.000000pt" height="192.000000pt" viewBox="0 0 192.000000 192.000000"
 preserveAspectRatio="xMidYMid meet">
<metadata>
Created by potrace 1.16, written by Peter Selinger 2001-2019
</metadata>
<g transform="translate(0.000000,192.000000) scale(0.100000,-0.100000)"
fill="#000000" stroke="none">
<path d="M905 1870 c-320 -29 -580 -161 -724 -368 -30 -43 -76 -138 -85 -176
-45 -186 -11 -465 77 -631 171 -321 400 -536 667 -625 91 -31 97 -32 244 -28
128 3 158 7 199 26 41 18 47 25 47 51 0 28 3 30 45 37 42 6 90 33 107 60 4 7
24 31 43 54 19 23 35 53 35 67 0 16 7 27 18 30 41 10 128 250 158 434 17 100
17 108 1 133 -21 31 -21 36 -2 36 12 0 15 17 15 96 0 249 -130 435 -355 509
-68 22 -95 25 -216 25 -165 0 -250 -18 -376 -81 -105 -53 -191 -136 -239 -234
-130 -264 -49 -643 198 -920 l53 -60 -52 44 c-29 24 -53 47 -53 50 0 3 -19 26
-41 51 -91 102 -159 229 -210 390 -29 94 -33 117 -32 215 1 92 5 122 27 185
46 130 129 248 237 336 35 29 136 87 179 103 19 8 49 20 65 26 65 28 175 48
288 53 l117 5 0 28 c0 34 -16 44 -102 63 -85 19 -223 25 -333 16z m290 -31
c68 -12 125 -34 125 -47 0 -5 -53 -12 -117 -14 -113 -5 -223 -25 -288 -53 -16
-6 -46 -18 -65 -26 -186 -72 -345 -240 -416 -439 -23 -66 -27 -91 -27 -205 -1
-121 1 -137 32 -235 68 -217 174 -380 332 -515 42 -36 96 -75 104 -75 3 0 22
-11 43 -23 78 -50 258 -92 342 -81 65 9 67 -9 3 -38 -39 -18 -72 -22 -179 -26
-125 -4 -134 -3 -224 28 -233 78 -470 281 -611 525 -94 161 -134 278 -147 422
-24 261 48 439 244 599 207 170 558 254 849 203z m180 -284 c169 -56 284 -174
335 -346 21 -68 28 -219 11 -219 -5 0 -21 16 -35 35 -63 82 -133 128 -235 156
-81 23 -123 23 -197 4 -143 -37 -264 -150 -309 -290 -27 -82 -27 -210 0 -288
39 -116 154 -227 276 -267 59 -19 84 -22 152 -17 45 3 99 13 121 22 63 27 61
11 -9 -82 -42 -56 -68 -73 -133 -89 -142 -34 -287 -1 -441 101 -254 167 -431
562 -377 840 34 173 134 307 289 384 122 61 199 79 348 80 110 1 137 -2 204
-24z m47 -391 c75 -19 119 -41 173 -84 22 -18 36 -31 30 -28 -5 2 -32 15 -60
29 -46 22 -62 24 -185 24 -133 0 -137 -1 -201 -32 -78 -39 -141 -102 -175
-177 -39 -86 -43 -224 -8 -321 15 -44 -14 2 -32 50 -25 67 -25 172 1 250 44
136 165 252 302 289 66 18 82 18 155 0z m128 -107 c65 -32 132 -87 160 -131
19 -32 19 -33 0 -137 -21 -117 -65 -259 -106 -341 -25 -52 -31 -57 -88 -77
-168 -59 -364 2 -456 142 -49 75 -63 123 -64 217 0 99 26 169 90 239 79 88
170 122 314 118 80 -2 104 -7 150 -30z"/>
<path d="M905 1830 c-304 -27 -563 -164 -697 -369 -71 -108 -93 -188 -92 -336
0 -66 6 -147 13 -180 30 -135 120 -320 220 -450 150 -197 377 -361 561 -406
97 -24 346 -10 364 20 2 3 -35 7 -82 7 -211 3 -426 130 -595 352 -139 180
-222 438 -209 642 5 82 52 225 99 304 44 74 170 199 246 244 136 81 317 134
464 136 50 1 89 4 87 7 -14 23 -248 41 -379 29z m140 -16 c10 -4 -19 -16 -77
-30 -402 -102 -641 -431 -597 -822 38 -336 256 -657 546 -805 17 -9 69 -28
115 -41 78 -23 80 -25 40 -25 -184 -3 -442 131 -612 316 -188 205 -306 446
-326 666 -34 378 307 696 791 737 50 4 93 8 97 9 3 0 14 -2 23 -5z"/>
<path d="M1080 1561 c-214 -25 -399 -140 -480 -300 -58 -115 -72 -237 -46
-386 19 -104 38 -161 92 -265 137 -268 365 -429 605 -430 108 0 157 20 219 90
29 34 50 63 48 66 -3 2 -22 -3 -44 -13 -27 -12 -66 -17 -129 -17 -74 0 -101 5
-152 26 -182 77 -288 233 -286 423 2 227 154 409 379 455 132 27 323 -51 401
-163 14 -20 27 -36 29 -34 2 1 -1 45 -6 97 -8 81 -15 106 -51 179 -86 174
-226 263 -434 275 -44 2 -109 1 -145 -3z m276 -42 c153 -47 272 -172 319 -332
23 -79 18 -94 -20 -62 -51 45 -165 94 -243 106 -247 37 -479 -137 -522 -392
-53 -314 178 -577 488 -557 l76 5 -36 -32 c-57 -53 -148 -66 -271 -40 -205 43
-384 207 -502 458 -125 267 -106 506 54 679 150 163 435 235 657 167z"/>
<path d="M1279 1065 c-110 -30 -185 -89 -236 -188 -24 -46 -27 -64 -28 -147 0
-88 3 -101 33 -162 40 -82 111 -149 190 -179 74 -28 195 -30 270 -5 48 16 55
23 81 74 52 103 121 351 121 433 0 30 -99 119 -169 152 -73 35 -183 44 -262
22z m238 -40 c64 -29 113 -66 147 -109 l25 -33 -19 -95 c-23 -110 -60 -228
-97 -305 -33 -71 -83 -96 -188 -96 -139 1 -255 74 -317 201 -28 57 -33 77 -33
142 0 91 26 152 95 220 104 105 256 134 387 75z"/>
</g>
</svg>
