<?xml version="1.0" standalone="no"?>
<!DOCTYPE svg PUBLIC "-//W3C//DTD SVG 20010904//EN"
 "http://www.w3.org/TR/2001/REC-SVG-20010904/DTD/svg10.dtd">
<svg version="1.0" xmlns="http://www.w3.org/2000/svg"
 width="256.000000pt" height="256.000000pt" viewBox="0 0 256.000000 256.000000"
 preserveAspectRatio="xMidYMid meet">
<metadata>
Created by potrace 1.16, written by Peter Selinger 2001-2019
</metadata>
<g transform="translate(0.000000,256.000000) scale(0.100000,-0.100000)"
fill="#000000" stroke="none">
<path d="M182 1308 l3 -1033 223 -5 222 -5 0 817 0 818 824 2 c453 2 828 7
833 11 4 5 9 95 11 202 3 167 1 195 -13 209 -15 15 -109 16 -1061 16 l-1044 0
2 -1032z m2093 812 l0 -195 -832 -3 -833 -2 0 -820 0 -820 -205 0 -205 0 0
1020 0 1020 1038 -2 1037 -3 0 -195z"/>
<path d="M919 1676 c-2 -2 -2 -319 1 -703 l5 -698 514 -2 c283 -1 520 1 525 5
6 3 19 8 28 9 35 6 43 8 56 21 8 7 18 9 24 6 6 -4 9 -3 6 2 -4 5 8 20 26 33
18 14 43 39 57 57 13 18 28 30 33 26 5 -3 6 -1 3 5 -4 6 2 27 13 48 29 57 43
140 38 230 -7 130 -59 225 -164 300 l-62 45 36 38 c21 21 42 36 47 33 6 -2 7
-1 3 4 -4 4 1 20 12 35 11 16 20 33 20 40 0 6 3 9 8 7 10 -7 16 36 16 143 1
113 -20 167 -94 241 -80 80 -72 79 -645 79 -276 0 -504 -2 -506 -4z m1070 -51
c64 -36 122 -108 146 -183 35 -106 1 -224 -90 -315 -25 -25 -45 -54 -45 -65 0
-13 19 -34 49 -56 108 -80 167 -175 177 -288 7 -76 -15 -180 -51 -241 -29 -50
-94 -114 -150 -148 l-40 -24 -522 -3 -523 -3 0 681 0 681 498 -3 497 -3 54
-30z"/>
<path d="M1300 1271 l0 -231 133 0 c155 0 209 14 255 64 41 45 50 64 58 123 8
60 -10 145 -38 186 -11 15 -45 39 -76 54 -51 24 -71 27 -194 31 l-138 5 0
-232z m214 202 c4 -4 22 -8 39 -9 38 -1 127 -50 127 -69 0 -7 7 -16 16 -19 9
-3 14 -12 11 -20 -3 -7 -2 -17 3 -22 12 -13 24 -84 14 -84 -5 0 -9 -15 -10
-34 0 -18 -6 -39 -12 -47 -6 -8 -23 -28 -37 -46 -38 -47 -98 -63 -232 -63
l-113 0 0 210 0 210 93 0 c52 0 97 -3 101 -7z"/>
<path d="M1300 678 l0 -228 153 0 c187 0 239 12 290 69 79 87 77 245 -3 322
-50 48 -95 58 -282 62 l-158 3 0 -228z m320 195 c8 -3 21 -7 28 -9 31 -6 93
-56 88 -70 -3 -7 0 -13 6 -11 5 1 12 -5 14 -13 1 -8 6 -26 10 -40 19 -71 6
-136 -39 -184 -52 -57 -93 -69 -259 -74 l-148 -4 0 208 0 209 142 -3 c79 -1
150 -5 158 -9z"/>
</g>
</svg>
