<?xml version="1.0" standalone="no"?>
<!DOCTYPE svg PUBLIC "-//W3C//DTD SVG 20010904//EN"
 "http://www.w3.org/TR/2001/REC-SVG-20010904/DTD/svg10.dtd">
<svg version="1.0" xmlns="http://www.w3.org/2000/svg"
 width="100.000000pt" height="100.000000pt" viewBox="0 0 100.000000 100.000000"
 preserveAspectRatio="xMidYMid meet">
<metadata>
Created by potrace 1.16, written by Peter Selinger 2001-2019
</metadata>
<g transform="translate(0.000000,100.000000) scale(0.100000,-0.100000)"
fill="#000000" stroke="none">
<path d="M357 994 c-4 -4 -7 -83 -7 -175 l0 -168 -87 -3 -88 -3 -3 -72 -3 -72
53 -3 c52 -3 53 -4 50 -32 -3 -30 21 -66 45 -66 7 0 13 -4 13 -8 0 -4 15 -14
34 -20 19 -7 37 -19 40 -27 3 -8 12 -15 21 -15 8 0 15 -4 15 -10 0 -6 -34 -10
-83 -10 -51 0 -88 -5 -95 -12 -9 -9 -12 -9 -12 0 0 9 -30 12 -105 12 l-105 0
0 -124 c0 -91 4 -126 13 -135 9 -6 58 -10 128 -10 100 1 117 3 136 21 l21 20
11 -20 c10 -19 21 -21 108 -21 55 0 104 5 111 11 9 8 16 8 24 0 15 -15 244
-16 253 -2 5 8 11 8 20 0 8 -6 31 -10 52 -8 35 3 38 6 41 37 2 18 -1 38 -7 44
-14 14 -14 47 -1 47 14 0 12 114 -2 128 -8 8 -67 12 -200 12 -119 0 -188 4
-188 10 0 6 6 10 13 10 6 0 23 12 36 25 13 14 32 25 42 25 10 0 19 5 19 10 0
6 6 10 13 10 24 0 48 36 45 66 -3 28 -1 29 47 34 l50 5 0 70 0 70 -92 3 -93 3
-2 172 -3 172 -136 3 c-74 1 -138 -1 -142 -4z m25 -166 c-4 -215 -9 -225 -11
-20 0 94 2 172 7 172 4 0 6 -69 4 -152z m81 145 c-13 -2 -33 -2 -45 0 -13 2
-3 4 22 4 25 0 35 -2 23 -4z m120 0 c-13 -2 -33 -2 -45 0 -13 2 -3 4 22 4 25
0 35 -2 23 -4z m-103 -322 c0 -304 0 -310 20 -308 20 1 20 8 20 309 l0 308 40
0 40 0 0 -165 0 -165 95 0 c78 0 95 -3 95 -15 0 -8 5 -15 10 -15 6 0 10 -4 10
-10 0 -6 -42 -10 -105 -10 -63 0 -105 -4 -105 -10 0 -5 21 -10 48 -10 34 0 43
-3 32 -10 -11 -7 -6 -10 20 -10 26 0 31 3 20 10 -11 7 0 10 38 10 45 0 52 -3
52 -20 0 -19 -7 -20 -105 -20 l-105 0 0 -30 c0 -30 1 -30 55 -30 30 0 55 -4
55 -10 0 -5 -9 -10 -20 -10 -11 0 -20 -4 -20 -10 0 -5 -10 -10 -23 -10 -12 0
-29 -9 -37 -20 -8 -11 -22 -20 -32 -20 -10 0 -18 -5 -18 -11 0 -20 -29 -39
-60 -39 -31 0 -60 19 -60 39 0 6 -9 11 -20 11 -11 0 -20 5 -20 10 0 6 -7 10
-15 10 -8 0 -15 5 -15 10 0 6 -9 10 -20 10 -11 0 -20 5 -20 10 0 6 -9 10 -20
10 -11 0 -20 5 -20 10 0 6 23 10 51 10 31 0 48 -4 44 -10 -3 -5 -1 -10 4 -10
6 0 11 18 11 40 l0 40 -105 0 c-98 0 -105 1 -105 20 0 17 7 20 53 20 37 0 48
-3 37 -10 -11 -7 -6 -10 20 -10 26 0 31 3 20 10 -11 7 -2 10 33 10 26 0 47 5
47 10 0 6 -42 10 -105 10 -63 0 -105 4 -105 10 0 6 5 10 10 10 6 0 10 7 10 15
0 12 17 15 95 15 l95 0 0 165 0 165 40 0 40 0 0 -309z m137 77 c-1 -46 -3 -11
-3 77 0 88 2 125 3 83 2 -42 2 -114 0 -160z m-240 -250 c-3 -7 -5 -2 -5 12 0
14 2 19 5 13 2 -7 2 -19 0 -25z m-27 12 c0 -5 -7 -10 -16 -10 -8 0 -12 5 -9
10 3 6 10 10 16 10 5 0 9 -4 9 -10z m325 0 c3 -5 -3 -10 -14 -10 -12 0 -21 5
-21 10 0 6 6 10 14 10 8 0 18 -4 21 -10z m-459 -214 c16 -17 19 -66 4 -66 -5
0 -10 -9 -10 -20 0 -11 5 -20 10 -20 6 0 10 -15 10 -34 0 -19 5 -38 10 -41 6
-4 10 14 10 47 0 38 3 49 10 38 7 -11 10 1 10 40 0 39 3 51 10 40 8 -12 10
-11 10 8 0 19 5 22 40 22 38 0 40 -1 40 -32 0 -37 9 -33 12 5 4 53 18 26 18
-35 0 -45 3 -59 10 -48 7 11 10 2 10 -32 0 -27 5 -48 10 -48 6 0 10 -4 10 -10
0 -5 -16 -10 -35 -10 -28 0 -35 4 -35 20 0 17 -7 20 -40 20 -33 0 -40 -3 -40
-20 0 -15 -7 -20 -29 -20 -16 0 -32 6 -35 13 -5 9 -7 10 -12 0 -4 -9 -30 -13
-80 -13 l-74 0 0 105 0 105 71 0 c48 0 75 -5 85 -14z m282 -53 l-1 -68 -7 65
-7 65 -1 -67 c-1 -40 2 -68 8 -68 6 0 10 -7 10 -15 0 -8 9 -15 20 -15 18 0 20
7 20 85 l0 85 105 0 105 0 0 -30 c0 -28 -2 -30 -37 -29 -38 1 -38 1 -8 9 l30
8 -32 1 c-27 1 -33 -3 -33 -19 0 -17 7 -20 40 -20 33 0 40 -3 40 -20 0 -17 -7
-20 -40 -20 -36 0 -40 -2 -40 -25 0 -22 4 -25 40 -25 33 0 40 -3 40 -20 0 -18
-7 -20 -75 -20 -46 0 -75 4 -75 11 0 5 5 7 10 4 6 -4 10 28 10 89 0 57 -4 96
-10 96 -6 0 -10 -35 -11 -82 0 -56 -3 -76 -9 -63 -7 16 -9 13 -9 -17 l-1 -38
-56 0 c-78 0 -84 9 -84 119 l0 91 30 0 30 0 -2 -67z m428 53 c8 -8 14 -32 13
-53 0 -21 -3 -32 -6 -26 -3 10 -8 10 -19 -1 -21 -21 -17 -69 6 -86 28 -20 25
-30 -10 -30 -16 0 -30 5 -30 10 0 6 -5 10 -11 10 -5 0 -7 -5 -4 -10 3 -6 1
-10 -4 -10 -6 0 -11 14 -11 31 0 27 -19 59 -34 59 -3 0 -6 -17 -5 -37 0 -31 2
-34 9 -18 8 18 9 17 9 -7 1 -25 -3 -28 -29 -28 l-30 0 0 105 0 105 71 0 c48 0
75 -5 85 -14z m-393 -213 c-7 -2 -19 -2 -25 0 -7 3 -2 5 12 5 14 0 19 -2 13
-5z"/>
<path d="M260 610 c-11 -7 1 -10 40 -10 39 0 51 3 40 10 -8 5 -26 10 -40 10
-14 0 -32 -5 -40 -10z"/>
<path d="M385 610 c-3 -5 -1 -10 4 -10 6 0 11 5 11 10 0 6 -2 10 -4 10 -3 0
-8 -4 -11 -10z"/>
<path d="M660 610 c-11 -7 1 -10 40 -10 39 0 51 3 40 10 -8 5 -26 10 -40 10
-14 0 -32 -5 -40 -10z"/>
<path d="M608 603 c7 -3 16 -2 19 1 4 3 -2 6 -13 5 -11 0 -14 -3 -6 -6z"/>
<path d="M628 533 c7 -3 16 -2 19 1 4 3 -2 6 -13 5 -11 0 -14 -3 -6 -6z"/>
<path d="M608 443 c6 -2 18 -2 25 0 6 3 1 5 -13 5 -14 0 -19 -2 -12 -5z"/>
<path d="M74 185 c0 -49 1 -71 3 -48 2 23 2 64 0 90 -2 26 -3 8 -3 -42z"/>
<path d="M120 230 c0 -16 7 -20 35 -20 39 0 42 4 21 26 -22 21 -56 18 -56 -6z"/>
<path d="M323 235 c-21 -23 -16 -65 7 -65 17 0 20 7 20 40 0 42 -7 48 -27 25z"/>
<path d="M120 145 c0 -22 4 -25 35 -25 31 0 35 3 35 25 0 22 -4 25 -35 25 -31
0 -35 -3 -35 -25z m57 -7 c-3 -8 -6 -5 -6 6 -1 11 2 17 5 13 3 -3 4 -12 1 -19z"/>
<path d="M830 220 c0 -16 5 -30 11 -30 5 0 7 5 4 10 -3 6 3 10 14 10 14 0 21
6 21 20 0 15 -7 20 -25 20 -21 0 -25 -5 -25 -30z"/>
</g>
</svg>
