<?xml version="1.0" standalone="no"?>
<!DOCTYPE svg PUBLIC "-//W3C//DTD SVG 20010904//EN"
 "http://www.w3.org/TR/2001/REC-SVG-20010904/DTD/svg10.dtd">
<svg version="1.0" xmlns="http://www.w3.org/2000/svg"
 width="180.000000pt" height="180.000000pt" viewBox="0 0 180.000000 180.000000"
 preserveAspectRatio="xMidYMid meet">
<metadata>
Created by potrace 1.16, written by Peter Selinger 2001-2019
</metadata>
<g transform="translate(0.000000,180.000000) scale(0.100000,-0.100000)"
fill="#000000" stroke="none">
<path d="M170 895 l0 -775 730 0 730 0 2 775 3 775 -732 0 -733 0 0 -775z
m1430 10 l0 -745 -695 0 -695 0 0 745 0 745 695 0 695 0 0 -745z"/>
<path d="M1228 1506 c-46 -17 -72 -33 -132 -85 -50 -43 -66 -45 -66 -7 0 13
-10 38 -23 57 -20 30 -28 34 -75 37 -50 3 -53 2 -99 -45 -44 -44 -123 -183
-123 -216 0 -7 -6 -21 -13 -31 -13 -17 -15 -16 -36 17 -16 26 -32 38 -54 42
-85 16 -135 -47 -198 -255 -9 -29 -14 -94 -14 -185 0 -122 3 -149 24 -205 35
-98 57 -130 90 -130 26 0 31 7 66 91 168 400 449 659 716 659 55 0 69 4 86 23
49 53 67 135 42 190 -24 53 -110 72 -191 43z m-263 -30 c19 -18 45 -84 45
-112 0 -19 5 -24 25 -24 14 0 33 8 43 18 48 47 121 101 156 116 134 56 216
-41 133 -157 -24 -34 -36 -44 -44 -36 -12 12 -85 3 -186 -21 -44 -11 -123 -47
-150 -70 -7 -6 -40 -32 -74 -59 -35 -27 -76 -64 -92 -82 -16 -19 -40 -45 -52
-59 -26 -30 -117 -168 -151 -230 -31 -57 -98 -212 -98 -228 0 -22 -25 -1 -42
36 -43 95 -51 136 -52 267 -1 163 29 276 98 372 49 67 86 59 131 -29 30 -58
39 -53 80 47 54 131 108 215 158 245 38 23 54 25 72 6z"/>
<path d="M1169 1216 c-194 -54 -414 -291 -535 -578 -13 -32 -35 -81 -48 -110
-46 -102 -62 -157 -50 -175 18 -28 88 -36 210 -24 185 19 325 88 399 197 20
29 25 49 25 96 0 66 -9 89 -52 134 l-29 31 73 18 c167 40 265 101 307 190 35
75 22 137 -40 189 -54 46 -162 59 -260 32z m195 -30 c65 -27 101 -84 90 -143
-7 -37 -80 -119 -124 -140 -78 -37 -182 -68 -263 -79 -56 -8 -68 -21 -38 -42
13 -10 44 -36 68 -59 40 -40 43 -47 43 -95 0 -65 -32 -115 -104 -163 -56 -36
-130 -73 -164 -80 -12 -3 -32 -7 -44 -10 -76 -18 -240 -26 -260 -14 -13 9 13
80 96 262 20 42 36 82 36 87 0 6 4 10 9 10 5 0 13 10 17 23 5 18 80 139 106
172 94 118 186 200 268 238 96 46 202 59 264 33z"/>
</g>
</svg>
