<?xml version="1.0" standalone="no"?>
<!DOCTYPE svg PUBLIC "-//W3C//DTD SVG 20010904//EN"
 "http://www.w3.org/TR/2001/REC-SVG-20010904/DTD/svg10.dtd">
<svg version="1.0" xmlns="http://www.w3.org/2000/svg"
 width="180.000000pt" height="180.000000pt" viewBox="0 0 180.000000 180.000000"
 preserveAspectRatio="xMidYMid meet">
<metadata>
Created by potrace 1.16, written by Peter Selinger 2001-2019
</metadata>
<g transform="translate(0.000000,180.000000) scale(0.100000,-0.100000)"
fill="#000000" stroke="none">
<path d="M408 1663 l-3 -136 -199 -67 c-110 -36 -202 -72 -204 -78 -2 -7 0
-12 5 -12 5 0 101 31 215 69 114 38 208 68 210 66 2 -2 2 64 0 146 -2 82 -7
149 -12 149 -5 0 -11 -62 -12 -137z"/>
<path d="M450 985 l0 -535 675 0 c440 0 675 3 675 10 0 6 -232 11 -662 12
l-663 3 -3 523 c-1 336 -6 522 -12 522 -7 0 -10 -188 -10 -535z"/>
<path d="M10 1338 c0 -24 440 -1333 448 -1332 34 6 902 301 902 306 0 17 -53
2 -462 -134 -235 -78 -429 -140 -431 -138 -2 3 -102 299 -221 658 -190 569
-236 694 -236 640z"/>
<path d="M1575 361 l-200 -68 -3 -146 c-2 -93 1 -147 7 -147 6 0 12 54 13 137
l3 136 199 67 c110 36 202 72 204 78 6 19 -11 15 -223 -57z"/>
</g>
</svg>
