<?xml version="1.0" standalone="no"?>
<!DOCTYPE svg PUBLIC "-//W3C//DTD SVG 20010904//EN"
 "http://www.w3.org/TR/2001/REC-SVG-20010904/DTD/svg10.dtd">
<svg version="1.0" xmlns="http://www.w3.org/2000/svg"
 width="150.000000pt" height="150.000000pt" viewBox="0 0 150.000000 150.000000"
 preserveAspectRatio="xMidYMid meet">
<metadata>
Created by potrace 1.16, written by Peter Selinger 2001-2019
</metadata>
<g transform="translate(0.000000,150.000000) scale(0.100000,-0.100000)"
fill="#000000" stroke="none">
<path d="M65 1417 c47 -29 73 -65 80 -108 3 -24 5 -295 3 -601 -3 -544 -3
-557 -24 -585 -11 -15 -34 -35 -52 -43 -17 -8 -32 -17 -32 -20 0 -3 226 -4
502 -2 548 3 587 6 703 61 134 62 205 168 213 315 12 222 -122 386 -314 386
-68 0 -70 15 -5 24 201 27 282 312 137 482 -19 22 -60 53 -92 69 l-59 30 -540
2 c-426 2 -536 0 -520 -10z m1067 -31 c107 -40 189 -152 190 -260 1 -131 -68
-223 -196 -260 -34 -10 -41 -16 -41 -36 0 -23 5 -26 60 -32 115 -15 211 -84
259 -187 17 -38 21 -65 21 -151 0 -90 -3 -112 -23 -152 -32 -65 -90 -122 -162
-158 -113 -57 -141 -60 -639 -60 -428 0 -453 1 -445 18 5 9 10 291 12 626 2
511 0 613 -12 637 l-14 29 241 3 c492 7 697 2 749 -17z"/>
<path d="M569 1224 c-10 -3 -19 -20 -23 -42 -8 -49 -8 -816 0 -865 l7 -37 161
0 c180 0 243 12 296 56 43 37 62 78 62 138 1 103 -77 194 -261 303 l-34 21 50
7 c116 16 173 81 173 203 0 80 -15 125 -51 159 -47 43 -96 55 -234 59 -71 2
-137 1 -146 -2z m316 -54 c107 -54 127 -197 42 -287 -43 -46 -83 -56 -198 -51
-54 2 -99 1 -99 -2 0 -3 21 -13 48 -22 62 -22 198 -104 263 -158 55 -47 109
-131 109 -170 -1 -39 -35 -105 -66 -127 -47 -34 -101 -43 -262 -46 l-152 -2 0
448 0 449 133 -4 c118 -3 138 -6 182 -28z"/>
</g>
</svg>
