<?xml version="1.0" standalone="no"?>
<!DOCTYPE svg PUBLIC "-//W3C//DTD SVG 20010904//EN"
 "http://www.w3.org/TR/2001/REC-SVG-20010904/DTD/svg10.dtd">
<svg version="1.0" xmlns="http://www.w3.org/2000/svg"
 width="152.000000pt" height="152.000000pt" viewBox="0 0 152.000000 152.000000"
 preserveAspectRatio="xMidYMid meet">
<metadata>
Created by potrace 1.16, written by Peter Selinger 2001-2019
</metadata>
<g transform="translate(0.000000,152.000000) scale(0.100000,-0.100000)"
fill="#000000" stroke="none">
<path d="M367 1160 c12 -5 26 -18 32 -29 15 -27 15 -695 0 -722 -6 -11 -20
-24 -32 -29 -14 -6 102 -9 308 -7 321 2 331 3 380 25 63 29 102 66 126 117 61
131 -31 295 -166 295 -19 0 -35 -4 -35 -10 0 -5 10 -10 23 -10 38 -1 103 -36
130 -72 25 -32 49 -108 42 -132 -2 -6 -6 -23 -9 -39 -10 -45 -72 -104 -134
-129 -53 -20 -76 -22 -334 -26 l-277 -4 10 37 c6 22 9 171 7 381 l-3 345 270
-3 c267 -3 271 -3 315 -28 116 -65 116 -215 0 -266 -48 -21 -52 -38 -7 -29 65
14 102 53 118 126 20 86 -41 184 -128 208 -47 13 -668 14 -636 1z"/>
<path d="M668 1053 c-17 -4 -18 -26 -18 -284 l0 -279 110 0 c162 0 210 27 210
119 0 58 -28 101 -97 151 -32 23 -49 40 -39 40 29 0 72 27 84 55 7 14 12 50
12 80 0 74 -27 105 -101 116 -59 8 -134 9 -161 2z m205 -43 c32 -26 43 -76 27
-125 -15 -46 -56 -65 -137 -65 l-58 -1 62 -30 c72 -34 170 -120 179 -155 8
-33 -12 -79 -45 -101 -19 -13 -52 -18 -128 -21 l-103 -4 0 261 0 261 89 0 c74
0 93 -3 114 -20z"/>
</g>
</svg>
