<?xml version="1.0" standalone="no"?>
<!DOCTYPE svg PUBLIC "-//W3C//DTD SVG 20010904//EN"
 "http://www.w3.org/TR/2001/REC-SVG-20010904/DTD/svg10.dtd">
<svg version="1.0" xmlns="http://www.w3.org/2000/svg"
 width="256.000000pt" height="256.000000pt" viewBox="0 0 256.000000 256.000000"
 preserveAspectRatio="xMidYMid meet">
<metadata>
Created by potrace 1.16, written by Peter Selinger 2001-2019
</metadata>
<g transform="translate(0.000000,256.000000) scale(0.100000,-0.100000)"
fill="#000000" stroke="none">
<path d="M0 2436 c0 -14 37 -16 353 -16 407 0 441 -5 586 -77 130 -64 239
-171 299 -293 23 -47 47 -110 53 -140 17 -81 6 -212 -24 -293 -28 -71 -100
-189 -135 -221 -37 -32 -28 -66 29 -111 27 -21 74 -71 104 -110 129 -168 165
-349 106 -535 -62 -197 -235 -362 -461 -443 l-85 -30 -412 -5 c-359 -3 -413
-6 -413 -19 0 -13 46 -14 378 -10 388 5 441 8 502 29 19 7 38 13 43 14 4 1 9
3 12 4 3 1 10 4 15 5 6 1 11 3 13 5 1 1 10 3 20 5 10 2 30 11 45 21 15 10 30
17 35 16 4 -1 7 2 7 7 0 5 13 14 28 20 16 7 42 24 59 39 17 15 45 41 64 57 19
17 43 43 54 59 11 15 26 34 33 41 6 8 12 18 12 23 0 6 3 12 8 14 9 4 64 108
57 108 -3 0 -1 8 4 18 16 31 35 135 35 197 1 56 -12 127 -29 169 -9 20 -15 38
-14 42 2 8 -45 99 -53 102 -5 2 -8 8 -8 14 0 5 -6 15 -12 23 -7 7 -22 26 -33
41 -30 42 -116 123 -142 134 -8 3 3 22 30 51 23 25 49 59 57 75 8 16 23 41 33
55 10 14 20 32 21 40 2 8 6 22 9 32 4 9 10 25 14 35 20 54 25 94 25 177 0 125
-4 137 -76 284 -39 79 -158 204 -236 247 -19 10 -38 24 -42 29 -4 6 -8 6 -8 2
0 -5 -15 0 -32 9 -60 31 -70 36 -89 40 -11 2 -29 7 -41 10 -13 3 -34 8 -48 11
-14 3 -188 7 -387 10 -328 4 -363 3 -363 -11z"/>
<path d="M0 2141 c0 -8 105 -11 328 -12 180 -1 341 -3 357 -5 31 -4 68 -11 73
-14 1 -2 6 -3 10 -4 18 -3 92 -42 92 -48 0 -5 4 -8 9 -8 12 0 81 -69 81 -81 0
-5 3 -9 8 -9 4 0 13 -15 20 -32 7 -18 17 -40 21 -48 8 -16 6 -135 -2 -160 -3
-8 -8 -25 -12 -37 -4 -13 -11 -23 -16 -23 -5 0 -9 -4 -9 -10 0 -11 -66 -78
-96 -97 -43 -28 -73 -42 -100 -48 -16 -3 -40 -9 -54 -12 -14 -3 -124 -7 -245
-9 -121 -1 -232 -7 -247 -13 -54 -20 -89 -65 -95 -120 -3 -31 -1 -57 6 -65 6
-7 8 -16 4 -19 -3 -4 -1 -7 5 -7 7 0 12 -6 13 -12 0 -14 52 -58 72 -62 6 -2
20 -6 29 -10 9 -4 106 -6 216 -4 110 2 198 -1 195 -5 -3 -5 4 -4 15 2 16 9 39
8 95 -4 254 -52 401 -280 308 -474 -28 -60 -45 -85 -75 -110 -10 -9 -27 -24
-38 -34 -10 -9 -23 -17 -28 -17 -6 0 -10 -5 -10 -12 0 -6 -3 -9 -6 -5 -4 3
-21 -1 -38 -11 -78 -42 -87 -42 -493 -42 -352 0 -393 -1 -393 -15 0 -15 40
-16 398 -13 l397 3 74 30 c107 44 178 105 224 194 34 67 37 79 37 155 0 75 -3
90 -36 154 -40 81 -89 129 -178 174 -95 48 -164 58 -426 58 -267 0 -286 4
-327 76 -27 46 -23 96 11 132 43 49 62 52 283 52 289 0 369 20 470 113 68 63
94 113 100 201 10 126 -33 216 -142 298 -95 72 -97 72 -512 76 -257 2 -373 0
-373 -7z"/>
<path d="M1890 1493 c-14 -2 -43 -19 -65 -37 l-40 -34 0 -74 c0 -95 21 -137
82 -167 42 -20 58 -21 368 -21 210 0 325 4 325 10 0 6 -113 10 -318 10 -312 0
-320 0 -362 23 -81 43 -108 153 -53 218 49 57 61 59 413 59 207 0 320 4 320
10 0 10 -611 12 -670 3z"/>
</g>
</svg>
