<?xml version="1.0" standalone="no"?>
<!DOCTYPE svg PUBLIC "-//W3C//DTD SVG 20010904//EN"
 "http://www.w3.org/TR/2001/REC-SVG-20010904/DTD/svg10.dtd">
<svg version="1.0" xmlns="http://www.w3.org/2000/svg"
 width="100.000000pt" height="100.000000pt" viewBox="0 0 100.000000 100.000000"
 preserveAspectRatio="xMidYMid meet">
<metadata>
Created by potrace 1.16, written by Peter Selinger 2001-2019
</metadata>
<g transform="translate(0.000000,100.000000) scale(0.100000,-0.100000)"
fill="#000000" stroke="none">
<path d="M290 980 c0 -18 -7 -20 -60 -20 l-60 0 0 -35 c0 -32 -2 -35 -30 -35
-27 0 -30 -3 -30 -29 0 -26 -4 -30 -32 -33 l-33 -3 -3 -87 c-3 -80 -5 -88 -22
-88 -11 0 -20 -4 -20 -10 0 -5 9 -10 20 -10 19 0 20 -7 20 -95 0 -88 -1 -95
-20 -95 -11 0 -20 -4 -20 -10 0 -5 9 -10 20 -10 19 0 20 -7 20 -95 l0 -95 315
0 c203 0 315 -4 315 -10 0 -6 -80 -10 -220 -10 l-220 0 0 -85 0 -85 95 0 c88
0 95 -1 95 -20 0 -11 5 -20 10 -20 6 0 10 9 10 20 0 19 7 20 90 20 83 0 90 -1
90 -20 0 -11 5 -20 10 -20 6 0 10 9 10 20 0 18 8 20 93 22 l92 3 3 32 c3 29 7
33 33 33 26 0 29 3 29 30 0 28 3 30 35 30 l35 0 0 60 c0 53 2 60 20 60 11 0
20 5 20 10 0 6 -9 10 -20 10 -15 0 -20 7 -20 25 0 18 5 25 20 25 11 0 20 5 20
10 0 6 -9 10 -20 10 -13 0 -20 7 -20 20 0 13 7 20 20 20 11 0 20 5 20 10 0 6
-10 10 -23 10 -21 0 -22 3 -18 81 2 51 -1 85 -8 92 -8 8 -11 -39 -11 -176 l0
-187 -35 0 c-32 0 -35 -2 -35 -30 0 -27 -3 -30 -30 -30 -27 0 -30 -3 -30 -30
l0 -30 -60 0 -60 0 0 -31 c0 -17 4 -28 10 -24 6 3 10 13 10 21 0 8 9 14 20 14
15 0 20 -7 20 -25 l0 -25 -250 0 -250 0 0 65 0 65 250 0 250 0 0 30 c0 27 3
30 30 30 l30 0 0 250 0 250 -30 0 c-27 0 -30 3 -30 30 0 27 -3 30 -30 30 -27
0 -30 3 -30 30 l0 30 -190 0 -190 0 0 25 c0 14 -4 25 -10 25 -5 0 -10 -7 -10
-15 0 -8 -4 -15 -10 -15 -5 0 -10 -4 -10 -10 0 -5 9 -10 20 -10 16 0 20 -7 20
-30 0 -27 -3 -30 -30 -30 -27 0 -30 -3 -30 -30 0 -27 -3 -30 -30 -30 l-30 0 0
-220 0 -220 -27 0 -27 0 22 -20 c27 -25 32 -25 32 0 0 18 7 20 60 20 l60 0 0
250 0 250 155 0 155 0 0 -30 c0 -28 3 -30 35 -30 l35 0 0 -125 0 -125 30 0 30
0 0 -95 0 -95 -30 0 c-27 0 -30 -3 -30 -30 l0 -30 -315 0 -315 0 0 250 0 250
35 0 c32 0 35 2 35 30 0 27 3 30 30 30 27 0 30 3 30 30 0 27 3 30 30 30 28 0
30 3 30 35 l0 35 280 0 280 0 0 -29 c0 -24 -3 -28 -20 -24 -11 3 -20 11 -20
19 0 7 -4 16 -10 19 -6 4 -10 -7 -10 -24 l0 -31 60 0 60 0 0 -60 0 -60 31 0
c17 0 28 4 24 10 -3 6 -12 10 -19 10 -8 0 -16 9 -19 20 -4 17 0 20 24 20 l29
0 0 -90 0 -90 30 0 c17 0 30 5 30 10 0 6 -9 10 -20 10 -13 0 -20 7 -20 20 0
13 7 20 20 20 11 0 20 5 20 10 0 6 -9 10 -20 10 -13 0 -20 7 -20 20 0 13 7 20
20 20 11 0 20 5 20 10 0 6 -9 10 -20 10 -16 0 -20 7 -20 30 0 28 -3 30 -35 30
-32 0 -35 2 -35 30 0 27 -3 30 -30 30 -28 0 -30 3 -30 35 l0 35 -60 0 c-53 0
-60 2 -60 20 0 11 -4 20 -10 20 -5 0 -10 -9 -10 -20 0 -15 -7 -20 -25 -20 -18
0 -25 5 -25 20 0 11 -4 20 -10 20 -5 0 -10 -10 -10 -22 0 -22 -2 -23 -90 -20
-81 3 -90 5 -90 23 0 10 -4 19 -10 19 -5 0 -10 -9 -10 -20 0 -15 -7 -20 -25
-20 -18 0 -25 5 -25 20 0 11 -4 20 -10 20 -5 0 -10 -9 -10 -20 0 -13 -7 -20
-20 -20 -13 0 -20 7 -20 20 0 11 -4 20 -10 20 -5 0 -10 -9 -10 -20z m-58 -65
c-3 -16 -11 -25 -23 -25 -14 0 -19 7 -19 25 0 20 5 25 24 25 19 0 22 -4 18
-25z m-59 -64 c-3 -11 -13 -21 -24 -24 -15 -4 -19 0 -19 19 0 19 5 24 24 24
19 0 23 -4 19 -19z m197 -11 c0 -5 -9 -10 -20 -10 -11 0 -20 5 -20 10 0 6 9
10 20 10 11 0 20 -4 20 -10z m170 0 c0 -6 -32 -10 -75 -10 -43 0 -75 4 -75 10
0 6 32 10 75 10 43 0 75 -4 75 -10z m60 0 c0 -5 -9 -10 -20 -10 -11 0 -20 5
-20 10 0 6 9 10 20 10 11 0 20 -4 20 -10z m70 -10 c0 -11 5 -20 10 -20 6 0 10
-11 10 -24 0 -19 -4 -22 -25 -18 -16 3 -25 11 -25 23 0 10 -4 21 -10 24 -20
12 -10 35 15 35 18 0 25 -5 25 -20z m-560 -40 c0 -15 -7 -20 -25 -20 -18 0
-25 5 -25 20 0 15 7 20 25 20 18 0 25 -5 25 -20z m180 -230 c0 -147 -4 -230
-10 -230 -5 0 -10 7 -10 15 0 8 -4 15 -10 15 -5 0 -10 -7 -10 -15 0 -8 -9 -15
-20 -15 -11 0 -20 4 -20 9 0 5 -3 16 -6 25 -5 12 0 16 20 16 l26 0 0 179 c0
109 4 182 10 186 6 3 10 15 10 26 0 10 5 19 10 19 6 0 10 -83 10 -230z m440
220 c0 -5 -4 -10 -10 -10 -5 0 -10 5 -10 10 0 6 5 10 10 10 6 0 10 -4 10 -10z
m20 -125 c0 -88 -1 -95 -20 -95 -14 0 -20 7 -20 24 0 13 6 27 13 30 10 5 10 7
0 12 -7 3 -13 18 -13 34 0 16 6 31 13 33 8 4 9 8 1 14 -6 4 -13 16 -17 26 -5
13 -1 17 18 17 25 0 25 -1 25 -95z m-516 59 c9 -22 8 -24 -9 -24 -8 0 -15 9
-15 20 0 24 15 27 24 4z m556 -4 c0 -11 -4 -20 -10 -20 -5 0 -10 9 -10 20 0
11 5 20 10 20 6 0 10 -9 10 -20z m-560 -175 c0 -83 -4 -135 -10 -135 -6 0 -10
52 -10 135 0 83 4 135 10 135 6 0 10 -52 10 -135z m560 -35 c0 -107 -4 -170
-10 -170 -6 0 -10 63 -10 170 0 107 4 170 10 170 6 0 10 -63 10 -170z m-40 30
c0 -5 -9 -10 -20 -10 -11 0 -20 5 -20 10 0 6 9 10 20 10 11 0 20 -4 20 -10z
m40 -240 c0 -13 -7 -20 -20 -20 -19 0 -27 20 -13 33 13 14 33 6 33 -13z m-60
-10 c0 -5 -4 -10 -10 -10 -5 0 -10 5 -10 10 0 6 5 10 10 10 6 0 10 -4 10 -10z
m0 -50 c0 -13 -7 -20 -20 -20 -13 0 -20 7 -20 20 0 13 7 20 20 20 13 0 20 -7
20 -20z m210 -15 c0 -20 -5 -25 -25 -25 -33 0 -35 37 -2 43 12 2 23 5 25 6 1
0 2 -10 2 -24z m-70 -65 c0 -14 -7 -20 -24 -20 -19 0 -23 4 -19 20 3 11 14 20
24 20 12 0 19 -7 19 -20z m-60 -65 c0 -20 -5 -25 -24 -25 -19 0 -22 4 -18 25
3 16 11 25 23 25 14 0 19 -7 19 -25z"/>
<path d="M690 905 c0 -8 5 -15 10 -15 6 0 10 7 10 15 0 8 -4 15 -10 15 -5 0
-10 -7 -10 -15z"/>
<path d="M810 836 c0 -21 -5 -26 -26 -26 l-26 0 23 -25 24 -24 3 24 c2 16 11
25 27 27 l24 3 -24 24 -25 23 0 -26z"/>
<path d="M250 840 c0 -5 5 -10 10 -10 6 0 10 5 10 10 0 6 -4 10 -10 10 -5 0
-10 -4 -10 -10z"/>
<path d="M730 840 c0 -5 5 -10 10 -10 6 0 10 5 10 10 0 6 -4 10 -10 10 -5 0
-10 -4 -10 -10z"/>
<path d="M193 795 c-9 -26 4 -28 28 -6 l23 21 -22 0 c-13 0 -25 -7 -29 -15z"/>
<path d="M501 780 c-1 -12 -16 -14 -86 -11 -57 2 -85 -1 -85 -8 0 -7 37 -11
111 -11 71 0 108 4 104 10 -3 6 -12 10 -20 10 -7 0 -16 6 -18 13 -4 8 -6 7 -6
-3z"/>
<path d="M560 770 c0 -15 7 -20 27 -20 l27 0 -22 20 c-12 11 -24 20 -27 20 -3
0 -5 -9 -5 -20z"/>
<path d="M150 760 c0 -5 5 -10 10 -10 6 0 10 5 10 10 0 6 -4 10 -10 10 -5 0
-10 -4 -10 -10z"/>
<path d="M830 744 c0 -10 31 -36 37 -31 3 3 -2 13 -10 22 -16 15 -27 19 -27 9z"/>
<path d="M116 728 c-5 -10 -14 -18 -22 -18 -8 0 -14 -4 -14 -10 0 -5 11 -10
25 -10 l25 0 0 -155 0 -155 -25 0 c-14 0 -25 -4 -25 -10 0 -5 6 -10 14 -10 7
0 17 -10 21 -22 7 -21 8 -20 12 10 3 24 9 32 24 32 23 0 24 6 4 26 -8 9 -15
20 -15 25 0 5 7 9 15 9 8 0 15 5 15 10 0 6 -4 10 -10 10 -6 0 -10 32 -10 75 0
43 4 75 10 75 6 0 10 5 10 10 0 6 -7 10 -15 10 -8 0 -15 4 -15 9 0 5 7 16 15
25 20 20 19 26 -4 26 -14 0 -21 8 -23 28 -4 22 -6 24 -12 10z"/>
<path d="M890 700 c0 -5 7 -10 15 -10 8 0 15 5 15 10 0 6 -7 10 -15 10 -8 0
-15 -4 -15 -10z"/>
<path d="M440 625 l0 -65 60 0 60 0 0 65 0 65 -60 0 -60 0 0 -65z m60 31 c0
-9 -7 -12 -20 -9 -11 3 -20 9 -20 14 0 5 9 9 20 9 11 0 20 -6 20 -14z m40 4
c0 -5 -4 -10 -10 -10 -5 0 -10 5 -10 10 0 6 5 10 10 10 6 0 10 -4 10 -10z m6
-46 c-3 -9 -6 -20 -6 -25 0 -5 -17 -9 -39 -9 -33 0 -39 3 -43 25 -5 24 -3 25
44 25 42 0 49 -3 44 -16z"/>
<path d="M833 676 c20 -15 23 -42 5 -50 -10 -5 -10 -7 0 -12 6 -3 12 -16 12
-29 0 -13 -6 -26 -12 -29 -10 -5 -10 -7 0 -12 8 -4 12 -29 12 -71 0 -51 -4
-69 -17 -79 -17 -12 -16 -13 4 -14 17 0 20 -4 15 -22 -3 -13 -13 -28 -21 -35
-14 -11 -12 -12 12 -13 l27 0 0 190 0 190 -27 0 c-25 -1 -26 -2 -10 -14z"/>
<path d="M890 620 c0 -5 7 -10 15 -10 8 0 15 5 15 10 0 6 -7 10 -15 10 -8 0
-15 -4 -15 -10z"/>
<path d="M620 530 c0 -25 4 -30 25 -30 14 0 25 5 25 10 0 6 -7 10 -15 10 -8 0
-15 5 -15 10 0 6 7 10 15 10 8 0 15 5 15 10 0 6 -11 10 -25 10 -21 0 -25 -5
-25 -30z"/>
<path d="M890 510 c0 -5 7 -10 15 -10 8 0 15 5 15 10 0 6 -7 10 -15 10 -8 0
-15 -4 -15 -10z"/>
<path d="M440 440 l0 -60 60 0 60 0 0 60 0 60 -60 0 -60 0 0 -60z m64 28 c5
-10 7 -10 12 0 9 18 21 15 27 -8 4 -16 0 -20 -19 -20 -19 0 -24 -5 -24 -24 0
-19 -4 -23 -20 -19 -23 6 -26 18 -7 27 10 5 10 7 0 12 -7 3 -13 14 -13 25 0
22 35 27 44 7z m36 -58 c0 -5 -4 -10 -10 -10 -5 0 -10 5 -10 10 0 6 5 10 10
10 6 0 10 -4 10 -10z"/>
<path d="M690 467 c0 -20 5 -27 20 -27 11 0 20 2 20 5 0 3 -9 15 -20 27 l-20
22 0 -27z"/>
<path d="M580 431 c0 -5 6 -12 13 -15 10 -5 10 -7 0 -12 -20 -9 -15 -24 7 -24
16 0 20 7 20 30 0 23 -4 30 -20 30 -11 0 -20 -4 -20 -9z"/>
<path d="M690 410 c0 -5 5 -10 10 -10 6 0 10 5 10 10 0 6 -4 10 -10 10 -5 0
-10 -4 -10 -10z"/>
<path d="M690 355 c0 -14 5 -25 10 -25 6 0 10 7 10 15 0 8 5 15 10 15 6 0 10
5 10 10 0 6 -9 10 -20 10 -15 0 -20 -7 -20 -25z"/>
<path d="M75 300 c3 -5 11 -10 17 -10 6 0 17 -8 24 -17 12 -16 13 -15 14 10 0
24 -4 27 -31 27 -17 0 -28 -4 -24 -10z"/>
<path d="M560 290 c0 -24 6 -25 26 -6 19 20 18 26 -6 26 -13 0 -20 -7 -20 -20z"/>
<path d="M620 290 c0 -11 5 -20 10 -20 6 0 10 5 10 10 0 6 6 10 14 10 8 0 18
5 21 10 4 6 -7 10 -24 10 -24 0 -31 -4 -31 -20z"/>
<path d="M873 295 c-3 -9 -2 -19 2 -23 4 -4 10 -1 12 6 3 6 11 12 19 12 8 0
14 5 14 10 0 16 -40 11 -47 -5z"/>
<path d="M830 240 c0 -5 5 -10 10 -10 6 0 10 5 10 10 0 6 -4 10 -10 10 -5 0
-10 -4 -10 -10z"/>
<path d="M290 151 c0 -11 -6 -22 -12 -25 -10 -5 -10 -7 0 -12 6 -3 12 -12 12
-19 0 -8 5 -17 10 -20 6 -4 10 13 10 44 0 28 -4 51 -10 51 -5 0 -10 -9 -10
-19z"/>
<path d="M370 150 c0 -19 7 -20 125 -20 118 0 125 1 125 20 0 11 -4 20 -10 20
-5 0 -10 -4 -10 -10 0 -6 -42 -10 -105 -10 -63 0 -105 4 -105 10 0 6 -4 10
-10 10 -5 0 -10 -9 -10 -20z"/>
<path d="M670 155 c0 -8 5 -15 10 -15 6 0 10 7 10 15 0 8 -4 15 -10 15 -5 0
-10 -7 -10 -15z"/>
<path d="M750 160 c0 -5 5 -10 10 -10 6 0 10 5 10 10 0 6 -4 10 -10 10 -5 0
-10 -4 -10 -10z"/>
<path d="M350 100 c0 -11 5 -20 10 -20 6 0 10 9 10 20 0 11 -4 20 -10 20 -5 0
-10 -9 -10 -20z"/>
<path d="M620 100 c0 -11 5 -20 10 -20 6 0 10 9 10 20 0 11 -4 20 -10 20 -5 0
-10 -9 -10 -20z"/>
</g>
</svg>
