<?xml version="1.0" standalone="no"?>
<!DOCTYPE svg PUBLIC "-//W3C//DTD SVG 20010904//EN"
 "http://www.w3.org/TR/2001/REC-SVG-20010904/DTD/svg10.dtd">
<svg version="1.0" xmlns="http://www.w3.org/2000/svg"
 width="100.000000pt" height="100.000000pt" viewBox="0 0 100.000000 100.000000"
 preserveAspectRatio="xMidYMid meet">
<metadata>
Created by potrace 1.16, written by Peter Selinger 2001-2019
</metadata>
<g transform="translate(0.000000,100.000000) scale(0.100000,-0.100000)"
fill="#000000" stroke="none">
<path d="M20 510 l0 -470 145 0 145 0 0 470 0 470 -145 0 -145 0 0 -470z m223
453 c-34 -2 -93 -2 -130 0 -37 2 -10 3 62 3 72 0 102 -1 68 -3z m-206 -691
c-1 -125 -2 -22 -2 228 0 250 1 353 2 227 2 -125 2 -329 0 -455z m217 662 c14
-5 16 -53 16 -430 l0 -424 -105 0 -105 0 0 45 c0 29 4 45 13 46 10 0 10 2 0 6
-19 7 -19 643 0 644 10 0 10 2 0 6 -8 2 -13 22 -13 44 0 24 5 39 13 40 10 0
10 2 0 6 -7 2 -13 9 -13 14 0 10 169 13 194 3z"/>
<path d="M230 510 c0 -5 5 -10 10 -10 6 0 10 5 10 10 0 6 -4 10 -10 10 -5 0
-10 -4 -10 -10z"/>
<path d="M350 760 l0 -220 111 0 c124 0 138 6 140 62 l1 33 8 -30 c4 -18 8 43
9 145 0 116 -3 170 -9 160 -8 -13 -10 -12 -10 3 0 38 -24 47 -137 49 l-108 2
105 6 105 6 -107 2 -108 2 0 -220z m207 158 c22 -21 23 -28 23 -165 0 -112 -3
-148 -14 -159 -10 -10 -39 -14 -95 -14 l-81 0 0 180 0 180 72 0 c60 0 76 -4
95 -22z"/>
<path d="M520 910 c0 -5 5 -10 10 -10 6 0 10 5 10 10 0 6 -4 10 -10 10 -5 0
-10 -4 -10 -10z"/>
<path d="M670 510 l0 -470 145 0 145 0 -2 463 -3 462 -5 -460 -5 -460 -3 468
-2 467 -135 0 -135 0 0 -470z m193 453 c-35 -2 -91 -2 -125 0 -35 2 -7 3 62 3
69 0 97 -1 63 -3z m57 -453 l0 -430 -105 0 -105 0 0 45 c0 29 4 45 13 46 10 0
10 2 0 6 -8 2 -13 22 -13 44 0 24 5 39 13 40 10 0 10 2 0 6 -9 3 -13 31 -13
89 0 60 4 84 13 85 10 0 10 2 0 6 -9 3 -13 33 -13 99 0 68 3 94 13 94 8 0 7 4
-3 10 -13 9 -13 11 0 20 10 6 11 10 3 10 -18 0 -18 146 0 154 10 5 10 7 0 12
-7 3 -13 16 -13 29 0 13 6 26 13 29 10 5 10 7 0 12 -35 16 -3 24 92 24 l105 0
0 -430z"/>
<path d="M622 520 c0 -14 2 -19 5 -12 2 6 2 18 0 25 -3 6 -5 1 -5 -13z"/>
<path d="M358 523 c7 -3 16 -2 19 1 4 3 -2 6 -13 5 -11 0 -14 -3 -6 -6z"/>
<path d="M350 260 l0 -220 118 0 c79 0 112 3 102 10 -12 8 -11 10 8 10 19 0
22 5 23 48 1 42 2 44 9 17 4 -17 8 45 8 145 0 101 -3 164 -8 150 l-8 -25 -1
28 c-2 50 -19 57 -140 57 l-111 0 0 -220z m216 166 c19 -19 20 -279 2 -319
-13 -26 -16 -27 -95 -27 l-83 0 0 180 0 180 81 0 c56 0 85 -4 95 -14z"/>
</g>
</svg>
