<?xml version="1.0" standalone="no"?>
<!DOCTYPE svg PUBLIC "-//W3C//DTD SVG 20010904//EN"
 "http://www.w3.org/TR/2001/REC-SVG-20010904/DTD/svg10.dtd">
<svg version="1.0" xmlns="http://www.w3.org/2000/svg"
 width="192.000000pt" height="192.000000pt" viewBox="0 0 192.000000 192.000000"
 preserveAspectRatio="xMidYMid meet">
<metadata>
Created by potrace 1.16, written by Peter Selinger 2001-2019
</metadata>
<g transform="translate(0.000000,192.000000) scale(0.100000,-0.100000)"
fill="#000000" stroke="none">
<path d="M192 1880 c-75 -35 -115 -75 -153 -155 l-29 -59 0 -702 0 -701 31
-62 c35 -70 104 -135 171 -162 39 -16 99 -18 737 -18 804 -1 756 -6 856 94
100 100 95 52 95 851 0 632 -1 693 -17 738 -25 68 -91 138 -165 175 l-61 31
-701 0 -702 0 -62 -30z m1445 -2 c98 -24 173 -85 213 -173 19 -43 20 -63 20
-741 l0 -697 -27 -54 c-33 -64 -71 -102 -138 -137 l-50 -26 -698 0 c-682 0
-699 0 -743 20 -88 40 -147 114 -173 215 -7 26 -11 269 -11 683 0 572 2 649
17 695 33 105 98 171 202 208 41 15 123 17 694 18 462 1 661 -2 694 -11z"/>
<path d="M315 1358 c-14 -41 -155 -744 -155 -774 l0 -36 268 4 c251 4 270 5
326 27 71 28 133 82 157 136 36 77 22 215 -25 254 -13 11 -10 17 20 43 63 56
83 201 37 278 -9 17 -38 40 -63 53 -42 21 -60 22 -303 25 -204 2 -258 0 -262
-10z m537 -35 c62 -28 88 -70 88 -143 -1 -93 -58 -180 -119 -180 -29 0 -26
-16 4 -24 13 -3 37 -23 52 -43 24 -32 28 -45 28 -102 -1 -108 -42 -167 -150
-218 -56 -26 -69 -28 -210 -31 -82 -1 -198 -3 -258 -5 l-108 -2 6 25 c43 214
138 667 146 703 l11 49 232 -4 c211 -3 235 -5 278 -25z"/>
<path d="M463 1313 c59 -2 154 -2 210 0 56 1 8 3 -108 3 -116 0 -161 -2 -102
-3z"/>
<path d="M351 1254 c0 -11 3 -14 6 -6 3 7 2 16 -1 19 -3 4 -6 -2 -5 -13z"/>
<path d="M341 1214 c0 -11 3 -14 6 -6 3 7 2 16 -1 19 -3 4 -6 -2 -5 -13z"/>
<path d="M558 1223 c23 -2 59 -2 80 0 20 2 1 4 -43 4 -44 0 -61 -2 -37 -4z"/>
<path d="M901 1214 c0 -11 3 -14 6 -6 3 7 2 16 -1 19 -3 4 -6 -2 -5 -13z"/>
<path d="M497 1148 c-4 -24 -9 -58 -13 -77 l-7 -34 102 5 c125 6 156 23 156
84 0 52 -25 64 -141 64 l-91 0 -6 -42z m197 6 c9 -3 16 -17 16 -30 0 -35 -45
-54 -130 -54 l-70 0 6 28 c14 65 10 62 89 62 40 0 80 -3 89 -6z"/>
<path d="M461 1144 c0 -11 3 -14 6 -6 3 7 2 16 -1 19 -3 4 -6 -2 -5 -13z"/>
<path d="M902 1140 c0 -14 2 -19 5 -12 2 6 2 18 0 25 -3 6 -5 1 -5 -13z"/>
<path d="M771 1124 c0 -11 3 -14 6 -6 3 7 2 16 -1 19 -3 4 -6 -2 -5 -13z"/>
<path d="M321 1114 c0 -11 3 -14 6 -6 3 7 2 16 -1 19 -3 4 -6 -2 -5 -13z"/>
<path d="M451 1094 c0 -11 3 -14 6 -6 3 7 2 16 -1 19 -3 4 -6 -2 -5 -13z"/>
<path d="M311 1074 c0 -11 3 -14 6 -6 3 7 2 16 -1 19 -3 4 -6 -2 -5 -13z"/>
<path d="M538 1013 c23 -2 61 -2 85 0 23 2 4 4 -43 4 -47 0 -66 -2 -42 -4z"/>
<path d="M291 974 c0 -11 3 -14 6 -6 3 7 2 16 -1 19 -3 4 -6 -2 -5 -13z"/>
<path d="M613 933 c9 -2 23 -2 30 0 6 3 -1 5 -18 5 -16 0 -22 -2 -12 -5z"/>
<path d="M446 898 c-3 -7 -9 -42 -16 -77 -6 -34 -14 -70 -17 -78 -5 -14 9 -15
111 -11 97 4 121 8 144 25 57 42 55 114 -3 139 -45 18 -214 20 -219 2z m214
-36 c33 -27 21 -69 -25 -88 -38 -16 -185 -20 -185 -4 0 5 5 32 11 60 l11 50
83 0 c65 0 88 -4 105 -18z"/>
<path d="M401 854 c0 -11 3 -14 6 -6 3 7 2 16 -1 19 -3 4 -6 -2 -5 -13z"/>
<path d="M733 830 c0 -25 2 -35 4 -22 2 12 2 32 0 45 -2 12 -4 2 -4 -23z"/>
<path d="M873 830 c0 -25 2 -35 4 -22 2 12 2 32 0 45 -2 12 -4 2 -4 -23z"/>
<path d="M391 814 c0 -11 3 -14 6 -6 3 7 2 16 -1 19 -3 4 -6 -2 -5 -13z"/>
<path d="M251 784 c0 -11 3 -14 6 -6 3 7 2 16 -1 19 -3 4 -6 -2 -5 -13z"/>
<path d="M462 703 c32 -2 84 -2 115 0 32 2 6 3 -57 3 -63 0 -89 -1 -58 -3z"/>
<path d="M231 684 c0 -11 3 -14 6 -6 3 7 2 16 -1 19 -3 4 -6 -2 -5 -13z"/>
<path d="M221 644 c0 -11 3 -14 6 -6 3 7 2 16 -1 19 -3 4 -6 -2 -5 -13z"/>
<path d="M638 613 c6 -2 18 -2 25 0 6 3 1 5 -13 5 -14 0 -19 -2 -12 -5z"/>
<path d="M308 603 c57 -2 147 -2 200 0 53 1 7 3 -103 3 -110 0 -154 -2 -97 -3z"/>
<path d="M1086 1358 c-18 -56 -166 -790 -161 -798 10 -17 437 -13 514 5 168
40 286 162 322 334 17 84 8 236 -20 296 -29 65 -81 118 -145 147 -48 21 -66
23 -279 26 -181 3 -228 1 -231 -10z m409 -19 c170 -31 250 -135 249 -324 -2
-187 -84 -325 -238 -397 l-71 -33 -240 -5 c-132 -3 -242 -4 -243 -3 -2 1 28
154 68 340 39 186 76 359 82 386 l10 47 162 0 c89 0 189 -5 221 -11z"/>
<path d="M1130 1303 c0 -13 3 -14 8 -6 6 9 56 13 172 16 l165 3 -172 2 c-159
2 -173 1 -173 -15z"/>
<path d="M1317 1203 c18 -2 50 -2 70 0 21 2 7 4 -32 4 -38 0 -55 -2 -38 -4z"/>
<path d="M1101 1164 c0 -11 3 -14 6 -6 3 7 2 16 -1 19 -3 4 -6 -2 -5 -13z"/>
<path d="M1274 1165 c-2 -5 -22 -98 -45 -205 -22 -107 -43 -199 -46 -203 -3
-5 42 -8 104 -6 99 4 114 7 151 31 64 43 95 105 100 203 5 87 -6 122 -48 160
-17 15 -41 20 -117 25 -60 3 -97 1 -99 -5z m171 -29 c41 -17 61 -47 70 -103
13 -85 -42 -200 -115 -238 -30 -15 -180 -32 -180 -20 0 9 70 344 76 363 5 17
106 16 149 -2z"/>
<path d="M1231 1144 c0 -11 3 -14 6 -6 3 7 2 16 -1 19 -3 4 -6 -2 -5 -13z"/>
<path d="M1713 1020 c0 -30 2 -43 4 -27 2 15 2 39 0 55 -2 15 -4 2 -4 -28z"/>
<path d="M1573 1005 c0 -27 2 -38 4 -22 2 15 2 37 0 50 -2 12 -4 0 -4 -28z"/>
<path d="M1071 1014 c0 -11 3 -14 6 -6 3 7 2 16 -1 19 -3 4 -6 -2 -5 -13z"/>
<path d="M1201 1004 c0 -11 3 -14 6 -6 3 7 2 16 -1 19 -3 4 -6 -2 -5 -13z"/>
<path d="M1041 874 c0 -11 3 -14 6 -6 3 7 2 16 -1 19 -3 4 -6 -2 -5 -13z"/>
<path d="M1171 854 c0 -11 3 -14 6 -6 3 7 2 16 -1 19 -3 4 -6 -2 -5 -13z"/>
<path d="M1031 834 c0 -11 3 -14 6 -6 3 7 2 16 -1 19 -3 4 -6 -2 -5 -13z"/>
<path d="M1011 734 c0 -11 3 -14 6 -6 3 7 2 16 -1 19 -3 4 -6 -2 -5 -13z"/>
<path d="M1001 694 c0 -11 3 -14 6 -6 3 7 2 16 -1 19 -3 4 -6 -2 -5 -13z"/>
<path d="M1378 613 c6 -2 18 -2 25 0 6 3 1 5 -13 5 -14 0 -19 -2 -12 -5z"/>
<path d="M1067 603 c51 -2 135 -2 185 0 51 1 10 3 -92 3 -102 0 -143 -2 -93
-3z"/>
</g>
</svg>
