<?xml version="1.0" standalone="no"?>
<!DOCTYPE svg PUBLIC "-//W3C//DTD SVG 20010904//EN"
 "http://www.w3.org/TR/2001/REC-SVG-20010904/DTD/svg10.dtd">
<svg version="1.0" xmlns="http://www.w3.org/2000/svg"
 width="100.000000pt" height="100.000000pt" viewBox="0 0 100.000000 100.000000"
 preserveAspectRatio="xMidYMid meet">
<metadata>
Created by potrace 1.16, written by Peter Selinger 2001-2019
</metadata>
<g transform="translate(0.000000,100.000000) scale(0.100000,-0.100000)"
fill="#000000" stroke="none">
<path d="M364 935 c-5 -11 -24 -15 -80 -15 l-73 0 -3 -57 c-2 -44 -7 -58 -18
-58 -12 0 -16 -17 -18 -80 -2 -44 -7 -84 -12 -89 -7 -7 -10 -1 -11 15 0 22 -1
23 -9 4 -10 -23 -10 -231 0 -320 5 -42 7 -9 9 113 0 102 5 172 11 172 5 0 8
-16 6 -35 -1 -19 0 -35 4 -35 3 0 5 -22 4 -50 -2 -27 2 -50 7 -50 5 0 9 72 9
170 0 94 4 170 8 170 9 0 13 -31 14 -97 0 -18 4 -33 9 -33 5 0 9 54 9 120 l0
120 325 0 c231 0 325 -3 325 -11 0 -6 -7 -9 -15 -5 -8 3 -15 1 -15 -3 0 -5 -9
-7 -20 -4 -11 3 -20 0 -20 -6 0 -7 21 -11 55 -11 l55 0 0 -135 c0 -128 -1
-135 -20 -135 -13 0 -20 -7 -20 -20 0 -11 -7 -20 -15 -20 -10 0 -15 -11 -15
-35 0 -24 5 -35 15 -35 13 0 15 -22 15 -135 0 -113 -2 -135 -15 -135 -8 0 -15
-9 -15 -20 0 -13 -7 -20 -20 -20 -11 0 -20 -7 -20 -15 0 -12 -13 -15 -60 -15
-38 0 -60 -4 -60 -11 0 -6 9 -9 20 -6 11 3 20 1 20 -4 0 -6 8 -5 20 1 16 9 20
8 20 -5 0 -13 -41 -15 -342 -15 -188 0 -339 -2 -337 -5 3 -2 122 -5 264 -6
143 -1 269 -5 280 -9 11 -5 -109 -9 -267 -9 l-288 -1 -1 148 c0 107 -3 140
-10 122 -5 -13 -10 -80 -10 -147 -1 -68 -5 -123 -10 -123 -5 0 -9 30 -9 68 0
47 -3 63 -10 52 -14 -21 -12 -114 2 -128 15 -15 645 -17 668 -2 12 8 8 10 -15
12 -16 1 2 4 40 7 57 5 70 9 67 22 -1 12 6 16 30 17 36 1 77 43 78 80 0 17 6
22 24 22 45 0 56 23 56 120 0 49 -4 92 -10 95 -5 3 -10 1 -10 -5 0 -6 -5 -8
-10 -5 -6 4 -9 14 -8 23 2 9 -6 18 -17 21 -13 4 -21 16 -23 34 -3 22 1 27 17
27 15 0 21 6 21 23 0 12 9 28 20 35 14 9 20 23 20 51 0 22 5 42 13 44 10 4 10
6 0 6 -8 1 -13 15 -13 35 0 19 6 37 13 39 10 4 10 6 0 6 -8 1 -13 16 -13 41 0
33 -3 40 -20 40 -11 0 -20 7 -20 15 0 8 -9 15 -20 15 -13 0 -20 7 -20 20 0 18
-7 20 -77 20 -53 1 -84 5 -97 15 -29 22 -354 22 -362 0z m278 -12 c-51 -2
-132 -2 -180 0 -48 1 -6 3 93 3 99 0 138 -2 87 -3z m318 -109 c0 -8 -4 -12
-10 -9 -5 3 -10 10 -10 16 0 5 5 9 10 9 6 0 10 -7 10 -16z m0 -109 c0 -56 -4
-85 -11 -85 -6 0 -9 9 -6 20 3 11 2 20 -1 20 -4 0 -7 29 -7 65 0 45 4 65 13
65 9 0 12 -24 12 -85z m0 -105 c0 -5 -5 -10 -11 -10 -5 0 -7 5 -4 10 3 6 8 10
11 10 2 0 4 -4 4 -10z m-40 -35 c0 -8 -7 -15 -16 -15 -14 0 -14 3 -4 15 7 8
14 15 16 15 2 0 4 -7 4 -15z m-43 -57 c-3 -8 -6 -5 -6 6 -1 11 2 17 5 13 3 -3
4 -12 1 -19z m43 -143 c0 -61 -3 -85 -12 -85 -9 0 -13 20 -13 65 0 36 3 65 7
65 3 0 4 9 1 20 -3 11 0 20 6 20 7 0 11 -29 11 -85z m40 -40 l0 -85 -30 0
c-16 0 -30 5 -30 11 0 6 7 9 15 6 22 -9 28 10 26 85 -2 43 2 68 8 68 7 0 11
-31 11 -85z"/>
<path d="M259 888 c-7 -15 -6 -58 2 -58 5 0 9 14 9 30 0 25 -6 39 -11 28z"/>
<path d="M770 870 c0 -5 7 -10 16 -10 8 0 12 5 9 10 -3 6 -10 10 -16 10 -5 0
-9 -4 -9 -10z"/>
<path d="M880 840 c0 -5 7 -10 16 -10 8 0 12 5 9 10 -3 6 -10 10 -16 10 -5 0
-9 -4 -9 -10z"/>
<path d="M256 811 c-4 -7 -5 -15 -2 -18 9 -9 19 4 14 18 -4 11 -6 11 -12 0z"/>
<path d="M880 800 c0 -5 5 -10 10 -10 6 0 10 5 10 10 0 6 -4 10 -10 10 -5 0
-10 -4 -10 -10z"/>
<path d="M420 751 c0 -5 60 -9 135 -9 74 1 135 5 135 9 0 5 -61 9 -135 9 -75
0 -135 -4 -135 -9z"/>
<path d="M420 655 l0 -65 135 0 135 0 0 65 0 65 -135 0 -135 0 0 -65z m40 5
c0 -27 -5 -50 -10 -50 -6 0 -10 22 -9 50 1 28 6 50 11 50 4 0 8 -22 8 -50z
m143 33 c-24 -2 -62 -2 -85 0 -24 2 -5 4 42 4 47 0 66 -2 43 -4z m67 -38 c0
-12 -17 -15 -95 -15 -78 0 -95 3 -95 15 0 12 17 15 95 15 78 0 95 -3 95 -15z
m7 -41 c-7 -7 -189 -6 -196 2 -2 2 42 4 99 4 57 0 100 -3 97 -6z"/>
<path d="M705 710 c3 -5 10 -10 16 -10 5 0 9 5 9 10 0 6 -7 10 -16 10 -8 0
-12 -4 -9 -10z"/>
<path d="M704 655 c1 -47 26 -47 26 0 0 22 -5 35 -13 35 -9 0 -13 -12 -13 -35z"/>
<path d="M380 644 c0 -8 5 -12 10 -9 6 3 10 10 10 16 0 5 -4 9 -10 9 -5 0 -10
-7 -10 -16z"/>
<path d="M216 641 c-4 -7 -5 -15 -2 -18 9 -9 19 4 14 18 -4 11 -6 11 -12 0z"/>
<path d="M380 605 c0 -8 5 -15 10 -15 6 0 10 7 10 15 0 8 -4 15 -10 15 -5 0
-10 -7 -10 -15z"/>
<path d="M380 566 c0 -9 5 -16 10 -16 6 0 10 4 10 9 0 6 -4 13 -10 16 -5 3
-10 -1 -10 -9z"/>
<path d="M420 560 c0 -6 42 -10 115 -10 63 0 115 4 115 9 0 5 -52 10 -115 10
-74 1 -115 -2 -115 -9z"/>
<path d="M665 560 c-3 -5 1 -10 9 -10 9 0 16 5 16 10 0 6 -4 10 -9 10 -6 0
-13 -4 -16 -10z"/>
<path d="M810 515 c0 -21 5 -35 13 -35 7 0 12 14 12 35 0 21 -5 35 -12 35 -8
0 -13 -14 -13 -35z"/>
<path d="M106 468 c-9 -97 -12 -258 -4 -258 3 0 4 -9 1 -20 -3 -11 0 -20 6
-20 8 0 11 54 11 180 0 99 -2 180 -4 180 -3 0 -7 -28 -10 -62z"/>
<path d="M458 473 c23 -2 61 -2 85 0 23 2 4 4 -43 4 -47 0 -66 -2 -42 -4z"/>
<path d="M351 434 c0 -11 3 -14 6 -6 3 7 2 16 -1 19 -3 4 -6 -2 -5 -13z"/>
<path d="M379 378 c0 -56 -2 -68 -10 -50 -5 13 -7 28 -4 32 3 4 1 19 -4 32 -7
17 -10 0 -10 -64 l-1 -88 135 0 c74 0 135 4 135 9 0 5 -55 10 -122 10 -68 1
-127 6 -132 11 -7 7 43 10 137 10 l147 0 0 65 0 65 -132 0 c-84 0 -129 3 -122
10 5 5 64 10 132 11 67 0 122 5 122 10 0 5 -61 9 -135 9 l-135 0 -1 -72z m251
-18 c0 -20 -5 -30 -15 -30 -8 0 -15 -7 -15 -15 0 -12 -18 -15 -100 -15 l-101
0 2 45 3 45 113 0 113 0 0 -30z"/>
<path d="M670 395 c7 -8 9 -15 4 -15 -5 0 -9 -16 -9 -35 0 -21 5 -35 13 -35 8
0 12 17 12 50 0 39 -3 50 -16 50 -14 0 -14 -3 -4 -15z"/>
<path d="M310 275 c0 -19 5 -35 10 -35 6 0 10 16 10 35 0 19 -4 35 -10 35 -5
0 -10 -16 -10 -35z"/>
<path d="M408 213 c34 -2 88 -2 120 0 31 2 3 3 -63 3 -66 0 -92 -1 -57 -3z"/>
<path d="M810 200 c0 -5 5 -10 10 -10 6 0 10 5 10 10 0 6 -4 10 -10 10 -5 0
-10 -4 -10 -10z"/>
<path d="M770 160 c0 -5 7 -7 15 -4 8 4 15 8 15 10 0 2 -7 4 -15 4 -8 0 -15
-4 -15 -10z"/>
<path d="M106 152 c-2 -4 -1 -14 5 -22 7 -12 9 -10 9 8 0 23 -5 28 -14 14z"/>
<path d="M580 130 c0 -5 4 -10 9 -10 6 0 13 5 16 10 3 6 -1 10 -9 10 -9 0 -16
-4 -16 -10z"/>
<path d="M620 131 c0 -5 11 -8 25 -8 14 0 28 3 31 8 3 5 -9 9 -25 9 -17 0 -31
-4 -31 -9z"/>
</g>
</svg>
