<?xml version="1.0" standalone="no"?>
<!DOCTYPE svg PUBLIC "-//W3C//DTD SVG 20010904//EN"
 "http://www.w3.org/TR/2001/REC-SVG-20010904/DTD/svg10.dtd">
<svg version="1.0" xmlns="http://www.w3.org/2000/svg"
 width="192.000000pt" height="192.000000pt" viewBox="0 0 192.000000 192.000000"
 preserveAspectRatio="xMidYMid meet">
<metadata>
Created by potrace 1.16, written by Peter Selinger 2001-2019
</metadata>
<g transform="translate(0.000000,192.000000) scale(0.100000,-0.100000)"
fill="#000000" stroke="none">
<path d="M730 1400 c-65 -8 -144 -31 -380 -110 -69 -23 -161 -50 -204 -60 -44
-11 -86 -26 -94 -33 -23 -24 -52 -155 -51 -236 1 -89 1 -88 25 47 l17 102 99
0 c86 0 100 -2 119 -21 17 -17 20 -29 15 -57 -5 -32 -13 -43 -41 -56 -5 -3 -2
-10 7 -16 29 -18 24 -91 -8 -121 -23 -22 -36 -24 -130 -27 -85 -3 -104 -7
-104 -19 0 -23 196 -15 234 10 26 17 28 17 58 -4 40 -29 140 -31 181 -5 24 16
27 16 52 0 35 -23 144 -23 178 -1 20 13 25 13 42 0 16 -11 53 -14 185 -11 148
3 169 5 202 25 l37 22 3 -22 c3 -19 10 -22 55 -25 59 -3 66 3 78 78 9 57 21
80 41 80 14 0 15 -8 8 -47 -4 -27 -8 -61 -8 -78 -1 -30 0 -30 56 -33 l57 -3
10 38 c6 21 11 47 11 57 0 34 11 9 18 -41 l7 -48 65 0 c65 0 65 0 85 37 23 44
31 47 39 14 9 -35 52 -59 111 -60 71 -1 115 19 115 52 l0 25 -25 -23 c-16 -15
-41 -24 -74 -28 -46 -4 -53 -2 -81 26 -22 23 -30 40 -30 67 0 47 25 99 56 120
33 21 97 22 129 1 23 -15 25 -15 25 -1 0 10 -20 25 -47 37 -27 11 -73 31 -103
45 -83 39 -185 72 -288 93 -70 14 -111 29 -161 59 -162 98 -274 121 -493 103
-136 -11 -154 -16 -372 -87 -125 -41 -256 -80 -290 -87 -33 -6 -66 -18 -73
-26 -6 -7 -19 -12 -28 -10 -14 3 -14 5 0 24 10 16 37 27 92 39 43 9 173 48
290 86 250 82 292 91 483 92 113 1 158 -3 204 -17 65 -19 170 -70 226 -108 21
-14 65 -29 110 -37 138 -24 332 -96 412 -152 31 -23 38 -24 38 -5 0 8 -22 28
-50 45 -93 57 -234 108 -377 135 -60 11 -97 26 -162 66 -132 79 -187 93 -376
96 -88 1 -189 -1 -225 -6z m420 -98 c30 -12 94 -44 142 -71 58 -33 107 -53
148 -61 148 -27 358 -103 331 -119 -8 -5 -26 -5 -43 1 -44 16 -95 2 -113 -30
l-14 -27 -1 27 c0 23 -5 27 -39 33 -37 6 -40 9 -43 43 -3 36 -4 37 -46 40 -51
4 -67 -7 -76 -48 -5 -26 -10 -30 -38 -31 -18 0 -58 -2 -89 -4 -51 -3 -58 -1
-67 21 -20 42 -56 56 -157 62 -107 5 -119 0 -130 -54 -7 -40 -19 -38 -20 4 0
26 -2 27 -60 27 -59 0 -60 -1 -65 -30 l-5 -30 -88 4 c-74 3 -92 0 -122 -18
l-35 -20 -35 20 c-27 16 -46 20 -87 16 -29 -2 -63 -8 -75 -12 -21 -7 -23 -4
-23 24 0 39 -28 58 -100 69 l-55 7 60 14 c33 7 156 44 272 82 246 81 288 88
478 85 115 -2 150 -6 195 -24z m-22 -203 c91 -32 91 -194 -1 -263 -23 -17 -47
-22 -133 -26 -57 -3 -104 -3 -104 0 0 3 14 71 30 150 17 79 30 145 30 147 0 8
151 2 178 -8z m372 4 c-1 -35 -13 -49 -46 -50 -29 -1 -34 2 -34 21 0 13 3 26
7 29 9 10 73 9 73 0z m-634 -44 c-5 -33 -4 -37 14 -32 16 4 20 0 20 -21 0 -21
-5 -26 -25 -26 -19 0 -26 -7 -34 -37 -17 -59 -14 -83 9 -83 12 0 20 -7 20 -17
0 -27 -13 -39 -40 -37 -65 3 -70 5 -75 27 -6 21 6 91 21 130 5 13 1 17 -16 17
-16 0 -20 4 -16 16 3 9 6 20 6 25 0 5 8 9 19 9 13 0 21 10 25 33 6 30 9 33 42
33 36 0 36 0 30 -37z m-381 -61 c16 -19 25 -42 25 -64 l0 -34 -81 0 c-78 0
-80 -1 -77 -22 4 -27 41 -36 64 -17 14 12 84 23 84 13 0 -17 -36 -54 -62 -63
-56 -20 -97 -14 -129 18 -33 34 -38 79 -15 136 31 73 141 93 191 33z m228 14
c9 -8 17 -23 17 -34 0 -23 -55 -25 -68 -2 -11 19 -47 15 -47 -6 0 -9 19 -20
47 -28 52 -14 66 -38 54 -87 -17 -68 -165 -74 -195 -8 -15 33 -15 33 23 33 22
0 36 -6 40 -16 4 -10 15 -14 33 -12 45 5 33 30 -22 47 -48 15 -50 17 -53 57
-3 46 10 62 61 74 41 9 87 2 110 -18z m677 16 c-1 -39 -13 -58 -40 -58 -38 0
-56 -25 -71 -97 -12 -59 -14 -61 -46 -65 -19 -2 -35 -3 -37 -1 -1 2 7 51 19
111 l22 107 36 3 c32 3 35 1 30 -20 l-5 -23 16 22 c14 19 25 24 69 32 4 0 7
-5 7 -11z m90 -5 c0 -5 -9 -55 -21 -113 l-21 -105 -34 0 c-19 0 -34 2 -34 5 0
3 10 53 22 113 l22 107 33 0 c18 0 33 -3 33 -7z m102 -75 l3 -82 34 82 33 82
39 0 c22 0 39 -2 39 -5 0 -3 -10 -22 -23 -43 -13 -20 -39 -67 -58 -104 -33
-66 -35 -68 -71 -68 -21 0 -41 0 -45 0 -8 -1 -8 0 -17 100 -4 41 -10 85 -13
98 -5 20 -2 22 36 22 l40 0 3 -82z m-698 -25 c-8 -32 -12 -39 -19 -31 -9 8 6
58 16 58 5 0 6 -12 3 -27z"/>
<path d="M1001 978 c-7 -35 -15 -74 -18 -87 -6 -23 -5 -24 37 -17 61 10 78 21
91 66 9 30 9 46 -1 69 -11 28 -17 31 -55 31 l-42 0 -12 -62z m87 0 c2 -19 -5
-36 -22 -53 -39 -39 -49 -33 -41 23 9 59 12 64 38 60 16 -2 23 -11 25 -30z"/>
<path d="M384 980 c-12 -4 -24 -15 -27 -24 -5 -13 2 -16 38 -16 46 0 58 13 33
38 -14 14 -15 14 -44 2z"/>
<path d="M106 1028 c-9 -36 -8 -38 32 -38 46 0 65 12 60 36 -2 14 -13 20 -44
22 -36 3 -42 0 -48 -20z"/>
<path d="M1811 977 c-43 -21 -37 -37 13 -37 47 0 59 13 34 38 -15 15 -17 15
-47 -1z"/>
<path d="M78 906 l-4 -36 47 0 c88 0 94 62 7 68 -46 3 -46 3 -50 -32z m65 -3
c-7 -2 -19 -2 -25 0 -7 3 -2 5 12 5 14 0 19 -2 13 -5z"/>
<path d="M1782 878 c4 -27 41 -36 65 -17 8 8 28 12 44 11 21 -3 29 1 29 12 0
13 -13 16 -71 16 -67 0 -70 -1 -67 -22z"/>
</g>
</svg>
