<?xml version="1.0" standalone="no"?>
<!DOCTYPE svg PUBLIC "-//W3C//DTD SVG 20010904//EN"
 "http://www.w3.org/TR/2001/REC-SVG-20010904/DTD/svg10.dtd">
<svg version="1.0" xmlns="http://www.w3.org/2000/svg"
 width="100.000000pt" height="100.000000pt" viewBox="0 0 100.000000 100.000000"
 preserveAspectRatio="xMidYMid meet">
<metadata>
Created by potrace 1.16, written by Peter Selinger 2001-2019
</metadata>
<g transform="translate(0.000000,100.000000) scale(0.100000,-0.100000)"
fill="#000000" stroke="none">
<path d="M0 820 c0 -7 173 -10 500 -10 327 0 500 3 500 10 0 7 -173 10 -500
10 -327 0 -500 -3 -500 -10z"/>
<path d="M500 770 c0 -16 7 -20 30 -20 23 0 30 4 30 20 0 22 -15 27 -24 8 -5
-10 -7 -10 -12 0 -9 19 -24 14 -24 -8z"/>
<path d="M184 436 c-3 -8 -4 -25 -2 -38 2 -19 9 -23 43 -24 l40 -1 -37 4 c-34
4 -38 7 -38 33 0 26 4 29 38 33 l37 4 -38 1 c-25 1 -40 -3 -43 -12z"/>
<path d="M838 253 c6 -2 18 -2 25 0 6 3 1 5 -13 5 -14 0 -19 -2 -12 -5z"/>
<path d="M940 220 l0 -30 -470 0 c-307 0 -470 -3 -470 -10 0 -7 167 -10 480
-10 l480 0 0 30 c0 23 4 30 20 30 11 0 20 5 20 10 0 6 -13 10 -30 10 -27 0
-30 -3 -30 -30z"/>
</g>
</svg>
