<?xml version="1.0" standalone="no"?>
<!DOCTYPE svg PUBLIC "-//W3C//DTD SVG 20010904//EN"
 "http://www.w3.org/TR/2001/REC-SVG-20010904/DTD/svg10.dtd">
<svg version="1.0" xmlns="http://www.w3.org/2000/svg"
 width="180.000000pt" height="180.000000pt" viewBox="0 0 180.000000 180.000000"
 preserveAspectRatio="xMidYMid meet">
<metadata>
Created by potrace 1.16, written by Peter Selinger 2001-2019
</metadata>
<g transform="translate(0.000000,180.000000) scale(0.100000,-0.100000)"
fill="#000000" stroke="none">
<path d="M295 1738 c-3 -7 -4 -384 -3 -838 l3 -825 184 -3 c120 -2 188 1 196
8 10 8 34 7 89 -4 215 -45 422 0 572 124 107 88 205 256 208 355 l1 50 -135 5
-135 5 0 65 c0 36 -4 80 -9 99 l-8 33 138 -3 139 -4 -1 42 c-1 59 -60 174
-129 250 -70 78 -168 143 -267 177 -67 23 -92 26 -211 26 -89 0 -150 -5 -183
-15 -27 -8 -52 -11 -56 -7 -4 4 -9 111 -10 237 l-3 230 -188 3 c-144 2 -189 0
-192 -10z m375 -244 l0 -246 23 6 c112 35 136 38 257 34 103 -4 138 -9 197
-30 174 -63 308 -198 368 -370 24 -68 21 -82 -16 -74 -17 3 -80 6 -140 6 -66
0 -109 4 -109 10 0 6 47 10 120 10 l120 0 0 25 c0 14 -15 56 -32 93 -47 96
-159 207 -259 256 -147 72 -327 82 -485 27 -32 -12 -60 -21 -61 -21 -1 0 -4
111 -5 248 l-3 247 -155 0 -155 0 -3 -422 c-2 -348 0 -423 11 -423 11 0 11
-10 1 -62 -17 -78 -17 -152 -3 -236 8 -47 8 -67 0 -75 -7 -7 -11 -75 -11 -203
0 -166 2 -193 16 -198 20 -8 268 -8 288 0 9 3 16 16 16 29 l0 23 68 -26 c89
-33 255 -42 356 -18 165 39 311 156 385 308 28 58 41 98 41 126 l0 42 -115 0
c-70 0 -115 4 -115 10 0 6 52 10 136 10 l136 0 -7 -45 c-21 -146 -144 -321
-281 -401 -24 -14 -77 -38 -117 -52 -64 -23 -87 -25 -212 -25 -115 0 -150 3
-197 20 -56 20 -58 20 -58 2 0 -18 -11 -19 -185 -19 l-185 0 0 830 0 830 185
0 185 0 0 -246z m-50 -43 l0 -248 -41 -29 c-86 -59 -182 -184 -213 -278 -4
-10 -7 -17 -9 -15 -1 2 -1 187 1 412 l3 407 129 0 130 0 0 -249z m438 -216
c169 -40 323 -169 391 -328 l20 -47 -143 0 -142 0 -46 44 c-122 117 -314 113
-432 -9 -79 -81 -107 -209 -70 -319 22 -64 100 -147 166 -177 64 -28 182 -32
238 -6 59 26 118 74 142 116 l23 40 138 3 138 3 -6 -25 c-3 -14 -23 -61 -45
-106 -74 -151 -221 -262 -396 -299 -341 -72 -674 201 -674 552 0 162 52 288
169 404 145 145 334 200 529 154z m-168 -279 c0 -2 -16 -13 -35 -25 -31 -18
-35 -25 -35 -61 0 -38 1 -40 31 -40 24 0 29 -3 21 -12 -5 -7 -12 -24 -14 -38
-4 -24 -5 -23 -21 13 -17 37 -18 37 -77 37 -33 0 -60 4 -60 9 0 16 81 82 124
102 39 18 66 24 66 15z m55 -15 c0 -6 11 -17 25 -24 19 -9 26 -22 28 -49 3
-31 -2 -40 -27 -59 -22 -16 -31 -31 -31 -51 0 -15 4 -28 10 -28 5 0 14 -9 20
-20 8 -16 6 -24 -10 -40 -17 -17 -20 -31 -17 -78 2 -41 6 -51 11 -36 4 12 31
72 61 135 l53 114 47 3 c36 2 46 0 42 -10 -2 -7 -44 -95 -93 -195 l-87 -183
-49 0 c-26 0 -48 4 -48 8 0 5 -39 89 -87 188 -49 98 -89 182 -91 187 -2 4 18
7 45 7 l49 0 60 -135 c32 -74 63 -135 68 -135 4 0 5 7 2 16 -3 9 -7 34 -7 57
-1 23 -3 34 -6 25 -6 -24 -23 -23 -23 1 0 10 7 21 15 25 22 8 19 53 -5 66 -11
6 -20 19 -20 29 0 10 9 26 20 36 14 13 20 31 20 62 0 49 -10 54 -34 18 -18
-27 -46 -34 -46 -11 0 19 27 45 57 57 12 4 23 16 23 25 0 8 6 14 13 12 6 -3
12 -10 12 -17z m119 -20 c27 -14 58 -38 70 -54 11 -15 26 -25 32 -23 7 3 18
-2 24 -10 7 -8 18 -14 26 -14 19 0 38 -74 39 -145 0 -49 -4 -64 -23 -83 -12
-12 -29 -22 -37 -22 -8 0 -15 -4 -15 -9 0 -29 -135 -148 -159 -139 -6 2 28 82
75 178 53 109 84 184 82 200 -3 24 -6 25 -68 25 l-65 0 -23 -49 c-22 -46 -24
-48 -40 -32 -16 16 -16 18 4 34 53 42 59 109 14 153 -27 27 -27 30 -7 23 12
-3 44 -18 71 -33z m-209 -509 c-2 -2 -21 6 -44 17 -103 53 -161 142 -161 246
0 34 5 76 11 94 11 31 12 29 104 -161 51 -106 91 -194 90 -196z m-476 29 c24
-82 149 -232 219 -264 13 -6 22 -19 22 -34 0 -23 0 -23 -130 -23 l-130 0 0
158 c0 86 -3 167 -6 180 -11 39 12 24 25 -17z"/>
<path d="M942 860 c0 -22 1 -40 3 -40 3 0 12 11 21 25 13 20 14 28 4 40 -20
24 -28 18 -28 -25z"/>
<path d="M905 771 c-3 -5 -1 -12 5 -16 5 -3 10 1 10 9 0 18 -6 21 -15 7z"/>
<path d="M941 694 c0 -11 3 -14 6 -6 3 7 2 16 -1 19 -3 4 -6 -2 -5 -13z"/>
</g>
</svg>
