<?xml version="1.0" standalone="no"?>
<!DOCTYPE svg PUBLIC "-//W3C//DTD SVG 20010904//EN"
 "http://www.w3.org/TR/2001/REC-SVG-20010904/DTD/svg10.dtd">
<svg version="1.0" xmlns="http://www.w3.org/2000/svg"
 width="256.000000pt" height="256.000000pt" viewBox="0 0 256.000000 256.000000"
 preserveAspectRatio="xMidYMid meet">
<metadata>
Created by potrace 1.16, written by Peter Selinger 2001-2019
</metadata>
<g transform="translate(0.000000,256.000000) scale(0.100000,-0.100000)"
fill="#000000" stroke="none">
<path d="M370 2504 c0 -4 6 -15 14 -23 8 -9 22 -41 32 -71 18 -52 19 -117 22
-1089 1 -603 -1 -1062 -7 -1101 -8 -57 -21 -95 -59 -174 -8 -15 939 0 1064 17
302 42 467 112 592 253 108 121 157 264 155 459 -2 196 -47 327 -158 455 -81
94 -223 196 -319 231 -20 7 -36 16 -36 20 0 3 29 23 64 44 141 82 233 194 261
317 18 82 7 217 -25 299 -56 142 -183 249 -360 303 -167 51 -247 58 -762 63
-263 3 -478 2 -478 -3z m1076 -47 c284 -51 459 -179 509 -372 22 -88 20 -221
-6 -291 -27 -73 -133 -185 -223 -238 -113 -66 -113 -82 -1 -140 111 -58 161
-91 218 -145 190 -177 265 -471 182 -716 -79 -235 -247 -375 -523 -435 -190
-42 -304 -49 -754 -50 l-427 0 14 33 c34 81 36 178 33 1222 -4 934 -5 1035
-21 1085 -9 30 -17 59 -17 63 0 5 208 7 463 4 371 -3 480 -7 553 -20z"/>
<path d="M822 2413 c-9 -7 -12 -101 -10 -434 l3 -424 225 0 c239 1 293 8 386
51 62 29 136 106 167 171 19 42 22 65 22 178 0 113 -3 138 -24 188 -48 121
-175 219 -326 252 -80 18 -423 31 -443 18z m436 -48 c138 -33 251 -116 298
-219 97 -212 18 -454 -171 -525 -92 -35 -139 -40 -352 -41 l-198 -2 -3 408 -2
407 182 -6 c107 -4 209 -13 246 -22z"/>
<path d="M873 1433 l-63 -4 0 -643 0 -643 53 -7 c81 -9 298 -7 404 5 341 38
532 257 533 610 0 300 -100 493 -314 601 -85 43 -136 57 -266 73 -109 14 -205
16 -347 8z m462 -53 c106 -29 186 -73 261 -142 71 -67 113 -141 146 -253 30
-108 33 -326 4 -425 -58 -201 -198 -331 -406 -377 -57 -13 -128 -17 -290 -17
l-215 -1 -3 624 -2 623 212 -5 c178 -4 226 -8 293 -27z"/>
</g>
</svg>
