<?xml version="1.0" standalone="no"?>
<!DOCTYPE svg PUBLIC "-//W3C//DTD SVG 20010904//EN"
 "http://www.w3.org/TR/2001/REC-SVG-20010904/DTD/svg10.dtd">
<svg version="1.0" xmlns="http://www.w3.org/2000/svg"
 width="100.000000pt" height="100.000000pt" viewBox="0 0 100.000000 100.000000"
 preserveAspectRatio="xMidYMid meet">
<metadata>
Created by potrace 1.16, written by Peter Selinger 2001-2019
</metadata>
<g transform="translate(0.000000,100.000000) scale(0.100000,-0.100000)"
fill="#000000" stroke="none">
<path d="M670 978 c0 -40 33 -65 61 -47 10 6 7 9 -13 9 -24 0 -28 4 -28 30 0
17 -4 30 -10 30 -5 0 -10 -10 -10 -22z"/>
<path d="M720 974 c0 -14 4 -23 9 -20 5 3 7 15 4 26 -7 28 -13 25 -13 -6z"/>
<path d="M750 975 c0 -14 2 -25 4 -25 2 0 6 11 8 25 3 14 1 25 -3 25 -5 0 -9
-11 -9 -25z"/>
<path d="M890 865 c0 -113 2 -135 15 -135 10 0 15 -10 15 -30 0 -20 5 -30 15
-30 12 0 15 -14 15 -68 0 -67 10 -92 37 -92 7 0 13 5 13 10 0 6 -7 10 -15 10
-12 0 -15 17 -15 95 0 78 -3 95 -15 95 -13 0 -15 22 -15 142 0 78 -2 139 -4
137 -3 -2 -6 -59 -7 -127 -1 -67 -6 -122 -11 -122 -4 0 -8 56 -8 125 0 77 -4
125 -10 125 -6 0 -10 -52 -10 -135z"/>
<path d="M985 580 c3 -5 8 -10 11 -10 2 0 4 5 4 10 0 6 -5 10 -11 10 -5 0 -7
-4 -4 -10z"/>
<path d="M985 550 c3 -5 8 -10 11 -10 2 0 4 5 4 10 0 6 -5 10 -11 10 -5 0 -7
-4 -4 -10z"/>
<path d="M368 533 c23 -2 59 -2 80 0 20 2 1 4 -43 4 -44 0 -61 -2 -37 -4z"/>
<path d="M560 510 c-18 -6 -3 -8 50 -9 52 0 70 2 60 9 -18 11 -74 11 -110 0z"/>
<path d="M522 460 c0 -19 2 -27 5 -17 2 9 2 25 0 35 -3 9 -5 1 -5 -18z"/>
<path d="M545 480 c-3 -5 -1 -10 4 -10 6 0 11 5 11 10 0 6 -2 10 -4 10 -3 0
-8 -4 -11 -10z"/>
<path d="M690 468 c0 -18 -5 -28 -15 -28 -10 0 -15 -10 -15 -30 0 -28 -3 -30
-35 -30 -30 0 -35 -3 -34 -22 0 -13 3 -17 6 -10 2 6 18 12 34 12 20 0 31 6 35
18 3 9 13 33 24 53 12 23 15 40 9 50 -6 10 -9 7 -9 -13z"/>
<path d="M962 478 c-8 -8 -12 -45 -12 -100 0 -87 0 -88 25 -88 14 0 25 5 25
10 0 6 -7 10 -15 10 -8 0 -15 4 -15 10 0 5 7 7 15 4 8 -4 15 -1 15 5 0 6 -7
11 -15 11 -12 0 -15 14 -15 65 0 51 3 65 15 65 8 0 15 5 15 10 0 14 -23 13
-38 -2z"/>
<path d="M578 473 c7 -3 16 -2 19 1 4 3 -2 6 -13 5 -11 0 -14 -3 -6 -6z"/>
<path d="M327 453 c-9 -18 -7 -92 2 -98 6 -3 11 -3 11 2 0 4 20 7 45 6 43 -2
45 -1 45 27 0 16 -4 32 -10 35 -6 4 -10 -5 -10 -19 0 -23 -4 -26 -35 -26 -32
0 -35 2 -35 30 0 29 2 30 45 30 25 0 45 5 45 10 0 11 -97 14 -103 3z"/>
<path d="M985 450 c-3 -5 -1 -10 4 -10 6 0 11 5 11 10 0 6 -2 10 -4 10 -3 0
-8 -4 -11 -10z"/>
<path d="M547 429 c19 -19 73 -21 73 -4 0 11 -12 15 -42 15 -31 0 -39 -3 -31
-11z"/>
<path d="M985 420 c-3 -5 -1 -10 4 -10 6 0 11 5 11 10 0 6 -2 10 -4 10 -3 0
-8 -4 -11 -10z"/>
<path d="M358 413 c6 -2 18 -2 25 0 6 3 1 5 -13 5 -14 0 -19 -2 -12 -5z"/>
<path d="M358 333 c6 -2 18 -2 25 0 6 3 1 5 -13 5 -14 0 -19 -2 -12 -5z"/>
<path d="M695 70 c-4 -6 12 -10 39 -10 44 0 46 -1 46 -30 0 -17 5 -30 10 -30
19 0 11 59 -9 70 -25 13 -78 13 -86 0z"/>
<path d="M308 63 c7 -3 16 -2 19 1 4 3 -2 6 -13 5 -11 0 -14 -3 -6 -6z"/>
<path d="M267 43 c-11 -10 -8 -43 3 -43 6 0 10 11 10 25 0 26 -2 29 -13 18z"/>
<path d="M294 38 c-3 -4 6 -8 20 -8 16 0 26 -6 26 -15 0 -8 5 -15 11 -15 6 0
9 10 7 22 -2 16 -10 22 -31 23 -16 0 -31 -3 -33 -7z"/>
<path d="M679 48 c-7 -25 -7 -48 1 -48 6 0 10 11 10 25 0 20 -7 35 -11 23z"/>
<path d="M705 40 c-3 -5 -1 -10 4 -10 6 0 11 5 11 10 0 6 -2 10 -4 10 -3 0 -8
-4 -11 -10z"/>
<path d="M752 20 c0 -14 2 -19 5 -12 2 6 2 18 0 25 -3 6 -5 1 -5 -13z"/>
</g>
</svg>
