<?xml version="1.0" standalone="no"?>
<!DOCTYPE svg PUBLIC "-//W3C//DTD SVG 20010904//EN"
 "http://www.w3.org/TR/2001/REC-SVG-20010904/DTD/svg10.dtd">
<svg version="1.0" xmlns="http://www.w3.org/2000/svg"
 width="192.000000pt" height="192.000000pt" viewBox="0 0 192.000000 192.000000"
 preserveAspectRatio="xMidYMid meet">
<metadata>
Created by potrace 1.16, written by Peter Selinger 2001-2019
</metadata>
<g transform="translate(0.000000,192.000000) scale(0.100000,-0.100000)"
fill="#000000" stroke="none">
<path d="M168 1253 c-9 -2 -44 -36 -77 -76 l-61 -71 0 -82 c0 -81 0 -82 42
-135 82 -105 67 -99 254 -99 l164 0 0 43 c0 39 -7 52 -61 116 l-60 72 38 47
c21 26 48 58 60 72 28 30 33 104 7 114 -18 7 -280 6 -306 -1z m286 -19 c27
-10 17 -47 -27 -98 -23 -27 -52 -61 -64 -75 -21 -26 -23 -26 -165 -26 l-143 0
-3 25 c-2 18 13 44 58 97 34 39 69 74 78 76 26 7 248 8 266 1z m-78 -266 c64
-69 94 -113 94 -136 0 -22 -3 -22 -144 -22 -137 0 -146 1 -168 23 -49 47 -108
131 -108 153 l0 24 144 0 143 0 39 -42z"/>
<path d="M131 1149 c-34 -38 -61 -77 -61 -85 0 -11 23 -14 124 -14 103 0 127
3 144 18 35 29 112 125 112 139 0 10 -29 13 -129 13 l-129 0 -61 -71z m271 24
c-11 -16 -36 -45 -55 -65 l-35 -38 -112 0 -112 0 57 65 57 65 110 0 109 0 -19
-27z"/>
<path d="M66 991 c-15 -23 105 -161 140 -161 22 0 20 4 -24 48 -26 26 -62 65
-78 86 -21 27 -33 35 -38 27z"/>
<path d="M352 928 c33 -35 64 -73 69 -85 5 -13 13 -23 18 -23 26 0 16 25 -39
94 -45 57 -66 76 -84 76 -22 0 -18 -7 36 -62z"/>
<path d="M530 1140 l0 -110 40 0 c43 0 45 -2 30 -28 -56 -98 -70 -147 -70
-234 l0 -88 465 0 c303 0 465 -3 465 -10 0 -5 20 -10 44 -10 25 0 48 5 51 10
4 6 73 10 176 10 l169 0 0 50 0 50 -55 0 c-30 0 -55 5 -55 10 0 6 -13 10 -30
10 -16 0 -30 -4 -30 -10 0 -5 -22 -10 -50 -10 -27 0 -50 5 -50 10 0 6 -20 10
-45 10 -25 0 -45 -4 -45 -10 0 -5 -20 -10 -45 -10 -25 0 -45 5 -45 10 0 6 18
10 40 10 38 0 40 1 40 33 0 17 14 55 30 82 16 28 30 65 30 83 0 37 -14 34 157
32 103 -1 113 1 132 21 17 18 21 36 21 90 0 61 -3 70 -26 88 -24 19 -40 20
-179 20 l-154 0 -3 -37 -3 -37 -17 38 c-16 34 -20 37 -57 37 -29 0 -41 -4 -41
-14 0 -25 -18 -28 -40 -6 -16 16 -33 20 -85 20 -57 0 -69 -3 -90 -25 -21 -20
-25 -34 -25 -88 0 -50 4 -68 20 -85 l21 -22 -34 0 c-34 0 -34 0 -40 55 -3 30
-3 80 0 110 l6 55 -116 0 -116 0 -4 -62 -3 -63 -2 63 -2 62 -45 0 -45 0 0 -70
c0 -63 -2 -70 -20 -70 -18 0 -20 7 -20 69 l0 70 -125 0 -125 1 0 -110z m146
82 c6 -4 15 -38 19 -75 8 -84 0 -97 -65 -97 -44 0 -47 2 -43 23 3 15 11 23 26
22 31 0 33 19 2 23 -14 2 -25 8 -25 14 0 5 7 7 16 4 9 -3 24 -6 35 -6 13 0 19
-7 19 -24 0 -17 -8 -26 -32 -34 l-33 -10 37 -1 c43 -1 64 25 52 62 -4 12 -8
36 -8 52 -1 29 -3 30 -53 35 l-53 6 0 -83 c0 -49 -4 -83 -10 -83 -6 0 -10 37
-10 90 l0 90 58 0 c31 0 62 -4 68 -8z m84 -62 l0 -70 35 0 c28 0 35 -4 35 -20
0 -18 -7 -20 -55 -20 l-55 0 0 90 c0 83 1 90 20 90 18 0 20 -7 20 -70z m130 5
c0 -51 4 -67 16 -72 24 -9 34 15 34 80 0 54 1 57 25 57 24 0 25 -2 25 -62 0
-83 -7 -103 -36 -117 -34 -15 -66 -14 -92 5 -20 13 -22 24 -22 95 0 78 0 79
25 79 24 0 25 -2 25 -65z m240 45 c0 -17 -6 -20 -37 -19 -38 1 -38 1 -8 9 l30
8 -32 1 c-17 0 -38 4 -47 7 -14 5 -16 -6 -16 -80 0 -51 -4 -86 -10 -86 -6 0
-10 37 -10 90 l0 90 65 0 c58 0 65 -2 65 -20z m230 0 c41 -41 8 -69 -43 -35
-20 13 -25 13 -45 -1 -31 -21 -29 -61 3 -76 20 -9 28 -8 43 5 23 21 58 22 66
1 9 -24 7 -54 -4 -54 -5 0 -10 4 -10 9 0 5 -14 3 -31 -6 -38 -19 -91 -10 -119
19 -30 32 -27 102 5 133 32 33 105 35 135 5z m100 15 c0 -14 -62 -126 -67
-121 -7 7 49 126 60 126 4 0 7 -2 7 -5z m59 -77 l40 -83 1 83 0 82 51 0 c73 0
89 -12 89 -65 0 -26 -5 -45 -12 -48 -10 -3 -8 -9 5 -24 19 -22 23 -43 7 -43
-5 0 -10 5 -10 12 0 6 -7 20 -17 30 -15 17 -15 19 0 36 18 20 22 49 9 69 -4 6
-30 13 -57 14 l-50 3 -3 -82 c-2 -56 -7 -82 -15 -82 -11 1 -88 153 -87 173 0
19 12 1 49 -75z m335 61 c21 -17 26 -29 26 -68 0 -69 -24 -91 -99 -91 l-59 0
-1 90 -2 90 54 0 c40 0 61 -6 81 -21z m-1241 -16 c-7 -2 -13 -11 -13 -18 0 -7
6 -16 13 -18 7 -3 5 -6 -5 -6 -13 -1 -18 7 -18 24 0 17 5 25 18 24 10 0 12 -3
5 -6z m42 -18 c0 -29 -20 -28 -21 0 -1 16 3 24 10 22 6 -2 11 -12 11 -22z
m431 -15 c27 0 34 -4 34 -20 0 -16 -7 -20 -35 -20 -24 0 -35 -5 -35 -15 0 -9
9 -15 25 -15 18 0 25 -5 25 -20 0 -16 -7 -20 -33 -20 -32 0 -32 1 -29 40 4 38
6 40 38 40 19 0 34 5 34 10 0 6 -16 10 -35 10 -32 0 -35 2 -34 28 2 23 2 24 6
5 4 -19 11 -23 39 -23z m524 4 c0 -26 1 -27 24 -18 18 7 22 34 5 34 -5 0 -7 5
-4 10 9 14 34 -5 31 -23 -3 -24 -15 -33 -45 -35 -29 -2 -31 0 -31 33 0 22 4
34 10 30 6 -3 10 -17 10 -31z m-120 -50 c0 -14 -20 -1 -21 14 -1 16 -2 16 -6
0 -5 -19 -23 -25 -23 -9 0 5 5 22 11 38 l11 28 14 -34 c8 -18 14 -35 14 -37z
m-187 15 c-17 -17 -37 -1 -22 17 8 10 15 12 23 4 7 -7 7 -13 -1 -21z m356 -50
c26 -35 10 -39 -17 -4 -11 14 -23 25 -26 25 -3 0 -6 -11 -6 -25 0 -14 -4 -25
-10 -25 -10 0 -14 53 -4 62 11 12 42 -5 63 -33z m-144 -6 c8 -23 -5 -31 -16
-10 -12 21 -65 23 -73 2 -3 -8 -10 -15 -15 -15 -17 0 0 31 21 39 29 11 76 1
83 -16z m-385 -3 c0 -11 -4 -20 -10 -20 -5 0 -10 9 -10 20 0 11 5 20 10 20 6
0 10 -9 10 -20z m352 -30 c10 -11 13 -22 8 -25 -6 -4 -10 -1 -10 4 0 6 -9 11
-20 11 -13 0 -18 5 -14 15 8 20 16 19 36 -5z m-740 -38 c-29 -30 -36 -29 -47
6 -6 20 -3 22 34 22 l40 0 -27 -28z m408 12 c0 -17 -22 -14 -28 4 -2 7 3 12
12 12 9 0 16 -7 16 -16z m-447 -87 c20 -45 37 -88 37 -94 0 -18 -47 -16 -54 2
-3 9 -18 15 -36 15 -18 0 -33 -6 -36 -15 -6 -15 -64 -22 -64 -7 0 5 11 30 24
58 13 27 31 66 41 87 27 57 45 48 88 -46z m187 63 c28 -28 26 -50 -4 -50 -14
0 -28 5 -31 10 -10 16 -47 12 -61 -7 -19 -25 -17 -40 7 -64 19 -19 22 -20 46
-4 27 18 36 17 24 -3 -4 -7 -20 -15 -36 -18 -57 -10 -88 63 -45 106 24 24 39
25 66 5 24 -18 34 -19 34 -2 0 8 -12 19 -26 25 -45 21 -114 -9 -114 -50 0 -10
-4 -18 -10 -18 -20 0 -10 32 19 61 37 36 99 41 131 9z m155 9 c-4 -6 -28 -9
-54 -8 l-46 3 0 -78 0 -79 42 -4 c23 -2 44 1 48 7 4 6 -9 10 -34 10 -39 0 -41
1 -41 31 0 17 4 28 10 24 6 -3 10 -13 10 -21 0 -9 11 -14 35 -14 31 0 35 -3
35 -25 0 -24 -3 -25 -60 -25 l-60 0 0 95 0 95 61 0 c40 0 58 -4 54 -11z m85
-31 l40 -43 0 43 c0 37 3 42 23 42 23 0 23 -2 23 -95 0 -111 -9 -119 -65 -54
-44 51 -33 62 12 12 20 -21 37 -36 39 -33 2 3 1 41 -2 85 -6 74 -7 75 -8 23
-1 -32 -4 -58 -7 -58 -2 0 -25 23 -51 50 -26 28 -49 50 -53 50 -3 0 -5 -36 -3
-80 4 -87 17 -104 17 -21 0 30 4 50 10 48 6 -2 10 -9 9 -15 -1 -7 -2 -32 -2
-57 -2 -41 -4 -45 -27 -45 -25 0 -25 0 -25 95 0 112 9 119 70 53z m258 22 c30
-28 29 -60 -2 -60 -13 0 -26 7 -30 15 -8 22 -53 19 -66 -4 -14 -28 -13 -38 11
-62 26 -26 16 -39 -11 -14 -31 28 -24 84 12 104 25 14 29 14 56 -6 34 -25 50
-19 25 9 -21 23 -89 24 -115 1 -24 -22 -25 -94 0 -115 26 -24 56 -30 88 -18
31 12 46 29 37 43 -3 5 -16 -2 -29 -14 -30 -28 -43 -18 -15 10 29 29 61 28 61
-3 0 -50 -99 -75 -149 -37 -16 12 -25 31 -28 64 -5 41 -2 49 25 77 38 37 96
42 130 10z m37 10 c-4 -6 7 -33 24 -60 17 -28 31 -64 31 -81 0 -17 4 -28 10
-24 6 3 10 20 10 36 0 16 11 47 25 69 14 22 25 46 25 55 0 8 5 15 10 15 17 0
11 -23 -20 -75 -16 -27 -30 -65 -30 -82 0 -28 -3 -33 -25 -33 -22 0 -25 4 -25
38 0 22 -10 53 -25 77 -26 42 -32 75 -14 75 5 0 7 -5 4 -10z m43 -15 c6 -14
15 -25 20 -25 5 0 14 11 20 25 6 14 17 25 23 25 7 0 6 -8 -3 -22 -8 -13 -21
-34 -27 -47 l-13 -23 -24 38 c-25 42 -29 54 -16 54 5 0 14 -11 20 -25z m-418
-15 c0 -5 -16 -10 -35 -10 -19 0 -35 -4 -35 -10 0 -5 14 -10 30 -10 23 0 30
-4 30 -20 0 -14 -7 -20 -22 -20 -17 0 -19 3 -9 9 10 7 5 11 -18 16 -24 5 -31
12 -31 31 0 22 4 24 45 24 25 0 45 -4 45 -10z m286 -66 c-5 -13 -10 -14 -18
-6 -6 6 -8 18 -4 28 5 13 10 14 18 6 6 -6 8 -18 4 -28z m-420 17 c-3 -4 -23
-8 -43 -8 -24 0 -37 -4 -35 -11 1 -7 -2 -12 -8 -12 -5 0 -10 9 -10 20 0 17 7
20 51 20 27 0 48 -4 45 -9z m-163 -40 c15 -58 119 -66 140 -10 13 34 31 40 22
7 -11 -37 -43 -58 -89 -58 -44 1 -66 13 -84 47 -14 26 -15 33 -3 33 5 0 11 -9
14 -19z m687 -41 c0 -37 -2 -40 -27 -39 l-28 0 23 16 c12 9 22 26 22 39 0 13
2 24 5 24 3 0 5 -18 5 -40z m-280 -31 c0 -5 -7 -9 -15 -9 -9 0 -15 9 -15 21 0
18 2 19 15 9 8 -7 15 -16 15 -21z m-492 3 c2 -7 -3 -12 -11 -12 -9 0 -18 -6
-20 -12 -3 -7 -6 -4 -6 8 -1 34 27 46 37 16z m629 -12 c18 0 33 -4 33 -10 0
-6 -30 -10 -69 -10 -39 0 -73 5 -76 10 -4 6 7 10 24 10 18 0 31 5 31 12 0 9 3
9 12 0 7 -7 27 -12 45 -12z m-477 -10 c0 -5 -25 -10 -55 -10 -30 0 -55 5 -55
10 0 6 25 10 55 10 30 0 55 -4 55 -10z m190 0 c0 -5 -20 -10 -45 -10 -25 0
-45 5 -45 10 0 6 20 10 45 10 25 0 45 -4 45 -10z m-394 -24 c9 -9 10 -17 4
-21 -5 -3 -10 -12 -10 -18 0 -7 9 -1 19 12 21 27 46 20 38 -10 -6 -21 10 -25
33 -8 13 9 12 10 -2 5 -20 -6 -22 2 -8 24 9 13 11 13 20 0 6 -9 10 -10 10 -3
0 14 42 13 52 -2 5 -6 8 -6 8 3 0 6 9 12 20 12 11 0 20 -7 20 -15 0 -8 -4 -15
-10 -15 -5 0 -10 -4 -10 -8 0 -4 9 -8 21 -8 15 0 19 5 15 19 -8 32 4 47 38 46
26 0 28 -2 11 -9 -18 -8 -17 -9 8 -9 15 -1 27 -6 27 -12 0 -6 -6 -9 -12 -6
-50 18 -57 18 -55 -2 2 -25 37 -37 37 -13 0 14 2 14 9 3 6 -9 11 -10 15 -2 10
16 29 14 23 -3 -4 -10 0 -12 14 -9 10 3 19 10 19 15 0 5 -4 7 -9 4 -5 -3 -14
1 -21 9 -11 13 -7 15 29 15 41 0 55 -13 26 -24 -20 -7 -19 -24 3 -29 9 -3 -88
-5 -215 -5 l-233 -1 0 39 c0 36 2 40 26 40 14 0 32 -6 40 -14z m71 8 c-3 -3
-12 -4 -19 -1 -8 3 -5 6 6 6 11 1 17 -2 13 -5z m393 -3 c0 -5 3 -23 6 -40 6
-29 5 -31 -25 -31 -33 0 -49 19 -35 42 6 9 10 6 14 -11 l5 -24 12 26 c7 15 9
26 5 26 -18 -3 -32 2 -32 11 0 6 11 10 25 10 14 0 25 -4 25 -9z m85 -1 c3 -5
22 -10 42 -10 31 0 34 -2 23 -15 -11 -13 -11 -18 0 -28 10 -10 12 -9 7 4 -9
26 13 39 65 39 26 0 48 5 48 10 0 6 18 10 40 10 22 0 40 -4 40 -10 0 -5 25
-10 56 -10 l55 0 -3 -37 c-3 -33 -7 -38 -30 -41 -16 -2 -28 1 -28 7 0 7 -33
11 -90 11 -79 0 -90 2 -91 18 -1 16 -2 16 -6 0 -4 -16 -17 -18 -94 -18 l-89 0
0 40 c0 36 3 40 24 40 14 0 28 -4 31 -10z m451 -4 c22 -22 17 -29 -16 -23 -28
6 -29 5 -17 -13 6 -11 14 -15 15 -10 3 7 9 7 19 -1 11 -10 14 -10 11 2 -2 9 4
13 17 12 11 -1 14 0 8 3 -29 13 -10 24 41 24 34 0 57 5 60 13 5 10 7 10 12 0
3 -8 26 -13 60 -13 30 0 54 -4 54 -10 0 -5 -6 -10 -12 -11 -10 0 -10 -2 0 -6
6 -2 12 -11 12 -19 0 -11 -16 -14 -65 -14 -60 0 -75 6 -58 23 3 4 12 2 20 -4
10 -9 13 -8 13 4 0 8 6 18 13 20 6 3 -3 4 -20 4 -22 -1 -33 -7 -33 -17 0 -13
-1 -13 -10 0 -9 13 -10 13 -11 0 0 -10 -3 -9 -10 5 l-9 20 3 -20 c2 -11 9 -19
15 -17 7 1 12 -2 12 -8 0 -16 -22 -12 -36 8 -13 16 -13 16 -14 0 0 -15 -10
-18 -65 -18 l-65 0 0 40 c0 34 3 40 21 40 11 0 27 -6 35 -14z"/>
<path d="M730 1146 c0 -36 3 -67 8 -69 4 -3 7 26 7 64 0 38 -3 69 -7 69 -5 0
-8 -29 -8 -64z"/>
<path d="M850 1157 c0 -74 14 -98 57 -99 52 -2 63 15 63 94 0 44 -4 67 -10 63
-5 -3 -10 -33 -10 -65 0 -62 -15 -84 -50 -72 -24 8 -30 24 -30 85 0 31 -4 57
-10 57 -6 0 -10 -28 -10 -63z"/>
<path d="M1254 1210 c-29 -12 -35 -23 -36 -70 -1 -53 23 -80 71 -80 36 0 81
22 81 41 0 15 -27 10 -34 -6 -3 -9 -18 -15 -40 -15 -46 0 -68 29 -55 73 14 49
55 63 91 30 10 -9 21 -13 26 -9 11 11 -37 46 -62 45 -11 0 -31 -4 -42 -9z"/>
<path d="M1750 1212 c-12 -6 -14 -21 -9 -77 l5 -70 2 68 c2 65 3 67 27 67 37
0 78 -44 69 -73 -9 -31 -24 -47 -43 -46 -12 0 -11 4 7 16 37 26 24 83 -21 83
-16 0 -18 -7 -16 -55 2 -44 6 -56 21 -61 25 -8 64 19 71 48 18 71 -48 129
-113 100z m55 -71 c3 -5 1 -12 -5 -16 -5 -3 -10 1 -10 9 0 18 6 21 15 7z"/>
<path d="M606 919 c-35 -79 -40 -118 -9 -71 11 16 25 22 50 22 24 0 41 -7 54
-22 30 -37 23 0 -16 80 -19 40 -36 72 -38 72 -2 0 -21 -37 -41 -81z m61 1 c6
-16 8 -30 3 -30 -5 0 -10 6 -13 13 -3 9 -7 9 -20 -2 -20 -16 -21 -11 -5 24 15
32 21 32 35 -5z"/>
<path d="M571 744 c-1 -37 25 -43 32 -7 2 13 0 23 -4 23 -5 0 -9 -6 -10 -12 0
-7 -4 -4 -9 7 -7 17 -9 15 -9 -11z"/>
<path d="M725 730 c-3 -5 -1 -10 4 -10 6 0 11 5 11 10 0 6 -2 10 -4 10 -3 0
-8 -4 -11 -10z"/>
<path d="M750 731 c0 -6 4 -13 10 -16 6 -3 7 1 4 9 -7 18 -14 21 -14 7z"/>
<path d="M1060 719 c0 -5 5 -7 10 -4 6 3 10 8 10 11 0 2 -4 4 -10 4 -5 0 -10
-5 -10 -11z"/>
<path d="M1380 755 c0 -9 -4 -13 -10 -10 -5 3 -10 0 -10 -8 0 -12 20 -27 36
-27 9 0 3 49 -6 55 -5 3 -10 -1 -10 -10z"/>
<path d="M1145 750 c3 -5 -1 -10 -10 -10 -13 0 -14 -2 -3 -14 11 -12 14 -11
20 3 10 24 9 31 -3 31 -5 0 -7 -4 -4 -10z"/>
<path d="M1166 735 c-3 -8 -1 -15 4 -15 6 0 10 7 10 15 0 8 -2 15 -4 15 -2 0
-6 -7 -10 -15z"/>
<path d="M1270 730 c0 -11 2 -20 4 -20 2 0 6 9 9 20 3 11 1 20 -4 20 -5 0 -9
-9 -9 -20z"/>
<path d="M1320 740 c-13 -9 -13 -11 0 -20 18 -11 39 5 24 20 -6 6 -15 6 -24 0z"/>
<path d="M1430 730 c0 -11 7 -20 15 -20 17 0 18 2 9 24 -9 23 -24 20 -24 -4z"/>
<path d="M1480 731 c0 -17 25 -30 40 -21 13 8 12 10 -2 10 -10 0 -18 5 -18 10
0 6 -4 10 -10 10 -5 0 -10 -4 -10 -9z"/>
<path d="M1670 735 c0 -8 2 -15 4 -15 2 0 6 7 10 15 3 8 1 15 -4 15 -6 0 -10
-7 -10 -15z"/>
<path d="M1820 731 c0 -6 5 -13 10 -16 6 -3 10 1 10 9 0 9 -4 16 -10 16 -5 0
-10 -4 -10 -9z"/>
</g>
</svg>
