<?xml version="1.0" standalone="no"?>
<!DOCTYPE svg PUBLIC "-//W3C//DTD SVG 20010904//EN"
 "http://www.w3.org/TR/2001/REC-SVG-20010904/DTD/svg10.dtd">
<svg version="1.0" xmlns="http://www.w3.org/2000/svg"
 width="100.000000pt" height="100.000000pt" viewBox="0 0 100.000000 100.000000"
 preserveAspectRatio="xMidYMid meet">
<metadata>
Created by potrace 1.16, written by Peter Selinger 2001-2019
</metadata>
<g transform="translate(0.000000,100.000000) scale(0.100000,-0.100000)"
fill="#000000" stroke="none">
<path d="M290 990 c0 -5 -13 -10 -28 -10 -16 0 -34 -8 -42 -20 -8 -11 -20 -20
-28 -20 -15 0 -62 -45 -62 -60 0 -5 -5 -10 -11 -10 -14 0 -39 -26 -39 -40 0
-7 -13 -25 -30 -40 -18 -17 -30 -38 -30 -54 0 -14 -4 -26 -10 -26 -5 0 -10
-13 -10 -30 0 -16 5 -30 10 -30 6 0 10 -52 10 -135 0 -83 -4 -135 -10 -135 -5
0 -10 -20 -10 -45 0 -25 5 -45 10 -45 6 0 10 -9 10 -20 0 -11 5 -20 10 -20 6
0 10 -9 10 -20 0 -11 5 -20 10 -20 6 0 10 -7 10 -15 0 -18 43 -65 60 -65 5 0
10 -5 10 -10 0 -17 47 -60 65 -60 8 0 15 -4 15 -10 0 -5 9 -10 20 -10 11 0 20
-4 20 -10 0 -5 9 -10 20 -10 11 0 20 -4 20 -10 0 -5 14 -10 30 -10 17 0 30 5
30 10 0 6 52 10 135 10 83 0 135 -4 135 -10 0 -5 20 -10 45 -10 25 0 45 5 45
10 0 6 9 10 20 10 11 0 20 5 20 10 0 6 8 10 18 10 10 0 24 9 32 20 8 11 20 20
28 20 16 0 42 24 42 39 0 6 5 11 11 11 15 0 39 26 39 42 0 8 9 20 20 28 11 8
20 22 20 32 0 10 5 18 10 18 6 0 10 9 10 20 0 11 5 20 10 20 6 0 10 20 10 45
0 25 -4 45 -10 45 -6 0 -10 48 -10 125 0 77 4 125 10 125 6 0 10 18 10 40 0
22 -4 40 -10 40 -5 0 -10 9 -10 20 0 11 -4 20 -10 20 -5 0 -10 9 -10 20 0 11
-4 20 -10 20 -5 0 -10 7 -10 15 0 18 -43 65 -60 65 -5 0 -10 5 -10 10 0 17
-47 60 -65 60 -8 0 -15 5 -15 10 0 6 -9 10 -20 10 -11 0 -20 5 -20 10 0 6 -9
10 -20 10 -11 0 -20 5 -20 10 0 6 -20 10 -45 10 -25 0 -45 -4 -45 -10 0 -6
-52 -10 -135 -10 -83 0 -135 4 -135 10 0 6 -13 10 -30 10 -16 0 -30 -4 -30
-10z m60 -20 c0 -5 -9 -10 -20 -10 -11 0 -20 5 -20 10 0 6 9 10 20 10 11 0 20
-4 20 -10z m340 0 c0 -5 -11 -10 -25 -10 -14 0 -25 5 -25 10 0 6 11 10 25 10
14 0 25 -4 25 -10z m-390 -20 c0 -5 -10 -10 -23 -10 -12 0 -29 -9 -37 -20 -8
-11 -20 -20 -28 -20 -14 0 -42 -23 -42 -35 0 -10 -27 -35 -38 -35 -6 0 -12 -6
-15 -12 -2 -7 -8 -10 -12 -6 -9 8 18 38 34 38 6 0 11 5 11 10 0 15 47 60 62
60 8 0 20 9 28 20 15 20 60 28 60 10z m310 0 c-23 -15 66 -13 91 3 17 10 23
10 26 0 3 -7 13 -13 24 -13 10 0 19 -4 19 -10 0 -5 7 -10 15 -10 18 0 65 -43
65 -60 0 -5 5 -10 10 -10 17 0 60 -47 60 -65 0 -8 5 -15 10 -15 6 0 10 -9 10
-20 0 -11 5 -20 10 -20 6 0 10 -9 10 -20 0 -11 5 -20 10 -20 6 0 10 -9 10 -20
0 -11 -4 -20 -10 -20 -5 0 -10 9 -10 20 0 11 -4 20 -10 20 -5 0 -10 -21 -9
-47 0 -36 3 -43 9 -28 5 13 9 -28 9 -110 1 -87 -2 -125 -9 -115 -7 11 -10 2
-10 -32 0 -27 5 -48 10 -48 6 0 10 14 10 30 0 17 5 30 10 30 6 0 10 -13 10
-30 0 -16 -4 -30 -10 -30 -5 0 -10 -9 -10 -20 0 -11 -4 -20 -10 -20 -5 0 -10
-8 -10 -18 0 -10 -9 -24 -20 -32 -11 -8 -20 -20 -20 -28 0 -16 -24 -42 -39
-42 -6 0 -11 -5 -11 -11 0 -15 -26 -39 -42 -39 -8 0 -20 -9 -28 -20 -8 -11
-22 -20 -32 -20 -10 0 -18 -4 -18 -10 0 -5 -9 -10 -20 -10 -11 0 -20 -4 -20
-10 0 -5 -13 -10 -30 -10 -16 0 -30 5 -30 10 0 6 14 10 30 10 17 0 30 5 30 10
0 6 -21 10 -47 10 -35 0 -44 -3 -33 -10 10 -7 -28 -10 -115 -9 -82 0 -123 4
-110 9 15 6 8 9 -27 9 -27 1 -48 -3 -48 -9 0 -5 9 -10 20 -10 11 0 20 -4 20
-10 0 -5 -9 -10 -20 -10 -11 0 -20 5 -20 10 0 6 -9 10 -20 10 -11 0 -20 5 -20
10 0 6 -9 10 -20 10 -11 0 -20 5 -20 10 0 6 -7 10 -15 10 -18 0 -65 43 -65 60
0 5 -5 10 -10 10 -17 0 -60 47 -60 65 0 8 -4 15 -10 15 -5 0 -10 9 -10 19 0
11 -6 21 -12 24 -10 3 -11 9 0 26 15 25 17 114 2 91 -7 -10 -10 28 -9 115 0
82 4 123 9 110 6 -15 9 -7 9 30 1 36 4 46 11 35 7 -11 10 -6 10 20 0 26 3 31
10 20 8 -12 10 -11 10 8 0 12 5 22 10 22 6 0 10 9 10 20 0 11 5 20 11 20 6 0
24 14 39 30 15 17 35 30 44 30 9 0 16 5 16 11 0 5 -4 7 -10 4 -5 -3 -10 -1
-10 4 0 6 9 11 20 11 11 0 20 5 20 10 0 6 10 10 23 10 18 0 19 2 7 10 -11 7
-6 10 20 10 26 0 31 3 20 10 -11 7 -1 10 35 11 37 0 45 3 30 9 -13 5 28 9 110
9 87 1 125 -2 115 -9z m-500 -155 c0 -2 -11 -15 -25 -29 -14 -14 -25 -34 -25
-46 0 -11 -4 -20 -10 -20 -21 0 -8 43 21 71 30 28 39 34 39 24z m-70 -125 c0
-11 -4 -20 -10 -20 -5 0 -10 9 -10 20 0 11 5 20 10 20 6 0 10 -9 10 -20z m0
-335 c0 -14 -4 -25 -10 -25 -5 0 -10 11 -10 25 0 14 5 25 10 25 6 0 10 -11 10
-25z"/>
<path d="M438 883 l-1 -58 -7 50 -7 50 -1 -57 c-2 -52 0 -58 18 -58 17 0 20 7
20 45 0 47 2 49 35 35 17 -7 17 -9 3 -9 -27 -1 -25 -51 2 -51 16 0 20 7 20 35
0 19 5 35 10 35 6 0 10 -20 10 -45 0 -38 3 -45 20 -45 18 0 20 6 18 58 l-1 57
-7 -50 -7 -50 -1 58 c-2 50 -5 57 -22 57 -13 0 -20 -7 -20 -20 0 -13 -7 -20
-20 -20 -13 0 -20 7 -20 20 0 13 -7 20 -20 20 -17 0 -20 -7 -22 -57z"/>
<path d="M680 930 c-11 -7 -7 -10 18 -10 17 0 32 5 32 10 0 13 -30 13 -50 0z"/>
<path d="M720 910 c-12 -8 -11 -10 8 -10 12 0 22 -4 22 -10 0 -5 9 -10 20 -10
11 0 20 -5 20 -10 0 -6 16 -26 35 -45 19 -19 39 -35 45 -35 5 0 10 -9 10 -20
0 -11 4 -20 9 -20 5 0 11 -10 14 -22 3 -21 4 -20 12 6 5 21 4 31 -3 34 -7 2
-12 10 -12 19 0 14 -23 43 -35 43 -4 0 -13 6 -21 14 -8 8 -14 17 -14 21 0 12
-29 35 -44 35 -9 0 -16 5 -16 10 0 13 -30 13 -50 0z"/>
<path d="M753 853 c-13 -3 -23 -12 -23 -21 0 -10 -9 -24 -20 -32 -31 -23 -26
-50 10 -50 27 0 30 -3 30 -30 0 -24 4 -30 23 -30 18 0 19 2 7 10 -12 8 -11 10
8 10 12 0 22 5 22 10 0 6 8 10 19 10 12 0 20 9 23 24 4 18 1 22 -13 19 -25 -7
-73 42 -66 68 3 10 4 18 4 18 -1 -1 -12 -4 -24 -6z m16 -45 c12 -15 11 -18 -3
-18 -10 0 -16 8 -16 22 0 12 1 19 3 17 1 -2 9 -12 16 -21z m18 -76 c-4 -2 -16
5 -26 17 -10 11 -21 18 -25 14 -3 -3 -6 3 -6 15 0 20 3 19 33 -11 17 -18 29
-34 24 -35z m42 21 c2 -2 -5 -3 -17 -3 -14 0 -22 6 -22 16 0 14 3 15 18 3 9
-7 19 -15 21 -16z"/>
<path d="M202 815 c-9 -11 -10 -20 -2 -34 13 -25 13 -31 0 -31 -5 0 -10 9 -10
20 0 11 -4 20 -10 20 -5 0 -10 -5 -10 -11 0 -6 -6 -9 -13 -6 -10 4 -13 -2 -9
-21 3 -15 7 -21 10 -14 3 9 10 6 24 -10 13 -15 21 -19 26 -11 5 8 13 9 22 3
13 -8 12 -10 -2 -10 -10 0 -18 -4 -18 -10 0 -21 32 -9 65 25 42 41 43 48 10
80 -27 28 -63 32 -83 10z m48 -11 c0 -7 -27 -34 -34 -34 -3 0 -6 9 -6 20 0 13
7 20 20 20 11 0 20 -3 20 -6z m20 -40 c0 -3 -7 -12 -15 -21 -20 -19 -32 -10
-14 11 14 15 29 21 29 10z"/>
<path d="M430 780 c11 -7 1 -10 -35 -10 -36 0 -46 -3 -35 -10 13 -8 12 -10 -3
-10 -23 0 -107 -84 -107 -107 0 -15 -2 -16 -10 -3 -7 11 -10 1 -10 -35 0 -36
-3 -46 -10 -35 -7 10 -10 -15 -10 -80 0 -65 3 -90 10 -80 5 8 10 32 10 53 l0
37 135 0 135 0 0 -135 0 -135 -37 0 c-21 0 -45 -5 -53 -10 -10 -7 15 -10 80
-10 65 0 90 3 80 10 -11 7 -7 10 18 10 17 0 32 5 32 10 0 6 9 10 20 10 27 0
110 83 110 110 0 11 5 20 10 20 6 0 10 15 10 33 0 24 3 28 10 17 7 -10 10 15
10 80 0 65 -3 90 -10 80 -5 -8 -10 -32 -10 -52 l0 -38 -135 0 -135 0 0 135 0
135 38 0 c20 0 44 5 52 10 10 7 -15 10 -80 10 -65 0 -90 -3 -80 -10z m48 -142
l-3 -113 -112 -3 -113 -3 0 30 c0 33 35 106 65 136 32 32 97 63 133 64 l33 1
-3 -112z m272 -187 c0 -17 -4 -33 -10 -36 -5 -3 -10 -15 -10 -26 0 -10 -3 -19
-8 -19 -4 0 -13 -13 -20 -29 -7 -17 -26 -36 -43 -43 -16 -7 -29 -16 -29 -20 0
-5 -9 -8 -19 -8 -11 0 -23 -4 -26 -10 -3 -6 -19 -10 -36 -10 l-29 0 0 115 0
115 115 0 115 0 0 -29z"/>
<path d="M580 760 c0 -5 9 -10 20 -10 11 0 20 -4 20 -10 0 -5 11 -10 25 -10
14 0 25 -5 25 -11 0 -6 7 -9 14 -6 11 4 13 1 9 -10 -5 -12 -2 -15 10 -10 11 4
14 2 10 -9 -3 -7 0 -14 6 -14 6 0 11 -9 11 -20 0 -11 5 -20 10 -20 6 0 10 -17
10 -37 0 -28 3 -34 10 -23 17 26 12 74 -10 90 -11 8 -20 20 -20 28 0 17 -25
42 -42 42 -8 0 -20 9 -28 20 -15 21 -80 29 -80 10z"/>
<path d="M920 698 c0 -25 3 -29 10 -18 13 20 13 50 0 50 -5 0 -10 -15 -10 -32z"/>
<path d="M230 389 c0 -27 19 -59 34 -59 3 0 6 11 6 25 0 14 -4 25 -10 25 -5 0
-10 9 -10 20 0 11 -4 20 -10 20 -5 0 -10 -14 -10 -31z"/>
<path d="M66 307 c-5 -15 -6 -31 -2 -34 11 -11 18 5 14 34 l-4 28 -8 -28z"/>
<path d="M270 314 c0 -8 6 -22 14 -30 14 -14 46 -20 46 -9 0 8 -47 55 -55 55
-3 0 -5 -7 -5 -16z"/>
<path d="M920 303 c0 -18 5 -33 10 -33 13 0 13 30 0 50 -7 11 -10 7 -10 -17z"/>
<path d="M85 266 c-5 -21 -4 -31 3 -34 7 -2 12 -10 12 -19 0 -14 23 -43 35
-43 8 0 35 -27 35 -35 0 -12 29 -35 43 -35 9 0 17 -5 19 -12 3 -7 13 -8 34 -3
26 8 27 9 7 12 -13 3 -23 9 -23 14 0 5 -9 9 -20 9 -11 0 -20 5 -20 11 0 5 5 7
10 4 6 -3 10 -1 10 4 0 6 -7 11 -15 11 -20 0 -65 45 -65 65 0 8 -5 15 -11 15
-5 0 -7 -4 -4 -10 3 -5 1 -10 -4 -10 -6 0 -11 9 -11 20 0 11 -4 20 -9 20 -5 0
-11 10 -14 23 -3 20 -4 19 -12 -7z"/>
<path d="M900 273 c0 -13 -4 -23 -10 -23 -5 0 -10 -9 -10 -20 0 -24 6 -25 26
-6 16 17 18 35 4 56 -8 12 -10 11 -10 -7z"/>
<path d="M330 264 c0 -28 68 -44 100 -24 11 7 5 10 -22 10 -21 0 -38 5 -38 10
0 6 -9 10 -20 10 -11 0 -20 -3 -20 -6z"/>
<path d="M850 215 c0 -20 -45 -65 -65 -65 -8 0 -15 -5 -15 -11 0 -5 5 -7 10
-4 6 3 10 1 10 -4 0 -6 9 -11 20 -11 11 0 20 5 20 11 0 14 25 39 39 39 6 0 11
9 11 20 0 11 -5 20 -11 20 -5 0 -7 5 -4 10 3 6 1 10 -4 10 -6 0 -11 -7 -11
-15z"/>
<path d="M750 111 c0 -5 -10 -11 -22 -14 -22 -3 -22 -4 4 -11 20 -6 32 -4 43
7 20 21 19 27 -5 27 -11 0 -20 -4 -20 -9z"/>
<path d="M270 70 c0 -13 30 -13 50 0 11 7 7 10 -17 10 -18 0 -33 -4 -33 -10z"/>
<path d="M680 70 c20 -13 50 -13 50 0 0 6 -15 10 -32 10 -25 0 -29 -3 -18 -10z"/>
</g>
</svg>
