<?xml version="1.0" standalone="no"?>
<!DOCTYPE svg PUBLIC "-//W3C//DTD SVG 20010904//EN"
 "http://www.w3.org/TR/2001/REC-SVG-20010904/DTD/svg10.dtd">
<svg version="1.0" xmlns="http://www.w3.org/2000/svg"
 width="100.000000pt" height="100.000000pt" viewBox="0 0 100.000000 100.000000"
 preserveAspectRatio="xMidYMid meet">
<metadata>
Created by potrace 1.16, written by Peter Selinger 2001-2019
</metadata>
<g transform="translate(0.000000,100.000000) scale(0.100000,-0.100000)"
fill="#000000" stroke="none">
<path d="M600 861 c0 -25 -4 -30 -27 -33 -22 -2 -29 -9 -31 -30 -3 -21 -9 -27
-30 -30 -25 -3 -27 -7 -27 -48 l0 -45 57 -3 c53 -3 57 -5 60 -30 3 -25 6 -27
53 -27 47 0 50 2 53 28 3 24 7 27 42 27 l39 0 3 -62 3 -63 45 0 45 0 0 170 0
170 -142 3 -143 3 0 -30z m210 -15 c0 -19 -4 -23 -20 -19 -11 3 -20 9 -20 14
0 5 -4 9 -10 9 -5 0 -10 -6 -10 -14 0 -9 -7 -12 -19 -9 -10 3 -22 0 -25 -6 -5
-8 19 -11 78 -11 l86 0 0 -90 0 -90 -30 0 c-27 0 -30 3 -30 30 l0 30 -60 0
-60 0 0 86 c0 54 -4 83 -10 79 -5 -3 -10 -28 -10 -56 0 -46 -2 -49 -25 -49
-24 0 -25 3 -25 60 l0 60 95 0 c94 0 95 0 95 -24z m60 4 c0 -13 -7 -20 -19
-20 -10 0 -21 9 -24 20 -4 16 0 20 19 20 17 0 24 -6 24 -20z m-264 -70 c-1
-22 -6 -30 -19 -30 -10 0 -15 -4 -12 -10 3 -5 26 -10 51 -10 40 0 44 -2 44
-24 0 -14 5 -28 10 -31 6 -3 10 -15 10 -26 0 -15 -7 -19 -35 -19 -32 0 -35 2
-35 30 l0 30 -60 0 -60 0 0 30 c0 27 3 30 30 30 27 0 30 3 30 30 0 25 4 30 24
30 19 0 23 -5 22 -30z m264 -192 c0 -24 -4 -28 -30 -28 -26 0 -30 4 -30 28 0
23 4 27 30 27 26 0 30 -4 30 -27z"/>
<path d="M810 743 l0 -47 20 22 c24 26 25 32 4 32 -11 0 -14 6 -9 20 4 11 2
20 -4 20 -6 0 -11 -20 -11 -47z"/>
<path d="M728 743 c12 -2 32 -2 45 0 12 2 2 4 -23 4 -25 0 -35 -2 -22 -4z"/>
<path d="M825 680 c3 -5 10 -10 16 -10 5 0 9 5 9 10 0 6 -7 10 -16 10 -8 0
-12 -4 -9 -10z"/>
<path d="M174 696 c-3 -8 -4 -29 -2 -48 2 -28 7 -34 31 -36 38 -5 36 -32 -3
-32 l-31 0 3 -77 3 -78 45 0 c42 0 45 2 48 28 2 15 7 27 12 27 5 0 10 -12 12
-27 3 -26 6 -28 48 -28 l45 0 3 57 3 57 92 3 92 3 0 50 0 50 -57 3 c-57 3 -58
4 -58 32 l0 30 -140 0 c-112 0 -142 -3 -146 -14z m266 -36 l0 -30 60 0 60 0 0
-35 0 -35 -91 0 c-79 0 -90 2 -85 16 3 9 6 20 6 25 0 5 7 9 15 9 8 0 15 5 15
10 0 6 -11 10 -25 10 -18 0 -25 5 -25 20 0 11 -4 20 -10 20 -5 0 -10 -4 -10
-10 0 -14 -37 -12 -43 3 -4 8 -8 9 -14 1 -14 -19 -43 -25 -43 -9 0 8 -4 15
-10 15 -5 0 -10 -9 -10 -20 0 -13 -7 -20 -20 -20 -16 0 -20 7 -20 30 l0 30
125 0 125 0 0 -30z m-70 -95 l0 -65 -30 0 c-27 0 -30 3 -30 30 0 27 -3 30 -30
30 -28 0 -30 3 -30 35 l0 35 60 0 60 0 0 -65z m-120 -30 c0 -14 5 -25 10 -25
6 0 10 7 10 15 0 8 5 15 10 15 6 0 10 -9 10 -20 0 -17 -7 -20 -50 -20 -49 0
-50 1 -50 30 0 27 3 30 30 30 25 0 30 -4 30 -25z m0 -72 c0 -19 -6 -23 -30
-23 -24 0 -30 4 -30 23 0 18 6 22 30 22 24 0 30 -4 30 -22z m120 -3 c0 -16 -7
-20 -30 -20 -23 0 -30 4 -30 20 0 16 7 20 30 20 23 0 30 -4 30 -20z"/>
<path d="M440 601 c0 -12 5 -21 10 -21 6 0 10 6 10 14 0 8 -4 18 -10 21 -5 3
-10 -3 -10 -14z"/>
<path d="M500 595 c0 -8 5 -15 10 -15 6 0 10 7 10 15 0 8 -4 15 -10 15 -5 0
-10 -7 -10 -15z"/>
<path d="M112 288 l3 -113 27 -3 c21 -3 27 -9 30 -30 3 -25 7 -27 48 -27 41 0
45 2 48 27 3 21 9 27 30 30 27 3 27 4 27 78 l0 75 -57 3 -58 3 0 34 0 35 -50
0 -51 0 3 -112z m78 63 c0 -25 -3 -28 -25 -23 -15 2 -25 0 -25 -7 0 -6 11 -11
25 -11 21 0 25 -5 25 -30 0 -27 -3 -30 -30 -30 l-30 0 0 65 0 65 30 0 c26 0
30 -3 30 -29z m120 -101 c0 -53 -2 -60 -20 -60 -16 0 -20 7 -20 30 0 17 5 30
10 30 6 0 10 5 10 10 0 6 -18 10 -40 10 -33 0 -40 3 -40 20 0 17 7 20 50 20
l50 0 0 -60z m-60 -30 c0 -27 -3 -30 -30 -30 -27 0 -30 3 -30 30 0 27 3 30 30
30 27 0 30 -3 30 -30z m-80 -11 c0 -12 -7 -19 -20 -19 -14 0 -20 7 -20 24 0
19 4 23 20 19 11 -3 20 -14 20 -24z m80 -59 c0 -16 -7 -20 -30 -20 -23 0 -30
4 -30 20 0 16 7 20 30 20 23 0 30 -4 30 -20z"/>
<path d="M427 263 c-4 -3 -7 -17 -7 -29 0 -18 -6 -23 -32 -26 -32 -3 -33 -5
-33 -48 l0 -45 110 0 110 0 3 78 3 77 -74 0 c-40 0 -77 -3 -80 -7z m56 -33
c-3 -11 -14 -20 -24 -20 -12 0 -19 7 -19 20 0 14 7 20 24 20 19 0 23 -4 19
-20z m77 -40 c0 -57 -1 -60 -25 -60 -19 0 -23 4 -18 18 4 9 14 22 22 29 14 11
12 12 -11 13 -24 0 -28 4 -28 30 0 27 3 30 30 30 l30 0 0 -60z m-138 -30 c4
-27 2 -30 -24 -30 -24 0 -28 4 -28 30 0 25 4 30 24 30 19 0 25 -6 28 -30z m78
0 c0 -27 -3 -30 -30 -30 -27 0 -30 3 -30 30 0 27 3 30 30 30 27 0 30 -3 30
-30z"/>
</g>
</svg>
