<?xml version="1.0" standalone="no"?>
<!DOCTYPE svg PUBLIC "-//W3C//DTD SVG 20010904//EN"
 "http://www.w3.org/TR/2001/REC-SVG-20010904/DTD/svg10.dtd">
<svg version="1.0" xmlns="http://www.w3.org/2000/svg"
 width="180.000000pt" height="180.000000pt" viewBox="0 0 180.000000 180.000000"
 preserveAspectRatio="xMidYMid meet">
<metadata>
Created by potrace 1.16, written by Peter Selinger 2001-2019
</metadata>
<g transform="translate(0.000000,180.000000) scale(0.100000,-0.100000)"
fill="#000000" stroke="none">
<path d="M727 1784 c-311 -67 -567 -291 -669 -584 -49 -141 -62 -324 -34 -472
65 -339 338 -625 671 -701 118 -27 135 -28 135 -12 0 10 -10 15 -27 15 -39 0
-156 32 -230 63 -147 60 -297 186 -392 327 -244 365 -189 815 137 1121 121
114 302 206 445 225 30 4 47 12 47 20 0 16 4 16 -83 -2z"/>
<path d="M1000 1786 c0 -9 18 -16 49 -20 123 -16 284 -90 402 -184 145 -117
269 -307 306 -474 11 -48 23 -78 31 -78 8 0 10 9 6 28 -39 170 -83 270 -173
389 -122 161 -302 281 -491 326 -111 26 -130 28 -130 13z"/>
<path d="M740 1719 c-25 -5 -80 -21 -122 -36 l-78 -26 0 -254 c0 -139 3 -253
8 -253 4 0 36 -5 71 -11 91 -14 160 -50 220 -114 29 -30 60 -55 69 -55 9 0 36
22 60 49 55 65 147 111 234 118 58 5 67 3 94 -20 l29 -25 0 -119 c0 -158 -17
-206 -99 -289 -68 -68 -137 -100 -237 -111 l-59 -6 0 -248 0 -249 28 0 c54 0
159 22 239 49 208 71 391 243 477 448 106 252 79 568 -67 791 -119 184 -309
314 -519 356 -83 17 -272 20 -348 5z m328 -25 c497 -101 783 -639 586 -1106
-112 -267 -358 -451 -656 -493 l-48 -6 0 229 0 229 59 6 c100 11 169 43 237
111 85 85 99 129 99 307 0 120 -2 139 -19 158 -66 73 -282 23 -377 -88 l-41
-48 -50 54 c-59 62 -129 98 -219 112 -35 6 -67 11 -71 11 -5 0 -8 105 -8 233
l0 234 78 26 c42 15 97 31 122 36 74 14 226 12 308 -5z"/>
<path d="M393 1561 c-106 -84 -198 -201 -250 -319 -86 -195 -85 -490 1 -687
82 -185 246 -343 440 -424 67 -28 215 -61 272 -61 l24 0 0 248 0 247 -75 12
c-132 21 -232 89 -282 191 l-28 57 -3 388 -3 387 -24 0 c-13 0 -45 -17 -72
-39z m110 -813 c50 -102 150 -170 282 -191 l75 -12 0 -227 0 -228 -42 6 c-203
29 -367 111 -499 251 -146 153 -219 337 -219 553 0 257 108 478 315 643 l50
40 5 -389 5 -389 28 -57z"/>
<path d="M547 1094 c-12 -12 -8 -253 5 -295 28 -95 131 -165 257 -176 l71 -6
0 129 c0 71 -5 145 -10 164 -20 73 -101 149 -179 169 -57 15 -136 23 -144 15z
m173 -54 c21 -11 52 -33 69 -51 57 -57 65 -82 69 -223 l4 -129 -53 7 c-111 14
-211 88 -237 175 -12 38 -17 243 -7 253 10 9 117 -13 155 -32z"/>
<path d="M1167 1090 c-109 -19 -194 -88 -221 -181 -11 -35 -16 -93 -16 -172
l0 -120 70 6 c118 10 205 62 253 152 19 35 21 57 22 180 l0 140 -30 2 c-16 0
-51 -3 -78 -7z m87 -136 c0 -101 -3 -125 -21 -159 -44 -83 -127 -137 -230
-151 l-53 -7 0 100 c0 166 42 253 145 303 42 20 127 40 150 35 6 -1 10 -49 9
-121z"/>
<path d="M1762 713 c-18 -86 -71 -209 -125 -290 -58 -88 -202 -225 -288 -276
-88 -52 -206 -96 -295 -110 -45 -7 -74 -16 -74 -24 0 -8 12 -10 38 -6 221 32
390 119 543 281 97 103 156 199 197 327 38 116 45 155 29 155 -8 0 -18 -24
-25 -57z"/>
</g>
</svg>
