<?xml version="1.0" standalone="no"?>
<!DOCTYPE svg PUBLIC "-//W3C//DTD SVG 20010904//EN"
 "http://www.w3.org/TR/2001/REC-SVG-20010904/DTD/svg10.dtd">
<svg version="1.0" xmlns="http://www.w3.org/2000/svg"
 width="256.000000pt" height="256.000000pt" viewBox="0 0 256.000000 256.000000"
 preserveAspectRatio="xMidYMid meet">
<metadata>
Created by potrace 1.16, written by Peter Selinger 2001-2019
</metadata>
<g transform="translate(0.000000,256.000000) scale(0.100000,-0.100000)"
fill="#000000" stroke="none">
<path d="M1125 2539 c-473 -65 -874 -391 -1029 -837 -53 -154 -70 -254 -70
-422 0 -213 41 -387 136 -572 64 -126 127 -212 236 -321 438 -444 1144 -496
1647 -122 91 68 238 221 297 311 98 147 175 344 198 504 15 103 12 347 -5 439
-94 492 -472 883 -965 998 -120 27 -330 38 -445 22z m375 -35 c114 -20 244
-65 354 -122 231 -119 448 -343 557 -576 89 -191 109 -287 109 -527 0 -167 -3
-196 -26 -289 -176 -696 -912 -1112 -1576 -890 -518 174 -868 649 -868 1179 0
339 132 646 382 887 181 174 370 278 602 329 158 35 299 38 466 9z"/>
<path d="M1075 2454 c-100 -18 -289 -81 -310 -104 -13 -15 -15 -64 -13 -371
l3 -354 76 -6 c168 -14 306 -84 389 -196 34 -47 51 -62 70 -62 19 0 36 15 70
62 76 104 215 178 359 194 43 4 67 1 94 -12 56 -26 67 -61 67 -213 0 -157 -10
-217 -52 -302 -76 -155 -268 -269 -455 -270 l-53 0 0 -365 c0 -343 1 -365 18
-365 51 0 198 24 282 46 113 29 289 114 382 184 97 73 246 235 301 327 147
245 203 513 167 801 -41 325 -236 642 -504 819 -151 99 -333 170 -499 192
-106 15 -295 12 -392 -5z m443 -29 c171 -36 325 -104 457 -202 308 -229 478
-565 478 -943 -1 -241 -68 -462 -204 -662 -98 -143 -272 -294 -434 -377 -137
-69 -319 -120 -432 -121 l-43 0 0 340 0 340 58 0 c220 1 421 142 483 341 25
81 28 393 4 439 -22 43 -63 60 -141 60 -168 0 -363 -102 -430 -225 -10 -19
-21 -35 -24 -35 -3 0 -14 16 -24 35 -66 121 -262 225 -425 225 l-61 0 2 347 3
346 70 29 c84 35 195 64 290 77 92 13 282 6 373 -14z"/>
<path d="M580 2243 c-191 -139 -352 -363 -424 -593 -78 -245 -71 -557 17 -790
60 -159 132 -274 251 -399 208 -217 460 -338 764 -366 l72 -6 0 365 0 366 -53
0 c-70 0 -195 32 -260 67 -66 36 -155 124 -189 189 -57 105 -58 122 -58 691
l0 523 -28 0 c-18 0 -52 -18 -92 -47z m100 -501 c0 -443 2 -537 15 -587 52
-199 233 -337 463 -352 l82 -6 0 -342 0 -341 -72 8 c-505 54 -929 444 -1023
941 -20 105 -20 342 0 439 48 230 146 416 309 586 73 76 200 182 219 182 4 0
7 -238 7 -528z"/>
<path d="M1652 1555 c-144 -32 -239 -102 -295 -214 l-32 -66 -3 -197 -4 -198
80 0 c240 0 401 139 423 364 11 115 11 287 1 304 -13 19 -100 23 -170 7z m146
-192 c-3 -168 -4 -181 -30 -235 -62 -134 -221 -228 -383 -228 l-45 0 0 139 c0
216 23 296 110 381 77 75 183 118 293 119 l59 1 -4 -177z"/>
<path d="M756 1529 c-9 -46 -7 -202 4 -297 17 -147 93 -253 228 -315 57 -25
83 -31 170 -35 l104 -5 -4 199 c-3 191 -4 201 -29 255 -68 145 -210 229 -389
229 l-77 0 -7 -31z m173 0 c121 -27 223 -109 275 -218 30 -64 31 -70 34 -240
l4 -174 -73 6 c-145 12 -258 71 -325 171 -55 83 -64 127 -64 308 l0 158 53 0
c28 0 72 -5 96 -11z"/>
</g>
</svg>
