<?xml version="1.0" standalone="no"?>
<!DOCTYPE svg PUBLIC "-//W3C//DTD SVG 20010904//EN"
 "http://www.w3.org/TR/2001/REC-SVG-20010904/DTD/svg10.dtd">
<svg version="1.0" xmlns="http://www.w3.org/2000/svg"
 width="100.000000pt" height="100.000000pt" viewBox="0 0 100.000000 100.000000"
 preserveAspectRatio="xMidYMid meet">
<metadata>
Created by potrace 1.16, written by Peter Selinger 2001-2019
</metadata>
<g transform="translate(0.000000,100.000000) scale(0.100000,-0.100000)"
fill="#000000" stroke="none">
<path d="M410 930 c11 -7 1 -10 -35 -10 -36 0 -46 -3 -35 -10 11 -7 7 -10 -17
-10 -18 0 -33 -4 -33 -10 0 -5 -9 -10 -20 -10 -11 0 -20 -5 -20 -11 0 -5 5 -7
10 -4 6 3 10 1 10 -4 0 -6 -7 -11 -15 -11 -20 0 -105 -85 -105 -105 0 -8 -5
-15 -11 -15 -5 0 -7 5 -4 10 3 6 1 10 -4 10 -6 0 -11 -9 -11 -20 0 -11 -4 -20
-10 -20 -5 0 -10 -15 -10 -32 0 -25 -3 -29 -10 -18 -7 11 -10 1 -10 -35 0 -36
-3 -46 -10 -35 -7 10 -10 -19 -10 -90 0 -71 3 -100 10 -90 7 11 10 1 10 -35 0
-36 3 -46 10 -35 7 11 10 7 10 -17 0 -18 5 -33 10 -33 6 0 10 -9 10 -20 0 -11
5 -20 11 -20 5 0 7 5 4 10 -3 6 -1 10 4 10 6 0 11 -7 11 -15 0 -20 85 -105
105 -105 8 0 15 -5 15 -11 0 -5 -4 -7 -10 -4 -5 3 -10 1 -10 -4 0 -6 9 -11 20
-11 11 0 20 -4 20 -10 0 -5 9 -10 20 -10 11 0 20 -4 20 -10 0 -5 21 -10 48
-10 34 0 43 -3 32 -10 -10 -7 19 -10 90 -10 71 0 100 3 90 10 -11 7 -2 10 33
10 26 0 47 5 47 10 0 6 9 10 20 10 11 0 20 5 20 10 0 6 9 10 20 10 11 0 20 5
20 11 0 5 -4 7 -10 4 -5 -3 -10 -1 -10 4 0 6 7 11 15 11 20 0 105 85 105 105
0 8 5 15 11 15 5 0 7 -4 4 -10 -3 -5 -1 -10 4 -10 6 0 11 9 11 20 0 11 5 20
10 20 6 0 10 9 10 20 0 11 5 20 10 20 6 0 10 21 10 48 0 34 3 43 10 32 7 -10
10 19 10 90 0 71 -3 100 -10 90 -7 -11 -10 -2 -10 33 0 26 -4 47 -10 47 -5 0
-10 9 -10 20 0 11 -4 20 -10 20 -5 0 -10 9 -10 20 0 11 -5 20 -11 20 -5 0 -7
-4 -4 -10 3 -5 1 -10 -4 -10 -6 0 -11 7 -11 15 0 9 -20 36 -45 60 -24 25 -51
45 -60 45 -8 0 -15 5 -15 11 0 5 5 7 10 4 6 -3 10 -1 10 4 0 6 -9 11 -20 11
-11 0 -20 5 -20 10 0 6 -15 10 -32 10 -25 0 -29 3 -18 10 11 7 1 10 -35 10
-36 0 -46 3 -35 10 10 7 -19 10 -90 10 -71 0 -100 -3 -90 -10z m180 -40 c-11
-7 -2 -10 33 -10 26 0 47 -5 47 -11 0 -5 -4 -7 -10 -4 -5 3 -10 1 -10 -4 0 -6
15 -11 33 -11 24 0 28 -3 17 -10 -13 -8 -12 -10 3 -10 23 0 127 -104 127 -127
0 -15 2 -16 10 -3 7 11 10 7 10 -17 0 -18 5 -33 11 -33 5 0 7 5 4 10 -3 6 -1
10 4 10 6 0 11 -21 11 -47 0 -35 3 -44 10 -33 7 10 10 -19 10 -90 0 -71 -3
-100 -10 -90 -7 11 -10 2 -10 -32 0 -27 -5 -48 -11 -48 -5 0 -7 5 -4 10 3 6 1
10 -4 10 -6 0 -11 -15 -11 -32 0 -25 -3 -29 -10 -18 -8 13 -10 12 -10 -3 0
-23 -104 -127 -127 -127 -15 0 -16 -2 -3 -10 11 -7 7 -10 -17 -10 -18 0 -33
-5 -33 -11 0 -5 5 -7 10 -4 6 3 10 1 10 -4 0 -6 -21 -11 -47 -11 -35 0 -44 -3
-33 -10 10 -7 -19 -10 -90 -10 -71 0 -100 3 -90 10 11 7 2 10 -32 10 -27 0
-48 5 -48 11 0 5 5 7 10 4 6 -3 10 -1 10 4 0 6 -15 11 -32 11 -25 0 -29 3 -18
10 13 8 12 10 -3 10 -23 0 -127 104 -127 127 0 15 -2 16 -10 3 -7 -11 -10 -7
-10 18 0 17 -5 32 -11 32 -5 0 -7 -4 -4 -10 3 -5 1 -10 -4 -10 -6 0 -11 21
-11 48 0 34 -3 43 -10 32 -7 -10 -10 19 -10 90 0 71 3 100 10 90 7 -11 10 -2
10 33 0 26 5 47 11 47 5 0 7 -4 4 -10 -3 -5 -1 -10 4 -10 6 0 11 15 11 33 0
24 3 28 10 17 8 -13 10 -12 10 3 0 23 104 127 127 127 15 0 16 2 3 10 -11 7
-3 10 30 10 31 0 41 3 30 9 -8 6 -18 7 -22 5 -4 -3 -8 0 -8 5 0 6 21 11 48 11
34 0 43 3 32 10 -10 7 19 10 90 10 71 0 100 -3 90 -10z"/>
<path d="M300 760 c13 -8 12 -10 -3 -10 -24 0 -47 -23 -47 -47 0 -15 -2 -16
-10 -3 -8 12 -10 11 -10 -7 0 -13 -4 -23 -10 -23 -5 0 -10 -9 -10 -20 0 -11
-4 -20 -10 -20 -5 0 -10 -21 -10 -47 0 -35 -3 -44 -10 -33 -7 11 -10 -4 -10
-50 0 -46 3 -61 10 -50 7 11 10 4 10 -27 0 -24 5 -43 10 -43 6 0 10 -11 10
-25 0 -14 5 -25 10 -25 6 0 10 -10 10 -22 0 -19 2 -20 10 -8 8 13 10 12 10 -3
0 -26 45 -67 75 -67 25 0 25 1 25 75 l0 75 150 0 150 0 0 -75 c0 -74 0 -75 25
-75 29 0 95 59 95 85 0 8 5 15 10 15 6 0 10 11 10 25 0 14 5 25 10 25 6 0 10
19 11 43 1 36 2 38 9 17 5 -17 8 3 8 60 0 57 -3 77 -8 60 -7 -20 -8 -16 -9 23
-1 26 -5 47 -11 47 -5 0 -10 9 -10 20 0 11 -4 20 -10 20 -5 0 -10 7 -10 15 0
26 -66 85 -95 85 -24 0 -25 -2 -25 -70 l0 -70 -150 0 -150 0 0 70 0 70 -32 0
c-25 0 -29 -3 -18 -10z m10 -260 c0 -116 -2 -210 -5 -210 -15 0 -55 51 -55 70
0 11 -4 20 -10 20 -5 0 -10 19 -11 43 -1 36 -2 38 -9 17 -5 -17 -8 3 -8 60 0
57 3 77 8 60 7 -20 8 -16 9 23 1 26 6 47 11 47 6 0 10 7 10 15 0 16 39 63 53
64 4 1 7 -93 7 -209z m415 185 c14 -13 25 -31 25 -40 0 -8 5 -15 10 -15 6 0
10 -21 11 -47 1 -39 2 -43 9 -23 5 17 8 -3 8 -60 0 -57 -3 -77 -8 -60 -7 21
-8 19 -9 -17 -1 -24 -5 -43 -11 -43 -5 0 -10 -9 -10 -20 0 -19 -40 -70 -55
-70 -3 0 -5 94 -5 210 0 116 2 210 5 210 3 0 17 -11 30 -25z m-147 -82 c-43
-2 -113 -2 -155 0 -43 1 -8 3 77 3 85 0 120 -2 78 -3z m72 -103 l0 -80 -150 0
-150 0 0 80 0 80 150 0 150 0 0 -80z"/>
<path d="M433 353 c37 -2 97 -2 135 0 37 2 6 3 -68 3 -74 0 -105 -1 -67 -3z"/>
</g>
</svg>
