<?xml version="1.0" standalone="no"?>
<!DOCTYPE svg PUBLIC "-//W3C//DTD SVG 20010904//EN"
 "http://www.w3.org/TR/2001/REC-SVG-20010904/DTD/svg10.dtd">
<svg version="1.0" xmlns="http://www.w3.org/2000/svg"
 width="100.000000pt" height="100.000000pt" viewBox="0 0 100.000000 100.000000"
 preserveAspectRatio="xMidYMid meet">
<metadata>
Created by potrace 1.16, written by Peter Selinger 2001-2019
</metadata>
<g transform="translate(0.000000,100.000000) scale(0.100000,-0.100000)"
fill="#000000" stroke="none">
<path d="M270 990 c0 -5 -9 -10 -20 -10 -11 0 -20 -4 -20 -10 0 -5 -7 -10 -15
-10 -17 0 -85 -64 -85 -80 0 -5 -5 -10 -10 -10 -16 0 -80 -68 -80 -85 0 -8 -4
-15 -10 -15 -5 0 -10 -9 -10 -20 0 -11 -4 -20 -10 -20 -5 0 -10 -18 -10 -40 0
-22 5 -40 10 -40 6 0 10 14 10 30 0 17 5 30 10 30 6 0 10 9 10 20 0 11 5 20
10 20 6 0 10 7 10 15 0 17 64 85 80 85 5 0 10 5 10 10 0 16 68 80 85 80 8 0
15 5 15 10 0 6 9 10 20 10 11 0 20 5 20 10 0 6 14 10 30 10 17 0 30 5 30 10 0
6 -18 10 -40 10 -22 0 -40 -4 -40 -10z"/>
<path d="M650 990 c0 -5 14 -10 30 -10 17 0 30 -4 30 -10 0 -5 9 -10 20 -10
11 0 20 -4 20 -10 0 -5 7 -10 15 -10 17 0 85 -64 85 -80 0 -5 5 -10 10 -10 16
0 80 -68 80 -85 0 -8 5 -15 10 -15 6 0 10 -9 10 -20 0 -11 5 -20 10 -20 6 0
10 -13 10 -30 0 -16 5 -30 10 -30 6 0 10 18 10 40 0 22 -4 40 -10 40 -5 0 -10
9 -10 20 0 11 -4 20 -10 20 -5 0 -10 7 -10 15 0 17 -64 85 -80 85 -5 0 -10 5
-10 10 0 16 -68 80 -85 80 -8 0 -15 5 -15 10 0 6 -9 10 -20 10 -11 0 -20 5
-20 10 0 6 -18 10 -40 10 -22 0 -40 -4 -40 -10z"/>
<path d="M400 930 c0 -5 -16 -10 -35 -10 -19 0 -35 -4 -35 -10 0 -5 -9 -10
-20 -10 -11 0 -20 -4 -20 -10 0 -5 -9 -10 -20 -10 -11 0 -20 -5 -20 -10 0 -14
-106 -120 -120 -120 -5 0 -10 -9 -10 -20 0 -11 -4 -20 -10 -20 -5 0 -10 -9
-10 -20 0 -11 -4 -20 -10 -20 -5 0 -10 -16 -10 -35 0 -19 -4 -35 -10 -35 -6 0
-10 -40 -10 -100 0 -60 4 -100 10 -100 6 0 10 -16 10 -35 0 -19 5 -35 10 -35
6 0 10 -9 10 -20 0 -11 5 -20 10 -20 6 0 10 -9 10 -20 0 -11 5 -20 10 -20 14
0 120 -106 120 -120 0 -5 9 -10 20 -10 11 0 20 -4 20 -10 0 -5 9 -10 20 -10
11 0 20 -4 20 -10 0 -5 16 -10 35 -10 19 0 35 -4 35 -10 0 -6 40 -10 100 -10
60 0 100 4 100 10 0 6 16 10 35 10 19 0 35 5 35 10 0 6 9 10 20 10 11 0 20 5
20 10 0 6 9 10 20 10 11 0 20 5 20 10 0 14 106 120 120 120 5 0 10 9 10 20 0
11 5 20 10 20 6 0 10 9 10 20 0 11 5 20 10 20 6 0 10 16 10 35 0 19 5 35 10
35 6 0 10 40 10 100 0 60 -4 100 -10 100 -5 0 -10 16 -10 35 0 19 -4 35 -10
35 -5 0 -10 9 -10 20 0 11 -4 20 -10 20 -5 0 -10 9 -10 20 0 11 -5 20 -10 20
-14 0 -120 106 -120 120 0 5 -9 10 -20 10 -11 0 -20 5 -20 10 0 6 -9 10 -20
10 -11 0 -20 5 -20 10 0 6 -16 10 -35 10 -19 0 -35 5 -35 10 0 6 -40 10 -100
10 -60 0 -100 -4 -100 -10z m180 -20 c0 -5 16 -10 35 -10 19 0 35 -4 35 -10 0
-5 9 -10 20 -10 11 0 20 -4 20 -10 0 -5 9 -10 20 -10 11 0 20 -7 20 -15 0 -11
-11 -15 -40 -15 l-40 0 0 -80 0 -80 -150 0 -150 0 0 80 0 80 -40 0 c-29 0 -40
4 -40 15 0 8 9 15 20 15 11 0 20 5 20 10 0 6 9 10 20 10 11 0 20 5 20 10 0 6
16 10 35 10 19 0 35 5 35 10 0 6 33 10 80 10 47 0 80 -4 80 -10z m-250 -180
l0 -80 170 0 170 0 0 80 0 80 30 0 c17 0 30 -4 30 -10 0 -5 7 -10 16 -10 19 0
44 -24 44 -42 0 -8 9 -20 20 -28 11 -8 20 -22 20 -32 0 -10 5 -18 10 -18 6 0
10 -9 10 -20 0 -11 7 -20 15 -20 13 0 15 -21 15 -125 0 -104 -2 -125 -15 -125
-10 0 -15 -10 -15 -33 0 -21 -7 -38 -20 -47 -11 -8 -20 -20 -20 -28 0 -18 -46
-62 -65 -62 -8 0 -15 -4 -15 -10 0 -5 -13 -10 -30 -10 l-30 0 0 80 0 80 -170
0 -170 0 0 -80 0 -80 -30 0 c-16 0 -30 5 -30 10 0 6 -7 10 -16 10 -19 0 -44
24 -44 42 0 8 -9 20 -20 28 -11 8 -20 22 -20 32 0 10 -4 18 -10 18 -5 0 -10
11 -10 25 0 16 -6 25 -15 25 -13 0 -15 21 -15 125 0 104 2 125 15 125 8 0 15
9 15 20 0 11 5 20 10 20 6 0 10 8 10 18 0 10 9 24 20 32 11 8 20 20 20 28 0
18 25 42 44 42 9 0 16 5 16 10 0 6 14 10 30 10 l30 0 0 -80z m-183 -32 c-3 -7
-5 -2 -5 12 0 14 2 19 5 13 2 -7 2 -19 0 -25z m710 0 c-3 -7 -5 -2 -5 12 0 14
2 19 5 13 2 -7 2 -19 0 -25z m-730 -40 c-3 -7 -5 -2 -5 12 0 14 2 19 5 13 2
-7 2 -19 0 -25z m750 0 c-3 -7 -5 -2 -5 12 0 14 2 19 5 13 2 -7 2 -19 0 -25z
m-777 -158 c0 -47 -4 -80 -10 -80 -6 0 -10 33 -10 80 0 47 4 80 10 80 6 0 10
-33 10 -80z m820 0 c0 -47 -4 -80 -10 -80 -6 0 -10 33 -10 80 0 47 4 80 10 80
6 0 10 -33 10 -80z m-791 -167 c-1 -22 -2 -23 -6 -8 -3 11 -10 23 -17 27 -7 5
-5 8 7 8 12 0 17 -7 16 -27z m765 19 c-7 -4 -14 -16 -17 -27 -4 -15 -5 -14 -6
8 -1 20 4 27 17 27 11 0 13 -3 6 -8z m-244 -102 l0 -80 40 0 c29 0 40 -4 40
-15 0 -8 -9 -15 -20 -15 -11 0 -20 -4 -20 -10 0 -5 -9 -10 -20 -10 -11 0 -20
-4 -20 -10 0 -5 -16 -10 -35 -10 -19 0 -35 -4 -35 -10 0 -6 -33 -10 -80 -10
-47 0 -80 4 -80 10 0 6 -16 10 -35 10 -19 0 -35 5 -35 10 0 6 -9 10 -20 10
-11 0 -20 5 -20 10 0 6 -9 10 -20 10 -11 0 -20 7 -20 15 0 11 11 15 40 15 l40
0 0 80 0 80 150 0 150 0 0 -80z m-503 28 c-3 -7 -5 -2 -5 12 0 14 2 19 5 13 2
-7 2 -19 0 -25z"/>
<path d="M250 692 c0 -10 -9 -24 -20 -32 -13 -9 -20 -26 -20 -47 0 -18 -4 -33
-10 -33 -6 0 -10 -33 -10 -80 0 -47 4 -80 10 -80 6 0 10 -15 10 -33 0 -21 7
-38 20 -47 11 -8 20 -22 20 -32 0 -10 5 -18 10 -18 6 0 10 77 10 210 0 133 -4
210 -10 210 -5 0 -10 -8 -10 -18z m0 -192 c0 -80 -4 -130 -10 -130 -5 0 -10
16 -10 35 0 19 -4 35 -10 35 -6 0 -10 27 -10 60 0 33 4 60 10 60 6 0 10 16 10
35 0 19 5 35 10 35 6 0 10 -50 10 -130z"/>
<path d="M730 500 c0 -116 3 -210 6 -210 11 0 34 29 34 44 0 9 5 16 10 16 6 0
10 16 10 35 0 19 5 35 10 35 6 0 10 33 10 80 0 47 -4 80 -10 80 -5 0 -10 15
-10 33 0 21 -7 38 -20 47 -11 8 -20 22 -20 32 0 10 -4 18 -10 18 -6 0 -10 -77
-10 -210z m40 95 c0 -19 5 -35 10 -35 6 0 10 -27 10 -60 0 -33 -4 -60 -10 -60
-5 0 -10 -16 -10 -35 0 -19 -4 -35 -10 -35 -6 0 -10 50 -10 130 0 80 4 130 10
130 6 0 10 -16 10 -35z"/>
<path d="M770 700 c0 -5 5 -10 11 -10 5 0 7 5 4 10 -3 6 -8 10 -11 10 -2 0 -4
-4 -4 -10z"/>
<path d="M330 500 l0 -80 170 0 170 0 0 80 0 80 -170 0 -170 0 0 -80z m320 0
l0 -60 -150 0 -150 0 0 60 0 60 150 0 150 0 0 -60z"/>
<path d="M810 340 c0 -5 5 -10 10 -10 6 0 10 5 10 10 0 6 -4 10 -10 10 -5 0
-10 -4 -10 -10z"/>
<path d="M770 280 c0 -5 5 -10 10 -10 6 0 10 5 10 10 0 6 -4 10 -10 10 -5 0
-10 -4 -10 -10z"/>
<path d="M980 620 c0 -5 5 -10 10 -10 6 0 10 5 10 10 0 6 -4 10 -10 10 -5 0
-10 -4 -10 -10z"/>
<path d="M0 310 c0 -22 5 -40 10 -40 6 0 10 -9 10 -20 0 -11 5 -20 10 -20 6 0
10 -7 10 -15 0 -17 64 -85 80 -85 5 0 10 -5 10 -10 0 -16 68 -80 85 -80 8 0
15 -4 15 -10 0 -5 9 -10 20 -10 11 0 20 -4 20 -10 0 -5 18 -10 40 -10 22 0 40
5 40 10 0 6 -13 10 -30 10 -16 0 -30 5 -30 10 0 6 -9 10 -20 10 -11 0 -20 5
-20 10 0 6 -7 10 -15 10 -17 0 -85 64 -85 80 0 5 -5 10 -10 10 -16 0 -80 68
-80 85 0 8 -4 15 -10 15 -5 0 -10 9 -10 20 0 11 -4 20 -10 20 -5 0 -10 14 -10
30 0 17 -4 30 -10 30 -5 0 -10 -18 -10 -40z"/>
<path d="M980 320 c0 -16 -4 -30 -10 -30 -5 0 -10 -9 -10 -20 0 -11 -4 -20
-10 -20 -5 0 -10 -7 -10 -15 0 -17 -64 -85 -80 -85 -5 0 -10 -5 -10 -10 0 -16
-68 -80 -85 -80 -8 0 -15 -4 -15 -10 0 -5 -9 -10 -20 -10 -11 0 -20 -4 -20
-10 0 -5 -13 -10 -30 -10 -16 0 -30 -4 -30 -10 0 -5 18 -10 40 -10 22 0 40 5
40 10 0 6 9 10 20 10 11 0 20 5 20 10 0 6 7 10 15 10 17 0 85 64 85 80 0 5 5
10 10 10 16 0 80 68 80 85 0 8 5 15 10 15 6 0 10 9 10 20 0 11 5 20 10 20 6 0
10 18 10 40 0 22 -4 40 -10 40 -5 0 -10 -13 -10 -30z"/>
</g>
</svg>
