<?xml version="1.0" standalone="no"?>
<!DOCTYPE svg PUBLIC "-//W3C//DTD SVG 20010904//EN"
 "http://www.w3.org/TR/2001/REC-SVG-20010904/DTD/svg10.dtd">
<svg version="1.0" xmlns="http://www.w3.org/2000/svg"
 width="100.000000pt" height="100.000000pt" viewBox="0 0 100.000000 100.000000"
 preserveAspectRatio="xMidYMid meet">
<metadata>
Created by potrace 1.16, written by Peter Selinger 2001-2019
</metadata>
<g transform="translate(0.000000,100.000000) scale(0.100000,-0.100000)"
fill="#000000" stroke="none">
<path d="M90 619 c0 -5 5 -7 10 -4 6 3 10 8 10 11 0 2 -4 4 -10 4 -5 0 -10 -5
-10 -11z"/>
<path d="M130 618 c0 -8 13 -13 30 -13 17 0 30 5 30 13 0 7 -13 12 -30 12 -17
0 -30 -5 -30 -12z"/>
<path d="M60 579 c0 -5 5 -7 10 -4 6 3 10 8 10 11 0 2 -4 4 -10 4 -5 0 -10 -5
-10 -11z"/>
<path d="M90 560 c0 -22 5 -30 18 -30 16 -1 16 -1 0 -14 -22 -16 -23 -26 -3
-26 8 0 15 -4 15 -10 0 -5 -7 -10 -15 -10 -8 0 -15 -7 -15 -15 0 -8 9 -15 20
-15 18 0 20 7 20 72 0 56 3 69 12 60 17 -17 29 -15 22 3 -4 9 -19 15 -40 15
-31 0 -34 -3 -34 -30z"/>
<path d="M190 500 c0 -76 3 -90 16 -90 10 0 14 6 10 15 -4 10 1 15 14 15 18 0
20 7 20 60 0 54 -2 60 -21 60 -12 0 -17 4 -14 11 4 6 13 8 21 5 8 -3 14 -1 14
4 0 6 -13 10 -30 10 l-30 0 0 -90z m40 -1 c0 -24 -4 -38 -10 -34 -17 10 -11
75 7 75 2 0 3 -18 3 -41z"/>
<path d="M370 582 c0 -4 16 -6 35 -4 19 2 35 6 35 8 0 2 -16 4 -35 4 -19 0
-35 -4 -35 -8z"/>
<path d="M500 582 c0 -5 14 -7 30 -4 17 2 30 6 30 8 0 2 -13 4 -30 4 -16 0
-30 -4 -30 -8z"/>
<path d="M620 583 c0 -5 16 -8 35 -8 19 0 35 3 35 8 0 4 -16 7 -35 7 -19 0
-35 -3 -35 -7z"/>
<path d="M750 580 c0 -5 4 -10 9 -10 6 0 13 5 16 10 3 6 -1 10 -9 10 -9 0 -16
-4 -16 -10z"/>
<path d="M798 583 c6 -2 18 -2 25 0 6 3 1 5 -13 5 -14 0 -19 -2 -12 -5z"/>
<path d="M848 583 c7 -3 16 -2 19 1 4 3 -2 6 -13 5 -11 0 -14 -3 -6 -6z"/>
<path d="M918 583 c7 -3 16 -2 19 1 4 3 -2 6 -13 5 -11 0 -14 -3 -6 -6z"/>
<path d="M60 500 c0 -33 4 -60 10 -60 6 0 10 27 10 60 0 33 -4 60 -10 60 -6 0
-10 -27 -10 -60z"/>
<path d="M340 500 l0 -60 78 0 c49 0 72 4 63 9 -8 5 -20 7 -28 4 -7 -3 -13 0
-13 6 0 6 14 11 30 11 27 0 30 3 30 30 0 23 -5 30 -19 30 -14 0 -18 -5 -14
-19 3 -11 -2 -21 -11 -24 -13 -5 -16 1 -16 33 l0 40 -50 0 -50 0 0 -60z m27
-22 c-2 -13 -4 -3 -4 22 0 25 2 35 4 23 2 -13 2 -33 0 -45z m53 18 c0 -28 -3
-33 -18 -29 -14 3 -17 12 -14 34 6 42 32 38 32 -5z"/>
<path d="M450 556 c0 -9 30 -14 35 -6 4 6 -3 10 -14 10 -12 0 -21 -2 -21 -4z"/>
<path d="M500 545 c0 -10 10 -15 30 -15 20 0 30 5 30 15 0 10 -10 15 -30 15
-20 0 -30 -5 -30 -15z"/>
<path d="M585 549 c4 -6 13 -8 21 -5 8 3 14 0 14 -8 0 -8 -10 -11 -30 -8 -28
4 -30 2 -30 -27 0 -21 5 -31 15 -31 8 0 15 7 15 15 0 10 11 15 35 15 31 0 35
3 35 26 0 23 1 24 16 10 8 -9 21 -16 27 -15 9 0 8 2 0 6 -7 2 -13 11 -13 19 0
10 -14 14 -56 14 -36 0 -53 -4 -49 -11z"/>
<path d="M720 530 c0 -27 -3 -30 -30 -30 -20 0 -30 -5 -30 -15 0 -18 -26 -20
-33 -2 -3 7 -6 4 -6 -6 -1 -10 -6 -15 -11 -12 -6 3 -17 -1 -26 -9 -14 -15 -10
-16 45 -16 48 0 61 3 61 15 0 8 7 15 15 15 8 0 15 -7 15 -15 0 -12 15 -15 75
-15 60 0 75 3 75 15 0 8 9 15 20 15 11 0 20 -7 20 -15 0 -8 7 -15 15 -15 12 0
15 13 15 60 0 47 -3 60 -15 60 -8 0 -15 -7 -15 -15 0 -8 -9 -15 -20 -15 -11 0
-20 7 -20 15 0 12 -15 15 -75 15 l-75 0 0 -30z m133 3 c-7 -2 -13 -17 -13 -33
0 -16 6 -31 13 -34 6 -3 3 -5 -8 -3 -33 4 -31 78 2 76 11 0 13 -3 6 -6z m-43
-32 c0 -25 -4 -29 -33 -33 -31 -3 -32 -2 -29 29 4 29 8 33 33 33 25 0 29 -4
29 -29z m100 -10 c0 -4 -9 -7 -20 -7 -11 0 -20 6 -20 12 0 7 8 10 20 7 11 -3
20 -8 20 -12z"/>
<path d="M150 520 c0 -5 5 -10 10 -10 6 0 10 5 10 10 0 6 -4 10 -10 10 -5 0
-10 -4 -10 -10z"/>
<path d="M268 500 c-3 -16 -1 -30 4 -30 4 0 8 14 8 30 0 17 -2 30 -4 30 -2 0
-6 -13 -8 -30z"/>
<path d="M140 485 c0 -8 7 -15 15 -15 9 0 12 6 9 15 -4 8 -10 15 -15 15 -5 0
-9 -7 -9 -15z"/>
<path d="M500 455 c0 -10 10 -15 30 -15 20 0 30 5 30 15 0 10 -10 15 -30 15
-20 0 -30 -5 -30 -15z"/>
<path d="M147 436 c-3 -9 -15 -12 -31 -9 -15 3 -26 1 -26 -6 0 -17 67 -14 73
4 4 8 2 17 -2 20 -5 3 -11 -1 -14 -9z"/>
<path d="M60 420 c0 -5 5 -10 11 -10 5 0 7 5 4 10 -3 6 -8 10 -11 10 -2 0 -4
-4 -4 -10z"/>
<path d="M235 420 c-3 -5 -1 -10 4 -10 6 0 11 5 11 10 0 6 -2 10 -4 10 -3 0
-8 -4 -11 -10z"/>
<path d="M388 413 c12 -2 30 -2 40 0 9 3 -1 5 -23 4 -22 0 -30 -2 -17 -4z"/>
<path d="M513 413 c9 -2 25 -2 35 0 9 3 1 5 -18 5 -19 0 -27 -2 -17 -5z"/>
<path d="M638 413 c12 -2 30 -2 40 0 9 3 -1 5 -23 4 -22 0 -30 -2 -17 -4z"/>
<path d="M758 413 c7 -3 16 -2 19 1 4 3 -2 6 -13 5 -11 0 -14 -3 -6 -6z"/>
<path d="M848 413 c7 -3 16 -2 19 1 4 3 -2 6 -13 5 -11 0 -14 -3 -6 -6z"/>
<path d="M918 413 c7 -3 16 -2 19 1 4 3 -2 6 -13 5 -11 0 -14 -3 -6 -6z"/>
<path d="M130 390 c0 -5 14 -10 30 -10 17 0 30 5 30 10 0 6 -13 10 -30 10 -16
0 -30 -4 -30 -10z"/>
</g>
</svg>
