<?xml version="1.0" standalone="no"?>
<!DOCTYPE svg PUBLIC "-//W3C//DTD SVG 20010904//EN"
 "http://www.w3.org/TR/2001/REC-SVG-20010904/DTD/svg10.dtd">
<svg version="1.0" xmlns="http://www.w3.org/2000/svg"
 width="256.000000pt" height="256.000000pt" viewBox="0 0 256.000000 256.000000"
 preserveAspectRatio="xMidYMid meet">
<metadata>
Created by potrace 1.16, written by Peter Selinger 2001-2019
</metadata>
<g transform="translate(0.000000,256.000000) scale(0.100000,-0.100000)"
fill="#000000" stroke="none">
<path d="M343 1835 c-43 -30 -40 -75 10 -183 l45 -97 17 -299 c9 -164 20 -308
25 -320 4 -12 17 -29 27 -39 26 -23 739 -227 793 -227 54 0 767 204 793 227
10 10 23 27 27 39 5 11 16 155 25 320 l17 299 45 97 c37 81 44 104 39 133 -13
67 -6 66 -471 63 l-417 -3 -29 -33 -29 -32 -29 32 -29 33 -419 3 c-365 2 -421
1 -440 -13z m860 -33 c14 -13 31 -44 38 -68 8 -24 16 -44 19 -44 3 0 11 20 19
44 7 24 24 55 38 68 l25 23 391 3 c302 1 398 -1 417 -11 40 -20 38 -63 -8
-149 l-40 -73 -19 -317 c-17 -288 -20 -320 -39 -345 -19 -25 -58 -39 -390
-135 -203 -59 -379 -107 -392 -108 -37 0 -755 210 -774 227 -30 27 -36 71 -53
378 l-17 300 -40 73 c-46 86 -48 129 -8 149 19 10 115 12 417 11 l391 -3 25
-23z"/>
<path d="M473 1690 c12 -22 29 -40 37 -40 8 0 163 -9 345 -19 181 -11 331 -19
332 -17 1 1 -8 27 -20 59 l-22 57 -347 0 -346 0 21 -40z m661 -12 c7 -18 12
-35 10 -37 -2 -2 -144 4 -316 14 -297 17 -327 21 -328 48 0 4 139 7 310 7
l310 0 14 -32z"/>
<path d="M1353 1673 c-12 -32 -21 -58 -20 -59 1 -2 151 6 332 17 182 10 337
19 345 19 8 0 25 18 37 40 l21 40 -346 0 -347 0 -22 -57z m667 30 c-1 -27 -31
-31 -328 -48 -172 -10 -314 -16 -316 -14 -2 2 3 19 10 37 l14 32 310 0 c171 0
310 -3 310 -7z"/>
<path d="M517 1513 c2 -27 10 -155 18 -287 7 -131 15 -239 17 -240 3 -1 590
-170 641 -184 16 -4 17 18 17 355 l0 359 -332 18 c-183 9 -340 19 -349 22 -14
4 -15 -3 -12 -43z m388 -3 c121 -6 235 -13 253 -16 l32 -5 0 -331 c0 -260 -3
-329 -12 -326 -7 3 -143 43 -303 88 -159 46 -293 86 -297 89 -5 5 -38 446 -38
513 0 7 25 8 73 4 39 -3 171 -11 292 -16z"/>
<path d="M1989 1556 c-2 -2 -156 -12 -341 -22 l-338 -18 0 -359 c0 -337 1
-359 18 -354 95 26 638 182 640 183 7 4 37 566 31 570 -3 2 -8 2 -10 0z m-9
-35 c0 -66 -33 -507 -38 -512 -4 -3 -137 -43 -297 -89 -159 -45 -296 -85 -302
-88 -10 -3 -13 66 -13 327 0 182 1 331 3 332 3 1 561 36 610 38 20 0 37 -3 37
-8z"/>
</g>
</svg>
