<?xml version="1.0" standalone="no"?>
<!DOCTYPE svg PUBLIC "-//W3C//DTD SVG 20010904//EN"
 "http://www.w3.org/TR/2001/REC-SVG-20010904/DTD/svg10.dtd">
<svg version="1.0" xmlns="http://www.w3.org/2000/svg"
 width="100.000000pt" height="100.000000pt" viewBox="0 0 100.000000 100.000000"
 preserveAspectRatio="xMidYMid meet">
<metadata>
Created by potrace 1.16, written by Peter Selinger 2001-2019
</metadata>
<g transform="translate(0.000000,100.000000) scale(0.100000,-0.100000)"
fill="#000000" stroke="none">
<path d="M20 510 l0 -490 493 2 492 3 -482 2 -483 3 0 183 c0 100 -3 193 -6
207 -6 25 -6 25 14 -3 11 -16 32 -35 47 -43 31 -16 95 -19 95 -4 0 14 37 13
42 -1 3 -9 9 -9 25 0 27 14 70 14 78 1 8 -13 72 -13 80 0 8 13 62 13 70 0 9
-14 114 -8 127 7 14 17 33 16 48 -2 14 -17 50 -20 50 -5 0 6 9 10 20 10 11 0
20 -4 20 -10 0 -14 56 -12 80 2 16 10 24 10 40 0 15 -9 25 -9 45 0 21 10 25
18 25 57 0 35 5 49 20 59 15 9 20 23 20 52 l0 40 -49 0 c-31 0 -51 -5 -54 -12
-3 -10 -8 -10 -21 1 -13 11 -42 14 -113 13 -86 -2 -97 0 -110 18 -16 23 -87
29 -97 8 -5 -10 -7 -10 -12 0 -3 7 -24 12 -51 12 -34 0 -46 -4 -49 -17 -4 -16
-22 -18 -141 -21 -127 -3 -136 -2 -150 17 -10 15 -25 21 -54 21 l-39 0 0 190
c0 120 -4 190 -10 190 -7 0 -10 -170 -10 -490z m80 60 c0 -16 5 -30 10 -30 6
0 10 5 10 10 0 19 65 11 80 -10 8 -11 21 -20 30 -20 9 0 22 9 30 20 15 21 50
28 50 10 0 -5 10 -10 23 -10 18 0 19 2 7 10 -11 7 -3 10 29 10 32 0 48 -6 62
-21 10 -12 16 -26 13 -30 -3 -5 0 -9 5 -9 6 0 11 21 11 50 0 43 3 50 20 50 13
0 20 -7 20 -20 0 -13 7 -20 20 -20 11 0 20 -7 20 -15 0 -8 5 -15 10 -15 6 0
10 16 10 35 0 28 4 35 20 35 16 0 20 -7 20 -30 0 -16 5 -30 10 -30 6 0 10 5
10 10 0 6 17 10 38 9 20 0 31 -3 25 -6 -10 -3 -10 -8 1 -19 20 -20 39 -18 56
6 10 14 26 20 50 20 24 0 40 -6 50 -20 15 -21 40 -27 40 -10 0 6 10 10 23 10
18 0 19 2 7 10 -11 7 -7 10 18 10 25 0 32 -4 32 -20 0 -13 -7 -20 -20 -20 -18
0 -20 -7 -20 -60 0 -53 -2 -60 -20 -60 -17 0 -20 7 -20 40 0 38 -1 40 -32 40
-24 0 -29 -3 -18 -9 8 -6 17 -8 20 -6 3 2 5 -8 5 -21 0 -13 -6 -24 -12 -24 -7
0 -13 -4 -13 -10 0 -5 -24 -10 -52 -9 -29 0 -47 3 -41 6 10 3 10 8 -1 19 -20
19 -26 18 -26 -6 0 -13 -7 -20 -20 -20 -18 0 -20 7 -20 60 l0 60 -35 0 -35 0
0 -60 0 -60 -56 0 c-46 0 -60 4 -75 22 l-19 21 -19 -21 c-44 -51 -141 -11
-141 58 0 18 4 29 10 25 6 -3 10 -1 10 4 0 6 -9 11 -20 11 -18 0 -20 -7 -20
-60 0 -53 -2 -60 -20 -60 -13 0 -20 7 -20 20 0 11 -4 20 -8 20 -4 0 -14 -9
-22 -20 -10 -14 -26 -20 -53 -20 -41 0 -67 18 -67 47 0 15 -2 16 -10 3 -7 -10
-10 11 -10 68 0 75 2 82 20 82 16 0 20 -7 20 -30z"/>
<path d="M113 505 c-7 -8 -13 -26 -13 -40 0 -23 3 -25 45 -25 l45 0 0 40 c0
39 -1 40 -32 40 -18 -1 -39 -7 -45 -15z"/>
<path d="M343 505 c-7 -8 -13 -26 -13 -40 0 -23 3 -25 45 -25 l45 0 0 40 c0
39 -1 40 -32 40 -18 -1 -39 -7 -45 -15z"/>
<path d="M500 480 c0 -38 2 -40 30 -40 28 0 30 2 30 40 0 38 -2 40 -30 40 -28
0 -30 -2 -30 -40z"/>
<path d="M750 510 c0 -5 18 -10 40 -10 22 0 40 5 40 10 0 6 -18 10 -40 10 -22
0 -40 -4 -40 -10z"/>
<path d="M858 503 c7 -3 16 -2 19 1 4 3 -2 6 -13 5 -11 0 -14 -3 -6 -6z"/>
<path d="M903 455 c0 -27 2 -38 4 -22 2 15 2 37 0 50 -2 12 -4 0 -4 -28z"/>
<path d="M750 450 c0 -5 18 -10 40 -10 22 0 40 5 40 10 0 6 -18 10 -40 10 -22
0 -40 -4 -40 -10z"/>
</g>
</svg>
