<?xml version="1.0" standalone="no"?>
<!DOCTYPE svg PUBLIC "-//W3C//DTD SVG 20010904//EN"
 "http://www.w3.org/TR/2001/REC-SVG-20010904/DTD/svg10.dtd">
<svg version="1.0" xmlns="http://www.w3.org/2000/svg"
 width="100.000000pt" height="100.000000pt" viewBox="0 0 100.000000 100.000000"
 preserveAspectRatio="xMidYMid meet">
<metadata>
Created by potrace 1.16, written by Peter Selinger 2001-2019
</metadata>
<g transform="translate(0.000000,100.000000) scale(0.100000,-0.100000)"
fill="#000000" stroke="none">
<path d="M0 800 c0 -5 25 -10 55 -10 30 0 55 -4 55 -10 0 -5 -25 -10 -55 -10
-30 0 -55 -4 -55 -10 0 -5 9 -10 20 -10 16 0 20 -7 20 -30 0 -23 -4 -30 -20
-30 -11 0 -20 -4 -20 -10 0 -5 9 -10 20 -10 11 0 20 -4 20 -10 0 -5 -9 -10
-20 -10 -11 0 -20 -4 -20 -10 0 -5 9 -10 20 -10 16 0 20 -7 20 -35 0 -28 -4
-35 -20 -35 -11 0 -20 -4 -20 -10 0 -5 9 -10 20 -10 11 0 20 -4 20 -10 0 -5
-9 -10 -20 -10 -11 0 -20 -4 -20 -10 0 -6 110 -10 310 -10 l310 0 0 -30 c0
-27 -3 -30 -30 -30 -25 0 -30 -4 -30 -23 0 -22 -3 -23 -53 -19 -58 5 -87 -12
-87 -49 0 -18 -8 -19 -109 -19 -113 0 -141 -9 -141 -46 0 -11 -18 -14 -85 -14
-50 0 -85 -4 -85 -10 0 -5 11 -10 24 -10 19 0 23 -4 19 -20 -3 -11 -14 -20
-24 -20 -11 0 -19 -4 -19 -10 0 -6 38 -10 95 -10 88 0 95 1 95 20 0 11 -4 20
-10 20 -5 0 -10 -4 -10 -10 0 -14 -37 -12 -43 3 -4 8 -8 9 -14 1 -4 -6 -18
-13 -30 -16 -19 -5 -23 -2 -23 18 l0 24 190 0 c183 0 190 1 190 20 0 20 -15
28 -22 11 -1 -4 -13 -12 -25 -15 -17 -6 -23 -3 -23 8 0 9 -4 16 -10 16 -5 0
-10 -4 -10 -10 0 -14 -37 -12 -44 3 -5 9 -7 9 -12 0 -9 -20 -44 -16 -44 5 -1
16 -1 16 -14 0 -18 -24 -46 -23 -46 2 0 19 7 20 215 20 l215 0 0 25 c0 14 -4
25 -10 25 -5 0 -10 -6 -10 -14 0 -7 -9 -16 -20 -19 -15 -4 -20 0 -20 14 0 10
-4 19 -10 19 -5 0 -10 -7 -10 -15 0 -25 -38 -18 -43 8 l-4 22 -8 -22 c-10 -32
-45 -31 -45 2 l0 25 185 0 185 0 0 -25 c0 -14 5 -25 10 -25 6 0 10 9 10 19 0
11 -4 23 -10 26 -5 3 -10 18 -10 33 -1 23 -2 25 -13 11 -7 -8 -20 -18 -29 -22
-16 -6 -18 0 -18 48 l0 55 54 0 c49 0 54 -2 49 -20 -5 -20 -23 -28 -23 -10 0
6 -4 10 -10 10 -5 0 -10 -6 -10 -14 0 -9 -7 -12 -20 -9 -11 3 -20 0 -20 -6 0
-7 20 -11 50 -11 49 0 50 1 50 30 l0 30 65 0 c37 0 65 4 65 10 0 6 -9 10 -20
10 -11 0 -20 5 -20 10 0 6 9 10 20 10 11 0 20 5 20 10 0 6 -13 10 -30 10 l-30
0 0 65 0 65 30 0 c17 0 30 5 30 10 0 6 -9 10 -20 10 -11 0 -20 5 -20 10 0 6 9
10 20 10 11 0 20 5 20 10 0 6 -79 10 -216 10 -141 0 -213 -3 -209 -10 3 -5 15
-10 25 -10 10 0 21 -6 24 -12 5 -10 7 -10 12 0 7 14 34 16 34 2 0 -5 5 -10 10
-10 6 0 10 6 10 13 0 7 13 12 30 12 17 0 30 -5 30 -12 0 -7 5 -13 10 -13 6 0
10 5 10 10 0 15 97 13 103 -2 4 -9 8 -10 14 -2 4 6 18 13 31 16 18 5 22 2 22
-18 l0 -24 -190 0 -190 0 0 60 0 60 -60 0 -60 0 0 -60 0 -60 -95 0 -95 0 0 30
c0 27 -3 30 -30 30 -27 0 -30 3 -30 30 l0 30 -95 0 c-57 0 -95 -4 -95 -10z
m500 -25 c0 -20 -5 -25 -25 -25 -43 0 -27 34 23 49 1 1 2 -10 2 -24z m-330
-25 c0 -22 -4 -40 -10 -40 -5 0 -10 11 -10 25 0 14 -4 25 -10 25 -5 0 -10 7
-10 15 0 8 9 15 20 15 17 0 20 -7 20 -40z m372 -10 l3 -50 -42 0 c-36 0 -43 3
-43 20 0 25 9 25 26 3 12 -17 13 -16 14 5 0 12 5 22 10 22 6 0 10 11 10 25 0
46 18 25 22 -25z m-412 -20 c0 -28 -3 -30 -35 -30 -32 0 -35 2 -35 30 0 28 3
30 35 30 32 0 35 -2 35 -30z m103 -11 c4 -15 0 -19 -19 -19 -19 0 -24 5 -24
24 0 19 4 23 19 19 11 -3 21 -13 24 -24z m-42 -41 c0 -13 3 -17 6 -10 7 19 30
14 36 -8 4 -16 0 -20 -19 -20 -21 0 -24 -5 -24 -35 0 -30 3 -35 24 -35 19 0
23 -4 19 -20 -7 -25 -12 -25 -29 -2 -13 16 -13 16 -14 0 0 -22 -40 -25 -40 -3
0 8 6 15 13 16 10 0 10 2 0 6 -7 2 -13 18 -13 34 0 16 6 29 13 30 6 0 2 4 -10
9 -22 9 -31 39 -16 53 3 4 17 7 30 7 17 0 23 -6 24 -22z m119 -50 c0 -55 -1
-58 -25 -58 -14 0 -25 -5 -25 -11 0 -7 10 -9 25 -7 19 4 25 1 25 -12 0 -13 -7
-16 -30 -12 l-30 4 0 77 0 76 30 0 c30 0 30 0 30 -57z m190 47 c0 -10 -10 -15
-30 -15 -47 0 -35 27 13 29 9 1 17 -6 17 -14z m-390 -5 c0 -5 -11 -10 -25 -10
-14 0 -25 5 -25 10 0 6 11 10 25 10 14 0 25 -4 25 -10z m240 -65 c0 -43 -4
-75 -10 -75 -6 0 -10 32 -10 75 0 43 4 75 10 75 6 0 10 -32 10 -75z m80 65 c0
-6 -10 -15 -22 -20 -18 -7 -19 -9 -5 -9 22 -1 24 -51 2 -51 -8 0 -15 -4 -15
-10 0 -5 11 -10 25 -10 18 0 25 -5 25 -20 0 -16 -7 -20 -35 -20 l-35 0 0 75 0
75 30 0 c17 0 30 -5 30 -10z m130 -10 c0 -13 -7 -20 -20 -20 -11 0 -20 2 -20
4 0 2 -3 11 -6 20 -5 12 0 16 20 16 19 0 26 -5 26 -20z m40 10 c0 -5 -7 -10
-15 -10 -8 0 -15 5 -15 10 0 6 7 10 15 10 8 0 15 -4 15 -10z m90 -45 l0 -55
-35 0 c-33 0 -35 2 -35 35 0 32 2 35 30 35 17 0 30 5 30 10 0 6 -13 10 -30 10
-16 0 -30 5 -30 10 0 6 16 10 35 10 l35 0 0 -55z m40 10 c0 -25 -4 -45 -10
-45 -5 0 -10 20 -10 45 0 25 5 45 10 45 6 0 10 -20 10 -45z m80 30 c0 -9 -10
-20 -22 -25 -13 -5 -17 -9 -10 -9 6 -1 12 -10 12 -20 0 -11 -6 -22 -12 -25
-10 -5 -10 -7 0 -12 6 -3 12 -14 12 -25 0 -25 -40 -27 -40 -1 -1 16 -1 16 -14
0 -17 -23 -22 -23 -29 2 -4 16 0 20 19 20 22 0 24 4 24 55 0 54 0 55 30 55 20
0 30 -5 30 -15z m60 1 c0 -9 -8 -12 -25 -8 -14 2 -25 8 -25 13 0 5 11 9 25 9
14 0 25 -6 25 -14z m50 -1 c0 -8 -7 -15 -15 -15 -8 0 -15 7 -15 15 0 8 7 15
15 15 8 0 15 -7 15 -15z m-790 -60 c0 -33 -2 -35 -35 -35 -33 0 -35 2 -35 35
0 33 2 35 35 35 33 0 35 -2 35 -35z m370 0 c0 -32 -2 -35 -30 -35 -28 0 -30 3
-30 35 0 32 2 35 30 35 28 0 30 -3 30 -35z m100 0 c0 -21 -5 -35 -12 -35 -9 0
-8 -4 2 -10 8 -5 34 -10 58 -10 35 0 42 -3 42 -20 0 -13 7 -20 20 -20 13 0 20
-7 20 -20 0 -13 -7 -20 -20 -20 -11 0 -20 -4 -20 -10 0 -5 -13 -10 -28 -10
-26 0 -28 3 -24 30 3 19 10 30 21 31 12 0 12 2 -4 9 -11 5 -50 9 -87 9 -61 1
-68 3 -68 21 0 16 7 20 30 20 28 0 30 3 30 35 0 28 4 35 20 35 16 0 20 -7 20
-35z m270 0 c0 -33 2 -35 35 -35 28 0 35 -4 35 -20 0 -18 -7 -20 -65 -20 l-65
0 0 55 c0 54 0 55 30 55 28 0 30 -3 30 -35z m50 10 c0 -16 -6 -25 -15 -25 -9
0 -15 9 -15 25 0 16 6 25 15 25 9 0 15 -9 15 -25z m-690 -10 c0 -8 -4 -15 -10
-15 -5 0 -10 7 -10 15 0 8 5 15 10 15 6 0 10 -7 10 -15z m310 0 c0 -8 -4 -15
-10 -15 -5 0 -10 7 -10 15 0 8 5 15 10 15 6 0 10 -7 10 -15z m-410 -66 c0 -5
-9 -9 -19 -9 -11 0 -26 -3 -35 -6 -11 -4 -16 0 -16 13 0 16 6 18 35 15 19 -2
35 -8 35 -13z m350 1 c0 -5 -4 -10 -10 -10 -5 0 -10 5 -10 10 0 6 5 10 10 10
6 0 10 -4 10 -10z m260 -97 c0 -14 -15 -29 -32 -36 -14 -5 -18 -1 -18 18 0 20
5 25 25 25 14 0 25 -3 25 -7z m-120 -23 c0 -5 -9 -10 -20 -10 -11 0 -20 5 -20
10 0 6 9 10 20 10 11 0 20 -4 20 -10z m50 0 c0 -5 -9 -10 -20 -10 -11 0 -20 5
-20 10 0 6 9 10 20 10 11 0 20 -4 20 -10z"/>
<path d="M270 640 c0 -5 5 -10 10 -10 6 0 10 5 10 10 0 6 -4 10 -10 10 -5 0
-10 -4 -10 -10z"/>
<path d="M825 550 c3 -5 13 -10 21 -10 8 0 14 5 14 10 0 6 -9 10 -21 10 -11 0
-17 -4 -14 -10z"/>
<path d="M210 804 c0 -7 27 -34 34 -34 3 0 6 9 6 20 0 13 -7 20 -20 20 -11 0
-20 -3 -20 -6z"/>
<path d="M580 804 c0 -7 27 -34 34 -34 3 0 6 9 6 20 0 13 -7 20 -20 20 -11 0
-20 -3 -20 -6z"/>
<path d="M870 790 c0 -11 5 -20 10 -20 6 0 10 5 10 10 0 6 25 10 55 10 30 0
55 5 55 10 0 6 -28 10 -65 10 -58 0 -65 -2 -65 -20z"/>
<path d="M270 739 c0 -6 9 -8 20 -4 14 5 20 2 20 -9 0 -19 16 -21 23 -3 4 9 8
8 17 -3 9 -11 13 -12 17 -2 2 6 16 12 29 12 13 0 24 5 24 10 0 6 -32 10 -75
10 -46 0 -75 -4 -75 -11z"/>
<path d="M955 640 c-4 -6 5 -10 19 -10 14 0 26 5 26 10 0 6 -9 10 -19 10 -11
0 -23 -4 -26 -10z"/>
<path d="M115 473 c-4 -12 -17 -24 -29 -26 -14 -3 -10 -5 12 -6 29 -1 32 -4
32 -31 0 -28 -3 -30 -35 -30 -32 0 -35 2 -35 30 0 27 -3 30 -32 29 -22 -1 -26
-3 -12 -6 14 -3 24 -14 27 -33 10 -50 91 -54 103 -5 7 28 -7 27 261 26 74 0
135 4 138 9 4 6 -5 10 -19 10 -19 0 -26 5 -26 20 0 11 -4 20 -10 20 -5 0 -10
-9 -10 -20 0 -11 -4 -20 -10 -20 -5 0 -10 9 -10 20 0 11 -4 20 -10 20 -5 0
-10 -9 -10 -20 0 -18 -7 -20 -65 -20 -58 0 -65 2 -65 20 0 11 -5 20 -11 20 -6
0 -9 -9 -6 -20 3 -13 0 -20 -9 -20 -8 0 -14 9 -14 20 0 11 -4 20 -10 20 -5 0
-10 -9 -10 -20 0 -18 -7 -20 -59 -20 -57 0 -60 1 -64 28 -4 26 -5 26 -12 5z"/>
<path d="M350 470 c0 -5 5 -10 10 -10 6 0 10 5 10 10 0 6 -4 10 -10 10 -5 0
-10 -4 -10 -10z"/>
<path d="M560 470 c0 -5 5 -10 10 -10 6 0 10 5 10 10 0 6 -4 10 -10 10 -5 0
-10 -4 -10 -10z"/>
<path d="M940 435 c0 -25 5 -45 10 -45 6 0 10 20 10 45 0 25 -4 45 -10 45 -5
0 -10 -20 -10 -45z"/>
<path d="M870 345 c0 -32 -2 -35 -30 -35 -27 0 -30 -3 -30 -30 l0 -30 -60 0
-60 0 0 -30 0 -30 155 0 c97 0 155 4 155 10 0 6 -45 10 -115 10 -70 0 -115 4
-115 10 0 6 14 10 30 10 27 0 30 3 30 30 0 29 1 30 49 30 53 0 81 17 81 51 0
12 7 19 20 19 11 0 20 5 20 10 0 6 -28 10 -65 10 l-65 0 0 -35z m70 -10 c0
-20 -5 -25 -25 -25 -20 0 -25 5 -25 25 0 20 5 25 25 25 20 0 25 -5 25 -25z
m-190 -114 c0 -14 -5 -18 -20 -14 -23 6 -26 19 -7 26 22 9 27 7 27 -12z"/>
<path d="M681 348 c0 -11 -9 -18 -20 -18 -11 0 -23 -5 -26 -11 -5 -7 13 -9 52
-7 51 3 58 6 61 26 2 12 -1 22 -7 22 -6 0 -11 -6 -11 -14 0 -8 -7 -17 -16 -20
-22 -8 -22 -8 -27 17 -3 14 -5 16 -6 5z"/>
<path d="M750 283 c1 -24 3 -26 13 -13 7 8 19 21 27 28 12 10 9 12 -13 12 -23
0 -27 -4 -27 -27z"/>
<path d="M466 269 c-19 -19 -19 -19 7 -19 20 0 27 5 27 20 0 25 -9 25 -34 -1z"/>
<path d="M216 209 c-19 -19 -19 -19 7 -19 20 0 27 5 27 20 0 25 -9 25 -34 -1z"/>
</g>
</svg>
