<?xml version="1.0" standalone="no"?>
<!DOCTYPE svg PUBLIC "-//W3C//DTD SVG 20010904//EN"
 "http://www.w3.org/TR/2001/REC-SVG-20010904/DTD/svg10.dtd">
<svg version="1.0" xmlns="http://www.w3.org/2000/svg"
 width="100.000000pt" height="100.000000pt" viewBox="0 0 100.000000 100.000000"
 preserveAspectRatio="xMidYMid meet">
<metadata>
Created by potrace 1.16, written by Peter Selinger 2001-2019
</metadata>
<g transform="translate(0.000000,100.000000) scale(0.100000,-0.100000)"
fill="#000000" stroke="none">
<path d="M0 859 c0 -7 12 -10 30 -7 20 3 30 0 30 -9 0 -7 5 -13 10 -13 6 0 10
5 10 10 0 7 146 10 419 10 410 0 419 0 424 -20 4 -15 0 -20 -14 -20 -10 0 -19
-4 -19 -10 0 -5 7 -10 15 -10 8 0 15 -9 15 -19 0 -11 5 -23 10 -26 6 -4 10 6
10 23 0 26 3 28 30 24 18 -3 30 0 30 7 0 6 -13 11 -30 11 -25 0 -30 4 -30 25
0 22 3 24 30 19 19 -4 30 -2 30 5 0 8 -136 11 -500 11 -361 0 -500 -3 -500
-11z"/>
<path d="M0 799 c0 -7 11 -9 30 -5 l30 6 0 -270 0 -269 -30 6 c-19 3 -30 1
-30 -6 0 -7 31 -11 95 -11 l95 0 0 27 0 27 -20 -22 c-27 -29 -40 -28 -40 3 0
24 3 25 60 25 l60 0 0 35 c0 32 2 35 30 35 27 0 30 3 30 30 l0 30 65 0 65 0 0
30 0 30 60 0 c58 0 60 1 60 27 l0 27 -20 -22 c-27 -29 -40 -28 -40 3 0 24 3
25 60 25 l60 0 0 35 0 35 65 0 c64 0 65 0 65 27 l0 27 -20 -22 c-27 -29 -40
-28 -40 3 0 24 3 25 60 25 l60 0 0 30 c0 27 3 30 30 30 27 0 30 3 30 30 l0 30
-435 0 c-316 0 -435 -3 -435 -11z m800 -18 c0 -6 -15 -11 -32 -13 -28 -2 -34
-8 -36 -30 -3 -26 -32 -41 -32 -17 0 6 -7 4 -15 -5 -8 -8 -15 -26 -15 -40 0
-24 -3 -25 -62 -28 -63 -3 -63 -3 -66 -35 -3 -29 -7 -33 -33 -33 -26 0 -29 -3
-29 -30 0 -23 -4 -30 -20 -30 -14 0 -20 7 -21 23 l-2 22 -4 -22 c-3 -17 -12
-23 -41 -25 -32 -3 -37 -7 -40 -30 -3 -24 -8 -28 -33 -28 -26 0 -29 -3 -29
-30 0 -30 -1 -30 -55 -30 -30 0 -55 -4 -55 -10 0 -5 -12 -11 -27 -11 -24 -2
-25 -2 -5 -6 14 -3 22 -12 22 -24 0 -14 -7 -19 -30 -19 -27 0 -30 -3 -30 -30
0 -20 -5 -30 -15 -30 -13 0 -15 33 -15 240 l0 240 25 0 c14 0 25 5 25 10 0 6
-11 8 -25 4 -19 -5 -25 -2 -25 10 0 14 36 16 360 16 217 0 360 -4 360 -9z m50
-1 c0 -5 -9 -10 -20 -10 -11 0 -20 5 -20 10 0 6 9 10 20 10 11 0 20 -4 20 -10z
m-57 -50 c-3 -11 -14 -20 -24 -20 -12 0 -19 7 -19 20 0 14 7 20 24 20 19 0 23
-4 19 -20z m-191 -125 c-3 -16 -11 -25 -23 -25 -14 0 -19 7 -19 25 0 20 5 25
24 25 19 0 22 -4 18 -25z m-179 -125 c-3 -13 -14 -20 -29 -20 -17 0 -24 6 -24
20 0 15 7 20 29 20 24 0 28 -3 24 -20z m-191 -125 c-3 -16 -11 -25 -23 -25
-14 0 -19 7 -19 25 0 20 5 25 24 25 19 0 22 -4 18 -25z"/>
<path d="M277 753 c73 -2 193 -2 265 0 73 1 14 3 -132 3 -146 0 -205 -2 -133
-3z"/>
<path d="M955 740 c3 -5 15 -10 26 -10 10 0 19 5 19 10 0 6 -12 10 -26 10 -14
0 -23 -4 -19 -10z"/>
<path d="M870 685 c0 -54 0 -55 -30 -55 -28 0 -30 -3 -30 -35 0 -32 -2 -35
-30 -35 l-30 0 0 -60 0 -60 -30 0 c-27 0 -30 -3 -30 -30 0 -28 -3 -30 -35 -30
l-35 0 0 -65 c0 -63 -1 -65 -25 -65 -28 0 -32 12 -10 34 20 20 19 26 -5 26
-18 0 -20 -7 -20 -60 l0 -60 220 0 c155 0 220 3 220 11 0 7 -12 10 -30 7 l-30
-5 0 244 0 243 -29 0 c-25 0 -28 3 -23 25 2 15 0 25 -7 25 -7 0 -11 -21 -11
-55z m50 -215 l0 -200 -140 0 c-80 0 -140 4 -140 9 0 6 15 11 33 13 28 3 32 7
35 36 2 19 9 32 17 32 22 0 45 41 45 82 0 33 3 37 28 40 21 2 28 9 30 31 2 15
8 27 13 27 25 0 49 42 49 85 0 33 4 45 15 45 13 0 15 -29 15 -200z m-50 115
c0 -18 -5 -25 -20 -25 -15 0 -20 7 -20 25 0 18 5 25 20 25 15 0 20 -7 20 -25z
m-60 -60 c0 -20 -5 -25 -24 -25 -19 0 -23 4 -19 19 3 11 12 22 22 24 9 3 17 5
19 6 1 0 2 -10 2 -24z m-60 -125 c0 -13 -7 -20 -20 -20 -13 0 -20 7 -20 20 0
13 7 20 20 20 13 0 20 -7 20 -20z m-60 -60 c0 -26 -3 -30 -29 -30 -25 0 -28 3
-24 24 3 15 13 27 27 29 11 2 22 5 24 6 1 0 2 -12 2 -29z m233 -110 c-5 -19
-14 -20 -149 -20 -137 0 -144 1 -144 20 0 19 7 20 149 20 144 0 149 -1 144
-20z m-303 -5 c0 -8 -9 -15 -20 -15 -25 0 -26 17 -2 23 9 3 18 5 20 6 1 0 2
-6 2 -14z"/>
<path d="M817 683 c-4 -3 -7 -15 -7 -27 0 -19 0 -19 20 2 11 12 20 24 20 27 0
7 -25 6 -33 -2z"/>
<path d="M763 615 c-16 -17 -17 -35 -3 -35 6 0 10 7 10 15 0 8 5 15 10 15 6 0
10 5 10 10 0 14 -13 12 -27 -5z"/>
<path d="M670 595 c0 -8 -7 -15 -15 -15 -8 0 -15 -4 -15 -10 0 -5 11 -10 25
-10 20 0 25 5 25 25 0 14 -4 25 -10 25 -5 0 -10 -7 -10 -15z"/>
<path d="M690 473 l0 -27 20 22 c11 12 20 24 20 27 0 3 -9 5 -20 5 -15 0 -20
-7 -20 -27z"/>
<path d="M473 465 c-18 -20 -16 -25 7 -25 13 0 20 7 20 20 0 23 -10 25 -27 5z"/>
<path d="M620 420 c0 -11 5 -20 10 -20 6 0 10 5 10 10 0 6 7 10 15 10 8 0 15
5 15 10 0 6 -11 10 -25 10 -18 0 -25 -5 -25 -20z"/>
<path d="M341 405 l-23 -25 26 0 c21 0 26 5 26 25 0 30 1 30 -29 0z"/>
<path d="M425 390 c-3 -5 -1 -10 4 -10 6 0 11 5 11 10 0 6 -2 10 -4 10 -3 0
-8 -4 -11 -10z"/>
<path d="M290 345 c0 -8 -4 -15 -10 -15 -5 0 -10 -4 -10 -10 0 -5 9 -10 20
-10 15 0 20 7 20 25 0 14 -4 25 -10 25 -5 0 -10 -7 -10 -15z"/>
<path d="M235 260 c-3 -5 -1 -10 4 -10 6 0 11 5 11 10 0 6 -2 10 -4 10 -3 0
-8 -4 -11 -10z"/>
<path d="M960 260 c0 -5 9 -10 20 -10 11 0 20 5 20 10 0 6 -9 10 -20 10 -11 0
-20 -4 -20 -10z"/>
<path d="M500 220 c0 -24 4 -30 22 -30 21 0 21 0 2 15 -19 15 -19 15 0 30 19
15 19 15 -2 15 -18 0 -22 -6 -22 -30z"/>
<path d="M44 225 c-4 -8 -15 -15 -25 -15 -10 0 -19 -4 -19 -10 0 -5 13 -10 30
-10 25 0 30 4 30 25 0 28 -8 33 -16 10z"/>
<path d="M110 220 c0 -5 -6 -10 -14 -10 -8 0 -18 -4 -21 -10 -4 -6 7 -10 24
-10 24 0 31 4 31 20 0 11 -4 20 -10 20 -5 0 -10 -4 -10 -10z"/>
</g>
</svg>
