<?xml version="1.0" standalone="no"?>
<!DOCTYPE svg PUBLIC "-//W3C//DTD SVG 20010904//EN"
 "http://www.w3.org/TR/2001/REC-SVG-20010904/DTD/svg10.dtd">
<svg version="1.0" xmlns="http://www.w3.org/2000/svg"
 width="57.000000pt" height="57.000000pt" viewBox="0 0 57.000000 57.000000"
 preserveAspectRatio="xMidYMid meet">
<metadata>
Created by potrace 1.16, written by Peter Selinger 2001-2019
</metadata>
<g transform="translate(0.000000,57.000000) scale(0.100000,-0.100000)"
fill="#000000" stroke="none">
<path d="M502 558 c-7 -7 -12 -16 -12 -20 0 -5 -16 -23 -36 -41 -39 -35 -139
-134 -165 -163 -10 -11 -28 -28 -40 -40 -13 -11 -50 -47 -81 -80 -31 -32 -82
-83 -113 -113 -39 -38 -55 -61 -55 -80 0 -25 0 -25 14 -6 8 11 136 140 284
288 229 227 265 267 242 267 -14 0 -31 -5 -38 -12z m-162 -192 c0 -3 -4 -8
-10 -11 -5 -3 -10 -1 -10 4 0 6 5 11 10 11 6 0 10 -2 10 -4z"/>
<path d="M557 543 c-5 -7 -5 -13 0 -13 4 0 3 -4 -3 -8 -6 -4 -52 -86 -103
-182 -50 -96 -95 -182 -100 -190 -29 -46 -78 -150 -71 -150 21 0 38 13 33 26
-3 8 0 14 5 14 6 0 16 16 23 35 9 24 19 35 34 35 15 0 16 3 7 9 -11 7 -11 9 1
14 10 4 13 13 10 27 -3 12 1 26 9 33 20 17 43 71 26 62 -7 -4 -3 2 8 12 12 10
25 28 29 41 3 12 11 22 16 22 5 0 9 8 9 18 1 9 12 35 25 57 39 62 56 105 53
129 -2 15 -5 17 -11 9z"/>
<path d="M225 179 c-11 -17 1 -21 15 -4 8 9 8 15 2 15 -6 0 -14 -5 -17 -11z"/>
<path d="M186 141 c-4 -7 -5 -15 -2 -18 9 -9 19 4 14 18 -4 11 -6 11 -12 0z"/>
<path d="M65 20 c-3 -5 1 -10 9 -10 9 0 16 5 16 10 0 6 -4 10 -9 10 -6 0 -13
-4 -16 -10z"/>
</g>
</svg>
