<?xml version="1.0" standalone="no"?>
<!DOCTYPE svg PUBLIC "-//W3C//DTD SVG 20010904//EN"
 "http://www.w3.org/TR/2001/REC-SVG-20010904/DTD/svg10.dtd">
<svg version="1.0" xmlns="http://www.w3.org/2000/svg"
 width="100.000000pt" height="100.000000pt" viewBox="0 0 100.000000 100.000000"
 preserveAspectRatio="xMidYMid meet">
<metadata>
Created by potrace 1.16, written by Peter Selinger 2001-2019
</metadata>
<g transform="translate(0.000000,100.000000) scale(0.100000,-0.100000)"
fill="#000000" stroke="none">
<path d="M60 974 c0 -14 4 -23 10 -19 13 8 13 45 0 45 -5 0 -10 -12 -10 -26z"/>
<path d="M370 970 l0 -30 -185 0 c-130 0 -185 -3 -185 -11 0 -7 11 -9 30 -5
l30 6 0 -140 0 -139 -33 -10 c-25 -7 -27 -9 -9 -10 30 -1 33 -51 2 -51 -11 0
-20 -4 -20 -10 0 -5 13 -10 30 -10 28 0 30 3 30 35 0 33 2 35 35 35 32 0 35 2
35 30 0 27 3 30 30 30 27 0 30 3 30 30 l0 30 60 0 c59 0 60 1 60 28 -1 23 -2
25 -13 11 -7 -8 -20 -18 -29 -22 -14 -5 -18 -1 -18 18 0 24 3 25 60 25 l60 0
0 30 c0 28 3 30 35 30 33 0 35 2 35 35 0 32 2 35 30 35 27 0 30 3 30 30 0 17
-4 30 -10 30 -5 0 -10 -8 -10 -19 0 -10 -9 -21 -20 -24 -16 -4 -20 0 -20 19 0
13 -4 24 -10 24 -5 0 -10 -9 -10 -20 0 -11 -7 -20 -15 -20 -8 0 -15 9 -15 20
0 11 -4 20 -10 20 -5 0 -10 -13 -10 -30z m53 -54 c-3 -16 -13 -26 -29 -29 -21
-4 -24 0 -24 24 0 25 4 29 29 29 24 0 28 -3 24 -24z m-117 -32 c-3 -8 -17 -14
-31 -14 -18 0 -25 -5 -25 -19 0 -11 -4 -23 -10 -26 -5 -3 -10 -17 -10 -31 0
-20 -5 -24 -30 -24 -27 0 -30 -3 -30 -30 0 -27 -3 -30 -30 -30 -27 0 -30 -3
-30 -30 0 -20 -5 -30 -15 -30 -13 0 -15 22 -15 135 l0 134 113 3 c115 3 127
-1 113 -38z m44 21 c0 -8 -4 -15 -10 -15 -5 0 -10 7 -10 15 0 8 5 15 10 15 6
0 10 -7 10 -15z m3 -54 c-3 -11 -13 -21 -24 -24 -15 -4 -19 0 -19 19 0 19 5
24 24 24 19 0 23 -4 19 -19z m-63 -6 c0 -8 -7 -15 -15 -15 -16 0 -20 12 -8 23
11 12 23 8 23 -8z"/>
<path d="M548 975 c-3 -16 -2 -31 3 -33 5 -2 10 -16 10 -30 1 -15 3 -20 6 -11
6 22 45 29 174 29 101 0 109 -1 109 -19 0 -14 -8 -21 -27 -23 -22 -2 -29 -9
-31 -30 -3 -21 -9 -27 -30 -30 -21 -2 -28 -9 -30 -30 -3 -21 -9 -27 -30 -30
-21 -2 -28 -9 -30 -30 -3 -25 -8 -28 -38 -28 -31 0 -34 -2 -34 -30 0 -27 -3
-30 -30 -30 -28 0 -30 -3 -30 -35 0 -32 -2 -35 -30 -35 -27 0 -30 -3 -30 -30
0 -27 -3 -30 -30 -30 -27 0 -30 -3 -30 -30 0 -27 -3 -30 -32 -31 -37 0 -86
-17 -55 -18 10 -1 17 -9 17 -21 0 -26 -40 -28 -41 -2 0 14 -2 14 -8 -3 -4 -11
-19 -22 -32 -25 -17 -4 -25 -14 -27 -32 -2 -19 -10 -27 -32 -32 -21 -4 -31
-13 -36 -31 -3 -14 -13 -25 -23 -25 -22 0 -41 -19 -41 -42 0 -11 -7 -18 -20
-18 -19 0 -20 7 -20 94 0 51 3 114 6 140 6 41 10 46 33 47 14 0 20 3 13 6 -7
3 -24 2 -37 -1 l-25 -6 0 -150 0 -150 -32 -1 c-24 -1 -27 -3 -10 -6 27 -5 29
-33 2 -33 -11 0 -20 -4 -20 -10 0 -5 11 -10 24 -10 19 0 22 -4 18 -25 -3 -16
-11 -25 -23 -25 -11 0 -19 -4 -19 -10 0 -5 13 -10 30 -10 28 0 30 3 30 35 0
33 2 35 35 35 32 0 35 2 35 30 0 27 3 30 30 30 27 0 30 3 30 30 0 27 3 30 30
30 27 0 30 3 30 30 0 27 3 30 30 30 28 0 30 3 30 35 0 32 2 35 30 35 27 0 30
3 30 30 0 28 3 30 35 30 32 0 35 2 35 30 0 27 3 30 30 30 27 0 30 3 30 30 0
27 3 30 30 30 28 0 30 3 30 35 l0 35 65 0 65 0 0 30 c0 27 3 30 30 30 27 0 30
3 30 30 0 27 3 30 30 30 27 0 30 3 30 30 0 27 3 30 30 30 27 0 30 3 30 30 0
28 3 30 35 30 33 0 35 2 35 35 0 32 2 35 30 35 17 0 30 5 30 10 0 6 -13 10
-30 10 -23 0 -30 4 -30 20 0 11 -4 20 -10 20 -5 0 -10 -9 -10 -20 0 -15 -7
-20 -25 -20 -14 0 -25 -4 -25 -10 0 -6 -58 -10 -154 -10 l-155 0 -3 33 -3 32
-7 -30z m372 -60 c0 -20 -5 -25 -25 -25 -20 0 -25 5 -25 25 0 20 5 25 25 25
20 0 25 -5 25 -25z m-67 -64 c-3 -11 -13 -21 -24 -24 -15 -4 -19 0 -19 19 0
19 5 24 24 24 19 0 23 -4 19 -19z m-60 -60 c-3 -11 -13 -21 -24 -24 -15 -4
-19 0 -19 19 0 19 5 24 24 24 19 0 23 -4 19 -19z m-60 -60 c-3 -11 -13 -21
-24 -24 -15 -4 -19 0 -19 19 0 19 5 24 24 24 19 0 23 -4 19 -19z m-60 -60 c-3
-10 -16 -21 -29 -24 -20 -3 -24 0 -24 19 0 20 5 24 29 24 24 0 28 -4 24 -19z
m-383 -316 c0 -18 -5 -25 -20 -25 -15 0 -20 7 -20 25 0 18 5 25 20 25 15 0 20
-7 20 -25z m-60 -65 c0 -13 -7 -20 -20 -20 -13 0 -20 7 -20 20 0 13 7 20 20
20 13 0 20 -7 20 -20z m-57 -60 c-3 -11 -14 -20 -24 -20 -12 0 -19 7 -19 20 0
14 7 20 24 20 19 0 23 -4 19 -20z m-60 -60 c-3 -13 -14 -20 -29 -20 -17 0 -24
6 -24 20 0 15 7 20 29 20 24 0 28 -3 24 -20z"/>
<path d="M491 908 c0 -9 -9 -22 -18 -27 -16 -9 -16 -10 5 -11 16 0 22 -6 23
-22 1 -16 3 -18 6 -6 2 9 12 19 21 21 12 3 11 5 -5 6 -16 1 -23 9 -26 29 -2
15 -5 19 -6 10z"/>
<path d="M960 880 c0 -5 9 -10 20 -10 11 0 20 5 20 10 0 6 -9 10 -20 10 -11 0
-20 -4 -20 -10z"/>
<path d="M7 873 c7 -2 19 -2 26 0 6 3 1 5 -13 5 -14 0 -19 -2 -13 -5z"/>
<path d="M920 840 c0 -5 -7 -10 -15 -10 -8 0 -15 -4 -15 -10 0 -5 11 -10 25
-10 18 0 25 5 25 20 0 11 -4 20 -10 20 -5 0 -10 -4 -10 -10z"/>
<path d="M440 801 c0 -5 9 -7 20 -4 11 3 20 7 20 9 0 2 -9 4 -20 4 -11 0 -20
-4 -20 -9z"/>
<path d="M848 769 c-17 -18 -17 -19 2 -19 13 0 20 7 20 20 0 24 0 24 -22 -1z"/>
<path d="M221 715 l-23 -25 26 0 c21 0 26 5 26 25 0 30 1 30 -29 0z"/>
<path d="M795 700 c-3 -5 -1 -10 4 -10 6 0 11 5 11 10 0 6 -2 10 -4 10 -3 0
-8 -4 -11 -10z"/>
<path d="M161 655 l-23 -25 26 0 c21 0 26 5 26 25 0 30 1 30 -29 0z"/>
<path d="M251 654 c0 -11 3 -14 6 -6 3 7 2 16 -1 19 -3 4 -6 -2 -5 -13z"/>
<path d="M223 623 c9 -2 23 -2 30 0 6 3 -1 5 -18 5 -16 0 -22 -2 -12 -5z"/>
<path d="M115 603 c-4 -11 -17 -24 -28 -28 -20 -7 -20 -8 6 -12 36 -6 40 -2
34 34 -4 26 -5 26 -12 6z"/>
<path d="M603 603 c-4 -10 -14 -23 -22 -30 -14 -11 -12 -12 12 -13 23 0 27 4
27 30 0 34 -7 39 -17 13z"/>
<path d="M192 590 c0 -14 2 -19 5 -12 2 6 2 18 0 25 -3 6 -5 1 -5 -13z"/>
<path d="M158 553 c7 -3 16 -2 19 1 4 3 -2 6 -13 5 -11 0 -14 -3 -6 -6z"/>
<path d="M531 525 l-23 -25 26 0 c21 0 26 5 26 25 0 30 1 30 -29 0z"/>
<path d="M40 530 c0 -5 -9 -10 -20 -10 -11 0 -20 -4 -20 -10 0 -5 13 -10 30
-10 23 0 30 4 30 20 0 11 -4 20 -10 20 -5 0 -10 -4 -10 -10z"/>
<path d="M131 524 c0 -11 3 -14 6 -6 3 7 2 16 -1 19 -3 4 -6 -2 -5 -13z"/>
<path d="M471 465 l-23 -25 26 0 c21 0 26 5 26 25 0 30 1 30 -29 0z"/>
<path d="M7 433 c7 -2 19 -2 26 0 6 3 1 5 -13 5 -14 0 -19 -2 -13 -5z"/>
<path d="M420 410 c0 -5 -6 -10 -14 -10 -8 0 -18 -4 -21 -10 -4 -6 7 -10 24
-10 24 0 31 4 31 20 0 11 -4 20 -10 20 -5 0 -10 -4 -10 -10z"/>
<path d="M350 345 c0 -8 -4 -15 -10 -15 -5 0 -10 -4 -10 -10 0 -5 9 -10 20
-10 15 0 20 7 20 25 0 14 -4 25 -10 25 -5 0 -10 -7 -10 -15z"/>
<path d="M283 275 c-18 -20 -16 -25 7 -25 13 0 20 7 20 20 0 23 -10 25 -27 5z"/>
<path d="M223 215 c-18 -20 -16 -25 7 -25 13 0 20 7 20 20 0 23 -10 25 -27 5z"/>
<path d="M163 155 c-18 -20 -16 -25 7 -25 13 0 20 7 20 20 0 23 -10 25 -27 5z"/>
<path d="M120 95 c0 -9 -10 -20 -22 -25 -22 -8 -22 -9 5 -9 22 -1 27 3 27 24
0 14 -2 25 -5 25 -3 0 -5 -7 -5 -15z"/>
</g>
</svg>
