<?xml version="1.0" standalone="no"?>
<!DOCTYPE svg PUBLIC "-//W3C//DTD SVG 20010904//EN"
 "http://www.w3.org/TR/2001/REC-SVG-20010904/DTD/svg10.dtd">
<svg version="1.0" xmlns="http://www.w3.org/2000/svg"
 width="192.000000pt" height="192.000000pt" viewBox="0 0 192.000000 192.000000"
 preserveAspectRatio="xMidYMid meet">
<metadata>
Created by potrace 1.16, written by Peter Selinger 2001-2019
</metadata>
<g transform="translate(0.000000,192.000000) scale(0.100000,-0.100000)"
fill="#000000" stroke="none">
<path d="M590 1910 c0 -5 7 -7 15 -4 8 4 15 8 15 10 0 2 -7 4 -15 4 -8 0 -15
-4 -15 -10z"/>
<path d="M1185 1910 c-3 -5 -1 -10 4 -10 6 0 11 5 11 10 0 6 -2 10 -4 10 -3 0
-8 -4 -11 -10z"/>
<path d="M1285 1900 c3 -5 11 -10 16 -10 6 0 7 5 4 10 -3 6 -11 10 -16 10 -6
0 -7 -4 -4 -10z"/>
<path d="M1330 1895 c0 -8 2 -15 4 -15 2 0 6 7 10 15 3 8 1 15 -4 15 -6 0 -10
-7 -10 -15z"/>
<path d="M648 1893 c7 -3 16 -2 19 1 4 3 -2 6 -13 5 -11 0 -14 -3 -6 -6z"/>
<path d="M774 1881 c-337 -79 -584 -300 -692 -616 -79 -232 -66 -471 37 -691
120 -255 331 -432 607 -510 88 -26 115 -29 244 -28 120 0 159 4 225 23 169 48
316 133 434 252 85 85 117 129 175 246 71 141 90 229 90 413 -1 139 -3 164
-28 245 -47 159 -147 327 -252 427 -111 104 -262 187 -419 230 -105 29 -315
33 -421 9z m213 -7 c-3 -3 -12 -4 -19 -1 -8 3 -5 6 6 6 11 1 17 -2 13 -5z
m131 -19 c10 -10 -3 -10 -130 -5 -70 3 -133 1 -141 -4 -8 -5 -23 -6 -33 -1
-17 7 -15 9 10 14 35 7 287 4 294 -4z m66 -11 c27 -10 18 -21 -15 -16 -22 3
-27 7 -18 13 17 11 14 10 33 3z m-428 -15 c4 -8 -1 -9 -15 -4 -16 5 -27 1 -37
-12 -10 -13 -14 -14 -12 -3 5 29 50 42 64 19z m41 5 c-3 -3 -12 -4 -19 -1 -8
3 -5 6 6 6 11 1 17 -2 13 -5z m448 -4 c19 -8 19 -9 -2 -9 -12 -1 -25 4 -28 9
-7 12 2 12 30 0z m-575 -19 c0 -15 -17 -22 -36 -14 -16 6 -16 7 2 14 27 11 34
10 34 0z m464 -6 c402 -85 685 -430 686 -837 0 -270 -113 -501 -335 -684 -63
-51 -197 -116 -300 -146 -114 -33 -324 -33 -440 0 -395 113 -652 465 -632 867
16 319 187 583 473 726 164 82 375 111 548 74z m156 0 c7 -9 8 -15 2 -15 -5 0
-12 7 -16 15 -3 8 -4 15 -2 15 2 0 9 -7 16 -15z m37 -20 c0 -8 -4 -12 -9 -9
-4 3 -8 9 -8 15 0 5 4 9 8 9 5 0 9 -7 9 -15z m-712 -5 c-11 -5 -29 -8 -40 -8
-16 0 -15 2 5 8 34 11 60 11 35 0z m765 -4 c0 -3 -4 -8 -10 -11 -5 -3 -10 -1
-10 4 0 6 5 11 10 11 6 0 10 -2 10 -4z m-856 -35 c3 -5 -1 -11 -9 -14 -9 -4
-12 -1 -8 9 6 16 10 17 17 5z m906 5 c0 -2 -7 -7 -16 -10 -8 -3 -12 -2 -9 4 6
10 25 14 25 6z m20 -26 c0 -5 -2 -10 -4 -10 -3 0 -8 5 -11 10 -3 6 -1 10 4 10
6 0 11 -4 11 -10z m-995 -20 c3 -6 -4 -10 -17 -10 -18 0 -20 2 -8 10 19 12 18
12 25 0z m1056 -20 c10 -6 19 -16 19 -23 0 -8 -3 -9 -8 -1 -4 6 -16 16 -27 22
-25 14 -11 16 16 2z m-1106 -20 c-10 -11 -20 -18 -23 -16 -5 6 21 35 32 36 5
0 1 -9 -9 -20z m-35 -41 c0 -6 -4 -7 -10 -4 -5 3 -10 11 -10 16 0 6 5 7 10 4
6 -3 10 -11 10 -16z m-50 -29 c0 -5 -5 -10 -11 -10 -5 0 -7 5 -4 10 3 6 8 10
11 10 2 0 4 -4 4 -10z m-25 -41 c-3 -8 -15 -21 -28 -28 -21 -14 -21 -13 -7 5
36 45 46 52 35 23z m1347 -1 c-7 -7 -12 -8 -12 -2 0 6 3 14 7 17 3 4 9 5 12 2
2 -3 -1 -11 -7 -17z m38 -29 c0 -4 -7 -6 -15 -3 -8 4 -15 10 -15 15 0 4 7 6
15 3 8 -4 15 -10 15 -15z m45 -61 c6 -5 6 -8 -2 -8 -14 0 -33 32 -32 52 0 7 6
2 12 -12 6 -14 16 -28 22 -32z m-1504 -11 c-10 -9 -11 -8 -5 6 3 10 9 15 12
12 3 -3 0 -11 -7 -18z m1529 -33 c0 -8 -4 -14 -10 -14 -5 0 -10 9 -10 21 0 11
5 17 10 14 6 -3 10 -13 10 -21z m-1575 -36 c-10 -13 -14 -16 -11 -8 3 8 9 24
13 35 4 11 8 14 11 7 2 -6 -4 -22 -13 -34z m1615 -24 c0 -2 -9 0 -20 6 -11 6
-20 13 -20 16 0 2 9 0 20 -6 11 -6 20 -13 20 -16z m-1640 -25 c-7 -11 -14 -18
-17 -15 -3 3 0 12 7 21 18 21 23 19 10 -6z m1667 -52 c7 -23 15 -51 19 -61 5
-13 4 -17 -3 -13 -6 4 -14 23 -17 42 -4 19 -12 35 -18 35 -5 0 -8 7 -4 15 3 8
1 15 -4 15 -6 0 -10 4 -10 10 0 26 27 -6 37 -43z m-1696 -40 c-6 -6 -14 -7
-18 -2 -5 4 -2 10 5 12 6 3 13 17 13 31 l2 27 4 -29 c3 -16 0 -33 -6 -39z
m-18 -50 c-3 -12 -11 -44 -19 -70 -9 -32 -11 -74 -7 -126 4 -50 2 -85 -5 -97
-17 -28 -16 161 1 217 17 57 17 55 17 85 0 14 4 23 9 20 5 -3 7 -16 4 -29z
m1755 -67 c9 -28 14 -195 7 -259 -6 -52 -9 -61 -17 -46 -8 13 -7 28 0 49 14
38 8 249 -7 254 -6 2 -11 18 -10 35 0 32 0 32 11 7 6 -14 13 -32 16 -40z
m-1768 -308 c0 -38 -10 -38 -15 0 -1 12 -6 32 -11 43 -7 18 -6 18 9 6 10 -8
17 -28 17 -49z m1741 -59 c-12 -20 -14 -14 -5 12 4 9 9 14 11 11 3 -2 0 -13
-6 -23z m-1721 -16 c0 -5 -4 -5 -10 -2 -5 3 -10 14 -10 23 0 15 2 15 10 2 5
-8 10 -19 10 -23z m5 -27 c-3 -5 6 -34 20 -65 14 -31 25 -61 25 -68 0 -7 -14
17 -30 51 -32 67 -37 92 -19 92 5 0 7 -4 4 -10z m1718 -11 c-4 -15 -9 -17 -17
-9 -8 8 -7 13 4 20 8 5 16 10 17 10 0 0 -1 -9 -4 -21z m-14 -36 c0 -5 -4 -17
-9 -28 -8 -18 -9 -17 -9 8 -1 15 4 27 9 27 6 0 10 -3 9 -7z m-36 -88 c-7 -21
-13 -19 -13 6 0 11 4 18 10 14 5 -3 7 -12 3 -20z m-1598 -35 c3 -5 1 -10 -4
-10 -6 0 -11 5 -11 10 0 6 2 10 4 10 3 0 8 -4 11 -10z m1557 -32 c-3 -13 -16
-34 -29 -48 l-24 -24 12 27 c6 14 16 24 20 21 5 -3 9 3 9 14 0 16 8 32 16 32
1 0 0 -10 -4 -22z m-1540 -10 c-7 -7 -12 -8 -12 -2 0 14 12 26 19 19 2 -3 -1
-11 -7 -17z m28 -41 c0 -4 -6 -2 -14 5 -8 7 -12 17 -9 22 5 8 23 -12 23 -27z
m1458 -39 c-2 -6 -10 -14 -16 -16 -7 -2 -10 2 -6 12 7 18 28 22 22 4z m-39
-40 c-8 -7 -22 -22 -32 -33 -18 -19 -18 -19 0 12 10 18 24 33 32 33 13 0 13
-2 0 -12z m-1293 -58 c8 0 12 -5 9 -11 -8 -12 -45 17 -45 35 0 6 5 3 11 -6 5
-10 17 -18 25 -18z m1204 -21 c-7 -11 -14 -18 -17 -15 -3 3 0 12 7 21 18 21
23 19 10 -6z m-98 -79 c-12 -5 -25 -16 -28 -25 -4 -8 -11 -15 -17 -15 -6 0 0
11 13 25 13 14 31 25 39 24 10 0 8 -4 -7 -9z m-898 -43 c3 3 6 1 6 -5 0 -7 7
-12 16 -12 8 0 13 -4 10 -9 -7 -10 -61 13 -72 31 -4 7 0 6 13 -1 11 -6 23 -7
27 -4z m831 -7 c-3 -5 -11 -10 -16 -10 -6 0 -7 5 -4 10 3 6 11 10 16 10 6 0 7
-4 4 -10z m-45 -20 c0 -5 -12 -10 -27 -9 -25 0 -26 1 -8 9 27 12 35 12 35 0z
m-60 -18 c0 -8 -43 -32 -55 -32 -3 0 3 9 13 19 18 20 42 27 42 13z m-575 -22
c3 -5 1 -10 -4 -10 -6 0 -11 5 -11 10 0 6 2 10 4 10 3 0 8 -4 11 -10z m478
-17 c-7 -2 -21 -2 -30 0 -10 3 -4 5 12 5 17 0 24 -2 18 -5z m-296 -15 c23 -9
25 -12 9 -16 -10 -2 -21 1 -25 6 -3 6 -20 12 -36 15 -29 4 -29 4 -3 6 15 0 39
-4 55 -11z m149 -4 c-10 -10 -29 -14 -53 -12 l-38 4 45 11 c62 15 63 15 46 -3z
m74 6 c0 -5 -12 -10 -27 -9 -25 0 -26 1 -8 9 27 12 35 12 35 0z"/>
<path d="M880 1780 c0 -5 5 -10 11 -10 5 0 7 5 4 10 -3 6 -8 10 -11 10 -2 0
-4 -4 -4 -10z"/>
<path d="M1015 1780 c-27 -7 -28 -8 -5 -8 14 0 34 3 45 8 25 11 2 11 -40 0z"/>
<path d="M795 1770 c3 -5 8 -10 11 -10 2 0 4 5 4 10 0 6 -5 10 -11 10 -5 0 -7
-4 -4 -10z"/>
<path d="M705 1741 c-3 -5 -1 -12 5 -16 5 -3 10 1 10 9 0 18 -6 21 -15 7z"/>
<path d="M634 1709 c-3 -5 6 -9 20 -9 31 0 34 6 6 13 -11 3 -23 1 -26 -4z"/>
<path d="M575 1690 c-3 -5 -2 -10 4 -10 5 0 13 5 16 10 3 6 2 10 -4 10 -5 0
-13 -4 -16 -10z"/>
<path d="M1290 1690 c-12 -8 -11 -10 8 -10 12 0 22 5 22 10 0 13 -11 13 -30 0z"/>
<path d="M542 1648 c-15 -15 -16 -38 -1 -38 5 0 7 5 3 11 -3 6 0 15 7 20 7 4
11 10 8 13 -3 3 -11 0 -17 -6z"/>
<path d="M488 1613 c7 -3 16 -2 19 1 4 3 -2 6 -13 5 -11 0 -14 -3 -6 -6z"/>
<path d="M1450 1610 c0 -5 5 -10 11 -10 5 0 7 5 4 10 -3 6 -8 10 -11 10 -2 0
-4 -4 -4 -10z"/>
<path d="M1081 1597 c2 -1 12 -9 22 -16 15 -12 17 -12 11 3 -3 9 -13 16 -22
16 -8 0 -13 -1 -11 -3z"/>
<path d="M975 1580 c4 -6 11 -8 16 -5 14 9 11 15 -7 15 -8 0 -12 -5 -9 -10z"/>
<path d="M1070 1571 c0 -5 5 -13 10 -16 6 -3 10 -2 10 4 0 5 -4 13 -10 16 -5
3 -10 2 -10 -4z"/>
<path d="M1111 1544 c0 -11 3 -14 6 -6 3 7 2 16 -1 19 -3 4 -6 -2 -5 -13z"/>
<path d="M1020 1540 c-8 -5 -10 -17 -6 -33 3 -14 3 -33 0 -42 -8 -19 -65 -50
-114 -60 -51 -11 -122 -51 -143 -80 -10 -14 -21 -41 -24 -60 -5 -31 -3 -35 16
-35 12 0 24 8 27 18 21 64 44 81 167 122 82 27 127 61 127 98 0 60 -21 90 -50
72z"/>
<path d="M366 1528 c3 -4 12 -8 20 -8 8 0 14 4 14 8 0 4 -9 8 -19 8 -11 0 -17
-4 -15 -8z"/>
<path d="M1545 1530 c-3 -5 -1 -10 4 -10 6 0 11 5 11 10 0 6 -2 10 -4 10 -3 0
-8 -4 -11 -10z"/>
<path d="M970 1513 c0 -4 5 -15 10 -23 8 -13 10 -13 10 2 0 9 -4 20 -10 23 -5
3 -10 3 -10 -2z"/>
<path d="M1113 1505 c-3 -9 -3 -18 -1 -21 3 -3 8 4 11 16 6 23 -1 27 -10 5z"/>
<path d="M1256 1496 c-8 -32 4 -116 16 -116 6 0 7 11 2 28 -5 15 -8 46 -7 70
1 48 -2 53 -11 18z"/>
<path d="M1150 1456 c0 -50 -25 -72 -105 -91 -80 -20 -122 -39 -148 -68 -24
-28 -33 -67 -17 -77 19 -12 34 -3 48 30 10 22 27 34 68 50 30 11 62 20 72 20
30 1 99 37 116 61 9 13 16 43 16 66 0 39 -2 43 -25 43 -22 0 -25 -4 -25 -34z"/>
<path d="M795 1430 c-3 -5 -15 -10 -26 -10 -11 0 -18 -4 -15 -9 9 -13 53 -1
53 15 0 17 -4 18 -12 4z"/>
<path d="M1231 1424 c0 -11 3 -14 6 -6 3 7 2 16 -1 19 -3 4 -6 -2 -5 -13z"/>
<path d="M298 1410 c-7 -24 -3 -38 8 -28 3 4 4 17 2 30 l-3 23 -7 -25z"/>
<path d="M720 1375 c0 -8 5 -15 10 -15 6 0 10 7 10 15 0 8 -4 15 -10 15 -5 0
-10 -7 -10 -15z"/>
<path d="M258 1363 c7 -3 16 -2 19 1 4 3 -2 6 -13 5 -11 0 -14 -3 -6 -6z"/>
<path d="M1680 1362 c0 -7 7 -20 15 -28 19 -20 20 -4 0 22 -9 12 -14 14 -15 6z"/>
<path d="M1168 1323 c6 -2 18 -2 25 0 6 3 1 5 -13 5 -14 0 -19 -2 -12 -5z"/>
<path d="M221 1313 c0 -5 4 -17 9 -28 8 -18 9 -17 9 8 1 15 -3 27 -9 27 -5 0
-10 -3 -9 -7z"/>
<path d="M1136 1301 c-3 -5 -16 -7 -29 -4 -12 3 -19 3 -16 0 3 -4 22 -9 43
-11 32 -5 36 -3 26 9 -15 17 -17 18 -24 6z"/>
<path d="M836 1265 c-9 -26 -7 -32 5 -12 6 10 9 21 6 23 -2 3 -7 -2 -11 -11z"/>
<path d="M212 1250 c0 -14 2 -19 5 -12 2 6 2 18 0 25 -3 6 -5 1 -5 -13z"/>
<path d="M205 1210 c-3 -5 1 -10 10 -10 9 0 13 5 10 10 -3 6 -8 10 -10 10 -2
0 -7 -4 -10 -10z"/>
<path d="M490 1088 c0 -111 21 -255 47 -322 24 -60 81 -144 104 -151 29 -9 13
-25 -26 -25 -47 0 -135 -20 -135 -30 0 -24 126 -34 415 -35 325 0 468 13 431
41 -10 7 -49 16 -87 20 -38 4 -69 9 -69 12 0 2 16 22 35 44 20 21 41 50 47 62
8 19 21 25 67 30 64 8 145 48 174 88 11 14 22 48 24 75 9 90 -45 159 -144 186
l-43 11 0 48 0 48 -420 0 -420 0 0 -102z m60 57 c0 -8 6 -15 13 -16 9 0 9 -2
-1 -6 -9 -3 -11 -16 -6 -39 9 -49 -4 -124 -22 -124 -12 0 -14 14 -10 80 3 47
1 78 -5 75 -5 -4 -6 2 -2 11 4 11 8 13 11 6 2 -7 9 -12 15 -12 7 1 1 10 -12
20 -23 20 -23 20 -2 20 12 0 21 -6 21 -15z m750 -2 c0 -7 -7 -13 -15 -13 -8 0
-15 -5 -15 -11 0 -6 7 -9 15 -5 17 6 21 -19 5 -29 -6 -4 -6 -15 0 -31 12 -29
9 -75 -3 -67 -5 3 -8 -10 -6 -28 2 -32 -6 -103 -17 -141 -4 -12 0 -18 11 -18
9 0 14 -4 11 -9 -3 -5 -15 -7 -26 -4 -12 3 -20 0 -20 -7 0 -9 9 -11 30 -6 17
3 45 8 63 11 l32 5 -35 -16 c-19 -9 -54 -18 -78 -19 -48 -2 -54 -7 -59 -36 -2
-12 1 -18 8 -14 6 4 8 13 5 21 -3 8 1 14 10 14 9 0 13 -5 10 -12 -3 -7 -9 -21
-12 -30 -4 -10 -13 -18 -20 -18 -8 0 -14 -6 -14 -14 0 -8 -9 -17 -19 -21 -13
-4 -18 -12 -14 -22 3 -8 0 -19 -7 -23 -11 -7 -11 -12 -2 -23 10 -12 9 -16 -3
-21 -11 -4 -14 -2 -9 6 5 8 2 9 -12 2 -24 -11 -359 -18 -432 -9 -59 7 -64 17
-9 17 27 0 36 5 41 21 6 25 0 37 -21 37 -13 0 -13 -3 -3 -15 7 -9 10 -19 6
-22 -10 -10 -26 17 -26 43 0 20 -19 36 -44 38 -5 1 -11 8 -13 16 -4 13 -3 13
6 0 6 -8 11 -12 11 -8 0 3 3 13 6 22 4 11 0 14 -15 11 -23 -4 -49 33 -55 82
-2 16 -11 42 -20 58 -21 39 -22 99 -2 92 8 -3 16 -1 18 5 2 6 4 -6 5 -27 1
-21 7 -41 13 -45 9 -5 9 -9 1 -14 -6 -4 -11 -2 -11 3 0 6 -4 11 -10 11 -18 0
-10 -22 10 -27 11 -3 20 -14 20 -24 0 -11 3 -18 8 -16 4 1 9 -2 11 -8 2 -5 14
-26 27 -46 15 -24 19 -40 13 -50 -13 -21 -11 -29 7 -29 10 0 14 6 10 15 -8 21
8 19 29 -5 16 -18 16 -20 2 -20 -11 0 -14 -5 -10 -17 5 -14 9 -13 26 8 19 24
20 24 13 2 -5 -14 -3 -23 3 -23 6 0 11 5 11 10 0 6 5 10 11 10 5 0 7 -5 4 -10
-4 -6 -1 -9 6 -8 19 4 38 41 27 52 -13 16 -9 26 7 20 8 -4 15 -1 15 6 0 6 -5
8 -11 4 -8 -4 -9 4 -5 27 l6 34 -14 -30 -14 -30 -1 37 c-1 20 -6 38 -11 40
-16 5 -27 143 -22 271 2 57 2 57 34 57 67 0 15 12 -83 19 -69 5 16 7 253 7
279 -1 358 -4 358 -13z m-584 -45 c-23 -83 -9 -260 29 -370 17 -51 12 -60 -18
-28 -86 94 -128 196 -135 328 l-4 92 67 0 c65 0 67 -1 61 -22z m614 -39 c0 -5
12 -7 28 -4 15 3 21 2 14 -1 -6 -3 -10 -9 -7 -14 3 -4 -6 -7 -20 -6 -14 0 -25
7 -25 14 0 7 -4 10 -10 7 -5 -3 -10 1 -10 9 0 10 6 13 15 10 8 -4 15 -10 15
-15z m84 -40 c-8 -14 -24 -10 -24 6 0 9 6 12 15 9 8 -4 12 -10 9 -15z m-45
-24 c34 -17 41 -33 41 -89 0 -47 -15 -67 -64 -86 -36 -13 -63 -6 -48 13 6 7
14 50 18 95 4 45 11 82 16 82 5 0 22 -7 37 -15z m84 -11 c-3 -8 -1 -14 5 -14
6 0 12 6 15 13 3 6 5 3 6 -8 0 -11 4 -37 7 -58 5 -33 3 -41 -17 -55 -27 -19
-52 -25 -43 -11 3 5 11 9 19 9 15 0 25 22 25 56 0 16 -4 23 -11 18 -6 -3 -8
-17 -5 -29 3 -13 1 -27 -5 -31 -7 -4 -10 7 -9 37 4 64 1 81 -10 74 -11 -7 -14
8 -4 18 11 11 33 -4 27 -19z m-47 -190 c-9 -9 -20 -14 -23 -10 -4 3 2 13 13
20 25 18 31 12 10 -10z"/>
<path d="M531 1054 c0 -11 3 -14 6 -6 3 7 2 16 -1 19 -3 4 -6 -2 -5 -13z"/>
<path d="M755 1110 c-3 -5 3 -10 14 -10 11 0 23 5 26 10 3 6 -3 10 -14 10 -11
0 -23 -4 -26 -10z"/>
<path d="M785 1050 c-3 -5 -1 -10 4 -10 6 0 11 5 11 10 0 6 -2 10 -4 10 -3 0
-8 -4 -11 -10z"/>
<path d="M546 911 c-4 -7 -5 -15 -2 -18 9 -9 19 4 14 18 -4 11 -6 11 -12 0z"/>
<path d="M767 866 c-4 -10 -7 -25 -6 -34 0 -11 4 -9 10 7 5 13 8 29 6 35 -2 5
-6 2 -10 -8z"/>
<path d="M782 820 c0 -14 2 -19 5 -12 2 6 2 18 0 25 -3 6 -5 1 -5 -13z"/>
<path d="M1200 769 c0 -5 5 -7 10 -4 6 3 10 8 10 11 0 2 -4 4 -10 4 -5 0 -10
-5 -10 -11z"/>
<path d="M626 1075 c4 -8 8 -15 10 -15 2 0 4 7 4 15 0 8 -4 15 -10 15 -5 0 -7
-7 -4 -15z"/>
<path d="M661 1074 c0 -11 3 -14 6 -6 3 7 2 16 -1 19 -3 4 -6 -2 -5 -13z"/>
<path d="M643 1043 c-7 -2 -13 -12 -13 -21 0 -13 2 -14 9 -4 4 8 12 13 17 12
5 -1 10 3 12 9 4 12 -4 13 -25 4z"/>
<path d="M631 944 c0 -11 3 -14 6 -6 3 7 2 16 -1 19 -3 4 -6 -2 -5 -13z"/>
<path d="M672 940 c0 -14 2 -19 5 -12 2 6 2 18 0 25 -3 6 -5 1 -5 -13z"/>
<path d="M1351 914 c0 -11 3 -14 6 -6 3 7 2 16 -1 19 -3 4 -6 -2 -5 -13z"/>
<path d="M1340 880 c0 -5 5 -10 11 -10 5 0 7 5 4 10 -3 6 -8 10 -11 10 -2 0
-4 -4 -4 -10z"/>
<path d="M1454 1109 c-3 -5 6 -9 20 -9 31 0 34 6 6 13 -11 3 -23 1 -26 -4z"/>
<path d="M1408 1103 c7 -3 16 -2 19 1 4 3 -2 6 -13 5 -11 0 -14 -3 -6 -6z"/>
<path d="M1762 1080 c0 -14 2 -19 5 -12 2 6 2 18 0 25 -3 6 -5 1 -5 -13z"/>
<path d="M151 1064 c0 -11 3 -14 6 -6 3 7 2 16 -1 19 -3 4 -6 -2 -5 -13z"/>
<path d="M1475 1070 c3 -5 8 -10 11 -10 2 0 4 5 4 10 0 6 -5 10 -11 10 -5 0
-7 -4 -4 -10z"/>
<path d="M143 1005 c0 -22 2 -30 4 -17 2 12 2 30 0 40 -3 9 -5 -1 -4 -23z"/>
<path d="M1761 1024 c0 -11 3 -14 6 -6 3 7 2 16 -1 19 -3 4 -6 -2 -5 -13z"/>
<path d="M151 944 c0 -11 3 -14 6 -6 3 7 2 16 -1 19 -3 4 -6 -2 -5 -13z"/>
<path d="M1553 946 c0 -8 6 -12 14 -9 7 3 13 9 13 14 0 5 -6 9 -13 9 -8 0 -14
-6 -14 -14z"/>
<path d="M1771 944 c0 -11 3 -14 6 -6 3 7 2 16 -1 19 -3 4 -6 -2 -5 -13z"/>
<path d="M141 894 c0 -11 3 -14 6 -6 3 7 2 16 -1 19 -3 4 -6 -2 -5 -13z"/>
<path d="M1767 853 c-4 -3 -6 -22 -6 -42 l1 -36 8 40 c8 42 8 49 -3 38z"/>
<path d="M492 770 c7 -10 14 -18 15 -16 6 6 -9 36 -18 36 -5 0 -4 -9 3 -20z"/>
<path d="M480 741 c0 -5 5 -13 10 -16 6 -3 10 -2 10 4 0 5 -4 13 -10 16 -5 3
-10 2 -10 -4z"/>
<path d="M1460 729 c0 -5 5 -7 10 -4 6 3 10 8 10 11 0 2 -4 4 -10 4 -5 0 -10
-5 -10 -11z"/>
<path d="M1682 700 c0 -14 2 -19 5 -12 2 6 2 18 0 25 -3 6 -5 1 -5 -13z"/>
<path d="M1720 710 c0 -5 4 -10 9 -10 6 0 13 5 16 10 3 6 -1 10 -9 10 -9 0
-16 -4 -16 -10z"/>
<path d="M231 674 c0 -11 3 -14 6 -6 3 7 2 16 -1 19 -3 4 -6 -2 -5 -13z"/>
<path d="M213 656 c1 -11 9 -21 17 -23 10 -3 11 -2 4 4 -6 4 -14 15 -17 23 -5
11 -6 9 -4 -4z"/>
<path d="M510 645 c0 -8 4 -15 10 -15 5 0 7 7 4 15 -4 8 -8 15 -10 15 -2 0 -4
-7 -4 -15z"/>
<path d="M1695 639 c-11 -17 -13 -61 -3 -51 9 9 19 62 12 62 -1 0 -6 -5 -9
-11z"/>
<path d="M480 624 c0 -8 5 -12 10 -9 6 4 8 11 5 16 -9 14 -15 11 -15 -7z"/>
<path d="M1319 625 c42 -19 50 -19 25 0 -10 8 -28 14 -39 14 -14 0 -10 -4 14
-14z"/>
<path d="M265 550 c-3 -6 1 -7 9 -4 18 7 21 14 7 14 -6 0 -13 -4 -16 -10z"/>
<path d="M1636 544 c-5 -13 -3 -14 6 -7 7 6 20 13 28 16 10 4 8 6 -6 6 -12 1
-25 -6 -28 -15z"/>
<path d="M286 524 c-4 -9 -4 -19 -1 -22 3 -3 5 0 5 6 0 7 7 12 15 12 8 0 15 5
15 10 0 16 -27 11 -34 -6z"/>
<path d="M480 509 c0 -5 5 -7 10 -4 6 3 10 8 10 11 0 2 -4 4 -10 4 -5 0 -10
-5 -10 -11z"/>
<path d="M1330 510 c0 -6 7 -10 15 -10 8 0 15 2 15 4 0 2 -7 6 -15 10 -8 3
-15 1 -15 -4z"/>
<path d="M1615 500 c3 -5 8 -10 11 -10 2 0 4 5 4 10 0 6 -5 10 -11 10 -5 0 -7
-4 -4 -10z"/>
<path d="M500 490 c0 -6 7 -10 15 -10 8 0 15 2 15 4 0 2 -7 6 -15 10 -8 3 -15
1 -15 -4z"/>
<path d="M648 493 c7 -3 16 -2 19 1 4 3 -2 6 -13 5 -11 0 -14 -3 -6 -6z"/>
<path d="M1295 490 c3 -5 8 -10 11 -10 2 0 4 5 4 10 0 6 -5 10 -11 10 -5 0 -7
-4 -4 -10z"/>
<path d="M306 477 c3 -10 9 -15 12 -12 3 3 0 11 -7 18 -10 9 -11 8 -5 -6z"/>
<path d="M1083 483 c9 -2 23 -2 30 0 6 3 -1 5 -18 5 -16 0 -22 -2 -12 -5z"/>
<path d="M370 470 c0 -5 5 -10 10 -10 6 0 10 5 10 10 0 6 -4 10 -10 10 -5 0
-10 -4 -10 -10z"/>
<path d="M330 461 c0 -6 5 -13 10 -16 6 -3 10 1 10 9 0 9 -4 16 -10 16 -5 0
-10 -4 -10 -9z"/>
<path d="M360 412 c0 -4 9 -13 20 -20 19 -12 20 -11 8 8 -13 20 -28 27 -28 12z"/>
<path d="M418 393 c6 -2 18 -2 25 0 6 3 1 5 -13 5 -14 0 -19 -2 -12 -5z"/>
<path d="M472 350 c0 -14 2 -19 5 -12 2 6 2 18 0 25 -3 6 -5 1 -5 -13z"/>
<path d="M495 310 c-3 -5 -1 -10 4 -10 6 0 11 5 11 10 0 6 -2 10 -4 10 -3 0
-8 -4 -11 -10z"/>
<path d="M1430 310 c-9 -6 -10 -10 -3 -10 6 0 15 5 18 10 8 12 4 12 -15 0z"/>
<path d="M1360 279 c0 -5 5 -7 10 -4 6 3 10 8 10 11 0 2 -4 4 -10 4 -5 0 -10
-5 -10 -11z"/>
<path d="M683 233 c9 -2 23 -2 30 0 6 3 -1 5 -18 5 -16 0 -22 -2 -12 -5z"/>
<path d="M1258 233 c6 -2 18 -2 25 0 6 3 1 5 -13 5 -14 0 -19 -2 -12 -5z"/>
<path d="M1205 220 c3 -5 14 -10 23 -10 15 0 15 2 2 10 -20 13 -33 13 -25 0z"/>
<path d="M648 213 c7 -3 16 -2 19 1 4 3 -2 6 -13 5 -11 0 -14 -3 -6 -6z"/>
<path d="M1275 210 c3 -5 8 -10 11 -10 2 0 4 5 4 10 0 6 -5 10 -11 10 -5 0 -7
-4 -4 -10z"/>
<path d="M685 190 c3 -5 11 -10 16 -10 6 0 7 5 4 10 -3 6 -11 10 -16 10 -6 0
-7 -4 -4 -10z"/>
<path d="M933 153 c9 -2 25 -2 35 0 9 3 1 5 -18 5 -19 0 -27 -2 -17 -5z"/>
<path d="M320 1849 c0 -10 87 -16 108 -8 9 4 -11 8 -46 10 -34 2 -62 1 -62 -2z"/>
<path d="M462 1848 c-7 -7 -12 -16 -12 -21 0 -5 7 -1 16 8 9 9 14 18 12 20 -2
3 -10 -1 -16 -7z"/>
<path d="M478 1818 c-21 -21 -11 -24 15 -4 10 8 15 16 10 18 -4 3 -16 -3 -25
-14z"/>
<path d="M1460 1830 c0 -5 4 -10 9 -10 6 0 13 5 16 10 3 6 -1 10 -9 10 -9 0
-16 -4 -16 -10z"/>
<path d="M400 1810 c0 -5 5 -10 11 -10 5 0 7 5 4 10 -3 6 -8 10 -11 10 -2 0
-4 -4 -4 -10z"/>
<path d="M1485 1799 c-11 -17 1 -21 15 -4 8 9 8 15 2 15 -6 0 -14 -5 -17 -11z"/>
<path d="M410 1780 c-8 -5 -12 -11 -9 -14 3 -3 14 1 25 9 21 16 8 20 -16 5z"/>
<path d="M320 1750 c0 -5 7 -7 15 -4 8 4 15 8 15 10 0 2 -7 4 -15 4 -8 0 -15
-4 -15 -10z"/>
<path d="M1565 1730 c-3 -5 1 -10 9 -10 9 0 16 5 16 10 0 6 -4 10 -9 10 -6 0
-13 -4 -16 -10z"/>
<path d="M325 1719 c-11 -16 -1 -19 13 -3 7 8 8 14 3 14 -5 0 -13 -5 -16 -11z"/>
<path d="M266 1665 c4 -8 10 -15 15 -15 4 0 6 7 3 15 -4 8 -10 15 -15 15 -4 0
-6 -7 -3 -15z"/>
<path d="M241 1660 c0 -8 4 -22 9 -30 12 -18 12 -2 0 25 -6 13 -9 15 -9 5z"/>
<path d="M182 1586 c7 -8 15 -10 18 -6 3 4 12 10 20 13 8 3 0 6 -18 6 -28 1
-31 -1 -20 -13z"/>
<path d="M1735 1570 c9 -16 18 -30 21 -30 2 0 -2 14 -11 30 -9 17 -18 30 -21
30 -2 0 2 -13 11 -30z"/>
<path d="M160 1571 c0 -6 4 -13 10 -16 6 -3 7 1 4 9 -7 18 -14 21 -14 7z"/>
<path d="M1768 1513 c6 -2 18 -2 25 0 6 3 1 5 -13 5 -14 0 -19 -2 -12 -5z"/>
<path d="M1816 1503 c-6 -14 -5 -15 5 -6 7 7 10 15 7 18 -3 3 -9 -2 -12 -12z"/>
<path d="M1886 1285 c-9 -26 -7 -32 5 -12 6 10 9 21 6 23 -2 3 -7 -2 -11 -11z"/>
<path d="M10 1264 c0 -8 5 -12 10 -9 6 3 10 10 10 16 0 5 -4 9 -10 9 -5 0 -10
-7 -10 -16z"/>
<path d="M15 1200 c-4 -17 -5 -34 -2 -36 2 -3 7 10 11 27 8 42 0 50 -9 9z"/>
<path d="M7 753 c-4 -3 -7 -11 -7 -17 0 -6 5 -5 12 2 6 6 9 14 7 17 -3 3 -9 2
-12 -2z"/>
<path d="M10 715 c1 -6 7 -21 16 -35 l15 -25 -7 25 c-7 26 -24 52 -24 35z"/>
<path d="M1890 615 c0 -9 5 -15 11 -13 6 2 11 8 11 13 0 5 -5 11 -11 13 -6 2
-11 -4 -11 -13z"/>
<path d="M1860 575 c0 -8 2 -15 4 -15 2 0 6 7 10 15 3 8 1 15 -4 15 -6 0 -10
-7 -10 -15z"/>
<path d="M1905 570 c-3 -5 -1 -10 4 -10 6 0 11 5 11 10 0 6 -2 10 -4 10 -3 0
-8 -4 -11 -10z"/>
<path d="M87 501 c-4 -17 -3 -21 5 -13 5 5 8 16 6 23 -3 8 -7 3 -11 -10z"/>
<path d="M1810 470 c-6 -11 -7 -20 -3 -20 5 0 14 9 21 20 7 11 8 20 2 20 -5 0
-14 -9 -20 -20z"/>
<path d="M1766 424 c-22 -21 -20 -27 4 -14 11 6 20 15 20 20 0 14 -6 12 -24
-6z"/>
<path d="M163 397 c1 -15 5 -27 10 -27 10 0 9 22 -2 39 -7 10 -9 7 -8 -12z"/>
<path d="M1745 379 c-4 -6 -5 -12 -2 -15 2 -3 7 2 10 11 7 17 1 20 -8 4z"/>
<path d="M204 345 c0 -14 6 -25 13 -25 6 0 9 9 6 20 -8 30 -21 33 -19 5z"/>
<path d="M1723 340 c2 -8 10 -15 17 -15 7 0 15 7 17 15 4 13 3 13 -6 0 -10
-13 -12 -13 -22 0 -9 13 -10 13 -6 0z"/>
<path d="M241 294 c0 -11 3 -14 6 -6 3 7 2 16 -1 19 -3 4 -6 -2 -5 -13z"/>
<path d="M267 283 c-8 -12 18 -43 36 -43 6 0 4 6 -5 13 -9 6 -18 19 -20 27 -3
9 -7 10 -11 3z"/>
<path d="M320 191 c0 -9 30 -24 36 -18 2 1 -6 8 -16 15 -11 7 -20 8 -20 3z"/>
<path d="M1561 186 c-9 -11 -8 -15 5 -20 9 -4 19 -4 22 -1 3 3 0 5 -6 5 -6 0
-9 7 -6 15 8 19 0 19 -15 1z"/>
<path d="M1518 163 c7 -3 16 -2 19 1 4 3 -2 6 -13 5 -11 0 -14 -3 -6 -6z"/>
<path d="M1410 102 c-14 -2 -29 -8 -35 -13 -9 -9 54 -1 64 7 8 7 -4 10 -29 6z"/>
<path d="M538 83 c6 -2 18 -2 25 0 6 3 1 5 -13 5 -14 0 -19 -2 -12 -5z"/>
<path d="M1266 25 c8 -19 14 -19 14 0 0 8 -4 15 -10 15 -5 0 -7 -7 -4 -15z"/>
<path d="M668 23 c6 -2 18 -2 25 0 6 3 1 5 -13 5 -14 0 -19 -2 -12 -5z"/>
<path d="M1227 23 c-10 -9 -9 -23 1 -23 5 0 9 7 9 15 0 17 -1 18 -10 8z"/>
<path d="M785 10 c3 -5 8 -10 11 -10 2 0 4 5 4 10 0 6 -5 10 -11 10 -5 0 -7
-4 -4 -10z"/>
</g>
</svg>
