<?xml version="1.0" standalone="no"?>
<!DOCTYPE svg PUBLIC "-//W3C//DTD SVG 20010904//EN"
 "http://www.w3.org/TR/2001/REC-SVG-20010904/DTD/svg10.dtd">
<svg version="1.0" xmlns="http://www.w3.org/2000/svg"
 width="256.000000pt" height="256.000000pt" viewBox="0 0 256.000000 256.000000"
 preserveAspectRatio="xMidYMid meet">
<metadata>
Created by potrace 1.16, written by Peter Selinger 2001-2019
</metadata>
<g transform="translate(0.000000,256.000000) scale(0.100000,-0.100000)"
fill="#000000" stroke="none">
<path d="M880 2545 c0 -12 -16 -15 -80 -15 -79 0 -80 0 -80 -25 0 -23 -3 -25
-50 -25 -49 0 -50 -1 -50 -30 0 -30 -1 -30 -55 -30 -52 0 -55 -1 -55 -25 0
-20 -5 -25 -25 -25 -20 0 -25 -5 -25 -25 0 -21 -5 -25 -30 -25 -27 0 -30 -3
-30 -30 0 -25 -4 -30 -25 -30 -20 0 -25 -5 -25 -25 0 -20 -5 -25 -25 -25 -20
0 -25 -5 -25 -25 0 -21 -5 -25 -30 -25 -27 0 -30 -3 -30 -30 0 -25 -4 -30 -25
-30 -20 0 -25 -5 -25 -25 0 -20 -5 -25 -25 -25 -24 0 -25 -3 -25 -55 0 -54 0
-55 -30 -55 -29 0 -30 -1 -30 -50 0 -47 -2 -50 -25 -50 -25 0 -25 -1 -25 -80
0 -64 -3 -80 -15 -80 -8 0 -15 -4 -15 -10 0 -5 11 -10 25 -10 25 0 25 1 25 80
0 79 0 80 25 80 23 0 25 3 25 50 0 49 1 50 30 50 30 0 30 1 30 55 0 52 1 55
25 55 20 0 25 5 25 25 0 20 5 25 25 25 21 0 25 5 25 30 0 27 3 30 30 30 25 0
30 4 30 25 0 20 5 25 25 25 20 0 25 5 25 25 0 20 5 25 25 25 21 0 25 5 25 30
0 27 3 30 30 30 25 0 30 4 30 25 0 20 5 25 25 25 20 0 25 5 25 25 0 24 3 25
55 25 54 0 55 0 55 30 0 29 1 30 50 30 47 0 50 2 50 25 0 25 1 25 80 25 79 0
80 0 80 25 0 14 -4 25 -10 25 -5 0 -10 -7 -10 -15z"/>
<path d="M1660 2535 c0 -25 1 -25 80 -25 79 0 80 0 80 -25 0 -23 3 -25 50 -25
49 0 50 -1 50 -30 0 -30 1 -30 55 -30 52 0 55 -1 55 -25 0 -20 5 -25 25 -25
20 0 25 -5 25 -25 0 -21 5 -25 30 -25 27 0 30 -3 30 -30 0 -25 4 -30 25 -30
20 0 25 -5 25 -25 0 -20 5 -25 25 -25 20 0 25 -5 25 -25 0 -21 5 -25 30 -25
27 0 30 -3 30 -30 0 -25 4 -30 25 -30 20 0 25 -5 25 -25 0 -20 5 -25 25 -25
24 0 25 -3 25 -55 0 -54 0 -55 30 -55 29 0 30 -1 30 -50 0 -47 2 -50 25 -50
25 0 25 -1 25 -80 0 -79 0 -80 25 -80 14 0 25 5 25 10 0 6 -7 10 -15 10 -12 0
-15 16 -15 80 0 79 0 80 -25 80 -23 0 -25 3 -25 50 0 49 -1 50 -30 50 -30 0
-30 1 -30 55 0 52 -1 55 -25 55 -20 0 -25 5 -25 25 0 20 -5 25 -25 25 -21 0
-25 5 -25 30 0 27 -3 30 -30 30 -25 0 -30 4 -30 25 0 20 -5 25 -25 25 -20 0
-25 5 -25 25 0 20 -5 25 -25 25 -21 0 -25 5 -25 30 0 27 -3 30 -30 30 -25 0
-30 4 -30 25 0 20 -5 25 -25 25 -20 0 -25 5 -25 25 0 24 -3 25 -55 25 -54 0
-55 0 -55 30 0 29 -1 30 -50 30 -47 0 -50 2 -50 25 0 25 -1 25 -80 25 -64 0
-80 3 -80 15 0 8 -4 15 -10 15 -5 0 -10 -11 -10 -25z"/>
<path d="M863 2303 c9 -2 25 -2 35 0 9 3 1 5 -18 5 -19 0 -27 -2 -17 -5z"/>
<path d="M750 2281 c0 -5 -3 -16 -6 -25 -5 -14 8 -16 105 -16 l111 0 0 -28 c0
-23 4 -28 26 -27 l27 0 0 -105 0 -105 -27 0 c-22 1 -26 -4 -26 -27 l0 -28
-110 0 c-60 0 -110 3 -110 8 0 4 4 13 9 20 7 11 11 11 24 -2 21 -21 27 -20 27
3 0 14 -8 21 -27 23 -24 3 -28 7 -25 32 4 27 2 29 -27 23 l-31 -6 0 59 0 60
31 -7 c29 -6 31 -4 27 23 -3 25 1 29 25 32 19 2 27 9 27 23 0 18 -2 18 -24 4
-22 -15 -24 -14 -29 5 -3 14 -13 20 -31 20 -21 0 -26 -5 -26 -25 0 -20 -5 -25
-25 -25 l-25 0 0 -110 c0 -83 3 -110 13 -109 26 3 36 -2 42 -22 4 -13 10 -17
14 -11 4 6 13 -2 23 -19 l17 -29 -207 2 -207 2 182 5 c100 4 185 9 189 14 4 4
-81 7 -189 7 -190 0 -197 -1 -197 -20 0 -14 -7 -20 -22 -20 -15 0 -19 -3 -11
-8 9 -5 12 -59 12 -192 0 -133 -3 -187 -12 -192 -8 -5 -4 -8 11 -8 15 0 22 -6
22 -20 0 -19 7 -20 167 -20 91 0 163 3 159 8 -4 4 -76 9 -159 13 -97 3 -31 5
183 5 184 0 260 -2 168 -3 l-168 -3 0 -352 c0 -193 -2 -349 -5 -347 -2 3 -5
152 -5 332 -1 188 -5 329 -11 332 -5 4 -9 -131 -9 -339 0 -303 2 -345 15 -340
10 4 15 0 15 -15 0 -23 -15 -29 -23 -8 -3 6 -6 1 -6 -12 -1 -16 3 -22 14 -17
19 7 46 -20 39 -39 -5 -11 1 -15 17 -14 13 0 18 3 12 6 -21 8 -15 23 8 23 15
0 19 -5 15 -15 -5 -13 16 -15 150 -15 l155 0 -3 -152 c-2 -116 -6 -152 -15
-150 -7 1 -13 -2 -13 -8 0 -17 37 -11 44 7 4 9 6 90 5 179 -1 89 2 167 5 173
21 33 26 -4 26 -179 0 -145 -3 -190 -12 -190 -10 0 -10 -2 0 -9 7 -4 14 -18
15 -29 1 -12 5 -22 9 -22 4 0 8 -11 8 -25 0 -14 5 -25 10 -25 6 0 10 8 8 17
-3 16 11 18 139 19 135 1 142 0 148 -20 7 -20 8 -20 12 4 3 14 9 29 14 34 13
14 12 816 -1 816 -5 0 -10 9 -10 20 0 19 -7 20 -160 20 l-160 0 0 160 0 160
350 0 c306 0 349 2 344 15 -4 11 0 15 16 15 16 0 20 -4 16 -15 -3 -8 -2 -15 3
-15 5 0 12 11 15 25 4 15 16 27 31 31 14 3 25 10 25 15 0 5 -7 6 -15 3 -11 -4
-15 0 -15 16 0 16 4 20 15 16 13 -5 15 14 15 134 0 120 -2 139 -15 134 -10 -4
-15 0 -15 15 0 23 15 29 23 9 4 -8 6 -7 6 3 1 10 -9 19 -24 23 -15 4 -27 16
-31 31 -3 14 -10 25 -15 25 -5 0 -6 -7 -3 -15 4 -11 0 -15 -16 -15 -16 0 -20
4 -16 15 5 13 -38 15 -344 15 -343 0 -350 0 -350 -20 0 -11 -4 -20 -10 -20 -6
0 -10 -73 -10 -200 0 -127 4 -200 10 -200 6 0 10 -9 10 -20 0 -21 -33 -29 -45
-10 -3 6 -21 11 -38 11 l-32 2 29 4 c54 8 56 16 56 213 0 197 -3 210 -55 210
-34 0 -28 24 7 28 20 2 26 9 26 28 0 14 -6 24 -15 24 -17 0 -14 32 5 38 6 2
12 -3 12 -12 0 -9 4 -16 8 -16 5 0 8 10 8 23 -1 15 4 22 17 21 14 -2 17 7 17
57 0 48 -3 57 -15 53 -10 -4 -15 0 -15 15 0 23 15 29 23 9 3 -7 6 -3 6 9 1 17
-3 21 -15 16 -20 -7 -45 22 -37 43 4 10 -3 14 -21 14 -18 0 -29 -7 -34 -21 -8
-21 -9 -21 -27 -3 -18 19 -18 19 9 22 20 3 26 8 22 19 -3 8 -6 19 -6 24 0 5
-11 9 -25 9 -16 0 -25 -6 -25 -15 0 -21 -38 -19 -43 3 -4 16 -5 16 -6 0 -1
-21 -56 -26 -64 -5 -4 10 -6 10 -6 0 -1 -18 -41 -16 -41 2 0 9 -9 15 -25 15
-14 0 -25 -4 -25 -9z m30 -11 c0 -5 -5 -10 -11 -10 -5 0 -7 5 -4 10 3 6 8 10
11 10 2 0 4 -4 4 -10z m215 0 c3 -5 -1 -10 -10 -10 -9 0 -13 5 -10 10 3 6 8
10 10 10 2 0 7 -4 10 -10z m-265 -84 c0 -2 -3 -11 -6 -20 -9 -23 -34 -20 -34
4 0 13 7 20 20 20 11 0 20 -2 20 -4z m340 -17 c0 -24 -23 -21 -28 4 -2 10 3
17 12 17 10 0 16 -9 16 -21z m-401 -66 l-2 -68 -7 60 c-7 55 -6 75 6 75 2 0 3
-30 3 -67z m401 -23 c0 -33 -3 -60 -7 -60 -20 1 -28 19 -28 60 0 41 8 59 28
60 4 0 7 -27 7 -60z m27 -22 c-2 -13 -4 -3 -4 22 0 25 2 35 4 23 2 -13 2 -33
0 -45z m-427 -49 c0 -11 -4 -17 -10 -14 -5 3 -10 13 -10 21 0 8 5 14 10 14 6
0 10 -9 10 -21z m49 -12 c12 -15 5 -27 -16 -27 -7 0 -13 9 -13 20 0 23 13 26
29 7z m299 -64 c2 -8 -6 -13 -22 -13 -19 0 -24 4 -19 15 6 18 34 16 41 -2z
m-195 -40 c-13 -2 -33 -2 -45 0 -13 2 -3 4 22 4 25 0 35 -2 23 -4z m75 0 c-10
-2 -26 -2 -35 0 -10 3 -2 5 17 5 19 0 27 -2 18 -5z m80 0 c-10 -2 -28 -2 -40
0 -13 2 -5 4 17 4 22 1 32 -1 23 -4z m660 0 c-93 -2 -243 -2 -335 0 -93 1 -17
3 167 3 184 0 260 -2 168 -3z m-625 -183 l-3 -161 -332 -2 c-214 -1 -333 -6
-333 -12 0 -6 117 -10 330 -10 312 0 344 -3 345 -27 0 -5 -157 -8 -350 -8
l-350 0 0 190 0 190 348 0 347 0 -2 -160z m57 -30 c0 -183 -1 -190 -20 -190
-23 0 -26 19 -7 39 7 8 8 15 2 17 -11 4 -11 256 -1 273 4 5 2 12 -4 16 -18 11
-11 35 10 35 19 0 20 -7 20 -190z m800 0 l0 -190 -375 0 -375 0 0 190 0 190
375 0 375 0 0 -190z m31 0 c0 -62 -2 -114 -5 -118 -3 -3 -6 50 -6 118 0 68 3
121 6 118 3 -4 5 -56 5 -118z m-263 -217 c-93 -2 -243 -2 -335 0 -93 1 -17 3
167 3 184 0 260 -2 168 -3z m-568 -398 c0 -368 0 -375 -20 -375 -22 0 -26 20
-8 38 8 8 9 15 3 20 -6 4 -10 130 -10 337 0 213 -4 330 -10 330 -6 0 -10 -128
-10 -363 l0 -362 -162 0 -163 0 0 375 0 375 190 0 190 0 0 -375z m31 226 c-1
-67 1 -136 4 -155 l7 -33 150 -1 c82 0 152 -3 156 -6 3 -3 -67 -6 -156 -6
l-162 0 -3 -167 c-1 -93 -4 -18 -5 166 -1 184 1 332 4 328 3 -3 6 -60 5 -126z
m339 -596 l0 -375 -160 0 -160 0 0 375 0 375 160 0 160 0 0 -375z m-343 23
c-3 -7 -5 -2 -5 12 0 14 2 19 5 13 2 -7 2 -19 0 -25z m-52 -56 c-6 -4 -73 -5
-150 -2 l-140 6 150 2 c82 1 145 -2 140 -6z m395 -379 c0 -16 -14 -18 -160
-18 -146 0 -160 2 -160 18 0 15 14 17 160 17 146 0 160 -2 160 -17z"/>
<path d="M335 1830 c-3 -5 0 -12 7 -15 26 -10 653 0 653 10 0 14 -651 19 -660
5z"/>
<path d="M348 1753 c8 -3 12 -28 12 -73 0 -45 -4 -70 -12 -73 -8 -3 -6 -6 5
-6 15 -1 17 9 17 79 0 70 -2 80 -17 79 -11 0 -13 -3 -5 -6z"/>
<path d="M1816 1842 c-3 -5 -5 -73 -4 -151 l0 -142 -333 -2 c-215 -1 -334 -6
-334 -12 0 -6 117 -10 330 -10 209 0 333 -4 337 -10 5 -6 14 -3 25 9 10 10 14
20 8 22 -11 4 -12 254 -1 272 3 5 -1 15 -8 21 -8 7 -17 8 -20 3z"/>
<path d="M1140 1825 c0 -13 39 -15 328 -13 209 2 327 7 327 13 0 6 -118 11
-327 13 -289 2 -328 0 -328 -13z"/>
<path d="M1146 1752 c7 -4 14 -18 17 -32 4 -21 4 -20 6 8 1 24 -3 32 -16 32
-12 0 -14 -3 -7 -8z"/>
<path d="M1160 1642 c0 -10 -5 -23 -12 -30 -9 -9 -8 -12 5 -12 12 0 17 8 17
30 0 17 -2 30 -5 30 -3 0 -5 -8 -5 -18z"/>
<path d="M723 1095 c1 -206 6 -326 12 -328 6 -1 11 113 13 326 2 286 0 327
-13 327 -13 0 -15 -41 -12 -325z"/>
<path d="M782 1398 c-9 -4 34 -7 97 -7 63 -1 112 2 108 5 -8 8 -184 10 -205 2z"/>
<path d="M710 741 c0 -13 26 -32 33 -25 4 4 61 7 127 8 74 1 119 5 117 11 -3
12 -277 18 -277 6z"/>
<path d="M1140 1025 c0 -13 21 -15 140 -15 114 0 140 3 140 14 0 12 -27 14
-140 15 -119 1 -140 -1 -140 -14z"/>
<path d="M1148 948 c17 -17 17 -489 0 -506 -9 -9 -8 -12 5 -12 16 0 17 22 17
265 0 243 -1 265 -17 265 -13 0 -14 -3 -5 -12z"/>
<path d="M1390 650 c0 -280 5 -343 24 -295 3 8 1 15 -4 15 -6 0 -10 14 -10 30
0 17 3 30 8 30 4 0 7 119 7 265 0 205 -3 265 -12 265 -10 0 -13 -69 -13 -310z"/>
<path d="M1140 366 c0 -2 7 -9 15 -16 12 -10 15 -10 15 4 0 9 -7 16 -15 16 -8
0 -15 -2 -15 -4z"/>
<path d="M827 2213 c-13 -12 -7 -23 13 -23 13 0 18 5 14 15 -7 16 -17 19 -27
8z"/>
<path d="M907 2205 c-5 -10 0 -15 14 -15 12 0 19 5 17 12 -6 18 -25 20 -31 3z"/>
<path d="M727 2113 c-9 -16 -1 -67 11 -71 8 -2 12 9 12 37 0 37 -12 53 -23 34z"/>
<path d="M960 2015 c0 -9 5 -15 11 -13 6 2 11 8 11 13 0 5 -5 11 -11 13 -6 2
-11 -4 -11 -13z"/>
<path d="M1105 1990 c-3 -5 -1 -10 4 -10 6 0 11 5 11 10 0 6 -2 10 -4 10 -3 0
-8 -4 -11 -10z"/>
<path d="M820 1955 c7 -8 16 -15 20 -15 4 0 10 7 14 15 4 11 -2 15 -21 15 -21
0 -24 -2 -13 -15z"/>
<path d="M906 1955 c4 -8 10 -15 14 -15 4 0 13 7 20 15 11 13 8 15 -13 15 -19
0 -25 -4 -21 -15z"/>
<path d="M251 1838 c-1 -20 -6 -28 -20 -28 -15 0 -17 -5 -13 -27 l6 -28 6 25
c11 46 18 6 18 -100 0 -106 -7 -146 -18 -100 l-6 25 -6 -27 c-4 -23 -2 -28 13
-28 14 0 19 -8 20 -27 0 -25 1 -26 9 -8 11 25 11 279 0 320 l-8 30 -1 -27z"/>
<path d="M0 890 c0 -5 7 -10 15 -10 12 0 15 -16 15 -80 0 -79 0 -80 25 -80 23
0 25 -3 25 -50 0 -49 1 -50 30 -50 30 0 30 -1 30 -55 0 -52 1 -55 25 -55 20 0
25 -5 25 -25 0 -20 5 -25 25 -25 21 0 25 -5 25 -30 0 -27 3 -30 30 -30 25 0
30 -4 30 -25 0 -20 5 -25 25 -25 20 0 25 -5 25 -25 0 -20 5 -25 25 -25 21 0
25 -5 25 -30 0 -27 3 -30 30 -30 25 0 30 -4 30 -25 0 -20 5 -25 25 -25 20 0
25 -5 25 -25 0 -24 3 -25 55 -25 54 0 55 0 55 -30 0 -29 1 -30 50 -30 47 0 50
-2 50 -25 0 -25 1 -25 80 -25 64 0 80 -3 80 -15 0 -8 5 -15 10 -15 6 0 10 11
10 25 0 25 -1 25 -80 25 -79 0 -80 0 -80 25 0 23 -3 25 -50 25 -49 0 -50 1
-50 30 0 30 -1 30 -55 30 -52 0 -55 1 -55 25 0 20 -5 25 -25 25 -20 0 -25 5
-25 25 0 21 -5 25 -30 25 -27 0 -30 3 -30 30 0 25 -4 30 -25 30 -20 0 -25 5
-25 25 0 20 -5 25 -25 25 -20 0 -25 5 -25 25 0 21 -5 25 -30 25 -27 0 -30 3
-30 30 0 25 -4 30 -25 30 -20 0 -25 5 -25 25 0 20 -5 25 -25 25 -24 0 -25 3
-25 55 0 54 0 55 -30 55 -29 0 -30 1 -30 50 0 47 -2 50 -25 50 -25 0 -25 1
-25 80 0 79 0 80 -25 80 -14 0 -25 -4 -25 -10z"/>
<path d="M2510 820 c0 -79 0 -80 -25 -80 -23 0 -25 -3 -25 -50 0 -49 -1 -50
-30 -50 -30 0 -30 -1 -30 -55 0 -52 -1 -55 -25 -55 -20 0 -25 -5 -25 -25 0
-20 -5 -25 -25 -25 -21 0 -25 -5 -25 -30 0 -27 -3 -30 -30 -30 -25 0 -30 -4
-30 -25 0 -20 -5 -25 -25 -25 -20 0 -25 -5 -25 -25 0 -20 -5 -25 -25 -25 -21
0 -25 -5 -25 -30 0 -27 -3 -30 -30 -30 -25 0 -30 -4 -30 -25 0 -20 -5 -25 -25
-25 -20 0 -25 -5 -25 -25 0 -24 -3 -25 -55 -25 -54 0 -55 0 -55 -30 0 -29 -1
-30 -50 -30 -47 0 -50 -2 -50 -25 0 -25 -1 -25 -80 -25 -79 0 -80 0 -80 -25 0
-14 5 -25 10 -25 6 0 10 7 10 15 0 12 16 15 80 15 79 0 80 0 80 25 0 23 3 25
50 25 49 0 50 1 50 30 0 30 1 30 55 30 52 0 55 1 55 25 0 20 5 25 25 25 20 0
25 5 25 25 0 21 5 25 30 25 27 0 30 3 30 30 0 25 4 30 25 30 20 0 25 5 25 25
0 20 5 25 25 25 20 0 25 5 25 25 0 21 5 25 30 25 27 0 30 3 30 30 0 25 4 30
25 30 20 0 25 5 25 25 0 20 5 25 25 25 24 0 25 3 25 55 0 54 0 55 30 55 29 0
30 1 30 50 0 47 2 50 25 50 25 0 25 1 25 80 0 64 3 80 15 80 8 0 15 5 15 10 0
6 -11 10 -25 10 -25 0 -25 -1 -25 -80z"/>
<path d="M1183 223 c9 -2 25 -2 35 0 9 3 1 5 -18 5 -19 0 -27 -2 -17 -5z"/>
<path d="M1343 223 c9 -2 23 -2 30 0 6 3 -1 5 -18 5 -16 0 -22 -2 -12 -5z"/>
</g>
</svg>
