<?xml version="1.0" standalone="no"?>
<!DOCTYPE svg PUBLIC "-//W3C//DTD SVG 20010904//EN"
 "http://www.w3.org/TR/2001/REC-SVG-20010904/DTD/svg10.dtd">
<svg version="1.0" xmlns="http://www.w3.org/2000/svg"
 width="100.000000pt" height="100.000000pt" viewBox="0 0 100.000000 100.000000"
 preserveAspectRatio="xMidYMid meet">
<metadata>
Created by potrace 1.16, written by Peter Selinger 2001-2019
</metadata>
<g transform="translate(0.000000,100.000000) scale(0.100000,-0.100000)"
fill="#000000" stroke="none">
<path d="M196 599 c-11 -10 -25 -19 -33 -19 -7 0 -13 -4 -13 -9 0 -5 -15 -15
-32 -22 -18 -7 -42 -21 -52 -31 -11 -10 -24 -18 -29 -18 -29 0 -47 -74 -22
-92 6 -5 5 -8 -2 -8 -7 0 -13 -4 -13 -10 0 -13 47 -13 55 0 4 6 71 8 183 6
382 -10 514 -11 518 -4 3 5 13 8 23 8 9 0 26 8 37 18 10 10 34 25 52 32 17 8
32 18 32 22 0 5 6 8 13 8 7 0 22 8 33 18 10 10 27 21 37 25 9 3 17 13 17 22 0
22 -33 19 -50 -5 -8 -11 -21 -20 -30 -20 -9 0 -22 -9 -30 -20 -8 -11 -24 -20
-35 -20 -11 0 -27 -9 -35 -20 -8 -11 -24 -20 -35 -20 -16 0 -17 -2 -5 -10 10
-6 -45 -10 -165 -10 l-180 0 0 90 0 90 283 0 c181 0 282 4 282 10 0 7 -137 10
-392 9 -375 0 -394 -1 -412 -20z m224 -89 l0 -90 -200 0 c-193 0 -200 1 -200
20 0 14 7 20 23 20 18 0 19 2 7 10 -12 8 -11 10 8 10 12 0 22 5 22 10 0 6 10
10 23 10 18 0 19 2 7 10 -12 8 -9 10 13 10 15 0 27 5 27 10 0 6 10 10 23 10
18 0 19 2 7 10 -12 8 -11 10 8 10 12 0 22 5 22 10 0 6 9 10 20 10 18 0 20 -7
20 -75 0 -43 4 -75 10 -75 6 0 10 33 10 79 0 75 -1 80 -22 84 -13 2 21 5 75 6
l97 1 0 -90z"/>
<path d="M328 583 c12 -2 30 -2 40 0 9 3 -1 5 -23 4 -22 0 -30 -2 -17 -4z"/>
<path d="M560 510 c0 -47 4 -80 10 -80 6 0 10 33 10 80 0 47 -4 80 -10 80 -6
0 -10 -33 -10 -80z"/>
<path d="M730 510 c0 -47 4 -80 10 -80 6 0 10 33 10 80 0 47 -4 80 -10 80 -6
0 -10 -33 -10 -80z"/>
<path d="M593 505 c0 -33 2 -45 4 -27 2 18 2 45 0 60 -2 15 -4 0 -4 -33z"/>
</g>
</svg>
