<?xml version="1.0" standalone="no"?>
<!DOCTYPE svg PUBLIC "-//W3C//DTD SVG 20010904//EN"
 "http://www.w3.org/TR/2001/REC-SVG-20010904/DTD/svg10.dtd">
<svg version="1.0" xmlns="http://www.w3.org/2000/svg"
 width="64.000000pt" height="64.000000pt" viewBox="0 0 64.000000 64.000000"
 preserveAspectRatio="xMidYMid meet">
<metadata>
Created by potrace 1.16, written by Peter Selinger 2001-2019
</metadata>
<g transform="translate(0.000000,64.000000) scale(0.100000,-0.100000)"
fill="#000000" stroke="none">
<path d="M35 498 c-3 -18 -5 -109 -3 -203 l3 -170 25 0 c16 1 120 66 283 180
211 146 257 182 255 199 -3 21 -8 21 -280 24 l-277 2 -6 -32z m545 8 c0 -3
-64 -49 -142 -102 -79 -54 -196 -135 -262 -181 -65 -46 -119 -82 -120 -81 0 2
0 85 2 186 l3 182 260 0 c142 0 259 -2 259 -4z"/>
</g>
</svg>
