<?xml version="1.0" standalone="no"?>
<!DOCTYPE svg PUBLIC "-//W3C//DTD SVG 20010904//EN"
 "http://www.w3.org/TR/2001/REC-SVG-20010904/DTD/svg10.dtd">
<svg version="1.0" xmlns="http://www.w3.org/2000/svg"
 width="100.000000pt" height="100.000000pt" viewBox="0 0 100.000000 100.000000"
 preserveAspectRatio="xMidYMid meet">
<metadata>
Created by potrace 1.16, written by Peter Selinger 2001-2019
</metadata>
<g transform="translate(0.000000,100.000000) scale(0.100000,-0.100000)"
fill="#000000" stroke="none">
<path d="M0 820 c0 -6 122 -10 345 -10 l345 0 0 -60 0 -60 90 0 90 0 0 -30 c0
-27 -3 -30 -30 -30 -26 0 -30 4 -30 26 0 14 -4 23 -10 19 -6 -3 -10 -19 -10
-36 0 -27 2 -29 40 -29 22 0 40 5 40 10 0 6 16 10 35 10 33 0 35 -2 35 -34 0
-19 -5 -38 -10 -41 -6 -3 -10 -22 -10 -41 0 -33 1 -34 40 -34 22 0 40 5 40 10
0 6 -13 10 -30 10 -27 0 -30 3 -30 30 0 27 3 30 30 30 17 0 30 5 30 10 0 6 -9
10 -20 10 -16 0 -20 7 -20 35 0 33 -2 35 -35 35 -32 0 -35 2 -35 30 l0 30 -90
0 -90 0 0 60 0 60 -355 0 c-230 0 -355 -4 -355 -10z"/>
<path d="M60 595 l0 -155 35 0 35 0 0 -65 0 -65 -35 0 c-32 0 -35 -2 -35 -30
0 -28 3 -30 35 -30 32 0 35 2 35 30 0 25 4 30 24 30 14 0 28 -4 31 -10 3 -5
28 -10 56 -10 27 0 49 -4 49 -10 0 -6 -27 -10 -60 -10 l-60 0 0 -34 c0 -19 -4
-36 -8 -38 -5 -1 2 -13 15 -26 12 -12 23 -18 23 -12 0 18 81 12 96 -8 12 -15
13 -14 14 11 0 23 4 27 30 27 27 0 30 -3 30 -30 l0 -30 -120 0 -120 0 0 30 0
30 -65 0 c-37 0 -65 -4 -65 -10 0 -5 25 -10 55 -10 54 0 55 0 55 -30 l0 -30
140 0 140 0 0 30 0 30 140 0 140 0 0 -30 0 -30 110 0 110 0 0 30 c0 30 1 30
55 30 30 0 55 5 55 10 0 6 -28 10 -65 10 l-65 0 0 -30 0 -30 -90 0 -90 0 0 30
0 30 -160 0 c-100 0 -160 4 -160 10 0 6 -9 10 -20 10 -11 0 -20 5 -20 10 0 6
7 10 15 10 8 0 15 5 15 10 0 6 -11 10 -25 10 -21 0 -25 5 -25 30 0 27 3 30 30
30 27 0 30 -3 30 -30 l0 -30 160 0 160 0 0 30 0 30 -65 0 -65 0 0 220 0 220
-250 0 -250 0 0 -155z m480 -85 l0 -220 65 0 c37 0 65 -4 65 -10 0 -6 -53 -10
-140 -10 l-140 0 0 30 c0 27 -3 30 -30 30 -28 0 -30 3 -30 35 l0 35 -80 0 -80
0 0 -35 c0 -19 -4 -35 -10 -35 -6 0 -10 28 -10 65 l0 65 -35 0 -35 0 0 135 0
135 230 0 230 0 0 -220z m-230 -165 l0 -35 -60 0 -60 0 0 35 0 35 60 0 60 0 0
-35z m-200 -65 c0 -5 -7 -10 -15 -10 -8 0 -15 5 -15 10 0 6 7 10 15 10 8 0 15
-4 15 -10z m140 -60 c0 -27 -3 -30 -30 -30 -27 0 -30 3 -30 30 0 27 3 30 30
30 27 0 30 -3 30 -30z m58 3 c-2 -17 -10 -29 -20 -31 -14 -3 -18 3 -18 27 0
25 4 31 21 31 16 0 20 -5 17 -27z"/>
<path d="M690 470 l0 -90 30 0 30 0 0 90 0 90 -30 0 -30 0 0 -90z m40 0 c0
-40 -4 -70 -10 -70 -6 0 -10 30 -10 70 0 40 4 70 10 70 6 0 10 -30 10 -70z"/>
<path d="M810 500 l0 -60 30 0 30 0 0 60 0 60 -30 0 -30 0 0 -60z m40 0 c0
-22 -4 -40 -10 -40 -5 0 -10 18 -10 40 0 22 5 40 10 40 6 0 10 -18 10 -40z"/>
<path d="M890 450 c0 -5 11 -10 25 -10 18 0 25 -5 25 -20 0 -16 -7 -20 -34
-20 -19 0 -37 6 -40 13 -5 10 -7 10 -12 0 -3 -7 -19 -13 -35 -13 -29 0 -29 -1
-29 -55 l0 -55 40 0 c33 0 40 -3 40 -20 0 -16 7 -20 35 -20 31 0 35 3 35 25 0
14 5 25 10 25 14 0 13 133 -2 148 -15 15 -58 16 -58 2z m50 -105 l0 -35 -65 0
-65 0 0 35 0 35 65 0 65 0 0 -35z m-20 -65 c0 -5 -7 -10 -15 -10 -8 0 -15 5
-15 10 0 6 7 10 15 10 8 0 15 -4 15 -10z"/>
<path d="M850 345 c0 -8 5 -15 10 -15 6 0 10 7 10 15 0 8 -4 15 -10 15 -5 0
-10 -7 -10 -15z"/>
<path d="M40 360 c0 -22 5 -40 10 -40 6 0 10 14 10 30 0 25 4 30 25 30 14 0
25 5 25 10 0 6 -16 10 -35 10 -34 0 -35 -1 -35 -40z"/>
<path d="M750 220 c0 -27 3 -30 30 -30 27 0 30 3 30 30 0 27 -3 30 -30 30 -27
0 -30 -3 -30 -30z m40 0 c0 -5 -4 -10 -10 -10 -5 0 -10 5 -10 10 0 6 5 10 10
10 6 0 10 -4 10 -10z"/>
</g>
</svg>
