<?xml version="1.0" standalone="no"?>
<!DOCTYPE svg PUBLIC "-//W3C//DTD SVG 20010904//EN"
 "http://www.w3.org/TR/2001/REC-SVG-20010904/DTD/svg10.dtd">
<svg version="1.0" xmlns="http://www.w3.org/2000/svg"
 width="180.000000pt" height="180.000000pt" viewBox="0 0 180.000000 180.000000"
 preserveAspectRatio="xMidYMid meet">
<metadata>
Created by potrace 1.16, written by Peter Selinger 2001-2019
</metadata>
<g transform="translate(0.000000,180.000000) scale(0.100000,-0.100000)"
fill="#000000" stroke="none">
<path d="M465 1053 c-11 -3 -104 -61 -207 -130 -173 -115 -188 -127 -188 -154
l0 -30 648 3 647 3 192 130 c171 116 193 133 193 158 l0 27 -632 -1 c-348 -1
-642 -4 -653 -6z m1265 -20 c0 -5 -87 -66 -193 -138 l-192 -130 -627 -3 c-389
-2 -628 1 -628 7 0 11 367 257 395 264 33 8 1245 8 1245 0z"/>
<path d="M775 1019 c-10 -25 -1 -239 10 -242 14 -3 19 233 6 246 -7 7 -12 5
-16 -4z"/>
</g>
</svg>
