<?xml version="1.0" standalone="no"?>
<!DOCTYPE svg PUBLIC "-//W3C//DTD SVG 20010904//EN"
 "http://www.w3.org/TR/2001/REC-SVG-20010904/DTD/svg10.dtd">
<svg version="1.0" xmlns="http://www.w3.org/2000/svg"
 width="100.000000pt" height="100.000000pt" viewBox="0 0 100.000000 100.000000"
 preserveAspectRatio="xMidYMid meet">
<metadata>
Created by potrace 1.16, written by Peter Selinger 2001-2019
</metadata>
<g transform="translate(0.000000,100.000000) scale(0.100000,-0.100000)"
fill="#000000" stroke="none">
<path d="M170 615 c0 -32 -2 -35 -30 -35 -27 0 -30 -3 -30 -30 0 -28 -3 -30
-35 -30 -32 0 -35 -2 -35 -30 0 -23 -4 -30 -20 -30 -11 0 -20 -4 -20 -10 0 -5
13 -10 30 -10 27 0 30 3 30 30 0 28 3 30 35 30 32 0 35 2 35 30 0 27 3 30 30
30 28 0 30 3 30 35 l0 35 60 0 60 0 0 -125 0 -125 -155 0 c-97 0 -155 -4 -155
-10 0 -6 62 -10 165 -10 l165 0 0 145 0 145 -80 0 -80 0 0 -35z"/>
<path d="M350 505 l0 -145 210 0 210 0 0 30 c0 27 3 30 30 30 27 0 30 3 30 30
0 27 3 30 30 30 27 0 30 3 30 30 0 28 3 30 35 30 l35 0 0 55 0 55 -305 0 -305
0 0 -145z m590 90 c0 -33 -2 -35 -35 -35 -32 0 -35 -2 -35 -30 0 -27 -3 -30
-30 -30 -27 0 -30 -3 -30 -30 0 -27 -3 -30 -30 -30 -27 0 -30 -3 -30 -30 l0
-30 -190 0 -190 0 0 125 0 125 285 0 285 0 0 -35z"/>
</g>
</svg>
