<?xml version="1.0" standalone="no"?>
<!DOCTYPE svg PUBLIC "-//W3C//DTD SVG 20010904//EN"
 "http://www.w3.org/TR/2001/REC-SVG-20010904/DTD/svg10.dtd">
<svg version="1.0" xmlns="http://www.w3.org/2000/svg"
 width="100.000000pt" height="100.000000pt" viewBox="0 0 100.000000 100.000000"
 preserveAspectRatio="xMidYMid meet">
<metadata>
Created by potrace 1.16, written by Peter Selinger 2001-2019
</metadata>
<g transform="translate(0.000000,100.000000) scale(0.100000,-0.100000)"
fill="#000000" stroke="none">
<path d="M263 655 c-7 -8 -13 -17 -13 -20 0 -12 -29 -35 -44 -35 -9 0 -16 -4
-16 -9 0 -5 -9 -11 -20 -14 -14 -3 -20 -14 -20 -31 0 -25 -2 -26 -61 -26 -39
0 -65 -5 -75 -14 -19 -20 -18 -26 6 -26 11 0 20 5 20 10 0 6 18 10 40 10 33 0
40 -3 40 -20 0 -11 7 -20 15 -20 8 0 15 9 15 20 0 15 7 20 26 20 29 0 54 -21
54 -44 0 -9 5 -16 10 -16 6 0 10 14 10 30 0 29 1 30 50 30 28 0 50 -4 50 -10
0 -5 16 -10 35 -10 19 0 35 5 35 10 0 6 33 10 80 10 73 0 80 -2 80 -20 0 -11
-4 -20 -10 -20 -5 0 -10 -13 -10 -30 0 -16 5 -30 10 -30 6 0 10 5 10 10 0 6 9
10 20 10 11 0 20 5 20 10 0 6 7 10 15 10 8 0 15 7 15 16 0 23 25 44 54 44 19
0 26 -5 26 -20 0 -11 4 -20 8 -20 4 0 14 9 22 20 11 16 26 20 66 20 32 0 55
-5 58 -12 5 -10 7 -10 12 0 3 6 19 12 35 12 16 0 29 5 29 10 0 6 9 10 20 10
11 0 20 5 20 10 0 13 -57 13 -62 0 -2 -7 -45 -10 -118 -7 -75 2 -107 6 -92 11
12 5 22 11 22 15 0 3 13 12 29 19 21 9 31 22 35 48 4 19 4 39 1 44 -4 6 -109
10 -273 10 -218 -1 -269 -3 -279 -15z m547 -15 c0 -5 -4 -10 -10 -10 -5 0 -10
-7 -10 -15 0 -8 -8 -15 -18 -15 -10 0 -24 -9 -32 -20 -8 -11 -21 -20 -30 -20
-9 0 -22 -9 -30 -20 -13 -18 -26 -20 -120 -20 l-105 0 3 60 c3 39 0 60 -7 60
-7 0 -11 -23 -11 -60 l0 -60 -135 0 c-88 0 -135 4 -135 11 0 5 5 7 10 4 6 -3
10 1 10 9 0 10 9 16 23 16 18 0 19 2 7 10 -12 8 -11 10 8 10 12 0 22 5 22 10
0 6 9 10 20 10 11 0 20 5 20 11 0 5 -4 7 -10 4 -5 -3 -10 -1 -10 4 0 6 15 11
33 12 30 1 31 1 7 9 -14 4 90 8 238 9 168 1 262 -3 262 -9z m-180 -170 c0 -5
-7 -10 -15 -10 -8 0 -15 5 -15 10 0 6 7 10 15 10 8 0 15 -4 15 -10z"/>
<path d="M520 585 c0 -30 5 -55 10 -55 6 0 10 25 10 55 0 30 -4 55 -10 55 -5
0 -10 -25 -10 -55z"/>
<path d="M320 610 c-17 -5 -19 -8 -7 -9 12 -1 17 -9 17 -31 0 -16 5 -30 10
-30 6 0 10 18 10 40 0 22 -1 40 -2 39 -2 -1 -14 -5 -28 -9z"/>
<path d="M423 585 c0 -22 2 -30 4 -17 2 12 2 30 0 40 -3 9 -5 -1 -4 -23z"/>
<path d="M633 613 c-15 -6 -17 -63 -3 -63 6 0 13 6 16 14 9 23 0 53 -13 49z"/>
<path d="M378 603 c7 -3 16 -2 19 1 4 3 -2 6 -13 5 -11 0 -14 -3 -6 -6z"/>
<path d="M980 420 c0 -22 -4 -40 -10 -40 -5 0 -10 -7 -10 -15 0 -13 -21 -15
-125 -15 -104 0 -125 2 -125 15 0 8 -9 15 -20 15 -11 0 -20 -7 -20 -15 0 -13
-26 -15 -170 -15 -144 0 -170 2 -170 15 0 8 -4 15 -10 15 -5 0 -10 -7 -10 -15
0 -11 -12 -15 -50 -15 -38 0 -50 4 -50 15 0 8 -9 15 -20 15 -11 0 -20 -7 -20
-15 0 -12 -16 -15 -85 -15 -50 0 -85 -4 -85 -10 0 -7 170 -10 490 -10 429 0
490 2 490 15 0 8 5 15 10 15 6 0 10 23 10 50 0 28 -4 50 -10 50 -5 0 -10 -18
-10 -40z"/>
<path d="M40 430 c0 -5 18 -10 40 -10 22 0 40 5 40 10 0 6 -18 10 -40 10 -22
0 -40 -4 -40 -10z"/>
</g>
</svg>
