<?xml version="1.0" standalone="no"?>
<!DOCTYPE svg PUBLIC "-//W3C//DTD SVG 20010904//EN"
 "http://www.w3.org/TR/2001/REC-SVG-20010904/DTD/svg10.dtd">
<svg version="1.0" xmlns="http://www.w3.org/2000/svg"
 width="143.000000pt" height="152.000000pt" viewBox="0 0 143.000000 152.000000"
 preserveAspectRatio="xMidYMid meet">
<metadata>
Created by potrace 1.16, written by Peter Selinger 2001-2019
</metadata>
<g transform="translate(0.000000,152.000000) scale(0.100000,-0.100000)"
fill="#000000" stroke="none">
<path d="M671 1255 c-68 -96 -127 -175 -133 -175 -6 0 -92 25 -191 56 -124 38
-192 54 -220 52 -41 -3 -42 -4 -45 -43 -6 -73 17 -123 125 -267 l103 -139
-110 -158 c-96 -138 -110 -164 -110 -199 0 -37 3 -41 40 -56 66 -26 116 -20
273 34 80 28 148 50 151 50 2 0 60 -73 127 -162 68 -90 127 -166 133 -170 6
-4 36 -8 67 -8 63 0 89 18 89 63 0 23 4 27 28 27 36 0 52 17 52 55 0 38 -16
55 -52 55 l-28 0 -2 110 c-1 61 -2 124 -2 142 -1 36 -22 26 239 115 72 24 136
51 143 60 13 19 16 101 4 121 -5 7 -94 39 -198 71 l-189 58 -6 89 c-4 49 -7
128 -8 176 -1 70 -6 101 -27 153 l-26 65 -53 0 -52 0 -122 -175z m232 93 c21
-55 25 -85 31 -235 4 -95 4 -173 -1 -173 -27 1 -31 23 -35 210 -3 113 -10 206
-16 220 -9 19 -11 -27 -10 -203 1 -137 6 -231 12 -234 5 -4 26 -8 45 -9 51 -4
393 -111 403 -126 12 -19 10 -62 -4 -81 -7 -9 -71 -36 -143 -60 -71 -25 -155
-53 -185 -64 l-55 -19 3 -224 c2 -197 0 -225 -14 -242 -17 -18 -78 -25 -100
-10 -6 4 -66 81 -134 172 -68 91 -125 167 -127 169 -2 3 -79 -21 -171 -52 -92
-32 -177 -57 -189 -57 -43 0 -103 31 -103 52 0 21 230 361 239 353 2 -3 12 2
22 11 17 15 10 26 -117 196 -75 99 -138 177 -141 174 -8 -8 50 -97 146 -225
88 -117 111 -154 88 -145 -24 10 -218 283 -233 327 -20 58 -16 91 12 95 12 2
110 -24 219 -58 109 -33 204 -59 210 -56 7 2 67 83 135 180 116 167 124 176
155 176 31 0 34 -4 58 -62z m122 -1133 c0 -26 -4 -30 -30 -33 -29 -3 -31 -1
-31 33 0 34 2 36 31 33 26 -3 30 -7 30 -33z"/>
<path d="M563 960 c-35 -14 -28 -30 10 -24 49 9 59 13 52 24 -7 12 -32 12 -62
0z"/>
<path d="M787 903 c-2 -5 11 -23 29 -41 30 -29 34 -30 34 -12 0 32 -51 75 -63
53z"/>
<path d="M543 880 c-31 -13 -29 -27 5 -33 15 -3 39 -9 55 -13 20 -5 27 -3 27
9 0 30 -51 51 -87 37z"/>
<path d="M733 823 c-22 -8 -14 -33 10 -33 13 0 32 -7 43 -15 26 -20 34 -19 34
4 0 34 -51 59 -87 44z"/>
<path d="M1309 767 c-9 -7 -109 -43 -223 -82 l-207 -70 3 -235 c3 -211 1 -235
-13 -235 -10 0 -75 77 -154 183 -104 137 -142 181 -154 177 -9 -4 -101 -36
-206 -72 -104 -36 -194 -70 -200 -74 -26 -24 66 -3 226 52 118 41 182 58 192
53 9 -5 72 -85 142 -177 121 -161 127 -168 158 -165 l32 3 3 235 2 235 200 68
c109 38 204 75 210 83 17 19 8 35 -11 21z"/>
<path d="M600 746 c0 -9 9 -20 19 -26 25 -13 81 -13 81 0 0 6 -9 10 -20 10
-12 0 -34 7 -50 15 -26 14 -30 14 -30 1z"/>
<path d="M483 744 c-18 -8 48 -115 86 -141 45 -30 92 -29 163 4 62 30 63 30
48 53 -8 13 -11 13 -22 -2 -18 -23 -84 -36 -135 -26 -29 6 -52 20 -77 48 -20
22 -36 47 -36 55 0 15 -6 17 -27 9z"/>
</g>
</svg>
