<?xml version="1.0" standalone="no"?>
<!DOCTYPE svg PUBLIC "-//W3C//DTD SVG 20010904//EN"
 "http://www.w3.org/TR/2001/REC-SVG-20010904/DTD/svg10.dtd">
<svg version="1.0" xmlns="http://www.w3.org/2000/svg"
 width="192.000000pt" height="192.000000pt" viewBox="0 0 192.000000 192.000000"
 preserveAspectRatio="xMidYMid meet">
<metadata>
Created by potrace 1.16, written by Peter Selinger 2001-2019
</metadata>
<g transform="translate(0.000000,192.000000) scale(0.100000,-0.100000)"
fill="#000000" stroke="none">
<path d="M1143 1778 c-11 -13 -58 -77 -103 -143 -194 -281 -198 -285 -228
-275 -53 17 -188 58 -262 80 -41 12 -102 31 -134 41 -68 22 -117 24 -134 7 -7
-7 -12 -27 -12 -46 0 -30 10 -54 67 -164 8 -16 19 -28 24 -28 5 0 9 -7 9 -15
0 -9 7 -18 15 -21 8 -4 15 -15 15 -25 0 -10 7 -19 15 -19 8 0 15 -6 15 -13 0
-7 14 -23 30 -35 19 -15 30 -31 30 -47 0 -16 6 -25 15 -25 8 0 15 -9 15 -20 0
-11 7 -20 15 -20 8 0 15 -9 15 -19 0 -11 4 -21 10 -23 5 -1 -17 -41 -50 -88
-187 -268 -220 -320 -226 -359 l-6 -40 46 -12 c25 -6 46 -16 46 -22 0 -12 100
-3 126 12 11 6 47 17 82 26 35 8 70 22 78 30 9 8 29 15 46 15 17 0 39 6 47 14
9 8 38 18 65 24 52 11 65 6 79 -30 3 -10 11 -18 17 -18 5 0 10 -7 10 -15 0 -7
6 -18 13 -22 13 -9 30 -33 50 -73 6 -14 32 -45 56 -69 24 -24 50 -59 58 -79
16 -38 36 -62 52 -62 6 0 11 -9 11 -20 0 -13 7 -20 19 -20 11 0 23 -5 26 -10
12 -19 74 -11 87 10 7 11 18 20 25 20 8 0 13 14 13 39 0 51 -18 63 -22 15 -4
-46 -43 -80 -81 -70 -35 8 -32 5 -149 161 -28 39 -57 75 -63 82 -5 7 -41 54
-79 106 l-69 95 -215 -74 c-218 -75 -245 -82 -272 -64 -11 8 -9 9 11 5 14 -4
52 2 85 13 32 10 79 25 104 32 52 16 73 30 44 30 -14 1 -11 4 12 14 17 7 41
17 55 21 23 7 23 7 4 -9 -18 -14 -19 -15 -2 -16 10 0 32 7 49 16 17 9 53 23
82 31 50 15 51 15 66 -8 35 -53 189 -260 201 -269 3 -3 18 -23 32 -45 50 -80
81 -108 116 -108 17 0 36 4 42 10 6 6 11 100 13 237 2 125 6 229 10 233 3 3 6
-62 6 -146 0 -99 4 -150 10 -146 6 4 10 68 10 161 0 96 -4 154 -10 154 -5 0
-10 14 -10 30 0 23 5 30 19 30 10 0 24 6 30 14 7 8 31 18 54 21 23 4 60 15 82
25 22 10 57 21 78 25 20 3 37 10 37 14 0 9 69 34 128 46 25 5 36 14 44 36 5
16 14 29 19 29 5 0 9 18 9 39 0 71 14 64 -402 187 -68 20 -128 38 -134 39 -12
4 -31 360 -21 386 3 8 6 -26 8 -76 l2 -90 6 70 c4 39 3 86 -1 105 -11 54 -18
97 -12 75 4 -11 11 -26 18 -34 7 -9 13 -88 16 -220 l5 -206 9 140 c9 150 3
298 -14 303 -5 2 -10 14 -10 27 0 12 -7 28 -15 35 -8 7 -15 23 -15 35 0 41
-74 49 -107 13z m70 -4 c12 -4 15 -51 16 -287 1 -155 6 -285 10 -290 4 -4 21
-9 38 -11 16 -2 74 -18 129 -34 54 -17 155 -47 224 -68 128 -38 160 -58 160
-98 0 -13 -3 -17 -8 -9 -5 8 -59 -7 -187 -52 -99 -35 -219 -76 -268 -92 l-87
-28 2 -285 c3 -283 3 -285 -18 -288 -17 -2 -52 39 -185 217 -90 121 -169 220
-174 221 -6 0 -127 -41 -270 -90 -143 -50 -267 -88 -276 -85 -12 4 -15 12 -11
28 8 32 262 402 300 438 12 11 22 22 22 25 0 10 -323 434 -331 434 -15 0 -10
37 6 50 16 13 11 14 177 -36 27 -8 69 -20 95 -28 27 -8 100 -30 163 -49 63
-20 115 -35 116 -34 1 1 66 94 144 207 180 258 179 257 213 244z m-797 -548
c32 -43 68 -90 78 -105 11 -14 36 -48 56 -76 41 -56 53 -75 47 -75 -8 0 -254
334 -271 367 -24 48 -19 54 7 8 13 -22 50 -75 83 -119z m1364 -285 c0 -14 -22
-28 -60 -39 -19 -6 -114 -38 -210 -72 -96 -34 -183 -64 -192 -67 -14 -4 -18
-16 -18 -50 0 -26 -4 -42 -10 -38 -6 4 -11 -66 -13 -192 -2 -198 -2 -198 -5
55 -1 148 2 252 7 252 5 0 18 3 28 6 15 5 15 4 3 -5 -31 -21 2 -24 45 -3 25
12 53 22 63 23 28 1 100 37 77 39 -15 0 -11 5 14 15 18 8 38 15 45 14 6 0 0
-5 -13 -10 -38 -15 -17 -22 26 -9 48 16 63 29 26 23 -20 -3 -24 -2 -13 5 26
17 63 25 56 13 -9 -14 4 -14 24 -1 13 9 13 10 0 10 -8 1 -4 6 10 11 16 7 26 7
28 0 2 -5 10 -8 18 -5 50 15 49 15 34 24 -12 8 -10 10 8 10 12 0 22 -4 22 -9z
m-410 -131 c-8 -5 -22 -9 -30 -9 -10 0 -8 3 5 9 27 12 43 12 25 0z m-605 -210
c-3 -5 -16 -10 -28 -9 -21 0 -21 1 -2 9 28 12 37 12 30 0z m-265 -90 c-8 -5
-22 -9 -30 -9 -10 0 -8 3 5 9 27 12 43 12 25 0z m778 -306 c-3 -2 -18 -6 -34
-8 -16 -2 -22 -1 -14 1 26 9 40 25 41 47 2 14 3 12 6 -7 3 -16 3 -31 1 -33z"/>
<path d="M848 1224 c-31 -16 -39 -41 -10 -29 9 4 34 9 55 12 39 6 48 17 21 27
-23 9 -36 7 -66 -10z"/>
<path d="M1124 1159 c-4 -7 -1 -15 7 -20 27 -16 35 -24 52 -49 l17 -24 0 24
c-1 29 -16 52 -47 68 -16 9 -24 9 -29 1z"/>
<path d="M822 1124 c-31 -22 -27 -34 11 -34 18 0 42 -7 54 -15 19 -13 22 -13
34 1 11 14 9 20 -14 40 -33 28 -54 30 -85 8z"/>
<path d="M1068 1063 c-26 -6 -23 -43 2 -43 12 0 34 -7 51 -15 16 -9 34 -13 39
-10 17 10 -12 54 -43 65 -16 5 -30 9 -31 9 -1 -1 -9 -3 -18 -6z"/>
<path d="M890 972 c0 -5 10 -18 23 -30 23 -22 60 -28 91 -16 25 9 8 24 -27 24
-18 0 -41 7 -51 15 -22 17 -36 19 -36 7z"/>
<path d="M750 960 c-9 -6 -11 -13 -5 -17 6 -5 23 -34 39 -67 40 -78 89 -111
165 -110 53 0 83 11 156 57 11 6 21 13 23 14 2 1 -2 11 -8 24 -11 20 -13 21
-22 5 -26 -46 -142 -60 -215 -27 -44 21 -107 95 -99 118 6 15 -13 17 -34 3z"/>
<path d="M1337 343 c-13 -13 -7 -61 9 -67 40 -15 72 14 59 54 -6 20 -53 29
-68 13z m52 -16 c8 -10 7 -19 -4 -33 -13 -18 -15 -18 -31 -2 -18 18 -13 48 9
48 8 0 20 -6 26 -13z"/>
<path d="M1360 321 c0 -6 5 -13 10 -16 6 -3 10 1 10 9 0 9 -4 16 -10 16 -5 0
-10 -4 -10 -9z"/>
</g>
</svg>
