<?xml version="1.0" standalone="no"?>
<!DOCTYPE svg PUBLIC "-//W3C//DTD SVG 20010904//EN"
 "http://www.w3.org/TR/2001/REC-SVG-20010904/DTD/svg10.dtd">
<svg version="1.0" xmlns="http://www.w3.org/2000/svg"
 width="192.000000pt" height="192.000000pt" viewBox="0 0 192.000000 192.000000"
 preserveAspectRatio="xMidYMid meet">
<metadata>
Created by potrace 1.16, written by Peter Selinger 2001-2019
</metadata>
<g transform="translate(0.000000,192.000000) scale(0.100000,-0.100000)"
fill="#000000" stroke="none">
<path d="M1101 1888 c-19 -22 -79 -106 -139 -193 -15 -22 -45 -65 -67 -96 -22
-31 -47 -66 -55 -79 -8 -12 -20 -28 -25 -34 -6 -6 -21 -28 -35 -49 -20 -31
-30 -37 -50 -34 -14 3 -145 41 -292 86 -147 44 -278 81 -292 81 -85 0 -69
-127 35 -281 21 -31 44 -63 51 -70 8 -8 31 -39 53 -69 22 -30 42 -57 45 -60 3
-3 17 -21 30 -40 14 -19 33 -44 43 -55 34 -36 38 -51 19 -73 -9 -11 -23 -28
-29 -39 -18 -26 -201 -286 -210 -298 -55 -71 -73 -107 -73 -142 0 -43 8 -50
89 -78 63 -22 84 -19 211 26 135 47 348 119 354 119 2 0 84 -106 182 -236 97
-129 186 -242 198 -250 42 -29 144 -9 160 31 3 9 6 32 6 51 l0 34 50 0 c53 0
70 15 70 62 0 44 -27 68 -76 68 l-44 0 0 103 c0 56 -3 152 -6 212 l-7 111 79
28 c43 15 93 31 109 36 109 31 352 123 363 137 13 18 17 130 4 150 -6 10 -228
82 -492 161 l-65 20 -7 245 c-7 227 -10 252 -33 318 -36 105 -48 119 -95 119
-29 0 -45 -6 -59 -22z m94 -21 c8 -13 26 -56 40 -96 24 -67 26 -90 32 -313 5
-182 3 -239 -5 -234 -8 5 -13 59 -14 169 l-2 162 -6 -160 c-7 -234 -22 -124
-19 148 1 141 -2 227 -10 256 -7 23 -14 41 -17 39 -2 -3 -1 -143 3 -311 7
-339 1 -313 72 -322 30 -4 248 -69 446 -132 61 -20 113 -41 117 -47 12 -18 9
-91 -4 -109 -11 -14 -254 -106 -363 -137 -16 -5 -65 -21 -107 -36 l-77 -27 6
-317 c6 -314 6 -317 -15 -338 -30 -30 -70 -38 -101 -21 -13 8 -103 117 -198
244 -95 126 -179 236 -187 243 -14 14 -61 0 -399 -118 -107 -38 -120 -41 -155
-30 -72 23 -102 42 -102 62 0 16 31 68 73 123 11 14 194 275 210 299 6 10 17
24 23 30 6 6 16 22 23 34 11 20 9 28 -15 60 -15 20 -31 39 -34 42 -3 3 -17 21
-30 40 -13 19 -27 37 -30 40 -3 3 -23 30 -45 60 -22 30 -45 61 -53 69 -22 23
-88 125 -105 161 -39 89 -43 132 -11 144 13 5 395 -104 562 -160 61 -20 66
-19 98 29 16 23 34 47 39 53 6 6 17 22 25 34 8 13 33 48 55 79 22 31 52 74 67
96 60 87 120 171 139 193 24 28 54 28 74 -1z m193 -1629 c15 -20 -4 -57 -34
-69 -21 -7 -29 -7 -36 3 -12 19 -10 52 4 66 16 16 53 15 66 0z"/>
<path d="M1232 1680 c0 -14 2 -19 5 -12 2 6 2 18 0 25 -3 6 -5 1 -5 -13z"/>
<path d="M150 1432 c12 -24 37 -65 56 -92 19 -26 34 -52 34 -59 0 -6 4 -11 10
-11 5 0 30 -28 54 -62 25 -35 51 -70 59 -78 8 -8 23 -28 33 -45 10 -16 31 -43
47 -59 15 -17 27 -38 27 -48 0 -24 17 -31 28 -12 7 13 -28 66 -161 243 -93
124 -179 235 -189 246 -19 18 -18 17 2 -23z"/>
<path d="M748 1343 c7 -3 16 -2 19 1 4 3 -2 6 -13 5 -11 0 -14 -3 -6 -6z"/>
<path d="M753 1250 c-35 -21 -47 -48 -15 -34 9 4 35 9 57 12 48 5 66 19 45 32
-23 15 -52 12 -87 -10z"/>
<path d="M1076 1171 c-4 -6 6 -17 22 -25 15 -8 34 -26 42 -40 17 -32 34 -34
25 -3 -16 54 -72 97 -89 68z"/>
<path d="M717 1132 c-21 -23 -13 -32 28 -32 17 0 40 -7 51 -15 44 -33 72 0 34
41 -29 30 -89 33 -113 6z"/>
<path d="M1002 1061 c-26 -16 -9 -45 26 -48 19 -2 43 -10 55 -18 30 -21 37
-19 37 9 0 46 -78 83 -118 57z"/>
<path d="M1770 961 c-25 -10 -161 -57 -303 -106 l-258 -88 7 -321 c6 -287 5
-322 -9 -334 -10 -8 -22 -10 -31 -5 -8 4 -99 121 -202 258 -103 138 -188 251
-189 253 -1 2 -136 -43 -299 -99 -163 -56 -293 -105 -289 -109 13 -12 93 -21
93 -10 0 5 -7 7 -15 4 -8 -4 -15 -2 -15 2 0 13 509 184 515 174 3 -5 -3 -11
-12 -13 -17 -4 -17 -5 0 -6 24 -1 85 -67 145 -155 26 -38 59 -82 75 -98 15
-17 27 -36 27 -44 0 -8 4 -14 9 -14 5 0 35 -35 67 -77 66 -89 70 -93 105 -93
49 0 50 7 49 334 0 168 -3 312 -6 319 -4 11 64 38 268 107 150 51 279 96 287
98 10 4 12 1 6 -9 -7 -12 -6 -12 7 -1 16 13 31 52 20 51 -4 0 -27 -8 -52 -18z"/>
<path d="M810 964 c0 -18 25 -46 48 -55 28 -11 92 -4 92 10 0 5 -19 11 -41 15
-23 4 -51 13 -62 21 -22 16 -37 19 -37 9z"/>
<path d="M648 953 c-18 -4 -25 -23 -10 -23 5 0 18 -24 30 -53 43 -103 133
-164 223 -154 48 6 119 36 151 64 9 8 22 12 27 8 14 -8 14 11 1 36 -12 22 -30
25 -30 5 0 -20 -87 -51 -141 -50 -80 1 -150 39 -195 107 -14 21 -23 45 -20 53
5 14 -3 16 -36 7z m225 -192 l62 -8 -53 -2 c-46 -1 -112 19 -112 35 0 2 9 0
21 -6 11 -6 48 -15 82 -19z"/>
<path d="M1460 810 l-25 -8 28 -1 c15 -1 27 4 27 9 0 6 -1 10 -2 9 -2 -1 -14
-5 -28 -9z"/>
<path d="M1375 780 c-16 -7 -17 -9 -3 -9 9 -1 20 4 23 9 7 11 7 11 -20 0z"/>
<path d="M1253 640 c0 -47 2 -66 4 -42 2 23 2 61 0 85 -2 23 -4 4 -4 -43z"/>
<path d="M700 550 c-12 -8 -11 -10 8 -10 12 0 22 5 22 10 0 13 -11 13 -30 0z"/>
<path d="M1258 315 c3 -160 1 -219 -8 -230 -10 -12 -9 -15 4 -15 14 0 16 25
16 230 0 127 -3 230 -7 230 -5 0 -6 -97 -5 -215z"/>
<path d="M1325 229 c-11 -16 -1 -19 13 -3 7 8 8 14 3 14 -5 0 -13 -5 -16 -11z"/>
<path d="M1340 196 c0 -17 -2 -18 -10 -6 -6 9 -10 10 -10 3 0 -19 20 -26 26
-9 3 9 10 13 15 10 5 -3 9 1 9 9 0 7 -7 14 -15 14 -8 0 -15 -9 -15 -21z"/>
</g>
</svg>
