<?xml version="1.0" standalone="no"?>
<!DOCTYPE svg PUBLIC "-//W3C//DTD SVG 20010904//EN"
 "http://www.w3.org/TR/2001/REC-SVG-20010904/DTD/svg10.dtd">
<svg version="1.0" xmlns="http://www.w3.org/2000/svg"
 width="192.000000pt" height="192.000000pt" viewBox="0 0 192.000000 192.000000"
 preserveAspectRatio="xMidYMid meet">
<metadata>
Created by potrace 1.16, written by Peter Selinger 2001-2019
</metadata>
<g transform="translate(0.000000,192.000000) scale(0.100000,-0.100000)"
fill="#000000" stroke="none">
<path d="M1088 1898 c-16 -13 -46 -56 -250 -360 -63 -93 -106 -148 -116 -148
-19 0 -28 3 -177 50 -347 110 -424 127 -453 98 -7 -7 -12 -35 -12 -64 0 -50 4
-57 98 -185 54 -74 133 -183 176 -242 l77 -108 -78 -117 c-43 -64 -80 -119
-83 -122 -3 -3 -43 -61 -88 -130 l-83 -125 3 -60 3 -60 70 0 c61 1 93 9 240
64 94 34 207 75 252 91 l82 28 108 -147 c60 -80 135 -183 167 -228 87 -122 88
-123 151 -123 42 0 56 4 64 18 6 12 8 137 4 338 l-6 320 104 37 c57 21 176 64
264 97 88 32 169 61 181 64 39 12 64 44 64 85 0 56 -23 76 -125 106 -100 30
-180 55 -365 113 l-125 39 -6 129 c-4 71 -7 218 -8 326 -1 164 -4 199 -17 212
-19 19 -93 21 -116 4z m96 -24 c13 -13 16 -48 17 -212 1 -108 4 -255 8 -326
l6 -129 125 -39 c203 -64 270 -84 369 -114 100 -30 128 -53 117 -97 -8 -34 5
-29 -505 -214 l-104 -37 5 -321 c3 -191 2 -329 -4 -338 -13 -25 -72 -22 -97 4
-10 11 -45 57 -77 102 -197 276 -286 388 -302 382 -9 -4 -53 -20 -97 -35 -44
-16 -156 -57 -250 -91 -120 -44 -185 -63 -220 -63 l-50 -1 -3 40 c-3 36 6 54
80 165 45 69 85 127 88 130 15 14 170 252 170 261 0 5 -24 42 -53 82 -260 350
-307 420 -307 451 0 37 15 56 45 56 21 0 168 -43 380 -110 55 -18 120 -38 145
-45 25 -7 52 -16 60 -19 11 -5 40 30 107 131 198 296 255 378 271 391 22 17
57 15 76 -4z"/>
<path d="M1153 1852 c12 -13 18 -39 19 -88 l2 -69 3 60 c5 72 -1 101 -24 109
-16 6 -16 6 0 -12z"/>
<path d="M943 1598 c-15 -20 -25 -38 -20 -38 3 0 12 11 21 25 17 26 16 35 -1
13z"/>
<path d="M1173 1560 c0 -30 2 -43 4 -27 2 15 2 39 0 55 -2 15 -4 2 -4 -28z"/>
<path d="M883 1508 c-15 -20 -25 -38 -20 -38 3 0 12 11 21 25 17 26 16 35 -1
13z"/>
<path d="M130 1495 c-6 -8 -10 -20 -7 -27 4 -8 6 -7 6 4 1 9 9 22 19 27 9 6
12 11 6 11 -6 0 -17 -7 -24 -15z"/>
<path d="M178 1493 c7 -3 16 -2 19 1 4 3 -2 6 -13 5 -11 0 -14 -3 -6 -6z"/>
<path d="M278 1463 c7 -3 16 -2 19 1 4 3 -2 6 -13 5 -11 0 -14 -3 -6 -6z"/>
<path d="M385 1430 c27 -12 43 -12 25 0 -8 5 -22 9 -30 9 -10 0 -8 -3 5 -9z"/>
<path d="M823 1418 c-15 -20 -25 -38 -20 -38 3 0 12 11 21 25 17 26 16 35 -1
13z"/>
<path d="M150 1416 c0 -2 8 -10 18 -17 15 -13 16 -12 3 4 -13 16 -21 21 -21
13z"/>
<path d="M1184 1320 c0 -52 1 -74 3 -47 2 26 2 68 0 95 -2 26 -3 4 -3 -48z"/>
<path d="M779 1353 c-13 -16 -12 -17 4 -4 9 7 17 15 17 17 0 8 -8 3 -21 -13z"/>
<path d="M675 1340 c27 -12 43 -12 25 0 -8 5 -22 9 -30 9 -10 0 -8 -3 5 -9z"/>
<path d="M1248 1163 c7 -3 16 -2 19 1 4 3 -2 6 -13 5 -11 0 -14 -3 -6 -6z"/>
<path d="M390 1086 c0 -2 8 -10 18 -17 15 -13 16 -12 3 4 -13 16 -21 21 -21
13z"/>
<path d="M1538 1073 c7 -3 16 -2 19 1 4 3 -2 6 -13 5 -11 0 -14 -3 -6 -6z"/>
<path d="M1645 1040 c27 -12 43 -12 25 0 -8 5 -22 9 -30 9 -10 0 -8 -3 5 -9z"/>
<path d="M1761 1007 c2 -1 13 -9 24 -17 19 -14 19 -14 6 3 -7 9 -18 17 -24 17
-6 0 -8 -1 -6 -3z"/>
<path d="M482 940 c0 -19 2 -27 5 -17 2 9 2 25 0 35 -3 9 -5 1 -5 -18z"/>
<path d="M1740 930 c-8 -5 -10 -10 -5 -10 6 0 17 5 25 10 8 5 11 10 5 10 -5 0
-17 -5 -25 -10z"/>
<path d="M450 870 c-6 -11 -8 -20 -6 -20 3 0 10 9 16 20 6 11 8 20 6 20 -3 0
-10 -9 -16 -20z"/>
<path d="M1440 820 c-8 -5 -10 -10 -5 -10 6 0 17 5 25 10 8 5 11 10 5 10 -5 0
-17 -5 -25 -10z"/>
<path d="M1192 700 c0 -14 2 -19 5 -12 2 6 2 18 0 25 -3 6 -5 1 -5 -13z"/>
<path d="M296 643 c-6 -14 -5 -15 5 -6 7 7 10 15 7 18 -3 3 -9 -2 -12 -12z"/>
<path d="M1194 560 c0 -52 1 -74 3 -47 2 26 2 68 0 95 -2 26 -3 4 -3 -48z"/>
<path d="M253 578 c-15 -20 -25 -38 -20 -38 3 0 12 11 21 25 17 26 16 35 -1
13z"/>
<path d="M755 563 c11 -3 29 -12 40 -22 20 -16 20 -16 1 7 -11 12 -29 21 -40
21 -20 -1 -20 -2 -1 -6z"/>
<path d="M610 520 c-8 -5 -10 -10 -5 -10 6 0 17 5 25 10 8 5 11 10 5 10 -5 0
-17 -5 -25 -10z"/>
<path d="M193 488 c-15 -20 -25 -38 -20 -38 3 0 12 11 21 25 17 26 16 35 -1
13z"/>
<path d="M830 486 c0 -2 8 -10 18 -17 15 -13 16 -12 3 4 -13 16 -21 21 -21 13z"/>
<path d="M144 385 c1 -23 36 -32 63 -16 14 8 9 9 -19 4 -30 -4 -37 -2 -41 13
-3 17 -4 17 -3 -1z"/>
<path d="M1193 330 c0 -41 2 -58 4 -37 2 20 2 54 0 75 -2 20 -4 3 -4 -38z"/>
<path d="M1050 186 c0 -2 8 -10 18 -17 15 -13 16 -12 3 4 -13 16 -21 21 -21
13z"/>
<path d="M1202 140 c-2 -59 -8 -74 -32 -83 -12 -4 -12 -6 2 -6 26 -1 39 34 35
92 l-3 52 -2 -55z"/>
<path d="M1080 146 c0 -2 8 -10 18 -17 15 -13 16 -12 3 4 -13 16 -21 21 -21
13z"/>
<path d="M1126 88 c10 -14 21 -24 23 -22 3 3 -6 15 -18 27 l-24 22 19 -27z"/>
</g>
</svg>
