<?xml version="1.0" standalone="no"?>
<!DOCTYPE svg PUBLIC "-//W3C//DTD SVG 20010904//EN"
 "http://www.w3.org/TR/2001/REC-SVG-20010904/DTD/svg10.dtd">
<svg version="1.0" xmlns="http://www.w3.org/2000/svg"
 width="100.000000pt" height="100.000000pt" viewBox="0 0 100.000000 100.000000"
 preserveAspectRatio="xMidYMid meet">
<metadata>
Created by potrace 1.16, written by Peter Selinger 2001-2019
</metadata>
<g transform="translate(0.000000,100.000000) scale(0.100000,-0.100000)"
fill="#000000" stroke="none">
<path d="M242 980 c0 -14 2 -19 5 -12 2 6 2 18 0 25 -3 6 -5 1 -5 -13z"/>
<path d="M612 980 c0 -14 2 -19 5 -12 2 6 2 18 0 25 -3 6 -5 1 -5 -13z"/>
<path d="M752 980 c0 -14 2 -19 5 -12 2 6 2 18 0 25 -3 6 -5 1 -5 -13z"/>
<path d="M176 913 c10 -40 14 -41 14 -5 0 18 -5 32 -10 32 -6 0 -8 -11 -4 -27z"/>
<path d="M250 915 c0 -14 5 -25 10 -25 6 0 10 7 10 15 0 8 5 15 10 15 6 0 10
-7 10 -15 0 -8 5 -15 10 -15 6 0 10 9 10 19 0 14 5 18 20 14 11 -3 20 -12 20
-19 0 -8 5 -14 10 -14 6 0 10 11 10 25 0 24 -3 25 -60 25 -57 0 -60 -1 -60
-25z"/>
<path d="M546 889 c5 -71 14 -75 14 -6 0 31 -4 57 -9 57 -5 0 -7 -23 -5 -51z"/>
<path d="M620 915 c0 -14 5 -25 10 -25 6 0 10 7 10 15 0 8 7 15 15 15 8 0 15
-7 15 -15 0 -8 5 -15 10 -15 6 0 10 7 10 15 0 8 9 15 20 15 11 0 20 -7 20 -15
0 -8 5 -15 10 -15 6 0 10 11 10 25 0 24 -2 25 -65 25 -63 0 -65 -1 -65 -25z"/>
<path d="M810 906 c0 -28 -4 -35 -22 -39 l-23 -4 23 -2 c12 0 24 5 26 12 13
40 15 67 6 67 -5 0 -10 -15 -10 -34z"/>
<path d="M390 880 c0 -5 11 -10 25 -10 21 0 25 -5 25 -30 0 -25 -4 -30 -25
-30 -14 0 -25 -4 -25 -10 0 -5 7 -10 15 -10 8 0 15 -4 15 -10 0 -5 5 -10 10
-10 6 0 10 9 10 20 0 17 7 20 50 20 29 0 50 5 50 11 0 5 -8 9 -17 8 -46 -4
-63 1 -63 21 0 20 -27 40 -54 40 -9 0 -16 -4 -16 -10z"/>
<path d="M190 850 c0 -24 6 -25 26 -6 19 20 18 26 -6 26 -13 0 -20 -7 -20 -20z"/>
<path d="M250 840 c0 -27 -3 -30 -30 -30 l-30 0 0 -90 0 -90 80 0 c52 0 80 4
80 11 0 6 -9 9 -20 6 -13 -3 -20 0 -20 9 0 17 -17 18 -23 2 -4 -10 -8 -9 -17
2 -9 11 -13 12 -17 3 -8 -20 -40 -15 -46 7 -5 19 0 20 79 20 l84 0 0 -65 0
-65 30 0 c17 0 30 5 30 10 0 6 -8 10 -19 10 -12 0 -20 9 -23 25 -5 22 -2 25
23 25 l29 0 0 -125 0 -125 -31 0 c-24 0 -30 3 -25 16 3 9 6 18 6 20 0 2 6 4
14 4 8 0 18 5 21 10 4 6 -7 10 -24 10 l-31 0 0 -65 0 -65 -60 0 -60 0 0 -60 0
-60 89 0 c84 0 89 -1 84 -20 -6 -22 -28 -27 -37 -7 -5 9 -7 9 -12 0 -8 -19
-35 -16 -50 5 -12 15 -13 14 -14 -10 l0 -28 190 0 190 0 0 28 c-1 24 -2 25
-14 10 -15 -21 -52 -24 -59 -5 -4 9 -8 8 -16 -3 -10 -13 -12 -13 -21 0 -17 26
-11 30 50 30 l60 0 0 30 c0 28 -3 30 -35 30 -30 0 -35 3 -35 24 0 20 4 23 23
18 12 -3 27 -13 34 -21 11 -14 12 -14 13 2 0 10 8 17 20 17 25 0 25 -9 3 -26
-17 -13 -17 -13 0 -14 22 0 22 -29 0 -46 -16 -12 -15 -13 10 -14 26 0 27 1 27
60 l0 60 -65 0 -65 0 0 35 c0 32 -2 35 -30 35 l-30 0 0 125 0 125 30 0 c27 0
30 3 30 30 l0 30 95 0 95 0 0 60 0 60 -85 0 c-78 0 -85 2 -85 20 0 25 18 26
36 3 12 -17 13 -16 14 4 0 16 5 20 20 16 11 -3 20 -12 20 -19 0 -8 5 -14 10
-14 6 0 10 11 10 25 0 24 -2 25 -65 25 l-65 0 0 -60 0 -60 -30 0 -30 0 0 -60
0 -60 -60 0 -60 0 0 60 0 60 -35 0 -35 0 0 60 0 60 -60 0 -60 0 0 -30z m44 -2
c5 -10 7 -10 12 0 9 19 41 14 47 -8 5 -18 0 -20 -43 -20 -43 0 -48 2 -43 20 6
23 18 26 27 8z m436 -69 c0 -12 -7 -19 -20 -19 -14 0 -20 7 -20 24 0 19 4 23
20 19 11 -3 20 -14 20 -24z m-480 -19 c0 -33 -3 -40 -20 -40 -26 0 -28 40 -2
40 16 1 16 1 0 14 -23 17 -23 26 2 26 17 0 20 -7 20 -40z m60 27 c0 -18 -24
-67 -32 -67 -5 0 -8 18 -8 40 0 33 3 40 20 40 11 0 20 -6 20 -13z m40 3 c0 -5
-4 -10 -10 -10 -5 0 -10 5 -10 10 0 6 5 10 10 10 6 0 10 -4 10 -10z m320 0 c0
-5 -7 -10 -15 -10 -8 0 -15 5 -15 10 0 6 7 10 15 10 8 0 15 -4 15 -10z m120 4
c0 -4 -8 -13 -17 -20 -17 -13 -17 -13 0 -14 24 0 22 -36 -3 -43 -18 -5 -20 0
-20 39 0 37 3 44 20 44 11 0 20 -3 20 -6z m-440 -54 c0 -13 -7 -20 -20 -20
-13 0 -20 7 -20 20 0 13 7 20 20 20 13 0 20 -7 20 -20z m340 0 c0 -15 -7 -20
-25 -20 -14 0 -25 2 -25 4 0 2 -3 11 -6 20 -5 13 1 16 25 16 24 0 31 -4 31
-20z m-270 -21 c0 -14 -7 -19 -25 -19 -20 0 -25 5 -25 24 0 19 4 22 25 18 16
-3 25 -11 25 -23z m190 -4 c-17 -21 -30 -19 -30 4 0 11 8 21 18 23 22 5 27 -8
12 -27z m120 15 c0 -5 -4 -10 -10 -10 -5 0 -10 5 -10 10 0 6 5 10 10 10 6 0
10 -4 10 -10z m-130 -55 c0 -8 -4 -15 -10 -15 -5 0 -10 7 -10 15 0 8 5 15 10
15 6 0 10 -7 10 -15z m-180 -5 c0 -5 -7 -10 -15 -10 -8 0 -15 5 -15 10 0 6 7
10 15 10 8 0 15 -4 15 -10z m80 -75 c0 -18 -5 -25 -20 -25 -15 0 -20 7 -20 25
0 18 5 25 20 25 15 0 20 -7 20 -25z m40 5 c0 -11 -4 -20 -10 -20 -5 0 -10 9
-10 20 0 11 5 20 10 20 6 0 10 -9 10 -20z m0 -49 c0 -10 -9 -21 -20 -24 -16
-4 -20 0 -20 19 0 17 6 24 20 24 13 0 20 -7 20 -19z m-50 -21 c0 -11 -7 -20
-15 -20 -8 0 -15 9 -15 20 0 11 7 20 15 20 8 0 15 -9 15 -20z m50 -50 c0 -23
-4 -30 -20 -30 -16 0 -20 7 -20 30 0 23 4 30 20 30 16 0 20 -7 20 -30z m-60 0
c0 -5 -4 -10 -10 -10 -5 0 -10 5 -10 10 0 6 5 10 10 10 6 0 10 -4 10 -10z m10
-40 c0 -5 11 -10 25 -10 14 0 25 -4 25 -10 0 -5 -18 -10 -40 -10 -33 0 -40 3
-40 20 0 11 7 20 15 20 8 0 15 -4 15 -10z m70 -165 c0 -108 -1 -115 -20 -115
-11 0 -20 5 -20 10 0 6 5 10 10 10 6 0 10 5 10 10 0 6 -9 10 -20 10 -13 0 -20
-7 -20 -20 0 -11 -6 -20 -14 -20 -8 0 -21 -3 -30 -6 -14 -5 -16 9 -16 115 l0
121 60 0 60 0 0 -115z m-140 80 c0 -8 -7 -15 -15 -15 -8 0 -15 7 -15 15 0 8 7
15 15 15 8 0 15 -7 15 -15z m180 -10 c0 -14 -4 -25 -10 -25 -5 0 -10 11 -10
25 0 14 5 25 10 25 6 0 10 -11 10 -25z m-180 -45 c0 -11 -7 -20 -15 -20 -8 0
-15 9 -15 20 0 11 7 20 15 20 8 0 15 -9 15 -20z m-50 -15 c0 -21 -5 -25 -30
-25 -25 0 -30 -4 -30 -24 0 -19 -4 -23 -20 -19 -23 6 -27 43 -5 43 8 0 15 5
15 10 0 6 -7 10 -15 10 -8 0 -15 4 -15 9 0 6 21 12 48 14 26 2 48 4 50 5 1 1
2 -9 2 -23z m230 10 c0 -8 -4 -15 -10 -15 -5 0 -10 7 -10 15 0 8 5 15 10 15 6
0 10 -7 10 -15z m-180 -55 c0 -15 -7 -20 -25 -20 -18 0 -25 5 -25 20 0 15 7
20 25 20 18 0 25 -5 25 -20z m200 0 c0 -13 -7 -20 -20 -20 -13 0 -20 7 -20 20
0 13 7 20 20 20 13 0 20 -7 20 -20z m-270 -10 c0 -5 -4 -10 -10 -10 -5 0 -10
5 -10 10 0 6 5 10 10 10 6 0 10 -4 10 -10z m320 0 c0 -5 -7 -10 -15 -10 -8 0
-15 5 -15 10 0 6 7 10 15 10 8 0 15 -4 15 -10z"/>
<path d="M500 339 c0 -16 -4 -19 -20 -14 -11 4 -20 2 -20 -4 0 -6 18 -11 40
-11 22 0 40 5 40 10 0 6 -4 10 -10 10 -5 0 -10 7 -10 15 0 8 -4 15 -10 15 -5
0 -10 -9 -10 -21z"/>
<path d="M500 274 c0 -8 5 -12 10 -9 6 3 10 10 10 16 0 5 -4 9 -10 9 -5 0 -10
-7 -10 -16z"/>
<path d="M460 240 c0 -5 4 -10 9 -10 6 0 13 5 16 10 3 6 -1 10 -9 10 -9 0 -16
-4 -16 -10z"/>
<path d="M500 223 l0 -27 20 22 c11 12 20 24 20 27 0 3 -9 5 -20 5 -15 0 -20
-7 -20 -27z"/>
<path d="M460 180 c0 -5 5 -10 10 -10 6 0 10 5 10 10 0 6 -4 10 -10 10 -5 0
-10 -4 -10 -10z"/>
<path d="M60 820 c0 -5 12 -10 28 -9 24 0 25 1 7 9 -27 12 -35 12 -35 0z"/>
<path d="M903 813 c9 -2 23 -2 30 0 6 3 -1 5 -18 5 -16 0 -22 -2 -12 -5z"/>
<path d="M130 780 c0 -23 4 -30 20 -30 22 0 27 16 8 23 -9 3 -7 10 7 21 20 15
19 15 -7 16 -24 0 -28 -4 -28 -30z"/>
<path d="M560 783 l0 -27 20 22 c11 12 20 24 20 27 0 3 -9 5 -20 5 -15 0 -20
-7 -20 -27z"/>
<path d="M830 801 c0 -5 6 -12 13 -15 10 -5 10 -7 0 -12 -20 -9 -15 -24 7 -24
16 0 20 7 20 30 0 23 -4 30 -20 30 -11 0 -20 -4 -20 -9z"/>
<path d="M942 780 c0 -14 2 -19 5 -12 2 6 2 18 0 25 -3 6 -5 1 -5 -13z"/>
<path d="M51 774 c0 -11 3 -14 6 -6 3 7 2 16 -1 19 -3 4 -6 -2 -5 -13z"/>
<path d="M78 743 c6 -2 18 -2 25 0 6 3 1 5 -13 5 -14 0 -19 -2 -12 -5z"/>
<path d="M460 739 c0 -6 9 -8 20 -4 14 5 20 2 20 -9 0 -20 7 -20 26 -2 21 22
17 26 -26 26 -22 0 -40 -5 -40 -11z"/>
<path d="M898 743 c6 -2 18 -2 25 0 6 3 1 5 -13 5 -14 0 -19 -2 -12 -5z"/>
<path d="M130 717 c0 -20 5 -27 20 -27 11 0 20 2 20 5 0 3 -9 15 -20 27 l-20
22 0 -27z"/>
<path d="M830 700 c0 -5 9 -10 20 -10 16 0 20 -7 20 -30 0 -23 -4 -30 -20 -30
-11 0 -20 -4 -20 -10 0 -16 18 -12 40 10 24 24 26 46 6 66 -17 16 -46 19 -46
4z"/>
<path d="M460 680 c0 -5 4 -10 9 -10 6 0 13 5 16 10 3 6 -1 10 -9 10 -9 0 -16
-4 -16 -10z"/>
<path d="M500 670 c0 -24 6 -25 26 -6 19 20 18 26 -6 26 -13 0 -20 -7 -20 -20z"/>
<path d="M690 658 c0 -27 1 -28 60 -28 58 0 60 1 60 27 l0 27 -20 -22 c-26
-28 -40 -28 -40 1 -1 21 -1 22 -15 3 -15 -20 -15 -20 -30 0 -14 18 -14 18 -15
-8z"/>
<path d="M124 645 c1 -13 8 -20 24 -21 17 -1 18 -1 3 3 -11 2 -22 12 -24 21
-3 12 -4 11 -3 -3z"/>
<path d="M640 640 c0 -5 9 -10 21 -10 11 0 17 5 14 10 -3 6 -13 10 -21 10 -8
0 -14 -4 -14 -10z"/>
<path d="M603 603 c-4 -10 -14 -23 -22 -30 -14 -11 -12 -12 12 -13 23 0 27 4
27 30 0 34 -7 39 -17 13z"/>
<path d="M242 590 c0 -14 2 -19 5 -12 2 6 2 18 0 25 -3 6 -5 1 -5 -13z"/>
<path d="M301 594 c0 -11 3 -14 6 -6 3 7 2 16 -1 19 -3 4 -6 -2 -5 -13z"/>
<path d="M691 594 c0 -11 3 -14 6 -6 3 7 2 16 -1 19 -3 4 -6 -2 -5 -13z"/>
<path d="M752 590 c0 -14 2 -19 5 -12 2 6 2 18 0 25 -3 6 -5 1 -5 -13z"/>
<path d="M255 550 c7 -12 95 -11 95 1 0 5 -23 9 -51 9 -29 0 -48 -4 -44 -10z"/>
<path d="M640 549 c0 -7 20 -8 57 -4 78 8 80 15 5 15 -37 0 -62 -4 -62 -11z"/>
<path d="M621 507 c-1 -46 17 -67 56 -66 l28 1 -31 10 c-26 8 -33 18 -42 52
l-10 41 -1 -38z"/>
<path d="M299 455 c0 0 -2 -12 -4 -27 -2 -16 1 -28 6 -28 5 0 9 9 9 20 0 13 7
20 20 20 11 0 20 4 20 9 0 5 -11 8 -25 7 -14 0 -25 -1 -26 -1z"/>
<path d="M580 435 c0 -3 9 -15 20 -27 l20 -22 0 27 c0 20 -5 27 -20 27 -11 0
-20 -2 -20 -5z"/>
<path d="M691 414 c0 -11 3 -14 6 -6 3 7 2 16 -1 19 -3 4 -6 -2 -5 -13z"/>
<path d="M310 355 c0 -14 5 -25 10 -25 6 0 10 7 10 15 0 8 5 15 10 15 6 0 10
5 10 10 0 6 -9 10 -20 10 -15 0 -20 -7 -20 -25z"/>
<path d="M640 370 c0 -5 7 -10 15 -10 8 0 15 -7 15 -15 0 -8 5 -15 10 -15 6 0
10 11 10 25 0 20 -5 25 -25 25 -14 0 -25 -4 -25 -10z"/>
<path d="M124 306 c-3 -8 -4 -27 -1 -43 3 -24 4 -23 6 9 1 29 5 37 24 41 l22
4 -23 2 c-12 0 -25 -5 -28 -13z"/>
<path d="M190 280 c0 -23 4 -30 20 -30 22 0 27 15 8 24 -10 5 -10 7 0 12 19 9
14 24 -8 24 -16 0 -20 -7 -20 -30z"/>
<path d="M770 301 c0 -5 6 -12 13 -15 10 -5 10 -7 0 -12 -20 -9 -15 -24 7 -24
16 0 20 7 20 30 0 23 -4 30 -20 30 -11 0 -20 -4 -20 -9z"/>
<path d="M190 217 c0 -20 5 -27 20 -27 11 0 20 2 20 5 0 3 -9 15 -20 27 l-20
22 0 -27z"/>
<path d="M178 174 c-12 -12 -9 -23 12 -44 22 -22 40 -26 40 -10 0 6 -9 10 -19
10 -14 0 -21 8 -23 26 -2 14 -6 22 -10 18z"/>
<path d="M250 158 c0 -24 4 -28 27 -28 22 0 25 2 13 13 -8 6 -20 19 -27 27
-10 13 -12 11 -13 -12z"/>
<path d="M723 155 c-18 -20 -16 -25 7 -25 13 0 20 7 20 20 0 23 -10 25 -27 5z"/>
<path d="M302 90 c0 -14 2 -19 5 -12 2 6 2 18 0 25 -3 6 -5 1 -5 -13z"/>
<path d="M372 90 c0 -14 2 -19 5 -12 2 6 2 18 0 25 -3 6 -5 1 -5 -13z"/>
<path d="M612 90 c0 -14 2 -19 5 -12 2 6 2 18 0 25 -3 6 -5 1 -5 -13z"/>
<path d="M692 85 c0 -16 2 -22 5 -12 2 9 2 23 0 30 -3 6 -5 -1 -5 -18z"/>
<path d="M328 53 c6 -2 18 -2 25 0 6 3 1 5 -13 5 -14 0 -19 -2 -12 -5z"/>
<path d="M643 53 c9 -2 23 -2 30 0 6 3 -1 5 -18 5 -16 0 -22 -2 -12 -5z"/>
</g>
</svg>
