<?xml version="1.0" standalone="no"?>
<!DOCTYPE svg PUBLIC "-//W3C//DTD SVG 20010904//EN"
 "http://www.w3.org/TR/2001/REC-SVG-20010904/DTD/svg10.dtd">
<svg version="1.0" xmlns="http://www.w3.org/2000/svg"
 width="180.000000pt" height="180.000000pt" viewBox="0 0 180.000000 180.000000"
 preserveAspectRatio="xMidYMid meet">
<metadata>
Created by potrace 1.16, written by Peter Selinger 2001-2019
</metadata>
<g transform="translate(0.000000,180.000000) scale(0.100000,-0.100000)"
fill="#000000" stroke="none">
<path d="M684 1474 c-23 -30 -32 -34 -71 -34 -78 0 -123 -38 -123 -106 0 -21
-5 -24 -34 -24 -21 0 -42 -9 -60 -25 -22 -21 -26 -32 -26 -84 0 -50 -3 -61
-20 -66 -32 -10 -70 -63 -70 -98 -1 -28 -6 -35 -51 -56 -52 -24 -89 -68 -89
-106 0 -15 -10 -25 -33 -33 -18 -6 -48 -25 -67 -41 l-35 -29 -3 -228 c-3 -208
-2 -230 14 -241 14 -10 188 -13 834 -13 882 0 839 -3 901 52 47 41 49 54 49
281 l0 214 -25 11 c-14 7 -46 12 -70 12 -37 0 -45 3 -45 18 0 59 -94 178 -164
207 -18 8 -50 24 -69 37 -36 23 -36 24 -37 90 0 64 -1 68 -30 83 -16 8 -43 15
-60 15 -26 0 -30 4 -30 26 0 39 -28 91 -53 98 -12 3 -43 6 -70 6 -41 0 -49 3
-57 24 -5 14 -17 29 -27 35 -11 5 -94 10 -186 10 l-167 0 -26 -35z m174 0 c20
-14 24 -14 44 0 29 20 117 21 145 1 11 -8 23 -26 27 -39 5 -22 10 -24 40 -19
63 10 102 -4 120 -41 9 -19 16 -46 16 -60 0 -22 4 -26 30 -26 17 0 44 -7 60
-15 29 -15 30 -19 30 -83 1 -66 1 -67 37 -90 19 -13 51 -29 69 -37 70 -29 164
-148 164 -207 0 -15 8 -18 46 -18 45 0 82 -13 96 -34 4 -6 8 -87 8 -179 0
-184 -8 -220 -58 -264 -64 -56 -20 -53 -881 -53 -705 0 -799 2 -819 16 -21 15
-22 21 -22 186 0 204 8 239 64 280 22 16 50 31 63 34 14 4 23 14 23 26 0 52
82 128 138 128 19 0 20 3 10 31 -9 26 -7 35 9 57 10 15 33 34 50 42 30 15 30
16 25 72 -4 52 -2 58 23 82 19 17 39 26 61 26 29 0 34 3 34 24 0 69 51 112
124 104 38 -5 43 -2 68 34 26 36 31 38 81 38 31 0 61 -6 75 -16z"/>
<path d="M848 1376 c-16 -24 -28 -48 -28 -55 0 -6 -3 -11 -8 -11 -4 0 -20 -35
-36 -77 -16 -43 -32 -82 -36 -88 -4 -5 -13 -38 -20 -73 -7 -34 -17 -65 -21
-68 -5 -2 -8 25 -8 61 1 54 4 65 17 65 15 1 15 2 0 11 -12 6 -18 22 -18 44 0
33 1 34 32 28 22 -4 29 -3 24 5 -4 7 -13 12 -20 12 -27 0 -35 24 -24 68 11 45
19 50 40 29 18 -18 48 -29 48 -17 0 8 -82 80 -92 80 -11 0 -28 -119 -28 -200
1 -114 1 -119 11 -169 12 -55 4 -87 -17 -70 -8 7 -12 19 -9 26 3 8 -2 21 -10
29 -17 17 -20 44 -5 44 6 0 10 4 10 9 0 5 -9 7 -20 4 -14 -4 -20 0 -20 10 0 8
-3 22 -6 30 -3 10 3 17 21 21 32 8 25 24 -10 24 -32 0 -31 -2 -39 54 l-7 46
41 -5 c59 -8 50 13 -10 26 -28 6 -55 11 -60 11 -7 0 0 -42 21 -120 3 -11 -12
-16 -61 -23 -36 -5 -67 -11 -69 -13 -5 -5 27 -54 57 -86 14 -15 24 -29 21 -31
-2 -2 -21 -13 -42 -25 -32 -18 -44 -20 -85 -13 -54 11 -66 6 -38 -15 33 -24
107 -18 138 11 34 32 38 31 73 -5 20 -21 38 -30 59 -29 17 0 25 3 19 6 -7 2
-13 12 -13 20 0 13 -3 13 -16 2 -14 -11 -19 -9 -35 11 -18 25 -18 25 4 42 26
20 17 34 -11 19 -28 -15 -52 -14 -52 3 0 7 -9 25 -20 39 -26 33 -26 34 13 39
17 3 39 8 48 12 13 5 23 -9 49 -71 19 -43 38 -84 44 -92 15 -19 13 -44 -4 -57
-16 -13 -22 -96 -9 -131 7 -20 5 -22 -34 -25 l-42 -3 -5 -95 c-5 -87 -7 -95
-25 -95 -18 0 -20 8 -23 92 -3 88 -4 93 -26 99 -13 3 -37 4 -52 2 -28 -3 -29
-5 -34 -68 l-5 -65 -26 65 -27 65 -44 3 -44 3 -51 -128 c-56 -140 -73 -220
-51 -234 21 -14 1515 -11 1524 3 17 27 2 112 -35 206 -58 145 -61 150 -89 155
-50 10 -66 -6 -106 -107 -21 -53 -42 -96 -47 -96 -5 0 -2 14 7 32 20 39 14
110 -11 138 -26 29 -85 42 -159 34 l-65 -7 10 38 c12 43 3 109 -18 130 -11 12
-44 15 -154 15 -93 0 -139 4 -139 11 0 7 -26 9 -75 7 -68 -3 -75 -1 -75 15 0
33 32 87 66 113 49 38 135 43 189 12 22 -13 49 -38 60 -55 21 -35 35 -42 35
-19 0 20 -73 96 -92 96 -9 0 -20 4 -23 10 -8 12 -90 10 -135 -3 -19 -6 -45
-22 -57 -36 -13 -14 -23 -23 -23 -20 0 18 23 69 32 69 5 0 7 4 4 9 -11 18 6
41 31 41 17 0 23 -4 20 -14 -4 -10 0 -12 14 -9 10 3 26 0 34 -7 8 -7 15 -8 15
-3 0 5 -12 16 -27 24 -16 7 -38 20 -50 27 l-23 14 22 30 c18 26 22 28 30 14 5
-9 16 -16 23 -16 17 0 20 -16 5 -25 -5 -3 -10 -11 -10 -17 0 -6 6 -6 16 2 12
11 18 10 31 -3 12 -12 13 -19 5 -29 -8 -10 -4 -13 19 -13 16 0 29 2 29 4 0 4
-33 41 -89 97 l-44 45 20 22 c11 12 26 33 33 46 l13 25 15 -30 c8 -16 21 -37
30 -47 14 -16 13 -19 -8 -42 -27 -29 -19 -47 9 -21 19 17 20 17 36 -14 15 -30
15 -33 -2 -47 -17 -14 -17 -14 1 -9 11 4 24 0 32 -11 12 -17 13 -16 14 8 0 21
6 28 27 32 36 7 43 2 43 -29 0 -14 4 -23 9 -19 13 7 12 85 -1 85 -5 0 -27 -9
-49 -19 l-40 -20 -13 32 c-7 18 -16 40 -19 50 -4 9 -11 17 -17 17 -5 0 -10 7
-10 15 0 17 -49 95 -59 95 -3 0 -18 -20 -33 -44z m290 -481 c9 -3 12 -23 10
-67 l-3 -63 -245 0 -245 0 -3 58 c-2 32 1 64 7 70 7 9 72 11 238 9 125 -2 234
-5 241 -7z m22 -182 c0 -26 0 -26 -20 -8 -16 14 -17 20 -8 27 22 13 28 9 28
-19z m-804 -105 c27 -68 51 -126 52 -130 2 -5 -10 -8 -26 -8 -23 0 -31 5 -36
25 -6 23 -11 25 -60 25 -49 0 -55 -2 -58 -22 -2 -17 -11 -24 -30 -26 -16 -2
-28 1 -28 5 0 8 41 113 85 221 9 20 21 32 33 32 14 0 29 -27 68 -122z m112 27
c2 -77 5 -92 23 -107 27 -23 44 -23 69 2 17 17 20 33 20 110 0 89 0 90 25 90
l25 0 0 -101 c0 -98 -1 -101 -29 -130 -23 -22 -39 -29 -70 -29 -47 0 -83 14
-98 39 -9 14 -19 171 -14 214 1 5 11 7 24 5 21 -3 22 -8 25 -93z m298 85 c68
0 98 -23 98 -74 0 -24 -7 -44 -21 -57 l-21 -21 24 -42 c30 -52 30 -56 -4 -56
-25 0 -32 7 -48 45 -15 39 -22 45 -47 45 -27 0 -28 -2 -25 -42 3 -40 1 -43
-25 -46 l-27 -3 0 132 0 131 23 -6 c12 -3 45 -6 73 -6z m142 -6 c-9 -9 -21
-13 -27 -10 -20 13 -11 26 16 26 25 0 26 -1 11 -16z m167 2 c51 -22 77 -69 72
-130 -4 -42 -10 -55 -41 -83 -30 -28 -43 -33 -86 -33 -43 0 -56 5 -86 33 -28
26 -37 42 -41 77 -5 58 20 109 67 132 43 22 70 22 115 4z m253 3 c17 -6 37
-19 42 -29 17 -31 12 -78 -11 -101 l-20 -20 25 -46 c15 -25 26 -47 26 -49 0
-2 -13 -4 -30 -4 -25 0 -32 6 -50 45 -16 36 -26 45 -45 45 -23 0 -25 -4 -25
-45 0 -41 -2 -45 -24 -45 -25 0 -25 0 -28 123 -2 67 -2 124 -1 127 3 10 109 9
141 -1z m265 -112 c26 -67 47 -125 47 -129 0 -5 -11 -8 -25 -8 -18 0 -26 7
-31 25 -6 23 -11 25 -60 25 -49 0 -54 -2 -60 -25 -5 -20 -13 -25 -36 -25 -16
0 -28 3 -26 8 2 4 25 62 52 130 67 165 74 165 139 -1z m-813 -142 c0 -7 -7
-12 -15 -12 -10 0 -15 10 -15 31 1 29 1 30 15 12 8 -11 15 -25 15 -31z m514
-7 c-12 -19 -24 -5 -24 25 l1 32 13 -25 c8 -14 12 -28 10 -32z m-134 17 c0
-21 -5 -25 -31 -25 l-30 0 28 25 c35 30 33 30 33 0z m-840 -5 c0 -16 -7 -20
-35 -20 -22 0 -35 5 -35 13 0 20 10 27 42 27 21 0 28 -5 28 -20z m1238 -2 c3
-15 -4 -18 -32 -18 -34 0 -47 15 -29 34 13 13 58 1 61 -16z m-914 -3 c4 -10
-1 -15 -16 -15 -17 0 -18 2 -8 15 7 8 14 15 15 15 2 0 5 -7 9 -15z m276 0 c10
-12 10 -15 -4 -15 -9 0 -16 7 -16 15 0 8 2 15 4 15 2 0 9 -7 16 -15z m728 -47
c-4 -10 -162 -13 -748 -13 -586 0 -744 3 -747 13 -4 9 150 12 747 12 597 0
751 -3 748 -12z"/>
<path d="M713 880 c-18 -7 -23 -17 -23 -49 0 -47 21 -64 76 -59 33 3 38 7 55
53 10 28 19 51 19 52 0 1 -8 2 -17 2 -10 -1 -34 2 -53 5 -19 3 -45 1 -57 -4z
m74 -15 c8 -22 -4 -30 -21 -16 -19 16 -36 6 -36 -19 0 -25 17 -35 36 -19 17
14 29 6 21 -16 -7 -18 -48 -20 -65 -3 -15 15 -15 61 0 76 17 17 58 15 65 -3z"/>
<path d="M880 827 l18 -52 49 -3 48 -3 21 55 22 55 -29 -1 c-18 -1 -29 -6 -29
-15 0 -10 -6 -12 -20 -8 -11 3 -20 2 -20 -3 0 -5 9 -12 21 -15 30 -8 22 -51
-10 -55 -29 -5 -50 13 -34 29 8 8 13 8 17 0 8 -13 26 -15 26 -3 0 4 -10 12
-22 17 -15 7 -22 18 -21 31 2 17 -4 21 -26 22 l-29 1 18 -52z"/>
<path d="M1063 868 c2 -7 10 -30 18 -50 14 -41 29 -50 29 -18 0 27 -27 80 -41
80 -6 0 -9 -6 -6 -12z"/>
<path d="M1040 834 c0 -8 5 -12 10 -9 6 4 8 11 5 16 -9 14 -15 11 -15 -7z"/>
<path d="M845 830 c3 -5 8 -10 11 -10 2 0 4 5 4 10 0 6 -5 10 -11 10 -5 0 -7
-4 -4 -10z"/>
<path d="M837 803 c-13 -12 -7 -23 13 -23 11 0 20 7 20 15 0 15 -21 21 -33 8z"/>
<path d="M1027 795 c-5 -11 0 -15 19 -15 16 0 24 5 22 13 -7 18 -35 20 -41 2z"/>
<path d="M271 622 c-7 -20 -15 -43 -17 -49 -4 -9 6 -13 31 -13 32 0 36 3 30
18 -4 9 -10 29 -13 45 -7 41 -18 41 -31 -1z"/>
<path d="M720 641 c0 -40 1 -41 33 -41 45 0 59 12 55 46 -3 26 -7 29 -45 32
l-43 3 0 -40z m55 -1 c-3 -5 -10 -10 -16 -10 -5 0 -9 5 -9 10 0 6 7 10 16 10
8 0 12 -4 9 -10z"/>
<path d="M984 668 c-47 -22 -56 -86 -19 -123 34 -35 86 -34 114 1 56 71 -14
161 -95 122z m66 -38 c11 -11 20 -23 20 -28 0 -17 -32 -52 -47 -52 -21 0 -53
29 -53 47 0 15 35 53 50 53 6 0 19 -9 30 -20z"/>
<path d="M1240 640 c0 -36 2 -40 26 -40 35 0 64 17 64 38 0 27 -20 42 -57 42
-32 0 -33 -1 -33 -40z"/>
<path d="M1516 648 c-3 -7 -6 -22 -9 -33 -3 -11 -8 -28 -12 -37 -6 -15 -1 -18
30 -18 31 0 36 3 30 18 -4 9 -11 32 -17 50 -10 34 -16 40 -22 20z"/>
<path d="M1015 1353 c-48 -36 -49 -61 0 -29 35 23 42 20 49 -19 4 -19 12 -37
18 -41 10 -6 9 5 -6 103 -4 23 -11 21 -61 -14z"/>
<path d="M1165 1269 c-61 -15 -70 -33 -13 -25 l48 7 -6 -48 c-8 -60 9 -48 25
19 6 26 11 49 11 52 0 8 -15 6 -65 -5z"/>
<path d="M993 1138 c-2 -5 1 -8 6 -8 6 0 17 -14 24 -32 9 -21 16 -28 21 -20 4
7 2 12 -3 12 -6 0 -11 9 -11 20 0 24 38 28 46 5 9 -22 19 -18 22 9 1 23 -1 24
-49 23 -28 -1 -53 -5 -56 -9z"/>
<path d="M1115 1140 c-4 -6 6 -10 24 -10 29 0 30 -2 24 -32 -4 -22 -3 -29 5
-24 7 4 12 13 12 19 1 33 16 39 61 26 24 -7 48 -19 52 -27 7 -10 12 -10 23 -1
30 25 14 36 -68 47 -101 15 -125 15 -133 2z"/>
<path d="M790 1129 c0 -5 5 -7 10 -4 6 3 10 8 10 11 0 2 -4 4 -10 4 -5 0 -10
-5 -10 -11z"/>
<path d="M955 1130 c3 -5 11 -10 16 -10 6 0 7 5 4 10 -3 6 -11 10 -16 10 -6 0
-7 -4 -4 -10z"/>
<path d="M1072 1060 c8 -13 15 -16 19 -8 10 15 2 28 -17 28 -12 0 -12 -4 -2
-20z"/>
<path d="M1110 1060 c0 -6 7 -10 15 -10 8 0 15 2 15 4 0 2 -7 6 -15 10 -8 3
-15 1 -15 -4z"/>
<path d="M1320 1059 c-64 -4 -139 -15 -170 -25 -30 -10 -58 -17 -62 -16 -3 1
-9 -5 -12 -13 -4 -12 0 -14 17 -10 12 3 51 12 87 20 36 8 109 15 162 15 59 0
99 4 104 11 13 21 -12 24 -126 18z"/>
<path d="M515 925 c17 -7 32 -11 35 -9 7 8 -24 24 -45 23 -15 0 -13 -4 10 -14z"/>
</g>
</svg>
