<?xml version="1.0" standalone="no"?>
<!DOCTYPE svg PUBLIC "-//W3C//DTD SVG 20010904//EN"
 "http://www.w3.org/TR/2001/REC-SVG-20010904/DTD/svg10.dtd">
<svg version="1.0" xmlns="http://www.w3.org/2000/svg"
 width="192.000000pt" height="192.000000pt" viewBox="0 0 192.000000 192.000000"
 preserveAspectRatio="xMidYMid meet">
<metadata>
Created by potrace 1.16, written by Peter Selinger 2001-2019
</metadata>
<g transform="translate(0.000000,192.000000) scale(0.100000,-0.100000)"
fill="#000000" stroke="none">
<path d="M750 1650 c-11 -11 -20 -27 -20 -36 0 -24 89 -237 108 -258 61 -67
185 -58 231 18 28 46 92 207 93 234 1 46 -60 79 -100 54 -7 -5 -32 -55 -57
-113 -24 -57 -50 -105 -57 -107 -8 -1 -28 35 -52 95 -21 54 -45 106 -54 116
-20 23 -67 22 -92 -3z m90 -50 c16 -31 20 -59 20 -132 0 -51 -4 -88 -8 -83
-11 13 -92 207 -92 221 0 16 22 34 42 34 10 0 26 -16 38 -40z m288 23 c9 -16
-1 -63 -18 -88 -4 -5 -17 -38 -30 -73 -25 -70 -74 -121 -118 -123 -77 -4 -92
14 -91 105 l1 71 21 -48 c20 -45 23 -48 56 -45 33 3 35 6 74 98 21 52 44 101
49 108 15 17 45 15 56 -5z"/>
<path d="M537 1562 c-25 -27 -22 -46 24 -160 23 -57 39 -106 35 -109 -4 -4
-53 12 -109 35 -114 47 -123 49 -155 26 -27 -19 -30 -74 -4 -96 30 -27 219
-98 259 -98 74 0 143 68 143 141 0 35 -65 210 -95 256 -19 29 -74 32 -98 5z
m120 -121 c26 -62 43 -117 43 -141 0 -47 -33 -90 -84 -108 -33 -12 -42 -11
-143 30 -122 49 -149 68 -133 98 15 27 32 25 130 -15 46 -19 99 -35 117 -35
30 0 33 3 33 30 0 17 -16 69 -35 117 -40 98 -42 118 -18 132 29 16 44 -2 90
-108z"/>
<path d="M1268 1563 c-28 -32 -99 -216 -100 -259 -1 -81 60 -144 141 -144 51
0 257 84 271 110 16 29 12 58 -10 80 -28 28 -48 25 -157 -21 -52 -22 -101 -38
-108 -35 -10 4 -3 31 31 110 47 111 50 147 14 166 -29 15 -65 12 -82 -7z m72
-28 c10 -12 5 -34 -30 -118 -23 -57 -40 -112 -38 -123 6 -33 61 -30 159 11 88
37 114 39 125 10 6 -16 -21 -55 -38 -55 -6 0 -37 -13 -71 -28 -130 -60 -160
-61 -219 -5 -46 43 -45 76 3 194 23 57 47 110 52 117 13 17 42 15 57 -3z"/>
<path d="M253 1150 c-25 -10 -38 -48 -29 -84 5 -19 27 -32 113 -68 60 -25 108
-51 108 -57 0 -7 -43 -31 -95 -52 -52 -22 -102 -47 -112 -56 -33 -30 -18 -90
27 -107 27 -10 238 78 275 116 54 53 52 146 -3 199 -19 19 -75 49 -140 75
-117 48 -112 47 -144 34z m123 -56 c148 -59 174 -83 174 -159 0 -57 -42 -94
-164 -144 -87 -35 -109 -41 -121 -31 -20 17 -19 47 3 61 9 6 58 27 107 47 89
37 90 38 90 72 0 34 -1 35 -90 72 -113 48 -119 51 -123 72 -4 17 14 46 27 46
4 0 47 -16 97 -36z"/>
<path d="M1490 1114 c-57 -25 -113 -53 -123 -62 -62 -56 -63 -169 -1 -223 11
-9 70 -37 132 -63 102 -43 115 -46 139 -34 15 7 32 25 37 40 16 46 -11 72
-124 115 -64 25 -100 43 -100 53 0 10 35 29 101 54 98 39 129 62 129 99 0 23
-44 67 -67 66 -10 0 -65 -21 -123 -45z m150 1 c22 -27 2 -52 -63 -78 -122 -49
-147 -62 -153 -79 -9 -31 5 -54 43 -69 134 -51 178 -75 181 -96 2 -13 -4 -26
-16 -32 -16 -8 -40 -2 -118 29 -122 50 -137 60 -158 105 -37 77 1 128 139 189
111 49 127 52 145 31z"/>
<path d="M430 674 c-57 -25 -108 -50 -112 -57 -5 -7 -7 -28 -6 -47 2 -25 10
-38 30 -49 25 -15 33 -13 130 27 105 43 128 49 128 33 0 -5 -18 -52 -40 -105
-44 -107 -47 -122 -24 -154 19 -27 74 -30 95 -4 9 9 35 65 58 125 54 133 54
179 -2 235 -32 32 -43 36 -94 39 -50 2 -72 -4 -163 -43z m198 10 c85 -42 91
-99 28 -246 -41 -96 -46 -103 -72 -103 -41 0 -41 22 0 126 66 164 47 185 -109
120 -110 -46 -120 -48 -134 -24 -16 30 5 49 96 87 48 20 97 41 108 46 30 13
48 12 83 -6z"/>
<path d="M1233 700 c-41 -24 -64 -69 -64 -123 -1 -44 68 -225 99 -259 17 -20
53 -23 82 -8 36 19 33 55 -14 166 -36 84 -42 106 -30 111 8 3 57 -13 110 -36
52 -22 103 -41 113 -41 26 0 61 37 61 64 0 38 -29 61 -135 105 -114 47 -171
52 -222 21z m156 -25 c34 -14 70 -30 79 -34 9 -5 34 -16 55 -25 39 -17 49 -44
23 -65 -16 -14 -56 -3 -160 43 -65 29 -86 32 -104 14 -19 -19 -15 -35 29 -146
34 -85 39 -105 29 -118 -8 -8 -23 -14 -34 -12 -16 2 -32 28 -69 113 -62 144
-58 184 28 236 39 24 49 24 124 -6z"/>
<path d="M875 552 c-16 -11 -35 -25 -42 -33 -17 -21 -103 -228 -103 -249 0
-24 37 -60 63 -60 41 0 61 26 102 129 25 64 45 100 53 99 7 -2 31 -45 53 -97
44 -106 62 -131 94 -131 32 0 68 32 67 61 0 13 -21 75 -47 137 -39 93 -54 117
-84 137 -44 31 -112 33 -156 7z m113 -16 c41 -22 68 -56 92 -116 11 -30 27
-68 34 -85 22 -49 24 -59 14 -77 -12 -25 -45 -22 -61 5 -8 12 -29 59 -48 105
-18 46 -41 88 -50 92 -29 16 -55 0 -76 -48 l-21 -47 -1 71 c-1 56 3 74 17 86
34 30 62 34 100 14z m-148 -256 c-16 -31 -26 -40 -42 -38 -51 8 -46 39 36 218
l21 45 3 -92 c2 -78 -1 -99 -18 -133z"/>
</g>
</svg>
