<?xml version="1.0" standalone="no"?>
<!DOCTYPE svg PUBLIC "-//W3C//DTD SVG 20010904//EN"
 "http://www.w3.org/TR/2001/REC-SVG-20010904/DTD/svg10.dtd">
<svg version="1.0" xmlns="http://www.w3.org/2000/svg"
 width="100.000000pt" height="100.000000pt" viewBox="0 0 100.000000 100.000000"
 preserveAspectRatio="xMidYMid meet">
<metadata>
Created by potrace 1.16, written by Peter Selinger 2001-2019
</metadata>
<g transform="translate(0.000000,100.000000) scale(0.100000,-0.100000)"
fill="#000000" stroke="none">
<path d="M15 638 c-2 -7 -5 -68 -7 -136 -2 -92 0 -122 10 -122 6 0 12 -9 12
-20 0 -11 7 -20 15 -20 10 0 15 -10 15 -30 0 -27 -3 -30 -30 -30 -17 0 -30 -5
-30 -11 0 -6 16 -9 38 -7 37 3 37 3 37 48 l0 45 455 5 455 5 0 140 0 140 -483
3 c-381 2 -483 0 -487 -10z m955 -133 l0 -125 -470 0 -470 0 0 125 0 125 470
0 470 0 0 -125z"/>
</g>
</svg>
