<?xml version="1.0" standalone="no"?>
<!DOCTYPE svg PUBLIC "-//W3C//DTD SVG 20010904//EN"
 "http://www.w3.org/TR/2001/REC-SVG-20010904/DTD/svg10.dtd">
<svg version="1.0" xmlns="http://www.w3.org/2000/svg"
 width="100.000000pt" height="100.000000pt" viewBox="0 0 100.000000 100.000000"
 preserveAspectRatio="xMidYMid meet">
<metadata>
Created by potrace 1.16, written by Peter Selinger 2001-2019
</metadata>
<g transform="translate(0.000000,100.000000) scale(0.100000,-0.100000)"
fill="#000000" stroke="none">
<path d="M750 900 c0 -13 -7 -20 -20 -20 -15 0 -20 -7 -20 -25 0 -18 -5 -25
-20 -25 -17 0 -20 -7 -20 -40 0 -33 3 -40 20 -40 13 0 20 7 20 20 0 12 -7 20
-16 20 -14 0 -15 2 -3 17 13 15 14 15 17 0 5 -25 42 -22 42 3 0 17 7 20 40 20
l40 0 0 45 0 45 -40 0 c-33 0 -40 -3 -40 -20z m65 -10 c4 -6 -5 -10 -19 -10
-14 0 -26 5 -26 10 0 6 9 10 19 10 11 0 23 -4 26 -10z m-25 -30 c0 -5 -4 -10
-10 -10 -5 0 -10 5 -10 10 0 6 5 10 10 10 6 0 10 -4 10 -10z"/>
<path d="M670 865 c0 -8 2 -15 4 -15 2 0 6 7 10 15 3 8 1 15 -4 15 -6 0 -10
-7 -10 -15z"/>
<path d="M852 868 c6 -18 28 -21 28 -4 0 9 -7 16 -16 16 -9 0 -14 -5 -12 -12z"/>
<path d="M830 790 c0 -33 3 -40 20 -40 25 0 25 9 3 26 -17 12 -16 13 5 14 15
0 22 6 22 20 0 15 -7 20 -25 20 -22 0 -25 -4 -25 -40z"/>
<path d="M900 820 c0 -5 5 -10 10 -10 6 0 10 5 10 10 0 6 -4 10 -10 10 -5 0
-10 -4 -10 -10z"/>
<path d="M790 805 c0 -8 7 -15 16 -15 14 0 14 3 4 15 -7 8 -14 15 -16 15 -2 0
-4 -7 -4 -15z"/>
<path d="M620 740 c0 -33 4 -50 13 -50 8 0 12 17 12 50 0 34 -4 50 -12 50 -9
0 -13 -16 -13 -50z"/>
<path d="M880 750 c0 -30 4 -40 16 -40 14 0 15 -2 3 -17 -13 -15 -14 -15 -17
0 -5 25 -92 24 -92 0 0 -13 3 -14 12 -5 16 16 28 15 28 -3 0 -11 12 -15 45
-15 l45 0 0 60 c0 53 -2 60 -20 60 -17 0 -20 -7 -20 -40z"/>
<path d="M730 760 c0 -5 5 -10 10 -10 6 0 10 5 10 10 0 6 -4 10 -10 10 -5 0
-10 -4 -10 -10z"/>
<path d="M580 699 c0 -5 5 -7 10 -4 6 3 10 8 10 11 0 2 -4 4 -10 4 -5 0 -10
-5 -10 -11z"/>
<path d="M670 696 c0 -9 8 -12 25 -9 45 9 55 -15 55 -126 0 -94 1 -101 20
-101 19 0 20 -7 20 -120 0 -81 -4 -120 -11 -120 -6 0 -9 7 -5 15 3 9 0 15 -9
15 -8 0 -15 -9 -15 -20 0 -13 -7 -20 -20 -20 -18 0 -20 7 -20 60 0 38 -4 60
-11 60 -6 0 -9 -9 -6 -20 3 -13 0 -20 -9 -20 -11 0 -14 31 -14 170 0 163 1
170 20 170 13 0 20 7 20 20 0 18 -7 20 -65 20 -58 0 -65 -2 -65 -20 0 -13 -7
-20 -20 -20 -15 0 -20 -7 -20 -25 0 -18 5 -25 20 -25 18 0 20 -7 20 -80 0 -59
3 -80 13 -80 10 0 12 17 10 68 -2 37 -6 73 -8 80 -2 6 2 12 10 12 13 0 15 -27
15 -165 l0 -165 41 0 c25 0 38 -4 34 -10 -4 -6 -11 -8 -16 -5 -5 4 -9 -1 -9
-9 0 -12 -11 -16 -45 -16 l-45 0 0 40 c0 22 4 40 8 40 12 0 14 108 2 115 -5 3
-10 1 -10 -5 0 -6 -4 -8 -10 -5 -5 3 -10 1 -10 -4 0 -6 5 -11 10 -11 6 0 10
-20 10 -45 0 -25 -4 -45 -8 -45 -4 0 -9 -19 -9 -42 -1 -24 -7 -44 -13 -46 -5
-2 -10 -8 -10 -13 0 -6 5 -7 12 -3 6 4 36 6 65 5 33 -2 53 2 53 8 0 6 9 11 20
11 11 0 20 -4 20 -10 0 -5 9 -10 20 -10 11 0 20 5 20 10 0 6 18 10 40 10 30 0
40 4 40 16 0 10 -6 14 -15 10 -8 -3 -15 -1 -15 4 0 6 18 10 40 10 l40 0 0 105
c0 101 -1 105 -22 105 -20 0 -21 -1 -3 -20 18 -19 17 -20 -3 -20 -21 0 -22 4
-22 101 0 71 -3 98 -11 93 -7 -4 -9 -21 -6 -40 3 -19 2 -34 -3 -34 -5 0 -7 -7
-4 -15 7 -16 -23 -51 -34 -40 -4 4 -1 10 6 12 19 7 17 133 -3 133 -8 0 -15 4
-15 9 0 5 7 11 15 15 9 3 15 0 15 -9 0 -8 9 -15 20 -15 13 0 20 7 20 20 0 17
-7 20 -40 20 -33 0 -40 3 -40 20 0 17 -7 20 -40 20 -27 0 -40 -4 -40 -14z
m-50 -56 c0 -5 -4 -10 -10 -10 -5 0 -10 5 -10 10 0 6 5 10 10 10 6 0 10 -4 10
-10z m28 -167 l-2 -178 -3 153 c-3 143 -5 152 -23 152 -18 0 -18 1 3 24 12 13
23 24 25 25 1 1 1 -79 0 -176z m209 -140 c-2 -16 -4 -5 -4 22 0 28 2 40 4 28
2 -13 2 -35 0 -50z m-27 2 c0 -30 -4 -45 -13 -45 -8 0 -12 15 -12 45 0 29 4
45 13 45 8 0 12 -16 12 -45z m30 -55 c0 -5 -7 -10 -16 -10 -8 0 -12 5 -9 10 3
6 10 10 16 10 5 0 9 -4 9 -10z"/>
<path d="M540 654 c0 -14 3 -14 15 -4 8 7 15 14 15 16 0 2 -7 4 -15 4 -8 0
-15 -7 -15 -16z"/>
<path d="M854 645 c-19 -14 -18 -14 4 -15 13 0 22 6 22 15 0 19 -1 19 -26 0z"/>
<path d="M210 615 c0 -18 12 -19 28 -3 9 9 12 9 12 -1 0 -9 9 -12 29 -8 15 3
33 1 40 -6 8 -8 11 -6 11 11 0 20 -5 22 -60 22 -47 0 -60 -3 -60 -15z"/>
<path d="M460 609 c0 -17 3 -19 14 -10 7 6 20 9 28 6 9 -4 18 1 21 9 5 13 -1
16 -28 16 -29 0 -35 -4 -35 -21z"/>
<path d="M695 601 c-5 -10 -4 -16 3 -19 7 -2 12 -12 12 -23 0 -10 5 -19 10
-19 6 0 10 9 10 20 0 11 -4 20 -9 20 -5 0 -11 8 -13 18 -3 14 -5 15 -13 3z"/>
<path d="M120 570 c0 -5 7 -10 15 -10 8 0 15 5 15 10 0 6 -7 10 -15 10 -8 0
-15 -4 -15 -10z"/>
<path d="M170 560 c0 -15 -7 -20 -25 -20 -22 0 -25 -4 -25 -40 0 -29 -4 -40
-15 -40 -13 0 -14 4 -5 20 9 16 8 20 -5 20 -12 0 -15 -15 -15 -85 0 -69 3 -85
15 -85 11 0 14 7 9 25 -4 15 -2 25 5 25 6 0 11 -19 11 -45 0 -41 2 -45 25 -45
18 0 25 -5 25 -20 0 -19 7 -20 125 -20 118 0 125 1 125 20 0 17 7 20 40 20
l40 0 0 45 c0 25 5 45 10 45 6 0 10 -20 10 -45 0 -25 -4 -45 -10 -45 -5 0 -10
-7 -10 -15 0 -13 -4 -14 -20 -5 -16 9 -20 8 -20 -5 0 -8 9 -15 20 -15 13 0 20
-7 20 -20 0 -13 7 -20 20 -20 19 0 20 7 20 105 0 98 -1 105 -20 105 -18 0 -20
7 -20 80 0 73 -2 80 -20 80 -13 0 -20 -7 -20 -20 0 -13 -7 -20 -20 -20 -13 0
-20 -7 -20 -20 0 -15 -7 -20 -25 -20 -22 0 -25 -4 -25 -40 0 -30 -4 -40 -16
-40 -11 0 -14 6 -9 20 4 11 2 20 -4 20 -7 0 -11 -31 -11 -85 l0 -85 -60 0
c-53 0 -60 2 -60 20 0 13 -7 20 -20 20 -18 0 -20 7 -20 85 0 78 2 85 20 85 13
0 20 7 20 20 0 18 7 20 60 20 53 0 60 2 60 20 0 18 -7 20 -80 20 -73 0 -80 -2
-80 -20z m40 -4 c0 -3 -4 -8 -10 -11 -5 -3 -10 -1 -10 4 0 6 5 11 10 11 6 0
10 -2 10 -4z m270 -56 c0 -13 -7 -20 -20 -20 -13 0 -20 7 -20 20 0 13 7 20 20
20 13 0 20 -7 20 -20z m-70 -24 c0 -3 -4 -8 -10 -11 -5 -3 -10 -1 -10 4 0 6 5
11 10 11 6 0 10 -2 10 -4z m-262 -57 c1 -27 -3 -39 -11 -36 -17 5 -21 45 -7
63 17 20 18 19 18 -27z m312 1 c0 -33 -3 -40 -20 -40 -17 0 -20 7 -20 40 0 33
3 40 20 40 17 0 20 -7 20 -40z m-60 -34 c0 -19 5 -38 10 -41 6 -3 10 -2 10 3
0 5 9 12 20 15 15 4 20 0 20 -14 0 -16 -7 -19 -45 -19 -38 0 -45 -3 -45 -20 0
-11 -4 -20 -10 -20 -5 0 -10 9 -10 20 0 11 5 20 10 20 6 0 10 11 10 25 0 14
-4 25 -10 25 -5 0 -10 5 -10 10 0 6 7 10 15 10 8 0 15 5 15 10 0 6 5 10 10 10
6 0 10 -15 10 -34z m-253 -63 c-3 -10 -5 -4 -5 12 0 17 2 24 5 18 2 -7 2 -21
0 -30z m253 -33 c0 -11 -4 -20 -9 -20 -5 0 -7 9 -4 20 3 11 7 20 9 20 2 0 4
-9 4 -20z m130 -50 c0 -5 -2 -10 -4 -10 -3 0 -8 5 -11 10 -3 6 -1 10 4 10 6 0
11 -4 11 -10z"/>
<path d="M435 430 c-3 -5 -1 -10 4 -10 6 0 11 5 11 10 0 6 -2 10 -4 10 -3 0
-8 -4 -11 -10z"/>
<path d="M350 560 c0 -11 5 -20 10 -20 6 0 10 -7 10 -15 0 -9 6 -12 15 -9 8 4
15 10 15 15 0 5 -7 9 -15 9 -8 0 -15 9 -15 20 0 11 -4 20 -10 20 -5 0 -10 -9
-10 -20z"/>
<path d="M420 564 c0 -14 3 -14 15 -4 8 7 15 14 15 16 0 2 -7 4 -15 4 -8 0
-15 -7 -15 -16z"/>
<path d="M516 555 c-3 -9 0 -15 9 -15 8 0 15 7 15 15 0 8 -4 15 -9 15 -5 0
-11 -7 -15 -15z"/>
<path d="M80 530 c0 -5 5 -10 10 -10 6 0 10 5 10 10 0 6 -4 10 -10 10 -5 0
-10 -4 -10 -10z"/>
<path d="M710 516 c0 -9 5 -16 10 -16 6 0 10 4 10 9 0 6 -4 13 -10 16 -5 3
-10 -1 -10 -9z"/>
<path d="M230 510 c0 -5 5 -10 10 -10 6 0 10 5 10 10 0 6 -4 10 -10 10 -5 0
-10 -4 -10 -10z"/>
<path d="M330 510 c0 -5 5 -10 11 -10 5 0 7 5 4 10 -3 6 -8 10 -11 10 -2 0 -4
-4 -4 -10z"/>
<path d="M520 510 c0 -5 5 -10 10 -10 6 0 10 5 10 10 0 6 -4 10 -10 10 -5 0
-10 -4 -10 -10z"/>
<path d="M190 470 c0 -5 5 -10 10 -10 6 0 10 5 10 10 0 6 -4 10 -10 10 -5 0
-10 -4 -10 -10z"/>
<path d="M521 444 c8 -10 15 -12 17 -5 2 6 8 9 12 6 5 -3 11 -1 15 5 4 6 -7
10 -26 10 -28 0 -30 -2 -18 -16z"/>
<path d="M750 436 c0 -9 5 -16 10 -16 6 0 10 4 10 9 0 6 -4 13 -10 16 -5 3
-10 -1 -10 -9z"/>
<path d="M695 410 c3 -5 8 -10 11 -10 2 0 4 5 4 10 0 6 -5 10 -11 10 -5 0 -7
-4 -4 -10z"/>
<path d="M190 365 c0 -8 5 -15 10 -15 6 0 10 7 10 15 0 8 -4 15 -10 15 -5 0
-10 -7 -10 -15z"/>
<path d="M690 366 c0 -8 5 -18 10 -21 6 -3 10 3 10 14 0 12 -4 21 -10 21 -5 0
-10 -6 -10 -14z"/>
<path d="M900 335 c0 -25 5 -45 10 -45 6 0 10 20 10 45 0 25 -4 45 -10 45 -5
0 -10 -20 -10 -45z"/>
<path d="M230 320 c0 -5 5 -10 10 -10 6 0 10 5 10 10 0 6 -4 10 -10 10 -5 0
-10 -4 -10 -10z"/>
<path d="M290 320 c0 -5 5 -10 10 -10 6 0 10 5 10 10 0 6 -4 10 -10 10 -5 0
-10 -4 -10 -10z"/>
<path d="M80 300 c0 -5 5 -10 10 -10 6 0 10 5 10 10 0 6 -4 10 -10 10 -5 0
-10 -4 -10 -10z"/>
<path d="M750 274 c0 -8 5 -12 10 -9 6 3 10 10 10 16 0 5 -4 9 -10 9 -5 0 -10
-7 -10 -16z"/>
<path d="M120 265 c0 -8 9 -15 20 -15 11 0 20 2 20 5 0 2 -9 9 -20 15 -16 9
-20 8 -20 -5z"/>
<path d="M210 225 c0 -11 -11 -15 -45 -15 -25 0 -45 -4 -45 -10 0 -5 20 -10
45 -10 25 0 45 5 45 10 0 6 27 10 60 10 41 0 60 4 60 13 0 7 -15 12 -40 12
-22 0 -40 -4 -40 -8 0 -4 -9 -3 -20 3 -16 9 -20 8 -20 -5z"/>
<path d="M410 237 c-3 -3 -17 -7 -32 -9 -45 -6 -44 -18 0 -18 23 0 42 -4 42
-10 0 -5 9 -10 20 -10 11 0 20 5 20 10 0 6 -9 10 -19 10 -11 0 -21 7 -23 16
-2 9 -5 13 -8 11z"/>
<path d="M80 199 c0 -5 5 -7 10 -4 6 3 10 8 10 11 0 2 -4 4 -10 4 -5 0 -10 -5
-10 -11z"/>
<path d="M475 200 c3 -5 11 -10 16 -10 6 0 7 5 4 10 -3 6 -11 10 -16 10 -6 0
-7 -4 -4 -10z"/>
<path d="M850 201 c0 -5 16 -9 35 -8 19 1 35 5 35 9 0 4 -16 8 -35 8 -19 0
-35 -4 -35 -9z"/>
<path d="M80 125 l0 -45 45 0 c48 0 61 15 20 22 -14 3 -25 1 -25 -3 0 -5 -4
-9 -10 -9 -5 0 -10 18 -10 40 0 22 -4 40 -10 40 -5 0 -10 -20 -10 -45z"/>
<path d="M120 145 c0 -25 1 -25 85 -25 69 0 85 3 85 15 0 8 9 15 20 15 11 0
20 -7 20 -15 0 -12 14 -15 65 -15 46 0 65 -4 65 -13 0 -8 -13 -12 -35 -12 -20
1 -38 -2 -41 -7 -3 -4 108 -8 245 -8 l251 0 0 45 0 45 -150 0 -150 0 0 -25 c0
-16 -6 -25 -15 -25 -8 0 -15 -4 -15 -10 0 -5 -11 -10 -25 -10 -14 0 -25 5 -25
10 0 6 9 10 20 10 15 0 20 7 20 25 l0 25 -210 0 -210 0 0 -25z m500 -1 c0 -8
-5 -12 -10 -9 -6 4 -8 11 -5 16 9 14 15 11 15 -7z m170 -5 c0 -16 7 -19 41
-19 23 0 38 -4 34 -10 -3 -5 -56 -9 -118 -9 -62 0 -124 -3 -139 -6 -21 -4 -28
-1 -28 10 0 12 16 15 85 15 75 0 85 2 85 18 0 11 8 18 20 19 14 1 20 -4 20
-18z m-587 4 c-7 -2 -19 -2 -25 0 -7 3 -2 5 12 5 14 0 19 -2 13 -5z m210 0
c-7 -2 -21 -2 -30 0 -10 3 -4 5 12 5 17 0 24 -2 18 -5z m107 3 c0 -3 -4 -8
-10 -11 -5 -3 -10 -1 -10 4 0 6 5 11 10 11 6 0 10 -2 10 -4z m150 -6 c0 -5 -7
-7 -15 -4 -8 4 -15 8 -15 10 0 2 7 4 15 4 8 0 15 -4 15 -10z m60 0 c0 -5 -4
-10 -10 -10 -5 0 -10 5 -10 10 0 6 5 10 10 10 6 0 10 -4 10 -10z m127 4 c-3
-3 -12 -4 -19 -1 -8 3 -5 6 6 6 11 1 17 -2 13 -5z"/>
<path d="M900 125 c0 -25 5 -45 10 -45 6 0 10 20 10 45 0 25 -4 45 -10 45 -5
0 -10 -20 -10 -45z"/>
<path d="M290 109 c0 -8 -14 -10 -40 -6 -30 4 -40 2 -40 -9 0 -11 18 -14 80
-14 65 0 80 3 80 15 0 13 -4 14 -20 5 -16 -9 -20 -8 -20 5 0 8 -9 15 -20 15
-11 0 -20 -5 -20 -11z"/>
</g>
</svg>
