<?xml version="1.0" standalone="no"?>
<!DOCTYPE svg PUBLIC "-//W3C//DTD SVG 20010904//EN"
 "http://www.w3.org/TR/2001/REC-SVG-20010904/DTD/svg10.dtd">
<svg version="1.0" xmlns="http://www.w3.org/2000/svg"
 width="256.000000pt" height="256.000000pt" viewBox="0 0 256.000000 256.000000"
 preserveAspectRatio="xMidYMid meet">
<metadata>
Created by potrace 1.16, written by Peter Selinger 2001-2019
</metadata>
<g transform="translate(0.000000,256.000000) scale(0.100000,-0.100000)"
fill="#000000" stroke="none">
<path d="M1178 2085 c-3 -3 -31 -7 -64 -9 -32 -2 -65 -5 -72 -5 -7 -1 -10 -5
-7 -11 6 -10 -13 -15 -48 -12 -10 1 -16 -1 -13 -6 2 -4 -13 -15 -35 -24 -21
-9 -39 -12 -39 -7 0 5 -5 9 -11 9 -6 0 -9 -7 -5 -15 7 -19 -29 -40 -40 -23 -4
6 -3 8 4 4 6 -3 13 -3 16 2 2 4 -6 8 -19 8 -19 0 -22 -3 -14 -17 9 -18 -3 -35
-19 -25 -4 2 -17 -9 -27 -25 -18 -26 -45 -44 -30 -19 3 6 0 10 -8 10 -22 0
-28 -12 -15 -29 7 -9 9 -13 5 -10 -4 4 -21 -7 -37 -23 -17 -16 -34 -27 -39
-23 -5 3 -13 0 -17 -6 -4 -8 -3 -9 4 -5 21 13 13 -22 -10 -44 -12 -11 -18 -20
-14 -20 4 0 -4 -15 -18 -32 -40 -50 -40 -50 -60 -95 -10 -23 -23 -40 -28 -37
-5 3 -6 -7 -3 -23 5 -23 4 -25 -5 -13 -10 13 -11 12 -6 -3 3 -10 -1 -46 -9
-80 -29 -127 -29 -259 1 -395 3 -17 2 -22 -3 -15 -6 8 -9 -5 -9 -36 0 -37 3
-45 12 -37 8 7 9 17 3 28 -6 11 -5 19 3 24 6 4 8 3 5 -3 -3 -5 3 -24 13 -41
11 -18 15 -32 10 -32 -6 0 -10 5 -10 11 0 5 -4 7 -10 4 -5 -3 -10 -11 -10 -16
0 -6 4 -8 8 -5 12 7 26 -5 49 -46 13 -21 18 -40 12 -43 -6 -4 -5 -13 1 -25 14
-26 13 -50 -1 -30 -8 12 -10 12 -7 1 2 -8 14 -16 26 -17 l21 -4 -22 37 c-11
20 -16 34 -10 30 7 -4 22 -25 34 -47 12 -22 27 -36 32 -33 6 4 7 -5 3 -22 -7
-26 -6 -27 10 -14 16 13 16 12 6 -6 -9 -17 -7 -21 8 -21 10 0 16 4 14 8 -3 4
2 5 10 2 9 -3 14 -9 11 -14 -2 -4 7 -17 20 -28 29 -25 33 -47 8 -37 -14 5 -15
3 -7 -5 9 -9 18 -9 35 0 13 7 21 9 17 5 -8 -8 65 -58 102 -70 18 -6 20 -9 9
-17 -10 -6 -7 -7 10 -3 13 4 26 3 30 -2 12 -17 60 -43 79 -43 11 0 35 -6 53
-14 45 -18 169 -30 169 -16 0 5 -12 10 -26 10 -14 0 -63 9 -109 21 -151 37
-290 118 -384 223 -14 16 -39 43 -54 60 -42 47 -124 222 -142 306 -45 207 -6
422 110 602 125 193 322 314 573 353 l42 7 0 -195 c0 -208 0 -207 -49 -207
-38 0 -160 -71 -200 -117 -170 -193 -132 -472 84 -608 50 -31 115 -55 151 -55
18 0 19 -10 16 -206 -2 -140 0 -204 8 -199 6 4 10 77 10 201 0 187 1 194 20
194 19 0 20 -7 20 -189 0 -104 2 -196 5 -203 5 -11 20 -13 73 -7 37 4 81 10
97 14 20 4 26 4 16 -3 -9 -7 0 -9 29 -7 22 1 46 7 53 14 6 6 7 11 1 11 -6 0
-15 -5 -22 -12 -9 -9 -15 -9 -24 1 -11 10 -10 11 5 6 10 -5 17 -2 17 5 0 8 9
11 26 7 18 -3 24 -1 20 9 -3 8 -2 13 2 12 15 -5 71 25 65 35 -4 6 -1 7 7 2 7
-4 23 -9 35 -11 17 -1 21 2 18 15 -2 9 6 25 19 36 13 12 17 13 10 4 -6 -9 -8
-20 -4 -24 4 -5 1 -5 -5 -1 -7 4 -13 2 -13 -3 0 -6 5 -11 11 -11 5 0 7 -6 3
-13 -4 -7 -3 -9 2 -4 5 5 9 16 9 25 0 28 30 63 48 56 25 -9 40 5 25 24 -7 10
-9 14 -5 11 4 -4 21 7 37 23 17 17 35 26 41 22 7 -4 9 -3 5 4 -3 6 -2 13 4 17
6 4 8 11 4 16 -3 5 6 19 20 30 15 11 24 24 21 28 -2 5 3 15 13 24 16 14 17 13
18 -11 1 -15 -1 -21 -3 -14 -3 6 -9 12 -15 12 -6 0 -6 -6 2 -15 19 -23 30 -8
25 34 -4 28 3 51 25 95 17 31 30 66 30 77 0 10 7 19 15 19 8 0 15 8 15 18 0
15 -2 15 -11 2 -8 -12 -9 -10 -5 10 23 99 28 164 22 270 -4 63 -8 125 -8 137
0 13 -4 20 -9 17 -13 -8 -11 10 4 25 8 10 9 12 0 7 -8 -4 -16 7 -23 32 -5 22
-21 56 -35 77 -14 20 -24 42 -22 49 2 6 -2 23 -9 38 -8 14 -10 28 -6 31 4 2 1
2 -5 1 -7 -2 -13 2 -13 8 0 6 -2 9 -5 6 -3 -3 4 -23 16 -44 11 -22 14 -30 5
-19 -9 11 -24 29 -33 40 -10 11 -17 22 -16 25 2 14 -10 29 -19 24 -6 -4 -6 1
1 13 13 26 4 35 -22 22 -12 -7 -17 -7 -13 -1 3 6 -7 21 -23 34 -19 17 -26 29
-21 39 6 10 1 14 -17 16 -19 1 -22 -1 -12 -8 8 -5 10 -9 4 -9 -12 0 -43 20
-32 20 22 0 -58 50 -143 89 -130 60 -125 59 -212 70 -87 10 -119 6 -111 -15 3
-9 -2 -14 -18 -14 -12 0 -19 -3 -15 -7 4 -5 13 -8 19 -8 5 0 12 -6 15 -14 3
-10 -1 -12 -17 -8 -19 5 -21 1 -20 -31 2 -31 3 -32 6 -9 2 15 8 27 13 27 5 0
11 -78 12 -172 l3 -173 48 -7 c27 -4 52 -9 55 -13 3 -3 -12 -3 -35 1 -22 3
-43 2 -46 -3 -3 -5 6 -8 21 -8 15 1 45 -5 67 -12 36 -12 38 -11 21 2 -11 8
-15 15 -9 15 12 0 100 -66 128 -96 42 -46 56 -67 58 -85 1 -10 4 -19 7 -19 3
0 12 -16 19 -35 10 -27 10 -43 1 -70 -6 -19 -9 -45 -7 -57 3 -18 5 -17 6 7 1
17 6 37 11 45 7 10 8 -2 6 -41 -6 -75 -24 -140 -44 -157 -12 -9 -12 -11 -2 -6
13 7 13 5 1 -9 -7 -9 -17 -14 -22 -11 -5 3 -6 -1 -3 -9 2 -7 -8 -26 -23 -42
-15 -16 -21 -25 -13 -20 9 5 12 5 7 -1 -5 -5 -14 -9 -20 -9 -7 -1 -11 -7 -9
-15 2 -8 0 -12 -4 -8 -4 4 -20 -2 -35 -13 -16 -11 -33 -17 -39 -14 -6 4 -7 -1
-3 -12 6 -16 5 -17 -12 -3 -10 8 -16 10 -12 4 4 -7 0 -14 -8 -18 -10 -3 -15 1
-15 12 0 10 -3 13 -8 6 -7 -11 -42 -15 -42 -5 0 3 -21 6 -48 7 -26 0 -37 -1
-24 -3 12 -3 20 -8 17 -13 -3 -5 -13 -6 -23 -3 -14 5 -15 4 -4 -8 9 -10 17
-11 30 -2 11 6 33 8 57 3 30 -6 34 -8 15 -10 -14 -1 -32 -3 -40 -4 -8 -2 -24
-3 -35 -4 -17 -2 -18 -4 -5 -12 12 -8 11 -10 -7 -10 -13 0 -23 5 -23 10 0 6
-7 10 -16 10 -9 0 -12 5 -8 11 5 9 -1 10 -20 5 -34 -8 -84 3 -64 15 9 6 6 9
-12 10 -14 1 -29 1 -34 0 -5 -1 -12 2 -15 6 -3 5 -19 19 -35 31 -16 12 -25 22
-21 22 5 0 -9 17 -31 38 -57 56 -64 68 -52 80 7 7 6 16 -1 30 -8 14 -8 29 -1
47 13 33 13 42 0 29 -13 -13 -16 -63 -5 -89 5 -13 5 -16 -2 -10 -14 15 -35 67
-24 61 11 -7 18 73 10 106 -4 14 -6 2 -7 -31 0 -29 -3 -56 -6 -59 -8 -7 -8 98
0 137 7 33 24 33 24 0 0 -10 4 -19 8 -19 4 0 7 27 6 60 0 33 5 70 12 83 7 12
18 32 23 45 6 12 13 22 16 22 4 0 3 -4 0 -10 -3 -5 -1 -10 4 -10 6 0 11 6 11
13 0 8 4 7 11 -3 8 -12 9 -11 5 6 -5 16 3 27 36 51 42 30 134 66 160 62 25 -3
39 1 34 9 -3 5 -6 104 -6 220 l-1 212 -38 0 c-21 0 -40 -2 -43 -5z m237 -28
c78 -8 265 -78 265 -99 0 -4 6 -8 13 -8 7 0 28 -12 47 -27 181 -149 277 -302
315 -508 65 -343 -129 -707 -451 -850 -67 -30 -203 -65 -251 -65 l-33 0 0 193
0 193 59 12 c248 51 379 360 246 585 -57 98 -152 163 -277 191 l-28 6 0 194
c0 106 3 196 7 199 3 4 11 3 17 -2 6 -4 38 -11 71 -14z m-468 -658 c0 -24 -2
-27 -10 -14 -5 9 -6 23 -3 31 8 22 13 17 13 -17z m79 -387 c-4 -3 -14 2 -24
12 -16 18 -16 18 6 6 13 -6 21 -14 18 -18z m865 -275 c-10 -9 -11 -8 -5 6 3
10 9 15 12 12 3 -3 0 -11 -7 -18z m-64 -83 c-3 -3 -12 -4 -19 -1 -8 3 -5 6 6
6 11 1 17 -2 13 -5z"/>
<path d="M1350 2031 c0 -5 9 -7 20 -4 11 3 20 7 20 9 0 2 -9 4 -20 4 -11 0
-20 -4 -20 -9z"/>
<path d="M1448 2013 c7 -3 16 -2 19 1 4 3 -2 6 -13 5 -11 0 -14 -3 -6 -6z"/>
<path d="M1357 2003 c-4 -3 -7 -42 -7 -86 0 -44 3 -77 6 -74 4 4 6 40 5 81 -2
64 0 75 16 79 14 4 14 5 2 6 -9 0 -19 -2 -22 -6z"/>
<path d="M1600 1960 c0 -5 5 -10 11 -10 5 0 7 5 4 10 -3 6 -8 10 -11 10 -2 0
-4 -4 -4 -10z"/>
<path d="M1528 1913 c6 -2 18 -2 25 0 6 3 1 5 -13 5 -14 0 -19 -2 -12 -5z"/>
<path d="M1660 1910 c0 -5 5 -10 10 -10 6 0 10 5 10 10 0 6 -4 10 -10 10 -5 0
-10 -4 -10 -10z"/>
<path d="M1700 1893 c0 -12 -6 -24 -12 -26 -7 -3 -8 -6 -3 -6 24 -2 37 16 26
35 -10 18 -10 18 -11 -3z"/>
<path d="M1730 1876 c0 -2 7 -6 15 -10 8 -3 15 -1 15 4 0 6 -7 10 -15 10 -8 0
-15 -2 -15 -4z"/>
<path d="M1777 1849 c7 -7 15 -10 18 -7 3 3 -2 9 -12 12 -14 6 -15 5 -6 -5z"/>
<path d="M1728 1843 c7 -3 16 -2 19 1 4 3 -2 6 -13 5 -11 0 -14 -3 -6 -6z"/>
<path d="M1470 1836 c0 -2 11 -6 25 -8 14 -3 25 -1 25 3 0 5 -11 9 -25 9 -14
0 -25 -2 -25 -4z"/>
<path d="M1843 1765 c0 -7 6 -11 14 -8 7 3 13 -2 13 -11 0 -9 -7 -16 -16 -16
-13 0 -14 -3 -5 -13 7 -9 7 -17 0 -24 -7 -7 -3 -9 15 -6 24 5 25 7 10 18 -11
8 -13 14 -6 19 6 3 13 2 17 -4 3 -5 11 -10 16 -10 12 0 -29 57 -46 64 -6 2
-12 -2 -12 -9z"/>
<path d="M1352 1730 c0 -19 2 -27 5 -17 2 9 2 25 0 35 -3 9 -5 1 -5 -18z"/>
<path d="M1460 1670 c0 -5 7 -7 15 -4 8 4 15 8 15 10 0 2 -7 4 -15 4 -8 0 -15
-4 -15 -10z"/>
<path d="M1495 1660 c-3 -5 -2 -10 4 -10 5 0 13 5 16 10 3 6 2 10 -4 10 -5 0
-13 -4 -16 -10z"/>
<path d="M1927 1652 c1 -7 -2 -22 -7 -33 -6 -10 -8 -19 -6 -19 3 0 13 14 22
31 8 17 11 28 6 25 -6 -3 -12 -3 -15 1 -2 5 -2 2 0 -5z"/>
<path d="M1778 1603 c7 -3 16 -2 19 1 4 3 -2 6 -13 5 -11 0 -14 -3 -6 -6z"/>
<path d="M1991 1514 c1 -10 5 -30 9 -44 7 -21 8 -19 6 12 -1 21 -6 41 -9 45
-4 3 -7 -2 -6 -13z"/>
<path d="M1636 1510 c3 -3 11 -5 17 -5 7 0 11 -9 9 -20 -2 -16 -1 -17 7 -6 13
20 3 40 -19 38 -11 -1 -17 -4 -14 -7z"/>
<path d="M1793 1443 c9 -2 25 -2 35 0 9 3 1 5 -18 5 -19 0 -27 -2 -17 -5z"/>
<path d="M2010 1433 c0 -4 5 -15 10 -23 8 -13 10 -13 10 2 0 9 -4 20 -10 23
-5 3 -10 3 -10 -2z"/>
<path d="M1997 1381 c-4 -17 -3 -21 5 -13 5 5 8 16 6 23 -3 8 -7 3 -11 -10z"/>
<path d="M2027 1378 c-2 -7 -1 -22 4 -33 6 -16 8 -14 8 13 1 33 -4 41 -12 20z"/>
<path d="M1716 1331 c-4 -7 -5 -15 -2 -18 9 -9 19 4 14 18 -4 11 -6 11 -12 0z"/>
<path d="M2022 1300 c0 -14 2 -19 5 -12 2 6 2 18 0 25 -3 6 -5 1 -5 -13z"/>
<path d="M1938 1283 c12 -2 32 -2 45 0 12 2 2 4 -23 4 -25 0 -35 -2 -22 -4z"/>
<path d="M2012 1171 c-6 -17 -9 -31 -6 -31 7 0 25 52 20 57 -2 2 -8 -10 -14
-26z"/>
<path d="M1925 949 c-4 -6 -5 -12 -2 -15 2 -3 7 2 10 11 7 17 1 20 -8 4z"/>
<path d="M1946 933 c-6 -14 -5 -15 5 -6 7 7 10 15 7 18 -3 3 -9 -2 -12 -12z"/>
<path d="M1920 910 c0 -5 5 -10 11 -10 5 0 7 5 4 10 -3 6 -8 10 -11 10 -2 0
-4 -4 -4 -10z"/>
<path d="M1480 896 c0 -2 7 -7 16 -10 8 -3 12 -2 9 4 -6 10 -25 14 -25 6z"/>
<path d="M1850 874 c0 -1 6 -7 14 -13 10 -8 16 -8 25 3 10 11 7 14 -14 12 -14
0 -25 -2 -25 -2z"/>
<path d="M1845 820 c2 -30 12 -34 17 -5 3 15 1 25 -7 25 -6 0 -11 -9 -10 -20z"/>
<path d="M1776 775 c-25 -19 -16 -19 20 0 16 8 22 15 14 15 -8 -1 -24 -7 -34
-15z"/>
<path d="M1764 728 c3 -10 -1 -18 -12 -21 -16 -4 -16 -5 0 -6 22 -1 29 11 16
29 -8 12 -9 12 -4 -2z"/>
<path d="M1680 711 c0 -5 7 -12 16 -15 14 -5 15 -4 4 9 -14 17 -20 19 -20 6z"/>
<path d="M1605 620 c-3 -6 1 -7 9 -4 18 7 21 14 7 14 -6 0 -13 -4 -16 -10z"/>
<path d="M1413 543 c9 -2 25 -2 35 0 9 3 1 5 -18 5 -19 0 -27 -2 -17 -5z"/>
<path d="M1538 2073 c6 -2 18 -2 25 0 6 3 1 5 -13 5 -14 0 -19 -2 -12 -5z"/>
<path d="M1180 2036 c0 -2 7 -6 15 -10 8 -3 15 -1 15 4 0 6 -7 10 -15 10 -8 0
-15 -2 -15 -4z"/>
<path d="M1167 2019 c7 -7 15 -10 18 -7 3 3 -2 9 -12 12 -14 6 -15 5 -6 -5z"/>
<path d="M1708 1993 c7 -3 16 -2 19 1 4 3 -2 6 -13 5 -11 0 -14 -3 -6 -6z"/>
<path d="M800 1981 c0 -5 7 -12 16 -15 14 -5 15 -4 4 9 -14 17 -20 19 -20 6z"/>
<path d="M1745 1980 c-3 -5 -1 -10 4 -10 6 0 11 5 11 10 0 6 -2 10 -4 10 -3 0
-8 -4 -11 -10z"/>
<path d="M1273 1880 c0 -30 2 -43 4 -27 2 15 2 39 0 55 -2 15 -4 2 -4 -28z"/>
<path d="M828 1863 c7 -3 16 -2 19 1 4 3 -2 6 -13 5 -11 0 -14 -3 -6 -6z"/>
<path d="M855 1850 c-16 -7 -17 -9 -3 -9 9 -1 20 4 23 9 7 11 7 11 -20 0z"/>
<path d="M786 1835 c4 -8 8 -15 10 -15 2 0 4 7 4 15 0 8 -4 15 -10 15 -5 0 -7
-7 -4 -15z"/>
<path d="M746 1814 c-11 -8 -16 -14 -10 -14 13 0 39 18 34 24 -3 2 -14 -2 -24
-10z"/>
<path d="M766 1785 c-11 -8 -15 -15 -9 -15 6 0 16 7 23 15 16 19 11 19 -14 0z"/>
<path d="M1276 1778 c-7 -29 -8 -103 0 -96 7 7 17 118 11 118 -3 0 -7 -10 -11
-22z"/>
<path d="M564 1723 c-1 -31 0 -32 13 -13 8 11 11 25 7 32 -5 8 -2 9 10 5 9 -4
15 -3 11 2 -3 6 -13 9 -23 8 -12 -1 -17 -10 -18 -34z"/>
<path d="M1040 1670 c0 -5 5 -10 11 -10 5 0 7 5 4 10 -3 6 -8 10 -11 10 -2 0
-4 -4 -4 -10z"/>
<path d="M1280 1650 c0 -5 5 -10 11 -10 5 0 7 5 4 10 -3 6 -8 10 -11 10 -2 0
-4 -4 -4 -10z"/>
<path d="M1208 1633 c7 -3 16 -2 19 1 4 3 -2 6 -13 5 -11 0 -14 -3 -6 -6z"/>
<path d="M1184 1615 c11 -8 24 -15 30 -15 5 0 1 7 -10 15 -10 8 -23 14 -29 14
-5 0 -1 -6 9 -14z"/>
<path d="M1245 1620 c-13 -6 -15 -9 -5 -9 8 0 22 4 30 9 18 12 2 12 -25 0z"/>
<path d="M1111 1594 c0 -11 3 -14 6 -6 3 7 2 16 -1 19 -3 4 -6 -2 -5 -13z"/>
<path d="M1348 1603 c7 -3 16 -2 19 1 4 3 -2 6 -13 5 -11 0 -14 -3 -6 -6z"/>
<path d="M963 1585 c0 -8 4 -12 9 -9 5 3 6 10 3 15 -9 13 -12 11 -12 -6z"/>
<path d="M2057 1588 c4 -7 7 -22 5 -33 l-2 -20 9 20 c9 22 4 45 -11 45 -5 0
-6 -6 -1 -12z"/>
<path d="M485 1519 c-4 -6 -5 -12 -2 -15 2 -3 7 2 10 11 7 17 1 20 -8 4z"/>
<path d="M896 1507 c3 -10 9 -15 12 -12 3 3 0 11 -7 18 -10 9 -11 8 -5 -6z"/>
<path d="M1031 1454 c0 -11 3 -14 6 -6 3 7 2 16 -1 19 -3 4 -6 -2 -5 -13z"/>
<path d="M546 1435 c4 -8 8 -15 10 -15 2 0 4 7 4 15 0 8 -4 15 -10 15 -5 0 -7
-7 -4 -15z"/>
<path d="M531 1404 c0 -11 3 -14 6 -6 3 7 2 16 -1 19 -3 4 -6 -2 -5 -13z"/>
<path d="M1600 1415 c0 -5 5 -17 10 -25 5 -8 10 -10 10 -5 0 6 -5 17 -10 25
-5 8 -10 11 -10 5z"/>
<path d="M541 1360 c0 -14 4 -32 9 -40 9 -13 10 -13 9 0 -1 8 -5 26 -9 40 l-8
25 -1 -25z"/>
<path d="M845 1350 c3 -5 8 -10 11 -10 2 0 4 5 4 10 0 6 -5 10 -11 10 -5 0 -7
-4 -4 -10z"/>
<path d="M1611 1328 c0 -9 -4 -25 -7 -35 -5 -17 -5 -17 6 0 6 10 9 25 7 35 -4
15 -5 15 -6 0z"/>
<path d="M801 1304 c0 -11 3 -14 6 -6 3 7 2 16 -1 19 -3 4 -6 -2 -5 -13z"/>
<path d="M845 1311 c-3 -5 -1 -12 5 -16 5 -3 10 1 10 9 0 18 -6 21 -15 7z"/>
<path d="M530 1290 c0 -5 5 -10 11 -10 5 0 7 5 4 10 -3 6 -8 10 -11 10 -2 0
-4 -4 -4 -10z"/>
<path d="M523 1235 c0 -22 2 -30 4 -17 2 12 2 30 0 40 -3 9 -5 -1 -4 -23z"/>
<path d="M1607 1240 c-4 -16 -4 -44 0 -61 5 -26 8 -28 15 -15 6 11 6 22 -1 30
-6 7 -8 27 -5 45 4 17 4 31 2 31 -3 0 -8 -13 -11 -30z"/>
<path d="M851 1224 c0 -11 3 -14 6 -6 3 7 2 16 -1 19 -3 4 -6 -2 -5 -13z"/>
<path d="M1626 1221 c-4 -7 -5 -15 -2 -18 9 -9 19 4 14 18 -4 11 -6 11 -12 0z"/>
<path d="M861 1174 c0 -11 3 -14 6 -6 3 7 2 16 -1 19 -3 4 -6 -2 -5 -13z"/>
<path d="M546 1123 c-6 -14 -5 -15 5 -6 7 7 10 15 7 18 -3 3 -9 -2 -12 -12z"/>
<path d="M885 1109 c-4 -6 -5 -12 -2 -15 2 -3 7 2 10 11 7 17 1 20 -8 4z"/>
<path d="M1520 1059 c0 -5 5 -7 10 -4 6 3 10 8 10 11 0 2 -4 4 -10 4 -5 0 -10
-5 -10 -11z"/>
<path d="M560 1036 c0 -2 18 -6 39 -8 22 -2 37 0 35 4 -5 8 -74 11 -74 4z"/>
<path d="M580 1001 c0 -12 28 -22 35 -12 3 5 -2 12 -11 15 -21 8 -24 8 -24 -3z"/>
<path d="M2058 985 c-17 -23 -17 -24 0 -22 10 0 18 10 18 24 2 28 3 28 -18 -2z"/>
<path d="M960 981 c0 -6 4 -13 10 -16 6 -3 7 1 4 9 -7 18 -14 21 -14 7z"/>
<path d="M596 948 c3 -5 10 -5 16 -2 7 5 9 2 5 -8 -3 -9 0 -23 6 -32 10 -14
12 -11 12 17 0 27 -4 33 -22 33 -12 0 -19 -4 -17 -8z"/>
<path d="M1191 949 c8 -5 7 -8 -2 -12 -8 -4 0 -4 16 0 44 8 49 18 9 19 -19 0
-29 -3 -23 -7z"/>
<path d="M1044 900 c0 -15 4 -26 9 -23 4 2 5 9 2 14 -8 12 2 11 27 -2 15 -8
23 -8 32 1 8 8 6 9 -8 4 -13 -5 -17 -4 -12 4 4 8 2 10 -7 6 -8 -3 -21 2 -30
10 -13 13 -14 12 -13 -14z"/>
<path d="M688 873 c6 -2 18 -2 25 0 6 3 1 5 -13 5 -14 0 -19 -2 -12 -5z"/>
<path d="M655 850 c3 -5 8 -10 11 -10 2 0 4 5 4 10 0 6 -5 10 -11 10 -5 0 -7
-4 -4 -10z"/>
<path d="M683 835 c-9 -24 1 -27 15 -5 8 13 8 20 2 20 -6 0 -13 -7 -17 -15z"/>
<path d="M707 801 c-4 -17 -3 -21 5 -13 5 5 8 16 6 23 -3 8 -7 3 -11 -10z"/>
<path d="M1008 793 c7 -3 16 -2 19 1 4 3 -2 6 -13 5 -11 0 -14 -3 -6 -6z"/>
<path d="M770 780 c0 -5 5 -10 10 -10 6 0 10 5 10 10 0 6 -4 10 -10 10 -5 0
-10 -4 -10 -10z"/>
<path d="M748 753 c7 -3 16 -2 19 1 4 3 -2 6 -13 5 -11 0 -14 -3 -6 -6z"/>
<path d="M1271 734 c0 -11 3 -14 6 -6 3 7 2 16 -1 19 -3 4 -6 -2 -5 -13z"/>
<path d="M1120 730 c0 -5 5 -10 11 -10 5 0 7 5 4 10 -3 6 -8 10 -11 10 -2 0
-4 -4 -4 -10z"/>
<path d="M760 726 c0 -2 7 -9 15 -16 13 -11 14 -10 9 4 -5 14 -24 23 -24 12z"/>
<path d="M848 713 c7 -3 16 -2 19 1 4 3 -2 6 -13 5 -11 0 -14 -3 -6 -6z"/>
<path d="M1200 678 c0 -23 3 -29 9 -19 8 12 4 51 -5 51 -2 0 -4 -15 -4 -32z"/>
<path d="M918 633 c6 -2 10 -9 6 -14 -3 -5 2 -9 10 -9 8 0 17 4 20 9 6 9 -17
22 -37 20 -8 0 -8 -2 1 -6z"/>
<path d="M820 580 c0 -5 4 -10 9 -10 5 0 18 -3 28 -6 16 -6 16 -5 -2 9 -23 19
-35 21 -35 7z"/>
<path d="M1083 553 c9 -2 23 -2 30 0 6 3 -1 5 -18 5 -16 0 -22 -2 -12 -5z"/>
<path d="M1173 533 c9 -2 25 -2 35 0 9 3 1 5 -18 5 -19 0 -27 -2 -17 -5z"/>
<path d="M1275 501 c-3 -5 -2 -12 3 -15 5 -3 9 1 9 9 0 17 -3 19 -12 6z"/>
</g>
</svg>
