<?xml version="1.0" standalone="no"?>
<!DOCTYPE svg PUBLIC "-//W3C//DTD SVG 20010904//EN"
 "http://www.w3.org/TR/2001/REC-SVG-20010904/DTD/svg10.dtd">
<svg version="1.0" xmlns="http://www.w3.org/2000/svg"
 width="256.000000pt" height="256.000000pt" viewBox="0 0 256.000000 256.000000"
 preserveAspectRatio="xMidYMid meet">
<metadata>
Created by potrace 1.16, written by Peter Selinger 2001-2019
</metadata>
<g transform="translate(0.000000,256.000000) scale(0.100000,-0.100000)"
fill="#000000" stroke="none">
<path d="M1055 2540 c-60 -11 -139 -29 -175 -40 -93 -30 -237 -101 -310 -151
-34 -24 -74 -52 -89 -61 -31 -21 -201 -188 -201 -199 0 -4 -6 -14 -13 -21 -70
-70 -186 -300 -221 -436 -90 -353 -40 -726 137 -1019 67 -112 167 -230 254
-303 78 -65 88 -72 140 -106 213 -137 434 -199 703 -199 309 1 539 76 789 260
18 12 212 207 226 226 166 220 250 459 262 749 4 101 1 150 -17 255 -12 72
-31 157 -42 190 -40 120 -123 279 -203 384 -14 19 -208 214 -226 226 -242 178
-461 252 -764 261 -109 3 -165 -1 -250 -16z m477 -29 c188 -37 343 -108 517
-236 18 -12 212 -207 226 -226 80 -105 163 -264 203 -384 11 -33 30 -118 42
-190 57 -333 -32 -682 -245 -964 -14 -19 -208 -214 -226 -226 -244 -179 -481
-259 -769 -260 -247 0 -476 66 -683 199 -52 34 -62 41 -140 106 -44 37 -145
144 -187 200 -187 247 -282 616 -235 915 28 179 55 266 127 410 31 60 101 169
125 193 7 7 13 17 13 21 0 11 170 178 201 199 15 9 55 37 89 61 73 50 217 121
310 151 193 61 419 72 632 31z"/>
<path d="M846 1952 c-8 -7 7 -41 21 -46 8 -3 11 -11 7 -17 -4 -8 -3 -9 4 -5 7
4 12 2 12 -5 0 -7 8 -5 20 6 20 18 21 18 14 0 -6 -14 -4 -16 6 -10 10 6 12 2
8 -18 -3 -15 -1 -24 3 -21 5 3 9 12 9 21 0 14 2 14 18 2 9 -8 26 -14 37 -14
11 0 27 -8 37 -18 12 -13 17 -15 21 -5 4 11 6 11 6 0 1 -9 6 -10 20 -2 24 12
31 2 20 -25 -7 -19 -8 -19 -8 -1 -1 11 -4 17 -7 13 -12 -12 5 -40 19 -30 20
15 63 1 52 -17 -3 -5 4 -7 15 -5 11 2 20 -1 20 -7 0 -7 5 -6 14 1 11 9 16 9
22 0 4 -8 3 -9 -4 -5 -14 8 -15 -3 -3 -23 5 -8 20 -15 33 -15 13 -1 34 -12 46
-24 13 -13 26 -21 31 -18 6 4 7 -28 1 -44 -1 -3 -2 -9 -1 -13 1 -5 -4 -5 -10
-1 -7 4 -31 -13 -59 -45 -27 -28 -44 -51 -39 -51 5 0 -13 -21 -39 -47 -27 -27
-47 -54 -45 -61 3 -7 -1 -10 -10 -6 -8 3 -23 -5 -33 -19 -11 -13 -24 -22 -31
-20 -6 2 -14 -5 -18 -16 -3 -11 -12 -18 -20 -15 -7 3 -16 -3 -20 -15 -4 -13
-13 -18 -25 -16 -12 2 -21 -3 -26 -17 -5 -16 -8 -18 -15 -7 -7 12 -9 12 -9 0
0 -7 -6 -11 -15 -7 -8 3 -14 2 -14 -2 3 -20 -2 -25 -12 -12 -9 12 -10 11 -6
-7 3 -13 1 -26 -4 -29 -5 -3 -9 -2 -8 3 1 4 1 15 0 23 -1 13 -3 13 -10 0 -6
-8 -7 -19 -4 -25 4 -5 -3 -2 -14 8 -17 15 -22 15 -31 4 -7 -8 -9 -17 -5 -21 4
-4 0 -4 -10 0 -9 3 -17 10 -17 14 0 4 -7 11 -16 14 -10 4 -13 2 -8 -7 5 -9 4
-9 -6 0 -13 12 -40 7 -52 -10 -4 -6 -21 -4 -45 5 -34 14 -40 14 -61 0 -21 -14
-22 -13 -16 4 4 11 12 26 18 34 6 8 -2 4 -16 -9 -15 -13 -25 -28 -21 -34 3 -6
1 -7 -6 -3 -6 4 -9 16 -6 27 5 13 2 19 -10 19 -10 0 -13 -5 -9 -12 6 -9 3 -9
-9 0 -9 8 -21 11 -27 7 -5 -3 -10 -1 -10 6 0 8 -4 8 -15 -1 -13 -11 -14 -10
-9 5 5 13 4 16 -4 11 -8 -5 -10 -2 -6 9 5 11 2 14 -10 9 -9 -4 -25 4 -40 21
-17 18 -26 22 -32 14 -5 -9 -10 -8 -19 5 -11 15 -16 15 -56 1 -53 -19 -133
-11 -168 16 -23 18 -47 17 -35 -2 3 -5 9 -7 14 -4 5 3 12 0 16 -6 4 -7 3 -9
-3 -6 -13 8 -26 -20 -16 -35 4 -7 1 -8 -6 -4 -7 5 -10 14 -7 22 3 7 2 16 -3
18 -11 7 -10 -27 1 -41 6 -7 15 -10 21 -6 16 10 78 10 84 0 2 -4 11 -2 19 4 9
7 14 8 13 3 -5 -26 2 -45 13 -37 22 14 116 10 111 -4 -3 -7 6 -17 20 -22 13
-5 27 -20 30 -32 5 -18 9 -20 21 -10 11 9 15 9 19 -1 4 -10 6 -10 6 1 1 9 10
4 28 -13 18 -18 29 -23 33 -15 6 8 9 8 15 0 5 -9 11 -9 23 1 13 11 15 11 10
-3 -8 -21 25 -42 42 -26 10 10 12 8 7 -6 -6 -16 -4 -16 22 -2 28 14 29 14 23
-8 -5 -21 -5 -21 12 -4 21 21 33 23 16 2 -11 -13 -7 -19 11 -17 4 1 22 -3 40
-8 22 -7 35 -6 40 1 4 7 12 5 23 -6 12 -12 16 -13 16 -3 0 10 3 9 10 -2 5 -8
10 -10 10 -5 0 7 31 11 83 10 46 0 86 4 90 10 6 7 10 6 13 -1 8 -19 46 -4 39
14 -5 13 -2 13 14 -2 18 -17 20 -17 30 1 8 14 11 15 11 3 0 -12 4 -10 15 4 9
12 15 15 15 7 0 -10 3 -11 13 -2 8 6 16 8 20 5 3 -3 10 3 16 14 6 11 7 22 4
26 -3 3 -1 6 6 6 6 0 14 -7 18 -16 5 -13 7 -13 14 -2 7 10 12 11 29 0 11 -7
20 -8 20 -3 0 5 6 11 14 14 15 6 16 -9 1 -33 -5 -9 1 -7 15 5 20 17 22 17 17
3 -5 -14 -2 -16 18 -8 18 7 25 5 29 -6 5 -14 8 -14 22 0 19 20 25 20 18 1 -7
-18 7 -20 25 -3 11 11 11 9 2 -9 -7 -14 -8 -24 -1 -28 5 -3 10 1 10 9 0 8 5
18 12 22 6 4 9 3 5 -2 -3 -5 1 -18 9 -29 14 -19 14 -19 14 1 1 18 1 18 14 1
12 -15 14 -16 20 -2 3 8 11 15 18 15 8 0 9 -3 3 -8 -5 -4 -11 -13 -13 -21 -3
-12 0 -12 12 -1 9 7 16 8 16 2 0 -14 36 -22 49 -9 7 7 8 3 4 -12 -3 -13 -1
-21 6 -21 7 0 9 -5 5 -12 -6 -10 -4 -10 8 0 13 10 17 10 21 0 4 -11 6 -11 6 0
1 10 6 10 21 2 11 -6 17 -16 14 -22 -4 -6 -3 -8 4 -4 6 3 14 2 17 -4 5 -8 11
-7 21 1 12 9 13 9 9 -3 -4 -9 2 -23 11 -33 13 -13 19 -14 22 -5 3 7 12 0 23
-17 11 -16 19 -22 19 -13 0 10 8 5 21 -12 11 -16 27 -28 35 -28 9 0 12 -5 8
-12 -4 -6 -3 -8 3 -5 11 7 37 -16 28 -25 -3 -3 5 -13 17 -24 12 -10 18 -13 13
-5 -6 10 -4 12 4 7 7 -4 10 -13 8 -19 -2 -7 12 -23 30 -35 19 -13 32 -26 29
-29 -3 -4 -1 -12 5 -20 6 -7 8 -13 3 -13 -11 0 18 -20 29 -20 5 0 5 5 1 12 -5
7 -3 8 6 3 10 -6 9 -11 -5 -22 -11 -7 -13 -13 -6 -13 7 0 10 -4 6 -9 -3 -5 4
-12 15 -16 11 -3 20 -11 20 -16 0 -6 5 -7 10 -4 6 3 10 1 10 -4 0 -6 5 -11 11
-11 5 0 8 4 5 8 -3 5 5 8 16 7 12 -1 24 -7 26 -14 3 -8 8 -6 18 6 12 17 13 16
8 -7 -2 -14 -1 -19 2 -12 5 10 9 9 20 -6 15 -21 54 -36 54 -20 0 5 4 7 9 4 5
-3 11 5 13 19 5 24 -14 41 -33 29 -5 -3 -9 2 -9 10 0 9 -5 16 -11 16 -5 0 -7
-6 -4 -12 4 -7 -3 -2 -14 12 -11 14 -21 30 -21 35 0 6 -4 5 -8 -2 -10 -16 -50
4 -66 32 -6 11 -18 26 -26 33 -8 7 -9 11 -2 7 6 -3 12 -1 12 4 0 6 -8 11 -17
11 -15 0 -16 2 -3 10 12 8 12 10 -5 11 -14 0 -15 2 -6 6 10 4 5 14 -20 34 -21
19 -27 27 -14 22 13 -4 6 7 -20 32 -22 21 -32 36 -22 32 9 -3 17 -3 17 2 0 5
-9 11 -21 14 -12 3 -18 10 -14 16 3 6 -6 16 -20 23 -15 7 -21 14 -15 18 7 4 1
13 -15 24 -14 9 -23 22 -19 28 4 6 3 8 -4 4 -6 -3 -14 -1 -17 5 -4 5 -13 8
-21 5 -7 -3 -16 0 -20 6 -4 7 -3 8 4 4 16 -10 15 5 -2 26 -15 20 -31 25 -20 6
5 -7 3 -8 -5 -4 -7 5 -10 14 -7 22 3 8 -1 14 -9 14 -7 0 -17 9 -20 20 -4 11
-11 17 -17 14 -6 -4 -6 -10 1 -17 6 -6 11 -15 11 -21 0 -18 -29 29 -30 49 -1
18 -2 18 -11 -3 -5 -13 -13 -21 -18 -17 -6 3 -8 12 -5 20 8 21 -6 41 -17 24
-6 -10 -9 -10 -9 -2 0 19 -55 44 -67 32 -7 -7 -9 -2 -5 17 4 24 2 26 -17 21
-11 -3 -21 -1 -21 4 0 5 -11 4 -26 -1 -19 -8 -23 -7 -18 2 11 17 12 48 2 42
-4 -3 -8 -13 -9 -22 0 -11 -2 -12 -6 -4 -2 6 -9 10 -14 6 -5 -3 -9 0 -9 7 0 8
-4 8 -13 1 -21 -17 -19 28 1 47 11 10 12 12 2 6 -13 -9 -13 -8 -1 8 8 9 21 15
30 12 10 -3 24 7 39 28 12 17 22 26 22 19 0 -6 4 -12 8 -12 5 0 7 14 6 30 -1
22 4 33 18 41 13 7 18 7 14 1 -3 -6 -2 -14 4 -17 6 -4 9 -1 8 6 -2 6 3 14 10
16 8 3 10 -1 5 -13 -4 -12 -3 -15 5 -10 8 4 12 1 12 -10 0 -10 3 -14 7 -11 3
4 12 2 20 -4 8 -8 13 -8 13 -1 0 19 35 5 47 -19 11 -21 13 -21 19 -6 6 16 8
17 24 2 14 -13 19 -13 22 -3 4 11 8 10 22 -1 9 -8 14 -21 11 -30 -5 -15 -4
-15 7 0 7 9 15 16 18 17 3 0 18 5 33 11 33 13 77 14 77 4 0 -5 19 -8 43 -8 29
0 41 4 39 13 -1 8 2 11 8 7 6 -3 7 -12 3 -18 -4 -7 0 -6 10 2 11 8 17 9 17 3
0 -6 7 -9 15 -6 8 4 15 14 15 23 0 12 5 10 20 -9 19 -24 19 -24 13 -2 -3 13
-1 22 6 22 6 0 11 -5 11 -12 0 -6 7 -3 15 8 11 15 15 16 15 4 1 -10 4 -9 10 5
13 30 12 38 -5 31 -9 -3 -15 0 -15 9 0 19 -10 19 -46 1 -15 -8 -31 -13 -36
-10 -4 3 -8 1 -8 -4 0 -4 -21 -9 -47 -11 -26 -1 -51 -5 -56 -8 -6 -3 -7 -1 -3
6 12 19 -37 31 -51 12 -6 -9 -15 -13 -19 -8 -4 4 -2 7 4 7 6 0 9 7 5 15 -5 14
-8 14 -26 -2 -11 -10 -17 -12 -13 -6 4 7 9 21 11 32 3 18 1 18 -23 5 -35 -18
-42 -18 -42 3 0 15 -2 14 -16 -3 -8 -10 -13 -14 -10 -7 3 6 1 22 -4 35 l-11
23 5 -25 5 -24 -24 27 c-13 16 -33 29 -44 30 -14 1 -21 8 -22 22 0 19 -1 19
-9 -2 -5 -13 -12 -23 -15 -23 -4 0 -3 4 0 10 3 5 1 18 -4 27 -8 14 -10 15 -11
3 0 -13 -1 -13 -10 0 -5 8 -10 11 -10 7 0 -5 -7 -1 -16 7 -8 9 -13 20 -10 25
3 5 -2 8 -12 7 -9 0 -17 6 -17 14 0 8 6 14 13 12 8 -1 11 2 7 8 -3 6 4 10 17
10 17 0 19 -3 9 -9 -9 -6 -10 -11 -2 -15 6 -4 11 -4 11 0 0 3 11 -1 25 -10 23
-15 25 -15 25 0 0 10 3 15 6 11 8 -8 33 16 27 26 -2 4 1 7 8 7 9 0 9 3 0 14
-13 16 1 17 29 2 8 -4 2 5 -15 19 l-30 27 30 -5 c27 -5 28 -4 11 9 -10 7 -23
11 -29 7 -6 -3 -7 -1 -3 6 4 6 15 10 24 9 21 -4 27 25 9 43 -7 8 -12 20 -9 27
2 8 -2 10 -14 5 -13 -5 -15 -3 -8 8 12 20 15 49 5 46 -5 -1 -17 7 -26 18 -14
17 -16 18 -11 2 3 -11 2 -16 -4 -12 -6 3 -10 13 -10 21 0 8 -4 14 -10 14 -5 0
-10 -4 -10 -9 0 -6 -12 -6 -31 1 -24 8 -33 8 -39 -2 -4 -6 -11 -12 -16 -11 -5
0 -9 -9 -8 -19 0 -15 -2 -17 -13 -8 -10 8 -17 8 -25 0 -7 -7 -8 -12 -4 -12 5
0 3 -7 -4 -15 -7 -8 -8 -15 -3 -15 13 0 15 -51 1 -67 -9 -11 -9 -16 0 -22 13
-8 12 -51 -1 -51 -5 0 -6 8 -3 17 6 16 6 16 -12 0 -23 -21 -48 -22 -60 -1 -8
15 -10 15 -15 0 -4 -9 -12 -16 -19 -16 -10 0 -9 3 1 9 21 13 5 44 -19 38 -11
-3 -18 -1 -14 4 3 5 1 9 -5 9 -5 0 -13 -4 -16 -10 -3 -5 -19 4 -35 21 -24 24
-30 26 -30 12 -1 -17 -1 -17 -11 1 -9 15 -13 16 -20 5 -7 -11 -9 -9 -9 6 0 16
-2 17 -9 5 -6 -8 -7 -18 -4 -24 3 -5 1 -6 -5 -3 -5 4 -8 16 -5 27 3 11 0 20
-6 20 -6 0 -11 -6 -11 -12 0 -10 -3 -9 -9 1 -6 8 -16 11 -31 6 -15 -5 -20 -4
-16 4 10 15 -7 14 -22 -1 -9 -9 -15 -9 -24 1 -11 10 -10 11 5 6 13 -6 17 -2
17 16 0 17 -3 20 -9 11 -6 -11 -11 -10 -25 3 -15 15 -16 15 -16 -2 -1 -17 -2
-17 -15 1 -8 11 -15 15 -15 9 0 -6 -6 -13 -14 -16 -18 -7 -58 30 -50 46 3 7
-2 3 -11 -8 -16 -19 -16 -19 -27 -1 -7 12 -13 15 -17 7 -9 -14 -41 -4 -41 12
0 6 -6 2 -14 -8 -13 -19 -14 -18 -9 6 4 23 2 25 -32 25 -20 0 -37 -2 -39 -4z
m31 -19 c0 -9 -4 -10 -14 -2 -7 6 -13 12 -13 14 0 1 6 2 13 2 8 0 14 -6 14
-14z m856 -37 c32 -30 43 -83 27 -133 -18 -55 -28 -63 -75 -63 -82 0 -85 -53
-6 -119 27 -23 51 -41 54 -41 4 0 29 -14 58 -30 60 -36 117 -59 174 -70 33 -6
25 -8 -45 -9 -82 -1 -133 9 -218 45 -56 24 -78 18 -145 -41 -92 -83 -105 -96
-110 -116 -7 -25 14 -41 118 -90 89 -43 100 -49 135 -81 10 -9 27 -19 39 -23
12 -3 61 -45 109 -93 86 -85 136 -148 197 -256 45 -78 73 -114 96 -121 11 -4
18 -9 16 -11 -6 -7 -77 28 -77 37 0 5 -14 28 -30 52 -30 45 -236 247 -251 247
-4 0 -25 12 -46 26 -52 36 -220 114 -244 114 -11 0 -30 5 -41 11 -30 16 -131
39 -142 32 -5 -4 -6 -1 -3 4 4 6 -7 13 -24 17 -50 10 -82 7 -114 -10 -103 -56
-343 -72 -498 -34 -45 12 -90 25 -99 30 -10 6 -23 10 -29 10 -13 0 -89 37
-159 76 -25 15 -56 30 -70 34 -23 8 -23 8 8 9 21 1 45 -8 67 -25 35 -26 114
-60 175 -74 47 -11 191 -20 186 -12 -2 4 21 8 53 8 132 3 283 112 489 352 47
54 53 67 50 99 -3 33 -10 42 -63 78 -33 23 -80 52 -105 65 -25 14 -52 30 -60
36 -8 6 -28 16 -45 22 -29 11 -28 11 9 5 22 -3 51 -12 65 -19 14 -8 35 -14 46
-14 11 0 33 -7 49 -15 15 -8 33 -15 40 -15 6 0 24 -7 40 -15 15 -8 33 -12 39
-8 6 3 7 1 3 -5 -5 -8 1 -12 15 -12 12 0 31 -8 42 -17 23 -21 139 -25 158 -6
6 6 12 44 13 84 1 42 6 74 12 76 6 2 20 10 30 18 28 21 58 18 87 -9z m-433
-320 c0 -2 -8 -10 -17 -17 -16 -13 -17 -12 -4 4 13 16 21 21 21 13z m910 -100
c0 -3 -4 -8 -10 -11 -5 -3 -10 -1 -10 4 0 6 5 11 10 11 6 0 10 -2 10 -4z
m-320 -72 c0 -8 -19 -13 -24 -6 -3 5 1 9 9 9 8 0 15 -2 15 -3z m-423 -96 c-3
-8 -6 -5 -6 6 -1 11 2 17 5 13 3 -3 4 -12 1 -19z m144 -81 c-10 -9 -11 -8 -5
6 3 10 9 15 12 12 3 -3 0 -11 -7 -18z m-1194 -14 c1 -24 1 -25 -7 -8 -11 26
-12 35 -2 35 4 0 8 -12 9 -27z"/>
<path d="M1050 1905 c0 -10 29 -24 34 -17 3 6 -3 12 -14 15 -11 3 -20 4 -20 2z"/>
<path d="M1531 1844 c0 -11 3 -14 6 -6 3 7 2 16 -1 19 -3 4 -6 -2 -5 -13z"/>
<path d="M1616 1447 c3 -10 9 -15 12 -12 3 3 0 11 -7 18 -10 9 -11 8 -5 -6z"/>
<path d="M1936 1392 c-3 -2 -2 -11 1 -20 5 -11 3 -13 -7 -7 -9 5 -11 4 -6 -4
6 -9 11 -9 22 0 8 6 25 8 39 5 26 -7 34 7 13 21 -15 8 -55 12 -62 5z"/>
<path d="M216 1371 c3 -7 0 -17 -7 -22 -11 -7 -10 -9 4 -10 54 -4 67 -1 67 16
0 8 -9 15 -21 15 -11 0 -17 -4 -14 -10 10 -17 -7 -11 -22 8 -8 9 -11 11 -7 3z"/>
<path d="M1201 1134 c0 -11 3 -14 6 -6 3 7 2 16 -1 19 -3 4 -6 -2 -5 -13z"/>
<path d="M1990 740 c0 -5 5 -10 11 -10 5 0 7 5 4 10 -3 6 -8 10 -11 10 -2 0
-4 -4 -4 -10z"/>
</g>
</svg>
