<?xml version="1.0" standalone="no"?>
<!DOCTYPE svg PUBLIC "-//W3C//DTD SVG 20010904//EN"
 "http://www.w3.org/TR/2001/REC-SVG-20010904/DTD/svg10.dtd">
<svg version="1.0" xmlns="http://www.w3.org/2000/svg"
 width="100.000000pt" height="100.000000pt" viewBox="0 0 100.000000 100.000000"
 preserveAspectRatio="xMidYMid meet">
<metadata>
Created by potrace 1.16, written by Peter Selinger 2001-2019
</metadata>
<g transform="translate(0.000000,100.000000) scale(0.100000,-0.100000)"
fill="#000000" stroke="none">
<path d="M0 880 c0 -5 18 -10 40 -10 34 0 40 -3 41 -22 1 -21 2 -21 6 -3 8 34
23 41 23 12 0 -33 17 -36 23 -4 2 12 5 -16 6 -63 2 -83 3 -84 16 -50 7 19 14
54 14 78 l1 42 359 0 c198 0 366 2 373 5 11 4 13 -3 10 -30 l-4 -35 -346 0
c-190 0 -342 -3 -338 -7 3 -4 160 -6 347 -6 250 1 344 4 354 13 8 7 15 28 15
46 0 32 1 33 30 28 19 -4 30 -2 30 5 0 8 -136 11 -500 11 -327 0 -500 -3 -500
-10z"/>
<path d="M951 843 c-1 -10 -4 -51 -7 -91 -4 -50 -3 -77 5 -85 9 -9 14 -9 20 2
5 7 14 10 20 7 6 -4 11 -2 11 3 0 6 -7 11 -15 11 -12 0 -15 16 -15 85 0 47 -4
85 -9 85 -6 0 -10 -8 -10 -17z"/>
<path d="M991 844 c0 -11 3 -14 6 -6 3 7 2 16 -1 19 -3 4 -6 -2 -5 -13z"/>
<path d="M0 810 c0 -6 29 -10 66 -10 41 0 63 4 59 10 -3 6 -33 10 -66 10 -33
0 -59 -4 -59 -10z"/>
<path d="M185 790 c3 -5 8 -10 11 -10 2 0 4 5 4 10 0 6 -5 10 -11 10 -5 0 -7
-4 -4 -10z"/>
<path d="M28 763 c18 -2 45 -2 60 0 15 2 0 4 -33 4 -33 0 -45 -2 -27 -4z"/>
<path d="M170 568 c0 -194 -5 -239 -16 -147 -9 70 -14 59 -14 -29 0 -47 -4
-82 -10 -82 -5 0 -8 14 -6 30 l3 30 -63 0 c-52 0 -64 -3 -64 -16 0 -13 10 -15
55 -12 l55 3 -1 -45 c0 -34 -2 -40 -9 -25 -7 17 -9 15 -9 -12 -1 -22 -6 -33
-16 -33 -10 0 -15 -10 -15 -30 0 -20 -5 -30 -15 -30 -9 0 -15 -9 -15 -21 0
-15 -5 -19 -15 -15 -9 3 -15 0 -15 -9 0 -13 59 -15 430 -15 l430 0 0 30 c0 20
5 30 15 30 10 0 15 10 15 30 0 17 5 30 10 30 6 0 10 14 10 30 0 26 -3 30 -27
29 -17 -1 -21 -3 -10 -6 42 -11 11 -23 -60 -23 -42 0 -74 -2 -72 -4 4 -4 67
-13 107 -15 6 -1 12 -4 12 -9 0 -4 -17 -6 -37 -5 -110 7 -181 8 -169 1 21 -12
55 -16 125 -17 l63 -1 -14 -22 c-15 -23 -18 -23 -267 -24 -191 -1 -251 1 -251
11 0 9 -27 11 -100 10 -99 -3 -100 -3 -100 21 0 13 6 24 13 24 9 0 13 12 12
34 0 22 3 32 11 29 13 -5 29 31 19 46 -3 5 4 16 16 24 18 13 20 22 16 65 l-5
49 38 -1 c21 -1 46 1 57 5 11 5 -5 8 -42 9 -43 1 -54 4 -40 10 18 8 18 9 2 9
-17 1 -18 10 -11 131 6 117 5 130 -10 130 -14 0 -16 -21 -16 -202z m-80 -358
c0 -5 -5 -10 -11 -10 -5 0 -7 5 -4 10 3 6 8 10 11 10 2 0 4 -4 4 -10z m790
-14 c0 -3 -4 -8 -10 -11 -5 -3 -10 -1 -10 4 0 6 5 11 10 11 6 0 10 -2 10 -4z
m-633 -33 c-31 -2 -83 -2 -115 0 -31 2 -5 3 58 3 63 0 89 -1 57 -3z m603 3 c0
-3 -4 -8 -10 -11 -5 -3 -10 -1 -10 4 0 6 5 11 10 11 6 0 10 -2 10 -4z m-2 -31
c-7 -7 -790 -6 -797 0 -2 3 177 5 399 5 222 0 401 -2 398 -5z"/>
<path d="M230 763 c0 -7 533 -7 645 0 28 2 -106 4 -297 5 -192 1 -348 -1 -348
-5z"/>
<path d="M50 730 c30 -4 59 -3 64 1 6 5 -18 8 -55 8 l-64 -2 55 -7z"/>
<path d="M230 733 c0 -9 680 -7 688 2 3 3 -151 5 -341 5 -191 0 -347 -3 -347
-7z"/>
<path d="M0 675 c0 -12 16 -15 80 -15 64 0 80 3 80 15 0 12 -16 15 -80 15 -64
0 -80 -3 -80 -15z"/>
<path d="M222 685 c7 -8 698 -9 705 -1 4 3 -155 6 -352 6 -197 0 -356 -2 -353
-5z"/>
<path d="M220 653 c0 -10 638 -9 647 1 3 3 -141 6 -320 6 -180 0 -327 -3 -327
-7z"/>
<path d="M38 633 c23 -2 59 -2 80 0 20 2 1 4 -43 4 -44 0 -61 -2 -37 -4z"/>
<path d="M215 620 c3 -5 8 -10 11 -10 2 0 4 5 4 10 0 6 -5 10 -11 10 -5 0 -7
-4 -4 -10z"/>
<path d="M242 625 c8 -8 517 -9 525 -1 4 3 -114 6 -262 6 -148 0 -266 -2 -263
-5z"/>
<path d="M33 603 c20 -2 54 -2 75 0 20 2 3 4 -38 4 -41 0 -58 -2 -37 -4z"/>
<path d="M200 590 c0 -5 7 -10 15 -10 8 0 15 5 15 10 0 6 -7 10 -15 10 -8 0
-15 -4 -15 -10z"/>
<path d="M252 595 c8 -9 426 -10 434 -2 4 4 -93 7 -216 7 -123 0 -221 -2 -218
-5z"/>
<path d="M38 563 c23 -2 59 -2 80 0 20 2 1 4 -43 4 -44 0 -61 -2 -37 -4z"/>
<path d="M200 548 c0 -23 1 -23 140 -22 77 1 143 4 147 8 3 3 -59 6 -138 7
-79 0 -138 3 -131 6 17 7 15 23 -3 23 -9 0 -15 -9 -15 -22z"/>
<path d="M242 565 c8 -8 327 -10 335 -2 3 4 -72 7 -167 7 -95 0 -171 -2 -168
-5z"/>
<path d="M0 530 c0 -6 30 -10 69 -10 39 0 73 5 76 10 4 6 -22 10 -69 10 -44 0
-76 -4 -76 -10z"/>
<path d="M903 474 c-29 -30 -57 -53 -62 -50 -5 3 -7 -3 -4 -13 4 -16 1 -19
-16 -14 -15 4 -21 1 -21 -11 0 -9 5 -16 11 -16 5 0 7 -5 3 -11 -5 -8 -9 -8
-14 1 -10 15 -50 4 -50 -15 0 -8 -7 -11 -19 -8 -11 3 -21 -2 -24 -11 -4 -9
-15 -16 -25 -16 -11 0 -25 -6 -32 -14 -6 -8 -18 -12 -26 -9 -8 3 -22 -3 -32
-13 -10 -11 -30 -19 -50 -19 -22 1 -34 -5 -38 -17 -4 -14 -16 -18 -52 -18 -26
0 -54 -5 -62 -10 -11 -7 1 -10 39 -10 58 0 61 -15 6 -23 -24 -3 -21 -4 13 -6
31 -1 42 3 42 14 0 9 9 15 25 15 14 0 25 5 25 11 0 6 -7 9 -15 5 -8 -3 -15 -1
-15 4 0 6 27 10 60 10 37 0 60 4 60 11 0 6 -7 9 -15 5 -8 -3 -15 -1 -15 4 0 6
26 10 58 11 56 1 57 1 27 14 l-30 14 43 1 c23 0 42 5 42 10 0 6 14 10 30 10
17 0 30 4 30 10 0 5 -7 7 -15 4 -8 -4 -15 -1 -15 5 0 6 14 11 30 11 20 0 30 5
30 15 0 8 7 15 15 15 8 0 15 7 15 15 0 9 9 15 25 15 14 0 25 5 25 11 0 5 -4 7
-10 4 -5 -3 -10 -1 -10 4 0 6 11 11 25 11 21 0 25 5 25 30 0 17 4 30 10 30 5
0 7 -7 4 -15 -4 -8 -1 -15 5 -15 6 0 11 11 11 25 0 16 6 25 15 25 8 0 15 5 15
10 0 6 -10 10 -23 10 -14 0 -41 -20 -74 -56z m27 -18 c0 -3 -4 -8 -10 -11 -5
-3 -10 -1 -10 4 0 6 5 11 10 11 6 0 10 -2 10 -4z"/>
<path d="M0 500 c0 -6 33 -10 80 -10 47 0 80 4 80 10 0 6 -33 10 -80 10 -47 0
-80 -4 -80 -10z"/>
<path d="M263 504 c8 -8 116 -9 124 -1 3 4 -24 7 -62 7 -38 0 -66 -3 -62 -6z"/>
<path d="M27 463 c18 -2 48 -2 66 0 17 2 3 4 -33 4 -36 0 -50 -2 -33 -4z"/>
<path d="M45 440 l-50 -7 63 -1 c40 -1 61 2 57 8 -3 6 -9 9 -13 8 -4 0 -29 -4
-57 -8z"/>
<path d="M965 420 c3 -5 13 -10 21 -10 8 0 14 5 14 10 0 6 -9 10 -21 10 -11 0
-17 -4 -14 -10z"/>
<path d="M28 393 c18 -2 45 -2 60 0 15 2 0 4 -33 4 -33 0 -45 -2 -27 -4z"/>
<path d="M954 343 l11 -58 3 43 c2 28 8 42 18 42 8 0 14 4 14 10 0 5 -7 7 -15
4 -8 -4 -15 -1 -15 5 0 6 -6 11 -13 11 -11 0 -12 -11 -3 -57z"/>
<path d="M875 380 c-3 -5 -1 -10 4 -10 6 0 11 5 11 10 0 6 -2 10 -4 10 -3 0
-8 -4 -11 -10z"/>
<path d="M918 363 c7 -3 16 -2 19 1 4 3 -2 6 -13 5 -11 0 -14 -3 -6 -6z"/>
<path d="M870 336 c0 -2 16 -6 35 -8 19 -2 35 0 35 4 0 4 -16 8 -35 8 -19 0
-35 -2 -35 -4z"/>
<path d="M991 324 c0 -11 3 -14 6 -6 3 7 2 16 -1 19 -3 4 -6 -2 -5 -13z"/>
<path d="M23 313 c15 -2 37 -2 50 0 12 2 0 4 -28 4 -27 0 -38 -2 -22 -4z"/>
<path d="M918 285 c2 -14 8 -25 13 -25 5 0 9 11 9 25 0 14 -6 25 -14 25 -9 0
-12 -8 -8 -25z"/>
<path d="M788 283 c12 -2 32 -2 45 0 12 2 2 4 -23 4 -25 0 -35 -2 -22 -4z"/>
<path d="M8 253 c7 -3 16 -2 19 1 4 3 -2 6 -13 5 -11 0 -14 -3 -6 -6z"/>
<path d="M0 213 c0 -11 3 -14 8 -7 4 6 14 14 22 17 10 4 8 6 -7 6 -16 1 -23
-5 -23 -16z"/>
<path d="M325 210 c-17 -7 -15 -9 13 -9 17 -1 32 4 32 9 0 12 -17 12 -45 0z"/>
<path d="M940 210 c0 -5 14 -10 30 -10 17 0 30 5 30 10 0 6 -13 10 -30 10 -16
0 -30 -4 -30 -10z"/>
<path d="M562 197 c13 -13 35 -17 100 -17 46 0 90 5 98 10 10 7 -16 10 -82 10
-53 0 -105 3 -115 7 -17 6 -17 6 -1 -10z"/>
<path d="M30 189 c0 -5 5 -7 10 -4 6 3 10 8 10 11 0 2 -4 4 -10 4 -5 0 -10 -5
-10 -11z"/>
<path d="M345 180 c-28 -7 -27 -8 13 -9 23 0 42 4 42 9 0 11 -11 11 -55 0z"/>
<path d="M910 162 c0 -4 17 -6 38 -4 58 5 62 10 10 11 -27 1 -48 -3 -48 -7z"/>
<path d="M875 120 c-4 -6 18 -10 59 -10 37 0 66 4 66 10 0 6 -26 10 -59 10
-33 0 -63 -4 -66 -10z"/>
</g>
</svg>
