<?xml version="1.0" standalone="no"?>
<!DOCTYPE svg PUBLIC "-//W3C//DTD SVG 20010904//EN"
 "http://www.w3.org/TR/2001/REC-SVG-20010904/DTD/svg10.dtd">
<svg version="1.0" xmlns="http://www.w3.org/2000/svg"
 width="100.000000pt" height="100.000000pt" viewBox="0 0 100.000000 100.000000"
 preserveAspectRatio="xMidYMid meet">
<metadata>
Created by potrace 1.16, written by Peter Selinger 2001-2019
</metadata>
<g transform="translate(0.000000,100.000000) scale(0.100000,-0.100000)"
fill="#000000" stroke="none">
<path d="M90 825 c0 -38 3 -45 20 -45 16 0 20 7 20 30 l0 30 370 0 370 0 0
-30 0 -30 -60 0 c-47 0 -60 -3 -60 -15 0 -11 -12 -15 -45 -15 -33 0 -45 -4
-45 -15 0 -11 -12 -15 -50 -15 -38 0 -50 -4 -50 -15 0 -11 -12 -15 -45 -15
-33 0 -45 -4 -45 -15 0 -11 -12 -15 -50 -15 -27 0 -50 -4 -50 -9 0 -13 103 0
118 15 7 8 27 14 43 14 17 0 37 7 45 15 9 8 33 15 55 15 21 0 39 4 39 9 0 5
20 12 45 15 25 4 45 11 45 16 0 5 27 12 60 16 62 7 64 9 63 61 0 6 6 14 13 17
11 4 14 -11 14 -74 l0 -80 -125 0 c-104 0 -125 -2 -125 -15 0 -10 -11 -15 -35
-15 -19 0 -35 -4 -35 -8 0 -12 62 -2 79 12 8 6 57 11 120 11 58 0 111 4 117 8
12 7 19 40 30 135 l7 53 -394 -1 c-255 -1 -398 -5 -406 -12 -9 -7 -13 -7 -13
1 0 6 -9 11 -20 11 -17 0 -20 -7 -20 -45z"/>
<path d="M238 813 c-27 -2 -48 -8 -48 -13 0 -4 -3 -17 -6 -27 -6 -16 -6 -17 7
-2 17 21 59 35 59 20 0 -6 -7 -11 -15 -11 -8 0 -15 -5 -15 -11 0 -6 7 -8 16
-5 9 3 28 6 42 6 20 0 23 3 13 9 -8 5 -11 16 -8 25 4 9 5 15 4 14 -1 -1 -23
-3 -49 -5z"/>
<path d="M533 813 c-35 -2 -63 -8 -63 -12 0 -5 20 -6 45 -3 30 3 45 1 45 -7 0
-6 -18 -11 -45 -11 -33 0 -45 -4 -45 -15 0 -12 -14 -15 -65 -15 -51 0 -65 -3
-65 -15 0 -11 -12 -15 -45 -15 -33 0 -45 -4 -45 -15 0 -8 -6 -15 -14 -15 -8 0
-16 -14 -18 -37 -6 -44 -1 -54 15 -33 7 8 25 22 41 30 33 17 46 40 22 40 -9 0
-16 -7 -16 -15 0 -9 -10 -15 -26 -15 l-26 0 23 25 c17 17 35 25 59 25 20 0 41
5 46 10 6 6 35 13 65 17 30 3 58 12 62 19 5 9 27 14 60 14 49 0 52 2 52 25 0
14 0 24 0 23 0 -1 -28 -3 -62 -5z"/>
<path d="M144 795 c3 -8 1 -15 -4 -15 -6 0 -10 -26 -10 -59 0 -50 3 -59 20
-64 18 -5 20 -14 20 -79 0 -40 5 -80 10 -88 6 -10 10 31 9 125 0 77 -4 131 -8
120 -4 -11 -6 -32 -5 -47 2 -16 -1 -28 -6 -28 -6 0 -10 33 -10 75 0 48 -4 75
-11 75 -6 0 -9 -7 -5 -15z"/>
<path d="M310 801 c0 -4 23 -6 50 -3 33 3 50 1 50 -7 0 -7 -20 -11 -50 -11
-38 0 -50 -4 -50 -15 0 -11 -12 -15 -45 -15 -42 0 -45 -2 -45 -27 l0 -27 16
22 c10 14 25 22 45 22 17 0 37 7 45 15 10 10 37 15 77 16 34 0 56 3 50 6 -7 2
-13 11 -13 19 0 11 -16 14 -65 14 -36 0 -65 -4 -65 -9z"/>
<path d="M620 801 c0 -4 23 -6 50 -3 33 3 50 1 50 -7 0 -7 -20 -11 -50 -11
-38 0 -50 -4 -50 -15 0 -12 -13 -15 -60 -15 -47 0 -60 -3 -60 -15 0 -11 -12
-15 -45 -15 -33 0 -45 -4 -45 -15 0 -10 -11 -15 -35 -15 -19 0 -35 -5 -35 -10
0 -12 67 -3 85 10 6 4 26 11 45 15 19 4 40 11 46 16 6 5 33 12 60 15 27 4 58
13 69 20 11 8 33 14 50 14 30 0 55 15 55 32 0 4 -29 8 -65 8 -36 0 -65 -4 -65
-9z"/>
<path d="M780 802 c0 -10 67 -8 77 2 3 3 -12 6 -35 6 -23 0 -42 -4 -42 -8z"/>
<path d="M942 658 c2 -68 8 -127 13 -131 6 -4 -3 -5 -19 -1 -26 6 -28 5 -24
-13 4 -16 1 -19 -18 -15 -17 3 -24 0 -24 -11 0 -8 6 -18 13 -21 6 -3 -1 -2
-17 1 -26 5 -28 3 -24 -14 4 -17 2 -19 -15 -15 -16 4 -19 1 -15 -16 4 -15 2
-19 -9 -15 -9 4 -20 -1 -25 -10 -5 -10 -21 -17 -35 -17 -21 0 -25 -4 -21 -24
4 -18 1 -22 -13 -19 -10 3 -23 -3 -30 -15 -8 -12 -19 -17 -32 -14 -12 3 -23
-1 -29 -12 -5 -9 -19 -16 -31 -16 -29 0 -51 -15 -43 -28 4 -7 -3 -10 -16 -10
-46 3 -78 -2 -78 -12 0 -6 30 -10 70 -10 39 0 70 4 70 10 0 5 -7 7 -15 4 -8
-4 -15 -1 -15 5 0 7 20 11 50 11 29 0 50 5 50 11 0 6 -9 8 -20 4 -11 -4 -20
-2 -20 4 0 6 21 11 50 11 30 0 50 4 50 11 0 6 -7 9 -15 5 -8 -3 -15 -1 -15 4
0 6 14 10 30 10 20 0 30 5 30 15 0 10 10 15 30 15 23 0 30 4 30 20 0 11 7 20
15 20 8 0 15 7 15 15 0 8 7 15 15 15 8 0 15 7 15 15 0 8 9 15 20 15 11 0 20 7
20 15 0 8 7 15 15 15 8 0 15 7 15 15 0 8 7 15 15 15 11 0 15 -12 15 -45 0 -33
-4 -45 -15 -45 -11 0 -15 -12 -15 -50 0 -38 -4 -50 -15 -50 -8 0 -15 -7 -15
-15 0 -11 -12 -15 -50 -15 -27 0 -50 -4 -50 -10 0 -5 7 -7 15 -4 8 4 15 1 15
-6 0 -9 -23 -11 -84 -9 -46 2 -82 2 -80 0 2 -2 34 -10 71 -17 l68 -12 -97 -1
c-97 -1 -133 -16 -60 -24 20 -3 -4 -4 -54 -3 -81 1 -90 -1 -81 -15 8 -13 24
-15 86 -11 44 2 83 10 92 18 8 8 36 14 62 14 26 0 49 5 54 13 9 13 69 47 84
47 17 0 9 -38 -8 -43 -17 -4 -17 -5 0 -6 20 -1 48 53 40 78 -4 14 -3 14 6 1
13 -18 17 -6 24 65 3 27 10 51 16 53 14 5 15 102 1 102 -6 0 -10 52 -10 135 0
116 -2 135 -16 135 -13 0 -15 -17 -12 -122z m-142 -287 c0 -6 -4 -13 -10 -16
-5 -3 -10 1 -10 9 0 9 5 16 10 16 6 0 10 -4 10 -9z"/>
<path d="M810 742 c0 -4 18 -6 40 -4 22 2 40 6 40 8 0 2 -18 4 -40 4 -22 0
-40 -3 -40 -8z"/>
<path d="M720 711 c0 -4 11 -6 25 -3 14 2 25 6 25 8 0 2 -11 4 -25 4 -14 0
-25 -4 -25 -9z"/>
<path d="M780 713 c0 -10 107 -9 117 0 3 4 -21 7 -55 7 -34 0 -62 -3 -62 -7z"/>
<path d="M590 682 c0 -5 14 -7 30 -4 17 2 30 6 30 8 0 2 -13 4 -30 4 -16 0
-30 -4 -30 -8z"/>
<path d="M310 645 c0 -8 -7 -15 -15 -15 -8 0 -15 -8 -15 -17 0 -13 3 -14 12
-5 7 7 26 12 43 13 16 0 24 3 18 6 -7 2 -13 11 -13 19 0 8 -7 14 -15 14 -8 0
-15 -7 -15 -15z"/>
<path d="M500 652 c0 -4 18 -6 40 -4 22 2 40 6 40 8 0 2 -18 4 -40 4 -22 0
-40 -3 -40 -8z"/>
<path d="M691 656 c2 -2 33 -7 68 -10 35 -4 67 -9 72 -11 10 -7 39 5 39 16 0
5 -41 9 -92 9 -50 0 -89 -2 -87 -4z"/>
<path d="M910 649 c0 -5 5 -7 10 -4 6 3 10 8 10 11 0 2 -4 4 -10 4 -5 0 -10
-5 -10 -11z"/>
<path d="M130 580 c0 -38 4 -50 15 -50 11 0 15 12 15 50 0 38 -4 50 -15 50
-11 0 -15 -12 -15 -50z"/>
<path d="M370 617 c0 -9 12 -11 40 -9 56 6 61 22 6 22 -31 0 -46 -4 -46 -13z"/>
<path d="M470 615 c0 -11 6 -13 23 -7 12 4 71 7 130 6 60 -2 118 1 130 6 14 6
-32 9 -130 9 -129 1 -153 -1 -153 -14z"/>
<path d="M870 614 c0 -14 3 -14 15 -4 8 7 15 14 15 16 0 2 -7 4 -15 4 -8 0
-15 -7 -15 -16z"/>
<path d="M910 620 c0 -5 5 -10 10 -10 6 0 10 5 10 10 0 6 -4 10 -10 10 -5 0
-10 -4 -10 -10z"/>
<path d="M795 600 c-3 -5 -1 -10 4 -10 6 0 11 5 11 10 0 6 -2 10 -4 10 -3 0
-8 -4 -11 -10z"/>
<path d="M84 585 c-7 -17 3 -35 19 -34 9 0 9 2 0 6 -7 2 -13 11 -13 18 0 7 6
16 13 18 9 4 9 6 -1 6 -7 1 -15 -6 -18 -14z"/>
<path d="M220 580 c0 -12 8 -12 35 0 18 8 17 9 -7 9 -16 1 -28 -3 -28 -9z"/>
<path d="M280 581 c0 -6 17 -7 38 -4 51 8 53 13 4 13 -23 0 -42 -4 -42 -9z"/>
<path d="M370 581 c0 -8 79 -3 89 5 2 2 -17 4 -42 4 -26 0 -47 -4 -47 -9z"/>
<path d="M470 582 c0 -9 119 -6 128 3 3 3 -25 5 -61 5 -37 0 -67 -4 -67 -8z"/>
<path d="M620 581 c0 -4 11 -6 25 -3 14 2 25 6 25 8 0 2 -11 4 -25 4 -14 0
-25 -4 -25 -9z"/>
<path d="M840 579 c0 -5 5 -7 10 -4 6 3 10 8 10 11 0 2 -4 4 -10 4 -5 0 -10
-5 -10 -11z"/>
<path d="M870 568 c0 -21 1 -21 13 -3 8 10 19 15 25 11 6 -3 13 -2 17 4 4 6
-6 10 -24 10 -25 0 -31 -4 -31 -22z"/>
<path d="M744 559 c-10 -11 -26 -18 -36 -16 -10 3 -18 2 -18 -3 0 -4 15 -10
33 -12 29 -3 33 -1 29 14 -3 12 1 18 12 18 9 0 16 5 16 10 0 16 -16 12 -36
-11z"/>
<path d="M220 549 c0 -5 5 -7 10 -4 6 3 10 8 10 11 0 2 -4 4 -10 4 -5 0 -10
-5 -10 -11z"/>
<path d="M250 550 c0 -5 7 -10 15 -10 8 0 15 5 15 10 0 6 -7 10 -15 10 -8 0
-15 -4 -15 -10z"/>
<path d="M310 552 c0 -9 277 -8 286 1 4 4 -59 7 -139 7 -81 0 -147 -3 -147 -8z"/>
<path d="M810 549 c0 -5 5 -7 10 -4 6 3 10 8 10 11 0 2 -4 4 -10 4 -5 0 -10
-5 -10 -11z"/>
<path d="M840 549 c0 -5 5 -7 10 -4 6 3 10 8 10 11 0 2 -4 4 -10 4 -5 0 -10
-5 -10 -11z"/>
<path d="M650 524 c0 -10 -6 -14 -15 -10 -8 3 -15 1 -15 -4 0 -6 9 -10 20 -10
13 0 20 7 20 20 0 11 -2 20 -5 20 -3 0 -5 -7 -5 -16z"/>
<path d="M220 519 c0 -5 5 -7 10 -4 6 3 10 8 10 11 0 2 -4 4 -10 4 -5 0 -10
-5 -10 -11z"/>
<path d="M250 522 c0 -9 218 -7 228 2 3 3 -47 6 -111 6 -64 0 -117 -4 -117 -8z"/>
<path d="M780 515 c0 -10 -10 -15 -30 -15 -20 0 -30 -5 -30 -15 0 -11 -12 -15
-50 -15 -27 0 -50 -4 -50 -8 0 -5 27 -9 61 -9 47 -1 59 2 55 13 -5 13 17 19
53 14 9 -1 12 4 8 14 -3 8 -2 18 3 21 6 4 10 1 10 -4 0 -6 7 -11 15 -11 8 0
15 7 15 15 0 10 -10 15 -30 15 -20 0 -30 -5 -30 -15z"/>
<path d="M554 499 c-10 -11 -26 -18 -36 -16 -10 3 -18 1 -18 -4 0 -5 14 -9 30
-9 20 0 30 5 30 15 0 8 7 15 15 15 8 0 15 5 15 10 0 16 -16 12 -36 -11z"/>
<path d="M130 420 c0 -73 -2 -80 -20 -80 -11 0 -20 -7 -20 -15 0 -8 -7 -15
-15 -15 -10 0 -15 -10 -15 -30 0 -20 -5 -30 -15 -30 -10 0 -15 -10 -15 -30 0
-20 -5 -30 -15 -30 -8 0 -15 -7 -15 -15 0 -13 22 -15 140 -15 118 0 140 2 140
15 0 12 16 15 80 15 64 0 80 3 80 15 0 8 -7 15 -15 15 -8 0 -15 -5 -15 -11 0
-5 -5 -7 -10 -4 -6 3 -81 3 -168 -2 l-157 -8 100 -6 100 -5 -97 -4 c-54 -1
-104 -3 -110 -4 -22 -2 -20 42 1 63 12 12 21 28 21 37 0 18 23 44 39 44 13 0
18 22 26 113 6 57 4 67 -9 67 -13 0 -16 -14 -16 -80z"/>
<path d="M202 494 c10 -10 62 -12 83 -3 14 5 4 8 -34 8 -30 1 -52 -2 -49 -5z"/>
<path d="M310 485 c0 -12 16 -15 80 -15 44 0 80 3 80 8 0 4 -18 6 -40 4 -25
-3 -40 0 -40 7 0 6 -17 11 -40 11 -29 0 -40 -4 -40 -15z"/>
<path d="M175 460 c3 -5 8 -10 11 -10 2 0 4 5 4 10 0 6 -5 10 -11 10 -5 0 -7
-4 -4 -10z"/>
<path d="M218 463 c6 -2 18 -2 25 0 6 3 1 5 -13 5 -14 0 -19 -2 -12 -5z"/>
<path d="M170 430 c0 -5 10 -10 23 -11 12 0 16 -3 10 -6 -18 -7 -16 -33 2 -33
10 0 15 10 15 26 0 26 2 26 45 22 25 -3 45 -2 45 3 0 5 -31 9 -70 9 -40 0 -70
-4 -70 -10z"/>
<path d="M340 430 c0 -5 7 -10 15 -10 8 0 15 5 15 10 0 6 -7 10 -15 10 -8 0
-15 -4 -15 -10z"/>
<path d="M398 433 c7 -3 16 -2 19 1 4 3 -2 6 -13 5 -11 0 -14 -3 -6 -6z"/>
<path d="M440 430 c0 -5 7 -10 15 -10 8 0 15 5 15 10 0 6 -7 10 -15 10 -8 0
-15 -4 -15 -10z"/>
<path d="M500 432 c0 -10 156 -9 166 1 4 4 -32 7 -79 7 -48 0 -87 -4 -87 -8z"/>
<path d="M940 429 c0 -5 5 -7 10 -4 6 3 10 8 10 11 0 2 -4 4 -10 4 -5 0 -10
-5 -10 -11z"/>
<path d="M85 410 c-3 -6 1 -7 9 -4 18 7 21 14 7 14 -6 0 -13 -4 -16 -10z"/>
<path d="M244 401 c6 -10 292 -8 303 2 3 4 -64 7 -151 7 -86 0 -155 -4 -152
-9z"/>
<path d="M560 399 c0 -5 5 -7 10 -4 6 3 10 8 10 11 0 2 -4 4 -10 4 -5 0 -10
-5 -10 -11z"/>
<path d="M90 364 c0 -14 3 -14 15 -4 8 7 15 14 15 16 0 2 -7 4 -15 4 -8 0 -15
-7 -15 -16z"/>
<path d="M911 364 c0 -11 3 -14 6 -6 3 7 2 16 -1 19 -3 4 -6 -2 -5 -13z"/>
<path d="M840 325 c0 -18 -56 -21 -62 -3 -3 9 -6 9 -12 0 -4 -7 -2 -12 3 -12
6 0 11 -7 11 -16 0 -11 -6 -15 -20 -11 -11 3 -20 1 -20 -4 0 -5 11 -9 25 -9
14 0 25 4 25 9 0 5 12 12 27 16 45 11 74 45 38 45 -8 0 -15 -7 -15 -15z"/>
<path d="M910 329 c0 -5 5 -7 10 -4 6 3 10 8 10 11 0 2 -4 4 -10 4 -5 0 -10
-5 -10 -11z"/>
<path d="M878 303 c7 -3 16 -2 19 1 4 3 -2 6 -13 5 -11 0 -14 -3 -6 -6z"/>
<path d="M840 205 c0 -8 7 -15 15 -15 8 0 15 7 15 15 0 8 -7 15 -15 15 -8 0
-15 -7 -15 -15z"/>
<path d="M450 190 c-6 -11 -26 -15 -74 -15 -36 0 -66 -3 -66 -7 0 -5 36 -8 80
-8 64 0 80 3 80 15 0 8 7 15 15 15 8 0 15 4 15 9 0 15 -41 8 -50 -9z"/>
<path d="M828 163 c-10 -2 -18 -11 -18 -19 0 -11 -24 -14 -132 -14 -72 0 -129
-2 -127 -4 2 -3 60 -6 127 -7 122 -2 124 -2 150 24 15 15 24 26 22 26 -3 -1
-13 -3 -22 -6z"/>
<path d="M494 145 c8 -8 19 -15 25 -15 6 0 11 7 11 15 0 9 -10 15 -26 15 -23
0 -24 -2 -10 -15z"/>
<path d="M25 140 c-17 -4 63 -8 178 -9 114 0 207 2 207 7 0 9 -346 11 -385 2z"/>
<path d="M443 123 c9 -2 23 -2 30 0 6 3 -1 5 -18 5 -16 0 -22 -2 -12 -5z"/>
</g>
</svg>
