<?xml version="1.0" standalone="no"?>
<!DOCTYPE svg PUBLIC "-//W3C//DTD SVG 20010904//EN"
 "http://www.w3.org/TR/2001/REC-SVG-20010904/DTD/svg10.dtd">
<svg version="1.0" xmlns="http://www.w3.org/2000/svg"
 width="64.000000pt" height="64.000000pt" viewBox="0 0 64.000000 64.000000"
 preserveAspectRatio="xMidYMid meet">
<metadata>
Created by potrace 1.16, written by Peter Selinger 2001-2019
</metadata>
<g transform="translate(0.000000,64.000000) scale(0.100000,-0.100000)"
fill="#000000" stroke="none">
<path d="M80 480 l0 -80 40 0 40 0 0 -40 0 -40 -40 0 -40 0 0 -120 0 -120 200
0 200 0 0 40 0 40 40 0 40 0 -1 83 c-1 86 -1 87 -18 21 -11 -40 -12 -41 -83
-62 -40 -11 -87 -24 -105 -27 -37 -7 -68 -46 -50 -64 8 -8 2 -11 -25 -11 -30
0 -37 4 -41 23 l-4 22 -2 -22 c-1 -21 -6 -23 -66 -23 -65 0 -65 0 -65 28 l0
29 108 9 c92 9 120 16 183 46 41 19 95 56 122 81 l47 45 0 111 0 111 -240 0
-240 0 0 -80z m63 45 c4 -8 2 -17 -3 -20 -5 -3 -6 -13 -3 -22 5 -13 2 -15 -11
-10 -10 4 -20 7 -22 7 -2 0 -4 14 -4 30 0 23 5 30 19 30 10 0 21 -7 24 -15z
m397 -8 c0 -20 -4 -23 -30 -19 -16 2 -28 8 -25 12 3 5 -9 5 -26 0 -18 -5 -92
-9 -165 -8 -124 0 -134 2 -134 19 0 18 11 19 190 19 l190 0 0 -23z m-15 -74
l13 -43 -39 0 c-28 0 -39 -4 -39 -15 0 -8 5 -15 11 -15 5 0 8 4 5 8 -3 5 8 9
24 10 33 1 50 -16 29 -29 -8 -5 -10 -9 -5 -9 8 0 -28 -35 -79 -78 -9 -7 -46
-27 -83 -45 -37 -17 -68 -34 -70 -39 -2 -4 -10 -8 -18 -8 -9 0 -12 5 -9 10 7
11 -8 14 -18 4 -4 -4 -19 -8 -34 -9 -16 -2 -46 -4 -68 -6 l-40 -4 -3 63 -3 62
41 0 40 0 0 53 c-1 28 -7 70 -15 92 -8 22 -15 40 -15 41 0 0 82 0 181 0 l182
-1 12 -42z m-399 19 c6 -4 13 -15 17 -24 5 -14 1 -18 -18 -18 -20 0 -25 5 -25
25 0 26 7 30 26 17z m414 -267 c0 -9 -9 -15 -21 -15 -18 0 -19 2 -9 15 7 8 16
15 21 15 5 0 9 -7 9 -15z m-80 -60 c0 -32 -2 -35 -30 -35 -26 0 -30 4 -30 26
0 15 -4 23 -10 19 -6 -4 -8 -15 -5 -26 5 -16 1 -19 -29 -19 -31 0 -36 3 -36
24 0 20 7 25 48 34 86 18 92 16 92 -23z"/>
<path d="M198 453 c6 -2 18 -2 25 0 6 3 1 5 -13 5 -14 0 -19 -2 -12 -5z"/>
<path d="M268 453 c18 -2 45 -2 60 0 15 2 0 4 -33 4 -33 0 -45 -2 -27 -4z"/>
<path d="M360 449 c0 -5 5 -7 10 -4 6 3 10 8 10 11 0 2 -4 4 -10 4 -5 0 -10
-5 -10 -11z"/>
<path d="M400 450 c0 -5 7 -10 16 -10 8 0 12 5 9 10 -3 6 -10 10 -16 10 -5 0
-9 -4 -9 -10z"/>
<path d="M450 450 c0 -5 5 -10 11 -10 5 0 7 5 4 10 -3 6 -8 10 -11 10 -2 0 -4
-4 -4 -10z"/>
<path d="M395 368 c-64 -16 -67 -17 -61 -27 7 -11 106 18 106 31 0 4 -1 7 -2
7 -2 -1 -21 -6 -43 -11z"/>
<path d="M295 330 c-3 -5 1 -10 9 -10 9 0 16 5 16 10 0 6 -4 10 -9 10 -6 0
-13 -4 -16 -10z"/>
<path d="M199 311 c8 -5 26 -7 40 -4 42 7 37 13 -10 13 -30 0 -39 -3 -30 -9z"/>
</g>
</svg>
