<?xml version="1.0" standalone="no"?>
<!DOCTYPE svg PUBLIC "-//W3C//DTD SVG 20010904//EN"
 "http://www.w3.org/TR/2001/REC-SVG-20010904/DTD/svg10.dtd">
<svg version="1.0" xmlns="http://www.w3.org/2000/svg"
 width="180.000000pt" height="180.000000pt" viewBox="0 0 180.000000 180.000000"
 preserveAspectRatio="xMidYMid meet">
<metadata>
Created by potrace 1.16, written by Peter Selinger 2001-2019
</metadata>
<g transform="translate(0.000000,180.000000) scale(0.100000,-0.100000)"
fill="#000000" stroke="none">
<path d="M1482 1126 c-44 -41 -191 -146 -269 -192 l-63 -37 0 -316 0 -316 190
0 190 0 0 448 c0 246 -3 446 -7 446 -5 -1 -23 -15 -41 -33z m18 -431 l0 -405
-160 0 -160 0 0 294 0 294 128 85 c70 47 141 97 157 111 17 14 31 25 33 26 1
0 2 -182 2 -405z"/>
<path d="M1025 829 c-27 -15 -110 -52 -182 -81 l-133 -53 0 -215 0 -215 190 0
190 0 0 298 c0 163 -3 297 -7 296 -5 -1 -30 -14 -58 -30z m35 -279 l0 -260
-160 0 -160 0 0 193 0 194 98 37 c53 20 122 50 152 66 30 16 58 29 63 30 4 0
7 -117 7 -260z"/>
<path d="M560 654 c-47 -13 -129 -32 -183 -42 l-98 -17 0 -163 0 -163 186 0
186 0 2 205 c1 113 0 205 -3 205 -3 -1 -43 -12 -90 -25z m70 -189 l0 -175
-165 0 -165 0 0 140 c0 77 3 140 6 140 18 0 254 51 275 59 50 20 49 22 49
-164z"/>
</g>
</svg>
