<?xml version="1.0" standalone="no"?>
<!DOCTYPE svg PUBLIC "-//W3C//DTD SVG 20010904//EN"
 "http://www.w3.org/TR/2001/REC-SVG-20010904/DTD/svg10.dtd">
<svg version="1.0" xmlns="http://www.w3.org/2000/svg"
 width="256.000000pt" height="256.000000pt" viewBox="0 0 256.000000 256.000000"
 preserveAspectRatio="xMidYMid meet">
<metadata>
Created by potrace 1.16, written by Peter Selinger 2001-2019
</metadata>
<g transform="translate(0.000000,256.000000) scale(0.100000,-0.100000)"
fill="#000000" stroke="none">
<path d="M1010 2546 c-111 -21 -240 -65 -351 -120 -278 -139 -479 -338 -610
-606 -47 -97 -54 -120 -37 -120 7 1 29 35 48 78 94 208 256 399 454 535 139
94 386 195 524 213 34 4 52 11 52 20 0 8 -3 13 -7 13 -5 -1 -37 -7 -73 -13z"/>
<path d="M1470 2547 c0 -9 16 -16 46 -21 25 -3 93 -20 151 -37 367 -106 673
-366 828 -702 22 -47 46 -86 53 -87 18 0 10 24 -40 125 -166 333 -462 580
-819 684 -57 16 -122 33 -144 36 -22 4 -48 9 -57 12 -11 2 -18 -1 -18 -10z"/>
<path d="M1165 2434 c-193 -21 -403 -89 -550 -178 -125 -76 -285 -226 -366
-345 -221 -323 -250 -780 -72 -1135 112 -223 321 -425 548 -530 174 -81 358
-120 560 -120 198 1 377 40 550 120 322 149 575 463 641 794 35 174 29 379
-17 548 -21 81 -98 250 -135 299 -13 17 -24 35 -24 39 0 9 -6 15 -84 98 -25
27 -46 51 -46 54 0 12 -159 138 -229 181 -109 66 -277 128 -424 156 -84 16
-281 26 -352 19z m334 -40 c72 -13 156 -37 221 -61 8 -3 21 -7 29 -9 8 -1 18
-9 22 -16 5 -7 9 -10 9 -6 0 10 67 -19 135 -60 74 -44 235 -171 235 -184 0 -3
21 -27 46 -54 78 -83 84 -89 84 -98 0 -4 11 -22 25 -40 25 -33 60 -105 57
-118 -1 -5 2 -8 6 -8 8 0 50 -93 56 -122 2 -7 6 -20 9 -28 41 -102 55 -359 28
-505 -64 -347 -316 -666 -646 -819 -293 -136 -617 -156 -920 -57 -212 69 -357
160 -510 322 -322 340 -394 823 -186 1238 50 99 84 148 164 239 87 97 254 231
280 224 4 -1 7 2 7 7 0 35 414 179 449 157 5 -4 12 -2 15 3 3 4 27 9 52 9 26
1 49 3 51 6 9 9 202 -5 282 -20z"/>
<path d="M1219 2331 c-48 -15 -70 -33 -100 -79 -48 -75 -37 -183 23 -243 26
-27 100 -59 133 -59 70 0 156 56 181 117 30 72 9 178 -44 226 -43 39 -131 56
-193 38z m114 -25 c48 -18 74 -41 98 -88 35 -69 19 -140 -44 -195 -52 -46
-101 -57 -156 -36 -74 28 -121 92 -121 166 0 39 48 120 81 138 56 30 90 33
142 15z"/>
<path d="M780 2077 c-111 -58 -381 -222 -401 -243 l-24 -26 0 -521 0 -522 25
-28 c21 -24 56 -47 183 -117 15 -8 66 -38 115 -66 48 -28 134 -78 192 -111 58
-32 123 -71 145 -84 22 -14 67 -41 100 -59 174 -97 158 -98 370 25 55 32 145
84 200 115 55 31 143 82 195 113 52 31 118 68 145 83 97 52 154 94 170 124 14
26 15 92 13 540 l-3 510 -30 29 c-24 23 -267 169 -395 238 -72 38 -181 -16
-199 -99 -11 -56 1 -96 43 -139 22 -21 43 -39 47 -39 13 0 184 -102 187 -112
2 -4 7 -6 12 -3 4 3 18 -4 31 -14 l24 -19 0 -353 c1 -195 -1 -361 -3 -370 -2
-9 -38 -36 -80 -61 -198 -116 -412 -238 -417 -238 -3 0 -5 242 -5 538 0 515
-1 538 -20 569 -52 86 -188 86 -240 0 -19 -31 -20 -54 -20 -569 0 -296 -2
-538 -5 -538 -3 0 -74 40 -158 88 -84 49 -194 112 -245 141 l-92 53 2 375 3
376 134 77 c74 43 150 94 169 115 32 35 34 40 30 96 -3 45 -10 65 -29 85 -45
50 -118 67 -169 41z m93 -21 c47 -20 78 -58 84 -104 5 -35 1 -44 -29 -77 -19
-21 -95 -72 -169 -115 l-134 -77 -3 -396 -2 -395 92 -53 c51 -29 161 -92 245
-141 84 -48 164 -88 178 -88 l25 0 0 535 c0 591 -2 576 63 615 18 11 42 20 55
20 36 0 81 -28 102 -63 19 -31 20 -54 20 -569 l0 -538 25 0 c22 0 136 62 437
238 46 27 79 53 82 66 10 36 7 723 -3 749 -9 23 -42 45 -216 139 -27 16 -67
44 -87 64 -31 30 -38 44 -38 75 0 76 97 147 157 116 103 -52 373 -214 398
-238 l30 -29 3 -490 c2 -430 1 -494 -13 -520 -16 -30 -73 -72 -170 -124 -27
-15 -93 -52 -145 -83 -52 -31 -140 -82 -195 -113 -55 -31 -145 -83 -200 -115
-185 -108 -180 -106 -235 -77 -67 35 -155 86 -195 111 -22 13 -87 52 -145 84
-58 33 -144 83 -192 111 -49 28 -100 58 -115 66 -127 70 -162 93 -183 117
l-25 28 0 502 0 501 24 26 c28 30 411 256 434 256 4 0 22 -6 40 -14z"/>
<path d="M6 838 c11 -35 77 -168 109 -218 76 -122 220 -280 307 -338 21 -13
35 -29 32 -33 -3 -5 -2 -8 3 -7 4 2 26 -8 48 -22 96 -58 168 -100 172 -100 3
0 51 -18 107 -40 55 -21 137 -46 181 -55 44 -9 90 -18 103 -21 13 -3 22 0 22
8 0 8 -35 20 -97 32 -53 10 -140 36 -193 57 -54 22 -100 39 -103 39 -14 0
-161 92 -237 148 -169 125 -315 305 -400 494 -19 43 -41 77 -48 78 -9 0 -11
-7 -6 -22z"/>
<path d="M2500 782 c-123 -273 -349 -500 -635 -636 -101 -49 -264 -101 -342
-112 -35 -4 -53 -11 -53 -20 0 -10 8 -13 23 -9 12 2 49 9 82 15 80 15 79 15
90 22 6 3 37 13 69 23 33 9 100 36 150 60 280 134 494 344 626 614 48 98 55
121 38 121 -7 -1 -29 -35 -48 -78z"/>
</g>
</svg>
