<?xml version="1.0" standalone="no"?>
<!DOCTYPE svg PUBLIC "-//W3C//DTD SVG 20010904//EN"
 "http://www.w3.org/TR/2001/REC-SVG-20010904/DTD/svg10.dtd">
<svg version="1.0" xmlns="http://www.w3.org/2000/svg"
 width="106.000000pt" height="106.000000pt" viewBox="0 0 106.000000 106.000000"
 preserveAspectRatio="xMidYMid meet">
<metadata>
Created by potrace 1.16, written by Peter Selinger 2001-2019
</metadata>
<g transform="translate(0.000000,106.000000) scale(0.100000,-0.100000)"
fill="#000000" stroke="none">
<path d="M270 1028 c-139 -67 -271 -241 -269 -354 l1 -49 9 39 c31 133 154
284 280 344 37 18 84 36 105 41 l39 9 -50 1 c-37 0 -67 -8 -115 -31z"/>
<path d="M664 1049 c21 -5 68 -23 105 -41 126 -60 249 -211 280 -344 l9 -39 1
49 c3 157 -228 388 -385 385 l-49 -1 39 -9z"/>
<path d="M218 841 c-99 -39 -165 -115 -194 -223 -19 -73 -18 -119 7 -201 18
-60 30 -79 78 -127 72 -73 132 -95 249 -94 53 0 86 5 91 12 6 9 15 9 42 0 21
-8 85 -13 169 -13 125 0 139 2 190 26 124 58 180 141 188 278 7 130 -13 188
-91 266 -83 81 -126 95 -296 95 -75 -1 -140 -6 -162 -14 -29 -10 -37 -10 -47
1 -20 20 -166 16 -224 -6z m196 -10 c17 -7 15 -10 -17 -30 -21 -12 -37 -27
-37 -32 0 -5 -10 -9 -21 -9 -43 0 -100 -24 -140 -59 -146 -124 -79 -369 108
-398 21 -3 53 -19 71 -35 18 -15 37 -28 42 -28 6 0 10 -5 10 -11 0 -8 -27 -10
-87 -7 -135 7 -216 58 -273 170 -87 175 14 392 205 439 39 9 115 10 139 0z
m191 -30 c0 -38 -1 -40 -41 -46 -77 -11 -162 -86 -179 -157 l-7 -28 101 0 101
0 0 -40 0 -40 -105 0 -105 0 15 -37 c34 -83 104 -142 177 -150 44 -5 44 -5 43
-44 0 -37 -2 -39 -31 -39 -127 0 -261 132 -280 276 -17 140 86 293 224 330 81
22 88 20 87 -25z m239 5 c113 -55 182 -174 173 -297 -11 -168 -135 -284 -311
-290 l-67 -2 -2 312 -2 313 76 -4 c57 -3 91 -12 133 -32z m-543 -128 c-23 -46
-26 -65 -26 -153 0 -90 3 -105 27 -152 l28 -51 -29 8 c-45 13 -65 26 -104 69
-34 38 -57 92 -57 136 0 62 73 157 140 184 44 18 47 12 21 -41z m309 -20 l0
-73 -100 3 -100 3 14 27 c29 56 108 111 159 112 l27 0 0 -72z m0 -263 c0 -66
-2 -75 -18 -75 -37 0 -122 52 -152 93 l-31 42 93 6 c51 3 96 6 101 7 4 1 7
-32 7 -73z"/>
<path d="M715 530 l0 -230 25 0 c70 1 165 81 188 159 37 121 -26 244 -145 287
-72 25 -68 39 -68 -216z m69 186 c80 -33 144 -143 127 -218 -11 -45 -34 -89
-63 -114 -25 -24 -81 -54 -98 -54 -6 0 -10 67 -10 200 0 110 2 200 5 200 3 0
21 -6 39 -14z"/>
<path d="M1 386 c-3 -157 228 -388 385 -385 l49 1 -39 9 c-133 31 -284 154
-344 280 -18 37 -36 84 -41 105 l-9 39 -1 -49z"/>
<path d="M1048 398 c-30 -164 -211 -346 -384 -387 l-39 -9 49 -1 c158 -3 394
234 384 387 l-3 47 -7 -37z"/>
</g>
</svg>
