<?xml version="1.0" standalone="no"?>
<!DOCTYPE svg PUBLIC "-//W3C//DTD SVG 20010904//EN"
 "http://www.w3.org/TR/2001/REC-SVG-20010904/DTD/svg10.dtd">
<svg version="1.0" xmlns="http://www.w3.org/2000/svg"
 width="192.000000pt" height="192.000000pt" viewBox="0 0 192.000000 192.000000"
 preserveAspectRatio="xMidYMid meet">
<metadata>
Created by potrace 1.16, written by Peter Selinger 2001-2019
</metadata>
<g transform="translate(0.000000,192.000000) scale(0.100000,-0.100000)"
fill="#000000" stroke="none">
<path d="M950 1799 c-276 -30 -509 -186 -637 -426 -79 -148 -88 -192 -88 -413
0 -177 2 -201 23 -264 89 -265 267 -449 522 -539 58 -21 220 -47 290 -47 141
0 331 50 445 117 67 39 70 67 18 146 -35 52 -41 57 -75 57 -24 0 -55 -11 -85
-29 -27 -16 -84 -42 -128 -56 -257 -87 -550 31 -715 286 -49 76 -74 142 -94
248 -14 73 -14 89 0 161 33 178 132 342 258 427 22 15 43 30 46 33 3 3 28 17
56 33 176 93 369 92 554 -4 42 -21 85 -39 97 -39 31 0 103 102 103 147 0 28
-6 37 -42 59 -128 81 -355 124 -548 103z m262 -30 c120 -16 308 -98 308 -132
0 -17 -80 -129 -88 -125 -4 2 -39 20 -77 40 -187 96 -409 97 -589 1 -28 -16
-53 -30 -56 -33 -3 -3 -24 -18 -46 -33 -129 -87 -226 -251 -260 -438 -15 -82
-15 -96 0 -179 21 -114 46 -181 96 -259 72 -111 162 -192 276 -249 100 -50
167 -65 289 -65 93 0 123 4 190 27 44 15 101 41 128 57 26 16 55 29 65 29 18
-1 83 -88 86 -116 3 -42 -198 -126 -361 -151 -106 -16 -120 -16 -225 0 -102
16 -156 31 -241 66 -47 19 -158 95 -215 146 -93 84 -176 218 -224 361 -21 62
-23 88 -23 244 0 157 2 182 23 245 108 323 374 541 702 573 87 9 126 8 242 -9z"/>
<path d="M785 1322 c-81 -39 -135 -130 -135 -229 l0 -43 99 0 c96 0 99 1 105
24 13 53 74 76 96 36 10 -19 -22 -72 -246 -393 -35 -51 -54 -88 -54 -108 l0
-29 224 0 224 0 32 49 c17 27 38 55 46 61 7 7 14 28 14 46 l0 34 -85 0 c-47 0
-85 2 -85 5 0 3 27 45 60 94 74 110 80 126 80 212 l0 69 55 0 55 0 0 -285 0
-285 135 0 135 0 0 39 c0 36 -2 39 -35 45 l-35 7 0 335 0 335 -112 -3 -112 -3
-38 -50 c-21 -27 -42 -63 -47 -80 -5 -16 -10 -24 -10 -17 -2 28 -54 93 -94
119 -37 24 -54 27 -137 30 -78 3 -102 0 -135 -15z m252 -35 c60 -38 96 -98
101 -169 7 -90 -3 -116 -88 -244 l-80 -119 100 -3 c76 -2 100 -6 100 -16 0 -8
-7 -19 -14 -26 -8 -6 -29 -34 -46 -61 l-32 -49 -204 0 c-120 0 -204 4 -204 9
0 10 22 43 170 256 46 66 99 144 117 174 30 50 31 55 18 81 -29 56 -114 46
-137 -16 l-12 -34 -78 0 c-75 0 -78 1 -78 23 0 43 32 122 64 156 51 55 99 72
186 68 60 -3 83 -9 117 -30z m413 -302 l0 -334 35 -7 c25 -4 35 -11 35 -25 0
-18 -9 -19 -115 -19 l-115 0 0 285 0 285 -55 0 c-64 0 -67 7 -29 65 56 84 58
85 156 85 l88 0 0 -335z"/>
</g>
</svg>
