<?xml version="1.0" standalone="no"?>
<!DOCTYPE svg PUBLIC "-//W3C//DTD SVG 20010904//EN"
 "http://www.w3.org/TR/2001/REC-SVG-20010904/DTD/svg10.dtd">
<svg version="1.0" xmlns="http://www.w3.org/2000/svg"
 width="100.000000pt" height="100.000000pt" viewBox="0 0 100.000000 100.000000"
 preserveAspectRatio="xMidYMid meet">
<metadata>
Created by potrace 1.16, written by Peter Selinger 2001-2019
</metadata>
<g transform="translate(0.000000,100.000000) scale(0.100000,-0.100000)"
fill="#000000" stroke="none">
<path d="M320 910 c0 -16 -7 -20 -30 -20 -20 0 -30 -5 -30 -15 0 -10 -10 -15
-30 -15 -20 0 -30 -5 -30 -15 0 -8 -7 -15 -15 -15 -8 0 -15 -7 -15 -15 0 -8
-7 -15 -15 -15 -10 0 -15 -10 -15 -30 0 -20 -5 -30 -15 -30 -8 0 -15 -7 -15
-15 0 -8 -9 -15 -20 -15 -17 0 -20 -7 -20 -50 0 -38 -4 -50 -15 -50 -13 0 -15
-23 -15 -145 0 -122 2 -145 15 -145 10 0 15 -10 15 -30 0 -23 4 -30 20 -30 16
0 20 -7 20 -30 0 -20 5 -30 15 -30 8 0 15 -7 15 -15 0 -8 7 -15 15 -15 8 0 15
-7 15 -15 0 -8 7 -15 15 -15 8 0 15 -7 15 -15 0 -8 7 -15 15 -15 8 0 15 -9 15
-20 0 -16 7 -20 30 -20 20 0 30 -5 30 -15 0 -10 10 -15 30 -15 20 0 30 -5 30
-15 0 -13 23 -15 145 -15 122 0 145 2 145 15 0 10 11 15 35 15 24 0 35 5 35
15 0 10 10 15 30 15 23 0 30 4 30 20 0 11 7 20 15 20 8 0 15 7 15 15 0 8 7 15
15 15 8 0 15 7 15 15 0 8 7 15 15 15 8 0 15 7 15 15 0 8 7 15 15 15 10 0 15
10 15 30 0 23 4 30 20 30 16 0 20 7 20 30 0 20 5 30 15 30 13 0 15 23 15 145
0 122 -2 145 -15 145 -11 0 -15 12 -15 50 0 43 -3 50 -20 50 -11 0 -20 7 -20
15 0 8 -7 15 -15 15 -10 0 -15 10 -15 30 0 20 -5 30 -15 30 -8 0 -15 7 -15 15
0 8 -7 15 -15 15 -8 0 -15 7 -15 15 0 10 -10 15 -30 15 -20 0 -30 5 -30 15 0
10 -10 15 -30 15 -23 0 -30 4 -30 20 0 19 -7 20 -180 20 -173 0 -180 -1 -180
-20z m340 -20 c0 -18 -7 -20 -65 -20 -53 0 -65 -3 -65 -16 0 -10 6 -14 15 -10
8 3 15 1 15 -4 0 -6 -27 -10 -60 -10 -36 0 -60 4 -60 11 0 5 5 7 11 3 6 -3 15
0 20 7 6 10 9 11 9 2 0 -7 7 -13 16 -13 9 0 14 6 12 13 -3 8 -32 13 -86 15
-74 3 -82 5 -82 22 0 19 8 20 160 20 153 0 160 -1 160 -20z m-320 -35 c0 -10
-10 -15 -30 -15 -21 0 -30 -5 -30 -16 0 -11 6 -15 19 -11 14 3 17 0 14 -14 -4
-16 0 -19 26 -19 21 0 31 -5 31 -15 0 -10 -10 -15 -30 -15 -20 0 -30 5 -30 15
0 26 -17 17 -70 -35 -52 -53 -61 -70 -35 -70 8 0 15 7 15 15 0 8 7 15 15 15 8
0 15 -7 15 -15 0 -8 -7 -15 -15 -15 -11 0 -15 -12 -15 -50 0 -38 -4 -50 -15
-50 -12 0 -15 10 -14 45 3 57 -7 67 -25 25 l-14 -33 2 41 c0 22 4 35 8 29 9
-15 15 -9 23 26 6 21 4 27 -9 27 -9 0 -16 -7 -16 -15 0 -8 -7 -15 -15 -15 -8
0 -15 7 -15 15 0 8 7 15 15 15 10 0 15 10 15 30 0 21 5 30 16 30 9 0 14 -8 13
-17 -3 -33 1 -43 17 -43 12 0 15 7 10 28 -3 15 -3 21 0 15 3 -7 12 -13 20 -13
17 0 19 26 2 34 -7 3 -1 3 15 0 20 -5 27 -2 27 10 0 11 -9 16 -30 16 -20 0
-30 5 -30 15 0 10 10 15 30 15 20 0 30 5 30 15 0 10 10 15 30 15 20 0 30 -5
30 -15z m380 0 c0 -10 10 -15 30 -15 20 0 30 -5 30 -15 0 -10 -10 -15 -30 -15
-21 0 -30 -5 -30 -16 0 -12 7 -15 28 -10 15 3 21 3 15 0 -18 -8 -16 -34 1 -34
8 0 17 6 20 13 3 6 3 0 0 -15 -5 -21 -2 -28 10 -28 16 0 20 10 17 43 -1 9 4
17 13 17 11 0 16 -9 16 -30 0 -20 5 -30 15 -30 8 0 15 -7 15 -15 0 -8 -7 -15
-15 -15 -8 0 -15 7 -15 15 0 8 -7 15 -15 15 -8 0 -15 -6 -15 -12 0 -20 17 -41
27 -35 5 3 9 -11 9 -31 0 -36 0 -36 -10 -9 -10 26 -26 37 -26 17 0 -5 -7 -10
-15 -10 -8 0 -15 5 -15 10 0 6 -7 10 -15 10 -8 0 -15 7 -15 15 0 8 7 15 15 15
8 0 15 -7 15 -15 0 -8 7 -15 15 -15 26 0 17 19 -35 70 -51 52 -70 61 -70 35 0
-10 -11 -15 -35 -15 -24 0 -35 5 -35 15 0 11 11 15 36 15 31 0 36 3 31 19 -3
14 0 17 14 14 13 -4 19 0 19 11 0 11 -9 16 -30 16 -20 0 -30 5 -30 15 0 10 10
15 30 15 20 0 30 -5 30 -15z m-355 -34 c-7 -23 -25 -29 -25 -8 0 14 21 39 28
33 2 -3 1 -14 -3 -25z m65 19 c0 -5 -12 -10 -27 -9 -25 0 -26 1 -8 9 27 12 35
12 35 0z m165 0 c3 -5 -1 -10 -9 -10 -9 0 -16 5 -16 10 0 6 4 10 9 10 6 0 13
-4 16 -10z m59 -13 c6 -9 7 -19 4 -23 -9 -8 -38 20 -38 36 0 16 21 8 34 -13z
m-434 -32 c0 -8 -7 -15 -15 -15 -8 0 -15 7 -15 15 0 8 7 15 15 15 8 0 15 -7
15 -15z m400 0 c0 -13 -21 -15 -125 -15 -104 0 -125 2 -125 15 0 13 21 15 125
15 104 0 125 -2 125 -15z m190 0 c0 -8 -7 -15 -15 -15 -8 0 -15 7 -15 15 0 8
7 15 15 15 8 0 15 -7 15 -15z m-210 -50 c0 -10 11 -15 35 -15 24 0 35 -5 35
-15 0 -8 7 -15 15 -15 8 0 15 -7 15 -15 0 -8 7 -15 15 -15 8 0 15 -4 15 -10 0
-6 -37 -10 -90 -10 -73 0 -90 3 -90 15 0 12 -19 15 -115 15 -96 0 -115 -3
-115 -15 0 -9 -9 -15 -25 -15 -14 0 -25 5 -25 10 0 6 7 10 15 10 8 0 15 7 15
15 0 8 7 15 15 15 8 0 15 7 15 15 0 10 10 15 30 15 20 0 30 5 30 15 0 12 18
15 105 15 87 0 105 -3 105 -15z m-290 -10 c0 -8 -7 -15 -15 -15 -8 0 -15 -7
-15 -15 0 -8 -7 -15 -15 -15 -8 0 -15 7 -15 15 0 8 7 15 15 15 8 0 15 7 15 15
0 8 7 15 15 15 8 0 15 -7 15 -15z m410 0 c0 -8 7 -15 15 -15 8 0 15 -7 15 -15
0 -8 -7 -15 -15 -15 -8 0 -15 7 -15 15 0 8 -7 15 -15 15 -8 0 -15 7 -15 15 0
8 7 15 15 15 8 0 15 -7 15 -15z m-590 -95 c0 -43 -3 -50 -20 -50 -17 0 -20 7
-20 50 0 43 3 50 20 50 17 0 20 -7 20 -50z m780 0 c0 -43 -3 -50 -20 -50 -17
0 -20 7 -20 50 0 43 3 50 20 50 17 0 20 -7 20 -50z m-380 5 c0 -12 -17 -15
-95 -15 -91 0 -95 -1 -95 -22 0 -17 3 -19 12 -10 16 16 108 16 109 0 0 -10 2
-10 6 0 7 17 23 15 23 -3 0 -9 11 -19 23 -24 21 -8 144 -6 189 3 9 2 19 -2 22
-9 3 -8 -2 -11 -15 -8 -11 3 -19 0 -19 -7 0 -10 -3 -10 -15 0 -10 9 -29 10
-58 6 -23 -4 -51 -7 -62 -6 -11 1 -31 3 -45 3 -14 1 -30 8 -36 15 -14 19 -104
25 -104 7 0 -10 16 -15 52 -17 51 -3 51 -3 24 -18 -18 -9 -30 -11 -34 -4 -4 6
-16 13 -28 16 -28 7 -45 -21 -37 -65 4 -28 10 -34 29 -34 14 0 27 3 30 8 3 5
25 9 50 9 32 0 44 -4 44 -15 0 -12 -15 -15 -79 -15 -54 0 -81 4 -84 13 -4 9
-6 9 -6 -1 -1 -8 8 -16 19 -19 29 -8 24 -20 -10 -25 -28 -4 -30 -2 -31 26 -1
56 -8 91 -19 94 -5 2 -10 26 -10 53 0 48 1 49 30 49 20 0 30 5 30 15 0 12 17
15 95 15 78 0 95 -3 95 -15z m-270 -50 c0 -25 -4 -45 -10 -45 -5 0 -10 20 -10
45 0 25 5 45 10 45 6 0 10 -20 10 -45z m550 15 c0 -11 7 -20 15 -20 12 0 15
-18 15 -105 0 -87 -3 -105 -15 -105 -12 0 -15 18 -15 105 0 87 -3 105 -15 105
-10 0 -15 -10 -15 -30 0 -20 -5 -30 -15 -30 -11 0 -15 12 -15 45 0 36 -3 43
-16 38 -13 -5 -13 -7 -2 -14 7 -5 -39 -9 -109 -9 -83 0 -123 4 -123 11 0 6 7
9 15 5 9 -3 15 0 15 9 0 13 24 15 140 15 133 0 140 -1 140 -20z m-720 -145 c0
-104 -2 -125 -15 -125 -13 0 -15 21 -15 125 0 104 2 125 15 125 13 0 15 -21
15 -125z m80 110 c0 -8 5 -15 10 -15 6 0 10 -37 10 -90 0 -72 -3 -90 -14 -90
-12 0 -15 22 -18 105 -2 58 0 105 5 105 4 0 7 -7 7 -15z m770 -110 c0 -104 -2
-125 -15 -125 -13 0 -15 21 -15 125 0 104 2 125 15 125 13 0 15 -21 15 -125z
m-807 20 c0 -51 -5 -91 -11 -93 -7 -2 -10 32 -10 93 0 68 3 95 11 92 8 -2 11
-34 10 -92z m756 -1 c1 -73 -1 -95 -11 -92 -8 3 -12 31 -13 89 -1 88 1 99 14
99 5 0 9 -43 10 -96z m-659 1 c0 -30 -4 -55 -10 -55 -5 0 -10 25 -10 55 0 30
5 55 10 55 6 0 10 -25 10 -55z m50 -15 c0 -47 -3 -60 -15 -60 -10 0 -15 -10
-15 -30 0 -31 16 -41 26 -15 5 12 26 15 100 15 62 0 94 -4 94 -11 0 -6 -7 -9
-15 -5 -9 3 -15 0 -15 -9 0 -12 -20 -15 -110 -15 -91 0 -110 -3 -110 -15 0 -8
7 -15 15 -15 8 0 15 -7 15 -15 0 -8 -7 -15 -15 -15 -8 0 -15 7 -15 15 0 8 -7
15 -15 15 -10 0 -15 11 -15 35 0 24 5 35 15 35 8 0 15 7 15 15 0 8 7 15 15 15
12 0 15 13 15 60 0 47 3 60 15 60 12 0 15 -13 15 -60z m130 30 c0 -23 -4 -30
-20 -30 -16 0 -20 7 -20 30 0 23 4 30 20 30 16 0 20 -7 20 -30z m340 14 c0
-16 -55 -20 -65 -4 -3 6 -33 10 -66 10 -33 0 -59 -4 -59 -10 0 -6 -27 -10 -60
-10 -47 0 -60 3 -60 15 0 13 22 15 155 14 126 0 155 -3 155 -15z m40 -59 c0
-30 -4 -55 -10 -55 -5 0 -10 25 -10 55 0 30 5 55 10 55 6 0 10 -25 10 -55z
m-100 30 c0 -10 10 -15 30 -15 27 0 30 -3 30 -30 0 -20 -5 -30 -15 -30 -8 0
-15 7 -15 15 0 8 -7 15 -15 15 -8 0 -15 7 -15 15 0 12 -14 15 -65 15 -51 0
-65 3 -65 15 0 12 14 15 65 15 51 0 65 -3 65 -15z m-150 -15 c0 -5 -4 -10 -10
-10 -5 0 -10 5 -10 10 0 6 5 10 10 10 6 0 10 -4 10 -10z m160 -50 c24 -24 27
-80 4 -80 -10 0 -15 8 -14 23 4 47 4 47 -95 47 -78 0 -95 3 -95 15 0 12 17 15
90 15 77 0 93 -3 110 -20z m-202 -18 c2 -8 31 -12 83 -12 64 0 79 -3 79 -15 0
-8 -7 -15 -16 -15 -8 0 -12 5 -9 10 3 6 1 10 -4 10 -6 0 -11 -4 -11 -10 0 -15
-97 -12 -104 3 -5 9 -7 9 -12 -1 -4 -9 -11 -7 -25 9 -13 16 -29 22 -54 21 -19
-1 -37 3 -40 8 -4 7 15 9 51 7 33 -2 60 -9 62 -15z m262 -42 c0 -16 -4 -30
-10 -30 -5 0 -10 14 -10 30 0 17 5 30 10 30 6 0 10 -13 10 -30z m-630 -30 c0
-43 -3 -50 -20 -50 -16 0 -20 7 -20 30 0 19 5 30 14 30 9 0 12 7 9 20 -3 11 0
20 6 20 7 0 11 -20 11 -50z m680 15 c0 -24 -5 -35 -15 -35 -8 0 -15 -7 -15
-15 0 -8 -7 -15 -15 -15 -8 0 -15 7 -15 15 0 8 7 15 15 15 10 0 15 11 15 35 0
24 5 35 15 35 10 0 15 -11 15 -35z m75 15 c-5 -14 -2 -20 9 -20 11 0 16 -9 16
-30 0 -23 -4 -30 -20 -30 -17 0 -20 7 -20 50 0 29 5 50 11 50 6 0 8 -9 4 -20z
m-715 -16 c0 -8 -4 -12 -10 -9 -5 3 -10 10 -10 16 0 5 5 9 10 9 6 0 10 -7 10
-16z m680 6 c0 -5 -4 -10 -10 -10 -5 0 -10 5 -10 10 0 6 5 10 10 10 6 0 10 -4
10 -10z m-160 -25 c0 -13 -21 -15 -125 -15 -104 0 -125 2 -125 15 0 13 21 15
125 15 104 0 125 -2 125 -15z m-270 -20 c0 -13 22 -15 140 -15 87 0 140 -4
140 -10 0 -5 -7 -10 -15 -10 -8 0 -15 -7 -15 -15 0 -8 -7 -15 -15 -15 -8 0
-15 -7 -15 -15 0 -11 -12 -15 -50 -15 -38 0 -50 -4 -50 -15 0 -11 -11 -15 -40
-15 -29 0 -40 4 -40 15 0 11 -12 15 -50 15 -38 0 -50 4 -50 15 0 8 -7 15 -15
15 -8 0 -15 7 -15 15 0 8 -7 15 -15 15 -8 0 -15 7 -15 15 0 8 -7 15 -15 15 -8
0 -15 5 -15 10 0 6 32 10 75 10 60 0 75 -3 75 -15z m310 5 c0 -5 -4 -10 -10
-10 -5 0 -10 5 -10 10 0 6 5 10 10 10 6 0 10 -4 10 -10z m-536 -29 c13 -25 13
-30 1 -35 -9 -3 -12 0 -8 10 3 8 -5 23 -18 34 -20 16 -21 19 -7 20 10 0 24
-13 32 -29z m650 14 c-4 -9 0 -15 10 -15 11 0 16 -9 16 -30 0 -20 -5 -30 -15
-30 -10 0 -15 10 -15 30 0 21 -5 30 -16 30 -11 0 -15 -6 -11 -20 3 -12 0 -20
-7 -20 -7 0 -18 -11 -24 -24 -6 -13 -20 -27 -31 -31 -12 -3 -21 -12 -21 -20 0
-8 -7 -11 -20 -8 -14 4 -20 0 -20 -11 0 -11 9 -16 30 -16 23 0 30 -4 30 -20 0
-16 -7 -20 -30 -20 -20 0 -30 -5 -30 -15 0 -10 -11 -15 -35 -15 -19 0 -35 4
-35 9 0 5 -8 12 -17 14 -10 3 6 5 35 6 45 1 52 4 52 21 0 21 -19 28 -21 8 0
-10 -2 -10 -6 0 -6 14 -43 16 -43 2 0 -5 -7 -10 -16 -10 -14 0 -14 3 -4 15 7
8 21 15 31 15 10 0 34 10 54 21 27 16 33 24 23 31 -8 5 -3 6 15 2 21 -5 27 -3
27 10 0 9 -5 16 -11 16 -5 0 -7 5 -3 12 6 9 9 9 12 0 8 -25 31 -10 51 33 12
25 28 45 36 45 9 0 12 -6 9 -15z m-684 -45 c0 -20 5 -30 15 -30 8 0 15 -7 15
-15 0 -8 7 -15 15 -15 8 0 15 -7 15 -15 0 -8 7 -15 15 -15 8 0 15 -7 15 -15 0
-8 -7 -15 -15 -15 -8 0 -15 7 -15 15 0 8 -7 15 -15 15 -8 0 -15 7 -15 15 0 8
-7 15 -15 15 -8 0 -15 7 -15 15 0 8 -7 15 -15 15 -10 0 -15 10 -15 30 0 20 5
30 15 30 10 0 15 -10 15 -30z m120 15 c0 -8 -7 -15 -15 -15 -8 0 -15 7 -15 15
0 8 7 15 15 15 8 0 15 -7 15 -15z m470 0 c0 -8 -7 -15 -15 -15 -8 0 -15 -7
-15 -15 0 -8 -7 -15 -15 -15 -8 0 -15 -7 -15 -15 0 -8 -7 -15 -15 -15 -8 0
-15 -7 -15 -15 0 -11 -12 -15 -50 -15 -38 0 -50 4 -50 15 0 11 12 15 50 15 38
0 50 4 50 15 0 8 7 15 15 15 8 0 15 7 15 15 0 8 7 15 15 15 8 0 15 7 15 15 0
8 7 15 15 15 8 0 15 -7 15 -15z m-440 -30 c0 -8 -7 -15 -15 -15 -8 0 -15 7
-15 15 0 8 7 15 15 15 8 0 15 -7 15 -15z m-59 -11 c13 3 18 3 12 0 -25 -11
-13 -31 30 -50 23 -10 44 -21 47 -25 3 -4 16 -9 29 -10 27 -4 42 -29 17 -29
-9 0 -16 5 -16 10 0 15 -30 12 -31 -2 0 -10 -2 -10 -6 0 -8 19 -23 14 -23 -8
0 -17 7 -20 53 -21 28 -1 42 -4 30 -6 -13 -2 -23 -9 -23 -14 0 -5 -13 -9 -30
-9 -20 0 -30 5 -30 15 0 10 -10 15 -30 15 -23 0 -30 4 -30 20 0 16 7 20 30 20
21 0 30 5 30 16 0 11 -6 15 -20 11 -11 -3 -20 -1 -20 5 0 5 -13 21 -30 35 -16
13 -30 30 -30 36 0 8 3 7 9 -2 5 -8 18 -11 32 -7z m89 -19 c0 -11 12 -15 50
-15 38 0 50 -4 50 -15 0 -11 -12 -15 -50 -15 -38 0 -50 4 -50 15 0 8 -7 15
-15 15 -8 0 -15 7 -15 15 0 8 7 15 15 15 8 0 15 -7 15 -15z m500 0 c0 -8 -7
-15 -15 -15 -8 0 -15 -7 -15 -15 0 -8 -7 -15 -15 -15 -8 0 -15 -7 -15 -15 0
-8 -7 -15 -15 -15 -8 0 -15 7 -15 15 0 8 7 15 15 15 8 0 15 7 15 15 0 8 7 15
15 15 8 0 15 7 15 15 0 8 7 15 15 15 8 0 15 -7 15 -15z m-280 -54 c0 -5 8 -12
18 -14 9 -3 -26 -5 -78 -5 -52 0 -87 2 -77 5 9 2 17 9 17 14 0 5 27 9 60 9 33
0 60 -4 60 -9z m-120 -52 c0 -5 7 -9 16 -9 8 0 12 5 9 10 -4 6 10 10 35 10 25
0 39 -4 35 -10 -3 -5 1 -10 9 -10 9 0 16 5 16 10 0 6 4 10 8 10 5 0 9 -7 9
-15 0 -12 -16 -15 -80 -15 -44 0 -77 3 -74 7 4 3 2 12 -5 20 -8 11 -7 12 6 7
9 -3 16 -10 16 -15z m180 -54 c0 -13 -21 -15 -125 -15 -104 0 -125 2 -125 15
0 13 21 15 125 15 104 0 125 -2 125 -15z"/>
<path d="M310 560 c0 -60 12 -80 24 -37 9 34 7 67 -4 67 -5 0 -7 7 -4 15 4 8
1 15 -5 15 -7 0 -11 -23 -11 -60z"/>
<path d="M325 480 c-3 -5 -1 -10 4 -10 6 0 11 5 11 10 0 6 -2 10 -4 10 -3 0
-8 -4 -11 -10z"/>
</g>
</svg>
