<?xml version="1.0" standalone="no"?>
<!DOCTYPE svg PUBLIC "-//W3C//DTD SVG 20010904//EN"
 "http://www.w3.org/TR/2001/REC-SVG-20010904/DTD/svg10.dtd">
<svg version="1.0" xmlns="http://www.w3.org/2000/svg"
 width="114.000000pt" height="114.000000pt" viewBox="0 0 114.000000 114.000000"
 preserveAspectRatio="xMidYMid meet">
<metadata>
Created by potrace 1.16, written by Peter Selinger 2001-2019
</metadata>
<g transform="translate(0.000000,114.000000) scale(0.100000,-0.100000)"
fill="#000000" stroke="none">
<path d="M508 1040 c-193 -33 -325 -152 -373 -337 -56 -214 47 -445 238 -533
318 -148 667 70 667 418 0 122 -42 224 -129 315 -102 107 -262 161 -403 137z
m214 -44 c346 -122 401 -580 94 -778 -112 -72 -251 -90 -376 -48 -295 99 -395
470 -190 703 117 132 306 182 472 123z"/>
<path d="M505 1000 c-124 -18 -250 -116 -308 -237 -30 -64 -32 -74 -32 -183 1
-107 3 -119 30 -175 128 -263 477 -324 681 -121 79 80 117 165 122 277 5 96
-10 159 -56 239 -83 144 -263 227 -437 200z m240 -55 c175 -84 275 -298 220
-466 -39 -118 -121 -210 -234 -262 -57 -26 -78 -30 -151 -30 -159 0 -290 85
-363 233 -29 60 -32 72 -31 165 0 79 4 109 21 145 48 103 130 184 230 226 50
21 71 24 153 21 81 -2 104 -7 155 -32z"/>
<path d="M447 920 c-88 -34 -151 -92 -194 -180 -24 -48 -27 -67 -28 -155 0
-94 2 -105 33 -168 39 -78 109 -141 190 -170 74 -27 213 -23 279 7 74 35 109
63 147 120 82 121 86 287 11 406 -35 55 -108 114 -171 138 -73 29 -198 29
-267 2z m233 -22 c57 -17 127 -67 164 -116 124 -170 67 -401 -122 -494 -59
-29 -76 -33 -147 -32 -68 0 -89 4 -138 29 -116 57 -187 172 -187 300 0 225
211 378 430 313z"/>
<path d="M417 733 c-17 -3 -32 -13 -37 -26 -14 -33 -72 -248 -68 -252 2 -2 31
0 64 4 59 9 110 3 184 -19 48 -14 170 -12 199 3 15 8 29 28 37 57 7 24 12 45
10 47 -1 1 -18 -2 -37 -7 -49 -14 -122 -12 -189 5 -31 8 -74 16 -94 17 -32 3
-36 6 -32 23 3 11 6 28 6 38 0 23 48 23 121 0 30 -9 88 -17 130 -17 92 -1 119
14 135 73 l11 42 -31 -7 c-54 -12 -159 -7 -215 10 -51 15 -129 19 -194 9z
m186 -38 c32 -8 92 -15 132 -15 58 0 75 -3 75 -14 0 -34 -104 -46 -186 -21
-27 8 -79 15 -115 15 l-66 0 -13 -44 c-7 -25 -10 -50 -8 -57 4 -12 43 -22 193
-50 33 -6 81 -8 107 -5 42 6 46 5 41 -13 -3 -10 -15 -22 -26 -25 -39 -10 -131
-6 -187 9 -30 8 -88 15 -128 15 -65 0 -73 2 -68 18 10 34 46 172 46 177 0 26
121 32 203 10z"/>
</g>
</svg>
