<?xml version="1.0" standalone="no"?>
<!DOCTYPE svg PUBLIC "-//W3C//DTD SVG 20010904//EN"
 "http://www.w3.org/TR/2001/REC-SVG-20010904/DTD/svg10.dtd">
<svg version="1.0" xmlns="http://www.w3.org/2000/svg"
 width="192.000000pt" height="192.000000pt" viewBox="0 0 192.000000 192.000000"
 preserveAspectRatio="xMidYMid meet">
<metadata>
Created by potrace 1.16, written by Peter Selinger 2001-2019
</metadata>
<g transform="translate(0.000000,192.000000) scale(0.100000,-0.100000)"
fill="#000000" stroke="none">
<path d="M845 1739 c-368 -54 -646 -358 -672 -734 -23 -341 191 -666 515 -785
380 -139 802 32 977 395 60 125 79 206 79 345 0 132 -22 226 -79 346 -146 303
-484 482 -820 433z m253 -35 c306 -63 544 -301 606 -606 51 -248 -38 -509
-238 -695 -178 -167 -440 -239 -670 -184 -407 98 -674 517 -576 907 100 397
495 657 878 578z"/>
<path d="M841 1590 c-305 -65 -504 -293 -518 -595 -6 -128 13 -222 68 -334
184 -372 709 -458 1014 -165 72 68 130 161 162 258 23 70 26 98 27 206 0 111
-3 134 -28 204 -35 102 -67 155 -139 232 -120 128 -260 192 -440 199 -56 2
-122 0 -146 -5z m235 -31 c32 -5 101 -30 151 -55 148 -71 248 -182 308 -344
25 -66 28 -89 29 -195 1 -101 -3 -131 -23 -194 -64 -196 -235 -355 -436 -406
-76 -19 -214 -19 -290 0 -174 44 -328 169 -403 326 -48 100 -62 162 -62 272 0
166 59 308 179 427 147 146 341 206 547 169z"/>
<path d="M701 1235 c-44 -8 -82 -21 -93 -33 -12 -12 -42 -103 -83 -252 -35
-129 -63 -236 -61 -237 2 -2 38 4 82 13 104 22 238 14 359 -21 144 -42 376
-35 418 13 13 15 60 162 54 168 -1 1 -31 -4 -67 -11 -110 -24 -229 -19 -365
15 -66 17 -143 30 -172 30 -32 0 -53 4 -53 11 0 6 8 39 17 74 l17 64 60 -6
c34 -3 93 -14 131 -25 39 -10 95 -23 125 -29 73 -15 264 -6 312 14 33 14 39
22 53 74 9 32 20 70 25 86 5 15 8 27 7 27 -1 0 -37 -7 -80 -15 -131 -25 -235
-17 -406 30 -81 22 -195 26 -280 10z m299 -47 c131 -33 265 -42 374 -26 l48 8
-6 -31 c-18 -90 -51 -107 -214 -108 -84 -1 -125 5 -219 29 -73 19 -140 30
-184 30 l-68 0 -16 -52 c-9 -29 -18 -71 -22 -94 l-5 -41 68 -7 c38 -4 114 -19
169 -33 79 -22 124 -27 215 -27 63 -1 134 2 157 7 l42 7 -14 -45 c-7 -25 -19
-52 -25 -60 -39 -47 -245 -53 -390 -11 -115 33 -242 43 -334 27 -38 -7 -69
-11 -71 -9 -5 7 113 420 123 430 15 15 124 36 192 37 31 1 107 -12 180 -31z"/>
</g>
</svg>
