<?xml version="1.0" standalone="no"?>
<!DOCTYPE svg PUBLIC "-//W3C//DTD SVG 20010904//EN"
 "http://www.w3.org/TR/2001/REC-SVG-20010904/DTD/svg10.dtd">
<svg version="1.0" xmlns="http://www.w3.org/2000/svg"
 width="100.000000pt" height="100.000000pt" viewBox="0 0 100.000000 100.000000"
 preserveAspectRatio="xMidYMid meet">
<metadata>
Created by potrace 1.16, written by Peter Selinger 2001-2019
</metadata>
<g transform="translate(0.000000,100.000000) scale(0.100000,-0.100000)"
fill="#000000" stroke="none">
<path d="M210 700 c0 -5 -18 -10 -40 -10 -22 0 -40 -4 -40 -10 0 -5 -11 -10
-25 -10 -14 0 -25 -4 -25 -10 0 -5 -9 -10 -20 -10 -11 0 -20 -7 -20 -15 0 -8
-9 -15 -20 -15 -16 0 -20 -7 -20 -33 0 -18 6 -39 13 -46 9 -11 9 -14 0 -18
-20 -7 -15 -23 7 -23 11 0 20 5 20 10 0 6 27 10 60 10 51 0 65 -4 85 -25 14
-13 25 -31 25 -40 0 -8 5 -15 10 -15 6 0 10 -9 10 -20 0 -19 7 -20 206 -20
165 0 208 -3 220 -14 18 -18 18 -24 0 -42 -12 -11 -57 -14 -230 -14 l-216 0 0
25 c0 18 -5 25 -20 25 -16 0 -20 7 -20 36 0 19 -6 42 -14 50 -21 21 -69 18
-86 -6 -8 -11 -22 -20 -32 -20 -11 0 -18 7 -18 20 0 11 -5 20 -11 20 -6 0 -9
-12 -7 -27 3 -24 8 -28 41 -31 21 -2 37 1 37 7 0 15 43 14 58 -1 7 -7 12 -23
12 -36 0 -15 7 -26 18 -29 10 -2 22 -14 27 -26 10 -22 14 -22 238 -25 248 -3
257 -1 257 53 0 16 13 39 36 61 l35 36 25 -23 c16 -15 24 -34 24 -58 1 -61 16
-71 109 -71 47 0 81 4 81 10 0 6 -18 10 -40 10 -36 0 -40 3 -40 25 0 18 5 25
20 25 17 0 20 7 20 46 0 47 -16 74 -44 74 -9 0 -16 5 -16 10 0 6 -19 10 -42
11 -33 0 -38 2 -23 9 13 6 -23 9 -100 10 -77 1 -113 4 -100 10 16 7 12 9 -20
9 -30 1 -36 4 -25 11 12 8 11 10 -7 10 -12 0 -23 5 -25 11 -2 6 -26 9 -58 7
-49 -3 -52 -4 -25 -12 47 -13 85 -30 85 -38 0 -5 -94 -8 -210 -8 -133 0 -210
4 -210 10 0 6 11 10 24 10 14 0 28 5 31 10 3 6 17 10 30 10 13 0 27 5 30 10 4
6 -12 10 -39 10 -25 0 -46 -4 -46 -10 0 -5 -11 -10 -25 -10 -14 0 -25 -4 -25
-10 0 -5 -9 -10 -20 -10 -11 0 -20 -4 -20 -10 0 -5 -9 -10 -20 -10 -13 0 -20
7 -20 20 0 11 -4 20 -10 20 -5 0 -10 5 -10 10 0 6 9 10 20 10 11 0 20 7 20 15
0 8 9 15 20 15 11 0 20 5 20 10 0 6 11 10 25 10 14 0 25 5 25 10 0 6 18 10 40
10 22 0 40 5 40 10 0 6 45 10 115 10 70 0 115 -4 115 -10 0 -5 18 -10 40 -10
22 0 40 -4 40 -10 0 -5 9 -10 20 -10 11 0 20 -4 20 -10 0 -5 9 -10 20 -10 11
0 20 -7 20 -15 0 -9 9 -15 25 -15 14 0 25 -4 25 -10 0 -6 37 -10 90 -10 53 0
90 -4 90 -10 0 -5 16 -10 35 -10 19 0 35 -4 35 -10 0 -5 8 -10 18 -10 10 0 24
-9 32 -20 17 -24 30 -26 30 -4 0 20 -24 44 -44 44 -9 0 -16 5 -16 10 0 6 -16
10 -35 10 -19 0 -35 5 -35 10 0 6 -37 10 -90 10 -53 0 -90 4 -90 10 0 6 -11
10 -25 10 -16 0 -25 6 -25 15 0 8 -9 15 -20 15 -11 0 -20 5 -20 10 0 6 -9 10
-20 10 -11 0 -20 5 -20 10 0 6 -18 10 -40 10 -22 0 -40 5 -40 10 0 6 -52 10
-135 10 -83 0 -135 -4 -135 -10z m390 -196 c0 -18 23 -44 39 -44 6 0 11 7 11
16 0 31 27 44 94 44 37 0 66 -4 66 -10 0 -5 9 -10 20 -10 11 0 20 -4 20 -10 0
-5 7 -10 15 -10 8 0 15 -9 15 -20 0 -11 5 -20 10 -20 6 0 10 -25 10 -55 0 -52
-1 -55 -25 -55 -23 0 -25 4 -25 48 0 34 -3 43 -10 32 -8 -12 -10 -9 -10 13 0
63 -72 79 -120 27 -26 -28 -33 -30 -99 -30 -64 0 -71 2 -71 20 0 11 5 20 10
20 6 0 10 5 10 10 0 6 -60 10 -161 10 -126 0 -164 3 -175 14 -8 8 -14 17 -14
20 0 3 88 6 195 6 171 0 195 -2 195 -16z m-80 -74 c0 -6 -52 -10 -135 -10 -83
0 -135 4 -135 10 0 6 52 10 135 10 83 0 135 -4 135 -10z"/>
<path d="M313 643 c26 -2 67 -2 90 0 23 2 2 3 -48 3 -49 0 -68 -1 -42 -3z"/>
<path d="M190 620 c36 -11 323 -11 340 0 10 6 -54 9 -175 9 -106 -1 -179 -4
-165 -9z"/>
<path d="M181 404 c0 -11 3 -14 6 -6 3 7 2 16 -1 19 -3 4 -6 -2 -5 -13z"/>
<path d="M332 373 c48 -2 129 -2 180 0 51 1 12 3 -87 3 -99 0 -141 -2 -93 -3z"/>
<path d="M327 343 c51 -2 135 -2 185 0 51 1 10 3 -92 3 -102 0 -143 -2 -93 -3z"/>
</g>
</svg>
