<?xml version="1.0" standalone="no"?>
<!DOCTYPE svg PUBLIC "-//W3C//DTD SVG 20010904//EN"
 "http://www.w3.org/TR/2001/REC-SVG-20010904/DTD/svg10.dtd">
<svg version="1.0" xmlns="http://www.w3.org/2000/svg"
 width="180.000000pt" height="180.000000pt" viewBox="0 0 180.000000 180.000000"
 preserveAspectRatio="xMidYMid meet">
<metadata>
Created by potrace 1.16, written by Peter Selinger 2001-2019
</metadata>
<g transform="translate(0.000000,180.000000) scale(0.100000,-0.100000)"
fill="#000000" stroke="none">
<path d="M0 1420 c0 -7 307 -10 900 -10 593 0 900 3 900 10 0 7 -307 10 -900
10 -593 0 -900 -3 -900 -10z"/>
<path d="M590 1390 c-217 -17 -433 -71 -514 -128 -74 -51 -76 -63 -76 -359 0
-154 4 -273 10 -289 6 -14 24 -39 41 -55 l31 -29 -43 -2 c-38 -1 -35 -2 21 -9
36 -4 103 -21 150 -37 172 -62 444 -88 807 -78 234 6 389 23 513 58 52 14 105
21 175 21 l100 0 -84 6 -84 6 37 17 c20 10 58 19 84 19 l47 2 -40 6 c-28 4
-35 8 -23 13 9 4 26 25 38 47 19 37 20 58 20 300 0 151 -4 271 -10 286 -33 87
-181 151 -440 190 -124 19 -598 28 -760 15z m690 -35 c231 -29 394 -82 455
-145 l30 -31 3 -264 c3 -293 2 -302 -60 -348 -147 -108 -625 -171 -1045 -137
-338 28 -559 94 -619 185 -13 19 -14 64 -12 293 l3 271 30 31 c76 79 252 125
630 164 86 9 466 -3 585 -19z"/>
<path d="M694 1320 c-214 -15 -446 -60 -527 -102 -22 -11 -50 -30 -63 -43 -24
-24 -24 -24 -24 -279 l0 -254 34 -30 c89 -78 346 -129 697 -139 348 -10 660
31 817 108 92 45 92 45 92 323 0 234 0 234 -25 264 -51 60 -198 106 -445 136
-157 19 -411 27 -556 16z m575 -45 c208 -30 339 -71 394 -122 l27 -27 0 -226
c0 -262 1 -257 -94 -300 -141 -64 -396 -100 -701 -100 -312 0 -577 39 -713
106 -82 40 -84 47 -80 304 3 250 2 244 97 287 93 41 353 92 475 93 l39 0 -26
-20 c-53 -42 -55 -114 -4 -168 16 -17 18 -25 9 -34 -7 -7 -12 -21 -12 -32 0
-16 -3 -17 -12 -8 -7 7 -29 12 -50 12 l-38 0 0 61 c0 87 -9 99 -75 99 -84 0
-85 -1 -85 -92 0 -78 0 -79 -22 -71 -13 4 -62 8 -110 8 -78 0 -90 -3 -110 -23
-21 -21 -23 -33 -26 -145 -2 -71 1 -140 7 -165 10 -36 17 -43 50 -53 49 -14
183 -8 204 10 10 7 44 14 81 15 l65 1 3 -30 3 -30 70 0 70 0 3 30 c3 30 4 30
62 31 52 1 60 -2 60 -18 0 -28 58 -48 135 -48 81 0 132 19 137 52 2 18 8 22
28 20 64 -6 167 -3 190 6 21 8 28 6 47 -17 19 -24 28 -26 105 -29 108 -5 152
11 162 58 3 18 6 83 6 145 0 104 1 113 20 118 16 4 20 14 20 46 0 34 -4 43
-25 53 -26 11 -75 -1 -75 -20 0 -4 -30 -6 -67 -4 -43 2 -84 -2 -110 -11 -40
-13 -43 -13 -48 4 -11 35 -136 51 -218 28 -29 -8 -41 -18 -48 -39 -10 -26 -13
-28 -40 -18 -31 11 -162 6 -191 -6 -15 -7 -18 -3 -18 28 0 20 -5 36 -11 36 -6
0 3 16 20 35 52 59 37 144 -31 179 -32 17 -27 17 157 12 105 -3 237 -13 294
-21z m-459 -10 c59 -30 68 -98 21 -146 -49 -48 -131 -35 -156 24 -37 88 50
166 135 122z m-262 -179 l-3 -84 50 5 c76 8 79 1 85 -194 l5 -163 -53 0 -53 0
2 148 c2 130 0 147 -14 150 -15 3 -17 -10 -17 -117 l0 -121 -55 0 -55 0 0 230
0 230 56 0 55 0 -3 -84z m270 -203 l-3 -168 -52 -3 -53 -3 0 170 0 171 55 0
55 0 -2 -167z m502 147 c15 -15 20 -33 20 -70 l0 -50 -49 0 -50 0 -3 53 c-2
28 -7 52 -13 52 -6 0 -11 -53 -13 -132 -2 -114 0 -133 13 -133 11 0 15 12 15
50 l0 50 50 0 50 0 0 -49 c0 -31 -6 -55 -15 -65 -31 -31 -159 -32 -201 -2 -16
12 -18 30 -18 146 0 126 1 134 23 151 34 28 163 27 191 -1z m340 -5 c0 -14 -7
-28 -15 -31 -20 -8 -45 13 -45 37 0 14 7 19 30 19 25 0 30 -4 30 -25z m-1281
-16 c28 -10 31 -15 31 -54 0 -24 3 -50 6 -59 5 -13 -3 -16 -48 -16 l-55 0 5
50 c4 46 3 50 -17 50 -21 0 -22 -3 -19 -132 3 -110 6 -133 18 -133 11 0 15 13
16 50 l1 50 51 3 51 3 -6 -58 c-3 -32 -8 -61 -12 -65 -24 -27 -177 -26 -204 1
-14 14 -23 213 -12 268 4 22 14 37 28 43 31 12 128 12 166 -1z m1218 -15 c14
-20 19 -269 5 -291 -20 -32 -167 -38 -208 -9 -19 15 -31 159 -20 249 6 48 11
57 34 66 15 6 60 9 101 7 58 -2 77 -7 88 -22z m-539 -20 c18 -12 22 -25 22
-70 l0 -54 -49 0 -50 0 -3 53 c-2 28 -7 51 -13 50 -6 -2 -10 -55 -10 -133 0
-78 4 -131 10 -132 6 -2 11 21 13 50 l3 52 50 0 49 0 0 -54 c0 -73 -18 -86
-116 -86 -56 0 -77 4 -95 19 -22 18 -23 25 -23 151 0 126 1 133 23 151 30 25
155 27 189 3z m260 -91 c-16 -2 -40 -2 -55 0 -16 2 -3 4 27 4 30 0 43 -2 28
-4z m-908 -37 c8 -2 -11 -4 -42 -5 -32 0 -58 2 -58 7 0 7 64 6 100 -2z m665
-26 c4 -6 -13 -10 -44 -10 -28 0 -51 5 -51 10 0 6 20 10 44 10 25 0 48 -4 51
-10z"/>
<path d="M1477 984 c-4 -4 -7 -65 -7 -136 0 -122 1 -128 20 -128 20 0 20 5 18
132 -3 122 -10 153 -31 132z"/>
<path d="M0 380 c0 -7 307 -10 900 -10 593 0 900 3 900 10 0 7 -307 10 -900
10 -593 0 -900 -3 -900 -10z"/>
</g>
</svg>
