<?xml version="1.0" standalone="no"?>
<!DOCTYPE svg PUBLIC "-//W3C//DTD SVG 20010904//EN"
 "http://www.w3.org/TR/2001/REC-SVG-20010904/DTD/svg10.dtd">
<svg version="1.0" xmlns="http://www.w3.org/2000/svg"
 width="192.000000pt" height="192.000000pt" viewBox="0 0 192.000000 192.000000"
 preserveAspectRatio="xMidYMid meet">
<metadata>
Created by potrace 1.16, written by Peter Selinger 2001-2019
</metadata>
<g transform="translate(0.000000,192.000000) scale(0.100000,-0.100000)"
fill="#000000" stroke="none">
<path d="M610 1893 c-271 -94 -490 -315 -584 -585 -15 -44 -26 -97 -25 -125
l0 -48 15 55 c50 190 140 347 271 471 132 124 262 196 443 243 l55 15 -50 0
c-29 0 -81 -10 -125 -26z"/>
<path d="M1190 1904 c190 -50 347 -140 471 -271 124 -132 196 -262 243 -443
l15 -55 0 48 c2 122 -101 324 -238 470 -137 145 -367 268 -498 266 l-48 0 55
-15z"/>
<path d="M888 1630 c2 -22 8 -40 13 -40 5 0 9 18 9 40 0 26 -5 40 -13 40 -9 0
-11 -12 -9 -40z"/>
<path d="M1036 1654 c-15 -39 -7 -54 29 -54 32 0 35 3 35 29 0 39 -51 59 -64
25z m49 -24 c0 -8 -8 -16 -17 -18 -13 -2 -18 3 -18 18 0 15 5 20 18 18 9 -2
17 -10 17 -18z"/>
<path d="M930 1625 c0 -20 5 -25 25 -25 14 0 25 5 25 10 0 6 -6 10 -12 8 -7
-2 -14 2 -15 7 -1 6 5 9 13 7 8 -2 14 2 14 8 0 5 -11 10 -25 10 -20 0 -25 -5
-25 -25z"/>
<path d="M787 1626 c-7 -19 28 -60 43 -51 10 6 9 10 -3 17 -9 5 -14 15 -11 22
3 7 -1 16 -10 19 -8 3 -17 0 -19 -7z"/>
<path d="M844 1618 c3 -13 6 -26 6 -30 0 -5 4 -8 8 -8 5 0 9 14 9 30 0 20 -5
30 -15 30 -10 0 -13 -7 -8 -22z"/>
<path d="M1124 1625 c-8 -21 3 -45 20 -45 16 0 31 34 21 50 -9 15 -35 12 -41
-5z"/>
<path d="M1187 1598 c-8 -28 1 -38 14 -15 15 26 27 20 21 -10 -3 -22 -2 -25 8
-17 19 18 8 59 -16 62 -15 2 -23 -4 -27 -20z"/>
<path d="M680 1605 c0 -15 31 -77 36 -72 8 7 -18 77 -28 77 -4 0 -8 -2 -8 -5z"/>
<path d="M736 1602 c-6 -10 -2 -39 6 -48 4 -3 16 -3 27 1 17 5 19 9 9 31 -11
24 -32 32 -42 16z m24 -27 c0 -8 -2 -15 -4 -15 -2 0 -6 7 -10 15 -3 8 -1 15 4
15 6 0 10 -7 10 -15z"/>
<path d="M1273 1603 c-15 -5 -17 -59 -3 -68 6 -3 10 2 10 12 0 11 4 23 10 29
12 12 -1 32 -17 27z"/>
<path d="M1315 1570 c-24 -46 -13 -60 13 -17 11 20 17 39 12 42 -5 3 -16 -8
-25 -25z"/>
<path d="M647 1584 c-3 -3 -3 -12 0 -20 3 -8 0 -14 -6 -14 -14 0 -15 -37 -1
-45 13 -8 50 3 50 15 0 16 -36 70 -43 64z m23 -54 c0 -5 -7 -10 -15 -10 -8 0
-15 5 -15 10 0 6 7 10 15 10 8 0 15 -4 15 -10z"/>
<path d="M923 1549 c-74 -9 -164 -40 -238 -83 -56 -33 -147 -125 -181 -181
-36 -62 -25 -67 14 -6 47 71 148 161 224 199 229 113 487 67 671 -119 42 -43
77 -73 77 -67 0 6 -35 46 -79 88 -137 136 -296 190 -488 169z"/>
<path d="M1343 1531 c3 -15 1 -18 -12 -14 -12 4 -12 1 3 -11 21 -17 40 -11 32
10 -3 8 -1 14 4 14 6 0 10 5 10 10 0 6 -10 10 -21 10 -16 0 -20 -5 -16 -19z"/>
<path d="M1389 1504 c-8 -22 -6 -30 10 -45 16 -15 23 -16 45 -6 28 13 32 22
15 32 -5 4 -19 -1 -29 -10 -13 -12 -20 -13 -26 -4 -4 7 -1 17 8 23 8 6 13 17
11 24 -7 20 -23 14 -34 -14z"/>
<path d="M574 1506 c-15 -39 21 -61 47 -30 12 15 11 16 -8 10 -12 -4 -24 -2
-28 4 -4 7 -1 10 8 8 9 -2 16 2 17 7 2 17 -30 18 -36 1z"/>
<path d="M507 1475 c-18 -13 -18 -14 0 -39 17 -24 52 -38 38 -16 -4 6 -1 17 5
25 10 12 10 18 0 30 -15 18 -20 18 -43 0z m33 -13 c0 -13 -12 -22 -22 -16 -10
6 -1 24 13 24 5 0 9 -4 9 -8z"/>
<path d="M1470 1435 c-6 -16 -14 -23 -25 -19 -17 7 -21 -11 -5 -21 14 -8 80
14 80 26 0 6 -9 8 -19 4 -16 -5 -18 -2 -14 15 8 28 -6 25 -17 -5z"/>
<path d="M723 1383 c-23 -36 -32 -43 -65 -43 -38 0 -35 -13 12 -44 45 -29 70
-33 70 -10 0 8 4 13 9 9 6 -3 15 3 21 14 8 16 7 22 -6 29 -10 5 -12 12 -7 15
12 8 5 57 -8 57 -5 0 -16 -12 -26 -27z"/>
<path d="M340 1311 c-93 -28 -135 -83 -135 -176 0 -118 73 -195 184 -195 68 0
76 5 85 52 l7 36 -30 -11 c-80 -30 -138 89 -68 138 22 15 79 21 75 8 -2 -7 61
-192 69 -202 1 -2 21 1 42 8 l40 11 -15 35 c-8 21 -10 35 -4 35 5 0 10 -5 10
-11 0 -6 7 -8 15 -5 11 4 19 -3 25 -20 8 -21 13 -23 30 -14 23 12 27 30 7 30
-15 0 -26 21 -52 99 -15 44 -15 55 -4 62 17 10 17 11 34 -42 l15 -44 -4 57
c-1 32 -5 61 -8 64 -6 5 -88 -16 -88 -23 0 -2 11 -31 25 -65 19 -48 22 -64 13
-70 -22 -14 -25 -10 -44 61 l-18 70 -34 -15 c-19 -8 -36 -14 -38 -14 -1 0 -6
21 -9 48 -14 105 -12 102 -58 101 -23 0 -53 -4 -67 -8z m90 -43 c0 -13 3 -33
6 -45 5 -19 0 -23 -35 -33 -51 -14 -71 -42 -71 -103 0 -59 31 -97 80 -97 37 0
40 -16 4 -23 -39 -7 -95 11 -128 41 -112 104 -46 279 107 281 32 1 37 -2 37
-21z m110 -150 c6 -24 16 -55 22 -70 10 -28 6 -58 -9 -58 -5 0 -21 34 -37 76
-23 62 -26 78 -15 85 23 15 28 11 39 -33z"/>
<path d="M1536 1181 c-4 -47 -5 -93 -3 -101 2 -8 2 -12 0 -8 -3 4 -18 5 -34 1
-25 -5 -29 -3 -29 17 0 17 4 21 17 16 15 -6 32 8 33 27 0 4 -14 7 -31 7 -38 0
-35 24 4 28 25 3 27 7 27 49 l0 46 -46 -7 c-26 -3 -61 -6 -79 -6 l-32 0 8 -47
c4 -27 10 -77 14 -113 l6 -65 65 3 c35 2 64 8 64 13 0 5 10 8 23 6 18 -2 23 4
25 31 2 17 7 32 12 32 4 0 26 -21 48 -47 28 -34 42 -44 45 -33 7 22 45 205 43
206 0 1 -13 4 -28 8 -25 6 -28 4 -28 -21 -1 -27 -1 -27 -16 -8 -8 11 -18 25
-22 31 -4 6 -23 14 -43 17 l-37 5 -6 -87z m79 23 c8 -13 24 -24 35 -24 21 0
24 -17 11 -73 l-6 -29 -24 26 c-14 15 -35 26 -51 26 -24 0 -25 3 -22 43 2 23
5 48 7 54 6 18 31 6 50 -23z m-127 9 c-2 -10 -13 -19 -26 -21 -20 -3 -22 -9
-22 -68 0 -47 -4 -64 -14 -64 -9 0 -15 22 -20 77 -8 85 -4 93 52 93 27 0 33
-4 30 -17z"/>
<path d="M1163 1218 c4 -13 9 -54 13 -93 10 -109 10 -110 27 -109 70 3 69 3
63 29 -9 35 9 31 24 -6 9 -22 17 -28 29 -23 9 3 24 9 34 11 17 5 16 8 -8 33
-25 27 -25 27 -5 45 29 26 27 79 -5 110 -21 22 -33 25 -101 25 -74 0 -76 -1
-71 -22z m152 -18 c8 -7 15 -27 14 -44 0 -28 -1 -29 -9 -8 -7 17 -17 22 -45
22 l-35 0 0 -65 c0 -49 -3 -65 -14 -65 -9 0 -16 18 -20 58 -4 31 -9 69 -12 84
-4 20 -1 28 13 31 28 8 92 0 108 -13z m-20 -75 c0 -11 -8 -21 -17 -23 -14 -3
-18 3 -18 23 0 20 4 26 18 23 9 -2 17 -12 17 -23z"/>
<path d="M972 1223 c-16 -3 -21 -10 -18 -21 2 -9 7 -42 11 -72 15 -138 11
-130 64 -130 59 0 112 32 124 76 12 43 -8 110 -39 131 -26 16 -101 25 -142 16z
m129 -52 c16 -16 29 -35 29 -42 0 -8 -7 -3 -16 9 -11 15 -25 22 -50 22 l-34 0
0 -70 c0 -52 -3 -70 -14 -70 -9 0 -15 22 -20 75 -4 42 -9 82 -13 90 -4 12 5
15 42 15 38 0 52 -5 76 -29z m-20 -41 c26 -15 26 -66 -1 -80 -18 -10 -20 -8
-20 17 0 15 -3 38 -6 51 -7 25 -2 27 27 12z"/>
<path d="M842 1213 l-44 -4 6 -47 c3 -26 8 -75 12 -109 l6 -63 64 0 c35 0 64
4 64 9 0 5 3 17 7 26 5 15 1 16 -25 10 l-32 -7 0 96 c0 53 -3 95 -7 94 -5 -1
-28 -3 -51 -5z m28 -92 c0 -38 3 -76 6 -85 4 -12 0 -16 -15 -16 -15 0 -21 6
-21 24 0 12 -3 51 -6 85 -7 58 -6 61 15 61 19 0 21 -5 21 -69z"/>
<path d="M719 1203 l-35 -4 8 -65 c4 -36 10 -70 14 -76 4 -6 7 -26 6 -45 -1
-32 0 -33 38 -33 40 0 40 0 40 38 0 87 -13 192 -24 190 -6 -1 -27 -3 -47 -5z
m41 -108 c0 -47 -4 -85 -9 -85 -4 0 -14 28 -20 63 -7 34 -14 72 -17 85 -4 18
0 22 21 22 25 0 25 -1 25 -85z"/>
<path d="M426 1105 c-4 -20 -10 -43 -13 -51 -3 -8 0 -14 5 -14 6 0 14 20 18
45 8 55 -1 71 -10 20z"/>
<path d="M1568 938 c-3 -97 -2 -106 9 -94 12 12 17 186 5 186 -6 0 -12 -37
-14 -92z"/>
<path d="M1440 991 c0 -5 -2 -16 -6 -24 -3 -8 7 -29 22 -46 27 -32 27 -33 11
-67 -19 -39 -22 -74 -7 -74 6 0 10 15 11 33 l1 32 9 -30 c6 -21 5 -41 -6 -68
-18 -44 -19 -57 -5 -57 6 0 10 8 10 18 0 9 4 23 9 31 7 12 13 7 27 -22 10 -20
22 -37 26 -37 5 0 -2 21 -16 48 -23 44 -42 122 -29 122 3 0 20 -13 39 -29 28
-25 39 -29 69 -24 34 5 35 5 35 -26 0 -17 -7 -43 -16 -56 -9 -14 -14 -32 -10
-40 6 -17 46 -21 46 -4 0 5 -4 7 -10 4 -19 -12 -31 5 -19 26 10 20 11 20 24 2
14 -17 14 -17 15 4 0 12 -4 25 -10 28 -5 3 -10 18 -9 33 l1 27 7 -25 c5 -18 9
-21 15 -12 4 7 2 27 -5 44 -11 26 -10 32 4 40 19 10 22 35 8 57 -8 12 -14 13
-35 3 -30 -13 -33 -33 -10 -56 22 -22 9 -36 -34 -36 -61 1 -142 89 -97 106 22
9 19 61 -4 74 -24 12 -61 13 -61 1z m44 -22 c-3 -5 2 -9 10 -9 9 0 16 -4 16
-8 0 -12 -22 -32 -34 -32 -6 0 -5 4 3 9 11 7 9 10 -7 15 -13 5 -18 13 -15 26
3 11 11 16 19 13 8 -3 11 -9 8 -14z m186 -88 c0 -12 -20 -25 -27 -18 -7 7 6
27 18 27 5 0 9 -4 9 -9z"/>
<path d="M720 948 c-63 -5 -116 -10 -117 -11 -1 -2 0 -35 4 -74 l6 -71 37 5
37 5 6 -48 c3 -27 9 -75 13 -107 l6 -58 56 3 56 3 -3 108 -3 107 36 0 36 0 0
75 0 75 -27 -1 c-16 -1 -80 -6 -143 -11z m140 -62 c0 -41 -2 -45 -27 -48 l-28
-3 -3 -108 -3 -108 -32 3 -32 3 -11 87 c-15 113 -17 118 -53 118 -27 0 -31 4
-37 35 -3 20 -3 39 1 43 6 6 92 15 193 20 32 2 32 1 32 -42z"/>
<path d="M410 896 c0 -14 5 -28 10 -31 6 -3 10 5 10 19 0 14 -4 28 -10 31 -6
3 -10 -5 -10 -19z"/>
<path d="M1224 758 c-9 -91 -9 -93 -36 -96 -35 -4 -39 25 -6 30 13 2 24 11 26
22 3 16 0 18 -22 12 -19 -5 -26 -3 -26 9 0 9 9 15 25 15 23 0 25 4 25 46 l0
47 -71 -6 c-39 -3 -72 -7 -73 -9 -1 -2 2 -51 7 -109 l10 -105 56 4 c99 7 116
14 119 50 2 18 6 32 10 32 4 -1 25 -23 47 -50 l39 -48 24 105 c19 86 21 107
10 114 -24 16 -38 9 -38 -18 -1 -27 -1 -27 -16 -8 -8 11 -18 25 -22 31 -4 6
-23 14 -43 18 l-36 6 -9 -92z m76 32 c12 -16 30 -30 41 -30 22 0 22 -2 8 -54
l-11 -38 -27 26 c-15 14 -36 26 -47 26 -17 0 -19 6 -16 50 5 59 20 65 52 20z
m-120 5 c0 -8 -9 -15 -20 -15 -22 0 -23 -3 -24 -79 -1 -76 -23 -79 -31 -4 -3
32 -9 70 -11 86 -5 26 -4 27 40 27 34 0 46 -4 46 -15z"/>
<path d="M372 824 c-25 -17 -31 -71 -10 -92 9 -9 6 -18 -14 -39 -36 -39 -43
-69 -24 -98 13 -20 25 -25 59 -25 24 0 48 5 54 11 8 8 17 8 31 0 32 -17 59
-13 76 11 24 33 21 51 -5 38 -11 -7 -28 -9 -36 -6 -26 10 25 59 54 51 26 -6
39 10 23 30 -18 22 -55 18 -88 -10 -22 -18 -32 -21 -40 -13 -18 18 -15 32 13
58 30 28 32 53 5 80 -24 24 -67 26 -98 4z m66 -46 c-2 -13 -10 -23 -18 -23 -8
0 -16 10 -18 23 -3 17 2 22 18 22 16 0 21 -5 18 -22z m-20 -66 c2 -7 -3 -12
-12 -12 -9 0 -16 7 -16 16 0 17 22 14 28 -4z m-3 -64 c14 -21 14 -24 -5 -32
-26 -12 -54 12 -44 37 9 24 30 21 49 -5z m55 -18 c0 -11 -4 -20 -10 -20 -5 0
-10 9 -10 20 0 11 5 20 10 20 6 0 10 -9 10 -20z"/>
<path d="M937 823 c-30 -3 -37 -8 -33 -21 3 -9 8 -51 12 -92 10 -105 10 -105
22 -104 7 1 37 2 67 3 50 1 55 3 55 24 0 20 -4 23 -30 19 -23 -3 -30 0 -30 12
0 10 9 16 25 16 19 0 25 5 25 21 0 18 -4 20 -25 15 -18 -5 -25 -2 -25 9 0 9 9
15 25 15 23 0 25 4 25 45 l0 45 -37 -2 c-21 -1 -55 -3 -76 -5z m93 -37 c0 -8
-11 -17 -25 -20 -23 -6 -25 -10 -25 -71 0 -49 -3 -65 -14 -65 -9 0 -16 18 -20
58 -4 31 -9 69 -12 85 -6 27 -5 27 45 27 37 0 51 -4 51 -14z"/>
<path d="M1 737 c-2 -131 121 -361 266 -498 146 -137 348 -240 470 -238 l48 0
-55 15 c-181 47 -311 119 -443 243 -131 124 -221 281 -271 471 l-15 55 0 -48z"/>
<path d="M1540 758 c0 -19 2 -20 10 -8 13 19 13 30 0 30 -5 0 -10 -10 -10 -22z"/>
<path d="M1912 763 c-1 -12 -16 -63 -33 -114 -107 -319 -353 -545 -689 -633
l-55 -15 48 0 c122 -2 324 101 470 238 148 140 274 378 264 499 -2 26 -4 37
-5 25z"/>
<path d="M1440 657 c0 -26 -26 -67 -43 -67 -8 0 -8 3 1 12 18 18 15 33 -4 17
-8 -7 -13 -21 -11 -30 6 -24 -16 -42 -88 -74 -60 -26 -95 -51 -95 -67 0 -12
38 -10 46 4 5 8 1 9 -12 5 -15 -6 -14 -3 5 13 13 11 31 20 40 20 29 0 95 27
80 33 -8 3 1 6 19 6 30 1 32 -1 22 -19 -6 -11 -16 -21 -23 -21 -7 -1 -19 -2
-27 -3 -8 0 -14 -6 -13 -13 3 -11 -93 -53 -122 -53 -8 0 -15 -4 -15 -9 0 -12
91 14 143 41 69 35 103 88 56 88 -35 0 -10 21 68 57 41 19 73 37 70 40 -3 2
-27 -5 -52 -16 -57 -25 -56 -25 -48 -6 3 9 21 22 39 30 19 8 34 19 34 25 0 6
-12 4 -31 -6 -29 -15 -31 -15 -26 0 4 9 2 16 -3 16 -6 0 -10 -10 -10 -23z"/>
<path d="M1605 640 c-27 -3 -36 -8 -27 -13 7 -5 24 -6 38 -3 14 4 24 2 24 -4
0 -5 -7 -10 -16 -10 -25 0 -10 -25 17 -28 20 -2 21 -1 9 8 -12 9 -9 10 13 6
32 -7 38 13 7 21 -15 4 -18 9 -10 18 11 13 8 13 -55 5z"/>
<path d="M569 561 c16 -29 104 -94 176 -129 107 -52 232 -71 344 -52 39 6 74
16 77 22 4 7 -8 7 -37 2 -24 -5 -89 -9 -144 -9 -146 1 -249 40 -365 136 -36
30 -57 43 -51 30z"/>
<path d="M1147 533 l-3 -38 -8 33 c-13 49 -43 44 -48 -8 l-4 -40 54 2 c29 1
56 6 58 10 3 4 0 8 -6 8 -7 0 -10 13 -8 32 2 24 -1 34 -14 36 -13 2 -18 -6
-21 -35z"/>
<path d="M1017 553 c-4 -3 -20 -6 -37 -5 -28 1 -30 -2 -30 -33 0 -19 5 -37 10
-40 6 -3 10 2 10 11 0 16 1 16 20 -1 20 -18 20 -17 20 20 0 32 2 36 15 25 8
-7 15 -24 15 -37 0 -15 5 -23 13 -20 7 2 11 15 9 30 -2 15 1 27 7 27 6 0 11 7
11 15 0 15 -50 22 -63 8z"/>
<path d="M894 528 c3 -13 6 -33 6 -45 0 -16 5 -20 19 -16 19 5 23 33 6 45 -6
5 -5 8 3 8 6 0 12 7 12 15 0 10 -10 15 -26 15 -22 0 -25 -3 -20 -22z"/>
<path d="M817 503 c7 -47 7 -47 38 -39 22 6 26 11 23 39 -3 28 -7 32 -35 35
-32 3 -32 3 -26 -35z m44 -6 c-1 -12 -15 -9 -19 4 -3 6 1 10 8 8 6 -3 11 -8
11 -12z"/>
<path d="M1200 349 c0 -7 -7 -17 -17 -24 -22 -16 -10 -45 20 -45 33 0 36 6 24
46 -10 32 -27 47 -27 23z m10 -44 c0 -8 -4 -15 -10 -15 -5 0 -10 7 -10 15 0 8
5 15 10 15 6 0 10 -7 10 -15z"/>
<path d="M1245 350 c-3 -5 1 -10 9 -10 8 0 18 -4 21 -10 3 -6 -1 -7 -9 -4 -11
4 -16 0 -16 -10 0 -17 14 -19 41 -8 12 5 14 13 8 30 -9 23 -43 30 -54 12z"/>
<path d="M744 335 c-4 -8 -3 -22 0 -31 8 -21 50 -14 54 10 6 31 -43 50 -54 21z
m36 -15 c0 -5 -4 -10 -10 -10 -5 0 -10 5 -10 10 0 6 5 10 10 10 6 0 10 -4 10
-10z"/>
<path d="M824 338 c-11 -17 -15 -68 -6 -68 6 0 22 27 39 68 7 16 -23 16 -33 0z"/>
<path d="M1128 345 c-9 -9 13 -85 24 -85 6 0 7 11 3 28 -4 15 -8 32 -9 39 -3
16 -11 24 -18 18z"/>
<path d="M900 288 c1 -36 3 -40 13 -27 7 9 19 18 27 22 12 4 11 6 -2 6 -25 1
-22 21 3 21 11 0 17 5 14 10 -3 6 -17 10 -31 10 -22 0 -24 -4 -24 -42z"/>
<path d="M970 290 c0 -22 5 -40 10 -40 6 0 10 18 10 40 0 22 -4 40 -10 40 -5
0 -10 -18 -10 -40z"/>
<path d="M1014 295 c-9 -23 3 -45 25 -45 23 0 35 28 20 46 -15 18 -38 18 -45
-1z m36 -15 c0 -5 -7 -10 -16 -10 -8 0 -12 5 -9 10 3 6 10 10 16 10 5 0 9 -4
9 -10z"/>
<path d="M1084 294 c3 -9 6 -22 6 -30 0 -9 5 -12 11 -9 6 4 8 13 5 20 -2 7 1
18 7 24 8 8 5 11 -12 11 -17 0 -22 -4 -17 -16z"/>
</g>
</svg>
