<?xml version="1.0" standalone="no"?>
<!DOCTYPE svg PUBLIC "-//W3C//DTD SVG 20010904//EN"
 "http://www.w3.org/TR/2001/REC-SVG-20010904/DTD/svg10.dtd">
<svg version="1.0" xmlns="http://www.w3.org/2000/svg"
 width="256.000000pt" height="256.000000pt" viewBox="0 0 256.000000 256.000000"
 preserveAspectRatio="xMidYMid meet">
<metadata>
Created by potrace 1.16, written by Peter Selinger 2001-2019
</metadata>
<g transform="translate(0.000000,256.000000) scale(0.100000,-0.100000)"
fill="#000000" stroke="none">
<path d="M1233 2383 c9 -2 25 -2 35 0 9 3 1 5 -18 5 -19 0 -27 -2 -17 -5z"/>
<path d="M1330 2370 c-35 -7 -35 -7 -5 -9 17 0 37 4 45 9 17 11 11 11 -40 0z"/>
<path d="M1213 2363 c9 -2 23 -2 30 0 6 3 -1 5 -18 5 -16 0 -22 -2 -12 -5z"/>
<path d="M1418 2363 c7 -3 16 -2 19 1 4 3 -2 6 -13 5 -11 0 -14 -3 -6 -6z"/>
<path d="M1130 2338 c-70 -8 -90 -13 -75 -20 15 -6 10 -7 -18 -4 -20 3 -35 1
-32 -3 2 -5 -23 -18 -56 -31 -98 -35 -180 -95 -199 -145 -11 -28 -13 -29 -21
-10 -8 18 -9 18 -5 -3 3 -13 -3 -39 -12 -58 -16 -31 -20 -34 -67 -34 -64 0
-178 -54 -157 -74 3 -4 -1 -4 -11 0 -9 3 -17 2 -17 -4 0 -5 -12 -13 -27 -17
-21 -5 -24 -8 -12 -16 16 -10 7 -12 -41 -10 l-25 1 23 -10 c25 -11 21 -30 -6
-30 -9 0 -36 -18 -60 -40 -24 -22 -50 -40 -58 -40 -9 0 -14 -6 -11 -12 5 -14
-23 -68 -35 -68 -4 0 -8 -9 -8 -19 0 -11 -4 -23 -10 -26 -6 -4 -10 5 -10 19 0
14 -4 26 -9 26 -6 0 -5 -15 1 -36 6 -25 6 -39 -1 -43 -12 -8 -8 -217 4 -229 4
-4 5 9 2 28 -5 26 -4 31 4 18 5 -10 12 -55 15 -100 2 -46 7 -98 10 -115 3 -20
1 -33 -6 -33 -5 0 -10 9 -10 20 0 11 -4 20 -10 20 -5 0 -10 -9 -10 -20 0 -11
5 -20 10 -20 6 0 10 -10 10 -22 0 -19 2 -20 10 -8 9 15 7 -83 -4 -175 -4 -34
-4 -36 3 -10 5 17 9 28 10 25 1 -3 4 -84 7 -180 4 -96 11 -195 16 -220 6 -25
10 -61 10 -80 0 -27 2 -30 8 -15 7 19 8 19 15 -5 4 -14 32 -47 61 -75 69 -66
81 -75 96 -75 8 0 22 -6 33 -14 32 -22 151 -66 182 -67 26 -2 25 -2 -7 -9
l-35 -6 28 -9 c18 -5 33 -3 40 4 6 6 22 11 37 10 25 -1 25 -1 -5 -15 -24 -12
-25 -14 -5 -8 35 9 49 8 180 -11 212 -32 933 -22 1020 13 8 3 20 6 25 7 53 7
192 50 212 66 7 7 16 9 19 6 4 -3 11 -2 18 4 49 41 103 75 114 72 7 -3 10 1 6
11 -3 9 2 20 14 27 11 7 18 19 15 26 -3 8 -2 13 3 12 5 -1 17 -1 28 0 16 1 16
3 5 17 -8 10 -9 18 -3 22 15 10 16 20 20 405 3 208 9 357 14 357 5 0 9 12 9
28 -1 15 2 43 5 62 9 48 -5 283 -15 250 -6 -20 -7 -16 -8 20 -1 33 -4 41 -11
30 -8 -13 -10 -13 -10 1 0 9 -16 40 -35 67 -34 50 -37 76 -11 94 8 5 7 8 -1 8
-6 0 -18 -9 -26 -21 -11 -14 -17 -17 -22 -9 -4 7 -1 17 6 22 10 7 8 8 -7 3
-16 -4 -27 1 -42 20 -11 14 -26 25 -32 25 -9 0 -7 7 5 20 22 24 4 27 -20 3
-16 -15 -17 -15 -14 3 6 34 -33 121 -58 133 -25 12 -30 26 -10 35 6 3 2 3 -11
0 -17 -4 -30 1 -47 20 -13 14 -31 26 -40 26 -18 0 -20 16 -2 24 6 3 0 4 -15 1
-16 -3 -28 -2 -28 3 0 10 -71 42 -93 42 -10 0 -17 4 -17 10 0 5 6 7 14 4 8 -3
23 -1 33 5 15 8 10 10 -24 11 -24 0 -43 -4 -43 -10 0 -5 -7 -10 -15 -10 -20 0
-19 17 3 29 13 8 8 9 -20 4 -30 -4 -39 -2 -44 12 -5 12 -1 23 11 31 16 12 17
14 2 14 -9 0 -20 -8 -26 -17 -8 -15 -11 -15 -27 -3 -9 8 -18 14 -18 12 -2 -7
-54 17 -61 28 -3 5 -10 8 -15 5 -5 -3 -31 1 -57 10 -61 21 -281 28 -413 13z
m395 -35 c82 -18 177 -63 220 -104 23 -21 41 -29 68 -29 21 0 52 -7 70 -16 58
-30 151 -97 189 -135 36 -37 65 -109 53 -129 -4 -6 2 -13 12 -17 57 -22 151
-125 189 -209 44 -95 63 -222 44 -286 -10 -31 -15 -154 -19 -423 -6 -374 -6
-381 -30 -428 -62 -125 -193 -202 -428 -251 -133 -28 -336 -39 -658 -33 -257
4 -331 8 -430 26 -237 42 -386 104 -471 195 -81 88 -81 86 -104 665 -8 196
-15 283 -25 308 -25 61 -19 159 14 229 32 67 116 160 154 169 13 4 30 16 36
28 16 29 158 125 205 138 26 7 47 7 68 0 39 -14 38 -14 38 2 0 32 70 156 103
181 73 56 252 120 382 137 79 10 232 1 320 -18z"/>
<path d="M1208 2283 c6 -2 18 -2 25 0 6 3 1 5 -13 5 -14 0 -19 -2 -12 -5z"/>
<path d="M1158 2245 c-123 -23 -263 -81 -305 -127 -29 -30 -58 -101 -73 -174
-22 -107 -37 -117 -78 -49 -36 60 -58 59 -158 -7 -73 -49 -79 -56 -82 -90 -3
-35 -5 -37 -28 -28 -31 12 -48 4 -96 -48 -80 -87 -102 -168 -70 -264 19 -55
23 -111 37 -452 13 -339 17 -393 34 -430 62 -134 241 -211 582 -252 158 -18
601 -21 779 -5 343 33 526 121 569 276 7 26 11 162 11 380 0 270 3 348 15 380
55 155 -44 387 -197 458 -47 22 -48 23 -42 59 6 41 -19 108 -41 108 -7 0 -15
3 -17 8 -5 13 -85 72 -97 72 -6 0 -11 4 -11 8 0 26 -114 44 -123 20 -3 -9 -11
-4 -23 12 -47 63 -147 122 -241 139 -95 18 -264 21 -345 6z m280 -20 c19 7 63
-5 56 -16 -3 -5 -14 -9 -25 -9 -11 0 -18 3 -16 8 3 4 -56 6 -131 4 -103 -3
-151 -8 -192 -23 -30 -10 -72 -19 -95 -19 -40 1 -40 1 -15 15 15 8 38 12 55 9
18 -3 25 -2 18 3 -19 13 144 34 202 26 32 -4 46 -3 42 4 -4 7 9 7 41 2 26 -5
53 -7 60 -4z m130 -32 c20 -9 42 -15 48 -14 7 1 14 -5 18 -14 3 -8 11 -15 17
-15 21 0 48 -31 42 -48 -5 -12 -2 -14 11 -9 9 4 15 3 12 -2 -3 -4 6 -13 19
-19 14 -7 25 -16 25 -21 0 -6 7 -8 15 -5 27 11 16 -4 -15 -20 -16 -9 -45 -24
-62 -33 -33 -17 -178 -26 -178 -11 0 11 80 31 122 31 27 0 35 3 31 13 -3 8 1
14 11 14 18 0 22 35 5 45 -5 4 -8 12 -6 18 4 13 -12 24 -100 67 -35 17 -63 32
-63 35 0 8 8 6 48 -12z m-53 -26 c88 -25 181 -84 162 -103 -13 -14 -127 -46
-207 -59 -114 -19 -178 -19 -220 3 -28 14 -35 23 -35 47 0 25 5 32 35 42 19 7
52 12 73 12 31 1 39 -3 47 -24 12 -30 34 -32 79 -4 32 19 32 21 15 34 -11 8
-43 20 -73 26 -100 23 -255 -20 -284 -79 -36 -72 29 -124 178 -144 158 -20
377 20 488 89 l37 23 48 -24 c51 -26 122 -83 122 -98 0 -10 -70 -42 -155 -68
-122 -39 -234 -54 -400 -54 -143 0 -172 3 -270 28 -192 49 -271 121 -251 228
5 30 14 37 87 72 134 64 194 77 344 72 72 -3 153 -11 180 -19z m-508 -18 c-10
-6 -25 -8 -33 -5 -8 3 -14 2 -14 -3 0 -5 -9 -11 -20 -14 -11 -3 -20 -2 -20 2
0 11 44 29 75 29 26 1 27 0 12 -9z m-98 -48 c-15 -5 -22 6 -14 19 6 9 10 9 16
-1 5 -8 4 -15 -2 -18z m-17 -25 c-13 -23 -19 -92 -10 -111 6 -10 11 -35 10
-55 -1 -26 1 -31 8 -20 9 13 12 13 24 -2 7 -10 18 -18 25 -18 6 0 14 -6 17
-14 3 -8 12 -12 20 -9 8 3 14 0 14 -6 0 -10 106 -47 123 -43 5 2 6 -2 2 -8 -4
-6 5 -10 20 -10 15 0 36 -5 47 -11 16 -8 19 -8 13 1 -6 9 0 10 23 5 99 -21
304 -22 420 0 23 4 32 3 27 -4 -3 -7 0 -8 9 -5 9 3 16 11 16 16 0 6 13 7 31 3
24 -6 30 -4 24 5 -5 8 -4 11 2 7 6 -4 49 7 96 23 48 16 94 27 104 24 14 -5 15
-4 4 4 -11 8 -10 12 7 21 29 16 37 14 21 -6 -12 -14 -12 -16 1 -11 15 5 17 25
6 86 -5 31 -4 31 12 16 11 -11 17 -36 19 -71 1 -44 -1 -53 -15 -54 -9 0 1 -7
23 -15 66 -25 105 -46 100 -55 -3 -4 3 -10 12 -12 14 -4 14 -5 -3 -6 -12 0
-24 6 -28 14 -3 9 -12 12 -22 8 -13 -5 -15 -3 -9 7 6 10 2 12 -18 8 -15 -3
-28 0 -30 6 -2 7 -10 4 -21 -7 -10 -9 -26 -17 -37 -17 -10 0 -19 -4 -19 -9 0
-6 -17 -8 -37 -5 -29 3 -33 2 -18 -5 17 -8 18 -10 2 -10 -9 -1 -25 -5 -35 -10
-20 -11 -176 -41 -213 -41 -14 0 -29 -3 -33 -7 -9 -9 -22 -10 -249 -19 -187
-7 -252 -1 -417 37 -102 24 -162 48 -153 62 4 6 0 8 -10 4 -18 -7 -67 31 -67
51 0 6 -6 9 -12 7 -7 -3 -23 12 -35 33 -18 31 -23 34 -28 19 -16 -39 89 -133
185 -166 166 -58 307 -75 561 -68 232 5 389 31 561 91 94 33 98 33 125 16 106
-64 178 -266 132 -369 -10 -23 -24 -69 -31 -102 -9 -44 -16 -59 -28 -57 -12 3
-16 20 -18 82 l-3 78 -41 -6 c-52 -9 -55 -10 -77 -54 -32 -65 -51 -173 -51
-300 0 -100 -3 -121 -16 -126 -52 -20 -62 11 -66 204 -3 129 -6 161 -22 190
-10 19 -24 38 -30 42 -35 23 -270 -7 -316 -41 -16 -11 -33 -42 -46 -82 -37
-114 -102 -119 -151 -13 -34 75 -69 97 -145 91 -75 -6 -125 -36 -169 -100 -50
-72 -69 -136 -69 -231 -1 -92 -12 -155 -32 -168 -42 -27 -88 33 -88 117 0 79
-37 215 -82 302 -59 112 -146 50 -162 -117 -13 -132 -16 -140 -41 -140 -27 0
-40 28 -55 120 -5 37 -18 76 -30 90 -37 46 -47 75 -70 190 -13 63 -29 124 -37
135 -16 24 -17 84 0 122 13 32 68 103 79 103 4 0 15 -16 24 -36 21 -43 114
-116 176 -137 24 -8 59 -20 78 -26 73 -24 245 -36 358 -23 58 7 110 16 115 21
5 5 -21 13 -65 20 -281 44 -415 89 -502 171 -23 21 -49 52 -58 68 l-17 29 57
39 c43 29 58 46 60 67 2 15 8 27 14 27 5 0 8 -7 4 -15 -3 -8 1 -18 8 -22 6 -5
20 -19 29 -33 9 -13 17 -21 17 -16 0 5 7 2 16 -5 14 -11 18 -10 31 6 8 11 18
19 23 18 5 -2 7 11 3 27 -3 17 -1 36 5 43 6 7 12 29 14 49 1 24 6 34 14 31 8
-3 11 2 7 16 -7 28 11 27 26 -1 10 -20 11 -20 7 -3 -2 11 -7 29 -12 39 -5 13
-4 17 3 13 6 -4 14 0 17 9 3 8 2 12 -4 9 -11 -7 -14 8 -4 18 9 9 33 -16 26
-27z m528 30 c0 -11 -19 -15 -25 -6 -3 5 1 10 9 10 9 0 16 -2 16 -4z m-227
-13 c-19 -7 -16 -41 7 -78 17 -27 28 -33 70 -39 29 -4 48 -11 45 -16 -4 -6 3
-10 15 -10 12 0 18 5 15 10 -3 6 -2 10 4 10 5 0 11 -6 14 -12 3 -10 9 -10 29
1 14 7 35 10 47 6 12 -4 21 -2 21 4 0 6 11 11 25 11 14 0 25 -4 25 -10 0 -5
13 -7 30 -3 18 3 30 1 30 -5 0 -16 -92 -24 -222 -20 -112 3 -117 4 -142 30
-14 16 -28 23 -31 18 -3 -6 -1 -10 6 -10 7 0 10 -3 6 -6 -3 -3 -15 -3 -28 1
-12 4 -17 10 -12 14 6 3 7 14 2 26 -6 17 -8 17 -8 3 -1 -10 -6 -18 -12 -18 -6
0 -9 12 -7 28 2 15 8 26 16 25 6 -2 12 1 12 6 0 14 30 41 43 40 9 0 8 -2 0 -6z
m644 -21 c-9 -2 -15 -8 -11 -13 3 -5 9 -7 14 -4 14 8 121 -55 114 -67 -4 -6
-9 -6 -13 -2 -9 13 -88 51 -141 68 -42 14 -40 21 4 16 10 -1 15 3 12 8 -4 6 3
8 16 4 19 -5 20 -7 5 -10z m-1197 -178 c0 -14 -3 -14 -15 -4 -8 7 -15 14 -15
16 0 2 7 4 15 4 8 0 15 -7 15 -16z m-25 -14 c3 -5 -1 -10 -9 -10 -8 0 -18 5
-21 10 -3 6 1 10 9 10 8 0 18 -4 21 -10z m-42 -36 c-10 -7 -26 -14 -35 -14
-26 0 -34 -46 -15 -86 9 -19 21 -34 27 -34 14 0 12 -20 -8 -62 l-18 -37 -27
25 c-30 27 -33 40 -14 47 7 4 6 6 -4 6 -9 1 -24 12 -33 26 -20 30 -20 39 -2
32 18 -7 46 23 46 50 0 25 16 39 52 48 16 4 25 11 22 16 -3 5 2 6 11 3 14 -6
14 -8 -2 -20z m-155 -115 c12 -19 11 -20 -9 -14 -16 5 -19 4 -14 -5 5 -8 4
-11 -3 -6 -13 8 -65 -42 -57 -55 10 -16 -6 -33 -17 -18 -7 10 -8 8 -5 -9 3
-12 2 -20 -2 -17 -15 9 -2 -147 13 -159 12 -9 22 -42 32 -106 16 -97 26 -143
39 -171 8 -19 14 -28 15 -20 0 8 9 2 21 -13 16 -20 20 -36 16 -62 -3 -19 -2
-34 4 -34 5 0 9 -7 9 -16 0 -35 24 -96 42 -105 29 -16 69 0 80 32 5 16 13 29
18 29 4 0 5 36 3 80 -2 47 1 80 6 80 5 0 9 -10 9 -22 -4 -59 3 -158 10 -158 4
0 5 33 2 73 -6 67 -6 92 -2 156 2 21 5 23 39 18 41 -7 58 -21 68 -57 3 -14 3
-20 -2 -13 -5 6 -8 -9 -8 -37 0 -48 14 -48 16 0 1 25 1 24 14 -5 20 -42 20
-61 0 -45 -12 10 -15 10 -15 -4 0 -9 8 -16 20 -16 12 0 21 -7 21 -17 1 -10 4
-29 6 -43 2 -14 7 -63 10 -109 3 -54 8 -79 14 -70 7 12 9 12 9 0 0 -20 31 -40
63 -41 15 0 27 -4 27 -10 0 -5 5 -10 11 -10 6 0 9 6 6 13 -2 6 2 20 11 29 10
12 16 47 18 115 5 120 8 140 31 192 17 40 32 53 34 29 0 -7 5 -2 10 11 5 13 7
26 4 29 -3 3 -5 0 -5 -6 0 -7 -4 -12 -10 -12 -6 0 -5 9 2 25 10 23 53 49 107
66 16 4 19 8 9 8 -27 1 -21 21 6 21 13 0 32 3 41 7 14 5 16 2 11 -18 -6 -20
-5 -21 4 -6 6 9 17 17 24 17 22 0 67 -41 64 -59 -3 -25 11 -71 23 -71 8 0 8 4
2 13 -12 15 -24 47 -18 47 3 0 14 -18 25 -39 14 -29 28 -41 50 -46 66 -14 109
12 125 77 4 16 11 26 15 23 5 -3 6 4 3 15 -8 32 31 66 87 75 147 27 182 29
208 14 48 -27 63 -91 60 -259 -3 -143 -2 -147 20 -164 31 -24 83 -18 98 12 6
12 12 82 13 160 1 95 6 140 14 147 7 6 11 17 9 27 -2 9 2 19 7 23 6 3 11 15
11 26 0 34 30 69 56 67 23 -2 24 -6 24 -64 0 -67 13 -88 52 -82 18 2 25 12 31
43 5 22 13 54 18 70 l9 30 -5 -30 -4 -30 16 35 c12 24 17 62 17 123 0 48 4 87
9 87 5 0 -1 13 -12 29 -12 16 -21 35 -21 43 0 7 -9 28 -20 46 -22 36 -24 42
-11 42 5 0 14 -13 21 -30 7 -16 16 -27 21 -24 5 3 9 -8 9 -25 0 -16 4 -31 10
-33 5 -1 14 -38 20 -81 8 -64 7 -85 -5 -114 -12 -29 -15 -98 -15 -378 0 -382
-3 -405 -65 -480 -34 -42 -39 -44 -78 -41 -23 2 -36 2 -29 -1 10 -4 10 -8 1
-19 -16 -19 1 -18 31 2 20 14 22 14 10 1 -15 -15 -122 -60 -174 -73 -21 -5
-27 -4 -22 5 8 13 4 14 -19 5 -13 -5 -14 -8 -3 -15 8 -6 0 -9 -25 -9 -23 0
-36 4 -32 10 3 6 1 10 -4 10 -6 0 -11 -6 -11 -14 0 -18 -27 -23 -225 -37 -111
-7 -250 -9 -400 -5 -126 4 -243 7 -259 7 -16 0 -36 4 -45 9 -13 7 -10 9 14 10
17 0 35 4 42 8 6 4 -15 7 -48 7 -56 0 -75 -7 -46 -18 25 -10 -80 5 -152 20
-55 12 -75 21 -79 35 -3 14 -8 16 -17 8 -9 -7 -21 -7 -41 1 -16 7 -36 12 -44
11 -10 -1 -11 0 -2 4 7 3 17 15 24 27 11 21 10 21 -9 4 -11 -9 -26 -17 -34
-17 -10 1 -8 5 5 15 23 17 17 19 -19 5 -17 -7 -24 -7 -20 0 3 6 -5 10 -19 10
-16 0 -27 7 -31 20 -3 11 -13 20 -20 20 -17 0 -37 34 -27 45 4 5 1 5 -6 1 -14
-9 -34 36 -26 59 4 8 2 15 -3 15 -11 0 -29 345 -27 513 0 53 -3 97 -8 97 -4 0
-8 39 -7 87 1 54 4 81 10 72 7 -11 9 -9 9 9 0 12 -6 22 -13 22 -11 0 -27 32
-44 90 -4 13 -4 13 6 0 8 -12 11 -3 11 36 0 54 23 100 78 156 33 33 34 33 50
7z m1782 -31 c0 -11 -8 -10 -31 3 -11 5 -17 14 -14 19 6 10 45 -9 45 -22z
m-1610 -34 c0 -8 7 -14 15 -14 9 0 18 -7 21 -15 4 -8 11 -15 18 -15 6 0 33
-12 60 -26 54 -29 205 -74 248 -74 46 0 40 -17 -8 -25 -30 -4 -50 -2 -60 6 -8
7 -41 12 -74 12 -33 -1 -60 3 -60 8 0 5 -13 9 -28 9 -43 0 -122 30 -122 46 0
8 -10 14 -24 14 -31 0 -39 31 -19 70 14 30 33 32 33 4z m477 -160 c-3 -3 -12
-4 -19 -1 -8 3 -5 6 6 6 11 1 17 -2 13 -5z m-400 -280 c-3 -3 -12 -4 -19 -1
-8 3 -5 6 6 6 11 1 17 -2 13 -5z m433 -4 c-8 -5 -22 -9 -30 -9 -10 0 -8 3 5 9
27 12 43 12 25 0z"/>
<path d="M1630 2000 c0 -6 7 -10 15 -10 8 0 15 2 15 4 0 2 -7 6 -15 10 -8 3
-15 1 -15 -4z"/>
<path d="M1580 1996 c0 -2 7 -7 16 -10 8 -3 12 -2 9 4 -6 10 -25 14 -25 6z"/>
<path d="M1490 2126 c0 -9 5 -16 10 -16 6 0 10 4 10 9 0 6 -4 13 -10 16 -5 3
-10 -1 -10 -9z"/>
<path d="M1058 2098 c5 -5 16 -8 23 -6 8 3 3 7 -10 11 -17 4 -21 3 -13 -5z"/>
<path d="M1560 2100 c-13 -8 -12 -10 3 -10 9 0 17 5 17 10 0 12 -1 12 -20 0z"/>
<path d="M995 2090 c-3 -6 1 -7 9 -4 18 7 21 14 7 14 -6 0 -13 -4 -16 -10z"/>
<path d="M1260 2059 c0 -5 5 -7 10 -4 6 3 10 8 10 11 0 2 -4 4 -10 4 -5 0 -10
-5 -10 -11z"/>
<path d="M1042 2010 c0 -19 2 -27 5 -17 2 9 2 25 0 35 -3 9 -5 1 -5 -18z"/>
<path d="M930 1981 c0 -6 4 -13 10 -16 6 -3 7 1 4 9 -7 18 -14 21 -14 7z"/>
<path d="M1075 1960 c3 -5 8 -10 11 -10 2 0 4 5 4 10 0 6 -5 10 -11 10 -5 0
-7 -4 -4 -10z"/>
<path d="M1860 1956 c0 -2 7 -6 15 -10 8 -3 15 -1 15 4 0 6 -7 10 -15 10 -8 0
-15 -2 -15 -4z"/>
<path d="M1690 1930 c8 -5 20 -10 25 -10 6 0 3 5 -5 10 -8 5 -19 10 -25 10 -5
0 -3 -5 5 -10z"/>
<path d="M1745 1930 c-3 -5 -1 -10 4 -10 6 0 11 5 11 10 0 6 -2 10 -4 10 -3 0
-8 -4 -11 -10z"/>
<path d="M995 1910 c3 -5 8 -10 11 -10 2 0 4 5 4 10 0 6 -5 10 -11 10 -5 0 -7
-4 -4 -10z"/>
<path d="M1323 1883 c9 -2 23 -2 30 0 6 3 -1 5 -18 5 -16 0 -22 -2 -12 -5z"/>
<path d="M1830 1880 c-13 -8 -12 -10 3 -10 9 0 17 5 17 10 0 12 -1 12 -20 0z"/>
<path d="M1070 1876 c0 -2 7 -6 15 -10 8 -3 15 -1 15 4 0 6 -7 10 -15 10 -8 0
-15 -2 -15 -4z"/>
<path d="M1128 1863 c7 -3 16 -2 19 1 4 3 -2 6 -13 5 -11 0 -14 -3 -6 -6z"/>
<path d="M1760 1860 c0 -5 5 -10 11 -10 5 0 7 5 4 10 -3 6 -8 10 -11 10 -2 0
-4 -4 -4 -10z"/>
<path d="M1430 1850 c-18 -12 -2 -12 25 0 13 6 15 9 5 9 -8 0 -22 -4 -30 -9z"/>
<path d="M1498 1843 c7 -3 16 -2 19 1 4 3 -2 6 -13 5 -11 0 -14 -3 -6 -6z"/>
<path d="M575 1780 c-3 -5 -1 -10 4 -10 6 0 11 5 11 10 0 6 -2 10 -4 10 -3 0
-8 -4 -11 -10z"/>
<path d="M1065 1780 c3 -5 10 -10 16 -10 5 0 9 5 9 10 0 6 -7 10 -16 10 -8 0
-12 -4 -9 -10z"/>
<path d="M1800 1779 c0 -5 5 -7 10 -4 6 3 10 8 10 11 0 2 -4 4 -10 4 -5 0 -10
-5 -10 -11z"/>
<path d="M1760 1760 c0 -5 5 -10 11 -10 5 0 7 5 4 10 -3 6 -8 10 -11 10 -2 0
-4 -4 -4 -10z"/>
<path d="M1837 1759 c7 -7 15 -10 18 -7 3 3 -2 9 -12 12 -14 6 -15 5 -6 -5z"/>
<path d="M626 1747 c3 -10 9 -15 12 -12 3 3 0 11 -7 18 -10 9 -11 8 -5 -6z"/>
<path d="M848 1743 c6 -3 12 -9 12 -14 0 -12 57 -12 65 1 4 6 -6 10 -22 10
-15 0 -37 2 -48 4 -11 2 -14 1 -7 -1z"/>
<path d="M600 1730 c0 -5 5 -10 11 -10 5 0 7 5 4 10 -3 6 -8 10 -11 10 -2 0
-4 -4 -4 -10z"/>
<path d="M1775 1730 l-20 -9 20 0 c11 0 29 4 40 9 l20 9 -20 0 c-11 0 -29 -4
-40 -9z"/>
<path d="M2013 1695 c0 -8 4 -12 9 -9 5 3 6 10 3 15 -9 13 -12 11 -12 -6z"/>
<path d="M2045 1690 c4 -6 11 -8 16 -5 14 9 11 15 -7 15 -8 0 -12 -5 -9 -10z"/>
<path d="M790 1680 c-8 -5 -10 -10 -5 -10 6 0 17 5 25 10 8 5 11 10 5 10 -5 0
-17 -5 -25 -10z"/>
<path d="M1123 1673 c9 -2 23 -2 30 0 6 3 -1 5 -18 5 -16 0 -22 -2 -12 -5z"/>
<path d="M1498 1673 c7 -3 16 -2 19 1 4 3 -2 6 -13 5 -11 0 -14 -3 -6 -6z"/>
<path d="M728 1663 c7 -3 16 -2 19 1 4 3 -2 6 -13 5 -11 0 -14 -3 -6 -6z"/>
<path d="M1178 1663 c7 -3 16 -2 19 1 4 3 -2 6 -13 5 -11 0 -14 -3 -6 -6z"/>
<path d="M1448 1663 c7 -3 16 -2 19 1 4 3 -2 6 -13 5 -11 0 -14 -3 -6 -6z"/>
<path d="M765 1640 c-3 -5 -1 -10 4 -10 6 0 11 5 11 10 0 6 -2 10 -4 10 -3 0
-8 -4 -11 -10z"/>
<path d="M1810 1636 c0 -2 7 -6 15 -10 8 -3 15 -1 15 4 0 6 -7 10 -15 10 -8 0
-15 -2 -15 -4z"/>
<path d="M1758 1618 c5 -5 16 -8 23 -6 8 3 3 7 -10 11 -17 4 -21 3 -13 -5z"/>
<path d="M2081 1614 c0 -11 3 -14 6 -6 3 7 2 16 -1 19 -3 4 -6 -2 -5 -13z"/>
<path d="M2126 1615 c4 -8 8 -15 10 -15 2 0 4 7 4 15 0 8 -4 15 -10 15 -5 0
-7 -7 -4 -15z"/>
<path d="M386 1609 c3 -5 21 -9 41 -9 45 0 40 6 -9 13 -21 3 -35 1 -32 -4z"/>
<path d="M968 1603 c7 -3 16 -2 19 1 4 3 -2 6 -13 5 -11 0 -14 -3 -6 -6z"/>
<path d="M1528 1603 c7 -3 16 -2 19 1 4 3 -2 6 -13 5 -11 0 -14 -3 -6 -6z"/>
<path d="M1638 1603 c6 -2 18 -2 25 0 6 3 1 5 -13 5 -14 0 -19 -2 -12 -5z"/>
<path d="M1708 1603 c7 -3 16 -2 19 1 4 3 -2 6 -13 5 -11 0 -14 -3 -6 -6z"/>
<path d="M2162 1570 c0 -14 2 -19 5 -12 2 6 2 18 0 25 -3 6 -5 1 -5 -13z"/>
<path d="M953 1573 c9 -2 23 -2 30 0 6 3 -1 5 -18 5 -16 0 -22 -2 -12 -5z"/>
<path d="M382 1540 c0 -14 2 -19 5 -12 2 6 2 18 0 25 -3 6 -5 1 -5 -13z"/>
<path d="M487 1553 c-13 -13 -7 -33 11 -32 11 0 12 2 4 6 -10 4 -10 8 -1 19
11 14 -1 20 -14 7z"/>
<path d="M350 1525 c0 -8 4 -15 10 -15 5 0 7 7 4 15 -4 8 -8 15 -10 15 -2 0
-4 -7 -4 -15z"/>
<path d="M392 1470 c0 -14 2 -19 5 -12 2 6 2 18 0 25 -3 6 -5 1 -5 -13z"/>
<path d="M2191 1474 c0 -11 3 -14 6 -6 3 7 2 16 -1 19 -3 4 -6 -2 -5 -13z"/>
<path d="M1120 1450 c0 -5 7 -10 16 -10 8 0 12 5 9 10 -3 6 -10 10 -16 10 -5
0 -9 -4 -9 -10z"/>
<path d="M1168 1443 c7 -3 16 -2 19 1 4 3 -2 6 -13 5 -11 0 -14 -3 -6 -6z"/>
<path d="M2190 1410 c0 -5 5 -10 10 -10 6 0 10 5 10 10 0 6 -4 10 -10 10 -5 0
-10 -4 -10 -10z"/>
<path d="M2020 1390 c0 -5 5 -10 10 -10 6 0 10 5 10 10 0 6 -4 10 -10 10 -5 0
-10 -4 -10 -10z"/>
<path d="M2168 1377 c-3 -14 0 -24 7 -24 7 0 10 10 7 24 -2 13 -6 23 -7 23 -1
0 -5 -10 -7 -23z"/>
<path d="M1590 1350 c8 -5 20 -10 25 -10 6 0 3 5 -5 10 -8 5 -19 10 -25 10 -5
0 -3 -5 5 -10z"/>
<path d="M1906 1314 c-3 -26 -4 -49 -2 -52 3 -2 8 17 11 43 4 25 5 48 3 51 -3
2 -8 -17 -12 -42z"/>
<path d="M1530 1330 c-9 -6 -10 -10 -3 -10 6 0 15 5 18 10 8 12 4 12 -15 0z"/>
<path d="M1875 1330 c3 -5 8 -10 11 -10 2 0 4 5 4 10 0 6 -5 10 -11 10 -5 0
-7 -4 -4 -10z"/>
<path d="M1930 1269 c0 -5 5 -7 10 -4 6 3 10 8 10 11 0 2 -4 4 -10 4 -5 0 -10
-5 -10 -11z"/>
<path d="M432 1250 c0 -14 2 -19 5 -12 2 6 2 18 0 25 -3 6 -5 1 -5 -13z"/>
<path d="M1331 1254 c0 -11 3 -14 6 -6 3 7 2 16 -1 19 -3 4 -6 -2 -5 -13z"/>
<path d="M1442 1230 c0 -19 2 -27 5 -17 2 9 2 25 0 35 -3 9 -5 1 -5 -18z"/>
<path d="M460 1235 c0 -8 5 -15 10 -15 6 0 10 7 10 15 0 8 -4 15 -10 15 -5 0
-10 -7 -10 -15z"/>
<path d="M990 1240 c0 -5 5 -10 10 -10 6 0 10 5 10 10 0 6 -4 10 -10 10 -5 0
-10 -4 -10 -10z"/>
<path d="M1340 1205 c0 -8 4 -15 10 -15 5 0 7 7 4 15 -4 8 -8 15 -10 15 -2 0
-4 -7 -4 -15z"/>
<path d="M975 1200 c-3 -6 1 -7 9 -4 18 7 21 14 7 14 -6 0 -13 -4 -16 -10z"/>
<path d="M1930 1190 c0 -11 2 -20 4 -20 2 0 6 9 9 20 3 11 1 20 -4 20 -5 0 -9
-9 -9 -20z"/>
<path d="M786 1185 c-9 -26 -7 -32 5 -12 6 10 9 21 6 23 -2 3 -7 -2 -11 -11z"/>
<path d="M1388 1183 c6 -2 18 -2 25 0 6 3 1 5 -13 5 -14 0 -19 -2 -12 -5z"/>
<path d="M880 1111 c0 -6 5 -13 10 -16 6 -3 10 1 10 9 0 9 -4 16 -10 16 -5 0
-10 -4 -10 -9z"/>
<path d="M922 1100 c0 -14 2 -19 5 -12 2 6 2 18 0 25 -3 6 -5 1 -5 -13z"/>
<path d="M516 1049 c-3 -17 -3 -37 2 -44 4 -8 8 5 9 31 2 52 -2 56 -11 13z"/>
<path d="M855 958 c-7 -25 -11 -88 -4 -80 4 4 9 26 11 50 4 42 1 53 -7 30z"/>
<path d="M887 963 c6 -4 13 -26 16 -48 4 -40 4 -40 3 4 -1 30 -6 46 -16 48
-10 3 -11 2 -3 -4z"/>
<path d="M1936 935 c-3 -8 -1 -15 4 -15 6 0 10 7 10 15 0 8 -2 15 -4 15 -2 0
-6 -7 -10 -15z"/>
<path d="M872 830 c0 -14 2 -19 5 -12 2 6 2 18 0 25 -3 6 -5 1 -5 -13z"/>
<path d="M490 1743 c0 -10 5 -25 10 -33 7 -11 10 -7 10 18 0 17 -4 32 -10 32
-5 0 -10 -8 -10 -17z"/>
<path d="M465 1720 c3 -5 8 -10 11 -10 2 0 4 5 4 10 0 6 -5 10 -11 10 -5 0 -7
-4 -4 -10z"/>
<path d="M500 1660 c0 -5 5 -10 10 -10 6 0 10 5 10 10 0 6 -4 10 -10 10 -5 0
-10 -4 -10 -10z"/>
<path d="M2260 1425 c0 -8 5 -15 10 -15 6 0 10 7 10 15 0 8 -4 15 -10 15 -5 0
-10 -7 -10 -15z"/>
<path d="M332 1360 c0 -19 2 -27 5 -17 2 9 2 25 0 35 -3 9 -5 1 -5 -18z"/>
<path d="M321 1294 c0 -11 3 -14 6 -6 3 7 2 16 -1 19 -3 4 -6 -2 -5 -13z"/>
<path d="M2067 1303 c-4 -3 -7 -15 -7 -26 0 -25 13 -14 17 13 3 21 1 24 -10
13z"/>
<path d="M1731 1296 c12 -10 60 -16 54 -6 -3 5 -18 10 -32 10 -15 0 -24 -2
-22 -4z"/>
<path d="M340 1275 c0 -8 2 -15 4 -15 2 0 6 7 10 15 3 8 1 15 -4 15 -6 0 -10
-7 -10 -15z"/>
<path d="M1662 1281 c-11 -7 -11 -9 2 -14 9 -4 16 -2 16 3 0 5 8 11 18 13 14
4 14 5 -3 6 -11 0 -26 -3 -33 -8z"/>
<path d="M2090 1266 c0 -8 5 -18 10 -21 6 -3 10 1 10 9 0 8 -4 18 -10 21 -5 3
-10 -1 -10 -9z"/>
<path d="M2231 1254 c0 -11 3 -14 6 -6 3 7 2 16 -1 19 -3 4 -6 -2 -5 -13z"/>
<path d="M2050 1229 c0 -11 4 -18 10 -14 5 3 7 12 3 20 -7 21 -13 19 -13 -6z"/>
<path d="M2081 1224 c0 -11 3 -14 6 -6 3 7 2 16 -1 19 -3 4 -6 -2 -5 -13z"/>
<path d="M351 1214 c0 -11 3 -14 6 -6 3 7 2 16 -1 19 -3 4 -6 -2 -5 -13z"/>
<path d="M1230 1215 c7 -8 22 -14 34 -14 17 1 17 2 4 6 -10 2 -18 9 -18 14 0
5 -7 9 -16 9 -14 0 -14 -3 -4 -15z"/>
<path d="M2221 1214 c0 -11 3 -14 6 -6 3 7 2 16 -1 19 -3 4 -6 -2 -5 -13z"/>
<path d="M1148 1203 c7 -3 16 -2 19 1 4 3 -2 6 -13 5 -11 0 -14 -3 -6 -6z"/>
<path d="M1850 1162 l5 -47 3 39 c2 21 0 42 -5 47 -4 4 -6 -13 -3 -39z"/>
<path d="M1512 1160 c0 -14 2 -19 5 -12 2 6 2 18 0 25 -3 6 -5 1 -5 -13z"/>
<path d="M406 1123 c-3 -4 -6 -13 -5 -22 0 -12 3 -11 10 4 7 14 8 7 4 -25 -6
-42 -5 -44 9 -25 19 25 20 61 2 68 -8 3 -17 3 -20 0z"/>
<path d="M1010 1083 c0 -5 8 -17 17 -28 14 -18 15 -18 9 -2 -3 10 -6 23 -6 28
0 5 -4 9 -10 9 -5 0 -10 -3 -10 -7z"/>
<path d="M1388 1053 c6 -2 18 -2 25 0 6 3 1 5 -13 5 -14 0 -19 -2 -12 -5z"/>
<path d="M1851 944 c0 -11 3 -14 6 -6 3 7 2 16 -1 19 -3 4 -6 -2 -5 -13z"/>
<path d="M806 762 c-9 -15 33 -42 53 -34 14 5 13 7 -4 10 -11 3 -25 11 -31 20
-7 10 -13 11 -18 4z"/>
<path d="M376 625 c-3 -9 -6 -22 -5 -28 0 -7 5 -1 10 12 5 13 8 26 5 28 -2 2
-6 -3 -10 -12z"/>
<path d="M2164 547 c3 -10 6 -21 6 -23 0 -2 9 1 20 8 11 7 20 17 20 22 0 4 -7
3 -16 -5 -13 -10 -17 -10 -26 2 -8 11 -9 10 -4 -4z"/>
<path d="M430 542 c0 -5 7 -13 16 -16 10 -4 14 -1 12 6 -5 15 -28 23 -28 10z"/>
<path d="M450 500 c0 -5 5 -10 10 -10 6 0 10 5 10 10 0 6 -4 10 -10 10 -5 0
-10 -4 -10 -10z"/>
<path d="M735 390 c-3 -5 1 -10 10 -10 9 0 13 5 10 10 -3 6 -8 10 -10 10 -2 0
-7 -4 -10 -10z"/>
<path d="M797 388 c2 -5 -1 -8 -8 -8 -7 0 -10 -2 -8 -5 3 -2 25 2 49 10 l45
14 -41 -2 c-23 -1 -40 -5 -37 -9z"/>
<path d="M1728 373 c12 -2 30 -2 40 0 9 3 -1 5 -23 4 -22 0 -30 -2 -17 -4z"/>
<path d="M1008 363 c6 -2 18 -2 25 0 6 3 1 5 -13 5 -14 0 -19 -2 -12 -5z"/>
<path d="M560 1636 c0 -2 7 -6 15 -10 8 -3 15 -1 15 4 0 6 -7 10 -15 10 -8 0
-15 -2 -15 -4z"/>
<path d="M568 1603 c6 -2 18 -2 25 0 6 3 1 5 -13 5 -14 0 -19 -2 -12 -5z"/>
<path d="M625 1570 c3 -5 8 -10 11 -10 2 0 4 5 4 10 0 6 -5 10 -11 10 -5 0 -7
-4 -4 -10z"/>
<path d="M728 1553 c7 -3 16 -2 19 1 4 3 -2 6 -13 5 -11 0 -14 -3 -6 -6z"/>
<path d="M780 1540 c8 -5 22 -10 30 -10 13 0 13 1 0 10 -8 5 -22 10 -30 10
-13 0 -13 -1 0 -10z"/>
<path d="M870 2180 c-9 -6 -10 -10 -3 -10 6 0 15 5 18 10 8 12 4 12 -15 0z"/>
<path d="M755 2019 c-4 -6 -5 -12 -2 -15 2 -3 7 2 10 11 7 17 1 20 -8 4z"/>
<path d="M690 1960 c8 -5 20 -10 25 -10 6 0 3 5 -5 10 -8 5 -19 10 -25 10 -5
0 -3 -5 5 -10z"/>
<path d="M2077 1953 c-3 -5 1 -19 9 -33 l14 -25 -6 30 c-8 35 -10 39 -17 28z"/>
<path d="M720 1935 c0 -5 5 -17 10 -25 5 -8 10 -10 10 -5 0 6 -5 17 -10 25 -5
8 -10 11 -10 5z"/>
<path d="M2115 1840 c3 -5 8 -10 11 -10 2 0 4 5 4 10 0 6 -5 10 -11 10 -5 0
-7 -4 -4 -10z"/>
<path d="M2185 1790 c3 -5 8 -10 11 -10 2 0 4 5 4 10 0 6 -5 10 -11 10 -5 0
-7 -4 -4 -10z"/>
<path d="M2330 1535 c0 -5 5 -17 10 -25 5 -8 10 -10 10 -5 0 6 -5 17 -10 25
-5 8 -10 11 -10 5z"/>
<path d="M211 1494 c0 -11 3 -14 6 -6 3 7 2 16 -1 19 -3 4 -6 -2 -5 -13z"/>
<path d="M235 1430 c3 -5 8 -10 11 -10 2 0 4 5 4 10 0 6 -5 10 -11 10 -5 0 -7
-4 -4 -10z"/>
<path d="M2341 1404 c0 -11 3 -14 6 -6 3 7 2 16 -1 19 -3 4 -6 -2 -5 -13z"/>
<path d="M262 1065 c0 -16 2 -22 5 -12 2 9 2 23 0 30 -3 6 -5 -1 -5 -18z"/>
<path d="M273 900 c0 -36 2 -50 4 -32 2 17 2 47 0 65 -2 17 -4 3 -4 -33z"/>
<path d="M2301 624 c0 -11 3 -14 6 -6 3 7 2 16 -1 19 -3 4 -6 -2 -5 -13z"/>
<path d="M2277 533 c-4 -3 -7 -11 -7 -17 0 -6 5 -5 12 2 6 6 9 14 7 17 -3 3
-9 2 -12 -2z"/>
<path d="M2180 419 c0 -5 5 -7 10 -4 6 3 10 8 10 11 0 2 -4 4 -10 4 -5 0 -10
-5 -10 -11z"/>
<path d="M518 373 c7 -3 16 -2 19 1 4 3 -2 6 -13 5 -11 0 -14 -3 -6 -6z"/>
<path d="M630 340 c-12 -8 -10 -10 8 -10 13 0 20 4 17 10 -7 12 -6 12 -25 0z"/>
<path d="M1968 333 c7 -3 16 -2 19 1 4 3 -2 6 -13 5 -11 0 -14 -3 -6 -6z"/>
<path d="M858 293 c7 -3 16 -2 19 1 4 3 -2 6 -13 5 -11 0 -14 -3 -6 -6z"/>
<path d="M933 283 c9 -2 25 -2 35 0 9 3 1 5 -18 5 -19 0 -27 -2 -17 -5z"/>
<path d="M1668 283 c12 -2 32 -2 45 0 12 2 2 4 -23 4 -25 0 -35 -2 -22 -4z"/>
<path d="M1298 273 c12 -2 32 -2 45 0 12 2 2 4 -23 4 -25 0 -35 -2 -22 -4z"/>
<path d="M888 2313 c7 -3 16 -2 19 1 4 3 -2 6 -13 5 -11 0 -14 -3 -6 -6z"/>
<path d="M1728 2313 c7 -3 16 -2 19 1 4 3 -2 6 -13 5 -11 0 -14 -3 -6 -6z"/>
<path d="M925 2300 c-18 -8 -17 -9 8 -9 15 -1 27 4 27 9 0 12 -8 12 -35 0z"/>
<path d="M1676 2302 c-3 -5 1 -9 9 -9 8 0 15 4 15 9 0 4 -4 8 -9 8 -6 0 -12
-4 -15 -8z"/>
<path d="M1905 2200 c-3 -5 -1 -10 4 -10 6 0 11 5 11 10 0 6 -2 10 -4 10 -3 0
-8 -4 -11 -10z"/>
<path d="M623 2073 c9 -2 25 -2 35 0 9 3 1 5 -18 5 -19 0 -27 -2 -17 -5z"/>
<path d="M560 2060 c0 -5 7 -7 15 -4 8 4 15 8 15 10 0 2 -7 4 -15 4 -8 0 -15
-4 -15 -10z"/>
<path d="M2110 2060 c0 -5 5 -10 10 -10 6 0 10 5 10 10 0 6 -4 10 -10 10 -5 0
-10 -4 -10 -10z"/>
<path d="M615 2050 c3 -5 23 -10 43 -10 28 0 33 3 22 10 -20 13 -73 13 -65 0z"/>
<path d="M2140 2019 c0 -5 5 -7 10 -4 6 3 10 8 10 11 0 2 -4 4 -10 4 -5 0 -10
-5 -10 -11z"/>
<path d="M2220 1900 c0 -5 5 -10 10 -10 6 0 10 5 10 10 0 6 -4 10 -10 10 -5 0
-10 -4 -10 -10z"/>
<path d="M263 1833 c-15 -6 -17 -33 -3 -33 6 0 10 6 10 14 0 8 6 17 13 19 6 3
8 5 2 5 -5 0 -16 -2 -22 -5z"/>
<path d="M2306 1777 c3 -10 9 -15 12 -12 3 3 0 11 -7 18 -10 9 -11 8 -5 -6z"/>
<path d="M165 1750 c-3 -5 -1 -10 4 -10 6 0 11 5 11 10 0 6 -2 10 -4 10 -3 0
-8 -4 -11 -10z"/>
<path d="M200 1745 c-7 -9 -11 -18 -8 -20 3 -3 11 1 18 10 7 9 11 18 8 20 -3
3 -11 -1 -18 -10z"/>
<path d="M2391 1664 c0 -11 3 -14 6 -6 3 7 2 16 -1 19 -3 4 -6 -2 -5 -13z"/>
<path d="M162 1335 c0 -16 2 -22 5 -12 2 9 2 23 0 30 -3 6 -5 -1 -5 -18z"/>
<path d="M182 1305 c0 -16 2 -22 5 -12 2 9 2 23 0 30 -3 6 -5 -1 -5 -18z"/>
<path d="M180 1082 l5 -47 3 39 c2 21 0 42 -5 47 -4 4 -6 -13 -3 -39z"/>
<path d="M172 990 c0 -19 2 -27 5 -17 2 9 2 25 0 35 -3 9 -5 1 -5 -18z"/>
<path d="M182 925 c0 -16 2 -22 5 -12 2 9 2 23 0 30 -3 6 -5 -1 -5 -18z"/>
<path d="M2377 571 c-4 -19 -5 -36 -2 -39 10 -11 16 7 13 40 l-3 33 -8 -34z"/>
<path d="M245 480 c-3 -5 -1 -10 4 -10 6 0 11 5 11 10 0 6 -2 10 -4 10 -3 0
-8 -4 -11 -10z"/>
<path d="M410 340 c0 -5 5 -10 10 -10 6 0 10 5 10 10 0 6 -4 10 -10 10 -5 0
-10 -4 -10 -10z"/>
<path d="M2028 258 c9 -9 15 -9 24 0 9 9 7 12 -12 12 -19 0 -21 -3 -12 -12z"/>
<path d="M1965 250 c-16 -7 -14 -8 12 -7 17 1 29 5 26 10 -5 9 -12 8 -38 -3z"/>
<path d="M1205 190 c-3 -5 1 -10 9 -10 9 0 16 5 16 10 0 6 -4 10 -9 10 -6 0
-13 -4 -16 -10z"/>
<path d="M1448 193 c7 -3 16 -2 19 1 4 3 -2 6 -13 5 -11 0 -14 -3 -6 -6z"/>
<path d="M1128 183 c7 -3 16 -2 19 1 4 3 -2 6 -13 5 -11 0 -14 -3 -6 -6z"/>
<path d="M1373 183 c9 -2 25 -2 35 0 9 3 1 5 -18 5 -19 0 -27 -2 -17 -5z"/>
<path d="M1198 163 c18 -2 45 -2 60 0 15 2 0 4 -33 4 -33 0 -45 -2 -27 -4z"/>
<path d="M1498 163 c7 -3 16 -2 19 1 4 3 -2 6 -13 5 -11 0 -14 -3 -6 -6z"/>
</g>
</svg>
