<?xml version="1.0" standalone="no"?>
<!DOCTYPE svg PUBLIC "-//W3C//DTD SVG 20010904//EN"
 "http://www.w3.org/TR/2001/REC-SVG-20010904/DTD/svg10.dtd">
<svg version="1.0" xmlns="http://www.w3.org/2000/svg"
 width="110.000000pt" height="99.000000pt" viewBox="0 0 110.000000 99.000000"
 preserveAspectRatio="xMidYMid meet">
<metadata>
Created by potrace 1.16, written by Peter Selinger 2001-2019
</metadata>
<g transform="translate(0.000000,99.000000) scale(0.100000,-0.100000)"
fill="#000000" stroke="none">
<path d="M60 495 l0 -445 495 0 495 0 0 445 0 445 -495 0 -495 0 0 -445z m721
407 c24 -12 64 -40 88 -62 23 -22 47 -40 51 -40 16 0 81 -62 97 -94 14 -25 17
-58 15 -181 -3 -202 -14 -255 -66 -318 -42 -50 -62 -64 -131 -90 -109 -40
-162 -50 -270 -50 -130 1 -189 15 -326 80 -80 38 -99 51 -113 79 -9 19 -16 40
-16 46 0 6 -7 19 -16 29 -13 14 -16 48 -15 204 l0 187 27 40 c51 73 121 118
260 168 65 23 86 25 221 24 131 0 154 -3 194 -22z m-496 -5 c-83 -36 -142 -75
-174 -114 l-31 -38 0 88 0 87 128 0 127 -1 -50 -22z m745 -63 l0 -86 -40 36
c-22 20 -44 36 -50 36 -5 0 -22 12 -38 28 -15 15 -41 37 -58 49 l-29 22 108 1
107 0 0 -86z m-923 -625 c13 -32 27 -42 111 -82 54 -25 104 -48 112 -50 8 -3
-45 -6 -117 -6 l-133 -1 1 103 c0 56 3 95 5 87 3 -8 12 -31 21 -51z m923 -54
l0 -85 -127 1 c-84 1 -118 4 -98 9 95 25 149 59 192 120 15 22 29 40 31 40 1
0 2 -38 2 -85z"/>
<path d="M515 884 c-88 -22 -249 -87 -287 -117 -18 -14 -23 -52 -12 -82 7 -16
59 -47 104 -60 l25 -7 -22 16 c-26 19 -43 72 -36 110 13 68 96 104 258 113
119 6 197 -12 251 -59 30 -26 34 -36 34 -78 0 -71 -30 -99 -181 -173 -44 -21
-46 -24 -42 -54 5 -28 3 -33 -14 -33 -12 0 -27 13 -39 35 -16 30 -23 35 -56
35 -26 0 -38 -5 -38 -14 0 -7 -13 -19 -30 -26 -48 -20 -37 -35 23 -32 72 5
119 -16 156 -70 46 -67 72 -98 80 -98 4 0 20 41 35 92 22 74 35 99 66 130 45
46 72 48 111 9 l29 -29 0 36 c0 57 10 82 36 88 l23 6 -21 41 -21 41 -16 -34
c-10 -23 -23 -35 -36 -35 -17 0 -20 7 -21 48 -3 80 -72 155 -168 182 -58 16
-161 26 -191 19z m-250 -164 c0 -46 -10 -51 -27 -15 -10 21 -8 28 8 40 10 8
19 15 19 15 0 0 0 -18 0 -40z m623 -110 c25 0 29 -3 25 -23 -4 -22 -9 -24 -54
-19 -46 4 -51 2 -88 -35 -31 -31 -45 -57 -62 -116 -13 -42 -26 -77 -30 -77 -3
0 -20 23 -37 50 -17 28 -27 50 -22 50 6 0 10 15 10 33 0 29 6 36 43 55 107 57
140 77 155 98 16 21 17 21 24 3 5 -13 17 -19 36 -19z m-364 -115 c4 -11 -1
-15 -19 -15 -16 0 -25 6 -25 15 0 8 9 15 19 15 10 0 21 -7 25 -15z"/>
<path d="M477 793 c-4 -3 -7 -13 -7 -21 0 -9 -6 -23 -14 -31 -13 -14 -6 -16
74 -16 100 0 125 11 97 43 -9 10 -14 22 -10 25 3 4 -25 7 -64 7 -38 0 -73 -3
-76 -7z m116 -27 c8 -20 -23 -29 -68 -20 -34 6 -42 14 -28 27 13 14 91 7 96
-7z"/>
<path d="M698 743 c-4 -52 -39 -74 -125 -80 -74 -5 -123 8 -123 32 0 12 -4 13
-19 6 -28 -16 -56 9 -47 42 7 31 4 33 -18 11 -31 -31 -20 -62 32 -88 30 -16
42 -26 32 -29 -8 -3 -28 -10 -45 -15 -28 -8 -26 -10 36 -20 85 -15 96 -15 103
3 8 22 37 18 43 -5 7 -26 32 -19 87 21 22 16 45 29 52 29 23 0 64 42 64 65 0
22 -41 65 -61 65 -4 0 -9 -16 -11 -37z m41 -16 c8 -11 7 -18 -7 -30 -18 -16
-18 -15 -14 13 5 34 6 35 21 17z m-236 -104 c-3 -8 -12 -12 -20 -9 -8 3 -17 6
-19 6 -2 0 -4 6 -4 14 0 9 8 12 24 9 16 -4 23 -10 19 -20z m117 7 c-18 -13
-27 -15 -32 -7 -6 10 7 17 52 26 3 0 -6 -8 -20 -19z"/>
<path d="M132 653 c-13 -32 -15 -54 -13 -136 1 -53 3 -58 21 -52 22 7 54 -7
91 -42 17 -16 29 -21 33 -14 4 6 25 11 46 11 21 0 42 4 45 10 3 6 1 10 -4 10
-23 0 -11 58 17 82 l28 23 -75 19 c-89 21 -132 45 -159 87 l-19 30 -11 -28z
m142 -103 c42 -10 55 -17 51 -28 -3 -7 -5 -29 -5 -48 0 -31 -3 -34 -30 -34
-16 0 -46 11 -66 25 -20 14 -47 25 -60 25 -23 0 -24 3 -24 65 l0 65 39 -28
c21 -16 64 -34 95 -42z"/>
<path d="M825 468 c-9 -13 -29 -67 -46 -121 -32 -102 -44 -117 -96 -117 -32 0
-60 26 -112 102 -17 26 -41 53 -53 59 -27 15 -104 6 -127 -15 -9 -9 -32 -19
-50 -22 -31 -7 -32 -7 -25 -50 8 -56 -14 -94 -54 -95 -23 -1 -20 -4 23 -24 28
-12 65 -26 83 -30 32 -7 33 -6 23 13 -16 30 -14 82 4 88 23 9 42 -12 59 -63
21 -61 42 -83 80 -83 54 0 241 47 292 73 89 46 144 124 144 205 0 19 -5 22
-35 22 -29 0 -39 6 -61 40 -15 22 -28 40 -30 40 -1 0 -10 -10 -19 -22z m92
-78 c30 0 34 -3 29 -20 -3 -11 -9 -30 -12 -42 -10 -38 -83 -105 -143 -131 -31
-14 -102 -35 -159 -47 -98 -21 -104 -21 -122 -5 -11 10 -26 39 -35 65 -20 59
-34 72 -77 68 -32 -3 -33 -5 -36 -51 -3 -43 -5 -46 -23 -37 -15 9 -17 15 -9
30 5 10 10 39 10 64 0 41 2 45 29 51 16 3 35 12 41 20 16 20 65 28 89 16 11
-6 35 -33 52 -59 60 -88 77 -102 132 -102 73 0 83 9 112 108 15 48 32 96 37
106 10 19 12 18 30 -7 15 -20 28 -27 55 -27z"/>
<path d="M167 383 c-24 -23 4 -123 43 -158 l22 -20 -21 35 c-13 22 -21 52 -21
80 0 46 -11 76 -23 63z"/>
</g>
</svg>
