<?xml version="1.0" standalone="no"?>
<!DOCTYPE svg PUBLIC "-//W3C//DTD SVG 20010904//EN"
 "http://www.w3.org/TR/2001/REC-SVG-20010904/DTD/svg10.dtd">
<svg version="1.0" xmlns="http://www.w3.org/2000/svg"
 width="50.000000pt" height="50.000000pt" viewBox="0 0 50.000000 50.000000"
 preserveAspectRatio="xMidYMid meet">
<metadata>
Created by potrace 1.16, written by Peter Selinger 2001-2019
</metadata>
<g transform="translate(0.000000,50.000000) scale(0.100000,-0.100000)"
fill="#000000" stroke="none">
<path d="M144 488 c-12 -5 -27 -21 -33 -34 -6 -13 -19 -24 -30 -24 -11 0 -33
-11 -49 -25 l-30 -25 2 -166 1 -167 28 -21 c26 -19 44 -21 211 -24 219 -4 256
5 255 60 0 30 -1 31 -9 10 -14 -34 -67 -51 -177 -58 -134 -9 -237 9 -275 46
-27 27 -28 33 -27 117 1 87 4 87 23 0 5 -22 12 -27 35 -27 16 0 32 6 34 13 3
6 8 -3 12 -20 7 -29 11 -33 40 -33 30 0 33 3 38 41 7 50 32 83 43 56 9 -25 70
-23 84 3 6 11 19 20 30 20 15 0 19 -8 22 -47 3 -46 4 -48 33 -48 27 0 30 3 33
38 3 31 7 37 27 37 27 0 35 24 34 112 0 38 -5 61 -16 69 -8 7 -19 24 -24 36
-5 13 -21 28 -36 33 -16 6 -40 17 -55 25 -31 18 -190 20 -224 3z m190 -33 c15
-7 17 -5 11 6 -7 11 -6 12 6 3 8 -6 21 -14 29 -18 8 -3 5 -4 -7 -2 -12 2 -24
-1 -25 -6 -5 -13 -107 -16 -107 -3 0 6 12 9 26 8 20 -2 23 1 15 9 -16 16 -66
-2 -70 -23 -6 -30 76 -39 134 -14 26 11 41 12 55 5 28 -16 23 -26 -20 -38 -91
-28 -221 -5 -221 38 0 41 107 62 174 35z m-192 -30 c-6 -28 -10 -30 -37 -24
-24 5 -25 7 -7 8 14 1 27 11 34 26 14 32 18 28 10 -10z m300 -23 c13 -25 14
-30 3 -25 -8 3 -15 13 -15 24 0 10 -8 23 -17 29 -11 7 -12 10 -3 7 7 -2 22
-17 32 -35z m-382 -22 c-6 -11 -16 -20 -22 -20 -6 0 -3 9 7 20 10 11 20 20 22
20 2 0 -1 -9 -7 -20z m121 -38 c59 -11 142 -8 208 8 52 12 55 12 73 -10 19
-23 22 -49 12 -87 -8 -28 -24 -30 -24 -3 0 11 -4 20 -10 20 -11 0 -18 -27 -22
-80 -4 -54 -23 -41 -26 18 l-3 52 -34 0 c-26 0 -39 -6 -51 -25 -20 -30 -35
-32 -52 -5 -7 11 -19 20 -26 20 -24 0 -56 -50 -56 -86 0 -50 -26 -44 -34 7 -4
23 -12 51 -18 62 -10 20 -11 20 -24 2 -8 -10 -14 -29 -14 -42 0 -44 -17 -23
-40 52 -19 62 -21 77 -10 90 12 14 15 14 35 -5 24 -22 110 -41 141 -30 12 5 2
9 -34 14 -61 8 -118 48 -92 65 10 7 21 5 35 -9 12 -11 41 -24 66 -28z"/>
</g>
</svg>
