<?xml version="1.0" standalone="no"?>
<!DOCTYPE svg PUBLIC "-//W3C//DTD SVG 20010904//EN"
 "http://www.w3.org/TR/2001/REC-SVG-20010904/DTD/svg10.dtd">
<svg version="1.0" xmlns="http://www.w3.org/2000/svg"
 width="192.000000pt" height="192.000000pt" viewBox="0 0 192.000000 192.000000"
 preserveAspectRatio="xMidYMid meet">
<metadata>
Created by potrace 1.16, written by Peter Selinger 2001-2019
</metadata>
<g transform="translate(0.000000,192.000000) scale(0.100000,-0.100000)"
fill="#000000" stroke="none">
<path d="M895 1279 c-72 -53 -119 -59 -445 -59 l-295 0 -55 -28 c-62 -32 -100
-80 -100 -126 l0 -31 21 40 c30 57 44 70 103 99 l53 26 294 0 c326 0 371 6
447 60 l43 30 45 -31 c78 -54 118 -59 444 -59 l295 0 55 -28 c56 -29 116 -98
108 -123 -2 -7 -13 5 -24 27 -24 46 -82 88 -141 103 -25 7 -153 11 -311 11
-299 0 -355 7 -426 51 -44 27 -50 28 -65 15 -9 -8 -39 -25 -66 -38 -48 -22
-64 -23 -375 -28 l-325 -5 -54 -30 c-42 -23 -60 -41 -80 -80 -14 -27 -28 -52
-31 -55 -9 -9 -5 -120 5 -120 5 0 4 -5 -3 -12 -19 -19 -14 -67 9 -99 11 -16
44 -43 72 -59 l52 -30 300 0 c332 0 377 -6 453 -60 54 -38 72 -38 129 1 77 54
117 59 446 59 l298 0 47 25 c61 34 102 81 102 118 0 28 -1 28 -32 -18 -20 -29
-52 -59 -83 -76 l-50 -28 -300 -1 c-331 0 -371 -5 -449 -59 l-45 -31 -43 30
c-76 54 -121 60 -453 60 l-300 0 -52 30 c-54 31 -109 98 -101 122 3 7 14 -5
26 -28 23 -46 78 -87 137 -103 23 -6 168 -12 350 -13 304 -3 311 -3 355 -27
25 -13 53 -30 62 -39 16 -13 21 -12 55 11 72 50 81 51 423 57 253 4 332 9 355
20 94 45 139 110 141 207 1 39 -3 63 -9 63 -7 0 -7 4 1 12 20 20 14 69 -12
103 -14 18 -49 44 -79 59 l-54 26 -294 0 c-325 0 -365 6 -442 59 -56 38 -80
38 -132 0z m130 -74 l60 -30 325 -5 c308 -5 327 -6 365 -27 75 -40 115 -105
115 -188 0 -75 -41 -139 -115 -178 -38 -21 -57 -22 -365 -27 l-326 -5 -62 -31
-62 -31 -62 31 -62 31 -326 5 -325 5 -48 28 c-26 15 -60 47 -75 69 -23 35 -27
52 -27 108 0 56 4 73 27 108 15 22 49 54 75 69 l48 28 330 5 330 5 55 31 c30
18 57 31 60 30 3 -1 32 -15 65 -31z"/>
<path d="M895 1181 l-50 -26 -330 -5 c-282 -4 -334 -7 -360 -22 -155 -85 -130
-301 40 -347 24 -7 150 -11 325 -11 296 0 340 -5 410 -46 28 -17 30 -17 92 12
l63 29 320 5 c228 4 329 9 350 18 119 52 154 204 67 295 -58 62 -57 62 -417
67 l-330 5 -56 28 c-31 15 -60 26 -65 26 -5 -1 -31 -14 -59 -28z m91 -15 c79
-40 140 -46 442 -46 318 0 321 -1 373 -57 38 -40 53 -94 39 -137 -10 -31 -13
-33 -35 -22 -22 10 -25 17 -25 67 0 31 -3 71 -6 88 -6 28 -10 31 -46 31 l-40
0 7 -52 7 -53 -28 26 c-83 75 -90 79 -121 79 -24 0 -33 -5 -33 -16 0 -12 -3
-14 -12 -6 -20 16 -84 25 -123 18 -19 -4 -48 -20 -65 -37 -27 -27 -30 -28 -30
-10 0 26 -22 37 -90 45 -87 11 -92 6 -85 -78 l5 -71 -37 75 c-32 63 -42 75
-63 75 -21 0 -31 -12 -62 -70 l-37 -70 -1 45 c0 63 -9 87 -31 93 -50 13 -73
-18 -48 -64 21 -41 3 -38 -44 8 -42 40 -56 48 -104 54 -80 11 -87 6 -79 -55
l7 -51 -55 54 -55 55 -61 -2 c-44 -1 -69 4 -92 18 -31 18 -30 18 223 22 249 3
255 4 314 29 33 15 60 27 61 28 0 0 14 -6 30 -13z m-766 -55 c-78 -19 -107
-73 -102 -189 3 -48 55 -100 112 -111 41 -8 42 -9 12 -10 -76 -2 -151 63 -166
144 -12 67 79 177 143 174 l26 -1 -25 -7z m137 -47 c16 -22 17 -56 1 -72 -17
-17 -63 -15 -78 3 -11 13 -8 14 18 9 24 -5 32 -2 41 15 9 17 8 24 -9 41 -23
23 -57 26 -95 8 -59 -27 -75 -133 -29 -187 22 -27 33 -31 73 -31 26 0 56 7 69
16 28 20 43 10 16 -11 -44 -34 -131 -31 -178 6 -79 62 -43 207 56 228 43 9 99
-3 115 -25z m1290 -76 l83 -83 0 63 c0 35 -5 72 -10 83 -9 16 -7 19 9 19 18 0
20 -8 23 -110 2 -67 -1 -110 -7 -110 -5 0 -47 37 -92 82 l-83 83 0 -71 c0 -41
5 -75 12 -82 9 -9 7 -12 -10 -12 -21 0 -22 4 -22 94 0 52 -3 101 -6 110 -14
37 25 11 103 -66z m-1207 -33 c0 -93 -2 -105 -17 -105 -16 0 -18 12 -18 105 0
93 2 105 18 105 15 0 17 -12 17 -105z m130 30 l75 -75 3 55 c2 30 -2 64 -8 75
-9 17 -8 20 10 20 20 0 21 -5 19 -105 -1 -58 -4 -105 -7 -105 -4 0 -42 35 -85
78 l-79 77 4 -77 c2 -58 0 -78 -9 -78 -10 0 -13 24 -13 89 0 49 -3 96 -6 105
-14 35 25 12 96 -59z m222 -2 l78 -78 0 66 c0 37 -5 70 -12 77 -9 9 -7 12 9
12 21 0 22 -5 25 -105 2 -64 -1 -105 -7 -105 -5 0 -45 35 -87 77 l-78 78 0
-66 c0 -37 5 -70 12 -77 9 -9 7 -12 -9 -12 -21 0 -22 5 -25 105 -2 64 1 105 7
105 5 0 45 -35 87 -77z m283 -28 c40 -83 47 -105 34 -105 -17 0 -36 18 -54 52
-7 14 -21 21 -47 23 -33 2 -38 -1 -54 -37 -9 -21 -23 -38 -30 -38 -9 0 4 36
38 105 29 58 55 105 58 105 3 0 28 -48 55 -105z m173 89 c26 -18 28 -41 5 -66
-14 -15 -14 -18 -1 -18 8 0 23 -9 33 -20 23 -25 13 -63 -20 -78 -29 -13 -94
-16 -112 -4 -7 4 -13 44 -15 105 l-3 97 45 0 c25 0 56 -7 68 -16z m249 -8 c24
-21 28 -32 28 -76 0 -46 -4 -55 -33 -81 -43 -38 -98 -40 -140 -4 -54 45 -49
128 10 169 35 25 102 20 135 -8z m-1187 4 c0 -5 -11 -10 -25 -10 -21 0 -25 -5
-25 -29 0 -40 21 -54 75 -49 44 3 45 2 45 -26 0 -16 -3 -27 -6 -23 -3 3 -23
-3 -42 -14 -48 -25 -68 -24 -97 6 -51 50 -20 155 46 155 16 0 29 -4 29 -10z
m362 -210 c86 -9 91 -6 84 50 l-7 49 51 -49 c51 -49 77 -59 133 -51 21 2 33
13 45 37 15 33 52 48 52 21 0 -7 9 -22 19 -34 29 -31 178 -41 230 -16 34 17
40 17 60 4 33 -21 130 -20 164 3 22 15 27 16 27 3 0 -17 31 -27 61 -20 19 5
20 11 14 57 l-7 51 54 -52 c35 -35 62 -53 78 -53 19 0 21 -3 12 -12 -10 -10
-96 -14 -330 -19 -298 -5 -321 -7 -377 -28 -75 -28 -78 -28 -145 0 -52 21 -73
23 -335 28 -208 5 -268 8 -235 15 25 5 74 10 110 12 36 1 74 3 84 3 17 1 18 7
13 53 l-7 52 50 -49 c44 -43 56 -50 102 -55z m1128 34 c0 -8 -7 -14 -15 -14
-15 0 -21 21 -9 33 10 9 24 -2 24 -19z"/>
<path d="M993 970 c-11 -29 -10 -30 19 -30 20 0 28 4 24 13 -3 6 -9 20 -12 30
-9 25 -18 21 -31 -13z"/>
<path d="M1180 961 c0 -97 7 -109 55 -91 45 17 28 80 -22 80 -13 0 -23 5 -23
10 0 6 6 10 14 10 7 0 19 7 27 16 16 19 3 43 -29 55 -22 8 -22 7 -22 -80z m47
-54 c-6 -20 -27 -19 -27 2 0 14 5 19 15 14 9 -3 14 -10 12 -16z"/>
<path d="M1375 1025 c-19 -18 -25 -35 -25 -67 1 -57 27 -91 70 -91 45 0 70 32
70 90 0 49 -33 93 -70 93 -11 0 -32 -11 -45 -25z m69 -21 c23 -22 20 -77 -4
-99 -19 -17 -21 -17 -40 0 -24 22 -26 72 -3 97 20 22 27 22 47 2z"/>
</g>
</svg>
