<?xml version="1.0" standalone="no"?>
<!DOCTYPE svg PUBLIC "-//W3C//DTD SVG 20010904//EN"
 "http://www.w3.org/TR/2001/REC-SVG-20010904/DTD/svg10.dtd">
<svg version="1.0" xmlns="http://www.w3.org/2000/svg"
 width="192.000000pt" height="192.000000pt" viewBox="0 0 192.000000 192.000000"
 preserveAspectRatio="xMidYMid meet">
<metadata>
Created by potrace 1.16, written by Peter Selinger 2001-2019
</metadata>
<g transform="translate(0.000000,192.000000) scale(0.100000,-0.100000)"
fill="#000000" stroke="none">
<path d="M850 1670 c0 -5 5 -10 10 -10 6 0 10 5 10 10 0 6 -4 10 -10 10 -5 0
-10 -4 -10 -10z"/>
<path d="M640 1662 c0 -4 18 -6 40 -4 22 2 40 6 40 8 0 2 -18 4 -40 4 -22 0
-40 -3 -40 -8z"/>
<path d="M760 1652 c0 -6 -8 -8 -19 -5 -10 3 -22 0 -25 -6 -4 -6 -19 -11 -33
-11 -14 0 -53 -7 -87 -16 -33 -9 -97 -17 -141 -17 -44 0 -66 -3 -50 -5 48 -6
49 -18 3 -32 -24 -7 -52 -18 -63 -24 -23 -12 -28 -13 -55 -15 -11 0 -19 -7
-18 -13 2 -7 -7 -14 -20 -16 -12 -2 -27 -12 -32 -23 -8 -14 -17 -18 -35 -13
-15 4 -25 2 -25 -5 0 -6 5 -11 11 -11 5 0 8 -4 4 -10 -3 -5 -11 -7 -18 -4 -7
2 -18 -9 -25 -26 -8 -16 -19 -30 -26 -30 -6 0 -27 -33 -46 -72 -26 -57 -34
-86 -34 -135 -1 -35 -4 -63 -8 -63 -5 0 -8 -9 -8 -19 0 -14 5 -18 18 -14 15 3
23 -6 36 -41 10 -25 23 -46 29 -46 7 0 6 -4 -3 -10 -13 -9 -13 -10 1 -10 19 0
62 -57 54 -70 -3 -6 1 -10 9 -10 10 0 13 6 9 18 -5 13 1 11 23 -8 16 -14 31
-28 34 -31 3 -3 13 -8 23 -12 9 -4 16 -12 15 -19 -2 -7 13 -15 37 -18 22 -4
54 -14 71 -23 17 -9 34 -13 37 -10 4 3 9 -2 13 -11 4 -10 18 -16 38 -17 25 0
27 -2 12 -8 -19 -7 -19 -8 3 -14 l22 -5 -3 -195 c-3 -189 -2 -195 17 -194 11
0 73 -1 137 -3 64 -1 122 1 128 5 7 4 16 1 21 -6 5 -8 9 65 9 180 0 172 2 192
16 187 9 -3 21 -6 27 -7 7 0 3 -4 -8 -9 -17 -7 -15 -9 13 -9 17 -1 32 4 32 10
0 6 21 9 53 8 28 0 89 2 134 6 l82 8 -2 -157 c-1 -134 -3 -156 -16 -156 -13
-1 -13 -2 2 -11 9 -5 17 -18 17 -28 0 -10 11 -23 25 -29 32 -15 187 -16 238
-1 43 12 39 -19 40 286 l1 203 25 -2 c50 -3 91 2 91 12 0 10 -56 8 -67 -3 -13
-13 -25 -7 -14 7 7 8 28 17 47 21 19 3 38 13 41 21 3 7 9 14 15 14 5 0 21 12
35 28 17 18 27 23 30 15 3 -7 9 -13 15 -13 6 0 8 6 5 14 -7 16 27 51 41 42 5
-3 12 4 16 17 5 18 8 20 16 7 8 -12 10 -12 10 5 0 11 12 31 25 44 14 13 25 18
25 12 0 -6 5 -11 11 -11 6 0 9 9 6 20 -3 11 -2 20 3 20 4 0 15 15 25 33 51 96
53 99 58 80 3 -10 5 7 6 36 l1 55 -31 -50 c-65 -102 -225 -274 -256 -274 -6 0
-16 -6 -20 -13 -11 -17 -78 -59 -140 -88 -29 -13 -53 -28 -53 -34 -1 -5 -2
-115 -3 -243 l-2 -233 -110 0 c-60 0 -114 0 -120 0 -14 1 -7 372 7 388 13 16
-32 18 -82 3 -19 -6 -105 -11 -190 -10 l-155 0 3 -183 3 -182 -121 1 -121 1 0
193 c0 107 -5 202 -10 212 -5 10 -20 18 -32 18 -23 0 -124 35 -142 50 -5 4
-20 11 -33 15 -29 8 -142 86 -142 97 0 4 -7 8 -15 8 -8 0 -15 7 -15 15 0 7 -6
18 -14 22 -7 4 -24 28 -37 53 -33 64 -33 168 2 227 47 82 144 165 259 220 62
31 221 79 305 93 39 7 81 15 95 19 40 11 123 7 127 -6 3 -7 -15 -13 -49 -16
-131 -13 -320 -66 -348 -96 -3 -4 -18 -13 -34 -21 -42 -22 -91 -70 -115 -113
-52 -94 -8 -189 132 -278 62 -41 78 -35 65 23 -7 31 -6 253 1 253 1 0 55 0
121 0 l121 0 -1 -183 c-1 -101 1 -186 4 -190 13 -12 45 -15 226 -19 l185 -4
-2 113 c-2 62 -4 148 -6 191 l-2 77 122 0 123 0 -3 -170 c-2 -115 0 -170 7
-170 14 1 118 35 142 48 10 5 54 26 96 47 42 21 102 60 133 88 52 46 125 144
125 167 0 16 -40 11 -45 -5 -16 -51 -17 -51 -26 -30 -9 18 -9 18 -5 -3 3 -18
-7 -35 -42 -70 -25 -26 -49 -47 -52 -47 -4 0 -14 -8 -24 -18 -23 -23 -34 -22
-39 6 -3 16 -5 14 -6 -9 -1 -26 -8 -35 -35 -48 -19 -9 -41 -16 -49 -16 -9 0
-18 -4 -21 -9 -3 -4 -17 -6 -31 -3 -25 4 -36 -13 -12 -21 6 -2 -6 -9 -27 -15
-22 -6 -42 -9 -45 -6 -3 3 -8 73 -9 155 -4 178 3 170 -150 168 -134 -1 -146
-6 -152 -54 -5 -37 -6 -38 -17 -20 -10 16 -12 17 -13 4 0 -9 7 -19 15 -23 12
-4 15 -28 15 -125 l0 -120 -36 -7 c-20 -4 -76 -4 -123 -2 -59 4 -75 3 -51 -3
19 -5 72 -8 118 -7 80 1 103 -4 88 -19 -13 -14 -226 -16 -226 -3 0 6 -10 11
-22 10 -13 -1 -34 -2 -48 -1 -20 1 -22 3 -10 11 11 8 8 9 -12 4 l-28 -6 0 175
c0 108 -4 178 -10 182 -6 4 -8 9 -6 13 5 9 -216 15 -254 7 -18 -4 -27 -11 -23
-18 4 -6 0 -8 -10 -4 -9 3 -19 2 -22 -3 -4 -6 -2 -10 3 -10 5 0 9 -57 10 -127
0 -71 -3 -119 -7 -109 -5 14 -10 16 -15 8 -5 -9 -14 -6 -32 10 -29 28 -31 42
-4 33 11 -4 20 -2 20 4 0 15 -47 14 -53 -1 -4 -9 -6 -7 -6 3 -1 9 -10 27 -22
40 -17 19 -20 33 -16 68 3 24 11 47 18 52 8 4 14 14 14 21 1 7 6 12 13 10 7
-1 12 4 12 11 0 18 38 48 58 45 10 -2 16 3 14 11 -2 9 5 12 23 9 26 -5 35 6
13 15 -7 3 -3 6 10 6 12 1 22 6 22 13 0 6 13 -1 29 -16 16 -16 37 -26 48 -24
14 3 11 7 -14 18 -36 16 -44 40 -14 40 11 0 23 5 26 10 3 6 19 10 36 10 16 0
29 5 29 11 0 8 5 8 15 -1 10 -9 15 -9 15 -1 0 6 18 11 43 11 31 0 38 -3 27
-10 -9 -6 -10 -10 -3 -10 6 0 15 5 18 10 3 6 16 11 28 11 14 1 9 4 -13 9 l-35
7 32 2 c77 3 110 44 61 75 -29 17 -118 31 -118 18z"/>
<path d="M350 1571 c0 -10 26 -9 36 2 4 4 -2 7 -14 7 -12 0 -22 -4 -22 -9z"/>
<path d="M553 1450 c2 -8 12 -16 23 -17 13 -2 15 -1 4 4 -8 3 -19 11 -23 17
-6 7 -7 6 -4 -4z"/>
<path d="M728 1433 c6 -2 18 -2 25 0 6 3 1 5 -13 5 -14 0 -19 -2 -12 -5z"/>
<path d="M280 1410 c-14 -11 -19 -20 -12 -20 6 0 21 9 32 20 26 26 13 26 -20
0z"/>
<path d="M96 1411 c-4 -7 -5 -15 -2 -18 9 -9 19 4 14 18 -4 11 -6 11 -12 0z"/>
<path d="M538 1413 c7 -3 16 -2 19 1 4 3 -2 6 -13 5 -11 0 -14 -3 -6 -6z"/>
<path d="M720 1410 c0 -5 7 -10 16 -10 8 0 12 5 9 10 -3 6 -10 10 -16 10 -5 0
-9 -4 -9 -10z"/>
<path d="M425 1380 c-3 -5 1 -10 9 -10 9 0 16 5 16 10 0 6 -4 10 -9 10 -6 0
-13 -4 -16 -10z"/>
<path d="M215 1370 c-3 -5 -1 -10 4 -10 6 0 11 5 11 10 0 6 -2 10 -4 10 -3 0
-8 -4 -11 -10z"/>
<path d="M255 1370 c3 -5 11 -10 16 -10 6 0 7 5 4 10 -3 6 -11 10 -16 10 -6 0
-7 -4 -4 -10z"/>
<path d="M190 1320 c0 -5 7 -10 16 -10 8 0 12 5 9 10 -3 6 -10 10 -16 10 -5 0
-9 -4 -9 -10z"/>
<path d="M150 1290 c0 -5 5 -10 11 -10 5 0 7 5 4 10 -3 6 -8 10 -11 10 -2 0
-4 -4 -4 -10z"/>
<path d="M8 1253 c5 -21 7 -23 10 -9 2 10 0 22 -6 28 -6 6 -7 0 -4 -19z"/>
<path d="M1768 1273 c6 -2 18 -2 25 0 6 3 1 5 -13 5 -14 0 -19 -2 -12 -5z"/>
<path d="M140 1230 c0 -16 4 -30 8 -30 5 0 7 14 4 30 -2 17 -6 30 -8 30 -2 0
-4 -13 -4 -30z"/>
<path d="M1760 1250 c0 -5 5 -10 10 -10 6 0 10 5 10 10 0 6 -4 10 -10 10 -5 0
-10 -4 -10 -10z"/>
<path d="M250 1210 c0 -5 5 -10 11 -10 5 0 7 5 4 10 -3 6 -8 10 -11 10 -2 0
-4 -4 -4 -10z"/>
<path d="M113 1160 c0 -25 2 -35 4 -22 2 12 2 32 0 45 -2 12 -4 2 -4 -23z"/>
<path d="M1887 1143 c-4 -3 -7 -11 -7 -17 0 -6 5 -5 12 2 6 6 9 14 7 17 -3 3
-9 2 -12 -2z"/>
<path d="M327 1114 c6 -15 23 -19 23 -5 0 5 -7 11 -14 14 -10 4 -13 1 -9 -9z"/>
<path d="M322 1070 c0 -14 2 -19 5 -12 2 6 2 18 0 25 -3 6 -5 1 -5 -13z"/>
<path d="M140 1061 c0 -11 4 -22 9 -25 4 -3 6 6 3 19 -5 30 -12 33 -12 6z"/>
<path d="M363 1068 c2 -7 11 -12 21 -10 9 2 16 -2 16 -8 0 -6 5 -8 11 -4 8 4
3 12 -12 20 -30 17 -42 17 -36 2z"/>
<path d="M176 1025 c-3 -8 -1 -15 4 -15 6 0 10 7 10 15 0 8 -2 15 -4 15 -2 0
-6 -7 -10 -15z"/>
<path d="M1605 1020 c-3 -5 -1 -10 4 -10 6 0 11 5 11 10 0 6 -2 10 -4 10 -3 0
-8 -4 -11 -10z"/>
<path d="M211 1006 c-10 -12 -8 -13 8 -9 12 3 21 9 21 14 0 14 -16 11 -29 -5z"/>
<path d="M1575 990 c4 -6 11 -8 16 -5 14 9 11 15 -7 15 -8 0 -12 -5 -9 -10z"/>
<path d="M1545 960 c3 -5 8 -10 11 -10 2 0 4 5 4 10 0 6 -5 10 -11 10 -5 0 -7
-4 -4 -10z"/>
<path d="M255 950 c3 -5 8 -10 11 -10 2 0 4 5 4 10 0 6 -5 10 -11 10 -5 0 -7
-4 -4 -10z"/>
<path d="M1465 940 c-8 -13 5 -13 25 0 13 8 13 10 -2 10 -9 0 -20 -4 -23 -10z"/>
<path d="M290 929 c0 -5 5 -7 10 -4 6 3 10 8 10 11 0 2 -4 4 -10 4 -5 0 -10
-5 -10 -11z"/>
<path d="M1460 909 c0 -5 5 -7 10 -4 6 3 10 8 10 11 0 2 -4 4 -10 4 -5 0 -10
-5 -10 -11z"/>
<path d="M848 903 c12 -2 30 -2 40 0 9 3 -1 5 -23 4 -22 0 -30 -2 -17 -4z"/>
<path d="M920 895 c0 -8 5 -15 10 -15 6 0 10 7 10 15 0 8 -4 15 -10 15 -5 0
-10 -7 -10 -15z"/>
<path d="M1178 903 c7 -3 16 -2 19 1 4 3 -2 6 -13 5 -11 0 -14 -3 -6 -6z"/>
<path d="M1630 890 c0 -5 7 -10 15 -10 8 0 15 5 15 10 0 6 -7 10 -15 10 -8 0
-15 -4 -15 -10z"/>
<path d="M1133 883 c9 -2 23 -2 30 0 6 3 -1 5 -18 5 -16 0 -22 -2 -12 -5z"/>
<path d="M440 851 c0 -5 9 -7 20 -4 11 3 20 7 20 9 0 2 -9 4 -20 4 -11 0 -20
-4 -20 -9z"/>
<path d="M1585 840 c3 -5 8 -10 11 -10 2 0 4 5 4 10 0 6 -5 10 -11 10 -5 0 -7
-4 -4 -10z"/>
<path d="M756 785 c4 -8 8 -15 10 -15 2 0 4 7 4 15 0 8 -4 15 -10 15 -5 0 -7
-7 -4 -15z"/>
<path d="M830 785 c0 -8 8 -15 18 -14 10 0 12 3 4 6 -6 2 -10 9 -6 14 3 5 0 9
-5 9 -6 0 -11 -7 -11 -15z"/>
<path d="M1018 773 c7 -3 16 -2 19 1 4 3 -2 6 -13 5 -11 0 -14 -3 -6 -6z"/>
<path d="M408 733 c6 -2 18 -2 25 0 6 3 1 5 -13 5 -14 0 -19 -2 -12 -5z"/>
<path d="M861 651 c-13 -3 14 -6 59 -6 45 0 72 3 59 6 -13 4 -40 7 -59 7 -19
0 -46 -3 -59 -7z"/>
<path d="M1120 334 c0 -8 5 -12 10 -9 6 3 10 10 10 16 0 5 -4 9 -10 9 -5 0
-10 -7 -10 -16z"/>
<path d="M1533 295 c-16 -17 -17 -55 -2 -55 6 0 8 8 4 19 -4 15 -1 20 15 23
11 2 21 8 21 13 0 16 -25 16 -38 0z"/>
<path d="M1592 260 c0 -14 2 -19 5 -12 2 6 2 18 0 25 -3 6 -5 1 -5 -13z"/>
<path d="M478 63 c265 -2 699 -2 965 0 265 1 48 2 -483 2 -531 0 -748 -1 -482
-2z"/>
<path d="M0 35 c0 -13 113 -15 960 -15 847 0 960 2 960 15 0 13 -113 15 -960
15 -847 0 -960 -2 -960 -15z"/>
</g>
</svg>
