<?xml version="1.0" standalone="no"?>
<!DOCTYPE svg PUBLIC "-//W3C//DTD SVG 20010904//EN"
 "http://www.w3.org/TR/2001/REC-SVG-20010904/DTD/svg10.dtd">
<svg version="1.0" xmlns="http://www.w3.org/2000/svg"
 width="100.000000pt" height="100.000000pt" viewBox="0 0 100.000000 100.000000"
 preserveAspectRatio="xMidYMid meet">
<metadata>
Created by potrace 1.16, written by Peter Selinger 2001-2019
</metadata>
<g transform="translate(0.000000,100.000000) scale(0.100000,-0.100000)"
fill="#000000" stroke="none">
<path d="M310 985 c0 -10 -10 -15 -30 -15 -20 0 -30 -5 -30 -15 0 -10 -10 -15
-30 -15 -20 0 -30 -5 -30 -15 0 -8 -7 -15 -15 -15 -8 0 -15 -9 -15 -20 0 -11
-7 -20 -15 -20 -8 0 -15 -7 -15 -15 0 -8 -9 -15 -20 -15 -11 0 -20 -7 -20 -15
0 -8 -7 -15 -15 -15 -10 0 -15 -10 -15 -30 0 -20 -5 -30 -15 -30 -10 0 -15
-10 -15 -30 0 -20 -5 -30 -15 -30 -8 0 -15 -5 -15 -11 0 -6 10 -9 23 -7 15 2
23 11 25 28 2 14 10 29 18 33 8 4 14 17 14 27 0 19 32 60 47 60 9 0 53 45 53
54 0 14 41 46 60 46 10 0 23 6 27 14 4 8 19 16 33 18 17 2 26 10 28 26 2 12
-1 22 -7 22 -6 0 -11 -7 -11 -15z"/>
<path d="M672 978 c2 -16 11 -24 28 -26 14 -2 29 -10 33 -18 4 -8 17 -14 27
-14 19 0 60 -32 60 -47 0 -9 45 -53 54 -53 14 0 46 -41 46 -60 0 -10 6 -23 14
-27 8 -4 16 -19 18 -33 2 -17 10 -26 26 -28 12 -2 22 1 22 7 0 6 -7 11 -15 11
-10 0 -15 10 -15 30 0 20 -5 30 -15 30 -10 0 -15 10 -15 30 0 20 -5 30 -15 30
-8 0 -15 7 -15 15 0 8 -9 15 -20 15 -11 0 -20 7 -20 15 0 8 -7 15 -15 15 -8 0
-15 9 -15 20 0 11 -7 20 -15 20 -8 0 -15 7 -15 15 0 10 -10 15 -30 15 -20 0
-30 5 -30 15 0 10 -10 15 -30 15 -20 0 -30 5 -30 15 0 8 -5 15 -11 15 -6 0 -9
-10 -7 -22z"/>
<path d="M456 845 c-4 -11 -21 -15 -66 -15 -45 0 -62 -4 -66 -15 -4 -8 -12
-15 -20 -15 -8 0 -14 -7 -14 -15 0 -8 -7 -15 -15 -15 -8 0 -15 -7 -15 -15 0
-8 -7 -15 -15 -15 -8 0 -15 -7 -15 -15 0 -8 -7 -15 -15 -15 -8 0 -15 -6 -15
-14 0 -8 -7 -16 -15 -20 -11 -4 -15 -21 -15 -66 0 -45 -4 -62 -15 -66 -10 -4
-15 -20 -15 -44 0 -24 5 -40 15 -44 11 -4 15 -21 15 -66 0 -45 4 -62 15 -66 8
-4 15 -12 15 -20 0 -8 7 -14 15 -14 8 0 15 -7 15 -15 0 -8 7 -15 15 -15 8 0
15 -7 15 -15 0 -8 7 -15 15 -15 8 0 15 -7 15 -15 0 -8 6 -15 14 -15 8 0 16 -7
20 -15 4 -11 21 -15 66 -15 45 0 62 -4 66 -15 8 -20 80 -20 88 0 4 11 21 15
66 15 45 0 62 4 66 15 4 8 12 15 20 15 8 0 14 7 14 15 0 8 7 15 15 15 11 0 15
12 15 50 0 38 -4 50 -15 50 -8 0 -15 7 -15 15 0 8 -7 15 -15 15 -8 0 -15 9
-15 20 0 17 -7 20 -45 20 -34 0 -48 -5 -57 -20 -7 -11 -18 -20 -25 -20 -7 0
-13 -7 -13 -15 0 -11 -11 -15 -40 -15 -29 0 -40 4 -40 15 0 10 -11 15 -35 15
-28 0 -35 4 -35 20 0 11 -7 20 -15 20 -10 0 -15 10 -15 30 0 20 -5 30 -15 30
-11 0 -15 11 -15 40 0 29 4 40 15 40 10 0 15 11 15 35 0 24 5 35 15 35 8 0 15
7 15 15 0 10 11 15 35 15 24 0 35 5 35 15 0 11 11 15 40 15 27 0 40 -4 40 -14
0 -7 9 -16 20 -19 11 -3 20 -10 20 -16 0 -7 -29 -11 -80 -11 -64 0 -80 -3 -80
-15 0 -8 -7 -15 -15 -15 -12 0 -15 -16 -15 -80 0 -64 3 -80 15 -80 8 0 15 -7
15 -15 0 -12 16 -15 80 -15 64 0 80 3 80 15 0 8 7 15 15 15 12 0 15 16 15 80
0 64 -3 80 -15 80 -8 0 -15 7 -15 15 0 11 12 15 50 15 38 0 50 4 50 15 0 8 7
15 15 15 8 0 15 7 15 15 0 8 7 15 15 15 11 0 15 12 15 50 0 38 -4 50 -15 50
-8 0 -15 7 -15 15 0 8 -6 15 -14 15 -8 0 -16 7 -20 15 -4 11 -21 15 -66 15
-45 0 -62 4 -66 15 -4 10 -20 15 -44 15 -24 0 -40 -5 -44 -15z m62 -12 c-10
-2 -26 -2 -35 0 -10 3 -2 5 17 5 19 0 27 -2 18 -5z m102 -34 c0 -6 -7 -9 -15
-5 -8 3 -15 1 -15 -4 0 -6 23 -10 50 -10 30 0 50 -4 50 -11 0 -6 -7 -9 -15 -5
-8 3 -15 1 -15 -4 0 -6 14 -10 30 -10 27 0 30 -3 30 -30 0 -16 -5 -30 -11 -30
-6 0 -9 7 -6 15 4 8 2 17 -3 20 -6 4 -10 -3 -10 -14 0 -12 -7 -21 -15 -21 -8
0 -15 -7 -15 -15 0 -11 -12 -15 -50 -15 -27 0 -50 4 -50 10 0 5 7 7 15 4 8 -4
15 -1 15 5 0 7 -31 11 -90 11 -59 0 -90 -4 -90 -11 0 -6 7 -9 15 -5 8 3 15 1
15 -4 0 -6 -16 -10 -35 -10 -24 0 -35 -5 -35 -15 0 -8 -7 -15 -15 -15 -10 0
-15 -11 -15 -35 0 -19 -4 -35 -10 -35 -5 0 -7 7 -4 15 4 8 1 15 -5 15 -7 0
-11 -31 -11 -90 0 -59 4 -90 11 -90 6 0 9 7 5 15 -3 8 -1 15 4 15 6 0 10 -13
10 -30 0 -20 5 -30 15 -30 8 0 15 -9 15 -20 0 -16 7 -20 35 -20 19 0 35 -4 35
-10 0 -5 -7 -7 -15 -4 -8 4 -15 1 -15 -5 0 -7 31 -11 90 -11 59 0 90 4 90 11
0 6 -7 9 -15 5 -8 -3 -15 -1 -15 4 0 6 23 10 50 10 38 0 50 -4 50 -15 0 -8 7
-15 15 -15 8 0 15 -9 15 -21 0 -11 4 -18 10 -14 5 3 7 12 3 20 -3 8 0 15 6 15
6 0 11 -13 11 -30 0 -27 -3 -30 -30 -30 -16 0 -30 -4 -30 -10 0 -5 7 -7 15 -4
8 4 15 1 15 -5 0 -7 -20 -11 -50 -11 -27 0 -50 -4 -50 -10 0 -5 7 -7 15 -4 8
4 15 1 15 -5 0 -7 -40 -11 -125 -11 -82 0 -125 4 -125 11 0 6 9 8 20 4 11 -4
20 -2 20 4 0 6 -21 11 -50 11 -30 0 -50 4 -50 11 0 6 7 9 15 5 8 -3 15 -1 15
4 0 6 -13 10 -30 10 -20 0 -30 5 -30 15 0 8 -7 15 -15 15 -10 0 -15 10 -15 30
0 17 -4 30 -10 30 -5 0 -7 -7 -4 -15 4 -8 1 -15 -5 -15 -7 0 -11 20 -11 50 0
28 -4 50 -10 50 -5 0 -7 -7 -4 -15 4 -8 1 -15 -5 -15 -7 0 -11 40 -11 125 0
82 4 125 11 125 6 0 8 -9 4 -20 -4 -11 -2 -20 4 -20 6 0 11 21 11 50 0 30 4
50 11 50 6 0 9 -7 5 -15 -3 -8 -1 -15 4 -15 6 0 10 14 10 30 0 20 5 30 15 30
8 0 15 7 15 15 0 10 10 15 30 15 17 0 30 4 30 10 0 5 -7 7 -15 4 -8 -4 -15 -1
-15 5 0 7 20 11 50 11 29 0 50 5 50 11 0 6 -9 8 -20 4 -11 -4 -20 -2 -20 4 0
7 43 11 125 11 85 0 125 -4 125 -11z m37 5 c-3 -3 -12 -4 -19 -1 -8 3 -5 6 6
6 11 1 17 -2 13 -5z m33 -134 c0 -5 -5 -10 -11 -10 -5 0 -7 5 -4 10 3 6 8 10
11 10 2 0 4 -4 4 -10z m-30 -30 c0 -5 -9 -10 -20 -10 -11 0 -20 5 -20 10 0 6
9 10 20 10 11 0 20 -4 20 -10z m-100 -65 c0 -8 7 -15 15 -15 12 0 15 -13 15
-60 0 -47 -3 -60 -15 -60 -8 0 -15 -7 -15 -15 0 -12 -13 -15 -60 -15 -47 0
-60 3 -60 15 0 8 -7 15 -15 15 -12 0 -15 13 -15 60 0 47 3 60 15 60 8 0 15 7
15 15 0 12 13 15 60 15 47 0 60 -3 60 -15z m-393 -92 c-3 -10 -5 -2 -5 17 0
19 2 27 5 18 2 -10 2 -26 0 -35z m443 -113 c0 -5 -4 -10 -10 -10 -5 0 -10 5
-10 10 0 6 5 10 10 10 6 0 10 -4 10 -10z m50 -4 c0 -9 -7 -12 -20 -9 -11 3
-20 9 -20 14 0 5 9 9 20 9 11 0 20 -6 20 -14z m-463 -18 c-3 -8 -6 -5 -6 6 -1
11 2 17 5 13 3 -3 4 -12 1 -19z m493 -18 c0 -5 -2 -10 -4 -10 -3 0 -8 5 -11
10 -3 6 -1 10 4 10 6 0 11 -4 11 -10z m-33 -136 c-3 -3 -12 -4 -19 -1 -8 3 -5
6 6 6 11 1 17 -2 13 -5z m-139 -31 c-10 -2 -26 -2 -35 0 -10 3 -2 5 17 5 19 0
27 -2 18 -5z"/>
<path d="M483 713 c9 -2 25 -2 35 0 9 3 1 5 -18 5 -19 0 -27 -2 -17 -5z"/>
<path d="M340 649 c0 -5 5 -7 10 -4 6 3 10 8 10 11 0 2 -4 4 -10 4 -5 0 -10
-5 -10 -11z"/>
<path d="M282 500 c0 -19 2 -27 5 -17 2 9 2 25 0 35 -3 9 -5 1 -5 -18z"/>
<path d="M340 350 c0 -5 5 -10 11 -10 5 0 7 5 4 10 -3 6 -8 10 -11 10 -2 0 -4
-4 -4 -10z"/>
<path d="M483 283 c9 -2 25 -2 35 0 9 3 1 5 -18 5 -19 0 -27 -2 -17 -5z"/>
<path d="M455 570 c-3 -5 -1 -10 4 -10 6 0 11 5 11 10 0 6 -2 10 -4 10 -3 0
-8 -4 -11 -10z"/>
<path d="M530 570 c0 -5 5 -10 11 -10 5 0 7 5 4 10 -3 6 -8 10 -11 10 -2 0 -4
-4 -4 -10z"/>
<path d="M488 563 c6 -2 18 -2 25 0 6 3 1 5 -13 5 -14 0 -19 -2 -12 -5z"/>
<path d="M425 540 c-3 -5 -1 -10 4 -10 6 0 11 5 11 10 0 6 -2 10 -4 10 -3 0
-8 -4 -11 -10z"/>
<path d="M560 540 c0 -5 5 -10 11 -10 5 0 7 5 4 10 -3 6 -8 10 -11 10 -2 0 -4
-4 -4 -10z"/>
<path d="M432 500 c0 -14 2 -19 5 -12 2 6 2 18 0 25 -3 6 -5 1 -5 -13z"/>
<path d="M562 500 c0 -14 2 -19 5 -12 2 6 2 18 0 25 -3 6 -5 1 -5 -13z"/>
<path d="M425 460 c3 -5 8 -10 11 -10 2 0 4 5 4 10 0 6 -5 10 -11 10 -5 0 -7
-4 -4 -10z"/>
<path d="M560 459 c0 -5 5 -7 10 -4 6 3 10 8 10 11 0 2 -4 4 -10 4 -5 0 -10
-5 -10 -11z"/>
<path d="M455 430 c3 -5 8 -10 11 -10 2 0 4 5 4 10 0 6 -5 10 -11 10 -5 0 -7
-4 -4 -10z"/>
<path d="M488 433 c6 -2 18 -2 25 0 6 3 1 5 -13 5 -14 0 -19 -2 -12 -5z"/>
<path d="M530 429 c0 -5 5 -7 10 -4 6 3 10 8 10 11 0 2 -4 4 -10 4 -5 0 -10
-5 -10 -11z"/>
<path d="M0 321 c0 -6 7 -11 15 -11 10 0 15 -10 15 -30 0 -20 5 -30 15 -30 10
0 15 -10 15 -30 0 -20 5 -30 15 -30 8 0 15 -7 15 -15 0 -8 9 -15 20 -15 11 0
20 -7 20 -15 0 -8 7 -15 15 -15 8 0 15 -9 15 -20 0 -11 7 -20 15 -20 8 0 15
-7 15 -15 0 -10 10 -15 30 -15 20 0 30 -5 30 -15 0 -10 10 -15 30 -15 20 0 30
-5 30 -15 0 -8 5 -15 11 -15 6 0 9 10 7 23 -2 15 -11 23 -28 25 -14 2 -29 10
-33 18 -4 8 -17 14 -27 14 -19 0 -60 32 -60 46 0 9 -44 54 -52 54 -16 0 -48
41 -48 60 0 10 -6 23 -14 27 -8 4 -16 19 -18 33 -2 17 -10 26 -25 28 -13 2
-23 -1 -23 -7z"/>
<path d="M957 323 c-4 -3 -7 -16 -7 -29 0 -12 -7 -24 -15 -28 -8 -3 -15 -15
-15 -26 0 -19 -32 -60 -47 -60 -9 0 -53 -45 -53 -54 0 -14 -41 -46 -60 -46
-10 0 -23 -6 -27 -14 -4 -8 -19 -16 -33 -18 -17 -2 -26 -10 -28 -25 -2 -13 1
-23 7 -23 6 0 11 7 11 15 0 10 10 15 30 15 20 0 30 5 30 15 0 10 10 15 30 15
20 0 30 5 30 15 0 8 7 15 15 15 8 0 15 9 15 20 0 11 7 20 15 20 8 0 15 7 15
15 0 8 9 15 20 15 11 0 20 7 20 15 0 8 7 15 15 15 10 0 15 10 15 30 0 20 5 30
15 30 10 0 15 10 15 30 0 20 5 30 15 30 8 0 15 5 15 10 0 11 -33 14 -43 3z"/>
</g>
</svg>
