<?xml version="1.0" standalone="no"?>
<!DOCTYPE svg PUBLIC "-//W3C//DTD SVG 20010904//EN"
 "http://www.w3.org/TR/2001/REC-SVG-20010904/DTD/svg10.dtd">
<svg version="1.0" xmlns="http://www.w3.org/2000/svg"
 width="256.000000pt" height="256.000000pt" viewBox="0 0 256.000000 256.000000"
 preserveAspectRatio="xMidYMid meet">
<metadata>
Created by potrace 1.16, written by Peter Selinger 2001-2019
</metadata>
<g transform="translate(0.000000,256.000000) scale(0.100000,-0.100000)"
fill="#000000" stroke="none">
<path d="M1970 1663 c103 -3 117 -5 133 -24 9 -12 17 -17 17 -12 0 6 -8 17
-18 26 -15 14 -38 17 -133 15 l-114 -2 115 -3z"/>
<path d="M156 1633 c-101 -100 -102 -619 -1 -727 23 -25 28 -26 135 -26 l110
0 11 27 c5 14 8 62 7 106 l-3 79 -115 2 c-111 1 -115 2 -127 26 -16 32 -18
259 -1 295 11 25 12 25 130 25 l118 0 0 84 c0 47 -4 96 -10 110 -9 26 -11 26
-118 26 -105 0 -110 -1 -136 -27z m234 -12 c5 -11 10 -51 10 -90 l0 -71 -119
0 -119 0 -11 -31 c-16 -45 -14 -297 2 -329 12 -24 16 -25 130 -28 l117 -3 0
-65 c0 -100 -4 -104 -108 -104 -105 0 -123 10 -150 83 -69 184 -49 547 35 631
24 24 32 26 114 26 77 0 90 -2 99 -19z"/>
<path d="M462 1648 c-9 -9 -12 -106 -12 -374 0 -199 3 -369 6 -378 5 -14 28
-16 144 -16 162 0 151 -9 153 127 l1 86 -117 -1 -117 -1 0 284 0 285 -23 0
c-13 0 -28 -5 -35 -12z m153 -578 l115 0 0 -69 c0 -106 6 -101 -130 -101 -98
0 -119 3 -124 16 -3 9 -6 170 -6 358 0 260 3 345 13 355 10 10 13 -45 15 -273
l2 -286 115 0z"/>
<path d="M792 1648 c-9 -9 -12 -106 -12 -374 0 -199 3 -369 6 -378 5 -13 27
-16 138 -16 89 0 136 4 144 12 8 8 12 47 12 107 l0 96 -115 -3 -115 -4 0 41 0
41 80 0 80 0 0 100 0 100 -80 0 -80 0 0 38 0 38 115 -1 115 -1 0 89 c0 130 4
127 -148 127 -86 0 -132 -4 -140 -12z m258 -27 c5 -11 10 -49 10 -85 l0 -66
-115 0 -115 0 0 -60 0 -60 80 0 80 0 0 -80 0 -80 -80 0 -81 0 3 -57 3 -58 113
-3 112 -3 0 -72 c0 -44 -5 -78 -12 -85 -8 -8 -50 -12 -124 -12 -93 0 -113 3
-118 16 -3 9 -6 170 -6 358 0 253 3 345 12 354 8 8 49 12 120 12 96 0 108 -2
118 -19z"/>
<path d="M1110 1653 c-4 -130 1 -744 6 -756 4 -11 17 -17 35 -17 l29 0 0 363
c0 385 -3 409 -48 415 -12 2 -22 0 -22 -5z m50 -405 c0 -316 -5 -382 -24 -332
-3 9 -6 174 -6 367 1 312 2 350 15 333 13 -17 15 -77 15 -368z"/>
<path d="M1350 1413 c0 -141 -5 -264 -11 -285 l-10 -38 -64 0 -65 0 0 -79 c0
-44 4 -91 10 -105 9 -23 15 -26 63 -26 65 0 87 19 119 105 20 56 22 81 26 347
4 307 1 328 -43 328 l-25 0 0 -247z m47 -78 c-4 -294 -12 -343 -63 -405 -19
-22 -34 -30 -60 -30 -43 0 -54 20 -54 104 l0 65 63 3 c61 3 62 4 74 38 8 23
12 120 13 285 1 227 2 248 16 230 13 -17 15 -59 11 -290z"/>
<path d="M1490 1642 c-35 -28 -49 -102 -47 -252 1 -141 16 -200 52 -214 9 -3
60 -6 114 -6 89 0 99 -2 120 -23 12 -14 28 -52 36 -88 l14 -64 -2 157 c-2 142
-4 159 -23 185 -20 27 -25 28 -130 33 l-109 5 0 35 0 35 133 3 132 3 0 79 c0
43 -4 90 -10 104 -9 26 -10 26 -134 26 -104 0 -127 -3 -146 -18z m260 -21 c5
-11 10 -49 10 -85 l0 -66 -129 0 c-141 0 -141 0 -141 -63 0 -53 7 -56 119 -59
99 -3 105 -4 124 -29 13 -18 21 -49 24 -95 6 -68 6 -69 -14 -51 -16 14 -39 17
-121 17 -122 0 -134 8 -152 97 -16 76 -7 260 14 302 24 45 41 50 153 51 91 0
103 -2 113 -19z"/>
<path d="M2404 1400 c0 -140 2 -198 3 -128 2 71 2 185 0 256 -1 70 -3 12 -3
-128z"/>
<path d="M2225 1615 c4 -11 10 -28 12 -37 3 -10 9 -18 14 -18 5 0 3 12 -3 28
-14 33 -35 57 -23 27z"/>
<path d="M1802 1260 c-2 -299 0 -349 14 -368 14 -21 21 -22 147 -20 l132 2
-130 3 c-71 2 -134 8 -140 14 -6 6 -12 144 -15 362 l-6 352 -2 -345z"/>
<path d="M2482 1263 c-1 -182 -6 -343 -11 -357 -6 -13 -18 -26 -28 -29 -16 -4
-16 -5 -1 -6 10 0 24 10 33 22 13 21 15 72 12 363 l-2 339 -3 -332z"/>
<path d="M2120 1555 c0 -8 0 -18 -1 -22 0 -4 4 -9 10 -11 6 -2 11 8 11 22 0
14 -4 26 -10 26 -5 0 -10 -7 -10 -15z"/>
<path d="M2119 1503 c-1 -5 0 -12 1 -18 2 -5 6 -95 10 -200 l6 -190 2 208 c1
132 -2 207 -8 207 -5 0 -11 -3 -11 -7z"/>
<path d="M2270 1505 c0 -17 24 -75 31 -75 5 0 1 17 -8 38 -16 40 -23 50 -23
37z"/>
<path d="M1880 1410 l0 -40 73 2 72 1 -65 6 -65 6 0 33 c0 17 -3 32 -7 32 -5
0 -8 -18 -8 -40z"/>
<path d="M2211 1359 c-1 -15 6 -29 14 -33 12 -4 13 -2 7 12 -5 9 -12 24 -15
32 -3 9 -6 4 -6 -11z"/>
<path d="M2320 1375 c0 -17 24 -75 31 -75 5 0 1 17 -8 38 -16 40 -23 50 -23
37z"/>
<path d="M2053 1270 c0 -41 2 -58 4 -37 2 20 2 54 0 75 -2 20 -4 3 -4 -38z"/>
<path d="M2212 1093 l3 -208 2 203 c2 111 7 202 12 202 5 0 15 -16 21 -36 7
-19 14 -33 17 -30 11 11 -22 76 -39 76 -17 0 -18 -14 -16 -207z"/>
<path d="M2371 1234 c0 -11 3 -14 6 -6 3 7 2 16 -1 19 -3 4 -6 -2 -5 -13z"/>
<path d="M1881 1143 c0 -24 1 -25 8 -8 6 16 20 21 72 26 l64 6 -72 1 -73 2 1
-27z"/>
<path d="M2297 1130 c9 -22 18 -38 20 -36 7 6 -20 76 -28 76 -4 0 0 -18 8 -40z"/>
<path d="M1510 1098 c0 -4 24 -7 53 -7 54 1 49 5 -15 11 -21 2 -38 0 -38 -4z"/>
<path d="M1943 1093 c31 -2 83 -2 115 0 31 2 5 3 -58 3 -63 0 -89 -1 -57 -3z"/>
<path d="M2113 1030 c0 -30 2 -43 4 -27 2 15 2 39 0 55 -2 15 -4 2 -4 -28z"/>
<path d="M1432 1050 c0 -14 2 -19 5 -12 2 6 2 18 0 25 -3 6 -5 1 -5 -13z"/>
<path d="M2367 950 c9 -22 18 -38 20 -36 7 6 -20 76 -28 76 -4 0 0 -18 8 -40z"/>
<path d="M1693 925 c0 -22 2 -30 4 -17 2 12 2 30 0 40 -3 9 -5 -1 -4 -23z"/>
<path d="M2106 904 c-9 -23 -4 -24 17 -2 13 14 14 18 3 18 -8 0 -17 -7 -20
-16z"/>
<path d="M1558 873 c23 -2 61 -2 85 0 23 2 4 4 -43 4 -47 0 -66 -2 -42 -4z"/>
<path d="M1978 763 c26 -5 33 -53 7 -53 -8 0 -15 -4 -15 -10 0 -5 7 -10 15
-10 10 0 15 -11 15 -35 0 -24 -5 -35 -15 -35 -9 0 -15 -9 -15 -25 0 -16 6 -25
15 -25 25 0 18 -38 -7 -43 -13 -2 -2 -5 24 -6 40 -1 50 3 64 24 9 14 20 22 25
19 5 -3 9 26 9 65 0 38 -3 71 -7 73 -5 2 -15 17 -23 33 -14 27 -21 30 -65 31
-28 1 -40 0 -27 -3z m82 -29 c13 -34 13 -160 0 -185 -6 -10 -20 -19 -30 -19
-19 0 -20 7 -20 115 0 109 1 115 20 115 13 0 24 -10 30 -26z"/>
<path d="M2030 640 c0 -45 4 -69 10 -65 6 3 10 33 10 65 0 32 -4 62 -10 65 -6
4 -10 -20 -10 -65z"/>
<path d="M2198 760 c12 -5 22 -15 22 -21 0 -7 3 -9 6 -6 10 10 -16 37 -35 36
-11 0 -9 -3 7 -9z"/>
<path d="M290 734 c-6 -14 -10 -60 -10 -103 0 -106 26 -138 57 -71 11 23 12
23 12 4 1 -12 7 -26 14 -33 38 -31 52 70 16 118 -21 28 -23 78 -4 74 6 -1 13
-12 17 -25 5 -20 6 -19 7 8 1 37 -17 58 -36 43 -20 -18 -16 -86 8 -118 21 -28
23 -70 4 -74 -5 -1 -11 8 -13 21 -2 12 -8 20 -13 17 -5 -4 -9 19 -9 52 0 32
-3 68 -6 80 -9 33 -33 37 -44 7z m36 -40 c7 -38 1 -130 -10 -141 -11 -12 -19
6 -24 56 -5 56 4 121 18 121 5 0 12 -16 16 -36z"/>
<path d="M419 732 c-13 -33 -8 -187 6 -201 6 -6 16 -7 22 -3 17 11 29 72 14
72 -6 0 -11 -11 -11 -25 0 -31 -16 -33 -24 -2 -7 28 -7 106 0 135 8 30 24 28
24 -3 0 -14 5 -25 10 -25 20 0 6 66 -16 74 -9 4 -18 -4 -25 -22z"/>
<path d="M769 733 c-16 -42 -8 -191 11 -203 22 -14 40 16 40 67 0 32 -4 43
-15 43 -8 0 -15 -4 -15 -10 0 -5 5 -10 11 -10 14 0 7 -62 -7 -67 -21 -7 -33
98 -18 155 8 29 18 28 31 -5 10 -27 11 -27 12 -5 1 27 -15 62 -30 62 -5 0 -14
-12 -20 -27z"/>
<path d="M840 741 c-5 -11 -10 -57 -10 -103 0 -90 13 -125 40 -108 11 7 16 32
18 92 5 112 -19 172 -48 119z m36 -47 c7 -38 1 -130 -10 -141 -11 -12 -19 6
-24 56 -5 56 4 121 18 121 5 0 12 -16 16 -36z"/>
<path d="M2150 740 c6 -12 10 -59 9 -106 -1 -46 1 -87 5 -91 3 -3 6 44 6 105
0 94 -2 112 -15 112 -13 0 -14 -4 -5 -20z"/>
<path d="M2284 746 c-3 -8 -4 -31 -2 -52 3 -36 4 -35 8 14 5 53 4 63 -6 38z"/>
<path d="M2316 745 c-3 -8 -1 -15 4 -15 6 0 10 7 10 15 0 8 -2 15 -4 15 -2 0
-6 -7 -10 -15z"/>
<path d="M2422 751 c-8 -5 -12 -16 -10 -25 2 -12 6 -10 15 9 6 14 10 25 10 25
-1 0 -8 -4 -15 -9z"/>
<path d="M101 662 c-7 -48 -14 -97 -17 -109 -2 -13 0 -23 6 -23 5 0 10 14 10
30 0 20 5 30 15 30 9 0 15 -9 15 -24 0 -14 5 -28 12 -32 8 -5 9 2 5 23 -3 16
-9 65 -13 107 -4 42 -10 79 -14 81 -5 3 -13 -34 -19 -83z m22 -19 c4 -19 2
-33 -3 -33 -6 0 -10 17 -10 37 0 43 5 41 13 -4z"/>
<path d="M152 652 c2 -67 8 -105 17 -116 27 -32 41 6 41 106 0 71 3 88 15 88
11 0 15 -21 18 -102 l3 -103 2 103 c2 83 5 102 17 102 8 0 15 5 15 10 0 6 -18
10 -40 10 l-40 0 0 -84 c0 -86 -5 -116 -21 -116 -5 0 -9 45 -9 100 0 66 -4
100 -11 100 -7 0 -10 -32 -7 -98z"/>
<path d="M484 640 c0 -63 1 -91 3 -62 3 37 8 52 19 52 10 0 14 -13 14 -50 0
-43 3 -50 20 -50 16 0 20 7 20 30 0 20 5 30 15 30 10 0 15 -10 15 -30 0 -27 3
-30 30 -30 38 0 50 27 50 110 0 74 -13 110 -40 110 -19 0 -20 -7 -21 -102 l-2
-103 -13 95 c-7 52 -13 99 -13 104 -1 5 -4 6 -8 2 -4 -4 -12 -48 -19 -99 l-11
-92 -2 98 c0 57 -5 97 -11 97 -5 0 -10 -22 -10 -50 0 -37 -4 -50 -14 -50 -11
0 -16 15 -19 53 -2 28 -3 0 -3 -63z m172 45 c8 -56 -3 -135 -19 -135 -8 0 -12
27 -12 90 0 63 4 90 12 90 6 0 15 -20 19 -45z m-76 -35 c0 -22 -3 -40 -8 -40
-4 0 -6 18 -4 40 2 22 6 40 8 40 2 0 4 -18 4 -40z"/>
<path d="M680 640 l0 -110 25 0 c14 0 25 5 25 10 0 6 -9 10 -20 10 -17 0 -20
7 -20 40 0 34 3 40 21 40 12 0 19 5 16 13 -2 6 -11 11 -21 9 -13 -2 -16 5 -16
38 0 33 3 40 20 40 11 0 20 5 20 10 0 6 -11 10 -25 10 l-25 0 0 -110z"/>
<path d="M900 640 c0 -60 3 -110 8 -110 4 0 7 50 7 110 0 61 -3 110 -7 110 -5
0 -8 -49 -8 -110z"/>
<path d="M932 638 c1 -62 3 -89 5 -60 5 67 27 66 31 -1 3 -46 4 -47 38 -47 18
0 34 5 34 10 0 6 -7 10 -15 10 -12 0 -15 18 -15 100 0 60 -4 100 -10 100 -6 0
-10 -42 -10 -107 0 -133 -10 -130 -13 3 -2 94 -3 99 -24 102 -23 3 -23 2 -21
-110z m33 52 c0 -18 -6 -35 -12 -37 -9 -3 -13 8 -13 37 0 29 4 40 13 38 6 -3
12 -20 12 -38z"/>
<path d="M1050 640 l0 -110 25 0 c14 0 25 5 25 10 0 6 -9 10 -20 10 -17 0 -20
7 -20 40 0 34 3 40 21 40 12 0 19 5 16 13 -2 6 -11 11 -21 9 -13 -2 -16 5 -16
38 0 33 3 40 20 40 11 0 20 5 20 10 0 6 -11 10 -25 10 l-25 0 0 -110z"/>
<path d="M1932 718 c6 -18 8 -62 5 -109 -4 -49 -3 -79 3 -79 6 0 10 44 10 104
0 81 -3 105 -14 109 -12 5 -13 1 -4 -25z"/>
<path d="M1868 708 c3 -16 0 -28 -7 -28 -6 0 -11 7 -11 15 0 8 -4 15 -10 15
-5 0 -10 -25 -10 -55 0 -30 4 -55 8 -55 5 0 7 14 4 30 -3 23 0 30 13 30 14 0
16 -8 13 -55 -1 -30 0 -55 4 -55 4 0 8 42 10 93 2 61 -1 94 -8 94 -5 0 -8 -13
-6 -29z"/>
<path d="M1900 638 c0 -51 3 -68 10 -58 13 20 13 117 0 125 -6 4 -10 -21 -10
-67z"/>
<path d="M2120 646 c0 -36 5 -68 10 -71 6 -4 10 20 10 64 0 41 -4 71 -10 71
-6 0 -10 -28 -10 -64z"/>
<path d="M2190 685 c0 -14 5 -25 10 -25 6 0 10 11 10 25 0 14 -4 25 -10 25 -5
0 -10 -11 -10 -25z"/>
<path d="M2372 690 c0 -14 2 -19 5 -12 2 6 2 18 0 25 -3 6 -5 1 -5 -13z"/>
<path d="M2440 689 c0 -11 4 -18 10 -14 5 3 7 12 3 20 -7 21 -13 19 -13 -6z"/>
<path d="M1803 630 c0 -41 2 -58 4 -37 2 20 2 54 0 75 -2 20 -4 3 -4 -38z"/>
<path d="M2230 670 c0 -17 -9 -39 -20 -50 -12 -12 -20 -32 -19 -52 l1 -33 7
30 c10 39 33 75 48 75 8 0 13 13 13 30 0 20 -5 30 -15 30 -10 0 -15 -10 -15
-30z"/>
<path d="M2338 615 c-4 -44 -5 -82 -2 -84 11 -11 15 13 12 85 l-3 79 -7 -80z"/>
<path d="M2402 640 c0 -19 2 -27 5 -17 2 9 2 25 0 35 -3 9 -5 1 -5 -18z"/>
<path d="M2430 638 c0 -9 5 -20 10 -23 6 -4 8 -16 5 -28 -5 -18 -4 -19 4 -6 8
12 7 25 -4 45 -9 19 -15 23 -15 12z"/>
<path d="M2372 595 c0 -16 2 -22 5 -12 2 9 2 23 0 30 -3 6 -5 -1 -5 -18z"/>
<path d="M2298 585 c-6 -30 -3 -43 8 -33 3 4 4 19 2 35 l-3 28 -7 -30z"/>
<path d="M2262 565 c0 -16 2 -22 5 -12 2 9 2 23 0 30 -3 6 -5 -1 -5 -18z"/>
<path d="M2410 551 c0 -14 -8 -21 -27 -24 -26 -4 -26 -4 5 -6 28 -1 32 2 32
24 0 14 -2 25 -5 25 -3 0 -5 -9 -5 -19z"/>
</g>
</svg>
