<?xml version="1.0" standalone="no"?>
<!DOCTYPE svg PUBLIC "-//W3C//DTD SVG 20010904//EN"
 "http://www.w3.org/TR/2001/REC-SVG-20010904/DTD/svg10.dtd">
<svg version="1.0" xmlns="http://www.w3.org/2000/svg"
 width="100.000000pt" height="100.000000pt" viewBox="0 0 100.000000 100.000000"
 preserveAspectRatio="xMidYMid meet">
<metadata>
Created by potrace 1.16, written by Peter Selinger 2001-2019
</metadata>
<g transform="translate(0.000000,100.000000) scale(0.100000,-0.100000)"
fill="#000000" stroke="none">
<path d="M440 989 c0 -5 5 -7 10 -4 6 3 10 8 10 11 0 2 -4 4 -10 4 -5 0 -10
-5 -10 -11z"/>
<path d="M470 990 c0 -5 7 -7 15 -4 8 4 15 8 15 10 0 2 -7 4 -15 4 -8 0 -15
-4 -15 -10z"/>
<path d="M510 990 c0 -5 5 -10 10 -10 6 0 10 5 10 10 0 6 -4 10 -10 10 -5 0
-10 -4 -10 -10z"/>
<path d="M545 990 c3 -5 8 -10 11 -10 2 0 4 5 4 10 0 6 -5 10 -11 10 -5 0 -7
-4 -4 -10z"/>
<path d="M370 955 c0 -8 -7 -15 -15 -15 -8 0 -15 -7 -15 -15 0 -8 -7 -15 -15
-15 -8 0 -15 -9 -15 -20 0 -11 -7 -20 -15 -20 -8 0 -15 -7 -15 -15 0 -8 -7
-15 -15 -15 -8 0 -15 -7 -15 -15 0 -8 -7 -15 -15 -15 -8 0 -15 -7 -15 -15 0
-8 -7 -15 -15 -15 -8 0 -15 -7 -15 -15 0 -8 -7 -15 -15 -15 -8 0 -15 -7 -15
-15 0 -8 -7 -15 -15 -15 -8 0 -15 -7 -15 -15 0 -8 -9 -15 -20 -15 -11 0 -20
-7 -20 -15 0 -8 -7 -15 -15 -15 -8 0 -15 -7 -15 -15 0 -8 -7 -15 -15 -15 -13
0 -15 -21 -15 -125 0 -104 2 -125 15 -125 8 0 15 -9 15 -20 0 -11 7 -20 15
-20 8 0 15 -7 15 -15 0 -8 9 -15 20 -15 11 0 20 -7 20 -15 0 -8 7 -15 15 -15
8 0 15 -7 15 -15 0 -8 7 -15 15 -15 8 0 15 -7 15 -15 0 -8 7 -15 15 -15 8 0
15 -7 15 -15 0 -8 7 -15 15 -15 8 0 15 -7 15 -15 0 -8 7 -15 15 -15 8 0 15 -7
15 -15 0 -8 5 -15 10 -15 17 0 11 22 -12 41 l-21 19 26 0 c26 0 27 -3 27 -50
0 -38 4 -50 15 -50 8 0 15 -7 15 -15 0 -8 7 -15 15 -15 8 0 15 -7 15 -15 0
-13 21 -15 125 -15 74 0 125 4 125 10 0 5 -7 7 -15 4 -8 -4 -15 -1 -15 5 0 6
16 11 35 11 33 0 35 2 35 35 0 19 5 35 11 35 6 0 8 -9 4 -20 -4 -11 -2 -20 4
-20 6 0 11 16 11 35 0 32 2 35 30 35 27 0 30 3 30 30 0 20 5 30 15 30 8 0 15
7 15 15 0 8 7 15 15 15 8 0 15 7 15 15 0 8 7 15 15 15 8 0 15 7 15 15 0 10
-10 15 -30 15 -20 0 -30 -5 -30 -15 0 -8 -7 -15 -15 -15 -8 0 -15 -7 -15 -15
0 -10 -10 -15 -30 -15 -20 0 -30 5 -30 15 0 8 7 15 15 15 8 0 15 7 15 15 0 8
7 15 15 15 8 0 15 7 15 15 0 8 -9 15 -20 15 -13 0 -18 5 -14 15 8 19 34 19 34
0 0 -10 10 -15 29 -15 16 0 31 -4 33 -9 2 -5 15 -13 31 -16 21 -6 27 -4 27 9
0 11 -9 16 -30 16 -23 0 -30 4 -30 20 0 11 7 20 15 20 8 0 15 -7 15 -16 0 -14
3 -14 15 -4 12 10 15 10 15 -4 0 -9 8 -16 20 -16 13 0 20 7 20 20 0 16 -7 20
-35 20 -24 0 -35 5 -35 15 0 8 7 15 15 15 8 0 15 7 15 15 0 8 9 15 20 15 16 0
20 -7 20 -30 0 -20 5 -30 15 -30 8 0 15 7 15 15 0 8 7 15 15 15 12 0 15 19 15
110 0 71 -4 110 -11 110 -6 0 -8 -9 -4 -20 4 -11 2 -20 -4 -20 -6 0 -11 9 -11
20 0 11 -7 20 -15 20 -8 0 -15 -9 -15 -20 0 -16 -7 -20 -35 -20 -24 0 -35 -5
-35 -15 0 -10 -10 -15 -30 -15 -16 0 -30 -4 -30 -10 0 -5 7 -7 15 -4 8 4 15 1
15 -5 0 -6 -13 -11 -30 -11 -20 0 -30 -5 -30 -15 0 -8 -7 -15 -15 -15 -8 0
-15 -7 -15 -15 0 -10 -10 -15 -30 -15 -21 0 -30 5 -30 16 0 12 7 15 28 10 15
-3 21 -3 15 0 -18 8 -16 34 2 34 8 0 15 7 15 15 0 8 7 15 15 15 8 0 15 7 15
15 0 8 7 15 15 15 8 0 15 9 15 20 0 11 7 20 15 20 8 0 15 7 15 15 0 10 10 15
30 15 17 0 30 5 30 11 0 5 5 7 11 3 8 -5 8 -9 -1 -14 -6 -4 -10 -20 -7 -36 4
-27 5 -28 12 -6 7 21 16 26 43 23 6 -1 12 3 12 9 0 5 -7 10 -15 10 -8 0 -15 7
-15 15 0 10 -11 15 -35 15 -32 0 -35 2 -35 30 0 17 -5 30 -11 30 -6 0 -9 -7
-5 -15 3 -8 1 -15 -4 -15 -6 0 -10 14 -10 30 0 27 -3 30 -30 30 -27 0 -30 3
-30 30 0 20 -5 30 -15 30 -8 0 -15 7 -15 15 0 8 -7 15 -15 15 -8 0 -15 9 -15
20 0 11 -7 20 -15 20 -8 0 -15 7 -15 15 0 10 -11 15 -35 15 l-35 0 0 -50 c0
-38 -4 -50 -15 -50 -8 0 -15 -7 -15 -15 0 -8 -7 -15 -15 -15 -11 0 -15 12 -15
50 l0 50 -45 0 c-33 0 -45 4 -45 15 0 12 13 15 60 15 47 0 60 -3 60 -15 0 -8
5 -15 11 -15 6 0 9 6 7 12 -6 17 14 37 29 31 7 -3 13 0 13 6 0 7 -40 11 -125
11 -104 0 -125 -2 -125 -15z m49 -14 c9 -6 10 -11 2 -15 -6 -4 -11 -3 -11 3 0
5 -8 12 -17 14 -13 3 -14 5 -3 6 8 0 21 -3 29 -8z m226 -21 c3 -5 -1 -10 -9
-10 -9 0 -16 5 -16 10 0 6 4 10 9 10 6 0 13 -4 16 -10z m-205 -31 c0 -15 -7
-19 -34 -19 -27 0 -35 4 -38 23 -4 20 -1 22 34 19 29 -3 38 -8 38 -23z m240
-10 c0 -5 -4 -9 -10 -9 -5 0 -10 7 -10 16 0 8 5 12 10 9 6 -3 10 -10 10 -16z
m-324 -9 c9 0 14 -11 14 -30 0 -36 -15 -40 -24 -6 -3 13 -7 30 -9 38 -2 7 -2
10 0 6 3 -5 11 -8 19 -8z m134 4 c0 -2 -9 -4 -21 -4 -11 0 -18 4 -14 10 5 8
35 3 35 -6z m150 -4 c0 -11 7 -20 15 -20 8 0 15 -7 15 -15 0 -8 7 -15 15 -15
8 0 15 -7 15 -15 0 -8 7 -15 15 -15 8 0 15 -7 15 -15 0 -8 7 -15 15 -15 8 0
15 -7 15 -15 0 -8 7 -15 15 -15 8 0 15 -7 15 -15 0 -8 7 -15 15 -15 8 0 15 -4
15 -10 0 -5 -7 -10 -15 -10 -22 0 -75 -41 -75 -57 0 -7 -7 -13 -15 -13 -8 0
-15 -7 -15 -15 0 -8 -7 -15 -15 -15 -8 0 -15 -7 -15 -15 0 -8 -7 -15 -15 -15
-28 0 -23 108 6 128 23 16 25 55 3 76 -9 9 -32 16 -56 16 l-41 0 21 23 c14 15
22 36 22 60 0 26 4 37 15 37 8 0 15 -9 15 -20z m-230 -20 c0 -5 -7 -10 -16
-10 -8 0 -12 5 -9 10 3 6 10 10 16 10 5 0 9 -4 9 -10z m295 0 c3 -5 1 -10 -4
-10 -6 0 -11 5 -11 10 0 6 2 10 4 10 3 0 8 -4 11 -10z m-365 -136 l0 -124 75
0 c45 0 75 -4 75 -10 0 -17 -24 -22 -53 -11 -17 7 -27 7 -27 1 0 -6 7 -10 15
-10 8 0 15 -7 15 -15 0 -8 4 -15 10 -15 5 0 7 -7 4 -15 -4 -8 -1 -15 5 -15 6
0 11 7 11 15 0 8 4 15 8 15 5 0 7 -42 4 -94 -3 -72 -1 -94 10 -98 11 -5 12 24
10 158 -2 119 0 164 9 164 6 0 9 -7 5 -15 -3 -8 -1 -15 4 -15 6 0 10 20 10 45
0 26 5 45 11 45 6 0 9 -7 5 -15 -3 -8 -1 -15 4 -15 6 0 10 -28 10 -62 -1 -60
-1 -62 -15 -38 -13 23 -14 16 -15 -77 0 -85 3 -103 15 -103 8 0 15 7 15 15 0
8 7 15 15 15 8 0 15 7 15 15 0 10 11 15 35 15 24 0 35 -5 35 -15 0 -8 -9 -15
-20 -15 -11 0 -20 5 -20 11 0 5 -5 7 -12 3 -9 -6 -9 -9 0 -12 21 -7 14 -35 -7
-29 -14 3 -17 0 -14 -14 4 -13 0 -19 -11 -19 -9 0 -16 -8 -16 -20 0 -11 -5
-20 -11 -20 -6 0 -8 8 -4 19 3 11 1 22 -5 26 -6 4 -10 -13 -10 -49 0 -56 0
-56 30 -56 20 0 30 5 30 15 0 8 7 15 15 15 8 0 15 7 15 15 0 9 9 15 24 15 19
0 23 4 19 20 -4 14 0 20 10 20 9 0 17 10 20 23 3 21 4 21 12 3 6 -13 5 -21 -3
-24 -7 -2 -12 -19 -12 -38 0 -23 -5 -34 -14 -34 -8 0 -16 4 -18 10 -2 6 -8 6
-18 0 -13 -8 -12 -10 3 -10 9 0 17 -7 17 -15 0 -8 -9 -15 -20 -15 -11 0 -20
-7 -20 -15 0 -8 8 -15 18 -15 14 0 15 -2 2 -10 -10 -6 -16 -6 -18 0 -6 16 -32
11 -32 -5 0 -8 -7 -15 -15 -15 -8 0 -15 7 -15 15 0 10 -10 15 -30 15 l-30 0 0
-60 c0 -47 -3 -60 -15 -60 -8 0 -15 5 -15 11 0 5 -5 7 -12 3 -9 -6 -9 -9 0
-12 7 -2 12 -19 12 -38 0 -31 -3 -34 -30 -34 -20 0 -30 5 -30 15 0 8 7 15 15
15 8 0 15 -5 15 -11 0 -5 5 -7 12 -3 9 6 9 9 0 12 -18 6 -15 72 3 72 12 0 15
13 15 60 0 47 -3 60 -15 60 -8 0 -15 5 -15 11 0 5 -5 7 -12 3 -9 -6 -9 -9 0
-12 17 -5 15 -32 -3 -32 -8 0 -15 -7 -15 -15 0 -8 -9 -15 -20 -15 -11 0 -20
-7 -20 -15 0 -10 -10 -15 -30 -15 -20 0 -30 5 -30 15 0 8 7 15 15 15 8 0 15
-5 15 -11 0 -5 5 -7 12 -3 9 6 9 9 0 12 -17 5 -15 32 3 32 8 0 15 7 15 15 0 8
9 15 20 15 11 0 20 7 20 15 0 18 50 21 68 3 9 -9 15 -9 24 0 9 9 7 12 -10 12
-21 0 -22 4 -22 80 0 64 -3 80 -15 80 -10 0 -15 10 -15 30 0 29 -1 30 -50 30
-29 0 -50 5 -50 11 0 5 4 8 9 5 5 -4 20 -2 33 3 26 11 15 14 -54 11 -28 -1
-48 3 -48 9 0 6 7 8 15 5 8 -4 15 -1 15 5 0 6 -7 11 -15 11 -12 0 -15 17 -15
95 0 78 3 95 15 95 12 0 15 -15 15 -75 0 -41 4 -75 9 -75 11 0 6 120 -6 176
-9 38 -8 41 9 36 16 -4 18 -16 18 -128z m170 102 c0 -18 7 -39 15 -46 8 -7 15
-16 15 -21 0 -5 -7 -9 -15 -9 -8 0 -15 -6 -15 -14 0 -7 -7 -19 -15 -26 -9 -7
-15 -29 -15 -51 l0 -39 -45 0 c-38 0 -45 3 -45 20 0 11 -7 20 -15 20 -12 0
-15 13 -15 60 0 33 4 60 10 60 5 0 12 11 16 25 4 16 13 25 25 25 10 0 19 7 19
15 0 11 11 15 40 15 39 0 40 -1 40 -34z m225 4 c3 -5 1 -10 -4 -10 -6 0 -11 5
-11 10 0 6 2 10 4 10 3 0 8 -4 11 -10z m-435 -15 c0 -12 -19 -12 -23 0 -4 9
-1 12 9 8 7 -3 14 -7 14 -8z m-47 -19 c4 -10 1 -13 -8 -9 -8 3 -12 9 -9 14 7
12 11 11 17 -5z m307 -2 c0 -2 -7 -4 -15 -4 -8 0 -15 4 -15 10 0 5 7 7 15 4 8
-4 15 -8 15 -10z m-340 -24 c0 -5 -5 -10 -11 -10 -5 0 -7 5 -4 10 3 6 8 10 11
10 2 0 4 -4 4 -10z m575 0 c3 -5 1 -10 -4 -10 -6 0 -11 5 -11 10 0 6 2 10 4
10 3 0 8 -4 11 -10z m-530 -105 c-5 -88 -15 -78 -14 16 0 57 3 77 9 63 5 -12
7 -47 5 -79z m355 50 c0 -33 -4 -45 -15 -45 -8 0 -15 -7 -15 -15 0 -8 -4 -15
-10 -15 -15 0 -12 20 7 38 16 16 15 17 -5 20 -17 3 -22 10 -22 33 0 26 3 29
30 29 29 0 30 -2 30 -45z m40 15 c0 -16 -4 -30 -10 -30 -5 0 -10 14 -10 30 0
17 5 30 10 30 6 0 10 -13 10 -30z m-470 10 c0 -5 -5 -10 -11 -10 -5 0 -7 5 -4
10 3 6 8 10 11 10 2 0 4 -4 4 -10z m40 -80 c0 -64 3 -80 15 -80 8 0 15 -7 15
-15 0 -8 6 -15 14 -15 8 0 16 -7 20 -15 4 -10 20 -15 51 -15 37 0 45 -3 45
-18 0 -23 19 -42 42 -42 15 0 18 -8 18 -45 0 -33 -4 -45 -15 -45 -8 0 -15 -7
-15 -15 0 -8 -7 -15 -15 -15 -8 0 -15 -7 -15 -15 0 -8 -9 -15 -19 -15 -11 0
-33 -13 -49 -30 -33 -32 -82 -41 -82 -15 0 8 -7 15 -15 15 -8 0 -15 7 -15 15
0 8 -7 15 -15 15 -8 0 -15 7 -15 15 0 8 -7 15 -15 15 -8 0 -15 7 -15 15 0 8
-9 15 -20 15 -13 0 -20 7 -20 20 0 11 -7 20 -15 20 -8 0 -15 7 -15 15 0 8 -7
15 -15 15 -12 0 -15 14 -15 70 0 56 3 70 15 70 8 0 15 9 15 20 0 11 7 20 15
20 8 0 15 7 15 15 0 8 9 15 20 15 11 0 20 7 20 15 0 8 7 15 15 15 8 0 15 7 15
15 0 8 7 15 15 15 8 0 15 7 15 15 0 8 5 15 10 15 6 0 10 -33 10 -80z m-70 50
c0 -5 -5 -10 -11 -10 -5 0 -7 5 -4 10 3 6 8 10 11 10 2 0 4 -4 4 -10z m-30
-30 c0 -5 -5 -10 -11 -10 -5 0 -7 5 -4 10 3 6 8 10 11 10 2 0 4 -4 4 -10z
m-40 -30 c0 -5 -5 -10 -11 -10 -5 0 -7 5 -4 10 3 6 8 10 11 10 2 0 4 -4 4 -10z
m530 0 c0 -5 -5 -10 -11 -10 -5 0 -7 5 -4 10 3 6 8 10 11 10 2 0 4 -4 4 -10z
m150 -14 c0 -3 -4 -8 -10 -11 -5 -3 -10 -1 -10 4 0 6 5 11 10 11 6 0 10 -2 10
-4z m-710 -21 c0 -8 -4 -15 -10 -15 -5 0 -7 7 -4 15 4 8 8 15 10 15 2 0 4 -7
4 -15z m548 -19 c12 -3 12 -4 -3 -3 -11 1 -20 9 -21 17 0 8 1 10 3 3 2 -6 12
-14 21 -17z m285 -26 c8 0 8 -3 0 -11 -9 -9 -16 -7 -30 7 -17 17 -17 18 0 11
10 -4 24 -7 30 -7z m-273 -16 c0 -11 -8 -14 -32 -12 -46 4 -49 28 -4 28 26 0
36 -4 36 -16z m90 12 c0 -3 -4 -8 -10 -11 -5 -3 -10 -1 -10 4 0 6 5 11 10 11
6 0 10 -2 10 -4z m230 -27 l0 -32 -47 5 c-27 3 -42 3 -35 1 20 -8 15 -36 -7
-30 -14 3 -17 0 -14 -14 4 -13 0 -19 -11 -19 -9 0 -16 -7 -16 -15 0 -8 5 -15
11 -15 5 0 7 -5 3 -12 -6 -9 -9 -9 -12 0 -5 17 -32 15 -32 -3 0 -8 5 -15 11
-15 5 0 7 -5 4 -10 -8 -13 -36 14 -33 32 2 7 -7 14 -19 16 -34 5 -28 22 7 22
20 0 30 5 30 15 0 8 7 15 15 15 8 0 15 7 15 15 0 8 7 15 15 15 8 0 15 7 15 15
0 10 11 15 35 15 19 0 35 -5 35 -11 0 -5 5 -7 12 -3 9 6 9 9 0 12 -17 5 -15
32 3 32 10 0 15 -10 15 -31z m-361 -15 c6 4 11 2 11 -3 0 -6 -11 -11 -25 -11
-24 0 -32 10 -18 23 4 4 10 2 14 -4 4 -6 12 -8 18 -5z m101 12 c0 -3 -4 -8
-10 -11 -5 -3 -10 -1 -10 4 0 6 5 11 10 11 6 0 10 -2 10 -4z m-263 -48 c-3 -7
-5 -2 -5 12 0 14 2 19 5 13 2 -7 2 -19 0 -25z m228 12 c-3 -5 -10 -10 -16 -10
-5 0 -9 5 -9 10 0 6 7 10 16 10 8 0 12 -4 9 -10z m265 -10 c0 -5 -5 -10 -11
-10 -5 0 -7 5 -4 10 3 6 8 10 11 10 2 0 4 -4 4 -10z m-220 -30 c0 -5 -5 -10
-11 -10 -5 0 -7 5 -4 10 3 6 8 10 11 10 2 0 4 -4 4 -10z m-30 -30 c0 -5 -8
-10 -17 -10 -15 0 -16 2 -3 10 19 12 20 12 20 0z m-600 -20 c0 -5 -2 -10 -4
-10 -3 0 -8 5 -11 10 -3 6 -1 10 4 10 6 0 11 -4 11 -10z m690 -5 c0 -8 -7 -15
-15 -15 -8 0 -15 7 -15 15 0 8 7 15 15 15 8 0 15 -7 15 -15z m-106 -26 c-8
-13 -21 -11 -27 5 -4 10 0 12 14 9 10 -3 16 -9 13 -14z m-554 -4 c0 -8 -2 -15
-4 -15 -2 0 -6 7 -10 15 -3 8 -1 15 4 15 6 0 10 -7 10 -15z m40 -35 c0 -5 -7
-7 -15 -4 -8 4 -15 8 -15 10 0 2 7 4 15 4 8 0 15 -4 15 -10z m30 -30 c0 -5 -2
-10 -4 -10 -3 0 -8 5 -11 10 -3 6 -1 10 4 10 6 0 11 -4 11 -10z m420 6 c0 -3
-4 -8 -10 -11 -5 -3 -10 -1 -10 4 0 6 5 11 10 11 6 0 10 -2 10 -4z m-390 -36
c0 -5 -2 -10 -4 -10 -3 0 -8 5 -11 10 -3 6 -1 10 4 10 6 0 11 -4 11 -10z m30
-30 c0 -5 -2 -10 -4 -10 -3 0 -8 5 -11 10 -3 6 -1 10 4 10 6 0 11 -4 11 -10z
m470 -5 c0 -8 -7 -15 -15 -15 -8 0 -15 7 -15 15 0 8 7 15 15 15 8 0 15 -7 15
-15z m-155 -5 c3 -5 -1 -10 -10 -10 -9 0 -13 5 -10 10 3 6 8 10 10 10 2 0 7
-4 10 -10z m185 0 c0 -5 -5 -10 -11 -10 -5 0 -7 5 -4 10 3 6 8 10 11 10 2 0 4
-4 4 -10z m-270 -9 c0 -5 -7 -14 -15 -21 -8 -7 -15 -20 -15 -30 0 -10 -7 -20
-15 -24 -8 -3 -15 -12 -15 -21 0 -8 -7 -15 -15 -15 -10 0 -15 10 -15 30 0 20
5 30 15 30 8 0 15 7 15 15 0 8 9 15 20 15 11 0 20 7 20 15 0 8 5 15 10 15 6 0
10 -4 10 -9z m-200 -11 c0 -5 -2 -10 -4 -10 -3 0 -8 5 -11 10 -3 6 -1 10 4 10
6 0 11 -4 11 -10z m410 0 c0 -5 7 -7 15 -4 8 4 15 1 15 -5 0 -6 -18 -11 -41
-11 -26 0 -38 -4 -33 -11 3 -6 15 -9 25 -6 11 3 19 1 19 -4 0 -5 -16 -9 -35
-9 -32 0 -35 2 -35 30 0 28 3 30 35 30 19 0 35 -4 35 -10z m-108 -27 c10 -9
18 -22 18 -30 0 -8 12 -13 35 -13 24 0 35 -5 35 -15 0 -8 -9 -15 -20 -15 -11
0 -20 -6 -20 -14 0 -8 -11 -17 -25 -20 -14 -4 -25 -11 -25 -16 0 -6 -13 -10
-30 -10 -32 0 -40 14 -15 24 11 4 15 21 15 66 0 33 3 60 7 60 3 0 15 -7 25
-17z m188 3 c0 -3 -4 -8 -10 -11 -5 -3 -10 -1 -10 4 0 6 5 11 10 11 6 0 10 -2
10 -4z m-400 -16 c0 -5 -5 -10 -11 -10 -5 0 -7 5 -4 10 3 6 8 10 11 10 2 0 4
-4 4 -10z m0 -50 c0 -5 -2 -10 -4 -10 -3 0 -8 5 -11 10 -3 6 -1 10 4 10 6 0
11 -4 11 -10z m157 -22 c-3 -8 -6 -5 -6 6 -1 11 2 17 5 13 3 -3 4 -12 1 -19z
m-97 -18 c0 -5 -6 -10 -14 -10 -8 0 -18 5 -21 10 -3 6 3 10 14 10 12 0 21 -4
21 -10z m245 0 c-3 -5 -10 -10 -16 -10 -5 0 -9 5 -9 10 0 6 7 10 16 10 8 0 12
-4 9 -10z"/>
<path d="M495 270 c4 -6 11 -8 16 -5 14 9 11 15 -7 15 -8 0 -12 -5 -9 -10z"/>
<path d="M575 730 c-3 -5 -1 -10 4 -10 6 0 11 5 11 10 0 6 -2 10 -4 10 -3 0
-8 -4 -11 -10z"/>
<path d="M545 860 c4 -6 11 -8 16 -5 14 9 11 15 -7 15 -8 0 -12 -5 -9 -10z"/>
<path d="M765 800 c3 -5 8 -10 11 -10 2 0 4 5 4 10 0 6 -5 10 -11 10 -5 0 -7
-4 -4 -10z"/>
<path d="M855 710 c3 -5 8 -10 11 -10 2 0 4 5 4 10 0 6 -5 10 -11 10 -5 0 -7
-4 -4 -10z"/>
<path d="M800 601 c0 -10 19 -25 25 -20 1 2 -3 10 -11 17 -8 7 -14 8 -14 3z"/>
<path d="M0 549 c0 -5 5 -7 10 -4 5 3 10 8 10 11 0 2 -4 4 -10 4 -5 0 -10 -5
-10 -11z"/>
<path d="M0 515 c0 -8 2 -15 4 -15 2 0 6 7 10 15 3 8 1 15 -4 15 -6 0 -10 -7
-10 -15z"/>
<path d="M0 480 c0 -5 5 -10 11 -10 5 0 7 5 4 10 -3 6 -8 10 -11 10 -2 0 -4
-4 -4 -10z"/>
<path d="M0 450 c0 -5 5 -10 11 -10 5 0 7 5 4 10 -3 6 -8 10 -11 10 -2 0 -4
-4 -4 -10z"/>
<path d="M955 390 c-3 -5 -1 -10 4 -10 6 0 11 5 11 10 0 6 -2 10 -4 10 -3 0
-8 -4 -11 -10z"/>
<path d="M926 361 c-4 -7 -5 -15 -2 -18 9 -9 19 4 14 18 -4 11 -6 11 -12 0z"/>
<path d="M885 320 c-3 -5 1 -10 9 -10 9 0 16 5 16 10 0 6 -4 10 -9 10 -6 0
-13 -4 -16 -10z"/>
<path d="M855 290 c-3 -5 -1 -10 4 -10 6 0 11 5 11 10 0 6 -2 10 -4 10 -3 0
-8 -4 -11 -10z"/>
<path d="M825 260 c-3 -5 -1 -10 4 -10 6 0 11 5 11 10 0 6 -2 10 -4 10 -3 0
-8 -4 -11 -10z"/>
<path d="M795 230 c-3 -5 -1 -10 4 -10 6 0 11 5 11 10 0 6 -2 10 -4 10 -3 0
-8 -4 -11 -10z"/>
<path d="M765 200 c-3 -5 -1 -10 4 -10 6 0 11 5 11 10 0 6 -2 10 -4 10 -3 0
-8 -4 -11 -10z"/>
<path d="M705 140 c-3 -5 -1 -10 4 -10 6 0 11 5 11 10 0 6 -2 10 -4 10 -3 0
-8 -4 -11 -10z"/>
<path d="M440 10 c0 -5 5 -10 11 -10 5 0 7 5 4 10 -3 6 -8 10 -11 10 -2 0 -4
-4 -4 -10z"/>
<path d="M515 10 c-3 -5 -1 -10 4 -10 6 0 11 5 11 10 0 6 -2 10 -4 10 -3 0 -8
-4 -11 -10z"/>
<path d="M545 10 c-3 -5 -1 -10 4 -10 6 0 11 5 11 10 0 6 -2 10 -4 10 -3 0 -8
-4 -11 -10z"/>
<path d="M478 3 c7 -3 16 -2 19 1 4 3 -2 6 -13 5 -11 0 -14 -3 -6 -6z"/>
</g>
</svg>
