<?xml version="1.0" standalone="no"?>
<!DOCTYPE svg PUBLIC "-//W3C//DTD SVG 20010904//EN"
 "http://www.w3.org/TR/2001/REC-SVG-20010904/DTD/svg10.dtd">
<svg version="1.0" xmlns="http://www.w3.org/2000/svg"
 width="152.000000pt" height="152.000000pt" viewBox="0 0 152.000000 152.000000"
 preserveAspectRatio="xMidYMid meet">
<metadata>
Created by potrace 1.16, written by Peter Selinger 2001-2019
</metadata>
<g transform="translate(0.000000,152.000000) scale(0.100000,-0.100000)"
fill="#000000" stroke="none">
<path d="M100 760 c0 -500 3 -760 10 -760 7 0 10 260 10 760 0 500 -3 760 -10
760 -7 0 -10 -260 -10 -760z"/>
<path d="M136 1489 c-8 -41 -8 -1417 0 -1458 l6 -31 618 0 618 0 6 31 c3 17 6
345 6 729 0 384 -3 712 -6 729 l-6 31 -618 0 -617 0 -7 -31z m1234 -729 l0
-740 -610 0 -610 0 0 740 0 740 610 0 610 0 0 -740z"/>
<path d="M630 1452 c-81 -25 -132 -55 -187 -109 -209 -204 -181 -552 57 -711
267 -179 608 -57 704 251 24 77 18 208 -13 289 -47 121 -149 222 -271 269 -76
30 -215 35 -290 11z m265 -28 c71 -25 154 -84 196 -140 31 -42 69 -106 69
-116 0 -2 -18 -2 -40 0 -26 3 -49 -2 -66 -13 -19 -12 -29 -14 -39 -5 -9 7 -72
10 -187 10 -201 -2 -192 -2 -240 6 -24 4 -47 1 -66 -9 -25 -12 -33 -12 -53 -1
-13 7 -32 13 -43 14 -17 0 -17 1 -2 23 9 12 20 32 26 44 9 21 50 51 50 36 0
-4 5 -2 12 5 7 7 24 12 38 12 29 0 94 32 127 62 12 12 27 17 34 13 7 -5 10 -4
5 3 -3 6 -2 13 3 16 12 8 145 9 186 2 l30 -5 -33 15 c-18 8 -72 17 -120 20
l-88 7 -25 -30 c-27 -34 -96 -68 -152 -76 -49 -8 -55 -13 -112 -98 -26 -39
-49 -68 -52 -65 -3 2 9 33 25 68 50 103 146 185 251 215 60 17 201 10 266 -13z
m-433 -301 c10 -9 18 -30 18 -50 0 -29 -3 -33 -25 -33 -20 0 -25 5 -25 24 0
28 -15 42 -25 26 -4 -6 -7 -44 -7 -85 0 -41 3 -79 7 -84 11 -19 25 -2 25 30 0
24 4 29 25 29 22 0 25 -4 25 -37 0 -46 -24 -73 -65 -73 -56 0 -69 26 -66 138
2 72 6 101 18 114 20 23 71 23 95 1z m160 0 c25 -23 27 -207 1 -235 -20 -22
-70 -23 -95 -1 -25 23 -27 207 -1 235 20 22 70 23 95 1z m129 -40 c1 -93 17
-111 18 -20 l1 77 45 0 45 0 0 -135 0 -135 -27 0 -28 0 3 117 c2 65 1 116 -2
113 -3 -3 -10 -56 -17 -118 -10 -95 -15 -112 -30 -112 -14 0 -18 15 -24 110
-4 61 -11 112 -15 115 -5 3 -6 -47 -3 -110 l6 -115 -27 0 -26 0 0 135 0 135
40 0 40 0 1 -57z m249 37 c15 -15 20 -33 20 -70 0 -58 -24 -90 -66 -90 -25 0
-26 -2 -22 -45 3 -43 2 -45 -24 -45 l-28 0 0 135 0 135 50 0 c37 0 55 -5 70
-20z m161 -1 c19 -19 20 -30 17 -121 -3 -112 -13 -128 -74 -128 -51 0 -64 28
-64 135 0 109 13 135 66 135 21 0 42 -8 55 -21z m-693 -106 c-10 -2 -26 -2
-35 0 -10 3 -2 5 17 5 19 0 27 -2 18 -5z m580 -154 c12 -9 28 -20 35 -22 7 -4
-6 -23 -36 -52 -26 -25 -52 -43 -57 -40 -6 3 -13 -1 -16 -9 -3 -9 -13 -16 -22
-16 -8 0 -12 -3 -9 -6 9 -10 -31 -38 -82 -58 -24 -9 -95 -23 -159 -31 l-115
-14 -42 24 c-57 34 -127 107 -160 166 l-26 49 30 -6 c34 -7 101 12 101 29 0 8
3 8 9 -1 13 -20 94 -42 115 -30 10 5 90 9 182 8 l164 -1 0 41 c0 33 4 42 23
49 19 8 23 5 33 -27 5 -19 20 -43 32 -53z m112 -24 c-48 -125 -183 -231 -326
-256 -66 -11 -175 -3 -199 15 -13 9 4 12 77 12 66 1 111 7 156 22 68 23 180
97 206 137 25 38 77 95 87 95 5 0 4 -11 -1 -25z"/>
<path d="M565 1370 c-3 -5 -2 -10 4 -10 5 0 13 5 16 10 3 6 2 10 -4 10 -5 0
-13 -4 -16 -10z"/>
<path d="M976 1348 c3 -4 9 -8 15 -8 5 0 9 4 9 8 0 5 -7 9 -15 9 -8 0 -12 -4
-9 -9z"/>
<path d="M1010 1340 c0 -6 7 -10 15 -10 8 0 15 2 15 4 0 2 -7 6 -15 10 -8 3
-15 1 -15 -4z"/>
<path d="M991 1314 c0 -11 3 -14 6 -6 3 7 2 16 -1 19 -3 4 -6 -2 -5 -13z"/>
<path d="M795 1290 c3 -5 8 -10 11 -10 2 0 4 5 4 10 0 6 -5 10 -11 10 -5 0 -7
-4 -4 -10z"/>
<path d="M991 1264 c0 -11 3 -14 6 -6 3 7 2 16 -1 19 -3 4 -6 -2 -5 -13z"/>
<path d="M760 1240 c-9 -6 -10 -10 -3 -10 6 0 15 5 18 10 8 12 4 12 -15 0z"/>
<path d="M695 1180 c-3 -5 -2 -10 4 -10 5 0 13 5 16 10 3 6 2 10 -4 10 -5 0
-13 -4 -16 -10z"/>
<path d="M565 1088 c-10 -25 -1 -173 10 -171 13 4 19 163 6 176 -7 7 -12 5
-16 -5z"/>
<path d="M930 1050 c0 -33 3 -40 20 -40 17 0 20 7 20 40 0 33 -3 40 -20 40
-17 0 -20 -7 -20 -40z"/>
<path d="M1096 1093 c-3 -4 -6 -44 -6 -90 0 -75 2 -84 18 -81 14 3 17 16 20
84 2 64 0 83 -12 87 -8 3 -17 3 -20 0z"/>
<path d="M247 1000 c-28 -216 -36 -336 -27 -433 11 -119 19 -150 53 -204 40
-63 99 -102 235 -155 70 -28 135 -57 145 -66 9 -8 20 -33 23 -54 6 -34 10 -38
35 -38 l29 0 0 158 c0 130 -4 164 -19 197 -23 52 -75 97 -164 141 -94 48 -154
99 -206 175 -43 65 -81 167 -82 223 0 17 -4 49 -8 71 l-7 40 -7 -55z m63 -258
c50 -98 111 -157 208 -203 90 -42 150 -85 173 -122 17 -28 19 -51 18 -187 0
-150 -1 -154 -15 -108 -16 52 -31 62 -179 117 -254 93 -293 177 -268 581 7
104 8 109 14 59 4 -36 20 -83 49 -137z"/>
<path d="M263 645 c3 -139 7 -177 22 -210 13 -30 19 -35 22 -22 3 10 0 32 -7
50 -6 18 -13 79 -16 137 l-5 105 20 -35 c32 -58 111 -124 211 -176 52 -27 112
-64 133 -82 34 -31 37 -32 37 -13 0 26 -55 67 -171 127 -127 66 -177 121 -238
264 -8 19 -10 -17 -8 -145z"/>
<path d="M1255 973 c-10 -98 -39 -182 -87 -253 -48 -72 -107 -121 -202 -170
-92 -47 -159 -108 -174 -158 -7 -23 -12 -103 -12 -191 l0 -151 30 0 c24 0 30
4 30 23 0 12 9 36 19 53 16 25 37 38 122 69 130 47 163 64 217 110 79 68 104
151 104 342 0 117 -23 378 -35 389 -2 3 -8 -26 -12 -63z m0 -174 c-22 -66 -87
-161 -138 -203 -23 -18 -69 -48 -102 -66 -180 -98 -200 -125 -186 -255 l8 -80
2 75 c2 113 28 146 181 229 123 66 202 146 234 239 l13 37 7 -50 c8 -55 -7
-229 -24 -286 -14 -50 -83 -125 -139 -153 -25 -13 -94 -42 -154 -66 -109 -43
-137 -65 -137 -107 0 -12 -4 -24 -8 -27 -14 -9 -1 296 13 324 23 44 62 76 156
126 163 86 263 214 277 355 l7 64 3 -53 c2 -31 -4 -74 -13 -103z"/>
<path d="M1201 164 c-41 -53 -13 -114 52 -114 42 0 67 26 67 68 0 67 -79 97
-119 46z m95 -18 c13 -22 14 -29 2 -53 -16 -34 -41 -40 -73 -19 -27 18 -34 63
-13 84 21 21 66 14 84 -12z"/>
<path d="M1220 121 c0 -23 5 -41 10 -41 6 0 10 7 10 15 0 20 17 19 30 -2 8
-14 10 -10 8 22 -3 35 -6 40 -30 43 -27 3 -28 1 -28 -37z m50 9 c0 -5 -7 -10
-15 -10 -8 0 -15 5 -15 10 0 6 7 10 15 10 8 0 15 -4 15 -10z"/>
<path d="M1400 760 c0 -500 3 -760 10 -760 7 0 10 260 10 760 0 500 -3 760
-10 760 -7 0 -10 -260 -10 -760z"/>
</g>
</svg>
