<?xml version="1.0" standalone="no"?>
<!DOCTYPE svg PUBLIC "-//W3C//DTD SVG 20010904//EN"
 "http://www.w3.org/TR/2001/REC-SVG-20010904/DTD/svg10.dtd">
<svg version="1.0" xmlns="http://www.w3.org/2000/svg"
 width="180.000000pt" height="180.000000pt" viewBox="0 0 180.000000 180.000000"
 preserveAspectRatio="xMidYMid meet">
<metadata>
Created by potrace 1.16, written by Peter Selinger 2001-2019
</metadata>
<g transform="translate(0.000000,180.000000) scale(0.100000,-0.100000)"
fill="#000000" stroke="none">
<path d="M600 1771 c-56 -11 -117 -51 -147 -94 -24 -34 -29 -53 -32 -118 -3
-65 1 -86 19 -125 29 -59 86 -100 160 -116 l58 -12 -67 -39 c-152 -92 -331
-254 -409 -373 -33 -48 -37 -70 -26 -136 6 -36 8 -38 45 -38 21 0 41 4 44 10
3 6 17 10 31 10 14 0 40 11 58 25 18 14 42 25 53 25 11 0 28 9 38 20 10 11 27
20 37 20 11 0 31 9 45 20 34 26 40 19 15 -17 -37 -52 -100 -188 -121 -258 -44
-154 -73 -345 -52 -345 7 0 11 -27 11 -70 0 -56 3 -70 15 -70 11 0 15 -12 15
-46 l0 -45 41 3 c39 3 43 6 59 48 11 29 24 46 37 48 12 2 24 17 32 40 20 55
144 301 187 368 79 125 204 265 259 292 22 11 108 36 190 56 83 20 186 48 230
62 200 64 305 153 305 258 0 33 -3 36 -27 36 -16 0 -62 -7 -103 -15 -42 -9
-155 -18 -260 -20 -102 -3 -204 -7 -226 -9 l-41 -3 62 61 c75 74 135 161 187
272 38 82 39 86 36 181 l-3 98 -50 3 c-50 3 -52 2 -82 -40 -44 -60 -148 -166
-213 -217 l-55 -44 -5 80 c-7 107 -36 152 -128 194 -48 23 -163 33 -222 20z
m204 -40 c135 -62 170 -220 72 -330 -29 -33 113 64 191 131 62 53 159 158 190
204 12 19 23 24 47 22 l31 -3 3 -79 c3 -77 2 -81 -47 -180 -83 -169 -177 -276
-317 -362 -32 -20 -50 -33 -39 -30 88 31 147 39 365 46 143 5 268 15 319 25
46 9 85 14 88 11 13 -13 -13 -71 -51 -113 -72 -79 -189 -128 -481 -199 -82
-20 -168 -45 -190 -56 -55 -27 -180 -167 -259 -292 -43 -67 -167 -313 -187
-368 -8 -23 -20 -38 -32 -40 -14 -2 -26 -20 -40 -55 -14 -38 -25 -53 -38 -53
-16 0 -19 8 -19 50 0 40 -3 50 -16 50 -14 0 -16 10 -12 70 4 52 2 70 -7 70
-15 0 -11 60 12 170 49 234 158 441 284 537 27 20 49 39 49 41 0 6 -171 -88
-218 -119 -24 -16 -51 -29 -61 -29 -10 0 -26 -9 -36 -20 -10 -11 -27 -20 -38
-20 -11 0 -35 -11 -53 -25 -18 -14 -44 -25 -58 -25 -14 0 -28 -4 -31 -10 -3
-5 -15 -10 -27 -10 -17 0 -19 4 -14 25 4 14 2 25 -4 25 -19 0 -10 37 22 84 47
72 183 212 268 275 100 76 142 102 238 150 85 43 105 58 51 39 -47 -16 -152
-4 -207 24 -27 14 -59 42 -77 67 -27 38 -30 51 -30 115 0 63 4 78 28 113 30
43 91 83 147 94 50 11 137 1 184 -20z"/>
</g>
</svg>
