<?xml version="1.0" standalone="no"?>
<!DOCTYPE svg PUBLIC "-//W3C//DTD SVG 20010904//EN"
 "http://www.w3.org/TR/2001/REC-SVG-20010904/DTD/svg10.dtd">
<svg version="1.0" xmlns="http://www.w3.org/2000/svg"
 width="152.000000pt" height="152.000000pt" viewBox="0 0 152.000000 152.000000"
 preserveAspectRatio="xMidYMid meet">
<metadata>
Created by potrace 1.16, written by Peter Selinger 2001-2019
</metadata>
<g transform="translate(0.000000,152.000000) scale(0.100000,-0.100000)"
fill="#000000" stroke="none">
<path d="M687 1495 c-143 -59 -264 -164 -315 -272 -24 -51 -27 -70 -27 -158 0
-78 4 -108 19 -135 46 -86 115 -130 218 -138 135 -9 272 59 365 183 71 95 95
148 91 208 l-3 52 -42 3 c-39 3 -43 0 -73 -42 -56 -78 -161 -147 -225 -149
-105 -3 -124 105 -36 205 121 137 386 185 719 128 125 -21 158 -21 136 -1 -12
12 -184 40 -309 50 -296 25 -536 -62 -611 -224 -27 -56 -29 -78 -13 -124 22
-63 121 -81 207 -37 56 28 141 102 161 139 17 31 39 41 57 26 21 -18 17 -40
-22 -118 -119 -239 -380 -344 -540 -219 -70 56 -95 201 -53 313 54 145 232
276 433 320 l61 13 -70 1 c-52 0 -85 -6 -128 -24z"/>
<path d="M1453 1513 c15 -2 37 -2 50 0 12 2 0 4 -28 4 -27 0 -38 -2 -22 -4z"/>
<path d="M1400 1254 c-84 -70 -142 -135 -256 -287 l-42 -54 -91 -17 c-111 -20
-185 -47 -240 -86 -36 -26 -41 -35 -41 -68 0 -21 5 -43 12 -50 21 -21 75 -13
125 18 57 35 111 51 98 29 -50 -85 -253 -318 -340 -391 -144 -122 -284 -160
-381 -103 -48 28 -83 85 -84 136 0 67 83 174 172 220 42 21 56 56 42 98 -30
85 -193 55 -319 -61 -44 -40 -55 -56 -55 -81 l0 -30 30 41 c93 128 320 204
320 107 0 -18 -14 -33 -55 -60 -119 -79 -179 -186 -155 -277 35 -128 153 -177
312 -128 109 34 228 130 378 305 82 97 200 254 200 267 0 19 -86 -3 -167 -44
-68 -33 -86 -38 -98 -28 -38 31 -12 64 85 109 55 25 100 37 256 67 13 2 51 45
97 108 74 100 230 259 289 294 30 17 38 42 13 42 -8 0 -55 -34 -105 -76z"/>
<path d="M1451 1100 c-65 -66 -139 -167 -137 -185 1 -10 99 -9 169 1 65 10 40
24 -44 24 l-80 0 22 33 c13 17 50 60 82 94 38 40 57 68 55 80 -3 14 -17 5 -67
-47z"/>
<path d="M1420 839 c-41 -4 -98 -11 -126 -14 l-51 -6 -101 -162 c-139 -224
-241 -366 -336 -465 -79 -82 -178 -162 -227 -181 -22 -9 -21 -10 12 -10 28 -1
51 9 99 45 138 101 273 267 450 552 57 92 110 174 117 183 10 12 39 19 101 23
131 10 162 16 162 32 0 8 -6 13 -12 13 -7 -1 -47 -5 -88 -10z"/>
<path d="M1008 813 c7 -3 16 -2 19 1 4 3 -2 6 -13 5 -11 0 -14 -3 -6 -6z"/>
<path d="M102 375 c0 -16 2 -22 5 -12 2 9 2 23 0 30 -3 6 -5 -1 -5 -18z"/>
<path d="M120 281 c0 -6 4 -13 10 -16 6 -3 7 1 4 9 -7 18 -14 21 -14 7z"/>
<path d="M268 163 c6 -2 18 -2 25 0 6 3 1 5 -13 5 -14 0 -19 -2 -12 -5z"/>
<path d="M388 163 c6 -2 18 -2 25 0 6 3 1 5 -13 5 -14 0 -19 -2 -12 -5z"/>
<path d="M318 153 c7 -3 16 -2 19 1 4 3 -2 6 -13 5 -11 0 -14 -3 -6 -6z"/>
<path d="M0 140 c0 -5 5 -10 11 -10 5 0 7 5 4 10 -8 13 -15 13 -15 0z"/>
<path d="M669 113 c-13 -16 -12 -17 4 -4 9 7 17 15 17 17 0 8 -8 3 -21 -13z"/>
<path d="M0 78 c0 -33 51 -78 88 -78 26 0 26 0 -9 25 -19 14 -44 37 -56 53
l-23 27 0 -27z"/>
<path d="M136 22 c-3 -6 -1 -14 5 -17 15 -10 25 3 12 16 -7 7 -13 7 -17 1z"/>
<path d="M520 15 c-8 -9 -8 -15 -2 -15 12 0 26 19 19 26 -2 2 -10 -2 -17 -11z"/>
</g>
</svg>
