<?xml version="1.0" standalone="no"?>
<!DOCTYPE svg PUBLIC "-//W3C//DTD SVG 20010904//EN"
 "http://www.w3.org/TR/2001/REC-SVG-20010904/DTD/svg10.dtd">
<svg version="1.0" xmlns="http://www.w3.org/2000/svg"
 width="100.000000pt" height="100.000000pt" viewBox="0 0 100.000000 100.000000"
 preserveAspectRatio="xMidYMid meet">
<metadata>
Created by potrace 1.16, written by Peter Selinger 2001-2019
</metadata>
<g transform="translate(0.000000,100.000000) scale(0.100000,-0.100000)"
fill="#000000" stroke="none">
<path d="M940 820 c0 -5 -13 -10 -30 -10 -16 0 -30 -4 -30 -10 0 -5 -16 -10
-35 -10 -19 0 -35 -4 -35 -10 0 -5 -9 -10 -20 -10 -11 0 -20 -4 -20 -10 0 -5
-9 -10 -20 -10 -11 0 -20 -4 -20 -10 0 -5 -7 -10 -16 -10 -9 0 -29 -13 -44
-30 -25 -27 -34 -30 -89 -30 -34 0 -61 -4 -61 -10 0 -5 -9 -10 -20 -10 -11 0
-20 -7 -20 -15 0 -10 -10 -15 -30 -15 -16 0 -30 -4 -30 -10 0 -5 -9 -10 -20
-10 -11 0 -20 -4 -20 -10 0 -5 -11 -10 -25 -10 -14 0 -25 -4 -25 -10 0 -5 -9
-10 -20 -10 -11 0 -20 -4 -20 -10 0 -5 -8 -10 -18 -10 -10 0 -24 -9 -32 -20
-8 -11 -22 -20 -32 -20 -10 0 -18 -4 -18 -10 0 -5 -9 -10 -20 -10 -11 0 -20
-4 -20 -10 0 -5 -10 -10 -23 -10 -12 0 -29 -9 -37 -20 -8 -11 -22 -20 -32 -20
-10 0 -18 -4 -18 -10 0 -5 -9 -10 -20 -10 -15 0 -20 -7 -20 -25 0 -14 5 -25
10 -25 6 0 10 7 10 15 0 8 9 15 20 15 11 0 20 5 20 10 0 6 8 10 18 10 10 0 24
9 32 20 8 11 25 20 37 20 13 0 23 5 23 10 0 6 9 10 20 10 11 0 20 5 20 10 0 6
8 10 18 10 10 0 24 9 32 20 8 11 22 20 32 20 10 0 18 5 18 10 0 6 9 10 20 10
11 0 20 5 20 10 0 6 11 10 25 10 14 0 25 5 25 10 0 6 9 10 20 10 11 0 20 5 20
10 0 6 14 10 30 10 20 0 30 5 30 15 0 8 9 15 20 15 11 0 20 5 20 10 0 6 27 10
61 10 55 0 64 3 89 30 15 17 35 30 44 30 9 0 16 5 16 10 0 6 9 10 20 10 11 0
20 5 20 10 0 6 9 10 20 10 11 0 20 5 20 10 0 6 16 10 35 10 19 0 35 5 35 10 0
6 14 10 30 10 17 0 30 5 30 10 0 6 9 10 20 10 11 0 20 5 20 10 0 6 -13 10 -30
10 -16 0 -30 -4 -30 -10z"/>
<path d="M980 760 c0 -5 -13 -10 -30 -10 -16 0 -30 -4 -30 -10 0 -5 -9 -10
-20 -10 -11 0 -20 -4 -20 -10 0 -5 -11 -10 -25 -10 -14 0 -25 -4 -25 -10 0 -5
-9 -10 -20 -10 -11 0 -20 -4 -20 -10 0 -5 -7 -10 -15 -10 -15 0 -65 -42 -65
-55 0 -12 72 -77 78 -70 4 4 1 10 -5 12 -18 6 -16 81 1 99 8 8 22 14 30 14 9
0 16 5 16 10 0 6 25 10 55 10 l55 0 0 -115 c0 -70 -4 -115 -10 -115 -5 0 -10
-13 -10 -30 0 -16 -4 -30 -10 -30 -5 0 -10 -11 -10 -25 0 -14 -4 -25 -10 -25
-5 0 -10 -9 -10 -20 0 -11 -7 -20 -15 -20 -8 0 -15 -4 -15 -10 0 -5 -13 -10
-30 -10 -16 0 -30 -4 -30 -10 0 -5 -9 -10 -20 -10 -11 0 -20 -4 -20 -10 0 -5
-13 -10 -30 -10 -16 0 -30 -4 -30 -10 0 -5 -20 -10 -45 -10 -25 0 -45 -4 -45
-10 0 -6 -27 -10 -60 -10 -33 0 -60 -4 -60 -10 0 -5 -13 -10 -30 -10 -23 0
-30 4 -30 20 0 11 5 20 10 20 6 0 10 18 10 40 0 22 5 40 10 40 6 0 10 9 10 20
0 11 5 20 10 20 6 0 10 16 10 35 0 19 5 35 10 35 6 0 10 8 10 18 0 10 9 24 20
32 26 18 26 30 0 30 -11 0 -20 -4 -20 -10 0 -5 -13 -10 -30 -10 -16 0 -30 -4
-30 -10 0 -5 -16 -10 -35 -10 -19 0 -35 -4 -35 -10 0 -5 -9 -10 -20 -10 -11 0
-20 -4 -20 -10 0 -5 -13 -10 -30 -10 -16 0 -30 -4 -30 -10 0 -5 -13 -10 -30
-10 -16 0 -30 -4 -30 -10 0 -5 -9 -10 -20 -10 -11 0 -20 -7 -20 -15 0 -10 -11
-15 -35 -15 -19 0 -35 -4 -35 -10 0 -5 -9 -10 -20 -10 -11 0 -20 -4 -20 -10 0
-5 -13 -10 -30 -10 -17 0 -30 -4 -30 -10 0 -5 18 -10 40 -10 22 0 40 5 40 10
0 6 9 10 20 10 11 0 20 5 20 10 0 6 16 10 35 10 24 0 35 5 35 15 0 8 9 15 20
15 11 0 20 5 20 10 0 6 14 10 30 10 17 0 30 5 30 10 0 6 14 10 30 10 17 0 30
5 30 10 0 6 9 10 20 10 11 0 20 5 20 10 0 6 15 10 34 10 19 0 36 6 39 13 2 7
8 8 13 3 5 -5 4 -11 -3 -13 -7 -3 -13 -20 -13 -39 0 -19 -4 -34 -10 -34 -5 0
-10 -9 -10 -20 0 -11 -4 -20 -10 -20 -5 0 -10 -18 -10 -40 0 -22 -4 -40 -10
-40 -5 0 -10 -18 -10 -40 l0 -40 50 0 c28 0 50 5 50 10 0 6 27 10 60 10 33 0
60 4 60 10 0 6 20 10 45 10 25 0 45 5 45 10 0 6 14 10 30 10 17 0 30 5 30 10
0 6 9 10 20 10 11 0 20 5 20 10 0 6 14 10 30 10 17 0 30 5 30 10 0 6 7 10 15
10 8 0 15 9 15 20 0 11 5 20 10 20 6 0 10 11 10 25 0 14 5 25 10 25 6 0 10 14
10 30 0 17 5 30 10 30 6 0 10 52 10 135 0 83 -4 135 -10 135 -5 0 -10 5 -10
10 0 6 14 10 30 10 23 0 30 4 30 20 0 11 -4 20 -10 20 -5 0 -10 -4 -10 -10z"/>
<path d="M620 490 c0 -16 -4 -30 -10 -30 -5 0 -10 -9 -10 -20 0 -11 -4 -20
-10 -20 -5 0 -10 -16 -10 -35 0 -19 -4 -35 -10 -35 -5 0 -10 -4 -10 -10 0 -5
14 -10 30 -10 17 0 30 5 30 10 0 6 11 10 25 10 16 0 25 6 25 15 0 8 9 15 20
15 15 0 20 7 20 28 0 16 -8 34 -20 42 -11 8 -20 20 -20 28 0 16 -24 42 -39 42
-6 0 -11 -13 -11 -30z m51 -61 c24 -21 24 -29 -1 -29 -11 0 -20 -7 -20 -15 0
-9 -9 -15 -25 -15 -16 0 -25 6 -25 15 0 8 5 15 10 15 6 0 10 9 10 20 0 11 5
20 10 20 6 0 11 10 11 23 1 20 2 20 6 2 3 -11 14 -27 24 -36z"/>
</g>
</svg>
