<?xml version="1.0" standalone="no"?>
<!DOCTYPE svg PUBLIC "-//W3C//DTD SVG 20010904//EN"
 "http://www.w3.org/TR/2001/REC-SVG-20010904/DTD/svg10.dtd">
<svg version="1.0" xmlns="http://www.w3.org/2000/svg"
 width="100.000000pt" height="100.000000pt" viewBox="0 0 100.000000 100.000000"
 preserveAspectRatio="xMidYMid meet">
<metadata>
Created by potrace 1.16, written by Peter Selinger 2001-2019
</metadata>
<g transform="translate(0.000000,100.000000) scale(0.100000,-0.100000)"
fill="#000000" stroke="none">
<path d="M110 645 c0 -61 -1 -65 -23 -65 -42 0 -47 -16 -47 -157 l0 -133 423
2 422 3 3 143 3 142 -90 0 -90 0 -3 33 c-3 32 -3 32 -65 35 -62 3 -63 3 -63
32 l0 30 -103 0 c-106 0 -127 -7 -127 -42 0 -14 -8 -18 -40 -18 -38 0 -40 2
-40 30 l0 30 -80 0 -80 0 0 -65z m140 20 c0 -19 -4 -23 -17 -18 -10 4 -23 14
-30 22 -11 14 -12 12 -13 -11 l0 -28 125 0 125 0 0 30 0 30 60 0 c57 0 60 -1
60 -24 0 -19 -4 -23 -20 -19 -11 3 -20 9 -20 14 0 5 -4 9 -10 9 -5 0 -10 -7
-10 -16 0 -11 -6 -14 -20 -9 -11 4 -20 2 -20 -4 0 -7 30 -11 80 -11 l80 0 0
-35 0 -35 125 0 125 0 0 -90 0 -90 -30 0 c-28 0 -30 -3 -30 -35 l0 -35 -375 0
-375 0 0 95 0 95 65 0 65 0 0 30 c0 27 -3 30 -30 30 l-30 0 0 65 0 65 60 0
c57 0 60 -1 60 -25z m170 5 c0 -15 -7 -20 -25 -20 -18 0 -25 5 -25 20 0 15 7
20 25 20 18 0 25 -5 25 -20z m270 -65 c0 -20 -5 -25 -24 -25 -17 0 -25 7 -28
25 -5 22 -2 25 23 25 24 0 29 -4 29 -25z m-580 -65 c0 -15 -7 -20 -25 -20 -18
0 -25 5 -25 20 0 15 7 20 25 20 18 0 25 -5 25 -20z m60 -11 c0 -5 -9 -9 -20
-9 -11 0 -20 6 -20 14 0 9 7 12 20 9 11 -3 20 -9 20 -14z m700 -189 c0 -25 -4
-30 -24 -30 -19 0 -22 4 -19 24 3 14 13 27 22 29 9 3 17 5 19 6 1 0 2 -12 2
-29z"/>
<path d="M150 640 c0 -5 7 -10 16 -10 8 0 12 5 9 10 -3 6 -10 10 -16 10 -5 0
-9 -4 -9 -10z"/>
<path d="M310 591 c0 -28 3 -31 30 -31 27 0 30 3 30 31 0 17 -4 28 -10 24 -5
-3 -10 -13 -10 -21 0 -8 -4 -14 -10 -14 -5 0 -10 6 -10 14 0 8 -4 18 -10 21
-6 4 -10 -7 -10 -24z"/>
<path d="M170 595 c0 -8 5 -15 10 -15 6 0 10 7 10 15 0 8 -4 15 -10 15 -5 0
-10 -7 -10 -15z"/>
<path d="M250 585 c0 -18 -5 -25 -20 -25 -22 0 -27 -15 -7 -24 10 -5 10 -7 0
-12 -20 -9 -15 -24 7 -24 16 0 20 7 20 30 0 23 4 30 20 30 11 0 20 5 20 10 0
6 -4 10 -10 10 -5 0 -10 7 -10 15 0 8 -4 15 -10 15 -5 0 -10 -11 -10 -25z"/>
<path d="M420 595 c0 -8 -7 -15 -15 -15 -8 0 -15 -4 -15 -10 0 -5 11 -10 25
-10 20 0 25 5 25 25 0 14 -4 25 -10 25 -5 0 -10 -7 -10 -15z"/>
<path d="M560 585 c0 -18 5 -25 20 -25 11 0 20 5 20 10 0 6 -4 10 -10 10 -5 0
-10 7 -10 15 0 8 -4 15 -10 15 -5 0 -10 -11 -10 -25z"/>
<path d="M690 522 c0 -18 6 -22 28 -21 15 0 20 3 12 6 -8 3 -21 12 -27 21 -11
14 -13 13 -13 -6z"/>
<path d="M751 523 c-1 -17 5 -23 19 -23 11 0 20 5 20 10 0 6 -6 10 -14 10 -8
0 -17 6 -19 13 -3 6 -6 2 -6 -10z"/>
<path d="M810 520 c0 -13 7 -20 20 -20 24 0 25 6 6 26 -20 19 -26 18 -26 -6z"/>
<path d="M811 464 c0 -11 3 -14 6 -6 3 7 2 16 -1 19 -3 4 -6 -2 -5 -13z"/>
<path d="M90 433 c8 -3 21 -12 28 -21 10 -14 12 -13 12 6 0 18 -6 22 -27 21
-16 0 -21 -3 -13 -6z"/>
<path d="M810 420 c0 -11 5 -20 10 -20 6 0 10 6 10 14 0 8 6 17 13 19 6 3 2 6
-10 6 -17 1 -23 -5 -23 -19z"/>
<path d="M75 370 c3 -5 13 -10 21 -10 8 0 14 -7 14 -15 0 -8 5 -15 10 -15 6 0
10 9 10 21 0 15 4 19 16 15 9 -3 18 -6 20 -6 2 0 4 -7 4 -15 0 -8 5 -15 10
-15 6 0 10 8 10 18 0 15 11 17 90 17 79 0 90 -2 90 -17 0 -10 5 -18 10 -18 6
0 10 7 10 15 0 21 38 19 43 -2 4 -17 5 -17 6 0 1 21 41 24 41 2 0 -8 5 -15 10
-15 6 0 10 11 10 25 l0 25 -216 0 c-141 0 -213 -3 -209 -10z"/>
<path d="M532 368 c9 -7 18 -20 21 -28 3 -8 6 -3 6 13 1 21 -3 27 -21 27 -19
0 -20 -2 -6 -12z"/>
<path d="M750 355 c0 -14 5 -25 10 -25 6 0 10 5 10 11 0 7 8 18 18 25 15 12
14 13 -10 14 -23 0 -28 -4 -28 -25z"/>
</g>
</svg>
