<?xml version="1.0" standalone="no"?>
<!DOCTYPE svg PUBLIC "-//W3C//DTD SVG 20010904//EN"
 "http://www.w3.org/TR/2001/REC-SVG-20010904/DTD/svg10.dtd">
<svg version="1.0" xmlns="http://www.w3.org/2000/svg"
 width="228.000000pt" height="228.000000pt" viewBox="0 0 228.000000 228.000000"
 preserveAspectRatio="xMidYMid meet">
<metadata>
Created by potrace 1.16, written by Peter Selinger 2001-2019
</metadata>
<g transform="translate(0.000000,228.000000) scale(0.100000,-0.100000)"
fill="#000000" stroke="none">
<path d="M408 1592 c-10 -2 -21 -16 -24 -30 -4 -15 -18 -49 -30 -76 -13 -28
-24 -65 -24 -83 0 -39 7 -44 159 -118 64 -31 96 -52 88 -57 -19 -12 -115 -9
-207 7 -117 21 -157 20 -170 -4 -17 -32 -12 -221 7 -281 14 -45 23 -55 67 -81
28 -16 88 -41 133 -55 72 -22 99 -25 226 -26 101 0 152 4 169 13 15 9 75 15
178 17 130 3 162 1 200 -14 36 -14 87 -18 260 -21 220 -4 311 2 413 31 122 34
237 109 263 173 19 44 18 149 -2 207 -9 26 -32 63 -50 81 -39 40 -61 43 -219
33 -202 -13 -332 40 -500 204 -63 62 -73 68 -110 68 -33 0 -53 -9 -105 -47
-36 -26 -111 -76 -168 -110 l-104 -62 -150 75 c-107 53 -160 87 -187 115 -36
40 -66 50 -113 41z m86 -55 c30 -31 85 -65 201 -124 l160 -82 60 32 c73 39
154 91 237 152 34 25 71 45 83 45 12 0 49 -28 90 -68 86 -83 125 -112 202
-151 104 -53 160 -63 323 -56 133 6 148 4 176 -13 62 -40 101 -171 74 -253
-31 -92 -215 -193 -371 -204 -20 -1 -40 -5 -45 -8 -5 -3 -86 -3 -179 -1 -94 3
-192 5 -218 4 -31 -1 -58 5 -74 16 -38 25 -360 26 -416 1 -31 -13 -64 -16
-180 -13 -152 4 -211 17 -313 71 -67 35 -80 65 -89 201 -9 152 -10 151 121
129 54 -10 128 -18 164 -19 62 -1 160 19 160 33 0 3 -31 19 -68 36 -109 48
-233 116 -239 131 -3 8 7 39 21 69 14 31 26 61 26 67 0 15 30 48 43 48 6 0 29
-19 51 -43z"/>
</g>
</svg>
