<?xml version="1.0" standalone="no"?>
<!DOCTYPE svg PUBLIC "-//W3C//DTD SVG 20010904//EN"
 "http://www.w3.org/TR/2001/REC-SVG-20010904/DTD/svg10.dtd">
<svg version="1.0" xmlns="http://www.w3.org/2000/svg"
 width="256.000000pt" height="256.000000pt" viewBox="0 0 256.000000 256.000000"
 preserveAspectRatio="xMidYMid meet">
<metadata>
Created by potrace 1.16, written by Peter Selinger 2001-2019
</metadata>
<g transform="translate(0.000000,256.000000) scale(0.100000,-0.100000)"
fill="#000000" stroke="none">
<path d="M447 1772 c-10 -10 -17 -24 -17 -30 0 -7 -13 -41 -30 -75 -31 -65
-37 -101 -21 -126 5 -7 73 -46 151 -86 100 -51 137 -74 125 -78 -29 -12 -157
-7 -245 8 -103 18 -162 19 -178 3 -8 -8 -12 -56 -12 -151 0 -193 19 -231 140
-284 61 -27 148 -55 190 -61 63 -8 332 -3 344 7 7 6 55 16 107 22 111 14 299
1 367 -25 37 -14 85 -16 306 -16 144 1 280 6 302 11 21 6 58 14 81 19 128 28
289 127 318 196 22 53 20 171 -5 237 -22 60 -70 114 -108 124 -14 3 -94 3
-179 -1 -124 -5 -166 -3 -216 10 -125 31 -249 108 -358 219 -70 72 -75 75
-119 75 -36 0 -57 -7 -91 -31 -97 -68 -250 -167 -293 -190 l-46 -24 -172 89
c-127 66 -184 101 -214 133 -33 35 -47 43 -76 43 -21 0 -41 -7 -51 -18z m107
-45 c31 -33 87 -68 223 -138 l182 -94 47 23 c56 28 181 107 283 179 42 31 85
53 99 53 19 0 47 -22 105 -80 94 -95 196 -161 310 -202 l82 -29 178 6 c153 5
182 3 206 -11 58 -34 101 -132 101 -230 0 -29 -4 -56 -10 -59 -5 -3 -10 -15
-10 -25 0 -41 -138 -133 -250 -168 -131 -40 -149 -45 -174 -40 -15 3 -29 2
-32 -3 -6 -11 -174 -9 -196 2 -10 6 -19 5 -23 -1 -8 -13 -72 -13 -80 0 -5 8
-11 8 -20 0 -9 -7 -27 -8 -52 -4 -21 5 -42 7 -48 5 -24 -8 -92 1 -114 16 -52
34 -465 27 -487 -8 -7 -12 -71 -11 -79 1 -5 8 -11 8 -19 1 -13 -11 -173 -14
-190 -3 -6 3 -23 5 -38 3 -15 -1 -37 3 -50 11 -13 7 -31 13 -40 14 -24 2 -118
43 -150 65 -50 36 -61 72 -66 215 -3 108 -1 132 11 143 13 10 41 8 153 -10 83
-13 159 -19 193 -16 60 5 141 26 140 36 0 3 -76 43 -169 88 -175 86 -198 106
-167 141 8 9 17 26 20 37 24 83 49 125 75 125 9 0 34 -20 56 -43z"/>
</g>
</svg>
