<?xml version="1.0" standalone="no"?>
<!DOCTYPE svg PUBLIC "-//W3C//DTD SVG 20010904//EN"
 "http://www.w3.org/TR/2001/REC-SVG-20010904/DTD/svg10.dtd">
<svg version="1.0" xmlns="http://www.w3.org/2000/svg"
 width="100.000000pt" height="100.000000pt" viewBox="0 0 100.000000 100.000000"
 preserveAspectRatio="xMidYMid meet">
<metadata>
Created by potrace 1.16, written by Peter Selinger 2001-2019
</metadata>
<g transform="translate(0.000000,100.000000) scale(0.100000,-0.100000)"
fill="#000000" stroke="none">
<path d="M147 673 c-4 -3 -7 -32 -7 -64 l0 -58 -32 -3 -33 -3 0 -84 c0 -73 3
-85 20 -95 11 -6 26 -19 33 -28 12 -17 41 -18 357 -18 334 0 345 1 357 20 7
11 21 20 30 20 10 0 18 7 18 15 0 8 9 15 20 15 18 0 20 7 20 80 0 73 -2 80
-20 80 -11 0 -20 7 -20 15 0 12 -18 15 -104 15 -80 0 -106 3 -116 15 -7 8 -23
15 -36 15 -17 0 -24 6 -24 20 0 11 -7 20 -15 20 -8 0 -15 7 -15 16 0 12 -10
14 -52 12 -38 -2 -52 -7 -50 -16 1 -8 -1 -11 -5 -9 -14 8 -53 -12 -53 -28 0
-11 -11 -15 -44 -15 -35 0 -45 4 -49 20 -3 13 -14 20 -30 20 -14 0 -27 7 -31
15 -4 11 -21 15 -59 15 -30 0 -57 -3 -60 -7z m27 -28 c-4 -8 -1 -15 5 -15 6 0
11 7 11 15 0 8 7 15 15 15 8 0 15 -7 15 -15 0 -10 10 -15 30 -15 23 0 30 -4
30 -20 0 -17 7 -20 45 -20 25 0 45 -4 45 -10 0 -5 -7 -7 -15 -4 -8 4 -15 1
-15 -5 0 -7 20 -11 50 -11 28 0 50 4 50 10 0 5 -7 7 -15 4 -8 -4 -15 -1 -15 5
0 6 14 11 30 11 23 0 30 4 30 20 0 17 7 20 43 21 29 2 34 3 15 6 -37 6 -36 23
2 23 20 0 30 -5 30 -15 0 -8 7 -15 15 -15 8 0 15 -9 15 -20 0 -11 7 -20 15
-20 8 0 15 -7 15 -15 0 -13 21 -15 125 -15 l125 0 0 -70 c0 -38 4 -70 9 -70 5
0 8 18 7 40 -1 22 2 40 7 40 5 0 4 7 -3 15 -10 12 -10 15 4 15 13 0 16 -11 16
-60 0 -53 -2 -60 -20 -60 -11 0 -20 -7 -20 -15 0 -13 -21 -15 -125 -15 -75 0
-125 -4 -125 -10 0 -5 28 -9 63 -8 98 1 127 -1 127 -12 0 -6 -115 -10 -325
-10 -231 0 -325 3 -325 11 0 6 7 9 15 5 8 -3 15 -2 15 2 0 4 36 6 80 6 44 -1
83 2 86 7 3 5 -44 9 -110 9 l-116 0 0 51 c0 34 -4 48 -11 43 -6 -3 -9 -19 -7
-35 3 -20 0 -29 -9 -29 -9 0 -13 14 -13 45 l0 45 80 0 c64 0 80 3 80 15 0 8
-7 15 -15 15 -8 0 -15 7 -15 15 0 10 -10 15 -30 15 -29 0 -30 1 -30 50 0 28 4
50 10 50 5 0 7 -7 4 -15z m136 -25 c0 -5 -4 -10 -10 -10 -5 0 -10 5 -10 10 0
6 5 10 10 10 6 0 10 -4 10 -10z m150 6 c0 -3 -4 -8 -10 -11 -5 -3 -10 -1 -10
4 0 6 5 11 10 11 6 0 10 -2 10 -4z m-255 -95 c-12 -11 -115 -19 -115 -9 0 4
24 9 53 11 28 2 56 4 62 5 5 1 5 -1 0 -7z m-100 -141 c3 -5 1 -10 -4 -10 -6 0
-11 5 -11 10 0 6 2 10 4 10 3 0 8 -4 11 -10z m40 -40 c3 -5 1 -10 -4 -10 -6 0
-11 5 -11 10 0 6 2 10 4 10 3 0 8 -4 11 -10z m695 0 c0 -5 -5 -10 -11 -10 -5
0 -7 5 -4 10 3 6 8 10 11 10 2 0 4 -4 4 -10z"/>
<path d="M181 604 c0 -11 3 -14 6 -6 3 7 2 16 -1 19 -3 4 -6 -2 -5 -13z"/>
<path d="M560 606 c0 -9 5 -16 10 -16 6 0 10 4 10 9 0 6 -4 13 -10 16 -5 3
-10 -1 -10 -9z"/>
<path d="M250 600 c0 -5 5 -10 11 -10 5 0 7 5 4 10 -3 6 -8 10 -11 10 -2 0 -4
-4 -4 -10z"/>
<path d="M485 600 c-3 -5 -1 -10 4 -10 6 0 11 5 11 10 0 6 -2 10 -4 10 -3 0
-8 -4 -11 -10z"/>
<path d="M590 570 c0 -5 5 -10 11 -10 5 0 7 5 4 10 -3 6 -8 10 -11 10 -2 0 -4
-4 -4 -10z"/>
<path d="M660 539 c0 -5 46 -9 102 -9 56 0 98 3 94 7 -10 11 -196 12 -196 2z"/>
<path d="M260 515 c0 -8 5 -15 10 -15 6 0 10 7 10 15 0 8 -4 15 -10 15 -5 0
-10 -7 -10 -15z"/>
<path d="M840 399 c0 -5 5 -7 10 -4 6 3 10 8 10 11 0 2 -4 4 -10 4 -5 0 -10
-5 -10 -11z"/>
<path d="M370 370 c0 -7 30 -10 80 -9 44 1 80 6 80 10 0 5 -36 9 -80 9 -49 0
-80 -4 -80 -10z"/>
<path d="M590 370 c0 -5 5 -10 10 -10 6 0 10 5 10 10 0 6 -4 10 -10 10 -5 0
-10 -4 -10 -10z"/>
</g>
</svg>
