<?xml version="1.0" standalone="no"?>
<!DOCTYPE svg PUBLIC "-//W3C//DTD SVG 20010904//EN"
 "http://www.w3.org/TR/2001/REC-SVG-20010904/DTD/svg10.dtd">
<svg version="1.0" xmlns="http://www.w3.org/2000/svg"
 width="256.000000pt" height="256.000000pt" viewBox="0 0 256.000000 256.000000"
 preserveAspectRatio="xMidYMid meet">
<metadata>
Created by potrace 1.16, written by Peter Selinger 2001-2019
</metadata>
<g transform="translate(0.000000,256.000000) scale(0.100000,-0.100000)"
fill="#000000" stroke="none">
<path d="M887 2550 c-21 -4 -61 -17 -90 -29 -128 -55 -197 -89 -207 -100 -3
-3 -17 -13 -31 -21 -53 -30 -106 -69 -144 -104 -21 -20 -40 -36 -42 -36 -5 0
-73 -68 -73 -73 0 -2 -16 -21 -36 -42 -20 -21 -47 -57 -62 -79 -14 -22 -31
-47 -39 -54 -7 -7 -13 -18 -13 -23 0 -6 -11 -25 -25 -43 -14 -18 -25 -37 -25
-42 0 -5 -9 -27 -19 -49 -53 -109 -71 -165 -76 -236 -5 -73 -4 -74 9 -34 8 22
15 51 15 64 1 23 32 104 72 186 10 22 19 44 19 49 0 5 11 24 25 42 14 18 25
37 25 43 0 6 5 11 12 11 6 0 9 3 5 6 -3 3 1 13 8 22 8 10 25 33 38 52 13 19
29 34 35 33 6 -2 9 3 6 11 -3 7 6 23 20 34 14 11 26 23 26 26 0 7 67 76 73 76
2 0 21 16 42 36 38 35 91 74 144 104 14 8 28 18 31 21 18 21 265 129 296 129
11 0 39 7 64 14 l45 15 -45 -1 c-25 0 -62 -4 -83 -8z"/>
<path d="M1585 2546 c22 -8 51 -15 64 -15 23 -1 104 -32 186 -72 22 -10 44
-19 49 -19 5 0 24 -11 42 -25 18 -14 37 -25 43 -25 6 0 11 -5 11 -12 0 -6 3
-9 6 -5 3 3 13 -1 22 -8 10 -8 33 -25 52 -38 19 -13 34 -29 33 -35 -2 -6 3 -9
11 -6 7 3 23 -6 34 -20 11 -14 23 -26 26 -26 7 0 76 -67 76 -73 0 -2 16 -21
36 -42 35 -38 74 -91 104 -144 8 -14 18 -28 21 -31 21 -18 129 -265 129 -296
0 -11 7 -39 15 -64 l15 -45 -5 74 c-5 71 -18 111 -77 241 -26 57 -50 104 -57
110 -3 3 -13 17 -21 31 -30 53 -69 106 -104 144 -20 21 -36 40 -36 42 0 5 -68
73 -73 73 -2 0 -21 16 -42 36 -21 20 -57 47 -79 62 -22 14 -47 31 -54 39 -7 7
-18 13 -23 13 -6 0 -25 11 -43 25 -18 14 -37 25 -42 25 -5 0 -27 9 -49 19
-109 53 -165 71 -236 76 -73 5 -74 4 -34 -9z"/>
<path d="M2222 2118 c3 -7 13 -15 24 -17 16 -3 17 -1 5 13 -16 19 -34 21 -29
4z"/>
<path d="M1265 1652 c-17 -9 -64 -40 -105 -68 -83 -57 -171 -104 -194 -104 -9
0 -120 41 -248 90 -128 50 -242 90 -253 90 -43 0 -62 -26 -68 -92 -4 -35 -3
-81 1 -103 7 -38 11 -42 80 -75 39 -19 72 -37 72 -40 0 -3 -59 -11 -132 -17
-164 -14 -182 -24 -186 -105 -2 -30 4 -88 13 -129 36 -176 94 -193 655 -188
221 2 400 -2 499 -10 94 -8 243 -11 385 -9 207 4 237 7 291 27 96 35 208 96
229 125 42 56 27 235 -27 313 -36 54 -68 63 -224 63 -205 0 -246 9 -398 85
-71 36 -159 88 -195 115 -58 44 -70 49 -115 49 -29 0 -63 -7 -80 -17z m151
-35 c88 -74 283 -178 379 -203 51 -13 114 -18 230 -19 107 -1 169 -6 187 -15
14 -7 39 -35 54 -64 23 -42 29 -67 32 -138 3 -68 1 -93 -11 -111 -19 -29 -133
-90 -229 -123 -69 -23 -80 -24 -364 -24 -161 0 -326 4 -366 10 -91 12 -126 13
-527 11 -343 -2 -405 4 -463 42 -50 33 -70 85 -76 191 -4 74 -2 94 11 104 21
18 111 31 265 39 72 3 132 9 132 13 0 3 -21 14 -47 24 -27 9 -82 34 -123 55
l-75 37 -3 72 c-3 80 8 112 40 112 12 0 128 -41 259 -91 l238 -91 51 17 c28 9
101 51 162 92 162 108 180 113 244 60z"/>
<path d="M5 941 c5 -71 18 -111 77 -241 26 -57 50 -104 57 -110 3 -3 13 -17
21 -31 30 -53 69 -106 104 -144 20 -21 36 -40 36 -42 0 -5 68 -73 73 -73 2 0
21 -16 42 -36 21 -20 57 -47 79 -62 22 -14 47 -31 54 -39 7 -7 18 -13 23 -13
6 0 25 -11 43 -25 18 -14 37 -25 42 -25 5 0 27 -9 49 -19 109 -53 165 -71 236
-76 73 -5 74 -4 34 9 -22 8 -51 15 -64 15 -23 1 -104 32 -186 72 -22 10 -44
19 -49 19 -5 0 -24 11 -42 25 -18 14 -37 25 -43 25 -6 0 -11 5 -11 12 0 6 -3
9 -6 5 -3 -3 -13 1 -22 8 -10 8 -33 25 -52 38 -19 13 -34 29 -33 35 2 6 -3 9
-11 6 -7 -3 -23 6 -34 20 -11 14 -23 26 -26 26 -7 0 -76 67 -76 73 0 2 -16 21
-36 42 -35 38 -74 91 -104 144 -8 14 -18 28 -21 31 -21 18 -129 265 -129 296
0 11 -7 39 -15 64 l-15 45 5 -74z"/>
<path d="M2541 966 c-6 -25 -11 -52 -11 -62 0 -16 -34 -104 -71 -179 -10 -22
-19 -44 -19 -49 0 -5 -11 -24 -25 -42 -14 -18 -25 -37 -25 -43 0 -6 -5 -11
-12 -11 -6 0 -9 -3 -5 -6 3 -3 -1 -13 -8 -22 -8 -10 -25 -33 -38 -52 -13 -19
-29 -34 -35 -33 -6 2 -9 -3 -6 -11 3 -7 -6 -23 -20 -34 -14 -11 -26 -23 -26
-26 0 -7 -67 -76 -73 -76 -2 0 -21 -16 -42 -36 -38 -35 -91 -74 -144 -104 -14
-8 -28 -18 -31 -21 -18 -21 -265 -129 -296 -129 -11 0 -39 -7 -64 -15 l-45
-15 74 5 c71 5 111 18 241 77 57 26 104 50 110 57 3 3 17 13 31 21 53 30 106
69 144 104 21 20 40 36 42 36 5 0 73 68 73 73 0 2 16 21 36 42 20 21 47 57 62
79 14 22 31 47 39 54 7 7 13 18 13 23 0 6 11 25 25 43 14 18 25 37 25 42 0 5
9 27 19 49 50 103 71 167 77 233 4 40 5 72 2 72 -3 0 -11 -20 -17 -44z"/>
<path d="M2220 440 c0 -5 4 -10 9 -10 6 0 13 5 16 10 3 6 -1 10 -9 10 -9 0
-16 -4 -16 -10z"/>
<path d="M430 331 c0 -6 5 -13 10 -16 6 -3 10 1 10 9 0 9 -4 16 -10 16 -5 0
-10 -4 -10 -9z"/>
</g>
</svg>
