<?xml version="1.0" standalone="no"?>
<!DOCTYPE svg PUBLIC "-//W3C//DTD SVG 20010904//EN"
 "http://www.w3.org/TR/2001/REC-SVG-20010904/DTD/svg10.dtd">
<svg version="1.0" xmlns="http://www.w3.org/2000/svg"
 width="192.000000pt" height="192.000000pt" viewBox="0 0 192.000000 192.000000"
 preserveAspectRatio="xMidYMid meet">
<metadata>
Created by potrace 1.16, written by Peter Selinger 2001-2019
</metadata>
<g transform="translate(0.000000,192.000000) scale(0.100000,-0.100000)"
fill="#000000" stroke="none">
<path d="M489 1686 c-193 -34 -363 -195 -414 -393 -20 -76 -19 -225 1 -294 80
-270 300 -429 594 -429 201 0 398 79 542 218 l67 64 6 -38 c23 -150 94 -228
192 -209 41 7 115 72 133 116 l13 30 18 -30 c41 -67 97 -102 168 -105 l46 -1
3 68 3 67 -28 0 c-88 0 -134 126 -103 280 8 40 7 47 -12 63 -22 19 -103 24
-113 7 -4 -6 -17 -50 -30 -98 -33 -122 -63 -200 -88 -222 -15 -14 -17 -20 -6
-20 21 0 35 12 51 45 15 30 57 162 78 243 11 43 11 43 53 40 l42 -3 -4 -110
c-2 -87 1 -119 14 -153 20 -49 66 -92 101 -92 22 0 24 -4 24 -50 0 -55 -2 -56
-63 -39 -42 11 -113 69 -122 100 -9 27 -52 25 -60 -2 -12 -36 -84 -107 -116
-114 -47 -11 -96 12 -128 58 -27 40 -32 55 -45 137 -9 55 -39 50 -111 -19
-248 -238 -656 -281 -895 -94 -88 69 -110 88 -110 99 0 6 -10 21 -22 34 -42
45 -82 174 -86 278 -6 160 38 289 135 393 57 60 156 129 187 129 9 0 16 4 16
8 0 5 42 14 93 21 102 13 227 2 280 -26 16 -8 38 -16 48 -18 29 -6 93 -59 137
-113 20 -26 40 -50 45 -53 4 -3 9 -15 12 -27 2 -11 9 -31 16 -44 17 -31 24
-194 10 -243 -15 -57 -66 -91 -118 -78 -50 11 -83 60 -83 119 0 49 34 145 56
157 8 4 14 21 14 38 0 35 -72 119 -102 119 -10 0 -21 6 -24 14 -11 28 -109 49
-212 44 -53 -2 -106 -9 -117 -14 -11 -6 -41 -21 -68 -34 -43 -21 -86 -62 -144
-136 -38 -49 -63 -139 -63 -229 0 -79 19 -162 44 -195 7 -8 18 -28 26 -43 38
-76 188 -183 291 -206 71 -17 199 -13 281 8 146 38 311 152 388 270 8 13 22
30 30 39 16 16 28 36 57 90 17 32 19 33 63 27 25 -4 46 -8 47 -9 1 -1 -3 -22
-8 -46 -6 -25 -12 -92 -12 -150 -2 -100 -1 -107 26 -144 29 -42 38 -32 10 11
-15 22 -18 47 -16 133 1 58 8 128 16 157 11 43 12 53 1 57 -27 11 -109 17
-120 9 -6 -4 -24 -33 -42 -63 -102 -178 -279 -320 -457 -365 -68 -17 -189 -19
-254 -4 -150 34 -287 160 -336 308 -26 81 -18 207 20 286 42 89 123 165 212
199 64 26 80 28 165 24 77 -4 103 -9 151 -33 90 -45 154 -127 116 -151 -6 -3
-22 -30 -35 -58 -50 -108 -23 -215 62 -245 37 -13 44 -12 79 5 65 32 79 62 83
171 3 77 0 107 -18 162 -51 158 -197 275 -380 301 -81 12 -117 11 -201 -4z"/>
</g>
</svg>
