<?xml version="1.0" standalone="no"?>
<!DOCTYPE svg PUBLIC "-//W3C//DTD SVG 20010904//EN"
 "http://www.w3.org/TR/2001/REC-SVG-20010904/DTD/svg10.dtd">
<svg version="1.0" xmlns="http://www.w3.org/2000/svg"
 width="192.000000pt" height="192.000000pt" viewBox="0 0 192.000000 192.000000"
 preserveAspectRatio="xMidYMid meet">
<metadata>
Created by potrace 1.16, written by Peter Selinger 2001-2019
</metadata>
<g transform="translate(0.000000,192.000000) scale(0.100000,-0.100000)"
fill="#000000" stroke="none">
<path d="M320 1878 c-6 -24 -17 -59 -25 -78 -8 -19 -35 -96 -61 -170 -26 -74
-50 -139 -54 -145 -4 -5 -22 -53 -40 -105 -18 -52 -43 -121 -56 -153 -44 -105
-84 -241 -83 -282 0 -22 2 -35 4 -30 2 6 19 60 39 122 19 61 46 138 59 170 14
32 39 101 57 153 18 52 36 100 40 105 4 6 28 71 54 145 26 74 53 151 61 170 8
19 18 51 23 70 6 19 13 43 17 53 5 12 2 17 -9 17 -10 0 -19 -15 -26 -42z"/>
<path d="M446 1911 c57 -52 128 -111 219 -180 22 -17 45 -34 50 -39 6 -4 28
-19 50 -32 22 -13 42 -27 45 -30 18 -22 242 -142 350 -188 179 -76 279 -97
460 -97 111 0 163 5 223 20 75 19 100 35 54 35 -13 0 -48 -8 -78 -17 -76 -25
-296 -24 -399 0 -134 32 -250 77 -390 150 -84 44 -192 107 -200 117 -3 3 -23
17 -45 30 -22 13 -44 28 -50 32 -5 5 -28 22 -50 39 -80 61 -110 85 -157 127
-27 23 -58 42 -70 42 -13 0 -18 -4 -12 -9z"/>
<path d="M407 1783 c-12 -20 -18 -73 -8 -73 13 0 17 8 26 48 6 29 -6 45 -18
25z"/>
<path d="M474 1739 c-6 -10 41 -58 59 -59 17 0 4 27 -23 48 -19 15 -31 19 -36
11z"/>
<path d="M356 1626 c-3 -13 -9 -31 -12 -40 -4 -10 -1 -16 8 -16 15 0 41 64 30
74 -11 12 -20 5 -26 -18z"/>
<path d="M595 1640 c-4 -6 -5 -13 -4 -14 45 -34 69 -43 69 -27 0 17 -58 52
-65 41z"/>
<path d="M716 1552 c-6 -10 47 -52 64 -52 18 0 10 16 -20 38 -33 24 -37 26
-44 14z"/>
<path d="M317 1503 c-2 -4 -8 -23 -12 -42 -9 -43 15 -39 27 4 7 28 -4 57 -15
38z"/>
<path d="M844 1469 c-3 -6 -4 -11 -3 -13 53 -35 79 -44 79 -27 0 15 -69 51
-76 40z"/>
<path d="M980 1387 c0 -16 56 -41 71 -31 8 4 0 14 -22 25 -41 22 -49 23 -49 6z"/>
<path d="M262 1332 c-7 -23 -8 -40 -2 -46 6 -6 11 -4 14 5 3 8 10 26 15 41 7
19 7 28 -3 31 -8 3 -17 -8 -24 -31z"/>
<path d="M1116 1321 c-6 -9 44 -31 70 -31 25 0 14 18 -17 29 -39 13 -46 14
-53 2z"/>
<path d="M1017 1243 l-7 -38 -64 -2 c-122 -2 -196 -73 -196 -186 0 -85 40
-139 178 -239 64 -46 82 -65 82 -84 0 -55 -108 -16 -201 73 -34 32 -68 71 -76
86 -8 16 -16 27 -19 24 -2 -2 -20 -60 -40 -127 -28 -98 -33 -129 -25 -147 17
-36 87 -108 147 -149 36 -25 53 -43 49 -53 -14 -48 -23 -107 -17 -112 4 -3 59
-34 123 -67 l117 -61 6 47 c4 26 9 63 12 82 l5 35 72 0 c94 0 156 24 202 78
42 49 55 90 55 178 0 121 -77 223 -235 308 -91 50 -115 68 -115 89 0 37 156
-24 258 -100 l62 -47 0 42 c0 23 3 71 6 107 l6 65 -57 37 c-32 21 -79 47 -106
59 -48 22 -49 23 -43 59 l6 36 -69 17 c-37 9 -77 19 -89 23 -18 5 -22 0 -27
-33z m102 -15 c50 -11 51 -12 51 -49 0 -36 2 -38 73 -74 39 -19 85 -46 100
-59 26 -21 28 -27 25 -89 l-3 -66 -60 40 c-111 73 -246 105 -260 60 -12 -40
11 -66 105 -116 169 -91 244 -183 244 -301 0 -85 -33 -148 -97 -188 -41 -25
-61 -30 -140 -35 l-92 -6 -9 -65 c-4 -36 -10 -67 -11 -69 -2 -1 -45 19 -95 45
l-92 48 7 66 7 66 -74 56 c-40 30 -86 73 -101 96 l-29 41 26 87 c14 48 27 89
29 91 2 1 17 -14 34 -35 93 -115 283 -174 283 -88 0 43 -11 57 -106 127 -142
104 -183 175 -149 256 9 20 23 46 33 57 29 32 93 56 155 56 56 0 58 1 64 30 6
34 11 35 82 18z"/>
<path d="M1262 1269 c5 -15 57 -31 77 -24 22 8 1 22 -43 31 -30 5 -38 4 -34
-7z"/>
<path d="M1751 1261 c-14 -3 -26 -12 -29 -19 -4 -14 8 -15 42 -2 23 8 25 7 28
-23 4 -44 23 -36 23 11 0 40 -14 48 -64 33z"/>
<path d="M1415 1240 c-10 -15 -6 -17 39 -22 25 -2 41 2 43 10 3 7 -5 12 -20
12 -14 0 -32 3 -40 6 -8 3 -18 0 -22 -6z"/>
<path d="M1570 1225 c0 -11 11 -15 40 -15 29 0 40 4 40 15 0 11 -11 15 -40 15
-29 0 -40 -4 -40 -15z"/>
<path d="M216 1190 c-8 -44 -8 -44 2 -48 5 -1 12 8 16 22 3 13 9 31 12 40 4
10 1 16 -9 16 -8 0 -17 -13 -21 -30z"/>
<path d="M1790 1081 c0 -23 5 -41 10 -41 6 0 10 14 10 30 0 17 0 33 1 37 0 4
-4 9 -10 11 -7 2 -11 -12 -11 -37z"/>
<path d="M171 1049 c-14 -41 -14 -49 3 -49 11 0 26 40 26 71 0 21 -19 6 -29
-22z"/>
<path d="M1789 968 c0 -2 -1 -20 -3 -40 -2 -27 1 -38 11 -38 9 0 13 13 13 40
0 22 -4 40 -10 40 -5 0 -10 -1 -11 -2z"/>
<path d="M127 918 c-2 -13 -8 -31 -12 -40 -5 -12 -3 -18 7 -18 15 0 41 57 32
71 -9 16 -22 9 -27 -13z"/>
<path d="M1780 780 c0 -22 5 -40 10 -40 6 0 10 8 10 18 0 9 3 27 6 40 5 16 2
22 -10 22 -12 0 -16 -10 -16 -40z"/>
<path d="M0 757 c0 -91 101 -300 207 -423 86 -102 237 -203 392 -264 96 -38
240 -70 305 -69 33 1 50 4 36 6 -309 50 -568 176 -713 347 -74 86 -152 224
-191 338 -30 88 -35 97 -36 65z"/>
<path d="M130 781 c0 -21 23 -72 32 -69 10 4 10 4 2 48 -6 26 -34 44 -34 21z"/>
<path d="M1770 630 c0 -29 4 -40 15 -40 11 0 15 11 15 40 0 29 -4 40 -15 40
-11 0 -15 -11 -15 -40z"/>
<path d="M180 643 c1 -5 9 -23 19 -42 22 -41 39 -25 21 20 -11 25 -41 42 -40
22z"/>
<path d="M260 508 c1 -20 38 -60 50 -53 6 4 1 18 -12 36 -23 31 -38 37 -38 17z"/>
<path d="M1770 480 c0 -22 5 -40 10 -40 6 0 10 11 10 24 0 13 3 31 6 40 4 11
1 16 -10 16 -12 0 -16 -10 -16 -40z"/>
<path d="M356 402 c-8 -14 51 -65 64 -57 8 5 2 17 -20 36 -34 32 -36 33 -44
21z"/>
<path d="M1760 330 c0 -29 4 -40 15 -40 11 0 15 11 15 40 0 29 -4 40 -15 40
-11 0 -15 -11 -15 -40z"/>
<path d="M477 303 c-8 -7 42 -43 61 -43 22 0 13 19 -18 35 -33 17 -34 17 -43
8z"/>
<path d="M610 230 c0 -5 16 -17 36 -25 44 -18 44 -18 44 -2 0 7 -15 18 -33 25
-41 15 -47 15 -47 2z"/>
<path d="M1760 179 c0 -52 24 -48 28 4 2 28 -1 37 -12 37 -12 0 -16 -11 -16
-41z"/>
<path d="M760 176 c0 -14 67 -32 78 -21 9 9 -11 22 -45 28 -24 5 -33 3 -33 -7z"/>
<path d="M910 140 c0 -10 68 -26 76 -17 4 3 3 10 -1 16 -8 14 -75 15 -75 1z"/>
<path d="M1062 118 c5 -15 77 -18 81 -3 1 6 -18 11 -42 13 -32 2 -42 0 -39
-10z"/>
<path d="M1217 114 c-13 -14 5 -24 44 -24 21 0 39 5 39 10 0 6 -11 10 -24 10
-13 0 -31 2 -38 5 -8 3 -17 3 -21 -1z"/>
<path d="M1370 96 c0 -12 10 -16 39 -16 22 0 43 5 46 10 3 6 -4 10 -17 10 -13
0 -33 3 -45 6 -17 5 -23 2 -23 -10z"/>
<path d="M1527 94 c-13 -14 6 -24 44 -24 28 0 39 4 39 15 0 11 -11 15 -38 15
-21 0 -42 -3 -45 -6z"/>
<path d="M1684 91 c-13 -14 1 -21 41 -21 25 0 45 4 45 9 0 9 -77 20 -86 12z"/>
</g>
</svg>
