<?xml version="1.0" standalone="no"?>
<!DOCTYPE svg PUBLIC "-//W3C//DTD SVG 20010904//EN"
 "http://www.w3.org/TR/2001/REC-SVG-20010904/DTD/svg10.dtd">
<svg version="1.0" xmlns="http://www.w3.org/2000/svg"
 width="100.000000pt" height="100.000000pt" viewBox="0 0 100.000000 100.000000"
 preserveAspectRatio="xMidYMid meet">
<metadata>
Created by potrace 1.16, written by Peter Selinger 2001-2019
</metadata>
<g transform="translate(0.000000,100.000000) scale(0.100000,-0.100000)"
fill="#000000" stroke="none">
<path d="M0 980 c0 -11 5 -20 10 -20 6 0 10 9 10 20 0 11 -4 20 -10 20 -5 0
-10 -9 -10 -20z"/>
<path d="M903 982 c-1 -11 6 -18 18 -19 23 -2 24 4 5 23 -19 18 -21 18 -23 -4z"/>
<path d="M980 980 c0 -11 5 -20 10 -20 6 0 10 9 10 20 0 11 -4 20 -10 20 -5 0
-10 -9 -10 -20z"/>
<path d="M60 970 c0 -5 9 -10 20 -10 11 0 20 5 20 10 0 6 -9 10 -20 10 -11 0
-20 -4 -20 -10z"/>
<path d="M964 924 c3 -9 6 -18 6 -20 0 -2 7 -4 15 -4 19 0 19 7 1 26 -19 19
-30 18 -22 -2z"/>
<path d="M20 910 c0 -5 5 -10 10 -10 6 0 10 5 10 10 0 6 -4 10 -10 10 -5 0
-10 -4 -10 -10z"/>
<path d="M250 890 c0 -5 5 -10 10 -10 6 0 10 5 10 10 0 6 -4 10 -10 10 -5 0
-10 -4 -10 -10z"/>
<path d="M173 860 c3 -13 -2 -15 -26 -12 -24 4 -29 2 -24 -11 4 -12 2 -14 -10
-10 -12 5 -15 2 -10 -10 4 -12 2 -14 -10 -10 -13 5 -15 2 -10 -11 4 -10 3 -15
-3 -11 -19 12 -43 -24 -34 -53 6 -22 8 -24 12 -8 5 21 66 86 82 86 5 0 10 5
10 10 0 6 15 10 33 10 24 0 28 3 17 10 -10 7 7 10 58 10 41 0 72 -4 72 -10 0
-5 9 -10 20 -10 11 0 20 -4 20 -10 0 -5 5 -10 10 -10 17 0 60 -47 60 -65 0 -9
-9 -15 -22 -15 -19 0 -20 -2 -8 -10 12 -8 9 -10 -12 -10 -14 0 -28 -5 -30 -12
-3 -8 -14 -3 -31 14 -18 18 -22 28 -14 31 7 3 -19 6 -56 6 -72 1 -97 -11 -97
-46 0 -15 -2 -16 -10 -3 -7 10 -10 -10 -10 -65 0 -55 3 -75 10 -65 8 13 10 12
10 -3 0 -34 25 -47 90 -47 65 0 90 13 90 47 0 15 2 16 10 3 8 -12 10 -11 10 8
0 20 5 22 55 22 l55 0 0 -32 c0 -25 -3 -29 -10 -18 -8 12 -10 11 -10 -7 0 -13
-4 -23 -10 -23 -5 0 -10 -7 -10 -16 0 -22 -25 -44 -49 -44 -12 0 -21 -4 -21
-10 0 -5 -10 -10 -22 -10 -19 0 -20 -2 -8 -10 10 -7 -15 -10 -80 -10 -65 0
-90 3 -80 10 12 8 11 10 -7 10 -13 0 -23 5 -23 10 0 6 -5 10 -11 10 -5 0 -7
-4 -4 -10 3 -5 1 -10 -4 -10 -6 0 -11 -4 -11 -10 0 -5 6 -10 14 -10 8 0 16 -6
19 -13 4 -10 -3 -12 -24 -9 -17 3 -29 0 -29 -7 0 -7 19 -11 48 -11 34 0 43 3
32 10 -11 7 1 9 40 8 54 -1 54 -1 15 -8 -36 -6 -32 -7 28 -9 39 0 67 3 67 9 0
6 9 10 20 10 11 0 20 5 20 10 0 6 7 10 15 10 18 0 20 16 3 23 -7 3 1 3 18 0
26 -4 32 -1 39 19 7 20 9 18 12 -16 3 -24 0 -42 -8 -46 -6 -5 -10 -22 -7 -42
3 -31 1 -34 -19 -30 -13 2 -23 8 -23 13 0 5 -11 9 -25 9 -14 0 -25 -3 -25 -6
0 -10 28 -34 39 -34 6 0 11 -4 11 -10 0 -15 29 -12 46 4 8 8 14 30 15 48 0 27
2 30 9 13 6 -14 9 1 10 50 2 51 4 63 10 45 6 -18 8 -8 9 40 1 46 4 61 11 50 8
-12 10 -11 10 5 0 11 9 27 20 35 20 14 29 37 10 25 -5 -3 -10 -1 -10 4 0 6 -5
11 -11 11 -6 0 -9 -8 -7 -18 4 -15 1 -18 -18 -14 -13 2 -24 10 -24 18 0 10
-15 12 -60 9 -58 -3 -90 -20 -90 -45 0 -23 -30 -40 -70 -40 -43 0 -70 17 -70
44 0 9 -4 16 -10 16 -5 0 -10 16 -10 35 0 19 5 35 10 35 6 0 10 9 10 20 0 11
5 20 11 20 6 0 9 6 6 13 -3 9 8 11 45 8 34 -2 51 -8 56 -20 3 -9 11 -22 18
-28 15 -15 74 -17 74 -3 0 6 7 10 15 10 22 0 73 52 57 58 -7 2 -12 10 -12 18
0 8 -16 31 -36 50 -25 26 -42 35 -58 32 -18 -4 -22 -1 -19 11 4 14 -9 16 -87
17 -80 1 -91 -1 -87 -16z"/>
<path d="M243 763 c9 -2 25 -2 35 0 9 3 1 5 -18 5 -19 0 -27 -2 -17 -5z"/>
<path d="M20 697 c0 -18 -5 -38 -10 -43 -8 -8 -8 -19 0 -38 5 -15 10 -43 10
-62 0 -21 4 -33 10 -29 6 3 10 -1 10 -9 0 -9 5 -16 10 -16 6 0 10 15 10 33 0
24 -3 28 -10 17 -7 -10 -10 16 -10 83 0 58 -4 97 -10 97 -5 0 -10 -15 -10 -33z"/>
<path d="M123 635 c0 -22 2 -30 4 -17 2 12 2 30 0 40 -3 9 -5 -1 -4 -23z"/>
<path d="M563 656 c4 -10 1 -13 -9 -9 -7 3 -14 0 -14 -6 0 -6 9 -11 20 -11 11
0 20 5 20 10 0 6 21 10 48 10 34 0 43 -3 32 -10 -12 -8 -11 -10 8 -10 13 0 22
-6 22 -15 0 -8 5 -15 10 -15 6 0 10 -10 10 -22 0 -19 2 -20 10 -8 33 51 -21
100 -111 100 -41 0 -50 -3 -46 -14z"/>
<path d="M370 639 c0 -5 5 -7 10 -4 6 3 10 8 10 11 0 2 -4 4 -10 4 -5 0 -10
-5 -10 -11z"/>
<path d="M870 615 c-10 -12 -10 -26 -3 -58 l11 -42 1 43 c1 35 4 42 21 42 11
0 20 -4 20 -10 0 -5 14 -10 30 -10 17 0 30 5 30 10 0 6 -9 10 -20 10 -11 0
-20 7 -20 15 0 20 -53 20 -70 0z"/>
<path d="M830 560 c0 -22 -4 -40 -10 -40 -5 0 -10 -11 -10 -25 0 -13 -5 -36
-12 -50 -16 -35 -28 -14 -28 48 0 26 -4 47 -10 47 -5 0 -10 9 -10 20 0 11 -4
20 -10 20 -6 0 -10 -24 -9 -52 1 -42 3 -48 9 -28 6 18 9 4 10 -50 1 -54 4 -68
10 -50 6 19 8 11 9 -32 1 -64 20 -81 22 -20 1 37 1 37 9 7 6 -24 8 -19 9 30 1
43 4 56 11 45 7 -11 10 -3 10 30 0 33 3 41 10 30 7 -11 10 3 10 48 0 35 -4 62
-10 62 -5 0 -10 -18 -10 -40z"/>
<path d="M980 560 c0 -11 5 -20 10 -20 6 0 10 9 10 20 0 11 -4 20 -10 20 -5 0
-10 -9 -10 -20z"/>
<path d="M961 525 c-1 -36 -4 -46 -11 -35 -7 11 -10 3 -10 -30 0 -33 -3 -41
-10 -30 -7 11 -10 1 -11 -35 0 -37 -3 -45 -9 -30 -6 15 -9 7 -9 -30 -1 -36 -4
-46 -11 -35 -7 11 -10 4 -10 -27 0 -24 5 -43 10 -43 6 0 10 9 10 20 0 11 5 20
11 20 7 0 10 13 7 34 -3 24 0 32 9 29 9 -4 13 6 13 31 0 20 5 36 10 36 6 0 10
14 10 30 0 17 5 30 10 30 12 0 12 67 0 95 -6 15 -9 7 -9 -30z"/>
<path d="M600 498 c0 -32 -3 -39 -10 -28 -7 11 -10 -6 -11 -55 0 -48 -3 -64
-9 -50 -6 15 -9 7 -9 -30 -1 -36 -4 -46 -11 -35 -8 13 -10 12 -10 -3 0 -10
-16 -33 -35 -52 -32 -32 -39 -35 -95 -35 -33 0 -60 4 -60 10 0 6 -7 10 -16 10
-9 0 -29 14 -44 30 -23 25 -36 30 -74 30 -25 0 -46 -4 -46 -10 0 -19 -41 -10
-65 15 -37 36 -33 55 13 55 l37 1 -35 15 c-32 14 -36 14 -47 -2 -15 -21 -17
-64 -3 -64 6 0 10 -7 10 -16 0 -10 6 -14 14 -11 10 4 13 1 9 -9 -4 -11 0 -14
18 -11 13 2 18 2 11 0 -19 -7 -14 -23 8 -23 11 0 20 5 20 10 0 6 11 10 25 10
14 0 25 4 25 9 0 5 11 11 25 13 13 3 22 1 19 -4 -10 -15 59 -64 76 -53 6 3 7
-1 4 -9 -4 -11 0 -16 15 -16 12 0 21 -4 21 -10 0 -5 21 -10 46 -10 35 0 45 3
41 13 -4 10 2 13 21 9 20 -4 24 -2 19 11 -4 12 -2 14 10 10 12 -5 15 -2 10 10
-4 12 -2 14 10 10 12 -5 15 -2 10 10 -4 10 -2 14 6 11 12 -4 37 38 37 63 0 7
5 13 10 13 6 0 10 22 10 49 0 28 5 53 10 56 6 3 10 28 10 56 0 27 -4 49 -10
49 -5 0 -10 -19 -10 -42z m-167 -305 c-7 -2 -19 -2 -25 0 -7 3 -2 5 12 5 14 0
19 -2 13 -5z"/>
<path d="M634 518 c-1 -13 -4 -49 -9 -80 -6 -50 -5 -58 9 -58 12 0 16 -10 16
-45 0 -25 5 -45 10 -45 6 0 10 -11 10 -25 0 -14 5 -25 10 -25 6 0 10 -5 10
-10 0 -6 11 -22 25 -35 19 -19 35 -25 71 -25 36 0 45 3 41 14 -4 11 -1 13 10
9 12 -5 15 -2 10 9 -4 12 -1 14 14 11 21 -6 24 4 10 26 -8 12 -15 9 -39 -17
-20 -22 -39 -32 -59 -32 -22 0 -25 2 -13 10 13 8 12 10 -3 10 -24 0 -47 23
-47 47 0 15 -2 16 -10 3 -7 -11 -10 -3 -10 30 0 33 -3 41 -10 30 -7 -11 -10 6
-11 55 -1 50 -3 63 -9 45 -6 -18 -8 -4 -9 48 -1 39 -5 72 -9 72 -4 0 -8 -10
-8 -22z"/>
<path d="M66 498 c-9 -30 10 -58 38 -58 21 0 20 9 -3 29 -10 9 -21 25 -23 36
-4 17 -6 16 -12 -7z"/>
<path d="M243 503 c9 -2 25 -2 35 0 9 3 1 5 -18 5 -19 0 -27 -2 -17 -5z"/>
<path d="M323 373 c-20 -8 -15 -23 7 -23 11 0 20 7 20 15 0 15 -6 17 -27 8z"/>
<path d="M20 90 c0 -5 5 -10 10 -10 6 0 10 5 10 10 0 6 -4 10 -10 10 -5 0 -10
-4 -10 -10z"/>
<path d="M966 84 c-9 -24 0 -29 19 -11 19 19 19 27 1 27 -8 0 -17 -7 -20 -16z"/>
<path d="M0 20 c0 -11 5 -20 10 -20 6 0 10 9 10 20 0 11 -4 20 -10 20 -5 0
-10 -9 -10 -20z"/>
<path d="M53 25 c-7 -8 -9 -16 -4 -20 5 -3 12 1 15 7 5 10 7 10 12 1 3 -7 10
-13 15 -13 5 0 4 9 -3 20 -15 23 -19 24 -35 5z"/>
<path d="M910 25 c-7 -9 -10 -19 -6 -22 4 -4 11 -1 17 7 8 13 10 13 18 0 6 -8
13 -11 17 -8 6 6 -18 38 -29 38 -3 0 -10 -7 -17 -15z"/>
<path d="M980 20 c0 -11 5 -20 10 -20 6 0 10 9 10 20 0 11 -4 20 -10 20 -5 0
-10 -9 -10 -20z"/>
</g>
</svg>
