<?xml version="1.0" standalone="no"?>
<!DOCTYPE svg PUBLIC "-//W3C//DTD SVG 20010904//EN"
 "http://www.w3.org/TR/2001/REC-SVG-20010904/DTD/svg10.dtd">
<svg version="1.0" xmlns="http://www.w3.org/2000/svg"
 width="180.000000pt" height="180.000000pt" viewBox="0 0 180.000000 180.000000"
 preserveAspectRatio="xMidYMid meet">
<metadata>
Created by potrace 1.16, written by Peter Selinger 2001-2019
</metadata>
<g transform="translate(0.000000,180.000000) scale(0.100000,-0.100000)"
fill="#000000" stroke="none">
<path d="M0 1690 c0 -7 307 -10 900 -10 593 0 900 3 900 10 0 7 -307 10 -900
10 -593 0 -900 -3 -900 -10z"/>
<path d="M0 1592 c0 -15 4 -32 9 -37 5 -6 19 -27 30 -47 56 -100 64 -114 75
-128 6 -8 17 -26 24 -39 21 -37 50 -87 72 -126 11 -19 29 -52 41 -72 12 -21
25 -42 29 -48 4 -5 21 -35 37 -65 26 -47 57 -99 98 -168 6 -9 28 -46 49 -82
37 -62 48 -82 96 -165 50 -87 59 -103 89 -153 17 -29 31 -55 31 -58 0 -3 10
-20 23 -37 12 -18 27 -41 33 -52 15 -27 45 -80 83 -143 17 -29 31 -57 31 -63
0 -6 20 -9 46 -7 43 3 48 6 71 48 14 25 34 60 44 77 11 18 28 50 40 70 12 21
27 45 35 54 8 8 14 19 14 23 0 4 8 20 18 34 11 15 33 52 49 82 17 30 54 96 83
145 29 50 66 115 83 145 17 30 45 78 63 106 18 28 42 67 53 87 12 20 30 53 41
72 11 19 29 51 40 70 11 19 29 51 40 70 11 19 29 51 40 70 11 19 29 52 41 73
12 20 26 44 33 52 6 8 17 26 24 39 32 55 51 88 71 123 13 20 21 47 19 60 -3
22 -17 3 -83 -117 -28 -49 -41 -71 -51 -85 -7 -8 -21 -32 -33 -52 -12 -21 -30
-54 -41 -73 -11 -19 -29 -51 -40 -70 -11 -19 -29 -51 -40 -70 -11 -19 -29 -51
-40 -70 -11 -19 -29 -52 -41 -72 -11 -20 -35 -59 -53 -87 -18 -28 -46 -76 -63
-106 -17 -30 -54 -95 -83 -145 -29 -49 -66 -115 -83 -145 -16 -30 -38 -67 -49
-82 -10 -14 -18 -30 -18 -34 0 -4 -6 -15 -14 -23 -8 -9 -23 -33 -35 -54 -12
-20 -29 -52 -40 -70 -10 -17 -30 -52 -44 -77 -18 -33 -32 -46 -51 -48 -14 -2
-26 1 -26 7 0 6 -14 34 -31 63 -38 63 -68 116 -83 143 -6 11 -21 34 -33 52
-13 17 -23 34 -23 37 0 3 -14 29 -31 58 -30 50 -39 66 -89 153 -48 83 -59 103
-96 165 -21 36 -43 73 -49 82 -41 69 -72 121 -98 168 -16 30 -33 60 -37 65 -4
6 -17 27 -29 48 -12 20 -30 53 -41 72 -22 39 -51 89 -72 126 -7 13 -18 31 -24
39 -7 8 -21 32 -33 53 -12 20 -31 54 -43 75 -12 20 -28 49 -35 65 -18 34 -23
34 -23 -1z"/>
<path d="M378 1369 c48 -83 94 -162 103 -177 9 -15 26 -44 38 -64 11 -21 30
-54 41 -73 11 -19 29 -51 40 -70 11 -19 29 -51 40 -70 11 -19 29 -51 40 -70
11 -19 30 -52 41 -72 12 -21 29 -50 38 -65 51 -85 103 -173 123 -211 l15 -27
17 24 c15 24 30 50 77 134 12 20 26 44 33 52 6 8 17 26 24 39 58 102 85 149
122 211 18 30 46 80 63 110 17 30 38 67 49 82 10 14 18 29 18 33 0 4 10 21 22
38 13 18 28 41 34 52 6 11 21 37 32 58 39 66 62 106 83 145 11 20 25 41 30 46
5 6 9 14 9 18 0 4 -274 8 -609 8 l-610 0 87 -151z m1072 96 c-24 -42 -53 -92
-82 -142 -11 -21 -26 -47 -32 -58 -6 -11 -21 -34 -33 -52 -13 -17 -23 -34 -23
-38 0 -4 -8 -19 -18 -33 -11 -15 -32 -52 -49 -82 -17 -30 -45 -80 -63 -110
-37 -62 -64 -109 -122 -211 -7 -13 -18 -31 -24 -39 -12 -15 -39 -61 -77 -133
-12 -20 -24 -37 -28 -37 -3 0 -13 12 -21 28 -12 24 -50 90 -99 170 -9 15 -26
44 -38 65 -11 20 -30 53 -41 72 -11 19 -29 51 -40 70 -11 19 -29 51 -40 70
-11 19 -29 51 -40 70 -11 19 -30 52 -41 73 -12 20 -29 49 -38 64 -48 80 -161
279 -161 283 0 3 254 5 565 5 l565 0 -20 -35z"/>
</g>
</svg>
