<?xml version="1.0" standalone="no"?>
<!DOCTYPE svg PUBLIC "-//W3C//DTD SVG 20010904//EN"
 "http://www.w3.org/TR/2001/REC-SVG-20010904/DTD/svg10.dtd">
<svg version="1.0" xmlns="http://www.w3.org/2000/svg"
 width="100.000000pt" height="100.000000pt" viewBox="0 0 100.000000 100.000000"
 preserveAspectRatio="xMidYMid meet">
<metadata>
Created by potrace 1.16, written by Peter Selinger 2001-2019
</metadata>
<g transform="translate(0.000000,100.000000) scale(0.100000,-0.100000)"
fill="#000000" stroke="none">
<path d="M0 950 c0 -7 173 -10 500 -10 327 0 500 3 500 10 0 7 -173 10 -500
10 -327 0 -500 -3 -500 -10z"/>
<path d="M4 854 c3 -9 6 -27 6 -40 0 -15 6 -24 15 -24 10 0 15 -10 15 -30 0
-20 5 -30 15 -30 19 0 19 -17 0 -37 -12 -12 -15 -34 -13 -97 l3 -81 30 -3 c17
-2 34 -10 38 -18 11 -19 86 -19 93 1 12 30 24 14 24 -30 0 -33 4 -45 15 -45
10 0 15 -10 15 -30 0 -20 5 -30 15 -30 10 0 15 -11 15 -35 0 -24 5 -35 15 -35
8 0 15 -7 15 -15 0 -8 7 -15 15 -15 10 0 15 -10 15 -30 0 -23 4 -30 20 -30 16
0 20 -7 20 -30 0 -20 5 -30 15 -30 8 0 15 -7 15 -15 0 -8 7 -15 15 -15 10 0
15 -11 15 -35 l0 -35 50 0 50 0 0 35 c0 24 5 35 15 35 8 0 15 7 15 15 0 8 7
15 15 15 10 0 15 10 15 30 0 20 5 30 15 30 10 0 15 10 15 30 0 23 4 30 20 30
11 0 20 7 20 15 0 8 7 15 15 15 10 0 15 11 15 35 0 24 5 35 15 35 10 0 15 10
15 30 0 20 5 30 15 30 10 0 15 10 15 28 1 30 21 62 39 62 6 0 14 7 17 15 9 22
21 18 28 -10 7 -27 45 -43 68 -29 9 6 2 11 -22 15 -33 6 -32 6 13 8 l47 1 0
100 c0 82 -3 100 -15 100 -8 0 -15 5 -15 10 0 6 7 10 15 10 10 0 15 10 15 30
0 20 5 30 15 30 9 0 15 9 15 24 0 13 3 31 6 40 4 11 1 16 -10 16 -11 0 -16 -9
-16 -30 0 -20 -5 -30 -15 -30 -10 0 -15 -10 -15 -30 0 -20 -5 -30 -15 -30 -8
0 -15 -7 -15 -15 0 -12 -19 -15 -110 -15 -91 0 -110 3 -110 15 0 13 -28 15
-190 15 -162 0 -190 -2 -190 -15 0 -12 -19 -15 -110 -15 -91 0 -110 3 -110 15
0 8 -7 15 -15 15 -10 0 -15 10 -15 30 0 20 -5 30 -15 30 -10 0 -15 10 -15 30
0 21 -5 30 -16 30 -11 0 -14 -5 -10 -16z m666 -134 c0 -6 -33 -10 -80 -10
l-80 0 0 -38 c0 -21 5 -43 12 -50 9 -9 7 -12 -10 -12 -20 0 -22 5 -22 50 l0
50 -50 0 c-38 0 -50 -4 -50 -15 0 -8 -7 -15 -15 -15 -8 0 -15 7 -15 15 0 8 -7
15 -15 15 -8 0 -15 5 -15 10 0 6 63 10 170 10 107 0 170 -4 170 -10z m31 -29
c-11 -7 -12 -24 -7 -80 5 -48 4 -71 -3 -71 -12 0 -16 142 -4 153 3 4 11 7 17
7 6 0 5 -4 -3 -9z m26 -124 c-2 -23 -3 -1 -3 48 0 50 1 68 3 42 2 -26 2 -67 0
-90z m123 123 c0 -5 -7 -7 -15 -4 -8 4 -15 8 -15 10 0 2 7 4 15 4 8 0 15 -4
15 -10z m-630 -30 c0 -29 -2 -30 -42 -29 -43 1 -43 1 -10 9 46 11 51 20 11 20
-19 0 -43 2 -54 4 -11 2 -14 1 -7 -1 7 -3 12 -23 12 -54 l0 -49 40 0 c48 0 51
6 8 19 l-33 9 38 1 c35 1 37 -1 37 -29 l0 -30 -65 0 c-51 0 -65 3 -65 15 0 8
-7 15 -15 15 -11 0 -15 12 -15 50 0 38 4 50 15 50 8 0 15 7 15 15 0 12 14 15
65 15 l65 0 0 -30z m120 -20 c0 -30 -4 -50 -11 -50 -6 0 -9 -7 -5 -15 3 -8 1
-15 -5 -15 -7 0 -10 21 -7 55 3 57 -6 71 -22 33 -8 -21 -9 -20 -9 10 -1 29 2
32 29 32 29 0 30 -1 30 -50z m130 20 c0 -16 -4 -30 -10 -30 -5 0 -7 6 -4 14 5
13 -24 31 -34 21 -3 -3 0 -5 6 -5 8 0 12 -19 12 -50 0 -27 -4 -50 -10 -50 -5
0 -7 7 -4 15 4 8 1 15 -5 15 -7 0 -11 20 -11 50 0 49 1 50 30 50 27 0 30 -3
30 -30z m190 -36 c0 -64 -1 -66 -24 -62 -19 4 -22 1 -18 -14 4 -15 -2 -18 -42
-18 -43 0 -46 2 -47 28 0 15 -3 21 -6 15 -7 -18 -23 -16 -23 2 0 10 10 15 30
15 20 0 30 -5 30 -15 0 -8 7 -15 15 -15 11 0 15 12 15 46 0 25 4 43 9 40 4 -3
6 -17 3 -31 -2 -15 0 -25 7 -25 6 0 11 15 11 34 0 19 6 36 13 39 6 2 -14 2
-45 -1 -49 -4 -58 -2 -58 12 0 13 12 16 65 16 l65 0 0 -66z m120 51 c0 -8 7
-15 15 -15 8 0 15 -7 15 -15 0 -8 7 -15 15 -15 8 0 15 7 15 15 0 8 7 15 15 15
8 0 15 7 15 15 0 10 11 15 35 15 l35 0 0 -80 0 -80 -35 0 c-32 0 -35 2 -35 30
0 20 -5 30 -15 30 -8 0 -15 -7 -15 -15 0 -8 -7 -15 -15 -15 -8 0 -15 7 -15 15
0 8 -7 15 -15 15 -10 0 -15 -10 -15 -30 0 -20 -5 -30 -15 -30 -12 0 -15 16
-15 80 0 64 3 80 15 80 8 0 15 -7 15 -15z m30 5 c0 -5 -2 -10 -4 -10 -3 0 -8
5 -11 10 -3 6 -1 10 4 10 6 0 11 -4 11 -10z m-550 -41 c0 -19 5 -29 15 -29 10
0 15 -11 15 -35 0 -40 -12 -45 -28 -12 -10 21 -11 21 -11 -7 -1 -26 1 -28 34
-24 19 2 35 0 35 -5 0 -4 -17 -7 -37 -5 l-38 3 -3 78 c-2 53 1 77 8 72 5 -3
10 -19 10 -36z m127 15 c-3 -3 -12 -4 -19 -1 -8 3 -5 6 6 6 11 1 17 -2 13 -5z
m193 -20 c0 -2 -11 -4 -25 -4 -14 0 -25 4 -25 9 0 4 11 6 25 3 14 -2 25 -6 25
-8z m-185 -14 c-3 -5 -15 -10 -26 -10 -10 0 -19 5 -19 10 0 6 12 10 26 10 14
0 23 -4 19 -10z m85 -48 c0 -41 14 -62 42 -62 10 0 18 -4 18 -10 0 -5 -7 -10
-15 -10 -8 0 -15 -7 -15 -15 0 -8 -4 -15 -10 -15 -5 0 -10 7 -10 15 0 8 -7 15
-15 15 -8 0 -15 7 -15 15 0 8 -7 15 -15 15 -8 0 -15 5 -15 10 0 6 6 9 13 8 7
-2 13 11 15 35 4 49 22 48 22 -1z m-70 -12 c0 -28 -3 -30 -35 -30 -32 0 -35 2
-35 30 0 28 3 30 35 30 32 0 35 -2 35 -30z m250 -20 c0 -5 -7 -10 -16 -10 -8
0 -12 5 -9 10 3 6 10 10 16 10 5 0 9 -4 9 -10z m47 -16 c-3 -3 -12 -4 -19 -1
-8 3 -5 6 6 6 11 1 17 -2 13 -5z m-529 -21 c-10 -2 -26 -2 -35 0 -10 3 -2 5
17 5 19 0 27 -2 18 -5z m572 -34 c0 -19 -5 -29 -15 -29 -10 0 -15 -10 -15 -30
0 -20 -5 -30 -15 -30 -10 0 -15 -11 -15 -35 0 -24 -5 -35 -15 -35 -8 0 -15 -7
-15 -15 0 -8 -9 -15 -20 -15 -16 0 -20 -7 -20 -30 0 -20 -5 -30 -15 -30 -10 0
-15 -10 -15 -30 0 -20 -5 -30 -15 -30 -8 0 -15 -7 -15 -15 0 -8 -7 -15 -15
-15 -10 0 -15 -11 -15 -35 0 -32 -2 -35 -30 -35 -28 0 -30 3 -30 35 0 24 -5
35 -15 35 -8 0 -15 7 -15 15 0 8 -7 15 -15 15 -10 0 -15 10 -15 30 0 23 -4 30
-20 30 -16 0 -20 7 -20 30 0 20 -5 30 -15 30 -8 0 -15 7 -15 15 0 8 -7 15 -15
15 -10 0 -15 11 -15 35 0 24 -5 35 -15 35 -10 0 -15 10 -15 30 0 20 -5 30 -15
30 -10 0 -15 10 -15 30 l0 30 95 0 c78 0 95 -3 95 -15 0 -8 7 -15 15 -15 8 0
15 -7 15 -15 0 -10 10 -15 30 -15 20 0 30 5 30 15 0 8 7 15 15 15 8 0 15 8 15
18 0 15 10 17 95 14 l95 -3 0 -30z"/>
<path d="M76 642 c-4 -7 -2 -12 5 -12 7 0 10 -11 6 -32 -3 -18 -3 -27 0 -20 2
6 10 12 17 12 6 0 12 9 12 20 0 11 -6 20 -12 20 -7 0 -14 5 -16 12 -3 9 -6 9
-12 0z"/>
<path d="M910 609 c0 -40 2 -70 4 -68 8 9 13 130 5 135 -5 3 -9 -27 -9 -67z"/>
<path d="M859 648 c-6 -21 -5 -38 2 -38 5 0 9 9 9 20 0 16 -7 28 -11 18z"/>
<path d="M780 621 c0 -11 4 -21 9 -21 18 0 21 18 6 30 -13 10 -15 9 -15 -9z"/>
<path d="M368 553 c7 -3 16 -2 19 1 4 3 -2 6 -13 5 -11 0 -14 -3 -6 -6z"/>
<path d="M323 473 c9 -2 25 -2 35 0 9 3 1 5 -18 5 -19 0 -27 -2 -17 -5z"/>
<path d="M638 473 c12 -2 30 -2 40 0 9 3 -1 5 -23 4 -22 0 -30 -2 -17 -4z"/>
<path d="M505 420 c-3 -5 1 -10 9 -10 9 0 16 5 16 10 0 6 -4 10 -9 10 -6 0
-13 -4 -16 -10z"/>
<path d="M403 773 c53 -2 141 -2 195 0 53 1 9 3 -98 3 -107 0 -151 -2 -97 -3z"/>
</g>
</svg>
