<?xml version="1.0" standalone="no"?>
<!DOCTYPE svg PUBLIC "-//W3C//DTD SVG 20010904//EN"
 "http://www.w3.org/TR/2001/REC-SVG-20010904/DTD/svg10.dtd">
<svg version="1.0" xmlns="http://www.w3.org/2000/svg"
 width="256.000000pt" height="256.000000pt" viewBox="0 0 256.000000 256.000000"
 preserveAspectRatio="xMidYMid meet">
<metadata>
Created by potrace 1.16, written by Peter Selinger 2001-2019
</metadata>
<g transform="translate(0.000000,256.000000) scale(0.100000,-0.100000)"
fill="#000000" stroke="none">
<path d="M260 2131 c0 -3 56 -102 125 -221 69 -120 125 -219 125 -221 0 -2
-56 -4 -125 -4 l-126 0 -2 -222 -2 -223 258 -2 258 -3 252 -442 c139 -243 254
-442 257 -442 3 0 118 199 257 442 l251 442 259 3 258 2 -2 223 -2 222 -126 0
c-69 0 -125 2 -125 4 0 2 56 102 125 221 69 119 125 219 125 221 0 2 -459 4
-1020 4 -561 0 -1020 -2 -1020 -4z m1990 -26 c0 -2 -50 -91 -110 -196 -61
-106 -109 -198 -106 -206 4 -10 -24 -13 -152 -12 -86 0 -152 3 -145 6 20 7 73
108 73 137 l0 26 -530 0 -530 0 0 -26 c0 -29 53 -130 73 -137 7 -3 -59 -6
-145 -6 -128 -1 -156 1 -152 13 3 7 -45 99 -105 204 -61 105 -111 194 -111
197 0 3 437 5 970 5 534 0 970 -2 970 -5z m-460 -269 c0 -2 -18 -36 -41 -75
l-41 -71 -428 0 -428 0 -41 71 c-23 39 -41 73 -41 75 0 2 230 4 510 4 281 0
510 -2 510 -4z m490 -376 l0 -200 -1000 0 -1000 0 0 200 0 200 1000 0 1000 0
0 -200z m-1183 -237 c-1 -10 34 -82 78 -161 105 -187 100 -187 212 6 47 81 80
148 77 157 -5 13 16 15 152 15 132 -1 156 -3 142 -14 -9 -7 -118 -190 -243
-407 -124 -217 -230 -394 -235 -394 -5 0 -111 178 -236 395 -124 217 -233 400
-242 407 -14 10 12 12 140 13 145 0 158 -1 155 -17z m350 10 c-3 -5 -39 -67
-81 -140 -42 -72 -76 -136 -76 -142 0 -6 -4 -11 -10 -11 -5 0 -10 4 -10 9 0
10 -137 251 -151 266 -5 5 -9 13 -9 17 0 4 77 8 171 8 93 0 168 -3 166 -7z"/>
<path d="M453 1629 c-63 -31 -88 -77 -87 -164 0 -117 44 -168 157 -187 138
-23 260 59 181 121 -31 24 -71 27 -98 6 -29 -22 -64 -18 -91 10 -34 33 -32 67
6 99 35 30 57 32 85 11 27 -20 51 -19 85 6 44 31 40 69 -10 97 -54 30 -168 31
-228 1z m184 -14 c61 -26 66 -34 35 -60 -22 -19 -30 -21 -42 -11 -68 58 -182
-10 -166 -99 13 -70 101 -107 157 -66 l30 22 30 -21 30 -22 -25 -19 c-85 -67
-226 -46 -274 40 -30 53 -30 127 1 172 44 68 146 96 224 64z"/>
<path d="M820 1617 c0 -13 31 -93 70 -178 l69 -154 62 0 61 0 74 159 c41 88
74 168 74 178 0 17 -7 19 -65 16 l-66 -3 -39 -85 -39 -84 -40 87 -40 87 -61 0
c-56 0 -60 -1 -60 -23z m148 -109 c26 -59 49 -107 52 -107 3 -1 27 49 54 109
l50 110 39 0 c21 0 37 -4 35 -9 -1 -5 -32 -75 -68 -155 l-65 -145 -43 -1 c-41
0 -44 2 -61 43 -11 23 -42 93 -70 155 l-51 113 41 -3 41 -3 46 -107z"/>
<path d="M1350 1591 c0 -56 8 -61 98 -61 l52 0 0 -50 c0 -37 -5 -55 -20 -70
-26 -26 -36 -25 -64 5 -16 18 -34 25 -59 25 -70 0 -82 -20 -51 -86 25 -53 69
-74 152 -74 62 0 74 3 103 27 49 42 59 77 59 213 l0 120 -135 0 -135 0 0 -49z
m249 -78 c-5 -124 -22 -166 -79 -195 -70 -36 -149 -13 -190 54 l-20 33 30 9
c26 8 33 5 51 -18 16 -20 29 -26 58 -26 56 0 70 22 74 113 l4 77 -74 0 -73 0
0 30 0 30 111 0 111 0 -3 -107z"/>
<path d="M1770 1460 l0 -181 58 3 57 3 5 68 5 67 20 -30 c28 -41 84 -43 114
-2 l20 27 1 -45 c1 -83 6 -90 65 -90 46 0 53 3 59 23 8 29 8 301 0 321 -5 12
-20 16 -60 16 -53 0 -54 0 -95 -55 -23 -30 -44 -55 -48 -55 -3 1 -24 25 -46
55 l-40 54 -57 1 -58 0 0 -180z m146 85 l56 -75 55 75 c49 68 58 75 89 75 l34
0 0 -157 0 -158 -35 0 -35 0 0 104 0 104 -27 -40 c-44 -63 -70 -93 -82 -93 -6
0 -32 28 -57 63 -25 34 -48 64 -51 67 -3 3 -3 -41 -1 -98 l3 -102 -37 0 -38 0
0 155 0 155 35 0 c31 0 40 -7 91 -75z"/>
</g>
</svg>
