<?xml version="1.0" standalone="no"?>
<!DOCTYPE svg PUBLIC "-//W3C//DTD SVG 20010904//EN"
 "http://www.w3.org/TR/2001/REC-SVG-20010904/DTD/svg10.dtd">
<svg version="1.0" xmlns="http://www.w3.org/2000/svg"
 width="192.000000pt" height="192.000000pt" viewBox="0 0 192.000000 192.000000"
 preserveAspectRatio="xMidYMid meet">
<metadata>
Created by potrace 1.16, written by Peter Selinger 2001-2019
</metadata>
<g transform="translate(0.000000,192.000000) scale(0.100000,-0.100000)"
fill="#000000" stroke="none">
<path d="M0 1855 c0 -19 35 -101 89 -208 l89 -177 -89 0 c-53 0 -89 -4 -89
-10 0 -6 38 -10 93 -10 61 -1 100 -6 117 -15 37 -21 352 -21 370 0 11 13 65
15 380 15 315 0 369 -2 380 -15 18 -21 333 -21 370 0 17 9 56 14 118 15 54 0
92 4 92 10 0 6 -36 10 -89 10 l-88 0 88 177 c53 106 89 189 89 207 0 22 -29
-28 -108 -186 -75 -153 -113 -218 -127 -222 -34 -10 -323 -7 -330 3 -3 6 11
39 30 75 l35 66 -460 0 -460 0 35 -66 c19 -36 33 -69 30 -75 -7 -11 -325 -12
-340 -1 -6 4 -59 104 -118 222 -79 158 -107 207 -107 185z m1370 -296 c0 -5
-10 -28 -22 -49 l-23 -40 -365 0 -365 0 -22 40 c-13 21 -23 44 -23 49 0 8 130
11 410 11 280 0 410 -3 410 -11z"/>
<path d="M231 1400 c-83 -20 -131 -94 -131 -200 0 -75 24 -136 64 -168 60 -47
182 -48 247 -1 55 39 30 119 -37 119 -16 0 -38 -7 -48 -15 -28 -21 -53 -18
-81 10 -31 30 -32 73 -4 109 23 29 69 35 89 11 19 -23 54 -18 83 13 42 44 33
78 -29 110 -30 16 -113 22 -153 12z m154 -50 l37 -23 -25 -25 c-24 -23 -26
-24 -48 -8 -26 18 -81 21 -110 6 -42 -23 -61 -102 -37 -155 13 -29 55 -55 87
-55 25 0 71 20 71 32 0 13 13 9 40 -13 l25 -21 -32 -28 c-88 -78 -231 -29
-263 91 -43 159 117 284 255 199z"/>
<path d="M553 1393 c-36 -7 -30 -42 39 -220 l63 -163 61 0 62 0 66 165 c36 91
66 176 66 189 0 19 -7 25 -32 30 -69 12 -87 -1 -126 -98 l-35 -88 -35 88 c-19
49 -36 90 -36 90 -4 5 -76 10 -93 7z m116 -146 c25 -64 48 -114 51 -110 3 5
26 59 51 120 l44 113 39 0 c27 0 37 -4 33 -12 -3 -7 -34 -84 -69 -170 l-63
-158 -38 3 -39 2 -64 165 c-35 91 -64 166 -64 168 0 2 16 2 37 0 l36 -3 46
-118z"/>
<path d="M1055 1393 c-25 -7 -35 -21 -35 -55 0 -52 7 -58 76 -58 l64 0 0 -64
c0 -56 -3 -67 -22 -81 -22 -15 -24 -14 -49 15 -27 31 -50 37 -93 20 -44 -16
-30 -85 28 -140 37 -34 136 -40 183 -11 61 38 68 60 71 222 l4 146 -32 7 c-37
7 -165 6 -195 -1z m203 -140 c-6 -174 -37 -223 -142 -223 -39 0 -51 5 -81 35
-19 20 -35 42 -35 50 0 8 0 18 0 23 0 4 11 10 25 14 19 5 26 2 30 -13 10 -30
49 -51 79 -43 43 11 56 40 56 129 l0 81 -70 -4 -70 -4 0 36 0 36 106 0 106 0
-4 -117z"/>
<path d="M1445 1393 c-11 -3 -23 -10 -27 -17 -11 -16 -9 -338 1 -355 6 -9 27
-14 56 -14 56 0 64 10 65 78 1 48 2 49 17 28 24 -35 85 -32 104 4 14 26 14 25
19 -37 5 -60 7 -64 34 -71 16 -5 41 -5 56 -2 36 7 40 28 40 193 0 165 -4 187
-39 192 -62 8 -80 -1 -122 -64 l-41 -60 -40 61 c-25 37 -48 61 -58 61 -10 0
-24 2 -32 4 -7 2 -22 1 -33 -1z m110 -103 c28 -43 52 -79 55 -79 3 0 27 35 54
79 45 74 51 80 82 80 l34 0 0 -170 0 -170 -35 0 -35 0 0 113 c-1 87 -3 108
-12 92 -32 -58 -81 -125 -91 -125 -7 0 -30 31 -52 70 -22 38 -42 70 -45 70 -3
0 -3 -49 -2 -110 l4 -110 -36 0 -36 0 0 170 0 170 33 0 c29 0 36 -7 82 -80z"/>
<path d="M483 983 c-13 -2 -23 -11 -23 -19 0 -12 -37 -14 -230 -14 -147 0
-230 -4 -230 -10 0 -6 81 -10 224 -10 l224 0 232 -465 c131 -262 239 -465 246
-465 8 0 11 6 7 16 -3 8 -109 221 -234 472 -126 251 -229 460 -229 464 0 10
331 10 346 0 6 -4 40 -67 75 -139 35 -73 66 -133 69 -133 3 0 34 60 69 133 35
72 69 135 75 139 15 10 346 10 346 0 0 -4 -100 -208 -222 -452 -266 -531 -252
-500 -234 -500 8 0 112 196 246 465 l233 465 223 0 c143 0 224 4 224 10 0 6
-83 10 -230 10 -188 0 -230 2 -230 14 0 19 -46 26 -184 26 -120 0 -196 -12
-196 -30 0 -6 -49 -10 -117 -10 -97 0 -120 3 -136 18 -16 14 -42 17 -171 19
-83 0 -161 -1 -173 -4z m528 -148 c-25 -52 -48 -95 -51 -95 -3 0 -26 43 -51
95 l-46 95 97 0 97 0 -46 -95z"/>
</g>
</svg>
