<?xml version="1.0" standalone="no"?>
<!DOCTYPE svg PUBLIC "-//W3C//DTD SVG 20010904//EN"
 "http://www.w3.org/TR/2001/REC-SVG-20010904/DTD/svg10.dtd">
<svg version="1.0" xmlns="http://www.w3.org/2000/svg"
 width="180.000000pt" height="180.000000pt" viewBox="0 0 180.000000 180.000000"
 preserveAspectRatio="xMidYMid meet">
<metadata>
Created by potrace 1.16, written by Peter Selinger 2001-2019
</metadata>
<g transform="translate(0.000000,180.000000) scale(0.100000,-0.100000)"
fill="#000000" stroke="none">
<path d="M322 1400 c18 -36 133 -222 139 -226 25 -15 1 -24 -66 -24 l-75 0 0
-125 0 -125 148 0 147 0 137 -238 c75 -130 140 -245 143 -254 8 -19 25 -25 25
-8 0 6 64 121 142 255 l141 245 146 0 146 0 -2 127 -1 126 -71 -2 c-39 -1 -71
0 -71 2 0 2 32 57 70 121 39 65 70 120 70 124 0 4 -263 7 -585 7 -322 0 -584
-2 -583 -5z m1068 -120 c-35 -57 -57 -106 -54 -115 5 -13 -6 -15 -75 -15 -45
0 -81 2 -81 5 0 3 9 14 20 25 11 11 20 33 20 50 l0 30 -310 0 -310 0 0 -30 c0
-17 9 -39 20 -50 11 -11 20 -22 20 -25 0 -3 -36 -5 -80 -5 -73 0 -80 2 -80 19
0 18 -27 69 -92 179 l-20 32 541 0 540 0 -59 -100z m-193 -50 c-1 -3 -11 -22
-22 -42 l-19 -38 -245 0 -246 0 -22 40 c-13 21 -23 40 -23 42 0 2 131 3 290 3
160 0 289 -2 287 -5z m-796 -119 c-36 -36 -39 -131 -6 -165 12 -12 10 -14 -15
-18 l-30 -5 0 104 0 103 35 0 c34 0 35 0 16 -19z m239 -5 c0 -14 16 -59 35
-102 19 -42 35 -78 35 -81 0 -2 -26 -3 -57 -1 l-58 3 3 37 c3 32 0 38 -20 43
-13 3 -41 4 -63 3 -34 -3 -40 0 -40 17 0 17 6 20 40 17 54 -3 85 14 85 49 0
15 -6 30 -12 32 -7 3 2 6 20 6 28 1 32 -2 32 -23z m150 20 c0 -2 -6 -19 -14
-37 l-14 -33 -16 32 c-21 41 -21 42 14 42 17 0 30 -2 30 -4z m152 -33 c3 -36
5 -38 41 -41 32 -3 37 -7 37 -28 0 -28 -17 -32 -35 -8 -8 12 -20 15 -43 9 -28
-6 -32 -11 -32 -39 0 -18 5 -37 11 -43 8 -8 -5 -12 -50 -15 -34 -1 -61 -2 -61
-1 0 1 18 39 40 84 22 46 40 91 40 101 0 12 8 18 24 18 21 0 25 -5 28 -37z
m238 -68 l0 -105 -50 0 -50 0 16 26 c11 16 19 54 22 105 l5 79 28 0 29 0 0
-105z m144 80 c-9 -14 -18 -25 -19 -25 -1 0 -10 11 -19 25 l-16 25 35 0 35 0
-16 -25z m146 -79 c0 -99 -1 -104 -20 -99 -18 5 -20 14 -20 104 0 92 1 99 20
99 19 0 20 -7 20 -104z m-915 82 c30 -14 31 -19 5 -35 -12 -8 -21 -9 -25 -3
-10 16 -62 12 -79 -6 -36 -35 -9 -94 43 -94 15 0 32 5 39 12 8 8 15 8 27 -2
27 -23 -6 -45 -66 -45 -43 0 -54 4 -75 28 -16 19 -24 40 -24 67 0 70 82 112
155 78z m175 -55 c14 -35 27 -63 30 -63 3 0 17 28 32 63 22 52 31 63 53 65 15
2 25 0 23 -5 -73 -158 -86 -179 -107 -179 -19 0 -30 15 -62 85 -21 46 -39 88
-39 93 0 5 10 8 22 6 17 -2 29 -18 48 -65z m360 -4 c0 -86 -19 -114 -78 -114
-42 0 -82 26 -82 52 0 18 36 17 44 -2 8 -22 53 -19 66 4 5 11 10 36 10 55 0
36 0 36 -45 36 -36 0 -45 3 -45 18 0 14 10 17 65 17 l65 0 0 -66z m183 24 c17
-24 31 -43 32 -43 1 0 15 19 32 43 18 25 40 43 52 44 20 2 21 -3 21 -93 0 -93
-1 -95 -22 -92 -21 3 -23 7 -20 61 2 31 2 57 -1 57 -2 0 -17 -19 -32 -42 -31
-46 -28 -47 -77 23 -18 24 -18 24 -16 -36 2 -55 0 -60 -20 -63 -21 -3 -22 -1
-22 92 0 90 1 95 21 93 12 -1 34 -19 52 -44z m67 -130 c0 -8 -14 -13 -35 -13
-21 0 -35 5 -35 13 0 7 14 12 35 12 21 0 35 -5 35 -12z m-542 -58 c-2 -8 17
-51 42 -95 60 -106 75 -106 138 3 31 54 41 82 34 89 -7 7 -25 -15 -57 -72
l-48 -81 -40 73 c-22 40 -44 75 -49 76 -4 2 -8 8 -8 13 0 5 83 9 186 8 l187 0
-20 -22 c-11 -12 -73 -113 -138 -225 l-117 -203 -120 208 c-65 114 -126 213
-134 219 -26 20 -15 24 66 24 66 0 80 -3 78 -15z"/>
</g>
</svg>
