<?xml version="1.0" standalone="no"?>
<!DOCTYPE svg PUBLIC "-//W3C//DTD SVG 20010904//EN"
 "http://www.w3.org/TR/2001/REC-SVG-20010904/DTD/svg10.dtd">
<svg version="1.0" xmlns="http://www.w3.org/2000/svg"
 width="256.000000pt" height="256.000000pt" viewBox="0 0 256.000000 256.000000"
 preserveAspectRatio="xMidYMid meet">
<metadata>
Created by potrace 1.16, written by Peter Selinger 2001-2019
</metadata>
<g transform="translate(0.000000,256.000000) scale(0.100000,-0.100000)"
fill="#000000" stroke="none">
<path d="M480 2488 c0 -37 -1 -38 -37 -38 l-38 0 0 -669 0 -668 35 10 c36 10
181 4 212 -8 14 -5 15 -12 7 -33 -26 -68 23 -137 96 -137 43 0 85 25 85 50 0
7 11 16 25 19 35 9 67 63 60 100 l-5 29 67 -7 c118 -11 115 -9 106 -80 -7 -57
-8 -164 -1 -171 2 -2 21 1 44 7 54 15 95 -4 108 -50 5 -18 7 -35 4 -38 -3 -2
-24 2 -46 9 -39 14 -41 13 -46 -7 -13 -58 -15 -117 -3 -176 l12 -65 415 -2
c228 -1 520 -2 648 -2 202 -1 232 -3 232 -16 0 -14 -32 -15 -262 -13 -145 1
-450 0 -678 -4 -228 -3 -392 -3 -365 1 l50 8 -49 1 c-40 2 -47 4 -37 16 9 11
9 15 -1 18 -9 3 -13 24 -13 64 0 47 3 58 15 56 12 -3 13 -1 3 9 -15 15 -17 33
-3 24 6 -3 10 -2 10 4 0 6 -9 15 -19 21 -16 8 -21 6 -27 -13 -9 -28 -7 -151 4
-197 7 -34 10 -35 57 -38 28 -2 339 -1 693 3 l642 7 0 34 c0 33 1 34 39 34
l39 0 1 307 c1 169 0 305 -3 303 -2 -3 -7 -137 -9 -298 -3 -161 -7 -295 -10
-298 -2 -3 -163 -8 -357 -11 -334 -6 -353 -5 -347 11 4 10 7 24 7 31 0 10 14
12 58 8 79 -7 86 2 92 134 4 75 2 103 -7 103 -6 0 -13 -6 -16 -12 -4 -10 -7
-10 -18 0 -32 30 -95 8 -112 -40 -10 -28 -47 -23 -47 6 0 35 -19 45 -88 44
l-63 -1 3 -86 c2 -67 6 -86 18 -86 11 0 13 12 11 53 -3 68 18 105 57 100 20
-2 28 -9 30 -26 3 -19 0 -23 -15 -20 -10 2 -17 9 -16 14 1 5 -7 10 -17 10 -18
0 -18 -2 -3 -18 9 -10 24 -18 34 -18 14 0 19 -10 21 -47 2 -34 7 -48 18 -48
11 0 14 11 11 48 -2 41 0 47 17 47 33 0 44 -94 20 -171 l-11 -39 -318 0 -318
0 -10 38 c-14 47 -14 162 -1 182 7 11 10 -4 10 -48 0 -55 2 -63 18 -60 13 3
17 14 18 53 1 36 5 49 15 47 7 -2 24 0 37 3 18 4 22 9 14 17 -6 6 -8 17 -5 26
4 10 2 13 -5 8 -7 -4 -12 -3 -12 3 0 5 6 12 12 14 7 3 4 6 -6 6 -11 1 -16 4
-13 8 12 11 -26 30 -83 42 l-55 11 -2 56 c-2 34 1 53 7 49 6 -4 7 5 4 23 -4
17 -1 32 5 36 6 4 11 13 11 19 0 8 -3 8 -9 -1 -6 -10 -10 -9 -14 7 -3 12 -1
19 4 15 5 -3 9 0 9 5 0 6 -25 12 -57 12 -57 2 -57 2 -18 10 31 6 25 7 -27 4
-43 -3 -68 0 -68 6 0 6 -7 3 -16 -6 -13 -13 -19 -14 -25 -4 -20 34 145 53 218
27 28 -10 33 -16 28 -33 -13 -39 -14 -205 -2 -205 7 0 6 -4 -3 -10 -13 -8 -13
-10 2 -10 9 0 18 5 20 12 2 6 26 12 54 12 47 1 50 -1 66 -35 14 -28 16 -42 8
-69 -6 -19 -10 -63 -10 -98 0 -53 3 -63 16 -60 14 2 16 16 15 78 -1 41 -2 90
-1 108 1 44 -16 71 -55 87 -24 11 -42 12 -66 5 -19 -6 -35 -10 -36 -10 -6 0 0
156 6 185 l6 29 95 -3 c62 -1 98 -7 105 -15 6 -7 21 -27 35 -45 14 -18 30 -38
35 -44 6 -7 30 -36 53 -64 24 -29 48 -53 52 -53 13 0 -1 41 -16 47 -8 3 -14
13 -14 23 0 11 -5 22 -12 26 -7 5 -8 2 -3 -7 4 -8 -2 -4 -14 8 -11 12 -21 27
-21 33 0 5 -5 10 -11 10 -6 0 -8 7 -5 15 3 10 1 15 -7 13 -7 -2 -13 0 -15 5
-1 4 -13 18 -27 31 l-25 24 24 6 c25 6 25 7 11 47 -8 23 -13 53 -10 68 5 25 5
26 -6 3 -9 -17 -9 -31 -1 -59 6 -20 9 -40 7 -44 -9 -13 -104 -21 -164 -14 -59
7 -59 7 -50 33 5 15 13 56 18 91 7 54 5 72 -10 106 -10 22 -20 43 -23 46 -3 3
-29 2 -58 -2 -54 -7 -115 11 -103 31 3 4 -1 10 -7 13 -7 2 -10 7 -7 11 4 4 25
0 48 -7 23 -8 43 -11 46 -7 3 4 -9 10 -25 14 -24 4 -30 11 -30 30 0 25 -12 40
-24 29 -3 -3 -1 -12 5 -19 9 -11 7 -15 -5 -20 -27 -10 -31 4 -13 41 25 52 54
62 119 40 35 -11 54 -13 56 -6 2 6 12 11 23 11 10 0 19 5 19 11 0 6 -7 9 -15
5 -10 -3 -15 1 -16 12 0 13 -3 12 -11 -6 -8 -15 -17 -21 -27 -17 -9 4 -39 9
-67 12 -45 5 -55 2 -75 -18 -13 -13 -30 -24 -39 -24 -8 -1 -25 -5 -37 -9 -33
-11 -103 11 -103 32 0 14 2 15 9 3 8 -12 14 -12 33 -3 l23 12 -25 -5 c-22 -5
-23 -5 -7 5 11 7 33 9 55 5 26 -5 32 -9 21 -16 -11 -7 -11 -9 4 -9 10 0 27 9
39 20 12 11 17 20 12 20 -6 0 -15 -5 -21 -11 -8 -8 -17 -8 -31 0 -32 17 -88
13 -192 -14 -114 -29 -112 -29 -108 -9 2 10 -3 19 -10 21 -9 4 -11 -5 -6 -36
4 -28 3 -41 -5 -41 -6 0 -11 -7 -11 -15 0 -18 5 -18 29 -5 15 7 24 1 49 -36
37 -52 38 -54 15 -54 -14 0 -12 -4 7 -25 13 -14 35 -25 49 -25 14 0 37 -9 51
-20 38 -30 69 -23 38 8 -7 7 -10 12 -7 12 2 0 51 9 109 20 58 11 130 20 160
20 51 0 56 -2 67 -28 21 -46 24 -85 13 -137 -6 -27 -12 -57 -14 -65 -1 -8 -6
-14 -10 -14 -121 26 -149 27 -248 8 -27 -5 -27 -6 -21 -69 5 -59 4 -65 -20
-89 -65 -65 -179 8 -148 95 6 18 11 35 11 40 0 16 -116 31 -187 25 l-73 -6 0
324 0 324 33 6 c48 9 155 6 205 -6 42 -10 43 -12 36 -42 -4 -17 -7 -42 -6 -55
2 -25 21 -55 30 -46 3 2 -1 11 -8 20 -11 14 -11 55 1 104 8 33 -168 56 -263
35 l-28 -6 0 326 0 326 329 0 329 0 -10 -37 c-5 -21 -7 -62 -4 -93 l6 -55
-171 3 -172 3 35 -48 c19 -26 45 -68 59 -93 13 -25 34 -56 47 -70 12 -14 22
-29 22 -35 0 -6 11 -27 25 -47 14 -20 25 -40 25 -43 0 -4 -45 -5 -100 -3 l-99
3 -3 -163 -3 -162 218 -1 c262 -2 228 -2 338 0 53 0 88 5 84 10 -3 5 -1 13 5
16 6 4 9 1 8 -7 -4 -16 -18 -15 271 -17 243 -1 244 -1 226 -21 -13 -14 -32
-20 -69 -22 -47 -1 -48 -2 -11 -5 50 -6 60 -21 29 -45 -13 -11 -24 -29 -24
-40 0 -13 -5 -18 -14 -15 -16 6 -28 -16 -20 -36 3 -8 -2 -20 -10 -27 -9 -7
-13 -17 -9 -23 4 -6 0 -8 -10 -4 -11 4 -14 2 -11 -8 3 -8 -1 -22 -10 -30 -9
-9 -16 -13 -16 -8 0 5 5 14 10 19 8 8 7 14 -2 22 -10 8 -13 4 -14 -16 -1 -26
-63 -166 -70 -159 -2 2 5 22 16 46 21 41 20 61 -3 61 -9 0 -9 -2 0 -8 10 -6 9
-16 -6 -45 -10 -20 -21 -34 -24 -31 -3 3 -3 -4 0 -15 3 -12 -1 -29 -10 -39 -8
-9 -22 -32 -32 -50 -9 -19 -19 -31 -23 -28 -3 4 0 12 6 18 16 16 15 25 -2 31
-9 4 -23 -6 -35 -26 -22 -34 -29 -21 -10 16 l12 22 -23 -20 c-15 -13 -21 -15
-18 -6 2 8 -3 23 -11 32 -33 36 -42 50 -54 77 -19 44 -48 82 -58 76 -5 -3 -4
7 1 22 9 24 9 25 -5 14 -14 -12 -14 -10 -5 16 9 27 9 28 -5 10 -12 -16 -15
-17 -15 -4 0 8 -10 28 -22 44 -13 15 -22 37 -20 49 2 14 0 16 -6 7 -7 -10 -13
-7 -25 12 -39 58 -57 98 -51 109 4 7 4 9 -1 5 -4 -4 -16 -3 -26 3 -25 13 -24
-2 1 -34 11 -14 20 -28 20 -32 0 -4 -22 -5 -50 -3 -37 4 -50 2 -50 -8 0 -17
73 -31 78 -15 6 19 29 12 46 -14 18 -28 21 -39 6 -30 -6 3 -13 -1 -16 -10 -8
-20 12 -68 25 -61 5 3 11 -3 14 -13 2 -11 14 -24 26 -30 24 -13 27 -9 9 11 -7
8 -26 28 -41 44 -23 26 -25 33 -14 43 12 9 21 1 48 -44 19 -31 66 -104 104
-164 39 -60 89 -139 111 -176 l41 -67 33 60 33 60 56 5 c31 3 78 13 104 22 49
17 78 12 44 -7 -13 -7 -17 -17 -13 -31 2 -12 -2 -33 -9 -47 -14 -24 -14 -24
-15 23 0 27 -5 47 -11 47 -7 0 -9 -16 -4 -47 5 -42 3 -50 -15 -61 -21 -13 -22
-12 -18 25 2 32 0 38 -17 40 -11 1 -13 0 -5 -3 11 -3 14 -16 11 -51 -2 -30 -6
-41 -12 -32 -4 8 -6 25 -3 39 4 22 3 22 -5 5 -5 -11 -10 -32 -10 -47 -1 -16
-5 -28 -9 -28 -11 0 1 108 14 119 5 5 20 11 34 14 14 3 7 4 -15 4 l-40 -2 -17
-65 c-14 -56 -15 -94 -2 -109 3 -3 47 29 87 64 24 21 27 19 27 -12 0 -63 -6
-68 -72 -68 l-60 0 -19 40 c-11 22 -26 46 -33 53 -11 12 -13 9 -8 -15 3 -15
11 -37 19 -49 7 -12 11 -30 7 -40 -5 -18 -5 -18 6 -1 6 9 16 15 21 12 5 -4 3
-15 -6 -28 -8 -12 -15 -31 -14 -42 0 -19 1 -18 9 3 5 12 14 22 20 22 5 0 10 7
10 15 0 19 58 29 92 16 32 -12 38 -1 38 66 0 27 6 50 14 57 20 16 58 136 43
136 -7 0 -3 6 7 12 24 14 161 4 182 -13 10 -8 12 -22 8 -45 -4 -23 -1 -42 10
-59 15 -23 7 -43 -13 -31 -5 4 -8 -2 -7 -11 3 -20 31 -25 31 -5 0 6 5 11 10
10 6 -2 9 -5 8 -8 -1 -3 26 -5 60 -4 36 1 63 6 65 13 2 6 7 9 12 6 4 -3 13 9
20 25 11 27 10 53 -6 93 -13 35 122 49 212 22 35 -10 51 -11 59 -3 7 7 6 9 -5
6 -8 -3 -29 1 -47 9 -52 21 -206 14 -241 -12 -1 -1 5 -18 13 -38 17 -42 8 -79
-24 -96 -34 -19 -95 -13 -120 11 -20 18 -23 28 -18 69 6 46 5 48 -29 64 -28
13 -53 15 -117 11 -110 -7 -126 -10 -120 -18 2 -5 -2 -8 -10 -8 -9 0 -19 17
-25 43 -21 83 -21 98 7 143 24 40 29 43 68 44 32 0 46 5 57 22 13 18 16 19 16
5 0 -9 -4 -17 -9 -17 -5 0 -9 -6 -8 -12 0 -7 -1 -22 -2 -33 l-2 -20 -10 20
c-7 15 -7 11 -3 -14 5 -25 3 -32 -6 -26 -9 5 -11 4 -6 -4 4 -6 2 -28 -5 -49
-19 -53 -19 -62 -3 -62 8 0 14 2 14 5 0 2 14 52 31 111 22 77 27 109 19 118
-5 8 -7 21 -4 30 4 10 1 35 -6 57 -12 34 -11 41 3 57 10 10 17 24 17 30 0 9
56 12 209 12 l210 0 3 103 c2 56 2 129 0 162 l-3 60 -99 -3 c-55 -2 -100 -1
-100 3 0 7 15 32 75 125 66 103 125 199 125 205 0 3 -125 5 -278 5 l-279 0 1
90 1 90 353 0 352 0 0 -321 c-1 -177 1 -324 4 -327 4 -3 6 144 6 326 l0 332
-1040 2 -1040 3 0 -37z m1350 -70 l0 -93 -340 3 -340 3 -2 37 c-3 53 -1 89 6
117 l6 25 335 0 335 0 0 -92z m-1358 -608 c3 -545 1 -620 -12 -621 -10 0 -9
-3 4 -8 11 -4 45 -2 75 6 44 10 70 11 122 2 l66 -12 -5 -48 c-4 -38 0 -54 18
-79 17 -24 20 -34 10 -40 -6 -4 7 -6 29 -4 55 4 52 -9 -6 -23 -56 -13 -83 -3
-83 30 0 18 -2 19 -10 7 -5 -8 -10 -10 -10 -4 0 6 3 14 7 18 4 4 6 23 4 42 -2
23 2 34 11 34 10 0 9 3 -2 10 -10 6 -11 10 -2 10 6 0 12 4 12 8 0 5 -14 6 -31
4 -21 -3 -30 -1 -25 6 5 8 -9 9 -44 5 -29 -3 -50 -2 -50 4 0 5 15 8 33 7 l32
-3 -30 8 c-16 4 -34 4 -40 0 -5 -3 -28 -9 -50 -13 -29 -5 -36 -4 -25 3 13 9
13 11 -2 11 -10 0 -18 -7 -18 -17 0 -9 -3 -14 -6 -11 -7 8 -5 1242 2 1266 5
14 4 15 -5 2 -9 -13 -11 -13 -11 3 0 10 8 17 20 17 19 0 20 -9 22 -620z m410
485 c2 3 326 5 718 5 524 0 716 -3 727 -11 11 -10 12 -8 7 7 -4 15 -4 16 4 5
11 -15 5 -41 -9 -41 -5 0 -9 -7 -9 -16 0 -8 -4 -12 -10 -9 -5 3 -10 -2 -10
-12 -1 -19 -22 -53 -34 -53 -4 0 -11 10 -16 23 -6 16 -9 17 -9 5 -1 -9 5 -23
13 -31 9 -9 11 -19 5 -28 -7 -12 -9 -12 -10 1 -1 15 -20 -34 -21 -56 -1 -6
-15 -10 -32 -8 -22 3 -27 1 -16 -5 8 -6 18 -7 23 -4 5 3 3 -5 -4 -18 -8 -13
-14 -31 -14 -39 0 -12 -15 -15 -75 -15 -41 0 -78 -4 -82 -10 -5 -7 -8 -6 -8 0
0 7 -15 9 -35 7 l-35 -4 35 52 c35 52 46 102 23 99 -7 -1 -22 -1 -33 0 -16 1
-17 3 -5 11 11 7 9 9 -10 8 -14 -1 -30 -5 -36 -10 -6 -4 -37 -7 -68 -7 -32 1
-53 5 -47 9 7 3 -4 6 -23 6 -19 -1 -32 -5 -29 -9 3 -5 -4 -4 -15 2 -15 8 -21
8 -25 -2 -3 -9 -7 -9 -20 2 -11 9 -17 10 -17 2 0 -6 -7 -11 -15 -11 -11 0 -15
12 -15 46 0 27 -4 43 -10 39 -5 -3 -10 -24 -10 -46 l0 -40 -195 2 c-107 1
-195 4 -195 8 0 4 -15 7 -32 8 -20 0 -24 -1 -10 -4 12 -2 22 -9 22 -15 0 -5
-7 -7 -16 -4 -8 3 -12 2 -9 -4 3 -6 35 -10 70 -10 52 0 63 -3 59 -14 -3 -8
-19 -19 -36 -25 -17 -6 -29 -13 -26 -16 9 -10 56 13 71 35 14 20 20 20 340 18
l327 -3 -38 -62 -37 -61 -230 -1 c-147 0 -224 3 -215 9 9 6 10 10 3 10 -6 0
-15 -4 -18 -10 -3 -5 -46 -10 -94 -10 l-87 0 -22 43 c-37 71 -46 79 -76 67
-33 -12 -34 -24 -1 -18 13 3 22 2 20 -2 -2 -4 3 -16 13 -26 9 -11 22 -30 29
-41 12 -21 11 -21 -105 -20 -105 2 -117 4 -120 21 -3 11 0 16 7 12 7 -4 9 -1
5 8 -3 9 -10 13 -15 10 -5 -3 -6 2 -3 10 3 9 11 13 18 9 6 -3 7 -2 3 2 -12 14
-38 15 -30 2 15 -28 -9 3 -51 64 -55 81 -113 188 -94 171 8 -6 17 -10 20 -7z
m348 -323 c0 -2 -7 -10 -15 -18 -14 -14 -19 -11 -16 9 1 5 -3 6 -9 2 -5 -3
-17 -2 -25 2 -10 6 -2 9 25 9 22 0 40 -1 40 -4z m24 -17 c-9 -14 -12 -25 -7
-25 6 0 15 -17 22 -37 7 -21 15 -44 18 -51 4 -11 1 -12 -15 -3 -11 6 -30 11
-41 11 -17 0 -21 6 -21 30 0 17 -5 30 -11 30 -7 0 -9 -9 -5 -22 3 -13 6 -30 6
-39 0 -12 16 -19 63 -26 l62 -10 -56 -2 c-51 -1 -56 -3 -56 -23 1 -98 1 -97
-57 -89 -6 0 -1 7 10 15 10 8 21 12 24 10 2 -3 -2 -10 -10 -15 -13 -9 -13 -10
0 -6 8 2 17 14 18 26 3 17 0 21 -10 15 -11 -6 -11 -5 0 9 11 13 11 23 3 44 -8
20 -10 22 -7 5 2 -12 0 -20 -5 -16 -5 3 -9 14 -9 24 0 15 -10 20 -55 25 -30 4
-71 4 -92 0 -33 -6 -35 -5 -24 9 7 9 18 13 23 10 5 -3 8 2 6 11 -4 21 35 30
60 14 14 -8 11 -9 -11 -4 -17 3 -26 2 -23 -4 3 -5 0 -12 -6 -15 -7 -3 10 -5
37 -4 28 0 60 -3 73 -7 20 -7 22 -4 20 22 -1 16 2 34 6 41 4 7 2 19 -4 27 -17
20 -5 19 27 -2 17 -11 24 -13 19 -5 -5 8 -1 21 10 33 25 27 37 24 18 -6z m216
5 c0 -4 -9 -19 -20 -33 -11 -14 -17 -32 -14 -41 3 -9 3 -16 0 -16 -4 0 -12 13
-17 30 -6 16 -15 28 -21 27 -5 -1 -17 8 -25 21 -14 21 -14 22 6 22 11 0 21 -5
21 -11 0 -5 -4 -7 -10 -4 -5 3 -10 1 -10 -4 0 -19 28 -12 35 8 4 13 12 17 30
13 14 -2 25 -8 25 -12z m500 6 c0 -8 5 -16 11 -18 7 -2 9 -13 5 -26 -6 -17
-15 -22 -42 -22 -19 0 -34 -4 -34 -10 0 -5 19 -10 42 -10 54 0 46 -6 -19 -13
-46 -5 -53 -4 -53 11 0 15 2 15 10 2 8 -13 10 -12 10 3 0 9 -4 17 -10 17 -5 0
-9 12 -9 28 1 15 3 20 6 10 3 -11 10 -15 20 -11 11 4 14 2 9 -5 -4 -7 -2 -12
3 -12 6 0 11 5 11 10 0 6 9 10 21 10 18 0 19 2 5 15 -17 17 -30 20 -21 5 10
-17 -25 -11 -43 7 -16 16 -16 16 0 10 10 -3 28 -2 40 3 32 12 38 12 38 -4z
m183 -6 c-3 -11 -1 -10 10 3 14 17 15 17 21 0 4 -10 4 -14 0 -10 -4 4 -13 -6
-20 -23 -7 -16 -17 -30 -22 -30 -13 0 -24 44 -12 48 6 2 8 8 5 12 -3 5 -12 7
-19 4 -8 -3 -16 -1 -19 4 -3 4 9 8 27 8 25 -1 32 -5 29 -16z m-1273 -2 c0 -10
2 -10 8 -1 4 6 23 11 42 10 l35 0 -34 -36 c-19 -20 -38 -35 -43 -33 -13 4 -9
-16 5 -21 9 -3 9 -9 0 -25 -8 -13 -9 -23 -3 -27 6 -3 10 -11 10 -16 0 -6 -4
-8 -8 -5 -4 2 -8 -4 -8 -14 0 -10 4 -16 8 -14 4 3 8 -2 8 -10 0 -9 5 -16 10
-16 14 0 12 -28 -2 -33 -7 -2 -10 -7 -7 -11 4 -4 14 0 23 9 13 14 16 14 16 2
0 -19 -21 -27 -71 -27 l-39 0 0 140 0 140 25 0 c14 0 25 -6 25 -12z m715 -10
c6 -4 2 -8 -7 -8 -10 0 -18 7 -18 17 0 9 3 12 8 7 4 -5 12 -12 17 -16z m37 5
c2 -10 1 -34 -3 -52 -4 -19 -6 -38 -4 -41 2 -4 31 -8 65 -9 69 -2 102 10 55
20 l-30 7 31 1 c20 1 34 -5 37 -13 8 -19 -25 -30 -82 -28 -25 1 -52 -4 -60
-11 -12 -10 -13 -9 -7 2 6 10 4 12 -11 7 -17 -5 -19 0 -18 64 0 47 4 70 12 70
6 0 13 -8 15 -17z m30 -18 c-2 -19 -9 -35 -14 -35 -6 0 -7 7 -4 16 3 9 6 24 6
35 0 10 4 19 8 19 4 0 6 -16 4 -35z m718 -6 c0 -33 -3 -40 -16 -35 -9 3 -22 6
-30 6 -9 0 -12 5 -8 12 4 7 3 8 -4 4 -17 -11 -15 -24 6 -28 13 -3 12 -5 -6
-10 -20 -6 -23 -3 -22 20 1 15 1 29 0 32 -12 34 -7 40 36 40 l44 0 0 -41z
m-1247 15 c43 -22 43 -21 16 -43 -21 -17 -26 -17 -44 -5 -10 8 -31 14 -46 14
-30 0 -79 -34 -79 -56 0 -8 -6 -14 -14 -14 -22 0 -27 -16 -15 -44 6 -13 8 -33
5 -43 -7 -16 -9 -16 -21 7 -26 47 -17 130 19 165 38 38 124 47 179 19z m231
-40 c32 -69 32 -72 4 -77 -17 -3 -15 -4 5 -3 15 0 32 -5 36 -13 11 -17 25 4
17 25 -3 8 -2 12 3 9 6 -3 22 22 37 55 25 57 29 61 53 55 14 -4 28 -8 30 -11
4 -4 -27 -80 -72 -171 -29 -60 -32 -63 -66 -63 -34 0 -38 3 -53 43 -9 23 -32
77 -51 119 -39 83 -40 80 20 87 6 0 23 -24 37 -55z m456 47 c0 -34 -13 -41
-76 -41 -62 0 -64 1 -64 25 0 24 2 25 70 25 39 0 70 -4 70 -9z m40 -85 c0 -85
-2 -95 -25 -120 -27 -29 -45 -34 -45 -10 0 36 23 160 31 169 5 5 9 19 9 32 0
14 6 23 15 23 12 0 15 -17 15 -94z m249 41 c18 -44 18 -48 3 -42 -9 4 -35 9
-57 11 -35 3 -34 2 14 -10 29 -8 58 -19 64 -25 6 -6 20 9 40 49 27 51 34 59
65 62 19 2 36 -1 37 -6 2 -6 6 -60 8 -121 l5 -110 -29 -2 c-17 -1 -29 3 -29
10 0 7 -3 35 -6 63 -4 32 -1 60 6 75 7 13 9 21 5 17 -5 -4 -14 -3 -21 3 -9 8
-15 4 -24 -13 -10 -21 -10 -21 3 -5 9 11 18 14 21 8 8 -13 -33 -101 -51 -108
-29 -11 -59 7 -80 49 l-22 43 0 -41 c-1 -23 -4 -56 -7 -73 -6 -26 -11 -31 -36
-31 l-30 0 6 58 c3 31 8 86 12 122 l6 65 38 0 c36 0 39 -3 59 -48z m-518 2
c-13 -44 -8 -70 16 -89 23 -18 23 -20 7 -21 -13 0 -14 -2 -5 -6 11 -5 11 -7 0
-14 -10 -6 -11 -9 -1 -9 6 0 12 -5 12 -11 0 -5 -4 -7 -10 -4 -5 3 -10 2 -10
-4 0 -5 5 -13 10 -16 6 -3 10 -1 10 4 0 6 5 11 11 11 6 0 9 -6 6 -14 -3 -8 1
-13 11 -12 9 0 18 -7 20 -16 2 -10 -1 -18 -7 -18 -6 0 -7 8 -4 18 6 15 5 15
-10 3 -11 -9 -17 -10 -17 -2 0 6 -4 11 -10 11 -5 0 -10 -6 -10 -12 0 -9 -15
-12 -51 -9 -38 2 -49 6 -45 17 3 7 1 16 -4 19 -5 3 -10 -5 -12 -17 -2 -12 -9
-23 -16 -26 -10 -3 -11 1 -4 14 43 86 71 157 66 166 -5 7 -2 8 5 4 7 -5 10
-15 7 -23 -3 -8 -1 -11 5 -8 5 4 7 15 4 26 -4 10 -2 19 3 19 6 0 8 10 5 21 -5
16 -2 20 8 17 8 -3 12 -12 10 -19z m99 -31 c0 -5 -11 -8 -25 -8 -14 0 -25 4
-25 9 0 5 11 8 25 7 14 0 25 -4 25 -8z m695 -7 c5 -9 -3 -13 -57 -25 -39 -9
-35 9 5 22 43 13 45 14 52 3z m-445 -20 c0 -5 7 -11 14 -14 10 -4 13 -1 9 9
-3 7 0 14 6 14 13 0 14 -23 4 -71 l-7 -34 -7 30 -7 30 -2 -30 -2 -30 -9 30
c-8 30 -8 30 -5 -5 2 -23 -2 -39 -13 -47 -14 -12 -14 -12 2 -7 9 3 17 1 17 -5
0 -6 4 -11 9 -11 5 0 7 9 4 20 -3 11 0 20 6 20 12 0 16 -52 4 -63 -3 -4 -12
-2 -20 4 -10 9 -13 8 -13 -2 -1 -9 -6 -7 -16 6 -12 16 -16 17 -23 6 -6 -8 -19
-12 -35 -9 -14 3 -26 1 -26 -4 0 -5 -4 -6 -10 -3 -5 3 6 20 25 37 19 16 35 38
35 47 0 10 7 26 15 37 13 18 14 17 15 -16 0 -26 -3 -31 -10 -20 -8 12 -10 11
-10 -7 0 -12 -10 -29 -22 -37 -12 -9 -19 -18 -15 -22 3 -4 20 8 37 25 26 25
31 38 29 69 -1 20 -1 43 0 50 1 14 21 17 21 3z m-37 -18 c-3 -7 -9 -13 -14
-13 -5 0 -9 6 -9 13 0 8 6 14 14 14 8 0 12 -6 9 -14z m477 -69 c0 -91 -19 -93
-22 -1 l-2 62 -3 -55 c-5 -73 -9 -85 -27 -71 -11 9 -15 9 -20 -1 -3 -7 -3 1 1
17 3 17 10 36 16 42 5 7 7 25 4 39 -4 24 13 41 46 43 4 1 7 -33 7 -75z m-1400
52 c0 -20 48 -56 74 -56 11 0 33 6 48 14 31 16 68 11 68 -10 0 -19 -55 -51
-100 -59 -22 -4 -50 -1 -70 7 -31 13 -33 17 -35 66 -1 29 2 52 7 52 4 0 8 -6
8 -14z m98 -1 c15 3 21 2 14 -1 -6 -3 -10 -10 -7 -14 3 -5 1 -11 -5 -15 -5 -3
-10 -1 -10 6 0 9 -3 9 -14 0 -10 -8 -16 -9 -21 -1 -3 5 -2 10 4 10 6 0 9 6 7
13 -1 6 -1 9 1 5 3 -5 17 -6 31 -3z m82 -5 c0 -10 -38 -1 -45 10 -2 4 7 5 20
2 14 -2 25 -8 25 -12z m620 -5 c0 -19 -37 -25 -57 -9 -14 11 -15 15 -5 22 18
12 62 3 62 -13z m-750 9 c0 -8 -19 -13 -24 -6 -3 5 1 9 9 9 8 0 15 -2 15 -3z
m675 -30 c19 -19 32 -24 51 -20 21 6 24 3 24 -24 0 -28 -3 -30 -35 -30 -55 0
-132 77 -92 93 21 9 26 8 52 -19z m-401 4 c-4 -6 0 -16 8 -22 17 -12 38 -49
38 -65 0 -7 -23 -10 -61 -9 l-60 2 3 46 c3 41 6 45 33 51 45 10 47 10 39 -3z
m791 -49 c-10 -15 -25 -10 -19 6 4 8 10 12 15 9 5 -3 7 -10 4 -15z m100 -10
c-4 -18 -3 -29 2 -26 5 3 15 2 23 -4 11 -6 4 -9 -22 -9 -25 0 -46 8 -65 25
-24 21 -25 24 -9 25 10 0 25 -8 32 -17 7 -10 16 -14 20 -10 5 4 2 12 -6 17
-13 8 -12 10 3 10 9 0 17 5 17 10 0 6 3 10 6 10 3 0 3 -14 -1 -31z m-85 -18
c0 -11 -31 -24 -39 -16 -3 3 1 10 9 15 19 12 30 12 30 1z m-313 -23 c-3 -8 -6
-5 -6 6 -1 11 2 17 5 13 3 -3 4 -12 1 -19z m-972 -88 c-3 -5 14 -12 37 -16
l43 -7 -65 -14 c-36 -7 -75 -18 -86 -24 -23 -12 -64 2 -64 22 0 6 -7 9 -15 5
-8 -3 -15 -1 -15 3 0 5 23 14 50 20 41 9 58 8 87 -4 51 -21 66 -18 18 4 -37
17 -38 18 -13 18 15 0 25 -3 23 -7z m169 -47 c-4 -16 -7 -28 -8 -29 -1 0 -39
-11 -86 -23 -47 -12 -92 -24 -100 -27 -10 -2 -20 7 -27 26 -11 29 -10 30 15
31 15 0 63 11 107 24 107 30 107 30 99 -2z m956 -12 c0 -49 -8 -71 -27 -71 -8
0 -11 -4 -8 -10 4 -6 -8 -10 -28 -10 l-35 0 41 64 c23 36 45 65 50 65 4 1 7
-17 7 -38z m-1195 -52 c4 -16 13 -29 21 -29 8 0 14 -5 14 -11 0 -6 -7 -8 -16
-5 -9 3 -19 6 -24 6 -4 0 -8 6 -7 13 1 33 -4 47 -18 47 -8 0 -15 4 -15 9 0 23
39 -4 45 -30z m259 -18 l14 -26 -53 -2 c-28 -1 -64 -7 -78 -12 -31 -12 -67 -4
-45 10 10 7 9 9 -5 9 -14 0 -16 -5 -11 -26 5 -21 4 -25 -7 -19 -7 5 -29 12
-49 16 -29 6 -30 7 -9 8 15 0 29 8 33 16 3 8 14 15 24 15 11 0 36 7 56 15 20
8 47 16 61 17 14 1 25 6 25 10 0 16 31 -6 44 -31z m757 -124 c-10 -9 -11 -8
-5 6 3 10 9 15 12 12 3 -3 0 -11 -7 -18z m17 -39 c-1 -13 4 -40 11 -61 15 -43
15 -42 -17 -52 -21 -6 -23 -5 -13 13 14 26 15 80 1 66 -5 -5 -13 -27 -18 -49
-7 -34 -12 -40 -36 -43 -32 -4 -33 -8 19 81 41 70 56 83 53 45z m-173 -160
c-2 -24 -4 -47 -4 -52 -1 -6 -7 -1 -15 9 -12 16 -11 24 2 52 9 18 17 33 18 33
1 0 1 -19 -1 -42z m-830 -178 c-27 -12 -43 -12 -25 0 8 5 22 9 30 9 10 0 8 -3
-5 -9z m1165 -135 c16 -19 15 -82 -1 -101 -28 -34 -89 0 -89 51 0 52 61 85 90
50z m-30 -132 c33 4 40 2 40 -12 0 -42 -63 -56 -93 -21 -22 26 -24 58 -2 40 9
-8 30 -11 55 -7z"/>
<path d="M1186 2481 c6 -6 87 -1 94 6 2 2 -19 3 -48 2 -28 -1 -49 -5 -46 -8z"/>
<path d="M1563 2483 c178 -3 197 -5 198 -21 0 -14 2 -14 6 -2 3 8 11 18 16 22
6 4 -86 6 -204 5 l-214 -1 198 -3z"/>
<path d="M1802 2465 c0 -16 2 -22 5 -12 2 9 2 23 0 30 -3 6 -5 -1 -5 -18z"/>
<path d="M1180 2444 c0 -10 5 -26 10 -34 8 -11 9 -7 4 15 -8 37 -14 45 -14 19z"/>
<path d="M1779 2423 c0 -25 -1 -26 -10 -8 -6 15 -7 11 -3 -15 7 -35 21 -53 36
-44 5 3 6 10 2 15 -3 5 -10 7 -15 3 -6 -3 -7 10 -3 35 4 23 4 41 0 41 -3 0 -6
-12 -7 -27z"/>
<path d="M1171 2374 c0 -11 3 -14 6 -6 3 7 2 16 -1 19 -3 4 -6 -2 -5 -13z"/>
<path d="M1353 2363 c75 -2 199 -2 275 0 75 1 13 3 -138 3 -151 0 -213 -2
-137 -3z"/>
<path d="M668 1163 c7 -3 16 -2 19 1 4 3 -2 6 -13 5 -11 0 -14 -3 -6 -6z"/>
<path d="M698 1053 c-3 -13 -3 -23 1 -23 4 0 12 -12 18 -27 l10 -28 -1 27 c-1
16 -4 28 -8 28 -4 0 -8 10 -10 23 l-3 22 -7 -22z"/>
<path d="M1180 2274 c-15 -8 -19 -14 -9 -14 8 0 19 4 25 9 5 5 27 11 49 14
l40 4 -40 0 c-22 1 -51 -5 -65 -13z"/>
<path d="M1688 2283 c6 -2 18 -2 25 0 6 3 1 5 -13 5 -14 0 -19 -2 -12 -5z"/>
<path d="M1798 2283 c7 -3 16 -2 19 1 4 3 -2 6 -13 5 -11 0 -14 -3 -6 -6z"/>
<path d="M1312 2271 c-10 -6 -10 -10 2 -20 10 -9 16 -9 21 -1 10 16 -7 31 -23
21z"/>
<path d="M1693 2253 c15 -2 37 -2 50 0 12 2 0 4 -28 4 -27 0 -38 -2 -22 -4z"/>
<path d="M1778 2243 c7 -3 16 -2 19 1 4 3 -2 6 -13 5 -11 0 -14 -3 -6 -6z"/>
<path d="M1353 2195 c0 -27 2 -38 4 -22 2 15 2 37 0 50 -2 12 -4 0 -4 -28z"/>
<path d="M2260 2226 c0 -8 5 -18 10 -21 6 -3 10 3 10 14 0 12 -4 21 -10 21 -5
0 -10 -6 -10 -14z"/>
<path d="M1603 2190 c0 -25 2 -35 4 -22 2 12 2 32 0 45 -2 12 -4 2 -4 -23z"/>
<path d="M920 2211 c0 -6 5 -13 10 -16 6 -3 10 1 10 9 0 9 -4 16 -10 16 -5 0
-10 -4 -10 -9z"/>
<path d="M945 2170 c3 -5 8 -10 11 -10 2 0 4 5 4 10 0 6 -5 10 -11 10 -5 0 -7
-4 -4 -10z"/>
<path d="M1680 2100 c0 -19 61 -42 96 -36 31 6 34 5 43 -26 l9 -33 1 43 c1 46
1 46 -46 33 -25 -7 -40 -5 -67 10 -20 10 -36 15 -36 9z"/>
<path d="M1458 2078 c17 -8 26 -8 34 0 9 9 4 12 -22 11 -33 0 -34 -1 -12 -11z"/>
<path d="M1638 2083 c7 -3 16 -2 19 1 4 3 -2 6 -13 5 -11 0 -14 -3 -6 -6z"/>
<path d="M1925 2080 c3 -5 8 -10 11 -10 2 0 4 5 4 10 0 6 -5 10 -11 10 -5 0
-7 -4 -4 -10z"/>
<path d="M1326 2056 c-18 -18 -18 -19 -1 -12 10 3 21 2 25 -4 9 -15 70 -25 70
-11 0 6 -14 11 -30 11 -20 0 -33 6 -38 18 -7 17 -8 17 -26 -2z"/>
<path d="M1510 2070 c-12 -8 -10 -10 8 -10 13 0 20 4 17 10 -7 12 -6 12 -25 0z"/>
<path d="M1540 2054 c-31 -8 -37 -13 -20 -13 14 0 39 6 55 14 37 17 24 16 -35
-1z"/>
<path d="M1685 2055 c4 -18 0 -20 -53 -17 -41 2 -53 0 -42 -7 20 -14 141 -14
160 0 11 8 6 9 -20 4 -26 -5 -31 -4 -20 4 13 9 13 11 -2 11 -9 0 -19 6 -22 13
-3 6 -4 3 -1 -8z"/>
<path d="M1436 2044 c-8 -21 -8 -24 4 -24 6 0 9 5 8 12 -2 6 8 15 22 19 l25 7
-26 1 c-16 1 -29 -5 -33 -15z"/>
<path d="M1920 2052 c0 -7 -15 -12 -36 -12 -21 0 -33 -4 -29 -10 9 -15 51 -12
65 5 7 9 10 18 6 22 -3 3 -6 1 -6 -5z"/>
<path d="M2166 2033 c-4 -9 -1 -21 5 -27 9 -8 10 -8 5 2 -4 7 -2 19 4 27 7 9
8 15 2 15 -5 0 -13 -8 -16 -17z"/>
<path d="M1775 2030 c3 -5 8 -10 11 -10 2 0 4 5 4 10 0 6 -5 10 -11 10 -5 0
-7 -4 -4 -10z"/>
<path d="M1210 2021 c0 -6 4 -13 10 -16 6 -3 7 1 4 9 -7 18 -14 21 -14 7z"/>
<path d="M1513 2013 c9 -2 23 -2 30 0 6 3 -1 5 -18 5 -16 0 -22 -2 -12 -5z"/>
<path d="M1437 1953 c-10 -9 -9 -23 2 -23 5 0 11 7 15 15 5 15 -5 20 -17 8z"/>
<path d="M2136 1925 c4 -8 8 -15 10 -15 2 0 4 7 4 15 0 8 -4 15 -10 15 -5 0
-7 -7 -4 -15z"/>
<path d="M847 1953 c-12 -12 -7 -22 8 -17 8 4 15 10 15 15 0 11 -14 12 -23 2z"/>
<path d="M890 1926 c0 -9 5 -16 10 -16 6 0 10 4 10 9 0 6 -4 13 -10 16 -5 3
-10 -1 -10 -9z"/>
<path d="M860 1842 c0 -55 -4 -92 -12 -100 -9 -9 -8 -12 6 -12 9 0 14 -5 11
-10 -4 -6 -11 -8 -16 -5 -5 4 -9 1 -9 -4 0 -6 11 -10 25 -9 14 1 25 8 25 14 0
7 6 15 13 17 6 3 2 6 -11 6 -23 1 -23 3 -20 96 2 52 0 95 -4 95 -5 0 -8 -40
-8 -88z"/>
<path d="M2319 1947 c5 -5 19 -7 32 -5 20 3 19 5 -9 9 -20 3 -29 2 -23 -4z"/>
<path d="M1400 1758 c-10 -21 -10 -22 3 -5 11 14 16 15 20 5 4 -9 6 -9 6 -1 2
23 -18 23 -29 1z"/>
<path d="M1828 1863 c7 -3 16 -2 19 1 4 3 -2 6 -13 5 -11 0 -14 -3 -6 -6z"/>
<path d="M2220 1899 c0 -5 5 -7 10 -4 6 3 10 8 10 11 0 2 -4 4 -10 4 -5 0 -10
-5 -10 -11z"/>
<path d="M2251 1854 c0 -11 3 -14 6 -6 3 7 2 16 -1 19 -3 4 -6 -2 -5 -13z"/>
<path d="M2118 1820 c-7 -24 -3 -38 8 -28 3 4 4 17 2 30 l-3 23 -7 -25z"/>
<path d="M2252 1790 c0 -19 2 -27 5 -17 2 9 2 25 0 35 -3 9 -5 1 -5 -18z"/>
<path d="M2021 1784 c0 -11 3 -14 6 -6 3 7 2 16 -1 19 -3 4 -6 -2 -5 -13z"/>
<path d="M1018 1733 c7 -3 16 -2 19 1 4 3 -2 6 -13 5 -11 0 -14 -3 -6 -6z"/>
<path d="M1724 1809 c-3 -5 6 -9 20 -9 31 0 34 6 6 13 -11 3 -23 1 -26 -4z"/>
<path d="M1270 1769 c0 -5 5 -7 10 -4 6 3 10 8 10 11 0 2 -4 4 -10 4 -5 0 -10
-5 -10 -11z"/>
<path d="M755 1570 c3 -5 16 -10 28 -10 18 0 19 2 7 10 -20 13 -43 13 -35 0z"/>
<path d="M717 1559 c7 -7 15 -10 18 -7 3 3 -2 9 -12 12 -14 6 -15 5 -6 -5z"/>
<path d="M1923 1509 c-2 -23 3 -25 10 -4 4 8 3 16 -1 19 -4 3 -9 -4 -9 -15z"/>
<path d="M915 1474 l-40 -14 45 5 c32 4 41 2 30 -5 -9 -6 -10 -10 -3 -10 6 0
15 5 19 11 4 8 9 7 15 -2 5 -8 9 -9 9 -4 0 6 -5 17 -10 25 -9 13 -10 13 -10 0
0 -10 -3 -11 -8 -4 -5 8 -18 7 -47 -2z"/>
<path d="M1894 809 c0 -9 5 -15 11 -12 7 2 12 10 12 17 0 7 -5 13 -12 13 -6 0
-11 -8 -11 -18z"/>
<path d="M1931 794 c0 -11 3 -14 6 -6 3 7 2 16 -1 19 -3 4 -6 -2 -5 -13z"/>
<path d="M1901 774 c-7 -8 -10 -18 -6 -22 4 -4 10 -1 12 6 3 6 9 10 14 7 5 -4
6 1 3 9 -7 19 -6 19 -23 0z"/>
<path d="M738 2483 c12 -2 32 -2 45 0 12 2 2 4 -23 4 -25 0 -35 -2 -22 -4z"/>
<path d="M978 2483 c12 -2 32 -2 45 0 12 2 2 4 -23 4 -25 0 -35 -2 -22 -4z"/>
<path d="M1883 2440 c0 -30 2 -43 4 -27 2 15 2 39 0 55 -2 15 -4 2 -4 -28z"/>
<path d="M2068 2483 c72 -2 192 -2 265 0 72 1 13 3 -133 3 -146 0 -205 -2
-132 -3z"/>
<path d="M2494 2476 c-3 -8 -4 -29 -1 -48 3 -30 4 -30 5 9 1 23 8 44 15 46 9
4 9 6 -1 6 -7 1 -15 -5 -18 -13z"/>
<path d="M521 2190 c-1 -154 2 -280 6 -280 9 0 11 546 2 554 -3 3 -6 -121 -8
-274z"/>
<path d="M833 2393 c-7 -2 -13 -12 -13 -21 1 -16 2 -16 13 -1 7 9 21 19 32 22
20 5 20 5 0 5 -11 0 -26 -2 -32 -5z"/>
<path d="M1873 2368 c-2 -5 116 -7 264 -6 268 2 240 6 -85 10 -96 2 -176 0
-179 -4z"/>
<path d="M850 2363 c0 -5 46 -7 102 -5 162 4 175 9 31 10 -73 1 -133 -1 -133
-5z"/>
<path d="M554 2130 c0 -107 2 -151 3 -97 2 53 2 141 0 195 -1 53 -3 9 -3 -98z"/>
<path d="M2492 2270 c0 -19 2 -27 5 -17 2 9 2 25 0 35 -3 9 -5 1 -5 -18z"/>
<path d="M800 2260 c0 -5 5 -10 11 -10 5 0 7 5 4 10 -3 6 -8 10 -11 10 -2 0
-4 -4 -4 -10z"/>
<path d="M834 2207 c3 -10 6 -23 6 -28 0 -5 5 -9 10 -9 14 0 12 13 -6 36 -14
17 -15 17 -10 1z"/>
<path d="M2345 2184 c-9 -15 -12 -23 -6 -20 11 7 35 46 28 46 -3 0 -12 -12
-22 -26z"/>
<path d="M812 2180 c0 -14 2 -19 5 -12 2 6 2 18 0 25 -3 6 -5 1 -5 -13z"/>
<path d="M660 2120 c0 -47 26 -104 43 -97 7 2 59 14 117 27 127 27 142 31 118
37 -9 2 -23 19 -32 37 l-16 33 -77 -18 c-43 -10 -83 -21 -90 -23 -7 -3 -15 -1
-18 4 -3 5 5 12 17 16 22 7 22 7 3 15 -11 4 -30 8 -42 8 -20 1 -23 -4 -23 -39z
m230 -4 c0 -8 6 -16 13 -19 6 -2 -12 -9 -41 -16 -30 -6 -58 -8 -64 -5 -6 4
-14 1 -18 -6 -4 -6 -20 -10 -36 -8 -33 5 -23 11 45 28 23 6 41 14 38 16 -6 6
-87 -16 -102 -27 -13 -9 -45 14 -45 32 0 12 2 12 9 0 7 -11 20 -12 58 -6 26 5
68 8 92 8 28 0 38 2 30 8 -11 7 -10 9 4 9 9 0 17 -6 17 -14z m-180 -63 c0 -19
-13 -9 -16 12 -1 8 2 13 7 9 5 -3 9 -12 9 -21z"/>
<path d="M858 2093 c7 -3 16 -2 19 1 4 3 -2 6 -13 5 -11 0 -14 -3 -6 -6z"/>
<path d="M2296 2105 c-9 -13 -16 -28 -16 -33 0 -5 -7 -15 -15 -22 -9 -7 -13
-15 -11 -18 8 -7 30 20 48 61 20 43 18 48 -6 12z"/>
<path d="M643 2034 c0 -23 5 -30 21 -32 11 0 16 2 11 6 -6 4 -15 18 -21 32
-11 24 -11 24 -11 -6z"/>
<path d="M910 2040 c-12 -8 -11 -10 7 -10 12 0 25 5 28 10 8 13 -15 13 -35 0z"/>
<path d="M2292 2035 c-7 -8 -9 -15 -4 -15 5 0 15 7 22 15 16 19 -1 19 -18 0z"/>
<path d="M813 2023 c9 -2 23 -2 30 0 6 3 -1 5 -18 5 -16 0 -22 -2 -12 -5z"/>
<path d="M2343 2023 c9 -2 25 -2 35 0 9 3 1 5 -18 5 -19 0 -27 -2 -17 -5z"/>
<path d="M738 2003 c6 -2 18 -2 25 0 6 3 1 5 -13 5 -14 0 -19 -2 -12 -5z"/>
<path d="M2453 1960 c0 -25 2 -35 4 -22 2 12 2 32 0 45 -2 12 -4 2 -4 -23z"/>
<path d="M2493 1960 c0 -25 2 -35 4 -22 2 12 2 32 0 45 -2 12 -4 2 -4 -23z"/>
<path d="M550 1920 c0 -5 5 -10 11 -10 5 0 7 5 4 10 -3 6 -8 10 -11 10 -2 0
-4 -4 -4 -10z"/>
<path d="M628 1913 c6 -2 18 -2 25 0 6 3 1 5 -13 5 -14 0 -19 -2 -12 -5z"/>
<path d="M697 1910 c-65 -11 -74 -22 -11 -13 58 8 110 21 79 21 -11 0 -42 -4
-68 -8z"/>
<path d="M2470 1900 c0 -5 5 -10 11 -10 5 0 7 5 4 10 -3 6 -8 10 -11 10 -2 0
-4 -4 -4 -10z"/>
<path d="M2503 1896 c0 -8 6 -12 14 -9 7 3 10 9 7 14 -8 14 -21 11 -21 -5z"/>
<path d="M520 1896 c0 -2 9 -6 20 -9 11 -3 18 -1 14 4 -5 9 -34 13 -34 5z"/>
<path d="M588 1893 c6 -2 18 -2 25 0 6 3 1 5 -13 5 -14 0 -19 -2 -12 -5z"/>
<path d="M2420 1871 c0 -6 12 -11 26 -11 15 0 45 -5 67 -12 l40 -12 -7 -304
c-4 -203 -3 -301 4 -297 6 4 10 115 10 306 l0 300 -32 14 c-50 20 -108 29
-108 16z"/>
<path d="M2433 1800 c0 -25 2 -35 4 -22 2 12 2 32 0 45 -2 12 -4 2 -4 -23z"/>
<path d="M2481 1814 c0 -11 3 -14 6 -6 3 7 2 16 -1 19 -3 4 -6 -2 -5 -13z"/>
<path d="M2453 1750 c0 -41 2 -56 4 -33 3 29 9 43 21 46 16 4 16 5 0 6 -10 1
-18 12 -21 29 -2 15 -4 -7 -4 -48z"/>
<path d="M2513 1740 c0 -36 2 -50 4 -32 2 17 2 47 0 65 -2 17 -4 3 -4 -33z"/>
<path d="M722 1733 c24 -51 33 -63 45 -63 7 0 13 5 13 11 0 5 -4 8 -10 4 -5
-3 -16 8 -25 25 -8 16 -18 30 -21 30 -3 0 -4 -3 -2 -7z"/>
<path d="M571 1654 c0 -19 5 -34 13 -37 9 -4 12 -14 9 -29 -3 -13 -2 -19 2
-15 15 13 15 40 0 51 -7 6 -16 22 -18 36 -4 21 -4 21 -6 -6z"/>
<path d="M697 1660 c3 -11 7 -20 9 -20 2 0 4 9 4 20 0 11 -4 20 -9 20 -5 0 -7
-9 -4 -20z"/>
<path d="M600 1654 c0 -8 5 -12 10 -9 6 3 10 10 10 16 0 5 -4 9 -10 9 -5 0
-10 -7 -10 -16z"/>
<path d="M667 1640 c3 -11 7 -20 9 -20 2 0 4 9 4 20 0 11 -4 20 -9 20 -5 0 -7
-9 -4 -20z"/>
<path d="M768 1653 c7 -3 16 -2 19 1 4 3 -2 6 -13 5 -11 0 -14 -3 -6 -6z"/>
<path d="M1470 1649 c0 -6 18 -40 40 -75 22 -35 40 -68 40 -74 0 -5 5 -10 10
-10 6 0 10 -7 10 -16 0 -14 -3 -14 -15 -4 -19 16 -20 3 -1 -16 17 -16 30 -19
21 -4 -3 6 -1 10 4 10 6 0 11 -4 11 -8 0 -5 10 -8 23 -7 14 1 27 13 37 34 9
17 19 28 23 24 5 -4 5 1 1 10 -4 11 1 26 13 40 24 27 67 97 62 102 -4 3 -55
-5 -172 -27 l-58 -11 31 -19 c22 -13 30 -24 26 -36 -5 -15 0 -18 29 -20 24 -2
35 2 35 11 0 9 -8 13 -23 10 -17 -4 -26 2 -35 22 -11 23 -10 26 5 24 20 -2 66
7 101 22 13 5 22 6 20 2 -24 -52 -43 -83 -50 -83 -4 0 -8 -4 -8 -9 0 -6 -10
-26 -21 -46 l-22 -36 -58 98 c-55 92 -79 120 -79 92z"/>
<path d="M1798 1643 c7 -3 16 -2 19 1 4 3 -2 6 -13 5 -11 0 -14 -3 -6 -6z"/>
<path d="M2364 1635 c5 -13 -17 -15 -163 -15 -93 0 -176 -3 -185 -6 -9 -3 -16
-1 -16 5 0 8 54 12 173 13 l172 2 -169 3 c-106 2 -173 0 -180 -7 -5 -5 -10
-29 -11 -52 -1 -24 -5 -53 -9 -65 -4 -13 -3 -23 2 -23 5 0 15 19 21 43 7 23
18 48 23 55 8 9 58 12 189 12 l179 0 0 25 c0 16 -6 25 -16 25 -10 0 -14 -6
-10 -15z m-359 -34 c3 -5 2 -12 -3 -15 -5 -3 -9 1 -9 9 0 17 3 19 12 6z"/>
<path d="M1360 1629 l-85 -6 88 1 c48 1 87 -2 87 -6 0 -5 5 -8 11 -8 13 0 7
23 -7 25 -5 1 -47 -2 -94 -6z"/>
<path d="M1783 1623 c9 -2 25 -2 35 0 9 3 1 5 -18 5 -19 0 -27 -2 -17 -5z"/>
<path d="M1078 1603 c7 -3 16 -2 19 1 4 3 -2 6 -13 5 -11 0 -14 -3 -6 -6z"/>
<path d="M1733 1580 c-1 -17 2 -30 7 -30 6 0 10 6 10 14 0 8 3 21 6 30 4 10 1
16 -7 16 -8 0 -15 -12 -16 -30z"/>
<path d="M1790 1606 c0 -2 13 -6 29 -8 17 -2 28 -1 25 4 -5 8 -54 12 -54 4z"/>
<path d="M1316 1575 c9 -14 18 -25 20 -25 2 0 -2 11 -8 25 -6 14 -15 25 -20
25 -5 0 -1 -11 8 -25z"/>
<path d="M1598 1588 c6 -6 18 -8 28 -6 14 3 12 5 -9 10 -19 3 -25 2 -19 -4z"/>
<path d="M1137 1569 c4 -13 8 -18 11 -10 2 7 -1 18 -6 23 -8 8 -9 4 -5 -13z"/>
<path d="M1351 1564 c0 -11 3 -14 6 -6 3 7 2 16 -1 19 -3 4 -6 -2 -5 -13z"/>
<path d="M1855 1560 c3 -5 8 -10 11 -10 2 0 4 5 4 10 0 6 -5 10 -11 10 -5 0
-7 -4 -4 -10z"/>
<path d="M580 1551 c0 -5 5 -13 10 -16 6 -3 10 -2 10 4 0 5 -4 13 -10 16 -5 3
-10 2 -10 -4z"/>
<path d="M1700 1540 c0 -5 5 -10 10 -10 6 0 10 5 10 10 0 6 -4 10 -10 10 -5 0
-10 -4 -10 -10z"/>
<path d="M1124 1522 c1 -7 14 -21 29 -30 23 -14 29 -15 36 -3 5 8 7 20 4 28
-6 15 -43 18 -43 3 0 -14 -18 -12 -23 3 -3 9 -4 8 -3 -1z m59 -19 c-7 -2 -19
-2 -25 0 -7 3 -2 5 12 5 14 0 19 -2 13 -5z"/>
<path d="M2058 1523 c7 -3 16 -2 19 1 4 3 -2 6 -13 5 -11 0 -14 -3 -6 -6z"/>
<path d="M1054 1486 c11 -9 27 -16 35 -15 14 0 14 1 1 6 -8 3 -24 10 -35 15
-20 9 -20 9 -1 -6z"/>
<path d="M1120 1480 c8 -5 20 -10 25 -10 6 0 3 5 -5 10 -8 5 -19 10 -25 10 -5
0 -3 -5 5 -10z"/>
<path d="M1666 1471 c4 -16 3 -21 -5 -17 -6 4 -11 2 -11 -3 0 -6 4 -11 9 -11
17 0 22 19 11 37 -9 15 -10 14 -4 -6z"/>
<path d="M670 1469 c0 -5 5 -7 10 -4 6 3 10 8 10 11 0 2 -4 4 -10 4 -5 0 -10
-5 -10 -11z"/>
<path d="M658 1438 c7 -7 12 -20 12 -29 0 -10 10 -19 25 -21 14 -3 25 -1 25 3
0 5 -6 9 -13 9 -8 0 -19 11 -25 25 -6 14 -17 25 -24 25 -9 0 -9 -3 0 -12z"/>
<path d="M1277 1443 c-9 -9 -9 -23 1 -22 18 3 22 -2 12 -21 -9 -16 -8 -18 5
-14 8 4 15 14 15 24 0 20 -23 43 -33 33z"/>
<path d="M1236 1424 c-4 -9 -4 -19 -1 -22 2 -3 7 3 11 12 4 9 4 19 1 22 -2 3
-7 -3 -11 -12z"/>
<path d="M2494 1355 c1 -107 21 -101 22 7 l1 83 -7 -85 -6 -85 -5 80 -5 80 0
-80z"/>
<path d="M641 1414 c0 -11 3 -14 6 -6 3 7 2 16 -1 19 -3 4 -6 -2 -5 -13z"/>
<path d="M1060 1400 c0 -5 4 -10 9 -10 6 0 13 5 16 10 3 6 -1 10 -9 10 -9 0
-16 -4 -16 -10z"/>
<path d="M1261 1402 c-1 -7 -8 -20 -16 -28 -18 -18 -12 -32 40 -94 20 -24 40
-51 46 -61 5 -11 16 -19 24 -19 17 0 20 16 5 25 -6 4 -8 10 -5 15 9 14 -7 41
-21 36 -8 -3 -21 7 -31 24 -9 16 -21 26 -26 23 -6 -4 -8 3 -5 15 4 15 2 19 -9
15 -13 -5 -13 -2 -4 16 7 12 10 27 7 34 -3 9 -5 8 -5 -1z m89 -153 c0 -6 -4
-7 -10 -4 -5 3 -10 11 -10 16 0 6 5 7 10 4 6 -3 10 -11 10 -16z"/>
<path d="M1010 1384 c56 -17 62 -17 30 1 -14 8 -36 14 -50 14 -18 0 -12 -4 20
-15z"/>
<path d="M1122 1380 c7 -11 16 -20 21 -20 4 0 3 9 -3 20 -6 11 -15 20 -20 20
-6 0 -5 -9 2 -20z"/>
<path d="M898 1383 c7 -3 16 -2 19 1 4 3 -2 6 -13 5 -11 0 -14 -3 -6 -6z"/>
<path d="M1160 1381 c0 -5 5 -13 10 -16 6 -3 10 -2 10 4 0 5 -4 13 -10 16 -5
3 -10 2 -10 -4z"/>
<path d="M1315 1380 c-3 -5 1 -10 9 -10 9 0 16 5 16 10 0 6 -4 10 -9 10 -6 0
-13 -4 -16 -10z"/>
<path d="M748 1373 c6 -2 18 -2 25 0 6 3 1 5 -13 5 -14 0 -19 -2 -12 -5z"/>
<path d="M958 1373 c7 -3 16 -2 19 1 4 3 -2 6 -13 5 -11 0 -14 -3 -6 -6z"/>
<path d="M1971 1354 c0 -11 3 -14 6 -6 3 7 2 16 -1 19 -3 4 -6 -2 -5 -13z"/>
<path d="M1511 1344 c0 -11 3 -14 6 -6 3 7 2 16 -1 19 -3 4 -6 -2 -5 -13z"/>
<path d="M1680 1355 c0 -5 5 -17 10 -25 5 -8 10 -10 10 -5 0 6 -5 17 -10 25
-5 8 -10 11 -10 5z"/>
<path d="M1365 1315 c1 -22 7 -39 11 -37 10 4 8 21 -6 55 -6 17 -8 12 -5 -18z"/>
<path d="M1380 1345 c0 -5 5 -17 10 -25 5 -8 10 -10 10 -5 0 6 -5 17 -10 25
-5 8 -10 11 -10 5z"/>
<path d="M1980 1311 c0 -11 4 -22 9 -25 4 -3 6 6 3 19 -5 30 -12 33 -12 6z"/>
<path d="M1500 1291 c0 -6 4 -13 10 -16 6 -3 7 1 4 9 -7 18 -14 21 -14 7z"/>
<path d="M535 1270 l-20 -9 20 0 c11 0 27 4 35 9 13 9 13 10 0 9 -8 0 -24 -4
-35 -9z"/>
<path d="M888 1273 c6 -2 18 -2 25 0 6 3 1 5 -13 5 -14 0 -19 -2 -12 -5z"/>
<path d="M1038 1268 c6 -6 18 -8 28 -6 14 3 12 5 -9 10 -19 3 -25 2 -19 -4z"/>
<path d="M1128 1253 c3 -18 7 -21 13 -11 12 18 11 25 -4 31 -10 4 -13 -2 -9
-20z"/>
<path d="M2025 1269 c-14 -6 -6 -8 30 -4 35 3 44 2 30 -4 -23 -11 -5 -14 20
-5 13 5 14 8 3 15 -17 11 -58 10 -83 -2z"/>
<path d="M2260 1270 c8 -5 7 -9 -4 -13 -9 -4 -16 -11 -16 -17 0 -7 7 -5 15 4
9 9 27 13 45 11 17 -2 28 0 25 5 -3 5 -13 6 -22 3 -10 -4 -14 -2 -10 4 4 6 -4
11 -19 11 -15 0 -21 -4 -14 -8z"/>
<path d="M2348 1273 c6 -2 18 -2 25 0 6 3 1 5 -13 5 -14 0 -19 -2 -12 -5z"/>
<path d="M2428 1273 c7 -3 16 -2 19 1 4 3 -2 6 -13 5 -11 0 -14 -3 -6 -6z"/>
<path d="M620 1260 c14 -4 34 -8 45 -8 16 0 15 2 -5 8 -14 4 -34 8 -45 8 -16
0 -15 -2 5 -8z"/>
<path d="M955 1260 l-40 -7 42 -2 c23 0 45 4 48 9 3 6 3 9 -2 9 -4 -1 -26 -5
-48 -9z"/>
<path d="M1850 1260 c19 -13 30 -13 30 0 0 6 -10 10 -22 10 -19 0 -20 -2 -8
-10z"/>
<path d="M2468 1263 c7 -3 16 -2 19 1 4 3 -2 6 -13 5 -11 0 -14 -3 -6 -6z"/>
<path d="M1098 1253 c7 -3 16 -2 19 1 4 3 -2 6 -13 5 -11 0 -14 -3 -6 -6z"/>
<path d="M1239 1252 c8 -6 12 -19 8 -32 -4 -16 -3 -20 4 -13 15 15 7 45 -11
50 -12 4 -13 3 -1 -5z"/>
<path d="M2140 1245 c7 -9 15 -13 17 -11 7 7 -7 26 -19 26 -6 0 -6 -6 2 -15z"/>
<path d="M535 1240 c-17 -7 -15 -9 10 -8 17 0 44 4 60 8 29 7 28 8 -10 8 -22
0 -49 -3 -60 -8z"/>
<path d="M698 1243 c7 -3 16 -2 19 1 4 3 -2 6 -13 5 -11 0 -14 -3 -6 -6z"/>
<path d="M1023 1243 c9 -2 25 -2 35 0 9 3 1 5 -18 5 -19 0 -27 -2 -17 -5z"/>
<path d="M1156 1233 c-6 -14 -5 -15 5 -6 7 7 10 15 7 18 -3 3 -9 -2 -12 -12z"/>
<path d="M648 1233 c6 -2 18 -2 25 0 6 3 1 5 -13 5 -14 0 -19 -2 -12 -5z"/>
<path d="M928 1233 c6 -2 18 -2 25 0 6 3 1 5 -13 5 -14 0 -19 -2 -12 -5z"/>
<path d="M1381 1224 c0 -11 3 -14 6 -6 3 7 2 16 -1 19 -3 4 -6 -2 -5 -13z"/>
<path d="M1290 1210 c0 -5 5 -10 11 -10 5 0 7 5 4 10 -3 6 -8 10 -11 10 -2 0
-4 -4 -4 -10z"/>
<path d="M2137 1214 c7 -3 9 -13 6 -22 -4 -14 -3 -14 5 -2 12 16 7 30 -11 29
-9 0 -9 -2 0 -5z"/>
<path d="M1968 1203 c6 -2 18 -2 25 0 6 3 1 5 -13 5 -14 0 -19 -2 -12 -5z"/>
<path d="M777 1186 c-4 -10 -1 -13 8 -9 8 3 12 9 9 14 -7 12 -11 11 -17 -5z"/>
<path d="M1100 1176 c0 -2 7 -6 15 -10 8 -3 15 -1 15 4 0 6 -7 10 -15 10 -8 0
-15 -2 -15 -4z"/>
<path d="M1433 1165 c0 -8 4 -12 9 -9 5 3 6 10 3 15 -9 13 -12 11 -12 -6z"/>
<path d="M2136 1145 c-9 -26 -7 -32 5 -12 6 10 9 21 6 23 -2 3 -7 -2 -11 -11z"/>
<path d="M760 1133 c0 -10 4 -24 9 -31 5 -9 8 -3 7 17 -1 32 -16 45 -16 14z"/>
<path d="M1337 1143 c-14 -13 -7 -21 17 -19 14 0 22 6 19 14 -6 13 -25 16 -36
5z"/>
<path d="M1694 1135 c-3 -8 -4 -20 -2 -27 3 -7 7 -1 10 15 6 29 1 36 -8 12z"/>
<path d="M1900 1119 c0 -11 4 -18 10 -14 5 3 7 12 3 20 -7 21 -13 19 -13 -6z"/>
<path d="M2250 1130 c0 -5 5 -10 11 -10 5 0 7 5 4 10 -3 6 -8 10 -11 10 -2 0
-4 -4 -4 -10z"/>
<path d="M1515 1120 c-19 -8 -19 -9 3 -9 12 -1 22 4 22 9 0 6 -1 10 -2 9 -2 0
-12 -4 -23 -9z"/>
<path d="M2310 1097 c-7 -18 -15 -36 -18 -41 -2 -5 2 -6 9 -4 8 3 14 9 14 14
1 5 5 19 9 32 12 36 2 35 -14 -1z"/>
<path d="M2144 1107 c-4 -7 -4 -9 0 -5 5 4 18 3 31 -2 14 -5 35 -5 52 1 l28 9
-29 -4 c-17 -2 -40 0 -53 5 -15 5 -25 4 -29 -4z"/>
<path d="M1370 1090 c0 -5 5 -10 10 -10 6 0 10 5 10 10 0 6 -4 10 -10 10 -5 0
-10 -4 -10 -10z"/>
<path d="M1490 1079 c7 -11 14 -19 16 -16 7 7 -7 37 -17 37 -6 0 -5 -9 1 -21z"/>
<path d="M1051 1074 c0 -11 3 -14 6 -6 3 7 2 16 -1 19 -3 4 -6 -2 -5 -13z"/>
<path d="M1540 1081 c0 -5 5 -13 10 -16 6 -3 10 -2 10 4 0 5 -4 13 -10 16 -5
3 -10 2 -10 -4z"/>
<path d="M1880 1074 c0 -3 6 -12 14 -19 12 -12 15 -12 20 1 9 24 7 31 -4 14
-6 -10 -10 -11 -10 -2 0 6 -4 12 -10 12 -5 0 -10 -3 -10 -6z"/>
<path d="M1405 1060 c3 -5 8 -10 11 -10 2 0 4 5 4 10 0 6 -5 10 -11 10 -5 0
-7 -4 -4 -10z"/>
<path d="M408 1053 c7 -3 16 -2 19 1 4 3 -2 6 -13 5 -11 0 -14 -3 -6 -6z"/>
<path d="M553 1030 c-59 -21 -98 -46 -161 -103 -26 -23 -35 -36 -24 -33 27 9
39 -12 19 -31 -14 -14 -11 -20 31 -58 41 -37 45 -45 33 -59 -17 -20 -71 -35
-105 -29 -33 7 -76 57 -76 88 0 24 -1 24 -43 11 -44 -13 -152 -80 -176 -110
-11 -13 -11 -19 -1 -31 11 -13 10 -18 -4 -28 -15 -11 -12 -19 34 -85 46 -64
70 -82 70 -51 0 6 -4 8 -9 4 -5 -3 -12 -1 -15 4 -11 16 11 22 24 6 10 -12 10
-18 0 -30 -10 -12 6 -40 93 -162 57 -82 111 -158 118 -171 8 -12 17 -22 21
-22 7 0 185 104 453 265 39 23 85 50 103 59 l33 17 -23 19 -23 18 26 12 27 12
-40 36 c-22 20 -54 56 -71 81 -17 25 -37 52 -44 61 -7 8 -19 24 -26 34 -8 10
-19 16 -25 12 -8 -5 0 -25 24 -61 38 -56 40 -81 11 -99 -23 -15 -43 -2 -86 56
-20 27 -40 44 -48 41 -9 -4 -1 -23 31 -67 55 -77 86 -85 128 -35 16 18 28 28
28 21 0 -6 6 -9 14 -6 8 3 17 0 21 -5 12 -20 16 -61 5 -61 -9 0 -14 13 -12 31
1 4 -8 5 -18 2 -11 -3 -20 -9 -20 -14 0 -5 7 -6 15 -3 14 6 20 -6 16 -29 -1
-4 8 -3 19 3 11 6 20 16 20 22 0 7 5 6 15 -2 15 -13 11 -35 -6 -25 -5 4 -9 2
-9 -4 0 -6 -33 -29 -72 -52 -40 -23 -145 -85 -233 -138 -234 -140 -231 -138
-226 -108 1 5 -3 6 -8 3 -5 -3 -24 17 -42 46 -19 28 -37 56 -41 62 -6 8 -11 6
-18 -4 -7 -11 -10 -11 -10 -2 0 7 -4 11 -9 8 -5 -3 -12 1 -15 9 -4 13 -2 14
14 5 32 -17 24 1 -50 104 -57 79 -68 101 -60 116 12 22 4 46 -18 55 -13 5 -13
3 2 -14 13 -14 15 -24 8 -36 -7 -14 -15 -8 -46 41 -20 32 -36 62 -36 67 0 18
45 46 57 36 7 -7 14 -6 19 2 4 8 3 9 -4 5 -7 -4 -12 -2 -12 3 0 11 110 71 130
71 5 0 10 -8 10 -18 0 -10 7 -27 15 -38 8 -12 12 -24 10 -28 -3 -3 -2 -4 1 -1
4 2 19 -2 35 -10 36 -19 72 -19 110 0 16 9 35 13 42 9 9 -5 9 -4 1 5 -9 9 -9
20 -1 41 13 34 1 62 -46 110 l-30 30 27 26 c23 23 28 25 43 13 16 -13 17 -12
5 3 -12 15 -8 20 37 43 28 14 54 26 58 26 5 1 14 4 21 6 6 3 19 3 27 0 18 -7
47 -75 38 -90 -3 -5 -2 -7 3 -4 6 3 16 -3 23 -15 7 -11 8 -17 2 -14 -5 4 -13
1 -17 -5 -4 -8 -9 -7 -15 2 -5 8 -9 9 -9 3 0 -6 7 -17 16 -25 13 -10 17 -10
24 1 7 11 15 7 40 -19 27 -28 34 -30 47 -19 15 12 15 11 5 -9 -7 -12 -8 -24
-3 -27 12 -8 20 4 14 20 -3 9 0 14 7 12 7 -2 15 4 17 12 3 12 2 12 -5 2 -7
-10 -11 -10 -21 2 -10 12 -7 17 18 30 41 22 67 20 103 -5 l30 -22 -30 -13
c-17 -7 -35 -21 -41 -32 -7 -14 -17 -18 -31 -15 -25 7 -25 -5 -1 -34 14 -16
30 -23 57 -23 36 0 37 0 19 -20 -10 -11 -24 -20 -32 -20 -7 0 -13 -4 -13 -10
0 -17 28 -11 55 13 23 19 26 30 27 90 1 57 -2 71 -22 92 -43 46 -114 40 -155
-11 l-20 -26 -33 46 c-18 25 -44 70 -58 101 -14 30 -31 55 -37 55 -7 -1 -36
-9 -64 -20z m-113 -196 c0 -8 4 -14 9 -14 5 0 12 -8 15 -17 6 -15 4 -15 -14 2
-11 10 -20 24 -20 32 0 7 -5 13 -11 13 -5 0 -7 -5 -3 -12 4 -7 3 -8 -4 -4 -6
4 -9 13 -5 22 4 11 9 12 19 3 8 -6 14 -18 14 -25z m489 -36 c-2 -41 -49 -68
-49 -29 0 11 8 25 18 30 23 14 32 13 31 -1z m-854 -178 c-3 -5 3 -13 12 -19
10 -5 14 -13 10 -17 -4 -4 -14 1 -22 12 -17 22 -20 48 -5 39 6 -4 8 -10 5 -15z
m50 -68 c-3 -3 -11 0 -18 7 -9 10 -8 11 6 5 10 -3 15 -9 12 -12z m798 -67 c-3
-9 -11 -14 -17 -12 -6 2 -16 -3 -22 -11 -7 -9 -16 -12 -24 -7 -9 6 -3 13 21
26 42 23 50 23 42 4z m-717 -43 c-3 -3 2 -10 11 -17 13 -9 13 -14 3 -20 -8 -5
-11 -4 -6 3 3 5 1 12 -6 14 -6 2 -12 12 -14 21 -1 9 2 14 8 11 5 -3 7 -8 4
-12z m638 -1 c3 -5 -10 -18 -30 -30 -19 -12 -32 -17 -29 -11 3 5 1 10 -6 10
-7 0 -4 6 6 14 11 8 26 11 34 8 9 -3 12 -1 7 6 -4 7 -3 12 3 12 5 0 12 -4 15
-9z m-104 -67 c0 -8 -5 -12 -10 -9 -6 4 -8 11 -5 16 9 14 15 11 15 -7z m-20
-12 c0 -8 -44 -35 -120 -72 -31 -16 -70 -40 -87 -54 -20 -17 -37 -24 -49 -19
-11 4 -15 2 -11 -4 4 -6 -11 -17 -33 -26 -34 -13 -41 -13 -51 -1 -14 17 -3 32
12 17 11 -11 49 -6 49 7 0 10 50 31 61 25 5 -4 9 -1 9 5 0 5 16 18 35 27 19 9
32 20 29 25 -3 4 2 5 10 2 9 -4 18 0 22 9 3 9 14 13 27 10 16 -3 18 -2 8 5
-10 7 -3 14 28 28 22 10 41 22 41 27 0 4 5 5 10 2 6 -3 10 -9 10 -13z m-383
-108 c13 -19 19 -32 13 -29 -15 9 -52 65 -43 65 4 -1 18 -17 30 -36z"/>
<path d="M645 330 c-3 -6 1 -7 9 -4 18 7 21 14 7 14 -6 0 -13 -4 -16 -10z"/>
<path d="M1197 1039 c7 -7 15 -10 18 -7 3 3 -2 9 -12 12 -14 6 -15 5 -6 -5z"/>
<path d="M460 1030 c-9 -6 -10 -10 -3 -10 6 0 15 5 18 10 8 12 4 12 -15 0z"/>
<path d="M1052 1020 c0 -14 2 -19 5 -12 2 6 2 18 0 25 -3 6 -5 1 -5 -13z"/>
<path d="M1330 1025 c0 -8 5 -15 10 -15 6 0 10 7 10 15 0 8 -4 15 -10 15 -5 0
-10 -7 -10 -15z"/>
<path d="M1610 1011 c0 -12 5 -21 10 -21 6 0 10 6 10 14 0 8 -4 18 -10 21 -5
3 -10 -3 -10 -14z"/>
<path d="M1280 1006 c28 -17 50 -21 35 -7 -6 5 -21 12 -35 15 l-25 7 25 -15z"/>
<path d="M1570 1011 c0 -5 5 -13 10 -16 6 -3 10 -2 10 4 0 5 -4 13 -10 16 -5
3 -10 2 -10 -4z"/>
<path d="M566 988 c-12 -16 -16 -18 -12 -6 5 15 3 16 -14 6 -23 -14 -22 -15
12 -22 20 -3 27 0 31 16 4 14 11 19 22 14 9 -3 13 -2 10 4 -10 17 -32 11 -49
-12z"/>
<path d="M1778 993 c6 -2 18 -2 25 0 6 3 1 5 -13 5 -14 0 -19 -2 -12 -5z"/>
<path d="M1052 965 c0 -16 2 -22 5 -12 2 9 2 23 0 30 -3 6 -5 -1 -5 -18z"/>
<path d="M595 970 c3 -5 11 -10 16 -10 6 0 7 5 4 10 -3 6 -11 10 -16 10 -6 0
-7 -4 -4 -10z"/>
<path d="M1335 953 c18 -38 21 -40 21 -13 0 10 -2 17 -5 15 -2 -3 -10 3 -18
13 -10 12 -9 8 2 -15z"/>
<path d="M1590 970 c-13 -8 -12 -10 3 -10 9 0 17 5 17 10 0 12 -1 12 -20 0z"/>
<path d="M1905 970 c-3 -5 -1 -10 4 -10 6 0 11 5 11 10 0 6 -2 10 -4 10 -3 0
-8 -4 -11 -10z"/>
<path d="M850 966 c0 -2 7 -7 16 -10 8 -3 12 -2 9 4 -6 10 -25 14 -25 6z"/>
<path d="M1630 960 c0 -5 5 -10 10 -10 6 0 10 5 10 10 0 6 -4 10 -10 10 -5 0
-10 -4 -10 -10z"/>
<path d="M329 958 c-5 -15 -4 -50 1 -53 3 -2 6 9 6 26 0 24 -3 37 -7 27z"/>
<path d="M910 936 c0 -2 7 -7 16 -10 8 -3 12 -2 9 4 -6 10 -25 14 -25 6z"/>
<path d="M1205 930 c3 -5 15 -10 25 -10 10 0 20 -6 23 -12 2 -7 8 -9 13 -5 5
5 1 15 -10 23 -23 16 -60 19 -51 4z"/>
<path d="M1523 918 c-2 -16 1 -18 10 -9 7 7 8 14 1 21 -6 6 -10 2 -11 -12z"/>
<path d="M1560 920 c0 -13 7 -20 19 -20 11 0 21 -3 24 -7 2 -5 2 -2 0 5 -1 8
-3 20 -3 28 0 8 -9 14 -20 14 -13 0 -20 -7 -20 -20z"/>
<path d="M1619 905 c-6 -40 -4 -53 7 -43 3 3 4 23 2 44 l-3 39 -6 -40z"/>
<path d="M1788 928 c6 -6 18 -8 28 -6 14 3 12 5 -9 10 -19 3 -25 2 -19 -4z"/>
<path d="M440 922 c0 -4 9 -8 19 -8 11 0 17 4 15 8 -3 4 -12 8 -20 8 -8 0 -14
-4 -14 -8z"/>
<path d="M717 919 c7 -7 15 -10 18 -7 3 3 -2 9 -12 12 -14 6 -15 5 -6 -5z"/>
<path d="M1285 915 c4 -11 8 -25 8 -32 0 -7 4 -10 9 -7 4 3 3 15 -3 27 -16 30
-24 37 -14 12z"/>
<path d="M943 906 c-9 -11 -9 -15 0 -19 7 -3 14 3 14 14 2 22 2 22 -14 5z"/>
<path d="M1745 910 c-3 -5 3 -11 14 -11 39 -3 43 -4 56 -22 11 -16 13 -16 19
-2 3 9 2 13 -4 10 -6 -3 -13 1 -16 10 -4 9 -13 14 -20 11 -7 -3 -16 -1 -19 4
-8 13 -22 13 -30 0z"/>
<path d="M1640 894 c0 -8 5 -12 10 -9 6 3 10 10 10 16 0 5 -4 9 -10 9 -5 0
-10 -7 -10 -16z"/>
<path d="M455 890 c-8 -13 3 -30 18 -29 9 0 9 2 0 6 -7 2 -13 9 -13 14 0 6 5
7 12 3 7 -4 8 -3 4 4 -9 15 -13 15 -21 2z"/>
<path d="M324 882 c4 -7 2 -12 -4 -12 -6 0 -8 -4 -5 -10 3 -5 0 -10 -7 -10 -8
0 -6 -5 5 -11 9 -5 17 -15 17 -20 0 -6 -5 -7 -12 -3 -7 5 -8 3 -3 -5 5 -9 10
-10 18 -2 8 8 8 14 -1 23 -7 7 -8 17 -2 29 7 12 6 20 -2 25 -7 4 -8 3 -4 -4z"/>
<path d="M1045 879 c-4 -6 -5 -12 -2 -15 2 -3 7 2 10 11 7 17 1 20 -8 4z"/>
<path d="M198 873 c7 -3 16 -2 19 1 4 3 -2 6 -13 5 -11 0 -14 -3 -6 -6z"/>
<path d="M260 871 c0 -10 19 -25 25 -20 1 2 -3 10 -11 17 -8 7 -14 8 -14 3z"/>
<path d="M818 853 c3 -18 7 -21 13 -11 12 18 11 25 -4 31 -10 4 -13 -2 -9 -20z"/>
<path d="M1167 873 c-4 -3 -7 -13 -7 -22 1 -13 3 -13 11 2 11 19 8 33 -4 20z"/>
<path d="M2016 872 c-3 -5 1 -9 9 -9 8 0 15 4 15 9 0 4 -4 8 -9 8 -6 0 -12 -4
-15 -8z"/>
<path d="M2206 867 c3 -10 9 -15 12 -12 3 3 0 11 -7 18 -10 9 -11 8 -5 -6z"/>
<path d="M1398 859 c-29 -16 -22 -56 12 -74 16 -8 37 -15 48 -15 23 0 42 -19
35 -36 -7 -20 -70 -18 -81 2 -5 9 -18 14 -28 12 -17 -3 -17 -6 8 -31 15 -15
38 -27 52 -27 90 0 115 90 28 105 -49 8 -66 19 -59 39 8 21 63 21 71 1 6 -16
36 -21 36 -7 0 34 -83 54 -122 31z"/>
<path d="M1565 783 c1 -67 4 -88 14 -88 11 0 14 21 15 87 1 73 -2 88 -14 88
-13 0 -15 -15 -15 -87z"/>
<path d="M2051 844 c-41 -52 -20 -127 40 -145 32 -10 42 -9 70 7 18 11 34 25
37 32 6 18 -35 15 -42 -3 -13 -34 -96 -8 -96 30 0 11 16 13 70 12 62 -3 70 -1
70 16 0 21 -18 59 -34 69 -6 4 -30 8 -53 8 -33 0 -46 -5 -62 -26z m104 -14
c24 -27 17 -32 -44 -28 -51 3 -51 3 -36 26 20 27 56 28 80 2z"/>
<path d="M2240 780 c0 -73 3 -90 15 -90 12 0 15 14 15 64 0 68 14 96 49 96 31
0 41 -22 41 -90 0 -53 3 -67 15 -67 22 0 21 139 -1 161 -18 19 -75 21 -92 4
-9 -9 -12 -9 -12 0 0 7 -7 12 -15 12 -12 0 -15 -17 -15 -90z"/>
<path d="M688 853 c7 -3 16 -2 19 1 4 3 -2 6 -13 5 -11 0 -14 -3 -6 -6z"/>
<path d="M238 843 c7 -3 16 -2 19 1 4 3 -2 6 -13 5 -11 0 -14 -3 -6 -6z"/>
<path d="M660 835 c7 -8 17 -15 22 -15 6 0 5 7 -2 15 -7 8 -17 15 -22 15 -6 0
-5 -7 2 -15z"/>
<path d="M355 810 c-3 -6 1 -7 9 -4 18 7 21 14 7 14 -6 0 -13 -4 -16 -10z"/>
<path d="M2302 748 l2 -73 3 65 c2 35 9 68 16 72 8 5 6 8 -5 8 -16 0 -18 -9
-16 -72z"/>
<path d="M660 799 c0 -5 5 -7 10 -4 6 3 10 8 10 11 0 2 -4 4 -10 4 -5 0 -10
-5 -10 -11z"/>
<path d="M700 803 c0 -5 5 -15 10 -23 7 -11 12 -12 21 -3 6 6 8 16 5 22 -8 12
-36 15 -36 4z"/>
<path d="M76 792 c-3 -4 4 -9 15 -9 23 -2 25 3 4 10 -8 4 -16 3 -19 -1z"/>
<path d="M561 784 c0 -11 3 -14 6 -6 3 7 2 16 -1 19 -3 4 -6 -2 -5 -13z"/>
<path d="M605 790 c3 -5 8 -10 11 -10 2 0 4 5 4 10 0 6 -5 10 -11 10 -5 0 -7
-4 -4 -10z"/>
<path d="M1107 785 c3 -8 9 -12 14 -9 12 7 11 11 -5 17 -10 4 -13 1 -9 -8z"/>
<path d="M30 779 c0 -5 5 -7 10 -4 6 3 10 8 10 11 0 2 -4 4 -10 4 -5 0 -10 -5
-10 -11z"/>
<path d="M196 771 c-4 -5 3 -7 14 -4 23 6 26 13 6 13 -8 0 -17 -4 -20 -9z"/>
<path d="M652 771 c-10 -6 -10 -10 1 -20 8 -6 20 -10 25 -9 6 2 17 -4 24 -12
7 -8 12 -13 11 -11 -1 2 3 13 9 25 10 19 9 20 -5 8 -13 -12 -18 -10 -29 7 -14
23 -17 24 -36 12z"/>
<path d="M406 753 c-6 -14 -5 -15 5 -6 7 7 10 15 7 18 -3 3 -9 -2 -12 -12z"/>
<path d="M1255 754 c9 -9 18 -14 21 -11 9 9 -6 27 -22 27 -13 0 -13 -2 1 -16z"/>
<path d="M2322 745 c0 -16 2 -22 5 -12 2 9 2 23 0 30 -3 6 -5 -1 -5 -18z"/>
<path d="M159 758 c-8 -26 -5 -36 8 -31 11 4 12 8 3 13 -9 6 -9 9 1 13 10 4
10 6 2 6 -7 1 -13 0 -14 -1z"/>
<path d="M247 743 c6 -16 5 -16 -10 -5 -9 8 -24 12 -34 9 -13 -3 -11 -5 7 -7
23 -1 23 -2 5 -10 -16 -6 -14 -8 13 -7 31 0 44 18 22 32 -6 4 -7 -1 -3 -12z"/>
<path d="M20 740 c0 -5 5 -10 11 -10 5 0 7 5 4 10 -3 6 -8 10 -11 10 -2 0 -4
-4 -4 -10z"/>
<path d="M735 740 c-3 -5 -2 -18 4 -27 7 -14 9 -12 8 10 -2 30 -3 31 -12 17z"/>
<path d="M1700 740 c0 -13 11 -13 30 0 12 8 11 10 -7 10 -13 0 -23 -4 -23 -10z"/>
<path d="M622 725 c1 -10 9 -20 16 -21 7 -1 8 0 2 3 -5 2 -8 9 -5 13 3 5 0 12
-6 15 -7 5 -10 1 -7 -10z"/>
<path d="M1250 720 c-8 -5 -10 -10 -5 -10 6 0 17 5 25 10 8 5 11 10 5 10 -5 0
-17 -5 -25 -10z"/>
<path d="M561 711 c-14 -9 -6 -52 35 -200 6 -19 -9 -11 -82 46 -77 60 -92 68
-109 59 -11 -6 -21 -12 -23 -13 -8 -3 134 -202 142 -199 22 6 14 26 -39 99
-30 42 -52 77 -49 77 3 0 41 -27 84 -60 114 -87 120 -83 84 50 -13 51 -23 94
-21 96 1 2 27 -32 56 -76 51 -77 58 -105 23 -94 -14 5 -15 4 -2 -5 19 -13 47
-14 55 -1 4 6 -1 7 -12 3 -17 -6 -17 -5 1 15 18 21 18 22 -11 59 -17 21 -47
64 -68 96 -40 60 -42 62 -64 48z"/>
<path d="M868 713 c7 -3 16 -2 19 1 4 3 -2 6 -13 5 -11 0 -14 -3 -6 -6z"/>
<path d="M1710 710 c0 -5 5 -10 10 -10 6 0 10 5 10 10 0 6 -4 10 -10 10 -5 0
-10 -4 -10 -10z"/>
<path d="M9 708 c-5 -15 -4 -50 1 -53 3 -2 6 9 6 26 0 24 -3 37 -7 27z"/>
<path d="M1256 694 c-11 -8 -16 -14 -10 -14 13 0 39 18 34 24 -3 2 -14 -2 -24
-10z"/>
<path d="M1520 679 c-9 -12 -32 -22 -55 -24 -32 -4 -35 -3 -15 4 21 8 22 9 5
10 -11 0 -31 -6 -44 -13 -22 -12 -18 -13 42 -12 36 0 64 3 61 5 -2 2 6 12 17
22 11 9 16 19 12 22 -4 3 -15 -4 -23 -14z"/>
<path d="M367 680 c-53 -10 -57 -19 -5 -13 43 6 91 23 58 22 -8 -1 -32 -5 -53
-9z"/>
<path d="M475 680 c-3 -6 -1 -10 4 -10 6 0 11 -4 11 -10 0 -5 -8 -10 -17 -10
-14 0 -13 -3 5 -16 13 -9 26 -13 29 -10 4 3 1 6 -6 6 -8 0 -9 5 -2 18 10 19
-13 50 -24 32z"/>
<path d="M755 680 c3 -5 8 -10 11 -10 2 0 4 5 4 10 0 6 -5 10 -11 10 -5 0 -7
-4 -4 -10z"/>
<path d="M2008 666 c-3 -17 0 -23 11 -22 9 0 19 6 24 11 4 6 11 4 17 -5 6 -9
10 -10 10 -3 0 6 -5 15 -10 18 -6 4 -8 11 -5 16 4 5 1 9 -4 9 -6 0 -11 -7 -11
-15 0 -8 -4 -15 -10 -15 -5 0 -7 7 -4 15 4 8 2 15 -4 15 -5 0 -12 -11 -14 -24z"/>
<path d="M2175 680 c-19 -8 -19 -9 2 -9 12 -1 25 4 28 9 7 12 -2 12 -30 0z"/>
<path d="M1370 666 c4 -4 16 -4 26 2 16 9 14 10 -8 9 -15 -1 -23 -6 -18 -11z"/>
<path d="M1605 670 c3 -6 12 -10 20 -10 7 0 16 -5 18 -10 3 -6 4 -5 3 1 -1 7
-12 16 -25 20 -14 6 -20 5 -16 -1z"/>
<path d="M2266 664 c-4 -9 -4 -19 -1 -22 2 -3 7 3 11 12 4 9 4 19 1 22 -2 3
-7 -3 -11 -12z"/>
<path d="M2340 668 c0 -11 12 -10 30 2 12 7 10 9 -8 7 -12 0 -22 -5 -22 -9z"/>
<path d="M415 660 c-18 -8 -17 -9 8 -9 15 -1 27 4 27 9 0 12 -8 12 -35 0z"/>
<path d="M1278 663 c12 -2 22 -8 22 -13 0 -5 -8 -7 -17 -4 -14 5 -15 4 -4 -4
18 -13 79 -13 87 0 4 6 -2 8 -15 3 -14 -4 -21 -2 -21 7 0 11 -2 11 -9 0 -7
-11 -9 -11 -14 2 -4 9 -17 15 -29 15 l-23 -2 23 -4z"/>
<path d="M1665 659 c-4 -6 -5 -12 -2 -15 2 -3 7 2 10 11 7 17 1 20 -8 4z"/>
<path d="M2115 660 c-13 -6 -15 -9 -5 -9 8 0 22 4 30 9 18 12 2 12 -25 0z"/>
<path d="M2313 657 c0 -9 13 -14 39 -14 21 0 38 4 38 8 0 5 -13 6 -30 3 -19
-4 -30 -2 -30 5 0 6 -4 11 -8 11 -5 0 -9 -6 -9 -13z"/>
<path d="M358 653 c7 -3 16 -2 19 1 4 3 -2 6 -13 5 -11 0 -14 -3 -6 -6z"/>
<path d="M942 655 c4 -4 3 -16 -3 -26 -5 -11 -7 -19 -5 -19 3 0 10 9 16 19 7
15 7 22 -2 27 -7 4 -10 4 -6 -1z"/>
<path d="M1194 651 c5 -8 56 -3 56 5 0 2 -14 4 -31 4 -16 0 -28 -4 -25 -9z"/>
<path d="M1576 652 c-2 -4 4 -8 14 -8 10 0 16 4 14 8 -3 4 -9 8 -14 8 -5 0
-11 -4 -14 -8z"/>
<path d="M1763 645 c0 -8 5 -11 10 -8 5 3 8 0 5 -8 -3 -10 -28 -15 -94 -17
-67 -2 -85 1 -74 9 12 9 11 10 -5 4 -11 -4 -110 -11 -220 -15 l-200 -7 295 0
c260 0 296 2 307 16 10 13 12 13 13 2 0 -8 3 -11 7 -8 6 7 -25 47 -37 47 -4 0
-7 -7 -7 -15z"/>
<path d="M520 639 c0 -5 5 -7 10 -4 6 3 10 8 10 11 0 2 -4 4 -10 4 -5 0 -10
-5 -10 -11z"/>
<path d="M910 639 c0 -5 5 -7 10 -4 6 3 10 8 10 11 0 2 -4 4 -10 4 -5 0 -10
-5 -10 -11z"/>
<path d="M1122 642 c-9 -6 -7 -17 8 -48 12 -23 18 -29 14 -14 -3 14 -10 30
-15 36 -5 6 -4 15 3 22 14 14 9 15 -10 4z"/>
<path d="M340 630 l-25 -8 28 -1 c15 -1 27 4 27 9 0 6 -1 10 -2 9 -2 -1 -14
-5 -28 -9z"/>
<path d="M776 632 c-3 -5 1 -9 9 -9 8 0 12 4 9 9 -3 4 -7 8 -9 8 -2 0 -6 -4
-9 -8z"/>
<path d="M1228 623 c6 -2 18 -2 25 0 6 3 1 5 -13 5 -14 0 -19 -2 -12 -5z"/>
<path d="M2125 620 c-33 -6 -35 -7 -10 -8 17 0 53 3 80 8 47 7 48 7 10 7 -22
0 -58 -3 -80 -7z"/>
<path d="M2500 620 c0 -5 5 -10 10 -10 6 0 10 5 10 10 0 6 -4 10 -10 10 -5 0
-10 -4 -10 -10z"/>
<path d="M523 601 c1 -11 6 -17 14 -14 10 4 11 9 2 19 -15 19 -18 18 -16 -5z"/>
<path d="M2033 613 c9 -2 25 -2 35 0 9 3 1 5 -18 5 -19 0 -27 -2 -17 -5z"/>
<path d="M2358 613 c23 -2 61 -2 85 0 23 2 4 4 -43 4 -47 0 -66 -2 -42 -4z"/>
<path d="M326 602 c-2 -4 4 -9 15 -9 11 -1 17 2 14 8 -7 11 -22 12 -29 1z"/>
<path d="M1938 603 c7 -3 16 -2 19 1 4 3 -2 6 -13 5 -11 0 -14 -3 -6 -6z"/>
<path d="M320 576 c0 -2 11 -6 25 -8 13 -3 22 -1 19 3 -5 9 -44 13 -44 5z"/>
<path d="M204 548 c10 -6 22 -6 26 -2 5 5 -3 10 -18 11 -22 1 -24 0 -8 -9z"/>
<path d="M808 543 c7 -3 16 -2 19 1 4 3 -2 6 -13 5 -11 0 -14 -3 -6 -6z"/>
<path d="M1023 543 c-15 -5 -17 -23 -4 -23 5 0 11 7 15 15 3 8 4 15 3 14 -1 0
-8 -3 -14 -6z"/>
<path d="M1360 540 l-85 -6 70 -1 c39 -1 108 2 155 6 l85 8 -70 0 c-38 -1
-108 -4 -155 -7z"/>
<path d="M1878 543 c23 -2 61 -2 85 0 23 2 4 4 -43 4 -47 0 -66 -2 -42 -4z"/>
<path d="M2178 543 c12 -2 32 -2 45 0 12 2 2 4 -23 4 -25 0 -35 -2 -22 -4z"/>
<path d="M200 524 c0 -6 8 -18 18 -27 16 -14 17 -14 19 10 1 19 -1 22 -8 12
-8 -12 -10 -12 -19 1 -5 8 -10 10 -10 4z"/>
<path d="M820 520 l-25 -8 27 -1 c15 -1 30 4 33 9 7 11 0 11 -35 0z"/>
<path d="M987 505 c-6 -15 10 -32 20 -21 4 3 1 6 -5 6 -6 0 -9 7 -6 15 4 8 4
15 1 15 -3 0 -7 -7 -10 -15z"/>
<path d="M1056 505 c-9 -26 -7 -32 5 -12 6 10 9 21 6 23 -2 3 -7 -2 -11 -11z"/>
<path d="M414 492 c4 -7 3 -12 -3 -12 -6 0 -6 -11 0 -32 9 -34 29 -61 29 -41
0 7 -5 15 -11 19 -6 3 -9 20 -7 36 3 16 0 32 -5 35 -6 3 -7 1 -3 -5z"/>
<path d="M1277 469 c7 -7 15 -10 18 -7 3 3 -2 9 -12 12 -14 6 -15 5 -6 -5z"/>
<path d="M1360 470 c-23 -7 -23 -8 -3 -9 12 -1 25 4 28 9 3 6 5 10 3 9 -2 -1
-14 -5 -28 -9z"/>
<path d="M1424 466 c11 -9 29 -16 40 -15 17 1 16 2 -6 9 -14 4 -32 11 -40 15
-7 3 -4 -1 6 -9z"/>
<path d="M2108 473 c7 -3 16 -2 19 1 4 3 -2 6 -13 5 -11 0 -14 -3 -6 -6z"/>
<path d="M2454 468 c10 -6 22 -6 26 -2 5 5 -3 10 -18 11 -22 1 -24 0 -8 -9z"/>
<path d="M2501 464 c0 -11 3 -14 6 -6 3 7 2 16 -1 19 -3 4 -6 -2 -5 -13z"/>
<path d="M540 466 c0 -2 8 -10 18 -17 15 -13 16 -12 3 4 -13 16 -21 21 -21 13z"/>
<path d="M720 460 c0 -5 7 -7 15 -4 8 4 15 8 15 10 0 2 -7 4 -15 4 -8 0 -15
-4 -15 -10z"/>
<path d="M1630 466 c0 -2 7 -6 15 -10 8 -3 15 -1 15 4 0 6 -7 10 -15 10 -8 0
-15 -2 -15 -4z"/>
<path d="M2351 454 c0 -11 3 -14 6 -6 3 7 2 16 -1 19 -3 4 -6 -2 -5 -13z"/>
<path d="M110 448 c0 -9 5 -20 11 -23 17 -11 18 -2 3 19 -12 17 -14 17 -14 4z"/>
<path d="M250 450 c0 -5 5 -10 11 -10 5 0 7 5 4 10 -3 6 -8 10 -11 10 -2 0 -4
-4 -4 -10z"/>
<path d="M290 450 c0 -5 5 -10 11 -10 5 0 7 5 4 10 -3 6 -8 10 -11 10 -2 0 -4
-4 -4 -10z"/>
<path d="M448 431 c9 -16 19 -28 21 -25 6 6 -21 54 -30 54 -5 0 0 -13 9 -29z"/>
<path d="M1168 453 c7 -3 16 -2 19 1 4 3 -2 6 -13 5 -11 0 -14 -3 -6 -6z"/>
<path d="M1228 453 c6 -2 18 -2 25 0 6 3 1 5 -13 5 -14 0 -19 -2 -12 -5z"/>
<path d="M1527 453 c-2 -5 -3 -44 -2 -87 2 -93 22 -119 27 -34 3 49 5 53 28
53 23 0 25 -4 26 -49 1 -72 24 -73 24 -2 0 45 -4 57 -20 66 -12 6 -30 8 -40 5
-16 -5 -20 -2 -20 19 0 24 -15 44 -23 29z"/>
<path d="M1938 453 c7 -3 16 -2 19 1 4 3 -2 6 -13 5 -11 0 -14 -3 -6 -6z"/>
<path d="M2304 453 c15 -4 16 -7 5 -15 -12 -8 -12 -9 0 -6 25 7 24 28 -1 27
-19 -1 -20 -2 -4 -6z"/>
<path d="M81 434 c0 -11 3 -14 6 -6 3 7 2 16 -1 19 -3 4 -6 -2 -5 -13z"/>
<path d="M588 438 c5 -5 16 -8 23 -6 8 3 3 7 -10 11 -17 4 -21 3 -13 -5z"/>
<path d="M1610 441 c0 -9 30 -24 36 -18 2 1 -6 8 -16 15 -11 7 -20 8 -20 3z"/>
<path d="M1738 443 c0 -5 -2 -15 -2 -23 -1 -8 -7 -14 -14 -12 -15 3 -16 -15 0
-20 6 -2 12 -24 12 -49 1 -24 6 -44 11 -44 6 0 10 21 10 48 -1 32 3 47 12 47
7 0 13 5 13 10 0 6 -5 9 -11 8 -6 -2 -14 3 -16 10 -3 7 4 12 16 12 12 0 21 5
21 10 0 11 -49 14 -52 3z"/>
<path d="M1810 440 c0 -5 7 -10 15 -10 8 0 15 5 15 10 0 6 -7 10 -15 10 -8 0
-15 -4 -15 -10z"/>
<path d="M1860 440 c0 -5 5 -10 10 -10 6 0 10 5 10 10 0 6 -4 10 -10 10 -5 0
-10 -4 -10 -10z"/>
<path d="M2160 424 c0 -20 -4 -24 -19 -19 -27 8 -51 -4 -62 -32 -21 -55 15
-97 73 -86 26 5 27 8 30 84 2 58 0 79 -9 79 -7 0 -13 -12 -13 -26z m-2 -76 c3
-29 -1 -38 -17 -43 -25 -8 -37 -1 -43 23 -9 32 10 64 34 60 18 -2 24 -10 26
-40z"/>
<path d="M2212 439 c2 -6 8 -10 13 -10 5 0 11 4 13 10 2 6 -4 11 -13 11 -9 0
-15 -5 -13 -11z"/>
<path d="M2390 364 c0 -64 3 -85 13 -81 7 2 11 18 9 41 -4 41 11 66 39 66 15
0 18 -9 21 -52 2 -29 7 -52 13 -51 13 4 15 70 3 102 -7 20 -13 23 -44 18 -34
-6 -36 -5 -30 18 5 18 2 25 -9 25 -12 0 -15 -16 -15 -86z"/>
<path d="M2530 436 c0 -7 3 -35 7 -62 7 -46 8 -47 14 -19 13 56 10 95 -6 95
-8 0 -15 -6 -15 -14z"/>
<path d="M1188 433 c6 -2 18 -2 25 0 6 3 1 5 -13 5 -14 0 -19 -2 -12 -5z"/>
<path d="M1925 430 c-3 -6 1 -7 9 -4 18 7 21 14 7 14 -6 0 -13 -4 -16 -10z"/>
<path d="M311 414 c0 -11 3 -14 6 -6 3 7 2 16 -1 19 -3 4 -6 -2 -5 -13z"/>
<path d="M620 420 c-9 -6 -11 -10 -3 -10 7 0 11 -6 9 -12 -1 -7 -1 -10 1 -5 3
4 10 4 16 0 8 -5 8 -2 0 9 -7 8 -10 18 -6 21 9 10 0 8 -17 -3z"/>
<path d="M925 422 c2 -3 -4 -12 -13 -21 -10 -9 -12 -12 -5 -8 6 5 18 5 25 1 7
-4 10 -4 6 1 -4 4 -1 13 8 19 13 10 13 12 -5 12 -11 0 -18 -2 -16 -4z"/>
<path d="M565 410 c3 -5 8 -10 11 -10 2 0 4 5 4 10 0 6 -5 10 -11 10 -5 0 -7
-4 -4 -10z"/>
<path d="M579 399 c-16 -16 -15 -18 8 -28 14 -7 28 -10 30 -7 2 2 -5 7 -18 11
-15 5 -18 9 -9 15 7 4 11 12 9 17 -2 5 -11 1 -20 -8z"/>
<path d="M1310 410 c0 -5 5 -10 10 -10 6 0 10 5 10 10 0 6 -4 10 -10 10 -5 0
-10 -4 -10 -10z"/>
<path d="M1144 396 c-10 -8 -16 -18 -11 -22 4 -4 13 -2 19 4 16 16 55 15 61 0
2 -8 -12 -17 -37 -23 -34 -8 -42 -15 -44 -36 -4 -31 25 -43 64 -29 15 6 24 6
24 0 0 -6 5 -10 11 -10 17 0 6 110 -12 121 -21 13 -53 11 -75 -5z m66 -81
c-16 -19 -60 -20 -60 -1 0 17 51 37 64 25 5 -5 4 -14 -4 -24z"/>
<path d="M1270 356 c0 -33 5 -58 12 -62 18 -11 48 -12 54 -2 3 5 13 3 22 -6
16 -13 17 -9 14 55 -4 78 -22 95 -22 20 0 -41 -4 -51 -20 -56 -31 -10 -40 2
-40 56 0 27 -4 49 -10 49 -5 0 -10 -24 -10 -54z"/>
<path d="M1430 403 c-22 -9 -30 -24 -30 -60 0 -59 74 -82 100 -32 14 25 -7 26
-26 2 -17 -24 -48 -6 -52 29 -4 34 23 56 49 40 30 -19 44 -14 24 8 -18 20 -37
24 -65 13z"/>
<path d="M1800 355 c0 -44 4 -56 20 -65 13 -7 26 -7 38 -1 13 7 23 6 30 -1 9
-9 12 4 12 55 0 38 -4 67 -10 67 -5 0 -10 -20 -10 -44 0 -46 -19 -72 -45 -62
-11 4 -15 20 -15 56 0 27 -4 50 -10 50 -5 0 -10 -25 -10 -55z"/>
<path d="M1930 342 c0 -46 3 -63 12 -60 8 3 12 19 10 42 -4 41 12 68 34 59 8
-3 14 1 14 10 0 11 -10 15 -35 14 l-35 -1 0 -64z"/>
<path d="M2220 345 c0 -37 4 -65 10 -65 6 0 10 28 10 65 0 37 -4 65 -10 65 -6
0 -10 -28 -10 -65z"/>
<path d="M2287 398 c-17 -13 -22 -33 -19 -76 4 -44 102 -52 102 -7 0 20 -16
19 -24 -1 -3 -9 -15 -14 -28 -12 -20 3 -23 9 -23 43 0 31 4 41 19 43 11 2 25
-3 32 -13 8 -11 14 -13 19 -5 19 30 -44 53 -78 28z"/>
<path d="M64 388 c10 -6 22 -6 26 -2 5 5 -3 10 -18 11 -22 1 -24 0 -8 -9z"/>
<path d="M83 351 c-40 -25 -72 -50 -72 -54 -1 -13 67 -98 76 -95 11 4 6 15
-24 54 -14 19 -24 36 -22 37 2 2 12 9 22 17 17 13 22 10 52 -26 41 -48 58 -39
20 10 -23 30 -25 39 -15 51 19 23 33 18 63 -25 16 -22 33 -38 38 -34 5 3 -7
29 -28 57 -20 29 -37 52 -37 53 -1 1 -33 -20 -73 -45z"/>
<path d="M2030 380 c0 -11 4 -20 9 -20 5 0 7 9 4 20 -3 11 -7 20 -9 20 -2 0
-4 -9 -4 -20z"/>
<path d="M8 383 c7 -3 16 -2 19 1 4 3 -2 6 -13 5 -11 0 -14 -3 -6 -6z"/>
<path d="M1659 368 c-12 -22 -11 -22 7 -8 10 8 20 15 22 16 2 1 -1 5 -7 8 -5
4 -15 -4 -22 -16z"/>
<path d="M5 360 c-3 -6 1 -7 9 -4 18 7 21 14 7 14 -6 0 -13 -4 -16 -10z"/>
<path d="M560 360 c0 -6 7 -10 15 -10 8 0 15 2 15 4 0 2 -7 6 -15 10 -8 3 -15
1 -15 -4z"/>
<path d="M816 361 c-4 -5 3 -7 14 -4 23 6 26 13 6 13 -8 0 -17 -4 -20 -9z"/>
<path d="M878 348 c-21 -12 -38 -26 -38 -30 0 -12 13 -10 38 8 13 9 25 14 27
13 2 -2 -1 -26 -6 -53 -5 -26 -6 -52 -3 -57 5 -8 62 19 88 42 22 20 -5 19 -32
0 -17 -12 -32 -21 -34 -21 -3 0 -1 21 3 48 14 84 14 83 -43 50z"/>
<path d="M1664 332 c-10 -15 -8 -18 7 -19 10 -1 21 2 24 8 3 5 -1 6 -10 3 -11
-5 -14 -2 -9 10 8 21 2 20 -12 -2z"/>
<path d="M775 330 c-4 -6 -3 -16 3 -22 6 -6 8 -17 5 -26 -4 -9 -2 -13 4 -9 6
4 22 -11 37 -33 26 -39 49 -50 61 -30 3 6 -1 10 -9 10 -20 0 -59 57 -52 76 4
10 1 14 -6 11 -7 -2 -18 5 -24 16 -8 14 -13 16 -19 7z"/>
<path d="M371 303 c-7 -8 -10 -17 -6 -21 3 -3 10 0 15 8 9 13 10 13 10 0 0
-10 3 -11 8 -4 4 6 14 14 22 18 9 3 6 5 -7 2 -12 -2 -23 0 -25 4 -2 4 -9 1
-17 -7z"/>
<path d="M448 313 c7 -3 16 -2 19 1 4 3 -2 6 -13 5 -11 0 -14 -3 -6 -6z"/>
<path d="M483 305 c0 -7 6 -11 14 -8 7 3 13 6 13 8 0 2 -6 5 -13 8 -8 3 -14
-1 -14 -8z"/>
<path d="M1697 303 c-4 -3 -7 -11 -7 -17 0 -6 5 -5 12 2 6 6 9 14 7 17 -3 3
-9 2 -12 -2z"/>
<path d="M2530 300 c0 -5 7 -10 15 -10 8 0 15 5 15 10 0 6 -7 10 -15 10 -8 0
-15 -4 -15 -10z"/>
<path d="M710 296 c0 -2 7 -7 16 -10 8 -3 12 -2 9 4 -6 10 -25 14 -25 6z"/>
<path d="M415 270 c-8 -13 5 -13 25 0 13 8 13 10 -2 10 -9 0 -20 -4 -23 -10z"/>
<path d="M236 263 c-11 -11 -6 -23 9 -23 8 0 15 4 15 9 0 13 -16 22 -24 14z"/>
<path d="M1279 262 c9 -7 10 -11 2 -15 -7 -4 -8 -5 0 -3 15 2 13 20 -3 24 -10
3 -10 2 1 -6z"/>
<path d="M1391 261 c-8 -5 -9 -11 -3 -15 5 -3 12 1 16 9 6 17 6 18 -13 6z"/>
<path d="M1695 260 c-3 -5 -1 -10 4 -10 6 0 11 5 11 10 0 6 -2 10 -4 10 -3 0
-8 -4 -11 -10z"/>
<path d="M2224 258 c-4 -7 -4 -10 1 -6 4 4 15 2 24 -5 14 -11 14 -10 2 6 -16
20 -18 21 -27 5z"/>
<path d="M700 240 c-20 -20 -27 -50 -12 -50 4 0 12 10 17 23 6 12 20 23 33 25
29 4 28 -9 -3 -38 -15 -14 -25 -33 -23 -45 4 -28 49 -32 73 -5 10 11 24 20 32
20 9 0 0 17 -23 45 -40 49 -63 56 -94 25z m79 -72 c-10 -19 -49 -25 -49 -7 0
6 10 19 22 29 26 21 43 7 27 -22z"/>
<path d="M1006 252 c-3 -5 1 -9 9 -9 8 0 12 4 9 9 -3 4 -7 8 -9 8 -2 0 -6 -4
-9 -8z"/>
<path d="M1120 255 c0 -7 30 -13 34 -7 3 4 -4 9 -15 9 -10 1 -19 0 -19 -2z"/>
<path d="M1226 252 c-2 -4 4 -8 15 -8 10 0 19 4 19 8 0 4 -6 8 -14 8 -8 0 -17
-4 -20 -8z"/>
<path d="M1330 256 c0 -2 7 -7 16 -10 8 -3 12 -2 9 4 -6 10 -25 14 -25 6z"/>
<path d="M1571 251 c-10 -7 -7 -9 12 -8 14 1 23 5 20 10 -6 9 -15 9 -32 -2z"/>
<path d="M1856 252 c-3 -5 1 -9 9 -9 8 0 12 4 9 9 -3 4 -7 8 -9 8 -2 0 -6 -4
-9 -8z"/>
<path d="M2306 252 c-3 -5 1 -9 9 -9 8 0 12 4 9 9 -3 4 -7 8 -9 8 -2 0 -6 -4
-9 -8z"/>
<path d="M2350 250 c-8 -5 -10 -10 -5 -10 6 0 17 5 25 10 8 5 11 10 5 10 -5 0
-17 -5 -25 -10z"/>
<path d="M160 209 c-25 -16 -49 -30 -54 -32 -5 -2 -6 -8 -3 -15 5 -7 23 -1 55
20 60 40 66 45 55 51 -4 2 -28 -8 -53 -24z"/>
<path d="M600 233 c0 -16 93 -142 101 -137 10 6 -79 144 -92 144 -5 0 -9 -3
-9 -7z"/>
<path d="M34 199 c9 -14 13 -28 10 -32 -3 -3 1 -4 10 -3 8 1 19 6 23 10 4 4 3
6 -3 4 -6 -1 -21 8 -33 22 l-22 25 15 -26z"/>
<path d="M14 180 c0 -13 4 -16 10 -10 7 7 7 13 0 20 -6 6 -10 3 -10 -10z"/>
<path d="M183 162 c-29 -19 -50 -39 -47 -44 3 -5 15 -3 27 5 55 35 65 40 81
34 28 -11 18 -44 -21 -68 -21 -12 -40 -24 -42 -25 -1 -2 0 -7 3 -13 8 -13 106
56 106 74 0 16 -27 45 -41 45 -6 0 -8 4 -4 9 13 23 -14 15 -62 -17z"/>
<path d="M503 174 l-42 -25 47 -67 c25 -37 47 -69 48 -71 2 -1 8 0 14 4 8 5 7
12 -3 23 -28 33 -27 40 8 62 39 24 46 57 19 84 -21 22 -42 20 -91 -10z m77 -9
c16 -20 8 -37 -25 -55 -25 -13 -28 -13 -45 10 l-19 25 32 17 c40 21 42 21 57
3z"/>
<path d="M300 181 c0 -10 19 -25 25 -20 1 2 -3 10 -11 17 -8 7 -14 8 -14 3z"/>
<path d="M904 183 c3 -6 0 -13 -6 -16 -7 -2 3 -4 24 -3 20 1 34 5 31 9 -3 5
-11 6 -18 3 -7 -2 -18 1 -25 7 -10 9 -11 9 -6 0z"/>
<path d="M89 138 c-8 -20 -3 -55 7 -55 9 0 10 5 5 11 -5 6 -7 19 -6 29 3 14
-2 25 -6 15z"/>
<path d="M340 130 c0 -5 5 -10 11 -10 5 0 7 5 4 10 -3 6 -8 10 -11 10 -2 0 -4
-4 -4 -10z"/>
<path d="M316 117 c3 -10 9 -15 12 -12 3 3 0 11 -7 18 -10 9 -11 8 -5 -6z"/>
<path d="M780 110 c-11 -7 -11 -10 -2 -10 8 0 10 -5 6 -12 -4 -7 -3 -9 1 -5 7
6 17 37 12 37 -1 0 -9 -5 -17 -10z"/>
<path d="M358 93 c7 -3 16 -2 19 1 4 3 -2 6 -13 5 -11 0 -14 -3 -6 -6z"/>
<path d="M610 61 c0 -5 5 -13 10 -16 6 -3 10 -2 10 4 0 5 -4 13 -10 16 -5 3
-10 2 -10 -4z"/>
<path d="M485 41 c-3 -5 -1 -12 5 -16 6 -4 8 -11 5 -16 -3 -5 1 -6 11 -2 15 5
15 7 0 15 -9 5 -14 13 -11 19 4 5 4 9 1 9 -3 0 -7 -4 -11 -9z"/>
<path d="M180 18 c14 -17 37 -18 37 -2 0 9 -4 11 -12 4 -7 -6 -16 -6 -23 0 -9
7 -9 7 -2 -2z"/>
<path d="M610 10 c0 -5 4 -10 9 -10 6 0 13 5 16 10 3 6 -1 10 -9 10 -9 0 -16
-4 -16 -10z"/>
</g>
</svg>
