<?xml version="1.0" standalone="no"?>
<!DOCTYPE svg PUBLIC "-//W3C//DTD SVG 20010904//EN"
 "http://www.w3.org/TR/2001/REC-SVG-20010904/DTD/svg10.dtd">
<svg version="1.0" xmlns="http://www.w3.org/2000/svg"
 width="192.000000pt" height="192.000000pt" viewBox="0 0 192.000000 192.000000"
 preserveAspectRatio="xMidYMid meet">
<metadata>
Created by potrace 1.16, written by Peter Selinger 2001-2019
</metadata>
<g transform="translate(0.000000,192.000000) scale(0.100000,-0.100000)"
fill="#000000" stroke="none">
<path d="M623 1913 c-19 -2 -33 -10 -33 -17 0 -8 -19 -16 -50 -20 -34 -5 -50
-11 -50 -21 0 -9 -9 -15 -23 -15 -12 0 -29 -9 -37 -20 -8 -11 -21 -20 -30 -20
-9 0 -22 -9 -30 -20 -8 -11 -20 -20 -27 -20 -17 0 -203 -186 -203 -203 0 -7
-9 -19 -20 -27 -11 -8 -20 -22 -20 -32 0 -10 -4 -18 -10 -18 -5 0 -10 -11 -10
-24 0 -15 -7 -26 -20 -29 -14 -4 -20 -14 -20 -32 0 -15 -7 -33 -15 -39 -10 -7
-17 -31 -19 -66 -2 -30 -2 -43 1 -27 2 15 8 27 14 27 5 0 9 9 9 20 0 11 7 23
15 26 9 4 15 19 15 36 0 21 6 31 20 35 13 3 20 14 20 29 0 13 5 24 10 24 6 0
10 8 10 18 0 10 9 24 20 32 11 8 20 20 20 27 0 17 186 203 203 203 7 0 19 9
27 20 8 11 21 20 30 20 9 0 22 9 30 20 8 11 25 20 37 20 14 0 23 6 23 15 0 10
16 16 50 21 32 4 50 11 50 20 0 9 11 14 30 14 17 0 30 4 30 9 0 6 19 12 43 14
40 3 39 4 -8 4 -27 0 -65 -2 -82 -4z"/>
<path d="M773 1906 c-4 -7 -15 -16 -23 -19 -10 -4 -8 -6 7 -6 13 -1 27 8 33
19 12 23 -4 29 -17 6z"/>
<path d="M1110 1900 c7 -13 20 -20 38 -19 21 1 22 2 7 6 -11 3 -24 11 -28 19
-13 23 -29 17 -17 -6z"/>
<path d="M1188 1913 c23 -2 42 -8 42 -14 0 -5 14 -9 30 -9 19 0 30 -5 30 -14
0 -9 18 -16 50 -20 31 -4 53 -13 57 -21 3 -8 13 -15 22 -15 9 0 23 -9 31 -20
8 -11 21 -20 30 -20 9 0 22 -9 30 -20 8 -11 20 -20 27 -20 17 0 203 -186 203
-203 0 -7 9 -19 20 -27 11 -8 20 -22 20 -32 0 -10 5 -18 10 -18 6 0 10 -11 10
-23 0 -15 9 -28 24 -35 18 -8 25 -21 31 -58 3 -26 13 -53 21 -61 8 -8 14 -23
14 -34 0 -10 4 -19 9 -19 6 0 12 -24 14 -52 l3 -53 2 55 c2 58 -13 130 -28
130 -4 0 -11 23 -15 51 -6 40 -12 53 -31 61 -15 7 -24 20 -24 35 0 12 -4 23
-10 23 -5 0 -10 8 -10 18 0 10 -9 24 -20 32 -11 8 -20 20 -20 27 0 7 -43 56
-95 108 -52 52 -101 95 -108 95 -7 0 -19 9 -27 20 -8 11 -21 20 -30 20 -9 0
-22 9 -30 20 -8 11 -22 20 -31 20 -9 0 -19 7 -22 15 -4 8 -26 17 -57 21 -29 4
-50 12 -50 19 0 13 -70 26 -129 23 -34 -1 -34 -2 7 -5z"/>
<path d="M863 1865 c0 -8 4 -15 9 -15 4 0 8 4 8 9 0 6 -4 12 -8 15 -5 3 -9 -1
-9 -9z"/>
<path d="M1020 1860 c0 -5 5 -10 11 -10 5 0 7 5 4 10 -3 6 -8 10 -11 10 -2 0
-4 -4 -4 -10z"/>
<path d="M725 1849 c-4 -6 -4 -13 0 -17 3 -3 9 -1 13 5 4 6 16 13 27 16 16 4
14 5 -7 6 -15 0 -30 -4 -33 -10z"/>
<path d="M1135 1853 c11 -3 23 -10 27 -16 4 -6 10 -8 13 -5 13 13 -6 28 -33
27 -21 -1 -23 -2 -7 -6z"/>
<path d="M920 1840 c0 -6 -33 -10 -80 -10 -47 0 -80 -4 -80 -10 0 -5 -18 -10
-40 -10 -22 0 -40 -4 -40 -10 0 -5 -13 -10 -30 -10 -16 0 -30 -4 -30 -9 0 -5
-10 -12 -22 -14 -17 -3 -14 -5 10 -6 42 -1 43 -32 2 -71 -16 -15 -30 -35 -30
-44 0 -9 -4 -16 -10 -16 -5 0 -10 -9 -10 -20 0 -11 -4 -20 -10 -20 -5 0 -10
-13 -10 -30 0 -16 -4 -30 -10 -30 -6 0 -10 -40 -10 -100 0 -60 4 -100 10 -100
6 0 10 -13 10 -30 0 -16 5 -30 10 -30 6 0 10 -9 10 -20 0 -11 5 -20 10 -20 6
0 10 -7 10 -15 0 -21 126 -145 147 -145 15 0 16 -2 3 -10 -12 -8 -11 -10 8
-10 12 0 22 -4 22 -10 0 -5 7 -10 15 -10 12 0 15 13 15 55 0 30 -4 55 -10 55
-5 0 -10 23 -10 50 0 28 -4 50 -10 50 -6 0 -10 28 -10 65 l0 65 34 0 c19 0 36
-6 39 -12 3 -10 39 -13 137 -13 98 0 134 3 138 13 5 16 40 15 58 -2 16 -16 19
-76 4 -76 -6 0 -10 -27 -10 -60 0 -33 -4 -60 -10 -60 -5 0 -10 -22 -10 -50 0
-27 -4 -50 -10 -50 -5 0 -10 -7 -10 -15 0 -8 7 -15 15 -15 8 0 15 5 15 10 0 6
9 10 20 10 11 0 20 5 20 10 0 6 7 10 15 10 9 0 40 25 70 55 30 30 55 61 55 70
0 8 5 15 10 15 6 0 10 10 10 23 0 18 2 19 10 7 7 -11 10 -7 10 18 0 17 5 32
10 32 6 0 10 18 10 40 0 22 4 40 9 40 5 0 11 32 13 70 3 66 -5 92 -15 53 -3
-10 -5 3 -6 30 0 26 -5 47 -11 47 -5 0 -10 14 -10 30 0 17 -4 30 -10 30 -5 0
-10 10 -10 23 0 18 -2 19 -10 7 -8 -12 -10 -11 -10 5 0 11 -9 27 -20 35 -28
20 -26 57 3 63 l22 4 -22 2 c-13 0 -23 6 -23 11 0 6 -13 10 -30 10 -16 0 -30
5 -30 10 0 6 -18 10 -40 10 -22 0 -40 5 -40 10 0 6 -35 10 -85 10 -50 0 -85 4
-85 10 0 6 -11 10 -25 10 -14 0 -25 -4 -25 -10z m116 -30 c49 0 84 -4 84 -10
0 -5 18 -10 40 -10 22 0 40 -4 40 -10 0 -5 14 -10 30 -10 28 0 30 -2 30 -38 0
-26 6 -42 20 -52 11 -8 20 -21 20 -30 0 -9 9 -22 20 -30 12 -8 20 -26 20 -42
0 -15 5 -28 10 -28 6 0 10 -20 10 -45 0 -25 5 -45 10 -45 6 0 10 -16 10 -35 0
-19 -4 -35 -10 -35 -5 0 -10 -18 -10 -40 0 -22 -4 -40 -10 -40 -5 0 -10 -9
-10 -20 0 -11 -4 -20 -10 -20 -5 0 -10 -9 -10 -20 0 -11 -4 -20 -10 -20 -5 0
-10 -7 -10 -15 0 -20 -105 -125 -124 -125 -8 0 -17 -6 -19 -12 -3 -7 -6 4 -6
25 -1 20 4 37 9 37 6 0 10 27 10 60 0 33 4 60 10 60 16 0 12 99 -4 116 -18 17
-93 19 -98 2 -3 -9 -38 -12 -118 -12 -80 0 -115 3 -118 12 -2 7 -24 12 -58 12
l-54 0 0 -85 c0 -50 4 -85 10 -85 6 0 10 -22 10 -50 0 -27 5 -50 10 -50 6 0
10 -12 9 -27 0 -16 -3 -22 -6 -15 -2 6 -11 12 -19 12 -19 0 -144 126 -144 145
0 8 -4 15 -10 15 -5 0 -10 9 -10 20 0 11 -4 20 -10 20 -5 0 -10 14 -10 30 0
17 -4 30 -10 30 -6 0 -10 33 -10 80 0 47 4 80 10 80 6 0 10 14 10 30 0 17 5
30 10 30 6 0 10 9 10 20 0 11 5 20 10 20 6 0 10 7 10 16 0 9 14 29 30 44 23
21 30 37 30 64 0 29 4 36 20 36 11 0 20 5 20 10 0 6 18 10 40 10 22 0 40 5 40
10 0 6 33 10 80 10 57 0 80 4 81 13 0 10 2 10 6 0 3 -9 31 -13 89 -13z"/>
<path d="M530 1819 c0 -5 5 -7 10 -4 6 3 10 8 10 11 0 2 -4 4 -10 4 -5 0 -10
-5 -10 -11z"/>
<path d="M1360 1815 c7 -9 15 -13 17 -11 7 7 -7 26 -19 26 -6 0 -6 -6 2 -15z"/>
<path d="M540 1740 c0 -5 -9 -10 -20 -10 -11 0 -20 -4 -20 -9 0 -5 -15 -16
-32 -25 l-33 -16 28 0 c16 0 26 4 22 10 -3 6 1 10 9 10 9 0 16 5 16 10 0 6 9
10 20 10 11 0 20 4 20 9 0 5 8 12 18 14 13 4 11 5 -5 6 -13 0 -23 -3 -23 -9z"/>
<path d="M1338 1743 c7 -3 16 -2 19 1 4 3 -2 6 -13 5 -11 0 -14 -3 -6 -6z"/>
<path d="M440 1720 c-13 -8 -12 -10 3 -10 9 0 17 5 17 10 0 12 -1 12 -20 0z"/>
<path d="M1383 1723 c9 -2 14 -9 11 -15 -5 -8 1 -9 17 -5 13 4 30 7 37 7 7 0
10 5 7 10 -4 7 -12 7 -25 0 -13 -7 -21 -7 -25 0 -3 5 -14 9 -23 9 -15 -1 -15
-2 1 -6z"/>
<path d="M1452 1683 c9 -5 31 -21 48 -36 17 -16 34 -26 37 -24 3 3 -4 13 -16
23 -11 10 -18 21 -15 26 3 4 -1 8 -8 8 -7 0 -24 3 -38 5 -16 4 -19 3 -8 -2z"/>
<path d="M410 1660 c0 -5 -7 -10 -15 -10 -17 0 -105 -84 -105 -100 0 -5 23 13
51 40 28 28 55 50 61 50 5 0 16 7 24 15 14 13 14 15 0 15 -9 0 -16 -4 -16 -10z"/>
<path d="M512 1605 c0 -16 2 -22 5 -12 2 9 2 23 0 30 -3 6 -5 -1 -5 -18z"/>
<path d="M1572 1577 c18 -19 34 -30 36 -26 4 11 -44 59 -58 59 -6 0 4 -15 22
-33z"/>
<path d="M471 1547 c-1 -16 6 -35 14 -43 19 -20 20 -1 0 41 l-13 30 -1 -28z"/>
<path d="M490 1562 c0 -5 7 -9 15 -9 8 0 15 4 15 9 0 4 -7 8 -15 8 -8 0 -15
-4 -15 -8z"/>
<path d="M263 1533 c-7 -3 -13 -16 -13 -30 0 -22 1 -23 16 -9 18 18 15 45 -3
39z"/>
<path d="M1620 1535 c0 -3 12 -19 28 -36 15 -17 30 -38 34 -47 4 -10 5 -2 4
18 -2 19 -8 35 -13 35 -5 0 -17 8 -27 18 -18 17 -26 21 -26 12z"/>
<path d="M450 1490 c0 -33 -3 -41 -10 -30 -7 11 -10 -1 -11 -40 -1 -43 -3 -49
-9 -30 -5 15 -8 -26 -8 -105 0 -79 3 -120 8 -105 6 18 8 8 9 -40 1 -46 4 -61
11 -50 7 11 10 7 10 -17 0 -18 5 -33 10 -33 6 0 10 -9 10 -20 0 -11 5 -20 10
-20 6 0 10 -9 10 -20 0 -11 5 -20 10 -20 6 0 10 -10 10 -22 0 -19 2 -20 10 -8
8 13 10 12 10 -3 0 -24 105 -127 130 -127 11 0 20 5 20 10 0 6 -4 10 -10 10
-18 0 -60 43 -60 62 0 10 -7 18 -16 18 -18 0 -44 23 -44 39 0 6 -5 11 -11 11
-6 0 -9 7 -5 15 3 9 0 15 -10 15 -11 0 -15 6 -11 20 3 11 0 20 -6 20 -15 0
-37 46 -37 76 0 13 -4 26 -10 29 -5 3 -10 31 -10 61 0 34 -4 53 -10 49 -6 -4
-10 15 -10 50 0 35 4 54 10 50 6 -4 10 13 10 44 0 28 5 51 10 51 13 0 13 70 0
90 -7 11 -10 3 -10 -30z"/>
<path d="M223 1473 c-7 -3 -13 -16 -13 -29 0 -13 -4 -24 -10 -24 -5 0 -10 -4
-10 -10 0 -5 7 -7 15 -4 8 4 15 17 15 29 0 13 6 25 13 28 6 2 10 7 7 9 -3 3
-11 3 -17 1z"/>
<path d="M1450 1450 c0 -11 5 -20 10 -20 6 0 10 9 10 20 0 11 -4 20 -10 20 -5
0 -10 -9 -10 -20z"/>
<path d="M175 1450 c-3 -5 -1 -10 4 -10 6 0 11 5 11 10 0 6 -2 10 -4 10 -3 0
-8 -4 -11 -10z"/>
<path d="M1650 1421 c0 -6 5 -11 11 -11 18 0 5 -118 -19 -170 -27 -59 -87
-120 -117 -120 -8 0 -15 -4 -15 -10 0 -5 -15 -10 -32 -10 -25 0 -29 -3 -18
-10 11 -7 -2 -10 -43 -10 -36 0 -56 -4 -52 -10 4 -6 -15 -10 -50 -10 -35 0
-54 -4 -50 -10 3 -5 19 -10 36 -10 16 0 29 -5 29 -12 0 -9 3 -10 8 -2 7 12 43
22 105 31 20 3 40 9 43 14 3 5 14 9 25 9 10 0 19 5 19 10 0 6 9 10 19 10 11 0
33 14 49 30 17 17 34 30 39 30 4 0 19 24 33 53 26 56 44 203 25 204 -5 0 -18
4 -27 8 -11 4 -18 3 -18 -4z"/>
<path d="M350 1400 c0 -5 5 -10 10 -10 6 0 10 5 10 10 0 6 -4 10 -10 10 -5 0
-10 -4 -10 -10z"/>
<path d="M171 1383 c0 -13 -5 -23 -11 -23 -5 0 -10 -9 -10 -20 0 -11 -4 -20
-10 -20 -5 0 -10 -13 -10 -30 0 -16 -4 -30 -10 -30 -5 0 -10 -13 -10 -30 0
-16 -4 -30 -10 -30 -5 0 -10 -18 -10 -40 0 -22 -5 -40 -11 -40 -6 0 -9 -13 -7
-29 1 -16 -3 -35 -9 -42 -6 -8 -12 -48 -13 -89 -2 -99 -2 -102 10 -95 5 3 10
44 10 91 0 68 3 84 15 84 12 0 15 14 15 65 0 37 4 65 10 65 6 0 10 18 10 40 0
22 5 40 10 40 6 0 10 9 10 20 0 11 5 20 10 20 6 0 10 13 10 29 0 16 5 31 11
33 6 2 9 15 6 28 -4 23 -4 24 -6 3z"/>
<path d="M1721 1384 c0 -11 3 -14 6 -6 3 7 2 16 -1 19 -3 4 -6 -2 -5 -13z"/>
<path d="M1741 1344 c0 -11 3 -14 6 -6 3 7 2 16 -1 19 -3 4 -6 -2 -5 -13z"/>
<path d="M1152 1315 c0 -16 2 -22 5 -12 2 9 2 23 0 30 -3 6 -5 -1 -5 -18z"/>
<path d="M1045 1320 c-3 -5 -1 -10 4 -10 6 0 11 5 11 10 0 6 -2 10 -4 10 -3 0
-8 -4 -11 -10z"/>
<path d="M888 1313 c6 -2 18 -2 25 0 6 3 1 5 -13 5 -14 0 -19 -2 -12 -5z"/>
<path d="M1727 1312 c-5 -7 -8 -47 -8 -88 0 -45 -6 -91 -14 -111 -8 -20 -15
-44 -15 -54 0 -11 -6 -19 -13 -19 -7 0 -21 -18 -31 -40 -10 -22 -21 -40 -25
-40 -8 0 -53 -36 -109 -87 -20 -18 -42 -33 -49 -33 -7 0 -13 -3 -13 -8 0 -4
-30 -23 -67 -42 -38 -19 -76 -41 -85 -49 -10 -8 -18 -12 -18 -9 0 4 -13 -6
-30 -22 -21 -20 -37 -26 -57 -23 -27 3 -27 3 -5 -7 l24 -10 -23 -37 c-13 -21
-27 -40 -31 -41 -5 -2 -6 -8 -2 -13 3 -5 0 -9 -6 -9 -6 0 -9 -4 -5 -9 3 -5 -2
-16 -10 -24 -8 -9 -15 -28 -15 -44 0 -22 -2 -25 -10 -13 -8 13 -10 13 -10 -2
0 -9 6 -19 13 -21 10 -4 10 -6 0 -6 -16 -1 -18 -101 -3 -101 6 0 10 -13 10
-30 0 -16 5 -30 10 -30 6 0 10 -9 10 -20 0 -11 5 -20 10 -20 6 0 10 -4 10 -10
0 -15 42 -60 57 -60 7 0 13 -4 13 -10 0 -5 7 -10 15 -10 21 0 19 7 -11 38 -49
52 -78 103 -80 145 -2 23 -4 44 -5 47 -8 19 -3 120 6 117 5 -2 10 -12 10 -23
0 -10 3 -21 6 -24 4 -3 9 -16 10 -30 4 -25 36 -65 54 -65 6 -1 9 -7 7 -15 -2
-8 0 -12 4 -8 4 4 13 3 21 -4 10 -8 17 -8 25 0 9 9 9 12 -1 12 -16 0 -42 26
-34 34 4 3 -4 6 -16 6 -12 0 -20 4 -16 9 3 5 0 15 -7 23 -7 7 -15 24 -16 38
-2 14 -5 30 -5 35 -1 6 -6 13 -11 17 -13 9 12 85 43 128 37 52 82 91 113 97
15 3 28 9 28 14 0 5 9 9 20 9 11 0 20 5 20 10 0 6 8 10 18 10 10 0 24 9 32 20
8 11 21 20 28 20 8 0 27 14 42 30 15 17 33 30 40 30 6 0 8 5 5 10 -3 6 1 10
10 10 10 0 30 14 45 30 15 17 33 30 38 30 6 0 9 9 7 20 -3 13 2 20 12 20 9 0
14 3 10 6 -3 4 0 13 8 21 8 8 15 23 15 34 0 10 5 19 10 19 6 0 10 14 10 30 0
17 5 30 10 30 6 0 10 28 10 64 0 35 4 66 8 68 5 2 5 14 1 28 -6 23 -7 23 -8 3
-2 -33 -19 -37 -23 -6 -2 19 -6 24 -11 15z"/>
<path d="M960 1299 c0 -5 5 -7 10 -4 6 3 10 8 10 11 0 2 -4 4 -10 4 -5 0 -10
-5 -10 -11z"/>
<path d="M95 1290 c-3 -5 -1 -10 4 -10 6 0 11 5 11 10 0 6 -2 10 -4 10 -3 0
-8 -4 -11 -10z"/>
<path d="M441 1274 c0 -11 3 -14 6 -6 3 7 2 16 -1 19 -3 4 -6 -2 -5 -13z"/>
<path d="M512 1270 c0 -14 2 -19 5 -12 2 6 2 18 0 25 -3 6 -5 1 -5 -13z"/>
<path d="M840 1280 c0 -5 5 -10 10 -10 6 0 10 5 10 10 0 6 -4 10 -10 10 -5 0
-10 -4 -10 -10z"/>
<path d="M820 1249 c0 -5 5 -7 10 -4 6 3 10 8 10 11 0 2 -4 4 -10 4 -5 0 -10
-5 -10 -11z"/>
<path d="M1781 1238 c-1 -16 4 -28 9 -28 12 0 12 8 0 35 -8 18 -9 17 -9 -7z"/>
<path d="M64 1225 c-3 -8 -4 -20 -1 -27 4 -8 6 -6 6 5 1 9 6 17 11 17 6 0 10
5 10 10 0 15 -20 12 -26 -5z"/>
<path d="M817 1190 c-3 -11 -2 -20 3 -20 4 0 10 9 13 20 3 11 2 20 -3 20 -4 0
-10 -9 -13 -20z"/>
<path d="M1800 1167 c0 -20 4 -37 10 -37 5 0 7 14 3 33 -8 45 -13 47 -13 4z"/>
<path d="M162 1135 c1 -19 4 -32 7 -30 2 3 10 0 18 -6 9 -9 13 -8 13 0 0 6 -4
11 -10 11 -5 0 -10 14 -10 30 0 17 -5 30 -10 30 -6 0 -10 -16 -8 -35z"/>
<path d="M53 1153 c-7 -3 -12 -17 -12 -31 1 -21 2 -23 6 -7 3 11 10 23 16 27
14 9 6 17 -10 11z"/>
<path d="M1846 1133 c9 -38 14 -42 14 -10 0 14 -5 29 -10 32 -7 4 -8 -3 -4
-22z"/>
<path d="M1065 1140 c-3 -5 -1 -10 4 -10 6 0 11 5 11 10 0 6 -2 10 -4 10 -3 0
-8 -4 -11 -10z"/>
<path d="M1824 960 c0 -91 2 -128 3 -82 2 45 2 119 0 165 -1 45 -3 8 -3 -83z"/>
<path d="M600 1080 c0 -6 7 -10 15 -10 8 0 15 2 15 4 0 2 -7 6 -15 10 -8 3
-15 1 -15 -4z"/>
<path d="M180 1070 c0 -5 5 -10 10 -10 6 0 10 5 10 10 0 6 -4 10 -10 10 -5 0
-10 -4 -10 -10z"/>
<path d="M206 1041 c-7 -10 -1 -19 31 -55 7 -8 9 -16 6 -20 -4 -3 1 -6 11 -6
9 0 14 -4 11 -10 -3 -5 1 -10 10 -10 9 0 13 -4 10 -10 -3 -5 1 -10 10 -10 9 0
13 -4 10 -10 -3 -5 1 -10 10 -10 9 0 13 -4 10 -10 -3 -5 0 -10 7 -10 8 0 20
-9 28 -20 8 -11 21 -20 29 -20 7 0 22 -10 32 -22 11 -12 19 -16 19 -8 0 8 8 4
19 -8 10 -12 26 -22 35 -22 9 0 16 -4 16 -10 0 -5 7 -10 16 -10 8 0 22 -7 31
-15 8 -8 19 -13 24 -10 5 4 9 2 9 -3 0 -5 19 -17 42 -28 36 -16 42 -16 46 -4
9 26 110 120 129 120 15 0 16 2 3 10 -12 8 -11 10 5 10 11 0 27 9 35 20 8 11
22 20 32 20 10 0 18 5 18 10 0 6 10 10 23 10 18 0 19 2 7 10 -12 8 -11 10 8
10 12 0 22 5 22 10 0 6 9 10 20 10 11 0 20 5 20 10 0 6 9 10 20 10 11 0 20 5
20 10 0 6 9 10 20 10 11 0 20 4 20 9 0 5 8 11 18 14 16 4 16 4 0 11 -18 8 -78
-13 -78 -26 0 -5 -9 -8 -20 -8 -11 0 -20 -4 -20 -10 0 -5 -9 -10 -20 -10 -11
0 -20 -3 -20 -7 0 -10 -49 -33 -68 -33 -7 0 -10 -4 -7 -10 3 -5 -1 -10 -9 -10
-9 0 -16 -4 -16 -8 0 -5 -12 -15 -27 -23 -16 -8 -35 -22 -44 -31 -9 -10 -21
-18 -28 -18 -6 0 -11 -4 -11 -10 0 -5 -9 -10 -19 -10 -14 0 -21 -8 -23 -27 -4
-36 -42 -42 -92 -14 -20 12 -43 21 -51 21 -8 0 -15 3 -15 8 0 4 -23 18 -50 31
-28 14 -46 29 -43 35 3 6 3 8 -2 4 -9 -8 -65 22 -65 34 0 4 -5 8 -11 8 -14 0
-69 55 -69 69 0 6 -6 11 -13 11 -8 0 -25 16 -39 36 -15 21 -29 31 -32 25z"/>
<path d="M1190 1030 c-13 -8 -12 -10 3 -10 9 0 17 5 17 10 0 12 -1 12 -20 0z"/>
<path d="M1230 1030 c0 -5 7 -10 15 -10 8 0 15 5 15 10 0 6 -7 10 -15 10 -8 0
-15 -4 -15 -10z"/>
<path d="M93 955 c0 -38 2 -53 4 -32 2 20 2 52 0 70 -2 17 -4 1 -4 -38z"/>
<path d="M800 1006 c0 -9 7 -12 20 -9 11 3 20 9 20 14 0 5 -9 9 -20 9 -11 0
-20 -6 -20 -14z"/>
<path d="M1900 1010 c0 -5 5 -10 11 -10 5 0 7 5 4 10 -3 6 -8 10 -11 10 -2 0
-4 -4 -4 -10z"/>
<path d="M1902 910 c0 -19 2 -27 5 -17 2 9 2 25 0 35 -3 9 -5 1 -5 -18z"/>
<path d="M85 870 c3 -5 8 -10 11 -10 2 0 4 5 4 10 0 6 -5 10 -11 10 -5 0 -7
-4 -4 -10z"/>
<path d="M688 873 c7 -3 16 -2 19 1 4 3 -2 6 -13 5 -11 0 -14 -3 -6 -6z"/>
<path d="M70 825 c0 -14 5 -25 10 -25 6 0 10 -18 10 -40 0 -22 5 -40 10 -40 6
0 10 -13 10 -30 0 -16 5 -30 10 -30 6 0 10 -13 10 -30 0 -16 5 -30 10 -30 6 0
10 -8 10 -19 0 -10 7 -24 15 -31 12 -10 15 -10 15 4 0 9 -4 16 -10 16 -5 0
-10 9 -10 20 0 11 -4 20 -10 20 -5 0 -10 14 -10 30 0 17 -4 30 -10 30 -5 0
-10 14 -10 30 0 17 -4 30 -10 30 -6 0 -10 27 -10 60 0 47 -3 60 -15 60 -9 0
-15 -9 -15 -25z"/>
<path d="M1851 834 c0 -11 3 -14 6 -6 3 7 2 16 -1 19 -3 4 -6 -2 -5 -13z"/>
<path d="M11 824 c0 -11 3 -14 6 -6 3 7 2 16 -1 19 -3 4 -6 -2 -5 -13z"/>
<path d="M1722 810 c0 -19 2 -27 5 -17 2 9 2 25 0 35 -3 9 -5 1 -5 -18z"/>
<path d="M1803 755 c0 -22 2 -30 4 -17 2 12 2 30 0 40 -3 9 -5 -1 -4 -23z"/>
<path d="M1911 753 c0 -24 -5 -43 -11 -43 -5 0 -10 -13 -10 -30 0 -19 -5 -30
-14 -30 -9 0 -16 -18 -20 -50 -5 -34 -11 -50 -21 -50 -8 0 -15 -9 -15 -20 0
-11 -4 -20 -10 -20 -5 0 -10 -10 -10 -23 0 -12 -9 -29 -20 -37 -11 -8 -20 -21
-20 -30 0 -9 -9 -22 -20 -30 -11 -8 -20 -20 -20 -27 0 -17 -146 -163 -163
-163 -7 0 -19 -9 -27 -20 -8 -11 -21 -20 -30 -20 -9 0 -22 -9 -30 -20 -8 -11
-25 -20 -37 -20 -13 0 -23 -4 -23 -10 0 -5 -9 -10 -20 -10 -11 0 -20 -7 -20
-15 0 -10 -16 -16 -50 -21 -32 -4 -50 -11 -50 -20 0 -9 -11 -14 -30 -14 -16 0
-30 -4 -30 -10 0 -5 -24 -11 -52 -11 -34 -1 -42 -4 -23 -6 50 -8 155 7 155 22
0 7 19 15 50 19 34 5 50 11 50 21 0 8 9 15 20 15 11 0 20 5 20 10 0 6 10 10
23 10 12 0 29 9 37 20 8 11 21 20 30 20 9 0 22 9 30 20 8 11 20 20 27 20 17 0
163 146 163 163 0 7 9 19 20 27 11 8 20 21 20 30 0 9 9 22 20 30 11 8 20 25
20 37 0 13 5 23 10 23 6 0 10 9 10 20 0 11 7 20 15 20 10 0 16 16 21 50 4 31
12 50 19 50 14 0 31 112 22 146 -2 10 -5 0 -6 -23z"/>
<path d="M2 689 c-3 -50 10 -119 23 -119 8 0 16 -18 20 -40 4 -25 12 -40 21
-40 8 0 14 -10 14 -25 0 -14 5 -25 10 -25 6 0 10 -7 10 -16 0 -9 13 -29 30
-44 16 -15 30 -33 30 -39 0 -16 147 -161 163 -161 7 0 19 -9 27 -20 8 -11 21
-20 30 -20 9 0 22 -9 30 -20 8 -11 22 -20 32 -20 10 0 18 -4 18 -10 0 -5 9
-10 20 -10 11 0 20 -6 20 -14 0 -10 17 -17 55 -21 35 -5 55 -12 55 -20 0 -15
105 -30 155 -22 19 2 11 5 -22 6 -29 0 -53 6 -53 11 0 6 -13 10 -30 10 -19 0
-30 5 -30 14 0 9 -18 16 -55 21 -38 4 -55 11 -55 21 0 8 -9 14 -20 14 -11 0
-20 5 -20 10 0 6 -8 10 -18 10 -10 0 -24 9 -32 20 -8 11 -21 20 -30 20 -9 0
-22 9 -30 20 -8 11 -20 20 -27 20 -16 0 -163 145 -163 161 0 6 -13 24 -30 39
-17 15 -30 35 -30 44 0 9 -4 16 -10 16 -5 0 -10 11 -10 25 0 15 -6 25 -14 25
-9 0 -17 15 -21 40 -4 25 -12 40 -21 40 -9 0 -14 11 -14 30 0 17 -4 30 -9 30
-6 0 -12 15 -14 33 -3 26 -4 27 -5 6z"/>
<path d="M1782 685 c0 -16 2 -22 5 -12 2 9 2 23 0 30 -3 6 -5 -1 -5 -18z"/>
<path d="M633 645 c-13 -13 -23 -31 -23 -40 0 -8 -4 -15 -10 -15 -5 0 -10 -9
-10 -20 0 -11 -4 -20 -10 -20 -5 0 -10 -15 -10 -32 0 -25 -3 -29 -10 -18 -7
11 -10 3 -10 -30 0 -33 -3 -41 -10 -30 -7 11 -10 -1 -10 -40 0 -39 -3 -51 -10
-40 -7 10 -10 -9 -10 -62 0 -66 -3 -78 -17 -78 -9 0 -14 -3 -10 -6 14 -14 47
8 47 32 0 13 5 24 11 24 8 0 8 5 -1 15 -9 10 -9 15 -1 15 7 0 11 20 11 50 0
28 5 50 10 50 6 0 10 16 10 35 0 19 5 35 10 35 6 0 10 9 10 20 0 11 5 20 10
20 6 0 10 6 10 14 0 16 48 103 61 111 13 9 11 35 -3 34 -7 0 -23 -11 -35 -24z"/>
<path d="M1100 660 c0 -5 -13 -10 -30 -10 -16 0 -30 -4 -30 -10 0 -5 -15 -10
-32 -10 -25 0 -29 -3 -18 -10 11 -7 7 -10 -17 -10 -18 0 -33 -4 -33 -10 0 -5
-9 -10 -20 -10 -11 0 -20 -4 -20 -10 0 -5 -10 -10 -22 -10 -19 0 -20 -2 -8
-10 12 -8 11 -10 -7 -10 -13 0 -23 -4 -23 -10 0 -5 -10 -10 -22 -10 -19 0 -20
-2 -8 -10 13 -8 12 -10 -3 -10 -21 0 -130 -110 -110 -110 4 0 3 -4 -3 -8 -33
-21 -60 -171 -34 -187 8 -5 16 65 11 97 0 5 3 8 7 8 4 0 8 10 9 21 1 12 11 30
22 40 11 10 22 27 26 39 3 11 14 20 22 20 9 0 14 3 11 6 -10 9 44 56 58 50 8
-3 14 -1 14 5 0 6 6 16 13 22 18 17 117 69 117 62 0 -4 7 1 16 9 8 9 20 14 25
11 5 -4 9 -1 9 4 0 6 14 11 30 11 17 0 30 5 30 10 0 6 9 10 20 10 11 0 20 5
20 10 0 6 11 10 24 10 14 0 28 5 31 10 4 6 -10 10 -34 10 -23 0 -41 -4 -41
-10z"/>
<path d="M51 634 c0 -11 3 -14 6 -6 3 7 2 16 -1 19 -3 4 -6 -2 -5 -13z"/>
<path d="M1761 633 c0 -13 -5 -23 -11 -23 -5 0 -10 -9 -10 -20 0 -11 -4 -20
-10 -20 -5 0 -10 -7 -10 -15 0 -9 6 -12 15 -9 8 4 15 14 15 23 0 9 5 22 11 28
6 6 9 21 6 34 -4 24 -4 24 -6 2z"/>
<path d="M1635 600 c3 -5 8 -10 11 -10 2 0 4 5 4 10 0 6 -5 10 -11 10 -5 0 -7
-4 -4 -10z"/>
<path d="M258 583 c7 -3 16 -2 19 1 4 3 -2 6 -13 5 -11 0 -14 -3 -6 -6z"/>
<path d="M905 520 c-3 -5 -1 -10 4 -10 6 0 11 5 11 10 0 6 -2 10 -4 10 -3 0
-8 -4 -11 -10z"/>
<path d="M155 510 c3 -5 8 -10 11 -10 2 0 4 5 4 10 0 6 -5 10 -11 10 -5 0 -7
-4 -4 -10z"/>
<path d="M190 510 c0 -6 5 -10 10 -10 6 0 10 -11 10 -24 0 -13 7 -26 15 -30
17 -6 21 9 5 19 -5 3 -10 14 -10 25 0 10 -7 20 -15 24 -8 3 -15 1 -15 -4z"/>
<path d="M1700 507 c0 -7 -9 -23 -21 -36 -26 -28 -18 -40 9 -13 11 11 22 18
25 16 2 -3 2 7 0 21 -6 27 -13 34 -13 12z"/>
<path d="M1730 509 c0 -5 5 -7 10 -4 6 3 10 8 10 11 0 2 -4 4 -10 4 -5 0 -10
-5 -10 -11z"/>
<path d="M1570 500 c0 -5 5 -10 10 -10 6 0 10 5 10 10 0 6 -4 10 -10 10 -5 0
-10 -4 -10 -10z"/>
<path d="M951 484 c0 -11 3 -14 6 -6 3 7 2 16 -1 19 -3 4 -6 -2 -5 -13z"/>
<path d="M1067 436 c-4 -10 -5 -21 -2 -24 9 -9 17 6 13 25 -3 17 -4 17 -11 -1z"/>
<path d="M1502 414 c-19 -20 -32 -37 -29 -40 4 -4 77 64 77 72 0 11 -18 -1
-48 -32z"/>
<path d="M250 428 c0 -8 9 -20 20 -28 11 -8 20 -22 20 -32 0 -10 7 -18 17 -18
9 0 14 -3 10 -6 -8 -8 18 -34 33 -34 7 0 25 -13 40 -30 15 -16 33 -30 39 -30
6 0 11 -4 11 -10 0 -5 9 -10 21 -10 18 0 19 2 5 15 -8 8 -20 15 -26 15 -6 0
-51 41 -100 90 -50 50 -90 85 -90 78z"/>
<path d="M1623 396 c-12 -13 -19 -27 -16 -30 7 -6 33 19 33 32 0 6 6 13 13 15
6 3 7 6 1 6 -6 1 -20 -10 -31 -23z"/>
<path d="M800 400 c0 -5 5 -10 10 -10 6 0 10 5 10 10 0 6 -4 10 -10 10 -5 0
-10 -4 -10 -10z"/>
<path d="M1025 400 c3 -5 8 -10 11 -10 2 0 4 5 4 10 0 6 -5 10 -11 10 -5 0 -7
-4 -4 -10z"/>
<path d="M1047 370 c-3 -11 -1 -20 4 -20 5 0 9 9 9 20 0 11 -2 20 -4 20 -2 0
-6 -9 -9 -20z"/>
<path d="M1370 380 c0 -5 5 -10 11 -10 5 0 7 5 4 10 -3 6 -8 10 -11 10 -2 0
-4 -4 -4 -10z"/>
<path d="M1573 345 c-8 -9 -9 -16 -3 -20 6 -3 13 1 16 10 9 21 2 26 -13 10z"/>
<path d="M1000 340 c0 -5 5 -10 10 -10 6 0 10 5 10 10 0 6 -4 10 -10 10 -5 0
-10 -4 -10 -10z"/>
<path d="M1069 333 c-4 -77 -3 -157 3 -171 4 -9 7 29 7 86 1 56 -1 102 -4 102
-3 0 -5 -8 -6 -17z"/>
<path d="M1503 335 c-19 -21 -16 -27 7 -15 11 6 20 15 20 20 0 14 -13 12 -27
-5z"/>
<path d="M1029 313 c-5 -99 -3 -165 3 -169 4 -3 8 38 8 90 0 53 -2 96 -5 96
-3 0 -5 -8 -6 -17z"/>
<path d="M1290 314 c0 -16 2 -16 24 -8 22 8 20 19 -4 21 -11 1 -20 -4 -20 -13z"/>
<path d="M1515 288 c-16 -15 -25 -28 -19 -28 5 0 19 9 31 19 11 10 29 21 39
23 18 4 18 4 -1 9 -13 4 -30 -4 -50 -23z"/>
<path d="M1335 291 c-3 -8 -2 -17 1 -20 4 -3 9 0 11 7 3 6 18 12 34 12 16 0
29 4 29 10 0 15 -69 7 -75 -9z"/>
<path d="M1430 294 c0 -8 5 -12 10 -9 6 3 10 10 10 16 0 5 -4 9 -10 9 -5 0
-10 -7 -10 -16z"/>
<path d="M993 220 c0 -25 2 -35 4 -22 2 12 2 32 0 45 -2 12 -4 2 -4 -23z"/>
<path d="M1268 253 c7 -3 16 -2 19 1 4 3 -2 6 -13 5 -11 0 -14 -3 -6 -6z"/>
<path d="M1446 239 c-11 -10 -15 -19 -8 -19 10 0 42 27 42 36 0 9 -16 2 -34
-17z"/>
<path d="M1305 240 c-3 -5 1 -10 9 -10 9 0 16 5 16 10 0 6 -4 10 -9 10 -6 0
-13 -4 -16 -10z"/>
<path d="M534 184 c9 -8 26 -13 38 -11 l23 4 -22 2 c-13 0 -23 6 -23 11 0 6
-7 10 -16 10 -14 0 -14 -1 0 -16z"/>
<path d="M1358 193 c7 -3 16 -2 19 1 4 3 -2 6 -13 5 -11 0 -14 -3 -6 -6z"/>
<path d="M1318 173 c7 -3 16 -2 19 1 4 3 -2 6 -13 5 -11 0 -14 -3 -6 -6z"/>
<path d="M970 160 l-25 -6 23 -8 c24 -8 37 -3 31 12 -2 4 -15 5 -29 2z"/>
<path d="M1360 159 c0 -5 5 -7 10 -4 6 3 10 8 10 11 0 2 -4 4 -10 4 -5 0 -10
-5 -10 -11z"/>
<path d="M618 153 c12 -2 22 -9 22 -14 0 -5 14 -9 30 -9 17 0 30 -4 30 -10 0
-5 18 -10 40 -10 22 0 40 -4 40 -10 0 -6 63 -10 170 -10 100 0 170 4 170 9 0
6 19 12 43 14 l42 4 -47 1 c-27 1 -48 -2 -48 -8 0 -6 -60 -10 -160 -10 -100 0
-160 4 -160 10 0 6 -18 10 -40 10 -22 0 -40 5 -40 10 0 6 -13 10 -30 10 -16 0
-30 5 -30 10 0 6 -12 9 -27 9 -24 -2 -25 -2 -5 -6z"/>
<path d="M1278 153 c7 -3 16 -2 19 1 4 3 -2 6 -13 5 -11 0 -14 -3 -6 -6z"/>
<path d="M565 140 c3 -5 8 -10 11 -10 2 0 4 5 4 10 0 6 -5 10 -11 10 -5 0 -7
-4 -4 -10z"/>
<path d="M1320 139 c0 -5 5 -7 10 -4 6 3 10 8 10 11 0 2 -4 4 -10 4 -5 0 -10
-5 -10 -11z"/>
<path d="M1223 133 c9 -2 23 -2 30 0 6 3 -1 5 -18 5 -16 0 -22 -2 -12 -5z"/>
<path d="M543 110 c2 -8 14 -16 28 -17 19 -1 20 -1 4 4 -11 3 -24 10 -28 17
-6 7 -7 6 -4 -4z"/>
<path d="M1300 91 c0 -5 9 -7 20 -4 11 3 20 7 20 9 0 2 -9 4 -20 4 -11 0 -20
-4 -20 -9z"/>
<path d="M818 63 c7 -3 16 -2 19 1 4 3 -2 6 -13 5 -11 0 -14 -3 -6 -6z"/>
<path d="M688 53 c12 -2 22 -9 22 -14 0 -5 12 -9 28 -9 l27 0 -29 15 c-15 8
-38 14 -50 14 -20 -2 -20 -2 2 -6z"/>
<path d="M1160 44 l-25 -14 28 0 c15 0 27 4 27 9 0 5 8 12 18 14 14 4 13 5 -3
5 -11 0 -31 -6 -45 -14z"/>
<path d="M878 13 c7 -3 16 -2 19 1 4 3 -2 6 -13 5 -11 0 -14 -3 -6 -6z"/>
</g>
</svg>
