<?xml version="1.0" standalone="no"?>
<!DOCTYPE svg PUBLIC "-//W3C//DTD SVG 20010904//EN"
 "http://www.w3.org/TR/2001/REC-SVG-20010904/DTD/svg10.dtd">
<svg version="1.0" xmlns="http://www.w3.org/2000/svg"
 width="100.000000pt" height="100.000000pt" viewBox="0 0 100.000000 100.000000"
 preserveAspectRatio="xMidYMid meet">
<metadata>
Created by potrace 1.16, written by Peter Selinger 2001-2019
</metadata>
<g transform="translate(0.000000,100.000000) scale(0.100000,-0.100000)"
fill="#000000" stroke="none">
<path d="M500 880 c0 -5 -12 -10 -27 -10 -27 -1 -27 -1 -9 -15 20 -15 20 -15
0 -30 -19 -14 -18 -14 4 -15 26 0 28 -12 7 -34 -20 -20 -19 -26 5 -26 18 0 20
7 20 60 l0 60 250 0 c160 0 250 4 250 10 0 6 -90 10 -250 10 -160 0 -250 -4
-250 -10z"/>
<path d="M0 860 c0 -6 28 -10 64 -10 42 0 66 -4 70 -12 5 -10 7 -10 12 0 3 7
25 12 54 12 29 0 50 -5 53 -12 4 -10 6 -10 6 0 1 6 7 12 15 12 8 0 17 -6 20
-12 5 -10 7 -10 12 0 3 6 18 12 34 12 16 0 31 -6 33 -12 4 -10 6 -10 6 0 2 20
38 14 44 -8 5 -20 0 -20 -209 -20 -136 0 -214 -4 -214 -10 0 -6 65 -10 175
-10 102 0 175 -4 175 -9 0 -5 -12 -11 -27 -13 -22 -2 -29 -9 -31 -30 -3 -21
-9 -27 -30 -30 -21 -2 -28 -9 -30 -30 -3 -21 -9 -27 -30 -30 -22 -2 -28 -9
-30 -35 -3 -29 -7 -33 -33 -33 -26 0 -29 -3 -29 -30 0 -28 -3 -30 -35 -30 -32
0 -35 -2 -35 -30 0 -23 -4 -30 -20 -30 -11 0 -20 -4 -20 -10 0 -6 28 -10 65
-10 l65 0 0 30 c0 27 3 30 30 30 27 0 30 3 30 30 0 27 3 30 30 30 28 0 30 3
30 35 0 32 2 35 30 35 27 0 30 3 30 30 0 27 3 30 30 30 27 0 30 3 30 30 0 28
3 30 35 30 l35 0 0 60 0 60 -220 0 c-140 0 -220 -4 -220 -10z m420 -81 c0 -5
-11 -9 -25 -9 -14 0 -25 6 -25 14 0 9 8 12 25 8 14 -2 25 -8 25 -13z m-67 -49
c-3 -11 -14 -20 -24 -20 -12 0 -19 7 -19 20 0 14 7 20 24 20 19 0 23 -4 19
-20z m-60 -59 c-3 -11 -13 -21 -24 -24 -15 -4 -19 0 -19 19 0 19 5 24 24 24
19 0 23 -4 19 -19z m-60 -65 c-3 -13 -14 -26 -24 -29 -15 -4 -19 0 -19 24 0
24 4 29 24 29 19 0 22 -4 19 -24z m-60 -65 c-3 -11 -13 -21 -24 -24 -15 -4
-19 0 -19 19 0 19 5 24 24 24 19 0 23 -4 19 -19z m-60 -60 c-3 -10 -16 -21
-29 -24 -20 -3 -24 0 -24 19 0 20 5 24 29 24 24 0 28 -4 24 -19z"/>
<path d="M870 838 c0 -10 -39 -12 -172 -10 -110 2 -175 -1 -182 -8 -7 -7 65
-10 237 -10 158 0 247 4 247 10 0 6 -9 10 -19 10 -11 0 -22 6 -25 13 -5 10 -7
10 -12 0 -7 -15 -54 -17 -54 -3 0 6 -4 10 -10 10 -5 0 -10 -6 -10 -12z"/>
<path d="M926 768 c4 -13 12 -26 18 -30 16 -11 56 -10 56 2 0 6 -13 10 -30 10
-23 0 -30 4 -30 20 0 11 -5 20 -11 20 -6 0 -8 -9 -3 -22z"/>
<path d="M420 720 c0 -5 -7 -10 -15 -10 -8 0 -15 -4 -15 -10 0 -5 11 -10 25
-10 18 0 25 5 25 20 0 11 -4 20 -10 20 -5 0 -10 -4 -10 -10z"/>
<path d="M940 660 c0 -28 -3 -30 -35 -30 -33 0 -35 -2 -35 -35 0 -32 -2 -35
-30 -35 -27 0 -30 -3 -30 -30 0 -27 -3 -30 -30 -30 -27 0 -30 -3 -30 -30 0
-27 -3 -30 -30 -30 -27 0 -30 -3 -30 -30 0 -28 -3 -30 -35 -30 -33 0 -35 -2
-35 -35 0 -32 -2 -35 -30 -35 -27 0 -30 -3 -30 -30 0 -27 -3 -30 -30 -30 -27
0 -30 -3 -30 -30 l0 -30 -65 0 -65 0 0 -30 c0 -27 -3 -30 -30 -30 -28 0 -30
-3 -30 -35 0 -32 -2 -35 -30 -35 -27 0 -30 -3 -30 -30 0 -17 5 -30 10 -30 6 0
10 9 10 20 0 16 7 20 30 20 28 0 30 3 30 35 0 32 2 35 30 35 27 0 30 3 30 30
l0 30 65 0 65 0 0 30 c0 27 3 30 30 30 27 0 30 3 30 30 0 27 3 30 30 30 28 0
30 3 30 35 0 33 2 35 35 35 32 0 35 2 35 30 0 27 3 30 30 30 27 0 30 3 30 30
0 27 3 30 30 30 27 0 30 3 30 30 0 27 3 30 30 30 28 0 30 3 30 35 0 33 2 35
35 35 32 0 35 2 35 30 0 23 4 30 20 30 11 0 20 5 20 10 0 6 -13 10 -30 10 -27
0 -30 -3 -30 -30z"/>
<path d="M343 655 c-18 -20 -16 -25 7 -25 13 0 20 7 20 20 0 23 -10 25 -27 5z"/>
<path d="M290 595 c0 -8 -4 -15 -10 -15 -5 0 -10 -4 -10 -10 0 -5 9 -10 20
-10 15 0 20 7 20 25 0 14 -4 25 -10 25 -5 0 -10 -7 -10 -15z"/>
<path d="M223 525 c-18 -20 -16 -25 7 -25 13 0 20 7 20 20 0 23 -10 25 -27 5z"/>
<path d="M163 465 c-18 -20 -16 -25 7 -25 13 0 20 7 20 20 0 23 -10 25 -27 5z"/>
<path d="M44 415 c-4 -8 -15 -15 -25 -15 -10 0 -19 -4 -19 -10 0 -5 13 -10 30
-10 25 0 30 4 30 25 0 28 -8 33 -16 10z"/>
<path d="M110 410 c0 -5 -7 -10 -15 -10 -8 0 -15 -4 -15 -10 0 -5 11 -10 25
-10 18 0 25 5 25 20 0 11 -4 20 -10 20 -5 0 -10 -4 -10 -10z"/>
</g>
</svg>
