<?xml version="1.0" standalone="no"?>
<!DOCTYPE svg PUBLIC "-//W3C//DTD SVG 20010904//EN"
 "http://www.w3.org/TR/2001/REC-SVG-20010904/DTD/svg10.dtd">
<svg version="1.0" xmlns="http://www.w3.org/2000/svg"
 width="100.000000pt" height="100.000000pt" viewBox="0 0 100.000000 100.000000"
 preserveAspectRatio="xMidYMid meet">
<metadata>
Created by potrace 1.16, written by Peter Selinger 2001-2019
</metadata>
<g transform="translate(0.000000,100.000000) scale(0.100000,-0.100000)"
fill="#000000" stroke="none">
<path d="M420 980 c0 -16 -7 -20 -35 -20 -33 0 -35 -2 -35 -35 0 -32 -2 -35
-30 -35 -27 0 -30 -3 -30 -30 0 -29 -2 -30 -44 -30 -45 0 -76 -18 -76 -45 0
-8 -12 -15 -27 -17 -22 -2 -29 -9 -31 -30 -3 -25 -8 -28 -38 -28 -31 0 -34 -2
-34 -30 0 -23 -4 -30 -20 -30 -11 0 -20 -4 -20 -10 0 -5 11 -10 24 -10 19 0
22 -4 18 -25 -3 -16 -11 -25 -23 -25 -11 0 -19 -4 -19 -10 0 -5 13 -10 30 -10
28 0 30 3 30 35 0 33 2 35 35 35 32 0 35 2 35 30 0 27 3 30 30 30 27 0 30 3
30 30 0 27 3 30 30 30 27 0 30 3 30 30 0 27 3 30 30 30 27 0 30 3 30 30 0 27
3 30 30 30 28 0 30 3 30 35 0 33 2 35 35 35 32 0 35 2 35 30 0 17 -4 30 -10
30 -5 0 -10 -9 -10 -20z m-190 -190 c0 -13 -7 -20 -20 -20 -13 0 -20 7 -20 20
0 13 7 20 20 20 13 0 20 -7 20 -20z m-60 -60 c0 -13 -7 -20 -20 -20 -13 0 -20
7 -20 20 0 13 7 20 20 20 13 0 20 -7 20 -20z m-57 -60 c-3 -13 -14 -20 -29
-20 -17 0 -24 6 -24 20 0 15 7 20 29 20 24 0 28 -3 24 -20z"/>
<path d="M480 984 c0 -9 -8 -23 -17 -30 -16 -12 -15 -13 10 -14 23 0 27 4 27
30 0 17 -4 30 -10 30 -5 0 -10 -7 -10 -16z"/>
<path d="M563 935 c0 -38 2 -53 4 -32 2 20 2 52 0 70 -2 17 -4 1 -4 -38z"/>
<path d="M802 975 c0 -16 2 -22 5 -12 2 9 2 23 0 30 -3 6 -5 -1 -5 -18z"/>
<path d="M870 980 c0 -11 5 -20 10 -20 6 0 10 9 10 20 0 11 -4 20 -10 20 -5 0
-10 -9 -10 -20z"/>
<path d="M940 970 c0 -28 -3 -30 -35 -30 -33 0 -35 -2 -35 -35 0 -32 -2 -35
-30 -35 -27 0 -30 -3 -30 -30 0 -27 -3 -30 -30 -30 -27 0 -30 -3 -30 -30 0
-27 -3 -30 -30 -30 -27 0 -30 -3 -30 -30 0 -28 -3 -30 -35 -30 -32 0 -35 -2
-35 -30 0 -27 -3 -30 -30 -30 -28 0 -30 -3 -30 -35 0 -32 -2 -35 -30 -35 -27
0 -30 -3 -30 -30 0 -27 -3 -30 -30 -30 -27 0 -30 -3 -30 -30 0 -28 -3 -30 -35
-30 -32 0 -35 -2 -35 -30 0 -27 -3 -30 -30 -30 -28 0 -30 -3 -30 -35 0 -32 -2
-35 -30 -35 l-30 0 0 -60 0 -60 -30 0 c-27 0 -30 3 -30 30 0 23 4 30 20 30 11
0 20 5 20 11 0 6 -9 9 -20 6 -16 -4 -20 0 -20 19 0 17 6 24 20 24 11 0 20 5
20 10 0 6 -4 10 -10 10 -5 0 -10 7 -10 15 0 21 28 19 33 -3 3 -10 5 -6 6 11 1
21 6 27 24 28 12 0 16 3 10 6 -7 2 -13 11 -13 19 0 8 6 14 13 15 74 5 88 19
19 19 -51 0 -52 -1 -52 -30 0 -27 -3 -30 -30 -30 -28 0 -30 -3 -30 -35 0 -32
-2 -35 -30 -35 -27 0 -30 -3 -30 -30 0 -28 -3 -30 -35 -30 -32 0 -35 -2 -35
-30 0 -27 -3 -30 -30 -30 -17 0 -30 -4 -30 -10 0 -5 9 -10 20 -10 11 0 20 -4
20 -10 0 -5 -9 -10 -20 -10 -11 0 -20 -4 -20 -10 0 -5 13 -10 30 -10 27 0 30
3 30 30 0 25 4 30 25 30 20 0 25 -5 25 -25 0 -14 5 -25 10 -25 6 0 10 11 10
25 0 21 5 25 30 25 27 0 30 -3 30 -30 0 -27 -3 -30 -30 -30 -28 0 -30 -3 -30
-35 0 -33 -2 -35 -35 -35 -32 0 -35 -2 -35 -30 0 -17 5 -30 10 -30 6 0 10 9
10 20 0 16 7 20 35 20 33 0 35 2 35 35 0 32 2 35 30 35 27 0 30 3 30 30 0 27
3 30 30 30 l30 0 0 60 0 60 30 0 c28 0 30 3 30 35 0 32 2 35 30 35 27 0 30 3
30 30 0 28 3 30 35 30 32 0 35 2 35 30 0 27 3 30 30 30 27 0 30 3 30 30 0 27
3 30 30 30 28 0 30 3 30 35 0 32 2 35 30 35 27 0 30 3 30 30 0 20 5 30 15 30
10 0 15 -10 15 -30 0 -29 1 -30 50 -30 49 0 50 1 50 30 0 27 3 30 30 30 29 0
30 1 30 50 0 49 -1 50 -30 50 -16 0 -30 5 -30 10 0 6 14 10 30 10 27 0 30 3
30 30 0 27 3 30 30 30 28 0 30 3 30 35 0 33 2 35 35 35 34 0 35 1 35 40 0 22
-4 40 -10 40 -5 0 -10 -13 -10 -30z m-130 -250 c0 -27 -3 -30 -30 -30 -27 0
-30 3 -30 30 0 27 3 30 30 30 27 0 30 -3 30 -30z m-80 0 c0 -5 -4 -10 -10 -10
-5 0 -10 5 -10 10 0 6 5 10 10 10 6 0 10 -4 10 -10z m20 -60 c0 -27 -3 -30
-30 -30 -27 0 -30 3 -30 30 0 27 3 30 30 30 27 0 30 -3 30 -30z m-580 -380 c0
-5 -4 -10 -10 -10 -5 0 -10 5 -10 10 0 6 5 10 10 10 6 0 10 -4 10 -10z m3 -50
c-3 -11 -14 -20 -24 -20 -12 0 -19 7 -19 20 0 14 7 20 24 20 19 0 23 -4 19
-20z m-63 -10 c0 -5 -7 -10 -15 -10 -8 0 -15 5 -15 10 0 6 7 10 15 10 8 0 15
-4 15 -10z"/>
<path d="M810 915 c0 -14 5 -25 10 -25 6 0 10 7 10 15 0 8 5 15 10 15 6 0 10
5 10 10 0 6 -9 10 -20 10 -15 0 -20 -7 -20 -25z"/>
<path d="M425 913 c-4 -11 -17 -24 -28 -28 -20 -7 -20 -8 6 -12 36 -6 40 -2
34 34 -4 26 -5 26 -12 6z"/>
<path d="M500 859 c0 -5 5 -7 10 -4 6 3 10 8 10 11 0 2 -4 4 -10 4 -5 0 -10
-5 -10 -11z"/>
<path d="M750 850 c0 -24 6 -25 26 -6 19 20 18 26 -6 26 -13 0 -20 -7 -20 -20z"/>
<path d="M343 835 c-18 -20 -16 -25 7 -25 13 0 20 7 20 20 0 23 -10 25 -27 5z"/>
<path d="M403 803 c9 -2 23 -2 30 0 6 3 -1 5 -18 5 -16 0 -22 -2 -12 -5z"/>
<path d="M690 790 c0 -24 6 -25 26 -6 19 20 18 26 -6 26 -13 0 -20 -7 -20 -20z"/>
<path d="M283 775 c-18 -20 -16 -25 7 -25 13 0 20 7 20 20 0 23 -10 25 -27 5z"/>
<path d="M371 774 c0 -11 3 -14 6 -6 3 7 2 16 -1 19 -3 4 -6 -2 -5 -13z"/>
<path d="M317 743 c-4 -3 -7 -17 -7 -29 0 -21 -5 -23 -52 -26 l-53 -3 47 -9
c52 -9 78 5 78 43 0 12 8 21 23 24 20 4 20 4 -4 6 -14 0 -29 -2 -32 -6z"/>
<path d="M620 730 c0 -11 5 -20 10 -20 6 0 10 5 10 10 0 6 7 10 15 10 8 0 15
5 15 10 0 6 -11 10 -25 10 -18 0 -25 -5 -25 -20z"/>
<path d="M560 670 c0 -24 6 -25 26 -6 19 20 18 26 -6 26 -13 0 -20 -7 -20 -20z"/>
<path d="M295 640 c-3 -5 -1 -10 4 -10 6 0 11 5 11 10 0 6 -2 10 -4 10 -3 0
-8 -4 -11 -10z"/>
<path d="M441 603 c0 -16 3 -21 6 -13 3 8 12 21 21 28 14 10 13 12 -6 12 -18
0 -22 -6 -21 -27z"/>
<path d="M500 605 c0 -14 5 -25 10 -25 6 0 10 7 10 15 0 8 5 15 10 15 6 0 10
5 10 10 0 6 -9 10 -20 10 -15 0 -20 -7 -20 -25z"/>
<path d="M132 590 c0 -14 2 -19 5 -12 2 6 2 18 0 25 -3 6 -5 1 -5 -13z"/>
<path d="M235 570 c-3 -5 -1 -10 4 -10 6 0 11 5 11 10 0 6 -2 10 -4 10 -3 0
-8 -4 -11 -10z"/>
<path d="M88 553 c6 -2 18 -2 25 0 6 3 1 5 -13 5 -14 0 -19 -2 -12 -5z"/>
<path d="M130 549 c0 -5 5 -7 10 -4 6 3 10 8 10 11 0 2 -4 4 -10 4 -5 0 -10
-5 -10 -11z"/>
<path d="M370 530 c0 -27 -3 -30 -30 -30 -26 0 -30 -4 -30 -27 1 -25 2 -26 14
-10 15 20 32 22 39 5 3 -8 6 -6 6 4 2 28 23 68 38 68 7 0 13 5 13 10 0 6 -11
10 -25 10 -21 0 -25 -5 -25 -30z"/>
<path d="M440 540 c0 -24 6 -25 26 -6 19 20 18 26 -6 26 -13 0 -20 -7 -20 -20z"/>
<path d="M60 488 c0 -62 6 -60 14 5 4 29 3 47 -4 47 -5 0 -10 -23 -10 -52z"/>
<path d="M175 510 c-3 -5 -1 -10 4 -10 6 0 11 5 11 10 0 6 -2 10 -4 10 -3 0
-8 -4 -11 -10z"/>
<path d="M0 490 c0 -5 9 -10 19 -10 11 0 23 5 26 10 4 6 -5 10 -19 10 -14 0
-26 -4 -26 -10z"/>
<path d="M88 123 c7 -3 16 -2 19 1 4 3 -2 6 -13 5 -11 0 -14 -3 -6 -6z"/>
<path d="M0 70 c0 -5 11 -10 25 -10 14 0 25 5 25 10 0 6 -11 10 -25 10 -14 0
-25 -4 -25 -10z"/>
</g>
</svg>
