<?xml version="1.0" standalone="no"?>
<!DOCTYPE svg PUBLIC "-//W3C//DTD SVG 20010904//EN"
 "http://www.w3.org/TR/2001/REC-SVG-20010904/DTD/svg10.dtd">
<svg version="1.0" xmlns="http://www.w3.org/2000/svg"
 width="180.000000pt" height="180.000000pt" viewBox="0 0 180.000000 180.000000"
 preserveAspectRatio="xMidYMid meet">
<metadata>
Created by potrace 1.16, written by Peter Selinger 2001-2019
</metadata>
<g transform="translate(0.000000,180.000000) scale(0.100000,-0.100000)"
fill="#000000" stroke="none">
<path d="M140 873 c0 -701 1 -737 18 -717 9 11 123 119 252 239 129 120 289
269 355 330 66 61 228 212 360 335 462 432 520 485 553 512 17 15 32 29 32 32
0 3 -353 6 -785 6 l-785 0 0 -737z m1163 707 c338 0 340 0 322 -20 -10 -11
-22 -17 -26 -14 -5 3 -9 1 -9 -4 0 -5 -86 -90 -192 -188 -105 -99 -216 -203
-247 -231 -31 -29 -62 -53 -69 -53 -6 0 -11 -3 -10 -8 4 -11 -72 -82 -88 -82
-8 0 -14 -6 -14 -14 0 -7 -28 -39 -62 -71 -35 -32 -112 -103 -173 -159 -60
-55 -145 -134 -190 -175 -44 -41 -88 -83 -97 -94 -10 -10 -18 -15 -18 -11 0 5
-7 -2 -16 -15 -13 -18 -18 -20 -25 -10 -7 11 -9 10 -9 -5 0 -22 -160 -177
-175 -169 -5 4 -7 3 -3 -2 9 -9 -9 -35 -23 -35 -5 0 -9 139 -9 311 0 200 -4
317 -11 330 -9 17 -4 26 28 57 35 33 220 205 313 292 185 171 275 255 335 313
61 58 74 67 99 62 16 -3 182 -5 369 -5z m-546 -87 c-88 -83 -155 -146 -318
-297 -41 -38 -103 -97 -139 -130 -36 -34 -80 -74 -98 -90 l-32 -30 0 317 0
317 339 0 339 0 -91 -87z"/>
<path d="M315 1000 c-3 -5 -1 -10 4 -10 6 0 11 5 11 10 0 6 -2 10 -4 10 -3 0
-8 -4 -11 -10z"/>
</g>
</svg>
