<?xml version="1.0" standalone="no"?>
<!DOCTYPE svg PUBLIC "-//W3C//DTD SVG 20010904//EN"
 "http://www.w3.org/TR/2001/REC-SVG-20010904/DTD/svg10.dtd">
<svg version="1.0" xmlns="http://www.w3.org/2000/svg"
 width="192.000000pt" height="192.000000pt" viewBox="0 0 192.000000 192.000000"
 preserveAspectRatio="xMidYMid meet">
<metadata>
Created by potrace 1.16, written by Peter Selinger 2001-2019
</metadata>
<g transform="translate(0.000000,192.000000) scale(0.100000,-0.100000)"
fill="#000000" stroke="none">
<path d="M483 1799 c-23 -11 -54 -36 -68 -55 -48 -63 -59 -108 -59 -254 -1
-74 2 -146 6 -160 7 -23 3 -27 -45 -48 -155 -69 -240 -131 -293 -214 -20 -31
-24 -51 -24 -112 0 -67 3 -78 33 -122 19 -27 56 -66 83 -87 47 -36 222 -127
244 -127 7 0 8 -14 3 -42 -5 -24 -8 -95 -8 -158 0 -139 20 -202 80 -265 101
-103 274 -77 468 72 35 27 62 41 70 37 6 -5 33 -24 58 -44 25 -20 81 -54 125
-75 133 -67 270 -61 336 13 50 58 69 116 75 227 3 55 1 130 -4 168 -7 51 -7
67 3 67 22 0 204 99 249 136 24 20 58 56 75 82 27 41 30 53 30 122 0 73 -2 80
-37 129 -42 57 -123 122 -192 153 -69 30 -104 45 -124 52 -15 5 -16 12 -10 48
5 24 8 97 7 163 0 114 -2 123 -32 186 -44 92 -89 122 -189 127 -42 3 -87 -1
-106 -8 -70 -26 -155 -72 -212 -115 -33 -25 -63 -45 -67 -45 -4 0 -35 22 -70
48 -35 26 -95 63 -133 82 -58 28 -84 34 -150 37 -66 3 -87 0 -122 -18z m135
-6 c-16 -2 -40 -2 -55 0 -16 2 -3 4 27 4 30 0 43 -2 28 -4z m699 1 c-3 -3 -12
-4 -19 -1 -8 3 -5 6 6 6 11 1 17 -2 13 -5z m-663 -15 c-2 -4 7 -10 20 -13 13
-3 32 -9 42 -13 13 -5 15 -3 9 7 -5 9 -4 11 4 6 6 -4 9 -12 6 -17 -4 -5 -4 -9
-1 -9 2 0 12 -3 22 -7 13 -5 15 -3 9 7 -5 9 -4 11 4 6 6 -4 8 -12 5 -18 -5 -7
-1 -9 9 -5 10 4 16 2 14 -5 -1 -6 4 -13 12 -16 9 -3 11 0 6 9 -5 8 -4 11 1 6
5 -5 9 -14 9 -20 0 -5 6 -12 14 -15 9 -3 11 0 5 9 -7 12 -5 12 9 0 20 -16 23
-26 5 -15 -9 5 -9 2 1 -9 14 -18 36 -24 26 -7 -11 18 1 11 21 -12 19 -22 19
-23 -1 -9 -11 7 -4 -1 15 -18 19 -17 37 -31 40 -31 3 0 23 16 45 36 22 20 32
31 23 24 -25 -17 -22 -7 4 16 12 10 18 13 14 7 -11 -19 9 -16 25 4 12 14 12
16 0 8 -9 -5 -12 -4 -7 3 4 6 13 9 20 6 8 -3 17 0 22 7 5 8 3 10 -6 4 -9 -5
-11 -4 -6 4 4 6 11 9 16 6 11 -7 100 36 94 46 -2 4 1 11 7 15 8 4 9 3 5 -5 -6
-9 0 -10 21 -4 38 11 153 10 177 -1 14 -7 17 -6 12 2 -11 18 0 14 15 -5 10
-11 10 -14 2 -9 -21 12 -15 1 13 -25 26 -24 26 -24 15 -1 -16 30 -7 28 14 -4
10 -15 12 -23 4 -19 -9 6 -10 3 -4 -11 42 -99 51 -180 36 -300 -7 -49 -14 -96
-17 -105 -3 -12 5 -20 27 -28 41 -14 52 -14 43 1 -4 7 -3 8 5 4 6 -4 9 -11 6
-16 -7 -11 32 -23 46 -14 8 4 9 3 5 -4 -4 -7 -5 -12 -2 -12 2 0 12 -3 22 -7
13 -5 15 -3 9 8 -4 8 -5 11 -1 7 4 -3 7 -10 6 -13 -2 -8 50 -45 63 -45 5 0 5
6 1 13 -4 7 -3 9 2 4 5 -5 9 -14 9 -20 0 -5 6 -12 14 -15 8 -3 11 0 7 7 -12
19 0 12 20 -11 15 -19 16 -20 2 -9 -32 24 -19 6 24 -34 40 -38 40 -39 19 -7
-30 44 -20 41 15 -5 15 -20 22 -33 16 -29 -7 4 -12 3 -12 -3 0 -5 4 -13 10
-16 5 -3 14 -24 20 -45 13 -47 1 -104 -30 -143 -22 -27 -26 -42 -10 -32 18 11
10 -1 -17 -26 -14 -13 -23 -18 -19 -11 12 21 -10 13 -30 -10 -15 -19 -16 -20
-1 -9 24 19 21 8 -5 -15 -12 -10 -18 -13 -13 -5 5 9 3 12 -6 9 -8 -3 -13 -11
-11 -17 1 -7 -2 -10 -7 -7 -12 8 -122 -45 -115 -55 2 -4 -1 -11 -7 -15 -8 -4
-9 -3 -5 4 8 13 -4 15 -28 6 -9 -3 -14 -10 -11 -14 3 -5 0 -12 -6 -16 -8 -4
-9 -3 -5 4 9 14 -11 14 -39 1 l-20 -9 20 3 c18 3 20 -2 21 -57 l2 -61 -10 53
c-15 80 -20 56 -7 -29 6 -41 9 -112 7 -159 -5 -80 -10 -99 -56 -194 -3 -5 2
-5 9 -1 8 5 1 -6 -15 -23 -30 -32 -49 -44 -26 -17 7 8 9 15 4 15 -12 -1 -45
-26 -39 -31 2 -3 -35 -1 -83 2 -48 4 -91 5 -96 1 -5 -3 -6 -1 -3 5 7 11 -100
66 -114 57 -5 -3 -8 0 -7 7 2 6 -3 14 -11 17 -8 3 -11 0 -7 -7 11 -17 0 -13
-15 6 -12 15 -12 16 1 8 13 -8 13 -7 1 8 -14 18 -36 24 -26 7 11 -18 -1 -11
-21 12 -19 22 -19 23 1 9 11 -7 2 3 -20 23 -22 20 -43 36 -46 36 -3 0 -16 -12
-30 -28 l-24 -27 28 24 27 25 23 -24 22 -24 -23 19 c-22 18 -23 18 -54 -11
-17 -16 -28 -23 -24 -16 11 18 -9 15 -25 -5 -12 -15 -12 -16 1 -8 13 8 13 7 1
-8 -15 -18 -26 -23 -16 -7 10 17 -12 11 -26 -7 -12 -15 -12 -16 1 -8 13 8 13
7 1 -8 -15 -18 -26 -23 -16 -7 8 13 -1 13 -26 -1 -11 -5 -17 -14 -14 -19 4 -6
-1 -7 -11 -3 -11 4 -15 3 -10 -5 3 -6 1 -14 -5 -18 -8 -4 -9 -3 -5 4 8 14 4
15 -18 6 -9 -3 -14 -10 -11 -14 3 -5 0 -12 -6 -16 -8 -4 -9 -3 -5 4 9 15 10
15 -64 -4 -57 -14 -79 -14 -134 3 -14 4 -16 2 -11 -8 5 -8 4 -11 -1 -6 -5 5
-9 14 -9 20 0 5 -6 12 -14 15 -8 3 -11 0 -7 -7 12 -18 0 -12 -20 11 -10 12
-13 18 -6 14 17 -10 15 9 -2 24 -20 16 -44 93 -51 165 -6 54 5 187 20 247 5
20 0 25 -47 42 -29 10 -59 21 -67 24 -10 4 -12 1 -6 -8 5 -9 4 -11 -4 -6 -6 4
-9 12 -6 17 4 5 4 9 1 9 -2 0 -12 3 -22 7 -13 5 -15 3 -9 -7 5 -9 4 -11 -4 -6
-6 4 -9 12 -6 17 4 5 4 9 1 9 -2 0 -12 3 -22 7 -13 5 -15 3 -9 -7 5 -9 4 -11
-4 -6 -6 4 -8 12 -5 18 5 7 1 9 -9 5 -9 -3 -19 -1 -23 5 -5 7 -2 8 6 3 9 -5
11 -4 6 4 -4 6 -13 10 -20 9 -6 -2 -11 0 -11 3 0 11 -37 49 -48 49 -6 0 -2
-10 9 -22 10 -13 4 -10 -14 6 -32 30 -45 50 -17 26 23 -19 18 -1 -10 32 -34
40 -48 99 -36 145 6 20 8 40 5 45 -3 5 0 7 7 6 6 -2 14 3 17 11 3 8 0 11 -7 7
-19 -12 -12 0 11 20 19 15 20 16 9 2 -24 -32 -6 -19 34 24 22 23 29 34 15 23
l-25 -20 18 22 c11 12 25 19 32 17 7 -3 16 0 21 7 5 8 3 10 -6 4 -9 -5 -11 -4
-6 4 4 6 11 9 16 6 13 -8 52 14 45 25 -4 6 1 7 11 3 12 -4 15 -3 10 5 -5 8 -1
10 10 5 11 -4 15 -3 10 5 -3 6 -1 14 5 18 8 5 9 3 4 -6 -6 -9 -2 -10 16 -5 46
15 79 31 74 37 -4 3 -1 9 6 14 8 4 10 3 5 -4 -8 -13 4 -15 26 -7 12 5 12 18 1
88 -17 97 -11 233 12 297 9 25 29 59 46 76 16 17 27 33 24 36 -4 3 -1 9 6 14
8 5 10 3 4 -6 -6 -10 -4 -12 9 -7 10 4 20 7 22 7 3 0 3 3 1 8 -3 4 26 7 63 7
37 0 66 -3 64 -6z m-184 -23 c0 -2 -8 -10 -17 -17 -16 -13 -17 -12 -4 4 13 16
21 21 21 13z m-48 -65 c-9 -16 -18 -28 -21 -26 -4 5 27 55 34 55 2 0 -4 -13
-13 -29z m560 -73 c-22 -22 -22 -22 -39 -3 -17 18 -17 18 0 5 15 -11 20 -11
35 3 9 10 19 17 21 17 3 0 -5 -10 -17 -22z m558 -27 c0 -32 -6 -24 -14 19 -4
25 -3 31 4 20 5 -8 10 -26 10 -39z m-1153 -3 c-3 -7 -5 -2 -5 12 0 14 2 19 5
13 2 -7 2 -19 0 -25z m-10 -135 c-2 -21 -4 -4 -4 37 0 41 2 58 4 38 2 -21 2
-55 0 -75z m1170 5 c-2 -18 -4 -4 -4 32 0 36 2 50 4 33 2 -18 2 -48 0 -65z
m-10 -95 c-3 -10 -5 -2 -5 17 0 19 2 27 5 18 2 -10 2 -26 0 -35z m-1150 -10
c-3 -10 -5 -4 -5 12 0 17 2 24 5 18 2 -7 2 -21 0 -30z m1140 -45 c-3 -7 -5 -2
-5 12 0 14 2 19 5 13 2 -7 2 -19 0 -25z m-1130 -10 c-3 -7 -5 -2 -5 12 0 14 2
19 5 13 2 -7 2 -19 0 -25z m1502 -297 c0 -14 -1 -14 -6 -1 -3 8 -10 24 -15 35
-9 20 -9 20 6 1 9 -11 16 -27 15 -35z m-1866 9 c-3 -12 -8 -19 -11 -16 -5 6 5
36 12 36 2 0 2 -9 -1 -20z m1874 -62 c-3 -7 -5 -2 -5 12 0 14 2 19 5 13 2 -7
2 -19 0 -25z m-1890 0 c-3 -8 -6 -5 -6 6 -1 11 2 17 5 13 3 -3 4 -12 1 -19z
m45 -95 c6 -7 8 -13 4 -13 -10 0 -46 63 -46 80 1 8 7 0 16 -19 8 -19 19 -41
26 -48z m1824 28 c-25 -47 -35 -45 -12 3 12 23 22 39 24 35 2 -4 -4 -21 -12
-38z m-1489 -293 c-3 -7 -5 -2 -5 12 0 14 2 19 5 13 2 -7 2 -19 0 -25z m-10
-65 c-3 -10 -5 -2 -5 17 0 19 2 27 5 18 2 -10 2 -26 0 -35z m1160 -135 c-2
-24 -4 -5 -4 42 0 47 2 66 4 43 2 -24 2 -62 0 -85z m-1170 10 c-2 -18 -4 -6
-4 27 0 33 2 48 4 33 2 -15 2 -42 0 -60z m28 -146 c-5 -6 -25 61 -24 82 0 12
6 -1 14 -29 7 -27 12 -51 10 -53z m1125 31 c-11 -17 -11 -17 -6 0 3 10 7 26 7
35 1 15 2 15 6 0 2 -10 -1 -25 -7 -35z m-10 -31 c0 -5 -7 -17 -15 -28 -14 -18
-14 -17 -4 9 12 27 19 34 19 19z m-1090 -37 c14 -19 14 -19 -2 -6 -10 7 -18
18 -18 24 0 6 1 8 3 6 1 -2 9 -13 17 -24z"/>
<path d="M560 1750 c0 -5 11 -10 25 -10 14 0 25 5 25 10 0 6 -11 10 -25 10
-14 0 -25 -4 -25 -10z"/>
<path d="M1300 1750 c0 -5 21 -10 48 -10 34 0 43 3 32 10 -20 13 -80 13 -80 0z"/>
<path d="M660 1736 c0 -2 9 -6 20 -9 11 -3 18 -1 14 4 -5 9 -34 13 -34 5z"/>
<path d="M570 1720 c-12 -8 -11 -10 8 -10 12 0 22 5 22 10 0 13 -11 13 -30 0z"/>
<path d="M1295 1720 c-15 -7 -10 -9 23 -9 26 -1 41 3 37 9 -7 12 -32 12 -60 0z"/>
<path d="M553 1680 c-44 -18 -58 -65 -58 -190 0 -63 4 -132 8 -154 8 -37 10
-38 40 -31 18 3 70 13 117 21 73 12 88 18 105 41 11 15 43 55 72 89 l52 61
-27 25 c-53 49 -101 80 -113 72 -8 -4 -9 -3 -5 5 5 7 -11 20 -46 35 -64 29
-115 38 -145 26z m17 -14 c0 -2 -9 -6 -20 -9 -11 -3 -18 -1 -14 4 5 9 34 13
34 5z m95 -14 c-3 -3 -11 0 -18 7 -9 10 -8 11 6 5 10 -3 15 -9 12 -12z m-51
-12 c21 0 149 -68 183 -98 l32 -27 -59 -71 -59 -71 -82 -11 c-45 -7 -84 -10
-86 -8 -2 2 -6 42 -10 88 -7 102 10 188 38 195 11 3 19 10 20 17 0 7 2 6 6 -1
2 -7 10 -13 17 -13z m-96 -46 c-6 -23 -9 -85 -6 -149 3 -60 1 -96 -3 -80 -16
71 -3 293 16 273 3 -2 0 -22 -7 -44z m297 -24 c10 -11 16 -20 13 -20 -3 0 -13
9 -23 20 -10 11 -16 20 -13 20 3 0 13 -9 23 -20z m48 -38 c16 -17 15 -20 -16
-48 l-32 -29 27 30 c26 29 27 32 11 48 -10 9 -15 17 -12 17 3 0 13 -8 22 -18z
m-83 -132 c-23 -27 -44 -50 -47 -50 -3 0 14 23 37 50 23 28 44 50 47 50 3 0
-14 -22 -37 -50z m-83 -56 c-3 -3 -12 -4 -19 -1 -8 3 -5 6 6 6 11 1 17 -2 13
-5z"/>
<path d="M1287 1683 c-9 -2 -15 -9 -12 -14 3 -5 0 -6 -8 -3 -19 7 -120 -43
-112 -56 3 -5 0 -12 -6 -16 -8 -4 -9 -3 -5 4 11 18 -10 14 -25 -5 -10 -11 -10
-14 -1 -9 18 11 15 1 -5 -15 -11 -10 -14 -10 -9 -1 13 21 -8 12 -42 -19 l-33
-29 72 -88 c45 -54 79 -87 91 -86 10 0 16 -2 13 -5 -3 -3 41 -13 97 -22 57
-10 104 -16 105 -15 9 9 23 121 23 185 0 158 -45 220 -143 194z m103 -34 c7
-11 9 -23 6 -27 -3 -3 -6 0 -6 6 0 6 -7 18 -16 26 -8 9 -11 16 -5 16 6 0 15
-9 21 -21z m-36 -14 c32 -32 44 -132 29 -240 l-6 -47 -36 6 c-20 4 -59 9 -86
13 -43 4 -54 11 -78 42 -14 20 -40 52 -57 73 l-30 36 47 35 c62 44 134 84 164
90 13 2 27 5 31 6 4 0 13 -6 22 -14z m53 -47 c-3 -8 -6 -5 -6 6 -1 11 2 17 5
13 3 -3 4 -12 1 -19z m10 -151 c-2 -23 -3 -1 -3 48 0 50 1 68 3 42 2 -26 2
-67 0 -90z m-345 101 l-22 -22 28 -31 27 -30 -32 29 -33 30 22 23 c12 13 24
23 27 23 3 0 -4 -10 -17 -22z m108 -182 c0 -5 -1 -7 -3 -5 -1 2 -20 27 -41 54
l-38 50 41 -45 c23 -25 41 -49 41 -54z m227 -3 c-3 -10 -5 -4 -5 12 0 17 2 24
5 18 2 -7 2 -21 0 -30z m-154 -10 c-7 -2 -19 -2 -25 0 -7 3 -2 5 12 5 14 0 19
-2 13 -5z m142 -31 c-3 -3 -11 0 -18 7 -9 10 -8 11 6 5 10 -3 15 -9 12 -12z"/>
<path d="M426 1597 c-5 -15 -6 -31 -2 -34 11 -11 18 5 14 34 l-4 28 -8 -28z"/>
<path d="M456 1582 c-4 -13 -5 -26 -2 -29 10 -11 18 4 14 29 l-4 23 -8 -23z"/>
<path d="M1480 1565 c0 -8 5 -15 10 -15 6 0 10 7 10 15 0 8 -4 15 -10 15 -5 0
-10 -7 -10 -15z"/>
<path d="M1450 1550 c0 -11 5 -20 10 -20 6 0 10 9 10 20 0 11 -4 20 -10 20 -5
0 -10 -9 -10 -20z"/>
<path d="M410 1490 c0 -11 5 -20 10 -20 6 0 10 9 10 20 0 11 -4 20 -10 20 -5
0 -10 -9 -10 -20z"/>
<path d="M912 1400 l-43 -50 86 0 c48 0 85 4 83 9 -3 9 -76 91 -80 91 -2 0
-22 -23 -46 -50z m108 -33 c-3 -2 -20 15 -39 37 l-35 41 39 -37 c22 -21 37
-39 35 -41z m-88 30 c-12 -13 -20 -26 -17 -29 3 -2 -2 -5 -10 -5 -11 0 -8 8
12 29 15 15 29 28 32 28 2 0 -5 -10 -17 -23z"/>
<path d="M1450 1425 c0 -14 5 -25 10 -25 6 0 10 11 10 25 0 14 -4 25 -10 25
-5 0 -10 -11 -10 -25z"/>
<path d="M450 1410 c0 -11 5 -20 10 -20 6 0 10 9 10 20 0 11 -4 20 -10 20 -5
0 -10 -9 -10 -20z"/>
<path d="M1480 1410 c0 -11 5 -20 10 -20 6 0 10 9 10 20 0 11 -4 20 -10 20 -5
0 -10 -9 -10 -20z"/>
<path d="M420 1395 c0 -8 5 -15 10 -15 6 0 10 7 10 15 0 8 -4 15 -10 15 -5 0
-10 -7 -10 -15z"/>
<path d="M460 1343 c0 -5 5 -15 10 -23 8 -12 10 -11 10 8 0 12 -4 22 -10 22
-5 0 -10 -3 -10 -7z"/>
<path d="M1440 1328 c0 -19 2 -20 10 -8 13 19 13 30 0 30 -5 0 -10 -10 -10
-22z"/>
<path d="M1470 1330 c0 -5 5 -10 10 -10 6 0 10 5 10 10 0 6 -4 10 -10 10 -5 0
-10 -4 -10 -10z"/>
<path d="M690 1300 c0 -5 7 -10 15 -10 8 0 15 5 15 10 0 6 -7 10 -15 10 -8 0
-15 -4 -15 -10z"/>
<path d="M1200 1300 c0 -5 7 -10 15 -10 8 0 15 5 15 10 0 6 -7 10 -15 10 -8 0
-15 -4 -15 -10z"/>
<path d="M595 1287 c-16 -13 -15 -14 14 -9 17 2 34 8 37 13 8 14 -30 10 -51
-4z"/>
<path d="M1274 1291 c7 -11 66 -20 66 -10 0 7 -35 19 -58 19 -7 0 -11 -4 -8
-9z"/>
<path d="M810 1280 c0 -5 20 -10 44 -10 25 0 48 5 51 10 4 6 -13 10 -44 10
-28 0 -51 -4 -51 -10z"/>
<path d="M1015 1280 c3 -5 26 -10 51 -10 24 0 44 5 44 10 0 6 -23 10 -51 10
-31 0 -48 -4 -44 -10z"/>
<path d="M650 1260 c-13 -8 -12 -10 3 -10 9 0 17 5 17 10 0 12 -1 12 -20 0z"/>
<path d="M1250 1258 c0 -4 7 -8 15 -8 8 0 15 4 15 8 0 5 -7 9 -15 9 -8 0 -15
-4 -15 -9z"/>
<path d="M798 1240 c-18 -11 -97 -137 -142 -227 -31 -63 -32 -62 65 -225 l70
-118 168 0 169 0 45 73 c25 39 61 105 81 145 l37 73 -51 97 c-28 53 -67 118
-86 145 l-34 47 -153 0 c-83 0 -160 -5 -169 -10z m110 -7 c-10 -2 -26 -2 -35
0 -10 3 -2 5 17 5 19 0 27 -2 18 -5z m150 0 c-10 -2 -26 -2 -35 0 -10 3 -2 5
17 5 19 0 27 -2 18 -5z m-268 -23 c-6 -11 -13 -20 -16 -20 -2 0 0 9 6 20 6 11
13 20 16 20 2 0 0 -9 -6 -20z m388 -62 c53 -89 102 -182 102 -195 0 -4 -22 33
-48 82 -27 50 -60 108 -73 130 -38 60 -41 65 -35 65 2 0 27 -37 54 -82z m-30
-20 c27 -46 60 -103 72 -127 l22 -44 -38 -71 c-20 -39 -52 -95 -70 -123 -32
-50 -36 -53 -74 -53 -22 0 -40 -4 -40 -10 0 -5 -25 -10 -55 -10 -30 0 -55 5
-55 10 0 6 -20 10 -44 10 -43 0 -45 1 -84 63 -22 34 -55 90 -72 123 l-32 61
22 44 c12 24 45 81 72 127 l49 82 139 0 139 0 49 -82z m-399 15 c-12 -21 -27
-42 -32 -48 -11 -11 9 29 31 63 24 37 25 25 1 -15z m-71 -128 c-18 -35 -34
-63 -36 -61 -4 5 56 126 63 126 3 0 -10 -29 -27 -65z m-10 -100 c-3 -3 -9 2
-12 12 -6 14 -5 15 5 6 7 -7 10 -15 7 -18z m595 10 c-3 -9 -8 -14 -10 -11 -3
3 -2 9 2 15 9 16 15 13 8 -4z m-553 -85 c11 -22 18 -40 15 -40 -2 0 -14 18
-25 40 -11 22 -18 40 -15 40 2 0 14 -18 25 -40z m510 0 c-11 -22 -23 -40 -25
-40 -3 0 4 18 15 40 11 22 23 40 25 40 3 0 -4 -18 -15 -40z m-450 -99 c22 -35
39 -51 58 -54 l27 -4 -27 -2 c-21 -1 -33 8 -56 42 -37 54 -44 67 -39 67 3 0
19 -22 37 -49z m410 29 c-6 -11 -13 -20 -16 -20 -2 0 0 9 6 20 6 11 13 20 16
20 2 0 0 -9 -6 -20z m-47 -75 c-3 -9 -8 -14 -10 -11 -3 3 -2 9 2 15 9 16 15
13 8 -4z m-26 -11 c-3 -3 -12 -4 -19 -1 -8 3 -5 6 6 6 11 1 17 -2 13 -5z"/>
<path d="M896 1170 c-39 -12 -96 -52 -96 -67 0 -7 -5 -13 -11 -13 -5 0 -19
-21 -31 -47 -42 -94 -8 -204 81 -266 42 -29 53 -32 122 -32 66 0 81 4 117 28
142 93 130 306 -21 382 -38 19 -123 27 -161 15z m129 -41 c-4 -5 -4 -9 -1 -9
2 0 12 -3 22 -7 13 -5 15 -3 9 8 -8 12 -6 12 8 0 10 -8 15 -16 12 -19 -7 -7
16 -33 25 -27 4 3 14 -3 21 -12 10 -12 10 -14 2 -9 -17 9 -16 6 3 -40 12 -27
14 -50 8 -83 -4 -25 -9 -54 -10 -64 -1 -11 -14 -31 -30 -45 -15 -15 -22 -19
-15 -9 8 10 9 17 3 17 -11 0 -27 -19 -27 -32 0 -3 -4 -10 -9 -15 -6 -5 -6 -2
-1 6 6 11 4 13 -11 7 -30 -12 -124 -23 -118 -14 3 4 -2 8 -11 8 -10 0 -13 -5
-9 -12 4 -7 3 -8 -5 -4 -6 4 -8 12 -5 18 5 7 1 9 -9 5 -9 -3 -19 -1 -23 5 -5
7 -2 8 6 3 9 -6 11 -4 6 4 -5 7 -14 10 -21 7 -13 -5 -35 15 -50 44 -4 8 5 2
19 -15 l27 -30 -25 40 c-34 55 -42 111 -22 159 19 46 20 49 4 40 -8 -4 -10 -3
-5 2 5 5 10 7 12 4 1 -3 12 3 24 14 11 10 18 22 16 26 -3 4 3 14 12 21 14 12
16 12 8 0 -6 -11 -4 -13 11 -7 48 20 81 26 113 20 26 -5 32 -4 26 6 -5 9 -4
11 4 6 6 -4 9 -12 6 -17z m-258 -186 c-3 -10 -5 -2 -5 17 0 19 2 27 5 18 2
-10 2 -26 0 -35z m390 0 c-3 -10 -5 -2 -5 17 0 19 2 27 5 18 2 -10 2 -26 0
-35z m-374 -43 c3 -11 1 -18 -4 -14 -5 3 -9 12 -9 20 0 20 7 17 13 -6z m359
-12 c-8 -8 -9 -4 -5 13 4 13 8 18 11 10 2 -7 -1 -18 -6 -23z"/>
<path d="M910 1100 c-12 -8 -11 -10 8 -10 12 0 22 5 22 10 0 13 -11 13 -30 0z"/>
<path d="M980 1100 c0 -5 10 -10 23 -10 18 0 19 2 7 10 -19 13 -30 13 -30 0z"/>
<path d="M1090 905 c0 -8 2 -15 4 -15 2 0 6 7 10 15 3 8 1 15 -4 15 -6 0 -10
-7 -10 -15z"/>
<path d="M1100 855 c-7 -9 -10 -18 -7 -21 3 -3 10 4 17 15 13 25 8 27 -10 6z"/>
<path d="M592 1217 c-52 -10 -54 -11 -48 -38 3 -15 13 -45 21 -66 l17 -38 19
38 c11 21 17 43 13 49 -4 6 -3 8 3 5 6 -4 20 9 32 28 22 38 24 38 -57 22z m48
-17 c-6 -11 -13 -20 -16 -20 -2 0 0 9 6 20 6 11 13 20 16 20 2 0 0 -9 -6 -20z
m-68 -8 c-9 -7 -10 -16 -1 -41 10 -29 12 -31 25 -14 13 16 13 14 2 -11 l-13
-29 -17 39 c-22 50 -22 64 0 64 12 0 13 -3 4 -8z"/>
<path d="M1271 1196 c11 -20 26 -33 32 -29 6 3 7 1 3 -5 -4 -6 2 -28 13 -49
l19 -38 17 40 c9 22 19 52 22 66 5 24 2 27 -34 33 -21 4 -50 9 -66 12 l-27 6
21 -36z m19 4 c6 -11 8 -20 6 -20 -3 0 -10 9 -16 20 -6 11 -8 20 -6 20 3 0 10
-9 16 -20z m80 -10 c0 -5 -2 -10 -4 -10 -3 0 -8 5 -11 10 -3 6 -1 10 4 10 6 0
11 -4 11 -10z m-30 -60 c0 7 3 11 6 7 3 -3 2 -13 -3 -22 -8 -13 -11 -12 -21
12 -11 26 -11 27 3 9 10 -13 15 -15 15 -6z"/>
<path d="M355 1146 c-46 -19 -79 -38 -77 -45 1 -7 -2 -10 -8 -6 -12 8 -52 -13
-45 -24 2 -5 -3 -15 -13 -22 -15 -13 -16 -12 -3 4 22 28 -3 20 -31 -10 -63
-68 -63 -101 1 -164 43 -44 83 -67 65 -37 -4 7 -3 8 5 4 6 -4 9 -11 6 -16 -3
-5 8 -16 24 -25 36 -18 45 -19 35 -3 -4 7 -3 8 5 4 6 -4 9 -11 6 -16 -3 -4 2
-11 11 -14 24 -9 36 -7 28 6 -4 7 -3 8 5 4 6 -4 9 -11 6 -16 -3 -4 9 -13 27
-19 41 -14 48 -14 48 4 0 8 16 57 36 109 l36 94 -36 95 c-20 53 -36 101 -36
106 0 21 -19 18 -95 -13z m82 2 c-3 -8 -6 -5 -6 6 -1 11 2 17 5 13 3 -3 4 -12
1 -19z m-5 -75 c9 -27 22 -62 29 -80 11 -28 11 -40 -6 -85 -39 -109 -44 -119
-63 -109 -9 5 -30 15 -47 22 -55 25 -133 78 -154 105 -18 23 -19 29 -7 53 16
31 83 80 146 108 47 21 71 31 81 32 3 1 12 -20 21 -46z m42 -23 c5 -17 4 -20
-2 -10 -5 8 -13 26 -16 40 -5 17 -4 20 2 10 5 -8 13 -26 16 -40z m-294 -25
c-7 -8 -18 -32 -26 -52 -8 -23 -13 -30 -14 -18 0 21 35 85 46 85 4 0 1 -7 -6
-15z m324 -86 c-8 -17 -9 -13 -9 21 0 34 1 38 9 21 5 -13 5 -29 0 -42z m-314
-54 c13 -14 21 -25 18 -25 -2 0 -15 11 -28 25 -13 14 -21 25 -18 25 2 0 15
-11 28 -25z m291 -2 c-12 -20 -14 -14 -5 12 4 9 9 14 11 11 3 -2 0 -13 -6 -23z
m-35 -99 c-8 -21 -15 -34 -15 -28 -1 15 20 76 25 71 2 -2 -2 -21 -10 -43z"/>
<path d="M1470 1165 c0 -9 -16 -59 -36 -111 l-36 -96 38 -102 c21 -55 41 -105
44 -109 9 -10 142 42 135 53 -3 5 0 12 6 16 8 4 9 3 5 -4 -10 -16 -1 -15 35 3
16 9 27 20 24 25 -3 5 0 12 6 16 8 4 9 3 5 -4 -17 -28 15 -8 53 33 52 57 54
87 5 143 -32 38 -66 59 -48 30 4 -7 3 -8 -5 -4 -6 4 -9 11 -6 16 8 12 -33 33
-47 24 -7 -4 -8 -3 -4 4 8 14 -30 35 -50 28 -8 -3 -13 -2 -9 3 3 5 -20 19 -50
30 -67 25 -65 25 -65 6z m17 -17 c-3 -8 -6 -5 -6 6 -1 11 2 17 5 13 3 -3 4
-12 1 -19z m-16 -45 c-12 -20 -14 -14 -5 12 4 9 9 14 11 11 3 -2 0 -13 -6 -23z
m107 -8 c78 -36 140 -82 158 -116 16 -31 15 -31 -28 -73 -42 -40 -161 -106
-190 -106 -13 0 -68 130 -68 160 0 25 55 160 65 160 5 0 34 -11 63 -25z m-137
-72 c-12 -20 -14 -14 -5 12 4 9 9 14 11 11 3 -2 0 -13 -6 -23z m325 -24 c8
-16 14 -36 14 -46 -1 -10 -7 -1 -14 20 -8 21 -22 48 -33 60 -17 20 -17 21 0 8
10 -8 25 -27 33 -42z m-341 -39 c0 -27 -2 -35 -8 -24 -7 13 -2 64 6 64 1 0 2
-18 2 -40z m315 -73 l-34 -32 30 36 c16 20 31 34 33 32 3 -2 -10 -18 -29 -36z
m-290 -12 c0 -5 -5 -3 -10 5 -5 8 -10 20 -10 25 0 6 5 3 10 -5 5 -8 10 -19 10
-25z m30 -80 c0 -5 -5 -3 -10 5 -5 8 -10 20 -10 25 0 6 5 3 10 -5 5 -8 10 -19
10 -25z m7 -37 c-3 -8 -6 -5 -6 6 -1 11 2 17 5 13 3 -3 4 -12 1 -19z"/>
<path d="M1422 1123 c-15 -48 -8 -55 8 -8 7 20 10 38 8 41 -3 2 -10 -13 -16
-33z"/>
<path d="M500 1085 c0 -5 5 -17 10 -25 5 -8 10 -10 10 -5 0 6 -5 17 -10 25 -5
8 -10 11 -10 5z"/>
<path d="M67 1003 c-11 -10 -8 -81 3 -88 6 -4 10 13 10 44 0 52 -1 56 -13 44z"/>
<path d="M1840 996 c0 -9 5 -16 10 -16 6 0 10 4 10 9 0 6 -4 13 -10 16 -5 3
-10 -1 -10 -9z"/>
<path d="M96 974 c-3 -9 -2 -23 4 -32 7 -14 9 -10 10 16 0 35 -5 41 -14 16z"/>
<path d="M1811 961 c-1 -27 2 -32 11 -23 8 8 8 17 0 34 -10 22 -11 21 -11 -11z"/>
<path d="M1312 960 c0 -14 2 -19 5 -12 2 6 2 18 0 25 -3 6 -5 1 -5 -13z"/>
<path d="M601 954 c0 -11 3 -14 6 -6 3 7 2 16 -1 19 -3 4 -6 -2 -5 -13z"/>
<path d="M1840 924 c0 -8 5 -12 10 -9 6 3 10 10 10 16 0 5 -4 9 -10 9 -5 0
-10 -7 -10 -16z"/>
<path d="M1411 835 c1 -19 18 -51 18 -35 0 8 -4 22 -9 30 -5 8 -9 11 -9 5z"/>
<path d="M556 774 c-10 -31 -16 -58 -14 -60 4 -4 103 -24 119 -24 4 0 -8 25
-26 56 -18 30 -37 54 -42 53 -4 -1 -14 -13 -20 -28 -13 -26 -13 -26 -7 -1 4
14 10 29 15 35 11 11 12 25 1 25 -5 0 -16 -25 -26 -56z m54 -4 c6 -11 8 -20 6
-20 -3 0 -10 9 -16 20 -6 11 -8 20 -6 20 3 0 10 -9 16 -20z m-45 -40 c3 -5 1
-10 -4 -10 -6 0 -11 5 -11 10 0 6 2 10 4 10 3 0 8 -4 11 -10z m75 -10 c6 -11
7 -20 2 -20 -6 0 -12 9 -15 20 -3 11 -3 20 -1 20 2 0 8 -9 14 -20z"/>
<path d="M1309 788 c-12 -24 -30 -55 -41 -70 -23 -33 -19 -34 64 -17 l56 11
-21 59 c-11 33 -24 59 -29 59 -4 0 -17 -19 -29 -42z m41 -3 c0 -5 -5 -3 -10 5
-5 8 -10 20 -10 25 0 6 5 3 10 -5 5 -8 10 -19 10 -25z m-30 -15 c-6 -11 -13
-20 -16 -20 -2 0 0 9 6 20 6 11 13 20 16 20 2 0 0 -9 -6 -20z m-27 -50 c-3
-11 -9 -20 -15 -20 -5 0 -4 9 2 20 6 11 12 20 14 20 2 0 2 -9 -1 -20z m77 10
c0 -5 -5 -10 -11 -10 -5 0 -7 5 -4 10 3 6 8 10 11 10 2 0 4 -4 4 -10z"/>
<path d="M1530 690 c-8 -5 -10 -10 -5 -10 6 0 17 5 25 10 8 5 11 10 5 10 -5 0
-17 -5 -25 -10z"/>
<path d="M635 660 c3 -5 10 -10 16 -10 5 0 9 5 9 10 0 6 -7 10 -16 10 -8 0
-12 -4 -9 -10z"/>
<path d="M1260 660 c0 -5 4 -10 9 -10 6 0 13 5 16 10 3 6 -1 10 -9 10 -9 0
-16 -4 -16 -10z"/>
<path d="M540 641 c24 -13 90 -23 90 -13 0 9 -56 22 -90 22 -13 -1 -13 -2 0
-9z"/>
<path d="M800 640 c0 -5 7 -10 15 -10 8 0 15 5 15 10 0 6 -7 10 -15 10 -8 0
-15 -4 -15 -10z"/>
<path d="M1090 640 c0 -5 7 -10 15 -10 8 0 15 5 15 10 0 6 -7 10 -15 10 -8 0
-15 -4 -15 -10z"/>
<path d="M1280 628 c0 -11 32 -10 50 2 11 8 7 10 -17 8 -18 -1 -33 -6 -33 -10z"/>
<path d="M675 620 c3 -5 10 -10 16 -10 5 0 9 5 9 10 0 6 -7 10 -16 10 -8 0
-12 -4 -9 -10z"/>
<path d="M1220 620 c0 -5 7 -10 15 -10 8 0 15 5 15 10 0 6 -7 10 -15 10 -8 0
-15 -4 -15 -10z"/>
<path d="M506 598 c-14 -47 -18 -233 -7 -274 16 -61 46 -94 84 -94 44 0 78 10
71 21 -3 5 2 6 10 3 18 -7 79 24 71 36 -3 6 0 7 8 4 7 -2 25 5 38 16 13 12 18
18 10 14 -9 -4 -12 -3 -7 4 4 6 12 9 19 7 7 -3 30 10 51 29 l40 33 -74 89
c-41 49 -74 90 -75 91 0 1 -45 9 -100 18 -55 8 -107 18 -116 21 -11 3 -19 -3
-23 -18z m11 -65 c-3 -10 -5 -4 -5 12 0 17 2 24 5 18 2 -7 2 -21 0 -30z m134
17 c65 -12 67 -13 122 -80 l56 -69 -36 -30 c-55 -46 -147 -91 -189 -94 -32 -2
-40 2 -51 24 -20 41 -26 109 -18 193 6 71 8 76 28 72 12 -3 52 -10 88 -16z
m124 -27 c21 -27 53 -64 72 -83 l33 -36 -37 -34 -38 -35 32 34 31 34 -51 60
c-29 33 -62 71 -74 84 -12 13 -18 23 -14 23 5 0 26 -21 46 -47z m-268 -135
c-2 -24 -4 -5 -4 42 0 47 2 66 4 43 2 -24 2 -62 0 -85z m10 -70 c-3 -8 -6 -5
-6 6 -1 11 2 17 5 13 3 -3 4 -12 1 -19z"/>
<path d="M1285 598 c-87 -15 -112 -24 -124 -41 -8 -12 -42 -52 -74 -90 l-59
-69 33 -28 c36 -31 55 -39 43 -17 -5 8 -2 8 9 -2 20 -16 23 -26 5 -15 -9 5 -9
2 1 -9 15 -19 36 -23 25 -5 -4 7 -3 8 5 4 6 -4 9 -11 6 -16 -3 -5 8 -16 24
-25 36 -18 45 -19 35 -3 -4 7 -3 8 5 4 6 -4 9 -11 6 -16 -6 -9 78 -40 110 -40
36 0 71 36 85 85 19 67 4 309 -19 304 -3 -1 -55 -10 -116 -21z m133 -168 c1
-126 -5 -104 -10 40 -3 63 -1 102 3 85 3 -16 7 -73 7 -125z m-220 133 c-9 -2
-35 -28 -57 -56 -22 -29 -52 -63 -66 -77 l-25 -24 22 -25 23 -26 -28 24 -27
25 33 35 c19 20 51 57 72 84 20 26 45 46 54 46 14 -1 14 -2 -1 -6z m187 -59
c10 -87 1 -178 -20 -210 -14 -21 -21 -24 -48 -19 -49 11 -96 34 -164 82 l-63
44 51 62 c28 34 55 66 59 70 6 7 76 21 172 36 3 1 10 -29 13 -65z m22 -196
c-3 -8 -6 -5 -6 6 -1 11 2 17 5 13 3 -3 4 -12 1 -19z m-21 -46 c-17 -16 -18
-16 -5 5 7 12 15 20 18 17 3 -2 -3 -12 -13 -22z"/>
<path d="M468 590 c-7 -24 -3 -38 8 -28 3 4 4 17 2 30 l-3 23 -7 -25z"/>
<path d="M880 600 c0 -6 33 -10 80 -10 47 0 80 4 80 10 0 6 -33 10 -80 10 -47
0 -80 -4 -80 -10z"/>
<path d="M911 520 c23 -27 46 -50 50 -50 4 0 26 23 49 50 l42 50 -92 0 -91 0
42 -50z m5 32 c-6 -11 48 -64 57 -57 4 3 3 0 -3 -7 -5 -6 -11 -10 -12 -7 -2 2
-19 21 -37 42 -27 29 -31 37 -17 37 9 0 15 -4 12 -8z m114 5 c0 -2 -12 -14
-27 -28 l-26 -24 19 27 c16 23 34 36 34 25z"/>
<path d="M1480 535 c0 -14 5 -25 10 -25 6 0 10 11 10 25 0 14 -4 25 -10 25 -5
0 -10 -11 -10 -25z"/>
<path d="M420 505 c0 -14 5 -25 10 -25 6 0 10 11 10 25 0 14 -4 25 -10 25 -5
0 -10 -11 -10 -25z"/>
<path d="M1450 510 c0 -11 5 -20 10 -20 6 0 10 9 10 20 0 11 -4 20 -10 20 -5
0 -10 -9 -10 -20z"/>
<path d="M450 490 c0 -16 5 -30 10 -30 6 0 10 14 10 30 0 17 -4 30 -10 30 -5
0 -10 -13 -10 -30z"/>
<path d="M1490 425 c0 -19 5 -35 10 -35 6 0 10 16 10 35 0 19 -4 35 -10 35 -5
0 -10 -16 -10 -35z"/>
<path d="M450 370 c0 -11 5 -20 10 -20 6 0 10 9 10 20 0 11 -4 20 -10 20 -5 0
-10 -9 -10 -20z"/>
<path d="M420 355 c0 -14 5 -25 10 -25 6 0 10 11 10 25 0 14 -4 25 -10 25 -5
0 -10 -11 -10 -25z"/>
<path d="M1450 343 c0 -22 2 -25 10 -13 13 20 13 40 0 40 -5 0 -10 -12 -10
-27z"/>
<path d="M1480 330 c0 -5 5 -10 10 -10 6 0 10 5 10 10 0 6 -4 10 -10 10 -5 0
-10 -4 -10 -10z"/>
<path d="M441 280 c0 -8 4 -22 9 -30 12 -18 12 -2 0 25 -6 13 -9 15 -9 5z"/>
<path d="M600 211 c-38 -4 -49 -8 -37 -13 26 -11 47 -9 82 7 17 7 26 13 20 13
-5 -1 -35 -4 -65 -7z"/>
<path d="M1295 200 c28 -12 63 -12 70 0 4 6 -12 10 -42 9 -36 0 -43 -3 -28 -9z"/>
<path d="M535 170 c3 -5 10 -10 16 -10 5 0 9 5 9 10 0 6 -7 10 -16 10 -8 0
-12 -4 -9 -10z"/>
<path d="M610 170 c0 -12 8 -12 35 0 18 8 17 9 -7 9 -16 1 -28 -3 -28 -9z"/>
<path d="M1280 170 c20 -13 97 -13 105 0 4 6 -17 10 -57 10 -44 0 -59 -3 -48
-10z"/>
</g>
</svg>
