<?xml version="1.0" standalone="no"?>
<!DOCTYPE svg PUBLIC "-//W3C//DTD SVG 20010904//EN"
 "http://www.w3.org/TR/2001/REC-SVG-20010904/DTD/svg10.dtd">
<svg version="1.0" xmlns="http://www.w3.org/2000/svg"
 width="100.000000pt" height="100.000000pt" viewBox="0 0 100.000000 100.000000"
 preserveAspectRatio="xMidYMid meet">
<metadata>
Created by potrace 1.16, written by Peter Selinger 2001-2019
</metadata>
<g transform="translate(0.000000,100.000000) scale(0.100000,-0.100000)"
fill="#000000" stroke="none">
<path d="M420 980 c0 -16 -7 -20 -35 -20 -33 0 -35 -2 -35 -35 0 -32 -2 -35
-30 -35 -27 0 -30 -3 -30 -30 0 -26 -4 -30 -27 -31 -34 -1 -79 -17 -50 -18 25
-1 23 -41 -2 -41 -11 0 -22 8 -24 18 -4 14 -5 15 -6 1 0 -9 -12 -20 -26 -23
-14 -4 -31 -18 -37 -31 -7 -15 -20 -25 -33 -25 -26 0 -45 -18 -45 -42 0 -11
-7 -18 -20 -18 -11 0 -20 -4 -20 -10 0 -5 9 -10 20 -10 15 0 20 -7 20 -25 0
-18 -5 -25 -20 -25 -11 0 -20 -4 -20 -10 0 -5 13 -10 30 -10 28 0 30 3 30 35
0 33 2 35 35 35 32 0 35 2 35 30 0 27 3 30 30 30 27 0 30 3 30 30 0 27 3 30
30 30 27 0 30 3 30 30 0 27 3 30 30 30 27 0 30 3 30 30 0 27 3 30 30 30 28 0
30 3 30 35 l0 35 65 0 65 0 0 30 c0 17 -4 30 -10 30 -5 0 -10 -9 -10 -19 0
-10 -7 -22 -16 -25 -23 -9 -24 -8 -24 19 0 14 -4 25 -10 25 -5 0 -10 -9 -10
-20z m-250 -250 c0 -13 -7 -20 -20 -20 -13 0 -20 7 -20 20 0 13 7 20 20 20 13
0 20 -7 20 -20z m-60 -60 c0 -15 -7 -20 -25 -20 -18 0 -25 5 -25 20 0 15 7 20
25 20 18 0 25 -5 25 -20z"/>
<path d="M940 905 c0 -33 -2 -35 -35 -35 -32 0 -35 -2 -35 -30 0 -27 -3 -30
-30 -30 -27 0 -30 -3 -30 -30 0 -27 -3 -30 -30 -30 -27 0 -30 -3 -30 -30 0
-27 -3 -30 -30 -30 -27 0 -30 -3 -30 -30 0 -28 -3 -30 -35 -30 -33 0 -35 -2
-35 -35 0 -32 -2 -35 -30 -35 -27 0 -30 -3 -30 -30 0 -27 -3 -30 -30 -30 -27
0 -30 -3 -30 -30 0 -27 -3 -30 -30 -30 -27 0 -30 -3 -30 -30 0 -28 -3 -30 -35
-30 -33 0 -35 -2 -35 -35 0 -32 -2 -35 -30 -35 -27 0 -30 -3 -30 -30 l0 -30
-60 0 -60 0 0 -30 c0 -27 -3 -30 -30 -30 -27 0 -30 -3 -30 -30 0 -28 -3 -30
-35 -30 -33 0 -35 -2 -35 -35 l0 -35 470 0 c307 0 470 3 470 10 0 7 -160 10
-460 10 -402 0 -460 2 -460 15 0 10 11 15 35 15 32 0 35 2 35 30 0 27 3 30 30
30 27 0 30 3 30 30 l0 30 60 0 60 0 0 30 c0 27 3 30 30 30 28 0 30 3 30 35 0
33 2 35 35 35 32 0 35 2 35 30 0 27 3 30 30 30 27 0 30 3 30 30 0 27 3 30 30
30 27 0 30 3 30 30 0 27 3 30 30 30 28 0 30 3 30 35 0 33 2 35 35 35 32 0 35
2 35 30 0 27 3 30 30 30 27 0 30 3 30 30 0 27 3 30 30 30 27 0 30 3 30 30 0
27 3 30 30 30 27 0 30 3 30 30 0 28 3 30 35 30 33 0 35 2 35 35 0 28 4 35 20
35 11 0 20 5 20 10 0 6 -13 10 -30 10 -28 0 -30 -3 -30 -35z"/>
<path d="M425 913 c-4 -11 -17 -24 -28 -28 -20 -7 -20 -8 6 -12 36 -6 40 -2
34 34 -4 26 -5 26 -12 6z"/>
<path d="M341 835 l-23 -25 26 0 c21 0 26 5 26 25 0 30 1 30 -29 0z"/>
<path d="M276 769 c-19 -19 -19 -19 7 -19 20 0 27 5 27 20 0 25 -9 25 -34 -1z"/>
<path d="M223 715 c-18 -20 -16 -25 7 -25 13 0 20 7 20 20 0 23 -10 25 -27 5z"/>
<path d="M163 655 c-18 -20 -16 -25 7 -25 13 0 20 7 20 20 0 23 -10 25 -27 5z"/>
<path d="M110 595 c0 -8 -7 -15 -15 -15 -8 0 -15 -4 -15 -10 0 -5 11 -10 25
-10 20 0 25 5 25 25 0 14 -4 25 -10 25 -5 0 -10 -7 -10 -15z"/>
<path d="M40 530 c0 -5 -9 -10 -20 -10 -11 0 -20 -4 -20 -10 0 -5 13 -10 30
-10 23 0 30 4 30 20 0 11 -4 20 -10 20 -5 0 -10 -4 -10 -10z"/>
<path d="M0 70 c0 -5 12 -10 26 -10 14 0 23 4 19 10 -3 6 -15 10 -26 10 -10 0
-19 -4 -19 -10z"/>
</g>
</svg>
