<?xml version="1.0" standalone="no"?>
<!DOCTYPE svg PUBLIC "-//W3C//DTD SVG 20010904//EN"
 "http://www.w3.org/TR/2001/REC-SVG-20010904/DTD/svg10.dtd">
<svg version="1.0" xmlns="http://www.w3.org/2000/svg"
 width="100.000000pt" height="100.000000pt" viewBox="0 0 100.000000 100.000000"
 preserveAspectRatio="xMidYMid meet">
<metadata>
Created by potrace 1.16, written by Peter Selinger 2001-2019
</metadata>
<g transform="translate(0.000000,100.000000) scale(0.100000,-0.100000)"
fill="#000000" stroke="none">
<path d="M350 845 c0 -10 -10 -15 -30 -15 -20 0 -30 -5 -30 -15 0 -10 -10 -15
-30 -15 -20 0 -30 -5 -30 -15 0 -8 -7 -15 -15 -15 -8 0 -15 -7 -15 -15 0 -8
-7 -15 -15 -15 -8 0 -15 -7 -15 -15 0 -8 -7 -15 -15 -15 -8 0 -15 -7 -15 -15
0 -8 -7 -15 -15 -15 -8 0 -15 -7 -15 -15 0 -8 -9 -15 -20 -15 -13 0 -20 -7
-20 -20 0 -11 -7 -20 -15 -20 -8 0 -15 -7 -15 -15 0 -8 -7 -15 -15 -15 -8 0
-15 -4 -15 -9 0 -5 -3 -16 -6 -25 -4 -11 -1 -16 10 -16 11 0 16 -9 16 -30 0
-21 -5 -30 -16 -30 -11 0 -14 -5 -10 -16 3 -9 6 -20 6 -25 0 -5 7 -9 15 -9 10
0 15 -10 15 -30 0 -20 -5 -30 -15 -30 -12 0 -15 -14 -15 -65 l0 -65 30 0 c20
0 30 -5 30 -15 0 -11 12 -15 50 -15 38 0 50 -4 50 -15 0 -12 13 -15 60 -15 47
0 60 -3 60 -15 0 -13 26 -15 175 -15 149 0 175 2 175 15 0 10 11 15 35 15 24
0 35 5 35 15 0 10 10 15 30 15 20 0 30 5 30 15 0 8 7 15 15 15 8 0 15 7 15 15
0 8 7 15 15 15 8 0 15 7 15 15 0 8 7 15 15 15 8 0 15 7 15 15 0 8 7 15 15 15
8 0 15 9 15 20 0 13 7 20 20 20 11 0 20 7 20 15 0 8 7 15 15 15 8 0 15 7 15
15 0 8 7 15 15 15 8 0 15 4 15 9 0 5 3 16 6 25 4 11 1 16 -10 16 -11 0 -16 9
-16 30 0 21 5 30 16 30 11 0 14 5 10 16 -3 9 -6 20 -6 25 0 5 -7 9 -15 9 -10
0 -15 10 -15 30 0 20 5 30 15 30 12 0 15 14 15 65 l0 65 -30 0 c-20 0 -30 5
-30 15 0 11 -12 15 -50 15 -38 0 -50 4 -50 15 0 11 -12 15 -45 15 -33 0 -45 4
-45 15 0 13 -28 15 -195 15 -167 0 -195 -2 -195 -15z m370 -20 c0 -11 12 -15
45 -15 33 0 45 -4 45 -15 0 -11 12 -15 50 -15 38 0 50 -4 50 -15 0 -10 10 -15
30 -15 29 0 30 -2 30 -45 0 -33 -4 -45 -15 -45 -11 0 -15 -12 -15 -50 0 -38 4
-50 15 -50 8 0 15 -7 15 -15 0 -10 -10 -15 -30 -15 -20 0 -30 5 -30 15 0 8 -9
15 -20 15 -11 0 -20 7 -20 15 0 8 -7 15 -15 15 -11 0 -15 -12 -15 -45 0 -33 4
-45 15 -45 9 0 12 6 9 15 -7 18 17 20 34 3 17 -17 15 -38 -5 -45 -36 -14 -69
-63 -42 -63 5 0 8 -4 4 -10 -3 -5 -12 -7 -20 -4 -8 4 -13 10 -10 14 3 5 0 12
-6 16 -9 5 -11 -5 -6 -37 3 -24 3 -36 0 -27 -2 10 -11 18 -19 18 -17 0 -19
-36 -1 -44 6 -3 0 -4 -15 -1 -28 5 -38 -8 -17 -20 6 -4 8 -13 5 -21 -3 -8 -1
-14 4 -14 6 0 10 -7 10 -15 0 -8 -7 -15 -15 -15 -8 0 -15 -7 -15 -15 0 -16
-28 -19 -67 -9 -33 9 -28 24 7 24 20 0 30 5 30 15 0 8 7 15 15 15 8 0 15 7 15
15 0 10 -10 15 -30 15 -20 0 -30 5 -30 15 0 12 -14 15 -65 15 -36 0 -65 4 -65
9 0 5 23 9 50 8 34 -1 50 2 50 11 0 8 -20 12 -65 12 -51 0 -65 3 -65 15 0 8
-7 15 -15 15 -8 0 -15 7 -15 15 0 8 -7 15 -15 15 -8 0 -15 -7 -15 -15 0 -8 -7
-15 -15 -15 -8 0 -15 -7 -15 -15 0 -13 -21 -15 -125 -15 -118 0 -125 -1 -125
-20 0 -16 -7 -20 -30 -20 -23 0 -30 4 -30 20 0 11 5 20 11 20 5 0 7 5 3 12 -6
9 -9 9 -12 0 -2 -7 -14 -12 -26 -12 -19 0 -21 -4 -18 -42 3 -35 2 -41 -9 -31
-7 7 -15 40 -17 73 -3 42 -8 60 -18 60 -8 0 -14 7 -14 15 0 10 10 15 30 15 20
0 30 -5 30 -15 0 -8 9 -15 20 -15 11 0 20 -7 20 -15 0 -8 7 -15 15 -15 8 0 15
-7 15 -15 0 -8 7 -15 15 -15 10 0 15 11 16 33 1 17 3 24 6 15 11 -42 23 -12
23 57 0 41 4 75 8 75 5 0 8 -13 7 -28 -1 -16 2 -37 6 -48 4 -11 8 15 8 64 1
66 -2 82 -14 82 -8 0 -15 7 -15 15 0 8 -7 15 -15 15 -8 0 -15 -7 -15 -15 0 -8
-7 -15 -15 -15 -8 0 -15 -9 -15 -20 0 -11 -7 -20 -15 -20 -8 0 -15 -7 -15 -15
0 -8 -9 -15 -20 -15 -11 0 -20 -7 -20 -15 0 -8 -7 -15 -15 -15 -10 0 -15 -10
-15 -27 -1 -24 -2 -26 -11 -10 -5 9 -7 22 -4 27 3 6 1 10 -4 10 -6 0 -11 7
-11 15 0 8 7 15 15 15 8 0 15 7 15 15 0 8 7 15 15 15 8 0 15 9 15 20 0 13 7
20 20 20 12 0 20 -7 20 -17 0 -15 2 -16 10 -3 6 10 6 16 0 18 -16 6 -11 32 5
32 8 0 15 -5 15 -11 0 -5 5 -7 12 -3 9 6 9 9 0 12 -17 5 -15 32 3 32 8 0 15
-5 15 -11 0 -5 5 -7 12 -3 9 6 9 9 0 12 -17 5 -15 32 3 32 8 0 15 7 15 15 0 8
7 15 15 15 8 0 15 7 15 16 0 14 8 16 42 11 24 -3 44 -11 46 -16 2 -6 26 -11
53 -11 37 0 49 4 49 15 0 12 -14 15 -65 15 -51 0 -65 3 -65 15 0 10 10 15 30
15 20 0 30 5 30 15 0 13 26 15 175 15 149 0 175 -2 175 -15z m-497 -223 c3 7
6 3 6 -9 1 -16 -3 -21 -14 -17 -19 8 -29 -34 -22 -89 2 -23 3 -36 0 -29 -3 6
-14 11 -26 11 -17 -1 -18 -2 -4 -6 23 -6 22 -23 -3 -23 -11 0 -20 5 -20 10 0
6 -11 15 -25 20 -34 13 -33 47 1 60 14 6 30 8 35 5 5 -4 6 1 3 9 -3 8 4 24 15
35 12 12 21 27 21 34 1 7 6 5 14 -6 11 -14 15 -15 19 -5z m737 -96 c0 -8 -4
-18 -10 -21 -5 -3 -10 3 -10 14 0 12 5 21 10 21 6 0 10 -6 10 -14z m10 -51 c0
-8 -7 -15 -15 -15 -8 0 -15 -7 -15 -15 0 -8 -7 -15 -15 -15 -8 0 -15 -7 -15
-15 0 -8 -9 -15 -20 -15 -13 0 -20 -7 -20 -20 0 -11 -7 -20 -15 -20 -8 0 -15
-7 -15 -15 0 -8 -7 -15 -15 -15 -8 0 -15 -7 -15 -15 0 -8 -7 -15 -15 -15 -8 0
-15 7 -15 15 0 8 7 15 15 15 8 0 15 7 15 15 0 8 7 15 15 15 8 0 15 9 15 20 0
11 7 20 15 20 10 0 15 10 15 30 0 23 4 30 20 30 11 0 20 7 20 15 0 10 10 15
30 15 20 0 30 -5 30 -15z m-484 -75 c8 0 14 5 14 11 0 5 5 7 12 3 9 -6 9 -9 0
-12 -7 -2 -12 -12 -12 -23 0 -14 7 -19 25 -19 13 0 28 -7 33 -16 7 -13 21 -16
66 -12 31 3 51 1 44 -3 -14 -9 -12 -11 21 -25 18 -8 0 -10 -70 -8 -68 2 -81 0
-47 -5 27 -4 52 -11 57 -16 7 -7 -59 -9 -180 -8 -143 1 -201 -2 -231 -13 -55
-19 -128 -19 -128 1 0 12 16 15 80 15 l80 0 0 30 0 30 63 1 c34 1 70 1 80 0 9
-1 17 4 17 13 0 14 -17 16 -106 16 -69 0 -103 3 -99 10 8 13 205 12 205 -1 0
-5 14 -9 30 -9 23 0 30 4 30 20 0 11 -5 20 -11 20 -5 0 -7 5 -3 12 6 9 9 9 12
0 2 -7 10 -12 18 -12z m-426 -70 c0 -28 3 -30 35 -30 43 0 46 -15 4 -24 -64
-13 -69 -10 -69 39 0 33 4 45 15 45 10 0 15 -10 15 -30z m160 8 c0 -4 -13 -8
-30 -8 -16 0 -30 4 -30 9 0 5 14 9 30 9 17 -1 30 -5 30 -10z m-70 -2 c0 -3 -4
-8 -10 -11 -5 -3 -10 -1 -10 4 0 6 5 11 10 11 6 0 10 -2 10 -4z m80 -26 c8 -5
13 -10 10 -10 -3 -1 -27 -2 -54 -3 -48 -3 -49 -3 -20 10 36 15 45 15 64 3z
m460 -85 c0 -10 -11 -15 -35 -15 -24 0 -35 -5 -35 -15 0 -13 -24 -15 -155 -15
-131 0 -155 2 -155 15 0 12 -13 15 -60 15 -47 0 -60 3 -60 15 0 13 34 15 250
15 216 0 250 -2 250 -15z"/>
<path d="M415 794 c25 -10 63 -14 102 -12 34 2 60 1 57 -3 -12 -21 188 -31
208 -11 9 9 -9 12 -90 12 -84 0 -102 3 -102 15 0 12 -18 15 -107 14 -107 0
-108 0 -68 -15z"/>
<path d="M643 803 c9 -2 25 -2 35 0 9 3 1 5 -18 5 -19 0 -27 -2 -17 -5z"/>
<path d="M456 762 c-7 -11 6 -16 67 -26 12 -2 49 0 82 4 57 7 55 7 -37 9 -65
1 -98 5 -100 13 -3 9 -6 9 -12 0z"/>
<path d="M280 735 c0 -8 -7 -15 -15 -15 -8 0 -15 -7 -15 -15 0 -8 -7 -15 -15
-15 -8 0 -15 -7 -15 -15 0 -13 21 -15 125 -15 104 0 125 -2 125 -15 0 -8 7
-15 15 -15 8 0 15 -9 15 -20 0 -16 7 -20 30 -20 23 0 30 4 30 20 0 11 7 20 15
20 8 0 15 7 15 15 0 12 17 15 95 15 78 0 95 3 95 15 0 13 -13 15 -77 12 -43
-3 -57 -2 -30 0 26 2 47 9 47 15 0 5 7 8 15 4 8 -3 15 -1 15 4 0 6 -74 10
-189 10 -142 0 -191 3 -195 13 -3 6 -4 1 -3 -13 2 -25 2 -25 100 -23 88 1 97
-1 97 -17 0 -10 5 -20 12 -22 9 -3 9 -6 0 -12 -7 -4 -12 -2 -12 3 0 15 -57 14
-62 -1 -3 -9 -6 -9 -12 0 -4 7 -2 12 3 12 6 0 11 6 11 14 0 10 -24 13 -117 11
-65 -2 -108 -1 -95 2 22 4 32 33 10 33 -6 0 -9 2 -6 5 10 10 39 -8 34 -21 -3
-8 -1 -14 4 -14 6 0 10 14 10 30 0 27 -3 30 -30 30 -20 0 -30 -5 -30 -15z
m330 -39 c0 -9 -30 -14 -35 -6 -4 6 3 10 14 10 12 0 21 -2 21 -4z m-60 -70 c0
-11 -19 -15 -25 -6 -3 5 1 10 9 10 9 0 16 -2 16 -4z"/>
<path d="M750 740 c0 -5 7 -10 16 -10 8 0 13 -4 10 -9 -7 -10 79 5 102 18 12
8 -3 10 -55 11 -42 0 -73 -4 -73 -10z"/>
<path d="M830 713 c-23 -10 -42 -32 -35 -43 3 -5 1 -10 -4 -10 -6 0 -11 -7
-11 -15 0 -8 7 -15 15 -15 10 0 15 10 15 30 0 20 5 30 15 30 18 0 20 -27 3
-32 -9 -3 -9 -6 0 -12 7 -4 12 -2 12 3 0 6 7 11 15 11 16 0 21 -26 5 -32 -6
-2 -6 -8 0 -18 8 -13 10 -12 10 3 0 10 8 17 20 17 17 0 20 7 20 42 0 39 1 40
15 22 14 -19 14 -18 15 4 0 20 -5 22 -47 21 -27 0 -55 -3 -63 -6z m40 -23 c0
-5 -5 -10 -11 -10 -5 0 -7 5 -4 10 3 6 8 10 11 10 2 0 4 -4 4 -10z"/>
<path d="M617 624 c6 -15 23 -19 23 -5 0 5 -7 11 -14 14 -10 4 -13 1 -9 -9z"/>
<path d="M272 610 c0 -14 2 -19 5 -12 2 6 2 18 0 25 -3 6 -5 1 -5 -13z"/>
<path d="M342 531 c2 -75 0 -97 -9 -94 -7 3 -11 9 -8 13 3 5 1 19 -4 32 -8 19
-10 15 -10 -24 -1 -47 0 -48 29 -48 29 0 30 2 30 45 0 26 5 45 11 45 6 0 9 -7
5 -15 -3 -8 0 -15 6 -15 7 0 6 -5 -2 -15 -10 -12 -10 -15 4 -15 14 0 16 14 16
95 l0 95 -36 0 -35 0 3 -99z m41 -3 c6 -4 8 -10 4 -14 -4 -4 -10 -5 -13 -1
-11 10 -23 91 -16 102 4 5 8 -10 10 -35 2 -24 9 -48 15 -52z"/>
<path d="M660 610 c0 -13 -7 -20 -20 -20 -18 0 -20 -7 -20 -60 0 -59 1 -60 28
-61 24 0 25 -1 7 -9 -11 -5 -23 -9 -27 -9 -9 -1 -29 60 -22 70 3 5 0 9 -5 9
-7 0 -11 -24 -11 -60 0 -47 3 -60 15 -60 8 0 15 7 15 15 0 10 11 15 35 15 l35
0 0 87 c0 99 7 106 14 14 7 -92 16 -87 16 7 l0 82 -30 0 c-23 0 -30 -4 -30
-20z m0 -40 c0 -5 -4 -10 -10 -10 -5 0 -10 5 -10 10 0 6 5 10 10 10 6 0 10 -4
10 -10z m5 -30 c3 -5 -1 -10 -10 -10 -9 0 -13 5 -10 10 3 6 8 10 10 10 2 0 7
-4 10 -10z m5 -35 c0 -9 -6 -12 -15 -9 -8 4 -15 10 -15 15 0 5 7 9 15 9 8 0
15 -7 15 -15z"/>
<path d="M810 535 c0 -70 3 -95 13 -95 9 0 12 25 12 95 0 69 -3 95 -12 95 -10
0 -13 -26 -13 -95z"/>
<path d="M428 560 c2 -16 6 -30 8 -30 2 0 4 14 4 30 0 17 -4 30 -8 30 -5 0 -7
-13 -4 -30z"/>
<path d="M885 580 c3 -5 10 -10 16 -10 5 0 9 5 9 10 0 6 -7 10 -16 10 -8 0
-12 -4 -9 -10z"/>
<path d="M500 570 c0 -5 7 -10 15 -10 8 0 15 5 15 10 0 6 -7 10 -15 10 -8 0
-15 -4 -15 -10z"/>
<path d="M478 463 c7 -3 16 -2 19 1 4 3 -2 6 -13 5 -11 0 -14 -3 -6 -6z"/>
<path d="M780 440 c0 -20 -5 -30 -15 -30 -8 0 -15 -7 -15 -15 0 -31 27 -14 38
24 15 47 15 51 2 51 -5 0 -10 -13 -10 -30z"/>
<path d="M750 429 c0 -5 5 -7 10 -4 6 3 10 8 10 11 0 2 -4 4 -10 4 -5 0 -10
-5 -10 -11z"/>
<path d="M90 420 c0 -5 7 -10 16 -10 8 0 12 5 9 10 -3 6 -10 10 -16 10 -5 0
-9 -4 -9 -10z"/>
<path d="M645 410 c3 -5 8 -10 11 -10 2 0 4 5 4 10 0 6 -5 10 -11 10 -5 0 -7
-4 -4 -10z"/>
<path d="M720 395 c0 -8 5 -15 10 -15 6 0 10 7 10 15 0 8 -4 15 -10 15 -5 0
-10 -7 -10 -15z"/>
<path d="M708 333 c6 -2 18 -2 25 0 6 3 1 5 -13 5 -14 0 -19 -2 -12 -5z"/>
<path d="M110 500 c0 -5 5 -10 10 -10 6 0 10 5 10 10 0 6 -4 10 -10 10 -5 0
-10 -4 -10 -10z"/>
<path d="M293 270 c26 -8 136 -3 146 6 2 2 -36 4 -85 3 -66 0 -82 -3 -61 -9z"/>
<path d="M370 200 c-28 -5 10 -8 100 -8 89 -1 140 2 131 7 -16 10 -162 11
-231 1z"/>
</g>
</svg>
