<?xml version="1.0" standalone="no"?>
<!DOCTYPE svg PUBLIC "-//W3C//DTD SVG 20010904//EN"
 "http://www.w3.org/TR/2001/REC-SVG-20010904/DTD/svg10.dtd">
<svg version="1.0" xmlns="http://www.w3.org/2000/svg"
 width="192.000000pt" height="192.000000pt" viewBox="0 0 192.000000 192.000000"
 preserveAspectRatio="xMidYMid meet">
<metadata>
Created by potrace 1.16, written by Peter Selinger 2001-2019
</metadata>
<g transform="translate(0.000000,192.000000) scale(0.100000,-0.100000)"
fill="#000000" stroke="none">
<path d="M1114 1656 c-353 -93 -706 -372 -868 -686 -68 -131 -90 -215 -90
-340 0 -144 18 -196 98 -276 94 -94 140 -109 341 -108 145 0 168 3 250 28 85
26 234 93 303 135 l32 21 0 490 0 490 -23 0 c-16 0 -28 -9 -35 -25 -22 -48
-183 -286 -287 -425 -173 -229 -296 -346 -398 -379 -80 -26 -137 48 -118 153
27 147 117 291 278 447 285 274 652 418 831 325 73 -38 120 -130 107 -210 -18
-105 -98 -259 -194 -368 l-41 -46 0 -166 0 -166 25 0 c18 0 50 25 114 90 237
237 358 513 322 734 -16 95 -42 146 -107 205 -83 76 -139 94 -309 98 -123 3
-151 0 -231 -21z m349 -11 c177 -46 266 -151 275 -325 5 -111 -15 -196 -77
-325 -60 -125 -125 -214 -244 -333 l-92 -93 -3 147 -3 148 40 40 c81 85 160
221 186 323 38 145 2 253 -102 304 -42 21 -62 24 -158 23 -123 -1 -207 -23
-343 -89 -399 -194 -728 -633 -638 -849 44 -107 174 -84 321 56 131 123 370
440 495 655 l40 68 0 -472 0 -472 -64 -36 c-399 -223 -772 -201 -890 54 -18
39 -21 64 -20 166 0 111 3 127 33 207 81 217 266 437 503 599 255 175 546 255
741 204z"/>
</g>
</svg>
