<?xml version="1.0" standalone="no"?>
<!DOCTYPE svg PUBLIC "-//W3C//DTD SVG 20010904//EN"
 "http://www.w3.org/TR/2001/REC-SVG-20010904/DTD/svg10.dtd">
<svg version="1.0" xmlns="http://www.w3.org/2000/svg"
 width="256.000000pt" height="256.000000pt" viewBox="0 0 256.000000 256.000000"
 preserveAspectRatio="xMidYMid meet">
<metadata>
Created by potrace 1.16, written by Peter Selinger 2001-2019
</metadata>
<g transform="translate(0.000000,256.000000) scale(0.100000,-0.100000)"
fill="#000000" stroke="none">
<path d="M1403 2323 c9 -2 23 -2 30 0 6 3 -1 5 -18 5 -16 0 -22 -2 -12 -5z"/>
<path d="M1503 2323 c-18 -7 -16 -23 2 -23 8 0 15 7 15 15 0 8 -1 15 -2 14 -2
0 -9 -3 -15 -6z"/>
<path d="M1556 2315 c-3 -8 -1 -15 4 -15 6 0 10 7 10 15 0 8 -2 15 -4 15 -2 0
-6 -7 -10 -15z"/>
<path d="M1587 2323 c-13 -12 -7 -23 13 -23 11 0 20 -4 20 -10 0 -5 -6 -7 -14
-4 -8 3 -17 1 -21 -5 -4 -7 7 -11 32 -11 25 0 33 3 24 9 -9 6 -10 11 -2 15 6
4 9 12 6 17 -4 5 3 9 14 9 23 0 30 -35 9 -43 -7 -2 10 -4 37 -5 28 0 44 2 38
5 -18 7 -16 43 2 43 9 0 15 -9 15 -25 l0 -24 148 -3 c137 -3 192 4 192 23 0 4
-4 11 -10 14 -5 3 -10 -1 -10 -9 0 -12 -11 -16 -41 -16 -39 0 -41 2 -37 25 l5
25 -207 0 c-114 0 -210 -3 -213 -7z m316 -9 c-7 -3 -10 -11 -7 -18 3 -9 -4
-13 -23 -12 -18 1 -29 7 -31 19 -3 14 4 17 35 16 21 0 33 -3 26 -5z m64 -1
c-4 -3 0 -11 8 -17 12 -9 8 -11 -20 -13 -29 -3 -35 0 -35 17 0 15 7 20 27 20
14 0 23 -3 20 -7z m-142 -23 c4 -6 -5 -10 -19 -10 -14 0 -26 5 -26 10 0 6 9
10 19 10 11 0 23 -4 26 -10z"/>
<path d="M1865 2300 c3 -5 8 -10 11 -10 2 0 4 5 4 10 0 6 -5 10 -11 10 -5 0
-7 -4 -4 -10z"/>
<path d="M1440 2271 c0 -6 9 -9 19 -8 11 0 17 5 15 9 -7 11 -34 10 -34 -1z"/>
<path d="M1523 2273 c9 -2 25 -2 35 0 9 3 1 5 -18 5 -19 0 -27 -2 -17 -5z"/>
<path d="M1265 2250 c-3 -5 -1 -10 4 -10 6 0 11 5 11 10 0 6 -2 10 -4 10 -3 0
-8 -4 -11 -10z"/>
<path d="M2240 2250 c0 -5 5 -10 11 -10 5 0 7 5 4 10 -3 6 -8 10 -11 10 -2 0
-4 -4 -4 -10z"/>
<path d="M1363 2243 c9 -2 23 -2 30 0 6 3 -1 5 -18 5 -16 0 -22 -2 -12 -5z"/>
<path d="M1431 2234 c0 -11 3 -14 6 -6 3 7 2 16 -1 19 -3 4 -6 -2 -5 -13z"/>
<path d="M1458 2243 c7 -3 16 -2 19 1 4 3 -2 6 -13 5 -11 0 -14 -3 -6 -6z"/>
<path d="M1648 2243 c6 -2 18 -2 25 0 6 3 1 5 -13 5 -14 0 -19 -2 -12 -5z"/>
<path d="M1723 2243 c20 -2 54 -2 75 0 20 2 3 4 -38 4 -41 0 -58 -2 -37 -4z"/>
<path d="M1848 2243 c6 -2 18 -2 25 0 6 3 1 5 -13 5 -14 0 -19 -2 -12 -5z"/>
<path d="M1928 2243 c6 -2 18 -2 25 0 6 3 1 5 -13 5 -14 0 -19 -2 -12 -5z"/>
<path d="M2098 2243 c12 -2 30 -2 40 0 9 3 -1 5 -23 4 -22 0 -30 -2 -17 -4z"/>
<path d="M2161 2234 c0 -11 3 -14 6 -6 3 7 2 16 -1 19 -3 4 -6 -2 -5 -13z"/>
<path d="M2210 2239 c0 -5 5 -7 10 -4 6 3 10 8 10 11 0 2 -4 4 -10 4 -5 0 -10
-5 -10 -11z"/>
<path d="M1120 2218 c0 -12 3 -18 7 -14 11 10 12 36 2 36 -5 0 -9 -10 -9 -22z"/>
<path d="M1618 2223 c7 -3 16 -2 19 1 4 3 -2 6 -13 5 -11 0 -14 -3 -6 -6z"/>
<path d="M2082 2205 c0 -16 2 -22 5 -12 2 9 2 23 0 30 -3 6 -5 -1 -5 -18z"/>
<path d="M1267 2214 c-3 -3 -3 -13 0 -21 3 -8 0 -19 -8 -24 -10 -6 -10 -9 -1
-9 6 0 12 -9 12 -20 0 -13 -7 -20 -20 -20 -16 0 -19 5 -16 25 5 26 -18 37 -27
13 -3 -7 -6 3 -8 22 -1 25 -3 28 -6 13 -4 -21 -10 -23 -64 -23 -32 0 -59 -4
-59 -10 0 -5 7 -7 16 -3 9 3 20 0 25 -8 6 -10 9 -10 9 -1 0 7 14 12 36 12 21
0 33 -4 29 -10 -3 -5 3 -10 14 -10 12 0 21 -4 21 -10 0 -5 -15 -8 -34 -6 -19
3 -47 1 -62 -3 -21 -6 -2 -9 64 -10 l92 -1 0 55 c0 55 -1 60 -13 49z"/>
<path d="M2241 2204 c0 -11 3 -14 6 -6 3 7 2 16 -1 19 -3 4 -6 -2 -5 -13z"/>
<path d="M2290 2202 c0 -5 7 -9 15 -9 8 0 12 4 9 9 -3 4 -9 8 -15 8 -5 0 -9
-4 -9 -8z"/>
<path d="M2211 2170 c10 -28 29 -41 29 -20 0 6 -5 10 -11 10 -6 0 -8 9 -4 20
4 14 2 20 -9 20 -12 0 -13 -5 -5 -30z"/>
<path d="M1030 2160 c20 -13 33 -13 25 0 -3 6 -14 10 -23 10 -15 0 -15 -2 -2
-10z"/>
<path d="M1295 2160 c4 -6 11 -8 16 -5 14 9 11 15 -7 15 -8 0 -12 -5 -9 -10z"/>
<path d="M1351 2154 c0 -11 3 -14 6 -6 3 7 2 16 -1 19 -3 4 -6 -2 -5 -13z"/>
<path d="M2309 2152 c6 -12 7 -22 1 -28 -6 -6 -5 -22 2 -42 11 -28 10 -34 -2
-42 -12 -7 -12 -12 -3 -21 10 -10 13 -9 17 2 10 32 13 70 5 75 -5 2 -4 15 1
28 9 24 3 39 -18 44 -10 2 -10 -2 -3 -16z"/>
<path d="M2260 2150 c0 -5 5 -10 10 -10 6 0 10 5 10 10 0 6 -4 10 -10 10 -5 0
-10 -4 -10 -10z"/>
<path d="M2180 2115 c0 -8 5 -15 10 -15 6 0 10 7 10 15 0 8 -4 15 -10 15 -5 0
-10 -7 -10 -15z"/>
<path d="M1055 2110 c4 -6 11 -8 16 -5 14 9 11 15 -7 15 -8 0 -12 -5 -9 -10z"/>
<path d="M2240 2112 c0 -4 9 -8 20 -9 11 -1 20 2 20 8 0 5 -9 9 -20 9 -11 0
-20 -4 -20 -8z"/>
<path d="M1360 2090 c0 -5 5 -10 11 -10 5 0 7 5 4 10 -3 6 -8 10 -11 10 -2 0
-4 -4 -4 -10z"/>
<path d="M1445 2091 c-6 -5 -19 -11 -30 -13 -16 -3 -17 -5 -5 -10 9 -3 26 3
39 13 13 11 19 19 14 19 -5 0 -13 -4 -18 -9z"/>
<path d="M2380 2090 c-24 -8 -23 -8 8 -9 20 -1 31 3 27 9 -3 6 -7 10 -8 9 -1
-1 -13 -5 -27 -9z"/>
<path d="M1036 2075 c4 -8 11 -15 16 -15 6 0 5 6 -2 15 -7 8 -14 15 -16 15 -2
0 -1 -7 2 -15z"/>
<path d="M1148 2083 c7 -3 16 -2 19 1 4 3 -2 6 -13 5 -11 0 -14 -3 -6 -6z"/>
<path d="M2128 2083 c6 -2 18 -2 25 0 6 3 1 5 -13 5 -14 0 -19 -2 -12 -5z"/>
<path d="M950 2050 c0 -22 5 -30 18 -30 13 0 14 2 3 9 -8 5 -12 18 -8 30 3 12
1 21 -4 21 -5 0 -9 -13 -9 -30z"/>
<path d="M1000 2069 c0 -5 5 -7 10 -4 6 3 10 8 10 11 0 2 -4 4 -10 4 -5 0 -10
-5 -10 -11z"/>
<path d="M1613 2073 c15 -2 37 -2 50 0 12 2 0 4 -28 4 -27 0 -38 -2 -22 -4z"/>
<path d="M1773 2073 c9 -2 25 -2 35 0 9 3 1 5 -18 5 -19 0 -27 -2 -17 -5z"/>
<path d="M1853 2073 c9 -2 23 -2 30 0 6 3 -1 5 -18 5 -16 0 -22 -2 -12 -5z"/>
<path d="M1904 2035 c0 -25 3 -45 6 -45 4 0 6 -18 4 -41 -1 -23 0 -38 3 -35 4
3 12 1 19 -5 17 -14 64 0 63 20 0 12 -2 12 -6 2 -5 -11 -7 -11 -14 0 -6 10 -9
11 -9 2 0 -19 -37 -16 -44 3 -4 9 -1 23 5 30 6 8 8 14 3 14 -5 0 2 9 16 20
l25 20 -23 0 c-13 0 -20 -4 -17 -10 3 -5 1 -10 -4 -10 -6 0 -11 18 -11 40 0
22 -3 40 -7 40 -5 0 -8 -20 -9 -45z"/>
<path d="M2008 2073 c7 -3 16 -2 19 1 4 3 -2 6 -13 5 -11 0 -14 -3 -6 -6z"/>
<path d="M2401 2054 c0 -11 3 -14 6 -6 3 7 2 16 -1 19 -3 4 -6 -2 -5 -13z"/>
<path d="M800 2040 c0 -19 3 -21 12 -12 9 9 9 15 0 24 -9 9 -12 7 -12 -12z"/>
<path d="M867 2053 c-4 -6 -4 -18 -1 -27 6 -17 -36 -33 -55 -21 -6 3 -11 -1
-11 -9 0 -12 11 -16 45 -16 33 0 45 -4 45 -15 0 -8 9 -15 21 -15 14 0 18 4 12
13 -4 6 -6 20 -5 30 2 11 -3 17 -17 17 -14 0 -21 8 -23 28 -2 16 -6 22 -11 15z"/>
<path d="M896 2043 c-6 -14 -5 -15 5 -6 7 7 10 15 7 18 -3 3 -9 -2 -12 -12z"/>
<path d="M1440 2026 c0 -20 2 -36 4 -36 8 0 12 61 4 66 -4 3 -8 -11 -8 -30z"/>
<path d="M1480 2050 c0 -4 11 -10 25 -13 16 -3 24 0 22 7 -4 12 -47 18 -47 6z"/>
<path d="M1688 2049 c-8 -6 3 -9 30 -9 31 0 42 -4 39 -12 -2 -8 -17 -12 -38
-9 -38 4 -55 4 -84 2 -17 -1 -18 -3 -5 -11 12 -8 11 -10 -6 -10 -12 0 -24 7
-28 15 -4 13 -9 13 -25 3 -34 -21 -13 -28 90 -28 99 0 99 0 99 -25 0 -26 14
-33 25 -14 5 7 15 5 31 -6 24 -15 24 -15 24 15 0 16 3 29 8 29 32 -5 41 2 32
25 -5 13 -6 27 -3 30 4 3 1 6 -5 6 -6 0 -14 -5 -18 -11 -4 -8 -9 -7 -15 2 -8
12 -11 11 -19 -1 -9 -13 -10 -13 -10 0 0 12 -2 13 -9 1 -6 -10 -10 -10 -13 -1
-4 14 -80 21 -100 9z m130 -46 c-10 -2 -28 -2 -40 0 -13 2 -5 4 17 4 22 1 32
-1 23 -4z m6 -26 c-6 -16 -46 -15 -52 1 -2 8 8 12 27 12 21 0 29 -4 25 -13z"/>
<path d="M2072 2030 c0 -19 2 -27 5 -17 2 9 2 25 0 35 -3 9 -5 1 -5 -18z"/>
<path d="M1000 2030 c0 -5 5 -10 10 -10 6 0 10 5 10 10 0 6 -4 10 -10 10 -5 0
-10 -4 -10 -10z"/>
<path d="M2016 2025 c-3 -8 -1 -15 4 -15 6 0 10 7 10 15 0 8 -2 15 -4 15 -2 0
-6 -7 -10 -15z"/>
<path d="M2365 2030 c-3 -5 1 -10 10 -10 9 0 13 5 10 10 -3 6 -8 10 -10 10 -2
0 -7 -4 -10 -10z"/>
<path d="M2481 2014 c0 -11 3 -14 6 -6 3 7 2 16 -1 19 -3 4 -6 -2 -5 -13z"/>
<path d="M1490 2013 c0 -7 0 -16 0 -20 0 -14 42 -11 47 4 8 20 -6 30 -18 13
-8 -13 -10 -13 -19 0 -6 10 -10 11 -10 3z"/>
<path d="M1990 2013 c0 -15 29 -49 30 -35 0 7 -7 20 -15 28 -8 9 -15 11 -15 7z"/>
<path d="M948 1980 c-3 -17 -1 -33 4 -36 4 -3 8 11 8 30 0 44 -6 47 -12 6z"/>
<path d="M2398 2003 c-2 -5 -1 -26 3 -48 l7 -40 -1 48 c-1 47 -2 54 -9 40z"/>
<path d="M970 1990 c0 -5 7 -10 15 -10 8 0 15 5 15 10 0 6 -7 10 -15 10 -8 0
-15 -4 -15 -10z"/>
<path d="M1050 1991 c0 -5 5 -13 10 -16 6 -3 10 -2 10 4 0 5 -4 13 -10 16 -5
3 -10 2 -10 -4z"/>
<path d="M2036 1985 c-3 -9 0 -15 9 -15 9 0 12 6 9 15 -4 8 -7 15 -9 15 -2 0
-5 -7 -9 -15z"/>
<path d="M2313 1993 c-7 -2 -13 -14 -13 -26 1 -22 1 -22 16 -2 8 11 22 19 30
17 8 -2 14 2 14 8 0 10 -25 12 -47 3z"/>
<path d="M1960 1970 c0 -5 5 -10 10 -10 6 0 10 5 10 10 0 6 -4 10 -10 10 -5 0
-10 -4 -10 -10z"/>
<path d="M1440 1949 c0 -11 4 -18 10 -14 5 3 7 12 3 20 -7 21 -13 19 -13 -6z"/>
<path d="M1521 1954 c0 -11 3 -14 6 -6 3 7 2 16 -1 19 -3 4 -6 -2 -5 -13z"/>
<path d="M1600 1945 c0 -14 4 -25 9 -25 4 0 6 11 3 25 -2 14 -6 25 -8 25 -2 0
-4 -11 -4 -25z"/>
<path d="M1680 1957 c0 -11 11 -13 64 -8 19 2 -4 14 -34 17 -19 2 -30 -1 -30
-9z"/>
<path d="M1860 1960 c0 -5 5 -10 11 -10 5 0 7 5 4 10 -3 6 -8 10 -11 10 -2 0
-4 -4 -4 -10z"/>
<path d="M818 1953 c7 -3 16 -2 19 1 4 3 -2 6 -13 5 -11 0 -14 -3 -6 -6z"/>
<path d="M870 1946 c0 -8 -12 -17 -27 -19 -26 -4 -26 -4 5 -6 26 -1 32 3 32
19 0 11 -2 20 -5 20 -3 0 -5 -6 -5 -14z"/>
<path d="M1031 1944 c0 -11 3 -14 6 -6 3 7 2 16 -1 19 -3 4 -6 -2 -5 -13z"/>
<path d="M1356 1945 c-3 -8 -1 -15 4 -15 6 0 10 7 10 15 0 8 -2 15 -4 15 -2 0
-6 -7 -10 -15z"/>
<path d="M2453 1939 c-1 -10 2 -19 8 -19 11 0 12 27 1 34 -4 2 -9 -4 -9 -15z"/>
<path d="M716 1924 c1 -6 -1 -28 -6 -48 -9 -40 1 -93 16 -88 9 2 10 6 13 37 0
8 10 15 22 15 11 0 18 4 15 9 -3 4 -17 6 -32 3 -25 -5 -26 -3 -19 29 4 19 13
38 19 42 7 6 5 7 -6 4 -9 -3 -19 -3 -21 1 -2 4 -3 2 -1 -4z"/>
<path d="M787 1934 c-3 -4 1 -13 9 -21 19 -20 26 -13 10 9 -7 10 -16 15 -19
12z"/>
<path d="M2035 1930 c3 -5 10 -10 16 -10 5 0 9 5 9 10 0 6 -7 10 -16 10 -8 0
-12 -4 -9 -10z"/>
<path d="M2070 1931 c0 -10 19 -25 25 -20 1 2 -3 10 -11 17 -8 7 -14 8 -14 3z"/>
<path d="M640 1896 c0 -14 5 -26 10 -26 6 0 10 9 10 19 0 11 -4 23 -10 26 -6
4 -10 -5 -10 -19z"/>
<path d="M1213 1913 c9 -2 25 -2 35 0 9 3 1 5 -18 5 -19 0 -27 -2 -17 -5z"/>
<path d="M1520 1909 c0 -5 5 -7 10 -4 6 3 10 8 10 11 0 2 -4 4 -10 4 -5 0 -10
-5 -10 -11z"/>
<path d="M760 1889 c0 -11 5 -17 10 -14 6 3 10 13 10 21 0 8 -4 14 -10 14 -5
0 -10 -9 -10 -21z"/>
<path d="M2380 1894 c0 -8 5 -12 10 -9 6 4 8 11 5 16 -9 14 -15 11 -15 -7z"/>
<path d="M2420 1903 c0 -5 5 -15 10 -23 8 -12 10 -11 10 8 0 12 -4 22 -10 22
-5 0 -10 -3 -10 -7z"/>
<path d="M1120 1866 c0 -20 2 -36 4 -36 8 0 12 61 4 66 -4 3 -8 -11 -8 -30z"/>
<path d="M1360 1884 c0 -8 5 -12 10 -9 6 3 10 10 10 16 0 5 -4 9 -10 9 -5 0
-10 -7 -10 -16z"/>
<path d="M1405 1890 c-3 -5 3 -10 15 -10 12 0 18 5 15 10 -3 6 -10 10 -15 10
-5 0 -12 -4 -15 -10z"/>
<path d="M1999 1883 c-1 -10 -2 -91 -3 -180 -1 -89 -4 -164 -8 -168 -3 -3 -22
-7 -41 -8 -22 -1 -33 -6 -30 -14 4 -9 10 -10 23 -3 35 19 53 12 47 -17 -3 -15
0 -37 6 -50 10 -23 27 -31 27 -13 0 6 -4 10 -10 10 -5 0 -10 14 -10 32 0 17 3
28 7 25 3 -4 13 -1 21 6 13 10 14 8 8 -16 -5 -22 -4 -28 6 -25 8 3 12 16 10
31 -2 19 1 27 12 27 12 0 16 9 14 38 -1 36 -1 36 -5 5 -4 -31 -23 -48 -23 -20
0 8 -3 9 -8 1 -8 -13 -42 -14 -42 -2 0 18 27 37 37 27 7 -7 12 -2 15 16 3 14
1 28 -3 31 -5 3 -9 -2 -9 -10 0 -20 -14 -21 -29 -2 -8 10 -9 16 -2 21 6 3 10
39 9 80 -1 75 6 101 21 76 6 -9 10 0 13 25 3 22 1 43 -3 49 -9 9 -13 -5 -10
-37 1 -10 -3 -18 -8 -18 -6 0 -11 11 -11 24 0 13 -3 32 -6 41 -5 13 -2 16 16
13 13 -1 25 3 27 10 3 8 -6 12 -26 12 -22 0 -31 -5 -32 -17z"/>
<path d="M2290 1889 c0 -5 5 -7 10 -4 6 3 10 8 10 11 0 2 -4 4 -10 4 -5 0 -10
-5 -10 -11z"/>
<path d="M1201 1879 c0 -9 -8 -16 -17 -15 -9 0 -18 -7 -19 -16 -3 -17 4 -22
22 -15 4 1 11 -11 14 -28 l7 -30 1 28 c1 24 5 27 36 27 37 0 44 -14 25 -51 -7
-12 -7 -19 -1 -19 5 0 11 -6 14 -12 2 -7 2 -3 1 9 -6 31 12 71 33 76 12 3 8 5
-9 6 -18 1 -28 7 -28 16 0 16 -9 19 -35 9 -13 -5 -14 -8 -3 -15 9 -6 7 -9 -9
-9 -16 0 -23 7 -26 28 -2 15 -5 20 -6 11z"/>
<path d="M1946 1873 c-11 -11 -6 -23 9 -23 8 0 15 4 15 9 0 13 -16 22 -24 14z"/>
<path d="M2480 1855 c0 -8 -4 -15 -10 -15 -5 0 -10 -7 -10 -15 0 -8 5 -15 10
-15 6 0 10 -18 10 -40 0 -22 -4 -40 -10 -40 -5 0 -9 -3 -9 -7 4 -27 -1 -35
-16 -23 -13 11 -15 5 -13 -41 1 -43 2 -47 5 -16 3 29 9 37 24 37 14 0 19 -7
19 -26 0 -14 -4 -23 -8 -20 -4 2 -9 -4 -9 -15 -1 -10 2 -19 7 -19 5 0 11 -15
13 -32 2 -18 5 42 5 135 1 92 0 167 -3 167 -3 0 -5 -7 -5 -15z"/>
<path d="M1340 1847 c0 -12 9 -15 43 -11 l43 4 1 -36 c1 -22 -4 -37 -13 -41
-8 -3 -14 -16 -14 -30 0 -13 4 -21 10 -18 6 3 10 15 10 26 0 10 5 19 10 19 6
0 10 23 10 51 0 47 -1 50 -21 44 -37 -12 -54 -13 -66 -2 -9 7 -13 5 -13 -6z"/>
<path d="M2072 1815 c1 -34 2 -40 5 -17 2 18 8 30 13 27 5 -3 11 -1 15 5 3 5
0 10 -9 10 -8 0 -17 6 -19 13 -3 6 -5 -10 -5 -38z"/>
<path d="M2523 1810 c0 -30 2 -43 4 -27 2 15 2 39 0 55 -2 15 -4 2 -4 -28z"/>
<path d="M626 1833 c-3 -7 -1 -15 4 -18 6 -4 10 -2 10 4 0 6 6 8 13 5 8 -3 19
1 25 8 8 10 4 13 -19 13 -16 0 -31 -5 -33 -12z"/>
<path d="M1558 1843 c6 -2 18 -2 25 0 6 3 1 5 -13 5 -14 0 -19 -2 -12 -5z"/>
<path d="M1455 1830 c3 -5 12 -7 20 -3 21 7 19 13 -6 13 -11 0 -18 -4 -14 -10z"/>
<path d="M1520 1830 c0 -5 5 -10 10 -10 6 0 10 5 10 10 0 6 -4 10 -10 10 -5 0
-10 -4 -10 -10z"/>
<path d="M1895 1830 c4 -6 11 -8 16 -5 14 9 11 15 -7 15 -8 0 -12 -5 -9 -10z"/>
<path d="M1041 1814 c0 -11 3 -14 6 -6 3 7 2 16 -1 19 -3 4 -6 -2 -5 -13z"/>
<path d="M1120 1794 c0 -14 4 -23 9 -20 5 3 7 15 4 26 -7 28 -13 25 -13 -6z"/>
<path d="M1951 1806 c-13 -16 -2 -29 16 -18 7 4 8 13 4 20 -6 10 -10 10 -20
-2z"/>
<path d="M1167 1804 c-8 -8 1 -24 14 -24 5 0 9 7 9 15 0 15 -12 20 -23 9z"/>
<path d="M655 1790 c4 -6 11 -8 16 -5 14 9 11 15 -7 15 -8 0 -12 -5 -9 -10z"/>
<path d="M760 1790 c0 -13 11 -13 30 0 12 8 11 10 -7 10 -13 0 -23 -4 -23 -10z"/>
<path d="M1460 1790 c0 -5 5 -10 11 -10 5 0 7 5 4 10 -3 6 -8 10 -11 10 -2 0
-4 -4 -4 -10z"/>
<path d="M1575 1790 c3 -5 8 -10 11 -10 2 0 4 5 4 10 0 6 -5 10 -11 10 -5 0
-7 -4 -4 -10z"/>
<path d="M1681 1774 c0 -11 3 -14 6 -6 3 7 2 16 -1 19 -3 4 -6 -2 -5 -13z"/>
<path d="M553 1765 c3 -7 2 -29 -3 -49 -9 -40 1 -93 16 -88 9 2 10 6 13 37 0
8 10 15 22 15 11 0 18 4 15 9 -3 4 -17 6 -31 3 -20 -3 -25 0 -25 17 0 11 5 21
11 21 6 0 9 7 5 15 -3 8 0 15 6 15 16 0 1 13 -18 16 -9 2 -13 -3 -11 -11z"/>
<path d="M1085 1770 c-3 -5 1 -10 9 -10 9 0 16 5 16 10 0 6 -4 10 -9 10 -6 0
-13 -4 -16 -10z"/>
<path d="M1345 1770 c-3 -5 -1 -10 4 -10 6 0 11 5 11 10 0 6 -2 10 -4 10 -3 0
-8 -4 -11 -10z"/>
<path d="M1600 1770 c0 -5 5 -10 11 -10 5 0 7 5 4 10 -3 6 -8 10 -11 10 -2 0
-4 -4 -4 -10z"/>
<path d="M636 1755 c4 -8 11 -15 16 -15 6 0 5 6 -2 15 -7 8 -14 15 -16 15 -2
0 -1 -7 2 -15z"/>
<path d="M480 1735 c1 -26 2 -28 11 -12 8 14 8 22 0 30 -8 8 -11 3 -11 -18z"/>
<path d="M600 1735 c1 -26 2 -28 11 -12 8 14 8 22 0 30 -8 8 -11 3 -11 -18z"/>
<path d="M918 1753 c7 -3 16 -2 19 1 4 3 -2 6 -13 5 -11 0 -14 -3 -6 -6z"/>
<path d="M1200 1749 c0 -5 5 -7 10 -4 6 3 10 8 10 11 0 2 -4 4 -10 4 -5 0 -10
-5 -10 -11z"/>
<path d="M1575 1750 c3 -5 8 -10 11 -10 2 0 4 5 4 10 0 6 -5 10 -11 10 -5 0
-7 -4 -4 -10z"/>
<path d="M1950 1753 c0 -5 5 -15 10 -23 7 -12 9 -10 7 8 -1 19 -17 33 -17 15z"/>
<path d="M2040 1720 c0 -22 3 -40 8 -40 4 0 6 18 4 40 -2 22 -6 40 -8 40 -2 0
-4 -18 -4 -40z"/>
<path d="M2072 1735 c0 -16 2 -22 5 -12 2 9 2 23 0 30 -3 6 -5 -1 -5 -18z"/>
<path d="M1350 1735 c0 -8 5 -15 10 -15 6 0 10 7 10 15 0 8 -4 15 -10 15 -5 0
-10 -7 -10 -15z"/>
<path d="M1624 1715 c1 -46 16 -46 16 0 0 19 -4 35 -9 35 -4 0 -8 -16 -7 -35z"/>
<path d="M1010 1730 c0 -5 5 -10 10 -10 6 0 10 5 10 10 0 6 -4 10 -10 10 -5 0
-10 -4 -10 -10z"/>
<path d="M1090 1730 c0 -5 5 -10 10 -10 6 0 10 5 10 10 0 6 -4 10 -10 10 -5 0
-10 -4 -10 -10z"/>
<path d="M2524 1625 c0 -66 1 -92 3 -57 2 34 2 88 0 120 -2 31 -3 3 -3 -63z"/>
<path d="M881 1712 c0 -13 -6 -33 -12 -44 -8 -16 -8 -23 2 -29 11 -8 9 -13 -8
-28 -17 -14 -19 -20 -9 -24 25 -10 40 15 38 60 -2 21 2 23 53 22 31 -1 59 1
62 5 3 3 -3 6 -15 6 -11 0 -23 8 -25 18 -4 16 -5 16 -6 0 -1 -14 -10 -18 -35
-18 -30 0 -35 4 -39 28 -3 23 -4 23 -6 4z"/>
<path d="M1191 1694 c0 -11 3 -14 6 -6 3 7 2 16 -1 19 -3 4 -6 -2 -5 -13z"/>
<path d="M840 1690 c0 -5 7 -10 15 -10 8 0 15 5 15 10 0 6 -7 10 -15 10 -8 0
-15 -4 -15 -10z"/>
<path d="M1344 1687 c-9 -5 -29 -7 -45 -5 -19 3 -26 1 -20 -5 6 -6 23 -10 38
-11 24 -1 29 -6 34 -36 l6 -35 2 43 c1 35 4 42 21 42 11 0 20 -4 20 -10 0 -5
5 -10 11 -10 6 0 9 7 7 17 -3 18 -48 24 -74 10z"/>
<path d="M1673 1685 c-14 -15 -14 -67 -1 -59 4 3 8 -2 8 -10 0 -9 -3 -16 -7
-16 -12 0 -9 -113 2 -117 6 -2 11 32 13 83 3 70 1 85 -10 78 -11 -6 -11 -5 0
9 18 22 13 51 -5 32z"/>
<path d="M464 1673 c3 -17 16 -30 16 -15 0 6 6 9 13 6 8 -3 19 1 25 8 8 10 3
13 -23 14 -21 0 -32 -4 -31 -13z"/>
<path d="M1048 1673 c7 -3 16 -2 19 1 4 3 -2 6 -13 5 -11 0 -14 -3 -6 -6z"/>
<path d="M1721 1608 c2 -77 6 -69 11 20 2 28 0 52 -4 52 -5 0 -7 -33 -7 -72z"/>
<path d="M1945 1670 c4 -6 11 -8 16 -5 14 9 11 15 -7 15 -8 0 -12 -5 -9 -10z"/>
<path d="M1450 1654 c0 -8 5 -12 10 -9 6 3 10 10 10 16 0 5 -4 9 -10 9 -5 0
-10 -7 -10 -16z"/>
<path d="M1631 1654 c0 -11 3 -14 6 -6 3 7 2 16 -1 19 -3 4 -6 -2 -5 -13z"/>
<path d="M2042 1650 c0 -14 2 -19 5 -12 2 6 2 18 0 25 -3 6 -5 1 -5 -13z"/>
<path d="M936 1633 c-3 -7 1 -13 8 -13 8 0 16 6 19 13 3 8 -1 14 -9 14 -7 0
-15 -6 -18 -14z"/>
<path d="M2072 1625 c0 -16 2 -22 5 -12 2 9 2 23 0 30 -3 6 -5 -1 -5 -18z"/>
<path d="M495 1630 c4 -6 11 -8 16 -5 14 9 11 15 -7 15 -8 0 -12 -5 -9 -10z"/>
<path d="M600 1630 c0 -13 11 -13 30 0 12 8 11 10 -7 10 -13 0 -23 -4 -23 -10z"/>
<path d="M1295 1630 c3 -5 11 -10 16 -10 6 0 7 5 4 10 -3 6 -11 10 -16 10 -6
0 -7 -4 -4 -10z"/>
<path d="M1400 1620 c0 -11 4 -20 8 -20 4 0 8 9 9 20 1 11 -2 20 -8 20 -5 0
-9 -9 -9 -20z"/>
<path d="M394 1603 c3 -8 6 -24 6 -34 0 -12 4 -17 11 -13 6 3 9 15 6 25 -3 11
0 19 6 19 15 0 -1 13 -19 16 -10 2 -14 -3 -10 -13z"/>
<path d="M1258 1606 c-20 -15 -30 -114 -9 -102 4 3 8 24 8 46 0 49 7 57 30 39
17 -13 17 -13 3 6 -8 11 -14 21 -15 22 0 1 -7 -4 -17 -11z"/>
<path d="M476 1595 c4 -8 11 -15 16 -15 6 0 5 6 -2 15 -7 8 -14 15 -16 15 -2
0 -1 -7 2 -15z"/>
<path d="M440 1575 c1 -26 2 -28 11 -12 8 14 8 22 0 30 -8 8 -11 3 -11 -18z"/>
<path d="M940 1590 c0 -5 5 -10 10 -10 6 0 10 5 10 10 0 6 -4 10 -10 10 -5 0
-10 -4 -10 -10z"/>
<path d="M1189 1563 c-2 -24 -1 -43 4 -43 4 0 7 -6 6 -12 -3 -27 1 -48 11 -48
6 0 10 7 10 15 0 8 -6 15 -12 15 -9 0 -8 3 2 10 11 7 12 13 2 32 -6 13 -13 34
-15 48 -2 17 -4 12 -8 -17z"/>
<path d="M1375 1590 c-3 -5 -1 -10 4 -10 6 0 11 5 11 10 0 6 -2 10 -4 10 -3 0
-8 -4 -11 -10z"/>
<path d="M1633 1530 c0 -41 2 -58 4 -37 2 20 2 54 0 75 -2 20 -4 3 -4 -38z"/>
<path d="M2427 1563 c8 -52 13 -54 13 -5 0 23 -4 42 -9 42 -6 0 -7 -17 -4 -37z"/>
<path d="M353 1583 c-18 -6 -16 -33 1 -33 8 0 17 4 20 8 7 12 -7 30 -21 25z"/>
<path d="M1944 1576 c-4 -11 -1 -21 7 -27 17 -11 26 18 10 34 -7 7 -12 5 -17
-7z"/>
<path d="M640 1569 c0 -5 5 -7 10 -4 6 3 10 8 10 11 0 2 -4 4 -10 4 -5 0 -10
-5 -10 -11z"/>
<path d="M721 1558 c-1 -11 -9 -18 -20 -18 -10 0 -21 -7 -25 -15 -4 -11 1 -15
19 -15 25 0 35 -23 15 -35 -6 -4 -8 -11 -4 -16 9 -16 24 1 24 28 0 18 4 24 15
19 16 -6 50 22 39 33 -4 3 -9 0 -11 -6 -8 -22 -31 -14 -41 15 -7 17 -11 21
-11 10z"/>
<path d="M770 1559 c0 -5 5 -7 10 -4 6 3 10 8 10 11 0 2 -4 4 -10 4 -5 0 -10
-5 -10 -11z"/>
<path d="M1320 1550 c0 -5 5 -10 11 -10 5 0 7 5 4 10 -3 6 -8 10 -11 10 -2 0
-4 -4 -4 -10z"/>
<path d="M2380 1546 c0 -9 5 -16 10 -16 6 0 10 4 10 9 0 6 -4 13 -10 16 -5 3
-10 -1 -10 -9z"/>
<path d="M797 1537 c-3 -9 -2 -19 4 -23 15 -9 18 -2 9 20 -6 17 -7 18 -13 3z"/>
<path d="M311 1532 c-1 -19 22 -24 50 -12 22 10 22 10 -8 6 -19 -3 -33 -1 -37
7 -3 9 -5 9 -5 -1z"/>
<path d="M1120 1530 c0 -5 5 -10 11 -10 5 0 7 5 4 10 -3 6 -8 10 -11 10 -2 0
-4 -4 -4 -10z"/>
<path d="M392 1495 c0 -19 5 -35 10 -35 6 0 8 7 4 15 -3 8 -1 15 4 15 6 0 10
9 10 20 0 11 -6 20 -14 20 -9 0 -14 -12 -14 -35z"/>
<path d="M435 1520 c4 -6 11 -8 16 -5 14 9 11 15 -7 15 -8 0 -12 -5 -9 -10z"/>
<path d="M1270 1526 c0 -2 7 -9 15 -16 9 -7 15 -8 15 -2 0 5 -7 12 -15 16 -8
3 -15 4 -15 2z"/>
<path d="M1147 1506 c-3 -8 1 -17 9 -20 8 -3 14 1 14 9 0 20 -17 28 -23 11z"/>
<path d="M1375 1510 c3 -5 8 -10 11 -10 2 0 4 5 4 10 0 6 -5 10 -11 10 -5 0
-7 -4 -4 -10z"/>
<path d="M1728 1513 c7 -3 16 -2 19 1 4 3 -2 6 -13 5 -11 0 -14 -3 -6 -6z"/>
<path d="M2465 1480 c3 -32 0 -40 -13 -40 -14 0 -15 -2 -2 -10 9 -6 17 -5 21
2 4 7 9 3 11 -8 2 -10 4 7 3 38 0 38 -4 58 -12 58 -8 0 -10 -14 -8 -40z"/>
<path d="M667 1475 c-8 -20 -4 -29 11 -24 5 2 6 13 2 23 -6 19 -7 19 -13 1z"/>
<path d="M750 1477 c0 -19 10 -27 26 -20 11 4 12 9 3 19 -15 18 -29 18 -29 1z"/>
<path d="M1236 1483 c-11 -11 -6 -23 9 -23 8 0 15 4 15 9 0 13 -16 22 -24 14z"/>
<path d="M2300 1471 c0 -12 5 -21 10 -21 6 0 10 6 10 14 0 8 -4 18 -10 21 -5
3 -10 -3 -10 -14z"/>
<path d="M309 1465 c-6 -21 17 -52 29 -40 3 3 1 9 -5 13 -6 4 -13 16 -15 27
-4 20 -4 20 -9 0z"/>
<path d="M335 1470 c3 -5 11 -10 16 -10 6 0 7 5 4 10 -3 6 -11 10 -16 10 -6 0
-7 -4 -4 -10z"/>
<path d="M445 1470 c-3 -5 -1 -10 4 -10 6 0 11 5 11 10 0 6 -2 10 -4 10 -3 0
-8 -4 -11 -10z"/>
<path d="M1715 1470 c-3 -6 1 -7 9 -4 18 7 21 14 7 14 -6 0 -13 -4 -16 -10z"/>
<path d="M1930 1470 c0 -5 7 -10 15 -10 8 0 15 5 15 10 0 6 -7 10 -15 10 -8 0
-15 -4 -15 -10z"/>
<path d="M2420 1470 c0 -5 5 -10 11 -10 5 0 7 5 4 10 -3 6 -8 10 -11 10 -2 0
-4 -4 -4 -10z"/>
<path d="M1675 1434 c-4 -22 -9 -47 -12 -56 -2 -10 0 -18 5 -18 5 0 12 24 15
53 6 62 1 75 -8 21z"/>
<path d="M1898 1448 c-17 -17 -28 -92 -15 -104 4 -4 7 -2 7 4 0 7 8 12 18 12
16 1 16 1 -1 11 -12 7 -15 17 -11 37 9 36 11 37 31 21 16 -12 17 -12 7 1 -6 8
-13 20 -15 25 -2 6 -11 3 -21 -7z"/>
<path d="M2340 1459 c0 -5 5 -7 10 -4 6 3 10 8 10 11 0 2 -4 4 -10 4 -5 0 -10
-5 -10 -11z"/>
<path d="M485 1450 c-3 -5 -1 -10 4 -10 6 0 11 5 11 10 0 6 -2 10 -4 10 -3 0
-8 -4 -11 -10z"/>
<path d="M620 1456 c0 -2 8 -10 18 -17 15 -13 16 -12 3 4 -13 16 -21 21 -21
13z"/>
<path d="M1141 1450 c-18 -11 0 -19 23 -10 16 5 17 8 4 12 -8 4 -21 3 -27 -2z"/>
<path d="M234 1383 c-1 -42 3 -62 10 -60 15 5 18 114 3 120 -8 3 -12 -16 -13
-60z"/>
<path d="M1192 1410 c-2 -46 11 -80 25 -67 4 5 2 11 -4 15 -6 4 -13 28 -16 52
l-4 45 -1 -45z"/>
<path d="M1720 1441 c0 -5 5 -13 10 -16 6 -3 10 -2 10 4 0 5 -4 13 -10 16 -5
3 -10 2 -10 -4z"/>
<path d="M2075 1439 c-11 -16 -1 -19 13 -3 7 8 8 14 3 14 -5 0 -13 -5 -16 -11z"/>
<path d="M183 1429 c14 -8 22 -8 30 0 8 8 3 11 -18 11 -26 -1 -28 -2 -12 -11z"/>
<path d="M277 1433 c-2 -4 -1 -17 3 -28 7 -19 8 -19 15 -2 8 18 -9 46 -18 30z"/>
<path d="M690 1431 c8 -6 17 -8 21 -5 4 2 9 -4 11 -13 3 -15 5 -14 10 5 5 19
2 22 -25 22 -24 0 -28 -3 -17 -9z"/>
<path d="M1235 1431 c-6 -11 9 -23 19 -14 9 9 7 23 -3 23 -6 0 -12 -4 -16 -9z"/>
<path d="M1280 1430 c0 -5 5 -10 10 -10 6 0 10 5 10 10 0 6 -4 10 -10 10 -5 0
-10 -4 -10 -10z"/>
<path d="M1633 1365 c0 -44 2 -61 4 -37 2 23 2 59 0 80 -2 20 -4 1 -4 -43z"/>
<path d="M1829 1418 c0 -13 -2 -39 -3 -58 -3 -42 10 -63 35 -55 14 5 19 1 19
-12 1 -17 1 -17 11 0 14 24 4 35 -26 29 -19 -3 -25 0 -25 12 0 10 5 14 10 11
6 -3 10 1 10 10 0 9 -4 13 -10 10 -14 -9 -13 48 2 63 9 9 8 12 -5 12 -11 0
-17 -8 -18 -22z"/>
<path d="M2300 1420 c0 -11 5 -20 10 -20 6 0 10 9 10 20 0 11 -4 20 -10 20 -5
0 -10 -9 -10 -20z"/>
<path d="M2392 1428 c-16 -16 -15 -28 1 -28 7 0 13 9 14 20 2 23 1 24 -15 8z"/>
<path d="M405 1420 c-3 -5 -1 -10 4 -10 6 0 11 5 11 10 0 6 -2 10 -4 10 -3 0
-8 -4 -11 -10z"/>
<path d="M1111 1414 c0 -11 3 -14 6 -6 3 7 2 16 -1 19 -3 4 -6 -2 -5 -13z"/>
<path d="M480 1409 c0 -5 5 -7 10 -4 6 3 10 8 10 11 0 2 -4 4 -10 4 -5 0 -10
-5 -10 -11z"/>
<path d="M605 1410 c-3 -5 -1 -10 4 -10 6 0 11 5 11 10 0 6 -2 10 -4 10 -3 0
-8 -4 -11 -10z"/>
<path d="M1760 1400 c0 -11 5 -20 10 -20 6 0 10 9 10 20 0 11 -4 20 -10 20 -5
0 -10 -9 -10 -20z"/>
<path d="M2340 1410 c0 -5 5 -10 10 -10 6 0 10 5 10 10 0 6 -4 10 -10 10 -5 0
-10 -4 -10 -10z"/>
<path d="M561 1392 c0 -13 -5 -20 -11 -17 -6 4 -17 1 -25 -5 -12 -10 -18 -10
-30 0 -9 7 -15 8 -15 2 0 -5 7 -13 15 -16 11 -4 15 -17 13 -40 -1 -20 1 -38 5
-42 7 -8 10 15 8 52 -2 20 2 22 38 20 23 -1 47 1 54 6 7 5 2 8 -15 8 -21 0
-27 5 -31 28 -3 23 -4 23 -6 4z"/>
<path d="M641 1384 c0 -11 3 -14 6 -6 3 7 2 16 -1 19 -3 4 -6 -2 -5 -13z"/>
<path d="M1140 1390 c0 -5 5 -10 10 -10 6 0 10 5 10 10 0 6 -4 10 -10 10 -5 0
-10 -4 -10 -10z"/>
<path d="M1237 1380 c3 -11 7 -20 8 -20 1 0 5 9 8 20 3 12 0 20 -8 20 -8 0
-11 -8 -8 -20z"/>
<path d="M1111 1380 c-1 -21 16 -46 26 -37 4 5 3 11 -3 15 -6 4 -14 14 -17 22
-5 13 -5 13 -6 0z"/>
<path d="M2397 1375 c-7 -17 -37 -21 -37 -5 0 6 -13 10 -30 10 -16 0 -30 -4
-30 -9 0 -5 -10 -12 -22 -15 -13 -2 -3 -3 22 -1 25 2 51 -2 58 -8 10 -8 19 -5
34 11 12 12 19 24 16 27 -3 3 -8 -1 -11 -10z"/>
<path d="M185 1370 c-3 -5 3 -10 15 -10 12 0 18 5 15 10 -3 6 -10 10 -15 10
-5 0 -12 -4 -15 -10z"/>
<path d="M277 1373 c-2 -5 -1 -19 4 -33 8 -27 9 -26 13 8 3 23 -9 39 -17 25z"/>
<path d="M1050 1370 c0 -5 5 -10 11 -10 5 0 7 5 4 10 -3 6 -8 10 -11 10 -2 0
-4 -4 -4 -10z"/>
<path d="M1715 1370 c-3 -5 1 -10 9 -10 9 0 16 5 16 10 0 6 -4 10 -9 10 -6 0
-13 -4 -16 -10z"/>
<path d="M640 1344 c0 -14 3 -15 18 -3 9 7 19 15 21 16 2 2 -5 3 -17 3 -14 0
-22 -6 -22 -16z"/>
<path d="M720 1349 c0 -5 5 -7 10 -4 6 3 10 8 10 11 0 2 -4 4 -10 4 -5 0 -10
-5 -10 -11z"/>
<path d="M1080 1336 c0 -14 4 -26 8 -26 11 0 12 39 1 45 -5 4 -9 -5 -9 -19z"/>
<path d="M1160 1350 c0 -5 5 -10 11 -10 5 0 7 5 4 10 -3 6 -8 10 -11 10 -2 0
-4 -4 -4 -10z"/>
<path d="M1580 1349 c0 -5 5 -7 10 -4 6 3 10 8 10 11 0 2 -4 4 -10 4 -5 0 -10
-5 -10 -11z"/>
<path d="M1760 1334 c0 -18 5 -25 17 -22 24 5 26 21 3 36 -18 11 -20 10 -20
-14z"/>
<path d="M1662 1202 c-1 -81 -4 -164 -8 -184 -3 -20 -1 -53 6 -73 9 -27 9 -40
1 -48 -8 -8 -11 -1 -11 26 0 20 -4 37 -10 37 -5 0 -10 18 -10 40 0 22 4 40 9
40 4 0 7 17 7 38 -1 20 -3 75 -4 121 -3 147 -13 80 -17 -123 -4 -189 -3 -196
16 -196 15 0 19 -7 20 -37 0 -21 2 -45 5 -53 14 -54 15 -70 5 -70 -16 0 -13
-26 5 -41 13 -11 14 -9 9 14 -4 16 -3 27 3 27 6 0 8 17 5 43 -4 33 -3 40 7 30
7 -6 19 -9 27 -6 8 3 19 0 24 -8 7 -11 9 -11 9 3 0 9 6 19 13 21 9 4 9 8 0 14
-6 4 -13 19 -16 33 -2 14 -3 8 -2 -12 2 -30 -1 -38 -13 -38 -19 0 -18 -4 -30
193 -4 83 -4 127 3 127 6 0 11 -39 12 -93 1 -50 2 -105 2 -121 1 -16 4 -27 7
-23 8 8 6 156 -2 250 -5 47 -11 67 -20 67 -9 0 -14 -12 -14 -37 0 -21 -5 -45
-11 -53 -7 -10 -8 17 -3 93 4 74 3 107 -4 107 -6 0 -9 6 -6 14 3 8 1 16 -4 20
-5 3 -9 -58 -10 -142z m22 -204 c4 -24 3 -38 -4 -38 -5 0 -10 19 -10 42 0 49
5 47 14 -4z m16 -143 c0 -14 -4 -25 -10 -25 -5 0 -10 11 -10 25 0 14 5 25 10
25 6 0 10 -11 10 -25z"/>
<path d="M1721 1334 c0 -11 3 -14 6 -6 3 7 2 16 -1 19 -3 4 -6 -2 -5 -13z"/>
<path d="M2020 1339 c0 -5 5 -7 10 -4 6 3 10 8 10 11 0 2 -4 4 -10 4 -5 0 -10
-5 -10 -11z"/>
<path d="M187 1334 c-8 -8 1 -24 13 -24 4 0 10 7 14 15 5 15 -14 21 -27 9z"/>
<path d="M598 1334 c-6 -37 -2 -61 10 -57 7 3 10 8 8 11 -3 3 -1 11 4 17 7 9
6 16 -5 25 -8 7 -16 9 -17 4z"/>
<path d="M556 1319 c3 -6 0 -15 -7 -20 -12 -8 -12 -10 0 -18 12 -8 13 -16 4
-45 -7 -23 -8 -38 -1 -42 5 -3 7 -13 4 -21 -3 -8 -1 -11 4 -8 13 8 13 35 0 35
-7 0 -7 6 -1 18 12 23 12 112 0 112 -6 0 -7 -5 -3 -11z"/>
<path d="M2270 1315 c0 -14 6 -21 20 -21 11 0 20 6 20 14 0 7 -5 10 -11 6 -6
-3 -15 0 -20 7 -7 11 -9 9 -9 -6z"/>
<path d="M2356 1314 c-8 -22 1 -31 16 -16 9 9 9 15 1 23 -7 7 -12 5 -17 -7z"/>
<path d="M1160 1309 c0 -5 5 -7 10 -4 6 3 10 8 10 11 0 2 -4 4 -10 4 -5 0 -10
-5 -10 -11z"/>
<path d="M2321 1303 c-1 -19 -7 -23 -32 -23 -16 0 -28 -4 -25 -9 3 -4 17 -6
30 -4 21 4 25 1 29 -23 l4 -29 2 27 c1 21 7 28 29 31 l27 4 -27 2 c-19 1 -28
7 -31 24 l-4 22 -2 -22z"/>
<path d="M1031 1294 c0 -11 3 -14 6 -6 3 7 2 16 -1 19 -3 4 -6 -2 -5 -13z"/>
<path d="M180 1290 c-12 -8 -10 -10 8 -10 13 0 20 4 17 10 -7 12 -6 12 -25 0z"/>
<path d="M239 1292 c-1 -4 -2 -21 -4 -39 -2 -27 -1 -30 11 -18 17 17 18 32 2
38 -7 3 2 6 21 6 19 1 31 4 28 8 -10 9 -57 13 -58 5z"/>
<path d="M1075 1290 c-4 -6 6 -10 22 -10 22 0 25 2 13 10 -19 12 -27 12 -35 0z"/>
<path d="M1288 1283 c7 -3 16 -2 19 1 4 3 -2 6 -13 5 -11 0 -14 -3 -6 -6z"/>
<path d="M1718 1283 c7 -3 16 -2 19 1 4 3 -2 6 -13 5 -11 0 -14 -3 -6 -6z"/>
<path d="M1754 1268 c0 -16 1 -16 21 0 11 9 22 18 24 19 3 2 -7 2 -20 1 -16
-1 -25 -8 -25 -20z"/>
<path d="M2018 1283 c7 -3 16 -2 19 1 4 3 -2 6 -13 5 -11 0 -14 -3 -6 -6z"/>
<path d="M311 1264 c0 -11 3 -14 6 -6 3 7 2 16 -1 19 -3 4 -6 -2 -5 -13z"/>
<path d="M1463 1265 c0 -8 4 -12 9 -9 5 3 6 10 3 15 -9 13 -12 11 -12 -6z"/>
<path d="M2400 1270 c0 -5 5 -10 10 -10 6 0 10 5 10 10 0 6 -4 10 -10 10 -5 0
-10 -4 -10 -10z"/>
<path d="M151 1254 c0 -11 3 -14 6 -6 3 7 2 16 -1 19 -3 4 -6 -2 -5 -13z"/>
<path d="M984 1256 c-4 -11 -1 -21 7 -27 17 -11 26 18 10 34 -7 7 -12 5 -17
-7z"/>
<path d="M1034 1256 c-3 -7 -4 -19 -2 -26 4 -15 -49 -32 -74 -24 -19 6 -26
-20 -8 -31 6 -3 10 -2 10 3 0 6 10 8 22 4 14 -3 19 -2 14 6 -5 8 0 12 12 12
16 0 19 -7 18 -40 -1 -22 2 -40 6 -40 4 0 8 13 8 28 0 21 5 28 20 29 11 1 20
-4 19 -10 -1 -7 -1 -21 1 -32 1 -19 2 -19 9 -2 11 30 1 86 -15 80 -10 -4 -14
3 -14 26 0 31 -16 42 -26 17z"/>
<path d="M280 1250 c0 -5 5 -10 11 -10 5 0 7 5 4 10 -3 6 -8 10 -11 10 -2 0
-4 -4 -4 -10z"/>
<path d="M1072 1249 c2 -6 8 -10 13 -10 5 0 11 4 13 10 2 6 -4 11 -13 11 -9 0
-15 -5 -13 -11z"/>
<path d="M1111 1244 c0 -11 3 -14 6 -6 3 7 2 16 -1 19 -3 4 -6 -2 -5 -13z"/>
<path d="M1710 1250 c0 -5 5 -10 11 -10 5 0 7 5 4 10 -3 6 -8 10 -11 10 -2 0
-4 -4 -4 -10z"/>
<path d="M512 1230 c0 -14 2 -19 5 -12 2 6 2 18 0 25 -3 6 -5 1 -5 -13z"/>
<path d="M1880 1234 c0 -8 5 -12 10 -9 6 4 8 11 5 16 -9 14 -15 11 -15 -7z"/>
<path d="M595 1231 c-3 -5 -2 -12 3 -15 5 -3 9 1 9 9 0 17 -3 19 -12 6z"/>
<path d="M1753 1225 c-9 -24 1 -27 15 -5 8 13 8 20 2 20 -6 0 -13 -7 -17 -15z"/>
<path d="M1800 1229 c0 -5 5 -7 10 -4 6 3 10 8 10 11 0 2 -4 4 -10 4 -5 0 -10
-5 -10 -11z"/>
<path d="M1920 1230 c0 -5 5 -10 10 -10 6 0 10 5 10 10 0 6 -4 10 -10 10 -5 0
-10 -4 -10 -10z"/>
<path d="M2260 1225 c0 -8 5 -15 10 -15 6 0 10 7 10 15 0 8 -4 15 -10 15 -5 0
-10 -7 -10 -15z"/>
<path d="M71 1214 c0 -11 3 -14 6 -6 3 7 2 16 -1 19 -3 4 -6 -2 -5 -13z"/>
<path d="M151 1214 c0 -11 3 -14 6 -6 3 7 2 16 -1 19 -3 4 -6 -2 -5 -13z"/>
<path d="M2125 1220 c3 -5 8 -10 11 -10 2 0 4 5 4 10 0 6 -5 10 -11 10 -5 0
-7 -4 -4 -10z"/>
<path d="M2363 1218 c5 -15 0 -18 -31 -18 -26 0 -33 -3 -23 -9 8 -5 20 -7 28
-4 9 4 13 -5 13 -31 0 -28 4 -36 18 -35 10 0 12 3 5 6 -16 6 -17 55 -1 71 9 9
9 15 -1 25 -11 10 -13 9 -8 -5z"/>
<path d="M311 1184 c0 -11 3 -14 6 -6 3 7 2 16 -1 19 -3 4 -6 -2 -5 -13z"/>
<path d="M505 1165 c2 -50 15 -56 15 -7 0 23 -4 42 -8 42 -4 0 -7 -16 -7 -35z"/>
<path d="M598 1160 c-2 -22 0 -40 4 -40 5 0 8 18 8 40 0 22 -2 40 -4 40 -2 0
-6 -18 -8 -40z"/>
<path d="M1890 1192 c0 -5 7 -9 15 -9 8 0 15 4 15 9 0 4 -7 8 -15 8 -8 0 -15
-4 -15 -8z"/>
<path d="M2260 1190 c0 -5 4 -10 9 -10 6 0 13 5 16 10 3 6 -1 10 -9 10 -9 0
-16 -4 -16 -10z"/>
<path d="M73 1155 c0 -22 2 -30 4 -17 2 12 2 30 0 40 -3 9 -5 -1 -4 -23z"/>
<path d="M104 1174 c3 -8 1 -24 -4 -35 -8 -15 -7 -19 5 -19 11 0 15 -11 16
-42 1 -36 2 -39 8 -18 8 27 7 37 -8 87 -5 17 -7 34 -3 37 3 3 0 6 -7 6 -8 0
-11 -6 -7 -16z"/>
<path d="M200 1175 c0 -8 5 -15 10 -15 6 0 10 7 10 15 0 8 -4 15 -10 15 -5 0
-10 -7 -10 -15z"/>
<path d="M1131 1174 c0 -11 3 -14 6 -6 3 7 2 16 -1 19 -3 4 -6 -2 -5 -13z"/>
<path d="M1753 1155 c0 -22 2 -30 4 -17 2 12 2 30 0 40 -3 9 -5 -1 -4 -23z"/>
<path d="M2105 1170 c3 -5 8 -10 11 -10 2 0 4 5 4 10 0 6 -5 10 -11 10 -5 0
-7 -4 -4 -10z"/>
<path d="M2140 1170 c0 -5 5 -10 10 -10 6 0 10 5 10 10 0 6 -4 10 -10 10 -5 0
-10 -4 -10 -10z"/>
<path d="M2263 1154 c-3 -8 -1 -20 6 -27 8 -8 11 -4 11 16 0 30 -7 35 -17 11z"/>
<path d="M975 1150 c3 -5 10 -10 16 -10 5 0 9 5 9 10 0 6 -7 10 -16 10 -8 0
-12 -4 -9 -10z"/>
<path d="M1840 1150 c0 -5 5 -10 10 -10 6 0 10 5 10 10 0 6 -4 10 -10 10 -5 0
-10 -4 -10 -10z"/>
<path d="M1880 1150 c0 -5 5 -10 11 -10 5 0 7 5 4 10 -3 6 -8 10 -11 10 -2 0
-4 -4 -4 -10z"/>
<path d="M460 1141 c0 -6 5 -13 10 -16 6 -3 11 -23 11 -43 1 -20 3 -29 6 -19
7 26 -6 87 -17 87 -6 0 -10 -4 -10 -9z"/>
<path d="M876 1123 c2 -12 0 -24 -6 -28 -5 -3 -7 -12 -4 -20 8 -19 -32 -38
-64 -31 -15 3 -22 3 -15 0 7 -3 11 -11 9 -17 -1 -7 -1 -9 1 -6 2 4 13 5 23 2
11 -3 20 0 20 6 0 6 7 11 16 11 12 0 14 -9 11 -40 -2 -22 0 -40 5 -40 4 0 8
14 8 30 0 23 4 30 20 30 16 0 19 -6 16 -30 -4 -32 10 -42 17 -12 8 30 2 97 -8
97 -5 0 -8 -8 -7 -17 2 -12 -3 -18 -17 -18 -23 0 -28 15 -8 23 10 4 10 6 0 6
-7 1 -13 8 -13 16 0 15 10 19 43 16 9 -1 17 3 17 8 0 6 -13 11 -29 11 -16 0
-31 6 -34 13 -2 6 -2 2 -1 -10z"/>
<path d="M1601 1134 c0 -11 3 -14 6 -6 3 7 2 16 -1 19 -3 4 -6 -2 -5 -13z"/>
<path d="M320 1130 c0 -5 5 -10 10 -10 6 0 10 5 10 10 0 6 -4 10 -10 10 -5 0
-10 -4 -10 -10z"/>
<path d="M950 1133 c0 -15 19 -37 26 -31 3 4 -1 14 -10 23 -9 9 -16 13 -16 8z"/>
<path d="M2180 1129 c0 -5 5 -7 10 -4 6 3 10 8 10 11 0 2 -4 4 -10 4 -5 0 -10
-5 -10 -11z"/>
<path d="M158 1108 c2 -10 8 -18 13 -18 4 0 7 8 6 18 0 10 -6 19 -13 19 -6 0
-9 -9 -6 -19z"/>
<path d="M1100 1115 c-20 -11 -21 -14 -7 -15 10 0 25 7 33 15 19 19 7 19 -26
0z"/>
<path d="M2316 1117 c3 -10 9 -15 12 -12 3 3 0 11 -7 18 -10 9 -11 8 -5 -6z"/>
<path d="M26 1112 c7 -4 14 -18 17 -32 4 -21 4 -20 6 8 1 24 -3 32 -16 32 -12
0 -14 -3 -7 -8z"/>
<path d="M368 1113 c6 -2 18 -2 25 0 6 3 1 5 -13 5 -14 0 -19 -2 -12 -5z"/>
<path d="M561 1104 c0 -11 3 -14 6 -6 3 7 2 16 -1 19 -3 4 -6 -2 -5 -13z"/>
<path d="M800 1095 c0 -17 4 -23 15 -19 11 5 12 11 4 25 -13 26 -19 24 -19 -6z"/>
<path d="M1582 1095 c0 -16 2 -22 5 -12 2 9 2 23 0 30 -3 6 -5 -1 -5 -18z"/>
<path d="M2160 1087 c0 -34 -1 -36 -24 -27 -24 9 -36 5 -36 -12 0 -4 18 -8 39
-8 l40 0 -6 38 c-8 50 -13 53 -13 9z"/>
<path d="M2240 1105 c0 -8 2 -15 4 -15 2 0 6 7 10 15 3 8 1 15 -4 15 -6 0 -10
-7 -10 -15z"/>
<path d="M445 1101 c-3 -5 -1 -12 5 -16 5 -3 10 1 10 9 0 18 -6 21 -15 7z"/>
<path d="M1772 1090 c0 -14 2 -19 5 -12 2 6 2 18 0 25 -3 6 -5 1 -5 -13z"/>
<path d="M2105 1090 c-3 -5 -1 -10 4 -10 6 0 11 5 11 10 0 6 -2 10 -4 10 -3 0
-8 -4 -11 -10z"/>
<path d="M2205 1090 c-3 -5 -2 -10 4 -10 5 0 13 5 16 10 3 6 2 10 -4 10 -5 0
-13 -4 -16 -10z"/>
<path d="M79 1036 c-2 -32 -1 -60 4 -63 8 -5 8 -5 12 52 2 21 0 46 -5 54 -5
10 -9 -6 -11 -43z"/>
<path d="M322 1060 c0 -14 2 -19 5 -12 2 6 2 18 0 25 -3 6 -5 1 -5 -13z"/>
<path d="M370 1070 c0 -5 5 -10 11 -10 5 0 7 5 4 10 -3 6 -8 10 -11 10 -2 0
-4 -4 -4 -10z"/>
<path d="M401 1058 c-1 -10 -6 -18 -12 -18 -8 0 -8 -4 0 -14 8 -10 9 -16 1
-21 -5 -3 -10 -20 -10 -36 0 -18 4 -28 10 -24 6 4 10 -8 10 -27 0 -27 -4 -34
-20 -35 -17 -2 -20 5 -21 40 0 30 -2 36 -8 22 -4 -11 -6 -45 -5 -75 2 -75 3
-77 14 -60 5 8 7 23 4 33 -4 12 0 17 15 17 12 0 21 -4 21 -10 0 -5 -5 -10 -11
-10 -8 0 -8 -4 0 -14 9 -11 9 -15 -1 -19 -7 -3 -3 -6 8 -6 17 -1 21 4 18 26
-3 32 10 61 20 44 9 -15 34 -14 50 2 7 6 11 29 10 51 -4 56 -14 57 -14 2 0
-34 -4 -46 -12 -43 -8 2 -12 16 -10 31 3 20 0 27 -10 24 -7 -3 -12 -15 -11
-27 2 -13 -3 -21 -12 -21 -16 0 -23 55 -14 111 3 19 2 44 -2 55 -7 16 -8 17
-8 2z"/>
<path d="M2202 1048 c-8 -8 -9 -15 -1 -25 8 -9 8 -13 0 -13 -6 0 -11 -9 -11
-21 0 -12 5 -19 13 -16 6 2 12 16 12 30 1 33 13 46 25 27 6 -10 10 -11 10 -3
0 19 -35 34 -48 21z"/>
<path d="M42 1010 c0 -19 2 -27 5 -17 2 9 2 25 0 35 -3 9 -5 1 -5 -18z"/>
<path d="M438 1033 c6 -2 18 -2 25 0 6 3 1 5 -13 5 -14 0 -19 -2 -12 -5z"/>
<path d="M1463 960 c0 -47 2 -66 4 -42 2 23 2 61 0 85 -2 23 -4 4 -4 -43z"/>
<path d="M1583 1000 c0 -25 2 -35 4 -22 2 12 2 32 0 45 -2 12 -4 2 -4 -23z"/>
<path d="M122 1000 c0 -14 2 -19 5 -12 2 6 2 18 0 25 -3 6 -5 1 -5 -13z"/>
<path d="M2104 1012 c3 -5 17 -8 31 -7 27 3 34 -15 12 -34 -10 -8 -17 -7 -26
2 -9 9 -14 9 -21 -3 -9 -13 -11 -13 -19 0 -6 8 -13 11 -17 8 -3 -4 0 -14 9
-22 8 -8 18 -12 22 -8 15 16 60 7 66 -13 4 -11 6 3 5 30 -1 49 -2 50 -35 53
-19 2 -31 -1 -27 -6z"/>
<path d="M152 980 c0 -14 2 -19 5 -12 2 6 2 18 0 25 -3 6 -5 1 -5 -13z"/>
<path d="M810 990 c0 -5 4 -10 9 -10 6 0 13 5 16 10 3 6 -1 10 -9 10 -9 0 -16
-4 -16 -10z"/>
<path d="M969 998 c-6 -21 -5 -38 2 -38 5 0 9 9 9 20 0 16 -7 28 -11 18z"/>
<path d="M714 971 c1 -17 26 -28 26 -11 0 6 -4 9 -9 5 -5 -3 -11 0 -14 7 -2 9
-4 8 -3 -1z"/>
<path d="M123 935 c0 -22 2 -30 4 -17 2 12 2 30 0 40 -3 9 -5 -1 -4 -23z"/>
<path d="M797 954 c3 -7 9 -14 14 -14 14 0 10 17 -5 23 -10 4 -13 1 -9 -9z"/>
<path d="M30 830 c0 -71 3 -130 8 -130 4 0 7 59 7 130 0 72 -3 130 -7 130 -5
0 -8 -58 -8 -130z"/>
<path d="M76 862 c1 -163 3 -194 14 -187 14 9 12 82 -2 88 -10 4 -10 6 0 6 6
1 12 6 12 12 0 5 -4 7 -10 4 -5 -3 -10 -1 -10 4 0 6 5 11 10 11 6 0 10 18 10
40 0 24 -5 40 -12 40 -9 0 -9 3 0 12 16 16 16 68 0 68 -10 0 -13 -26 -12 -98z"/>
<path d="M438 953 c7 -3 16 -2 19 1 4 3 -2 6 -13 5 -11 0 -14 -3 -6 -6z"/>
<path d="M755 950 c3 -5 10 -10 16 -10 5 0 9 5 9 10 0 6 -7 10 -16 10 -8 0
-12 -4 -9 -10z"/>
<path d="M1770 949 c0 -5 5 -7 10 -4 6 3 10 8 10 11 0 2 -4 4 -10 4 -5 0 -10
-5 -10 -11z"/>
<path d="M1988 953 c7 -3 16 -2 19 1 4 3 -2 6 -13 5 -11 0 -14 -3 -6 -6z"/>
<path d="M153 885 c0 -38 2 -53 4 -32 2 20 2 52 0 70 -2 17 -4 1 -4 -38z"/>
<path d="M975 940 c-3 -5 1 -10 10 -10 9 0 13 5 10 10 -3 6 -8 10 -10 10 -2 0
-7 -4 -10 -10z"/>
<path d="M710 933 c-1 -7 -3 -19 -4 -25 -1 -13 -83 -29 -101 -20 -5 3 -2 -4 8
-14 15 -16 19 -17 27 -4 7 11 10 11 10 2 0 -8 10 -12 28 -10 25 3 27 0 26 -29
0 -31 2 -33 32 -33 17 0 34 6 37 13 8 23 0 62 -14 63 -8 1 -19 2 -26 3 -6 0
-14 16 -16 34 -2 17 -5 26 -7 20z m48 -98 c0 -18 -6 -25 -19 -25 -14 0 -19 7
-19 25 0 18 5 25 19 25 13 0 19 -7 19 -25z"/>
<path d="M1992 931 c-8 -4 -13 -11 -13 -15 4 -25 -1 -36 -17 -36 -11 0 -18 -8
-19 -20 -1 -11 4 -20 13 -20 8 0 14 8 15 18 0 13 2 14 6 2 3 -8 10 -18 16 -21
18 -12 -4 -31 -29 -25 -14 4 -24 2 -24 -4 0 -9 6 -11 43 -14 6 -1 15 -12 19
-26 3 -14 5 2 4 35 -2 33 0 67 4 75 11 24 -3 61 -18 51z"/>
<path d="M2045 930 c-3 -5 -1 -10 4 -10 6 0 11 5 11 10 0 6 -2 10 -4 10 -3 0
-8 -4 -11 -10z"/>
<path d="M370 920 c0 -5 5 -10 10 -10 6 0 10 5 10 10 0 6 -4 10 -10 10 -5 0
-10 -4 -10 -10z"/>
<path d="M755 920 c-4 -6 -11 -7 -17 -4 -7 4 -8 2 -4 -4 10 -17 46 -15 46 3 0
17 -16 20 -25 5z"/>
<path d="M2080 896 c0 -20 4 -35 9 -32 10 6 8 52 -3 63 -3 3 -6 -10 -6 -31z"/>
<path d="M123 830 c0 -36 2 -50 4 -32 2 17 2 47 0 65 -2 17 -4 3 -4 -33z"/>
<path d="M525 880 c-11 -5 -15 -9 -8 -9 6 -1 18 -4 27 -7 11 -4 16 -1 16 10 0
18 -6 19 -35 6z"/>
<path d="M1582 860 c0 -14 2 -19 5 -12 2 6 2 18 0 25 -3 6 -5 1 -5 -13z"/>
<path d="M2029 871 c10 -6 10 -13 2 -29 -8 -15 -7 -23 4 -32 15 -13 20 -2 17
40 0 8 5 18 11 22 7 4 -1 8 -18 8 -21 0 -26 -3 -16 -9z"/>
<path d="M1631 854 c0 -11 3 -14 6 -6 3 7 2 16 -1 19 -3 4 -6 -2 -5 -13z"/>
<path d="M645 840 c-18 -8 -17 -9 8 -9 16 -1 26 3 22 9 -3 6 -7 10 -8 9 -1 0
-11 -4 -22 -9z"/>
<path d="M448 833 c7 -3 16 -2 19 1 4 3 -2 6 -13 5 -11 0 -14 -3 -6 -6z"/>
<path d="M480 820 c0 -11 4 -20 8 -20 4 0 8 9 9 20 1 11 -2 20 -8 20 -5 0 -9
-9 -9 -20z"/>
<path d="M536 832 c-2 -4 11 -8 29 -8 19 0 32 3 29 8 -7 10 -51 11 -58 0z"/>
<path d="M800 830 c0 -5 5 -10 10 -10 6 0 10 5 10 10 0 6 -4 10 -10 10 -5 0
-10 -4 -10 -10z"/>
<path d="M1626 815 c-3 -8 -1 -15 4 -15 6 0 10 7 10 15 0 8 -2 15 -4 15 -2 0
-6 -7 -10 -15z"/>
<path d="M448 803 c7 -3 16 -2 19 1 4 3 -2 6 -13 5 -11 0 -14 -3 -6 -6z"/>
<path d="M643 803 c9 -2 25 -2 35 0 9 3 1 5 -18 5 -19 0 -27 -2 -17 -5z"/>
<path d="M795 799 c-4 -6 -5 -12 -2 -15 2 -3 7 2 10 11 7 17 1 20 -8 4z"/>
<path d="M153 765 c0 -22 2 -30 4 -17 2 12 2 30 0 40 -3 9 -5 -1 -4 -23z"/>
<path d="M515 780 c3 -5 12 -7 20 -3 21 7 19 13 -6 13 -11 0 -18 -4 -14 -10z"/>
<path d="M588 783 c7 -3 16 -2 19 1 4 3 -2 6 -13 5 -11 0 -14 -3 -6 -6z"/>
<path d="M815 780 c-3 -5 1 -10 10 -10 9 0 13 5 10 10 -3 6 -8 10 -10 10 -2 0
-7 -4 -10 -10z"/>
<path d="M1632 770 c0 -14 2 -19 5 -12 2 6 2 18 0 25 -3 6 -5 1 -5 -13z"/>
<path d="M1775 770 c-3 -5 -1 -10 4 -10 6 0 11 5 11 10 0 6 -2 10 -4 10 -3 0
-8 -4 -11 -10z"/>
<path d="M122 735 c0 -16 2 -22 5 -12 2 9 2 23 0 30 -3 6 -5 -1 -5 -18z"/>
<path d="M515 750 c3 -5 8 -10 11 -10 2 0 4 5 4 10 0 6 -5 10 -11 10 -5 0 -7
-4 -4 -10z"/>
<path d="M580 750 c0 -5 7 -7 15 -4 8 4 15 8 15 10 0 2 -7 4 -15 4 -8 0 -15
-4 -15 -10z"/>
<path d="M1920 729 c0 -18 3 -29 7 -25 11 11 13 45 3 51 -6 4 -10 -7 -10 -26z"/>
<path d="M1631 705 c-1 -22 -4 -48 -6 -59 -2 -12 0 -15 6 -9 6 6 8 32 6 59 -3
47 -3 48 -6 9z"/>
<path d="M1710 731 c0 -17 20 -23 51 -16 24 5 28 10 19 19 -10 8 -14 8 -17 -1
-6 -15 -33 -17 -33 -3 0 6 -4 10 -10 10 -5 0 -10 -4 -10 -9z"/>
<path d="M1820 719 c-18 -5 -10 -7 28 -8 28 -1 52 1 52 3 0 8 -56 12 -80 5z"/>
<path d="M165 710 c3 -5 8 -10 11 -10 2 0 4 5 4 10 0 6 -5 10 -11 10 -5 0 -7
-4 -4 -10z"/>
<path d="M482 690 c0 -19 2 -27 5 -17 2 9 2 25 0 35 -3 9 -5 1 -5 -18z"/>
<path d="M530 711 c0 -5 7 -11 15 -15 9 -3 15 0 15 9 0 8 -7 15 -15 15 -8 0
-15 -4 -15 -9z"/>
<path d="M585 710 c-3 -5 1 -10 10 -10 9 0 13 5 10 10 -3 6 -8 10 -10 10 -2 0
-7 -4 -10 -10z"/>
<path d="M632 690 c0 -19 2 -27 5 -17 2 9 2 25 0 35 -3 9 -5 1 -5 -18z"/>
<path d="M120 671 c0 -25 6 -27 13 -6 4 8 2 17 -3 20 -6 4 -10 -3 -10 -14z"/>
<path d="M312 660 c0 -14 2 -19 5 -12 2 6 2 18 0 25 -3 6 -5 1 -5 -13z"/>
<path d="M535 670 c3 -5 10 -10 16 -10 5 0 9 5 9 10 0 6 -7 10 -16 10 -8 0
-12 -4 -9 -10z"/>
<path d="M583 660 c2 -24 13 -26 21 -4 8 22 8 24 -8 24 -9 0 -14 -9 -13 -20z"/>
<path d="M1765 670 c4 -6 11 -8 16 -5 14 9 11 15 -7 15 -8 0 -12 -5 -9 -10z"/>
<path d="M1674 646 c-6 -6 -9 -27 -8 -46 1 -19 -3 -39 -9 -43 -8 -6 -7 -7 3
-4 10 2 17 21 21 53 7 57 7 56 -7 40z"/>
<path d="M368 643 c6 -2 18 -2 25 0 6 3 1 5 -13 5 -14 0 -19 -2 -12 -5z"/>
<path d="M67 588 c7 -72 13 -73 13 -5 0 32 -4 57 -9 57 -5 0 -7 -23 -4 -52z"/>
<path d="M100 599 c0 -25 4 -39 11 -37 6 2 10 7 10 11 -1 4 -1 21 -1 37 0 17
-4 30 -10 30 -5 0 -10 -18 -10 -41z"/>
<path d="M153 605 c0 -22 2 -30 4 -17 2 12 2 30 0 40 -3 9 -5 -1 -4 -23z"/>
<path d="M1503 620 c-1 -11 2 -20 8 -20 5 0 9 9 9 20 0 11 -4 20 -8 20 -4 0
-8 -9 -9 -20z"/>
<path d="M550 620 c-13 -8 -12 -10 3 -10 9 0 17 5 17 10 0 12 -1 12 -20 0z"/>
<path d="M1465 610 c3 -5 8 -10 11 -10 2 0 4 5 4 10 0 6 -5 10 -11 10 -5 0 -7
-4 -4 -10z"/>
<path d="M280 590 c0 -5 5 -10 10 -10 6 0 10 5 10 10 0 6 -4 10 -10 10 -5 0
-10 -4 -10 -10z"/>
<path d="M1620 590 c0 -5 5 -10 11 -10 5 0 7 5 4 10 -3 6 -8 10 -11 10 -2 0
-4 -4 -4 -10z"/>
<path d="M240 580 c0 -5 5 -10 10 -10 6 0 10 5 10 10 0 6 -4 10 -10 10 -5 0
-10 -4 -10 -10z"/>
<path d="M1415 580 c-3 -5 -1 -10 4 -10 6 0 11 5 11 10 0 6 -2 10 -4 10 -3 0
-8 -4 -11 -10z"/>
<path d="M1540 571 c0 -12 39 -25 47 -17 4 3 -1 6 -10 6 -9 0 -17 5 -17 10 0
6 -4 10 -10 10 -5 0 -10 -4 -10 -9z"/>
<path d="M1718 563 c7 -3 16 -2 19 1 4 3 -2 6 -13 5 -11 0 -14 -3 -6 -6z"/>
<path d="M174 549 c-3 -6 -1 -16 5 -22 8 -8 11 -5 11 11 0 24 -5 28 -16 11z"/>
<path d="M152 510 c0 -14 2 -19 5 -12 2 6 2 18 0 25 -3 6 -5 1 -5 -13z"/>
<path d="M1520 516 c0 -8 -6 -17 -12 -19 -10 -4 -9 -8 2 -16 8 -6 20 -10 25
-10 6 0 5 3 -1 5 -6 3 -9 16 -6 29 2 14 2 25 -2 25 -3 0 -6 -6 -6 -14z"/>
<path d="M1602 500 c0 -14 2 -19 5 -12 2 6 2 18 0 25 -3 6 -5 1 -5 -13z"/>
<path d="M1380 500 c0 -5 5 -10 10 -10 6 0 10 5 10 10 0 6 -4 10 -10 10 -5 0
-10 -4 -10 -10z"/>
<path d="M240 490 c0 -5 -19 -11 -42 -11 -33 -2 -36 -3 -14 -6 35 -6 76 4 76
17 0 6 -4 10 -10 10 -5 0 -10 -4 -10 -10z"/>
<path d="M280 489 c0 -5 5 -7 10 -4 6 3 10 8 10 11 0 2 -4 4 -10 4 -5 0 -10
-5 -10 -11z"/>
<path d="M1258 493 c7 -3 16 -2 19 1 4 3 -2 6 -13 5 -11 0 -14 -3 -6 -6z"/>
<path d="M309 447 c-3 -20 -2 -42 2 -48 12 -20 17 5 10 46 l-7 40 -5 -38z"/>
<path d="M928 473 c6 -2 18 -2 25 0 6 3 1 5 -13 5 -14 0 -19 -2 -12 -5z"/>
<path d="M1327 469 c8 -8 16 -8 30 0 16 9 14 10 -11 11 -22 0 -27 -3 -19 -11z"/>
<path d="M1398 473 c6 -2 18 -2 25 0 6 3 1 5 -13 5 -14 0 -19 -2 -12 -5z"/>
<path d="M1558 473 c6 -2 18 -2 25 0 6 3 1 5 -13 5 -14 0 -19 -2 -12 -5z"/>
<path d="M239 443 c-22 -27 -18 -59 6 -55 26 5 39 18 26 26 -6 4 -11 2 -11 -3
0 -6 -4 -11 -10 -11 -5 0 -10 9 -10 20 0 13 7 20 20 20 11 0 20 5 20 10 0 16
-26 11 -41 -7z"/>
<path d="M365 450 c-3 -5 -1 -10 4 -10 6 0 11 5 11 10 0 6 -2 10 -4 10 -3 0
-8 -4 -11 -10z"/>
<path d="M1120 436 c0 -31 6 -34 13 -6 3 11 1 23 -4 26 -5 3 -9 -6 -9 -20z"/>
<path d="M1440 450 c0 -5 5 -10 11 -10 5 0 7 5 4 10 -3 6 -8 10 -11 10 -2 0
-4 -4 -4 -10z"/>
<path d="M1485 450 c-4 -6 3 -10 14 -10 25 0 27 6 6 13 -8 4 -17 2 -20 -3z"/>
<path d="M1360 433 c0 -24 -5 -25 -90 -25 -22 0 -27 -1 -12 -5 16 -3 22 -12
23 -31 2 -24 2 -24 6 -4 4 18 11 22 39 22 31 0 34 -3 34 -27 -1 -27 -1 -28
-17 -8 -13 16 -15 17 -10 3 4 -10 2 -18 -3 -18 -6 0 -10 -4 -10 -10 0 -5 9
-10 19 -10 18 0 34 26 36 55 0 6 27 13 60 16 33 3 48 6 34 7 -15 1 -29 9 -33
17 -4 11 -13 14 -30 9 -17 -4 -27 0 -35 13 -10 17 -10 16 -11 -4z m53 -30 c-7
-2 -21 -2 -30 0 -10 3 -4 5 12 5 17 0 24 -2 18 -5z"/>
<path d="M1200 433 c0 -5 34 -9 75 -9 41 -1 75 2 75 7 0 5 -34 9 -75 9 -41 0
-75 -3 -75 -7z"/>
<path d="M466 421 c-4 -7 -5 -15 -2 -18 9 -9 19 4 14 18 -4 11 -6 11 -12 0z"/>
<path d="M1173 410 c1 -11 5 -20 9 -20 11 0 10 28 -1 35 -6 3 -9 -4 -8 -15z"/>
<path d="M1525 420 c-3 -5 -1 -10 4 -10 6 0 11 5 11 10 0 6 -2 10 -4 10 -3 0
-8 -4 -11 -10z"/>
<path d="M418 413 c7 -3 16 -2 19 1 4 3 -2 6 -13 5 -11 0 -14 -3 -6 -6z"/>
<path d="M1085 410 c3 -5 8 -10 11 -10 2 0 4 5 4 10 0 6 -5 10 -11 10 -5 0 -7
-4 -4 -10z"/>
<path d="M1202 380 c0 -19 2 -27 5 -17 2 9 2 25 0 35 -3 9 -5 1 -5 -18z"/>
<path d="M340 380 c0 -11 4 -20 9 -20 5 0 7 9 4 20 -3 11 -7 20 -9 20 -2 0 -4
-9 -4 -20z"/>
<path d="M313 348 c1 -22 8 -34 20 -36 9 -2 17 1 17 7 0 6 -6 8 -14 5 -10 -4
-16 4 -20 25 l-6 31 3 -32z"/>
<path d="M410 370 c0 -5 5 -10 11 -10 5 0 7 5 4 10 -3 6 -8 10 -11 10 -2 0 -4
-4 -4 -10z"/>
<path d="M468 355 c-3 -14 -1 -28 3 -31 5 -3 9 9 9 25 0 38 -6 40 -12 6z"/>
<path d="M1121 348 c-1 -21 4 -38 9 -38 11 0 11 14 0 50 -7 22 -8 21 -9 -12z"/>
<path d="M1230 370 c0 -5 9 -10 21 -10 11 0 17 5 14 10 -3 6 -13 10 -21 10 -8
0 -14 -4 -14 -10z"/>
<path d="M160 350 c0 -11 2 -20 4 -20 2 0 6 9 9 20 3 11 1 20 -4 20 -5 0 -9
-9 -9 -20z"/>
<path d="M226 355 c4 -8 8 -15 10 -15 2 0 4 7 4 15 0 8 -4 15 -10 15 -5 0 -7
-7 -4 -15z"/>
<path d="M385 331 c-3 -5 -1 -12 5 -16 5 -3 10 1 10 9 0 18 -6 21 -15 7z"/>
<path d="M848 333 c7 -3 16 -2 19 1 4 3 -2 6 -13 5 -11 0 -14 -3 -6 -6z"/>
<path d="M1248 318 c9 -9 15 -9 24 0 9 9 7 12 -12 12 -19 0 -21 -3 -12 -12z"/>
<path d="M603 313 c9 -2 25 -2 35 0 9 3 1 5 -18 5 -19 0 -27 -2 -17 -5z"/>
<path d="M687 313 c18 -2 50 -2 70 0 21 2 7 4 -32 4 -38 0 -55 -2 -38 -4z"/>
<path d="M813 313 c9 -2 23 -2 30 0 6 3 -1 5 -18 5 -16 0 -22 -2 -12 -5z"/>
<path d="M880 311 c0 -6 9 -9 19 -8 11 0 17 5 15 9 -7 11 -34 10 -34 -1z"/>
<path d="M968 313 c7 -3 16 -2 19 1 4 3 -2 6 -13 5 -11 0 -14 -3 -6 -6z"/>
<path d="M1163 313 c9 -2 25 -2 35 0 9 3 1 5 -18 5 -19 0 -27 -2 -17 -5z"/>
<path d="M400 290 c0 -5 12 -10 26 -10 14 0 23 4 19 10 -3 6 -15 10 -26 10
-10 0 -19 -4 -19 -10z"/>
<path d="M1090 290 c0 -5 5 -10 11 -10 5 0 7 5 4 10 -3 6 -8 10 -11 10 -2 0
-4 -4 -4 -10z"/>
<path d="M880 276 c0 -2 18 -6 39 -8 22 -2 37 0 35 4 -5 8 -74 11 -74 4z"/>
<path d="M640 253 c0 -8 -12 -13 -32 -13 -25 0 -29 3 -18 10 12 8 10 10 -8 10
-15 0 -21 -4 -16 -11 5 -8 -6 -10 -34 -7 -23 2 -38 -1 -35 -6 4 -5 48 -6 107
-2 56 4 106 7 111 7 104 -6 356 -9 345 -4 -8 3 -18 11 -22 17 -6 8 -10 8 -15
1 -9 -13 -215 -18 -223 -6 -3 5 -40 10 -82 13 -61 4 -78 2 -78 -9z"/>
<path d="M858 253 c7 -3 16 -2 19 1 4 3 -2 6 -13 5 -11 0 -14 -3 -6 -6z"/>
<path d="M458 233 c7 -3 16 -2 19 1 4 3 -2 6 -13 5 -11 0 -14 -3 -6 -6z"/>
<path d="M640 198 c0 -9 23 -13 80 -13 57 0 80 4 80 13 0 8 -23 12 -80 12 -57
0 -80 -4 -80 -12z"/>
<path d="M946 175 c-3 -8 -1 -15 4 -15 6 0 10 7 10 15 0 8 -2 15 -4 15 -2 0
-6 -7 -10 -15z"/>
</g>
</svg>
