<?xml version="1.0" standalone="no"?>
<!DOCTYPE svg PUBLIC "-//W3C//DTD SVG 20010904//EN"
 "http://www.w3.org/TR/2001/REC-SVG-20010904/DTD/svg10.dtd">
<svg version="1.0" xmlns="http://www.w3.org/2000/svg"
 width="100.000000pt" height="100.000000pt" viewBox="0 0 100.000000 100.000000"
 preserveAspectRatio="xMidYMid meet">
<metadata>
Created by potrace 1.16, written by Peter Selinger 2001-2019
</metadata>
<g transform="translate(0.000000,100.000000) scale(0.100000,-0.100000)"
fill="#000000" stroke="none">
<path d="M556 815 c-8 -8 -28 -15 -45 -15 -16 0 -36 -6 -43 -14 -8 -8 -23 -16
-34 -18 -10 -2 -18 -10 -16 -16 1 -7 -1 -11 -5 -11 -30 5 -63 -3 -63 -15 0 -7
-9 -16 -21 -19 -12 -3 -19 -10 -16 -14 3 -5 -3 -10 -14 -10 -22 -2 -69 -42
-69 -59 0 -7 -7 -14 -15 -18 -8 -3 -15 -17 -15 -31 0 -16 -6 -25 -15 -25 -8 0
-15 -7 -15 -15 0 -8 -7 -15 -15 -15 -10 0 -15 -10 -15 -29 0 -16 -6 -31 -15
-35 -22 -8 -22 -214 0 -222 8 -4 15 -12 15 -20 0 -8 7 -14 15 -14 8 0 15 -7
15 -15 0 -10 10 -15 29 -15 16 0 31 -6 35 -15 8 -22 196 -22 196 -1 0 11 14
16 48 18 31 2 46 7 44 16 -1 6 1 11 5 11 24 -4 53 3 65 14 7 7 21 16 31 20 10
4 17 17 17 32 0 23 3 25 50 25 38 0 50 4 50 15 0 8 7 15 15 15 8 0 15 9 15 20
0 11 7 20 15 20 8 0 15 6 15 14 0 8 7 16 15 20 8 3 15 17 15 31 0 16 6 25 15
25 10 0 15 10 15 30 0 20 5 30 15 30 13 0 15 17 13 118 -2 91 -6 116 -16 114
-8 -1 -11 1 -8 6 7 12 -31 52 -48 52 -8 0 -19 7 -26 15 -10 12 -36 15 -116 15
-78 0 -106 -4 -118 -15z m194 -14 c0 -10 -146 -8 -156 2 -4 4 29 7 74 7 45 0
82 -4 82 -9z m60 -36 c0 -8 7 -15 15 -15 10 0 15 -10 15 -30 0 -16 4 -30 10
-30 5 0 7 7 4 15 -4 8 -1 15 5 15 7 0 11 -32 11 -95 0 -111 -14 -128 -19 -23
-4 110 -11 95 -11 -25 0 -62 -4 -107 -10 -107 -5 0 -7 7 -4 15 4 8 1 15 -5 15
-6 0 -11 -13 -11 -30 0 -20 -5 -30 -15 -30 -8 0 -15 -7 -15 -15 0 -8 -7 -15
-15 -15 -8 0 -15 -7 -15 -15 0 -8 -7 -15 -15 -15 -8 0 -15 -9 -15 -20 0 -11
-7 -20 -15 -20 -12 0 -15 14 -15 65 0 51 3 65 15 65 10 0 15 10 15 30 0 17 4
30 10 30 5 0 7 -7 4 -15 -4 -8 -1 -15 5 -15 6 0 11 19 11 45 0 25 4 45 10 45
5 0 7 -7 4 -15 -4 -8 -1 -15 5 -15 7 0 11 28 11 80 l0 80 -30 0 c-16 0 -30 4
-30 10 0 5 7 7 15 4 8 -4 15 -1 15 5 0 7 -32 11 -95 11 -91 0 -130 -14 -62
-23 17 -2 -3 -5 -45 -5 -45 -1 -78 2 -78 8 0 5 -7 7 -15 4 -8 -4 -15 -1 -15 6
0 9 15 11 54 8 46 -4 52 -2 40 9 -8 8 -18 11 -24 8 -5 -3 -10 -1 -10 4 0 7 53
11 155 11 131 0 155 -2 155 -15z m-130 -50 c7 -8 21 -15 31 -15 11 0 19 -7 19
-15 0 -8 7 -15 15 -15 19 0 19 -19 0 -44 -8 -11 -15 -32 -15 -48 0 -18 -5 -28
-15 -28 -8 0 -15 -7 -15 -15 0 -8 -7 -15 -15 -15 -8 0 -15 -6 -15 -14 0 -8 -6
-16 -14 -19 -12 -5 -15 14 -18 106 -2 62 -1 118 1 125 4 17 26 15 41 -3z
m-210 -5 c0 -5 7 -7 15 -4 8 4 15 1 15 -5 0 -6 -19 -11 -45 -11 -25 0 -45 5
-45 11 0 6 -9 8 -20 4 -11 -4 -20 -2 -20 4 0 6 21 11 50 11 28 0 50 -4 50 -10z
m70 -41 c0 -10 -7 -19 -15 -19 -8 0 -15 -8 -15 -19 0 -10 -7 -24 -15 -31 -8
-7 -15 -21 -15 -31 0 -11 -7 -19 -15 -19 -8 0 -15 -7 -15 -15 0 -8 -7 -15 -15
-15 -8 0 -15 -4 -15 -10 0 -5 -18 -27 -41 -49 -24 -24 -37 -46 -33 -52 4 -7 3
-9 -3 -6 -6 4 -22 -4 -34 -18 -13 -13 -30 -25 -36 -25 -7 0 -13 -7 -13 -15 0
-8 -4 -15 -10 -15 -6 0 -10 27 -10 60 0 47 3 60 15 60 8 0 15 5 15 11 0 7 7
17 15 23 9 6 17 21 18 33 0 12 3 20 6 18 8 -9 31 17 24 28 -3 6 -1 7 5 3 7 -4
23 4 37 18 14 15 32 26 40 26 8 0 15 7 15 15 0 8 6 15 14 15 8 0 21 6 28 14 8
8 23 16 34 18 10 2 18 10 16 17 -1 7 2 10 8 6 5 -3 10 -15 10 -26z m-130 11
c0 -5 7 -7 15 -4 8 4 15 1 15 -6 0 -9 -14 -11 -47 -8 -27 3 -42 3 -35 1 17 -7
15 -33 -3 -33 -8 0 -15 -9 -15 -20 0 -11 -7 -20 -15 -20 -8 0 -15 -7 -15 -15
0 -8 -7 -15 -15 -15 -8 0 -15 -7 -15 -15 0 -8 -7 -15 -15 -15 -8 0 -15 -7 -15
-15 0 -8 -7 -15 -15 -15 -8 0 -15 5 -15 11 0 5 -5 7 -12 3 -9 -6 -9 -9 0 -12
8 -2 12 -29 12 -79 0 -79 -9 -98 -12 -25 -1 23 -6 43 -12 45 -8 3 -10 -18 -8
-64 l4 -69 59 0 c46 0 59 3 59 15 0 8 7 15 15 15 8 0 15 9 15 20 0 11 7 20 15
20 8 0 15 7 15 15 0 8 9 15 20 15 11 0 20 7 20 15 0 8 7 15 15 15 8 0 15 7 15
15 0 8 7 15 15 15 10 0 15 10 15 30 0 17 4 30 10 30 5 0 7 -7 4 -15 -4 -8 -1
-15 5 -15 6 0 11 14 11 30 0 20 5 30 15 30 8 0 15 7 15 15 0 8 7 15 15 15 10
0 15 11 15 35 0 24 5 35 15 35 13 0 15 -29 15 -205 l0 -205 -30 0 c-16 0 -30
-4 -30 -10 0 -5 7 -7 15 -4 8 4 15 1 15 -5 0 -7 -24 -11 -62 -12 -50 0 -58 -2
-40 -10 13 -5 28 -7 33 -3 5 3 9 0 9 -5 0 -7 -53 -11 -155 -11 -93 0 -155 4
-155 10 0 5 7 7 15 4 8 -4 15 -1 15 5 0 6 -13 11 -30 11 l-30 0 0 125 c0 104
2 125 15 125 10 0 15 10 15 30 0 20 5 30 15 30 8 0 15 7 15 15 0 8 7 15 15 15
8 0 15 7 15 15 0 8 7 15 15 15 8 0 15 9 15 20 0 11 7 20 15 20 8 0 15 7 15 15
0 8 7 15 15 15 8 0 15 7 15 15 0 10 11 15 35 15 19 0 35 -4 35 -10z m208 -212
c-2 -236 -6 -217 -10 47 l-3 159 -25 7 c-23 6 -22 7 8 8 l32 1 -2 -222z m-208
172 c0 -5 -8 -10 -17 -10 -15 0 -16 2 -3 10 19 12 20 12 20 0z m134 -25 c-4
-8 -8 -15 -10 -15 -2 0 -4 7 -4 15 0 8 4 15 10 15 5 0 7 -7 4 -15z m-364 -119
c0 -3 -4 -8 -10 -11 -5 -3 -10 -1 -10 4 0 6 5 11 10 11 6 0 10 -2 10 -4z m280
0 c0 -3 -4 -8 -10 -11 -5 -3 -10 -1 -10 4 0 6 5 11 10 11 6 0 10 -2 10 -4z
m250 0 c0 -3 -4 -8 -10 -11 -5 -3 -10 -1 -10 4 0 6 5 11 10 11 6 0 10 -2 10
-4z m-460 -16 c0 -5 -5 -10 -11 -10 -5 0 -7 5 -4 10 3 6 8 10 11 10 2 0 4 -4
4 -10z m422 -64 c-3 -57 13 -100 33 -92 8 3 15 1 15 -4 0 -6 -13 -10 -30 -10
l-30 0 0 82 c0 45 3 78 7 75 3 -4 5 -27 5 -51z m-526 -61 c2 -44 -1 -75 -6
-75 -6 0 -10 35 -10 82 0 101 12 96 16 -7z m634 35 c0 -5 -5 -10 -11 -10 -5 0
-7 5 -4 10 3 6 8 10 11 10 2 0 4 -4 4 -10z m-30 -35 c0 -8 -4 -15 -10 -15 -5
0 -7 7 -4 15 4 8 8 15 10 15 2 0 4 -7 4 -15z m-530 -25 c0 -5 -2 -10 -4 -10
-3 0 -8 5 -11 10 -3 6 -1 10 4 10 6 0 11 -4 11 -10z m153 -167 c-24 -2 -62 -2
-86 0 -23 2 -4 4 43 4 47 0 66 -2 43 -4z"/>
<path d="M780 760 c0 -5 5 -10 11 -10 5 0 7 5 4 10 -3 6 -8 10 -11 10 -2 0 -4
-4 -4 -10z"/>
<path d="M802 660 c0 -19 2 -27 5 -17 2 9 2 25 0 35 -3 9 -5 1 -5 -18z"/>
<path d="M515 540 c-3 -5 -1 -10 4 -10 6 0 11 5 11 10 0 6 -2 10 -4 10 -3 0
-8 -4 -11 -10z"/>
<path d="M395 390 c-3 -5 -1 -10 4 -10 6 0 11 5 11 10 0 6 -2 10 -4 10 -3 0
-8 -4 -11 -10z"/>
<path d="M355 350 c-3 -5 -1 -10 4 -10 6 0 11 5 11 10 0 6 -2 10 -4 10 -3 0
-8 -4 -11 -10z"/>
<path d="M233 283 c9 -2 25 -2 35 0 9 3 1 5 -18 5 -19 0 -27 -2 -17 -5z"/>
<path d="M175 240 c3 -5 8 -10 11 -10 2 0 4 5 4 10 0 6 -5 10 -11 10 -5 0 -7
-4 -4 -10z"/>
</g>
</svg>
