<?xml version="1.0" standalone="no"?>
<!DOCTYPE svg PUBLIC "-//W3C//DTD SVG 20010904//EN"
 "http://www.w3.org/TR/2001/REC-SVG-20010904/DTD/svg10.dtd">
<svg version="1.0" xmlns="http://www.w3.org/2000/svg"
 width="180.000000pt" height="180.000000pt" viewBox="0 0 180.000000 180.000000"
 preserveAspectRatio="xMidYMid meet">
<metadata>
Created by potrace 1.16, written by Peter Selinger 2001-2019
</metadata>
<g transform="translate(0.000000,180.000000) scale(0.100000,-0.100000)"
fill="#000000" stroke="none">
<path d="M1275 1482 c-106 -4 -111 -15 -10 -23 107 -8 171 -27 245 -71 99 -60
146 -162 123 -273 -6 -27 -9 -52 -7 -54 7 -7 26 55 41 134 20 105 9 153 -52
211 -62 60 -167 84 -340 76z m273 -61 c45 -23 77 -56 91 -94 16 -42 12 -56 -6
-22 -23 43 -52 74 -102 106 -51 33 -39 39 17 10z"/>
<path d="M980 1421 l-55 -7 40 -7 c22 -5 56 -10 75 -13 63 -9 186 -54 246 -90
135 -81 220 -206 233 -345 l7 -74 23 70 c28 88 38 209 21 270 -24 85 -100 147
-223 182 -58 16 -283 25 -367 14z m339 -37 c95 -21 168 -67 206 -128 27 -44
30 -58 30 -128 0 -47 -5 -82 -13 -90 -9 -9 -12 -8 -12 6 0 10 -13 46 -30 80
-50 106 -175 208 -320 262 l-35 13 53 0 c29 1 84 -6 121 -15z"/>
<path d="M385 1356 c-293 -197 -337 -545 -100 -782 245 -245 687 -255 974 -23
l32 25 -118 115 c-65 64 -146 141 -180 173 l-62 58 -44 -30 -44 -31 -67 68
-66 67 46 22 c25 12 44 26 42 30 -7 15 -345 342 -354 342 -5 0 -32 -15 -59
-34z m215 -154 l154 -148 -32 -19 c-19 -12 -32 -27 -32 -39 0 -26 128 -156
154 -156 10 0 34 9 52 21 l34 21 155 -148 c85 -81 155 -151 155 -155 0 -4 -19
-21 -43 -37 -220 -151 -496 -173 -733 -57 -288 141 -386 436 -225 681 50 76
164 184 195 184 6 0 81 -67 166 -148z"/>
<path d="M765 1374 c-51 -9 -185 -46 -190 -53 -2 -4 55 -64 128 -133 l133
-126 27 20 28 20 63 -58 c35 -33 64 -62 65 -66 0 -4 -12 -14 -28 -23 l-29 -15
136 -133 c76 -74 156 -151 178 -171 l42 -36 47 52 c27 29 62 82 79 118 27 57
31 76 31 150 0 75 -4 93 -32 153 -61 129 -207 238 -378 282 -61 16 -245 27
-300 19z m269 -39 c164 -35 320 -145 382 -271 25 -51 29 -70 29 -144 0 -72 -4
-93 -27 -140 -15 -30 -44 -74 -65 -98 l-38 -44 -153 148 c-123 118 -150 149
-138 156 34 19 18 58 -46 119 -63 59 -100 73 -126 47 -9 -9 -37 14 -120 93
-73 70 -104 106 -96 112 57 35 279 47 398 22z"/>
<path d="M828 991 l-48 -28 34 -32 33 -32 52 32 52 32 -27 28 c-15 16 -33 29
-38 28 -6 0 -32 -12 -58 -28z m72 -19 c0 -12 -49 -37 -56 -29 -11 10 17 37 37
37 11 0 19 -4 19 -8z"/>
<path d="M260 551 c42 -52 134 -123 210 -161 101 -51 186 -72 315 -77 180 -8
315 25 448 110 52 33 57 40 57 72 0 19 -4 35 -10 35 -5 0 -10 -4 -10 -8 0 -16
-134 -95 -208 -122 -146 -53 -331 -63 -477 -25 -94 24 -213 89 -290 158 -64
57 -67 58 -35 18z"/>
</g>
</svg>
