<?xml version="1.0" standalone="no"?>
<!DOCTYPE svg PUBLIC "-//W3C//DTD SVG 20010904//EN"
 "http://www.w3.org/TR/2001/REC-SVG-20010904/DTD/svg10.dtd">
<svg version="1.0" xmlns="http://www.w3.org/2000/svg"
 width="100.000000pt" height="100.000000pt" viewBox="0 0 100.000000 100.000000"
 preserveAspectRatio="xMidYMid meet">
<metadata>
Created by potrace 1.16, written by Peter Selinger 2001-2019
</metadata>
<g transform="translate(0.000000,100.000000) scale(0.100000,-0.100000)"
fill="#000000" stroke="none">
<path d="M30 985 c0 -8 -7 -15 -15 -15 -18 0 -20 -16 -2 -23 10 -4 10 -6 0 -6
-18 -1 -16 -31 2 -31 8 0 15 9 15 20 0 13 7 20 20 20 15 0 20 -7 20 -26 0 -15
10 -35 23 -47 15 -13 18 -21 10 -24 -10 -4 -9 -8 1 -19 8 -8 19 -14 25 -14 6
0 11 -7 11 -15 0 -8 7 -15 15 -15 8 0 15 -7 15 -15 0 -16 15 -18 116 -18 49 1
66 5 83 22 11 11 21 25 21 31 0 6 47 9 125 7 l125 -2 0 -26 c0 -31 10 -36 68
-33 23 1 60 2 82 3 28 1 40 5 40 16 0 8 7 15 15 15 8 0 15 6 15 14 0 7 7 19
15 26 8 7 15 27 15 46 0 24 5 34 20 39 13 4 20 15 20 31 0 13 4 24 10 24 15 0
6 -160 -10 -170 -7 -4 -10 -17 -7 -29 3 -12 1 -21 -4 -21 -5 0 -9 -7 -9 -15 0
-8 7 -15 15 -15 8 0 17 -14 20 -34 7 -37 -1 -76 -16 -76 -5 0 -9 -7 -9 -15 0
-8 -7 -15 -15 -15 -8 0 -15 -7 -15 -15 0 -8 -9 -15 -20 -15 -11 0 -20 -6 -20
-14 0 -11 -18 -14 -84 -13 -46 1 -88 -1 -92 -5 -4 -4 -7 -62 -6 -129 1 -89 4
-124 14 -130 18 -11 18 -149 1 -149 -7 0 -13 -6 -13 -13 0 -9 -11 -13 -32 -12
-49 4 -98 -6 -98 -19 0 -18 -95 -14 -116 6 -14 12 -33 15 -71 12 l-52 -3 1
115 c0 84 4 119 14 129 19 18 18 83 -1 101 -8 9 -15 33 -15 55 0 24 -5 39 -12
40 -7 0 -45 0 -84 -1 -69 -1 -72 0 -113 37 -34 33 -41 45 -41 77 l0 39 70 -7
c60 -6 70 -5 70 8 0 19 -26 21 -34 4 -3 -7 -5 -2 -5 12 2 44 -1 50 -21 50 -11
0 -20 7 -20 15 0 8 -7 15 -15 15 -8 0 -15 6 -15 14 0 8 -7 16 -15 20 -8 3 -15
18 -15 34 0 30 -16 52 -37 52 -19 0 -16 -18 4 -23 17 -4 17 -5 1 -6 -22 -1
-24 -21 -3 -21 10 0 15 -10 15 -30 0 -20 5 -30 15 -30 8 0 15 -7 15 -15 0 -8
7 -15 15 -15 8 0 15 -7 15 -15 0 -8 -7 -15 -15 -15 -8 0 -15 -7 -15 -15 0 -8
-7 -15 -15 -15 -10 0 -15 -10 -15 -30 0 -20 -5 -30 -15 -30 -8 0 -15 -9 -15
-20 0 -11 7 -20 15 -20 8 0 15 -7 15 -15 0 -8 7 -15 15 -15 8 0 15 -7 15 -15
0 -8 7 -15 15 -15 8 0 15 -7 15 -15 0 -10 11 -15 35 -15 24 0 35 -5 35 -15 0
-10 10 -15 30 -15 17 0 30 5 30 11 0 6 -7 9 -15 5 -8 -3 -15 -1 -15 4 0 6 20
10 45 10 l45 0 0 -45 c0 -33 4 -45 15 -45 10 0 15 -11 15 -35 0 -24 -5 -35
-15 -35 -13 0 -15 -22 -15 -140 l0 -140 65 0 c51 0 65 -3 65 -15 0 -12 15 -15
75 -15 60 0 75 3 75 15 0 12 14 15 65 15 51 0 65 3 65 15 0 8 7 15 15 15 12 0
15 17 15 95 0 78 -3 95 -15 95 -12 0 -15 19 -15 110 l0 110 90 0 c73 0 90 3
90 15 0 8 9 15 20 15 11 0 20 7 20 15 0 8 7 15 15 15 8 0 15 7 15 15 0 8 7 15
15 15 12 0 15 14 15 65 0 51 -3 65 -15 65 -10 0 -15 10 -15 30 0 20 5 30 15
30 12 0 15 19 15 110 0 88 -3 110 -14 110 -8 0 -17 -6 -19 -12 -4 -10 -6 -10
-6 0 -2 26 -21 10 -21 -18 0 -23 -4 -30 -20 -30 -16 0 -20 -7 -20 -35 0 -24
-5 -35 -15 -35 -10 0 -15 -10 -15 -30 0 -20 -5 -30 -15 -30 -8 0 -15 -7 -15
-15 0 -12 -15 -15 -75 -15 l-75 0 0 30 0 30 -145 0 c-122 0 -145 -2 -145 -15
0 -8 -7 -15 -15 -15 -8 0 -15 -7 -15 -15 0 -12 -15 -15 -75 -15 -60 0 -75 3
-75 15 0 8 -7 15 -15 15 -8 0 -15 7 -15 15 0 8 -7 15 -15 15 -10 0 -15 11 -15
35 0 28 -4 35 -20 35 -17 0 -20 7 -20 45 0 44 -14 61 -23 28 -4 -17 -5 -17 -6
0 -1 21 -31 23 -31 2z m100 -280 c0 -8 -9 -15 -20 -15 -11 0 -20 7 -20 15 0 8
9 15 20 15 11 0 20 -7 20 -15z"/>
<path d="M811 704 c0 -11 3 -14 6 -6 3 7 2 16 -1 19 -3 4 -6 -2 -5 -13z"/>
<path d="M841 704 c0 -11 3 -14 6 -6 3 7 2 16 -1 19 -3 4 -6 -2 -5 -13z"/>
<path d="M870 705 c0 -8 9 -15 20 -15 12 0 20 -7 21 -17 0 -12 2 -14 6 -5 3 8
-4 22 -15 33 -25 23 -32 24 -32 4z"/>
</g>
</svg>
