<?xml version="1.0" standalone="no"?>
<!DOCTYPE svg PUBLIC "-//W3C//DTD SVG 20010904//EN"
 "http://www.w3.org/TR/2001/REC-SVG-20010904/DTD/svg10.dtd">
<svg version="1.0" xmlns="http://www.w3.org/2000/svg"
 width="192.000000pt" height="192.000000pt" viewBox="0 0 192.000000 192.000000"
 preserveAspectRatio="xMidYMid meet">
<metadata>
Created by potrace 1.16, written by Peter Selinger 2001-2019
</metadata>
<g transform="translate(0.000000,192.000000) scale(0.100000,-0.100000)"
fill="#000000" stroke="none">
<path d="M1151 1739 c-246 -42 -272 -93 -211 -414 17 -87 33 -180 36 -209 l6
-52 -107 -26 c-205 -51 -369 -154 -415 -259 -33 -78 -26 -173 19 -261 125
-248 476 -433 684 -362 75 26 112 77 131 182 28 163 75 880 79 1227 l2 180
-85 2 c-47 0 -109 -3 -139 -8z m201 -134 c-4 -180 -30 -683 -47 -915 -19 -243
-39 -389 -60 -429 -22 -44 -76 -80 -137 -93 -143 -30 -395 92 -532 259 -149
179 -150 328 -3 444 89 71 228 129 383 159 l60 12 -28 156 c-62 345 -63 356
-47 398 9 22 29 48 49 62 60 40 205 72 315 68 l50 -1 -3 -120z"/>
<path d="M901 800 c-148 -72 -231 -141 -231 -193 0 -67 149 -175 295 -212 113
-29 125 -19 125 102 0 106 -26 290 -46 321 -20 31 -48 28 -143 -18z m136 -50
c17 -72 35 -285 27 -316 -5 -18 -13 -24 -33 -24 -74 0 -235 76 -292 137 -56
61 -53 78 30 143 58 45 211 121 236 118 15 -2 23 -16 32 -58z"/>
</g>
</svg>
