<?xml version="1.0" standalone="no"?>
<!DOCTYPE svg PUBLIC "-//W3C//DTD SVG 20010904//EN"
 "http://www.w3.org/TR/2001/REC-SVG-20010904/DTD/svg10.dtd">
<svg version="1.0" xmlns="http://www.w3.org/2000/svg"
 width="64.000000pt" height="64.000000pt" viewBox="0 0 64.000000 64.000000"
 preserveAspectRatio="xMidYMid meet">
<metadata>
Created by potrace 1.16, written by Peter Selinger 2001-2019
</metadata>
<g transform="translate(0.000000,64.000000) scale(0.100000,-0.100000)"
fill="#000000" stroke="none">
<path d="M147 462 c-90 -90 -147 -155 -147 -167 0 -14 48 28 160 140 l160 160
70 -70 c69 -69 70 -71 59 -103 -6 -18 -14 -32 -17 -32 -4 0 -30 24 -59 52
l-53 53 -125 -125 -125 -125 0 -62 0 -63 100 0 100 0 0 -35 0 -35 -135 0 c-83
0 -135 -4 -135 -10 0 -6 113 -10 320 -10 207 0 320 4 320 10 0 6 -45 10 -115
10 l-114 0 14 32 c13 32 15 33 79 36 l66 3 0 61 c0 56 -3 65 -31 94 -29 30
-30 34 -19 68 6 20 13 36 15 36 2 0 26 -24 54 -52 40 -42 51 -49 51 -33 0 16
-131 165 -145 165 -1 0 -36 34 -76 75 -53 55 -79 75 -98 75 -20 0 -59 -33
-174 -148z m221 -55 c40 -40 41 -44 31 -77 l-11 -35 -64 3 -64 4 0 -81 0 -81
-85 0 -85 0 0 42 c0 41 5 47 112 155 62 62 115 113 118 113 3 0 25 -19 48 -43z
m136 6 l23 -26 -61 -166 -61 -166 -63 -3 -62 -3 0 116 0 115 40 0 40 0 1 -62
0 -63 52 143 c29 78 56 142 60 142 4 0 18 -12 31 -27z m46 -230 l0 -43 -41 0
c-40 0 -41 1 -34 27 3 15 13 42 21 61 14 34 15 34 34 17 14 -13 20 -31 20 -62z"/>
<path d="M241 84 c0 -11 3 -14 6 -6 3 7 2 16 -1 19 -3 4 -6 -2 -5 -13z"/>
</g>
</svg>
