<?xml version="1.0" standalone="no"?>
<!DOCTYPE svg PUBLIC "-//W3C//DTD SVG 20010904//EN"
 "http://www.w3.org/TR/2001/REC-SVG-20010904/DTD/svg10.dtd">
<svg version="1.0" xmlns="http://www.w3.org/2000/svg"
 width="100.000000pt" height="100.000000pt" viewBox="0 0 100.000000 100.000000"
 preserveAspectRatio="xMidYMid meet">
<metadata>
Created by potrace 1.16, written by Peter Selinger 2001-2019
</metadata>
<g transform="translate(0.000000,100.000000) scale(0.100000,-0.100000)"
fill="#000000" stroke="none">
<path d="M600 896 c0 -63 -1 -65 -27 -68 l-28 -3 -3 -122 -3 -123 -30 0 c-30
0 -31 -1 -27 -40 l4 -40 -243 0 c-155 0 -243 -4 -243 -10 0 -6 87 -10 240 -10
l240 0 0 -105 0 -105 -30 0 c-27 0 -30 -3 -30 -30 0 -20 -5 -30 -15 -30 -12 0
-15 13 -15 60 l0 60 -80 0 -80 0 0 -145 0 -145 145 0 145 0 0 35 c0 32 2 35
30 35 27 0 30 3 30 30 0 22 5 30 18 30 37 0 42 19 42 167 l0 143 180 0 c113 0
180 4 180 10 0 6 -69 10 -186 10 -166 0 -185 2 -180 16 3 9 6 33 6 55 0 27 4
39 14 39 8 0 18 5 21 10 4 6 -7 10 -24 10 l-31 0 0 -190 0 -190 -25 0 c-28 0
-32 12 -10 34 20 20 19 26 -4 26 -15 0 -21 8 -24 33 -4 29 -5 30 -12 10 -4
-13 -11 -23 -16 -23 -5 0 -9 -4 -9 -10 0 -5 9 -10 20 -10 19 0 20 -7 20 -90
l0 -90 -30 0 c-28 0 -30 -3 -30 -35 l0 -35 -125 0 -125 0 0 125 0 125 60 0 60
0 0 -60 0 -60 65 0 c58 0 65 -2 65 -20 0 -24 6 -25 26 -6 19 20 18 26 -6 26
-19 0 -20 7 -20 185 l0 185 24 0 c20 0 23 -4 18 -27 -3 -16 -10 -31 -16 -35
-8 -6 -6 -11 4 -18 13 -9 13 -11 0 -21 -11 -8 -12 -12 -2 -16 14 -6 16 -43 2
-43 -5 0 -10 -4 -10 -10 0 -5 9 -10 20 -10 19 0 20 7 20 185 l0 185 65 0 65 0
0 -120 c0 -73 4 -120 10 -120 6 0 10 22 10 49 0 47 2 50 28 53 l27 3 3 173 2
172 -85 0 -85 0 0 -64z m150 -51 l0 -95 -30 0 -30 0 0 85 c0 56 -4 85 -11 85
-7 0 -9 -10 -7 -25 4 -19 1 -25 -13 -25 -11 0 -19 -4 -19 -10 0 -5 6 -10 14
-10 7 0 16 -9 19 -19 4 -15 -1 -21 -22 -24 -25 -4 -26 -4 -3 -12 30 -10 28
-25 -3 -25 -25 0 -25 1 -25 85 l0 85 65 0 65 0 0 -95z m-140 -42 c0 -14 -15
-29 -32 -36 -14 -5 -18 -1 -18 18 0 20 5 25 25 25 14 0 25 -3 25 -7z m140
-123 c0 -46 -2 -50 -23 -50 -20 0 -23 4 -19 30 3 19 10 30 21 30 14 1 14 2 -1
14 -23 17 -23 26 2 26 17 0 20 -7 20 -50z m-267 -449 c-3 -11 -13 -21 -24 -24
-15 -4 -19 0 -19 19 0 19 5 24 24 24 19 0 23 -4 19 -19z m137 -21 c0 -13 -7
-20 -20 -20 -13 0 -20 7 -20 20 0 13 7 20 20 20 13 0 20 -7 20 -20z"/>
<path d="M705 800 c3 -5 10 -10 16 -10 5 0 9 5 9 10 0 6 -7 10 -16 10 -8 0
-12 -4 -9 -10z"/>
<path d="M620 710 c0 -15 7 -20 25 -20 14 0 25 5 25 10 0 6 -7 10 -15 10 -8 0
-15 5 -15 10 0 6 -4 10 -10 10 -5 0 -10 -9 -10 -20z"/>
<path d="M580 370 c0 -5 5 -10 10 -10 6 0 10 5 10 10 0 6 -4 10 -10 10 -5 0
-10 -4 -10 -10z"/>
<path d="M283 275 c-18 -20 -16 -25 7 -25 18 0 20 -7 20 -60 l0 -60 65 0 c63
0 65 -1 65 -25 0 -14 5 -25 10 -25 6 0 10 7 10 15 0 8 5 15 10 15 6 0 10 5 10
10 0 6 -9 10 -20 10 -15 0 -20 7 -20 28 -1 24 -2 25 -14 10 -9 -12 -27 -18
-55 -18 -34 0 -41 3 -41 19 0 11 6 22 13 24 9 4 8 8 -3 16 -13 9 -12 12 5 25
19 15 19 15 -7 16 -21 0 -28 5 -28 20 0 23 -10 25 -27 5z"/>
</g>
</svg>
