<?xml version="1.0" standalone="no"?>
<!DOCTYPE svg PUBLIC "-//W3C//DTD SVG 20010904//EN"
 "http://www.w3.org/TR/2001/REC-SVG-20010904/DTD/svg10.dtd">
<svg version="1.0" xmlns="http://www.w3.org/2000/svg"
 width="66.000000pt" height="60.000000pt" viewBox="0 0 66.000000 60.000000"
 preserveAspectRatio="xMidYMid meet">
<metadata>
Created by potrace 1.16, written by Peter Selinger 2001-2019
</metadata>
<g transform="translate(0.000000,60.000000) scale(0.100000,-0.100000)"
fill="#000000" stroke="none">
<path d="M50 401 l0 -171 55 0 55 0 0 118 0 117 132 -5 c156 -6 185 -17 217
-83 27 -56 26 -102 -2 -152 -35 -61 -86 -86 -177 -84 l-74 2 1 -54 1 -54 88 1
c106 0 165 24 224 91 116 132 75 331 -84 416 -37 20 -59 22 -238 25 l-198 4 0
-171z m378 134 c24 -6 29 -21 10 -28 -7 -2 -3 -2 10 0 37 6 71 -7 65 -25 -5
-11 -2 -14 10 -9 14 5 16 2 13 -16 -2 -12 5 -30 15 -41 11 -11 19 -15 19 -9 0
5 -3 13 -7 17 -8 7 -13 36 -7 36 2 0 14 -21 27 -47 28 -56 29 -141 3 -191 -9
-17 -16 -38 -16 -47 0 -9 -4 -13 -10 -10 -5 3 -10 0 -10 -8 0 -8 -9 -22 -21
-33 -20 -18 -21 -18 -36 1 -14 19 -14 19 -8 -8 6 -23 4 -27 -13 -27 -11 0 -22
-6 -24 -12 -3 -8 -33 -14 -87 -16 l-83 -4 4 27 c3 27 4 28 83 30 48 1 70 -1
55 -5 -23 -7 -23 -8 8 -9 20 -1 32 3 30 10 -2 5 16 30 39 54 26 28 44 57 47
77 12 78 14 118 5 118 -5 0 -9 5 -9 11 0 5 5 7 10 4 14 -9 12 11 -2 23 -7 6
-17 10 -23 9 -5 -1 -12 9 -13 23 -5 36 -21 51 -41 40 -13 -6 -27 -3 -50 11
-29 17 -48 19 -154 17 -99 -2 -124 0 -135 12 -11 13 -12 11 -6 -10 8 -28 8
-25 6 -137 -1 -51 -6 -83 -13 -83 -7 0 -8 26 -4 80 4 58 3 80 -5 80 -9 0 -11
-26 -8 -90 2 -74 0 -90 -11 -88 -11 2 -14 22 -12 88 1 46 4 87 6 90 1 3 0 26
-5 52 -4 27 -6 49 -4 50 5 5 329 -2 352 -7z m67 -93 c-3 -3 -11 0 -18 7 -9 10
-8 11 6 5 10 -3 15 -9 12 -12z"/>
<path d="M235 519 l-80 -5 103 -2 c98 -2 127 2 80 9 -13 2 -59 1 -103 -2z"/>
<path d="M385 520 c-19 -8 -19 -9 3 -9 12 -1 22 4 22 9 0 6 -1 10 -2 9 -2 0
-12 -4 -23 -9z"/>
<path d="M450 490 c-8 -5 -10 -10 -5 -10 6 0 17 5 25 10 8 5 11 10 5 10 -5 0
-17 -5 -25 -10z"/>
<path d="M575 366 c3 -45 11 -55 17 -21 3 14 0 32 -7 42 -10 14 -12 11 -10
-21z"/>
<path d="M582 280 c0 -14 2 -19 5 -12 2 6 2 18 0 25 -3 6 -5 1 -5 -13z"/>
<path d="M560 236 c0 -9 5 -16 10 -16 6 0 10 4 10 9 0 6 -4 13 -10 16 -5 3
-10 -1 -10 -9z"/>
<path d="M545 201 c-3 -5 -1 -12 5 -16 5 -3 10 1 10 9 0 18 -6 21 -15 7z"/>
<path d="M510 155 c-9 -11 -10 -19 -3 -26 8 -8 13 -5 18 11 9 28 2 35 -15 15z"/>
<path d="M535 550 c3 -5 10 -10 16 -10 5 0 9 5 9 10 0 6 -7 10 -16 10 -8 0
-12 -4 -9 -10z"/>
<path d="M607 503 c-4 -3 -7 -11 -7 -17 0 -6 5 -5 12 2 6 6 9 14 7 17 -3 3 -9
2 -12 -2z"/>
<path d="M626 473 c-6 -14 -5 -15 5 -6 7 7 10 15 7 18 -3 3 -9 -2 -12 -12z"/>
<path d="M428 363 c6 -2 18 -2 25 0 6 3 1 5 -13 5 -14 0 -19 -2 -12 -5z"/>
<path d="M480 315 c0 -8 5 -15 10 -15 6 0 10 7 10 15 0 8 -4 15 -10 15 -5 0
-10 -7 -10 -15z"/>
<path d="M480 271 c0 -6 4 -13 10 -16 6 -3 7 1 4 9 -7 18 -14 21 -14 7z"/>
<path d="M9 198 c-3 -22 -1 -34 4 -29 5 5 7 21 5 37 -3 27 -4 26 -9 -8z"/>
<path d="M255 190 c-3 -5 -1 -10 4 -10 6 0 11 5 11 10 0 6 -2 10 -4 10 -3 0
-8 -4 -11 -10z"/>
<path d="M288 193 c6 -2 18 -2 25 0 6 3 1 5 -13 5 -14 0 -19 -2 -12 -5z"/>
<path d="M343 193 c9 -2 23 -2 30 0 6 3 -1 5 -18 5 -16 0 -22 -2 -12 -5z"/>
<path d="M68 183 c7 -3 16 -2 19 1 4 3 -2 6 -13 5 -11 0 -14 -3 -6 -6z"/>
<path d="M50 88 l0 -58 55 0 55 0 0 58 0 57 -55 0 -55 0 0 -57z m50 2 c0 -16
-4 -30 -10 -30 -5 0 -10 14 -10 30 0 17 5 30 10 30 6 0 10 -13 10 -30z m29 -2
c0 -27 -2 -29 -8 -13 -5 11 -6 26 -4 33 8 21 13 13 12 -20z"/>
<path d="M616 132 c-3 -5 1 -9 9 -9 8 0 12 4 9 9 -3 4 -7 8 -9 8 -2 0 -6 -4
-9 -8z"/>
<path d="M558 43 c7 -3 16 -2 19 1 4 3 -2 6 -13 5 -11 0 -14 -3 -6 -6z"/>
</g>
</svg>
