<?xml version="1.0" standalone="no"?>
<!DOCTYPE svg PUBLIC "-//W3C//DTD SVG 20010904//EN"
 "http://www.w3.org/TR/2001/REC-SVG-20010904/DTD/svg10.dtd">
<svg version="1.0" xmlns="http://www.w3.org/2000/svg"
 width="100.000000pt" height="100.000000pt" viewBox="0 0 100.000000 100.000000"
 preserveAspectRatio="xMidYMid meet">
<metadata>
Created by potrace 1.16, written by Peter Selinger 2001-2019
</metadata>
<g transform="translate(0.000000,100.000000) scale(0.100000,-0.100000)"
fill="#000000" stroke="none">
<path d="M62 980 c0 -14 2 -19 5 -12 2 6 2 18 0 25 -3 6 -5 1 -5 -13z"/>
<path d="M122 980 c0 -14 2 -19 5 -12 2 6 2 18 0 25 -3 6 -5 1 -5 -13z"/>
<path d="M252 980 c0 -14 2 -19 5 -12 2 6 2 18 0 25 -3 6 -5 1 -5 -13z"/>
<path d="M812 980 c0 -14 2 -19 5 -12 2 6 2 18 0 25 -3 6 -5 1 -5 -13z"/>
<path d="M932 980 c0 -14 2 -19 5 -12 2 6 2 18 0 25 -3 6 -5 1 -5 -13z"/>
<path d="M0 930 c0 -5 25 -10 55 -10 42 0 55 -3 55 -15 0 -8 5 -15 10 -15 6 0
10 7 10 15 0 8 9 15 20 15 11 0 20 -7 20 -15 0 -8 5 -15 10 -15 6 0 10 7 10
15 0 12 16 15 84 15 72 0 85 -3 89 -17 4 -17 5 -17 6 0 1 14 11 17 56 17 42 0
55 -3 55 -15 0 -8 5 -15 10 -15 6 0 10 7 10 15 0 13 20 15 124 15 110 0 125
-2 129 -17 4 -17 5 -17 6 0 1 14 10 17 50 17 39 0 51 -4 54 -17 4 -17 5 -17 6
0 1 12 10 17 30 17 20 0 31 -6 34 -17 4 -17 5 -17 6 0 1 12 10 17 31 17 17 0
30 5 30 10 0 7 -173 10 -500 10 -327 0 -500 -3 -500 -10z"/>
<path d="M0 860 c0 -5 9 -10 20 -10 11 0 20 -4 20 -10 0 -5 -9 -10 -20 -10
-11 0 -20 -4 -20 -10 0 -7 173 -10 500 -10 327 0 500 3 500 10 0 6 -9 10 -20
10 -11 0 -20 5 -20 10 0 6 9 10 20 10 11 0 20 5 20 10 0 7 -173 10 -500 10
-327 0 -500 -3 -500 -10z m560 -20 c0 -10 -10 -15 -30 -15 -20 0 -30 5 -30 15
0 10 10 15 30 15 20 0 30 -5 30 -15z m-440 0 c0 -5 -13 -10 -30 -10 -16 0 -30
5 -30 10 0 6 14 10 30 10 17 0 30 -4 30 -10z m50 0 c0 -5 -9 -10 -20 -10 -11
0 -20 5 -20 10 0 6 9 10 20 10 11 0 20 -4 20 -10z m60 1 c0 -5 -9 -11 -20 -14
-13 -3 -20 0 -20 9 0 8 9 14 20 14 11 0 20 -4 20 -9z m190 0 c0 -5 -38 -11
-85 -13 -63 -2 -85 0 -85 10 0 9 24 12 85 12 47 0 85 -4 85 -9z m60 0 c0 -5
-9 -11 -20 -14 -13 -3 -20 0 -20 9 0 8 9 14 20 14 11 0 20 -4 20 -9z m190 -1
c0 -5 -20 -10 -45 -10 -25 0 -45 5 -45 10 0 6 20 10 45 10 25 0 45 -4 45 -10z
m130 0 c0 -5 -25 -10 -55 -10 -30 0 -55 5 -55 10 0 6 25 10 55 10 30 0 55 -4
55 -10z m60 1 c0 -5 -11 -11 -25 -13 -17 -4 -25 -1 -25 8 0 8 11 14 25 14 14
0 25 -4 25 -9z m80 -7 c0 -11 -5 -14 -16 -10 -9 3 -24 6 -35 6 -10 0 -19 5
-19 10 0 6 16 10 35 10 25 0 35 -4 35 -16z"/>
<path d="M427 793 c-4 -3 -7 -15 -7 -25 0 -15 -8 -18 -55 -18 l-55 0 0 -49 c0
-47 -1 -49 -30 -53 l-30 -5 0 74 c0 47 -4 73 -11 73 -6 0 -9 -9 -6 -20 4 -14
0 -20 -11 -21 -11 0 -12 -2 -4 -6 16 -6 16 -40 0 -46 -8 -3 -6 -6 5 -6 28 -1
17 -32 -15 -44 -16 -6 -18 0 -18 48 0 54 0 55 -30 55 -24 0 -30 -4 -30 -22 0
-21 1 -21 13 -3 9 11 19 15 26 10 17 -10 5 -75 -17 -92 -15 -11 -15 -12 5 -13
17 0 20 -4 15 -22 -3 -13 -10 -27 -16 -31 -8 -6 -7 -10 2 -14 19 -8 14 -40 -8
-46 -19 -5 -20 0 -21 66 0 40 -3 66 -6 60 -2 -7 -18 -13 -34 -13 l-29 0 0 -65
0 -65 -30 0 c-17 0 -30 -4 -30 -10 0 -5 9 -10 20 -10 11 0 20 -4 20 -10 0 -5
-9 -10 -20 -10 -11 0 -20 -4 -20 -10 0 -5 13 -10 30 -10 26 0 30 -4 30 -27 1
-25 2 -26 14 -10 18 23 36 22 36 -3 0 -18 -7 -20 -55 -20 -34 0 -55 -4 -55
-11 0 -7 11 -9 30 -5 28 5 30 3 30 -24 0 -25 4 -30 25 -30 21 0 25 -5 25 -30
0 -24 -4 -30 -21 -30 -15 0 -19 4 -14 19 3 11 1 22 -5 26 -6 4 -10 -13 -10
-47 1 -46 2 -51 14 -35 18 23 36 22 36 -3 0 -18 -7 -20 -55 -20 -30 0 -55 -4
-55 -10 0 -5 9 -10 20 -10 11 0 20 -4 20 -10 0 -5 -9 -10 -20 -10 -11 0 -20
-4 -20 -10 0 -6 48 -10 125 -10 118 0 125 1 125 20 0 16 7 20 30 20 23 0 30
-4 30 -20 0 -18 7 -20 65 -20 l65 0 0 30 0 30 -155 0 -155 0 0 25 c0 19 4 23
18 18 9 -4 21 -11 25 -17 6 -8 10 -7 14 2 7 18 34 15 49 -6 12 -15 13 -14 14
11 0 23 4 27 27 27 l27 0 -22 20 c-27 25 -32 25 -32 0 0 -18 -7 -20 -60 -20
l-60 0 0 125 0 125 30 0 30 0 0 -95 0 -95 28 0 c23 1 25 2 11 13 -8 7 -18 22
-21 35 -5 18 -2 22 18 22 21 0 24 -5 24 -35 l0 -35 60 0 60 0 0 35 0 35 -55 0
c-30 0 -55 5 -55 10 0 6 -11 10 -25 10 -27 0 -36 19 -10 21 8 1 21 2 28 3 6 0
13 13 15 29 5 42 22 32 22 -12 0 -22 5 -43 10 -46 6 -4 10 12 10 39 0 39 3 46
20 46 11 0 20 -4 20 -10 0 -5 -4 -10 -10 -10 -5 0 -10 -4 -10 -10 0 -5 9 -10
20 -10 15 0 20 7 20 26 0 20 4 25 16 20 9 -3 20 -6 25 -6 16 0 9 -28 -8 -33
-11 -3 -7 -5 10 -6 23 -1 27 -5 27 -31 0 -27 -3 -30 -32 -30 -23 0 -29 -3 -21
-11 6 -6 23 -9 39 -7 23 2 30 9 32 31 2 15 7 27 12 27 5 0 10 -12 12 -27 2
-23 8 -29 36 -31 37 -4 46 -32 10 -32 -13 0 -30 -5 -38 -10 -11 -7 -4 -10 28
-10 38 0 42 2 42 25 0 20 5 25 25 25 29 0 34 -24 8 -39 -16 -9 -16 -10 5 -11
18 0 22 -6 22 -30 l0 -30 65 0 c62 0 65 1 65 24 0 36 36 23 46 -17 l8 -32 3
36 c4 32 7 36 26 31 12 -3 25 -10 29 -16 5 -7 8 -5 8 5 0 12 7 15 24 12 35 -7
66 13 66 42 0 18 5 25 20 25 11 0 20 5 20 10 0 6 -90 10 -250 10 l-250 0 0 30
c0 27 -3 30 -30 30 -27 0 -30 3 -30 30 l0 30 60 0 60 0 0 30 0 30 65 0 c63 0
65 1 65 25 0 18 5 25 20 25 25 0 27 -37 3 -43 -11 -3 -7 -5 10 -6 23 -1 27 -5
27 -31 l0 -30 95 0 95 0 0 30 c0 27 3 30 30 30 17 0 30 5 30 10 0 6 -12 10
-26 10 -34 0 -29 31 6 41 23 6 22 7 -7 8 -31 1 -33 -1 -33 -34 l0 -35 -95 0
-95 0 0 30 c0 17 4 30 8 30 4 0 9 14 10 32 2 18 8 36 15 40 9 6 9 8 0 8 -9 0
-13 16 -13 44 0 25 -4 48 -10 51 -6 4 -10 -25 -10 -79 l0 -86 -121 0 c-84 0
-118 -3 -113 -11 3 -6 15 -9 25 -6 15 4 19 0 19 -24 0 -23 -5 -29 -22 -30 -13
0 -17 -3 -10 -6 19 -7 14 -30 -8 -36 -19 -5 -20 0 -20 140 0 93 -4 142 -10
138 -5 -3 -10 -15 -10 -25 0 -10 -6 -21 -12 -23 -10 -4 -10 -6 0 -6 6 -1 12
-12 12 -26 0 -14 -6 -25 -12 -25 -10 0 -10 -2 -1 -8 10 -6 16 -71 14 -139 -2
-40 -18 -25 -29 25 l-10 47 -1 -57 -1 -58 -125 0 -125 0 0 65 0 65 125 0 125
0 0 85 c0 85 -1 91 -13 78z m-7 -75 c0 -16 -5 -19 -25 -16 -14 3 -25 1 -25 -3
0 -5 11 -9 25 -9 18 0 25 -5 25 -20 0 -17 -7 -20 -45 -20 -25 0 -45 2 -45 4 0
2 -3 11 -6 20 -4 11 0 16 12 17 11 0 14 3 7 6 -16 6 -17 30 -1 35 6 2 26 5 45
5 27 1 33 -3 33 -19z m-310 -148 c0 -38 -4 -50 -15 -50 -8 0 -15 6 -16 13 0 6
-2 25 -4 41 -5 34 1 46 21 46 10 0 14 -13 14 -50z m560 25 c0 -11 -12 -15 -45
-15 -33 0 -45 4 -45 15 0 11 12 15 45 15 33 0 45 -4 45 -15z m140 -64 c0 -14
-5 -18 -20 -14 -23 6 -26 19 -7 26 22 9 27 7 27 -12z m110 -2 c0 -5 -11 -9
-25 -9 -14 0 -25 6 -25 14 0 9 8 12 25 8 14 -2 25 -8 25 -13z m-60 1 c0 -5 -7
-10 -15 -10 -8 0 -15 5 -15 10 0 6 7 10 15 10 8 0 15 -4 15 -10z m-750 -60 c0
-25 -4 -30 -25 -30 -21 0 -25 5 -25 30 0 25 4 30 25 30 21 0 25 -5 25 -30z
m140 -10 c0 -13 -7 -20 -20 -20 -13 0 -20 7 -20 20 0 13 7 20 20 20 13 0 20
-7 20 -20z m690 -120 l0 -30 -160 0 -160 0 0 25 c0 34 44 36 55 3 l8 -23 4 23
c3 13 12 22 23 22 10 0 21 -10 25 -22 l8 -23 4 23 c5 25 43 32 43 7 0 -8 5
-15 10 -15 6 0 10 7 10 15 0 23 60 20 61 -2 1 -16 2 -16 6 -1 2 9 16 19 31 21
15 2 28 5 30 6 1 0 2 -12 2 -29z m-830 5 c0 -8 -7 -15 -15 -15 -8 0 -15 7 -15
15 0 8 7 15 15 15 8 0 15 -7 15 -15z m240 0 c0 -11 -11 -15 -40 -15 -29 0 -40
4 -40 15 0 11 11 15 40 15 29 0 40 -4 40 -15z m379 -60 c10 -11 -10 -17 -50
-17 -46 1 -54 5 -44 22 7 11 82 7 94 -5z m-619 -120 c0 -9 -9 -15 -25 -15 -16
0 -25 6 -25 15 0 9 9 15 25 15 16 0 25 -6 25 -15z m80 -9 c0 -6 -13 -11 -30
-11 -21 0 -30 5 -30 16 0 12 7 14 30 11 17 -2 30 -9 30 -16z m40 4 c0 -5 -4
-10 -10 -10 -5 0 -10 5 -10 10 0 6 5 10 10 10 6 0 10 -4 10 -10z m140 -5 c0
-17 -2 -18 -24 -9 -23 9 -20 24 4 24 11 0 20 -7 20 -15z m50 5 c0 -5 -7 -10
-15 -10 -8 0 -15 5 -15 10 0 6 7 10 15 10 8 0 15 -4 15 -10z"/>
<path d="M940 778 c0 -24 4 -28 30 -28 17 0 30 5 30 10 0 6 -7 10 -16 10 -9 0
-23 8 -30 18 -12 15 -13 14 -14 -10z"/>
<path d="M40 776 c0 -8 -10 -17 -22 -19 -20 -4 -20 -4 4 -6 19 -1 28 -7 31
-23 2 -13 5 -4 6 20 0 23 -3 42 -9 42 -5 0 -10 -6 -10 -14z"/>
<path d="M560 770 c0 -19 7 -20 91 -20 57 0 88 4 84 10 -3 6 -15 10 -25 10
-10 0 -21 6 -23 13 -4 10 -6 10 -6 0 -1 -7 -14 -13 -30 -13 -16 0 -32 6 -34
13 -4 9 -8 8 -17 -3 -9 -11 -13 -12 -17 -2 -8 19 -23 14 -23 -8z"/>
<path d="M850 781 c0 -6 5 -13 10 -16 6 -3 10 1 10 9 0 9 -4 16 -10 16 -5 0
-10 -4 -10 -9z"/>
<path d="M810 720 c0 -27 3 -30 30 -30 27 0 30 3 30 30 0 27 -3 30 -30 30 -27
0 -30 -3 -30 -30z m40 0 c0 -5 -4 -10 -10 -10 -5 0 -10 5 -10 10 0 6 5 10 10
10 6 0 10 -4 10 -10z"/>
<path d="M898 743 c7 -3 16 -2 19 1 4 3 -2 6 -13 5 -11 0 -14 -3 -6 -6z"/>
<path d="M604 729 c-3 -6 -1 -16 5 -22 8 -8 11 -5 11 11 0 24 -5 28 -16 11z"/>
<path d="M35 679 c56 -11 95 -11 95 1 0 6 -28 10 -67 9 -63 -1 -65 -2 -28 -10z"/>
<path d="M520 680 c0 -5 9 -10 19 -10 11 0 22 -6 24 -12 4 -10 6 -10 6 0 1 14
31 17 31 2 0 -5 5 -10 10 -10 6 0 10 6 10 14 0 16 51 10 62 -8 5 -8 8 -7 8 2
0 6 9 12 19 12 11 0 23 5 26 10 4 6 -33 10 -104 10 -67 0 -111 -4 -111 -10z"/>
<path d="M940 668 c0 -19 1 -20 13 -6 6 9 21 18 32 21 13 3 8 5 -12 6 -28 1
-33 -3 -33 -21z"/>
<path d="M810 658 c0 -24 4 -28 30 -28 26 0 30 -4 31 -27 1 -23 2 -24 6 -6 2
13 13 24 26 26 18 4 17 5 -5 6 -22 1 -28 6 -29 24 0 12 -3 16 -6 10 -7 -18
-24 -16 -39 5 -12 15 -13 14 -14 -10z"/>
<path d="M241 598 c0 -10 -7 -18 -15 -18 -8 0 -18 -4 -21 -10 -4 -6 35 -10
110 -10 75 0 114 4 110 10 -3 6 -15 10 -25 10 -10 0 -21 8 -23 18 -4 13 -5 12
-6 -5 -1 -16 -6 -20 -21 -16 -11 3 -20 12 -20 19 0 8 -4 14 -10 14 -5 0 -10
-8 -10 -18 0 -15 -6 -18 -29 -14 -17 2 -32 11 -34 21 -4 14 -5 14 -6 -1z"/>
<path d="M310 536 c0 -9 5 -16 10 -16 6 0 10 4 10 9 0 6 -4 13 -10 16 -5 3
-10 -1 -10 -9z"/>
<path d="M370 536 c0 -9 5 -16 10 -16 6 0 10 4 10 9 0 6 -4 13 -10 16 -5 3
-10 -1 -10 -9z"/>
<path d="M690 503 c0 -42 -1 -43 -35 -43 -24 0 -37 -6 -45 -19 -13 -25 -13
-41 0 -41 6 0 10 9 10 20 0 19 7 20 190 20 120 0 190 4 190 10 0 6 -7 10 -16
10 -9 0 -23 8 -30 18 -13 16 -13 16 -14 -3 0 -18 -6 -20 -62 -16 -35 1 -67 8
-71 15 -6 8 -10 8 -14 -1 -7 -19 -80 -17 -87 3 -3 9 -4 20 0 25 3 5 0 17 -5
26 -8 14 -10 9 -11 -24z"/>
<path d="M575 510 c-4 -6 14 -10 47 -9 45 1 49 3 23 9 -44 11 -63 11 -70 0z"/>
<path d="M148 428 c9 -9 15 -9 24 0 9 9 7 12 -12 12 -19 0 -21 -3 -12 -12z"/>
<path d="M520 434 c0 -3 6 -12 14 -20 20 -19 26 -18 26 6 0 13 -7 20 -20 20
-11 0 -20 -3 -20 -6z"/>
<path d="M356 421 c-4 -7 -5 -15 -2 -18 9 -9 19 4 14 18 -4 11 -6 11 -12 0z"/>
<path d="M940 410 c0 -19 3 -21 12 -12 9 9 9 15 0 24 -9 9 -12 7 -12 -12z"/>
<path d="M670 410 c0 -5 5 -10 10 -10 6 0 10 5 10 10 0 6 -4 10 -10 10 -5 0
-10 -4 -10 -10z"/>
<path d="M730 410 c0 -5 5 -10 10 -10 6 0 10 5 10 10 0 6 -4 10 -10 10 -5 0
-10 -4 -10 -10z"/>
<path d="M870 410 c0 -5 5 -10 10 -10 6 0 10 5 10 10 0 6 -4 10 -10 10 -5 0
-10 -4 -10 -10z"/>
<path d="M150 390 c0 -5 5 -10 10 -10 6 0 10 5 10 10 0 6 -4 10 -10 10 -5 0
-10 -4 -10 -10z"/>
<path d="M0 320 c0 -5 12 -10 26 -10 14 0 23 4 19 10 -3 6 -15 10 -26 10 -10
0 -19 -4 -19 -10z"/>
<path d="M385 320 c-4 -6 11 -10 37 -10 31 0 39 3 28 10 -20 13 -57 13 -65 0z"/>
<path d="M150 300 c0 -5 5 -10 10 -10 6 0 10 5 10 10 0 6 -4 10 -10 10 -5 0
-10 -4 -10 -10z"/>
<path d="M440 280 c0 -19 3 -21 12 -12 9 9 9 15 0 24 -9 9 -12 7 -12 -12z"/>
<path d="M310 270 c0 -15 7 -20 27 -20 l27 0 -22 20 c-12 11 -24 20 -27 20 -3
0 -5 -9 -5 -20z"/>
<path d="M370 243 c1 -43 2 -46 14 -30 20 25 92 31 106 9 8 -15 9 -14 10 6 0
20 -4 22 -59 22 -54 0 -59 2 -54 20 3 11 0 20 -6 20 -7 0 -11 -19 -11 -47z"/>
<path d="M491 274 c0 -11 3 -14 6 -6 3 7 2 16 -1 19 -3 4 -6 -2 -5 -13z"/>
<path d="M0 240 c0 -5 9 -10 20 -10 11 0 20 5 20 10 0 6 -9 10 -20 10 -11 0
-20 -4 -20 -10z"/>
<path d="M529 241 c7 -5 17 -15 22 -22 6 -10 9 -8 9 9 0 16 -6 22 -22 22 -17
0 -19 -3 -9 -9z"/>
<path d="M825 240 c3 -5 12 -10 20 -10 7 0 16 -6 18 -12 4 -9 6 -8 6 3 1 13
12 15 66 12 41 -2 65 0 65 7 0 6 -35 10 -91 10 -57 0 -88 -4 -84 -10z"/>
<path d="M310 220 c0 -5 5 -10 10 -10 6 0 10 5 10 10 0 6 -4 10 -10 10 -5 0
-10 -4 -10 -10z"/>
<path d="M500 160 l0 -30 250 0 c160 0 250 4 250 10 0 6 -13 10 -30 10 -18 0
-30 5 -30 13 0 9 10 12 30 9 18 -3 30 0 30 7 0 8 -73 11 -250 11 l-250 0 0
-30z m100 -1 c0 -5 -9 -9 -20 -9 -11 0 -20 6 -20 14 0 9 7 12 20 9 11 -3 20
-9 20 -14z m150 1 c0 -5 -29 -10 -65 -12 -53 -2 -65 0 -65 12 0 12 12 14 65
12 36 -2 65 -7 65 -12z m-210 0 c0 -5 -4 -10 -10 -10 -5 0 -10 5 -10 10 0 6 5
10 10 10 6 0 10 -4 10 -10z m320 0 c0 -5 -22 -10 -50 -10 -27 0 -50 5 -50 10
0 6 23 10 50 10 28 0 50 -4 50 -10z m70 0 c0 -5 -13 -10 -30 -10 -16 0 -30 5
-30 10 0 6 14 10 30 10 17 0 30 -4 30 -10z"/>
<path d="M235 103 c-8 -26 -25 -31 -25 -8 0 8 -4 15 -10 15 -5 0 -10 -7 -10
-15 0 -8 -9 -15 -20 -15 -11 0 -20 7 -20 15 0 8 -4 15 -10 15 -5 0 -10 -7 -10
-15 0 -22 -57 -20 -63 3 -4 16 -5 16 -6 0 -1 -13 -10 -18 -31 -18 -17 0 -30
-4 -30 -10 0 -7 173 -10 500 -10 327 0 500 3 500 10 0 6 -13 10 -30 10 -20 0
-30 5 -30 15 0 8 -4 15 -10 15 -5 0 -10 -7 -10 -15 0 -9 -9 -15 -25 -15 -16 0
-25 6 -25 15 0 8 -4 15 -10 15 -5 0 -10 -7 -10 -15 0 -13 -26 -15 -175 -15
-149 0 -175 2 -175 15 0 8 -4 15 -10 15 -5 0 -10 -7 -10 -15 0 -8 -9 -15 -20
-15 -11 0 -20 7 -20 15 0 8 -4 15 -10 15 -5 0 -10 -7 -10 -15 0 -8 -7 -15 -15
-15 -8 0 -15 7 -15 15 0 8 -4 15 -10 15 -5 0 -10 -7 -10 -15 0 -22 -57 -20
-63 3 -4 16 -5 16 -6 0 -2 -28 -48 -24 -54 5 l-4 22 -8 -22z"/>
<path d="M110 20 c0 -11 5 -20 10 -20 6 0 10 9 10 20 0 11 -4 20 -10 20 -5 0
-10 -9 -10 -20z"/>
<path d="M250 20 c0 -11 5 -20 10 -20 6 0 10 9 10 20 0 11 -4 20 -10 20 -5 0
-10 -9 -10 -20z"/>
<path d="M290 20 c0 -11 5 -20 10 -20 6 0 10 9 10 20 0 11 -4 20 -10 20 -5 0
-10 -9 -10 -20z"/>
<path d="M442 20 c0 -14 2 -19 5 -12 2 6 2 18 0 25 -3 6 -5 1 -5 -13z"/>
<path d="M502 20 c0 -14 2 -19 5 -12 2 6 2 18 0 25 -3 6 -5 1 -5 -13z"/>
<path d="M612 20 c0 -14 2 -19 5 -12 2 6 2 18 0 25 -3 6 -5 1 -5 -13z"/>
<path d="M812 20 c0 -14 2 -19 5 -12 2 6 2 18 0 25 -3 6 -5 1 -5 -13z"/>
</g>
</svg>
