<?xml version="1.0" standalone="no"?>
<!DOCTYPE svg PUBLIC "-//W3C//DTD SVG 20010904//EN"
 "http://www.w3.org/TR/2001/REC-SVG-20010904/DTD/svg10.dtd">
<svg version="1.0" xmlns="http://www.w3.org/2000/svg"
 width="192.000000pt" height="192.000000pt" viewBox="0 0 192.000000 192.000000"
 preserveAspectRatio="xMidYMid meet">
<metadata>
Created by potrace 1.16, written by Peter Selinger 2001-2019
</metadata>
<g transform="translate(0.000000,192.000000) scale(0.100000,-0.100000)"
fill="#000000" stroke="none">
<path d="M1465 1815 c-139 -19 -190 -34 -315 -93 -157 -75 -296 -188 -398
-326 -61 -82 -142 -227 -142 -254 0 -18 -15 -22 -41 -9 -102 52 -245 87 -391
94 l-128 6 0 -325 0 -325 86 -17 c214 -42 373 -211 391 -416 l6 -60 328 0 329
0 0 320 c0 345 4 386 52 488 64 136 239 262 364 262 68 0 64 -22 64 341 l0
329 -57 -1 c-32 -1 -98 -7 -148 -14z m185 -314 c0 -341 4 -321 -64 -321 -125
0 -300 -126 -364 -262 -48 -102 -52 -143 -52 -488 l0 -320 -309 0 -308 0 -6
60 c-18 205 -177 374 -391 416 l-86 17 0 305 0 305 104 -6 c137 -8 285 -46
393 -103 l41 -21 10 21 c6 11 27 57 48 101 48 102 156 246 237 317 135 120
297 209 447 249 53 14 209 36 263 38 l37 1 0 -309z"/>
<path d="M599 1068 c0 -2 -2 -14 -4 -28 -2 -14 -11 -54 -21 -90 -14 -53 -17
-121 -19 -375 l-2 -310 7 305 c5 219 12 324 23 372 25 107 21 106 117 34 235
-174 382 -418 425 -706 8 -52 15 -103 15 -112 0 -16 -22 -18 -282 -21 l-283
-2 289 -3 289 -2 -6 102 c-16 302 -208 621 -477 794 -25 16 -46 32 -48 37 -3
6 -21 10 -23 5z"/>
</g>
</svg>
