<?xml version="1.0" standalone="no"?>
<!DOCTYPE svg PUBLIC "-//W3C//DTD SVG 20010904//EN"
 "http://www.w3.org/TR/2001/REC-SVG-20010904/DTD/svg10.dtd">
<svg version="1.0" xmlns="http://www.w3.org/2000/svg"
 width="192.000000pt" height="192.000000pt" viewBox="0 0 192.000000 192.000000"
 preserveAspectRatio="xMidYMid meet">
<metadata>
Created by potrace 1.16, written by Peter Selinger 2001-2019
</metadata>
<g transform="translate(0.000000,192.000000) scale(0.100000,-0.100000)"
fill="#000000" stroke="none">
<path d="M13 1913 c-21 -8 -15 -33 7 -33 11 0 20 5 20 10 0 6 9 10 20 10 11 0
20 5 20 10 0 10 -45 12 -67 3z"/>
<path d="M118 1906 c-15 -8 -38 -22 -50 -30 -18 -13 -19 -16 -5 -16 9 0 17 5
17 10 0 6 19 10 43 11 36 1 38 2 17 9 -15 5 26 8 109 9 74 1 132 3 130 5 -2 2
-56 7 -119 10 -92 5 -121 4 -142 -8z"/>
<path d="M1820 1910 c0 -5 9 -10 20 -10 11 0 20 -4 20 -10 0 -5 9 -10 20 -10
13 0 20 -7 20 -20 0 -11 5 -20 10 -20 6 0 10 13 10 28 0 21 -7 32 -25 40 -32
15 -75 16 -75 2z"/>
<path d="M17 1849 c-18 -11 -24 -49 -7 -49 6 0 10 9 10 19 0 11 6 21 13 24 6
2 10 7 7 10 -3 3 -13 1 -23 -4z"/>
<path d="M640 1690 c0 -5 -14 -10 -30 -10 -32 0 -48 -12 -151 -112 -47 -45
-59 -62 -59 -87 0 -17 -4 -31 -10 -31 -17 0 -11 -59 8 -78 9 -10 40 -45 67
-78 28 -32 68 -79 91 -104 22 -25 52 -58 65 -75 13 -16 44 -52 69 -80 25 -27
63 -71 83 -97 21 -26 51 -60 67 -77 17 -16 27 -31 22 -34 -4 -2 -2 -2 5 -1 6
2 25 -10 42 -27 38 -36 81 -40 81 -6 0 18 2 19 10 7 8 -13 10 -12 10 3 0 9 25
42 55 72 30 31 55 60 55 65 0 5 26 36 58 69 31 32 65 70 75 83 26 34 96 115
140 161 21 22 50 56 65 76 15 20 29 38 32 41 20 17 50 71 45 79 -14 23 -53 68
-94 107 -24 24 -40 47 -36 53 3 6 2 10 -3 9 -5 -2 -26 12 -45 30 -24 21 -47
32 -66 32 -16 0 -33 5 -36 10 -4 6 -118 10 -311 10 -196 0 -304 -4 -304 -10z
m590 -40 c0 -16 -4 -30 -10 -30 -5 0 -10 -10 -10 -21 0 -12 -10 -30 -22 -40
-19 -17 -41 -19 -245 -19 -234 0 -253 3 -253 44 0 9 -4 16 -9 16 -5 0 -11 18
-13 40 l-4 40 283 0 283 0 0 -30z m-600 -30 c0 -11 5 -20 10 -20 6 0 10 -15
10 -34 0 -36 -15 -46 -72 -46 -15 0 -30 -4 -33 -10 -3 -5 -16 -10 -29 -10 -12
0 -31 -6 -41 -14 -19 -14 -55 -10 -55 6 0 5 5 6 10 3 6 -3 10 1 10 9 0 9 6 16
13 17 6 0 37 27 67 59 40 43 62 59 83 59 21 1 27 -4 27 -19z m690 10 c0 -5 5
-10 11 -10 5 0 32 -22 58 -50 26 -27 53 -50 60 -50 6 0 11 -7 11 -16 0 -8 5
-12 10 -9 6 3 10 2 10 -4 0 -18 -15 -20 -45 -7 -45 19 -99 36 -118 36 -9 0
-28 5 -42 12 -20 9 -25 18 -25 50 0 24 4 37 10 33 6 -3 10 1 10 9 0 10 9 16
25 16 14 0 25 -4 25 -10z m-170 -128 c0 -7 5 -10 10 -7 6 3 10 -4 10 -17 0
-18 -2 -20 -10 -8 -7 11 -10 5 -10 -23 0 -23 -4 -36 -10 -32 -6 4 -10 -8 -10
-30 0 -22 -4 -34 -10 -30 -6 4 -10 -8 -10 -30 0 -22 -4 -34 -10 -30 -6 4 -10
-8 -10 -29 0 -20 -4 -36 -10 -36 -5 0 -10 -13 -10 -30 0 -16 -4 -30 -10 -30
-5 0 -10 -13 -10 -30 0 -16 -4 -30 -10 -30 -5 0 -10 -13 -10 -30 0 -16 -4 -30
-10 -30 -5 0 -10 -13 -10 -30 0 -16 -4 -30 -10 -30 -5 0 -10 -13 -10 -30 0
-16 -4 -30 -10 -30 -5 0 -10 -11 -10 -25 0 -14 -11 -37 -25 -51 l-25 -25 -45
45 c-25 25 -45 50 -45 56 0 6 -27 38 -60 70 -33 32 -60 64 -60 70 0 6 -28 39
-62 75 -72 73 -91 95 -83 95 3 0 -14 20 -37 44 -80 81 -108 117 -108 135 0 14
19 22 98 41 53 13 101 27 106 32 14 12 46 10 46 -3 0 -5 5 -7 10 -4 6 3 10 -3
10 -14 0 -12 5 -21 10 -21 6 0 10 -14 10 -31 0 -17 4 -28 10 -24 6 4 10 -8 10
-30 0 -22 4 -34 10 -30 6 4 10 -7 10 -25 0 -18 4 -29 10 -25 6 4 10 -7 10 -24
0 -17 5 -31 10 -31 6 0 10 -13 10 -30 0 -16 5 -30 10 -30 6 0 10 -15 10 -32 0
-25 3 -29 10 -18 7 11 10 3 10 -30 0 -33 3 -41 10 -30 7 11 10 7 10 -17 0 -18
5 -33 10 -33 6 0 10 -13 10 -30 0 -16 5 -30 10 -30 6 0 10 -14 10 -31 0 -17 4
-28 10 -24 6 4 10 -5 10 -19 0 -14 5 -26 10 -26 6 0 10 19 10 43 0 31 -3 38
-10 27 -7 -11 -10 -3 -10 30 0 33 -3 41 -10 30 -7 -11 -10 -3 -10 30 0 33 -3
41 -10 30 -7 -11 -10 -3 -10 30 0 33 -3 41 -10 30 -7 -11 -10 -3 -10 30 0 33
-3 41 -10 30 -7 -11 -10 -3 -10 30 0 33 -3 41 -10 30 -7 -11 -10 -3 -10 30 0
33 -3 41 -10 30 -7 -11 -10 -3 -10 30 0 33 -3 41 -10 30 -7 -11 -10 -3 -10 28
0 26 -4 41 -10 37 -6 -4 -10 7 -10 25 0 18 -4 29 -10 25 -14 -9 -13 33 1 48
17 18 409 17 409 -1z m157 -18 c32 -9 84 -23 116 -31 86 -23 82 -32 -68 -187
-33 -34 -61 -68 -63 -75 -1 -7 -34 -43 -72 -81 -39 -38 -70 -74 -70 -80 0 -6
-27 -38 -60 -70 -33 -32 -60 -64 -60 -70 0 -11 -44 -60 -55 -60 -3 0 -5 9 -5
20 0 11 5 20 10 20 6 0 10 9 10 20 0 11 5 20 10 20 6 0 10 14 10 30 0 17 5 30
10 30 6 0 10 15 10 33 0 24 3 28 10 17 7 -11 10 -3 10 30 0 33 3 41 10 30 7
-11 10 -7 10 18 0 17 5 32 10 32 6 0 10 14 10 30 0 17 5 30 10 30 6 0 10 14
10 31 0 17 4 28 10 24 6 -4 10 7 10 25 0 18 4 29 10 25 6 -4 10 7 10 24 0 17
5 31 10 31 6 0 10 14 10 31 0 17 4 28 10 24 6 -4 10 7 10 25 0 18 4 29 10 25
6 -4 10 5 10 19 0 31 15 33 97 10z m-334 -688 c4 -10 0 -12 -14 -9 -27 7 -34
23 -11 23 11 0 22 -6 25 -14z"/>
<path d="M1480 1555 c0 -13 51 -56 62 -53 10 4 4 12 -36 46 -16 13 -26 15 -26
7z"/>
<path d="M1555 1491 c-3 -6 -1 -11 5 -11 7 0 24 -13 40 -30 15 -16 30 -26 34
-23 3 3 6 -10 6 -30 0 -34 -10 -47 -105 -142 -58 -58 -110 -105 -117 -105 -6
0 -9 -3 -5 -6 8 -8 -18 -34 -33 -34 -6 0 -8 -4 -5 -10 3 -5 -1 -10 -10 -10 -9
0 -13 -4 -10 -10 3 -5 -1 -10 -10 -10 -9 0 -13 -4 -10 -10 3 -5 -1 -10 -10
-10 -9 0 -13 -4 -10 -10 3 -5 -1 -10 -10 -10 -9 0 -13 -4 -10 -10 3 -5 -1 -10
-10 -10 -9 0 -13 -4 -10 -10 3 -5 -1 -10 -10 -10 -9 0 -13 -4 -10 -10 3 -5 -1
-10 -10 -10 -9 0 -13 -4 -10 -10 3 -5 -1 -10 -10 -10 -9 0 -13 -4 -10 -10 3
-5 1 -10 -5 -10 -6 0 -55 -44 -109 -99 -82 -82 -104 -99 -134 -103 -26 -3 -37
0 -37 9 0 7 -4 13 -10 13 -18 0 -10 -19 15 -36 50 -33 66 -20 396 312 173 173
317 324 322 336 4 13 5 33 2 46 -5 22 -39 62 -52 62 -3 0 -14 7 -24 16 -11 10
-19 12 -24 5z"/>
<path d="M870 804 c1 -15 29 -48 36 -41 3 3 -3 16 -15 28 -12 13 -21 19 -21
13z"/>
<path d="M0 691 c0 -15 15 -25 55 -40 31 -12 60 -21 65 -21 5 0 21 -5 37 -12
15 -6 35 -12 43 -14 24 -5 104 -25 120 -31 8 -3 33 -8 55 -10 22 -2 42 -8 45
-12 3 -4 30 -9 60 -10 30 -2 57 -6 60 -11 13 -19 512 -37 613 -21 40 6 98 12
130 13 32 1 60 5 63 10 3 4 21 8 39 8 33 0 91 11 165 32 20 5 48 11 63 11 15
1 27 5 27 8 0 4 17 10 38 14 20 3 69 18 107 32 39 13 85 29 103 35 35 12 44
38 12 38 -11 0 -20 -4 -20 -10 0 -5 -13 -10 -30 -10 -16 0 -30 -4 -30 -10 0
-5 -13 -10 -30 -10 -16 0 -30 -4 -30 -10 0 -5 -13 -10 -30 -10 -16 0 -30 -4
-30 -10 0 -5 -18 -10 -40 -10 -22 0 -40 -4 -40 -10 0 -5 -16 -10 -35 -10 -19
0 -35 -4 -35 -10 0 -5 -22 -10 -50 -10 -27 0 -50 -4 -50 -10 0 -5 -20 -10 -44
-10 -25 0 -57 -5 -73 -11 -15 -6 -56 -11 -91 -9 -47 1 -63 -2 -68 -14 -4 -11
-12 -13 -29 -6 -13 5 -25 6 -29 3 -7 -7 -325 -8 -332 -1 -3 3 -21 2 -40 -2
-26 -6 -34 -5 -34 6 0 10 -18 13 -77 13 -48 -1 -79 3 -81 10 -2 6 -29 11 -63
11 -33 0 -59 4 -59 10 0 6 -20 10 -45 10 -25 0 -45 5 -45 10 0 6 -18 10 -40
10 -22 0 -40 5 -40 10 0 6 -18 10 -40 10 -22 0 -40 5 -40 10 0 6 -13 10 -30
10 -16 0 -30 5 -30 10 0 6 -13 10 -30 10 -16 0 -30 5 -30 10 0 6 -12 10 -26
10 -14 0 -23 4 -19 10 3 6 1 10 -4 10 -6 0 -11 -9 -11 -19z"/>
<path d="M64 458 c-11 -17 -18 -198 -10 -261 6 -44 12 -57 32 -68 32 -16 186
-17 192 -1 2 7 8 12 14 12 5 0 17 8 26 17 16 16 17 15 20 -6 2 -12 9 -24 15
-27 30 -11 79 -10 102 2 14 7 25 9 25 3 0 -5 7 -9 15 -9 8 0 15 -4 15 -10 0
-13 103 -13 116 0 5 5 52 10 104 12 l95 3 6 80 5 80 3 -67 c2 -38 4 -74 5 -80
1 -8 21 -14 54 -16 l52 -3 0 80 c0 65 3 81 15 81 12 0 15 -13 15 -57 0 -96 5
-103 61 -103 33 0 51 5 57 16 8 14 10 14 21 0 8 -9 22 -16 32 -16 10 0 21 -5
24 -10 8 -13 69 -13 95 0 11 6 29 14 40 20 12 6 21 6 25 0 3 -6 33 -10 66 -10
l59 0 2 83 2 82 5 -80 6 -80 63 -3 c44 -2 62 1 62 10 0 9 3 9 12 0 7 -7 20
-12 30 -12 10 0 18 -4 18 -10 0 -25 136 -3 168 27 8 8 12 57 12 172 l0 161
-49 0 c-52 0 -61 -8 -61 -56 0 -22 -4 -24 -47 -24 -37 0 -53 -6 -75 -27 -26
-25 -28 -26 -28 -6 0 29 -17 33 -130 33 -73 0 -102 -4 -113 -15 -13 -13 -16
-13 -27 0 -9 11 -35 15 -96 15 -74 0 -85 -2 -98 -22 l-16 -22 -23 22 c-22 21
-32 22 -195 22 -143 0 -174 -3 -178 -15 -5 -13 -8 -13 -21 0 -12 13 -84 22
-118 15 -5 -1 -56 -2 -112 -2 -102 -1 -104 -1 -131 28 -15 16 -43 35 -63 42
-46 16 -185 16 -195 0z m1756 -153 c0 -144 0 -145 -22 -145 -19 0 -20 -2 -8
-10 10 -7 -11 -10 -70 -10 -59 0 -80 3 -70 10 12 8 10 10 -10 10 -20 0 -22 2
-10 10 10 6 11 10 3 10 -9 0 -13 21 -13 70 0 40 4 70 10 70 6 0 10 6 10 14 0
18 22 26 76 26 l44 0 0 45 c0 43 1 45 30 45 l30 0 0 -145z m-1581 120 c38 -8
61 -26 61 -49 0 -9 5 -16 10 -16 6 0 10 -32 10 -76 0 -47 -4 -73 -10 -69 -5 3
-10 -1 -10 -10 0 -21 -24 -45 -44 -45 -9 0 -16 -4 -16 -10 0 -6 -27 -10 -62
-10 -45 0 -59 3 -48 10 13 8 12 10 -3 10 -40 0 -47 23 -47 148 0 87 3 122 13
126 14 6 98 1 146 -9z m196 -64 c6 -1 10 -45 10 -111 l0 -110 -32 0 -33 0 0
108 c0 60 3 111 6 114 3 3 13 5 22 3 9 -2 22 -4 27 -4z m337 -12 c7 -11 11
-11 15 -1 6 15 103 17 103 2 0 -5 9 -10 20 -10 11 0 20 5 20 10 0 6 23 10 50
10 33 0 50 -4 50 -12 0 -9 4 -8 10 2 8 12 10 10 10 -8 0 -13 4 -20 10 -17 6 4
10 -28 10 -89 l0 -96 -30 0 -30 0 0 90 0 90 -40 0 -40 0 0 -90 0 -90 -30 0
-30 0 0 90 0 90 -40 0 -40 0 0 -90 0 -90 -30 0 -30 0 0 114 c0 98 2 114 16
112 8 -1 20 -9 26 -17z m634 4 c13 -13 19 -14 22 -5 5 17 100 16 118 -2 8 -8
14 -22 14 -30 0 -9 5 -16 10 -16 6 0 10 -5 10 -11 0 -5 -4 -7 -10 -4 -6 4 -10
-18 -10 -60 0 -42 4 -64 10 -60 6 3 10 -1 10 -9 0 -11 -10 -16 -33 -16 l-34 0
5 74 c4 59 1 78 -11 90 -19 19 -76 21 -78 4 -3 -28 2 -134 7 -150 4 -15 -1
-18 -30 -18 l-36 0 0 108 c0 94 4 122 16 122 1 0 10 -8 20 -17z m-750 -7 c10
-10 15 -42 16 -103 l2 -88 6 85 6 85 2 -92 2 -93 -96 0 c-61 0 -93 4 -89 10 3
6 0 10 -8 10 -11 0 -14 13 -14 50 0 36 4 50 13 50 8 0 14 5 14 10 0 6 27 10
60 10 45 0 60 4 60 14 0 18 -22 26 -71 26 -24 0 -39 -5 -39 -12 0 -20 -20 14
-20 35 0 15 10 17 71 17 48 0 75 -5 85 -14z m632 -2 c19 -13 22 -24 22 -90 0
-45 -4 -74 -11 -74 -5 0 -7 -4 -4 -10 3 -5 -1 -10 -10 -10 -9 0 -13 -4 -10
-10 4 -6 -17 -10 -55 -10 -63 0 -90 13 -90 44 0 9 -4 16 -10 16 -6 0 -10 27
-10 63 0 44 3 58 10 47 8 -13 10 -12 10 3 0 10 6 24 13 32 17 20 116 20 145
-1z m-811 -56 c-3 -7 -5 -2 -5 12 0 14 2 19 5 13 2 -7 2 -19 0 -25z"/>
<path d="M1680 250 l0 -70 40 0 40 0 0 70 0 70 -40 0 -40 0 0 -70z m48 3 c-4
-39 -28 -42 -28 -4 0 21 5 31 16 31 11 0 14 -8 12 -27z"/>
<path d="M140 298 c0 -99 9 -118 57 -118 22 0 25 2 13 10 -13 8 -12 10 3 10
34 0 47 25 47 90 0 73 -9 85 -73 92 l-47 6 0 -90z m78 30 c18 -38 3 -92 -26
-96 -21 -3 -22 0 -22 63 0 58 2 66 17 63 10 -2 24 -15 31 -30z"/>
<path d="M542 210 c-2 -27 0 -30 29 -30 33 0 59 19 59 44 0 12 -11 16 -43 16
-40 0 -43 -2 -45 -30z"/>
<path d="M1190 309 c0 -5 -4 -7 -10 -4 -6 4 -10 -13 -10 -45 0 -58 15 -80 54
-80 25 0 26 1 26 70 l0 70 -30 0 c-16 0 -30 -5 -30 -11z m40 -60 c0 -17 -4
-28 -10 -24 -5 3 -10 17 -10 31 0 13 5 24 10 24 6 0 10 -14 10 -31z"/>
<path d="M1880 50 c-14 -16 -33 -30 -42 -30 -10 0 -18 -4 -18 -10 0 -11 31
-11 75 0 21 5 24 8 10 9 -19 2 -19 2 -2 15 17 13 24 46 10 46 -5 0 -19 -14
-33 -30z"/>
<path d="M2 38 c2 -13 8 -26 13 -30 15 -11 65 -10 65 2 0 6 -8 10 -18 10 -10
0 -24 9 -32 20 -19 27 -32 25 -28 -2z"/>
</g>
</svg>
