<?xml version="1.0" standalone="no"?>
<!DOCTYPE svg PUBLIC "-//W3C//DTD SVG 20010904//EN"
 "http://www.w3.org/TR/2001/REC-SVG-20010904/DTD/svg10.dtd">
<svg version="1.0" xmlns="http://www.w3.org/2000/svg"
 width="180.000000pt" height="180.000000pt" viewBox="0 0 180.000000 180.000000"
 preserveAspectRatio="xMidYMid meet">
<metadata>
Created by potrace 1.16, written by Peter Selinger 2001-2019
</metadata>
<g transform="translate(0.000000,180.000000) scale(0.100000,-0.100000)"
fill="#000000" stroke="none">
<path d="M310 1793 c-8 -3 -48 -20 -87 -39 l-73 -33 0 -60 c0 -49 6 -69 36
-123 54 -95 60 -100 119 -95 27 2 75 11 105 20 149 45 175 49 265 44 115 -6
277 -56 332 -101 10 -8 44 -35 75 -59 87 -67 201 -227 219 -307 4 -19 15 -64
24 -100 20 -77 16 -196 -10 -280 -35 -115 -47 -140 -98 -205 -29 -37 -57 -76
-63 -87 -7 -11 -21 -25 -32 -32 -11 -6 -42 -29 -71 -51 l-51 -39 0 -62 c0 -54
5 -71 36 -123 20 -34 43 -61 50 -61 19 0 19 2 -26 75 -30 49 -40 76 -40 108 0
39 4 45 58 87 31 25 65 48 75 52 9 4 17 12 17 18 0 5 23 38 51 72 57 71 84
119 98 175 6 21 17 65 26 98 20 77 20 204 0 280 -9 33 -20 76 -24 95 -18 80
-132 240 -219 307 -31 24 -65 51 -75 59 -45 37 -197 88 -309 103 -40 6 -96 6
-140 0 -64 -8 -101 -17 -234 -59 -68 -22 -80 -14 -138 88 -24 43 -36 77 -36
103 0 39 1 40 64 70 35 17 90 39 122 49 l59 19 -45 0 c-25 0 -52 -3 -60 -6z"/>
<path d="M967 1770 c45 -16 108 -44 140 -62 32 -18 69 -39 83 -45 41 -19 182
-152 235 -222 27 -36 57 -74 66 -85 10 -10 23 -32 29 -50 7 -17 22 -56 35 -86
57 -136 67 -187 72 -365 4 -158 3 -177 -21 -268 -14 -54 -37 -123 -51 -154
-14 -30 -25 -61 -25 -68 0 -23 -155 -221 -215 -274 -105 -93 -103 -91 -79 -91
33 0 154 117 237 228 42 58 77 110 77 117 0 7 11 38 25 68 14 31 37 100 51
154 24 92 25 109 21 288 -5 201 -13 245 -72 385 -13 30 -28 69 -35 86 -6 18
-19 40 -29 50 -9 11 -39 49 -66 85 -53 70 -194 203 -235 222 -14 6 -51 27 -83
45 -72 42 -159 72 -206 72 -31 -1 -25 -5 46 -30z"/>
<path d="M504 1170 c-74 -29 -146 -98 -180 -173 -26 -56 -29 -72 -29 -172 0
-99 3 -116 27 -168 57 -121 163 -189 305 -195 108 -5 175 15 254 76 52 40 65
57 91 117 28 66 29 76 26 185 -3 105 -6 121 -35 180 -32 65 -54 86 -148 141
-34 19 -57 23 -150 26 -92 3 -118 0 -161 -17z m291 -29 c93 -54 116 -76 148
-141 27 -56 32 -78 35 -160 3 -88 1 -101 -26 -165 -26 -60 -39 -77 -91 -117
-37 -29 -84 -54 -118 -64 -159 -46 -330 32 -401 183 -23 50 -27 71 -27 148 0
78 4 98 29 152 34 75 106 144 180 173 72 29 213 24 271 -9z"/>
</g>
</svg>
