<?xml version="1.0" standalone="no"?>
<!DOCTYPE svg PUBLIC "-//W3C//DTD SVG 20010904//EN"
 "http://www.w3.org/TR/2001/REC-SVG-20010904/DTD/svg10.dtd">
<svg version="1.0" xmlns="http://www.w3.org/2000/svg"
 width="100.000000pt" height="100.000000pt" viewBox="0 0 100.000000 100.000000"
 preserveAspectRatio="xMidYMid meet">
<metadata>
Created by potrace 1.16, written by Peter Selinger 2001-2019
</metadata>
<g transform="translate(0.000000,100.000000) scale(0.100000,-0.100000)"
fill="#000000" stroke="none">
<path d="M64 525 l0 -480 6 405 c3 223 2 439 -1 480 -3 41 -6 -141 -5 -405z"/>
<path d="M190 950 c-10 -6 50 -10 178 -10 l192 0 0 -25 c0 -18 -5 -25 -20 -25
-11 0 -20 7 -20 15 0 8 -4 15 -10 15 -5 0 -10 -7 -10 -15 0 -12 -14 -15 -65
-15 -51 0 -65 3 -65 15 0 8 -4 15 -10 15 -5 0 -10 -7 -10 -15 0 -8 -9 -15 -20
-15 -11 0 -20 7 -20 15 0 8 -4 15 -10 15 -5 0 -10 -7 -10 -15 0 -8 -9 -15 -20
-15 -11 0 -20 7 -20 15 0 8 -4 15 -10 15 -5 0 -10 -7 -10 -15 0 -25 -38 -18
-43 8 l-4 22 -2 -22 c-1 -19 -7 -23 -36 -23 l-35 0 0 -409 c0 -225 3 -416 6
-425 5 -14 37 -16 249 -16 l244 0 4 -22 c3 -17 5 -14 6 10 0 17 6 32 11 32 6
0 10 11 10 25 0 23 4 24 63 27 59 3 62 4 65 30 3 24 8 28 33 28 26 0 29 3 29
30 0 19 5 30 15 31 8 1 21 2 28 3 8 1 13 23 15 64 3 55 5 62 23 62 19 0 20 -5
17 -85 -2 -47 0 -85 5 -85 4 0 7 42 7 93 0 51 5 98 10 103 7 7 10 59 8 135
l-3 124 -32 3 c-37 4 -45 22 -10 22 30 0 47 18 47 50 0 38 -18 50 -77 50 -52
0 -53 0 -53 30 0 27 -3 30 -29 30 -25 0 -30 4 -33 28 -3 26 -6 27 -65 30 -54
3 -63 6 -63 22 0 43 -32 50 -240 50 -109 0 -202 -5 -210 -10z m430 -35 c0 -18
-5 -25 -19 -25 -12 0 -20 9 -23 25 -4 21 -1 25 18 25 19 0 24 -5 24 -25z m130
-65 c0 -13 -7 -20 -20 -20 -11 0 -20 7 -20 15 0 8 -4 15 -10 15 -5 0 -10 -8
-10 -19 0 -14 -6 -17 -25 -13 -14 2 -25 8 -25 13 0 5 -4 9 -10 9 -5 0 -10 -9
-10 -20 0 -19 7 -20 95 -20 94 0 95 0 95 -25 0 -19 -4 -23 -17 -18 -10 4 -23
14 -30 22 -11 14 -12 12 -13 -11 0 -24 4 -28 30 -28 27 0 30 -3 30 -30 0 -27
3 -30 30 -30 l30 0 0 -190 0 -190 -26 0 c-22 0 -24 3 -18 23 3 12 11 23 15 25
17 7 9 22 -11 22 -18 0 -20 -7 -20 -65 l0 -65 -30 0 c-27 0 -30 -3 -30 -30 l0
-30 -65 0 c-58 0 -65 -2 -65 -20 0 -20 15 -28 22 -11 2 4 13 12 26 15 19 6 22
4 22 -18 l0 -26 -280 0 -280 0 0 370 0 370 310 0 c303 0 310 0 310 -20z m120
-124 c0 -19 -4 -23 -19 -19 -11 3 -21 13 -24 24 -4 15 0 19 19 19 19 0 24 -5
24 -24z m70 -6 c0 -25 -4 -30 -24 -30 -19 0 -25 6 -28 30 -4 27 -2 30 24 30
24 0 28 -4 28 -30z m0 -215 l0 -125 -25 0 c-33 0 -34 35 -2 45 l22 8 -22 4
c-26 5 -33 43 -8 43 8 0 15 5 15 10 0 6 -7 10 -15 10 -10 0 -15 10 -15 29 0
23 5 31 23 34 l22 4 -22 8 c-34 11 -32 55 2 55 l25 0 0 -125z m-70 -230 c0
-18 -5 -25 -20 -25 -25 0 -27 37 -2 43 9 3 18 5 20 6 1 0 2 -10 2 -24z m-60
-60 c0 -20 -5 -25 -24 -25 -19 0 -23 4 -19 19 3 11 12 22 22 24 9 3 17 5 19 6
1 0 2 -10 2 -24z m-60 -65 c0 -14 -7 -20 -24 -20 -19 0 -23 4 -19 20 3 11 14
20 24 20 12 0 19 -7 19 -20z m-460 -56 c0 -8 5 -14 10 -14 6 0 10 7 10 15 0 8
9 15 20 15 11 0 20 -7 20 -15 0 -8 5 -15 10 -15 6 0 10 7 10 15 0 9 9 15 25
15 16 0 25 -6 25 -15 0 -8 5 -15 10 -15 6 0 10 7 10 15 0 10 10 15 30 15 20 0
30 -5 30 -15 0 -8 5 -15 10 -15 6 0 10 7 10 15 0 25 38 18 43 -7 l4 -23 8 23
c10 31 45 30 45 -3 l0 -25 -245 0 -245 0 0 28 0 27 80 -3 c61 -3 80 -7 80 -18z"/>
<path d="M177 853 c-4 -3 -7 -14 -7 -24 0 -9 -6 -20 -12 -23 -10 -5 -10 -7 0
-12 6 -3 12 -14 12 -24 0 -10 -6 -21 -12 -24 -10 -5 -10 -7 0 -12 9 -4 12 -62
12 -239 0 -177 -3 -235 -12 -238 -10 -4 -10 -6 0 -6 18 -1 15 -32 -6 -47 -16
-12 -15 -13 5 -14 16 0 20 -5 16 -19 -3 -10 0 -22 6 -25 8 -5 11 96 11 353 0
199 -1 361 -3 361 -2 0 -7 -3 -10 -7z"/>
<path d="M223 835 c-20 -22 -16 -25 37 -25 43 0 50 3 50 20 0 24 -6 25 -26 5
-9 -8 -20 -15 -25 -15 -5 0 -9 7 -9 15 0 19 -11 19 -27 0z"/>
<path d="M560 830 c0 -19 -7 -20 -95 -20 -88 0 -95 -1 -95 -20 0 -20 16 -28
22 -10 5 14 141 16 146 2 6 -20 22 -13 22 8 0 15 7 20 27 20 l27 0 -22 20
c-12 11 -24 20 -27 20 -3 0 -5 -9 -5 -20z"/>
<path d="M690 770 c0 -13 7 -20 20 -20 24 0 25 6 6 26 -20 19 -26 18 -26 -6z"/>
<path d="M210 741 c0 -5 4 -11 10 -13 6 -2 10 -103 10 -260 1 -149 5 -260 11
-263 5 -4 9 100 9 269 0 269 0 276 -20 276 -11 0 -20 -4 -20 -9z"/>
<path d="M310 500 l0 -250 28 0 c24 1 25 2 10 14 -21 15 -24 42 -5 50 10 5 10
7 0 12 -9 4 -13 32 -13 89 0 57 4 85 13 89 10 5 10 7 0 12 -18 8 -18 150 0
158 10 5 10 7 0 12 -19 8 -16 35 5 50 15 12 14 13 -10 14 l-28 0 0 -250z"/>
<path d="M370 500 l0 -250 95 0 95 0 0 28 c-1 24 -2 25 -14 10 -15 -21 -42
-24 -49 -5 -4 9 -8 8 -16 -3 -10 -13 -12 -13 -22 0 -8 11 -12 12 -16 3 -8 -21
-50 -15 -56 7 -5 19 0 20 114 20 l119 0 0 154 0 153 25 -5 c18 -3 25 -11 25
-28 0 -15 -6 -24 -15 -24 -8 0 -15 -4 -15 -10 0 -5 7 -10 15 -10 11 0 15 -11
15 -40 0 -29 -4 -40 -15 -40 -8 0 -15 -4 -15 -10 0 -5 7 -10 15 -10 24 0 18
-37 -7 -45 -22 -7 -22 -8 5 -12 20 -3 27 -9 23 -20 -3 -8 -6 -19 -6 -24 0 -5
-6 -9 -14 -9 -8 0 -18 -4 -21 -10 -4 -6 7 -10 24 -10 l31 0 0 190 0 190 -31 0
c-17 0 -28 -4 -24 -10 3 -5 12 -10 20 -10 11 0 25 -20 25 -36 0 -2 -13 -4 -30
-4 -27 0 -30 3 -30 30 l0 30 -115 0 c-108 0 -115 1 -115 20 0 17 7 20 41 20
28 0 46 -6 55 -17 13 -17 13 -17 14 0 0 9 7 17 16 17 9 0 23 -8 30 -17 12 -16
13 -15 14 10 l0 27 -95 0 -95 0 0 -250z m172 143 c2 -22 9 -29 31 -31 l27 -3
0 -105 c0 -93 -2 -104 -18 -104 -25 0 -42 -19 -42 -47 0 -22 -3 -23 -75 -23
-68 0 -75 2 -75 20 0 12 7 20 18 21 16 1 16 2 0 6 -15 4 -18 16 -18 64 0 54 2
59 23 60 l22 2 -22 4 c-22 4 -23 9 -23 84 l0 79 74 0 c74 0 75 0 78 -27z m58
7 c0 -13 -7 -20 -20 -20 -13 0 -20 7 -20 20 0 13 7 20 20 20 13 0 20 -7 20
-20z m0 -295 c0 -18 -5 -25 -20 -25 -15 0 -20 7 -20 25 0 18 5 25 20 25 15 0
20 -7 20 -25z"/>
<path d="M440 436 c0 -44 2 -77 5 -74 11 10 15 120 6 136 -8 12 -10 -5 -11
-62z"/>
<path d="M588 730 c12 -11 24 -20 27 -20 3 0 5 9 5 20 0 15 -7 20 -27 20 l-27
0 22 -20z"/>
<path d="M750 710 c0 -13 7 -20 20 -20 24 0 25 6 6 26 -20 19 -26 18 -26 -6z"/>
<path d="M810 657 c0 -20 5 -27 20 -27 11 0 20 2 20 5 0 3 -9 15 -20 27 l-20
22 0 -27z"/>
<path d="M710 621 c0 -5 5 -11 11 -13 14 -5 15 -201 0 -206 -19 -6 -12 -22 9
-22 19 0 20 7 20 125 0 118 -1 125 -20 125 -11 0 -20 -4 -20 -9z"/>
<path d="M810 505 c0 -58 4 -105 9 -105 5 0 10 47 10 105 1 66 -2 105 -9 105
-6 0 -10 -40 -10 -105z"/>
<path d="M750 290 c0 -24 6 -25 26 -6 19 20 18 26 -6 26 -13 0 -20 -7 -20 -20z"/>
<path d="M586 269 c-19 -19 -19 -19 7 -19 20 0 27 5 27 20 0 25 -9 25 -34 -1z"/>
<path d="M690 230 c0 -24 6 -25 26 -6 19 20 18 26 -6 26 -13 0 -20 -7 -20 -20z"/>
<path d="M370 210 c0 -19 7 -20 95 -20 88 0 95 -1 95 -20 0 -24 6 -25 26 -6
19 20 18 26 -6 26 -13 0 -20 7 -20 20 0 21 -16 28 -22 9 -5 -15 -141 -15 -146
0 -6 19 -22 12 -22 -9z"/>
<path d="M240 180 c8 -5 23 -10 33 -10 9 0 17 -4 17 -10 0 -5 5 -10 10 -10 6
0 10 9 10 20 0 17 -7 20 -42 20 -32 0 -39 -3 -28 -10z"/>
<path d="M870 200 c0 -5 5 -10 11 -10 5 0 7 5 4 10 -3 6 -8 10 -11 10 -2 0 -4
-4 -4 -10z"/>
</g>
</svg>
