<?xml version="1.0" standalone="no"?>
<!DOCTYPE svg PUBLIC "-//W3C//DTD SVG 20010904//EN"
 "http://www.w3.org/TR/2001/REC-SVG-20010904/DTD/svg10.dtd">
<svg version="1.0" xmlns="http://www.w3.org/2000/svg"
 width="200.000000pt" height="200.000000pt" viewBox="0 0 200.000000 200.000000"
 preserveAspectRatio="xMidYMid meet">
<metadata>
Created by potrace 1.16, written by Peter Selinger 2001-2019
</metadata>
<g transform="translate(0.000000,200.000000) scale(0.100000,-0.100000)"
fill="#000000" stroke="none">
<path d="M165 1309 c-38 -11 -55 -34 -55 -76 0 -33 0 -33 50 -33 38 0 50 4 50
15 0 12 13 15 56 15 131 0 295 -69 390 -164 72 -72 87 -113 57 -154 -30 -41
-90 -66 -165 -70 l-68 -4 0 56 c0 54 1 56 28 56 36 0 49 -10 53 -40 3 -21 10
-25 43 -28 95 -8 120 105 33 150 -22 11 -66 23 -98 25 l-57 6 -6 49 c-5 38
-12 51 -31 60 -13 6 -31 8 -39 5 -15 -6 -19 -18 -31 -88 -5 -33 -10 -38 -48
-48 -71 -17 -111 -50 -115 -93 -3 -32 3 -44 39 -83 23 -25 59 -55 79 -66 26
-15 40 -31 44 -50 5 -27 9 -29 49 -29 24 0 47 4 52 9 6 5 53 11 105 13 109 5
173 28 221 79 l29 31 0 -29 c0 -38 16 -53 58 -53 25 0 35 5 39 19 4 18 6 18
41 0 44 -23 135 -25 174 -5 23 12 27 12 32 -1 4 -10 17 -13 43 -11 35 3 38 6
41 36 l3 33 29 -31 c28 -30 62 -38 90 -20 10 6 20 4 33 -8 25 -22 108 -20 143
3 14 9 27 15 29 13 2 -2 -3 -28 -11 -58 -18 -68 -18 -141 -1 -164 9 -12 23
-17 46 -14 32 3 34 5 51 73 28 109 36 125 63 125 32 0 86 38 114 79 28 41 32
134 7 169 -17 24 -70 30 -105 12 -16 -9 -19 -7 -19 10 0 15 -7 20 -29 20 -16
0 -34 -7 -41 -15 -11 -14 -15 -13 -33 6 -19 20 -27 21 -116 16 -68 -4 -99 -10
-105 -20 -8 -12 -14 -9 -31 17 -15 22 -30 32 -53 34 -31 3 -32 3 -32 -39 0
-41 -1 -42 -19 -25 -11 10 -30 17 -43 15 -13 -1 -41 3 -63 9 -57 17 -122 14
-185 -8 -39 -13 -57 -15 -62 -7 -4 7 7 16 30 24 20 7 52 28 70 47 26 29 32 44
32 80 0 40 -3 46 -36 65 -48 29 -134 29 -181 0 -36 -22 -63 -65 -63 -99 0 -19
-5 -17 -45 18 -55 48 -187 115 -270 137 -65 16 -240 19 -290 4z m267 -28 c150
-39 280 -122 347 -222 45 -67 54 -125 27 -177 -44 -85 -191 -140 -305 -114
-39 9 -44 8 -48 -9 -8 -30 -42 -24 -54 10 -7 19 -29 42 -60 61 -53 35 -109 93
-109 115 0 28 58 61 143 79 23 6 27 11 27 44 0 52 10 82 26 82 14 0 22 -22 26
-78 3 -33 4 -34 59 -38 91 -6 149 -36 149 -77 0 -26 -28 -57 -51 -57 -28 0
-32 18 -7 31 23 12 23 12 -9 26 -18 7 -58 16 -89 19 l-57 7 7 -79 c4 -43 9
-81 12 -83 2 -2 38 -4 79 -4 61 1 86 6 130 28 30 14 60 36 66 48 31 57 -4 155
-78 217 -111 92 -326 161 -450 145 -32 -5 -50 -10 -40 -12 26 -6 21 -23 -7
-23 -58 0 -37 54 27 68 70 16 159 13 239 -7z m543 -42 c4 -5 18 -14 31 -19 50
-19 18 -92 -58 -131 -22 -11 -52 -19 -66 -18 -15 2 -33 0 -40 -5 -20 -12 -31
4 -38 57 -7 52 4 73 61 108 33 21 100 25 110 8z m382 -210 c36 -54 46 -168 18
-199 -34 -38 -53 -26 -103 65 l-27 50 -5 -72 c-6 -79 -12 -92 -36 -72 -31 25
-4 209 31 213 8 1 55 -61 91 -120 22 -36 23 -7 4 75 -11 45 -20 86 -20 92 0
21 21 6 47 -32z m248 -9 c23 -26 18 -31 -46 -39 -63 -7 -77 -28 -22 -33 54 -4
52 -32 -2 -36 -39 -3 -65 -22 -65 -48 0 -9 8 -10 32 -3 83 23 109 -10 39 -49
-53 -30 -96 -29 -117 3 -15 23 -15 31 -4 66 7 21 10 42 7 46 -4 3 2 12 13 20
26 18 26 40 -1 48 -34 11 -15 30 37 36 93 11 110 10 129 -11z m-702 -50 c4
-30 6 -82 5 -115 -3 -52 -6 -60 -23 -60 -29 0 -39 49 -30 150 6 72 10 86 23
83 12 -2 19 -19 25 -58z m255 54 c13 -4 21 -12 19 -18 -3 -10 -34 -16 -160
-32 -62 -7 -51 -24 16 -25 75 0 120 -18 131 -52 15 -41 -9 -79 -59 -95 -53
-17 -101 -7 -137 28 -24 25 -27 33 -18 50 9 16 21 20 68 20 65 0 97 -13 72
-30 -8 -6 -28 -8 -45 -4 -47 10 -70 10 -70 -1 0 -15 131 -13 147 3 24 24 -14
44 -97 51 -57 4 -81 11 -88 22 -15 24 15 66 56 78 37 11 132 13 165 5z m546
-16 c-3 -13 -17 -41 -30 -64 -32 -54 -33 -92 -2 -49 35 48 109 115 128 115 24
0 40 -22 47 -63 11 -69 -55 -151 -130 -164 -33 -5 -36 -8 -56 -77 -12 -39 -21
-78 -21 -86 0 -8 -4 -22 -10 -30 -7 -12 -12 -12 -29 4 -26 24 -26 42 0 136 12
41 21 98 20 126 -2 59 9 92 45 140 30 39 49 45 38 12z m-524 -42 c0 -3 -4 -8
-10 -11 -5 -3 -10 -1 -10 4 0 6 5 11 10 11 6 0 10 -2 10 -4z"/>
<path d="M318 966 c-32 -7 -61 -15 -65 -19 -11 -11 38 -57 90 -83 l47 -24 0
47 c0 27 3 58 6 71 7 25 4 26 -78 8z m52 -51 l0 -35 -35 22 c-42 28 -43 35 -7
41 15 2 30 5 35 6 4 0 7 -15 7 -34z"/>
<path d="M841 1173 c-31 -38 -16 -42 22 -5 23 24 27 32 15 32 -9 0 -26 -12
-37 -27z"/>
<path d="M955 1190 c-25 -10 -81 -68 -73 -76 3 -3 24 0 47 6 42 11 78 50 66
70 -7 12 -13 12 -40 0z"/>
<path d="M1753 902 c-23 -31 -38 -58 -33 -60 20 -7 72 31 86 63 31 76 4 74
-53 -3z"/>
</g>
</svg>
