<?xml version="1.0" standalone="no"?>
<!DOCTYPE svg PUBLIC "-//W3C//DTD SVG 20010904//EN"
 "http://www.w3.org/TR/2001/REC-SVG-20010904/DTD/svg10.dtd">
<svg version="1.0" xmlns="http://www.w3.org/2000/svg"
 width="100.000000pt" height="100.000000pt" viewBox="0 0 100.000000 100.000000"
 preserveAspectRatio="xMidYMid meet">
<metadata>
Created by potrace 1.16, written by Peter Selinger 2001-2019
</metadata>
<g transform="translate(0.000000,100.000000) scale(0.100000,-0.100000)"
fill="#000000" stroke="none">
<path d="M30 990 c0 -5 4 -10 9 -10 6 0 13 5 16 10 3 6 -1 10 -9 10 -9 0 -16
-4 -16 -10z"/>
<path d="M940 996 c0 -2 7 -6 15 -10 8 -3 15 -1 15 4 0 6 -7 10 -15 10 -8 0
-15 -2 -15 -4z"/>
<path d="M0 954 c0 -8 5 -12 10 -9 6 3 10 10 10 16 0 5 -4 9 -10 9 -5 0 -10
-7 -10 -16z"/>
<path d="M30 485 c0 -441 1 -485 16 -485 14 0 14 3 4 15 -11 13 40 15 454 15
l466 0 0 466 c0 414 2 465 15 454 12 -10 15 -10 15 4 0 15 -44 16 -485 16
l-485 0 0 -485z m920 15 l0 -450 -450 0 -450 0 0 450 0 450 450 0 450 0 0
-450z"/>
<path d="M204 255 c4 -11 -2 -15 -22 -15 -40 0 -72 -39 -72 -89 0 -30 4 -41
15 -41 8 0 15 -9 15 -20 0 -20 5 -20 208 -18 193 3 207 4 204 21 -3 16 -1 16
17 -2 19 -19 33 -21 156 -21 l136 0 -3 83 -3 82 -57 3 c-34 2 -61 9 -68 17
-14 17 -70 20 -70 5 0 -5 15 -11 33 -11 l32 -1 -30 -7 c-16 -4 -33 -3 -36 2
-4 5 -12 6 -18 3 -6 -4 -64 -7 -128 -7 -89 1 -120 5 -133 16 -18 17 -56 20
-64 6 -4 -5 0 -11 6 -14 7 -2 -1 -4 -19 -5 -17 0 -37 6 -44 14 -16 20 -63 19
-55 -1z m46 -15 c0 -5 -4 -10 -9 -10 -6 0 -13 5 -16 10 -3 6 1 10 9 10 9 0 16
-4 16 -10z m120 0 c0 -5 -7 -10 -15 -10 -8 0 -15 5 -15 10 0 6 7 10 15 10 8 0
15 -4 15 -10z m-120 -29 c0 -15 -52 -24 -60 -10 -4 6 -13 8 -19 5 -6 -4 -11
-2 -11 3 0 6 20 11 45 11 25 0 45 -4 45 -9z m60 -6 c-10 -13 -9 -15 9 -15 12
0 21 6 21 15 0 8 7 15 15 15 8 0 15 -7 15 -15 0 -8 9 -15 20 -15 16 0 20 -7
20 -30 0 -29 -1 -30 -50 -30 -47 0 -50 1 -50 26 0 22 -2 25 -15 14 -8 -7 -15
-19 -15 -26 0 -9 -11 -14 -30 -14 -27 0 -30 3 -30 30 0 27 3 30 30 30 30 0 41
14 18 23 -7 3 2 6 21 6 29 1 32 -1 21 -14z m130 0 c0 -11 12 -15 45 -15 l45 0
0 -50 0 -50 -35 0 c-25 0 -33 4 -29 14 3 8 13 12 25 9 10 -3 19 0 19 6 0 6
-16 11 -35 11 -28 0 -35 -4 -35 -20 0 -18 -7 -20 -61 -20 -41 0 -58 3 -53 11
3 6 24 9 45 7 27 -2 39 0 39 9 0 7 7 13 15 13 10 0 15 10 15 30 0 20 -5 30
-15 30 -8 0 -15 7 -15 15 0 8 7 15 15 15 8 0 15 -7 15 -15z m90 6 c0 -4 -13
-8 -30 -7 -39 1 -39 16 0 16 17 0 30 -4 30 -9z m75 2 c-32 -8 -45 -24 -45 -54
0 -16 -4 -29 -9 -29 -4 0 -8 13 -7 30 1 16 4 30 9 30 4 0 7 7 7 15 0 10 10 15
33 14 21 -1 25 -3 12 -6z m145 -23 c0 -24 -4 -30 -22 -30 -12 0 -19 -3 -15 -6
11 -11 67 7 67 22 0 9 11 14 30 14 29 0 30 -1 30 -50 l0 -50 -125 0 c-93 0
-125 3 -125 13 0 7 14 12 35 12 19 0 35 -3 35 -6 0 -3 13 -6 30 -5 16 1 30 3
30 6 0 3 22 4 50 3 27 -1 52 2 55 7 4 6 -26 10 -77 11 -46 0 -77 3 -70 6 17 7
15 23 -3 23 -8 0 -15 5 -15 10 0 6 -9 10 -20 10 -11 0 -20 -4 -20 -10 0 -5 9
-10 20 -10 11 0 20 -7 20 -15 0 -10 -11 -15 -35 -15 -32 0 -35 2 -35 30 0 29
1 30 50 30 28 0 50 4 50 10 0 5 -7 7 -15 4 -8 -4 -15 -1 -15 5 0 6 19 11 45
11 43 0 45 -1 45 -30z m90 23 c0 -5 -14 -9 -30 -10 -17 -1 -30 2 -30 7 0 6 14
10 30 10 17 0 30 -3 30 -7z m-693 -36 c-3 -8 -1 -20 4 -28 6 -10 9 -7 9 14 0
16 5 27 14 27 19 0 25 -20 14 -49 -5 -13 -6 -26 -3 -29 3 -3 5 0 5 6 0 7 7 12
15 12 8 0 15 -9 15 -20 0 -16 -7 -20 -30 -20 -23 0 -30 4 -30 20 0 11 -7 20
-15 20 -10 0 -15 10 -15 30 0 17 5 30 11 30 6 0 9 -6 6 -13z m163 -67 c0 -17
-7 -20 -40 -20 -34 0 -39 2 -28 14 7 7 19 11 25 9 7 -3 13 0 13 6 0 6 7 11 15
11 8 0 15 -9 15 -20z"/>
<path d="M250 154 c0 -8 5 -12 10 -9 6 4 8 11 5 16 -9 14 -15 11 -15 -7z"/>
<path d="M331 166 c2 -2 18 -6 34 -10 22 -5 26 -4 15 4 -14 9 -59 15 -49 6z"/>
<path d="M455 160 c3 -5 8 -10 11 -10 2 0 4 5 4 10 0 6 -5 10 -11 10 -5 0 -7
-4 -4 -10z"/>
<path d="M500 149 c0 -5 5 -7 10 -4 6 3 10 8 10 11 0 2 -4 4 -10 4 -5 0 -10
-5 -10 -11z"/>
<path d="M706 185 c4 -8 8 -15 10 -15 2 0 4 7 4 15 0 8 -4 15 -10 15 -5 0 -7
-7 -4 -15z"/>
<path d="M801 161 c-8 -5 -9 -11 -3 -15 5 -3 12 1 16 9 6 17 6 18 -13 6z"/>
<path d="M0 45 c0 -8 4 -15 10 -15 5 0 7 7 4 15 -4 8 -8 15 -10 15 -2 0 -4 -7
-4 -15z"/>
<path d="M986 45 c-3 -8 -1 -15 4 -15 6 0 10 7 10 15 0 8 -2 15 -4 15 -2 0 -6
-7 -10 -15z"/>
<path d="M950 10 c-13 -8 -12 -10 3 -10 9 0 17 5 17 10 0 12 -1 12 -20 0z"/>
</g>
</svg>
