<?xml version="1.0" standalone="no"?>
<!DOCTYPE svg PUBLIC "-//W3C//DTD SVG 20010904//EN"
 "http://www.w3.org/TR/2001/REC-SVG-20010904/DTD/svg10.dtd">
<svg version="1.0" xmlns="http://www.w3.org/2000/svg"
 width="192.000000pt" height="192.000000pt" viewBox="0 0 192.000000 192.000000"
 preserveAspectRatio="xMidYMid meet">
<metadata>
Created by potrace 1.16, written by Peter Selinger 2001-2019
</metadata>
<g transform="translate(0.000000,192.000000) scale(0.100000,-0.100000)"
fill="#000000" stroke="none">
<path d="M193 1391 c-51 -13 -96 -44 -128 -90 -28 -40 -30 -48 -30 -136 0 -88
2 -96 30 -136 17 -24 46 -52 65 -64 34 -19 52 -20 712 -25 669 -5 677 -5 705
-26 39 -29 37 -62 -6 -91 l-34 -23 -707 0 c-659 0 -708 -1 -727 -17 -31 -28
-43 -58 -43 -112 0 -67 13 -97 52 -121 32 -19 51 -20 743 -20 756 0 758 0 854
50 25 12 68 45 96 74 89 89 121 187 113 348 -4 83 -9 106 -36 160 -51 104
-117 164 -232 213 -43 19 -78 20 -720 21 -371 2 -689 -1 -707 -5z m1407 -36
c164 -70 256 -192 267 -352 15 -217 -101 -386 -302 -439 -39 -11 -196 -14
-740 -14 -672 0 -691 1 -723 20 -66 41 -71 138 -9 193 19 16 68 17 727 17
l707 0 34 23 c30 20 34 28 34 66 0 36 -5 47 -28 65 -28 21 -36 21 -705 26
-660 5 -678 6 -712 25 -19 12 -48 40 -65 64 -27 38 -30 51 -30 116 0 65 3 78
30 116 32 46 77 77 128 90 18 4 327 7 687 5 622 -1 657 -2 700 -21z"/>
<path d="M189 1320 c-51 -27 -86 -72 -94 -120 -11 -63 1 -70 116 -70 l99 0 0
-58 c0 -86 11 -96 96 -88 73 7 74 7 144 3 l45 -2 6 45 c4 29 7 35 7 17 4 -66
8 -67 171 -67 119 0 151 3 161 15 10 12 14 12 26 0 20 -19 191 -19 221 0 18
12 22 12 27 0 3 -9 18 -15 35 -15 50 0 61 9 61 51 0 37 2 39 30 39 27 0 30 -3
30 -33 0 -41 15 -57 55 -57 41 0 55 16 55 62 0 36 1 38 34 38 l33 0 7 90 8 90
40 -22 c103 -58 174 -184 165 -293 -8 -102 -83 -216 -171 -259 l-31 -15 -3 44
-3 45 -315 0 c-272 0 -314 -2 -314 -15 0 -19 -16 -19 -24 0 -5 13 -44 15 -293
13 l-288 -3 -3 -27 -3 -28 -110 0 -109 0 0 -40 c0 -75 -42 -71 756 -68 l709 3
57 27 c73 34 137 98 174 174 27 54 29 67 29 169 0 99 -3 116 -27 165 -47 95
-128 164 -228 194 -47 14 -138 16 -699 16 -617 -1 -648 -2 -682 -20z m1362
-16 c106 -30 193 -110 236 -215 29 -70 25 -199 -9 -271 -34 -72 -103 -142
-176 -176 l-57 -27 -689 -3 c-608 -2 -691 -1 -712 13 -13 8 -24 24 -24 35 0
19 7 20 95 20 57 0 95 -4 95 -10 0 -6 -37 -10 -91 -10 -80 0 -90 -2 -79 -15
11 -13 101 -15 704 -15 l691 0 55 26 c68 31 134 93 168 159 37 72 42 188 12
267 -28 75 -96 150 -168 185 l-57 28 -650 3 c-604 2 -652 1 -684 -15 -36 -19
-65 -53 -76 -90 -6 -23 -5 -23 85 -23 50 0 89 -3 87 -7 -3 -5 -46 -7 -96 -5
l-91 3 0 30 c0 37 60 105 104 118 17 5 310 10 652 10 535 1 628 -1 675 -15z
m-1235 -46 c-3 -13 -6 -32 -6 -43 0 -18 -6 -20 -70 -17 -38 2 -70 7 -70 11 0
12 43 49 70 60 14 5 38 10 54 10 25 1 28 -2 22 -21z m184 12 c0 -5 -2 -10 -4
-10 -3 0 -8 5 -11 10 -3 6 -1 10 4 10 6 0 11 -4 11 -10z m710 0 c0 -5 -2 -10
-4 -10 -3 0 -8 5 -11 10 -3 6 -1 10 4 10 6 0 11 -4 11 -10z m-749 -20 c34 -19
52 -68 47 -133 -6 -80 -34 -107 -114 -107 l-54 0 0 125 0 125 51 0 c28 0 59
-5 70 -10z m199 0 c26 -14 35 -64 17 -99 -8 -16 -11 -33 -7 -38 4 -4 11 -29
14 -55 7 -47 6 -48 -18 -48 -22 0 -26 5 -26 29 0 46 -10 61 -39 61 -25 0 -26
-2 -23 -45 4 -43 3 -45 -22 -45 l-26 0 0 125 0 125 56 0 c30 0 64 -4 74 -10z
m193 -17 c-4 -26 -8 -28 -51 -28 -40 0 -47 -3 -47 -20 0 -17 7 -20 48 -18 46
1 47 0 47 -28 0 -28 -2 -29 -48 -29 -44 0 -48 -2 -47 -22 1 -20 6 -22 53 -19
52 2 52 2 52 -28 l0 -31 -75 0 -75 0 0 125 0 125 73 0 74 0 -4 -27z m69 -20
l3 -48 25 48 c21 42 28 47 58 47 l34 0 -35 -49 -35 -49 39 -76 39 -76 -33 0
c-30 0 -34 4 -52 50 -11 28 -24 49 -30 47 -5 -2 -11 -25 -13 -50 -3 -42 -6
-47 -28 -47 l-24 0 0 125 0 125 24 0 c23 0 25 -5 28 -47z m243 41 c42 -16 61
-144 30 -203 -18 -37 -62 -55 -98 -42 -68 26 -85 173 -26 232 19 19 62 25 94
13z m194 -4 c24 -13 35 -73 21 -116 -12 -35 -37 -49 -76 -42 -16 3 -19 -3 -19
-40 0 -39 -2 -42 -26 -42 l-25 0 0 125 0 125 53 0 c30 0 62 -4 72 -10z m179
-17 c-3 -26 -6 -28 -45 -25 -41 3 -43 2 -43 -25 0 -27 2 -28 41 -25 39 4 40 4
37 -24 -3 -27 -6 -29 -40 -26 l-38 4 0 -51 c0 -48 -2 -51 -25 -51 l-25 0 0
125 0 125 71 0 70 0 -3 -27z m-988 -505 c0 -6 -7 -8 -15 -4 -8 3 -15 1 -15 -3
0 -5 7 -12 16 -15 10 -4 18 0 21 13 9 34 33 33 49 -2 14 -29 15 -30 9 -4 -5
24 -2 27 20 27 23 0 25 -4 24 -42 0 -40 -1 -41 -11 -18 -11 25 -11 25 -15 3
-5 -24 -22 -32 -24 -10 0 10 -2 10 -6 0 -7 -20 -43 -16 -43 5 -1 16 -1 16 -11
0 -13 -23 -49 -24 -49 -2 0 13 3 14 14 5 9 -8 16 -8 20 -2 4 5 -3 12 -14 16
-11 3 -20 13 -20 21 0 32 -20 11 -22 -23 l-1 -38 -4 38 c-5 47 -23 49 -23 2 0
-19 -4 -35 -9 -35 -13 0 -20 23 -14 53 5 23 10 26 52 29 53 3 71 0 71 -14z
m176 9 c10 4 14 -5 14 -33 0 -44 16 -36 23 11 3 24 4 21 6 -12 1 -37 -2 -43
-19 -43 -11 0 -20 6 -20 13 0 9 -3 9 -9 -1 -16 -26 -46 -9 -49 27 -4 35 15 58
32 41 4 -4 15 -6 22 -3z m164 -9 c0 -5 -9 -6 -20 -3 -16 5 -20 2 -20 -19 0
-14 5 -28 11 -31 6 -4 9 -1 7 7 -2 7 2 16 7 18 6 3 11 -5 13 -17 3 -19 -1 -23
-22 -23 -24 0 -26 4 -26 39 0 39 12 53 38 43 6 -2 12 -8 12 -14z m102 -10
c-11 -11 -5 -38 8 -38 4 0 10 14 14 30 7 39 21 38 34 -2 l10 -33 1 33 c1 30
21 48 21 18 0 -8 5 -18 11 -22 8 -4 9 0 4 15 -4 12 -2 21 4 21 6 0 11 -15 12
-32 l1 -33 10 33 c6 17 14 32 18 32 4 0 12 -15 18 -32 l10 -33 1 38 c1 22 5
36 11 32 5 -3 7 -19 4 -34 -7 -32 13 -52 27 -30 8 12 11 12 18 -1 6 -8 13 -11
18 -7 4 5 -3 17 -17 27 -20 15 -22 21 -11 33 12 16 41 13 41 -4 0 -4 -7 -6
-15 -3 -8 4 -15 2 -15 -4 0 -5 7 -12 15 -16 8 -3 15 -15 15 -26 0 -18 -6 -20
-54 -20 -34 0 -57 5 -60 13 -5 10 -7 10 -12 0 -9 -21 -41 -15 -49 10 l-8 22
-4 -22 c-5 -25 -29 -31 -36 -10 -3 9 -8 9 -21 -3 -16 -13 -20 -12 -32 5 -12
17 -14 17 -14 2 0 -9 -4 -17 -10 -17 -5 0 -10 18 -10 40 0 22 5 40 10 40 6 0
10 -6 10 -12 0 -7 6 -4 12 7 8 14 13 16 16 6 2 -7 0 -17 -6 -23z m536 14 c-22
-4 -24 -22 -3 -22 8 0 15 -4 15 -10 0 -5 -7 -7 -15 -4 -10 4 -15 0 -15 -11 0
-11 5 -15 15 -11 8 3 15 1 15 -4 0 -5 -21 -8 -47 -7 -45 2 -48 4 -51 30 -5 41
10 53 60 48 24 -3 35 -6 26 -9z m-1150 1 c-10 -2 -18 -9 -18 -14 0 -5 8 -10
18 -10 16 -1 16 -2 -1 -6 -21 -5 -18 -28 4 -28 9 0 15 13 17 33 2 17 7 32 13
32 11 0 11 -7 3 -49 -6 -26 -11 -31 -35 -31 -27 0 -29 3 -29 40 0 35 3 40 23
39 16 -1 18 -2 5 -6z m422 -7 c0 -8 5 -18 12 -22 8 -5 9 0 6 14 -4 12 -2 22 3
22 5 0 9 -18 9 -40 0 -44 -14 -53 -25 -17 l-7 22 -8 -25 c-7 -21 -8 -19 -9 18
-1 23 4 42 9 42 6 0 10 -6 10 -14z m585 -8 l8 -23 4 23 c2 12 11 22 19 22 10
0 14 -12 13 -42 l-2 -43 -6 35 -7 35 -8 -32 c-8 -35 -26 -45 -26 -15 0 9 -5
24 -11 32 -8 11 -9 7 -5 -17 6 -37 -8 -45 -19 -10 l-8 22 -4 -22 c-3 -18 -11
-23 -34 -23 -27 0 -29 2 -29 40 l0 40 54 0 c47 0 55 -3 61 -22z m-455 -18 c0
-5 -4 -10 -10 -10 -5 0 -10 5 -10 10 0 6 5 10 10 10 6 0 10 -4 10 -10z m0 -40
c0 -5 -4 -10 -10 -10 -5 0 -10 5 -10 10 0 6 5 10 10 10 6 0 10 -4 10 -10z"/>
<path d="M390 1131 c0 -67 1 -69 23 -64 37 10 47 24 47 67 0 47 -13 66 -47 66
-22 0 -23 -4 -23 -69z m37 -18 c-3 -10 -5 -2 -5 17 0 19 2 27 5 18 2 -10 2
-26 0 -35z"/>
<path d="M579 1208 c0 -2 -2 -16 -3 -31 -2 -25 1 -28 29 -25 25 2 30 7 30 28
0 20 -6 26 -27 28 -16 2 -28 2 -29 0z"/>
<path d="M1101 1196 c-24 -28 -25 -89 -3 -116 17 -20 24 -23 39 -14 10 6 22
27 27 46 15 61 -31 123 -63 84z m37 -67 c-1 -13 -7 -23 -13 -22 -13 3 -18 30
-11 50 10 24 29 1 24 -28z"/>
<path d="M1280 1175 c0 -34 2 -36 28 -33 23 3 27 8 27 33 0 25 -4 30 -27 33
-26 3 -28 1 -28 -33z"/>
<path d="M570 700 c0 -16 5 -30 10 -30 6 0 10 14 10 30 0 17 -4 30 -10 30 -5
0 -10 -13 -10 -30z"/>
<path d="M630 720 c0 -5 5 -10 10 -10 6 0 10 5 10 10 0 6 -4 10 -10 10 -5 0
-10 -4 -10 -10z"/>
<path d="M684 715 c-4 -8 -3 -23 2 -32 7 -16 8 -15 11 5 3 12 9 20 14 17 5 -4
9 -2 9 3 0 17 -30 22 -36 7z"/>
<path d="M1130 699 c0 -5 5 -7 10 -4 6 3 10 8 10 11 0 2 -4 4 -10 4 -5 0 -10
-5 -10 -11z"/>
<path d="M1457 716 c-7 -18 8 -52 17 -38 4 7 12 10 17 7 5 -4 9 3 9 13 0 22
-36 37 -43 18z"/>
<path d="M1280 720 c0 -5 8 -10 18 -10 16 -1 16 -1 -1 -11 -19 -11 -14 -29 9
-29 9 0 14 11 14 30 0 23 -4 30 -20 30 -11 0 -20 -4 -20 -10z"/>
<path d="M1330 720 c0 -5 5 -10 10 -10 6 0 10 5 10 10 0 6 -4 10 -10 10 -5 0
-10 -4 -10 -10z"/>
</g>
</svg>
