<?xml version="1.0" standalone="no"?>
<!DOCTYPE svg PUBLIC "-//W3C//DTD SVG 20010904//EN"
 "http://www.w3.org/TR/2001/REC-SVG-20010904/DTD/svg10.dtd">
<svg version="1.0" xmlns="http://www.w3.org/2000/svg"
 width="180.000000pt" height="180.000000pt" viewBox="0 0 180.000000 180.000000"
 preserveAspectRatio="xMidYMid meet">
<metadata>
Created by potrace 1.16, written by Peter Selinger 2001-2019
</metadata>
<g transform="translate(0.000000,180.000000) scale(0.100000,-0.100000)"
fill="#000000" stroke="none">
<path d="M759 1655 c-137 -27 -286 -105 -390 -202 -107 -100 -195 -265 -225
-421 -57 -300 82 -622 340 -787 266 -170 611 -164 863 15 353 250 439 728 193
1078 -174 248 -488 375 -781 317z m366 -49 c353 -119 572 -460 520 -810 -39
-256 -195 -467 -430 -576 -403 -189 -879 23 -1022 455 -24 71 -27 96 -27 220
0 127 2 147 27 220 89 257 303 451 562 511 97 22 272 13 370 -20z"/>
<path d="M948 1443 c-9 -10 -19 -28 -22 -40 -6 -20 -14 -23 -54 -23 -110 0
-244 -62 -323 -148 -88 -96 -129 -204 -129 -336 0 -135 42 -247 127 -337 98
-105 210 -152 363 -151 153 0 253 44 358 157 56 59 62 70 62 109 0 53 -22 76
-75 76 -34 0 -44 -7 -97 -64 -82 -90 -147 -121 -253 -121 -91 0 -150 23 -218
84 -116 105 -145 252 -76 390 46 93 141 164 247 186 31 6 32 6 32 -29 0 -202
144 -355 297 -316 95 23 133 75 133 182 0 113 -72 215 -191 270 -43 21 -48 27
-49 56 0 18 -8 40 -20 52 -26 26 -91 27 -112 3z m93 -24 c11 -11 19 -28 16
-37 -2 -10 -6 -23 -8 -31 -3 -8 11 -19 37 -28 106 -36 214 -166 214 -258 0
-92 -69 -165 -158 -165 -122 0 -211 112 -220 277 -4 78 -6 83 -26 78 -11 -2
-39 -7 -60 -10 -97 -16 -204 -97 -252 -192 -26 -53 -29 -67 -29 -158 0 -119
18 -167 91 -245 82 -88 204 -130 318 -109 99 17 145 48 259 170 21 23 45 24
69 2 31 -28 22 -58 -41 -125 -100 -107 -213 -158 -346 -158 -282 1 -505 265
-456 540 39 214 205 366 425 388 63 6 71 9 74 29 3 23 37 53 59 53 7 0 22 -9
34 -21z"/>
<path d="M1020 1202 c0 -112 75 -218 140 -197 21 7 38 49 32 81 -5 34 -65 97
-121 127 l-51 28 0 -39z m88 -49 c58 -43 80 -123 33 -123 -34 0 -91 85 -91
135 0 29 4 28 58 -12z"/>
</g>
</svg>
