<?xml version="1.0" standalone="no"?>
<!DOCTYPE svg PUBLIC "-//W3C//DTD SVG 20010904//EN"
 "http://www.w3.org/TR/2001/REC-SVG-20010904/DTD/svg10.dtd">
<svg version="1.0" xmlns="http://www.w3.org/2000/svg"
 width="100.000000pt" height="100.000000pt" viewBox="0 0 100.000000 100.000000"
 preserveAspectRatio="xMidYMid meet">
<metadata>
Created by potrace 1.16, written by Peter Selinger 2001-2019
</metadata>
<g transform="translate(0.000000,100.000000) scale(0.100000,-0.100000)"
fill="#000000" stroke="none">
<path d="M737 697 c-10 -10 -25 -16 -33 -13 -17 7 -19 -20 -1 -28 6 -3 0 -3
-14 0 -18 4 -28 1 -32 -10 -4 -9 -13 -16 -22 -16 -8 0 -15 -4 -15 -10 0 -5 -5
-10 -11 -10 -5 0 -7 5 -4 10 9 15 -3 12 -25 -7 -11 -9 -16 -20 -11 -23 5 -3
-30 -5 -77 -6 -48 0 -96 -5 -107 -12 -16 -9 9 -11 122 -12 78 0 150 -3 160 -7
17 -7 17 -6 1 11 -10 9 -22 15 -27 12 -5 -3 -20 -2 -33 3 -19 8 -14 10 30 10
45 1 52 4 52 21 0 11 7 20 15 20 11 0 15 -11 15 -40 0 -31 3 -38 15 -34 8 4
15 1 15 -5 0 -6 7 -8 15 -5 8 4 15 1 15 -5 0 -7 -23 -11 -60 -11 -33 0 -60 -4
-60 -8 0 -5 14 -8 30 -7 17 1 30 -2 30 -7 0 -4 -22 -8 -50 -8 -38 0 -50 -4
-50 -15 0 -10 -10 -15 -30 -15 -20 0 -30 5 -30 15 0 18 27 20 32 3 3 -9 6 -9
12 0 4 7 2 12 -3 12 -6 0 -11 7 -11 15 0 16 26 21 32 5 2 -6 9 -6 17 0 11 6 5
10 -22 15 -30 6 -40 3 -59 -17 -13 -13 -31 -22 -40 -20 -11 2 -18 -3 -18 -12
0 -11 9 -16 30 -16 17 0 30 -5 30 -11 0 -6 7 -9 15 -5 8 3 15 1 15 -4 0 -6
-13 -10 -30 -10 -20 0 -30 -5 -30 -15 0 -10 -10 -15 -30 -15 -20 0 -30 -5 -30
-15 0 -12 -18 -15 -106 -15 -72 0 -103 -3 -99 -11 4 -6 28 -10 54 -9 73 3 91
1 91 -10 0 -6 -75 -10 -205 -10 -113 0 -205 -4 -205 -8 0 -7 181 -15 382 -17
50 0 71 11 48 25 -8 5 -11 13 -6 17 5 4 11 2 13 -4 5 -15 33 -17 33 -3 0 6 5
10 11 10 5 0 7 -4 4 -10 -3 -5 -1 -10 4 -10 6 0 11 7 11 16 0 9 14 21 30 27
19 7 28 17 25 25 -2 7 0 10 5 7 15 -9 50 4 50 19 0 9 9 12 24 9 17 -4 28 1 37
15 7 11 19 18 26 15 8 -3 20 2 27 12 7 10 27 19 45 20 37 3 51 13 33 24 -7 4
35 7 93 7 78 -1 105 2 105 12 0 6 -7 12 -15 12 -8 0 -15 4 -15 10 0 5 7 7 15
4 8 -4 15 -1 15 5 0 7 -24 11 -67 10 l-68 -1 45 -13 c44 -13 42 -13 -60 -12
l-105 2 -2 30 c-1 17 1 23 3 13 4 -11 19 -17 55 -20 38 -2 48 0 44 10 -4 11 6
13 45 10 27 -1 50 1 50 6 0 5 7 3 15 -4 12 -10 15 -10 15 4 0 14 -16 16 -125
16 -104 0 -125 2 -125 15 0 10 10 15 30 15 17 0 30 5 30 11 0 6 -7 9 -15 5 -8
-3 -15 -1 -15 4 0 6 51 10 125 10 93 0 125 3 125 13 0 9 -31 12 -123 12 -106
1 -124 -2 -140 -18z m-57 -77 c0 -5 -4 -10 -10 -10 -5 0 -10 5 -10 10 0 6 5
10 10 10 6 0 10 -4 10 -10z m-20 -140 c0 -5 -8 -10 -17 -10 -15 0 -16 2 -3 10
19 12 20 12 20 0z"/>
<path d="M0 670 c0 -6 7 -10 15 -10 10 0 15 -11 15 -35 0 -24 -5 -35 -15 -35
-8 0 -15 -7 -15 -15 0 -8 7 -15 15 -15 8 0 15 7 15 15 0 10 10 15 30 15 17 0
30 -4 30 -10 0 -5 -11 -10 -25 -10 -14 0 -25 -4 -25 -10 0 -5 -9 -10 -20 -10
-11 0 -20 -4 -20 -10 0 -5 13 -10 30 -10 20 0 30 5 30 15 0 13 21 15 128 16
96 0 121 3 102 10 -14 6 -59 11 -100 12 -66 2 -78 5 -99 27 -16 17 -25 21 -28
13 -7 -20 -25 -15 -19 5 3 9 2 22 -2 28 -10 15 -42 25 -42 14z"/>
<path d="M937 670 c-55 -10 -55 -18 0 -13 62 6 70 8 52 14 -7 3 -31 2 -52 -1z"/>
<path d="M800 660 c8 -5 28 -10 44 -10 39 0 30 6 -19 13 -27 4 -35 3 -25 -3z"/>
<path d="M138 538 c-17 -6 -25 -14 -21 -24 3 -8 -1 -14 -11 -14 -9 0 -16 -5
-16 -10 0 -6 -17 -10 -40 -8 -22 1 -43 -1 -46 -5 -4 -4 23 -7 59 -7 l67 0 0
30 0 30 218 1 c122 0 208 4 197 9 -28 11 -374 10 -407 -2z"/>
<path d="M60 519 c0 -7 -10 -9 -24 -5 -14 3 -28 2 -31 -4 -4 -6 11 -10 39 -10
34 0 46 4 46 15 0 8 -7 15 -15 15 -8 0 -15 -5 -15 -11z"/>
<path d="M155 499 c-4 -6 -4 -13 -1 -16 3 -4 6 -1 6 5 0 9 36 12 125 12 104 0
125 -2 125 -15 0 -8 7 -15 15 -15 8 0 15 -7 15 -15 0 -9 9 -15 24 -15 13 0 30
-2 38 -3 7 -2 10 -2 6 0 -5 3 -8 11 -8 19 0 8 -7 14 -15 14 -8 0 -15 -5 -15
-11 0 -5 -5 -7 -11 -3 -6 3 -9 15 -6 25 3 11 1 19 -4 19 -5 0 -9 -5 -9 -11 0
-5 -5 -7 -10 -4 -6 4 -8 11 -5 16 4 5 -48 9 -129 9 -85 0 -137 -4 -141 -11z"/>
<path d="M470 489 c0 -5 5 -7 10 -4 6 3 10 8 10 11 0 2 -4 4 -10 4 -5 0 -10
-5 -10 -11z"/>
<path d="M215 480 c-4 -6 24 -10 71 -10 43 0 75 2 73 4 -11 9 -139 14 -144 6z"/>
<path d="M370 480 c0 -6 7 -10 15 -10 8 0 15 2 15 4 0 2 -7 6 -15 10 -8 3 -15
1 -15 -4z"/>
<path d="M125 460 c-4 -6 -23 -10 -43 -9 -20 1 -48 -4 -62 -10 l-25 -12 25 6
c14 2 51 5 83 5 44 0 57 3 57 15 0 17 -25 20 -35 5z"/>
<path d="M172 458 c7 -21 -18 -38 -56 -38 -20 0 -36 -4 -36 -8 0 -4 27 -5 61
-2 55 5 62 4 69 -15 6 -13 9 -15 10 -5 0 9 6 6 15 -10 14 -24 14 -24 15 -3 0
16 4 21 15 17 8 -4 15 -1 15 5 0 6 -13 11 -30 11 -16 0 -30 4 -30 8 0 8 46 7
153 -4 54 -5 58 -4 55 13 -2 10 -10 17 -17 15 -6 -1 -24 -3 -39 -4 -15 -1 -30
-7 -34 -13 -5 -6 -8 -6 -8 3 0 8 -21 12 -70 12 -56 0 -70 3 -70 15 0 8 -5 15
-11 15 -6 0 -9 -6 -7 -12z"/>
<path d="M0 395 c0 -18 27 -20 32 -3 3 9 6 9 12 0 4 -7 2 -12 -3 -12 -25 0 -9
-18 19 -22 17 -3 30 -1 30 3 0 4 9 5 20 2 11 -3 20 0 20 6 0 6 -16 11 -35 11
-24 0 -35 5 -35 15 0 10 -10 15 -30 15 -20 0 -30 -5 -30 -15z"/>
<path d="M140 370 c0 -5 5 -10 10 -10 6 0 10 5 10 10 0 6 -4 10 -10 10 -5 0
-10 -4 -10 -10z"/>
<path d="M30 300 c0 -6 57 -10 150 -10 93 0 150 4 150 10 0 6 -57 10 -150 10
-93 0 -150 -4 -150 -10z"/>
</g>
</svg>
