<?xml version="1.0" standalone="no"?>
<!DOCTYPE svg PUBLIC "-//W3C//DTD SVG 20010904//EN"
 "http://www.w3.org/TR/2001/REC-SVG-20010904/DTD/svg10.dtd">
<svg version="1.0" xmlns="http://www.w3.org/2000/svg"
 width="67.000000pt" height="67.000000pt" viewBox="0 0 67.000000 67.000000"
 preserveAspectRatio="xMidYMid meet">
<metadata>
Created by potrace 1.16, written by Peter Selinger 2001-2019
</metadata>
<g transform="translate(0.000000,67.000000) scale(0.100000,-0.100000)"
fill="#000000" stroke="none">
<path d="M222 381 c3 -204 4 -222 24 -248 28 -38 58 -51 132 -56 l62 -4 0 36
c0 36 -1 37 -42 38 -69 3 -82 24 -86 148 l-4 105 66 0 66 0 0 35 0 35 -65 0
-65 0 0 65 0 65 -46 0 -46 0 4 -219z m68 129 l0 -60 65 0 c83 0 85 -18 3 -22
l-63 -3 0 -127 c0 -147 9 -165 84 -175 51 -7 54 -23 4 -23 -48 0 -104 28 -120
60 -9 17 -13 84 -13 218 0 185 1 192 20 192 18 0 20 -7 20 -60z"/>
</g>
</svg>
