<?xml version="1.0" standalone="no"?>
<!DOCTYPE svg PUBLIC "-//W3C//DTD SVG 20010904//EN"
 "http://www.w3.org/TR/2001/REC-SVG-20010904/DTD/svg10.dtd">
<svg version="1.0" xmlns="http://www.w3.org/2000/svg"
 width="192.000000pt" height="192.000000pt" viewBox="0 0 192.000000 192.000000"
 preserveAspectRatio="xMidYMid meet">
<metadata>
Created by potrace 1.16, written by Peter Selinger 2001-2019
</metadata>
<g transform="translate(0.000000,192.000000) scale(0.100000,-0.100000)"
fill="#000000" stroke="none">
<path d="M877 1909 c8 -8 16 -8 30 0 16 9 14 10 -11 11 -22 0 -27 -3 -19 -11z"/>
<path d="M1028 1913 c7 -3 17 -16 22 -29 8 -20 17 -24 49 -24 22 0 43 -4 46
-10 3 -5 26 -10 51 -10 l44 0 0 -309 0 -309 -77 -7 c-42 -4 -164 -5 -270 -3
l-193 5 0 -587 c0 -458 3 -590 13 -598 6 -5 35 -13 62 -17 28 -4 58 -9 68 -11
10 -2 28 1 40 6 18 7 14 9 -23 10 -25 1 -54 6 -65 11 -14 7 -6 8 30 4 28 -2
79 -7 115 -11 36 -3 90 -9 121 -13 65 -8 195 16 178 34 -3 2 -27 -2 -54 -10
-26 -8 -71 -14 -99 -14 l-51 1 53 8 c28 4 72 14 97 21 l45 13 0 515 c0 340 3
512 10 505 6 -6 11 -200 13 -519 1 -311 3 -158 5 390 l2 900 -53 13 c-29 6
-70 12 -91 12 -29 0 -39 4 -43 20 -4 14 -13 20 -32 19 -14 0 -20 -3 -13 -6z
m209 -810 c-12 -11 -257 -23 -367 -18 -165 8 -160 6 -160 63 l0 47 217 -3
c120 -2 238 1 263 5 l45 9 3 -49 c2 -27 1 -51 -1 -54z m-20 -195 c-2 -35 -3
-9 -3 57 0 66 1 94 3 63 2 -32 2 -86 0 -120z m-457 -345 c-1 -422 -3 -505 -14
-491 -7 10 -15 16 -17 14 -4 -4 -5 379 -1 772 2 181 4 212 17 212 13 0 15 -63
15 -507z m430 29 c0 -404 -2 -477 -15 -502 -9 -17 -21 -30 -28 -30 -6 0 -52
-5 -102 -10 -49 -5 -121 -6 -160 -2 l-70 7 4 44 c2 29 -1 41 -8 37 -6 -4 -11
-23 -11 -42 0 -19 -5 -34 -11 -34 -9 0 -10 52 -5 192 7 219 7 198 6 281 0 34
2 77 4 95 1 18 0 35 -4 37 -4 2 -8 93 -9 202 l-2 198 205 0 206 0 0 -473z m27
226 c-3 -8 -6 -5 -6 6 -1 11 2 17 5 13 3 -3 4 -12 1 -19z m-10 -561 c-1 -73
-3 -10 -3 138 0 149 2 208 3 132 2 -76 2 -198 0 -270z m13 -162 c0 -8 -4 -15
-10 -15 -5 0 -7 7 -4 15 4 8 8 15 10 15 2 0 4 -7 4 -15z m-466 -48 c10 -4 17
-10 14 -13 -10 -9 -59 16 -52 27 4 7 9 7 13 2 3 -5 15 -13 25 -16z"/>
<path d="M720 1157 c0 -18 8 -28 28 -35 27 -9 28 -9 27 22 -1 26 -6 32 -28 34
-23 3 -27 0 -27 -21z m40 -2 c0 -8 -7 -15 -15 -15 -8 0 -15 7 -15 15 0 8 7 15
15 15 8 0 15 -7 15 -15z"/>
<path d="M1108 1173 c-12 -3 -18 -14 -18 -32 0 -26 3 -28 28 -22 25 5 25 6 5
9 -28 4 -31 32 -3 32 11 0 20 5 20 10 0 10 -3 11 -32 3z"/>
<path d="M1151 1143 c1 -21 3 -31 6 -23 2 8 15 23 29 33 21 15 24 16 24 2 0
-8 -4 -15 -10 -15 -5 0 -10 -4 -10 -10 0 -5 7 -10 15 -10 10 0 15 10 15 30 0
34 -14 38 -43 13 -19 -17 -20 -17 -14 0 4 9 2 17 -3 17 -6 0 -9 -17 -9 -37z"/>
<path d="M791 1149 c-1 -23 4 -27 32 -32 17 -2 34 -1 35 4 2 5 10 9 17 9 8 0
17 5 21 11 4 8 0 9 -15 4 -12 -3 -21 -2 -21 4 0 5 10 12 23 14 19 4 19 4 -5 6
-20 1 -28 -4 -31 -21 l-4 -23 -2 23 c-1 27 -21 30 -21 2 0 -27 -18 -25 -23 3
-4 20 -4 19 -6 -4z"/>
<path d="M912 1140 c-1 -25 3 -30 24 -30 13 0 24 4 24 9 0 5 -9 7 -20 4 -27
-7 -25 5 3 17 22 9 22 9 -3 10 l-25 2 25 8 25 8 -26 1 c-22 1 -26 -3 -27 -29z"/>
<path d="M970 1140 c0 -30 0 -30 52 -27 44 2 53 5 55 22 2 11 0 14 -3 8 -8
-18 -34 -16 -34 1 0 8 10 17 23 19 19 4 18 4 -5 6 -21 1 -28 -4 -28 -18 0 -10
-9 -21 -20 -24 -16 -4 -20 0 -20 19 0 13 -4 24 -10 24 -5 0 -10 -13 -10 -30z"/>
<path d="M800 995 c0 -30 4 -55 9 -55 5 0 9 -31 8 -70 -1 -38 -5 -70 -9 -70
-13 0 -9 -38 4 -42 15 -5 12 -301 -4 -358 -3 -8 -3 -12 -1 -7 3 4 22 7 44 7
l39 0 0 -126 c0 -69 4 -133 10 -143 5 -11 20 -18 35 -18 20 0 25 5 25 23 0 17
6 24 20 24 11 0 19 -3 19 -7 -5 -34 3 -43 36 -43 l36 0 -3 62 -3 63 -52 3
c-70 4 -68 22 2 22 l55 0 0 123 c0 92 -4 128 -15 144 -12 18 -12 22 -1 26 11
5 14 52 15 251 l0 246 -134 0 -135 0 0 -55z m86 35 c18 0 19 -50 2 -51 -10 0
-10 -2 0 -6 21 -8 13 -23 -13 -23 -16 0 -25 -6 -25 -15 0 -9 9 -15 25 -15 14
0 25 -5 25 -11 0 -5 -10 -9 -22 -7 -29 4 -31 -24 -3 -32 15 -4 21 -15 23 -42
2 -23 -1 -38 -7 -38 -6 0 -12 12 -12 28 l-2 27 -4 -27 c-6 -41 -33 -36 -32 5
l1 32 7 -30 7 -30 5 32 c4 21 1 34 -7 37 -18 7 -16 96 3 103 8 3 10 9 5 12 -5
3 -12 19 -16 35 -6 24 -4 27 9 22 9 -3 23 -6 31 -6z m162 -37 c4 -37 -33 -83
-65 -83 -39 0 -63 29 -63 76 l0 45 63 -3 c62 -3 62 -3 65 -35z m-215 -8 c-8
-22 -22 -18 -16 5 3 11 9 17 14 15 4 -3 6 -12 2 -20z m215 -102 c-2 -12 -15
-16 -53 -17 -44 -1 -50 -4 -53 -23 -3 -20 2 -22 50 -25 40 -2 54 -7 56 -20 3
-15 -4 -16 -55 -11 -81 8 -108 48 -63 93 27 27 123 30 118 3z m0 -156 c2 -22
-3 -40 -13 -51 -19 -18 -56 -21 -72 -5 -12 12 -37 3 -28 -10 2 -5 25 -14 50
-21 88 -25 86 -59 -5 -84 -67 -19 -80 -17 -55 7 16 17 21 67 6 67 -5 0 -11 14
-13 31 -4 25 0 33 22 44 23 12 27 12 38 -5 15 -24 42 -15 42 14 0 19 -4 21
-46 17 -44 -3 -72 8 -61 26 3 4 34 7 69 6 l63 -1 3 -35z m-151 17 c3 -9 1 -24
-5 -34 -8 -13 -7 -21 1 -29 9 -9 8 -16 -1 -31 -9 -15 -9 -20 0 -20 6 0 8 -3 4
-7 -4 -4 -14 -8 -22 -8 -7 0 -13 -4 -11 -10 1 -5 10 -8 20 -7 9 2 17 -2 17 -7
0 -6 -11 -11 -25 -11 -34 0 -32 -18 3 -23 25 -4 25 -4 -5 -6 -31 -1 -33 1 -33
32 0 18 5 38 12 45 9 9 9 12 0 12 -7 0 -12 11 -12 25 0 14 4 25 9 25 5 0 8 11
7 25 0 14 -4 25 -8 25 -5 0 -8 5 -8 10 0 17 50 11 57 -6z m1 -231 c2 -13 -1
-23 -7 -23 -6 0 -12 10 -12 23 -2 20 -2 20 -7 -3 l-5 -25 -8 25 -7 25 -1 -27
c-1 -20 4 -27 22 -30 16 -2 22 -10 22 -28 0 -21 -5 -25 -33 -27 -32 -1 -33 0
-17 17 11 12 13 20 6 25 -12 7 -15 58 -4 69 15 15 48 1 51 -21z m137 -6 c8
-12 15 -32 15 -44 0 -33 -28 -29 -32 5 -3 24 -7 27 -38 27 -31 0 -35 -3 -38
-27 -5 -40 -22 -35 -22 6 0 35 12 51 45 58 31 6 54 -2 70 -25z m-37 -50 c2
-12 -3 -17 -17 -17 -12 0 -21 6 -21 13 0 31 32 34 38 4z m52 -82 c0 -33 -4
-45 -15 -45 -10 0 -15 10 -15 30 0 20 -5 30 -15 30 -11 0 -14 -7 -9 -25 5 -19
2 -25 -10 -25 -10 0 -16 9 -16 25 0 16 -6 25 -15 25 -10 0 -15 -10 -15 -31 0
-17 -5 -29 -11 -27 -6 2 -10 7 -10 11 1 4 1 23 1 42 l0 35 65 0 65 0 0 -45z
m0 -82 c0 -13 -10 -15 -55 -11 l-55 5 0 -30 c0 -17 -5 -27 -12 -25 -8 3 -15
61 -9 81 1 1 30 0 66 -1 50 -3 65 -7 65 -19z m-5 -93 c0 -11 -12 -13 -52 -11
l-53 2 0 -31 c0 -20 -4 -30 -12 -28 -9 3 -14 50 -9 83 1 3 29 5 64 3 46 -2 62
-7 62 -18z m5 -49 c0 -14 -18 -23 -30 -16 -6 4 -8 11 -5 16 8 12 35 12 35 0z"/>
<path d="M871 1004 c0 -11 3 -14 6 -6 3 7 2 16 -1 19 -3 4 -6 -2 -5 -13z"/>
<path d="M942 979 c2 -12 11 -27 21 -33 22 -14 51 3 55 33 3 19 -1 21 -38 21
-37 0 -41 -2 -38 -21z"/>
<path d="M960 600 c0 -17 4 -19 28 -14 15 4 29 8 31 10 7 6 -2 11 -31 18 -24
5 -28 3 -28 -14z"/>
<path d="M871 724 c0 -11 3 -14 6 -6 3 7 2 16 -1 19 -3 4 -6 -2 -5 -13z"/>
<path d="M850 665 c0 -8 7 -15 15 -15 8 0 15 7 15 15 0 8 -7 15 -15 15 -8 0
-15 -7 -15 -15z"/>
<path d="M872 450 c0 -14 2 -19 5 -12 2 6 2 18 0 25 -3 6 -5 1 -5 -13z"/>
<path d="M1142 1030 c0 -14 2 -19 5 -12 2 6 2 18 0 25 -3 6 -5 1 -5 -13z"/>
<path d="M1142 985 c-5 -35 -4 -906 1 -911 3 -3 7 -2 8 3 2 4 2 215 -1 468 -3
253 -7 451 -8 440z"/>
<path d="M1091 744 c0 -11 3 -14 6 -6 3 7 2 16 -1 19 -3 4 -6 -2 -5 -13z"/>
<path d="M1105 630 c3 -5 8 -10 11 -10 2 0 4 5 4 10 0 6 -5 10 -11 10 -5 0 -7
-4 -4 -10z"/>
<path d="M1091 324 c0 -11 3 -14 6 -6 3 7 2 16 -1 19 -3 4 -6 -2 -5 -13z"/>
<path d="M801 263 c1 -53 6 -49 11 10 2 20 0 37 -4 37 -4 0 -8 -21 -7 -47z"/>
<path d="M800 170 c0 -11 4 -20 9 -20 5 0 7 9 4 20 -3 11 -7 20 -9 20 -2 0 -4
-9 -4 -20z"/>
<path d="M1036 92 c-2 -4 -1 -14 5 -22 7 -12 9 -10 9 8 0 23 -5 28 -14 14z"/>
<path d="M948 1903 c12 -2 32 -2 45 0 12 2 2 4 -23 4 -25 0 -35 -2 -22 -4z"/>
<path d="M830 1882 c-49 -5 -101 -25 -88 -34 9 -5 10 -8 1 -8 -6 0 -15 5 -18
10 -3 6 -17 10 -31 10 l-24 0 0 -917 c0 -597 4 -913 10 -903 6 9 10 349 10
908 0 621 3 892 11 892 5 0 7 -5 3 -12 -4 -7 -3 -8 4 -4 6 3 48 4 92 0 50 -4
76 -10 68 -15 -12 -8 8 -8 170 6 43 3 74 0 101 -11 50 -20 51 -25 52 -329 0
-132 2 -235 4 -230 2 6 5 135 7 288 4 270 4 277 -15 271 -12 -4 -17 -2 -13 4
8 14 -67 21 -229 23 -77 1 -151 6 -165 12 -23 11 -21 12 25 15 28 2 51 -1 53
-7 2 -5 9 -8 15 -5 7 2 28 5 47 7 50 4 47 31 -2 32 -26 1 -38 -3 -38 -12 0
-17 -17 -17 -22 0 -2 6 -14 11 -28 9z"/>
<path d="M1005 1880 c-8 -14 1 -27 23 -32 17 -5 17 -2 8 18 -12 26 -21 30 -31
14z"/>
<path d="M968 1843 c6 -2 18 -2 25 0 6 3 1 5 -13 5 -14 0 -19 -2 -12 -5z"/>
<path d="M753 1799 c-12 -4 -13 -8 -5 -13 9 -5 12 -81 12 -282 0 -191 3 -275
11 -272 7 2 10 83 10 248 -1 135 3 259 8 275 12 39 12 40 14 -264 2 -209 5
-255 16 -259 12 -4 13 16 8 122 -3 69 -3 125 1 122 10 -6 8 246 -2 262 -4 7
-2 12 5 12 7 0 4 6 -7 14 -18 14 -18 15 6 24 23 9 22 10 -17 13 -23 3 -50 2
-60 -2z"/>
<path d="M708 1793 c-8 -21 4 -563 13 -557 12 7 11 551 -1 559 -5 3 -10 2 -12
-2z"/>
<path d="M1023 1793 c-64 -4 -90 -23 -32 -23 l32 0 -5 -110 c-4 -106 -4 -110
16 -110 20 0 21 4 18 100 -2 69 0 100 8 100 6 0 9 4 6 9 -4 5 3 7 14 4 11 -3
20 -1 20 4 0 5 15 8 33 5 23 -3 29 -1 22 7 -14 14 -56 19 -132 14z"/>
<path d="M1075 1740 c-3 -5 -1 -10 4 -10 6 0 11 5 11 10 0 6 -2 10 -4 10 -3 0
-8 -4 -11 -10z"/>
<path d="M1218 1625 c-1 -30 -1 -132 2 -227 l6 -173 2 228 c2 216 -2 291 -10
172z"/>
<path d="M950 1554 c0 -35 -1 -36 -30 -32 -24 4 -30 1 -30 -14 0 -13 8 -18 30
-18 27 0 30 -3 30 -30 0 -20 5 -30 15 -30 10 0 15 10 15 29 0 26 4 30 33 33
20 2 32 8 32 18 0 11 -9 14 -32 12 -32 -3 -33 -2 -33 32 0 25 -4 36 -15 36
-11 0 -15 -11 -15 -36z"/>
<path d="M1072 1515 c0 -16 2 -22 5 -12 2 9 2 23 0 30 -3 6 -5 -1 -5 -18z"/>
<path d="M1093 1465 c0 -27 2 -38 4 -22 2 15 2 37 0 50 -2 12 -4 0 -4 -28z"/>
<path d="M1039 1473 l-26 -4 5 -114 c4 -105 3 -113 -14 -118 -11 -3 6 -5 38
-6 l56 -1 4 49 c1 27 0 47 -4 44 -5 -2 -8 -22 -8 -44 0 -32 -3 -39 -20 -39
-11 0 -20 6 -20 13 0 8 -4 7 -10 -3 -7 -10 -10 21 -10 98 0 63 4 112 9 112 6
0 9 -10 9 -22 -1 -13 -1 -36 0 -52 2 -27 3 -28 15 -12 11 15 13 15 15 -10 3
-38 12 -44 12 -8 0 17 -4 34 -10 40 -5 5 -10 26 -12 47 -1 20 -2 36 -3 36 0
-1 -12 -4 -26 -6z"/>
<path d="M1040 1295 c0 -14 4 -25 9 -25 4 0 6 11 3 25 -2 14 -6 25 -8 25 -2 0
-4 -11 -4 -25z"/>
</g>
</svg>
