<?xml version="1.0" standalone="no"?>
<!DOCTYPE svg PUBLIC "-//W3C//DTD SVG 20010904//EN"
 "http://www.w3.org/TR/2001/REC-SVG-20010904/DTD/svg10.dtd">
<svg version="1.0" xmlns="http://www.w3.org/2000/svg"
 width="100.000000pt" height="100.000000pt" viewBox="0 0 100.000000 100.000000"
 preserveAspectRatio="xMidYMid meet">
<metadata>
Created by potrace 1.16, written by Peter Selinger 2001-2019
</metadata>
<g transform="translate(0.000000,100.000000) scale(0.100000,-0.100000)"
fill="#000000" stroke="none">
<path d="M680 985 c0 -12 -14 -15 -67 -15 -48 0 -64 -3 -53 -10 10 -6 -60 -10
-207 -10 -142 0 -223 4 -223 10 0 6 -18 10 -40 10 l-40 0 0 -485 c0 -304 4
-485 10 -485 6 0 9 178 10 477 0 262 3 479 5 482 3 2 5 -206 5 -462 l0 -467
250 0 c216 0 250 -2 250 -15 0 -8 5 -15 10 -15 6 0 10 9 10 20 0 19 -8 20
-242 23 l-243 2 283 3 c155 1 282 6 282 11 0 4 -10 8 -22 8 -13 0 -137 0 -275
1 l-253 2 0 400 0 400 58 0 c91 0 102 19 12 22 -41 1 55 5 215 8 160 3 297 2
305 -2 8 -4 -41 -8 -110 -9 -84 -1 -113 -4 -87 -9 20 -4 39 -9 41 -11 3 -2
-63 -5 -146 -6 -136 -1 -185 -8 -150 -20 6 -3 10 -9 6 -14 -3 -5 0 -9 5 -9 6
0 11 5 11 10 0 6 54 9 148 8 l147 -2 -145 -6 -145 -6 180 -2 c131 -1 175 1
162 9 -10 6 -21 8 -24 5 -6 -5 -33 18 -33 28 0 10 66 6 76 -4 7 -7 19 -8 37
-1 24 9 31 5 77 -40 27 -27 50 -58 50 -68 0 -10 6 -21 13 -24 7 -3 14 -22 15
-43 2 -22 7 -43 12 -48 6 -6 10 -68 10 -138 l0 -128 -52 -2 c-48 -1 -49 -2
-12 -5 37 -4 41 -6 41 -33 0 -16 -5 -28 -10 -27 -5 1 -14 -13 -19 -30 -5 -18
-13 -33 -19 -33 -6 0 -9 -8 -6 -19 3 -14 0 -17 -14 -14 -15 4 -18 1 -13 -11 4
-11 1 -16 -10 -16 -9 0 -16 -4 -16 -10 0 -5 -7 -10 -15 -10 -8 0 -15 -7 -15
-15 0 -10 -10 -15 -29 -15 -16 0 -31 -6 -34 -14 -3 -8 -14 -12 -24 -10 -10 3
-36 -2 -58 -10 -40 -14 -39 -15 68 -15 l107 -1 0 -40 c0 -36 3 -40 25 -40 24
0 25 3 25 55 0 42 -3 55 -15 55 -8 0 -15 -7 -15 -16 0 -11 -6 -14 -21 -9 -12
4 -32 8 -45 10 -40 4 -40 15 0 15 36 0 66 18 66 39 0 6 7 11 15 11 8 0 15 5
15 10 0 6 4 10 9 10 6 0 7 -37 4 -90 -4 -64 -3 -90 6 -90 7 0 12 24 13 68 l2
67 6 -70 c6 -60 7 -50 8 63 1 85 6 132 13 132 5 0 7 -4 4 -10 -3 -5 -1 -10 4
-10 6 0 11 18 11 40 0 22 5 40 10 40 6 0 10 72 9 198 0 119 -4 189 -9 177 -7
-15 -9 -10 -9 23 -1 30 -5 42 -16 42 -9 0 -15 10 -15 26 0 26 -20 54 -39 54
-6 0 -11 11 -11 25 0 16 6 25 15 25 12 0 15 13 15 55 0 42 -3 55 -15 55 -12 0
-15 -13 -15 -55 0 -32 -4 -55 -11 -55 -5 0 -7 -4 -4 -10 3 -5 3 -10 0 -10 -10
0 -35 28 -35 39 0 6 -16 11 -35 11 -26 0 -33 3 -29 15 4 8 12 15 20 15 8 0 14
10 14 25 0 16 -6 25 -15 25 -8 0 -15 -7 -15 -15z m-20 -50 c0 -13 -36 -15
-265 -15 -146 0 -265 3 -265 8 0 4 87 6 192 5 106 -1 209 2 228 6 60 15 110
13 110 -4z m-550 -445 c0 -275 -4 -450 -9 -450 -11 0 -15 882 -5 893 4 4 9 7
11 7 2 0 3 -202 3 -450z m717 -332 c-2 -13 -4 -5 -4 17 -1 22 1 32 4 23 2 -10
2 -28 0 -40z"/>
<path d="M740 963 c0 -21 5 -45 10 -53 7 -11 10 0 10 38 0 28 -4 52 -10 52 -5
0 -10 -17 -10 -37z"/>
<path d="M932 920 l3 -80 -40 -1 -40 -2 40 -7 c39 -7 39 -7 8 -9 -41 -1 -44
-21 -3 -21 28 0 30 -2 30 -39 0 -22 -5 -42 -12 -44 -10 -4 -10 -6 0 -6 16 -1
17 -131 1 -131 -8 0 -8 -5 1 -15 7 -8 8 -15 3 -15 -5 0 -10 -7 -10 -15 0 -8 3
-12 7 -10 3 2 4 -115 2 -261 -4 -239 -3 -264 12 -264 15 0 16 45 16 500 0 350
-3 500 -11 500 -7 0 -9 -28 -7 -80z"/>
<path d="M383 883 c9 -2 23 -2 30 0 6 3 -1 5 -18 5 -16 0 -22 -2 -12 -5z"/>
<path d="M805 860 c3 -5 8 -10 11 -10 2 0 4 5 4 10 0 6 -5 10 -11 10 -5 0 -7
-4 -4 -10z"/>
<path d="M240 487 c0 -261 3 -356 12 -365 14 -14 311 -16 343 -2 12 5 -49 9
-157 9 l-178 1 0 355 c0 230 -4 355 -10 355 -6 0 -10 -124 -10 -353z"/>
<path d="M280 500 c-3 -173 -4 -317 -2 -319 10 -18 12 45 10 320 l-3 314 -5
-315z"/>
<path d="M537 798 c-7 -4 18 -8 56 -8 53 0 67 -3 67 -15 0 -8 5 -15 10 -15 6
0 10 -11 10 -25 0 -14 5 -25 11 -25 6 0 9 6 6 14 -3 8 -1 17 6 20 9 5 9 7 0
12 -7 3 -13 12 -13 20 0 9 -4 12 -10 9 -5 -3 -7 0 -5 8 5 10 -8 13 -60 13 -37
0 -72 -4 -78 -8z"/>
<path d="M310 762 c0 -28 4 -39 15 -39 10 0 15 11 15 33 l0 33 93 4 92 3 -107
2 -108 2 0 -38z m17 -9 c-3 -10 -5 -4 -5 12 0 17 2 24 5 18 2 -7 2 -21 0 -30z"/>
<path d="M530 719 c0 -33 4 -59 10 -59 6 0 10 23 10 50 0 38 4 50 15 50 9 0
15 -9 15 -25 0 -20 5 -25 25 -25 20 0 25 -5 25 -25 0 -19 -5 -25 -22 -25 -13
0 -40 -3 -60 -6 l-37 -6 -4 63 -3 64 -2 -72 -2 -73 70 0 c58 0 68 3 64 15 -4
8 -2 15 3 15 5 0 9 16 10 34 0 24 -4 36 -15 38 -14 3 -14 5 1 20 11 10 13 19
7 23 -5 3 -10 1 -10 -5 0 -6 -4 -8 -10 -5 -6 4 -10 -5 -10 -21 0 -15 -3 -24
-7 -20 -4 4 -8 16 -8 28 0 16 -7 21 -32 23 l-33 3 0 -59z"/>
<path d="M473 700 c0 -41 2 -58 4 -37 2 20 2 54 0 75 -2 20 -4 3 -4 -38z"/>
<path d="M367 746 c-6 -15 -1 -14 63 7 8 3 -1 6 -21 6 -23 1 -39 -4 -42 -13z"/>
<path d="M710 515 c0 -124 -4 -225 -8 -225 -5 0 -8 84 -8 186 1 157 -2 192
-16 223 l-17 36 1 -75 c1 -71 1 -73 8 -25 l7 50 1 -52 2 -53 -117 0 c-65 0
-113 -4 -107 -8 7 -4 13 -52 16 -120 3 -84 8 -116 19 -123 19 -12 39 -11 39 1
0 6 -7 10 -15 10 -9 0 -15 9 -15 25 0 25 1 25 88 25 62 0 83 3 72 10 -8 6 -47
9 -87 8 -40 -1 -75 1 -79 5 -4 4 32 7 79 7 73 0 87 3 87 16 0 13 -13 15 -85
12 l-85 -3 0 43 0 42 85 0 c115 0 109 18 -7 22 l-93 3 103 5 102 5 0 -137 c0
-85 -4 -138 -10 -138 -5 0 -10 -11 -10 -25 0 -14 -5 -25 -11 -25 -5 0 -7 4 -4
10 3 5 2 10 -4 10 -5 0 -12 -6 -15 -12 -5 -10 -7 -10 -12 0 -8 17 -34 15 -34
-3 0 -9 6 -12 15 -9 11 5 15 -1 16 -22 l1 -29 8 25 c8 25 8 25 9 2 2 -47 -15
-52 -194 -52 -96 0 -164 -4 -161 -9 6 -9 339 -14 366 -6 11 4 15 17 14 47 -1
24 0 31 3 16 6 -37 23 -36 23 2 0 20 5 30 15 30 8 0 15 9 15 20 0 11 7 23 16
27 9 3 14 13 11 24 -4 15 3 19 42 22 l46 3 -47 2 c-42 2 -48 5 -49 25 -3 114
0 309 4 340 5 28 3 37 -8 37 -13 0 -15 -35 -15 -225z"/>
<path d="M320 464 c0 -159 3 -243 10 -239 6 4 8 87 6 223 l-4 217 23 0 c14 0
21 -5 17 -13 -6 -16 28 -43 45 -37 7 2 12 -1 10 -8 -1 -6 8 -13 21 -15 12 -2
22 -1 22 3 0 10 -28 35 -39 35 -6 0 -11 7 -11 15 0 8 -5 15 -11 15 -6 0 -17 6
-25 14 -8 8 -14 19 -14 25 0 6 -11 11 -25 11 l-25 0 0 -246z m35 226 c3 -5 1
-10 -4 -10 -6 0 -11 5 -11 10 0 6 2 10 4 10 3 0 8 -4 11 -10z m50 -50 c3 -5 1
-10 -4 -10 -6 0 -11 5 -11 10 0 6 2 10 4 10 3 0 8 -4 11 -10z"/>
<path d="M912 665 c0 -16 2 -22 5 -12 2 9 2 23 0 30 -3 6 -5 -1 -5 -18z"/>
<path d="M740 505 c0 -97 4 -155 10 -155 6 0 10 58 10 155 0 97 -4 155 -10
155 -6 0 -10 -58 -10 -155z"/>
<path d="M912 610 c0 -14 2 -19 5 -12 2 6 2 18 0 25 -3 6 -5 1 -5 -13z"/>
<path d="M911 484 c0 -11 3 -14 6 -6 3 7 2 16 -1 19 -3 4 -6 -2 -5 -13z"/>
<path d="M173 363 c9 -2 25 -2 35 0 9 3 1 5 -18 5 -19 0 -27 -2 -17 -5z"/>
<path d="M521 366 c7 -8 108 -10 115 -3 4 4 -21 7 -56 7 -35 0 -61 -2 -59 -4z"/>
<path d="M173 333 c9 -2 25 -2 35 0 9 3 1 5 -18 5 -19 0 -27 -2 -17 -5z"/>
<path d="M560 330 c0 -5 15 -10 34 -10 30 0 35 -4 39 -27 3 -23 4 -21 6 10 1
37 1 37 -39 37 -22 0 -40 -4 -40 -10z"/>
<path d="M530 261 l0 -59 -112 1 c-80 1 -113 -2 -116 -11 -5 -17 235 -17 275
0 l28 12 -27 4 c-27 3 -28 6 -28 58 0 30 -4 54 -10 54 -6 0 -10 -26 -10 -59z"/>
<path d="M761 304 c0 -11 3 -14 6 -6 3 7 2 16 -1 19 -3 4 -6 -2 -5 -13z"/>
<path d="M503 265 c0 -22 2 -30 4 -17 2 12 2 30 0 40 -3 9 -5 -1 -4 -23z"/>
<path d="M876 204 c-10 -27 -7 -204 4 -204 6 0 10 43 10 110 0 61 -2 110 -4
110 -2 0 -7 -7 -10 -16z"/>
<path d="M775 140 c-3 -5 -1 -10 4 -10 6 0 11 5 11 10 0 6 -2 10 -4 10 -3 0
-8 -4 -11 -10z"/>
<path d="M173 103 c15 -2 39 -2 55 0 15 2 2 4 -28 4 -30 0 -43 -2 -27 -4z"/>
<path d="M690 25 c0 -14 5 -25 10 -25 6 0 10 11 10 25 0 14 -4 25 -10 25 -5 0
-10 -11 -10 -25z"/>
<path d="M660 21 c0 -12 5 -21 10 -21 6 0 10 6 10 14 0 8 -4 18 -10 21 -5 3
-10 -3 -10 -14z"/>
<path d="M610 15 c0 -8 5 -15 10 -15 6 0 10 7 10 15 0 8 -4 15 -10 15 -5 0
-10 -7 -10 -15z"/>
<path d="M88 3 c7 -3 16 -2 19 1 4 3 -2 6 -13 5 -11 0 -14 -3 -6 -6z"/>
</g>
</svg>
