<?xml version="1.0" standalone="no"?>
<!DOCTYPE svg PUBLIC "-//W3C//DTD SVG 20010904//EN"
 "http://www.w3.org/TR/2001/REC-SVG-20010904/DTD/svg10.dtd">
<svg version="1.0" xmlns="http://www.w3.org/2000/svg"
 width="100.000000pt" height="100.000000pt" viewBox="0 0 100.000000 100.000000"
 preserveAspectRatio="xMidYMid meet">
<metadata>
Created by potrace 1.16, written by Peter Selinger 2001-2019
</metadata>
<g transform="translate(0.000000,100.000000) scale(0.100000,-0.100000)"
fill="#000000" stroke="none">
<path d="M0 640 c0 -7 173 -10 500 -10 327 0 500 3 500 10 0 7 -173 10 -500
10 -327 0 -500 -3 -500 -10z"/>
<path d="M487 613 c-11 -11 -8 -401 3 -408 7 -4 10 67 10 204 0 116 -1 211 -3
211 -2 0 -7 -3 -10 -7z"/>
<path d="M250 410 c0 -127 4 -200 10 -200 6 0 10 73 10 200 0 127 -4 200 -10
200 -6 0 -10 -73 -10 -200z"/>
<path d="M750 410 c0 -127 4 -200 10 -200 6 0 10 73 10 200 0 127 -4 200 -10
200 -6 0 -10 -73 -10 -200z"/>
<path d="M0 180 c0 -7 173 -10 500 -10 327 0 500 3 500 10 0 7 -173 10 -500
10 -327 0 -500 -3 -500 -10z"/>
</g>
</svg>
