<?xml version="1.0" standalone="no"?>
<!DOCTYPE svg PUBLIC "-//W3C//DTD SVG 20010904//EN"
 "http://www.w3.org/TR/2001/REC-SVG-20010904/DTD/svg10.dtd">
<svg version="1.0" xmlns="http://www.w3.org/2000/svg"
 width="64.000000pt" height="64.000000pt" viewBox="0 0 64.000000 64.000000"
 preserveAspectRatio="xMidYMid meet">
<metadata>
Created by potrace 1.16, written by Peter Selinger 2001-2019
</metadata>
<g transform="translate(0.000000,64.000000) scale(0.100000,-0.100000)"
fill="#000000" stroke="none">
<path d="M219 541 c-17 -17 -29 -40 -29 -55 0 -24 -4 -26 -40 -26 l-40 0 0
-164 c0 -136 3 -167 16 -180 23 -24 365 -24 388 0 13 13 16 44 16 180 l0 164
-40 0 c-36 0 -40 2 -40 26 0 15 -12 38 -29 55 -27 27 -35 29 -101 29 -66 0
-74 -2 -101 -29z m182 -20 c17 -17 29 -40 29 -55 0 -24 4 -26 40 -26 l40 0 0
-144 c0 -118 -3 -147 -16 -160 -23 -24 -325 -24 -348 0 -13 13 -16 42 -16 160
l0 144 40 0 c36 0 40 2 40 26 0 15 12 38 29 55 25 25 37 29 81 29 44 0 56 -4
81 -29z"/>
<path d="M266 478 c-9 -12 -16 -26 -16 -30 0 -5 32 -8 70 -8 39 0 70 3 70 8 0
4 -7 18 -16 30 -11 16 -25 22 -54 22 -29 0 -43 -6 -54 -22z m79 -8 c4 -6 -7
-10 -25 -10 -18 0 -29 4 -25 10 3 6 15 10 25 10 10 0 22 -4 25 -10z"/>
<path d="M230 293 c0 -96 4 -153 10 -153 13 0 13 270 0 290 -6 10 -10 -35 -10
-137z"/>
<path d="M307 423 c-11 -11 -8 -281 3 -288 6 -4 10 47 10 144 0 83 -1 151 -3
151 -2 0 -7 -3 -10 -7z"/>
<path d="M410 280 c0 -87 4 -140 10 -140 6 0 10 53 10 140 0 87 -4 140 -10
140 -6 0 -10 -53 -10 -140z"/>
</g>
</svg>
