<?xml version="1.0" standalone="no"?>
<!DOCTYPE svg PUBLIC "-//W3C//DTD SVG 20010904//EN"
 "http://www.w3.org/TR/2001/REC-SVG-20010904/DTD/svg10.dtd">
<svg version="1.0" xmlns="http://www.w3.org/2000/svg"
 width="180.000000pt" height="180.000000pt" viewBox="0 0 180.000000 180.000000"
 preserveAspectRatio="xMidYMid meet">
<metadata>
Created by potrace 1.16, written by Peter Selinger 2001-2019
</metadata>
<g transform="translate(0.000000,180.000000) scale(0.100000,-0.100000)"
fill="#000000" stroke="none">
<path d="M210 930 l0 -120 155 0 155 0 0 -30 0 -30 369 0 368 0 7 30 6 30 160
0 160 0 0 120 0 120 -690 0 -690 0 0 -120z m1360 0 l0 -100 -162 -2 -163 -3
-3 -27 c-3 -28 -4 -28 -78 -28 -74 0 -81 3 -65 29 13 20 -9 51 -36 51 -19 0
-21 -3 -14 -22 5 -13 16 -22 25 -22 18 2 20 -5 7 -25 -13 -21 -41 -5 -41 24 0
14 -4 25 -10 25 -5 0 -10 -14 -10 -30 l0 -31 -67 3 c-66 3 -68 4 -74 33 l-7
30 -1 -32 -1 -33 -165 0 -165 0 0 30 0 30 -155 0 -155 0 0 100 0 100 670 0
670 0 0 -100z"/>
<path d="M1248 955 c-2 -31 1 -45 9 -45 7 0 13 10 14 23 l0 22 9 -22 c14 -35
20 -28 20 22 0 41 -2 45 -24 45 -21 0 -24 -5 -28 -45z"/>
<path d="M900 925 c0 -30 5 -55 10 -55 6 0 10 25 10 55 0 30 -4 55 -10 55 -5
0 -10 -25 -10 -55z"/>
<path d="M939 933 l3 -43 78 0 78 0 6 31 c3 17 6 35 6 40 0 4 -39 9 -87 11
l-88 3 4 -42z m144 -3 c-5 -17 -14 -20 -64 -20 -52 0 -59 2 -59 20 0 18 7 20
64 20 59 0 64 -2 59 -20z"/>
<path d="M1330 976 c0 -2 7 -7 16 -10 8 -3 12 -2 9 4 -6 10 -25 14 -25 6z"/>
<path d="M1440 969 c0 -5 5 -7 10 -4 6 3 10 8 10 11 0 2 -4 4 -10 4 -5 0 -10
-5 -10 -11z"/>
<path d="M1480 969 c0 -5 5 -7 10 -4 6 3 10 8 10 11 0 2 -4 4 -10 4 -5 0 -10
-5 -10 -11z"/>
<path d="M1530 960 c0 -5 -11 -10 -25 -10 -20 0 -25 -5 -25 -26 0 -18 4 -25
14 -21 7 3 19 0 25 -6 8 -8 11 -5 11 11 0 16 -4 20 -17 15 -11 -4 -14 -3 -9 5
4 7 14 12 22 12 8 0 14 7 14 15 0 8 -2 15 -5 15 -3 0 -5 -4 -5 -10z"/>
<path d="M633 948 c-19 -24 -24 -38 -15 -38 5 0 14 11 20 25 13 27 10 32 -5
13z"/>
<path d="M457 930 c-13 -16 -14 -20 -3 -20 8 0 17 7 20 16 9 25 2 26 -17 4z"/>
<path d="M1350 925 c0 -14 2 -25 4 -25 2 0 6 11 8 25 3 14 1 25 -3 25 -5 0 -9
-11 -9 -25z"/>
<path d="M1435 921 c-3 -5 -1 -12 5 -16 5 -3 10 1 10 9 0 18 -6 21 -15 7z"/>
<path d="M1270 893 c0 -8 -22 -13 -57 -16 -32 -2 28 -3 132 -3 116 0 141 2 65
3 -84 3 -127 8 -132 16 -6 9 -8 9 -8 0z"/>
<path d="M1020 879 l-95 -5 108 -2 c59 -1 107 0 107 2 0 9 -31 11 -120 5z"/>
<path d="M538 853 c15 -3 22 -11 22 -28 0 -27 20 -37 75 -38 36 0 40 2 41 26
1 15 -3 24 -8 21 -5 -3 -6 -15 -2 -27 6 -18 4 -20 -7 -10 -8 6 -27 13 -44 15
-20 2 -33 11 -40 26 -7 15 -18 22 -35 21 -23 -2 -24 -2 -2 -6z"/>
<path d="M900 831 c0 -34 13 -46 51 -46 17 0 25 4 22 12 -4 9 -10 10 -24 2
-18 -9 -19 -8 -8 9 16 25 5 52 -21 52 -15 0 -20 -7 -20 -29z"/>
<path d="M625 830 c-3 -5 -1 -10 4 -10 6 0 11 5 11 10 0 6 -2 10 -4 10 -3 0
-8 -4 -11 -10z"/>
<path d="M739 808 c4 -28 6 -29 9 -9 2 13 0 27 -5 32 -6 6 -7 -3 -4 -23z"/>
<path d="M978 818 c2 -10 9 -21 15 -25 7 -4 8 0 3 12 -4 11 -2 22 6 26 8 5 6
8 -8 7 -15 -2 -20 -7 -16 -20z"/>
<path d="M1170 836 c0 -7 40 -14 44 -7 3 4 -6 8 -20 9 -13 1 -24 0 -24 -2z"/>
<path d="M777 819 c-25 -14 -21 -26 8 -26 26 0 30 4 17 24 -5 8 -13 8 -25 2z"/>
<path d="M1120 800 c0 -18 3 -20 13 -11 8 6 17 8 20 4 13 -13 55 -9 50 4 -3 7
-16 13 -28 13 -13 0 -30 3 -39 6 -12 4 -16 0 -16 -16z"/>
<path d="M692 799 c2 -6 8 -10 13 -10 5 0 11 4 13 10 2 6 -4 11 -13 11 -9 0
-15 -5 -13 -11z"/>
<path d="M820 795 c0 -9 6 -12 15 -9 8 4 15 10 15 15 0 5 -7 9 -15 9 -8 0 -15
-7 -15 -15z"/>
</g>
</svg>
