<?xml version="1.0" standalone="no"?>
<!DOCTYPE svg PUBLIC "-//W3C//DTD SVG 20010904//EN"
 "http://www.w3.org/TR/2001/REC-SVG-20010904/DTD/svg10.dtd">
<svg version="1.0" xmlns="http://www.w3.org/2000/svg"
 width="192.000000pt" height="192.000000pt" viewBox="0 0 192.000000 192.000000"
 preserveAspectRatio="xMidYMid meet">
<metadata>
Created by potrace 1.16, written by Peter Selinger 2001-2019
</metadata>
<g transform="translate(0.000000,192.000000) scale(0.100000,-0.100000)"
fill="#000000" stroke="none">
<path d="M550 1903 c-25 -9 -46 -20 -48 -24 -2 -5 -12 -9 -23 -9 -10 0 -19 -4
-19 -10 0 -5 -8 -10 -18 -10 -10 0 -24 -9 -32 -20 -8 -11 -21 -20 -30 -20 -9
0 -22 -9 -30 -20 -8 -11 -18 -20 -22 -20 -11 0 -178 -167 -178 -178 0 -4 -9
-14 -20 -22 -11 -8 -20 -21 -20 -30 0 -9 -9 -22 -20 -30 -11 -8 -20 -22 -20
-32 0 -10 -4 -18 -10 -18 -5 0 -10 -9 -10 -20 0 -11 -4 -20 -8 -20 -14 0 -44
-112 -40 -145 5 -33 7 -29 33 60 10 33 21 62 25 65 5 3 10 12 12 20 2 8 9 21
16 28 7 8 10 17 8 21 -3 4 4 14 15 21 10 8 19 21 19 30 0 9 9 22 20 30 11 8
20 18 20 23 0 12 67 76 74 70 3 -4 6 1 6 10 0 10 7 17 17 17 9 0 14 3 10 6 -6
7 58 74 70 74 5 0 15 9 23 20 8 11 21 20 30 20 9 0 22 9 30 19 7 11 17 18 21
15 4 -2 13 1 21 8 7 7 20 14 28 16 8 2 17 7 20 11 7 10 98 41 121 41 10 0 21
5 24 10 9 15 -64 11 -115 -7z"/>
<path d="M1265 1910 c3 -5 14 -10 24 -10 23 0 114 -31 121 -41 3 -4 12 -9 20
-11 8 -2 21 -9 28 -16 8 -7 17 -10 21 -8 4 3 14 -4 21 -15 8 -10 21 -19 30
-19 9 0 22 -9 30 -20 8 -11 18 -20 23 -20 12 0 76 -67 70 -74 -4 -3 1 -6 10
-6 9 0 17 -7 17 -17 0 -9 3 -14 6 -10 7 6 74 -58 74 -70 0 -5 9 -15 20 -23 11
-8 20 -21 20 -30 0 -9 9 -22 19 -30 11 -7 18 -17 15 -21 -2 -4 1 -13 8 -21 7
-7 14 -20 16 -28 2 -8 7 -17 11 -20 8 -5 34 -81 44 -125 3 -11 5 0 6 24 1 48
-17 121 -31 121 -4 0 -8 9 -8 20 0 11 -4 20 -10 20 -5 0 -10 8 -10 18 0 10 -9
24 -20 32 -11 8 -20 21 -20 30 0 9 -9 22 -20 30 -11 8 -20 18 -20 22 0 11
-167 178 -178 178 -4 0 -14 9 -22 20 -8 11 -21 20 -30 20 -9 0 -22 9 -30 20
-8 11 -22 20 -32 20 -10 0 -18 5 -18 10 0 6 -9 10 -20 10 -11 0 -20 4 -20 8 0
5 -24 16 -53 25 -60 19 -122 23 -112 7z"/>
<path d="M1329 1774 c-13 -14 -64 -60 -114 -101 -49 -41 -116 -98 -149 -127
-98 -85 -138 -120 -196 -166 -30 -25 -64 -54 -76 -65 -12 -11 -39 -34 -60 -52
-22 -18 -52 -43 -68 -57 -16 -14 -30 -26 -32 -26 -6 0 -144 145 -144 152 0 4
-7 8 -15 8 -8 0 -15 5 -15 10 0 6 -4 10 -10 10 -5 0 -1 -15 10 -32 10 -18 33
-71 50 -118 17 -47 36 -95 41 -107 12 -31 27 -68 38 -95 14 -38 33 -82 42
-100 5 -10 9 -26 9 -37 0 -17 27 -50 33 -40 1 2 9 17 18 32 21 39 141 201 151
205 4 2 8 10 8 18 0 8 5 14 10 14 6 0 10 6 10 14 0 8 3 16 8 18 4 2 29 32 55
68 26 36 54 74 63 85 8 11 23 32 32 48 9 15 20 27 24 27 4 0 8 7 8 15 0 8 4
15 8 15 4 0 16 13 25 30 10 16 23 35 30 42 7 7 39 51 72 98 33 47 65 92 72
100 6 8 32 41 57 72 25 31 46 59 46 62 0 13 -18 4 -41 -20z m-225 -281 c-27
-37 -51 -70 -54 -73 -4 -3 -22 -27 -40 -55 -19 -27 -40 -56 -46 -65 -7 -8 -34
-44 -60 -80 -27 -36 -71 -96 -99 -135 -28 -38 -62 -86 -75 -105 -14 -19 -34
-45 -45 -57 l-20 -23 -28 78 c-16 42 -33 87 -38 100 -5 12 -13 32 -18 45 -5
12 -14 35 -20 51 -16 38 -10 41 19 11 35 -37 80 -34 127 9 37 34 240 206 277
236 10 8 51 43 90 77 38 34 72 60 74 58 2 -2 -18 -34 -44 -72z"/>
<path d="M1337 1471 c-17 -30 -119 -151 -211 -252 -28 -31 -78 -86 -111 -124
-33 -37 -71 -80 -85 -95 -27 -30 -143 -159 -201 -224 l-37 -41 40 -105 c22
-58 44 -113 49 -122 5 -10 9 -27 9 -38 0 -30 13 -24 29 13 8 17 17 34 20 37 4
3 17 28 31 55 14 28 27 52 30 55 4 4 31 55 102 190 12 25 25 47 28 50 3 3 15
23 26 45 12 22 32 60 45 85 13 25 26 47 29 50 3 3 19 32 36 65 71 136 105 197
156 286 7 12 21 32 31 43 17 20 23 56 9 56 -4 0 -15 -13 -25 -29z m-168 -277
c-34 -60 -62 -111 -109 -199 -24 -44 -52 -96 -63 -115 -11 -19 -32 -57 -47
-85 -30 -56 -67 -123 -113 -204 l-30 -54 -16 41 c-9 22 -19 44 -23 48 -5 4 -8
18 -8 30 0 13 -4 26 -10 29 -27 17 -2 57 127 204 76 86 156 176 179 201 23 25
57 63 75 85 19 22 39 45 44 51 19 22 16 6 -6 -32z"/>
<path d="M1338 1120 c-7 -16 -16 -30 -20 -30 -5 0 -8 -4 -8 -10 0 -9 -206
-330 -219 -340 -3 -3 -12 -17 -20 -32 -8 -16 -18 -28 -23 -28 -4 0 -8 -5 -8
-11 0 -6 -25 -46 -55 -90 -30 -44 -55 -82 -55 -85 0 -2 -9 -14 -20 -26 -11
-12 -20 -28 -20 -35 0 -7 -4 -13 -9 -13 -5 0 -16 -16 -25 -35 -16 -32 -16 -38
-2 -67 9 -17 16 -39 16 -50 0 -10 5 -18 10 -18 6 0 10 -9 10 -20 0 -11 4 -28
9 -38 5 -9 13 -28 19 -42 5 -14 15 -38 21 -53 13 -32 31 -27 31 8 0 21 21 82
61 183 5 12 13 32 18 45 4 12 13 33 18 47 6 14 15 36 20 50 6 14 16 39 23 55
12 28 23 55 41 100 4 11 24 65 44 120 50 136 68 182 86 217 5 10 9 27 9 38 0
11 5 20 10 20 6 0 10 7 10 15 0 8 4 23 9 33 5 9 16 32 23 50 7 17 16 32 20 32
5 0 8 9 8 20 0 30 -16 24 -32 -10z m-136 -305 c-15 -32 -25 -57 -52 -130 -12
-33 -31 -79 -41 -102 -11 -24 -19 -46 -19 -50 0 -7 -61 -172 -82 -223 -6 -14
-15 -36 -21 -50 -5 -14 -13 -33 -18 -42 -5 -10 -9 -25 -9 -34 0 -13 -3 -14
-15 -4 -8 7 -15 20 -15 29 0 9 -4 21 -8 27 -4 5 -16 33 -26 62 l-18 53 26 39
c14 22 26 44 26 50 0 5 4 10 8 10 5 0 15 12 23 28 8 15 19 32 24 38 6 6 57 83
115 172 95 146 133 193 102 127z"/>
<path d="M0 629 c0 -39 30 -139 42 -139 4 0 8 -9 8 -20 0 -11 5 -20 10 -20 6
0 10 -8 10 -18 0 -10 9 -24 20 -32 11 -8 20 -21 20 -30 0 -9 9 -22 20 -30 11
-8 20 -18 20 -22 0 -11 167 -178 178 -178 4 0 14 -9 22 -20 8 -11 21 -20 30
-20 9 0 22 -9 30 -20 8 -11 22 -20 32 -20 10 0 18 -4 18 -10 0 -5 9 -10 20
-10 11 0 20 -4 20 -8 0 -14 73 -32 121 -31 24 1 35 3 24 6 -44 10 -120 36
-125 44 -3 4 -12 9 -20 11 -8 2 -21 9 -28 16 -8 7 -17 10 -21 8 -4 -3 -14 4
-21 15 -8 10 -21 19 -30 19 -9 0 -22 9 -30 20 -8 11 -18 20 -23 20 -12 0 -76
67 -70 74 4 3 -1 6 -10 6 -10 0 -17 8 -17 17 0 9 -3 14 -6 10 -7 -6 -74 58
-74 70 0 5 -9 15 -20 23 -11 8 -20 21 -20 30 0 9 -9 22 -19 30 -11 7 -18 17
-15 21 2 4 -1 13 -8 21 -7 7 -14 20 -16 28 -2 8 -7 17 -11 20 -10 7 -41 98
-41 121 0 10 -4 21 -10 24 -6 4 -10 -7 -10 -26z"/>
<path d="M1912 634 c-3 -28 -33 -118 -43 -124 -4 -3 -9 -12 -11 -20 -2 -8 -9
-21 -16 -28 -7 -8 -10 -17 -8 -21 3 -4 -4 -14 -15 -21 -10 -8 -19 -21 -19 -30
0 -9 -9 -22 -20 -30 -11 -8 -20 -18 -20 -23 0 -12 -67 -76 -74 -70 -3 4 -6 -1
-6 -10 0 -9 -7 -17 -17 -17 -9 0 -14 -3 -10 -6 6 -7 -58 -74 -70 -74 -5 0 -15
-9 -23 -20 -8 -11 -21 -20 -30 -20 -9 0 -22 -9 -30 -19 -7 -11 -17 -18 -21
-15 -4 2 -13 -1 -21 -8 -7 -7 -20 -14 -28 -16 -8 -2 -17 -7 -20 -11 -5 -8 -81
-34 -125 -44 -11 -3 0 -5 24 -6 48 -1 121 17 121 31 0 4 9 8 20 8 11 0 20 5
20 10 0 6 8 10 18 10 10 0 24 9 32 20 8 11 21 20 30 20 9 0 22 9 30 20 8 11
18 20 22 20 11 0 178 167 178 178 0 4 9 14 20 22 11 8 20 21 20 30 0 9 9 22
20 30 11 8 20 22 20 32 0 10 5 18 10 18 6 0 10 9 10 20 0 11 4 20 9 20 14 0
33 83 28 125 -2 22 -4 31 -5 19z"/>
</g>
</svg>
