<?xml version="1.0" standalone="no"?>
<!DOCTYPE svg PUBLIC "-//W3C//DTD SVG 20010904//EN"
 "http://www.w3.org/TR/2001/REC-SVG-20010904/DTD/svg10.dtd">
<svg version="1.0" xmlns="http://www.w3.org/2000/svg"
 width="150.000000pt" height="150.000000pt" viewBox="0 0 150.000000 150.000000"
 preserveAspectRatio="xMidYMid meet">
<metadata>
Created by potrace 1.16, written by Peter Selinger 2001-2019
</metadata>
<g transform="translate(0.000000,150.000000) scale(0.100000,-0.100000)"
fill="#000000" stroke="none">
<path d="M631 1233 c-228 -34 -391 -139 -470 -303 -35 -72 -36 -79 -36 -185 0
-103 2 -114 31 -175 100 -207 370 -324 729 -315 191 4 390 48 442 97 41 39 26
101 -30 121 -10 4 -52 0 -95 -9 -95 -18 -303 -26 -397 -14 -163 21 -308 91
-369 178 -35 50 -46 136 -26 208 26 93 134 179 261 208 83 20 245 15 316 -9
67 -23 133 -78 133 -111 0 -42 -34 -54 -176 -59 -217 -9 -266 -14 -290 -30
-48 -31 -39 -104 16 -132 18 -9 105 -13 327 -13 l301 0 31 25 c62 52 66 159
11 271 -60 122 -197 213 -376 249 -63 12 -242 11 -333 -2z m337 -29 c108 -22
211 -74 276 -138 75 -75 101 -133 101 -223 0 -66 -3 -75 -28 -100 l-27 -28
-268 -3 c-287 -3 -319 -1 -353 27 -29 23 -20 64 18 80 16 6 114 15 218 19 110
5 199 13 212 20 27 15 39 65 23 102 -14 33 -67 72 -130 96 -58 22 -265 31
-341 15 -127 -26 -232 -100 -272 -190 -27 -61 -29 -169 -4 -233 34 -88 142
-162 297 -203 98 -26 349 -32 478 -11 131 20 128 21 148 -10 17 -24 16 -26 -7
-49 -30 -29 -125 -60 -249 -81 -132 -22 -373 -15 -485 15 -296 79 -465 273
-427 491 37 205 206 354 462 405 92 18 266 18 358 -1z"/>
</g>
</svg>
