<?xml version="1.0" standalone="no"?>
<!DOCTYPE svg PUBLIC "-//W3C//DTD SVG 20010904//EN"
 "http://www.w3.org/TR/2001/REC-SVG-20010904/DTD/svg10.dtd">
<svg version="1.0" xmlns="http://www.w3.org/2000/svg"
 width="192.000000pt" height="192.000000pt" viewBox="0 0 192.000000 192.000000"
 preserveAspectRatio="xMidYMid meet">
<metadata>
Created by potrace 1.16, written by Peter Selinger 2001-2019
</metadata>
<g transform="translate(0.000000,192.000000) scale(0.100000,-0.100000)"
fill="#000000" stroke="none">
<path d="M557 1409 c-51 -12 -134 -55 -183 -95 -78 -63 -148 -195 -112 -209
12 -5 14 -17 11 -49 -3 -26 -1 -46 6 -50 8 -5 8 -13 0 -28 -6 -11 -9 -33 -7
-49 4 -25 1 -29 -19 -29 -20 0 -23 -5 -23 -37 0 -45 46 -147 92 -204 75 -93
220 -159 352 -159 135 0 235 39 328 128 53 50 118 154 118 188 0 7 14 14 33
16 l32 3 6 75 c3 47 6 59 7 33 4 -81 80 -131 177 -115 36 7 40 10 43 40 l3 32
33 -35 c31 -33 37 -35 97 -35 124 0 152 42 147 215 l-3 100 -52 3 -53 3 0 -35
0 -36 -49 0 c-33 0 -56 -6 -72 -19 -23 -18 -25 -18 -43 -3 -15 14 -42 17 -162
17 l-144 0 -11 35 c-63 195 -226 312 -433 309 -44 -1 -98 -5 -119 -10z m268
-40 c72 -27 145 -81 189 -139 38 -50 86 -162 86 -202 0 -19 -1 -19 -19 3 -16
20 -28 24 -76 24 -80 0 -95 -20 -95 -126 l0 -79 30 0 30 0 0 75 c0 72 1 75 26
81 37 9 46 -6 48 -83 l1 -68 28 2 c27 2 28 0 22 -25 -24 -100 -115 -206 -218
-257 -250 -121 -526 -5 -617 259 -19 57 -17 70 5 39 18 -24 155 -33 155 -10 0
8 3 22 6 31 5 14 -4 16 -60 16 l-66 0 0 29 c0 29 2 30 53 33 45 3 52 6 55 26
3 21 0 22 -52 22 -54 0 -56 1 -56 28 0 27 0 27 60 24 33 -2 60 0 60 5 0 4 3
19 7 32 l6 24 -81 -5 -81 -5 21 41 c31 61 121 149 185 182 111 56 238 65 348
23z m845 -339 c0 -117 -13 -152 -61 -169 -43 -15 -74 -14 -109 4 -37 19 -50
43 -50 90 0 47 14 71 52 91 29 15 64 15 99 0 14 -6 16 -1 12 38 -6 46 -6 46
26 46 l31 0 0 -100z m-440 16 c0 -27 -12 -45 -26 -39 -30 11 -44 -17 -44 -89
l0 -69 -27 3 c-27 3 -28 5 -31 67 -5 102 20 139 96 140 21 1 32 -4 32 -13z
m154 0 c33 -14 37 -20 50 -78 l6 -28 -75 0 c-41 0 -75 -4 -75 -9 0 -26 70 -45
99 -27 7 5 11 -1 11 -17 0 -43 -76 -51 -131 -14 -47 31 -60 82 -32 128 32 57
83 72 147 45z m-307 -138 c-2 -18 -4 -6 -4 27 0 33 2 48 4 33 2 -15 2 -42 0
-60z m-140 -5 c-2 -16 -4 -3 -4 27 0 30 2 43 4 28 2 -16 2 -40 0 -55z"/>
<path d="M600 1085 c0 -42 -11 -58 -25 -35 -9 15 -62 12 -95 -5 -20 -10 -33
-28 -42 -56 -10 -37 -10 -46 8 -77 10 -20 30 -42 44 -50 39 -20 107 -9 139 22
24 25 26 33 29 136 l4 110 -31 0 c-30 0 -31 -1 -31 -45z m29 -102 l-2 -58 -7
45 c-7 41 -4 70 6 70 2 0 3 -26 3 -57z m-47 10 c23 -21 23 -55 -1 -77 -26 -24
-62 -17 -80 15 -13 24 -13 29 2 53 20 30 52 34 79 9z m-115 -50 c-3 -10 -5 -4
-5 12 0 17 2 24 5 18 2 -7 2 -21 0 -30z"/>
<path d="M728 1045 c-34 -19 -48 -44 -48 -85 0 -69 47 -110 127 -110 27 0 35
5 43 26 6 14 10 27 10 28 0 2 -19 1 -43 -1 -33 -4 -48 -1 -62 13 -18 19 -17
19 58 22 l77 3 0 29 c0 16 -10 41 -23 55 -28 34 -98 43 -139 20z m90 -37 c21
-21 13 -28 -33 -28 -47 0 -58 12 -27 29 23 14 45 14 60 -1z m-99 -55 c0 -29
-2 -33 -8 -18 -7 18 -4 55 5 55 2 0 4 -17 3 -37z"/>
<path d="M1526 997 c-12 -9 -17 -23 -14 -47 2 -28 9 -37 31 -44 38 -14 61 2
65 45 4 35 -16 59 -48 59 -9 0 -24 -6 -34 -13z m53 -31 c9 -10 8 -16 -4 -26
-19 -16 -41 1 -32 24 8 20 21 20 36 2z"/>
<path d="M1295 1000 c-18 -20 -17 -20 33 -20 29 0 52 2 52 4 0 3 -7 12 -16 20
-21 22 -47 20 -69 -4z"/>
</g>
</svg>
