<?xml version="1.0" standalone="no"?>
<!DOCTYPE svg PUBLIC "-//W3C//DTD SVG 20010904//EN"
 "http://www.w3.org/TR/2001/REC-SVG-20010904/DTD/svg10.dtd">
<svg version="1.0" xmlns="http://www.w3.org/2000/svg"
 width="256.000000pt" height="256.000000pt" viewBox="0 0 256.000000 256.000000"
 preserveAspectRatio="xMidYMid meet">
<metadata>
Created by potrace 1.16, written by Peter Selinger 2001-2019
</metadata>
<g transform="translate(0.000000,256.000000) scale(0.100000,-0.100000)"
fill="#000000" stroke="none">
<path d="M1010 2549 c-224 -13 -444 -94 -644 -238 l-78 -56 521 -3 c491 -2
522 -3 517 -20 -3 -9 -14 -80 -26 -157 -11 -77 -23 -152 -26 -167 l-6 -28
-424 0 -424 0 2 -190 3 -191 383 1 c210 0 382 -1 382 -4 0 -2 -13 -82 -30
-178 -16 -95 -30 -174 -30 -175 0 -2 -160 -3 -356 -3 l-356 0 4 -157 c3 -137
6 -163 23 -193 41 -70 43 -70 483 -70 l394 0 -6 -28 c-3 -15 -15 -85 -26 -157
-11 -72 -23 -142 -26 -158 l-6 -27 -447 0 c-484 0 -525 4 -603 55 -58 39 -54
30 18 -37 107 -101 211 -175 329 -233 199 -97 328 -126 565 -126 183 0 264 12
412 61 423 141 744 510 839 963 30 142 30 351 0 494 -97 464 -425 830 -871
971 -158 50 -284 63 -490 51z m193 -19 c172 0 421 -86 612 -211 98 -65 274
-239 337 -335 219 -334 276 -712 162 -1076 -114 -362 -406 -670 -760 -804
-121 -45 -317 -83 -429 -84 -65 0 -237 25 -313 45 -170 45 -375 151 -487 250
-29 26 -29 26 -5 19 39 -11 941 -17 952 -6 8 8 68 351 68 393 0 18 -11 19
-397 19 -377 0 -400 1 -430 20 -56 34 -67 68 -71 223 l-4 137 356 0 c196 0
356 1 356 3 0 1 14 79 30 172 16 94 30 182 30 198 l0 27 -385 0 -385 0 0 170
0 170 425 0 425 0 4 23 c8 39 56 361 56 375 0 9 -106 12 -497 12 l-498 0 55
40 c71 51 206 121 298 154 96 34 255 66 330 66 34 0 64 5 67 10 4 7 12 7 25 0
10 -5 43 -10 73 -10z"/>
</g>
</svg>
