<?xml version="1.0" standalone="no"?>
<!DOCTYPE svg PUBLIC "-//W3C//DTD SVG 20010904//EN"
 "http://www.w3.org/TR/2001/REC-SVG-20010904/DTD/svg10.dtd">
<svg version="1.0" xmlns="http://www.w3.org/2000/svg"
 width="256.000000pt" height="256.000000pt" viewBox="0 0 256.000000 256.000000"
 preserveAspectRatio="xMidYMid meet">
<metadata>
Created by potrace 1.16, written by Peter Selinger 2001-2019
</metadata>
<g transform="translate(0.000000,256.000000) scale(0.100000,-0.100000)"
fill="#000000" stroke="none">
<path d="M1085 2394 c-11 -2 -45 -9 -75 -15 -64 -12 -121 -30 -135 -41 -5 -4
-16 -8 -24 -8 -30 0 -214 -102 -278 -154 -84 -69 -83 -67 -83 -107 l0 -39 396
0 397 0 -7 -52 c-4 -29 -10 -75 -14 -103 l-7 -50 -337 -3 -338 -2 0 -200 0
-200 295 0 c221 0 295 -3 295 -12 0 -10 -6 -45 -26 -155 l-4 -23 -280 0 -280
0 0 -150 c0 -159 6 -189 50 -227 25 -23 28 -23 337 -23 l311 0 -8 -32 c-5 -18
-14 -66 -21 -105 l-12 -73 -291 0 c-376 0 -433 9 -501 79 -24 24 -38 30 -72
31 l-43 0 0 -41 c0 -33 9 -54 44 -103 170 -238 468 -401 778 -427 134 -12 347
-1 418 21 19 6 51 16 70 21 194 59 383 189 528 363 57 69 162 254 162 287 0 8
4 19 9 25 4 5 19 47 32 94 22 78 24 103 24 310 -1 188 -4 235 -19 285 -10 33
-21 72 -23 88 -3 15 -9 30 -14 33 -5 3 -9 12 -9 19 0 39 -109 229 -175 305
-38 44 -101 107 -145 145 -71 62 -264 175 -299 175 -6 0 -19 4 -29 10 -9 5
-51 20 -92 31 -63 18 -107 22 -280 25 -113 1 -214 1 -225 -2z m485 -43 c41
-12 83 -26 92 -31 10 -6 23 -10 29 -10 35 0 228 -113 299 -175 44 -38 107
-101 145 -145 66 -76 175 -266 175 -305 0 -7 4 -16 9 -19 5 -3 11 -18 14 -33
2 -16 13 -55 23 -88 15 -49 18 -96 18 -265 1 -186 -2 -213 -23 -290 -13 -47
-28 -89 -32 -94 -5 -6 -9 -17 -9 -25 0 -33 -105 -218 -162 -287 -105 -126
-217 -218 -350 -287 -46 -24 -92 -47 -103 -50 -11 -4 -33 -12 -50 -18 -137
-47 -309 -65 -484 -49 -300 26 -600 192 -767 426 -24 34 -44 71 -44 83 0 32
39 26 75 -10 69 -71 123 -79 521 -79 l311 0 12 73 c7 39 17 88 22 108 19 75
44 69 -303 69 -310 0 -313 0 -338 23 -42 37 -50 69 -50 207 l0 130 280 0 280
0 4 23 c2 12 9 54 16 92 6 39 13 80 16 93 l4 22 -300 0 -300 0 0 180 0 180
338 2 337 3 3 25 c1 14 6 48 11 75 5 28 12 71 16 98 l6 47 -400 0 c-388 0
-401 1 -401 19 0 11 15 31 33 46 17 14 40 33 50 41 64 52 248 154 278 154 8 0
19 4 24 8 14 11 71 29 135 41 30 6 64 13 75 15 11 3 103 3 205 2 151 -3 199
-8 260 -25z"/>
</g>
</svg>
