<?xml version="1.0" standalone="no"?>
<!DOCTYPE svg PUBLIC "-//W3C//DTD SVG 20010904//EN"
 "http://www.w3.org/TR/2001/REC-SVG-20010904/DTD/svg10.dtd">
<svg version="1.0" xmlns="http://www.w3.org/2000/svg"
 width="192.000000pt" height="192.000000pt" viewBox="0 0 192.000000 192.000000"
 preserveAspectRatio="xMidYMid meet">
<metadata>
Created by potrace 1.16, written by Peter Selinger 2001-2019
</metadata>
<g transform="translate(0.000000,192.000000) scale(0.100000,-0.100000)"
fill="#000000" stroke="none">
<path d="M1020 1830 c-36 -12 -84 -19 -141 -19 -77 -1 -90 -4 -126 -28 -44
-30 -104 -97 -131 -147 -13 -24 -17 -55 -16 -138 l0 -108 39 -57 c22 -32 65
-84 96 -115 l58 -58 88 0 c49 0 99 6 113 13 34 17 66 86 86 187 9 47 20 89 25
95 22 23 -5 125 -32 125 -17 0 -1 70 26 111 13 20 40 44 60 53 34 16 36 20 33
59 l-3 42 -60 2 c-38 1 -80 -5 -115 -17z m158 -27 c2 -16 -5 -26 -33 -39 -51
-24 -85 -79 -92 -148 -4 -38 -2 -56 5 -56 6 0 19 -14 28 -31 12 -24 13 -37 5
-53 -6 -11 -18 -57 -26 -101 -19 -97 -51 -166 -85 -182 -14 -7 -56 -13 -93
-13 l-68 0 -58 58 c-31 31 -74 83 -95 114 -37 55 -39 60 -40 145 -1 65 3 96
16 119 27 50 87 117 130 146 36 25 49 27 122 26 58 0 98 5 141 20 78 28 139
25 143 -5z"/>
<path d="M160 1344 c-6 -14 -10 -41 -10 -60 0 -24 -5 -34 -15 -34 -9 0 -20
-11 -25 -25 -7 -18 -17 -25 -35 -25 -39 0 -75 -42 -75 -87 l0 -38 19 42 c20
43 45 63 81 63 13 0 24 9 30 25 5 14 16 25 25 25 10 0 15 10 15 34 0 49 16 86
37 86 12 0 28 -22 50 -68 37 -78 117 -172 167 -196 29 -14 54 -15 146 -10 133
8 145 2 156 -82 10 -80 -18 -129 -106 -185 -37 -24 -193 -53 -248 -46 -126 15
-277 93 -339 175 -32 43 -33 43 -33 16 0 -61 147 -162 286 -198 79 -20 146
-20 248 0 84 17 109 29 163 77 46 42 57 76 50 159 -9 107 -14 110 -167 106
-126 -3 -127 -3 -164 25 -52 40 -122 132 -148 195 -21 50 -23 52 -60 52 -32 0
-40 -4 -48 -26z"/>
<path d="M1370 1244 c-87 -17 -209 -73 -253 -117 -18 -18 -22 -33 -22 -88 0
-98 1 -99 164 -99 196 0 288 -29 324 -102 17 -34 20 -36 85 -42 76 -7 161 5
176 26 6 8 25 19 41 25 25 8 30 15 32 44 0 19 -1 24 -4 12 -3 -14 -17 -26 -41
-34 -20 -7 -42 -19 -48 -27 -14 -20 -89 -32 -152 -24 -47 6 -54 11 -70 42 -35
71 -128 100 -323 100 -157 0 -164 3 -164 79 0 54 18 76 97 120 105 57 148 66
328 66 l165 0 65 -32 c72 -35 98 -58 129 -118 20 -38 21 -39 21 -12 0 62 -49
115 -145 158 -44 20 -68 23 -215 25 -91 1 -176 0 -190 -2z"/>
<path d="M1100 713 c-35 -24 -40 -33 -40 -80 0 -37 5 -46 37 -70 63 -47 114
-106 141 -162 22 -46 24 -57 14 -85 -24 -67 -14 -101 36 -117 21 -6 72 -38
114 -70 74 -57 79 -59 138 -59 49 0 71 6 113 30 30 16 61 30 71 30 26 0 38 48
34 130 -4 62 -11 87 -38 138 -57 107 -162 199 -309 272 -114 57 -262 77 -311
43z m172 -19 c234 -60 450 -261 465 -432 6 -65 -9 -112 -33 -112 -10 0 -41
-14 -71 -30 -83 -47 -118 -43 -211 29 -42 32 -94 64 -114 71 -41 12 -55 38
-39 69 39 72 -28 201 -152 294 -51 39 -50 74 3 110 31 21 71 21 152 1z"/>
<path d="M713 662 c-17 -9 -50 -43 -73 -74 -89 -125 -258 -186 -355 -129 -20
11 -49 21 -66 21 -25 0 -29 -4 -29 -27 0 -16 9 -61 20 -102 11 -41 20 -90 20
-109 0 -24 9 -45 30 -69 16 -18 30 -38 30 -43 0 -6 10 -10 23 -10 13 0 27 -4
32 -9 13 -12 81 -22 196 -27 93 -5 98 -4 170 30 149 69 199 154 199 336 0 101
-21 188 -51 213 -27 22 -103 22 -146 -1z m126 -19 c46 -38 65 -204 37 -311
-25 -91 -77 -148 -185 -199 -70 -32 -79 -34 -150 -29 -101 6 -164 16 -176 27
-5 5 -19 9 -32 9 -13 0 -23 4 -23 10 0 5 -14 25 -30 43 -21 24 -30 45 -30 69
0 19 -9 69 -20 112 -12 43 -18 81 -15 84 3 3 24 -5 48 -18 32 -19 57 -24 107
-24 116 0 221 55 290 152 61 85 131 114 179 75z"/>
</g>
</svg>
