<?xml version="1.0" standalone="no"?>
<!DOCTYPE svg PUBLIC "-//W3C//DTD SVG 20010904//EN"
 "http://www.w3.org/TR/2001/REC-SVG-20010904/DTD/svg10.dtd">
<svg version="1.0" xmlns="http://www.w3.org/2000/svg"
 width="192.000000pt" height="192.000000pt" viewBox="0 0 192.000000 192.000000"
 preserveAspectRatio="xMidYMid meet">
<metadata>
Created by potrace 1.16, written by Peter Selinger 2001-2019
</metadata>
<g transform="translate(0.000000,192.000000) scale(0.100000,-0.100000)"
fill="#000000" stroke="none">
<path d="M625 1874 c-51 -133 -193 -343 -320 -469 -44 -45 -141 -118 -210
-159 -75 -45 -95 -60 -95 -75 0 -17 13 -13 51 15 19 14 50 34 71 44 44 24 162
113 203 154 128 130 269 337 320 470 19 51 20 51 110 36 72 -11 278 -35 430
-50 61 -6 215 -15 344 -20 128 -5 236 -12 240 -16 14 -14 -73 -76 -189 -136
-25 -13 -47 -25 -50 -28 -12 -12 -197 -97 -303 -139 -70 -28 -253 -91 -347
-118 -23 -7 -28 -11 -14 -12 11 -1 45 6 75 15 67 20 328 112 350 124 9 4 56
25 105 45 126 52 333 162 408 216 22 16 44 29 49 29 29 0 -37 -205 -80 -248
-7 -7 -13 -17 -13 -21 0 -12 -121 -131 -179 -176 l-52 -40 5 -165 c3 -91 9
-208 12 -261 l7 -96 -154 -6 c-167 -5 -218 -13 -384 -58 -231 -63 -377 -158
-441 -287 -15 -29 -31 -51 -37 -49 -10 3 -54 77 -129 217 -22 41 -51 94 -65
118 -25 42 -25 43 -7 64 11 11 39 34 64 49 77 49 40 36 -130 -45 -102 -48
-270 -146 -270 -158 0 -17 31 -7 83 26 29 19 88 52 131 75 l79 41 13 -35 c6
-19 16 -41 22 -48 5 -6 30 -50 55 -98 110 -205 122 -224 154 -227 27 -3 33 2
57 50 64 129 210 224 441 287 166 45 217 53 384 58 l154 6 -7 121 c-3 66 -9
184 -12 261 l-5 140 50 39 c28 21 63 52 78 67 16 16 31 29 35 29 11 0 28 -72
38 -158 27 -235 -73 -476 -264 -638 l-61 -52 -85 -3 c-104 -5 -177 -38 -246
-111 -55 -59 -74 -102 -74 -165 1 -89 15 -124 69 -174 61 -57 119 -74 229 -67
l76 5 46 50 c59 64 80 128 79 237 0 44 -4 90 -8 101 -6 16 0 25 37 48 49 31
48 30 122 102 129 125 251 381 249 521 l-1 59 -15 -70 c-55 -258 -209 -495
-390 -602 l-42 -24 15 -41 c19 -54 18 -144 -3 -208 -15 -48 -92 -150 -113
-150 -4 0 -12 17 -18 38 l-10 37 -1 -42 -1 -43 -46 0 c-84 0 -134 19 -190 74
-47 46 -53 56 -59 108 -5 35 -3 70 5 92 17 53 99 137 167 171 49 26 70 30 140
31 l82 1 63 54 c156 132 243 293 268 496 12 94 8 150 -17 285 l-17 88 30 37
c17 21 42 57 55 80 13 24 27 43 31 43 12 0 28 -38 48 -113 l19 -72 0 51 c1 56
-25 143 -44 150 -9 4 -10 15 -4 42 5 20 9 56 9 80 0 39 -2 42 -26 42 -14 0
-34 -5 -45 -10 -14 -8 -19 -7 -19 3 0 16 -97 27 -249 27 -145 0 -577 40 -766
70 -33 6 -76 10 -96 10 -34 0 -37 -3 -54 -46z"/>
<path d="M727 1372 c-34 -37 -15 -82 33 -82 32 0 50 17 50 46 0 13 7 24 18 27
11 3 7 5 -10 6 -15 0 -30 6 -33 11 -10 16 -40 12 -58 -8z m53 -22 c13 -8 13
-11 -2 -26 -14 -14 -20 -15 -33 -4 -12 10 -13 16 -4 26 13 16 19 17 39 4z"/>
<path d="M1150 1140 c-8 -5 -10 -10 -5 -10 6 0 17 5 25 10 8 5 11 10 5 10 -5
0 -17 -5 -25 -10z"/>
<path d="M1022 1092 c-50 -19 -90 -37 -88 -40 5 -4 76 19 133 44 17 8 36 14
41 14 6 0 14 5 17 10 9 14 2 12 -103 -28z"/>
<path d="M842 1028 c-29 -12 -51 -22 -49 -24 4 -5 127 36 127 42 0 8 -25 2
-78 -18z"/>
<path d="M733 990 c-35 -14 -27 -20 10 -8 17 6 34 13 36 14 8 7 -24 3 -46 -6z"/>
<path d="M530 910 c-9 -6 -10 -10 -3 -10 6 0 15 5 18 10 8 12 4 12 -15 0z"/>
<path d="M460 880 c-9 -6 -10 -10 -3 -10 6 0 15 5 18 10 8 12 4 12 -15 0z"/>
</g>
</svg>
