<?xml version="1.0" standalone="no"?>
<!DOCTYPE svg PUBLIC "-//W3C//DTD SVG 20010904//EN"
 "http://www.w3.org/TR/2001/REC-SVG-20010904/DTD/svg10.dtd">
<svg version="1.0" xmlns="http://www.w3.org/2000/svg"
 width="192.000000pt" height="192.000000pt" viewBox="0 0 192.000000 192.000000"
 preserveAspectRatio="xMidYMid meet">
<metadata>
Created by potrace 1.16, written by Peter Selinger 2001-2019
</metadata>
<g transform="translate(0.000000,192.000000) scale(0.100000,-0.100000)"
fill="#000000" stroke="none">
<path d="M932 1855 c-7 -8 -15 -28 -18 -45 -4 -16 -10 -30 -15 -30 -5 0 -9 -7
-9 -15 0 -8 -4 -15 -10 -15 -5 0 -10 -7 -10 -16 0 -9 -8 -24 -18 -33 -11 -9
-22 -29 -26 -45 -4 -16 -20 -41 -37 -57 -16 -15 -29 -33 -29 -41 0 -7 -9 -20
-20 -28 -11 -8 -20 -20 -20 -27 0 -7 -11 -23 -25 -37 -14 -14 -25 -28 -25 -32
0 -3 -13 -19 -30 -34 -16 -15 -30 -35 -30 -43 0 -8 -7 -17 -15 -21 -8 -3 -15
-13 -15 -22 0 -9 -13 -29 -30 -44 -16 -15 -30 -35 -30 -43 0 -8 -7 -17 -15
-21 -8 -3 -15 -15 -15 -26 0 -11 -4 -20 -10 -20 -5 0 -10 -8 -10 -18 0 -10 -9
-24 -20 -32 -11 -8 -20 -20 -20 -27 0 -7 -4 -13 -9 -13 -6 0 -13 -20 -17 -45
-3 -25 -10 -45 -15 -45 -5 0 -9 -13 -9 -30 0 -16 -4 -30 -10 -30 -5 0 -10 -16
-10 -35 0 -19 -4 -35 -10 -35 -6 0 -10 -58 -10 -155 0 -97 4 -155 10 -155 6 0
10 -11 10 -25 0 -14 5 -25 10 -25 6 0 10 -13 10 -30 0 -16 4 -30 9 -30 5 0 13
-15 17 -32 3 -18 15 -40 25 -49 11 -9 19 -21 19 -27 0 -16 146 -162 162 -162
7 0 20 -9 28 -20 8 -11 22 -20 32 -20 10 0 18 -4 18 -10 0 -5 6 -10 14 -10 8
0 16 -6 18 -12 4 -10 54 -13 208 -13 154 0 204 3 207 13 3 6 13 12 24 12 10 0
19 5 19 10 0 6 7 10 15 10 8 0 15 5 15 10 0 6 7 10 16 10 8 0 22 7 30 15 9 8
23 15 33 15 9 0 23 10 31 21 23 33 79 89 90 89 6 0 10 9 10 19 0 11 7 26 15
35 8 8 15 21 15 28 0 8 9 20 20 28 11 8 20 20 20 27 0 7 4 13 9 13 4 0 11 19
14 42 3 24 11 44 16 46 6 2 11 19 11 38 0 19 5 34 10 34 6 0 10 62 10 165 0
103 -4 165 -10 165 -5 0 -10 14 -10 30 0 17 -4 30 -9 30 -5 0 -12 20 -15 45
-4 25 -11 45 -17 45 -5 0 -9 7 -9 15 0 8 -4 15 -10 15 -5 0 -10 8 -10 18 0 10
-9 24 -20 32 -11 8 -20 22 -20 31 0 9 -11 25 -25 35 -14 10 -25 25 -25 32 0 7
-11 24 -25 38 -14 14 -25 29 -25 34 0 6 -19 10 -42 11 -24 0 -37 3 -30 6 15 6
17 113 2 113 -5 0 -10 20 -10 45 0 25 -4 45 -10 45 -5 0 -10 7 -10 15 0 17
-10 31 -47 68 -42 42 -52 47 -93 47 l-40 0 0 75 c0 43 -4 75 -10 75 -5 0 -10
11 -10 25 0 23 -4 25 -42 25 -25 -1 -49 -7 -56 -15z m78 -30 c0 -14 5 -25 10
-25 6 0 10 -40 10 -100 0 -60 -4 -100 -10 -100 -5 0 -10 -11 -10 -25 0 -14 -4
-25 -9 -25 -5 0 -12 -25 -16 -55 -3 -30 -11 -55 -16 -55 -5 0 -9 -9 -9 -20 0
-11 -4 -20 -10 -20 -5 0 -10 -9 -10 -20 0 -11 -4 -20 -10 -20 -5 0 -10 -5 -10
-11 0 -6 -7 -17 -15 -25 -8 -9 -15 -24 -15 -34 0 -10 -9 -22 -20 -25 -11 -3
-20 -14 -20 -23 0 -10 -9 -24 -20 -32 -11 -8 -20 -19 -20 -25 0 -6 -9 -17 -20
-25 -11 -8 -20 -22 -20 -32 0 -10 -4 -18 -10 -18 -5 0 -13 -12 -16 -27 -4 -16
-15 -35 -26 -44 -10 -9 -18 -21 -18 -28 0 -6 -4 -11 -10 -11 -5 0 -10 -9 -10
-19 0 -11 -5 -21 -11 -23 -5 -2 -13 -22 -16 -46 -3 -23 -10 -42 -14 -42 -5 0
-9 -16 -9 -35 0 -19 -4 -35 -10 -35 -6 0 -10 -30 -10 -70 0 -40 4 -70 10 -70
6 0 10 -16 10 -35 0 -19 4 -35 9 -35 5 0 12 -20 15 -45 4 -25 11 -45 17 -45 5
0 9 -9 9 -19 0 -11 9 -23 20 -26 11 -3 20 -13 20 -21 0 -9 6 -21 13 -28 6 -8
19 -23 27 -35 8 -11 22 -21 32 -21 10 0 18 -4 18 -9 0 -6 20 -13 45 -17 25 -3
45 -10 45 -15 0 -5 18 -9 40 -9 22 0 40 4 40 9 0 5 24 12 52 16 32 5 59 15 69
26 9 11 23 19 30 19 8 0 21 10 29 21 22 33 60 69 70 69 6 0 10 9 10 20 0 11 4
20 9 20 6 0 13 20 17 45 3 25 10 45 15 45 5 0 9 43 9 95 0 128 -6 128 -135 -7
-19 -21 -35 -44 -35 -52 0 -8 -9 -17 -19 -21 -13 -4 -22 -19 -26 -45 -4 -22
-11 -40 -16 -40 -5 0 -9 -7 -9 -15 0 -8 -4 -15 -10 -15 -5 0 -10 -9 -10 -20 0
-11 -4 -20 -10 -20 -5 0 -10 -9 -10 -21 0 -26 -23 -49 -49 -49 -20 0 -21 5
-21 135 0 83 4 135 10 135 6 0 10 16 10 35 0 19 5 35 10 35 6 0 10 7 10 15 0
8 5 15 10 15 6 0 10 9 10 20 0 11 5 20 10 20 6 0 10 9 10 19 0 11 7 26 15 35
8 8 15 22 15 30 0 9 4 16 9 16 16 0 108 95 115 118 4 12 12 22 17 22 5 0 9 9
9 20 0 11 5 20 10 20 6 0 10 11 10 25 0 14 5 25 10 25 6 0 10 16 10 35 0 19 5
35 10 35 6 0 10 27 10 60 0 57 1 60 25 60 14 0 25 -4 25 -10 0 -5 11 -20 25
-34 14 -14 25 -31 25 -38 0 -7 11 -22 25 -32 14 -10 25 -26 25 -35 0 -9 9 -23
20 -31 11 -8 20 -22 20 -32 0 -10 5 -18 10 -18 6 0 10 -7 10 -15 0 -8 4 -15 9
-15 6 0 13 -20 17 -45 3 -25 10 -45 15 -45 5 0 9 -13 9 -30 0 -16 5 -30 10
-30 6 0 10 -55 10 -145 0 -90 -4 -145 -10 -145 -5 0 -10 -15 -10 -34 0 -19 -5
-36 -11 -38 -5 -2 -13 -22 -16 -46 -3 -23 -10 -42 -14 -42 -5 0 -9 -6 -9 -13
0 -7 -9 -19 -20 -27 -11 -8 -20 -20 -20 -28 0 -7 -7 -20 -15 -28 -8 -9 -15
-24 -15 -35 0 -10 -4 -19 -10 -19 -11 0 -67 -56 -90 -89 -8 -11 -22 -21 -31
-21 -10 0 -24 -7 -33 -15 -8 -8 -22 -15 -30 -15 -9 0 -16 -4 -16 -10 0 -5 -7
-10 -15 -10 -8 0 -15 -4 -15 -10 0 -5 -9 -10 -19 -10 -11 0 -21 -6 -24 -12 -3
-10 -49 -13 -187 -13 -138 0 -184 3 -188 13 -2 6 -10 12 -18 12 -8 0 -14 5
-14 10 0 6 -8 10 -18 10 -10 0 -24 9 -32 20 -8 11 -21 20 -28 20 -16 0 -162
146 -162 162 0 6 -8 18 -19 27 -10 9 -22 31 -25 49 -4 17 -12 32 -17 32 -5 0
-9 14 -9 30 0 17 -4 30 -10 30 -5 0 -10 11 -10 25 0 14 -4 25 -10 25 -6 0 -10
52 -10 135 0 83 4 135 10 135 6 0 10 16 10 35 0 19 5 35 10 35 6 0 10 14 10
30 0 17 4 30 9 30 5 0 12 20 15 45 4 25 11 45 17 45 5 0 9 6 9 13 0 7 9 19 20
27 11 8 20 22 20 32 0 10 5 18 10 18 6 0 10 9 10 20 0 11 7 23 15 26 8 4 15
13 15 21 0 8 14 28 30 43 17 15 30 35 30 44 0 9 7 19 15 22 8 4 15 13 15 21 0
8 14 28 30 43 17 15 30 31 30 34 0 4 11 18 25 32 14 14 25 30 25 37 0 7 9 19
20 27 11 8 20 21 20 28 0 8 13 26 29 41 17 16 33 41 37 57 4 16 15 36 26 45
10 9 18 24 18 33 0 9 5 16 10 16 6 0 10 7 10 15 0 8 4 15 9 15 5 0 11 14 15
30 7 39 25 59 54 60 17 0 22 -6 22 -25z m116 -187 c50 -42 84 -83 84 -103 0
-8 5 -15 10 -15 6 0 10 -20 10 -45 0 -25 5 -45 10 -45 6 0 10 -16 10 -35 0
-19 -4 -35 -10 -35 -5 0 -10 -20 -10 -45 0 -25 -4 -45 -10 -45 -5 0 -10 -11
-10 -25 0 -14 -4 -25 -9 -25 -5 0 -12 -20 -15 -45 -4 -25 -11 -45 -17 -45 -5
0 -9 -9 -9 -20 0 -11 -4 -20 -10 -20 -5 0 -10 -8 -10 -18 0 -10 -9 -24 -20
-32 -11 -8 -20 -20 -20 -27 0 -7 -4 -13 -9 -13 -5 0 -12 -15 -15 -33 -3 -18
-15 -39 -26 -47 -11 -8 -20 -22 -20 -32 0 -10 -4 -18 -10 -18 -5 0 -10 -5 -10
-11 0 -6 -7 -17 -15 -25 -8 -9 -15 -24 -15 -35 0 -10 -4 -19 -10 -19 -5 0 -10
-9 -10 -20 0 -11 -4 -20 -10 -20 -5 0 -10 -7 -10 -15 0 -8 -4 -15 -10 -15 -5
0 -10 -13 -10 -29 0 -16 -5 -31 -10 -33 -6 -2 -14 -30 -17 -63 -3 -33 -11 -63
-17 -67 -8 -6 -8 -10 0 -15 6 -5 14 -29 17 -55 7 -48 7 -48 -23 -48 -17 0 -30
5 -30 10 0 6 -9 10 -20 10 -19 0 -90 62 -90 80 0 5 -9 12 -20 15 -11 3 -20 15
-20 26 0 10 -4 19 -10 19 -6 0 -10 42 -10 105 0 63 4 105 10 105 6 0 10 14 10
30 0 17 5 30 10 30 6 0 10 14 10 30 0 17 4 30 9 30 5 0 12 11 15 25 4 14 11
25 16 25 6 0 10 9 10 20 0 11 5 20 10 20 6 0 10 7 10 15 0 8 5 15 10 15 6 0
10 7 10 16 0 9 8 24 19 33 10 9 21 26 25 39 4 12 12 22 17 22 5 0 9 8 9 18 0
10 9 24 20 32 11 8 20 20 20 27 0 7 5 13 10 13 6 0 10 9 10 19 0 11 7 26 15
35 8 8 15 22 15 30 0 9 5 16 10 16 6 0 10 7 10 15 0 8 5 15 10 15 6 0 10 9 10
20 0 11 4 20 10 20 5 0 12 16 16 35 3 19 10 35 15 35 5 0 9 11 9 25 0 14 5 25
10 25 6 0 10 32 10 75 0 69 2 75 20 75 12 0 28 -6 36 -12z m-76 -88 c0 -16 -4
-30 -10 -30 -5 0 -10 -11 -10 -25 0 -14 -4 -25 -9 -25 -5 0 -11 -8 -14 -17 -2
-10 -2 2 1 27 3 25 9 47 13 48 5 2 9 15 9 28 0 13 5 24 10 24 6 0 10 -13 10
-30z m-50 -140 c0 -5 -4 -10 -10 -10 -5 0 -10 5 -10 10 0 6 5 10 10 10 6 0 10
-4 10 -10z m-20 -40 c0 -5 -4 -10 -10 -10 -5 0 -10 5 -10 10 0 6 5 10 10 10 6
0 10 -4 10 -10z m-40 -66 c0 -3 -7 -12 -15 -20 -16 -17 -18 -14 -9 10 6 15 24
23 24 10z m-30 -64 c0 -5 -4 -10 -10 -10 -5 0 -10 -6 -10 -13 0 -7 -9 -19 -20
-27 -11 -8 -20 -22 -20 -32 0 -10 -4 -18 -9 -18 -5 0 -13 -10 -17 -22 -4 -13
-15 -30 -25 -39 -11 -9 -19 -24 -19 -33 0 -9 -4 -16 -10 -16 -5 0 -10 -7 -10
-15 0 -8 -4 -15 -10 -15 -5 0 -10 -9 -10 -20 0 -11 -4 -20 -10 -20 -5 0 -12
-11 -16 -25 -3 -14 -10 -25 -15 -25 -5 0 -9 -13 -9 -30 0 -16 -4 -30 -10 -30
-5 0 -10 -13 -10 -30 0 -16 -4 -30 -10 -30 -5 0 -10 14 -10 30 0 17 4 30 9 30
4 0 11 19 14 42 3 24 11 44 16 46 6 2 11 12 11 23 0 10 5 19 10 19 6 0 10 5
10 11 0 7 8 19 18 28 11 9 22 28 26 44 3 15 11 27 16 27 6 0 10 8 10 18 0 10
9 24 20 32 11 8 20 19 20 25 0 6 9 17 20 25 11 8 20 22 20 31 0 16 12 26 33
28 4 1 7 -3 7 -9z m327 -22 c-3 -7 -5 -2 -5 12 0 14 2 19 5 13 2 -7 2 -19 0
-25z m-17 -48 c0 -16 -4 -30 -8 -30 -5 0 -7 14 -4 30 2 17 6 30 8 30 2 0 4
-13 4 -30z m-20 -70 c0 -5 -4 -10 -10 -10 -5 0 -10 5 -10 10 0 6 5 10 10 10 6
0 10 -4 10 -10z m-20 -40 c0 -5 -4 -10 -10 -10 -5 0 -10 5 -10 10 0 6 5 10 10
10 6 0 10 -4 10 -10z m-44 -66 c-9 -8 -16 -11 -16 -4 0 15 24 40 28 29 2 -5
-4 -16 -12 -25z m-486 -264 c0 -27 -4 -50 -10 -50 -5 0 -10 23 -10 50 0 28 5
50 10 50 6 0 10 -22 10 -50z m620 -55 c0 -36 -4 -65 -9 -65 -5 0 -12 -20 -15
-45 -4 -25 -11 -45 -17 -45 -5 0 -9 -9 -9 -20 0 -11 -4 -20 -10 -20 -10 0 -48
-36 -70 -69 -8 -11 -21 -21 -29 -21 -7 0 -21 -8 -30 -19 -10 -11 -37 -21 -69
-26 -28 -4 -52 -11 -52 -16 0 -5 -9 -9 -20 -9 -11 0 -20 4 -20 9 0 5 -20 12
-45 15 -25 4 -45 11 -45 17 0 5 -7 9 -16 9 -14 0 -44 22 -44 33 0 2 11 2 25
-1 14 -2 25 -8 25 -13 0 -5 23 -9 50 -9 28 0 50 -4 50 -10 0 -15 80 -12 96 4
8 8 14 24 14 35 0 12 5 21 10 21 6 0 10 9 10 20 0 11 5 20 10 20 6 0 10 7 10
15 0 8 4 15 9 15 5 0 12 18 16 40 4 26 13 41 26 45 10 4 19 13 19 21 0 8 15
30 33 49 17 19 38 40 44 47 24 25 38 37 46 38 4 0 7 -29 7 -65z m-353 -192
c-2 -21 -4 -4 -4 37 0 41 2 58 4 38 2 -21 2 -55 0 -75z"/>
</g>
</svg>
