<?xml version="1.0" standalone="no"?>
<!DOCTYPE svg PUBLIC "-//W3C//DTD SVG 20010904//EN"
 "http://www.w3.org/TR/2001/REC-SVG-20010904/DTD/svg10.dtd">
<svg version="1.0" xmlns="http://www.w3.org/2000/svg"
 width="120.000000pt" height="120.000000pt" viewBox="0 0 120.000000 120.000000"
 preserveAspectRatio="xMidYMid meet">
<metadata>
Created by potrace 1.16, written by Peter Selinger 2001-2019
</metadata>
<g transform="translate(0.000000,120.000000) scale(0.100000,-0.100000)"
fill="#000000" stroke="none">
<path d="M270 595 l0 -265 335 0 335 0 0 105 0 105 -192 2 c-106 1 -149 4 -95
5 l97 4 0 49 0 50 95 0 95 0 0 105 0 105 -335 0 -335 0 0 -265z m650 160 l0
-85 -95 0 -95 0 0 -50 0 -50 -95 0 c-95 0 -95 0 -95 -25 l0 -25 190 0 190 0 0
-85 0 -85 -315 0 -315 0 0 245 0 245 315 0 315 0 0 -85z"/>
</g>
</svg>
