<?xml version="1.0" standalone="no"?>
<!DOCTYPE svg PUBLIC "-//W3C//DTD SVG 20010904//EN"
 "http://www.w3.org/TR/2001/REC-SVG-20010904/DTD/svg10.dtd">
<svg version="1.0" xmlns="http://www.w3.org/2000/svg"
 width="100.000000pt" height="100.000000pt" viewBox="0 0 100.000000 100.000000"
 preserveAspectRatio="xMidYMid meet">
<metadata>
Created by potrace 1.16, written by Peter Selinger 2001-2019
</metadata>
<g transform="translate(0.000000,100.000000) scale(0.100000,-0.100000)"
fill="#000000" stroke="none">
<path d="M440 790 c0 -11 5 -20 10 -20 6 0 10 5 10 10 0 6 18 10 40 10 22 0
40 -4 40 -10 0 -5 5 -10 10 -10 6 0 10 9 10 20 0 18 -7 20 -60 20 -53 0 -60
-2 -60 -20z"/>
<path d="M250 720 c0 -26 4 -30 28 -30 26 1 26 1 8 15 -20 15 -20 15 0 30 18
14 18 14 -8 15 -24 0 -28 -4 -28 -30z"/>
<path d="M310 720 l0 -30 190 0 190 0 0 30 0 30 -190 0 -190 0 0 -30z m60 0
c0 -5 -9 -10 -20 -10 -11 0 -20 5 -20 10 0 6 9 10 20 10 11 0 20 -4 20 -10z
m230 0 c0 -6 -42 -10 -105 -10 -63 0 -105 4 -105 10 0 6 42 10 105 10 63 0
105 -4 105 -10z m70 0 c0 -5 -11 -10 -25 -10 -14 0 -25 5 -25 10 0 6 11 10 25
10 14 0 25 -4 25 -10z"/>
<path d="M714 735 c20 -15 20 -15 0 -30 -18 -14 -18 -14 9 -15 23 0 27 4 27
30 0 26 -4 30 -27 30 -27 -1 -27 -1 -9 -15z"/>
<path d="M310 619 c0 -5 5 -7 10 -4 6 3 10 8 10 11 0 2 -4 4 -10 4 -5 0 -10
-5 -10 -11z"/>
<path d="M370 599 c0 -17 4 -28 10 -24 6 3 10 12 10 19 0 8 11 16 25 18 22 5
25 2 25 -23 0 -29 0 -29 -65 -29 l-65 0 0 -125 0 -125 30 0 c27 0 30 -3 30
-30 l0 -30 160 0 160 0 0 30 0 30 -125 0 -125 0 0 35 0 35 125 0 125 0 0 28
c-1 24 -2 25 -14 10 -18 -24 -156 -27 -156 -4 0 10 14 16 43 19 l42 4 -42 1
c-36 2 -43 5 -43 22 0 15 7 20 28 20 15 0 34 5 42 10 13 8 13 10 -2 10 -11 0
-15 6 -11 20 3 11 0 20 -6 20 -6 0 -11 -9 -11 -20 0 -16 -7 -20 -30 -20 -23 0
-30 4 -30 20 0 24 -6 25 -26 6 -19 -20 -18 -26 6 -26 18 0 20 -7 20 -55 0 -56
-4 -62 -30 -45 -13 9 -13 11 0 21 11 8 12 12 3 16 -7 2 -13 13 -13 24 0 10 -4
19 -10 19 -5 0 -10 -22 -10 -50 l0 -50 -35 0 -35 0 0 60 0 60 35 0 c32 0 35 2
35 30 l0 30 90 0 90 0 0 -60 0 -60 65 0 65 0 0 30 c0 25 -4 30 -25 30 -14 0
-25 -4 -25 -10 0 -5 7 -10 15 -10 8 0 15 -4 15 -10 0 -5 -9 -10 -20 -10 -17 0
-20 7 -20 50 l0 50 -35 0 c-33 0 -35 2 -35 35 l0 35 -125 0 -125 0 0 -31z
m130 -4 c0 -8 -9 -15 -20 -15 -11 0 -20 7 -20 15 0 8 9 15 20 15 11 0 20 -7
20 -15z m40 0 c0 -8 -4 -15 -10 -15 -5 0 -10 7 -10 15 0 8 5 15 10 15 6 0 10
-7 10 -15z m60 1 c0 -7 -9 -16 -20 -19 -15 -4 -20 0 -20 14 0 12 7 19 20 19
11 0 20 -6 20 -14z m-250 -76 c0 -11 -4 -20 -10 -20 -5 0 -10 9 -10 20 0 11 5
20 10 20 6 0 10 -9 10 -20z m70 10 c0 -5 -11 -10 -25 -10 -14 0 -25 5 -25 10
0 6 11 10 25 10 14 0 25 -4 25 -10z m250 0 c0 -5 -7 -10 -15 -10 -8 0 -15 5
-15 10 0 6 7 10 15 10 8 0 15 -4 15 -10z m0 -50 c0 -11 -7 -20 -15 -20 -8 0
-15 9 -15 20 0 11 7 20 15 20 8 0 15 -9 15 -20z m-320 -10 c0 -11 -4 -20 -10
-20 -5 0 -10 9 -10 20 0 11 5 20 10 20 6 0 10 -9 10 -20z m0 -60 c0 -16 -4
-30 -10 -30 -5 0 -10 14 -10 30 0 17 5 30 10 30 6 0 10 -13 10 -30z m0 -60 c0
-11 -4 -20 -10 -20 -5 0 -10 9 -10 20 0 11 5 20 10 20 6 0 10 -9 10 -20z m73
-16 c4 -21 0 -24 -24 -24 -25 0 -29 4 -29 29 0 24 3 28 24 24 16 -3 26 -13 29
-29z m17 -49 c0 -9 -9 -15 -25 -15 -31 0 -33 17 -2 23 12 2 23 5 25 6 1 0 2
-6 2 -14z m230 -5 c0 -6 -42 -10 -105 -10 -63 0 -105 4 -105 10 0 6 42 10 105
10 63 0 105 -4 105 -10z"/>
<path d="M635 620 c3 -5 13 -10 21 -10 8 0 14 -7 14 -15 0 -8 5 -15 10 -15 6
0 10 11 10 25 0 21 -5 25 -31 25 -17 0 -28 -4 -24 -10z"/>
<path d="M250 540 c0 -24 6 -25 26 -6 19 20 18 26 -6 26 -13 0 -20 -7 -20 -20z"/>
<path d="M710 555 c0 -3 9 -15 20 -27 l20 -22 0 27 c0 20 -5 27 -20 27 -11 0
-20 -2 -20 -5z"/>
<path d="M250 440 c0 -59 1 -60 28 -60 26 1 26 1 7 16 -17 13 -18 16 -5 25 11
8 12 12 3 16 -19 7 -16 34 5 49 15 12 14 13 -10 14 -27 0 -28 -1 -28 -60z"/>
<path d="M721 405 l-23 -25 26 0 c21 0 26 5 26 25 0 30 1 30 -29 0z"/>
<path d="M250 341 c0 -24 4 -31 20 -31 11 0 20 5 20 10 0 6 -4 10 -10 10 -5 0
-10 6 -10 14 0 8 -4 18 -10 21 -6 4 -10 -7 -10 -24z"/>
<path d="M480 345 c0 -8 5 -15 10 -15 6 0 10 7 10 15 0 8 -4 15 -10 15 -5 0
-10 -7 -10 -15z"/>
<path d="M714 295 c20 -15 20 -15 0 -30 -18 -14 -18 -14 9 -15 23 0 27 4 27
30 0 26 -4 30 -27 30 -27 -1 -27 -1 -9 -15z"/>
<path d="M310 270 c0 -15 7 -20 27 -20 l27 0 -22 20 c-12 11 -24 20 -27 20 -3
0 -5 -9 -5 -20z"/>
<path d="M500 210 c0 -16 7 -20 30 -20 23 0 30 4 30 20 0 22 -15 27 -24 8 -5
-10 -7 -10 -12 0 -9 19 -24 14 -24 -8z"/>
<path d="M440 200 c0 -5 5 -10 11 -10 5 0 7 5 4 10 -3 6 -8 10 -11 10 -2 0 -4
-4 -4 -10z"/>
<path d="M605 200 c-3 -5 -1 -10 4 -10 6 0 11 5 11 10 0 6 -2 10 -4 10 -3 0
-8 -4 -11 -10z"/>
</g>
</svg>
