<?xml version="1.0" standalone="no"?>
<!DOCTYPE svg PUBLIC "-//W3C//DTD SVG 20010904//EN"
 "http://www.w3.org/TR/2001/REC-SVG-20010904/DTD/svg10.dtd">
<svg version="1.0" xmlns="http://www.w3.org/2000/svg"
 width="180.000000pt" height="180.000000pt" viewBox="0 0 180.000000 180.000000"
 preserveAspectRatio="xMidYMid meet">
<metadata>
Created by potrace 1.16, written by Peter Selinger 2001-2019
</metadata>
<g transform="translate(0.000000,180.000000) scale(0.100000,-0.100000)"
fill="#000000" stroke="none">
<path d="M710 1515 c-78 -17 -167 -49 -235 -83 -59 -29 -185 -115 -210 -142
-18 -19 -17 -20 8 -20 17 0 27 5 27 14 0 16 78 66 178 116 l61 30 363 0 363 0
69 -35 c85 -44 176 -104 176 -116 0 -5 7 -9 15 -9 29 0 14 20 -52 71 -82 61
-221 130 -323 160 -98 28 -342 36 -440 14z m268 -22 c-43 -2 -113 -2 -155 0
-43 1 -8 3 77 3 85 0 120 -2 78 -3z m166 -21 c3 -5 -107 -8 -244 -8 -137 0
-247 3 -244 8 3 4 113 8 244 8 131 0 241 -4 244 -8z m-71 -29 c-95 -2 -251 -2
-345 0 -95 1 -18 3 172 3 190 0 267 -2 173 -3z"/>
<path d="M836 1278 c3 -5 10 -6 15 -3 13 9 11 12 -6 12 -8 0 -12 -4 -9 -9z"/>
<path d="M822 1150 c-148 -21 -267 -74 -349 -156 -71 -71 -104 -144 -110 -249
-6 -94 15 -164 72 -238 134 -175 512 -251 839 -167 125 32 160 61 141 119 -9
30 -48 36 -140 23 -111 -16 -305 -15 -390 3 -103 21 -212 80 -250 133 -27 40
-30 51 -30 122 0 71 3 82 30 121 36 51 76 80 153 110 47 19 77 23 167 22 120
0 172 -13 232 -59 28 -21 34 -32 31 -57 -4 -41 -20 -45 -222 -53 -149 -6 -161
-8 -183 -30 -28 -28 -29 -54 -4 -85 19 -24 20 -24 282 -27 186 -2 271 0 291 9
44 18 61 61 55 135 -11 144 -128 263 -303 308 -75 19 -230 27 -312 16z m270
-34 c187 -40 320 -169 320 -309 0 -40 -5 -54 -26 -76 l-27 -26 -247 3 c-136 2
-254 5 -264 8 -19 6 -30 28 -22 48 10 25 64 36 183 37 197 1 241 15 241 80 0
39 -41 82 -102 110 -48 22 -67 24 -193 24 -169 -1 -228 -19 -305 -94 -111
-107 -103 -286 17 -377 112 -86 360 -125 580 -92 109 16 124 15 136 -4 26 -39
-48 -73 -223 -104 -111 -19 -297 -14 -398 11 -199 48 -349 175 -371 314 -34
216 137 405 407 451 77 13 222 11 294 -4z"/>
</g>
</svg>
