<?xml version="1.0" standalone="no"?>
<!DOCTYPE svg PUBLIC "-//W3C//DTD SVG 20010904//EN"
 "http://www.w3.org/TR/2001/REC-SVG-20010904/DTD/svg10.dtd">
<svg version="1.0" xmlns="http://www.w3.org/2000/svg"
 width="106.000000pt" height="107.000000pt" viewBox="0 0 106.000000 107.000000"
 preserveAspectRatio="xMidYMid meet">
<metadata>
Created by potrace 1.16, written by Peter Selinger 2001-2019
</metadata>
<g transform="translate(0.000000,107.000000) scale(0.100000,-0.100000)"
fill="#000000" stroke="none">
<path d="M210 1050 c-100 -35 -210 -93 -210 -111 0 -13 14 -9 75 23 88 46 166
75 255 93 l65 13 -65 0 c-38 0 -87 -7 -120 -18z"/>
<path d="M729 1055 c100 -22 159 -44 249 -91 66 -34 83 -40 80 -26 -8 43 -237
133 -336 131 l-57 -1 64 -13z"/>
<path d="M350 980 c-149 -15 -350 -61 -350 -81 0 -13 9 -12 113 15 140 37 245
49 417 49 172 0 265 -11 418 -49 97 -24 136 -25 102 -4 -20 13 -169 47 -256
59 -107 16 -337 21 -444 11z"/>
<path d="M444 830 c-189 -26 -325 -110 -390 -237 -28 -55 -29 -64 -29 -188 0
-127 1 -131 31 -185 41 -73 127 -142 229 -182 l80 -33 219 -3 c239 -4 335 9
400 53 27 18 31 27 34 74 5 77 -5 84 -103 77 -240 -17 -301 -18 -371 -3 -135
29 -230 95 -255 176 -46 153 173 297 372 247 35 -9 78 -28 97 -43 32 -24 33
-27 18 -39 -11 -7 -76 -15 -173 -19 -182 -9 -193 -14 -193 -92 0 -92 5 -93
315 -93 l257 0 29 29 c27 28 29 34 29 114 0 74 -4 91 -31 145 -46 94 -129 155
-252 188 -67 18 -234 25 -313 14z m286 -32 c174 -41 290 -167 290 -315 0 -58
-3 -68 -29 -94 l-29 -29 -237 0 c-274 0 -294 5 -295 73 0 56 22 64 194 72 125
6 161 11 178 24 17 14 19 21 9 38 -32 60 -151 99 -270 89 -167 -14 -280 -109
-281 -235 0 -100 73 -179 205 -223 60 -20 91 -23 215 -23 80 0 179 4 220 9 87
10 104 0 98 -55 -4 -42 -37 -65 -129 -91 -94 -26 -326 -36 -425 -19 -166 29
-308 115 -368 221 -29 52 -31 61 -31 165 0 102 2 114 29 168 82 162 289 256
531 241 44 -3 100 -10 125 -16z"/>
</g>
</svg>
