<?xml version="1.0" standalone="no"?>
<!DOCTYPE svg PUBLIC "-//W3C//DTD SVG 20010904//EN"
 "http://www.w3.org/TR/2001/REC-SVG-20010904/DTD/svg10.dtd">
<svg version="1.0" xmlns="http://www.w3.org/2000/svg"
 width="192.000000pt" height="192.000000pt" viewBox="0 0 192.000000 192.000000"
 preserveAspectRatio="xMidYMid meet">
<metadata>
Created by potrace 1.16, written by Peter Selinger 2001-2019
</metadata>
<g transform="translate(0.000000,192.000000) scale(0.100000,-0.100000)"
fill="#000000" stroke="none">
<path d="M685 1913 c-127 -28 -294 -110 -422 -206 -43 -32 -53 -45 -53 -69 0
-29 1 -30 38 -25 20 3 80 20 132 39 380 135 913 128 1279 -17 36 -14 77 -25
93 -25 24 0 28 4 28 28 0 32 -23 52 -152 134 -138 88 -306 148 -408 147 l-55
-1 65 -13 c147 -32 279 -87 403 -168 152 -100 166 -127 40 -79 -379 144 -925
150 -1313 14 -52 -18 -103 -35 -113 -39 -33 -11 -16 15 36 54 156 117 345 200
517 226 14 3 -2 4 -35 4 -33 1 -69 -1 -80 -4z"/>
<path d="M885 1544 c-68 -6 -218 -32 -285 -51 -75 -20 -100 -31 -211 -86 -160
-80 -284 -210 -351 -366 -28 -67 -32 -88 -34 -181 -2 -103 -2 -103 6 -30 25
239 172 444 399 557 142 71 189 87 356 119 126 24 408 24 525 0 209 -43 351
-114 466 -232 81 -82 142 -207 158 -319 2 -16 3 4 2 45 -1 54 -9 89 -25 125
-97 208 -288 341 -574 399 -77 16 -335 28 -432 20z"/>
<path d="M886 1214 c-201 -40 -336 -130 -407 -272 -32 -63 -34 -73 -34 -172 0
-97 2 -109 28 -156 85 -153 253 -248 522 -295 155 -27 415 -26 585 2 188 31
198 32 230 19 37 -15 70 -67 70 -110 0 -39 -38 -93 -80 -115 -66 -34 -268 -85
-435 -109 -16 -3 15 -3 70 -1 122 5 302 47 385 90 16 8 40 30 54 48 51 67 26
188 -43 217 -36 14 -102 10 -271 -18 -167 -28 -392 -29 -545 -3 -269 47 -437
142 -522 295 -25 45 -28 61 -28 136 0 77 3 92 34 152 72 145 207 233 416 273
101 19 167 19 280 -1 111 -19 219 -67 263 -118 37 -43 39 -56 12 -81 -24 -21
-118 -31 -426 -43 -198 -8 -212 -9 -243 -32 -85 -60 -80 -203 9 -255 34 -19
50 -20 515 -20 466 0 481 1 515 21 56 32 80 77 79 143 -1 54 -2 55 -8 16 -9
-47 -31 -93 -59 -118 -48 -44 -76 -46 -512 -46 -228 0 -435 4 -459 8 -56 11
-93 39 -110 85 -20 51 -2 107 45 142 30 23 47 28 112 31 299 12 518 26 538 33
13 5 30 21 40 35 14 21 14 30 5 54 -56 133 -369 216 -625 165z"/>
<path d="M4 629 c2 -89 5 -103 39 -170 75 -152 181 -254 352 -338 141 -70 286
-111 405 -116 52 -2 82 -1 65 1 -252 41 -458 118 -597 223 -147 112 -237 262
-258 431 -8 62 -8 60 -6 -31z"/>
</g>
</svg>
