<?xml version="1.0" standalone="no"?>
<!DOCTYPE svg PUBLIC "-//W3C//DTD SVG 20010904//EN"
 "http://www.w3.org/TR/2001/REC-SVG-20010904/DTD/svg10.dtd">
<svg version="1.0" xmlns="http://www.w3.org/2000/svg"
 width="256.000000pt" height="256.000000pt" viewBox="0 0 256.000000 256.000000"
 preserveAspectRatio="xMidYMid meet">
<metadata>
Created by potrace 1.16, written by Peter Selinger 2001-2019
</metadata>
<g transform="translate(0.000000,256.000000) scale(0.100000,-0.100000)"
fill="#000000" stroke="none">
<path d="M915 2531 c-174 -49 -296 -102 -430 -189 -122 -78 -185 -132 -185
-158 0 -32 11 -31 120 12 438 169 1085 197 1586 69 73 -19 173 -50 224 -69
109 -43 120 -44 120 -12 0 49 -258 218 -442 290 -128 50 -275 86 -349 85 l-64
-1 75 -13 c177 -30 351 -90 504 -175 91 -50 271 -178 263 -186 -2 -3 -46 12
-97 31 -207 80 -455 129 -745 145 -387 22 -793 -32 -1085 -145 -51 -19 -95
-34 -97 -32 -5 6 103 88 182 139 170 110 374 188 585 223 l75 13 -70 0 c-47 0
-103 -9 -170 -27z"/>
<path d="M1110 2035 c-211 -27 -380 -76 -533 -152 -122 -60 -198 -113 -291
-202 -129 -125 -194 -224 -247 -381 -31 -89 -33 -105 -37 -267 -5 -213 8 -282
81 -426 79 -155 218 -293 402 -401 184 -107 481 -196 675 -201 63 -2 99 -1 80
1 -221 27 -400 70 -562 133 -468 183 -712 544 -658 971 28 224 116 397 281
556 260 249 673 379 1149 361 243 -9 425 -49 599 -133 122 -58 199 -113 287
-207 85 -89 143 -182 180 -292 24 -69 28 -96 28 -195 1 -100 -2 -122 -23 -168
-28 -63 -86 -115 -144 -131 -30 -9 -205 -11 -632 -9 l-590 3 -43 25 c-57 32
-84 78 -84 140 0 68 29 112 95 144 50 24 64 26 327 36 491 18 524 22 559 67
78 98 -71 243 -315 305 -78 20 -114 23 -289 23 -173 0 -212 -3 -287 -22 -345
-87 -538 -299 -538 -589 0 -313 269 -527 768 -611 85 -14 160 -18 362 -17 257
0 288 3 555 50 99 17 101 17 146 -3 36 -16 51 -30 68 -65 38 -79 20 -145 -53
-198 -71 -53 -363 -133 -581 -159 -144 -18 -147 -20 -20 -16 131 5 304 39 476
94 159 51 226 120 217 222 -7 69 -45 122 -104 145 -50 19 -71 17 -279 -20
-312 -56 -730 -43 -985 33 -364 107 -550 292 -550 545 0 278 191 484 528 569
74 18 115 22 277 22 165 0 202 -3 279 -23 201 -51 344 -160 322 -247 -15 -59
-69 -68 -546 -85 -286 -10 -297 -11 -348 -36 -73 -36 -105 -85 -105 -163 0
-74 27 -121 91 -159 l47 -27 600 -3 c435 -2 612 0 642 9 57 16 121 72 149 133
21 46 24 65 24 184 0 117 -3 143 -26 210 -14 42 -44 108 -66 146 -48 82 -169
212 -254 272 -126 90 -315 164 -514 200 -119 22 -454 27 -590 9z"/>
</g>
</svg>
