<?xml version="1.0" standalone="no"?>
<!DOCTYPE svg PUBLIC "-//W3C//DTD SVG 20010904//EN"
 "http://www.w3.org/TR/2001/REC-SVG-20010904/DTD/svg10.dtd">
<svg version="1.0" xmlns="http://www.w3.org/2000/svg"
 width="100.000000pt" height="100.000000pt" viewBox="0 0 100.000000 100.000000"
 preserveAspectRatio="xMidYMid meet">
<metadata>
Created by potrace 1.16, written by Peter Selinger 2001-2019
</metadata>
<g transform="translate(0.000000,100.000000) scale(0.100000,-0.100000)"
fill="#000000" stroke="none">
<path d="M290 845 c0 -11 -12 -15 -45 -15 -33 0 -45 -4 -45 -15 0 -11 -12 -15
-45 -15 -33 0 -45 -4 -45 -15 0 -8 -9 -15 -20 -15 -18 0 -20 -7 -20 -65 l0
-65 80 0 c64 0 80 -3 80 -15 0 -8 -7 -15 -15 -15 -8 0 -15 -7 -15 -15 0 -8 -7
-15 -15 -15 -10 0 -15 -10 -15 -30 0 -20 -5 -30 -15 -30 -12 0 -15 -19 -15
-115 0 -96 3 -115 15 -115 10 0 15 -10 15 -30 0 -20 5 -30 15 -30 8 0 15 -7
15 -15 0 -10 10 -15 30 -15 20 0 30 -5 30 -15 0 -11 12 -15 45 -15 33 0 45 -4
45 -15 0 -13 28 -15 195 -15 167 0 195 2 195 15 0 11 12 15 45 15 33 0 45 4
45 15 0 8 7 15 15 15 11 0 15 12 15 50 0 38 -4 50 -15 50 -10 0 -15 10 -15 30
0 20 5 30 15 30 12 0 15 17 15 95 0 78 -3 95 -15 95 -10 0 -15 10 -15 30 0 20
-5 30 -15 30 -8 0 -15 7 -15 15 0 12 14 15 65 15 l65 0 0 65 c0 58 -2 65 -20
65 -11 0 -20 7 -20 15 0 10 -10 15 -30 15 -20 0 -30 5 -30 15 0 12 -13 15 -60
15 -47 0 -60 3 -60 15 0 13 -30 15 -210 15 -180 0 -210 -2 -210 -15z m330 -20
c0 -8 9 -15 20 -15 11 0 20 7 20 15 0 8 7 15 15 15 8 0 15 -7 15 -15 0 -12 13
-15 60 -15 33 0 60 -4 60 -10 0 -5 -7 -7 -15 -4 -8 4 -15 1 -15 -5 0 -6 19
-11 45 -11 25 0 45 -3 45 -7 0 -5 -166 -8 -370 -8 -203 0 -370 3 -370 8 0 4
20 7 45 7 33 0 45 4 45 15 0 11 12 15 45 15 33 0 45 4 45 15 0 13 24 15 155
15 131 0 155 -2 155 -15z m290 -120 l0 -45 -65 0 c-51 0 -65 3 -65 15 0 13
-38 15 -280 15 -242 0 -280 -2 -280 -15 0 -12 -14 -15 -65 -15 l-65 0 0 45 0
45 410 0 410 0 0 -45z m-620 -45 c0 -5 -11 -10 -25 -10 -14 0 -25 5 -25 10 0
6 11 10 25 10 14 0 25 -4 25 -10z m470 0 c0 -5 -4 -10 -10 -10 -5 0 -10 5 -10
10 0 6 5 10 10 10 6 0 10 -4 10 -10z m-40 -15 c0 -10 10 -15 30 -15 23 0 30
-4 30 -20 0 -11 7 -20 15 -20 10 0 15 -10 15 -30 0 -20 5 -30 15 -30 12 0 15
-15 15 -75 0 -60 -3 -75 -15 -75 -8 0 -15 -9 -15 -20 0 -19 -7 -20 -155 -20
-131 0 -155 -2 -155 -15 0 -13 24 -15 155 -15 131 0 155 -2 155 -15 0 -8 7
-15 15 -15 10 0 15 -10 15 -30 0 -20 -5 -30 -15 -30 -8 0 -15 -7 -15 -15 0
-11 -12 -15 -45 -15 -33 0 -45 -4 -45 -15 0 -13 -26 -15 -175 -15 -149 0 -175
2 -175 15 0 11 -12 15 -45 15 -33 0 -45 4 -45 15 0 10 -10 15 -30 15 -20 0
-30 5 -30 15 0 8 -7 15 -15 15 -10 0 -15 10 -15 30 0 20 -5 30 -15 30 -12 0
-15 17 -15 95 0 78 3 95 15 95 10 0 15 10 15 30 0 20 5 30 15 30 8 0 15 7 15
15 0 8 7 15 15 15 8 0 15 9 15 20 0 16 7 20 30 20 20 0 30 5 30 15 0 13 29 15
205 15 176 0 205 -2 205 -15z"/>
<path d="M337 803 c3 -8 -13 -13 -49 -16 -29 -2 66 -4 211 -5 145 -1 262 0
259 3 -2 3 -87 7 -189 10 -214 5 -199 4 -174 15 15 6 10 8 -21 7 -27 -1 -40
-6 -37 -14z"/>
<path d="M160 717 c0 -20 5 -27 20 -27 11 0 20 5 20 10 0 6 -5 9 -12 8 -7 -2
-12 2 -13 9 -1 25 -15 25 -15 0z"/>
<path d="M190 728 c0 -5 139 -8 310 -8 171 0 310 3 310 8 0 4 -139 7 -310 7
-171 0 -310 -3 -310 -7z"/>
<path d="M829 735 c-1 -3 -2 -11 -3 -17 -1 -7 -7 -12 -14 -10 -7 1 -12 -2 -12
-8 0 -5 9 -10 20 -10 15 0 20 7 20 25 0 22 -8 35 -11 20z"/>
<path d="M113 710 c-1 -12 4 -20 13 -20 9 0 14 7 12 17 -4 24 -23 27 -25 3z"/>
<path d="M860 710 c-9 -17 -8 -20 9 -20 14 0 19 6 18 20 -1 11 -5 20 -9 20 -4
0 -12 -9 -18 -20z"/>
<path d="M500 515 c0 -8 7 -15 15 -15 8 0 15 7 15 15 0 8 -7 15 -15 15 -8 0
-15 -7 -15 -15z"/>
</g>
</svg>
