<?xml version="1.0" standalone="no"?>
<!DOCTYPE svg PUBLIC "-//W3C//DTD SVG 20010904//EN"
 "http://www.w3.org/TR/2001/REC-SVG-20010904/DTD/svg10.dtd">
<svg version="1.0" xmlns="http://www.w3.org/2000/svg"
 width="192.000000pt" height="192.000000pt" viewBox="0 0 192.000000 192.000000"
 preserveAspectRatio="xMidYMid meet">
<metadata>
Created by potrace 1.16, written by Peter Selinger 2001-2019
</metadata>
<g transform="translate(0.000000,192.000000) scale(0.100000,-0.100000)"
fill="#000000" stroke="none">
<path d="M510 1909 c-180 -47 -279 -85 -438 -167 -55 -28 -83 -55 -71 -66 2
-2 38 15 79 38 176 97 384 170 570 199 14 3 -4 4 -40 5 -36 0 -81 -4 -100 -9z"/>
<path d="M1230 1914 c244 -47 432 -116 627 -230 32 -18 44 -44 22 -44 -6 0
-70 15 -142 34 -73 19 -170 41 -217 50 -323 61 -827 60 -1160 0 -86 -16 -351
-82 -359 -90 -2 -2 -1 -7 3 -11 4 -4 73 9 154 30 275 69 497 97 782 97 287 0
514 -28 777 -96 72 -19 145 -34 162 -34 28 0 31 3 31 33 0 26 -7 36 -33 51
-205 120 -442 205 -587 211 -47 2 -74 2 -60 -1z"/>
<path d="M815 1369 c-44 -4 -98 -13 -120 -20 -22 -6 -62 -18 -90 -26 -99 -30
-221 -102 -293 -172 -122 -119 -179 -250 -189 -436 -10 -190 25 -321 119 -442
104 -135 348 -262 518 -269 41 -1 62 0 45 3 -90 15 -259 73 -333 115 -239 134
-347 329 -328 595 12 169 71 300 188 414 75 74 197 144 303 174 33 10 70 21
82 26 12 4 80 13 152 20 362 33 640 -65 784 -278 74 -109 105 -273 72 -375
-38 -118 -37 -118 -487 -118 -347 0 -371 1 -407 20 -57 29 -76 95 -47 164 23
54 60 63 311 71 227 7 274 16 293 52 11 21 5 39 -23 74 -33 41 -78 67 -160 94
-143 46 -331 32 -471 -37 -190 -92 -275 -303 -190 -471 66 -130 200 -212 424
-258 129 -26 338 -26 486 1 181 33 223 25 246 -45 21 -63 -3 -121 -63 -151
-43 -23 -196 -66 -307 -88 -14 -3 11 -3 55 -1 118 5 276 56 318 103 40 44 30
175 -16 207 -30 21 -121 19 -253 -5 -318 -58 -659 13 -810 169 -40 41 -84 128
-91 179 -6 47 19 139 52 193 109 171 381 255 599 184 85 -28 130 -54 164 -97
19 -23 22 -32 12 -43 -22 -26 -75 -34 -290 -41 -246 -7 -284 -16 -306 -70 -17
-40 -18 -109 -3 -153 7 -21 24 -38 50 -51 36 -19 60 -20 427 -20 473 0 469 -1
507 118 37 112 4 303 -72 415 -152 224 -446 318 -858 276z"/>
</g>
</svg>
