<?xml version="1.0" standalone="no"?>
<!DOCTYPE svg PUBLIC "-//W3C//DTD SVG 20010904//EN"
 "http://www.w3.org/TR/2001/REC-SVG-20010904/DTD/svg10.dtd">
<svg version="1.0" xmlns="http://www.w3.org/2000/svg"
 width="256.000000pt" height="256.000000pt" viewBox="0 0 256.000000 256.000000"
 preserveAspectRatio="xMidYMid meet">
<metadata>
Created by potrace 1.16, written by Peter Selinger 2001-2019
</metadata>
<g transform="translate(0.000000,256.000000) scale(0.100000,-0.100000)"
fill="#000000" stroke="none">
<path d="M1070 2379 c-174 -17 -361 -61 -522 -123 -90 -34 -347 -165 -327
-165 9 -1 33 6 53 14 51 22 260 70 386 90 269 42 642 56 921 35 252 -20 569
-79 697 -129 28 -11 52 -17 52 -13 0 11 -259 138 -362 178 -102 39 -299 88
-413 104 -114 15 -374 20 -485 9z m440 -29 c128 -16 304 -58 408 -96 90 -34
197 -80 157 -69 -30 9 -229 42 -325 55 -165 21 -474 30 -680 20 -164 -8 -449
-40 -570 -65 -43 -9 81 46 171 75 100 33 257 68 355 79 103 12 388 12 484 1z"/>
<path d="M1161 1739 c-400 -52 -686 -270 -757 -578 -15 -65 -20 -232 -8 -300
22 -132 85 -243 196 -347 283 -263 860 -338 1366 -178 140 44 190 111 147 194
-8 16 -24 34 -34 40 -27 14 -94 12 -171 -5 -36 -8 -130 -20 -209 -26 -450 -37
-825 109 -898 351 -22 75 -20 189 6 264 73 207 314 330 615 313 155 -9 269
-52 343 -129 18 -18 35 -48 39 -65 5 -27 1 -37 -23 -61 -35 -35 -61 -39 -333
-47 -107 -3 -216 -11 -242 -16 -85 -19 -125 -88 -95 -162 28 -66 26 -66 503
-69 415 -3 430 -2 463 17 55 32 81 93 81 189 0 160 -51 280 -169 396 -81 80
-202 152 -311 185 -129 38 -358 54 -509 34z m454 -48 c306 -82 505 -300 507
-557 1 -85 -21 -138 -71 -171 -34 -23 -35 -23 -441 -23 l-407 0 -34 23 c-43
29 -56 64 -38 102 28 58 51 63 324 75 268 12 314 19 345 52 26 29 27 102 1
145 -85 138 -440 201 -697 122 -148 -45 -253 -128 -311 -247 -38 -75 -38 -77
-38 -197 0 -116 1 -123 33 -187 76 -156 275 -265 559 -307 150 -23 398 -12
591 26 81 16 84 15 110 -4 61 -45 51 -108 -23 -150 -55 -31 -238 -79 -375 -99
-152 -22 -434 -14 -560 15 -315 73 -538 227 -629 435 -95 219 -47 506 117 686
122 136 284 222 510 271 123 27 410 21 527 -10z"/>
</g>
</svg>
