<?xml version="1.0" standalone="no"?>
<!DOCTYPE svg PUBLIC "-//W3C//DTD SVG 20010904//EN"
 "http://www.w3.org/TR/2001/REC-SVG-20010904/DTD/svg10.dtd">
<svg version="1.0" xmlns="http://www.w3.org/2000/svg"
 width="192.000000pt" height="192.000000pt" viewBox="0 0 192.000000 192.000000"
 preserveAspectRatio="xMidYMid meet">
<metadata>
Created by potrace 1.16, written by Peter Selinger 2001-2019
</metadata>
<g transform="translate(0.000000,192.000000) scale(0.100000,-0.100000)"
fill="#000000" stroke="none">
<path d="M800 1739 c-105 -10 -210 -33 -316 -69 -100 -34 -304 -130 -304 -143
0 -5 8 -6 18 -2 177 77 578 122 926 104 227 -11 476 -55 589 -104 9 -4 17 -3
17 2 0 12 -196 106 -291 139 -201 70 -414 95 -639 73z m430 -43 c72 -15 243
-67 237 -72 -1 -1 -47 5 -102 14 -76 12 -173 16 -400 16 -272 1 -367 -5 -505
-30 -14 -2 7 7 45 21 76 28 165 50 260 65 85 13 375 4 465 -14z"/>
<path d="M910 1274 c-14 -2 -56 -9 -95 -15 -161 -26 -324 -117 -408 -228 -141
-189 -136 -457 13 -624 87 -98 232 -172 405 -208 242 -50 654 3 731 94 20 24
24 37 20 61 -13 62 -50 77 -141 56 -22 -5 -92 -14 -155 -20 -251 -25 -494 33
-604 144 -55 54 -78 106 -83 186 -12 163 95 287 290 337 86 22 251 14 328 -16
72 -27 129 -81 129 -121 0 -53 -25 -60 -250 -70 -149 -7 -209 -13 -225 -24
-30 -20 -44 -63 -33 -104 16 -58 38 -62 375 -62 327 0 331 1 371 60 22 32 23
43 20 121 -3 72 -9 97 -36 151 -62 126 -196 225 -352 263 -65 15 -253 27 -300
19z m253 -39 c158 -28 302 -124 366 -244 59 -112 62 -230 6 -278 -26 -23 -29
-23 -331 -23 l-305 0 -24 25 c-32 31 -31 46 0 75 25 23 35 25 213 32 103 4
203 12 223 18 60 16 77 81 37 140 -53 77 -206 126 -363 116 -160 -10 -263 -52
-340 -138 -56 -62 -79 -130 -79 -229 1 -168 104 -276 325 -339 111 -32 331
-38 501 -14 128 18 131 18 144 -1 45 -61 -24 -104 -246 -151 -114 -24 -355
-24 -457 -1 -169 39 -328 125 -401 216 -150 188 -128 460 51 627 62 58 165
120 241 144 121 39 304 49 439 25z"/>
</g>
</svg>
