<?xml version="1.0" standalone="no"?>
<!DOCTYPE svg PUBLIC "-//W3C//DTD SVG 20010904//EN"
 "http://www.w3.org/TR/2001/REC-SVG-20010904/DTD/svg10.dtd">
<svg version="1.0" xmlns="http://www.w3.org/2000/svg"
 width="100.000000pt" height="100.000000pt" viewBox="0 0 100.000000 100.000000"
 preserveAspectRatio="xMidYMid meet">
<metadata>
Created by potrace 1.16, written by Peter Selinger 2001-2019
</metadata>
<g transform="translate(0.000000,100.000000) scale(0.100000,-0.100000)"
fill="#000000" stroke="none">
<path d="M544 755 c-4 -10 -21 -15 -54 -15 -27 0 -51 -4 -54 -9 -4 -5 -27 -19
-51 -31 -43 -21 -95 -79 -95 -107 0 -10 -35 -13 -145 -13 -90 0 -145 -4 -145
-10 0 -6 57 -10 151 -10 86 0 148 -4 145 -9 -3 -5 -70 -10 -148 -10 -78 -1
-144 -4 -147 -6 -2 -3 65 -5 149 -5 198 0 190 -18 -10 -22 -80 -2 62 -6 315
-8 l460 -5 0 22 c0 21 -2 21 -22 7 -23 -14 -23 -14 -23 25 0 29 4 40 17 43 15
3 15 4 0 17 -15 12 -17 11 -17 -3 0 -9 -7 -16 -15 -16 -10 0 -15 -11 -15 -35
0 -27 -3 -33 -16 -28 -9 3 -14 13 -11 24 3 11 1 22 -4 25 -5 3 -9 -6 -9 -21 0
-39 -34 -47 -199 -41 -174 5 -231 13 -231 32 0 8 9 14 20 14 11 0 20 7 20 15
0 8 -7 15 -16 15 -14 0 -15 2 -3 17 13 15 14 15 17 0 2 -10 10 -17 18 -17 9 0
14 -11 14 -30 l0 -30 170 0 170 0 0 30 c0 20 -5 30 -15 30 -8 0 -15 9 -15 20
0 16 7 20 30 20 23 0 30 -4 30 -20 0 -28 27 -25 32 4 4 19 1 22 -14 18 -12 -3
-18 1 -18 12 0 11 9 16 30 16 20 0 30 -5 30 -15 0 -8 9 -15 20 -15 16 0 20 -7
20 -35 0 -24 5 -35 15 -35 11 0 15 -12 15 -45 l0 -45 -470 0 c-307 0 -470 -3
-470 -10 0 -6 53 -10 139 -10 166 0 231 -7 231 -26 0 -8 9 -14 20 -14 11 0 20
7 20 15 0 8 7 15 15 15 8 0 15 -7 15 -15 0 -8 -7 -15 -15 -15 -8 0 -15 -7 -15
-15 0 -8 7 -15 15 -15 8 0 15 7 15 15 0 10 10 15 30 15 20 0 30 -5 30 -15 0
-10 -10 -15 -30 -15 -23 0 -30 -4 -30 -20 0 -25 30 -27 30 -2 1 15 2 15 15 -2
15 -19 15 -19 15 2 0 21 3 22 125 22 118 0 125 -1 125 -20 0 -17 -7 -20 -45
-20 -25 0 -45 -4 -45 -9 0 -4 -19 -5 -42 0 -70 13 -118 11 -118 -5 0 -12 25
-15 128 -18 122 -3 129 -2 124 16 -4 16 0 18 30 14 31 -3 34 -2 30 19 -3 16 0
23 12 23 9 0 16 7 16 15 0 10 11 15 35 15 26 0 35 -4 35 -16 0 -11 -6 -15 -20
-11 -16 4 -20 0 -20 -19 0 -15 -6 -24 -15 -24 -8 0 -15 -7 -15 -15 0 -10 -10
-15 -30 -15 -20 0 -30 -5 -30 -15 0 -13 -24 -15 -155 -15 -131 0 -155 2 -155
15 0 8 5 15 10 15 6 0 10 7 10 15 0 8 -4 15 -10 15 -5 0 -10 -7 -10 -15 0 -10
-10 -15 -30 -15 -20 0 -30 5 -30 15 0 8 -9 15 -20 15 -13 0 -20 7 -20 20 0 12
7 20 18 20 14 0 15 2 2 10 -10 6 -16 6 -18 0 -6 -16 -32 -11 -32 5 0 8 -7 15
-15 15 -8 0 -15 7 -15 15 0 13 -24 15 -155 15 -97 0 -155 -4 -155 -10 0 -6 55
-10 145 -10 135 0 145 -1 145 -19 0 -10 7 -24 15 -31 8 -7 15 -19 15 -26 0 -7
25 -25 55 -39 30 -15 57 -30 60 -36 4 -5 28 -9 55 -9 33 0 50 -5 54 -15 8 -22
154 -22 162 0 4 10 21 15 54 15 27 0 52 5 55 11 4 5 18 14 32 20 14 5 21 14
17 21 -4 6 -3 8 3 5 6 -4 22 4 37 18 21 19 26 33 26 70 0 33 4 45 15 45 22 0
22 132 0 150 -8 7 -15 21 -15 31 0 12 -7 19 -20 19 -11 0 -20 7 -20 15 0 8 -7
15 -15 15 -8 0 -15 7 -15 15 0 10 -10 15 -30 15 -20 0 -30 5 -30 15 0 11 -12
15 -44 15 -26 0 -48 6 -56 15 -18 21 -148 21 -156 0z m113 -12 c-20 -2 -52 -2
-70 0 -17 2 0 4 38 4 39 0 53 -2 32 -4z m123 -34 c0 -6 -6 -9 -14 -6 -8 3 -16
2 -18 -3 -2 -5 -65 -10 -140 -11 -116 -1 -138 -3 -138 -16 0 -10 -6 -14 -19
-10 -14 3 -17 0 -14 -14 5 -16 0 -19 -31 -19 -25 0 -36 4 -36 15 0 8 9 15 20
15 11 0 20 7 20 15 0 10 10 15 30 15 20 0 30 5 30 15 0 13 24 15 155 15 107 0
155 -3 155 -11z m60 -29 c0 -5 -7 -7 -15 -4 -8 4 -15 1 -15 -5 0 -6 -13 -11
-30 -11 -20 0 -30 -5 -30 -15 0 -13 -21 -15 -125 -15 -118 0 -125 -1 -125 -20
0 -16 -7 -20 -30 -20 -23 0 -30 4 -30 20 0 11 7 20 15 20 8 0 15 -8 15 -17 0
-14 2 -15 13 -4 10 11 10 14 0 18 -7 3 -13 11 -13 19 0 10 13 14 45 14 25 0
45 3 45 8 0 4 23 7 50 7 28 0 50 -3 50 -7 0 -5 -16 -8 -37 -8 -20 0 -34 -2
-31 -6 3 -3 40 -2 82 2 54 5 76 11 76 20 0 10 14 14 45 14 25 0 45 -4 45 -10z
m-470 -86 c0 -31 -3 -36 -19 -31 -14 3 -17 0 -14 -14 4 -13 0 -19 -11 -19 -11
0 -16 9 -16 30 0 20 5 30 15 30 8 0 15 9 15 20 0 11 7 20 15 20 11 0 15 -11
15 -36z m170 4 c0 9 24 12 85 12 61 0 85 -3 85 -12 0 -9 4 -8 11 2 9 13 10 13
6 0 -6 -22 -198 -22 -204 0 -4 13 -3 13 6 0 7 -10 11 -11 11 -2z m81 -38 c98
0 148 -4 144 -10 -7 -11 -244 -14 -282 -4 -13 4 -23 14 -22 23 0 10 2 11 6 4
3 -10 44 -13 154 -13z m72 -117 c-146 -2 -223 -7 -223 -14 0 -6 -5 -7 -10 -4
-32 20 21 25 228 23 l227 -3 -222 -2z m12 -33 c-3 -5 -39 -10 -80 -10 -41 0
-77 5 -80 10 -4 6 25 10 80 10 55 0 84 -4 80 -10z m105 -15 c0 -8 -7 -15 -15
-15 -8 0 -16 -8 -16 -17 -1 -17 -2 -17 -6 0 -2 9 -9 17 -14 17 -5 0 -9 7 -9
15 0 10 10 15 30 15 20 0 30 -5 30 -15z m96 -52 c-10 -10 -19 5 -10 18 6 11 8
11 12 0 2 -7 1 -15 -2 -18z m-551 7 c3 -5 1 -10 -4 -10 -6 0 -11 5 -11 10 0 6
2 10 4 10 3 0 8 -4 11 -10z m320 -94 c11 -2 -10 -4 -47 -5 -38 0 -68 2 -68 7
0 7 67 6 115 -2z"/>
<path d="M9 130 c-1 -11 -1 -36 -1 -55 0 -74 0 -75 31 -71 15 2 33 6 39 10 6
3 12 2 14 -3 1 -5 15 -7 31 -4 26 5 27 7 27 74 l0 69 -70 0 c-63 0 -70 -2 -71
-20z m121 -50 l0 -50 -50 0 -50 0 0 50 0 50 50 0 50 0 0 -50z"/>
<path d="M52 83 c2 -22 8 -28 28 -28 20 0 25 5 27 28 1 15 -2 27 -8 27 -5 0
-9 -11 -9 -25 0 -16 -6 -25 -15 -25 -8 0 -15 7 -15 15 0 8 5 15 11 15 5 0 7 5
4 10 -12 20 -26 9 -23 -17z"/>
</g>
</svg>
