<?xml version="1.0" standalone="no"?>
<!DOCTYPE svg PUBLIC "-//W3C//DTD SVG 20010904//EN"
 "http://www.w3.org/TR/2001/REC-SVG-20010904/DTD/svg10.dtd">
<svg version="1.0" xmlns="http://www.w3.org/2000/svg"
 width="67.000000pt" height="67.000000pt" viewBox="0 0 67.000000 67.000000"
 preserveAspectRatio="xMidYMid meet">
<metadata>
Created by potrace 1.16, written by Peter Selinger 2001-2019
</metadata>
<g transform="translate(0.000000,67.000000) scale(0.100000,-0.100000)"
fill="#000000" stroke="none">
<path d="M300 497 c-19 -6 -57 -33 -83 -59 l-48 -48 -84 0 c-50 0 -85 -4 -85
-10 0 -6 41 -10 103 -10 l102 1 20 32 c11 17 40 43 65 57 38 21 58 25 125 25
70 0 86 -4 129 -29 36 -21 53 -39 68 -73 34 -76 47 -73 -302 -73 -269 0 -310
-2 -310 -15 0 -12 17 -15 95 -15 75 0 95 -3 95 -14 0 -22 75 -81 119 -94 48
-15 163 -15 214 -1 49 13 107 64 107 94 0 13 5 27 11 31 17 10 5 101 -18 132
-10 15 -43 39 -73 55 -46 23 -65 27 -134 26 -45 -1 -97 -6 -116 -12z m-42
-228 c35 -55 177 -77 260 -39 23 10 42 24 42 30 0 5 12 10 28 10 l27 -1 -38
-34 c-60 -53 -151 -67 -245 -40 -49 15 -122 66 -122 86 0 17 35 9 48 -12z m71
0 c41 -21 93 -22 191 -4 32 6 33 5 17 -9 -34 -27 -114 -40 -171 -27 -53 12
-127 60 -94 61 10 0 35 -9 57 -21z m109 4 c-10 -2 -28 -2 -40 0 -13 2 -5 4 17
4 22 1 32 -1 23 -4z"/>
<path d="M336 455 c-44 -15 -96 -61 -96 -84 0 -10 9 -5 25 15 68 86 246 83
298 -6 l18 -30 -290 0 c-187 0 -291 -4 -291 -10 0 -6 105 -10 295 -10 l295 0
0 25 c0 36 -59 90 -113 104 -59 14 -93 13 -141 -4z"/>
<path d="M350 419 c-26 -10 -60 -38 -60 -48 0 -3 57 -5 126 -3 114 3 124 5
112 19 -31 38 -122 54 -178 32z m120 -25 c0 -2 -24 -4 -52 -3 -38 1 -46 3 -28
8 24 7 80 3 80 -5z"/>
<path d="M4 87 c-3 -9 -4 -30 -2 -49 3 -32 4 -33 48 -33 l45 0 0 45 0 45 -43
3 c-30 2 -44 -1 -48 -11z m71 -37 c0 -18 -6 -26 -23 -28 -24 -4 -38 18 -28 44
3 9 15 14 28 12 17 -2 23 -10 23 -28z"/>
<path d="M31 52 c-1 -17 4 -23 16 -20 10 2 18 11 19 21 1 12 1 13 -3 2 -6 -20
-20 -19 -26 3 -3 12 -5 11 -6 -6z"/>
</g>
</svg>
