<?xml version="1.0" standalone="no"?>
<!DOCTYPE svg PUBLIC "-//W3C//DTD SVG 20010904//EN"
 "http://www.w3.org/TR/2001/REC-SVG-20010904/DTD/svg10.dtd">
<svg version="1.0" xmlns="http://www.w3.org/2000/svg"
 width="180.000000pt" height="180.000000pt" viewBox="0 0 180.000000 180.000000"
 preserveAspectRatio="xMidYMid meet">
<metadata>
Created by potrace 1.16, written by Peter Selinger 2001-2019
</metadata>
<g transform="translate(0.000000,180.000000) scale(0.100000,-0.100000)"
fill="#000000" stroke="none">
<path d="M234 1731 c-2 -2 -4 -378 -4 -835 l0 -831 660 0 660 0 0 178 c0 112
4 177 10 177 7 0 9 220 8 655 l-3 655 -663 3 c-365 1 -666 0 -668 -2z m713
-41 c266 -87 477 -296 575 -568 18 -49 21 -84 23 -257 2 -227 -6 -286 -59
-400 -42 -92 -94 -171 -158 -241 -60 -65 -163 -144 -189 -144 -12 0 -34 27
-69 85 -27 47 -50 89 -50 93 0 4 13 16 29 25 58 34 145 123 193 196 26 40 48
77 48 82 0 5 -56 9 -125 9 l-125 0 -41 -45 c-87 -94 -254 -149 -386 -127 -172
29 -336 175 -359 320 l-7 42 549 0 549 -1 3 74 c10 248 -138 492 -367 607
-180 90 -418 93 -587 7 l-48 -25 -48 84 c-27 46 -48 93 -48 104 0 23 43 47
140 78 83 27 89 27 307 25 159 -1 192 -4 250 -23z m-636 0 c-53 -24 -51 -24
-51 0 0 17 7 20 48 20 l47 0 -44 -20z m1229 -257 l-1 -278 -26 60 c-83 194
-242 357 -443 454 l-84 41 277 0 277 0 0 -277z m-1190 -30 c14 3 53 17 88 32
73 30 178 55 240 55 24 0 78 -7 120 -16 221 -45 412 -209 489 -420 27 -77 47
-203 38 -245 l-7 -29 -529 0 -529 0 0 85 0 85 435 0 435 0 0 31 c0 17 -14 58
-31 90 -92 173 -300 273 -496 240 -133 -23 -263 -105 -323 -203 l-20 -33 0
220 0 220 33 -58 c28 -51 35 -58 57 -54z m459 -132 c33 -10 80 -30 103 -44 79
-46 168 -154 192 -234 l7 -23 -431 0 -431 0 6 23 c38 123 182 256 311 286 68
16 178 12 243 -8z m-446 -787 c88 -75 195 -114 317 -114 133 1 233 38 326 123
l52 47 91 0 c50 0 91 -4 91 -9 0 -33 -144 -189 -212 -229 -21 -12 -28 -24 -28
-47 0 -17 4 -35 8 -40 5 -6 24 -36 41 -67 l32 -58 -410 0 -411 0 0 262 0 261
31 -46 c17 -26 50 -63 72 -83z m1168 -53 c-7 -11 -11 -86 -11 -180 l0 -161
-145 0 -144 0 83 83 c90 88 144 164 191 268 26 59 30 63 33 38 2 -15 -2 -37
-7 -48z"/>
<path d="M648 723 c7 -3 16 -2 19 1 4 3 -2 6 -13 5 -11 0 -14 -3 -6 -6z"/>
</g>
</svg>
