<?xml version="1.0" standalone="no"?>
<!DOCTYPE svg PUBLIC "-//W3C//DTD SVG 20010904//EN"
 "http://www.w3.org/TR/2001/REC-SVG-20010904/DTD/svg10.dtd">
<svg version="1.0" xmlns="http://www.w3.org/2000/svg"
 width="100.000000pt" height="100.000000pt" viewBox="0 0 100.000000 100.000000"
 preserveAspectRatio="xMidYMid meet">
<metadata>
Created by potrace 1.16, written by Peter Selinger 2001-2019
</metadata>
<g transform="translate(0.000000,100.000000) scale(0.100000,-0.100000)"
fill="#000000" stroke="none">
<path d="M350 770 c-12 -8 -9 -10 11 -10 23 0 27 -5 31 -33 3 -29 1 -33 -14
-29 -10 2 -18 11 -18 18 0 8 -7 14 -15 14 -18 0 -20 -26 -2 -33 7 -3 5 -6 -6
-6 -20 -1 -37 31 -19 37 17 5 15 32 -3 32 -11 0 -15 -12 -15 -45 0 -33 -4 -45
-15 -45 -8 0 -15 7 -15 15 0 8 -7 15 -15 15 -8 0 -15 -7 -15 -15 0 -8 7 -15
15 -15 8 0 15 -7 15 -15 0 -8 -6 -15 -13 -15 -9 0 -14 -12 -15 -31 -1 -38 22
-34 26 4 2 15 10 27 18 27 8 0 14 7 14 15 0 11 11 15 41 15 22 0 38 -4 35 -9
-3 -5 -16 -7 -28 -3 -17 4 -20 2 -15 -11 4 -11 2 -14 -9 -10 -8 3 -14 -1 -14
-9 0 -8 -6 -23 -14 -33 -12 -17 -26 -19 -155 -16 -123 2 -141 0 -141 -13 0
-14 20 -16 150 -16 127 0 150 2 150 15 0 8 7 15 15 15 8 0 15 7 15 15 0 8 7
15 15 15 8 0 15 7 15 15 0 8 7 15 15 15 8 0 15 7 15 15 0 10 10 15 30 15 20 0
30 -5 30 -15 0 -8 -7 -15 -15 -15 -8 0 -15 -7 -15 -15 0 -8 -7 -15 -15 -15 -8
0 -15 -7 -15 -15 0 -8 7 -15 15 -15 8 0 15 7 15 15 0 8 7 15 15 15 8 0 15 7
15 15 0 11 12 15 50 15 28 0 50 -3 50 -8 0 -11 103 -14 130 -3 20 8 9 10 -52
10 -62 1 -78 4 -78 16 0 12 15 15 71 15 67 0 115 -13 105 -28 -3 -4 11 -6 30
-4 26 3 34 1 34 -12 0 -9 7 -16 15 -16 13 0 15 -7 9 -36 -5 -26 -3 -35 4 -30
6 4 9 13 5 21 -3 9 1 15 11 15 9 0 16 7 16 15 0 8 -7 15 -15 15 -8 0 -15 7
-15 15 0 8 -7 15 -15 15 -8 0 -15 7 -15 15 0 10 10 15 30 15 20 0 30 -5 30
-15 0 -8 7 -15 15 -15 8 0 15 -7 15 -15 0 -8 7 -15 15 -15 8 0 15 -7 15 -15 0
-8 7 -15 15 -15 12 0 15 -14 15 -65 l0 -65 -320 0 c-278 0 -320 2 -320 15 0 8
-7 15 -15 15 -8 0 -15 -7 -15 -15 0 -12 -25 -15 -137 -18 l-138 -3 168 -2
c103 -1 167 -6 167 -12 0 -5 7 -10 15 -10 8 0 15 -7 15 -15 0 -8 7 -15 15 -15
8 0 15 -7 15 -15 0 -8 7 -15 15 -15 8 0 15 -6 15 -14 0 -10 10 -14 30 -14 18
1 30 6 30 15 0 10 29 13 140 13 122 0 140 -2 140 -16 0 -12 -8 -15 -33 -12
-28 3 -33 0 -33 -17 1 -11 -5 -20 -11 -19 -7 1 -33 2 -58 3 -61 2 -63 28 -2
34 23 2 2 2 -48 -1 -49 -3 -98 -6 -107 -6 -10 0 -18 -6 -18 -13 0 -8 -12 -13
-30 -13 -20 0 -30 5 -30 15 0 8 -7 15 -15 15 -8 0 -15 7 -15 15 0 8 -7 15 -15
15 -10 0 -15 10 -15 30 l0 30 -165 0 c-140 0 -165 -2 -165 -15 0 -13 23 -15
145 -15 83 0 145 -4 145 -9 0 -12 -37 -24 -49 -17 -5 3 -7 -3 -4 -14 3 -11 12
-20 19 -20 8 0 14 -7 14 -15 0 -8 -7 -15 -15 -15 -8 0 -15 -7 -15 -15 0 -8 7
-15 15 -15 8 0 15 7 15 15 0 8 7 15 15 15 18 0 20 -26 3 -33 -8 -4 -7 -6 3 -6
9 -1 19 8 22 19 3 11 1 20 -4 20 -5 0 -9 7 -9 15 0 8 -7 15 -15 15 -8 0 -15 7
-15 15 0 8 6 15 14 15 8 0 17 6 20 13 3 6 3 0 0 -15 -5 -21 -2 -28 10 -28 9 0
16 5 16 11 0 5 5 7 11 3 8 -4 7 -9 -2 -15 -21 -13 2 -43 35 -47 14 -2 26 -10
26 -18 0 -9 10 -14 28 -14 17 0 32 -8 40 -20 11 -18 20 -20 62 -17 44 4 49 2
53 -17 4 -20 4 -20 6 2 0 12 7 22 14 22 21 0 28 -12 16 -27 -9 -10 -8 -13 5
-13 10 0 16 8 16 21 0 20 4 21 42 16 24 -3 44 -11 46 -16 2 -6 16 -11 32 -11
22 0 30 6 38 29 8 23 15 28 31 24 13 -3 21 -1 21 7 0 10 3 10 15 0 13 -11 15
-8 15 19 0 17 -5 31 -11 31 -5 0 -7 5 -3 11 5 8 9 8 14 -1 4 -7 13 -9 20 -5
10 6 12 1 8 -19 -3 -14 -1 -29 3 -32 5 -3 10 4 10 15 2 25 3 29 13 59 5 15 2
27 -8 38 -15 14 -16 13 -16 -10 0 -22 -4 -26 -30 -26 -20 0 -30 -5 -30 -15 0
-8 -7 -15 -15 -15 -8 0 -15 -7 -15 -15 0 -12 -13 -15 -60 -15 -49 0 -60 3 -60
16 0 14 9 16 58 12 31 -3 51 -3 45 -1 -18 6 -16 33 2 33 8 0 15 6 15 14 0 8
-7 16 -15 20 -9 3 -15 -1 -15 -11 0 -13 -3 -13 -15 -3 -25 21 -18 40 15 40 20
0 30 -5 30 -15 0 -10 10 -15 29 -15 16 0 32 -6 35 -12 3 -7 4 -4 3 7 -2 12
-10 19 -20 19 -9 -1 -17 2 -17 7 0 5 20 9 45 9 33 0 45 4 45 15 0 13 -34 15
-242 15 -168 0 -238 3 -228 11 20 13 470 8 470 -5 0 -6 3 -6 9 -1 6 6 12 37
14 70 3 57 3 56 6 -20 3 -69 4 -75 12 -45 13 52 8 130 -8 130 -9 0 -11 8 -7
25 4 15 2 25 -5 25 -6 0 -8 6 -5 13 7 19 -21 40 -55 41 -25 1 -28 3 -19 20 9
16 7 18 -15 14 -20 -4 -23 -1 -19 15 5 18 1 20 -36 14 -23 -3 -40 -1 -37 3 10
17 -63 28 -165 25 -72 -2 -113 2 -131 10 -16 9 -30 10 -40 4 -10 -6 -7 -9 14
-9 17 0 27 -5 27 -15 0 -13 21 -15 125 -15 104 0 125 -2 125 -15 0 -11 12 -15
45 -15 26 0 45 -5 45 -11 0 -6 -7 -9 -15 -5 -8 3 -15 1 -15 -4 0 -6 -20 -10
-45 -10 -25 0 -45 5 -45 10 0 6 -7 10 -16 10 -8 0 -13 3 -11 8 3 4 -19 7 -48
7 -34 0 -51 -4 -48 -11 2 -6 -6 -14 -19 -18 -36 -9 -108 -7 -108 4 0 5 -7 7
-15 4 -8 -4 -15 -1 -15 5 0 7 24 11 65 11 36 0 65 4 65 8 0 4 -8 8 -17 8 -10
1 -39 4 -65 8 -31 4 -48 2 -48 -5 0 -5 -5 -7 -11 -3 -6 3 -9 15 -6 25 3 12 -2
23 -13 29 -22 12 -21 12 -40 0z m590 -152 c0 -17 -3 -19 -9 -9 -5 7 -15 17
-22 22 -10 6 -8 9 9 9 16 0 22 -6 22 -22z m-525 -188 c5 -8 11 -7 21 1 11 9
14 6 14 -16 l0 -28 103 6 c56 3 122 2 147 -2 38 -7 32 -8 -40 -8 -116 1 -180
-4 -180 -14 0 -5 -13 -9 -30 -9 -27 0 -30 3 -30 30 0 24 -4 30 -21 30 -11 0
-17 5 -14 10 8 13 22 13 30 0z m-40 -120 c3 -5 1 -10 -4 -10 -6 0 -11 5 -11
10 0 6 2 10 4 10 3 0 8 -4 11 -10z m203 -27 c-4 -16 2 -18 51 -15 33 2 73 -3
96 -12 38 -14 34 -15 -105 -14 -98 0 -136 3 -116 8 16 5 33 7 38 4 4 -3 8 0 8
5 0 7 -26 11 -65 11 -36 0 -65 4 -65 10 0 5 7 7 15 4 8 -4 15 -1 15 5 0 7 24
11 66 11 58 0 66 -2 62 -17z m212 -53 c0 -16 -7 -20 -30 -20 -16 0 -30 5 -30
11 0 5 10 9 23 7 13 -2 21 2 20 10 -2 6 2 12 7 12 6 0 10 -9 10 -20z"/>
<path d="M915 770 c-3 -5 -19 -10 -36 -10 -19 0 -29 -5 -29 -15 0 -10 10 -15
30 -15 27 0 30 -3 30 -30 0 -21 5 -30 16 -30 9 0 14 8 13 18 -3 32 1 42 16 42
22 0 19 27 -4 40 -24 12 -28 13 -36 0z m25 -25 c0 -8 -7 -15 -15 -15 -8 0 -15
7 -15 15 0 8 7 15 15 15 8 0 15 -7 15 -15z"/>
<path d="M260 755 c-9 -11 -42 -15 -138 -18 l-127 -3 132 -2 c94 -1 133 -6
136 -14 3 -7 6 -1 6 14 1 14 7 29 14 31 7 4 8 6 1 6 -6 1 -17 -6 -24 -14z"/>
<path d="M793 763 c9 -2 25 -2 35 0 9 3 1 5 -18 5 -19 0 -27 -2 -17 -5z"/>
<path d="M52 693 c32 -2 84 -2 115 0 32 2 6 3 -57 3 -63 0 -89 -1 -58 -3z"/>
<path d="M480 595 c0 -8 -7 -15 -15 -15 -8 0 -15 -7 -15 -15 0 -13 26 -15 170
-15 144 0 170 2 170 15 0 8 -7 15 -15 15 -8 0 -15 7 -15 15 0 13 -22 15 -140
15 -118 0 -140 -2 -140 -15z m267 -12 c-9 -8 -149 -12 -202 -4 -50 6 -38 8 72
8 73 0 131 -2 130 -4z"/>
<path d="M360 565 c0 -8 7 -15 15 -15 8 0 15 7 15 15 0 8 -7 15 -15 15 -8 0
-15 -7 -15 -15z"/>
<path d="M850 559 c0 -14 5 -19 14 -16 20 8 39 -18 32 -41 -4 -12 -1 -22 6
-25 10 -3 13 9 13 45 0 26 -1 44 -3 38 -6 -16 -32 -12 -32 5 0 8 -7 15 -15 15
-9 0 -15 -9 -15 -21z"/>
<path d="M315 560 c-3 -5 1 -10 10 -10 9 0 13 5 10 10 -3 6 -8 10 -10 10 -2 0
-7 -4 -10 -10z"/>
<path d="M415 550 c3 -5 8 -10 11 -10 2 0 4 5 4 10 0 6 -5 10 -11 10 -5 0 -7
-4 -4 -10z"/>
<path d="M450 521 c0 -11 -2 -25 -5 -33 -4 -10 22 -12 140 -10 136 3 145 4
145 23 0 10 7 19 15 19 8 0 15 -9 15 -20 0 -18 7 -20 60 -20 53 0 60 2 60 20
0 18 -7 20 -62 22 -94 2 -142 -3 -150 -15 -6 -9 -11 -8 -18 3 -6 9 -10 10 -10
3 0 -8 -29 -12 -90 -12 -49 0 -90 3 -90 8 0 5 5 11 12 13 7 3 6 7 -5 11 -12 5
-17 1 -17 -12z m360 -21 c0 -5 -4 -10 -10 -10 -5 0 -10 5 -10 10 0 6 5 10 10
10 6 0 10 -4 10 -10z"/>
<path d="M240 515 c0 -12 -20 -15 -120 -15 -73 0 -120 -4 -120 -10 0 -6 52
-10 135 -10 l135 0 0 25 c0 16 -6 25 -15 25 -8 0 -15 -7 -15 -15z"/>
<path d="M283 518 c-2 -5 1 -8 6 -8 6 0 11 -7 11 -15 0 -12 13 -15 60 -15 45
0 60 4 60 14 0 8 6 16 13 19 6 2 -23 6 -66 8 -44 2 -81 1 -84 -3z"/>
<path d="M940 375 c0 -8 7 -15 15 -15 10 0 15 -10 15 -30 0 -20 -5 -30 -15
-30 -8 0 -15 -4 -15 -10 0 -5 6 -10 14 -10 22 0 37 56 24 85 -12 27 -38 34
-38 10z"/>
<path d="M30 294 c83 -8 190 -8 190 -1 0 4 -51 6 -112 5 -62 -1 -97 -3 -78 -4z"/>
<path d="M0 255 c0 -8 7 -15 15 -15 8 0 15 7 15 15 0 8 -7 15 -15 15 -8 0 -15
-7 -15 -15z"/>
<path d="M135 260 c3 -5 8 -10 11 -10 2 0 4 5 4 10 0 6 -5 10 -11 10 -5 0 -7
-4 -4 -10z"/>
<path d="M940 255 c0 -8 7 -15 15 -15 8 0 15 7 15 15 0 8 -7 15 -15 15 -8 0
-15 -7 -15 -15z"/>
<path d="M820 220 c0 -6 7 -10 15 -10 8 0 15 2 15 4 0 2 -7 6 -15 10 -8 3 -15
1 -15 -4z"/>
<path d="M8 213 c7 -3 16 -2 19 1 4 3 -2 6 -13 5 -11 0 -14 -3 -6 -6z"/>
<path d="M202 190 c0 -14 2 -19 5 -12 2 6 2 18 0 25 -3 6 -5 1 -5 -13z"/>
<path d="M43 173 c9 -2 25 -2 35 0 9 3 1 5 -18 5 -19 0 -27 -2 -17 -5z"/>
<path d="M480 165 c0 -16 43 -21 74 -9 31 12 16 24 -29 24 -33 0 -45 -4 -45
-15z"/>
<path d="M700 165 c0 -10 10 -15 30 -15 30 0 40 13 19 26 -6 3 -15 0 -20 -7
-6 -10 -9 -11 -9 -1 0 6 -4 12 -10 12 -5 0 -10 -7 -10 -15z"/>
<path d="M955 170 c3 -5 1 -19 -5 -30 -9 -16 -8 -20 5 -20 10 0 15 10 15 30 0
17 -5 30 -11 30 -5 0 -7 -4 -4 -10z"/>
<path d="M580 160 c0 -6 7 -10 15 -10 8 0 15 2 15 4 0 2 -7 6 -15 10 -8 3 -15
1 -15 -4z"/>
<path d="M625 160 c-3 -5 -1 -10 4 -10 6 0 11 5 11 10 0 6 -2 10 -4 10 -3 0
-8 -4 -11 -10z"/>
<path d="M158 153 c7 -3 16 -2 19 1 4 3 -2 6 -13 5 -11 0 -14 -3 -6 -6z"/>
<path d="M30 133 c0 -6 -4 -13 -10 -15 -15 -5 -17 -110 -2 -115 8 -3 12 9 12
41 l0 46 45 0 45 0 0 -45 c0 -48 14 -60 24 -23 10 40 7 100 -5 92 -18 -11
-109 -14 -109 -3 0 5 20 9 45 9 29 0 45 4 45 13 0 8 -16 12 -45 12 -28 0 -45
-5 -45 -12z"/>
<path d="M210 140 c0 -5 7 -10 15 -10 8 0 15 5 15 10 0 6 -7 10 -15 10 -8 0
-15 -4 -15 -10z"/>
<path d="M210 75 c0 -63 26 -63 28 0 2 34 -1 45 -13 45 -11 0 -15 -12 -15 -45z"/>
<path d="M533 113 c9 -2 23 -2 30 0 6 3 -1 5 -18 5 -16 0 -22 -2 -12 -5z"/>
<path d="M670 103 c0 -15 2 -15 9 -4 8 12 12 12 26 -2 9 -10 12 -17 6 -17 -6
0 -11 -4 -11 -10 0 -5 7 -10 15 -10 10 0 15 10 15 30 0 27 -3 30 -30 30 -22 0
-30 -5 -30 -17z"/>
<path d="M613 93 c9 -2 23 -2 30 0 6 3 -1 5 -18 5 -16 0 -22 -2 -12 -5z"/>
<path d="M480 75 c0 -10 11 -15 35 -15 24 0 35 5 35 15 0 10 -11 15 -35 15
-24 0 -35 -5 -35 -15z"/>
<path d="M45 70 c-4 -6 3 -10 14 -10 25 0 27 6 6 13 -8 4 -17 2 -20 -3z"/>
<path d="M90 42 c0 -23 4 -42 10 -42 10 0 7 66 -4 77 -3 3 -6 -12 -6 -35z"/>
<path d="M613 63 c-47 -3 -63 -8 -63 -18 0 -10 10 -15 30 -15 17 0 30 4 30 9
0 4 13 7 29 5 19 -2 31 2 35 11 3 8 4 14 3 13 -1 -1 -30 -3 -64 -5z"/>
<path d="M880 50 c0 -5 7 -10 15 -10 8 0 15 5 15 10 0 6 -7 10 -15 10 -8 0
-15 -4 -15 -10z"/>
<path d="M950 45 c0 -8 5 -15 10 -15 6 0 10 7 10 15 0 8 -4 15 -10 15 -5 0
-10 -7 -10 -15z"/>
<path d="M473 40 c2 -8 14 -16 28 -17 19 -1 20 -1 4 4 -11 3 -24 10 -28 17 -6
7 -7 6 -4 -4z"/>
<path d="M46 15 c8 -19 9 -19 24 0 10 13 9 15 -8 15 -15 0 -20 -5 -16 -15z"/>
<path d="M180 19 c0 -5 5 -7 10 -4 6 3 10 8 10 11 0 2 -4 4 -10 4 -5 0 -10 -5
-10 -11z"/>
</g>
</svg>
