<?xml version="1.0" standalone="no"?>
<!DOCTYPE svg PUBLIC "-//W3C//DTD SVG 20010904//EN"
 "http://www.w3.org/TR/2001/REC-SVG-20010904/DTD/svg10.dtd">
<svg version="1.0" xmlns="http://www.w3.org/2000/svg"
 width="200.000000pt" height="200.000000pt" viewBox="0 0 200.000000 200.000000"
 preserveAspectRatio="xMidYMid meet">
<metadata>
Created by potrace 1.16, written by Peter Selinger 2001-2019
</metadata>
<g transform="translate(0.000000,200.000000) scale(0.100000,-0.100000)"
fill="#000000" stroke="none">
<path d="M640 1670 c0 -5 7 -10 16 -10 8 0 12 5 9 10 -3 6 -10 10 -16 10 -5 0
-9 -4 -9 -10z"/>
<path d="M720 1670 c0 -5 4 -10 9 -10 6 0 13 5 16 10 3 6 -1 10 -9 10 -9 0
-16 -4 -16 -10z"/>
<path d="M805 1670 c-3 -5 1 -10 10 -10 9 0 13 5 10 10 -3 6 -8 10 -10 10 -2
0 -7 -4 -10 -10z"/>
<path d="M965 1670 c-3 -5 -2 -10 4 -10 5 0 13 5 16 10 3 6 2 10 -4 10 -5 0
-13 -4 -16 -10z"/>
<path d="M1740 1669 c0 -5 5 -7 10 -4 6 3 10 8 10 11 0 2 -4 4 -10 4 -5 0 -10
-5 -10 -11z"/>
<path d="M1310 1663 c-252 -13 -431 -63 -596 -165 -34 -21 -94 -72 -132 -113
-173 -182 -223 -432 -147 -745 29 -123 51 -177 39 -100 -4 25 -6 84 -6 132 4
415 328 639 887 615 l130 -5 116 176 c98 150 113 178 98 184 -16 6 -313 30
-327 26 -4 -1 -32 -3 -62 -5z m217 -36 c-7 -4 11 -5 40 -1 29 4 63 4 77 0 21
-5 24 -10 17 -29 -5 -12 -12 -21 -17 -20 -13 2 -34 -17 -33 -31 0 -7 2 -6 6 2
2 6 9 12 15 12 6 0 4 -8 -5 -18 -10 -10 -14 -21 -11 -25 3 -3 -3 -3 -14 -1
-10 3 -26 -2 -35 -10 -17 -18 -37 -21 -37 -7 0 5 5 12 10 14 6 3 5 4 -2 3 -7
-1 -14 -16 -15 -32 -2 -21 0 -25 7 -14 5 8 12 11 15 8 4 -4 0 -17 -9 -30 -21
-29 -20 -39 1 -31 13 5 12 1 -5 -17 -12 -13 -22 -27 -22 -32 0 -4 -9 -8 -20
-8 -15 0 -20 -7 -20 -27 l0 -28 -208 -1 c-114 0 -227 -6 -252 -12 -34 -8 -46
-8 -52 1 -5 8 -8 7 -8 -4 0 -11 -8 -17 -22 -16 -13 1 -41 -2 -63 -6 -28 -6
-36 -5 -25 2 13 9 13 11 -2 11 -10 0 -18 -5 -18 -11 0 -16 -48 -59 -66 -59 -7
0 -14 -4 -14 -10 0 -5 -25 -24 -55 -41 -30 -17 -58 -35 -61 -40 -3 -6 -14 -7
-24 -4 -10 3 -22 0 -26 -6 -5 -9 -2 -10 9 -6 10 3 17 5 17 3 0 -18 -17 -39
-46 -57 -19 -11 -34 -25 -34 -31 0 -6 7 -4 17 3 15 13 15 12 2 -9 -17 -28 -35
-23 -31 9 1 16 -1 20 -7 11 -6 -11 -11 -10 -25 3 -9 9 -16 13 -16 8 0 -4 -5 0
-11 10 -13 22 17 126 38 134 7 3 13 17 13 33 0 29 32 66 49 55 6 -3 11 -1 11
4 0 6 -4 11 -8 11 -5 0 -9 7 -9 15 0 11 4 12 13 4 8 -7 14 -6 20 2 4 8 3 9 -4
5 -25 -15 -11 13 18 37 17 14 30 29 30 34 1 14 79 65 90 58 6 -4 9 -1 8 5 -4
15 49 56 59 46 4 -4 -3 -9 -15 -13 -18 -4 -33 -33 -18 -33 11 0 56 48 56 60 0
8 9 11 25 8 14 -3 25 -1 25 3 0 5 -4 9 -10 9 -5 0 -10 3 -10 8 0 11 88 13 95
2 3 -5 -2 -10 -11 -10 -10 0 -14 -3 -11 -7 4 -3 19 0 33 7 l26 14 -34 12 c-31
12 -31 13 -7 13 14 1 41 8 59 17 18 10 46 17 61 16 16 0 29 4 29 10 0 6 12 8
33 4 82 -17 97 -18 97 -6 0 8 -10 9 -32 5 -23 -5 -30 -4 -23 3 13 14 58 17
242 17 83 0 146 -3 140 -8z m43 -177 c-6 -12 -14 -19 -17 -16 -3 3 -1 12 5 19
7 8 9 17 6 20 -3 3 -2 12 2 19 14 22 17 -17 4 -42z m-1116 -416 c18 -7 21 -31
5 -36 -6 -2 -9 -13 -7 -23 4 -17 7 -14 21 15 10 20 15 26 13 13 -3 -15 0 -20
10 -16 8 3 14 0 14 -6 0 -6 -7 -11 -16 -11 -12 0 -14 -3 -6 -13 6 -7 8 -23 5
-36 -4 -17 -8 -19 -14 -9 -6 9 -9 4 -9 -14 0 -16 -4 -28 -10 -28 -5 0 -10 -20
-10 -45 0 -25 -4 -45 -9 -45 -12 0 -25 117 -17 166 3 21 5 51 6 67 0 29 1 30
24 21z"/>
<path d="M1225 1610 c-27 -10 192 -12 229 -2 18 5 -15 8 -90 9 -66 0 -128 -3
-139 -7z"/>
<path d="M1598 1613 c6 -2 18 -2 25 0 6 3 1 5 -13 5 -14 0 -19 -2 -12 -5z"/>
<path d="M1498 1603 c7 -3 16 -2 19 1 4 3 -2 6 -13 5 -11 0 -14 -3 -6 -6z"/>
<path d="M1607 1593 c-4 -3 -7 -11 -7 -17 0 -6 5 -5 12 2 6 6 9 14 7 17 -3 3
-9 2 -12 -2z"/>
<path d="M870 1531 c0 -6 4 -12 8 -15 5 -3 9 1 9 9 0 8 -4 15 -9 15 -4 0 -8
-4 -8 -9z"/>
<path d="M1188 1352 c-9 -4 35 -7 98 -7 63 0 105 3 92 7 -31 8 -169 8 -190 0z"/>
<path d="M1128 1333 c7 -3 16 -2 19 1 4 3 -2 6 -13 5 -11 0 -14 -3 -6 -6z"/>
<path d="M1390 1330 l-35 -7 43 -2 c23 0 42 4 42 9 0 6 -3 9 -7 9 -5 -1 -24
-5 -43 -9z"/>
<path d="M1168 1323 c6 -2 18 -2 25 0 6 3 1 5 -13 5 -14 0 -19 -2 -12 -5z"/>
<path d="M522 1238 c3 -24 29 -31 36 -10 2 7 -2 10 -12 6 -12 -5 -15 -2 -10
10 3 9 1 16 -6 16 -6 0 -10 -10 -8 -22z"/>
<path d="M678 1192 c-13 -5 -15 -11 -8 -22 7 -10 10 -11 10 -2 0 6 7 12 15 12
8 0 15 5 15 10 0 11 -7 12 -32 2z"/>
<path d="M463 1124 c-3 -8 -1 -25 5 -37 8 -19 10 -17 9 16 -1 40 -4 46 -14 21z"/>
<path d="M498 1113 c7 -3 16 -2 19 1 4 3 -2 6 -13 5 -11 0 -14 -3 -6 -6z"/>
<path d="M553 1098 c1 -17 7 -28 15 -28 10 0 11 4 5 13 -6 6 -13 19 -16 27 -3
8 -5 3 -4 -12z"/>
<path d="M880 1651 c0 -5 9 -7 20 -4 11 3 20 7 20 9 0 2 -9 4 -20 4 -11 0 -20
-4 -20 -9z"/>
<path d="M646 1623 c-11 -11 -6 -23 9 -23 8 0 15 4 15 9 0 13 -16 22 -24 14z"/>
<path d="M1738 1613 c7 -3 16 -2 19 1 4 3 -2 6 -13 5 -11 0 -14 -3 -6 -6z"/>
<path d="M750 1590 c-11 -8 -7 -9 15 -4 37 8 45 14 19 14 -10 0 -26 -5 -34
-10z"/>
<path d="M1740 1590 c0 -5 5 -10 10 -10 6 0 10 5 10 10 0 6 -4 10 -10 10 -5 0
-10 -4 -10 -10z"/>
<path d="M1735 1560 c-3 -5 -2 -10 4 -10 5 0 13 5 16 10 3 6 2 10 -4 10 -5 0
-13 -4 -16 -10z"/>
<path d="M720 1549 c0 -5 5 -7 10 -4 6 3 10 8 10 11 0 2 -4 4 -10 4 -5 0 -10
-5 -10 -11z"/>
<path d="M1675 1520 c-3 -6 1 -7 9 -4 18 7 21 14 7 14 -6 0 -13 -4 -16 -10z"/>
<path d="M640 1511 c0 -6 4 -12 8 -15 5 -3 9 1 9 9 0 8 -4 15 -9 15 -4 0 -8
-4 -8 -9z"/>
<path d="M1666 1487 c3 -10 9 -15 12 -12 3 3 0 11 -7 18 -10 9 -11 8 -5 -6z"/>
<path d="M1647 1455 c-5 -11 0 -15 16 -15 12 0 18 4 12 8 -5 4 -13 11 -16 15
-4 4 -9 1 -12 -8z"/>
<path d="M1744 1450 c0 -11 4 -20 8 -20 4 0 8 9 8 20 0 11 -4 20 -8 20 -4 0
-8 -9 -8 -20z"/>
<path d="M505 1430 c3 -5 12 -10 20 -10 8 0 17 5 20 10 4 6 -5 10 -20 10 -15
0 -24 -4 -20 -10z"/>
<path d="M480 1358 c0 -19 2 -20 10 -8 13 19 13 30 0 30 -5 0 -10 -10 -10 -22z"/>
<path d="M1740 1370 c0 -5 5 -10 10 -10 6 0 10 5 10 10 0 6 -4 10 -10 10 -5 0
-10 -4 -10 -10z"/>
<path d="M1570 1358 c0 -4 7 -8 15 -8 8 0 15 4 15 8 0 5 -7 9 -15 9 -8 0 -15
-4 -15 -9z"/>
<path d="M1550 1321 c0 -5 -3 -16 -6 -25 -3 -9 -2 -16 4 -16 5 0 12 11 14 25
3 14 1 25 -3 25 -5 0 -9 -4 -9 -9z"/>
<path d="M1575 1290 c-3 -5 1 -10 10 -10 9 0 13 5 10 10 -3 6 -8 10 -10 10 -2
0 -7 -4 -10 -10z"/>
<path d="M446 1267 c3 -10 9 -15 12 -12 3 3 0 11 -7 18 -10 9 -11 8 -5 -6z"/>
<path d="M406 1219 c1 -28 6 -54 10 -57 4 -4 4 6 0 21 -4 18 -3 26 3 23 6 -4
6 5 1 25 -14 47 -17 45 -14 -12z"/>
<path d="M958 1218 c5 -5 16 -8 23 -6 8 3 3 7 -10 11 -17 4 -21 3 -13 -5z"/>
<path d="M1030 1220 c8 -5 24 -10 34 -10 26 0 18 6 -19 14 -22 5 -26 4 -15 -4z"/>
<path d="M1454 1209 c-13 -5 -7 -8 24 -8 23 -1 42 1 42 3 0 8 -48 12 -66 5z"/>
<path d="M1040 1191 c0 -5 -8 -12 -17 -14 -14 -4 -12 -5 5 -6 13 -1 22 5 22
14 0 8 -2 15 -5 15 -3 0 -5 -4 -5 -9z"/>
<path d="M1088 1193 c7 -3 16 -2 19 1 4 3 -2 6 -13 5 -11 0 -14 -3 -6 -6z"/>
<path d="M1193 1193 c-6 -5 18 -8 52 -8 35 0 66 3 69 5 8 8 -108 11 -121 3z"/>
<path d="M1345 1190 c27 -12 43 -12 25 0 -8 5 -22 9 -30 9 -10 0 -8 -3 5 -9z"/>
<path d="M1390 1190 c0 -5 5 -10 11 -10 5 0 7 5 4 10 -3 6 -8 10 -11 10 -2 0
-4 -4 -4 -10z"/>
<path d="M1420 1186 c0 -8 4 -17 9 -20 5 -4 7 3 4 14 -6 23 -13 26 -13 6z"/>
<path d="M320 1181 c0 -6 5 -13 10 -16 6 -3 10 1 10 9 0 9 -4 16 -10 16 -5 0
-10 -4 -10 -9z"/>
<path d="M1128 1173 c6 -2 18 -2 25 0 6 3 1 5 -13 5 -14 0 -19 -2 -12 -5z"/>
<path d="M978 1153 c6 -2 18 -2 25 0 6 3 1 5 -13 5 -14 0 -19 -2 -12 -5z"/>
<path d="M1401 1143 c0 -13 4 -23 10 -23 7 0 9 -10 5 -25 -4 -14 -2 -25 3 -25
10 0 25 69 17 78 -3 3 -6 0 -6 -6 0 -19 -18 -14 -23 6 -4 13 -5 11 -6 -5z"/>
<path d="M782 1138 c-16 -16 -15 -28 1 -28 7 0 13 9 13 20 0 11 -1 20 -1 20
-1 0 -6 -5 -13 -12z"/>
<path d="M810 1130 c0 -5 5 -10 10 -10 6 0 10 5 10 10 0 6 -4 10 -10 10 -5 0
-10 -4 -10 -10z"/>
<path d="M1067 1129 c-304 -45 -491 -212 -528 -470 -11 -77 -5 -269 8 -256 2
3 9 38 14 78 26 183 122 325 264 389 83 37 153 50 295 57 l135 6 60 93 c33 52
64 94 68 94 5 0 6 4 3 9 -7 11 -243 12 -319 0z m219 -26 c13 -17 13 -17 14 0
0 9 5 17 11 17 6 0 8 -7 5 -16 -3 -9 -6 -23 -6 -31 0 -13 -3 -13 -15 -3 -12
10 -15 10 -15 -2 0 -8 6 -20 13 -27 10 -10 9 -11 -6 -5 -13 5 -16 2 -11 -10 3
-9 2 -16 -4 -16 -5 0 -15 -13 -21 -28 -11 -26 -17 -29 -64 -30 -29 -1 -76 2
-104 7 -38 6 -50 5 -44 -3 6 -8 -2 -12 -25 -14 -22 -1 -33 2 -29 8 9 14 -7 13
-45 -4 -23 -9 -28 -15 -19 -20 8 -3 3 -4 -10 -2 -14 3 -30 1 -35 -3 -6 -5 -40
-21 -74 -36 -61 -25 -65 -25 -78 -8 -7 10 -11 25 -8 33 4 11 2 12 -7 3 -9 -9
-6 -19 11 -43 12 -17 17 -29 12 -28 -12 4 -82 -59 -82 -73 0 -6 -5 -7 -12 -3
-8 5 -9 2 -5 -10 5 -12 3 -16 -5 -14 -7 3 -15 15 -16 27 -2 15 0 21 7 17 7 -4
8 -1 5 8 -3 9 -11 13 -17 9 -6 -3 -7 -1 -3 6 4 6 12 8 18 5 7 -5 9 -1 5 8 -3
9 3 24 14 34 10 9 19 23 19 29 0 7 7 15 15 19 8 3 15 12 15 21 0 8 3 14 8 13
4 -2 9 2 11 7 7 17 35 33 48 28 8 -3 11 0 8 9 -7 17 64 49 95 43 11 -2 22 0
25 6 4 5 -4 9 -17 10 -17 0 -13 4 17 15 28 10 46 12 60 5 35 -17 65 -23 65
-12 0 5 8 12 18 14 9 2 -2 4 -25 3 -23 0 -43 4 -43 9 -1 11 48 21 160 34 124
14 151 13 166 -6z m-701 -430 c-25 -55 -26 -56 -20 -18 4 22 12 44 18 48 9 6
9 10 -1 14 -10 4 -9 8 5 19 10 7 13 14 6 14 -8 0 -10 7 -6 17 6 14 8 12 15 -9
7 -20 3 -40 -17 -85z"/>
<path d="M910 1050 c0 -5 5 -10 10 -10 6 0 10 5 10 10 0 6 -4 10 -10 10 -5 0
-10 -4 -10 -10z"/>
<path d="M1232 1029 c2 -7 10 -15 17 -17 8 -3 12 1 9 9 -2 7 -10 15 -17 17 -8
3 -12 -1 -9 -9z"/>
<path d="M1200 1020 c0 -5 5 -10 11 -10 5 0 7 5 4 10 -3 6 -8 10 -11 10 -2 0
-4 -4 -4 -10z"/>
<path d="M1202 980 c0 -14 2 -19 5 -12 2 6 2 18 0 25 -3 6 -5 1 -5 -13z"/>
<path d="M1226 991 c-4 -7 -5 -15 -2 -18 9 -9 19 4 14 18 -4 11 -6 11 -12 0z"/>
<path d="M795 961 c57 -26 84 -28 115 -10 10 5 -1 7 -30 6 -25 -1 -58 1 -75 5
-21 5 -24 5 -10 -1z"/>
<path d="M805 910 c-3 -5 -1 -10 4 -10 6 0 11 5 11 10 0 6 -2 10 -4 10 -3 0
-8 -4 -11 -10z"/>
<path d="M860 1106 c7 -7 13 -7 20 0 6 6 3 10 -10 10 -13 0 -16 -4 -10 -10z"/>
<path d="M705 1086 c0 -36 12 -41 13 -6 0 16 -3 30 -7 30 -4 0 -7 -11 -6 -24z"/>
<path d="M660 1073 c0 -5 5 -15 10 -23 7 -12 9 -10 7 8 -1 19 -17 33 -17 15z"/>
<path d="M320 1056 c0 -9 5 -16 10 -16 6 0 10 4 10 9 0 6 -4 13 -10 16 -5 3
-10 -1 -10 -9z"/>
<path d="M640 1020 c0 -5 7 -10 16 -10 8 0 12 5 9 10 -3 6 -10 10 -16 10 -5 0
-9 -4 -9 -10z"/>
<path d="M616 1004 c-4 -9 -4 -19 -1 -22 2 -3 7 3 11 12 4 9 4 19 1 22 -2 3
-7 -3 -11 -12z"/>
<path d="M1342 985 c-9 -19 -9 -25 1 -25 6 0 13 11 13 25 2 31 0 31 -14 0z"/>
<path d="M628 978 c-10 -10 -14 -18 -9 -18 10 0 36 29 30 34 -2 1 -12 -6 -21
-16z"/>
<path d="M1423 970 c-1 -11 2 -22 8 -25 5 -4 9 5 9 19 0 30 -15 35 -17 6z"/>
<path d="M322 940 c0 -14 2 -19 5 -12 2 6 2 18 0 25 -3 6 -5 1 -5 -13z"/>
<path d="M566 926 c3 -8 12 -17 20 -20 12 -4 12 -2 4 14 -12 23 -32 27 -24 6z"/>
<path d="M342 900 c0 -14 2 -19 5 -12 2 6 2 18 0 25 -3 6 -5 1 -5 -13z"/>
<path d="M1235 890 c-3 -5 -2 -10 4 -10 5 0 13 5 16 10 3 6 2 10 -4 10 -5 0
-13 -4 -16 -10z"/>
<path d="M1420 890 c0 -5 5 -10 10 -10 6 0 10 5 10 10 0 6 -4 10 -10 10 -5 0
-10 -4 -10 -10z"/>
<path d="M570 879 c0 -5 5 -7 10 -4 6 3 10 8 10 11 0 2 -4 4 -10 4 -5 0 -10
-5 -10 -11z"/>
<path d="M1058 883 c12 -2 30 -2 40 0 9 3 -1 5 -23 4 -22 0 -30 -2 -17 -4z"/>
<path d="M550 850 c0 -5 5 -10 11 -10 5 0 7 5 4 10 -3 6 -8 10 -11 10 -2 0 -4
-4 -4 -10z"/>
<path d="M861 837 c-6 -8 -8 -17 -4 -20 11 -12 19 -7 20 13 2 24 -1 25 -16 7z"/>
<path d="M530 835 c0 -5 5 -17 10 -25 5 -8 10 -10 10 -5 0 6 -5 17 -10 25 -5
8 -10 11 -10 5z"/>
<path d="M805 810 c-3 -6 1 -7 9 -4 9 3 16 1 16 -5 0 -6 5 -11 11 -11 8 0 8 5
-1 15 -14 17 -26 19 -35 5z"/>
<path d="M938 793 c7 -3 16 -2 19 1 4 3 -2 6 -13 5 -11 0 -14 -3 -6 -6z"/>
<path d="M800 786 c0 -2 7 -7 16 -10 8 -3 12 -2 9 4 -6 10 -25 14 -25 6z"/>
<path d="M875 780 c-3 -6 1 -7 9 -4 18 7 21 14 7 14 -6 0 -13 -4 -16 -10z"/>
<path d="M934 765 c-151 -33 -251 -128 -300 -282 -8 -26 -17 -91 -19 -143 -4
-96 -3 -96 16 -3 11 55 68 152 115 197 16 15 56 41 89 58 51 26 72 30 142 32
46 0 85 6 87 11 2 6 26 40 54 76 l49 66 -86 1 c-47 1 -114 -5 -147 -13z m164
-28 c-10 -8 -15 -17 -12 -20 3 -3 -6 -13 -20 -22 -14 -10 -26 -22 -26 -29 0
-6 5 -4 11 4 9 13 10 13 6 0 -3 -11 -19 -15 -58 -16 -30 -1 -69 -5 -85 -8 -27
-6 -34 -3 -49 20 -22 34 -10 59 31 60 56 2 65 4 60 13 -3 4 32 9 77 10 71 1
80 -1 65 -12z m-252 -62 c3 -14 10 -25 15 -25 22 0 6 -19 -21 -25 -16 -4 -30
-10 -30 -14 0 -5 -21 -15 -47 -24 -27 -9 -42 -16 -35 -16 6 -1 12 -6 12 -12 0
-5 -4 -8 -9 -4 -6 3 -14 -3 -20 -12 -11 -20 -12 -19 -16 14 -1 12 1 20 5 18 4
-3 11 6 14 20 7 29 22 33 29 8 3 -13 5 -11 7 7 1 14 2 28 2 31 -1 4 8 15 18
24 11 10 20 13 20 7 0 -6 -8 -16 -17 -22 -16 -9 -15 -10 5 -5 26 7 28 2 6 -19
-17 -17 -8 -21 15 -7 8 5 12 18 8 30 -3 12 -1 21 4 21 5 0 9 7 9 15 0 24 19
17 26 -10z m-151 -155 c3 -5 2 -10 -4 -10 -5 0 -13 5 -16 10 -3 6 -2 10 4 10
5 0 13 -4 16 -10z"/>
<path d="M1003 723 c9 -2 23 -2 30 0 6 3 -1 5 -18 5 -16 0 -22 -2 -12 -5z"/>
<path d="M1051 717 c-8 -10 -7 -14 4 -14 8 0 15 6 15 14 0 7 -2 13 -4 13 -2 0
-9 -6 -15 -13z"/>
<path d="M872 700 c0 -14 2 -19 5 -12 2 6 2 18 0 25 -3 6 -5 1 -5 -13z"/>
<path d="M1265 741 c-3 -5 -1 -12 5 -16 5 -3 10 1 10 9 0 18 -6 21 -15 7z"/>
<path d="M1175 730 c-3 -5 -2 -10 4 -10 5 0 13 5 16 10 3 6 2 10 -4 10 -5 0
-13 -4 -16 -10z"/>
<path d="M496 693 c-6 -14 -5 -15 5 -6 7 7 10 15 7 18 -3 3 -9 -2 -12 -12z"/>
<path d="M664 684 c3 -9 6 -20 6 -25 0 -6 5 -7 10 -4 8 5 8 11 1 19 -6 7 -8
16 -4 19 3 4 1 7 -6 7 -8 0 -11 -6 -7 -16z"/>
<path d="M1105 651 c-3 -5 -2 -12 3 -15 5 -3 9 1 9 9 0 17 -3 19 -12 6z"/>
<path d="M622 615 c-17 -37 -14 -45 4 -12 9 16 14 31 11 33 -2 2 -9 -7 -15
-21z"/>
<path d="M402 605 c0 -16 2 -22 5 -12 2 9 2 23 0 30 -3 6 -5 -1 -5 -18z"/>
<path d="M1080 609 c0 -5 5 -7 10 -4 6 3 10 8 10 11 0 2 -4 4 -10 4 -5 0 -10
-5 -10 -11z"/>
<path d="M645 599 c-4 -6 -5 -12 -2 -15 2 -3 7 2 10 11 7 17 1 20 -8 4z"/>
<path d="M918 593 c7 -3 16 -2 19 1 4 3 -2 6 -13 5 -11 0 -14 -3 -6 -6z"/>
<path d="M1106 592 c-2 -4 -1 -14 5 -22 7 -12 9 -10 9 8 0 23 -5 28 -14 14z"/>
<path d="M901 576 c2 -2 18 -6 34 -10 22 -5 26 -4 15 4 -14 9 -59 15 -49 6z"/>
<path d="M1065 570 c-3 -5 -1 -10 4 -10 6 0 11 5 11 10 0 6 -2 10 -4 10 -3 0
-8 -4 -11 -10z"/>
<path d="M407 563 c-4 -3 -7 -16 -6 -27 0 -12 3 -15 6 -8 2 6 9 10 14 6 5 -3
9 0 9 5 0 6 -5 11 -11 11 -5 0 -7 5 -4 10 7 11 2 13 -8 3z"/>
<path d="M502 504 c-1 -12 -5 -37 -8 -55 -4 -28 -3 -31 6 -16 6 9 9 34 7 55
-2 20 -4 27 -5 16z"/>
<path d="M784 509 c-3 -6 -2 -15 3 -20 5 -5 9 -1 9 11 0 23 -2 24 -12 9z"/>
<path d="M407 497 c-3 -7 3 -13 13 -13 10 0 16 6 13 13 -3 7 -9 13 -13 13 -4
0 -10 -6 -13 -13z"/>
<path d="M597 483 c-4 -3 -7 -11 -7 -17 0 -6 5 -5 12 2 6 6 9 14 7 17 -3 3 -9
2 -12 -2z"/>
<path d="M685 411 c-3 -5 -2 -12 3 -15 5 -3 9 1 9 9 0 17 -3 19 -12 6z"/>
<path d="M576 385 c-3 -9 -6 -24 -5 -33 0 -9 5 -4 10 12 9 32 6 48 -5 21z"/>
<path d="M686 363 c-6 -14 -5 -15 5 -6 7 7 10 15 7 18 -3 3 -9 -2 -12 -12z"/>
<path d="M711 354 c0 -11 3 -14 6 -6 3 7 2 16 -1 19 -3 4 -6 -2 -5 -13z"/>
<path d="M650 329 c0 -5 9 -9 20 -9 11 0 20 2 20 4 0 2 -9 6 -20 9 -11 3 -20
1 -20 -4z"/>
<path d="M563 304 c-3 -8 -2 -19 3 -24 5 -5 10 1 10 16 2 27 -4 31 -13 8z"/>
<path d="M586 261 c-4 -7 -5 -15 -2 -18 9 -9 19 4 14 18 -4 11 -6 11 -12 0z"/>
</g>
</svg>
