<?xml version="1.0" standalone="no"?>
<!DOCTYPE svg PUBLIC "-//W3C//DTD SVG 20010904//EN"
 "http://www.w3.org/TR/2001/REC-SVG-20010904/DTD/svg10.dtd">
<svg version="1.0" xmlns="http://www.w3.org/2000/svg"
 width="192.000000pt" height="192.000000pt" viewBox="0 0 192.000000 192.000000"
 preserveAspectRatio="xMidYMid meet">
<metadata>
Created by potrace 1.16, written by Peter Selinger 2001-2019
</metadata>
<g transform="translate(0.000000,192.000000) scale(0.100000,-0.100000)"
fill="#000000" stroke="none">
<path d="M1360 1676 c0 -2 7 -6 15 -10 8 -3 15 -1 15 4 0 6 -7 10 -15 10 -8 0
-15 -2 -15 -4z"/>
<path d="M850 1590 c-12 -8 -11 -10 8 -10 12 0 22 5 22 10 0 13 -11 13 -30 0z"/>
<path d="M1115 1585 c-122 -17 -295 -66 -348 -99 -179 -111 -226 -154 -289
-260 -100 -170 -119 -336 -67 -591 12 -55 27 -113 34 -130 11 -26 12 -12 7 95
-6 168 16 259 92 370 127 184 399 281 754 267 128 -5 133 -5 144 16 6 12 55
89 110 171 54 82 97 150 95 152 -6 6 -293 24 -367 23 -41 -1 -115 -7 -165 -14z
m352 -26 c112 -26 126 -30 115 -41 -7 -7 -17 -6 -32 2 -12 6 -24 9 -27 7 -2
-3 5 -8 16 -12 12 -3 21 -11 21 -18 0 -16 -41 -57 -58 -57 -10 0 -12 -7 -8
-25 4 -14 2 -25 -4 -25 -5 0 -10 -9 -10 -20 0 -11 -5 -20 -12 -20 -6 0 -8 3
-5 7 4 3 2 12 -5 20 -8 11 -7 17 8 28 17 13 18 14 2 15 -10 0 -18 -3 -19 -7
-6 -40 -4 -81 3 -77 4 3 8 0 8 -5 0 -6 -4 -11 -10 -11 -5 0 -16 -13 -25 -30
l-15 -29 -195 3 c-107 1 -196 0 -197 -3 -2 -3 -41 -14 -87 -24 -46 -9 -97 -24
-114 -32 -16 -8 -33 -12 -38 -10 -16 10 -60 -7 -55 -21 3 -9 -6 -15 -29 -20
-24 -4 -32 -10 -28 -21 4 -9 0 -14 -8 -13 -36 5 -59 -1 -59 -16 0 -14 3 -14
15 -4 9 7 18 10 21 7 8 -7 -32 -28 -48 -25 -7 2 -12 -3 -10 -9 1 -7 -2 -13 -8
-13 -5 0 -10 -10 -11 -22 0 -13 -3 -17 -6 -10 -7 17 -23 15 -23 -3 0 -8 -5
-15 -11 -15 -6 0 -9 -7 -6 -14 4 -10 1 -13 -9 -9 -17 6 -18 15 -3 30 7 7 6 12
-5 16 -22 9 -22 -36 0 -54 14 -11 14 -13 0 -21 -9 -5 -16 -17 -16 -26 0 -9 -5
-24 -10 -32 -12 -17 -9 132 3 165 4 11 -2 2 -13 -20 -15 -30 -19 -54 -16 -96
2 -31 6 -61 10 -67 4 -6 0 -27 -8 -46 -8 -19 -11 -38 -8 -42 4 -4 0 -5 -8 -2
-11 3 -15 20 -16 59 -2 65 25 229 37 229 5 0 9 15 10 33 1 30 1 31 9 7 7 -22
8 -19 9 16 1 22 4 44 9 48 4 4 7 11 7 14 0 4 8 18 18 32 11 15 17 19 17 10 1
-8 7 0 16 19 8 19 26 45 41 58 25 24 26 24 20 3 -3 -14 -1 -20 6 -17 7 2 14
14 15 28 5 36 42 71 69 66 13 -2 23 0 23 4 0 5 -5 9 -12 9 -6 0 -8 3 -4 8 4 4
11 6 14 5 4 0 15 3 26 9 10 6 43 10 72 9 29 0 55 3 58 7 2 4 -24 7 -57 6 -34
0 -54 1 -44 3 9 3 17 9 17 14 0 6 16 7 38 4 27 -5 33 -4 22 4 -13 10 -13 11 0
12 26 3 34 6 63 17 16 7 37 12 48 12 10 0 19 5 19 11 0 7 12 10 30 7 17 -3 30
-1 30 2 0 24 340 39 427 19z m53 -139 c0 -5 -4 -10 -10 -10 -5 0 -10 5 -10 10
0 6 5 10 10 10 6 0 10 -4 10 -10z"/>
<path d="M1183 1553 c11 -3 16 -11 13 -19 -3 -8 1 -14 9 -14 8 0 12 6 9 14 -4
11 4 16 33 19 25 2 17 4 -22 4 -33 0 -52 -1 -42 -4z"/>
<path d="M1405 1550 c27 -12 35 -12 35 0 0 6 -12 10 -27 9 -25 0 -26 -1 -8 -9z"/>
<path d="M1100 1540 c-20 -6 -14 -8 25 -8 37 -1 45 2 30 8 -24 10 -23 10 -55
0z"/>
<path d="M1298 1533 c12 -2 32 -2 45 0 12 2 2 4 -23 4 -25 0 -35 -2 -22 -4z"/>
<path d="M1453 1523 c9 -2 25 -2 35 0 9 3 1 5 -18 5 -19 0 -27 -2 -17 -5z"/>
<path d="M1440 1450 c0 -5 7 -10 16 -10 8 0 12 5 9 10 -3 6 -10 10 -16 10 -5
0 -9 -4 -9 -10z"/>
<path d="M1280 1280 c0 -12 24 -12 60 0 21 7 19 8 -17 9 -24 1 -43 -3 -43 -9z"/>
<path d="M880 1268 c0 -5 18 -8 40 -8 22 0 40 2 40 4 0 2 -18 6 -40 8 -22 2
-40 0 -40 -4z"/>
<path d="M1128 1273 c7 -3 16 -2 19 1 4 3 -2 6 -13 5 -11 0 -14 -3 -6 -6z"/>
<path d="M546 1225 c-9 -26 -7 -32 5 -12 6 10 9 21 6 23 -2 3 -7 -2 -11 -11z"/>
<path d="M678 1178 c9 -9 15 -9 24 0 9 9 7 12 -12 12 -19 0 -21 -3 -12 -12z"/>
<path d="M560 1109 c0 -5 5 -7 10 -4 6 3 10 8 10 11 0 2 -4 4 -10 4 -5 0 -10
-5 -10 -11z"/>
<path d="M1667 1543 c-2 -5 0 -21 4 -38 7 -29 7 -29 8 8 1 35 -3 46 -12 30z"/>
<path d="M708 1513 c7 -3 16 -2 19 1 4 3 -2 6 -13 5 -11 0 -14 -3 -6 -6z"/>
<path d="M660 1490 c0 -5 5 -10 11 -10 5 0 7 5 4 10 -3 6 -8 10 -11 10 -2 0
-4 -4 -4 -10z"/>
<path d="M585 1420 c3 -5 8 -10 11 -10 2 0 4 5 4 10 0 6 -5 10 -11 10 -5 0 -7
-4 -4 -10z"/>
<path d="M508 1353 c6 -2 18 -2 25 0 6 3 1 5 -13 5 -14 0 -19 -2 -12 -5z"/>
<path d="M1585 1290 c-3 -5 -1 -10 4 -10 6 0 11 5 11 10 0 6 -2 10 -4 10 -3 0
-8 -4 -11 -10z"/>
<path d="M404 1250 c-1 -17 3 -30 7 -30 5 0 9 14 9 30 0 39 -15 39 -16 0z"/>
<path d="M1512 1250 c0 -14 2 -19 5 -12 2 6 2 18 0 25 -3 6 -5 1 -5 -13z"/>
<path d="M1467 1233 c-4 -3 -7 -11 -7 -17 0 -6 5 -5 12 2 6 6 9 14 7 17 -3 3
-9 2 -12 -2z"/>
<path d="M908 1163 c7 -3 16 -2 19 1 4 3 -2 6 -13 5 -11 0 -14 -3 -6 -6z"/>
<path d="M886 1111 c-3 -4 6 -6 19 -3 14 2 25 6 25 8 0 8 -39 4 -44 -5z"/>
<path d="M1000 1080 c-151 -26 -273 -86 -357 -176 -94 -101 -133 -222 -133
-415 0 -112 14 -147 25 -61 32 245 138 380 346 438 30 8 114 18 187 21 l134 6
53 82 c29 46 58 86 64 89 32 20 0 26 -131 25 -79 -1 -163 -5 -188 -9z m205
-21 c-38 -7 -37 -8 13 -5 38 2 52 -1 52 -10 0 -8 -6 -11 -17 -7 -13 5 -15 2
-10 -11 6 -14 3 -16 -14 -11 -18 6 -19 5 -8 -14 15 -23 3 -43 -12 -21 -8 12
-10 10 -6 -7 5 -22 3 -23 -80 -23 -47 0 -82 -4 -79 -9 3 -5 37 -7 76 -4 48 4
70 2 70 -6 0 -14 -92 -14 -199 0 -93 13 -121 6 -39 -9 l53 -10 -56 -1 c-31 0
-71 -8 -88 -17 -18 -9 -45 -17 -59 -19 -41 -3 -82 -16 -82 -26 0 -5 7 -6 15
-3 30 12 14 -5 -20 -22 -19 -9 -35 -20 -35 -25 0 -5 -6 -6 -14 -3 -9 3 -15 -5
-19 -25 -4 -18 -13 -31 -22 -31 -8 0 -15 -4 -15 -10 0 -13 -32 -50 -43 -50 -5
0 -6 12 -3 28 9 38 39 102 49 102 5 0 5 -4 2 -10 -3 -5 0 -10 8 -10 15 0 19
31 6 40 -5 3 5 21 22 40 20 21 33 29 38 22 4 -7 11 -5 19 8 10 17 9 18 -5 13
-15 -6 -16 -5 -3 9 8 9 18 14 21 12 3 -2 16 6 28 17 12 11 25 18 30 15 5 -3
11 3 14 14 4 16 12 18 43 15 28 -4 32 -3 14 3 -20 7 -12 11 55 30 45 12 91 19
104 15 18 -5 22 -3 16 7 -7 11 3 12 46 7 36 -4 49 -3 39 3 -10 7 9 9 60 8 66
-1 70 -2 35 -9z"/>
<path d="M809 967 c5 -5 19 -7 32 -5 20 3 19 5 -9 9 -20 3 -29 2 -23 -4z"/>
<path d="M888 953 c7 -3 16 -2 19 1 4 3 -2 6 -13 5 -11 0 -14 -3 -6 -6z"/>
<path d="M608 768 c-18 -15 -31 -48 -19 -48 5 0 11 9 14 20 3 11 12 20 21 20
9 0 16 5 16 10 0 14 -13 13 -32 -2z"/>
<path d="M333 1054 c-8 -17 -9 -32 -2 -47 8 -20 9 -19 4 5 -3 15 0 28 6 30 6
2 10 11 8 21 -3 13 -7 11 -16 -9z"/>
<path d="M710 1040 c0 -5 5 -10 11 -10 5 0 7 5 4 10 -3 6 -8 10 -11 10 -2 0
-4 -4 -4 -10z"/>
<path d="M670 1026 c0 -9 5 -16 10 -16 6 0 10 4 10 9 0 6 -4 13 -10 16 -5 3
-10 -1 -10 -9z"/>
<path d="M1351 984 c0 -11 3 -14 6 -6 3 7 2 16 -1 19 -3 4 -6 -2 -5 -13z"/>
<path d="M588 972 c-3 -12 2 -23 13 -31 23 -14 26 4 5 32 -13 17 -14 17 -18
-1z"/>
<path d="M631 974 c0 -11 3 -14 6 -6 3 7 2 16 -1 19 -3 4 -6 -2 -5 -13z"/>
<path d="M1420 970 c0 -5 5 -10 10 -10 6 0 10 5 10 10 0 6 -4 10 -10 10 -5 0
-10 -4 -10 -10z"/>
<path d="M322 915 c0 -16 2 -22 5 -12 2 9 2 23 0 30 -3 6 -5 -1 -5 -18z"/>
<path d="M556 900 c7 -28 12 -35 18 -29 2 2 -2 15 -10 29 l-15 25 7 -25z"/>
<path d="M1265 900 c-3 -5 -1 -10 4 -10 6 0 11 5 11 10 0 6 -2 10 -4 10 -3 0
-8 -4 -11 -10z"/>
<path d="M330 858 c0 -19 2 -20 10 -8 13 19 13 30 0 30 -5 0 -10 -10 -10 -22z"/>
<path d="M525 840 c3 -5 8 -10 11 -10 2 0 4 5 4 10 0 6 -5 10 -11 10 -5 0 -7
-4 -4 -10z"/>
<path d="M1015 820 c10 -16 76 -30 94 -20 12 7 5 9 -26 10 -24 0 -43 5 -43 10
0 6 -7 10 -16 10 -8 0 -13 -4 -9 -10z"/>
<path d="M827 803 c-12 -12 -7 -23 11 -23 13 0 14 2 3 9 -11 7 -11 9 0 14 8 3
9 6 3 6 -6 1 -14 -2 -17 -6z"/>
<path d="M875 799 c-4 -6 -4 -13 -1 -16 8 -8 36 5 36 17 0 13 -27 13 -35 -1z"/>
<path d="M770 780 c0 -5 7 -7 15 -4 8 4 15 8 15 10 0 2 -7 4 -15 4 -8 0 -15
-4 -15 -10z"/>
<path d="M905 735 c-83 -18 -109 -30 -161 -69 -62 -48 -100 -103 -128 -189
-27 -79 -45 -214 -28 -204 5 4 13 23 17 44 11 60 53 133 109 188 65 65 140 95
236 95 l69 0 46 70 c25 39 45 73 45 75 0 10 -148 3 -205 -10z m137 -27 c2 -6
-6 -22 -19 -36 -12 -13 -20 -29 -17 -34 4 -6 -2 -7 -15 -3 -11 3 -21 2 -21 -3
0 -5 -13 -7 -30 -4 -32 5 -128 -15 -147 -30 -7 -5 -21 -7 -32 -3 -10 3 -22 1
-26 -5 -3 -5 -1 -10 5 -10 6 0 8 -5 5 -10 -4 -6 -11 -8 -16 -5 -5 4 -9 0 -9
-8 0 -8 -7 -17 -15 -21 -8 -3 -15 -1 -15 4 0 6 5 10 10 10 6 0 10 5 10 11 0 5
-4 7 -10 4 -5 -3 -10 -2 -10 4 0 16 18 22 23 9 3 -7 6 -4 6 6 1 26 40 66 57
59 8 -3 14 1 14 11 0 9 5 16 11 16 6 0 25 7 42 15 58 27 193 43 199 23z m-362
-182 c0 -8 -4 -18 -10 -21 -5 -3 -10 3 -10 14 0 12 5 21 10 21 6 0 10 -6 10
-14z"/>
<path d="M865 670 c3 -5 8 -10 11 -10 2 0 4 5 4 10 0 6 -5 10 -11 10 -5 0 -7
-4 -4 -10z"/>
<path d="M843 633 c9 -2 23 -2 30 0 6 3 -1 5 -18 5 -16 0 -22 -2 -12 -5z"/>
<path d="M765 619 c-10 -15 3 -25 16 -12 7 7 7 13 1 17 -6 3 -14 1 -17 -5z"/>
<path d="M327 726 c-10 -26 -8 -33 4 -16 7 11 9 3 5 -30 -5 -43 -5 -44 6 -12
7 21 8 39 1 54 -9 20 -10 20 -16 4z"/>
<path d="M711 714 c0 -11 3 -14 6 -6 3 7 2 16 -1 19 -3 4 -6 -2 -5 -13z"/>
<path d="M660 660 c0 -5 5 -10 10 -10 6 0 10 5 10 10 0 6 -4 10 -10 10 -5 0
-10 -4 -10 -10z"/>
<path d="M1100 605 c0 -8 5 -15 10 -15 6 0 10 7 10 15 0 8 -4 15 -10 15 -5 0
-10 -7 -10 -15z"/>
<path d="M1060 570 c0 -5 5 -10 11 -10 5 0 7 5 4 10 -3 6 -8 10 -11 10 -2 0
-4 -4 -4 -10z"/>
<path d="M908 563 c6 -2 18 -2 25 0 6 3 1 5 -13 5 -14 0 -19 -2 -12 -5z"/>
<path d="M580 530 c0 -5 5 -10 10 -10 6 0 10 5 10 10 0 6 -4 10 -10 10 -5 0
-10 -4 -10 -10z"/>
<path d="M745 499 c-9 -14 -2 -20 14 -10 8 6 9 11 3 15 -6 3 -14 1 -17 -5z"/>
<path d="M791 494 c0 -11 3 -14 6 -6 3 7 2 16 -1 19 -3 4 -6 -2 -5 -13z"/>
<path d="M700 455 c0 -5 5 -17 10 -25 5 -8 10 -10 10 -5 0 6 -5 17 -10 25 -5
8 -10 11 -10 5z"/>
<path d="M552 355 c0 -16 2 -22 5 -12 2 9 2 23 0 30 -3 6 -5 -1 -5 -18z"/>
<path d="M490 344 c0 -8 5 -12 10 -9 6 3 10 10 10 16 0 5 -4 9 -10 9 -5 0 -10
-7 -10 -16z"/>
</g>
</svg>
