<?xml version="1.0" standalone="no"?>
<!DOCTYPE svg PUBLIC "-//W3C//DTD SVG 20010904//EN"
 "http://www.w3.org/TR/2001/REC-SVG-20010904/DTD/svg10.dtd">
<svg version="1.0" xmlns="http://www.w3.org/2000/svg"
 width="144.000000pt" height="144.000000pt" viewBox="0 0 144.000000 144.000000"
 preserveAspectRatio="xMidYMid meet">
<metadata>
Created by potrace 1.16, written by Peter Selinger 2001-2019
</metadata>
<g transform="translate(0.000000,144.000000) scale(0.100000,-0.100000)"
fill="#000000" stroke="none">
<path d="M120 1429 c-42 -9 -88 -54 -100 -98 -6 -22 -10 -266 -10 -618 0 -513
2 -587 16 -623 18 -45 53 -74 101 -85 27 -5 32 -4 27 8 -3 8 -16 18 -29 21
-12 3 -37 22 -54 41 l-31 36 0 600 c0 662 -2 640 63 679 31 19 54 20 617 20
563 0 586 -1 617 -20 58 -35 63 -57 63 -280 0 -110 -2 -200 -4 -200 -2 0 -134
77 -294 170 -325 191 -360 205 -465 181 -93 -21 -116 -49 -305 -373 -212 -366
-214 -369 -220 -443 -6 -79 23 -148 85 -206 81 -75 74 -74 488 -77 204 -2 393
-1 421 3 77 9 152 58 183 119 21 42 26 64 26 135 l0 86 -101 183 -101 183 -87
54 c-90 57 -136 69 -136 38 0 -10 58 -123 129 -252 71 -128 132 -248 135 -266
8 -41 -4 -73 -39 -105 l-27 -25 -341 -3 c-188 -2 -352 0 -365 3 -35 9 -100 73
-107 106 -6 24 0 42 28 87 19 31 98 167 176 302 143 247 183 300 224 300 28 0
136 -60 446 -245 l250 -150 0 -298 c1 -339 1 -341 -76 -378 -24 -11 -43 -25
-43 -30 0 -13 62 2 91 22 54 38 59 71 59 398 l0 298 -325 196 c-179 108 -343
201 -364 208 -32 9 -44 8 -81 -8 -41 -18 -49 -30 -226 -333 -196 -336 -203
-354 -169 -420 8 -16 35 -41 58 -55 l44 -25 362 0 c397 0 406 1 436 60 8 16
15 50 15 76 0 50 -48 150 -200 415 -37 66 -65 119 -61 118 3 0 44 -26 90 -57
l85 -57 97 -175 c97 -174 98 -175 98 -245 1 -109 -43 -183 -131 -219 -55 -23
-800 -24 -855 -1 -56 23 -102 63 -134 113 -24 38 -29 57 -29 106 0 38 8 76 19
101 31 67 361 628 384 653 57 61 170 81 252 43 22 -10 171 -95 332 -189 161
-95 295 -172 298 -172 4 0 5 108 3 239 -3 224 -4 241 -24 267 -51 68 -7 64
-661 67 -326 1 -606 -1 -623 -4z"/>
</g>
</svg>
