<?xml version="1.0" standalone="no"?>
<!DOCTYPE svg PUBLIC "-//W3C//DTD SVG 20010904//EN"
 "http://www.w3.org/TR/2001/REC-SVG-20010904/DTD/svg10.dtd">
<svg version="1.0" xmlns="http://www.w3.org/2000/svg"
 width="192.000000pt" height="192.000000pt" viewBox="0 0 192.000000 192.000000"
 preserveAspectRatio="xMidYMid meet">
<metadata>
Created by potrace 1.16, written by Peter Selinger 2001-2019
</metadata>
<g transform="translate(0.000000,192.000000) scale(0.100000,-0.100000)"
fill="#000000" stroke="none">
<path d="M715 1910 c-3 -5 -15 -10 -25 -10 -22 0 -26 -13 -34 -106 -6 -73 -14
-94 -32 -94 -9 0 -14 -12 -14 -35 0 -25 4 -35 15 -35 20 0 35 -40 35 -91 l0
-39 -215 0 c-210 0 -215 0 -215 21 0 18 -5 20 -42 17 -43 -3 -43 -3 -46 -45
-3 -38 -1 -43 17 -43 21 0 21 -4 21 -244 0 -204 2 -247 15 -260 8 -8 15 -19
15 -25 0 -7 29 -11 79 -11 70 0 79 2 84 20 3 13 20 24 51 32 32 8 46 17 46 29
0 10 9 21 20 24 30 9 60 -4 60 -26 0 -13 7 -19 23 -19 13 0 37 -14 55 -33 30
-31 32 -37 31 -102 0 -54 -2 -65 -10 -47 -7 19 -15 23 -41 20 -29 -3 -33 -7
-36 -36 -3 -28 1 -35 20 -40 34 -10 -68 -19 -135 -12 -44 4 -52 8 -55 27 -2
15 -13 25 -28 29 -32 8 -170 1 -181 -9 -12 -13 -16 -767 -4 -767 7 0 11 132
13 369 2 203 6 373 11 377 10 11 111 18 142 10 17 -4 25 -12 22 -20 -9 -24 25
-46 63 -40 36 5 77 -13 52 -23 -18 -7 -5 -23 19 -23 16 0 19 5 14 19 -7 23 23
36 62 26 20 -5 32 1 61 31 35 36 36 40 37 113 0 73 -1 77 -34 114 -21 22 -44
37 -58 37 -16 0 -23 6 -23 19 0 21 -19 31 -60 31 -40 0 -60 -9 -60 -29 0 -39
-230 -72 -244 -35 -3 9 -6 120 -6 249 0 189 3 235 14 244 11 9 84 11 270 9
141 -2 256 0 256 4 0 4 -12 13 -27 20 -24 11 -29 22 -37 73 -11 77 -11 115 -2
195 11 99 15 110 35 110 10 0 26 9 36 20 18 19 17 20 -3 20 -11 0 -24 -4 -27
-10z m-65 -245 c0 -8 -4 -15 -10 -15 -5 0 -10 7 -10 15 0 8 5 15 10 15 6 0 10
-7 10 -15z m-440 -170 c0 -20 -5 -25 -25 -25 -18 0 -25 5 -25 18 0 24 8 32 32
32 13 0 18 -7 18 -25z m140 -555 c0 -6 -27 -10 -60 -10 -33 0 -60 4 -60 10 0
6 27 10 60 10 33 0 60 -4 60 -10z m276 -161 c10 -17 -13 -36 -27 -22 -12 12
-4 33 11 33 5 0 12 -5 16 -11z"/>
<path d="M1170 1912 c0 -14 23 -32 41 -32 21 0 29 -19 30 -73 1 -42 27 -128
28 -94 1 28 18 19 25 -14 8 -41 -3 -82 -20 -75 -17 7 -34 -24 -34 -63 0 -39
-9 -61 -25 -61 -7 0 -17 -6 -23 -12 -8 -10 41 -12 245 -10 185 2 258 0 269 -9
11 -9 14 -55 14 -246 0 -288 -2 -293 -92 -293 -60 0 -83 19 -25 21 25 1 27 2
7 6 -64 9 -129 37 -139 60 -9 19 -18 23 -53 23 -48 0 -61 -7 -71 -32 -3 -10
-15 -18 -25 -18 -10 0 -34 -17 -53 -37 -33 -37 -34 -41 -34 -114 1 -73 2 -77
37 -113 28 -29 42 -36 58 -31 31 10 83 -4 76 -21 -3 -8 1 -14 9 -14 8 0 12 6
9 15 -7 17 34 30 66 20 25 -8 61 20 53 41 -3 8 5 16 22 20 31 8 132 1 142 -10
5 -4 9 -174 11 -377 2 -237 6 -369 13 -369 12 0 8 754 -4 767 -11 10 -149 17
-181 9 -15 -4 -26 -14 -28 -29 -3 -19 -11 -23 -55 -27 -67 -7 -169 2 -135 12
19 5 23 12 20 40 -3 29 -7 33 -36 36 -26 3 -34 -1 -41 -20 -8 -18 -10 -6 -10
48 -1 67 1 72 32 102 18 18 41 32 50 32 10 0 21 8 24 18 15 39 68 45 84 8 7
-15 26 -28 51 -35 25 -8 42 -20 45 -32 5 -17 15 -19 82 -19 113 0 111 -5 111
299 0 237 0 241 21 241 18 0 20 5 17 43 -3 42 -3 42 -45 45 -38 3 -43 1 -43
-17 0 -21 -5 -21 -215 -21 l-215 0 0 34 c0 47 9 66 30 66 23 0 34 46 25 106
-5 33 -11 44 -24 44 -21 0 -31 26 -31 82 0 49 -9 68 -30 68 -11 0 -22 5 -25
10 -7 12 -35 13 -35 2z m588 -419 c3 -19 -1 -23 -22 -23 -21 0 -26 5 -26 26 0
21 4 25 23 22 14 -2 23 -11 25 -25z m-432 -714 c10 -17 -13 -36 -27 -22 -12
12 -4 33 11 33 5 0 12 -5 16 -11z"/>
<path d="M681 1673 c0 -4 4 -17 9 -28 8 -19 9 -19 9 2 1 12 -3 25 -9 28 -5 3
-10 3 -9 -2z"/>
<path d="M1226 1638 c-9 -13 -15 -40 -15 -63 l2 -40 6 46 c4 26 13 54 20 63 7
9 11 16 8 16 -3 0 -13 -10 -21 -22z"/>
<path d="M416 1025 c-3 -8 -1 -15 4 -15 6 0 10 7 10 15 0 8 -2 15 -4 15 -2 0
-6 -7 -10 -15z"/>
<path d="M1316 1023 c-6 -14 -5 -15 5 -6 7 7 10 15 7 18 -3 3 -9 -2 -12 -12z"/>
<path d="M1378 640 c15 -17 23 -19 43 -11 24 10 23 10 -6 10 -17 1 -36 5 -43
11 -7 5 -4 1 6 -10z"/>
<path d="M874 437 c-8 -4 -14 -14 -14 -21 0 -7 -11 -18 -25 -24 -19 -9 -25
-19 -25 -43 0 -22 -4 -30 -14 -26 -23 9 -36 -15 -36 -65 0 -41 3 -48 23 -53
28 -7 55 -81 60 -160 l3 -50 2 58 c3 73 22 75 22 2 0 -30 5 -55 10 -55 6 0 10
28 10 64 0 54 -3 64 -19 69 -12 3 -24 20 -31 44 -7 23 -21 43 -34 49 -31 13
-30 68 2 72 17 3 22 10 22 33 0 21 7 32 24 40 13 6 27 20 29 30 4 16 15 19 75
19 60 0 72 -3 77 -18 3 -11 17 -24 30 -30 19 -9 25 -19 25 -42 0 -19 5 -30 14
-30 21 0 38 -27 31 -50 -3 -11 -15 -20 -26 -20 -13 0 -19 -7 -19 -23 0 -27
-26 -67 -44 -67 -8 0 -16 -10 -20 -23 -9 -36 -7 -117 4 -117 6 0 10 17 10 38
0 51 10 82 26 82 18 0 44 40 44 67 0 16 6 23 19 23 21 0 31 19 31 55 0 36 -10
55 -31 55 -14 0 -19 7 -19 30 0 23 -6 33 -25 42 -13 6 -27 19 -30 30 -4 10 -9
18 -13 18 -65 5 -157 3 -168 -3z"/>
</g>
</svg>
