<?xml version="1.0" standalone="no"?>
<!DOCTYPE svg PUBLIC "-//W3C//DTD SVG 20010904//EN"
 "http://www.w3.org/TR/2001/REC-SVG-20010904/DTD/svg10.dtd">
<svg version="1.0" xmlns="http://www.w3.org/2000/svg"
 width="100.000000pt" height="100.000000pt" viewBox="0 0 100.000000 100.000000"
 preserveAspectRatio="xMidYMid meet">
<metadata>
Created by potrace 1.16, written by Peter Selinger 2001-2019
</metadata>
<g transform="translate(0.000000,100.000000) scale(0.100000,-0.100000)"
fill="#000000" stroke="none">
<path d="M370 980 c0 -11 5 -20 10 -20 6 0 10 9 10 20 0 11 -4 20 -10 20 -5 0
-10 -9 -10 -20z"/>
<path d="M440 980 c0 -11 5 -20 10 -20 6 0 10 9 10 20 0 11 -4 20 -10 20 -5 0
-10 -9 -10 -20z"/>
<path d="M500 980 c0 -11 5 -20 10 -20 6 0 10 9 10 20 0 11 -4 20 -10 20 -5 0
-10 -9 -10 -20z"/>
<path d="M560 980 c0 -11 5 -20 10 -20 6 0 10 9 10 20 0 11 -4 20 -10 20 -5 0
-10 -9 -10 -20z"/>
<path d="M620 980 c0 -11 5 -20 10 -20 6 0 10 9 10 20 0 11 -4 20 -10 20 -5 0
-10 -9 -10 -20z"/>
<path d="M690 975 c0 -14 5 -25 10 -25 6 0 10 11 10 25 0 14 -4 25 -10 25 -5
0 -10 -11 -10 -25z"/>
<path d="M730 980 c0 -11 5 -20 10 -20 6 0 10 9 10 20 0 11 -4 20 -10 20 -5 0
-10 -9 -10 -20z"/>
<path d="M790 970 l0 -30 -330 0 -330 0 0 -25 c0 -14 5 -25 10 -25 6 0 10 7
10 15 0 8 9 15 20 15 11 0 20 -7 20 -15 0 -8 5 -15 10 -15 6 0 10 7 10 15 0 8
9 15 20 15 11 0 20 -7 20 -15 0 -8 5 -15 10 -15 6 0 10 7 10 15 0 8 9 15 20
15 11 0 20 -7 20 -15 0 -8 5 -15 10 -15 6 0 10 7 10 15 0 25 38 18 43 -7 l4
-23 8 23 c11 33 55 31 55 -3 l0 -25 -190 0 -190 0 0 -80 0 -80 -30 0 c-17 0
-30 -4 -30 -10 0 -6 58 -10 155 -10 148 0 155 -1 155 -20 0 -11 5 -20 10 -20
6 0 10 4 10 9 0 5 9 11 20 14 13 3 20 0 20 -9 0 -8 5 -14 10 -14 6 0 10 5 10
10 0 14 47 12 54 -2 5 -10 7 -10 12 0 3 6 14 12 24 12 10 0 21 -6 23 -12 4
-10 6 -10 6 0 1 6 12 12 26 12 18 0 25 -5 25 -20 0 -20 -7 -20 -280 -20 -180
0 -280 -4 -280 -10 0 -5 13 -10 30 -10 20 0 30 -5 30 -15 0 -8 5 -15 10 -15 6
0 10 7 10 15 0 26 48 19 53 -7 l4 -23 8 23 c10 31 45 30 45 -3 0 -25 0 -25
-95 -25 -57 0 -95 -4 -95 -10 0 -5 13 -10 30 -10 18 0 30 -5 30 -13 0 -9 -10
-12 -30 -9 -18 3 -30 0 -30 -7 0 -6 13 -11 30 -11 25 0 30 -4 30 -23 0 -20 -4
-23 -30 -19 -18 3 -30 0 -30 -7 0 -8 56 -11 185 -11 178 0 185 1 185 20 0 11
-4 20 -10 20 -5 0 -10 -4 -10 -10 0 -14 -37 -12 -44 3 -5 10 -7 9 -12 0 -9
-20 -44 -16 -44 5 -1 16 -1 16 -14 0 -18 -24 -46 -23 -46 2 0 19 7 20 250 20
l250 0 0 95 0 95 -190 0 c-183 0 -190 1 -190 20 0 24 -6 25 -26 5 -9 -8 -20
-15 -25 -15 -5 0 -9 7 -9 15 0 8 -4 15 -10 15 -5 0 -10 -4 -10 -10 0 -14 -37
-12 -44 3 -5 10 -7 10 -12 0 -10 -21 -44 -16 -44 7 0 19 7 20 245 20 238 0
245 1 245 20 0 11 -4 20 -10 20 -5 0 -10 -4 -10 -9 0 -5 -9 -11 -20 -14 -15
-4 -20 0 -20 16 -1 20 -2 21 -14 5 -7 -10 -21 -18 -30 -18 -9 0 -16 8 -16 18
-1 16 -1 16 -14 0 -18 -24 -46 -23 -46 2 0 19 7 20 250 20 l250 0 0 30 c0 27
-3 30 -31 30 -17 0 -28 -4 -24 -10 3 -5 13 -10 21 -10 24 0 16 -17 -11 -22
-24 -5 -25 -4 -25 53 0 59 0 59 -30 59 -27 0 -30 3 -30 30 0 17 -4 30 -10 30
-5 0 -10 -13 -10 -30z m0 -74 c0 -17 9 -28 30 -38 17 -7 30 -16 30 -20 0 -5
-36 -8 -80 -8 -73 0 -80 2 -80 20 0 16 -7 20 -35 20 -28 0 -35 -4 -35 -20 0
-18 -7 -20 -81 -20 -88 0 -119 -10 -119 -40 0 -19 -7 -20 -110 -20 -81 0 -110
3 -110 13 0 9 -2 9 -8 0 -4 -6 -23 -13 -42 -15 -29 -4 -36 -9 -38 -31 -5 -45
-32 -34 -32 13 0 36 3 40 25 40 14 0 25 5 25 10 0 6 14 10 30 10 23 0 30 4 30
20 0 18 7 20 55 20 50 0 55 -2 56 -22 l2 -23 4 23 c4 20 10 22 63 22 63 0 90
15 90 51 0 18 9 19 165 19 l165 0 0 -24z m60 -1 c0 -18 -5 -25 -20 -25 -15 0
-20 7 -20 25 0 18 5 25 20 25 15 0 20 -7 20 -25z m-720 -60 c0 -20 -5 -25 -25
-25 -33 0 -35 37 -2 43 12 2 23 5 25 6 1 0 2 -10 2 -24z m50 5 c0 -5 -7 -10
-15 -10 -8 0 -15 5 -15 10 0 6 7 10 15 10 8 0 15 -4 15 -10z m490 0 c0 -5 -7
-10 -15 -10 -8 0 -15 5 -15 10 0 6 7 10 15 10 8 0 15 -4 15 -10z m-50 -190 c0
-15 7 -20 25 -20 20 0 25 -5 25 -25 0 -24 -3 -25 -53 -25 -55 0 -77 -12 -77
-42 0 -17 -13 -18 -166 -18 -172 0 -204 -6 -204 -40 0 -13 -7 -20 -20 -20 -13
0 -20 7 -20 20 0 16 -7 20 -30 20 -23 0 -30 4 -30 20 0 15 7 20 25 20 14 0 25
-6 26 -12 0 -10 2 -10 6 0 2 6 17 12 31 12 31 0 47 9 48 28 1 6 2 19 3 27 0 8
10 15 21 15 15 0 20 -7 21 -27 l2 -28 4 28 4 27 140 0 c146 0 179 7 179 40 0
13 7 20 20 20 13 0 20 -7 20 -20z m50 10 c0 -5 -7 -10 -15 -10 -8 0 -15 5 -15
10 0 6 7 10 15 10 8 0 15 -4 15 -10z m0 -120 c0 -14 -7 -20 -24 -20 -13 0 -27
6 -30 13 -5 10 -7 10 -12 0 -10 -21 -44 -16 -44 7 0 18 7 20 55 20 48 0 55 -2
55 -20z m-560 -65 c0 -8 -7 -15 -15 -15 -8 0 -15 7 -15 15 0 8 7 15 15 15 8 0
15 -7 15 -15z"/>
<path d="M485 550 c3 -5 8 -10 11 -10 2 0 4 5 4 10 0 6 -5 10 -11 10 -5 0 -7
-4 -4 -10z"/>
<path d="M850 980 c0 -11 5 -20 10 -20 6 0 10 9 10 20 0 11 -4 20 -10 20 -5 0
-10 -9 -10 -20z"/>
<path d="M60 915 c0 -14 5 -25 10 -25 6 0 10 7 10 15 0 8 7 15 15 15 8 0 15 5
15 10 0 6 -11 10 -25 10 -20 0 -25 -5 -25 -25z"/>
<path d="M890 930 c0 -5 7 -10 15 -10 8 0 15 -6 15 -14 0 -8 5 -18 10 -21 6
-4 10 7 10 24 0 26 -4 31 -25 31 -14 0 -25 -4 -25 -10z"/>
<path d="M0 800 c0 -5 9 -10 19 -10 11 0 23 5 26 10 4 6 -5 10 -19 10 -14 0
-26 -4 -26 -10z"/>
<path d="M670 780 c0 -5 -7 -10 -15 -10 -8 0 -15 -4 -15 -10 0 -5 7 -10 15
-10 8 0 15 -9 15 -19 0 -11 5 -23 10 -26 6 -4 10 5 10 19 0 25 2 26 60 26 53
0 60 2 60 20 0 11 -4 20 -10 20 -5 0 -10 -4 -10 -9 0 -5 -9 -11 -20 -14 -13
-3 -20 0 -20 9 0 8 -4 14 -10 14 -5 0 -10 -4 -10 -9 0 -5 -9 -11 -20 -14 -13
-3 -20 0 -20 9 0 8 -4 14 -10 14 -5 0 -10 -4 -10 -10z"/>
<path d="M836 769 c-19 -19 -19 -19 7 -19 20 0 27 5 27 20 0 25 -9 25 -34 -1z"/>
<path d="M0 740 c0 -5 11 -10 25 -10 14 0 25 5 25 10 0 6 -11 10 -25 10 -14 0
-25 -4 -25 -10z"/>
<path d="M350 720 c0 -5 5 -10 10 -10 6 0 10 5 10 10 0 6 -4 10 -10 10 -5 0
-10 -4 -10 -10z"/>
<path d="M730 721 c0 -6 5 -13 10 -16 6 -3 10 1 10 9 0 9 -4 16 -10 16 -5 0
-10 -4 -10 -9z"/>
<path d="M710 684 c0 -3 7 -12 15 -20 8 -9 15 -20 15 -25 0 -5 -7 -9 -15 -9
-8 0 -15 -4 -15 -10 0 -5 5 -10 10 -10 14 0 12 -27 -2 -33 -9 -4 -10 -8 -2
-14 6 -4 13 -20 16 -35 4 -23 2 -28 -14 -28 -20 0 -36 -26 -23 -38 4 -4 10 -1
12 6 3 6 13 12 23 12 10 0 21 -6 24 -12 5 -10 7 -10 12 0 3 6 14 12 24 12 10
0 21 -6 24 -12 5 -10 7 -10 12 0 9 19 44 15 44 -5 1 -17 1 -17 14 0 12 15 36
24 36 13 0 -2 3 -11 6 -20 6 -14 -20 -16 -240 -16 -239 0 -246 1 -246 20 0 11
-4 20 -10 20 -5 0 -10 -9 -10 -20 0 -11 5 -20 10 -20 6 0 10 -9 10 -20 0 -11
5 -20 10 -20 6 0 10 4 10 9 0 5 9 11 20 14 15 4 20 0 20 -16 1 -20 2 -21 14
-4 15 20 42 23 50 5 5 -10 7 -10 12 0 10 20 44 15 44 -8 0 -19 -7 -20 -245
-20 l-245 0 0 -65 0 -65 30 0 c27 0 30 -3 30 -30 l0 -30 215 0 c208 0 215 1
215 20 0 11 -4 20 -10 20 -5 0 -10 -4 -10 -9 0 -5 -9 -11 -20 -14 -13 -3 -20
0 -20 9 0 8 -4 14 -10 14 -5 0 -10 -4 -10 -10 0 -14 -37 -12 -44 3 -5 10 -7
10 -12 0 -7 -17 -41 -17 -48 0 -5 9 -7 9 -12 0 -7 -17 -51 -17 -58 0 -5 10 -7
10 -12 0 -10 -21 -44 -16 -44 7 0 20 7 20 280 20 l280 0 0 28 c-1 24 -2 25
-14 10 -15 -21 -42 -24 -50 -5 -5 10 -7 10 -12 0 -9 -20 -44 -16 -44 5 -1 16
-1 16 -14 0 -15 -21 -42 -24 -50 -5 -5 10 -7 10 -12 0 -3 -7 -17 -13 -30 -13
-17 0 -24 6 -24 20 0 19 7 20 160 20 l160 0 0 65 0 65 30 0 c17 0 30 5 30 11
0 7 -12 10 -30 7 -20 -3 -30 0 -30 9 0 8 12 13 30 13 17 0 30 5 30 10 0 6 -48
10 -125 10 l-125 0 0 95 c0 88 -1 95 -20 95 -11 0 -20 -3 -20 -6z m210 -274
c0 -5 -11 -10 -25 -10 -14 0 -25 -4 -25 -10 0 -5 -13 -10 -30 -10 -25 0 -30
-4 -30 -25 0 -25 -1 -25 -89 -25 -92 0 -121 -11 -121 -46 0 -8 -9 -14 -20 -14
-13 0 -20 7 -20 20 0 14 -7 20 -22 20 -21 -1 -21 -2 -5 -11 35 -20 15 -29 -68
-29 -81 0 -85 1 -86 23 l-2 22 -4 -22 c-3 -16 -11 -23 -28 -23 -39 0 -55 -11
-55 -36 0 -33 -13 -30 -27 6 -9 24 -17 30 -42 30 -18 0 -31 5 -31 13 0 8 13
11 42 9 61 -5 98 11 98 43 l0 25 143 0 c148 0 167 5 167 42 0 16 12 18 140 18
87 0 140 -4 140 -10z m0 -55 c0 -20 -5 -25 -25 -25 -20 0 -25 5 -25 25 0 20 5
25 25 25 20 0 25 -5 25 -25z m-730 -10 c0 -8 5 -15 10 -15 6 0 10 7 10 15 0
11 12 15 50 15 47 0 50 -2 50 -25 0 -25 -1 -25 -84 -25 l-83 0 5 25 c5 27 42
36 42 10z m660 0 c0 -8 -4 -15 -10 -15 -5 0 -10 7 -10 15 0 8 5 15 10 15 6 0
10 -7 10 -15z m-680 -65 c0 -5 -4 -10 -10 -10 -5 0 -10 5 -10 10 0 6 5 10 10
10 6 0 10 -4 10 -10z m80 -50 c0 -13 -7 -20 -20 -20 -13 0 -20 7 -20 20 0 13
7 20 20 20 13 0 20 -7 20 -20z"/>
<path d="M130 660 c0 -5 5 -10 10 -10 6 0 10 5 10 10 0 6 -4 10 -10 10 -5 0
-10 -4 -10 -10z"/>
<path d="M190 660 c0 -5 5 -10 10 -10 6 0 10 5 10 10 0 6 -4 10 -10 10 -5 0
-10 -4 -10 -10z"/>
<path d="M250 660 c0 -5 5 -10 10 -10 6 0 10 5 10 10 0 6 -4 10 -10 10 -5 0
-10 -4 -10 -10z"/>
<path d="M770 551 c0 -6 49 -9 115 -9 63 1 115 5 115 10 0 4 -52 8 -115 8 -65
0 -115 -4 -115 -9z"/>
<path d="M370 415 c0 -8 5 -15 10 -15 6 0 10 7 10 15 0 8 -4 15 -10 15 -5 0
-10 -7 -10 -15z"/>
<path d="M60 335 l0 -85 31 0 c17 0 28 4 24 10 -3 6 -13 10 -21 10 -8 0 -14 9
-14 20 0 11 7 20 15 20 8 0 15 5 15 10 0 6 -7 10 -15 10 -21 0 -19 38 3 43 16
4 16 5 0 6 -11 1 -18 9 -18 21 0 11 -4 20 -10 20 -6 0 -10 -35 -10 -85z"/>
<path d="M110 410 c0 -5 5 -10 10 -10 6 0 10 5 10 10 0 6 -4 10 -10 10 -5 0
-10 -4 -10 -10z"/>
<path d="M190 410 c0 -5 5 -10 10 -10 6 0 10 5 10 10 0 6 -4 10 -10 10 -5 0
-10 -4 -10 -10z"/>
<path d="M0 390 c0 -5 12 -10 26 -10 14 0 23 4 19 10 -3 6 -15 10 -26 10 -10
0 -19 -4 -19 -10z"/>
<path d="M955 390 c-4 -6 5 -10 19 -10 14 0 26 5 26 10 0 6 -9 10 -19 10 -11
0 -23 -4 -26 -10z"/>
<path d="M960 320 c0 -5 9 -10 20 -10 11 0 20 5 20 10 0 6 -9 10 -20 10 -11 0
-20 -4 -20 -10z"/>
<path d="M920 280 c0 -5 -6 -10 -14 -10 -8 0 -18 -4 -21 -10 -4 -6 7 -10 24
-10 24 0 31 4 31 20 0 11 -4 20 -10 20 -5 0 -10 -4 -10 -10z"/>
<path d="M130 218 c0 -24 4 -28 27 -28 22 0 25 2 13 13 -8 6 -20 19 -27 27
-10 13 -12 11 -13 -12z"/>
<path d="M670 220 c0 -5 -6 -10 -14 -10 -8 0 -18 -4 -21 -10 -4 -6 7 -10 24
-10 24 0 31 4 31 20 0 11 -4 20 -10 20 -5 0 -10 -4 -10 -10z"/>
<path d="M190 150 c0 -18 7 -20 60 -20 53 0 60 2 60 20 0 22 -15 27 -24 8 -5
-10 -7 -10 -12 0 -8 17 -24 15 -24 -3 0 -8 -4 -15 -9 -15 -5 0 -16 7 -25 15
-20 20 -26 19 -26 -5z"/>
</g>
</svg>
