<?xml version="1.0" standalone="no"?>
<!DOCTYPE svg PUBLIC "-//W3C//DTD SVG 20010904//EN"
 "http://www.w3.org/TR/2001/REC-SVG-20010904/DTD/svg10.dtd">
<svg version="1.0" xmlns="http://www.w3.org/2000/svg"
 width="75.000000pt" height="75.000000pt" viewBox="0 0 75.000000 75.000000"
 preserveAspectRatio="xMidYMid meet">
<metadata>
Created by potrace 1.16, written by Peter Selinger 2001-2019
</metadata>
<g transform="translate(0.000000,75.000000) scale(0.100000,-0.100000)"
fill="#000000" stroke="none">
<path d="M104 558 c-17 -12 -41 -38 -55 -57 -21 -32 -24 -49 -27 -152 l-4
-116 38 -37 c28 -27 45 -36 68 -34 l31 1 -32 4 c-21 3 -43 16 -62 39 -30 34
-31 37 -31 137 0 96 2 106 29 148 18 30 44 53 72 67 26 13 36 22 24 21 -11 0
-34 -10 -51 -21z"/>
<path d="M270 560 c-46 -46 -50 -90 -16 -164 41 -90 49 -132 32 -166 -16 -34
-3 -42 15 -9 16 31 5 99 -27 161 -15 29 -27 69 -28 90 -1 44 32 93 62 92 12 0
19 3 16 8 -9 14 -33 9 -54 -12z"/>
<path d="M428 563 c-46 -53 -49 -108 -12 -190 36 -77 42 -128 19 -153 -10 -11
-13 -20 -8 -20 6 0 15 6 21 13 25 31 23 58 -12 144 -20 48 -36 101 -36 118 0
40 34 95 60 95 26 0 26 -22 0 -38 -31 -19 -27 -89 9 -160 15 -31 31 -69 35
-84 9 -40 -20 -105 -52 -117 -27 -10 -27 -10 -2 -8 27 2 70 65 70 105 0 13
-14 53 -31 90 -43 92 -48 136 -19 167 25 27 21 55 -8 55 -10 0 -26 -8 -34 -17z"/>
<path d="M621 539 c-56 -55 -71 -95 -71 -191 0 -123 39 -190 109 -186 l36 1
-35 4 c-44 6 -59 18 -81 68 -24 51 -25 171 -3 223 19 46 60 90 99 108 24 11
26 13 9 14 -11 0 -40 -18 -63 -41z"/>
<path d="M176 544 c-3 -9 -6 -45 -6 -80 0 -67 -12 -101 -55 -159 -45 -60 -37
-93 25 -108 24 -6 24 -5 6 8 -11 8 -26 15 -33 15 -23 0 -14 46 17 89 45 61 53
87 55 174 1 42 0 77 -1 77 -1 0 -5 -7 -8 -16z"/>
<path d="M710 484 c0 -81 -4 -91 -57 -170 -42 -62 -41 -94 2 -109 17 -5 33
-14 37 -20 5 -6 8 -5 8 3 0 7 -16 20 -36 28 -42 18 -41 30 17 118 38 56 39 61
39 142 0 46 -2 84 -5 84 -3 0 -5 -34 -5 -76z"/>
<path d="M299 524 c-21 -25 -15 -73 19 -157 18 -43 32 -91 32 -105 0 -38 -21
-74 -50 -89 -26 -13 -15 -18 15 -7 22 9 45 57 45 95 0 18 -12 62 -26 98 -36
90 -42 136 -19 161 10 11 13 20 8 20 -6 0 -17 -7 -24 -16z"/>
<path d="M647 503 c-38 -40 -57 -94 -57 -160 0 -55 1 -56 15 -35 13 17 13 26
5 43 -13 23 -7 55 17 107 12 24 18 30 24 20 14 -21 10 -51 -11 -93 -24 -46
-20 -57 6 -18 11 17 21 54 24 96 3 37 5 67 4 67 0 0 -12 -12 -27 -27z"/>
<path d="M108 493 c-36 -38 -48 -73 -48 -141 l0 -57 35 49 c37 52 49 92 43
145 l-3 33 -27 -29z m22 -36 c-1 -34 -38 -109 -51 -102 -13 9 -4 67 17 107 16
32 34 29 34 -5z"/>
</g>
</svg>
