<?xml version="1.0" standalone="no"?>
<!DOCTYPE svg PUBLIC "-//W3C//DTD SVG 20010904//EN"
 "http://www.w3.org/TR/2001/REC-SVG-20010904/DTD/svg10.dtd">
<svg version="1.0" xmlns="http://www.w3.org/2000/svg"
 width="152.000000pt" height="152.000000pt" viewBox="0 0 152.000000 152.000000"
 preserveAspectRatio="xMidYMid meet">
<metadata>
Created by potrace 1.16, written by Peter Selinger 2001-2019
</metadata>
<g transform="translate(0.000000,152.000000) scale(0.100000,-0.100000)"
fill="#000000" stroke="none">
<path d="M270 1149 c-60 -33 -130 -96 -161 -145 -10 -18 -30 -63 -44 -100 -21
-58 -25 -87 -25 -178 0 -240 93 -386 247 -386 52 0 53 1 53 29 0 43 -10 61
-32 61 -31 0 -88 31 -105 57 -15 22 -15 27 0 58 9 18 37 62 63 97 83 112 97
153 105 313 4 77 11 159 15 183 l7 42 -34 0 c-19 0 -59 -14 -89 -31z m95 -6
c-4 -10 -10 -83 -14 -163 -8 -165 -21 -205 -104 -316 -59 -80 -77 -116 -77
-154 0 -41 47 -87 98 -96 38 -7 52 -18 52 -43 0 -22 -84 -7 -130 23 -113 75
-166 321 -105 490 14 37 34 82 44 100 31 49 101 112 161 145 64 35 86 39 75
14z"/>
<path d="M241 1035 c-70 -65 -109 -143 -121 -243 -9 -73 -2 -176 15 -214 8
-19 -9 -26 -18 -8 -3 6 -4 5 -3 -2 5 -24 31 -14 29 10 -2 15 20 55 62 114 81
113 97 162 93 294 l-3 99 -54 -50z m25 -179 c-9 -28 -39 -86 -68 -127 l-52
-74 -6 31 c-19 90 27 232 99 307 l36 38 3 -61 c2 -35 -4 -84 -12 -114z"/>
<path d="M320 936 c0 -9 5 -16 10 -16 6 0 10 4 10 9 0 6 -4 13 -10 16 -5 3
-10 -1 -10 -9z"/>
<path d="M594 1161 c-18 -11 -45 -36 -60 -57 -28 -35 -29 -43 -29 -138 l0
-101 57 -120 c31 -66 61 -136 67 -155 19 -60 -13 -130 -66 -151 -24 -9 -29
-32 -17 -76 12 -43 88 -22 137 36 38 45 50 94 45 176 -4 63 -13 90 -66 203
-75 156 -84 202 -50 252 13 19 34 39 46 45 18 8 22 18 22 57 0 46 -1 48 -27
48 -16 0 -42 -9 -59 -19z m66 -29 c0 -19 -7 -30 -22 -37 -12 -6 -33 -26 -46
-45 -40 -58 -28 -129 47 -288 68 -142 83 -211 61 -276 -15 -45 -53 -92 -92
-112 -33 -17 -33 -18 -42 13 -6 18 -2 25 17 32 58 22 90 113 67 188 -6 21 -37
92 -68 158 -55 115 -57 123 -57 201 0 73 3 84 29 118 26 34 80 76 99 76 4 0 7
-12 7 -28z"/>
<path d="M904 1161 c-70 -43 -98 -108 -92 -215 3 -61 10 -86 50 -167 63 -128
93 -218 85 -251 -9 -33 -54 -88 -73 -88 -10 0 -14 -14 -14 -50 l0 -50 35 0
c30 0 45 9 85 49 56 56 64 84 58 193 -3 64 -12 89 -65 203 -33 72 -63 143 -67
159 -11 44 21 111 61 130 34 16 40 35 27 84 -8 28 -47 30 -90 3z m66 -10 c0
-5 3 -16 6 -25 4 -10 -5 -20 -25 -31 -17 -8 -40 -34 -52 -57 -31 -62 -21 -113
52 -270 92 -196 94 -274 9 -359 -56 -56 -80 -62 -80 -21 0 19 7 30 22 37 36
16 68 73 68 120 0 52 -16 99 -82 239 -85 180 -74 290 36 357 34 21 46 23 46
10z"/>
<path d="M1360 1153 c-110 -56 -194 -168 -221 -294 -18 -84 -6 -281 21 -352
41 -107 116 -166 213 -167 l47 0 0 44 c0 43 -1 44 -39 50 -46 7 -101 49 -101
76 0 19 19 70 30 80 20 18 73 94 98 140 38 70 52 141 50 256 0 51 4 100 11
111 6 12 11 35 11 52 0 28 -3 31 -33 31 -18 0 -57 -12 -87 -27z m100 0 c0 -5
-7 -26 -14 -48 -9 -25 -13 -67 -10 -115 6 -135 -18 -210 -107 -331 -50 -67
-79 -125 -79 -155 0 -30 64 -83 109 -90 35 -6 41 -10 41 -30 0 -20 -5 -24 -27
-24 -43 1 -105 33 -140 73 -48 55 -74 136 -80 252 -9 164 29 278 121 370 64
63 186 127 186 98z"/>
<path d="M1343 1051 c-87 -63 -135 -165 -140 -300 -3 -53 -1 -113 4 -134 l8
-39 26 39 c14 21 47 69 72 106 26 37 51 85 57 107 9 32 21 250 15 250 -1 0
-20 -13 -42 -29z m7 -200 c-10 -39 -100 -184 -122 -197 -8 -5 -9 20 -6 84 6
103 39 188 99 257 l34 38 3 -71 c2 -39 -2 -90 -8 -111z"/>
<path d="M1411 940 c-1 -14 -4 -36 -6 -50 l-6 -25 11 25 c6 13 9 36 7 50 l-4
25 -2 -25z"/>
</g>
</svg>
