<?xml version="1.0" standalone="no"?>
<!DOCTYPE svg PUBLIC "-//W3C//DTD SVG 20010904//EN"
 "http://www.w3.org/TR/2001/REC-SVG-20010904/DTD/svg10.dtd">
<svg version="1.0" xmlns="http://www.w3.org/2000/svg"
 width="64.000000pt" height="64.000000pt" viewBox="0 0 64.000000 64.000000"
 preserveAspectRatio="xMidYMid meet">
<metadata>
Created by potrace 1.16, written by Peter Selinger 2001-2019
</metadata>
<g transform="translate(0.000000,64.000000) scale(0.100000,-0.100000)"
fill="#000000" stroke="none">
<path d="M295 633 c-82 -12 -221 -56 -238 -75 -17 -20 -24 -108 -11 -142 8
-22 72 -21 165 3 87 23 219 47 305 56 53 6 63 10 73 31 17 37 15 134 -3 134
-11 0 -13 -10 -9 -40 3 -22 0 -53 -7 -69 -11 -27 -17 -30 -78 -36 -37 -4 -121
-18 -187 -32 -242 -50 -226 -48 -236 -32 -15 24 -10 85 9 108 19 23 130 54
287 81 l100 18 -70 -1 c-38 0 -83 -2 -100 -4z"/>
<path d="M270 419 c-157 -33 -216 -50 -228 -66 -8 -12 -12 -42 -10 -88 l3 -70
37 -3 c21 -2 89 8 151 22 63 14 126 26 140 26 43 0 57 24 57 99 0 39 -5 72
-12 79 -14 14 -73 14 -138 1z m117 -21 c19 -15 17 -103 -3 -122 -8 -9 -27 -16
-41 -16 -13 0 -78 -12 -143 -26 -66 -15 -126 -24 -134 -21 -20 8 -22 95 -3
120 11 16 98 41 227 65 67 12 83 12 97 0z"/>
<path d="M360 218 c-116 -12 -302 -56 -318 -76 -14 -19 -17 -142 -2 -142 6 0
10 24 10 53 0 29 6 60 13 69 30 39 457 107 492 78 9 -8 15 -29 15 -57 0 -70
-8 -78 -87 -81 -94 -4 -204 -19 -293 -41 -72 -18 -73 -19 -30 -20 25 0 74 6
110 14 36 8 117 18 180 21 87 5 118 10 128 22 16 20 16 144 0 160 -14 14 -90
14 -218 0z"/>
<path d="M71 14 c0 -11 3 -14 6 -6 3 7 2 16 -1 19 -3 4 -6 -2 -5 -13z"/>
</g>
</svg>
