<?xml version="1.0" standalone="no"?>
<!DOCTYPE svg PUBLIC "-//W3C//DTD SVG 20010904//EN"
 "http://www.w3.org/TR/2001/REC-SVG-20010904/DTD/svg10.dtd">
<svg version="1.0" xmlns="http://www.w3.org/2000/svg"
 width="192.000000pt" height="192.000000pt" viewBox="0 0 192.000000 192.000000"
 preserveAspectRatio="xMidYMid meet">
<metadata>
Created by potrace 1.16, written by Peter Selinger 2001-2019
</metadata>
<g transform="translate(0.000000,192.000000) scale(0.100000,-0.100000)"
fill="#000000" stroke="none">
<path d="M843 1902 c-43 -35 -63 -83 -63 -155 0 -80 16 -123 58 -159 45 -37
95 -51 163 -45 70 6 119 34 151 85 18 30 23 51 22 112 0 113 -46 180 -123 180
l-36 -1 35 -15 c72 -31 103 -81 103 -165 0 -156 -174 -233 -295 -131 -91 77
-73 238 34 291 l43 21 -35 0 c-19 0 -45 -8 -57 -18z"/>
<path d="M1291 1888 c-56 -29 -81 -74 -81 -146 0 -112 52 -162 166 -162 117 0
164 48 164 165 0 101 -48 153 -148 162 -46 4 -65 0 -101 -19z m171 -29 c56
-40 73 -113 44 -184 -42 -100 -213 -101 -260 -1 -65 137 93 272 216 185z"/>
<path d="M1690 1888 c-56 -28 -80 -73 -80 -146 0 -112 50 -162 163 -162 101 0
147 30 147 97 l0 28 -17 -34 c-23 -46 -67 -71 -128 -71 -93 0 -153 66 -142
156 6 59 30 92 84 116 72 32 159 2 188 -65 l14 -32 1 36 c0 41 -17 60 -73 84
-51 21 -105 19 -157 -7z"/>
<path d="M471 1518 c-68 -36 -93 -91 -89 -189 3 -65 7 -81 31 -112 42 -56 80
-72 167 -72 88 0 134 22 172 83 19 30 23 51 23 112 0 87 -16 125 -72 167 -31
24 -47 28 -112 31 -65 3 -83 0 -120 -20z m213 -32 c49 -37 70 -80 70 -146 1
-67 -27 -118 -82 -152 -46 -28 -131 -30 -179 -5 -85 45 -118 159 -71 246 34
63 93 94 170 89 42 -3 65 -11 92 -32z"/>
<path d="M915 1503 c-62 -16 -105 -81 -105 -157 0 -60 19 -105 59 -139 29 -24
41 -27 102 -27 122 0 169 44 169 161 0 78 -24 123 -80 151 -33 17 -101 22
-145 11z m141 -38 c87 -57 84 -203 -5 -250 -17 -8 -53 -15 -80 -15 -42 0 -56
5 -86 31 -40 36 -60 92 -51 143 8 41 62 102 98 109 38 8 97 0 124 -18z"/>
<path d="M1315 1503 c-11 -3 -33 -14 -49 -26 -81 -58 -73 -229 14 -280 40 -24
155 -23 196 2 42 26 64 77 64 149 0 70 -26 117 -80 144 -33 17 -101 22 -145
11z m141 -38 c84 -55 84 -195 0 -246 -39 -24 -118 -25 -156 -2 -35 21 -70 81
-70 122 0 66 45 128 105 144 32 9 94 0 121 -18z"/>
<path d="M1684 1461 c-78 -48 -68 -204 17 -249 36 -19 142 -11 170 13 69 62
62 202 -12 240 -41 22 -137 19 -175 -4z m155 -16 c38 -19 65 -77 56 -121 -3
-19 -19 -49 -35 -67 -25 -29 -34 -32 -83 -32 -65 0 -100 26 -118 86 -31 103
80 186 180 134z"/>
<path d="M70 1119 c-49 -29 -70 -58 -70 -99 l0 -35 21 43 c53 107 214 125 291
34 73 -87 55 -215 -39 -273 -26 -16 -51 -22 -92 -22 -84 0 -134 31 -165 103
l-15 35 -1 -36 c0 -77 67 -123 180 -123 87 -1 134 21 170 80 27 43 37 137 20
188 -16 48 -56 95 -97 112 -51 22 -161 18 -203 -7z"/>
<path d="M492 1093 c-50 -24 -74 -65 -79 -136 -8 -115 50 -177 164 -177 118 0
163 46 163 167 0 63 -3 75 -27 104 -15 17 -42 38 -60 45 -44 19 -121 17 -161
-3z m141 -17 c18 -7 45 -28 60 -45 52 -62 29 -179 -42 -216 -104 -53 -231 30
-217 143 13 101 107 157 199 118z"/>
<path d="M1271 1050 c-61 -61 -51 -181 19 -228 30 -20 44 -23 98 -20 54 3 67
8 94 35 54 54 49 177 -9 223 -20 16 -41 20 -99 20 -67 0 -75 -2 -103 -30z
m182 -10 c84 -67 43 -206 -65 -217 -115 -11 -179 125 -96 207 25 26 37 30 82
30 38 0 61 -6 79 -20z"/>
<path d="M1686 1034 c-23 -23 -26 -35 -26 -91 0 -54 4 -68 24 -88 30 -30 87
-41 137 -26 53 16 69 43 69 117 0 53 -4 65 -26 88 -23 22 -35 26 -89 26 -54 0
-66 -4 -89 -26z m158 -20 c28 -29 36 -87 15 -126 -17 -32 -74 -51 -115 -38
-44 15 -64 45 -64 96 0 58 37 94 95 94 32 0 48 -6 69 -26z"/>
<path d="M90 692 c-104 -55 -104 -243 0 -297 37 -19 130 -19 175 -1 52 22 75
67 75 150 0 81 -22 125 -74 150 -46 22 -133 21 -176 -2z m156 -18 c100 -47 99
-218 -1 -260 -135 -56 -259 69 -193 195 38 74 119 101 194 65z"/>
<path d="M494 696 c-49 -21 -76 -68 -81 -139 -8 -113 50 -177 159 -177 119 0
168 48 168 163 0 82 -17 116 -70 146 -44 25 -128 28 -176 7z m156 -27 c49 -27
70 -66 70 -126 0 -60 -25 -104 -73 -126 -108 -52 -227 27 -213 141 14 109 121
164 216 111z"/>
<path d="M923 683 c-13 -2 -36 -18 -53 -34 -28 -28 -30 -36 -30 -103 0 -58 4
-79 20 -99 46 -58 169 -63 223 -9 27 27 31 40 35 94 2 51 -1 70 -18 96 -32 51
-96 71 -177 55z m102 -27 c143 -60 58 -275 -89 -226 -53 17 -76 52 -76 116 0
45 4 57 30 83 27 26 46 35 88 40 7 0 28 -5 47 -13z"/>
<path d="M1286 634 c-23 -23 -26 -35 -26 -91 0 -55 4 -68 25 -88 21 -22 33
-25 90 -25 57 0 69 3 90 25 22 21 25 33 25 90 0 57 -3 69 -25 90 -20 21 -33
25 -88 25 -56 0 -68 -3 -91 -26z m159 -19 c35 -34 35 -106 0 -140 -34 -35
-106 -35 -140 0 -36 35 -35 102 1 139 37 36 104 37 139 1z"/>
<path d="M90 292 c-67 -33 -98 -139 -65 -219 24 -56 43 -73 84 -73 l36 1 -32
14 c-67 29 -97 116 -65 188 24 54 57 78 116 84 90 11 156 -49 156 -142 0 -61
-25 -105 -71 -128 l-34 -17 28 0 c67 0 97 46 97 147 0 81 -20 121 -73 146 -46
22 -132 22 -177 -1z"/>
<path d="M503 275 c-17 -7 -39 -27 -47 -44 -20 -38 -21 -133 -1 -170 43 -84
206 -77 253 10 19 36 11 142 -13 170 -42 47 -128 62 -192 34z m147 -33 c60
-45 66 -135 11 -184 -83 -74 -201 -23 -201 87 0 103 107 158 190 97z"/>
<path d="M886 234 c-22 -23 -26 -35 -26 -89 0 -54 4 -66 26 -89 23 -22 35 -26
88 -26 74 0 101 16 117 69 15 50 4 107 -26 137 -20 20 -34 24 -88 24 -56 0
-68 -3 -91 -26z m151 -9 c34 -24 47 -76 29 -118 -17 -42 -41 -57 -94 -57 -56
0 -92 37 -92 95 0 58 36 95 94 95 23 0 51 -7 63 -15z"/>
</g>
</svg>
