<?xml version="1.0" standalone="no"?>
<!DOCTYPE svg PUBLIC "-//W3C//DTD SVG 20010904//EN"
 "http://www.w3.org/TR/2001/REC-SVG-20010904/DTD/svg10.dtd">
<svg version="1.0" xmlns="http://www.w3.org/2000/svg"
 width="100.000000pt" height="100.000000pt" viewBox="0 0 100.000000 100.000000"
 preserveAspectRatio="xMidYMid meet">
<metadata>
Created by potrace 1.16, written by Peter Selinger 2001-2019
</metadata>
<g transform="translate(0.000000,100.000000) scale(0.100000,-0.100000)"
fill="#000000" stroke="none">
<path d="M620 990 c0 -5 5 -10 10 -10 6 0 10 5 10 10 0 6 -4 10 -10 10 -5 0
-10 -4 -10 -10z"/>
<path d="M664 985 c4 -12 -3 -15 -34 -15 -29 0 -40 -4 -40 -15 0 -8 -7 -15
-15 -15 -12 0 -15 -14 -15 -65 0 -51 3 -65 15 -65 8 0 15 -7 15 -15 0 -12 17
-15 95 -15 l95 0 0 80 c0 44 -4 80 -9 80 -4 0 -7 -29 -6 -65 1 -36 -2 -65 -7
-65 -4 0 -8 36 -8 80 l0 80 -30 0 c-20 0 -30 5 -30 15 0 8 -7 15 -16 15 -10 0
-14 -6 -10 -15z m71 -35 c3 -5 1 -10 -4 -10 -6 0 -11 5 -11 10 0 6 2 10 4 10
3 0 8 -4 11 -10z m-85 -5 c0 -2 -9 -9 -20 -15 -16 -9 -20 -8 -20 5 0 8 9 15
20 15 11 0 20 -2 20 -5z m40 -20 c0 -8 -7 -15 -15 -15 -8 0 -15 7 -15 15 0 8
7 15 15 15 8 0 15 -7 15 -15z m40 -22 c0 -12 -8 -18 -24 -18 -23 0 -23 1 -9
18 9 9 20 17 25 17 4 0 8 -8 8 -17z m-143 -25 c-3 -7 -5 -2 -5 12 0 14 2 19 5
13 2 -7 2 -19 0 -25z m73 -17 c0 -47 2 -50 28 -54 15 -2 6 -3 -20 0 -31 2 -48
0 -48 -7 0 -6 -5 -8 -12 -4 -9 6 -9 9 0 12 7 2 12 23 12 53 0 42 3 49 20 49
17 0 20 -7 20 -49z m60 -6 c0 -8 -7 -15 -15 -15 -8 0 -15 7 -15 15 0 8 7 15
15 15 8 0 15 -7 15 -15z m-130 -25 c0 -5 -2 -10 -4 -10 -3 0 -8 5 -11 10 -3 6
-1 10 4 10 6 0 11 -4 11 -10z"/>
<path d="M280 959 c0 -5 5 -7 10 -4 6 3 10 8 10 11 0 2 -4 4 -10 4 -5 0 -10
-5 -10 -11z"/>
<path d="M310 961 c0 -5 8 -12 18 -14 9 -3 2 -5 -15 -6 -22 -1 -33 -6 -33 -16
0 -8 -7 -15 -15 -15 -11 0 -15 -12 -15 -50 0 -38 4 -50 15 -50 8 0 15 -7 15
-15 0 -10 11 -15 33 -16 30 0 30 -1 9 -10 -13 -5 -28 -7 -33 -3 -5 3 -9 0 -9
-5 0 -7 26 -11 65 -11 37 0 65 4 65 10 0 6 -11 10 -24 10 -14 0 -31 9 -40 21
-9 13 -21 19 -30 16 -10 -4 -16 -1 -16 8 0 8 -7 15 -15 15 -11 0 -15 10 -14
38 1 20 3 29 6 20 7 -28 36 -23 31 6 -4 18 -1 22 13 19 11 -3 23 3 31 16 7 12
23 21 35 21 13 0 23 5 23 10 0 6 -22 10 -50 10 -27 0 -50 -4 -50 -9z"/>
<path d="M425 960 c3 -5 8 -10 11 -10 2 0 4 5 4 10 0 6 -5 10 -11 10 -5 0 -7
-4 -4 -10z"/>
<path d="M560 959 c0 -5 5 -7 10 -4 6 3 10 8 10 11 0 2 -4 4 -10 4 -5 0 -10
-5 -10 -11z"/>
<path d="M250 929 c0 -5 5 -7 10 -4 6 3 10 8 10 11 0 2 -4 4 -10 4 -5 0 -10
-5 -10 -11z"/>
<path d="M370 924 c0 -12 7 -15 23 -12 20 4 23 1 19 -19 -2 -13 1 -23 7 -23 6
0 11 -7 11 -15 0 -8 -5 -15 -11 -15 -6 0 -9 -8 -7 -18 4 -15 1 -18 -18 -14
-17 3 -24 0 -24 -12 0 -12 9 -16 35 -16 l35 0 0 80 0 80 -35 0 c-26 0 -35 -4
-35 -16z"/>
<path d="M455 930 c3 -5 8 -10 11 -10 2 0 4 5 4 10 0 6 -5 10 -11 10 -5 0 -7
-4 -4 -10z"/>
<path d="M450 860 c0 -27 5 -50 10 -50 6 0 10 23 10 50 0 28 -4 50 -10 50 -5
0 -10 -22 -10 -50z"/>
<path d="M532 890 c0 -14 2 -19 5 -12 2 6 2 18 0 25 -3 6 -5 1 -5 -13z"/>
<path d="M348 883 c7 -3 16 -2 19 1 4 3 -2 6 -13 5 -11 0 -14 -3 -6 -6z"/>
<path d="M221 854 c0 -11 3 -14 6 -6 3 7 2 16 -1 19 -3 4 -6 -2 -5 -13z"/>
<path d="M310 830 c0 -5 7 -10 15 -10 8 0 15 5 15 10 0 6 -7 10 -15 10 -8 0
-15 -4 -15 -10z"/>
<path d="M378 833 c7 -3 16 -2 19 1 4 3 -2 6 -13 5 -11 0 -14 -3 -6 -6z"/>
<path d="M250 790 c0 -5 5 -10 11 -10 5 0 7 5 4 10 -3 6 -8 10 -11 10 -2 0 -4
-4 -4 -10z"/>
<path d="M455 790 c-3 -5 -1 -10 4 -10 6 0 11 5 11 10 0 6 -2 10 -4 10 -3 0
-8 -4 -11 -10z"/>
<path d="M780 769 c0 -5 -4 -8 -9 -5 -5 4 -20 2 -33 -3 -21 -9 -21 -10 10 -10
l32 -1 0 -80 c0 -64 3 -80 15 -80 8 0 15 -7 15 -15 0 -12 16 -15 80 -15 l80 0
0 95 0 95 -87 0 c-101 0 -104 17 -3 23 63 3 63 3 -17 5 -53 1 -83 -2 -83 -9z
m175 -39 c3 -5 1 -10 -4 -10 -6 0 -11 5 -11 10 0 6 2 10 4 10 3 0 8 -4 11 -10z
m-101 -15 c-4 -8 -10 -12 -15 -9 -14 8 -10 24 6 24 9 0 12 -6 9 -15z m-45 -57
c-1 -72 -5 -68 -12 10 -2 28 0 52 4 52 5 0 9 -28 8 -62z m101 47 c0 -8 -9 -15
-20 -15 -11 0 -20 7 -20 15 0 8 9 15 20 15 11 0 20 -7 20 -15z m40 -15 c0 -5
-7 -10 -16 -10 -8 0 -12 5 -9 10 3 6 10 10 16 10 5 0 9 -4 9 -10z m-110 -15
c0 -8 -4 -15 -10 -15 -5 0 -10 7 -10 15 0 8 5 15 10 15 6 0 10 -7 10 -15z m50
-16 c0 -5 -9 -9 -20 -9 -13 0 -18 5 -14 14 6 15 34 11 34 -5z m50 -14 c0 -8
-7 -15 -15 -15 -8 0 -15 7 -15 15 0 8 7 15 15 15 8 0 15 -7 15 -15z m-30 -39
c0 -20 -4 -23 -32 -20 -17 2 -35 -1 -39 -7 -5 -8 -8 -8 -13 0 -4 6 -2 11 3 11
6 0 11 9 11 20 0 16 7 20 35 20 30 0 35 -3 35 -24z m40 -11 c0 -8 -4 -15 -10
-15 -5 0 -10 7 -10 15 0 8 5 15 10 15 6 0 10 -7 10 -15z"/>
<path d="M425 760 c-3 -5 -1 -10 4 -10 6 0 11 5 11 10 0 6 -2 10 -4 10 -3 0
-8 -4 -11 -10z"/>
<path d="M668 753 c7 -3 16 -2 19 1 4 3 -2 6 -13 5 -11 0 -14 -3 -6 -6z"/>
<path d="M90 740 c0 -5 16 -7 35 -5 20 3 35 0 35 -5 0 -6 7 -10 15 -10 8 0 15
5 15 11 0 6 7 9 15 5 8 -3 15 -1 15 4 0 6 -29 10 -65 10 -36 0 -65 -4 -65 -10z"/>
<path d="M60 640 c0 -45 4 -80 10 -80 5 0 7 7 4 15 -4 8 -1 15 6 15 8 0 9 14
4 46 -5 34 -4 45 5 40 6 -4 11 -2 11 3 0 6 6 11 14 11 8 0 16 5 18 10 4 14 58
-11 58 -27 0 -7 -7 -13 -15 -13 -8 0 -15 7 -15 15 0 8 -7 15 -15 15 -8 0 -15
-7 -15 -15 0 -8 7 -15 15 -15 8 0 15 -7 15 -15 0 -25 27 -17 34 10 11 45 32
29 31 -23 0 -41 -3 -48 -17 -44 -12 3 -18 -1 -18 -12 0 -11 9 -16 30 -16 l30
0 0 80 c0 45 -4 80 -10 80 -5 0 -7 -7 -4 -15 4 -8 1 -15 -5 -15 -6 0 -11 7
-11 15 0 8 -7 15 -15 15 -8 0 -15 -5 -15 -10 0 -7 -6 -7 -19 0 -30 16 -81 13
-81 -5 0 -8 -5 -15 -11 -15 -6 0 -9 7 -5 15 3 8 1 15 -4 15 -6 0 -10 -35 -10
-80z"/>
<path d="M560 713 c0 -5 23 -8 50 -8 28 0 50 3 50 8 0 4 -22 7 -50 7 -27 0
-50 -3 -50 -7z"/>
<path d="M263 660 c0 -16 4 -30 9 -30 4 0 8 14 8 30 0 17 -4 30 -8 30 -5 0 -9
-13 -9 -30z"/>
<path d="M530 675 c0 -8 -7 -15 -15 -15 -12 0 -15 -14 -15 -65 0 -36 4 -65 9
-65 6 0 10 8 9 18 0 9 3 32 7 50 5 22 4 32 -4 32 -7 0 -9 5 -5 11 4 8 9 7 15
-2 7 -11 10 -9 15 8 6 20 11 22 60 18 30 -2 54 0 54 5 0 5 7 7 15 4 8 -4 15
-1 15 5 0 7 -28 11 -80 11 -64 0 -80 -3 -80 -15z"/>
<path d="M985 680 c3 -5 8 -10 11 -10 2 0 4 5 4 10 0 6 -5 10 -11 10 -5 0 -7
-4 -4 -10z"/>
<path d="M30 645 c0 -8 5 -15 10 -15 6 0 10 7 10 15 0 8 -4 15 -10 15 -5 0
-10 -7 -10 -15z"/>
<path d="M90 645 c0 -8 9 -15 20 -15 13 0 20 -7 20 -20 0 -11 7 -20 15 -20 8
0 15 -7 15 -15 0 -8 -7 -15 -15 -15 -8 0 -15 -5 -15 -11 0 -6 -9 -8 -20 -4
-11 4 -20 2 -20 -4 0 -7 26 -11 65 -11 39 0 65 4 65 11 0 5 -5 7 -10 4 -16
-10 -40 19 -29 36 14 22 11 39 -6 33 -8 -4 -15 -1 -15 5 0 6 -7 11 -15 11 -8
0 -15 7 -15 15 0 8 -9 15 -20 15 -11 0 -20 -7 -20 -15z"/>
<path d="M560 645 c0 -8 7 -15 16 -15 13 0 15 -8 13 -37 l-4 -38 52 3 53 4 0
49 c0 38 -3 49 -16 49 -12 0 -15 -6 -10 -26 14 -53 -17 -83 -50 -50 -16 17
-19 36 -4 36 6 0 10 -7 10 -15 0 -8 9 -15 20 -15 13 0 20 7 20 20 0 16 -7 20
-35 20 -24 0 -35 5 -35 15 0 8 -7 15 -15 15 -8 0 -15 -7 -15 -15z"/>
<path d="M702 578 c-1 -45 -5 -84 -8 -87 -3 -3 -34 -5 -69 -5 -36 0 -65 -3
-65 -8 0 -4 36 -8 80 -8 l80 0 0 95 c0 116 -16 127 -18 13z"/>
<path d="M986 651 c-4 -7 -5 -15 -2 -18 9 -9 19 4 14 18 -4 11 -6 11 -12 0z"/>
<path d="M985 600 c-3 -5 -1 -10 4 -10 6 0 11 5 11 10 0 6 -2 10 -4 10 -3 0
-8 -4 -11 -10z"/>
<path d="M90 575 c0 -8 9 -15 20 -15 11 0 20 7 20 15 0 8 -9 15 -20 15 -11 0
-20 -7 -20 -15z"/>
<path d="M470 575 c0 -8 4 -15 10 -15 5 0 7 7 4 15 -4 8 -8 15 -10 15 -2 0 -4
-7 -4 -15z"/>
<path d="M530 545 l0 -45 80 0 c66 0 80 3 80 16 0 13 -11 15 -68 12 l-67 -3 3
33 c3 24 0 32 -12 32 -12 0 -16 -10 -16 -45z"/>
<path d="M810 538 c0 -4 36 -8 80 -8 44 0 80 4 80 8 0 4 -36 8 -80 8 -44 0
-80 -4 -80 -8z"/>
<path d="M378 523 c6 -2 18 -2 25 0 6 3 1 5 -13 5 -14 0 -19 -2 -12 -5z"/>
<path d="M168 503 c7 -3 16 -2 19 1 4 3 -2 6 -13 5 -11 0 -14 -3 -6 -6z"/>
<path d="M340 485 c0 -8 -7 -15 -15 -15 -12 0 -15 -16 -15 -80 l0 -80 30 0
c17 0 30 -5 30 -11 0 -6 -7 -9 -15 -5 -8 3 -15 1 -15 -4 0 -6 29 -10 65 -10
41 0 65 4 65 11 0 6 -7 9 -15 5 -8 -3 -15 -1 -15 4 0 6 7 10 15 10 8 0 15 7
15 15 0 22 -28 18 -35 -5 -4 -14 -15 -20 -33 -19 -17 1 -21 3 -9 6 24 6 22 33
-3 33 -11 0 -20 -4 -20 -9 0 -5 -9 -7 -20 -4 -17 5 -20 14 -20 64 0 46 3 59
15 59 8 0 15 7 15 15 0 11 12 15 45 15 33 0 45 -4 45 -15 0 -8 7 -15 16 -15
14 0 16 -8 10 -55 -5 -45 -3 -55 9 -55 12 0 15 14 15 65 0 51 -3 65 -15 65 -8
0 -15 7 -15 15 0 12 -14 15 -65 15 -51 0 -65 -3 -65 -15z"/>
<path d="M735 490 c3 -5 8 -10 11 -10 2 0 4 5 4 10 0 6 -5 10 -11 10 -5 0 -7
-4 -4 -10z"/>
<path d="M60 463 c0 -5 29 -8 65 -8 36 0 65 3 65 8 0 4 -29 7 -65 7 -36 0 -65
-3 -65 -7z"/>
<path d="M720 375 c0 -52 3 -95 8 -95 4 0 8 36 8 80 1 45 4 83 6 86 3 2 42 6
87 7 113 3 102 17 -14 17 l-95 0 0 -95z"/>
<path d="M690 450 c0 -5 5 -10 11 -10 5 0 7 5 4 10 -3 6 -8 10 -11 10 -2 0 -4
-4 -4 -10z"/>
<path d="M30 410 c0 -20 -5 -30 -15 -30 -8 0 -15 -4 -15 -10 0 -15 29 -12 46
4 17 17 18 36 3 36 -5 0 -7 5 -3 11 4 8 8 8 13 0 4 -6 27 -8 57 -6 l49 4 -3
-39 c-3 -32 -1 -40 12 -40 13 0 16 11 16 50 l0 50 -80 0 -80 0 0 -30z"/>
<path d="M205 430 c3 -5 8 -10 11 -10 2 0 4 5 4 10 0 6 -5 10 -11 10 -5 0 -7
-4 -4 -10z"/>
<path d="M280 390 c0 -27 4 -50 8 -50 4 0 8 23 8 50 0 28 -4 50 -8 50 -4 0 -8
-22 -8 -50z"/>
<path d="M378 433 c6 -2 18 -2 25 0 6 3 1 5 -13 5 -14 0 -19 -2 -12 -5z"/>
<path d="M514 390 c1 -27 4 -50 9 -50 4 0 7 23 7 50 0 28 -4 50 -8 50 -5 0 -8
-22 -8 -50z"/>
<path d="M750 425 c0 -8 7 -15 15 -15 8 0 15 7 15 15 0 8 -7 15 -15 15 -8 0
-15 -7 -15 -15z"/>
<path d="M810 425 c0 -11 12 -15 50 -15 29 0 50 5 50 11 0 5 5 7 11 3 6 -3 7
-9 3 -13 -12 -8 -15 -101 -3 -101 4 0 6 -7 3 -15 -4 -8 -1 -15 5 -15 7 0 11
28 11 80 l0 80 -65 0 c-51 0 -65 -3 -65 -15z"/>
<path d="M200 326 l0 -85 -44 -6 c-25 -4 -48 -5 -53 -2 -4 2 -17 1 -28 -4 -13
-5 10 -8 63 -8 l82 -1 0 -80 c0 -44 4 -80 8 -80 4 0 6 29 4 65 -3 44 -1 65 7
65 7 0 11 -28 11 -80 l0 -80 45 0 45 0 0 50 c0 39 4 50 16 50 9 0 14 5 12 12
-6 18 -28 21 -28 4 0 -9 -7 -16 -15 -16 -19 0 -21 -66 -2 -74 6 -3 1 -3 -12 0
-14 4 -27 1 -31 -6 -5 -9 -9 -9 -14 -1 -4 6 -2 11 4 11 14 0 11 123 -4 132 -6
4 5 7 24 7 19 0 29 -3 23 -6 -27 -10 -12 -25 22 -21 19 2 35 0 35 -4 0 -13 38
-9 42 4 3 9 6 9 12 0 4 -7 2 -12 -4 -12 -7 0 -9 -12 -4 -35 6 -33 5 -35 -20
-35 -14 0 -26 -5 -26 -11 0 -5 4 -7 10 -4 5 3 19 0 31 -8 13 -9 16 -17 10 -22
-6 -3 -11 -1 -11 4 0 19 -32 12 -51 -11 -23 -26 -24 -38 -4 -38 8 0 15 7 15
15 0 10 11 15 35 15 l35 0 0 80 c0 64 -3 80 -15 80 -8 0 -15 7 -15 15 0 12
-16 15 -80 15 -64 0 -80 3 -80 15 0 8 -7 15 -15 15 -12 0 -15 16 -15 80 0 47
-4 80 -10 80 -6 0 -10 -35 -10 -84z m188 -133 c-10 -2 -26 -2 -35 0 -10 3 -2
5 17 5 19 0 27 -2 18 -5z"/>
<path d="M370 395 c0 -8 9 -15 20 -15 11 0 20 7 20 15 0 8 -9 15 -20 15 -11 0
-20 -7 -20 -15z"/>
<path d="M440 394 c0 -14 3 -14 15 -4 8 7 15 14 15 16 0 2 -7 4 -15 4 -8 0
-15 -7 -15 -16z"/>
<path d="M750 341 c0 -48 3 -61 15 -61 8 0 15 -7 15 -15 0 -12 14 -15 65 -15
39 0 65 4 65 11 0 6 -9 8 -20 4 -11 -4 -20 -2 -20 4 0 6 9 11 20 11 11 0 20 7
20 15 0 10 -10 15 -30 15 -16 0 -30 5 -30 10 0 6 14 13 30 17 35 7 44 43 10
43 -13 0 -20 -7 -20 -20 0 -11 -7 -20 -15 -20 -8 0 -15 9 -15 20 0 11 -7 20
-15 20 -8 0 -15 -9 -15 -20 0 -11 7 -20 15 -20 10 0 15 -10 15 -29 0 -16 5
-31 12 -33 6 -2 -6 -4 -27 -4 -21 0 -33 2 -26 4 16 5 14 32 -3 32 -8 0 -16 -5
-18 -12 -3 -9 -6 -9 -12 0 -4 7 -2 12 3 12 16 0 13 59 -4 76 -13 14 -15 9 -15
-45z"/>
<path d="M87 374 c6 -16 19 -18 27 -5 3 5 -3 11 -13 14 -14 3 -18 1 -14 -9z"/>
<path d="M958 345 c2 -19 6 -35 8 -35 2 0 4 16 4 35 0 19 -4 35 -8 35 -4 0 -6
-16 -4 -35z"/>
<path d="M18 333 c-22 -5 -24 -23 -3 -23 8 0 15 -7 15 -15 0 -8 7 -15 15 -15
8 0 15 -5 15 -11 0 -6 -7 -9 -15 -5 -8 3 -15 1 -15 -4 0 -6 35 -10 80 -10 67
0 80 3 80 16 0 14 -10 16 -59 12 -55 -4 -60 -2 -71 20 -6 14 -8 27 -5 30 3 3
5 0 5 -6 0 -7 7 -12 15 -12 8 0 15 7 15 15 0 15 -33 19 -72 8z"/>
<path d="M100 326 c0 -14 48 -32 58 -21 3 3 -2 5 -11 5 -9 0 -17 7 -17 15 0 8
-7 15 -15 15 -8 0 -15 -6 -15 -14z"/>
<path d="M485 320 c-3 -5 -1 -10 4 -10 6 0 11 5 11 10 0 6 -2 10 -4 10 -3 0
-8 -4 -11 -10z"/>
<path d="M750 260 c0 -5 5 -10 11 -10 5 0 7 5 4 10 -3 6 -8 10 -11 10 -2 0 -4
-4 -4 -10z"/>
<path d="M925 260 c-3 -5 -1 -10 4 -10 6 0 11 5 11 10 0 6 -2 10 -4 10 -3 0
-8 -4 -11 -10z"/>
<path d="M560 242 c0 -5 29 -9 65 -9 36 0 65 4 65 9 0 4 -29 8 -65 8 -36 0
-65 -4 -65 -8z"/>
<path d="M818 223 c7 -3 16 -2 19 1 4 3 -2 6 -13 5 -11 0 -14 -3 -6 -6z"/>
<path d="M530 140 l0 -80 30 0 c17 0 30 -4 30 -8 0 -5 -13 -8 -30 -7 -16 1
-30 -2 -30 -7 0 -4 36 -8 80 -8 l80 0 0 30 c0 20 -5 30 -15 30 -10 0 -15 11
-15 35 0 28 -4 35 -20 35 -11 0 -20 7 -20 15 0 8 9 15 20 15 12 0 20 -7 20
-16 0 -11 6 -15 18 -12 15 4 17 -1 14 -34 -2 -21 0 -38 5 -38 6 0 9 -13 8 -30
-1 -16 2 -30 7 -30 4 0 8 36 8 80 0 64 -3 80 -15 80 -8 0 -15 7 -15 15 0 12
-16 15 -80 15 l-80 0 0 -80z m29 43 c0 -25 -1 -25 -8 -8 -5 11 -7 23 -4 28 8
14 13 7 12 -20z m46 7 c-3 -5 -10 -10 -16 -10 -5 0 -9 5 -9 10 0 6 7 10 16 10
8 0 12 -4 9 -10z m15 -45 c0 -8 -7 -15 -15 -15 -8 0 -15 7 -15 15 0 8 7 15 15
15 8 0 15 -7 15 -15z m-30 -35 c0 -11 -7 -20 -15 -20 -8 0 -15 9 -15 20 0 11
7 20 15 20 8 0 15 -9 15 -20z m53 -14 c3 -8 -2 -16 -13 -19 -23 -6 -30 0 -23
19 7 18 29 18 36 0z m25 -43 c-10 -2 -26 -2 -35 0 -10 3 -2 5 17 5 19 0 27 -2
18 -5z"/>
<path d="M705 210 c3 -5 8 -10 11 -10 2 0 4 5 4 10 0 6 -5 10 -11 10 -5 0 -7
-4 -4 -10z"/>
<path d="M500 142 c0 -29 4 -52 9 -52 8 0 3 90 -5 99 -2 2 -4 -19 -4 -47z"/>
<path d="M455 132 c-3 -16 -1 -39 4 -53 8 -20 10 -16 10 29 1 58 -4 67 -14 24z"/>
<path d="M741 144 c0 -11 3 -14 6 -6 3 7 2 16 -1 19 -3 4 -6 -2 -5 -13z"/>
<path d="M310 10 c0 -5 5 -10 10 -10 6 0 10 5 10 10 0 6 -4 10 -10 10 -5 0
-10 -4 -10 -10z"/>
<path d="M395 10 c-3 -5 -1 -10 4 -10 6 0 11 5 11 10 0 6 -2 10 -4 10 -3 0 -8
-4 -11 -10z"/>
</g>
</svg>
