<?xml version="1.0" standalone="no"?>
<!DOCTYPE svg PUBLIC "-//W3C//DTD SVG 20010904//EN"
 "http://www.w3.org/TR/2001/REC-SVG-20010904/DTD/svg10.dtd">
<svg version="1.0" xmlns="http://www.w3.org/2000/svg"
 width="100.000000pt" height="100.000000pt" viewBox="0 0 100.000000 100.000000"
 preserveAspectRatio="xMidYMid meet">
<metadata>
Created by potrace 1.16, written by Peter Selinger 2001-2019
</metadata>
<g transform="translate(0.000000,100.000000) scale(0.100000,-0.100000)"
fill="#000000" stroke="none">
<path d="M60 974 c0 -14 4 -23 10 -19 13 8 13 45 0 45 -5 0 -10 -12 -10 -26z"/>
<path d="M307 970 l-6 -30 -121 0 -120 0 0 -114 c0 -118 -4 -129 -45 -139 -18
-4 -18 -5 3 -6 30 -1 30 -38 0 -44 l-23 -4 23 -2 c30 -1 32 -51 2 -51 -11 0
-20 -4 -20 -10 0 -5 13 -10 30 -10 23 0 30 -4 30 -20 0 -16 -7 -20 -30 -20
-17 0 -30 -4 -30 -10 0 -6 90 -10 250 -10 l250 0 0 118 0 117 50 -3 c48 -4 50
-5 50 -33 0 -26 3 -29 35 -29 35 0 35 0 35 -45 0 -44 24 -85 50 -85 6 0 10
-18 10 -40 0 -38 -2 -40 -30 -40 l-30 0 0 -65 0 -65 -60 0 c-59 0 -61 -1 -66
-30 l-6 -30 -74 0 -74 0 0 30 c0 27 -3 30 -29 30 -26 0 -30 4 -33 33 -2 27 -8
33 -30 35 -25 3 -28 7 -28 42 0 21 -4 42 -10 45 -6 4 -10 -27 -10 -84 l0 -91
60 0 c57 0 60 -1 60 -25 0 -19 -4 -23 -17 -18 -10 4 -23 14 -30 22 -11 14 -12
12 -13 -11 0 -28 1 -28 65 -28 l65 0 0 -95 0 -95 30 0 30 0 0 95 0 95 60 0 60
0 0 30 c0 28 3 30 35 30 33 0 35 2 35 35 0 32 2 35 30 35 l30 0 0 125 0 125
-30 0 c-27 0 -30 3 -30 30 0 28 -3 30 -35 30 -32 0 -35 2 -35 30 l0 30 -60 0
-60 0 0 125 c0 85 -4 125 -11 125 -7 0 -10 -12 -7 -30 l5 -30 -54 0 c-51 0
-54 1 -59 30 -7 34 -24 41 -24 10 0 -11 -4 -20 -10 -20 -5 0 -10 9 -10 20 0
31 -17 24 -23 -10z m63 -95 l0 -65 35 0 c32 0 35 -2 35 -30 l0 -30 -65 0 -65
0 0 95 0 95 30 0 30 0 0 -65z m-180 34 c0 -16 -26 -39 -44 -39 -9 0 -16 -7
-16 -16 0 -18 -23 -44 -39 -44 -7 0 -11 23 -11 55 l0 55 55 0 c32 0 55 -4 55
-11z m50 -4 c0 -8 -7 -15 -15 -15 -8 0 -15 7 -15 15 0 8 7 15 15 15 8 0 15 -7
15 -15z m50 0 c0 -8 -9 -15 -20 -15 -11 0 -20 7 -20 15 0 8 9 15 20 15 11 0
20 -7 20 -15z m141 -2 c1 -17 2 -17 6 0 2 9 13 17 24 17 17 0 19 -8 19 -75 0
-43 -4 -75 -10 -75 -5 0 -10 14 -10 30 0 17 -4 30 -10 30 -5 0 -10 9 -10 20 0
15 -7 20 -25 20 -20 0 -25 5 -25 25 0 18 5 25 20 25 12 0 20 -7 21 -17z m-138
-53 c-6 -23 -23 -27 -23 -5 0 8 -4 15 -10 15 -5 0 -10 -11 -10 -25 0 -21 -5
-25 -30 -25 -27 0 -30 3 -30 30 0 30 1 30 54 30 49 0 54 -2 49 -20z m-123 -10
c0 -5 -4 -10 -10 -10 -5 0 -10 5 -10 10 0 6 5 10 10 10 6 0 10 -4 10 -10z
m250 0 c0 -5 -7 -10 -15 -10 -8 0 -15 5 -15 10 0 6 7 10 15 10 8 0 15 -4 15
-10z m-230 -90 l0 -60 -30 0 -30 0 0 60 0 60 30 0 30 0 0 -60z m103 40 c-3
-11 -14 -20 -24 -20 -11 0 -19 -4 -19 -10 0 -5 -9 -10 -20 -10 -13 0 -20 7
-20 20 0 13 7 20 19 20 11 0 23 5 26 10 3 6 14 10 25 10 13 0 17 -5 13 -20z
m-183 -10 c0 -5 -7 -10 -15 -10 -8 0 -15 5 -15 10 0 6 7 10 15 10 8 0 15 -4
15 -10z m0 -50 c0 -11 -6 -20 -14 -20 -7 0 -16 9 -19 20 -4 15 0 20 14 20 12
0 19 -7 19 -20z m200 -10 c0 -27 -3 -30 -30 -30 -27 0 -30 3 -30 30 0 27 3 30
30 30 27 0 30 -3 30 -30z m170 -55 c0 -50 -4 -85 -10 -85 -5 0 -10 -4 -10 -10
0 -5 6 -10 14 -10 21 0 8 -37 -15 -43 -12 -3 -19 0 -19 9 0 8 -4 14 -10 14 -5
0 -10 -4 -10 -10 0 -6 -35 -10 -85 -10 -47 0 -85 4 -85 8 0 23 30 32 107 32
l83 0 0 83 c0 77 9 107 32 107 4 0 8 -38 8 -85z m-250 55 c0 -5 -4 -10 -10
-10 -5 0 -10 5 -10 10 0 6 5 10 10 10 6 0 10 -4 10 -10z m190 -65 l0 -75 -75
0 -75 0 0 45 c0 43 1 45 30 45 27 0 30 3 30 30 0 29 2 30 45 30 l45 0 0 -75z
m-290 5 c0 -27 3 -30 30 -30 27 0 30 3 30 30 0 27 3 30 30 30 l30 0 0 -65 0
-65 -95 0 -95 0 0 65 0 65 35 0 c32 0 35 -2 35 -30z m40 0 c0 -5 -4 -10 -10
-10 -5 0 -10 5 -10 10 0 6 5 10 10 10 6 0 10 -4 10 -10z m560 -75 c0 -18 -5
-25 -20 -25 -15 0 -20 7 -20 25 0 18 5 25 20 25 15 0 20 -7 20 -25z m-600 -55
c0 -5 -11 -10 -25 -10 -14 0 -25 5 -25 10 0 6 11 10 25 10 14 0 25 -4 25 -10z
m40 0 c0 -5 -7 -10 -15 -10 -8 0 -15 5 -15 10 0 6 7 10 15 10 8 0 15 -4 15
-10z m70 0 c0 -5 -11 -10 -25 -10 -14 0 -25 5 -25 10 0 6 11 10 25 10 14 0 25
-4 25 -10z m490 -109 c0 -10 -9 -21 -20 -24 -16 -4 -20 0 -20 19 0 17 6 24 20
24 13 0 20 -7 20 -19z m-420 -66 c0 -18 -5 -25 -20 -25 -15 0 -20 7 -20 25 0
18 5 25 20 25 15 0 20 -7 20 -25z m293 -65 c-3 -11 -14 -20 -24 -20 -12 0 -19
7 -19 20 0 14 7 20 24 20 19 0 23 -4 19 -20z m-123 -125 c0 -50 -4 -85 -10
-85 -6 0 -10 35 -10 85 0 50 4 85 10 85 6 0 10 -35 10 -85z"/>
<path d="M325 860 c3 -5 10 -10 16 -10 5 0 9 5 9 10 0 6 -7 10 -16 10 -8 0
-12 -4 -9 -10z"/>
<path d="M325 820 c-3 -5 3 -10 15 -10 12 0 18 5 15 10 -3 6 -10 10 -15 10 -5
0 -12 -4 -15 -10z"/>
<path d="M370 780 c0 -5 5 -10 10 -10 6 0 10 5 10 10 0 6 -4 10 -10 10 -5 0
-10 -4 -10 -10z"/>
<path d="M370 700 c0 -5 5 -10 11 -10 5 0 7 5 4 10 -3 6 -8 10 -11 10 -2 0 -4
-4 -4 -10z"/>
<path d="M80 621 c0 -6 7 -11 15 -11 8 0 15 -7 15 -15 0 -8 5 -15 11 -15 21 0
4 45 -18 48 -13 2 -23 -1 -23 -7z"/>
<path d="M190 600 c0 -11 5 -20 10 -20 6 0 10 9 10 20 0 11 -4 20 -10 20 -5 0
-10 -9 -10 -20z"/>
<path d="M420 980 c0 -11 5 -20 10 -20 6 0 10 9 10 20 0 11 -4 20 -10 20 -5 0
-10 -9 -10 -20z"/>
<path d="M560 980 c0 -15 -7 -20 -25 -20 -14 0 -25 -4 -25 -10 0 -6 37 -10 90
-10 l90 0 0 -35 c0 -32 2 -35 30 -35 27 0 30 -3 30 -30 0 -27 3 -30 30 -30 27
0 30 -3 30 -30 0 -27 3 -30 30 -30 l30 0 0 -60 0 -60 35 0 35 0 0 185 c0 117
-4 185 -10 185 -5 0 -10 -13 -10 -30 l0 -30 -110 0 c-67 0 -110 4 -110 10 0 6
-18 10 -39 10 -33 0 -40 4 -44 23 l-4 22 -2 -22 c-1 -28 -31 -31 -31 -3 0 11
-4 20 -10 20 -5 0 -10 -9 -10 -20z m360 -165 c0 -85 -3 -105 -15 -105 -10 0
-15 15 -17 58 -3 54 -4 57 -30 60 -24 3 -28 8 -28 33 0 29 0 29 -60 29 -47 0
-60 3 -60 15 0 12 18 15 105 15 l105 0 0 -105z m-110 31 c0 -19 -4 -23 -19
-19 -11 3 -21 13 -24 24 -4 15 0 19 19 19 19 0 24 -5 24 -24z m60 -60 c0 -19
-4 -23 -20 -19 -11 3 -20 14 -20 24 0 12 7 19 20 19 14 0 20 -7 20 -24z m50
-116 c0 -11 -7 -20 -15 -20 -8 0 -15 9 -15 20 0 11 7 20 15 20 8 0 15 -9 15
-20z"/>
<path d="M0 930 c0 -5 9 -10 19 -10 11 0 23 5 26 10 4 6 -5 10 -19 10 -14 0
-26 -4 -26 -10z"/>
<path d="M620 895 c0 -20 5 -25 25 -25 14 0 25 5 25 10 0 6 -7 10 -15 10 -8 0
-15 7 -15 15 0 8 -4 15 -10 15 -5 0 -10 -11 -10 -25z"/>
<path d="M561 848 c1 -16 3 -18 6 -6 2 9 12 19 21 21 12 3 10 5 -5 6 -18 1
-23 -4 -22 -21z"/>
<path d="M520 804 c0 -7 27 -34 34 -34 3 0 6 9 6 20 0 13 -7 20 -20 20 -11 0
-20 -3 -20 -6z"/>
<path d="M640 740 c0 -5 7 -10 15 -10 8 0 15 -4 15 -10 0 -5 5 -10 10 -10 6 0
10 9 10 20 0 15 -7 20 -25 20 -14 0 -25 -4 -25 -10z"/>
<path d="M560 700 c0 -5 5 -10 11 -10 5 0 7 5 4 10 -3 6 -8 10 -11 10 -2 0 -4
-4 -4 -10z"/>
<path d="M710 684 c0 -3 6 -12 14 -20 20 -19 26 -18 26 6 0 13 -7 20 -20 20
-11 0 -20 -3 -20 -6z"/>
<path d="M620 640 c0 -5 5 -10 11 -10 5 0 7 5 4 10 -3 6 -8 10 -11 10 -2 0 -4
-4 -4 -10z"/>
<path d="M870 601 c0 -12 5 -21 10 -21 6 0 10 6 10 14 0 8 -4 18 -10 21 -5 3
-10 -3 -10 -14z"/>
<path d="M925 610 c-3 -6 -3 -19 0 -30 6 -19 2 -20 -80 -20 -55 0 -84 -4 -80
-10 3 -5 28 -10 56 -10 27 0 49 -4 49 -10 0 -5 -22 -10 -49 -10 -28 0 -53 -4
-56 -10 -4 -6 27 -10 84 -10 l91 0 0 60 c0 59 -3 69 -15 50z m-5 -80 c0 -5 -9
-10 -20 -10 -11 0 -20 5 -20 10 0 6 9 10 20 10 11 0 20 -4 20 -10z"/>
<path d="M190 468 c0 -23 4 -28 25 -28 14 0 25 5 25 10 0 6 -5 10 -11 10 -7 0
-18 8 -25 18 -12 15 -13 14 -14 -10z"/>
<path d="M45 460 c5 -16 2 -20 -19 -20 -14 0 -26 -4 -26 -10 0 -5 9 -10 20
-10 13 0 20 -7 20 -20 0 -13 -7 -20 -20 -20 -11 0 -20 -4 -20 -10 0 -5 9 -10
20 -10 18 0 20 -7 20 -55 0 -30 5 -55 10 -55 6 0 10 -35 10 -85 l0 -85 -30 0
c-17 0 -30 -4 -30 -10 0 -6 58 -10 155 -10 l155 0 0 35 0 35 -60 0 -60 0 0 30
c0 27 -3 30 -30 30 l-30 0 0 60 0 60 -30 0 c-16 0 -30 -4 -30 -10 0 -5 9 -10
19 -10 16 0 31 -18 31 -36 0 -2 -13 -4 -30 -4 l-30 0 0 115 c0 75 -4 115 -11
115 -6 0 -8 -9 -4 -20z m65 -260 c0 -27 3 -30 30 -30 27 0 30 -3 30 -30 0 -27
3 -30 30 -30 20 0 30 -5 30 -15 0 -12 -15 -15 -75 -15 l-75 0 0 75 c0 60 3 75
15 75 10 0 15 -10 15 -30z m180 -105 c0 -8 -9 -15 -20 -15 -11 0 -20 7 -20 15
0 8 9 15 20 15 11 0 20 -7 20 -15z"/>
<path d="M130 140 c0 -5 5 -10 11 -10 5 0 7 5 4 10 -3 6 -8 10 -11 10 -2 0 -4
-4 -4 -10z"/>
<path d="M870 470 c0 -5 5 -10 10 -10 6 0 10 5 10 10 0 6 -4 10 -10 10 -5 0
-10 -4 -10 -10z"/>
<path d="M920 471 c0 -6 5 -13 10 -16 6 -3 10 1 10 9 0 9 -4 16 -10 16 -5 0
-10 -4 -10 -9z"/>
<path d="M870 413 c1 -25 2 -26 14 -10 16 21 32 22 40 1 9 -23 8 -24 -24 -24
l-30 0 0 -65 0 -65 -30 0 c-27 0 -30 -3 -30 -30 0 -27 -3 -30 -30 -30 -27 0
-30 -3 -30 -30 l0 -30 -65 0 -65 0 0 -35 0 -35 160 0 160 0 0 190 0 190 -35 0
c-32 0 -35 -3 -35 -27z m50 -78 c0 -16 -6 -25 -15 -25 -9 0 -15 9 -15 25 0 16
6 25 15 25 9 0 15 -9 15 -25z m0 -150 l0 -105 -105 0 c-87 0 -105 3 -105 15 0
10 10 15 30 15 27 0 30 3 30 30 0 27 3 30 30 30 27 0 30 3 30 30 0 27 3 30 30
30 27 0 30 3 30 30 0 20 5 30 15 30 12 0 15 -18 15 -105z m-230 -90 c0 -9 -9
-15 -25 -15 -16 0 -25 6 -25 15 0 9 9 15 25 15 16 0 25 -6 25 -15z"/>
<path d="M855 200 c-3 -5 -1 -10 4 -10 6 0 11 5 11 10 0 6 -2 10 -4 10 -3 0
-8 -4 -11 -10z"/>
<path d="M795 140 c-3 -5 -1 -10 4 -10 6 0 11 5 11 10 0 6 -2 10 -4 10 -3 0
-8 -4 -11 -10z"/>
<path d="M870 119 c0 -5 5 -7 10 -4 6 3 10 8 10 11 0 2 -4 4 -10 4 -5 0 -10
-5 -10 -11z"/>
<path d="M190 400 c0 -13 7 -20 20 -20 24 0 25 6 6 26 -20 19 -26 18 -26 -6z"/>
<path d="M88 383 c7 -3 16 -2 19 1 4 3 -2 6 -13 5 -11 0 -14 -3 -6 -6z"/>
<path d="M620 369 c0 -5 5 -7 10 -4 6 3 10 8 10 11 0 2 -4 4 -10 4 -5 0 -10
-5 -10 -11z"/>
<path d="M131 344 c0 -11 3 -14 6 -6 3 7 2 16 -1 19 -3 4 -6 -2 -5 -13z"/>
<path d="M751 344 c0 -11 3 -14 6 -6 3 7 2 16 -1 19 -3 4 -6 -2 -5 -13z"/>
<path d="M425 300 c3 -5 8 -10 11 -10 2 0 4 5 4 10 0 6 -5 10 -11 10 -5 0 -7
-4 -4 -10z"/>
<path d="M500 299 c0 -5 5 -7 10 -4 6 3 10 8 10 11 0 2 -4 4 -10 4 -5 0 -10
-5 -10 -11z"/>
<path d="M810 290 c0 -24 6 -25 26 -6 19 20 18 26 -6 26 -13 0 -20 -7 -20 -20z"/>
<path d="M150 244 c0 -3 6 -12 14 -20 20 -19 26 -18 26 6 0 13 -7 20 -20 20
-11 0 -20 -3 -20 -6z"/>
<path d="M648 243 c7 -3 16 -2 19 1 4 3 -2 6 -13 5 -11 0 -14 -3 -6 -6z"/>
<path d="M210 184 c0 -3 6 -12 14 -20 20 -19 26 -18 26 6 0 13 -7 20 -20 20
-11 0 -20 -3 -20 -6z"/>
<path d="M398 183 c7 -3 16 -2 19 1 4 3 -2 6 -13 5 -11 0 -14 -3 -6 -6z"/>
<path d="M562 170 c0 -14 2 -19 5 -12 2 6 2 18 0 25 -3 6 -5 1 -5 -13z"/>
<path d="M333 116 c9 -7 17 -17 17 -21 0 -4 -8 -14 -17 -21 -16 -12 -15 -13
10 -14 24 0 27 3 27 35 0 32 -3 35 -27 35 -25 -1 -26 -2 -10 -14z"/>
<path d="M560 95 c0 -28 4 -35 20 -35 11 0 20 5 20 10 0 6 -4 10 -10 10 -5 0
-10 7 -10 15 0 8 5 15 10 15 6 0 10 5 10 10 0 6 -9 10 -20 10 -16 0 -20 -7
-20 -35z"/>
<path d="M960 70 c0 -5 9 -10 20 -10 11 0 20 5 20 10 0 6 -9 10 -20 10 -11 0
-20 -4 -20 -10z"/>
<path d="M62 20 c0 -14 2 -19 5 -12 2 6 2 18 0 25 -3 6 -5 1 -5 -13z"/>
<path d="M372 20 c0 -14 2 -19 5 -12 2 6 2 18 0 25 -3 6 -5 1 -5 -13z"/>
<path d="M432 20 c0 -14 2 -19 5 -12 2 6 2 18 0 25 -3 6 -5 1 -5 -13z"/>
<path d="M502 20 c0 -14 2 -19 5 -12 2 6 2 18 0 25 -3 6 -5 1 -5 -13z"/>
<path d="M552 20 c0 -14 2 -19 5 -12 2 6 2 18 0 25 -3 6 -5 1 -5 -13z"/>
<path d="M920 20 c0 -11 5 -20 10 -20 6 0 10 9 10 20 0 11 -4 20 -10 20 -5 0
-10 -9 -10 -20z"/>
</g>
</svg>
