<?xml version="1.0" standalone="no"?>
<!DOCTYPE svg PUBLIC "-//W3C//DTD SVG 20010904//EN"
 "http://www.w3.org/TR/2001/REC-SVG-20010904/DTD/svg10.dtd">
<svg version="1.0" xmlns="http://www.w3.org/2000/svg"
 width="180.000000pt" height="180.000000pt" viewBox="0 0 180.000000 180.000000"
 preserveAspectRatio="xMidYMid meet">
<metadata>
Created by potrace 1.16, written by Peter Selinger 2001-2019
</metadata>
<g transform="translate(0.000000,180.000000) scale(0.100000,-0.100000)"
fill="#000000" stroke="none">
<path d="M625 1568 c-6 -17 -182 -881 -191 -936 l-7 -42 389 2 389 3 13 103
c8 57 11 107 7 110 -4 4 -111 8 -240 10 l-233 3 10 42 c5 23 13 59 19 80 l10
37 219 0 219 0 5 33 c3 17 10 59 16 91 5 33 10 72 10 87 l0 26 -205 5 c-112 2
-207 7 -210 10 -3 3 0 28 6 57 l11 51 236 0 c130 0 243 4 250 9 14 8 46 196
38 218 -8 19 -754 19 -761 1z m735 -28 c0 -10 -5 -53 -11 -95 l-11 -75 -249 0
-248 0 -11 -57 c-6 -32 -15 -70 -20 -85 l-9 -28 220 0 221 0 -6 -27 c-7 -34
-26 -155 -26 -165 0 -5 -100 -8 -223 -8 l-223 0 -17 -82 c-10 -46 -20 -93 -23
-105 l-6 -23 244 0 244 0 -12 -87 c-7 -49 -13 -89 -13 -90 -1 -2 -164 -3 -364
-3 l-363 0 43 208 c23 114 65 322 94 462 28 140 52 261 54 268 3 9 84 12 360
12 346 0 355 -1 355 -20z"/>
<path d="M1335 439 c-570 -41 -1041 -87 -1088 -105 -20 -7 -29 -44 -21 -83 l7
-31 196 0 c108 0 409 3 669 7 l472 6 0 109 0 108 -62 -1 c-35 -1 -112 -5 -173
-10z m215 -99 l0 -90 -634 0 c-349 0 -641 -3 -650 -6 -13 -5 -16 1 -16 29 0
22 6 37 15 41 39 15 604 68 1060 100 105 8 198 14 208 15 15 1 17 -9 17 -89z"/>
</g>
</svg>
