<?xml version="1.0" standalone="no"?>
<!DOCTYPE svg PUBLIC "-//W3C//DTD SVG 20010904//EN"
 "http://www.w3.org/TR/2001/REC-SVG-20010904/DTD/svg10.dtd">
<svg version="1.0" xmlns="http://www.w3.org/2000/svg"
 width="100.000000pt" height="100.000000pt" viewBox="0 0 100.000000 100.000000"
 preserveAspectRatio="xMidYMid meet">
<metadata>
Created by potrace 1.16, written by Peter Selinger 2001-2019
</metadata>
<g transform="translate(0.000000,100.000000) scale(0.100000,-0.100000)"
fill="#000000" stroke="none">
<path d="M310 933 c0 -5 29 -8 65 -8 36 0 65 3 65 8 0 4 -29 7 -65 7 -36 0
-65 -3 -65 -7z"/>
<path d="M250 880 c0 -5 -13 -10 -30 -10 -16 0 -30 -4 -30 -10 0 -5 9 -10 20
-10 11 0 20 -4 20 -10 0 -5 -20 -10 -45 -10 -48 0 -59 15 -22 30 21 8 21 9 -5
9 -25 1 -28 -3 -28 -29 0 -28 -3 -30 -35 -30 -30 0 -35 -3 -35 -22 0 -50 -20
-97 -43 -101 l-22 -4 23 -2 c22 -1 22 -2 22 -176 0 -168 -1 -175 -20 -175 -11
0 -20 -4 -20 -10 0 -5 11 -10 25 -10 14 0 25 -4 25 -10 0 -5 14 -10 30 -10 41
0 43 -37 3 -43 l-28 -4 28 -2 c20 -1 27 -6 27 -22 0 -28 23 -49 54 -49 19 0
26 -5 26 -20 0 -16 7 -20 30 -20 23 0 30 4 30 20 0 32 36 25 50 -10 12 -29 15
-30 74 -29 108 2 131 17 29 18 -86 1 -93 3 -93 21 0 18 7 20 64 20 42 0 66 -4
69 -12 4 -10 6 -10 6 0 1 6 12 12 26 12 18 0 25 -5 25 -20 0 -14 7 -20 23 -20
20 1 20 2 5 11 -31 17 -20 29 27 29 34 0 45 -4 45 -16 0 -11 -6 -14 -20 -9
-11 4 -20 2 -20 -4 0 -6 14 -11 30 -11 27 0 30 3 30 30 0 25 4 30 24 30 14 0
28 -4 31 -10 3 -6 52 -10 111 -10 l104 0 0 30 c0 27 3 30 29 30 17 0 33 5 36
10 3 6 15 10 26 10 10 0 19 5 19 10 0 6 -9 10 -20 10 -11 0 -20 5 -20 10 0 6
9 10 20 10 11 0 20 5 20 10 0 6 -11 10 -24 10 -19 0 -22 4 -18 25 3 16 11 25
23 25 11 0 19 5 19 10 0 6 -13 10 -30 10 l-30 0 0 -65 0 -65 -35 0 c-32 0 -35
-2 -35 -30 l0 -30 -90 0 -90 0 0 30 c0 27 3 30 30 30 l30 0 0 65 c0 62 1 65
24 65 20 0 23 -4 18 -22 -3 -13 -13 -28 -21 -35 -14 -11 -12 -12 12 -13 27 0
27 1 27 65 l0 65 30 0 30 0 0 95 0 95 -27 0 c-24 -1 -26 -2 -12 -13 9 -7 19
-22 23 -35 6 -19 4 -22 -18 -22 -25 0 -26 2 -26 65 l0 65 -30 0 c-30 0 -30 0
-30 56 0 37 -4 53 -11 48 -6 -3 -9 -15 -6 -25 4 -15 0 -19 -19 -19 -20 0 -24
5 -24 30 l0 30 90 0 90 0 0 -30 c0 -28 3 -30 35 -30 32 0 35 -2 35 -30 0 -27
3 -30 30 -30 17 0 30 5 30 10 0 6 -9 10 -20 10 -29 0 -27 37 3 43 l22 4 -22 2
c-31 1 -31 38 0 44 16 3 13 5 -10 6 -18 0 -33 6 -33 11 0 6 -13 10 -29 10 -23
0 -31 5 -34 23 l-4 22 -2 -22 c-1 -22 -5 -23 -90 -23 -77 0 -90 2 -94 18 -3
10 -5 6 -6 -10 -1 -24 -5 -28 -31 -28 -27 0 -30 3 -30 30 0 27 -3 30 -30 30
-23 0 -30 -4 -30 -20 0 -13 -7 -20 -20 -20 -12 0 -20 7 -20 16 0 37 -25 44
-149 44 -74 0 -121 -4 -121 -10z m250 -30 c0 -23 -34 -28 -44 -7 -5 10 -7 10
-12 0 -4 -9 -28 -13 -69 -13 -41 0 -65 4 -69 13 -5 10 -7 10 -12 0 -10 -21
-44 -16 -44 7 0 19 7 20 125 20 118 0 125 -1 125 -20z m110 -10 c0 -5 -9 -10
-20 -10 -11 0 -20 5 -20 10 0 6 9 10 20 10 11 0 20 -4 20 -10z m-437 -50 c-3
-11 -14 -20 -24 -20 -12 0 -19 7 -19 20 0 14 7 20 24 20 19 0 23 -4 19 -20z
m447 -5 c0 -19 -4 -23 -17 -18 -10 4 -23 14 -30 22 -11 14 -12 12 -13 -11 0
-24 4 -28 30 -28 27 0 30 -3 30 -30 0 -28 3 -30 35 -30 l35 0 0 -125 0 -125
-220 0 -220 0 0 -65 0 -65 125 0 125 0 0 35 0 35 95 0 95 0 0 -35 c0 -33 -2
-35 -35 -35 -32 0 -35 -2 -35 -30 0 -27 -3 -30 -30 -30 -25 0 -30 -4 -30 -25
0 -14 5 -25 10 -25 6 0 10 6 10 14 0 7 9 16 20 19 16 4 20 0 20 -19 l0 -24
-215 0 -215 0 0 30 c0 27 -3 30 -30 30 l-30 0 0 250 0 250 30 0 c27 0 30 3 30
30 l0 30 215 0 215 0 0 -25z m320 1 c0 -19 -4 -22 -24 -19 -13 3 -26 14 -29
24 -4 15 0 19 24 19 24 0 29 -4 29 -24z m-830 -6 c0 -21 -24 -28 -35 -10 -8
14 3 30 21 30 8 0 14 -9 14 -20z m560 0 c0 -5 -7 -10 -15 -10 -8 0 -15 5 -15
10 0 6 7 10 15 10 8 0 15 -4 15 -10z m-560 -50 c0 -15 -7 -20 -25 -20 -18 0
-25 5 -25 20 0 15 7 20 25 20 18 0 25 -5 25 -20z m580 -4 c0 -19 -4 -22 -24
-19 -13 3 -26 14 -29 24 -4 15 0 19 24 19 24 0 29 -4 29 -24z m40 -16 c0 -11
-4 -20 -10 -20 -5 0 -10 9 -10 20 0 11 5 20 10 20 6 0 10 -9 10 -20z m-617
-40 c-3 -11 -12 -20 -19 -20 -8 0 -14 -4 -14 -10 0 -5 7 -10 15 -10 9 0 15 -9
15 -25 0 -16 -6 -25 -15 -25 -8 0 -15 -4 -15 -10 0 -5 7 -10 15 -10 12 0 15
-13 15 -60 0 -47 -3 -60 -15 -60 -8 0 -15 -4 -15 -10 0 -5 7 -10 15 -10 8 0
15 -9 15 -20 0 -11 -7 -20 -15 -20 -8 0 -15 -4 -15 -10 0 -5 6 -10 14 -10 7 0
16 -11 18 -25 5 -22 2 -25 -23 -25 l-29 0 0 190 0 190 29 0 c24 0 28 -3 24
-20z m677 -21 c0 -12 -7 -19 -20 -19 -14 0 -20 7 -20 24 0 19 4 23 20 19 11
-3 20 -14 20 -24z m-60 11 c0 -5 -4 -10 -10 -10 -5 0 -10 5 -10 10 0 6 5 10
10 10 6 0 10 -4 10 -10z m20 -64 c0 -30 3 -35 28 -38 21 -2 28 -9 30 -30 3
-25 0 -28 -27 -28 -30 0 -30 -1 -33 -57 -3 -51 -6 -58 -25 -61 -13 -2 -23 1
-23 7 0 7 -27 11 -70 11 -40 0 -70 4 -70 10 0 6 32 10 75 10 l75 0 0 105 c0
98 1 105 20 105 16 0 20 -7 20 -34z m40 -1 c0 -8 -4 -15 -10 -15 -5 0 -10 7
-10 15 0 8 5 15 10 15 6 0 10 -7 10 -15z m60 -65 c0 -5 -4 -10 -10 -10 -5 0
-10 5 -10 10 0 6 5 10 10 10 6 0 10 -4 10 -10z m0 -50 c0 -13 -7 -20 -20 -20
-13 0 -20 7 -20 20 0 13 7 20 20 20 13 0 20 -7 20 -20z m-60 -35 c0 -33 -4
-45 -15 -45 -11 0 -15 11 -15 38 0 21 3 42 7 45 16 16 23 4 23 -38z m-490 -35
c0 -5 -7 -10 -15 -10 -8 0 -15 5 -15 10 0 6 7 10 15 10 8 0 15 -4 15 -10z
m140 -10 c0 -13 7 -20 20 -20 15 0 20 -7 20 -25 0 -33 -37 -35 -43 -2 l-4 22
-8 -22 c-6 -19 -15 -23 -51 -23 -40 0 -44 2 -44 24 0 14 -4 28 -10 31 -5 3
-10 13 -10 21 0 11 15 14 65 14 58 0 65 -2 65 -20z m40 10 c0 -5 -7 -10 -15
-10 -8 0 -15 5 -15 10 0 6 7 10 15 10 8 0 15 -4 15 -10z m70 0 c0 -5 -11 -10
-25 -10 -14 0 -25 5 -25 10 0 6 11 10 25 10 14 0 25 -4 25 -10z m-240 -55 c0
-18 -5 -25 -20 -25 -15 0 -20 7 -20 25 0 18 5 25 20 25 15 0 20 -7 20 -25z
m420 -10 c0 -8 -4 -15 -10 -15 -5 0 -10 7 -10 15 0 8 5 15 10 15 6 0 10 -7 10
-15z m0 -55 c0 -11 -7 -20 -15 -20 -8 0 -15 9 -15 20 0 11 7 20 15 20 8 0 15
-9 15 -20z m-40 -20 c0 -15 -7 -20 -29 -20 -24 0 -28 3 -24 20 3 13 14 20 29
20 17 0 24 -6 24 -20z m-520 -60 c0 -13 -7 -20 -20 -20 -13 0 -20 7 -20 20 0
13 7 20 20 20 13 0 20 -7 20 -20z m500 10 c0 -5 -7 -10 -15 -10 -8 0 -15 5
-15 10 0 6 7 10 15 10 8 0 15 -4 15 -10z m-432 -62 c-3 -7 -11 -13 -18 -13 -7
0 -15 6 -17 13 -3 7 4 12 17 12 13 0 20 -5 18 -12z"/>
<path d="M216 769 c-19 -19 -19 -19 7 -19 20 0 27 5 27 20 0 25 -9 25 -34 -1z"/>
<path d="M290 780 c0 -5 5 -10 10 -10 6 0 10 5 10 10 0 6 -4 10 -10 10 -5 0
-10 -4 -10 -10z"/>
<path d="M500 770 c0 -19 -7 -20 -95 -20 -88 0 -95 -1 -95 -20 0 -11 5 -20 10
-20 6 0 10 5 10 10 0 14 37 12 43 -2 4 -10 6 -10 6 0 1 14 41 17 41 2 0 -5 5
-10 10 -10 6 0 10 7 10 15 0 8 4 15 9 15 5 0 16 -7 25 -15 20 -20 26 -19 26 5
0 15 7 20 27 20 l27 0 -22 20 c-12 11 -24 20 -27 20 -3 0 -5 -9 -5 -20z"/>
<path d="M163 715 c-18 -20 -16 -25 7 -25 14 0 20 -7 21 -22 0 -13 3 -17 6
-10 2 6 11 12 19 12 8 0 14 5 14 10 0 6 -9 10 -20 10 -13 0 -20 7 -20 20 0 23
-10 25 -27 5z"/>
<path d="M250 720 c0 -5 5 -10 10 -10 6 0 10 5 10 10 0 6 -4 10 -10 10 -5 0
-10 -4 -10 -10z"/>
<path d="M250 625 l0 -65 155 0 155 0 0 65 c0 58 -2 65 -20 65 -24 0 -25 -6
-5 -26 19 -20 19 -34 0 -34 -8 0 -15 -4 -15 -10 0 -5 5 -10 10 -10 16 0 11
-27 -6 -34 -9 -3 -18 -6 -20 -6 -2 0 -4 27 -4 60 l0 60 -125 0 -125 0 0 -65z
m60 25 c0 -13 -7 -20 -20 -20 -13 0 -20 7 -20 20 0 13 7 20 20 20 13 0 20 -7
20 -20z m50 10 c0 -5 -7 -10 -15 -10 -8 0 -15 5 -15 10 0 6 7 10 15 10 8 0 15
-4 15 -10z m70 1 c0 -5 -13 -11 -30 -13 -20 -3 -30 0 -30 9 0 8 12 13 30 13
17 0 30 -4 30 -9z m50 -11 c0 -13 -7 -20 -20 -20 -13 0 -20 7 -20 20 0 13 7
20 20 20 13 0 20 -7 20 -20z m-40 -45 c0 -25 -1 -25 -85 -25 -69 0 -85 3 -85
15 0 8 9 15 20 15 11 0 20 5 20 10 0 6 28 10 65 10 63 0 65 -1 65 -25z m40 -5
c0 -11 -4 -20 -10 -20 -5 0 -10 9 -10 20 0 11 5 20 10 20 6 0 10 -9 10 -20z"/>
<path d="M620 623 c0 -61 1 -63 25 -63 14 0 25 5 25 10 0 6 -7 10 -15 10 -8 0
-15 4 -15 9 0 5 -3 16 -6 25 -4 12 0 16 15 16 12 0 21 5 21 10 0 6 -5 10 -11
10 -7 0 -18 8 -25 18 -12 15 -13 9 -14 -45z"/>
<path d="M190 595 c0 -28 4 -35 20 -35 11 0 20 5 20 10 0 6 -4 10 -10 10 -5 0
-10 7 -10 15 0 8 5 15 10 15 6 0 10 5 10 10 0 6 -9 10 -20 10 -16 0 -20 -7
-20 -35z"/>
<path d="M250 530 c0 -5 5 -10 10 -10 6 0 10 5 10 10 0 6 -4 10 -10 10 -5 0
-10 -4 -10 -10z"/>
<path d="M480 530 c0 -5 5 -10 10 -10 6 0 10 5 10 10 0 6 -4 10 -10 10 -5 0
-10 -4 -10 -10z"/>
<path d="M190 440 c0 -53 2 -60 20 -60 22 0 27 15 8 24 -10 5 -10 7 0 12 17 8
15 24 -3 24 -8 0 -15 4 -15 9 0 5 7 16 15 25 20 20 19 26 -5 26 -18 0 -20 -7
-20 -60z"/>
<path d="M250 480 c0 -11 5 -20 10 -20 6 0 10 5 10 10 0 16 227 13 234 -2 5
-10 7 -10 12 0 3 7 25 12 54 12 29 0 51 -5 54 -12 5 -10 7 -10 12 0 3 6 12 12
19 12 8 0 17 5 20 10 4 7 -68 10 -209 10 -209 0 -216 -1 -216 -20z"/>
<path d="M191 344 c0 -11 3 -14 6 -6 3 7 2 16 -1 19 -3 4 -6 -2 -5 -13z"/>
<path d="M540 345 c0 -8 -4 -15 -10 -15 -5 0 -10 -4 -10 -10 0 -5 9 -10 20
-10 15 0 20 7 20 25 0 14 -4 25 -10 25 -5 0 -10 -7 -10 -15z"/>
<path d="M620 339 c0 -11 5 -17 10 -14 6 3 10 13 10 21 0 8 -4 14 -10 14 -5 0
-10 -9 -10 -21z"/>
<path d="M150 304 c0 -3 6 -12 14 -20 20 -19 26 -18 26 6 0 13 -7 20 -20 20
-11 0 -20 -3 -20 -6z"/>
<path d="M310 270 c0 -18 7 -20 65 -20 58 0 65 2 65 20 0 11 -4 20 -10 20 -5
0 -10 -4 -10 -10 0 -14 -27 -12 -34 3 -5 10 -7 10 -12 0 -7 -15 -44 -17 -44
-3 0 6 -4 10 -10 10 -5 0 -10 -9 -10 -20z"/>
<path d="M473 275 c-18 -20 -16 -25 7 -25 13 0 20 -7 20 -20 0 -11 2 -20 5
-20 3 0 15 9 27 20 l22 20 -27 0 c-20 0 -27 5 -27 20 0 23 -10 25 -27 5z"/>
<path d="M218 230 c12 -11 24 -20 27 -20 3 0 5 9 5 20 0 15 -7 20 -27 20 l-27
0 22 -20z"/>
<path d="M270 244 c0 -10 31 -36 37 -31 10 10 -6 37 -22 37 -8 0 -15 -3 -15
-6z"/>
<path d="M751 524 c0 -11 3 -14 6 -6 3 7 2 16 -1 19 -3 4 -6 -2 -5 -13z"/>
<path d="M690 880 c0 -6 27 -10 60 -10 33 0 60 4 60 10 0 6 -27 10 -60 10 -33
0 -60 -4 -60 -10z"/>
<path d="M810 770 c0 -13 -7 -20 -20 -20 -24 0 -25 -6 -6 -26 20 -19 26 -18
26 6 0 13 7 20 20 20 24 0 25 6 6 26 -20 19 -26 18 -26 -6z"/>
<path d="M870 710 c0 -15 7 -20 25 -20 14 0 25 5 25 10 0 6 -7 10 -15 10 -8 0
-15 5 -15 10 0 6 -4 10 -10 10 -5 0 -10 -9 -10 -20z"/>
<path d="M940 658 c0 -24 4 -28 30 -28 17 0 30 5 30 10 0 6 -7 10 -16 10 -9 0
-23 8 -30 18 -12 15 -13 14 -14 -10z"/>
<path d="M890 550 c0 -5 7 -10 15 -10 8 0 15 -4 15 -10 0 -5 -7 -10 -15 -10
-8 0 -15 -4 -15 -10 0 -5 11 -10 25 -10 21 0 25 5 25 30 0 25 -4 30 -25 30
-14 0 -25 -4 -25 -10z"/>
<path d="M926 478 c-5 -10 -14 -18 -22 -18 -8 0 -14 -4 -14 -10 0 -5 11 -10
25 -10 18 0 25 -5 25 -20 0 -11 5 -20 10 -20 6 0 10 5 10 10 0 6 9 10 20 10
11 0 20 5 20 10 0 6 -13 10 -29 10 -25 0 -30 5 -33 28 -4 22 -6 24 -12 10z"/>
<path d="M847 410 c-22 -26 -21 -30 3 -30 15 0 20 7 20 25 0 30 -1 30 -23 5z"/>
<path d="M870 283 c1 -25 2 -26 14 -10 7 9 18 17 24 17 6 0 14 5 17 10 4 6 -7
10 -24 10 -27 0 -31 -3 -31 -27z"/>
<path d="M770 239 c0 -6 9 -8 20 -4 14 5 20 2 20 -9 0 -20 7 -20 26 -2 21 22
17 26 -26 26 -22 0 -40 -5 -40 -11z"/>
<path d="M736 231 c-4 -7 -5 -15 -2 -18 9 -9 19 4 14 18 -4 11 -6 11 -12 0z"/>
</g>
</svg>
