<?xml version="1.0" standalone="no"?>
<!DOCTYPE svg PUBLIC "-//W3C//DTD SVG 20010904//EN"
 "http://www.w3.org/TR/2001/REC-SVG-20010904/DTD/svg10.dtd">
<svg version="1.0" xmlns="http://www.w3.org/2000/svg"
 width="256.000000pt" height="256.000000pt" viewBox="0 0 256.000000 256.000000"
 preserveAspectRatio="xMidYMid meet">
<metadata>
Created by potrace 1.16, written by Peter Selinger 2001-2019
</metadata>
<g transform="translate(0.000000,256.000000) scale(0.100000,-0.100000)"
fill="#000000" stroke="none">
<path d="M1135 2526 c-37 -16 -70 -52 -84 -89 -6 -16 -11 -101 -11 -196 0
-153 2 -170 23 -211 38 -76 59 -82 271 -83 210 0 232 6 273 79 21 36 23 51 23
217 0 159 -2 182 -20 217 -36 70 -70 80 -272 80 -122 -1 -182 -5 -203 -14z
m401 -32 c65 -48 69 -61 72 -235 3 -147 2 -163 -18 -204 -37 -77 -61 -85 -256
-85 -150 0 -173 2 -201 20 -57 34 -63 59 -63 259 l0 179 27 33 c45 54 70 59
250 56 145 -2 164 -4 189 -23z"/>
<path d="M1859 2134 c-22 -23 -24 -36 -27 -127 -5 -164 16 -183 197 -176 78 4
94 7 113 27 21 21 23 31 23 136 0 107 -2 116 -24 140 -24 25 -29 26 -141 26
-112 0 -117 -1 -141 -26z m256 -19 c23 -22 25 -32 25 -115 0 -104 -7 -124 -51
-139 -40 -14 -139 -14 -175 -1 -46 18 -53 37 -54 142 0 93 1 97 26 117 23 18
41 21 116 21 81 0 91 -2 113 -25z"/>
<path d="M378 1970 c-46 -14 -85 -48 -107 -93 -19 -39 -21 -61 -21 -233 0
-205 8 -242 61 -291 42 -38 73 -43 271 -43 221 0 254 9 304 82 l29 41 3 199
c3 188 2 202 -19 244 -13 28 -37 56 -62 72 -40 27 -42 27 -236 29 -108 1 -208
-2 -223 -7z m449 -49 c62 -45 68 -70 68 -282 l0 -186 -28 -40 c-15 -22 -47
-49 -71 -61 -39 -20 -59 -22 -207 -22 -90 0 -181 5 -201 10 -41 12 -94 66
-105 108 -5 15 -8 108 -8 207 0 170 1 182 23 217 46 73 62 78 288 78 l201 0
40 -29z"/>
<path d="M1463 1605 c-80 -22 -132 -52 -199 -117 -144 -138 -180 -332 -95
-514 34 -73 115 -164 179 -201 146 -86 344 -83 485 7 94 59 119 111 79 160
-27 33 -76 29 -116 -9 -80 -77 -226 -100 -333 -52 -81 36 -149 116 -177 209
l-7 22 359 0 c352 0 359 0 378 21 25 28 23 115 -6 191 -81 217 -324 343 -547
283z m187 -15 c131 -25 260 -124 321 -248 40 -83 50 -163 24 -192 -17 -19 -33
-20 -378 -20 l-360 0 6 -45 c13 -90 70 -168 158 -215 50 -27 76 -33 143 -37
108 -7 177 12 239 68 50 43 71 46 94 13 12 -19 11 -25 -12 -52 -58 -69 -198
-132 -293 -132 -164 1 -323 104 -399 258 -36 73 -38 80 -38 177 0 96 2 104 38
177 60 123 162 206 297 242 67 18 92 19 160 6z"/>
<path d="M1465 1477 c-104 -34 -205 -144 -205 -222 l0 -25 315 0 315 0 0 30
c0 66 -72 156 -160 201 -55 28 -201 37 -265 16z m203 -22 c28 -9 70 -30 94
-48 44 -33 108 -118 108 -143 0 -12 -50 -14 -295 -14 -162 0 -295 2 -295 5 0
17 37 73 73 112 83 91 198 122 315 88z"/>
<path d="M448 1021 l-33 -29 0 -142 0 -142 33 -29 c32 -29 32 -29 166 -29 117
0 136 2 158 20 42 32 50 67 46 200 l-3 122 -33 29 c-32 29 -32 29 -167 29
-135 0 -135 0 -167 -29z m314 -20 l33 -29 0 -122 0 -122 -33 -29 c-32 -29 -34
-29 -150 -29 l-118 0 -30 31 c-29 30 -29 31 -29 150 l0 121 33 29 c32 28 34
29 147 29 113 0 115 -1 147 -29z"/>
<path d="M2080 905 c-123 -56 -153 -196 -64 -295 111 -123 314 -43 314 123 0
130 -136 223 -250 172z m133 -19 c18 -7 45 -28 61 -45 24 -25 31 -42 34 -90 8
-110 -45 -172 -153 -179 -75 -5 -119 21 -154 91 -68 138 70 284 212 223z"/>
<path d="M2118 842 l-28 -3 0 -110 c0 -90 3 -109 15 -109 11 0 15 12 15 50 0
46 2 50 24 50 30 0 42 -15 51 -62 5 -27 12 -38 25 -38 16 0 17 4 7 38 -6 20
-17 44 -24 53 -11 13 -10 19 7 34 54 49 -2 107 -92 97z m78 -47 c8 -33 -11
-55 -47 -55 -27 0 -29 3 -29 40 0 39 1 40 35 40 29 0 36 -4 41 -25z"/>
<path d="M942 490 c-51 -32 -62 -70 -62 -225 0 -152 9 -182 63 -215 28 -17 51
-20 175 -20 230 0 242 11 242 237 0 164 -6 184 -59 220 -32 21 -45 23 -180 23
-129 0 -150 -2 -179 -20z m318 -13 c20 -7 44 -27 58 -47 22 -33 23 -42 20
-171 -3 -120 -5 -140 -23 -159 -35 -39 -77 -50 -196 -50 -187 0 -212 23 -217
201 -5 140 12 194 69 222 41 20 234 23 289 4z"/>
</g>
</svg>
