<?xml version="1.0" standalone="no"?>
<!DOCTYPE svg PUBLIC "-//W3C//DTD SVG 20010904//EN"
 "http://www.w3.org/TR/2001/REC-SVG-20010904/DTD/svg10.dtd">
<svg version="1.0" xmlns="http://www.w3.org/2000/svg"
 width="144.000000pt" height="144.000000pt" viewBox="0 0 144.000000 144.000000"
 preserveAspectRatio="xMidYMid meet">
<metadata>
Created by potrace 1.16, written by Peter Selinger 2001-2019
</metadata>
<g transform="translate(0.000000,144.000000) scale(0.100000,-0.100000)"
fill="#000000" stroke="none">
<path d="M599 1423 c-10 -12 -14 -52 -14 -155 l0 -140 28 -24 c27 -23 35 -24
168 -24 138 0 140 0 164 26 24 26 25 33 25 161 0 74 -5 143 -10 154 -6 11 -21
19 -35 19 l-24 0 24 -25 c24 -23 25 -30 25 -143 0 -113 -1 -121 -25 -146 -23
-25 -27 -26 -144 -26 -112 0 -122 2 -148 24 -28 24 -28 25 -28 146 0 121 0
122 28 146 l28 24 -24 0 c-14 0 -31 -7 -38 -17z"/>
<path d="M1057 1232 c-13 -14 -17 -39 -17 -104 0 -112 6 -118 123 -118 113 0
117 4 117 120 0 116 -4 120 -119 120 -72 0 -91 -3 -104 -18z m187 -18 c12 -11
16 -35 16 -84 0 -90 -10 -100 -97 -100 -90 0 -103 13 -103 98 0 89 12 102 101
102 48 0 72 -5 83 -16z"/>
<path d="M179 1125 c-43 -23 -51 -59 -47 -214 3 -138 3 -141 31 -168 27 -28
30 -28 167 -31 154 -4 197 7 219 54 6 15 11 80 11 160 0 148 -9 181 -55 202
-39 18 -292 15 -326 -3z m306 -17 c44 -20 55 -55 55 -182 0 -65 -5 -126 -11
-140 -21 -46 -67 -58 -200 -54 -114 3 -120 4 -146 31 -27 26 -28 32 -31 148
-6 194 7 208 190 209 70 0 128 -5 143 -12z"/>
<path d="M830 927 c-141 -40 -208 -142 -198 -304 6 -94 29 -145 90 -197 104
-89 300 -87 396 4 17 16 22 18 22 5 0 -8 5 -15 10 -15 6 0 10 -13 10 -30 l0
-30 75 0 75 0 0 65 0 65 -85 0 c-82 0 -85 1 -85 23 0 33 -19 47 -64 47 -29 0
-54 -9 -85 -30 -24 -17 -56 -30 -70 -30 -33 0 -99 38 -119 67 l-14 23 189 0
c226 0 229 1 227 83 -1 30 -7 71 -14 92 -17 51 -85 124 -138 147 -55 25 -163
32 -222 15z m199 -33 c81 -34 149 -130 153 -214 2 -68 -5 -70 -234 -70 -109 0
-198 -3 -198 -8 0 -21 56 -84 90 -102 58 -30 118 -26 171 10 47 32 78 37 97
18 48 -48 -48 -133 -163 -145 -106 -11 -220 49 -266 140 -27 52 -35 143 -19
202 43 152 218 232 369 169z m218 -453 l6 -26 10 28 c13 41 27 32 27 -18 0
-45 0 -45 -35 -45 -33 0 -35 2 -35 36 0 21 -4 33 -10 29 -5 -3 -10 -19 -10
-36 0 -16 -4 -29 -10 -29 -5 0 -10 14 -10 30 0 17 -4 30 -10 30 -5 0 -10 7
-10 15 0 11 11 14 40 13 35 -1 41 -5 47 -27z"/>
<path d="M840 798 c-25 -13 -53 -37 -63 -55 l-19 -33 156 0 c86 0 156 4 156 9
0 20 -46 65 -84 82 -54 25 -93 24 -146 -3z m125 -17 c22 -10 46 -25 54 -34 12
-16 4 -17 -104 -17 -108 0 -116 1 -104 17 14 16 85 53 104 53 6 0 28 -9 50
-19z"/>
<path d="M244 596 c-16 -12 -20 -29 -23 -100 -6 -156 2 -166 143 -166 129 0
139 8 144 111 5 82 -3 133 -24 154 -21 21 -211 22 -240 1z m220 -21 c33 -34
34 -168 1 -205 -15 -17 -31 -20 -101 -20 -115 0 -130 18 -122 146 5 86 16 94
124 94 61 0 87 -4 98 -15z"/>
<path d="M519 281 c-22 -18 -24 -28 -27 -123 -4 -117 6 -158 39 -158 22 0 22
0 3 21 -16 18 -19 37 -19 121 0 131 7 138 140 138 133 0 140 -7 140 -138 0
-84 -3 -103 -19 -121 -19 -21 -19 -21 3 -21 33 0 43 41 39 158 -4 139 -8 142
-163 142 -96 0 -116 -3 -136 -19z"/>
</g>
</svg>
