<?xml version="1.0" standalone="no"?>
<!DOCTYPE svg PUBLIC "-//W3C//DTD SVG 20010904//EN"
 "http://www.w3.org/TR/2001/REC-SVG-20010904/DTD/svg10.dtd">
<svg version="1.0" xmlns="http://www.w3.org/2000/svg"
 width="128.000000pt" height="128.000000pt" viewBox="0 0 128.000000 128.000000"
 preserveAspectRatio="xMidYMid meet">
<metadata>
Created by potrace 1.16, written by Peter Selinger 2001-2019
</metadata>
<g transform="translate(0.000000,128.000000) scale(0.100000,-0.100000)"
fill="#000000" stroke="none">
<path d="M335 1065 c-232 -64 -303 -88 -317 -105 -16 -19 -17 -51 -18 -325 0
-301 0 -304 22 -330 20 -22 63 -36 288 -95 146 -39 277 -75 293 -80 22 -7 80
5 290 61 385 102 363 95 376 127 16 38 11 636 -5 652 -8 8 -280 85 -609 172
-11 3 -155 -32 -320 -77z m611 -21 c159 -42 295 -82 302 -89 9 -8 12 -35 10
-87 l-3 -76 -75 58 c-41 32 -85 68 -98 79 -55 51 -67 54 -116 36 l-45 -17 -30
35 c-17 19 -44 38 -59 42 -15 3 -34 13 -43 21 -25 23 -60 8 -114 -46 -39 -40
-53 -48 -72 -44 -16 4 -31 0 -44 -12 -15 -13 -22 -15 -31 -6 -7 7 -20 12 -29
12 -10 0 -30 16 -45 35 l-27 36 -32 -31 c-17 -16 -36 -30 -42 -30 -6 0 -32
-12 -58 -27 -39 -22 -51 -24 -67 -14 -16 10 -33 4 -113 -37 l-95 -49 0 51 c0
28 4 57 9 65 9 14 597 181 617 176 6 -2 141 -38 300 -81z m-186 -14 c0 -18 42
-121 47 -116 3 3 -2 23 -11 46 -20 50 -20 56 -2 40 8 -6 20 -28 27 -48 6 -20
18 -44 26 -54 8 -9 13 -25 11 -36 -2 -11 8 -32 21 -46 28 -30 22 -32 -28 -10
-29 13 -42 29 -64 77 -15 33 -30 58 -33 54 -3 -3 1 -18 9 -34 8 -15 18 -39 22
-52 l7 -24 -38 23 c-22 13 -49 32 -62 44 -19 17 -20 21 -7 28 15 9 50 68 40
68 -4 0 -18 -13 -32 -30 -23 -28 -53 -40 -53 -21 0 12 97 101 110 101 5 0 10
-4 10 -10z m-318 -137 l0 -45 26 25 c15 13 38 30 51 37 22 11 23 11 17 -6 -4
-11 7 -3 24 16 l31 35 -6 -45 c-7 -52 -22 -75 -40 -60 -9 7 -25 4 -56 -10 -54
-24 -63 -24 -116 -2 -49 19 -53 29 -19 38 13 3 29 17 35 31 14 31 7 43 -8 15
-6 -11 -25 -28 -43 -37 -26 -13 -38 -13 -60 -4 -30 12 -29 29 1 29 10 0 30 9
44 20 14 11 32 20 40 20 7 0 22 9 32 20 l19 21 14 -27 c7 -14 14 -46 14 -71z
m468 22 c32 -37 122 -105 139 -105 28 0 28 37 -1 86 l-21 36 59 -45 c32 -25
75 -59 94 -76 l35 -30 -152 -1 c-152 0 -153 0 -153 23 0 12 -7 31 -15 41 -8
11 -15 29 -15 41 0 11 -6 29 -14 40 -7 11 -16 31 -20 45 -7 26 -3 22 64 -55z
m100 18 c0 -16 9 -43 21 -62 11 -18 19 -35 17 -36 -2 -2 -29 21 -60 50 -45 42
-54 55 -41 59 9 4 20 1 24 -6 6 -9 10 -8 15 5 10 26 24 20 24 -10z m-245 -119
l70 -34 -365 1 c-295 0 -359 2 -331 12 23 8 40 25 55 52 11 22 22 42 23 44 1
2 9 -4 18 -13 21 -21 162 -86 187 -86 10 0 35 7 56 16 20 9 51 16 69 15 39 -2
63 28 63 77 l0 34 43 -42 c23 -23 74 -57 112 -76z m-575 78 c0 -4 -14 -24 -31
-45 -22 -27 -38 -37 -59 -37 -16 0 -40 -4 -54 -10 -48 -18 -21 22 34 50 23 12
24 12 11 -3 -24 -29 0 -18 40 18 38 34 59 44 59 27z m1070 -144 c0 -10 -131
-13 -620 -13 -489 0 -620 3 -620 13 0 9 131 12 620 12 489 0 620 -3 620 -12z
m-1233 -195 c-2 -32 -3 -6 -3 57 0 63 1 89 3 58 2 -32 2 -84 0 -115z m113 140
c0 -12 -7 -14 -30 -9 -28 5 -30 4 -30 -25 0 -26 3 -30 23 -27 14 2 22 -2 22
-12 0 -10 -8 -14 -22 -13 -20 2 -23 -2 -23 -32 0 -33 2 -36 28 -33 17 2 27 -2
27 -11 0 -9 -14 -14 -42 -15 l-43 -2 0 100 0 101 45 -3 c32 -3 45 -8 45 -19z
m115 -16 l7 -32 11 32 c14 38 22 47 36 39 6 -4 2 -24 -10 -52 -20 -44 -20 -47
-4 -87 10 -23 19 -48 22 -54 3 -8 -3 -13 -15 -13 -16 0 -23 8 -28 35 -3 19
-10 35 -14 35 -4 0 -11 -16 -14 -35 -4 -21 -13 -35 -21 -35 -19 0 -19 5 1 57
17 43 14 69 -13 138 -3 9 2 12 15 8 12 -3 23 -17 27 -36z m572 19 c-2 -6 -16
-10 -31 -9 -23 2 -26 -2 -26 -28 0 -26 3 -30 23 -27 14 2 22 -2 22 -12 0 -10
-8 -14 -22 -13 -20 2 -23 -2 -23 -32 0 -33 2 -36 28 -33 17 2 27 -2 27 -11 0
-9 -14 -14 -42 -15 l-43 -2 0 100 0 101 45 -3 c29 -3 44 -8 42 -16z m433 -87
c0 -84 -3 -110 -12 -107 -7 3 -15 18 -18 34 -4 23 -11 30 -35 33 -29 4 -30 4
-5 10 18 5 26 15 28 35 2 16 -2 33 -10 37 -10 7 -9 9 5 9 11 0 17 8 17 23 0
25 7 37 22 37 4 0 8 -50 8 -111z m-1061 59 c10 -33 10 -53 0 -100 -14 -61 -35
-77 -41 -30 -2 22 -9 28 -33 31 -29 4 -30 4 -5 10 19 5 26 14 28 39 2 21 -1
32 -10 32 -8 0 -6 4 5 11 9 5 17 19 17 29 0 36 27 21 39 -22z m161 22 c0 -11
8 -24 18 -28 14 -6 17 -20 17 -80 0 -71 0 -72 -26 -72 -23 0 -28 7 -44 59 -13
45 -15 63 -6 79 6 11 11 30 11 41 0 12 7 21 15 21 8 0 15 -9 15 -20z m127 8
c-2 -7 -12 -12 -21 -12 -14 2 -16 -11 -16 -87 0 -72 -3 -89 -15 -89 -12 0 -15
17 -15 89 0 76 -2 89 -16 87 -9 0 -19 5 -21 12 -3 9 11 12 52 12 41 0 55 -3
52 -12z m53 -88 l0 -100 -33 0 -33 0 0 73 c1 59 4 73 19 79 9 4 17 17 17 28 0
11 7 20 15 20 12 0 15 -18 15 -100z m106 26 c1 -37 5 -82 8 -98 5 -24 3 -29
-12 -26 -12 2 -18 15 -20 46 -2 30 -8 42 -18 42 -12 0 -15 -10 -12 -42 2 -34
-1 -43 -15 -46 -15 -3 -17 7 -17 98 l0 101 43 -3 42 -3 1 -69z m69 -26 c0 -89
-2 -100 -17 -100 -19 0 -18 -3 -22 147 -1 47 1 53 19 53 19 0 20 -7 20 -100z
m165 0 c0 -80 -3 -100 -14 -100 -9 0 -16 12 -18 28 -2 22 -9 28 -33 31 -29 4
-30 4 -5 10 19 5 26 14 28 39 2 21 -1 32 -10 32 -8 0 -6 4 5 11 9 5 17 19 17
29 0 11 7 20 15 20 12 0 15 -18 15 -100z m74 78 c3 -13 6 -42 6 -66 0 -26 4
-41 10 -37 6 3 10 23 10 43 0 59 10 82 34 82 20 0 21 -4 20 -97 -1 -75 -5 -98
-15 -98 -11 0 -13 18 -12 75 1 65 0 70 -7 35 -5 -22 -12 -57 -15 -78 -9 -57
-29 -40 -37 32 -10 93 -16 96 -17 8 -1 -53 -5 -77 -12 -75 -7 2 -12 39 -13
101 -1 93 0 97 20 97 14 0 24 -8 28 -22z m146 -78 c0 -93 -1 -100 -20 -100
-19 0 -20 7 -20 100 0 93 1 100 20 100 19 0 20 -7 20 -100z m110 84 c0 -13 -7
-15 -30 -10 -28 5 -30 4 -30 -25 0 -26 3 -30 22 -27 16 2 24 -3 26 -16 3 -16
0 -18 -22 -12 -24 6 -26 4 -26 -30 0 -34 1 -35 30 -29 25 5 30 3 30 -12 0 -15
-8 -18 -45 -18 l-45 0 0 98 0 97 45 0 c35 0 45 -4 45 -16z m50 -290 c0 -53 -4
-85 -12 -92 -7 -5 -147 -46 -312 -90 l-298 -79 -297 78 c-199 53 -300 84 -308
96 -8 10 -13 48 -13 92 l0 76 620 0 620 0 0 -81z"/>
<path d="M590 661 c0 -21 5 -31 16 -31 11 0 14 8 12 27 -4 39 -28 42 -28 4z"/>
<path d="M72 413 c-5 -16 -13 -36 -17 -46 -7 -17 -6 -18 14 -6 17 12 25 12 42
0 20 -12 21 -11 14 6 -4 10 -12 30 -17 46 -5 15 -14 27 -18 27 -4 0 -13 -12
-18 -27z m32 -18 c4 -10 -1 -15 -14 -15 -13 0 -18 5 -14 15 4 8 10 15 14 15 4
0 10 -7 14 -15z"/>
<path d="M140 397 c0 -53 4 -57 38 -48 51 14 38 91 -14 91 -22 0 -24 -4 -24
-43z m48 24 c22 -13 11 -56 -15 -59 -20 -3 -23 1 -23 32 0 36 11 44 38 27z"/>
<path d="M221 433 c-1 -15 31 -83 39 -83 3 0 12 17 20 38 8 20 16 40 18 45 2
4 0 7 -5 7 -5 0 -15 -16 -22 -36 l-13 -37 -18 39 c-10 22 -19 34 -19 27z"/>
<path d="M310 395 c0 -32 4 -45 14 -45 8 0 21 -3 30 -6 9 -3 16 -1 16 5 0 6
-11 11 -25 11 -32 0 -34 27 -2 33 l22 4 -22 2 c-33 2 -29 29 5 34 25 4 25 4
-5 6 -33 1 -33 0 -33 -44z"/>
<path d="M392 395 c1 -45 1 -47 7 -15 l6 35 20 -32 c26 -45 35 -41 35 12 0 26
-5 45 -11 45 -7 0 -8 -12 -4 -32 l6 -33 -30 35 -30 35 1 -50z"/>
<path d="M483 433 c15 -4 18 -12 15 -44 -2 -21 0 -39 4 -39 5 0 8 18 8 40 0
50 27 57 32 9 3 -35 26 -56 52 -46 12 5 16 18 15 49 l-2 43 -6 -40 c-8 -53
-35 -55 -39 -2 l-3 37 -47 -1 c-26 -1 -39 -3 -29 -6z"/>
<path d="M631 393 c1 -26 4 -38 6 -25 5 27 33 29 40 2 9 -34 19 -22 19 23 -1
40 -3 42 -33 45 l-33 3 1 -48z m54 22 c0 -5 -10 -11 -22 -13 -16 -2 -23 2 -23
13 0 11 7 15 23 13 12 -2 22 -7 22 -13z"/>
<path d="M710 395 c0 -29 4 -45 13 -45 6 0 22 -3 35 -6 13 -4 22 -2 22 5 0 6
-11 11 -25 11 -16 0 -25 6 -25 16 0 10 6 14 15 11 8 -4 17 -2 20 3 4 6 -3 10
-14 10 -31 0 -25 28 7 33 22 3 20 4 -10 6 l-38 1 0 -45z"/>
<path d="M851 393 c1 -26 4 -38 6 -25 5 27 33 29 40 2 5 -20 43 -29 43 -10 0
6 11 10 25 10 14 0 25 -4 25 -8 0 -12 78 -14 85 -2 3 5 -7 8 -22 7 -22 -2 -29
3 -31 19 -4 30 23 51 45 33 14 -12 16 -12 11 1 -6 20 -35 25 -53 10 -8 -7 -15
-27 -15 -44 l-1 -31 -24 45 -23 45 -20 -45 c-20 -46 -32 -41 -29 10 2 21 -3
25 -30 28 l-33 3 1 -48z m54 22 c0 -5 -10 -11 -22 -13 -16 -2 -23 2 -23 13 0
11 7 15 23 13 12 -2 22 -7 22 -13z m63 -34 c-15 -5 -19 4 -11 24 6 18 7 18 13
-1 4 -10 3 -21 -2 -23z"/>
<path d="M1097 433 c-4 -3 -7 -24 -7 -45 0 -31 4 -38 19 -38 11 0 26 -3 35 -6
9 -3 16 -1 16 5 0 6 -11 11 -25 11 -32 0 -34 27 -2 33 l22 4 -22 2 c-33 2 -29
29 5 34 26 4 26 4 -4 6 -17 0 -34 -2 -37 -6z"/>
<path d="M1177 434 c-14 -15 -6 -35 18 -44 26 -10 34 -30 12 -30 -7 0 -19 6
-26 13 -11 10 -13 9 -9 -3 6 -20 63 -20 63 0 0 8 -13 21 -28 28 -20 10 -26 17
-18 25 7 7 15 6 27 -4 15 -12 17 -12 12 1 -5 16 -39 25 -51 14z"/>
</g>
</svg>
