<?xml version="1.0" standalone="no"?>
<!DOCTYPE svg PUBLIC "-//W3C//DTD SVG 20010904//EN"
 "http://www.w3.org/TR/2001/REC-SVG-20010904/DTD/svg10.dtd">
<svg version="1.0" xmlns="http://www.w3.org/2000/svg"
 width="180.000000pt" height="180.000000pt" viewBox="0 0 180.000000 180.000000"
 preserveAspectRatio="xMidYMid meet">
<metadata>
Created by potrace 1.16, written by Peter Selinger 2001-2019
</metadata>
<g transform="translate(0.000000,180.000000) scale(0.100000,-0.100000)"
fill="#000000" stroke="none">
<path d="M427 1697 c-15 -56 -28 -109 -27 -117 0 -8 -30 -121 -66 -250 -36
-129 -70 -257 -76 -285 -13 -64 -125 -487 -144 -540 -7 -22 -14 -51 -14 -64 0
-13 -23 -106 -50 -208 -50 -186 -58 -233 -40 -233 6 0 10 6 10 14 0 8 22 98
50 199 27 102 50 195 50 208 0 13 7 42 14 64 19 53 132 477 144 540 5 28 26
106 47 175 20 69 38 132 40 140 2 8 16 65 30 125 24 98 68 271 81 318 3 10 0
17 -8 17 -8 0 -23 -39 -41 -103z"/>
<path d="M1764 1748 c-6 -29 -27 -113 -47 -186 -21 -74 -37 -144 -37 -156 0
-13 -9 -52 -21 -87 -11 -35 -22 -71 -24 -79 -2 -8 -26 -100 -54 -203 -28 -104
-51 -199 -51 -212 0 -13 -5 -36 -11 -52 -19 -51 -128 -450 -139 -513 -11 -62
-17 -86 -34 -139 -30 -94 -35 -121 -22 -121 12 0 76 197 76 235 0 26 116 459
139 518 6 16 11 39 11 52 0 21 76 313 117 450 8 28 20 73 25 100 16 77 57 243
79 314 19 65 25 131 11 131 -4 0 -12 -24 -18 -52z"/>
<path d="M585 1629 c-7 -10 -188 -697 -332 -1254 -31 -122 -54 -228 -50 -238
6 -15 31 -17 280 -17 208 0 277 3 284 13 6 6 39 121 74 255 l63 242 183 0
c100 0 192 4 205 9 21 8 29 29 66 174 23 91 42 179 42 196 l0 31 -190 0 c-104
0 -190 2 -190 5 0 3 7 32 17 65 l16 60 216 0 c119 0 222 4 230 9 13 8 110 382
111 427 0 12 -7 25 -16 28 -30 11 -1002 7 -1009 -5z m984 -86 c-9 -38 -32
-130 -50 -205 l-32 -138 -228 0 -228 0 -11 -42 c-6 -24 -18 -63 -25 -87 -8
-25 -15 -47 -15 -50 0 -3 90 -5 200 -3 110 2 200 1 200 -2 0 -2 -17 -71 -39
-153 -21 -81 -42 -161 -45 -176 l-7 -28 -200 1 c-110 1 -203 0 -205 -2 -2 -3
-26 -92 -54 -199 -28 -107 -58 -220 -67 -251 l-16 -58 -262 0 -262 0 39 147
c69 264 186 711 265 1016 l77 297 492 0 491 0 -18 -67z"/>
<path d="M1702 1247 c-18 -67 -46 -169 -62 -227 -17 -58 -35 -130 -40 -160 -5
-30 -29 -127 -54 -215 -25 -88 -57 -207 -72 -265 -14 -58 -39 -156 -55 -218
-30 -118 -36 -162 -19 -162 6 0 10 7 10 15 0 8 13 65 29 127 16 62 41 160 55
218 15 58 47 177 72 265 25 88 49 185 54 215 5 30 23 102 40 160 16 58 44 160
62 227 20 74 38 123 46 123 9 0 12 -142 12 -675 0 -443 3 -675 10 -675 7 0 10
235 10 685 l0 685 -32 0 -33 0 -33 -123z"/>
<path d="M1744 749 c-16 -21 -156 -572 -152 -600 3 -23 6 -24 86 -24 106 0
114 19 9 23 -68 2 -78 5 -73 19 4 9 38 137 77 285 66 253 80 333 53 297z"/>
</g>
</svg>
