<?xml version="1.0" standalone="no"?>
<!DOCTYPE svg PUBLIC "-//W3C//DTD SVG 20010904//EN"
 "http://www.w3.org/TR/2001/REC-SVG-20010904/DTD/svg10.dtd">
<svg version="1.0" xmlns="http://www.w3.org/2000/svg"
 width="192.000000pt" height="192.000000pt" viewBox="0 0 192.000000 192.000000"
 preserveAspectRatio="xMidYMid meet">
<metadata>
Created by potrace 1.16, written by Peter Selinger 2001-2019
</metadata>
<g transform="translate(0.000000,192.000000) scale(0.100000,-0.100000)"
fill="#000000" stroke="none">
<path d="M1405 1425 c-170 -34 -456 -90 -635 -125 -569 -110 -714 -154 -739
-224 -25 -67 59 -141 503 -439 198 -133 374 -249 390 -258 57 -30 146 -34 146
-7 0 6 -55 67 -122 136 -356 369 -404 491 -231 584 67 36 184 74 508 163 387
106 647 184 664 200 26 26 2 35 -87 33 -62 -1 -177 -19 -397 -63z m425 35
c-109 -36 -343 -104 -600 -175 -471 -129 -590 -177 -625 -251 -50 -106 15
-224 279 -504 39 -42 87 -93 106 -114 l35 -38 -35 7 c-20 4 -164 93 -345 213
-409 271 -532 362 -577 424 -27 39 -11 64 65 98 111 49 237 77 1117 246 107
20 265 51 350 69 143 30 294 46 230 25z"/>
</g>
</svg>
