<?xml version="1.0" standalone="no"?>
<!DOCTYPE svg PUBLIC "-//W3C//DTD SVG 20010904//EN"
 "http://www.w3.org/TR/2001/REC-SVG-20010904/DTD/svg10.dtd">
<svg version="1.0" xmlns="http://www.w3.org/2000/svg"
 width="100.000000pt" height="100.000000pt" viewBox="0 0 100.000000 100.000000"
 preserveAspectRatio="xMidYMid meet">
<metadata>
Created by potrace 1.16, written by Peter Selinger 2001-2019
</metadata>
<g transform="translate(0.000000,100.000000) scale(0.100000,-0.100000)"
fill="#000000" stroke="none">
<path d="M850 845 c0 -8 -7 -15 -15 -15 -12 0 -15 -13 -15 -60 0 -45 4 -62 15
-66 8 -4 15 -12 15 -20 0 -8 9 -14 20 -14 11 0 20 -7 20 -15 0 -8 7 -15 15
-15 12 0 15 -13 15 -60 0 -47 -3 -60 -15 -60 -8 0 -15 -7 -15 -15 0 -8 -5 -15
-11 -15 -6 0 -22 -10 -35 -22 -23 -22 -24 -29 -24 -160 0 -116 2 -138 15 -138
8 0 15 -7 15 -15 0 -10 11 -15 35 -15 24 0 35 -5 35 -15 0 -10 11 -15 35 -15
19 0 35 4 35 9 0 5 3 16 6 25 4 11 1 16 -10 16 -9 0 -16 -7 -16 -15 0 -8 -7
-15 -15 -15 -8 0 -15 7 -15 15 0 10 -11 15 -35 15 -24 0 -35 5 -35 15 0 8 -7
15 -15 15 -12 0 -15 19 -15 110 0 91 3 110 15 110 8 0 15 7 15 15 0 8 9 15 20
15 16 0 20 7 20 30 0 20 5 30 15 30 12 0 15 16 15 80 0 64 -3 80 -15 80 -10 0
-15 10 -15 30 0 21 -5 30 -16 30 -14 0 -14 -3 -4 -15 10 -12 10 -15 -4 -15
-12 0 -16 10 -16 45 0 26 -5 45 -11 45 -7 0 -8 -11 -4 -30 4 -19 3 -30 -4 -30
-6 0 -11 19 -11 45 0 33 4 45 15 45 8 0 15 7 15 15 0 12 14 15 65 15 37 0 65
4 65 10 0 6 -32 10 -75 10 -60 0 -75 -3 -75 -15z m45 -385 c-3 -5 -10 -10 -16
-10 -5 0 -9 5 -9 10 0 6 7 10 16 10 8 0 12 -4 9 -10z m-35 -24 c0 -3 -4 -8
-10 -11 -5 -3 -10 -1 -10 4 0 6 5 11 10 11 6 0 10 -2 10 -4z"/>
<path d="M895 770 c-4 -7 -2 -16 6 -21 18 -11 23 -4 11 17 -7 12 -11 13 -17 4z"/>
<path d="M262 693 c3 -46 4 -48 33 -48 29 0 30 2 33 48 l3 47 -36 0 -36 0 3
-47z m48 12 c0 -8 -7 -15 -15 -15 -8 0 -15 7 -15 15 0 8 7 15 15 15 8 0 15 -7
15 -15z m0 -35 c0 -5 -7 -10 -15 -10 -8 0 -15 5 -15 10 0 6 7 10 15 10 8 0 15
-4 15 -10z"/>
<path d="M931 704 c0 -11 3 -14 6 -6 3 7 2 16 -1 19 -3 4 -6 -2 -5 -13z"/>
<path d="M933 465 c-3 -9 -3 -19 1 -22 3 -4 6 1 6 10 0 8 6 18 13 20 9 4 9 6
-1 6 -7 1 -15 -6 -19 -14z"/>
<path d="M900 410 c-12 -8 -10 -10 8 -10 13 0 20 4 17 10 -7 12 -6 12 -25 0z"/>
</g>
</svg>
