<?xml version="1.0" standalone="no"?>
<!DOCTYPE svg PUBLIC "-//W3C//DTD SVG 20010904//EN"
 "http://www.w3.org/TR/2001/REC-SVG-20010904/DTD/svg10.dtd">
<svg version="1.0" xmlns="http://www.w3.org/2000/svg"
 width="100.000000pt" height="100.000000pt" viewBox="0 0 100.000000 100.000000"
 preserveAspectRatio="xMidYMid meet">
<metadata>
Created by potrace 1.16, written by Peter Selinger 2001-2019
</metadata>
<g transform="translate(0.000000,100.000000) scale(0.100000,-0.100000)"
fill="#000000" stroke="none">
<path d="M170 980 c0 -18 -7 -20 -65 -20 l-65 0 0 -35 c0 -28 -4 -35 -20 -35
-11 0 -20 -4 -20 -10 0 -5 13 -10 30 -10 27 0 30 -3 30 -30 0 -28 3 -30 35
-30 32 0 35 2 35 30 0 28 -3 30 -35 30 -33 0 -35 2 -35 35 l0 35 65 0 65 0 0
30 c0 17 -4 30 -10 30 -5 0 -10 -9 -10 -20z m-60 -140 c0 -5 -7 -10 -15 -10
-8 0 -15 5 -15 10 0 6 7 10 15 10 8 0 15 -4 15 -10z"/>
<path d="M350 946 c0 -45 -3 -54 -20 -59 -17 -4 -20 0 -21 31 l-1 37 -9 -45
c-6 -25 -8 -57 -6 -72 3 -27 2 -28 -45 -28 -30 0 -47 -4 -43 -10 3 -5 24 -10
46 -10 21 0 39 -4 39 -10 0 -5 5 -10 10 -10 6 0 10 23 10 50 0 49 1 50 30 50
26 0 30 -4 30 -27 1 -25 2 -26 14 -10 7 9 18 17 25 17 6 0 11 5 11 10 0 6 -11
10 -25 10 -24 0 -25 2 -25 65 0 37 -4 65 -10 65 -5 0 -10 -24 -10 -54z"/>
<path d="M440 905 l0 -95 -35 0 c-32 0 -35 -2 -35 -30 l0 -30 -90 0 -90 0 0
-30 c0 -27 3 -30 30 -30 26 0 30 -4 30 -26 0 -15 4 -23 10 -19 6 4 9 19 7 33
-3 21 -10 28 -30 30 -47 6 -29 22 23 22 41 0 50 -3 50 -17 1 -17 1 -17 14 0
18 23 46 22 46 -3 0 -16 -7 -20 -30 -20 l-30 0 0 -65 0 -65 65 0 65 0 0 -90 0
-90 -190 0 -190 0 0 30 0 30 65 0 65 0 0 60 0 60 58 0 c49 1 55 2 39 14 -19
14 -23 36 -7 36 6 0 10 5 10 10 0 6 -22 10 -50 10 l-50 0 0 -35 0 -35 -95 0
c-63 0 -95 -4 -95 -11 0 -7 12 -10 30 -7 20 3 30 0 30 -9 0 -7 5 -13 10 -13 6
0 10 5 10 10 0 6 20 10 45 10 38 0 45 -3 45 -19 0 -11 -6 -22 -12 -25 -10 -5
-10 -7 -1 -12 19 -9 16 -21 -7 -27 -16 -4 -20 0 -20 19 0 23 -3 24 -65 24 -37
0 -65 -4 -65 -10 0 -5 14 -10 31 -10 24 0 30 -3 25 -16 -3 -9 -6 -18 -6 -20 0
-2 -11 -4 -25 -4 -14 0 -25 -4 -25 -10 0 -5 9 -10 20 -10 11 0 20 -4 20 -10 0
-5 -9 -10 -20 -10 -30 0 -24 -18 7 -22 27 -3 28 -6 31 -66 l3 -62 -31 0 c-16
0 -30 -4 -30 -10 0 -6 45 -10 114 -10 82 0 116 -4 120 -12 5 -10 7 -10 12 0 7
16 61 16 68 0 5 -10 7 -10 12 0 7 15 214 18 214 2 0 -5 -13 -10 -30 -10 -16 0
-30 -4 -30 -10 0 -6 -87 -10 -240 -10 -153 0 -240 -4 -240 -10 0 -6 87 -10
240 -10 l240 0 0 -30 c0 -27 3 -30 30 -30 28 0 30 -3 30 -35 l0 -35 65 0 c58
0 65 -2 65 -20 0 -11 5 -20 10 -20 6 0 10 13 10 30 l0 30 -65 0 -65 0 0 35 c0
32 -2 35 -30 35 -27 0 -30 3 -30 30 l0 30 60 0 60 0 0 60 0 60 35 0 c32 0 35
-2 35 -30 l0 -30 60 0 60 0 0 95 0 95 65 0 65 0 0 30 c0 27 3 30 30 30 17 0
30 5 30 10 0 6 -9 10 -20 10 -19 0 -20 7 -20 145 0 138 1 145 20 145 11 0 20
5 20 10 0 6 -9 10 -20 10 -16 0 -20 7 -20 30 l0 30 -65 0 -65 0 0 35 0 35 -60
0 c-53 0 -60 2 -60 20 0 11 -4 20 -10 20 -5 0 -10 -13 -10 -30 l0 -30 60 0 60
0 0 -35 c0 -32 -2 -35 -30 -35 -27 0 -30 -3 -30 -30 0 -27 3 -30 30 -30 l30 0
0 -155 0 -155 -155 0 -155 0 0 65 0 65 30 0 c27 0 30 3 30 30 0 30 0 30 -56
30 -51 0 -55 2 -49 20 4 11 2 20 -4 20 -6 0 -11 -21 -11 -50 l0 -50 -35 0
c-32 0 -35 2 -35 29 0 26 4 30 33 34 28 3 29 5 10 11 -11 5 -23 16 -26 27 -5
17 1 19 50 19 49 0 54 -2 48 -19 -3 -11 -1 -22 5 -26 7 -4 10 33 10 114 0 114
1 121 20 121 26 0 27 -37 3 -56 -17 -12 -16 -13 4 -14 17 0 20 -4 15 -22 -3
-13 -10 -26 -16 -30 -8 -5 -7 -8 2 -8 6 0 12 -9 12 -20 0 -11 5 -20 10 -20 6
0 10 45 10 115 0 70 -4 115 -10 115 -5 0 -10 -9 -10 -20 0 -11 -4 -20 -10 -20
-5 0 -10 9 -10 20 0 11 -4 20 -10 20 -5 0 -10 -13 -10 -30 0 -23 -4 -30 -20
-30 -16 0 -20 7 -20 30 0 17 -4 30 -10 30 -6 0 -10 -38 -10 -95z m42 -10 c4
-17 1 -25 -8 -25 -8 0 -14 11 -14 25 0 14 4 25 9 25 5 0 11 -11 13 -25z m458
-210 l0 -185 -35 0 -35 0 0 155 0 155 -30 0 c-27 0 -30 3 -30 30 l0 30 65 0
65 0 0 -185z m-460 150 c0 -8 -4 -15 -10 -15 -5 0 -10 7 -10 15 0 8 5 15 10
15 6 0 10 -7 10 -15z m310 5 c0 -5 -4 -10 -10 -10 -5 0 -10 5 -10 10 0 6 5 10
10 10 6 0 10 -4 10 -10z m-310 -50 c0 -11 -4 -20 -10 -20 -5 0 -10 9 -10 20 0
11 5 20 10 20 6 0 10 -9 10 -20z m-42 -25 c-7 -7 -48 7 -48 15 0 15 45 16 48
2 2 -8 2 -15 0 -17z m412 5 c0 -11 -4 -20 -10 -20 -5 0 -10 9 -10 20 0 11 5
20 10 20 6 0 10 -9 10 -20z m0 -125 c0 -50 -4 -85 -10 -85 -6 0 -10 35 -10 85
0 50 4 85 10 85 6 0 10 -35 10 -85z m-497 5 c3 -13 0 -20 -9 -20 -8 0 -14 9
-14 20 0 11 4 20 9 20 5 0 11 -9 14 -20z m147 12 c0 -10 -22 -32 -32 -32 -4 0
-8 9 -8 20 0 13 7 20 20 20 11 0 20 -4 20 -8z m40 -2 c0 -5 -4 -10 -10 -10 -5
0 -10 5 -10 10 0 6 5 10 10 10 6 0 10 -4 10 -10z m-290 -60 c0 -13 -7 -20 -20
-20 -22 0 -28 25 -7 33 22 10 27 7 27 -13z m100 -5 c0 -8 -4 -15 -10 -15 -5 0
-10 7 -10 15 0 8 5 15 10 15 6 0 10 -7 10 -15z m130 0 c0 -12 -13 -15 -55 -15
-42 0 -55 3 -55 15 0 12 13 15 55 15 42 0 55 -3 55 -15z m2 -60 c-2 -14 -8
-25 -12 -25 -4 0 -10 11 -12 25 -4 19 -1 25 12 25 13 0 16 -6 12 -25z m368
-10 c0 -14 5 -25 10 -25 6 0 10 -11 10 -24 0 -19 -4 -23 -20 -19 -16 4 -20 14
-20 49 0 24 5 44 10 44 6 0 10 -11 10 -25z m-350 -45 c0 -13 -7 -20 -20 -20
-13 0 -20 7 -20 20 0 13 7 20 20 20 13 0 20 -7 20 -20z m310 -15 c0 -18 -5
-25 -20 -25 -11 0 -20 -4 -20 -10 0 -5 5 -10 10 -10 15 0 12 -40 -2 -41 -10 0
-10 -2 0 -6 19 -8 14 -40 -8 -46 -18 -5 -20 0 -20 54 l0 59 -65 0 -65 0 0 -65
c0 -61 -2 -65 -22 -66 -13 0 -17 -3 -10 -6 6 -2 12 -15 12 -28 0 -13 -6 -26
-12 -29 -10 -5 -10 -7 0 -12 19 -9 14 -24 -8 -24 -13 0 -20 7 -20 20 0 19 -7
20 -242 20 l-243 0 3 55 c3 39 8 55 18 55 10 0 14 -14 14 -50 0 -27 5 -50 10
-50 6 0 10 23 10 50 0 43 3 50 20 50 17 0 20 -7 20 -45 0 -25 5 -45 10 -45 6
0 10 6 10 14 0 9 7 12 20 9 11 -3 20 -9 20 -14 0 -5 5 -9 10 -9 6 0 10 6 10
14 0 16 50 10 63 -8 6 -8 10 -7 14 2 2 6 13 12 23 12 10 0 21 -6 24 -12 5 -10
7 -10 12 0 7 16 54 16 55 0 0 -10 2 -10 6 0 6 16 43 16 44 0 0 -10 2 -10 6 0
7 18 34 15 49 -5 12 -16 13 -16 14 9 0 15 5 30 10 33 6 3 10 17 10 31 0 13 6
24 13 25 9 0 10 2 0 6 -17 6 -17 50 0 56 6 3 2 6 -10 6 -16 1 -23 7 -23 21 0
18 7 20 64 20 42 0 66 -4 70 -12 5 -10 7 -10 12 0 9 19 44 15 44 -5 1 -16 2
-16 13 -2 10 13 23 22 45 28 1 1 2 -10 2 -24z m-700 5 c0 -5 -7 -10 -15 -10
-8 0 -15 5 -15 10 0 6 7 10 15 10 8 0 15 -4 15 -10z m430 0 c0 -5 -4 -10 -10
-10 -5 0 -10 5 -10 10 0 6 5 10 10 10 6 0 10 -4 10 -10z m380 0 c0 -5 -7 -10
-15 -10 -8 0 -15 5 -15 10 0 6 7 10 15 10 8 0 15 -4 15 -10z m-360 -95 l0 -65
-185 0 -185 0 0 25 c0 18 5 25 20 25 11 0 20 -7 20 -15 0 -8 5 -15 10 -15 6 0
10 7 10 15 0 23 60 20 61 -2 1 -17 2 -17 6 0 5 21 33 23 33 2 0 -8 5 -15 10
-15 6 0 10 7 10 15 0 12 13 15 55 15 42 0 55 -3 55 -15 0 -8 5 -15 10 -15 6 0
10 11 10 25 0 14 5 25 10 25 6 0 10 9 10 20 0 11 -4 20 -10 20 -5 0 -10 -9
-10 -20 0 -13 -7 -20 -20 -20 -16 0 -20 7 -20 30 0 29 1 30 50 30 l50 0 0 -65z
m130 0 c0 -41 -2 -45 -25 -45 -34 0 -36 46 -2 53 l22 4 -22 8 c-31 10 -29 25
2 25 23 0 25 -4 25 -45z m40 0 c0 -25 -4 -45 -10 -45 -5 0 -10 20 -10 45 0 25
5 45 10 45 6 0 10 -20 10 -45z m63 -84 c-3 -11 -13 -21 -24 -24 -14 -4 -19 0
-19 16 -1 20 -2 21 -14 5 -17 -23 -22 -23 -29 2 -5 18 0 20 43 20 42 0 48 -2
43 -19z"/>
<path d="M890 760 c0 -5 7 -10 15 -10 8 0 15 5 15 10 0 6 -7 10 -15 10 -8 0
-15 -4 -15 -10z"/>
<path d="M898 693 c7 -3 16 -2 19 1 4 3 -2 6 -13 5 -11 0 -14 -3 -6 -6z"/>
<path d="M890 550 c0 -5 7 -10 15 -10 8 0 15 5 15 10 0 6 -7 10 -15 10 -8 0
-15 -4 -15 -10z"/>
<path d="M620 976 c0 -19 -4 -23 -20 -19 -11 3 -20 0 -20 -6 0 -7 20 -11 51
-11 31 0 48 4 44 10 -3 6 -13 10 -21 10 -8 0 -14 9 -14 20 0 11 -4 20 -10 20
-5 0 -10 -11 -10 -24z"/>
<path d="M398 943 c7 -3 16 -2 19 1 4 3 -2 6 -13 5 -11 0 -14 -3 -6 -6z"/>
<path d="M131 904 c0 -11 3 -14 6 -6 3 7 2 16 -1 19 -3 4 -6 -2 -5 -13z"/>
<path d="M621 903 c-1 -16 -6 -20 -21 -16 -11 3 -20 0 -20 -6 0 -6 9 -11 20
-11 15 0 20 -7 20 -26 0 -14 4 -23 10 -19 12 7 12 52 0 80 -8 19 -9 19 -9 -2z"/>
<path d="M751 904 c0 -11 3 -14 6 -6 3 7 2 16 -1 19 -3 4 -6 -2 -5 -13z"/>
<path d="M150 861 c0 -5 4 -11 10 -13 5 -1 12 -18 14 -36 6 -53 16 -49 16 6 0
45 -3 52 -20 52 -11 0 -20 -4 -20 -9z"/>
<path d="M690 850 c0 -24 6 -25 26 -6 19 20 18 26 -6 26 -13 0 -20 -7 -20 -20z"/>
<path d="M0 820 c0 -5 9 -10 20 -10 11 0 20 5 20 10 0 6 -9 10 -20 10 -11 0
-20 -4 -20 -10z"/>
<path d="M325 800 c3 -5 10 -10 16 -10 5 0 9 5 9 10 0 6 -7 10 -16 10 -8 0
-12 -4 -9 -10z"/>
<path d="M578 798 c9 -9 15 -9 24 0 9 9 7 12 -12 12 -19 0 -21 -3 -12 -12z"/>
<path d="M620 780 c0 -30 -1 -30 -55 -30 -30 0 -55 -4 -55 -10 0 -5 5 -10 11
-10 7 0 18 -8 25 -17 12 -17 13 -17 14 3 0 17 5 20 30 16 35 -5 44 -42 10 -42
-22 0 -27 -16 -7 -23 8 -3 6 -10 -8 -21 -20 -15 -19 -15 8 -16 24 0 27 -4 27
-35 l0 -35 -50 0 c-53 0 -58 -3 -36 -26 18 -18 26 -18 26 -1 0 9 9 12 29 9 16
-2 32 1 35 7 4 6 18 11 32 11 21 0 24 -4 19 -20 -4 -11 -2 -20 4 -20 6 0 11
22 11 51 0 43 3 50 16 45 9 -3 20 -6 25 -6 5 0 9 -7 9 -15 0 -8 -7 -15 -15
-15 -8 0 -15 -4 -15 -10 0 -5 6 -10 14 -10 15 0 26 21 26 51 0 10 5 19 10 19
6 0 10 33 10 80 0 47 -4 80 -10 80 -6 0 -10 -33 -10 -80 l0 -80 -65 0 -65 0 0
30 c0 28 3 30 35 30 l35 0 0 56 c0 51 2 55 20 49 11 -4 20 -2 20 4 0 7 -23 11
-55 11 -54 0 -55 0 -55 -30z m50 6 c0 -2 3 -11 6 -20 5 -12 0 -16 -19 -16 -20
0 -24 4 -20 20 4 16 33 30 33 16z m0 -66 c0 -5 -7 -10 -15 -10 -8 0 -15 5 -15
10 0 6 7 10 15 10 8 0 15 -4 15 -10z m0 -125 c0 -8 -7 -15 -15 -15 -8 0 -15 7
-15 15 0 8 7 15 15 15 8 0 15 -7 15 -15z"/>
<path d="M60 679 c0 -71 4 -108 10 -104 13 8 13 215 0 215 -6 0 -10 -44 -10
-111z"/>
<path d="M110 685 c0 -63 4 -105 10 -105 6 0 10 42 10 105 0 63 -4 105 -10
105 -6 0 -10 -42 -10 -105z"/>
<path d="M7 753 c7 -2 19 -2 26 0 6 3 1 5 -13 5 -14 0 -19 -2 -13 -5z"/>
<path d="M190 660 c0 -19 3 -21 12 -12 9 9 9 15 0 24 -9 9 -12 7 -12 -12z"/>
<path d="M540 596 c0 -8 5 -18 10 -21 6 -3 10 3 10 14 0 12 -4 21 -10 21 -5 0
-10 -6 -10 -14z"/>
<path d="M750 533 l0 -27 20 22 c11 12 20 24 20 27 0 3 -9 5 -20 5 -15 0 -20
-7 -20 -27z"/>
<path d="M221 525 l-23 -25 26 0 c21 0 26 5 26 25 0 30 1 30 -29 0z"/>
<path d="M310 528 c0 -27 2 -28 55 -28 34 0 55 4 55 11 0 7 -10 9 -25 5 -18
-5 -25 -2 -25 9 0 18 -16 20 -23 3 -3 -9 -10 -7 -21 7 -15 20 -15 19 -16 -7z"/>
<path d="M240 473 c0 -7 -7 -13 -15 -13 -8 0 -15 -4 -15 -10 0 -5 9 -10 20
-10 13 0 20 -7 20 -20 0 -11 5 -20 10 -20 14 0 12 23 -5 56 -8 16 -15 23 -15
17z"/>
<path d="M350 440 c0 -22 5 -40 10 -40 6 0 10 18 10 40 0 22 -4 40 -10 40 -5
0 -10 -18 -10 -40z"/>
<path d="M968 443 c6 -2 18 -2 25 0 6 3 1 5 -13 5 -14 0 -19 -2 -12 -5z"/>
<path d="M940 405 c0 -21 5 -25 30 -25 17 0 30 5 30 10 0 6 -9 10 -20 10 -11
0 -20 7 -20 15 0 8 -4 15 -10 15 -5 0 -10 -11 -10 -25z"/>
<path d="M130 410 c0 -5 5 -10 10 -10 6 0 10 5 10 10 0 6 -4 10 -10 10 -5 0
-10 -4 -10 -10z"/>
<path d="M170 410 c0 -5 5 -10 10 -10 6 0 10 5 10 10 0 6 -4 10 -10 10 -5 0
-10 -4 -10 -10z"/>
<path d="M836 399 c-19 -19 -19 -19 7 -19 20 0 27 5 27 20 0 25 -9 25 -34 -1z"/>
<path d="M890 390 c0 -5 7 -10 15 -10 10 0 15 -11 15 -35 0 -31 -3 -35 -25
-35 -21 0 -25 5 -25 31 0 17 -4 28 -10 24 -5 -3 -10 -15 -10 -25 0 -10 -6 -21
-12 -23 -7 -3 -3 -6 10 -6 12 -1 22 -5 22 -11 0 -5 10 -10 21 -10 12 0 28 -8
35 -17 13 -17 13 -17 14 0 0 12 8 17 30 17 17 0 30 5 30 10 0 6 -13 10 -30 10
-27 0 -30 3 -30 33 0 18 -5 38 -12 45 -15 15 -38 16 -38 2z"/>
<path d="M7 313 c7 -2 19 -2 26 0 6 3 1 5 -13 5 -14 0 -19 -2 -13 -5z"/>
<path d="M640 260 c0 -5 7 -10 15 -10 8 0 15 5 15 10 0 6 -7 10 -15 10 -8 0
-15 -4 -15 -10z"/>
<path d="M830 260 c0 -5 7 -10 16 -10 8 0 12 5 9 10 -3 6 -10 10 -16 10 -5 0
-9 -4 -9 -10z"/>
<path d="M870 155 l0 -95 65 0 c37 0 65 4 65 10 0 6 -9 10 -20 10 -11 0 -20 7
-20 15 0 8 9 15 20 15 11 0 20 5 20 10 0 6 -13 10 -30 10 -27 0 -30 -3 -30
-31 0 -24 -3 -30 -16 -25 -9 3 -20 6 -25 6 -5 0 -9 11 -9 25 0 16 6 25 15 25
8 0 15 5 15 10 0 6 -7 10 -15 10 -25 0 -17 17 10 22 17 4 25 1 25 -8 0 -8 5
-14 10 -14 6 0 10 5 10 10 0 6 9 10 20 10 11 0 20 5 20 10 0 6 -27 10 -61 10
-52 0 -60 2 -55 16 3 9 6 20 6 25 0 5 25 6 55 4 34 -4 55 -2 55 5 0 6 -27 10
-65 10 l-65 0 0 -95z"/>
<path d="M690 216 c0 -9 -8 -12 -24 -9 -13 3 -27 0 -30 -6 -5 -8 20 -11 83
-11 l91 0 0 -54 c0 -52 -1 -54 -30 -58 -27 -4 -30 -2 -30 24 l0 28 -85 0 c-55
0 -85 -4 -85 -11 0 -7 20 -10 55 -7 47 3 55 0 55 -14 0 -10 5 -18 10 -18 6 0
10 7 10 15 0 8 5 15 10 15 14 0 12 -47 -2 -54 -10 -5 -10 -7 0 -12 6 -3 12
-14 12 -25 0 -10 5 -19 10 -19 6 0 10 13 10 30 0 27 3 30 30 30 27 0 30 -3 30
-30 0 -17 5 -30 10 -30 6 0 10 13 10 29 0 16 6 32 13 34 9 4 9 8 1 14 -6 4
-14 18 -18 31 -6 16 -3 22 8 22 9 0 16 5 16 10 0 6 -4 10 -10 10 -5 0 -10 12
-10 28 0 15 -5 34 -10 42 -9 13 -10 13 -10 0 0 -10 -10 -15 -30 -15 -17 0 -30
5 -30 13 0 6 -4 12 -9 12 -5 0 -12 -6 -15 -12 -5 -10 -7 -10 -12 0 -8 16 -24
15 -24 -2z"/>
<path d="M560 160 c0 -5 5 -10 10 -10 6 0 10 5 10 10 0 6 -4 10 -10 10 -5 0
-10 -4 -10 -10z"/>
<path d="M600 161 c0 -6 5 -13 10 -16 6 -3 10 1 10 9 0 9 -4 16 -10 16 -5 0
-10 -4 -10 -9z"/>
<path d="M690 160 c0 -5 5 -10 10 -10 6 0 10 5 10 10 0 6 -4 10 -10 10 -5 0
-10 -4 -10 -10z"/>
</g>
</svg>
