<?xml version="1.0" standalone="no"?>
<!DOCTYPE svg PUBLIC "-//W3C//DTD SVG 20010904//EN"
 "http://www.w3.org/TR/2001/REC-SVG-20010904/DTD/svg10.dtd">
<svg version="1.0" xmlns="http://www.w3.org/2000/svg"
 width="153.000000pt" height="153.000000pt" viewBox="0 0 153.000000 153.000000"
 preserveAspectRatio="xMidYMid meet">
<metadata>
Created by potrace 1.16, written by Peter Selinger 2001-2019
</metadata>
<g transform="translate(0.000000,153.000000) scale(0.100000,-0.100000)"
fill="#000000" stroke="none">
<path d="M470 1511 c-154 -60 -283 -163 -371 -296 -21 -33 -46 -69 -54 -80 -8
-10 -15 -27 -15 -36 0 -9 -7 -30 -15 -45 -8 -16 -15 -45 -14 -64 0 -34 1 -34
11 -10 6 14 19 42 29 63 11 20 18 41 16 46 -1 5 4 18 10 28 7 10 30 45 52 78
111 166 285 284 486 328 11 3 -5 5 -35 5 -30 0 -75 -8 -100 -17z"/>
<path d="M955 1515 c140 -31 291 -125 396 -247 64 -74 139 -219 159 -305 7
-29 14 -53 17 -53 3 0 3 27 0 60 -7 83 -79 229 -156 318 -118 137 -301 243
-418 241 l-58 -1 60 -13z"/>
<path d="M550 1494 c-136 -40 -212 -86 -320 -194 -82 -82 -102 -108 -142 -190
-66 -135 -78 -188 -77 -350 0 -74 4 -143 8 -153 6 -16 20 -18 120 -18 l114 0
52 153 c30 84 74 212 100 283 26 72 62 175 81 230 19 54 38 103 43 108 6 6 8
3 5 -9 -2 -10 45 -167 106 -349 60 -181 110 -338 110 -347 0 -10 5 -18 10 -18
6 0 10 5 10 12 0 6 51 166 113 355 98 300 127 376 127 332 0 -7 39 -120 86
-253 47 -132 106 -299 131 -371 l44 -130 114 0 c134 0 124 -12 132 150 4 91 2
125 -16 198 -66 278 -279 499 -547 567 -116 30 -291 27 -404 -6z m302 -4 c2
-6 26 -11 53 -12 28 -1 59 -6 70 -12 11 -5 27 -10 35 -11 8 0 14 -5 13 -12 -2
-7 4 -10 12 -7 8 4 15 1 15 -6 0 -6 8 -9 19 -5 10 3 24 -1 31 -10 7 -8 16 -13
20 -10 5 3 12 0 16 -6 4 -7 3 -9 -2 -6 -6 3 -16 2 -24 -4 -11 -6 -5 -8 17 -5
18 2 31 0 28 -4 -2 -3 16 -16 40 -28 41 -20 50 -31 46 -55 -1 -5 3 -6 8 -3 22
14 155 -152 144 -179 -4 -12 -3 -16 5 -11 6 3 14 1 18 -5 4 -8 3 -9 -4 -5 -7
4 -12 2 -12 -3 0 -6 4 -11 9 -11 5 0 18 -16 30 -36 23 -39 26 -48 11 -39 -5 3
-3 -7 5 -22 8 -15 12 -36 9 -47 -4 -12 -2 -16 5 -12 7 5 11 -6 11 -32 0 -21 3
-41 6 -45 12 -12 4 -224 -9 -233 -1 0 -43 1 -94 4 l-91 4 -17 50 c-8 27 -13
53 -10 58 4 6 -1 10 -10 10 -9 0 -14 4 -10 10 3 5 1 17 -4 27 -27 49 -49 115
-44 130 4 11 3 14 -6 9 -9 -6 -10 0 -6 21 5 21 4 24 -4 13 -9 -13 -11 -12 -11
6 0 11 6 26 13 34 10 12 9 12 -5 2 -11 -9 -18 -10 -23 -2 -3 5 -1 10 4 10 6 0
11 5 11 12 0 6 -3 8 -7 4 -11 -10 -92 220 -87 246 2 13 1 17 -2 9 -5 -10 -13
2 -26 33 -15 39 -16 51 -6 65 10 13 10 14 -2 4 -9 -9 -17 -9 -25 -3 -20 17
-41 1 -55 -41 -7 -21 -17 -39 -23 -39 -5 0 -6 -7 -3 -16 8 -21 -24 -94 -41
-94 -7 0 -13 -4 -13 -10 0 -5 7 -7 16 -3 14 5 15 3 5 -15 -7 -12 -9 -22 -6
-22 4 0 3 -6 -2 -12 -4 -7 -8 -15 -8 -18 -1 -3 -8 -21 -16 -40 -15 -33 -30
-82 -34 -105 -4 -30 -18 -64 -25 -60 -4 2 -6 -7 -4 -20 1 -14 -2 -27 -7 -31
-5 -3 -9 -16 -9 -30 0 -25 -15 -33 -23 -11 -3 6 -6 2 -6 -10 -1 -13 3 -23 9
-23 5 0 7 -7 4 -15 -8 -20 -20 -11 -29 22 -3 16 -24 80 -46 143 -58 170 -62
183 -65 212 -2 14 -13 44 -25 67 -11 22 -17 46 -13 52 4 8 3 9 -4 5 -8 -4 -12
0 -12 12 0 10 -7 39 -16 65 -13 38 -20 47 -39 47 -18 0 -26 -10 -43 -57 -12
-32 -24 -70 -28 -85 -6 -27 -34 -60 -34 -40 0 6 4 12 9 14 13 5 24 48 12 48
-6 0 -11 -9 -11 -20 0 -11 -5 -20 -11 -20 -7 0 -9 -10 -5 -26 10 -39 -31 -173
-60 -199 -7 -5 -15 -21 -18 -35 -5 -21 -4 -20 9 5 8 17 14 23 14 15 1 -8 -5
-27 -13 -41 -7 -15 -26 -64 -41 -110 -39 -121 -37 -118 -45 -89 l-8 25 -1 -27
c-1 -14 -4 -35 -7 -45 -5 -15 -4 -16 6 -3 13 16 12 15 -12 -52 -10 -27 -11
-28 -88 -25 -43 1 -76 5 -73 10 2 4 0 7 -6 7 -5 0 -11 -6 -14 -12 -2 -7 -9 5
-16 27 -14 52 -15 236 0 215 7 -11 8 -4 4 27 -4 23 -3 48 1 55 5 7 9 18 10 25
1 7 9 27 18 44 9 18 16 42 16 53 0 17 2 18 10 6 7 -11 10 -6 11 20 0 19 3 29
6 23 9 -23 20 -14 20 17 0 18 8 38 21 51 12 11 22 24 22 30 0 5 11 7 25 5 15
-3 23 -1 19 5 -3 5 0 18 8 27 12 15 11 16 -4 3 -28 -21 -21 -5 13 31 18 18 29
27 25 21 -4 -7 -2 -13 3 -13 6 0 11 7 11 15 0 9 6 12 16 8 13 -5 13 -8 2 -15
-11 -8 -10 -9 1 -6 8 2 16 15 18 29 2 16 0 20 -6 10 -5 -8 -11 -9 -15 -3 -3 5
8 15 24 22 17 7 30 17 30 22 0 6 7 8 15 4 8 -3 14 0 12 6 -2 12 4 14 46 17 18
1 19 3 7 11 -13 9 -13 10 0 11 8 1 21 1 29 0 7 -2 10 2 7 7 -5 8 65 34 99 37
6 1 22 6 37 13 15 6 35 9 43 6 8 -4 15 -1 15 5 0 14 187 15 192 1z"/>
<path d="M628 1463 c12 -2 30 -2 40 0 9 3 -1 5 -23 4 -22 0 -30 -2 -17 -4z"/>
<path d="M878 1463 c7 -3 16 -2 19 1 4 3 -2 6 -13 5 -11 0 -14 -3 -6 -6z"/>
<path d="M1075 1410 c-3 -5 -1 -10 4 -10 6 0 11 5 11 10 0 6 -2 10 -4 10 -3 0
-8 -4 -11 -10z"/>
<path d="M450 1380 c8 -5 20 -10 25 -10 6 0 3 5 -5 10 -8 5 -19 10 -25 10 -5
0 -3 -5 5 -10z"/>
<path d="M1204 1314 c-2 -20 0 -21 12 -9 17 17 17 22 2 28 -8 3 -14 -5 -14
-19z"/>
<path d="M400 1281 c0 -6 4 -13 10 -16 6 -3 7 1 4 9 -7 18 -14 21 -14 7z"/>
<path d="M907 1270 c3 -11 7 -20 9 -20 2 0 4 9 4 20 0 11 -4 20 -9 20 -5 0 -7
-9 -4 -20z"/>
<path d="M891 1244 c0 -11 3 -14 6 -6 3 7 2 16 -1 19 -3 4 -6 -2 -5 -13z"/>
<path d="M1092 1240 c0 -14 2 -19 5 -12 2 6 2 18 0 25 -3 6 -5 1 -5 -13z"/>
<path d="M1280 1246 c0 -2 7 -9 15 -16 9 -7 15 -8 15 -2 0 5 -7 12 -15 16 -8
3 -15 4 -15 2z"/>
<path d="M614 1222 c1 -17 19 -17 24 0 3 10 1 10 -6 -1 -9 -12 -11 -12 -14 0
-3 9 -5 10 -4 1z"/>
<path d="M1370 1112 c0 -22 4 -43 9 -46 5 -4 7 12 4 36 -8 57 -13 61 -13 10z"/>
<path d="M138 1080 c-10 -9 -18 -21 -18 -26 0 -5 5 -2 10 6 9 13 10 13 10 0 1
-8 6 -4 11 9 12 30 9 33 -13 11z"/>
<path d="M360 1060 c0 -5 5 -10 10 -10 6 0 10 5 10 10 0 6 -4 10 -10 10 -5 0
-10 -4 -10 -10z"/>
<path d="M826 1035 c-9 -26 -7 -32 5 -12 6 10 9 21 6 23 -2 3 -7 -2 -11 -11z"/>
<path d="M801 1005 c1 -19 18 -51 18 -35 0 8 -4 22 -9 30 -5 8 -9 11 -9 5z"/>
<path d="M711 974 c0 -11 3 -14 6 -6 3 7 2 16 -1 19 -3 4 -6 -2 -5 -13z"/>
<path d="M810 935 c-7 -9 -8 -15 -2 -15 5 0 12 7 16 15 3 8 4 15 2 15 -2 0 -9
-7 -16 -15z"/>
<path d="M71 834 c0 -11 3 -14 6 -6 3 7 2 16 -1 19 -3 4 -6 -2 -5 -13z"/>
<path d="M42 770 c0 -19 2 -27 5 -17 2 9 2 25 0 35 -3 9 -5 1 -5 -18z"/>
<path d="M58 665 c-3 -13 -2 -22 2 -20 11 7 20 45 10 45 -4 0 -10 -11 -12 -25z"/>
<path d="M1450 666 c0 -8 4 -17 9 -20 5 -4 7 3 4 14 -6 23 -13 26 -13 6z"/>
<path d="M520 1200 c0 -5 5 -10 10 -10 6 0 10 5 10 10 0 6 -4 10 -10 10 -5 0
-10 -4 -10 -10z"/>
<path d="M520 1146 c0 -2 7 -9 15 -16 13 -11 14 -10 9 4 -5 14 -24 23 -24 12z"/>
<path d="M963 1115 c-3 -9 -3 -18 -1 -21 3 -3 8 4 11 16 6 23 -1 27 -10 5z"/>
<path d="M520 1100 c0 -5 5 -10 10 -10 6 0 10 5 10 10 0 6 -4 10 -10 10 -5 0
-10 -4 -10 -10z"/>
<path d="M566 1097 c3 -10 9 -15 12 -12 3 3 0 11 -7 18 -10 9 -11 8 -5 -6z"/>
<path d="M470 1071 c0 -7 -4 -9 -10 -6 -6 4 -7 -1 -3 -11 6 -15 7 -15 15 1 6
9 7 19 4 22 -3 4 -6 1 -6 -6z"/>
<path d="M463 917 c-28 -84 -73 -214 -100 -290 l-48 -138 -128 3 -128 3 6 -25
c18 -72 142 -235 230 -303 137 -105 291 -156 471 -157 116 0 182 14 299 63
140 59 292 199 363 335 l43 82 -131 0 -130 0 -11 28 c-13 31 -54 146 -138 387
-32 94 -62 163 -64 155 -28 -80 -203 -619 -217 -665 -10 -33 -20 -53 -23 -45
-44 125 -227 693 -227 705 0 41 -20 1 -67 -138z m71 22 c1 -13 8 -37 15 -54 7
-16 19 -50 27 -75 8 -25 19 -54 24 -65 17 -39 51 -157 46 -162 -7 -8 15 -63
24 -58 4 3 11 -7 14 -23 3 -15 16 -60 29 -99 18 -61 26 -73 43 -73 19 0 43 17
42 30 -2 16 15 50 25 50 9 0 8 3 -1 8 -10 7 -9 15 3 43 l16 34 -6 -35 -5 -35
14 35 c7 19 11 40 9 47 -3 6 3 26 12 43 9 18 12 29 6 25 -6 -3 -4 13 6 37 9
24 23 47 30 51 7 4 13 13 13 20 0 8 -4 6 -11 -3 -8 -11 -9 -8 -4 15 4 16 11
36 17 43 6 7 12 29 14 48 2 20 7 41 13 48 5 6 17 39 26 74 19 66 34 90 29 44
-2 -15 -1 -19 2 -8 8 26 45 -82 38 -109 -4 -16 -3 -17 5 -5 10 13 11 13 12 0
1 -8 1 -19 0 -23 -1 -4 5 -17 13 -29 8 -11 12 -27 9 -36 -4 -9 -2 -13 4 -9 5
3 10 1 10 -6 0 -7 14 -51 33 -99 18 -48 30 -94 26 -103 -3 -9 -2 -13 4 -10 6
3 10 0 10 -8 0 -29 28 -37 143 -39 65 -1 117 -4 117 -6 0 -2 -13 -24 -30 -49
-17 -24 -30 -47 -30 -50 0 -3 -9 -14 -21 -24 -11 -10 -18 -22 -15 -27 6 -10
-32 -50 -41 -44 -3 2 -13 -8 -22 -22 -12 -18 -21 -22 -31 -16 -13 8 -13 10 -1
10 8 0 12 3 9 6 -13 12 -49 -17 -43 -35 3 -10 0 -23 -7 -28 -14 -11 -68 -27
-80 -25 -5 1 -8 -3 -8 -9 0 -6 7 -8 15 -5 45 18 44 15 -4 -13 -29 -17 -57 -28
-62 -25 -5 3 -12 -2 -15 -11 -4 -10 -13 -13 -26 -9 -13 4 -18 2 -14 -4 3 -5
-11 -13 -32 -17 -20 -4 -41 -10 -47 -13 -12 -8 -29 -10 -132 -18 -69 -6 -99
-2 -195 21 -62 15 -120 33 -128 40 -8 8 -17 14 -20 14 -17 0 -60 23 -71 38 -8
10 -21 19 -29 21 -22 5 -40 22 -40 38 0 14 -12 18 -40 14 -8 -1 -12 1 -8 5 7
8 -33 51 -45 47 -4 -1 -6 4 -5 10 2 7 -3 12 -9 10 -7 -1 -13 3 -13 8 0 6 -18
36 -41 66 -23 32 -38 62 -35 70 3 8 2 12 -3 9 -5 -3 -12 -1 -15 4 -3 5 4 11
16 14 13 4 26 1 30 -6 6 -9 8 -9 8 1 0 9 26 12 95 12 88 0 95 1 95 20 0 21 15
27 25 10 3 -5 12 -10 18 -10 7 1 2 9 -9 19 -15 12 -19 22 -14 32 5 8 29 73 54
144 58 170 69 195 79 195 4 0 6 4 3 8 -3 5 0 27 6 51 11 44 27 44 32 0z m134
-384 c-3 -3 -9 2 -12 12 -6 14 -5 15 5 6 7 -7 10 -15 7 -18z m565 -339 c4 -10
1 -13 -9 -9 -15 6 -19 23 -5 23 5 0 11 -7 14 -14z m-938 -6 c3 -5 1 -10 -4
-10 -6 0 -11 5 -11 10 0 6 2 10 4 10 3 0 8 -4 11 -10z"/>
<path d="M456 785 c-3 -8 -1 -15 4 -15 6 0 10 7 10 15 0 8 -2 15 -4 15 -2 0
-6 -7 -10 -15z"/>
<path d="M1051 773 c-1 -6 -4 -20 -7 -30 -5 -15 -4 -15 5 -3 9 12 11 13 11 1
0 -8 2 -12 5 -9 3 3 1 16 -4 29 -5 13 -10 19 -10 12z"/>
<path d="M564 728 c-4 -7 -3 -9 2 -5 5 5 13 -6 19 -24 6 -18 18 -35 26 -37 11
-4 12 -2 2 9 -7 7 -13 21 -13 30 0 24 -26 44 -36 27z"/>
<path d="M923 725 c-3 -9 -3 -18 -1 -21 3 -3 8 4 11 16 6 23 -1 27 -10 5z"/>
<path d="M942 690 c0 -14 2 -19 5 -12 2 6 2 18 0 25 -3 6 -5 1 -5 -13z"/>
<path d="M381 564 c0 -11 3 -14 6 -6 3 7 2 16 -1 19 -3 4 -6 -2 -5 -13z"/>
<path d="M391 524 c0 -11 3 -14 6 -6 3 7 2 16 -1 19 -3 4 -6 -2 -5 -13z"/>
<path d="M663 484 c-3 -8 -1 -20 6 -27 8 -8 11 -4 11 16 0 30 -7 35 -17 11z"/>
<path d="M862 460 c0 -14 2 -19 5 -12 2 6 2 18 0 25 -3 6 -5 1 -5 -13z"/>
<path d="M642 450 c0 -14 2 -19 5 -12 2 6 2 18 0 25 -3 6 -5 1 -5 -13z"/>
<path d="M681 424 c0 -11 3 -14 6 -6 3 7 2 16 -1 19 -3 4 -6 -2 -5 -13z"/>
<path d="M120 422 c0 -12 19 -26 26 -19 2 2 -2 10 -11 17 -9 8 -15 8 -15 2z"/>
<path d="M1371 414 c0 -11 3 -14 6 -6 3 7 2 16 -1 19 -3 4 -6 -2 -5 -13z"/>
<path d="M226 322 c-2 -4 -1 -14 4 -22 7 -11 9 -9 7 8 -1 24 -3 26 -11 14z"/>
<path d="M1284 310 c0 -13 4 -16 10 -10 7 7 7 13 0 20 -6 6 -10 3 -10 -10z"/>
<path d="M1309 293 c-13 -16 -12 -17 4 -4 16 13 21 21 13 21 -2 0 -10 -8 -17
-17z"/>
<path d="M395 159 c-11 -16 -1 -19 13 -3 7 8 8 14 3 14 -5 0 -13 -5 -16 -11z"/>
<path d="M1075 150 c-3 -5 -1 -10 4 -10 6 0 11 5 11 10 0 6 -2 10 -4 10 -3 0
-8 -4 -11 -10z"/>
<path d="M415 140 c3 -5 8 -10 11 -10 2 0 4 5 4 10 0 6 -5 10 -11 10 -5 0 -7
-4 -4 -10z"/>
<path d="M598 83 c7 -3 16 -2 19 1 4 3 -2 6 -13 5 -11 0 -14 -3 -6 -6z"/>
<path d="M908 83 c7 -3 16 -2 19 1 4 3 -2 6 -13 5 -11 0 -14 -3 -6 -6z"/>
<path d="M613 63 c9 -2 23 -2 30 0 6 3 -1 5 -18 5 -16 0 -22 -2 -12 -5z"/>
<path d="M883 63 c9 -2 23 -2 30 0 6 3 -1 5 -18 5 -16 0 -22 -2 -12 -5z"/>
<path d="M936 1061 c-3 -5 0 -11 7 -14 8 -3 14 1 14 9 0 16 -13 19 -21 5z"/>
<path d="M438 1027 c-3 -19 -2 -25 4 -19 6 6 8 18 6 28 -3 14 -5 12 -10 -9z"/>
<path d="M565 1040 c-3 -5 -1 -10 4 -10 6 0 11 5 11 10 0 6 -2 10 -4 10 -3 0
-8 -4 -11 -10z"/>
<path d="M1061 1004 c0 -11 3 -14 6 -6 3 7 2 16 -1 19 -3 4 -6 -2 -5 -13z"/>
<path d="M1 934 c0 -11 3 -14 6 -6 3 7 2 16 -1 19 -3 4 -6 -2 -5 -13z"/>
<path d="M390 884 c0 -8 5 -12 10 -9 6 4 8 11 5 16 -9 14 -15 11 -15 -7z"/>
<path d="M1097 879 c7 -27 23 -34 23 -11 0 11 -6 22 -14 25 -10 4 -12 0 -9
-14z"/>
<path d="M380 846 c0 -8 4 -17 9 -20 5 -4 7 3 4 14 -6 23 -13 26 -13 6z"/>
<path d="M1136 845 c4 -8 8 -15 10 -15 2 0 4 7 4 15 0 8 -4 15 -10 15 -5 0 -7
-7 -4 -15z"/>
<path d="M650 845 c0 -5 5 -17 10 -25 5 -8 10 -10 10 -5 0 6 -5 17 -10 25 -5
8 -10 11 -10 5z"/>
<path d="M880 830 c0 -11 2 -20 4 -20 2 0 6 9 9 20 3 11 1 20 -4 20 -5 0 -9
-9 -9 -20z"/>
<path d="M1120 835 c0 -5 5 -17 10 -25 5 -8 10 -10 10 -5 0 6 -5 17 -10 25 -5
8 -10 11 -10 5z"/>
<path d="M861 774 c0 -11 3 -14 6 -6 3 7 2 16 -1 19 -3 4 -6 -2 -5 -13z"/>
<path d="M1164 744 c-4 -14 -2 -30 4 -36 7 -7 10 1 10 26 0 42 -5 46 -14 10z"/>
<path d="M350 745 c0 -8 2 -15 4 -15 2 0 6 7 10 15 3 8 1 15 -4 15 -6 0 -10
-7 -10 -15z"/>
<path d="M672 730 c0 -14 2 -19 5 -12 2 6 2 18 0 25 -3 6 -5 1 -5 -13z"/>
<path d="M333 694 c-15 -16 -16 -24 -4 -24 8 0 24 30 19 35 -2 2 -9 -3 -15
-11z"/>
<path d="M1180 672 c0 -5 7 -15 15 -22 8 -7 15 -8 15 -2 0 5 -7 15 -15 22 -8
7 -15 8 -15 2z"/>
<path d="M690 651 c0 -6 4 -12 8 -15 5 -3 9 1 9 9 0 8 -4 15 -9 15 -4 0 -8 -4
-8 -9z"/>
<path d="M725 570 c-3 -5 -1 -18 4 -27 9 -16 10 -14 11 10 0 28 -5 34 -15 17z"/>
<path d="M1519 532 c-3 -20 -2 -29 4 -23 5 5 7 19 5 32 -3 20 -5 19 -9 -9z"/>
<path d="M98 543 c7 -3 16 -2 19 1 4 3 -2 6 -13 5 -11 0 -14 -3 -6 -6z"/>
<path d="M1470 546 c0 -2 7 -6 15 -10 8 -3 15 -1 15 4 0 6 -7 10 -15 10 -8 0
-15 -2 -15 -4z"/>
<path d="M0 522 c0 -11 5 -24 10 -27 6 -3 10 -12 10 -20 0 -34 43 -124 78
-163 22 -24 50 -61 63 -83 13 -21 27 -39 31 -39 14 0 48 -34 48 -47 0 -8 13
-16 30 -20 17 -3 30 -10 30 -15 0 -15 43 -47 63 -48 9 0 25 -4 35 -9 76 -40
107 -51 150 -50 26 1 38 4 27 6 -11 3 -26 10 -33 16 -7 5 -15 7 -18 4 -5 -5
-47 12 -106 44 -10 5 -26 9 -35 9 -21 1 -63 33 -63 49 0 6 -4 12 -10 12 -5 1
-14 3 -20 4 -5 1 -14 3 -20 4 -5 0 -10 7 -10 14 0 13 -34 47 -48 47 -4 0 -18
19 -32 41 -14 22 -34 50 -45 62 -37 39 -64 80 -59 88 3 5 1 9 -4 9 -6 0 -16
23 -23 50 -14 56 -49 100 -49 62z"/>
<path d="M1503 475 c-12 -8 -43 -50 -68 -92 -85 -140 -187 -238 -310 -300 -27
-14 -53 -30 -56 -35 -3 -5 -9 -9 -13 -8 -4 1 -26 -3 -51 -9 -43 -11 -70 -31
-41 -31 24 0 121 23 126 31 3 3 28 18 55 32 121 61 225 160 305 292 23 39 51
80 62 92 27 29 20 48 -9 28z"/>
</g>
</svg>
