<?xml version="1.0" standalone="no"?>
<!DOCTYPE svg PUBLIC "-//W3C//DTD SVG 20010904//EN"
 "http://www.w3.org/TR/2001/REC-SVG-20010904/DTD/svg10.dtd">
<svg version="1.0" xmlns="http://www.w3.org/2000/svg"
 width="100.000000pt" height="100.000000pt" viewBox="0 0 100.000000 100.000000"
 preserveAspectRatio="xMidYMid meet">
<metadata>
Created by potrace 1.16, written by Peter Selinger 2001-2019
</metadata>
<g transform="translate(0.000000,100.000000) scale(0.100000,-0.100000)"
fill="#000000" stroke="none">
<path d="M493 985 c-7 -8 -13 -21 -13 -30 0 -8 -4 -15 -10 -15 -5 0 -10 -9
-10 -20 0 -11 -4 -20 -10 -20 -5 0 -10 -7 -10 -15 0 -8 -4 -15 -10 -15 -5 0
-10 -9 -10 -20 0 -11 -4 -20 -10 -20 -5 0 -10 -9 -10 -20 0 -11 -4 -20 -10
-20 -5 0 -10 -9 -10 -20 0 -11 -7 -20 -15 -20 -12 0 -15 15 -15 75 l0 75 -80
0 c-48 0 -80 -4 -80 -10 0 -14 -66 -80 -80 -80 -5 0 -10 -8 -10 -18 0 -10 -9
-24 -20 -32 -11 -8 -20 -22 -20 -32 0 -10 -4 -18 -10 -18 -5 0 -10 -9 -10 -20
0 -11 -4 -20 -10 -20 -5 0 -10 -20 -10 -45 0 -25 -4 -45 -10 -45 -6 0 -10 -40
-10 -100 0 -60 4 -100 10 -100 6 0 10 -20 10 -45 0 -25 5 -45 10 -45 6 0 10
-9 10 -20 0 -11 5 -20 10 -20 6 0 10 -8 10 -18 0 -10 9 -24 20 -32 11 -8 20
-22 20 -32 0 -10 5 -18 11 -18 11 0 39 -25 39 -35 0 -12 50 -55 65 -55 8 0 15
-4 15 -10 0 -5 9 -10 20 -10 11 0 20 -4 20 -10 0 -5 9 -10 20 -10 11 0 20 -4
20 -10 0 -5 25 -10 55 -10 30 0 55 5 55 10 0 6 -20 10 -45 10 -25 0 -45 5 -45
10 0 6 -9 10 -20 10 -11 0 -20 5 -20 10 0 6 -9 10 -20 10 -11 0 -20 5 -20 10
0 6 -7 10 -15 10 -15 0 -65 43 -65 55 0 10 -28 35 -39 35 -6 0 -11 8 -11 18 0
10 -9 24 -20 32 -11 8 -20 22 -20 32 0 10 -4 18 -10 18 -5 0 -10 9 -10 20 0
11 -4 20 -10 20 -5 0 -10 20 -10 45 0 25 -4 45 -10 45 -6 0 -10 33 -10 80 0
47 4 80 10 80 6 0 10 20 10 45 0 25 5 45 10 45 6 0 10 9 10 20 0 11 5 20 10
20 6 0 10 8 10 18 0 10 9 24 20 32 11 8 20 22 20 32 0 10 5 18 10 18 14 0 80
66 80 80 0 6 25 10 60 10 l60 0 0 -65 c0 -52 -3 -65 -15 -65 -19 0 -85 -64
-85 -82 0 -8 -9 -20 -20 -28 -13 -9 -20 -26 -20 -47 0 -18 -4 -33 -10 -33 -6
0 -10 -33 -10 -80 0 -47 4 -80 10 -80 6 0 10 -15 10 -33 0 -21 7 -38 20 -47
11 -8 20 -20 20 -28 0 -18 66 -82 85 -82 8 0 15 -4 15 -10 0 -5 9 -10 20 -10
11 0 20 -4 20 -10 0 -5 16 -10 35 -10 19 0 35 -4 35 -10 0 -6 27 -10 60 -10
33 0 60 4 60 10 0 6 14 10 30 10 17 0 30 5 30 10 0 6 11 10 25 10 14 0 25 5
25 10 0 6 7 10 15 10 20 0 85 65 85 85 0 8 5 15 10 15 6 0 10 9 10 20 0 11 5
20 10 20 6 0 10 16 10 35 0 19 5 35 10 35 6 0 10 27 10 60 0 33 -4 60 -10 60
-5 0 -10 14 -10 30 0 17 -4 30 -10 30 -5 0 -10 11 -10 25 0 14 -4 25 -10 25
-5 0 -10 7 -10 15 0 9 -16 31 -35 50 -19 19 -41 35 -50 35 -8 0 -15 9 -15 20
0 11 -4 20 -10 20 -5 0 -10 9 -10 20 0 11 5 20 10 20 6 0 10 11 10 25 0 23 3
25 50 25 38 0 50 -4 50 -15 0 -8 7 -15 16 -15 9 0 29 -13 44 -30 15 -16 33
-30 39 -30 6 0 11 -8 11 -18 0 -10 9 -24 20 -32 11 -8 20 -22 20 -32 0 -10 5
-18 10 -18 6 0 10 -13 10 -30 0 -16 5 -30 10 -30 6 0 10 -20 10 -45 0 -25 5
-45 10 -45 6 0 10 -27 10 -60 0 -33 -4 -60 -10 -60 -5 0 -10 -20 -10 -45 0
-25 -4 -45 -10 -45 -5 0 -10 -13 -10 -30 0 -16 -4 -30 -10 -30 -5 0 -10 -8
-10 -18 0 -10 -9 -24 -20 -32 -11 -8 -20 -22 -20 -32 0 -10 -5 -18 -11 -18
-11 0 -39 -25 -39 -35 0 -12 -28 -35 -42 -35 -8 0 -20 -9 -28 -20 -8 -11 -22
-20 -32 -20 -10 0 -18 -4 -18 -10 0 -5 -9 -10 -20 -10 -11 0 -20 -4 -20 -10 0
-5 -20 -10 -45 -10 -25 0 -45 -4 -45 -10 0 -5 25 -10 55 -10 30 0 55 5 55 10
0 6 9 10 20 10 11 0 20 5 20 10 0 6 8 10 18 10 10 0 24 9 32 20 8 11 20 20 28
20 14 0 42 23 42 35 0 10 28 35 39 35 6 0 11 8 11 18 0 10 9 24 20 32 11 8 20
22 20 32 0 10 5 18 10 18 6 0 10 14 10 30 0 17 5 30 10 30 6 0 10 20 10 45 0
25 5 45 10 45 6 0 10 33 10 80 0 47 -4 80 -10 80 -5 0 -10 20 -10 45 0 25 -4
45 -10 45 -5 0 -10 14 -10 30 0 17 -4 30 -10 30 -5 0 -10 8 -10 18 0 10 -9 24
-20 32 -11 8 -20 22 -20 32 0 10 -5 18 -11 18 -6 0 -24 14 -39 30 -15 17 -35
30 -44 30 -9 0 -16 7 -16 15 0 12 -14 15 -70 15 -68 0 -70 -1 -70 -25 0 -14
-4 -25 -10 -25 -5 0 -10 -18 -10 -40 0 -22 5 -40 10 -40 6 0 10 -9 10 -20 0
-13 7 -20 20 -20 11 0 20 -4 20 -10 0 -5 -25 -10 -55 -10 l-55 0 0 60 c0 33 4
60 10 60 6 0 10 35 10 85 0 50 -4 85 -10 85 -6 0 -10 -32 -10 -75 0 -43 -4
-75 -10 -75 -6 0 -10 -27 -10 -60 0 -33 -4 -60 -10 -60 -5 0 -10 -9 -10 -20 0
-18 7 -20 85 -20 l85 0 0 -30 c0 -16 -4 -30 -10 -30 -5 0 -10 -11 -10 -25 0
-14 -4 -25 -10 -25 -5 0 -10 -7 -10 -16 0 -18 -23 -44 -39 -44 -6 0 -11 -9
-11 -20 0 -11 -4 -20 -10 -20 -5 0 -10 -9 -10 -20 0 -11 -4 -20 -10 -20 -5 0
-10 -8 -10 -18 0 -10 -9 -24 -20 -32 -11 -8 -20 -25 -20 -37 0 -13 -4 -23 -10
-23 -5 0 -10 -9 -10 -20 0 -11 -4 -20 -10 -20 -5 0 -10 -7 -10 -15 0 -18 -44
-65 -60 -65 -20 0 -40 28 -40 54 0 14 5 26 10 26 6 0 10 20 10 45 0 25 5 45
10 45 6 0 10 27 10 60 0 33 4 60 10 60 6 0 10 5 10 10 0 6 -35 10 -85 10 l-85
0 0 40 c0 22 5 40 10 40 6 0 10 7 10 15 0 8 5 15 10 15 6 0 10 9 10 20 0 11 5
20 10 20 6 0 10 7 10 16 0 18 23 44 39 44 6 0 11 9 11 20 0 11 5 20 10 20 6 0
10 9 10 20 0 11 5 20 10 20 6 0 10 9 10 20 0 11 5 20 10 20 6 0 10 7 10 15 0
8 5 15 10 15 6 0 10 9 10 20 0 11 5 20 10 20 6 0 10 9 10 20 0 11 5 20 10 20
6 0 10 9 10 20 0 23 -10 25 -27 5z m-163 -275 c0 -11 -4 -20 -10 -20 -5 0 -10
-9 -10 -20 0 -11 -4 -20 -10 -20 -5 0 -10 -7 -10 -15 0 -8 -4 -15 -10 -15 -6
0 -10 -27 -10 -60 l0 -60 75 0 75 0 0 -50 c0 -27 -4 -50 -10 -50 -5 0 -10 -20
-10 -45 0 -25 -4 -45 -10 -45 -5 0 -10 -22 -10 -50 0 -38 -4 -50 -15 -50 -8 0
-15 5 -15 10 0 6 -7 10 -15 10 -19 0 -85 64 -85 82 0 8 -9 20 -20 28 -13 9
-20 26 -20 47 0 18 -4 33 -10 33 -6 0 -10 27 -10 60 0 33 4 60 10 60 6 0 10
15 10 33 0 21 7 38 20 47 11 8 20 20 20 27 0 14 59 81 73 82 4 1 7 -8 7 -19z
m420 -60 c0 -11 5 -20 10 -20 6 0 10 -11 10 -25 0 -14 5 -25 10 -25 6 0 10
-13 10 -30 0 -16 5 -30 10 -30 6 0 10 -18 10 -40 0 -22 -4 -40 -10 -40 -5 0
-10 -16 -10 -35 0 -19 -4 -35 -10 -35 -5 0 -10 -9 -10 -20 0 -11 -4 -20 -10
-20 -5 0 -10 -7 -10 -15 0 -20 -65 -85 -85 -85 -8 0 -15 -4 -15 -10 0 -5 -11
-10 -25 -10 -14 0 -25 -4 -25 -10 0 -5 -13 -10 -30 -10 -16 0 -30 -4 -30 -10
0 -5 -18 -10 -40 -10 -22 0 -40 3 -40 6 0 3 14 19 30 34 17 15 30 35 30 44 0
9 5 16 10 16 6 0 10 9 10 20 0 11 5 20 10 20 6 0 10 10 10 23 0 12 9 29 20 37
11 8 20 22 20 32 0 10 5 18 10 18 6 0 10 9 10 20 0 11 5 20 10 20 6 0 10 9 10
20 0 11 5 20 11 20 16 0 39 26 39 44 0 9 5 16 10 16 6 0 10 11 10 25 0 14 5
25 10 25 6 0 10 14 10 30 0 17 5 30 10 30 6 0 10 -9 10 -20z"/>
</g>
</svg>
