<?xml version="1.0" standalone="no"?>
<!DOCTYPE svg PUBLIC "-//W3C//DTD SVG 20010904//EN"
 "http://www.w3.org/TR/2001/REC-SVG-20010904/DTD/svg10.dtd">
<svg version="1.0" xmlns="http://www.w3.org/2000/svg"
 width="110.000000pt" height="110.000000pt" viewBox="0 0 110.000000 110.000000"
 preserveAspectRatio="xMidYMid meet">
<metadata>
Created by potrace 1.16, written by Peter Selinger 2001-2019
</metadata>
<g transform="translate(0.000000,110.000000) scale(0.100000,-0.100000)"
fill="#000000" stroke="none">
<path d="M280 1085 c0 -27 30 -89 57 -117 l27 -28 187 0 c186 0 188 0 218 25
29 25 70 120 57 132 -10 10 -22 -8 -35 -49 -7 -21 -26 -49 -42 -63 -30 -25
-33 -25 -199 -25 l-168 0 -30 34 c-16 19 -35 50 -42 70 -12 36 -30 49 -30 21z"/>
<path d="M50 968 c-32 -17 -46 -30 -48 -48 l-4 -25 24 22 c23 21 87 53 108 53
7 0 10 -158 10 -485 0 -317 3 -485 10 -485 7 0 10 172 10 495 l0 495 -33 0
c-18 0 -53 -10 -77 -22z"/>
<path d="M940 495 c0 -323 3 -495 10 -495 7 0 10 168 10 485 0 327 3 485 10
485 21 0 85 -32 108 -53 l24 -22 -4 25 c-4 30 -75 70 -125 70 l-33 0 0 -495z"/>
<path d="M280 773 c0 -35 32 -105 59 -132 20 -20 32 -21 214 -21 l193 0 27 28
c26 28 57 99 57 133 0 18 -13 19 -275 19 l-275 0 0 -27z m514 -35 c-8 -24 -27
-55 -41 -70 l-27 -28 -173 0 c-158 0 -175 2 -192 19 -21 21 -44 62 -55 99 l-7
22 255 0 255 0 -15 -42z"/>
<path d="M280 453 c0 -35 32 -105 59 -132 20 -20 32 -21 214 -21 l193 0 27 28
c26 28 57 99 57 133 0 18 -13 19 -275 19 l-275 0 0 -27z m514 -35 c-8 -24 -27
-55 -41 -70 l-27 -28 -173 0 c-158 0 -175 2 -192 19 -21 21 -44 62 -55 99 l-7
22 255 0 255 0 -15 -42z"/>
<path d="M0 44 c0 -25 30 -43 70 -43 32 0 33 1 11 10 -13 5 -36 18 -52 30 -26
18 -29 19 -29 3z"/>
<path d="M1075 43 c-11 -8 -33 -21 -50 -29 l-30 -13 35 0 c40 0 73 20 68 43
-3 13 -5 13 -23 -1z"/>
</g>
</svg>
