<?xml version="1.0" standalone="no"?>
<!DOCTYPE svg PUBLIC "-//W3C//DTD SVG 20010904//EN"
 "http://www.w3.org/TR/2001/REC-SVG-20010904/DTD/svg10.dtd">
<svg version="1.0" xmlns="http://www.w3.org/2000/svg"
 width="192.000000pt" height="192.000000pt" viewBox="0 0 192.000000 192.000000"
 preserveAspectRatio="xMidYMid meet">
<metadata>
Created by potrace 1.16, written by Peter Selinger 2001-2019
</metadata>
<g transform="translate(0.000000,192.000000) scale(0.100000,-0.100000)"
fill="#000000" stroke="none">
<path d="M852 1710 c-277 -39 -498 -215 -589 -470 -17 -47 -34 -113 -38 -147
-5 -44 -11 -63 -21 -63 -10 0 -14 15 -14 60 l0 60 -32 0 c-26 -1 -47 -13 -96
-58 -55 -51 -76 -82 -54 -82 4 0 36 27 72 60 36 32 71 59 78 60 8 0 12 -18 12
-60 l0 -60 34 0 34 0 7 63 c4 34 21 100 38 147 101 283 364 469 667 472 200 2
360 -58 496 -184 138 -129 215 -280 231 -453 l6 -65 33 0 34 0 0 65 c0 36 3
65 8 65 4 0 41 -30 82 -66 52 -46 76 -61 78 -50 3 14 -25 44 -104 110 -18 14
-44 26 -58 26 -25 0 -26 -2 -26 -65 0 -48 -4 -65 -14 -65 -9 0 -15 20 -19 65
-25 261 -212 505 -457 593 -111 41 -273 58 -388 42z"/>
<path d="M808 1509 c-49 -14 -108 -67 -136 -121 -28 -58 -30 -155 -3 -214 31
-69 128 -125 210 -123 l36 1 -35 7 c-90 18 -150 80 -158 161 -4 41 0 56 19 85
63 92 223 101 313 17 15 -15 44 -51 63 -80 81 -128 170 -193 256 -191 l42 1
-35 7 c-97 20 -176 106 -259 282 -60 127 -196 200 -313 168z m157 -42 c44 -22
121 -99 129 -130 4 -17 1 -16 -22 6 -42 40 -93 57 -174 57 -131 0 -197 -55
-199 -166 -1 -58 -1 -59 -14 -29 -34 74 -5 178 68 241 65 55 131 62 212 21z"/>
<path d="M260 980 c0 -7 240 -10 700 -10 460 0 700 3 700 10 0 7 -240 10 -700
10 -460 0 -700 -3 -700 -10z"/>
<path d="M0 942 c0 -31 126 -142 161 -142 29 0 29 0 29 65 0 48 4 65 14 65 9
0 15 -23 20 -80 23 -278 239 -539 506 -614 213 -59 442 -35 619 66 63 36 167
131 216 198 72 99 121 225 132 345 4 45 10 65 19 65 10 0 14 -17 14 -65 0 -64
0 -65 28 -65 20 0 45 18 95 65 37 35 67 71 67 80 0 8 -2 15 -4 15 -2 0 -37
-31 -77 -70 -41 -38 -77 -70 -81 -70 -5 0 -8 29 -8 65 l0 65 -34 0 -33 0 -6
-65 c-25 -261 -212 -505 -457 -593 -262 -94 -549 -41 -744 139 -133 124 -218
291 -232 459 l-7 80 -33 0 -34 0 0 -65 c0 -36 -4 -65 -9 -65 -5 0 -43 32 -85
71 -59 55 -76 67 -76 51z"/>
<path d="M1344 901 c-55 -9 -125 -52 -159 -98 -16 -21 -32 -40 -35 -43 -4 -3
-19 -26 -34 -53 -57 -97 -142 -144 -241 -134 -128 13 -188 112 -135 221 20 43
67 81 116 96 l29 8 -27 1 c-14 1 -46 -7 -70 -18 -103 -44 -144 -113 -136 -229
5 -68 19 -101 62 -150 57 -64 175 -84 259 -43 70 34 101 69 168 191 35 63 81
134 103 158 42 46 102 82 135 82 11 0 23 5 26 10 7 11 1 11 -61 1z m-619 -282
c30 -39 73 -61 136 -66 89 -9 143 4 196 44 l46 35 -23 -38 c-68 -113 -194
-163 -288 -115 -94 48 -144 164 -111 257 l14 39 5 -65 c3 -43 12 -74 25 -91z"/>
</g>
</svg>
