<?xml version="1.0" standalone="no"?>
<!DOCTYPE svg PUBLIC "-//W3C//DTD SVG 20010904//EN"
 "http://www.w3.org/TR/2001/REC-SVG-20010904/DTD/svg10.dtd">
<svg version="1.0" xmlns="http://www.w3.org/2000/svg"
 width="180.000000pt" height="180.000000pt" viewBox="0 0 180.000000 180.000000"
 preserveAspectRatio="xMidYMid meet">
<metadata>
Created by potrace 1.16, written by Peter Selinger 2001-2019
</metadata>
<g transform="translate(0.000000,180.000000) scale(0.100000,-0.100000)"
fill="#000000" stroke="none">
<path d="M260 898 l0 -488 125 0 125 0 0 206 0 205 100 -3 100 -3 0 99 0 98
-100 -4 -100 -4 0 93 0 93 113 0 112 0 -2 96 -1 95 -236 2 -236 2 0 -487z
m450 392 l0 -70 -87 0 c-141 0 -133 7 -133 -126 l0 -114 100 0 100 0 0 -70 0
-70 -99 0 c-81 0 -100 -3 -105 -16 -3 -9 -6 -101 -6 -205 l0 -189 -95 0 -95 0
0 465 0 465 210 0 210 0 0 -70z"/>
<path d="M790 898 l0 -488 112 0 111 0 -5 305 c-4 168 -3 303 2 300 4 -2 10
-36 13 -75 3 -39 21 -175 39 -301 l32 -229 78 0 c43 0 78 3 78 8 0 4 13 104
29 222 16 118 33 252 36 298 4 45 10 82 14 82 3 0 4 -137 3 -305 l-4 -305 109
0 108 0 -2 486 -3 486 -157 0 -158 0 -22 -174 c-12 -95 -22 -192 -22 -216 -1
-26 -5 -41 -11 -37 -5 3 -10 23 -10 43 0 20 -11 111 -25 202 -14 91 -25 170
-25 175 0 6 -60 10 -160 10 l-160 0 0 -487z m324 260 c15 -112 30 -206 33
-210 6 -12 53 -10 53 2 0 5 11 98 25 206 14 108 25 198 25 200 0 2 61 4 135 4
l135 0 0 -460 0 -460 -80 0 -80 0 -2 293 -3 292 -23 3 c-12 2 -24 -3 -27 -10
-2 -7 -20 -132 -40 -278 -19 -146 -37 -275 -40 -287 -5 -20 -12 -23 -55 -23
-48 0 -49 1 -55 33 -3 17 -21 142 -40 277 -44 308 -41 292 -68 288 l-22 -3 -3
-297 -2 -298 -80 0 -80 0 -2 465 -3 465 135 0 135 0 29 -202z"/>
</g>
</svg>
