<?xml version="1.0" standalone="no"?>
<!DOCTYPE svg PUBLIC "-//W3C//DTD SVG 20010904//EN"
 "http://www.w3.org/TR/2001/REC-SVG-20010904/DTD/svg10.dtd">
<svg version="1.0" xmlns="http://www.w3.org/2000/svg"
 width="100.000000pt" height="100.000000pt" viewBox="0 0 100.000000 100.000000"
 preserveAspectRatio="xMidYMid meet">
<metadata>
Created by potrace 1.16, written by Peter Selinger 2001-2019
</metadata>
<g transform="translate(0.000000,100.000000) scale(0.100000,-0.100000)"
fill="#000000" stroke="none">
<path d="M260 945 c0 -11 -12 -15 -45 -15 l-45 0 0 -65 c0 -51 -3 -65 -15 -65
-8 0 -15 -7 -15 -15 0 -8 -7 -15 -15 -15 -12 0 -15 -13 -15 -60 0 -53 -2 -60
-20 -60 -16 0 -20 -7 -20 -34 0 -18 -7 -39 -15 -46 -10 -8 -15 -30 -15 -61 0
-37 -4 -49 -15 -49 -11 0 -15 -12 -15 -44 0 -24 -3 -51 -6 -60 -4 -11 -1 -16
10 -16 9 0 16 -7 16 -15 0 -8 -7 -15 -15 -15 -8 0 -15 -4 -15 -10 0 -13 17
-13 25 0 10 16 65 12 65 -5 0 -11 -12 -15 -45 -15 -33 0 -45 -4 -45 -15 0 -8
7 -15 15 -15 8 0 15 -7 15 -15 0 -8 -7 -15 -15 -15 -8 0 -15 -7 -15 -15 0 -8
9 -15 20 -15 11 0 20 7 20 15 0 13 31 15 215 15 184 0 215 -2 215 -15 0 -8 7
-15 15 -15 12 0 15 15 15 72 0 39 3 69 6 65 3 -3 6 -29 7 -56 0 -28 4 -51 9
-51 4 0 8 36 8 80 l0 80 140 0 c120 0 140 2 140 15 0 14 -19 16 -127 15 -197
-2 -183 -4 -183 26 0 15 -4 23 -11 19 -6 -4 -8 -14 -5 -22 14 -36 -11 -43
-160 -43 -89 0 -144 4 -144 10 0 6 55 10 145 10 122 0 145 2 145 15 0 13 -23
15 -144 15 -119 0 -145 3 -150 15 -5 13 19 15 174 15 125 0 180 3 180 11 0 6
-7 9 -15 5 -8 -3 -15 -1 -15 4 0 6 -67 10 -170 10 -111 0 -170 4 -170 10 0 7
-20 9 -50 7 -48 -4 -50 -3 -50 21 0 24 1 24 18 9 12 -11 36 -17 64 -17 26 0
48 -4 50 -9 2 -5 85 -11 186 -13 141 -2 182 0 182 10 0 9 -44 12 -185 12
l-185 0 0 30 c0 20 -5 30 -15 30 -8 0 -15 -7 -15 -15 0 -10 -11 -15 -35 -15
-33 0 -35 2 -35 35 0 28 4 35 20 35 11 0 20 -7 20 -16 0 -8 -4 -13 -9 -9 -5 3
-12 1 -16 -5 -4 -6 6 -10 24 -10 24 0 31 4 31 20 0 11 7 20 15 20 8 0 15 -9
15 -20 0 -16 7 -20 30 -20 23 0 30 4 30 20 0 19 7 20 110 20 103 0 110 -1 110
-20 0 -11 7 -20 15 -20 8 0 15 -7 15 -16 0 -13 -18 -15 -145 -12 -79 2 -141 0
-137 -4 10 -9 282 -15 282 -5 0 4 7 7 15 7 8 0 15 -5 15 -12 0 -9 3 -9 12 0
13 13 -6 42 -28 42 -10 0 -14 14 -14 48 0 31 3 42 9 33 5 -8 7 -20 4 -28 -3
-7 0 -13 6 -13 6 0 11 18 10 43 0 23 -3 36 -6 30 -3 -10 -42 -13 -143 -13
-134 0 -138 -1 -133 -20 4 -16 2 -19 -11 -14 -12 5 -16 0 -16 -21 0 -24 -1
-25 -16 -10 -11 11 -25 14 -45 10 l-29 -7 0 61 c0 48 3 61 15 61 8 0 15 7 15
15 0 8 7 15 15 15 12 0 15 14 15 65 l0 65 45 0 45 0 1 -62 c0 -35 3 -57 6 -50
3 9 41 12 139 12 127 0 134 1 134 20 0 19 6 20 205 17 159 -1 205 1 205 11 0
6 7 12 16 12 11 0 14 5 10 16 -3 9 -6 22 -6 30 0 12 -35 14 -205 14 -176 0
-205 2 -205 15 0 13 -24 15 -160 15 -136 0 -160 -2 -160 -15z m300 -14 c0 -15
-42 -21 -162 -21 -98 0 -118 3 -118 15 0 13 22 15 140 15 77 0 140 -4 140 -9z
m410 -41 c0 -19 -7 -20 -220 -20 -213 0 -220 1 -220 20 0 19 7 20 220 20 213
0 220 -1 220 -20z m-460 -15 c0 -12 -18 -15 -105 -15 -87 0 -105 3 -105 15 0
12 18 15 105 15 87 0 105 -3 105 -15z m35 -46 c-8 -12 -255 -12 -255 1 0 8
234 20 253 12 4 -2 5 -8 2 -13z m-65 -169 c0 -6 -42 -10 -105 -10 -63 0 -105
4 -105 10 0 6 42 10 105 10 63 0 105 -4 105 -10z m-320 -179 c0 -16 -5 -17
-40 -11 -22 4 -40 3 -40 -1 0 -5 7 -9 15 -9 8 0 15 -4 15 -10 0 -5 -9 -10 -19
-10 -14 0 -18 -5 -14 -20 4 -14 0 -20 -11 -20 -9 0 -16 -5 -16 -10 0 -7 78
-10 232 -10 227 1 232 1 233 -19 2 -21 -2 -21 -192 -21 l-193 0 0 -45 c0 -25
5 -45 10 -45 6 0 9 15 7 35 l-4 35 166 0 166 0 0 -40 0 -40 -181 0 c-99 0
-184 3 -187 7 -4 3 -2 12 4 20 8 9 8 13 1 13 -6 0 -9 7 -6 15 4 8 1 15 -5 15
-6 0 -11 7 -11 15 0 10 -10 15 -30 15 -29 0 -30 1 -30 50 0 38 4 50 15 50 10
0 15 10 15 30 0 29 1 30 50 30 42 0 50 -3 50 -19z m0 -56 c0 -8 -7 -15 -15
-15 -8 0 -15 7 -15 15 0 8 7 15 15 15 8 0 15 -7 15 -15z m-58 -27 c-9 -9 -12
-7 -12 12 0 19 3 21 12 12 9 -9 9 -15 0 -24z m-12 -142 c0 -19 -27 -28 -33
-11 -7 15 1 25 20 25 7 0 13 -6 13 -14z"/>
<path d="M560 890 c0 -6 7 -10 15 -10 8 0 15 2 15 4 0 2 -7 6 -15 10 -8 3 -15
1 -15 -4z"/>
<path d="M160 300 c0 -5 4 -10 9 -10 6 0 13 5 16 10 3 6 -1 10 -9 10 -9 0 -16
-4 -16 -10z"/>
<path d="M223 303 c9 -2 23 -2 30 0 6 3 -1 5 -18 5 -16 0 -22 -2 -12 -5z"/>
<path d="M317 303 c24 -2 62 -2 86 0 23 2 4 4 -43 4 -47 0 -66 -2 -43 -4z"/>
<path d="M210 878 c0 -4 9 -8 20 -8 11 0 20 4 20 9 0 6 -9 9 -20 8 -11 -1 -20
-5 -20 -9z"/>
<path d="M210 850 c0 -5 12 -10 26 -10 14 0 23 4 19 10 -3 6 -15 10 -26 10
-10 0 -19 -4 -19 -10z"/>
<path d="M590 818 c0 -5 93 -8 207 -8 113 0 203 3 199 7 -9 9 -406 10 -406 1z"/>
<path d="M485 791 c-3 -5 -1 -12 5 -16 5 -3 10 1 10 9 0 18 -6 21 -15 7z"/>
<path d="M528 778 c5 -5 16 -8 23 -6 8 3 3 7 -10 11 -17 4 -21 3 -13 -5z"/>
<path d="M202 763 c2 -12 -4 -19 -19 -21 -33 -5 -28 -22 6 -22 24 0 29 5 33
30 3 21 0 30 -9 30 -8 0 -13 -8 -11 -17z"/>
<path d="M250 765 c0 -8 7 -15 15 -15 8 0 15 7 15 15 0 8 -7 15 -15 15 -8 0
-15 -7 -15 -15z"/>
<path d="M318 773 c7 -3 16 -2 19 1 4 3 -2 6 -13 5 -11 0 -14 -3 -6 -6z"/>
<path d="M448 773 c7 -3 16 -2 19 1 4 3 -2 6 -13 5 -11 0 -14 -3 -6 -6z"/>
<path d="M175 760 c-3 -5 -1 -10 4 -10 6 0 11 5 11 10 0 6 -2 10 -4 10 -3 0
-8 -4 -11 -10z"/>
<path d="M280 740 c0 -5 -7 -7 -15 -4 -8 4 -15 1 -15 -5 0 -7 44 -11 140 -11
118 0 140 2 140 15 0 13 -21 15 -125 15 -74 0 -125 -4 -125 -10z"/>
<path d="M552 722 c-8 -17 -9 -28 -2 -30 5 -2 10 -10 10 -19 0 -17 22 -13 28
5 2 7 -3 12 -12 12 -26 0 -18 27 11 34 48 13 301 17 308 6 9 -14 37 -13 76 5
31 13 16 14 -186 15 l-220 0 -13 -28z"/>
<path d="M895 655 l-10 -50 -178 0 c-97 0 -177 -3 -177 -7 0 -5 86 -8 190 -8
l190 0 0 -30 c0 -23 -4 -30 -20 -30 -11 0 -20 -7 -20 -15 0 -8 7 -15 15 -15
21 0 19 -17 -2 -24 -11 -3 -7 -4 7 -3 21 2 25 6 22 30 -2 19 2 27 13 27 12 0
15 -16 15 -95 l0 -95 -35 0 c-35 0 -35 0 -35 -45 l0 -45 -45 0 c-33 0 -45 4
-45 15 0 10 11 15 35 15 19 0 35 4 35 9 0 11 -86 21 -194 21 -107 0 -105 13 2
21 l77 6 -87 1 c-59 1 -88 6 -91 15 -2 6 -8 8 -13 4 -5 -4 -2 -12 5 -16 8 -6
11 -16 6 -30 -7 -22 -6 -22 99 -19 100 3 106 2 106 -17 1 -43 42 -69 68 -43 9
9 12 -5 12 -65 l0 -77 -200 0 c-193 0 -200 1 -200 20 0 19 -7 20 -186 20 -121
0 -183 3 -179 10 8 13 349 13 375 0 11 -5 29 -14 40 -20 39 -19 60 -13 60 19
0 34 -10 44 -30 30 -10 -6 -11 -9 -2 -9 6 0 12 -7 12 -15 0 -8 -7 -15 -15 -15
-8 0 -15 8 -15 18 0 16 -16 17 -209 14 -206 -3 -209 -2 -204 18 4 14 1 20 -11
20 -9 0 -16 -6 -16 -14 0 -8 -6 -17 -12 -19 -10 -4 -10 -6 0 -6 17 -1 15 -31
-3 -31 -8 0 -15 7 -15 15 0 8 -7 15 -16 15 -11 0 -14 -5 -10 -16 3 -9 6 -20 6
-25 0 -5 87 -9 205 -9 198 0 205 -1 205 -20 0 -19 7 -20 220 -20 l220 0 1 73
c1 39 1 75 0 80 0 4 5 6 11 5 9 -2 14 13 16 45 3 46 4 47 38 47 l34 0 0 95 c0
78 3 95 15 95 8 0 15 8 16 18 0 9 2 27 5 40 4 20 0 22 -41 22 -38 0 -45 3 -45
20 0 17 7 20 45 20 26 0 45 5 45 11 0 7 -17 10 -45 7 -43 -3 -44 -2 -47 27 -3
25 -5 22 -13 -20z m75 -100 c0 -16 -6 -25 -15 -25 -8 0 -15 2 -15 4 0 2 -3 11
-6 19 -3 10 2 17 13 20 10 3 19 5 21 6 1 0 2 -10 2 -24z"/>
<path d="M160 675 c0 -10 10 -15 30 -15 20 0 30 5 30 15 0 10 -10 15 -30 15
-20 0 -30 -5 -30 -15z"/>
<path d="M953 663 c9 -2 25 -2 35 0 9 3 1 5 -18 5 -19 0 -27 -2 -17 -5z"/>
<path d="M270 580 c20 -13 167 -13 175 0 4 6 -29 10 -92 10 -67 0 -93 -3 -83
-10z"/>
<path d="M560 568 c0 -5 64 -7 143 -6 152 1 138 6 -36 10 -59 2 -107 0 -107
-4z"/>
<path d="M860 575 c-1 -5 -2 -13 -1 -17 1 -10 6 -9 -151 -8 -83 1 -128 -3
-128 -10 0 -6 49 -10 140 -10 114 0 142 3 146 15 3 8 4 20 1 27 -3 7 -6 9 -7
3z"/>
<path d="M575 490 c4 -6 58 -10 130 -10 106 0 124 -2 119 -15 -10 -25 10 -16
23 10 l11 25 -145 0 c-93 0 -142 -4 -138 -10z"/>
<path d="M550 459 c0 -6 -7 -9 -15 -6 -8 4 -17 2 -20 -3 -4 -6 7 -10 24 -10
23 0 29 4 25 15 -7 18 -14 20 -14 4z"/>
<path d="M780 455 c0 -8 7 -15 15 -15 8 0 15 7 15 15 0 8 -7 15 -15 15 -8 0
-15 -7 -15 -15z"/>
<path d="M878 443 c-23 -3 -38 -9 -38 -18 0 -7 -5 -15 -11 -17 -5 -2 -11 -19
-12 -38 -2 -34 -4 -35 -37 -33 -19 1 -27 0 -17 -3 9 -3 17 -10 17 -15 0 -16
67 -10 74 6 3 8 1 15 -4 15 -6 0 -10 16 -10 35 0 33 2 35 34 35 25 0 35 5 39
20 3 11 4 19 4 18 -1 -1 -19 -3 -39 -5z"/>
<path d="M870 370 c0 -5 11 -9 25 -8 14 1 25 6 25 10 0 4 -11 8 -25 8 -14 0
-25 -4 -25 -10z"/>
<path d="M758 353 c7 -3 16 -2 19 1 4 3 -2 6 -13 5 -11 0 -14 -3 -6 -6z"/>
<path d="M727 236 c-3 -8 1 -17 9 -20 9 -4 14 1 14 14 0 23 -15 27 -23 6z"/>
<path d="M520 200 c-10 -7 21 -10 98 -10 68 0 112 4 112 10 0 13 -190 13 -210
0z"/>
<path d="M810 200 c0 -5 -13 -10 -30 -10 -26 0 -30 -4 -30 -26 0 -14 6 -32 14
-40 17 -16 52 -19 61 -4 4 6 -5 10 -19 10 -16 0 -26 6 -26 15 0 18 27 20 32 4
2 -7 4 4 4 25 0 20 -1 36 -3 36 -2 0 -3 -4 -3 -10z"/>
<path d="M182 183 c48 -2 129 -2 180 0 51 1 12 3 -87 3 -99 0 -141 -2 -93 -3z"/>
</g>
</svg>
