<?xml version="1.0" standalone="no"?>
<!DOCTYPE svg PUBLIC "-//W3C//DTD SVG 20010904//EN"
 "http://www.w3.org/TR/2001/REC-SVG-20010904/DTD/svg10.dtd">
<svg version="1.0" xmlns="http://www.w3.org/2000/svg"
 width="125.000000pt" height="125.000000pt" viewBox="0 0 125.000000 125.000000"
 preserveAspectRatio="xMidYMid meet">
<metadata>
Created by potrace 1.16, written by Peter Selinger 2001-2019
</metadata>
<g transform="translate(0.000000,125.000000) scale(0.100000,-0.100000)"
fill="#000000" stroke="none">
<path d="M26 1170 c-1 -3 1 -50 4 -105 l6 -100 4 100 4 100 6 -95 6 -95 4 95
4 95 6 -90 6 -90 2 88 c2 66 5 88 15 85 7 -3 14 -33 17 -84 6 -91 18 -81 23
21 l3 70 2 -84 c2 -102 20 -99 24 4 2 56 6 70 20 73 15 3 18 -8 21 -75 l3 -78
2 78 c3 101 21 101 24 0 l2 -78 5 76 c5 62 9 76 22 74 9 -2 23 1 30 6 17 10
17 10 -144 13 -65 1 -120 -1 -121 -4z"/>
<path d="M310 1126 c0 -34 5 -56 13 -59 7 -2 13 -16 14 -29 2 -24 -1 -26 -55
-32 -71 -8 -254 -47 -265 -56 -4 -4 -8 -184 -8 -401 0 -373 1 -395 19 -406 17
-12 160 -45 252 -58 25 -4 48 -11 51 -17 4 -7 9 -7 13 0 4 7 17 7 35 2 35 -10
463 -10 507 0 22 5 35 4 38 -4 3 -8 7 -8 13 0 4 7 70 23 147 37 76 14 143 30
148 35 12 12 12 802 0 814 -13 13 -240 57 -328 65 l-71 6 15 31 16 31 7 -25
c6 -22 7 -23 8 -4 1 12 8 24 16 28 8 3 15 12 15 21 0 8 7 15 15 15 10 0 15 10
15 29 l0 29 -315 1 -315 0 0 -53z m425 28 c13 -5 14 -8 3 -15 -18 -12 -48 -11
-48 1 0 5 7 6 17 3 11 -4 14 -3 9 5 -8 14 -5 15 19 6z m45 -4 c0 -5 -2 -10 -4
-10 -3 0 -8 5 -11 10 -3 6 -1 10 4 10 6 0 11 -4 11 -10z m41 -3 c-1 -4 -1 -13
-1 -21 0 -7 -13 -19 -29 -25 l-28 -12 18 -37 c11 -20 19 -45 19 -55 0 -14 3
-17 13 -9 19 15 366 -35 390 -57 4 -4 7 -178 8 -386 l0 -379 -61 -12 c-207
-43 -275 -49 -525 -48 -224 0 -265 3 -395 26 -80 15 -157 31 -172 37 l-28 11
0 374 0 374 73 16 c127 29 253 45 323 40 88 -7 123 -25 41 -22 -53 2 -61 -1
-90 -30 -17 -18 -26 -32 -20 -32 7 0 15 5 18 10 3 6 17 10 30 10 18 0 23 -4
18 -16 -5 -14 -3 -15 16 -4 33 17 36 6 7 -23 -30 -30 -36 -60 -8 -34 32 29 93
19 85 -13 -4 -16 -1 -18 21 -14 15 2 35 0 46 -6 11 -6 21 -6 24 -1 3 5 -6 12
-21 16 -24 6 -26 8 -10 16 9 6 21 8 26 4 5 -3 11 5 13 17 2 13 13 27 26 33 27
12 28 21 2 21 -11 0 -20 -4 -20 -9 0 -4 -5 -5 -12 -1 -6 4 -8 3 -5 -4 9 -14
-3 -43 -14 -36 -5 3 -9 0 -9 -6 0 -6 -4 -9 -9 -5 -5 3 -16 -4 -24 -15 -14 -21
-15 -21 -21 5 -4 14 -11 23 -17 20 -18 -11 -4 47 15 60 13 10 14 14 4 18 -7 2
6 10 30 17 34 11 41 17 36 32 -5 16 -2 18 19 13 17 -5 26 -2 30 9 5 13 -1 16
-26 16 -32 0 -32 0 -29 45 3 37 7 45 21 41 35 -10 97 -9 119 3 12 7 32 9 42 6
16 -5 20 -2 20 15 0 12 5 20 11 18 6 -2 10 -7 10 -11z m-451 -42 c0 -25 -4
-45 -10 -45 -5 0 -10 7 -10 15 0 8 -4 15 -10 15 -5 0 -10 14 -10 30 0 23 4 30
20 30 17 0 20 -7 20 -45z m38 22 c-4 -21 -1 -23 54 -22 49 0 61 -4 84 -26 30
-31 43 -89 19 -89 -8 0 -15 -5 -15 -10 0 -6 -13 -4 -30 5 -16 8 -47 15 -70 15
-25 0 -39 4 -35 10 9 15 66 12 95 -5 33 -19 37 -19 51 6 7 15 8 19 0 15 -6 -4
-9 -1 -5 7 3 9 -7 23 -24 36 -26 18 -39 20 -91 15 l-61 -7 0 37 c0 26 4 36 16
36 12 0 15 -7 12 -23z m262 13 c0 -6 -18 -7 -45 -3 l-45 6 -1 -34 c0 -19 -3
-28 -6 -21 -8 20 -57 41 -102 44 -23 1 -45 6 -47 10 -3 4 51 8 120 8 76 0 126
-4 126 -10z m228 3 c-10 -2 -28 -2 -40 0 -13 2 -5 4 17 4 22 1 32 -1 23 -4z
m-8 -28 c-14 -16 -46 -20 -54 -6 -9 13 5 21 37 21 25 0 28 -2 17 -15z m-42
-32 c2 -8 -6 -13 -22 -13 -17 0 -26 5 -26 16 0 19 41 16 48 -3z m-348 -38 c17
-9 30 -11 30 -5 0 5 -5 10 -12 10 -6 0 -8 3 -5 6 4 4 14 1 22 -6 13 -11 13
-15 3 -21 -10 -7 -10 -9 0 -9 6 0 12 -4 12 -10 0 -5 -15 -1 -32 10 -36 22
-120 28 -115 9 1 -6 -8 -13 -20 -15 -27 -5 -29 3 -6 28 20 22 82 24 123 3z m0
-115 c-19 -12 -50 -13 -50 -1 0 9 50 20 60 13 2 -2 -2 -7 -10 -12z"/>
<path d="M640 1069 c0 -22 35 -26 43 -5 4 9 -3 16 -19 19 -18 3 -24 0 -24 -14z"/>
<path d="M704 1032 c4 -3 14 -7 22 -8 9 -1 13 0 10 4 -4 3 -14 7 -22 8 -9 1
-13 0 -10 -4z"/>
<path d="M670 980 c-9 -6 -10 -10 -3 -10 6 0 15 5 18 10 8 12 4 12 -15 0z"/>
<path d="M694 965 c-10 -26 1 -35 13 -10 6 14 7 25 2 25 -5 0 -12 -7 -15 -15z"/>
<path d="M718 953 c-8 -10 -8 -17 -1 -24 8 -8 13 -7 18 2 5 8 4 10 -3 5 -7 -4
-12 -2 -12 3 0 6 6 11 14 11 8 0 17 4 20 8 9 14 -24 10 -36 -5z"/>
<path d="M789 957 c-9 -6 -14 -19 -11 -27 3 -8 1 -12 -3 -8 -5 5 -16 -10 -26
-32 -18 -39 -30 -48 -103 -74 -34 -12 -11 -15 32 -4 48 12 122 86 122 121 0
18 4 19 73 13 65 -7 179 -25 265 -42 19 -4 32 -2 32 3 0 6 -17 13 -37 16 -21
3 -78 12 -128 20 -145 25 -198 28 -216 14z"/>
<path d="M221 938 c-62 -10 -124 -23 -137 -28 l-24 -10 0 -349 c0 -267 3 -351
12 -358 28 -22 266 -58 453 -69 183 -10 579 31 646 67 18 9 19 27 17 367 l-3
357 -5 -355 -5 -355 -68 -17 c-218 -54 -633 -63 -882 -19 -66 12 -127 23 -135
26 -13 4 -14 49 -10 352 l5 347 28 7 c16 4 77 15 135 25 59 9 111 21 117 25
13 13 -13 10 -144 -13z"/>
<path d="M607 939 c7 -7 15 -10 18 -7 3 3 -2 9 -12 12 -14 6 -15 5 -6 -5z"/>
<path d="M566 911 c-3 -5 1 -12 10 -15 22 -8 25 -4 9 11 -8 7 -16 9 -19 4z"/>
<path d="M688 915 c-4 -4 -4 -14 -1 -23 5 -11 3 -13 -8 -7 -11 6 -12 5 -2 -5
16 -17 26 -8 21 20 -2 12 -6 19 -10 15z"/>
<path d="M1140 562 l0 -329 -52 -11 c-141 -32 -421 -56 -548 -47 -121 7 -241
22 -353 42 -78 14 -111 13 -95 -2 11 -11 254 -46 389 -56 168 -12 358 -1 544
31 64 11 121 20 126 20 5 0 9 145 9 340 0 220 -4 340 -10 340 -6 0 -10 -116
-10 -328z"/>
<path d="M600 781 c0 -5 -13 -8 -30 -7 -16 1 -30 -1 -30 -5 0 -4 -24 -5 -52
-3 -70 7 -96 7 -138 -1 -99 -19 -41 -24 268 -25 199 0 331 4 328 9 -7 11 -80
25 -120 22 -15 -1 -36 4 -45 11 -14 12 -14 11 -2 -4 13 -17 9 -18 -49 -13 -35
2 -67 10 -71 16 -6 10 -11 10 -23 0 -11 -9 -16 -10 -16 -2 0 6 -4 11 -10 11
-5 0 -10 -4 -10 -9z"/>
<path d="M148 743 c6 -2 18 -2 25 0 6 3 1 5 -13 5 -14 0 -19 -2 -12 -5z"/>
<path d="M100 706 c0 -14 4 -27 8 -30 5 -3 6 8 4 25 -5 35 -12 38 -12 5z"/>
<path d="M130 708 c0 -5 5 -8 10 -8 14 0 13 -133 -2 -148 -9 -9 -3 -12 31 -12
25 0 40 -4 36 -10 -3 -5 -2 -10 4 -10 22 0 19 18 -4 28 -19 9 -25 19 -25 42 0
21 5 30 16 30 18 0 46 -25 37 -34 -4 -3 -1 -6 6 -6 8 0 11 6 7 16 -3 9 -6 27
-6 42 0 20 -3 23 -12 14 -7 -7 -20 -12 -31 -12 -30 0 -19 54 12 58 15 2 28 -3
33 -12 12 -22 23 -20 25 3 1 17 -7 20 -68 23 -38 2 -69 0 -69 -4z"/>
<path d="M322 710 c-51 -21 -63 -124 -18 -155 33 -24 93 -19 121 10 32 31 35
103 6 129 -23 21 -78 29 -109 16z m78 -29 c11 -22 13 -64 4 -98 -8 -27 -36
-38 -64 -23 -16 9 -20 21 -20 63 0 29 5 58 12 65 18 18 56 14 68 -7z"/>
<path d="M489 699 c-30 -30 -21 -60 26 -85 26 -13 40 -27 40 -40 0 -28 -35
-30 -56 -3 -16 22 -18 22 -25 6 -10 -27 9 -39 66 -42 42 -2 53 1 61 17 7 14 8
18 1 14 -6 -4 -12 7 -14 26 -2 26 -11 36 -43 52 -42 22 -53 48 -21 54 11 3 27
-7 40 -23 l22 -27 -1 26 c0 47 -59 62 -96 25z m101 -149 c0 -5 -5 -10 -11 -10
-5 0 -7 5 -4 10 3 6 8 10 11 10 2 0 4 -4 4 -10z"/>
<path d="M600 690 c0 -11 5 -20 11 -20 5 0 7 -4 4 -10 -3 -5 -2 -10 3 -10 6 0
13 7 16 16 4 9 2 13 -5 8 -7 -4 -10 -1 -7 7 3 8 13 14 22 14 16 0 18 -10 18
-69 0 -47 -4 -71 -13 -77 -10 -6 -3 -9 21 -9 19 0 46 -3 60 -6 25 -5 25 -5 -2
11 -26 15 -28 20 -28 85 0 60 2 70 18 70 19 0 54 -35 45 -44 -4 -3 -1 -6 6 -6
8 0 11 6 7 16 -3 9 -6 22 -6 30 0 11 -18 14 -85 14 -78 0 -85 -2 -85 -20z"/>
<path d="M788 703 c8 -3 12 -29 12 -78 0 -49 -4 -75 -12 -78 -7 -3 22 -6 65
-6 77 -1 77 -1 77 26 0 25 -1 25 -18 10 -10 -10 -31 -17 -45 -17 -24 0 -27 4
-27 35 0 28 3 33 18 28 9 -3 23 -10 30 -16 9 -7 12 -2 12 22 0 17 -4 31 -10
31 -5 0 -10 -4 -10 -10 0 -5 -9 -10 -20 -10 -16 0 -20 7 -20 30 0 24 4 30 21
30 23 0 72 -34 62 -44 -3 -3 -1 -6 6 -6 8 0 11 6 7 16 -3 9 -6 22 -6 30 0 11
-17 14 -77 13 -43 0 -72 -3 -65 -6z"/>
<path d="M948 704 c8 -4 12 -30 12 -79 0 -49 -4 -75 -12 -78 -7 -3 6 -6 30 -6
26 -1 41 -5 37 -11 -3 -5 -2 -10 4 -10 20 0 21 19 1 25 -15 5 -20 15 -20 41 0
45 11 43 39 -6 16 -30 29 -40 47 -40 l24 0 -30 42 c-28 38 -29 43 -14 59 8 9
14 28 12 41 -3 21 -8 23 -73 25 -38 1 -64 0 -57 -3z m96 -27 c9 -15 7 -21 -8
-33 -30 -21 -36 -17 -36 22 0 28 4 35 16 32 9 -2 22 -11 28 -21z"/>
<path d="M111 644 c0 -11 3 -14 6 -6 3 7 2 16 -1 19 -3 4 -6 -2 -5 -13z"/>
<path d="M248 498 c16 -16 16 -120 0 -136 -9 -9 -4 -12 26 -12 22 0 35 -4 31
-10 -3 -5 -2 -10 4 -10 20 0 21 19 1 25 -14 4 -20 15 -20 36 0 32 14 37 40 14
15 -14 16 -12 12 15 -4 26 -8 29 -28 24 -21 -5 -24 -3 -24 20 0 20 5 26 23 26
13 0 28 -5 35 -12 9 -9 12 -7 12 10 0 20 -5 22 -62 22 -48 0 -59 -3 -50 -12z"/>
<path d="M385 443 c-15 -38 -31 -74 -37 -80 -8 -10 -4 -13 14 -13 19 0 24 5
23 28 0 22 5 28 27 30 20 2 28 -2 33 -19 5 -14 2 -25 -6 -30 -9 -6 -2 -9 23
-9 l36 0 -18 38 c-10 20 -24 56 -31 80 -6 23 -18 42 -25 42 -6 0 -24 -30 -39
-67z m45 -10 c0 -7 -7 -13 -15 -13 -15 0 -21 31 -8 43 8 8 23 -12 23 -30z"/>
<path d="M518 501 c10 -6 13 -28 10 -80 -3 -67 -2 -71 19 -71 12 0 25 -4 28
-10 8 -14 25 -13 25 2 0 6 -3 8 -7 5 -9 -10 -32 25 -33 51 0 32 18 27 41 -13
15 -25 28 -35 46 -35 l24 0 -30 37 c-27 33 -29 39 -16 53 20 22 19 56 -1 64
-25 9 -121 7 -106 -3z m87 -36 c0 -13 -8 -21 -22 -23 -19 -3 -23 1 -23 23 0
22 4 26 23 23 14 -2 22 -10 22 -23z"/>
<path d="M688 498 c8 -10 9 -34 4 -81 -7 -58 -6 -67 8 -67 9 0 21 -5 28 -12 9
-9 12 -9 12 0 0 7 -7 15 -15 18 -11 4 -15 21 -15 57 0 58 9 54 34 -15 10 -27
21 -48 26 -48 4 0 19 26 33 58 l26 57 0 -52 c1 -32 -4 -53 -11 -56 -7 -3 4 -6
26 -6 32 -1 37 1 27 13 -7 9 -11 38 -9 73 2 45 6 57 18 55 11 -3 12 -1 4 8 -7
6 -22 10 -35 8 -19 -2 -29 -15 -44 -55 -11 -29 -22 -53 -25 -53 -3 0 -15 24
-26 53 -18 43 -26 53 -50 55 -23 3 -26 1 -16 -10z"/>
<path d="M912 498 c-7 -7 -12 -24 -12 -39 0 -22 6 -30 34 -39 35 -11 46 -25
39 -47 -7 -21 -44 -15 -50 7 -6 24 -19 26 -27 4 -9 -23 -8 -24 20 -35 34 -12
60 -4 80 26 12 18 13 28 4 44 -6 12 -17 21 -24 21 -8 0 -24 8 -36 18 -21 17
-21 19 -5 32 15 13 19 12 36 -9 11 -13 19 -19 19 -15 0 5 4 3 9 -4 7 -11 9
-10 14 3 4 9 3 14 -2 11 -5 -3 -11 3 -14 14 -4 15 -14 20 -39 20 -19 0 -39 -5
-46 -12z"/>
<path d="M223 425 c0 -27 2 -38 4 -22 2 15 2 37 0 50 -2 12 -4 0 -4 -28z"/>
<path d="M646 443 c-6 -14 -5 -15 5 -6 7 7 10 15 7 18 -3 3 -9 -2 -12 -12z"/>
<path d="M1022 363 c4 -21 33 -25 33 -3 0 8 -8 16 -18 18 -14 3 -18 -1 -15
-15z"/>
<path d="M782 344 c-7 -8 -8 -14 -3 -14 10 0 25 19 20 25 -2 1 -10 -3 -17 -11z"/>
<path d="M395 340 c-3 -5 -1 -10 4 -10 6 0 11 5 11 10 0 6 -2 10 -4 10 -3 0
-8 -4 -11 -10z"/>
<path d="M419 305 c-4 -3 -4 -17 -1 -31 3 -19 7 -22 13 -12 7 10 9 10 9 -2 0
-9 -5 -21 -12 -28 -7 -7 -8 -12 -2 -12 5 0 18 14 27 30 12 20 14 30 6 30 -6 0
-17 7 -23 16 -6 8 -14 13 -17 9z"/>
<path d="M656 294 c-3 -9 -12 -14 -20 -11 -7 3 -19 0 -25 -6 -8 -8 -11 -8 -11
1 0 7 -10 9 -30 6 -18 -4 -36 -1 -45 6 -20 16 -45 6 -45 -19 0 -28 21 -37 37
-16 10 15 13 16 13 4 0 -21 30 -20 31 0 0 12 3 11 9 -4 l9 -20 1 20 c1 11 4
14 7 7 2 -6 9 -10 14 -6 5 3 9 1 9 -4 0 -5 14 -9 30 -10 28 -1 30 2 30 34 0
37 -4 43 -14 18z m-150 -31 c-10 -10 -19 5 -10 18 6 11 8 11 12 0 2 -7 1 -15
-2 -18z m134 3 c0 -3 -4 -8 -10 -11 -5 -3 -10 -1 -10 4 0 6 5 11 10 11 6 0 10
-2 10 -4z"/>
<path d="M286 278 c-8 -32 -7 -38 4 -38 6 0 10 11 10 24 0 13 6 27 13 29 7 4
6 6 -4 6 -9 1 -19 -9 -23 -21z"/>
<path d="M692 271 c1 -23 5 -30 15 -26 8 3 24 5 34 5 13 0 18 5 14 13 -4 6 0
4 8 -5 17 -22 31 -23 23 -3 -3 8 -1 15 4 15 6 0 10 -7 10 -15 0 -8 5 -15 10
-15 6 0 10 4 10 9 0 5 3 16 6 24 4 11 -4 15 -33 15 -21 1 -52 4 -70 7 -30 7
-32 6 -31 -24z m28 4 c0 -8 -2 -15 -4 -15 -2 0 -6 7 -10 15 -3 8 -1 15 4 15 6
0 10 -7 10 -15z m17 -7 c-3 -8 -6 -5 -6 6 -1 11 2 17 5 13 3 -3 4 -12 1 -19z"/>
<path d="M321 276 c-11 -13 -11 -20 -3 -28 15 -15 24 -5 20 23 -3 21 -4 21
-17 5z"/>
<path d="M350 270 c0 -14 7 -20 21 -20 13 0 18 4 13 13 -5 8 -2 8 9 -2 15 -11
17 -11 17 2 0 15 -20 27 -46 27 -8 0 -14 -9 -14 -20z"/>
<path d="M851 263 c1 -18 3 -21 6 -10 2 9 9 15 14 11 5 -3 6 -10 3 -16 -4 -6
-1 -9 7 -6 17 6 25 48 9 48 -6 0 -8 -6 -4 -12 6 -10 4 -10 -7 0 -21 19 -29 14
-28 -15z"/>
<path d="M907 265 c-3 -17 0 -24 7 -22 6 3 10 10 8 16 -1 7 2 10 8 6 6 -3 7
-11 4 -17 -4 -6 -1 -9 7 -6 17 6 25 48 9 48 -6 0 -8 -6 -4 -12 6 -10 4 -10 -7
0 -19 18 -26 15 -32 -13z"/>
<path d="M160 270 c0 -5 23 -10 51 -10 31 0 48 4 44 10 -3 6 -26 10 -51 10
-24 0 -44 -4 -44 -10z"/>
<path d="M990 270 c0 -5 18 -10 40 -10 22 0 40 5 40 10 0 6 -18 10 -40 10 -22
0 -40 -4 -40 -10z"/>
<path d="M228 233 c6 -2 18 -2 25 0 6 3 1 5 -13 5 -14 0 -19 -2 -12 -5z"/>
<path d="M980 231 c0 -5 9 -7 20 -4 11 3 20 7 20 9 0 2 -9 4 -20 4 -11 0 -20
-4 -20 -9z"/>
<path d="M950 1105 c0 -43 4 -75 10 -75 6 0 10 32 10 75 0 43 -4 75 -10 75 -6
0 -10 -32 -10 -75z"/>
<path d="M980 1099 c0 -51 4 -78 10 -74 6 3 10 40 10 81 0 43 -4 74 -10 74 -6
0 -10 -34 -10 -81z"/>
<path d="M1012 1101 l2 -76 5 70 5 70 6 -80 6 -80 2 86 c2 70 -1 86 -13 86
-12 0 -15 -15 -13 -76z"/>
<path d="M1057 1170 c-1 -3 1 -41 4 -85 l5 -80 4 80 4 80 6 -80 6 -80 2 78 c3
100 22 103 22 3 0 -104 18 -107 23 -4 l3 83 2 -82 c2 -66 5 -83 17 -83 12 0
15 17 15 89 l0 89 -56 -2 c-31 0 -57 -3 -57 -6z m100 -127 c-2 -21 -4 -4 -4
37 0 41 2 58 4 38 2 -21 2 -55 0 -75z"/>
<path d="M1181 1093 c0 -49 3 -95 9 -103 7 -10 10 11 10 71 0 73 3 88 18 94
16 7 15 8 -3 15 -11 5 -23 9 -26 9 -4 1 -7 -38 -8 -86z"/>
<path d="M1244 1075 c0 -60 1 -84 3 -52 2 32 2 81 0 110 -2 29 -3 3 -3 -58z"/>
<path d="M253 1085 c0 -33 2 -45 4 -27 2 18 2 45 0 60 -2 15 -4 0 -4 -33z"/>
<path d="M920 1071 c0 -23 5 -41 10 -41 6 0 10 15 10 34 0 19 -4 38 -10 41 -6
4 -10 -10 -10 -34z"/>
<path d="M892 1050 c0 -14 2 -19 5 -12 2 6 2 18 0 25 -3 6 -5 1 -5 -13z"/>
<path d="M290 1046 c0 -9 5 -16 10 -16 6 0 10 4 10 9 0 6 -4 13 -10 16 -5 3
-10 -1 -10 -9z"/>
<path d="M20 90 l0 -30 117 0 c108 0 147 9 71 16 -18 2 -50 5 -70 7 -24 3 -38
0 -38 -7 0 -6 -7 -2 -15 8 -15 20 -15 20 -30 0 -14 -18 -14 -18 -15 9 0 15 -4
27 -10 27 -5 0 -10 -13 -10 -30z"/>
<path d="M1210 93 c0 -15 -2 -16 -10 -3 -8 12 -10 12 -10 -5 -1 -20 -1 -20
-15 -1 -11 14 -15 16 -15 5 0 -12 -2 -12 -10 1 -8 12 -10 12 -11 -5 0 -11 -3
-14 -6 -7 -2 6 -9 9 -14 6 -6 -3 -35 -8 -66 -10 -99 -6 -69 -14 55 -14 l122 0
0 25 c0 14 -4 25 -10 25 -5 0 -10 -8 -10 -17z"/>
</g>
</svg>
