<?xml version="1.0" standalone="no"?>
<!DOCTYPE svg PUBLIC "-//W3C//DTD SVG 20010904//EN"
 "http://www.w3.org/TR/2001/REC-SVG-20010904/DTD/svg10.dtd">
<svg version="1.0" xmlns="http://www.w3.org/2000/svg"
 width="192.000000pt" height="192.000000pt" viewBox="0 0 192.000000 192.000000"
 preserveAspectRatio="xMidYMid meet">
<metadata>
Created by potrace 1.16, written by Peter Selinger 2001-2019
</metadata>
<g transform="translate(0.000000,192.000000) scale(0.100000,-0.100000)"
fill="#000000" stroke="none">
<path d="M298 1627 c-241 -161 -258 -174 -258 -202 0 -28 16 -41 258 -203
l257 -172 113 -283 c62 -155 116 -287 120 -293 16 -26 518 -354 541 -354 14 0
128 70 282 173 l258 172 1 378 0 377 -28 0 c-20 0 -96 -46 -253 -151 -123 -83
-229 -153 -234 -155 -6 -3 -26 35 -44 83 -19 49 -40 102 -47 118 -7 17 -22 55
-34 85 -11 30 -25 64 -30 75 -5 11 -19 45 -30 75 -12 30 -26 67 -32 81 -16 37
-513 369 -553 369 -22 0 -97 -45 -287 -173z m553 -19 c171 -115 259 -180 267
-197 6 -14 20 -51 32 -81 11 -30 25 -64 30 -75 5 -11 19 -45 30 -75 11 -30 25
-64 30 -75 5 -11 28 -67 50 -125 22 -57 43 -106 45 -108 2 -3 113 68 245 157
132 89 247 164 255 167 13 5 15 -40 15 -352 l-1 -359 -260 -174 -260 -173
-251 168 c-138 93 -256 174 -263 180 -7 7 -63 141 -126 298 l-114 286 -257
172 c-142 95 -258 178 -258 183 0 11 509 355 525 355 5 0 125 -77 266 -172z"/>
<path d="M228 1514 c-128 -86 -128 -90 0 -177 144 -98 184 -91 122 22 -17 30
-30 60 -30 66 0 6 13 36 30 66 62 112 22 120 -122 23z m92 -17 c-22 -37 -40
-69 -40 -72 0 -3 18 -35 40 -71 22 -36 40 -68 40 -70 0 -4 -184 120 -203 136
-4 4 22 26 58 50 36 24 82 56 102 72 20 15 38 27 40 25 2 -2 -15 -34 -37 -70z"/>
<path d="M845 1255 c-132 -89 -242 -170 -243 -180 -3 -11 25 3 87 44 50 34 92
61 95 61 3 0 6 -139 8 -310 2 -237 6 -312 16 -322 11 -11 12 46 10 315 -2 180
-1 326 2 325 3 -2 114 -76 248 -166 133 -89 242 -158 242 -153 0 16 -64 63
-275 202 -112 74 -204 136 -204 139 0 3 58 45 129 93 72 48 130 94 130 102 0
8 -1 15 -2 14 -2 0 -111 -74 -243 -164z"/>
<path d="M835 1117 c-3 -12 -5 -62 -3 -112 3 -84 5 -90 25 -93 12 -2 48 15 87
40 86 56 87 73 6 128 -32 22 -71 45 -84 50 -22 8 -27 6 -31 -13z m148 -84 c16
-8 8 -16 -52 -56 -39 -26 -73 -47 -76 -47 -3 0 -5 43 -5 95 l0 96 58 -39 c31
-21 65 -43 75 -49z"/>
<path d="M1723 1092 c-97 -63 -97 -81 -8 -139 36 -24 76 -43 90 -43 l25 0 0
115 c0 138 0 138 -107 67z m84 -158 c-2 -2 -35 17 -74 43 l-71 46 72 47 71 46
3 -89 c1 -49 1 -91 -1 -93z"/>
<path d="M1330 510 c0 -220 4 -340 10 -340 6 0 10 14 10 30 0 32 9 37 28 18 6
-6 15 -8 19 -4 5 4 -5 18 -20 30 l-28 23 1 291 c0 194 -3 292 -10 292 -7 0
-10 -114 -10 -340z"/>
<path d="M1060 630 c-26 -26 -26 -81 -2 -103 23 -21 86 -22 106 -1 25 24 21
90 -6 108 -31 22 -74 20 -98 -4z m90 -25 c18 -22 4 -64 -25 -71 -40 -10 -69
23 -54 64 10 26 59 31 79 7z"/>
<path d="M1502 634 c-16 -11 -22 -25 -22 -54 0 -49 21 -70 70 -70 48 0 70 21
70 66 0 63 -65 95 -118 58z m88 -35 c9 -16 8 -26 -5 -45 -19 -29 -46 -31 -70
-4 -15 17 -16 24 -7 45 15 32 66 35 82 4z"/>
<path d="M1275 240 c-10 -11 -15 -23 -12 -27 8 -7 47 25 47 39 0 14 -16 9 -35
-12z"/>
</g>
</svg>
