<?xml version="1.0" standalone="no"?>
<!DOCTYPE svg PUBLIC "-//W3C//DTD SVG 20010904//EN"
 "http://www.w3.org/TR/2001/REC-SVG-20010904/DTD/svg10.dtd">
<svg version="1.0" xmlns="http://www.w3.org/2000/svg"
 width="152.000000pt" height="152.000000pt" viewBox="0 0 152.000000 152.000000"
 preserveAspectRatio="xMidYMid meet">
<metadata>
Created by potrace 1.16, written by Peter Selinger 2001-2019
</metadata>
<g transform="translate(0.000000,152.000000) scale(0.100000,-0.100000)"
fill="#000000" stroke="none">
<path d="M395 1486 c-35 -20 -98 -63 -155 -105 -30 -22 -64 -45 -75 -50 -12
-5 -27 -16 -34 -25 -7 -9 -17 -16 -22 -16 -18 0 -109 -73 -109 -87 0 -17 19
-7 88 44 18 14 36 23 39 19 3 -3 13 4 22 15 9 11 26 25 38 32 12 7 41 26 65
43 23 16 67 47 96 67 29 21 57 35 61 32 5 -3 11 2 15 10 6 17 36 21 36 5 0 -5
5 -10 11 -10 18 0 59 -37 51 -45 -4 -5 -2 -5 5 -1 7 4 42 -15 81 -42 37 -27
78 -55 90 -61 13 -7 20 -16 17 -22 -4 -5 -3 -9 2 -8 19 5 98 -43 88 -53 -3 -3
1 -5 8 -5 22 0 67 -35 81 -62 7 -14 44 -102 80 -196 37 -93 75 -188 84 -210 9
-21 17 -44 17 -50 1 -15 27 -7 51 16 11 10 25 19 31 19 6 0 17 7 24 16 13 16
58 39 71 36 5 -1 7 2 5 7 -2 9 107 91 120 91 4 0 15 7 25 17 10 9 26 21 36 27
63 38 82 52 82 59 0 16 -40 6 -68 -18 -17 -14 -34 -25 -39 -25 -6 0 -18 -9
-28 -20 -10 -11 -22 -20 -26 -20 -4 0 -38 -21 -74 -47 -37 -27 -75 -53 -86
-59 -10 -6 -27 -17 -36 -25 -19 -14 -60 -39 -66 -39 -5 0 -22 41 -103 245 -36
94 -72 182 -80 196 -10 21 -72 69 -146 114 -15 9 -107 73 -220 152 -26 18 -52
33 -58 33 -5 0 -10 5 -10 10 0 14 -60 11 -85 -4z"/>
<path d="M195 1280 c-22 -16 -64 -43 -92 -60 -43 -26 -53 -37 -53 -59 0 -23
13 -35 87 -84 128 -85 164 -74 106 33 l-28 49 28 50 c31 55 34 86 11 95 -19 7
-12 10 -59 -24z m43 -22 c-8 -13 -24 -40 -37 -60 l-23 -38 36 -59 c20 -32 36
-61 36 -64 0 -4 -34 19 -77 49 -42 30 -83 59 -92 64 -14 9 -14 11 -1 19 8 5
47 32 85 60 78 55 94 62 73 29z"/>
<path d="M660 1009 c-113 -77 -206 -144 -208 -149 -7 -20 19 -9 81 35 36 25
70 45 77 45 8 0 11 -65 10 -252 -2 -161 2 -262 9 -278 7 -18 10 51 8 263 -1
158 -1 287 0 287 1 0 42 -28 90 -61 183 -128 325 -220 331 -215 9 10 -12 26
-211 161 -103 69 -185 130 -182 135 3 4 52 40 110 80 92 62 123 91 98 90 -5
-1 -100 -64 -213 -141z"/>
<path d="M0 1117 c0 -15 41 -57 57 -57 5 0 18 -9 28 -20 10 -11 22 -20 27 -20
8 0 66 -37 78 -50 8 -9 179 -124 200 -135 12 -6 54 -99 119 -265 90 -228 104
-257 133 -275 44 -27 60 -38 194 -130 64 -44 124 -84 133 -90 9 -5 31 -20 48
-32 48 -35 76 -29 170 35 47 31 93 62 103 67 10 6 26 17 35 25 9 8 25 19 35
25 66 37 160 109 160 121 0 18 -1 17 -93 -45 -38 -25 -77 -51 -88 -57 -10 -6
-27 -18 -37 -27 -10 -10 -23 -17 -29 -17 -5 0 -18 -9 -28 -20 -10 -12 -25 -18
-32 -15 -8 2 -11 0 -8 -5 6 -9 -8 -14 -28 -11 -5 1 -6 -3 -3 -8 6 -10 -41 -44
-61 -44 -7 0 -14 -6 -17 -14 -8 -19 -23 -16 -59 10 -17 12 -39 27 -48 32 -9 6
-69 46 -133 90 -134 92 -150 103 -194 130 -29 18 -43 47 -133 275 -65 167
-107 259 -119 265 -18 10 -114 75 -217 148 -29 20 -57 37 -61 37 -5 0 -17 9
-27 20 -10 11 -24 20 -30 20 -7 0 -18 7 -25 16 -21 25 -50 37 -50 21z"/>
<path d="M1455 911 c-12 -5 -27 -16 -34 -25 -7 -9 -19 -16 -25 -16 -20 -1 -56
-38 -56 -59 0 -26 108 -101 145 -101 l26 0 -3 102 c-3 109 -8 117 -53 99z m32
-178 c-3 -2 -32 15 -65 38 l-62 42 63 42 62 42 3 -80 c2 -44 1 -81 -1 -84z"/>
<path d="M657 903 c-4 -3 -7 -46 -7 -95 0 -73 3 -90 16 -95 19 -7 68 17 115
56 42 36 34 56 -39 104 -59 37 -73 42 -85 30z m111 -72 c12 -6 22 -15 22 -19
-1 -5 -91 -66 -120 -80 -4 -1 -4 128 0 166 0 2 17 -10 38 -26 20 -16 47 -34
60 -41z"/>
<path d="M1000 815 c0 -5 5 -17 10 -25 5 -8 10 -10 10 -5 0 6 -5 17 -10 25 -5
8 -10 11 -10 5z"/>
<path d="M1290 800 c-9 -6 -10 -10 -3 -10 6 0 15 5 18 10 8 12 4 12 -15 0z"/>
<path d="M1080 425 c0 -157 4 -245 10 -245 6 0 10 88 10 245 0 157 -4 245 -10
245 -6 0 -10 -88 -10 -245z"/>
<path d="M841 476 c-7 -8 -11 -32 -9 -53 2 -30 9 -41 31 -51 58 -28 119 38 83
92 -13 21 -25 26 -55 26 -21 0 -44 -6 -50 -14z m79 -21 c26 -32 -13 -81 -47
-59 -23 14 -28 41 -13 59 16 19 44 19 60 0z"/>
<path d="M1211 476 c-7 -8 -11 -32 -9 -53 2 -30 9 -41 31 -51 59 -28 113 23
91 86 -8 23 -15 27 -55 30 -31 2 -50 -2 -58 -12z m77 -15 c8 -5 12 -21 10 -37
-2 -23 -9 -30 -30 -32 -19 -2 -30 3 -38 17 -21 40 20 77 58 52z"/>
<path d="M885 200 c3 -5 8 -10 11 -10 2 0 4 5 4 10 0 6 -5 10 -11 10 -5 0 -7
-4 -4 -10z"/>
<path d="M1055 153 c-19 -5 -45 -30 -45 -44 0 -4 9 -9 19 -12 15 -3 21 1 23
16 2 11 9 22 17 25 10 3 12 -4 9 -32 -2 -20 -2 -35 1 -33 4 2 21 9 39 16 39
16 40 23 6 50 -27 21 -33 22 -69 14z"/>
</g>
</svg>
