<?xml version="1.0" standalone="no"?>
<!DOCTYPE svg PUBLIC "-//W3C//DTD SVG 20010904//EN"
 "http://www.w3.org/TR/2001/REC-SVG-20010904/DTD/svg10.dtd">
<svg version="1.0" xmlns="http://www.w3.org/2000/svg"
 width="192.000000pt" height="192.000000pt" viewBox="0 0 192.000000 192.000000"
 preserveAspectRatio="xMidYMid meet">
<metadata>
Created by potrace 1.16, written by Peter Selinger 2001-2019
</metadata>
<g transform="translate(0.000000,192.000000) scale(0.100000,-0.100000)"
fill="#000000" stroke="none">
<path d="M567 1913 c-21 -2 -41 -11 -44 -19 -3 -8 -18 -14 -34 -14 -19 0 -29
-5 -29 -15 0 -9 -9 -15 -25 -15 -16 0 -25 -6 -25 -15 0 -8 -7 -15 -15 -15 -8
0 -15 -7 -15 -15 0 -10 -10 -15 -26 -15 -16 0 -36 -11 -50 -25 -13 -14 -28
-25 -34 -25 -5 0 -10 -7 -10 -15 0 -8 -4 -15 -10 -15 -5 0 -10 -7 -10 -15 0
-8 -5 -15 -11 -15 -22 0 -99 -88 -99 -114 0 -14 -5 -26 -10 -26 -17 0 -50 -39
-50 -60 0 -11 -7 -20 -15 -20 -10 0 -15 -10 -15 -26 0 -15 -7 -32 -16 -38 -11
-9 -16 -32 -17 -96 -2 -100 21 -260 37 -260 12 0 9 -131 -3 -140 -13 -9 -35
-193 -34 -280 1 -64 6 -87 17 -96 9 -6 16 -23 16 -38 0 -16 5 -26 15 -26 8 0
15 -9 15 -20 0 -21 33 -60 50 -60 6 0 10 -12 10 -26 0 -26 77 -114 99 -114 6
0 11 -7 11 -15 0 -8 5 -15 10 -15 6 0 10 -7 10 -15 0 -8 5 -15 10 -15 6 0 21
-11 34 -25 14 -14 34 -25 50 -25 14 0 26 -5 26 -10 0 -17 39 -50 60 -50 11 0
20 -7 20 -15 0 -10 10 -15 26 -15 15 0 32 -7 38 -15 8 -10 36 -16 91 -18 44
-3 63 -3 43 0 -21 2 -38 8 -38 14 0 5 -16 9 -35 9 -22 0 -38 6 -41 15 -4 9
-19 15 -35 15 -19 0 -29 5 -29 15 0 8 -9 15 -20 15 -21 0 -60 33 -60 50 0 6
-12 10 -26 10 -16 0 -36 11 -50 25 -13 14 -28 25 -34 25 -5 0 -10 7 -10 15 0
8 -4 15 -10 15 -5 0 -10 7 -10 15 0 8 -5 15 -11 15 -22 0 -99 88 -99 114 0 14
-4 26 -10 26 -17 0 -50 39 -50 60 0 11 -7 20 -15 20 -10 0 -15 10 -15 29 0 16
-6 31 -15 35 -26 9 -18 59 11 73 l25 12 -6 -47 -6 -47 20 23 c26 30 31 28 20
-10 -14 -51 -12 -60 13 -53 22 8 22 8 1 -43 -3 -7 3 -12 16 -12 13 0 21 -6 21
-16 0 -10 5 -14 15 -10 13 5 15 0 9 -29 -4 -23 -2 -35 5 -35 6 0 11 6 11 14 0
8 5 18 11 21 7 5 8 -5 3 -31 -6 -32 -5 -36 10 -31 10 4 16 1 16 -8 0 -8 7 -15
15 -15 8 0 15 -7 15 -15 0 -8 7 -15 15 -15 8 0 15 -7 15 -15 0 -8 7 -15 16
-15 11 0 14 -5 10 -16 -5 -14 -1 -15 30 -9 24 4 34 3 29 -4 -3 -6 -13 -11 -21
-11 -8 0 -14 -5 -14 -10 0 -7 13 -8 35 -4 31 5 34 4 28 -11 -5 -16 -2 -17 25
-12 34 7 43 -6 15 -22 -27 -15 -11 -21 31 -11 37 8 37 8 19 -12 -18 -20 -17
-20 30 -13 32 5 47 4 47 -4 0 -6 -7 -11 -15 -11 -8 0 -15 -4 -15 -10 0 -6 18
-7 45 -3 29 3 45 2 45 -5 0 -6 -6 -12 -12 -15 -7 -2 -10 -8 -6 -12 3 -4 32 -1
62 6 60 13 83 6 52 -17 -11 -7 -18 -15 -15 -17 2 -2 42 0 89 5 85 9 340 4 376
-8 14 -4 13 -1 -6 14 -22 19 -23 21 -7 28 10 3 36 2 59 -4 48 -12 64 -7 46 15
-12 15 -7 15 42 9 l55 -6 -25 21 -25 21 50 -6 c43 -5 48 -4 33 8 -27 20 -21
28 16 20 32 -5 34 -4 29 15 -5 19 -2 20 26 15 27 -6 30 -4 25 11 -6 16 -3 17
29 11 24 -4 37 -3 37 4 0 5 -9 10 -20 10 -11 0 -20 5 -20 10 0 6 7 10 15 10 8
0 15 7 15 16 0 13 7 15 30 11 17 -4 30 -2 30 3 0 6 -5 9 -11 8 -6 -2 -14 3
-16 10 -3 8 1 10 11 6 11 -4 16 -1 16 10 0 11 9 16 31 16 29 0 30 2 24 30 -5
23 -3 30 9 30 9 0 16 7 16 16 0 10 6 14 15 10 10 -4 15 1 15 14 0 14 5 18 17
13 14 -5 15 -1 10 26 -6 30 -5 33 14 28 19 -5 20 -3 15 31 -6 33 -5 35 7 20
22 -28 28 -21 21 22 -4 27 -3 40 5 40 6 0 11 -7 11 -15 0 -8 4 -15 10 -15 5 0
7 21 3 52 -5 37 -3 49 5 44 7 -4 12 -15 12 -24 0 -10 3 -13 10 -6 6 6 6 31 -1
72 -14 76 1 98 24 37 10 -26 13 6 6 60 -10 83 -10 266 1 350 8 61 4 99 -7 70
-23 -62 -38 -39 -24 36 14 67 9 83 -15 53 -14 -18 -15 -16 -10 29 6 48 0 57
-23 35 -11 -11 -12 -5 -6 32 7 45 7 45 -13 27 -20 -18 -20 -18 -12 19 10 42 4
58 -11 31 -16 -27 -29 -20 -22 13 4 23 2 30 -11 30 -12 0 -14 7 -10 30 4 19 2
30 -5 30 -6 0 -11 -9 -11 -20 0 -11 -4 -20 -9 -20 -6 0 -7 16 -4 37 5 31 4 35
-10 30 -11 -4 -17 -1 -17 8 0 8 -7 15 -15 15 -8 0 -15 7 -15 15 0 8 -7 15 -15
15 -8 0 -15 7 -15 15 0 8 -7 15 -15 15 -9 0 -12 6 -9 15 4 10 0 15 -15 15 -15
0 -19 4 -14 16 5 14 1 16 -30 10 -31 -6 -36 -4 -31 9 4 10 0 15 -10 15 -10 0
-16 8 -16 21 0 15 -4 19 -15 15 -8 -3 -22 -9 -31 -13 -13 -5 -15 -2 -9 17 7
21 5 22 -29 16 -37 -7 -45 0 -23 23 10 11 4 12 -35 7 l-47 -7 12 25 c14 29 64
37 73 11 4 -9 19 -15 35 -15 19 0 29 -5 29 -15 0 -9 9 -15 25 -15 16 0 25 -6
25 -15 0 -8 7 -15 15 -15 8 0 15 -7 15 -15 0 -10 10 -15 26 -15 16 0 36 -11
50 -25 13 -14 28 -25 34 -25 5 0 10 -7 10 -15 0 -8 5 -15 10 -15 6 0 10 -7 10
-15 0 -8 5 -15 11 -15 22 0 99 -88 99 -114 0 -14 5 -26 10 -26 17 0 50 -39 50
-60 0 -11 7 -20 15 -20 10 0 15 -10 15 -29 0 -16 6 -31 15 -35 9 -3 15 -19 15
-41 0 -19 4 -35 9 -35 6 0 12 -17 14 -37 3 -21 3 -2 0 42 -2 55 -8 83 -18 91
-8 6 -15 23 -15 38 0 16 -5 26 -15 26 -8 0 -15 9 -15 20 0 21 -33 60 -50 60
-5 0 -10 12 -10 26 0 26 -77 114 -99 114 -6 0 -11 7 -11 15 0 8 -4 15 -10 15
-5 0 -10 7 -10 15 0 8 -5 15 -10 15 -6 0 -21 11 -34 25 -14 14 -34 25 -50 25
-16 0 -26 5 -26 15 0 8 -7 15 -15 15 -8 0 -15 7 -15 15 0 9 -9 15 -25 15 -16
0 -25 6 -25 15 0 10 -10 15 -29 15 -16 0 -31 6 -34 14 -9 24 -123 29 -243 11
-60 -9 -116 -20 -124 -25 -9 -4 -39 -11 -66 -15 -38 -5 -55 -3 -65 8 -24 23
-245 50 -332 40z m133 -23 c0 -21 -16 -25 -57 -14 -40 11 -28 34 17 34 33 0
40 -3 40 -20z m600 6 c0 -15 -30 -26 -73 -26 -25 0 -26 2 -15 20 15 24 88 29
88 6z m-690 -15 c0 -5 3 -17 6 -25 5 -14 0 -16 -35 -10 -28 4 -41 3 -41 -5 0
-6 5 -11 10 -11 6 0 10 -5 10 -10 0 -7 -13 -8 -36 -4 -34 6 -36 5 -29 -16 6
-19 4 -22 -9 -17 -9 4 -23 10 -31 13 -11 4 -15 0 -15 -15 0 -12 -6 -21 -15
-21 -8 0 -15 -7 -15 -15 0 -11 -8 -13 -32 -8 -26 5 -30 4 -25 -10 5 -13 1 -17
-14 -17 -15 0 -19 -5 -15 -15 3 -9 0 -15 -9 -15 -8 0 -15 -7 -15 -15 0 -8 -7
-15 -15 -15 -8 0 -15 -7 -15 -16 0 -10 -6 -14 -15 -10 -10 4 -15 -1 -15 -14 0
-13 -5 -18 -15 -14 -10 4 -15 0 -15 -15 0 -15 -4 -19 -17 -14 -14 5 -15 1 -10
-25 5 -24 3 -32 -8 -32 -8 0 -15 -7 -15 -15 0 -10 -7 -15 -18 -13 -18 3 -20
-12 -7 -46 7 -16 5 -17 -15 -11 -21 7 -22 5 -16 -29 4 -23 3 -36 -4 -36 -5 0
-10 5 -10 10 0 6 -5 10 -11 10 -8 0 -9 -13 -5 -39 6 -37 5 -38 -19 -33 -20 3
-25 10 -25 33 0 17 6 32 15 35 9 4 15 19 15 35 0 19 5 29 15 29 8 0 15 9 15
20 0 21 33 60 50 60 5 0 10 12 10 26 0 26 77 114 99 114 6 0 11 7 11 15 0 8 5
15 10 15 6 0 10 7 10 15 0 8 5 15 10 15 6 0 21 11 34 25 14 14 34 25 50 25 16
0 26 5 26 15 0 8 7 15 15 15 8 0 15 7 15 15 0 9 9 15 25 15 16 0 25 6 25 15 0
10 10 15 29 15 16 0 31 6 35 15 6 16 66 21 66 6z m585 -32 c5 -5 15 -9 23 -9
7 0 34 -9 60 -21 47 -20 74 -32 102 -43 47 -20 155 -100 201 -148 20 -21 41
-38 47 -38 7 0 12 -6 12 -12 0 -7 16 -31 36 -53 19 -22 41 -51 48 -65 68 -126
86 -163 86 -180 0 -11 5 -20 10 -20 6 0 10 -24 9 -52 0 -39 -3 -48 -9 -33 -5
11 -9 32 -9 48 -1 15 -5 27 -11 27 -5 0 -10 7 -10 16 0 9 -6 30 -14 47 -8 18
-17 39 -20 47 -3 8 -12 24 -18 34 -7 11 -25 40 -41 65 -34 56 -155 182 -222
230 -77 56 -161 101 -187 101 -10 0 -18 3 -18 8 0 9 -78 31 -135 38 -52 7 -67
12 -62 21 7 11 110 4 122 -8z m-360 1 c-3 -5 -25 -10 -48 -10 -23 -1 -53 -7
-67 -15 -14 -8 -37 -14 -52 -15 -16 0 -28 -4 -28 -9 0 -5 -14 -13 -32 -16 -17
-4 -45 -16 -62 -26 -17 -10 -38 -22 -46 -26 -26 -12 -123 -88 -172 -134 -43
-41 -125 -145 -141 -179 -4 -8 -16 -28 -26 -45 -11 -16 -20 -36 -20 -43 -1 -8
-7 -28 -14 -45 -25 -59 -39 -102 -44 -132 -8 -58 -14 -76 -21 -71 -11 6 -3
109 9 121 5 5 9 18 9 29 0 17 35 100 77 181 9 17 28 47 44 67 17 21 26 43 23
52 -3 9 -1 16 5 16 7 0 45 34 86 75 41 41 78 74 82 73 5 -2 24 9 44 25 20 15
41 27 46 27 6 0 16 7 23 15 7 8 23 15 35 15 13 0 26 7 29 16 3 9 12 14 20 11
8 -3 22 2 32 11 11 9 33 19 49 20 17 2 32 8 33 13 2 5 33 9 68 9 41 0 63 -4
59 -10z m321 -55 c9 -8 33 -15 55 -15 21 0 39 -4 39 -9 0 -5 13 -12 30 -16 16
-4 32 -11 35 -16 4 -5 15 -9 26 -9 11 0 22 -7 25 -15 4 -8 15 -15 25 -15 11 0
22 -7 25 -15 4 -8 11 -15 16 -15 28 0 202 -164 213 -202 4 -10 11 -18 16 -18
5 0 9 -6 9 -14 0 -7 7 -19 15 -26 8 -7 15 -20 15 -30 0 -10 7 -20 15 -24 8 -3
15 -14 15 -25 0 -10 7 -21 15 -25 8 -3 12 -12 9 -20 -3 -8 1 -30 9 -48 8 -18
18 -53 20 -78 3 -24 11 -46 16 -48 18 -6 14 -272 -4 -296 -8 -11 -15 -39 -15
-63 0 -24 -4 -43 -10 -43 -5 0 -10 -10 -10 -22 0 -13 -7 -36 -15 -52 -8 -15
-15 -35 -15 -42 0 -8 -7 -17 -15 -20 -8 -4 -15 -15 -15 -25 0 -11 -7 -22 -15
-25 -8 -4 -15 -15 -15 -25 0 -11 -7 -22 -15 -25 -8 -4 -15 -11 -15 -16 0 -6
-18 -28 -40 -49 -22 -22 -40 -43 -40 -49 0 -5 -4 -10 -8 -10 -5 0 -25 -16 -45
-35 -20 -19 -41 -35 -47 -35 -6 0 -13 -7 -16 -15 -4 -8 -15 -15 -25 -15 -10 0
-19 -5 -19 -10 0 -6 -11 -15 -25 -20 -14 -5 -25 -14 -25 -20 0 -5 -13 -10 -29
-10 -16 0 -31 -5 -33 -11 -2 -6 -19 -13 -38 -15 -19 -2 -36 -9 -38 -14 -2 -6
-23 -10 -47 -10 -25 0 -50 -6 -59 -15 -21 -21 -261 -22 -302 0 -16 8 -45 15
-66 15 -20 0 -38 5 -40 12 -2 6 -21 12 -41 12 -22 1 -37 6 -37 14 0 6 -11 12
-25 12 -14 0 -28 7 -31 15 -4 8 -15 15 -25 15 -10 0 -19 4 -19 10 0 5 -11 12
-24 16 -14 3 -27 12 -30 20 -3 8 -10 14 -16 14 -14 0 -31 14 -106 88 -35 35
-66 72 -69 83 -4 10 -11 19 -16 19 -5 0 -9 6 -9 14 0 8 -7 16 -15 20 -8 3 -15
14 -15 25 0 10 -7 21 -15 25 -8 3 -15 17 -15 31 0 14 -4 25 -9 25 -5 0 -12 14
-16 30 -4 17 -11 30 -16 30 -5 0 -9 18 -9 39 0 22 -7 46 -15 55 -22 22 -22
380 0 402 8 9 15 30 15 47 0 18 7 41 15 51 8 11 15 30 15 43 0 13 5 23 10 23
6 0 10 9 10 20 0 11 7 23 15 26 8 4 15 14 15 24 0 10 7 20 15 24 8 3 15 12 15
21 0 9 11 26 25 39 14 13 25 26 25 30 0 10 39 46 50 46 6 0 10 7 10 15 0 8 7
15 15 15 8 0 15 7 15 15 0 8 5 15 11 15 7 0 22 11 35 25 13 14 30 25 39 25 9
0 18 7 21 15 4 8 14 15 24 15 10 0 20 7 24 15 3 8 15 15 26 15 11 0 20 5 20
10 0 6 10 10 23 10 13 0 32 7 43 15 10 8 33 15 51 15 18 0 38 7 45 15 19 21
383 22 404 0z m394 -85 c0 -5 -5 -10 -11 -10 -5 0 -7 5 -4 10 3 6 8 10 11 10
2 0 4 -4 4 -10z m-1506 -426 c3 -9 6 -27 6 -41 0 -19 -4 -24 -16 -19 -9 3 -18
6 -20 6 -2 0 -4 16 -4 35 0 37 22 49 34 19z m1816 -318 c0 -147 -3 -185 -14
-189 -8 -3 -14 -21 -14 -48 -1 -23 -6 -47 -11 -52 -6 -6 -11 -17 -11 -24 0
-20 -43 -113 -52 -113 -4 0 -8 -9 -8 -20 0 -11 -4 -20 -10 -20 -5 0 -12 -11
-16 -25 -3 -14 -10 -25 -14 -25 -5 0 -18 -15 -29 -33 -22 -37 -164 -179 -184
-186 -7 -2 -28 -16 -47 -30 -32 -25 -67 -43 -130 -69 -14 -6 -41 -17 -60 -25
-19 -9 -53 -18 -75 -22 -22 -4 -43 -11 -46 -17 -4 -7 -73 -11 -184 -11 -148 0
-179 2 -186 15 -5 8 -24 15 -46 16 -34 1 -54 9 -125 43 -10 5 -23 9 -30 9 -16
0 -119 63 -172 105 -82 64 -196 188 -196 211 0 8 -7 17 -15 20 -8 4 -15 13
-15 20 0 8 -7 17 -15 20 -8 4 -15 14 -15 24 0 10 -13 48 -30 83 -16 36 -30 72
-30 81 0 8 -4 18 -10 21 -5 3 -10 33 -10 66 0 38 4 58 10 54 6 -3 10 -26 10
-50 0 -24 4 -46 9 -50 6 -3 13 -26 17 -50 3 -25 10 -45 15 -45 5 0 9 -7 9 -15
0 -18 33 -83 78 -155 38 -59 199 -230 218 -230 6 0 19 -9 29 -19 20 -23 173
-101 197 -101 9 0 20 -4 23 -10 3 -5 18 -10 33 -10 15 -1 38 -7 52 -15 19 -11
65 -14 184 -15 175 0 213 7 351 65 171 71 268 148 382 302 29 40 53 76 53 81
0 5 6 15 13 21 8 6 22 37 32 68 11 32 23 62 27 67 4 6 8 22 8 36 0 14 7 35 15
46 11 15 14 57 15 202 0 114 4 182 10 182 6 0 10 -68 10 -184z m-1815 -312
c-9 -50 -35 -45 -35 6 0 29 4 40 15 40 8 0 16 6 16 13 1 6 3 4 6 -6 3 -11 2
-34 -2 -53z"/>
<path d="M804 1765 c-10 -8 -36 -15 -57 -15 -21 0 -45 -7 -53 -15 -9 -8 -26
-15 -40 -15 -13 0 -24 -4 -24 -10 0 -5 -9 -10 -19 -10 -11 0 -26 -7 -35 -15
-8 -8 -22 -15 -31 -15 -8 0 -18 -7 -21 -15 -4 -8 -11 -15 -18 -15 -18 -1 -141
-110 -181 -162 -71 -91 -105 -147 -105 -172 0 -9 -4 -16 -10 -16 -5 0 -10 -11
-10 -24 0 -14 -7 -31 -15 -40 -8 -8 -15 -32 -15 -54 0 -23 -6 -45 -15 -52 -12
-10 -15 -40 -15 -155 0 -115 3 -145 15 -155 8 -7 15 -29 15 -49 0 -20 7 -45
15 -55 8 -11 15 -30 15 -43 0 -13 5 -23 10 -23 6 0 10 -11 10 -25 0 -14 7 -28
15 -31 8 -4 15 -15 15 -25 0 -11 6 -22 14 -25 8 -3 17 -13 20 -22 10 -30 29
-54 103 -128 39 -40 81 -75 92 -79 12 -3 21 -11 21 -16 0 -5 7 -9 15 -9 9 0
18 -7 21 -15 4 -8 16 -15 29 -15 13 0 25 -7 29 -15 3 -8 16 -15 30 -15 14 0
28 -4 31 -10 3 -5 17 -10 30 -10 13 0 30 -7 39 -15 10 -10 35 -15 78 -15 39
-1 70 -6 82 -15 25 -19 113 -19 146 0 14 8 51 14 83 15 38 0 64 5 73 15 9 8
29 15 45 15 16 0 29 5 29 10 0 6 9 10 19 10 11 0 26 7 35 15 8 8 21 15 29 15
8 0 20 7 27 15 7 8 18 15 25 15 7 0 15 7 19 15 3 8 10 15 16 15 6 0 18 6 26
13 21 17 127 123 139 139 6 7 25 32 43 54 17 23 32 48 32 55 0 8 7 23 15 33 8
11 15 28 15 38 0 10 5 18 10 18 6 0 10 14 10 30 0 18 6 33 15 36 11 5 15 23
15 73 0 44 5 74 15 87 19 25 20 124 0 150 -9 12 -14 43 -15 87 0 47 -5 73 -15
83 -8 9 -15 26 -15 40 0 13 -4 24 -10 24 -5 0 -10 11 -10 25 0 14 -7 28 -15
31 -8 4 -15 17 -15 30 0 14 -7 27 -15 30 -8 4 -15 10 -15 16 0 34 -170 208
-230 235 -8 3 -19 12 -23 20 -4 7 -16 13 -26 13 -11 0 -21 7 -25 15 -3 8 -17
15 -31 15 -14 0 -25 5 -25 10 0 6 -10 10 -23 10 -13 0 -32 7 -43 15 -10 8 -38
15 -60 15 -28 0 -44 5 -48 15 -8 22 -273 22 -302 0z m242 -30 c16 -8 47 -15
69 -15 22 0 49 -7 59 -15 11 -8 32 -15 48 -15 23 0 122 -50 138 -70 3 -4 12
-9 20 -13 30 -14 55 -33 91 -69 20 -21 39 -38 43 -38 9 0 46 -39 46 -49 0 -5
11 -19 25 -32 13 -13 25 -32 25 -41 0 -10 4 -18 8 -18 11 0 52 -82 52 -104 0
-9 5 -16 10 -16 6 0 10 -10 10 -22 0 -22 -2 -23 -93 -20 -108 4 -117 -1 -125
-76 -3 -26 -11 -56 -18 -67 -8 -11 -15 -31 -15 -45 -1 -17 -5 -10 -13 22 -6
25 -14 50 -18 54 -5 4 -8 21 -8 38 0 18 -7 42 -16 54 -14 20 -24 22 -101 22
-97 0 -123 -13 -123 -60 0 -15 -3 -30 -7 -34 -5 -4 -13 -35 -19 -69 -8 -41
-12 -51 -13 -31 0 17 -7 37 -15 43 -7 6 -16 34 -20 61 -4 27 -11 52 -16 55 -6
3 -10 19 -10 35 0 16 -4 31 -9 34 -5 4 -12 24 -16 45 -4 22 -17 51 -30 65
l-24 26 -229 0 c-183 0 -232 -3 -241 -14 -7 -8 -12 -53 -12 -109 0 -96 0 -96
-30 -111 -16 -8 -42 -17 -59 -21 -16 -4 -32 -11 -35 -16 -4 -5 -14 -9 -24 -9
-10 0 -24 -7 -31 -15 -7 -8 -20 -15 -29 -15 -9 -1 -29 -11 -44 -24 -23 -18
-28 -30 -25 -57 3 -30 8 -36 53 -54 28 -11 52 -22 55 -25 13 -13 137 -70 153
-70 16 0 18 -10 16 -96 -2 -121 1 -124 110 -127 121 -4 121 -3 121 146 l0 122
92 0 c103 0 117 -7 118 -61 0 -17 7 -37 15 -44 8 -7 15 -27 16 -44 0 -17 10
-49 22 -71 l22 -40 94 -3 c98 -3 121 5 121 40 0 11 7 26 15 34 8 9 15 31 15
50 0 19 4 34 8 34 18 0 32 -26 32 -60 0 -35 19 -74 48 -97 16 -13 138 -18 177
-7 27 7 65 80 65 125 0 20 7 42 15 49 8 7 15 23 15 35 0 13 7 36 15 51 8 16
15 39 15 51 0 12 5 25 10 28 6 3 10 18 10 33 0 15 7 40 15 56 8 15 15 48 15
73 0 27 4 42 10 38 6 -4 10 -76 10 -183 -1 -140 -4 -181 -15 -196 -8 -11 -15
-31 -15 -45 0 -14 -7 -35 -15 -45 -8 -11 -15 -28 -15 -38 0 -10 -4 -18 -10
-18 -5 0 -10 -5 -10 -10 0 -40 -208 -280 -242 -280 -8 0 -23 -8 -34 -18 -10
-10 -41 -29 -69 -41 -27 -13 -58 -27 -67 -32 -10 -5 -28 -9 -41 -9 -13 0 -32
-7 -43 -15 -28 -21 -350 -21 -378 0 -11 8 -30 15 -42 15 -13 0 -25 4 -28 9 -3
4 -24 11 -46 15 -22 3 -40 10 -40 15 0 5 -11 12 -25 15 -14 4 -25 11 -25 16 0
6 -5 10 -11 10 -38 0 -239 200 -239 237 0 7 -4 13 -9 13 -13 0 -71 118 -71
144 0 12 -7 34 -15 50 -8 15 -15 42 -15 60 -1 17 -7 42 -15 56 -19 34 -19 149
0 186 8 16 15 48 15 72 0 23 4 42 9 42 5 0 12 19 16 42 14 78 113 235 203 321
28 26 53 47 55 47 3 0 29 16 58 36 81 54 207 104 265 104 16 0 40 7 54 14 34
19 150 20 186 1z m-68 -422 c2 -13 8 -23 13 -23 5 0 9 -11 9 -24 0 -33 10 -57
21 -50 5 3 9 0 9 -5 0 -7 -56 -11 -167 -11 l-168 0 -1 -86 -1 -86 96 3 96 4 3
-42 c2 -29 8 -43 18 -43 8 0 14 -8 14 -18 0 -16 -11 -17 -114 -14 l-113 4 5
-141 5 -141 -87 0 -86 0 0 349 0 350 223 -2 222 -2 3 -22z m52 -169 c0 -14 7
-32 15 -40 8 -9 15 -31 15 -50 0 -19 5 -34 10 -34 6 0 10 -20 10 -44 0 -25 6
-51 14 -59 8 -8 16 -31 18 -52 5 -60 28 -57 28 3 0 32 5 54 15 62 10 8 15 31
15 70 0 43 4 59 16 64 12 4 15 18 13 53 l-3 48 82 3 82 3 0 -56 c0 -40 4 -57
15 -61 10 -4 15 -21 15 -54 0 -29 6 -52 15 -60 8 -6 15 -33 17 -61 3 -56 21
-71 26 -21 2 17 7 32 13 32 5 0 9 24 9 54 0 35 5 60 15 70 8 8 15 30 15 50 0
19 8 51 18 71 l17 35 70 -2 70 -3 -3 -40 c-2 -22 -10 -44 -18 -48 -8 -5 -14
-24 -14 -47 0 -22 -4 -40 -10 -40 -5 0 -13 -18 -16 -40 -4 -22 -10 -40 -15
-40 -5 0 -9 -18 -9 -39 0 -22 -7 -46 -15 -55 -9 -8 -15 -33 -15 -59 0 -31 -5
-47 -15 -51 -9 -3 -15 -18 -15 -36 l0 -30 -85 0 -85 0 0 30 c0 17 -4 30 -9 30
-5 0 -12 23 -16 50 -4 28 -11 50 -16 50 -5 0 -9 24 -9 54 0 35 -5 60 -15 70
-8 8 -15 24 -15 36 0 13 -5 20 -12 18 -9 -3 -14 -30 -16 -76 -2 -40 -7 -72
-11 -72 -5 0 -11 -21 -14 -47 -3 -26 -10 -49 -16 -51 -6 -2 -11 -24 -11 -48
l0 -44 -85 0 -85 0 0 35 c0 22 -6 38 -15 41 -10 4 -15 20 -15 49 0 27 -5 45
-14 48 -9 4 -16 32 -21 82 -5 57 -12 81 -26 93 -12 11 -19 29 -19 53 0 24 -5
39 -15 43 -8 3 -15 17 -15 32 0 18 -6 28 -22 32 -21 5 -21 6 -2 13 10 4 52 8
92 8 71 1 72 1 72 -25z m-182 -11 c6 -15 12 -31 12 -35 0 -4 -29 -8 -65 -8
l-65 0 0 35 0 35 53 0 c47 0 53 -3 65 -27z m-348 -143 c0 -109 -2 -130 -15
-130 -8 0 -15 4 -15 10 0 5 -11 12 -24 16 -14 3 -27 12 -30 20 -3 8 -16 14
-30 14 -13 0 -26 7 -30 15 -3 8 -17 15 -31 15 -14 0 -25 4 -25 9 0 5 -12 11
-27 13 -31 4 -44 28 -15 28 11 0 25 7 32 15 7 8 25 15 41 15 19 0 29 5 29 15
0 9 10 15 26 15 14 0 32 7 40 15 9 8 24 15 35 15 10 0 19 7 19 15 0 8 5 15 10
15 6 0 10 -50 10 -130z"/>
<path d="M1911 663 c-1 -24 -5 -43 -11 -43 -5 0 -10 -16 -10 -35 0 -22 -6 -38
-15 -41 -9 -4 -15 -19 -15 -35 0 -19 -5 -29 -15 -29 -8 0 -15 -9 -15 -20 0
-21 -33 -60 -50 -60 -5 0 -10 -12 -10 -26 0 -26 -77 -114 -99 -114 -6 0 -11
-7 -11 -15 0 -8 -4 -15 -10 -15 -5 0 -10 -7 -10 -15 0 -8 -5 -15 -10 -15 -6 0
-21 -11 -34 -25 -14 -14 -34 -25 -50 -25 -14 0 -26 -4 -26 -10 0 -17 -39 -50
-60 -50 -11 0 -20 -7 -20 -15 0 -10 -10 -15 -29 -15 -16 0 -31 -6 -35 -15 -3
-9 -19 -15 -41 -15 -19 0 -35 -4 -35 -9 0 -6 -17 -12 -37 -14 -21 -3 -2 -3 42
0 55 2 83 8 91 18 6 8 23 15 38 15 16 0 26 5 26 15 0 8 9 15 20 15 21 0 60 33
60 50 0 6 12 10 26 10 16 0 36 11 50 25 13 14 28 25 34 25 5 0 10 7 10 15 0 8
5 15 10 15 6 0 10 7 10 15 0 8 5 15 11 15 22 0 99 88 99 114 0 14 5 26 10 26
17 0 50 39 50 60 0 11 7 20 15 20 10 0 15 10 15 29 0 16 6 31 14 34 15 6 33
143 23 169 -3 7 -6 -6 -6 -29z"/>
<path d="M1630 280 c0 -5 5 -10 10 -10 6 0 10 5 10 10 0 6 -4 10 -10 10 -5 0
-10 -4 -10 -10z"/>
</g>
</svg>
