<?xml version="1.0" standalone="no"?>
<!DOCTYPE svg PUBLIC "-//W3C//DTD SVG 20010904//EN"
 "http://www.w3.org/TR/2001/REC-SVG-20010904/DTD/svg10.dtd">
<svg version="1.0" xmlns="http://www.w3.org/2000/svg"
 width="100.000000pt" height="100.000000pt" viewBox="0 0 100.000000 100.000000"
 preserveAspectRatio="xMidYMid meet">
<metadata>
Created by potrace 1.16, written by Peter Selinger 2001-2019
</metadata>
<g transform="translate(0.000000,100.000000) scale(0.100000,-0.100000)"
fill="#000000" stroke="none">
<path d="M0 950 c0 -6 38 -10 95 -10 l95 0 0 -35 0 -35 310 0 310 0 0 35 0 35
95 0 c57 0 95 4 95 10 0 6 -42 10 -105 10 l-105 0 0 -35 0 -35 -290 0 -290 0
0 35 0 35 -105 0 c-63 0 -105 -4 -105 -10z"/>
<path d="M0 680 c0 -5 9 -10 20 -10 16 0 20 -7 20 -30 0 -28 3 -30 35 -30 24
0 35 -5 35 -15 0 -10 -11 -15 -35 -15 l-35 0 0 -50 0 -50 35 0 35 0 0 -60 0
-60 60 0 60 0 0 -65 0 -65 30 0 30 0 0 -60 0 -60 30 0 c28 0 30 -3 30 -35 l0
-35 145 0 145 0 0 35 c0 33 2 35 35 35 l35 0 0 60 0 60 30 0 30 0 0 65 0 65
30 0 c27 0 30 3 30 30 0 27 3 30 30 30 l30 0 0 95 0 95 35 0 c32 0 35 2 35 30
0 23 4 30 20 30 11 0 20 5 20 10 0 6 -13 10 -30 10 -27 0 -30 -3 -30 -30 0
-28 -3 -30 -35 -30 l-35 0 0 -95 0 -95 -30 0 c-27 0 -30 -3 -30 -30 0 -27 -3
-30 -30 -30 l-30 0 0 -65 0 -65 -30 0 -30 0 0 -60 0 -60 -35 0 c-33 0 -35 -2
-35 -35 l0 -35 -125 0 -125 0 0 35 c0 32 -2 35 -30 35 l-30 0 0 60 0 60 -30 0
-30 0 0 65 0 65 -60 0 -60 0 0 60 0 60 -35 0 c-32 0 -35 2 -35 30 0 28 3 30
35 30 33 0 35 2 35 35 0 33 -2 35 -35 35 -32 0 -35 2 -35 30 0 27 -3 30 -30
30 -17 0 -30 -4 -30 -10z"/>
</g>
</svg>
