<?xml version="1.0" standalone="no"?>
<!DOCTYPE svg PUBLIC "-//W3C//DTD SVG 20010904//EN"
 "http://www.w3.org/TR/2001/REC-SVG-20010904/DTD/svg10.dtd">
<svg version="1.0" xmlns="http://www.w3.org/2000/svg"
 width="57.000000pt" height="57.000000pt" viewBox="0 0 57.000000 57.000000"
 preserveAspectRatio="xMidYMid meet">
<metadata>
Created by potrace 1.16, written by Peter Selinger 2001-2019
</metadata>
<g transform="translate(0.000000,57.000000) scale(0.100000,-0.100000)"
fill="#000000" stroke="none">
<path d="M31 484 c3 -5 15 -25 27 -46 21 -33 30 -38 100 -54 97 -23 157 -23
254 0 70 16 79 21 100 54 32 52 33 55 10 48 -11 -4 -70 -15 -131 -26 -108 -18
-111 -18 -218 1 -59 11 -116 22 -127 25 -10 3 -17 2 -15 -2z m254 -59 c39 0
97 4 130 9 90 13 57 -9 -46 -30 -82 -17 -89 -17 -173 1 -101 21 -130 42 -40
29 32 -5 91 -9 129 -9z"/>
<path d="M155 282 c35 -52 98 -71 180 -53 45 10 57 18 79 51 15 22 24 40 21
40 -4 0 -38 -7 -77 -16 -72 -17 -81 -16 -207 13 l-23 6 27 -41z m174 -13 c33
7 41 7 32 -2 -15 -15 -136 -16 -152 0 -8 8 0 9 33 2 28 -6 60 -6 87 0z"/>
<path d="M230 175 c0 -6 44 -70 52 -75 6 -4 58 63 58 75 0 3 -12 0 -27 -6 -17
-6 -36 -6 -55 0 -15 6 -28 8 -28 6z"/>
</g>
</svg>
