<?xml version="1.0" standalone="no"?>
<!DOCTYPE svg PUBLIC "-//W3C//DTD SVG 20010904//EN"
 "http://www.w3.org/TR/2001/REC-SVG-20010904/DTD/svg10.dtd">
<svg version="1.0" xmlns="http://www.w3.org/2000/svg"
 width="256.000000pt" height="256.000000pt" viewBox="0 0 256.000000 256.000000"
 preserveAspectRatio="xMidYMid meet">
<metadata>
Created by potrace 1.16, written by Peter Selinger 2001-2019
</metadata>
<g transform="translate(0.000000,256.000000) scale(0.100000,-0.100000)"
fill="#000000" stroke="none">
<path d="M684 1752 c-58 -56 -103 -88 -165 -119 -84 -41 -224 -93 -253 -93
-24 0 -26 -14 -8 -69 16 -52 16 -52 51 -46 60 11 190 55 265 89 l72 33 48 114
c26 63 54 125 63 137 8 13 13 25 11 27 -2 2 -39 -31 -84 -73z m-37 -126 c-26
-57 -56 -75 -58 -36 -1 11 -2 24 -3 29 -1 10 76 71 83 65 1 -1 -8 -28 -22 -58z
m-66 -44 c5 -27 4 -32 -13 -32 -10 0 -17 -4 -14 -9 3 -5 -8 -11 -26 -15 -36
-7 -33 -9 -42 26 -5 21 -2 30 15 38 11 7 27 9 35 6 8 -3 14 1 14 10 0 28 24 9
31 -24z m-101 -41 c8 -29 6 -33 -16 -42 -14 -5 -30 -7 -35 -3 -5 3 -9 2 -9 -3
0 -8 -65 -32 -110 -39 -19 -3 -22 -2 -10 6 13 8 8 14 -11 12 -4 -1 -9 7 -12
17 -4 16 6 23 54 39 33 11 59 16 59 10 0 -5 7 -2 16 7 22 22 39 13 37 -19 -1
-16 2 -24 9 -20 5 4 8 19 4 34 -3 15 -2 30 1 34 9 8 12 3 23 -33z"/>
<path d="M510 1430 c-14 -4 -43 -8 -66 -9 -23 -1 -54 -5 -70 -10 -16 -5 -42
-12 -59 -16 -26 -6 -27 -8 -10 -14 31 -12 123 -1 184 21 80 29 97 52 21 28z"/>
<path d="M581 1416 c-18 -22 -98 -53 -187 -71 l-81 -18 21 -38 c21 -39 22 -39
66 -33 25 4 65 14 90 23 39 14 49 24 78 79 32 60 38 89 13 58z m-51 -71 c-7
-9 -15 -13 -19 -10 -3 3 1 10 9 15 21 14 24 12 10 -5z m-30 -25 c0 -13 -7 -20
-20 -20 -18 0 -19 3 -10 20 6 11 15 20 20 20 6 0 10 -9 10 -20z m-47 -4 c-5
-21 -12 -25 -48 -28 -49 -4 -58 23 -10 33 36 6 61 5 58 -5z"/>
<path d="M1155 1346 c-38 -17 -60 -42 -80 -89 -21 -50 -19 -93 6 -143 26 -55
72 -84 131 -84 87 0 148 68 148 166 0 111 -112 193 -205 150z m135 -51 c57
-54 57 -150 0 -207 -27 -27 -47 -33 -99 -28 -56 5 -101 64 -101 135 0 112 123
174 200 100z"/>
<path d="M1395 1195 c0 -123 3 -165 12 -165 9 0 13 35 15 126 l3 125 83 -113
c46 -62 90 -122 97 -133 13 -18 14 1 15 153 0 145 -2 172 -15 172 -12 0 -15
-23 -17 -126 l-3 -125 -94 125 c-52 69 -95 126 -95 126 -1 0 -1 -74 -1 -165z"/>
<path d="M1850 1195 c0 -140 2 -165 15 -165 13 0 15 25 15 165 0 140 -2 165
-15 165 -13 0 -15 -25 -15 -165z"/>
<path d="M2005 1346 c-54 -24 -95 -92 -95 -158 0 -46 38 -117 74 -139 54 -33
136 -22 136 19 0 12 -3 12 -15 2 -22 -18 -79 -16 -110 4 -56 37 -72 137 -32
197 37 55 82 69 140 44 12 -5 17 -3 17 9 0 17 -38 36 -68 36 -9 -1 -30 -7 -47
-14z"/>
<path d="M2192 1350 c-33 -14 -57 -70 -45 -106 9 -29 19 -35 98 -71 32 -14 41
-24 43 -48 6 -65 -62 -93 -112 -46 -18 17 -26 19 -32 10 -13 -21 42 -59 85
-59 52 0 81 25 88 75 6 49 -21 90 -67 100 -39 9 -80 42 -80 66 0 47 71 77 104
43 16 -15 36 -12 36 6 0 13 -54 40 -77 39 -10 0 -28 -4 -41 -9z"/>
<path d="M750 1190 c0 -119 3 -161 12 -158 7 3 11 28 9 75 l-2 72 42 3 c60 4
64 28 5 28 l-46 0 0 55 0 55 56 0 c40 0 55 3 52 13 -3 7 -28 13 -66 15 l-62 3
0 -161z"/>
<path d="M900 1190 c0 -141 2 -160 16 -160 14 0 16 10 12 75 -3 41 -2 75 1 74
3 0 28 -34 55 -75 27 -41 52 -74 57 -74 23 0 15 25 -25 77 -39 51 -42 59 -26
65 52 20 68 111 25 153 -18 19 -35 25 -70 25 l-45 0 0 -160z m100 111 c27 -52
2 -115 -44 -109 -27 3 -28 5 -29 66 l-2 62 32 0 c22 0 36 -6 43 -19z"/>
<path d="M1640 1335 c0 -11 11 -15 40 -15 l40 0 0 -146 c0 -102 3 -145 11
-142 8 3 11 50 10 146 l-2 142 41 0 c29 0 40 4 40 15 0 12 -17 15 -90 15 -73
0 -90 -3 -90 -15z"/>
<path d="M463 1240 c-11 -5 -35 -10 -52 -12 -17 -2 -32 -7 -33 -12 0 -4 11
-33 25 -64 14 -31 29 -70 34 -87 6 -23 9 -12 11 50 3 71 6 83 29 107 27 29 24
33 -14 18z m-33 -50 c0 -5 -2 -10 -4 -10 -3 0 -8 5 -11 10 -3 6 -1 10 4 10 6
0 11 -4 11 -10z"/>
<path d="M363 989 c-46 -13 -41 -25 17 -39 58 -14 163 -5 180 15 24 29 -121
46 -197 24z"/>
<path d="M747 993 c-11 -10 -8 -53 3 -53 6 0 10 3 11 8 0 4 2 17 5 30 4 21 -6
29 -19 15z"/>
<path d="M784 972 l-11 -29 48 -2 c43 -1 49 1 49 19 0 11 0 23 0 27 0 4 -10 7
-22 7 -18 0 -22 -5 -21 -22 4 -29 -3 -28 -19 3 l-14 25 -10 -28z m76 -2 c0 -5
-4 -10 -10 -10 -5 0 -10 5 -10 10 0 6 5 10 10 10 6 0 10 -4 10 -10z"/>
<path d="M896 993 c-3 -3 -6 -17 -6 -30 0 -16 6 -23 19 -23 14 0 17 6 13 25
-5 27 -15 38 -26 28z"/>
<path d="M944 991 c-8 -9 -4 -51 6 -51 9 0 14 15 11 33 -1 5 3 6 9 2 5 -3 10
-12 10 -19 0 -9 27 -13 103 -14 70 -2 97 1 87 8 -13 9 -13 10 0 10 13 0 13 1
0 10 -10 6 -11 10 -2 10 6 0 12 3 12 8 0 4 -26 6 -57 6 -49 -1 -60 -5 -68 -23
-13 -28 -25 -27 -20 2 4 20 1 22 -41 22 -25 0 -48 -2 -50 -4z m71 -22 c11 -16
1 -19 -13 -3 -7 8 -8 14 -3 14 5 0 13 -5 16 -11z m85 -4 c0 -8 -6 -15 -14 -15
-17 0 -28 14 -19 24 12 12 33 6 33 -9z m50 4 c0 -5 -4 -7 -10 -4 -5 3 -10 1
-10 -5 0 -6 -5 -8 -11 -4 -8 4 -7 9 2 15 19 12 29 11 29 -2z"/>
<path d="M1209 998 c-1 -2 -3 -15 -4 -30 -3 -24 -1 -27 28 -26 18 0 38 5 45
11 8 6 12 6 12 -2 0 -6 14 -11 30 -11 24 0 30 4 31 23 1 21 1 21 9 -3 l8 -25
2 25 c2 22 3 23 8 5 5 -15 16 -20 42 -20 19 0 41 4 48 8 7 5 12 4 12 -2 0 -6
11 -11 25 -11 22 0 25 4 22 28 -3 16 -10 26 -18 24 -34 -8 -65 -8 -78 2 -9 7
-16 6 -25 -6 -9 -13 -13 -13 -24 -2 -16 18 -42 7 -42 -18 0 -10 -4 -17 -10
-13 -5 3 -7 12 -3 20 3 8 0 15 -6 15 -6 0 -11 -10 -12 -22 -1 -22 -1 -22 -9 2
-4 14 -8 19 -9 11 -1 -11 -5 -10 -15 4 -14 19 -15 19 -37 0 -12 -11 -19 -15
-16 -8 4 6 3 14 -3 18 -5 3 -11 5 -11 3z m61 -34 c0 -9 -5 -14 -12 -12 -18 6
-21 28 -4 28 9 0 16 -7 16 -16z m168 4 c-6 -18 -28 -21 -28 -4 0 9 7 16 16 16
9 0 14 -5 12 -12z m77 -8 c3 -5 2 -10 -4 -10 -5 0 -13 5 -16 10 -3 6 -2 10 4
10 5 0 13 -4 16 -10z"/>
<path d="M1548 970 c-5 -30 6 -41 15 -17 4 9 8 9 14 1 7 -10 93 -18 93 -9 0 2
-8 12 -17 21 -17 17 -17 18 0 11 9 -3 17 -2 17 2 0 14 -29 21 -36 10 -4 -7
-10 -6 -19 1 -9 8 -17 7 -28 -5 -20 -19 -28 -19 -21 0 4 8 2 15 -4 15 -5 0
-12 -13 -14 -30z m70 -1 c-2 -6 -8 -10 -13 -10 -5 0 -11 4 -13 10 -2 6 4 11
13 11 9 0 15 -5 13 -11z"/>
<path d="M1690 985 c-7 -8 -10 -22 -6 -30 6 -17 46 -21 46 -5 0 6 -7 10 -15
10 -8 0 -15 5 -15 11 0 6 7 8 16 5 9 -3 18 -6 20 -6 2 0 4 -6 4 -14 0 -11 17
-14 75 -14 67 1 74 3 78 22 4 20 4 20 6 -1 1 -25 21 -32 21 -9 0 8 2 20 5 28
4 9 -4 13 -25 12 -48 -2 -50 -3 -50 -23 0 -14 -5 -18 -20 -14 -11 3 -20 12
-20 19 0 8 -4 14 -10 14 -5 0 -10 -6 -10 -14 0 -7 -9 -16 -20 -19 -15 -4 -20
0 -20 15 0 10 -4 17 -9 13 -5 -3 -12 -1 -16 5 -9 14 -20 12 -35 -5z m190 -15
c0 -5 -4 -10 -10 -10 -5 0 -10 5 -10 10 0 6 5 10 10 10 6 0 10 -4 10 -10z"/>
<path d="M1947 994 c-4 -4 -7 -18 -7 -31 0 -16 6 -23 20 -23 11 0 20 6 20 13
0 19 -24 49 -33 41z"/>
<path d="M1996 992 c-2 -1 -1 -14 2 -27 3 -20 10 -25 32 -25 23 0 27 4 23 20
-3 11 0 20 6 20 6 0 11 -8 11 -19 0 -16 9 -18 90 -20 87 -1 90 0 91 22 1 21 1
21 9 -3 8 -24 8 -24 9 -2 1 27 21 30 21 2 0 -11 5 -20 10 -20 6 0 10 6 10 14
0 8 2 20 5 28 4 9 -4 13 -25 12 -47 -2 -48 -3 -53 -26 l-4 -23 -8 21 c-4 14
-17 24 -36 26 -25 4 -29 1 -30 -21 l-1 -26 -13 29 -12 30 -9 -25 -8 -24 -7 25
-7 25 -1 -27 c-1 -34 -21 -38 -21 -5 0 21 -5 23 -41 23 -22 -1 -42 -2 -43 -4z
m44 -32 c0 -5 -5 -10 -11 -10 -5 0 -7 5 -4 10 3 6 8 10 11 10 2 0 4 -4 4 -10z"/>
<path d="M1760 980 c0 -5 5 -10 10 -10 6 0 10 5 10 10 0 6 -4 10 -10 10 -5 0
-10 -4 -10 -10z"/>
<path d="M1820 980 c0 -5 5 -10 10 -10 6 0 10 5 10 10 0 6 -4 10 -10 10 -5 0
-10 -4 -10 -10z"/>
</g>
</svg>
