<?xml version="1.0" standalone="no"?>
<!DOCTYPE svg PUBLIC "-//W3C//DTD SVG 20010904//EN"
 "http://www.w3.org/TR/2001/REC-SVG-20010904/DTD/svg10.dtd">
<svg version="1.0" xmlns="http://www.w3.org/2000/svg"
 width="100.000000pt" height="100.000000pt" viewBox="0 0 100.000000 100.000000"
 preserveAspectRatio="xMidYMid meet">
<metadata>
Created by potrace 1.16, written by Peter Selinger 2001-2019
</metadata>
<g transform="translate(0.000000,100.000000) scale(0.100000,-0.100000)"
fill="#000000" stroke="none">
<path d="M230 980 c0 -16 -7 -20 -30 -20 -28 0 -30 -3 -30 -35 0 -32 -2 -35
-30 -35 -27 0 -30 -3 -30 -30 0 -28 -3 -30 -35 -30 -32 0 -35 -2 -35 -30 0
-23 -4 -30 -20 -30 -11 0 -20 -4 -20 -10 0 -5 13 -10 30 -10 27 0 30 3 30 30
0 28 3 30 35 30 32 0 35 2 35 30 0 27 3 30 30 30 28 0 30 3 30 35 0 32 2 35
30 35 27 0 30 3 30 30 0 17 -4 30 -10 30 -5 0 -10 -9 -10 -20z"/>
<path d="M290 981 c0 -11 5 -23 10 -26 6 -4 10 5 10 19 0 14 -4 26 -10 26 -5
0 -10 -9 -10 -19z"/>
<path d="M370 970 c0 -30 -1 -30 -55 -30 -50 0 -55 -2 -61 -25 -4 -14 -3 -29
0 -33 4 -3 9 4 13 16 4 18 13 22 44 22 28 0 39 -4 39 -15 0 -9 -9 -15 -24 -15
-14 0 -28 -4 -31 -10 -3 -5 -23 -10 -44 -10 -40 0 -61 -14 -61 -42 0 -11 -7
-18 -20 -18 -11 0 -20 -5 -20 -11 0 -6 12 -9 28 -7 21 2 28 9 30 30 3 28 21
37 60 30 19 -4 22 -10 22 -53 0 -26 5 -51 10 -54 6 -3 10 -17 10 -31 0 -20 -5
-24 -30 -24 -23 0 -30 -4 -30 -20 0 -17 -7 -20 -50 -20 l-50 0 -1 48 c-1 46
-16 113 -18 81 -1 -12 -8 -15 -26 -11 -15 2 -25 0 -25 -7 0 -6 11 -11 25 -11
20 0 25 -5 25 -24 0 -19 -4 -22 -25 -18 -14 2 -25 11 -25 18 0 8 -4 14 -10 14
-5 0 -10 -11 -10 -25 0 -22 4 -25 35 -25 l35 0 0 -65 0 -65 30 0 c27 0 30 -3
30 -30 0 -27 3 -30 30 -30 l30 0 0 -155 0 -155 -30 0 c-30 0 -30 -1 -30 -55 0
-30 5 -55 10 -55 6 0 10 11 10 25 0 14 5 25 10 25 6 0 10 -11 10 -24 0 -14 5
-28 10 -31 6 -4 10 7 10 24 l0 31 60 0 c59 0 60 1 60 28 -1 23 -2 25 -13 11
-7 -8 -20 -18 -29 -22 -14 -5 -18 -1 -18 18 0 25 1 25 95 25 l95 0 0 60 0 60
-30 0 c-28 0 -30 3 -30 35 0 33 -2 35 -35 35 -32 0 -35 2 -35 30 0 30 -1 30
-54 30 -49 0 -54 2 -49 20 5 20 23 28 23 10 0 -5 5 -10 10 -10 6 0 10 7 10 15
0 21 16 19 40 -7 l20 -22 0 27 c0 26 -2 27 -60 27 l-60 0 0 55 c0 30 -4 55
-10 55 -5 0 -10 -20 -10 -45 0 -25 -4 -45 -10 -45 -5 0 -10 14 -10 30 0 26 -3
30 -29 30 -23 0 -30 5 -33 25 l-5 25 208 0 209 0 0 30 c0 23 -4 30 -20 30 -11
0 -20 -4 -20 -10 0 -5 5 -10 10 -10 6 0 10 -4 10 -10 0 -5 -9 -10 -20 -10 -19
0 -20 7 -20 110 l0 110 -30 0 -30 0 0 65 c0 37 -4 65 -10 65 -5 0 -10 -9 -10
-20 0 -11 -7 -20 -15 -20 -8 0 -15 9 -15 20 0 11 -4 20 -10 20 -5 0 -10 -13
-10 -30z m53 -54 c-3 -13 -15 -28 -26 -32 -19 -6 -18 -8 11 -11 28 -4 32 -8
32 -34 0 -29 -1 -29 -55 -29 -32 0 -55 -4 -55 -11 0 -6 9 -8 20 -4 14 5 20 2
20 -9 0 -9 5 -16 10 -16 6 0 10 5 10 10 0 6 7 10 15 10 8 0 15 -4 15 -10 0 -5
5 -10 10 -10 6 0 10 9 10 20 0 34 37 25 42 -10 l5 -30 -89 0 -88 0 0 60 0 60
30 0 c28 0 30 3 30 35 0 32 3 35 29 35 24 0 28 -3 24 -24z m57 -76 c0 -5 -4
-10 -10 -10 -5 0 -10 5 -10 10 0 6 5 10 10 10 6 0 10 -4 10 -10z m-110 -120
c0 -5 -11 -10 -25 -10 -14 0 -25 5 -25 10 0 6 11 10 25 10 14 0 25 -4 25 -10z
m110 0 c0 -5 -22 -10 -50 -10 -27 0 -50 5 -50 10 0 6 23 10 50 10 28 0 50 -4
50 -10z m-127 -50 c-3 -11 -14 -20 -24 -20 -12 0 -19 7 -19 20 0 14 7 20 24
20 19 0 23 -4 19 -20z m137 16 c0 -32 -42 -50 -54 -23 -5 10 -7 10 -12 0 -3
-7 -17 -13 -30 -13 -17 0 -24 6 -24 20 0 18 7 20 60 20 33 0 60 -2 60 -4z
m-200 -26 c0 -5 -7 -10 -15 -10 -8 0 -15 5 -15 10 0 6 7 10 15 10 8 0 15 -4
15 -10z m20 -260 c0 -13 -7 -20 -20 -20 -13 0 -20 7 -20 20 0 13 7 20 20 20
13 0 20 -7 20 -20z m40 10 c0 -5 -4 -10 -10 -10 -5 0 -10 5 -10 10 0 6 5 10
10 10 6 0 10 -4 10 -10z m0 -40 c0 -5 16 -10 35 -10 33 0 35 -2 37 -35 0 -19
1 -40 2 -47 1 -7 -10 -15 -24 -19 -24 -7 -24 -7 -2 -8 33 -1 31 -41 -3 -41
-18 0 -25 5 -25 20 0 14 -7 20 -24 20 -19 0 -22 4 -18 25 5 30 -13 55 -39 55
-11 0 -19 7 -19 15 0 8 9 15 20 15 11 0 20 5 20 10 0 6 9 10 20 10 11 0 20 -4
20 -10z m-42 -117 c-2 -46 -7 -59 -20 -61 -12 -2 -18 3 -18 14 0 9 8 23 18 30
16 13 16 13 0 14 -13 0 -18 8 -18 30 0 24 4 30 20 30 19 0 21 -5 18 -57z m172
27 c0 -5 -9 -10 -20 -10 -11 0 -20 5 -20 10 0 6 9 10 20 10 11 0 20 -4 20 -10z
m10 -39 c0 -12 -29 -41 -41 -41 -5 0 -9 11 -9 25 0 20 5 25 25 25 14 0 25 -4
25 -9z m-140 -16 c0 -8 -4 -15 -10 -15 -5 0 -10 7 -10 15 0 8 5 15 10 15 6 0
10 -7 10 -15z m-100 -65 c0 -13 -7 -20 -20 -20 -25 0 -27 27 -2 33 9 3 18 5
20 6 1 0 2 -8 2 -19z m40 5 c0 -8 -4 -15 -10 -15 -5 0 -10 7 -10 15 0 8 5 15
10 15 6 0 10 -7 10 -15z"/>
<path d="M354 849 c-3 -6 -1 -16 5 -22 8 -8 11 -5 11 11 0 24 -5 28 -16 11z"/>
<path d="M370 299 c0 -5 5 -7 10 -4 6 3 10 8 10 11 0 2 -4 4 -10 4 -5 0 -10
-5 -10 -11z"/>
<path d="M500 970 c0 -27 3 -30 30 -30 l30 0 0 -95 0 -95 95 0 c95 0 95 0 95
25 0 14 -4 25 -10 25 -5 0 -10 -7 -10 -15 0 -22 -40 -19 -40 3 -1 16 -1 16
-14 0 -17 -23 -25 -23 -42 0 -13 16 -13 16 -14 0 0 -11 -8 -18 -20 -18 -22 0
-28 25 -7 33 10 4 10 6 0 6 -7 1 -13 14 -13 30 0 16 6 32 13 35 10 5 10 7 0
12 -7 3 -13 17 -13 30 0 17 6 24 20 24 18 0 20 -7 20 -65 l0 -65 95 0 95 0 0
55 c0 30 -4 55 -10 55 -5 0 -10 -11 -10 -24 0 -13 -6 -27 -12 -29 -10 -4 -10
-6 0 -6 21 -2 13 -31 -8 -31 -13 0 -20 7 -20 20 0 18 -7 20 -55 20 -52 0 -55
1 -55 25 0 30 36 36 43 8 4 -14 5 -13 6 4 1 16 6 20 21 16 11 -3 20 0 20 6 0
7 -21 11 -55 11 -54 0 -55 0 -55 30 0 17 -4 30 -10 30 -5 0 -10 -9 -10 -20 0
-11 -4 -20 -10 -20 -5 0 -10 9 -10 20 0 11 -4 20 -10 20 -5 0 -10 -11 -10 -24
0 -19 -4 -23 -20 -19 -11 3 -20 14 -20 24 0 11 -4 19 -10 19 -5 0 -10 -13 -10
-30z m223 -120 c4 0 7 -4 7 -10 0 -5 -20 -10 -45 -10 -34 0 -45 4 -45 16 0 12
8 15 38 10 20 -3 40 -5 45 -6z"/>
<path d="M682 980 c0 -14 2 -19 5 -12 2 6 2 18 0 25 -3 6 -5 1 -5 -13z"/>
<path d="M750 970 l0 -30 60 0 60 0 0 -35 c0 -33 2 -35 35 -35 32 0 35 -2 35
-30 0 -27 3 -30 30 -30 17 0 30 5 30 10 0 6 -9 10 -20 10 -16 0 -20 7 -20 30
0 28 -3 30 -35 30 -33 0 -35 2 -35 35 l0 35 -60 0 c-53 0 -60 2 -60 20 0 11
-4 20 -10 20 -5 0 -10 -13 -10 -30z"/>
<path d="M468 933 c6 -2 12 -13 12 -24 0 -10 5 -19 10 -19 16 0 11 37 -6 44
-9 3 -19 6 -22 5 -4 0 -1 -3 6 -6z"/>
<path d="M741 904 c0 -11 3 -14 6 -6 3 7 2 16 -1 19 -3 4 -6 -2 -5 -13z"/>
<path d="M830 880 c0 -5 5 -10 10 -10 6 0 10 5 10 10 0 6 -4 10 -10 10 -5 0
-10 -4 -10 -10z"/>
<path d="M520 860 c0 -5 5 -10 10 -10 6 0 10 5 10 10 0 6 -4 10 -10 10 -5 0
-10 -4 -10 -10z"/>
<path d="M836 829 c-19 -19 -19 -19 32 -19 29 0 52 5 52 10 0 6 -11 10 -25 10
-14 0 -25 5 -25 10 0 15 -13 11 -34 -11z"/>
<path d="M520 820 c0 -5 5 -10 10 -10 6 0 10 5 10 10 0 6 -4 10 -10 10 -5 0
-10 -4 -10 -10z"/>
<path d="M781 775 l-23 -25 26 0 c21 0 26 5 26 25 0 30 1 30 -29 0z"/>
<path d="M870 778 c0 -21 -5 -28 -20 -28 -11 0 -20 -4 -20 -10 0 -5 5 -10 10
-10 6 0 10 -7 10 -15 0 -8 5 -15 10 -15 6 0 10 11 10 24 0 20 6 25 33 28 28 4
29 5 12 13 -11 5 -25 16 -32 24 -11 14 -12 12 -13 -11z"/>
<path d="M940 710 l0 -80 -35 0 c-32 0 -35 -2 -35 -31 0 -17 4 -28 10 -24 6 3
10 12 10 19 0 8 11 16 25 18 21 4 25 1 25 -18 0 -13 5 -24 10 -24 6 0 10 9 10
20 0 13 7 20 20 20 11 0 20 5 20 10 0 6 -9 10 -20 10 -13 0 -20 7 -20 20 0 13
7 20 20 20 11 0 20 5 20 10 0 6 -12 10 -26 10 -20 0 -25 4 -20 16 3 9 6 22 6
29 0 8 10 16 23 18 l22 4 -22 2 c-13 0 -23 8 -23 16 0 8 -4 15 -10 15 -6 0
-10 -33 -10 -80z"/>
<path d="M178 725 c2 -14 6 -25 8 -25 2 0 4 11 4 25 0 14 -4 25 -9 25 -4 0 -6
-11 -3 -25z"/>
<path d="M520 744 c0 -10 31 -36 37 -31 3 3 -2 13 -10 22 -16 15 -27 19 -27 9z"/>
<path d="M586 709 c-19 -19 -19 -19 7 -19 20 0 27 5 27 20 0 25 -9 25 -34 -1z"/>
<path d="M0 700 c0 -5 9 -10 20 -10 11 0 20 5 20 10 0 6 -9 10 -20 10 -11 0
-20 -4 -20 -10z"/>
<path d="M635 700 c-4 -6 7 -10 24 -10 27 0 31 -4 31 -27 0 -21 3 -24 12 -15
19 19 -6 62 -36 62 -14 0 -28 -4 -31 -10z"/>
<path d="M758 693 c6 -2 18 -2 25 0 6 3 1 5 -13 5 -14 0 -19 -2 -12 -5z"/>
<path d="M810 670 c0 -11 5 -20 10 -20 6 0 10 9 10 20 0 11 -4 20 -10 20 -5 0
-10 -9 -10 -20z"/>
<path d="M870 670 c0 -11 5 -20 10 -20 6 0 10 5 10 10 0 6 7 10 15 10 8 0 15
5 15 10 0 6 -11 10 -25 10 -18 0 -25 -5 -25 -20z"/>
<path d="M60 658 c0 -15 -4 -30 -10 -33 -6 -3 -10 -17 -10 -30 0 -17 -7 -25
-22 -28 l-23 -4 23 -2 c31 -2 31 -48 0 -54 l-23 -4 23 -2 c20 -1 22 -6 22 -61
0 -53 -2 -60 -20 -60 -11 0 -20 -4 -20 -10 0 -5 9 -10 20 -10 15 0 20 -7 20
-25 0 -18 -5 -25 -20 -25 -11 0 -20 -4 -20 -10 0 -5 9 -10 20 -10 11 0 20 -4
20 -10 0 -5 5 -10 10 -10 6 0 10 66 10 179 l0 180 33 3 c28 4 29 5 12 13 -11
5 -25 16 -32 24 -11 14 -12 12 -13 -11z"/>
<path d="M600 661 c0 -6 5 -13 10 -16 6 -3 10 1 10 9 0 9 -4 16 -10 16 -5 0
-10 -4 -10 -9z"/>
<path d="M580 620 c0 -6 41 -9 105 -9 58 1 105 5 105 10 0 5 -47 9 -105 9 -63
0 -105 -4 -105 -10z"/>
<path d="M810 605 c0 -14 5 -25 10 -25 6 0 10 7 10 15 0 8 5 15 10 15 6 0 10
5 10 10 0 6 -9 10 -20 10 -15 0 -20 -7 -20 -25z"/>
<path d="M290 595 c0 -8 -7 -15 -15 -15 -8 0 -15 -4 -15 -10 0 -5 11 -10 25
-10 20 0 25 5 25 25 0 14 -4 25 -10 25 -5 0 -10 -7 -10 -15z"/>
<path d="M350 599 c0 -7 -8 -18 -17 -25 -17 -12 -16 -13 5 -14 18 0 22 -4 17
-19 -3 -11 -1 -22 5 -26 6 -4 10 12 10 44 0 28 -4 51 -10 51 -5 0 -10 -5 -10
-11z"/>
<path d="M431 594 c0 -11 3 -14 6 -6 3 7 2 16 -1 19 -3 4 -6 -2 -5 -13z"/>
<path d="M500 563 c0 -35 3 -44 10 -33 13 20 13 80 0 80 -5 0 -10 -21 -10 -47z"/>
<path d="M561 588 c0 -16 -6 -28 -12 -28 -7 0 -10 -12 -7 -30 4 -26 1 -30 -19
-30 -19 0 -23 -5 -23 -30 0 -27 3 -30 30 -30 l30 0 0 60 0 60 65 0 65 0 0 -50
c0 -27 4 -50 10 -50 15 0 7 115 -8 116 -6 1 -36 2 -66 3 -43 1 -56 5 -59 19
-3 10 -5 6 -6 -10z m-21 -118 c0 -5 -4 -10 -10 -10 -5 0 -10 5 -10 10 0 6 5
10 10 10 6 0 10 -4 10 -10z"/>
<path d="M80 570 c0 -5 7 -10 15 -10 8 0 15 5 15 10 0 6 -7 10 -15 10 -8 0
-15 -4 -15 -10z"/>
<path d="M390 550 c0 -5 7 -10 15 -10 8 0 15 -4 15 -10 0 -5 -7 -10 -15 -10
-8 0 -15 -4 -15 -10 0 -5 11 -10 25 -10 20 0 25 5 25 26 0 20 4 24 19 19 11
-3 22 -1 26 5 4 6 -12 10 -44 10 -28 0 -51 -4 -51 -10z"/>
<path d="M750 500 l0 -60 -30 0 -30 0 0 -95 0 -95 30 0 30 0 0 -125 c0 -77 4
-125 10 -125 6 0 10 13 10 29 0 16 6 32 13 34 10 4 10 6 0 6 -19 1 -16 32 5
47 16 13 16 13 0 14 -21 0 -26 50 -5 50 8 0 9 3 1 8 -6 4 -13 19 -16 35 -5 23
-2 27 18 27 23 0 24 -2 24 -85 0 -56 4 -85 11 -85 7 0 9 9 5 24 -5 19 -1 25
19 30 23 6 25 11 25 61 0 47 -3 55 -18 55 -13 0 -21 11 -28 38 -8 34 -12 37
-42 36 -29 -2 -32 1 -32 27 0 22 -5 29 -20 29 -13 0 -20 7 -20 20 0 26 40 28
40 3 1 -17 1 -17 14 0 15 20 32 22 39 5 4 -10 6 -10 6 0 2 21 41 14 41 -8 0
-11 -6 -20 -12 -20 -9 0 -8 -4 2 -10 8 -5 30 -10 48 -10 32 0 32 0 32 -49 0
-43 -3 -50 -22 -54 l-23 -4 23 -2 c30 -1 30 -37 0 -44 -12 -4 -19 -9 -16 -13
4 -3 19 -4 33 0 24 6 25 9 25 89 l0 84 30 -5 c18 -3 30 0 30 7 0 7 -24 11 -65
11 l-65 0 0 30 c0 29 -1 30 -50 30 -43 0 -50 3 -50 20 0 25 9 25 26 3 12 -16
13 -15 14 10 0 27 1 27 65 27 l65 0 0 -30 c0 -27 3 -30 30 -30 17 0 30 5 30
10 0 6 -9 10 -20 10 -11 0 -20 5 -20 10 0 6 9 10 20 10 11 0 20 5 20 10 0 6
-13 10 -30 10 -25 0 -30 4 -30 23 0 20 4 23 30 19 18 -3 30 0 30 7 0 7 -32 11
-95 11 l-95 0 0 -30 c0 -25 -4 -30 -25 -30 -31 0 -32 13 -3 40 l22 20 -27 0
c-26 0 -27 -2 -27 -60z m120 26 c0 -9 -7 -12 -20 -9 -11 3 -20 9 -20 14 0 5 9
9 20 9 11 0 20 -6 20 -14z m50 4 c0 -5 -7 -10 -15 -10 -8 0 -15 5 -15 10 0 6
7 10 15 10 8 0 15 -4 15 -10z m-190 -185 c0 -8 -4 -15 -10 -15 -5 0 -10 7 -10
15 0 8 5 15 10 15 6 0 10 -7 10 -15z m80 -60 c0 -19 -4 -23 -17 -18 -10 4 -23
14 -30 22 -11 14 -12 14 -13 -1 0 -25 -36 -23 -43 2 -5 18 0 20 49 20 51 0 54
-1 54 -25z m40 -95 c0 -22 -4 -40 -10 -40 -5 0 -10 18 -10 40 0 22 5 40 10 40
6 0 10 -18 10 -40z"/>
<path d="M130 528 c0 -24 4 -28 27 -28 22 0 25 2 13 13 -8 6 -20 19 -27 27
-10 13 -12 11 -13 -12z"/>
<path d="M88 493 c7 -3 16 -2 19 1 4 3 -2 6 -13 5 -11 0 -14 -3 -6 -6z"/>
<path d="M578 488 c8 -8 23 -8 54 -1 l43 11 -54 1 c-42 1 -52 -2 -43 -11z"/>
<path d="M190 467 c0 -20 5 -27 20 -27 11 0 20 2 20 5 0 3 -9 15 -20 27 l-20
22 0 -27z"/>
<path d="M460 450 c0 -5 7 -10 16 -10 8 0 12 5 9 10 -3 6 -10 10 -16 10 -5 0
-9 -4 -9 -10z"/>
<path d="M575 450 c-3 -5 1 -10 9 -10 9 0 16 5 16 10 0 6 -4 10 -9 10 -6 0
-13 -4 -16 -10z"/>
<path d="M880 450 c0 -5 12 -10 26 -10 14 0 23 4 19 10 -3 6 -15 10 -26 10
-10 0 -19 -4 -19 -10z"/>
<path d="M130 430 c0 -5 9 -10 20 -10 11 0 20 5 20 10 0 6 -9 10 -20 10 -11 0
-20 -4 -20 -10z"/>
<path d="M385 430 c3 -5 11 -10 17 -10 6 0 17 -8 24 -17 12 -16 13 -15 14 10
0 24 -4 27 -31 27 -17 0 -28 -4 -24 -10z"/>
<path d="M620 375 c0 -63 1 -65 25 -65 14 0 25 5 25 10 0 6 -7 10 -15 10 -8 0
-15 7 -15 15 0 8 7 15 15 15 8 0 15 5 15 10 0 6 -7 10 -15 10 -8 0 -15 9 -15
20 0 11 6 20 14 20 8 0 18 5 21 10 4 6 -7 10 -24 10 l-31 0 0 -65z"/>
<path d="M940 410 c0 -19 3 -21 12 -12 9 9 9 15 0 24 -9 9 -12 7 -12 -12z"/>
<path d="M80 390 c0 -5 9 -10 21 -10 11 0 17 5 14 10 -3 6 -13 10 -21 10 -8 0
-14 -4 -14 -10z"/>
<path d="M130 358 c0 -44 -2 -48 -25 -48 -14 0 -25 -4 -25 -10 0 -5 9 -10 19
-10 11 0 22 -6 24 -12 3 -7 6 -3 6 10 1 15 7 22 21 22 11 0 20 5 20 10 0 6 -4
10 -10 10 -5 0 -10 10 -10 23 0 12 -5 29 -10 37 -7 11 -10 2 -10 -32z"/>
<path d="M190 345 c0 -28 4 -35 20 -35 11 0 20 5 20 10 0 6 -4 10 -10 10 -5 0
-10 7 -10 15 0 8 5 15 10 15 6 0 10 5 10 10 0 6 -9 10 -20 10 -16 0 -20 -7
-20 -35z"/>
<path d="M463 366 c9 -7 17 -18 17 -24 0 -6 5 -14 10 -17 6 -4 10 7 10 24 0
27 -3 31 -27 31 -25 -1 -26 -2 -10 -14z"/>
<path d="M545 370 c3 -5 8 -10 11 -10 2 0 4 5 4 10 0 6 -5 10 -11 10 -5 0 -7
-4 -4 -10z"/>
<path d="M520 301 c0 -5 6 -12 13 -15 10 -5 10 -7 0 -12 -20 -9 -15 -24 7 -24
16 0 20 7 20 30 0 23 -4 30 -20 30 -11 0 -20 -4 -20 -9z"/>
<path d="M575 300 c3 -5 10 -10 16 -10 5 0 9 5 9 10 0 6 -7 10 -16 10 -8 0
-12 -4 -9 -10z"/>
<path d="M190 249 l0 -53 20 22 c24 26 25 32 4 32 -11 0 -13 6 -9 19 3 11 1
22 -5 26 -6 4 -10 -12 -10 -46z"/>
<path d="M620 278 c0 -25 4 -28 31 -28 17 0 28 4 24 10 -3 6 -11 10 -17 10 -6
0 -17 8 -24 18 -12 15 -13 14 -14 -10z"/>
<path d="M575 260 c-3 -5 3 -10 15 -10 12 0 18 5 15 10 -3 6 -10 10 -15 10 -5
0 -12 -4 -15 -10z"/>
<path d="M955 260 c-4 -6 5 -10 19 -10 14 0 26 5 26 10 0 6 -9 10 -19 10 -11
0 -23 -4 -26 -10z"/>
<path d="M0 240 c0 -5 9 -10 20 -10 18 0 20 -7 20 -60 l0 -60 35 0 c33 0 35
-2 35 -35 l0 -35 60 0 c53 0 60 -2 60 -20 0 -11 5 -20 10 -20 6 0 10 13 10 30
l0 30 -60 0 -60 0 0 35 c0 33 -2 35 -35 35 l-35 0 0 60 0 60 -30 0 c-17 0 -30
-4 -30 -10z"/>
<path d="M80 240 c0 -5 6 -10 14 -10 7 0 16 -9 19 -20 4 -15 0 -20 -14 -20
-10 0 -19 -4 -19 -10 0 -5 7 -10 15 -10 8 0 15 -4 15 -10 0 -5 5 -10 10 -10 6
0 10 23 10 50 0 47 -2 50 -25 50 -14 0 -25 -4 -25 -10z"/>
<path d="M600 221 c0 -6 5 -13 10 -16 6 -3 10 1 10 9 0 9 -4 16 -10 16 -5 0
-10 -4 -10 -9z"/>
<path d="M145 180 c3 -5 10 -10 16 -10 5 0 9 5 9 10 0 6 -7 10 -16 10 -8 0
-12 -4 -9 -10z"/>
<path d="M507 183 c-4 -3 -7 -17 -7 -30 0 -19 5 -23 30 -23 28 0 30 -3 30 -35
l0 -35 -125 0 -125 0 0 25 c0 14 -4 25 -10 25 -5 0 -10 -9 -10 -19 0 -11 -6
-22 -12 -24 -10 -4 -10 -6 0 -6 7 -1 12 -14 12 -31 0 -17 5 -30 10 -30 6 0 10
11 10 24 0 19 4 23 20 19 11 -3 20 -14 20 -24 0 -11 5 -19 10 -19 6 0 10 9 10
20 0 15 7 20 25 20 18 0 25 -5 25 -20 0 -11 5 -20 10 -20 6 0 10 12 10 26 0
20 4 25 16 20 9 -3 19 -6 24 -6 5 0 11 -10 13 -22 4 -20 4 -19 6 5 1 24 4 27
26 21 30 -7 55 15 55 49 0 19 6 26 31 31 25 5 29 9 24 26 -5 16 -2 20 19 20
23 0 24 -3 21 -45 -3 -26 0 -45 5 -45 6 0 10 23 10 51 0 46 2 50 20 44 11 -4
20 -2 20 4 0 7 -23 11 -55 11 -54 0 -55 0 -55 -30 0 -27 -3 -30 -30 -30 -27 0
-30 3 -30 30 0 25 -4 30 -23 30 -13 0 -27 -3 -30 -7z m33 -23 c0 -5 -4 -10
-10 -10 -5 0 -10 5 -10 10 0 6 5 10 10 10 6 0 10 -4 10 -10z"/>
<path d="M940 160 c0 -28 -3 -30 -35 -30 -33 0 -35 -2 -35 -35 0 -32 -2 -35
-30 -35 -27 0 -30 -3 -30 -30 0 -17 5 -30 10 -30 6 0 10 9 10 20 0 16 7 20 30
20 28 0 30 3 30 35 0 33 2 35 35 35 32 0 35 2 35 30 0 23 4 30 20 30 11 0 20
5 20 10 0 6 -13 10 -30 10 -27 0 -30 -3 -30 -30z"/>
<path d="M420 160 c0 -5 -6 -10 -14 -10 -8 0 -18 -4 -21 -10 -4 -6 7 -10 24
-10 24 0 31 4 31 20 0 11 -4 20 -10 20 -5 0 -10 -4 -10 -10z"/>
<path d="M150 120 c0 -5 5 -10 10 -10 6 0 10 5 10 10 0 6 -4 10 -10 10 -5 0
-10 -4 -10 -10z"/>
<path d="M440 101 c0 -12 5 -21 10 -21 6 0 10 6 10 14 0 8 -4 18 -10 21 -5 3
-10 -3 -10 -14z"/>
<path d="M361 94 c0 -11 3 -14 6 -6 3 7 2 16 -1 19 -3 4 -6 -2 -5 -13z"/>
<path d="M491 94 c0 -11 3 -14 6 -6 3 7 2 16 -1 19 -3 4 -6 -2 -5 -13z"/>
<path d="M690 30 c0 -17 5 -30 10 -30 6 0 10 9 10 20 0 11 5 20 10 20 6 0 10
5 10 10 0 6 -9 10 -20 10 -16 0 -20 -7 -20 -30z"/>
</g>
</svg>
