<?xml version="1.0" standalone="no"?>
<!DOCTYPE svg PUBLIC "-//W3C//DTD SVG 20010904//EN"
 "http://www.w3.org/TR/2001/REC-SVG-20010904/DTD/svg10.dtd">
<svg version="1.0" xmlns="http://www.w3.org/2000/svg"
 width="192.000000pt" height="192.000000pt" viewBox="0 0 192.000000 192.000000"
 preserveAspectRatio="xMidYMid meet">
<metadata>
Created by potrace 1.16, written by Peter Selinger 2001-2019
</metadata>
<g transform="translate(0.000000,192.000000) scale(0.100000,-0.100000)"
fill="#000000" stroke="none">
<path d="M70 1904 c0 -8 5 -12 10 -9 6 4 8 11 5 16 -9 14 -15 11 -15 -7z"/>
<path d="M105 1911 c-3 -5 -1 -12 5 -16 5 -3 10 1 10 9 0 18 -6 21 -15 7z"/>
<path d="M137 1913 c-2 -5 -1 -19 3 -33 l6 -25 6 28 c5 26 -5 47 -15 30z"/>
<path d="M1766 1911 c-4 -5 -2 -12 3 -15 5 -4 12 -2 15 3 4 5 2 12 -3 15 -5 4
-12 2 -15 -3z"/>
<path d="M1800 1889 c0 -18 3 -29 7 -25 10 10 11 46 1 52 -4 3 -8 -9 -8 -27z"/>
<path d="M1835 1911 c-3 -5 -1 -12 5 -16 5 -3 10 1 10 9 0 18 -6 21 -15 7z"/>
<path d="M105 1870 c3 -5 8 -10 11 -10 2 0 4 5 4 10 0 6 -5 10 -11 10 -5 0 -7
-4 -4 -10z"/>
<path d="M6 1838 c3 -4 9 -8 15 -8 5 0 9 4 9 8 0 5 -7 9 -15 9 -8 0 -12 -4 -9
-9z"/>
<path d="M1835 1840 c3 -5 8 -10 11 -10 2 0 4 5 4 10 0 6 -5 10 -11 10 -5 0
-7 -4 -4 -10z"/>
<path d="M408 1823 c7 -3 16 -2 19 1 4 3 -2 6 -13 5 -11 0 -14 -3 -6 -6z"/>
<path d="M528 1823 c6 -2 18 -2 25 0 6 3 1 5 -13 5 -14 0 -19 -2 -12 -5z"/>
<path d="M570 1819 c0 -5 5 -7 10 -4 6 3 10 8 10 11 0 2 -4 4 -10 4 -5 0 -10
-5 -10 -11z"/>
<path d="M613 1823 c9 -2 23 -2 30 0 6 3 -1 5 -18 5 -16 0 -22 -2 -12 -5z"/>
<path d="M818 1823 c90 -2 234 -2 320 0 86 1 13 3 -163 3 -176 0 -247 -2 -157
-3z"/>
<path d="M1305 1820 c3 -5 8 -10 11 -10 2 0 4 5 4 10 0 6 -5 10 -11 10 -5 0
-7 -4 -4 -10z"/>
<path d="M1353 1823 c-7 -2 -13 -12 -13 -21 0 -14 1 -14 13 0 6 9 23 19 37 21
l25 4 -25 1 c-14 0 -31 -2 -37 -5z"/>
<path d="M5 1810 c-3 -5 1 -10 9 -10 9 0 16 5 16 10 0 6 -4 10 -9 10 -6 0 -13
-4 -16 -10z"/>
<path d="M50 1810 c0 -5 7 -10 16 -10 8 0 12 5 9 10 -3 6 -10 10 -16 10 -5 0
-9 -4 -9 -10z"/>
<path d="M1840 1810 c0 -5 5 -10 11 -10 5 0 7 5 4 10 -3 6 -8 10 -11 10 -2 0
-4 -4 -4 -10z"/>
<path d="M1885 1810 c-18 -8 -17 -9 8 -9 16 -1 26 3 22 9 -3 6 -7 10 -8 9 -1
0 -11 -4 -22 -9z"/>
<path d="M108 1803 c6 -2 18 -2 25 0 6 3 1 5 -13 5 -14 0 -19 -2 -12 -5z"/>
<path d="M1788 1803 c6 -2 18 -2 25 0 6 3 1 5 -13 5 -14 0 -19 -2 -12 -5z"/>
<path d="M453 1793 c9 -2 23 -2 30 0 6 3 -1 5 -18 5 -16 0 -22 -2 -12 -5z"/>
<path d="M513 1794 c9 -9 690 -12 757 -4 30 4 -129 8 -354 9 -225 0 -407 -2
-403 -5z"/>
<path d="M1373 1793 c9 -2 23 -2 30 0 6 3 -1 5 -18 5 -16 0 -22 -2 -12 -5z"/>
<path d="M5 1770 c3 -5 10 -10 16 -10 5 0 9 5 9 10 0 6 -7 10 -16 10 -8 0 -12
-4 -9 -10z"/>
<path d="M123 1773 c9 -2 23 -2 30 0 6 3 -1 5 -18 5 -16 0 -22 -2 -12 -5z"/>
<path d="M1888 1773 c6 -2 18 -2 25 0 6 3 1 5 -13 5 -14 0 -19 -2 -12 -5z"/>
<path d="M480 1763 c0 -5 64 -9 143 -10 78 0 162 -1 187 -2 l46 -1 -1 -77 c0
-43 3 -107 6 -143 4 -48 6 -30 7 73 1 75 5 137 10 137 4 0 7 -34 7 -75 0 -44
4 -75 10 -75 6 0 9 33 7 87 -2 56 1 83 7 74 7 -11 28 -12 107 -5 55 5 165 9
246 9 82 0 148 3 148 8 0 4 -209 7 -465 7 -256 0 -465 -3 -465 -7z"/>
<path d="M423 960 c0 -443 3 -782 7 -755 9 61 8 1452 -1 1515 -3 25 -6 -317
-6 -760z"/>
<path d="M450 955 c0 -445 3 -806 6 -802 9 9 13 234 13 807 0 584 -3 787 -13
797 -3 3 -6 -357 -6 -802z"/>
<path d="M1428 1725 c-6 -30 -3 -43 8 -33 3 4 4 19 2 35 l-3 28 -7 -30z"/>
<path d="M481 1518 c0 -130 4 -214 9 -202 4 11 8 100 8 198 0 97 3 180 6 183
3 4 6 -53 6 -125 0 -115 2 -132 16 -132 14 0 16 10 10 73 -10 122 -10 177 -1
179 5 2 8 -18 6 -44 -1 -30 2 -48 8 -48 6 0 11 16 11 35 0 30 3 35 24 35 13 0
26 7 30 15 4 11 11 13 29 6 27 -10 45 -10 64 2 6 4 13 3 15 -2 2 -6 21 -6 48
-1 25 4 47 4 50 0 8 -13 5 -648 -3 -656 -8 -8 -8 -32 -7 353 0 266 -1 302 -15
297 -10 -4 -13 -15 -9 -39 3 -23 1 -34 -10 -38 -11 -5 -14 -46 -15 -241 0
-140 4 -238 9 -241 6 -4 10 85 11 237 1 134 4 233 7 220 6 -20 8 -320 4 -438
-2 -39 -4 -41 -29 -38 -26 3 -27 3 -4 -4 34 -11 39 -32 7 -32 -14 0 -26 -4
-26 -10 0 -5 14 -10 31 -10 17 0 28 -4 24 -10 -3 -5 -12 -7 -20 -3 -8 3 -15 0
-15 -6 0 -6 17 -11 40 -11 l40 0 2 360 3 360 -182 0 -183 0 1 -222z m349 200
c0 -5 -77 -8 -171 -8 -93 0 -168 3 -166 8 3 4 80 7 171 7 91 0 166 -3 166 -7z
m-230 -28 c0 -5 -5 -10 -11 -10 -5 0 -7 5 -4 10 3 6 8 10 11 10 2 0 4 -4 4
-10z"/>
<path d="M997 1733 c-4 -3 -7 -177 -7 -385 0 -224 -4 -377 -9 -374 -5 3 -7 15
-4 26 3 11 0 20 -6 20 -6 0 -11 -13 -11 -30 l0 -30 60 0 c36 0 60 -4 60 -11 0
-5 5 -7 10 -4 18 11 1 23 -47 31 l-48 8 65 7 65 6 -62 1 -61 2 0 333 c-1 182
3 348 8 367 5 21 8 -109 9 -322 l1 -358 57 0 c57 0 64 14 13 23 -14 2 3 5 38
6 39 0 61 5 57 11 -3 6 -19 10 -35 10 -35 0 -60 9 -60 22 0 6 13 7 33 3 30 -6
31 -6 12 8 -10 8 -25 13 -32 10 -7 -3 -13 0 -13 7 0 6 4 9 9 6 5 -3 14 0 20 8
15 18 16 425 1 440 -8 8 -10 -51 -8 -212 3 -206 2 -222 -14 -222 -13 0 -18 -8
-18 -30 0 -16 -3 -30 -8 -30 -4 0 -8 115 -9 255 -1 211 2 255 13 255 17 0 19
61 3 77 -6 6 -8 17 -4 23 10 16 25 -6 25 -37 0 -12 5 -25 12 -29 8 -5 9 3 5
29 l-6 37 47 1 c69 2 85 -1 106 -19 18 -16 19 -16 13 1 -5 14 -1 17 31 16 20
-1 29 -3 20 -6 -16 -4 -18 -16 -16 -86 1 -46 3 -63 5 -39 2 23 9 42 15 42 7 0
8 -28 5 -82 -4 -52 -3 -72 2 -53 5 17 9 77 10 134 2 161 15 110 16 -64 1 -85
4 -158 8 -161 4 -4 7 70 7 164 l0 172 -175 0 c-96 0 -175 3 -175 8 0 4 82 7
183 7 l183 0 -2 -145 c-3 -281 -4 -301 -13 -296 -4 3 -7 -5 -5 -17 23 -167 33
-113 34 193 l1 280 -204 0 c-112 0 -207 -3 -210 -7z m53 -365 c0 -182 -3 -328
-7 -324 -11 10 -11 656 -1 656 4 0 8 -149 8 -332z m27 245 c-3 -10 -5 -2 -5
17 0 19 2 27 5 18 2 -10 2 -26 0 -35z m262 40 c0 -5 -4 -17 -9 -28 -8 -18 -9
-17 -9 8 -1 15 4 27 9 27 6 0 10 -3 9 -7z"/>
<path d="M935 1720 l-30 -8 28 -1 c17 -1 27 -7 27 -16 0 -8 4 -15 9 -15 5 0 9
11 9 25 0 14 -3 24 -7 24 -3 -1 -19 -5 -36 -9z"/>
<path d="M918 1683 c6 -2 18 -2 25 0 6 3 1 5 -13 5 -14 0 -19 -2 -12 -5z"/>
<path d="M390 960 c0 -398 3 -720 6 -717 9 8 9 1425 1 1434 -4 3 -7 -319 -7
-717z"/>
<path d="M640 1660 c0 -11 2 -20 4 -20 2 0 6 9 9 20 3 11 1 20 -4 20 -5 0 -9
-9 -9 -20z"/>
<path d="M1200 1638 c0 -49 5 -47 13 5 3 20 2 37 -4 37 -5 0 -9 -19 -9 -42z"/>
<path d="M1293 1640 c0 -25 2 -35 4 -22 2 12 2 32 0 45 -2 12 -4 2 -4 -23z"/>
<path d="M1423 1395 c-1 -164 2 -287 8 -290 5 -4 9 110 9 284 0 160 -4 291 -8
291 -4 0 -8 -128 -9 -285z"/>
<path d="M1459 1533 c-1 -82 -3 -200 -5 -263 -2 -63 -4 -197 -5 -297 -1 -101
-5 -180 -9 -178 -4 3 -10 -5 -14 -18 -8 -32 -2 -537 7 -537 4 0 7 122 7 270 0
149 3 270 8 270 4 0 8 -120 10 -267 2 -147 5 -270 8 -272 2 -2 4 320 4 717 0
397 -2 722 -5 722 -3 0 -5 -66 -6 -147z"/>
<path d="M920 1660 c0 -5 5 -10 11 -10 5 0 7 5 4 10 -3 6 -8 10 -11 10 -2 0
-4 -4 -4 -10z"/>
<path d="M960 1660 c0 -5 5 -10 10 -10 6 0 10 5 10 10 0 6 -4 10 -10 10 -5 0
-10 -4 -10 -10z"/>
<path d="M720 1623 c0 -12 -5 -23 -11 -25 -9 -3 -9 -12 -1 -33 l10 -30 1 33
c1 47 21 39 21 -9 0 -22 -3 -38 -7 -36 -5 3 -8 -69 -8 -159 0 -90 3 -164 8
-164 12 0 8 -48 -5 -53 -10 -4 -9 -8 2 -16 22 -15 28 446 6 487 -14 25 -15 25
-16 5z"/>
<path d="M960 1630 c0 -5 5 -10 11 -10 5 0 7 5 4 10 -3 6 -8 10 -11 10 -2 0
-4 -4 -4 -10z"/>
<path d="M1105 1600 c-3 -5 -1 -10 4 -10 6 0 11 5 11 10 0 6 -2 10 -4 10 -3 0
-8 -4 -11 -10z"/>
<path d="M363 1525 c0 -44 2 -61 4 -37 2 23 2 59 0 80 -2 20 -4 1 -4 -43z"/>
<path d="M935 1580 c-3 -5 1 -10 10 -10 9 0 13 5 10 10 -3 6 -8 10 -10 10 -2
0 -7 -4 -10 -10z"/>
<path d="M1293 1555 c0 -22 2 -30 4 -17 2 12 2 30 0 40 -3 9 -5 -1 -4 -23z"/>
<path d="M1080 1365 c0 -124 4 -214 9 -211 11 7 11 415 0 422 -5 3 -9 -92 -9
-211z"/>
<path d="M895 1530 c4 -6 11 -8 16 -5 14 9 11 15 -7 15 -8 0 -12 -5 -9 -10z"/>
<path d="M1518 1490 c-3 -16 -1 -30 4 -30 4 0 8 14 8 30 0 17 -2 30 -4 30 -2
0 -6 -13 -8 -30z"/>
<path d="M1592 1488 c-1 -20 -5 -45 -8 -55 -5 -17 -5 -17 6 0 6 9 9 34 7 55
l-4 37 -1 -37z"/>
<path d="M858 1453 c-2 -5 0 -48 3 -98 l5 -90 2 98 c2 87 -1 111 -10 90z"/>
<path d="M1187 1420 c3 -11 7 -20 9 -20 2 0 4 9 4 20 0 11 -4 20 -9 20 -5 0
-7 -9 -4 -20z"/>
<path d="M1483 960 c0 -264 4 -480 9 -480 4 0 8 216 8 480 0 273 -4 480 -9
480 -5 0 -9 -206 -8 -480z"/>
<path d="M1518 1405 c-2 -19 0 -35 4 -35 4 0 8 16 8 35 0 19 -2 35 -4 35 -2 0
-6 -16 -8 -35z"/>
<path d="M1553 1400 c0 -25 2 -35 4 -22 2 12 2 32 0 45 -2 12 -4 2 -4 -23z"/>
<path d="M341 1374 c0 -11 3 -14 6 -6 3 7 2 16 -1 19 -3 4 -6 -2 -5 -13z"/>
<path d="M362 841 c-1 -288 0 -522 2 -520 8 8 14 900 6 974 -3 39 -7 -166 -8
-454z"/>
<path d="M1371 1344 c0 -11 3 -14 6 -6 3 7 2 16 -1 19 -3 4 -6 -2 -5 -13z"/>
<path d="M1525 920 c0 -245 1 -345 2 -223 2 123 2 323 0 445 -1 123 -2 23 -2
-222z"/>
<path d="M1573 1280 c0 -47 2 -66 4 -42 2 23 2 61 0 85 -2 23 -4 4 -4 -43z"/>
<path d="M334 960 c0 -179 2 -252 3 -162 2 89 2 235 0 325 -1 89 -3 16 -3
-163z"/>
<path d="M483 1240 c0 -25 2 -35 4 -22 2 12 2 32 0 45 -2 12 -4 2 -4 -23z"/>
<path d="M525 1240 c0 -22 4 -40 10 -40 5 0 10 18 10 40 0 22 -5 40 -10 40 -6
0 -10 -18 -10 -40z"/>
<path d="M860 1180 c-3 -47 -4 -87 -3 -89 10 -15 13 18 11 90 l-3 84 -5 -85z"/>
<path d="M895 1190 c3 -5 10 -10 16 -10 5 0 9 5 9 10 0 6 -7 10 -16 10 -8 0
-12 -4 -9 -10z"/>
<path d="M1360 1165 c0 -19 2 -35 4 -35 2 0 6 16 8 35 2 19 0 35 -4 35 -4 0
-8 -16 -8 -35z"/>
<path d="M1572 1150 c0 -19 2 -27 5 -17 2 9 2 25 0 35 -3 9 -5 1 -5 -18z"/>
<path d="M1390 1140 c0 -5 5 -10 11 -10 5 0 7 5 4 10 -3 6 -8 10 -11 10 -2 0
-4 -4 -4 -10z"/>
<path d="M890 1113 c-6 -74 -5 -93 5 -93 6 0 9 20 7 48 -4 65 -9 83 -12 45z"/>
<path d="M1168 1083 c6 -2 18 -2 25 0 6 3 1 5 -13 5 -14 0 -19 -2 -12 -5z"/>
<path d="M1553 1050 c0 -25 2 -35 4 -22 2 12 2 32 0 45 -2 12 -4 2 -4 -23z"/>
<path d="M853 1050 c3 -39 17 -39 17 0 0 17 -4 30 -10 30 -5 0 -8 -13 -7 -30z"/>
<path d="M960 1055 c0 -14 4 -25 9 -25 5 0 8 11 7 25 -1 33 -16 33 -16 0z"/>
<path d="M1200 1050 c0 -5 5 -10 11 -10 5 0 7 5 4 10 -3 6 -8 10 -11 10 -2 0
-4 -4 -4 -10z"/>
<path d="M698 1043 c7 -3 16 -2 19 1 4 3 -2 6 -13 5 -11 0 -14 -3 -6 -6z"/>
<path d="M925 1040 c3 -5 8 -10 11 -10 2 0 4 5 4 10 0 6 -5 10 -11 10 -5 0 -7
-4 -4 -10z"/>
<path d="M1593 1005 c0 -27 2 -38 4 -22 2 15 2 37 0 50 -2 12 -4 0 -4 -28z"/>
<path d="M740 1030 c0 -6 -8 -10 -17 -8 -12 2 -19 -5 -23 -22 -4 -19 -11 -25
-30 -25 -23 0 -25 -4 -24 -43 1 -55 14 -68 14 -15 0 36 3 41 24 41 22 0 24 -4
21 -33 -4 -32 -4 -32 48 -42 l52 -10 -82 -2 c-51 0 -83 -5 -83 -12 0 -6 22 -9
58 -8 31 1 68 -3 82 -9 l25 -10 -25 -10 c-16 -7 -19 -11 -9 -11 24 -1 27 -42
22 -311 -5 -303 -1 -273 -40 -267 -20 4 -33 2 -33 -5 0 -6 -6 -6 -15 2 -12 10
-15 10 -15 0 0 -10 -3 -10 -15 0 -8 7 -15 8 -15 3 0 -15 -40 -8 -51 8 -7 11
-9 11 -9 -4 0 -10 -5 -15 -10 -12 -6 4 -8 11 -5 16 4 5 -8 9 -26 9 l-32 0 7
115 c5 99 4 115 -9 115 -13 0 -15 -21 -15 -132 0 -72 -2 -129 -5 -126 -3 3 -7
94 -9 202 -2 108 -6 200 -10 203 -3 3 -6 -96 -6 -221 l0 -227 190 3 c105 2
190 0 190 -4 0 -9 -4 -9 -219 -14 -84 -2 -156 -6 -159 -9 -3 -3 205 -5 462 -5
l467 0 -2 305 c0 193 -5 305 -11 305 -6 0 -8 -102 -6 -285 2 -157 0 -285 -4
-285 -7 0 -10 89 -10 295 0 63 -1 66 -9 32 -5 -21 -8 -95 -6 -163 1 -69 -1
-128 -5 -130 -5 -3 -8 32 -9 78 0 46 -4 106 -9 133 -7 47 -7 45 -9 -32 0 -48
-5 -83 -11 -83 -5 0 -10 -18 -10 -40 0 -30 4 -40 16 -40 8 0 13 -4 10 -8 -3
-5 -19 -7 -35 -4 -17 2 -28 8 -25 13 3 5 0 9 -5 9 -6 0 -11 -4 -11 -9 0 -11
-58 -20 -62 -10 -2 4 -22 4 -45 0 -23 -5 -44 -6 -47 -4 -2 3 0 18 4 34 7 23 5
29 -7 29 -8 0 -13 6 -10 13 2 6 13 11 23 9 16 -2 17 -1 4 7 -8 6 -24 11 -36
11 -21 0 -21 3 -21 240 1 207 3 240 16 240 11 0 11 3 -4 13 -12 10 -14 16 -7
21 7 4 12 4 12 -1 0 -4 5 -1 10 7 8 13 10 12 10 -2 0 -10 4 -18 8 -18 4 0 8 9
8 20 0 15 -7 20 -29 20 -15 0 -26 4 -23 9 3 5 19 7 36 5 16 -2 30 1 30 6 0 6
-25 10 -55 10 l-55 0 0 -345 c0 -190 3 -345 8 -345 4 0 7 151 6 335 0 185 3
338 8 341 4 3 8 -148 8 -335 l0 -341 162 0 c89 0 159 -3 156 -6 -9 -8 -358
-10 -358 -1 0 4 -4 7 -10 7 -5 0 -10 -8 -10 -18 0 -15 -6 -17 -36 -14 -24 3
-39 0 -45 -9 -5 -9 -9 27 -9 90 0 127 -10 128 -14 2 -7 -181 -16 -100 -16 144
0 137 -2 246 -4 244 -2 -2 -6 -102 -7 -222 -2 -120 -7 -221 -11 -223 -4 -3 -8
153 -8 345 l0 351 -60 0 -60 0 0 55 c0 34 4 55 11 55 7 0 9 -10 7 -25 -3 -14
-1 -25 3 -25 5 0 9 18 9 40 0 22 -2 40 -5 40 -3 0 -5 -5 -5 -10z m85 -481 c0
-230 -3 -329 -11 -329 -6 0 -10 10 -8 22 1 13 3 164 3 337 1 173 4 311 8 307
4 -4 8 -155 8 -337z m255 -260 c0 -16 -4 -28 -9 -25 -8 5 -3 56 5 56 2 0 4
-14 4 -31z m259 -21 c1 -5 -3 -8 -9 -8 -5 0 -10 12 -9 28 0 24 1 25 9 7 5 -11
9 -23 9 -27z m-246 -29 c-4 -4 -15 -4 -23 1 -13 8 -12 10 3 10 9 0 18 8 18 18
1 15 2 15 6 -2 3 -10 1 -22 -4 -27z m-543 -3 c0 -11 -19 -15 -25 -6 -3 5 1 10
9 10 9 0 16 -2 16 -4z m279 -31 c-9 -8 -330 -11 -335 -3 -3 4 72 8 167 8 95 0
170 -2 168 -5z m571 -35 c0 -10 -385 -8 -396 3 -4 4 83 7 194 7 121 0 202 -4
202 -10z"/>
<path d="M1140 1028 c0 -4 7 -8 15 -8 12 0 15 -14 15 -70 0 -59 2 -68 16 -63
9 3 12 9 7 12 -5 3 -9 35 -9 70 0 59 -2 65 -22 66 -12 1 -22 -2 -22 -7z"/>
<path d="M1230 1000 c0 -22 5 -40 10 -40 6 0 10 18 10 40 0 22 -4 40 -10 40
-5 0 -10 -18 -10 -40z"/>
<path d="M1200 985 c0 -27 3 -45 7 -41 7 7 5 77 -3 85 -2 2 -4 -17 -4 -44z"/>
<path d="M930 989 l0 -31 -65 4 c-40 2 -64 -1 -62 -7 2 -5 16 -9 30 -7 15 2
27 -1 27 -7 0 -7 -26 -11 -67 -11 -77 0 -81 -9 -5 -11 29 -1 55 -6 58 -11 3
-5 8 -62 10 -126 3 -63 7 -118 9 -121 3 -2 5 62 5 144 0 82 3 145 7 142 3 -4
7 -36 7 -71 1 -36 5 -68 9 -72 4 -4 7 27 7 69 0 75 14 105 23 50 4 -26 4 -26
6 5 0 17 5 32 9 32 4 0 8 14 7 30 0 17 -3 30 -7 30 -5 0 -8 -14 -8 -31z"/>
<path d="M764 999 c-2 -4 7 -9 21 -11 15 -3 25 -1 25 6 0 12 -39 16 -46 5z"/>
<path d="M825 1001 c-3 -5 -1 -12 5 -16 5 -3 10 1 10 9 0 18 -6 21 -15 7z"/>
<path d="M861 994 c0 -11 3 -14 6 -6 3 7 2 16 -1 19 -3 4 -6 -2 -5 -13z"/>
<path d="M1142 990 c0 -14 2 -19 5 -12 2 6 2 18 0 25 -3 6 -5 1 -5 -13z"/>
<path d="M891 984 c0 -11 3 -14 6 -6 3 7 2 16 -1 19 -3 4 -6 -2 -5 -13z"/>
<path d="M760 970 c0 -5 5 -10 10 -10 6 0 10 5 10 10 0 6 -4 10 -10 10 -5 0
-10 -4 -10 -10z"/>
<path d="M618 925 c2 -19 6 -35 8 -35 2 0 4 16 4 35 0 19 -4 35 -8 35 -4 0 -6
-16 -4 -35z"/>
<path d="M1110 950 c0 -5 9 -9 20 -7 31 5 36 17 7 17 -15 0 -27 -4 -27 -10z"/>
<path d="M678 915 c-3 -14 -1 -28 3 -31 5 -3 9 9 9 25 0 38 -6 40 -12 6z"/>
<path d="M968 933 l22 -4 0 -355 c0 -195 3 -354 8 -354 6 0 6 205 2 703 0 12
-8 17 -27 16 -24 -2 -25 -2 -5 -6z"/>
<path d="M1020 924 c0 -8 5 -12 10 -9 6 4 8 11 5 16 -9 14 -15 11 -15 -7z"/>
<path d="M1050 930 c0 -5 5 -10 11 -10 5 0 7 5 4 10 -3 6 -8 10 -11 10 -2 0
-4 -4 -4 -10z"/>
<path d="M1080 919 c0 -5 5 -7 10 -4 6 3 10 8 10 11 0 2 -4 4 -10 4 -5 0 -10
-5 -10 -11z"/>
<path d="M1110 920 c0 -5 5 -10 10 -10 6 0 10 5 10 10 0 6 -4 10 -10 10 -5 0
-10 -4 -10 -10z"/>
<path d="M1140 905 c0 -14 4 -25 9 -25 5 0 9 11 9 25 0 14 -4 25 -9 25 -5 0
-9 -11 -9 -25z"/>
<path d="M958 874 c2 -19 7 -34 11 -34 9 0 1 59 -8 64 -4 3 -5 -11 -3 -30z"/>
<path d="M920 850 c0 -5 5 -10 11 -10 5 0 7 5 4 10 -3 6 -8 10 -11 10 -2 0 -4
-4 -4 -10z"/>
<path d="M720 811 c0 -16 6 -31 15 -35 16 -6 20 18 9 48 -10 26 -24 18 -24
-13z"/>
<path d="M915 820 c-3 -5 1 -10 10 -10 9 0 13 5 10 10 -3 6 -8 10 -10 10 -2 0
-7 -4 -10 -10z"/>
<path d="M1100 798 c0 -11 5 -18 13 -16 18 7 20 35 2 35 -8 0 -15 -9 -15 -19z"/>
<path d="M767 793 c-10 -15 -6 -473 4 -473 5 0 9 97 9 240 0 132 -2 240 -4
240 -3 0 -7 -3 -9 -7z"/>
<path d="M1390 791 c0 -6 5 -13 10 -16 6 -3 10 1 10 9 0 9 -4 16 -10 16 -5 0
-10 -4 -10 -9z"/>
<path d="M1573 760 c0 -25 2 -35 4 -22 2 12 2 32 0 45 -2 12 -4 2 -4 -23z"/>
<path d="M1363 755 c0 -22 2 -30 4 -17 2 12 2 30 0 40 -3 9 -5 -1 -4 -23z"/>
<path d="M1080 554 c0 -118 4 -213 8 -210 5 3 9 96 9 206 0 111 3 204 7 207 3
4 6 -87 6 -200 0 -131 4 -207 10 -207 8 0 12 119 12 380 0 37 -2 40 -27 40
l-25 0 0 -216z"/>
<path d="M735 752 c-12 -8 -14 -363 -2 -355 4 2 7 -14 7 -36 0 -23 -4 -41 -8
-41 -5 0 -9 -7 -9 -16 0 -14 2 -14 14 2 10 13 13 70 13 236 0 120 -1 218 -2
218 -2 0 -7 -4 -13 -8z"/>
<path d="M960 748 c0 -9 -6 -19 -12 -21 -10 -4 -10 -6 0 -6 14 -1 28 26 18 36
-3 4 -6 -1 -6 -9z"/>
<path d="M480 706 c0 -9 5 -16 10 -16 6 0 10 4 10 9 0 6 -4 13 -10 16 -5 3
-10 -1 -10 -9z"/>
<path d="M1328 680 c2 -22 6 -40 8 -40 2 0 4 18 4 40 0 22 -3 40 -8 40 -4 0
-6 -18 -4 -40z"/>
<path d="M1552 700 c0 -14 2 -19 5 -12 2 6 2 18 0 25 -3 6 -5 1 -5 -13z"/>
<path d="M1592 700 c0 -14 2 -19 5 -12 2 6 2 18 0 25 -3 6 -5 1 -5 -13z"/>
<path d="M480 670 c0 -5 5 -10 11 -10 5 0 7 5 4 10 -3 6 -8 10 -11 10 -2 0 -4
-4 -4 -10z"/>
<path d="M1573 605 c0 -22 2 -30 4 -17 2 12 2 30 0 40 -3 9 -5 -1 -4 -23z"/>
<path d="M330 610 c0 -5 5 -10 10 -10 6 0 10 5 10 10 0 6 -4 10 -10 10 -5 0
-10 -4 -10 -10z"/>
<path d="M335 570 c3 -5 8 -10 11 -10 2 0 4 5 4 10 0 6 -5 10 -11 10 -5 0 -7
-4 -4 -10z"/>
<path d="M1584 555 c-3 -14 -2 -51 3 -83 l10 -57 -1 82 c-1 46 -2 83 -3 83 -2
0 -5 -11 -9 -25z"/>
<path d="M553 520 c0 -25 2 -35 4 -22 2 12 2 32 0 45 -2 12 -4 2 -4 -23z"/>
<path d="M1553 520 c0 -25 2 -35 4 -22 2 12 2 32 0 45 -2 12 -4 2 -4 -23z"/>
<path d="M512 520 c0 -14 2 -19 5 -12 2 6 2 18 0 25 -3 6 -5 1 -5 -13z"/>
<path d="M1168 483 c6 -2 18 -2 25 0 6 3 1 5 -13 5 -14 0 -19 -2 -12 -5z"/>
<path d="M695 470 c4 -6 11 -8 16 -5 14 9 11 15 -7 15 -8 0 -12 -5 -9 -10z"/>
<path d="M1522 425 c0 -16 2 -22 5 -12 2 9 2 23 0 30 -3 6 -5 -1 -5 -18z"/>
<path d="M342 380 c0 -14 2 -19 5 -12 2 6 2 18 0 25 -3 6 -5 1 -5 -13z"/>
<path d="M920 385 c0 -8 2 -15 4 -15 2 0 6 7 10 15 3 8 1 15 -4 15 -6 0 -10
-7 -10 -15z"/>
<path d="M1300 368 c0 -36 9 -33 16 6 2 14 0 26 -6 26 -5 0 -10 -14 -10 -32z"/>
<path d="M890 379 c0 -5 5 -7 10 -4 6 3 10 8 10 11 0 2 -4 4 -10 4 -5 0 -10
-5 -10 -11z"/>
<path d="M1492 350 c0 -19 2 -27 5 -17 2 9 2 25 0 35 -3 9 -5 1 -5 -18z"/>
<path d="M920 335 c0 -15 4 -24 10 -20 6 3 10 12 10 20 0 8 -4 17 -10 20 -6 4
-10 -5 -10 -20z"/>
<path d="M548 313 c7 -3 16 -2 19 1 4 3 -2 6 -13 5 -11 0 -14 -3 -6 -6z"/>
<path d="M1200 280 c0 -30 4 -40 16 -40 12 0 14 4 7 13 -6 6 -8 24 -6 40 2 15
-1 27 -7 27 -5 0 -10 -18 -10 -40z"/>
<path d="M1265 310 c3 -5 8 -10 11 -10 2 0 4 5 4 10 0 6 -5 10 -11 10 -5 0 -7
-4 -4 -10z"/>
<path d="M1293 280 c0 -25 2 -35 4 -22 2 12 2 32 0 45 -2 12 -4 2 -4 -23z"/>
<path d="M540 286 c0 -9 5 -16 10 -16 6 0 10 4 10 9 0 6 -4 13 -10 16 -5 3
-10 -1 -10 -9z"/>
<path d="M960 289 c0 -5 5 -7 10 -4 6 3 10 8 10 11 0 2 -4 4 -10 4 -5 0 -10
-5 -10 -11z"/>
<path d="M362 260 c0 -14 2 -19 5 -12 2 6 2 18 0 25 -3 6 -5 1 -5 -13z"/>
<path d="M320 256 c0 -9 5 -16 10 -16 6 0 10 4 10 9 0 6 -4 13 -10 16 -5 3
-10 -1 -10 -9z"/>
<path d="M920 259 c0 -5 5 -7 10 -4 6 3 10 8 10 11 0 2 -4 4 -10 4 -5 0 -10
-5 -10 -11z"/>
<path d="M960 259 c0 -5 5 -7 10 -4 6 3 10 8 10 11 0 2 -4 4 -10 4 -5 0 -10
-5 -10 -11z"/>
<path d="M915 230 c3 -5 12 -7 20 -3 21 7 19 13 -6 13 -11 0 -18 -4 -14 -10z"/>
<path d="M960 230 c0 -5 5 -10 10 -10 6 0 10 5 10 10 0 6 -4 10 -10 10 -5 0
-10 -4 -10 -10z"/>
<path d="M1426 203 c10 -40 14 -41 14 -5 0 18 -5 32 -10 32 -6 0 -8 -11 -4
-27z"/>
<path d="M1461 214 c0 -11 3 -14 6 -6 3 7 2 16 -1 19 -3 4 -6 -2 -5 -13z"/>
<path d="M913 204 c10 -11 67 -13 67 -3 0 5 -16 9 -37 9 -20 0 -33 -3 -30 -6z"/>
<path d="M5 150 c-3 -5 1 -10 9 -10 9 0 16 5 16 10 0 6 -4 10 -9 10 -6 0 -13
-4 -16 -10z"/>
<path d="M1890 150 c0 -5 7 -10 16 -10 8 0 12 5 9 10 -3 6 -10 10 -16 10 -5 0
-9 -4 -9 -10z"/>
<path d="M128 143 c6 -2 18 -2 25 0 6 3 1 5 -13 5 -14 0 -19 -2 -12 -5z"/>
<path d="M1773 143 c9 -2 25 -2 35 0 9 3 1 5 -18 5 -19 0 -27 -2 -17 -5z"/>
<path d="M555 130 c-60 -4 88 -7 329 -8 242 -1 436 1 432 5 -9 9 -600 11 -761
3z"/>
<path d="M1373 123 c9 -2 23 -2 30 0 6 3 -1 5 -18 5 -16 0 -22 -2 -12 -5z"/>
<path d="M1427 123 c-3 -5 -1 -17 4 -28 7 -17 8 -17 8 8 1 27 -4 34 -12 20z"/>
<path d="M5 110 c3 -5 10 -10 16 -10 5 0 9 5 9 10 0 6 -7 10 -16 10 -8 0 -12
-4 -9 -10z"/>
<path d="M50 110 c0 -5 5 -10 10 -10 6 0 10 5 10 10 0 6 -4 10 -10 10 -5 0
-10 -4 -10 -10z"/>
<path d="M108 113 c6 -2 18 -2 25 0 6 3 1 5 -13 5 -14 0 -19 -2 -12 -5z"/>
<path d="M1808 113 c7 -3 16 -2 19 1 4 3 -2 6 -13 5 -11 0 -14 -3 -6 -6z"/>
<path d="M1850 110 c0 -5 5 -10 10 -10 6 0 10 5 10 10 0 6 -4 10 -10 10 -5 0
-10 -4 -10 -10z"/>
<path d="M1890 110 c0 -5 4 -10 9 -10 6 0 13 5 16 10 3 6 -1 10 -9 10 -9 0
-16 -4 -16 -10z"/>
<path d="M955 100 l-300 -5 280 -4 c154 -1 290 -4 303 -5 13 -2 22 3 22 11 0
7 -1 12 -2 11 -2 -2 -138 -5 -303 -8z"/>
<path d="M1290 100 l-25 -8 28 -1 c15 -1 27 4 27 9 0 6 -1 10 -2 9 -2 -1 -14
-5 -28 -9z"/>
<path d="M408 93 c6 -2 18 -2 25 0 6 3 1 5 -13 5 -14 0 -19 -2 -12 -5z"/>
<path d="M528 93 c6 -2 18 -2 25 0 6 3 1 5 -13 5 -14 0 -19 -2 -12 -5z"/>
<path d="M613 93 c9 -2 23 -2 30 0 6 3 -1 5 -18 5 -16 0 -22 -2 -12 -5z"/>
<path d="M1368 93 c6 -2 18 -2 25 0 6 3 1 5 -13 5 -14 0 -19 -2 -12 -5z"/>
<path d="M6 82 c-3 -5 1 -9 9 -9 8 0 15 4 15 9 0 10 -17 10 -24 0z"/>
<path d="M1890 80 c0 -5 7 -10 16 -10 8 0 12 5 9 10 -3 6 -10 10 -16 10 -5 0
-9 -4 -9 -10z"/>
<path d="M103 40 c0 -22 3 -40 8 -40 5 0 9 18 9 40 0 52 -15 52 -17 0z"/>
<path d="M143 40 c0 -25 2 -35 4 -22 2 12 2 32 0 45 -2 12 -4 2 -4 -23z"/>
<path d="M1768 40 c-2 -22 0 -40 4 -40 5 0 8 18 8 40 0 22 -2 40 -4 40 -2 0
-6 -18 -8 -40z"/>
<path d="M1800 40 c0 -22 4 -40 8 -40 4 0 8 18 7 40 0 22 -3 40 -7 40 -5 0 -8
-18 -8 -40z"/>
<path d="M77 26 c-4 -10 -5 -21 -2 -24 9 -9 17 6 13 25 -3 17 -4 17 -11 -1z"/>
<path d="M1830 15 c0 -8 5 -15 10 -15 6 0 10 7 10 15 0 8 -4 15 -10 15 -5 0
-10 -7 -10 -15z"/>
</g>
</svg>
