<?xml version="1.0" standalone="no"?>
<!DOCTYPE svg PUBLIC "-//W3C//DTD SVG 20010904//EN"
 "http://www.w3.org/TR/2001/REC-SVG-20010904/DTD/svg10.dtd">
<svg version="1.0" xmlns="http://www.w3.org/2000/svg"
 width="100.000000pt" height="100.000000pt" viewBox="0 0 100.000000 100.000000"
 preserveAspectRatio="xMidYMid meet">
<metadata>
Created by potrace 1.16, written by Peter Selinger 2001-2019
</metadata>
<g transform="translate(0.000000,100.000000) scale(0.100000,-0.100000)"
fill="#000000" stroke="none">
<path d="M230 970 l0 -30 -115 0 c-70 0 -115 -4 -115 -10 0 -6 45 -10 115 -10
l115 0 0 -65 0 -65 30 0 30 0 0 -90 0 -90 30 0 c20 0 30 -5 30 -15 0 -12 -13
-15 -60 -15 -60 0 -60 0 -60 -30 0 -28 -1 -29 -57 -32 -55 -3 -58 -4 -61 -30
-3 -25 -8 -28 -38 -28 l-34 0 0 -50 0 -50 145 0 145 0 0 30 c0 29 2 30 45 30
25 0 45 -4 45 -10 0 -5 -16 -10 -35 -10 l-35 0 0 -65 0 -65 -30 0 -30 0 0 -60
0 -60 -30 0 -30 0 0 -75 c0 -43 4 -75 10 -75 6 0 10 28 10 65 0 58 2 65 20 65
14 0 20 -7 20 -24 0 -13 -6 -27 -12 -30 -10 -5 -10 -7 0 -12 6 -3 12 -19 12
-35 0 -16 5 -29 10 -29 6 0 10 48 10 125 l0 125 25 0 c19 0 23 -4 18 -17 -4
-10 -14 -23 -22 -30 -14 -11 -12 -12 12 -13 l27 0 0 95 0 95 29 0 c25 0 28 -3
23 -25 -2 -14 -10 -25 -18 -25 -7 0 -16 -4 -19 -10 -4 -6 7 -10 24 -10 l31 0
0 65 0 65 -120 0 c-73 0 -120 -4 -120 -10 0 -5 11 -10 24 -10 13 0 27 -6 30
-12 5 -10 7 -10 12 0 10 20 44 15 44 -8 0 -19 -7 -20 -125 -20 l-125 0 0 30 0
30 65 0 65 0 0 30 0 30 90 0 90 0 0 27 0 27 -20 -22 c-26 -28 -40 -28 -40 1
-1 20 -2 21 -14 5 -18 -24 -46 -23 -46 2 0 18 7 20 60 20 l60 0 0 95 c0 88 -1
95 -20 95 -24 0 -25 -6 -5 -26 21 -22 19 -34 -7 -34 -21 -1 -22 -2 -5 -14 23
-18 22 -46 -3 -46 -19 0 -20 7 -20 185 0 129 -3 185 -11 185 -7 0 -10 -12 -7
-30 3 -20 0 -30 -9 -30 -7 0 -13 -4 -13 -10 0 -5 5 -10 10 -10 14 0 12 -47 -2
-54 -10 -5 -10 -7 0 -12 20 -10 15 -44 -8 -44 -19 0 -20 7 -20 95 0 57 -4 95
-10 95 -5 0 -10 -13 -10 -30z m-57 -489 c-3 -11 -13 -21 -24 -24 -15 -4 -19 0
-19 19 0 19 5 24 24 24 19 0 23 -4 19 -19z"/>
<path d="M690 875 l0 -125 -29 0 c-24 0 -28 3 -24 20 3 11 12 20 19 20 8 0 14
5 14 10 0 6 -9 10 -19 10 -14 0 -18 5 -14 20 3 11 12 20 19 20 8 0 14 5 14 10
0 6 -11 10 -25 10 l-25 0 0 -120 0 -120 -25 0 c-19 0 -23 4 -18 18 4 9 14 22
22 29 14 11 12 12 -11 13 l-28 0 0 -95 0 -95 125 0 125 0 0 -27 0 -27 20 22
c11 12 20 24 20 27 0 3 -9 5 -20 5 -13 0 -20 7 -20 20 0 11 -4 20 -10 20 -5 0
-10 -4 -10 -9 0 -5 -9 -11 -20 -14 -16 -4 -20 0 -20 19 0 23 3 24 60 24 l60 0
0 -60 0 -60 -90 0 -90 0 0 -27 c1 -24 2 -26 13 -12 7 8 20 18 30 22 13 5 17 1
17 -18 0 -25 -1 -25 -95 -25 l-95 0 0 -65 c0 -64 0 -65 28 -65 24 1 25 2 10
14 -21 15 -24 42 -5 50 10 5 10 7 0 12 -20 9 -15 34 7 34 19 0 20 -7 20 -150
l0 -150 25 0 c14 0 25 5 25 10 0 6 -7 10 -15 10 -8 0 -15 4 -15 9 0 5 -3 16
-6 24 -4 11 3 17 23 20 27 4 27 5 6 12 -32 11 -31 45 2 45 25 0 25 0 25 -95 0
-57 4 -95 10 -95 6 0 10 42 10 105 l0 105 -35 0 -35 0 0 75 0 75 65 0 65 0 0
30 0 30 60 0 60 0 0 80 0 80 -80 0 -80 0 0 -30 0 -30 -75 0 c-72 0 -105 15
-47 22 l27 3 3 93 3 92 34 0 35 0 0 95 0 95 145 0 c90 0 145 4 145 10 0 6 -46
10 -118 10 l-119 0 5 30 c3 18 0 30 -7 30 -6 0 -11 -13 -11 -30 0 -25 -4 -30
-23 -30 -20 0 -23 4 -19 30 3 18 0 30 -7 30 -7 0 -11 -40 -11 -125z m-70 -285
c0 -23 -4 -30 -20 -30 -26 0 -28 46 -2 53 9 3 18 5 20 6 1 0 2 -12 2 -29z"/>
<path d="M620 915 c0 -14 5 -25 10 -25 6 0 10 7 10 15 0 8 7 15 15 15 8 0 15
5 15 10 0 6 -11 10 -25 10 -20 0 -25 -5 -25 -25z"/>
<path d="M390 620 c0 -5 7 -10 15 -10 8 0 15 -7 15 -15 0 -8 -7 -15 -15 -15
-8 0 -15 -4 -15 -10 0 -5 11 -10 25 -10 22 0 25 4 25 35 0 31 -3 35 -25 35
-14 0 -25 -4 -25 -10z"/>
<path d="M500 505 c0 -56 -4 -62 -30 -45 -13 8 -12 11 5 24 19 15 19 15 -8 16
-25 0 -28 -3 -25 -27 3 -28 3 -28 91 -31 79 -3 87 -5 87 -22 0 -11 5 -20 10
-20 6 0 10 4 10 9 0 5 10 12 23 16 20 7 19 8 -10 12 -25 3 -33 9 -33 24 0 10
-4 19 -10 19 -5 0 -10 -4 -10 -9 0 -5 -9 -11 -20 -14 -15 -4 -20 0 -20 14 0
10 -4 19 -10 19 -5 0 -10 -7 -10 -15 0 -8 -4 -15 -10 -15 -14 0 -12 37 3 43
10 4 10 6 0 6 -19 1 -16 22 5 37 15 12 14 13 -10 14 -27 0 -28 -2 -28 -55z"/>
<path d="M381 484 c-7 -8 -10 -18 -6 -22 4 -4 10 -1 12 6 3 6 11 12 19 12 8 0
14 5 14 10 0 15 -23 11 -39 -6z"/>
<path d="M230 471 c0 -6 5 -13 10 -16 6 -3 10 1 10 9 0 9 -4 16 -10 16 -5 0
-10 -4 -10 -9z"/>
<path d="M750 470 c0 -5 5 -10 10 -10 6 0 10 5 10 10 0 6 -4 10 -10 10 -5 0
-10 -4 -10 -10z"/>
<path d="M110 410 c0 -5 5 -10 10 -10 6 0 10 5 10 10 0 6 -4 10 -10 10 -5 0
-10 -4 -10 -10z"/>
<path d="M473 405 c-18 -20 -16 -25 7 -25 13 0 20 7 20 20 0 23 -10 25 -27 5z"/>
<path d="M560 210 c0 -13 7 -20 20 -20 24 0 25 6 6 26 -20 19 -26 18 -26 -6z"/>
<path d="M343 155 c-18 -20 -16 -25 7 -25 13 0 20 7 20 20 0 23 -10 25 -27 5z"/>
<path d="M620 20 c0 -11 5 -20 10 -20 6 0 10 9 10 20 0 11 -4 20 -10 20 -5 0
-10 -9 -10 -20z"/>
</g>
</svg>
