<?xml version="1.0" standalone="no"?>
<!DOCTYPE svg PUBLIC "-//W3C//DTD SVG 20010904//EN"
 "http://www.w3.org/TR/2001/REC-SVG-20010904/DTD/svg10.dtd">
<svg version="1.0" xmlns="http://www.w3.org/2000/svg"
 width="196.000000pt" height="196.000000pt" viewBox="0 0 196.000000 196.000000"
 preserveAspectRatio="xMidYMid meet">
<metadata>
Created by potrace 1.16, written by Peter Selinger 2001-2019
</metadata>
<g transform="translate(0.000000,196.000000) scale(0.100000,-0.100000)"
fill="#000000" stroke="none">
<path d="M340 1496 c-108 -24 -171 -72 -212 -161 -23 -49 -23 -57 -26 -447
l-3 -398 296 0 296 0 92 66 c123 89 217 134 280 134 57 0 70 -6 234 -112 101
-66 134 -82 172 -86 63 -6 114 18 153 72 55 75 56 82 16 123 l-37 36 -27 -19
c-76 -54 -75 -54 -105 -38 -39 20 -107 118 -125 182 -25 85 -16 180 22 234 57
82 244 183 439 236 l70 19 3 55 3 55 -38 7 c-127 21 -241 -3 -448 -93 -76 -34
-147 -61 -157 -61 -31 0 -85 59 -125 135 l-38 75 -340 -1 c-229 0 -358 -5
-395 -13z m744 -68 c44 -93 110 -158 161 -158 9 0 77 27 152 60 190 84 260
105 361 104 45 -1 84 -3 86 -5 2 -2 6 -18 9 -36 6 -31 6 -32 -51 -48 -239 -65
-424 -169 -471 -264 -57 -114 -20 -299 81 -405 54 -56 97 -62 146 -21 17 14
35 25 41 25 11 0 31 -32 31 -50 0 -21 -82 -99 -115 -110 -44 -14 -87 4 -215
90 -137 92 -190 114 -259 107 -70 -8 -167 -56 -284 -142 l-88 -65 -207 2
c-206 3 -207 3 -174 21 19 10 41 16 49 13 8 -4 36 6 62 22 25 15 165 93 310
172 212 117 276 157 327 205 45 42 64 68 64 85 1 37 -121 287 -142 293 -35 10
-21 55 33 113 29 30 55 54 58 53 3 0 19 -27 35 -61z m-128 12 c-27 -30 -36
-49 -36 -75 l0 -35 -250 0 c-267 0 -294 -4 -335 -50 -17 -19 -21 -39 -23 -131
l-4 -109 176 0 176 0 0 -80 0 -80 -175 0 -175 0 0 -150 0 -150 -47 -30 c-36
-22 -60 -30 -95 -30 l-48 0 0 334 c0 418 8 465 93 548 72 70 115 77 471 77
l308 1 -36 -40z m4 -152 c0 -7 26 -66 58 -131 58 -118 58 -119 41 -147 -23
-37 -104 -101 -182 -144 -34 -19 -154 -85 -267 -147 -113 -62 -222 -123 -242
-136 l-38 -23 0 150 0 150 178 0 177 0 -2 102 -1 103 -176 0 -176 0 0 68 c0
37 6 83 14 101 27 65 30 66 338 66 216 0 278 -3 278 -12z"/>
</g>
</svg>
