<?xml version="1.0" standalone="no"?>
<!DOCTYPE svg PUBLIC "-//W3C//DTD SVG 20010904//EN"
 "http://www.w3.org/TR/2001/REC-SVG-20010904/DTD/svg10.dtd">
<svg version="1.0" xmlns="http://www.w3.org/2000/svg"
 width="100.000000pt" height="100.000000pt" viewBox="0 0 100.000000 100.000000"
 preserveAspectRatio="xMidYMid meet">
<metadata>
Created by potrace 1.16, written by Peter Selinger 2001-2019
</metadata>
<g transform="translate(0.000000,100.000000) scale(0.100000,-0.100000)"
fill="#000000" stroke="none">
<path d="M310 970 c0 -27 -3 -30 -30 -30 -28 0 -30 -3 -30 -35 l0 -35 -60 0
-60 0 0 -60 0 -60 -35 0 c-32 0 -35 -2 -35 -30 0 -27 -3 -30 -30 -30 -17 0
-30 -5 -30 -11 0 -7 12 -10 30 -7 26 4 30 1 30 -19 0 -19 -5 -23 -30 -23 -17
0 -30 -4 -30 -10 0 -5 9 -10 20 -10 15 0 20 -7 20 -25 0 -18 -5 -25 -20 -25
-11 0 -20 -4 -20 -10 0 -5 9 -10 20 -10 27 0 25 -28 -2 -33 l-23 -4 23 -2 c29
-1 32 -41 2 -41 -11 0 -20 -4 -20 -10 0 -5 9 -10 20 -10 13 0 20 -7 20 -20 0
-13 -7 -20 -20 -20 -11 0 -20 -4 -20 -10 0 -5 13 -10 30 -10 26 0 30 -4 30
-28 0 -26 -3 -28 -30 -24 -18 3 -30 0 -30 -7 0 -6 13 -11 30 -11 27 0 30 -3
30 -30 0 -28 3 -30 35 -30 l35 0 0 -60 0 -60 280 0 280 0 0 30 c0 27 3 30 30
30 27 0 30 3 30 30 0 27 3 30 30 30 l30 0 0 95 0 95 -27 -1 c-17 -1 -21 -3
-10 -6 9 -2 17 -8 17 -13 0 -5 3 -15 6 -24 5 -12 0 -16 -20 -16 -14 0 -26 -4
-26 -10 0 -5 9 -10 20 -10 15 0 20 -7 20 -25 0 -23 -4 -25 -47 -25 -25 0 -44
-3 -40 -6 3 -4 24 -6 47 -6 28 1 40 -3 40 -14 0 -8 -10 -14 -24 -14 -14 0 -28
-4 -31 -10 -3 -5 -43 -10 -88 -11 -67 -1 -76 -2 -52 -10 17 -5 48 -9 70 -8 55
2 65 1 65 -11 0 -5 -22 -10 -49 -10 -27 0 -62 -7 -77 -15 -16 -8 -23 -15 -16
-15 6 0 12 -7 12 -15 0 -8 -9 -15 -20 -15 -13 0 -20 7 -20 20 0 18 -6 20 -67
19 l-68 -2 58 -9 c31 -6 57 -14 57 -19 0 -5 -34 -9 -75 -9 -62 0 -75 3 -75 16
0 23 -25 44 -54 44 -19 0 -26 5 -26 20 0 16 -7 20 -30 20 -27 0 -30 3 -30 30
0 23 -4 30 -20 30 -17 0 -20 7 -21 53 -1 28 -2 67 -4 85 -2 26 1 32 17 32 15
0 18 -5 13 -20 -4 -11 -2 -20 4 -20 6 0 11 9 11 20 0 15 7 20 24 20 22 0 25
-5 29 -42 l4 -43 1 43 c2 34 6 42 21 42 19 0 35 -25 26 -40 -3 -4 -1 -19 4
-32 8 -19 10 -14 10 29 1 48 2 51 24 45 39 -10 50 -41 15 -43 -16 -1 -18 -3
-7 -6 10 -2 20 -14 25 -26 6 -17 8 -10 11 29 4 48 6 51 26 46 12 -3 25 -10 29
-16 5 -7 8 -6 8 4 0 12 15 14 87 12 53 -2 91 -8 95 -15 5 -8 8 -6 8 6 0 23 36
23 49 0 9 -16 10 -16 11 5 l0 22 -300 0 -300 0 0 24 c0 13 6 27 13 29 10 4 10
6 0 6 -19 1 -16 51 2 51 8 0 15 5 15 10 0 6 -11 10 -25 10 l-25 0 0 -184 0
-183 -25 5 c-27 5 -36 42 -10 42 8 0 15 5 15 10 0 6 -7 10 -15 10 -8 0 -15 7
-15 15 0 8 7 15 15 15 8 0 15 5 15 10 0 6 -11 10 -25 10 l-25 0 0 125 0 125
25 0 c14 0 25 5 25 10 0 6 -6 10 -14 10 -7 0 -16 9 -19 20 -4 17 0 20 24 20
25 0 29 -4 29 -27 l0 -27 20 22 c11 12 20 24 20 27 0 3 -9 5 -20 5 -16 0 -20
7 -20 30 0 27 3 30 30 30 l30 0 0 -95 0 -95 30 0 30 0 0 65 0 65 30 0 c27 0
30 3 30 30 0 27 3 30 30 30 23 0 30 4 30 20 0 14 7 20 24 20 20 0 25 -7 34
-47 l10 -48 1 54 c1 44 4 52 17 47 9 -3 20 -6 24 -6 5 0 11 -19 13 -42 3 -41
4 -41 5 10 l2 52 -125 0 -125 0 0 30 c0 27 3 30 30 30 23 0 30 -4 30 -20 0
-24 6 -25 26 -6 19 20 18 26 -6 26 -16 0 -20 7 -20 30 0 23 4 30 20 30 13 0
20 -7 20 -20 0 -11 5 -20 10 -20 19 0 10 39 -10 45 -14 4 -20 15 -20 36 0 16
-4 29 -10 29 -5 0 -10 -13 -10 -30z m-20 -65 c0 -8 -4 -15 -10 -15 -5 0 -10 7
-10 15 0 8 5 15 10 15 6 0 10 -7 10 -15z m-100 -70 c0 -20 -5 -25 -24 -25 -19
0 -23 4 -19 19 3 11 12 22 22 24 9 3 17 5 19 6 1 0 2 -10 2 -24z m40 5 c0 -5
-4 -10 -10 -10 -5 0 -10 5 -10 10 0 6 5 10 10 10 6 0 10 -4 10 -10z m20 -60
c0 -27 -3 -30 -30 -30 -27 0 -30 3 -30 30 0 27 3 30 30 30 27 0 30 -3 30 -30z
m-80 0 c0 -5 -4 -10 -10 -10 -5 0 -10 5 -10 10 0 6 5 10 10 10 6 0 10 -4 10
-10z m140 -10 c0 -13 -7 -20 -20 -20 -13 0 -20 7 -20 20 0 13 7 20 20 20 13 0
20 -7 20 -20z m40 10 c0 -5 -4 -10 -10 -10 -5 0 -10 5 -10 10 0 6 5 10 10 10
6 0 10 -4 10 -10z m-240 -60 c0 -5 -7 -10 -15 -10 -8 0 -15 5 -15 10 0 6 7 10
15 10 8 0 15 -4 15 -10z m140 -10 c0 -13 -7 -20 -20 -20 -13 0 -20 7 -20 20 0
13 7 20 20 20 13 0 20 -7 20 -20z m40 10 c0 -5 -4 -10 -10 -10 -5 0 -10 5 -10
10 0 6 5 10 10 10 6 0 10 -4 10 -10z m-60 -60 c0 -5 -4 -10 -10 -10 -5 0 -10
5 -10 10 0 6 5 10 10 10 6 0 10 -4 10 -10z m6 -46 c-3 -9 -6 -20 -6 -25 0 -5
-4 -9 -10 -9 -5 0 -10 11 -10 25 0 16 6 25 16 25 11 0 14 -5 10 -16z m-46
-273 c0 -134 -1 -139 -20 -134 -22 6 -27 39 -8 45 9 3 8 9 -5 22 -23 24 -21
36 6 36 20 1 21 2 5 14 -10 7 -18 23 -18 35 0 13 6 21 18 21 16 1 16 1 0 14
-10 7 -18 21 -18 30 0 9 8 16 18 16 16 1 16 1 0 14 -23 17 -23 26 2 26 19 0
20 -7 20 -139z m40 -56 c0 -8 -4 -15 -10 -15 -5 0 -10 7 -10 15 0 8 5 15 10
15 6 0 10 -7 10 -15z m20 -65 c0 -27 3 -30 30 -30 25 0 30 -4 30 -25 0 -29
-12 -32 -36 -8 -13 13 -19 14 -22 5 -6 -19 -39 -14 -45 8 -4 15 0 20 16 20
l21 0 -22 20 c-29 27 -28 40 3 40 21 0 25 -5 25 -30z m40 0 c0 -5 -4 -10 -10
-10 -5 0 -10 5 -10 10 0 6 5 10 10 10 6 0 10 -4 10 -10z m-100 -55 c0 -29 -12
-32 -34 -9 -23 22 -20 34 9 34 20 0 25 -5 25 -25z m180 5 c0 -13 -7 -20 -19
-20 -10 0 -21 9 -24 20 -4 16 0 20 19 20 17 0 24 -6 24 -20z m303 0 c-3 -13
-14 -20 -29 -20 -17 0 -24 6 -24 20 0 15 7 20 29 20 24 0 28 -3 24 -20z"/>
<path d="M370 970 l0 -30 125 0 125 0 0 -25 c0 -14 5 -25 10 -25 6 0 10 7 10
15 0 8 7 15 15 15 8 0 15 -7 15 -15 0 -8 5 -15 10 -15 6 0 10 7 10 15 0 26 37
17 42 -10 4 -20 1 -25 -14 -25 -11 0 -16 -4 -13 -10 3 -5 23 -10 44 -10 30 0
40 -4 44 -20 3 -13 0 -20 -9 -20 -19 0 -18 -7 6 -32 17 -19 20 -19 20 -5 0 10
8 17 20 17 17 0 20 -7 20 -39 0 -22 5 -43 10 -46 6 -3 10 2 10 13 0 15 5 18
25 14 27 -5 36 -42 10 -42 -8 0 -15 -4 -15 -10 0 -5 7 -10 15 -10 9 0 15 -9
15 -25 0 -14 4 -25 9 -25 5 0 12 -12 14 -27 4 -27 4 -27 12 -5 4 12 16 22 26
22 11 0 19 5 19 10 0 6 -13 10 -30 10 l-30 0 0 60 0 60 -35 0 c-32 0 -35 2
-35 30 0 27 -3 30 -30 30 -27 0 -30 3 -30 30 0 27 -3 30 -30 30 -28 0 -30 3
-30 35 l0 35 -65 0 -65 0 0 30 c0 17 -4 30 -10 30 -5 0 -10 -8 -10 -19 0 -10
-9 -21 -20 -24 -16 -4 -20 0 -20 19 0 13 -4 24 -10 24 -5 0 -10 -9 -10 -20 0
-29 -37 -27 -43 3 l-4 22 -2 -22 c-1 -28 -31 -31 -31 -3 0 11 -4 20 -10 20 -5
0 -10 -9 -10 -20 0 -15 -7 -20 -25 -20 -18 0 -25 5 -25 20 0 11 -4 20 -10 20
-5 0 -10 -13 -10 -30z"/>
<path d="M670 975 c0 -14 5 -25 10 -25 6 0 10 11 10 25 0 14 -4 25 -10 25 -5
0 -10 -11 -10 -25z"/>
<path d="M190 915 c0 -14 5 -25 10 -25 6 0 10 5 10 11 0 7 8 18 18 25 15 12
14 13 -10 14 -23 0 -28 -4 -28 -25z"/>
<path d="M773 926 c9 -7 17 -18 17 -25 0 -6 5 -11 10 -11 6 0 10 11 10 25 0
21 -5 25 -27 25 -25 -1 -26 -2 -10 -14z"/>
<path d="M441 904 c0 -11 3 -14 6 -6 3 7 2 16 -1 19 -3 4 -6 -2 -5 -13z"/>
<path d="M501 904 c0 -11 3 -14 6 -6 3 7 2 16 -1 19 -3 4 -6 -2 -5 -13z"/>
<path d="M560 905 c0 -8 5 -15 10 -15 6 0 10 7 10 15 0 8 -4 15 -10 15 -5 0
-10 -7 -10 -15z"/>
<path d="M370 843 c1 -25 2 -26 14 -10 15 20 52 23 60 5 5 -10 7 -10 12 0 3 6
12 12 19 12 7 0 16 -6 18 -12 4 -10 6 -10 6 0 1 18 32 15 47 -5 13 -17 13 -17
14 0 0 9 7 17 16 17 9 0 23 -8 30 -17 13 -17 13 -17 14 0 0 11 8 17 21 17 12
0 28 -8 35 -17 12 -16 13 -15 14 10 l0 27 -160 0 -160 0 0 -27z"/>
<path d="M830 857 c8 -7 21 -19 28 -27 10 -12 12 -9 12 13 0 23 -4 27 -27 27
-24 -1 -26 -3 -13 -13z"/>
<path d="M60 783 c1 -25 2 -26 14 -10 7 9 18 17 25 17 6 0 11 5 11 10 0 6 -11
10 -25 10 -21 0 -25 -5 -25 -27z"/>
<path d="M515 800 c3 -5 12 -10 20 -10 7 0 16 -6 18 -12 4 -9 6 -7 6 3 1 24
51 12 51 -12 0 -11 -7 -19 -17 -20 -11 0 -13 -3 -5 -6 7 -3 12 -24 12 -53 0
-66 7 -80 41 -80 32 0 43 -30 12 -31 -10 0 -48 -1 -85 -2 l-68 -2 0 57 c0 32
-4 58 -9 58 -5 0 -7 -25 -4 -55 2 -32 0 -55 -6 -55 -5 0 -16 -3 -25 -6 -14 -5
-16 3 -16 55 0 34 -4 61 -9 61 -5 0 -7 -25 -4 -55 3 -44 1 -55 -11 -55 -8 0
-21 -3 -30 -6 -14 -5 -16 3 -16 55 0 57 -2 61 -22 61 -19 -1 -20 -2 -7 -10 18
-10 26 -100 9 -100 -4 0 -15 -3 -24 -6 -13 -5 -16 3 -18 47 l-2 54 -3 -46 c-3
-37 -9 -49 -26 -55 -13 -5 65 -10 193 -11 122 -2 219 -8 224 -13 6 -6 31 -10
57 -10 29 0 49 -5 52 -12 3 -7 6 -3 6 10 1 20 -3 22 -59 22 -57 0 -60 1 -60
25 0 20 5 25 24 25 15 0 26 -7 29 -17 4 -17 5 -17 6 0 2 28 58 23 64 -5 l4
-23 8 23 c13 39 25 24 25 -32 0 -34 -5 -56 -12 -59 -10 -4 -10 -6 0 -6 20 -1
15 -81 -5 -97 -17 -13 -17 -13 0 -14 11 0 17 -8 17 -21 0 -12 -8 -28 -17 -35
-16 -12 -15 -13 10 -14 l27 0 0 190 0 190 -30 0 c-27 0 -30 3 -30 30 0 27 -3
30 -30 30 -27 0 -30 3 -30 30 l0 30 -121 0 c-77 0 -118 -4 -114 -10z m215 -21
c0 -5 -22 -9 -50 -9 -27 0 -50 -4 -50 -10 0 -5 10 -10 23 -10 20 0 23 -4 19
-30 -2 -17 -10 -30 -18 -30 -8 0 -14 -4 -14 -10 0 -5 7 -10 15 -10 8 0 15 -9
15 -20 0 -15 -7 -20 -25 -20 -25 0 -25 1 -25 83 l0 82 55 -3 c30 -2 55 -8 55
-13z m20 -85 c0 -37 4 -53 11 -48 6 3 9 15 6 25 -4 15 0 19 19 19 20 0 24 -5
24 -30 l0 -30 -60 0 -60 0 0 60 0 60 30 0 c30 0 30 0 30 -56z m40 26 c0 -5 -4
-10 -10 -10 -5 0 -10 5 -10 10 0 6 5 10 10 10 6 0 10 -4 10 -10z m60 -70 c0
-11 -6 -20 -14 -20 -9 0 -12 7 -9 20 3 11 9 20 14 20 5 0 9 -9 9 -20z"/>
<path d="M710 700 c0 -5 7 -10 16 -10 8 0 12 5 9 10 -3 6 -10 10 -16 10 -5 0
-9 -4 -9 -10z"/>
<path d="M890 800 c0 -5 7 -10 15 -10 8 0 15 -4 15 -10 0 -5 5 -10 10 -10 6 0
10 9 10 20 0 15 -7 20 -25 20 -14 0 -25 -4 -25 -10z"/>
<path d="M955 680 c3 -5 15 -10 26 -10 10 0 19 5 19 10 0 6 -12 10 -26 10 -14
0 -23 -4 -19 -10z"/>
<path d="M80 550 c0 -5 7 -10 15 -10 8 0 15 5 15 10 0 6 -7 10 -15 10 -8 0
-15 -4 -15 -10z"/>
<path d="M940 533 c1 -25 2 -26 14 -10 7 9 21 17 30 17 9 0 16 5 16 10 0 6
-13 10 -30 10 -26 0 -30 -4 -30 -27z"/>
<path d="M80 490 c0 -5 7 -10 15 -10 8 0 15 5 15 10 0 6 -7 10 -15 10 -8 0
-15 -4 -15 -10z"/>
<path d="M779 491 c7 -5 17 -15 22 -22 6 -10 9 -8 9 9 0 16 -6 22 -22 22 -17
0 -19 -3 -9 -9z"/>
<path d="M940 470 c0 -27 3 -30 30 -30 17 0 30 5 30 10 0 6 -9 10 -20 10 -11
0 -20 5 -20 10 0 6 9 10 20 10 11 0 20 5 20 10 0 6 -13 10 -30 10 -27 0 -30
-3 -30 -30z"/>
<path d="M80 430 c0 -5 7 -10 15 -10 8 0 15 5 15 10 0 6 -7 10 -15 10 -8 0
-15 -4 -15 -10z"/>
<path d="M469 431 c7 -5 17 -15 22 -22 6 -10 9 -8 9 9 0 16 -6 22 -22 22 -17
0 -19 -3 -9 -9z"/>
<path d="M520 436 c0 -2 9 -6 20 -9 11 -3 20 -1 20 4 0 5 -9 9 -20 9 -11 0
-20 -2 -20 -4z"/>
<path d="M585 430 c27 -12 35 -12 35 0 0 6 -12 10 -27 9 -25 0 -26 -1 -8 -9z"/>
<path d="M655 430 c27 -12 35 -12 35 0 0 6 -12 10 -27 9 -25 0 -26 -1 -8 -9z"/>
<path d="M710 433 c8 -3 21 -12 28 -21 10 -14 12 -13 12 6 0 18 -6 22 -27 21
-16 0 -21 -3 -13 -6z"/>
<path d="M940 400 c0 -11 -4 -20 -10 -20 -5 0 -10 -25 -10 -55 0 -54 0 -55
-30 -55 -16 0 -30 -4 -30 -10 0 -5 -7 -10 -15 -10 -8 0 -15 -4 -15 -10 0 -5 5
-10 10 -10 6 0 10 -4 10 -10 0 -12 -37 -14 -42 -2 -2 4 -11 0 -20 -10 -10 -10
-13 -18 -8 -18 6 0 10 -9 10 -20 0 -17 -7 -20 -40 -20 -22 0 -40 -4 -40 -10 0
-5 5 -10 10 -10 6 0 10 -11 10 -25 0 -30 -36 -36 -43 -7 -4 16 -5 16 -6 0 -1
-11 -9 -18 -20 -18 -11 0 -23 -4 -26 -10 -3 -6 4 -10 18 -10 20 0 23 -4 19
-30 -3 -18 0 -30 7 -30 6 0 11 13 11 30 l0 30 60 0 60 0 0 31 c0 17 -4 28 -10
24 -5 -3 -10 -12 -10 -20 0 -11 -20 -25 -36 -25 -2 0 -4 14 -4 30 l0 30 60 0
60 0 0 60 0 60 35 0 35 0 0 65 0 65 30 0 c17 0 30 5 30 10 0 6 -9 10 -20 10
-11 0 -20 5 -20 10 0 6 -4 10 -10 10 -5 0 -10 -9 -10 -20z m-87 -229 c-3 -11
-13 -21 -24 -24 -15 -4 -19 0 -19 19 0 19 5 24 24 24 19 0 23 -4 19 -19z"/>
<path d="M231 373 c0 -5 4 -17 9 -28 8 -18 9 -17 9 8 1 15 -3 27 -9 27 -5 0
-10 -3 -9 -7z"/>
<path d="M330 371 c18 -5 26 -16 30 -36 4 -23 11 -31 32 -33 21 -3 28 -11 36
-40 l10 -37 1 43 c1 42 1 42 -34 42 -33 0 -35 2 -35 35 0 33 -2 35 -32 34 -30
-1 -31 -2 -8 -8z"/>
<path d="M404 371 c11 -4 23 -16 27 -27 6 -16 8 -14 8 9 1 23 -3 27 -26 26
-23 0 -25 -2 -9 -8z"/>
<path d="M472 368 c9 -7 18 -20 21 -28 3 -8 6 -3 6 13 1 21 -3 27 -21 27 -19
0 -20 -2 -6 -12z"/>
<path d="M515 370 c3 -5 12 -10 20 -10 7 0 16 -8 18 -17 3 -11 5 -7 6 10 1 23
-3 27 -25 27 -14 0 -23 -4 -19 -10z"/>
<path d="M584 371 c11 -4 23 -16 27 -27 6 -16 8 -14 8 9 1 23 -3 27 -26 26
-23 0 -25 -2 -9 -8z"/>
<path d="M654 371 c11 -4 23 -16 27 -27 6 -16 8 -14 8 9 1 23 -3 27 -26 26
-23 0 -25 -2 -9 -8z"/>
<path d="M950 320 c0 -5 11 -10 25 -10 14 0 25 5 25 10 0 6 -11 10 -25 10 -14
0 -25 -4 -25 -10z"/>
<path d="M469 301 c7 -5 17 -15 22 -22 6 -10 9 -8 9 9 0 16 -6 22 -22 22 -17
0 -19 -3 -9 -9z"/>
<path d="M529 301 c7 -5 17 -15 22 -22 6 -10 9 -8 9 9 0 16 -6 22 -22 22 -17
0 -19 -3 -9 -9z"/>
<path d="M589 301 c7 -5 17 -15 22 -22 6 -10 9 -8 9 9 0 16 -6 22 -22 22 -17
0 -19 -3 -9 -9z"/>
<path d="M655 300 c27 -12 35 -12 35 0 0 6 -12 10 -27 9 -25 0 -26 -1 -8 -9z"/>
<path d="M330 246 c0 -2 9 -6 20 -9 11 -3 20 -1 20 4 0 5 -9 9 -20 9 -11 0
-20 -2 -20 -4z"/>
<path d="M469 241 c7 -5 17 -15 22 -22 6 -10 9 -8 9 9 0 16 -6 22 -22 22 -17
0 -19 -3 -9 -9z"/>
<path d="M529 241 c7 -5 17 -15 22 -22 6 -10 9 -8 9 9 0 16 -6 22 -22 22 -17
0 -19 -3 -9 -9z"/>
<path d="M60 218 c0 -23 4 -28 25 -28 14 0 25 5 25 10 0 6 -5 10 -11 10 -7 0
-18 8 -25 18 -12 15 -13 14 -14 -10z"/>
<path d="M925 229 c-6 -8 -19 -19 -30 -24 -18 -8 -17 -9 8 -13 35 -4 40 0 35
30 -3 19 -5 21 -13 7z"/>
<path d="M190 91 l0 -31 60 0 60 0 0 -30 c0 -17 5 -30 10 -30 6 0 10 13 10 30
0 22 5 30 18 30 16 1 16 1 0 14 -10 7 -18 18 -18 25 0 6 -4 11 -10 11 -5 0
-10 -7 -10 -15 0 -24 -37 -18 -45 8 -7 21 -8 21 -12 -6 -3 -20 -9 -27 -20 -23
-8 3 -17 6 -19 6 -2 0 -4 6 -4 14 0 8 -4 18 -10 21 -6 4 -10 -7 -10 -24z"/>
<path d="M370 55 c0 -30 5 -55 10 -55 6 0 10 8 10 19 0 10 10 22 23 26 22 8
22 8 -4 12 -22 3 -25 8 -21 29 2 14 0 24 -7 24 -7 0 -11 -21 -11 -55z"/>
<path d="M440 53 c0 -31 2 -54 5 -51 10 10 15 108 5 108 -6 0 -10 -26 -10 -57z"/>
<path d="M540 55 c0 -30 5 -55 10 -55 6 0 10 25 10 55 0 30 -4 55 -10 55 -5 0
-10 -25 -10 -55z"/>
<path d="M600 86 c0 -13 -6 -27 -12 -29 -10 -4 -10 -6 0 -6 6 -1 12 -12 12
-26 0 -14 5 -25 10 -25 6 0 10 25 10 55 0 30 -4 55 -10 55 -5 0 -10 -11 -10
-24z"/>
<path d="M488 30 c2 -17 6 -30 8 -30 2 0 4 13 4 30 0 17 -4 30 -8 30 -5 0 -7
-13 -4 -30z"/>
</g>
</svg>
