<?xml version="1.0" standalone="no"?>
<!DOCTYPE svg PUBLIC "-//W3C//DTD SVG 20010904//EN"
 "http://www.w3.org/TR/2001/REC-SVG-20010904/DTD/svg10.dtd">
<svg version="1.0" xmlns="http://www.w3.org/2000/svg"
 width="180.000000pt" height="180.000000pt" viewBox="0 0 180.000000 180.000000"
 preserveAspectRatio="xMidYMid meet">
<metadata>
Created by potrace 1.16, written by Peter Selinger 2001-2019
</metadata>
<g transform="translate(0.000000,180.000000) scale(0.100000,-0.100000)"
fill="#000000" stroke="none">
<path d="M709 1686 c-291 -64 -533 -308 -595 -599 -17 -80 -19 -273 -3 -349
50 -249 201 -446 425 -557 143 -71 336 -98 503 -70 75 12 201 53 246 80 16 10
45 26 64 35 43 22 179 155 218 214 94 142 133 277 133 458 0 117 -16 214 -51
307 -88 236 -305 421 -564 481 -74 17 -299 17 -376 0z m356 -21 c155 -36 287
-109 395 -219 56 -57 130 -161 130 -182 0 -7 4 -14 9 -16 4 -1 18 -30 30 -63
91 -243 60 -509 -82 -725 -39 -59 -175 -192 -218 -214 -19 -9 -48 -25 -64 -35
-45 -27 -171 -68 -246 -80 -174 -29 -365 9 -524 102 -115 67 -230 192 -294
315 -97 191 -109 450 -30 642 99 240 313 422 558 476 77 16 263 16 336 -1z"/>
<path d="M1085 1582 c-29 -18 -62 -53 -116 -123 -20 -27 -49 -43 -123 -73 -54
-21 -110 -49 -127 -63 -25 -22 -29 -32 -29 -76 0 -29 12 -99 26 -157 31 -127
28 -163 -22 -266 -33 -66 -36 -80 -31 -127 4 -32 23 -86 50 -141 l45 -90 -67
-22 c-57 -19 -68 -20 -82 -8 -26 24 -77 17 -105 -13 -14 -15 -40 -32 -57 -38
-36 -11 -47 -44 -22 -65 12 -10 32 -11 98 -2 51 7 101 8 132 2 69 -12 202 -12
247 0 31 9 38 16 44 44 6 36 -9 157 -26 201 -17 44 -13 52 33 58 23 2 51 8 61
13 17 7 19 4 13 -32 -4 -21 -2 -67 2 -101 5 -34 6 -76 2 -95 -12 -56 0 -83 39
-86 19 -1 61 -7 92 -12 78 -15 108 -6 108 31 0 25 -7 31 -60 55 -59 26 -60 27
-60 68 0 22 11 84 25 136 41 158 33 220 -31 236 -30 8 -161 0 -187 -11 -16 -7
-16 -5 -6 19 7 14 18 26 26 26 26 0 53 39 53 78 0 34 4 40 61 76 91 59 94 66
78 186 -15 123 -7 138 43 86 19 -20 45 -36 56 -36 14 0 20 -5 16 -14 -3 -7 6
-40 19 -72 32 -79 55 -177 70 -304 12 -96 15 -106 39 -119 21 -12 31 -13 52
-3 23 10 26 17 26 65 0 50 2 53 31 64 l32 12 -5 73 c-6 83 -35 166 -81 235
-28 42 -37 48 -71 51 -44 4 -84 26 -67 37 6 3 11 23 11 44 0 33 -4 40 -30 51
-39 16 -59 50 -70 117 -14 81 -31 103 -83 103 -23 0 -55 -8 -72 -18z m104 -16
c7 -8 17 -43 23 -78 13 -71 46 -125 83 -134 27 -7 30 -16 15 -43 -18 -35 -39
-32 -79 9 -41 44 -61 49 -86 23 -13 -13 -16 -27 -11 -62 3 -25 8 -75 12 -111
l6 -66 -76 -53 c-76 -52 -76 -52 -76 -97 0 -41 -3 -46 -30 -56 -32 -11 -60
-52 -60 -88 0 -24 -4 -24 91 -5 94 18 145 11 167 -22 15 -23 14 -32 -12 -139
-15 -62 -30 -140 -33 -173 -5 -55 -4 -60 21 -76 14 -10 43 -23 63 -30 61 -21
56 -40 -8 -30 -30 4 -74 9 -99 9 -38 1 -45 4 -48 23 -2 12 1 30 7 40 6 12 5
45 -2 95 -9 67 -8 85 7 134 19 60 15 76 -12 56 -34 -25 -82 -42 -135 -48 l-54
-6 25 -67 c13 -36 26 -98 29 -137 8 -96 3 -99 -171 -90 -177 10 -172 10 -250
1 -52 -6 -67 -5 -62 3 4 7 16 12 26 12 11 0 35 14 53 30 35 30 70 39 82 20 9
-15 59 -12 105 6 26 10 56 15 80 11 22 -3 40 -3 40 0 0 3 -9 17 -20 32 -42 60
-110 215 -110 252 0 22 14 67 35 110 30 63 35 84 35 144 0 38 -9 104 -20 145
-11 41 -20 98 -20 127 0 46 3 54 30 73 16 11 53 29 82 39 111 38 144 60 182
117 59 89 144 137 175 100z m186 -421 c51 -105 103 -322 88 -362 -6 -15 -39
-17 -48 -4 -3 5 -12 61 -20 124 -15 126 -35 213 -65 282 -45 105 -9 73 45 -40z
m46 63 c34 -37 79 -134 95 -208 18 -80 14 -103 -18 -98 -18 2 -24 10 -26 38
-8 107 -52 246 -82 265 -5 3 -10 10 -10 16 0 16 18 10 41 -13z"/>
<path d="M1056 1332 c-8 -24 3 -54 18 -49 17 6 19 42 2 56 -12 10 -15 8 -20
-7z"/>
<path d="M923 1326 c-58 -19 -123 -66 -123 -92 0 -41 31 -115 48 -112 13 2 15
15 13 59 -3 67 20 102 84 123 21 8 41 19 43 25 5 14 -12 13 -65 -3z"/>
<path d="M1045 1178 c-9 -20 -31 -34 -104 -68 -8 -3 -17 -12 -19 -18 -6 -18
57 -14 103 7 55 25 68 42 55 75 -12 32 -22 33 -35 4z"/>
</g>
</svg>
