<?xml version="1.0" standalone="no"?>
<!DOCTYPE svg PUBLIC "-//W3C//DTD SVG 20010904//EN"
 "http://www.w3.org/TR/2001/REC-SVG-20010904/DTD/svg10.dtd">
<svg version="1.0" xmlns="http://www.w3.org/2000/svg"
 width="180.000000pt" height="180.000000pt" viewBox="0 0 180.000000 180.000000"
 preserveAspectRatio="xMidYMid meet">
<metadata>
Created by potrace 1.16, written by Peter Selinger 2001-2019
</metadata>
<g transform="translate(0.000000,180.000000) scale(0.100000,-0.100000)"
fill="#000000" stroke="none">
<path d="M1286 1650 c-27 -11 -63 -33 -81 -50 l-31 -30 -432 0 c-406 0 -435
-1 -470 -19 -43 -22 -73 -53 -96 -98 -14 -28 -16 -97 -16 -602 0 -338 4 -580
10 -595 16 -42 79 -104 123 -121 37 -14 109 -15 598 -13 l556 3 48 30 c36 22
57 45 77 84 l28 53 0 467 0 466 25 49 c37 73 35 174 -3 247 -64 124 -209 179
-336 129z m203 -36 c88 -44 150 -153 139 -242 -3 -21 -17 -63 -32 -94 l-26
-55 0 -461 c0 -300 -4 -470 -11 -489 -14 -38 -67 -92 -106 -109 -26 -11 -136
-14 -578 -14 -522 0 -547 1 -584 20 -48 24 -87 70 -101 118 -8 25 -10 212 -8
584 l3 546 30 43 c17 23 50 53 74 66 l44 23 432 0 c429 0 432 0 451 21 10 12
42 32 69 45 69 33 136 32 204 -2z"/>
<path d="M1275 1599 c-40 -23 -95 -84 -106 -118 -20 -59 -15 -142 11 -195 30
-63 91 -108 140 -104 l35 3 0 120 0 120 -42 3 c-26 2 -43 8 -43 16 0 7 19 16
43 22 l42 9 0 65 0 65 -30 2 c-16 2 -39 -2 -50 -8z m55 -59 l0 -50 -40 0 -40
0 0 -44 0 -44 39 5 40 5 3 -106 c2 -58 -1 -106 -5 -106 -17 0 -63 29 -89 57
-92 96 -70 242 47 314 17 11 33 19 38 19 4 0 7 -22 7 -50z"/>
<path d="M1406 1594 c-8 -20 -8 -88 0 -108 4 -9 23 -19 45 -22 53 -9 53 -34 0
-34 -47 0 -51 -9 -51 -132 0 -108 4 -118 45 -118 43 0 109 49 137 102 34 66
31 168 -5 231 -43 73 -154 126 -171 81z m62 -18 c137 -72 150 -267 24 -347
-25 -16 -50 -29 -54 -29 -4 0 -8 48 -8 106 l0 106 42 -4 42 -3 1 43 1 42 -43
0 -43 0 0 50 c0 28 2 50 5 50 4 0 18 -6 33 -14z"/>
<path d="M333 1510 c-46 -11 -80 -35 -100 -73 -16 -29 -18 -77 -21 -557 -2
-358 0 -541 8 -576 12 -55 45 -95 93 -113 19 -7 210 -11 565 -11 506 0 539 2
579 19 30 14 48 31 62 60 20 39 21 56 21 477 l0 436 -42 -6 c-99 -15 -154 -17
-188 -7 -51 15 -124 82 -151 137 -19 40 -21 56 -16 129 5 69 3 84 -9 89 -23 9
-764 5 -801 -4z m787 -46 c-6 -14 -10 -44 -10 -67 0 -202 200 -331 393 -252
16 7 17 -16 17 -396 0 -244 -4 -419 -10 -441 -6 -20 -26 -50 -46 -67 l-35 -31
-545 0 c-601 0 -585 -2 -624 63 -19 31 -20 54 -20 572 0 504 1 543 18 574 38
71 40 71 479 71 l393 0 -10 -26z"/>
<path d="M344 1386 c-18 -13 -19 -30 -22 -240 l-3 -226 25 -25 25 -25 219 0
c280 0 266 -8 270 154 l4 116 -114 0 -114 0 1 -42 1 -43 43 4 c40 2 42 1 39
-21 -3 -23 -5 -23 -128 -23 l-125 0 -3 114 c-2 75 1 118 9 127 9 11 51 14 200
14 l189 0 0 65 0 65 -248 0 c-198 0 -252 -3 -268 -14z m486 -46 l0 -40 -152 0
c-159 0 -225 -9 -239 -32 -5 -7 -9 -66 -9 -130 0 -160 -2 -158 165 -158 121 0
125 1 141 24 8 14 14 35 12 48 -2 19 -10 23 -45 26 -29 2 -43 8 -43 18 0 11
18 14 85 14 l85 0 0 -89 c0 -68 -4 -93 -16 -105 -23 -24 -425 -24 -448 0 -24
24 -24 419 1 446 15 16 36 18 240 18 l223 0 0 -40z"/>
<path d="M320 755 l0 -65 189 0 c149 0 191 -3 200 -14 8 -9 11 -52 9 -127 l-3
-114 -130 0 -130 0 -3 63 -3 62 -64 0 -65 0 0 -109 c0 -165 -16 -156 269 -156
208 0 232 2 248 18 16 16 18 40 18 241 0 206 -2 226 -19 245 -18 20 -28 21
-268 21 l-248 0 0 -65z m488 29 c22 -15 22 -20 22 -221 0 -178 -2 -209 -17
-225 -15 -16 -35 -18 -224 -18 -175 0 -210 2 -223 16 -12 12 -16 37 -16 105
l0 89 35 0 c35 0 35 0 35 -45 0 -76 17 -85 165 -85 166 0 165 -1 165 153 0
165 12 157 -216 157 l-184 0 0 45 0 45 218 0 c181 0 221 -3 240 -16z"/>
<path d="M900 576 l0 -245 26 -20 c25 -20 39 -21 241 -21 214 0 214 0 238 25
l25 24 0 241 0 240 -67 0 -68 0 3 -130 3 -130 -50 0 c-77 0 -81 -4 -81 -71 l0
-59 -58 0 c-32 0 -63 5 -70 12 -8 8 -12 66 -12 195 l0 183 -65 0 -65 0 0 -244z
m108 37 c2 -180 3 -183 26 -198 17 -11 43 -15 88 -13 l63 3 3 55 c3 66 18 80
84 80 l48 0 0 130 0 130 40 0 40 0 0 -230 c0 -216 -1 -230 -19 -240 -12 -6
-102 -10 -224 -10 -178 0 -206 2 -218 17 -11 12 -15 66 -17 226 -2 115 -1 216
2 224 4 10 18 13 43 11 l38 -3 3 -182z"/>
</g>
</svg>
