<?xml version="1.0" standalone="no"?>
<!DOCTYPE svg PUBLIC "-//W3C//DTD SVG 20010904//EN"
 "http://www.w3.org/TR/2001/REC-SVG-20010904/DTD/svg10.dtd">
<svg version="1.0" xmlns="http://www.w3.org/2000/svg"
 width="256.000000pt" height="256.000000pt" viewBox="0 0 256.000000 256.000000"
 preserveAspectRatio="xMidYMid meet">
<metadata>
Created by potrace 1.16, written by Peter Selinger 2001-2019
</metadata>
<g transform="translate(0.000000,256.000000) scale(0.100000,-0.100000)"
fill="#000000" stroke="none">
<path d="M1061 2544 c-461 -77 -854 -434 -996 -902 l-6 -22 178 2 178 3 37 68
c137 251 337 411 604 483 96 26 351 27 442 1 270 -74 459 -222 604 -471 23
-39 46 -74 52 -78 6 -4 89 -8 185 -8 l174 0 -6 29 c-12 60 -69 191 -118 272
-173 288 -417 488 -715 583 -80 26 -245 58 -253 50 -11 -11 19 -21 91 -33 414
-66 804 -397 952 -808 l26 -73 -160 0 -160 0 -23 38 c-13 20 -44 69 -68 107
-57 91 -195 230 -286 289 -77 49 -182 95 -285 123 -92 26 -366 25 -462 -1
-269 -72 -494 -256 -620 -503 l-26 -53 -156 0 -155 0 6 23 c39 128 119 280
207 396 181 237 484 420 769 464 45 7 84 18 87 25 2 7 0 12 -5 11 -4 -1 -46
-7 -92 -15z"/>
<path d="M0 1330 c0 -6 61 -10 164 -10 l163 0 7 -37 c3 -21 6 -57 6 -81 0 -63
28 -186 61 -274 99 -255 348 -480 621 -559 105 -30 331 -37 453 -14 119 22
223 64 320 127 96 63 216 179 275 268 55 81 110 205 110 248 l0 32 -510 0
-510 0 0 140 0 140 685 0 685 0 0 -64 c0 -89 -34 -275 -68 -376 -104 -304
-326 -564 -606 -711 -103 -54 -251 -103 -358 -120 -67 -11 -98 -22 -87 -33 8
-8 175 26 268 56 366 115 675 423 803 798 36 107 68 288 68 391 l0 79 -705 0
-705 0 0 -160 0 -160 515 -2 514 -3 -33 -82 c-44 -111 -106 -203 -196 -293
-137 -138 -291 -221 -475 -255 -120 -23 -327 -16 -433 14 -271 78 -513 296
-611 549 -33 86 -61 211 -61 270 0 22 -3 60 -6 86 l-7 46 -173 0 c-109 0 -174
-4 -174 -10z"/>
<path d="M6 1208 c27 -195 37 -247 63 -329 123 -381 436 -696 814 -820 85 -28
247 -62 255 -54 11 11 -14 23 -60 28 -151 18 -368 109 -518 216 -294 210 -478
520 -522 880 -8 62 -18 106 -25 108 -8 3 -11 -6 -7 -29z"/>
</g>
</svg>
