<?xml version="1.0" standalone="no"?>
<!DOCTYPE svg PUBLIC "-//W3C//DTD SVG 20010904//EN"
 "http://www.w3.org/TR/2001/REC-SVG-20010904/DTD/svg10.dtd">
<svg version="1.0" xmlns="http://www.w3.org/2000/svg"
 width="245.000000pt" height="245.000000pt" viewBox="0 0 245.000000 245.000000"
 preserveAspectRatio="xMidYMid meet">
<metadata>
Created by potrace 1.16, written by Peter Selinger 2001-2019
</metadata>
<g transform="translate(0.000000,245.000000) scale(0.100000,-0.100000)"
fill="#000000" stroke="none">
<path d="M1085 2438 c-272 -30 -522 -152 -721 -352 -216 -216 -321 -442 -357
-773 -4 -31 -1 -43 8 -43 8 0 14 25 19 78 8 100 47 245 95 353 117 265 355
503 620 620 108 48 253 87 354 95 55 5 77 11 77 20 0 8 -3 13 -7 13 -5 -1 -44
-6 -88 -11z"/>
<path d="M1270 2435 c0 -8 27 -14 78 -18 174 -14 394 -96 559 -209 43 -29 116
-91 163 -138 81 -80 180 -206 180 -227 0 -8 -212 -135 -331 -199 -4 -2 -25 20
-47 49 -99 131 -229 227 -380 280 -78 28 -102 31 -233 35 -124 3 -159 1 -230
-17 -283 -71 -499 -287 -570 -570 -18 -71 -20 -106 -17 -230 4 -132 7 -155 35
-234 85 -242 268 -418 518 -497 89 -28 264 -38 372 -20 202 32 389 149 511
318 51 72 112 204 112 245 l0 27 -254 0 -253 0 -39 -37 c-132 -124 -327 -116
-449 20 -115 127 -112 300 9 425 122 128 303 135 434 16 l50 -44 466 0 466 0
0 -35 c0 -25 4 -35 16 -35 11 0 14 5 10 16 -3 9 -6 29 -6 45 l0 29 -466 0
-466 0 -50 44 c-72 65 -142 89 -248 84 -101 -5 -162 -32 -226 -100 -65 -67
-87 -119 -92 -218 -3 -70 0 -95 18 -142 28 -75 93 -146 167 -183 51 -26 69
-29 148 -30 76 0 98 4 145 26 30 14 73 42 94 62 l39 37 234 0 234 0 -7 -22
c-33 -108 -117 -241 -207 -325 -410 -387 -1072 -222 -1260 314 -26 75 -31 106
-35 214 -4 104 -1 140 17 210 71 284 286 499 570 570 70 18 106 21 210 17 108
-4 139 -9 213 -35 156 -54 302 -165 394 -299 l37 -53 51 30 c28 16 115 66 194
111 78 45 142 85 142 89 0 22 -116 175 -189 249 -178 181 -405 302 -644 344
-122 22 -187 25 -187 11z"/>
<path d="M4 1158 c3 -13 7 -53 11 -90 14 -164 95 -381 202 -539 167 -247 438
-432 726 -498 123 -28 157 -32 157 -17 0 9 -20 16 -54 20 -80 9 -220 52 -315
97 -190 89 -380 249 -491 413 -113 169 -193 385 -207 559 -4 56 -10 77 -20 77
-9 0 -12 -8 -9 -22z"/>
<path d="M2417 1048 c-27 -227 -162 -493 -342 -673 -180 -180 -446 -315 -672
-342 -36 -4 -53 -10 -53 -20 0 -9 8 -12 23 -9 12 3 54 10 92 17 471 81 883
493 964 964 7 39 14 80 17 93 3 14 0 22 -9 22 -10 0 -16 -17 -20 -52z"/>
</g>
</svg>
