<?xml version="1.0" standalone="no"?>
<!DOCTYPE svg PUBLIC "-//W3C//DTD SVG 20010904//EN"
 "http://www.w3.org/TR/2001/REC-SVG-20010904/DTD/svg10.dtd">
<svg version="1.0" xmlns="http://www.w3.org/2000/svg"
 width="192.000000pt" height="192.000000pt" viewBox="0 0 192.000000 192.000000"
 preserveAspectRatio="xMidYMid meet">
<metadata>
Created by potrace 1.16, written by Peter Selinger 2001-2019
</metadata>
<g transform="translate(0.000000,192.000000) scale(0.100000,-0.100000)"
fill="#000000" stroke="none">
<path d="M655 1900 c-294 -85 -567 -364 -640 -655 -22 -86 -14 -106 9 -24 18
63 75 209 86 219 8 8 70 100 70 105 0 3 8 13 18 24 9 10 35 38 58 62 40 43
112 109 120 109 4 0 97 63 104 70 8 10 151 66 220 88 79 25 39 27 -45 2z"/>
<path d="M1225 1898 c39 -11 84 -26 100 -33 81 -36 147 -70 156 -82 7 -7 16
-13 21 -13 5 0 14 -4 21 -10 113 -91 145 -120 192 -179 30 -37 55 -73 55 -80
0 -6 4 -11 9 -11 5 0 14 -14 21 -31 12 -29 12 -33 -10 -49 -13 -10 -45 -29
-72 -41 -26 -13 -48 -27 -48 -31 0 -5 -6 -8 -14 -8 -8 0 -21 -6 -28 -13 -7 -7
-33 -23 -58 -36 -25 -12 -53 -27 -62 -34 -14 -9 -21 -7 -38 10 -11 12 -20 25
-20 27 0 12 -92 110 -136 146 -30 24 -140 80 -158 80 -9 0 -16 4 -16 8 0 12
-109 32 -179 32 -59 0 -132 -12 -176 -29 -192 -75 -311 -194 -386 -386 -17
-44 -29 -117 -29 -176 0 -70 20 -179 32 -179 4 0 8 -6 8 -14 0 -14 32 -88 53
-120 41 -65 153 -176 177 -176 6 0 10 -3 10 -8 0 -8 91 -52 109 -52 6 0 11 -4
11 -8 0 -11 146 -42 195 -42 45 0 157 24 195 42 14 6 41 18 60 27 94 43 228
178 274 276 10 22 22 48 27 58 9 16 -2 17 -162 17 -154 0 -173 -2 -188 -18 -9
-11 -36 -32 -61 -48 -42 -26 -52 -28 -145 -29 -109 0 -137 9 -203 70 -53 48
-72 103 -72 207 0 100 10 126 69 191 57 61 98 77 200 77 101 0 157 -19 205
-69 l30 -31 363 0 c235 0 363 4 363 10 0 6 -128 10 -363 10 l-364 0 -24 26
c-45 49 -114 74 -209 74 -98 0 -138 -16 -206 -82 -65 -62 -84 -110 -84 -209 0
-131 49 -213 160 -271 38 -19 59 -23 135 -22 96 0 139 15 203 69 30 25 32 25
180 23 l150 -3 -20 -45 c-49 -106 -167 -222 -282 -274 -168 -77 -309 -74 -485
11 -234 113 -371 399 -306 643 55 207 218 370 425 425 212 56 447 -33 596
-226 25 -33 53 -59 63 -59 20 0 59 20 206 105 125 71 125 72 125 105 0 35 -98
168 -181 244 -110 102 -263 190 -387 222 -83 22 -105 15 -27 -8z"/>
<path d="M1 743 c-2 -66 60 -222 133 -333 120 -181 328 -340 518 -394 92 -26
100 -17 11 13 -90 31 -233 100 -233 113 0 4 -5 8 -11 8 -7 0 -43 25 -80 55
-59 47 -88 79 -179 192 -6 7 -10 16 -10 21 0 5 -6 14 -13 21 -12 9 -46 75 -82
156 -7 17 -22 62 -33 100 -11 39 -21 60 -21 48z"/>
<path d="M1896 679 c-91 -317 -320 -548 -646 -654 -48 -15 -65 -24 -48 -24 32
-1 186 53 237 83 173 101 296 224 397 397 32 54 86 213 82 239 -2 16 -9 2 -22
-41z"/>
</g>
</svg>
