<?xml version="1.0" standalone="no"?>
<!DOCTYPE svg PUBLIC "-//W3C//DTD SVG 20010904//EN"
 "http://www.w3.org/TR/2001/REC-SVG-20010904/DTD/svg10.dtd">
<svg version="1.0" xmlns="http://www.w3.org/2000/svg"
 width="152.000000pt" height="152.000000pt" viewBox="0 0 152.000000 152.000000"
 preserveAspectRatio="xMidYMid meet">
<metadata>
Created by potrace 1.16, written by Peter Selinger 2001-2019
</metadata>
<g transform="translate(0.000000,152.000000) scale(0.100000,-0.100000)"
fill="#000000" stroke="none">
<path d="M42 1474 c-41 -39 -43 -45 -40 -88 5 -55 18 -74 16 -23 -1 41 27 91
45 81 7 -4 9 -4 5 1 -4 4 -3 14 3 22 14 16 33 18 23 1 -4 -7 -3 -8 5 -4 6 4 9
11 6 16 -3 5 3 14 14 19 29 16 39 13 16 -6 l-20 -16 20 9 c21 9 1033 7 1145
-2 90 -8 148 -43 184 -112 15 -29 16 -93 14 -619 l-3 -588 -24 -36 c-14 -20
-41 -47 -60 -60 l-35 -24 -585 -2 -586 -3 -45 23 c-50 26 -85 71 -99 126 -6
20 -11 174 -13 343 -1 168 -6 304 -10 302 -5 -3 -8 -151 -8 -330 0 -309 1
-327 21 -366 26 -52 63 -86 117 -109 41 -18 78 -19 613 -19 560 0 571 0 612
21 54 27 94 65 118 111 18 35 19 66 19 618 0 555 -1 582 -19 619 -23 45 -78
95 -126 115 -28 12 -146 15 -657 18 l-623 3 -43 -41z"/>
<path d="M1394 1500 c52 -26 65 -38 98 -89 l28 -45 0 32 c0 25 -10 43 -45 77
-37 38 -51 45 -82 45 l-38 -1 39 -19z"/>
<path d="M983 1354 c-3 -8 -3 -39 1 -67 5 -47 3 -53 -16 -62 -32 -15 -59 -57
-65 -103 -7 -49 1 -55 -117 101 -132 176 -156 177 -279 12 -42 -57 -82 -115
-88 -129 -13 -28 -6 -68 17 -90 8 -9 11 -16 5 -16 -5 0 -17 -7 -25 -16 -13
-13 -16 -46 -16 -200 0 -176 -1 -184 -20 -184 -34 0 -60 -39 -60 -89 0 -34 -6
-53 -22 -71 -13 -14 -50 -60 -82 -103 -52 -68 -59 -83 -59 -123 0 -55 16 -74
72 -81 52 -7 56 -4 187 166 l99 129 156 -6 157 -5 27 27 c23 24 27 34 23 69
-5 40 -42 95 -210 314 -8 9 15 12 96 12 l105 0 40 -52 c22 -29 55 -72 73 -97
32 -42 37 -45 86 -48 40 -2 55 1 66 15 9 10 50 63 93 118 42 55 80 102 83 105
39 32 51 100 24 138 -23 34 -96 31 -127 -4 -12 -15 -26 -32 -32 -38 -5 -6 -30
-37 -53 -69 l-44 -59 -21 21 c-12 11 -30 34 -40 50 l-18 31 52 0 c93 0 158 73
147 164 -2 20 0 36 4 36 5 0 24 14 43 32 36 33 48 78 20 78 -8 0 -15 8 -15 18
0 10 -14 23 -32 31 -18 8 -37 20 -43 26 -12 14 -103 35 -151 35 -22 0 -37 -6
-41 -16z m63 -28 l12 29 1 -27 c1 -33 17 -37 26 -8 9 28 23 16 17 -15 -6 -32
11 -32 26 0 6 14 16 25 22 25 12 0 12 -2 0 -34 -12 -32 5 -45 20 -16 6 11 15
18 21 15 6 -4 5 -13 -1 -25 -17 -31 -11 -35 15 -10 20 19 25 20 25 7 0 -9 -4
-19 -10 -22 -19 -12 -11 -26 9 -15 24 12 31 13 31 2 0 -5 -10 -14 -23 -21 -20
-11 -29 -8 -76 23 -34 23 -70 38 -102 42 -49 7 -49 7 -48 43 l1 36 10 -29 11
-29 13 29z m-174 -267 c182 -243 204 -269 215 -252 65 92 158 203 174 208 10
3 27 1 39 -5 41 -22 26 -58 -91 -207 -143 -185 -136 -184 -250 -28 l-61 85
-119 0 -118 0 -69 89 c-57 74 -72 87 -86 79 -23 -13 -66 15 -66 44 0 19 59
106 147 216 60 74 57 76 285 -229z m215 195 c52 -18 113 -58 113 -76 0 -6 -10
-2 -22 10 -31 28 -106 62 -140 62 -16 0 -28 5 -28 10 0 14 22 12 77 -6z m17
-49 c65 -31 85 -114 43 -176 -64 -95 -217 -51 -217 63 0 96 88 154 174 113z
m-577 -247 c11 -13 88 -114 172 -224 119 -159 151 -208 151 -232 0 -21 -7 -35
-19 -42 -11 -6 -88 -10 -178 -10 l-159 0 -112 -145 c-95 -122 -117 -145 -139
-145 -33 0 -63 26 -63 56 0 13 38 71 91 140 84 108 90 119 80 142 -15 32 8 69
45 74 l26 3 -1 179 c-2 146 1 182 14 202 20 31 64 32 92 2z"/>
<path d="M602 1144 l-42 -54 80 0 c73 0 97 9 69 25 -6 4 -23 24 -38 45 l-27
38 -42 -54z m53 -14 c3 -5 -1 -10 -9 -10 -9 0 -16 5 -16 10 0 6 4 10 9 10 6 0
13 -4 16 -10z"/>
<path d="M540 666 l0 -96 77 0 77 0 -26 28 c-14 15 -48 58 -77 95 l-51 68 0
-95z m60 -36 l21 -30 -29 0 c-26 0 -28 3 -24 30 2 17 6 30 7 30 2 0 13 -13 25
-30z"/>
<path d="M4 1160 c0 -91 2 -128 3 -82 2 45 2 119 0 165 -1 45 -3 8 -3 -83z"/>
<path d="M1502 133 c-11 -32 -64 -93 -81 -93 -6 0 -11 -4 -11 -9 0 -5 -15 -12
-32 -17 l-33 -8 40 -4 c23 -2 41 1 43 7 2 6 8 11 14 11 6 0 26 17 44 37 24 26
34 46 34 70 0 40 -5 42 -18 6z"/>
<path d="M0 120 c0 -23 11 -42 45 -75 37 -38 51 -45 82 -45 l38 1 -40 19 c-42
21 -105 84 -105 106 0 7 -4 16 -10 19 -6 4 -10 -7 -10 -25z"/>
</g>
</svg>
