<?xml version="1.0" standalone="no"?>
<!DOCTYPE svg PUBLIC "-//W3C//DTD SVG 20010904//EN"
 "http://www.w3.org/TR/2001/REC-SVG-20010904/DTD/svg10.dtd">
<svg version="1.0" xmlns="http://www.w3.org/2000/svg"
 width="192.000000pt" height="192.000000pt" viewBox="0 0 192.000000 192.000000"
 preserveAspectRatio="xMidYMid meet">
<metadata>
Created by potrace 1.16, written by Peter Selinger 2001-2019
</metadata>
<g transform="translate(0.000000,192.000000) scale(0.100000,-0.100000)"
fill="#000000" stroke="none">
<path d="M1110 1559 c-234 -40 -311 -54 -515 -88 -99 -17 -194 -36 -211 -41
-40 -14 -54 -46 -54 -124 l0 -63 -41 -18 c-23 -11 -53 -35 -67 -54 l-27 -34
-3 -224 c-3 -254 0 -271 70 -319 33 -23 54 -29 112 -32 39 -3 74 -9 78 -15 3
-6 10 -38 13 -71 16 -144 54 -164 245 -131 104 17 414 71 530 91 47 8 127 21
178 30 109 17 149 35 158 69 6 23 11 25 64 25 92 0 92 -2 88 253 l-3 216 -29
30 c-16 17 -44 34 -63 37 -32 6 -33 8 -33 53 0 66 -20 91 -74 91 l-43 0 -17
108 c-10 59 -25 132 -34 162 -28 91 -57 96 -322 49z m275 -9 c19 -16 38 -87
60 -222 l18 -108 43 0 c54 0 74 -25 74 -91 0 -45 1 -47 33 -53 19 -3 47 -20
63 -37 l29 -30 3 -196 c4 -232 4 -233 -88 -233 -53 0 -58 -2 -64 -25 -9 -34
-49 -52 -158 -69 -51 -9 -131 -22 -178 -30 -606 -106 -635 -110 -669 -96 -37
15 -57 57 -66 136 -3 33 -10 65 -13 71 -4 6 -39 12 -78 15 -58 3 -79 9 -112
32 -69 47 -74 67 -70 300 l3 203 27 35 c15 20 47 44 72 54 l45 19 -6 57 c-7
74 8 114 51 127 17 6 112 25 211 42 244 41 322 55 515 89 167 30 229 32 255
10z"/>
<path d="M859 1451 c-262 -46 -444 -82 -454 -91 -14 -12 -16 -25 -11 -72 3
-32 9 -70 12 -83 5 -22 3 -25 -23 -25 -41 0 -95 -32 -117 -70 -16 -27 -21 -58
-24 -169 -5 -164 7 -237 46 -273 43 -40 66 -48 145 -48 l74 0 16 -97 c26 -155
-26 -149 513 -57 267 46 463 84 471 92 7 7 13 24 13 38 0 23 3 24 70 24 58 0
71 3 80 19 12 24 13 261 0 316 -11 51 -50 85 -96 85 l-34 0 0 54 c0 81 -4 86
-64 86 l-51 0 -25 157 c-25 166 -38 194 -82 192 -13 -1 -219 -36 -459 -78z
m479 36 c14 -16 63 -289 69 -384 3 -48 2 -73 -5 -73 -6 0 -12 21 -14 48 l-3
47 -57 3 -58 3 0 -51 c0 -38 -4 -50 -15 -50 -8 0 -15 -4 -15 -10 0 -6 -9 -6
-26 0 -14 6 -46 10 -71 10 l-46 0 61 64 c56 58 62 68 62 107 0 41 -5 47 -93
136 -90 90 -95 93 -138 93 -44 0 -48 -3 -142 -99 -106 -107 -117 -133 -77
-184 24 -30 25 -37 5 -37 -12 0 -15 -14 -15 -62 0 -61 0 -61 -20 -43 -29 26
-118 32 -159 11 -17 -9 -37 -28 -43 -41 -10 -23 -16 -25 -85 -25 l-73 0 0 44
c0 46 16 69 31 45 5 -8 9 -24 9 -37 0 -22 3 -23 58 -20 l57 3 0 52 c-1 59 -23
98 -71 123 -16 8 -30 15 -30 15 -1 0 -5 37 -9 82 -7 79 -6 81 17 89 26 8 832
151 864 153 12 0 26 -5 32 -12z m-234 -176 c83 -84 98 -103 93 -123 -9 -36
-179 -198 -208 -198 -34 0 -209 175 -209 210 0 31 174 210 205 210 12 0 59
-38 119 -99z m-660 -175 c44 -18 66 -51 66 -98 0 -37 -1 -38 -35 -38 -32 0
-35 3 -35 28 0 49 -42 69 -74 36 -13 -13 -16 -42 -16 -164 0 -139 1 -150 21
-163 19 -14 54 -13 63 2 3 3 5 33 7 66 2 60 2 60 -24 57 -25 -3 -27 0 -27 33
l0 35 60 0 60 0 0 -96 c0 -99 -8 -127 -44 -156 -27 -22 -104 -23 -134 -2 -45
31 -52 63 -52 224 0 172 10 207 63 234 40 19 59 20 101 2z m1056 -78 c0 -90 0
-91 20 -73 24 22 77 22 99 0 13 -13 17 -45 19 -173 l3 -158 -35 0 -36 0 0 132
c0 108 -3 134 -16 145 -11 9 -20 10 -32 2 -14 -8 -17 -32 -20 -145 l-3 -134
-34 0 -35 0 0 248 0 248 35 0 35 0 0 -92z m-139 -7 c-3 -53 -2 -54 23 -47 24
6 26 4 26 -24 0 -25 -4 -30 -25 -30 l-26 0 3 -107 c3 -104 4 -108 26 -111 20
-3 23 -8 20 -40 -3 -36 -4 -37 -38 -34 -66 6 -75 26 -75 167 0 112 -2 125 -17
125 -13 0 -18 8 -18 30 0 23 4 30 17 28 14 -3 16 5 14 49 l-2 52 37 -2 38 -3
-3 -53z m-536 4 l35 -34 0 -146 c0 -122 2 -145 15 -145 11 0 15 -11 15 -39 l0
-39 -36 8 c-20 5 -42 14 -48 20 -9 9 -27 410 -18 410 1 0 18 -16 37 -35z m81
-73 c-12 -3 -16 -23 -19 -110 l-3 -107 -2 129 -2 129 21 -19 c18 -16 19 -20 5
-22z m-173 -13 c14 -17 17 -41 17 -131 0 -152 -15 -178 -103 -178 -78 1 -97
33 -97 170 0 119 13 155 63 168 43 11 98 -2 120 -29z m494 5 c9 -12 13 -58 13
-148 0 -72 3 -140 6 -152 5 -18 1 -20 -30 -20 -28 1 -36 5 -36 20 0 18 -1 18
-18 3 -26 -24 -94 -22 -116 2 -10 11 -20 37 -23 59 -8 56 19 97 84 128 61 30
76 45 67 68 -9 23 -55 21 -61 -3 -4 -16 -48 -41 -70 -41 -7 0 10 55 23 77 27
43 132 47 161 7z m-205 -50 c-3 -30 -1 -49 7 -53 9 -6 8 -11 -4 -21 -13 -11
-15 -7 -15 27 0 28 -6 46 -21 59 l-21 19 24 6 c12 4 26 7 29 8 4 1 4 -20 1
-45z m-66 0 l34 -37 0 -117 0 -117 -35 1 -35 1 0 137 c0 75 -3 143 -6 152 -10
26 5 18 42 -20z m454 -89 c0 -50 -4 -85 -10 -85 -6 0 -10 35 -10 85 0 50 4 85
10 85 6 0 10 -35 10 -85z m127 -122 c-2 -37 -3 -9 -3 62 0 72 1 102 3 68 2
-34 2 -93 0 -130z m-1119 90 c-2 -27 -8 -39 -20 -41 -15 -3 -18 4 -18 37 0 35
3 41 21 41 17 0 20 -5 17 -37z m169 -162 c35 -17 105 -13 141 9 17 11 32 25
32 30 0 6 11 -2 24 -17 23 -27 29 -28 125 -31 98 -4 101 -3 101 18 l0 21 26
-20 c23 -18 41 -21 130 -21 l104 0 0 29 0 29 29 -29 c28 -28 34 -29 115 -29
77 0 86 -2 86 -19 0 -10 -6 -23 -13 -29 -7 -6 -213 -46 -457 -88 -406 -71
-444 -76 -455 -60 -7 9 -18 51 -24 94 -16 103 -19 110 -41 117 -19 6 -19 7 -2
30 l17 23 20 -23 c11 -13 30 -28 42 -34z"/>
<path d="M962 1358 c-25 -25 -6 -68 30 -68 9 0 22 9 28 20 22 40 -26 80 -58
48z"/>
<path d="M830 1226 c-6 -8 -10 -25 -8 -38 4 -30 46 -38 65 -12 17 23 16 29 -3
48 -19 20 -38 20 -54 2z"/>
<path d="M962 1228 c-7 -7 -12 -22 -12 -35 0 -31 47 -44 67 -18 17 24 16 30
-3 49 -19 19 -36 20 -52 4z"/>
<path d="M1092 1228 c-25 -25 -7 -68 29 -68 29 0 44 27 31 55 -12 27 -40 33
-60 13z"/>
<path d="M960 1096 c-6 -8 -10 -25 -8 -38 4 -30 46 -38 65 -12 17 23 16 29 -3
48 -19 20 -38 20 -54 2z"/>
<path d="M633 933 c-20 -8 -18 -199 2 -207 38 -14 45 3 45 104 0 80 -3 99 -16
104 -9 3 -16 6 -17 5 -1 0 -8 -3 -14 -6z m27 -104 c0 -44 -4 -68 -10 -64 -18
11 -12 135 7 135 2 0 3 -32 3 -71z"/>
<path d="M1135 820 c-32 -21 -48 -51 -39 -75 8 -21 44 -29 59 -14 13 14 27
110 16 108 -3 0 -19 -9 -36 -19z m8 -45 c-3 -9 -8 -14 -10 -11 -3 3 -2 9 2 15
9 16 15 13 8 -4z"/>
</g>
</svg>
