<?xml version="1.0" standalone="no"?>
<!DOCTYPE svg PUBLIC "-//W3C//DTD SVG 20010904//EN"
 "http://www.w3.org/TR/2001/REC-SVG-20010904/DTD/svg10.dtd">
<svg version="1.0" xmlns="http://www.w3.org/2000/svg"
 width="192.000000pt" height="192.000000pt" viewBox="0 0 192.000000 192.000000"
 preserveAspectRatio="xMidYMid meet">
<metadata>
Created by potrace 1.16, written by Peter Selinger 2001-2019
</metadata>
<g transform="translate(0.000000,192.000000) scale(0.100000,-0.100000)"
fill="#000000" stroke="none">
<path d="M1205 1665 c-44 -8 -134 -23 -200 -35 -152 -27 -199 -35 -310 -53
-239 -39 -379 -68 -401 -82 -30 -19 -37 -46 -32 -134 2 -59 0 -71 -13 -71 -31
0 -108 -59 -129 -99 -18 -37 -20 -58 -20 -268 1 -195 3 -233 18 -263 21 -43
53 -80 68 -80 7 0 14 -5 16 -12 3 -8 38 -13 99 -16 l95 -4 13 -77 c20 -124 28
-145 60 -164 38 -22 99 -22 241 4 63 11 153 26 200 34 124 20 520 88 654 113
50 10 96 46 96 78 0 11 15 14 63 14 103 0 99 -13 95 268 l-3 242 -31 31 c-21
21 -44 32 -72 36 l-42 6 0 61 c0 33 -4 66 -8 72 -13 19 -50 34 -86 34 -20 0
-36 2 -36 4 0 2 -11 72 -25 156 -26 155 -42 203 -70 214 -26 10 -153 5 -240
-9z m220 -11 c28 -11 44 -59 70 -214 14 -84 25 -154 25 -156 0 -2 16 -4 36 -4
36 0 73 -15 86 -34 4 -6 8 -39 8 -72 l0 -61 42 -6 c28 -4 51 -15 72 -36 l31
-31 3 -222 c4 -258 7 -248 -95 -248 -48 0 -63 -3 -63 -14 0 -32 -46 -68 -96
-78 -134 -25 -530 -93 -654 -113 -47 -8 -137 -23 -200 -34 -140 -25 -164 -26
-201 -4 -32 19 -40 40 -60 164 l-13 77 -95 4 c-61 3 -96 8 -99 16 -2 7 -9 12
-16 12 -15 0 -47 37 -68 80 -15 30 -17 67 -18 243 0 190 2 211 20 248 23 44
99 99 136 99 21 0 22 3 13 32 -12 43 -12 125 1 148 6 11 20 24 31 30 19 11
184 43 394 77 111 18 158 26 310 53 271 49 361 59 400 44z"/>
<path d="M838 1412 c-102 -102 -108 -110 -108 -149 0 -30 7 -50 25 -71 24 -29
24 -30 5 -35 -18 -5 -20 -14 -20 -78 l0 -72 -24 23 c-56 52 -182 42 -223 -18
-22 -34 -23 -34 -108 -35 l-86 -2 3 55 c3 47 6 55 23 55 15 0 21 -8 25 -35 l5
-35 60 0 60 0 3 50 c5 97 -55 159 -153 159 -139 0 -173 -74 -163 -362 5 -153
16 -189 71 -222 67 -41 204 -16 222 40 8 26 22 25 30 -1 24 -74 198 -80 248
-8 l15 21 7 -21 c12 -37 55 -51 165 -51 100 0 100 0 100 25 l0 24 25 -24 c23
-24 30 -25 145 -25 l120 0 2 168 2 167 5 -143 c6 -142 6 -144 34 -168 26 -22
36 -24 136 -24 90 0 110 3 115 16 3 9 6 79 6 155 0 91 4 138 10 134 6 -4 10
-67 10 -156 l0 -150 63 3 62 3 0 192 c0 189 0 192 -24 217 -20 21 -34 26 -72
26 l-47 0 -4 76 c-4 84 -11 94 -70 94 -55 0 -68 -19 -68 -101 0 -44 -4 -68
-10 -64 -5 3 -10 25 -10 48 0 61 -8 69 -71 65 l-54 -3 -3 -54 c-3 -43 -7 -54
-23 -58 -10 -3 -19 -10 -19 -15 0 -6 -8 -7 -17 -3 -43 18 -91 23 -127 15 l-39
-9 70 72 c127 130 127 136 -19 284 -110 111 -113 113 -157 113 -44 0 -48 -3
-153 -108z m283 -19 c83 -81 109 -113 109 -133 0 -36 -201 -240 -238 -240 -18
0 -52 26 -124 98 -112 109 -125 130 -104 170 24 47 201 212 226 212 16 0 57
-34 131 -107z m-737 -208 c37 -18 61 -55 69 -107 l6 -38 -46 0 c-38 0 -44 3
-39 16 4 9 -1 27 -9 40 -20 30 -70 33 -85 5 -6 -11 -10 -90 -10 -185 0 -178 5
-196 55 -196 36 0 55 36 55 102 l0 58 -35 0 c-33 0 -35 2 -35 35 l0 35 73 0
72 0 -3 -112 c-2 -88 -7 -118 -21 -138 -57 -81 -184 -73 -225 15 -22 46 -23
359 -2 410 28 65 110 93 180 60z m1194 -85 c-2 -55 -1 -100 0 -100 2 0 15 9
29 20 34 27 69 25 98 -5 24 -24 25 -28 25 -184 0 -88 3 -166 6 -175 5 -13 -2
-16 -37 -16 l-44 0 3 139 c4 157 -3 184 -46 179 l-27 -3 -3 -157 -3 -158 -39
0 -40 0 0 280 0 280 41 0 40 0 -3 -100z m-158 -5 c0 -52 1 -55 25 -55 22 0 25
-4 25 -35 0 -33 -2 -35 -25 -29 l-26 6 3 -128 c3 -125 4 -129 26 -132 19 -3
22 -10 22 -44 l0 -41 -41 6 c-76 10 -84 27 -87 193 -3 129 -5 144 -20 142 -13
-2 -18 6 -20 30 -3 27 0 32 17 32 19 0 21 6 21 55 l0 55 40 0 40 0 0 -55z
m-611 3 l40 -43 1 -163 c0 -148 2 -164 18 -169 13 -3 17 -14 17 -44 l0 -40
-35 6 c-19 3 -45 17 -57 31 -22 24 -23 32 -23 222 0 108 -3 207 -6 220 -9 32
0 28 45 -20z m102 -86 c-20 -3 -21 -9 -21 -133 0 -84 -4 -128 -10 -124 -6 4
-10 69 -10 162 l0 157 31 -30 c29 -27 29 -29 10 -32z m-245 13 c50 -21 64 -62
64 -185 0 -125 -14 -164 -67 -186 -71 -30 -140 1 -164 73 -15 48 -8 231 11
262 17 26 63 50 98 51 12 0 38 -7 58 -15z m589 -16 c22 -23 24 -32 27 -197 l3
-172 -37 0 c-32 0 -38 3 -38 21 l0 20 -26 -20 c-31 -25 -52 -26 -99 -7 -26 11
-36 24 -46 55 -24 81 17 146 118 186 45 18 62 47 42 71 -17 21 -52 14 -64 -13
-9 -21 -62 -49 -73 -39 -11 11 10 74 31 93 31 29 46 33 96 29 29 -3 51 -12 66
-27z m-216 -42 c-12 -43 -5 -74 17 -79 12 -2 10 -8 -10 -27 l-26 -24 0 43 c0
37 -6 50 -37 83 -37 39 -37 39 -11 33 14 -3 37 -2 50 3 13 5 24 8 25 7 1 -1
-2 -19 -8 -39z m-82 -16 l32 -37 2 -135 1 -134 -41 -3 -41 -3 0 175 c0 97 3
176 8 175 4 0 21 -17 39 -38z m513 -101 c0 -60 -4 -100 -10 -100 -6 0 -10 40
-10 100 0 60 4 100 10 100 6 0 10 -40 10 -100z m-1120 -39 c0 -44 -13 -66 -34
-58 -12 5 -16 20 -16 55 0 47 1 49 25 44 21 -4 25 -10 25 -41z"/>
<path d="M962 1438 c-19 -19 -14 -56 8 -68 43 -23 83 17 60 60 -12 22 -49 27
-68 8z m46 -29 c-2 -6 -8 -10 -13 -10 -5 0 -11 4 -13 10 -2 6 4 11 13 11 9 0
15 -5 13 -11z"/>
<path d="M810 1285 c-28 -34 12 -85 54 -69 22 8 31 50 16 69 -16 19 -54 19
-70 0z m48 -26 c-2 -6 -8 -10 -13 -10 -5 0 -11 4 -13 10 -2 6 4 11 13 11 9 0
15 -5 13 -11z"/>
<path d="M962 1288 c-39 -39 17 -100 58 -63 34 31 20 75 -25 75 -12 0 -26 -5
-33 -12z m46 -29 c-2 -6 -8 -10 -13 -10 -5 0 -11 4 -13 10 -2 6 4 11 13 11 9
0 15 -5 13 -11z"/>
<path d="M1107 1293 c-4 -3 -7 -19 -7 -34 0 -39 33 -56 66 -34 27 17 29 27 14
56 -10 19 -59 27 -73 12z m44 -36 c-1 -12 -15 -9 -19 4 -3 6 1 10 8 8 6 -3 11
-8 11 -12z"/>
<path d="M955 1131 c-12 -38 3 -62 37 -59 17 2 36 11 42 21 16 25 -4 51 -42
55 -23 2 -32 -2 -37 -17z m55 -21 c0 -5 -7 -10 -15 -10 -8 0 -15 5 -15 10 0 6
7 10 15 10 8 0 15 -4 15 -10z"/>
<path d="M581 946 c-8 -9 -11 -48 -9 -111 2 -80 6 -100 21 -109 12 -8 22 -8
35 0 14 9 18 29 20 109 3 101 -4 125 -38 125 -10 0 -23 -6 -29 -14z m39 -107
c0 -57 -4 -88 -10 -84 -5 3 -10 44 -10 91 0 49 4 84 10 84 6 0 10 -37 10 -91z"/>
<path d="M1157 824 c-34 -23 -38 -29 -35 -62 3 -31 7 -37 29 -40 14 -2 31 3
37 10 14 17 27 118 16 118 -5 0 -26 -12 -47 -26z m18 -53 c-7 -23 -25 -29 -25
-8 0 14 21 39 28 33 2 -3 1 -14 -3 -25z"/>
</g>
</svg>
