<?xml version="1.0" standalone="no"?>
<!DOCTYPE svg PUBLIC "-//W3C//DTD SVG 20010904//EN"
 "http://www.w3.org/TR/2001/REC-SVG-20010904/DTD/svg10.dtd">
<svg version="1.0" xmlns="http://www.w3.org/2000/svg"
 width="100.000000pt" height="100.000000pt" viewBox="0 0 100.000000 100.000000"
 preserveAspectRatio="xMidYMid meet">
<metadata>
Created by potrace 1.16, written by Peter Selinger 2001-2019
</metadata>
<g transform="translate(0.000000,100.000000) scale(0.100000,-0.100000)"
fill="#000000" stroke="none">
<path d="M333 945 l-57 -55 -82 0 c-46 0 -85 -4 -89 -9 -3 -6 -8 -63 -10 -128
l-5 -118 -45 -23 c-32 -16 -45 -28 -45 -44 0 -19 1 -20 18 -5 26 24 124 67
152 67 14 0 31 4 38 9 8 5 -7 6 -36 3 l-51 -4 -6 33 c-3 19 -2 70 2 114 l8 80
93 0 c58 0 92 4 92 10 0 12 57 68 104 103 l29 22 -27 0 c-19 0 -43 -16 -83
-55z"/>
<path d="M586 967 c27 -18 53 -43 59 -55 9 -20 15 -21 57 -16 114 15 158 -22
158 -133 0 -55 2 -63 19 -63 10 0 42 -15 70 -34 45 -30 51 -32 51 -16 0 20
-74 70 -103 70 -14 0 -17 11 -17 60 0 71 -20 117 -56 130 -14 6 -51 10 -83 10
-53 0 -61 3 -101 40 -30 28 -52 40 -73 40 -28 0 -28 -1 19 -33z"/>
<path d="M428 873 c6 -2 18 -2 25 0 6 3 1 5 -13 5 -14 0 -19 -2 -12 -5z"/>
<path d="M560 734 c-22 -9 -26 -12 -10 -9 14 2 48 5 75 6 37 0 45 3 30 9 -28
12 -55 11 -95 -6z"/>
<path d="M434 672 c-26 -5 -42 -22 -21 -22 9 0 17 -6 17 -12 0 -9 3 -8 10 2 5
9 32 17 67 20 l58 6 -56 4 c-31 3 -65 3 -75 2z"/>
<path d="M240 660 c-12 -8 -11 -10 8 -10 12 0 22 5 22 10 0 13 -11 13 -30 0z"/>
<path d="M650 550 c-12 -8 -10 -10 8 -10 13 0 20 4 17 10 -7 12 -6 12 -25 0z"/>
<path d="M500 522 c0 -4 17 -6 38 -4 64 6 69 10 15 11 -29 0 -53 -3 -53 -7z"/>
<path d="M961 468 c-18 -21 -40 -38 -48 -38 -11 0 -13 -5 -8 -17 16 -37 36
-137 33 -162 -4 -38 -41 -53 -119 -48 l-67 4 -16 -61 c-10 -34 -28 -80 -42
-103 -19 -34 -22 -43 -10 -43 22 0 44 37 67 112 l21 68 66 0 c90 0 116 14 120
65 2 22 -2 66 -8 99 l-11 59 31 32 c18 19 30 41 28 51 -2 16 -8 13 -37 -18z"/>
<path d="M0 435 c0 -26 88 -112 125 -121 20 -5 23 -13 27 -77 3 -40 12 -87 22
-104 l17 -33 85 0 c82 0 87 -1 127 -34 57 -46 100 -66 139 -66 31 0 29 2 -27
28 -33 16 -77 44 -96 63 -37 34 -37 34 -122 31 l-85 -4 -18 34 c-9 18 -19 65
-22 103 -4 70 -5 70 -42 88 -21 10 -59 40 -84 67 -41 44 -46 47 -46 25z"/>
<path d="M370 425 c0 -8 4 -15 10 -15 5 0 7 7 4 15 -4 8 -8 15 -10 15 -2 0 -4
-7 -4 -15z"/>
<path d="M588 383 c7 -3 16 -2 19 1 4 3 -2 6 -13 5 -11 0 -14 -3 -6 -6z"/>
<path d="M325 360 c27 -12 35 -12 35 0 0 6 -12 10 -27 9 -25 0 -26 -1 -8 -9z"/>
<path d="M500 360 c36 -12 60 -12 60 0 0 6 -19 10 -42 9 -37 -1 -39 -2 -18 -9z"/>
<path d="M635 330 l-40 -7 52 -2 c28 0 55 4 58 9 7 11 -9 11 -70 0z"/>
<path d="M500 179 c0 -5 19 -9 42 -9 49 0 47 5 -4 13 -21 3 -38 2 -38 -4z"/>
</g>
</svg>
