<?xml version="1.0" standalone="no"?>
<!DOCTYPE svg PUBLIC "-//W3C//DTD SVG 20010904//EN"
 "http://www.w3.org/TR/2001/REC-SVG-20010904/DTD/svg10.dtd">
<svg version="1.0" xmlns="http://www.w3.org/2000/svg"
 width="100.000000pt" height="100.000000pt" viewBox="0 0 100.000000 100.000000"
 preserveAspectRatio="xMidYMid meet">
<metadata>
Created by potrace 1.16, written by Peter Selinger 2001-2019
</metadata>
<g transform="translate(0.000000,100.000000) scale(0.100000,-0.100000)"
fill="#000000" stroke="none">
<path d="M110 980 c0 -16 -7 -20 -35 -20 -33 0 -35 -2 -35 -35 0 -28 -4 -35
-20 -35 -11 0 -20 -4 -20 -10 0 -5 13 -10 30 -10 28 0 30 3 30 35 0 33 2 35
35 35 32 0 35 2 35 30 0 17 -4 30 -10 30 -5 0 -10 -9 -10 -20z"/>
<path d="M251 882 c-1 -80 3 -121 9 -117 12 7 12 143 1 200 -7 30 -9 10 -10
-83z"/>
<path d="M420 980 c0 -11 5 -20 10 -20 6 0 10 9 10 20 0 11 -4 20 -10 20 -5 0
-10 -9 -10 -20z"/>
<path d="M492 980 c0 -14 2 -19 5 -12 2 6 2 18 0 25 -3 6 -5 1 -5 -13z"/>
<path d="M740 980 c0 -10 -8 -24 -17 -29 -16 -9 -16 -10 5 -11 18 0 22 5 22
30 0 17 -2 30 -5 30 -3 0 -5 -9 -5 -20z"/>
<path d="M870 970 c0 -28 3 -30 35 -30 33 0 35 -2 35 -35 0 -32 2 -35 30 -35
17 0 30 5 30 10 0 6 -9 10 -20 10 -16 0 -20 7 -20 35 0 33 -2 35 -35 35 -28 0
-35 4 -35 20 0 11 -4 20 -10 20 -5 0 -10 -13 -10 -30z"/>
<path d="M150 950 c0 -5 12 -10 26 -10 14 0 23 4 19 10 -3 6 -15 10 -26 10
-10 0 -19 -4 -19 -10z"/>
<path d="M595 950 c-19 -8 -19 -9 3 -9 12 -1 22 4 22 9 0 6 -1 10 -2 9 -2 0
-12 -4 -23 -9z"/>
<path d="M650 950 c-24 -8 -23 -8 8 -9 17 -1 32 4 32 9 0 11 -5 11 -40 0z"/>
<path d="M310 855 c0 -103 17 -115 19 -13 1 54 5 74 19 84 15 12 14 13 -10 14
l-28 0 0 -85z"/>
<path d="M370 855 c0 -50 4 -85 10 -85 6 0 10 32 10 75 0 73 1 75 24 75 15 0
26 -7 29 -17 4 -17 5 -17 6 0 2 25 27 21 36 -5 7 -22 8 -22 12 5 3 20 9 27 20
23 8 -3 17 -6 19 -6 2 0 4 -7 4 -15 0 -8 5 -15 10 -15 6 0 10 11 10 25 0 25 0
25 -95 25 l-95 0 0 -85z"/>
<path d="M190 822 c0 -62 3 -112 8 -112 9 0 9 206 0 216 -5 4 -8 -43 -8 -104z"/>
<path d="M611 904 c0 -11 3 -14 6 -6 3 7 2 16 -1 19 -3 4 -6 -2 -5 -13z"/>
<path d="M80 880 c0 -5 11 -10 25 -10 14 0 25 5 25 10 0 6 -11 10 -25 10 -14
0 -25 -4 -25 -10z"/>
<path d="M440 814 c0 -34 4 -53 10 -49 6 3 10 23 10 45 0 33 12 50 36 50 2 0
4 -35 4 -77 0 -54 3 -73 10 -63 5 8 10 41 10 73 0 31 3 57 8 57 17 0 32 -60
32 -133 0 -49 4 -76 10 -72 6 3 10 37 10 76 0 39 4 69 10 69 6 0 10 -12 11
-27 1 -34 17 -79 18 -50 1 26 51 24 51 -3 0 -15 -7 -20 -25 -20 -14 0 -25 -4
-25 -10 0 -5 11 -10 25 -10 23 0 25 -4 25 -45 l0 -45 -45 0 c-25 0 -45 -4 -45
-10 0 -5 22 -10 49 -10 46 0 48 -1 43 -25 -5 -29 -26 -33 -41 -7 -9 15 -10 15
-11 -5 0 -20 5 -23 35 -23 l35 0 0 155 0 155 -31 0 c-17 0 -28 -4 -24 -10 3
-5 12 -10 20 -10 11 0 25 -20 25 -36 0 -2 -13 -4 -30 -4 -27 0 -30 3 -30 30 0
27 -3 30 -30 30 -25 0 -30 4 -30 25 0 19 4 23 18 18 9 -4 22 -14 29 -22 11
-14 12 -12 13 12 l0 27 -90 0 -90 0 0 -56z"/>
<path d="M650 863 c8 -3 21 -12 28 -21 10 -14 12 -13 12 6 0 18 -6 22 -27 21
-16 0 -21 -3 -13 -6z"/>
<path d="M758 863 c6 -2 18 -2 25 0 6 3 1 5 -13 5 -14 0 -19 -2 -12 -5z"/>
<path d="M810 861 c0 -4 11 -6 25 -3 14 2 25 6 25 8 0 2 -11 4 -25 4 -14 0
-25 -4 -25 -9z"/>
<path d="M870 860 c0 -5 11 -10 25 -10 14 0 25 5 25 10 0 6 -11 10 -25 10 -14
0 -25 -4 -25 -10z"/>
<path d="M132 830 c0 -14 2 -19 5 -12 2 6 2 18 0 25 -3 6 -5 1 -5 -13z"/>
<path d="M710 801 c0 -10 197 -7 207 3 3 3 -42 6 -100 6 -59 0 -107 -4 -107
-9z"/>
<path d="M940 780 c0 -27 3 -30 30 -30 17 0 30 5 30 10 0 6 -9 10 -20 10 -11
0 -20 5 -20 10 0 6 9 10 20 10 11 0 20 5 20 10 0 6 -13 10 -30 10 -27 0 -30
-3 -30 -30z"/>
<path d="M132 770 c0 -14 2 -19 5 -12 2 6 2 18 0 25 -3 6 -5 1 -5 -13z"/>
<path d="M15 743 c11 -3 26 -12 33 -21 11 -14 12 -13 12 6 0 18 -5 22 -32 21
-21 -1 -26 -3 -13 -6z"/>
<path d="M250 730 c0 -24 6 -25 26 -6 19 20 18 26 -6 26 -13 0 -20 -7 -20 -20z"/>
<path d="M310 730 c0 -11 5 -20 10 -20 6 0 10 4 10 9 0 5 9 11 20 14 13 3 20
0 20 -9 0 -8 5 -14 10 -14 6 0 10 5 10 10 0 6 20 10 44 10 25 0 48 5 51 10 4
6 -27 10 -84 10 -84 0 -91 -1 -91 -20z"/>
<path d="M710 740 c0 -5 6 -10 14 -10 8 0 17 -6 19 -12 4 -9 6 -8 6 2 1 12 16
14 86 11 57 -2 85 1 85 8 0 7 -35 11 -105 11 -63 0 -105 -4 -105 -10z"/>
<path d="M41 683 c0 -5 4 -17 9 -28 8 -18 9 -17 9 8 1 15 -3 27 -9 27 -5 0
-10 -3 -9 -7z"/>
<path d="M130 670 c0 -24 6 -25 26 -6 19 20 18 26 -6 26 -13 0 -20 -7 -20 -20z"/>
<path d="M190 660 c0 -27 -3 -30 -30 -30 l-30 0 0 -95 0 -95 60 0 60 0 0 -30
c0 -23 4 -30 20 -30 24 0 25 6 5 26 -8 9 -15 20 -15 25 0 5 7 9 15 9 12 0 12
3 -2 18 -12 11 -19 13 -21 6 -4 -14 -94 -6 -104 10 -15 23 -6 26 67 26 43 0
75 4 75 10 0 6 -30 10 -70 10 -38 0 -70 3 -70 8 0 20 62 32 162 32 65 0 108 4
108 10 0 6 -9 10 -19 10 -11 0 -22 8 -24 18 -4 14 -5 14 -6 -3 -1 -19 -7 -20
-81 -17 -59 3 -80 7 -80 17 0 8 12 15 28 17 21 2 28 9 30 31 4 33 42 40 42 7
0 -14 7 -20 23 -20 20 1 20 2 5 11 -32 18 -19 29 36 29 34 0 56 -5 59 -12 4
-10 6 -10 6 0 1 6 10 12 21 12 18 0 25 -15 21 -42 -2 -14 45 -19 94 -10 l50
10 -62 1 -63 1 0 30 0 30 -155 0 -155 0 0 -30z m60 -5 c0 -20 -5 -25 -24 -25
-19 0 -23 4 -19 19 3 11 12 22 22 24 9 3 17 5 19 6 1 0 2 -10 2 -24z m-60 -65
c0 -23 -4 -30 -20 -30 -26 0 -28 46 -2 53 9 3 18 5 20 6 1 0 2 -12 2 -29z"/>
<path d="M710 685 c0 -3 9 -15 20 -27 l20 -22 0 27 c0 20 -5 27 -20 27 -11 0
-20 -2 -20 -5z"/>
<path d="M764 681 c3 -5 38 -9 78 -10 67 -1 87 -9 88 -33 0 -5 -39 -8 -86 -8
-54 0 -83 -4 -79 -10 3 -5 26 -10 50 -10 33 0 45 -4 48 -17 3 -13 5 -11 6 6 1
17 5 21 17 17 9 -3 20 -6 25 -6 5 0 9 -20 9 -45 0 -33 -4 -45 -14 -45 -8 0
-18 -4 -21 -10 -4 -6 7 -10 24 -10 l31 0 0 95 0 95 -91 0 c-49 0 -88 -4 -85
-9z"/>
<path d="M968 633 c6 -2 18 -2 25 0 6 3 1 5 -13 5 -14 0 -19 -2 -12 -5z"/>
<path d="M45 620 c3 -5 8 -10 11 -10 2 0 4 5 4 10 0 6 -5 10 -11 10 -5 0 -7
-4 -4 -10z"/>
<path d="M78 623 c6 -2 18 -2 25 0 6 3 1 5 -13 5 -14 0 -19 -2 -12 -5z"/>
<path d="M710 620 c0 -5 5 -10 10 -10 6 0 10 -6 10 -14 0 -8 5 -18 10 -21 6
-4 10 7 10 24 0 24 -4 31 -20 31 -11 0 -20 -4 -20 -10z"/>
<path d="M960 570 c0 -5 9 -10 20 -10 11 0 20 5 20 10 0 6 -9 10 -20 10 -11 0
-20 -4 -20 -10z"/>
<path d="M60 470 l0 -90 91 0 c57 0 88 4 84 10 -3 6 -40 10 -81 10 -66 0 -74
2 -74 19 0 11 8 22 18 24 16 4 16 5 0 6 -22 1 -24 31 -3 31 8 0 15 5 15 10 0
6 -9 10 -19 10 -14 0 -18 5 -14 20 3 11 11 20 19 20 7 0 16 5 19 10 4 6 -7 10
-24 10 l-31 0 0 -90z"/>
<path d="M440 530 l0 -30 60 0 60 0 0 30 0 30 -60 0 -60 0 0 -30z m100 0 c0
-5 -18 -10 -40 -10 -22 0 -40 5 -40 10 0 6 18 10 40 10 22 0 40 -4 40 -10z"/>
<path d="M728 542 c9 -10 18 -13 20 -7 1 6 24 9 52 7 41 -3 50 -7 50 -23 0
-17 -8 -19 -76 -19 -47 0 -73 -4 -69 -10 3 -5 26 -10 51 -10 37 0 44 -3 44
-20 0 -18 -8 -20 -117 -23 -75 -2 -110 -6 -96 -11 12 -4 24 -18 26 -30 4 -21
4 -21 6 2 1 20 6 22 61 22 33 0 60 -4 60 -10 0 -5 -10 -10 -23 -10 -29 0 -47
-18 -47 -47 0 -21 -5 -23 -49 -23 -39 0 -51 4 -54 18 -4 16 -5 16 -6 0 -1 -12
-9 -18 -25 -18 -15 0 -26 7 -29 18 -3 10 -5 6 -6 -10 l-1 -28 125 0 125 0 0
35 c0 32 2 35 30 35 27 0 30 3 30 30 0 25 4 30 25 30 19 0 23 -4 18 -17 -4
-10 -14 -23 -22 -30 -14 -11 -12 -12 12 -13 l27 0 0 90 0 90 -80 0 c-77 0 -79
-1 -62 -18z m106 -58 c22 -8 20 -21 -4 -27 -15 -4 -20 0 -20 14 0 21 1 22 24
13z m-44 -75 c0 -5 -9 -9 -20 -9 -11 0 -20 6 -20 14 0 9 7 12 20 9 11 -3 20
-9 20 -14z m-58 -54 c-3 -16 -11 -25 -23 -25 -14 0 -19 7 -19 25 0 20 5 25 24
25 19 0 22 -4 18 -25z"/>
<path d="M588 503 c7 -3 16 -2 19 1 4 3 -2 6 -13 5 -11 0 -14 -3 -6 -6z"/>
<path d="M968 503 c6 -2 18 -2 25 0 6 3 1 5 -13 5 -14 0 -19 -2 -12 -5z"/>
<path d="M7 493 c7 -2 19 -2 26 0 6 3 1 5 -13 5 -14 0 -19 -2 -13 -5z"/>
<path d="M310 375 l0 -125 30 0 c27 0 30 -3 30 -30 0 -28 3 -30 35 -30 30 0
35 -3 35 -24 0 -20 -4 -23 -22 -18 -13 3 -28 13 -35 21 -11 14 -12 12 -13 -11
l0 -28 95 0 95 0 0 80 c0 50 -4 80 -11 80 -6 0 -10 -10 -9 -22 1 -13 2 -44 1
-70 -1 -41 -4 -48 -21 -48 -18 0 -20 7 -20 76 0 47 -4 73 -10 69 -6 -3 -10
-26 -10 -51 0 -37 -3 -44 -20 -44 -18 0 -20 7 -20 86 0 58 -3 83 -11 79 -6 -4
-10 -32 -9 -64 2 -84 1 -91 -15 -91 -11 0 -15 12 -15 46 0 47 -16 74 -44 74
-13 0 -16 13 -16 75 0 58 3 75 14 75 8 0 17 -8 19 -17 3 -11 5 -7 6 10 1 24
-3 27 -29 27 l-30 0 0 -125z m60 -89 c0 -19 -4 -23 -20 -19 -11 3 -20 14 -20
24 0 12 7 19 20 19 14 0 20 -7 20 -24z m120 -100 c0 -12 -13 -36 -20 -36 -4 0
-10 9 -13 20 -4 15 0 20 14 20 10 0 19 -2 19 -4z"/>
<path d="M398 493 c7 -3 16 -2 19 1 4 3 -2 6 -13 5 -11 0 -14 -3 -6 -6z"/>
<path d="M924 475 c-4 -8 -12 -15 -20 -15 -8 0 -14 -4 -14 -10 0 -5 11 -10 25
-10 20 0 25 5 25 25 0 28 -8 33 -16 10z"/>
<path d="M440 470 c0 -5 5 -10 10 -10 6 0 10 5 10 10 0 6 -4 10 -10 10 -5 0
-10 -4 -10 -10z"/>
<path d="M480 470 c0 -5 5 -10 10 -10 6 0 10 5 10 10 0 6 -4 10 -10 10 -5 0
-10 -4 -10 -10z"/>
<path d="M540 470 c0 -5 5 -10 10 -10 6 0 10 5 10 10 0 6 -4 10 -10 10 -5 0
-10 -4 -10 -10z"/>
<path d="M0 430 c0 -5 9 -10 20 -10 11 0 20 5 20 10 0 6 -9 10 -20 10 -11 0
-20 -4 -20 -10z"/>
<path d="M365 430 c28 -12 55 -12 55 0 0 6 -17 10 -37 9 -31 0 -34 -2 -18 -9z"/>
<path d="M440 410 l0 -30 60 0 60 0 0 30 0 30 -60 0 -60 0 0 -30z m60 0 c0
-22 -8 -25 -30 -10 -13 9 -13 11 0 20 22 15 30 12 30 -10z m40 0 c0 -5 -4 -10
-10 -10 -5 0 -10 5 -10 10 0 6 5 10 10 10 6 0 10 -4 10 -10z"/>
<path d="M940 400 c0 -11 4 -20 9 -20 5 0 7 9 4 20 -3 11 -7 20 -9 20 -2 0 -4
-9 -4 -20z"/>
<path d="M60 341 l0 -31 91 0 c60 0 88 3 84 10 -4 6 -14 10 -23 9 -10 -1 -43
-1 -74 0 -43 1 -58 5 -58 15 0 8 -4 18 -10 21 -6 4 -10 -7 -10 -24z"/>
<path d="M250 341 c0 -24 4 -31 20 -31 11 0 20 5 20 10 0 6 -4 10 -10 10 -5 0
-10 6 -10 14 0 8 -4 18 -10 21 -6 4 -10 -7 -10 -24z"/>
<path d="M793 353 c-4 -10 -14 -23 -22 -30 -14 -11 -12 -12 12 -13 23 0 27 4
27 30 0 34 -7 39 -17 13z"/>
<path d="M862 350 c-2 -8 -4 -57 -6 -108 -2 -68 -6 -96 -17 -103 -11 -7 -9 -9
9 -9 17 0 22 -6 22 -25 0 -14 5 -25 10 -25 6 0 10 7 10 15 0 8 7 15 15 15 8 0
15 5 15 10 0 6 -11 10 -25 10 -24 0 -24 0 -28 118 -1 64 -4 110 -5 102z"/>
<path d="M940 320 c0 -5 5 -10 11 -10 5 0 7 5 4 10 -3 6 -8 10 -11 10 -2 0 -4
-4 -4 -10z"/>
<path d="M251 280 c-1 -13 -20 -14 -126 -12 -85 3 -125 0 -125 -7 0 -7 48 -11
145 -11 90 0 145 4 145 10 0 6 -6 10 -14 10 -8 0 -17 6 -19 13 -4 8 -6 7 -6
-3z"/>
<path d="M586 269 c-19 -19 -19 -19 7 -19 20 0 27 5 27 20 0 25 -9 25 -34 -1z"/>
<path d="M670 280 c0 -5 -7 -10 -15 -10 -8 0 -15 -4 -15 -10 0 -5 8 -10 18
-10 15 0 17 -9 15 -72 -1 -40 -2 -78 -2 -84 -1 -7 -12 -14 -25 -16 -21 -4 -26
-1 -29 21 -4 26 -4 26 -12 4 -6 -19 -15 -23 -46 -23 -28 0 -39 4 -39 15 0 8
-4 15 -10 15 -5 0 -10 -11 -10 -25 0 -25 0 -25 95 -25 l95 0 0 115 c0 70 -4
115 -10 115 -5 0 -10 -4 -10 -10z"/>
<path d="M731 183 c-1 -72 -5 -110 -14 -115 -8 -5 -4 -8 11 -8 22 0 22 2 22
115 0 63 -4 115 -9 115 -5 0 -10 -48 -10 -107z"/>
<path d="M795 175 c1 -97 -2 -115 -15 -115 -13 0 -13 -1 0 -10 20 -13 70 -13
70 0 0 6 -9 10 -20 10 -19 0 -20 7 -20 115 0 63 -4 115 -8 115 -5 0 -8 -52 -7
-115z"/>
<path d="M940 200 c0 -27 4 -50 9 -50 5 0 8 19 7 42 -1 37 2 43 24 49 23 6 23
7 -7 8 -33 1 -33 1 -33 -49z"/>
<path d="M310 218 c0 -24 4 -28 27 -28 22 0 25 2 13 13 -8 6 -20 19 -27 27
-10 13 -12 11 -13 -12z"/>
<path d="M607 233 c-4 -3 -7 -22 -7 -41 0 -21 -7 -40 -17 -48 -16 -12 -15 -13
10 -14 26 0 27 2 27 55 0 56 -1 60 -13 48z"/>
<path d="M60 210 c0 -11 4 -20 9 -20 5 0 7 9 4 20 -3 11 -7 20 -9 20 -2 0 -4
-9 -4 -20z"/>
<path d="M115 200 c-3 -5 -1 -10 4 -10 6 0 11 5 11 10 0 6 -2 10 -4 10 -3 0
-8 -4 -11 -10z"/>
<path d="M154 199 c-11 -5 13 -8 59 -8 42 -1 77 3 77 7 0 11 -110 11 -136 1z"/>
<path d="M898 193 c7 -3 16 -2 19 1 4 3 -2 6 -13 5 -11 0 -14 -3 -6 -6z"/>
<path d="M120 160 c0 -5 -9 -10 -20 -10 -11 0 -20 -4 -20 -10 0 -5 11 -10 25
-10 18 0 25 5 25 20 0 11 -2 20 -5 20 -3 0 -5 -4 -5 -10z"/>
<path d="M165 140 c-19 -8 -19 -9 3 -9 12 -1 22 4 22 9 0 6 -1 10 -2 9 -2 0
-12 -4 -23 -9z"/>
<path d="M220 140 l-25 -8 28 -1 c15 -1 27 4 27 9 0 6 -1 10 -2 9 -2 -1 -14
-5 -28 -9z"/>
<path d="M310 140 c0 -5 10 -10 23 -10 18 0 19 2 7 10 -19 13 -30 13 -30 0z"/>
<path d="M0 120 c0 -5 9 -10 20 -10 16 0 20 -7 20 -35 0 -33 2 -35 35 -35 28
0 35 -4 35 -20 0 -11 5 -20 10 -20 6 0 10 13 10 30 0 28 -3 30 -35 30 -33 0
-35 2 -35 35 0 32 -2 35 -30 35 -17 0 -30 -4 -30 -10z"/>
<path d="M940 95 c0 -33 -2 -35 -35 -35 -32 0 -35 -2 -35 -30 0 -17 5 -30 10
-30 6 0 10 9 10 20 0 16 7 20 35 20 33 0 35 2 35 35 0 28 4 35 20 35 11 0 20
5 20 10 0 6 -13 10 -30 10 -28 0 -30 -3 -30 -35z"/>
<path d="M440 85 c0 -21 5 -25 28 -25 24 1 25 2 10 14 -10 7 -18 18 -18 25 0
6 -4 11 -10 11 -5 0 -10 -11 -10 -25z"/>
<path d="M150 70 c0 -5 9 -10 20 -10 16 0 20 -7 20 -30 0 -17 5 -30 10 -30 6
0 10 9 10 20 0 11 5 20 10 20 6 0 10 -9 10 -20 0 -11 5 -20 10 -20 6 0 10 13
10 30 0 27 -3 30 -30 30 -16 0 -30 5 -30 10 0 6 -9 10 -20 10 -11 0 -20 -4
-20 -10z"/>
<path d="M370 51 c0 -4 11 -6 25 -3 14 2 25 6 25 8 0 2 -11 4 -25 4 -14 0 -25
-4 -25 -9z"/>
<path d="M562 20 c0 -14 2 -19 5 -12 2 6 2 18 0 25 -3 6 -5 1 -5 -13z"/>
<path d="M622 20 c0 -14 2 -19 5 -12 2 6 2 18 0 25 -3 6 -5 1 -5 -13z"/>
</g>
</svg>
