<?xml version="1.0" standalone="no"?>
<!DOCTYPE svg PUBLIC "-//W3C//DTD SVG 20010904//EN"
 "http://www.w3.org/TR/2001/REC-SVG-20010904/DTD/svg10.dtd">
<svg version="1.0" xmlns="http://www.w3.org/2000/svg"
 width="180.000000pt" height="180.000000pt" viewBox="0 0 180.000000 180.000000"
 preserveAspectRatio="xMidYMid meet">
<metadata>
Created by potrace 1.16, written by Peter Selinger 2001-2019
</metadata>
<g transform="translate(0.000000,180.000000) scale(0.100000,-0.100000)"
fill="#000000" stroke="none">
<path d="M573 1713 c-20 -7 -16 -43 5 -43 15 0 15 2 2 10 -13 9 -12 12 4 25
19 15 14 19 -11 8z"/>
<path d="M630 1710 c-8 -5 -10 -10 -5 -10 6 0 17 5 25 10 8 5 11 10 5 10 -5 0
-17 -5 -25 -10z"/>
<path d="M781 1699 c-393 -60 -684 -398 -685 -794 0 -155 20 -241 86 -375 101
-203 307 -367 531 -420 124 -30 288 -28 403 6 232 67 406 210 510 419 69 140
88 230 81 395 -6 149 -20 206 -82 332 -78 156 -207 284 -370 366 -124 61 -332
93 -474 71z m179 -30 c0 -7 12 -9 36 -5 22 5 41 3 50 -5 7 -6 25 -8 39 -5 16
4 42 -2 76 -19 29 -13 56 -22 60 -19 5 3 9 -2 9 -10 0 -9 6 -16 13 -16 6 -1
-1 -8 -18 -16 -16 -8 -21 -12 -10 -8 11 3 35 8 54 11 27 5 32 3 26 -7 -5 -9
-4 -11 3 -6 7 4 24 -4 39 -18 15 -14 30 -23 34 -21 4 3 12 -1 18 -9 9 -11 8
-14 -5 -12 -9 0 -19 -6 -21 -14 -3 -10 -2 -11 4 -3 13 19 47 10 65 -17 10 -14
18 -21 18 -17 0 5 7 2 15 -7 8 -8 12 -21 9 -30 -4 -11 0 -13 16 -9 11 3 20 2
18 -3 -1 -5 11 -22 27 -38 l29 -29 -22 -10 c-22 -10 -30 -27 -12 -27 6 0 10 5
10 10 0 6 6 10 14 10 16 0 41 -54 31 -70 -3 -6 -1 -9 6 -8 14 3 31 -58 23 -87
-4 -17 -3 -18 6 -5 9 12 10 6 6 -25 -3 -22 -6 -49 -7 -60 l0 -20 -9 20 c-6 14
-7 7 -3 -22 3 -28 0 -50 -11 -70 -9 -15 -25 -50 -37 -78 -16 -39 -22 -46 -30
-35 -8 12 -10 10 -6 -8 3 -12 1 -19 -4 -16 -6 3 -17 0 -26 -8 -13 -10 -17 -10
-20 0 -3 6 -12 12 -21 12 -15 -1 -14 -3 2 -15 11 -8 28 -15 38 -15 18 0 18 -1
1 -25 -20 -27 -36 -33 -27 -10 4 8 1 15 -6 15 -8 0 -10 -8 -7 -23 5 -18 -5
-32 -48 -70 -30 -26 -52 -40 -48 -30 6 15 5 16 -9 3 -9 -8 -14 -18 -11 -22 2
-5 -2 -8 -9 -8 -7 0 -38 -12 -68 -26 -43 -20 -75 -26 -163 -31 -74 -4 -108 -2
-103 5 3 6 15 8 26 5 15 -4 19 -2 14 10 -4 12 0 15 19 13 13 -2 30 -6 38 -10
8 -4 4 1 -8 12 -27 24 -30 34 -6 25 11 -4 14 -3 9 5 -4 7 -1 12 9 12 8 0 20
11 27 25 6 13 15 22 20 19 10 -7 38 14 38 28 0 6 -7 5 -15 -2 -8 -7 -15 -8
-15 -2 0 5 6 15 14 21 11 10 17 8 26 -6 11 -17 11 -17 6 0 -3 10 1 32 10 49 8
16 17 38 19 49 2 10 9 27 15 36 9 15 10 12 6 -15 -4 -20 -2 -31 4 -27 15 9 12
55 -4 61 -12 5 -13 28 -9 133 5 114 4 134 -17 197 -31 96 -78 169 -152 240
-103 99 -206 149 -343 169 l-80 11 80 16 c96 19 235 23 235 7z m117 -5 c-3 -3
-12 -4 -19 -1 -8 3 -5 6 6 6 11 1 17 -2 13 -5z m-480 -58 c-15 -7 -25 -15 -22
-18 8 -8 65 14 65 24 0 11 50 10 112 -3 72 -14 109 -29 101 -42 -4 -6 3 -8 19
-4 19 5 33 -1 62 -28 23 -21 35 -39 30 -46 -4 -8 -3 -9 4 -5 6 4 8 14 5 24 -6
15 -5 15 10 3 9 -7 14 -17 11 -22 -3 -5 1 -9 8 -9 8 0 29 -13 48 -29 26 -22
30 -29 16 -28 -10 1 -21 -5 -23 -13 -4 -13 -3 -13 7 0 8 11 13 12 16 3 3 -7
12 -9 20 -6 8 3 14 0 14 -6 0 -7 11 -23 24 -36 23 -23 26 -47 11 -94 -4 -13
-2 -21 5 -21 6 0 13 14 17 32 l6 31 20 -49 c13 -32 20 -71 19 -114 0 -47 2
-58 8 -40 6 18 8 4 9 -49 1 -64 -1 -72 -14 -61 -18 15 -20 35 -3 24 7 -4 8 -3
4 5 -4 6 -12 9 -17 6 -5 -4 -9 -4 -9 -1 0 2 -3 12 -6 20 -5 12 -2 15 12 10 15
-5 16 -4 4 4 -10 8 -18 8 -27 0 -10 -8 -13 -7 -13 3 0 8 -9 20 -21 27 -13 9
-18 19 -14 32 7 22 -5 32 -24 20 -9 -5 -22 1 -38 19 -14 14 -22 20 -18 14 4
-8 1 -11 -9 -7 -8 3 -12 12 -9 20 3 9 -2 14 -13 14 -16 0 -17 2 -4 10 16 10
-3 14 -65 11 -16 0 -52 0 -80 1 -143 5 -233 0 -278 -15 -91 -32 -165 -77 -225
-136 -106 -104 -162 -215 -186 -361 l-13 -75 -13 60 c-20 84 -20 313 -1 325
12 7 13 13 2 36 -11 25 -11 26 5 13 16 -13 17 -12 11 5 -11 29 31 153 54 159
11 3 19 0 19 -6 0 -6 2 -8 5 -5 3 3 2 13 -1 22 -5 14 -9 15 -15 4 -5 -7 -9 -8
-9 -3 0 14 19 42 21 30 0 -5 4 1 8 15 5 16 14 24 25 23 13 -1 15 2 7 10 -15
15 -14 30 3 24 7 -3 19 0 26 6 10 10 11 6 6 -18 -5 -24 -4 -27 5 -12 7 12 7
27 1 46 -10 28 4 61 26 61 5 0 12 7 16 15 9 25 24 17 18 -10 -3 -18 0 -25 11
-25 12 0 13 7 7 35 -7 29 -5 35 9 35 10 0 26 7 37 16 16 13 16 15 2 10 -29 -9
-21 2 21 28 31 20 47 24 77 19 25 -4 35 -3 31 5 -4 5 -17 8 -29 4 -19 -5 -20
-4 -7 10 7 9 16 14 18 12 2 -2 13 3 25 11 11 8 27 15 36 14 8 0 3 -6 -13 -13z
m378 -386 c3 -5 1 -10 -4 -10 -6 0 -11 5 -11 10 0 6 2 10 4 10 3 0 8 -4 11
-10z m-165 -8 c0 -7 -26 -28 -52 -41 -15 -8 -24 -19 -21 -25 4 -6 -2 -4 -12 4
-13 10 -16 11 -11 2 5 -9 1 -15 -13 -19 -11 -3 -18 -9 -15 -14 3 -5 -6 -14
-20 -21 -15 -6 -25 -16 -24 -22 3 -18 -36 -76 -54 -82 -20 -6 -25 -24 -7 -24
7 0 6 -8 -3 -22 -10 -16 -12 -32 -7 -51 4 -16 3 -56 -3 -90 -20 -123 11 -266
82 -376 48 -75 156 -170 241 -212 69 -34 110 -47 214 -65 37 -6 38 -8 15 -14
-14 -5 -44 -8 -67 -9 -23 -1 -44 -5 -47 -10 -6 -9 -98 -7 -234 5 -34 3 -60 10
-57 15 4 5 -7 6 -25 3 -17 -4 -30 -2 -30 4 0 5 14 12 30 16 17 3 30 10 30 16
0 8 -6 8 -19 0 -32 -17 -161 -1 -161 19 0 4 -18 16 -39 27 -33 16 -38 22 -29
37 8 16 7 17 -11 8 -24 -13 -34 -14 -27 -2 3 5 -3 11 -14 14 -11 3 -20 12 -20
21 0 10 -5 13 -17 9 -11 -4 -14 -3 -9 5 4 7 -10 22 -33 38 -34 22 -39 29 -30
45 14 27 3 42 -23 28 -11 -6 -18 -7 -15 -2 3 5 -4 20 -17 34 -12 13 -20 31
-18 38 3 8 0 11 -7 7 -7 -5 -11 1 -11 16 0 18 2 20 10 8 5 -8 10 -10 10 -5 0
6 -4 16 -9 23 -6 11 -10 10 -15 -5 -7 -16 -9 -14 -21 12 -14 32 -14 194 0 228
10 24 25 4 25 -32 0 -34 6 -23 13 24 5 28 4 34 -3 20 -7 -16 -9 -17 -9 -3 -1
9 -4 23 -7 31 -3 8 1 21 9 28 7 8 17 27 21 42 4 19 13 27 29 27 16 0 18 3 9 9
-11 7 -8 17 13 50 15 22 30 41 32 41 2 0 1 -4 -2 -10 -3 -5 0 -7 9 -4 9 3 12
12 9 22 -5 11 -2 14 11 9 10 -4 16 -2 15 6 -3 23 1 37 11 37 5 0 6 -7 3 -17
-4 -11 -3 -14 5 -9 7 4 12 15 12 25 0 18 66 71 88 71 7 0 12 4 12 10 0 9 108
44 160 52 29 5 150 4 150 0z m180 -43 c31 -16 78 -51 103 -77 56 -58 117 -157
117 -191 -1 -70 -89 -189 -190 -256 -90 -60 -121 -65 -191 -30 -114 58 -249
236 -230 303 24 81 107 179 205 244 73 47 108 49 186 7z m672 -92 c0 -27 -4
-63 -8 -81 -3 -17 -3 -28 0 -25 4 3 10 26 15 50 9 43 9 42 11 -26 1 -38 2 -92
4 -120 2 -52 -6 -107 -25 -178 -8 -31 -13 -37 -20 -26 -7 9 -8 1 -4 -26 4 -29
3 -35 -4 -20 -8 17 -10 16 -10 -11 -1 -36 -62 -165 -69 -146 -2 8 1 19 7 25 6
6 11 16 11 21 0 6 -5 4 -11 -4 -8 -11 -12 -12 -16 -2 -2 6 -9 12 -15 12 -6 0
-6 -6 2 -15 15 -18 6 -48 -29 -100 -32 -49 -52 -66 -69 -60 -7 3 -12 -1 -10
-8 2 -6 -10 -27 -26 -44 -23 -26 -32 -30 -43 -21 -7 6 -16 8 -20 4 -3 -3 -1
-6 5 -6 7 0 12 -4 12 -10 0 -5 -7 -7 -15 -4 -9 4 -15 0 -15 -9 0 -10 -7 -13
-20 -10 -15 4 -19 2 -15 -9 4 -11 -7 -20 -37 -31 -66 -24 -99 -28 -148 -17
-45 9 -45 9 15 5 49 -3 55 -2 30 6 -16 6 -58 7 -92 4 -40 -3 -63 -2 -63 5 0 5
-7 10 -15 10 -8 0 -15 4 -15 10 0 5 -7 7 -15 4 -11 -4 -13 -2 -9 9 4 12 1 14
-14 10 -23 -6 -66 15 -104 52 -16 14 -28 23 -28 20 0 -4 -24 17 -54 47 -57 57
-102 131 -97 162 1 10 -2 15 -7 12 -5 -3 -12 7 -15 22 -6 32 2 50 14 31 5 -8
6 3 2 26 -7 51 -13 58 -13 17 0 -21 -5 -32 -14 -32 -11 0 -15 22 -18 93 -4 96
-2 110 11 88 7 -11 10 -11 15 0 3 8 5 -12 3 -44 -1 -31 1 -57 6 -57 4 0 7 17
8 38 0 25 3 31 8 19 4 -10 11 -18 16 -18 6 1 10 -3 10 -9 0 -14 58 -66 69 -62
5 2 4 -3 -2 -10 -6 -8 -7 -19 -3 -27 6 -9 11 -10 15 -2 4 6 2 11 -5 11 -7 0
-10 2 -7 5 9 9 38 -6 32 -17 -3 -5 0 -8 7 -7 8 1 28 -4 44 -11 72 -30 320 -39
406 -14 152 45 289 161 357 304 46 96 74 204 66 252 -5 29 -4 31 7 13 7 -10
12 -41 11 -68z m-561 50 c-10 -9 -11 -8 -5 6 3 10 9 15 12 12 3 -3 0 -11 -7
-18z m-799 -719 c-7 -7 -12 -8 -12 -2 0 14 12 26 19 19 2 -3 -1 -11 -7 -17z"/>
<path d="M775 1661 c-29 -7 -28 -8 17 -15 26 -5 53 -6 60 -3 7 3 -3 6 -22 7
l-35 2 30 8 c27 7 27 8 5 8 -14 0 -38 -4 -55 -7z"/>
<path d="M880 1633 c0 -5 19 -9 43 -9 34 -2 37 0 17 6 -33 11 -60 12 -60 3z"/>
<path d="M945 1590 c3 -5 8 -10 11 -10 2 0 4 5 4 10 0 6 -5 10 -11 10 -5 0 -7
-4 -4 -10z"/>
<path d="M1008 1548 c9 -9 15 -9 24 0 9 9 7 12 -12 12 -19 0 -21 -3 -12 -12z"/>
<path d="M1094 1549 c-3 -6 0 -18 9 -26 13 -13 14 -12 10 11 -6 29 -9 31 -19
15z"/>
<path d="M1040 1530 c0 -5 5 -10 11 -10 6 0 18 -9 27 -20 10 -10 31 -22 47
-25 l30 -6 -31 15 c-18 7 -35 19 -38 25 -11 17 -46 34 -46 21z"/>
<path d="M1166 1465 c-19 -15 -19 -15 2 -15 13 0 22 6 22 15 0 18 0 18 -24 0z"/>
<path d="M1191 1424 c0 -11 3 -14 6 -6 3 7 2 16 -1 19 -3 4 -6 -2 -5 -13z"/>
<path d="M1160 1421 c0 -5 5 -13 10 -16 6 -3 10 -2 10 4 0 5 -4 13 -10 16 -5
3 -10 2 -10 -4z"/>
<path d="M1170 1379 c0 -5 5 -7 10 -4 6 3 10 8 10 11 0 2 -4 4 -10 4 -5 0 -10
-5 -10 -11z"/>
<path d="M1520 1346 c0 -9 5 -16 10 -16 6 0 10 4 10 9 0 6 -4 13 -10 16 -5 3
-10 -1 -10 -9z"/>
<path d="M1227 1300 c3 -11 7 -20 9 -20 2 0 4 9 4 20 0 11 -4 20 -9 20 -5 0
-7 -9 -4 -20z"/>
<path d="M1260 1285 c0 -19 2 -35 4 -35 2 0 6 16 8 35 2 19 0 35 -4 35 -4 0
-8 -16 -8 -35z"/>
<path d="M1260 1205 c4 -20 11 -40 15 -43 10 -10 -5 61 -15 72 -5 5 -5 -8 0
-29z"/>
<path d="M1601 1114 c0 -11 3 -14 6 -6 3 7 2 16 -1 19 -3 4 -6 -2 -5 -13z"/>
<path d="M1273 1080 c0 -25 2 -35 4 -22 2 12 2 32 0 45 -2 12 -4 2 -4 -23z"/>
<path d="M1275 990 c3 -5 8 -10 11 -10 2 0 4 5 4 10 0 6 -5 10 -11 10 -5 0 -7
-4 -4 -10z"/>
<path d="M1261 963 c0 -4 4 -17 9 -28 8 -19 9 -19 9 2 1 12 -3 25 -9 28 -5 3
-10 3 -9 -2z"/>
<path d="M1520 913 c0 -4 5 -15 10 -23 8 -13 10 -13 10 2 0 9 -4 20 -10 23 -5
3 -10 3 -10 -2z"/>
<path d="M1293 753 c9 -2 25 -2 35 0 9 3 1 5 -18 5 -19 0 -27 -2 -17 -5z"/>
<path d="M1356 745 c4 -8 8 -15 10 -15 2 0 4 7 4 15 0 8 -4 15 -10 15 -5 0 -7
-7 -4 -15z"/>
<path d="M1392 745 c2 -8 -6 -21 -17 -29 -11 -8 -17 -17 -14 -21 4 -3 19 5 34
19 16 15 32 26 36 26 22 0 6 15 -16 16 -16 1 -24 -3 -23 -11z"/>
<path d="M1175 700 c-16 -17 -16 -20 -3 -15 9 4 19 13 22 21 7 19 2 18 -19 -6z"/>
<path d="M1295 670 c3 -5 11 -10 16 -10 6 0 7 5 4 10 -3 6 -11 10 -16 10 -6 0
-7 -4 -4 -10z"/>
<path d="M1287 649 c7 -7 15 -10 18 -7 3 3 -2 9 -12 12 -14 6 -15 5 -6 -5z"/>
<path d="M1105 630 c3 -5 8 -10 11 -10 2 0 4 5 4 10 0 6 -5 10 -11 10 -5 0 -7
-4 -4 -10z"/>
<path d="M623 1580 c-30 -12 -29 -18 2 -16 14 0 25 7 25 14 0 6 -1 12 -2 11
-2 0 -13 -4 -25 -9z"/>
<path d="M733 1583 c9 -2 23 -2 30 0 6 3 -1 5 -18 5 -16 0 -22 -2 -12 -5z"/>
<path d="M790 1570 c-8 -5 -10 -10 -5 -10 6 0 17 5 25 10 8 5 11 10 5 10 -5 0
-17 -5 -25 -10z"/>
<path d="M466 1527 c3 -10 9 -15 12 -12 3 3 0 11 -7 18 -10 9 -11 8 -5 -6z"/>
<path d="M441 1491 c-10 -7 -7 -9 12 -8 14 1 23 5 20 10 -6 9 -15 9 -32 -2z"/>
<path d="M320 1415 c-7 -8 -8 -15 -2 -15 5 0 15 7 22 15 7 8 8 15 2 15 -5 0
-15 -7 -22 -15z"/>
<path d="M1110 1309 c0 -5 5 -7 10 -4 6 3 10 8 10 11 0 2 -4 4 -10 4 -5 0 -10
-5 -10 -11z"/>
<path d="M1042 1270 c0 -19 2 -27 5 -17 2 9 2 25 0 35 -3 9 -5 1 -5 -18z"/>
<path d="M420 1230 c0 -5 9 -10 21 -10 11 0 17 5 14 10 -3 6 -13 10 -21 10 -8
0 -14 -4 -14 -10z"/>
<path d="M197 1214 c-4 -4 -7 -19 -6 -33 l0 -26 10 24 c10 26 8 47 -4 35z"/>
<path d="M227 1193 c-4 -3 -7 -13 -7 -22 1 -13 3 -13 11 2 11 19 8 33 -4 20z"/>
<path d="M405 1190 c3 -5 13 -10 21 -10 8 0 14 5 14 10 0 6 -9 10 -21 10 -11
0 -17 -4 -14 -10z"/>
<path d="M320 1156 c0 -2 7 -6 15 -10 8 -3 15 -1 15 4 0 6 -7 10 -15 10 -8 0
-15 -2 -15 -4z"/>
<path d="M355 1129 c-4 -6 -12 -8 -19 -6 -6 3 -12 -4 -12 -14 0 -17 2 -17 23
3 13 12 23 23 23 25 0 7 -9 2 -15 -8z"/>
<path d="M261 1071 c-7 -5 -15 -26 -17 -47 -2 -26 0 -33 6 -24 5 8 7 24 4 34
-5 15 -3 18 11 12 13 -5 16 -2 11 10 -4 12 -2 15 9 10 8 -3 15 -1 15 4 0 12
-20 13 -39 1z"/>
<path d="M150 1010 c0 -5 7 -13 16 -18 13 -7 14 -13 5 -30 -15 -29 -14 -37 4
-22 21 17 19 42 -5 63 -11 9 -20 13 -20 7z"/>
<path d="M216 975 c-9 -26 -7 -32 5 -12 6 10 9 21 6 23 -2 3 -7 -2 -11 -11z"/>
<path d="M186 931 c-4 -7 -5 -15 -2 -18 9 -9 19 4 14 18 -4 11 -6 11 -12 0z"/>
<path d="M163 870 c0 -30 2 -43 4 -27 2 15 2 39 0 55 -2 15 -4 2 -4 -28z"/>
<path d="M626 1191 c-3 -5 1 -12 10 -15 22 -8 25 -4 9 11 -8 7 -16 9 -19 4z"/>
<path d="M688 1193 c12 -2 30 -2 40 0 9 3 -1 5 -23 4 -22 0 -30 -2 -17 -4z"/>
<path d="M535 1170 c-16 -7 -17 -9 -3 -9 9 -1 20 4 23 9 7 11 7 11 -20 0z"/>
<path d="M585 1170 c3 -5 10 -10 16 -10 5 0 9 5 9 10 0 6 -7 10 -16 10 -8 0
-12 -4 -9 -10z"/>
<path d="M728 1173 c7 -3 16 -2 19 1 4 3 -2 6 -13 5 -11 0 -14 -3 -6 -6z"/>
<path d="M650 1153 c0 -6 -3 -20 -7 -30 -7 -17 -6 -17 11 0 14 14 16 21 7 30
-8 8 -11 8 -11 0z"/>
<path d="M436 1111 c-3 -5 5 -11 19 -13 20 -4 23 -3 14 8 -13 16 -25 18 -33 5z"/>
<path d="M378 1018 c-15 -15 -16 -18 -3 -18 9 0 18 7 22 15 8 23 0 24 -19 3z"/>
<path d="M306 961 c-4 -7 -5 -15 -2 -18 9 -9 19 4 14 18 -4 11 -6 11 -12 0z"/>
<path d="M202 705 c0 -16 2 -22 5 -12 2 9 2 23 0 30 -3 6 -5 -1 -5 -18z"/>
<path d="M488 603 c7 -3 16 -2 19 1 4 3 -2 6 -13 5 -11 0 -14 -3 -6 -6z"/>
<path d="M207 594 c-4 -4 -7 -14 -7 -23 0 -11 3 -12 11 -4 6 6 10 16 7 23 -2
6 -7 8 -11 4z"/>
<path d="M571 514 c0 -11 3 -14 6 -6 3 7 2 16 -1 19 -3 4 -6 -2 -5 -13z"/>
<path d="M580 471 c0 -6 5 -13 10 -16 6 -3 10 1 10 9 0 9 -4 16 -10 16 -5 0
-10 -4 -10 -9z"/>
<path d="M640 358 c-10 -21 -10 -21 3 -6 8 10 18 14 22 10 5 -4 5 -1 1 6 -10
17 -14 15 -26 -10z"/>
<path d="M690 321 c0 -5 5 -13 10 -16 6 -3 10 -2 10 4 0 5 -4 13 -10 16 -5 3
-10 2 -10 -4z"/>
<path d="M647 301 c-3 -14 -1 -18 9 -14 8 3 14 11 14 19 0 21 -17 17 -23 -5z"/>
<path d="M720 276 c0 -2 7 -6 15 -10 8 -3 15 -1 15 4 0 6 -7 10 -15 10 -8 0
-15 -2 -15 -4z"/>
<path d="M575 190 c11 -5 27 -9 35 -9 13 -1 13 0 0 9 -8 5 -24 9 -35 9 l-20 0
20 -9z"/>
<path d="M887 169 c13 -13 67 -23 60 -12 -4 6 -20 13 -37 15 -17 3 -27 1 -23
-3z"/>
<path d="M974 135 c-17 -13 -16 -14 14 -4 33 11 41 19 19 19 -7 0 -22 -7 -33
-15z"/>
<path d="M888 133 c7 -3 16 -2 19 1 4 3 -2 6 -13 5 -11 0 -14 -3 -6 -6z"/>
<path d="M960 1131 c0 -5 7 -12 16 -15 14 -5 15 -4 4 9 -14 17 -20 19 -20 6z"/>
<path d="M780 1090 c-9 -6 -10 -10 -3 -10 6 0 15 5 18 10 8 12 4 12 -15 0z"/>
<path d="M1044 1075 c3 -21 16 -31 16 -12 0 9 -4 18 -9 21 -5 4 -8 -1 -7 -9z"/>
<path d="M1040 1021 c0 -6 4 -13 10 -16 6 -3 7 1 4 9 -7 18 -14 21 -14 7z"/>
<path d="M1080 1016 c0 -2 9 -6 20 -9 11 -3 18 -1 14 4 -5 9 -34 13 -34 5z"/>
<path d="M1147 916 c-4 -10 -12 -14 -19 -10 -10 6 -11 4 0 -7 14 -15 37 1 30
22 -3 9 -6 7 -11 -5z"/>
<path d="M1125 860 c-3 -5 -1 -10 4 -10 6 0 11 5 11 10 0 6 -2 10 -4 10 -3 0
-8 -4 -11 -10z"/>
<path d="M685 829 c-4 -6 -4 -13 -1 -16 3 -4 6 -1 6 5 0 6 8 13 18 15 15 4 15
5 0 6 -9 0 -20 -4 -23 -10z"/>
<path d="M1120 821 c0 -6 4 -13 10 -16 6 -3 7 1 4 9 -7 18 -14 21 -14 7z"/>
<path d="M697 803 c-4 -3 -7 -11 -7 -17 0 -6 5 -5 12 2 6 6 9 14 7 17 -3 3 -9
2 -12 -2z"/>
<path d="M750 740 c0 -5 5 -10 10 -10 6 0 10 5 10 10 0 6 -4 10 -10 10 -5 0
-10 -4 -10 -10z"/>
<path d="M780 700 c0 -5 5 -10 11 -10 5 0 7 5 4 10 -3 6 -8 10 -11 10 -2 0 -4
-4 -4 -10z"/>
<path d="M930 676 c0 -3 9 -10 20 -16 11 -6 20 -8 20 -6 0 3 -9 10 -20 16 -11
6 -20 8 -20 6z"/>
<path d="M890 649 c0 -5 -5 -7 -12 -3 -7 4 -8 3 -4 -4 4 -6 13 -9 21 -5 17 6
20 23 5 23 -5 0 -10 -5 -10 -11z"/>
<path d="M1650 930 c0 -5 5 -10 10 -10 6 0 10 5 10 10 0 6 -4 10 -10 10 -5 0
-10 -4 -10 -10z"/>
<path d="M1575 824 c-9 -15 -12 -23 -6 -20 11 7 35 46 28 46 -3 0 -12 -12 -22
-26z"/>
<path d="M1567 777 c-3 -7 3 -13 13 -13 10 0 16 6 13 13 -3 7 -9 13 -13 13 -4
0 -10 -6 -13 -13z"/>
<path d="M1500 721 c0 -5 5 -13 10 -16 6 -3 10 -2 10 4 0 5 -4 13 -10 16 -5 3
-10 2 -10 -4z"/>
<path d="M644 709 c-3 -6 -2 -15 3 -20 5 -5 9 -1 9 11 0 23 -2 24 -12 9z"/>
<path d="M1423 626 c-6 -8 -9 -17 -6 -20 12 -11 19 -6 20 14 2 23 2 23 -14 6z"/>
<path d="M1358 603 c7 -3 16 -2 19 1 4 3 -2 6 -13 5 -11 0 -14 -3 -6 -6z"/>
<path d="M800 556 c0 -15 37 -32 47 -22 4 3 -1 6 -10 6 -9 0 -17 7 -17 15 0 8
-4 15 -10 15 -5 0 -10 -6 -10 -14z"/>
<path d="M840 559 c0 -5 10 -9 23 -9 18 0 19 -2 7 -10 -8 -5 -12 -10 -8 -10 3
0 15 -3 25 -6 15 -5 16 -4 3 6 -12 9 -10 10 13 6 42 -10 32 0 -18 17 -25 9
-45 12 -45 6z"/>
<path d="M1250 560 c-8 -5 -10 -10 -5 -10 6 0 17 5 25 10 8 5 11 10 5 10 -5 0
-17 -5 -25 -10z"/>
<path d="M1160 541 l-45 -6 40 -7 c24 -5 41 -4 43 2 2 6 16 8 30 5 23 -5 24
-4 7 4 -11 5 -22 9 -25 9 -3 -1 -25 -4 -50 -7z"/>
<path d="M950 530 c-18 -12 -2 -12 25 0 13 6 15 9 5 9 -8 0 -22 -4 -30 -9z"/>
<path d="M1048 523 c7 -3 16 -2 19 1 4 3 -2 6 -13 5 -11 0 -14 -3 -6 -6z"/>
<path d="M697 416 c10 -13 19 -23 21 -21 7 6 -19 45 -29 45 -5 0 -2 -11 8 -24z"/>
<path d="M1440 423 c0 -13 5 -23 10 -23 13 0 13 11 0 30 -8 12 -10 11 -10 -7z"/>
<path d="M1440 370 c0 -5 5 -10 10 -10 6 0 10 5 10 10 0 6 -4 10 -10 10 -5 0
-10 -4 -10 -10z"/>
<path d="M786 343 c-6 -14 -5 -15 5 -6 7 7 10 15 7 18 -3 3 -9 -2 -12 -12z"/>
<path d="M1360 325 c0 -9 5 -15 11 -13 6 2 11 8 11 13 0 5 -5 11 -11 13 -6 2
-11 -4 -11 -13z"/>
<path d="M1360 290 c0 -5 5 -10 11 -10 5 0 7 5 4 10 -3 6 -8 10 -11 10 -2 0
-4 -4 -4 -10z"/>
<path d="M906 271 c-11 -4 -15 -10 -10 -13 5 -4 18 0 29 8 20 15 12 17 -19 5z"/>
<path d="M1280 270 c0 -5 7 -7 15 -4 8 4 15 8 15 10 0 2 -7 4 -15 4 -8 0 -15
-4 -15 -10z"/>
<path d="M1218 1693 c7 -3 16 -2 19 1 4 3 -2 6 -13 5 -11 0 -14 -3 -6 -6z"/>
<path d="M1265 1690 c3 -5 8 -10 11 -10 2 0 4 5 4 10 0 6 -5 10 -11 10 -5 0
-7 -4 -4 -10z"/>
<path d="M430 1636 c0 -2 7 -9 15 -16 9 -7 15 -8 15 -2 0 5 -7 12 -15 16 -8 3
-15 4 -15 2z"/>
<path d="M1427 1593 c-4 -3 -7 -11 -7 -17 0 -6 5 -5 12 2 6 6 9 14 7 17 -3 3
-9 2 -12 -2z"/>
<path d="M1500 1535 c-8 -9 -8 -15 -2 -15 12 0 26 19 19 26 -2 2 -10 -2 -17
-11z"/>
<path d="M250 1439 c0 -5 5 -7 10 -4 6 3 10 8 10 11 0 2 -4 4 -10 4 -5 0 -10
-5 -10 -11z"/>
<path d="M1586 1425 c4 -8 8 -15 10 -15 2 0 4 7 4 15 0 8 -4 15 -10 15 -5 0
-7 -7 -4 -15z"/>
<path d="M210 1385 c-7 -9 -8 -15 -2 -15 5 0 12 7 16 15 3 8 4 15 2 15 -2 0
-9 -7 -16 -15z"/>
<path d="M1660 1290 c0 -5 5 -10 10 -10 6 0 10 5 10 10 0 6 -4 10 -10 10 -5 0
-10 -4 -10 -10z"/>
<path d="M100 1190 c0 -5 5 -10 11 -10 5 0 7 5 4 10 -3 6 -8 10 -11 10 -2 0
-4 -4 -4 -10z"/>
<path d="M1741 934 c0 -11 3 -14 6 -6 3 7 2 16 -1 19 -3 4 -6 -2 -5 -13z"/>
<path d="M1752 820 c0 -14 2 -19 5 -12 2 6 2 18 0 25 -3 6 -5 1 -5 -13z"/>
<path d="M82 690 c0 -14 2 -19 5 -12 2 6 2 18 0 25 -3 6 -5 1 -5 -13z"/>
<path d="M1730 610 c0 -5 5 -10 11 -10 5 0 7 5 4 10 -3 6 -8 10 -11 10 -2 0
-4 -4 -4 -10z"/>
<path d="M97 550 c3 -11 7 -20 9 -20 2 0 4 9 4 20 0 11 -4 20 -9 20 -5 0 -7
-9 -4 -20z"/>
<path d="M126 545 c4 -8 8 -15 10 -15 2 0 4 7 4 15 0 8 -4 15 -10 15 -5 0 -7
-7 -4 -15z"/>
<path d="M1672 530 c0 -14 2 -19 5 -12 2 6 2 18 0 25 -3 6 -5 1 -5 -13z"/>
<path d="M1625 470 c-3 -5 -1 -10 4 -10 6 0 11 5 11 10 0 6 -2 10 -4 10 -3 0
-8 -4 -11 -10z"/>
<path d="M160 450 c0 -5 5 -10 11 -10 5 0 7 5 4 10 -3 6 -8 10 -11 10 -2 0 -4
-4 -4 -10z"/>
<path d="M1586 393 c-4 -9 -3 -20 1 -24 4 -4 9 3 9 17 2 28 -1 31 -10 7z"/>
<path d="M206 385 c4 -8 8 -15 10 -15 2 0 4 7 4 15 0 8 -4 15 -10 15 -5 0 -7
-7 -4 -15z"/>
<path d="M260 320 c-8 -5 -12 -12 -9 -15 4 -3 12 1 19 10 14 17 11 19 -10 5z"/>
<path d="M370 210 c0 -5 5 -10 11 -10 5 0 7 5 4 10 -3 6 -8 10 -11 10 -2 0 -4
-4 -4 -10z"/>
<path d="M1308 133 c7 -3 16 -2 19 1 4 3 -2 6 -13 5 -11 0 -14 -3 -6 -6z"/>
<path d="M640 96 c0 -2 7 -7 16 -10 8 -3 12 -2 9 4 -6 10 -25 14 -25 6z"/>
<path d="M1155 60 c-3 -5 1 -10 10 -10 9 0 13 5 10 10 -3 6 -8 10 -10 10 -2 0
-7 -4 -10 -10z"/>
<path d="M765 51 c-14 -6 -7 -8 25 -8 32 0 39 2 25 8 -11 4 -22 8 -25 8 -3 0
-14 -4 -25 -8z"/>
<path d="M1105 50 c-3 -5 1 -10 10 -10 9 0 13 5 10 10 -3 6 -8 10 -10 10 -2 0
-7 -4 -10 -10z"/>
</g>
</svg>
