<?xml version="1.0" standalone="no"?>
<!DOCTYPE svg PUBLIC "-//W3C//DTD SVG 20010904//EN"
 "http://www.w3.org/TR/2001/REC-SVG-20010904/DTD/svg10.dtd">
<svg version="1.0" xmlns="http://www.w3.org/2000/svg"
 width="180.000000pt" height="180.000000pt" viewBox="0 0 180.000000 180.000000"
 preserveAspectRatio="xMidYMid meet">
<metadata>
Created by potrace 1.16, written by Peter Selinger 2001-2019
</metadata>
<g transform="translate(0.000000,180.000000) scale(0.100000,-0.100000)"
fill="#000000" stroke="none">
<path d="M185 1716 c-65 -29 -115 -110 -115 -186 0 -78 50 -157 119 -186 56
-23 147 -18 198 11 23 14 43 30 43 35 0 6 5 10 10 10 6 0 10 -13 10 -29 0 -31
14 -41 58 -41 48 0 57 14 62 91 3 45 10 74 17 77 8 2 13 -6 13 -20 1 -41 37
-107 72 -128 23 -14 50 -20 93 -20 52 0 66 4 95 29 l34 28 36 -28 c34 -27 40
-29 133 -28 122 1 127 4 128 107 l1 77 9 -57 c10 -72 22 -94 59 -113 31 -16
87 -20 106 -7 34 22 25 98 -12 112 -32 12 -32 48 0 60 45 17 43 110 -3 125
-13 4 -21 15 -21 30 0 28 -27 37 -76 24 -21 -6 -39 -20 -46 -34 -10 -23 -13
-23 -119 -19 -113 5 -133 1 -176 -39 l-23 -20 -22 20 c-54 48 -122 57 -188 23
-36 -19 -40 -19 -49 -3 -7 13 -24 18 -73 19 -76 2 -108 -9 -108 -35 0 -23 -16
-36 -25 -21 -3 5 -1 10 4 10 6 0 11 16 11 35 0 62 -69 105 -167 105 -32 -1
-71 -7 -88 -14z m197 -52 c21 -15 38 -30 38 -34 0 -4 -12 -15 -26 -25 -25 -16
-27 -16 -47 3 -68 62 -177 19 -177 -69 0 -54 16 -84 56 -103 47 -22 75 -20
114 7 53 35 50 47 -12 44 l-53 -2 -3 33 -3 32 85 0 86 0 0 -36 c0 -84 -55
-142 -143 -151 -120 -12 -204 76 -189 199 5 46 61 114 105 128 51 15 125 4
169 -26z m915 -29 c-6 -34 -5 -35 29 -35 31 0 34 -2 34 -31 0 -28 -2 -30 -32
-27 l-33 3 4 -55 c4 -67 6 -70 37 -70 19 0 24 -5 24 -25 0 -33 -18 -39 -69
-25 -46 12 -49 20 -53 115 -3 51 -6 60 -20 57 -14 -2 -18 4 -18 28 0 24 4 30
21 30 16 0 20 5 16 20 -5 21 7 35 38 43 11 2 22 5 24 6 2 0 1 -15 -2 -34z
m-696 -38 c-1 -4 -1 -20 -1 -36 0 -25 -4 -30 -27 -33 -27 -3 -28 -5 -33 -83
-5 -79 -5 -79 -33 -80 l-29 0 -1 118 -2 118 30 -3 c18 -2 29 -8 28 -15 -4 -19
10 -16 30 8 17 19 39 23 38 6z m207 -1 c44 -23 63 -51 65 -96 l2 -43 -87 2
c-87 2 -103 -4 -73 -29 10 -8 32 -11 64 -7 55 7 94 0 88 -16 -6 -18 -70 -47
-105 -47 -49 0 -89 25 -112 70 -25 50 -25 63 3 113 33 60 98 82 155 53z m259
-1 c14 -10 24 -12 28 -5 3 5 18 10 33 10 l27 0 -1 -116 c-1 -63 -4 -118 -7
-121 -3 -3 -19 1 -35 9 -24 13 -32 13 -47 1 -49 -35 -132 3 -155 71 -33 101
77 207 157 151z m-753 -4 c3 -5 -10 -12 -29 -15 -38 -7 -52 -34 -43 -81 6 -31
-6 -32 -26 -3 -21 30 -20 50 5 82 15 19 30 26 54 26 19 0 36 -4 39 -9z"/>
<path d="M712 1538 c-27 -27 -13 -38 48 -38 43 0 60 4 60 13 0 23 -23 37 -60
37 -20 0 -41 -5 -48 -12z"/>
<path d="M981 1524 c-26 -34 -26 -54 -1 -82 42 -45 110 -20 110 40 0 66 -69
92 -109 42z m76 -30 c3 -8 -2 -23 -11 -32 -15 -15 -17 -15 -32 0 -21 21 -11
48 16 48 11 0 23 -7 27 -16z"/>
<path d="M130 1310 c-12 -8 -15 -40 -15 -190 0 -201 0 -200 67 -200 47 0 68
21 68 71 0 36 2 39 28 39 15 0 46 11 70 25 l42 24 0 -64 c0 -74 14 -95 65 -95
38 0 65 22 65 53 l0 21 16 -22 c27 -40 65 -52 163 -51 98 0 121 10 121 52 1
19 2 20 10 5 20 -33 75 -58 130 -58 41 0 61 6 96 30 24 16 44 25 44 20 0 -5
18 -19 40 -30 85 -43 210 -13 210 50 0 16 5 32 10 35 6 3 10 29 10 57 0 86
-64 148 -152 148 -41 0 -102 -27 -121 -54 -6 -8 -10 -7 -14 2 -9 22 -80 52
-123 52 -47 0 -73 -11 -112 -48 -26 -23 -28 -24 -28 -6 0 41 -15 47 -114 51
-104 4 -141 -7 -170 -49 -15 -21 -16 -19 -16 43 0 37 -5 70 -12 77 -19 19 -96
15 -109 -6 -11 -17 -14 -17 -57 5 -36 18 -62 23 -121 23 -42 0 -83 -5 -91 -10z
m120 -30 c63 0 71 -2 99 -31 43 -43 44 -105 2 -147 -32 -32 -78 -46 -118 -36
-26 7 -26 7 -21 -50 3 -31 1 -56 -4 -57 -4 -1 -20 -1 -35 -2 l-28 -1 -2 154
c-2 85 0 161 2 169 3 7 12 10 21 7 9 -3 46 -6 84 -6z m238 -162 l-3 -162 -30
0 -30 0 -3 162 -2 162 35 0 35 0 -2 -162z m211 66 c15 -11 25 -13 30 -6 3 5
17 12 31 13 l25 4 3 -121 3 -121 -31 1 c-18 1 -30 6 -30 14 0 8 -3 12 -7 10
-5 -2 -20 -10 -35 -17 -65 -33 -138 15 -145 96 -6 62 9 98 49 123 40 24 76 25
107 4z m342 -15 l32 -22 -28 -23 c-28 -22 -29 -23 -43 -3 -30 43 -102 12 -102
-44 0 -58 60 -88 101 -51 17 15 20 15 46 -1 l27 -18 -29 -23 c-54 -43 -116
-43 -169 -1 -22 18 -29 34 -33 71 -14 119 100 185 198 115z m240 14 c33 -20
59 -68 59 -110 l0 -28 -90 3 c-90 4 -106 -2 -75 -28 10 -8 32 -11 64 -7 52 6
91 0 91 -14 0 -15 -48 -41 -88 -46 -79 -11 -142 44 -142 122 0 94 102 155 181
108z m-295 -94 c3 -6 22 -9 40 -7 20 2 34 0 34 -7 0 -7 -14 -9 -34 -7 -18 2
-37 -1 -40 -7 -10 -15 -43 -14 -49 2 -11 31 32 54 49 26z"/>
<path d="M216 1223 c-3 -4 -6 -28 -6 -55 0 -48 0 -48 33 -48 18 0 43 7 55 16
24 17 29 56 10 71 -16 12 -84 24 -92 16z m56 -48 c0 -5 -5 -11 -11 -13 -6 -2
-11 4 -11 13 0 9 5 15 11 13 6 -2 11 -8 11 -13z"/>
<path d="M617 1122 c-22 -25 -21 -75 1 -95 39 -36 112 -4 112 48 0 53 -78 86
-113 47z m73 -46 c0 -23 -22 -36 -42 -25 -23 12 -23 35 -1 48 19 10 43 -2 43
-23z"/>
<path d="M1178 1129 c-37 -21 -20 -36 42 -36 60 0 73 10 48 35 -15 15 -66 15
-90 1z"/>
<path d="M82 878 c-13 -13 -16 -66 -6 -92 4 -9 23 -19 45 -22 l39 -7 0 -113
c0 -124 5 -134 65 -134 46 0 65 17 65 58 l0 37 26 -33 c35 -44 73 -62 131 -62
91 0 153 63 153 155 0 98 -64 158 -163 153 -49 -3 -57 -1 -57 15 0 10 -5 27
-10 38 -10 17 -22 19 -143 19 -90 0 -137 -4 -145 -12z m268 -48 c0 -29 -1 -30
-47 -30 l-48 0 0 -127 0 -127 -30 0 -30 0 -3 130 -3 129 -44 -3 c-44 -4 -45
-4 -45 27 l0 31 125 0 125 0 0 -30z m150 -53 c36 -18 70 -74 70 -117 0 -27 -9
-47 -34 -76 -32 -37 -37 -39 -90 -39 -50 0 -59 4 -88 33 -29 29 -33 38 -32 86
0 58 11 78 59 108 35 21 79 23 115 5z m-190 -26 c0 -6 -4 -13 -10 -16 -5 -3
-10 1 -10 9 0 9 5 16 10 16 6 0 10 -4 10 -9z"/>
<path d="M400 710 c-24 -24 -26 -57 -4 -88 31 -45 114 -14 114 43 0 14 -9 34
-20 45 -11 11 -31 20 -45 20 -14 0 -34 -9 -45 -20z m68 -43 c4 -20 -25 -34
-40 -19 -15 15 -1 44 19 40 10 -2 19 -11 21 -21z"/>
<path d="M89 459 c-8 -17 -8 -32 1 -63 7 -23 18 -61 25 -86 7 -25 20 -72 30
-105 29 -106 34 -114 71 -121 57 -11 87 6 104 59 8 26 17 47 20 47 3 0 12 -21
20 -48 13 -42 19 -48 52 -56 26 -6 46 -6 63 2 23 11 32 23 50 77 6 16 8 17 12
5 8 -23 45 -60 75 -76 42 -22 119 -18 159 9 l33 22 23 -22 c24 -25 48 -28 87
-13 24 9 26 14 26 78 0 67 10 92 37 92 9 0 13 -20 13 -72 0 -40 5 -80 10 -88
15 -24 95 -20 114 5 9 11 16 15 16 9 0 -17 49 -34 100 -34 25 0 62 -1 82 -2
93 -4 124 116 41 160 -35 19 -72 14 -100 -14 -25 -25 -26 -25 -45 -7 -18 19
-18 20 17 64 53 67 44 109 -25 109 -19 0 -46 -7 -58 -16 -22 -15 -22 -15 -22
26 0 63 -13 80 -63 80 -52 0 -67 -13 -67 -57 0 -37 -7 -39 -101 -34 -39 2 -50
-1 -65 -21 l-18 -25 -34 24 c-41 27 -117 31 -161 8 l-28 -14 1 57 1 57 -42 3
c-49 4 -83 -11 -84 -36 0 -9 -6 -35 -13 -57 l-13 -40 -16 54 c-22 70 -32 81
-78 81 -46 0 -65 -18 -74 -68 -10 -62 -22 -71 -34 -26 -6 21 -11 44 -11 51 0
25 -32 43 -75 43 -35 0 -47 -5 -56 -21z m117 -104 c12 -49 23 -102 23 -117 1
-37 19 -45 26 -11 3 15 13 55 21 88 9 33 19 76 22 95 6 28 12 36 33 38 14 2
30 -3 36 -10 5 -7 20 -58 33 -113 31 -136 30 -134 40 -110 5 11 19 67 32 125
l24 105 37 3 c38 3 44 -5 28 -36 -10 -17 -22 -58 -56 -182 -29 -109 -31 -115
-38 -112 -4 1 -22 2 -39 2 l-33 0 -25 105 c-14 58 -28 105 -31 105 -3 0 -17
-46 -30 -102 l-25 -103 -37 -6 c-21 -3 -39 -3 -41 0 -2 3 -20 67 -40 141 -20
74 -41 143 -46 152 -18 31 -11 39 27 36 l36 -3 23 -90z m879 15 c0 -41 -2 -83
-5 -92 -10 -34 14 -22 44 23 25 38 38 48 66 51 51 7 55 0 21 -35 -17 -18 -39
-43 -50 -57 l-19 -25 50 -58 c28 -32 49 -60 46 -62 -2 -2 -21 -2 -41 2 -31 5
-43 14 -69 54 -40 62 -60 66 -46 9 13 -51 7 -66 -28 -65 l-29 2 -3 153 c-1 85
0 160 3 168 3 8 16 12 32 10 28 -3 28 -4 28 -78z m-313 -49 c74 -82 18 -211
-93 -211 -26 0 -46 9 -75 34 -37 32 -39 37 -39 89 0 45 5 60 25 82 34 37 57
46 110 40 33 -4 52 -12 72 -34z m130 3 c-3 -16 1 -14 25 9 40 38 55 35 51 -10
-2 -30 -7 -37 -26 -38 -34 -3 -43 -22 -41 -92 3 -70 0 -75 -36 -79 l-25 -3 0
118 c0 65 3 120 6 124 13 12 49 -11 46 -29z m458 -126 c27 -29 25 -52 -6 -77
-44 -35 -87 -22 -99 31 -14 56 63 90 105 46z"/>
<path d="M636 278 c-47 -66 34 -149 87 -90 22 25 22 81 0 98 -28 21 -70 17
-87 -8z m69 -43 c0 -13 -8 -21 -22 -23 -19 -3 -23 1 -23 23 0 22 4 26 23 23
14 -2 22 -10 22 -23z"/>
<path d="M1293 193 c-19 -7 -16 -60 3 -67 22 -8 54 11 54 32 0 32 -26 48 -57
35z m32 -28 c0 -10 -6 -20 -12 -22 -8 -3 -13 5 -13 22 0 17 5 25 13 23 6 -3
12 -13 12 -23z"/>
</g>
</svg>
