<?xml version="1.0" standalone="no"?>
<!DOCTYPE svg PUBLIC "-//W3C//DTD SVG 20010904//EN"
 "http://www.w3.org/TR/2001/REC-SVG-20010904/DTD/svg10.dtd">
<svg version="1.0" xmlns="http://www.w3.org/2000/svg"
 width="100.000000pt" height="100.000000pt" viewBox="0 0 100.000000 100.000000"
 preserveAspectRatio="xMidYMid meet">
<metadata>
Created by potrace 1.16, written by Peter Selinger 2001-2019
</metadata>
<g transform="translate(0.000000,100.000000) scale(0.100000,-0.100000)"
fill="#000000" stroke="none">
<path d="M53 945 c-30 -30 -33 -39 -33 -93 0 -37 5 -62 11 -64 15 -5 13 -281
-2 -286 -5 -2 -9 -21 -9 -43 0 -32 3 -39 20 -39 18 0 20 -7 20 -74 0 -65 -2
-74 -20 -79 -21 -5 -28 -41 -10 -52 6 -3 10 -21 10 -40 0 -19 5 -37 10 -40 6
-3 10 -21 10 -39 0 -58 61 -94 110 -64 15 10 22 10 32 0 16 -16 63 -15 77 2
12 14 51 10 51 -5 0 -13 84 -11 98 3 9 9 17 8 37 -2 21 -11 29 -11 50 0 20 10
28 11 37 2 15 -15 51 -15 65 -1 8 8 13 8 17 0 11 -17 125 -14 142 3 17 18 19
77 2 94 -7 7 -30 12 -52 13 -23 0 -35 3 -28 6 7 2 12 22 12 44 0 37 -1 39 -33
39 -21 0 -36 7 -45 20 -18 29 -92 29 -92 1 0 -17 -8 -20 -47 -23 -27 -2 -74
-1 -105 0 -48 3 -58 7 -58 22 0 10 -6 21 -12 23 -9 4 -9 8 -3 14 19 16 35 53
35 83 0 54 -33 87 -114 114 -10 4 -16 9 -13 12 3 3 121 5 262 5 216 0 260 3
273 15 20 20 20 138 0 156 -37 35 -90 49 -103 28 -3 -5 -24 -10 -45 -10 -21 0
-42 5 -45 10 -8 14 -41 13 -64 -2 -15 -9 -35 -9 -90 2 -55 10 -74 11 -83 2
-17 -17 -26 -15 -30 6 -4 20 42 49 52 33 3 -7 87 -9 220 -8 l215 2 3 34 c2 20
-2 37 -10 42 -10 7 -10 11 0 21 39 39 -11 128 -72 128 -19 0 -36 -6 -39 -12
-2 -9 -27 -14 -68 -15 -35 -1 -80 -4 -100 -8 -23 -4 -39 -3 -43 4 -9 14 -63
14 -72 0 -4 -7 -18 -8 -38 -4 -17 4 -46 7 -63 6 -19 -1 -33 3 -33 10 0 25 -36
38 -100 38 -61 0 -67 -2 -97 -34z m125 8 c-10 -2 -28 -2 -40 0 -13 2 -5 4 17
4 22 1 32 -1 23 -4z m38 -27 c21 -21 18 -26 -18 -26 -25 0 -29 3 -18 10 11 7
7 10 -18 10 -22 0 -41 -8 -57 -25 -30 -29 -32 -56 -5 -75 14 -10 16 -16 7 -22
-7 -4 7 -8 31 -8 38 0 72 16 72 34 0 3 -13 6 -30 6 -16 0 -30 5 -30 10 0 6 23
10 50 10 29 0 50 -5 50 -11 0 -5 -4 -7 -10 -4 -6 4 -10 -8 -10 -29 0 -34 -2
-36 -32 -36 -25 0 -29 -3 -18 -10 11 -7 4 -9 -25 -9 -35 1 -37 2 -15 9 22 7
21 8 -13 9 -21 1 -45 7 -53 15 -18 18 -19 121 -1 141 17 19 123 20 143 1z
m514 -6 c0 -11 5 -20 10 -20 6 0 10 -11 10 -25 0 -14 -4 -25 -10 -25 -5 0 -10
-13 -10 -30 0 -16 5 -30 10 -30 6 0 10 -9 10 -20 0 -14 -7 -20 -22 -20 -19 0
-20 2 -8 10 12 8 11 10 -7 10 -20 0 -23 5 -23 40 0 22 -4 40 -10 40 -30 0 1
69 32 71 7 0 4 4 -7 9 -19 8 -19 9 3 9 16 1 22 -5 22 -19z m-473 -42 c-3 -8
-6 -5 -6 6 -1 11 2 17 5 13 3 -3 4 -12 1 -19z m73 -3 c0 -18 -5 -25 -20 -25
-17 0 -20 -7 -20 -50 0 -27 -4 -50 -10 -50 -6 0 -10 32 -10 75 l0 75 30 0 c25
0 30 -4 30 -25z m136 11 c8 -8 14 -28 14 -45 0 -29 -2 -31 -40 -31 -22 0 -40
-4 -40 -10 0 -5 18 -10 40 -10 22 0 40 -4 40 -10 0 -5 -10 -10 -22 -10 -19 0
-20 -2 -8 -10 11 -7 7 -10 -17 -10 -18 0 -33 5 -33 10 0 6 -5 10 -11 10 -35 0
-54 84 -26 115 16 19 84 19 103 1z m184 -61 l0 -75 -27 1 -28 1 25 8 c24 8 23
8 -7 9 -18 1 -33 -3 -33 -9 0 -18 -31 -10 -55 15 -25 24 -35 75 -15 75 6 0 10
11 10 25 0 24 2 25 65 25 l65 0 0 -75z m-603 18 c-3 -10 -5 -4 -5 12 0 17 2
24 5 18 2 -7 2 -21 0 -30z m80 0 c-3 -10 -5 -4 -5 12 0 17 2 24 5 18 2 -7 2
-21 0 -30z m103 33 c0 -2 -18 -6 -40 -8 -22 -2 -40 0 -40 4 0 5 18 8 40 8 22
0 40 -2 40 -4z m-133 -28 c-3 -8 -6 -5 -6 6 -1 11 2 17 5 13 3 -3 4 -12 1 -19z
m56 -125 c-13 -2 -35 -2 -50 0 -16 2 -5 4 22 4 28 0 40 -2 28 -4z m110 0 c-7
-2 -19 -2 -25 0 -7 3 -2 5 12 5 14 0 19 -2 13 -5z m-67 -27 c16 -17 19 -66 4
-66 -5 0 -10 -5 -10 -11 0 -5 5 -7 10 -4 6 3 10 1 10 -4 0 -6 -21 -12 -47 -12
-43 -1 -45 -2 -18 -9 30 -8 30 -8 -7 -9 -29 -1 -38 -5 -38 -18 0 -15 2 -16 10
-3 8 12 10 9 10 -12 0 -21 -5 -28 -20 -28 -19 0 -20 7 -20 95 l0 95 51 0 c30
0 56 -6 65 -14z m74 -81 c0 -88 -1 -95 -20 -95 -19 0 -20 7 -20 95 0 88 1 95
20 95 19 0 20 -7 20 -95z m170 -20 l0 -75 -50 0 c-41 0 -56 5 -75 25 -25 24
-35 85 -15 85 6 0 10 9 10 20 0 18 7 20 65 20 l65 0 0 -75z m140 55 c0 -17 -7
-20 -40 -20 -39 0 -40 -1 -40 -35 0 -33 2 -35 33 -35 24 0 28 3 17 10 -12 8
-11 10 8 10 15 0 22 -6 22 -20 0 -14 -7 -20 -22 -20 -19 0 -20 -2 -8 -10 11
-7 6 -10 -20 -10 -26 0 -31 3 -20 10 12 8 11 10 -7 10 -17 0 -23 6 -23 23 0
18 -2 19 -10 7 -7 -11 -10 -7 -10 18 0 46 35 81 83 81 31 1 37 -2 37 -19z
m150 -2 c0 -19 2 -20 10 -8 7 11 10 5 10 -22 l0 -38 -50 0 c-27 0 -50 -4 -50
-10 0 -5 18 -10 40 -10 22 0 40 -3 40 -6 0 -15 -32 -34 -57 -34 -22 0 -25 2
-13 10 12 8 9 10 -12 10 -27 0 -28 2 -28 55 0 42 3 55 15 55 8 0 15 5 15 10 0
6 18 10 40 10 35 0 40 -3 40 -22z m-123 -70 c-2 -13 -4 -5 -4 17 -1 22 1 32 4
23 2 -10 2 -28 0 -40z m-27 32 c0 -5 -10 -10 -22 -9 -22 0 -22 1 -3 9 11 5 21
9 23 9 1 1 2 -3 2 -9z m-375 -71 c9 -26 7 -28 -32 -22 -24 4 -33 11 -33 24 0
28 56 27 65 -2z m-15 -79 c0 -13 -7 -20 -20 -20 -18 0 -20 -7 -20 -75 0 -73
-1 -75 -25 -75 -24 0 -25 2 -25 75 l0 75 -30 0 c-23 0 -30 4 -30 20 0 18 7 20
75 20 68 0 75 -2 75 -20z m106 -34 c41 -41 -3 -136 -63 -136 -22 0 -25 2 -13
10 12 8 11 10 -7 10 -21 0 -23 5 -23 50 0 28 6 57 13 65 16 19 74 19 93 1z
m-119 -78 c-2 -13 -4 -5 -4 17 -1 22 1 32 4 23 2 -10 2 -28 0 -40z m-32 -88
c-3 -5 -10 -10 -16 -10 -5 0 -9 5 -9 10 0 6 7 10 16 10 8 0 12 -4 9 -10z m105
6 c0 -3 -4 -8 -10 -11 -5 -3 -10 -1 -10 4 0 6 5 11 10 11 6 0 10 -2 10 -4z
m-150 -58 c0 -32 3 -39 10 -28 7 11 10 5 10 -22 0 -27 4 -38 15 -38 11 0 15
12 15 48 0 34 3 43 10 32 7 -11 10 -7 10 18 0 25 4 32 20 32 16 0 20 -7 20
-30 0 -16 5 -30 10 -30 6 0 10 -16 10 -35 0 -19 5 -35 10 -35 6 0 10 21 10 48
0 34 3 43 10 32 7 -11 10 -7 10 18 0 25 4 32 20 32 13 0 20 -7 20 -20 0 -11
-4 -20 -10 -20 -5 0 -10 -21 -11 -47 0 -36 -3 -43 -9 -28 -6 15 -9 8 -9 -27
-1 -46 -2 -48 -31 -48 -28 0 -30 2 -30 41 0 35 -17 69 -34 69 -3 0 -6 -25 -6
-55 l0 -55 -35 0 c-33 0 -35 2 -35 33 0 24 -3 28 -10 17 -7 -11 -10 3 -10 45
0 42 -3 56 -10 45 -7 -11 -10 -7 -10 18 0 25 4 32 20 32 17 0 20 -7 20 -42z
m500 -8 c0 -27 5 -50 10 -50 13 0 13 -27 0 -33 -6 -3 -5 -4 2 -3 8 2 12 16 10
40 -3 35 -2 36 30 37 28 0 30 2 13 9 -19 8 -19 9 3 9 28 1 30 -29 2 -49 -11
-8 -20 -24 -20 -35 0 -11 9 -27 20 -35 11 -8 20 -18 20 -22 0 -4 -9 -8 -20 -8
-11 0 -20 5 -20 10 0 6 -7 10 -15 10 -8 0 -15 5 -15 10 0 6 -4 10 -10 10 -5 0
-10 -9 -10 -20 0 -13 -7 -20 -20 -20 -19 0 -20 7 -20 95 0 88 1 95 20 95 17 0
20 -7 20 -50z m-207 3 c-7 -2 -21 -2 -30 0 -10 3 -4 5 12 5 17 0 24 -2 18 -5z
m47 -64 c0 -61 -15 -79 -65 -79 -46 0 -65 19 -65 65 0 51 16 64 78 65 l52 0 0
-51z m100 31 c0 -13 -7 -20 -20 -20 -17 0 -20 -7 -20 -45 0 -38 -3 -45 -20
-45 -12 0 -20 7 -20 18 0 14 2 15 10 2 7 -11 10 2 10 43 0 36 -4 56 -10 52 -5
-3 -10 -1 -10 4 0 6 18 11 40 11 33 0 40 -3 40 -20z m216 -64 c24 -25 17 -46
-16 -46 -27 0 -30 3 -30 30 0 33 21 40 46 16z m-13 -63 c-7 -2 -19 -2 -25 0
-7 3 -2 5 12 5 14 0 19 -2 13 -5z"/>
<path d="M398 858 c4 -23 9 -28 33 -28 16 0 29 5 29 10 0 6 -4 10 -10 10 -5 0
-10 6 -10 14 0 7 -10 16 -23 18 -20 4 -23 1 -19 -24z"/>
<path d="M360 865 c0 -5 5 -17 10 -25 5 -8 10 -10 10 -5 0 6 -5 17 -10 25 -5
8 -10 11 -10 5z"/>
<path d="M560 870 c0 -5 5 -10 10 -10 6 0 10 5 10 10 0 6 -4 10 -10 10 -5 0
-10 -4 -10 -10z"/>
<path d="M622 850 c0 -14 2 -19 5 -12 2 6 2 18 0 25 -3 6 -5 1 -5 -13z"/>
<path d="M540 820 c0 -27 3 -30 30 -30 27 0 30 3 30 30 0 27 -3 30 -30 30 -27
0 -30 -3 -30 -30z"/>
<path d="M100 660 c0 -28 3 -30 35 -30 32 0 35 2 35 30 0 28 -3 30 -35 30 -32
0 -35 -2 -35 -30z m17 -12 c-3 -7 -5 -2 -5 12 0 14 2 19 5 13 2 -7 2 -19 0
-25z"/>
<path d="M330 595 c0 -33 2 -35 35 -35 33 0 35 2 35 35 0 33 -2 35 -35 35 -33
0 -35 -2 -35 -35z"/>
<path d="M383 533 c9 -2 25 -2 35 0 9 3 1 5 -18 5 -19 0 -27 -2 -17 -5z"/>
<path d="M663 635 c-21 -23 -15 -35 17 -35 33 0 38 13 16 36 -17 17 -18 17
-33 -1z"/>
<path d="M121 378 c1 -68 6 -61 11 15 2 26 0 47 -4 47 -5 0 -7 -28 -7 -62z"/>
<path d="M210 365 c0 -32 2 -35 30 -35 28 0 30 3 30 35 0 32 -2 35 -30 35 -28
0 -30 -3 -30 -35z"/>
<path d="M281 364 c0 -11 3 -14 6 -6 3 7 2 16 -1 19 -3 4 -6 -2 -5 -13z"/>
<path d="M630 176 c0 -2 7 -7 16 -10 8 -3 12 -2 9 4 -6 10 -25 14 -25 6z"/>
<path d="M350 135 c0 -29 4 -35 23 -36 21 -1 21 -1 -3 -9 -25 -8 -25 -8 -2 -9
27 -1 52 20 52 44 0 23 -24 45 -49 45 -17 0 -21 -6 -21 -35z"/>
<path d="M332 125 c0 -16 2 -22 5 -12 2 9 2 23 0 30 -3 6 -5 -1 -5 -18z"/>
</g>
</svg>
