<?xml version="1.0" standalone="no"?>
<!DOCTYPE svg PUBLIC "-//W3C//DTD SVG 20010904//EN"
 "http://www.w3.org/TR/2001/REC-SVG-20010904/DTD/svg10.dtd">
<svg version="1.0" xmlns="http://www.w3.org/2000/svg"
 width="192.000000pt" height="192.000000pt" viewBox="0 0 192.000000 192.000000"
 preserveAspectRatio="xMidYMid meet">
<metadata>
Created by potrace 1.16, written by Peter Selinger 2001-2019
</metadata>
<g transform="translate(0.000000,192.000000) scale(0.100000,-0.100000)"
fill="#000000" stroke="none">
<path d="M206 1835 c-86 -30 -131 -110 -124 -218 7 -117 70 -177 193 -185 61
-4 81 -1 119 17 24 12 54 37 65 54 l21 32 0 -46 c0 -45 1 -47 34 -53 35 -7 66
0 78 18 4 6 8 40 8 77 0 63 10 89 36 89 7 0 14 -21 16 -51 6 -59 31 -97 79
-121 69 -36 189 -14 215 39 l11 23 13 -25 c27 -51 82 -60 278 -46 9 1 12 27
12 97 0 84 2 95 16 90 9 -3 18 -6 20 -6 2 0 4 -29 4 -64 0 -85 23 -114 95
-122 63 -6 78 4 78 54 0 48 -8 62 -34 62 -15 0 -19 7 -19 34 0 27 5 35 24 40
26 6 36 35 28 85 -3 25 -9 31 -28 31 -17 0 -24 6 -24 19 0 52 -15 59 -81 39
-32 -9 -39 -16 -39 -36 l0 -25 -122 6 c-136 6 -170 -2 -205 -46 l-20 -26 -24
26 c-30 32 -78 53 -121 53 -43 -1 -116 -34 -125 -57 -6 -14 -9 -12 -13 12 l-5
30 -90 0 -90 0 -3 -27 c-3 -25 -7 -28 -40 -28 l-37 1 28 15 c21 12 27 22 27
49 0 77 -145 129 -254 90z m157 -29 c30 -13 85 -62 76 -69 -40 -29 -59 -36
-66 -23 -22 37 -111 49 -152 20 -56 -39 -62 -130 -13 -177 49 -46 146 -41 180
11 14 22 14 22 -42 22 -56 0 -56 0 -56 30 l0 30 91 0 91 0 -7 -42 c-9 -57 -34
-98 -76 -126 -29 -21 -44 -23 -105 -20 -59 3 -77 8 -107 31 -20 15 -42 38 -49
50 -32 61 -26 153 14 207 45 61 148 87 221 56z m1027 -62 c0 -35 1 -36 30 -30
29 5 30 4 30 -29 0 -32 -2 -35 -30 -35 l-31 0 3 -62 c3 -60 4 -63 31 -66 23
-3 27 -8 27 -33 0 -27 -2 -29 -40 -29 -63 0 -80 24 -80 115 0 73 -1 75 -25 75
-22 0 -25 4 -25 35 0 33 2 35 26 29 25 -6 26 -5 20 20 -5 22 -2 28 16 36 41
16 48 12 48 -26z m-1050 -41 l25 -18 -50 -5 -50 -5 -3 -52 c-3 -51 -2 -52 30
-62 26 -7 28 -9 10 -10 -47 -2 -101 44 -102 86 0 12 12 35 26 52 30 36 75 41
114 14z m227 -9 c-2 -13 0 -24 4 -24 5 0 9 4 9 9 0 15 30 41 46 41 10 0 14
-12 14 -41 0 -25 -4 -38 -10 -34 -6 4 -22 -1 -35 -9 -23 -15 -25 -23 -25 -96
l0 -80 -30 0 -30 0 0 128 0 127 31 1 c27 1 30 -2 26 -22z m310 6 c38 -23 50
-43 59 -99 l7 -41 -103 0 c-101 0 -103 0 -86 -19 25 -27 63 -34 95 -18 24 12
32 12 55 0 14 -7 26 -15 26 -18 0 -2 -15 -13 -34 -24 -40 -25 -114 -28 -156
-6 -64 33 -81 138 -33 195 14 18 36 36 47 40 36 15 90 11 123 -10z m271 4 c19
-13 22 -13 22 -1 0 10 10 14 33 12 l32 -2 3 -127 3 -126 -36 0 c-26 0 -35 4
-35 17 0 15 -1 15 -18 0 -24 -22 -100 -22 -130 -1 -72 50 -69 180 7 227 33 21
90 22 119 1z"/>
<path d="M772 1653 c-7 -2 -17 -13 -22 -24 -10 -18 -7 -19 55 -19 67 0 77 7
49 34 -15 15 -55 20 -82 9z"/>
<path d="M1055 1635 c-48 -47 -19 -115 49 -115 62 0 89 75 43 118 -30 29 -62
28 -92 -3z m75 -20 c26 -32 -13 -81 -47 -59 -24 15 -27 38 -8 58 20 20 39 20
55 1z"/>
<path d="M126 1384 c-3 -9 -6 -94 -6 -189 0 -192 4 -205 61 -205 54 0 69 15
69 70 l0 50 34 0 c47 0 82 15 111 46 l25 27 0 -91 0 -90 30 -7 c17 -4 44 -4
60 0 29 6 30 9 31 63 1 50 2 53 10 27 4 -17 22 -44 39 -60 30 -29 36 -30 128
-32 133 -4 140 -1 148 48 l7 40 18 -28 c10 -15 33 -36 51 -45 63 -34 177 -17
211 32 15 22 15 22 26 2 27 -51 165 -71 229 -32 24 15 32 27 32 49 0 17 5 33
10 36 15 9 12 90 -4 129 -7 18 -26 42 -40 53 -56 45 -164 37 -215 -15 l-26
-27 -25 28 c-60 67 -202 53 -249 -24 l-19 -30 -6 44 -7 44 -96 6 c-137 8 -187
-16 -213 -102 -5 -17 -9 13 -9 81 l-1 107 -35 7 c-58 11 -85 -1 -85 -38 l0
-31 -25 27 c-35 38 -65 46 -170 46 -75 0 -94 -3 -99 -16z m235 -42 c26 -23 33
-38 37 -80 4 -49 2 -54 -31 -87 -32 -32 -40 -35 -91 -35 l-56 0 0 -60 0 -60
-35 0 -35 0 0 175 0 175 90 0 c84 0 92 -2 121 -28z m154 -147 l0 -175 -32 0
-33 0 0 175 0 175 33 0 32 0 0 -175z m247 58 c20 -17 21 -17 15 0 -5 14 0 17
28 17 l35 0 0 -125 0 -125 -36 0 c-28 0 -35 3 -30 15 3 8 1 15 -4 15 -6 0 -10
-4 -10 -10 0 -5 -17 -14 -38 -21 -76 -22 -141 29 -149 119 -8 82 54 147 130
138 21 -2 48 -13 59 -23z m347 -2 c38 -28 39 -37 3 -55 -26 -13 -31 -13 -45 1
-36 36 -107 5 -107 -46 0 -61 67 -95 111 -55 16 14 20 14 44 -2 l26 -17 -22
-23 c-72 -77 -205 -35 -225 71 -9 47 26 117 69 139 41 21 106 15 146 -13z
m257 13 c38 -18 59 -50 69 -106 l7 -37 -103 -3 c-98 -3 -102 -4 -85 -20 26
-26 61 -32 94 -15 26 13 32 12 52 -3 l22 -17 -26 -21 c-77 -60 -196 -21 -215
70 -25 116 80 202 185 152z m-272 -104 c14 0 28 5 31 10 13 21 25 9 25 -25 0
-32 -2 -35 -19 -25 -26 13 -67 13 -90 -2 -15 -9 -23 -9 -35 1 -39 32 -1 83 41
55 12 -8 33 -14 47 -14z"/>
<path d="M220 1255 l0 -55 36 0 c54 0 74 15 74 55 0 40 -20 55 -74 55 l-36 0
0 -55z m75 0 c0 -13 -8 -21 -22 -23 -19 -3 -23 1 -23 23 0 22 4 26 23 23 14
-2 22 -10 22 -23z"/>
<path d="M667 1209 c-38 -23 -41 -98 -4 -121 22 -14 74 -8 90 10 20 22 22 71
5 95 -16 21 -68 31 -91 16z m63 -33 c20 -25 8 -61 -22 -64 -37 -4 -57 31 -32
59 20 23 37 24 54 5z"/>
<path d="M1262 1204 c-36 -25 -25 -34 43 -34 68 0 77 6 47 33 -23 21 -61 22
-90 1z"/>
<path d="M82 883 l3 -58 43 -3 42 -3 0 -129 c0 -142 -1 -140 70 -140 21 0 42
5 46 12 8 13 13 87 14 196 0 59 1 62 24 62 l24 0 -19 -37 c-34 -68 -20 -152
35 -203 23 -21 39 -25 101 -28 l74 -4 43 40 43 41 0 73 c0 77 -14 110 -60 139
-30 19 -90 27 -134 19 l-40 -7 -3 41 -3 41 -153 3 -153 3 3 -58z m282 -2 c1
-30 0 -31 -46 -31 l-48 0 0 -135 0 -135 -35 0 -35 0 0 135 0 135 -50 0 c-50 0
-50 0 -50 33 l0 32 132 -2 131 -1 1 -31z m159 -55 c50 -21 70 -50 75 -109 5
-68 -24 -115 -86 -137 -37 -13 -47 -13 -84 0 -54 19 -88 67 -88 124 0 99 92
161 183 122z"/>
<path d="M419 754 c-17 -20 -17 -78 0 -98 21 -25 86 -21 105 6 36 51 7 108
-53 108 -23 0 -44 -6 -52 -16z m82 -30 c17 -21 0 -49 -31 -49 -31 0 -48 28
-31 49 8 9 21 16 31 16 10 0 23 -7 31 -16z"/>
<path d="M103 493 c-7 -2 -13 -14 -13 -26 0 -21 34 -150 81 -310 l20 -68 61 3
62 3 21 70 22 70 18 -60 c24 -83 28 -86 94 -83 l55 3 22 70 c13 42 23 60 23
45 5 -119 191 -170 278 -76 l32 34 3 -36 c3 -37 3 -37 52 -40 32 -2 52 1 57
10 5 7 9 46 9 86 0 69 1 73 26 83 15 5 29 7 32 5 2 -3 6 -41 8 -86 1 -44 6
-85 9 -90 3 -6 28 -10 55 -10 45 0 50 3 56 25 l6 25 20 -26 c18 -22 28 -25 82
-25 33 0 80 -2 103 -5 36 -5 46 -2 67 20 48 48 27 129 -37 141 -44 9 -85 -9
-98 -42 l-10 -27 -24 29 c-13 17 -24 34 -25 39 0 5 16 28 35 52 37 45 45 88
19 98 -32 12 -82 5 -108 -15 l-26 -20 0 55 c0 64 -16 86 -63 86 -46 0 -56 -10
-59 -58 -3 -40 -4 -42 -38 -43 -19 -1 -52 -1 -72 0 -64 4 -78 -5 -78 -52 l0
-42 -20 32 c-10 18 -33 39 -49 48 -43 22 -128 19 -175 -6 -36 -19 -38 -19 -31
-2 16 39 18 105 4 114 -17 11 -80 12 -95 1 -7 -4 -19 -36 -29 -72 -9 -36 -19
-72 -22 -80 -3 -8 -15 20 -27 63 -11 43 -28 82 -36 87 -18 11 -70 13 -86 2 -7
-4 -23 -43 -36 -87 l-24 -80 -18 75 c-10 41 -25 81 -34 88 -16 12 -75 15 -99
5z m116 -149 c17 -70 32 -128 34 -130 3 -4 30 93 60 214 9 38 13 42 42 42 l32
0 31 -113 c18 -63 32 -121 32 -130 0 -10 5 -17 10 -17 6 0 10 8 10 18 0 9 12
68 27 129 l28 113 38 0 c34 0 38 -2 32 -20 -17 -53 -78 -278 -83 -302 -4 -26
-8 -28 -48 -28 -43 0 -43 1 -54 43 -6 23 -15 56 -20 72 -5 17 -14 50 -21 75
l-11 45 -29 -100 c-15 -55 -28 -108 -29 -117 0 -14 -9 -18 -45 -18 -43 0 -45
1 -54 38 -6 20 -28 99 -49 175 l-39 137 38 0 37 0 31 -126z m941 20 l0 -107
42 57 c38 51 45 56 80 56 21 0 38 -4 38 -10 0 -5 -3 -10 -8 -10 -4 0 -26 -24
-49 -53 l-41 -53 20 -24 c11 -14 33 -40 49 -57 16 -18 29 -35 29 -38 0 -3 -17
-5 -37 -5 -34 0 -42 5 -78 56 l-40 55 -3 -55 -3 -56 -34 0 -35 0 0 175 0 175
35 0 35 0 0 -106z m-387 2 c76 -32 107 -116 69 -186 -55 -101 -206 -85 -242
26 -22 65 20 144 86 164 41 12 51 12 87 -4z m277 -26 c0 -34 -3 -40 -22 -40
-43 0 -58 -27 -58 -107 l0 -73 -32 0 -33 0 0 125 0 125 33 0 c26 0 32 -4 32
-22 1 -21 1 -21 11 -5 10 16 41 35 62 36 4 1 7 -17 7 -39z m406 -145 c34 -52
-29 -115 -81 -81 -28 18 -35 72 -13 94 22 22 76 15 94 -13z"/>
<path d="M677 292 c-23 -26 -21 -75 3 -97 27 -24 79 -24 96 0 20 27 17 79 -4
98 -25 22 -75 21 -95 -1z m81 -41 c5 -32 -23 -54 -49 -40 -11 5 -19 18 -19 27
0 45 62 56 68 13z"/>
<path d="M1376 194 c-19 -18 -20 -28 -6 -55 12 -21 50 -25 68 -7 18 18 14 56
-7 68 -27 14 -37 13 -55 -6z m52 -28 c-2 -17 -8 -23 -25 -23 -18 0 -23 5 -23
23 0 19 5 24 25 24 20 0 24 -5 23 -24z"/>
</g>
</svg>
