<?xml version="1.0" standalone="no"?>
<!DOCTYPE svg PUBLIC "-//W3C//DTD SVG 20010904//EN"
 "http://www.w3.org/TR/2001/REC-SVG-20010904/DTD/svg10.dtd">
<svg version="1.0" xmlns="http://www.w3.org/2000/svg"
 width="192.000000pt" height="192.000000pt" viewBox="0 0 192.000000 192.000000"
 preserveAspectRatio="xMidYMid meet">
<metadata>
Created by potrace 1.16, written by Peter Selinger 2001-2019
</metadata>
<g transform="translate(0.000000,192.000000) scale(0.100000,-0.100000)"
fill="#000000" stroke="none">
<path d="M244 1850 c-170 -25 -235 -258 -106 -377 40 -37 87 -53 157 -53 68 0
120 17 149 49 l19 21 16 -33 c17 -33 49 -45 96 -33 30 8 38 27 44 110 7 84 26
98 34 26 11 -93 68 -141 169 -141 59 -1 88 10 126 45 22 19 24 20 33 3 20 -35
64 -47 172 -47 67 0 107 4 115 12 7 7 12 44 12 95 0 49 4 83 10 83 6 0 10 -27
10 -60 0 -55 3 -62 35 -95 30 -29 43 -35 80 -35 69 0 75 5 75 66 0 49 -2 54
-25 60 -34 8 -35 55 -2 69 19 9 22 18 22 65 0 47 -3 56 -22 65 -12 5 -25 22
-28 37 -6 24 -12 28 -40 28 -45 0 -80 -17 -93 -45 -10 -21 -15 -22 -79 -18
-37 2 -86 6 -109 9 -47 7 -112 -21 -138 -58 l-16 -22 -16 22 c-21 31 -86 62
-128 62 -32 0 -95 -27 -120 -51 -6 -5 -14 1 -21 14 -9 20 -19 22 -89 24 -65 1
-81 -2 -97 -18 -10 -10 -19 -26 -19 -34 0 -8 -9 -15 -20 -15 -18 0 -17 2 5 25
29 28 31 42 10 73 -38 54 -134 85 -221 72z m158 -66 c23 -16 43 -34 45 -40 2
-6 -11 -18 -29 -27 -31 -15 -33 -15 -56 9 -19 18 -35 24 -71 24 -48 0 -83 -21
-108 -67 -26 -46 -12 -96 37 -140 51 -46 180 -17 180 41 0 12 -7 14 -32 9 -69
-15 -83 -11 -86 25 l-3 32 101 0 102 0 -6 -26 c-4 -15 -10 -40 -13 -57 -10
-48 -73 -104 -127 -112 -89 -14 -161 15 -204 81 -31 48 -31 153 0 197 46 66
92 89 171 84 44 -3 67 -10 99 -33z m1004 -35 l-6 -41 32 4 c30 3 32 1 34 -29
2 -31 -1 -33 -30 -33 l-32 0 2 -62 c3 -62 3 -63 33 -66 24 -3 31 -8 31 -25 0
-38 -12 -46 -58 -40 -64 9 -87 45 -79 129 6 63 6 64 -18 64 -21 0 -25 5 -25
30 0 26 4 30 26 30 23 0 25 3 19 30 -6 27 -4 30 19 30 14 0 26 5 26 10 0 6 7
10 16 10 14 0 15 -7 10 -41z m-1083 -46 l32 -18 -45 -5 -45 -5 -3 -52 c-2 -29
-6 -53 -11 -53 -18 0 -31 28 -31 67 0 38 4 46 33 63 39 24 31 24 70 3z m327
-23 c0 -35 -3 -40 -23 -40 -44 0 -59 -31 -56 -111 l4 -72 -33 -2 -32 -3 0 129
0 129 30 0 c24 0 30 -4 30 -22 0 -22 1 -22 25 5 37 40 55 35 55 -13z m206 32
c34 -11 74 -45 74 -64 0 -9 5 -20 10 -23 6 -3 10 -19 10 -36 l0 -29 -100 0
c-55 0 -100 -3 -100 -7 1 -31 61 -50 104 -33 36 13 76 3 76 -20 0 -21 -64 -50
-110 -50 -77 0 -140 60 -140 135 0 89 89 153 176 127z m307 -15 c6 -9 10 -9
14 1 2 6 21 12 41 12 l37 0 0 -125 0 -125 -37 0 c-20 0 -38 5 -40 12 -3 7 -13
5 -31 -7 -20 -13 -38 -16 -68 -11 -42 7 -89 44 -89 70 0 8 -4 18 -10 21 -16
10 -12 56 10 100 18 38 37 54 80 69 22 7 84 -4 93 -17z"/>
<path d="M772 1644 c-40 -28 -27 -39 43 -39 53 0 65 3 65 16 0 17 -39 39 -68
39 -10 0 -28 -7 -40 -16z"/>
<path d="M1056 1628 c-21 -30 -20 -71 2 -91 25 -23 85 -22 105 1 22 25 21 75
-1 95 -28 25 -87 22 -106 -5z m83 -31 c8 -11 6 -18 -9 -32 -19 -17 -22 -17
-37 -3 -9 9 -13 24 -10 32 8 20 40 21 56 3z"/>
<path d="M132 1388 c-17 -17 -17 -379 0 -396 7 -7 33 -12 60 -12 54 0 68 15
68 74 0 34 2 36 34 36 19 0 49 11 70 25 20 14 39 25 41 25 3 0 5 -29 5 -63 0
-77 16 -97 78 -97 42 0 72 19 72 46 0 11 10 6 29 -14 37 -37 71 -44 180 -36
91 7 111 15 111 45 0 26 7 24 46 -11 58 -51 145 -53 215 -4 l38 26 33 -25 c84
-64 250 -34 253 45 1 14 7 39 14 56 19 45 -2 112 -51 159 -36 35 -41 37 -107
37 -63 1 -72 -2 -108 -30 l-39 -32 -31 28 c-33 30 -101 45 -149 34 -16 -3 -46
-19 -66 -35 -43 -34 -48 -35 -48 -10 0 30 -20 38 -110 45 -99 7 -142 -3 -182
-41 l-28 -27 0 67 c0 57 -3 68 -22 81 -34 24 -86 20 -110 -8 l-21 -23 -35 23
c-31 21 -46 24 -131 24 -62 0 -101 -4 -109 -12z m206 -32 c47 -25 62 -52 62
-110 0 -43 -5 -58 -23 -76 -30 -29 -86 -48 -118 -40 -26 7 -58 -13 -39 -25 6
-3 10 -26 10 -49 0 -43 -1 -44 -35 -48 -20 -2 -38 -2 -40 1 -3 2 -5 85 -5 183
l0 178 80 0 c51 0 91 -5 108 -14z m176 -168 l-1 -182 -29 0 -29 0 -3 182 -2
182 32 0 33 0 -1 -182z m242 67 c4 -8 10 -15 15 -15 5 0 9 7 9 15 0 10 10 15
34 15 36 0 52 -12 40 -31 -9 -15 -9 -183 0 -198 4 -6 4 -15 1 -21 -9 -14 -58
-13 -73 2 -9 9 -15 9 -24 0 -20 -20 -102 -15 -132 9 -29 23 -56 78 -56 114 0
31 27 81 57 105 32 25 120 29 129 5z m355 -2 c36 -22 44 -42 22 -59 -24 -18
-41 -17 -59 1 -20 19 -54 19 -82 -1 -31 -21 -31 -87 0 -108 30 -22 65 -20 85
4 16 18 18 18 45 2 15 -9 28 -22 28 -28 0 -24 -66 -54 -119 -54 -44 0 -56 5
-88 34 -36 32 -38 37 -38 96 0 59 2 64 38 96 32 29 44 34 88 34 30 0 63 -7 80
-17z m301 -24 c34 -36 39 -46 36 -82 -2 -32 -7 -41 -18 -38 -8 2 -52 5 -97 6
-62 1 -83 -2 -83 -12 0 -27 91 -56 105 -33 9 15 61 12 75 -5 10 -12 6 -18 -22
-35 -46 -28 -129 -27 -169 1 -46 33 -71 107 -50 147 5 9 12 25 15 34 9 30 67
58 120 58 44 0 53 -4 88 -41z m-355 -70 c6 -6 30 -10 52 -7 32 3 41 0 41 -12
0 -12 -8 -15 -36 -12 -20 3 -47 -1 -60 -8 -32 -17 -59 2 -43 31 11 21 30 24
46 8z"/>
<path d="M227 1302 c-2 -4 -3 -29 -2 -57 l1 -50 44 4 c64 5 91 49 53 83 -19
16 -90 31 -96 20z m61 -54 c-6 -18 -28 -21 -28 -4 0 9 7 16 16 16 9 0 14 -5
12 -12z"/>
<path d="M685 1208 c-48 -26 -60 -83 -25 -118 43 -43 120 -12 120 49 0 34 -11
50 -47 69 -26 14 -23 14 -48 0z m50 -58 c8 -26 -1 -40 -26 -40 -22 0 -34 22
-25 45 8 22 44 18 51 -5z"/>
<path d="M1278 1204 c-16 -8 -28 -21 -28 -29 0 -12 15 -15 70 -15 39 0 70 4
70 9 0 13 -55 51 -72 51 -7 -1 -25 -8 -40 -16z"/>
<path d="M81 926 c-7 -8 -11 -36 -9 -63 l3 -48 43 -3 42 -3 0 -124 c0 -117 1
-125 22 -139 31 -22 91 -20 111 2 10 10 17 32 17 48 l1 29 27 -32 c64 -75 143
-92 218 -48 59 35 88 86 88 152 -2 101 -73 166 -180 164 -45 0 -54 3 -54 17 0
10 -7 28 -16 40 -14 21 -22 22 -158 22 -112 0 -146 -3 -155 -14z m284 -55 c0
-34 0 -34 -49 -35 l-48 -1 1 -132 2 -133 -39 0 -39 0 3 53 c2 28 5 89 7 135
l4 82 -54 0 -53 0 0 35 0 36 133 -3 132 -3 0 -34z m142 -47 c58 -11 103 -69
103 -131 0 -80 -73 -141 -153 -129 -45 8 -97 40 -97 62 0 8 -4 14 -10 14 -14
0 -12 86 3 113 17 31 57 65 82 70 34 7 42 7 72 1z m-167 -23 c0 -5 -7 -14 -15
-21 -12 -10 -15 -10 -15 2 0 8 3 18 7 21 9 10 23 9 23 -2z"/>
<path d="M435 752 c-6 -4 -16 -19 -23 -33 -12 -23 -12 -31 2 -58 14 -27 22
-31 56 -31 42 0 80 29 80 61 0 32 -39 69 -73 69 -18 0 -37 -4 -42 -8z m65 -57
c0 -13 -6 -25 -12 -28 -22 -7 -38 4 -38 28 0 13 6 25 13 28 21 7 37 -4 37 -28z"/>
<path d="M90 465 c-9 -24 -1 -66 46 -225 9 -30 18 -66 21 -80 3 -14 11 -40 19
-57 15 -32 16 -33 80 -33 53 0 66 3 70 18 3 9 10 25 15 34 5 10 9 29 9 43 0
34 20 32 21 -2 0 -16 8 -41 18 -58 17 -28 21 -30 81 -30 l64 0 16 47 c8 27 17
48 20 48 3 0 11 -13 18 -30 23 -51 66 -73 142 -74 62 -1 71 2 108 31 l40 32 6
-29 c5 -29 8 -30 60 -30 67 0 76 12 76 102 0 63 11 88 37 88 9 0 13 -20 13
-72 0 -114 3 -118 66 -118 40 0 55 4 63 17 9 16 11 16 28 1 11 -10 43 -18 83
-21 36 -3 81 -9 101 -12 29 -6 41 -2 67 20 27 22 32 34 32 70 0 59 -24 86 -82
92 -42 5 -50 3 -78 -25 l-30 -30 -15 21 c-21 30 -20 34 20 78 36 40 44 76 23
97 -18 18 -98 15 -120 -5 -17 -15 -18 -14 -18 35 0 64 -17 82 -75 82 -50 0
-65 -16 -65 -69 l0 -31 -86 0 c-85 0 -86 0 -97 -29 l-11 -29 -38 31 c-34 27
-46 31 -101 31 -43 0 -70 -6 -89 -18 -31 -20 -33 -17 -16 30 9 25 9 39 0 59
-10 22 -18 25 -61 25 -58 0 -70 -11 -92 -89 l-16 -56 -18 58 c-10 33 -25 65
-32 73 -15 15 -80 19 -99 6 -16 -10 -34 -47 -34 -69 0 -10 -5 -25 -10 -33 -9
-13 -11 -13 -20 0 -5 8 -10 25 -10 36 0 12 -9 33 -21 48 -17 22 -28 26 -70 26
-43 0 -51 -3 -59 -25z m100 -24 c0 -11 5 -23 10 -26 6 -3 10 -21 10 -39 0 -18
3 -36 8 -40 4 -4 12 -35 17 -68 6 -34 15 -63 21 -65 5 -2 15 22 21 54 6 32 16
76 23 98 7 22 14 55 17 73 5 30 8 32 44 32 38 0 39 -1 39 -34 0 -19 4 -37 9
-40 5 -3 11 -18 14 -33 33 -163 50 -190 60 -94 4 32 11 70 16 82 5 13 15 45
22 72 13 46 15 47 51 47 37 0 53 -20 28 -35 -5 -3 -10 -17 -10 -30 0 -13 -4
-27 -10 -30 -5 -3 -10 -19 -10 -35 0 -16 -4 -32 -10 -35 -5 -3 -10 -19 -10
-35 0 -16 -4 -32 -10 -35 -5 -3 -10 -16 -10 -27 0 -11 -5 -38 -11 -58 -10 -33
-16 -39 -44 -42 -46 -5 -55 0 -55 32 0 16 -4 31 -9 34 -9 6 -17 36 -29 116
-10 61 -35 61 -44 0 -3 -25 -11 -63 -18 -85 -6 -22 -14 -52 -17 -68 -4 -22
-11 -27 -33 -27 -16 0 -35 -3 -44 -6 -12 -5 -16 0 -16 20 0 14 -4 34 -9 44
-13 26 -31 86 -31 105 0 10 -4 25 -9 35 -5 9 -14 37 -21 62 -7 25 -16 53 -21
62 -16 31 -10 38 31 38 33 0 40 -3 40 -19z m983 12 c2 -5 0 -51 -4 -103 -4
-52 -6 -96 -4 -98 6 -6 35 11 35 22 0 6 14 28 31 49 26 31 37 37 70 37 21 0
39 -3 39 -6 0 -3 -25 -31 -55 -62 -30 -31 -55 -59 -55 -62 0 -3 23 -28 50 -57
59 -62 64 -82 18 -79 -26 1 -40 10 -64 41 -17 22 -33 48 -37 57 -7 20 -37 24
-37 5 0 -6 4 -28 10 -47 11 -40 5 -50 -39 -55 l-31 -4 0 184 0 185 34 0 c19 0
37 -3 39 -7z m-347 -128 c37 -34 39 -39 39 -95 0 -49 -5 -63 -25 -85 -54 -58
-99 -67 -166 -35 -85 42 -100 154 -28 218 32 27 45 32 89 32 46 0 57 -4 91
-35z m144 15 c0 -11 4 -20 10 -20 5 0 15 9 22 20 7 11 24 20 38 20 22 0 25 -4
25 -32 0 -37 -10 -48 -42 -48 -36 0 -50 -40 -42 -113 4 -34 6 -64 3 -66 -2 -2
-19 -5 -39 -7 l-35 -2 0 134 0 134 30 0 c23 0 30 -4 30 -20z m504 -152 c24
-34 19 -62 -14 -91 -37 -34 -51 -34 -84 -1 -49 49 -24 114 44 114 29 0 43 -6
54 -22z"/>
<path d="M685 275 c-39 -38 -29 -89 20 -110 31 -13 38 -12 68 8 21 14 27 26
27 54 0 67 -68 96 -115 48z m70 -45 c0 -18 -6 -26 -22 -28 -18 -3 -23 1 -23
21 0 28 9 39 30 35 9 -2 15 -14 15 -28z"/>
<path d="M1389 171 c-23 -19 -24 -19 -5 -40 21 -24 46 -27 64 -9 16 16 15 36
-2 54 -19 19 -29 18 -57 -5z m45 -32 c-3 -5 -12 -9 -20 -9 -14 0 -20 31 -7 44
9 9 34 -24 27 -35z"/>
</g>
</svg>
