<?xml version="1.0" standalone="no"?>
<!DOCTYPE svg PUBLIC "-//W3C//DTD SVG 20010904//EN"
 "http://www.w3.org/TR/2001/REC-SVG-20010904/DTD/svg10.dtd">
<svg version="1.0" xmlns="http://www.w3.org/2000/svg"
 width="256.000000pt" height="256.000000pt" viewBox="0 0 256.000000 256.000000"
 preserveAspectRatio="xMidYMid meet">
<metadata>
Created by potrace 1.16, written by Peter Selinger 2001-2019
</metadata>
<g transform="translate(0.000000,256.000000) scale(0.100000,-0.100000)"
fill="#000000" stroke="none">
<path d="M340 2461 c11 -8 6 -11 -24 -11 -41 0 -110 -35 -101 -51 4 -5 -1 -6
-9 -3 -9 3 -16 2 -16 -3 0 -4 -12 -21 -26 -37 -15 -15 -26 -39 -26 -53 0 -15
-3 -20 -8 -13 -15 24 -21 -10 -22 -110 0 -97 5 -125 21 -115 5 2 8 -7 8 -20 1
-31 72 -104 127 -130 28 -14 63 -19 130 -19 98 -1 145 14 195 60 14 13 29 24
32 24 8 0 23 -32 20 -44 -1 -4 4 -14 10 -22 14 -18 120 -19 137 -2 7 7 12 41
12 81 0 88 17 147 42 147 15 0 18 -8 18 -50 0 -37 7 -61 27 -93 25 -40 49 -64
66 -65 4 -1 14 -8 22 -15 29 -29 223 -28 218 0 -2 7 3 10 11 7 20 -8 60 37 44
48 -9 5 -5 7 9 5 12 -2 31 -13 41 -25 11 -12 23 -22 27 -22 5 0 16 -6 24 -14
18 -16 80 -21 224 -18 88 2 97 4 97 21 0 11 6 21 12 23 9 3 15 38 19 104 5 85
6 89 7 32 2 -72 9 -101 23 -92 5 3 9 -6 9 -19 0 -39 56 -67 135 -67 81 0 95
13 95 84 0 57 -17 83 -45 72 -9 -3 -13 -2 -10 4 3 6 1 10 -4 10 -6 0 -11 16
-11 35 0 19 4 35 8 35 5 0 21 10 35 23 23 19 27 31 27 74 0 54 -20 89 -45 79
-8 -3 -18 8 -25 27 -22 61 -24 62 -80 60 -63 -3 -99 -24 -106 -61 -5 -24 -11
-27 -45 -28 -21 -1 -39 2 -39 7 0 12 -53 12 -65 0 -6 -6 -27 -4 -53 5 -50 17
-118 15 -115 -3 2 -7 -4 -10 -12 -7 -17 7 -77 -26 -72 -40 2 -6 -10 -18 -27
-27 -30 -16 -31 -16 -38 3 -5 11 -13 16 -19 12 -8 -5 -9 -3 -5 5 5 8 0 14 -13
18 -11 3 -19 9 -16 13 6 10 -43 23 -56 15 -5 -4 -8 -1 -7 7 2 9 -12 13 -52 13
-38 0 -54 -4 -53 -12 2 -7 -3 -10 -10 -7 -18 7 -57 -10 -84 -35 -28 -27 -33
-26 -33 4 0 18 -5 25 -20 25 -11 0 -20 5 -20 10 0 12 -37 14 -44 2 -5 -9 -53
-8 -63 1 -10 11 -51 8 -58 -4 -4 -6 -13 -8 -20 -5 -14 5 -39 -17 -29 -27 14
-13 -18 -47 -44 -47 l-27 1 28 17 c22 13 27 24 27 56 0 33 -6 45 -42 77 -24
22 -49 37 -55 34 -7 -2 -12 1 -10 7 3 15 -53 29 -133 35 -46 3 -61 1 -50 -6z
m140 -39 c0 -12 -142 -15 -170 -3 -19 7 -3 10 73 10 53 1 97 -3 97 -7z m53
-39 c-5 -12 -2 -15 10 -10 12 5 17 1 17 -13 0 -13 5 -18 15 -14 11 5 15 -2 15
-26 0 -22 -4 -31 -12 -27 -7 2 -22 1 -33 -4 -17 -6 -17 -8 -2 -8 36 -2 15 -16
-23 -16 -39 0 -58 14 -22 16 16 1 16 2 0 6 -10 2 -18 11 -18 19 0 11 -19 14
-97 13 -54 -1 -90 -3 -80 -6 26 -7 21 -23 -8 -23 -20 0 -25 -5 -25 -25 0 -29
-16 -34 -23 -7 -3 9 -5 -28 -5 -83 0 -55 2 -92 5 -82 2 9 9 17 15 17 5 0 8 -7
4 -15 -4 -10 1 -15 14 -15 13 0 18 -5 14 -15 -4 -9 0 -15 10 -15 9 0 16 -4 16
-10 0 -6 34 -10 83 -9 55 0 75 3 62 9 l-20 9 20 1 c11 2 26 1 34 0 9 -1 12 4
8 14 -5 11 0 16 14 16 12 0 19 5 17 13 -3 7 -29 13 -71 15 l-67 3 0 40 0 41
115 -4 c63 -1 115 0 115 5 0 4 -52 7 -115 7 -63 0 -115 3 -115 8 0 4 54 7 120
7 l120 0 -1 -70 c-1 -63 -2 -66 -9 -30 -4 22 -6 43 -3 48 2 4 -1 7 -7 7 -7 0
-11 -16 -10 -42 1 -24 1 -56 0 -73 -1 -26 -3 -27 -10 -10 -7 17 -9 15 -9 -12
-1 -22 -6 -33 -16 -33 -8 0 -15 -7 -15 -15 0 -11 -12 -15 -42 -16 -40 -1 -41
-2 -13 -9 18 -5 -22 -8 -105 -8 -84 0 -127 3 -115 8 17 7 15 9 -12 9 -22 1
-33 6 -33 16 0 8 -7 15 -15 15 -8 0 -15 8 -16 18 0 14 -2 14 -9 -3 -7 -15 -9
-10 -9 23 -1 23 -6 42 -12 42 -5 0 -8 -4 -4 -9 3 -5 1 -12 -5 -16 -7 -4 -10
41 -9 132 1 76 3 130 6 121 2 -10 9 -18 15 -18 5 0 8 7 4 15 -3 9 0 15 9 15 8
0 15 7 15 16 0 10 6 14 15 10 11 -4 15 2 15 24 l0 30 150 0 c136 0 149 -2 143
-17z m1325 10 c-10 -2 -26 -2 -35 0 -10 3 -2 5 17 5 19 0 27 -2 18 -5z m-18
-73 l0 -56 38 5 37 5 -35 7 -35 6 38 2 37 1 0 -53 0 -53 -37 5 -38 5 35 7 35
6 -37 2 -38 1 0 -93 0 -93 40 4 40 4 0 -56 0 -56 -57 2 -58 2 53 3 c72 5 66
23 -8 23 -60 0 -67 5 -61 43 2 15 -18 6 -22 -10 -3 -10 -5 33 -6 95 -1 112 -1
113 -23 110 -26 -3 -28 0 -28 47 0 31 3 35 25 35 23 0 25 4 25 40 0 38 2 40
33 42 l32 1 -32 4 c-46 6 -41 18 7 18 l40 1 0 -56z m30 18 c0 -36 -11 -31 -15
7 -2 14 1 25 6 25 5 0 9 -14 9 -32z m-133 -20 c-3 -7 -5 -2 -5 12 0 14 2 19 5
13 2 -7 2 -19 0 -25z m-1117 -19 c0 -5 -4 -9 -10 -9 -5 0 -10 7 -10 16 0 8 5
12 10 9 6 -3 10 -10 10 -16z m993 14 c-7 -2 -19 -2 -25 0 -7 3 -2 5 12 5 14 0
19 -2 13 -5z m-1143 -13 c0 -6 -30 -9 -72 -8 l-73 2 70 6 c39 4 71 7 73 8 1 1
2 -2 2 -8z m280 -16 c0 -2 -18 -4 -40 -4 -22 0 -40 3 -40 8 0 4 18 6 40 4 22
-2 40 -6 40 -8z m128 -44 l-2 -55 -3 48 c-2 26 -9 47 -15 47 -6 0 -9 -18 -6
-45 3 -43 2 -45 -24 -45 -18 0 -28 -5 -28 -15 0 -8 -7 -15 -16 -15 -13 0 -15
-16 -13 -107 l2 -107 -52 0 c-28 0 -51 3 -51 7 0 4 0 76 0 161 l0 153 55 1
c53 0 74 -12 38 -21 -11 -3 -7 -5 10 -6 18 -1 27 4 27 14 0 8 10 16 23 16 l22
2 -22 4 c-37 7 -26 18 17 18 l40 0 -2 -55z m642 50 c0 -6 -28 -9 -67 -8 l-68
1 65 7 c36 4 66 7 68 8 1 1 2 -2 2 -8z m130 0 c0 -5 -19 -9 -42 -9 l-43 2 40
7 c22 4 41 8 43 9 1 0 2 -3 2 -9z m-550 -10 c-55 -7 -55 -7 23 -8 46 -1 77 -6
77 -13 0 -5 -4 -8 -9 -4 -5 3 -12 1 -16 -5 -3 -5 1 -10 9 -10 9 0 16 -7 16
-16 0 -8 5 -12 10 -9 6 4 8 11 5 16 -4 5 -1 9 4 9 7 0 12 -26 12 -62 2 -58 2
-60 9 -23 8 42 10 36 13 -33 l2 -42 -132 0 -133 0 1 -27 1 -28 8 25 c8 24 8
24 9 3 1 -22 5 -23 99 -24 53 -1 103 -1 110 0 7 1 12 -10 12 -30 0 -21 -4 -30
-12 -26 -7 2 -22 1 -33 -4 -17 -6 -17 -8 -2 -8 9 -1 17 -4 17 -8 0 -5 -54 -8
-120 -8 -66 0 -120 3 -120 8 0 4 8 8 18 8 16 1 16 2 0 6 -10 2 -18 11 -18 19
0 8 -7 14 -15 14 -10 0 -15 11 -16 33 l-2 32 -7 -35 c-5 -23 -7 3 -8 75 0 70
3 99 8 80 7 -28 8 -27 9 13 1 40 2 42 34 43 17 1 24 3 15 6 -33 8 -18 23 25
24 32 0 37 2 22 9 -13 6 5 8 55 8 l75 -1 -55 -7z m643 3 c-7 -2 -19 -2 -25 0
-7 3 -2 5 12 5 14 0 19 -2 13 -5z m-1283 -28 c11 -13 7 -15 -33 -15 -66 0 -79
-18 -75 -97 2 -34 2 -63 0 -63 -1 0 -16 12 -32 27 -24 21 -30 34 -30 68 0 26
6 48 15 55 9 7 14 19 11 25 -7 20 127 20 144 0z m890 11 c0 -3 -4 -8 -10 -11
-5 -3 -10 -1 -10 4 0 6 5 11 10 11 6 0 10 -2 10 -4z m170 -11 c0 -11 10 -15
33 -14 30 2 30 2 5 6 -53 8 -29 24 32 22 l60 -2 0 -154 c0 -84 -1 -156 -2
-159 -2 -4 -67 -7 -145 -8 -129 -1 -143 1 -143 16 0 12 -5 15 -17 11 -12 -5
-15 -2 -10 10 4 12 1 17 -11 17 -15 0 -17 12 -13 122 2 78 6 116 11 103 7 -17
9 -17 9 -2 1 9 8 17 16 17 8 0 15 7 15 15 0 12 16 15 80 15 64 0 80 -3 80 -15z
m167 -47 c-2 -13 -4 -3 -4 22 0 25 2 35 4 23 2 -13 2 -33 0 -45z m263 15 c0
-25 -3 -44 -6 -40 -10 9 -11 87 -2 87 4 0 8 -21 8 -47z m-1413 21 c-3 -3 -12
-4 -19 -1 -8 3 -5 6 6 6 11 1 17 -2 13 -5z m-392 -80 c-4 -102 -15 -107 -15
-6 0 45 4 82 9 82 5 0 8 -34 6 -76z m125 11 c0 -30 -3 -55 -7 -55 -5 0 -6 25
-5 55 5 71 12 71 12 0z m115 35 c3 -5 1 -10 -4 -10 -6 0 -11 5 -11 10 0 6 2
10 4 10 3 0 8 -4 11 -10z m908 -66 c2 -32 0 -75 -4 -94 -4 -23 -7 -2 -8 64 -1
107 7 127 12 30z m-905 7 c1 -22 -3 -43 -8 -46 -6 -4 -10 12 -10 39 0 56 16
62 18 7z m465 12 c-7 -2 -21 -2 -30 0 -10 3 -4 5 12 5 17 0 24 -2 18 -5z
m1017 -58 c0 -36 -3 -65 -7 -65 -5 0 -6 29 -5 65 2 36 6 65 8 65 2 0 4 -29 4
-65z m47 59 c-3 -3 -12 -4 -19 -1 -8 3 -5 6 6 6 11 1 17 -2 13 -5z m-1030 -86
c-2 -18 -4 -6 -4 27 0 33 2 48 4 33 2 -15 2 -42 0 -60z m850 -40 c-2 -24 -4
-7 -4 37 0 44 2 63 4 43 2 -21 2 -57 0 -80z m-482 22 c4 -6 -6 -10 -22 -9 -25
0 -26 1 -8 9 11 5 21 9 22 9 1 1 5 -3 8 -9z m-85 -9 c0 -4 -24 -6 -52 -4 -78
7 -82 11 -10 12 34 1 62 -3 62 -8z m30 -1 c0 -5 -2 -10 -4 -10 -3 0 -8 5 -11
10 -3 6 -1 10 4 10 6 0 11 -4 11 -10z m60 -41 c0 -5 -4 -9 -10 -9 -5 0 -10 7
-10 16 0 8 5 12 10 9 6 -3 10 -10 10 -16z m690 -34 c0 -72 -15 -72 -16 0 -1
30 3 55 7 55 5 0 9 -25 9 -55z m-1725 5 c3 -5 1 -10 -4 -10 -6 0 -11 5 -11 10
0 6 2 10 4 10 3 0 8 -4 11 -10z m720 0 c3 -5 1 -10 -4 -10 -6 0 -11 5 -11 10
0 6 2 10 4 10 3 0 8 -4 11 -10z m375 0 c0 -5 -5 -10 -11 -10 -5 0 -7 5 -4 10
3 6 8 10 11 10 2 0 4 -4 4 -10z m-877 -57 c-24 -2 -62 -2 -85 0 -24 2 -5 4 42
4 47 0 66 -2 43 -4z m310 0 c-18 -2 -48 -2 -65 0 -18 2 -4 4 32 4 36 0 50 -2
33 -4z m380 0 c-24 -2 -62 -2 -85 0 -24 2 -5 4 42 4 47 0 66 -2 43 -4z m355 0
c-21 -2 -55 -2 -75 0 -21 2 -4 4 37 4 41 0 58 -2 38 -4z m140 0 c-15 -2 -42
-2 -60 0 -18 2 -6 4 27 4 33 0 48 -2 33 -4z"/>
<path d="M250 2380 c0 -5 5 -10 10 -10 6 0 10 5 10 10 0 6 -4 10 -10 10 -5 0
-10 -4 -10 -10z"/>
<path d="M280 2380 c0 -5 5 -10 11 -10 5 0 7 5 4 10 -3 6 -8 10 -11 10 -2 0
-4 -4 -4 -10z"/>
<path d="M505 2380 c-3 -5 -1 -10 4 -10 6 0 11 5 11 10 0 6 -2 10 -4 10 -3 0
-8 -4 -11 -10z"/>
<path d="M321 2346 c10 -10 57 -13 94 -6 36 7 33 8 -29 9 -38 0 -67 -1 -65 -3z"/>
<path d="M175 2270 c3 -5 8 -10 11 -10 2 0 4 5 4 10 0 6 -5 10 -11 10 -5 0 -7
-4 -4 -10z"/>
<path d="M213 2175 c0 -27 2 -38 4 -22 2 15 2 37 0 50 -2 12 -4 0 -4 -28z"/>
<path d="M182 2140 c0 -14 2 -19 5 -12 2 6 2 18 0 25 -3 6 -5 1 -5 -13z"/>
<path d="M463 2123 c15 -2 37 -2 50 0 12 2 0 4 -28 4 -27 0 -38 -2 -22 -4z"/>
<path d="M551 2094 c0 -11 3 -14 6 -6 3 7 2 16 -1 19 -3 4 -6 -2 -5 -13z"/>
<path d="M368 2003 c18 -2 45 -2 60 0 15 2 0 4 -33 4 -33 0 -45 -2 -27 -4z"/>
<path d="M1777 2290 c-3 -11 -1 -20 4 -20 5 0 9 9 9 20 0 11 -2 20 -4 20 -2 0
-6 -9 -9 -20z"/>
<path d="M1728 2203 c6 -2 18 -2 25 0 6 3 1 5 -13 5 -14 0 -19 -2 -12 -5z"/>
<path d="M1784 2100 c0 -52 1 -74 3 -47 2 26 2 68 0 95 -2 26 -3 4 -3 -48z"/>
<path d="M1811 2144 c0 -11 3 -14 6 -6 3 7 2 16 -1 19 -3 4 -6 -2 -5 -13z"/>
<path d="M1811 2064 c0 -11 3 -14 6 -6 3 7 2 16 -1 19 -3 4 -6 -2 -5 -13z"/>
<path d="M1868 2003 c6 -2 18 -2 25 0 6 3 1 5 -13 5 -14 0 -19 -2 -12 -5z"/>
<path d="M684 2105 c0 -82 2 -115 3 -72 2 43 2 110 0 150 -1 40 -3 5 -3 -78z"/>
<path d="M770 2180 c0 -5 5 -10 10 -10 6 0 10 5 10 10 0 6 -4 10 -10 10 -5 0
-10 -4 -10 -10z"/>
<path d="M754 2045 c0 -49 1 -71 3 -48 2 23 2 64 0 90 -2 26 -3 8 -3 -42z"/>
<path d="M1040 2195 c0 -9 -6 -12 -15 -9 -11 4 -15 -1 -16 -17 l-1 -24 -7 25
-7 25 -6 -28 c-3 -15 -3 -29 1 -31 10 -6 170 -8 180 -2 4 3 6 18 3 33 l-6 28
-7 -30 -7 -30 -1 29 c-1 21 -5 27 -16 22 -9 -3 -15 0 -15 9 0 11 -11 15 -40
15 -29 0 -40 -4 -40 -15z m58 -2 c-10 -2 -26 -2 -35 0 -10 3 -2 5 17 5 19 0
27 -2 18 -5z m10 -40 c-16 -2 -40 -2 -55 0 -16 2 -3 4 27 4 30 0 43 -2 28 -4z"/>
<path d="M1148 2103 c12 -2 30 -2 40 0 9 3 -1 5 -23 4 -22 0 -30 -2 -17 -4z"/>
<path d="M1068 2003 c18 -2 45 -2 60 0 15 2 0 4 -33 4 -33 0 -45 -2 -27 -4z"/>
<path d="M1634 2105 c0 -82 2 -115 3 -72 2 43 2 110 0 150 -1 40 -3 5 -3 -78z"/>
<path d="M1438 2203 c18 -2 45 -2 60 0 15 2 0 4 -33 4 -33 0 -45 -2 -27 -4z"/>
<path d="M1390 2175 c0 -8 -7 -15 -15 -15 -12 0 -15 -13 -14 -57 0 -36 3 -51
8 -39 4 10 6 34 5 52 -2 19 1 34 6 34 6 0 10 -22 10 -50 0 -33 4 -50 13 -50 8
0 8 -3 -2 -9 -9 -6 8 -10 52 -13 58 -3 67 -1 67 14 0 11 5 15 15 12 12 -5 15
4 15 50 0 43 -3 56 -15 56 -8 0 -15 7 -15 15 0 12 -14 15 -65 15 -51 0 -65 -3
-65 -15z m25 -5 c3 -5 1 -10 -4 -10 -6 0 -11 5 -11 10 0 6 2 10 4 10 3 0 8 -4
11 -10z m71 -25 c9 -8 14 -27 12 -42 -3 -24 -8 -28 -33 -28 -23 0 -31 5 -33
22 -4 25 14 63 29 63 6 0 17 -7 25 -15z"/>
<path d="M1530 2180 c0 -5 5 -10 10 -10 6 0 10 5 10 10 0 6 -4 10 -10 10 -5 0
-10 -4 -10 -10z"/>
<path d="M1562 2105 c0 -16 2 -22 5 -12 2 9 2 23 0 30 -3 6 -5 -1 -5 -18z"/>
<path d="M1438 2003 c18 -2 45 -2 60 0 15 2 0 4 -33 4 -33 0 -45 -2 -27 -4z"/>
<path d="M1520 1969 c0 -5 11 -9 25 -9 14 0 25 2 25 4 0 2 -11 6 -25 8 -14 3
-25 1 -25 -3z"/>
<path d="M92 2175 c0 -16 2 -22 5 -12 2 9 2 23 0 30 -3 6 -5 -1 -5 -18z"/>
<path d="M263 1873 c26 -2 68 -2 95 0 26 2 4 3 -48 3 -52 0 -74 -1 -47 -3z"/>
<path d="M174 1849 c-11 -13 -14 -61 -14 -250 0 -129 4 -240 9 -247 6 -10 28
-13 80 -10 39 1 71 0 71 -4 0 -5 -30 -8 -66 -8 -41 0 -63 -4 -59 -10 3 -5 30
-10 60 -10 73 0 85 14 85 96 l0 64 59 0 c33 0 63 5 66 10 4 6 -20 10 -66 10
-40 0 -70 3 -66 6 3 3 44 5 90 5 64 -1 88 3 97 14 7 8 19 15 26 15 11 0 14
-19 15 -77 1 -99 4 -115 25 -130 21 -15 110 -17 119 -3 4 6 -19 11 -62 12
l-68 2 80 5 80 6 3 39 c3 38 4 38 15 16 7 -13 31 -39 55 -57 l43 -33 133 1
c127 0 159 6 157 25 -1 5 5 9 12 9 6 0 13 15 15 33 l3 33 20 -26 c12 -14 25
-23 30 -20 5 4 9 -1 9 -9 0 -9 6 -16 14 -16 7 0 19 -7 26 -15 17 -20 187 -18
183 3 -2 6 7 12 20 12 25 1 67 32 67 50 0 10 3 10 14 1 8 -7 16 -8 18 -4 3 4
4 3 2 -4 -3 -13 17 -30 63 -56 41 -23 184 -24 207 -2 8 8 22 15 31 15 11 0 15
5 11 15 -4 11 0 15 12 13 10 -2 17 3 17 14 0 9 4 20 8 24 11 11 9 26 -3 19 -5
-3 -10 -1 -10 4 0 6 4 11 10 11 16 0 28 63 23 124 -4 59 -44 135 -70 136 -7 0
-13 4 -13 9 0 20 -65 41 -125 41 -60 0 -125 -21 -125 -41 0 -5 -7 -9 -15 -9
-8 0 -15 -7 -15 -15 0 -8 -5 -14 -12 -12 -7 1 -15 -13 -19 -33 l-6 -35 -2 37
c-1 38 -33 74 -54 61 -6 -3 -7 -1 -3 6 9 13 -32 31 -53 23 -9 -3 -12 -1 -7 6
5 9 -11 12 -59 12 -47 0 -64 -3 -59 -12 4 -6 3 -8 -4 -4 -22 13 -109 -45 -125
-85 -3 -8 -6 0 -6 18 -1 46 -24 63 -84 64 l-52 2 40 7 40 7 -35 2 c-20 0 -42
-5 -48 -11 -10 -10 -17 -10 -32 0 -43 26 -190 4 -190 -29 0 -5 -7 -9 -15 -9
-8 0 -15 -7 -15 -16 0 -8 -5 -12 -11 -9 -6 4 -13 -3 -17 -16 -4 -15 -9 16 -12
76 -4 73 -8 99 -18 97 -6 -1 -11 3 -10 9 6 26 -109 32 -138 8 -8 -7 -13 -18
-10 -25 10 -27 -15 -25 -52 5 -37 29 -39 29 -181 33 -120 2 -145 1 -157 -13z
m26 -19 c0 -5 -2 -10 -4 -10 -3 0 -8 5 -11 10 -3 6 -1 10 4 10 6 0 11 -4 11
-10z m148 3 c-72 -2 -118 -8 -118 -14 0 -7 44 -9 125 -7 l125 3 0 -27 c0 -24
4 -28 28 -28 l27 0 -4 -97 c-2 -64 -6 -91 -11 -78 l-9 20 -1 -20 c-2 -11 -2
-23 -1 -27 0 -5 -6 -8 -14 -8 -8 0 -15 -7 -15 -15 0 -12 -17 -15 -95 -15 l-95
0 0 -75 c0 -96 18 -98 23 -2 l3 72 2 -77 2 -78 -67 0 -68 0 5 227 5 228 5
-225 6 -225 2 238 2 237 128 -2 127 -2 -117 -3z m347 -233 l0 -240 -55 0 -55
0 5 232 5 233 5 -230 5 -230 5 225 5 225 33 -3 c17 -2 32 1 32 7 0 5 -24 12
-52 14 l-53 3 60 2 60 2 0 -240z m22 -127 c-1 -65 -3 -12 -3 117 0 129 2 182
3 118 2 -65 2 -171 0 -235z m-207 307 c0 -5 -4 -10 -10 -10 -5 0 -10 5 -10 10
0 6 5 10 10 10 6 0 10 -4 10 -10z m47 -147 c-2 -21 -4 -4 -4 37 0 41 2 58 4
38 2 -21 2 -55 0 -75z m433 67 c0 -7 -27 -10 -70 -9 -38 1 -70 6 -70 10 0 5
32 9 70 9 42 0 70 -4 70 -10z m130 -165 l0 -175 -150 0 c-136 0 -149 2 -143
17 5 12 2 15 -10 10 -14 -5 -17 1 -18 41 -1 26 -3 39 -6 30 -2 -10 -9 -18 -14
-18 -5 0 -9 43 -9 95 0 52 4 95 9 95 5 0 12 -8 14 -17 3 -10 5 1 6 25 l1 42
158 2 c86 1 140 3 120 5 -51 6 -49 23 2 23 l40 0 0 -175z m28 -2 c-2 -179 -6
-158 -10 60 -2 64 0 117 5 117 4 0 6 -80 5 -177z m292 167 c0 -7 -30 -10 -80
-9 -44 1 -80 6 -80 10 0 5 36 9 80 9 49 0 80 -4 80 -10z m375 -1 c-8 -12 -153
-10 -161 2 -3 5 34 9 81 9 58 0 84 -3 80 -11z m-322 -36 c-5 -12 -2 -15 10
-10 14 5 17 0 17 -23 l0 -30 -120 0 -120 0 0 -70 c0 -61 2 -69 17 -63 12 5 15
2 10 -10 -6 -15 2 -17 66 -16 40 1 64 3 55 6 -37 10 -16 23 37 23 55 0 55 0
55 -31 0 -24 -4 -30 -15 -25 -11 4 -15 0 -13 -12 2 -13 -4 -17 -24 -16 -31 1
-38 -12 -10 -19 9 -3 -35 -5 -98 -5 -63 0 -107 2 -97 5 26 7 21 23 -8 23 -20
0 -25 5 -25 25 0 29 -16 34 -23 8 -3 -10 -5 33 -6 95 -1 76 3 112 10 112 6 0
9 -7 5 -15 -3 -8 -1 -15 4 -15 6 0 10 13 10 30 0 22 4 28 15 24 11 -5 13 -2 9
10 -5 14 8 16 120 16 113 0 125 -2 119 -17z m347 2 c0 -8 7 -15 15 -15 8 0 15
-7 15 -16 0 -8 5 -12 10 -9 6 4 10 -14 10 -46 0 -56 15 -58 23 -4 2 17 5 5 6
-27 l1 -58 -135 0 -135 0 0 -25 c0 -14 5 -25 11 -25 6 0 9 7 5 15 -3 8 -1 15
4 15 6 0 10 -7 10 -15 0 -12 19 -15 109 -15 l109 0 -2 -25 c-1 -28 -15 -34
-17 -7 -1 16 -2 16 -6 0 -2 -10 -11 -18 -19 -18 -8 0 -14 -7 -14 -15 0 -12
-19 -15 -112 -14 -81 0 -106 3 -90 10 13 5 28 7 33 3 5 -3 9 0 9 6 0 7 -15 10
-40 7 -38 -4 -40 -3 -40 25 0 18 -5 28 -15 28 -12 0 -15 17 -15 95 0 63 4 95
11 95 6 0 9 -7 5 -15 -3 -8 -1 -15 4 -15 6 0 10 18 10 40 l0 40 120 0 c100 0
120 -2 120 -15z m-1081 -132 c-2 -70 -6 -63 -11 20 -2 26 0 47 4 47 5 0 7 -30
7 -67z m420 -49 c-5 -42 -6 -36 -7 36 0 59 2 74 7 49 4 -19 4 -58 0 -85z m131
96 c0 -5 -4 -10 -10 -10 -5 0 -10 5 -10 10 0 6 5 10 10 10 6 0 10 -4 10 -10z
m186 -2 c4 -5 -14 -8 -40 -8 -26 0 -45 4 -42 9 7 10 71 9 82 -1z m-105 -7 c-9
-6 -5 -13 13 -24 26 -17 71 -24 62 -9 -2 4 7 9 20 10 19 1 25 -2 22 -16 -3
-13 -12 -16 -41 -14 -23 2 -48 -3 -63 -13 -14 -9 -35 -15 -47 -13 -45 6 -28
82 20 85 15 0 21 -2 14 -6z m168 -38 l-2 -48 -6 40 c-7 38 -5 55 5 55 2 0 3
-21 3 -47z m-32 -25 c-3 -7 -5 -2 -5 12 0 14 2 19 5 13 2 -7 2 -19 0 -25z
m-217 -18 c0 -5 -5 -10 -11 -10 -5 0 -7 5 -4 10 3 6 8 10 11 10 2 0 4 -4 4
-10z m120 0 c0 -5 -4 -10 -10 -10 -5 0 -10 5 -10 10 0 6 5 10 10 10 6 0 10 -4
10 -10z m35 0 c3 -5 -1 -10 -10 -10 -9 0 -13 5 -10 10 3 6 8 10 10 10 2 0 7
-4 10 -10z m-65 -24 c0 -2 -18 -6 -40 -8 -22 -2 -40 0 -40 4 0 5 18 8 40 8 22
0 40 -2 40 -4z m440 -6 c0 -12 -8 -12 -35 0 -18 8 -17 9 8 9 15 1 27 -3 27 -9z
m-1050 -40 c0 -5 -4 -10 -10 -10 -5 0 -10 5 -10 10 0 6 5 10 10 10 6 0 10 -4
10 -10z m795 0 c3 -5 1 -10 -4 -10 -6 0 -11 5 -11 10 0 6 2 10 4 10 3 0 8 -4
11 -10z m-598 -84 c4 -3 -27 -6 -68 -5 -44 0 -66 3 -55 8 22 8 114 6 123 -3z
m133 4 c0 -5 -19 -9 -42 -9 l-43 2 40 7 c22 4 41 8 43 9 1 0 2 -3 2 -9z m319
-5 c2 -3 -34 -4 -80 -3 -69 1 -76 2 -39 8 46 6 110 4 119 -5z m379 0 c3 -3
-28 -5 -69 -4 -48 0 -67 3 -54 9 21 8 113 5 123 -5z"/>
<path d="M234 1600 c0 -107 2 -151 3 -97 2 53 2 141 0 195 -1 53 -3 9 -3 -98z"/>
<path d="M318 1753 c18 -2 45 -2 60 0 15 2 0 4 -33 4 -33 0 -45 -2 -27 -4z"/>
<path d="M306 1732 c-13 -3 -16 -16 -16 -68 l0 -64 71 0 c61 0 70 2 65 16 -4
12 -2 15 9 10 12 -4 15 4 15 40 0 28 -4 43 -10 39 -5 -3 -10 0 -10 8 0 11 -15
16 -54 19 -29 1 -61 2 -70 0z m11 -94 c-2 -18 -4 -6 -4 27 0 33 2 48 4 33 2
-15 2 -42 0 -60z m83 26 c0 -9 -11 -14 -30 -14 -22 0 -30 5 -30 18 0 15 6 18
30 14 17 -2 30 -10 30 -18z m-17 -41 c-7 -2 -21 -2 -30 0 -10 3 -4 5 12 5 17
0 24 -2 18 -5z"/>
<path d="M338 1573 c12 -2 32 -2 45 0 12 2 2 4 -23 4 -25 0 -35 -2 -22 -4z"/>
<path d="M328 1543 c6 -2 18 -2 25 0 6 3 1 5 -13 5 -14 0 -19 -2 -12 -5z"/>
<path d="M388 1543 c12 -2 30 -2 40 0 9 3 -1 5 -23 4 -22 0 -30 -2 -17 -4z"/>
<path d="M450 1540 c0 -5 5 -10 10 -10 6 0 10 5 10 10 0 6 -4 10 -10 10 -5 0
-10 -4 -10 -10z"/>
<path d="M674 1585 c0 -99 2 -138 3 -87 2 51 2 132 0 180 -1 48 -3 6 -3 -93z"/>
<path d="M810 1660 c0 -5 5 -10 10 -10 6 0 10 5 10 10 0 6 -4 10 -10 10 -5 0
-10 -4 -10 -10z"/>
<path d="M1015 1660 c-3 -5 1 -10 9 -10 9 0 16 5 16 10 0 6 -4 10 -9 10 -6 0
-13 -4 -16 -10z"/>
<path d="M1094 1535 c0 -71 1 -99 3 -62 2 37 2 96 0 130 -2 34 -3 4 -3 -68z"/>
<path d="M880 1622 c0 -5 25 -10 55 -11 32 -1 55 3 55 9 0 6 -24 10 -55 10
-30 0 -55 -4 -55 -8z"/>
<path d="M850 1530 c0 -73 5 -85 20 -47 8 20 9 19 9 -10 l1 -33 68 0 68 0 -4
60 c-2 33 0 60 5 60 5 0 8 -12 8 -27 -1 -16 2 -39 6 -53 4 -16 7 2 7 50 0 41
-2 67 -5 58 -2 -10 -9 -18 -15 -18 -5 0 -8 7 -4 15 4 12 -6 15 -64 15 -57 0
-69 -3 -73 -17 -4 -17 -5 -17 -6 0 0 9 -5 17 -11 17 -6 0 -10 -30 -10 -70z
m113 37 c-3 -4 3 -14 12 -21 15 -11 16 -15 4 -34 -20 -32 -67 -30 -75 3 -8 30
18 64 46 62 10 -1 16 -5 13 -10z m-16 -103 c-3 -3 -12 -4 -19 -1 -8 3 -5 6 6
6 11 1 17 -2 13 -5z m53 -4 c0 -5 -2 -10 -4 -10 -3 0 -8 5 -11 10 -3 6 -1 10
4 10 6 0 11 -4 11 -10z"/>
<path d="M923 1413 c15 -2 37 -2 50 0 12 2 0 4 -28 4 -27 0 -38 -2 -22 -4z"/>
<path d="M840 1379 c0 -5 5 -7 10 -4 6 3 10 8 10 11 0 2 -4 4 -10 4 -5 0 -10
-5 -10 -11z"/>
<path d="M985 1380 c3 -5 17 -10 31 -10 13 0 24 5 24 10 0 6 -14 10 -31 10
-17 0 -28 -4 -24 -10z"/>
<path d="M1490 1630 c0 -5 5 -10 10 -10 6 0 10 5 10 10 0 6 -4 10 -10 10 -5 0
-10 -4 -10 -10z"/>
<path d="M1310 1622 c0 -5 23 -9 50 -11 30 -1 50 2 50 9 0 5 -22 10 -50 10
-27 0 -50 -4 -50 -8z"/>
<path d="M1253 1530 c0 -25 2 -35 4 -22 2 12 2 32 0 45 -2 12 -4 2 -4 -23z"/>
<path d="M1495 1450 c-3 -5 -1 -10 4 -10 6 0 11 5 11 10 0 6 -2 10 -4 10 -3 0
-8 -4 -11 -10z"/>
<path d="M1348 1413 c12 -2 32 -2 45 0 12 2 2 4 -23 4 -25 0 -35 -2 -22 -4z"/>
<path d="M1610 1660 c0 -5 5 -10 10 -10 6 0 10 5 10 10 0 6 -4 10 -10 10 -5 0
-10 -4 -10 -10z"/>
<path d="M1680 1620 c0 -5 25 -10 55 -10 30 0 55 5 55 10 0 6 -25 10 -55 10
-30 0 -55 -4 -55 -10z"/>
<path d="M1650 1575 c0 -25 1 -25 83 -25 80 0 82 0 83 25 2 25 1 25 -82 25
-83 0 -84 0 -84 -25z m118 -12 c-16 -2 -40 -2 -55 0 -16 2 -3 4 27 4 30 0 43
-2 28 -4z"/>
<path d="M1832 1575 c0 -16 2 -22 5 -12 2 9 2 23 0 30 -3 6 -5 -1 -5 -18z"/>
<path d="M1703 1513 c31 -2 83 -2 115 0 31 2 5 3 -58 3 -63 0 -89 -1 -57 -3z"/>
<path d="M1720 1420 c-20 -6 -14 -8 25 -8 37 -1 45 2 30 8 -24 10 -23 10 -55
0z"/>
<path d="M152 1271 c-8 -4 -14 -12 -15 -17 -1 -5 -6 -8 -11 -6 -16 5 -24 -19
-20 -67 2 -25 4 -47 5 -48 1 -2 2 -7 3 -12 2 -19 18 -25 64 -24 45 1 45 1 12
-7 l-35 -7 33 -2 32 -1 0 -148 c0 -144 1 -150 25 -178 21 -25 32 -29 75 -29
66 0 100 35 101 104 0 25 3 39 6 31 2 -8 7 -22 9 -30 5 -13 6 -13 15 0 9 12
10 12 5 -3 -6 -20 44 -77 68 -77 8 0 19 -7 26 -15 19 -23 121 -20 177 6 25 11
42 23 39 26 -3 4 4 11 16 17 11 6 26 20 32 31 6 10 17 25 24 33 17 19 13 188
-5 185 -7 -2 -10 4 -7 12 7 18 -69 96 -96 98 -11 1 -22 7 -24 14 -8 19 -126
17 -154 -3 -22 -15 -22 -15 -22 36 0 43 -3 52 -22 60 -13 5 -18 9 -13 10 6 0
3 5 -5 10 -18 12 -320 13 -338 1z m28 -15 c0 -3 -4 -8 -10 -11 -5 -3 -10 -1
-10 4 0 6 5 11 10 11 6 0 10 -2 10 -4z m300 -6 c0 -5 -2 -10 -4 -10 -3 0 -8 5
-11 10 -3 6 -1 10 4 10 6 0 11 -4 11 -10z m-332 -59 c1 -22 -3 -43 -8 -46 -6
-4 -10 12 -10 39 0 56 16 62 18 7z m332 -11 c0 -27 4 -50 8 -50 5 0 7 23 6 50
-2 28 1 50 6 50 6 0 10 -25 10 -55 l0 -55 -70 0 -70 0 0 -175 0 -175 -50 0
-50 0 0 175 0 175 -72 1 c-40 1 -65 3 -55 6 13 3 17 15 17 54 l0 49 160 0 160
0 0 -50z m188 -37 c-21 -2 -55 -2 -75 0 -21 2 -4 4 37 4 41 0 58 -2 38 -4z
m52 -38 c0 -8 7 -15 16 -15 8 0 12 -4 9 -10 -3 -5 1 -10 9 -10 9 0 16 -7 16
-15 0 -8 7 -15 15 -15 13 0 15 -19 14 -112 -1 -62 -4 -103 -6 -90 -5 26 -25
31 -21 5 2 -10 -3 -17 -9 -16 -20 4 -15 -15 5 -20 9 -3 -47 -5 -125 -6 -129
-1 -142 1 -136 16 5 12 2 15 -10 10 -15 -6 -17 6 -16 121 1 70 3 119 6 110 2
-10 9 -18 14 -18 6 0 8 4 5 9 -11 18 6 41 30 41 28 0 32 16 7 23 -10 3 26 5
80 6 80 1 97 -2 97 -14z m-257 -12 c-7 -2 -21 -2 -30 0 -10 3 -4 5 12 5 17 0
24 -2 18 -5z m-66 -245 c-1 -46 -3 -9 -3 82 0 91 2 128 3 83 2 -46 2 -120 0
-165z m37 205 c-10 -40 -14 -41 -14 -5 0 18 5 32 10 32 6 0 8 -11 4 -27z m35
-93 c1 -52 -1 -80 -8 -80 -7 0 -11 30 -11 80 0 44 4 80 8 80 4 0 9 -36 11 -80z
m358 -47 c-2 -21 -4 -4 -4 37 0 41 2 58 4 38 2 -21 2 -55 0 -75z m-580 -130
c-3 -10 -5 -4 -5 12 0 17 2 24 5 18 2 -7 2 -21 0 -30z m303 -3 c0 -5 -4 -10
-10 -10 -5 0 -10 5 -10 10 0 6 5 10 10 10 6 0 10 -4 10 -10z m170 0 c0 -6 -33
-10 -80 -10 -47 0 -80 4 -80 10 0 6 33 10 80 10 47 0 80 -4 80 -10z m-67 -27
c-13 -2 -33 -2 -45 0 -13 2 -3 4 22 4 25 0 35 -2 23 -4z"/>
<path d="M243 1203 c42 -2 112 -2 155 0 42 1 7 3 -78 3 -85 0 -120 -2 -77 -3z"/>
<path d="M170 1140 c0 -5 23 -10 50 -10 28 0 50 5 50 10 0 6 -22 10 -50 10
-27 0 -50 -4 -50 -10z"/>
<path d="M370 1140 c0 -5 23 -10 50 -10 28 0 50 5 50 10 0 6 -22 10 -50 10
-27 0 -50 -4 -50 -10z"/>
<path d="M284 970 c0 -85 2 -120 3 -77 2 42 2 112 0 155 -1 42 -3 7 -3 -78z"/>
<path d="M354 965 c0 -88 2 -123 3 -77 2 46 2 118 0 160 -1 42 -3 5 -3 -83z"/>
<path d="M298 793 c12 -2 32 -2 45 0 12 2 2 4 -23 4 -25 0 -35 -2 -22 -4z"/>
<path d="M575 1100 c-3 -5 -1 -10 4 -10 6 0 11 5 11 10 0 6 -2 10 -4 10 -3 0
-8 -4 -11 -10z"/>
<path d="M690 1100 c0 -5 5 -10 10 -10 6 0 10 5 10 10 0 6 -4 10 -10 10 -5 0
-10 -4 -10 -10z"/>
<path d="M618 1093 c12 -2 32 -2 45 0 12 2 2 4 -23 4 -25 0 -35 -2 -22 -4z"/>
<path d="M623 1063 c9 -2 25 -2 35 0 9 3 1 5 -18 5 -19 0 -27 -2 -17 -5z"/>
<path d="M573 1033 c9 -2 17 -9 17 -15 0 -5 -7 -8 -15 -4 -12 4 -15 -6 -15
-64 l0 -70 80 0 80 0 0 70 c0 61 -2 69 -17 63 -12 -5 -15 -2 -10 10 6 15 -2
17 -66 16 -40 -1 -64 -3 -54 -6z m77 -19 c0 -2 -11 -4 -25 -4 -14 0 -25 4 -25
9 0 4 11 6 25 3 14 -2 25 -6 25 -8z m30 6 c0 -5 -5 -10 -11 -10 -5 0 -7 5 -4
10 3 6 8 10 11 10 2 0 4 -4 4 -10z m30 -24 c0 -3 -4 -8 -10 -11 -5 -3 -10 -1
-10 4 0 6 5 11 10 11 6 0 10 -2 10 -4z m-54 -20 c8 -8 13 -28 12 -44 -2 -24
-7 -28 -32 -30 -27 -2 -31 1 -33 25 -1 31 13 63 28 63 6 0 17 -7 25 -14z m-69
-43 c-3 -10 -5 -4 -5 12 0 17 2 24 5 18 2 -7 2 -21 0 -30z m110 0 c-3 -10 -5
-4 -5 12 0 17 2 24 5 18 2 -7 2 -21 0 -30z m13 -33 c0 -5 -4 -10 -10 -10 -5 0
-10 5 -10 10 0 6 5 10 10 10 6 0 10 -4 10 -10z"/>
<path d="M770 1020 c0 -5 5 -10 10 -10 6 0 10 5 10 10 0 6 -4 10 -10 10 -5 0
-10 -4 -10 -10z"/>
<path d="M530 935 c0 -30 3 -55 8 -55 4 0 8 25 10 55 2 34 -1 55 -7 55 -7 0
-11 -23 -11 -55z"/>
<path d="M742 930 c0 -19 2 -27 5 -17 2 9 2 25 0 35 -3 9 -5 1 -5 -18z"/>
<path d="M585 860 c-4 -6 13 -10 49 -10 31 0 56 4 56 8 0 12 -97 15 -105 2z"/>
<path d="M91 1174 c0 -11 3 -14 6 -6 3 7 2 16 -1 19 -3 4 -6 -2 -5 -13z"/>
<path d="M136 667 c-27 -27 -33 -61 -16 -87 5 -8 10 -10 11 -5 1 6 5 -12 8
-40 3 -27 11 -49 16 -48 6 0 11 -19 11 -44 1 -24 7 -50 13 -56 6 -6 11 -21 11
-33 0 -29 10 -55 19 -50 4 3 8 -18 9 -46 2 -56 8 -71 24 -62 7 4 8 2 4 -5 -4
-6 -4 -20 -1 -31 6 -17 16 -20 83 -22 l77 -1 -65 -7 c-56 -5 -61 -7 -37 -14
64 -19 147 20 147 70 0 13 5 26 10 29 6 3 10 17 10 31 0 13 3 24 8 24 10 0 32
-50 32 -76 0 -13 15 -35 35 -53 45 -39 107 -43 149 -10 15 12 25 24 22 26 -3
3 1 12 9 20 8 8 15 27 15 43 0 23 4 28 20 27 13 -1 20 -8 20 -22 0 -12 15 -35
33 -53 33 -32 34 -32 142 -34 l110 -2 -90 -5 c-96 -6 -95 -21 2 -21 59 0 130
33 158 73 l15 21 0 -22 c0 -12 4 -22 10 -22 5 0 11 35 13 78 l3 77 1 -84 c0
-75 2 -86 23 -103 32 -26 102 -21 102 8 -1 5 6 8 14 6 16 -3 16 -7 16 118 l1
95 6 -85 7 -85 4 85 c5 82 6 85 30 89 14 1 28 8 32 15 4 6 8 -44 8 -111 l0
-123 68 -2 67 -1 -55 -6 c-45 -5 -51 -8 -32 -15 35 -12 89 2 109 28 l17 23 40
-29 c40 -29 90 -36 131 -18 14 6 -1 9 -49 9 -38 1 -67 3 -65 5 9 9 269 13 269
4 0 -4 -30 -8 -67 -8 -48 0 -64 -3 -53 -10 19 -13 111 -13 130 0 8 5 11 10 5
10 -5 1 0 5 13 11 13 5 21 13 18 18 -3 5 1 11 9 14 7 3 17 22 20 41 8 42 -26
109 -51 99 -10 -3 -12 0 -9 10 8 20 -9 24 -83 19 -52 -3 -62 -7 -58 -19 4 -11
2 -13 -9 -9 -13 5 -20 -5 -16 -27 3 -18 -38 -5 -53 18 -16 24 -19 78 -4 69 5
-3 12 5 17 18 6 13 10 19 10 14 2 -24 39 45 43 81 8 54 -12 73 -75 73 -46 0
-72 -15 -40 -23 10 -2 6 -3 -9 -1 -15 2 -34 -3 -42 -11 -8 -8 -17 -15 -20 -15
-3 0 -6 33 -8 73 l-3 72 -65 6 -65 6 55 2 c50 2 53 3 27 13 -32 11 -101 2 -92
-13 4 -5 -1 -9 -9 -9 -13 0 -16 -13 -16 -70 0 -38 -4 -70 -9 -70 -5 0 -7 8 -4
19 4 17 -3 18 -101 16 -96 -2 -109 -4 -131 -25 -14 -13 -25 -32 -25 -41 0 -15
-6 -13 -30 11 -17 17 -35 30 -41 30 -6 0 -17 7 -25 15 -11 10 -35 15 -77 14
-54 0 -119 -14 -92 -19 6 -2 -3 -5 -20 -9 -16 -4 -29 -12 -27 -19 1 -7 -3 -12
-8 -12 -15 0 -8 68 7 74 7 3 13 21 13 42 0 27 -5 37 -20 41 -11 3 -17 9 -14
14 7 13 -42 22 -82 16 -44 -7 -64 -23 -64 -50 0 -11 -3 -17 -7 -13 -8 8 -30
-62 -43 -134 l-7 -45 -2 46 c0 25 -8 54 -16 65 -8 10 -15 33 -15 49 0 44 -16
55 -79 57 l-56 1 45 7 c42 6 43 7 17 14 -32 10 -81 0 -72 -14 3 -6 -4 -10 -15
-10 -16 0 -20 -5 -16 -15 3 -8 0 -14 -7 -12 -8 1 -14 -22 -18 -73 -3 -41 -6
-62 -7 -46 -3 45 -16 21 -23 -42 l-6 -57 -2 58 c-1 72 -26 154 -56 186 -17 17
-38 25 -73 29 -44 4 -54 1 -76 -21z m72 -4 l-68 -4 -1 -37 c-2 -31 -3 -33 -6
-9 -8 51 0 57 74 55 l68 -2 -67 -3z m570 0 c-15 -2 -42 -2 -60 0 -18 2 -6 4
27 4 33 0 48 -2 33 -4z m-507 -80 c0 -42 3 -52 9 -38 6 13 9 -8 9 -64 1 -92 8
-102 18 -25 9 77 13 65 13 -39 0 -97 0 -97 25 -97 25 0 25 1 25 80 0 50 4 80
11 80 5 0 8 -3 6 -7 -2 -5 -1 -30 3 -58 6 -40 8 -26 9 64 1 121 5 137 14 57
10 -80 19 -67 15 22 l-3 82 55 0 55 0 -3 -82 c-4 -103 6 -98 17 8 l8 79 2
-124 c0 -68 3 -122 6 -119 3 2 8 38 11 79 4 41 8 76 10 78 2 2 4 -50 4 -117 0
-116 1 -122 21 -122 12 0 17 -4 14 -11 -4 -6 -13 -8 -21 -5 -8 3 -14 1 -14 -4
0 -6 11 -10 25 -10 25 0 25 0 25 97 0 104 4 116 13 39 10 -80 17 -65 18 40 1
70 4 89 9 64 6 -28 8 -21 9 38 l1 72 55 0 55 0 0 -72 c0 -75 -9 -91 -12 -20
-2 71 -18 46 -19 -30 -1 -59 -3 -66 -9 -38 -5 23 -8 -8 -10 -95 l-3 -130 -8
80 c-13 128 -16 127 -19 -5 -2 -99 -4 -114 -10 -75 -4 28 -5 53 -3 58 2 4 -1
7 -6 7 -7 0 -11 -30 -11 -80 l0 -80 -65 0 -65 0 -1 83 -2 82 -12 -85 -12 -85
-3 110 c-2 74 -5 100 -10 80 -6 -23 -8 -12 -9 42 l-1 72 -30 -2 -30 -2 -1 -70
c0 -48 -3 -64 -9 -50 -6 13 -9 -14 -9 -77 -1 -54 -4 -98 -8 -98 -5 0 -8 17 -8
37 1 21 -2 52 -6 68 -5 21 -7 11 -8 -37 l-1 -68 -53 0 -54 0 -1 36 c-2 52 -12
56 -12 6 0 -23 -3 -42 -7 -42 -5 0 -7 36 -5 80 3 55 0 80 -8 80 -6 0 -9 -3 -6
-8 2 -4 1 -23 -4 -42 -6 -25 -8 -3 -9 79 -1 63 -3 112 -5 110 -2 -2 -7 -33
-10 -69 -4 -35 -9 -66 -11 -69 -3 -2 -6 45 -7 105 -1 82 -3 98 -8 64 -6 -41
-7 -39 -8 28 -2 73 -17 99 -25 40 -2 -20 -4 -11 -5 25 l-2 57 55 0 55 0 1 -57z
m559 27 c0 -16 -2 -30 -4 -30 -2 0 -6 14 -8 30 -3 17 -1 30 4 30 4 0 8 -13 8
-30z m720 -95 c0 -155 -18 -169 -23 -17 l-3 107 -2 -134 c-1 -74 1 -131 6
-127 4 4 7 13 7 19 0 7 8 11 18 9 10 -2 17 3 17 13 0 8 7 15 15 15 11 0 15 12
16 43 1 23 3 34 6 25 2 -10 9 -18 15 -18 5 0 8 7 4 15 -4 12 4 15 41 15 54 0
54 8 0 12 -63 4 -41 18 28 18 l65 0 -1 -32 c0 -30 -1 -31 -9 -10 -11 26 -22
29 -18 5 2 -10 -3 -17 -9 -16 -7 2 -13 -6 -13 -17 0 -13 -5 -18 -15 -14 -11 5
-15 -2 -16 -27 -1 -19 -3 -26 -6 -16 -5 19 -25 24 -22 5 1 -7 1 -22 -1 -33
l-1 -20 -9 20 c-8 18 -9 17 -9 -7 -1 -18 4 -28 14 -28 9 0 12 -6 9 -15 -4 -8
-1 -15 4 -15 6 0 13 8 15 18 3 9 5 -2 6 -25 1 -31 5 -43 16 -43 8 0 15 -8 16
-17 0 -15 2 -15 9 2 7 17 9 17 9 3 1 -10 8 -18 16 -18 9 0 15 -9 15 -25 0 -24
-3 -25 -56 -25 -46 0 -55 3 -50 15 3 9 0 15 -9 15 -14 0 -19 11 -16 38 3 19
-17 14 -22 -5 -3 -10 -5 -3 -6 15 -1 21 -6 32 -16 32 -8 0 -14 3 -14 8 5 29
-3 42 -26 42 -24 0 -25 -2 -23 -62 1 -50 2 -54 5 -21 6 65 23 52 23 -17 l0
-60 -55 0 -55 0 0 240 0 240 55 0 55 0 0 -125z m30 115 c0 -5 -2 -10 -4 -10
-3 0 -8 5 -11 10 -3 6 -1 10 4 10 6 0 11 -4 11 -10z m-195 -100 c3 -5 -1 -10
-9 -10 -9 0 -16 5 -16 10 0 6 4 10 9 10 6 0 13 -4 16 -10z m375 0 c0 -5 -4
-10 -10 -10 -5 0 -10 5 -10 10 0 6 5 10 10 10 6 0 10 -4 10 -10z m-767 -7
c-13 -2 -33 -2 -45 0 -13 2 -3 4 22 4 25 0 35 -2 23 -4z m77 -22 c0 -5 -43 -9
-95 -10 -60 -1 -95 2 -95 9 0 6 36 10 95 10 52 0 95 -4 95 -9z m107 -113 c-2
-24 -4 -5 -4 42 0 47 2 66 4 43 2 -24 2 -62 0 -85z m103 113 c0 -6 -17 -12
-37 -14 -21 -2 -2 -4 42 -4 44 0 72 1 63 4 -29 7 -20 23 12 23 30 0 30 -1 30
-55 l0 -55 -42 0 -43 0 3 -120 4 -120 -56 0 -56 0 0 175 0 175 40 0 c22 0 40
-4 40 -9z m30 -1 c0 -5 -2 -10 -4 -10 -3 0 -8 5 -11 10 -3 6 -1 10 4 10 6 0
11 -4 11 -10z m102 -30 c-2 -22 -6 -40 -8 -40 -2 0 -4 18 -4 40 0 22 3 40 8
40 4 0 6 -18 4 -40z m-319 -7 c-5 -12 -2 -15 10 -10 15 6 17 -2 17 -55 0 -66
8 -76 12 -14 5 78 18 43 18 -48 0 -61 -4 -96 -11 -96 -5 0 -8 3 -5 8 2 4 1 23
-4 42 -7 32 -8 30 -9 -22 -1 -44 -5 -58 -16 -58 -8 0 -15 -4 -15 -10 0 -5 -11
-10 -25 -10 -29 0 -34 -16 -7 -23 9 -3 -27 -5 -80 -6 -81 -1 -98 2 -98 14 0 8
-7 15 -15 15 -8 0 -14 6 -12 13 1 6 -4 11 -10 10 -7 -2 -13 4 -13 12 0 8 -7
15 -15 15 -12 0 -15 17 -15 95 0 63 4 95 11 95 6 0 9 -7 5 -15 -3 -8 -1 -15 4
-15 6 0 10 13 10 30 0 22 4 28 15 24 11 -5 13 -2 9 10 -5 14 8 16 120 16 113
0 125 -2 119 -17z m497 -43 c0 -5 -4 -10 -10 -10 -5 0 -10 5 -10 10 0 6 5 10
10 10 6 0 10 -4 10 -10z m-175 -10 c3 -5 1 -10 -4 -10 -6 0 -11 5 -11 10 0 6
2 10 4 10 3 0 8 -4 11 -10z m-638 -117 c-2 -21 -4 -4 -4 37 0 41 2 58 4 38 2
-21 2 -55 0 -75z m558 87 c3 -5 1 -10 -4 -10 -6 0 -11 5 -11 10 0 6 2 10 4 10
3 0 8 -4 11 -10z m48 -7 c-7 -2 -19 -2 -25 0 -7 3 -2 5 12 5 14 0 19 -2 13 -5z
m-763 -27 c0 -3 -4 -8 -10 -11 -5 -3 -10 -1 -10 4 0 6 5 11 10 11 6 0 10 -2
10 -4z m1300 -42 c0 -10 6 -14 15 -10 12 4 15 -6 15 -64 l0 -70 -82 0 -83 0 0
65 c0 66 5 73 48 66 15 -2 6 18 -10 22 -10 3 8 5 40 6 46 1 57 -2 57 -15z
m-365 -4 c-3 -5 -11 -10 -16 -10 -6 0 -7 5 -4 10 3 6 11 10 16 10 6 0 7 -4 4
-10z m155 -40 c0 -5 -4 -10 -10 -10 -5 0 -10 5 -10 10 0 6 5 10 10 10 6 0 10
-4 10 -10z m57 -27 c-3 -10 -5 -4 -5 12 0 17 2 24 5 18 2 -7 2 -21 0 -30z
m205 2 c-6 -34 -12 -32 -12 6 0 16 4 28 9 25 4 -3 6 -17 3 -31z m-1324 -102
c-15 -2 -42 -2 -60 0 -18 2 -6 4 27 4 33 0 48 -2 33 -4z m615 0 c-13 -2 -33
-2 -45 0 -13 2 -3 4 22 4 25 0 35 -2 23 -4z"/>
<path d="M505 620 c-3 -5 -1 -10 4 -10 6 0 11 5 11 10 0 6 -2 10 -4 10 -3 0
-8 -4 -11 -10z"/>
<path d="M712 580 c0 -14 2 -19 5 -12 2 6 2 18 0 25 -3 6 -5 1 -5 -13z"/>
<path d="M463 473 c9 -2 25 -2 35 0 9 3 1 5 -18 5 -19 0 -27 -2 -17 -5z"/>
<path d="M262 350 c0 -14 2 -19 5 -12 2 6 2 18 0 25 -3 6 -5 1 -5 -13z"/>
<path d="M320 299 c0 -5 11 -9 25 -9 33 0 33 15 0 16 -14 1 -25 -2 -25 -7z"/>
<path d="M581 224 c0 -11 3 -14 6 -6 3 7 2 16 -1 19 -3 4 -6 -2 -5 -13z"/>
<path d="M310 186 c0 -2 11 -6 25 -8 14 -3 25 -1 25 3 0 5 -11 9 -25 9 -14 0
-25 -2 -25 -4z"/>
<path d="M604 181 c3 -5 15 -7 26 -4 28 7 25 13 -6 13 -14 0 -23 -4 -20 -9z"/>
<path d="M665 180 c3 -5 8 -10 11 -10 2 0 4 5 4 10 0 6 -5 10 -11 10 -5 0 -7
-4 -4 -10z"/>
<path d="M1450 415 c0 -141 4 -215 10 -215 7 0 10 73 10 215 -1 125 -5 215
-11 215 -5 0 -9 -89 -9 -215z"/>
<path d="M1601 334 c0 -11 3 -14 6 -6 3 7 2 16 -1 19 -3 4 -6 -2 -5 -13z"/>
<path d="M1450 180 c0 -5 5 -10 10 -10 6 0 10 5 10 10 0 6 -4 10 -10 10 -5 0
-10 -4 -10 -10z"/>
<path d="M1280 459 c0 -5 11 -9 25 -9 33 0 33 15 0 16 -14 1 -25 -2 -25 -7z"/>
<path d="M1224 335 c0 -71 1 -99 3 -62 2 37 2 96 0 130 -2 34 -3 4 -3 -68z"/>
<path d="M1280 285 c0 -65 3 -116 6 -112 7 7 5 219 -2 226 -2 2 -4 -49 -4
-114z"/>
<path d="M1253 300 c0 -25 2 -35 4 -22 2 12 2 32 0 45 -2 12 -4 2 -4 -23z"/>
<path d="M1215 180 c3 -5 8 -10 11 -10 2 0 4 5 4 10 0 6 -5 10 -11 10 -5 0 -7
-4 -4 -10z"/>
<path d="M1065 460 c-3 -5 -1 -10 4 -10 6 0 11 5 11 10 0 6 -2 10 -4 10 -3 0
-8 -4 -11 -10z"/>
<path d="M930 419 c0 -6 21 -9 55 -7 30 2 55 6 55 10 0 5 -25 8 -55 8 -32 0
-55 -4 -55 -11z"/>
<path d="M881 328 c0 -54 3 -67 9 -50 11 26 22 29 18 5 -3 -14 5 -16 45 -14
26 1 47 -2 47 -7 0 -4 -12 -7 -27 -5 -16 3 -39 0 -53 -6 -20 -8 -11 -10 48
-10 l72 -1 0 80 0 80 -80 0 -80 0 1 -72z m29 52 c0 -5 -4 -10 -10 -10 -5 0
-10 5 -10 10 0 6 5 10 10 10 6 0 10 -4 10 -10z m92 -17 c22 -20 24 -53 3 -53
-8 0 -15 -4 -15 -10 0 -15 -29 -12 -46 4 -27 27 -11 76 25 76 8 0 23 -7 33
-17z m-95 -40 c-3 -10 -5 -4 -5 12 0 17 2 24 5 18 2 -7 2 -21 0 -30z m123 -63
c0 -5 -4 -10 -10 -10 -5 0 -10 5 -10 10 0 6 5 10 10 10 6 0 10 -4 10 -10z"/>
<path d="M1052 345 c-2 -34 1 -55 7 -55 7 0 11 23 11 55 0 30 -3 55 -8 55 -4
0 -8 -25 -10 -55z"/>
<path d="M823 335 c0 -33 2 -45 4 -27 2 18 2 45 0 60 -2 15 -4 0 -4 -33z"/>
<path d="M852 345 c0 -16 2 -22 5 -12 2 9 2 23 0 30 -3 6 -5 -1 -5 -18z"/>
<path d="M810 260 c0 -5 5 -10 10 -10 6 0 10 5 10 10 0 6 -4 10 -10 10 -5 0
-10 -4 -10 -10z"/>
<path d="M890 182 c0 -5 28 -7 63 -4 89 5 94 10 10 11 -40 1 -73 -3 -73 -7z"/>
<path d="M1890 300 c0 -5 5 -10 10 -10 6 0 10 5 10 10 0 6 -4 10 -10 10 -5 0
-10 -4 -10 -10z"/>
<path d="M1863 285 c0 -8 6 -15 13 -15 8 0 11 6 8 15 -4 8 -9 15 -13 15 -4 0
-8 -7 -8 -15z"/>
<path d="M1817 248 c-10 -36 18 -68 54 -64 34 4 49 19 49 53 0 34 -18 36 -25
3 -5 -21 -13 -30 -26 -30 -11 0 -17 -4 -14 -10 3 -5 1 -10 -4 -10 -6 0 -11 18
-11 40 0 43 -14 54 -23 18z"/>
</g>
</svg>
