<?xml version="1.0" standalone="no"?>
<!DOCTYPE svg PUBLIC "-//W3C//DTD SVG 20010904//EN"
 "http://www.w3.org/TR/2001/REC-SVG-20010904/DTD/svg10.dtd">
<svg version="1.0" xmlns="http://www.w3.org/2000/svg"
 width="100.000000pt" height="100.000000pt" viewBox="0 0 100.000000 100.000000"
 preserveAspectRatio="xMidYMid meet">
<metadata>
Created by potrace 1.16, written by Peter Selinger 2001-2019
</metadata>
<g transform="translate(0.000000,100.000000) scale(0.100000,-0.100000)"
fill="#000000" stroke="none">
<path d="M80 975 c-7 -8 -19 -15 -26 -15 -8 0 -14 -6 -14 -14 0 -7 -7 -19 -15
-26 -10 -9 -15 -31 -15 -72 0 -49 3 -59 15 -54 22 8 22 -265 0 -284 -19 -15
-21 -92 -3 -89 7 1 22 1 33 0 17 -1 18 -3 5 -11 -10 -6 -11 -10 -2 -10 20 0
16 -90 -5 -106 -16 -12 -15 -13 10 -14 15 0 27 4 27 8 0 4 16 8 35 8 19 0 35
-4 35 -9 0 -5 12 -6 26 -3 18 5 24 3 19 -4 -5 -8 -20 -9 -42 -5 -18 3 -54 3
-78 -1 -40 -5 -45 -9 -46 -33 -1 -26 -1 -25 -9 4 l-8 30 -1 -27 c0 -15 4 -30
9 -33 6 -3 10 -28 10 -55 0 -47 13 -73 23 -48 3 7 6 -6 6 -29 l1 -43 48 -2
c41 -1 43 -2 12 -6 -29 -3 -32 -6 -15 -12 13 -5 30 -2 48 8 25 15 29 15 55 0
17 -10 33 -13 42 -8 10 6 5 10 -16 13 -18 2 -10 5 22 6 36 1 55 -4 64 -14 17
-21 96 -17 92 4 -2 10 3 12 20 6 13 -4 37 -9 53 -10 l30 -4 -30 9 c-33 10 -29
10 158 -12 74 -9 100 -9 109 0 9 9 -14 12 -98 13 -132 2 -118 7 26 11 l105 3
3 38 c4 48 -11 67 -54 67 -34 0 -34 1 -34 45 0 45 0 45 -35 45 -24 0 -35 5
-35 15 0 11 -12 15 -42 16 -39 1 -40 2 -13 8 22 5 26 8 14 13 -20 8 -59 -17
-59 -38 0 -23 -168 -20 -186 4 -12 16 -13 15 -15 -8 l-1 -25 -7 25 c-10 37 -2
80 15 73 11 -4 14 6 14 46 0 37 -4 53 -15 57 -8 4 -15 12 -15 20 0 8 -6 14
-14 14 -8 0 -18 5 -21 10 -8 13 12 40 29 40 6 0 5 -4 -3 -9 -24 -16 4 -20 133
-20 106 1 127 3 122 15 -7 18 8 18 45 -2 35 -18 115 -16 111 4 -1 6 7 12 18
12 18 0 20 7 20 85 0 69 -3 85 -15 85 -8 0 -15 7 -15 16 0 12 -14 15 -77 15
-316 -1 -363 0 -363 9 0 6 8 10 18 10 9 1 115 0 236 0 231 -1 246 2 246 46 0
37 -20 39 -21 2 -2 -30 -2 -31 -6 -6 -2 15 3 38 11 50 23 32 19 78 -8 111 -20
25 -29 28 -67 25 -27 -2 -43 -8 -42 -15 2 -8 -49 -12 -193 -13 -172 -1 -198 1
-208 16 -7 9 -26 17 -42 17 -16 0 -23 2 -16 4 28 10 -3 23 -57 23 -40 0 -63
-5 -71 -15z m37 -11 c-3 -3 -12 -4 -19 -1 -8 3 -5 6 6 6 11 1 17 -2 13 -5z
m73 -1 c0 -5 -14 -8 -30 -9 -17 -1 -30 3 -30 7 0 5 14 9 30 9 17 0 30 -3 30
-7z m30 -58 c0 -35 0 -35 45 -35 l45 0 0 -60 0 -60 -30 0 c-20 0 -30 5 -30 15
0 8 -6 15 -12 16 -10 0 -10 2 0 6 17 7 15 23 -3 23 -8 0 -15 -7 -15 -15 0 -8
-7 -15 -15 -15 -10 0 -15 10 -15 30 0 27 3 30 30 30 17 0 30 5 30 11 0 7 -9 9
-22 5 -13 -3 -28 -6 -35 -6 -6 0 -14 -13 -18 -29 -5 -22 -10 -28 -26 -24 -10
3 -19 0 -19 -6 0 -6 -16 -11 -35 -11 l-35 0 0 80 0 80 80 0 80 0 0 -35z m30
20 c0 -11 12 -15 45 -15 38 0 45 -3 45 -20 0 -16 7 -20 35 -20 35 0 35 0 35
-44 0 -34 -4 -46 -17 -49 -10 -2 -2 -4 17 -3 l35 1 -3 48 c-3 38 -1 47 12 47
11 0 16 -9 16 -27 0 -26 1 -26 18 -10 15 16 15 19 2 27 -12 8 -9 10 13 10 20
0 27 5 27 20 0 18 7 20 76 20 68 0 75 -2 69 -17 -3 -10 -9 -46 -12 -80 l-6
-63 -63 0 c-50 0 -64 3 -64 15 0 8 -7 15 -15 15 -8 0 -15 7 -15 15 0 8 -7 15
-15 15 -10 0 -15 -10 -15 -30 0 -29 -1 -30 -50 -30 -38 0 -50 4 -50 15 0 8 -7
15 -15 15 -10 0 -15 10 -15 30 0 17 -5 30 -11 30 -7 0 -9 10 -5 25 6 23 4 25
-32 25 -32 0 -41 5 -50 25 -7 15 -8 25 -2 25 6 0 10 -7 10 -15z m470 5 c0 -5
-7 -10 -15 -10 -8 0 -15 5 -15 10 0 6 7 10 15 10 8 0 15 -4 15 -10z m30 0 c0
-5 -2 -10 -4 -10 -3 0 -8 5 -11 10 -3 6 -1 10 4 10 6 0 11 -4 11 -10z m-713
-97 c-2 -16 -4 -3 -4 27 0 30 2 43 4 28 2 -16 2 -40 0 -55z m433 62 c0 -9 -6
-12 -15 -9 -8 4 -15 1 -15 -5 0 -6 -7 -11 -15 -11 -8 0 -15 5 -15 11 0 6 -9 8
-20 4 -14 -5 -20 -2 -20 9 0 12 11 16 50 16 37 0 50 -4 50 -15z m50 11 c0 -3
-4 -8 -10 -11 -5 -3 -10 -1 -10 4 0 6 5 11 10 11 6 0 10 -2 10 -4z m230 -31
c0 -44 -17 -46 -23 -2 -2 17 -5 4 -5 -30 -1 -37 -6 -63 -13 -63 -5 0 -7 -5 -3
-12 5 -8 12 -1 21 20 17 41 23 40 23 -3 0 -32 -2 -35 -30 -35 l-30 0 0 80 0
80 30 0 c28 0 30 -3 30 -35z m27 -17 c-2 -13 -4 -5 -4 17 -1 22 1 32 4 23 2
-10 2 -28 0 -40z m-587 -88 c0 -5 7 -7 15 -4 8 4 15 1 15 -5 0 -7 -24 -11 -65
-11 -41 0 -65 4 -65 11 0 6 9 9 20 6 11 -3 20 -1 20 4 0 5 14 9 30 9 17 0 30
-4 30 -10z m165 -10 c3 -5 1 -10 -4 -10 -6 0 -11 5 -11 10 0 6 2 10 4 10 3 0
8 -4 11 -10z m160 0 c3 -5 -1 -10 -10 -10 -9 0 -13 5 -10 10 3 6 8 10 10 10 2
0 7 -4 10 -10z m-325 -55 c0 -11 10 -15 38 -14 21 1 28 3 17 6 -38 9 -40 23
-2 23 l37 0 0 -45 c0 -33 4 -45 15 -45 8 0 15 7 15 15 0 12 14 15 65 15 l65 0
0 -65 0 -65 -65 0 c-51 0 -65 3 -65 15 0 8 -7 15 -15 15 -8 0 -15 -7 -15 -15
0 -10 -10 -15 -30 -15 -29 0 -30 1 -30 50 0 38 -4 50 -15 50 -8 0 -15 -9 -15
-20 0 -16 -7 -20 -30 -20 -27 0 -30 -3 -30 -30 0 -28 -3 -30 -35 -30 l-35 0 0
95 0 95 65 0 c51 0 65 -3 65 -15z m250 -22 c0 -10 -117 -9 -127 0 -3 4 24 7
60 7 37 0 67 -3 67 -7z m120 -1 c0 -5 -13 -9 -30 -9 -16 0 -30 4 -30 9 0 4 14
8 30 8 17 0 30 -4 30 -8z m87 2 c-3 -3 -12 -4 -19 -1 -8 3 -5 6 6 6 11 1 17
-2 13 -5z m73 -1 c0 -5 -14 -9 -30 -10 -17 -1 -30 2 -30 7 0 6 14 10 30 10 17
0 30 -3 30 -7z m-130 -38 c0 -8 4 -15 8 -15 4 0 8 -16 8 -35 0 -19 -4 -35 -8
-35 -4 0 -8 -7 -8 -15 0 -12 -13 -15 -60 -15 l-60 0 0 65 0 65 60 0 c47 0 60
-3 60 -15z m160 -50 c0 -37 -4 -65 -10 -65 -6 0 -8 13 -5 30 5 27 3 30 -20 30
-20 0 -25 5 -25 25 0 16 -6 25 -15 25 -11 0 -15 -11 -15 -39 0 -23 -5 -41 -12
-44 -7 -2 1 -2 17 1 17 2 32 8 33 13 7 19 22 8 22 -16 0 -23 -3 -25 -50 -25
l-50 0 0 65 0 65 65 0 65 0 0 -65z m-567 -32 c-7 -2 -21 -2 -30 0 -10 3 -4 5
12 5 17 0 24 -2 18 -5z m17 -28 c0 -9 -9 -15 -25 -15 -31 0 -33 17 -2 23 12 2
23 5 25 6 1 0 2 -6 2 -14z m53 -32 c-19 -3 -33 -10 -33 -18 0 -8 14 -15 33
-18 l32 -4 -36 -1 c-29 -2 -38 2 -42 18 -6 22 6 29 48 28 l30 -1 -32 -4z m165
0 c-16 -2 -40 -2 -55 0 -16 2 -3 4 27 4 30 0 43 -2 28 -4z m65 0 c-7 -2 -19
-2 -25 0 -7 3 -2 5 12 5 14 0 19 -2 13 -5z m65 0 c-10 -2 -26 -2 -35 0 -10 3
-2 5 17 5 19 0 27 -2 18 -5z m99 1 c-3 -3 -12 -4 -19 -1 -8 3 -5 6 6 6 11 1
17 -2 13 -5z m61 -1 c-10 -2 -26 -2 -35 0 -10 3 -2 5 17 5 19 0 27 -2 18 -5z
m-662 -33 c1 -17 -3 -30 -7 -30 -5 0 -9 14 -9 30 0 39 15 39 16 0z m144 0 l0
-30 60 0 60 0 0 -65 0 -65 -60 0 -60 0 0 65 c0 51 -3 65 -15 65 -12 0 -15 -14
-15 -65 l0 -65 -35 0 -35 0 0 65 c0 51 -3 65 -15 65 -10 0 -15 10 -15 30 l0
30 65 0 65 0 0 -30z m147 -112 c-2 -13 -4 -5 -4 17 -1 22 1 32 4 23 2 -10 2
-28 0 -40z m-57 -70 c0 -4 -13 -8 -30 -8 -16 0 -30 4 -30 9 0 5 14 9 30 9 17
-1 30 -5 30 -10z m30 -8 c0 -5 -5 -10 -11 -10 -5 0 -7 5 -4 10 3 6 8 10 11 10
2 0 4 -4 4 -10z m-180 -75 c0 -33 4 -45 15 -45 11 0 15 -12 15 -50 l0 -50 -35
0 -35 0 0 65 c0 43 4 65 12 65 6 0 9 2 6 5 -8 8 -39 -6 -33 -15 3 -5 1 -19 -4
-32 -8 -18 -10 -10 -10 40 l-1 62 35 0 c35 0 35 0 35 -45z m90 0 c0 -33 4 -45
15 -45 11 0 15 12 15 45 0 43 1 45 30 45 27 0 30 -3 30 -30 l0 -30 65 0 65 0
0 -65 0 -65 -65 0 -65 0 0 64 c0 52 -3 64 -17 68 -16 4 -18 -2 -15 -64 l4 -68
-31 0 c-30 0 -31 1 -31 50 0 49 -1 50 -30 50 -29 0 -30 2 -30 45 0 43 1 45 30
45 29 0 30 -2 30 -45z m400 19 c0 -14 -4 -23 -10 -19 -6 4 -8 10 -5 15 3 5 1
11 -3 14 -10 6 -26 -114 -17 -122 3 -3 11 0 17 6 9 9 9 12 0 12 -7 0 -12 7
-12 15 0 28 30 16 31 -12 0 -28 1 -28 11 -5 9 18 7 25 -12 42 l-23 20 31 0
c32 0 32 -1 32 -50 0 -27 3 -50 8 -50 4 0 17 -3 30 -6 17 -5 22 -2 22 14 0 15
-5 19 -20 15 -11 -3 -20 0 -20 6 0 6 16 11 35 11 33 0 35 -2 35 -35 l0 -35
-95 0 -95 0 0 95 0 95 30 0 c26 0 30 -4 30 -26z m-210 -14 c0 -5 -16 -9 -35
-8 -19 1 -35 5 -35 10 0 4 16 8 35 8 19 0 35 -4 35 -10z m37 4 c-3 -3 -12 -4
-19 -1 -8 3 -5 6 6 6 11 1 17 -2 13 -5z m92 2 c-11 -9 -69 -14 -69 -6 0 6 17
10 37 10 20 0 34 -2 32 -4z m151 -26 c0 -16 -4 -30 -10 -30 -5 0 -10 9 -10 20
0 12 -10 24 -22 30 -21 8 -20 9 10 9 29 1 32 -2 32 -29z m-160 -15 c0 -8 -7
-15 -15 -15 -11 0 -15 -12 -15 -50 0 -38 -4 -50 -15 -50 -12 0 -15 14 -15 65
l0 65 30 0 c20 0 30 -5 30 -15z m-325 -35 c3 -6 -4 -10 -17 -10 -18 0 -20 2
-8 10 19 12 18 12 25 0z m325 -35 c0 -25 -3 -45 -7 -45 -5 0 -7 19 -6 42 2 50
2 48 8 48 3 0 5 -20 5 -45z m250 -10 c0 -19 -4 -35 -8 -35 -4 0 -8 16 -8 35 0
19 4 35 8 35 4 0 8 -16 8 -35z m-580 5 c0 -5 -4 -10 -10 -10 -5 0 -10 5 -10
10 0 6 5 10 10 10 6 0 10 -4 10 -10z m-5 -30 c3 -5 1 -10 -4 -10 -6 0 -11 5
-11 10 0 6 2 10 4 10 3 0 8 -4 11 -10z m203 -37 c-10 -2 -28 -2 -40 0 -13 2
-5 4 17 4 22 1 32 -1 23 -4z"/>
<path d="M70 920 c0 -5 4 -10 9 -10 5 0 11 -7 13 -17 3 -15 4 -15 17 0 12 15
11 17 -3 17 -9 0 -16 5 -16 10 0 6 -4 10 -10 10 -5 0 -10 -4 -10 -10z"/>
<path d="M130 890 c0 -13 -7 -20 -19 -20 -14 0 -20 -9 -23 -33 -3 -32 -3 -32
34 -28 34 3 38 6 38 32 0 19 5 29 15 29 8 0 15 6 15 14 0 8 6 17 13 19 6 3 -7
6 -30 6 -37 1 -43 -2 -43 -19z m0 -50 c0 -5 -5 -10 -11 -10 -5 0 -7 5 -4 10 3
6 8 10 11 10 2 0 4 -4 4 -10z"/>
<path d="M265 850 c-4 -6 -2 -17 4 -23 15 -15 25 -2 13 19 -7 12 -11 13 -17 4z"/>
<path d="M268 773 c7 -3 16 -2 19 1 4 3 -2 6 -13 5 -11 0 -14 -3 -6 -6z"/>
<path d="M620 891 c0 -4 -16 -7 -36 -6 -44 1 -51 -8 -19 -23 15 -7 25 -8 25
-2 0 6 7 10 16 10 9 0 14 -8 13 -17 -4 -42 2 -93 10 -93 5 0 9 25 8 55 -1 38
2 55 11 55 20 0 14 17 -8 23 -11 3 -20 2 -20 -2z"/>
<path d="M350 850 c0 -5 5 -10 10 -10 6 0 10 5 10 10 0 6 -4 10 -10 10 -5 0
-10 -4 -10 -10z"/>
<path d="M523 843 c4 -3 7 -11 7 -19 0 -9 11 -14 28 -14 20 0 23 -3 12 -10
-17 -11 -13 -15 20 -24 14 -3 19 -3 13 0 -7 3 -13 19 -13 35 0 24 -4 29 -24
29 -13 0 -30 2 -38 3 -7 2 -10 2 -5 0z"/>
<path d="M362 810 c0 -14 2 -19 5 -12 2 6 2 18 0 25 -3 6 -5 1 -5 -13z"/>
<path d="M78 703 c-2 -5 0 -42 3 -83 l5 -75 2 83 c2 74 -1 96 -10 75z"/>
<path d="M130 660 c0 -20 5 -30 15 -30 10 0 15 10 15 30 0 20 -5 30 -15 30
-10 0 -15 -10 -15 -30z"/>
<path d="M185 660 c-3 -6 1 -7 9 -4 18 7 21 14 7 14 -6 0 -13 -4 -16 -10z"/>
<path d="M220 660 c0 -5 5 -10 10 -10 6 0 10 5 10 10 0 6 -4 10 -10 10 -5 0
-10 -4 -10 -10z"/>
<path d="M242 610 c0 -14 2 -19 5 -12 2 6 2 18 0 25 -3 6 -5 1 -5 -13z"/>
<path d="M340 595 c0 -33 2 -35 35 -35 33 0 35 2 35 35 0 33 -2 35 -35 35 -33
0 -35 -2 -35 -35z m50 -6 c0 -10 -4 -19 -10 -19 -5 0 -10 12 -10 26 0 14 4 23
10 19 6 -3 10 -15 10 -26z"/>
<path d="M284 605 c-3 -8 -3 -19 1 -25 11 -18 25 -11 25 15 0 27 -17 34 -26
10z"/>
<path d="M499 601 c2 -19 -2 -36 -9 -41 -9 -5 -9 -9 -1 -14 6 -4 11 -2 11 4 0
7 14 11 33 10 54 -3 57 -2 57 34 0 34 -1 34 -48 38 l-47 3 4 -34z m61 -14 c21
-4 20 -4 -7 -6 -25 -1 -33 3 -33 17 0 11 3 13 8 6 4 -7 18 -14 32 -17z"/>
<path d="M720 640 c0 -5 5 -10 11 -10 5 0 7 5 4 10 -3 6 -8 10 -11 10 -2 0 -4
-4 -4 -10z"/>
<path d="M75 480 c-4 -6 14 -10 50 -10 31 0 54 4 51 8 -7 12 -93 14 -101 2z"/>
<path d="M112 427 c10 -8 18 -31 20 -58 3 -43 4 -43 8 14 5 56 4 57 -20 57
-22 -1 -23 -2 -8 -13z"/>
<path d="M206 422 c-4 -7 -2 -12 3 -12 6 0 11 -15 11 -34 0 -31 3 -34 33 -38
32 -3 32 -3 28 30 -2 20 2 37 9 42 9 5 9 9 1 14 -6 4 -11 2 -11 -3 0 -15 -57
-14 -62 1 -3 9 -6 9 -12 0z m59 -32 c3 -5 -1 -10 -10 -10 -9 0 -13 5 -10 10 3
6 8 10 10 10 2 0 7 -4 10 -10z"/>
<path d="M90 230 c0 -5 7 -10 16 -10 8 0 12 5 9 10 -3 6 -10 10 -16 10 -5 0
-9 -4 -9 -10z"/>
<path d="M124 132 c-14 -8 -16 -62 -3 -62 5 0 9 13 9 29 0 16 6 32 13 34 6 3
8 6 2 6 -5 0 -15 -3 -21 -7z"/>
<path d="M265 230 c-3 -5 -1 -10 4 -10 6 0 11 5 11 10 0 6 -2 10 -4 10 -3 0
-8 -4 -11 -10z"/>
<path d="M333 163 c12 -7 8 -71 -5 -75 -9 -3 -9 -6 0 -12 7 -4 12 -2 12 3 0 6
16 11 35 11 19 0 35 -5 35 -11 0 -5 5 -7 12 -3 9 6 9 9 0 12 -7 2 -12 19 -12
38 0 31 -3 34 -29 34 -16 0 -35 2 -43 3 -7 2 -10 2 -5 0z m57 -41 c0 -4 -9 -8
-20 -9 -11 -1 -20 2 -20 8 0 5 9 9 20 9 11 0 20 -4 20 -8z"/>
<path d="M236 141 c-4 -6 -2 -11 3 -11 6 0 11 -8 12 -17 0 -10 3 -13 5 -6 8
18 -11 49 -20 34z"/>
<path d="M250 79 c0 -5 5 -7 10 -4 6 3 10 8 10 11 0 2 -4 4 -10 4 -5 0 -10 -5
-10 -11z"/>
<path d="M590 80 c0 -12 17 -12 45 0 17 7 15 9 -12 9 -18 1 -33 -3 -33 -9z"/>
<path d="M782 600 c0 -14 2 -19 5 -12 2 6 2 18 0 25 -3 6 -5 1 -5 -13z"/>
</g>
</svg>
