<?xml version="1.0" standalone="no"?>
<!DOCTYPE svg PUBLIC "-//W3C//DTD SVG 20010904//EN"
 "http://www.w3.org/TR/2001/REC-SVG-20010904/DTD/svg10.dtd">
<svg version="1.0" xmlns="http://www.w3.org/2000/svg"
 width="192.000000pt" height="192.000000pt" viewBox="0 0 192.000000 192.000000"
 preserveAspectRatio="xMidYMid meet">
<metadata>
Created by potrace 1.16, written by Peter Selinger 2001-2019
</metadata>
<g transform="translate(0.000000,192.000000) scale(0.100000,-0.100000)"
fill="#000000" stroke="none">
<path d="M208 1790 c-20 -11 -49 -36 -65 -57 -23 -30 -28 -48 -31 -108 -6
-106 31 -171 115 -201 85 -30 185 -12 232 42 30 34 31 34 31 10 0 -47 9 -56
60 -56 45 0 48 1 54 31 3 17 6 54 6 81 0 41 3 50 23 57 21 8 22 5 28 -45 4
-29 14 -65 23 -80 51 -77 245 -69 254 11 l4 28 18 -31 c33 -53 68 -65 179 -57
53 4 99 13 103 19 4 6 8 46 8 89 0 59 3 77 14 77 10 0 15 -19 18 -69 5 -95 20
-111 105 -111 l63 0 0 50 c0 47 -2 50 -25 50 -22 0 -25 4 -25 40 0 36 2 40 26
40 24 0 25 2 22 53 -3 46 -6 52 -26 55 -16 3 -25 12 -29 33 -4 24 -11 29 -34
29 -44 0 -79 -17 -79 -39 0 -25 -15 -27 -119 -20 -104 8 -151 -2 -187 -40
l-27 -28 -26 29 c-51 57 -164 58 -222 2 l-29 -28 0 32 0 32 -85 0 -86 0 -6
-30 c-5 -27 -9 -30 -42 -29 l-36 0 33 16 c36 19 41 45 16 82 -41 58 -181 80
-256 41z m148 -11 c24 -6 59 -25 77 -42 l32 -30 -32 -15 c-29 -14 -33 -13 -58
7 -50 39 -138 20 -163 -34 -23 -49 -15 -94 22 -131 26 -26 42 -34 70 -34 32 0
96 23 96 34 0 3 2 11 6 19 4 11 -4 13 -45 9 l-51 -5 0 34 0 34 86 0 86 0 -4
-46 c-9 -88 -71 -142 -163 -142 -97 0 -170 61 -182 152 -11 81 45 167 124 191
39 12 48 12 99 -1z m1014 -65 c0 -33 2 -35 27 -32 25 3 27 0 29 -30 2 -32 0
-34 -27 -30 l-29 5 0 -64 c0 -63 0 -63 28 -63 25 0 29 -4 29 -30 0 -28 -3 -30
-39 -30 -60 0 -78 25 -78 110 0 68 -1 70 -25 70 -21 0 -25 5 -25 30 0 25 4 30
25 30 21 0 25 5 25 29 0 29 2 30 53 40 4 0 7 -15 7 -35z m-1009 -44 l24 -19
-46 -1 c-50 0 -59 -9 -59 -58 0 -37 10 -49 45 -55 28 -4 27 -4 -7 -6 -78 -3
-120 79 -68 134 29 31 78 33 111 5z m219 -6 c0 -10 6 -8 20 6 31 31 50 26 50
-12 0 -27 -6 -36 -33 -48 -32 -15 -32 -16 -35 -92 l-3 -78 -29 0 -30 0 0 123
0 124 30 -5 c17 -2 30 -10 30 -18z m290 11 c36 -18 60 -62 60 -107 l0 -33 -91
3 c-72 3 -90 1 -87 -10 3 -7 16 -20 31 -28 22 -12 32 -12 61 -2 27 10 40 10
57 2 20 -11 20 -12 3 -31 -63 -69 -203 -24 -219 71 -18 104 91 184 185 135z
m268 -1 c12 -8 22 -11 22 -6 0 5 14 12 30 14 l30 5 0 -124 0 -123 -30 0 c-21
0 -30 5 -30 17 0 14 -2 14 -20 -2 -25 -23 -91 -23 -126 -1 -28 19 -54 71 -54
111 0 90 109 157 178 109z"/>
<path d="M762 1618 c-24 -24 -12 -33 48 -33 33 0 60 3 60 7 0 31 -82 52 -108
26z"/>
<path d="M1040 1603 c-23 -29 -21 -66 5 -92 22 -23 75 -18 97 8 23 30 23 52
-3 85 -28 35 -70 35 -99 -1z m80 -18 c23 -28 -9 -72 -45 -59 -36 14 -24 74 15
74 10 0 23 -7 30 -15z"/>
<path d="M154 1367 c-2 -7 -3 -94 -2 -192 l3 -180 55 0 55 0 3 53 c3 50 4 52
33 52 42 0 92 23 117 55 l21 27 3 -94 3 -93 50 0 50 0 6 65 c3 36 6 55 7 42 3
-38 30 -81 62 -97 20 -11 60 -15 135 -15 l105 0 0 144 0 143 -98 7 c-57 4
-108 3 -123 -3 -35 -13 -79 -67 -81 -99 -1 -15 -4 23 -7 83 l-6 110 -50 0 -50
0 -5 -39 -5 -39 -14 26 c-22 42 -67 57 -170 57 -65 0 -93 -4 -97 -13z m175
-17 c71 -20 107 -87 81 -151 -20 -48 -55 -69 -117 -69 l-54 0 2 -57 3 -57 -33
0 -32 0 0 167 c0 92 1 169 1 172 0 9 114 5 149 -5z m201 -165 l0 -165 -35 0
-35 0 0 165 0 165 35 0 35 0 0 -165z m234 56 c18 -15 19 -15 13 2 -5 14 0 17
28 17 l35 0 0 -124 0 -123 -27 5 c-16 3 -31 9 -34 15 -4 6 -16 3 -30 -7 -39
-27 -84 -20 -125 17 -47 43 -57 113 -24 165 37 59 116 75 164 33z"/>
<path d="M240 1240 l0 -50 36 0 c50 0 74 15 74 48 0 39 -17 52 -67 52 l-43 0
0 -50z m69 21 c19 -12 6 -41 -19 -41 -15 0 -20 7 -20 25 0 26 14 31 39 16z"/>
<path d="M683 1200 c-44 -18 -56 -77 -23 -110 43 -43 113 -12 113 51 0 48 -44
77 -90 59z m51 -39 c33 -36 -18 -83 -52 -49 -17 17 -15 45 6 57 24 14 26 14
46 -8z"/>
<path d="M943 1275 c-53 -23 -75 -68 -71 -149 4 -64 6 -70 41 -102 37 -34 62
-40 132 -35 35 3 76 23 95 46 12 14 16 13 41 -11 67 -64 239 -41 239 32 0 14
5 35 11 46 19 35 2 106 -35 145 -27 30 -41 36 -83 40 -62 6 -116 -10 -142 -43
-19 -24 -20 -24 -30 -6 -25 46 -131 66 -198 37z m108 -15 c19 -6 46 -21 58
-34 l23 -24 -30 -16 c-27 -14 -31 -14 -43 0 -8 10 -25 14 -48 12 -68 -6 -79
-91 -15 -120 21 -10 31 -9 55 5 24 13 34 14 55 5 29 -13 27 -25 -7 -51 -61
-45 -150 -28 -189 36 -24 39 -25 78 -4 122 20 42 47 61 104 74 3 0 21 -4 41
-9z m309 -19 c32 -23 50 -57 50 -98 l0 -33 -90 0 c-51 0 -90 -4 -90 -10 0 -25
85 -41 106 -20 12 12 64 -6 64 -22 0 -18 -66 -48 -106 -48 -116 0 -175 138
-94 219 44 43 108 48 160 12z m-319 -77 c13 -16 44 -15 82 1 14 6 17 2 17 -31
0 -30 -3 -35 -12 -26 -15 15 -73 15 -97 0 -15 -9 -23 -9 -35 1 -20 17 -20 30
1 53 20 22 27 22 44 2z"/>
<path d="M1247 1192 c-10 -10 -17 -22 -17 -25 0 -4 27 -7 60 -7 64 0 74 9 38
34 -30 21 -61 20 -81 -2z"/>
<path d="M110 885 l0 -55 45 0 45 0 0 -130 0 -130 54 0 c52 0 54 1 60 31 3 17
6 76 6 130 l0 99 26 0 c26 0 26 0 9 -26 -9 -14 -19 -49 -21 -77 -9 -90 42
-155 129 -164 128 -15 208 92 162 213 -25 65 -61 86 -148 82 -67 -3 -67 -3
-67 24 0 58 0 58 -156 58 l-144 0 0 -55z m270 -2 c0 -32 -1 -33 -45 -33 l-45
0 0 -130 0 -130 -35 0 -35 0 0 130 0 130 -45 0 c-44 0 -45 1 -45 33 l0 32 125
0 125 0 0 -32z m191 -82 c33 -32 39 -45 39 -80 0 -85 -46 -131 -131 -131 -45
0 -55 4 -85 34 -29 29 -34 41 -34 81 0 83 49 134 129 135 37 0 49 -5 82 -39z"/>
<path d="M440 760 c-43 -43 -14 -110 48 -110 56 0 82 70 42 110 -11 11 -31 20
-45 20 -14 0 -34 -9 -45 -20z m68 -22 c30 -30 -4 -77 -41 -57 -29 17 -15 69
18 69 6 0 16 -5 23 -12z"/>
<path d="M120 483 c0 -33 86 -343 99 -356 4 -4 32 -7 61 -5 l54 3 21 70 21 70
20 -70 20 -70 57 -3 c64 -3 62 -5 90 93 10 34 15 42 16 25 2 -36 35 -87 70
-105 36 -18 126 -20 161 -2 13 7 34 27 47 45 l22 33 3 -43 3 -43 50 0 50 0 3
75 c3 78 15 100 54 100 15 0 18 -12 20 -87 l3 -88 50 0 c43 0 50 3 55 23 l5
24 25 -27 c21 -22 32 -26 90 -26 36 -1 82 -1 104 -2 48 -1 66 21 66 78 0 53
-23 75 -77 75 -39 0 -73 -22 -73 -48 0 -21 -15 -13 -39 19 l-23 30 36 46 c20
26 36 57 36 70 0 21 -4 23 -59 23 -49 0 -61 -3 -74 -22 -15 -22 -16 -19 -16
50 l-1 72 -55 0 -55 0 0 -44 0 -43 -46 -7 c-26 -3 -66 -6 -90 -6 l-44 0 0 -42
0 -43 -20 32 c-10 18 -33 39 -49 48 -41 21 -119 19 -165 -4 -34 -18 -37 -18
-31 -3 3 9 9 39 12 65 l6 48 -59 -3 -59 -3 -21 -80 -21 -80 -16 55 c-9 30 -19
67 -22 83 -7 25 -11 27 -60 27 -49 0 -53 -2 -60 -27 -3 -16 -13 -53 -22 -83
l-16 -55 -21 80 -21 80 -57 3 c-58 3 -58 3 -58 -25z m123 -120 c17 -68 34
-117 38 -110 3 6 19 63 35 125 28 112 29 112 59 112 30 0 31 0 59 -112 16 -62
32 -119 36 -126 3 -7 20 42 37 110 l30 123 38 3 c28 3 36 0 33 -10 -3 -7 -25
-84 -49 -170 l-44 -158 -40 0 -40 0 -30 112 -29 113 -18 -60 c-10 -33 -23 -84
-29 -112 l-12 -53 -41 0 -41 0 -44 158 c-24 86 -46 163 -49 170 -3 10 5 13 33
10 l38 -3 30 -122z m905 22 c-2 -58 -3 -105 -3 -105 1 0 19 25 41 55 36 50 42
55 78 55 29 0 36 -3 29 -12 -5 -7 -27 -34 -48 -61 -43 -54 -45 -44 34 -129
l35 -38 -42 0 c-38 0 -44 4 -83 55 -23 30 -43 55 -44 55 -2 0 -1 -25 2 -55 l6
-55 -37 0 -36 0 0 170 0 170 36 0 36 0 -4 -105z m-359 -3 c40 -21 71 -73 71
-118 0 -43 -38 -96 -82 -112 -130 -50 -237 111 -137 205 47 45 95 53 148 25z
m251 -22 c0 -35 -3 -40 -24 -40 -38 0 -49 -23 -47 -100 l2 -70 -36 0 -35 0 0
120 0 120 34 0 c30 0 34 -3 29 -22 -4 -20 -3 -21 9 -7 14 16 48 38 61 39 4 0
7 -18 7 -40z m382 -127 c22 -20 24 -66 3 -83 -19 -16 -61 -16 -80 0 -33 28 -6
100 38 100 11 0 29 -7 39 -17z"/>
<path d="M700 327 c-20 -10 -26 -21 -28 -54 -3 -36 1 -44 22 -59 32 -20 70
-12 91 20 37 57 -24 124 -85 93z m54 -33 c19 -19 20 -25 3 -48 -9 -13 -20 -16
-34 -12 -29 9 -37 35 -17 57 21 23 28 24 48 3z"/>
<path d="M1368 232 c-23 -5 -34 -48 -18 -67 31 -38 93 1 71 44 -12 22 -29 29
-53 23z m35 -19 c8 -14 -7 -38 -25 -41 -13 -2 -18 4 -18 23 0 18 5 25 19 25
11 0 22 -3 24 -7z"/>
</g>
</svg>
