<?xml version="1.0" standalone="no"?>
<!DOCTYPE svg PUBLIC "-//W3C//DTD SVG 20010904//EN"
 "http://www.w3.org/TR/2001/REC-SVG-20010904/DTD/svg10.dtd">
<svg version="1.0" xmlns="http://www.w3.org/2000/svg"
 width="256.000000pt" height="256.000000pt" viewBox="0 0 256.000000 256.000000"
 preserveAspectRatio="xMidYMid meet">
<metadata>
Created by potrace 1.16, written by Peter Selinger 2001-2019
</metadata>
<g transform="translate(0.000000,256.000000) scale(0.100000,-0.100000)"
fill="#000000" stroke="none">
<path d="M949 2410 c-187 -34 -391 -127 -534 -243 -178 -145 -324 -372 -379
-587 -34 -133 -38 -170 -20 -170 9 0 14 10 14 28 0 60 53 222 110 337 113 226
278 392 505 505 68 34 163 72 220 87 91 25 115 28 275 28 160 0 183 -3 274
-28 401 -111 706 -417 813 -814 24 -88 27 -115 27 -273 0 -158 -3 -185 -27
-273 -107 -397 -412 -703 -813 -814 -91 -25 -114 -28 -274 -28 -160 0 -184 3
-275 28 -57 15 -152 53 -220 87 -227 113 -392 279 -505 505 -57 115 -110 277
-110 338 0 17 -5 27 -14 27 -18 0 -14 -37 20 -170 34 -134 125 -312 217 -425
145 -177 365 -320 592 -382 93 -26 113 -28 295 -28 183 0 201 2 294 28 401
112 706 416 814 814 24 90 26 113 26 293 0 180 -2 203 -26 293 -108 396 -413
702 -808 813 -83 23 -118 27 -270 29 -96 2 -196 0 -221 -5z"/>
<path d="M897 2214 c-360 -65 -641 -324 -739 -682 -31 -113 -31 -382 0 -496
91 -331 344 -582 672 -666 93 -24 340 -41 340 -23 0 6 -49 13 -112 16 -149 9
-261 37 -384 97 -247 120 -422 333 -491 599 -35 137 -35 315 0 453 68 261 240
474 482 595 122 62 297 103 436 103 33 0 59 4 59 10 0 15 -171 11 -263 -6z"/>
<path d="M1015 2189 c-311 -39 -598 -268 -715 -571 -104 -270 -73 -588 82
-825 131 -200 337 -348 554 -396 97 -22 234 -32 234 -18 0 6 -6 11 -13 11 -7
0 -50 5 -96 10 -369 47 -675 315 -772 675 -31 114 -31 308 0 420 100 371 419
641 804 680 37 4 67 11 67 16 0 11 -48 10 -145 -2z"/>
<path d="M1026 2104 c-315 -68 -553 -295 -637 -609 -31 -114 -31 -326 0 -440
99 -373 428 -624 819 -625 50 0 92 4 92 9 0 4 -48 11 -107 14 -331 18 -591
190 -727 478 -58 122 -71 185 -71 349 0 169 16 235 92 383 132 255 432 437
723 437 40 0 70 4 70 10 0 15 -174 11 -254 -6z"/>
<path d="M1138 2080 c-252 -43 -473 -206 -587 -435 -65 -131 -85 -218 -85
-370 0 -180 35 -301 130 -447 137 -212 359 -342 622 -364 114 -9 106 10 -11
24 -319 39 -575 246 -680 550 -42 122 -49 288 -18 412 82 326 350 567 680 612
50 7 91 16 91 20 0 10 -79 8 -142 -2z"/>
<path d="M1210 2000 c-236 -28 -442 -173 -545 -385 -46 -92 -65 -170 -72 -285
-24 -413 288 -750 694 -750 55 0 93 4 93 10 0 6 -33 10 -78 10 -98 0 -211 28
-311 77 -103 51 -241 187 -294 290 -100 193 -103 442 -9 629 116 230 350 379
606 387 76 2 95 9 54 21 -27 7 -50 6 -138 -4z"/>
<path d="M1190 1955 c-236 -58 -438 -266 -496 -510 -25 -109 -16 -266 23 -376
77 -222 272 -399 488 -444 81 -17 175 -20 175 -5 0 6 -20 10 -43 10 -24 0 -78
9 -119 19 -297 76 -508 337 -512 631 -1 118 14 179 70 298 75 156 215 279 386
339 40 14 103 28 141 31 37 2 67 9 67 13 0 13 -117 9 -180 -6z"/>
<path d="M1226 1864 c-360 -87 -542 -510 -369 -854 72 -142 207 -249 369 -290
77 -20 224 -27 224 -11 0 4 -39 11 -87 14 -153 10 -273 65 -378 171 -116 116
-165 235 -165 396 0 104 19 181 66 270 89 170 273 287 472 298 45 2 82 8 82
13 0 14 -148 9 -214 -7z"/>
<path d="M1286 1834 c-187 -45 -351 -209 -401 -401 -19 -74 -19 -213 0 -288
37 -141 158 -292 285 -353 68 -34 178 -62 243 -62 65 0 40 16 -45 28 -172 24
-330 136 -410 288 -86 163 -88 315 -5 483 43 89 151 197 237 239 72 35 167 62
217 62 18 0 33 5 33 10 0 14 -84 11 -154 -6z"/>
<path d="M1310 1657 c-157 -37 -248 -135 -271 -291 -12 -85 3 -191 36 -255 31
-62 103 -125 168 -148 71 -25 249 -24 330 0 l57 18 0 178 0 179 -31 6 c-17 3
-64 6 -104 6 -40 0 -87 -3 -104 -6 -30 -6 -31 -8 -31 -60 l0 -54 65 0 65 0 0
-80 0 -79 -36 -7 c-89 -16 -191 24 -235 94 -99 156 -25 346 148 382 46 10 67
9 122 -4 96 -23 97 -23 111 34 6 27 9 54 6 59 -19 30 -209 48 -296 28z m220
-28 c51 -11 51 -11 44 -42 -9 -46 -11 -47 -52 -30 -49 20 -183 14 -232 -11
-48 -25 -88 -64 -113 -111 -32 -58 -32 -212 0 -271 46 -87 118 -125 232 -125
115 0 111 -4 111 112 l0 99 -68 0 -69 0 1 35 1 35 110 0 110 0 0 -159 0 -160
-45 -13 c-26 -7 -95 -13 -160 -13 -106 0 -120 2 -172 28 -77 38 -124 94 -150
180 -61 202 42 402 229 446 54 13 164 13 223 0z"/>
<path d="M1876 1658 c-50 -14 -120 -83 -129 -127 -18 -91 7 -181 61 -218 14
-10 67 -38 117 -63 104 -52 126 -79 106 -127 -25 -62 -115 -81 -200 -43 -64
29 -78 26 -92 -18 -19 -65 -11 -85 46 -104 65 -22 196 -23 258 -2 56 19 113
79 123 129 3 19 4 64 2 99 -6 92 -32 122 -164 186 -111 55 -132 76 -120 124 7
29 52 56 93 56 15 0 49 -7 74 -16 26 -10 53 -15 61 -11 22 8 44 93 29 111 -27
33 -179 46 -265 24z m212 -29 c31 -10 33 -13 26 -42 -8 -41 -9 -42 -41 -29
-113 45 -223 4 -223 -83 0 -50 34 -83 134 -130 94 -44 137 -79 155 -128 25
-67 0 -163 -54 -205 -44 -34 -129 -55 -196 -48 -76 7 -142 34 -135 53 4 8 9
25 12 37 l5 23 38 -19 c124 -61 258 -12 254 94 -3 56 -30 82 -138 133 -98 45
-138 83 -154 143 -41 152 131 260 317 201z"/>
<path d="M2415 1582 c-65 -34 -70 -39 -67 -67 5 -46 15 -49 71 -21 l51 26 0
-275 0 -275 45 0 c25 0 45 5 45 10 0 6 -16 10 -35 10 l-35 0 0 275 c0 270 0
275 -20 275 -12 0 -39 -9 -60 -20 -33 -17 -40 -18 -40 -5 0 18 129 85 165 85
14 0 25 5 25 10 0 23 -77 8 -145 -28z"/>
</g>
</svg>
