<?xml version="1.0" standalone="no"?>
<!DOCTYPE svg PUBLIC "-//W3C//DTD SVG 20010904//EN"
 "http://www.w3.org/TR/2001/REC-SVG-20010904/DTD/svg10.dtd">
<svg version="1.0" xmlns="http://www.w3.org/2000/svg"
 width="192.000000pt" height="192.000000pt" viewBox="0 0 192.000000 192.000000"
 preserveAspectRatio="xMidYMid meet">
<metadata>
Created by potrace 1.16, written by Peter Selinger 2001-2019
</metadata>
<g transform="translate(0.000000,192.000000) scale(0.100000,-0.100000)"
fill="#000000" stroke="none">
<path d="M480 1405 c-50 -14 -107 -41 -130 -61 -8 -8 -32 -28 -52 -46 -21 -18
-38 -38 -38 -45 0 -6 -6 -18 -14 -25 -7 -8 -24 -44 -36 -80 -31 -92 -26 -247
10 -325 13 -29 27 -53 32 -53 4 0 8 -5 8 -10 0 -20 87 -110 106 -110 7 0 19
-6 26 -13 49 -49 220 -70 332 -42 89 22 129 46 194 114 48 50 69 83 85 133 5
14 21 18 94 20 l88 3 3 38 c3 32 0 39 -17 44 -19 5 -21 13 -21 92 0 47 -4 92
-9 100 -7 11 -23 13 -68 8 l-58 -5 -27 53 -27 53 24 6 c23 6 25 12 25 58 0 59
-16 77 -68 78 -42 0 -72 -16 -72 -38 0 -10 -3 -13 -8 -7 -10 15 -91 52 -137
64 -54 15 -189 12 -245 -4z m235 -19 c52 -14 131 -52 141 -67 3 -5 13 -13 23
-19 16 -8 17 -6 13 15 -6 33 14 55 48 55 36 0 52 -21 48 -62 -3 -30 -6 -33
-41 -38 -38 -5 -38 -5 -20 -25 48 -53 83 -156 83 -248 0 -51 -33 -169 -56
-206 -51 -77 -122 -134 -214 -169 -55 -20 -216 -19 -273 3 -26 10 -47 21 -47
25 0 4 -10 10 -22 14 -35 8 -148 125 -148 152 0 5 -8 23 -17 39 -13 23 -17 55
-18 140 0 61 4 119 9 130 5 11 10 22 11 25 36 105 145 204 257 234 68 19 159
19 223 2z m407 -356 l-4 -100 26 0 c21 0 26 -5 26 -25 0 -25 -1 -25 -80 -25
-79 0 -80 0 -80 25 0 21 5 25 30 25 l30 0 0 63 c0 62 0 63 -27 62 -23 0 -28 4
-28 25 0 28 34 50 80 50 l30 0 -3 -100z m-85 -62 c-2 -13 -4 -3 -4 22 0 25 2
35 4 23 2 -13 2 -33 0 -45z"/>
<path d="M486 1351 c2 -2 -18 -14 -44 -26 -27 -12 -67 -40 -90 -62 -23 -22
-44 -38 -47 -36 -3 1 -3 0 0 -3 2 -4 -8 -30 -23 -58 -25 -47 -27 -60 -27 -166
0 -106 2 -119 27 -165 31 -56 91 -122 134 -146 40 -23 131 -49 171 -49 29 0
33 3 33 25 0 16 6 25 15 25 9 0 15 9 15 21 0 11 7 27 16 36 8 9 13 21 10 28
-3 8 2 16 10 19 27 10 16 46 -18 59 -33 12 -33 12 32 20 76 8 86 9 165 1 52
-5 63 -3 83 16 45 42 19 147 -37 151 -9 1 -3 4 13 8 21 4 32 14 37 33 10 39
-17 60 -82 61 -45 1 -55 -3 -75 -27 -16 -18 -24 -22 -24 -12 0 22 -32 36 -87
37 -44 1 -46 1 -20 11 19 7 27 17 27 34 0 15 -6 24 -16 24 -11 0 -14 6 -9 20
4 13 1 22 -9 26 -9 3 -16 17 -16 30 0 13 -6 24 -13 24 -8 0 -13 10 -13 23 1
21 -3 22 -71 22 -39 0 -70 -2 -67 -4z m114 -20 c-14 -5 -51 -16 -82 -25 -74
-22 -147 -87 -184 -164 -55 -113 -34 -260 51 -360 38 -45 120 -90 178 -98 26
-4 47 -11 47 -17 0 -15 -78 1 -137 28 -110 50 -184 154 -199 277 -21 178 142
367 316 367 32 -1 33 -1 10 -8z m25 -51 c-11 -4 -39 -13 -62 -19 -58 -16 -135
-88 -163 -153 -18 -43 -22 -65 -18 -123 5 -76 21 -115 71 -171 35 -41 117 -84
160 -84 15 0 27 -5 27 -11 0 -8 -12 -9 -37 -4 -197 36 -304 230 -225 407 39
87 153 167 237 167 25 0 27 -2 10 -9z m30 -50 c-3 -5 -15 -10 -26 -10 -59 0
-146 -78 -168 -149 -37 -126 42 -268 161 -287 21 -4 38 -10 38 -15 0 -28 -115
16 -161 62 -49 49 -71 100 -71 169 0 98 49 176 137 216 51 24 101 32 90 14z
m30 -50 c-3 -5 -16 -10 -29 -10 -34 0 -88 -40 -113 -85 -55 -98 2 -229 110
-252 15 -3 27 -9 27 -14 0 -28 -96 17 -137 64 -76 87 -46 234 59 286 45 22 94
29 83 11z m44 -71 c26 -9 29 -14 20 -26 -9 -9 -15 -11 -23 -3 -19 19 -64 11
-85 -16 -44 -56 -10 -148 53 -142 27 3 31 7 34 36 3 29 1 32 -23 32 -41 0 -24
23 18 24 l37 1 0 -52 c0 -50 -1 -52 -35 -63 -73 -24 -135 23 -135 104 0 50 20
87 55 102 37 16 44 17 84 3z m196 -2 c27 -21 11 -38 -24 -24 -35 13 -61 4 -61
-23 0 -15 12 -26 44 -40 54 -23 73 -52 57 -86 -6 -14 -22 -29 -35 -34 -38 -14
-126 16 -98 34 5 3 23 0 41 -7 23 -8 36 -9 49 -1 31 20 20 46 -33 73 -42 22
-50 31 -53 58 -2 23 3 35 20 47 28 20 68 21 93 3z m-362 -81 c-3 -25 0 -59 6
-78 8 -23 8 -29 0 -21 -14 14 -23 85 -15 117 10 40 14 31 9 -18z m217 29 c0
-10 -15 -15 -57 -17 -55 -3 -58 -4 -64 -33 -5 -24 -7 -26 -8 -7 0 13 4 32 10
43 9 17 17 19 53 14 28 -5 46 -3 50 4 10 15 16 14 16 -4z m45 -73 c19 -11 18
-11 -7 -12 -22 0 -28 5 -28 23 0 12 3 17 8 11 4 -6 16 -16 27 -22z m-134 -30
c-7 -2 -18 1 -23 6 -8 8 -4 9 13 5 13 -4 18 -8 10 -11z m184 0 c-3 -3 -11 0
-18 7 -9 10 -8 11 6 5 10 -3 15 -9 12 -12z"/>
<path d="M998 764 c-5 -4 -8 -45 -8 -91 l0 -83 73 -1 c229 -5 627 -5 655 -1
l32 4 0 68 c0 74 -5 80 -61 80 -19 0 -29 5 -29 15 0 12 -13 15 -55 15 -42 0
-55 -3 -55 -15 0 -13 -29 -15 -199 -15 -147 0 -200 3 -203 12 -5 14 -138 25
-150 12z m131 -33 c5 -8 60 -11 177 -12 269 0 264 -1 264 16 0 10 11 15 35 15
24 0 35 -5 35 -15 0 -10 10 -15 29 -15 53 0 61 -8 61 -61 0 -42 -3 -49 -20
-50 -11 0 -85 -1 -165 -1 -273 0 -255 -2 -256 30 l-2 27 -4 -28 c-4 -24 -9
-28 -31 -26 -15 2 -32 0 -37 -3 -6 -4 -55 -4 -108 -1 l-97 6 0 62 c0 34 3 65
8 69 11 12 103 1 111 -13z"/>
<path d="M1611 714 c0 -11 3 -14 6 -6 3 7 2 16 -1 19 -3 4 -6 -2 -5 -13z"/>
<path d="M1332 650 c0 -14 2 -19 5 -12 2 6 2 18 0 25 -3 6 -5 1 -5 -13z"/>
<path d="M1540 655 c0 -8 5 -15 10 -15 6 0 10 7 10 15 0 8 -4 15 -10 15 -5 0
-10 -7 -10 -15z"/>
</g>
</svg>
