<?xml version="1.0" standalone="no"?>
<!DOCTYPE svg PUBLIC "-//W3C//DTD SVG 20010904//EN"
 "http://www.w3.org/TR/2001/REC-SVG-20010904/DTD/svg10.dtd">
<svg version="1.0" xmlns="http://www.w3.org/2000/svg"
 width="192.000000pt" height="192.000000pt" viewBox="0 0 192.000000 192.000000"
 preserveAspectRatio="xMidYMid meet">
<metadata>
Created by potrace 1.16, written by Peter Selinger 2001-2019
</metadata>
<g transform="translate(0.000000,192.000000) scale(0.100000,-0.100000)"
fill="#000000" stroke="none">
<path d="M670 1680 c-174 -32 -338 -131 -452 -270 -203 -249 -221 -608 -44
-875 130 -195 312 -307 547 -337 268 -33 557 98 708 322 38 57 49 79 86 171
100 251 30 571 -171 773 -98 100 -209 165 -339 201 -69 19 -268 28 -335 15z
m304 -40 c254 -67 455 -260 531 -510 26 -87 31 -221 11 -320 -20 -100 -86
-241 -147 -315 -97 -117 -245 -213 -389 -251 -80 -21 -253 -24 -330 -5 -141
34 -266 108 -368 215 -80 84 -133 174 -170 284 -36 109 -38 283 -4 392 77 247
252 423 493 499 83 26 97 28 205 30 63 1 114 -5 168 -19z"/>
<path d="M622 1600 c-143 -38 -273 -125 -364 -245 -98 -128 -133 -239 -133
-415 0 -111 3 -135 29 -214 87 -265 334 -456 595 -460 72 -1 76 0 79 22 4 24
6 23 -93 46 -181 41 -340 162 -422 322 -24 45 -49 107 -58 140 -19 75 -19 213
0 289 61 238 261 424 505 469 60 11 65 14 68 39 l3 27 -68 -1 c-37 0 -101 -9
-141 -19z m194 -9 c-3 -4 -32 -11 -65 -14 -124 -13 -242 -72 -347 -172 -80
-78 -127 -152 -165 -267 -30 -88 -31 -99 -27 -213 6 -137 26 -210 88 -315 93
-158 261 -275 435 -303 85 -13 104 -33 23 -23 -169 22 -297 84 -414 200 -138
137 -197 288 -190 486 3 80 10 122 29 178 74 213 247 371 469 431 75 20 173
28 164 12z"/>
<path d="M775 1518 c-134 -18 -237 -69 -335 -168 -193 -194 -223 -505 -69
-735 28 -41 76 -96 107 -122 95 -77 239 -133 344 -133 46 0 48 1 48 29 0 27
-3 29 -59 40 -175 34 -335 174 -397 347 -48 132 -40 252 26 389 69 143 194
244 352 284 64 16 73 22 76 43 4 32 -13 37 -93 26z m85 -23 c0 -10 -10 -15
-34 -15 -54 0 -157 -36 -222 -78 -111 -72 -189 -180 -230 -319 -22 -74 -22
-219 -1 -291 59 -195 230 -352 420 -385 37 -6 67 -15 67 -19 0 -25 -175 18
-263 64 -86 46 -194 155 -235 240 -112 228 -62 489 125 658 89 80 176 122 298
145 39 7 71 14 73 14 1 1 2 -6 2 -14z"/>
<path d="M786 1414 c-132 -32 -262 -137 -320 -259 -59 -125 -59 -300 1 -427
73 -155 241 -268 398 -268 55 0 56 1 53 26 -3 23 -10 29 -57 41 -128 32 -230
114 -293 234 -32 62 -33 68 -33 179 0 104 3 120 27 173 33 70 121 164 186 200
26 14 75 33 110 43 58 16 63 20 60 43 -3 22 -8 26 -38 28 -19 1 -61 -5 -94
-13z m118 -13 c3 -5 -20 -14 -52 -20 -88 -17 -157 -55 -223 -120 -178 -178
-179 -461 -2 -638 62 -62 159 -113 229 -121 50 -5 71 -22 27 -22 -130 1 -309
114 -376 238 -148 273 9 610 317 677 77 17 74 17 80 6z"/>
<path d="M856 1319 c-62 -15 -155 -69 -193 -113 -135 -155 -129 -398 13 -540
67 -66 140 -99 223 -100 61 -1 66 1 69 21 3 18 -4 24 -40 33 -104 28 -190 97
-240 192 -18 35 -23 59 -23 128 0 75 4 92 29 143 45 88 139 161 234 182 29 6
33 11 30 33 -2 22 -8 27 -33 29 -16 1 -47 -3 -69 -8z m94 -18 c0 -5 -17 -12
-37 -16 -107 -19 -200 -91 -250 -193 -24 -50 -28 -69 -28 -147 0 -76 4 -99 26
-146 15 -31 43 -75 64 -97 41 -46 143 -102 186 -102 15 0 31 -5 35 -12 13 -21
-87 0 -153 32 -212 104 -264 390 -103 564 52 56 95 83 168 107 64 20 92 23 92
10z"/>
<path d="M905 1191 c-113 -29 -169 -114 -168 -253 0 -121 70 -215 172 -234 49
-10 159 10 190 34 25 19 26 22 26 133 l0 114 -42 9 c-23 5 -66 5 -96 2 -59 -8
-70 -22 -57 -76 5 -21 12 -25 48 -28 42 -3 43 -4 40 -35 -6 -63 -99 -59 -139
7 -23 37 -25 115 -5 154 31 60 80 82 128 58 46 -23 82 -20 97 8 19 35 10 68
-24 87 -35 20 -127 31 -170 20z m143 -41 c47 -21 49 -26 26 -51 -14 -16 -19
-16 -38 -4 -11 8 -39 17 -61 20 -32 5 -47 2 -74 -17 -52 -35 -73 -77 -72 -149
0 -127 82 -195 190 -158 30 11 31 13 31 70 l0 59 -51 0 c-47 0 -50 2 -47 23 3
20 9 22 76 25 l72 3 0 -99 0 -100 -49 -21 c-130 -56 -250 5 -281 142 -40 182
118 330 278 257z"/>
<path d="M1243 1181 c-51 -24 -73 -63 -73 -128 1 -78 30 -111 132 -152 69 -28
86 -44 68 -66 -17 -21 -69 -19 -105 5 -40 27 -69 25 -89 -5 -40 -60 -5 -103
102 -126 71 -14 139 2 178 42 23 24 29 40 32 92 4 57 2 66 -24 96 -16 19 -58
47 -101 66 -56 26 -73 39 -73 54 0 28 40 37 78 17 62 -32 117 -7 110 50 -7 62
-150 95 -235 55z m176 -31 l44 -20 -19 -23 c-10 -12 -20 -24 -21 -26 -2 -2
-11 3 -21 12 -10 9 -35 19 -57 22 -32 6 -46 2 -68 -15 -51 -41 -28 -83 67
-121 87 -35 116 -66 116 -123 0 -26 -7 -57 -16 -71 -16 -25 -80 -55 -117 -55
-30 0 -106 26 -132 46 -19 14 -19 14 2 35 l21 21 30 -22 c67 -50 166 -22 160
44 -3 28 -11 35 -87 72 -46 22 -92 51 -102 63 -21 26 -25 91 -8 122 30 57 128
75 208 39z"/>
<path d="M1673 1146 c-44 -18 -53 -25 -53 -47 0 -37 8 -40 51 -19 21 11 43 20
49 20 6 0 10 -56 10 -161 l0 -161 -55 4 c-54 3 -55 3 -55 -24 l0 -28 131 0
130 0 -3 27 c-3 24 -7 27 -46 27 l-44 1 2 193 1 192 -33 -1 c-18 -1 -57 -11
-85 -23z m87 -22 c0 -8 -4 -12 -10 -9 -5 3 -10 10 -10 16 0 5 5 9 10 9 6 0 10
-7 10 -16z"/>
</g>
</svg>
