<?xml version="1.0" standalone="no"?>
<!DOCTYPE svg PUBLIC "-//W3C//DTD SVG 20010904//EN"
 "http://www.w3.org/TR/2001/REC-SVG-20010904/DTD/svg10.dtd">
<svg version="1.0" xmlns="http://www.w3.org/2000/svg"
 width="180.000000pt" height="180.000000pt" viewBox="0 0 180.000000 180.000000"
 preserveAspectRatio="xMidYMid meet">
<metadata>
Created by potrace 1.16, written by Peter Selinger 2001-2019
</metadata>
<g transform="translate(0.000000,180.000000) scale(0.100000,-0.100000)"
fill="#000000" stroke="none">
<path d="M665 1505 c-191 -42 -344 -161 -425 -330 -46 -96 -60 -159 -60 -268
0 -156 53 -288 162 -402 117 -124 245 -183 413 -192 74 -4 117 -1 165 11 283
71 470 304 470 584 0 180 -50 301 -175 427 -60 61 -99 90 -155 117 -127 62
-268 81 -395 53z m302 -45 c272 -95 445 -384 389 -650 -45 -214 -211 -391
-425 -454 -69 -20 -209 -21 -285 -1 -252 66 -441 304 -440 555 0 263 188 497
454 565 78 20 228 13 307 -15z"/>
<path d="M683 1459 c-116 -20 -221 -78 -310 -171 -174 -185 -191 -490 -39
-703 94 -130 270 -224 424 -225 41 0 43 1 40 27 -3 24 -9 28 -64 39 -93 19
-180 68 -254 143 -73 74 -112 139 -135 226 -43 167 6 336 135 465 74 74 164
123 261 143 58 12 64 15 64 37 0 22 -5 25 -35 27 -19 0 -59 -3 -87 -8z m107
-17 c0 -4 -29 -13 -65 -19 -251 -43 -441 -287 -421 -543 12 -170 102 -321 242
-410 56 -35 160 -70 210 -70 19 0 34 -5 34 -11 0 -17 -97 -3 -174 25 -167 60
-299 200 -341 361 -19 73 -19 203 -1 270 38 144 144 274 278 339 88 44 238 80
238 58z"/>
<path d="M723 1375 c-162 -36 -285 -141 -340 -291 -98 -272 48 -557 322 -629
33 -8 77 -15 98 -15 36 0 38 2 35 27 -3 23 -10 28 -53 38 -126 28 -240 122
-299 245 -28 59 -31 74 -31 165 0 94 2 105 34 169 59 121 191 224 307 242 41
6 45 9 42 33 -4 32 -27 35 -115 16z m107 -14 c0 -5 -22 -11 -49 -15 -27 -4
-81 -22 -119 -41 -222 -112 -306 -385 -185 -607 58 -106 192 -202 302 -215 51
-6 72 -23 29 -23 -85 1 -221 64 -294 136 -146 147 -175 368 -71 546 34 59 122
140 187 173 69 35 200 65 200 46z"/>
<path d="M760 1296 c-153 -43 -255 -156 -282 -316 -39 -227 118 -440 339 -458
62 -5 63 -4 63 21 0 22 -7 27 -70 46 -130 40 -235 167 -247 299 -14 150 96
303 250 351 54 16 62 22 65 45 3 24 1 26 -35 25 -21 0 -58 -6 -83 -13z m110
-15 c0 -4 -20 -11 -45 -14 -136 -19 -260 -147 -286 -296 -32 -180 97 -376 266
-406 62 -11 79 -27 23 -22 -65 6 -169 57 -221 109 -24 24 -57 71 -73 104 -26
53 -29 69 -29 154 0 83 4 103 28 155 30 63 90 132 145 167 62 38 192 72 192
49z"/>
<path d="M808 1216 c-142 -39 -226 -168 -216 -331 10 -153 121 -269 270 -282
57 -6 58 -5 58 20 0 22 -7 28 -54 41 -71 21 -146 88 -176 158 -55 128 18 283
156 333 27 9 55 19 62 21 7 2 12 14 10 26 -4 28 -41 33 -110 14z m92 -16 c0
-5 -10 -10 -22 -10 -40 0 -122 -45 -160 -88 -90 -100 -100 -235 -27 -346 36
-53 108 -104 161 -113 41 -6 62 -23 29 -23 -43 0 -132 43 -173 83 -61 59 -82
107 -86 199 -4 66 -1 84 21 130 29 62 75 111 131 140 68 35 126 48 126 28z"/>
<path d="M825 1104 c-73 -38 -99 -95 -93 -208 4 -83 19 -114 78 -153 45 -31
143 -32 201 -3 l40 21 -3 97 -3 97 -80 0 -80 0 -3 -42 -3 -43 40 0 c34 0 41
-3 41 -20 0 -25 -35 -44 -66 -36 -33 9 -64 62 -64 110 0 30 7 45 35 73 36 36
40 37 102 12 28 -11 34 -11 52 6 32 28 27 62 -11 85 -41 25 -139 27 -183 4z
m161 -24 c26 -10 29 -17 15 -39 -6 -10 -13 -11 -29 -2 -11 6 -39 11 -62 11
-56 0 -96 -39 -105 -103 -16 -107 57 -186 144 -156 29 10 31 14 31 59 l0 47
-37 -1 c-28 -1 -38 3 -41 17 -3 15 5 17 60 17 l63 0 -3 -79 -3 -80 -47 -15
c-59 -20 -78 -20 -129 4 -162 73 -88 360 86 334 18 -3 44 -9 57 -14z"/>
<path d="M1109 1091 c-25 -25 -29 -37 -29 -83 0 -70 17 -93 96 -129 67 -29 76
-42 46 -58 -14 -7 -29 -5 -55 9 -64 35 -97 19 -97 -45 0 -53 140 -85 215 -50
40 19 55 51 55 114 0 58 -20 82 -95 115 -58 26 -73 42 -56 59 8 8 20 6 46 -6
64 -30 95 -15 95 47 0 37 -44 56 -125 56 -60 0 -69 -3 -96 -29z m161 -7 c43
-17 48 -25 26 -43 -11 -9 -22 -8 -49 5 -52 25 -92 9 -92 -37 0 -32 4 -36 67
-66 80 -39 103 -68 94 -118 -9 -48 -47 -75 -107 -75 -45 0 -119 25 -119 41 0
3 7 12 15 19 11 9 19 8 37 -4 26 -19 99 -21 116 -4 7 7 12 25 12 40 0 25 -8
32 -73 62 -71 34 -97 61 -97 101 0 30 26 68 55 81 40 18 67 17 115 -2z"/>
<path d="M1282 1468 c-46 -22 -37 -101 13 -114 36 -9 75 19 75 54 0 52 -43 81
-88 60z m61 -29 c17 -23 11 -58 -9 -66 -8 -3 -25 -2 -39 1 -19 5 -25 13 -25
34 0 51 46 70 73 31z"/>
<path d="M1290 1408 c0 -23 3 -29 9 -19 5 7 13 11 19 7 11 -7 25 21 16 35 -3
5 -14 9 -25 9 -15 0 -19 -7 -19 -32z m30 12 c0 -5 -2 -10 -4 -10 -3 0 -8 5
-11 10 -3 6 -1 10 4 10 6 0 11 -4 11 -10z"/>
<path d="M1490 1079 c-55 -25 -53 -23 -45 -48 5 -18 8 -19 40 -5 19 8 37 14
40 14 3 0 5 -58 5 -129 l0 -129 -45 6 c-42 4 -45 3 -45 -19 0 -24 1 -24 107
-23 98 2 108 4 108 20 0 15 -8 19 -38 19 l-37 0 0 158 c0 156 0 157 -22 156
-13 0 -43 -9 -68 -20z"/>
</g>
</svg>
