<?xml version="1.0" standalone="no"?>
<!DOCTYPE svg PUBLIC "-//W3C//DTD SVG 20010904//EN"
 "http://www.w3.org/TR/2001/REC-SVG-20010904/DTD/svg10.dtd">
<svg version="1.0" xmlns="http://www.w3.org/2000/svg"
 width="73.000000pt" height="61.000000pt" viewBox="0 0 73.000000 61.000000"
 preserveAspectRatio="xMidYMid meet">
<metadata>
Created by potrace 1.16, written by Peter Selinger 2001-2019
</metadata>
<g transform="translate(0.000000,61.000000) scale(0.100000,-0.100000)"
fill="#000000" stroke="none">
<path d="M250 591 c-51 -11 -111 -44 -146 -83 -134 -141 -98 -356 75 -445 53
-28 74 -33 131 -33 130 0 240 83 276 207 36 125 -26 267 -146 328 -50 26 -137
37 -190 26z m60 -31 c0 -5 -11 -10 -25 -10 -39 0 -121 -46 -150 -83 -75 -99
-70 -231 14 -320 29 -32 66 -54 126 -74 l40 -13 -44 5 c-115 15 -209 124 -211
244 0 66 19 117 63 167 43 49 83 74 137 85 51 10 50 10 50 -1z m92 -9 c41 -16
107 -70 123 -101 l16 -30 -40 0 c-22 0 -43 -5 -46 -10 -4 -7 -12 -7 -25 0 -10
5 -28 10 -39 10 -16 0 -21 6 -21 25 0 58 -107 29 -150 -41 -61 -98 -9 -228
101 -254 l34 -8 -31 -1 c-59 -2 -136 72 -150 144 -15 83 45 174 130 197 41 11
46 15 46 40 0 15 -4 28 -10 28 -5 0 -10 5 -10 11 0 11 27 8 72 -10z m-87 -31
c-11 -4 -34 -13 -51 -20 -41 -15 -93 -66 -110 -107 -31 -72 -8 -180 49 -232
15 -13 50 -32 79 -42 31 -11 44 -18 30 -19 -33 0 -93 27 -125 58 -88 83 -90
230 -5 309 28 27 106 63 133 62 l20 0 -20 -9z m8 -89 c-53 -25 -75 -58 -75
-117 0 -56 23 -91 76 -118 20 -10 35 -20 32 -23 -3 -3 -22 3 -43 13 -73 36
-104 124 -68 195 18 33 69 69 100 69 13 0 5 -7 -22 -19z m81 -37 c29 -11 16
-25 -17 -19 -43 8 -67 -14 -67 -60 0 -25 6 -39 24 -50 29 -19 56 -10 56 20 0
19 -4 22 -21 18 -15 -4 -20 -2 -18 6 3 7 8 12 12 12 4 -1 16 -1 27 -1 17 0 20
-7 20 -39 0 -35 -3 -40 -28 -46 -44 -9 -78 9 -91 48 -25 75 33 138 103 111z
m140 0 c29 -11 17 -23 -21 -21 -52 3 -55 -22 -6 -48 28 -15 38 -26 38 -45 0
-35 -40 -56 -79 -41 -21 8 -26 15 -19 22 7 7 17 8 30 1 19 -11 53 1 53 18 0 5
-18 19 -40 30 -29 15 -40 27 -40 43 0 40 38 59 84 41z m26 -54 c0 -5 -2 -10
-4 -10 -3 0 -8 5 -11 10 -3 6 -1 10 4 10 6 0 11 -4 11 -10z m-49 -130 c29 0
23 -16 -21 -64 -56 -60 -170 -111 -170 -76 0 6 4 10 8 10 12 0 36 105 28 118
-8 14 36 21 93 16 24 -2 52 -4 62 -4z"/>
<path d="M534 565 c-8 -21 2 -45 19 -45 21 0 38 25 31 44 -8 20 -43 21 -50 1z
m42 -13 c1 -7 0 -8 -3 -2 -8 17 -25 11 -18 -7 5 -14 3 -15 -6 -6 -13 13 -3 36
14 30 6 -2 12 -9 13 -15z"/>
<path d="M638 393 c-10 -2 -18 -11 -18 -19 0 -11 6 -13 20 -9 18 6 20 2 20
-53 0 -55 -2 -60 -20 -55 -14 4 -20 0 -20 -11 0 -13 11 -16 50 -16 38 0 50 4
50 15 0 10 -7 15 -17 13 -16 -3 -18 6 -18 70 0 75 -1 77 -47 65z"/>
</g>
</svg>
