<?xml version="1.0" standalone="no"?>
<!DOCTYPE svg PUBLIC "-//W3C//DTD SVG 20010904//EN"
 "http://www.w3.org/TR/2001/REC-SVG-20010904/DTD/svg10.dtd">
<svg version="1.0" xmlns="http://www.w3.org/2000/svg"
 width="100.000000pt" height="100.000000pt" viewBox="0 0 100.000000 100.000000"
 preserveAspectRatio="xMidYMid meet">
<metadata>
Created by potrace 1.16, written by Peter Selinger 2001-2019
</metadata>
<g transform="translate(0.000000,100.000000) scale(0.100000,-0.100000)"
fill="#000000" stroke="none">
<path d="M0 930 c0 -7 173 -10 500 -10 327 0 500 3 500 10 0 7 -173 10 -500
10 -327 0 -500 -3 -500 -10z"/>
<path d="M275 880 c-19 -8 -19 -9 2 -9 16 -1 20 -6 16 -21 -7 -25 -40 -26 -46
-2 -4 16 -5 16 -6 0 -1 -14 -10 -18 -36 -18 -32 0 -35 -2 -35 -30 0 -27 -3
-30 -30 -30 -27 0 -30 -3 -30 -34 0 -24 -5 -36 -18 -39 -16 -4 -16 -5 1 -6 10
-1 17 -9 17 -21 0 -15 -7 -20 -25 -20 -14 0 -25 6 -25 13 0 8 -4 7 -10 -3 -5
-8 -10 -79 -10 -157 l0 -143 35 0 34 0 3 -62 c3 -60 4 -63 30 -66 21 -3 27 -9
30 -30 3 -25 6 -27 61 -30 31 -2 57 -7 57 -12 0 -6 -60 -10 -145 -10 -90 0
-145 -4 -145 -10 0 -7 173 -10 500 -10 327 0 500 3 500 10 0 6 -97 10 -270 10
-226 0 -270 2 -270 14 0 8 6 17 13 19 9 4 9 6 0 6 -7 1 -13 12 -13 25 0 13 6
27 13 29 10 4 10 6 0 6 -15 1 -18 41 -3 41 6 0 10 5 10 10 0 6 -6 10 -14 10
-9 0 -12 8 -8 25 3 16 11 25 23 25 17 0 19 -9 20 -77 1 -88 16 -67 18 25 l1
52 125 0 125 0 0 30 c0 27 3 30 31 30 30 0 30 1 27 48 -3 43 -5 47 -30 50 -31
4 -38 28 -10 35 16 4 16 5 0 6 -26 2 -26 71 0 72 12 0 10 3 -8 10 -14 6 -63
10 -110 9 -161 -3 -150 -7 -151 48 -2 84 -17 105 -18 25 -1 -66 -3 -73 -21
-73 -23 0 -28 34 -7 44 10 5 10 7 0 12 -7 3 -13 14 -13 24 0 10 6 21 13 23 10
4 10 6 0 6 -7 1 -13 12 -13 25 0 13 6 27 13 29 10 4 10 6 0 6 -7 1 -13 11 -13
24 0 13 -5 28 -12 35 -14 14 -142 15 -173 2z m165 -130 l0 -120 -35 0 c-33 0
-35 -2 -35 -35 0 -19 -4 -35 -10 -35 -5 0 -10 -22 -10 -50 0 -27 5 -50 10 -50
6 0 10 23 10 50 l0 50 35 0 35 0 0 -60 0 -60 -35 0 -35 0 0 -91 c0 -64 3 -88
11 -83 7 4 10 27 7 60 -5 54 -4 54 24 54 l28 0 0 -115 0 -115 -35 0 c-19 0
-35 5 -35 10 0 6 11 10 24 10 14 0 28 5 31 10 4 6 -27 10 -84 10 l-91 0 0 30
c0 27 -3 30 -30 30 -27 0 -30 3 -30 30 0 23 4 30 20 30 11 0 20 5 20 10 0 6
-4 10 -10 10 -5 0 -10 7 -10 15 0 8 2 15 4 15 2 0 11 3 20 6 13 5 16 -3 16
-50 0 -42 4 -58 15 -63 19 -7 34 5 19 15 -6 4 -13 15 -17 25 -5 13 -1 17 18
17 24 0 25 -3 25 -57 l0 -57 20 22 c24 25 25 32 5 32 -21 0 -19 16 7 40 l22
20 -27 0 c-24 0 -27 4 -27 35 0 28 4 35 20 35 22 0 27 15 8 23 -10 4 -9 8 2
16 11 8 12 13 3 19 -17 11 -22 192 -5 192 6 0 12 5 12 10 0 6 -9 10 -20 10
-13 0 -20 7 -20 20 0 18 7 20 55 20 33 0 55 4 55 11 0 6 -12 10 -27 9 -60 -4
-63 -2 -63 39 0 22 -4 43 -10 46 -6 4 -10 -15 -10 -49 0 -56 0 -56 -30 -56
-27 0 -30 3 -30 30 0 26 4 30 26 30 15 0 23 4 18 11 -3 6 -15 9 -25 6 -12 -3
-19 0 -19 9 0 8 -4 14 -10 14 -5 0 -10 -18 -10 -40 0 -40 0 -40 -39 -40 -22 0
-43 -4 -46 -10 -4 -6 15 -10 49 -10 56 0 56 0 56 -30 0 -27 3 -30 30 -30 l30
0 0 -125 0 -125 -60 0 -60 0 0 30 c0 27 3 30 30 30 l30 0 0 60 0 60 -30 0
c-28 0 -30 3 -30 35 0 31 -3 35 -25 35 -14 0 -25 -4 -25 -10 0 -5 7 -10 15
-10 9 0 15 -9 15 -25 0 -14 5 -25 10 -25 6 0 10 -25 10 -55 0 -48 -2 -55 -20
-55 -18 0 -20 7 -20 65 l0 65 -35 0 c-19 0 -35 -4 -35 -10 0 -5 11 -10 25 -10
24 0 25 -3 25 -59 l0 -60 -32 -3 c-29 -4 -30 -5 -13 -13 43 -19 46 -45 5 -45
l-30 0 0 125 0 125 35 0 35 0 0 60 0 60 30 0 c27 0 30 3 30 30 l0 30 60 0 60
0 0 30 0 30 65 0 65 0 0 -120z m-140 -90 c0 -5 -7 -10 -15 -10 -8 0 -15 5 -15
10 0 6 7 10 15 10 8 0 15 -4 15 -10z m260 -95 l0 -65 -30 0 c-27 0 -30 3 -30
30 0 27 -3 30 -30 30 -28 0 -30 3 -30 35 l0 35 60 0 60 0 0 -65z m40 40 c0
-14 -4 -25 -10 -25 -5 0 -10 11 -10 25 0 14 5 25 10 25 6 0 10 -11 10 -25z
m150 -100 l0 -125 -65 0 -65 0 0 30 c0 28 3 30 35 30 32 0 35 2 35 30 0 23 4
30 20 30 22 0 27 15 8 24 -10 5 -10 7 0 12 19 9 14 24 -8 24 -16 0 -20 -7 -20
-30 0 -28 -3 -30 -35 -30 l-35 0 0 65 0 65 65 0 65 0 0 -125z m-330 90 c0 -8
-7 -15 -15 -15 -8 0 -15 7 -15 15 0 8 7 15 15 15 8 0 15 -7 15 -15z m180 -55
c0 -11 -4 -20 -10 -20 -5 0 -10 9 -10 20 0 11 5 20 10 20 6 0 10 -9 10 -20z
m-370 -40 c0 -22 -4 -40 -9 -40 -12 0 -18 28 -13 58 7 37 22 25 22 -18z m250
30 c0 -5 -4 -10 -10 -10 -5 0 -10 5 -10 10 0 6 5 10 10 10 6 0 10 -4 10 -10z
m25 -40 c3 -5 15 -10 26 -10 10 0 19 -4 19 -10 0 -5 -20 -10 -44 -10 -35 0
-45 4 -49 20 -4 16 0 20 18 20 13 0 27 -4 30 -10z m115 -20 c0 -27 -3 -30 -30
-30 -27 0 -30 3 -30 30 0 27 3 30 30 30 27 0 30 -3 30 -30z m190 0 c0 -24 -4
-30 -22 -30 -19 0 -23 6 -23 30 0 24 4 30 23 30 18 0 22 -6 22 -30z m-140 0
c0 -5 -7 -10 -15 -10 -8 0 -15 5 -15 10 0 6 7 10 15 10 8 0 15 -4 15 -10z
m-497 -47 c-4 -10 -14 -23 -22 -30 -14 -11 -12 -12 12 -13 24 0 27 -4 27 -35
0 -32 -2 -35 -30 -35 l-30 0 0 65 c0 62 1 65 25 65 19 0 23 -4 18 -17z m387
-13 l0 -30 -60 0 -60 0 0 30 0 30 60 0 60 0 0 -30z m-140 0 c0 -5 -7 -10 -15
-10 -8 0 -15 5 -15 10 0 6 7 10 15 10 8 0 15 -4 15 -10z m180 -10 c0 -11 -4
-20 -10 -20 -5 0 -10 9 -10 20 0 11 5 20 10 20 6 0 10 -9 10 -20z m-310 -55
c0 -8 -4 -15 -10 -15 -5 0 -10 7 -10 15 0 8 5 15 10 15 6 0 10 -7 10 -15z
m-117 -76 c4 -15 0 -19 -19 -19 -19 0 -24 5 -24 24 0 19 4 23 19 19 11 -3 21
-13 24 -24z m60 -60 c4 -15 0 -19 -19 -19 -19 0 -24 5 -24 24 0 19 4 23 19 19
11 -3 21 -13 24 -24z m127 -49 c0 -5 -11 -10 -25 -10 -14 0 -25 5 -25 10 0 6
11 10 25 10 14 0 25 -4 25 -10z"/>
<path d="M370 808 c0 -55 1 -58 25 -58 14 0 25 5 25 10 0 6 -6 10 -14 10 -8 0
-17 7 -20 16 -9 23 -8 24 14 24 11 0 20 5 20 10 0 6 -5 10 -11 10 -7 0 -18 8
-25 18 -12 15 -13 9 -14 -40z"/>
<path d="M210 620 c0 -5 5 -10 10 -10 6 0 10 5 10 10 0 6 -4 10 -10 10 -5 0
-10 -4 -10 -10z"/>
<path d="M241 594 c0 -11 3 -14 6 -6 3 7 2 16 -1 19 -3 4 -6 -2 -5 -13z"/>
<path d="M270 550 c0 -5 5 -10 10 -10 6 0 10 5 10 10 0 6 -4 10 -10 10 -5 0
-10 -4 -10 -10z"/>
<path d="M88 493 c7 -3 16 -2 19 1 4 3 -2 6 -13 5 -11 0 -14 -3 -6 -6z"/>
<path d="M385 490 c3 -5 13 -10 21 -10 8 0 14 5 14 10 0 6 -9 10 -21 10 -11 0
-17 -4 -14 -10z"/>
<path d="M370 230 c0 -11 5 -20 10 -20 6 0 10 5 10 10 0 6 7 10 15 10 8 0 15
5 15 10 0 6 -11 10 -25 10 -18 0 -25 -5 -25 -20z"/>
<path d="M500 595 c0 -8 5 -15 10 -15 6 0 10 7 10 15 0 8 -4 15 -10 15 -5 0
-10 -7 -10 -15z"/>
<path d="M515 550 c3 -5 10 -10 16 -10 5 0 9 5 9 10 0 6 -7 10 -16 10 -8 0
-12 -4 -9 -10z"/>
<path d="M690 595 c0 -8 5 -15 10 -15 6 0 10 7 10 15 0 8 -4 15 -10 15 -5 0
-10 -7 -10 -15z"/>
<path d="M640 550 c0 -5 7 -10 15 -10 8 0 15 5 15 10 0 6 -7 10 -15 10 -8 0
-15 -4 -15 -10z"/>
<path d="M710 450 c0 -5 5 -10 10 -10 6 0 10 5 10 10 0 6 -4 10 -10 10 -5 0
-10 -4 -10 -10z"/>
<path d="M480 410 c0 -5 5 -10 10 -10 6 0 10 5 10 10 0 6 -4 10 -10 10 -5 0
-10 -4 -10 -10z"/>
<path d="M920 535 l0 -115 40 0 c22 0 40 5 40 10 0 6 -13 10 -30 10 l-30 0 0
95 0 95 30 0 c17 0 30 5 30 10 0 6 -18 10 -40 10 l-40 0 0 -115z"/>
<path d="M812 595 c0 -16 2 -22 5 -12 2 9 2 23 0 30 -3 6 -5 -1 -5 -18z"/>
</g>
</svg>
