<?xml version="1.0" standalone="no"?>
<!DOCTYPE svg PUBLIC "-//W3C//DTD SVG 20010904//EN"
 "http://www.w3.org/TR/2001/REC-SVG-20010904/DTD/svg10.dtd">
<svg version="1.0" xmlns="http://www.w3.org/2000/svg"
 width="192.000000pt" height="192.000000pt" viewBox="0 0 192.000000 192.000000"
 preserveAspectRatio="xMidYMid meet">
<metadata>
Created by potrace 1.16, written by Peter Selinger 2001-2019
</metadata>
<g transform="translate(0.000000,192.000000) scale(0.100000,-0.100000)"
fill="#000000" stroke="none">
<path d="M665 1754 c-173 -41 -307 -116 -419 -234 -79 -85 -148 -198 -183
-305 -24 -74 -27 -94 -27 -255 -1 -157 1 -183 22 -250 71 -224 236 -412 437
-497 95 -40 107 -43 198 -58 197 -32 372 -7 539 75 202 100 363 307 412 529
21 95 21 302 1 391 -36 154 -94 257 -214 383 -86 90 -170 144 -301 192 -71 27
-86 28 -260 31 -102 2 -194 1 -205 -2z m445 -49 c131 -48 215 -102 301 -192
163 -170 229 -330 229 -554 0 -220 -69 -394 -219 -552 -129 -136 -277 -209
-478 -238 -103 -14 -239 -2 -342 31 -252 81 -442 273 -523 530 -20 66 -23 94
-22 230 1 139 3 163 27 235 35 107 103 220 183 305 112 118 246 193 419 234
11 3 94 4 185 2 152 -3 171 -5 240 -31z"/>
<path d="M595 1693 c-123 -43 -210 -97 -301 -187 -121 -121 -203 -277 -219
-417 -33 -278 33 -495 203 -672 116 -120 295 -213 447 -231 22 -3 63 -8 90
-11 57 -8 202 15 289 45 247 84 443 298 501 546 23 94 22 298 0 384 -62 242
-237 436 -480 535 -67 27 -78 28 -260 32 -186 3 -192 3 -270 -24z m460 -13
c207 -64 376 -206 469 -393 61 -124 79 -199 80 -327 2 -290 -161 -548 -429
-682 -102 -51 -191 -72 -315 -72 -125 -1 -171 5 -253 33 -243 84 -438 296
-503 546 -23 92 -23 246 1 340 73 286 298 503 590 571 87 20 270 12 360 -16z"/>
<path d="M685 1645 c-259 -57 -471 -265 -531 -520 -23 -99 -21 -259 5 -359 52
-197 206 -377 396 -458 79 -34 199 -60 261 -56 42 3 49 6 52 26 4 24 3 25 -85
41 -132 25 -243 87 -350 197 -150 154 -214 374 -167 574 60 255 276 461 529
504 65 11 70 14 73 39 3 27 3 27 -60 26 -35 0 -90 -7 -123 -14z m165 -15 c0
-5 -16 -10 -36 -10 -59 0 -154 -29 -239 -73 -119 -62 -220 -167 -279 -289 -58
-122 -71 -180 -70 -313 2 -168 52 -301 165 -436 97 -116 296 -219 423 -219 20
0 36 -5 36 -11 0 -8 -17 -10 -57 -5 -288 34 -512 214 -600 481 -22 68 -26 97
-26 200 0 103 4 132 26 200 80 241 273 415 522 470 74 16 135 18 135 5z"/>
<path d="M762 1545 c-110 -24 -207 -79 -291 -164 -121 -121 -174 -252 -174
-426 0 -174 53 -305 173 -426 110 -110 236 -167 385 -172 57 -2 60 -1 60 22 0
21 -8 25 -71 41 -261 67 -437 282 -438 535 -1 257 190 486 449 539 54 11 60
14 60 36 0 23 -4 25 -45 27 -25 1 -73 -4 -108 -12z m138 -15 c0 -5 -13 -10
-28 -10 -44 0 -130 -28 -204 -67 -123 -64 -236 -209 -273 -349 -19 -70 -21
-209 -5 -279 47 -209 234 -389 443 -427 37 -7 67 -16 67 -20 0 -11 -10 -10
-98 8 -158 32 -296 122 -380 249 -201 300 -89 689 244 847 88 41 234 71 234
48z"/>
<path d="M826 1444 c-173 -42 -317 -181 -361 -349 -55 -212 28 -446 197 -558
88 -58 297 -111 299 -76 0 8 2 21 4 31 2 12 -7 18 -40 22 -106 16 -244 111
-308 213 -157 248 -17 585 274 660 50 13 69 22 73 37 3 11 3 23 0 28 -8 12
-71 8 -138 -8z m124 -13 c0 -5 -22 -11 -49 -15 -164 -22 -333 -188 -370 -364
-52 -249 113 -503 360 -554 33 -7 59 -16 59 -20 0 -10 -3 -10 -81 6 -232 50
-390 240 -392 471 -1 225 152 414 380 469 70 17 93 19 93 7z"/>
<path d="M853 1331 c-101 -37 -172 -103 -221 -209 -24 -51 -27 -69 -27 -167 0
-104 2 -114 32 -176 58 -116 167 -197 295 -217 63 -10 74 -6 80 23 2 16 -8 23
-66 42 -163 53 -263 191 -254 349 10 155 127 283 291 318 21 5 27 12 27 31 0
23 -3 25 -52 25 -29 -1 -76 -9 -105 -19z m84 -22 c-116 -33 -195 -100 -245
-208 -23 -47 -27 -70 -27 -146 0 -76 4 -99 27 -147 50 -108 144 -183 259 -210
44 -10 49 -13 26 -16 -73 -9 -212 65 -273 145 -56 73 -77 144 -72 248 5 99 29
161 89 230 61 69 170 125 244 124 38 0 36 -2 -28 -20z"/>
<path d="M929 1207 c-101 -38 -149 -115 -149 -237 0 -41 4 -90 10 -109 35
-123 173 -183 312 -135 75 25 79 34 76 165 l-3 114 -93 3 c-89 3 -92 2 -103
-22 -24 -51 4 -85 69 -86 18 0 22 -5 22 -34 0 -37 -12 -46 -64 -46 -110 0
-150 168 -61 257 36 36 73 42 115 18 55 -32 99 -10 100 51 0 25 -6 33 -37 48
-49 24 -148 30 -194 13z m169 -37 c47 -21 49 -26 27 -50 -15 -16 -18 -16 -53
2 -101 53 -202 -25 -202 -157 0 -130 84 -202 194 -165 36 12 36 12 36 71 l0
59 -50 0 c-47 0 -50 2 -50 25 0 24 2 25 75 25 l75 0 0 -101 0 -100 -46 -21
c-68 -30 -168 -23 -218 15 -57 44 -80 98 -80 187 0 81 20 134 66 177 57 53
151 67 226 33z"/>
<path d="M1304 1206 c-53 -24 -74 -60 -74 -131 0 -82 20 -107 127 -156 73 -33
84 -42 81 -61 -2 -14 -14 -26 -31 -32 -23 -8 -37 -6 -74 14 -61 32 -80 32
-104 -2 -30 -42 -19 -71 38 -100 37 -17 64 -23 118 -23 119 1 169 43 170 146
0 79 -20 104 -128 156 -48 23 -87 48 -87 56 0 36 54 48 100 22 41 -24 74 -19
93 14 25 42 21 57 -19 82 -46 28 -163 37 -210 15z m170 -30 c43 -18 52 -33 32
-55 -16 -18 -18 -18 -54 0 -20 11 -50 19 -67 19 -60 0 -98 -67 -57 -102 9 -9
52 -32 94 -52 84 -40 108 -68 108 -126 0 -72 -59 -120 -147 -120 -47 0 -124
28 -137 49 -8 13 14 51 30 51 6 0 17 -7 24 -15 7 -8 29 -20 50 -26 66 -20 120
7 120 60 0 36 -18 51 -113 94 -67 31 -80 41 -93 73 -37 88 21 164 124 164 29
0 68 -6 86 -14z"/>
</g>
</svg>
