<?xml version="1.0" standalone="no"?>
<!DOCTYPE svg PUBLIC "-//W3C//DTD SVG 20010904//EN"
 "http://www.w3.org/TR/2001/REC-SVG-20010904/DTD/svg10.dtd">
<svg version="1.0" xmlns="http://www.w3.org/2000/svg"
 width="104.000000pt" height="61.000000pt" viewBox="0 0 104.000000 61.000000"
 preserveAspectRatio="xMidYMid meet">
<metadata>
Created by potrace 1.16, written by Peter Selinger 2001-2019
</metadata>
<g transform="translate(0.000000,61.000000) scale(0.100000,-0.100000)"
fill="#000000" stroke="none">
<path d="M60 580 c0 -27 -3 -30 -30 -30 -17 0 -30 -4 -30 -10 0 -5 16 -10 35
-10 33 0 35 -2 29 -25 -4 -15 -2 -25 5 -25 11 0 -4 -37 -20 -50 -3 -3 -11 -15
-18 -28 -7 -12 -16 -20 -22 -17 -5 4 -9 2 -9 -4 0 -5 4 -11 9 -13 4 -1 10 -38
13 -80 4 -61 2 -78 -9 -78 -7 0 -13 -5 -13 -11 0 -7 11 -9 30 -6 21 5 30 3 30
-7 0 -7 9 -21 20 -31 11 -10 20 -24 20 -32 0 -7 7 -13 17 -13 9 0 14 -3 10 -6
-7 -8 17 -34 32 -34 5 0 14 -7 19 -16 6 -11 12 -13 16 -6 4 8 15 8 35 1 16 -6
46 -9 68 -7 42 4 34 9 -42 27 -189 44 -261 279 -128 416 20 21 55 46 77 56 50
21 116 34 116 22 0 -5 -12 -10 -27 -11 -16 -1 -52 -14 -82 -29 -193 -100 -161
-376 51 -441 46 -14 65 -17 70 -8 13 20 9 26 -20 26 -45 0 -127 47 -156 89
-91 130 -10 316 145 337 27 4 49 10 49 15 0 5 -4 9 -9 9 -5 0 -11 10 -13 23
-3 19 -10 22 -59 25 -41 2 -59 -1 -69 -13 -18 -21 -40 -19 -40 5 0 11 -4 20
-10 20 -13 0 -13 -37 0 -45 17 -10 0 -26 -21 -20 -22 7 -47 -4 -31 -14 7 -4 5
-13 -4 -25 -13 -18 -14 -14 -14 42 0 35 -4 62 -10 62 -5 0 -10 -13 -10 -30z"/>
<path d="M640 530 l0 -80 40 0 40 0 0 -120 0 -120 -40 0 c-38 0 -40 -2 -40
-30 0 -29 -1 -30 -50 -30 l-50 0 0 -50 c0 -49 -1 -50 -30 -50 -25 0 -30 -4
-30 -25 0 -14 5 -25 10 -25 6 0 10 7 10 15 0 8 9 15 20 15 11 0 20 -7 20 -15
0 -8 5 -15 10 -15 6 0 10 28 10 65 l0 65 240 0 c153 0 240 4 240 10 0 10 -85
13 -287 10 -88 -1 -93 0 -93 19 0 18 6 21 40 21 l41 0 -3 138 -3 137 -37 3
-38 3 0 70 c0 39 -4 69 -10 69 -6 0 -10 -33 -10 -80z"/>
<path d="M265 501 c-49 -23 -89 -64 -109 -113 -47 -112 25 -249 144 -273 19
-4 41 -12 48 -18 7 -6 12 -6 11 -1 -2 5 5 26 14 48 9 21 17 40 17 43 0 21 33
30 107 27 l81 -2 -2 101 -1 102 -38 9 c-25 7 -48 6 -70 -2 -18 -6 -44 -8 -59
-5 -22 4 -27 12 -32 48 -9 60 -39 69 -111 36z m75 -18 c-88 -31 -130 -71 -145
-140 -16 -80 47 -177 126 -189 21 -4 36 -10 34 -14 -3 -4 -20 -5 -38 -1 -111
26 -172 133 -133 235 25 65 91 117 146 115 15 0 19 -3 10 -6z m-20 -55 c-116
-59 -95 -203 34 -243 10 -3 16 -8 13 -11 -12 -13 -78 19 -107 52 -26 30 -30
43 -30 91 0 51 3 58 39 94 27 27 47 39 67 39 26 0 25 -2 -16 -22z m89 -37 c7
-5 10 -14 6 -21 -5 -8 -10 -9 -18 -1 -29 29 -77 -5 -77 -54 0 -38 16 -55 52
-55 21 0 28 5 28 20 0 13 -7 20 -20 20 -11 0 -20 5 -20 10 0 6 14 10 30 10 28
0 30 -2 30 -40 0 -37 -2 -39 -34 -45 -58 -11 -96 25 -96 91 0 52 75 93 119 65z
m135 3 c8 -3 12 -12 9 -19 -4 -11 -9 -11 -23 -3 -9 6 -25 8 -34 5 -27 -11 -18
-35 19 -48 54 -20 62 -82 13 -94 -27 -7 -78 9 -78 24 0 5 19 9 43 8 53 -2 57
18 7 42 -26 12 -36 23 -38 45 -5 40 33 59 82 40z"/>
<path d="M0 460 c0 -5 11 -10 24 -10 14 0 28 5 31 10 4 6 -7 10 -24 10 -17 0
-31 -4 -31 -10z"/>
<path d="M0 120 c0 -5 13 -10 30 -10 28 0 30 -2 30 -40 l0 -40 40 0 c29 0 40
-4 40 -15 0 -8 5 -15 10 -15 6 0 10 11 10 25 0 23 -4 25 -40 25 l-40 0 0 40 0
40 -40 0 c-22 0 -40 -4 -40 -10z"/>
</g>
</svg>
