<?xml version="1.0" standalone="no"?>
<!DOCTYPE svg PUBLIC "-//W3C//DTD SVG 20010904//EN"
 "http://www.w3.org/TR/2001/REC-SVG-20010904/DTD/svg10.dtd">
<svg version="1.0" xmlns="http://www.w3.org/2000/svg"
 width="250.000000pt" height="250.000000pt" viewBox="0 0 250.000000 250.000000"
 preserveAspectRatio="xMidYMid meet">
<metadata>
Created by potrace 1.16, written by Peter Selinger 2001-2019
</metadata>
<g transform="translate(0.000000,250.000000) scale(0.100000,-0.100000)"
fill="#000000" stroke="none">
<path d="M1185 2354 c-368 -32 -670 -208 -865 -505 -31 -48 -66 -108 -76 -133
-14 -35 -27 -49 -49 -56 -17 -6 -47 -24 -67 -40 -31 -26 -39 -41 -53 -102 -37
-164 -37 -373 1 -540 17 -75 52 -116 117 -137 27 -9 38 -21 51 -54 26 -68 127
-217 201 -295 276 -293 691 -413 1085 -312 298 76 576 299 707 568 33 68 43
80 79 95 70 30 93 63 115 168 28 130 28 347 0 479 -18 86 -24 98 -57 127 -20
18 -51 37 -68 43 -24 8 -36 21 -50 56 -29 70 -126 212 -196 288 -162 173 -400
300 -625 334 -86 13 -197 20 -250 16z m327 -77 c186 -49 355 -145 490 -280 84
-84 183 -225 217 -311 19 -46 27 -55 60 -65 63 -18 87 -49 107 -137 26 -111
26 -357 0 -468 -20 -89 -42 -118 -103 -136 -36 -11 -43 -19 -72 -81 -119 -257
-361 -470 -631 -557 -505 -163 -1054 70 -1284 546 -31 63 -46 82 -65 87 -58
15 -90 45 -105 98 -41 145 -46 364 -11 516 19 83 44 114 105 132 33 10 41 20
76 92 147 304 430 517 771 582 118 22 321 14 445 -18z"/>
<path d="M1108 2250 c-323 -52 -597 -243 -749 -525 -23 -42 -40 -78 -38 -80 2
-2 24 0 49 5 78 14 308 39 484 51 337 23 951 1 1237 -45 46 -8 86 -12 88 -10
2 1 -15 37 -38 79 -136 252 -377 438 -656 506 -92 23 -291 33 -377 19z m342
-35 c266 -56 496 -220 646 -460 25 -42 45 -77 43 -79 -2 -2 -47 3 -99 10 -307
43 -903 60 -1230 34 -166 -12 -407 -38 -432 -46 -27 -8 -23 4 33 91 70 110
129 176 223 251 233 186 531 259 816 199z"/>
<path d="M400 1545 c-163 -46 -251 -167 -237 -322 11 -115 65 -195 163 -244
43 -21 63 -24 160 -24 79 0 116 4 127 14 11 9 17 10 17 2 0 -7 33 -11 100 -11
l100 0 0 165 0 165 -147 0 -148 0 0 -60 0 -60 48 0 47 0 0 -44 c0 -25 -5 -48
-10 -51 -6 -4 -35 -7 -64 -7 -68 -1 -131 32 -158 82 -26 50 -24 143 5 194 55
98 203 119 340 48 4 -2 7 23 7 56 l0 60 -62 21 c-85 29 -216 36 -288 16z m264
-35 c63 -20 66 -22 66 -51 0 -26 -3 -30 -17 -24 -51 22 -116 29 -178 18 -126
-22 -179 -82 -179 -208 -1 -136 64 -200 203 -200 87 1 101 13 101 86 0 56 -16
73 -65 67 -34 -4 -35 -3 -35 32 l0 35 122 -2 123 -2 0 -138 0 -138 -125 -3
c-292 -8 -282 -8 -331 16 -61 30 -117 85 -141 139 -28 63 -27 168 2 227 28 58
97 120 164 145 71 28 201 28 290 1z"/>
<path d="M2048 1490 c-27 -21 -28 -25 -28 -111 l0 -89 -42 0 -43 0 3 -60 4
-60 40 0 39 0 -3 -105 -3 -105 93 0 92 0 0 109 0 109 45 -6 45 -5 0 62 0 61
-46 0 -45 0 3 43 c3 38 6 42 31 45 16 2 39 -4 53 -13 l24 -15 0 60 c0 61 0 61
-37 77 -21 9 -74 18 -118 21 -71 4 -83 2 -107 -18z m180 -15 c47 -14 52 -18
52 -45 0 -28 -2 -30 -32 -27 -57 6 -68 -6 -68 -72 0 -57 1 -59 31 -65 17 -3
35 -3 40 0 5 3 9 -11 9 -30 0 -33 -2 -35 -37 -38 l-38 -3 -3 -107 -3 -108 -69
0 -69 0 -3 108 -3 107 -38 0 c-36 0 -37 1 -37 38 0 37 0 37 40 37 l40 0 0 89
c0 85 1 91 26 110 32 25 89 27 162 6z"/>
<path d="M1620 1230 l0 -270 95 0 95 0 0 270 0 270 -95 0 -95 0 0 -270z m165
6 l0 -245 -73 -3 -72 -3 0 248 0 247 73 0 72 0 0 -244z"/>
<path d="M952 1156 c3 -148 10 -165 75 -192 44 -19 174 -18 221 1 24 10 38 12
40 5 2 -6 41 -10 98 -10 l94 0 0 165 0 165 -97 0 -98 0 3 -115 4 -114 -27 -7
c-30 -7 -82 1 -102 17 -9 8 -13 40 -13 115 l0 104 -101 0 -101 0 4 -134z m170
12 c5 -125 11 -133 111 -133 l72 0 3 115 3 115 70 -2 70 -1 0 -139 0 -138 -62
-3 c-34 -2 -69 0 -78 4 -24 11 -42 10 -90 -3 -88 -25 -172 -14 -218 29 -21 20
-23 30 -23 137 l0 116 69 0 69 0 4 -97z"/>
<path d="M320 853 c0 -17 83 -158 124 -212 141 -182 333 -309 556 -369 82 -22
116 -25 250 -25 134 0 168 3 250 25 223 60 415 187 556 370 43 55 130 206 123
212 -2 2 -58 -5 -124 -14 -66 -10 -174 -23 -240 -30 -181 -18 -766 -25 -973
-11 -168 12 -467 45 -504 57 -10 3 -18 2 -18 -3z m260 -53 c442 -49 988 -46
1415 9 77 10 142 17 144 15 8 -7 -96 -161 -151 -225 -104 -121 -280 -237 -438
-287 -109 -35 -180 -46 -300 -46 -63 0 -142 6 -175 13 -285 59 -517 220 -668
462 -52 84 -55 93 -29 85 9 -3 100 -15 202 -26z"/>
</g>
</svg>
