<?xml version="1.0" standalone="no"?>
<!DOCTYPE svg PUBLIC "-//W3C//DTD SVG 20010904//EN"
 "http://www.w3.org/TR/2001/REC-SVG-20010904/DTD/svg10.dtd">
<svg version="1.0" xmlns="http://www.w3.org/2000/svg"
 width="100.000000pt" height="100.000000pt" viewBox="0 0 100.000000 100.000000"
 preserveAspectRatio="xMidYMid meet">
<metadata>
Created by potrace 1.16, written by Peter Selinger 2001-2019
</metadata>
<g transform="translate(0.000000,100.000000) scale(0.100000,-0.100000)"
fill="#000000" stroke="none">
<path d="M0 980 c0 -7 173 -10 500 -10 327 0 500 3 500 10 0 7 -173 10 -500
10 -327 0 -500 -3 -500 -10z"/>
<path d="M363 943 c-46 -2 -83 -7 -83 -12 0 -4 14 -7 30 -6 17 1 30 -2 30 -7
0 -4 16 -8 35 -8 19 0 35 4 35 10 0 5 7 7 15 4 8 -4 15 -1 15 5 0 7 23 11 60
11 37 0 60 -4 60 -11 0 -6 7 -9 15 -5 8 3 15 0 15 -6 0 -7 16 -9 45 -5 44 4
63 12 54 21 -7 7 -240 13 -326 9z"/>
<path d="M758 943 c7 -3 16 -2 19 1 4 3 -2 6 -13 5 -11 0 -14 -3 -6 -6z"/>
<path d="M250 890 c0 -11 -7 -20 -15 -20 -8 0 -15 -7 -15 -15 0 -10 10 -15 30
-15 21 0 30 -5 30 -16 0 -11 -6 -15 -19 -11 -14 3 -17 0 -14 -14 4 -13 0 -19
-11 -19 -9 0 -16 -7 -16 -16 0 -12 -7 -15 -27 -10 -16 3 -22 3 -15 0 17 -8 15
-34 -3 -34 -8 0 -15 -7 -15 -15 0 -13 44 -15 338 -15 226 0 332 -4 322 -10 -9
-6 -144 -10 -352 -9 l-338 1 0 24 c0 15 -6 24 -16 24 -14 0 -14 3 -4 15 10 12
10 15 -4 15 -11 0 -16 -9 -16 -30 0 -20 -5 -30 -15 -30 -8 0 -15 -7 -15 -15 0
-8 -7 -15 -15 -15 -18 0 -21 -66 -3 -72 9 -3 9 -6 0 -12 -7 -4 -12 -2 -12 3 0
6 -7 11 -15 11 -8 0 -15 -4 -15 -10 0 -5 6 -10 13 -10 7 0 8 -3 2 -8 -16 -11
-15 -152 2 -152 10 0 13 19 13 75 0 60 3 75 15 75 12 0 15 -13 15 -60 0 -37
-4 -60 -11 -60 -6 0 -9 -7 -5 -15 3 -8 1 -15 -4 -15 -6 0 -10 -16 -10 -35 0
-24 5 -35 15 -35 8 0 15 -7 15 -15 0 -8 7 -15 15 -15 10 0 15 -10 15 -30 0
-21 5 -30 16 -30 14 0 14 3 4 15 -10 12 -10 15 4 15 10 0 16 8 16 23 0 23 1
23 137 26 76 1 139 4 142 7 2 2 -68 4 -157 4 -153 0 -162 1 -162 19 0 11 6 21
13 24 6 2 0 2 -16 0 -24 -4 -27 -2 -27 26 0 17 4 31 8 31 5 0 8 27 8 60 0 33
-3 60 -8 60 -4 0 -8 16 -8 35 0 24 5 35 15 35 8 0 15 7 15 15 0 13 52 15 410
15 358 0 410 -2 410 -15 0 -11 -12 -15 -50 -15 -36 0 -50 -4 -50 -14 0 -11 8
-12 34 -6 18 4 41 3 50 -2 12 -7 16 -5 16 7 0 8 7 15 15 15 8 0 15 -9 15 -20
0 -11 -4 -20 -10 -20 -5 0 -10 -7 -10 -15 0 -8 4 -15 9 -15 4 0 9 -40 9 -90 1
-72 -2 -90 -14 -90 -7 0 -14 -9 -14 -20 0 -19 -7 -20 -162 -20 -89 0 -159 -2
-157 -4 3 -3 66 -6 142 -7 136 -3 137 -3 137 -26 0 -15 6 -23 16 -23 14 0 14
-3 4 -15 -10 -12 -10 -15 4 -15 11 0 16 9 16 30 0 20 5 30 15 30 8 0 15 7 15
15 0 8 7 15 16 15 14 0 16 9 10 62 -4 35 -11 65 -14 68 -4 3 -7 31 -8 63 0 40
4 57 13 57 10 0 13 -20 13 -75 0 -54 4 -75 13 -75 8 0 13 18 13 60 0 33 -4 60
-9 60 -5 0 -4 7 3 15 10 12 10 15 -4 15 -12 0 -16 9 -16 35 0 24 -5 35 -15 35
-8 0 -15 7 -15 15 0 8 -7 15 -15 15 -10 0 -15 10 -15 30 0 21 -5 30 -16 30
-14 0 -14 -3 -4 -15 10 -12 10 -15 -4 -15 -10 0 -16 -9 -16 -25 0 -16 -6 -25
-15 -25 -9 0 -15 9 -15 25 0 16 -6 25 -16 25 -11 0 -15 6 -11 19 3 14 0 17
-14 14 -13 -4 -19 0 -19 11 0 9 -7 16 -16 16 -11 0 -15 6 -11 19 3 14 0 17
-14 14 -13 -4 -19 0 -19 11 0 11 9 16 30 16 20 0 30 5 30 15 0 8 -7 15 -15 15
-8 0 -15 9 -15 20 0 17 -7 20 -45 20 -38 0 -45 -3 -45 -20 0 -19 -7 -20 -160
-20 -153 0 -160 1 -160 20 0 17 -7 20 -45 20 -38 0 -45 -3 -45 -20z m61 -20
c19 0 29 -5 29 -15 0 -10 -10 -15 -30 -15 -20 0 -30 5 -30 15 0 8 -4 15 -10
15 -5 0 -6 8 -2 18 6 16 7 16 10 0 2 -12 13 -18 33 -18z m395 0 c8 0 14 8 14
18 0 14 2 15 10 2 6 -10 6 -16 0 -18 -6 -2 -10 -10 -10 -18 0 -9 -11 -14 -30
-14 -20 0 -30 5 -30 15 0 8 5 15 10 15 6 0 9 3 9 8 -3 17 4 25 8 10 2 -10 11
-18 19 -18z m-69 -28 c-9 -2 -17 -10 -17 -19 0 -12 9 -14 39 -11 30 2 43 -1
53 -14 7 -10 18 -18 25 -18 7 0 13 -7 13 -15 0 -8 7 -15 15 -15 8 0 15 -8 15
-19 0 -17 -14 -18 -280 -18 -267 -1 -280 0 -280 18 0 11 7 19 15 19 8 0 15 7
15 15 0 14 14 19 48 18 7 -1 10 6 7 16 -4 14 1 16 30 13 26 -3 35 0 35 11 0 8
-4 17 -10 19 -5 2 58 3 142 3 84 0 144 -1 135 -3z"/>
<path d="M308 743 c17 -2 32 -8 32 -14 0 -5 67 -9 160 -9 93 0 160 4 160 9 0
6 15 12 33 14 17 2 -69 4 -193 4 -124 0 -210 -2 -192 -4z"/>
<path d="M440 900 c0 -6 27 -10 60 -10 33 0 60 4 60 10 0 6 -27 10 -60 10 -33
0 -60 -4 -60 -10z"/>
<path d="M190 825 c0 -8 -7 -15 -15 -15 -8 0 -15 -7 -15 -15 0 -8 7 -15 15
-15 8 0 15 7 15 15 0 8 7 15 15 15 8 0 15 7 15 15 0 8 -7 15 -15 15 -8 0 -15
-7 -15 -15z"/>
<path d="M780 825 c0 -8 7 -15 15 -15 8 0 15 7 15 15 0 8 -7 15 -15 15 -8 0
-15 -7 -15 -15z"/>
<path d="M810 795 c0 -8 7 -15 15 -15 8 0 15 7 15 15 0 8 -7 15 -15 15 -8 0
-15 -7 -15 -15z"/>
<path d="M130 750 c0 -20 5 -30 15 -30 10 0 15 10 15 30 0 20 -5 30 -15 30
-10 0 -15 -10 -15 -30z"/>
<path d="M840 750 c0 -20 5 -30 15 -30 10 0 15 10 15 30 0 20 -5 30 -15 30
-10 0 -15 -10 -15 -30z"/>
<path d="M130 616 c0 -9 10 -12 30 -10 17 2 30 -1 30 -6 0 -15 57 -12 63 3 3
6 6 8 6 2 2 -26 -15 -35 -49 -25 -19 6 -54 10 -77 10 l-43 0 0 -90 0 -90 50 0
c28 0 50 4 50 9 0 5 8 7 19 4 10 -3 22 0 25 6 5 7 -7 11 -33 11 l-41 0 0 60 0
60 75 0 75 0 0 35 0 35 -90 0 c-70 0 -90 -3 -90 -14z m162 -28 c-9 -9 -12 -7
-12 12 0 19 3 21 12 12 9 -9 9 -15 0 -24z m-147 -88 c0 -16 -3 -30 -7 -30 -5
0 -8 14 -8 30 0 17 3 30 8 30 4 0 7 -13 7 -30z m-10 -60 c-3 -5 -12 -10 -18
-10 -7 0 -6 4 3 10 19 12 23 12 15 0z"/>
<path d="M620 614 c0 -8 5 -12 10 -9 6 3 10 10 10 16 0 5 -4 9 -10 9 -5 0 -10
-7 -10 -16z"/>
<path d="M660 621 c0 -5 14 -11 30 -13 20 -3 30 0 30 9 0 8 -12 13 -30 13 -16
0 -30 -4 -30 -9z"/>
<path d="M620 485 c0 -58 4 -105 9 -105 5 0 9 47 10 105 1 67 -2 105 -9 105
-6 0 -10 -39 -10 -105z"/>
<path d="M660 485 l0 -105 30 0 30 0 0 105 0 105 -30 0 -30 0 0 -105z m37 -12
c-2 -21 -4 -6 -4 32 0 39 2 55 4 38 2 -18 2 -50 0 -70z"/>
<path d="M742 560 c0 -19 2 -27 5 -17 2 9 2 25 0 35 -3 9 -5 1 -5 -18z"/>
<path d="M782 570 c0 -14 2 -19 5 -12 2 6 2 18 0 25 -3 6 -5 1 -5 -13z"/>
<path d="M810 545 c0 -25 -4 -45 -10 -45 -5 0 -7 7 -4 15 4 8 1 15 -5 15 -6 0
-11 -13 -11 -30 0 -20 5 -30 15 -30 11 0 15 -12 15 -45 0 -43 1 -45 30 -45 29
0 30 2 30 45 0 38 3 45 20 45 16 0 20 7 20 35 0 19 -5 35 -11 35 -6 0 -9 -9
-6 -20 3 -13 0 -20 -9 -20 -9 0 -14 11 -14 30 0 23 4 30 20 30 11 0 20 7 20
15 0 11 -12 15 -50 15 l-50 0 0 -45z m40 -25 c0 -5 -4 -10 -10 -10 -5 0 -10 5
-10 10 0 6 5 10 10 10 6 0 10 -4 10 -10z m4 -35 c-4 -8 -10 -15 -14 -15 -4 0
-10 7 -14 15 -4 10 1 15 14 15 13 0 18 -5 14 -15z m-9 -35 c3 -5 1 -10 -4 -10
-6 0 -11 5 -11 10 0 6 2 10 4 10 3 0 8 -4 11 -10z"/>
<path d="M175 540 c-3 -5 -1 -10 4 -10 6 0 11 5 11 10 0 6 -2 10 -4 10 -3 0
-8 -4 -11 -10z"/>
<path d="M220 500 c0 -20 5 -30 15 -30 10 0 15 -10 15 -29 0 -25 5 -30 28 -34
15 -2 0 -4 -33 -4 -85 -1 -115 -4 -115 -14 0 -5 47 -9 105 -9 l105 0 0 75 0
75 -60 0 -60 0 0 -30z m110 8 c0 -4 -24 -8 -52 -8 -37 0 -48 3 -38 10 17 11
90 9 90 -2z m-4 -76 c-5 -55 -16 -49 -16 9 1 36 4 49 9 39 5 -8 8 -30 7 -48z
m-46 22 c0 -8 -4 -12 -10 -9 -5 3 -10 10 -10 16 0 5 5 9 10 9 6 0 10 -7 10
-16z"/>
<path d="M370 470 c0 -53 2 -60 20 -60 11 0 20 -7 20 -15 0 -12 17 -15 90 -15
l90 0 0 75 0 75 -45 0 -45 0 0 -42 c1 -35 3 -39 11 -25 6 9 8 26 4 36 -5 16
-1 18 25 16 39 -3 52 -15 17 -15 -25 0 -27 -3 -27 -44 0 -38 3 -45 23 -49 17
-3 15 -5 -8 -6 -38 -1 -75 9 -75 20 0 5 7 9 15 9 8 0 15 -4 15 -10 0 -5 5 -10
10 -10 6 0 10 7 10 15 0 9 -9 15 -25 15 -23 0 -25 4 -25 45 l0 45 -50 0 -50 0
0 -60z m87 36 c3 -3 -13 -6 -36 -6 -23 0 -40 4 -37 9 6 10 63 8 73 -3z m-47
-52 c0 -21 -4 -33 -10 -29 -17 10 -11 65 7 65 2 0 3 -16 3 -36z m50 -1 c0 -7
-4 -13 -10 -13 -5 0 -10 12 -10 28 0 21 2 24 10 12 5 -8 10 -21 10 -27z m107
-10 c-3 -10 -5 -4 -5 12 0 17 2 24 5 18 2 -7 2 -21 0 -30z m-122 -32 c-3 -6
-11 -11 -16 -11 -5 0 -4 6 3 14 14 16 24 13 13 -3z"/>
<path d="M744 447 l-2 -72 8 60 c4 33 5 65 1 72 -3 6 -7 -21 -7 -60z"/>
<path d="M188 487 c-3 -19 -2 -25 4 -19 6 6 8 18 6 28 -3 14 -5 12 -10 -9z"/>
<path d="M780 420 c0 -22 3 -40 8 -40 4 0 6 18 4 40 -2 22 -6 40 -8 40 -2 0
-4 -18 -4 -40z"/>
<path d="M890 414 c0 -21 4 -33 10 -29 6 3 10 19 10 36 0 16 -4 29 -10 29 -5
0 -10 -16 -10 -36z"/>
<path d="M975 420 c-3 -5 1 -10 9 -10 9 0 16 5 16 10 0 6 -4 10 -9 10 -6 0
-13 -4 -16 -10z"/>
<path d="M370 390 c0 -5 7 -10 16 -10 8 0 12 5 9 10 -3 6 -10 10 -16 10 -5 0
-9 -4 -9 -10z"/>
<path d="M440 350 c0 -5 7 -10 15 -10 8 0 15 5 15 10 0 6 -7 10 -15 10 -8 0
-15 -4 -15 -10z"/>
<path d="M508 333 c7 -3 16 -2 19 1 4 3 -2 6 -13 5 -11 0 -14 -3 -6 -6z"/>
<path d="M160 295 c0 -8 -7 -15 -15 -15 -10 0 -15 -10 -15 -30 0 -20 5 -30 15
-30 10 0 15 10 15 30 0 21 5 30 16 30 11 0 15 -6 11 -19 -3 -14 0 -17 14 -14
13 4 19 0 19 -11 0 -9 7 -16 16 -16 11 0 15 -6 11 -19 -3 -14 0 -17 14 -14 13
4 19 0 19 -11 0 -11 -9 -16 -30 -16 -20 0 -30 -5 -30 -15 0 -8 7 -15 15 -15 8
0 15 -9 15 -20 0 -17 7 -20 45 -20 38 0 45 3 45 20 0 19 7 20 160 20 153 0
160 -1 160 -20 0 -11 4 -20 8 -20 4 0 8 9 8 20 0 11 -4 20 -8 20 -4 0 -8 7 -8
15 0 10 10 15 29 15 21 0 30 -6 34 -22 4 -12 4 -24 2 -27 -3 -2 -5 1 -5 7 0 7
-7 12 -15 12 -8 0 -15 -9 -15 -20 0 -16 7 -20 30 -20 23 0 30 4 30 20 0 11 7
20 15 20 8 0 15 7 15 15 0 10 -10 15 -30 15 -21 0 -30 5 -30 16 0 11 6 15 19
11 14 -3 17 0 14 14 -4 13 0 19 11 19 9 0 16 7 16 16 0 11 6 15 19 11 14 -3
17 0 14 14 -4 13 0 19 11 19 11 0 16 -9 16 -30 0 -20 5 -30 15 -30 10 0 15 10
15 30 0 20 -5 30 -15 30 -8 0 -15 7 -15 15 0 13 -44 15 -340 15 -296 0 -340
-2 -340 -15z m620 -26 c0 -11 -7 -19 -15 -19 -8 0 -15 -7 -15 -15 0 -8 -5 -15
-11 -15 -7 0 -17 -8 -24 -17 -9 -13 -24 -17 -54 -14 -31 2 -41 -1 -41 -13 0
-8 8 -16 17 -18 9 -2 -51 -3 -135 -3 -84 0 -147 2 -142 3 6 2 10 11 10 19 0
11 -8 14 -34 11 -25 -3 -38 1 -48 14 -7 10 -18 18 -25 18 -7 0 -13 7 -13 15 0
8 -7 15 -15 15 -8 0 -15 8 -15 19 0 18 13 19 280 19 267 0 280 -1 280 -19z
m-440 -124 c0 -8 -4 -15 -10 -15 -5 0 -7 -7 -4 -15 4 -8 1 -15 -5 -15 -6 0
-11 7 -11 15 0 8 -7 15 -15 15 -8 0 -15 -5 -15 -11 0 -5 -5 -7 -12 -3 -9 6 -9
9 0 12 7 2 12 10 12 18 0 9 11 14 30 14 20 0 30 -5 30 -15z"/>
<path d="M310 264 c-31 -11 -8 -13 190 -13 199 0 221 2 190 14 -48 18 -331 18
-380 -1z"/>
<path d="M160 205 c0 -8 7 -15 15 -15 8 0 15 7 15 15 0 8 -7 15 -15 15 -8 0
-15 -7 -15 -15z"/>
<path d="M810 205 c0 -8 7 -15 15 -15 8 0 15 7 15 15 0 8 -7 15 -15 15 -8 0
-15 -7 -15 -15z"/>
<path d="M190 175 c0 -8 7 -15 15 -15 8 0 15 7 15 15 0 8 -7 15 -15 15 -8 0
-15 -7 -15 -15z"/>
<path d="M780 175 c0 -8 7 -15 15 -15 8 0 15 7 15 15 0 8 -7 15 -15 15 -8 0
-15 -7 -15 -15z"/>
<path d="M421 99 c8 -5 43 -9 79 -9 36 0 71 4 79 9 9 6 -20 9 -79 9 -59 0 -88
-3 -79 -9z"/>
<path d="M220 72 c0 -14 6 -22 16 -22 14 0 15 3 3 18 -7 9 -15 19 -16 21 -2 2
-3 -5 -3 -17z"/>
<path d="M328 83 c-72 -19 110 -37 267 -26 103 7 131 26 45 31 -33 2 -50 -1
-50 -9 0 -6 -7 -9 -15 -5 -8 3 -15 1 -15 -4 0 -6 -27 -10 -60 -10 -33 0 -60 4
-60 10 0 5 -7 7 -15 4 -8 -4 -15 -1 -15 5 0 11 -48 13 -82 4z"/>
<path d="M763 75 c-17 -19 -16 -25 2 -25 8 0 15 9 15 20 0 23 -1 24 -17 5z"/>
<path d="M0 20 c0 -7 173 -10 500 -10 327 0 500 3 500 10 0 7 -173 10 -500 10
-327 0 -500 -3 -500 -10z"/>
</g>
</svg>
