<?xml version="1.0" standalone="no"?>
<!DOCTYPE svg PUBLIC "-//W3C//DTD SVG 20010904//EN"
 "http://www.w3.org/TR/2001/REC-SVG-20010904/DTD/svg10.dtd">
<svg version="1.0" xmlns="http://www.w3.org/2000/svg"
 width="256.000000pt" height="256.000000pt" viewBox="0 0 256.000000 256.000000"
 preserveAspectRatio="xMidYMid meet">
<metadata>
Created by potrace 1.16, written by Peter Selinger 2001-2019
</metadata>
<g transform="translate(0.000000,256.000000) scale(0.100000,-0.100000)"
fill="#000000" stroke="none">
<path d="M1000 2310 l25 -8 -24 -1 c-13 -1 -22 -4 -18 -7 3 -4 18 -3 34 0 21
6 24 9 12 17 -7 5 -23 8 -34 8 -16 -1 -16 -2 5 -9z"/>
<path d="M1078 2313 c7 -3 16 -2 19 1 4 3 -2 6 -13 5 -11 0 -14 -3 -6 -6z"/>
<path d="M1128 2313 c7 -3 16 -2 19 1 4 3 -2 6 -13 5 -11 0 -14 -3 -6 -6z"/>
<path d="M1425 2310 c11 -5 29 -8 40 -8 16 0 15 2 -5 8 -34 11 -60 11 -35 0z"/>
<path d="M1085 2289 c-44 -10 -90 -17 -102 -15 -12 2 -20 0 -18 -4 2 -4 -15
-13 -38 -21 -23 -7 -45 -17 -48 -21 -3 -5 -18 -4 -34 2 -25 9 -26 9 -15 -5 10
-13 6 -18 -33 -34 -25 -11 -48 -24 -52 -30 -3 -6 -21 -18 -38 -25 -18 -8 -43
-25 -57 -39 -18 -16 -36 -23 -58 -22 -31 2 -39 -4 -25 -18 3 -4 12 -2 20 5 7
6 17 8 21 4 4 -4 -2 -12 -12 -18 -24 -13 -71 -61 -85 -85 -5 -10 -13 -14 -17
-10 -5 5 -2 12 6 17 8 5 11 12 7 17 -11 10 -28 -18 -22 -35 7 -19 -20 -43 -42
-36 -13 4 -14 3 -5 -3 10 -7 0 -31 -44 -104 -31 -52 -54 -85 -52 -73 3 13 0
21 -7 21 -10 0 -11 -7 -4 -24 5 -14 9 -26 9 -27 0 -6 -65 -31 -80 -31 -10 0
-14 -8 -13 -22 2 -13 -1 -23 -6 -23 -13 0 -51 -113 -52 -156 0 -31 -2 -35 -9
-19 -5 12 -9 -49 -9 -157 -1 -116 3 -178 10 -180 6 -2 11 -37 12 -83 1 -44 4
-68 7 -55 6 24 7 23 19 -12 7 -21 17 -38 21 -38 5 0 7 -7 4 -15 -5 -11 -2 -13
10 -9 19 7 22 -12 4 -20 -7 -3 -3 -3 9 -1 12 3 24 1 28 -5 3 -5 14 -10 24 -10
14 0 39 -33 46 -60 0 -3 11 -24 23 -46 11 -23 18 -45 14 -49 -4 -3 -1 -5 6 -3
8 2 19 -6 25 -17 7 -11 16 -23 21 -26 5 -4 5 -13 1 -20 -6 -9 -3 -11 8 -6 10
3 17 2 17 -3 0 -5 11 -21 25 -36 13 -14 22 -30 19 -35 -3 -5 1 -9 8 -9 17 0
108 -82 108 -98 0 -6 7 -9 17 -5 12 5 15 2 10 -10 -4 -11 -2 -14 9 -10 18 7
46 -16 37 -31 -4 -6 2 -4 12 4 10 8 16 10 12 4 -4 -7 10 -18 33 -29 22 -10 37
-22 34 -26 -3 -5 2 -6 10 -3 24 9 44 -8 20 -18 -12 -5 -7 -6 16 -2 27 4 32 3
20 -6 -12 -9 -11 -10 8 -5 13 4 28 2 35 -3 15 -12 63 -26 146 -43 49 -11 58
-15 40 -20 -13 -3 68 -5 181 -5 113 0 194 2 180 4 -20 3 -13 7 30 19 30 7 68
11 85 8 16 -2 24 -2 17 1 -19 9 -4 24 24 24 13 0 24 5 24 11 0 5 4 8 9 4 5 -3
26 4 45 16 20 12 43 18 52 15 8 -3 13 -2 10 2 -6 10 56 42 82 43 10 0 12 3 5
6 -7 2 -13 9 -13 14 0 5 14 2 31 -6 17 -9 36 -14 42 -11 7 2 5 5 -4 5 -9 1
-23 8 -30 18 -13 15 -11 16 12 10 19 -5 29 -3 32 8 4 10 1 12 -11 9 -13 -4
-12 -1 4 13 13 11 35 18 55 18 29 -1 34 2 35 22 2 24 2 24 -16 3 -9 -11 -24
-20 -31 -20 -8 0 2 15 21 33 19 19 53 53 75 78 23 24 50 44 60 44 16 0 19 6
17 30 -2 22 0 26 7 15 15 -22 24 -5 11 19 -6 12 -7 21 -1 21 5 0 12 -6 15 -12
4 -7 4 -3 2 9 -2 13 0 26 5 29 6 3 21 30 34 60 15 33 30 54 40 54 9 0 23 7 32
15 8 8 19 13 24 10 5 -4 9 1 9 10 0 10 5 13 12 9 8 -5 9 -2 5 9 -3 10 -3 17 2
17 7 0 18 30 41 115 6 22 13 96 16 165 2 69 6 138 9 153 3 16 1 26 -5 22 -5
-3 -3 7 5 22 19 36 19 56 0 23 -14 -25 -15 -25 -8 9 4 23 2 36 -8 42 -9 5 -14
26 -14 58 0 27 -3 44 -7 38 -4 -7 -8 -10 -9 -7 0 3 -2 14 -4 24 -2 10 -8 22
-14 25 -5 4 -9 15 -8 26 1 14 -4 20 -18 20 -11 0 -30 6 -41 12 -12 7 -25 9
-29 5 -4 -4 -5 7 -2 23 4 17 4 24 1 18 -8 -18 -24 -16 -24 1 0 25 -41 86 -53
80 -8 -4 -7 -2 1 7 15 16 16 46 1 55 -7 4 -9 0 -5 -14 4 -11 2 -23 -4 -27 -6
-4 -10 -3 -9 2 1 4 -1 16 -6 26 -5 12 -1 24 10 37 10 11 13 20 8 20 -6 0 -13
-7 -17 -15 -3 -8 -10 -15 -17 -15 -6 0 -8 7 -5 16 4 11 2 15 -8 11 -17 -7 -24
8 -21 48 1 27 -2 30 -24 29 -29 -2 -64 23 -54 39 3 6 1 7 -5 3 -12 -7 -72 47
-72 64 0 5 -7 7 -15 4 -8 -4 -15 -1 -15 5 0 6 -7 11 -15 11 -18 0 -20 16 -2
24 6 3 1 3 -12 0 -18 -5 -22 -3 -15 7 6 10 3 10 -11 -1 -10 -8 -16 -10 -12 -4
4 7 -16 22 -48 38 -30 15 -55 31 -55 35 0 5 -10 7 -22 3 -12 -3 -19 -1 -15 4
3 5 -2 10 -11 11 -36 3 -174 51 -161 55 8 3 -6 6 -31 6 -25 1 -106 3 -180 6
-111 4 -149 1 -215 -15z m452 -38 c201 -54 358 -152 501 -314 60 -68 131 -176
151 -230 5 -13 20 -27 34 -30 41 -11 85 -63 101 -119 47 -163 47 -388 0 -555
-15 -53 -60 -104 -104 -118 -11 -4 -32 -29 -47 -58 -66 -133 -186 -272 -303
-355 -36 -26 -67 -49 -70 -52 -12 -14 -173 -82 -250 -106 -79 -25 -98 -27
-265 -28 -192 0 -239 7 -373 60 -66 25 -183 89 -217 117 -112 91 -169 149
-237 239 -20 26 -39 44 -44 40 -4 -4 -4 -2 0 5 3 6 -9 39 -27 73 -26 46 -44
66 -74 81 -79 39 -106 134 -107 369 -1 163 10 253 41 327 12 30 75 83 98 83 5
0 26 30 45 68 66 128 233 323 262 306 6 -4 8 -3 5 3 -4 6 19 28 51 50 112 79
258 140 387 162 33 6 71 13 85 15 68 12 249 -5 357 -33z m533 -293 c0 -16 -20
-7 -30 12 -10 19 -10 20 9 8 12 -7 21 -16 21 -20z m-1800 -292 c0 -3 -4 -8
-10 -11 -5 -3 -10 -1 -10 4 0 6 5 11 10 11 6 0 10 -2 10 -4z m2040 -6 c0 -5
-4 -10 -10 -10 -5 0 -10 5 -10 10 0 6 5 10 10 10 6 0 10 -4 10 -10z m-195
-1000 c3 -5 1 -10 -4 -10 -6 0 -11 5 -11 10 0 6 2 10 4 10 3 0 8 -4 11 -10z"/>
<path d="M1109 2214 c-292 -52 -553 -249 -678 -512 -19 -40 -41 -72 -48 -72
-30 0 -75 -33 -88 -63 -7 -18 -21 -81 -30 -142 -21 -129 -15 -251 15 -371 21
-83 40 -108 91 -119 19 -4 32 -19 50 -58 137 -293 424 -498 752 -537 216 -25
451 31 631 152 130 88 269 247 329 377 19 42 32 56 65 71 22 10 47 29 55 42
59 90 62 454 6 591 -12 27 -54 57 -82 57 -8 0 -31 34 -51 75 -185 374 -605
584 -1017 509z m281 -25 c162 -20 339 -95 465 -196 106 -86 228 -249 266 -355
9 -26 19 -38 32 -38 10 0 31 -7 47 -15 31 -16 43 -46 61 -154 20 -123 1 -377
-33 -431 -13 -21 -50 -40 -76 -40 -12 0 -23 -13 -31 -36 -40 -111 -156 -264
-269 -355 -84 -68 -243 -148 -347 -175 -109 -29 -362 -27 -470 4 -258 75 -485
269 -590 506 -19 42 -29 54 -52 59 -15 3 -36 12 -46 19 -30 23 -49 113 -54
264 -9 232 26 354 101 354 20 0 30 13 60 77 49 102 109 185 194 264 157 149
303 217 542 253 51 7 118 6 200 -5z"/>
<path d="M1120 2126 c-264 -56 -465 -203 -598 -437 -31 -55 -41 -86 -23 -75
16 10 204 35 381 51 330 28 803 14 1088 -34 119 -20 114 -27 49 88 -51 89
-147 196 -232 257 -77 54 -207 116 -295 139 -87 23 -286 28 -370 11z m243 -23
c-3 -7 0 -13 6 -13 6 0 11 5 11 10 0 6 12 10 28 10 l27 -1 -25 -14 c-29 -16
-9 -20 21 -4 16 8 38 4 97 -16 42 -14 84 -30 92 -36 13 -9 12 -10 -3 -5 -11 4
-16 2 -11 -5 3 -6 18 -9 32 -6 25 5 26 4 7 -9 -18 -13 -17 -14 13 -8 29 6 32
4 33 -17 0 -19 2 -20 7 -7 6 15 9 15 30 -2 12 -10 22 -24 22 -30 0 -7 7 -10
15 -6 23 9 86 -54 80 -81 -4 -25 18 -32 31 -11 4 6 3 8 -4 4 -6 -3 -13 -2 -16
3 -4 5 2 8 11 6 10 -1 17 -8 15 -15 -2 -8 3 -10 12 -7 9 4 15 3 14 -1 -4 -16
14 -52 24 -46 6 4 6 -1 -1 -14 -16 -30 -14 -39 4 -16 8 10 15 14 15 8 0 -6 10
-23 23 -38 12 -14 30 -39 39 -54 16 -27 16 -28 -9 -30 -14 -1 -31 2 -37 7 -6
5 -27 9 -46 9 -19 0 -53 3 -75 6 -214 29 -739 39 -945 17 -196 -21 -318 -25
-335 -11 -13 11 -11 17 13 49 15 20 36 50 47 66 21 34 134 145 147 145 5 0 6
-5 2 -12 -4 -7 -3 -8 5 -4 6 4 9 11 6 16 -3 4 11 18 30 30 20 12 43 29 52 38
9 9 28 15 44 14 15 -2 30 2 34 8 5 9 1 10 -14 5 -11 -3 -21 -4 -21 -2 0 3 45
19 99 37 137 43 366 64 354 33z m-803 -434 c0 -4 8 -10 18 -12 11 -3 8 -5 -9
-6 -15 0 -29 5 -32 12 -3 8 1 14 9 14 8 0 14 -4 14 -8z"/>
<path d="M1178 2093 c7 -3 16 -2 19 1 4 3 -2 6 -13 5 -11 0 -14 -3 -6 -6z"/>
<path d="M1243 2093 c9 -2 23 -2 30 0 6 3 -1 5 -18 5 -16 0 -22 -2 -12 -5z"/>
<path d="M908 2003 c7 -3 16 -2 19 1 4 3 -2 6 -13 5 -11 0 -14 -3 -6 -6z"/>
<path d="M1710 1936 c0 -9 5 -16 10 -16 6 0 10 4 10 9 0 6 -4 13 -10 16 -5 3
-10 -1 -10 -9z"/>
<path d="M1777 1929 c7 -7 15 -10 18 -7 3 3 -2 9 -12 12 -14 6 -15 5 -6 -5z"/>
<path d="M687 1862 c-15 -17 -15 -18 3 -19 23 -2 36 15 23 28 -6 6 -16 3 -26
-9z m23 -2 c0 -5 -5 -10 -11 -10 -5 0 -7 5 -4 10 3 6 8 10 11 10 2 0 4 -4 4
-10z"/>
<path d="M1431 1719 c13 -8 97 -13 88 -5 -2 2 -26 6 -53 9 -30 3 -43 1 -35 -4z"/>
<path d="M1920 1720 c0 -5 7 -10 15 -10 8 0 15 5 15 10 0 6 -7 10 -15 10 -8 0
-15 -4 -15 -10z"/>
<path d="M1960 1700 c0 -5 5 -10 10 -10 6 0 10 5 10 10 0 6 -4 10 -10 10 -5 0
-10 -4 -10 -10z"/>
<path d="M793 1618 c15 -9 76 -9 100 0 9 4 -12 7 -47 7 -35 0 -59 -3 -53 -7z"/>
<path d="M1083 1623 c9 -2 23 -2 30 0 6 3 -1 5 -18 5 -16 0 -22 -2 -12 -5z"/>
<path d="M1448 1623 c6 -2 18 -2 25 0 6 3 1 5 -13 5 -14 0 -19 -2 -12 -5z"/>
<path d="M1760 1615 c0 -8 4 -15 10 -15 5 0 7 7 4 15 -4 8 -8 15 -10 15 -2 0
-4 -7 -4 -15z"/>
<path d="M728 1613 c7 -3 16 -2 19 1 4 3 -2 6 -13 5 -11 0 -14 -3 -6 -6z"/>
<path d="M973 1613 c9 -2 23 -2 30 0 6 3 -1 5 -18 5 -16 0 -22 -2 -12 -5z"/>
<path d="M1030 1610 c8 -5 20 -10 25 -10 6 0 3 5 -5 10 -8 5 -19 10 -25 10 -5
0 -3 -5 5 -10z"/>
<path d="M1505 1610 c-13 -5 -14 -9 -5 -9 8 0 24 4 35 9 13 5 14 9 5 9 -8 0
-24 -4 -35 -9z"/>
<path d="M1643 1613 c9 -2 23 -2 30 0 6 3 -1 5 -18 5 -16 0 -22 -2 -12 -5z"/>
<path d="M1710 1610 c-8 -5 -10 -10 -5 -10 6 0 17 5 25 10 8 5 11 10 5 10 -5
0 -17 -5 -25 -10z"/>
<path d="M1803 1613 c8 -7 77 -6 85 2 3 3 -16 5 -43 5 -27 0 -45 -3 -42 -7z"/>
<path d="M615 1590 c-16 -7 -17 -9 -3 -9 9 -1 20 4 23 9 7 11 7 11 -20 0z"/>
<path d="M384 1562 c1 -11 -5 -16 -16 -14 -9 1 -20 -3 -24 -9 -4 -8 -3 -9 4
-5 6 4 23 -1 38 -11 26 -17 27 -17 17 2 -6 11 -8 25 -6 32 2 6 0 14 -5 17 -6
3 -9 -2 -8 -12z"/>
<path d="M713 1573 c9 -2 25 -2 35 0 9 3 1 5 -18 5 -19 0 -27 -2 -17 -5z"/>
<path d="M2174 1540 c1 -24 4 -27 18 -19 22 12 22 11 -1 31 -18 15 -19 14 -17
-12z"/>
<path d="M550 1531 c-121 -40 -192 -134 -193 -257 -1 -47 5 -73 24 -110 57
-111 213 -172 332 -130 26 10 37 10 37 2 0 -7 26 -11 75 -11 l75 0 0 145 0
145 -120 0 -120 0 0 -52 0 -53 45 0 45 0 0 -39 c0 -39 -1 -40 -42 -46 -94 -14
-159 49 -160 153 0 125 152 193 283 128 15 -8 29 -12 31 -10 2 2 2 24 -2 50
-5 47 -5 47 -60 66 -60 21 -209 33 -250 19z m144 -17 c34 -5 44 -10 34 -16 -9
-7 -6 -8 10 -5 26 6 83 -11 94 -27 17 -24 7 -35 -13 -15 -15 15 -24 18 -28 10
-6 -9 -15 -8 -36 3 -31 16 -50 12 -25 -5 11 -7 8 -8 -11 -4 -14 4 -44 0 -68
-8 -23 -9 -52 -14 -65 -13 -15 2 -22 -3 -23 -16 -2 -16 0 -17 13 -3 9 8 18 15
22 15 4 0 -8 -14 -26 -31 -18 -17 -29 -35 -26 -41 4 -7 2 -8 -4 -4 -7 4 -12 0
-13 -11 -1 -17 -2 -17 -6 0 -6 22 -29 22 -37 1 -5 -14 -4 -15 9 -4 22 18 20
-8 -2 -33 -17 -19 -17 -20 4 -8 14 7 24 8 28 1 3 -5 0 -10 -8 -10 -15 0 -13
-33 3 -55 4 -5 10 -23 14 -38 8 -35 57 -84 92 -93 14 -4 50 -4 80 -1 54 6 76
-5 55 -26 -8 -8 -17 -7 -34 2 -13 7 -39 11 -58 8 -32 -4 -31 -4 9 -5 23 -1 42
-6 42 -12 0 -11 -20 -14 -58 -11 -15 1 -21 -2 -17 -8 8 -13 -8 -13 -60 0 -22
5 -51 12 -65 15 -13 3 -27 8 -30 11 -3 3 5 4 17 1 12 -3 24 -1 26 6 3 7 -7 11
-27 10 -31 -2 -32 0 -28 30 3 17 1 27 -4 23 -5 -5 -9 -15 -9 -23 0 -17 -20
-19 -20 -1 -1 6 -13 25 -28 41 -14 16 -24 32 -22 37 3 4 1 10 -5 14 -5 3 -9
29 -8 56 0 35 4 47 10 37 7 -9 8 -7 3 8 -7 27 11 77 25 69 6 -4 8 -10 5 -15
-3 -4 3 -7 13 -6 17 1 47 54 37 64 -3 3 -5 0 -5 -6 0 -7 -4 -12 -10 -12 -5 0
-10 9 -10 21 0 15 5 19 15 15 8 -3 26 0 40 6 22 10 23 12 9 23 -14 10 -9 14
32 28 55 18 81 20 148 11z m-199 -56 c-19 -11 -30 -5 -21 11 4 6 14 7 22 4 15
-5 14 -7 -1 -15z m-42 -71 c-3 -5 -12 -2 -20 6 -9 8 -12 20 -8 27 5 8 11 6 20
-7 7 -10 11 -22 8 -26z m427 -217 l0 -120 -45 0 c-29 0 -45 4 -45 13 0 9 -2 9
-8 -1 -5 -7 -8 23 -8 65 1 53 5 77 13 76 6 -1 13 4 16 11 4 9 -2 11 -20 8 -17
-3 -24 -1 -19 6 3 6 2 13 -3 16 -5 4 -12 2 -16 -4 -3 -5 -20 -10 -37 -10 -33
0 -34 7 -2 13 34 7 54 19 48 29 -4 6 -9 7 -13 1 -3 -6 -18 -13 -33 -16 -23 -6
-25 -4 -21 13 5 18 14 20 99 20 l94 0 0 -120z"/>
<path d="M545 1480 c-3 -5 -1 -10 4 -10 6 0 11 5 11 10 0 6 -2 10 -4 10 -3 0
-8 -4 -11 -10z"/>
<path d="M528 1443 c7 -3 16 -2 19 1 4 3 -2 6 -13 5 -11 0 -14 -3 -6 -6z"/>
<path d="M481 1264 c0 -11 3 -14 6 -6 3 7 2 16 -1 19 -3 4 -6 -2 -5 -13z"/>
<path d="M490 1226 c0 -8 6 -16 14 -19 10 -4 12 0 9 14 -6 22 -23 26 -23 5z"/>
<path d="M435 1170 c3 -5 16 -10 28 -10 18 0 19 2 7 10 -20 13 -43 13 -35 0z"/>
<path d="M495 1110 c3 -5 11 -10 16 -10 6 0 7 5 4 10 -3 6 -11 10 -16 10 -6 0
-7 -4 -4 -10z"/>
<path d="M735 1090 c3 -5 8 -10 11 -10 2 0 4 5 4 10 0 6 -5 10 -11 10 -5 0 -7
-4 -4 -10z"/>
<path d="M786 1123 c-6 -14 -5 -15 5 -6 7 7 10 15 7 18 -3 3 -9 -2 -12 -12z"/>
<path d="M2205 1500 c3 -5 8 -10 11 -10 2 0 4 5 4 10 0 6 -5 10 -11 10 -5 0
-7 -4 -4 -10z"/>
<path d="M1995 1489 c-44 -13 -55 -35 -55 -112 l0 -70 -40 6 -40 5 0 -59 0
-59 40 0 40 0 0 -87 0 -88 75 0 75 0 0 88 0 87 40 0 40 0 0 59 0 59 -41 -5
-40 -6 3 39 c3 36 5 39 33 38 17 0 37 -4 47 -8 14 -7 16 -2 11 36 -7 48 -12
54 -63 67 -64 17 -95 20 -125 10z m-8 -33 c-5 -11 3 -14 36 -12 23 2 56 7 72
11 30 7 30 7 8 -9 -13 -10 -23 -23 -23 -29 0 -7 7 -4 15 7 7 10 18 15 23 12 6
-3 13 0 15 6 3 7 6 3 6 -10 1 -13 -4 -22 -11 -20 -7 1 -23 -2 -35 -6 -20 -6
-23 -14 -23 -61 0 -30 5 -57 12 -61 7 -5 8 -3 3 6 -6 10 -4 12 9 7 10 -4 24
-7 32 -7 9 0 14 -11 14 -31 0 -26 -3 -29 -14 -20 -10 9 -15 8 -19 -4 -4 -8
-13 -12 -22 -9 -13 5 -15 -7 -15 -85 l0 -91 -55 0 -55 0 0 90 0 90 -35 0 c-33
0 -35 2 -35 31 0 29 2 31 30 27 16 -2 31 0 33 6 2 5 8 6 15 2 18 -11 2 -36
-25 -36 -13 0 -21 4 -18 10 3 6 2 10 -3 10 -5 0 -12 -9 -15 -20 -4 -17 0 -20
29 -20 28 0 36 5 45 27 8 23 7 30 -8 41 -13 10 -14 16 -5 19 6 3 12 9 12 14 0
6 -4 7 -10 4 -14 -9 -13 68 2 100 12 26 24 35 15 11z m65 1 c-20 -6 -36 -7
-42 -1 -6 6 7 10 33 10 l42 1 -33 -10z m113 -26 c3 -5 1 -12 -5 -16 -5 -3 -10
1 -10 9 0 18 6 21 15 7z"/>
<path d="M2105 1270 c-3 -5 1 -10 10 -10 9 0 13 5 10 10 -3 6 -8 10 -10 10 -2
0 -7 -4 -10 -10z"/>
<path d="M1683 1483 l-83 -4 0 -227 0 -227 85 0 85 0 0 233 c0 127 -1 231 -2
230 -2 -1 -40 -4 -85 -5z m67 -228 l0 -205 -45 0 -45 0 -2 203 -3 202 -2 -202
c-2 -124 -7 -203 -13 -203 -6 0 -10 78 -10 205 l0 205 60 0 60 0 0 -205z"/>
<path d="M2221 1454 c0 -11 3 -14 6 -6 3 7 2 16 -1 19 -3 4 -6 -2 -5 -13z"/>
<path d="M1822 1395 c0 -16 2 -22 5 -12 2 9 2 23 0 30 -3 6 -5 -1 -5 -18z"/>
<path d="M718 1383 c7 -3 16 -2 19 1 4 3 -2 6 -13 5 -11 0 -14 -3 -6 -6z"/>
<path d="M1120 1350 c0 -5 7 -7 15 -4 8 4 15 8 15 10 0 2 -7 4 -15 4 -8 0 -15
-4 -15 -10z"/>
<path d="M1160 1349 c0 -5 5 -7 10 -4 6 3 10 8 10 11 0 2 -4 4 -10 4 -5 0 -10
-5 -10 -11z"/>
<path d="M1845 1350 c-3 -5 1 -10 10 -10 9 0 13 5 10 10 -3 6 -8 10 -10 10 -2
0 -7 -4 -10 -10z"/>
<path d="M1885 1350 c-3 -5 -1 -10 4 -10 6 0 11 5 11 10 0 6 -2 10 -4 10 -3 0
-8 -4 -11 -10z"/>
<path d="M970 1346 c0 -2 7 -6 15 -10 8 -3 15 -1 15 4 0 6 -7 10 -15 10 -8 0
-15 -2 -15 -4z"/>
<path d="M602 1310 c-7 -11 -8 -20 -3 -20 9 0 24 30 18 36 -1 2 -8 -6 -15 -16z"/>
<path d="M955 1320 c-3 -5 -1 -10 4 -10 6 0 11 5 11 10 0 6 -2 10 -4 10 -3 0
-8 -4 -11 -10z"/>
<path d="M1024 1311 c-2 -2 -4 -44 -4 -93 0 -95 13 -140 50 -173 29 -26 147
-33 208 -12 29 10 42 11 42 3 0 -7 27 -11 80 -11 l80 0 0 145 0 145 -80 0 -80
0 0 -97 0 -97 -32 -9 c-35 -9 -77 1 -90 21 -4 7 -8 50 -8 97 l0 85 -81 0 c-44
0 -83 -2 -85 -4z m137 -65 c-2 -23 -9 -44 -15 -48 -7 -5 -5 -8 7 -8 12 0 17
-8 16 -27 l-1 -28 -8 25 c-8 24 -8 24 -9 3 -2 -42 45 -75 111 -77 14 -1 24 -4
21 -8 -2 -5 0 -8 5 -8 6 0 12 7 16 15 3 8 12 12 21 9 18 -7 18 -6 15 109 l-1
87 58 0 58 0 0 -120 0 -120 -57 0 c-32 0 -57 4 -55 9 1 5 -2 9 -7 9 -5 0 -13
6 -17 14 -7 10 -9 9 -9 -3 0 -19 -40 -30 -85 -23 -25 4 -26 3 -10 -5 15 -7 8
-10 -33 -10 -39 -1 -54 3 -59 15 -5 13 -7 13 -14 2 -7 -10 -12 -9 -26 6 -16
18 -16 19 0 7 10 -8 17 -9 17 -3 0 6 3 19 6 29 4 12 3 14 -3 6 -5 -7 -19 -10
-31 -6 -21 5 -22 11 -22 99 l0 95 58 -2 57 -2 -4 -41z"/>
<path d="M1132 1145 c0 -16 2 -22 5 -12 2 9 2 23 0 30 -3 6 -5 -1 -5 -18z"/>
<path d="M1225 1070 c11 -5 27 -9 35 -9 9 0 8 4 -5 9 -11 5 -27 9 -35 9 -9 0
-8 -4 5 -9z"/>
<path d="M965 1290 c-3 -5 -1 -10 4 -10 6 0 11 5 11 10 0 6 -2 10 -4 10 -3 0
-8 -4 -11 -10z"/>
<path d="M928 1283 c7 -3 16 -2 19 1 4 3 -2 6 -13 5 -11 0 -14 -3 -6 -6z"/>
<path d="M2195 1210 c-3 -5 1 -10 9 -10 9 0 16 5 16 10 0 6 -4 10 -9 10 -6 0
-13 -4 -16 -10z"/>
<path d="M332 1180 c0 -14 2 -19 5 -12 2 6 2 18 0 25 -3 6 -5 1 -5 -13z"/>
<path d="M615 1190 c-3 -6 1 -7 9 -4 18 7 21 14 7 14 -6 0 -13 -4 -16 -10z"/>
<path d="M933 1130 c0 -41 2 -58 4 -37 2 20 2 54 0 75 -2 20 -4 3 -4 -38z"/>
<path d="M2153 1120 c0 -36 2 -50 4 -32 2 17 2 47 0 65 -2 17 -4 3 -4 -33z"/>
<path d="M1256 1147 c3 -10 9 -15 12 -12 3 3 0 11 -7 18 -10 9 -11 8 -5 -6z"/>
<path d="M336 1133 c-6 -14 -5 -15 5 -6 7 7 10 15 7 18 -3 3 -9 -2 -12 -12z"/>
<path d="M977 1063 c-4 -3 -7 -11 -7 -17 0 -6 5 -5 12 2 6 6 9 14 7 17 -3 3
-9 2 -12 -2z"/>
<path d="M394 1039 c-19 -21 -40 -26 -28 -7 4 7 3 8 -5 4 -16 -10 -4 -25 19
-23 10 1 17 3 15 6 -9 9 17 30 31 24 8 -3 14 -3 14 0 0 15 -31 13 -46 -4z"/>
<path d="M1831 1024 c0 -11 3 -14 6 -6 3 7 2 16 -1 19 -3 4 -6 -2 -5 -13z"/>
<path d="M2128 1007 c-3 -19 -2 -25 4 -19 6 6 8 18 6 28 -3 14 -5 12 -10 -9z"/>
<path d="M1040 1010 c0 -6 7 -10 15 -10 8 0 15 2 15 4 0 2 -7 6 -15 10 -8 3
-15 1 -15 -4z"/>
<path d="M2160 1005 c-7 -8 -9 -15 -6 -15 4 0 14 7 22 15 9 8 11 15 6 15 -5 0
-15 -7 -22 -15z"/>
<path d="M762 986 c7 -8 15 -12 17 -11 5 6 -10 25 -20 25 -5 0 -4 -6 3 -14z"/>
<path d="M823 993 c9 -2 23 -2 30 0 6 3 -1 5 -18 5 -16 0 -22 -2 -12 -5z"/>
<path d="M940 989 c0 -5 5 -7 10 -4 6 3 10 8 10 11 0 2 -4 4 -10 4 -5 0 -10
-5 -10 -11z"/>
<path d="M1393 993 c9 -2 23 -2 30 0 6 3 -1 5 -18 5 -16 0 -22 -2 -12 -5z"/>
<path d="M1688 993 c12 -2 30 -2 40 0 9 3 -1 5 -23 4 -22 0 -30 -2 -17 -4z"/>
<path d="M2023 993 c9 -2 23 -2 30 0 6 3 -1 5 -18 5 -16 0 -22 -2 -12 -5z"/>
<path d="M528 983 c6 -2 18 -2 25 0 6 3 1 5 -13 5 -14 0 -19 -2 -12 -5z"/>
<path d="M1228 983 c7 -3 16 -2 19 1 4 3 -2 6 -13 5 -11 0 -14 -3 -6 -6z"/>
<path d="M1490 981 c0 -10 19 -25 25 -20 1 2 -3 10 -11 17 -8 7 -14 8 -14 3z"/>
<path d="M588 973 c7 -3 16 -2 19 1 4 3 -2 6 -13 5 -11 0 -14 -3 -6 -6z"/>
<path d="M1048 973 c7 -3 16 -2 19 1 4 3 -2 6 -13 5 -11 0 -14 -3 -6 -6z"/>
<path d="M1450 960 c-12 -7 -10 -9 7 -7 12 0 19 5 17 9 -6 10 -6 10 -24 -2z"/>
<path d="M1755 960 c-3 -6 1 -7 9 -4 18 7 21 14 7 14 -6 0 -13 -4 -16 -10z"/>
<path d="M1820 960 c0 -5 5 -10 11 -10 5 0 7 5 4 10 -3 6 -8 10 -11 10 -2 0
-4 -4 -4 -10z"/>
<path d="M490 946 c0 -4 12 -30 26 -59 150 -297 485 -487 819 -463 200 15 365
86 533 231 43 37 129 149 166 216 40 73 43 84 21 75 -65 -24 -553 -66 -780
-66 -223 0 -704 41 -769 66 -9 3 -16 3 -16 0z m176 -49 c17 3 24 1 17 -4 -7
-5 16 -9 55 -9 37 -1 121 -7 187 -13 158 -14 551 -14 712 1 70 6 156 12 190
12 34 0 56 4 50 8 -6 4 7 7 28 7 22 0 47 1 55 2 32 4 60 -1 60 -12 0 -5 -5 -7
-12 -3 -8 5 -9 2 -5 -9 5 -13 1 -17 -17 -17 -29 0 -59 -32 -53 -57 3 -15 6
-14 15 9 12 29 30 44 40 33 4 -3 -1 -11 -11 -16 -9 -6 -17 -16 -17 -22 0 -7
-18 -30 -40 -52 -21 -21 -37 -42 -34 -46 8 -14 -17 -22 -29 -9 -10 10 -8 11 8
6 15 -6 17 -4 8 5 -18 18 -35 2 -23 -22 6 -10 7 -18 3 -17 -5 2 -22 -9 -38
-24 -16 -16 -34 -28 -40 -28 -5 0 -3 5 5 10 9 6 10 10 3 10 -6 0 -15 -4 -18
-10 -3 -5 -14 -10 -24 -10 -24 0 -55 -35 -48 -54 5 -12 0 -14 -26 -10 -23 3
-27 2 -12 -4 18 -8 17 -9 -9 -16 -17 -4 -33 -2 -42 5 -8 6 -14 7 -14 2 0 -6
10 -15 23 -22 12 -6 15 -10 7 -8 -8 3 -28 -2 -43 -10 -16 -8 -35 -12 -43 -9
-8 3 -14 1 -14 -4 0 -6 -9 -10 -19 -10 -11 0 -22 -4 -25 -8 -7 -12 -52 -16
-156 -15 -61 0 -75 -2 -50 -7 25 -5 17 -6 -25 -3 -89 6 -135 15 -130 23 3 5
-4 6 -14 3 -19 -5 -181 44 -181 55 0 2 10 2 21 -1 16 -4 19 -3 11 5 -5 5 -23
11 -39 13 -38 3 -58 12 -94 46 -19 18 -28 33 -23 41 5 9 2 9 -10 -1 -15 -13
-20 -11 -47 18 -16 18 -29 29 -29 25 0 -4 -9 1 -20 11 -11 10 -17 22 -14 26 3
5 0 9 -6 9 -6 0 -15 11 -22 25 -6 13 -15 22 -20 18 -6 -3 -4 5 3 18 11 22 11
23 -5 10 -16 -13 -17 -13 -14 0 1 8 -13 29 -32 47 -34 32 -35 32 -15 48 16 14
17 16 3 11 -11 -4 -18 -1 -18 6 0 8 -4 6 -10 -3 -5 -8 -10 -10 -10 -4 0 20 11
22 60 9 26 -7 61 -11 76 -8z m1104 -293 c0 -2 -13 -9 -30 -18 -30 -15 -39 -9
-19 11 9 9 49 15 49 7z"/>
<path d="M598 883 c7 -3 16 -2 19 1 4 3 -2 6 -13 5 -11 0 -14 -3 -6 -6z"/>
<path d="M1933 875 c-20 -22 -15 -28 8 -11 12 8 28 12 37 9 10 -4 13 -2 8 5
-10 16 -38 14 -53 -3z"/>
<path d="M570 860 c8 -5 22 -10 30 -10 13 0 13 1 0 10 -8 5 -22 10 -30 10 -13
0 -13 -1 0 -10z"/>
<path d="M1138 843 c12 -2 32 -2 45 0 12 2 2 4 -23 4 -25 0 -35 -2 -22 -4z"/>
<path d="M1243 843 c20 -2 54 -2 75 0 20 2 3 4 -38 4 -41 0 -58 -2 -37 -4z"/>
<path d="M1238 813 c23 -2 61 -2 85 0 23 2 4 4 -43 4 -47 0 -66 -2 -42 -4z"/>
<path d="M686 711 c-3 -5 1 -14 8 -20 16 -13 32 2 21 19 -8 12 -22 13 -29 1z
m24 -11 c0 -5 -2 -10 -4 -10 -3 0 -8 5 -11 10 -3 6 -1 10 4 10 6 0 11 -4 11
-10z"/>
<path d="M1690 630 c-8 -5 -12 -12 -9 -15 4 -3 12 1 19 10 14 17 11 19 -10 5z"/>
<path d="M818 618 c9 -9 15 -9 24 0 9 9 7 12 -12 12 -19 0 -21 -3 -12 -12z"/>
<path d="M850 596 c0 -8 5 -18 10 -21 6 -3 10 1 10 9 0 8 -4 18 -10 21 -5 3
-10 -1 -10 -9z"/>
<path d="M1178 463 c6 -2 18 -2 25 0 6 3 1 5 -13 5 -14 0 -19 -2 -12 -5z"/>
<path d="M858 943 c7 -3 16 -2 19 1 4 3 -2 6 -13 5 -11 0 -14 -3 -6 -6z"/>
<path d="M1048 943 c6 -2 18 -2 25 0 6 3 1 5 -13 5 -14 0 -19 -2 -12 -5z"/>
<path d="M1585 940 c27 -12 43 -12 25 0 -8 5 -22 9 -30 9 -10 0 -8 -3 5 -9z"/>
<path d="M1688 943 c7 -3 16 -2 19 1 4 3 -2 6 -13 5 -11 0 -14 -3 -6 -6z"/>
<path d="M1128 933 c6 -2 18 -2 25 0 6 3 1 5 -13 5 -14 0 -19 -2 -12 -5z"/>
<path d="M1373 933 c9 -2 23 -2 30 0 6 3 -1 5 -18 5 -16 0 -22 -2 -12 -5z"/>
<path d="M873 923 c9 -2 23 -2 30 0 6 3 -1 5 -18 5 -16 0 -22 -2 -12 -5z"/>
<path d="M1653 923 c9 -2 23 -2 30 0 6 3 -1 5 -18 5 -16 0 -22 -2 -12 -5z"/>
<path d="M1058 913 c12 -2 32 -2 45 0 12 2 2 4 -23 4 -25 0 -35 -2 -22 -4z"/>
<path d="M1458 913 c12 -2 32 -2 45 0 12 2 2 4 -23 4 -25 0 -35 -2 -22 -4z"/>
<path d="M1278 393 c6 -2 18 -2 25 0 6 3 1 5 -13 5 -14 0 -19 -2 -12 -5z"/>
<path d="M1541 2296 c2 -2 18 -6 34 -10 22 -5 26 -4 15 4 -14 9 -59 15 -49 6z"/>
<path d="M641 2124 c0 -11 3 -14 6 -6 3 7 2 16 -1 19 -3 4 -6 -2 -5 -13z"/>
<path d="M1983 2073 c-15 -5 -17 -23 -4 -23 5 0 11 7 15 15 3 8 4 15 3 14 -1
0 -8 -3 -14 -6z"/>
<path d="M2390 1545 c-2 -29 -2 -29 -9 -5 -6 22 -8 23 -14 7 -4 -11 -1 -24 8
-33 13 -13 15 -12 21 10 3 14 4 31 1 38 -3 7 -6 0 -7 -17z"/>
<path d="M161 1534 c0 -11 3 -14 6 -6 3 7 2 16 -1 19 -3 4 -6 -2 -5 -13z"/>
<path d="M2392 1280 c0 -14 2 -19 5 -12 2 6 2 18 0 25 -3 6 -5 1 -5 -13z"/>
<path d="M2382 1145 c0 -11 4 -33 8 -50 7 -27 8 -27 8 -5 0 14 -4 36 -8 50 -6
20 -8 21 -8 5z"/>
<path d="M2364 1034 c-4 -14 -2 -30 5 -37 8 -8 11 -1 11 26 0 43 -7 48 -16 11z"/>
<path d="M162 980 c0 -14 2 -19 5 -12 2 6 2 18 0 25 -3 6 -5 1 -5 -13z"/>
<path d="M2218 839 c-3 -8 1 -20 8 -27 15 -14 17 -7 5 22 -6 15 -9 16 -13 5z"/>
<path d="M328 822 c-3 -11 0 -19 7 -19 7 0 10 8 7 19 -2 10 -6 18 -7 18 -1 0
-5 -8 -7 -18z"/>
<path d="M415 650 c-3 -5 -1 -10 4 -10 6 0 11 5 11 10 0 6 -2 10 -4 10 -3 0
-8 -4 -11 -10z"/>
<path d="M487 576 c-4 -10 -1 -13 9 -9 15 6 19 23 5 23 -5 0 -11 -7 -14 -14z"/>
<path d="M2042 578 c-8 -10 -5 -13 13 -13 14 0 21 5 18 13 -3 6 -9 12 -13 12
-4 0 -12 -6 -18 -12z"/>
<path d="M567 496 c-4 -10 -1 -13 9 -9 15 6 19 23 5 23 -5 0 -11 -7 -14 -14z"/>
<path d="M1717 338 c-15 -12 -14 -13 12 -13 22 0 27 3 19 13 -6 6 -11 12 -12
12 -1 0 -10 -6 -19 -12z"/>
<path d="M1000 270 c-11 -7 -3 -10 30 -9 34 0 40 2 25 9 -27 12 -37 12 -55 0z"/>
<path d="M1503 263 c9 -2 23 -2 30 0 6 3 -1 5 -18 5 -16 0 -22 -2 -12 -5z"/>
<path d="M1538 243 c6 -2 18 -2 25 0 6 3 1 5 -13 5 -14 0 -19 -2 -12 -5z"/>
</g>
</svg>
