<?xml version="1.0" standalone="no"?>
<!DOCTYPE svg PUBLIC "-//W3C//DTD SVG 20010904//EN"
 "http://www.w3.org/TR/2001/REC-SVG-20010904/DTD/svg10.dtd">
<svg version="1.0" xmlns="http://www.w3.org/2000/svg"
 width="64.000000pt" height="64.000000pt" viewBox="0 0 64.000000 64.000000"
 preserveAspectRatio="xMidYMid meet">
<metadata>
Created by potrace 1.16, written by Peter Selinger 2001-2019
</metadata>
<g transform="translate(0.000000,64.000000) scale(0.100000,-0.100000)"
fill="#000000" stroke="none">
<path d="M211 593 c-48 -17 -133 -95 -166 -153 -11 -18 -26 -43 -32 -55 -22
-36 -9 -185 17 -185 4 0 20 -20 34 -44 105 -179 379 -191 497 -22 15 23 38 54
51 71 20 25 23 41 23 113 0 73 -3 86 -21 101 -12 9 -29 31 -37 48 -24 45 -101
109 -154 127 -58 20 -154 19 -212 -1z m224 -27 c46 -21 135 -103 135 -124 0
-5 12 -22 26 -37 24 -26 26 -34 22 -98 -3 -48 -9 -73 -19 -81 -9 -6 -26 -30
-37 -52 -24 -47 -65 -85 -126 -116 -58 -31 -174 -31 -232 0 -57 29 -102 69
-121 106 -9 17 -26 44 -39 59 -35 42 -34 124 3 184 46 75 105 135 158 159 69
33 161 33 230 0z"/>
<path d="M230 560 c-41 -13 -67 -32 -102 -70 -27 -28 -48 -56 -48 -61 0 -6 23
-7 63 -2 77 10 294 10 365 1 32 -4 52 -3 52 3 0 5 -24 34 -52 63 -41 42 -66
58 -107 70 -70 20 -103 20 -171 -4z m163 -16 c25 -9 65 -32 88 -52 l41 -37
-202 0 -202 0 42 37 c71 63 149 81 233 52z"/>
<path d="M100 392 c-60 -18 -79 -94 -35 -137 20 -21 34 -25 83 -25 l59 0 -2
47 c-2 47 -2 47 -38 49 -30 1 -37 -3 -37 -18 0 -10 7 -18 15 -18 17 0 20 -16
5 -25 -20 -12 -50 15 -50 45 0 35 29 55 71 46 22 -4 29 -2 29 10 0 8 -6 17
-12 19 -21 8 -72 12 -88 7z"/>
<path d="M420 305 c0 -73 1 -75 25 -75 24 0 25 2 25 75 0 73 -1 75 -25 75 -24
0 -25 -2 -25 -75z m27 -22 c-2 -16 -4 -5 -4 22 0 28 2 40 4 28 2 -13 2 -35 0
-50z"/>
<path d="M527 374 c-4 -4 -7 -18 -7 -31 0 -14 -4 -21 -10 -18 -5 3 -10 -3 -10
-14 0 -12 5 -21 10 -21 6 0 10 -13 10 -30 0 -25 4 -30 25 -30 21 0 25 5 25 30
0 17 5 30 10 30 6 0 10 7 10 15 0 8 -4 15 -10 15 -5 0 -10 7 -10 16 0 11 5 14
16 10 11 -4 14 -1 12 12 -3 17 -57 30 -71 16z m20 -96 c-2 -13 -4 -3 -4 22 0
25 2 35 4 23 2 -13 2 -33 0 -45z"/>
<path d="M249 328 c-1 -2 -3 -16 -4 -33 -4 -54 9 -64 75 -64 l60 1 0 48 c0 44
-2 48 -25 48 -22 0 -25 -5 -25 -34 0 -24 -5 -34 -15 -34 -10 0 -15 11 -15 35
0 31 -3 35 -25 35 -14 0 -26 -1 -26 -2z m108 -60 c-3 -7 -5 -2 -5 12 0 14 2
19 5 13 2 -7 2 -19 0 -25z"/>
<path d="M102 163 c52 -73 115 -107 205 -111 64 -4 80 -1 128 23 51 24 125 97
125 122 0 7 -12 8 -37 2 -53 -13 -326 -12 -392 0 -29 6 -56 11 -58 11 -3 0 10
-21 29 -47z m292 1 l120 6 -29 -30 c-91 -95 -240 -93 -333 3 l-32 33 77 -9
c43 -5 132 -6 197 -3z"/>
</g>
</svg>
