<?xml version="1.0" standalone="no"?>
<!DOCTYPE svg PUBLIC "-//W3C//DTD SVG 20010904//EN"
 "http://www.w3.org/TR/2001/REC-SVG-20010904/DTD/svg10.dtd">
<svg version="1.0" xmlns="http://www.w3.org/2000/svg"
 width="192.000000pt" height="192.000000pt" viewBox="0 0 192.000000 192.000000"
 preserveAspectRatio="xMidYMid meet">
<metadata>
Created by potrace 1.16, written by Peter Selinger 2001-2019
</metadata>
<g transform="translate(0.000000,192.000000) scale(0.100000,-0.100000)"
fill="#000000" stroke="none">
<path d="M683 1701 c-66 -31 -447 -259 -595 -354 -79 -50 -88 -60 -88 -87 0
-35 17 -47 190 -136 112 -58 117 -59 195 -59 79 0 82 1 185 59 58 33 115 66
128 74 21 14 22 13 22 -12 0 -21 -5 -26 -25 -26 -38 0 -92 -25 -104 -48 -6
-12 -11 -45 -11 -75 0 -49 3 -58 30 -80 l30 -26 -37 6 c-21 2 -64 11 -96 19
-135 33 -207 12 -207 -60 0 -48 30 -80 102 -106 76 -27 125 -55 138 -80 12
-23 26 -118 44 -315 8 -82 19 -162 25 -177 10 -27 13 -28 81 -28 61 0 71 3 84
23 16 25 35 110 71 322 33 197 38 217 66 262 l24 38 22 -210 c22 -217 49 -411
59 -426 7 -12 151 -11 159 1 11 18 34 173 55 380 11 113 23 216 26 230 6 25 6
25 21 5 31 -41 45 -93 84 -314 42 -237 55 -291 73 -303 6 -4 41 -8 79 -8 63 0
68 2 77 25 5 14 19 116 30 228 11 111 23 214 26 229 10 49 41 76 127 108 45
17 92 42 105 56 30 34 31 97 0 118 -28 20 -107 21 -185 2 -32 -8 -74 -16 -94
-19 l-36 -5 29 28 c24 25 28 36 28 85 0 46 -4 60 -24 80 -24 24 -82 41 -114
33 -14 -4 -17 2 -17 37 l0 41 142 -68 c130 -62 149 -68 206 -68 86 0 107 16
107 81 0 45 -3 51 -32 69 -49 30 -320 163 -638 312 -359 169 -340 161 -425
165 -72 4 -86 1 -142 -26z m332 -58 c439 -204 790 -375 853 -413 40 -24 45
-70 10 -94 -52 -37 -92 -24 -396 123 -158 76 -309 146 -335 156 -48 18 -49 18
-105 -5 -73 -29 -160 -75 -400 -213 -187 -107 -195 -111 -255 -111 -57 -1 -72
4 -177 58 -137 70 -190 103 -190 116 0 18 550 357 683 421 94 45 146 39 312
-38z m252 -310 l145 -67 -40 -12 c-23 -6 -67 -32 -99 -58 l-58 -46 -3 65 c-3
57 -6 67 -33 89 -43 37 -115 36 -159 -1 -30 -25 -31 -28 -28 -93 l3 -68 -30
21 c-16 12 -49 36 -73 54 -24 18 -55 33 -70 33 -16 0 -22 4 -17 9 22 21 271
141 293 141 13 0 89 -30 169 -67z m-108 -49 c56 -47 36 -142 -34 -160 -64 -16
-115 24 -115 90 0 37 5 48 31 70 17 15 43 26 59 26 16 0 42 -11 59 -26z m271
-53 c8 -6 14 -24 13 -47 -1 -31 -11 -46 -65 -101 l-63 -64 38 -34 c83 -73 157
-87 302 -60 144 27 172 29 200 11 57 -37 16 -91 -102 -136 -86 -32 -117 -59
-127 -108 -3 -15 -15 -118 -26 -229 -11 -112 -25 -214 -30 -228 -8 -22 -15
-25 -57 -25 -27 0 -53 4 -59 8 -18 12 -31 66 -73 302 -22 124 -44 238 -50 253
-18 47 -72 120 -82 110 -5 -5 -22 -130 -39 -278 -28 -262 -44 -367 -55 -386
-8 -11 -112 -12 -119 -1 -10 17 -36 202 -57 407 -11 116 -24 224 -28 240 l-7
30 -38 -57 c-43 -64 -46 -75 -81 -283 -57 -336 -61 -345 -135 -345 -46 0 -51
3 -61 27 -6 16 -17 96 -25 178 -18 197 -32 292 -44 315 -13 25 -62 53 -138 80
-60 22 -102 57 -102 86 0 8 9 23 21 35 24 24 53 23 204 -6 142 -27 214 -14
298 56 l38 31 -71 74 c-70 74 -84 106 -58 132 26 26 74 13 144 -39 74 -55 161
-99 197 -99 43 0 119 35 188 88 91 69 119 81 149 63z m-672 -123 c32 -31 31
-100 -3 -133 -52 -53 -155 -12 -155 62 0 46 15 72 53 89 38 16 74 10 105 -18z
m787 18 c63 -26 75 -97 26 -147 -38 -37 -88 -39 -128 -5 -50 43 -32 130 32
157 28 11 31 11 70 -5z m-716 -123 c-19 -22 -29 -15 -29 19 0 30 0 31 20 13
15 -14 17 -21 9 -32z m564 -12 c-2 -3 -11 3 -20 12 -14 14 -14 18 -2 33 13 16
14 15 20 -12 3 -16 4 -31 2 -33z"/>
<path d="M204 794 c-4 -15 -4 -95 0 -178 l6 -151 52 -49 c29 -27 92 -80 141
-117 71 -55 96 -69 124 -69 l34 0 -7 112 c-9 169 -30 316 -48 343 -9 13 -30
35 -48 48 -47 35 -174 87 -214 87 -28 0 -35 -4 -40 -26z m127 -25 c82 -34 131
-68 155 -104 17 -25 38 -176 48 -327 4 -70 2 -88 -9 -88 -15 0 -162 112 -241
184 l-52 46 -7 135 c-8 142 -3 185 19 185 8 0 47 -14 87 -31z"/>
</g>
</svg>
