<?xml version="1.0" standalone="no"?>
<!DOCTYPE svg PUBLIC "-//W3C//DTD SVG 20010904//EN"
 "http://www.w3.org/TR/2001/REC-SVG-20010904/DTD/svg10.dtd">
<svg version="1.0" xmlns="http://www.w3.org/2000/svg"
 width="100.000000pt" height="124.000000pt" viewBox="0 0 100.000000 124.000000"
 preserveAspectRatio="xMidYMid meet">
<metadata>
Created by potrace 1.16, written by Peter Selinger 2001-2019
</metadata>
<g transform="translate(0.000000,124.000000) scale(0.100000,-0.100000)"
fill="#000000" stroke="none">
<path d="M388 1192 c-3 -8 -124 -82 -134 -82 -3 0 -10 -5 -17 -10 -7 -6 -33
-24 -60 -40 -42 -26 -47 -34 -47 -65 0 -40 20 -65 74 -90 40 -19 48 -49 16
-58 -18 -5 -20 -14 -20 -89 0 -65 4 -90 20 -115 11 -18 23 -33 27 -33 5 0 21
-11 37 -25 l29 -25 -86 0 -87 0 0 -152 c0 -84 3 -170 6 -190 l7 -38 58 0 59 0
0 -48 c0 -26 5 -53 12 -60 9 -9 73 -12 225 -12 135 0 213 -4 213 -10 0 -5 17
-10 38 -10 30 0 39 5 50 27 6 15 12 40 12 55 0 23 4 28 24 28 25 0 66 41 66
66 0 7 10 14 23 16 19 3 22 10 25 61 3 52 1 59 -17 64 -18 4 -21 13 -21 54 0
27 -6 67 -12 89 -13 39 -14 40 -60 40 -41 0 -48 -3 -48 -20 0 -17 -7 -20 -50
-20 -43 0 -50 3 -50 20 0 16 -7 20 -35 20 -39 0 -41 5 -29 93 8 58 21 52 30
-14 6 -42 11 -52 33 -60 14 -6 40 -8 57 -4 27 5 32 11 38 43 3 20 6 58 6 85 0
54 18 77 76 102 34 14 35 16 34 62 -2 27 1 55 4 64 4 9 6 34 4 55 -3 39 -4 39
-113 94 -60 31 -143 70 -182 88 -40 18 -73 37 -73 42 0 12 -157 14 -162 2z
m142 -22 c0 -6 23 -20 50 -32 28 -12 50 -26 50 -30 0 -5 4 -7 9 -3 5 3 15 0
23 -7 7 -7 19 -13 26 -14 29 -2 33 -5 26 -16 -4 -6 -3 -8 4 -5 14 9 43 -3 36
-14 -3 -5 1 -7 8 -4 7 2 40 -10 73 -28 53 -28 60 -36 60 -62 0 -25 -4 -30 -28
-33 -16 -2 -42 1 -58 7 -28 9 -29 9 -29 -19 0 -25 4 -29 38 -35 21 -3 45 -5
53 -3 25 5 24 -49 -1 -62 -12 -6 -24 -9 -27 -6 -9 9 -63 -54 -63 -75 0 -11 -5
-17 -10 -14 -13 8 -2 55 17 75 7 8 28 20 46 26 18 6 33 18 35 27 3 12 -5 15
-35 12 -21 -1 -42 2 -46 9 -6 8 -10 8 -14 -1 -8 -21 -66 -15 -96 9 l-27 22 31
32 c28 29 30 34 18 55 -9 18 -14 20 -17 9 -8 -24 -31 -42 -43 -34 -8 4 -4 11
10 19 24 12 17 25 -22 38 -15 6 -16 2 -11 -21 4 -15 11 -32 16 -39 13 -16 -45
-45 -75 -38 -13 4 -36 17 -52 31 -15 13 -31 24 -34 25 -3 0 -14 2 -23 4 -28 5
-21 -14 17 -49 34 -31 34 -32 15 -48 -13 -12 -20 -13 -24 -5 -2 7 -5 4 -5 -5
-1 -14 -10 -18 -41 -18 l-40 0 0 55 c0 55 6 62 43 56 5 -1 6 3 3 8 -4 5 6 16
21 24 16 8 42 22 59 33 27 15 34 16 48 5 15 -13 15 -25 0 -81 -3 -11 5 -15 31
-15 26 0 34 4 31 15 -3 8 -7 25 -11 38 -4 13 -3 29 2 35 4 7 1 6 -7 -3 -14
-16 -17 -15 -33 6 -16 22 -16 23 2 29 20 6 66 -12 193 -75 45 -22 92 -40 105
-40 48 0 21 29 -64 70 -49 24 -138 67 -200 96 -61 30 -118 54 -127 54 -15 0
-114 -48 -126 -60 -3 -3 -42 -28 -87 -54 -46 -26 -83 -52 -83 -56 0 -5 13 -16
30 -24 16 -9 44 -23 60 -32 24 -13 37 -14 62 -5 37 13 51 5 24 -15 -29 -21
-72 -17 -124 12 -50 27 -72 49 -72 71 0 16 89 75 101 67 5 -3 9 2 9 11 0 11 5
15 15 11 8 -3 15 -1 15 4 0 9 79 55 91 53 3 -1 12 7 19 18 11 15 26 19 72 19
32 0 58 -4 58 -10z m-32 -49 c9 -5 33 -16 52 -25 34 -15 34 -16 8 -16 -16 0
-28 -4 -28 -8 0 -5 -6 -9 -13 -9 -6 0 -30 -11 -52 -25 -22 -13 -47 -28 -55
-31 -8 -4 -33 -18 -55 -32 -22 -13 -47 -24 -56 -25 -17 0 -79 28 -79 37 0 7
43 42 53 43 5 0 27 13 50 29 96 65 139 81 175 62z m38 -229 c-3 -5 17 -5 45
-2 52 7 58 4 33 -15 -10 -6 -18 -25 -20 -41 -1 -16 -6 -69 -10 -119 -5 -63 -9
-82 -14 -64 -8 27 -19 126 -20 170 0 14 -9 36 -20 49 -24 28 -24 30 -4 30 8 0
13 -4 10 -8z m-176 -28 c0 -9 -13 -12 -39 -9 -56 5 -64 -20 -11 -36 22 -7 46
-19 53 -28 18 -21 30 -68 18 -75 -5 -3 -12 9 -16 27 -8 30 -9 30 -12 7 -2 -14
0 -43 6 -65 7 -33 9 -35 10 -12 1 34 21 36 21 2 0 -31 -31 -94 -47 -95 -6 0
-18 6 -25 13 -7 7 -27 23 -44 35 -42 29 -56 66 -52 138 2 49 6 59 21 58 12 -1
17 6 17 25 0 25 3 26 50 27 34 0 50 -4 50 -12z m320 -101 c6 -28 10 -54 9 -59
-1 -5 1 -16 4 -24 3 -8 10 -31 15 -50 16 -68 56 -40 52 38 -1 17 3 32 9 32 24
0 6 -116 -18 -123 -42 -11 -56 8 -70 89 -16 97 -30 144 -42 144 -5 0 -9 -17
-9 -37 0 -20 -5 -74 -12 -120 -9 -65 -16 -84 -30 -89 -10 -3 -25 1 -33 10 -19
18 -35 100 -35 172 0 29 -4 55 -9 58 -11 7 -31 -38 -31 -70 0 -14 -4 -44 -9
-67 -6 -23 -12 -54 -16 -69 -4 -22 -10 -27 -28 -24 -12 3 -28 5 -34 5 -7 1
-13 11 -13 24 1 20 2 21 14 5 24 -33 43 -22 51 30 4 26 9 51 12 56 3 4 6 25 7
47 3 56 52 140 58 97 0 -7 2 -17 2 -23 1 -5 5 -15 8 -21 4 -6 6 -35 6 -65 -1
-30 2 -61 6 -68 4 -6 6 -17 3 -24 -7 -19 11 -57 28 -57 14 0 19 11 16 37 -1 6
3 14 8 18 6 3 8 12 4 20 -3 8 -2 23 2 32 4 10 9 41 11 68 3 44 9 92 13 104 5
15 43 -56 51 -96z m-226 45 c-2 -13 -10 -56 -17 -95 -6 -40 -14 -73 -18 -73
-4 0 -10 35 -14 78 -4 42 -12 83 -18 91 -10 12 -6 13 20 9 18 -2 30 -1 27 4
-3 4 2 8 10 8 10 0 13 -7 10 -22z m300 13 c15 -1 16 -4 6 -16 -6 -8 -14 -51
-17 -95 -3 -45 -9 -77 -13 -73 -4 4 -13 44 -20 88 -6 44 -13 85 -15 91 -2 6 7
9 18 8 12 -1 30 -3 41 -3z m-239 -223 c3 -21 10 -38 15 -38 4 0 3 -11 -3 -25
-15 -32 -27 -32 -27 -1 0 14 -6 26 -13 28 -10 2 -10 16 -3 58 9 59 19 53 31
-22z m-117 -64 c3 -18 -3 -22 -32 -26 -34 -4 -36 -2 -36 25 0 26 3 28 33 25
24 -2 33 -8 35 -24z m-168 -21 c0 -25 -1 -25 -13 -9 -8 11 -20 17 -27 14 -17
-5 -14 -169 3 -180 12 -7 29 11 21 23 -2 4 0 10 6 14 6 4 10 -8 10 -29 0 -38
3 -40 68 -36 29 1 32 -1 32 -29 0 -16 -4 -33 -10 -36 -5 -3 -10 -15 -10 -26 0
-14 7 -19 25 -19 24 0 25 3 25 60 0 53 -2 60 -20 60 -11 0 -20 7 -20 15 0 18
12 19 28 3 9 -9 12 -9 12 1 0 9 8 11 25 7 21 -5 25 -2 29 26 9 55 3 84 -18 86
-21 1 -43 19 -34 27 3 3 17 1 32 -4 25 -10 26 -9 26 24 0 32 2 35 30 35 25 0
30 -4 30 -24 0 -13 6 -27 13 -29 9 -4 8 -8 -3 -16 -12 -8 -16 -5 -20 17 -3 15
-11 27 -18 27 -16 0 -23 -181 -7 -195 6 -5 58 -9 115 -10 160 -2 167 -1 185
16 8 9 24 14 34 11 20 -5 37 28 20 39 -5 3 -9 21 -9 41 0 26 -5 36 -20 40 -11
3 -20 10 -20 15 0 5 6 8 13 5 6 -2 24 0 40 4 20 6 27 4 27 -7 0 -8 -8 -14 -17
-14 -16 -1 -16 -2 2 -16 15 -11 19 -25 17 -60 -1 -27 2 -43 8 -39 6 3 10 -1
10 -10 0 -11 -5 -15 -15 -11 -8 3 -15 2 -15 -3 0 -5 -9 -11 -20 -14 -19 -5
-20 -17 -5 -84 5 -21 2 -23 -40 -23 -33 0 -45 -4 -45 -15 0 -11 12 -15 45 -15
43 0 45 -1 45 -28 0 -40 -22 -82 -42 -82 -10 0 -18 4 -18 10 0 5 -37 10 -82
12 l-81 3 -12 35 -13 35 -3 -35 -4 -35 -115 -1 c-65 -1 -120 3 -127 8 -16 13
-17 70 -1 86 18 18 7 22 -64 23 -65 1 -66 2 -70 31 -3 16 -1 31 4 34 4 3 8 -7
8 -22 0 -42 18 -17 24 33 3 30 1 43 -10 47 -10 4 -14 -2 -14 -19 0 -14 -4 -25
-9 -25 -5 0 -10 58 -10 130 l-2 130 36 0 c31 0 35 -3 35 -27z m80 14 c0 -8
-13 -13 -35 -13 -22 0 -35 5 -35 13 0 8 13 13 35 13 22 0 35 -5 35 -13z m333
-4 c28 -4 37 -10 37 -24 0 -12 7 -19 19 -19 14 0 17 -6 13 -26 -4 -24 -3 -25
15 -15 20 10 33 6 33 -11 0 -4 -8 -8 -19 -8 -10 0 -26 -11 -35 -25 -15 -23
-15 -26 4 -45 11 -11 19 -20 18 -21 -2 0 -15 -2 -30 -4 -30 -4 -35 4 -16 23 9
9 7 13 -5 18 -9 3 -17 11 -17 16 0 6 7 8 15 4 11 -4 15 1 15 17 0 18 -2 19
-10 7 -5 -8 -10 -13 -11 -10 0 3 -2 13 -4 23 -2 10 3 17 12 17 8 0 12 5 9 13
-3 6 -9 20 -12 30 -4 10 -17 17 -31 17 -14 0 -22 -4 -18 -10 4 -6 1 -18 -6
-26 -10 -13 -10 -17 0 -23 8 -5 12 -23 10 -44 -2 -19 3 -42 10 -51 8 -9 11
-20 7 -24 -4 -4 -14 2 -22 12 -12 17 -14 18 -14 3 0 -13 -9 -17 -35 -17 -19 0
-35 5 -35 11 0 8 -5 7 -15 -1 -25 -20 -31 -2 -7 20 12 11 19 27 16 35 -4 8 -2
15 4 15 6 0 13 -13 17 -30 8 -37 32 -39 45 -5 11 29 4 135 -9 148 -15 15 -31
-2 -31 -31 0 -34 -10 -72 -19 -72 -12 0 -3 101 10 116 8 10 20 13 33 9 12 -4
38 -9 59 -12z m246 -49 c12 -39 12 -47 0 -55 -11 -7 -12 -12 -1 -29 6 -11 12
-26 12 -34 0 -7 9 -16 20 -19 28 -7 24 -81 -5 -85 -11 -2 -27 -17 -35 -34 -16
-34 -45 -57 -56 -45 -4 4 -8 35 -8 69 l-1 63 38 6 c27 4 37 2 37 -8 0 -7 -7
-13 -15 -13 -8 0 -16 -8 -16 -17 -1 -17 -2 -17 -6 0 -2 9 -9 17 -14 17 -13 0
-7 -60 6 -60 5 0 2 -7 -8 -14 -15 -12 -16 -14 -2 -20 12 -4 21 6 35 39 11 25
26 45 35 45 18 0 21 20 3 21 -10 0 -10 2 0 6 19 8 14 23 -8 23 -13 0 -20 7
-20 20 0 11 -4 20 -10 20 -17 0 -11 62 8 76 16 13 16 13 -2 14 -13 0 -17 5
-13 20 4 16 0 20 -19 20 -13 0 -24 5 -24 10 0 6 13 10 28 10 24 0 29 -6 41
-46z m-629 16 c0 -5 -2 -10 -4 -10 -3 0 -8 5 -11 10 -3 6 -1 10 4 10 6 0 11
-4 11 -10z m63 -11 c17 -17 18 -21 5 -16 -14 5 -18 1 -18 -14 0 -16 4 -19 18
-14 28 11 34 11 39 -2 3 -8 -3 -13 -15 -13 -24 0 -46 -25 -39 -45 4 -8 2 -17
-3 -20 -16 -10 -21 13 -8 40 9 19 9 28 0 37 -12 12 -17 68 -7 68 3 0 16 -10
28 -21z m202 -9 c3 -5 1 -10 -4 -10 -6 0 -11 5 -11 10 0 6 2 10 4 10 3 0 8 -4
11 -10z m70 0 c-3 -5 -10 -10 -16 -10 -5 0 -9 5 -9 10 0 6 7 10 16 10 8 0 12
-4 9 -10z m-345 -10 c0 -5 -9 -10 -21 -10 -11 0 -17 5 -14 10 3 6 13 10 21 10
8 0 14 -4 14 -10z m252 -44 c6 -28 -9 -59 -23 -51 -5 4 -9 22 -9 41 0 40 25
48 32 10z m88 -5 c0 -11 -4 -23 -10 -26 -6 -4 -10 5 -10 19 0 14 5 26 10 26 6
0 10 -9 10 -19z m-330 -22 c0 -16 -4 -28 -9 -25 -5 3 -7 16 -3 29 5 19 3 20
-10 9 -9 -7 -19 -9 -22 -4 -7 13 4 22 26 22 13 0 18 -8 18 -31z m114 -1 c-8
-28 -12 -33 -20 -25 -9 8 6 47 17 47 6 0 7 -10 3 -22z m382 -26 c-4 -3 -11 -1
-18 6 -8 8 -8 15 3 28 13 16 14 16 17 -5 2 -13 1 -25 -2 -29z m-458 -21 c29
-2 9 -21 -23 -21 -24 0 -35 5 -35 15 0 10 7 14 23 11 12 -3 28 -5 35 -5z m182
-6 c0 -8 -4 -15 -10 -15 -5 0 -10 7 -10 15 0 8 5 15 10 15 6 0 10 -7 10 -15z"/>
<path d="M513 1007 c-26 -12 -30 -25 -8 -33 8 -4 12 -10 9 -15 -3 -5 -1 -9 4
-9 8 0 24 61 18 66 0 1 -11 -3 -23 -9z"/>
<path d="M755 950 c-4 -7 -16 -10 -26 -7 -11 3 -16 1 -13 -4 3 -5 -1 -12 -10
-15 -22 -8 0 -51 29 -57 21 -3 24 0 27 42 5 51 4 58 -7 41z"/>
<path d="M388 909 c-2 -22 -1 -42 2 -44 3 -2 23 5 45 15 22 11 35 19 29 20 -7
0 -14 10 -17 22 -4 12 -9 19 -13 15 -4 -3 -15 -2 -24 3 -16 8 -18 4 -22 -31z"/>
<path d="M242 749 c3 -60 4 -63 51 -102 26 -22 49 -38 51 -36 2 2 -1 38 -7 80
l-11 77 -43 21 -44 21 3 -61z m74 -25 c3 -12 4 -32 2 -43 -3 -21 -3 -21 -30 4
-18 17 -28 36 -28 55 0 28 1 29 25 18 14 -6 28 -21 31 -34z"/>
<path d="M326 792 c-3 -5 1 -9 9 -9 8 0 12 4 9 9 -3 4 -7 8 -9 8 -2 0 -6 -4
-9 -8z"/>
<path d="M812 400 c0 -14 2 -19 5 -12 2 6 2 18 0 25 -3 6 -5 1 -5 -13z"/>
<path d="M385 318 c-11 -12 -7 -88 5 -102 5 -4 10 19 12 53 3 62 1 69 -17 49z"/>
<path d="M763 323 c-16 -6 -18 -113 -3 -113 6 0 10 21 9 48 -1 27 1 54 5 60 8
13 7 13 -11 5z"/>
<path d="M417 313 c-3 -4 -4 -19 -2 -33 1 -14 3 -36 4 -49 2 -42 14 -13 14 34
0 45 -6 64 -16 48z"/>
<path d="M216 277 c-11 -43 -7 -55 24 -59 28 -4 30 -3 30 29 0 20 4 32 10 28
6 -3 10 -18 10 -33 l1 -27 13 30 c17 38 10 61 -12 43 -8 -7 -18 -11 -21 -9 -3
2 -16 7 -27 12 -18 6 -23 3 -28 -14z m34 -27 c0 -11 -4 -20 -10 -20 -5 0 -10
9 -10 20 0 11 5 20 10 20 6 0 10 -9 10 -20z"/>
<path d="M560 291 c-41 -5 -45 -9 -45 -34 -1 -34 12 -58 19 -37 3 8 7 24 9 35
3 11 5 3 6 -17 1 -38 1 -38 -39 -38 -23 0 -40 5 -40 11 0 6 7 9 15 5 12 -4 15
3 15 34 0 23 -5 40 -11 40 -7 0 -9 -10 -5 -24 3 -14 2 -28 -4 -31 -6 -4 -10 6
-10 24 0 17 -5 31 -11 31 -8 0 -10 -15 -7 -45 l6 -45 -49 0 c-37 0 -49 -4 -49
-15 0 -13 13 -14 78 -10 42 2 83 1 91 -4 18 -12 41 28 41 70 0 16 4 29 9 29 5
0 9 -17 9 -37 0 -21 4 -53 9 -72 l8 -34 13 27 c7 15 16 24 22 21 14 -9 30 29
30 74 0 37 -2 41 -25 41 -29 0 -34 -16 -7 -23 16 -4 16 -5 -1 -6 -14 -1 -17
-9 -15 -38 2 -21 -1 -38 -7 -38 -6 0 -8 24 -6 58 1 31 1 56 -1 55 -1 0 -23 -4
-48 -7z m100 -81 c0 -5 -4 -10 -10 -10 -5 0 -10 5 -10 10 0 6 5 10 10 10 6 0
10 -4 10 -10z"/>
<path d="M680 246 c0 -25 5 -46 10 -46 6 0 10 16 10 35 0 19 5 35 11 35 6 0 9
-10 7 -22 -1 -13 2 -24 7 -25 6 -2 10 12 10 30 0 28 -4 32 -27 35 -27 3 -28 2
-28 -42z"/>
<path d="M574 150 c3 -19 11 -39 17 -45 8 -7 9 0 4 25 -4 19 -12 40 -17 45 -7
7 -9 -1 -4 -25z"/>
<path d="M670 139 c0 -50 26 -54 32 -5 3 27 0 36 -14 39 -15 4 -18 -1 -18 -34z
m17 -16 c-3 -10 -5 -4 -5 12 0 17 2 24 5 18 2 -7 2 -21 0 -30z"/>
<path d="M416 159 c8 -14 -17 -21 -31 -9 -12 10 -17 7 -26 -14 -12 -26 -33
-34 -42 -16 -3 6 -4 5 -3 -2 3 -17 78 -21 88 -5 5 8 8 8 8 1 0 -7 22 -11 61
-11 59 0 60 1 57 26 -3 25 -38 44 -38 21 0 -7 6 -10 13 -7 8 3 14 -3 14 -14 1
-10 -3 -19 -8 -19 -6 0 -7 5 -3 12 4 6 3 8 -3 5 -12 -8 -36 17 -26 26 3 4 1 7
-5 7 -16 0 -15 -23 0 -38 9 -9 8 -12 -4 -12 -13 0 -31 31 -30 51 1 3 -5 6 -13
6 -8 0 -12 -4 -9 -8z m-26 -35 c0 -8 -4 -14 -10 -14 -5 0 -10 9 -10 21 0 11 5
17 10 14 6 -3 10 -13 10 -21z m42 -6 c-9 -9 -12 -7 -12 12 0 19 3 21 12 12 9
-9 9 -15 0 -24z"/>
<path d="M330 145 c0 -8 2 -15 4 -15 2 0 6 7 10 15 3 8 1 15 -4 15 -6 0 -10
-7 -10 -15z"/>
<path d="M634 151 c3 -5 -1 -14 -9 -21 -8 -7 -12 -16 -9 -21 6 -11 44 -12 44
-1 -1 21 -13 52 -22 52 -5 0 -7 -4 -4 -9z"/>
<path d="M716 144 c-12 -30 -6 -44 17 -43 21 0 21 1 2 8 -19 8 -19 8 2 19 18
10 22 8 26 -10 4 -12 9 -19 13 -16 11 12 -7 50 -22 44 -8 -3 -14 -1 -14 4 0
16 -17 11 -24 -6z"/>
</g>
</svg>
