<?xml version="1.0" standalone="no"?>
<!DOCTYPE svg PUBLIC "-//W3C//DTD SVG 20010904//EN"
 "http://www.w3.org/TR/2001/REC-SVG-20010904/DTD/svg10.dtd">
<svg version="1.0" xmlns="http://www.w3.org/2000/svg"
 width="101.000000pt" height="101.000000pt" viewBox="0 0 101.000000 101.000000"
 preserveAspectRatio="xMidYMid meet">
<metadata>
Created by potrace 1.16, written by Peter Selinger 2001-2019
</metadata>
<g transform="translate(0.000000,101.000000) scale(0.100000,-0.100000)"
fill="#000000" stroke="none">
<path d="M255 868 c-199 -114 -255 -152 -255 -171 0 -16 4 -15 43 8 226 139
333 198 365 202 31 4 62 -6 179 -61 204 -94 407 -197 415 -210 4 -6 8 0 8 15
0 25 -17 35 -257 149 -234 112 -264 124 -323 127 -64 4 -66 4 -175 -59z"/>
<path d="M495 736 c-39 -18 -117 -61 -175 -95 -58 -33 -117 -61 -131 -61 -14
0 -60 18 -102 40 -85 45 -87 46 -87 25 0 -8 31 -30 71 -51 63 -31 79 -35 128
-32 31 2 64 8 74 12 14 7 17 3 17 -26 l0 -34 -72 0 -73 1 -3 -37 c-3 -35 -6
-38 -33 -38 l-29 0 0 -90 c0 -49 5 -99 11 -112 6 -13 40 -47 77 -76 70 -55
116 -68 125 -35 3 12 5 8 6 -9 1 -21 7 -28 30 -33 16 -3 40 -3 54 0 28 7 31
16 62 195 9 52 20 101 25 109 10 18 13 3 33 -172 8 -65 17 -120 19 -123 3 -3
21 -7 39 -10 61 -10 68 5 87 168 24 207 25 207 66 -20 14 -74 28 -137 31 -140
9 -9 91 -9 100 -1 3 4 12 66 20 139 8 73 19 138 25 144 6 6 34 22 63 36 50 24
52 27 52 65 l0 40 -72 -1 c-69 0 -72 1 -67 21 3 11 0 33 -5 48 l-11 27 36 -15
c20 -8 56 -15 80 -15 39 0 44 3 44 22 0 17 -3 19 -12 10 -22 -22 -52 -13 -229
73 -97 47 -183 85 -190 85 -8 0 -46 -15 -84 -34z m152 -26 l67 -31 -29 -17
-29 -18 -16 30 c-32 65 -121 56 -128 -12 l-3 -31 -34 22 -34 22 62 32 c34 18
65 32 70 33 4 0 38 -14 74 -30z m-39 -32 c17 -17 15 -53 -3 -68 -38 -31 -96
27 -65 65 15 18 51 20 68 3z m150 -44 c2 -12 -11 -33 -33 -54 -19 -18 -35 -37
-35 -42 0 -4 17 -19 37 -33 43 -29 107 -33 192 -13 40 9 54 9 64 -1 19 -19 -2
-40 -62 -64 -64 -26 -65 -27 -81 -190 -6 -60 -13 -114 -16 -119 -3 -4 -16 -8
-30 -8 -31 0 -35 12 -64 174 -16 96 -29 140 -48 168 -14 21 -27 37 -29 34 -2
-2 -13 -82 -24 -177 -10 -96 -21 -180 -24 -186 -2 -7 -17 -13 -34 -13 -28 0
-29 1 -39 78 -6 42 -16 128 -23 190 -6 61 -13 112 -14 112 -10 0 -53 -82 -58
-110 -48 -274 -47 -270 -78 -270 -15 0 -30 4 -33 8 -2 4 -10 57 -16 118 -16
159 -21 169 -83 192 -57 22 -79 44 -60 63 10 10 27 10 76 1 99 -18 137 -15
180 13 20 14 37 28 37 32 0 3 -18 26 -40 50 -65 70 -32 86 56 28 29 -19 66
-38 82 -41 31 -6 81 15 142 60 38 29 54 29 58 0z m52 -4 c12 -8 11 -10 -7 -10
-13 0 -23 5 -23 10 0 13 11 13 30 0z m-429 -40 c37 -20 18 -80 -26 -80 -42 0
-59 44 -29 74 18 19 28 20 55 6z m447 -2 c15 -15 15 -51 0 -66 -18 -18 -56
-14 -68 7 -14 27 -13 37 6 55 18 19 45 21 62 4z m-596 -238 c13 -17 21 -54 27
-120 5 -52 7 -97 5 -99 -1 -2 -36 23 -76 56 l-73 59 -3 87 -3 87 52 -23 c29
-12 61 -34 71 -47z"/>
</g>
</svg>
