<?xml version="1.0" standalone="no"?>
<!DOCTYPE svg PUBLIC "-//W3C//DTD SVG 20010904//EN"
 "http://www.w3.org/TR/2001/REC-SVG-20010904/DTD/svg10.dtd">
<svg version="1.0" xmlns="http://www.w3.org/2000/svg"
 width="100.000000pt" height="84.000000pt" viewBox="0 0 100.000000 84.000000"
 preserveAspectRatio="xMidYMid meet">
<metadata>
Created by potrace 1.16, written by Peter Selinger 2001-2019
</metadata>
<g transform="translate(0.000000,84.000000) scale(0.100000,-0.100000)"
fill="#000000" stroke="none">
<path d="M480 750 c0 -5 4 -10 9 -10 6 0 13 5 16 10 3 6 -1 10 -9 10 -9 0 -16
-4 -16 -10z"/>
<path d="M538 743 c7 -3 16 -2 19 1 4 3 -2 6 -13 5 -11 0 -14 -3 -6 -6z"/>
<path d="M330 720 c8 -5 20 -10 25 -10 6 0 3 5 -5 10 -8 5 -19 10 -25 10 -5 0
-3 -5 5 -10z"/>
<path d="M518 713 c7 -3 16 -2 19 1 4 3 -2 6 -13 5 -11 0 -14 -3 -6 -6z"/>
<path d="M325 664 c-127 -71 -190 -112 -188 -119 5 -13 99 -55 126 -55 26 0
106 34 117 50 10 14 132 70 154 70 11 0 72 -25 134 -55 113 -55 162 -67 162
-42 0 16 -369 197 -402 197 -12 0 -59 -21 -103 -46z m95 25 c-12 -8 -9 -9 13
-5 15 4 27 2 27 -4 0 -5 8 -10 18 -10 23 -1 67 -26 56 -32 -5 -3 -23 -9 -41
-12 -17 -4 -37 -14 -44 -22 -6 -8 -16 -14 -21 -14 -6 0 -30 -13 -55 -30 -24
-16 -51 -30 -59 -30 -7 0 -14 -5 -14 -11 0 -7 -12 -8 -32 -4 -26 5 -30 4 -18
-5 13 -10 13 -11 0 -7 -10 2 -14 13 -12 30 3 23 0 27 -20 26 -18 -1 -19 -2 -5
-6 20 -5 18 -24 -3 -31 -8 -3 -10 0 -5 8 6 9 4 12 -7 8 -9 -4 -15 0 -15 8 0 7
21 23 46 34 63 28 76 37 74 47 -1 5 8 10 19 10 11 1 28 9 37 17 22 20 28 20
34 -1 3 -12 5 -9 6 8 1 28 8 39 25 39 6 0 4 -5 -4 -11z"/>
<path d="M480 650 c0 -5 10 -10 23 -10 18 0 19 2 7 10 -19 13 -30 13 -30 0z"/>
<path d="M325 617 c-16 -13 -15 -14 12 -10 17 3 34 0 37 -6 4 -6 11 -11 17
-11 5 0 0 9 -11 20 -24 24 -30 24 -55 7z"/>
<path d="M323 571 c2 -25 7 -26 33 -5 14 12 15 14 3 11 -9 -3 -21 -1 -27 5 -8
8 -11 5 -9 -11z"/>
<path d="M160 665 c0 -8 2 -15 4 -15 2 0 6 7 10 15 3 8 1 15 -4 15 -6 0 -10
-7 -10 -15z"/>
<path d="M626 672 c-2 -4 4 -8 14 -9 11 -1 22 2 25 8 4 5 -3 9 -14 9 -11 0
-22 -4 -25 -8z"/>
<path d="M695 660 c3 -5 10 -10 16 -10 5 0 9 5 9 10 0 6 -7 10 -16 10 -8 0
-12 -4 -9 -10z"/>
<path d="M205 649 c-10 -15 3 -25 16 -12 7 7 7 13 1 17 -6 3 -14 1 -17 -5z"/>
<path d="M768 593 c6 -2 18 -2 25 0 6 3 1 5 -13 5 -14 0 -19 -2 -12 -5z"/>
<path d="M828 593 c7 -3 16 -2 19 1 4 3 -2 6 -13 5 -11 0 -14 -3 -6 -6z"/>
<path d="M840 563 c0 -4 5 -15 10 -23 8 -13 10 -13 10 2 0 9 -4 20 -10 23 -5
3 -10 3 -10 -2z"/>
<path d="M90 550 c0 -5 7 -10 16 -10 8 0 12 5 9 10 -3 6 -10 10 -16 10 -5 0
-9 -4 -9 -10z"/>
<path d="M507 554 c-14 -15 -6 -43 14 -49 25 -8 42 6 37 31 -3 19 -38 31 -51
18z"/>
<path d="M604 510 c-48 -36 -88 -38 -136 -5 -36 25 -68 33 -68 17 0 -4 15 -22
33 -40 22 -21 36 -29 43 -22 7 7 16 6 28 -3 17 -12 17 -14 2 -20 -11 -4 -16
-1 -16 11 0 14 -2 15 -10 2 -5 -8 -12 -11 -16 -7 -4 4 -22 -3 -41 -14 -35 -22
-55 -22 -140 -4 -29 7 -33 5 -33 -14 0 -11 5 -21 11 -21 6 0 26 -7 44 -16 31
-14 34 -20 40 -77 13 -131 15 -138 38 -135 19 3 24 15 39 100 15 85 43 167 53
156 2 -2 9 -46 15 -98 18 -158 18 -162 42 -158 12 2 22 12 24 23 5 35 24 214
24 225 0 20 16 9 32 -22 9 -18 24 -77 33 -131 16 -90 19 -98 39 -95 19 3 22
13 33 98 6 52 12 96 12 98 1 1 22 12 47 22 48 21 56 47 13 42 -101 -10 -139
-7 -161 15 l-22 23 29 30 c42 44 20 59 -31 20z m-20 -49 c3 -5 -1 -11 -9 -15
-8 -3 -15 -13 -15 -21 0 -9 -4 -14 -10 -10 -5 3 -7 -15 -4 -47 4 -38 3 -49 -5
-38 -7 10 -9 -2 -5 -45 3 -47 2 -55 -6 -36 -6 13 -12 59 -14 103 -3 61 -1 81
10 85 8 3 11 10 8 15 -4 6 2 7 16 3 15 -5 20 -4 16 4 -4 6 -3 11 3 11 5 0 12
-4 15 -9z m121 -82 c-22 -3 -31 -7 -21 -8 17 -1 18 -7 12 -53 -3 -29 -6 -69
-7 -88 0 -33 -1 -33 -10 -11 -5 13 -7 32 -4 42 4 11 1 19 -6 19 -8 0 -10 12
-7 38 4 24 1 42 -8 50 -24 22 -16 27 38 23 l53 -5 -40 -7z m-295 1 c8 -5 11
-12 7 -17 -5 -4 -12 -1 -17 7 -7 10 -10 11 -10 3 0 -7 -9 -13 -20 -13 -37 0
-23 20 20 29 3 0 12 -3 20 -9z m-11 -47 c0 -16 -3 -23 -5 -16 -3 7 -12 9 -20
6 -9 -3 -14 1 -14 12 0 9 4 14 9 10 5 -3 12 -1 16 5 10 17 15 11 14 -17z m-8
-37 c5 3 9 0 9 -5 0 -6 -4 -11 -8 -11 -4 0 -7 -17 -5 -37 2 -36 2 -37 -6 -8
-9 32 -13 88 -4 67 2 -6 9 -10 14 -6z"/>
<path d="M531 374 c0 -11 3 -14 6 -6 3 7 2 16 -1 19 -3 4 -6 -2 -5 -13z"/>
<path d="M677 337 c-4 -10 -7 -26 -7 -35 1 -15 2 -15 11 1 6 10 9 25 7 35 -3
16 -4 15 -11 -1z"/>
<path d="M865 510 c-3 -5 -1 -10 4 -10 6 0 11 5 11 10 0 6 -2 10 -4 10 -3 0
-8 -4 -11 -10z"/>
<path d="M360 485 c-16 -20 -6 -45 19 -45 25 0 34 14 26 40 -8 24 -28 26 -45
5z"/>
<path d="M662 483 c-13 -26 -4 -43 23 -43 13 0 25 6 28 13 6 17 -11 47 -28 47
-8 0 -18 -8 -23 -17z"/>
<path d="M165 470 c-3 -5 -3 -10 2 -10 4 0 19 -3 33 -6 24 -6 25 -6 5 9 -24
19 -32 21 -40 7z"/>
<path d="M828 473 c12 -2 30 -2 40 0 9 3 -1 5 -23 4 -22 0 -30 -2 -17 -4z"/>
<path d="M160 438 c0 -20 35 -25 46 -6 5 8 2 9 -11 4 -11 -4 -22 -2 -27 6 -6
10 -8 8 -8 -4z"/>
<path d="M864 439 c-3 -6 -1 -16 5 -22 8 -8 11 -5 11 11 0 24 -5 28 -16 11z"/>
<path d="M855 370 c-3 -5 1 -10 10 -10 9 0 13 5 10 10 -3 6 -8 10 -10 10 -2 0
-7 -4 -10 -10z"/>
<path d="M210 314 c5 -54 8 -59 59 -103 l54 -46 -8 70 c-4 39 -11 78 -17 88
-9 17 -64 47 -85 47 -5 0 -6 -25 -3 -56z m68 -5 c3 -11 2 -11 -7 1 -6 8 -11
11 -11 5 0 -13 20 -43 20 -30 0 10 20 -15 20 -26 0 -4 -11 -6 -25 -5 -22 1
-25 6 -25 39 0 38 19 49 28 16z m17 -80 c11 -16 1 -19 -13 -3 -7 8 -8 14 -3
14 5 0 13 -5 16 -11z"/>
<path d="M772 330 c0 -14 2 -19 5 -12 2 6 2 18 0 25 -3 6 -5 1 -5 -13z"/>
<path d="M602 300 c0 -14 2 -19 5 -12 2 6 2 18 0 25 -3 6 -5 1 -5 -13z"/>
<path d="M760 230 c0 -16 5 -30 10 -30 6 0 10 14 10 30 0 17 -4 30 -10 30 -5
0 -10 -13 -10 -30z"/>
<path d="M171 234 c0 -11 3 -14 6 -6 3 7 2 16 -1 19 -3 4 -6 -2 -5 -13z"/>
<path d="M602 220 c0 -14 2 -19 5 -12 2 6 2 18 0 25 -3 6 -5 1 -5 -13z"/>
<path d="M218 203 c6 -2 18 -2 25 0 6 3 1 5 -13 5 -14 0 -19 -2 -12 -5z"/>
<path d="M452 175 c0 -16 2 -22 5 -12 2 9 2 23 0 30 -3 6 -5 -1 -5 -18z"/>
<path d="M327 147 c-3 -9 -2 -19 4 -23 15 -9 18 -2 9 20 -6 17 -7 18 -13 3z"/>
<path d="M480 141 c0 -6 4 -13 10 -16 6 -3 7 1 4 9 -7 18 -14 21 -14 7z"/>
<path d="M265 130 c-16 -7 -17 -9 -3 -9 9 -1 20 4 23 9 7 11 7 11 -20 0z"/>
<path d="M410 130 c0 -5 5 -10 11 -10 5 0 7 5 4 10 -3 6 -8 10 -11 10 -2 0 -4
-4 -4 -10z"/>
<path d="M698 123 c7 -3 16 -2 19 1 4 3 -2 6 -13 5 -11 0 -14 -3 -6 -6z"/>
<path d="M792 60 c0 -14 2 -19 5 -12 2 6 2 18 0 25 -3 6 -5 1 -5 -13z"/>
<path d="M721 54 c0 -11 3 -14 6 -6 3 7 2 16 -1 19 -3 4 -6 -2 -5 -13z"/>
<path d="M750 50 c0 -5 5 -10 10 -10 6 0 10 5 10 10 0 6 -4 10 -10 10 -5 0
-10 -4 -10 -10z"/>
</g>
</svg>
