<?xml version="1.0" standalone="no"?>
<!DOCTYPE svg PUBLIC "-//W3C//DTD SVG 20010904//EN"
 "http://www.w3.org/TR/2001/REC-SVG-20010904/DTD/svg10.dtd">
<svg version="1.0" xmlns="http://www.w3.org/2000/svg"
 width="108.000000pt" height="108.000000pt" viewBox="0 0 108.000000 108.000000"
 preserveAspectRatio="xMidYMid meet">
<metadata>
Created by potrace 1.16, written by Peter Selinger 2001-2019
</metadata>
<g transform="translate(0.000000,108.000000) scale(0.100000,-0.100000)"
fill="#000000" stroke="none">
<path d="M210 540 c0 -187 3 -340 8 -340 4 0 7 153 7 340 0 187 -3 340 -7 340
-5 0 -8 -153 -8 -340z"/>
<path d="M254 540 c0 -190 2 -267 3 -172 2 94 2 250 0 345 -1 94 -3 17 -3
-173z"/>
<path d="M280 540 c0 -220 4 -340 10 -340 6 0 10 120 10 340 0 220 -4 340 -10
340 -6 0 -10 -120 -10 -340z"/>
<path d="M324 540 c0 -190 2 -267 3 -172 2 94 2 250 0 345 -1 94 -3 17 -3
-173z"/>
<path d="M350 540 c0 -220 4 -340 10 -340 6 0 10 120 10 340 0 220 -4 340 -10
340 -6 0 -10 -120 -10 -340z"/>
<path d="M390 540 c0 -210 4 -340 10 -340 6 0 9 129 8 340 -1 187 -5 340 -10
340 -4 0 -8 -153 -8 -340z"/>
<path d="M430 540 l0 -340 110 0 110 0 0 340 0 340 -110 0 -110 0 0 -340z
m192 236 l-3 -84 -65 -4 c-99 -5 -99 -5 -99 82 l0 75 85 6 c47 3 85 6 85 7 0
1 -1 -36 -3 -82z m-122 -162 c0 -53 0 -54 -30 -54 -29 0 -30 1 -30 48 0 56 0
57 34 58 25 2 26 0 26 -52z m34 -4 c1 -34 -3 -50 -11 -50 -14 0 -19 91 -6 103
12 12 17 -3 17 -53z m36 5 c0 -30 -4 -55 -10 -55 -5 0 -10 25 -10 55 0 30 5
55 10 55 6 0 10 -25 10 -55z m34 -5 c1 -28 -3 -50 -9 -50 -6 0 -9 23 -8 53 2
63 1 62 10 54 4 -4 7 -30 7 -57z m36 -1 c0 -27 -4 -49 -10 -49 -5 0 -10 25
-10 56 0 34 4 53 10 49 6 -3 10 -28 10 -56z m-18 -228 l3 -150 -85 -3 -85 -3
0 152 0 153 82 0 82 0 3 -149z"/>
<path d="M460 610 c0 -22 5 -40 10 -40 6 0 10 18 10 40 0 22 -4 40 -10 40 -5
0 -10 -18 -10 -40z"/>
<path d="M670 540 c0 -220 4 -340 10 -340 6 0 10 120 10 340 0 220 -4 340 -10
340 -6 0 -10 -120 -10 -340z"/>
<path d="M710 540 c0 -220 4 -340 10 -340 6 0 10 120 10 340 0 220 -4 340 -10
340 -6 0 -10 -120 -10 -340z"/>
<path d="M754 540 c0 -190 2 -267 3 -172 2 94 2 250 0 345 -1 94 -3 17 -3
-173z"/>
<path d="M780 540 c0 -220 4 -340 10 -340 6 0 10 120 10 340 0 220 -4 340 -10
340 -6 0 -10 -120 -10 -340z"/>
<path d="M824 540 c0 -190 2 -267 3 -172 2 94 2 250 0 345 -1 94 -3 17 -3
-173z"/>
<path d="M850 540 c0 -220 4 -340 10 -340 6 0 10 120 10 340 0 220 -4 340 -10
340 -6 0 -10 -120 -10 -340z"/>
</g>
</svg>
