<?xml version="1.0" standalone="no"?>
<!DOCTYPE svg PUBLIC "-//W3C//DTD SVG 20010904//EN"
 "http://www.w3.org/TR/2001/REC-SVG-20010904/DTD/svg10.dtd">
<svg version="1.0" xmlns="http://www.w3.org/2000/svg"
 width="100.000000pt" height="100.000000pt" viewBox="0 0 100.000000 100.000000"
 preserveAspectRatio="xMidYMid meet">
<metadata>
Created by potrace 1.16, written by Peter Selinger 2001-2019
</metadata>
<g transform="translate(0.000000,100.000000) scale(0.100000,-0.100000)"
fill="#000000" stroke="none">
<path d="M441 978 c0 -16 -5 -28 -11 -28 -5 0 -10 -13 -10 -30 0 -27 -3 -30
-30 -30 -16 0 -30 -4 -30 -10 0 -5 -11 -10 -25 -10 -24 0 -25 -3 -25 -60 0
-53 2 -60 20 -60 13 0 20 -7 20 -20 0 -15 -7 -20 -25 -20 -14 0 -25 -4 -25
-10 0 -5 -11 -10 -25 -10 -25 0 -25 0 -25 -95 l0 -95 -30 0 c-25 0 -30 -4 -29
-22 1 -17 2 -19 6 -5 7 27 33 21 33 -8 0 -18 -5 -25 -20 -25 -19 0 -20 -7 -20
-155 0 -148 1 -155 20 -155 16 0 20 -7 20 -30 0 -36 -26 -42 -33 -7 -4 19 -4
19 -6 -5 -1 -22 4 -27 26 -30 22 -2 29 -10 34 -33 5 -23 7 -25 8 -7 1 31 48
31 54 -1 l4 -22 2 23 c1 21 4 22 111 22 103 0 110 -1 110 -20 0 -11 5 -20 10
-20 6 0 10 13 10 30 0 27 3 30 30 30 26 0 30 3 29 28 -2 23 -2 24 -6 5 -7 -35
-33 -29 -33 7 0 23 4 30 20 30 16 0 20 7 20 30 0 23 -4 30 -20 30 -13 0 -20 7
-20 20 0 22 25 28 33 8 3 -7 6 -3 6 10 1 18 7 22 36 22 30 0 35 3 34 23 -1 16
-2 18 -6 5 -7 -29 -43 -23 -43 7 0 20 5 25 25 25 22 0 25 4 25 35 0 31 -3 35
-25 35 -18 0 -25 5 -25 20 0 22 39 29 41 8 0 -7 5 -3 11 10 7 13 20 22 35 22
19 0 23 5 23 30 0 27 3 30 30 30 25 0 30 4 30 23 -1 20 -2 20 -11 5 -14 -26
-29 -22 -29 7 0 18 5 25 20 25 15 0 20 7 20 25 0 14 5 25 10 25 6 0 10 33 10
80 0 47 -4 80 -10 80 -5 0 -10 9 -10 20 0 13 -7 20 -18 20 -23 0 -42 19 -42
42 0 14 -11 18 -62 20 -63 3 -63 3 -66 36 -3 28 -7 32 -33 32 -26 0 -29 3 -30
33 -1 29 -2 30 -8 7 -6 -23 -12 -26 -40 -21 -5 0 -12 11 -14 24 l-4 22 -2 -22
c-1 -16 -7 -23 -20 -23 -12 0 -21 8 -24 23 -4 19 -4 18 -6 -5z m59 -63 c0 -21
-5 -25 -30 -25 -25 0 -30 4 -30 25 0 21 5 25 30 25 25 0 30 -4 30 -25z m60 0
c0 -18 -5 -25 -20 -25 -15 0 -20 7 -20 25 0 18 5 25 20 25 15 0 20 -7 20 -25z
m40 -10 c0 -8 -4 -15 -10 -15 -5 0 -10 7 -10 15 0 8 5 15 10 15 6 0 10 -7 10
-15z m-180 -54 c0 -10 -10 -22 -22 -26 -23 -8 -22 -8 3 -12 21 -3 26 -9 22
-24 -3 -10 -12 -19 -19 -19 -8 0 -14 -4 -14 -10 0 -5 11 -10 25 -10 24 0 25 3
25 60 l0 60 90 0 90 0 0 -60 c0 -53 -2 -60 -20 -60 -15 0 -20 7 -20 25 0 14 6
25 13 26 10 0 10 2 0 6 -7 2 -13 13 -13 23 0 10 -4 22 -10 25 -6 4 -10 -25
-10 -79 l0 -86 -30 0 -30 0 0 -65 0 -65 -30 0 -30 0 0 -60 0 -60 -30 0 c-41 0
-38 26 5 45 17 8 16 9 -12 13 l-33 3 0 185 0 184 25 0 c18 0 25 -5 25 -19z
m-70 -36 c0 -47 -15 -62 -22 -22 -5 31 2 67 13 67 5 0 9 -20 9 -45z m380 24
c0 -5 -20 -9 -45 -9 -49 0 -62 17 -17 22 34 4 62 -2 62 -13z m20 -59 c0 -27 3
-30 30 -30 l30 0 0 -60 0 -60 -30 0 c-28 0 -30 -3 -30 -35 0 -32 -2 -35 -30
-35 l-30 0 0 -60 c0 -57 -1 -60 -25 -60 -18 0 -25 5 -25 20 0 13 7 20 20 20
11 0 20 5 20 10 0 6 -13 10 -30 10 l-30 0 0 -95 c0 -88 -1 -95 -20 -95 -26 0
-27 37 -2 56 16 12 15 13 -5 14 -27 0 -29 12 -8 34 20 20 19 26 -5 26 -19 0
-20 -7 -20 -155 l0 -155 -155 0 -155 0 0 185 c0 178 1 185 20 185 13 0 20 -7
20 -20 0 -11 -7 -20 -15 -20 -8 0 -15 -4 -15 -10 0 -5 7 -10 15 -10 18 0 20
-36 3 -44 -10 -5 -10 -7 -1 -12 17 -7 17 -51 1 -58 -10 -5 -10 -7 0 -12 6 -3
12 -14 12 -24 0 -10 -6 -21 -12 -24 -10 -5 -10 -7 0 -12 6 -3 12 -14 12 -24 0
-10 -6 -21 -12 -24 -10 -5 -10 -7 0 -12 6 -3 12 -14 12 -25 0 -10 5 -19 10
-19 6 0 10 97 10 270 0 263 0 270 20 270 25 0 26 -28 3 -46 -17 -13 -17 -13 0
-14 11 0 17 -8 17 -25 0 -14 -4 -25 -10 -25 -5 0 -10 -4 -10 -10 0 -5 6 -10
14 -10 9 0 12 -7 9 -20 -3 -11 -9 -20 -14 -20 -5 0 -9 -4 -9 -10 0 -5 9 -10
20 -10 19 0 20 -7 20 -125 l0 -125 25 0 c18 0 25 -5 25 -20 0 -22 -35 -28 -43
-7 -3 6 -6 2 -6 -10 -1 -19 4 -23 28 -23 24 0 28 -3 24 -20 -3 -11 0 -20 6
-20 8 0 11 45 11 145 l0 145 30 0 30 0 0 60 0 60 30 0 c28 0 30 3 30 35 0 32
2 35 30 35 26 0 30 4 30 28 -1 23 -2 25 -13 11 -7 -8 -20 -18 -29 -22 -14 -5
-18 -1 -18 18 0 21 5 25 30 25 27 0 30 3 30 30 l0 30 61 0 c41 0 58 3 53 11
-3 6 -15 9 -25 6 -14 -4 -19 0 -19 16 -1 20 -2 21 -14 5 -12 -16 -36 -25 -36
-14 0 2 -3 11 -6 20 -5 14 3 16 55 16 l61 0 0 -30z m50 0 c0 -5 -7 -10 -15
-10 -8 0 -15 5 -15 10 0 6 7 10 15 10 8 0 15 -4 15 -10z m-200 -60 c0 -5 -4
-10 -10 -10 -5 0 -10 5 -10 10 0 6 5 10 10 10 6 0 10 -4 10 -10z m-310 -120
c0 -47 -4 -80 -10 -80 -11 0 -11 5 -11 75 0 77 1 85 11 85 6 0 10 -33 10 -80z
m250 60 c0 -5 -4 -10 -10 -10 -5 0 -10 5 -10 10 0 6 5 10 10 10 6 0 10 -4 10
-10z m0 -55 c0 -14 -4 -25 -10 -25 -5 0 -10 11 -10 25 0 14 5 25 10 25 6 0 10
-11 10 -25z m250 -15 c0 -11 -4 -20 -10 -20 -5 0 -10 9 -10 20 0 11 5 20 10
20 6 0 10 -9 10 -20z m-310 -60 c0 -5 -4 -10 -10 -10 -5 0 -10 5 -10 10 0 6 5
10 10 10 6 0 10 -4 10 -10z m270 -10 c0 -13 -7 -20 -20 -20 -13 0 -20 7 -20
20 0 13 7 20 20 20 13 0 20 -7 20 -20z m-270 -40 c0 -11 -4 -20 -10 -20 -5 0
-10 9 -10 20 0 11 5 20 10 20 6 0 10 -9 10 -20z m250 -10 c0 -5 -4 -10 -10
-10 -5 0 -10 5 -10 10 0 6 5 10 10 10 6 0 10 -4 10 -10z m-500 -185 c0 -181
-18 -195 -22 -17 -3 135 -1 162 13 162 5 0 9 -65 9 -145z m190 115 c0 -11 -7
-20 -15 -20 -8 0 -15 9 -15 20 0 11 7 20 15 20 8 0 15 -9 15 -20z m0 -50 c0
-11 -7 -20 -15 -20 -8 0 -15 9 -15 20 0 11 7 20 15 20 8 0 15 -9 15 -20z m250
-5 c0 -16 -6 -25 -15 -25 -9 0 -15 9 -15 25 0 16 6 25 15 25 9 0 15 -9 15 -25z
m-250 -55 c0 -11 -6 -20 -14 -20 -7 0 -16 9 -19 20 -4 15 0 20 14 20 12 0 19
-7 19 -20z m200 -15 c0 -18 -5 -25 -20 -25 -25 0 -27 37 -2 43 9 3 18 5 20 6
1 0 2 -10 2 -24z m-20 -115 c0 -11 -4 -20 -10 -20 -5 0 -10 9 -10 20 0 11 5
20 10 20 6 0 10 -9 10 -20z m-310 -66 c0 -8 5 -14 10 -14 6 0 10 7 10 15 0 22
50 20 51 -2 1 -17 2 -17 6 0 6 21 53 24 53 2 0 -8 5 -15 10 -15 6 0 10 7 10
15 0 10 10 15 30 15 20 0 30 -5 30 -15 0 -8 5 -15 10 -15 6 0 10 6 10 14 0 7
9 16 20 19 17 4 20 0 20 -24 l0 -29 -155 0 -155 0 0 29 c0 24 3 28 20 24 11
-3 20 -12 20 -19z"/>
<path d="M500 830 c0 -13 7 -20 20 -20 24 0 25 6 6 26 -20 19 -26 18 -26 -6z"/>
<path d="M500 723 l0 -27 20 22 c11 12 20 24 20 27 0 3 -9 5 -20 5 -15 0 -20
-7 -20 -27z"/>
<path d="M424 725 c-4 -8 -12 -15 -20 -15 -8 0 -14 -4 -14 -10 0 -5 11 -10 25
-10 20 0 25 5 25 25 0 28 -8 33 -16 10z"/>
<path d="M440 599 c0 -17 4 -28 10 -24 6 3 10 13 10 21 0 8 5 14 10 14 6 0 10
5 10 10 0 6 -9 10 -20 10 -16 0 -20 -7 -20 -31z"/>
<path d="M750 689 l0 -53 22 24 c15 16 18 25 10 28 -7 2 -12 12 -12 22 0 10
-4 22 -10 25 -6 4 -10 -14 -10 -46z"/>
<path d="M670 720 c0 -5 -7 -10 -15 -10 -8 0 -15 -4 -15 -10 0 -5 11 -10 25
-10 18 0 25 5 25 20 0 11 -4 20 -10 20 -5 0 -10 -4 -10 -10z"/>
<path d="M690 599 c0 -17 4 -28 10 -24 6 3 10 11 10 17 0 6 8 17 18 24 15 12
14 13 -10 14 -25 0 -28 -4 -28 -31z"/>
<path d="M620 540 c0 -11 5 -20 10 -20 6 0 10 5 10 10 0 6 7 10 15 10 8 0 15
5 15 10 0 6 -11 10 -25 10 -18 0 -25 -5 -25 -20z"/>
<path d="M533 525 c-18 -20 -16 -25 7 -25 13 0 20 7 20 20 0 23 -10 25 -27 5z"/>
<path d="M477 410 c-22 -26 -21 -30 3 -30 15 0 20 7 20 25 0 30 -1 30 -23 5z"/>
<path d="M330 300 c0 -5 5 -10 10 -10 6 0 10 5 10 10 0 6 -4 10 -10 10 -5 0
-10 -4 -10 -10z"/>
<path d="M500 288 c0 -17 3 -19 9 -9 5 7 15 17 22 22 10 6 8 9 -8 9 -17 0 -23
-6 -23 -22z"/>
<path d="M330 240 c0 -5 5 -10 10 -10 6 0 10 5 10 10 0 6 -4 10 -10 10 -5 0
-10 -4 -10 -10z"/>
<path d="M500 193 l0 -57 22 24 c15 16 18 25 10 28 -14 4 -16 42 -2 42 6 0 10
5 10 10 0 6 -9 10 -20 10 -18 0 -20 -7 -20 -57z"/>
<path d="M843 803 c14 -4 18 -12 14 -29 -2 -13 0 -24 4 -24 5 0 9 14 9 30 0
25 -4 30 -22 29 -19 -1 -20 -2 -5 -6z"/>
<path d="M855 660 c0 -16 3 -30 8 -30 4 0 7 14 7 30 0 17 -3 30 -7 30 -5 0 -8
-13 -8 -30z"/>
</g>
</svg>
