<?xml version="1.0" standalone="no"?>
<!DOCTYPE svg PUBLIC "-//W3C//DTD SVG 20010904//EN"
 "http://www.w3.org/TR/2001/REC-SVG-20010904/DTD/svg10.dtd">
<svg version="1.0" xmlns="http://www.w3.org/2000/svg"
 width="100.000000pt" height="100.000000pt" viewBox="0 0 100.000000 100.000000"
 preserveAspectRatio="xMidYMid meet">
<metadata>
Created by potrace 1.16, written by Peter Selinger 2001-2019
</metadata>
<g transform="translate(0.000000,100.000000) scale(0.100000,-0.100000)"
fill="#000000" stroke="none">
<path d="M392 980 c-6 -11 -12 -28 -12 -39 0 -10 -7 -21 -15 -25 -9 -3 -15
-18 -15 -35 0 -16 -4 -33 -10 -36 -5 -3 -10 -17 -10 -30 0 -13 -4 -27 -10 -30
-5 -3 -10 -21 -10 -40 0 -19 -4 -37 -10 -40 -5 -3 -10 -24 -10 -45 0 -21 -4
-42 -10 -45 -5 -3 -10 -26 -10 -50 0 -24 -4 -47 -10 -50 -6 -3 -10 -26 -10
-50 0 -24 -5 -47 -10 -50 -6 -3 -10 -46 -10 -95 0 -49 -5 -92 -10 -95 -13 -8
-13 -225 0 -225 6 0 10 42 10 105 0 63 4 105 10 105 6 0 10 38 10 95 0 57 4
95 10 95 6 0 10 23 10 50 0 28 5 50 10 50 6 0 10 23 10 50 0 28 5 50 10 50 6
0 10 20 10 45 0 25 5 45 10 45 6 0 10 18 10 40 0 22 5 40 10 40 6 0 10 14 10
30 0 17 5 30 10 30 6 0 10 16 10 35 0 24 5 35 15 35 10 0 15 10 15 30 0 17 5
30 10 30 6 0 10 9 10 20 0 26 -12 26 -28 0z"/>
<path d="M480 990 c0 -5 14 -10 30 -10 17 0 30 -4 30 -10 0 -5 9 -10 20 -10
11 0 20 -4 20 -10 0 -5 9 -10 20 -10 16 0 20 -7 20 -30 0 -16 -4 -30 -10 -30
-5 0 -10 -11 -10 -25 0 -14 -4 -25 -10 -25 -5 0 -10 -13 -10 -30 0 -16 -4 -30
-10 -30 -5 0 -10 -18 -10 -40 0 -22 -4 -40 -10 -40 -5 0 -10 -7 -10 -16 0 -8
-4 -12 -10 -9 -5 3 -10 -3 -10 -14 0 -12 -4 -21 -10 -21 -5 0 -10 -11 -10 -25
0 -14 -4 -25 -10 -25 -5 0 -10 -9 -10 -20 0 -11 -4 -20 -10 -20 -5 0 -10 -9
-10 -20 0 -11 -4 -20 -10 -20 -5 0 -10 -9 -10 -20 0 -11 -4 -20 -10 -20 -5 0
-10 -13 -10 -30 0 -16 -4 -30 -10 -30 -5 0 -10 -16 -10 -35 0 -24 -5 -35 -15
-35 -10 0 -15 -10 -15 -30 0 -16 -4 -30 -10 -30 -5 0 -10 -22 -10 -50 0 -27
-4 -50 -10 -50 -6 0 -10 -35 -10 -85 0 -50 4 -85 10 -85 6 0 10 35 10 85 0 50
4 85 10 85 6 0 10 23 10 50 0 38 4 50 15 50 10 0 15 10 15 30 0 17 5 30 10 30
6 0 10 16 10 35 0 19 5 35 10 35 6 0 10 14 10 30 0 17 5 30 10 30 6 0 10 9 10
20 0 11 5 20 10 20 6 0 10 9 10 20 0 11 5 20 10 20 6 0 10 9 10 20 0 11 5 20
10 20 6 0 10 10 10 23 0 12 9 29 20 37 11 8 20 21 20 30 0 9 9 22 20 30 11 8
20 20 20 28 0 14 23 42 35 42 12 0 35 28 35 42 0 8 9 20 20 28 11 8 20 20 20
27 0 7 9 13 20 13 11 0 20 -5 20 -11 0 -14 26 -39 40 -39 7 0 25 -13 40 -30
15 -16 33 -30 39 -30 6 0 11 -13 11 -30 0 -16 -5 -30 -10 -30 -17 0 -60 -47
-60 -65 0 -8 -4 -15 -10 -15 -5 0 -10 -6 -10 -13 0 -7 -9 -19 -20 -27 -11 -8
-20 -22 -20 -32 0 -10 -4 -18 -10 -18 -5 0 -10 -8 -10 -18 0 -10 -9 -24 -20
-32 -11 -8 -20 -22 -20 -32 0 -10 -4 -18 -10 -18 -5 0 -10 -9 -10 -20 0 -11
-4 -20 -10 -20 -5 0 -10 -16 -10 -35 0 -24 -5 -35 -15 -35 -10 0 -15 -10 -15
-30 0 -16 -4 -30 -10 -30 -5 0 -10 -13 -10 -30 0 -16 -4 -30 -10 -30 -5 0 -10
-25 -10 -55 0 -30 -4 -55 -10 -55 -5 0 -10 -22 -10 -50 0 -27 5 -50 10 -50 6
0 10 18 10 40 0 22 5 40 10 40 6 0 10 25 10 55 0 30 5 55 10 55 6 0 10 14 10
30 0 17 5 30 10 30 6 0 10 14 10 30 0 20 5 30 15 30 10 0 15 11 15 35 0 19 5
35 10 35 6 0 10 9 10 20 0 11 5 20 10 20 6 0 10 8 10 18 0 10 9 24 20 32 11 8
20 22 20 32 0 10 5 18 10 18 6 0 10 8 10 18 0 10 9 24 20 32 11 8 20 20 20 27
0 7 5 13 10 13 6 0 10 7 10 15 0 18 43 65 60 65 5 0 10 22 10 50 0 30 -4 50
-11 50 -6 0 -24 14 -39 30 -15 17 -33 30 -40 30 -14 0 -40 25 -40 39 0 6 -18
11 -40 11 -26 0 -40 -5 -40 -13 0 -7 -9 -19 -20 -27 -11 -8 -20 -20 -20 -28 0
-16 -24 -42 -39 -42 -14 0 -14 17 -1 25 6 3 10 15 10 26 0 10 5 19 10 19 6 0
10 20 10 44 0 43 -1 45 -52 70 -52 26 -108 34 -108 16z"/>
<path d="M390 239 c0 -5 5 -7 10 -4 6 3 10 8 10 11 0 2 -4 4 -10 4 -5 0 -10
-5 -10 -11z"/>
</g>
</svg>
