<?xml version="1.0" standalone="no"?>
<!DOCTYPE svg PUBLIC "-//W3C//DTD SVG 20010904//EN"
 "http://www.w3.org/TR/2001/REC-SVG-20010904/DTD/svg10.dtd">
<svg version="1.0" xmlns="http://www.w3.org/2000/svg"
 width="192.000000pt" height="192.000000pt" viewBox="0 0 192.000000 192.000000"
 preserveAspectRatio="xMidYMid meet">
<metadata>
Created by potrace 1.16, written by Peter Selinger 2001-2019
</metadata>
<g transform="translate(0.000000,192.000000) scale(0.100000,-0.100000)"
fill="#000000" stroke="none">
<path d="M225 1887 c-117 -63 -226 -206 -224 -294 l0 -38 14 36 c55 149 146
245 291 304 l59 25 -40 -1 c-26 0 -61 -11 -100 -32z"/>
<path d="M690 1905 c181 -36 457 -35 582 0 l53 15 -80 -6 c-44 -3 -111 -9
-150 -12 -38 -4 -113 -4 -165 -1 -52 4 -144 9 -205 12 l-110 7 75 -15z"/>
<path d="M1580 1901 c152 -49 267 -149 319 -276 20 -50 20 -50 20 -16 2 121
-212 312 -348 310 l-46 0 55 -18z"/>
<path d="M405 1771 c-91 -23 -190 -103 -232 -190 -27 -53 -28 -63 -27 -191 1
-184 28 -315 180 -873 93 -344 110 -372 217 -372 53 0 72 6 132 39 88 48 266
174 387 273 143 117 414 395 506 518 93 124 174 278 198 375 20 80 14 182 -15
237 -75 149 -272 220 -447 163 -93 -31 -168 -69 -286 -146 -150 -99 -176 -109
-290 -109 -82 0 -101 3 -125 21 -38 28 -43 77 -12 111 22 23 28 24 100 17 82
-7 125 5 203 58 l36 25 -125 12 c-69 6 -159 18 -201 26 -80 16 -150 18 -199 6z
m181 -25 c44 -8 106 -18 139 -21 33 -3 76 -8 95 -12 l35 -6 -50 -23 c-44 -21
-59 -23 -130 -18 -76 6 -81 5 -103 -19 -19 -20 -23 -33 -20 -77 3 -45 7 -56
31 -74 25 -19 42 -21 145 -21 137 0 155 6 310 109 250 163 393 199 534 132
102 -48 171 -136 184 -233 14 -109 -67 -299 -208 -488 -92 -123 -363 -401
-506 -518 -224 -183 -425 -310 -497 -311 -86 -2 -110 42 -199 371 -146 536
-178 690 -180 853 -1 107 1 119 27 171 52 108 178 194 288 198 15 1 62 -5 105
-13z"/>
<path d="M1910 1254 c0 -14 -4 -44 -10 -67 -5 -23 -16 -80 -25 -127 -45 -236
-191 -814 -224 -886 -33 -71 -87 -135 -134 -158 l-32 -16 32 0 c47 0 105 56
148 144 36 75 147 501 225 866 21 98 38 270 26 270 -3 0 -6 -12 -6 -26z"/>
<path d="M1 1162 c-1 -54 28 -219 59 -332 6 -19 46 -170 91 -335 44 -165 92
-324 106 -354 14 -29 44 -73 68 -97 33 -35 48 -44 76 -44 l34 0 -33 17 c-42
21 -96 83 -126 148 -23 48 -158 528 -209 745 -23 94 -49 219 -60 290 -2 14 -5
-3 -6 -38z"/>
<path d="M1626 805 c-68 -87 -265 -290 -385 -397 l-84 -75 55 -64 c66 -79 138
-129 183 -129 40 0 88 37 114 89 24 46 187 638 179 647 -2 2 -30 -30 -62 -71z
m-52 -280 c-71 -260 -87 -299 -134 -339 -39 -33 -46 -32 -101 2 -44 28 -142
130 -137 143 2 4 62 61 133 126 72 66 168 163 215 216 46 53 86 95 87 93 1 -1
-27 -110 -63 -241z"/>
<path d="M1016 231 c-13 -20 -197 -139 -286 -183 -81 -41 -90 -48 -63 -48 39
0 155 60 276 143 l90 61 19 -25 c83 -104 176 -179 222 -179 30 0 30 1 -19 29
-51 29 -147 121 -187 178 -23 32 -42 41 -52 24z"/>
</g>
</svg>
