<?xml version="1.0" standalone="no"?>
<!DOCTYPE svg PUBLIC "-//W3C//DTD SVG 20010904//EN"
 "http://www.w3.org/TR/2001/REC-SVG-20010904/DTD/svg10.dtd">
<svg version="1.0" xmlns="http://www.w3.org/2000/svg"
 width="180.000000pt" height="132.000000pt" viewBox="0 0 180.000000 132.000000"
 preserveAspectRatio="xMidYMid meet">
<metadata>
Created by potrace 1.16, written by Peter Selinger 2001-2019
</metadata>
<g transform="translate(0.000000,132.000000) scale(0.100000,-0.100000)"
fill="#000000" stroke="none">
<path d="M1412 1302 c4 -28 -20 -52 -53 -52 -19 0 -29 -5 -29 -15 0 -12 -13
-15 -55 -15 -48 0 -55 -3 -55 -19 0 -11 -4 -23 -10 -26 -5 -3 -10 -15 -10 -26
0 -11 -7 -27 -15 -35 -8 -9 -15 -26 -15 -40 0 -19 -6 -26 -31 -31 l-30 -6 7
-63 c3 -35 3 -97 -1 -138 -6 -63 -10 -75 -27 -79 -19 -5 -20 -11 -14 -76 6
-62 4 -75 -17 -118 -14 -27 -30 -69 -37 -93 -19 -77 -21 -80 -37 -80 -12 0
-14 9 -8 50 6 42 4 50 -9 50 -11 0 -16 9 -16 31 0 28 -2 30 -32 27 -29 -3 -35
-8 -48 -47 -17 -52 -88 -123 -131 -132 -37 -8 -37 0 1 36 19 19 30 39 30 57 0
46 -44 38 -97 -17 -23 -25 -44 -45 -46 -45 -2 0 -2 13 1 30 9 62 -58 82 -102
29 -14 -17 -26 -35 -26 -40 0 -5 -20 -29 -45 -54 -51 -52 -47 -53 -150 20 -71
50 -175 158 -207 215 -21 37 -26 40 -58 38 -24 -2 -36 -8 -38 -21 -3 -15 0
-16 22 -6 14 7 27 10 29 8 80 -124 181 -228 278 -286 83 -50 81 -50 138 6 28
28 51 55 51 60 0 14 50 71 63 71 6 0 1 -10 -10 -22 -12 -13 -35 -53 -51 -91
-17 -37 -36 -67 -43 -67 -7 0 -9 -3 -6 -6 10 -11 57 25 58 44 1 11 4 8 9 -8 8
-24 8 -23 9 7 1 42 29 110 47 117 18 7 18 -8 -1 -24 -8 -7 -17 -28 -21 -49 -3
-20 -8 -44 -11 -53 -4 -17 -3 -17 26 -1 24 14 28 21 19 36 -5 10 -7 21 -4 24
8 9 26 -7 26 -25 0 -9 13 4 29 29 28 45 80 94 89 85 2 -3 -16 -28 -42 -57 -47
-52 -58 -76 -31 -65 8 3 15 0 15 -5 0 -7 8 -9 20 -5 11 3 30 9 43 12 21 5 21
5 3 -10 -11 -9 -18 -18 -15 -20 2 -3 34 24 70 59 45 44 69 76 77 104 12 38 28
59 38 49 2 -3 -3 -22 -11 -42 -16 -37 -15 -37 5 -26 12 6 26 9 33 7 7 -2 -2
-11 -19 -20 -29 -15 -44 -35 -44 -57 0 -16 42 3 50 24 9 21 9 21 9 1 1 -26
-17 -45 -41 -45 -11 0 -18 -7 -18 -20 0 -25 6 -25 55 0 22 11 47 20 57 20 12
0 21 13 28 43 19 73 30 101 55 146 24 41 25 48 15 104 -14 74 3 104 20 36 27
-109 32 -126 49 -148 15 -20 14 -11 -7 50 -25 75 -27 100 -21 299 1 47 -2 94
-6 105 -8 18 -7 19 9 5 10 -8 22 -23 27 -35 7 -14 8 -9 4 18 -4 26 -3 37 4 32
7 -4 11 4 11 19 0 13 3 33 7 43 6 15 9 13 14 -12 5 -24 7 -21 8 21 1 31 7 56
15 64 8 6 12 19 9 27 -4 10 -2 14 5 10 15 -10 32 -65 41 -139 8 -57 9 -59 9
-18 1 42 -6 87 -21 135 -6 16 -2 21 14 22 14 1 24 -7 33 -28 15 -37 26 -28 26
23 0 21 5 38 10 38 6 0 8 -11 4 -27 -7 -27 -6 -28 13 -10 11 9 23 14 26 10 4
-3 7 2 7 11 0 10 9 29 20 43 15 19 17 30 9 44 -13 24 -31 25 -27 1z"/>
<path d="M1475 1294 c13 -14 27 -40 31 -57 5 -25 8 -28 13 -14 15 43 40 11 42
-53 1 -38 2 -41 9 -20 8 24 8 24 9 -6 1 -20 6 -31 16 -31 8 0 15 7 15 14 0 8
5 11 10 8 6 -3 10 0 10 7 0 7 5 5 12 -6 6 -12 8 -42 4 -79 -5 -52 -4 -58 9
-47 24 20 28 6 12 -54 -7 -30 -10 -53 -6 -50 4 2 10 18 14 34 4 17 11 30 16
30 9 0 1 -55 -12 -82 -6 -10 -5 -18 2 -20 6 -2 -1 -21 -16 -43 l-26 -40 31 33
c68 73 39 12 -53 -113 -16 -22 4 -5 45 37 52 54 84 80 106 84 43 9 41 27 -3
22 -24 -3 -35 0 -35 9 0 7 -5 13 -11 13 -8 0 -9 19 -4 60 5 41 4 60 -4 60 -6
0 -11 11 -11 25 0 16 -6 25 -15 25 -11 0 -15 13 -15 53 0 65 -10 81 -44 75
-18 -4 -26 -1 -26 8 0 8 -4 14 -10 14 -5 0 -10 9 -10 19 0 34 -11 51 -34 51
-14 0 -26 10 -34 30 -10 21 -21 30 -37 30 l-24 0 24 -26z"/>
<path d="M1440 1234 c0 -8 5 -12 10 -9 6 3 10 10 10 16 0 5 -4 9 -10 9 -5 0
-10 -7 -10 -16z"/>
<path d="M1481 1214 c0 -11 3 -14 6 -6 3 7 2 16 -1 19 -3 4 -6 -2 -5 -13z"/>
<path d="M1542 1170 c0 -19 2 -27 5 -17 2 9 2 25 0 35 -3 9 -5 1 -5 -18z"/>
<path d="M1290 1190 c0 -3 7 -25 15 -50 l15 -45 -4 39 c-3 22 -10 44 -16 50
-5 5 -10 8 -10 6z"/>
<path d="M1257 1090 c3 -41 9 -93 14 -115 10 -52 0 80 -12 145 -6 33 -6 25 -2
-30z"/>
<path d="M1621 1034 c0 -11 3 -14 6 -6 3 7 2 16 -1 19 -3 4 -6 -2 -5 -13z"/>
<path d="M1302 960 c0 -14 2 -19 5 -12 2 6 2 18 0 25 -3 6 -5 1 -5 -13z"/>
<path d="M1152 945 c0 -11 4 -31 8 -45 6 -20 8 -21 8 -5 0 11 -4 31 -8 45 -6
20 -8 21 -8 5z"/>
<path d="M1160 826 c0 -15 29 -74 39 -81 6 -3 2 13 -11 37 -24 48 -28 54 -28
44z"/>
<path d="M1764 806 c-17 -8 -44 -31 -60 -51 -16 -21 -44 -56 -63 -79 -18 -23
-9 -15 21 17 88 91 86 68 -3 -49 -22 -28 -39 -55 -39 -59 0 -5 -9 -18 -20 -30
l-21 -22 57 14 c40 11 59 12 67 4 8 -8 4 -11 -15 -11 -44 0 -103 -26 -169 -75
-35 -26 -66 -49 -69 -52 -11 -12 48 22 103 59 32 22 61 37 64 34 3 -3 -22 -33
-56 -66 -67 -66 -75 -81 -11 -24 25 23 40 31 40 22 0 -17 -61 -69 -123 -104
-23 -13 -37 -24 -32 -24 6 0 28 11 50 25 57 35 66 30 20 -11 -38 -34 -37 -33
24 8 35 23 95 72 133 107 38 35 72 61 75 57 4 -4 -29 -42 -74 -85 -80 -78
-192 -153 -245 -166 -36 -9 -35 -18 4 -33 17 -6 29 -14 26 -17 -3 -3 -17 -1
-32 5 -40 15 -129 11 -231 -9 -87 -18 -89 -19 -60 -31 17 -6 40 -13 51 -13 29
-3 52 -27 26 -27 -11 0 -25 -6 -31 -14 -10 -11 0 -20 50 -45 43 -21 55 -31 39
-31 -13 0 -46 13 -75 29 -43 24 -59 28 -99 24 -46 -6 -47 -7 -44 -37 3 -30 2
-31 -47 -37 l-50 -6 64 -1 63 -2 -4 30 c-4 28 -2 30 28 30 17 0 52 -11 75 -25
28 -16 60 -25 87 -25 37 0 42 3 42 23 0 17 -11 26 -48 42 -30 12 -41 21 -29
23 20 4 24 48 5 55 -10 4 -10 7 -1 17 14 15 134 18 202 5 l44 -8 -5 31 c-4 30
-1 34 65 73 96 57 227 185 227 222 0 17 -5 27 -14 27 -9 0 -16 12 -18 28 -3
25 -7 27 -44 27 l-42 0 22 28 c60 81 86 124 86 145 0 14 9 26 25 34 14 6 25
17 25 25 0 15 3 16 -36 -1z m-104 -331 c-24 -24 -45 -43 -47 -41 -8 7 33 75
47 79 40 12 41 3 0 -38z"/>
<path d="M1080 516 c-11 -26 -23 -60 -25 -74 -6 -26 -5 -26 10 3 l15 30 -6
-40 c-3 -22 -2 -37 2 -32 4 4 11 32 15 64 4 31 14 60 21 64 10 6 10 11 1 20
-10 10 -17 2 -33 -35z"/>
<path d="M0 497 c0 -18 13 -39 43 -67 57 -56 196 -148 259 -172 98 -37 108
-45 108 -86 1 -54 51 -85 140 -89 44 -1 84 -10 124 -28 71 -32 166 -55 225
-55 24 0 42 2 40 4 -3 3 -45 14 -94 24 -102 23 -186 57 -248 102 -41 29 -45
30 -77 16 l-34 -14 49 -16 50 -16 -40 4 c-35 3 -136 56 -107 56 7 0 7 11 -1
36 -11 37 -33 53 -109 80 -86 30 -257 151 -304 216 l-24 32 0 -27z"/>
<path d="M1132 475 c0 -16 2 -22 5 -12 2 9 2 23 0 30 -3 6 -5 -1 -5 -18z"/>
<path d="M856 391 c-17 -19 -17 -19 3 -14 12 3 21 12 21 19 0 18 -4 18 -24 -5z"/>
<path d="M1041 394 c0 -11 3 -14 6 -6 3 7 2 16 -1 19 -3 4 -6 -2 -5 -13z"/>
<path d="M842 353 c-7 -2 -17 -14 -23 -25 -10 -18 -8 -19 13 -13 22 7 38 22
38 38 0 8 -8 8 -28 0z"/>
<path d="M983 347 c-29 -13 -30 -27 -2 -27 11 0 18 4 15 9 -4 5 0 11 6 14 7 2
11 7 8 9 -3 3 -15 1 -27 -5z"/>
<path d="M787 323 c-4 -3 -7 -11 -7 -17 0 -6 5 -5 12 2 6 6 9 14 7 17 -3 3 -9
2 -12 -2z"/>
<path d="M637 300 c-3 -11 -3 -20 -1 -20 2 0 8 9 14 20 6 11 7 20 2 20 -6 0
-12 -9 -15 -20z"/>
<path d="M662 282 l-23 -37 25 28 c14 15 26 32 26 38 0 15 -4 11 -28 -29z"/>
<path d="M569 280 c-18 -15 -20 -19 -8 -20 9 0 24 9 34 20 23 26 4 26 -26 0z"/>
<path d="M695 273 l-18 -28 27 24 c28 26 31 31 17 31 -5 0 -17 -12 -26 -27z"/>
<path d="M867 274 c-15 -20 -15 -24 -3 -24 8 0 18 9 21 21 10 29 3 31 -18 3z"/>
<path d="M910 280 c-13 -25 -1 -26 40 -5 38 19 38 25 0 25 -19 0 -33 -7 -40
-20z"/>
<path d="M1368 293 c7 -3 16 -2 19 1 4 3 -2 6 -13 5 -11 0 -14 -3 -6 -6z"/>
<path d="M744 268 l-19 -23 23 19 c21 18 27 26 19 26 -2 0 -12 -10 -23 -22z"/>
<path d="M450 205 c0 -2 5 -16 12 -30 9 -19 16 -24 32 -19 39 12 39 23 1 38
-40 17 -45 18 -45 11z"/>
<path d="M640 146 c0 -10 111 -65 178 -90 86 -31 115 -33 110 -10 -4 20 -15
26 -93 50 -33 10 -77 26 -97 36 -33 16 -98 25 -98 14z"/>
<path d="M973 134 c16 -9 32 -13 35 -9 9 9 -19 25 -43 24 -16 0 -15 -2 8 -15z"/>
<path d="M1037 130 c4 -14 14 -20 36 -20 34 0 34 1 -9 23 -31 16 -32 16 -27
-3z"/>
<path d="M1118 131 c13 -11 30 -17 38 -14 20 8 6 20 -31 28 l-30 6 23 -20z"/>
<path d="M817 129 c6 -6 30 -13 54 -15 l44 -5 -34 16 c-39 18 -81 21 -64 4z"/>
<path d="M900 136 c0 -2 7 -7 16 -10 8 -3 12 -2 9 4 -6 10 -25 14 -25 6z"/>
<path d="M946 108 c3 -5 0 -9 -7 -7 -36 4 -40 -2 -15 -22 14 -11 26 -29 26
-40 0 -16 7 -19 40 -19 37 0 40 2 40 28 0 24 -7 32 -45 49 -24 11 -42 16 -39
11z m48 -44 c23 -9 20 -24 -4 -24 -11 0 -20 7 -20 15 0 17 2 18 24 9z"/>
</g>
</svg>
