<?xml version="1.0" standalone="no"?>
<!DOCTYPE svg PUBLIC "-//W3C//DTD SVG 20010904//EN"
 "http://www.w3.org/TR/2001/REC-SVG-20010904/DTD/svg10.dtd">
<svg version="1.0" xmlns="http://www.w3.org/2000/svg"
 width="180.000000pt" height="180.000000pt" viewBox="0 0 180.000000 180.000000"
 preserveAspectRatio="xMidYMid meet">
<metadata>
Created by potrace 1.16, written by Peter Selinger 2001-2019
</metadata>
<g transform="translate(0.000000,180.000000) scale(0.100000,-0.100000)"
fill="#000000" stroke="none">
<path d="M814 1543 c-26 -27 -116 -118 -200 -204 -85 -86 -154 -164 -154 -172
0 -13 -13 -17 -62 -19 l-63 -3 -3 -424 c-2 -333 0 -426 10 -433 7 -4 257 -8
555 -8 526 0 543 1 553 19 11 21 15 788 4 829 -6 20 -12 22 -70 22 -45 0 -64
4 -64 13 0 11 -83 100 -307 330 -116 118 -130 121 -199 50z m140 -35 c32 -35
123 -129 203 -210 l145 -148 -112 0 -111 0 3 -150 3 -150 -192 0 -193 0 0 150
0 150 -110 0 c-60 0 -110 1 -110 3 0 4 405 415 411 416 3 1 31 -27 63 -61z
m-421 -417 c22 -21 22 -26 22 -324 l0 -302 -43 -9 c-23 -5 -41 -13 -40 -18 2
-5 7 -9 11 -9 4 1 77 1 162 1 97 0 155 4 155 10 0 6 -11 10 -24 10 -14 0 -36
4 -50 10 l-26 10 0 160 0 160 193 0 192 0 -2 -152 c-1 -84 -5 -158 -7 -165 -3
-6 -21 -15 -40 -19 -76 -14 -30 -24 109 -24 80 0 148 0 152 -1 4 0 9 4 11 10
2 6 -7 11 -21 11 -14 0 -34 8 -46 17 -22 18 -22 21 -19 310 4 348 -3 330 122
342 42 4 79 5 81 2 3 -2 5 -186 5 -408 l0 -403 -537 0 -538 0 2 407 c2 225 3
408 3 408 0 0 34 -2 76 -6 59 -4 80 -11 97 -28z m137 -115 c0 -106 3 -146 13
-149 9 -4 9 -7 -1 -15 -10 -7 -12 -48 -10 -180 l3 -172 -45 0 -45 0 3 295 c2
242 0 301 -12 330 l-15 35 55 0 54 0 0 -144z m538 122 c-10 -17 -13 -98 -13
-330 l0 -308 -41 0 -41 0 -2 172 c-1 121 -6 175 -14 180 -9 6 -8 10 3 18 12 7
15 36 15 150 l0 140 53 0 c52 0 52 0 40 -22z"/>
</g>
</svg>
