<?xml version="1.0" standalone="no"?>
<!DOCTYPE svg PUBLIC "-//W3C//DTD SVG 20010904//EN"
 "http://www.w3.org/TR/2001/REC-SVG-20010904/DTD/svg10.dtd">
<svg version="1.0" xmlns="http://www.w3.org/2000/svg"
 width="180.000000pt" height="180.000000pt" viewBox="0 0 180.000000 180.000000"
 preserveAspectRatio="xMidYMid meet">
<metadata>
Created by potrace 1.16, written by Peter Selinger 2001-2019
</metadata>
<g transform="translate(0.000000,180.000000) scale(0.100000,-0.100000)"
fill="#000000" stroke="none">
<path d="M650 1313 c0 -10 -40 -204 -88 -430 l-88 -413 91 0 91 0 29 150 30
150 158 0 157 0 -5 -22 c-3 -13 -16 -77 -30 -142 -14 -66 -28 -123 -31 -128
-3 -4 38 -8 90 -8 82 0 96 2 96 16 0 17 154 751 170 812 l8 32 -88 0 c-61 0
-89 -4 -92 -12 -3 -7 -23 -97 -44 -200 l-39 -188 -157 0 -157 0 6 33 c4 17 23
107 43 200 l37 167 -94 0 c-82 0 -93 -2 -93 -17z m150 -12 c0 -5 -16 -84 -35
-175 -19 -92 -35 -178 -35 -191 l0 -25 178 0 178 0 32 148 c17 81 36 171 43
200 l11 52 59 0 c32 0 59 -4 59 -10 0 -8 -150 -724 -165 -787 -5 -21 -11 -23
-65 -23 -33 0 -60 4 -60 9 0 5 11 61 25 125 14 64 25 127 25 141 l0 25 -178 0
-179 0 -28 -137 c-15 -76 -30 -144 -33 -150 -5 -16 -122 -18 -122 -3 0 12 158
766 166 793 4 14 17 17 65 17 32 0 59 -4 59 -9z"/>
</g>
</svg>
