<?xml version="1.0" standalone="no"?>
<!DOCTYPE svg PUBLIC "-//W3C//DTD SVG 20010904//EN"
 "http://www.w3.org/TR/2001/REC-SVG-20010904/DTD/svg10.dtd">
<svg version="1.0" xmlns="http://www.w3.org/2000/svg"
 width="256.000000pt" height="256.000000pt" viewBox="0 0 256.000000 256.000000"
 preserveAspectRatio="xMidYMid meet">
<metadata>
Created by potrace 1.16, written by Peter Selinger 2001-2019
</metadata>
<g transform="translate(0.000000,256.000000) scale(0.100000,-0.100000)"
fill="#000000" stroke="none">
<path d="M210 1715 c-4 -5 -13 -35 -19 -65 -5 -30 -22 -109 -36 -175 -14 -66
-28 -133 -31 -150 -3 -16 -9 -46 -14 -65 -5 -19 -12 -51 -15 -70 -9 -51 -23
-114 -31 -133 -5 -15 3 -17 65 -17 l70 0 10 38 c16 63 35 156 35 177 1 19 9
20 135 23 105 2 132 0 128 -10 -2 -7 -10 -40 -16 -73 -7 -33 -17 -76 -22 -96
-15 -59 -14 -59 59 -59 l68 0 12 63 c14 69 58 271 103 476 16 73 29 136 29
140 0 3 -31 6 -69 6 l-69 0 -16 -85 c-9 -47 -25 -119 -34 -160 l-18 -75 -127
-3 c-80 -2 -127 1 -127 7 0 12 58 277 65 301 4 13 -6 16 -61 15 -36 0 -69 -4
-74 -10z m100 -22 c0 -9 -25 -129 -40 -188 -5 -22 -10 -59 -10 -82 l0 -43 150
0 c83 0 150 2 150 4 0 3 45 217 59 281 6 27 11 30 49 33 40 3 42 2 37 -20 -3
-13 -12 -54 -21 -93 -8 -38 -21 -99 -30 -135 -16 -74 -32 -148 -44 -203 -8
-41 -20 -61 -20 -34 0 17 -23 19 -47 4 -10 -6 -13 3 -13 37 l0 46 -155 0
c-154 0 -155 0 -155 -22 -1 -27 -28 -130 -29 -109 -1 10 -10 12 -36 8 -32 -5
-35 -4 -30 16 15 64 48 221 60 288 8 41 21 107 30 147 l17 72 39 0 c21 0 39
-3 39 -7z m245 -518 c6 0 17 4 25 10 13 7 13 6 2 -7 -9 -11 -10 -18 -2 -23 5
-3 10 -1 10 6 0 7 3 10 6 7 3 -4 1 -16 -6 -27 -8 -15 -20 -21 -45 -21 -31 0
-34 3 -31 23 3 12 5 24 6 27 2 3 2 9 1 14 -1 5 4 5 11 0 7 -6 18 -10 23 -9z
m-427 -27 c-4 -15 44 -18 54 -3 4 5 6 -3 5 -19 -2 -19 -8 -30 -20 -32 -10 -1
-29 -10 -43 -18 -24 -16 -24 -16 -24 12 0 16 3 32 8 36 4 4 8 12 8 17 2 16 4
19 9 19 3 0 4 -5 3 -12z m455 -54 c-6 -16 -43 -25 -40 -10 1 6 -8 10 -20 8
-13 -2 -23 1 -23 6 0 5 20 9 44 8 29 0 42 -5 39 -12z"/>
<path d="M526 1162 c-8 -13 17 -22 33 -12 9 5 10 10 2 14 -6 4 -11 1 -11 -6 0
-10 -2 -10 -9 1 -5 8 -11 9 -15 3z"/>
<path d="M113 1117 c-3 -4 -2 -11 1 -14 3 -4 6 -1 6 5 0 6 9 9 20 7 11 -2 22
0 24 4 3 4 -7 7 -20 7 -14 0 -28 -4 -31 -9z"/>
<path d="M1765 1720 c-2 -3 -6 -23 -9 -45 -4 -22 -25 -125 -48 -230 -49 -231
-53 -287 -18 -338 36 -53 119 -83 188 -69 18 4 33 10 33 14 0 4 6 29 14 55 8
27 15 48 15 48 0 1 -24 1 -54 1 -93 0 -100 19 -65 176 11 51 22 103 25 115 4
20 11 22 81 25 85 3 81 0 96 91 l6 37 -75 0 -74 0 6 43 c4 23 11 50 16 60 5 9
7 17 6 18 -14 4 -141 3 -143 -1z m98 -57 c-7 -40 -7 -48 -5 -75 2 -15 13 -18
71 -18 l68 0 -5 -27 c-8 -47 -20 -53 -93 -53 -63 0 -69 -2 -74 -22 -3 -13 -14
-61 -25 -108 -11 -47 -20 -102 -20 -122 0 -23 -5 -38 -12 -39 -7 -1 -17 -2
-23 -4 -5 -1 -18 -3 -28 -3 -11 -1 -15 -7 -11 -14 4 -7 3 -8 -4 -4 -17 10 -15
49 9 156 12 52 27 122 34 155 8 33 21 95 31 138 l17 77 38 0 38 0 -6 -37z
m-139 -504 c-4 -7 5 -9 30 -6 31 4 36 2 31 -10 -4 -12 -2 -13 7 -6 8 6 22 7
33 2 11 -4 33 -8 48 -8 23 -1 28 -5 25 -23 -3 -20 -9 -23 -73 -25 -66 -2 -71
-1 -102 29 -31 30 -45 57 -24 43 5 -3 12 -1 16 5 3 5 8 10 11 10 3 0 2 -5 -2
-11z m99 -96 c-7 -2 -19 -2 -25 0 -7 3 -2 5 12 5 14 0 19 -2 13 -5z"/>
<path d="M1742 1108 c5 -14 79 -17 115 -6 13 4 24 2 27 -5 2 -7 5 -4 5 6 1 15
-9 17 -75 17 -55 0 -75 -3 -72 -12z"/>
<path d="M995 1600 c-130 -19 -229 -130 -255 -287 -32 -192 82 -304 278 -273
36 6 89 23 119 37 47 23 51 28 39 42 -7 9 -21 30 -29 47 l-16 32 -42 -21 c-30
-14 -62 -21 -111 -21 -64 -1 -72 1 -94 27 -15 18 -24 41 -24 63 l0 34 189 0
c117 0 192 4 196 10 11 18 7 178 -5 202 -42 81 -138 123 -245 108z m131 -45
c81 -41 114 -111 100 -209 l-7 -46 -191 0 -190 0 3 -64 c2 -36 0 -68 -5 -73
-5 -4 -6 -3 -2 5 5 8 -1 12 -18 12 -13 0 -26 -6 -29 -12 -10 -28 -28 51 -25
107 7 115 82 230 181 279 65 33 119 33 183 1z m-314 -397 c-17 -17 -15 -33 3
-18 8 7 15 9 15 5 0 -4 8 -1 17 6 9 8 14 9 10 3 -4 -7 0 -17 7 -23 10 -8 16
-9 21 -1 3 6 12 7 18 3 18 -12 131 -10 139 2 5 6 8 5 8 -3 0 -11 3 -11 14 1
22 21 71 16 71 -9 0 -18 -9 -19 -152 -21 -134 -2 -155 0 -175 16 -19 16 -20
21 -9 35 7 9 16 16 19 16 3 0 1 -5 -6 -12z m258 -80 c0 -5 -16 -7 -35 -5 -19
2 -45 -1 -57 -7 -16 -8 -36 -9 -63 -3 -81 19 -75 23 39 23 64 0 116 -4 116 -8z"/>
<path d="M944 1501 c-43 -26 -64 -59 -64 -98 l0 -33 135 0 135 0 0 50 c0 42
-5 55 -26 75 -23 21 -37 25 -88 25 -42 0 -71 -6 -92 -19z m145 -16 c31 -15 41
-33 41 -71 0 -24 0 -24 -115 -24 -123 0 -132 4 -96 47 27 32 82 63 114 63 15
0 41 -7 56 -15z"/>
<path d="M826 1128 c3 -5 10 -6 15 -3 13 9 11 12 -6 12 -8 0 -12 -4 -9 -9z"/>
<path d="M1075 1130 c-5 -8 42 -7 49 1 3 3 -6 5 -20 5 -14 0 -27 -3 -29 -6z"/>
<path d="M1549 1599 c-61 -9 -98 -29 -141 -77 -32 -35 -78 -133 -78 -165 0
-13 -56 -264 -66 -300 -5 -16 1 -18 68 -15 l73 3 6 40 c21 140 66 313 90 346
19 28 96 53 125 42 16 -6 28 22 37 83 l7 42 -38 4 c-21 2 -58 0 -83 -3z m85
-46 c-10 -50 -13 -53 -43 -53 -81 0 -124 -39 -146 -133 -9 -40 -23 -98 -30
-130 -12 -50 -55 -128 -55 -99 0 6 5 14 10 17 15 9 12 25 -6 25 -9 0 -12 -5
-8 -12 6 -10 5 -10 -8 -1 -8 7 -18 9 -23 5 -11 -10 16 126 43 213 36 120 123
194 230 195 41 0 42 -1 36 -27z m-243 -422 c-6 -10 -7 -21 -4 -25 3 -3 -12 -6
-35 -6 -22 0 -44 -5 -48 -12 -4 -7 -3 -8 4 -4 7 4 12 2 12 -3 0 -6 -7 -11 -16
-11 -11 0 -14 5 -9 18 6 14 9 27 14 51 1 2 9 -3 18 -10 11 -10 14 -10 9 -1 -9
15 6 16 20 2 8 -8 15 -6 24 5 17 21 23 19 11 -4z m-7 -52 c-6 -11 -54 -12 -54
-1 0 4 13 8 30 8 16 1 27 -2 24 -7z"/>
<path d="M2092 1549 c-20 -84 -27 -79 116 -79 l127 -1 -80 -75 c-44 -41 -117
-109 -163 -151 -82 -76 -85 -81 -106 -175 l-6 -28 224 0 223 0 7 43 c4 23 10
53 13 65 l6 24 -127 -4 c-69 -1 -126 0 -126 5 0 7 117 121 246 238 48 43 73
74 77 94 3 17 9 45 13 63 l7 32 -220 0 -220 0 -11 -51z m409 -13 c-6 -34 -55
-85 -268 -281 -29 -26 -53 -55 -53 -64 0 -12 -2 -13 -8 -3 -10 14 -64 13 -74
-3 -5 -7 -8 -7 -8 1 0 6 59 66 130 133 97 92 130 129 130 147 l0 24 -120 0
c-66 0 -120 4 -120 9 0 5 3 23 6 40 l7 31 192 0 192 0 -6 -34z m-350 -359
c-14 -18 -2 -30 15 -16 10 8 16 6 24 -8 10 -15 24 -18 96 -17 75 1 84 -1 80
-15 -4 -11 -2 -10 9 3 9 12 15 15 15 7 0 -8 6 -11 16 -7 13 5 14 4 6 -7 -7 -8
-9 -17 -6 -20 11 -11 -7 -28 -19 -18 -17 13 -118 29 -205 33 -56 2 -75 -1 -82
-12 -7 -10 -10 -11 -10 -2 0 7 -13 12 -30 12 -29 0 -38 14 -22 35 10 14 37 13
37 -2 0 -6 4 -15 8 -20 5 -4 8 -3 7 2 -5 22 1 27 18 14 9 -7 14 -9 9 -4 -4 4
3 19 15 32 23 25 38 32 19 10z m-38 -12 c-3 -9 -8 -14 -10 -11 -3 3 -2 9 2 15
9 16 15 13 8 -4z m-26 -77 c6 -5 14 -5 18 2 3 5 17 10 31 10 18 0 23 -4 18
-12 -6 -10 -4 -10 7 -2 17 12 48 12 68 0 9 -6 12 -5 7 2 -5 9 11 10 34 2 3 -1
20 -2 38 -2 18 0 34 -3 36 -7 4 -5 -46 -8 -232 -14 -28 -1 -52 2 -52 7 0 5 -6
3 -14 -3 -10 -8 -16 -8 -25 3 -9 11 -9 15 1 19 20 7 52 5 65 -5z"/>
<path d="M2130 1151 c0 -6 4 -13 10 -16 6 -3 7 1 4 9 -7 18 -14 21 -14 7z"/>
</g>
</svg>
