<?xml version="1.0" standalone="no"?>
<!DOCTYPE svg PUBLIC "-//W3C//DTD SVG 20010904//EN"
 "http://www.w3.org/TR/2001/REC-SVG-20010904/DTD/svg10.dtd">
<svg version="1.0" xmlns="http://www.w3.org/2000/svg"
 width="100.000000pt" height="100.000000pt" viewBox="0 0 100.000000 100.000000"
 preserveAspectRatio="xMidYMid meet">
<metadata>
Created by potrace 1.16, written by Peter Selinger 2001-2019
</metadata>
<g transform="translate(0.000000,100.000000) scale(0.100000,-0.100000)"
fill="#000000" stroke="none">
<path d="M223 625 c0 -22 2 -30 4 -17 2 12 2 30 0 40 -3 9 -5 -1 -4 -23z"/>
<path d="M308 653 c6 -2 18 -2 25 0 6 3 1 5 -13 5 -14 0 -19 -2 -12 -5z"/>
<path d="M668 653 c6 -2 18 -2 25 0 6 3 1 5 -13 5 -14 0 -19 -2 -12 -5z"/>
<path d="M721 644 c0 -11 3 -14 6 -6 3 7 2 16 -1 19 -3 4 -6 -2 -5 -13z"/>
<path d="M159 593 c-1 -39 -2 -43 -9 -23 -6 17 -8 1 -9 -53 -1 -43 -5 -76 -9
-73 -5 3 -9 19 -10 37 -1 56 -12 44 -12 -14 0 -54 1 -57 25 -57 22 0 25 4 26
38 1 37 1 37 9 7 8 -30 8 -30 9 8 1 35 2 37 36 37 34 0 35 -1 35 -40 0 -39 -1
-39 -35 -38 -19 1 -38 -2 -42 -5 -3 -4 24 -7 60 -7 l67 0 1 73 c0 49 3 66 9
52 6 -15 9 -5 10 35 1 40 4 50 10 35 8 -18 9 -17 9 8 1 21 -4 27 -19 27 -16 0
-20 -7 -20 -37 0 -44 -11 -38 -12 6 -2 49 -18 36 -18 -14 l0 -45 -45 0 c-25 0
-45 5 -45 10 0 6 5 10 10 10 6 0 10 16 10 35 0 28 -4 35 -20 35 -17 0 -20 -7
-21 -47z m94 -70 c-13 -2 -35 -2 -50 0 -16 2 -5 4 22 4 28 0 40 -2 28 -4z
m-106 -99 c-3 -3 -12 -4 -19 -1 -8 3 -5 6 6 6 11 1 17 -2 13 -5z m140 0 c-3
-3 -12 -4 -19 -1 -8 3 -5 6 6 6 11 1 17 -2 13 -5z"/>
<path d="M660 605 c0 -19 -4 -35 -10 -35 -6 0 -10 -30 -10 -70 0 -70 0 -70 28
-71 24 0 25 -1 7 -9 -19 -8 -19 -9 3 -9 16 -1 22 5 22 19 0 11 -4 20 -10 20
-6 0 -10 27 -10 60 l0 60 80 0 c50 0 80 -4 80 -11 0 -5 -4 -7 -10 -4 -5 3 -10
-1 -10 -10 0 -9 -6 -23 -14 -31 -17 -16 -30 -19 -21 -4 11 18 -6 10 -30 -15
-25 -24 -33 -41 -15 -30 6 3 10 2 10 -3 0 -5 -10 -13 -22 -18 -16 -5 7 -9 70
-11 56 -2 90 -8 87 -13 -4 -6 1 -10 9 -10 9 0 16 9 16 20 0 11 -4 20 -10 20
-5 0 -10 7 -10 15 0 10 -10 15 -31 15 -19 0 -28 -4 -24 -11 4 -6 13 -8 21 -5
7 3 16 1 19 -4 4 -6 -11 -10 -34 -10 -31 0 -41 4 -41 16 0 8 5 12 10 9 6 -3
10 0 10 7 0 8 9 20 20 28 11 8 20 20 20 27 0 7 5 13 11 13 16 0 39 26 39 44 0
13 -13 16 -72 14 l-73 -2 70 -6 c69 -6 69 -6 -32 -8 l-103 -2 0 25 c0 18 -5
25 -20 25 -16 0 -20 -7 -20 -35z"/>
<path d="M400 600 c12 -8 10 -10 -8 -10 -40 0 -52 -23 -52 -94 l0 -66 70 0
c68 0 70 1 70 25 0 22 -4 25 -37 25 -31 -1 -35 -3 -20 -11 9 -5 21 -8 26 -4 5
3 12 1 16 -5 4 -6 -9 -10 -34 -10 -30 0 -41 4 -41 15 0 8 -5 15 -11 15 -6 0
-9 -7 -5 -15 3 -8 1 -15 -4 -15 -6 0 -10 11 -10 25 0 24 2 25 70 25 l70 0 0
45 0 45 -37 0 c-28 0 -34 3 -23 10 11 7 6 10 -20 10 -26 0 -31 -3 -20 -10z
m50 -55 c0 -21 -5 -25 -30 -25 -25 0 -30 4 -30 25 0 21 5 25 30 25 25 0 30 -4
30 -25z"/>
<path d="M408 543 c6 -2 18 -2 25 0 6 3 1 5 -13 5 -14 0 -19 -2 -12 -5z"/>
<path d="M580 600 c12 -8 11 -10 -7 -10 -17 0 -23 -6 -24 -22 0 -13 -3 -17 -6
-10 -11 27 -23 10 -23 -33 0 -25 -4 -45 -10 -45 -5 0 -10 -16 -10 -35 0 -31 3
-35 25 -35 23 0 25 4 26 48 1 42 2 44 9 17 7 -27 8 -25 9 18 1 52 17 77 50 77
25 0 28 20 4 21 -15 0 -15 2 2 9 16 7 11 9 -20 9 -29 1 -36 -2 -25 -9z m-43
-176 c-3 -3 -12 -4 -19 -1 -8 3 -5 6 6 6 11 1 17 -2 13 -5z"/>
<path d="M718 603 c6 -2 18 -2 25 0 6 3 1 5 -13 5 -14 0 -19 -2 -12 -5z"/>
<path d="M875 530 c-3 -5 -1 -10 4 -10 6 0 11 5 11 10 0 6 -2 10 -4 10 -3 0
-8 -4 -11 -10z"/>
<path d="M610 479 c0 -36 3 -49 9 -40 9 14 6 80 -4 90 -3 2 -5 -20 -5 -50z"/>
<path d="M570 420 c-11 -7 -6 -10 20 -10 26 0 31 3 20 10 -8 5 -17 10 -20 10
-3 0 -12 -5 -20 -10z"/>
<path d="M383 413 c15 -2 37 -2 50 0 12 2 0 4 -28 4 -27 0 -38 -2 -22 -4z"/>
<path d="M753 413 c20 -2 54 -2 75 0 20 2 3 4 -38 4 -41 0 -58 -2 -37 -4z"/>
<path d="M74 395 c-8 -21 0 -50 14 -47 7 1 11 -4 10 -10 -4 -18 748 -24 768
-7 16 13 19 59 4 59 -5 0 -10 -7 -10 -15 0 -13 -48 -15 -375 -15 -361 0 -375
1 -375 19 0 23 -29 36 -36 16z m23 -27 c-3 -8 -6 -5 -6 6 -1 11 2 17 5 13 3
-3 4 -12 1 -19z m581 -25 c-103 -2 -274 -2 -380 0 -106 1 -22 2 187 2 209 0
296 -1 193 -2z"/>
<path d="M193 393 c9 -2 23 -2 30 0 6 3 -1 5 -18 5 -16 0 -22 -2 -12 -5z"/>
<path d="M583 393 c9 -2 25 -2 35 0 9 3 1 5 -18 5 -19 0 -27 -2 -17 -5z"/>
</g>
</svg>
