<?xml version="1.0" standalone="no"?>
<!DOCTYPE svg PUBLIC "-//W3C//DTD SVG 20010904//EN"
 "http://www.w3.org/TR/2001/REC-SVG-20010904/DTD/svg10.dtd">
<svg version="1.0" xmlns="http://www.w3.org/2000/svg"
 width="192.000000pt" height="192.000000pt" viewBox="0 0 192.000000 192.000000"
 preserveAspectRatio="xMidYMid meet">
<metadata>
Created by potrace 1.16, written by Peter Selinger 2001-2019
</metadata>
<g transform="translate(0.000000,192.000000) scale(0.100000,-0.100000)"
fill="#000000" stroke="none">
<path d="M131 1176 c-35 -163 -71 -333 -74 -348 -1 -6 21 -10 48 -11 l50 0 9
39 c5 21 14 61 20 88 l12 49 92 -1 c51 0 94 -1 96 -1 2 -1 -5 -36 -15 -78 -10
-43 -19 -83 -19 -88 0 -6 23 -10 50 -10 53 0 53 0 65 65 9 50 47 228 90 427 5
20 2 21 -47 20 l-52 -2 -26 -120 -25 -119 -95 0 c-55 0 -94 4 -93 9 0 6 10 55
22 110 12 54 21 104 21 110 0 7 -20 11 -49 11 l-48 0 -32 -150z m94 102 c-29
-127 -35 -157 -35 -185 0 -38 8 -40 148 -35 61 2 94 8 96 15 4 13 31 143 41
195 5 23 12 32 26 32 10 0 19 -1 19 -3 0 -2 -18 -91 -41 -198 -22 -107 -43
-206 -46 -221 -4 -19 -12 -28 -25 -28 -18 0 -20 4 -14 33 4 17 10 56 13 85 l6
52 -120 0 -120 0 -11 -39 c-7 -21 -15 -59 -18 -85 -6 -39 -10 -46 -28 -46
l-22 0 17 83 c9 45 27 129 39 187 35 169 38 180 61 180 15 0 18 -5 14 -22z"/>
<path d="M1317 1306 c-9 -36 -57 -269 -68 -326 -22 -109 24 -170 127 -170 48
0 52 2 57 28 3 15 9 35 12 45 6 15 1 17 -39 17 -66 0 -71 15 -44 139 l21 101
56 0 56 0 11 45 10 45 -59 0 c-47 0 -58 3 -54 14 3 8 9 30 12 48 l7 34 -50 0
c-43 0 -51 -3 -55 -20z m63 -56 l0 -50 50 0 c40 0 48 -3 44 -15 -4 -10 -20
-15 -48 -15 -23 0 -50 -6 -59 -12 -24 -19 -60 -209 -46 -245 13 -34 26 -43 62
-43 41 0 29 -24 -14 -28 -43 -4 -85 26 -94 67 -3 15 1 61 10 102 9 41 25 117
36 169 26 121 26 120 44 120 11 0 15 -12 15 -50z"/>
<path d="M682 1209 c-76 -38 -126 -130 -127 -234 0 -112 52 -165 162 -165 61
0 163 31 163 50 0 4 -7 21 -16 38 -15 30 -17 31 -42 18 -26 -13 -74 -20 -119
-17 -31 2 -53 28 -53 62 l0 29 139 0 c157 0 151 -4 151 90 0 58 -27 108 -71
132 -47 25 -132 24 -187 -3z m171 -26 c35 -17 59 -72 55 -121 l-3 -37 -129 -3
c-75 -1 -135 -7 -143 -14 -23 -19 -16 -86 13 -115 24 -24 30 -25 110 -21 92 5
99 -6 18 -27 -86 -22 -152 4 -180 72 -18 42 -18 72 2 130 45 133 152 189 257
136z"/>
<path d="M685 1149 c-27 -24 -35 -39 -35 -65 l0 -34 109 0 c101 0 110 2 116
20 9 28 -12 88 -35 100 -10 6 -41 10 -69 10 -42 0 -56 -5 -86 -31z m148 -16
c9 -9 17 -27 17 -40 0 -22 -2 -23 -90 -23 -49 0 -90 3 -90 8 0 18 35 55 64 68
35 15 72 10 99 -13z"/>
<path d="M1100 1211 c-63 -33 -87 -82 -120 -239 -17 -79 -30 -146 -30 -150 0
-4 22 -7 49 -7 l49 0 12 60 c28 139 52 221 69 238 10 10 36 21 59 24 33 4 42
10 47 32 3 14 8 34 11 44 5 15 -2 17 -53 17 -38 0 -71 -7 -93 -19z m110 -20
c0 -14 -10 -21 -37 -26 -79 -14 -93 -38 -129 -221 -16 -78 -33 -109 -51 -91
-8 9 36 214 54 253 19 43 61 81 103 92 52 15 60 14 60 -7z"/>
<path d="M1565 1218 c-2 -7 -6 -29 -9 -48 l-6 -35 96 3 c53 2 95 0 93 -5 -2
-5 -57 -57 -121 -116 -64 -59 -119 -115 -122 -125 -2 -9 -7 -30 -11 -47 l-6
-30 165 0 165 0 6 33 c3 18 9 40 12 49 5 13 -7 15 -91 12 -53 -2 -96 -2 -96 1
0 3 53 56 119 117 80 76 120 121 124 140 3 15 9 36 12 46 7 16 -5 17 -159 17
-125 0 -168 -3 -171 -12z m284 -45 c-6 -16 -60 -73 -120 -128 -96 -88 -109
-103 -109 -132 l0 -33 85 0 c69 0 85 -3 85 -15 0 -13 -22 -15 -135 -15 -101 0
-135 3 -135 13 0 6 54 64 120 127 95 91 120 121 120 141 0 34 -14 39 -101 39
-55 0 -69 3 -69 15 0 13 22 15 134 15 l135 0 -10 -27z"/>
<path d="M33 713 c-4 -21 -8 -41 -8 -46 0 -4 394 -7 875 -7 l875 0 6 27 c4 16
7 36 8 46 1 16 -47 17 -874 17 l-874 0 -8 -37z m1725 -10 c-3 -17 -53 -18
-855 -21 -848 -2 -851 -2 -846 18 5 20 13 20 855 20 804 0 849 -1 846 -17z"/>
</g>
</svg>
