<?xml version="1.0" standalone="no"?>
<!DOCTYPE svg PUBLIC "-//W3C//DTD SVG 20010904//EN"
 "http://www.w3.org/TR/2001/REC-SVG-20010904/DTD/svg10.dtd">
<svg version="1.0" xmlns="http://www.w3.org/2000/svg"
 width="100.000000pt" height="100.000000pt" viewBox="0 0 100.000000 100.000000"
 preserveAspectRatio="xMidYMid meet">
<metadata>
Created by potrace 1.16, written by Peter Selinger 2001-2019
</metadata>
<g transform="translate(0.000000,100.000000) scale(0.100000,-0.100000)"
fill="#000000" stroke="none">
<path d="M328 823 c7 -3 16 -2 19 1 4 3 -2 6 -13 5 -11 0 -14 -3 -6 -6z"/>
<path d="M390 815 c-8 -10 -32 -15 -67 -15 -44 0 -54 -3 -50 -14 4 -10 1 -13
-9 -9 -11 4 -14 -4 -14 -36 0 -30 -4 -41 -15 -41 -8 0 -15 6 -15 13 0 9 -12
14 -35 14 -23 0 -35 -5 -35 -14 0 -8 -12 -13 -30 -13 -25 0 -51 -11 -89 -36
-2 -2 -4 -28 -6 -59 -2 -55 -2 -56 24 -52 14 2 20 2 14 0 -7 -3 -13 -9 -13
-15 0 -5 7 -8 15 -4 12 4 15 -6 15 -64 0 -51 -4 -70 -13 -70 -10 0 -13 -15
-13 -50 1 -41 4 -50 19 -50 10 0 25 -7 33 -15 11 -10 35 -14 79 -14 68 1 98
16 108 54 3 15 5 13 6 -8 0 -15 7 -30 15 -33 8 -3 12 -12 9 -20 -3 -8 1 -14
11 -14 9 0 16 -6 16 -13 0 -17 158 -16 169 2 5 8 11 3 19 -14 10 -22 18 -25
62 -25 64 0 66 18 3 23 -27 2 -15 3 25 1 59 -3 72 -1 72 11 0 9 9 15 24 15 18
0 26 7 29 23 l4 22 2 -22 c1 -20 7 -23 41 -23 22 0 40 5 40 10 0 6 13 10 29
10 16 0 31 6 35 15 3 8 15 15 26 15 11 0 20 5 20 10 0 6 6 10 14 10 10 0 12
11 10 41 -4 47 -10 59 -30 59 -8 0 -14 5 -14 10 0 6 5 10 10 10 6 0 10 7 10
15 0 8 7 15 15 15 8 0 15 7 15 15 0 8 -7 15 -15 15 -9 0 -15 9 -15 25 0 23 -4
25 -40 25 -29 0 -40 4 -40 15 0 11 11 15 40 15 22 0 40 5 40 10 0 6 6 10 13
10 7 0 13 10 13 22 0 26 -30 59 -48 54 -7 -1 -10 -1 -5 1 19 12 3 23 -33 23
-27 0 -40 4 -40 14 0 7 -10 13 -22 12 -19 -1 -24 5 -28 34 -4 31 -9 35 -38 38
-24 2 -38 -2 -48 -15 -8 -11 -13 -13 -14 -5 0 7 -11 17 -25 22 -14 5 -25 13
-25 17 0 5 -56 9 -124 10 -98 2 -127 -1 -136 -12z m60 -100 c0 -50 4 -85 10
-85 6 0 10 35 10 85 l0 85 55 0 c52 0 55 -1 55 -25 0 -20 -5 -25 -25 -25 -14
0 -25 -4 -25 -10 0 -5 16 -10 35 -10 24 0 35 -5 35 -15 0 -10 -11 -15 -35 -15
-30 0 -35 -3 -35 -24 0 -13 -6 -27 -12 -30 -7 -3 -4 -4 7 -3 12 2 19 10 19 20
-1 12 6 17 27 17 24 0 29 -4 29 -25 0 -22 4 -25 40 -25 39 0 40 1 40 35 0 24
-5 35 -15 35 -8 0 -15 7 -15 15 0 8 -4 15 -10 15 -5 0 -10 11 -10 25 0 14 5
25 11 25 6 0 9 -8 6 -19 -3 -14 0 -17 14 -14 11 3 19 0 19 -6 0 -6 11 -11 25
-11 14 0 25 5 25 10 0 6 11 10 25 10 14 0 25 -4 25 -10 0 -5 -7 -10 -15 -10
-8 0 -15 -7 -15 -15 0 -17 -16 -21 -22 -5 -2 6 -8 6 -18 0 -13 -8 -12 -10 3
-10 14 0 17 -9 17 -50 0 -38 -4 -50 -15 -50 -8 0 -15 -4 -15 -10 0 -6 -73 -10
-200 -10 l-200 0 0 -117 c0 -80 -3 -113 -10 -103 -11 17 -13 110 -4 187 l7 53
181 2 181 3 -77 14 -78 15 -1 80 c-1 67 -2 76 -10 51 -5 -16 -7 -52 -4 -78 4
-29 2 -54 -5 -62 -14 -17 -53 -7 -46 11 3 8 1 14 -4 14 -6 0 -10 -6 -10 -14 0
-20 -35 -29 -60 -16 -11 6 -25 8 -30 5 -6 -4 -10 16 -10 49 0 53 -1 56 -25 56
-14 0 -25 5 -25 10 0 6 7 10 15 10 8 0 15 7 15 15 0 9 9 15 25 15 20 0 25 -5
25 -25 0 -20 5 -25 25 -25 22 0 25 4 25 35 0 31 3 35 25 35 25 0 25 -1 25 -85z
m170 50 c0 -8 -4 -15 -10 -15 -5 0 -10 7 -10 15 0 8 5 15 10 15 6 0 10 -7 10
-15z m60 5 c0 -5 -2 -10 -4 -10 -3 0 -8 5 -11 10 -3 6 -1 10 4 10 6 0 11 -4
11 -10z m100 3 c0 -5 -11 -9 -25 -9 -14 -1 -25 2 -25 7 0 5 11 9 25 9 14 0 25
-3 25 -7z m-480 -69 c0 -2 -7 -4 -15 -4 -8 0 -15 4 -15 10 0 5 7 7 15 4 8 -4
15 -8 15 -10z m495 -14 c-4 -6 12 -10 39 -10 27 0 46 -5 46 -11 0 -6 -7 -9
-15 -5 -8 3 -15 1 -15 -4 0 -6 18 -10 40 -10 36 0 40 -2 40 -25 0 -22 -4 -25
-32 -25 -31 1 -32 1 -14 15 19 14 19 15 -7 15 -26 0 -27 -2 -27 -50 l0 -50 40
0 c38 0 40 -2 40 -30 0 -28 -2 -30 -40 -30 l-40 0 0 -60 c0 -51 3 -60 18 -60
14 0 15 2 2 10 -11 7 -2 10 33 10 26 0 47 -4 47 -10 0 -5 -4 -10 -10 -10 -5 0
-10 -7 -10 -15 0 -11 -12 -15 -42 -16 -33 0 -38 -2 -23 -9 15 -6 8 -9 -30 -12
-47 -3 -48 -4 -25 -15 l25 -12 -27 0 c-26 -1 -28 1 -27 42 0 32 2 37 9 22 5
-12 9 46 9 150 1 113 -3 165 -9 155 -7 -11 -10 -5 -10 23 0 20 5 37 11 37 5 0
7 -4 4 -10z m-142 -20 c-6 -24 -33 -27 -33 -4 0 8 4 13 9 9 5 -3 12 -1 16 5
10 16 14 12 8 -10z m-403 -5 c0 -8 5 -15 10 -15 6 0 10 -60 10 -161 0 -185 -2
-189 -77 -189 -35 0 -44 3 -33 10 11 7 2 10 -32 10 -44 0 -48 2 -48 25 0 14 5
25 10 25 6 0 11 44 12 108 l2 107 6 -95 6 -95 2 103 c2 91 0 102 -15 102 -17
1 -17 1 0 14 16 13 16 14 -6 18 -20 4 -23 1 -19 -24 3 -21 0 -28 -12 -28 -12
0 -16 9 -16 35 l0 35 53 1 52 1 -40 13 c-39 13 -39 13 48 14 71 1 87 -2 87
-14z m50 -2 c0 -10 -4 -14 -8 -8 -4 6 -11 13 -16 18 -5 4 -2 7 7 7 10 0 17 -8
17 -17z m470 -4 c0 -5 -4 -9 -10 -9 -5 0 -10 7 -10 16 0 8 5 12 10 9 6 -3 10
-10 10 -16z m17 -96 c-3 -10 -5 -2 -5 17 0 19 2 27 5 18 2 -10 2 -26 0 -35z
m-37 1 c0 -21 -17 -17 -23 5 -3 14 -1 18 9 14 8 -3 14 -11 14 -19z m-380 -129
c0 -63 3 -115 8 -115 4 0 6 52 5 115 -1 66 2 115 8 115 5 0 9 -54 9 -125 l0
-125 25 0 25 0 0 125 0 125 25 0 25 0 0 -150 0 -150 -61 0 c-87 0 -89 3 -90
162 0 98 -3 125 -10 103 -5 -16 -9 -70 -8 -118 1 -48 -1 -91 -5 -94 -3 -3 -6
51 -6 120 l0 127 25 0 25 0 0 -115z m160 -27 c0 -78 -2 -139 -4 -137 -8 8 -12
279 -4 279 4 0 8 -64 8 -142z m170 132 c0 -5 7 -10 15 -10 10 0 15 -10 15 -30
0 -16 5 -30 10 -30 6 0 10 -32 10 -75 0 -43 -4 -75 -10 -75 -5 0 -10 -11 -10
-25 0 -20 -5 -25 -25 -25 -14 0 -25 -4 -25 -10 0 -6 -28 -10 -65 -10 -63 0
-65 1 -65 25 0 14 5 25 11 25 6 0 9 -7 5 -15 -3 -8 -1 -15 4 -15 6 0 10 53 10
130 0 72 -4 130 -8 130 -5 0 -10 -48 -11 -107 -1 -59 -4 -110 -7 -112 -2 -2
-4 50 -4 117 l0 122 75 0 c43 0 75 -4 75 -10z m-273 -147 c-2 -27 -3 -5 -3 47
0 52 1 74 3 48 2 -27 2 -69 0 -95z m350 -5 c-2 -13 -4 -3 -4 22 0 25 2 35 4
23 2 -13 2 -33 0 -45z m123 27 c-14 -17 -30 -20 -30 -6 0 5 8 12 18 14 9 3 19
5 21 6 2 0 -2 -6 -9 -14z m50 -24 c0 -4 -11 -6 -25 -3 -14 2 -25 6 -25 8 0 2
11 4 25 4 14 0 25 -4 25 -9z"/>
<path d="M418 783 c7 -3 16 -2 19 1 4 3 -2 6 -13 5 -11 0 -14 -3 -6 -6z"/>
<path d="M530 769 c0 -5 5 -7 10 -4 6 3 10 8 10 11 0 2 -4 4 -10 4 -5 0 -10
-5 -10 -11z"/>
<path d="M423 705 c0 -22 2 -30 4 -17 2 12 2 30 0 40 -3 9 -5 -1 -4 -23z"/>
<path d="M381 701 c-11 -7 -11 -9 0 -14 8 -3 4 -6 -8 -6 -18 -1 -23 -7 -22
-28 l1 -28 8 25 c8 24 8 24 9 3 1 -13 7 -23 16 -23 11 0 15 11 15 40 0 22 -1
40 -2 40 -2 0 -9 -4 -17 -9z"/>
<path d="M565 650 c3 -5 8 -10 11 -10 2 0 4 5 4 10 0 6 -5 10 -11 10 -5 0 -7
-4 -4 -10z"/>
<path d="M690 645 c0 -5 5 -17 10 -25 5 -8 10 -10 10 -5 0 6 -5 17 -10 25 -5
8 -10 11 -10 5z"/>
<path d="M850 509 c0 -5 17 -9 37 -9 20 0 33 3 30 6 -10 11 -67 13 -67 3z"/>
<path d="M900 339 c0 -5 5 -7 10 -4 6 3 10 8 10 11 0 2 -4 4 -10 4 -5 0 -10
-5 -10 -11z"/>
<path d="M220 660 c0 -5 5 -10 11 -10 5 0 7 5 4 10 -3 6 -8 10 -11 10 -2 0 -4
-4 -4 -10z"/>
<path d="M150 500 l0 -130 35 0 35 0 0 115 c0 70 -4 115 -10 115 -5 0 -10 5
-10 11 0 5 5 7 10 4 6 -3 10 -1 10 4 0 6 -16 11 -35 11 l-35 0 0 -130z m17 43
c-3 -10 -5 -4 -5 12 0 17 2 24 5 18 2 -7 2 -21 0 -30z m30 -106 c-2 -23 -3 -1
-3 48 0 50 1 68 3 42 2 -26 2 -67 0 -90z m-30 -24 c-3 -10 -5 -4 -5 12 0 17 2
24 5 18 2 -7 2 -21 0 -30z"/>
<path d="M238 553 c-5 -79 -3 -183 4 -183 4 0 8 47 8 105 0 58 -2 105 -5 105
-3 0 -6 -12 -7 -27z"/>
<path d="M464 440 c0 -52 1 -74 3 -47 2 26 2 68 0 95 -2 26 -3 4 -3 -48z"/>
<path d="M604 410 c0 -52 1 -74 3 -47 2 26 2 68 0 95 -2 26 -3 4 -3 -48z"/>
<path d="M630 400 c0 -94 1 -100 21 -100 37 0 49 24 49 99 0 41 -4 71 -10 71
-5 0 -10 7 -10 15 0 9 -9 15 -25 15 l-25 0 0 -100z"/>
<path d="M722 395 c0 -16 2 -22 5 -12 2 9 2 23 0 30 -3 6 -5 -1 -5 -18z"/>
<path d="M700 289 c0 -5 5 -7 10 -4 6 3 10 8 10 11 0 2 -4 4 -10 4 -5 0 -10
-5 -10 -11z"/>
<path d="M0 605 c0 -14 5 -25 10 -25 6 0 10 11 10 25 0 14 -4 25 -10 25 -5 0
-10 -11 -10 -25z"/>
<path d="M23 345 c0 -15 5 -25 13 -25 8 0 14 10 14 25 0 15 -6 25 -14 25 -8 0
-13 -10 -13 -25z"/>
<path d="M400 210 c0 -5 16 -10 35 -10 19 0 35 5 35 10 0 6 -16 10 -35 10 -19
0 -35 -4 -35 -10z"/>
</g>
</svg>
