<?xml version="1.0" standalone="no"?>
<!DOCTYPE svg PUBLIC "-//W3C//DTD SVG 20010904//EN"
 "http://www.w3.org/TR/2001/REC-SVG-20010904/DTD/svg10.dtd">
<svg version="1.0" xmlns="http://www.w3.org/2000/svg"
 width="152.000000pt" height="152.000000pt" viewBox="0 0 152.000000 152.000000"
 preserveAspectRatio="xMidYMid meet">
<metadata>
Created by potrace 1.16, written by Peter Selinger 2001-2019
</metadata>
<g transform="translate(0.000000,152.000000) scale(0.100000,-0.100000)"
fill="#000000" stroke="none">
<path d="M466 1505 c-15 -8 -34 -15 -41 -15 -7 0 -29 -11 -49 -25 -20 -14 -44
-25 -52 -25 -19 0 -244 -225 -244 -244 0 -8 -11 -32 -25 -52 -14 -20 -25 -42
-25 -49 0 -7 -7 -26 -15 -41 -8 -16 -15 -45 -14 -64 0 -34 1 -34 11 -10 6 14
17 38 25 54 7 16 13 35 13 41 0 7 11 29 25 49 14 20 25 44 25 52 0 19 225 244
244 244 8 0 32 11 52 25 20 14 42 25 49 25 6 0 25 6 41 13 16 8 40 19 54 25
24 10 24 11 -10 11 -19 1 -48 -6 -64 -14z"/>
<path d="M715 1510 c-44 -4 -90 -12 -102 -18 -12 -7 -33 -12 -47 -12 -14 0
-52 -13 -83 -29 -32 -16 -79 -34 -104 -41 -48 -12 -139 -82 -161 -123 -9 -17
-3 -15 28 11 54 45 55 46 102 76 25 16 43 22 47 15 4 -5 15 -7 26 -4 13 4 19
2 19 -9 0 -9 7 -16 15 -16 10 0 14 8 11 23 -4 27 31 57 44 37 11 -17 1 -40
-16 -40 -8 0 -14 -5 -14 -11 0 -19 34 -4 47 21 7 13 20 28 30 31 14 6 12 8 -9
8 -35 1 -37 17 -3 23 29 6 35 2 35 -24 0 -10 5 -18 10 -18 6 0 8 11 4 26 -5
19 -3 25 7 23 8 -1 25 2 39 8 14 6 59 12 100 13 122 4 117 7 119 -48 l1 -48
-50 -22 c-35 -16 -51 -29 -56 -47 -7 -29 -16 -31 -38 -9 -18 18 -21 45 -6 60
14 14 1 74 -15 74 -8 0 -19 2 -27 5 -7 3 -22 -1 -32 -8 -17 -13 -17 -14 2 -49
22 -39 20 -50 -6 -41 -10 4 -14 3 -10 -2 4 -4 3 -14 -3 -21 -8 -10 -16 -10
-35 -2 l-24 11 22 11 c23 12 38 46 19 46 -13 0 -61 -48 -61 -60 0 -6 -4 -10
-10 -10 -5 0 -10 5 -10 10 0 6 -16 0 -35 -12 -39 -26 -44 -42 -15 -60 13 -9
18 -19 14 -35 -4 -13 -2 -23 2 -23 11 0 44 57 44 74 0 18 37 49 49 42 6 -4 8
-13 4 -21 -6 -18 8 -20 25 -3 9 9 12 6 12 -16 0 -16 8 -35 17 -42 23 -16 14
-24 -36 -31 -35 -5 -92 -43 -63 -43 6 0 14 5 17 10 9 14 25 12 22 -2 -1 -7 6
-12 16 -10 25 4 21 -13 -7 -26 -18 -8 -26 -8 -28 0 -5 13 -98 -70 -98 -87 0
-6 -11 -22 -25 -35 -21 -20 -24 -30 -19 -58 5 -27 4 -33 -7 -30 -8 3 -13 14
-12 26 3 22 -22 37 -40 25 -7 -4 -19 -6 -28 -5 -25 4 -41 -23 -42 -75 -2 -37
2 -48 15 -51 10 -2 19 5 23 17 3 12 13 21 21 21 12 0 12 -5 0 -35 -14 -33 -14
-35 5 -35 15 0 19 -7 19 -30 0 -24 6 -33 26 -40 33 -13 34 -13 34 4 0 8 5 16
12 18 21 7 97 -17 120 -39 13 -11 32 -23 42 -25 30 -5 43 -34 28 -59 -7 -11
-11 -24 -7 -27 3 -4 9 -1 13 5 8 13 52 6 52 -8 0 -5 11 -9 24 -9 25 0 76 -35
76 -51 0 -6 -10 -25 -23 -42 -13 -18 -24 -45 -25 -60 -3 -40 -18 -65 -53 -82
-17 -9 -28 -22 -26 -28 2 -7 -5 -29 -16 -49 -16 -32 -22 -36 -38 -28 -21 12
-25 0 -7 -18 10 -10 7 -17 -12 -35 -20 -18 -25 -31 -25 -71 1 -34 6 -52 18
-61 22 -16 22 -25 -1 -25 -48 0 -64 49 -86 258 -7 67 -15 124 -17 125 -2 1
-13 7 -23 13 -11 5 -25 28 -33 49 -7 21 -19 46 -27 54 -15 17 -12 89 5 106 5
5 9 22 9 37 0 23 -4 28 -25 28 -18 0 -26 7 -31 24 -6 25 -53 73 -68 68 -18 -6
-56 29 -56 53 0 39 -21 126 -29 120 -4 -2 -9 17 -10 42 -1 35 6 59 29 99 16
30 29 57 28 61 -1 5 8 30 20 56 12 27 22 51 22 53 0 12 -19 0 -59 -36 -29 -26
-39 -40 -28 -40 23 0 22 -8 -14 -84 -30 -63 -30 -68 -23 -156 4 -63 11 -93 20
-97 8 -3 14 -15 14 -27 0 -25 38 -66 61 -66 19 -1 51 -30 68 -62 8 -15 22 -30
32 -33 15 -5 16 -11 9 -31 -13 -33 -13 -131 0 -139 5 -3 18 -26 29 -50 10 -24
28 -48 39 -54 17 -9 21 -25 27 -118 13 -199 44 -274 113 -273 60 1 100 80 45
88 -18 3 -23 10 -23 32 0 16 6 33 13 37 19 12 77 107 77 126 0 9 13 23 28 31
30 15 52 53 52 88 0 11 9 36 21 54 13 22 19 46 17 71 -3 35 -7 39 -67 68 -48
24 -68 40 -80 66 -10 21 -25 35 -38 37 -13 2 -30 13 -38 25 -21 30 -113 48
-155 31 -27 -12 -30 -11 -30 6 0 15 9 19 61 22 43 2 63 -1 68 -10 5 -8 8 3 9
26 1 33 -2 41 -24 50 -14 7 -31 12 -39 12 -17 0 -35 30 -35 58 0 10 11 29 25
42 14 13 25 29 25 36 0 17 67 74 88 74 10 0 28 9 40 20 12 11 33 20 47 20 21
0 25 5 25 29 0 17 -4 33 -10 36 -5 3 -10 15 -10 26 0 10 -5 28 -12 38 -6 10
-8 26 -4 36 6 16 9 15 31 -9 24 -26 85 -37 85 -16 0 12 49 60 60 60 4 0 10 -9
13 -20 4 -15 14 -20 40 -20 40 0 60 19 55 52 -2 15 -11 24 -25 26 -20 3 -23 9
-23 52 0 48 -17 80 -43 80 -7 0 -21 2 -32 4 -11 2 -56 0 -100 -4z m198 -159
c14 -2 7 -19 -10 -23 -24 -6 -43 1 -43 16 0 7 10 12 23 10 12 -1 25 -3 30 -3z
m-243 -181 c0 -6 -6 -10 -12 -10 -22 0 -41 17 -34 29 8 13 46 -3 46 -19z
m-462 -250 c2 -19 -1 -29 -8 -25 -5 3 -10 20 -10 36 0 39 15 30 18 -11z m160
8 c-6 -16 -36 -34 -44 -26 -3 4 -4 14 -1 23 7 17 51 21 45 3z m67 -48 c16 -17
16 -20 2 -20 -9 0 -19 5 -22 10 -3 6 -15 10 -26 10 -10 0 -19 5 -19 10 0 18
46 11 65 -10z m95 -38 c0 -9 -6 -12 -16 -8 -9 3 -27 6 -40 6 -14 0 -22 4 -19
10 10 15 75 9 75 -8z m-100 -2 c0 -5 -4 -10 -10 -10 -5 0 -10 5 -10 10 0 6 5
10 10 10 6 0 10 -4 10 -10z m210 -755 c0 -8 -7 -15 -15 -15 -8 0 -15 7 -15 15
0 8 7 15 15 15 8 0 15 -7 15 -15z"/>
<path d="M980 1508 c14 -6 38 -17 54 -25 16 -7 35 -13 41 -13 7 0 28 -11 48
-24 19 -13 43 -26 54 -29 13 -3 12 -5 -7 -6 -23 -1 -23 -2 -7 -18 15 -15 19
-16 26 -4 7 11 16 8 46 -15 48 -36 185 -185 185 -201 0 -7 11 -29 25 -49 14
-20 25 -42 25 -49 0 -6 6 -25 13 -41 8 -16 19 -40 25 -54 10 -24 11 -24 11 10
1 19 -6 48 -14 64 -8 15 -15 34 -15 41 0 7 -11 29 -25 49 -14 20 -25 44 -25
52 0 19 -225 244 -244 244 -8 0 -32 11 -52 25 -20 14 -42 25 -49 25 -7 0 -26
7 -41 15 -16 8 -45 15 -64 14 -34 0 -34 -1 -10 -11z"/>
<path d="M927 1483 c-4 -3 -7 -15 -7 -26 0 -39 65 -63 90 -33 6 8 21 17 33 19
19 3 18 4 -8 12 -16 5 -36 14 -43 22 -14 14 -54 18 -65 6z m62 -27 c9 -10 8
-15 -2 -19 -13 -5 -47 14 -47 27 0 12 38 6 49 -8z"/>
<path d="M1073 1435 c-3 -8 -16 -15 -29 -15 -24 0 -26 -4 -39 -81 -5 -31 -9
-36 -25 -32 -24 6 -40 -29 -40 -88 0 -32 4 -39 19 -39 23 0 35 -26 15 -34 -15
-6 -17 -52 -5 -96 9 -33 2 -70 -15 -70 -7 0 -16 -5 -20 -12 -4 -7 -3 -8 4 -4
16 10 14 -5 -3 -28 -21 -28 -21 -169 0 -186 8 -7 15 -18 15 -26 0 -7 12 -25
28 -39 24 -24 32 -26 82 -21 30 3 60 3 66 -2 22 -14 29 -92 20 -232 -3 -36 -2
-93 1 -127 6 -60 7 -63 33 -63 48 0 88 21 115 61 23 32 33 38 58 36 25 -2 33
4 53 38 47 80 53 145 13 145 -30 0 -24 42 16 117 27 51 35 78 35 119 0 29 4
55 9 59 5 3 12 19 16 35 4 17 11 28 16 24 5 -3 9 1 9 9 0 19 -32 47 -54 47 -9
0 -28 12 -43 26 -14 14 -27 23 -30 20 -9 -9 31 -67 43 -62 17 6 34 -14 34 -40
0 -23 -44 -84 -61 -84 -5 0 -9 6 -9 13 0 7 -9 30 -20 52 -11 22 -20 44 -20 50
-1 15 -38 61 -44 54 -5 -5 43 -116 65 -149 5 -8 12 -23 15 -32 5 -13 13 -16
31 -12 22 6 24 4 18 -22 -4 -16 -21 -56 -38 -89 -21 -42 -33 -81 -38 -129 -5
-59 -10 -72 -33 -88 -15 -12 -26 -29 -26 -43 0 -12 -7 -28 -15 -35 -8 -7 -15
-18 -15 -24 0 -18 -52 -63 -80 -69 l-26 -6 3 107 c1 59 5 131 9 160 5 41 2 57
-10 71 -11 12 -14 28 -9 56 5 33 4 37 -10 32 -12 -4 -17 -1 -17 9 0 13 -6 15
-27 9 -16 -3 -37 -8 -49 -9 -11 -1 -25 -5 -31 -9 -11 -7 -38 20 -67 67 -32 50
-21 163 18 195 9 7 16 24 16 36 0 27 13 38 65 53 67 20 78 19 84 -6 3 -12 19
-29 35 -37 35 -18 36 -18 36 0 0 17 16 20 25 5 3 -5 22 -10 42 -10 28 0 34 3
29 16 -3 9 -6 22 -6 30 0 10 -7 13 -24 8 -19 -4 -27 0 -36 17 -11 19 -10 24 5
35 12 9 23 10 36 4 11 -7 20 -7 24 -1 3 6 -4 15 -15 21 -11 6 -20 17 -20 25 0
8 -5 15 -11 15 -6 0 -8 -7 -4 -17 5 -15 4 -16 -6 -5 -21 20 -29 14 -22 -18 3
-20 1 -30 -6 -30 -8 0 -10 -8 -6 -20 10 -31 -11 -23 -25 10 -12 29 -57 67 -67
56 -4 -3 6 -15 20 -27 26 -19 41 -79 17 -64 -6 4 -9 12 -8 18 4 18 -50 67 -66
61 -8 -3 -22 -21 -31 -40 -14 -29 -21 -35 -43 -32 -23 3 -27 8 -30 39 -3 35
-2 36 27 31 36 -5 41 11 11 30 -23 15 -26 28 -7 28 7 0 23 12 36 26 19 22 20
28 9 42 -11 14 -10 15 5 9 13 -5 17 -3 14 5 -2 7 -14 12 -25 11 -26 -3 -38 28
-22 57 6 11 8 29 5 40 -10 30 11 33 64 7 56 -26 57 -15 4 38 -26 26 -35 30
-40 20z m-73 -169 c0 -7 9 -21 20 -31 11 -10 20 -21 20 -25 0 -4 -9 -10 -20
-13 -15 -4 -20 0 -20 16 0 11 -7 28 -16 38 -9 10 -13 23 -9 29 8 13 25 4 25
-14z m-12 -43 c-5 -25 -28 -28 -28 -4 0 12 6 21 16 21 9 0 14 -7 12 -17z m142
-139 c0 -8 -4 -12 -10 -9 -5 3 -10 10 -10 16 0 5 5 9 10 9 6 0 10 -7 10 -16z
m120 -54 c0 -5 -2 -10 -4 -10 -3 0 -8 5 -11 10 -3 6 -1 10 4 10 6 0 11 -4 11
-10z m144 -619 c-18 -40 -31 -58 -37 -52 -11 11 4 55 37 111 32 54 32 13 0
-59z"/>
<path d="M1120 1432 c0 -12 19 -26 26 -19 2 2 -2 10 -11 17 -9 8 -15 8 -15 2z"/>
<path d="M546 1394 c-4 -9 -4 -19 -2 -21 8 -8 26 8 26 23 0 19 -16 18 -24 -2z"/>
<path d="M390 1350 c0 -5 7 -10 15 -10 8 0 15 5 15 10 0 6 -7 10 -15 10 -8 0
-15 -4 -15 -10z"/>
<path d="M1080 1331 c0 -10 7 -24 15 -31 17 -14 20 -50 5 -50 -5 0 -10 -4 -10
-10 0 -5 11 -10 24 -10 20 0 25 6 28 35 3 28 1 35 -14 35 -10 0 -20 10 -24 25
-7 29 -24 34 -24 6z"/>
<path d="M383 1323 c-7 -2 -13 -9 -13 -14 0 -14 26 -10 40 6 10 12 10 15 -1
14 -8 0 -20 -3 -26 -6z"/>
<path d="M370 1280 c0 -5 7 -6 17 -3 11 4 14 3 9 -5 -4 -7 -3 -12 3 -12 17 0
21 18 5 24 -23 9 -34 7 -34 -4z"/>
<path d="M387 1233 c-4 -3 -7 -16 -7 -27 1 -21 1 -21 15 -2 8 11 15 23 15 28
0 10 -14 11 -23 1z"/>
<path d="M555 1230 c-3 -5 -1 -10 4 -10 6 0 11 5 11 10 0 6 -2 10 -4 10 -3 0
-8 -4 -11 -10z"/>
<path d="M520 1200 c0 -5 5 -10 10 -10 6 0 10 5 10 10 0 6 -4 10 -10 10 -5 0
-10 -4 -10 -10z"/>
<path d="M418 1178 c-20 -20 -24 -33 -8 -23 6 3 10 2 10 -4 0 -5 -4 -13 -10
-16 -5 -3 -10 -13 -10 -21 0 -8 5 -14 10 -14 6 0 10 6 10 14 0 8 5 18 11 22 9
5 10 -1 5 -20 l-7 -27 31 16 c35 18 39 29 8 21 -13 -3 -17 -3 -10 0 17 8 15
24 -2 24 -8 0 -16 10 -18 23 -3 21 -4 22 -20 5z"/>
<path d="M1320 1150 c0 -7 8 -24 18 -38 10 -15 22 -35 25 -44 4 -10 13 -18 22
-18 13 0 14 4 4 23 -6 12 -18 29 -26 38 -7 9 -13 22 -11 30 2 7 -5 15 -14 17
-10 2 -18 -2 -18 -8z"/>
<path d="M1372 1139 c2 -7 10 -15 17 -17 8 -3 12 1 9 9 -2 7 -10 15 -17 17 -8
3 -12 -1 -9 -9z"/>
<path d="M250 1100 c0 -5 5 -10 10 -10 6 0 10 5 10 10 0 6 -4 10 -10 10 -5 0
-10 -4 -10 -10z"/>
<path d="M1355 770 c-3 -5 -1 -10 4 -10 6 0 11 5 11 10 0 6 -2 10 -4 10 -3 0
-8 -4 -11 -10z"/>
<path d="M455 740 c-3 -5 -1 -10 4 -10 6 0 11 5 11 10 0 6 -2 10 -4 10 -3 0
-8 -4 -11 -10z"/>
<path d="M1325 630 c-7 -12 2 -30 16 -30 5 0 9 9 9 20 0 21 -15 27 -25 10z"/>
<path d="M1302 573 c2 -14 8 -28 14 -30 7 -2 9 8 6 27 -5 37 -25 40 -20 3z"/>
<path d="M1 530 c-1 -19 6 -48 14 -64 8 -15 15 -34 15 -41 0 -7 11 -29 25 -49
14 -20 25 -44 25 -52 0 -19 225 -244 244 -244 8 0 32 -11 52 -25 20 -14 42
-25 49 -25 7 0 26 -7 41 -15 16 -8 45 -15 64 -14 34 0 34 1 10 11 -14 6 -38
17 -54 25 -16 7 -35 13 -41 13 -7 0 -29 11 -49 25 -20 14 -44 25 -52 25 -19 0
-244 225 -244 244 0 8 -11 32 -25 52 -14 20 -25 42 -25 49 0 6 -6 25 -13 41
-8 16 -19 40 -25 54 -10 24 -11 24 -11 -10z"/>
<path d="M1501 525 c-7 -22 -17 -44 -22 -49 -5 -6 -9 -17 -9 -27 0 -9 -11 -33
-25 -53 -14 -20 -25 -44 -25 -52 0 -19 -225 -244 -244 -244 -8 0 -32 -11 -52
-25 -20 -14 -42 -25 -49 -25 -6 0 -25 -6 -41 -13 -16 -8 -40 -19 -54 -25 -24
-10 -24 -11 10 -11 19 -1 48 6 64 14 15 8 34 15 41 15 7 0 29 11 49 25 20 14
44 25 52 25 19 0 244 225 244 244 0 8 11 32 25 52 14 20 25 42 25 49 0 6 7 26
16 43 8 18 14 46 12 64 l-3 33 -14 -40z"/>
<path d="M1327 523 c-11 -10 -8 -43 3 -43 6 0 10 11 10 25 0 26 -2 29 -13 18z"/>
</g>
</svg>
