<?xml version="1.0" standalone="no"?>
<!DOCTYPE svg PUBLIC "-//W3C//DTD SVG 20010904//EN"
 "http://www.w3.org/TR/2001/REC-SVG-20010904/DTD/svg10.dtd">
<svg version="1.0" xmlns="http://www.w3.org/2000/svg"
 width="100.000000pt" height="100.000000pt" viewBox="0 0 100.000000 100.000000"
 preserveAspectRatio="xMidYMid meet">
<metadata>
Created by potrace 1.16, written by Peter Selinger 2001-2019
</metadata>
<g transform="translate(0.000000,100.000000) scale(0.100000,-0.100000)"
fill="#000000" stroke="none">
<path d="M20 990 c0 -5 7 -10 15 -10 8 0 15 5 15 10 0 6 -7 10 -15 10 -8 0
-15 -4 -15 -10z"/>
<path d="M240 990 c0 -5 7 -10 15 -10 8 0 15 5 15 10 0 6 -7 10 -15 10 -8 0
-15 -4 -15 -10z"/>
<path d="M451 983 c-1 -18 -7 -23 -26 -23 -17 0 -25 -5 -25 -17 0 -15 2 -16
10 -3 8 12 10 11 10 -7 0 -13 -4 -23 -10 -23 -5 0 -10 -9 -10 -20 0 -11 -4
-20 -10 -20 -6 0 -10 -35 -10 -85 0 -50 4 -85 10 -85 6 0 10 -11 10 -25 0 -14
5 -25 10 -25 6 0 10 -18 10 -40 0 -38 -2 -40 -30 -40 -22 0 -30 -5 -30 -17 0
-15 2 -16 10 -3 8 12 10 11 10 -7 0 -12 -6 -23 -12 -26 -10 -3 -13 -41 -13
-147 0 -106 3 -144 13 -148 6 -2 12 -15 12 -28 0 -13 5 -24 10 -24 6 0 10 -8
10 -17 0 -15 -2 -16 -10 -3 -8 13 -10 12 -10 -2 0 -11 8 -18 20 -18 13 0 20
-7 20 -20 0 -11 5 -20 10 -20 6 0 10 -11 10 -25 0 -20 5 -25 25 -25 20 0 25 5
25 25 0 14 -4 25 -10 25 -5 0 -10 9 -10 20 0 11 -4 20 -9 20 -6 0 -13 20 -17
45 -3 25 -10 45 -15 45 -5 0 -10 30 -10 68 -1 52 -3 60 -9 37 -6 -23 -8 -15
-9 38 -1 39 3 67 9 67 6 0 10 11 10 25 0 14 5 25 10 25 6 0 10 7 10 16 0 8 -4
12 -10 9 -5 -3 -10 -1 -10 4 0 6 11 11 25 11 18 0 25 -5 25 -20 0 -17 7 -20
44 -20 39 0 44 2 39 20 -4 14 0 20 11 20 9 0 16 -8 16 -20 0 -11 5 -20 10 -20
6 0 10 -50 10 -130 0 -80 -4 -130 -10 -130 -5 0 -10 -11 -10 -25 0 -14 -4 -25
-9 -25 -5 0 -12 -18 -16 -40 -6 -34 -10 -40 -31 -40 -15 0 -23 -4 -19 -11 4
-6 10 -7 13 -4 4 4 12 -13 18 -37 7 -26 12 -34 13 -20 1 12 7 22 16 22 9 0 15
9 15 23 0 18 -2 19 -10 7 -8 -13 -10 -12 -10 3 0 12 8 17 30 17 17 0 30 5 30
11 0 5 -4 7 -10 4 -5 -3 -10 1 -10 9 0 9 9 16 20 16 11 0 20 5 20 11 0 5 -5 7
-10 4 -6 -3 -10 0 -10 9 0 8 4 16 10 18 5 2 13 31 16 66 4 34 11 62 15 62 5 0
8 42 8 93 -1 64 -4 83 -9 62 -7 -27 -8 -25 -11 20 -2 28 -2 78 0 113 l3 62
-36 0 c-20 0 -36 -5 -36 -11 0 -5 5 -7 10 -4 6 3 10 1 10 -5 0 -6 5 -8 10 -5
6 3 10 1 10 -4 0 -6 -20 -11 -45 -11 -25 0 -45 -5 -45 -10 0 -6 5 -9 11 -8 6
2 14 -3 16 -9 3 -7 -2 -13 -11 -13 -12 0 -16 -10 -16 -37 0 -28 -3 -34 -10
-23 -8 13 -10 12 -10 -2 0 -10 -4 -18 -10 -18 -5 0 -10 18 -10 40 0 22 -4 40
-10 40 -5 0 -10 9 -10 19 0 11 -5 21 -12 23 -9 3 -13 47 -15 151 -2 124 0 147
12 147 8 0 15 8 15 18 0 14 -2 15 -10 2 -8 -12 -10 -11 -10 8 0 19 5 22 40 22
33 0 40 3 40 20 0 22 -15 27 -23 8 -4 -10 -8 -9 -16 2 -9 12 -12 13 -20 1 -7
-11 -9 -11 -14 0 -3 8 -6 4 -6 -8z m-44 -215 c-3 -8 -6 -5 -6 6 -1 11 2 17 5
13 3 -3 4 -12 1 -19z m195 -203 c-3 -19 -10 -25 -31 -25 -22 1 -24 2 -8 11 9
5 17 17 17 24 0 8 6 15 14 15 9 0 12 -8 8 -25z m-132 -21 c0 -2 -12 -4 -27 -4
-21 0 -24 3 -14 9 13 8 41 5 41 -5z m-93 -191 c-2 -16 -4 -3 -4 27 0 30 2 43
4 28 2 -16 2 -40 0 -55z m240 15 c-2 -13 -4 -3 -4 22 0 25 2 35 4 23 2 -13 2
-33 0 -45z"/>
<path d="M536 960 c-6 -30 -5 -45 3 -48 7 -2 11 -29 11 -68 0 -57 -2 -64 -20
-64 -12 0 -20 7 -20 18 0 14 2 15 10 2 8 -12 10 -11 10 8 0 18 -6 22 -30 22
l-30 0 0 -65 0 -65 45 0 45 0 1 43 c1 36 2 38 9 17 5 -17 8 3 9 63 1 48 -3 87
-7 87 -5 0 -13 21 -18 48 l-10 47 -8 -45z m-49 -172 c-3 -8 -6 -5 -6 6 -1 11
2 17 5 13 3 -3 4 -12 1 -19z m53 -32 c0 -2 -3 -11 -6 -20 -9 -23 -24 -20 -24
4 0 11 7 20 15 20 8 0 15 -2 15 -4z"/>
<path d="M750 990 c0 -5 5 -10 10 -10 6 0 10 5 10 10 0 6 -4 10 -10 10 -5 0
-10 -4 -10 -10z"/>
<path d="M870 990 c0 -5 5 -10 10 -10 6 0 10 5 10 10 0 6 -4 10 -10 10 -5 0
-10 -4 -10 -10z"/>
<path d="M0 950 c0 -5 5 -10 10 -10 6 0 10 -7 10 -15 0 -8 -4 -15 -10 -15 -5
0 -10 -5 -10 -11 0 -5 4 -7 10 -4 6 4 10 -47 10 -147 0 -84 3 -163 6 -175 6
-22 11 -23 115 -23 l109 0 0 -25 0 -25 -109 0 -108 0 -7 -46 c-3 -26 -6 -114
-6 -195 0 -93 -4 -149 -10 -149 -5 0 -10 -4 -10 -10 0 -5 7 -10 15 -10 19 0
19 -19 0 -26 -24 -9 -17 -24 10 -24 l25 0 0 195 0 195 95 0 95 0 0 -195 0
-195 25 0 25 0 0 460 0 460 -25 0 -25 0 0 -195 0 -195 -95 0 -95 0 0 195 0
195 -25 0 c-14 0 -25 -4 -25 -10z m240 -484 c0 -12 -21 -15 -95 -18 -85 -3
-95 -1 -95 15 0 15 11 17 95 17 76 0 95 -3 95 -14z m40 -386 c0 -5 -2 -10 -4
-10 -3 0 -8 5 -11 10 -3 6 -1 10 4 10 6 0 11 -4 11 -10z"/>
<path d="M730 500 l0 -460 110 0 c89 0 110 3 110 14 0 9 -7 13 -20 11 -13 -2
-20 2 -20 11 0 8 10 14 25 14 18 0 25 5 25 20 0 11 5 20 10 20 6 0 10 28 10
65 0 37 4 65 10 65 6 0 10 5 10 10 0 6 -7 10 -15 10 -9 0 -15 9 -15 25 0 16 6
25 15 25 8 0 15 5 15 10 0 6 -4 10 -10 10 -6 0 -10 28 -10 64 0 42 -4 66 -12
68 -17 6 -17 120 0 126 15 5 17 222 2 222 -5 0 -10 18 -10 40 0 29 -4 40 -15
40 -9 0 -15 9 -15 23 0 18 2 19 10 7 8 -13 10 -12 10 3 0 15 -12 17 -110 17
l-110 0 0 -460z m160 415 c0 -24 -2 -25 -65 -25 l-65 0 0 -170 0 -170 85 0 85
0 0 -42 c-1 -34 -3 -39 -11 -25 -8 14 -24 17 -84 17 l-75 0 0 -175 0 -175 89
0 c84 0 89 -1 84 -20 -3 -11 -14 -20 -24 -20 -14 0 -19 -7 -19 -25 0 -24 -3
-25 -58 -25 -53 0 -60 2 -70 25 -9 18 -12 147 -12 440 l0 415 70 0 c68 0 70
-1 70 -25z m40 -45 c0 -11 -4 -20 -10 -20 -5 0 -10 9 -10 20 0 11 5 20 10 20
6 0 10 -9 10 -20z m-40 -10 c0 -5 -25 -10 -55 -10 -30 0 -55 5 -55 10 0 6 25
10 55 10 30 0 55 -4 55 -10z m20 -55 c0 -14 5 -25 10 -25 6 0 10 -28 10 -65 0
-37 -4 -65 -10 -65 -5 0 -10 -7 -10 -16 0 -8 5 -12 10 -9 6 3 10 1 10 -4 0 -7
-28 -11 -71 -11 -44 0 -68 -4 -64 -10 3 -5 31 -10 61 -10 30 0 54 -4 54 -10 0
-6 -28 -10 -65 -10 l-65 0 0 130 0 130 65 0 c63 0 65 -1 65 -25z m47 -112 c-2
-16 -4 -5 -4 22 0 28 2 40 4 28 2 -13 2 -35 0 -50z m-67 -227 c0 -10 -16 -15
-55 -18 -47 -3 -55 0 -55 15 0 14 9 17 55 17 41 0 55 -4 55 -14z m40 -56 c0
-11 5 -20 10 -20 6 0 10 -28 10 -65 0 -37 -4 -65 -10 -65 -5 0 -10 -9 -10 -20
0 -11 -4 -20 -10 -20 -5 0 -10 -10 -10 -22 0 -19 2 -20 10 -8 8 13 10 12 10
-2 0 -16 -10 -18 -75 -18 l-75 0 0 130 0 130 75 0 c68 0 75 -2 75 -20z"/>
<path d="M931 364 c0 -11 3 -14 6 -6 3 7 2 16 -1 19 -3 4 -6 -2 -5 -13z"/>
<path d="M490 860 c0 -5 5 -10 10 -10 6 0 10 5 10 10 0 6 -4 10 -10 10 -5 0
-10 -4 -10 -10z"/>
<path d="M623 850 c3 -13 0 -20 -9 -20 -10 0 -14 -13 -14 -45 0 -25 5 -45 10
-45 6 0 10 -9 10 -20 0 -11 5 -20 11 -20 6 0 8 9 4 20 -4 12 -2 20 5 20 6 0
10 -16 10 -37 -1 -21 3 -51 8 -68 9 -25 10 -15 11 57 1 52 -3 88 -9 90 -6 2
-12 22 -13 46 -1 29 -6 42 -15 42 -9 0 -12 -7 -9 -20z m-6 -62 c-3 -8 -6 -5
-6 6 -1 11 2 17 5 13 3 -3 4 -12 1 -19z"/>
<path d="M661 814 c0 -11 3 -14 6 -6 3 7 2 16 -1 19 -3 4 -6 -2 -5 -13z"/>
<path d="M490 670 c0 -16 7 -20 30 -20 21 0 30 5 30 17 0 9 -3 14 -6 10 -3 -3
-17 -2 -30 3 -20 8 -24 6 -24 -10z"/>
<path d="M70 600 c0 -6 32 -10 75 -10 43 0 75 4 75 10 0 6 -32 10 -75 10 -43
0 -75 -4 -75 -10z"/>
<path d="M510 449 c0 -5 -4 -7 -10 -4 -5 3 -10 1 -10 -4 0 -6 9 -11 20 -11 11
0 20 7 20 15 0 8 -4 15 -10 15 -5 0 -10 -5 -10 -11z"/>
<path d="M581 244 c0 -11 3 -14 6 -6 3 7 2 16 -1 19 -3 4 -6 -2 -5 -13z"/>
<path d="M361 184 c0 -11 3 -14 6 -6 3 7 2 16 -1 19 -3 4 -6 -2 -5 -13z"/>
<path d="M490 20 c0 -13 7 -20 20 -20 13 0 20 7 20 20 0 13 -7 20 -20 20 -13
0 -20 -7 -20 -20z"/>
<path d="M471 14 c0 -11 3 -14 6 -6 3 7 2 16 -1 19 -3 4 -6 -2 -5 -13z"/>
</g>
</svg>
