<?xml version="1.0" standalone="no"?>
<!DOCTYPE svg PUBLIC "-//W3C//DTD SVG 20010904//EN"
 "http://www.w3.org/TR/2001/REC-SVG-20010904/DTD/svg10.dtd">
<svg version="1.0" xmlns="http://www.w3.org/2000/svg"
 width="100.000000pt" height="100.000000pt" viewBox="0 0 100.000000 100.000000"
 preserveAspectRatio="xMidYMid meet">
<metadata>
Created by potrace 1.16, written by Peter Selinger 2001-2019
</metadata>
<g transform="translate(0.000000,100.000000) scale(0.100000,-0.100000)"
fill="#000000" stroke="none">
<path d="M400 700 c-14 -16 -31 -30 -37 -30 -20 0 -18 -110 2 -110 8 0 15 -4
15 -10 0 -5 -5 -10 -11 -10 -16 0 -39 -26 -39 -44 0 -9 -4 -16 -10 -16 -6 0
-10 45 -10 115 l0 115 -50 0 -50 0 0 -75 0 -75 -65 0 -65 0 0 75 0 75 -40 0
c-22 0 -40 -4 -40 -10 0 -5 13 -10 30 -10 l30 0 0 -75 0 -75 85 0 85 0 0 75 0
75 30 0 30 0 0 -190 0 -190 -30 0 -30 0 0 85 0 85 -85 0 -85 0 0 -71 c0 -72
-12 -99 -44 -99 -9 0 -16 -4 -16 -10 0 -15 49 -12 66 4 9 10 14 37 14 85 l0
71 65 0 65 0 0 -85 0 -85 50 0 50 0 0 65 c0 37 4 65 10 65 6 0 10 -9 10 -20 0
-11 5 -20 10 -20 6 0 10 -11 10 -25 0 -16 6 -25 15 -25 8 0 15 -4 15 -10 0 -5
8 -10 18 -10 10 0 24 -9 32 -20 12 -17 26 -20 80 -20 54 0 68 3 80 20 8 11 22
20 32 20 13 0 18 8 18 25 0 14 5 25 11 25 32 0 39 29 39 155 0 138 -6 155 -55
155 -17 0 -37 11 -55 30 -26 27 -34 30 -92 30 -57 -1 -65 -3 -88 -30z m155
-15 c39 -38 27 -105 -18 -105 -9 0 -17 -6 -19 -12 -8 -23 -38 18 -38 51 0 24
4 31 20 31 11 0 20 -4 20 -10 0 -5 5 -10 10 -10 6 0 10 14 10 30 0 28 -3 30
-36 30 -48 0 -64 -19 -64 -75 0 -39 5 -52 30 -75 17 -15 30 -31 30 -34 0 -3
-18 -6 -40 -6 l-40 0 0 -50 c0 -27 5 -50 10 -50 6 0 10 -9 10 -21 0 -24 22
-49 43 -49 9 0 18 -6 21 -12 5 -10 7 -10 12 0 3 6 14 12 25 12 13 0 19 7 19
23 0 12 9 29 20 37 24 17 27 74 6 96 -8 8 -26 14 -40 14 -14 0 -26 3 -26 6 0
14 31 34 54 34 14 0 26 5 26 10 0 6 11 10 25 10 14 0 25 5 25 10 0 6 -11 10
-25 10 -19 0 -25 5 -25 21 0 19 21 49 35 49 4 0 13 -6 21 -14 16 -16 19 -96 4
-96 -5 0 -10 -9 -10 -20 0 -11 5 -20 10 -20 6 0 10 -21 10 -46 0 -44 -16 -74
-39 -74 -6 0 -11 -11 -11 -25 0 -17 -5 -25 -18 -25 -10 0 -24 -9 -32 -20 -20
-28 -100 -28 -120 0 -8 11 -22 20 -32 20 -10 0 -18 5 -18 10 0 6 -7 10 -15 10
-9 0 -15 9 -15 25 0 14 -4 25 -10 25 -5 0 -10 9 -10 19 0 11 -6 22 -12 25 -10
5 -10 7 0 12 6 3 12 12 12 21 0 14 23 43 35 43 4 0 13 7 21 15 14 13 14 17 0
30 -8 8 -19 15 -25 15 -16 0 -14 70 2 70 6 0 23 14 37 30 34 40 99 42 135 5z
m11 -219 c20 -20 18 -39 -6 -56 -11 -8 -20 -25 -20 -37 0 -18 -6 -23 -26 -23
-31 0 -54 21 -54 49 0 12 -4 21 -10 21 -5 0 -10 14 -10 30 0 30 0 30 56 30 35
0 61 -5 70 -14z"/>
<path d="M710 500 l0 -210 125 0 c77 0 125 4 125 10 0 6 9 10 20 10 16 0 20 7
20 35 0 19 -4 35 -10 35 -5 0 -10 -11 -10 -25 0 -18 -5 -25 -20 -25 -11 0 -20
-4 -20 -10 0 -6 -42 -10 -105 -10 l-105 0 0 190 0 190 100 0 c94 0 103 -2 125
-25 20 -19 25 -34 25 -75 0 -27 -4 -50 -10 -50 -15 0 -12 -29 4 -46 8 -8 17
-14 20 -14 3 0 6 41 6 90 0 83 -2 93 -25 115 -23 24 -30 25 -145 25 l-120 0 0
-210z"/>
<path d="M790 595 l0 -55 65 0 65 0 0 41 c0 54 -17 69 -79 69 l-51 0 0 -55z
m96 21 c8 -8 14 -24 14 -35 0 -18 -6 -21 -45 -21 -45 0 -45 0 -45 35 0 32 2
35 31 35 17 0 37 -6 45 -14z"/>
<path d="M790 430 l0 -50 75 0 75 0 0 36 c0 51 -18 64 -89 64 l-61 0 0 -50z
m116 16 c31 -31 17 -46 -41 -46 -54 0 -55 0 -55 30 0 28 2 30 41 30 22 0 47
-6 55 -14z"/>
</g>
</svg>
