<?xml version="1.0" standalone="no"?>
<!DOCTYPE svg PUBLIC "-//W3C//DTD SVG 20010904//EN"
 "http://www.w3.org/TR/2001/REC-SVG-20010904/DTD/svg10.dtd">
<svg version="1.0" xmlns="http://www.w3.org/2000/svg"
 width="100.000000pt" height="100.000000pt" viewBox="0 0 100.000000 100.000000"
 preserveAspectRatio="xMidYMid meet">
<metadata>
Created by potrace 1.16, written by Peter Selinger 2001-2019
</metadata>
<g transform="translate(0.000000,100.000000) scale(0.100000,-0.100000)"
fill="#000000" stroke="none">
<path d="M440 970 c0 -28 -3 -30 -35 -30 -33 0 -35 -2 -35 -35 l0 -35 -60 0
-60 0 0 -30 c0 -27 -3 -30 -30 -30 -27 0 -30 -3 -30 -30 l0 -30 -65 0 -65 0 0
-125 0 -125 61 0 c37 0 58 4 54 10 -3 6 -15 10 -26 10 -12 0 -19 7 -19 20 0
16 7 20 30 20 l30 0 0 -280 c0 -180 4 -280 10 -280 6 0 10 13 10 29 0 16 6 32
13 35 10 5 10 7 0 12 -10 4 -13 57 -13 215 0 202 1 209 20 209 19 0 20 -7 20
-250 0 -177 3 -250 11 -250 7 0 10 12 7 30 l-5 30 79 0 78 0 0 -30 c0 -17 5
-30 10 -30 6 0 10 38 10 95 l0 95 30 0 30 0 0 -95 c0 -57 4 -95 10 -95 6 0 10
13 10 30 l0 30 85 0 85 0 0 220 c0 213 1 220 20 220 19 0 20 -7 20 -206 0
-185 -2 -208 -17 -220 -17 -13 -17 -13 0 -14 12 0 17 -8 17 -30 0 -17 5 -30
10 -30 6 0 10 90 10 250 l0 250 60 0 60 0 0 95 0 95 -30 0 c-27 0 -30 3 -30
30 0 27 -3 30 -30 30 l-30 0 0 95 0 95 -95 0 -95 0 0 30 c0 17 -4 30 -10 30
-5 0 -10 -13 -10 -30 0 -28 -2 -30 -40 -30 -38 0 -40 2 -40 30 0 17 -4 30 -10
30 -5 0 -10 -13 -10 -30z m96 -53 c2 -1 4 -16 7 -32 3 -28 6 -30 48 -30 28 0
44 5 45 13 1 6 2 21 3 32 1 17 8 20 46 20 l45 0 0 -92 c0 -51 5 -100 10 -108
6 -10 10 -11 10 -2 0 6 9 12 20 12 17 0 20 -7 20 -44 0 -24 3 -58 6 -75 9 -43
-19 -42 -31 2 -7 21 -17 33 -32 35 -13 2 -24 13 -27 28 -5 17 -16 26 -36 31
-17 3 -30 9 -30 14 0 5 -9 18 -20 29 -17 17 -33 20 -100 20 -57 0 -80 4 -81
13 0 10 -2 10 -6 0 -2 -7 -21 -13 -41 -14 -40 0 -93 -17 -59 -18 10 -1 17 -9
17 -20 0 -11 5 -23 10 -26 6 -4 10 5 10 19 l0 26 95 0 95 0 0 -30 c0 -27 -3
-30 -30 -30 l-30 0 0 -155 0 -155 -30 0 -30 0 0 155 0 155 -65 0 -65 0 0 -30
c0 -27 -3 -30 -30 -30 -28 0 -30 -3 -30 -35 0 -32 -2 -35 -30 -35 -26 0 -30 4
-31 28 -1 16 -3 20 -6 10 -3 -12 -14 -18 -31 -18 -15 0 -37 -3 -49 -6 -22 -6
-23 -4 -23 50 0 46 3 56 18 57 16 1 16 2 0 6 -10 2 -18 13 -18 24 0 26 49 27
51 2 1 -17 2 -17 6 0 3 12 15 17 39 17 31 0 34 3 34 30 0 26 4 30 28 31 33 1
78 17 50 18 -11 1 -18 9 -18 21 0 26 39 28 41 3 1 -17 2 -17 6 0 3 12 15 17
39 17 32 0 34 2 34 34 0 33 2 35 38 38 35 4 103 0 108 -5z m84 -22 c0 -21 -5
-25 -30 -25 -25 0 -30 4 -30 25 0 21 5 25 30 25 25 0 30 -4 30 -25z m0 -161
c0 -22 25 -44 49 -44 12 0 21 -6 21 -16 0 -20 24 -44 44 -44 10 0 16 -9 16
-21 0 -31 24 -49 64 -49 29 0 36 -4 36 -20 0 -26 -40 -28 -40 -2 -1 15 -2 15
-13 1 -7 -8 -20 -18 -29 -22 -14 -5 -18 -1 -18 18 0 21 -5 25 -30 25 -28 0
-30 3 -30 35 0 33 -2 35 -35 35 -32 0 -35 2 -35 30 0 25 -4 30 -23 30 -20 0
-23 4 -19 30 3 21 10 30 23 30 11 0 19 -7 19 -16z m-270 -79 c0 -8 -4 -15 -10
-15 -5 0 -10 7 -10 15 0 8 5 15 10 15 6 0 10 -7 10 -15z m70 -5 c0 -12 -7 -20
-17 -21 -17 -1 -17 -2 0 -6 15 -4 17 -19 18 -131 0 -70 4 -136 9 -147 7 -17 9
-17 9 -2 1 24 61 24 62 0 0 -15 2 -15 9 2 5 11 9 77 9 148 1 94 4 127 14 128
10 0 10 2 0 6 -21 8 -15 43 7 43 13 0 20 -7 20 -20 0 -13 7 -20 18 -20 24 0
42 -19 42 -46 0 -17 7 -23 26 -26 36 -4 53 -31 36 -58 -8 -14 -12 -78 -12
-220 l0 -200 -75 0 -75 0 0 65 0 65 -40 0 c-25 0 -40 5 -40 13 0 8 -4 7 -10
-3 -5 -8 -10 -43 -10 -77 0 -35 -4 -63 -9 -63 -5 0 -16 -3 -25 -6 -12 -4 -16
0 -17 17 -1 16 -3 18 -6 8 -4 -17 -43 -28 -75 -21 -16 3 -18 24 -20 220 l-3
217 -27 3 c-38 4 -36 22 2 22 17 0 30 5 30 10 0 6 9 10 20 10 14 0 20 7 20 21
0 24 22 49 44 49 9 0 16 8 16 20 0 15 7 20 25 20 18 0 25 -5 25 -20z m180 10
c0 -5 -4 -10 -10 -10 -5 0 -10 5 -10 10 0 6 5 10 10 10 6 0 10 -4 10 -10z
m250 -10 c0 -11 -6 -20 -12 -21 -10 0 -10 -2 0 -6 26 -10 7 -53 -24 -53 -2 0
-4 23 -4 50 0 43 3 50 20 50 13 0 20 -7 20 -20z m-552 -57 c-5 -25 -28 -28
-28 -4 0 12 6 21 16 21 9 0 14 -7 12 -17z m372 2 c0 -8 -7 -15 -15 -15 -8 0
-15 7 -15 15 0 8 7 15 15 15 8 0 15 -7 15 -15z m-560 -55 c0 -11 -7 -20 -15
-20 -8 0 -15 9 -15 20 0 11 7 20 15 20 8 0 15 -9 15 -20z m620 -10 c0 -5 -7
-10 -15 -10 -8 0 -15 5 -15 10 0 6 7 10 15 10 8 0 15 -4 15 -10z"/>
<path d="M463 813 c9 -2 23 -2 30 0 6 3 -1 5 -18 5 -16 0 -22 -2 -12 -5z"/>
<path d="M301 724 c0 -11 3 -14 6 -6 3 7 2 16 -1 19 -3 4 -6 -2 -5 -13z"/>
<path d="M424 729 c-3 -6 -1 -16 5 -22 8 -8 11 -5 11 11 0 24 -5 28 -16 11z"/>
<path d="M243 703 c-15 -6 -18 -53 -3 -53 6 0 10 9 10 20 0 13 7 20 20 20 11
0 20 5 20 10 0 10 -26 12 -47 3z"/>
<path d="M130 660 c0 -16 2 -30 4 -30 2 0 6 14 8 30 3 17 1 30 -4 30 -4 0 -8
-13 -8 -30z"/>
<path d="M364 470 c0 -52 1 -74 3 -47 2 26 2 68 0 95 -2 26 -3 4 -3 -48z"/>
<path d="M438 303 c12 -2 32 -2 45 0 12 2 2 4 -23 4 -25 0 -35 -2 -22 -4z"/>
<path d="M453 253 c9 -2 25 -2 35 0 9 3 1 5 -18 5 -19 0 -27 -2 -17 -5z"/>
<path d="M362 160 c0 -19 2 -27 5 -17 2 9 2 25 0 35 -3 9 -5 1 -5 -18z"/>
<path d="M480 981 c0 -11 5 -23 10 -26 6 -4 10 5 10 19 0 14 -4 26 -10 26 -5
0 -10 -9 -10 -19z"/>
<path d="M677 43 c-11 -10 -8 -43 3 -43 6 0 10 11 10 25 0 26 -2 29 -13 18z"/>
</g>
</svg>
