<?xml version="1.0" standalone="no"?>
<!DOCTYPE svg PUBLIC "-//W3C//DTD SVG 20010904//EN"
 "http://www.w3.org/TR/2001/REC-SVG-20010904/DTD/svg10.dtd">
<svg version="1.0" xmlns="http://www.w3.org/2000/svg"
 width="100.000000pt" height="100.000000pt" viewBox="0 0 100.000000 100.000000"
 preserveAspectRatio="xMidYMid meet">
<metadata>
Created by potrace 1.16, written by Peter Selinger 2001-2019
</metadata>
<g transform="translate(0.000000,100.000000) scale(0.100000,-0.100000)"
fill="#000000" stroke="none">
<path d="M260 975 c0 -12 -19 -15 -110 -15 -91 0 -110 -3 -110 -15 0 -8 -9
-15 -20 -15 -11 0 -20 -4 -20 -10 0 -5 13 -10 30 -10 20 0 30 5 30 15 0 12 19
15 110 15 91 0 110 3 110 15 0 13 31 15 220 15 189 0 220 -2 220 -15 0 -12 19
-15 110 -15 91 0 110 -3 110 -15 0 -10 10 -15 30 -15 17 0 30 5 30 10 0 6 -9
10 -20 10 -11 0 -20 7 -20 15 0 12 -19 15 -110 15 -91 0 -110 3 -110 15 0 13
-33 15 -240 15 -207 0 -240 -2 -240 -15z"/>
<path d="M30 880 c0 -5 -7 -10 -15 -10 -8 0 -15 -4 -15 -10 0 -14 23 -13 38 2
15 15 16 28 2 28 -5 0 -10 -4 -10 -10z"/>
<path d="M370 750 c0 -23 4 -30 20 -30 18 0 20 -7 20 -65 0 -51 3 -65 15 -65
11 0 15 -12 15 -45 0 -33 4 -45 15 -45 8 0 15 -7 15 -15 0 -10 10 -15 30 -15
20 0 30 5 30 15 0 8 7 15 15 15 11 0 15 12 15 45 0 33 4 45 15 45 12 0 15 14
15 65 0 51 3 65 15 65 10 0 15 10 15 30 l0 30 -125 0 -125 0 0 -30z m230 0 c0
-5 -7 -10 -15 -10 -12 0 -15 -14 -15 -65 0 -51 -3 -65 -15 -65 -11 0 -15 -12
-15 -45 0 -33 -4 -45 -15 -45 -8 0 -15 -7 -15 -15 0 -8 -4 -15 -10 -15 -5 0
-10 7 -10 15 0 8 -7 15 -15 15 -11 0 -15 12 -15 45 0 33 -4 45 -15 45 -12 0
-15 14 -15 65 0 58 -2 65 -20 65 -11 0 -20 5 -20 10 0 6 42 10 105 10 63 0
105 -4 105 -10z"/>
<path d="M160 325 c0 -8 7 -15 15 -15 8 0 15 7 15 15 0 8 -7 15 -15 15 -8 0
-15 -7 -15 -15z"/>
<path d="M508 273 c7 -3 16 -2 19 1 4 3 -2 6 -13 5 -11 0 -14 -3 -6 -6z"/>
<path d="M469 223 c0 -16 -3 -22 -6 -15 -7 17 -23 15 -23 -3 0 -11 12 -15 45
-15 43 0 45 1 45 30 0 27 -3 30 -30 30 -26 0 -30 -4 -31 -27z m41 -3 c0 -5 -4
-10 -10 -10 -5 0 -10 5 -10 10 0 6 5 10 10 10 6 0 10 -4 10 -10z"/>
<path d="M959 163 c-12 -15 -12 -16 4 -10 10 4 23 7 28 7 5 0 9 5 9 10 0 16
-26 12 -41 -7z"/>
<path d="M4 114 c3 -9 6 -22 6 -30 0 -8 7 -14 15 -14 8 0 15 -7 15 -15 0 -10
10 -15 34 -15 21 0 36 -6 40 -15 5 -13 56 -15 376 -15 322 0 370 2 370 15 0
11 12 15 50 15 38 0 50 4 50 15 0 8 7 15 15 15 8 0 15 6 15 14 0 8 3 21 6 30
4 11 1 16 -10 16 -9 0 -16 -8 -16 -20 0 -11 -7 -20 -15 -20 -8 0 -15 -7 -15
-15 0 -11 -12 -15 -50 -15 -38 0 -50 -4 -50 -15 0 -13 -46 -15 -355 -15 -222
0 -355 4 -355 10 0 5 7 7 15 4 8 -4 15 -1 15 5 0 7 -20 11 -50 11 -38 0 -50 4
-50 15 0 8 -7 15 -15 15 -8 0 -15 9 -15 20 0 12 -7 20 -16 20 -11 0 -14 -5
-10 -16z"/>
<path d="M690 75 c0 -8 7 -15 15 -15 8 0 15 7 15 15 0 8 -7 15 -15 15 -8 0
-15 -7 -15 -15z"/>
</g>
</svg>
