<?xml version="1.0" standalone="no"?>
<!DOCTYPE svg PUBLIC "-//W3C//DTD SVG 20010904//EN"
 "http://www.w3.org/TR/2001/REC-SVG-20010904/DTD/svg10.dtd">
<svg version="1.0" xmlns="http://www.w3.org/2000/svg"
 width="180.000000pt" height="180.000000pt" viewBox="0 0 180.000000 180.000000"
 preserveAspectRatio="xMidYMid meet">
<metadata>
Created by potrace 1.16, written by Peter Selinger 2001-2019
</metadata>
<g transform="translate(0.000000,180.000000) scale(0.100000,-0.100000)"
fill="#000000" stroke="none">
<path d="M90 895 l0 -445 810 0 810 0 0 445 0 445 -810 0 -810 0 0 -445z m720
371 l0 -53 -71 -7 c-99 -10 -109 -22 -109 -131 l0 -85 270 0 270 0 0 85 c0
105 -11 120 -97 130 -84 9 -83 8 -83 65 l0 50 350 0 350 0 0 -54 0 -54 -59 -7
c-95 -11 -92 1 -89 -316 l3 -273 25 -13 c14 -7 46 -15 73 -18 l47 -6 0 -55 0
-54 -350 0 -350 0 0 54 0 54 71 7 c99 10 109 21 109 130 l0 85 -270 0 -270 0
0 -84 c0 -110 10 -123 105 -133 l70 -8 3 -52 3 -53 -350 0 -351 0 0 54 0 53
57 7 c97 11 93 -2 93 311 0 312 4 298 -92 310 l-58 7 0 54 0 54 350 0 350 0 0
-54z m160 -6 c0 -68 -2 -65 83 -75 81 -9 97 -27 97 -110 l0 -65 -250 0 -250 0
0 65 c0 86 15 101 109 111 l71 7 0 63 0 64 70 0 70 0 0 -60z m-747 -98 c15
-14 17 -40 17 -267 0 -286 2 -278 -82 -290 l-48 -7 0 296 0 297 48 -7 c26 -3
55 -13 65 -22z m1467 -266 l0 -294 -42 5 c-24 3 -53 12 -65 19 -23 14 -23 16
-23 268 0 298 -5 284 113 295 16 1 17 -19 17 -293z m-540 -181 c0 -86 -14
-100 -109 -110 l-71 -7 0 -64 0 -64 -70 0 -69 0 -3 63 -3 62 -70 8 c-91 9
-105 25 -105 113 l0 64 250 0 250 0 0 -65z"/>
</g>
</svg>
