<?xml version="1.0" standalone="no"?>
<!DOCTYPE svg PUBLIC "-//W3C//DTD SVG 20010904//EN"
 "http://www.w3.org/TR/2001/REC-SVG-20010904/DTD/svg10.dtd">
<svg version="1.0" xmlns="http://www.w3.org/2000/svg"
 width="196.000000pt" height="196.000000pt" viewBox="0 0 196.000000 196.000000"
 preserveAspectRatio="xMidYMid meet">
<metadata>
Created by potrace 1.16, written by Peter Selinger 2001-2019
</metadata>
<g transform="translate(0.000000,196.000000) scale(0.100000,-0.100000)"
fill="#000000" stroke="none">
<path d="M932 1460 c0 -14 2 -19 5 -12 2 6 2 18 0 25 -3 6 -5 1 -5 -13z"/>
<path d="M92 1389 c3 -69 4 -72 28 -74 38 -4 143 -24 147 -28 14 -15 22 -141
20 -357 -2 -315 2 -304 -116 -314 l-81 -7 0 -72 0 -72 395 0 395 0 0 71 0 72
-77 7 c-114 10 -123 21 -123 149 l0 101 302 -2 303 -3 3 -77 c2 -43 -2 -94 -7
-114 -12 -41 -29 -49 -103 -49 -26 0 -58 -4 -73 -10 -25 -9 -26 -13 -23 -75
l3 -66 398 -2 397 -2 0 71 0 71 -31 7 c-17 3 -48 6 -68 6 -54 0 -78 9 -88 33
-5 12 -8 154 -7 321 2 267 4 301 19 312 14 10 107 28 155 29 12 0 16 16 18 73
l3 72 -398 -2 -398 -3 -3 -67 c-3 -67 -3 -68 23 -68 14 0 45 -4 68 -9 23 -6
54 -12 69 -15 35 -8 48 -48 48 -150 l0 -81 -305 0 -305 0 0 88 c0 74 8 114 26
136 6 7 158 30 166 25 4 -3 8 29 8 70 l0 76 -395 0 -396 0 3 -71z m403 29
l355 3 -1 -43 -2 -43 -7 40 -7 40 -2 -37 c-1 -37 -2 -38 -37 -38 -45 0 -114
-20 -114 -33 0 -5 -7 -3 -17 4 -15 13 -15 12 -3 -11 9 -16 9 -25 2 -28 -6 -2
-8 -10 -5 -19 4 -9 2 -14 -3 -11 -15 10 0 -174 16 -200 12 -18 21 -22 42 -18
15 3 151 6 302 6 238 1 276 3 288 17 20 25 23 171 4 217 -9 21 -13 43 -9 49 4
6 0 8 -10 4 -10 -3 -17 -2 -17 3 0 5 -26 11 -57 15 -101 11 -100 10 -95 50 l4
35 364 0 364 0 0 -39 0 -38 -72 -5 c-53 -4 -75 -10 -85 -24 -7 -10 -13 -12
-13 -6 0 7 -4 12 -10 12 -5 0 -10 -14 -10 -31 0 -16 -3 -28 -7 -26 -13 8 -5
-593 8 -631 8 -26 15 -31 30 -27 10 4 19 2 19 -3 0 -6 32 -13 70 -17 65 -6 70
-9 70 -30 0 -58 19 -55 -369 -55 l-357 0 -2 39 -3 38 96 13 c52 7 98 17 101
22 3 5 -6 6 -22 2 l-27 -7 21 21 c27 27 36 76 30 167 -4 55 -10 80 -26 100
-12 15 -22 21 -22 14 0 -8 -11 -15 -25 -15 -14 -1 -25 3 -25 8 0 6 -6 6 -14
-1 -11 -9 -86 -12 -268 -12 -139 1 -261 0 -270 -1 -15 -1 -34 -38 -20 -38 4 0
5 -40 2 -89 -3 -49 -2 -87 3 -84 4 2 7 0 7 -6 0 -5 -4 -13 -10 -16 -5 -3 -10
-11 -10 -16 0 -6 4 -7 10 -4 5 3 10 -1 10 -9 0 -9 -5 -16 -12 -16 -6 0 -8 -3
-5 -6 4 -4 13 -1 22 6 12 10 15 10 15 0 0 -8 3 -11 6 -7 4 3 19 0 35 -8 15 -8
51 -15 79 -15 l50 0 -1 -42 c-1 -35 -2 -38 -8 -18 l-7 25 -8 -22 -7 -23 -340
3 c-186 1 -339 -1 -339 -5 0 -4 -7 -5 -16 -1 -15 6 -15 7 -1 18 12 8 13 15 5
23 -17 17 -1 42 27 42 14 0 54 5 90 12 56 11 64 15 68 37 3 14 5 158 6 320 0
218 -3 299 -12 310 -9 12 -9 13 1 7 6 -4 12 -2 12 3 0 6 -8 11 -17 11 -15 0
-16 2 -3 10 13 8 13 10 -2 10 -9 0 -20 4 -23 10 -3 6 1 7 12 4 16 -5 16 -4 2
5 -9 6 -49 14 -89 17 -74 7 -94 21 -71 48 9 11 9 15 0 18 -8 3 -9 9 -4 18 5 8
10 10 12 5 2 -6 140 -9 358 -7z m-195 -798 c0 -5 -5 -10 -11 -10 -5 0 -7 5 -4
10 3 6 8 10 11 10 2 0 4 -4 4 -10z"/>
<path d="M1320 1270 c0 -5 5 -10 10 -10 6 0 10 5 10 10 0 6 -4 10 -10 10 -5 0
-10 -4 -10 -10z"/>
<path d="M1346 1248 c-7 -28 -8 -233 -1 -226 4 4 13 248 9 248 -1 0 -4 -10 -8
-22z"/>
<path d="M1321 1064 c0 -11 3 -14 6 -6 3 7 2 16 -1 19 -3 4 -6 -2 -5 -13z"/>
<path d="M640 1042 c0 -5 7 -15 15 -22 8 -7 15 -8 15 -2 0 5 -7 15 -15 22 -8
7 -15 8 -15 2z"/>
<path d="M1308 1028 c-8 -19 -1 -28 21 -28 10 0 12 3 5 8 -6 4 -13 14 -16 21
-4 13 -5 12 -10 -1z"/>
<path d="M1255 1010 c-4 -6 3 -10 14 -10 25 0 27 6 6 13 -8 4 -17 2 -20 -3z"/>
<path d="M1331 893 c0 -5 4 -17 9 -28 8 -18 9 -17 9 8 1 15 -3 27 -9 27 -5 0
-10 -3 -9 -7z"/>
<path d="M1321 854 c0 -11 3 -14 6 -6 3 7 2 16 -1 19 -3 4 -6 -2 -5 -13z"/>
<path d="M1343 760 c0 -47 2 -66 4 -42 2 23 2 61 0 85 -2 23 -4 4 -4 -43z"/>
<path d="M1600 669 c0 -5 5 -7 10 -4 6 3 10 8 10 11 0 2 -4 4 -10 4 -5 0 -10
-5 -10 -11z"/>
<path d="M1325 650 c-3 -5 -1 -10 4 -10 6 0 11 5 11 10 0 6 -2 10 -4 10 -3 0
-8 -4 -11 -10z"/>
<path d="M1605 610 c-3 -5 1 -10 9 -10 9 0 16 5 16 10 0 6 -4 10 -9 10 -6 0
-13 -4 -16 -10z"/>
<path d="M1040 1409 c0 -5 5 -7 10 -4 6 3 10 8 10 11 0 2 -4 4 -10 4 -5 0 -10
-5 -10 -11z"/>
<path d="M1041 1354 c0 -11 3 -14 6 -6 3 7 2 16 -1 19 -3 4 -6 -2 -5 -13z"/>
<path d="M1912 1320 c0 -14 2 -19 5 -12 2 6 2 18 0 25 -3 6 -5 1 -5 -13z"/>
<path d="M1040 1310 c0 -5 5 -10 11 -10 5 0 7 5 4 10 -3 6 -8 10 -11 10 -2 0
-4 -4 -4 -10z"/>
<path d="M84 1266 c0 -14 5 -22 12 -19 6 2 10 13 7 24 -7 27 -19 24 -19 -5z"/>
<path d="M1871 1274 c-12 -14 -11 -16 4 -12 10 1 20 9 23 16 5 17 -10 15 -27
-4z"/>
<path d="M210 1270 c0 -6 -11 -8 -24 -6 -14 2 -27 -1 -29 -8 -4 -9 7 -11 36
-9 48 4 49 4 31 21 -8 8 -14 9 -14 2z"/>
<path d="M1131 1264 c0 -11 3 -14 6 -6 3 7 2 16 -1 19 -3 4 -6 -2 -5 -13z"/>
<path d="M1203 1262 c1 -14 5 -18 11 -12 7 7 6 14 -1 21 -9 9 -12 7 -10 -9z"/>
<path d="M760 1262 c-42 -6 -42 -17 0 -17 40 1 61 9 38 17 -7 2 -24 2 -38 0z"/>
<path d="M1088 1263 c6 -2 18 -2 25 0 6 3 1 5 -13 5 -14 0 -19 -2 -12 -5z"/>
<path d="M1781 1254 c0 -11 3 -14 6 -6 3 7 2 16 -1 19 -3 4 -6 -2 -5 -13z"/>
<path d="M1728 1248 c5 -5 16 -8 23 -6 8 3 3 7 -10 11 -17 4 -21 3 -13 -5z"/>
<path d="M843 1243 c9 -2 23 -2 30 0 6 3 -1 5 -18 5 -16 0 -22 -2 -12 -5z"/>
<path d="M145 671 c-6 -5 -19 -11 -30 -14 -18 -4 -17 -5 3 -6 13 0 30 6 38 14
16 16 5 22 -11 6z"/>
<path d="M181 664 c0 -11 3 -14 6 -6 3 7 2 16 -1 19 -3 4 -6 -2 -5 -13z"/>
<path d="M1205 670 c3 -5 14 -10 23 -10 15 0 15 2 2 10 -20 13 -33 13 -25 0z"/>
<path d="M1718 673 c7 -3 16 -2 19 1 4 3 -2 6 -13 5 -11 0 -14 -3 -6 -6z"/>
<path d="M1848 673 c7 -3 16 -2 19 1 4 3 -2 6 -13 5 -11 0 -14 -3 -6 -6z"/>
<path d="M1168 663 c7 -3 16 -2 19 1 4 3 -2 6 -13 5 -11 0 -14 -3 -6 -6z"/>
<path d="M1818 653 c7 -3 16 -2 19 1 4 3 -2 6 -13 5 -11 0 -14 -3 -6 -6z"/>
<path d="M1905 630 c-3 -5 -1 -10 4 -10 6 0 11 5 11 10 0 6 -2 10 -4 10 -3 0
-8 -4 -11 -10z"/>
<path d="M941 504 c0 -11 3 -14 6 -6 3 7 2 16 -1 19 -3 4 -6 -2 -5 -13z"/>
<path d="M1040 505 c0 -8 4 -15 8 -15 5 0 9 7 9 15 0 8 -4 15 -9 15 -4 0 -8
-7 -8 -15z"/>
<path d="M932 460 c0 -14 2 -19 5 -12 2 6 2 18 0 25 -3 6 -5 1 -5 -13z"/>
<path d="M1898 443 c7 -3 16 -2 19 1 4 3 -2 6 -13 5 -11 0 -14 -3 -6 -6z"/>
</g>
</svg>
