<?xml version="1.0" standalone="no"?>
<!DOCTYPE svg PUBLIC "-//W3C//DTD SVG 20010904//EN"
 "http://www.w3.org/TR/2001/REC-SVG-20010904/DTD/svg10.dtd">
<svg version="1.0" xmlns="http://www.w3.org/2000/svg"
 width="96.000000pt" height="96.000000pt" viewBox="0 0 96.000000 96.000000"
 preserveAspectRatio="xMidYMid meet">
<metadata>
Created by potrace 1.16, written by Peter Selinger 2001-2019
</metadata>
<g transform="translate(0.000000,96.000000) scale(0.100000,-0.100000)"
fill="#000000" stroke="none">
<path d="M0 540 c0 -5 7 -10 15 -10 22 0 20 -59 -2 -76 -16 -12 -11 -13 37
-13 48 0 53 1 38 13 -26 20 -22 26 17 26 19 0 35 -4 35 -10 0 -5 -7 -10 -15
-10 -8 0 -15 -4 -15 -10 0 -5 20 -10 45 -10 25 0 45 5 45 10 0 6 -4 10 -10 10
-5 0 -10 16 -10 35 0 19 5 35 10 35 6 0 10 5 10 10 0 6 -20 10 -45 10 -25 0
-45 -4 -45 -10 0 -5 7 -10 15 -10 8 0 15 -6 15 -14 0 -10 -11 -14 -35 -13 -22
1 -35 6 -35 14 0 7 7 13 15 13 8 0 15 5 15 10 0 6 -22 10 -50 10 -27 0 -50 -4
-50 -10z"/>
<path d="M232 534 c-28 -20 -30 -69 -3 -84 33 -17 116 -12 134 8 40 44 4 92
-68 92 -22 0 -51 -7 -63 -16z m93 -39 c0 -26 -4 -30 -31 -33 -25 -2 -33 1 -37
19 -8 30 10 51 42 47 22 -2 26 -8 26 -33z"/>
<path d="M393 536 c9 -7 17 -26 17 -41 0 -15 -8 -34 -17 -41 -16 -12 -13 -13
27 -13 40 0 43 1 27 13 -12 9 -17 24 -15 42 l3 28 29 -42 c22 -33 35 -42 57
-42 28 0 29 2 29 45 0 41 2 45 25 45 22 0 25 -4 25 -35 0 -19 -4 -35 -10 -35
-5 0 -10 -4 -10 -10 0 -6 30 -10 70 -10 75 0 110 19 110 59 0 39 -37 51 -152
51 -65 0 -108 -4 -108 -10 0 -5 7 -10 15 -10 10 0 15 -10 15 -30 0 -16 -2 -30
-4 -30 -2 0 -16 18 -31 40 -26 37 -31 40 -74 40 -40 -1 -44 -2 -28 -14z m305
-15 c8 -4 12 -19 10 -32 -2 -18 -10 -25 -34 -27 -28 -3 -30 -1 -31 33 -1 30 2
35 20 35 12 0 28 -4 35 -9z"/>
<path d="M780 540 c0 -5 7 -10 15 -10 8 0 15 -2 15 -5 0 -10 -34 -60 -50 -72
-12 -10 -9 -12 23 -13 36 0 50 13 25 23 -7 3 7 5 32 5 25 0 39 -2 33 -5 -29
-11 -10 -23 37 -23 28 0 50 5 50 10 0 6 -6 10 -14 10 -8 0 -27 20 -43 45 -27
43 -30 45 -75 45 -27 0 -48 -4 -48 -10z m78 -38 c2 -7 -6 -12 -17 -12 -21 0
-27 11 -14 24 9 9 26 2 31 -12z"/>
</g>
</svg>
