<?xml version="1.0" standalone="no"?>
<!DOCTYPE svg PUBLIC "-//W3C//DTD SVG 20010904//EN"
 "http://www.w3.org/TR/2001/REC-SVG-20010904/DTD/svg10.dtd">
<svg version="1.0" xmlns="http://www.w3.org/2000/svg"
 width="224.000000pt" height="175.000000pt" viewBox="0 0 224.000000 175.000000"
 preserveAspectRatio="xMidYMid meet">
<metadata>
Created by potrace 1.16, written by Peter Selinger 2001-2019
</metadata>
<g transform="translate(0.000000,175.000000) scale(0.100000,-0.100000)"
fill="#000000" stroke="none">
<path d="M668 1743 c7 -3 16 -2 19 1 4 3 -2 6 -13 5 -11 0 -14 -3 -6 -6z"/>
<path d="M790 1740 c-12 -8 -11 -10 8 -10 12 0 22 5 22 10 0 13 -11 13 -30 0z"/>
<path d="M1430 1740 c-12 -8 -12 -10 2 -15 10 -4 23 -5 30 -2 8 3 6 6 -5 6
-10 1 -15 6 -12 11 8 12 4 12 -15 0z"/>
<path d="M1593 1736 c0 -7 18 -10 46 -9 35 2 41 1 26 -6 -24 -12 -1 -12 35 -2
21 7 18 9 -25 15 -27 4 -57 8 -66 10 -9 2 -16 -2 -16 -8z"/>
<path d="M1738 1743 c7 -3 16 -2 19 1 4 3 -2 6 -13 5 -11 0 -14 -3 -6 -6z"/>
<path d="M510 1733 c8 -3 21 -10 28 -16 7 -5 15 -7 19 -3 10 9 0 15 -33 20
-16 2 -22 1 -14 -1z"/>
<path d="M903 1733 c15 -2 39 -2 55 0 15 2 2 4 -28 4 -30 0 -43 -2 -27 -4z"/>
<path d="M1128 1733 c7 -3 16 -2 19 1 4 3 -2 6 -13 5 -11 0 -14 -3 -6 -6z"/>
<path d="M1258 1733 c7 -3 16 -2 19 1 4 3 -2 6 -13 5 -11 0 -14 -3 -6 -6z"/>
<path d="M620 1720 c-21 -7 -21 -8 -5 -9 11 0 27 4 35 9 18 11 5 11 -30 0z"/>
<path d="M705 1699 c-154 -11 -339 -43 -413 -71 -80 -30 -152 -105 -181 -190
-34 -98 -48 -334 -33 -562 25 -383 86 -627 175 -702 122 -103 317 -134 858
-134 557 0 761 35 869 150 99 105 162 446 162 875 0 249 -11 335 -53 416 -13
24 -22 49 -20 54 1 6 0 7 -3 4 -4 -3 -22 8 -40 26 -65 61 -167 93 -386 122
-139 18 -756 26 -935 12z m820 -19 c324 -24 462 -71 532 -179 57 -88 65 -128
70 -349 10 -383 -50 -764 -141 -901 -25 -38 -47 -54 -117 -89 -100 -49 -185
-69 -348 -82 -152 -11 -836 -5 -926 9 -322 51 -399 126 -460 451 -41 221 -61
673 -35 809 20 108 90 210 170 250 50 25 206 59 340 75 142 17 718 20 915 6z"/>
<path d="M650 1639 c-310 -25 -431 -99 -474 -291 -44 -193 -21 -675 46 -949
63 -263 206 -312 918 -308 516 3 663 27 764 125 47 45 70 92 95 190 42 165 55
312 55 624 1 285 0 297 -23 365 -34 102 -100 164 -208 198 -43 14 -113 31
-153 37 -95 15 -864 22 -1020 9z m207 -15 c-3 -3 -12 -4 -19 -1 -8 3 -5 6 6 6
11 1 17 -2 13 -5z m477 -13 c115 -5 213 -14 217 -18 9 -9 -88 -402 -142 -578
-54 -173 -106 -254 -180 -275 -49 -14 -208 -11 -252 4 -55 20 -73 40 -112 122
-57 119 -215 708 -196 727 6 6 107 13 233 16 217 6 220 6 98 12 l-125 6 125
-3 c69 -2 219 -7 334 -13z m39 12 c-40 -2 -107 -2 -150 0 -43 1 -10 3 72 3 83
0 118 -2 78 -3z m-758 -40 c14 -83 105 -491 120 -543 104 -359 132 -387 399
-378 158 5 199 21 246 96 51 80 114 302 199 705 28 130 28 137 10 132 -10 -4
-19 -2 -19 4 0 5 -19 12 -42 14 -29 3 -22 4 22 4 63 0 267 -30 278 -41 7 -8
-6 -7 -50 3 -22 5 -38 5 -38 0 0 -12 -63 -7 -72 6 -9 12 -2 -50 7 -65 4 -6 14
-9 23 -8 15 3 17 -11 20 -112 2 -99 0 -116 -15 -127 -11 -9 -12 -13 -4 -13 10
0 12 -14 7 -62 -4 -35 -7 -88 -7 -118 0 -45 -2 -50 -9 -30 -8 20 -8 17 -4 -15
3 -22 8 -50 11 -62 3 -13 1 -23 -3 -23 -5 0 -10 -39 -12 -88 -1 -48 -8 -136
-16 -197 -8 -60 -17 -137 -19 -170 -16 -202 -20 -245 -28 -245 -4 0 -10 8 -12
18 -3 9 -5 -5 -5 -33 0 -39 2 -45 8 -25 7 22 8 23 9 4 1 -12 -5 -26 -11 -31
-17 -13 -80 -34 -85 -29 -3 2 -5 26 -6 52 -2 43 -3 45 -11 21 -6 -15 -13 -27
-18 -27 -4 0 -5 -7 -1 -16 5 -13 7 -13 14 -2 6 9 9 7 9 -8 0 -24 -38 -41 -45
-21 -2 7 -13 48 -25 92 -26 100 -65 212 -85 242 -37 56 -173 88 -316 73 -158
-16 -187 -48 -249 -275 -18 -66 -34 -126 -36 -132 -7 -27 -24 -11 -24 22 0 19
-4 35 -10 35 -5 0 -10 -13 -10 -30 0 -29 -14 -42 -22 -19 -2 5 -22 10 -46 11
-34 0 -42 4 -42 19 0 9 8 20 18 23 17 6 26 46 10 46 -4 0 -8 11 -8 25 0 14 -5
25 -11 25 -7 0 -8 -7 -4 -17 17 -46 18 -73 1 -73 -14 0 -17 10 -16 52 1 29 -9
132 -20 228 -12 96 -19 193 -16 214 3 27 2 35 -5 25 -6 -10 -9 -5 -9 19 0 18
4 31 9 28 5 -3 3 19 -6 50 -8 31 -11 69 -8 86 5 21 4 28 -4 24 -7 -5 -9 24 -7
96 2 65 1 90 -4 68 -9 -39 -8 -62 -17 268 -3 115 -1 182 5 182 5 0 12 7 16 15
4 12 2 13 -17 2 -12 -6 -25 -16 -30 -22 -17 -23 11 -491 59 -967 19 -191 34
-363 34 -383 0 -32 4 -38 38 -52 54 -23 129 -34 159 -22 18 7 30 6 37 -1 14
-14 613 -14 618 1 2 7 12 7 31 0 35 -14 124 3 184 34 5 3 82 793 92 949 6 88
11 226 11 308 0 168 -5 161 85 127 115 -43 165 -118 190 -284 28 -189 12 -552
-36 -800 -12 -60 -21 -120 -20 -132 0 -13 -4 -23 -9 -23 -6 0 -9 -3 -8 -7 6
-19 -44 -84 -84 -109 -104 -66 -208 -82 -593 -90 -282 -7 -662 7 -750 27 -102
23 -225 97 -225 135 0 8 -5 14 -11 14 -5 0 -7 5 -3 12 5 8 13 4 26 -11 23 -30
22 -15 -3 29 -10 19 -18 26 -17 16 2 -10 -3 -21 -10 -24 -9 -3 -13 3 -11 19 1
13 -5 58 -14 99 -65 291 -76 817 -19 965 36 95 116 160 221 181 46 10 50 26 4
20 -68 -10 -16 5 64 18 43 8 81 14 84 15 4 0 10 -16 14 -36z m75 30 c-19 -3
-39 -12 -44 -20 -7 -12 -10 -13 -17 -2 -13 22 0 29 49 27 41 -1 42 -2 12 -5z
m-43 -65 c-3 -8 -6 -5 -6 6 -1 11 2 17 5 13 3 -3 4 -12 1 -19z m930 0 c-3 -8
-6 -5 -6 6 -1 11 2 17 5 13 3 -3 4 -12 1 -19z m128 16 c13 -5 14 -8 3 -15 -10
-7 -10 -9 0 -9 20 0 14 -16 -8 -17 -15 -1 -20 4 -20 23 0 26 1 27 25 18z
m-140 -76 c-4 -24 -13 -68 -20 -98 -8 -30 -28 -116 -45 -190 -18 -74 -34 -142
-37 -150 -3 -8 -7 -22 -9 -30 -16 -90 -78 -245 -93 -236 -5 3 -7 -2 -4 -12 6
-25 -46 -68 -99 -83 -66 -17 -294 -7 -339 15 -36 18 -89 92 -92 128 -1 10 -4
18 -8 18 -3 0 -16 35 -28 78 -12 42 -25 84 -28 92 -3 8 -7 22 -8 30 -1 8 -9
42 -18 75 -15 56 -23 88 -61 258 -20 87 -27 131 -21 125 3 -2 14 -43 25 -89
72 -300 137 -519 175 -594 13 -27 25 -46 25 -41 0 6 6 1 14 -9 8 -11 12 -26 9
-35 -4 -12 -3 -12 5 -1 10 14 36 6 28 -8 -6 -10 -4 -10 134 -17 63 -3 133 -1
155 4 22 5 47 11 55 13 8 2 25 19 38 37 12 17 27 32 33 32 6 0 7 5 4 11 -4 5
0 18 9 28 23 26 90 239 149 478 51 207 66 258 52 171z m-283 -972 c43 -21 67
-57 101 -153 31 -85 61 -203 54 -210 -3 -3 -11 15 -17 38 -29 112 -62 208 -85
245 -40 66 -77 79 -231 79 -128 0 -132 -1 -173 -29 -51 -35 -60 -56 -139 -306
l-12 -35 6 40 c9 66 55 207 85 261 28 49 58 73 114 87 11 3 74 5 140 4 92 -2
129 -7 157 -21z m-25 -29 c17 -9 41 -29 52 -43 19 -24 101 -259 101 -289 0
-22 -281 -32 -502 -19 l-106 7 15 51 c69 234 91 273 170 302 52 20 226 14 270
-9z"/>
<path d="M1476 1415 c4 -8 8 -15 10 -15 2 0 4 7 4 15 0 8 -4 15 -10 15 -5 0
-7 -7 -4 -15z"/>
<path d="M1441 1374 c0 -11 3 -14 6 -6 3 7 2 16 -1 19 -3 4 -6 -2 -5 -13z"/>
<path d="M782 1330 c7 -10 14 -18 15 -16 6 6 -9 36 -18 36 -5 0 -4 -9 3 -20z"/>
<path d="M751 1324 c0 -11 3 -14 6 -6 3 7 2 16 -1 19 -3 4 -6 -2 -5 -13z"/>
<path d="M1447 1283 c-4 -3 -7 -13 -7 -22 1 -13 3 -13 11 2 11 19 8 33 -4 20z"/>
<path d="M776 1261 c-4 -5 -1 -20 4 -33 10 -21 10 -21 5 5 -4 19 -2 26 5 22 5
-3 10 -1 10 4 0 13 -17 14 -24 2z"/>
<path d="M830 1099 c0 -5 5 -7 10 -4 6 3 10 8 10 11 0 2 -4 4 -10 4 -5 0 -10
-5 -10 -11z"/>
<path d="M1391 1094 c0 -11 3 -14 6 -6 3 7 2 16 -1 19 -3 4 -6 -2 -5 -13z"/>
<path d="M865 1070 c-3 -5 -1 -10 4 -10 6 0 11 5 11 10 0 6 -2 10 -4 10 -3 0
-8 -4 -11 -10z"/>
<path d="M1367 1063 c-4 -3 -7 -11 -7 -17 0 -6 5 -5 12 2 6 6 9 14 7 17 -3 3
-9 2 -12 -2z"/>
<path d="M857 1023 c-4 -3 -7 -11 -7 -17 0 -6 5 -5 12 2 6 6 9 14 7 17 -3 3
-9 2 -12 -2z"/>
<path d="M1368 1023 c7 -3 16 -2 19 1 4 3 -2 6 -13 5 -11 0 -14 -3 -6 -6z"/>
<path d="M865 989 c-4 -6 -5 -12 -2 -15 2 -3 7 2 10 11 7 17 1 20 -8 4z"/>
<path d="M927 856 c-4 -10 -3 -15 3 -11 6 3 10 1 10 -5 0 -6 5 -8 10 -5 6 3
10 11 10 16 0 6 -4 8 -9 5 -5 -4 -11 -1 -13 6 -3 7 -7 5 -11 -6z"/>
<path d="M1283 855 c0 -8 7 -15 15 -15 12 0 12 3 2 15 -7 8 -13 15 -15 15 -1
0 -2 -7 -2 -15z"/>
<path d="M945 800 c-3 -5 -1 -10 4 -10 6 0 11 5 11 10 0 6 -2 10 -4 10 -3 0
-8 -4 -11 -10z"/>
<path d="M975 780 c-3 -5 -2 -10 4 -10 5 0 13 5 16 10 3 6 2 10 -4 10 -5 0
-13 -4 -16 -10z"/>
<path d="M1025 780 c-3 -5 -1 -10 4 -10 6 0 11 5 11 10 0 6 -2 10 -4 10 -3 0
-8 -4 -11 -10z"/>
<path d="M1100 780 c0 -5 5 -10 10 -10 6 0 10 5 10 10 0 6 -4 10 -10 10 -5 0
-10 -4 -10 -10z"/>
<path d="M1178 783 c7 -3 16 -2 19 1 4 3 -2 6 -13 5 -11 0 -14 -3 -6 -6z"/>
<path d="M1208 763 c6 -2 18 -2 25 0 6 3 1 5 -13 5 -14 0 -19 -2 -12 -5z"/>
<path d="M553 1573 c-18 -7 -16 -23 2 -23 8 0 15 7 15 15 0 8 -1 15 -2 14 -2
0 -9 -3 -15 -6z"/>
<path d="M1626 1555 c-9 -26 -7 -32 5 -12 6 10 9 21 6 23 -2 3 -7 -2 -11 -11z"/>
<path d="M530 1531 c0 -6 4 -12 9 -15 4 -3 11 -20 15 -37 3 -18 9 -30 12 -27
8 9 -15 88 -26 88 -6 0 -10 -4 -10 -9z"/>
<path d="M1810 1520 c8 -5 20 -10 25 -10 6 0 3 5 -5 10 -8 5 -19 10 -25 10 -5
0 -3 -5 5 -10z"/>
<path d="M1658 1493 c5 -21 7 -23 10 -9 2 10 0 22 -6 28 -6 6 -7 0 -4 -19z"/>
<path d="M413 1465 c0 -22 2 -30 4 -17 2 12 2 30 0 40 -3 9 -5 -1 -4 -23z"/>
<path d="M1845 1480 c-3 -5 1 -10 9 -10 9 0 16 5 16 10 0 6 -4 10 -9 10 -6 0
-13 -4 -16 -10z"/>
<path d="M1646 1443 c-6 -14 -5 -15 5 -6 7 7 10 15 7 18 -3 3 -9 -2 -12 -12z"/>
<path d="M287 1443 c-2 -5 0 -19 4 -33 7 -23 7 -22 6 8 -1 33 -3 37 -10 25z"/>
<path d="M1845 1440 c-3 -5 -1 -10 4 -10 6 0 11 5 11 10 0 6 -2 10 -4 10 -3 0
-8 -4 -11 -10z"/>
<path d="M1888 1433 c7 -3 16 -2 19 1 4 3 -2 6 -13 5 -11 0 -14 -3 -6 -6z"/>
<path d="M1930 1435 c0 -5 5 -17 10 -25 5 -8 10 -10 10 -5 0 6 -5 17 -10 25
-5 8 -10 11 -10 5z"/>
<path d="M442 1404 c-1 -17 -4 -47 -7 -65 l-5 -34 11 34 c5 18 8 47 6 65 l-4
31 -1 -31z"/>
<path d="M558 1417 c7 -8 7 -18 2 -27 -14 -22 -12 -40 5 -40 11 0 15 11 15 40
0 30 -4 40 -16 40 -12 0 -14 -3 -6 -13z"/>
<path d="M1666 1415 c4 -8 8 -15 10 -15 2 0 4 7 4 15 0 8 -4 15 -10 15 -5 0
-7 -7 -4 -15z"/>
<path d="M1631 1373 c-11 -39 -6 -57 9 -33 10 15 14 70 5 70 -2 0 -9 -17 -14
-37z"/>
<path d="M307 1376 c-4 -10 -5 -21 -2 -24 9 -9 17 6 13 25 -3 17 -4 17 -11 -1z"/>
<path d="M1944 1370 c2 -16 20 -14 24 2 3 10 2 10 -6 -1 -7 -9 -11 -10 -15 -2
-4 7 -5 8 -3 1z"/>
<path d="M401 1334 c0 -11 3 -14 6 -6 3 7 2 16 -1 19 -3 4 -6 -2 -5 -13z"/>
<path d="M590 1339 c0 -5 5 -7 10 -4 6 3 10 8 10 11 0 2 -4 4 -10 4 -5 0 -10
-5 -10 -11z"/>
<path d="M1681 1334 c0 -11 3 -14 6 -6 3 7 2 16 -1 19 -3 4 -6 -2 -5 -13z"/>
<path d="M630 1291 c0 -25 6 -27 13 -6 4 8 2 17 -3 20 -6 4 -10 -3 -10 -14z"/>
<path d="M1620 1300 c0 -5 5 -10 11 -10 5 0 7 5 4 10 -3 6 -8 10 -11 10 -2 0
-4 -4 -4 -10z"/>
<path d="M401 1284 c0 -11 3 -14 6 -6 3 7 2 16 -1 19 -3 4 -6 -2 -5 -13z"/>
<path d="M522 1280 c0 -14 2 -19 5 -12 2 6 2 18 0 25 -3 6 -5 1 -5 -13z"/>
<path d="M545 1263 c-14 -91 -15 -98 -6 -83 10 17 24 120 17 120 -3 0 -8 -17
-11 -37z"/>
<path d="M575 1235 c-1 -45 12 -45 17 0 2 20 0 35 -7 35 -5 0 -10 -16 -10 -35z"/>
<path d="M1560 1250 c0 -11 2 -20 4 -20 2 0 6 9 9 20 3 11 1 20 -4 20 -5 0 -9
-9 -9 -20z"/>
<path d="M1620 1230 c0 -22 4 -40 9 -40 5 0 11 18 13 40 2 28 0 40 -9 40 -8 0
-13 -14 -13 -40z"/>
<path d="M646 1235 c4 -8 8 -15 10 -15 2 0 4 7 4 15 0 8 -4 15 -10 15 -5 0 -7
-7 -4 -15z"/>
<path d="M232 1215 c0 -16 2 -22 5 -12 2 9 2 23 0 30 -3 6 -5 -1 -5 -18z"/>
<path d="M1566 1215 c-11 -8 -16 -18 -11 -22 4 -5 10 -2 12 5 3 6 9 10 14 6 5
-3 9 2 9 10 0 19 0 19 -24 1z"/>
<path d="M581 1113 c2 -78 3 -76 18 25 6 41 5 52 -6 52 -10 0 -13 -18 -12 -77z"/>
<path d="M1600 1151 c0 -22 -5 -42 -12 -44 -10 -4 -10 -6 0 -6 7 -1 12 -15 12
-35 0 -19 -6 -36 -12 -39 -7 -2 -9 -8 -5 -13 16 -17 27 22 27 99 0 42 -2 77
-5 77 -3 0 -5 -18 -5 -39z"/>
<path d="M1650 1154 c0 -19 4 -33 8 -30 8 5 4 66 -4 66 -2 0 -4 -16 -4 -36z"/>
<path d="M1680 1180 c0 -5 5 -10 10 -10 6 0 10 5 10 10 0 6 -4 10 -10 10 -5 0
-10 -4 -10 -10z"/>
<path d="M553 1115 c0 -27 2 -38 4 -22 2 15 2 37 0 50 -2 12 -4 0 -4 -28z"/>
<path d="M1753 1105 c0 -22 2 -30 4 -17 2 12 2 30 0 40 -3 9 -5 -1 -4 -23z"/>
<path d="M632 1072 c-2 -46 20 -86 32 -57 3 9 0 15 -9 15 -9 0 -15 14 -18 43
l-4 42 -1 -43z"/>
<path d="M1648 1070 c2 -22 5 -40 7 -40 2 0 5 18 7 40 2 24 -1 40 -7 40 -6 0
-9 -16 -7 -40z"/>
<path d="M232 1050 c0 -14 2 -19 5 -12 2 6 2 18 0 25 -3 6 -5 1 -5 -13z"/>
<path d="M578 995 c2 -19 5 -35 7 -35 2 0 5 16 7 35 2 21 0 35 -7 35 -7 0 -9
-14 -7 -35z"/>
<path d="M1540 1020 c0 -5 4 -10 9 -10 6 0 13 5 16 10 3 6 -1 10 -9 10 -9 0
-16 -4 -16 -10z"/>
<path d="M1625 1020 c3 -5 8 -10 11 -10 2 0 4 5 4 10 0 6 -5 10 -11 10 -5 0
-7 -4 -4 -10z"/>
<path d="M1497 991 c-4 -17 -3 -21 5 -13 5 5 8 16 6 23 -3 8 -7 3 -11 -10z"/>
<path d="M632 980 c0 -14 2 -19 5 -12 2 6 2 18 0 25 -3 6 -5 1 -5 -13z"/>
<path d="M1541 984 c0 -11 3 -14 6 -6 3 7 2 16 -1 19 -3 4 -6 -2 -5 -13z"/>
<path d="M552 970 c0 -14 2 -19 5 -12 2 6 2 18 0 25 -3 6 -5 1 -5 -13z"/>
<path d="M1752 970 c0 -14 2 -19 5 -12 2 6 2 18 0 25 -3 6 -5 1 -5 -13z"/>
<path d="M232 950 c0 -14 2 -19 5 -12 2 6 2 18 0 25 -3 6 -5 1 -5 -13z"/>
<path d="M580 913 c0 -20 3 -33 7 -30 9 10 10 67 1 67 -5 0 -8 -16 -8 -37z"/>
<path d="M633 910 c0 -25 2 -35 4 -22 2 12 2 32 0 45 -2 12 -4 2 -4 -23z"/>
<path d="M657 929 c4 -16 8 -17 14 -7 13 19 11 28 -5 28 -9 0 -12 -7 -9 -21z"/>
<path d="M1540 939 c0 -5 5 -7 10 -4 6 3 10 8 10 11 0 2 -4 4 -10 4 -5 0 -10
-5 -10 -11z"/>
<path d="M1603 910 c0 -25 2 -35 4 -22 2 12 2 32 0 45 -2 12 -4 2 -4 -23z"/>
<path d="M1648 909 c5 -48 13 -45 16 5 1 20 -3 36 -9 36 -6 0 -9 -17 -7 -41z"/>
<path d="M1470 893 c0 -21 3 -24 9 -14 5 8 7 20 4 28 -8 21 -13 15 -13 -14z"/>
<path d="M1545 909 c-4 -6 -5 -12 -2 -15 2 -3 7 2 10 11 7 17 1 20 -8 4z"/>
<path d="M540 891 c0 -11 5 -23 10 -26 6 -3 10 3 10 14 0 11 -4 23 -10 26 -5
3 -10 -3 -10 -14z"/>
<path d="M720 890 c0 -11 4 -20 9 -20 5 0 7 9 4 20 -3 11 -7 20 -9 20 -2 0 -4
-9 -4 -20z"/>
<path d="M1743 865 c0 -22 2 -30 4 -17 2 12 2 30 0 40 -3 9 -5 -1 -4 -23z"/>
<path d="M1500 881 c0 -6 4 -11 10 -11 5 0 11 -28 13 -62 l3 -63 2 61 c1 44
-2 65 -13 74 -10 9 -15 9 -15 1z"/>
<path d="M600 823 c4 -34 10 -47 23 -49 9 -1 17 2 17 7 0 5 -6 9 -12 9 -9 0
-13 14 -12 40 0 23 -4 40 -11 40 -7 0 -9 -16 -5 -47z"/>
<path d="M1566 855 c4 -8 7 -15 9 -15 2 0 5 7 9 15 3 9 0 15 -9 15 -9 0 -12
-6 -9 -15z"/>
<path d="M1620 859 c0 -5 5 -7 10 -4 6 3 10 8 10 11 0 2 -4 4 -10 4 -5 0 -10
-5 -10 -11z"/>
<path d="M662 815 c0 -16 2 -22 5 -12 2 9 2 23 0 30 -3 6 -5 -1 -5 -18z"/>
<path d="M1571 814 c0 -11 3 -14 6 -6 3 7 2 16 -1 19 -3 4 -6 -2 -5 -13z"/>
<path d="M1620 815 c0 -8 5 -15 10 -15 6 0 10 7 10 15 0 8 -4 15 -10 15 -5 0
-10 -7 -10 -15z"/>
<path d="M481 804 c0 -11 3 -14 6 -6 3 7 2 16 -1 19 -3 4 -6 -2 -5 -13z"/>
<path d="M1732 795 c0 -16 2 -22 5 -12 2 9 2 23 0 30 -3 6 -5 -1 -5 -18z"/>
<path d="M1436 787 c3 -10 9 -15 12 -12 3 3 0 11 -7 18 -10 9 -11 8 -5 -6z"/>
<path d="M685 780 c3 -5 8 -10 11 -10 2 0 4 5 4 10 0 6 -5 10 -11 10 -5 0 -7
-4 -4 -10z"/>
<path d="M1602 733 c5 -32 7 -76 4 -98 -5 -35 -4 -37 5 -15 13 30 17 90 7 90
-5 0 -8 18 -8 40 0 22 -4 40 -8 40 -5 0 -5 -26 0 -57z"/>
<path d="M1652 758 c-1 -20 -5 -45 -8 -55 -5 -17 -5 -17 6 0 6 9 9 34 7 55
l-4 37 -1 -37z"/>
<path d="M688 740 c-7 -24 -3 -38 8 -28 3 4 4 17 2 30 l-3 23 -7 -25z"/>
<path d="M1744 746 c-3 -8 -4 -23 -2 -33 3 -11 6 -6 9 15 6 34 2 42 -7 18z"/>
<path d="M482 730 c0 -14 2 -19 5 -12 2 6 2 18 0 25 -3 6 -5 1 -5 -13z"/>
<path d="M1407 733 c5 -12 3 -14 -8 -8 -8 4 -11 4 -6 0 4 -5 16 -9 26 -10 16
-1 17 1 8 17 -15 23 -29 24 -20 1z"/>
<path d="M606 715 c-3 -8 -1 -15 4 -15 6 0 10 7 10 15 0 8 -2 15 -4 15 -2 0
-6 -7 -10 -15z"/>
<path d="M810 720 c0 -5 5 -10 11 -10 5 0 7 5 4 10 -3 6 -8 10 -11 10 -2 0 -4
-4 -4 -10z"/>
<path d="M735 700 c3 -5 12 -7 20 -3 21 7 19 13 -6 13 -11 0 -18 -4 -14 -10z"/>
<path d="M1458 674 c2 -19 7 -32 11 -29 10 11 7 65 -4 65 -7 0 -9 -15 -7 -36z"/>
<path d="M1522 680 c0 -19 2 -27 5 -17 2 9 2 25 0 35 -3 9 -5 1 -5 -18z"/>
<path d="M1570 700 c0 -5 5 -10 10 -10 6 0 10 5 10 10 0 6 -4 10 -10 10 -5 0
-10 -4 -10 -10z"/>
<path d="M1342 671 c-11 -7 -11 -9 0 -14 9 -3 15 1 15 9 0 8 -1 14 -1 14 -1 0
-7 -4 -14 -9z"/>
<path d="M1577 673 c-9 -9 -9 -43 1 -43 4 0 8 11 8 25 2 27 1 29 -9 18z"/>
<path d="M1631 618 c-7 -38 -17 -68 -22 -68 -5 0 -9 -17 -8 -37 0 -33 4 -27
25 42 13 44 23 91 21 105 -1 14 -8 -4 -16 -42z"/>
<path d="M1721 664 c0 -11 3 -14 6 -6 3 7 2 16 -1 19 -3 4 -6 -2 -5 -13z"/>
<path d="M909 652 c11 -8 11 -10 0 -14 -8 -3 0 -5 18 -4 35 1 32 10 -7 21 -17
4 -21 3 -11 -3z"/>
<path d="M1276 652 c-2 -4 4 -9 15 -9 10 -1 19 2 19 8 0 11 -27 12 -34 1z"/>
<path d="M484 625 c-3 -8 -4 -20 -2 -27 3 -7 7 -1 10 15 6 29 1 36 -8 12z"/>
<path d="M1359 627 c5 -5 24 -7 42 -5 33 3 33 4 -8 8 -23 3 -39 2 -34 -3z"/>
<path d="M660 619 c0 -5 5 -7 10 -4 6 3 10 8 10 11 0 2 -4 4 -10 4 -5 0 -10
-5 -10 -11z"/>
<path d="M733 623 c10 -9 67 -10 67 0 0 4 -16 7 -37 7 -20 0 -33 -3 -30 -7z"/>
<path d="M1458 595 c2 -19 8 -35 13 -35 5 0 8 16 7 35 -1 19 -6 35 -13 35 -7
0 -9 -13 -7 -35z"/>
<path d="M1518 600 c-3 -16 -1 -30 4 -30 4 0 8 14 8 30 0 17 -2 30 -4 30 -2 0
-6 -13 -8 -30z"/>
<path d="M1722 610 c0 -14 2 -19 5 -12 2 6 2 18 0 25 -3 6 -5 1 -5 -13z"/>
<path d="M1958 590 c2 -22 6 -40 8 -40 2 0 4 18 4 40 0 22 -3 40 -8 40 -4 0
-6 -18 -4 -40z"/>
<path d="M1000 610 c-20 -6 -17 -7 17 -7 24 1 37 5 30 9 -14 9 -13 9 -47 -2z"/>
<path d="M1210 610 c-20 -6 -21 -8 -5 -8 11 0 34 4 50 8 27 7 27 8 5 8 -14 0
-36 -4 -50 -8z"/>
<path d="M632 575 c0 -16 2 -22 5 -12 2 9 2 23 0 30 -3 6 -5 -1 -5 -18z"/>
<path d="M1093 593 c15 -2 39 -2 55 0 15 2 2 4 -28 4 -30 0 -43 -2 -27 -4z"/>
<path d="M1742 570 c0 -14 2 -19 5 -12 2 6 2 18 0 25 -3 6 -5 1 -5 -13z"/>
<path d="M501 564 c0 -11 3 -14 6 -6 3 7 2 16 -1 19 -3 4 -6 -2 -5 -13z"/>
<path d="M602 550 c0 -16 3 -32 7 -34 7 -5 6 52 -2 60 -2 2 -4 -9 -5 -26z"/>
<path d="M880 570 c0 -5 5 -10 10 -10 6 0 10 5 10 10 0 6 -4 10 -10 10 -5 0
-10 -4 -10 -10z"/>
<path d="M1575 570 c3 -5 8 -10 11 -10 2 0 4 5 4 10 0 6 -5 10 -11 10 -5 0 -7
-4 -4 -10z"/>
<path d="M1920 553 c0 -13 4 -23 9 -23 11 0 24 31 16 38 -3 3 -5 -1 -5 -9 0
-11 -2 -11 -10 1 -8 12 -10 11 -10 -7z"/>
<path d="M482 530 c0 -14 2 -19 5 -12 2 6 2 18 0 25 -3 6 -5 1 -5 -13z"/>
<path d="M658 543 c6 -2 18 -2 25 0 6 3 1 5 -13 5 -14 0 -19 -2 -12 -5z"/>
<path d="M853 532 c1 -14 5 -18 11 -12 7 7 6 14 -1 21 -9 9 -12 7 -10 -9z"/>
<path d="M1338 538 c5 -5 19 -4 33 1 23 10 22 10 -8 8 -18 0 -29 -5 -25 -9z"/>
<path d="M1488 543 c7 -3 16 -2 19 1 4 3 -2 6 -13 5 -11 0 -14 -3 -6 -6z"/>
<path d="M1540 540 c0 -5 5 -10 10 -10 6 0 10 5 10 10 0 6 -4 10 -10 10 -5 0
-10 -4 -10 -10z"/>
<path d="M800 528 c0 -23 20 -34 31 -17 5 8 9 19 9 24 0 6 -5 3 -10 -5 -9 -13
-11 -13 -20 0 -8 13 -10 13 -10 -2z"/>
<path d="M1420 530 c0 -5 5 -10 10 -10 6 0 10 5 10 10 0 6 -4 10 -10 10 -5 0
-10 -4 -10 -10z"/>
<path d="M1951 514 c0 -11 3 -14 6 -6 3 7 2 16 -1 19 -3 4 -6 -2 -5 -13z"/>
<path d="M1539 509 c-1 -8 -1 -38 0 -66 2 -36 -2 -53 -10 -53 -7 0 -9 -3 -6
-6 4 -4 13 -2 21 5 14 12 17 113 3 127 -4 4 -8 1 -8 -7z"/>
<path d="M1415 490 c3 -5 10 -10 16 -10 5 0 9 5 9 10 0 6 -7 10 -16 10 -8 0
-12 -4 -9 -10z"/>
<path d="M1942 460 c0 -14 2 -19 5 -12 2 6 2 18 0 25 -3 6 -5 1 -5 -13z"/>
<path d="M289 442 c-3 -20 -2 -29 4 -23 5 5 7 19 5 32 -3 20 -5 19 -9 -9z"/>
<path d="M596 443 c10 -40 14 -41 14 -5 0 18 -5 32 -10 32 -6 0 -8 -11 -4 -27z"/>
<path d="M707 450 c3 -11 7 -20 9 -20 2 0 4 9 4 20 0 11 -4 20 -9 20 -5 0 -7
-9 -4 -20z"/>
<path d="M1405 453 c3 -8 5 -18 5 -21 0 -8 20 20 20 29 0 3 -7 6 -15 6 -10 0
-14 -6 -10 -14z"/>
<path d="M1601 454 c0 -11 3 -14 6 -6 3 7 2 16 -1 19 -3 4 -6 -2 -5 -13z"/>
<path d="M487 416 c-4 -10 -7 -34 -6 -54 l1 -37 9 45 c10 48 7 75 -4 46z"/>
<path d="M1613 385 c0 -27 2 -38 4 -22 2 15 2 37 0 50 -2 12 -4 0 -4 -28z"/>
<path d="M631 400 c-1 -14 -4 -36 -6 -50 l-6 -25 11 25 c6 13 9 36 7 50 l-4
25 -2 -25z"/>
<path d="M655 410 c3 -5 8 -10 11 -10 2 0 4 5 4 10 0 6 -5 10 -11 10 -5 0 -7
-4 -4 -10z"/>
<path d="M705 380 c3 -5 8 -10 11 -10 2 0 4 5 4 10 0 6 -5 10 -11 10 -5 0 -7
-4 -4 -10z"/>
<path d="M738 383 c7 -3 16 -2 19 1 4 3 -2 6 -13 5 -11 0 -14 -3 -6 -6z"/>
<path d="M780 379 c0 -5 5 -7 10 -4 6 3 10 8 10 11 0 2 -4 4 -10 4 -5 0 -10
-5 -10 -11z"/>
<path d="M1430 380 c0 -12 8 -12 35 0 18 8 17 9 -7 9 -16 1 -28 -3 -28 -9z"/>
<path d="M507 352 c1 -8 3 -19 3 -25 0 -7 4 -6 10 3 5 8 10 22 10 30 0 12 -2
13 -9 1 -5 -7 -11 -9 -13 -5 -3 5 -3 3 -1 -4z"/>
<path d="M601 354 c0 -11 3 -14 6 -6 3 7 2 16 -1 19 -3 4 -6 -2 -5 -13z"/>
<path d="M760 344 c0 -8 5 -12 10 -9 6 3 10 10 10 16 0 5 -4 9 -10 9 -5 0 -10
-7 -10 -16z"/>
<path d="M1917 319 c-20 -36 -13 -55 9 -25 12 17 20 56 12 56 -2 0 -11 -14
-21 -31z"/>
<path d="M733 314 c-17 -18 -16 -21 7 -46 11 -12 20 -17 20 -10 0 6 -4 14 -10
17 -18 11 -11 35 8 29 10 -4 13 -2 7 3 -5 4 -12 11 -15 15 -3 3 -11 0 -17 -8z"/>
<path d="M1611 314 c0 -11 3 -14 6 -6 3 7 2 16 -1 19 -3 4 -6 -2 -5 -13z"/>
<path d="M1470 300 c0 -5 5 -10 10 -10 6 0 10 -7 10 -15 0 -8 5 -15 11 -15 6
0 8 7 5 16 -3 9 -6 20 -6 25 0 5 -7 9 -15 9 -8 0 -15 -4 -15 -10z"/>
<path d="M1865 300 c-3 -5 -1 -10 4 -10 6 0 11 5 11 10 0 6 -2 10 -4 10 -3 0
-8 -4 -11 -10z"/>
<path d="M1875 270 c3 -5 8 -10 11 -10 2 0 4 5 4 10 0 6 -5 10 -11 10 -5 0 -7
-4 -4 -10z"/>
<path d="M721 244 c0 -11 3 -14 6 -6 3 7 2 16 -1 19 -3 4 -6 -2 -5 -13z"/>
<path d="M370 226 c0 -2 7 -7 16 -10 8 -3 12 -2 9 4 -6 10 -25 14 -25 6z"/>
<path d="M449 221 c11 -7 11 -10 0 -15 -8 -3 -3 -3 10 0 17 5 21 3 16 -6 -6
-9 -4 -11 5 -5 10 6 9 11 -5 22 -11 7 -24 13 -29 13 -6 0 -5 -4 3 -9z"/>
<path d="M1679 217 c4 -4 18 -3 32 2 23 9 22 9 -8 8 -18 -1 -28 -6 -24 -10z"/>
<path d="M1770 218 c0 -4 4 -8 9 -8 6 0 12 4 15 8 3 5 -1 9 -9 9 -8 0 -15 -4
-15 -9z"/>
<path d="M1835 220 c3 -5 8 -10 11 -10 2 0 4 5 4 10 0 6 -5 10 -11 10 -5 0 -7
-4 -4 -10z"/>
<path d="M518 213 c7 -3 16 -2 19 1 4 3 -2 6 -13 5 -11 0 -14 -3 -6 -6z"/>
<path d="M1803 206 c-9 -15 -57 -31 -120 -41 -24 -4 -45 -11 -49 -16 -8 -13
24 -11 86 7 30 8 60 16 65 16 13 2 29 19 33 36 3 16 -5 15 -15 -2z"/>
<path d="M630 201 c0 -7 -4 -9 -10 -6 -5 3 -10 1 -10 -4 0 -6 4 -11 9 -11 13
0 25 20 17 27 -3 4 -6 1 -6 -6z"/>
<path d="M661 194 c0 -11 3 -14 6 -6 3 7 2 16 -1 19 -3 4 -6 -2 -5 -13z"/>
<path d="M1738 203 c7 -3 16 -2 19 1 4 3 -2 6 -13 5 -11 0 -14 -3 -6 -6z"/>
<path d="M420 182 c35 -19 61 -27 134 -38 26 -4 36 -2 31 5 -3 6 -14 11 -23
11 -10 0 -42 7 -72 15 -106 28 -108 29 -70 7z"/>
<path d="M528 193 c7 -3 16 -2 19 1 4 3 -2 6 -13 5 -11 0 -14 -3 -6 -6z"/>
<path d="M1565 190 c3 -5 8 -10 11 -10 2 0 4 5 4 10 0 6 -5 10 -11 10 -5 0 -7
-4 -4 -10z"/>
<path d="M934 439 c-4 -7 -3 -9 4 -5 5 3 13 0 15 -6 4 -9 6 -10 6 -1 1 17 -16
25 -25 12z"/>
<path d="M916 412 c-3 -5 1 -9 9 -9 8 0 12 4 9 9 -3 4 -7 8 -9 8 -2 0 -6 -4
-9 -8z"/>
<path d="M1291 364 c0 -11 3 -14 6 -6 3 7 2 16 -1 19 -3 4 -6 -2 -5 -13z"/>
<path d="M1306 331 c-4 -7 -5 -15 -2 -18 9 -9 19 4 14 18 -4 11 -6 11 -12 0z"/>
<path d="M861 174 c0 -11 3 -14 6 -6 3 7 2 16 -1 19 -3 4 -6 -2 -5 -13z"/>
<path d="M1361 174 c0 -11 3 -14 6 -6 3 7 2 16 -1 19 -3 4 -6 -2 -5 -13z"/>
<path d="M166 1465 c-9 -26 -7 -32 5 -12 6 10 9 21 6 23 -2 3 -7 -2 -11 -11z"/>
<path d="M2041 1443 c-1 -17 16 -25 25 -12 4 7 3 9 -4 5 -5 -3 -13 0 -15 6 -4
9 -6 10 -6 1z"/>
<path d="M2071 1394 c0 -11 3 -14 6 -6 3 7 2 16 -1 19 -3 4 -6 -2 -5 -13z"/>
<path d="M120 1365 c0 -5 5 -17 10 -25 5 -8 10 -10 10 -5 0 6 -5 17 -10 25 -5
8 -10 11 -10 5z"/>
<path d="M121 1304 c0 -11 3 -14 6 -6 3 7 2 16 -1 19 -3 4 -6 -2 -5 -13z"/>
<path d="M2080 1280 c0 -5 5 -10 10 -10 6 0 10 5 10 10 0 6 -4 10 -10 10 -5 0
-10 -4 -10 -10z"/>
<path d="M122 1250 c0 -14 2 -19 5 -12 2 6 2 18 0 25 -3 6 -5 1 -5 -13z"/>
<path d="M2092 1190 c0 -14 2 -19 5 -12 2 6 2 18 0 25 -3 6 -5 1 -5 -13z"/>
<path d="M2093 1070 c0 -25 2 -35 4 -22 2 12 2 32 0 45 -2 12 -4 2 -4 -23z"/>
<path d="M122 1060 c0 -14 2 -19 5 -12 2 6 2 18 0 25 -3 6 -5 1 -5 -13z"/>
<path d="M122 1010 c0 -14 2 -19 5 -12 2 6 2 18 0 25 -3 6 -5 1 -5 -13z"/>
<path d="M136 707 c3 -10 9 -15 12 -12 3 3 0 11 -7 18 -10 9 -11 8 -5 -6z"/>
<path d="M2051 534 c0 -11 3 -14 6 -6 3 7 2 16 -1 19 -3 4 -6 -2 -5 -13z"/>
<path d="M1926 1661 c-4 -5 4 -7 16 -3 13 3 19 1 15 -5 -4 -6 0 -13 8 -17 8
-3 14 0 12 7 -4 24 -40 36 -51 18z"/>
<path d="M234 1653 c3 -3 -2 -12 -12 -20 -16 -13 -15 -13 3 -5 11 5 27 11 35
14 10 3 7 6 -9 11 -13 3 -20 3 -17 0z"/>
<path d="M165 1640 c-3 -5 -2 -10 4 -10 5 0 13 5 16 10 3 6 2 10 -4 10 -5 0
-13 -4 -16 -10z"/>
<path d="M185 1610 c-3 -5 -1 -10 4 -10 6 0 11 5 11 10 0 6 -2 10 -4 10 -3 0
-8 -4 -11 -10z"/>
<path d="M2066 1573 c-6 -14 -5 -15 5 -6 7 7 10 15 7 18 -3 3 -9 -2 -12 -12z"/>
<path d="M85 1560 c-3 -5 -2 -10 4 -10 5 0 13 5 16 10 3 6 2 10 -4 10 -5 0
-13 -4 -16 -10z"/>
<path d="M106 1532 c-2 -4 -1 -14 5 -22 7 -12 9 -10 9 8 0 23 -5 28 -14 14z"/>
<path d="M85 1500 c3 -5 8 -10 11 -10 2 0 4 5 4 10 0 6 -5 10 -11 10 -5 0 -7
-4 -4 -10z"/>
<path d="M2108 1491 c4 -10 7 -11 10 -3 6 20 20 13 20 -10 0 -27 9 -68 17 -76
8 -8 -1 83 -9 96 -10 17 -45 11 -38 -7z"/>
<path d="M2152 1350 c0 -14 2 -19 5 -12 2 6 2 18 0 25 -3 6 -5 1 -5 -13z"/>
<path d="M21 1124 c0 -11 3 -14 6 -6 3 7 2 16 -1 19 -3 4 -6 -2 -5 -13z"/>
<path d="M3 1070 c0 -25 2 -35 4 -22 2 12 2 32 0 45 -2 12 -4 2 -4 -23z"/>
<path d="M43 975 c0 -33 2 -45 4 -27 2 18 2 45 0 60 -2 15 -4 0 -4 -33z"/>
<path d="M11 884 c0 -11 3 -14 6 -6 3 7 2 16 -1 19 -3 4 -6 -2 -5 -13z"/>
<path d="M2151 684 c0 -11 3 -14 6 -6 3 7 2 16 -1 19 -3 4 -6 -2 -5 -13z"/>
<path d="M92 490 c0 -14 2 -19 5 -12 2 6 2 18 0 25 -3 6 -5 1 -5 -13z"/>
<path d="M91 444 c0 -11 3 -14 6 -6 3 7 2 16 -1 19 -3 4 -6 -2 -5 -13z"/>
<path d="M2111 404 c0 -11 3 -14 6 -6 3 7 2 16 -1 19 -3 4 -6 -2 -5 -13z"/>
<path d="M80 400 c0 -5 5 -10 11 -10 5 0 7 5 4 10 -3 6 -8 10 -11 10 -2 0 -4
-4 -4 -10z"/>
<path d="M110 392 c0 -6 -8 -13 -17 -15 -16 -4 -16 -5 -1 -6 18 -1 34 16 24
26 -3 4 -6 1 -6 -5z"/>
<path d="M122 335 c0 -16 2 -22 5 -12 2 9 2 23 0 30 -3 6 -5 -1 -5 -18z"/>
<path d="M102 330 c0 -14 2 -19 5 -12 2 6 2 18 0 25 -3 6 -5 1 -5 -13z"/>
<path d="M2061 252 c-7 -13 -6 -19 2 -19 7 0 13 9 13 19 0 23 -3 23 -15 0z"/>
<path d="M2051 204 c0 -11 3 -14 6 -6 3 7 2 16 -1 19 -3 4 -6 -2 -5 -13z"/>
<path d="M2071 194 c0 -11 3 -14 6 -6 3 7 2 16 -1 19 -3 4 -6 -2 -5 -13z"/>
<path d="M170 170 c-6 -11 -8 -20 -6 -20 3 0 10 9 16 20 6 11 8 20 6 20 -3 0
-10 -9 -16 -20z"/>
<path d="M197 167 c-3 -8 1 -14 8 -14 7 0 11 6 8 14 -3 7 -6 13 -8 13 -2 0 -5
-6 -8 -13z"/>
<path d="M2037 173 c-4 -3 -7 -11 -7 -17 0 -6 5 -5 12 2 6 6 9 14 7 17 -3 3
-9 2 -12 -2z"/>
<path d="M1988 158 c5 -5 16 -8 23 -6 8 3 3 7 -10 11 -17 4 -21 3 -13 -5z"/>
<path d="M1991 132 c-1 -9 -8 -11 -23 -7 -18 5 -19 4 -8 -4 12 -9 12 -11 -3
-17 -9 -3 -23 -4 -30 -1 -8 3 -19 2 -26 -3 -24 -14 14 -18 53 -5 45 16 50 20
43 37 -4 11 -6 11 -6 0z"/>
<path d="M250 90 c-8 -5 -10 -10 -5 -10 6 0 17 5 25 10 8 5 11 10 5 10 -5 0
-17 -5 -25 -10z"/>
<path d="M1665 30 c-16 -7 -17 -9 -3 -9 9 -1 20 4 23 9 7 11 7 11 -20 0z"/>
<path d="M488 23 c6 -2 18 -2 25 0 6 3 1 5 -13 5 -14 0 -19 -2 -12 -5z"/>
<path d="M568 23 c7 -3 16 -2 19 1 4 3 -2 6 -13 5 -11 0 -14 -3 -6 -6z"/>
<path d="M631 14 c0 -11 3 -14 6 -6 3 7 2 16 -1 19 -3 4 -6 -2 -5 -13z"/>
<path d="M1705 20 c-25 -11 1 -11 35 0 20 6 21 8 5 8 -11 0 -29 -3 -40 -8z"/>
<path d="M728 13 c7 -3 16 -2 19 1 4 3 -2 6 -13 5 -11 0 -14 -3 -6 -6z"/>
<path d="M818 13 c12 -2 32 -2 45 0 12 2 2 4 -23 4 -25 0 -35 -2 -22 -4z"/>
<path d="M1265 10 c-3 -5 -1 -10 4 -10 6 0 11 5 11 10 0 6 -2 10 -4 10 -3 0
-8 -4 -11 -10z"/>
<path d="M1608 13 c7 -3 16 -2 19 1 4 3 -2 6 -13 5 -11 0 -14 -3 -6 -6z"/>
</g>
</svg>
