<?xml version="1.0" standalone="no"?>
<!DOCTYPE svg PUBLIC "-//W3C//DTD SVG 20010904//EN"
 "http://www.w3.org/TR/2001/REC-SVG-20010904/DTD/svg10.dtd">
<svg version="1.0" xmlns="http://www.w3.org/2000/svg"
 width="192.000000pt" height="192.000000pt" viewBox="0 0 192.000000 192.000000"
 preserveAspectRatio="xMidYMid meet">
<metadata>
Created by potrace 1.16, written by Peter Selinger 2001-2019
</metadata>
<g transform="translate(0.000000,192.000000) scale(0.100000,-0.100000)"
fill="#000000" stroke="none">
<path d="M780 1660 l0 -40 -280 0 -280 0 0 -40 0 -40 -40 0 -40 0 0 -540 0
-540 40 0 40 0 0 -40 0 -40 40 0 40 0 0 -40 0 -40 280 0 280 0 0 -40 0 -40
100 0 100 0 0 40 0 40 280 0 280 0 0 40 0 40 40 0 40 0 0 40 0 40 110 0 c67 0
110 4 110 10 0 6 -43 10 -110 10 l-110 0 0 30 c0 28 3 30 35 30 19 0 35 5 35
10 0 6 32 10 75 10 43 0 75 4 75 10 0 6 -30 10 -70 10 l-70 0 0 480 0 480 -40
0 -40 0 0 40 0 40 -280 0 -280 0 0 40 0 40 -180 0 -180 0 0 -40z m340 -20 l0
-40 280 0 280 0 0 -40 0 -40 40 0 40 0 0 -481 0 -481 -40 4 -40 4 0 -83 0 -83
-40 0 -40 0 0 -40 0 -40 -280 0 -280 0 0 -40 0 -40 -80 0 -80 0 0 40 0 40
-280 0 -280 0 0 40 0 40 -40 0 -40 0 0 40 0 40 -40 0 -40 0 0 520 0 520 40 0
40 0 0 42 0 41 436 -7 c350 -5 435 -4 432 6 -3 7 -20 15 -39 18 -27 4 -33 9
-32 25 2 17 1 17 -9 -3 -10 -21 -17 -23 -72 -20 -52 3 -61 6 -58 21 2 9 -2 17
-9 17 -7 0 -10 -11 -7 -30 3 -21 1 -27 -6 -20 -13 13 -56 13 -56 0 0 -5 -4
-10 -10 -10 -5 0 -10 18 -10 40 l0 40 160 0 160 0 0 -40z"/>
<path d="M480 1573 c-51 -10 -76 -11 -78 -4 -5 14 -23 14 -20 1 2 -6 -12 -17
-29 -25 -32 -14 -33 -13 -33 10 0 14 -4 25 -10 25 -5 0 -10 -9 -10 -20 0 -13
-7 -20 -19 -20 -28 0 -36 -18 -10 -22 20 -3 20 -4 -5 -25 -26 -23 -26 -23 -26
-2 0 11 -4 17 -10 14 -5 -3 -10 -15 -10 -26 0 -12 -7 -19 -20 -19 -11 0 -20
-4 -20 -10 0 -5 9 -10 19 -10 18 0 18 -2 -2 -52 -21 -50 -22 -69 -21 -308 0
-200 4 -272 17 -334 21 -96 21 -106 2 -106 -8 0 -15 -5 -15 -11 0 -6 9 -9 19
-6 14 3 20 -2 24 -19 3 -20 0 -24 -19 -24 -13 0 -24 -4 -24 -10 0 -5 14 -10
30 -10 17 0 31 -4 31 -10 1 -5 2 -13 4 -17 14 -52 18 -63 23 -59 2 3 13 -6 24
-20 24 -30 82 -60 163 -86 99 -32 481 -42 850 -24 128 7 250 46 305 99 14 13
32 21 39 19 10 -3 12 0 8 12 -4 9 -2 26 3 39 5 12 11 34 14 49 4 16 10 27 14
27 21 -4 31 3 26 16 -4 9 0 15 10 15 9 0 16 5 16 10 0 6 -9 10 -21 10 -16 0
-19 4 -15 17 16 41 25 111 37 280 14 199 2 410 -27 464 -18 36 -18 39 6 39 11
0 20 5 20 10 0 6 -9 10 -20 10 -13 0 -20 7 -20 19 0 28 -18 36 -22 10 -3 -20
-4 -20 -27 5 l-24 26 22 0 c12 0 19 4 16 10 -3 6 -15 10 -26 10 -12 0 -19 7
-19 20 0 11 -4 20 -10 20 -5 0 -10 -11 -10 -24 0 -23 -2 -24 -35 -13 -23 7
-34 15 -31 24 3 7 1 13 -3 13 -5 0 -11 -5 -13 -12 -4 -10 -16 -10 -57 0 -29 7
-83 11 -119 11 -37 -1 -53 -4 -37 -6 193 -25 286 -52 333 -96 67 -64 82 -111
88 -292 9 -246 -31 -537 -91 -661 -43 -87 -137 -135 -308 -155 -146 -17 -753
-6 -835 15 -75 19 -149 55 -179 88 -78 83 -128 369 -121 698 3 171 4 176 33
235 20 40 43 69 70 87 45 31 164 63 273 74 40 4 71 8 70 9 -14 11 -97 10 -158
-2z"/>
<path d="M606 1540 c-238 -21 -330 -85 -356 -246 -21 -126 -8 -451 25 -624 31
-164 75 -228 175 -254 15 -4 9 2 -15 15 -22 12 -51 31 -63 43 -27 23 -56 75
-48 83 2 3 0 16 -5 30 -17 45 -38 205 -49 367 -12 183 -1 333 29 402 21 47 65
94 88 94 18 0 82 28 103 45 8 7 32 15 52 19 33 6 38 4 42 -16 76 -359 132
-566 169 -623 40 -61 67 -70 207 -70 104 0 131 3 153 18 36 23 69 78 95 157
25 74 93 358 112 468 l13 73 41 -7 c54 -8 59 -12 52 -40 -4 -13 -8 -70 -11
-126 l-5 -103 21 49 c11 28 21 70 22 95 2 26 7 52 12 60 6 11 4 13 -8 8 -11
-4 -17 -1 -17 8 0 18 2 18 34 4 14 -7 23 -15 21 -19 -2 -4 6 -5 18 -3 29 6 72
-28 96 -76 32 -62 45 -187 38 -371 -8 -214 -42 -434 -76 -499 -14 -26 -62 -59
-119 -83 -31 -12 -37 -17 -17 -13 44 9 109 42 134 68 50 54 85 217 103 483 13
194 2 355 -30 428 -33 74 -99 115 -227 142 -84 18 -655 27 -809 14z m602 -27
c2 -7 14 -13 26 -13 29 0 39 -10 25 -27 -15 -18 -39 -17 -39 2 0 8 -5 15 -11
15 -6 0 -9 -10 -7 -22 2 -17 11 -24 33 -26 27 -3 33 2 49 38 17 38 46 60 31
23 -4 -10 -10 -26 -12 -35 -3 -10 -9 -18 -14 -18 -5 0 -9 -7 -9 -15 0 -8 -5
-15 -12 -15 -6 0 -9 -3 -6 -6 4 -3 2 -20 -4 -37 -5 -18 -11 -43 -13 -56 -2
-13 -7 -27 -12 -30 -4 -3 -9 -15 -10 -26 -2 -20 -6 -46 -17 -96 -3 -15 -14
-44 -23 -65 -9 -22 -18 -46 -18 -54 -1 -8 -8 -31 -16 -50 -7 -19 -12 -38 -11
-42 1 -5 -2 -8 -8 -8 -5 0 -10 -5 -10 -11 0 -18 -28 -39 -44 -33 -14 6 -17 1
-15 -23 1 -20 -146 -30 -186 -13 -11 5 -15 9 -10 10 12 1 -25 30 -38 30 -5 0
-3 -8 4 -17 11 -13 11 -15 1 -9 -11 6 -82 139 -82 153 0 1 7 3 15 3 8 0 15 4
15 9 0 5 -8 8 -17 7 -10 0 -18 6 -18 15 0 9 -5 23 -11 30 -11 13 -29 86 -26
102 1 4 -2 7 -7 7 -5 0 -8 18 -7 39 1 23 -2 39 -8 38 -6 -1 -11 8 -11 20 0 12
-4 25 -8 29 -13 14 -7 24 16 25 14 0 17 2 7 6 -8 3 -19 12 -23 19 -11 18 -24
18 -24 -1 0 -8 4 -12 9 -9 4 3 8 0 8 -5 0 -14 -17 -14 -26 0 -4 6 -7 34 -6 63
0 40 -4 55 -21 68 -12 10 -17 18 -11 18 20 0 47 -39 41 -60 -4 -18 0 -20 34
-20 36 0 40 3 46 30 6 30 13 36 27 23 10 -11 66 -11 60 -1 -8 13 51 9 64 -4 9
-9 12 -9 12 0 0 12 53 11 110 -3 21 -5 22 -4 5 4 -17 8 -18 10 -2 10 9 1 17 5
17 10 0 5 -24 7 -52 6 -130 -8 -165 -8 -178 0 -8 5 -11 4 -6 -3 3 -6 1 -14 -5
-18 -6 -3 -15 -1 -19 6 -11 17 -41 5 -47 -20 -7 -26 -43 -27 -43 -1 0 12 8 21
23 24 16 3 13 5 -13 7 -83 8 108 17 314 16 166 -1 220 -4 224 -13z m65 0 c-7
-2 -21 -2 -30 0 -10 3 -4 5 12 5 17 0 24 -2 18 -5z m-17 -267 c-54 -259 -109
-395 -168 -415 -47 -17 -233 -14 -267 4 -56 28 -99 135 -156 388 -15 65 -25
120 -22 123 3 3 8 -10 12 -28 14 -72 68 -267 92 -330 29 -81 55 -116 99 -134
35 -15 148 -19 203 -8 75 15 122 110 187 376 21 86 40 155 42 153 2 -2 -8 -60
-22 -129z"/>
<path d="M1050 1511 c-31 -5 -34 -20 -2 -15 6 1 31 2 55 3 31 1 38 4 27 11
-16 11 -27 11 -80 1z"/>
<path d="M1145 1490 c-3 -5 1 -10 10 -10 9 0 13 5 10 10 -3 6 -8 10 -10 10 -2
0 -7 -4 -10 -10z"/>
<path d="M720 1320 l0 -120 40 0 40 0 0 -120 0 -120 40 0 40 0 0 -40 0 -40 80
0 80 0 0 40 0 40 40 0 40 0 0 120 0 120 40 0 40 0 0 120 0 120 -240 0 -240 0
0 -120z m460 0 l0 -100 -40 0 -40 0 0 -120 0 -120 -40 0 -40 0 0 -40 0 -40
-60 0 -60 0 0 40 0 40 -40 0 -40 0 0 120 0 120 -40 0 -40 0 0 100 0 100 220 0
220 0 0 -100z"/>
<path d="M1230 1390 c0 -5 5 -10 11 -10 5 0 7 5 4 10 -3 6 -8 10 -11 10 -2 0
-4 -4 -4 -10z"/>
<path d="M720 1170 c0 -5 5 -10 10 -10 6 0 10 5 10 10 0 6 -4 10 -10 10 -5 0
-10 -4 -10 -10z"/>
<path d="M460 1458 c-16 -13 -18 -19 -7 -15 20 8 21 4 5 -40 -7 -20 -17 -32
-25 -29 -7 3 -13 1 -13 -4 0 -6 12 -10 26 -10 22 0 25 -4 22 -27 -2 -16 -9
-29 -15 -29 -30 -3 -33 -4 -33 -14 0 -5 14 -8 31 -6 28 3 30 2 25 -23 -3 -15
2 -40 12 -58 17 -32 17 -31 14 75 -2 59 -6 128 -10 154 l-7 46 -25 -20z"/>
<path d="M378 1434 c-4 -3 -2 -20 3 -37 5 -18 9 -33 9 -34 0 -2 -14 -3 -31 -3
-20 0 -29 4 -26 13 2 6 9 12 15 12 5 0 14 3 18 8 4 4 2 7 -5 7 -7 0 -9 6 -6
13 4 6 -3 1 -14 -12 -20 -22 -21 -33 -21 -352 l0 -329 40 0 40 0 0 -80 0 -80
40 0 40 0 0 -40 c0 -37 2 -40 29 -40 22 0 30 -5 33 -24 4 -19 1 -23 -11 -19
-9 4 -24 13 -33 21 -16 14 -18 13 -18 -6 0 -24 30 -37 65 -28 12 3 40 -1 61
-10 37 -15 76 -15 133 2 17 5 22 4 17 -4 -5 -9 48 -12 211 -12 159 0 214 3
203 11 -12 9 -11 10 5 4 44 -16 102 -17 136 -2 20 8 48 13 61 10 32 -6 68 12
68 35 -1 15 -2 15 -13 1 -7 -9 -24 -18 -39 -21 -23 -4 -26 -3 -18 12 5 10 6
20 3 24 -3 3 10 6 30 6 36 0 37 1 37 40 l0 40 40 0 40 0 0 80 0 80 40 0 40 0
0 280 0 280 -80 0 -80 0 0 -355 c0 -230 -4 -355 -10 -355 -5 0 -10 -16 -10
-35 0 -31 -3 -34 -22 -31 -21 3 -23 8 -21 67 2 110 7 169 13 169 4 0 5 13 2
30 -3 19 0 30 8 30 8 0 10 9 6 25 -4 17 -2 25 6 25 9 0 8 3 -2 10 -8 5 -10 10
-5 10 6 0 10 34 10 83 0 45 2 84 5 87 3 3 2 50 -1 105 -5 95 -8 92 -15 -20 -3
-44 -22 -265 -23 -273 -1 -2 -4 -1 -8 1 -5 3 -8 -18 -9 -46 -3 -141 -14 -270
-25 -283 -6 -8 -9 -22 -7 -32 6 -20 -15 -44 -34 -40 -7 2 -12 -3 -11 -9 2 -8
-7 -13 -22 -13 -14 0 -28 0 -32 0 -5 0 -11 10 -15 22 -61 214 -79 246 -146
266 -49 15 -174 15 -226 1 -21 -6 -49 -21 -61 -33 -19 -19 -72 -160 -89 -238
-6 -25 -36 -41 -36 -19 0 10 -36 25 -70 30 -5 0 -7 8 -4 16 4 8 -1 26 -9 39
-17 26 -13 38 9 29 8 -3 14 -1 14 5 0 5 -8 12 -19 15 -23 6 -26 26 -26 164 0
61 -3 109 -7 107 -3 -2 -9 22 -13 53 -3 32 -8 68 -11 80 -3 16 1 23 18 26 l23
4 -22 2 c-13 0 -23 4 -24 9 0 4 -2 37 -3 75 -2 37 -6 71 -10 75 -9 8 0 -353 9
-368 3 -5 1 -10 -4 -10 -6 0 -11 -5 -11 -11 0 -5 4 -7 10 -4 6 3 10 -4 11 -17
1 -25 4 -48 13 -84 4 -13 1 -26 -6 -30 -7 -4 -8 -3 -4 4 4 7 2 10 -7 6 -18 -7
-10 -50 12 -67 21 -15 25 -77 6 -77 -11 0 -13 8 -9 30 5 20 3 30 -6 30 -7 0
-10 -6 -7 -12 2 -7 1 -22 -4 -33 -6 -16 -8 -14 -8 13 -1 17 -5 32 -11 32 -6 0
-10 113 -10 320 l0 320 -40 0 -40 0 0 120 c0 108 -5 132 -22 114z m2 -174 l0
-80 40 0 40 0 0 -300 c0 -293 0 -300 -20 -300 -18 0 -20 7 -20 80 l0 80 -40 0
-40 0 0 300 c0 293 0 300 20 300 18 0 20 -7 20 -80z m1200 -260 l0 -260 -40 0
-40 0 0 -80 c0 -73 -2 -80 -20 -80 -20 0 -20 7 -20 340 l0 340 60 0 60 0 0
-260z m-510 -303 c20 -7 44 -27 57 -46 24 -36 79 -199 70 -208 -3 -3 -11 13
-18 36 -7 23 -16 41 -20 41 -5 0 -5 -7 -2 -17 4 -10 2 -14 -5 -9 -6 3 -13 2
-16 -3 -3 -5 3 -11 14 -14 12 -3 20 -14 20 -26 0 -24 -18 -28 -26 -6 -9 21
-24 19 -24 -4 0 -19 -8 -20 -160 -19 -150 0 -160 2 -160 19 0 23 -7 24 -26 4
-22 -21 -33 -19 -27 6 3 11 15 24 27 29 19 7 19 9 4 15 -13 5 -16 14 -12 34
11 43 33 79 51 84 10 3 28 8 41 12 20 6 22 3 22 -29 0 -35 -1 -36 -40 -36
l-40 0 0 -40 0 -40 160 0 160 0 0 40 0 40 -40 0 c-39 0 -40 1 -40 36 0 29 3
35 16 30 9 -3 25 -6 37 -6 18 0 19 -2 7 -10 -12 -8 -11 -10 8 -10 12 0 22 -4
22 -10 0 -5 4 -10 10 -10 13 0 -1 34 -27 64 -29 33 -98 54 -124 38 -24 -15
-69 -16 -69 -1 0 16 -65 5 -96 -16 -14 -9 -22 -21 -18 -27 4 -6 3 -8 -3 -5
-10 6 -35 -52 -64 -148 -6 -22 -15 -44 -20 -49 -16 -17 34 149 60 199 32 61
62 74 176 74 44 0 96 -5 115 -12z m13 -46 c8 -8 -23 -11 -126 -11 -75 0 -137
2 -137 5 0 23 241 28 263 6z m-543 -51 c0 -11 -2 -20 -4 -20 -2 0 -6 9 -9 20
-3 11 -1 20 4 20 5 0 9 -9 9 -20z m480 -20 l0 -40 40 0 c33 0 40 -3 40 -20 0
-19 -7 -20 -140 -20 -133 0 -140 1 -140 20 0 17 7 20 40 20 l40 0 0 40 0 40
60 0 60 0 0 -40z"/>
<path d="M1140 556 c0 -8 5 -18 10 -21 6 -3 10 3 10 14 0 12 -4 21 -10 21 -5
0 -10 -6 -10 -14z"/>
<path d="M860 450 c0 -5 5 -10 10 -10 6 0 10 5 10 10 0 6 -4 10 -10 10 -5 0
-10 -4 -10 -10z"/>
<path d="M1520 1401 l0 -41 40 0 c30 0 38 3 34 14 -3 8 -12 17 -20 20 -9 3
-12 11 -8 17 4 8 3 9 -4 5 -6 -4 -9 -13 -5 -21 3 -8 0 -15 -7 -15 -7 0 -10 11
-8 27 2 15 -2 28 -9 30 -9 3 -13 -8 -13 -36z"/>
<path d="M531 1404 c0 -11 3 -14 6 -6 3 7 2 16 -1 19 -3 4 -6 -2 -5 -13z"/>
<path d="M1587 1343 c-13 -12 -7 -43 8 -43 8 0 15 6 15 13 0 18 -15 38 -23 30z"/>
<path d="M561 1324 c0 -11 3 -14 6 -6 3 7 2 16 -1 19 -3 4 -6 -2 -5 -13z"/>
<path d="M1351 1314 c0 -11 3 -14 6 -6 3 7 2 16 -1 19 -3 4 -6 -2 -5 -13z"/>
<path d="M290 1086 c0 -107 3 -197 8 -199 4 -3 7 84 7 194 0 109 -3 199 -7
199 -5 0 -8 -87 -8 -194z"/>
<path d="M551 1264 c0 -11 3 -14 6 -6 3 7 2 16 -1 19 -3 4 -6 -2 -5 -13z"/>
<path d="M1347 1238 c8 -59 13 -61 13 -5 0 26 -4 47 -9 47 -5 0 -7 -19 -4 -42z"/>
<path d="M1613 1240 c0 -25 2 -35 4 -22 2 12 2 32 0 45 -2 12 -4 2 -4 -23z"/>
<path d="M450 1230 c0 -5 5 -10 11 -10 5 0 7 5 4 10 -3 6 -8 10 -11 10 -2 0
-4 -4 -4 -10z"/>
<path d="M1613 1120 c0 -36 2 -50 4 -32 2 17 2 47 0 65 -2 17 -4 3 -4 -33z"/>
<path d="M586 1102 c-7 -11 -1 -60 7 -69 4 -3 7 12 7 35 0 41 -4 50 -14 34z"/>
<path d="M1611 964 c0 -11 3 -14 6 -6 3 7 2 16 -1 19 -3 4 -6 -2 -5 -13z"/>
<path d="M545 960 c3 -5 8 -10 11 -10 2 0 4 5 4 10 0 6 -5 10 -11 10 -5 0 -7
-4 -4 -10z"/>
<path d="M492 940 c0 -14 2 -19 5 -12 2 6 2 18 0 25 -3 6 -5 1 -5 -13z"/>
<path d="M1362 930 c0 -19 2 -27 5 -17 2 9 2 25 0 35 -3 9 -5 1 -5 -18z"/>
<path d="M1225 799 c-4 -6 -5 -12 -2 -15 2 -3 7 2 10 11 7 17 1 20 -8 4z"/>
<path d="M671 784 c0 -11 3 -14 6 -6 3 7 2 16 -1 19 -3 4 -6 -2 -5 -13z"/>
<path d="M580 780 c0 -5 5 -10 11 -10 5 0 7 5 4 10 -3 6 -8 10 -11 10 -2 0 -4
-4 -4 -10z"/>
<path d="M1405 780 c-3 -5 -1 -10 4 -10 6 0 11 5 11 10 0 6 -2 10 -4 10 -3 0
-8 -4 -11 -10z"/>
<path d="M671 744 c0 -11 3 -14 6 -6 3 7 2 16 -1 19 -3 4 -6 -2 -5 -13z"/>
<path d="M1186 735 c-3 -8 -1 -15 4 -15 6 0 10 7 10 15 0 8 -2 15 -4 15 -2 0
-6 -7 -10 -15z"/>
<path d="M730 720 c8 -5 20 -10 25 -10 6 0 3 5 -5 10 -8 5 -19 10 -25 10 -5 0
-3 -5 5 -10z"/>
<path d="M501 686 c-1 -29 2 -37 10 -29 8 8 8 19 1 40 -10 28 -10 28 -11 -11z"/>
<path d="M672 700 c0 -14 2 -19 5 -12 2 6 2 18 0 25 -3 6 -5 1 -5 -13z"/>
<path d="M1400 690 c0 -11 5 -20 10 -20 6 0 10 9 10 20 0 11 -4 20 -10 20 -5
0 -10 -9 -10 -20z"/>
<path d="M1305 690 c-3 -5 -1 -10 4 -10 6 0 11 5 11 10 0 6 -2 10 -4 10 -3 0
-8 -4 -11 -10z"/>
<path d="M334 618 c3 -13 5 -30 5 -38 1 -13 3 -13 10 0 6 8 7 18 5 22 -3 5 2
11 10 14 25 9 19 24 -9 24 -20 0 -24 -4 -21 -22z"/>
<path d="M1540 631 c0 -5 5 -11 11 -13 7 -2 7 -12 1 -28 -7 -18 -6 -28 4 -38
11 -10 14 -9 13 10 -1 13 3 35 9 51 11 25 10 27 -13 27 -14 0 -25 -4 -25 -9z"/>
<path d="M1390 605 c0 -15 4 -24 10 -20 6 3 10 12 10 20 0 8 -4 17 -10 20 -6
4 -10 -5 -10 -20z"/>
<path d="M600 611 c0 -6 4 -13 10 -16 6 -3 7 1 4 9 -7 18 -14 21 -14 7z"/>
<path d="M1288 591 c-21 -5 -25 -9 -18 -21 6 -10 10 -11 10 -2 0 6 6 12 14 12
8 0 18 5 21 10 3 6 5 9 3 9 -2 -1 -15 -4 -30 -8z"/>
<path d="M1215 580 c-3 -6 1 -7 9 -4 18 7 21 14 7 14 -6 0 -13 -4 -16 -10z"/>
<path d="M1388 560 c-10 -23 -6 -52 5 -41 5 5 7 19 5 32 -3 17 -6 20 -10 9z"/>
<path d="M1240 549 c0 -5 5 -7 10 -4 6 3 10 8 10 11 0 2 -4 4 -10 4 -5 0 -10
-5 -10 -11z"/>
<path d="M340 540 c0 -5 10 -15 23 -21 12 -6 29 -18 37 -26 8 -8 24 -21 35
-29 11 -9 13 -12 5 -8 -12 5 -12 4 -3 -6 6 -7 16 -9 22 -6 16 10 1 36 -21 36
-13 0 -24 11 -31 30 -8 22 -16 28 -29 24 -10 -3 -18 -1 -18 5 0 6 -4 11 -10
11 -5 0 -10 -4 -10 -10z"/>
<path d="M210 535 c0 -18 19 -40 26 -32 4 4 0 15 -9 24 -9 10 -17 13 -17 8z"/>
<path d="M681 524 c0 -11 3 -14 6 -6 3 7 2 16 -1 19 -3 4 -6 -2 -5 -13z"/>
<path d="M1520 513 c0 -26 0 -26 19 -7 12 13 15 21 7 26 -20 13 -26 9 -26 -19z"/>
<path d="M1456 465 c-7 -19 3 -19 28 0 19 15 19 15 -1 15 -11 0 -23 -7 -27
-15z"/>
<path d="M558 393 c6 -2 18 -2 25 0 6 3 1 5 -13 5 -14 0 -19 -2 -12 -5z"/>
<path d="M1338 393 c7 -3 16 -2 19 1 4 3 -2 6 -13 5 -11 0 -14 -3 -6 -6z"/>
<path d="M1562 385 c-11 -12 -10 -15 3 -15 8 0 15 7 15 15 0 18 -2 18 -18 0z"/>
<path d="M628 383 c7 -3 16 -2 19 1 4 3 -2 6 -13 5 -11 0 -14 -3 -6 -6z"/>
<path d="M718 383 c6 -2 18 -2 25 0 6 3 1 5 -13 5 -14 0 -19 -2 -12 -5z"/>
<path d="M1183 383 c9 -2 25 -2 35 0 9 3 1 5 -18 5 -19 0 -27 -2 -17 -5z"/>
<path d="M1278 383 c7 -3 16 -2 19 1 4 3 -2 6 -13 5 -11 0 -14 -3 -6 -6z"/>
<path d="M1485 360 l-50 -19 40 -1 c30 0 43 5 53 20 7 11 11 20 10 19 -2 0
-25 -9 -53 -19z"/>
<path d="M358 363 c7 -3 16 -2 19 1 4 3 -2 6 -13 5 -11 0 -14 -3 -6 -6z"/>
<path d="M392 358 c3 -7 24 -14 49 -16 47 -4 49 6 3 14 -16 2 -35 7 -42 9 -8
3 -12 0 -10 -7z"/>
</g>
</svg>
