<?xml version="1.0" standalone="no"?>
<!DOCTYPE svg PUBLIC "-//W3C//DTD SVG 20010904//EN"
 "http://www.w3.org/TR/2001/REC-SVG-20010904/DTD/svg10.dtd">
<svg version="1.0" xmlns="http://www.w3.org/2000/svg"
 width="192.000000pt" height="192.000000pt" viewBox="0 0 192.000000 192.000000"
 preserveAspectRatio="xMidYMid meet">
<metadata>
Created by potrace 1.16, written by Peter Selinger 2001-2019
</metadata>
<g transform="translate(0.000000,192.000000) scale(0.100000,-0.100000)"
fill="#000000" stroke="none">
<path d="M800 1710 c0 -5 5 -10 10 -10 6 0 10 5 10 10 0 6 -4 10 -10 10 -5 0
-10 -4 -10 -10z"/>
<path d="M870 1710 c0 -5 5 -10 11 -10 5 0 7 5 4 10 -3 6 -8 10 -11 10 -2 0
-4 -4 -4 -10z"/>
<path d="M670 1666 c6 -6 18 -5 32 1 21 10 21 10 -9 9 -19 -1 -28 -5 -23 -10z"/>
<path d="M1230 1676 c0 -2 7 -6 15 -10 8 -3 15 -1 15 4 0 6 -7 10 -15 10 -8 0
-15 -2 -15 -4z"/>
<path d="M790 1645 c-68 -12 -79 -18 -112 -55 -21 -23 -49 -66 -64 -96 -25
-50 -41 -73 -28 -39 4 10 0 15 -11 15 -9 0 -14 -4 -11 -9 4 -5 -2 -7 -13 -4
-10 2 -36 0 -58 -6 -34 -9 -42 -18 -60 -58 -62 -140 -76 -227 -75 -478 0 -196
11 -283 41 -319 9 -11 11 -17 11 -36 0 -5 8 -10 17 -10 13 0 14 -3 5 -12 -7
-7 -12 -21 -12 -31 0 -18 5 -19 60 -14 55 5 66 2 150 -39 50 -24 94 -44 99
-44 4 0 16 -9 26 -20 22 -24 40 -26 31 -4 -3 8 -2 12 4 9 6 -3 10 -1 10 4 0 6
-6 11 -14 11 -7 0 -27 7 -42 15 -16 8 -22 15 -14 15 10 0 7 5 -8 15 -17 13
-26 13 -43 4 -12 -6 -19 -7 -15 -1 3 6 0 12 -6 15 -8 2 -9 8 -4 13 5 5 11 4
13 -3 4 -10 9 -10 25 2 15 10 26 11 40 4 10 -5 23 -7 28 -4 5 3 11 1 15 -5 3
-5 15 -10 26 -10 13 0 19 -7 19 -21 0 -19 -4 -21 -30 -15 -19 3 -29 2 -25 -4
14 -22 77 -7 68 16 -4 10 0 12 11 8 11 -4 24 1 36 14 17 18 19 45 23 368 3
192 8 387 11 434 8 109 9 130 4 136 -10 9 -142 31 -243 40 -33 3 -62 8 -64 10
-14 13 23 23 92 25 42 1 77 6 77 11 0 6 -20 8 -45 6 -25 -2 -45 0 -45 4 0 5
25 8 56 8 48 0 55 -2 50 -16 -4 -12 -2 -15 9 -10 8 3 15 1 15 -4 0 -11 -7 -12
-60 -12 l-35 1 32 -8 c43 -11 79 -8 76 7 -2 7 2 12 8 12 6 0 9 -9 6 -19 -4
-17 -2 -18 18 -11 16 6 25 5 29 -3 3 -9 5 -8 5 1 1 7 6 10 12 6 14 -8 97 -9
106 -1 5 6 -46 12 -69 8 -5 0 -8 4 -8 9 0 5 4 10 9 10 5 0 8 8 6 18 -1 9 2 23
7 29 6 7 8 21 5 32 -2 10 0 26 5 35 6 10 5 16 -2 16 -5 0 -10 -6 -11 -12 0 -7
-4 -4 -8 7 -9 22 9 41 20 23 6 -9 12 -8 24 2 15 12 16 11 9 -15 -4 -16 -15
-50 -25 -76 l-17 -48 47 -8 c25 -4 52 -7 59 -6 6 0 12 -10 12 -22 0 -28 -19
-35 -93 -39 -40 -2 -53 -7 -55 -20 -2 -10 2 -17 10 -15 26 3 39 -1 33 -11 -3
-5 -3 -10 2 -10 11 0 0 -341 -11 -359 -7 -11 -5 -13 8 -8 10 4 19 7 21 7 2 0
1 14 -1 30 -3 17 -1 30 5 30 6 0 8 -7 5 -15 -4 -8 -1 -15 5 -15 6 0 8 -6 5
-14 -3 -8 0 -17 5 -21 6 -3 9 -11 6 -16 -4 -5 1 -9 11 -9 14 0 14 3 4 15 -7 9
-10 18 -7 21 3 3 56 7 119 10 62 2 172 8 243 14 72 5 139 8 149 6 21 -3 32
-41 16 -51 -6 -4 -8 -11 -5 -16 3 -5 -1 -6 -9 -3 -9 3 -16 9 -16 13 0 12 -68
5 -86 -9 -10 -9 -15 -10 -10 -2 4 7 1 12 -8 12 -9 0 -16 -7 -16 -14 0 -12 -6
-13 -30 -5 -16 6 -27 15 -24 20 3 5 0 9 -7 9 -7 0 -9 3 -6 7 4 3 16 -2 27 -12
11 -10 23 -15 27 -11 4 4 1 11 -7 16 -10 6 9 9 55 6 40 -1 76 2 84 8 11 8 13
8 8 -1 -4 -6 -4 -14 1 -17 4 -2 9 5 9 16 2 20 -1 20 -160 13 -293 -13 -332
-18 -329 -37 2 -11 -3 -18 -12 -18 -11 0 -14 -12 -13 -48 0 -27 -3 -54 -7 -60
-4 -7 -1 -12 8 -12 9 0 16 -4 16 -10 0 -5 -4 -10 -9 -10 -20 0 -33 33 -34 94
-2 62 -10 87 -23 73 -4 -3 -10 -36 -13 -72 -6 -55 -5 -65 8 -66 11 0 12 -2 3
-6 -10 -4 -12 -45 -12 -174 1 -92 -2 -174 -6 -180 -4 -8 -3 -9 5 -5 8 6 10 1
6 -17 -8 -29 12 -47 21 -20 3 10 10 26 15 35 15 29 11 42 -8 27 -16 -13 -17
-12 -5 3 17 21 17 270 1 301 -9 15 -8 18 3 15 10 -4 14 -37 16 -136 2 -108 5
-132 17 -132 8 0 15 -4 15 -10 0 -5 -7 -10 -15 -10 -8 0 -15 -4 -15 -10 0 -5
5 -10 12 -10 6 0 8 -3 5 -7 -4 -3 -1 -13 6 -21 10 -13 9 -15 -6 -9 -15 6 -16
4 -6 -16 7 -12 14 -17 16 -11 2 6 15 9 28 6 15 -2 25 0 25 8 0 7 -8 9 -20 5
-11 -4 -20 -2 -20 4 0 6 18 11 41 11 34 0 40 -3 35 -16 -5 -12 -2 -15 10 -10
8 3 24 6 35 6 10 0 19 4 19 9 0 4 -11 6 -25 3 -14 -2 -25 0 -25 5 0 8 291 48
350 48 14 0 27 2 30 5 3 3 18 11 33 18 26 11 27 11 17 -8 -6 -11 -17 -20 -25
-20 -7 0 -17 -5 -21 -11 -4 -8 1 -9 17 -4 24 8 24 8 5 -14 -11 -11 -16 -21
-12 -21 4 0 2 -10 -5 -21 -9 -17 -8 -20 3 -17 21 6 59 90 55 120 -2 15 1 29 7
31 8 3 11 86 10 263 -1 283 -11 350 -70 472 -31 63 -67 88 -140 98 -51 6 -52
7 -79 60 -15 30 -33 53 -39 51 -11 -5 -12 -11 -2 -37 5 -13 -4 -14 -60 -12
l-66 4 6 33 c4 18 2 35 -3 37 -5 1 -13 16 -17 31 -6 27 -6 28 15 15 15 -9 21
-23 21 -47 0 -25 3 -32 11 -24 5 5 9 32 7 59 -3 45 -5 49 -30 52 -14 2 -32 -3
-40 -11 -11 -13 -15 -13 -31 1 -24 22 -205 26 -307 7z m254 -16 c-4 -7 0 -9
14 -5 19 7 21 4 17 -28 -4 -27 -1 -36 10 -36 8 0 16 5 16 10 1 6 3 15 4 20 1
6 3 13 4 18 1 4 5 1 10 -7 5 -8 7 -25 5 -38 -2 -12 0 -23 6 -23 12 0 14 -27 3
-33 -5 -3 -30 -8 -58 -11 -27 -3 -44 -3 -37 0 17 8 15 27 -3 20 -46 -18 -50
-19 -38 -6 6 7 9 18 7 24 -5 13 31 106 41 106 4 0 3 -5 -1 -11z m-114 -9 c0
-5 -20 -10 -44 -10 -24 0 -65 -3 -92 -6 -34 -5 -46 -3 -39 4 17 18 175 29 175
12z m-226 -67 c-19 -24 -32 -49 -28 -54 3 -5 0 -9 -5 -9 -6 0 -11 8 -11 18 0
15 -2 15 -11 2 -9 -13 -10 -13 -6 0 2 8 10 14 17 12 8 -2 10 3 6 13 -3 9 -2
13 4 10 5 -3 15 5 22 19 6 14 15 26 20 26 5 0 6 4 3 10 -3 5 0 7 9 4 12 -4 7
-15 -20 -51z m242 10 c-3 -10 -8 -30 -11 -44 -6 -24 -10 -26 -56 -24 -27 1
-51 3 -53 6 -2 2 -6 21 -10 42 l-7 37 71 0 c63 0 71 -2 66 -17z m-156 -23 c0
-5 -4 -10 -10 -10 -5 0 -10 5 -10 10 0 6 5 10 10 10 6 0 10 -4 10 -10z m123
-67 c-7 -2 -19 -2 -25 0 -7 3 -2 5 12 5 14 0 19 -2 13 -5z m340 -12 c55 -1 77
-5 77 -14 0 -10 -24 -12 -102 -10 -129 4 -128 4 -128 17 0 6 16 10 38 10 20
-1 72 -2 115 -3z m-697 -33 c5 -8 2 -9 -9 -5 -10 3 -17 2 -17 -2 0 -5 -8 -7
-18 -4 -12 3 -22 -4 -30 -22 -17 -36 -15 -58 3 -52 8 4 17 2 20 -2 6 -11 -24
-23 -37 -15 -6 4 -8 1 -6 -7 3 -8 10 -13 16 -12 7 2 9 -4 5 -14 -4 -11 -8 -12
-11 -5 -2 8 -8 8 -19 -3 -22 -23 -42 -19 -35 7 3 12 7 17 10 10 5 -17 22 -15
22 3 0 8 -6 15 -12 15 -9 0 -9 3 -3 8 6 4 17 26 25 50 10 34 20 44 44 51 43
13 44 13 52 -1z m15 -36 c-7 -16 -11 -35 -9 -42 2 -7 -7 -13 -19 -15 -17 -1
-20 1 -12 11 7 8 7 14 -1 19 -6 3 -8 11 -4 16 3 5 10 7 15 4 5 -4 9 0 9 7 0
16 21 40 28 33 3 -2 -1 -17 -7 -33z m44 17 c-5 -15 -4 -19 5 -14 8 5 11 0 8
-16 -2 -15 2 -23 10 -21 6 1 12 -5 12 -13 0 -8 5 -15 10 -15 16 0 12 27 -5 34
-29 11 -14 26 28 27 39 1 40 2 12 9 -28 7 -27 8 14 9 33 1 41 -2 34 -11 -15
-20 -45 -137 -38 -148 3 -6 1 -10 -4 -10 -6 0 -11 -12 -12 -27 0 -25 -1 -25
-8 -8 -5 11 -6 24 -3 30 4 5 7 23 8 39 l3 30 -20 -30 -21 -29 5 35 c2 21 -1
40 -9 48 -8 7 -14 10 -14 7 0 -4 -8 3 -18 15 -14 18 -19 19 -19 7 0 -9 5 -13
10 -10 6 3 7 1 3 -5 -10 -16 -35 -15 -32 1 5 29 31 87 39 87 4 0 5 -10 2 -21z
m512 15 c-3 -3 -12 -4 -19 -1 -8 3 -5 6 6 6 11 1 17 -2 13 -5z m-269 -27 c40
-2 51 -5 48 -17 -4 -14 -25 -589 -29 -794 -2 -76 -5 -101 -17 -108 -11 -7 -45
1 -115 27 -98 36 -123 47 -253 106 -62 29 -90 37 -62 19 8 -5 11 -10 5 -10 -5
0 -17 5 -25 10 -11 7 -11 10 -2 10 7 0 10 5 7 10 -9 15 -6 14 118 -45 63 -30
120 -55 126 -55 6 0 11 8 11 18 0 36 10 449 11 485 2 30 4 35 16 26 7 -7 17
-9 21 -5 4 4 -1 12 -10 17 -22 12 -16 89 9 102 15 9 15 11 -2 23 -12 9 -14 14
-6 14 9 0 11 8 8 21 -3 13 0 22 10 26 9 4 11 8 4 12 -7 5 -6 16 4 35 8 16 15
33 15 39 0 18 43 58 50 47 4 -6 30 -12 58 -13z m302 3 c0 -5 -4 -10 -10 -10
-5 0 -10 5 -10 10 0 6 5 10 10 10 6 0 10 -4 10 -10z m146 -3 c8 3 14 0 14 -6
0 -6 5 -11 11 -11 5 0 7 5 4 10 -3 6 1 10 10 10 9 0 14 -3 12 -7 -3 -5 11 -8
31 -9 58 -2 97 -11 95 -22 -2 -6 6 -14 17 -17 11 -4 20 -11 20 -17 0 -5 -8 -7
-17 -4 -13 4 -12 1 5 -13 12 -11 22 -24 22 -31 0 -6 5 -8 12 -4 7 4 8 3 4 -4
-4 -6 0 -24 8 -40 8 -16 13 -32 11 -34 -3 -3 1 -25 9 -50 l13 -45 -241 -12
c-133 -6 -266 -14 -295 -18 -52 -6 -53 -5 -42 15 7 13 10 70 8 153 l-2 132 55
3 c30 2 80 8 110 13 77 15 105 17 108 9 2 -4 10 -4 18 -1z m-799 -19 c-3 -8
-6 -5 -6 6 -1 11 2 17 5 13 3 -3 4 -12 1 -19z m68 -68 c21 -5 24 -8 10 -10
-12 -1 -15 -4 -7 -7 7 -3 19 1 27 7 12 10 16 9 21 -4 10 -25 2 -27 -68 -20
-58 6 -65 9 -61 25 6 20 26 22 78 9z m-62 -55 c18 -2 57 -6 86 -10 62 -6 58
-5 61 -25 6 -40 0 -50 -30 -50 -17 0 -30 5 -31 13 0 9 -2 9 -6 -1 -2 -6 -9
-10 -14 -6 -5 3 -28 7 -52 10 -65 6 -97 15 -97 26 0 6 12 8 30 5 25 -6 30 -3
30 13 0 11 -4 20 -10 20 -5 0 -10 -4 -10 -9 0 -5 -16 -12 -35 -15 -56 -11 -41
-40 25 -50 8 -1 38 -8 65 -14 28 -6 57 -11 65 -10 8 0 30 -3 48 -7 18 -4 32
-4 31 1 -3 18 1 34 9 34 5 0 4 -25 -1 -55 -8 -40 -15 -55 -26 -54 -10 0 -12 2
-3 6 6 2 12 14 11 26 0 16 -2 18 -7 7 -4 -8 -20 -16 -37 -17 -22 -2 -26 0 -15
7 13 8 13 10 -2 10 -9 0 -20 5 -23 10 -4 7 3 8 22 4 15 -4 25 -4 22 0 -4 4
-19 9 -35 11 -16 3 -50 9 -76 13 -41 8 -48 6 -48 -7 0 -28 16 -42 41 -37 13 3
30 5 38 5 8 1 11 4 7 8 -4 4 -22 6 -41 5 -19 -2 -35 2 -35 7 0 12 59 12 82 0
11 -6 15 -16 11 -26 -4 -11 -3 -14 5 -9 7 4 12 2 12 -3 0 -6 -4 -11 -8 -11 -5
0 -9 -21 -11 -47 -1 -26 -8 -54 -14 -62 -9 -12 -9 -13 1 -7 12 7 16 -7 14 -49
0 -11 2 -14 4 -7 7 15 54 16 54 1 0 -6 -9 -8 -21 -4 -14 5 -19 3 -15 -3 3 -6
-2 -12 -11 -15 -10 -2 1 -3 24 -3 31 1 42 5 40 15 -1 8 4 16 11 18 10 4 12
-33 11 -175 l-1 -180 -110 49 c-126 55 -161 76 -153 89 4 6 3 10 -2 10 -4 0
-9 18 -11 40 -1 22 2 40 7 40 6 0 8 -7 5 -15 -4 -8 -1 -15 5 -15 16 0 13 32
-5 55 -21 28 -17 295 5 287 9 -3 12 1 9 14 -2 10 -9 18 -15 17 -6 -1 -9 14 -7
35 2 20 3 43 3 49 1 7 12 15 26 19 14 3 25 13 25 21 0 10 6 12 20 8 12 -4 35
-8 53 -10z m1077 -186 c0 -11 -4 -17 -10 -14 -5 3 -81 1 -167 -4 -188 -13
-362 -16 -370 -7 -4 3 -4 9 -1 12 5 4 323 24 516 33 26 1 32 -3 32 -20z m-935
-22 c1 -1 -1 -27 -3 -58 l-4 -57 -34 11 c-33 10 -34 12 -34 65 l0 54 38 -7
c20 -4 37 -8 37 -8z m665 -81 c0 -23 -3 -23 -120 -32 l-120 -9 0 27 c0 25 3
27 53 31 28 2 82 4 120 5 64 2 67 1 67 -22z m183 -3 c-7 -2 -19 -2 -25 0 -7 3
-2 5 12 5 14 0 19 -2 13 -5z m55 -95 l-3 -83 -100 -12 c-55 -6 -104 -12 -108
-12 -5 -1 -7 -11 -5 -23 3 -21 -1 -23 -34 -20 -29 3 -38 0 -38 -12 0 -9 6 -16
13 -16 8 0 8 -3 -2 -9 -13 -8 -13 -14 -2 -38 9 -18 15 -23 19 -14 2 7 -2 17
-9 22 -21 12 -4 22 28 15 26 -6 29 -10 25 -40 -4 -31 -8 -34 -40 -39 -21 -2
-38 -3 -40 -1 -7 5 -1 329 6 335 4 4 68 12 142 17 74 5 139 10 143 11 4 0 7
-36 5 -81z m-320 24 c-1 -19 -10 -32 -26 -40 -24 -11 -24 -11 -7 8 17 19 17
20 -4 20 -12 0 -19 -4 -16 -10 3 -5 1 -10 -6 -10 -7 0 -20 -7 -30 -16 -15 -13
-20 -13 -50 0 l-34 15 39 -6 c42 -6 56 5 56 45 0 19 5 22 40 22 38 0 40 -2 38
-28z m-118 3 c0 -8 -9 -15 -19 -15 -11 0 -26 -3 -35 -6 -12 -4 -16 0 -16 15 0
17 6 21 35 21 24 0 35 -5 35 -15z m0 -85 c0 -5 6 -7 14 -4 8 3 17 0 21 -5 3
-6 11 -9 16 -6 5 4 9 -1 9 -10 0 -9 4 -14 10 -10 5 3 7 13 4 23 -5 14 -4 15 5
2 8 -11 11 -12 11 -2 0 7 5 10 12 6 6 -4 8 -3 4 4 -6 10 -36 9 -55 -2 -5 -3
-11 1 -15 9 -4 11 2 15 23 15 16 0 37 3 45 6 27 10 14 -32 -17 -56 -33 -26
-34 -26 -57 2 -11 13 -19 19 -20 14 0 -5 -6 -3 -14 3 -11 9 -12 6 -8 -14 2
-14 11 -25 19 -25 8 0 11 5 7 12 -4 7 -3 8 5 4 6 -4 9 -12 6 -17 -8 -12 -45
-12 -45 1 0 5 -7 7 -16 3 -13 -5 -13 -7 -2 -14 8 -6 9 -9 1 -9 -6 0 -19 -3
-28 -6 -17 -7 -18 15 0 28 6 5 5 8 -2 8 -7 0 -12 10 -12 23 1 16 2 18 6 5 5
-19 43 -26 43 -8 0 5 -6 7 -13 4 -8 -3 -14 2 -14 10 0 8 6 12 14 9 9 -4 11 0
7 12 -6 15 -4 16 14 6 12 -7 22 -16 22 -21z m438 -107 c-3 -61 -5 -68 -27 -73
-13 -3 -28 -15 -32 -28 -10 -28 4 -29 31 -2 23 23 49 28 31 6 -6 -8 -10 -20
-9 -27 3 -15 -27 -16 -96 -4 -24 4 -36 3 -32 -3 3 -6 -7 -9 -27 -7 -31 2 -32
3 -35 56 -2 30 -1 73 3 97 l6 42 60 -4 c32 -2 56 0 53 5 -3 5 13 9 36 9 l41 0
-3 -67z m-318 47 c0 -5 -2 -10 -4 -10 -3 0 -8 5 -11 10 -3 6 -1 10 4 10 6 0
11 -4 11 -10z m-25 -9 c6 -2 1 -6 -10 -10 -11 -5 -25 -5 -31 0 -6 5 -15 5 -19
1 -5 -4 -5 -2 -2 4 6 10 27 11 62 5z m-95 -12 c0 -5 4 -8 9 -4 6 3 9 -3 8 -14
0 -11 -5 -17 -9 -15 -8 5 -9 4 -13 -33 -2 -23 9 -31 19 -14 4 5 0 11 -6 14 -7
2 -9 8 -5 13 4 5 12 3 16 -4 5 -9 17 -11 34 -7 14 4 31 4 37 0 19 -12 -8 -24
-42 -20 -25 4 -28 1 -26 -18 2 -12 7 -27 11 -34 5 -8 1 -11 -12 -10 -14 1 -18
7 -15 25 3 13 1 21 -4 18 -5 -3 -9 -18 -10 -35 0 -24 3 -28 21 -25 12 2 6 -2
-13 -9 -19 -8 -37 -10 -38 -5 -2 4 -7 6 -11 4 -4 -3 -7 10 -7 27 1 20 -4 31
-11 30 -17 -4 -12 39 7 55 13 12 13 13 0 9 -12 -3 -16 2 -16 20 0 23 1 24 14
6 13 -17 13 -17 10 1 -2 10 3 21 10 23 10 4 12 -7 7 -51 -5 -38 -3 -56 4 -56
9 0 17 68 12 108 -1 6 3 12 9 12 5 0 10 -5 10 -11z m117 -21 c-3 -8 -6 -5 -6
6 -1 11 2 17 5 13 3 -3 4 -12 1 -19z m-31 -14 c-23 -17 -36 -18 -36 -3 0 5 -6
7 -12 3 -9 -5 -10 -4 -3 4 10 11 56 21 65 14 3 -2 -4 -10 -14 -18z m138 -7
c-3 -9 -12 -13 -20 -10 -19 7 -18 21 4 25 22 5 24 4 16 -15z m-876 -85 c4 -14
-34 -16 -43 -2 -4 6 1 7 11 3 13 -5 15 -3 9 7 -5 8 -3 11 5 8 8 -2 16 -10 18
-16z m772 -7 c0 -24 -9 -29 -47 -28 -7 1 -13 -3 -13 -8 0 -5 -5 -9 -10 -9 -7
0 -7 6 -1 18 5 9 12 25 15 35 3 10 15 17 31 17 20 0 25 -5 25 -25z m-735 -5
c3 -5 23 -14 45 -20 21 -6 45 -16 52 -23 7 -6 19 -12 26 -13 29 -2 33 -5 26
-15 -4 -7 0 -9 12 -5 11 3 26 1 34 -4 13 -9 13 -10 0 -11 -8 -1 -21 -1 -28 0
-8 1 -21 -4 -30 -11 -13 -10 -14 -10 -8 0 6 9 2 11 -16 7 -12 -3 -30 -1 -38 5
-13 8 -12 11 4 23 18 13 18 14 -3 20 -11 3 -19 1 -15 -4 3 -5 -4 -9 -16 -9
-12 0 -18 -4 -15 -10 17 -27 -51 5 -88 42 -17 17 -17 18 3 18 11 0 23 -7 26
-15 4 -8 11 -12 16 -9 6 4 4 10 -6 16 -9 5 -14 13 -11 19 8 12 22 12 30 -1z
m875 -39 l25 -7 -27 -6 c-16 -3 -28 -1 -28 3 0 12 -37 12 -42 0 -1 -4 -20 -11
-41 -15 -27 -5 -37 -4 -32 3 10 17 -6 13 -28 -6 -15 -13 -21 -15 -24 -5 -3 6
-17 12 -31 11 -25 0 -25 -1 -7 -10 14 -6 3 -7 -32 -3 -35 4 -53 2 -53 -5 0 -6
-4 -11 -10 -11 -5 0 -7 6 -4 14 5 14 76 26 177 31 26 1 50 5 54 9 8 8 71 6
103 -3z m93 2 c-7 -2 -19 -2 -25 0 -7 3 -2 5 12 5 14 0 19 -2 13 -5z m-768
-103 c-3 -5 -11 -10 -16 -10 -6 0 -7 5 -4 10 3 6 11 10 16 10 6 0 7 -4 4 -10z"/>
<path d="M1035 1601 c-6 -11 13 -26 22 -17 4 3 1 6 -6 6 -7 0 -9 5 -6 10 3 6
4 10 1 10 -3 0 -7 -4 -11 -9z"/>
<path d="M1033 1562 c-13 -2 -23 -8 -23 -13 0 -6 5 -7 10 -4 6 3 10 1 10 -4 0
-6 16 -11 36 -11 21 0 33 -4 29 -10 -3 -5 -2 -10 4 -10 30 0 18 33 -14 38 -11
2 -22 7 -25 11 -3 3 -15 5 -27 3z"/>
<path d="M875 1550 c-7 -11 22 -26 32 -16 4 3 -1 6 -11 6 -9 0 -14 5 -11 10 3
6 4 10 1 10 -3 0 -8 -5 -11 -10z"/>
<path d="M682 1330 c0 -14 2 -19 5 -12 2 6 2 18 0 25 -3 6 -5 1 -5 -13z"/>
<path d="M785 1390 c-3 -4 16 -13 41 -19 l46 -12 -6 -87 c-15 -215 -17 -307
-7 -297 7 7 14 91 18 206 l6 195 -47 11 c-25 6 -49 7 -51 3z"/>
<path d="M773 1350 c-1 -11 2 -20 8 -20 5 0 9 -12 9 -27 0 -14 3 -24 6 -20 8
7 -6 87 -15 87 -4 0 -7 -9 -8 -20z"/>
<path d="M750 1309 c0 -5 5 -7 10 -4 6 3 10 8 10 11 0 2 -4 4 -10 4 -5 0 -10
-5 -10 -11z"/>
<path d="M711 1158 c-1 -22 4 -28 22 -29 12 -1 32 -3 45 -4 38 -4 24 12 -17
19 -26 4 -41 12 -44 24 -3 10 -5 6 -6 -10z"/>
<path d="M750 1170 c0 -5 12 -10 28 -10 21 0 24 2 12 10 -20 13 -40 13 -40 0z"/>
<path d="M708 1108 c-9 -5 -2 -10 20 -14 17 -4 32 -10 32 -15 0 -12 37 -11 45
1 3 5 13 6 22 3 10 -4 14 -2 12 6 -3 7 -9 13 -14 14 -77 11 -107 12 -117 5z"/>
<path d="M703 1048 c0 -7 -2 -31 -5 -53 -3 -22 -3 -32 -1 -22 5 18 33 24 33 7
0 -5 -4 -10 -9 -10 -5 0 -7 -12 -5 -27 7 -41 7 -53 4 -108 l-3 -50 -6 50 c-4
29 -2 53 4 57 6 5 5 8 -2 8 -7 0 -10 7 -7 18 5 13 4 14 -4 3 -6 -8 -8 -38 -5
-68 4 -36 2 -53 -6 -53 -6 0 -11 -4 -11 -10 0 -5 7 -10 16 -10 10 0 14 -6 10
-15 -5 -13 10 -20 37 -16 4 0 7 -8 7 -20 0 -11 4 -17 10 -14 13 8 80 -5 80
-16 0 -5 -24 -7 -54 -4 -40 3 -57 1 -66 -10 -31 -37 -1 -165 39 -165 10 0 21
-4 23 -10 2 -5 18 -13 36 -16 l33 -7 -7 72 c-5 54 -3 75 7 88 12 14 12 16 0 8
-11 -6 -13 -4 -7 11 5 10 9 25 9 32 0 6 3 12 6 12 12 0 -1 80 -19 115 l-18 35
-6 -25 c-7 -28 0 -49 14 -40 4 3 10 -11 12 -30 4 -31 1 -35 -19 -35 -20 0 -22
4 -17 26 5 20 4 25 -6 19 -9 -6 -11 0 -6 21 13 66 26 152 28 188 2 30 -3 43
-21 57 -27 22 -98 26 -98 7z m82 -28 c-3 -5 3 -11 12 -13 11 -3 7 -5 -10 -6
-17 -1 -26 3 -22 9 3 6 -1 10 -9 10 -9 0 -16 4 -16 9 0 4 11 6 25 3 14 -2 23
-8 20 -12z m-38 -32 c-3 -8 -6 -5 -6 6 -1 11 2 17 5 13 3 -3 4 -12 1 -19z m34
-11 c-1 -4 -1 -18 -1 -32 0 -20 -5 -25 -25 -25 -18 0 -25 5 -25 19 0 11 4 22
9 25 5 4 7 -3 4 -14 -3 -11 0 -20 6 -20 10 0 15 16 14 48 -1 7 3 12 9 10 5 -2
9 -7 9 -11z m29 -27 c0 -5 -2 -10 -4 -10 -3 0 -8 5 -11 10 -3 6 -1 10 4 10 6
0 11 -4 11 -10z m-20 -65 c0 -33 -15 -33 -16 0 -1 14 2 25 7 25 5 0 9 -11 9
-25z m-32 -35 c-3 -27 -1 -50 4 -50 5 0 6 -4 3 -10 -21 -33 -34 30 -19 88 11
38 17 24 12 -28z m22 -215 c-11 -22 -20 -44 -20 -51 0 -6 -6 -16 -13 -22 -10
-9 -13 -4 -15 21 -1 21 1 28 7 18 11 -17 23 1 15 23 -4 10 3 23 17 35 13 11
25 18 26 17 2 -1 -6 -20 -17 -41z m50 35 c0 -5 -4 -10 -10 -10 -5 0 -10 5 -10
10 0 6 5 10 10 10 6 0 10 -4 10 -10z m-12 -78 c2 -36 0 -52 -7 -47 -6 3 -11 1
-11 -5 0 -7 9 -14 20 -17 22 -6 28 -23 8 -23 -30 1 -37 17 -35 81 2 80 21 88
25 11z"/>
<path d="M847 894 c6 -68 11 -77 12 -24 0 25 -3 51 -8 59 -5 8 -7 -5 -4 -35z"/>
<path d="M693 715 c-3 -9 -3 -18 -1 -21 3 -3 8 4 11 16 6 23 -1 27 -10 5z"/>
<path d="M1218 1383 c12 -2 32 -2 45 0 12 2 2 4 -23 4 -25 0 -35 -2 -22 -4z"/>
<path d="M1344 1362 c-9 -5 -8 -10 1 -19 11 -10 13 -9 12 7 -1 11 -1 20 -2 20
0 0 -5 -4 -11 -8z"/>
<path d="M1283 1332 l6 -29 -80 -2 c-80 -1 -135 -20 -109 -36 7 -4 10 -19 6
-36 -5 -26 -4 -28 32 -27 20 1 45 -2 54 -6 14 -6 16 -3 13 13 -2 14 1 18 11
14 7 -3 12 -9 9 -13 -2 -4 7 -7 20 -7 14 0 25 5 25 11 0 6 5 4 10 -4 9 -13 10
-13 10 0 0 13 1 13 10 0 8 -13 10 -13 10 0 0 11 3 11 12 2 15 -15 28 -15 28
-1 0 5 -5 7 -12 3 -6 -4 -8 -3 -5 3 4 6 -3 19 -16 29 -18 16 -19 16 -8 2 11
-15 11 -18 -2 -18 -8 0 -17 11 -19 25 -4 19 -1 25 11 25 10 0 23 -6 30 -12 10
-11 11 -10 6 5 -4 10 -2 17 4 17 10 0 16 -29 12 -54 -5 -28 54 -43 89 -21 9 5
11 4 6 -3 -9 -16 7 -15 22 0 9 9 12 9 12 0 0 -7 5 -12 11 -12 5 0 7 4 4 10 -3
6 1 7 9 4 9 -3 16 -1 16 5 0 6 -12 11 -26 11 -14 0 -23 4 -19 10 3 6 -1 10
-10 10 -9 0 -14 -4 -11 -8 2 -4 -15 -9 -39 -10 -40 -1 -43 0 -47 28 -4 26 -1
30 18 30 13 0 29 -9 37 -20 15 -21 29 -17 20 6 -9 24 24 15 41 -11 18 -28 36
-33 36 -11 0 21 -51 58 -72 53 -10 -3 -16 -2 -13 2 2 5 -18 6 -45 3 -39 -4
-51 -1 -56 12 -5 12 -10 13 -25 5 -15 -7 -19 -6 -19 5 0 8 6 17 13 19 7 3 4 6
-7 6 -15 1 -17 -4 -13 -27z m47 -22 c0 -5 -4 -10 -10 -10 -5 0 -10 5 -10 10 0
6 5 10 10 10 6 0 10 -4 10 -10z m-180 -40 c0 -5 5 -10 11 -10 5 0 7 5 4 10 -3
6 2 10 12 10 17 0 22 -19 14 -62 -2 -14 -21 -8 -21 6 0 8 -5 18 -12 22 -8 5
-9 2 -5 -9 5 -13 1 -17 -14 -17 -11 0 -17 4 -14 10 3 5 1 19 -5 30 -9 17 -8
20 10 20 11 0 20 -4 20 -10z m127 -6 c3 -8 -2 -23 -11 -32 -20 -20 -49 -6 -54
27 -3 18 2 21 28 21 19 0 33 -6 37 -16z"/>
<path d="M1230 1255 c0 -8 7 -15 15 -15 8 0 15 7 15 15 0 8 -7 15 -15 15 -8 0
-15 -7 -15 -15z"/>
<path d="M1138 1343 c7 -3 16 -2 19 1 4 3 -2 6 -13 5 -11 0 -14 -3 -6 -6z"/>
<path d="M1178 1343 c7 -3 16 -2 19 1 4 3 -2 6 -13 5 -11 0 -14 -3 -6 -6z"/>
<path d="M1230 1340 c0 -5 5 -10 10 -10 6 0 10 5 10 10 0 6 -4 10 -10 10 -5 0
-10 -4 -10 -10z"/>
<path d="M1385 1340 c-3 -6 1 -7 9 -4 18 7 21 14 7 14 -6 0 -13 -4 -16 -10z"/>
<path d="M1390 1260 c0 -5 5 -10 10 -10 6 0 10 5 10 10 0 6 -4 10 -10 10 -5 0
-10 -4 -10 -10z"/>
<path d="M1057 1238 c-3 -9 -1 -19 6 -21 9 -3 8 -9 -3 -22 -14 -17 -14 -18 8
-6 16 8 20 16 14 24 -5 7 -11 19 -14 26 -4 12 -5 12 -11 -1z"/>
<path d="M1531 1200 c1 -42 1 -43 9 -16 6 17 5 36 0 45 -7 11 -9 3 -9 -29z"/>
<path d="M1552 1145 c0 -16 2 -22 5 -12 2 9 2 23 0 30 -3 6 -5 -1 -5 -18z"/>
<path d="M1260 1150 c0 -5 5 -10 10 -10 6 0 10 5 10 10 0 6 -4 10 -10 10 -5 0
-10 -4 -10 -10z"/>
<path d="M1200 1141 c0 -6 -11 -11 -24 -11 -13 0 -39 -7 -57 -15 l-34 -16 35
8 c19 4 64 8 100 7 36 0 56 1 45 4 -10 2 -29 11 -42 19 -15 10 -23 11 -23 4z"/>
<path d="M1330 1120 c0 -6 7 -10 15 -10 8 0 15 2 15 4 0 2 -7 6 -15 10 -8 3
-15 1 -15 -4z"/>
<path d="M1048 1093 c7 -3 16 -2 19 1 4 3 -2 6 -13 5 -11 0 -14 -3 -6 -6z"/>
<path d="M530 1220 c0 -5 5 -10 10 -10 6 0 10 5 10 10 0 6 -4 10 -10 10 -5 0
-10 -4 -10 -10z"/>
<path d="M570 1210 c0 -5 4 -10 9 -10 6 0 13 5 16 10 3 6 -1 10 -9 10 -9 0
-16 -4 -16 -10z"/>
<path d="M620 1204 c0 -8 5 -12 10 -9 6 3 10 10 10 16 0 5 -4 9 -10 9 -5 0
-10 -7 -10 -16z"/>
<path d="M400 1165 c0 -8 5 -15 10 -15 6 0 10 7 10 15 0 8 -4 15 -10 15 -5 0
-10 -7 -10 -15z"/>
<path d="M425 1130 c-3 -5 -2 -10 4 -10 6 0 8 -7 5 -15 -4 -8 -1 -15 5 -15 13
0 15 36 2 45 -5 3 -12 1 -16 -5z"/>
<path d="M400 1074 c0 -9 31 -37 36 -32 9 9 -8 38 -22 38 -8 0 -14 -3 -14 -6z"/>
<path d="M455 1069 c-5 -7 -1 -16 9 -21 9 -5 17 -21 17 -36 1 -20 3 -22 6 -6
5 26 -22 80 -32 63z"/>
<path d="M399 1013 c-1 -16 -3 -62 -5 -103 -2 -45 0 -69 5 -61 9 13 13 191 5
191 -2 0 -5 -12 -5 -27z"/>
<path d="M470 960 c-11 -7 -12 -12 -4 -20 8 -8 13 -6 17 9 3 12 4 21 4 21 -1
0 -9 -5 -17 -10z"/>
<path d="M560 835 c0 -19 4 -35 8 -35 4 0 6 16 4 35 -2 19 -6 35 -8 35 -2 0
-4 -16 -4 -35z"/>
<path d="M432 793 c9 -2 19 -12 21 -21 3 -12 5 -10 6 6 1 17 -4 22 -21 21 -16
-1 -18 -3 -6 -6z"/>
<path d="M420 770 c0 -5 5 -10 11 -10 5 0 7 5 4 10 -3 6 -8 10 -11 10 -2 0 -4
-4 -4 -10z"/>
<path d="M472 750 c0 -19 2 -27 5 -17 2 9 2 25 0 35 -3 9 -5 1 -5 -18z"/>
<path d="M400 735 c0 -8 4 -16 8 -19 11 -7 38 11 29 20 -13 14 -37 13 -37 -1z"/>
<path d="M427 703 c-10 -10 -8 -25 2 -18 6 3 18 -4 29 -15 l19 -20 -1 24 c-1
14 -6 29 -10 33 -5 4 -6 2 -2 -4 4 -7 2 -13 -3 -13 -6 0 -11 5 -11 10 0 11
-13 13 -23 3z"/>
<path d="M590 640 c-9 -6 -10 -10 -3 -10 6 0 15 5 18 10 8 12 4 12 -15 0z"/>
<path d="M600 1006 c0 -13 7 -26 15 -30 11 -4 15 1 15 18 0 13 -7 26 -15 30
-11 4 -15 -1 -15 -18z"/>
<path d="M1118 953 c7 -3 16 -2 19 1 4 3 -2 6 -13 5 -11 0 -14 -3 -6 -6z"/>
<path d="M1407 923 c-14 -13 -7 -23 16 -22 19 1 19 2 3 6 -15 4 -16 7 -5 14 8
5 9 9 3 9 -6 0 -14 -3 -17 -7z"/>
<path d="M1320 909 c0 -5 5 -7 10 -4 6 3 10 8 10 11 0 2 -4 4 -10 4 -5 0 -10
-5 -10 -11z"/>
<path d="M1360 916 c0 -2 7 -7 16 -10 8 -3 12 -2 9 4 -6 10 -25 14 -25 6z"/>
<path d="M1435 884 c-10 -11 -15 -29 -13 -53 2 -29 8 -37 26 -39 33 -5 52 15
52 54 0 23 -6 37 -19 44 -25 13 -27 13 -46 -6z m33 -36 c-6 -18 -25 -21 -25
-3 0 8 7 15 15 15 7 0 12 -5 10 -12z"/>
<path d="M1338 879 c-12 -7 -18 -22 -18 -49 0 -44 10 -55 46 -46 23 6 25 11
22 54 -3 50 -17 61 -50 41z m24 -36 c-6 -2 -10 -9 -6 -14 3 -5 1 -9 -4 -9 -6
0 -12 7 -16 15 -4 11 1 15 17 14 12 0 16 -3 9 -6z"/>
<path d="M1523 835 c0 -22 2 -30 4 -17 2 12 2 30 0 40 -3 9 -5 -1 -4 -23z"/>
<path d="M1286 741 c-4 -5 3 -7 14 -4 23 6 26 13 6 13 -8 0 -17 -4 -20 -9z"/>
<path d="M1314 619 c-3 -6 -15 -9 -25 -6 -11 3 -19 1 -19 -4 0 -5 14 -9 30 -9
20 0 30 5 30 15 0 18 -6 19 -16 4z"/>
<path d="M1450 723 c-81 -8 -80 -7 -80 -77 l0 -63 53 5 c28 2 56 8 60 12 12
11 22 130 11 128 -5 0 -25 -3 -44 -5z m5 -33 c-3 -5 -3 -16 1 -22 6 -9 11 -5
16 12 l7 25 -2 -24 c-2 -30 -37 -39 -37 -10 0 23 -9 24 -38 3 -12 -8 -22 -10
-22 -5 0 6 5 11 11 11 5 0 8 3 6 8 -3 4 11 8 30 10 21 1 32 -2 28 -8z m-25
-40 c0 -5 -9 -8 -19 -7 -15 1 -17 4 -9 14 11 13 28 9 28 -7z m38 -24 c-10 -7
-14 -17 -10 -22 4 -4 0 -3 -9 4 -12 9 -24 10 -41 3 -19 -7 -25 -6 -25 5 0 8 7
12 16 9 9 -2 21 -1 28 3 7 4 23 8 35 9 21 2 22 1 6 -11z"/>
<path d="M1510 710 c0 -5 7 -10 15 -10 8 0 15 5 15 10 0 6 -7 10 -15 10 -8 0
-15 -4 -15 -10z"/>
<path d="M1518 673 c7 -3 16 -2 19 1 4 3 -2 6 -13 5 -11 0 -14 -3 -6 -6z"/>
<path d="M1080 579 c0 -5 5 -7 10 -4 6 3 10 8 10 11 0 2 -4 4 -10 4 -5 0 -10
-5 -10 -11z"/>
<path d="M1200 589 c0 -5 5 -7 10 -4 6 3 10 8 10 11 0 2 -4 4 -10 4 -5 0 -10
-5 -10 -11z"/>
<path d="M515 550 c-3 -5 -2 -10 4 -10 5 0 13 5 16 10 3 6 2 10 -4 10 -5 0
-13 -4 -16 -10z"/>
<path d="M595 510 c-3 -5 7 -8 24 -7 16 1 27 5 24 10 -6 10 -41 9 -48 -3z"/>
<path d="M1260 1640 c0 -5 5 -10 11 -10 5 0 7 5 4 10 -3 6 -8 10 -11 10 -2 0
-4 -4 -4 -10z"/>
<path d="M1219 1583 c4 -16 6 -33 4 -39 -2 -6 5 -14 15 -16 16 -5 18 1 18 38
-1 38 -4 44 -23 44 -19 0 -21 -4 -14 -27z"/>
<path d="M518 1593 c6 -2 18 -2 25 0 6 3 1 5 -13 5 -14 0 -19 -2 -12 -5z"/>
<path d="M608 1593 c6 -2 18 -2 25 0 6 3 1 5 -13 5 -14 0 -19 -2 -12 -5z"/>
<path d="M1285 1590 c-3 -5 -2 -10 4 -10 5 0 13 5 16 10 3 6 2 10 -4 10 -5 0
-13 -4 -16 -10z"/>
<path d="M1330 1580 c-15 -5 -18 -8 -9 -9 19 -1 34 -32 20 -40 -5 -4 -4 -13 3
-23 11 -15 13 -10 12 32 -1 28 -1 50 -1 49 0 -1 -11 -5 -25 -9z"/>
<path d="M591 1564 c0 -11 3 -14 6 -6 3 7 2 16 -1 19 -3 4 -6 -2 -5 -13z"/>
<path d="M485 1561 c-3 -5 -1 -12 5 -16 5 -3 10 1 10 9 0 18 -6 21 -15 7z"/>
<path d="M566 1523 c-6 -14 -5 -15 5 -6 7 7 10 15 7 18 -3 3 -9 -2 -12 -12z"/>
<path d="M400 1516 c0 -2 7 -9 15 -16 12 -10 15 -10 15 4 0 9 -7 16 -15 16 -8
0 -15 -2 -15 -4z"/>
<path d="M450 1510 c0 -5 5 -10 10 -10 6 0 10 5 10 10 0 6 -4 10 -10 10 -5 0
-10 -4 -10 -10z"/>
<path d="M435 1470 c-3 -6 1 -7 9 -4 18 7 21 14 7 14 -6 0 -13 -4 -16 -10z"/>
<path d="M400 1420 c0 -11 2 -20 4 -20 2 0 6 9 9 20 3 11 1 20 -4 20 -5 0 -9
-9 -9 -20z"/>
<path d="M1563 1413 c9 -9 20 -13 24 -9 4 4 1 11 -7 16 -25 16 -35 11 -17 -7z"/>
<path d="M1560 1374 c0 -8 5 -12 10 -9 6 4 8 11 5 16 -9 14 -15 11 -15 -7z"/>
<path d="M320 1311 c0 -6 5 -13 10 -16 6 -3 10 1 10 9 0 9 -4 16 -10 16 -5 0
-10 -4 -10 -9z"/>
<path d="M362 1300 c0 -14 2 -19 5 -12 2 6 2 18 0 25 -3 6 -5 1 -5 -13z"/>
<path d="M932 1290 c0 -19 2 -27 5 -17 2 9 2 25 0 35 -3 9 -5 1 -5 -18z"/>
<path d="M320 1265 c0 -8 5 -15 10 -15 6 0 10 7 10 15 0 8 -4 15 -10 15 -5 0
-10 -7 -10 -15z"/>
<path d="M942 1225 c0 -16 2 -22 5 -12 2 9 2 23 0 30 -3 6 -5 -1 -5 -18z"/>
<path d="M332 1205 c0 -16 2 -22 5 -12 2 9 2 23 0 30 -3 6 -5 -1 -5 -18z"/>
<path d="M1651 1184 c0 -11 3 -14 6 -6 3 7 2 16 -1 19 -3 4 -6 -2 -5 -13z"/>
<path d="M1622 1180 c0 -8 4 -26 8 -40 6 -20 8 -21 8 -5 0 11 -3 29 -8 40 -5
12 -8 14 -8 5z"/>
<path d="M1661 1124 c0 -11 3 -14 6 -6 3 7 2 16 -1 19 -3 4 -6 -2 -5 -13z"/>
<path d="M927 1113 c-11 -10 -8 -51 3 -58 6 -3 17 0 25 9 19 19 19 27 0 20 -8
-4 -15 -1 -15 5 0 6 5 11 11 11 5 0 7 5 4 10 -7 12 -19 13 -28 3z"/>
<path d="M1641 1074 c0 -11 3 -14 6 -6 3 7 2 16 -1 19 -3 4 -6 -2 -5 -13z"/>
<path d="M934 920 c0 -69 1 -97 3 -62 2 34 2 90 0 125 -2 34 -3 6 -3 -63z"/>
<path d="M1663 917 l-1 -82 10 74 c5 41 5 77 1 82 -4 4 -9 -29 -10 -74z"/>
<path d="M1671 814 c0 -11 3 -14 6 -6 3 7 2 16 -1 19 -3 4 -6 -2 -5 -13z"/>
<path d="M911 704 c0 -27 4 -71 8 -99 7 -39 8 -30 6 43 -2 52 -6 96 -9 99 -3
4 -6 -16 -5 -43z"/>
<path d="M1660 730 c0 -5 5 -10 10 -10 6 0 10 5 10 10 0 6 -4 10 -10 10 -5 0
-10 -4 -10 -10z"/>
<path d="M321 714 c0 -11 3 -14 6 -6 3 7 2 16 -1 19 -3 4 -6 -2 -5 -13z"/>
<path d="M1641 704 c0 -11 3 -14 6 -6 3 7 2 16 -1 19 -3 4 -6 -2 -5 -13z"/>
<path d="M325 660 c-3 -5 -1 -19 5 -30 15 -28 21 -25 10 4 -6 17 -5 26 3 30 9
3 9 5 0 5 -6 1 -15 -3 -18 -9z"/>
<path d="M1637 626 c-4 -10 -7 -25 -6 -34 0 -11 4 -9 10 7 5 13 8 29 6 35 -2
5 -6 2 -10 -8z"/>
<path d="M1666 625 c-3 -9 -6 -26 -5 -38 1 -14 4 -9 9 13 9 37 7 52 -4 25z"/>
<path d="M345 580 c-4 -12 -5 -24 -2 -27 3 -2 8 5 12 17 4 12 5 24 2 27 -3 2
-8 -5 -12 -17z"/>
<path d="M321 534 c0 -11 3 -14 6 -6 3 7 2 16 -1 19 -3 4 -6 -2 -5 -13z"/>
<path d="M383 508 c-35 -44 -82 -241 -61 -254 4 -3 8 6 8 20 0 13 6 31 13 38
7 7 12 30 11 50 -1 25 5 45 17 59 11 12 17 30 14 39 -3 10 1 23 10 30 17 14
20 30 6 30 -5 0 -13 -6 -18 -12z"/>
<path d="M1475 510 c-8 -13 15 -13 35 0 12 8 11 10 -7 10 -12 0 -25 -4 -28
-10z"/>
<path d="M1356 501 c-4 -5 3 -7 14 -4 23 6 26 13 6 13 -8 0 -17 -4 -20 -9z"/>
<path d="M1420 501 c0 -16 -52 -21 -110 -12 -35 6 -61 5 -70 -1 -13 -8 -13 -9
1 -5 9 3 44 -1 78 -9 45 -11 67 -12 76 -4 13 11 45 4 56 -13 3 -5 9 -2 12 7 4
9 3 15 -1 15 -4 -1 -16 -1 -27 0 -18 2 -18 3 5 16 25 14 25 14 3 15 -13 0 -23
-4 -23 -9z"/>
<path d="M720 470 c0 -5 10 -10 23 -10 18 0 19 2 7 10 -19 13 -30 13 -30 0z"/>
<path d="M1492 468 c-7 -7 -12 -18 -12 -26 0 -7 -4 -10 -10 -7 -5 3 -10 1 -10
-4 0 -6 -5 -11 -11 -11 -5 0 -7 5 -3 12 4 7 3 8 -4 4 -7 -4 -12 -13 -12 -21 0
-10 -12 -14 -42 -13 -57 2 -178 -9 -201 -17 -9 -4 -30 -5 -46 -3 -18 3 -27 0
-25 -7 3 -7 -22 -12 -72 -14 -66 -2 -76 0 -71 13 3 8 2 18 -2 21 -5 2 -12 -7
-15 -20 -4 -15 -11 -23 -17 -19 -8 4 -7 10 0 17 17 17 13 31 -4 17 -9 -7 -15
-23 -13 -34 3 -18 10 -21 58 -21 56 0 83 3 255 31 55 8 126 15 159 15 49 -1
57 1 52 14 -3 9 -2 14 3 11 4 -3 24 -1 43 4 30 9 35 14 35 40 0 31 -14 39 -35
18z m25 -34 c-3 -3 -12 -4 -19 -1 -8 3 -5 6 6 6 11 1 17 -2 13 -5z"/>
<path d="M540 460 c-23 -7 -23 -8 -3 -9 12 -1 23 -5 25 -11 2 -6 8 -6 18 0 13
8 12 10 -3 10 -10 0 -15 5 -12 10 3 6 5 10 3 9 -2 -1 -14 -5 -28 -9z"/>
<path d="M778 453 c6 -2 18 -2 25 0 6 3 1 5 -13 5 -14 0 -19 -2 -12 -5z"/>
<path d="M1095 450 c-3 -5 -2 -10 4 -10 5 0 13 5 16 10 3 6 2 10 -4 10 -5 0
-13 -4 -16 -10z"/>
<path d="M590 430 c-12 -8 -9 -12 18 -22 17 -7 32 -18 32 -26 0 -7 4 -11 10
-7 12 7 2 36 -18 53 -19 14 -22 15 -42 2z m40 -10 c8 -5 11 -10 5 -10 -5 0
-17 5 -25 10 -8 5 -10 10 -5 10 6 0 17 -5 25 -10z"/>
<path d="M847 426 c-9 -24 -9 -28 3 -21 6 4 9 1 8 -6 -2 -7 6 -14 17 -16 11
-3 16 -1 10 4 -6 4 -15 19 -21 32 -9 22 -11 23 -17 7z"/>
<path d="M1368 433 c7 -3 16 -2 19 1 4 3 -2 6 -13 5 -11 0 -14 -3 -6 -6z"/>
<path d="M1050 405 c-9 -11 -10 -19 -3 -26 14 -14 53 6 53 26 0 20 -34 19 -50
0z"/>
<path d="M690 379 c0 -5 5 -7 10 -4 6 3 10 8 10 11 0 2 -4 4 -10 4 -5 0 -10
-5 -10 -11z"/>
<path d="M815 380 c3 -5 10 -10 16 -10 5 0 9 5 9 10 0 6 -7 10 -16 10 -8 0
-12 -4 -9 -10z"/>
<path d="M1483 379 c-13 -5 -23 -11 -23 -15 0 -3 7 -4 15 0 9 3 15 0 15 -10 0
-17 30 -15 45 3 8 9 16 7 34 -7 13 -11 19 -20 15 -20 -5 0 -3 -4 5 -9 12 -8
12 -12 2 -25 -7 -9 -10 -23 -7 -33 4 -9 2 -20 -5 -24 -13 -8 -21 -156 -9 -164
4 -3 6 -14 3 -24 -3 -11 0 -28 6 -38 9 -14 10 0 7 61 -4 71 -3 79 15 83 22 6
27 58 7 66 -10 4 -10 8 -1 14 12 9 14 83 1 83 -4 0 -8 8 -8 19 0 10 -6 23 -12
28 -19 15 -80 22 -105 12z"/>
<path d="M722 360 c0 -14 2 -19 5 -12 2 6 2 18 0 25 -3 6 -5 1 -5 -13z"/>
<path d="M617 349 c7 -7 15 -10 18 -7 3 3 -2 9 -12 12 -14 6 -15 5 -6 -5z"/>
<path d="M777 353 c-15 -14 -6 -41 16 -47 58 -15 127 -2 127 25 0 20 -126 39
-143 22z m112 -29 c2 -2 -14 -4 -37 -4 -22 0 -43 4 -46 9 -6 8 73 3 83 -5z"/>
<path d="M1370 350 c-9 -6 -10 -10 -3 -10 6 0 15 5 18 10 8 12 4 12 -15 0z"/>
<path d="M1298 343 c7 -3 16 -2 19 1 4 3 -2 6 -13 5 -11 0 -14 -3 -6 -6z"/>
<path d="M1671 334 c0 -11 3 -14 6 -6 3 7 2 16 -1 19 -3 4 -6 -2 -5 -13z"/>
<path d="M1233 333 c9 -2 25 -2 35 0 9 3 1 5 -18 5 -19 0 -27 -2 -17 -5z"/>
<path d="M648 323 c7 -3 16 -2 19 1 4 3 -2 6 -13 5 -11 0 -14 -3 -6 -6z"/>
<path d="M1128 323 c7 -3 16 -2 19 1 4 3 -2 6 -13 5 -11 0 -14 -3 -6 -6z"/>
<path d="M1003 303 c15 -2 37 -2 50 0 12 2 0 4 -28 4 -27 0 -38 -2 -22 -4z"/>
<path d="M1505 300 c-3 -5 -1 -10 4 -10 6 0 11 5 11 10 0 6 -2 10 -4 10 -3 0
-8 -4 -11 -10z"/>
<path d="M642 270 c0 -19 2 -27 5 -17 2 9 2 25 0 35 -3 9 -5 1 -5 -18z"/>
<path d="M1550 290 c0 -5 5 -10 10 -10 6 0 10 5 10 10 0 6 -4 10 -10 10 -5 0
-10 -4 -10 -10z"/>
<path d="M1440 280 c0 -5 6 -10 14 -10 8 0 18 5 21 10 3 6 -3 10 -14 10 -12 0
-21 -4 -21 -10z"/>
<path d="M1360 270 c0 -5 7 -10 15 -10 8 0 15 5 15 10 0 6 -7 10 -15 10 -8 0
-15 -4 -15 -10z"/>
<path d="M704 255 c-18 -14 -17 -14 15 -15 29 0 32 2 21 15 -15 18 -12 18 -36
0z"/>
<path d="M935 260 c3 -5 11 -10 16 -10 6 0 7 5 4 10 -3 6 -11 10 -16 10 -6 0
-7 -4 -4 -10z"/>
<path d="M1495 260 c3 -5 10 -10 16 -10 5 0 9 5 9 10 0 6 -7 10 -16 10 -8 0
-12 -4 -9 -10z"/>
<path d="M828 253 c6 -2 18 -2 25 0 6 3 1 5 -13 5 -14 0 -19 -2 -12 -5z"/>
<path d="M310 198 c0 -49 5 -47 14 5 4 23 3 37 -4 37 -5 0 -10 -19 -10 -42z"/>
<path d="M1158 228 c9 -9 15 -9 24 0 9 9 7 12 -12 12 -19 0 -21 -3 -12 -12z"/>
<path d="M1310 210 c0 -16 5 -30 10 -30 6 0 10 14 10 30 0 17 -4 30 -10 30 -5
0 -10 -13 -10 -30z"/>
<path d="M1200 204 c0 -14 4 -23 10 -19 6 3 10 15 10 26 0 10 -4 19 -10 19 -5
0 -10 -12 -10 -26z"/>
<path d="M710 190 c0 -20 -5 -30 -15 -30 -8 0 -15 -4 -15 -10 0 -5 10 -9 23
-8 19 2 22 7 19 40 -5 45 -12 50 -12 8z"/>
<path d="M1444 206 c-8 -22 3 -33 18 -18 9 9 9 15 0 24 -9 9 -13 7 -18 -6z"/>
<path d="M1120 181 c0 -12 5 -21 10 -21 6 0 10 6 10 14 0 8 -4 18 -10 21 -5 3
-10 -3 -10 -14z"/>
<path d="M1465 180 c-3 -5 -18 -10 -33 -10 -18 0 -23 -3 -16 -10 7 -7 25 -7
49 -3 32 7 35 10 22 21 -10 9 -17 10 -22 2z"/>
<path d="M940 170 c-13 -8 -12 -10 3 -10 9 0 17 5 17 10 0 12 -1 12 -20 0z"/>
<path d="M1520 170 c0 -5 5 -10 11 -10 5 0 7 5 4 10 -3 6 -8 10 -11 10 -2 0
-4 -4 -4 -10z"/>
<path d="M768 163 c6 -2 18 -2 25 0 6 3 1 5 -13 5 -14 0 -19 -2 -12 -5z"/>
<path d="M1185 160 c-4 -6 -2 -10 4 -10 5 0 8 -15 7 -32 -2 -18 -1 -24 1 -13
3 11 9 24 14 30 5 5 9 12 9 16 0 12 -29 19 -35 9z"/>
<path d="M1317 163 c-3 -5 -4 -18 -2 -29 2 -10 4 -26 5 -34 1 -8 6 0 12 19 9
32 -2 65 -15 44z"/>
<path d="M1268 138 c-14 -17 -15 -24 -6 -30 17 -10 30 5 26 31 l-3 20 -17 -21z"/>
<path d="M1358 148 c5 -5 16 -8 23 -6 8 3 3 7 -10 11 -17 4 -21 3 -13 -5z"/>
<path d="M1600 110 c0 -20 5 -30 14 -30 12 0 13 6 5 30 -6 17 -13 30 -15 30
-2 0 -4 -13 -4 -30z"/>
<path d="M1521 94 c0 -11 3 -14 6 -6 3 7 2 16 -1 19 -3 4 -6 -2 -5 -13z"/>
<path d="M640 90 c0 -5 12 -10 28 -9 24 0 25 1 7 9 -27 12 -35 12 -35 0z"/>
<path d="M1440 90 c0 -5 -7 -10 -15 -10 -10 0 -15 -10 -15 -30 0 -21 5 -30 16
-30 13 0 15 6 10 28 l-7 27 18 -27 c12 -17 23 -24 31 -19 10 6 9 15 -5 39 -18
31 -33 41 -33 22z"/>
<path d="M1286 58 c-9 -34 -8 -38 9 -38 10 0 15 10 15 30 0 35 -15 40 -24 8z"/>
<path d="M1330 51 c0 -37 16 -48 30 -21 7 13 7 20 0 20 -5 0 -10 7 -10 15 0 8
-4 15 -10 15 -5 0 -10 -13 -10 -29z"/>
<path d="M1203 35 c0 -20 4 -30 8 -24 4 7 6 21 3 32 -6 33 -11 29 -11 -8z"/>
</g>
</svg>
