<?xml version="1.0" standalone="no"?>
<!DOCTYPE svg PUBLIC "-//W3C//DTD SVG 20010904//EN"
 "http://www.w3.org/TR/2001/REC-SVG-20010904/DTD/svg10.dtd">
<svg version="1.0" xmlns="http://www.w3.org/2000/svg"
 width="128.000000pt" height="128.000000pt" viewBox="0 0 128.000000 128.000000"
 preserveAspectRatio="xMidYMid meet">
<metadata>
Created by potrace 1.16, written by Peter Selinger 2001-2019
</metadata>
<g transform="translate(0.000000,128.000000) scale(0.100000,-0.100000)"
fill="#000000" stroke="none">
<path d="M0 1139 c0 -7 14 -10 35 -7 31 3 35 1 35 -18 0 -13 5 -26 10 -29 6
-4 1 -18 -14 -36 -44 -52 -57 -118 -57 -287 0 -83 3 -157 6 -162 3 -6 0 -10
-7 -10 -8 0 -9 -3 -2 -8 5 -4 15 -45 22 -92 16 -119 21 -139 43 -190 46 -105
106 -134 324 -156 87 -9 515 -11 515 -3 0 4 27 9 60 13 120 14 187 51 224 125
23 44 56 176 56 221 0 11 4 20 8 20 5 0 9 99 9 220 1 126 -3 220 -8 220 -5 0
-9 5 -9 11 0 5 5 7 10 4 6 -4 10 26 10 84 l0 90 -635 1 c-455 0 -635 -3 -635
-11z m145 -19 c0 -7 -6 -15 -12 -17 -8 -3 -13 4 -13 17 0 13 5 20 13 18 6 -3
12 -11 12 -18z m30 10 c3 -5 1 -10 -4 -10 -6 0 -11 5 -11 10 0 6 2 10 4 10 3
0 8 -4 11 -10z m740 0 c200 -16 265 -45 308 -140 52 -112 23 -558 -44 -696
-26 -55 -81 -89 -175 -109 -98 -21 -429 -30 -595 -16 -267 22 -315 58 -354
261 -23 123 -36 362 -25 458 15 131 48 180 145 212 34 11 104 24 156 29 132
12 442 12 584 1z m213 1 c6 -1 12 -6 12 -11 0 -6 -11 -8 -27 -4 -36 9 -56 26
-23 20 14 -2 31 -5 38 -5z m114 -1 c5 0 9 -19 8 -42 -1 -24 -1 -45 0 -48 5
-15 6 -50 1 -49 -12 1 -71 99 -71 118 0 21 17 32 38 25 8 -2 18 -4 24 -4z
m-1139 -20 c3 -11 1 -23 -4 -26 -5 -3 -9 6 -9 20 0 31 6 34 13 6z m1054 -2
c-3 -8 -6 -5 -6 6 -1 11 2 17 5 13 3 -3 4 -12 1 -19z"/>
<path d="M325 1100 c-151 -17 -220 -59 -246 -152 -17 -56 -16 -355 0 -466 18
-127 46 -206 82 -236 17 -14 36 -26 42 -26 7 0 -3 10 -20 21 -18 12 -33 25
-33 30 0 14 9 11 37 -11 34 -27 44 -25 30 4 -8 16 -14 20 -19 13 -4 -7 -14 -2
-28 16 -12 15 -25 25 -29 22 -20 -12 -52 209 -54 381 -3 203 26 307 93 341 46
23 95 41 125 48 l31 6 43 -187 c73 -319 93 -363 174 -385 58 -16 176 -7 210
16 16 10 37 35 48 57 17 34 92 323 116 448 9 44 10 45 43 42 19 -2 40 -7 45
-11 6 -4 31 -15 57 -25 58 -21 81 -55 104 -156 26 -118 13 -390 -27 -537 -6
-24 -15 -41 -18 -38 -4 2 -14 -5 -21 -16 -8 -10 -20 -19 -26 -19 -7 0 -14 -3
-17 -7 -2 -5 -2 -2 0 6 2 7 -5 20 -14 27 -16 12 -14 14 22 15 22 1 32 3 21 6
-26 7 -106 -6 -106 -18 0 -5 11 -9 25 -9 21 0 25 -5 25 -30 0 -37 5 -37 54 -4
34 24 37 24 27 5 -16 -29 -69 -55 -85 -42 -7 6 -15 8 -18 5 -3 -2 -18 -7 -33
-10 -27 -5 -27 -4 -21 38 19 133 38 361 50 603 2 40 2 40 39 37 22 -2 37 1 37
7 0 6 -17 11 -38 11 -31 0 -38 4 -38 20 0 16 7 20 38 20 21 0 38 5 38 10 0 6
-16 10 -35 10 -19 0 -35 5 -35 10 0 6 13 8 30 5 25 -4 30 -2 30 15 0 11 -4 20
-10 20 -5 0 -10 -4 -10 -10 0 -5 -9 -10 -20 -10 -25 0 -27 20 -2 21 13 0 14 2
2 6 -8 4 -20 13 -26 21 -9 12 -13 -15 -18 -114 -10 -176 -45 -631 -52 -672 -6
-30 -28 -52 -53 -52 -6 0 -7 7 -4 17 4 11 3 14 -5 9 -7 -4 -12 -14 -12 -22 0
-34 -20 -9 -35 43 -46 169 -63 187 -179 191 -97 5 -147 -12 -169 -55 -8 -15
-25 -62 -37 -103 -12 -41 -24 -81 -26 -89 -3 -9 -8 -10 -17 -4 -6 6 -24 13
-39 17 -21 5 -28 14 -33 39 -14 87 -47 472 -53 631 l-7 178 -25 -21 c-14 -12
-19 -20 -11 -19 8 2 14 -8 16 -26 4 -27 3 -28 -31 -23 -18 3 -34 2 -34 -4 0
-5 16 -9 35 -9 l35 0 0 -90 c0 -49 -1 -93 -2 -97 -2 -4 -20 -6 -40 -4 -22 1
-38 -2 -38 -8 0 -6 19 -11 44 -11 l44 0 4 -71 c2 -39 1 -72 -2 -73 -3 -1 -23
1 -45 5 l-40 6 39 2 c22 0 37 3 34 7 -3 3 -40 2 -82 -2 -61 -5 -76 -10 -75
-23 0 -10 2 -12 6 -3 6 14 83 17 83 2 0 -5 20 -10 45 -10 l45 0 1 -37 c0 -21
2 -54 4 -73 7 -54 14 -119 21 -193 8 -74 20 -91 81 -103 51 -10 69 8 98 98 24
73 52 118 74 118 4 0 6 -13 3 -29 -2 -16 1 -32 7 -35 7 -5 11 7 11 33 0 44
-11 51 -53 30 -21 -10 -21 -9 2 10 19 18 37 21 108 21 91 0 116 -8 134 -43
l12 -22 -25 23 c-39 35 -62 29 -66 -17 -2 -36 0 -39 28 -43 16 -3 30 -1 30 4
0 4 -10 8 -22 8 -17 0 -19 3 -10 12 15 15 16 32 2 23 -5 -3 -10 1 -10 10 0 13
4 14 20 5 25 -14 38 -39 64 -125 26 -85 50 -99 122 -73 24 8 44 11 44 6 0 -5
4 -7 10 -3 5 3 26 6 47 7 53 1 99 24 122 62 47 76 75 277 70 502 -4 146 -6
163 -29 209 -28 55 -60 78 -142 102 -61 17 -591 27 -713 13z m185 -54 c0 -68
-5 -75 -51 -69 -25 4 -39 2 -39 -6 0 -6 15 -11 34 -11 60 0 66 6 66 71 0 33 4
59 10 59 6 0 10 -32 10 -75 l0 -74 -52 -4 -53 -4 56 0 c30 0 60 -3 66 -6 8 -5
10 5 7 30 -13 130 -12 133 7 133 17 0 19 -9 19 -88 0 -81 2 -90 25 -112 33
-31 37 -18 33 104 l-3 96 30 0 31 0 -4 -72 c-2 -40 -10 -83 -18 -95 -8 -12
-14 -24 -14 -25 0 -2 38 -2 85 0 51 2 85 8 85 14 0 7 -24 9 -70 6 -38 -3 -70
-1 -70 3 0 5 5 9 10 9 6 0 10 33 10 80 0 59 3 80 13 80 10 0 12 -16 9 -65 -3
-44 -1 -65 7 -65 7 0 11 23 11 63 0 56 2 63 20 63 17 0 20 -6 18 -41 -1 -37
-2 -37 -5 -7 -6 44 -23 30 -23 -19 0 -44 2 -46 29 -23 15 13 18 25 14 50 l-6
34 51 0 c37 0 50 -4 47 -12 -2 -7 -27 -98 -55 -201 -65 -245 -93 -297 -156
-297 -19 0 -22 5 -20 38 6 87 1 81 59 85 l52 3 -62 2 -62 2 -4 -72 c-3 -71 -3
-71 -5 19 -2 83 -4 92 -23 98 -29 10 -149 11 -149 3 0 -5 34 -8 75 -8 l75 0 0
-91 c0 -57 -4 -88 -10 -84 -5 3 -10 36 -10 72 0 37 -3 63 -7 60 -3 -4 -5 -34
-4 -67 1 -49 -1 -60 -15 -60 -13 0 -15 7 -9 40 8 47 4 50 -20 14 -9 -15 -12
-23 -6 -20 7 4 11 -1 11 -14 0 -19 -1 -20 -24 -5 -13 9 -34 39 -46 66 -17 41
-80 262 -114 401 -6 27 -6 27 56 31 35 2 66 4 71 5 4 1 7 -18 7 -42z m120 -41
c0 -50 -4 -85 -10 -85 -6 0 -10 35 -10 85 0 50 4 85 10 85 6 0 10 -35 10 -85z
m-95 -441 c44 -18 156 -18 200 0 19 8 44 30 56 48 17 27 19 29 13 8 -12 -42
-34 -68 -66 -79 -38 -13 -168 -14 -201 -2 -28 11 -61 53 -71 91 -4 16 1 12 14
-13 13 -24 34 -44 55 -53z"/>
<path d="M430 1051 c0 -11 5 -23 10 -26 6 -4 10 5 10 19 0 14 -4 26 -10 26 -5
0 -10 -9 -10 -19z"/>
<path d="M467 1063 c-13 -13 -7 -61 9 -67 9 -3 17 -6 18 -6 1 0 0 18 -2 40 -4
38 -11 48 -25 33z"/>
<path d="M835 1057 c-4 -10 -5 -21 -1 -24 10 -10 18 4 13 24 -4 17 -4 17 -12
0z"/>
<path d="M840 1010 c0 -5 4 -10 9 -10 6 0 13 5 16 10 3 6 -1 10 -9 10 -9 0
-16 -4 -16 -10z"/>
<path d="M415 1000 c4 -6 11 -8 16 -5 14 9 11 15 -7 15 -8 0 -12 -5 -9 -10z"/>
<path d="M813 983 c9 -2 25 -2 35 0 9 3 1 5 -18 5 -19 0 -27 -2 -17 -5z"/>
<path d="M795 953 c-75 -6 -81 -23 -7 -23 48 0 62 3 62 15 0 8 -1 14 -2 13 -2
-1 -25 -3 -53 -5z"/>
<path d="M440 888 c0 -5 37 -7 83 -7 85 2 75 6 -26 11 -31 2 -57 0 -57 -4z"/>
<path d="M661 876 c7 -7 159 -10 166 -3 3 4 -33 7 -82 7 -49 0 -86 -2 -84 -4z"/>
<path d="M543 853 c53 -2 97 -8 97 -13 0 -5 -39 -11 -87 -13 -49 -2 -9 -2 87
1 96 2 179 7 183 11 8 8 -242 22 -328 19 -27 -1 -6 -4 48 -5z"/>
<path d="M637 804 c-4 -4 -42 -6 -86 -5 -54 2 -82 -2 -87 -10 -6 -10 23 -11
131 -6 76 4 158 7 182 7 27 0 42 4 38 10 -7 11 -168 14 -178 4z"/>
<path d="M640 760 c0 -6 33 -10 80 -10 47 0 80 4 80 10 0 6 -33 10 -80 10 -47
0 -80 -4 -80 -10z"/>
<path d="M720 730 l-65 -7 68 -1 c39 -1 67 2 67 8 0 6 -1 9 -2 8 -2 -1 -32 -4
-68 -8z"/>
<path d="M490 718 c0 -5 28 -7 63 -7 67 1 60 6 -15 11 -27 2 -48 0 -48 -4z"/>
<path d="M710 670 c20 -13 60 -13 60 0 0 6 -17 10 -37 10 -28 0 -34 -3 -23
-10z"/>
<path d="M523 663 c9 -2 25 -2 35 0 9 3 1 5 -18 5 -19 0 -27 -2 -17 -5z"/>
<path d="M690 626 c0 -36 11 -44 38 -27 11 7 11 9 -2 14 -9 4 -16 13 -16 21 0
8 -4 18 -10 21 -6 4 -10 -8 -10 -29z"/>
<path d="M728 638 c9 -9 15 -9 24 0 9 9 7 12 -12 12 -19 0 -21 -3 -12 -12z"/>
<path d="M200 1015 c0 -8 9 -15 20 -15 11 0 20 2 20 5 0 2 -9 9 -20 15 -16 9
-20 8 -20 -5z"/>
<path d="M170 1006 c0 -9 5 -16 10 -16 6 0 10 4 10 9 0 6 -4 13 -10 16 -5 3
-10 -1 -10 -9z"/>
<path d="M1090 1004 c0 -8 5 -12 10 -9 6 4 8 11 5 16 -9 14 -15 11 -15 -7z"/>
<path d="M145 970 c-3 -5 1 -10 9 -10 9 0 16 5 16 10 0 6 -4 10 -9 10 -6 0
-13 -4 -16 -10z"/>
<path d="M155 940 c-29 -7 -29 -8 -5 -10 21 -2 22 -3 5 -7 -47 -11 -35 -23 23
-22 66 1 84 15 30 22 l-33 4 33 1 c17 1 32 7 32 12 0 11 -40 11 -85 0z"/>
<path d="M1035 940 c-4 -6 7 -10 24 -10 17 0 31 5 31 10 0 6 -11 10 -24 10
-14 0 -28 -4 -31 -10z"/>
<path d="M1103 935 c0 -9 10 -15 23 -15 17 0 22 4 18 15 -4 8 -14 15 -23 15
-10 0 -18 -7 -18 -15z"/>
<path d="M145 880 l-30 -8 33 -1 c17 0 32 4 32 9 0 6 -1 9 -2 9 -2 -1 -16 -5
-33 -9z"/>
<path d="M1030 882 c0 -15 119 -27 133 -13 8 8 4 11 -15 11 -14 0 -46 3 -72 6
-29 4 -46 3 -46 -4z"/>
<path d="M196 855 c-4 -11 1 -15 19 -15 16 0 25 6 25 15 0 8 -9 15 -19 15 -10
0 -21 -7 -25 -15z"/>
<path d="M133 853 c9 -2 25 -2 35 0 9 3 1 5 -18 5 -19 0 -27 -2 -17 -5z"/>
<path d="M1063 853 c15 -2 27 -8 27 -14 0 -5 18 -9 40 -9 22 0 40 5 40 10 0 6
-11 10 -24 10 -13 0 -43 2 -67 4 -24 2 -32 1 -16 -1z"/>
<path d="M100 830 c0 -5 18 -10 40 -10 22 0 40 5 40 10 0 6 -18 10 -40 10 -22
0 -40 -4 -40 -10z"/>
<path d="M1055 810 l-40 -7 40 -4 c89 -7 125 -5 125 8 0 14 -55 16 -125 3z"/>
<path d="M143 803 c-24 -2 -43 -8 -43 -13 0 -9 58 -6 115 8 l40 10 -35 -1
c-19 0 -54 -2 -77 -4z"/>
<path d="M1030 770 c0 -5 11 -10 24 -10 14 0 28 5 31 10 4 6 -7 10 -24 10 -17
0 -31 -4 -31 -10z"/>
<path d="M1063 753 c-59 -8 -34 -20 42 -21 60 -2 75 1 75 13 0 15 -38 18 -117
8z"/>
<path d="M100 740 c0 -5 13 -10 29 -10 15 0 49 -3 75 -6 33 -5 46 -3 46 6 0 8
-10 11 -30 8 -17 -3 -33 -1 -36 4 -7 12 -84 10 -84 -2z"/>
<path d="M100 696 c0 -10 20 -14 81 -15 53 -1 79 1 75 8 -4 6 -20 8 -36 4 -19
-3 -30 -1 -30 6 0 6 -18 11 -45 11 -31 0 -45 -4 -45 -14z"/>
<path d="M1023 696 c4 -10 7 -20 7 -22 0 -2 9 -4 20 -4 11 0 20 4 20 8 0 5 25
7 55 4 37 -3 55 -1 55 7 0 6 -12 11 -27 11 -16 0 -52 3 -82 7 -49 6 -54 4 -48
-11z"/>
<path d="M155 660 c-34 -6 -36 -7 -10 -8 17 0 48 3 70 7 33 7 35 9 10 8 -16 0
-48 -3 -70 -7z"/>
<path d="M1090 660 c0 -5 20 -10 45 -10 25 0 45 5 45 10 0 6 -20 10 -45 10
-25 0 -45 -4 -45 -10z"/>
<path d="M1020 620 c0 -9 138 -3 149 6 2 2 -30 4 -72 4 -45 0 -77 -4 -77 -10z"/>
<path d="M1045 599 l-30 -6 30 -4 c23 -4 26 -7 13 -12 -53 -21 -53 -21 -15
-25 20 -2 37 -7 37 -13 0 -5 20 -9 45 -9 25 0 45 5 45 10 0 6 -20 10 -44 10
-41 0 -45 2 -48 28 -3 25 -6 27 -33 21z"/>
<path d="M1108 593 c6 -2 18 -2 25 0 6 3 1 5 -13 5 -14 0 -19 -2 -12 -5z"/>
<path d="M1161 584 c0 -11 3 -14 6 -6 3 7 2 16 -1 19 -3 4 -6 -2 -5 -13z"/>
<path d="M123 583 c-28 -11 -12 -31 28 -35 47 -4 48 -3 42 23 -5 19 -40 25
-70 12z"/>
<path d="M218 573 c6 -2 18 -2 25 0 6 3 1 5 -13 5 -14 0 -19 -2 -12 -5z"/>
<path d="M1113 573 c9 -2 23 -2 30 0 6 3 -1 5 -18 5 -16 0 -22 -2 -12 -5z"/>
<path d="M223 553 c9 -2 23 -2 30 0 6 3 -1 5 -18 5 -16 0 -22 -2 -12 -5z"/>
<path d="M147 523 c24 -2 62 -2 85 0 24 2 5 4 -42 4 -47 0 -66 -2 -43 -4z"/>
<path d="M1010 520 c0 -5 11 -10 25 -10 14 0 25 5 25 10 0 6 -11 10 -25 10
-14 0 -25 -4 -25 -10z"/>
<path d="M1070 510 c0 -5 -13 -10 -30 -10 -16 0 -30 -4 -30 -10 0 -5 14 -10
30 -10 17 0 30 5 30 10 0 6 20 10 45 10 25 0 45 5 45 10 0 6 -20 10 -45 10
-25 0 -45 -4 -45 -10z"/>
<path d="M200 500 c0 -5 -18 -10 -40 -10 l-40 0 21 -21 c12 -12 29 -19 40 -16
10 3 22 1 25 -4 7 -12 64 -11 64 1 0 6 -16 10 -35 10 -24 0 -35 5 -35 15 0 10
11 15 35 15 19 0 35 5 35 10 0 6 -16 10 -35 10 -19 0 -35 -4 -35 -10z"/>
<path d="M523 482 c-6 -4 44 -7 112 -7 68 0 118 3 112 7 -7 4 -57 8 -112 8
-55 0 -105 -4 -112 -8z"/>
<path d="M1000 460 c0 -5 14 -10 30 -10 17 0 39 -5 50 -12 22 -14 72 -1 76 20
1 7 0 9 -2 4 -3 -5 -26 -5 -52 -1 -66 11 -102 11 -102 -1z"/>
<path d="M469 443 c-13 -16 -12 -17 4 -4 16 13 21 21 13 21 -2 0 -10 -8 -17
-17z"/>
<path d="M126 420 c11 -11 32 -14 107 -11 80 2 43 21 -41 21 -52 0 -73 -3 -66
-10z"/>
<path d="M625 422 c-5 -4 -11 -54 -12 -112 l-1 -105 -27 2 c-36 3 -40 8 -27
35 l11 23 1 -25 c2 -18 4 -14 10 15 4 22 7 41 5 43 -1 1 -14 -7 -28 -19 -18
-14 -27 -30 -27 -50 0 -32 -3 -34 -30 -19 -13 7 -21 6 -30 -5 -11 -13 -4 -15
51 -16 35 0 89 -1 119 -1 126 -3 170 1 164 17 -5 11 -11 12 -25 4 -15 -8 -21
-6 -25 6 -4 9 -4 19 0 22 7 7 -23 43 -35 43 -5 0 -7 -17 -6 -37 2 -37 1 -38
-37 -41 l-38 -3 7 115 c7 110 4 126 -20 108z"/>
<path d="M660 420 c0 -5 5 -10 10 -10 6 0 10 5 10 10 0 6 -4 10 -10 10 -5 0
-10 -4 -10 -10z"/>
<path d="M442 393 c-21 -55 -32 -96 -25 -89 9 9 43 109 39 114 -2 1 -8 -10
-14 -25z"/>
<path d="M1025 410 c-30 -6 -30 -6 10 -13 55 -9 103 -9 109 2 3 5 -11 8 -32 8
-21 0 -42 2 -48 4 -5 3 -22 3 -39 -1z"/>
<path d="M822 405 c0 -5 6 -26 13 -45 7 -19 14 -28 14 -20 0 8 -6 29 -14 45
-7 17 -13 26 -13 20z"/>
<path d="M215 390 c3 -5 19 -10 36 -10 16 0 29 5 29 10 0 6 -16 10 -36 10 -21
0 -33 -4 -29 -10z"/>
<path d="M660 355 c0 -25 5 -45 10 -45 6 0 10 20 10 45 0 25 -4 45 -10 45 -5
0 -10 -20 -10 -45z"/>
<path d="M140 370 c0 -5 18 -10 40 -10 22 0 40 5 40 10 0 6 -18 10 -40 10 -22
0 -40 -4 -40 -10z"/>
<path d="M995 370 c-3 -5 -5 -10 -3 -11 2 0 32 -1 68 -3 36 -2 50 -1 33 1 -18
2 -33 8 -33 14 0 12 -57 12 -65 -1z"/>
<path d="M173 333 c9 -2 23 -2 30 0 6 3 -1 5 -18 5 -16 0 -22 -2 -12 -5z"/>
<path d="M220 332 c0 -14 23 -28 45 -28 34 1 23 31 -12 34 -18 2 -33 -1 -33
-6z"/>
<path d="M520 330 c0 -5 15 -10 33 -10 24 0 28 3 17 10 -20 13 -50 13 -50 0z"/>
<path d="M502 280 c-10 -16 -10 -20 1 -20 7 0 13 9 14 20 1 11 1 20 0 20 -1 0
-8 -9 -15 -20z"/>
<path d="M680 286 c0 -8 4 -17 9 -20 10 -7 23 19 14 28 -11 11 -23 6 -23 -8z"/>
<path d="M237 259 c4 -20 1 -34 -6 -38 -7 -5 1 -8 18 -9 17 0 41 -4 52 -7 14
-5 19 -3 15 3 -3 6 -20 13 -37 17 -21 5 -29 11 -25 22 3 8 6 17 6 19 0 2 8 4
17 4 22 0 14 6 -19 14 -26 6 -27 5 -21 -25z"/>
<path d="M750 280 c0 -5 7 -10 16 -10 8 0 12 5 9 10 -3 6 -10 10 -16 10 -5 0
-9 -4 -9 -10z"/>
<path d="M980 280 c0 -5 7 -10 15 -10 8 0 15 -7 15 -16 0 -8 5 -12 10 -9 6 3
10 15 10 26 0 14 -7 19 -25 19 -14 0 -25 -4 -25 -10z"/>
<path d="M270 249 c0 -5 5 -7 10 -4 6 3 10 8 10 11 0 2 -4 4 -10 4 -5 0 -10
-5 -10 -11z"/>
<path d="M380 240 c0 -5 5 -10 11 -10 5 0 7 5 4 10 -3 6 -8 10 -11 10 -2 0 -4
-4 -4 -10z"/>
<path d="M496 241 c-4 -7 -5 -15 -2 -18 9 -9 19 4 14 18 -4 11 -6 11 -12 0z"/>
<path d="M680 240 c0 -5 5 -10 11 -10 5 0 7 5 4 10 -3 6 -8 10 -11 10 -2 0 -4
-4 -4 -10z"/>
<path d="M20 1070 l-25 -8 28 -1 c15 -1 27 4 27 9 0 6 -1 10 -2 9 -2 -1 -14
-5 -28 -9z"/>
<path d="M8 1033 c7 -3 16 -2 19 1 4 3 -2 6 -13 5 -11 0 -14 -3 -6 -6z"/>
<path d="M0 1009 c0 -5 5 -7 10 -4 5 3 10 8 10 11 0 2 -4 4 -10 4 -5 0 -10 -5
-10 -11z"/>
<path d="M1258 453 c-3 -65 -5 -81 -12 -91 -3 -6 0 -12 6 -15 9 -3 7 -7 -5
-12 -17 -7 -17 -8 0 -21 17 -12 17 -13 -4 -14 -27 0 -31 -20 -5 -21 13 0 12
-2 -5 -9 -27 -11 -30 -21 -5 -17 32 4 23 -18 -10 -24 l-33 -6 33 -2 c30 -1 32
-3 32 -36 0 -32 -2 -35 -30 -35 -22 0 -30 5 -31 18 0 14 -2 14 -9 -3 -14 -33
-12 -35 40 -35 l50 0 0 175 c0 96 -2 175 -5 175 -3 0 -6 -12 -7 -27z"/>
<path d="M0 431 c0 -12 5 -21 10 -21 6 0 10 6 10 14 0 8 -4 18 -10 21 -5 3
-10 -3 -10 -14z"/>
<path d="M0 370 c0 -5 7 -10 15 -10 8 0 15 5 15 10 0 6 -7 10 -15 10 -8 0 -15
-4 -15 -10z"/>
<path d="M0 330 c0 -5 9 -10 20 -10 11 0 20 5 20 10 0 6 -9 10 -20 10 -11 0
-20 -4 -20 -10z"/>
<path d="M15 300 c-18 -8 -17 -9 8 -9 16 -1 26 3 22 9 -3 6 -7 10 -8 9 -1 0
-11 -4 -22 -9z"/>
<path d="M18 243 c12 -2 30 -2 40 0 9 3 -1 5 -23 4 -22 0 -30 -2 -17 -4z"/>
<path d="M121 178 c0 -9 -4 -23 -7 -32 -5 -14 7 -16 97 -15 l104 1 -60 12
c-37 8 -65 9 -72 3 -9 -7 -13 -4 -13 7 0 9 -4 16 -10 16 -5 0 -10 -4 -10 -10
0 -20 -19 -10 -23 13 -2 13 -5 15 -6 5z"/>
<path d="M1121 164 c-11 -15 -21 -21 -21 -14 0 8 -6 10 -17 5 -10 -4 -43 -9
-73 -12 -89 -8 -71 -13 44 -13 l106 0 -6 28 c-9 37 -9 37 -33 6z"/>
<path d="M0 140 c0 -5 23 -10 50 -10 28 0 50 5 50 10 0 6 -22 10 -50 10 -27 0
-50 -4 -50 -10z"/>
</g>
</svg>
