<?xml version="1.0" standalone="no"?>
<!DOCTYPE svg PUBLIC "-//W3C//DTD SVG 20010904//EN"
 "http://www.w3.org/TR/2001/REC-SVG-20010904/DTD/svg10.dtd">
<svg version="1.0" xmlns="http://www.w3.org/2000/svg"
 width="100.000000pt" height="100.000000pt" viewBox="0 0 100.000000 100.000000"
 preserveAspectRatio="xMidYMid meet">
<metadata>
Created by potrace 1.16, written by Peter Selinger 2001-2019
</metadata>
<g transform="translate(0.000000,100.000000) scale(0.100000,-0.100000)"
fill="#000000" stroke="none">
<path d="M131 908 c1 -55 5 -50 11 15 2 20 0 37 -4 37 -4 0 -7 -24 -7 -52z"/>
<path d="M160 920 c0 -29 4 -40 15 -40 8 0 15 -9 15 -20 0 -11 -7 -20 -15 -20
-12 0 -15 -18 -15 -100 l0 -100 30 0 c27 0 30 3 30 34 0 19 6 37 13 39 6 3 1
6 -12 6 -17 1 -22 -3 -17 -14 3 -8 1 -25 -4 -37 -6 -17 -9 -2 -9 55 l-1 77 30
0 c21 0 30 -5 30 -16 0 -13 -3 -14 -14 -5 -11 9 -15 6 -20 -15 -4 -14 -5 -29
-1 -32 3 -3 5 2 5 11 0 9 7 17 15 17 13 0 15 -27 15 -180 0 -153 2 -180 15
-180 12 0 15 -18 15 -100 l0 -100 30 0 c17 0 30 5 30 12 0 6 3 9 6 5 3 -3 3
-15 -1 -27 -5 -17 -10 -19 -21 -9 -11 9 -14 8 -14 -5 0 -12 -10 -16 -45 -16
l-45 0 0 -40 0 -40 310 0 310 0 0 80 c0 62 -3 80 -14 80 -8 0 -16 4 -18 8 -1
5 -15 12 -29 15 -24 6 -27 3 -37 -33 -10 -42 -4 -54 22 -44 11 4 16 1 16 -10
0 -9 7 -16 15 -16 8 0 15 9 15 20 0 16 -7 20 -30 20 -23 0 -30 4 -30 20 0 15
7 20 28 20 26 0 30 -5 39 -47 14 -61 2 -92 -38 -91 -29 1 -42 18 -14 18 8 0
15 9 15 20 0 17 -7 20 -45 20 -36 0 -45 4 -45 17 0 13 -3 14 -12 5 -9 -9 -9
-15 0 -24 7 -7 12 -22 12 -35 0 -20 -5 -23 -35 -23 -19 0 -35 5 -35 10 0 6
-13 10 -30 10 -16 0 -30 -4 -30 -10 0 -5 -8 -10 -17 -10 -15 0 -16 2 -3 10 11
7 2 10 -33 10 -30 0 -46 -4 -42 -10 3 -6 -1 -10 -9 -10 -21 0 -21 46 0 54 10
4 13 13 9 26 -6 17 -2 20 28 20 20 0 37 3 40 8 2 4 2 1 0 -6 -1 -8 -3 -20 -3
-28 0 -9 -11 -14 -30 -14 -16 0 -30 -4 -30 -10 0 -14 53 -12 72 2 9 8 18 35
21 68 2 30 2 47 0 38 -8 -31 -33 -21 -33 12 0 17 -4 30 -10 30 -5 0 -10 -4
-10 -10 0 -5 -9 -10 -20 -10 -13 0 -20 -7 -20 -20 0 -11 -7 -20 -15 -20 -11 0
-15 -11 -15 -40 0 -39 -1 -40 -35 -40 -28 0 -35 4 -35 20 0 13 7 20 20 20 18
0 20 7 20 60 0 53 -2 60 -20 60 -17 0 -20 -7 -20 -39 0 -22 5 -41 13 -44 7 -2
8 -8 3 -13 -5 -5 -11 -4 -13 4 -3 6 -11 12 -19 12 -11 0 -14 18 -15 83 -1 47
-4 72 -8 58 -3 -13 -6 -42 -6 -63 0 -21 -3 -38 -7 -38 -5 0 -8 95 -8 212 0
116 -2 209 -5 207 -2 -3 -7 -43 -11 -89 -3 -47 -8 -87 -10 -89 -2 -2 -4 77 -4
177 l0 182 -45 0 c-38 0 -45 3 -45 20 0 16 7 20 30 20 17 0 30 5 30 10 0 6 5
10 11 10 5 0 7 -4 4 -10 -3 -5 -1 -10 4 -10 6 0 11 5 11 10 0 6 30 10 69 10
39 0 73 -4 76 -10 4 -6 -17 -10 -54 -10 -49 0 -61 -3 -61 -16 0 -9 5 -12 12
-8 6 4 85 7 175 6 94 0 163 3 163 9 0 5 -49 9 -110 9 -71 0 -110 4 -110 11 0
7 42 10 125 8 97 -2 123 -5 115 -14 -6 -7 -8 -20 -4 -29 5 -12 0 -16 -17 -16
-17 0 -20 -3 -11 -9 13 -8 35 -128 26 -142 -2 -4 0 -9 5 -11 5 -1 11 -116 13
-255 4 -299 -2 -324 -18 -78 -3 49 -7 92 -10 94 -2 2 -4 -50 -4 -117 0 -115
-1 -122 -20 -122 -17 0 -20 7 -20 40 0 29 -4 40 -15 40 -8 0 -15 9 -15 20 0
19 -7 20 -90 20 -83 0 -90 -1 -90 -20 0 -11 5 -20 11 -20 6 0 8 -9 4 -20 -4
-11 -2 -20 4 -20 6 0 11 9 11 20 0 18 7 20 60 20 53 0 60 -2 60 -20 0 -22 26
-28 33 -7 2 6 2 -12 -1 -40 -4 -44 -2 -53 12 -53 9 0 16 -8 16 -20 0 -16 -7
-20 -30 -20 -21 0 -30 -5 -30 -16 0 -11 6 -14 23 -9 12 4 26 11 31 16 6 5 18
9 28 9 11 0 18 7 18 20 0 11 -7 20 -15 20 -8 0 -15 4 -15 9 0 5 7 11 15 15 9
3 15 0 15 -9 0 -10 10 -15 30 -15 l30 0 -1 168 c0 92 -5 203 -10 247 -5 44
-12 131 -15 193 l-6 112 61 0 c54 0 61 -2 61 -20 0 -17 -7 -20 -45 -20 l-45 0
0 -160 c0 -88 4 -160 8 -160 5 0 10 -32 10 -71 1 -40 4 -74 7 -77 3 -3 5 73 6
169 0 133 3 168 11 149 6 -14 12 -36 14 -49 5 -37 11 -35 16 3 2 20 0 36 -4
36 -4 0 -8 15 -9 33 0 17 -3 26 -6 20 -9 -25 -21 -12 -25 27 -3 33 0 40 14 40
10 0 18 7 18 17 0 14 2 15 13 4 10 -11 10 -14 -1 -18 -17 -6 -15 -43 2 -43 11
0 15 -19 18 -80 3 -71 1 -80 -14 -80 -11 0 -18 -8 -18 -20 0 -12 7 -20 18 -20
15 0 17 -10 13 -97 -2 -54 -6 -90 -8 -80 -6 23 -23 22 -23 -2 0 -11 -5 -21
-11 -23 -7 -2 -7 -12 0 -31 15 -39 14 -80 -1 -74 -7 2 -12 11 -12 20 1 9 -2
14 -7 11 -5 -3 -9 -14 -9 -25 0 -16 7 -19 50 -19 43 0 50 -3 50 -20 0 -11 7
-20 15 -20 8 0 15 9 15 20 0 11 -7 20 -15 20 -12 0 -15 13 -15 55 0 42 -3 55
-15 55 -18 0 -20 -16 -2 -23 6 -3 0 -6 -15 -6 -22 -1 -28 4 -28 19 0 16 7 20
30 20 l30 0 0 220 c0 189 -2 220 -15 220 -8 0 -15 9 -15 20 0 11 7 20 15 20
11 0 15 11 15 40 l0 40 -340 0 -340 0 0 -40z m65 -70 c-3 -5 1 -10 9 -10 9 0
16 5 16 12 0 6 2 9 5 7 9 -10 -8 -49 -21 -49 -8 0 -14 4 -14 9 0 5 -3 16 -6
25 -3 9 -1 16 6 16 6 0 8 -4 5 -10z m62 -380 c0 -16 -6 -30 -12 -30 -7 0 -10
11 -7 30 2 17 8 30 11 30 4 0 8 -13 8 -30z m543 -162 c0 -5 -4 -8 -10 -8 -5 0
-10 10 -10 23 0 18 2 19 10 7 5 -8 10 -18 10 -22z m-509 -68 c-4 -3 -11 -12
-14 -20 -3 -9 -6 -5 -6 11 -1 30 9 44 20 27 4 -7 4 -15 0 -18z m191 -14 c-5
-18 -7 -18 -10 -3 -2 9 -8 17 -13 17 -5 0 -4 6 3 14 16 17 28 2 20 -28z m-142
-76 c0 -5 9 -10 20 -10 11 0 20 -4 20 -10 0 -5 -9 -10 -20 -10 -11 0 -20 -4
-20 -10 0 -5 -13 -10 -30 -10 -16 0 -30 5 -30 10 0 6 11 10 25 10 14 0 25 5
25 11 0 6 -7 8 -16 5 -9 -3 -27 -9 -40 -12 -13 -3 -24 -10 -24 -16 0 -5 -5 -6
-11 -3 -16 11 43 55 74 55 15 0 27 -4 27 -10z m357 -25 c8 -9 13 -19 10 -22
-6 -5 -37 21 -37 31 0 10 11 6 27 -9z m-477 -15 c0 -5 -2 -10 -4 -10 -3 0 -8
5 -11 10 -3 6 -1 10 4 10 6 0 11 -4 11 -10z"/>
<path d="M855 950 c3 -5 13 -10 22 -10 11 0 14 -8 11 -30 -3 -20 0 -30 9 -30
9 0 13 13 13 40 0 38 -2 40 -31 40 -17 0 -28 -4 -24 -10z"/>
<path d="M861 910 c-8 -52 -9 -70 0 -70 5 0 9 -7 9 -16 0 -8 4 -13 9 -9 5 3
12 1 15 -4 4 -5 -4 -11 -16 -13 -21 -3 -22 -7 -17 -43 6 -38 6 -38 8 -7 0 17
6 32 11 32 6 0 10 -30 10 -70 0 -40 -4 -70 -10 -70 -5 0 -10 10 -10 22 0 12
-3 19 -6 15 -9 -9 7 -68 17 -61 5 3 9 1 9 -5 0 -5 -6 -12 -12 -14 -10 -4 -9
-8 2 -17 11 -9 12 -13 3 -17 -17 -6 -19 -283 -2 -283 6 0 9 -9 6 -20 -3 -10
-1 -20 4 -22 4 -2 4 -10 -2 -18 -8 -11 -12 -12 -16 -2 -5 13 -23 7 -23 -9 0
-5 14 -9 30 -9 l30 0 0 320 c0 310 -1 320 -19 320 -16 0 -21 8 -24 43 -2 23
-5 35 -6 27z"/>
<path d="M90 870 c0 -5 5 -10 10 -10 6 0 10 5 10 10 0 6 -4 10 -10 10 -5 0
-10 -4 -10 -10z"/>
<path d="M310 800 c0 -52 4 -80 11 -80 6 0 9 7 5 15 -3 8 -1 25 4 37 11 28 12
21 10 -109 -1 -70 2 -103 10 -103 7 0 9 8 5 20 -4 11 -2 20 4 20 7 0 11 36 11
100 l0 100 35 0 c28 0 35 -4 35 -20 0 -11 7 -20 15 -20 12 0 15 13 15 60 l0
60 -50 0 c-43 0 -50 -3 -50 -20 0 -13 7 -20 20 -20 11 0 20 -7 20 -15 0 -13
-4 -14 -20 -5 -16 9 -20 8 -20 -5 0 -8 -7 -15 -15 -15 -11 0 -15 11 -15 40 0
29 -4 40 -15 40 -12 0 -15 -16 -15 -80z m137 23 c-3 -10 -5 -2 -5 17 0 19 2
27 5 18 2 -10 2 -26 0 -35z"/>
<path d="M500 820 l0 -60 30 0 c23 0 30 4 30 20 0 16 7 20 30 20 l30 0 0 -60
c0 -48 -3 -60 -16 -60 -14 0 -15 -13 -12 -90 1 -50 2 -86 0 -80 -6 18 -32 10
-32 -10 0 -16 7 -20 30 -20 l30 0 0 60 c0 45 4 60 14 60 9 0 12 -7 9 -20 -3
-11 0 -20 6 -20 7 0 11 38 11 120 0 113 -1 120 -20 120 -11 0 -20 5 -20 11 0
6 -7 9 -15 5 -8 -3 -15 -1 -15 4 0 25 -41 1 -52 -30 -4 -10 -8 -7 -13 12 -7
27 8 68 25 68 6 0 10 -7 10 -15 0 -10 10 -15 30 -15 23 0 30 4 30 20 0 18 -7
20 -60 20 l-60 0 0 -60z m134 -182 c8 -5 7 -11 -2 -20 -9 -9 -12 -9 -12 5 0 9
-4 17 -10 17 -5 0 -6 8 -3 17 5 14 8 14 11 2 3 -7 10 -17 16 -21z"/>
<path d="M90 540 l0 -300 35 0 c28 0 35 4 35 20 0 11 7 20 15 20 8 0 15 -9 15
-20 0 -11 -7 -20 -15 -20 -21 0 -19 -37 3 -49 16 -10 16 -10 0 -11 -10 0 -18
5 -18 10 0 6 -16 10 -35 10 l-35 0 0 -60 0 -60 35 0 c34 0 35 1 35 40 0 38 2
40 30 40 19 0 30 5 30 14 0 9 8 12 25 8 15 -2 25 0 25 7 0 6 -17 11 -40 11
-33 0 -40 3 -40 20 0 16 7 20 30 20 23 0 30 4 30 20 0 11 -7 20 -15 20 -8 0
-15 9 -15 20 0 14 7 20 23 20 21 0 22 4 18 38 -5 31 -6 33 -9 10 -3 -24 -32
-50 -32 -29 0 5 6 12 13 14 6 3 0 6 -15 6 -25 1 -28 5 -28 35 0 19 -6 37 -12
39 -7 3 -1 6 15 6 21 1 27 -4 27 -19 0 -11 4 -20 9 -20 6 0 9 9 8 20 -1 11 -5
20 -9 20 -4 0 -8 18 -8 40 0 23 -5 40 -11 40 -6 0 -9 -7 -5 -15 3 -8 1 -25 -4
-37 -7 -18 -9 -12 -9 30 -1 38 -5 52 -13 50 -9 -3 -14 -38 -16 -116 l-3 -111
28 -3 28 -4 -25 -11 c-19 -8 -27 -7 -33 3 -4 8 -17 14 -27 14 -14 0 -20 7 -20
23 0 18 2 19 10 7 7 -11 10 -7 10 17 0 17 -6 34 -12 37 -9 3 -8 8 5 16 14 9
17 24 15 78 l-2 67 -3 -62 c-2 -35 -8 -63 -14 -63 -5 0 -9 64 -8 160 0 88 4
160 9 160 5 0 11 -24 13 -52 l3 -53 2 61 c3 86 -6 124 -29 124 -18 0 -19 -13
-19 -300z m60 -245 c0 -8 -4 -15 -10 -15 -5 0 -10 7 -10 15 0 8 5 15 10 15 6
0 10 -7 10 -15z m-26 -20 c3 -8 1 -15 -4 -15 -6 0 -10 7 -10 15 0 8 2 15 4 15
2 0 6 -7 10 -15z m26 -106 c0 -5 -9 -9 -20 -9 -11 0 -20 4 -20 8 0 4 9 8 20 9
11 1 20 -2 20 -8z m-20 -44 c0 -14 -4 -25 -10 -25 -5 0 -10 11 -10 25 0 14 5
25 10 25 6 0 10 -11 10 -25z"/>
<path d="M410 756 c0 -31 6 -34 13 -6 3 11 1 23 -4 26 -5 3 -9 -6 -9 -20z"/>
<path d="M470 733 c0 -8 13 -13 30 -13 19 0 30 5 30 14 0 8 -11 13 -30 12 -17
-1 -30 -7 -30 -13z"/>
<path d="M440 730 c0 -5 -12 -10 -27 -11 -16 0 -22 -3 -15 -6 15 -6 16 -33 1
-33 -6 0 -9 -9 -6 -20 3 -11 1 -20 -4 -20 -6 0 -5 -8 1 -20 9 -16 8 -20 -5
-20 -12 0 -15 -13 -15 -60 0 -53 2 -60 20 -60 13 0 20 -7 20 -20 0 -19 7 -20
90 -20 76 0 90 3 90 16 0 11 -5 14 -17 10 -9 -4 -20 -1 -25 6 -6 10 -10 10
-18 -2 -6 -10 -10 -11 -10 -2 0 7 -14 12 -36 12 -21 0 -33 -4 -29 -10 3 -5 1
-10 -4 -10 -6 0 -11 14 -11 30 0 20 -5 30 -15 30 -12 0 -15 16 -15 80 l0 80
30 0 c17 0 30 5 30 10 0 6 -7 10 -16 10 -11 0 -14 6 -9 20 3 11 4 20 1 20 -3
0 -6 -4 -6 -10z"/>
<path d="M545 730 c-3 -5 -1 -10 4 -10 6 0 11 5 11 10 0 6 -2 10 -4 10 -3 0
-8 -4 -11 -10z"/>
<path d="M585 710 c3 -5 8 -10 11 -10 2 0 4 5 4 10 0 6 -5 10 -11 10 -5 0 -7
-4 -4 -10z"/>
<path d="M486 702 c-5 -8 -4 -18 3 -25 18 -18 13 -23 -24 -19 -21 3 -35 0 -35
-7 0 -7 25 -11 68 -11 61 0 68 2 68 20 0 16 -7 20 -32 20 -23 0 -34 5 -36 18
-3 13 -5 14 -12 4z"/>
<path d="M132 610 c0 -19 2 -27 5 -17 2 9 2 25 0 35 -3 9 -5 1 -5 -18z"/>
<path d="M168 623 c7 -3 16 -2 19 1 4 3 -2 6 -13 5 -11 0 -14 -3 -6 -6z"/>
<path d="M220 617 c0 -12 -9 -17 -30 -17 -23 0 -30 -4 -30 -20 0 -15 7 -20 29
-20 24 0 29 5 35 32 3 17 4 33 1 36 -3 3 -5 -2 -5 -11z"/>
<path d="M531 623 c-20 -4 -22 -9 -17 -34 3 -16 2 -29 -3 -29 -4 0 -8 -13 -9
-30 0 -24 3 -29 18 -27 22 4 39 17 22 17 -7 0 -12 16 -12 40 0 29 4 40 15 40
8 0 15 7 15 15 0 8 -1 14 -2 14 -2 -1 -14 -4 -27 -6z"/>
<path d="M437 580 c7 -25 20 -26 27 -2 3 9 4 -4 2 -30 -3 -41 -2 -45 11 -32 8
8 12 21 9 29 -3 8 -1 15 4 15 6 0 10 9 10 20 0 16 -7 20 -34 20 -29 0 -33 -3
-29 -20z"/>
<path d="M782 535 c0 -55 1 -57 9 -27 7 22 7 43 0 60 -8 23 -9 17 -9 -33z"/>
<path d="M560 545 c0 -8 2 -15 4 -15 2 0 6 7 10 15 3 8 1 15 -4 15 -6 0 -10
-7 -10 -15z"/>
<path d="M341 534 c0 -11 3 -14 6 -6 3 7 2 16 -1 19 -3 4 -6 -2 -5 -13z"/>
<path d="M661 504 c0 -11 3 -14 6 -6 3 7 2 16 -1 19 -3 4 -6 -2 -5 -13z"/>
<path d="M333 445 c0 -22 2 -30 4 -17 2 12 2 30 0 40 -3 9 -5 -1 -4 -23z"/>
<path d="M363 446 c-7 -8 -8 -18 -2 -27 7 -11 9 -11 9 4 0 9 5 17 10 17 6 0
10 5 10 10 0 14 -13 12 -27 -4z"/>
<path d="M620 424 c0 -8 5 -12 10 -9 6 3 10 10 10 16 0 5 -4 9 -10 9 -5 0 -10
-7 -10 -16z"/>
<path d="M350 395 c0 -2 5 -16 12 -30 12 -26 23 -32 33 -15 3 6 -1 10 -9 10
-9 0 -16 9 -16 20 0 11 -4 20 -10 20 -5 0 -10 -2 -10 -5z"/>
<path d="M410 391 c0 -12 178 -12 186 0 3 5 -35 9 -90 9 -53 0 -96 -4 -96 -9z"/>
<path d="M620 386 c0 -8 -3 -21 -6 -30 -4 -10 -1 -16 8 -16 10 0 15 11 16 30
0 17 -4 30 -9 30 -5 0 -9 -6 -9 -14z"/>
<path d="M730 380 c0 -11 5 -20 10 -20 6 0 10 9 10 20 0 11 -4 20 -10 20 -5 0
-10 -9 -10 -20z"/>
<path d="M860 150 c0 -5 7 -7 15 -4 11 5 15 -2 15 -26 0 -24 -4 -31 -15 -26
-8 3 -15 1 -15 -4 0 -6 11 -10 25 -10 23 0 25 4 25 40 0 36 -2 40 -25 40 -14
0 -25 -4 -25 -10z"/>
<path d="M796 141 c-4 -7 -5 -15 -2 -18 9 -9 19 4 14 18 -4 11 -6 11 -12 0z"/>
<path d="M181 110 c-8 -24 -7 -30 4 -30 9 0 12 6 8 16 -3 9 0 20 7 24 8 5 8
10 2 14 -6 3 -15 -8 -21 -24z"/>
<path d="M620 130 c0 -5 9 -10 20 -10 11 0 20 5 20 10 0 6 -9 10 -20 10 -11 0
-20 -4 -20 -10z"/>
</g>
</svg>
