<?xml version="1.0" standalone="no"?>
<!DOCTYPE svg PUBLIC "-//W3C//DTD SVG 20010904//EN"
 "http://www.w3.org/TR/2001/REC-SVG-20010904/DTD/svg10.dtd">
<svg version="1.0" xmlns="http://www.w3.org/2000/svg"
 width="192.000000pt" height="192.000000pt" viewBox="0 0 192.000000 192.000000"
 preserveAspectRatio="xMidYMid meet">
<metadata>
Created by potrace 1.16, written by Peter Selinger 2001-2019
</metadata>
<g transform="translate(0.000000,192.000000) scale(0.100000,-0.100000)"
fill="#000000" stroke="none">
<path d="M100 1350 l0 -89 33 -5 c17 -3 52 -8 75 -11 78 -10 77 -6 77 -288 0
-292 5 -279 -114 -291 l-71 -7 0 -90 0 -89 395 0 395 0 0 89 0 90 -71 7 c-93
9 -109 25 -109 111 l0 63 250 0 250 0 0 -59 c0 -78 -19 -101 -85 -108 -101 -9
-95 -2 -95 -103 l0 -90 390 0 390 0 0 90 0 89 -32 5 c-18 3 -51 7 -73 10 -73
10 -75 16 -75 286 0 270 2 276 75 286 22 3 55 7 73 10 l32 5 0 89 0 90 -390 0
-390 0 0 -90 0 -89 33 -5 c17 -3 50 -7 72 -10 56 -8 75 -34 75 -107 l0 -59
-250 0 -250 0 0 63 c0 75 15 95 76 103 22 3 54 7 72 10 l32 5 0 89 0 90 -395
0 -395 0 0 -90z m770 0 l0 -69 -32 -5 c-18 -3 -50 -7 -72 -10 -65 -9 -76 -27
-76 -123 l0 -83 270 0 270 0 0 79 c0 94 -14 119 -75 127 -22 3 -55 7 -72 10
l-33 5 0 69 0 70 370 0 370 0 0 -70 0 -69 -32 -5 c-18 -3 -51 -7 -73 -10 -74
-10 -75 -14 -75 -306 0 -292 1 -296 75 -306 22 -3 55 -7 73 -10 l32 -5 0 -69
0 -70 -370 0 -370 0 0 70 c0 78 -4 74 95 83 71 7 85 28 85 128 l0 79 -270 0
-270 0 0 -83 c0 -109 11 -122 109 -131 l71 -7 0 -70 0 -69 -375 0 -375 0 0 69
0 70 71 7 c120 12 114 -4 114 311 0 304 2 298 -77 308 -23 3 -58 8 -75 11
l-33 5 0 69 0 70 375 0 375 0 0 -70z"/>
</g>
</svg>
