<?xml version="1.0" standalone="no"?>
<!DOCTYPE svg PUBLIC "-//W3C//DTD SVG 20010904//EN"
 "http://www.w3.org/TR/2001/REC-SVG-20010904/DTD/svg10.dtd">
<svg version="1.0" xmlns="http://www.w3.org/2000/svg"
 width="180.000000pt" height="180.000000pt" viewBox="0 0 180.000000 180.000000"
 preserveAspectRatio="xMidYMid meet">
<metadata>
Created by potrace 1.16, written by Peter Selinger 2001-2019
</metadata>
<g transform="translate(0.000000,180.000000) scale(0.100000,-0.100000)"
fill="#000000" stroke="none">
<path d="M771 1424 c-172 -46 -297 -177 -346 -361 -21 -77 -21 -249 0 -328 37
-141 136 -271 249 -323 244 -115 526 -30 649 196 86 158 88 402 5 572 -38 78
-124 167 -194 203 -109 55 -251 71 -363 41z m312 -51 c127 -60 226 -180 262
-318 8 -33 15 -101 15 -155 0 -220 -92 -380 -269 -468 -65 -32 -84 -37 -167
-40 -79 -4 -106 -1 -166 19 -138 44 -253 162 -297 303 -90 292 37 585 294 675
49 18 79 21 160 18 88 -2 108 -6 168 -34z"/>
</g>
</svg>
