<?xml version="1.0" standalone="no"?>
<!DOCTYPE svg PUBLIC "-//W3C//DTD SVG 20010904//EN"
 "http://www.w3.org/TR/2001/REC-SVG-20010904/DTD/svg10.dtd">
<svg version="1.0" xmlns="http://www.w3.org/2000/svg"
 width="200.000000pt" height="200.000000pt" viewBox="0 0 200.000000 200.000000"
 preserveAspectRatio="xMidYMid meet">
<metadata>
Created by potrace 1.16, written by Peter Selinger 2001-2019
</metadata>
<g transform="translate(0.000000,200.000000) scale(0.100000,-0.100000)"
fill="#000000" stroke="none">
<path d="M620 1540 l0 -80 -40 0 -40 0 0 -40 0 -40 -40 0 -40 0 0 -80 0 -80
-200 0 -200 0 0 -80 0 -80 -30 0 c-17 0 -30 -4 -30 -10 0 -5 18 -10 39 -10 31
0 40 -4 43 -19 2 -14 12 -3 35 40 l32 59 -24 0 c-19 0 -24 -5 -23 -22 2 -41
-2 -58 -12 -58 -6 0 -10 33 -10 80 l0 80 210 -2 210 -3 26 43 25 42 -25 0
c-24 0 -26 -4 -26 -40 0 -22 -4 -40 -10 -40 -6 0 -10 33 -10 80 l0 80 40 0
c37 0 40 -2 40 -27 l1 -28 14 25 c12 22 12 25 -1 28 -9 2 -14 17 -14 43 0 39
0 39 38 39 34 0 40 4 55 35 21 43 21 45 2 45 -11 0 -15 11 -15 40 l0 40 40 0
c29 0 40 -4 40 -15 0 -13 38 -15 280 -15 242 0 280 2 280 15 0 11 11 15 40 15
29 0 40 -4 40 -15 0 -13 38 -15 280 -15 242 0 280 2 280 15 0 11 11 15 40 15
22 0 40 5 40 10 0 7 -237 10 -690 10 l-690 0 0 -80z m513 53 c-73 -2 -193 -2
-265 0 -73 1 -14 3 132 3 146 0 205 -2 133 -3z m640 0 c-73 -2 -193 -2 -265 0
-73 1 -14 3 132 3 146 0 205 -2 133 -3z"/>
<path d="M676 1564 c-9 -22 -8 -26 6 -22 13 5 20 38 8 38 -4 0 -11 -7 -14 -16z"/>
<path d="M1303 1573 c9 -2 25 -2 35 0 9 3 1 5 -18 5 -19 0 -27 -2 -17 -5z"/>
<path d="M1965 1571 c24 -6 27 -9 13 -15 -29 -13 -30 -36 -2 -36 22 0 25 4 22
28 -2 22 -8 27 -33 29 l-30 2 30 -8z"/>
<path d="M619 1355 l-103 -194 -157 2 -156 2 -63 -120 c-35 -66 -74 -137 -87
-157 -13 -21 -21 -38 -18 -38 87 -6 280 1 285 10 5 8 10 7 17 -2 10 -13 -18
-70 -155 -320 l-43 -78 293 0 293 0 79 149 c68 126 83 148 103 149 24 0 29 -8
14 -23 -4 -6 -28 -46 -51 -90 -23 -44 -56 -104 -72 -132 l-29 -53 294 0 295 0
110 208 110 207 139 5 c165 6 175 10 228 105 63 113 32 145 -139 145 l-94 0
52 98 c29 53 80 148 114 210 l60 112 -293 0 -293 0 -22 -42 c-110 -213 -132
-248 -155 -248 -22 0 -20 6 42 123 35 67 71 132 79 145 l14 22 -294 0 -294 0
-103 -195z m631 159 c0 -7 -102 -201 -132 -251 l-20 -33 61 0 60 0 76 145 76
145 255 0 c140 0 254 -2 254 -4 0 -2 -20 -41 -45 -87 -25 -46 -71 -132 -102
-191 l-57 -108 -522 0 c-477 0 -523 1 -535 17 -12 15 -12 16 4 10 10 -4 16 -3
13 1 -5 8 21 62 99 210 l49 92 181 0 c155 0 182 -2 182 -15 0 -8 -4 -15 -8
-15 -8 0 -52 -70 -53 -85 -2 -14 -37 -79 -47 -85 -4 -3 -11 -25 -15 -48 l-7
-42 114 0 c63 0 119 4 124 8 15 11 44 61 101 175 14 26 29 45 34 42 6 -3 10
-2 10 4 0 5 -5 11 -11 13 -6 2 -2 13 9 26 19 21 26 22 200 22 l181 0 -27 -47
c-16 -27 -34 -63 -41 -80 -7 -18 -19 -33 -25 -33 -6 0 -12 -8 -12 -17 -1 -23
-7 -47 -14 -53 -18 -16 -48 -80 -39 -85 16 -11 26 3 95 133 36 70 77 145 90
167 l23 40 -219 0 -218 0 -21 -40 c-11 -22 -44 -85 -74 -140 l-54 -100 -101
-5 -100 -5 45 85 c26 47 61 111 80 143 18 32 33 59 33 60 0 1 -98 2 -219 2
l-218 0 -29 -55 c-110 -211 -146 -270 -165 -270 -18 0 -15 10 27 88 26 48 50
92 54 97 4 6 26 47 50 93 l42 82 254 0 c140 0 254 -3 254 -6z m-643 -396 c18
-17 68 -18 673 -20 755 -3 696 6 642 -103 -22 -45 -40 -69 -58 -75 -15 -6
-275 -10 -666 -10 -640 0 -641 0 -623 -20 18 -20 17 -20 -103 -20 -111 0 -123
2 -134 20 -7 11 -16 20 -19 20 -4 0 -9 -9 -12 -20 -5 -19 -14 -20 -120 -20
l-115 0 64 118 c35 64 67 125 70 135 5 17 20 18 194 15 162 -3 191 -5 207 -20z
m851 -267 c-14 -15 -31 -44 -38 -62 -8 -19 -16 -36 -20 -39 -5 -5 -31 -59 -33
-70 0 -3 -7 -11 -14 -18 -7 -7 -13 -19 -13 -27 0 -7 -3 -15 -7 -17 -5 -1 -15
-16 -23 -33 l-16 -30 -182 0 c-100 0 -182 2 -181 5 0 3 9 19 19 35 11 17 31
53 45 80 14 28 31 55 38 60 13 11 18 31 20 80 l2 30 -113 0 c-89 0 -115 -3
-122 -15 -7 -10 -10 -11 -10 -2 0 6 -5 12 -10 12 -7 0 -7 -6 0 -19 5 -11 6
-21 1 -23 -5 -2 -17 -21 -28 -43 -11 -22 -40 -77 -64 -122 l-44 -83 -177 0
c-118 0 -178 4 -178 10 0 20 30 69 47 79 10 6 13 11 6 11 -7 0 -10 7 -7 15 4
8 10 13 14 10 4 -3 8 1 7 8 -1 30 4 48 11 43 4 -2 18 22 31 55 l24 59 51 1
c28 1 72 1 99 0 48 -1 60 10 30 28 -13 7 118 10 420 11 l439 0 -24 -29z m82
26 c0 -1 -29 -56 -65 -122 -36 -66 -82 -153 -103 -192 l-37 -73 -258 0 -257 0
29 53 c72 131 131 240 131 243 0 2 -26 4 -58 4 l-57 0 -80 -150 -80 -150 -257
0 -256 0 79 148 c44 81 87 162 96 180 10 17 25 32 35 32 10 0 18 -1 18 -3 0
-2 -38 -75 -85 -162 -47 -88 -85 -159 -85 -160 0 0 98 1 217 2 l218 2 78 145
79 146 98 0 98 0 -79 -147 c-43 -81 -79 -147 -79 -147 0 -1 98 0 217 1 l218 2
94 176 c70 132 98 175 112 175 10 0 19 -1 19 -3z"/>
<path d="M227 1103 c-10 -17 -107 -202 -107 -205 0 -2 37 -2 82 -1 82 2 83 2
97 32 l15 31 25 -30 c25 -29 30 -31 109 -33 46 -2 85 -1 87 1 2 2 -10 16 -27
30 l-30 26 32 15 c39 20 95 112 77 130 -13 13 -353 16 -360 4z m112 -36 c-6
-9 -7 -23 -3 -29 5 -7 3 -8 -5 -4 -8 5 -12 3 -10 -5 4 -35 -2 -59 -16 -59 -9
0 -21 -11 -27 -25 -10 -22 -17 -25 -64 -25 l-53 0 37 73 c20 39 40 77 45 82 5
6 31 10 57 10 43 0 47 -2 39 -18z m211 10 c1 -25 -14 -56 -23 -50 -6 4 -8 0
-4 -10 6 -16 -3 -22 -26 -18 -18 3 -39 -31 -34 -54 4 -23 2 -25 -39 -25 -33 0
-46 5 -54 20 -6 11 -15 18 -19 16 -4 -3 -8 1 -8 9 0 10 10 15 28 15 36 0 74
50 65 86 -6 24 -6 24 54 22 33 -2 60 -6 60 -11z m-140 -20 c0 -23 -31 -57 -51
-57 -12 0 -19 3 -17 8 25 51 34 62 50 62 10 0 18 -6 18 -13z"/>
<path d="M577 1010 c-20 -39 -37 -73 -37 -75 0 -3 40 -5 89 -5 72 0 90 3 95
16 9 25 8 26 -24 19 -16 -4 -35 -3 -41 1 -18 11 11 24 52 24 49 0 62 27 16 32
-47 4 -39 22 12 28 25 3 46 11 49 18 3 9 -19 12 -85 12 l-89 0 -37 -70z m103
23 c0 -10 -9 -24 -20 -31 -11 -7 -20 -19 -20 -27 0 -11 -9 -15 -29 -13 -21 2
-27 6 -23 20 2 9 10 23 18 29 8 6 14 17 14 23 0 7 14 13 30 14 23 2 30 -2 30
-15z"/>
<path d="M785 1025 c-15 -30 -30 -57 -36 -60 -5 -4 -9 -13 -9 -21 0 -11 20
-14 103 -14 56 0 112 3 124 6 26 7 87 108 79 130 -4 11 -31 14 -120 14 l-115
0 -26 -55z m81 10 c-9 -13 -18 -35 -19 -47 -3 -16 -12 -24 -30 -26 -22 -3 -25
0 -20 20 10 38 43 78 65 78 19 0 20 -1 4 -25z m146 3 c-3 -13 -11 -27 -19 -31
-7 -4 -13 -14 -13 -21 0 -13 -21 -26 -41 -26 -5 0 -9 7 -9 15 0 8 5 15 10 15
12 0 13 37 2 44 -5 3 -19 -13 -31 -34 -12 -22 -29 -40 -37 -40 -9 0 -14 3 -12
8 38 79 39 80 85 80 25 0 47 3 51 6 12 13 20 5 14 -16z"/>
<path d="M1050 1013 c-19 -37 -36 -70 -38 -75 -5 -11 201 -10 232 2 16 6 35
29 51 59 41 82 42 81 -92 81 l-118 0 -35 -67z m83 6 c-8 -17 -16 -38 -17 -47
-2 -11 -14 -18 -35 -20 -25 -3 -31 0 -25 10 5 7 9 18 10 25 5 29 44 71 63 66
17 -4 18 -7 4 -34z m67 19 c0 -18 -38 -78 -48 -78 -20 0 -18 14 6 51 26 39 42
50 42 27z m82 6 c9 -9 -22 -63 -42 -74 -10 -6 -26 -10 -35 -10 -15 0 -15 2 -1
22 9 12 16 33 16 45 0 19 6 23 28 23 16 0 31 -3 34 -6z"/>
<path d="M1350 1068 c0 -7 -16 -39 -35 -71 -19 -32 -35 -60 -35 -63 0 -3 25
-4 55 -2 l56 3 39 73 39 72 -59 0 c-41 0 -60 -4 -60 -12z m65 -28 c3 -6 0 -17
-9 -25 -8 -8 -18 -24 -21 -35 -4 -14 -15 -20 -36 -20 -27 0 -28 2 -17 20 7 11
16 20 19 20 4 0 10 11 13 25 7 25 39 35 51 15z"/>
<path d="M1448 1004 l-37 -75 92 3 c78 3 92 6 95 20 3 15 -2 17 -29 11 -25 -5
-31 -3 -27 8 2 8 21 15 41 17 19 2 41 10 47 18 11 12 7 14 -25 14 -25 0 -35 4
-32 13 2 6 20 12 40 12 23 0 39 6 46 18 10 16 4 17 -81 16 l-93 0 -37 -75z
m77 46 c-3 -5 1 -10 9 -10 20 0 20 -17 0 -37 -8 -9 -13 -21 -10 -28 3 -8 -7
-15 -27 -18 -18 -2 -33 -3 -35 -2 -6 5 26 71 42 88 19 19 31 23 21 7z"/>
<path d="M1699 1074 c-9 -3 -21 -16 -28 -30 -12 -28 -2 -35 72 -48 37 -7 47
-19 27 -31 -6 -4 -16 -2 -23 3 -7 5 -34 12 -60 14 -40 5 -49 3 -58 -14 -17
-32 5 -39 119 -36 96 3 105 5 123 27 11 13 18 29 16 35 -3 9 -14 13 -89 30
-40 9 -35 28 5 22 92 -15 105 -15 117 -1 7 9 10 19 6 23 -9 8 -202 13 -227 6z
m55 -39 c-7 -18 -50 -20 -60 -3 -5 8 -2 9 9 5 10 -3 17 -2 17 3 0 6 9 10 20
10 13 0 18 -5 14 -15z m90 -60 c-23 -17 -38 -19 -28 -3 5 8 2 9 -9 5 -10 -3
-17 -2 -17 3 0 6 17 10 37 10 35 0 36 -1 17 -15z"/>
<path d="M1893 1410 c-9 -19 -19 -38 -21 -42 -2 -5 6 -8 17 -8 17 0 21 5 17
25 -3 13 0 27 5 30 5 4 9 -23 9 -64 l0 -71 -39 0 c-22 0 -41 4 -43 10 -1 5
-15 -13 -29 -40 l-27 -50 23 0 c18 0 22 4 18 19 -3 11 0 28 6 38 9 15 10 12
11 -19 l0 -38 80 0 c47 0 80 4 80 10 0 6 -30 10 -70 10 -63 0 -70 2 -70 20 0
17 7 20 40 20 l40 0 0 80 0 80 30 0 c47 0 35 18 -14 22 -42 3 -46 1 -63 -32z"/>
<path d="M583 1405 c-3 -9 -3 -19 1 -22 7 -7 36 16 36 28 0 15 -30 10 -37 -6z"/>
<path d="M160 1168 c0 -19 2 -20 10 -8 13 19 13 30 0 30 -5 0 -10 -10 -10 -22z"/>
<path d="M1766 1175 c-3 -9 -6 -17 -6 -18 0 -1 36 -2 80 -2 58 0 80 3 80 12 0
9 -17 13 -52 13 -29 0 -63 3 -74 6 -14 4 -23 0 -28 -11z"/>
<path d="M1985 1110 c3 -5 8 -10 11 -10 2 0 4 5 4 10 0 6 -5 10 -11 10 -5 0
-7 -4 -4 -10z"/>
<path d="M1978 990 c-16 -29 -16 -30 2 -30 16 0 20 7 20 30 0 17 -1 30 -2 30
-2 0 -11 -14 -20 -30z"/>
<path d="M0 951 c0 -5 6 -12 13 -14 8 -4 9 -8 2 -14 -6 -4 -12 -24 -13 -43 -2
-35 -2 -35 28 19 16 30 30 56 30 58 0 1 -13 3 -30 3 -17 0 -30 -4 -30 -9z"/>
<path d="M1947 933 c-9 -9 -9 -33 1 -33 4 0 13 9 20 20 10 16 10 20 -1 20 -8
0 -17 -3 -20 -7z"/>
<path d="M1919 842 l3 -44 -177 3 -177 2 -14 -32 c-12 -29 -12 -32 4 -29 10 2
17 13 17 27 0 14 6 26 13 29 8 2 12 -9 12 -37 0 -41 0 -41 -38 -41 -34 0 -40
-4 -55 -35 -21 -43 -21 -45 -2 -45 11 0 15 -11 15 -40 0 -40 0 -40 -40 -40
-36 0 -41 -3 -60 -40 l-20 -40 20 0 c17 0 20 -7 20 -40 l0 -40 -40 0 c-33 0
-40 3 -40 20 0 20 -7 20 -280 20 -273 0 -280 0 -280 -20 0 -17 -7 -20 -40 -20
-33 0 -40 3 -40 20 0 20 -7 20 -280 20 -273 0 -280 0 -280 -20 0 -17 -7 -20
-40 -20 l-40 0 0 80 0 80 43 0 c40 0 45 3 60 35 21 43 21 45 3 45 -9 0 -16
-13 -19 -32 -2 -18 -5 0 -5 41 l-2 73 44 -3 44 -4 26 52 26 53 -153 -2 -152
-2 115 -6 115 -6 -112 -2 c-68 -1 -113 -6 -113 -12 0 -5 13 -10 29 -10 16 0
32 -6 35 -12 5 -10 7 -10 12 0 4 8 29 12 75 12 62 0 69 -2 69 -20 0 -17 -7
-20 -40 -20 l-40 0 0 -80 0 -80 -40 0 -40 0 0 -100 0 -100 700 0 700 0 0 80 0
80 40 0 40 0 0 80 0 80 40 0 40 0 0 40 0 40 160 0 160 0 0 40 c0 38 2 40 30
40 46 0 36 18 -12 21 l-43 4 4 -43z m-1660 -54 c0 -7 -4 -22 -9 -33 -7 -17 -9
-15 -9 13 -1 17 4 32 9 32 6 0 10 -6 9 -12z m446 -378 c4 -7 -87 -10 -265 -10
-178 0 -269 3 -265 10 8 14 522 14 530 0z m640 0 c4 -7 -87 -10 -265 -10 -178
0 -269 3 -265 10 4 6 103 10 265 10 162 0 261 -4 265 -10z"/>
<path d="M1590 852 c0 -11 48 -13 55 -2 4 6 -7 10 -24 10 -17 0 -31 -4 -31 -8z"/>
<path d="M1667 846 c-4 -10 -5 -21 -2 -24 9 -9 17 6 13 25 -3 17 -4 17 -11 -1z"/>
<path d="M1467 600 c-3 -11 -2 -20 2 -20 3 0 12 9 19 20 10 16 10 20 -2 20 -7
0 -16 -9 -19 -20z"/>
<path d="M115 500 c3 -5 8 -10 11 -10 2 0 4 5 4 10 0 6 -5 10 -11 10 -5 0 -7
-4 -4 -10z"/>
<path d="M100 465 c0 -8 2 -15 4 -15 2 0 6 7 10 15 3 8 1 15 -4 15 -6 0 -10
-7 -10 -15z"/>
<path d="M1380 440 c0 -5 5 -10 10 -10 6 0 10 5 10 10 0 6 -4 10 -10 10 -5 0
-10 -4 -10 -10z"/>
<path d="M100 430 c0 -5 9 -10 20 -10 11 0 20 5 20 10 0 6 -9 10 -20 10 -11 0
-20 -4 -20 -10z"/>
<path d="M735 430 c3 -5 15 -10 25 -10 10 0 22 5 25 10 4 6 -7 10 -25 10 -18
0 -29 -4 -25 -10z"/>
</g>
</svg>
