<?xml version="1.0" standalone="no"?>
<!DOCTYPE svg PUBLIC "-//W3C//DTD SVG 20010904//EN"
 "http://www.w3.org/TR/2001/REC-SVG-20010904/DTD/svg10.dtd">
<svg version="1.0" xmlns="http://www.w3.org/2000/svg"
 width="100.000000pt" height="100.000000pt" viewBox="0 0 100.000000 100.000000"
 preserveAspectRatio="xMidYMid meet">
<metadata>
Created by potrace 1.16, written by Peter Selinger 2001-2019
</metadata>
<g transform="translate(0.000000,100.000000) scale(0.100000,-0.100000)"
fill="#000000" stroke="none">
<path d="M110 910 l0 -90 45 0 45 0 0 -320 0 -320 -45 0 -45 0 0 -90 c0 -53 4
-90 10 -90 6 0 10 33 10 80 l0 80 45 0 45 0 0 340 0 340 -45 0 -45 0 0 80 c0
47 -4 80 -10 80 -6 0 -10 -37 -10 -90z"/>
<path d="M410 830 c0 -144 2 -170 15 -170 8 0 15 7 15 15 0 10 10 15 30 15 20
0 30 5 30 15 0 12 16 15 80 15 64 0 80 -3 80 -15 0 -10 10 -15 30 -15 20 0 30
-5 30 -15 0 -8 7 -15 15 -15 8 0 15 -7 15 -15 0 -8 7 -15 15 -15 11 0 15 -12
15 -50 0 -38 4 -50 15 -50 13 0 15 -27 15 -185 l0 -185 30 0 30 0 0 -80 c0
-47 4 -80 10 -80 6 0 10 37 10 90 l0 90 -30 0 -30 0 0 185 c0 158 -2 185 -15
185 -11 0 -15 12 -15 50 0 38 -4 50 -15 50 -8 0 -15 7 -15 15 0 8 -7 15 -15
15 -8 0 -15 7 -15 15 0 10 -10 15 -30 15 -20 0 -30 5 -30 15 0 12 -18 15 -100
15 -82 0 -100 -3 -100 -15 0 -9 -9 -15 -25 -15 l-25 0 0 145 c0 90 -4 145 -10
145 -6 0 -10 -63 -10 -170z"/>
<path d="M440 515 c0 -8 -7 -15 -15 -15 -13 0 -15 -26 -15 -170 l0 -170 45 0
45 0 0 -80 c0 -64 3 -80 15 -80 12 0 15 16 15 80 l0 80 30 0 30 0 0 170 c0
144 -2 170 -15 170 -8 0 -15 7 -15 15 0 12 -13 15 -60 15 -47 0 -60 -3 -60
-15z m100 -20 c0 -8 7 -15 15 -15 13 0 15 -23 15 -150 l0 -150 -70 0 -70 0 0
150 c0 127 2 150 15 150 8 0 15 7 15 15 0 11 11 15 40 15 29 0 40 -4 40 -15z"/>
</g>
</svg>
