<?xml version="1.0" standalone="no"?>
<!DOCTYPE svg PUBLIC "-//W3C//DTD SVG 20010904//EN"
 "http://www.w3.org/TR/2001/REC-SVG-20010904/DTD/svg10.dtd">
<svg version="1.0" xmlns="http://www.w3.org/2000/svg"
 width="100.000000pt" height="100.000000pt" viewBox="0 0 100.000000 100.000000"
 preserveAspectRatio="xMidYMid meet">
<metadata>
Created by potrace 1.16, written by Peter Selinger 2001-2019
</metadata>
<g transform="translate(0.000000,100.000000) scale(0.100000,-0.100000)"
fill="#000000" stroke="none">
<path d="M290 980 c0 -16 -7 -20 -30 -20 -28 0 -30 -3 -30 -35 l0 -35 -60 0
c-60 0 -60 0 -60 -29 0 -26 -4 -30 -32 -33 -28 -2 -34 -8 -36 -30 -2 -20 -9
-28 -23 -28 -10 0 -19 -4 -19 -10 0 -5 9 -10 20 -10 13 0 20 -7 20 -20 0 -13
-7 -20 -20 -20 -11 0 -20 -4 -20 -10 0 -5 9 -10 20 -10 13 0 20 -7 20 -20 0
-13 -7 -20 -20 -20 -11 0 -20 -4 -20 -10 0 -5 9 -10 20 -10 19 0 20 -7 20
-125 0 -118 -1 -125 -20 -125 -11 0 -20 -4 -20 -10 0 -5 9 -10 20 -10 15 0 20
-7 20 -25 0 -18 -5 -25 -20 -25 -11 0 -20 -4 -20 -10 0 -5 9 -10 20 -10 16 0
20 -7 20 -30 0 -28 3 -30 35 -30 l34 0 3 -58 3 -57 57 -3 c56 -3 57 -3 60 -35
2 -27 8 -33 31 -35 19 -2 27 -9 27 -23 0 -10 5 -19 10 -19 6 0 10 9 10 20 0
13 7 20 20 20 13 0 20 -7 20 -20 0 -11 5 -20 10 -20 6 0 10 9 10 20 0 16 7 20
35 20 28 0 35 -4 35 -20 0 -11 5 -20 10 -20 6 0 10 9 10 20 0 19 7 20 200 20
l200 0 1 -22 c1 -21 2 -21 6 -3 3 11 9 24 14 30 12 12 12 915 0 915 -5 0 -12
10 -14 23 l-4 22 -2 -22 c-1 -23 -2 -23 -171 -23 -163 0 -170 1 -170 20 0 11
-4 20 -10 20 -5 0 -10 -9 -10 -20 0 -13 -7 -20 -20 -20 -13 0 -20 7 -20 20 0
11 -4 20 -10 20 -5 0 -10 -9 -10 -20 0 -16 -7 -20 -35 -20 -28 0 -35 4 -35 20
0 11 -4 20 -10 20 -5 0 -10 -9 -10 -20 0 -13 -7 -20 -20 -20 -13 0 -20 7 -20
20 0 11 -4 20 -10 20 -5 0 -10 -9 -10 -20z m0 -65 c0 -18 -5 -25 -20 -25 -15
0 -20 7 -20 25 0 18 5 25 20 25 15 0 20 -7 20 -25z m580 -94 c0 -114 -1 -119
-20 -114 -20 5 -28 23 -10 23 6 0 10 5 10 10 0 6 -63 10 -169 10 -164 0 -169
1 -164 20 5 19 14 20 148 20 118 0 144 -3 147 -15 2 -11 9 -8 27 10 l23 25
-181 0 -181 0 0 30 0 30 183 0 c153 1 179 3 165 14 -10 7 -18 18 -18 25 0 6
-4 11 -10 11 -5 0 -10 -7 -10 -15 0 -13 -23 -15 -144 -15 -140 0 -144 1 -151
23 -7 20 -8 19 -12 -10 -4 -29 -8 -33 -34 -33 -24 0 -29 4 -29 25 0 14 -4 25
-10 25 -5 0 -10 -11 -10 -25 0 -18 -5 -25 -19 -25 -14 0 -17 6 -13 25 2 15 0
25 -7 25 -6 0 -11 -11 -11 -25 0 -21 -5 -25 -30 -25 -28 0 -30 3 -30 35 l0 35
280 0 280 0 0 -119z m-697 29 c-3 -11 -14 -20 -24 -20 -12 0 -19 7 -19 20 0
14 7 20 24 20 19 0 23 -4 19 -20z m137 -10 c0 -27 3 -30 30 -30 26 0 30 -4 30
-26 0 -16 4 -23 11 -18 7 4 9 22 6 45 -4 34 -2 39 14 39 16 0 19 -7 19 -45 0
-25 5 -45 10 -45 6 0 10 11 10 25 0 21 5 25 30 25 27 0 30 -3 30 -30 l0 -30
-61 0 c-41 0 -58 -3 -53 -11 3 -6 17 -9 30 -6 16 3 24 0 24 -9 0 -8 -11 -14
-25 -14 -14 0 -25 -4 -25 -10 0 -5 7 -10 15 -10 13 0 15 -27 15 -180 0 -153
-2 -180 -15 -180 -24 0 -17 -18 8 -22 30 -4 39 -58 8 -58 -35 0 -51 -12 -51
-36 0 -20 -5 -24 -31 -24 -27 0 -30 -3 -27 -28 3 -26 6 -27 66 -30 l62 -3 0
61 0 60 215 0 215 0 0 -60 0 -60 -185 0 -185 0 0 -35 0 -35 -95 0 -95 0 0 35
0 35 -60 0 c-57 0 -60 1 -60 25 0 31 13 32 40 2 l21 -22 -3 55 c-3 52 -5 55
-30 58 -23 3 -28 -1 -28 -17 0 -23 15 -28 23 -8 4 9 8 8 16 -3 18 -26 12 -30
-44 -30 -54 0 -55 0 -55 30 0 28 -3 30 -35 30 l-35 0 0 250 0 250 35 0 c32 0
35 2 35 30 0 27 3 30 30 30 27 0 30 3 30 30 l0 30 60 0 60 0 0 -30z m170 0 c0
-4 -9 -10 -20 -13 -15 -4 -20 0 -20 13 0 13 5 17 20 13 11 -3 20 -9 20 -13z
m-110 0 c0 -5 -9 -10 -20 -10 -11 0 -20 5 -20 10 0 6 9 10 20 10 11 0 20 -4
20 -10z m-260 -50 c0 -15 -7 -20 -25 -20 -18 0 -25 5 -25 20 0 15 7 20 25 20
18 0 25 -5 25 -20z m450 -69 c0 -14 -5 -18 -20 -14 -23 6 -26 19 -7 26 22 9
27 7 27 -12z m171 9 c20 0 7 -18 -16 -22 -20 -4 -25 -1 -25 14 0 14 5 18 16
14 9 -3 20 -6 25 -6z m-231 -10 c0 -5 -9 -10 -20 -10 -11 0 -20 5 -20 10 0 6
9 10 20 10 11 0 20 -4 20 -10z m170 -30 l0 -40 -45 0 -45 0 0 40 0 40 45 0 45
0 0 -40z m140 30 c0 -5 -13 -10 -30 -10 -16 0 -30 5 -30 10 0 6 14 10 30 10
17 0 30 -4 30 -10z m-250 -95 l0 -65 65 0 65 0 0 65 0 65 90 0 90 0 0 -190 0
-190 -90 0 -90 0 0 95 0 95 -65 0 -65 0 0 -95 0 -95 -60 0 -60 0 0 190 0 190
60 0 60 0 0 -65z m110 -20 c0 -23 -4 -25 -45 -25 -41 0 -45 2 -45 25 0 23 4
25 45 25 41 0 45 -2 45 -25z m0 -129 c0 -2 3 -11 6 -20 5 -13 -3 -16 -50 -16
-31 0 -56 2 -56 4 0 25 16 36 56 36 24 0 44 -2 44 -4z m0 -131 l0 -75 -45 0
-45 0 0 75 0 75 45 0 45 0 0 -75z m-110 -60 c0 -8 -9 -15 -20 -15 -25 0 -26
17 -2 23 9 3 18 5 20 6 1 0 2 -6 2 -14z m170 -6 c0 -5 -9 -9 -20 -9 -11 0 -20
6 -20 14 0 9 7 12 20 9 11 -3 20 -9 20 -14z m140 2 c0 -14 -5 -18 -20 -14 -25
7 -26 20 -2 26 9 3 18 5 20 6 1 0 2 -8 2 -18z m-370 -5 c0 -9 -7 -12 -20 -9
-11 3 -20 9 -20 14 0 5 9 9 20 9 11 0 20 -6 20 -14z m310 4 c0 -5 -13 -10 -30
-10 -16 0 -30 5 -30 10 0 6 14 10 30 10 17 0 30 -4 30 -10z m-390 -85 c0 -33
-4 -45 -15 -45 -11 0 -15 12 -15 45 0 33 4 45 15 45 11 0 15 -12 15 -45z m-50
-30 c0 -8 -9 -15 -20 -15 -25 0 -26 17 -2 23 9 3 18 5 20 6 1 0 2 -6 2 -14z
m-197 -15 c4 -16 0 -20 -19 -20 -17 0 -24 6 -24 20 0 13 7 20 19 20 10 0 21
-9 24 -20z m117 -65 c0 -18 -5 -25 -20 -25 -15 0 -20 7 -20 25 0 18 5 25 20
25 15 0 20 -7 20 -25z m271 8 c1 -17 2 -17 6 0 4 15 19 17 124 17 99 0 119 -3
119 -15 0 -8 5 -15 10 -15 6 0 10 7 10 15 0 8 9 15 20 15 15 0 20 -7 20 -25
l0 -25 -179 0 -178 0 5 25 c5 29 41 35 43 8z"/>
<path d="M560 840 c0 -5 5 -10 10 -10 6 0 10 5 10 10 0 6 -4 10 -10 10 -5 0
-10 -4 -10 -10z"/>
<path d="M220 833 c-10 -12 -11 -18 -2 -21 14 -4 16 -52 2 -52 -5 0 -10 6 -10
14 0 8 -4 18 -10 21 -6 4 -10 -12 -10 -39 0 -25 5 -46 10 -46 6 0 10 9 10 19
0 11 9 23 20 26 16 5 20 15 20 51 0 47 -6 53 -30 27z"/>
<path d="M142 734 c-23 -26 -8 -34 17 -9 14 16 18 25 10 25 -8 -1 -20 -7 -27
-16z"/>
<path d="M250 720 c0 -27 -3 -30 -30 -30 l-30 0 0 -190 0 -190 30 0 c27 0 30
-3 30 -30 l0 -30 60 0 60 0 0 250 0 250 -60 0 -60 0 0 -30z m44 -2 c5 -10 7
-10 12 0 9 19 41 14 47 -8 5 -18 0 -20 -43 -20 -43 0 -48 2 -43 20 6 23 18 26
27 8z m56 -218 l0 -170 -40 0 c-35 0 -40 3 -40 23 0 28 -17 47 -42 47 -16 0
-18 12 -18 135 l0 135 70 0 70 0 0 -170z m-100 -145 c0 -18 -5 -25 -20 -25
-15 0 -20 7 -20 25 0 18 5 25 20 25 15 0 20 -7 20 -25z m110 -49 c0 -32 -42
-50 -54 -23 -5 10 -7 10 -12 0 -9 -19 -21 -16 -27 7 -5 18 0 20 44 20 27 0 49
-2 49 -4z"/>
<path d="M80 680 c0 -12 47 -12 75 0 15 6 8 9 -27 9 -27 1 -48 -3 -48 -9z"/>
<path d="M88 623 c7 -3 16 -2 19 1 4 3 -2 6 -13 5 -11 0 -14 -3 -6 -6z"/>
<path d="M130 505 l0 -125 28 0 c23 1 25 2 11 13 -23 18 -31 47 -14 47 8 0 15
5 15 10 0 6 -4 10 -10 10 -14 0 -12 37 3 43 10 4 10 6 0 6 -7 1 -13 7 -13 15
0 8 6 17 13 20 10 5 10 7 0 12 -19 8 -16 45 5 60 15 12 14 13 -10 14 l-28 0 0
-125z"/>
<path d="M80 570 c0 -5 7 -10 15 -10 8 0 15 5 15 10 0 6 -7 10 -15 10 -8 0
-15 -4 -15 -10z"/>
<path d="M88 493 c7 -3 16 -2 19 1 4 3 -2 6 -13 5 -11 0 -14 -3 -6 -6z"/>
<path d="M80 430 c0 -5 7 -10 15 -10 8 0 15 5 15 10 0 6 -7 10 -15 10 -8 0
-15 -4 -15 -10z"/>
<path d="M80 390 c0 -5 9 -10 21 -10 11 0 17 5 14 10 -3 6 -13 10 -21 10 -8 0
-14 -4 -14 -10z"/>
<path d="M121 344 c0 -11 3 -14 6 -6 3 7 2 16 -1 19 -3 4 -6 -2 -5 -13z"/>
<path d="M80 300 c0 -5 7 -10 15 -10 8 0 15 -4 15 -10 0 -5 5 -10 10 -10 6 0
10 9 10 20 0 15 -7 20 -25 20 -14 0 -25 -4 -25 -10z"/>
<path d="M145 300 c3 -5 10 -10 16 -10 5 0 9 5 9 10 0 6 -7 10 -16 10 -8 0
-12 -4 -9 -10z"/>
<path d="M310 220 c0 -5 5 -10 10 -10 6 0 10 5 10 10 0 6 -4 10 -10 10 -5 0
-10 -4 -10 -10z"/>
<path d="M560 214 c0 -8 5 -12 10 -9 6 3 10 10 10 16 0 5 -4 9 -10 9 -5 0 -10
-7 -10 -16z"/>
<path d="M810 210 c0 -13 7 -20 20 -20 24 0 25 6 6 26 -20 19 -26 18 -26 -6z"/>
<path d="M270 180 c0 -5 5 -10 10 -10 6 0 10 5 10 10 0 6 -4 10 -10 10 -5 0
-10 -4 -10 -10z"/>
<path d="M465 174 c17 -12 18 -16 5 -24 -8 -5 -11 -12 -8 -16 10 -9 38 21 38
40 0 11 -9 16 -27 16 -27 -1 -27 -1 -8 -16z"/>
<path d="M560 170 c0 -11 5 -20 10 -20 6 0 10 5 10 10 0 6 42 10 105 10 63 0
105 4 105 10 0 6 -45 10 -115 10 -108 0 -115 -1 -115 -20z"/>
<path d="M810 166 c0 -9 5 -16 10 -16 6 0 10 4 10 9 0 6 -4 13 -10 16 -5 3
-10 -1 -10 -9z"/>
<path d="M370 95 c0 -8 5 -15 10 -15 6 0 10 7 10 15 0 8 -4 15 -10 15 -5 0
-10 -7 -10 -15z"/>
<path d="M441 94 c0 -11 3 -14 6 -6 3 7 2 16 -1 19 -3 4 -6 -2 -5 -13z"/>
<path d="M810 500 c0 -118 3 -179 10 -175 6 4 10 73 10 175 0 102 -4 171 -10
175 -7 4 -10 -57 -10 -175z"/>
<path d="M500 615 c0 -48 2 -55 20 -55 11 0 20 5 20 10 0 6 -4 10 -10 10 -15
0 -12 47 3 53 10 4 10 6 0 6 -7 1 -13 8 -13 16 0 8 -4 15 -10 15 -5 0 -10 -25
-10 -55z"/>
<path d="M730 656 c0 -8 -6 -17 -12 -19 -10 -4 -10 -6 0 -6 14 -1 17 -51 2
-51 -5 0 -10 -4 -10 -10 0 -5 9 -10 20 -10 18 0 20 7 20 55 0 30 -4 55 -10 55
-5 0 -10 -6 -10 -14z"/>
<path d="M500 473 l0 -27 20 22 c11 12 20 24 20 27 0 3 -9 5 -20 5 -15 0 -20
-7 -20 -27z"/>
<path d="M710 495 c0 -3 9 -15 20 -27 l20 -22 0 27 c0 20 -5 27 -20 27 -11 0
-20 -2 -20 -5z"/>
<path d="M500 385 c0 -30 5 -55 10 -55 6 0 10 20 10 45 0 25 5 45 10 45 6 0
10 5 10 10 0 6 -9 10 -20 10 -18 0 -20 -7 -20 -55z"/>
<path d="M710 430 c0 -5 5 -10 10 -10 6 0 10 -20 10 -45 0 -25 5 -45 10 -45 6
0 10 25 10 55 0 48 -2 55 -20 55 -11 0 -20 -4 -20 -10z"/>
<path d="M940 859 c0 -5 5 -7 10 -4 6 3 10 8 10 11 0 2 -4 4 -10 4 -5 0 -10
-5 -10 -11z"/>
<path d="M940 790 c0 -11 2 -20 4 -20 2 0 6 9 9 20 3 11 1 20 -4 20 -5 0 -9
-9 -9 -20z"/>
<path d="M941 473 l-1 -283 33 1 c29 1 30 2 7 8 l-25 7 -2 259 c-2 143 -4 267
-7 275 -2 8 -4 -112 -5 -267z"/>
</g>
</svg>
