<?xml version="1.0" standalone="no"?>
<!DOCTYPE svg PUBLIC "-//W3C//DTD SVG 20010904//EN"
 "http://www.w3.org/TR/2001/REC-SVG-20010904/DTD/svg10.dtd">
<svg version="1.0" xmlns="http://www.w3.org/2000/svg"
 width="192.000000pt" height="192.000000pt" viewBox="0 0 192.000000 192.000000"
 preserveAspectRatio="xMidYMid meet">
<metadata>
Created by potrace 1.16, written by Peter Selinger 2001-2019
</metadata>
<g transform="translate(0.000000,192.000000) scale(0.100000,-0.100000)"
fill="#000000" stroke="none">
<path d="M3 1866 c0 -21 5 -26 36 -29 l36 -4 -36 -1 -36 -2 1 -55 1 -55 786 0
c621 0 788 3 792 13 4 10 6 10 6 0 1 -10 41 -13 165 -13 l164 0 0 25 c-1 14
-7 26 -17 28 -14 4 -14 5 2 6 11 1 17 9 17 26 l0 25 -212 1 c-117 1 -205 3
-195 6 10 3 17 14 17 29 0 33 -47 35 -53 2 l-4 -23 -2 23 c-1 21 -5 22 -86 22
-84 0 -85 0 -85 -25 0 -23 3 -24 78 -28 45 -2 24 -3 -53 -4 -71 0 -122 1 -112
4 10 3 17 14 17 29 0 33 -47 35 -53 2 l-4 -23 -2 23 c-1 21 -5 22 -86 22 -84
0 -85 0 -85 -25 0 -23 3 -24 78 -28 69 -3 66 -3 -23 -4 -55 0 -92 1 -82 4 10
3 17 14 17 29 0 33 -47 35 -53 2 l-4 -23 -2 23 c-1 21 -5 22 -86 22 -84 0 -85
0 -85 -25 0 -23 3 -24 78 -28 45 -2 24 -3 -53 -4 -71 0 -122 1 -112 4 10 3 17
14 17 29 0 33 -47 35 -53 2 l-4 -23 -2 23 c-1 21 -5 22 -86 22 -84 0 -85 0
-85 -25 0 -23 3 -24 78 -28 69 -3 66 -3 -23 -4 -55 0 -92 1 -82 4 10 3 17 14
17 29 0 33 -47 35 -53 2 l-4 -23 -2 23 c-1 21 -5 22 -86 22 -84 0 -85 0 -85
-25 0 -23 3 -24 78 -28 45 -2 24 -3 -53 -4 -72 0 -122 1 -112 4 10 3 17 14 17
29 0 33 -47 35 -53 2 l-4 -23 -2 23 c-1 19 -6 22 -45 22 -39 0 -43 -2 -43 -24z
m94 -58 c-3 -8 -6 -5 -6 6 -1 11 2 17 5 13 3 -3 4 -12 1 -19z m300 0 c-3 -8
-6 -5 -6 6 -1 11 2 17 5 13 3 -3 4 -12 1 -19z m240 0 c-3 -8 -6 -5 -6 6 -1 11
2 17 5 13 3 -3 4 -12 1 -19z m300 0 c-3 -8 -6 -5 -6 6 -1 11 2 17 5 13 3 -3 4
-12 1 -19z m240 0 c-3 -8 -6 -5 -6 6 -1 11 2 17 5 13 3 -3 4 -12 1 -19z m300
0 c-3 -8 -6 -5 -6 6 -1 11 2 17 5 13 3 -3 4 -12 1 -19z m-1404 -35 c-7 -2 -21
-2 -30 0 -10 3 -4 5 12 5 17 0 24 -2 18 -5z m84 1 c-3 -3 -12 -4 -19 -1 -8 3
-5 6 6 6 11 1 17 -2 13 -5z m446 -1 c-7 -2 -19 -2 -25 0 -7 3 -2 5 12 5 14 0
19 -2 13 -5z m94 1 c-3 -3 -12 -4 -19 -1 -8 3 -5 6 6 6 11 1 17 -2 13 -5z
m446 -1 c-7 -2 -19 -2 -25 0 -7 3 -2 5 12 5 14 0 19 -2 13 -5z m94 1 c-3 -3
-12 -4 -19 -1 -8 3 -5 6 6 6 11 1 17 -2 13 -5z m216 -1 c-7 -2 -21 -2 -30 0
-10 3 -4 5 12 5 17 0 24 -2 18 -5z m84 1 c-3 -3 -12 -4 -19 -1 -8 3 -5 6 6 6
11 1 17 -2 13 -5z m-1347 -19 c0 -8 -4 -15 -10 -15 -5 0 -7 7 -4 15 4 8 8 15
10 15 2 0 4 -7 4 -15z m60 0 c0 -8 -4 -15 -10 -15 -5 0 -7 7 -4 15 4 8 8 15
10 15 2 0 4 -7 4 -15z m60 0 c0 -8 -4 -15 -10 -15 -5 0 -7 7 -4 15 4 8 8 15
10 15 2 0 4 -7 4 -15z m50 -8 c10 -4 8 -6 -7 -6 -16 -1 -23 5 -23 17 0 10 3
13 8 6 4 -6 14 -14 22 -17z m70 8 c0 -8 -9 -15 -21 -15 -11 0 -17 5 -14 10 4
6 11 8 16 5 5 -4 9 -1 9 4 0 6 2 11 5 11 3 0 5 -7 5 -15z m60 0 c0 -8 -4 -15
-10 -15 -5 0 -7 7 -4 15 4 8 8 15 10 15 2 0 4 -7 4 -15z m60 0 c0 -8 -4 -15
-10 -15 -5 0 -7 7 -4 15 4 8 8 15 10 15 2 0 4 -7 4 -15z m119 -12 c2 -2 -5 -3
-17 -3 -14 0 -22 6 -22 16 0 14 3 15 18 3 9 -7 19 -15 21 -16z m61 12 c0 -8
-4 -15 -10 -15 -5 0 -7 7 -4 15 4 8 8 15 10 15 2 0 4 -7 4 -15z m60 0 c0 -8
-4 -15 -10 -15 -5 0 -7 7 -4 15 4 8 8 15 10 15 2 0 4 -7 4 -15z m60 0 c0 -8
-4 -15 -10 -15 -5 0 -7 7 -4 15 4 8 8 15 10 15 2 0 4 -7 4 -15z m50 -8 c10 -4
8 -6 -7 -6 -16 -1 -23 5 -23 17 0 10 3 13 8 6 4 -6 14 -14 22 -17z m70 8 c0
-8 -9 -15 -21 -15 -11 0 -17 5 -14 10 4 6 11 8 16 5 5 -4 9 -1 9 4 0 6 2 11 5
11 3 0 5 -7 5 -15z m60 0 c0 -8 -4 -15 -10 -15 -5 0 -7 7 -4 15 4 8 8 15 10
15 2 0 4 -7 4 -15z m60 0 c0 -8 -4 -15 -10 -15 -5 0 -7 7 -4 15 4 8 8 15 10
15 2 0 4 -7 4 -15z m119 -12 c2 -2 -5 -3 -17 -3 -14 0 -22 6 -22 16 0 14 3 15
18 3 9 -7 19 -15 21 -16z m61 12 c0 -8 -4 -15 -10 -15 -5 0 -7 7 -4 15 4 8 8
15 10 15 2 0 4 -7 4 -15z m60 0 c0 -8 -4 -15 -10 -15 -5 0 -7 7 -4 15 4 8 8
15 10 15 2 0 4 -7 4 -15z m60 0 c0 -8 -4 -15 -10 -15 -5 0 -7 7 -4 15 4 8 8
15 10 15 2 0 4 -7 4 -15z m240 0 c0 -8 -4 -15 -10 -15 -5 0 -7 7 -4 15 4 8 8
15 10 15 2 0 4 -7 4 -15z m60 0 c0 -8 -4 -15 -10 -15 -5 0 -7 7 -4 15 4 8 8
15 10 15 2 0 4 -7 4 -15z m50 -8 c10 -4 8 -6 -7 -6 -16 -1 -23 5 -23 17 0 10
3 13 8 6 4 -6 14 -14 22 -17z m70 8 c0 -8 -9 -15 -21 -15 -11 0 -17 5 -14 10
4 6 11 8 16 5 5 -4 9 -1 9 4 0 6 2 11 5 11 3 0 5 -7 5 -15z m60 0 c0 -8 -4
-15 -10 -15 -5 0 -7 7 -4 15 4 8 8 15 10 15 2 0 4 -7 4 -15z m-1740 -11 c0 -2
-9 -4 -21 -4 -11 0 -18 4 -14 10 5 8 35 3 35 -6z m1380 0 c0 -2 -9 -4 -21 -4
-11 0 -18 4 -14 10 5 8 35 3 35 -6z m-1447 -1 c-7 -2 -19 -2 -25 0 -7 3 -2 5
12 5 14 0 19 -2 13 -5z m1380 0 c-7 -2 -19 -2 -25 0 -7 3 -2 5 12 5 14 0 19
-2 13 -5z"/>
<path d="M160 1865 c0 -20 5 -25 25 -25 20 0 25 5 25 25 0 20 -5 25 -25 25
-20 0 -25 -5 -25 -25z"/>
<path d="M700 1865 c0 -20 5 -25 25 -25 20 0 25 5 25 25 0 20 -5 25 -25 25
-20 0 -25 -5 -25 -25z"/>
<path d="M1240 1865 c0 -20 5 -25 25 -25 20 0 25 5 25 25 0 20 -5 25 -25 25
-20 0 -25 -5 -25 -25z"/>
<path d="M1540 1865 l0 -25 115 0 115 0 0 25 0 25 -115 0 -115 0 0 -25z"/>
<path d="M1780 1865 c0 -20 5 -25 25 -25 20 0 25 5 25 25 0 20 -5 25 -25 25
-20 0 -25 -5 -25 -25z"/>
<path d="M1840 1865 c0 -22 4 -25 40 -25 36 0 40 3 40 25 0 23 -4 25 -40 25
-36 0 -40 -2 -40 -25z"/>
<path d="M0 1701 c0 -6 17 -12 38 -14 l37 -4 -37 -1 c-21 -1 -38 -6 -38 -12 0
-7 327 -10 960 -10 870 0 1017 4 943 23 -17 4 -17 5 0 6 9 0 17 6 17 11 0 7
-327 10 -960 10 -592 0 -960 -4 -960 -9z m123 -18 c-7 -2 -19 -2 -25 0 -7 3
-2 5 12 5 14 0 19 -2 13 -5z m60 0 c-7 -2 -19 -2 -25 0 -7 3 -2 5 12 5 14 0
19 -2 13 -5z m60 0 c-7 -2 -19 -2 -25 0 -7 3 -2 5 12 5 14 0 19 -2 13 -5z
m105 0 c-16 -2 -40 -2 -55 0 -16 2 -3 4 27 4 30 0 43 -2 28 -4z m75 0 c-7 -2
-19 -2 -25 0 -7 3 -2 5 12 5 14 0 19 -2 13 -5z m60 0 c-7 -2 -19 -2 -25 0 -7
3 -2 5 12 5 14 0 19 -2 13 -5z m60 0 c-7 -2 -19 -2 -25 0 -7 3 -2 5 12 5 14 0
19 -2 13 -5z m60 0 c-7 -2 -19 -2 -25 0 -7 3 -2 5 12 5 14 0 19 -2 13 -5z m60
0 c-7 -2 -19 -2 -25 0 -7 3 -2 5 12 5 14 0 19 -2 13 -5z m60 0 c-7 -2 -19 -2
-25 0 -7 3 -2 5 12 5 14 0 19 -2 13 -5z m60 0 c-7 -2 -19 -2 -25 0 -7 3 -2 5
12 5 14 0 19 -2 13 -5z m105 0 c-16 -2 -40 -2 -55 0 -16 2 -3 4 27 4 30 0 43
-2 28 -4z m75 0 c-7 -2 -19 -2 -25 0 -7 3 -2 5 12 5 14 0 19 -2 13 -5z m60 0
c-7 -2 -19 -2 -25 0 -7 3 -2 5 12 5 14 0 19 -2 13 -5z m60 0 c-7 -2 -19 -2
-25 0 -7 3 -2 5 12 5 14 0 19 -2 13 -5z m60 0 c-7 -2 -19 -2 -25 0 -7 3 -2 5
12 5 14 0 19 -2 13 -5z m60 0 c-7 -2 -19 -2 -25 0 -7 3 -2 5 12 5 14 0 19 -2
13 -5z m60 0 c-7 -2 -19 -2 -25 0 -7 3 -2 5 12 5 14 0 19 -2 13 -5z m60 0 c-7
-2 -19 -2 -25 0 -7 3 -2 5 12 5 14 0 19 -2 13 -5z m105 0 c-16 -2 -40 -2 -55
0 -16 2 -3 4 27 4 30 0 43 -2 28 -4z m75 0 c-7 -2 -19 -2 -25 0 -7 3 -2 5 12
5 14 0 19 -2 13 -5z m60 0 c-7 -2 -19 -2 -25 0 -7 3 -2 5 12 5 14 0 19 -2 13
-5z m60 0 c-7 -2 -19 -2 -25 0 -7 3 -2 5 12 5 14 0 19 -2 13 -5z m105 0 c-16
-2 -40 -2 -55 0 -16 2 -3 4 27 4 30 0 43 -2 28 -4z m75 0 c-7 -2 -19 -2 -25 0
-7 3 -2 5 12 5 14 0 19 -2 13 -5z m60 0 c-7 -2 -19 -2 -25 0 -7 3 -2 5 12 5
14 0 19 -2 13 -5z"/>
<path d="M3 1625 c0 -23 3 -25 43 -25 40 0 44 2 44 25 0 23 -4 25 -44 25 -40
0 -43 -2 -43 -25z"/>
<path d="M100 1625 c0 -20 5 -25 25 -25 20 0 25 5 25 25 0 20 -5 25 -25 25
-20 0 -25 -5 -25 -25z"/>
<path d="M160 1625 l0 -25 115 0 115 0 0 25 0 25 -115 0 -115 0 0 -25z m87 -1
c-3 -3 -12 -4 -19 -1 -8 3 -5 6 6 6 11 1 17 -2 13 -5z"/>
<path d="M400 1625 c0 -24 3 -25 55 -25 52 0 55 1 55 25 0 24 -3 25 -55 25
-52 0 -55 -1 -55 -25z m87 -1 c-3 -3 -12 -4 -19 -1 -8 3 -5 6 6 6 11 1 17 -2
13 -5z"/>
<path d="M520 1625 c0 -24 3 -25 55 -25 52 0 55 1 55 25 0 24 -3 25 -55 25
-52 0 -55 -1 -55 -25z"/>
<path d="M640 1625 c0 -20 5 -25 25 -25 20 0 25 5 25 25 0 20 -5 25 -25 25
-20 0 -25 -5 -25 -25z"/>
<path d="M700 1625 l0 -25 115 0 115 0 0 25 0 25 -115 0 -115 0 0 -25z m87 -1
c-3 -3 -12 -4 -19 -1 -8 3 -5 6 6 6 11 1 17 -2 13 -5z"/>
<path d="M940 1625 c0 -24 3 -25 55 -25 52 0 55 1 55 25 0 24 -3 25 -55 25
-52 0 -55 -1 -55 -25z m87 -1 c-3 -3 -12 -4 -19 -1 -8 3 -5 6 6 6 11 1 17 -2
13 -5z"/>
<path d="M1060 1625 c0 -24 3 -25 55 -25 52 0 55 1 55 25 0 24 -3 25 -55 25
-52 0 -55 -1 -55 -25z"/>
<path d="M1180 1625 c0 -20 5 -25 25 -25 20 0 25 5 25 25 0 20 -5 25 -25 25
-20 0 -25 -5 -25 -25z"/>
<path d="M1240 1625 l0 -25 115 0 115 0 0 25 0 25 -115 0 -115 0 0 -25z m87
-1 c-3 -3 -12 -4 -19 -1 -8 3 -5 6 6 6 11 1 17 -2 13 -5z"/>
<path d="M1480 1625 c0 -24 3 -25 55 -25 52 0 55 1 55 25 0 24 -3 25 -55 25
-52 0 -55 -1 -55 -25z m87 -1 c-3 -3 -12 -4 -19 -1 -8 3 -5 6 6 6 11 1 17 -2
13 -5z"/>
<path d="M1600 1625 c0 -25 1 -25 85 -25 84 0 85 0 85 25 0 25 -1 25 -85 25
-84 0 -85 0 -85 -25z"/>
<path d="M1780 1625 c0 -24 2 -25 70 -25 68 0 70 1 70 25 0 24 -2 25 -70 25
-68 0 -70 -1 -70 -25z m87 -1 c-3 -3 -12 -4 -19 -1 -8 3 -5 6 6 6 11 1 17 -2
13 -5z"/>
<path d="M4 1505 l1 -85 102 0 c115 0 113 -2 97 78 -6 28 -11 31 -48 35 -22 2
247 4 599 4 352 0 630 -2 618 -4 -13 -2 -24 -13 -26 -26 l-4 -22 -2 23 c-1 30
-51 32 -51 2 0 -14 -7 -20 -24 -20 -24 0 -36 -16 -36 -51 0 -18 12 -19 344
-19 l344 0 0 25 c-1 14 -7 26 -17 28 -15 4 -15 5 0 6 11 1 17 10 17 26 0 31
-25 33 -31 3 -4 -23 -4 -23 -6 -1 -1 18 -8 23 -38 26 -28 3 -23 4 20 5 54 2
57 3 57 27 l0 25 -958 0 -959 0 1 -85z m1639 28 c-46 -4 -53 -7 -54 -26 l-2
-22 -4 22 c-3 18 -13 23 -46 26 -23 2 3 3 58 3 55 0 76 -1 48 -3z m-1523 -26
c10 -4 8 -6 -7 -6 -16 -1 -23 5 -23 17 0 10 3 13 8 6 4 -6 14 -14 22 -17z
m1380 0 c10 -4 8 -6 -7 -6 -16 -1 -23 5 -23 17 0 10 3 13 8 6 4 -6 14 -14 22
-17z m240 0 c10 -4 8 -6 -7 -6 -16 -1 -23 5 -23 17 0 10 3 13 8 6 4 -6 14 -14
22 -17z m69 -4 c2 -2 -5 -3 -17 -3 -14 0 -22 6 -22 16 0 14 3 15 18 3 9 -7 19
-15 21 -16z m-1736 -30 c-7 -2 -21 -2 -30 0 -10 3 -4 5 12 5 17 0 24 -2 18 -5z
m84 1 c-3 -3 -12 -4 -19 -1 -8 3 -5 6 6 6 11 1 17 -2 13 -5z m1281 -1 c-15 -2
-42 -2 -60 0 -18 2 -6 4 27 4 33 0 48 -2 33 -4z m99 1 c-3 -3 -12 -4 -19 -1
-8 3 -5 6 6 6 11 1 17 -2 13 -5z m156 -1 c-7 -2 -21 -2 -30 0 -10 3 -4 5 12 5
17 0 24 -2 18 -5z m-1503 -18 c0 -8 -4 -15 -10 -15 -5 0 -7 7 -4 15 4 8 8 15
10 15 2 0 4 -7 4 -15z m1080 0 c0 -8 -4 -15 -10 -15 -5 0 -7 7 -4 15 4 8 8 15
10 15 2 0 4 -7 4 -15z m60 0 c0 -8 -4 -15 -10 -15 -5 0 -7 7 -4 15 4 8 8 15
10 15 2 0 4 -7 4 -15z m240 0 c0 -8 -4 -15 -10 -15 -5 0 -7 7 -4 15 4 8 8 15
10 15 2 0 4 -7 4 -15z m60 0 c0 -8 -4 -15 -10 -15 -5 0 -7 7 -4 15 4 8 8 15
10 15 2 0 4 -7 4 -15z m180 0 c0 -8 -9 -15 -21 -15 -11 0 -17 5 -14 10 4 6 11
8 16 5 5 -4 9 -1 9 4 0 6 2 11 5 11 3 0 5 -7 5 -15z m60 0 c0 -8 -4 -15 -10
-15 -5 0 -7 7 -4 15 4 8 8 15 10 15 2 0 4 -7 4 -15z m-1740 -11 c0 -2 -9 -4
-21 -4 -11 0 -18 4 -14 10 5 8 35 3 35 -6z m1380 0 c0 -2 -9 -4 -21 -4 -11 0
-18 4 -14 10 5 8 35 3 35 -6z m240 0 c0 -2 -9 -4 -21 -4 -11 0 -18 4 -14 10 5
8 35 3 35 -6z m-1687 -1 c-7 -2 -19 -2 -25 0 -7 3 -2 5 12 5 14 0 19 -2 13 -5z
m1380 0 c-7 -2 -19 -2 -25 0 -7 3 -2 5 12 5 14 0 19 -2 13 -5z m240 0 c-7 -2
-19 -2 -25 0 -7 3 -2 5 12 5 14 0 19 -2 13 -5z"/>
<path d="M3 1385 c0 -23 3 -25 43 -25 40 0 44 2 44 25 0 23 -4 25 -44 25 -40
0 -43 -2 -43 -25z"/>
<path d="M100 1385 l0 -25 145 0 145 0 0 25 0 25 -145 0 -145 0 0 -25z m87 -1
c-3 -3 -12 -4 -19 -1 -8 3 -5 6 6 6 11 1 17 -2 13 -5z m106 -1 c-13 -2 -35 -2
-50 0 -16 2 -5 4 22 4 28 0 40 -2 28 -4z"/>
<path d="M400 1385 l0 -25 115 0 115 0 0 25 0 25 -115 0 -115 0 0 -25z m87 -1
c-3 -3 -12 -4 -19 -1 -8 3 -5 6 6 6 11 1 17 -2 13 -5z m60 0 c-3 -3 -12 -4
-19 -1 -8 3 -5 6 6 6 11 1 17 -2 13 -5z"/>
<path d="M640 1385 l0 -25 145 0 145 0 0 25 0 25 -145 0 -145 0 0 -25z m87 -1
c-3 -3 -12 -4 -19 -1 -8 3 -5 6 6 6 11 1 17 -2 13 -5z m60 0 c-3 -3 -12 -4
-19 -1 -8 3 -5 6 6 6 11 1 17 -2 13 -5z m60 0 c-3 -3 -12 -4 -19 -1 -8 3 -5 6
6 6 11 1 17 -2 13 -5z"/>
<path d="M940 1385 l0 -25 115 0 115 0 0 25 0 25 -115 0 -115 0 0 -25z m87 -1
c-3 -3 -12 -4 -19 -1 -8 3 -5 6 6 6 11 1 17 -2 13 -5z m60 0 c-3 -3 -12 -4
-19 -1 -8 3 -5 6 6 6 11 1 17 -2 13 -5z"/>
<path d="M1180 1385 l0 -25 145 0 145 0 0 25 0 25 -145 0 -145 0 0 -25z m87
-1 c-3 -3 -12 -4 -19 -1 -8 3 -5 6 6 6 11 1 17 -2 13 -5z m60 0 c-3 -3 -12 -4
-19 -1 -8 3 -5 6 6 6 11 1 17 -2 13 -5z m60 0 c-3 -3 -12 -4 -19 -1 -8 3 -5 6
6 6 11 1 17 -2 13 -5z"/>
<path d="M1480 1385 l0 -25 220 0 c197 0 250 6 208 23 -10 4 -10 6 0 6 6 1 12
6 12 11 0 6 -80 10 -220 10 l-220 0 0 -25z m87 -1 c-3 -3 -12 -4 -19 -1 -8 3
-5 6 6 6 11 1 17 -2 13 -5z m106 -1 c-13 -2 -35 -2 -50 0 -16 2 -5 4 22 4 28
0 40 -2 28 -4z m134 1 c-3 -3 -12 -4 -19 -1 -8 3 -5 6 6 6 11 1 17 -2 13 -5z
m60 0 c-3 -3 -12 -4 -19 -1 -8 3 -5 6 6 6 11 1 17 -2 13 -5z"/>
<path d="M3 1326 c0 -21 5 -26 36 -29 l36 -4 -36 -1 -36 -2 1 -55 1 -55 96 0
c69 0 99 4 102 13 4 10 6 10 6 0 1 -10 91 -13 415 -13 322 0 415 3 419 13 4
10 6 10 6 0 1 -19 527 -19 534 0 4 10 6 10 6 0 1 -10 41 -13 165 -13 l164 0 0
25 c-1 14 -7 26 -17 28 -14 4 -14 5 2 6 11 1 17 9 17 26 l0 25 -212 1 c-117 1
-205 3 -195 6 10 3 17 14 17 29 0 33 -47 35 -53 2 l-4 -23 -2 23 c-1 21 -5 22
-86 22 -84 0 -85 0 -85 -25 0 -23 3 -24 78 -28 45 -2 24 -3 -53 -4 -71 0 -122
1 -112 4 10 3 17 14 17 29 0 19 -5 24 -25 24 -18 0 -25 -5 -25 -20 0 -11 -7
-20 -15 -20 -10 0 -15 -10 -15 -30 0 -19 -5 -30 -14 -30 -8 0 -17 -6 -19 -12
-4 -10 -6 -10 -6 0 -1 6 -12 12 -25 12 -13 0 -27 -6 -29 -12 -4 -10 -6 -10 -6
0 -1 16 -48 16 -54 0 -4 -10 -6 -10 -6 0 -1 15 -35 16 -64 1 -16 -9 -22 -9
-25 0 -5 15 -79 14 -85 -1 -4 -10 -6 -10 -6 0 -1 6 -12 12 -25 12 -13 0 -27
-6 -29 -12 -4 -10 -6 -10 -6 0 -1 6 -12 12 -25 12 -13 0 -26 -6 -29 -12 -3
-10 -9 -10 -26 0 -25 14 -61 16 -61 2 0 -5 -9 -10 -20 -10 -11 0 -20 5 -20 10
0 15 -47 12 -53 -2 -4 -10 -6 -10 -6 0 -1 6 -12 12 -25 12 -13 0 -27 -6 -29
-12 -4 -10 -6 -10 -6 0 -1 15 -35 16 -64 1 -16 -9 -22 -9 -25 0 -5 15 -79 14
-85 -1 -4 -10 -6 -10 -6 0 -1 6 -12 12 -25 12 -13 0 -27 -6 -29 -12 -4 -10 -6
-10 -6 0 -1 15 -48 16 -53 0 -2 -6 -12 -9 -21 -5 -22 8 -24 67 -2 67 9 0 15 9
15 25 0 34 -46 36 -53 3 l-4 -23 -2 23 c-1 19 -6 22 -45 22 -39 0 -43 -2 -43
-24z m94 -58 c-3 -8 -6 -5 -6 6 -1 11 2 17 5 13 3 -3 4 -12 1 -19z m1080 0
c-3 -8 -6 -5 -6 6 -1 11 2 17 5 13 3 -3 4 -12 1 -19z m300 0 c-3 -8 -6 -5 -6
6 -1 11 2 17 5 13 3 -3 4 -12 1 -19z m-1414 -35 c-7 -2 -19 -2 -25 0 -7 3 -2
5 12 5 14 0 19 -2 13 -5z m1170 0 c-7 -2 -19 -2 -25 0 -7 3 -2 5 12 5 14 0 19
-2 13 -5z m304 1 c-3 -3 -12 -4 -19 -1 -8 3 -5 6 6 6 11 1 17 -2 13 -5z
m-1408 -31 c2 -2 -5 -3 -17 -3 -14 0 -22 6 -22 16 0 14 3 15 18 3 9 -7 19 -15
21 -16z m121 12 c0 -8 -4 -15 -10 -15 -5 0 -7 7 -4 15 4 8 8 15 10 15 2 0 4
-7 4 -15z m60 0 c0 -8 -4 -15 -10 -15 -5 0 -7 7 -4 15 4 8 8 15 10 15 2 0 4
-7 4 -15z m50 -8 c10 -4 8 -6 -7 -6 -16 -1 -23 5 -23 17 0 10 3 13 8 6 4 -6
14 -14 22 -17z m70 8 c0 -8 -9 -15 -21 -15 -11 0 -17 5 -14 10 4 6 11 8 16 5
5 -4 9 -1 9 4 0 6 2 11 5 11 3 0 5 -7 5 -15z m60 0 c0 -8 -4 -15 -10 -15 -5 0
-7 7 -4 15 4 8 8 15 10 15 2 0 4 -7 4 -15z m60 0 c0 -8 -4 -15 -10 -15 -5 0
-7 7 -4 15 4 8 8 15 10 15 2 0 4 -7 4 -15z m119 -12 c2 -2 -5 -3 -17 -3 -14 0
-22 6 -22 16 0 14 3 15 18 3 9 -7 19 -15 21 -16z m61 12 c0 -8 -4 -15 -10 -15
-5 0 -7 7 -4 15 4 8 8 15 10 15 2 0 4 -7 4 -15z m60 0 c0 -8 -4 -15 -10 -15
-5 0 -7 7 -4 15 4 8 8 15 10 15 2 0 4 -7 4 -15z m60 0 c0 -8 -4 -15 -10 -15
-5 0 -7 7 -4 15 4 8 8 15 10 15 2 0 4 -7 4 -15z m50 -8 c10 -4 8 -6 -7 -6 -16
-1 -23 5 -23 17 0 10 3 13 8 6 4 -6 14 -14 22 -17z m70 8 c0 -8 -9 -15 -21
-15 -11 0 -17 5 -14 10 4 6 11 8 16 5 5 -4 9 -1 9 4 0 6 2 11 5 11 3 0 5 -7 5
-15z m120 0 c0 -8 -4 -15 -10 -15 -5 0 -7 7 -4 15 4 8 8 15 10 15 2 0 4 -7 4
-15z m60 0 c0 -8 -4 -15 -10 -15 -5 0 -7 7 -4 15 4 8 8 15 10 15 2 0 4 -7 4
-15z m50 -8 c10 -4 8 -6 -7 -6 -16 -1 -23 5 -23 17 0 10 3 13 8 6 4 -6 14 -14
22 -17z m70 8 c0 -8 -4 -15 -10 -15 -5 0 -7 7 -4 15 4 8 8 15 10 15 2 0 4 -7
4 -15z m60 0 c0 -8 -4 -15 -10 -15 -5 0 -7 7 -4 15 4 8 8 15 10 15 2 0 4 -7 4
-15z m60 0 c0 -8 -4 -15 -10 -15 -5 0 -7 7 -4 15 4 8 8 15 10 15 2 0 4 -7 4
-15z m50 -8 c10 -4 8 -6 -7 -6 -16 -1 -23 5 -23 17 0 10 3 13 8 6 4 -6 14 -14
22 -17z m190 8 c0 -8 -4 -15 -10 -15 -5 0 -7 7 -4 15 4 8 8 15 10 15 2 0 4 -7
4 -15z m60 0 c0 -8 -4 -15 -10 -15 -5 0 -7 7 -4 15 4 8 8 15 10 15 2 0 4 -7 4
-15z m50 -8 c10 -4 8 -6 -7 -6 -16 -1 -23 5 -23 17 0 10 3 13 8 6 4 -6 14 -14
22 -17z m70 8 c0 -8 -9 -15 -21 -15 -11 0 -17 5 -14 10 4 6 11 8 16 5 5 -4 9
-1 9 4 0 6 2 11 5 11 3 0 5 -7 5 -15z m60 0 c0 -8 -4 -15 -10 -15 -5 0 -7 7
-4 15 4 8 8 15 10 15 2 0 4 -7 4 -15z m-360 -11 c0 -2 -9 -4 -21 -4 -11 0 -18
4 -14 10 5 8 35 3 35 -6z"/>
<path d="M1240 1325 c0 -20 5 -25 25 -25 20 0 25 5 25 25 0 20 -5 25 -25 25
-20 0 -25 -5 -25 -25z"/>
<path d="M1540 1325 c0 -20 5 -25 25 -25 20 0 25 5 25 25 0 20 -5 25 -25 25
-20 0 -25 -5 -25 -25z"/>
<path d="M1600 1325 c0 -25 1 -25 85 -25 84 0 85 0 85 25 0 25 -1 25 -85 25
-84 0 -85 0 -85 -25z"/>
<path d="M1780 1325 c0 -20 5 -25 25 -25 20 0 25 5 25 25 0 20 -5 25 -25 25
-20 0 -25 -5 -25 -25z"/>
<path d="M1840 1325 c0 -22 4 -25 40 -25 36 0 40 3 40 25 0 23 -4 25 -40 25
-36 0 -40 -2 -40 -25z"/>
<path d="M3 1145 c0 -15 5 -25 13 -25 8 0 14 10 14 25 0 15 -6 25 -14 25 -8 0
-13 -10 -13 -25z"/>
<path d="M1060 1145 l0 -25 430 0 c257 0 430 4 430 9 0 5 -8 12 -17 14 -17 4
-17 5 0 6 9 0 17 6 17 11 0 7 -150 10 -430 10 l-430 0 0 -25z m128 -2 c-16 -2
-40 -2 -55 0 -16 2 -3 4 27 4 30 0 43 -2 28 -4z m75 0 c-7 -2 -19 -2 -25 0 -7
3 -2 5 12 5 14 0 19 -2 13 -5z m60 0 c-7 -2 -19 -2 -25 0 -7 3 -2 5 12 5 14 0
19 -2 13 -5z m105 0 c-16 -2 -40 -2 -55 0 -16 2 -3 4 27 4 30 0 43 -2 28 -4z
m75 0 c-7 -2 -19 -2 -25 0 -7 3 -2 5 12 5 14 0 19 -2 13 -5z m60 0 c-7 -2 -19
-2 -25 0 -7 3 -2 5 12 5 14 0 19 -2 13 -5z m60 0 c-7 -2 -19 -2 -25 0 -7 3 -2
5 12 5 14 0 19 -2 13 -5z m105 0 c-16 -2 -40 -2 -55 0 -16 2 -3 4 27 4 30 0
43 -2 28 -4z m75 0 c-7 -2 -19 -2 -25 0 -7 3 -2 5 12 5 14 0 19 -2 13 -5z m60
0 c-7 -2 -19 -2 -25 0 -7 3 -2 5 12 5 14 0 19 -2 13 -5z"/>
<path d="M1040 1085 c0 -24 2 -25 65 -25 63 0 65 1 65 25 0 24 -2 25 -65 25
-63 0 -65 -1 -65 -25z m47 -1 c-3 -3 -12 -4 -19 -1 -8 3 -5 6 6 6 11 1 17 -2
13 -5z"/>
<path d="M1180 1085 c0 -20 5 -25 25 -25 20 0 25 5 25 25 0 20 -5 25 -25 25
-20 0 -25 -5 -25 -25z"/>
<path d="M1240 1085 l0 -25 115 0 115 0 0 25 0 25 -115 0 -115 0 0 -25z m87
-1 c-3 -3 -12 -4 -19 -1 -8 3 -5 6 6 6 11 1 17 -2 13 -5z"/>
<path d="M1480 1085 l0 -25 145 0 145 0 0 25 0 25 -145 0 -145 0 0 -25z m87
-1 c-3 -3 -12 -4 -19 -1 -8 3 -5 6 6 6 11 1 17 -2 13 -5z m60 0 c-3 -3 -12 -4
-19 -1 -8 3 -5 6 6 6 11 1 17 -2 13 -5z"/>
<path d="M1780 1085 c0 -24 2 -25 70 -25 68 0 70 1 70 25 0 24 -2 25 -70 25
-68 0 -70 -1 -70 -25z m87 -1 c-3 -3 -12 -4 -19 -1 -8 3 -5 6 6 6 11 1 17 -2
13 -5z"/>
<path d="M3 1025 c0 -23 3 -25 43 -25 40 0 44 2 44 25 0 23 -4 25 -44 25 -40
0 -43 -2 -43 -25z"/>
<path d="M100 1025 c0 -20 5 -25 25 -25 20 0 25 5 25 25 0 20 -5 25 -25 25
-20 0 -25 -5 -25 -25z"/>
<path d="M160 1025 l0 -25 115 0 115 0 0 25 0 25 -115 0 -115 0 0 -25z"/>
<path d="M400 1025 c0 -20 5 -25 25 -25 20 0 25 5 25 25 0 20 -5 25 -25 25
-20 0 -25 -5 -25 -25z"/>
<path d="M460 1025 c0 -25 1 -25 85 -25 84 0 85 0 85 25 0 25 -1 25 -85 25
-84 0 -85 0 -85 -25z"/>
<path d="M640 1025 c0 -20 5 -25 25 -25 20 0 25 5 25 25 0 20 -5 25 -25 25
-20 0 -25 -5 -25 -25z"/>
<path d="M700 1025 c0 -20 5 -25 25 -25 20 0 25 5 25 25 0 20 -5 25 -25 25
-20 0 -25 -5 -25 -25z"/>
<path d="M760 1025 c0 -25 1 -25 85 -25 84 0 85 0 85 25 0 25 -1 25 -85 25
-84 0 -85 0 -85 -25z"/>
<path d="M940 1025 c0 -20 5 -25 25 -25 20 0 25 5 25 25 0 20 -5 25 -25 25
-20 0 -25 -5 -25 -25z"/>
<path d="M1000 1025 c0 -25 1 -25 85 -25 84 0 85 0 85 25 0 25 -1 25 -85 25
-84 0 -85 0 -85 -25z"/>
<path d="M1180 1025 c0 -20 5 -25 25 -25 20 0 25 5 25 25 0 20 -5 25 -25 25
-20 0 -25 -5 -25 -25z"/>
<path d="M1240 1025 c0 -20 5 -25 25 -25 20 0 25 5 25 25 0 20 -5 25 -25 25
-20 0 -25 -5 -25 -25z"/>
<path d="M1300 1025 c0 -25 1 -25 85 -25 84 0 85 0 85 25 0 25 -1 25 -85 25
-84 0 -85 0 -85 -25z"/>
<path d="M1480 1025 c0 -20 5 -25 25 -25 20 0 25 5 25 25 0 20 -5 25 -25 25
-20 0 -25 -5 -25 -25z"/>
<path d="M1540 1025 l0 -25 115 0 115 0 0 25 0 25 -115 0 -115 0 0 -25z"/>
<path d="M1780 1025 c0 -20 5 -25 25 -25 20 0 25 5 25 25 0 20 -5 25 -25 25
-20 0 -25 -5 -25 -25z"/>
<path d="M1840 1025 c0 -22 4 -25 40 -25 36 0 40 3 40 25 0 23 -4 25 -40 25
-36 0 -40 -2 -40 -25z"/>
<path d="M3 905 l0 -25 957 0 958 0 0 25 0 25 -958 0 -957 0 0 -25z m60 -2
c-7 -2 -19 -2 -25 0 -7 3 -2 5 12 5 14 0 19 -2 13 -5z m60 0 c-7 -2 -19 -2
-25 0 -7 3 -2 5 12 5 14 0 19 -2 13 -5z m240 0 c-7 -2 -19 -2 -25 0 -7 3 -2 5
12 5 14 0 19 -2 13 -5z m60 0 c-7 -2 -19 -2 -25 0 -7 3 -2 5 12 5 14 0 19 -2
13 -5z m180 0 c-7 -2 -19 -2 -25 0 -7 3 -2 5 12 5 14 0 19 -2 13 -5z m60 0
c-7 -2 -19 -2 -25 0 -7 3 -2 5 12 5 14 0 19 -2 13 -5z m240 0 c-7 -2 -19 -2
-25 0 -7 3 -2 5 12 5 14 0 19 -2 13 -5z m60 0 c-7 -2 -19 -2 -25 0 -7 3 -2 5
12 5 14 0 19 -2 13 -5z m180 0 c-7 -2 -19 -2 -25 0 -7 3 -2 5 12 5 14 0 19 -2
13 -5z m60 0 c-7 -2 -19 -2 -25 0 -7 3 -2 5 12 5 14 0 19 -2 13 -5z m240 0
c-7 -2 -19 -2 -25 0 -7 3 -2 5 12 5 14 0 19 -2 13 -5z m60 0 c-7 -2 -19 -2
-25 0 -7 3 -2 5 12 5 14 0 19 -2 13 -5z m180 0 c-7 -2 -19 -2 -25 0 -7 3 -2 5
12 5 14 0 19 -2 13 -5z m60 0 c-7 -2 -19 -2 -25 0 -7 3 -2 5 12 5 14 0 19 -2
13 -5z m60 0 c-7 -2 -19 -2 -25 0 -7 3 -2 5 12 5 14 0 19 -2 13 -5z"/>
<path d="M3 845 c0 -23 3 -25 43 -25 40 0 44 2 44 25 0 23 -4 25 -44 25 -40 0
-43 -2 -43 -25z m60 -2 c-7 -2 -19 -2 -25 0 -7 3 -2 5 12 5 14 0 19 -2 13 -5z"/>
<path d="M100 845 l0 -25 265 0 265 0 0 25 0 25 -265 0 -265 0 0 -25z m87 -1
c-3 -3 -12 -4 -19 -1 -8 3 -5 6 6 6 11 1 17 -2 13 -5z m60 0 c-3 -3 -12 -4
-19 -1 -8 3 -5 6 6 6 11 1 17 -2 13 -5z m60 0 c-3 -3 -12 -4 -19 -1 -8 3 -5 6
6 6 11 1 17 -2 13 -5z m120 0 c-3 -3 -12 -4 -19 -1 -8 3 -5 6 6 6 11 1 17 -2
13 -5z m60 0 c-3 -3 -12 -4 -19 -1 -8 3 -5 6 6 6 11 1 17 -2 13 -5z m106 -1
c-13 -2 -35 -2 -50 0 -16 2 -5 4 22 4 28 0 40 -2 28 -4z"/>
<path d="M640 845 l0 -25 145 0 145 0 0 25 0 25 -145 0 -145 0 0 -25z m87 -1
c-3 -3 -12 -4 -19 -1 -8 3 -5 6 6 6 11 1 17 -2 13 -5z m60 0 c-3 -3 -12 -4
-19 -1 -8 3 -5 6 6 6 11 1 17 -2 13 -5z m60 0 c-3 -3 -12 -4 -19 -1 -8 3 -5 6
6 6 11 1 17 -2 13 -5z"/>
<path d="M940 845 l0 -25 115 0 115 0 0 25 0 25 -115 0 -115 0 0 -25z m87 -1
c-3 -3 -12 -4 -19 -1 -8 3 -5 6 6 6 11 1 17 -2 13 -5z m106 -1 c-13 -2 -35 -2
-50 0 -16 2 -5 4 22 4 28 0 40 -2 28 -4z"/>
<path d="M1180 845 l0 -25 145 0 145 0 0 25 0 25 -145 0 -145 0 0 -25z m87 -1
c-3 -3 -12 -4 -19 -1 -8 3 -5 6 6 6 11 1 17 -2 13 -5z m60 0 c-3 -3 -12 -4
-19 -1 -8 3 -5 6 6 6 11 1 17 -2 13 -5z m60 0 c-3 -3 -12 -4 -19 -1 -8 3 -5 6
6 6 11 1 17 -2 13 -5z"/>
<path d="M1480 845 l0 -25 220 0 c197 0 250 6 208 23 -10 4 -10 6 0 6 6 1 12
6 12 11 0 6 -80 10 -220 10 l-220 0 0 -25z m87 -1 c-3 -3 -12 -4 -19 -1 -8 3
-5 6 6 6 11 1 17 -2 13 -5z m66 -1 c-7 -2 -19 -2 -25 0 -7 3 -2 5 12 5 14 0
19 -2 13 -5z m54 1 c-3 -3 -12 -4 -19 -1 -8 3 -5 6 6 6 11 1 17 -2 13 -5z
m120 0 c-3 -3 -12 -4 -19 -1 -8 3 -5 6 6 6 11 1 17 -2 13 -5z m60 0 c-3 -3
-12 -4 -19 -1 -8 3 -5 6 6 6 11 1 17 -2 13 -5z"/>
<path d="M3 725 l2 -84 40 -4 40 -4 -41 -1 c-37 -2 -41 -5 -41 -27 l0 -25 373
0 374 0 0 29 c0 25 4 30 27 33 22 2 29 10 34 33 l7 30 1 -27 c1 -26 4 -28 40
-28 36 0 40 3 44 28 l4 27 2 -27 c1 -26 4 -28 41 -28 37 0 40 2 41 28 2 23 2
24 6 5 3 -16 11 -23 28 -23 17 0 25 7 28 23 4 19 4 18 6 -5 1 -23 6 -28 25
-28 19 0 26 6 29 28 l4 27 2 -27 c1 -26 4 -28 41 -28 36 0 40 3 40 25 0 18 5
25 20 25 15 0 20 -7 20 -25 0 -20 5 -25 24 -25 19 0 26 6 29 28 l4 27 2 -27
c1 -23 6 -28 25 -28 19 0 26 6 29 28 l4 27 2 -27 c1 -20 6 -28 19 -28 37 0 61
13 65 34 3 17 5 15 6 -6 1 -24 5 -28 31 -28 25 0 30 4 30 25 0 16 6 25 15 25
8 0 15 -9 15 -20 0 -30 47 -28 53 3 4 19 4 18 6 -5 1 -23 6 -28 25 -28 19 0
26 6 29 28 l4 27 2 -27 c1 -26 4 -28 41 -28 36 0 40 3 40 25 0 14 5 25 10 25
6 0 10 -11 10 -25 0 -22 4 -25 34 -25 19 0 38 -5 41 -10 4 -6 -7 -10 -24 -10
-26 0 -31 -4 -31 -25 0 -24 2 -25 70 -25 65 0 93 12 53 23 -17 4 -17 5 0 6 22
1 22 18 -1 24 -14 4 -14 5 -1 6 22 1 22 49 0 54 -14 4 -14 5 2 6 11 1 17 9 17
26 l0 25 -552 1 c-304 0 -547 3 -540 6 6 2 12 16 12 29 0 21 -4 24 -39 24 -29
0 -41 -5 -44 -17 -4 -17 -5 -17 -6 0 -1 11 -9 17 -25 17 -15 0 -26 -7 -29 -17
-4 -17 -5 -17 -6 0 -1 11 -9 17 -25 17 -15 0 -26 -7 -29 -17 -4 -17 -5 -17 -6
0 -1 15 -12 17 -85 17 -72 0 -85 -3 -89 -17 -4 -17 -5 -17 -6 0 -1 11 -9 17
-25 17 -15 0 -26 -7 -29 -17 -4 -17 -5 -17 -6 0 -1 15 -12 17 -85 17 -72 0
-85 -3 -89 -17 -4 -17 -5 -17 -6 0 -1 11 -9 17 -25 17 -15 0 -26 -7 -29 -17
-4 -17 -5 -17 -6 0 -1 11 -9 17 -25 17 -15 0 -26 -7 -29 -17 -4 -17 -5 -17 -6
0 -1 13 -10 17 -45 17 l-44 0 1 -85z m94 3 c-3 -8 -6 -5 -6 6 -1 11 2 17 5 13
3 -3 4 -12 1 -19z m540 0 c-3 -8 -6 -5 -6 6 -1 11 2 17 5 13 3 -3 4 -12 1 -19z
m-574 -35 c-7 -2 -19 -2 -25 0 -7 3 -2 5 12 5 14 0 19 -2 13 -5z m94 1 c-3 -3
-12 -4 -19 -1 -8 3 -5 6 6 6 11 1 17 -2 13 -5z m536 -1 c-7 -2 -19 -2 -25 0
-7 3 -2 5 12 5 14 0 19 -2 13 -5z m-564 -30 c2 -2 -5 -3 -17 -3 -14 0 -22 6
-22 16 0 14 3 15 18 3 9 -7 19 -15 21 -16z m121 12 c0 -8 -4 -15 -10 -15 -5 0
-7 7 -4 15 4 8 8 15 10 15 2 0 4 -7 4 -15z m60 0 c0 -8 -4 -15 -10 -15 -5 0
-7 7 -4 15 4 8 8 15 10 15 2 0 4 -7 4 -15z m50 -8 c10 -4 8 -6 -7 -6 -16 -1
-23 5 -23 17 0 10 3 13 8 6 4 -6 14 -14 22 -17z m70 8 c0 -8 -9 -15 -21 -15
-11 0 -17 5 -14 10 4 6 11 8 16 5 5 -4 9 -1 9 4 0 6 2 11 5 11 3 0 5 -7 5 -15z
m120 0 c0 -8 -4 -15 -10 -15 -5 0 -7 7 -4 15 4 8 8 15 10 15 2 0 4 -7 4 -15z
m60 0 c0 -8 -4 -15 -10 -15 -5 0 -7 7 -4 15 4 8 8 15 10 15 2 0 4 -7 4 -15z
m50 -8 c10 -4 8 -6 -7 -6 -16 -1 -23 5 -23 17 0 10 3 13 8 6 4 -6 14 -14 22
-17z m70 8 c0 -8 -4 -15 -10 -15 -5 0 -7 7 -4 15 4 8 8 15 10 15 2 0 4 -7 4
-15z m51 -8 c-10 -9 -11 -8 -5 6 3 10 9 15 12 12 3 -3 0 -11 -7 -18z m164 13
c3 -5 1 -10 -4 -10 -6 0 -11 5 -11 10 0 6 2 10 4 10 3 0 8 -4 11 -10z m540 0
c3 -5 1 -10 -4 -10 -6 0 -11 5 -11 10 0 6 2 10 4 10 3 0 8 -4 11 -10z m-1172
-47 c-7 -2 -21 -2 -30 0 -10 3 -4 5 12 5 17 0 24 -2 18 -5z m285 0 c-15 -2
-42 -2 -60 0 -18 2 -6 4 27 4 33 0 48 -2 33 -4z m-408 -18 c0 -8 -9 -15 -21
-15 -11 0 -17 5 -14 10 4 6 11 8 16 5 5 -4 9 -1 9 4 0 6 2 11 5 11 3 0 5 -7 5
-15z m60 0 c0 -9 -9 -15 -22 -14 -17 1 -19 2 -5 6 9 2 17 9 17 14 0 5 2 9 5 9
3 0 5 -7 5 -15z m180 0 c0 -8 -9 -15 -21 -15 -11 0 -17 5 -14 10 4 6 11 8 16
5 5 -4 9 -1 9 4 0 6 2 11 5 11 3 0 5 -7 5 -15z m60 0 c0 -8 -9 -15 -21 -15
-11 0 -17 5 -14 10 4 6 11 8 16 5 5 -4 9 -1 9 4 0 6 2 11 5 11 3 0 5 -7 5 -15z
m240 0 c0 -8 -9 -15 -21 -15 -11 0 -17 5 -14 10 4 6 11 8 16 5 5 -4 9 -1 9 4
0 6 2 11 5 11 3 0 5 -7 5 -15z m1140 0 c0 -9 -9 -15 -22 -14 -17 1 -19 2 -5 6
9 2 17 9 17 14 0 5 2 9 5 9 3 0 5 -7 5 -15z m-1740 -11 c0 -2 -9 -4 -21 -4
-11 0 -18 4 -14 10 5 8 35 3 35 -6z m240 0 c0 -2 -24 -3 -52 -3 -52 2 -53 2
-13 8 37 6 65 4 65 -5z m300 0 c0 -2 -9 -4 -21 -4 -11 0 -18 4 -14 10 5 8 35
3 35 -6z m-607 -1 c-7 -2 -19 -2 -25 0 -7 3 -2 5 12 5 14 0 19 -2 13 -5z m480
0 c-7 -2 -19 -2 -25 0 -7 3 -2 5 12 5 14 0 19 -2 13 -5z m60 0 c-7 -2 -19 -2
-25 0 -7 3 -2 5 12 5 14 0 19 -2 13 -5z"/>
<path d="M3 545 c0 -23 3 -25 43 -25 40 0 44 2 44 25 0 23 -4 25 -44 25 -40 0
-43 -2 -43 -25z"/>
<path d="M100 545 l0 -25 145 0 145 0 0 25 0 25 -145 0 -145 0 0 -25z m87 -1
c-3 -3 -12 -4 -19 -1 -8 3 -5 6 6 6 11 1 17 -2 13 -5z m60 0 c-3 -3 -12 -4
-19 -1 -8 3 -5 6 6 6 11 1 17 -2 13 -5z"/>
<path d="M400 545 l0 -25 115 0 115 0 0 25 0 25 -115 0 -115 0 0 -25z m87 -1
c-3 -3 -12 -4 -19 -1 -8 3 -5 6 6 6 11 1 17 -2 13 -5z m60 0 c-3 -3 -12 -4
-19 -1 -8 3 -5 6 6 6 11 1 17 -2 13 -5z"/>
<path d="M640 545 l0 -25 145 0 145 0 0 25 0 25 -145 0 -145 0 0 -25z m87 -1
c-3 -3 -12 -4 -19 -1 -8 3 -5 6 6 6 11 1 17 -2 13 -5z m60 0 c-3 -3 -12 -4
-19 -1 -8 3 -5 6 6 6 11 1 17 -2 13 -5z"/>
<path d="M940 545 l0 -25 115 0 115 0 0 25 0 25 -115 0 -115 0 0 -25z m87 -1
c-3 -3 -12 -4 -19 -1 -8 3 -5 6 6 6 11 1 17 -2 13 -5z m60 0 c-3 -3 -12 -4
-19 -1 -8 3 -5 6 6 6 11 1 17 -2 13 -5z"/>
<path d="M1180 545 c0 -20 5 -25 25 -25 20 0 25 5 25 25 0 20 -5 25 -25 25
-20 0 -25 -5 -25 -25z"/>
<path d="M1240 545 l0 -25 115 0 115 0 0 25 0 25 -115 0 -115 0 0 -25z m87 -1
c-3 -3 -12 -4 -19 -1 -8 3 -5 6 6 6 11 1 17 -2 13 -5z"/>
<path d="M1480 545 l0 -25 145 0 145 0 0 25 0 25 -145 0 -145 0 0 -25z m87 -1
c-3 -3 -12 -4 -19 -1 -8 3 -5 6 6 6 11 1 17 -2 13 -5z m60 0 c-3 -3 -12 -4
-19 -1 -8 3 -5 6 6 6 11 1 17 -2 13 -5z"/>
<path d="M1780 545 c0 -24 2 -25 70 -25 64 0 89 10 58 23 -10 4 -10 6 0 6 6 1
12 6 12 11 0 6 -30 10 -70 10 -68 0 -70 -1 -70 -25z m87 -1 c-3 -3 -12 -4 -19
-1 -8 3 -5 6 6 6 11 1 17 -2 13 -5z"/>
<path d="M3 486 c0 -21 5 -26 36 -29 l36 -4 -36 -1 -36 -2 1 -55 1 -55 956 0
957 0 0 25 c-1 14 -7 26 -17 28 -14 4 -14 5 2 6 11 1 17 9 17 26 0 24 -3 25
-62 26 -35 1 -55 3 -45 6 10 3 17 14 17 29 0 33 -47 35 -53 2 l-4 -23 -2 23
c-1 30 -51 32 -51 2 0 -11 -7 -20 -15 -20 -11 0 -15 -11 -15 -40 0 -33 -3 -40
-20 -40 -11 0 -20 5 -20 10 0 15 -47 12 -53 -2 -4 -10 -6 -10 -6 0 -1 13 -51
18 -51 5 0 -5 -29 -9 -65 -9 -36 -1 -65 2 -65 7 0 14 -48 11 -53 -3 -4 -10 -6
-10 -6 0 -1 6 -12 12 -25 12 -13 0 -27 -6 -29 -12 -4 -10 -6 -10 -6 0 -1 13
-51 18 -51 5 0 -5 -29 -9 -65 -9 -36 -1 -65 2 -65 7 0 14 -48 11 -53 -3 -4
-10 -6 -10 -6 0 -1 6 -12 12 -26 12 -14 0 -25 -6 -25 -12 0 -9 -3 -9 -9 1 -6
9 -18 12 -37 7 -67 -17 -84 -18 -84 -7 0 15 -47 14 -53 -1 -4 -10 -6 -10 -6 0
-1 16 -48 16 -54 0 -4 -10 -6 -10 -6 0 -1 15 -48 16 -53 0 -2 -6 -12 -9 -21
-5 -22 8 -24 67 -2 67 9 0 15 9 15 25 0 34 -46 36 -53 3 l-4 -23 -2 23 c-1 21
-5 22 -86 22 -84 0 -85 0 -85 -25 0 -23 3 -24 78 -28 69 -3 66 -3 -23 -4 -55
0 -92 1 -82 4 10 3 17 14 17 29 0 33 -47 35 -53 2 l-4 -23 -2 23 c-1 21 -4 22
-116 22 l-115 0 0 -25 c0 -23 3 -24 78 -28 69 -3 66 -3 -23 -4 -55 0 -92 1
-82 4 10 3 17 14 17 29 0 33 -47 35 -53 2 l-4 -23 -2 23 c-1 19 -6 22 -45 22
-39 0 -43 -2 -43 -24z m94 -58 c-3 -8 -6 -5 -6 6 -1 11 2 17 5 13 3 -3 4 -12
1 -19z m240 0 c-3 -8 -6 -5 -6 6 -1 11 2 17 5 13 3 -3 4 -12 1 -19z m60 0 c-3
-8 -6 -5 -6 6 -1 11 2 17 5 13 3 -3 4 -12 1 -19z m240 0 c-3 -8 -6 -5 -6 6 -1
11 2 17 5 13 3 -3 4 -12 1 -19z m1080 0 c-3 -8 -6 -5 -6 6 -1 11 2 17 5 13 3
-3 4 -12 1 -19z m60 0 c-3 -8 -6 -5 -6 6 -1 11 2 17 5 13 3 -3 4 -12 1 -19z
m-1704 -35 c-7 -2 -21 -2 -30 0 -10 3 -4 5 12 5 17 0 24 -2 18 -5z m84 1 c-3
-3 -12 -4 -19 -1 -8 3 -5 6 6 6 11 1 17 -2 13 -5z m456 -1 c-7 -2 -21 -2 -30
0 -10 3 -4 5 12 5 17 0 24 -2 18 -5z m-423 -18 c0 -8 -4 -15 -10 -15 -5 0 -7
7 -4 15 4 8 8 15 10 15 2 0 4 -7 4 -15z m60 0 c0 -8 -4 -15 -10 -15 -5 0 -7 7
-4 15 4 8 8 15 10 15 2 0 4 -7 4 -15z m60 0 c0 -8 -4 -15 -10 -15 -5 0 -7 7
-4 15 4 8 8 15 10 15 2 0 4 -7 4 -15z m50 -8 c10 -4 8 -6 -7 -6 -16 -1 -23 5
-23 17 0 10 3 13 8 6 4 -6 14 -14 22 -17z m70 8 c0 -8 -9 -15 -21 -15 -11 0
-17 5 -14 10 4 6 11 8 16 5 5 -4 9 -1 9 4 0 6 2 11 5 11 3 0 5 -7 5 -15z m60
0 c0 -8 -4 -15 -10 -15 -5 0 -7 7 -4 15 4 8 8 15 10 15 2 0 4 -7 4 -15z m60 0
c0 -8 -4 -15 -10 -15 -5 0 -7 7 -4 15 4 8 8 15 10 15 2 0 4 -7 4 -15z m180 0
c0 -8 -4 -15 -10 -15 -5 0 -7 7 -4 15 4 8 8 15 10 15 2 0 4 -7 4 -15z m60 0
c0 -8 -4 -15 -10 -15 -5 0 -7 7 -4 15 4 8 8 15 10 15 2 0 4 -7 4 -15z m60 0
c0 -8 -4 -15 -10 -15 -5 0 -7 7 -4 15 4 8 8 15 10 15 2 0 4 -7 4 -15z m120 0
c0 -8 -9 -15 -21 -15 -11 0 -17 5 -14 10 4 6 11 8 16 5 5 -4 9 -1 9 4 0 6 2
11 5 11 3 0 5 -7 5 -15z m60 0 c0 -8 -4 -15 -10 -15 -5 0 -7 7 -4 15 4 8 8 15
10 15 2 0 4 -7 4 -15z m60 0 c0 -8 -4 -15 -10 -15 -5 0 -7 7 -4 15 4 8 8 15
10 15 2 0 4 -7 4 -15z m180 0 c0 -8 -4 -15 -10 -15 -5 0 -7 7 -4 15 4 8 8 15
10 15 2 0 4 -7 4 -15z m60 0 c0 -8 -4 -15 -10 -15 -5 0 -7 7 -4 15 4 8 8 15
10 15 2 0 4 -7 4 -15z m60 0 c0 -8 -4 -15 -10 -15 -5 0 -7 7 -4 15 4 8 8 15
10 15 2 0 4 -7 4 -15z m180 0 c0 -8 -4 -15 -10 -15 -5 0 -7 7 -4 15 4 8 8 15
10 15 2 0 4 -7 4 -15z m60 0 c0 -8 -4 -15 -10 -15 -5 0 -7 7 -4 15 4 8 8 15
10 15 2 0 4 -7 4 -15z m119 -12 c2 -2 -5 -3 -17 -3 -14 0 -22 6 -22 16 0 14 3
15 18 3 9 -7 19 -15 21 -16z m61 12 c0 -8 -9 -15 -21 -15 -11 0 -17 5 -14 10
4 6 11 8 16 5 5 -4 9 -1 9 4 0 6 2 11 5 11 3 0 5 -7 5 -15z m60 0 c0 -8 -4
-15 -10 -15 -5 0 -7 7 -4 15 4 8 8 15 10 15 2 0 4 -7 4 -15z m-1740 -11 c0 -2
-9 -4 -21 -4 -11 0 -18 4 -14 10 5 8 35 3 35 -6z m540 0 c0 -2 -9 -4 -21 -4
-11 0 -18 4 -14 10 5 8 35 3 35 -6z m540 0 c0 -2 -9 -4 -21 -4 -11 0 -18 4
-14 10 5 8 35 3 35 -6z m300 0 c0 -2 -9 -4 -21 -4 -11 0 -18 4 -14 10 5 8 35
3 35 -6z m-1447 -1 c-7 -2 -19 -2 -25 0 -7 3 -2 5 12 5 14 0 19 -2 13 -5z
m540 0 c-7 -2 -19 -2 -25 0 -7 3 -2 5 12 5 14 0 19 -2 13 -5z m300 0 c-7 -2
-19 -2 -25 0 -7 3 -2 5 12 5 14 0 19 -2 13 -5z m240 0 c-7 -2 -19 -2 -25 0 -7
3 -2 5 12 5 14 0 19 -2 13 -5z m300 0 c-7 -2 -19 -2 -25 0 -7 3 -2 5 12 5 14
0 19 -2 13 -5z"/>
<path d="M1840 485 c0 -22 4 -25 40 -25 36 0 40 3 40 25 0 23 -4 25 -40 25
-36 0 -40 -2 -40 -25z"/>
<path d="M0 321 c0 -6 17 -12 38 -14 l37 -4 -37 -1 c-21 -1 -38 -6 -38 -12 0
-7 327 -10 960 -10 870 0 1017 4 943 23 -17 4 -17 5 0 6 9 0 17 6 17 11 0 7
-327 10 -960 10 -592 0 -960 -4 -960 -9z m123 -18 c-7 -2 -19 -2 -25 0 -7 3
-2 5 12 5 14 0 19 -2 13 -5z m60 0 c-7 -2 -19 -2 -25 0 -7 3 -2 5 12 5 14 0
19 -2 13 -5z m60 0 c-7 -2 -19 -2 -25 0 -7 3 -2 5 12 5 14 0 19 -2 13 -5z m60
0 c-7 -2 -19 -2 -25 0 -7 3 -2 5 12 5 14 0 19 -2 13 -5z m60 0 c-7 -2 -19 -2
-25 0 -7 3 -2 5 12 5 14 0 19 -2 13 -5z m60 0 c-7 -2 -19 -2 -25 0 -7 3 -2 5
12 5 14 0 19 -2 13 -5z m60 0 c-7 -2 -19 -2 -25 0 -7 3 -2 5 12 5 14 0 19 -2
13 -5z m105 0 c-16 -2 -40 -2 -55 0 -16 2 -3 4 27 4 30 0 43 -2 28 -4z m75 0
c-7 -2 -19 -2 -25 0 -7 3 -2 5 12 5 14 0 19 -2 13 -5z m60 0 c-7 -2 -19 -2
-25 0 -7 3 -2 5 12 5 14 0 19 -2 13 -5z m60 0 c-7 -2 -19 -2 -25 0 -7 3 -2 5
12 5 14 0 19 -2 13 -5z m60 0 c-7 -2 -19 -2 -25 0 -7 3 -2 5 12 5 14 0 19 -2
13 -5z m60 0 c-7 -2 -19 -2 -25 0 -7 3 -2 5 12 5 14 0 19 -2 13 -5z m60 0 c-7
-2 -19 -2 -25 0 -7 3 -2 5 12 5 14 0 19 -2 13 -5z m60 0 c-7 -2 -19 -2 -25 0
-7 3 -2 5 12 5 14 0 19 -2 13 -5z m105 0 c-16 -2 -40 -2 -55 0 -16 2 -3 4 27
4 30 0 43 -2 28 -4z m75 0 c-7 -2 -19 -2 -25 0 -7 3 -2 5 12 5 14 0 19 -2 13
-5z m60 0 c-7 -2 -19 -2 -25 0 -7 3 -2 5 12 5 14 0 19 -2 13 -5z m60 0 c-7 -2
-19 -2 -25 0 -7 3 -2 5 12 5 14 0 19 -2 13 -5z m105 0 c-16 -2 -40 -2 -55 0
-16 2 -3 4 27 4 30 0 43 -2 28 -4z m75 0 c-7 -2 -19 -2 -25 0 -7 3 -2 5 12 5
14 0 19 -2 13 -5z m60 0 c-7 -2 -19 -2 -25 0 -7 3 -2 5 12 5 14 0 19 -2 13 -5z
m60 0 c-7 -2 -19 -2 -25 0 -7 3 -2 5 12 5 14 0 19 -2 13 -5z m60 0 c-7 -2 -19
-2 -25 0 -7 3 -2 5 12 5 14 0 19 -2 13 -5z m60 0 c-7 -2 -19 -2 -25 0 -7 3 -2
5 12 5 14 0 19 -2 13 -5z m60 0 c-7 -2 -19 -2 -25 0 -7 3 -2 5 12 5 14 0 19
-2 13 -5z m60 0 c-7 -2 -19 -2 -25 0 -7 3 -2 5 12 5 14 0 19 -2 13 -5z"/>
<path d="M3 245 c0 -23 3 -25 43 -25 40 0 44 2 44 25 0 23 -4 25 -44 25 -40 0
-43 -2 -43 -25z"/>
<path d="M100 245 c0 -20 5 -25 25 -25 20 0 25 5 25 25 0 20 -5 25 -25 25 -20
0 -25 -5 -25 -25z"/>
<path d="M160 245 c0 -20 5 -25 25 -25 20 0 25 5 25 25 0 20 -5 25 -25 25 -20
0 -25 -5 -25 -25z"/>
<path d="M220 245 c0 -25 1 -25 85 -25 84 0 85 0 85 25 0 25 -1 25 -85 25 -84
0 -85 0 -85 -25z"/>
<path d="M400 245 l0 -25 115 0 115 0 0 25 0 25 -115 0 -115 0 0 -25z m87 -1
c-3 -3 -12 -4 -19 -1 -8 3 -5 6 6 6 11 1 17 -2 13 -5z"/>
<path d="M640 245 c0 -20 5 -25 25 -25 20 0 25 5 25 25 0 20 -5 25 -25 25 -20
0 -25 -5 -25 -25z"/>
<path d="M700 245 c0 -20 5 -25 25 -25 20 0 25 5 25 25 0 20 -5 25 -25 25 -20
0 -25 -5 -25 -25z"/>
<path d="M760 245 c0 -25 1 -25 85 -25 84 0 85 0 85 25 0 25 -1 25 -85 25 -84
0 -85 0 -85 -25z"/>
<path d="M940 245 c0 -24 3 -25 55 -25 52 0 55 1 55 25 0 24 -3 25 -55 25 -52
0 -55 -1 -55 -25z m87 -1 c-3 -3 -12 -4 -19 -1 -8 3 -5 6 6 6 11 1 17 -2 13
-5z"/>
<path d="M1060 246 c0 -22 5 -25 48 -29 26 -2 -212 -4 -529 -5 l-576 -2 0 -55
0 -54 41 -4 41 -4 -41 -1 c-37 -2 -41 -5 -41 -27 l0 -25 958 0 c869 0 1016 4
942 23 -17 4 -17 5 0 6 9 0 17 5 17 10 0 5 -8 12 -17 14 -15 4 -15 5 -2 6 11
1 17 10 17 26 0 31 -25 33 -31 2 -4 -22 -4 -22 -6 0 -1 18 -8 23 -38 26 -28 3
-23 4 20 5 54 2 57 3 57 27 l0 25 -362 1 c-200 1 -355 3 -345 6 10 3 17 14 17
29 0 33 -47 35 -53 2 l-4 -23 -2 23 c-1 20 -6 22 -56 22 -52 0 -55 -1 -55 -24z
m117 -58 c-3 -8 -6 -5 -6 6 -1 11 2 17 5 13 3 -3 4 -12 1 -19z m-914 -35 c-46
-4 -53 -7 -54 -26 l-2 -22 -4 22 c-3 18 -13 23 -46 26 -23 2 3 3 58 3 55 0 76
-1 48 -3z m300 0 c-46 -4 -53 -7 -54 -26 l-2 -22 -4 22 c-3 17 -13 23 -41 26
-20 2 6 4 58 3 52 0 71 -1 43 -3z m240 0 c-46 -4 -53 -7 -54 -26 l-2 -22 -4
22 c-3 18 -13 23 -46 26 -23 2 3 3 58 3 55 0 76 -1 48 -3z m300 0 c-46 -4 -53
-7 -54 -26 l-2 -22 -4 22 c-3 17 -13 23 -41 26 -20 2 6 4 58 3 52 0 71 -1 43
-3z m270 0 c-15 -3 -23 -12 -24 -26 l-2 -22 -4 22 c-4 20 -11 22 -76 26 -56 2
-50 3 28 4 55 0 90 -2 78 -4z m270 0 c-46 -4 -53 -7 -54 -26 l-2 -22 -4 22
c-3 17 -13 23 -41 26 -20 2 6 4 58 3 52 0 71 -1 43 -3z m-1523 -26 c10 -4 8
-6 -7 -6 -16 -1 -23 5 -23 17 0 10 3 13 8 6 4 -6 14 -14 22 -17z m240 0 c10
-4 8 -6 -7 -6 -16 -1 -23 5 -23 17 0 10 3 13 8 6 4 -6 14 -14 22 -17z m69 -4
c2 -2 -5 -3 -17 -3 -14 0 -22 6 -22 16 0 14 3 15 18 3 9 -7 19 -15 21 -16z
m231 4 c10 -4 8 -6 -7 -6 -16 -1 -23 5 -23 17 0 10 3 13 8 6 4 -6 14 -14 22
-17z m309 -4 c2 -2 -5 -3 -17 -3 -14 0 -22 6 -22 16 0 14 3 15 18 3 9 -7 19
-15 21 -16z m231 4 c10 -4 8 -6 -7 -6 -16 -1 -23 5 -23 17 0 10 3 13 8 6 4 -6
14 -14 22 -17z m309 -4 c2 -2 -5 -3 -17 -3 -14 0 -22 6 -22 16 0 14 3 15 18 3
9 -7 19 -15 21 -16z m231 4 c10 -4 8 -6 -7 -6 -16 -1 -23 5 -23 17 0 10 3 13
8 6 4 -6 14 -14 22 -17z m69 -4 c2 -2 -5 -3 -17 -3 -14 0 -22 6 -22 16 0 14 3
15 18 3 9 -7 19 -15 21 -16z m-1496 -30 c-7 -2 -21 -2 -30 0 -10 3 -4 5 12 5
17 0 24 -2 18 -5z m300 0 c-7 -2 -21 -2 -30 0 -10 3 -4 5 12 5 17 0 24 -2 18
-5z m285 0 c-15 -2 -42 -2 -60 0 -18 2 -6 4 27 4 33 0 48 -2 33 -4z m255 0
c-7 -2 -21 -2 -30 0 -10 3 -4 5 12 5 17 0 24 -2 18 -5z m285 0 c-15 -2 -42 -2
-60 0 -18 2 -6 4 27 4 33 0 48 -2 33 -4z m255 0 c-7 -2 -21 -2 -30 0 -10 3 -4
5 12 5 17 0 24 -2 18 -5z m-1503 -18 c0 -8 -9 -15 -21 -15 -11 0 -17 5 -14 10
4 6 11 8 16 5 5 -4 9 -1 9 4 0 6 2 11 5 11 3 0 5 -7 5 -15z m60 0 c0 -9 -9
-15 -22 -14 -17 1 -19 2 -5 6 9 2 17 9 17 14 0 5 2 9 5 9 3 0 5 -7 5 -15z
m180 0 c0 -8 -9 -15 -21 -15 -11 0 -17 5 -14 10 4 6 11 8 16 5 5 -4 9 -1 9 4
0 6 2 11 5 11 3 0 5 -7 5 -15z m60 0 c0 -8 -9 -15 -21 -15 -11 0 -17 5 -14 10
4 6 11 8 16 5 5 -4 9 -1 9 4 0 6 2 11 5 11 3 0 5 -7 5 -15z m60 0 c0 -9 -9
-15 -22 -14 -17 1 -19 2 -5 6 9 2 17 9 17 14 0 5 2 9 5 9 3 0 5 -7 5 -15z
m180 0 c0 -8 -9 -15 -21 -15 -11 0 -17 5 -14 10 4 6 11 8 16 5 5 -4 9 -1 9 4
0 6 2 11 5 11 3 0 5 -7 5 -15z m60 0 c0 -9 -9 -15 -22 -14 -17 1 -19 2 -5 6 9
2 17 9 17 14 0 5 2 9 5 9 3 0 5 -7 5 -15z m180 0 c0 -8 -9 -15 -21 -15 -11 0
-17 5 -14 10 4 6 11 8 16 5 5 -4 9 -1 9 4 0 6 2 11 5 11 3 0 5 -7 5 -15z m60
0 c0 -8 -9 -15 -21 -15 -11 0 -17 5 -14 10 4 6 11 8 16 5 5 -4 9 -1 9 4 0 6 2
11 5 11 3 0 5 -7 5 -15z m60 0 c0 -9 -9 -15 -22 -14 -17 1 -19 2 -5 6 9 2 17
9 17 14 0 5 2 9 5 9 3 0 5 -7 5 -15z m180 0 c0 -8 -9 -15 -21 -15 -11 0 -17 5
-14 10 4 6 11 8 16 5 5 -4 9 -1 9 4 0 6 2 11 5 11 3 0 5 -7 5 -15z m60 0 c0
-9 -9 -15 -22 -14 -17 1 -19 2 -5 6 9 2 17 9 17 14 0 5 2 9 5 9 3 0 5 -7 5
-15z m240 0 c0 -8 -9 -15 -21 -15 -11 0 -17 5 -14 10 4 6 11 8 16 5 5 -4 9 -1
9 4 0 6 2 11 5 11 3 0 5 -7 5 -15z m60 0 c0 -9 -9 -15 -22 -14 -17 1 -19 2 -5
6 9 2 17 9 17 14 0 5 2 9 5 9 3 0 5 -7 5 -15z m180 0 c0 -8 -9 -15 -21 -15
-11 0 -17 5 -14 10 4 6 11 8 16 5 5 -4 9 -1 9 4 0 6 2 11 5 11 3 0 5 -7 5 -15z
m60 0 c0 -9 -9 -15 -22 -14 -17 1 -19 2 -5 6 9 2 17 9 17 14 0 5 2 9 5 9 3 0
5 -7 5 -15z m-1740 -11 c0 -2 -9 -4 -21 -4 -11 0 -18 4 -14 10 5 8 35 3 35 -6z
m240 0 c0 -2 -9 -4 -21 -4 -11 0 -18 4 -14 10 5 8 35 3 35 -6z m300 0 c0 -2
-9 -4 -21 -4 -11 0 -18 4 -14 10 5 8 35 3 35 -6z m540 0 c0 -2 -24 -3 -52 -3
-52 2 -53 2 -13 8 37 6 65 4 65 -5z m300 0 c0 -2 -9 -4 -21 -4 -11 0 -18 4
-14 10 5 8 35 3 35 -6z m240 0 c0 -2 -24 -3 -52 -3 -52 2 -53 2 -13 8 37 6 65
4 65 -5z m-1687 -1 c-7 -2 -19 -2 -25 0 -7 3 -2 5 12 5 14 0 19 -2 13 -5z
m240 0 c-7 -2 -19 -2 -25 0 -7 3 -2 5 12 5 14 0 19 -2 13 -5z m300 0 c-7 -2
-19 -2 -25 0 -7 3 -2 5 12 5 14 0 19 -2 13 -5z m240 0 c-7 -2 -19 -2 -25 0 -7
3 -2 5 12 5 14 0 19 -2 13 -5z m60 0 c-7 -2 -19 -2 -25 0 -7 3 -2 5 12 5 14 0
19 -2 13 -5z m480 0 c-7 -2 -19 -2 -25 0 -7 3 -2 5 12 5 14 0 19 -2 13 -5z
m60 0 c-7 -2 -19 -2 -25 0 -7 3 -2 5 12 5 14 0 19 -2 13 -5z"/>
<path d="M1240 245 l0 -25 115 0 115 0 0 25 0 25 -115 0 -115 0 0 -25z m87 -1
c-3 -3 -12 -4 -19 -1 -8 3 -5 6 6 6 11 1 17 -2 13 -5z"/>
<path d="M1480 245 c0 -24 3 -25 55 -25 52 0 55 1 55 25 0 24 -3 25 -55 25
-52 0 -55 -1 -55 -25z m87 -1 c-3 -3 -12 -4 -19 -1 -8 3 -5 6 6 6 11 1 17 -2
13 -5z"/>
<path d="M1600 245 c0 -25 1 -25 85 -25 84 0 85 0 85 25 0 25 -1 25 -85 25
-84 0 -85 0 -85 -25z"/>
<path d="M1780 245 c0 -24 2 -25 70 -25 68 0 70 1 70 25 0 24 -2 25 -70 25
-68 0 -70 -1 -70 -25z m87 -1 c-3 -3 -12 -4 -19 -1 -8 3 -5 6 6 6 11 1 17 -2
13 -5z"/>
<path d="M0 20 c0 -5 10 -10 23 -11 68 -3 1874 -4 1885 -1 58 18 -95 22 -948
22 -633 0 -960 -3 -960 -10z"/>
</g>
</svg>
