<?xml version="1.0" standalone="no"?>
<!DOCTYPE svg PUBLIC "-//W3C//DTD SVG 20010904//EN"
 "http://www.w3.org/TR/2001/REC-SVG-20010904/DTD/svg10.dtd">
<svg version="1.0" xmlns="http://www.w3.org/2000/svg"
 width="192.000000pt" height="192.000000pt" viewBox="0 0 192.000000 192.000000"
 preserveAspectRatio="xMidYMid meet">
<metadata>
Created by potrace 1.16, written by Peter Selinger 2001-2019
</metadata>
<g transform="translate(0.000000,192.000000) scale(0.100000,-0.100000)"
fill="#000000" stroke="none">
<path d="M805 1404 c-246 -36 -356 -64 -467 -120 -27 -13 -48 -21 -48 -18 0 3
-6 0 -12 -6 -7 -6 -33 -23 -57 -39 -117 -76 -191 -190 -191 -291 0 -103 76
-217 194 -292 28 -18 54 -36 57 -41 3 -5 9 -8 12 -8 4 0 28 -9 54 -20 174 -76
365 -112 593 -113 175 -1 264 6 365 29 39 8 79 17 90 19 65 13 264 97 300 127
133 110 146 125 175 198 52 134 -1 269 -149 379 -20 15 -38 29 -41 33 -8 8
-211 95 -245 104 -16 5 -36 7 -42 6 -7 -1 -13 3 -13 9 0 6 -3 9 -7 7 -5 -3
-37 2 -73 10 -36 7 -81 16 -100 18 -54 7 -361 14 -395 9z m415 -39 c52 -8 135
-26 183 -40 87 -25 237 -88 267 -112 8 -6 38 -29 65 -51 81 -63 134 -154 134
-232 0 -78 -53 -169 -134 -232 -27 -22 -57 -45 -65 -51 -8 -7 -47 -27 -85 -44
-466 -214 -1146 -153 -1434 129 -188 185 -85 419 244 551 138 55 263 82 470
101 65 6 252 -4 355 -19z"/>
<path d="M874 1332 c-62 -40 -121 -150 -131 -246 -5 -45 -2 -56 19 -81 21 -24
34 -29 84 -33 36 -2 84 3 124 13 66 17 291 102 300 114 3 3 12 7 20 9 18 4
102 55 148 89 21 16 32 32 32 49 0 19 -8 28 -32 38 -72 30 -245 58 -388 63
-132 4 -148 3 -176 -15z m376 -28 c106 -19 200 -44 200 -54 0 -17 -141 -113
-180 -122 -8 -2 -17 -5 -20 -8 -15 -17 -240 -104 -240 -93 0 3 -6 0 -13 -6 -8
-6 -28 -12 -45 -14 -18 -2 -35 -7 -39 -10 -3 -4 -26 -7 -50 -7 -36 0 -50 6
-74 29 -35 35 -35 47 -5 133 32 92 71 144 126 170 23 12 244 0 340 -18z"/>
<path d="M958 1303 c12 -2 30 -2 40 0 9 3 -1 5 -23 4 -22 0 -30 -2 -17 -4z"/>
<path d="M1268 1273 c7 -3 16 -2 19 1 4 3 -2 6 -13 5 -11 0 -14 -3 -6 -6z"/>
<path d="M1323 1263 c9 -2 23 -2 30 0 6 3 -1 5 -18 5 -16 0 -22 -2 -12 -5z"/>
<path d="M840 1225 c0 -8 2 -15 4 -15 2 0 6 7 10 15 3 8 1 15 -4 15 -6 0 -10
-7 -10 -15z"/>
<path d="M521 1295 c-120 -31 -263 -101 -328 -160 -102 -91 -130 -207 -77
-313 39 -79 157 -174 197 -159 9 3 49 75 90 159 92 191 195 360 263 430 8 9
14 27 12 40 -4 32 -42 33 -157 3z m139 -5 c0 -5 -6 -13 -12 -17 -7 -4 -17 -16
-23 -25 -5 -9 -39 -58 -74 -109 -60 -87 -204 -354 -229 -426 -14 -41 -36 -36
-103 25 -81 72 -104 115 -104 192 0 53 5 72 27 105 70 108 221 197 415 244 92
23 103 24 103 11z"/>
<path d="M260 1130 c-13 -8 -12 -10 3 -10 9 0 17 5 17 10 0 12 -1 12 -20 0z"/>
<path d="M225 1100 c-3 -5 -1 -10 4 -10 6 0 11 5 11 10 0 6 -2 10 -4 10 -3 0
-8 -4 -11 -10z"/>
<path d="M462 1065 c-14 -29 2 -34 18 -6 12 24 13 31 2 31 -5 0 -14 -11 -20
-25z"/>
<path d="M420 985 c0 -8 2 -15 4 -15 2 0 6 7 10 15 3 8 1 15 -4 15 -6 0 -10
-7 -10 -15z"/>
<path d="M132 930 c0 -19 2 -27 5 -17 2 9 2 25 0 35 -3 9 -5 1 -5 -18z"/>
<path d="M140 881 c0 -6 4 -13 10 -16 6 -3 7 1 4 9 -7 18 -14 21 -14 7z"/>
<path d="M185 800 c3 -5 8 -10 11 -10 2 0 4 5 4 10 0 6 -5 10 -11 10 -5 0 -7
-4 -4 -10z"/>
<path d="M297 735 c-4 -8 -2 -17 2 -20 5 -2 11 4 14 15 6 23 -8 27 -16 5z"/>
<path d="M1590 1183 c-6 -10 -41 -81 -79 -158 -87 -179 -189 -348 -249 -414
-30 -33 -26 -65 10 -69 44 -5 214 45 312 92 102 48 191 124 226 193 26 51 29
141 7 195 -20 47 -81 114 -136 150 -52 32 -77 35 -91 11z m76 -31 c56 -41 121
-117 135 -159 19 -57 7 -126 -32 -183 -18 -27 -35 -48 -36 -46 -2 1 -20 -13
-41 -33 -65 -62 -263 -146 -389 -165 -49 -7 -55 3 -17 33 14 11 25 22 24 26 0
3 11 21 25 40 52 67 151 242 215 378 35 75 67 137 71 137 3 0 24 -13 45 -28z"/>
<path d="M1746 1025 c4 -8 10 -15 15 -15 4 0 6 7 3 15 -4 8 -10 15 -15 15 -4
0 -6 -7 -3 -15z"/>
<path d="M1475 851 c-8 -17 -12 -31 -7 -31 10 0 35 50 28 57 -2 3 -12 -9 -21
-26z"/>
<path d="M1750 835 c0 -8 2 -15 4 -15 2 0 6 7 10 15 3 8 1 15 -4 15 -6 0 -10
-7 -10 -15z"/>
<path d="M945 874 c-121 -37 -227 -80 -325 -131 -130 -67 -160 -92 -160 -132
0 -26 5 -31 38 -40 159 -43 334 -65 456 -59 107 6 133 23 183 125 47 95 57
184 25 223 -17 21 -29 25 -93 27 -46 2 -93 -3 -124 -13z m185 -22 c69 -56 -26
-296 -125 -314 -23 -5 -127 -3 -235 3 -37 3 -264 51 -281 60 -26 13 -20 20 59
72 139 92 411 195 518 196 26 1 50 -6 64 -17z"/>
<path d="M990 840 l-25 -8 28 -1 c15 -1 27 4 27 9 0 6 -1 10 -2 9 -2 -1 -14
-5 -28 -9z"/>
<path d="M1038 843 c7 -3 16 -2 19 1 4 3 -2 6 -13 5 -11 0 -14 -3 -6 -6z"/>
<path d="M1131 784 c0 -11 3 -14 6 -6 3 7 2 16 -1 19 -3 4 -6 -2 -5 -13z"/>
<path d="M648 583 c7 -3 16 -2 19 1 4 3 -2 6 -13 5 -11 0 -14 -3 -6 -6z"/>
<path d="M1010 570 c0 -5 4 -10 9 -10 6 0 13 5 16 10 3 6 -1 10 -9 10 -9 0
-16 -4 -16 -10z"/>
<path d="M918 553 c7 -3 16 -2 19 1 4 3 -2 6 -13 5 -11 0 -14 -3 -6 -6z"/>
<path d="M1570 1316 c0 -2 7 -6 15 -10 8 -3 15 -1 15 4 0 6 -7 10 -15 10 -8 0
-15 -2 -15 -4z"/>
<path d="M1640 1280 c0 -5 10 -10 23 -10 18 0 19 2 7 10 -19 13 -30 13 -30 0z"/>
<path d="M1866 1085 c4 -8 8 -15 10 -15 2 0 4 7 4 15 0 8 -4 15 -10 15 -5 0
-7 -7 -4 -15z"/>
<path d="M1913 930 c0 -25 2 -35 4 -22 2 12 2 32 0 45 -2 12 -4 2 -4 -23z"/>
<path d="M1866 775 c-3 -8 -1 -15 4 -15 6 0 10 7 10 15 0 8 -2 15 -4 15 -2 0
-6 -7 -10 -15z"/>
<path d="M1640 580 c0 -13 11 -13 30 0 12 8 11 10 -7 10 -13 0 -23 -4 -23 -10z"/>
<path d="M1580 550 c-13 -8 -12 -10 3 -10 9 0 17 5 17 10 0 12 -1 12 -20 0z"/>
<path d="M1346 472 c-3 -5 8 -6 25 -4 16 2 29 6 29 8 0 8 -49 4 -54 -4z"/>
<path d="M778 433 c6 -2 18 -2 25 0 6 3 1 5 -13 5 -14 0 -19 -2 -12 -5z"/>
</g>
</svg>
