<?xml version="1.0" standalone="no"?>
<!DOCTYPE svg PUBLIC "-//W3C//DTD SVG 20010904//EN"
 "http://www.w3.org/TR/2001/REC-SVG-20010904/DTD/svg10.dtd">
<svg version="1.0" xmlns="http://www.w3.org/2000/svg"
 width="100.000000pt" height="100.000000pt" viewBox="0 0 100.000000 100.000000"
 preserveAspectRatio="xMidYMid meet">
<metadata>
Created by potrace 1.16, written by Peter Selinger 2001-2019
</metadata>
<g transform="translate(0.000000,100.000000) scale(0.100000,-0.100000)"
fill="#000000" stroke="none">
<path d="M122 758 c-7 -7 -12 -20 -12 -30 0 -14 -8 -18 -35 -18 -32 0 -35 -2
-35 -30 0 -23 -4 -30 -20 -30 -11 0 -20 -4 -20 -10 0 -5 11 -10 24 -10 19 0
22 -4 18 -25 -3 -16 -11 -25 -23 -25 -11 0 -19 -4 -19 -10 0 -5 13 -10 30 -10
l30 0 0 -60 0 -60 -30 0 c-17 0 -30 -4 -30 -10 0 -5 8 -10 19 -10 10 0 21 -9
24 -20 4 -16 0 -20 -19 -20 -13 0 -24 -4 -24 -10 0 -5 9 -10 19 -10 15 0 21
-8 23 -32 3 -33 3 -33 65 -36 59 -3 62 -4 65 -30 l3 -27 314 -3 c326 -2 341
-1 341 39 0 14 7 19 30 19 28 0 30 3 30 35 0 33 2 35 35 35 32 0 35 2 35 30 0
23 4 30 20 30 11 0 20 5 20 10 0 6 -11 10 -24 10 -19 0 -23 4 -19 20 3 11 14
20 24 20 11 0 19 5 19 10 0 6 -10 10 -22 10 -19 0 -23 6 -23 30 0 24 4 30 23
30 12 0 22 5 22 10 0 6 -9 10 -20 10 -15 0 -20 7 -20 25 0 18 5 25 20 25 11 0
20 5 20 10 0 6 -9 10 -19 10 -14 0 -21 8 -23 28 -3 26 -6 27 -65 30 -62 3 -63
3 -63 32 l0 30 -348 0 c-257 0 -351 -3 -360 -12z m51 -28 c-3 -11 -14 -20 -24
-20 -12 0 -19 7 -19 20 0 14 7 20 24 20 19 0 23 -4 19 -20z m637 0 c0 -25 -28
-26 -46 -2 -12 16 -13 15 -14 -5 0 -16 -5 -20 -20 -16 -11 3 -20 9 -20 14 0 5
-4 9 -10 9 -5 0 -10 -9 -10 -20 0 -19 -7 -20 -125 -20 l-125 0 0 -59 c0 -57
-1 -58 -25 -53 -26 5 -35 32 -11 32 8 0 18 5 21 10 4 6 -7 10 -24 10 -29 0
-31 -3 -31 -35 l0 -35 125 0 125 0 0 31 c0 17 -4 28 -10 24 -5 -3 -10 -12 -10
-19 0 -8 -9 -16 -20 -19 -17 -4 -20 0 -20 24 l0 29 65 0 65 0 0 30 0 30 90 0
90 0 0 -30 c0 -27 -3 -30 -30 -30 l-30 0 0 -65 c0 -62 -1 -65 -25 -65 -19 0
-23 4 -18 18 4 9 14 22 22 29 14 11 12 12 -11 13 -27 0 -28 -1 -28 -60 l0 -60
-30 0 -30 0 0 -65 0 -65 -65 0 -65 0 0 89 c0 84 1 89 20 84 23 -6 26 -18 8
-27 -10 -5 -10 -7 0 -12 14 -7 16 -44 2 -44 -5 0 -10 -4 -10 -10 0 -5 9 -10
20 -10 15 0 20 -7 20 -25 0 -14 5 -25 10 -25 6 0 10 7 10 15 0 8 7 15 15 15 8
0 15 5 15 10 0 6 -11 10 -25 10 -24 0 -25 3 -25 53 l0 54 35 -1 c28 -1 35 -5
35 -20 0 -19 1 -19 20 2 11 12 20 24 20 27 0 3 -65 5 -145 5 -138 0 -145 -1
-145 -20 0 -11 5 -20 10 -20 6 0 10 4 10 9 0 5 9 11 20 14 13 3 20 0 20 -9 0
-17 17 -18 23 -1 4 9 8 8 16 -3 6 -8 11 -18 11 -22 0 -5 -54 -8 -120 -8 l-120
0 0 -65 0 -65 -90 0 -90 0 0 35 c0 33 -2 35 -35 35 -32 0 -35 2 -35 30 l0 30
65 0 65 0 0 60 c0 57 1 60 25 60 19 0 23 -4 18 -17 -4 -10 -14 -23 -22 -30
-14 -11 -13 -12 7 -13 28 0 28 -14 0 -40 l-22 -20 27 0 27 0 0 95 c0 93 0 95
24 95 19 0 22 -4 18 -25 -2 -14 -8 -25 -13 -25 -5 0 -9 -4 -9 -10 0 -5 9 -10
20 -10 18 0 20 7 20 85 0 56 -4 85 -11 85 -6 0 -9 -9 -6 -20 4 -16 0 -20 -19
-20 -17 0 -24 6 -24 20 0 11 -4 20 -10 20 -5 0 -10 -6 -10 -14 0 -8 -6 -17
-12 -19 -7 -3 -3 -6 10 -6 18 -1 22 -7 22 -31 l0 -30 -60 0 c-59 0 -60 1 -60
28 -1 23 -2 25 -13 11 -7 -8 -21 -19 -32 -24 -17 -8 -16 -9 13 -13 29 -3 32
-6 32 -38 0 -32 -2 -34 -35 -34 l-35 0 0 65 0 65 65 0 65 0 0 30 0 30 310 0
c303 0 310 0 310 -20z m130 -60 c0 -15 -7 -20 -25 -20 -18 0 -25 5 -25 20 0
15 7 20 25 20 18 0 25 -5 25 -20z m-650 -10 c0 -5 -4 -10 -10 -10 -5 0 -10 5
-10 10 0 6 5 10 10 10 6 0 10 -4 10 -10z m310 0 c0 -5 -26 -10 -57 -12 -57 -3
-58 -3 -61 -35 -5 -49 -22 -40 -22 12 l0 45 70 0 c39 0 70 -4 70 -10z m70 0
c0 -5 -11 -10 -25 -10 -14 0 -25 5 -25 10 0 6 11 10 25 10 14 0 25 -4 25 -10z
m-128 -55 c-3 -16 -11 -25 -23 -25 -14 0 -19 7 -19 25 0 20 5 25 24 25 19 0
22 -4 18 -25z m398 -100 l0 -125 -35 0 c-33 0 -35 -2 -35 -35 l0 -35 -82 0
-83 0 0 35 0 35 53 0 c51 0 52 0 52 30 0 27 3 30 30 30 l30 0 0 95 0 95 35 0
35 0 0 -125z m-750 80 c0 -18 -5 -25 -20 -25 -15 0 -20 7 -20 25 0 18 5 25 20
25 15 0 20 -7 20 -25z m40 10 c0 -8 -4 -15 -10 -15 -5 0 -10 7 -10 15 0 8 5
15 10 15 6 0 10 -7 10 -15z m622 -10 c4 -19 1 -25 -12 -25 -13 0 -16 6 -12 25
2 14 8 25 12 25 4 0 10 -11 12 -25z m-722 -84 c0 -46 -1 -48 -25 -43 -27 5
-36 42 -10 42 8 0 15 5 15 10 0 6 -7 10 -15 10 -23 0 -18 18 8 23 12 2 23 5
25 6 1 0 2 -21 2 -48z m40 -1 c0 -22 -4 -40 -10 -40 -5 0 -10 18 -10 40 0 22
5 40 10 40 6 0 10 -18 10 -40z m680 0 l0 -40 -40 0 c-22 0 -40 5 -40 10 0 6
14 10 30 10 27 0 30 3 30 30 0 17 5 30 10 30 6 0 10 -18 10 -40z m-60 -80 c0
-11 -4 -20 -10 -20 -5 0 -10 9 -10 20 0 11 5 20 10 20 6 0 10 -9 10 -20z
m-420 -40 c0 -43 -3 -50 -20 -50 -25 0 -26 18 -2 36 16 13 16 13 0 14 -11 0
-18 8 -18 19 0 11 8 22 18 24 9 3 18 5 20 6 1 0 2 -21 2 -49z m380 35 c0 -8
-9 -15 -20 -15 -25 0 -26 17 -2 23 9 3 18 5 20 6 1 0 2 -6 2 -14z m-310 -15
c0 -18 7 -20 54 -20 51 0 53 -1 49 -24 -3 -13 -14 -26 -24 -29 -15 -4 -19 0
-19 19 0 13 -4 24 -10 24 -5 0 -10 -9 -10 -20 0 -17 -7 -20 -45 -20 -41 0 -45
2 -45 25 0 16 6 25 15 25 8 0 15 5 15 10 0 6 -7 10 -15 10 -8 0 -15 5 -15 10
0 6 11 10 25 10 18 0 25 -5 25 -20z m100 10 c0 -5 -18 -10 -40 -10 -22 0 -40
5 -40 10 0 6 18 10 40 10 22 0 40 -4 40 -10z m-430 -75 c0 -20 -5 -25 -25 -25
-20 0 -25 5 -25 25 0 20 5 25 25 25 20 0 25 -5 25 -25z m451 -47 c0 -13 3 -17
6 -10 2 6 15 12 28 12 13 0 26 -6 28 -12 4 -9 8 -10 14 -2 14 18 53 24 53 8 0
-18 8 -18 26 1 22 22 34 18 34 -10 l0 -25 -250 0 -250 0 0 24 c0 19 4 23 20
19 11 -3 20 -9 20 -14 0 -5 5 -9 10 -9 6 0 10 9 10 20 0 19 7 20 125 20 123 0
125 0 126 -22z m-328 -18 c4 -16 0 -20 -19 -20 -17 0 -24 6 -24 20 0 13 7 20
19 20 10 0 21 -9 24 -20z m577 0 c0 -14 -7 -20 -24 -20 -19 0 -23 4 -19 20 3
11 14 20 24 20 12 0 19 -7 19 -20z"/>
<path d="M336 709 c-19 -19 -19 -19 7 -19 23 0 27 -4 27 -27 1 -25 2 -26 14
-10 7 9 18 17 25 17 6 0 11 5 11 10 0 6 -11 10 -25 10 -18 0 -25 5 -25 20 0
25 -9 25 -34 -1z"/>
<path d="M440 720 c0 -5 5 -10 10 -10 6 0 10 5 10 10 0 6 -4 10 -10 10 -5 0
-10 -4 -10 -10z"/>
<path d="M500 720 c0 -5 5 -10 10 -10 6 0 10 5 10 10 0 6 -4 10 -10 10 -5 0
-10 -4 -10 -10z"/>
<path d="M190 665 c0 -8 5 -15 10 -15 6 0 10 7 10 15 0 8 -4 15 -10 15 -5 0
-10 -7 -10 -15z"/>
<path d="M723 655 c-18 -20 -16 -25 6 -25 15 0 21 -8 24 -32 4 -30 5 -31 12
-10 4 12 11 22 16 22 5 0 9 5 9 10 0 6 -9 10 -20 10 -13 0 -20 7 -20 20 0 23
-10 25 -27 5z"/>
<path d="M810 654 c0 -8 5 -12 10 -9 6 3 10 10 10 16 0 5 -4 9 -10 9 -5 0 -10
-7 -10 -16z"/>
<path d="M670 595 c0 -8 -6 -15 -14 -15 -8 0 -18 -4 -21 -10 -4 -6 7 -10 24
-10 26 0 31 4 31 25 0 14 -4 25 -10 25 -5 0 -10 -7 -10 -15z"/>
<path d="M290 530 c0 -5 5 -10 10 -10 6 0 10 5 10 10 0 6 -4 10 -10 10 -5 0
-10 -4 -10 -10z"/>
<path d="M370 520 c0 -18 -7 -20 -57 -20 -53 -1 -56 -2 -39 -15 20 -15 20 -15
0 -30 -15 -11 -16 -14 -4 -15 9 0 22 9 30 20 16 22 65 27 74 8 5 -10 7 -10 12
0 3 6 12 12 20 12 8 0 14 5 14 10 0 6 -9 10 -19 10 -14 0 -18 5 -14 20 3 11 0
20 -6 20 -6 0 -11 -9 -11 -20z"/>
<path d="M440 530 c0 -5 5 -10 10 -10 6 0 10 5 10 10 0 6 -4 10 -10 10 -5 0
-10 -4 -10 -10z"/>
<path d="M480 530 c0 -5 5 -10 10 -10 6 0 10 5 10 10 0 6 -4 10 -10 10 -5 0
-10 -4 -10 -10z"/>
<path d="M635 450 c-3 -5 3 -10 14 -10 12 0 21 5 21 10 0 6 -6 10 -14 10 -8 0
-18 -4 -21 -10z"/>
<path d="M171 413 c-9 -16 -12 -16 -20 -3 -6 8 -13 11 -17 7 -4 -4 3 -15 14
-26 12 -10 22 -28 22 -40 0 -11 5 -21 10 -21 6 0 10 23 10 50 0 54 -3 60 -19
33z"/>
<path d="M250 410 c0 -19 3 -21 12 -12 9 9 9 15 0 24 -9 9 -12 7 -12 -12z"/>
<path d="M250 349 c0 -17 4 -28 10 -24 6 3 10 13 10 21 0 8 5 14 10 14 6 0 10
5 10 10 0 6 -9 10 -20 10 -16 0 -20 -7 -20 -31z"/>
<path d="M890 550 c0 -5 7 -10 15 -10 8 0 15 5 15 10 0 6 -7 10 -15 10 -8 0
-15 -4 -15 -10z"/>
<path d="M898 493 c7 -3 16 -2 19 1 4 3 -2 6 -13 5 -11 0 -14 -3 -6 -6z"/>
<path d="M890 450 c0 -5 7 -10 15 -10 8 0 15 5 15 10 0 6 -7 10 -15 10 -8 0
-15 -4 -15 -10z"/>
<path d="M850 410 c0 -5 5 -10 10 -10 6 0 10 5 10 10 0 6 -4 10 -10 10 -5 0
-10 -4 -10 -10z"/>
<path d="M810 350 c0 -11 5 -20 10 -20 6 0 10 9 10 20 0 11 -4 20 -10 20 -5 0
-10 -9 -10 -20z"/>
<path d="M730 345 c0 -8 5 -15 10 -15 6 0 10 7 10 15 0 8 -4 15 -10 15 -5 0
-10 -7 -10 -15z"/>
<path d="M350 280 c0 -5 5 -10 10 -10 6 0 10 5 10 10 0 6 -4 10 -10 10 -5 0
-10 -4 -10 -10z"/>
<path d="M480 280 c0 -5 5 -10 10 -10 6 0 10 5 10 10 0 6 -4 10 -10 10 -5 0
-10 -4 -10 -10z"/>
<path d="M0 490 c0 -5 9 -10 20 -10 11 0 20 5 20 10 0 6 -9 10 -20 10 -11 0
-20 -4 -20 -10z"/>
</g>
</svg>
