<?xml version="1.0" standalone="no"?>
<!DOCTYPE svg PUBLIC "-//W3C//DTD SVG 20010904//EN"
 "http://www.w3.org/TR/2001/REC-SVG-20010904/DTD/svg10.dtd">
<svg version="1.0" xmlns="http://www.w3.org/2000/svg"
 width="100.000000pt" height="100.000000pt" viewBox="0 0 100.000000 100.000000"
 preserveAspectRatio="xMidYMid meet">
<metadata>
Created by potrace 1.16, written by Peter Selinger 2001-2019
</metadata>
<g transform="translate(0.000000,100.000000) scale(0.100000,-0.100000)"
fill="#000000" stroke="none">
<path d="M30 560 l0 -250 470 0 470 0 0 250 0 250 -470 0 -470 0 0 -250z m351
230 c5 0 9 -9 9 -20 0 -11 5 -20 10 -20 6 0 10 -25 10 -55 0 -47 -2 -54 -14
-43 -7 7 -11 19 -9 25 3 7 0 13 -6 13 -6 0 -11 -13 -11 -30 0 -23 4 -30 20
-30 11 0 20 -7 20 -15 0 -13 -4 -14 -20 -5 -15 8 -20 8 -21 -2 0 -9 -2 -8 -6
2 -4 8 -12 20 -19 27 -10 11 -12 6 -7 -24 3 -21 11 -41 17 -45 6 -4 -1 -8 -16
-8 -27 0 -27 1 -30 73 -3 68 -4 70 -16 43 -10 -24 -10 -38 3 -82 9 -30 19 -54
23 -54 28 1 52 15 52 31 0 17 8 19 80 19 61 0 80 3 80 14 0 8 -9 12 -26 10
-34 -3 -74 39 -73 75 l1 26 7 -24 c4 -14 13 -27 20 -29 11 -4 13 7 7 54 -4 36
-3 54 3 45 6 -10 25 -12 72 -8 182 15 193 27 26 27 l-127 0 0 -30 c0 -16 -5
-30 -11 -30 -6 0 -9 7 -5 15 3 8 1 15 -4 15 -22 0 -8 26 20 39 24 10 57 11
138 6 59 -4 149 -7 200 -6 66 1 92 -2 92 -11 0 -9 3 -9 12 0 17 17 28 15 29
-5 1 -17 2 -17 6 0 2 9 10 17 16 17 9 0 12 -60 13 -228 l0 -227 -446 0 -447 0
1 228 c0 177 3 227 13 227 7 0 14 -8 14 -17 1 -17 2 -17 6 0 5 20 14 22 31 5
9 -9 12 -9 12 0 0 7 16 12 40 12 22 0 40 -5 40 -10 0 -6 -10 -8 -24 -4 -18 4
-27 1 -35 -14 -7 -14 -17 -18 -36 -15 -18 4 -25 1 -25 -11 0 -9 8 -16 17 -16
14 0 15 -2 4 -12 -11 -10 -14 -10 -18 0 -7 17 -33 15 -33 -3 0 -8 5 -15 11
-15 6 0 9 -7 5 -15 -3 -8 -1 -15 4 -15 6 0 10 -13 10 -30 0 -16 -5 -30 -11
-30 -6 0 -9 7 -5 15 3 8 1 15 -4 15 -6 0 -10 -9 -10 -20 0 -16 7 -20 35 -20
24 0 35 5 35 15 0 9 -6 12 -15 9 -8 -4 -15 -1 -15 5 0 6 14 11 30 11 29 0 30
-1 30 -50 0 -43 3 -50 20 -50 12 0 17 5 14 14 -3 8 5 21 18 30 l22 16 -22 0
c-13 0 -22 -6 -22 -15 0 -8 -5 -15 -10 -15 -13 0 -1 52 14 62 6 5 2 8 -10 8
-12 0 -24 7 -28 15 -4 10 1 15 14 15 11 0 20 7 20 15 0 10 -10 15 -30 15 -21
0 -30 5 -30 16 0 12 7 15 28 10 15 -3 21 -3 15 0 -7 3 -13 13 -13 21 0 13 8
15 42 10 24 -3 44 -11 46 -16 2 -6 30 -11 63 -11 59 0 59 0 59 30 0 27 -3 30
-32 29 -30 0 -31 -1 -10 -9 40 -17 23 -25 -43 -22 -48 3 -65 7 -65 18 0 10 13
14 43 15 23 0 51 4 62 9 11 5 26 7 33 4 8 -2 18 -4 23 -4z m-251 -115 c0 -8
-9 -15 -20 -15 -11 0 -20 7 -20 15 0 8 9 15 20 15 11 0 20 -7 20 -15z m310
-55 c0 -5 -4 -10 -10 -10 -5 0 -10 5 -10 10 0 6 5 10 10 10 6 0 10 -4 10 -10z"/>
<path d="M780 766 c0 -11 9 -16 30 -16 21 0 30 -5 30 -16 0 -10 -6 -14 -15
-10 -12 4 -15 -3 -15 -29 0 -32 2 -35 30 -35 20 0 30 5 30 15 0 8 8 15 18 15
14 0 15 2 2 10 -10 6 -16 6 -18 0 -2 -6 -13 -10 -24 -10 -35 0 -13 25 25 28
39 3 54 32 17 32 -11 0 -20 -6 -20 -12 0 -7 -6 -2 -13 12 -15 30 -77 43 -77
16z"/>
<path d="M590 739 c0 -6 -7 -9 -15 -5 -8 3 -15 1 -15 -5 0 -7 31 -9 85 -7 79
3 112 -7 64 -19 -12 -4 -16 -8 -10 -13 6 -3 -17 -4 -50 -2 -59 4 -62 4 -56
-17 5 -20 3 -21 -47 -15 -43 5 -54 3 -59 -10 -6 -14 6 -16 98 -16 61 0 105 4
105 10 0 5 -7 7 -15 4 -8 -4 -15 -1 -15 5 0 6 14 11 30 11 20 0 30 5 30 15 0
10 10 15 30 15 27 0 30 -3 30 -30 0 -16 -5 -30 -11 -30 -6 0 -9 6 -6 14 6 14
-21 32 -31 21 -3 -3 0 -5 6 -5 7 0 12 -15 12 -35 0 -24 -5 -35 -15 -35 -8 0
-15 -5 -15 -11 0 -6 6 -9 12 -7 18 6 37 -16 44 -51 4 -17 10 -31 15 -31 5 0 6
6 3 14 -4 9 3 16 18 19 21 4 20 4 -4 6 -26 1 -28 4 -28 46 0 44 14 61 23 28 3
-10 5 -1 6 20 1 21 -4 37 -10 37 -6 0 -9 7 -5 15 3 8 1 15 -4 15 -6 0 -10 12
-11 28 l0 27 -12 -25 -11 -25 -4 28 c-3 27 -4 27 -83 27 -51 0 -79 -4 -79 -11z
m57 -85 c-3 -3 -12 -4 -19 -1 -8 3 -5 6 6 6 11 1 17 -2 13 -5z"/>
<path d="M190 705 c0 -10 10 -15 30 -15 20 0 30 5 30 15 0 10 -10 15 -30 15
-20 0 -30 -5 -30 -15z"/>
<path d="M910 690 c0 -23 -4 -30 -20 -30 -11 0 -20 -7 -20 -15 0 -8 9 -15 20
-15 11 0 20 7 20 15 0 8 4 15 10 15 5 0 7 7 4 15 -4 8 -1 15 5 15 6 0 11 7 11
15 0 8 -7 15 -15 15 -10 0 -15 -10 -15 -30z"/>
<path d="M271 692 c-1 -17 -9 -24 -31 -28 -16 -4 -30 -10 -30 -15 0 -13 61 12
67 27 3 7 3 19 0 26 -3 7 -6 3 -6 -10z"/>
<path d="M327 703 c-11 -10 -8 -43 3 -43 6 0 10 11 10 25 0 26 -2 29 -13 18z"/>
<path d="M716 627 c3 -10 9 -15 12 -12 3 3 0 11 -7 18 -10 9 -11 8 -5 -6z"/>
<path d="M835 629 c-4 -6 -5 -12 -2 -15 2 -3 7 2 10 11 7 17 1 20 -8 4z"/>
<path d="M252 595 c0 -19 4 -35 10 -35 5 0 7 -4 4 -9 -8 -13 14 -72 25 -65 5
3 16 -1 24 -10 9 -9 11 -17 5 -21 -5 -3 -10 -1 -10 4 0 6 -13 11 -30 11 -29 0
-30 2 -30 45 0 34 -4 45 -15 45 -12 0 -15 -10 -13 -45 2 -28 8 -45 16 -45 7 0
12 -13 12 -30 l0 -30 83 1 c45 0 104 4 130 8 26 4 50 4 52 0 6 -9 -34 -17
-122 -23 -13 0 -23 -4 -23 -8 0 -5 -40 -8 -90 -8 -83 0 -90 -1 -90 -20 0 -17
7 -20 44 -20 25 0 46 5 48 12 2 6 23 11 46 11 23 0 42 4 42 9 0 14 187 10 194
-4 3 -7 4 -4 3 7 -2 12 -10 19 -20 19 -9 -1 -17 2 -17 7 0 5 14 9 30 9 27 0
30 -3 30 -31 0 -20 4 -29 13 -26 14 5 11 50 -3 55 -16 6 -11 32 5 32 10 0 15
-10 15 -30 0 -23 4 -30 20 -30 11 0 20 -3 20 -7 0 -5 12 -9 26 -10 15 0 31 -7
35 -15 7 -11 11 -10 19 2 6 10 10 11 10 3 0 -8 13 -13 30 -13 23 0 30 4 30 20
0 18 -7 20 -75 20 -60 0 -75 3 -75 15 0 8 -5 15 -11 15 -5 0 -7 5 -3 11 4 7 9
7 13 1 5 -8 55 -17 134 -25 9 -1 17 -5 17 -9 0 -4 14 -8 30 -8 31 0 43 23 18
33 -7 3 2 3 20 0 25 -4 32 -2 32 11 0 12 -9 16 -35 16 -24 0 -35 -5 -35 -15 0
-11 -12 -15 -45 -15 -33 0 -45 4 -45 15 0 10 10 15 30 15 20 0 30 5 30 15 0
10 10 15 30 15 17 0 30 -5 30 -11 0 -6 9 -8 20 -4 11 4 20 2 20 -4 0 -6 7 -11
15 -11 8 0 15 7 15 15 0 8 -5 15 -11 15 -6 0 -9 7 -5 15 3 8 0 15 -6 15 -7 0
-9 19 -6 53 4 49 3 52 -19 53 -13 1 -23 -2 -23 -7 0 -5 -7 -9 -15 -9 -8 0 -15
-4 -15 -10 0 -5 4 -10 9 -10 6 0 13 5 16 10 9 15 25 12 25 -5 0 -8 -4 -15 -10
-15 -14 0 -12 -28 3 -33 6 -2 -1 -2 -16 1 -25 3 -28 1 -23 -16 6 -17 3 -19
-14 -15 -14 4 -20 1 -20 -12 0 -14 -7 -16 -33 -13 -27 3 -33 0 -30 -12 3 -10
-6 -21 -22 -28 -35 -16 -35 -16 -35 12 0 13 -5 26 -11 28 -5 2 -13 22 -16 46
l-6 42 -108 0 c-73 0 -109 -4 -109 -11 0 -6 6 -9 13 -6 6 2 17 -1 23 -7 8 -8
-9 -10 -63 -8 -51 3 -73 1 -73 -7 0 -7 5 -9 10 -6 6 3 18 -2 28 -11 16 -17 16
-18 -1 -11 -10 4 -36 7 -58 7 l-39 0 0 65 c0 49 -3 65 -14 65 -9 0 -14 -12
-14 -35z m386 -62 c-2 -10 -14 -20 -27 -21 -20 -3 -22 -8 -18 -35 3 -18 3 -26
0 -19 -7 18 -34 15 -31 -4 3 -14 -12 -17 -107 -19 -60 -1 -124 -4 -140 -7 -32
-5 -64 15 -45 27 6 3 10 1 10 -4 0 -6 14 -11 30 -11 20 0 30 5 30 15 0 10 11
15 35 15 24 0 35 5 35 15 0 12 14 15 63 16 34 1 54 3 45 6 -39 10 -15 23 42
23 33 0 60 4 60 10 0 6 5 10 11 10 6 0 9 -8 7 -17z m22 -63 c0 -23 -4 -30 -20
-30 -16 0 -20 7 -20 30 0 23 4 30 20 30 16 0 20 -7 20 -30z m250 15 c0 -8 -9
-15 -20 -15 -11 0 -20 7 -20 15 0 8 9 15 20 15 11 0 20 -7 20 -15z"/>
<path d="M439 466 c11 -6 42 -9 68 -7 57 5 49 8 -31 14 -46 3 -54 2 -37 -7z"/>
<path d="M547 604 c-13 -14 5 -24 41 -23 34 2 35 2 7 6 -16 3 -33 9 -36 14 -3
5 -8 6 -12 3z"/>
<path d="M653 583 c9 -2 25 -2 35 0 9 3 1 5 -18 5 -19 0 -27 -2 -17 -5z"/>
<path d="M78 563 c6 -2 12 -11 12 -19 0 -8 9 -14 20 -14 27 0 25 26 -2 34 -27
7 -48 7 -30 -1z"/>
<path d="M690 549 c0 -5 5 -7 10 -4 6 3 10 8 10 11 0 2 -4 4 -10 4 -5 0 -10
-5 -10 -11z"/>
<path d="M720 545 c0 -8 -7 -15 -15 -15 -10 0 -15 -10 -15 -30 0 -16 4 -30 10
-30 5 0 7 -7 4 -15 -4 -8 -1 -15 5 -15 6 0 11 14 11 30 0 20 5 30 15 30 10 0
15 10 15 30 0 20 -5 30 -15 30 -8 0 -15 -7 -15 -15z"/>
<path d="M810 549 c0 -5 5 -7 10 -4 6 3 10 8 10 11 0 2 -4 4 -10 4 -5 0 -10
-5 -10 -11z"/>
<path d="M130 519 c0 -6 -7 -8 -16 -5 -18 7 -48 -19 -39 -34 3 -5 1 -10 -4
-10 -6 0 -11 -7 -11 -15 0 -18 26 -20 33 -2 4 10 7 10 18 0 11 -11 10 -13 -4
-13 -9 0 -17 -7 -17 -16 0 -13 7 -15 33 -11 17 3 26 3 20 0 -7 -2 -13 -12 -13
-20 0 -13 8 -14 43 -9 23 4 50 8 59 9 13 1 16 7 12 22 -4 11 -11 23 -17 26 -5
4 -9 18 -9 33 0 15 -6 26 -14 26 -9 0 -14 -11 -14 -30 0 -20 5 -30 15 -30 8 0
15 -7 15 -15 0 -10 -10 -15 -30 -15 -20 0 -30 5 -30 15 0 8 -7 15 -15 15 -8 0
-15 7 -15 15 0 9 10 15 26 15 22 0 24 3 18 23 -10 31 -44 52 -44 26z m0 -34
c0 -8 -9 -15 -20 -15 -11 0 -20 7 -20 15 0 8 9 15 20 15 11 0 20 -7 20 -15z"/>
<path d="M298 523 c6 -2 18 -2 25 0 6 3 1 5 -13 5 -14 0 -19 -2 -12 -5z"/>
<path d="M893 379 c-13 -5 -23 -16 -23 -24 0 -15 2 -15 15 -2 8 9 20 17 27 20
7 2 11 7 8 9 -3 3 -15 2 -27 -3z"/>
</g>
</svg>
