<?xml version="1.0" standalone="no"?>
<!DOCTYPE svg PUBLIC "-//W3C//DTD SVG 20010904//EN"
 "http://www.w3.org/TR/2001/REC-SVG-20010904/DTD/svg10.dtd">
<svg version="1.0" xmlns="http://www.w3.org/2000/svg"
 width="256.000000pt" height="256.000000pt" viewBox="0 0 256.000000 256.000000"
 preserveAspectRatio="xMidYMid meet">
<metadata>
Created by potrace 1.16, written by Peter Selinger 2001-2019
</metadata>
<g transform="translate(0.000000,256.000000) scale(0.100000,-0.100000)"
fill="#000000" stroke="none">
<path d="M1413 2303 c9 -2 23 -2 30 0 6 3 -1 5 -18 5 -16 0 -22 -2 -12 -5z"/>
<path d="M1120 2280 c0 -5 -12 -9 -27 -9 -16 1 -53 -2 -83 -5 -30 -4 -66 -8
-80 -9 -14 -1 -29 -5 -35 -8 -5 -3 -20 -4 -32 -3 -13 0 -23 -3 -23 -8 0 -5 -8
-8 -17 -6 -10 1 -22 0 -28 -3 -5 -3 -44 -14 -85 -24 -41 -10 -100 -28 -130
-41 -30 -12 -62 -24 -70 -26 -8 -2 -17 -5 -20 -8 -9 -9 -85 -44 -92 -42 -5 1
-8 -2 -8 -8 0 -5 -5 -10 -11 -10 -6 0 -25 -11 -43 -25 -18 -14 -36 -25 -40
-25 -4 0 -17 -10 -29 -22 -13 -13 -36 -34 -53 -48 -50 -44 -115 -147 -131
-210 -9 -34 -9 -146 0 -157 5 -7 7 -13 3 -13 -12 0 42 -95 89 -155 25 -33 57
-66 71 -73 13 -7 24 -16 24 -20 0 -4 16 -16 35 -26 19 -11 35 -23 35 -28 0 -4
7 -8 15 -8 8 0 15 -4 15 -10 0 -5 4 -9 8 -7 9 3 105 -45 113 -57 4 -5 12 -5
18 -2 6 4 11 3 11 -1 0 -5 29 -17 65 -28 36 -10 65 -22 65 -27 0 -5 5 -6 10
-3 6 4 17 1 25 -5 8 -7 15 -10 15 -7 0 3 21 -1 48 -9 51 -16 104 -27 139 -28
11 -1 19 -4 17 -8 -3 -4 10 -7 28 -7 18 0 60 -3 93 -7 33 -3 73 -6 88 -6 15 1
25 -3 22 -8 -4 -6 3 -10 15 -10 12 0 19 4 15 9 -3 6 8 6 27 0 38 -10 174 -6
202 6 14 6 17 5 12 -3 -4 -7 -1 -12 8 -12 9 0 16 4 16 8 0 5 19 10 43 11 109
5 126 7 132 13 4 3 20 4 36 1 16 -2 29 0 29 4 0 5 8 9 18 10 35 3 68 9 80 17
7 4 12 5 12 2 0 -3 18 1 41 9 23 8 45 12 50 9 5 -3 9 0 9 6 0 7 8 9 21 5 14
-5 19 -4 15 4 -4 7 -1 9 8 5 8 -3 28 1 43 10 52 28 188 89 201 89 6 0 12 4 12
9 0 4 5 8 11 8 6 0 31 16 55 36 24 20 44 34 44 31 0 -3 28 24 63 60 34 36 68
71 75 78 6 8 12 16 12 19 0 4 11 29 24 57 14 28 22 57 19 65 -3 8 -1 14 5 14
5 0 9 23 9 50 0 28 -4 50 -9 50 -6 0 -7 11 -4 25 4 16 2 25 -5 25 -7 0 -10 3
-6 6 3 3 -8 28 -24 55 -16 28 -29 52 -29 55 0 5 -120 124 -126 124 -3 0 -29
18 -59 40 -30 22 -56 40 -57 39 -6 -4 -93 44 -99 53 -3 5 -9 9 -13 9 -3 -1 -7
-1 -8 0 -2 0 -11 2 -21 4 -10 2 -36 13 -58 24 -22 12 -70 28 -107 36 -72 16
-97 23 -97 25 0 2 -65 12 -82 13 -7 0 -13 4 -13 9 0 5 -17 8 -37 7 -21 0 -65
2 -98 6 -33 3 -78 8 -100 11 -127 13 -238 15 -267 5 -22 -8 -34 -8 -36 -1 -5
13 -22 13 -22 0z m355 -29 c55 -5 111 -12 125 -15 14 -3 41 -8 60 -10 197 -28
418 -109 557 -204 34 -23 64 -42 67 -42 16 0 120 -123 145 -174 46 -90 50
-161 16 -255 -23 -63 -38 -86 -94 -141 -36 -37 -82 -77 -101 -90 -19 -13 -37
-27 -40 -31 -19 -27 -261 -127 -375 -157 -171 -43 -188 -46 -380 -64 -152 -14
-179 -14 -355 1 -166 14 -330 48 -475 97 -100 35 -227 92 -233 107 -2 4 -12 7
-22 7 -10 0 -20 4 -22 9 -4 11 -96 81 -106 81 -5 0 -14 10 -20 23 -10 18 -43
62 -91 122 -24 32 -38 173 -21 229 12 41 64 129 92 156 153 149 318 237 543
289 50 12 106 26 125 31 40 10 174 28 269 35 35 3 67 7 70 11 7 6 109 1 266
-15z"/>
<path d="M1228 2200 c-10 -6 -18 -8 -18 -5 0 3 -17 -3 -38 -14 -59 -30 -96
-84 -138 -199 -61 -168 -28 -259 97 -266 44 -3 135 11 184 27 6 2 50 16 100
32 49 15 100 34 112 42 12 8 23 14 25 14 36 -6 290 129 366 193 22 19 29 60
14 82 -7 10 -144 48 -219 60 -21 3 -40 7 -43 9 -3 2 -33 7 -65 10 -33 4 -63 9
-66 11 -17 10 -296 13 -311 4z m122 -21 c0 -3 43 -5 95 -4 52 1 95 -2 95 -7 0
-5 12 -7 27 -5 15 2 48 -1 73 -6 25 -5 53 -9 62 -9 10 1 20 -4 23 -9 4 -5 10
-7 15 -4 4 3 27 -2 50 -10 23 -8 46 -12 51 -9 5 3 9 2 9 -3 0 -4 11 -9 25 -9
38 -3 57 -22 44 -45 -5 -10 -16 -19 -24 -19 -8 0 -15 -4 -15 -9 0 -10 -77 -62
-96 -65 -7 -1 -21 -9 -31 -18 -26 -23 -80 -48 -87 -41 -3 4 -6 1 -6 -6 0 -7
-4 -9 -10 -6 -5 3 -10 2 -10 -3 0 -5 -19 -15 -42 -22 -24 -8 -49 -18 -55 -23
-7 -5 -13 -7 -13 -4 0 4 -22 -5 -49 -18 -26 -14 -58 -26 -69 -28 -12 -2 -24
-6 -28 -9 -3 -4 -12 -4 -19 -2 -7 3 -16 0 -20 -5 -3 -6 -11 -9 -16 -6 -5 4 -9
1 -9 -5 0 -6 -4 -9 -9 -6 -5 3 -25 -1 -45 -9 -20 -9 -41 -13 -47 -9 -5 3 -15
1 -22 -4 -15 -12 -75 -13 -82 -2 -3 5 -12 7 -19 4 -14 -5 -65 38 -67 56 -1 19
-1 80 1 88 1 4 2 10 1 14 -2 13 46 135 65 165 44 70 98 111 142 107 12 0 22 3
22 7 0 5 20 8 45 7 25 -1 45 -5 45 -9z"/>
<path d="M1270 2160 c-11 -7 -2 -10 29 -10 48 0 51 4 11 13 -14 3 -32 2 -40
-3z"/>
<path d="M1208 2143 c7 -3 16 -2 19 1 4 3 -2 6 -13 5 -11 0 -14 -3 -6 -6z"/>
<path d="M1508 2143 c7 -3 16 -2 19 1 4 3 -2 6 -13 5 -11 0 -14 -3 -6 -6z"/>
<path d="M1608 2133 c7 -3 16 -2 19 1 4 3 -2 6 -13 5 -11 0 -14 -3 -6 -6z"/>
<path d="M1758 2103 c7 -3 16 -2 19 1 4 3 -2 6 -13 5 -11 0 -14 -3 -6 -6z"/>
<path d="M1105 2029 c-4 -6 -5 -12 -2 -15 2 -3 7 2 10 11 7 17 1 20 -8 4z"/>
<path d="M1051 1814 c0 -11 3 -14 6 -6 3 7 2 16 -1 19 -3 4 -6 -2 -5 -13z"/>
<path d="M825 2162 c-25 -4 -138 -37 -235 -69 -65 -21 -185 -77 -200 -93 -3
-3 -27 -20 -55 -37 -146 -93 -214 -243 -174 -388 14 -51 67 -132 110 -168 19
-15 48 -39 64 -53 34 -28 61 -37 100 -32 22 2 31 13 50 58 30 73 127 271 167
342 46 80 141 232 148 238 3 3 17 21 30 40 13 19 27 37 30 40 21 17 50 72 50
93 0 21 -6 25 -32 29 -18 2 -42 2 -53 0z m62 -23 c11 -11 4 -22 -95 -145 -9
-12 -23 -32 -31 -45 -8 -13 -38 -62 -66 -109 -28 -47 -71 -123 -96 -170 -24
-47 -48 -88 -54 -92 -5 -4 -6 -8 -2 -8 5 0 -5 -26 -21 -57 -16 -32 -40 -84
-53 -115 -13 -32 -30 -60 -38 -63 -15 -6 -81 31 -81 46 0 6 -4 8 -8 5 -15 -9
-135 127 -154 174 -28 68 -10 214 29 247 8 6 14 15 14 20 0 16 100 113 117
113 4 0 22 13 41 29 19 17 38 28 42 25 4 -2 14 3 23 11 20 20 98 55 108 49 4
-3 8 0 8 7 0 7 3 10 6 7 3 -4 25 2 49 13 24 10 55 20 69 21 14 1 26 6 26 11 0
5 6 7 14 4 8 -3 17 -3 20 1 8 8 34 13 69 13 15 0 27 5 27 10 0 13 24 11 37 -2z"/>
<path d="M819 2083 c-13 -16 -12 -17 4 -4 16 13 21 21 13 21 -2 0 -10 -8 -17
-17z"/>
<path d="M216 1765 c-9 -26 -7 -32 5 -12 6 10 9 21 6 23 -2 3 -7 -2 -11 -11z"/>
<path d="M2107 1992 c-8 -10 -22 -37 -31 -61 -31 -81 -139 -296 -194 -386 -82
-135 -84 -138 -127 -201 -21 -33 -45 -63 -52 -67 -7 -4 -13 -13 -13 -19 0 -6
-7 -16 -15 -22 -9 -6 -18 -23 -20 -39 -5 -22 -1 -29 20 -37 39 -15 220 31 360
91 96 40 146 68 179 97 15 12 30 22 34 22 12 0 72 58 72 69 0 6 9 15 19 21 11
5 32 36 47 67 57 119 29 267 -68 362 -65 63 -128 111 -146 112 -10 0 -25 2
-34 4 -9 2 -23 -4 -31 -13z m71 -19 c69 -45 185 -159 176 -174 -3 -5 -1 -9 5
-9 12 0 41 -92 41 -132 0 -34 -32 -130 -52 -153 -54 -64 -138 -141 -150 -137
-5 1 -8 -2 -8 -8 0 -5 -13 -16 -30 -25 -16 -9 -30 -12 -30 -9 0 4 -8 0 -17 -8
-25 -22 -83 -50 -83 -41 0 5 -4 2 -9 -5 -4 -7 -18 -14 -29 -15 -12 -1 -22 -4
-22 -7 0 -4 -7 -7 -15 -8 -8 -1 -22 -3 -30 -4 -8 -1 -15 -5 -15 -9 0 -8 -68
-24 -93 -21 -10 1 -16 -2 -13 -7 4 -5 -3 -7 -14 -4 -11 3 -26 1 -33 -5 -6 -5
-23 -11 -37 -12 -55 -5 -62 3 -32 36 9 10 30 37 46 59 17 22 35 43 40 47 6 4
11 11 11 15 1 7 51 90 94 153 9 14 28 46 41 73 14 26 29 47 33 47 5 0 5 5 2
10 -3 6 -1 10 4 10 6 0 10 3 9 8 -1 4 23 59 54 122 31 63 68 141 81 173 14 31
31 57 37 57 6 0 23 -8 38 -17z"/>
<path d="M2035 1729 c-4 -6 -5 -12 -2 -15 2 -3 7 2 10 11 7 17 1 20 -8 4z"/>
<path d="M1828 1233 c7 -3 16 -2 19 1 4 3 -2 6 -13 5 -11 0 -14 -3 -6 -6z"/>
<path d="M1350 1603 c-75 -14 -298 -87 -355 -117 -16 -9 -34 -16 -38 -16 -18
0 -157 -73 -157 -82 0 -6 -9 -8 -20 -5 -11 3 -20 1 -20 -4 0 -5 -12 -15 -27
-23 -55 -30 -103 -81 -103 -108 0 -33 1 -34 103 -63 115 -32 334 -65 470 -70
95 -3 124 -1 167 15 47 17 90 48 90 65 0 4 11 21 25 39 14 18 25 36 25 39 0 3
5 18 12 34 31 78 47 131 48 162 0 56 -20 99 -56 116 -34 16 -121 25 -164 18z
m115 -23 c0 -1 9 -3 19 -5 38 -7 59 -40 59 -92 -1 -69 -9 -98 -56 -193 -48
-97 -106 -151 -151 -143 -17 4 -26 1 -26 -7 0 -8 -4 -9 -12 -3 -11 8 -32 10
-40 4 -10 -8 -58 -8 -58 0 0 5 -32 8 -75 6 -41 -2 -78 -1 -81 2 -3 3 -20 7
-37 8 -53 3 -224 33 -247 44 -3 1 -9 3 -15 4 -5 2 -12 4 -15 5 -3 1 -17 3 -33
5 -15 2 -34 10 -41 18 -13 12 -13 17 0 36 8 11 22 21 30 21 8 0 14 4 14 9 0 5
23 23 50 40 28 17 50 28 50 24 0 -3 8 1 18 9 21 20 82 51 82 43 0 -4 12 3 26
14 15 12 35 21 45 21 11 0 19 5 19 11 0 6 6 9 14 6 8 -3 16 -2 18 2 5 11 145
61 152 54 3 -4 6 -2 6 3 0 5 12 11 26 12 15 1 32 6 38 12 7 5 25 12 41 15 17
3 46 9 65 13 29 7 115 8 115 2z"/>
<path d="M1353 1553 c9 -2 23 -2 30 0 6 3 -1 5 -18 5 -16 0 -22 -2 -12 -5z"/>
<path d="M1512 1450 c0 -14 2 -19 5 -12 2 6 2 18 0 25 -3 6 -5 1 -5 -13z"/>
<path d="M815 1210 c11 -5 29 -8 40 -8 16 0 15 2 -5 8 -34 11 -60 11 -35 0z"/>
<path d="M1058 1173 c6 -2 18 -2 25 0 6 3 1 5 -13 5 -14 0 -19 -2 -12 -5z"/>
<path d="M1214 1161 c3 -5 15 -7 26 -4 28 7 25 13 -6 13 -14 0 -23 -4 -20 -9z"/>
<path d="M1593 2283 c9 -2 23 -2 30 0 6 3 -1 5 -18 5 -16 0 -22 -2 -12 -5z"/>
<path d="M1718 2263 c6 -2 18 -2 25 0 6 3 1 5 -13 5 -14 0 -19 -2 -12 -5z"/>
<path d="M645 2220 l-20 -9 20 0 c11 0 27 4 35 9 13 9 13 10 0 9 -8 0 -24 -4
-35 -9z"/>
<path d="M1878 2223 c6 -2 18 -2 25 0 6 3 1 5 -13 5 -14 0 -19 -2 -12 -5z"/>
<path d="M440 2140 c-8 -5 -10 -10 -5 -10 6 0 17 5 25 10 8 5 11 10 5 10 -5 0
-17 -5 -25 -10z"/>
<path d="M100 1860 c-6 -11 -8 -20 -6 -20 3 0 10 9 16 20 6 11 8 20 6 20 -3 0
-10 -9 -16 -20z"/>
<path d="M66 1795 c-3 -8 -1 -15 4 -15 6 0 10 7 10 15 0 8 -2 15 -4 15 -2 0
-6 -7 -10 -15z"/>
<path d="M52 1740 c0 -14 2 -19 5 -12 2 6 2 18 0 25 -3 6 -5 1 -5 -13z"/>
<path d="M41 1658 c0 -31 3 -37 8 -24 7 18 3 66 -5 66 -2 0 -4 -19 -3 -42z"/>
<path d="M2490 1535 c0 -8 2 -15 4 -15 2 0 6 7 10 15 3 8 1 15 -4 15 -6 0 -10
-7 -10 -15z"/>
<path d="M66 1525 c4 -8 8 -15 10 -15 2 0 4 7 4 15 0 8 -4 15 -10 15 -5 0 -7
-7 -4 -15z"/>
<path d="M2369 1353 c-13 -16 -12 -17 4 -4 9 7 17 15 17 17 0 8 -8 3 -21 -13z"/>
<path d="M370 1216 c0 -2 7 -7 16 -10 8 -3 12 -2 9 4 -6 10 -25 14 -25 6z"/>
<path d="M608 1113 c7 -3 16 -2 19 1 4 3 -2 6 -13 5 -11 0 -14 -3 -6 -6z"/>
<path d="M828 1053 c6 -2 18 -2 25 0 6 3 1 5 -13 5 -14 0 -19 -2 -12 -5z"/>
<path d="M948 1033 c7 -3 16 -2 19 1 4 3 -2 6 -13 5 -11 0 -14 -3 -6 -6z"/>
<path d="M1048 1023 c6 -2 18 -2 25 0 6 3 1 5 -13 5 -14 0 -19 -2 -12 -5z"/>
<path d="M1498 1023 c6 -2 18 -2 25 0 6 3 1 5 -13 5 -14 0 -19 -2 -12 -5z"/>
<path d="M410 665 l0 -135 30 0 c30 0 30 1 30 55 l0 55 55 0 55 0 0 -55 c0
-54 0 -55 30 -55 l30 0 0 135 0 135 -30 0 c-30 0 -30 -1 -30 -54 l0 -53 -55 0
-55 0 0 53 c0 53 0 54 -30 54 l-30 0 0 -135z m115 10 l70 0 3 48 c6 90 22 47
22 -58 0 -63 -4 -105 -10 -105 -5 0 -10 23 -10 50 l0 50 -75 0 -75 0 0 -50 c0
-27 -4 -50 -10 -50 -12 0 -14 193 -2 204 4 4 9 -14 12 -41 l5 -48 70 0z"/>
<path d="M493 760 c0 -25 2 -35 4 -22 2 12 2 32 0 45 -2 12 -4 2 -4 -23z"/>
<path d="M553 760 c0 -25 2 -35 4 -22 2 12 2 32 0 45 -2 12 -4 2 -4 -23z"/>
<path d="M690 755 c17 -25 27 -45 23 -45 -4 0 -3 -4 3 -8 27 -19 54 -82 54
-126 0 -44 1 -46 30 -46 30 0 30 1 30 54 0 36 5 60 15 70 9 8 15 17 13 18 -4
6 36 68 45 68 4 0 6 4 3 9 -3 5 1 14 9 21 24 20 18 30 -17 30 -29 -1 -37 -7
-66 -55 -29 -49 -52 -63 -52 -34 0 5 -12 27 -26 49 -22 34 -32 40 -61 40 l-34
0 31 -45z m49 -21 c12 -19 16 -32 11 -29 -11 7 -43 65 -36 65 2 0 13 -16 25
-36z m120 -11 c-12 -21 -28 -45 -36 -54 -7 -8 -13 -37 -13 -62 0 -26 -4 -47
-10 -47 -5 0 -10 18 -10 41 0 22 -5 49 -10 60 -9 17 -7 19 17 19 22 0 33 9 51
40 12 22 25 40 28 40 3 0 -4 -17 -17 -37z"/>
<path d="M958 788 c-2 -7 -4 -67 -4 -133 l1 -120 98 -3 c65 -2 97 1 97 8 0 6
5 8 10 5 19 -12 31 49 28 149 -3 98 -4 101 -27 104 -13 2 -27 -1 -30 -7 -4 -6
-7 -51 -6 -101 l1 -91 -55 3 -56 3 0 98 0 97 -26 0 c-15 0 -29 -6 -31 -12z
m67 -210 c17 -4 51 -5 77 -2 l47 6 4 97 3 96 2 -101 c2 -118 6 -114 -110 -114
l-68 0 2 108 2 107 5 -94 6 -95 30 -8z"/>
<path d="M1234 787 c-2 -7 -3 -67 -2 -133 l3 -119 33 -3 32 -3 0 103 0 103 57
-1 56 -2 -2 -83 c-1 -46 -3 -86 -3 -89 -2 -22 6 -30 31 -30 l30 0 3 109 c3
103 -3 136 -27 153 -5 4 -54 8 -108 8 -71 0 -99 -4 -103 -13z m59 -24 c-9 -3
-13 -33 -13 -98 0 -52 -4 -97 -10 -100 -6 -4 -10 32 -10 99 0 103 1 106 23
105 12 0 16 -3 10 -6z m151 -15 c3 -13 5 -61 4 -108 l-2 -85 -3 75 c-4 100 -9
119 -36 130 -21 8 -21 9 4 9 19 1 28 -5 33 -21z"/>
<path d="M1524 787 c-2 -7 -3 -67 -2 -133 l3 -119 98 -3 c65 -2 97 1 97 8 0 6
4 9 9 6 16 -10 31 46 31 120 0 72 -10 111 -34 126 -20 14 -196 9 -202 -5z m48
-29 c-7 -7 -12 -44 -12 -94 0 -65 3 -83 16 -88 20 -8 73 -8 113 0 l31 7 0 81
c0 80 -1 82 -27 93 l-28 12 30 -2 30 -2 3 -90 c4 -110 -1 -115 -104 -115 -84
0 -84 -1 -84 105 0 84 6 105 28 105 12 0 13 -3 4 -12z m123 -90 l0 -66 -58 -4
-57 -3 0 70 0 70 58 0 57 0 0 -67z"/>
<path d="M1830 790 c-12 -7 -16 -37 -18 -135 l-4 -125 31 0 c30 0 31 2 31 43
l0 42 55 0 55 0 0 -42 c0 -41 1 -43 30 -43 l30 0 0 135 0 135 -97 0 c-54 0
-105 -5 -113 -10z m38 -31 c-13 -7 -18 -23 -18 -54 0 -31 5 -47 18 -54 16 -10
16 -10 0 -11 -14 0 -18 -9 -18 -40 0 -22 -4 -40 -10 -40 -11 0 -14 167 -4 194
3 9 16 16 28 16 19 -1 19 -2 4 -11z m152 -94 c0 -63 -4 -105 -10 -105 -5 0
-10 18 -10 40 0 31 -4 40 -17 40 -15 0 -14 2 2 19 12 15 16 32 13 65 -2 32 1
46 9 46 10 0 13 -27 13 -105z m-45 50 c-2 -11 -4 -24 -4 -30 -1 -5 -23 -10
-51 -10 -49 0 -50 1 -50 30 0 30 1 30 55 30 49 0 54 -2 50 -20z"/>
<path d="M2095 778 c-3 -13 -5 -72 -3 -133 l3 -110 33 -3 32 -3 0 135 0 136
-30 0 c-22 0 -31 -5 -35 -22z m43 -119 c-4 -119 -22 -121 -26 -2 -3 93 2 123
19 106 5 -5 9 -50 7 -104z"/>
<path d="M1093 705 c0 -38 2 -53 4 -32 2 20 2 52 0 70 -2 17 -4 1 -4 -38z"/>
<path d="M1784 650 c0 -69 1 -97 3 -62 2 34 2 90 0 125 -2 34 -3 6 -3 -63z"/>
<path d="M1494 640 c0 -63 1 -89 3 -57 2 31 2 83 0 115 -2 31 -3 5 -3 -58z"/>
<path d="M1324 615 c0 -55 1 -76 3 -47 2 29 2 74 0 100 -2 26 -3 2 -3 -53z"/>
<path d="M1383 630 c0 -47 2 -66 4 -42 2 23 2 61 0 85 -2 23 -4 4 -4 -43z"/>
<path d="M493 575 c0 -27 2 -38 4 -22 2 15 2 37 0 50 -2 12 -4 0 -4 -28z"/>
<path d="M553 575 c0 -27 2 -38 4 -22 2 15 2 37 0 50 -2 12 -4 0 -4 -28z"/>
<path d="M743 570 c0 -30 2 -43 4 -27 2 15 2 39 0 55 -2 15 -4 2 -4 -28z"/>
<path d="M1893 565 c0 -22 2 -30 4 -17 2 12 2 30 0 40 -3 9 -5 -1 -4 -23z"/>
<path d="M1952 560 c0 -19 2 -27 5 -17 2 9 2 25 0 35 -3 9 -5 1 -5 -18z"/>
<path d="M430 420 c-27 -27 -28 -100 -2 -123 41 -37 135 -6 118 39 -6 15 -9
15 -29 -5 -30 -28 -55 -27 -67 3 -20 55 27 100 61 57 21 -26 39 -27 39 -2 0
46 -84 67 -120 31z"/>
<path d="M570 360 l0 -80 60 0 c47 0 60 3 60 15 0 11 -11 15 -39 15 -25 0 -41
5 -44 14 -5 11 4 16 36 18 56 4 58 31 3 38 -56 7 -57 26 -1 22 40 -4 45 -2 45
17 0 19 -6 21 -60 21 l-60 0 0 -80z"/>
<path d="M717 433 c-4 -3 -7 -39 -7 -80 0 -68 1 -73 21 -73 20 0 21 4 16 58
l-6 57 19 -35 c33 -59 56 -84 74 -77 14 6 16 19 14 79 -3 62 -6 73 -22 76 -16
3 -18 -2 -15 -47 2 -28 1 -51 -3 -51 -5 0 -8 5 -8 11 0 12 -60 89 -70 89 -4 0
-10 -3 -13 -7z"/>
<path d="M860 420 c0 -13 7 -20 20 -20 18 0 20 -7 20 -60 0 -53 2 -60 20 -60
18 0 20 7 20 59 0 54 2 60 22 63 13 2 24 11 26 21 3 15 -5 17 -62 17 -59 0
-66 -2 -66 -20z"/>
<path d="M1000 360 c0 -75 1 -80 21 -80 18 0 21 5 17 30 -4 26 -1 30 18 30 15
0 26 -9 34 -30 11 -26 18 -30 50 -30 24 0 40 5 44 15 3 9 18 15 36 15 20 0 30
-5 30 -15 0 -8 9 -15 21 -15 23 0 22 6 -15 100 -31 80 -54 76 -85 -12 -13 -38
-27 -68 -31 -68 -4 0 -11 10 -17 23 -8 17 -7 28 3 42 18 25 18 31 -6 55 -15
15 -33 20 -70 20 l-50 0 0 -80z m98 28 c-7 -20 -68 -23 -68 -4 0 12 10 16 36
16 24 0 34 -4 32 -12z m131 -30 c1 -5 -5 -8 -13 -8 -9 0 -12 8 -8 27 5 25 6
25 13 8 4 -11 8 -23 8 -27z"/>
<path d="M1300 361 l0 -81 55 0 c42 0 55 3 55 15 0 10 -11 15 -35 15 l-34 0
-3 62 c-2 50 -6 63 -20 66 -16 3 -18 -6 -18 -77z"/>
<path d="M1486 421 c-26 -29 -12 -57 36 -73 23 -8 44 -20 46 -26 6 -18 -55
-15 -62 3 -8 22 -36 18 -36 -5 0 -24 29 -40 74 -40 27 0 40 6 53 26 17 26 16
27 -11 50 -15 13 -36 24 -46 24 -25 0 -36 18 -15 26 9 4 24 -1 34 -10 22 -20
41 -21 41 -2 0 44 -82 63 -114 27z"/>
<path d="M1636 366 c-14 -41 -26 -77 -26 -80 0 -15 32 -4 37 12 3 14 11 18 31
14 15 -3 31 -11 35 -18 4 -8 17 -14 27 -14 19 0 18 4 -8 78 -22 58 -33 78 -49
80 -17 3 -24 -9 -47 -72z m50 -13 c-11 -11 -17 4 -9 23 7 18 8 18 11 1 2 -10
1 -21 -2 -24z"/>
<path d="M1764 426 c-3 -7 -4 -42 -2 -77 l3 -64 53 -3 c42 -2 52 0 52 12 0 12
-10 16 -35 16 l-35 0 0 65 c0 52 -3 65 -15 65 -9 0 -18 -6 -21 -14z"/>
<path d="M1863 380 c0 -36 2 -50 4 -32 2 17 2 47 0 65 -2 17 -4 3 -4 -33z"/>
<path d="M1890 360 l0 -81 62 3 c78 4 95 28 19 28 -43 0 -51 3 -51 18 0 15 6
18 30 14 40 -6 61 3 53 24 -4 12 -16 15 -44 12 -26 -2 -39 1 -39 9 0 7 18 13
48 15 34 2 47 7 47 18 0 11 -15 16 -62 18 l-63 3 0 -81z"/>
<path d="M2045 424 c-9 -9 -15 -26 -13 -37 3 -20 11 -26 61 -46 15 -6 25 -16
22 -21 -9 -15 -45 -12 -51 5 -4 8 -12 15 -20 15 -17 0 -18 -32 -2 -48 17 -17
84 -15 102 4 31 31 18 56 -44 82 -42 18 -44 19 -21 27 18 5 28 3 36 -9 7 -9
17 -16 24 -16 15 0 14 33 -1 48 -17 17 -74 15 -93 -4z"/>
</g>
</svg>
