<?xml version="1.0" standalone="no"?>
<!DOCTYPE svg PUBLIC "-//W3C//DTD SVG 20010904//EN"
 "http://www.w3.org/TR/2001/REC-SVG-20010904/DTD/svg10.dtd">
<svg version="1.0" xmlns="http://www.w3.org/2000/svg"
 width="64.000000pt" height="64.000000pt" viewBox="0 0 64.000000 64.000000"
 preserveAspectRatio="xMidYMid meet">
<metadata>
Created by potrace 1.16, written by Peter Selinger 2001-2019
</metadata>
<g transform="translate(0.000000,64.000000) scale(0.100000,-0.100000)"
fill="#000000" stroke="none">
<path d="M164 440 c-79 -31 -104 -62 -104 -125 0 -48 3 -56 35 -84 47 -41 121
-61 225 -61 104 0 178 20 225 61 32 28 35 36 35 83 0 60 -16 83 -83 118 -35
19 -61 23 -162 25 -101 3 -128 0 -171 -17z m301 -26 c125 -57 126 -140 3 -194
-77 -34 -221 -34 -296 -1 -58 26 -92 62 -92 96 0 26 32 70 63 87 74 40 246 47
322 12z"/>
<path d="M285 397 c-42 -64 9 -79 112 -32 68 31 61 41 -35 51 -56 6 -61 5 -77
-19z m56 -22 c-42 -19 -47 -19 -31 0 7 8 24 15 39 15 25 -1 25 -1 -8 -15z"/>
<path d="M180 394 c-45 -19 -80 -53 -80 -75 0 -18 45 -78 52 -69 2 3 16 30 31
60 14 30 34 65 43 78 20 27 7 29 -46 6z m-26 -68 c-6 -16 -24 -23 -24 -8 0 10
22 33 27 28 2 -2 1 -11 -3 -20z"/>
<path d="M476 356 c-3 -13 -22 -47 -41 -76 -20 -29 -34 -54 -32 -56 10 -10
100 31 117 53 26 33 25 55 -3 81 -29 28 -33 27 -41 -2z m24 -62 c-18 -21 -24
-10 -9 18 8 14 14 18 17 10 2 -7 -2 -19 -8 -28z"/>
<path d="M250 269 c-73 -35 -70 -41 32 -54 51 -6 57 -5 72 16 9 13 16 34 16
46 0 32 -39 30 -120 -8z m80 -14 c-7 -8 -24 -15 -39 -14 l-26 1 30 13 c40 18
50 18 35 0z"/>
</g>
</svg>
