<?xml version="1.0" standalone="no"?>
<!DOCTYPE svg PUBLIC "-//W3C//DTD SVG 20010904//EN"
 "http://www.w3.org/TR/2001/REC-SVG-20010904/DTD/svg10.dtd">
<svg version="1.0" xmlns="http://www.w3.org/2000/svg"
 width="100.000000pt" height="100.000000pt" viewBox="0 0 100.000000 100.000000"
 preserveAspectRatio="xMidYMid meet">
<metadata>
Created by potrace 1.16, written by Peter Selinger 2001-2019
</metadata>
<g transform="translate(0.000000,100.000000) scale(0.100000,-0.100000)"
fill="#000000" stroke="none">
<path d="M350 785 c0 -11 -13 -15 -54 -15 -30 0 -58 -4 -61 -10 -3 -5 -24 -10
-46 -10 -28 0 -39 -4 -39 -15 0 -8 -6 -15 -14 -15 -19 0 -57 -21 -86 -47 -13
-13 -30 -23 -37 -23 -7 0 -13 -11 -13 -25 0 -14 5 -25 10 -25 6 0 10 7 10 15
0 8 7 15 15 15 8 0 15 5 15 10 0 6 7 10 15 10 8 0 15 7 15 15 0 8 9 15 20 15
11 0 20 5 20 10 0 6 11 10 25 10 16 0 25 6 25 15 0 11 11 15 40 15 22 0 40 5
40 10 0 6 27 10 60 10 47 0 60 3 60 15 0 13 21 15 130 15 109 0 130 -2 130
-15 0 -12 13 -15 60 -15 33 0 60 -4 60 -10 0 -5 18 -10 40 -10 29 0 40 -4 40
-15 0 -9 9 -15 25 -15 14 0 25 -4 25 -10 0 -5 11 -10 25 -10 14 0 25 -5 25
-11 0 -14 25 -39 39 -39 6 0 11 -7 11 -15 0 -8 5 -15 10 -15 20 0 9 38 -15 54
-14 9 -25 23 -25 31 0 9 -10 15 -24 15 -14 0 -28 5 -31 10 -3 6 -15 10 -26 10
-10 0 -19 7 -19 15 0 11 -11 15 -39 15 -22 0 -43 5 -46 10 -3 6 -31 10 -61 10
-41 0 -54 4 -54 15 0 13 -23 15 -150 15 -127 0 -150 -2 -150 -15z"/>
<path d="M665 710 c-3 -5 3 -10 15 -10 12 0 18 5 15 10 -3 6 -10 10 -15 10 -5
0 -12 -4 -15 -10z"/>
<path d="M200 689 c0 -10 5 -21 10 -24 6 -3 10 -1 10 4 0 6 7 11 15 11 8 0 15
-7 15 -15 0 -11 -11 -15 -40 -15 -22 0 -40 -4 -40 -10 0 -5 -11 -10 -25 -10
-14 0 -25 -6 -25 -13 0 -7 -9 -19 -20 -27 -11 -8 -20 -25 -20 -37 0 -14 -6
-23 -15 -23 -10 0 -15 -10 -15 -30 0 -20 5 -30 15 -30 9 0 15 -9 15 -23 0 -12
9 -29 20 -37 11 -8 20 -20 20 -27 0 -7 7 -13 15 -13 9 0 15 9 15 25 0 14 5 25
10 25 6 0 10 11 10 25 0 16 6 25 15 25 10 0 15 10 15 30 0 17 5 30 10 30 6 0
10 11 10 25 0 16 6 25 15 25 9 0 15 9 15 21 0 22 22 49 39 49 6 0 11 7 11 15
0 9 -9 15 -25 15 -14 0 -25 4 -25 9 0 5 -11 11 -25 13 -19 4 -25 1 -25 -13z
m30 -74 c0 -8 -7 -15 -15 -15 -9 0 -15 -9 -15 -24 0 -14 -4 -28 -10 -31 -5 -3
-10 -17 -10 -30 0 -12 -7 -25 -15 -29 -8 -3 -15 -14 -15 -24 0 -27 -23 -45
-38 -30 -7 7 -12 20 -12 30 0 10 -7 21 -15 24 -8 4 -15 10 -15 15 0 5 7 9 15
9 9 0 15 9 15 23 1 26 43 77 64 77 8 0 18 5 21 10 10 16 45 12 45 -5z"/>
<path d="M450 675 c0 -16 -6 -25 -15 -25 -9 0 -15 -9 -15 -24 0 -13 -6 -27
-12 -30 -10 -5 -10 -7 0 -12 6 -3 12 -12 12 -20 0 -10 14 -14 55 -14 42 0 55
3 55 15 0 10 11 15 35 15 19 0 35 5 35 10 0 6 11 10 25 10 16 0 25 6 25 15 0
9 9 15 25 15 14 0 25 5 25 10 0 6 7 10 15 10 8 0 15 7 15 15 0 11 -11 15 -40
15 -22 0 -40 5 -40 10 0 6 -40 10 -100 10 l-100 0 0 -25z m180 -5 c0 -5 12
-11 28 -11 24 -2 24 -2 4 -6 -13 -3 -26 -11 -29 -19 -3 -8 -16 -14 -29 -14
-13 0 -24 -4 -24 -10 0 -5 -14 -10 -30 -10 -18 0 -33 -6 -36 -15 -4 -9 -19
-15 -40 -15 -31 0 -34 3 -34 29 0 16 6 31 15 35 8 3 15 15 15 26 0 18 6 20 80
20 47 0 80 -4 80 -10z"/>
<path d="M850 605 c0 -14 -4 -25 -10 -25 -5 0 -10 -18 -10 -40 0 -29 -4 -40
-15 -40 -8 0 -15 -7 -15 -15 0 -8 -4 -15 -10 -15 -5 0 -10 -11 -10 -25 0 -16
-6 -25 -15 -25 -9 0 -15 -9 -15 -21 0 -22 -22 -49 -39 -49 -6 0 -11 -7 -11
-15 0 -9 9 -15 25 -15 16 0 25 6 25 15 0 11 11 15 40 15 22 0 40 5 40 10 0 6
11 10 25 10 14 0 25 5 25 11 0 14 25 39 39 39 6 0 11 11 11 25 0 14 5 25 10
25 6 0 10 14 10 30 0 17 -4 30 -10 30 -5 0 -10 11 -10 25 0 14 -5 25 -11 25
-14 0 -39 25 -39 39 0 6 -7 11 -15 11 -9 0 -15 -9 -15 -25z m60 -65 c0 -9 5
-21 12 -28 9 -9 9 -15 0 -24 -7 -7 -12 -18 -12 -24 0 -20 -60 -74 -81 -74 -10
0 -19 -4 -19 -10 0 -5 -9 -10 -20 -10 -11 0 -20 7 -20 15 0 8 7 15 15 15 9 0
15 9 15 24 0 13 11 34 25 47 15 14 25 35 25 52 0 38 19 58 42 43 10 -6 18 -18
18 -26z"/>
<path d="M600 449 c0 -11 5 -17 10 -14 6 3 10 13 10 21 0 8 -4 14 -10 14 -5 0
-10 -9 -10 -21z"/>
<path d="M470 435 c0 -10 -11 -15 -35 -15 -19 0 -35 -4 -35 -10 0 -5 -11 -10
-25 -10 -16 0 -25 -6 -25 -15 0 -9 -9 -15 -25 -15 -14 0 -25 -4 -25 -10 0 -5
-7 -10 -15 -10 -8 0 -15 -7 -15 -15 0 -11 11 -15 40 -15 22 0 40 -4 40 -10 0
-6 40 -10 100 -10 l100 0 0 25 c0 14 4 25 10 25 5 0 7 -7 4 -15 -4 -8 -1 -15
5 -15 6 0 11 17 11 39 0 22 6 42 13 45 10 5 10 7 0 12 -7 3 -13 12 -13 20 0
10 -14 14 -55 14 -42 0 -55 -3 -55 -15z m90 -34 c0 -16 -7 -34 -15 -41 -8 -7
-15 -19 -15 -26 0 -11 -18 -14 -78 -14 -43 0 -82 4 -88 9 -5 5 -18 11 -29 14
-18 4 -18 5 3 6 12 0 25 8 28 16 4 8 14 15 24 15 11 0 22 5 25 10 3 6 22 10
41 10 24 0 34 5 34 15 0 10 11 15 35 15 32 0 35 -3 35 -29z"/>
<path d="M715 407 c-4 -10 -5 -21 -1 -24 10 -10 18 4 13 24 -4 17 -4 17 -12 0z"/>
<path d="M0 375 c0 -14 6 -25 13 -25 7 0 24 -10 37 -22 29 -27 67 -48 86 -48
8 0 14 -7 14 -15 0 -11 11 -15 39 -15 22 0 43 -4 46 -10 3 -5 31 -10 61 -10
41 0 54 -4 54 -15 0 -13 23 -15 150 -15 127 0 150 2 150 15 0 12 13 15 60 15
33 0 60 4 60 10 0 6 18 10 40 10 29 0 40 4 40 15 0 8 9 15 19 15 11 0 23 5 26
10 3 6 14 10 24 10 10 0 27 11 37 25 10 14 24 25 31 25 7 0 13 11 13 25 0 14
-4 25 -10 25 -5 0 -10 -7 -10 -15 0 -8 -5 -15 -11 -15 -14 0 -39 -25 -39 -39
0 -6 -11 -11 -25 -11 -14 0 -25 -4 -25 -10 0 -5 -11 -10 -25 -10 -16 0 -25 -6
-25 -15 0 -11 -11 -15 -40 -15 -22 0 -40 -4 -40 -10 0 -6 -27 -10 -60 -10 -47
0 -60 -3 -60 -15 0 -13 -21 -15 -130 -15 -109 0 -130 2 -130 15 0 12 -13 15
-60 15 -33 0 -60 4 -60 10 0 6 -18 10 -40 10 -29 0 -40 4 -40 15 0 9 -9 15
-25 15 -14 0 -25 5 -25 10 0 6 -9 10 -20 10 -11 0 -20 7 -20 15 0 8 -7 15 -15
15 -8 0 -15 5 -15 10 0 6 -7 10 -15 10 -8 0 -15 7 -15 15 0 8 -4 15 -10 15 -5
0 -10 -11 -10 -25z"/>
<path d="M773 323 c-20 -8 -15 -23 7 -23 11 0 20 7 20 15 0 15 -6 17 -27 8z"/>
<path d="M386 261 c-3 -5 1 -12 10 -15 20 -8 29 -1 19 13 -8 13 -22 14 -29 2z"/>
<path d="M597 263 c-4 -3 -7 -11 -7 -17 0 -6 5 -5 12 2 6 6 9 14 7 17 -3 3 -9
2 -12 -2z"/>
</g>
</svg>
