<?xml version="1.0" standalone="no"?>
<!DOCTYPE svg PUBLIC "-//W3C//DTD SVG 20010904//EN"
 "http://www.w3.org/TR/2001/REC-SVG-20010904/DTD/svg10.dtd">
<svg version="1.0" xmlns="http://www.w3.org/2000/svg"
 width="256.000000pt" height="256.000000pt" viewBox="0 0 256.000000 256.000000"
 preserveAspectRatio="xMidYMid meet">
<metadata>
Created by potrace 1.16, written by Peter Selinger 2001-2019
</metadata>
<g transform="translate(0.000000,256.000000) scale(0.100000,-0.100000)"
fill="#000000" stroke="none">
<path d="M0 2380 c0 -7 433 -10 1280 -10 847 0 1280 3 1280 10 0 7 -433 10
-1280 10 -847 0 -1280 -3 -1280 -10z"/>
<path d="M1785 2098 c-156 -23 -280 -115 -349 -258 -29 -61 -31 -73 -31 -175
0 -103 2 -114 32 -178 42 -89 126 -172 216 -217 61 -30 80 -34 172 -38 85 -4
115 -1 172 16 62 19 183 92 183 110 0 4 -24 31 -54 61 l-53 52 -47 -29 c-89
-57 -209 -66 -293 -24 -61 32 -119 102 -139 168 -64 220 145 415 359 334 31
-12 70 -32 85 -45 l29 -24 57 58 57 58 -36 31 c-92 81 -229 119 -360 100z
m186 -38 c35 -11 88 -36 118 -56 l53 -36 -38 -39 -37 -38 -28 20 c-46 32 -108
49 -184 49 -125 0 -207 -44 -261 -142 -27 -49 -29 -61 -29 -153 0 -92 2 -104
30 -154 34 -62 98 -114 162 -132 25 -6 78 -10 125 -7 68 3 93 10 136 33 l53
29 36 -36 36 -36 -43 -31 c-97 -70 -234 -97 -350 -67 -83 21 -142 56 -206 122
-162 165 -159 399 6 564 115 115 272 157 421 110z"/>
<path d="M410 1665 l0 -425 90 0 90 0 0 425 0 425 -90 0 -90 0 0 -425z m160 0
l0 -395 -70 0 -70 0 0 395 0 395 70 0 70 0 0 -395z"/>
<path d="M690 1665 l0 -427 228 4 c224 3 228 4 287 31 33 16 71 38 83 50 67
62 87 183 44 264 -22 42 -78 93 -102 93 -8 0 1 14 19 32 46 45 61 79 62 140 2
89 -45 168 -125 211 -38 20 -57 22 -268 25 l-228 4 0 -427z m481 372 c24 -13
58 -42 76 -66 57 -74 56 -150 -2 -218 -44 -52 -46 -86 -5 -110 17 -10 43 -35
58 -57 22 -33 27 -50 27 -102 0 -54 -4 -68 -31 -106 -21 -28 -52 -54 -90 -73
l-57 -30 -219 -3 -218 -3 0 395 0 396 208 0 c199 0 211 -1 253 -23z"/>
<path d="M850 1845 l0 -117 126 4 c124 3 126 3 150 31 34 40 34 124 0 164 -24
28 -26 28 -150 31 l-126 4 0 -117z m212 85 c44 -13 68 -43 68 -85 0 -69 -50
-95 -182 -95 l-78 0 0 95 0 95 78 0 c42 0 94 -5 114 -10z"/>
<path d="M850 1500 l0 -130 120 0 c133 0 177 12 205 54 26 39 30 97 10 140
-27 57 -55 66 -205 66 l-130 0 0 -130z m286 76 c27 -27 34 -42 34 -74 0 -83
-55 -111 -212 -112 l-88 0 0 110 0 110 116 0 116 0 34 -34z"/>
<path d="M2269 1096 c-16 -16 -382 -82 -554 -101 -299 -33 -643 -33 -940 0
-160 18 -423 63 -487 85 -24 8 -28 6 -28 -10 0 -10 8 -21 18 -24 84 -25 417
-78 577 -91 44 -4 94 -9 110 -11 48 -6 504 -5 570 1 274 26 479 56 655 96 75
17 90 24 90 40 0 19 -3 23 -11 15z"/>
<path d="M473 772 c-29 -4 -73 -57 -73 -87 0 -35 38 -71 96 -89 29 -9 60 -26
70 -37 17 -19 17 -23 3 -47 -20 -37 -89 -43 -131 -12 -24 18 -29 19 -34 5 -14
-35 60 -72 124 -62 53 9 82 42 82 92 0 48 -16 66 -75 85 -70 22 -95 39 -95 64
0 49 70 74 118 40 12 -8 27 -12 32 -9 40 25 -49 68 -117 57z"/>
<path d="M840 767 c-44 -11 -96 -60 -111 -105 -37 -113 61 -235 176 -218 94
15 149 82 143 177 -4 57 -25 96 -70 128 -29 20 -96 29 -138 18z m131 -63 c44
-42 55 -86 34 -141 -21 -53 -63 -83 -118 -83 -76 0 -127 54 -127 133 0 49 32
100 74 118 39 16 105 4 137 -27z"/>
<path d="M1180 610 l0 -160 100 0 c82 0 100 3 100 15 0 12 -16 15 -80 15 l-80
0 0 145 c0 138 -1 145 -20 145 -19 0 -20 -7 -20 -160z"/>
<path d="M1569 610 c-62 -150 -65 -160 -45 -160 16 0 25 10 36 43 l15 42 76 3
76 3 17 -46 c13 -32 23 -45 37 -45 10 0 19 1 19 3 0 1 -29 72 -64 157 -47 113
-70 156 -83 158 -15 2 -30 -26 -84 -158z m141 -37 c0 -2 -27 -3 -59 -3 l-60 0
23 58 c13 31 26 66 30 77 6 16 14 4 37 -55 16 -41 29 -76 29 -77z"/>
<path d="M1925 610 c0 -146 2 -160 18 -160 14 0 17 10 17 65 l0 65 44 0 c44 0
44 0 78 -62 25 -45 41 -64 57 -66 22 -4 22 -1 -13 61 -40 72 -42 77 -22 77 23
0 46 41 46 83 0 29 -7 46 -29 68 -28 27 -34 29 -113 29 l-83 0 0 -160z m171
104 c20 -19 24 -31 19 -52 -9 -40 -32 -52 -97 -52 l-58 0 0 65 0 65 55 0 c47
0 60 -4 81 -26z"/>
<path d="M0 180 c0 -7 433 -10 1280 -10 847 0 1280 3 1280 10 0 7 -433 10
-1280 10 -847 0 -1280 -3 -1280 -10z"/>
</g>
</svg>
