<?xml version="1.0" standalone="no"?>
<!DOCTYPE svg PUBLIC "-//W3C//DTD SVG 20010904//EN"
 "http://www.w3.org/TR/2001/REC-SVG-20010904/DTD/svg10.dtd">
<svg version="1.0" xmlns="http://www.w3.org/2000/svg"
 width="192.000000pt" height="192.000000pt" viewBox="0 0 192.000000 192.000000"
 preserveAspectRatio="xMidYMid meet">
<metadata>
Created by potrace 1.16, written by Peter Selinger 2001-2019
</metadata>
<g transform="translate(0.000000,192.000000) scale(0.100000,-0.100000)"
fill="#000000" stroke="none">
<path d="M27 1323 c-4 -3 -7 -153 -7 -332 0 -306 1 -328 20 -358 11 -18 30
-35 42 -38 13 -3 426 -4 918 -3 l895 3 0 338 0 339 -33 29 -32 29 -898 0
c-494 0 -902 -3 -905 -7z m1820 -37 l28 -24 3 -326 3 -326 -890 0 c-489 0
-897 3 -906 6 -41 16 -45 48 -45 379 l0 315 889 0 890 0 28 -24z"/>
<path d="M119 1239 c-17 -17 -20 -29 -16 -72 3 -29 7 -151 9 -272 l3 -220 73
-3 72 -3 0 73 0 73 21 -43 c40 -81 115 -116 233 -110 61 3 82 9 123 34 48 30
50 31 62 12 21 -33 79 -51 141 -44 30 4 91 8 135 9 l80 2 5 152 c4 116 8 151
17 145 9 -6 13 -52 15 -152 l3 -145 73 -3 72 -3 0 149 0 150 34 4 c19 2 42 -2
52 -9 25 -19 58 -16 97 7 19 11 42 18 51 14 29 -11 17 -21 -41 -33 -114 -23
-173 -79 -173 -164 0 -81 47 -123 134 -121 28 1 94 2 147 3 l96 0 6 133 c11
254 -16 302 -173 302 -69 0 -92 -6 -162 -42 -5 -2 -8 5 -8 16 0 15 -9 22 -31
27 -34 8 -28 21 11 27 22 3 25 8 28 49 4 64 -13 79 -89 79 -33 0 -69 -5 -81
-11 -25 -13 -48 -68 -48 -114 0 -24 -4 -35 -15 -35 -11 0 -15 -12 -15 -47 l-1
-48 -14 32 c-21 48 -66 67 -160 68 -70 0 -86 -4 -127 -28 -42 -24 -48 -32 -48
-60 0 -25 6 -37 29 -50 33 -19 76 -22 86 -6 10 15 53 29 70 23 27 -11 16 -22
-27 -29 -55 -9 -126 -40 -155 -67 -13 -12 -26 -36 -29 -55 -7 -38 -10 -39 -44
-13 -32 25 -55 25 -87 0 -36 -28 -88 -26 -118 5 -73 72 21 179 110 126 45 -26
56 -26 105 -1 53 27 55 65 5 108 -106 94 -309 58 -375 -66 l-19 -37 -2 75 c-1
41 0 80 2 85 1 6 5 31 7 57 5 62 -19 88 -83 88 -32 0 -51 -6 -66 -21z m106
-24 c14 -13 25 -33 25 -45 0 -41 -62 -75 -96 -52 -13 9 -34 46 -34 62 0 17 47
60 65 60 9 0 27 -11 40 -25z m1024 19 c28 -6 31 -10 31 -46 0 -38 -1 -40 -25
-34 -26 7 -28 5 -39 -46 -6 -26 -4 -28 29 -28 35 0 35 0 35 -45 0 -44 -1 -45
-31 -43 l-31 3 2 -152 1 -153 -51 0 -50 0 0 156 c0 151 -1 155 -20 149 -18 -6
-20 -2 -20 39 0 39 3 46 20 46 17 0 20 7 20 53 0 86 41 118 129 101z m-1014
-349 l0 -196 -48 3 -48 3 -2 193 -2 192 50 0 50 0 0 -195z m363 176 c36 -18
79 -58 71 -64 -2 -2 -20 -13 -39 -24 -35 -21 -35 -21 -59 -2 -28 23 -99 26
-140 5 -57 -30 -69 -116 -22 -168 26 -30 35 -33 85 -33 43 0 60 5 77 21 l21
22 40 -27 40 -26 -35 -31 c-46 -43 -120 -59 -196 -43 -103 21 -172 120 -157
222 9 60 56 124 109 148 57 25 155 25 205 0z m402 -18 c35 -39 42 -82 38 -232
l-3 -115 -47 -1 c-39 0 -48 3 -48 16 0 15 -3 15 -37 -2 -80 -41 -174 -17 -194
50 -24 82 45 150 171 168 47 7 55 12 58 31 2 13 -2 30 -8 38 -18 21 -83 18
-113 -6 -27 -21 -34 -20 -86 17 -8 5 24 35 58 54 28 15 52 19 110 16 68 -2 75
-5 101 -34z m557 20 c54 -25 63 -59 63 -226 l0 -143 -50 0 c-40 0 -50 3 -50
17 0 15 -3 15 -37 -2 -55 -28 -124 -25 -162 7 -27 22 -31 32 -31 74 0 41 5 53
31 79 28 28 109 61 150 61 46 0 66 39 37 68 -19 19 -82 14 -112 -9 l-26 -20
-30 21 c-26 19 -29 24 -18 38 40 48 168 67 235 35z"/>
<path d="M882 865 c-71 -22 -101 -62 -70 -93 17 -17 65 -15 99 5 25 15 29 23
29 60 0 48 2 47 -58 28z m28 -40 c0 -17 -30 -35 -59 -35 -29 0 -26 17 7 34 35
19 52 20 52 1z"/>
<path d="M1495 873 c-57 -13 -87 -27 -101 -48 -35 -53 28 -85 96 -50 26 14 30
21 30 60 0 25 -1 44 -2 44 -2 -1 -12 -3 -23 -6z m-5 -48 c0 -17 -30 -35 -59
-35 -26 0 -18 23 12 38 31 15 47 14 47 -3z"/>
<path d="M1677 1244 c-4 -4 -7 -135 -7 -291 l0 -283 69 0 69 0 6 31 c8 42 6
487 -3 519 -6 23 -12 25 -67 28 -33 2 -63 0 -67 -4z m113 -289 l0 -265 -50 0
-50 0 0 265 0 265 50 0 50 0 0 -265z"/>
</g>
</svg>
