<?xml version="1.0" standalone="no"?>
<!DOCTYPE svg PUBLIC "-//W3C//DTD SVG 20010904//EN"
 "http://www.w3.org/TR/2001/REC-SVG-20010904/DTD/svg10.dtd">
<svg version="1.0" xmlns="http://www.w3.org/2000/svg"
 width="100.000000pt" height="100.000000pt" viewBox="0 0 100.000000 100.000000"
 preserveAspectRatio="xMidYMid meet">
<metadata>
Created by potrace 1.16, written by Peter Selinger 2001-2019
</metadata>
<g transform="translate(0.000000,100.000000) scale(0.100000,-0.100000)"
fill="#000000" stroke="none">
<path d="M410 989 c0 -5 5 -7 10 -4 6 3 10 8 10 11 0 2 -4 4 -10 4 -5 0 -10
-5 -10 -11z"/>
<path d="M440 989 c0 -5 5 -7 10 -4 6 3 10 8 10 11 0 2 -4 4 -10 4 -5 0 -10
-5 -10 -11z"/>
<path d="M508 993 c7 -3 16 -2 19 1 4 3 -2 6 -13 5 -11 0 -14 -3 -6 -6z"/>
<path d="M751 984 c0 -11 3 -14 6 -6 3 7 2 16 -1 19 -3 4 -6 -2 -5 -13z"/>
<path d="M780 971 c0 -16 -3 -31 -7 -34 -5 -2 -2 -2 5 0 8 1 25 3 38 3 20 0
24 5 24 30 0 17 -4 30 -10 30 -5 0 -10 -9 -10 -19 0 -23 -16 -36 -25 -21 -3 5
-1 10 4 10 6 0 11 7 11 15 0 8 -7 15 -15 15 -10 0 -15 -10 -15 -29z"/>
<path d="M867 981 c-4 -17 -3 -21 5 -13 5 5 8 16 6 23 -3 8 -7 3 -11 -10z"/>
<path d="M249 943 c0 -16 -3 -22 -6 -15 -6 14 -243 18 -243 3 0 -4 68 -10 151
-13 106 -4 153 -9 159 -18 5 -8 9 -9 14 -1 4 6 2 11 -3 11 -6 0 -11 6 -11 14
0 11 19 15 80 18 71 3 80 1 80 -14 0 -15 -10 -18 -65 -18 -53 0 -65 -3 -65
-16 0 -14 3 -14 15 -4 12 10 15 10 15 -4 0 -12 9 -16 35 -16 19 0 35 5 35 10
0 6 5 10 11 10 5 0 7 -4 4 -10 -3 -5 -1 -10 4 -10 6 0 11 9 11 20 0 11 7 20
16 20 8 0 13 4 10 9 -9 14 4 41 20 41 8 0 14 -4 14 -10 0 -5 32 -7 78 -5 100
6 112 8 112 17 0 4 -106 8 -235 8 l-235 0 -1 -27z m31 7 c0 -5 -5 -10 -11 -10
-5 0 -7 5 -4 10 3 6 8 10 11 10 2 0 4 -4 4 -10z"/>
<path d="M660 924 c0 -14 8 -16 43 -11 23 2 36 3 30 0 -7 -3 -13 -13 -13 -24
0 -13 7 -19 23 -19 13 0 33 -13 47 -30 28 -33 42 -37 60 -15 11 13 8 15 -14
15 -16 0 -26 5 -26 15 0 8 -7 15 -15 15 -8 0 -15 9 -15 20 0 11 -7 20 -15 20
-8 0 -15 7 -15 15 0 11 -12 15 -45 15 -35 0 -45 -4 -45 -16z"/>
<path d="M840 905 c0 -35 23 -50 33 -22 4 10 7 10 18 0 11 -11 10 -13 -4 -13
-12 0 -17 -8 -17 -30 0 -20 -5 -30 -15 -30 -8 0 -15 -7 -15 -15 0 -8 7 -15 15
-15 8 0 15 7 15 15 0 8 9 15 19 15 11 0 21 5 23 12 3 7 3 -14 2 -45 -2 -32 1
-57 6 -57 6 0 10 -13 10 -30 0 -16 -4 -30 -10 -30 -5 0 -8 -27 -7 -61 2 -34 1
-56 -1 -50 -7 20 -42 13 -42 -9 0 -14 -5 -18 -17 -13 -12 5 -15 2 -10 -10 5
-12 1 -17 -13 -17 -22 0 -27 -26 -7 -33 6 -3 -7 -2 -30 0 -35 5 -43 3 -43 -11
0 -12 10 -16 45 -16 33 0 45 4 45 15 0 8 7 15 15 15 8 0 15 7 15 15 0 8 9 15
20 15 11 0 20 7 20 15 0 8 7 15 15 15 13 0 15 24 15 155 0 131 -2 155 -15 155
-10 0 -15 11 -15 35 0 28 -4 35 -20 35 -11 0 -20 7 -20 15 0 8 -7 15 -15 15
-10 0 -15 -11 -15 -35z"/>
<path d="M956 925 c-3 -8 -1 -15 4 -15 6 0 10 7 10 15 0 8 -2 15 -4 15 -2 0
-6 -7 -10 -15z"/>
<path d="M802 914 c-7 -8 -10 -19 -6 -26 5 -7 10 -3 16 12 10 28 7 33 -10 14z"/>
<path d="M0 890 c0 -19 7 -20 110 -20 103 0 110 1 110 20 0 19 -7 20 -110 20
-103 0 -110 -1 -110 -20z"/>
<path d="M247 872 c1 -8 3 -15 3 -18 0 -2 7 -1 15 2 8 4 15 1 15 -5 0 -6 -13
-11 -30 -11 -20 0 -30 -5 -30 -15 0 -8 -7 -15 -15 -15 -8 0 -15 -7 -15 -15 0
-8 -7 -15 -15 -15 -8 0 -15 -7 -15 -15 0 -8 -7 -15 -15 -15 -8 0 -15 -7 -15
-15 0 -8 -9 -15 -20 -15 -17 0 -20 -7 -20 -45 0 -38 3 -45 20 -45 15 0 20 7
20 29 0 16 -5 31 -12 33 -9 3 -9 6 0 12 7 4 12 2 12 -3 0 -6 7 -11 16 -11 11
0 15 6 11 19 -3 15 0 17 16 13 16 -4 19 -1 15 15 -4 17 -2 19 15 15 16 -4 19
-1 15 15 -4 16 -2 19 13 16 13 -4 19 0 19 11 0 9 -5 16 -11 16 -5 0 -7 5 -3
11 4 7 9 8 13 1 3 -5 18 -10 34 -10 21 0 26 4 22 17 -4 14 1 17 30 15 25 -2
35 1 35 11 0 12 -14 15 -59 15 -33 0 -61 3 -64 8 -2 4 -2 1 0 -6z"/>
<path d="M130 823 c0 -10 4 -14 8 -8 4 6 11 13 16 18 5 4 2 7 -7 7 -10 0 -17
-8 -17 -17z"/>
<path d="M952 685 c0 -69 4 -125 9 -125 5 0 9 56 9 125 0 69 -4 125 -9 125 -5
0 -9 -56 -9 -125z"/>
<path d="M46 735 c-3 -8 -1 -15 4 -15 6 0 10 7 10 15 0 8 -2 15 -4 15 -2 0 -6
-7 -10 -15z"/>
<path d="M500 735 c0 -12 15 -15 80 -15 44 0 80 -4 80 -9 0 -10 -112 -7 -177
4 -35 6 -43 5 -43 -8 0 -8 5 -17 12 -19 9 -3 9 -6 0 -12 -7 -4 -12 -2 -12 3 0
6 -7 11 -15 11 -8 0 -15 -7 -15 -15 0 -10 10 -15 30 -15 20 0 30 5 30 15 0 12
19 15 110 15 l110 0 0 -65 0 -65 -112 0 c-61 0 -109 -2 -107 -4 2 -2 40 -6 84
-9 44 -3 100 -9 124 -13 l44 -7 -6 29 c-3 16 -4 23 -1 17 13 -30 31 -11 33 33
1 36 -3 50 -18 60 -13 9 -17 21 -14 35 6 20 3 21 -23 16 -16 -3 -23 -4 -16 -1
6 3 12 12 12 19 0 9 -25 13 -95 14 -80 2 -95 -1 -95 -14z m220 -110 c0 -19 -4
-35 -8 -35 -5 0 -8 16 -8 35 1 46 16 46 16 0z"/>
<path d="M60 635 c0 -44 -3 -53 -15 -49 -9 4 -15 0 -15 -10 0 -11 9 -16 30
-16 l30 0 0 -155 c0 -130 2 -155 15 -155 9 0 12 6 9 15 -4 8 -1 15 5 15 6 0
11 -19 11 -45 0 -26 5 -45 11 -45 6 0 9 7 5 15 -3 8 -1 15 4 15 6 0 9 20 8 45
-1 46 -6 53 -25 34 -8 -8 -13 -8 -17 0 -4 6 -2 11 3 11 7 0 11 43 11 124 0
108 -2 125 -17 132 -18 7 -27 10 -40 13 -5 1 -2 5 6 10 12 8 13 16 3 47 -6 20
-9 41 -6 46 3 4 0 8 -5 8 -7 0 -11 -23 -11 -55z"/>
<path d="M628 663 c-50 -5 -53 -33 -4 -33 25 0 35 5 39 20 3 11 4 19 4 18 -1
-1 -19 -3 -39 -5z"/>
<path d="M357 638 c-14 -14 -17 -27 -12 -46 8 -29 9 -39 20 -144 6 -58 9 -68
26 -68 22 0 26 18 5 26 -8 3 -12 12 -9 20 3 8 0 14 -6 14 -7 0 -11 32 -11 95
l0 95 35 0 c19 0 35 4 35 10 0 5 -7 7 -15 4 -8 -4 -15 -1 -15 5 0 18 -33 11
-53 -11z"/>
<path d="M530 645 c0 -8 7 -15 15 -15 8 0 15 7 15 15 0 8 -7 15 -15 15 -8 0
-15 -7 -15 -15z"/>
<path d="M31 614 c0 -11 3 -14 6 -6 3 7 2 16 -1 19 -3 4 -6 -2 -5 -13z"/>
<path d="M560 610 c0 -11 7 -20 15 -20 8 0 15 9 15 20 0 11 -7 20 -15 20 -8 0
-15 -9 -15 -20z"/>
<path d="M390 605 c-10 -12 -10 -15 4 -15 9 0 16 7 16 15 0 8 -2 15 -4 15 -2
0 -9 -7 -16 -15z"/>
<path d="M530 600 c0 -5 5 -10 11 -10 5 0 7 5 4 10 -3 6 -8 10 -11 10 -2 0 -4
-4 -4 -10z"/>
<path d="M605 600 c-3 -5 -1 -10 4 -10 6 0 11 5 11 10 0 6 -2 10 -4 10 -3 0
-8 -4 -11 -10z"/>
<path d="M314 435 c1 -117 4 -155 14 -155 9 0 12 38 12 155 0 121 -3 155 -13
155 -10 0 -13 -33 -13 -155z"/>
<path d="M440 575 c0 -8 -7 -15 -15 -15 -8 0 -15 -7 -15 -16 0 -14 2 -14 15 0
9 8 23 22 31 31 14 13 14 15 0 15 -9 0 -16 -7 -16 -15z"/>
<path d="M4 516 c0 -31 5 -46 13 -46 8 0 13 12 13 30 0 20 5 30 15 30 12 0 15
-20 17 -112 1 -98 2 -105 7 -48 6 61 0 164 -10 174 -2 2 -16 7 -30 11 -25 6
-26 5 -25 -39z"/>
<path d="M440 520 c0 -5 7 -7 15 -4 8 4 15 1 15 -5 0 -6 -7 -11 -15 -11 -10 0
-15 -10 -15 -30 l0 -30 140 0 c110 0 140 3 140 13 0 10 -26 14 -107 16 -59 1
-111 5 -115 7 -5 3 -7 0 -6 -7 2 -6 -3 -14 -9 -16 -8 -3 -13 4 -13 15 0 27 18
32 111 32 64 0 79 3 79 15 0 12 -19 15 -110 15 -64 0 -110 -4 -110 -10z"/>
<path d="M281 420 c-1 -66 1 -80 14 -80 12 0 15 15 15 80 0 61 -3 80 -14 80
-10 0 -14 -20 -15 -80z"/>
<path d="M890 480 c-13 -8 -12 -10 3 -10 9 0 17 5 17 10 0 12 -1 12 -20 0z"/>
<path d="M410 440 c0 -27 3 -30 30 -30 29 0 30 -1 30 -50 0 -49 1 -50 30 -50
29 0 30 2 29 43 -1 27 -3 33 -6 17 -8 -45 -23 -46 -23 -2 l0 42 95 0 95 0 0
-65 0 -65 30 0 30 0 0 80 c0 64 -3 80 -15 80 -12 0 -15 -15 -15 -77 -1 -61 -3
-74 -11 -59 -6 10 -9 41 -7 70 l4 51 -135 0 c-133 0 -136 0 -139 23 -5 33 -22
27 -22 -8z"/>
<path d="M956 455 c4 -8 8 -15 10 -15 2 0 4 7 4 15 0 8 -4 15 -10 15 -5 0 -7
-7 -4 -15z"/>
<path d="M6 434 c-9 -22 -8 -24 9 -24 8 0 15 9 15 20 0 24 -15 27 -24 4z"/>
<path d="M765 354 c0 -41 3 -74 8 -74 4 0 7 29 7 65 0 51 3 65 15 65 24 0 17
15 -8 16 -21 2 -22 -2 -22 -72z"/>
<path d="M830 414 c0 -2 9 -8 20 -14 11 -6 20 -7 20 -2 0 6 -9 12 -20 15 -11
3 -20 3 -20 1z"/>
<path d="M21 374 c0 -11 3 -14 6 -6 3 7 2 16 -1 19 -3 4 -6 -2 -5 -13z"/>
<path d="M440 352 c0 -23 4 -42 8 -42 9 0 9 67 -1 76 -4 4 -7 -11 -7 -34z"/>
<path d="M620 335 c0 -53 1 -55 28 -55 27 0 27 1 22 52 l-5 53 -3 -42 c-2 -24
-8 -43 -14 -43 -6 0 -9 16 -6 40 2 26 -1 41 -9 44 -10 4 -13 -9 -13 -49z"/>
<path d="M544 345 c0 -19 3 -35 8 -35 4 0 8 16 8 35 0 46 -15 46 -16 0z"/>
<path d="M574 345 c0 -19 3 -35 7 -35 4 0 9 16 11 35 2 21 0 35 -7 35 -6 0
-11 -16 -11 -35z"/>
<path d="M803 330 c0 -30 2 -43 4 -27 2 15 2 39 0 55 -2 15 -4 2 -4 -28z"/>
<path d="M940 295 c0 -69 3 -85 15 -85 12 0 15 16 15 85 0 69 -3 85 -15 85
-12 0 -15 -16 -15 -85z"/>
<path d="M390 350 c0 -5 5 -10 10 -10 6 0 10 5 10 10 0 6 -4 10 -10 10 -5 0
-10 -4 -10 -10z"/>
<path d="M0 325 c0 -8 7 -15 15 -15 8 0 15 7 15 15 0 8 -7 15 -15 15 -8 0 -15
-7 -15 -15z"/>
<path d="M831 324 c0 -11 3 -14 6 -6 3 7 2 16 -1 19 -3 4 -6 -2 -5 -13z"/>
<path d="M354 295 c3 -8 1 -15 -4 -15 -5 0 -8 -14 -8 -30 1 -20 5 -29 13 -26
6 2 18 0 26 -5 10 -6 10 -9 2 -9 -7 0 -13 -4 -13 -9 0 -5 16 -9 35 -9 19 0 35
5 35 10 0 6 7 8 15 4 8 -3 15 -1 15 4 0 6 -13 10 -30 10 -20 0 -30 5 -30 15 0
8 -9 15 -20 15 -16 0 -20 7 -20 30 0 17 -5 30 -11 30 -6 0 -9 -7 -5 -15z"/>
<path d="M56 285 c-3 -9 -6 -24 -5 -33 0 -9 5 -4 10 12 9 32 6 48 -5 21z"/>
<path d="M510 289 c-40 -5 -38 -6 24 -7 38 -1 66 1 62 5 -9 9 -31 9 -86 2z"/>
<path d="M825 290 c-3 -5 -1 -10 4 -10 6 0 11 5 11 10 0 6 -2 10 -4 10 -3 0
-8 -4 -11 -10z"/>
<path d="M385 270 c3 -5 10 -10 16 -10 5 0 9 5 9 10 0 6 -7 10 -16 10 -8 0
-12 -4 -9 -10z"/>
<path d="M901 264 c0 -11 3 -14 6 -6 3 7 2 16 -1 19 -3 4 -6 -2 -5 -13z"/>
<path d="M690 258 c0 -5 20 -8 45 -8 25 0 45 3 45 8 0 4 -20 7 -45 7 -25 0
-45 -3 -45 -7z"/>
<path d="M425 240 c3 -5 8 -10 11 -10 2 0 4 5 4 10 0 6 -5 10 -11 10 -5 0 -7
-4 -4 -10z"/>
<path d="M500 235 c0 -10 10 -15 33 -15 l32 0 -29 15 c-35 18 -36 18 -36 0z"/>
<path d="M90 230 c0 -5 5 -10 10 -10 6 0 10 5 10 10 0 6 -4 10 -10 10 -5 0
-10 -4 -10 -10z"/>
<path d="M160 190 c0 -20 5 -30 15 -30 8 0 15 -7 15 -15 0 -8 7 -15 15 -15 8
0 15 -9 15 -20 0 -16 7 -20 30 -20 23 0 30 4 30 20 0 16 7 20 31 20 27 0 31
-3 27 -22 -4 -22 -2 -23 49 -20 44 3 53 7 53 23 0 15 -7 19 -34 19 -19 0 -36
-5 -38 -12 -3 -9 -6 -9 -12 0 -4 7 -2 12 3 12 6 0 11 7 11 15 0 29 -96 6 -121
-29 -4 -4 -10 -3 -13 3 -4 6 -2 11 3 11 6 0 11 7 11 16 0 11 -6 15 -19 11 -15
-3 -17 0 -13 16 4 16 1 19 -15 15 -16 -4 -19 -2 -16 13 4 13 0 19 -11 19 -11
0 -16 -9 -16 -30z"/>
<path d="M660 205 c0 -8 5 -15 10 -15 6 0 10 7 10 15 0 8 -4 15 -10 15 -5 0
-10 -7 -10 -15z"/>
<path d="M690 206 c0 -10 10 -14 30 -14 18 1 30 6 30 15 0 8 -12 13 -30 13
-19 0 -30 -5 -30 -14z"/>
<path d="M280 175 c0 -8 4 -15 9 -15 5 0 11 7 15 15 3 9 0 15 -9 15 -8 0 -15
-7 -15 -15z"/>
<path d="M440 174 c0 -12 7 -15 28 -10 15 3 21 3 15 0 -7 -3 -13 -13 -13 -21
0 -13 9 -15 43 -10 23 2 36 3 30 0 -7 -3 -13 -13 -13 -24 0 -15 -8 -19 -32
-20 -18 -1 -37 -2 -43 -4 -5 -1 -18 -3 -27 -3 -10 -1 -18 -6 -18 -12 0 -6 37
-10 90 -10 50 0 90 -3 90 -8 0 -4 -27 -7 -60 -6 -33 0 -60 -4 -60 -8 0 -4 27
-8 60 -8 47 0 60 -3 60 -15 0 -8 5 -15 10 -15 6 0 10 13 10 29 0 25 -6 31 -35
41 -34 11 -46 32 -25 45 6 3 10 -1 10 -9 0 -12 11 -16 50 -16 38 0 50 -4 50
-15 0 -8 5 -15 10 -15 6 0 10 4 10 9 0 6 -4 13 -10 16 -25 16 -4 23 68 23 42
0 71 -3 64 -5 -6 -3 -10 -8 -8 -12 3 -4 -19 -6 -49 -3 -46 4 -55 2 -55 -12 0
-13 12 -16 75 -16 42 0 75 4 75 10 0 5 -7 7 -15 4 -8 -4 -15 -1 -15 5 0 7 20
11 50 11 43 0 50 3 50 20 0 16 7 20 30 20 27 0 30 3 30 30 0 21 -5 30 -16 30
-12 0 -15 -7 -10 -27 3 -16 3 -22 0 -15 -7 14 -104 17 -104 2 0 -5 7 -7 15 -4
8 4 15 1 15 -4 0 -6 7 -12 17 -14 15 -3 15 -4 0 -17 -15 -12 -17 -11 -17 3 0
14 -19 16 -155 16 -85 0 -155 3 -155 8 0 4 28 8 62 10 98 4 81 12 -25 12 -64
0 -97 4 -97 11 0 6 7 9 15 5 8 -3 15 -1 15 4 0 6 -20 10 -45 10 -35 0 -45 -4
-45 -16z"/>
<path d="M98 153 c7 -3 16 -2 19 1 4 3 -2 6 -13 5 -11 0 -14 -3 -6 -6z"/>
<path d="M280 80 c0 -5 -7 -7 -15 -4 -8 4 -15 1 -15 -5 0 -6 14 -11 30 -11 20
0 30 5 30 15 0 8 -7 15 -15 15 -8 0 -15 -4 -15 -10z"/>
<path d="M944 68 c3 -13 6 -33 6 -45 0 -13 5 -23 10 -23 6 0 10 20 10 45 0 35
-4 45 -16 45 -12 0 -15 -6 -10 -22z"/>
<path d="M196 49 c20 -23 24 -23 24 -5 0 7 -9 16 -21 19 -20 5 -20 5 -3 -14z"/>
<path d="M343 63 c-43 -6 -45 -33 -3 -33 19 0 30 5 30 14 0 8 8 17 18 19 21 6
0 5 -45 0z"/>
<path d="M860 53 c0 -5 11 -9 25 -9 14 -1 25 2 25 7 0 5 -11 9 -25 9 -14 0
-25 -3 -25 -7z"/>
<path d="M280 40 c0 -5 5 -10 11 -10 5 0 7 5 4 10 -3 6 -8 10 -11 10 -2 0 -4
-4 -4 -10z"/>
<path d="M670 24 c0 -13 5 -24 10 -24 6 0 10 7 10 15 0 10 10 15 30 15 45 0
36 15 -10 16 -36 1 -40 -1 -40 -22z"/>
<path d="M408 33 c-50 -5 -53 -33 -4 -31 24 1 36 7 39 20 3 10 4 17 4 16 -1
-1 -19 -3 -39 -5z"/>
<path d="M773 33 c4 -3 7 -11 7 -18 0 -10 7 -12 30 -5 18 5 32 5 35 -1 9 -14
25 -11 25 6 0 11 -11 15 -39 15 -22 0 -45 2 -53 3 -7 2 -10 2 -5 0z"/>
<path d="M230 26 c0 -2 7 -6 15 -10 8 -3 15 -1 15 4 0 6 -7 10 -15 10 -8 0
-15 -2 -15 -4z"/>
<path d="M634 15 c8 -8 17 -15 20 -15 3 0 6 7 6 15 0 9 -9 15 -21 15 -18 0
-19 -2 -5 -15z"/>
<path d="M500 10 c0 -5 5 -10 11 -10 5 0 7 5 4 10 -3 6 -8 10 -11 10 -2 0 -4
-4 -4 -10z"/>
</g>
</svg>
