<?xml version="1.0" standalone="no"?>
<!DOCTYPE svg PUBLIC "-//W3C//DTD SVG 20010904//EN"
 "http://www.w3.org/TR/2001/REC-SVG-20010904/DTD/svg10.dtd">
<svg version="1.0" xmlns="http://www.w3.org/2000/svg"
 width="256.000000pt" height="256.000000pt" viewBox="0 0 256.000000 256.000000"
 preserveAspectRatio="xMidYMid meet">
<metadata>
Created by potrace 1.16, written by Peter Selinger 2001-2019
</metadata>
<g transform="translate(0.000000,256.000000) scale(0.100000,-0.100000)"
fill="#000000" stroke="none">
<path d="M0 1810 c0 -7 433 -10 1280 -10 847 0 1280 3 1280 10 0 7 -433 10
-1280 10 -847 0 -1280 -3 -1280 -10z"/>
<path d="M915 1745 c-355 -39 -645 -136 -783 -261 -76 -68 -102 -120 -102
-202 0 -79 17 -119 77 -183 115 -123 357 -217 698 -271 124 -20 178 -22 475
-22 297 0 351 2 475 22 341 54 583 148 698 271 60 64 77 104 77 183 0 82 -26
134 -101 201 -141 129 -430 223 -797 262 -169 18 -551 18 -717 0z m765 -30
c419 -53 723 -184 804 -347 32 -64 33 -108 2 -173 -77 -166 -392 -299 -841
-357 -153 -19 -610 -16 -765 5 -436 61 -731 189 -806 352 -30 63 -30 107 0
170 87 187 461 326 991 369 105 8 495 -4 615 -19z"/>
<path d="M2272 1488 c-7 -7 -12 -24 -12 -38 0 -14 5 -31 12 -38 7 -7 24 -12
38 -12 32 0 50 17 50 46 0 44 -58 72 -88 42z m62 -14 c19 -18 19 -20 6 -45
-18 -33 -70 -18 -70 21 0 19 19 40 36 40 7 0 20 -7 28 -16z"/>
<path d="M2291 1448 c0 -18 3 -27 6 -20 4 10 8 10 20 0 13 -10 14 -8 11 17 -2
19 -10 31 -20 33 -14 3 -18 -3 -17 -30z m29 12 c0 -5 -4 -10 -10 -10 -5 0 -10
5 -10 10 0 6 5 10 10 10 6 0 10 -4 10 -10z"/>
<path d="M275 1290 l0 -190 125 0 125 0 0 190 0 190 -125 0 -125 0 0 -190z
m225 -5 l0 -165 -95 0 -95 0 0 165 0 165 95 0 95 0 0 -165z"/>
<path d="M635 1290 l0 -190 115 0 115 0 -3 82 c-2 46 -1 80 2 77 11 -11 82
-124 89 -141 6 -16 22 -18 142 -18 l135 0 -74 111 -75 112 51 61 c27 33 60 69
72 78 20 17 16 18 -101 18 -117 0 -123 -1 -134 -22 -7 -13 -34 -52 -61 -87
l-50 -64 4 86 3 87 -115 0 -115 0 0 -190z m205 80 c0 -76 1 -80 23 -80 16 0
38 22 81 80 l59 80 68 0 c38 0 69 -3 69 -6 0 -3 -18 -27 -40 -53 -22 -26 -40
-56 -40 -66 0 -11 25 -58 55 -106 30 -48 55 -89 55 -93 0 -3 -42 -6 -92 -6
l-93 1 -49 79 c-39 63 -54 80 -72 80 -23 0 -24 -3 -24 -80 l0 -81 -87 3 -88 3
-3 163 -2 162 90 0 90 0 0 -80z"/>
<path d="M1275 1290 l0 -190 223 0 222 0 0 53 0 52 -110 -3 -110 -3 0 25 c0
26 0 26 90 26 l90 0 0 40 0 40 -90 0 c-90 0 -90 0 -90 26 l0 25 110 -3 110 -3
0 53 0 52 -222 0 -223 0 0 -190z m415 135 l0 -25 -105 0 -105 0 0 -44 c0 -41
2 -44 31 -50 17 -3 58 -6 90 -6 46 0 59 -3 59 -15 0 -12 -17 -15 -90 -15 l-90
0 0 -45 0 -45 105 0 105 0 0 -30 0 -30 -195 0 -195 0 0 165 0 165 195 0 195 0
0 -25z"/>
<path d="M1830 1308 c-34 -95 -67 -181 -72 -190 -8 -17 -1 -18 86 -18 l94 0 7
30 7 30 73 0 73 0 7 -30 7 -30 120 0 c111 0 120 1 113 18 -5 9 -38 95 -74 189
l-66 173 -156 0 -156 0 -63 -172z m415 -15 c33 -86 62 -160 63 -165 2 -4 -35
-8 -83 -8 l-86 0 -10 30 -11 30 -94 0 -94 0 -6 -30 c-6 -30 -7 -30 -70 -30
l-63 0 13 38 c51 140 95 260 101 275 6 15 23 17 144 17 l136 0 60 -157z"/>
<path d="M1981 1311 c-32 -89 -31 -91 39 -91 59 0 60 1 60 28 0 15 -8 48 -17
75 -13 36 -22 47 -39 47 -17 0 -26 -12 -43 -59z m73 -48 c7 -21 4 -23 -34 -23
l-41 0 14 28 c8 15 18 41 22 57 l7 30 13 -35 c7 -19 15 -45 19 -57z"/>
<path d="M0 750 c0 -7 433 -10 1280 -10 847 0 1280 3 1280 10 0 7 -433 10
-1280 10 -847 0 -1280 -3 -1280 -10z"/>
</g>
</svg>
