<?xml version="1.0" standalone="no"?>
<!DOCTYPE svg PUBLIC "-//W3C//DTD SVG 20010904//EN"
 "http://www.w3.org/TR/2001/REC-SVG-20010904/DTD/svg10.dtd">
<svg version="1.0" xmlns="http://www.w3.org/2000/svg"
 width="100.000000pt" height="100.000000pt" viewBox="0 0 100.000000 100.000000"
 preserveAspectRatio="xMidYMid meet">
<metadata>
Created by potrace 1.16, written by Peter Selinger 2001-2019
</metadata>
<g transform="translate(0.000000,100.000000) scale(0.100000,-0.100000)"
fill="#000000" stroke="none">
<path d="M0 740 c0 -7 173 -10 500 -10 327 0 500 3 500 10 0 7 -173 10 -500
10 -327 0 -500 -3 -500 -10z"/>
<path d="M265 700 c-3 -5 -21 -10 -40 -10 -19 0 -37 -4 -40 -10 -3 -5 -17 -10
-30 -10 -13 0 -27 -4 -30 -10 -3 -5 -15 -10 -27 -10 -14 0 -18 -5 -14 -15 3
-8 2 -14 -2 -14 -19 3 -31 -3 -56 -27 -39 -39 -39 -149 0 -188 15 -14 31 -26
36 -26 5 0 16 -7 25 -15 9 -9 24 -13 37 -10 11 2 15 2 8 -1 -18 -9 -4 -24 23
-24 13 0 27 -4 30 -10 3 -5 21 -10 40 -10 19 0 37 -4 40 -10 8 -14 462 -14
470 0 3 6 21 10 40 10 19 0 37 5 40 10 3 6 17 10 30 10 27 0 41 15 23 24 -7 3
-3 3 8 1 13 -3 28 1 37 10 9 8 20 15 25 15 5 0 21 12 36 26 23 24 26 35 26 94
0 59 -3 70 -26 94 -25 24 -37 30 -56 27 -4 0 -5 6 -2 14 4 10 0 15 -14 15 -12
0 -24 5 -27 10 -3 6 -17 10 -30 10 -13 0 -27 5 -30 10 -3 6 -21 10 -40 10 -19
0 -37 5 -40 10 -8 14 -462 14 -470 0z m360 -20 c-41 -6 -33 -7 50 -9 69 -1 95
-4 85 -11 -11 -7 -3 -10 30 -10 33 0 41 -3 30 -10 -11 -7 -2 -10 33 -10 26 0
47 -5 47 -11 0 -5 -4 -7 -10 -4 -5 3 -10 1 -10 -4 0 -6 9 -11 20 -11 11 0 20
-4 20 -10 0 -5 -4 -10 -10 -10 -5 0 -10 -9 -10 -20 0 -11 5 -20 10 -20 6 0 10
9 10 20 0 26 6 25 35 -5 37 -36 33 -78 -10 -120 -19 -19 -41 -35 -50 -35 -8 0
-15 -4 -15 -10 0 -5 -21 -10 -47 -11 l-48 -1 35 -11 35 -12 -55 -3 c-38 -2
-50 -6 -40 -12 10 -7 -19 -10 -85 -11 -83 -2 -91 -3 -50 -9 30 -4 -20 -7 -125
-7 -105 0 -155 3 -125 7 41 6 33 7 -50 9 -66 1 -95 4 -85 11 10 6 -2 10 -40
12 l-55 3 35 12 35 11 -47 1 c-27 1 -48 6 -48 11 0 6 -7 10 -15 10 -29 0 -85
67 -85 100 0 33 56 100 85 100 8 0 15 5 15 11 0 5 -5 7 -10 4 -5 -3 -10 -1
-10 4 0 6 21 11 48 11 34 0 43 3 32 10 -11 7 -3 10 30 10 33 0 41 3 30 10 -10
7 16 10 85 11 83 2 91 3 50 9 -30 4 20 7 125 7 105 0 155 -3 125 -7z"/>
<path d="M100 500 l0 -80 55 0 55 0 0 80 0 80 -55 0 -55 0 0 -80z m70 0 c0
-29 -4 -40 -15 -40 -11 0 -15 11 -15 40 0 29 4 40 15 40 11 0 15 -11 15 -40z
m13 -67 c-13 -2 -35 -2 -50 0 -16 2 -5 4 22 4 28 0 40 -2 28 -4z"/>
<path d="M250 500 l0 -80 40 0 c38 0 40 2 40 30 0 35 10 38 30 10 11 -15 26
-20 57 -20 36 0 43 3 43 20 0 11 -4 20 -10 20 -5 0 -10 14 -10 30 0 17 5 30
10 30 6 0 10 7 10 16 0 8 5 12 10 9 6 -3 10 -1 10 4 0 7 -23 11 -55 11 -43 0
-55 -3 -55 -16 0 -15 -23 -44 -34 -44 -3 0 -6 14 -6 30 0 28 -2 30 -40 30
l-40 0 0 -80z m47 -22 c-2 -13 -4 -3 -4 22 0 25 2 35 4 23 2 -13 2 -33 0 -45z
m115 -5 c8 -9 7 -13 -3 -13 -8 0 -20 9 -27 20 -10 16 -10 24 0 40 13 20 13 20
16 -7 2 -15 8 -34 14 -40z m15 35 c-3 -7 -5 -2 -5 12 0 14 2 19 5 13 2 -7 2
-19 0 -25z m-119 -75 c-10 -2 -26 -2 -35 0 -10 3 -2 5 17 5 19 0 27 -2 18 -5z"/>
<path d="M500 500 l0 -80 88 2 87 2 -85 6 -85 6 83 2 c85 2 119 22 37 22 -38
0 -45 3 -45 20 0 16 7 20 31 20 17 0 28 -4 24 -10 -9 -15 4 -12 21 4 22 22 17
26 -31 26 -25 0 -45 5 -45 10 0 6 20 10 45 10 38 0 45 3 45 20 0 18 -7 20 -85
20 l-85 0 0 -80z m58 0 c-1 -22 -5 -40 -10 -40 -4 0 -8 18 -8 40 0 22 4 40 10
40 5 0 9 -18 8 -40z"/>
<path d="M730 550 c0 -16 -4 -30 -10 -30 -5 0 -10 -13 -10 -30 0 -16 -4 -30
-10 -30 -5 0 -10 -9 -10 -20 0 -16 6 -20 33 -19 l32 1 -30 8 c-30 8 -30 8 8 9
20 0 37 6 37 11 0 6 9 10 20 10 11 0 20 -4 20 -10 0 -5 25 -10 55 -10 30 0 55
5 55 10 0 6 -4 10 -10 10 -5 0 -10 15 -10 33 0 24 -3 28 -10 17 -7 -11 -10 -4
-10 28 0 23 -5 42 -11 42 -5 0 -8 -4 -5 -8 2 -4 1 -14 -5 -22 -7 -12 -9 -10
-9 8 0 20 -4 22 -60 22 l-60 0 0 -30z m125 -22 c5 4 5 2 2 -5 -4 -6 -3 -23 3
-37 10 -28 6 -33 -14 -13 -17 17 -28 71 -11 57 6 -5 16 -6 20 -2z m-45 -28 c0
-13 -7 -20 -20 -20 -13 0 -20 7 -20 20 0 13 7 20 20 20 13 0 20 -7 20 -20z"/>
<path d="M470 446 c0 -11 -15 -16 -52 -19 l-53 -3 58 -2 c51 -2 57 0 57 18 0
11 -2 20 -5 20 -3 0 -5 -7 -5 -14z"/>
<path d="M848 423 c12 -2 30 -2 40 0 9 3 -1 5 -23 4 -22 0 -30 -2 -17 -4z"/>
<path d="M0 260 c0 -7 173 -10 500 -10 327 0 500 3 500 10 0 7 -173 10 -500
10 -327 0 -500 -3 -500 -10z"/>
</g>
</svg>
