<?xml version="1.0" standalone="no"?>
<!DOCTYPE svg PUBLIC "-//W3C//DTD SVG 20010904//EN"
 "http://www.w3.org/TR/2001/REC-SVG-20010904/DTD/svg10.dtd">
<svg version="1.0" xmlns="http://www.w3.org/2000/svg"
 width="180.000000pt" height="180.000000pt" viewBox="0 0 180.000000 180.000000"
 preserveAspectRatio="xMidYMid meet">
<metadata>
Created by potrace 1.16, written by Peter Selinger 2001-2019
</metadata>
<g transform="translate(0.000000,180.000000) scale(0.100000,-0.100000)"
fill="#000000" stroke="none">
<path d="M900 1576 l0 -223 -62 -7 c-185 -19 -351 -183 -381 -375 l-11 -71
-223 0 c-142 0 -223 -4 -223 -10 0 -16 470 -13 471 3 13 228 145 386 362 431
l67 14 0 -220 0 -219 211 1 c116 1 212 0 214 -2 9 -9 -26 -141 -50 -188 -38
-76 -121 -154 -202 -193 l-68 -32 -502 -3 c-444 -2 -503 -5 -503 -18 0 -14 54
-15 492 -9 524 6 542 8 628 58 85 49 168 150 201 245 18 52 20 82 19 320 0
179 3 262 10 262 7 0 10 -70 10 -217 l-2 -218 221 -3 c194 -2 221 -1 221 13 0
14 -26 16 -210 15 l-211 -2 -2 201 -2 201 213 0 c135 0 212 4 212 10 0 6 -82
10 -227 10 l-228 0 3 225 c3 201 1 225 -13 225 -14 0 -16 -24 -13 -225 l3
-225 -203 2 -203 3 1 223 c0 147 -3 222 -10 222 -6 0 -10 -76 -10 -224z m420
-446 l0 -210 -200 0 -200 0 0 205 0 205 198 3 c108 1 198 3 200 5 1 1 2 -92 2
-208z"/>
<path d="M588 913 c57 -2 147 -2 200 0 53 1 7 3 -103 3 -110 0 -154 -2 -97 -3z"/>
<path d="M450 223 c0 -142 4 -223 10 -223 6 0 10 78 10 213 l0 212 205 0 205
0 0 -212 c0 -135 4 -213 10 -213 6 0 10 81 10 223 l0 222 -225 0 -225 0 0
-222z"/>
</g>
</svg>
