<?xml version="1.0" standalone="no"?>
<!DOCTYPE svg PUBLIC "-//W3C//DTD SVG 20010904//EN"
 "http://www.w3.org/TR/2001/REC-SVG-20010904/DTD/svg10.dtd">
<svg version="1.0" xmlns="http://www.w3.org/2000/svg"
 width="100.000000pt" height="100.000000pt" viewBox="0 0 100.000000 100.000000"
 preserveAspectRatio="xMidYMid meet">
<metadata>
Created by potrace 1.16, written by Peter Selinger 2001-2019
</metadata>
<g transform="translate(0.000000,100.000000) scale(0.100000,-0.100000)"
fill="#000000" stroke="none">
<path d="M480 875 c0 -8 -7 -15 -15 -15 -8 0 -15 -7 -15 -15 0 -8 -7 -15 -15
-15 -12 0 -15 -15 -15 -75 l0 -75 -140 0 c-118 0 -140 -2 -140 -15 0 -10 -11
-15 -35 -15 -28 0 -35 -4 -35 -20 0 -11 -7 -20 -15 -20 -10 0 -15 -10 -15 -30
0 -20 -5 -30 -15 -30 -9 0 -15 -9 -15 -24 0 -13 -3 -31 -6 -40 -4 -11 -1 -16
10 -16 11 0 16 9 16 30 0 20 5 30 15 30 10 0 15 10 15 30 0 20 5 30 15 30 8 0
15 9 15 20 0 16 7 20 35 20 24 0 35 5 35 15 0 13 21 15 125 15 104 0 125 -2
125 -15 0 -8 7 -15 15 -15 8 0 15 -9 15 -20 0 -11 7 -20 15 -20 8 0 15 -7 15
-15 0 -8 7 -15 15 -15 10 0 15 -10 15 -30 0 -20 5 -30 15 -30 12 0 15 -17 15
-95 0 -78 -3 -95 -15 -95 -8 0 -15 -7 -15 -15 0 -8 -7 -15 -15 -15 -10 0 -15
-10 -15 -30 0 -20 -5 -30 -15 -30 -8 0 -15 -7 -15 -15 0 -10 -11 -15 -35 -15
-24 0 -35 -5 -35 -15 0 -12 -18 -15 -105 -15 -87 0 -105 3 -105 15 0 8 -7 15
-15 15 -8 0 -15 7 -15 15 0 8 -9 15 -20 15 -11 0 -20 7 -20 15 0 8 -7 15 -15
15 -8 0 -15 7 -15 15 0 8 -7 15 -15 15 -10 0 -15 10 -15 30 0 21 -5 30 -16 30
-11 0 -14 -5 -10 -16 3 -9 6 -27 6 -40 0 -15 6 -24 15 -24 8 0 15 -7 15 -15 0
-8 7 -15 15 -15 8 0 15 -7 15 -15 0 -8 9 -15 20 -15 11 0 20 -7 20 -15 0 -8 7
-15 15 -15 8 0 15 -7 15 -15 0 -13 21 -15 125 -15 104 0 125 2 125 15 0 10 11
15 35 15 24 0 35 5 35 15 0 8 7 15 15 15 10 0 15 10 15 30 0 17 5 30 10 30 6
0 10 -11 10 -25 0 -14 7 -28 15 -31 8 -4 15 -12 15 -20 0 -8 7 -14 15 -14 8 0
15 -7 15 -15 0 -12 14 -15 70 -15 56 0 70 3 70 15 0 8 7 15 15 15 11 0 15 12
15 45 l0 45 75 0 c60 0 75 3 75 15 0 10 11 15 35 15 33 0 35 2 35 35 0 24 5
35 15 35 8 0 15 4 15 9 0 5 3 16 6 25 4 11 1 16 -10 16 -9 0 -16 -7 -16 -15 0
-8 -7 -15 -15 -15 -10 0 -15 -11 -15 -35 0 -33 -2 -35 -35 -35 -24 0 -35 -5
-35 -15 0 -12 -13 -15 -60 -15 -47 0 -60 3 -60 15 0 8 -7 15 -15 15 -8 0 -15
7 -15 15 0 8 -7 15 -15 15 -8 0 -15 9 -15 20 0 11 -7 20 -15 20 -8 0 -15 7
-15 15 0 8 -9 15 -20 15 -17 0 -20 7 -20 45 0 38 3 45 20 45 16 0 20 7 20 30
0 20 5 30 15 30 8 0 15 7 15 15 0 10 10 15 30 15 23 0 30 4 30 20 0 18 7 20
80 20 73 0 80 -2 80 -20 0 -11 7 -20 15 -20 8 0 15 -7 15 -15 0 -8 7 -15 15
-15 8 0 15 -7 15 -15 0 -8 7 -15 16 -15 11 0 14 5 10 16 -3 9 -6 20 -6 25 0 5
-7 9 -15 9 -8 0 -15 7 -15 15 0 8 -7 15 -15 15 -8 0 -15 7 -15 15 0 10 11 15
35 15 19 0 35 5 35 10 0 6 -13 10 -30 10 -20 0 -30 5 -30 15 0 10 10 15 30 15
17 0 30 5 30 10 0 6 -18 10 -40 10 -38 0 -40 -2 -40 -30 l0 -30 -95 0 c-88 0
-95 -1 -95 -20 0 -15 -7 -20 -25 -20 -16 0 -25 6 -25 15 0 8 7 15 15 15 10 0
15 10 15 30 0 20 5 30 15 30 11 0 15 12 15 50 0 38 -4 50 -15 50 -10 0 -15 10
-15 30 0 20 -5 30 -15 30 -8 0 -15 7 -15 15 0 12 -18 15 -100 15 -82 0 -100
-3 -100 -15z m180 -20 c0 -8 7 -15 15 -15 10 0 15 -10 15 -30 0 -20 5 -30 15
-30 10 0 15 -10 15 -30 0 -20 -5 -30 -15 -30 -10 0 -15 -10 -15 -30 0 -20 -5
-30 -15 -30 -8 0 -15 -7 -15 -15 0 -12 -17 -15 -95 -15 l-95 0 0 30 c0 20 -5
30 -15 30 -12 0 -15 13 -15 60 0 47 3 60 15 60 8 0 15 7 15 15 0 8 7 15 15 15
8 0 15 7 15 15 0 12 16 15 80 15 64 0 80 -3 80 -15z m-210 -195 c0 -5 -4 -10
-10 -10 -5 0 -10 5 -10 10 0 6 5 10 10 10 6 0 10 -4 10 -10z m220 -65 c0 -8
-7 -15 -15 -15 -10 0 -15 -10 -15 -30 0 -23 -4 -30 -20 -30 -18 0 -20 -7 -20
-65 0 -58 2 -65 20 -65 11 0 20 -7 20 -15 0 -8 7 -15 15 -15 8 0 15 -7 15 -15
0 -11 -12 -15 -50 -15 -38 0 -50 -4 -50 -15 0 -8 -4 -15 -10 -15 -6 0 -10 43
-10 110 0 91 -3 110 -15 110 -10 0 -15 10 -15 30 0 20 -5 30 -15 30 -8 0 -15
7 -15 15 0 12 17 15 90 15 73 0 90 -3 90 -15z m20 -300 c0 -8 7 -15 15 -15 11
0 15 -12 15 -45 0 -33 -4 -45 -15 -45 -8 0 -15 -7 -15 -15 0 -11 -12 -15 -50
-15 -38 0 -50 4 -50 15 0 8 -7 15 -15 15 -11 0 -15 12 -15 45 0 33 4 45 15 45
8 0 15 7 15 15 0 11 12 15 50 15 38 0 50 -4 50 -15z m-150 -15 c0 -5 -4 -10
-10 -10 -5 0 -10 5 -10 10 0 6 5 10 10 10 6 0 10 -4 10 -10z m10 -45 c0 -8 -4
-15 -10 -15 -5 0 -10 7 -10 15 0 8 5 15 10 15 6 0 10 -7 10 -15z"/>
<path d="M110 600 c0 -5 5 -10 10 -10 6 0 10 5 10 10 0 6 -4 10 -10 10 -5 0
-10 -4 -10 -10z"/>
<path d="M870 600 c0 -5 5 -10 10 -10 6 0 10 5 10 10 0 6 -4 10 -10 10 -5 0
-10 -4 -10 -10z"/>
<path d="M978 503 c7 -3 16 -2 19 1 4 3 -2 6 -13 5 -11 0 -14 -3 -6 -6z"/>
</g>
</svg>
