<?xml version="1.0" standalone="no"?>
<!DOCTYPE svg PUBLIC "-//W3C//DTD SVG 20010904//EN"
 "http://www.w3.org/TR/2001/REC-SVG-20010904/DTD/svg10.dtd">
<svg version="1.0" xmlns="http://www.w3.org/2000/svg"
 width="65.000000pt" height="65.000000pt" viewBox="0 0 65.000000 65.000000"
 preserveAspectRatio="xMidYMid meet">
<metadata>
Created by potrace 1.16, written by Peter Selinger 2001-2019
</metadata>
<g transform="translate(0.000000,65.000000) scale(0.100000,-0.100000)"
fill="#000000" stroke="none">
<path d="M80 325 c0 -210 4 -325 10 -325 6 0 10 37 10 91 0 67 4 94 15 105 9
9 15 33 15 57 0 56 34 176 72 256 35 74 48 68 48 -24 0 -94 6 -105 51 -105 44
0 59 17 80 87 6 24 20 50 30 59 16 15 19 13 39 -25 42 -84 54 -156 55 -333 0
-93 3 -168 7 -168 25 0 21 322 -6 423 -20 73 -50 133 -72 141 -24 9 -59 -27
-73 -77 -17 -57 -38 -87 -60 -87 -23 0 -31 26 -31 106 0 65 -17 101 -43 91
-36 -14 -117 -236 -117 -322 0 -22 -4 -46 -9 -53 -12 -19 -4 159 9 208 17 62
57 149 86 188 l26 34 -23 -4 c-19 -2 -33 -20 -61 -78 l-38 -75 0 78 c0 44 -4
77 -10 77 -6 0 -10 -115 -10 -325z"/>
<path d="M290 624 c6 -14 10 -57 10 -95 0 -38 4 -69 9 -69 5 0 19 29 31 65 12
36 33 79 48 96 l25 31 -24 -4 c-17 -2 -31 -16 -46 -48 -23 -44 -23 -44 -23
-13 0 41 -9 63 -26 63 -10 0 -11 -6 -4 -26z"/>
<path d="M483 618 c14 -18 35 -61 46 -95 19 -56 21 -86 21 -293 0 -147 4 -230
10 -230 6 0 10 115 10 325 0 210 -4 325 -10 325 -5 0 -10 -21 -10 -47 l-1 -48
-23 45 c-15 30 -30 46 -45 48 l-23 4 25 -34z"/>
</g>
</svg>
