<?xml version="1.0" standalone="no"?>
<!DOCTYPE svg PUBLIC "-//W3C//DTD SVG 20010904//EN"
 "http://www.w3.org/TR/2001/REC-SVG-20010904/DTD/svg10.dtd">
<svg version="1.0" xmlns="http://www.w3.org/2000/svg"
 width="114.000000pt" height="114.000000pt" viewBox="0 0 114.000000 114.000000"
 preserveAspectRatio="xMidYMid meet">
<metadata>
Created by potrace 1.16, written by Peter Selinger 2001-2019
</metadata>
<g transform="translate(0.000000,114.000000) scale(0.100000,-0.100000)"
fill="#000000" stroke="none">
<path d="M816 971 c-3 -5 -22 -12 -41 -15 -37 -7 -96 -37 -130 -66 -13 -11
-54 -22 -115 -29 -106 -13 -167 -38 -205 -83 -21 -24 -25 -40 -25 -89 0 -72
10 -93 55 -116 l34 -18 -137 0 c-118 0 -141 -3 -167 -19 -56 -36 -85 -69 -85
-95 0 -26 0 -26 26 7 15 18 45 45 68 60 39 26 48 27 162 27 117 0 122 -1 158
-29 75 -57 70 -112 -14 -148 -50 -21 -77 -19 -146 11 -57 25 -59 51 -5 51 51
0 74 25 38 41 -32 15 -87 5 -121 -22 -21 -16 -26 -29 -26 -64 0 -35 6 -48 32
-74 37 -36 76 -45 168 -39 107 8 207 78 297 209 48 69 50 91 15 121 -42 35
-55 64 -56 125 0 60 -7 64 -72 37 -52 -21 -74 -42 -74 -70 0 -29 32 -39 95
-31 52 8 64 -4 33 -33 -57 -53 -131 -64 -198 -30 -47 24 -60 45 -60 99 0 82
77 133 230 152 61 7 102 18 115 29 34 29 93 59 130 66 19 3 38 10 41 15 3 5
72 9 155 9 93 0 149 4 149 10 0 13 -317 14 -324 1z m-246 -260 c0 -24 -5 -31
-30 -36 -16 -4 -39 -4 -50 0 -18 6 -19 9 -8 22 12 15 63 42 81 43 4 0 7 -13 7
-29z m73 -153 c20 -31 -101 -177 -194 -234 -96 -58 -199 -59 -257 -3 -34 34
-41 69 -17 89 13 11 15 8 15 -14 0 -23 8 -31 47 -48 67 -30 122 -34 177 -13
53 21 76 50 76 101 0 30 -7 44 -40 76 l-41 38 54 0 c51 0 109 20 123 41 7 12
42 -9 57 -33z"/>
<path d="M1077 869 c-26 -22 -56 -53 -67 -69 l-21 -29 28 -50 28 -49 -22 -46
c-24 -49 -67 -78 -135 -90 -29 -5 -42 -14 -54 -39 -32 -61 -123 -172 -171
-209 -122 -92 -197 -117 -349 -118 -94 0 -119 4 -174 25 -70 27 -94 45 -121
90 l-19 30 0 -31 c0 -41 40 -78 120 -109 57 -22 78 -25 194 -25 174 1 242 22
369 118 48 37 139 148 171 209 12 25 25 34 54 39 20 4 53 14 72 24 19 9 47 20
63 24 20 5 27 12 27 31 0 14 -3 25 -8 25 -4 0 -6 18 -4 40 3 28 -2 51 -17 76
l-22 37 60 59 c57 55 73 78 52 78 -4 0 -29 -18 -54 -41z"/>
<path d="M850 877 c-42 -16 -79 -36 -65 -37 6 0 26 -4 46 -9 31 -7 39 -4 75
25 l39 34 -30 -1 c-16 0 -46 -6 -65 -12z"/>
<path d="M720 755 c-13 -35 -13 -58 3 -79 12 -16 17 -13 55 38 38 52 40 56 19
56 -12 0 -32 3 -44 6 -18 5 -25 1 -33 -21z m40 -14 c0 -5 -6 -14 -14 -20 -12
-10 -13 -8 -9 8 5 21 23 30 23 12z"/>
<path d="M920 665 c-24 -38 -21 -57 5 -35 24 20 35 44 26 59 -6 9 -15 2 -31
-24z"/>
<path d="M890 385 c0 -20 5 -25 25 -25 20 0 25 5 25 25 0 20 -5 25 -25 25 -20
0 -25 -5 -25 -25z"/>
<path d="M930 235 c0 -20 5 -25 25 -25 20 0 25 5 25 25 0 20 -5 25 -25 25 -20
0 -25 -5 -25 -25z"/>
</g>
</svg>
