<?xml version="1.0" standalone="no"?>
<!DOCTYPE svg PUBLIC "-//W3C//DTD SVG 20010904//EN"
 "http://www.w3.org/TR/2001/REC-SVG-20010904/DTD/svg10.dtd">
<svg version="1.0" xmlns="http://www.w3.org/2000/svg"
 width="100.000000pt" height="100.000000pt" viewBox="0 0 100.000000 100.000000"
 preserveAspectRatio="xMidYMid meet">
<metadata>
Created by potrace 1.16, written by Peter Selinger 2001-2019
</metadata>
<g transform="translate(0.000000,100.000000) scale(0.100000,-0.100000)"
fill="#000000" stroke="none">
<path d="M690 840 l0 -30 -65 0 -65 0 0 -30 0 -30 -125 0 -125 0 0 -30 c0 -27
-3 -30 -30 -30 l-30 0 0 -65 0 -65 -30 0 c-27 0 -30 -3 -30 -30 l0 -30 -65 0
-65 0 0 -30 c0 -27 -3 -30 -30 -30 -17 0 -30 -5 -30 -11 0 -6 16 -9 38 -7 32
3 37 7 40 30 3 27 5 28 63 28 33 0 59 4 59 10 0 6 25 10 55 10 54 0 55 0 55
30 0 25 -4 30 -23 30 -20 0 -23 4 -19 35 3 26 9 35 23 35 14 0 19 7 19 30 0
27 3 30 30 30 23 0 30 4 30 20 0 18 8 20 103 22 l102 3 3 28 c3 26 6 27 57 27
30 0 57 5 60 10 3 6 17 10 31 10 17 0 24 5 24 20 0 18 7 20 60 20 53 0 60 -2
60 -20 0 -16 7 -20 35 -20 30 0 35 -3 35 -24 0 -14 -4 -28 -10 -31 -5 -3 -10
-15 -10 -25 0 -14 -8 -20 -32 -22 l-33 -3 -3 -92 c-3 -92 -3 -92 -30 -95 -21
-2 -28 -9 -30 -30 -2 -20 -9 -28 -22 -28 -10 0 -22 -4 -25 -10 -3 -5 -17 -10
-31 -10 -19 0 -24 -5 -24 -24 0 -14 -4 -28 -10 -31 -5 -3 -10 -17 -10 -30 0
-19 -6 -24 -32 -27 -28 -2 -34 -8 -36 -30 -2 -20 -9 -28 -22 -28 -10 0 -22 -5
-25 -10 -3 -6 -17 -10 -31 -10 -17 0 -24 -5 -24 -20 0 -18 -7 -20 -70 -20 -40
0 -70 -4 -70 -10 0 -6 -33 -10 -80 -10 -47 0 -80 4 -80 10 0 6 -27 10 -60 10
-53 0 -60 2 -60 19 0 11 -4 23 -10 26 -5 3 -10 17 -10 31 0 20 -5 24 -30 24
-17 0 -30 -4 -30 -10 0 -5 9 -10 20 -10 11 0 20 -4 20 -10 0 -5 -9 -10 -20
-10 -11 0 -20 -4 -20 -10 0 -5 13 -10 30 -10 27 0 30 -3 30 -30 l0 -30 65 0
65 0 0 -30 0 -30 90 0 90 0 0 30 0 30 95 0 95 0 0 30 c0 27 3 30 30 30 27 0
30 3 30 30 0 28 3 30 35 30 33 0 35 2 35 35 0 32 2 35 30 35 27 0 30 3 30 30
0 27 3 30 30 30 27 0 30 3 30 30 0 27 3 30 30 30 l30 0 0 95 0 95 35 0 c32 0
35 2 35 30 0 27 3 30 30 30 17 0 30 5 30 10 0 6 -9 10 -20 10 -11 0 -20 5 -20
10 0 6 9 10 20 10 11 0 20 5 20 10 0 6 -13 10 -30 10 -27 0 -30 3 -30 30 l0
30 -125 0 -125 0 0 -30z m40 0 c0 -5 -4 -10 -10 -10 -5 0 -10 5 -10 10 0 6 5
10 10 10 6 0 10 -4 10 -10z m190 0 c0 -5 -7 -10 -15 -10 -8 0 -15 5 -15 10 0
6 7 10 15 10 8 0 15 -4 15 -10z m-570 -120 c0 -5 -4 -10 -10 -10 -5 0 -10 5
-10 10 0 6 5 10 10 10 6 0 10 -4 10 -10z m-60 -60 c0 -5 -4 -10 -10 -10 -5 0
-10 5 -10 10 0 6 5 10 10 10 6 0 10 -4 10 -10z m0 -129 c0 -11 -49 -21 -67
-14 -27 10 -12 23 27 23 22 0 40 -4 40 -9z m440 -121 c0 -5 -4 -10 -10 -10 -5
0 -10 5 -10 10 0 6 5 10 10 10 6 0 10 -4 10 -10z m-190 -190 c0 -5 -4 -10 -10
-10 -5 0 -10 5 -10 10 0 6 5 10 10 10 6 0 10 -4 10 -10z m-229 -50 c22 0 39
-4 39 -10 0 -6 -30 -10 -70 -10 -58 0 -70 3 -70 16 0 13 7 15 31 10 17 -3 49
-6 70 -6z"/>
<path d="M427 513 c-4 -3 -7 -40 -7 -80 l0 -74 48 3 c47 3 47 3 50 41 3 29 7
37 23 37 14 0 19 7 19 30 0 25 -4 30 -25 30 -14 0 -25 5 -25 10 0 11 -73 14
-83 3z m73 -73 l0 -60 -30 0 -30 0 0 60 0 60 30 0 30 0 0 -60z m40 30 c0 -11
-4 -20 -10 -20 -5 0 -10 9 -10 20 0 11 5 20 10 20 6 0 10 -9 10 -20z"/>
<path d="M190 345 c0 -32 2 -35 30 -35 28 0 30 3 30 35 0 32 -2 35 -30 35 -28
0 -30 -3 -30 -35z m40 0 c0 -8 -4 -15 -10 -15 -5 0 -10 7 -10 15 0 8 5 15 10
15 6 0 10 -7 10 -15z"/>
</g>
</svg>
