<?xml version="1.0" standalone="no"?>
<!DOCTYPE svg PUBLIC "-//W3C//DTD SVG 20010904//EN"
 "http://www.w3.org/TR/2001/REC-SVG-20010904/DTD/svg10.dtd">
<svg version="1.0" xmlns="http://www.w3.org/2000/svg"
 width="192.000000pt" height="192.000000pt" viewBox="0 0 192.000000 192.000000"
 preserveAspectRatio="xMidYMid meet">
<metadata>
Created by potrace 1.16, written by Peter Selinger 2001-2019
</metadata>
<g transform="translate(0.000000,192.000000) scale(0.100000,-0.100000)"
fill="#000000" stroke="none">
<path d="M610 1913 c-8 -2 -29 -11 -47 -19 -17 -8 -36 -14 -42 -14 -6 0 -11
-3 -11 -8 0 -4 -17 -15 -37 -24 -21 -9 -48 -26 -60 -37 -12 -12 -27 -21 -32
-21 -6 0 -24 -13 -41 -30 -17 -16 -36 -30 -42 -30 -13 0 -128 -114 -128 -128
0 -5 -9 -19 -20 -32 -11 -13 -20 -29 -20 -36 0 -7 -9 -16 -20 -19 -11 -3 -20
-11 -20 -16 0 -16 -35 -89 -42 -89 -5 0 -8 -6 -8 -12 0 -7 -7 -26 -16 -43 -8
-16 -17 -52 -20 -80 -2 -27 -2 -43 2 -35 9 25 21 53 38 92 9 20 16 41 16 47 0
6 3 11 8 11 7 0 42 73 42 89 0 5 9 13 20 16 11 3 20 12 20 19 0 7 9 23 20 36
11 13 20 27 20 32 0 14 115 128 128 128 6 0 25 14 42 30 17 17 35 30 41 30 5
0 20 9 32 21 12 11 39 28 60 37 20 9 37 20 37 24 0 5 5 8 11 8 6 0 25 6 42 14
18 8 52 22 77 30 l45 15 -40 0 c-22 0 -47 -3 -55 -6z"/>
<path d="M1265 1904 c22 -9 54 -22 72 -30 17 -8 36 -14 41 -14 6 0 12 -4 14
-8 2 -4 25 -18 51 -30 26 -12 50 -29 53 -37 4 -8 12 -15 19 -15 6 0 22 -9 35
-20 13 -11 28 -20 33 -20 16 0 157 -148 157 -165 0 -8 4 -15 10 -15 5 0 12
-11 16 -25 3 -13 14 -27 24 -30 10 -3 22 -19 25 -35 4 -17 11 -30 15 -30 5 0
17 -22 27 -50 10 -27 21 -50 25 -50 5 0 8 -11 8 -25 0 -14 4 -25 9 -25 5 0 12
-10 14 -22 3 -13 3 2 0 32 -2 30 -7 57 -11 60 -5 3 -16 26 -26 53 -10 26 -21
47 -26 47 -5 0 -11 13 -15 30 -3 16 -15 32 -25 35 -10 3 -21 17 -24 30 -4 14
-11 25 -16 25 -6 0 -10 7 -10 15 0 17 -141 165 -157 165 -5 0 -20 9 -33 20
-13 11 -29 20 -35 20 -7 0 -15 7 -19 15 -3 8 -27 25 -53 37 -26 12 -49 26 -51
30 -2 4 -9 8 -15 8 -7 0 -25 7 -42 16 -16 8 -52 18 -80 20 l-50 5 40 -17z"/>
<path d="M347 1532 c-14 -16 -17 -44 -17 -184 0 -202 -3 -196 120 -196 97 0
119 12 121 62 l1 31 19 -42 c24 -51 28 -53 181 -50 104 2 120 4 147 25 24 17
31 19 31 8 0 -24 32 -35 99 -34 34 0 64 -2 68 -6 3 -3 -8 -6 -25 -6 -18 0 -42
-10 -59 -24 l-27 -24 -11 22 c-15 31 -99 36 -115 7 -6 -11 -8 -33 -5 -48 6
-27 6 -27 -9 -9 -9 11 -16 25 -16 31 0 25 -37 45 -82 45 -66 0 -72 -12 -66
-125 3 -52 2 -95 -2 -95 -4 0 -13 28 -19 63 -6 34 -14 76 -18 92 -9 50 -30 65
-88 65 -64 0 -72 -8 -91 -92 -34 -144 -29 -137 -74 -131 -47 7 -80 -16 -80
-54 0 -12 -4 -23 -10 -23 -6 0 -10 37 -10 90 0 91 7 109 25 68 8 -19 19 -24
59 -26 55 -4 66 5 66 54 0 49 -38 96 -90 111 -93 28 -167 -11 -190 -98 -17
-60 -8 -205 14 -247 34 -65 115 -89 191 -58 28 12 36 12 45 2 8 -11 2 -15 -29
-20 -22 -3 -53 -17 -68 -30 -23 -20 -28 -32 -28 -71 0 -38 5 -51 26 -69 l26
-22 -29 -13 c-32 -15 -36 -39 -11 -81 22 -39 57 -55 111 -53 30 1 52 9 68 24
l24 22 23 -20 c12 -11 35 -23 50 -27 38 -9 103 10 121 35 l14 21 11 -21 c22
-40 114 -48 167 -14 18 12 22 12 27 0 4 -11 35 -15 141 -16 136 -1 136 -1 148
24 8 19 8 31 0 50 -10 21 -19 25 -52 25 -22 0 -40 5 -40 10 0 6 10 10 23 10
12 0 28 4 36 9 18 12 19 70 0 81 -11 7 -10 10 3 15 9 4 25 5 35 3 16 -3 18
-15 20 -101 1 -110 9 -127 59 -127 53 0 66 30 63 137 -3 83 -2 88 18 91 31 5
63 -67 63 -144 0 -70 10 -84 60 -84 49 0 60 15 60 83 0 47 7 73 35 130 41 84
43 104 11 118 -32 15 -77 0 -93 -30 l-11 -23 -12 21 c-6 12 -23 27 -38 33 -25
9 -26 11 -7 18 11 4 33 3 48 -3 19 -6 37 -5 57 3 24 10 29 19 32 53 4 42 4 42
12 12 12 -42 34 -64 71 -71 43 -8 75 10 75 41 0 13 -12 49 -26 79 l-26 55 21
28 c47 63 31 144 -37 190 -32 21 -44 22 -228 22 -180 0 -195 -1 -206 -19 -12
-18 -12 -18 -39 1 -15 10 -40 19 -56 19 l-28 1 23 18 c12 11 22 29 22 40 0 35
42 27 60 -12 15 -32 15 -32 95 -33 101 -2 115 5 115 59 l1 42 15 -35 c22 -51
43 -70 79 -70 60 0 65 17 65 202 0 147 -2 167 -18 181 -20 18 -59 22 -80 8 -8
-5 -17 -24 -22 -42 l-7 -34 -13 33 c-14 36 -36 52 -75 52 -58 0 -65 -12 -66
-118 -1 -104 -4 -101 -33 23 -18 79 -33 95 -88 95 -51 0 -74 -25 -88 -97 -21
-109 -28 -114 -29 -22 -1 70 -4 89 -19 102 -28 25 -78 22 -99 -7 -18 -24 -18
-24 -44 -5 -34 24 -162 38 -183 20 -11 -9 -20 -10 -35 -2 -50 27 -102 -4 -94
-55 4 -27 3 -26 -19 11 -28 47 -66 64 -107 48 -17 -6 -35 -7 -42 -2 -24 15
-75 10 -92 -9z m83 -182 l0 -170 -32 0 -33 0 0 170 0 170 33 0 32 0 0 -170z
m150 97 c16 -38 32 -82 35 -98 4 -17 13 -29 22 -29 9 0 13 6 10 14 -3 8 -7 52
-8 98 l-2 83 31 3 32 3 0 -170 0 -171 -33 0 c-32 0 -35 4 -67 73 -18 39 -36
85 -39 101 -4 16 -12 31 -18 33 -8 3 -9 -26 -6 -102 l6 -105 -34 0 -34 0 0
170 0 171 38 -3 c37 -3 39 -5 67 -71z m310 55 c42 -21 59 -61 59 -147 2 -135
-31 -175 -143 -175 l-71 0 0 170 0 170 60 0 c37 0 73 -7 95 -18z m160 -152 l0
-170 -35 0 -35 0 0 170 0 170 35 0 35 0 0 -170z m194 158 c2 -7 18 -74 36
-149 17 -76 34 -147 37 -159 5 -19 2 -21 -28 -18 -30 3 -34 7 -37 36 -3 31 -4
32 -52 32 -47 0 -48 -1 -54 -35 -6 -32 -10 -35 -43 -35 -29 0 -34 3 -28 18 3
9 22 80 41 157 19 77 37 146 39 153 3 7 21 12 45 12 24 0 42 -5 44 -12z m198
-35 c11 -27 28 -70 38 -98 29 -78 37 -66 32 45 l-5 100 32 0 31 0 0 -170 0
-170 -32 0 c-31 1 -35 5 -63 67 -16 37 -35 82 -40 102 -20 69 -31 44 -27 -64
l4 -105 -31 0 -31 0 0 154 c0 85 -3 161 -6 170 -5 13 2 16 35 16 40 0 43 -2
63 -47z m-1062 -368 c34 -17 46 -37 51 -80 4 -28 2 -30 -33 -33 -34 -3 -38 -1
-38 20 0 43 -44 64 -69 34 -17 -20 -18 -201 -1 -221 15 -18 56 -20 66 -3 5 7
7 25 6 40 -2 26 1 28 32 28 43 0 47 -6 36 -56 -12 -54 -52 -84 -111 -84 -38 0
-53 6 -78 29 l-31 29 0 117 c0 125 11 163 54 184 31 15 83 13 116 -4z m245 -9
c13 -59 77 -320 82 -332 4 -10 -4 -14 -31 -14 -34 0 -36 2 -42 40 l-7 41 -51
-3 c-49 -3 -51 -4 -59 -40 -8 -35 -12 -38 -44 -38 -32 0 -35 2 -28 23 3 12 25
94 47 183 l41 161 44 0 c36 0 44 -4 48 -21z m210 -34 c15 -32 33 -78 42 -105
27 -81 35 -68 31 49 l-3 109 33 3 32 3 0 -185 0 -186 -33 0 c-32 0 -34 3 -75
94 -23 52 -42 104 -42 115 0 12 -6 21 -13 21 -10 0 -12 -25 -9 -116 l5 -115
-33 3 -32 3 1 178 c0 97 0 179 1 181 0 2 16 4 35 4 32 0 36 -4 60 -56z m338
47 c35 -18 57 -51 57 -86 0 -31 -2 -33 -35 -33 -30 0 -35 3 -35 24 0 35 -25
52 -55 38 -24 -11 -25 -14 -25 -122 0 -109 0 -110 25 -116 34 -8 64 18 57 51
-4 23 -2 24 34 22 22 -1 38 -5 37 -9 -2 -5 -3 -22 -3 -39 0 -49 -49 -89 -110
-89 -39 0 -54 5 -79 29 l-31 29 0 124 c0 130 7 150 55 176 26 15 81 15 108 1z
m285 -28 l3 -31 -64 0 -64 0 2 -37 c3 -38 3 -38 49 -41 46 -3 47 -4 44 -34 -3
-30 -5 -32 -48 -32 l-45 -1 0 -45 0 -45 63 3 62 4 0 -36 0 -36 -98 0 -98 0 2
183 c1 100 2 182 3 182 0 0 43 -1 93 -1 l93 -1 3 -32z m134 29 c46 0 62 -5 87
-26 28 -23 31 -32 31 -79 0 -46 -4 -56 -27 -75 l-26 -20 36 -74 c21 -40 37
-76 37 -79 0 -4 -17 -7 -37 -7 -38 0 -38 0 -68 75 -28 70 -48 95 -60 76 -2 -5
-3 -41 -2 -80 l4 -71 -39 0 -38 0 0 186 0 186 23 -6 c12 -3 48 -6 79 -6z
m-457 -112 c8 -18 19 -24 56 -26 42 -3 47 -5 47 -27 0 -22 -5 -25 -36 -25 -42
0 -72 -24 -72 -57 0 -12 -4 -23 -10 -23 -6 0 -10 37 -10 90 0 91 7 109 25 68z
m330 -14 c3 -20 3 -59 0 -88 l-7 -52 -46 6 c-52 6 -60 24 -12 26 84 4 77 124
-7 124 -20 0 -32 4 -28 10 3 6 26 10 49 10 42 0 44 -1 51 -36z m-580 -252 c2
-3 21 -8 41 -11 l37 -6 -27 -15 c-22 -11 -29 -12 -35 -1 -22 34 -152 16 -167
-24 -5 -12 -10 -10 -26 10 -11 14 -29 26 -41 26 -12 1 -4 5 18 9 22 5 52 6 67
3 17 -3 38 1 53 11 20 13 25 25 26 59 l0 42 24 -49 c14 -27 27 -51 30 -54z
m-285 50 c0 -10 9 -28 19 -39 20 -21 20 -21 -18 -27 -20 -3 -47 -15 -60 -27
-22 -21 -22 -21 -44 -1 -12 11 -29 22 -37 25 -8 3 0 6 18 6 36 1 72 31 72 61
0 15 7 20 25 20 17 0 25 -5 25 -18z m469 -52 c9 -1 3 -7 -14 -14 -17 -8 -34
-10 -39 -5 -6 5 -19 9 -30 9 -18 0 -18 1 -3 18 10 10 17 24 17 30 0 6 12 0 26
-13 15 -14 34 -25 43 -25z m163 -13 c-25 -4 -50 -4 -60 2 -15 9 -15 10 -1 11
9 0 27 8 39 18 22 18 23 18 44 -2 l21 -21 -43 -8z m188 4 c-8 -4 -40 -5 -70
-1 l-55 7 70 1 c41 1 64 -2 55 -7z m-936 -60 c16 -16 25 -34 22 -40 -12 -18
-50 -12 -64 9 -16 25 -38 26 -52 1 -11 -21 -9 -24 70 -74 61 -39 66 -107 11
-140 -51 -30 -105 -17 -135 34 -17 29 -17 29 10 39 26 10 43 1 44 -22 0 -4 9
-12 19 -18 15 -7 23 -6 35 6 22 22 7 46 -49 78 -52 31 -69 58 -60 94 11 44 34
62 80 62 33 0 47 -6 69 -29z m205 3 c18 -23 21 -41 21 -121 0 -86 -2 -96 -25
-118 -29 -30 -74 -33 -116 -8 -34 20 -44 69 -36 171 6 80 26 102 92 102 35 0
48 -5 64 -26z m200 9 c11 -10 24 -33 27 -50 6 -32 5 -33 -25 -33 -26 0 -31 4
-31 25 0 21 -5 25 -29 25 -16 0 -31 -4 -33 -10 -1 -5 -1 -47 2 -92 5 -81 6
-83 30 -83 20 0 26 6 28 28 3 23 8 27 34 27 30 0 30 -1 25 -37 -8 -47 -40 -72
-90 -73 -27 0 -45 7 -62 25 -23 22 -25 32 -25 120 0 88 2 98 25 120 30 30 92
34 124 8z m121 -129 l0 -145 -31 3 -31 3 1 138 c0 75 0 139 1 142 0 3 14 5 30
5 l30 0 0 -146z m180 121 c0 -23 -4 -25 -45 -25 -45 0 -45 0 -45 -35 0 -34 1
-34 38 -32 33 2 37 0 37 -23 0 -23 -3 -25 -37 -22 l-38 4 0 -43 0 -42 50 6
c49 6 50 6 50 -21 l0 -27 -80 0 -80 0 0 142 0 143 75 0 c73 0 75 -1 75 -25z
m202 10 c0 -8 1 -21 2 -27 1 -9 -10 -12 -32 -10 l-34 4 3 -119 3 -118 -27 -3
-27 -3 0 120 0 121 -30 0 c-25 0 -30 4 -30 25 0 25 1 25 85 25 68 0 85 -3 87
-15z m93 -40 c11 -30 22 -55 26 -55 4 0 15 25 24 55 17 53 19 55 52 55 19 0
33 -3 31 -7 -2 -5 -20 -41 -41 -80 -32 -62 -37 -82 -37 -138 l0 -65 -30 0 -30
0 0 64 c0 51 -7 78 -35 140 -19 43 -35 79 -35 82 0 2 13 4 28 4 26 0 31 -6 47
-55z m-596 -68 c22 0 31 -5 31 -16 0 -12 -9 -16 -32 -16 -25 0 -36 -6 -43 -22
-17 -39 -25 -26 -25 40 l0 62 19 -24 c13 -17 29 -24 50 -24z m-384 13 c3 -5
-1 -10 -9 -10 -9 0 -16 5 -16 10 0 6 4 10 9 10 6 0 13 -4 16 -10z"/>
<path d="M516 1465 c4 -8 8 -15 10 -15 2 0 4 7 4 15 0 8 -4 15 -10 15 -5 0 -7
-7 -4 -15z"/>
<path d="M652 1245 c0 -16 2 -22 5 -12 2 9 2 23 0 30 -3 6 -5 -1 -5 -18z"/>
<path d="M802 1348 l3 -113 25 3 c39 4 50 28 50 113 0 85 -12 109 -56 109
l-25 0 3 -112z m48 -3 c0 -43 -4 -75 -10 -75 -6 0 -10 32 -10 75 0 43 4 75 10
75 6 0 10 -32 10 -75z"/>
<path d="M1180 1470 c0 -5 7 -7 15 -4 8 4 15 8 15 10 0 2 -7 4 -15 4 -8 0 -15
-4 -15 -10z"/>
<path d="M1187 1433 c-4 -3 -7 -25 -7 -47 0 -23 -4 -48 -9 -56 -14 -21 -6 -27
29 -22 24 3 30 8 24 21 -3 9 -9 37 -11 64 -5 45 -12 55 -26 40z"/>
<path d="M1380 1470 c0 -5 5 -10 10 -10 6 0 10 5 10 10 0 6 -4 10 -10 10 -5 0
-10 -4 -10 -10z"/>
<path d="M1518 1272 c-3 -9 -1 -26 3 -37 6 -15 8 -11 8 18 1 40 -4 48 -11 19z"/>
<path d="M560 981 c0 -28 -4 -53 -10 -56 -24 -15 -9 -35 25 -35 34 0 49 20 25
35 -5 3 -10 28 -10 56 0 37 -4 49 -15 49 -11 0 -15 -12 -15 -49z"/>
<path d="M1300 1069 c0 -5 5 -7 10 -4 6 3 10 8 10 11 0 2 -4 4 -10 4 -5 0 -10
-5 -10 -11z"/>
<path d="M1300 800 c0 -5 5 -10 11 -10 5 0 7 5 4 10 -3 6 -8 10 -11 10 -2 0
-4 -4 -4 -10z"/>
<path d="M1562 1008 c3 -52 3 -53 33 -50 73 7 71 82 -3 97 l-33 7 3 -54z m48
-2 c0 -8 -4 -18 -10 -21 -5 -3 -10 3 -10 14 0 12 5 21 10 21 6 0 10 -6 10 -14z"/>
<path d="M592 548 c3 -93 3 -93 30 -96 34 -4 40 16 36 113 l-3 70 -33 3 -33 3
3 -93z m34 -56 c-11 -10 -12 3 -7 58 l6 55 3 -54 c2 -29 1 -56 -2 -59z"/>
<path d="M4 650 c2 -30 11 -68 20 -85 9 -16 16 -35 16 -42 0 -6 4 -13 8 -15 4
-1 18 -25 30 -51 12 -26 29 -50 37 -53 8 -4 15 -12 15 -20 0 -7 14 -27 30 -44
17 -17 30 -36 30 -42 0 -15 96 -108 111 -108 5 0 20 -11 32 -24 12 -13 32 -26
44 -30 13 -4 23 -12 23 -17 0 -5 7 -9 15 -9 8 0 15 -5 15 -10 0 -6 18 -18 40
-27 22 -10 40 -21 40 -25 0 -4 17 -10 38 -14 20 -4 40 -11 43 -17 4 -5 31 -12
60 -14 l54 -4 -45 17 c-25 9 -47 20 -50 24 -3 4 -22 10 -42 14 -21 4 -38 10
-38 14 0 4 -18 15 -40 25 -22 9 -40 21 -40 27 0 5 -7 10 -15 10 -8 0 -15 4
-15 9 0 5 -10 13 -22 17 -13 4 -33 17 -45 30 -12 13 -27 24 -32 24 -15 0 -111
93 -111 108 0 6 -13 25 -30 42 -16 17 -30 37 -30 44 0 8 -7 16 -15 20 -8 3
-25 27 -37 53 -12 26 -26 50 -30 51 -4 2 -8 8 -8 14 0 5 -6 24 -14 41 -8 18
-22 52 -31 77 l-16 45 5 -55z"/>
<path d="M1910 672 c0 -11 -4 -24 -10 -27 -5 -3 -10 -17 -10 -31 0 -13 -4 -24
-10 -24 -5 0 -10 -4 -10 -10 0 -16 -34 -90 -42 -90 -3 0 -9 -13 -13 -30 -4
-16 -15 -32 -26 -35 -10 -4 -19 -12 -19 -19 0 -7 -9 -23 -20 -36 -11 -13 -20
-28 -20 -33 0 -12 -137 -147 -149 -147 -4 0 -18 -9 -31 -20 -13 -11 -29 -20
-35 -20 -7 0 -15 -6 -18 -13 -2 -7 -27 -24 -53 -37 -27 -14 -50 -28 -52 -32
-2 -5 -8 -8 -14 -8 -5 0 -24 -6 -41 -14 -18 -8 -52 -22 -77 -31 l-45 -16 55 5
c30 2 69 11 85 20 17 9 35 16 42 16 6 0 13 3 15 8 2 4 25 18 52 32 26 13 51
30 53 37 3 7 11 13 18 13 6 0 22 9 35 20 13 11 27 20 31 20 12 0 149 135 149
147 0 5 9 20 20 33 11 13 20 29 20 36 0 7 9 15 19 19 11 3 22 19 26 35 4 17
10 30 13 30 8 0 42 74 42 90 0 6 4 10 9 10 11 0 27 108 17 117 -3 4 -6 -3 -6
-15z"/>
</g>
</svg>
