<?xml version="1.0" standalone="no"?>
<!DOCTYPE svg PUBLIC "-//W3C//DTD SVG 20010904//EN"
 "http://www.w3.org/TR/2001/REC-SVG-20010904/DTD/svg10.dtd">
<svg version="1.0" xmlns="http://www.w3.org/2000/svg"
 width="192.000000pt" height="192.000000pt" viewBox="0 0 192.000000 192.000000"
 preserveAspectRatio="xMidYMid meet">
<metadata>
Created by potrace 1.16, written by Peter Selinger 2001-2019
</metadata>
<g transform="translate(0.000000,192.000000) scale(0.100000,-0.100000)"
fill="#000000" stroke="none">
<path d="M838 1820 c-83 -27 -97 -36 -155 -97 -76 -79 -96 -139 -91 -273 3
-92 7 -112 32 -162 35 -70 96 -127 172 -163 53 -25 63 -26 173 -23 98 3 124 7
165 27 65 33 127 96 162 167 57 115 42 294 -32 396 -91 123 -273 178 -426 128z
m206 -15 c167 -44 275 -194 264 -368 -7 -117 -87 -235 -194 -288 -39 -18 -70
-24 -145 -27 -88 -3 -101 -1 -153 23 -76 36 -137 93 -172 163 -23 46 -29 73
-32 142 -5 112 19 177 91 253 58 61 72 70 155 97 71 23 111 24 186 5z"/>
<path d="M905 1790 c-13 -6 -5 -7 25 -3 25 3 47 7 49 9 9 8 -55 2 -74 -6z"/>
<path d="M1018 1783 c7 -3 16 -2 19 1 4 3 -2 6 -13 5 -11 0 -14 -3 -6 -6z"/>
<path d="M750 1710 c-8 -5 -10 -10 -5 -10 6 0 17 5 25 10 8 5 11 10 5 10 -5 0
-17 -5 -25 -10z"/>
<path d="M1170 1706 c0 -2 8 -10 18 -17 15 -13 16 -12 3 4 -13 16 -21 21 -21
13z"/>
<path d="M1240 1622 c6 -13 14 -21 18 -18 3 4 -2 14 -12 24 -18 16 -18 16 -6
-6z"/>
<path d="M647 1570 c-3 -11 -1 -20 4 -20 5 0 9 9 9 20 0 11 -2 20 -4 20 -2 0
-6 -9 -9 -20z"/>
<path d="M633 1525 c-3 -9 -3 -18 -1 -21 3 -3 8 4 11 16 6 23 -1 27 -10 5z"/>
<path d="M1278 1470 c-2 -22 0 -47 4 -57 4 -10 7 6 7 40 1 66 -5 76 -11 17z"/>
<path d="M632 1425 c0 -11 3 -29 8 -40 11 -25 11 1 0 35 -6 20 -8 21 -8 5z"/>
<path d="M1225 1310 c-3 -6 1 -7 9 -4 18 7 21 14 7 14 -6 0 -13 -4 -16 -10z"/>
<path d="M754 1225 c1 -8 6 -18 11 -22 4 -4 5 -2 1 5 -4 6 -2 12 4 12 6 0 8 5
5 10 -9 15 -24 12 -21 -5z"/>
<path d="M620 565 l0 -475 340 0 340 0 0 475 0 475 -340 0 -340 0 0 -475z
m660 0 l0 -455 -320 0 -320 0 0 455 0 455 320 0 320 0 0 -455z"/>
<path d="M660 565 l0 -435 300 0 300 0 0 435 0 435 -300 0 -300 0 0 -435z
m590 0 l0 -425 -290 0 -290 0 0 425 0 425 290 0 290 0 0 -425z"/>
</g>
</svg>
