<?xml version="1.0" standalone="no"?>
<!DOCTYPE svg PUBLIC "-//W3C//DTD SVG 20010904//EN"
 "http://www.w3.org/TR/2001/REC-SVG-20010904/DTD/svg10.dtd">
<svg version="1.0" xmlns="http://www.w3.org/2000/svg"
 width="152.000000pt" height="152.000000pt" viewBox="0 0 152.000000 152.000000"
 preserveAspectRatio="xMidYMid meet">
<metadata>
Created by potrace 1.16, written by Peter Selinger 2001-2019
</metadata>
<g transform="translate(0.000000,152.000000) scale(0.100000,-0.100000)"
fill="#000000" stroke="none">
<path d="M585 1114 c-242 -37 -413 -109 -508 -213 -70 -79 -84 -159 -43 -246
39 -82 128 -151 255 -199 68 -26 178 -56 203 -56 8 0 66 105 138 250 69 138
127 250 130 250 3 0 61 -112 130 -250 71 -142 131 -250 138 -250 39 0 187 46
257 80 224 107 287 276 158 421 -77 85 -207 150 -383 191 -63 14 -131 20 -265
23 -99 2 -193 1 -210 -1z m380 -39 c190 -33 340 -118 390 -219 21 -43 26 -64
21 -91 -13 -69 -91 -130 -222 -175 l-52 -18 -148 178 -149 179 -45 0 -45 0
-149 -179 -148 -178 -52 18 c-131 45 -209 106 -222 175 -10 57 34 137 107 190
66 48 181 96 274 113 33 7 69 13 80 16 52 10 280 5 360 -9z m-763 -123 c-94
-87 -108 -207 -34 -285 41 -44 199 -117 252 -117 9 0 70 64 136 142 65 78 127
151 137 163 10 11 -33 -82 -94 -206 l-112 -226 -56 14 c-204 52 -343 144 -386
257 -15 40 -16 52 -5 91 15 54 75 126 145 171 65 43 67 42 17 -4z m1221 -72
c89 -99 83 -187 -18 -287 -62 -61 -183 -122 -296 -151 l-76 -19 -112 226 c-61
124 -104 217 -94 206 10 -12 72 -85 137 -163 66 -78 127 -142 136 -142 53 0
211 73 252 117 74 78 60 198 -35 286 l-42 39 52 -31 c29 -18 72 -54 96 -81z"/>
</g>
</svg>
