<?xml version="1.0" standalone="no"?>
<!DOCTYPE svg PUBLIC "-//W3C//DTD SVG 20010904//EN"
 "http://www.w3.org/TR/2001/REC-SVG-20010904/DTD/svg10.dtd">
<svg version="1.0" xmlns="http://www.w3.org/2000/svg"
 width="192.000000pt" height="192.000000pt" viewBox="0 0 192.000000 192.000000"
 preserveAspectRatio="xMidYMid meet">
<metadata>
Created by potrace 1.16, written by Peter Selinger 2001-2019
</metadata>
<g transform="translate(0.000000,192.000000) scale(0.100000,-0.100000)"
fill="#000000" stroke="none">
<path d="M245 1887 c-6 -7 -19 -30 -29 -52 -11 -22 -24 -43 -31 -47 -7 -4 -16
-19 -19 -34 -4 -14 -15 -35 -26 -46 -10 -11 -22 -34 -25 -49 -4 -16 -11 -29
-16 -29 -5 0 -15 -12 -22 -27 -6 -16 -14 -30 -17 -33 -16 -13 -50 -100 -50
-126 0 -17 9 -49 20 -72 11 -22 20 -46 20 -52 0 -5 5 -10 11 -10 5 0 15 -13
20 -30 6 -16 15 -30 19 -30 5 0 11 -13 15 -29 3 -15 15 -38 25 -49 11 -11 22
-32 26 -47 4 -15 13 -29 20 -32 7 -2 18 -20 24 -38 6 -18 19 -42 29 -54 18
-20 26 -21 303 -21 l285 0 17 38 c32 69 51 101 64 107 7 2 11 1 9 -3 -2 -4
-13 -25 -23 -47 -10 -22 -24 -46 -31 -53 -17 -18 -17 -87 1 -105 8 -7 24 -37
36 -65 12 -29 26 -52 31 -52 5 0 9 -6 9 -14 0 -8 6 -21 13 -28 10 -11 20 -29
45 -80 2 -5 -2 -8 -7 -8 -6 0 -11 7 -11 15 0 7 -6 18 -13 22 -7 4 -23 32 -36
61 -14 28 -28 52 -32 52 -4 0 -11 9 -14 20 -3 11 -12 26 -18 33 -7 7 -19 26
-27 42 l-16 30 -283 3 c-275 2 -284 2 -301 -18 -10 -11 -24 -35 -31 -53 -7
-17 -19 -36 -26 -40 -7 -4 -13 -14 -13 -22 0 -7 -6 -20 -13 -27 -7 -7 -23 -33
-35 -58 -31 -62 -56 -104 -64 -110 -15 -12 -48 -97 -48 -126 0 -29 29 -97 70
-159 10 -16 29 -51 41 -77 12 -27 25 -48 28 -48 4 0 13 -16 20 -35 7 -19 16
-35 21 -35 4 0 15 -18 24 -41 29 -72 14 -69 330 -69 l284 0 12 36 c7 20 21 45
31 55 11 11 19 26 19 34 0 8 4 15 9 15 5 0 18 22 30 50 12 27 26 50 31 50 6 0
10 6 10 14 0 8 7 21 15 30 8 8 24 36 36 63 11 26 25 51 32 55 6 4 14 31 18 60
5 42 8 48 14 30 l7 -22 289 0 c250 0 289 2 289 15 0 8 4 15 8 15 5 0 17 20 28
45 10 25 21 45 25 45 4 0 12 13 19 30 7 16 16 30 21 30 5 0 9 6 9 13 0 7 16
40 36 73 119 192 121 222 24 369 -11 17 -29 49 -41 73 -11 23 -24 42 -29 42
-6 0 -10 6 -10 13 0 7 -8 22 -18 33 -10 10 -26 36 -36 57 -38 82 -17 77 -331
77 l-281 0 -12 -27 c-27 -59 -54 -103 -63 -103 -13 0 9 53 29 68 21 16 25 143
4 150 -7 2 -22 26 -33 53 -12 27 -25 49 -30 49 -5 0 -9 7 -9 15 0 7 -6 18 -13
22 -6 4 -22 29 -35 56 -13 26 -27 47 -31 47 -3 0 -12 12 -19 28 -7 15 -23 45
-35 67 l-23 40 -285 2 c-214 2 -287 -1 -294 -10z m582 -52 c12 -22 28 -52 35
-67 7 -16 16 -28 19 -28 4 0 18 -21 31 -47 13 -27 29 -52 35 -56 7 -4 13 -15
13 -22 0 -8 4 -15 9 -15 5 0 18 -22 30 -49 11 -27 26 -51 33 -53 20 -7 17 -97
-4 -109 -9 -5 -22 -26 -29 -47 -6 -20 -20 -45 -30 -55 -11 -10 -19 -24 -19
-31 0 -8 -6 -16 -13 -19 -7 -3 -19 -24 -27 -46 -7 -23 -18 -45 -24 -49 -13 -8
-40 -53 -62 -104 l-17 -38 -265 0 c-257 0 -265 1 -283 21 -10 12 -23 36 -29
54 -6 18 -17 36 -24 38 -7 3 -16 17 -20 32 -4 15 -15 36 -26 47 -10 11 -22 34
-25 49 -4 16 -10 29 -15 29 -4 0 -13 14 -19 30 -5 17 -15 30 -20 30 -6 0 -11
5 -11 10 0 6 -9 30 -20 52 -11 23 -20 46 -20 52 0 11 41 99 50 106 3 3 11 17
17 33 7 15 17 27 22 27 5 0 12 13 16 29 3 15 15 38 25 49 11 11 22 32 26 46 3
15 12 30 19 34 7 4 20 25 31 47 31 68 14 65 303 62 l265 -2 23 -40z m825 -444
c9 -10 24 -36 34 -58 10 -21 26 -47 36 -57 10 -11 18 -26 18 -33 0 -7 4 -13
10 -13 5 0 18 -19 29 -42 12 -24 30 -56 41 -73 37 -57 70 -124 70 -145 0 -21
-31 -83 -94 -184 -20 -33 -36 -66 -36 -73 0 -7 -4 -13 -9 -13 -5 0 -14 -14
-21 -30 -7 -16 -15 -30 -19 -30 -4 0 -15 -20 -25 -45 -11 -25 -23 -45 -28 -45
-4 0 -8 -7 -8 -15 0 -13 -36 -15 -268 -15 l-267 0 -18 38 c-10 20 -26 51 -37
67 -11 17 -32 55 -47 85 -15 30 -33 61 -40 68 -7 7 -13 20 -13 28 0 8 -4 14
-9 14 -5 0 -19 23 -31 52 -12 28 -28 58 -36 65 -18 18 -18 47 -1 65 15 15 57
103 57 118 0 5 5 10 10 10 6 0 14 8 17 18 4 9 15 25 24 36 10 10 21 32 24 47
4 16 14 36 23 45 17 17 43 61 64 107 l12 27 261 0 c244 0 262 -1 277 -19z
m-652 -127 c0 -13 -33 -74 -40 -74 -4 0 -10 -9 -13 -20 -3 -11 -10 -20 -16
-20 -12 0 6 49 24 65 7 6 15 20 19 33 7 19 26 32 26 16z m-180 -369 c8 -16 20
-35 27 -42 6 -7 15 -22 18 -33 3 -11 10 -20 14 -20 4 0 18 -24 32 -52 13 -29
29 -57 36 -61 7 -4 13 -12 13 -18 0 -5 9 -19 19 -30 11 -12 22 -33 26 -47 4
-15 15 -35 26 -45 23 -21 25 -70 4 -91 -8 -8 -24 -36 -35 -61 -11 -25 -27 -53
-35 -61 -8 -9 -15 -22 -15 -30 0 -8 -4 -14 -10 -14 -5 0 -19 -22 -31 -50 -12
-27 -25 -50 -30 -50 -5 0 -9 -7 -9 -15 0 -8 -8 -23 -19 -34 -10 -10 -24 -35
-31 -55 l-12 -36 -264 0 c-294 0 -281 -3 -310 69 -9 23 -20 41 -24 41 -5 0
-14 16 -21 35 -7 19 -16 35 -20 35 -3 0 -16 21 -28 47 -12 27 -31 62 -41 78
-11 17 -32 54 -46 83 -26 52 -26 53 -9 97 9 25 22 51 28 58 14 15 38 56 69
117 12 25 28 51 35 58 7 7 13 20 13 27 0 8 6 18 13 22 6 4 20 25 30 46 32 70
15 67 307 64 l264 -2 16 -30z m220 -289 c0 -8 7 -19 15 -26 8 -7 15 -17 15
-22 0 -5 -8 -1 -19 9 -21 21 -40 70 -22 59 6 -4 11 -13 11 -20z"/>
<path d="M359 1698 c-7 -18 -18 -36 -24 -40 -6 -4 -17 -25 -25 -48 -7 -22 -17
-40 -22 -40 -5 0 -14 -13 -19 -29 -6 -16 -16 -32 -24 -35 -33 -12 -25 -117 12
-139 7 -4 13 -14 13 -22 0 -7 6 -20 13 -27 7 -7 21 -32 31 -55 11 -24 22 -43
26 -43 3 0 12 -16 19 -35 l12 -35 165 0 c139 0 164 2 164 15 0 8 5 15 10 15 6
0 17 18 26 40 9 22 20 40 24 40 5 0 14 16 20 35 6 19 15 35 20 35 4 0 15 19
25 43 9 23 23 49 31 59 10 10 12 18 5 22 -5 4 -20 28 -33 54 -13 26 -29 51
-35 55 -7 4 -13 14 -13 22 0 7 -7 20 -15 29 -9 8 -22 31 -30 51 -9 19 -20 35
-25 35 -6 0 -10 7 -10 15 0 13 -25 15 -164 15 l-164 0 -13 -32z m321 -3 c0 -8
4 -15 10 -15 5 0 16 -16 25 -35 8 -20 21 -43 30 -51 8 -9 15 -22 15 -29 0 -8
6 -18 13 -22 6 -4 22 -28 33 -52 l22 -43 -20 -49 c-12 -27 -24 -49 -29 -49 -4
0 -13 -16 -19 -35 -6 -19 -15 -35 -20 -35 -4 0 -15 -18 -24 -40 -9 -22 -20
-40 -26 -40 -5 0 -10 -7 -10 -15 0 -13 -23 -15 -144 -15 l-145 0 -12 35 c-7
19 -16 35 -19 35 -4 0 -15 19 -26 43 -10 23 -24 48 -31 55 -7 7 -13 20 -13 27
0 8 -6 18 -13 22 -32 20 -39 103 -8 103 5 0 14 14 20 30 5 17 14 30 19 30 5 0
15 18 22 40 8 23 19 44 25 48 6 4 17 22 24 40 l13 32 144 0 c121 0 144 -2 144
-15z"/>
<path d="M1215 1242 c-5 -4 -19 -25 -30 -47 -11 -22 -22 -42 -25 -45 -3 -3
-11 -17 -17 -32 -7 -16 -17 -28 -23 -28 -5 0 -10 -6 -10 -13 0 -6 -11 -33 -25
-59 l-25 -47 27 -53 c15 -29 30 -55 33 -58 4 -3 12 -21 20 -40 8 -19 19 -39
25 -45 7 -5 18 -26 25 -45 8 -19 19 -38 24 -42 6 -4 84 -8 174 -8 127 0 162 3
162 13 0 7 8 22 18 33 10 10 26 37 36 59 11 22 22 42 25 45 3 3 13 19 21 35 8
17 18 32 21 35 3 3 13 19 21 37 15 30 15 34 -2 65 -11 18 -26 48 -35 66 -8 17
-19 32 -24 32 -4 0 -16 20 -27 45 -10 25 -21 45 -25 45 -4 0 -12 14 -19 30
l-12 30 -162 0 c-88 0 -165 -4 -171 -8z m325 -42 c7 -16 15 -30 19 -30 4 0 15
-20 25 -44 10 -25 25 -47 32 -50 8 -3 14 -11 14 -19 0 -7 11 -28 24 -46 21
-28 23 -37 14 -62 -5 -16 -13 -29 -17 -29 -4 0 -13 -16 -21 -35 -8 -19 -17
-35 -20 -35 -3 0 -15 -19 -25 -42 -10 -24 -27 -51 -37 -62 -10 -11 -18 -26
-18 -33 0 -10 -32 -13 -142 -13 -79 0 -148 4 -154 8 -5 4 -16 23 -24 42 -7 19
-18 40 -25 45 -6 6 -17 26 -25 45 -8 19 -17 37 -20 40 -3 3 -16 25 -27 49 -22
43 -22 44 -2 80 10 19 19 41 19 48 0 7 5 13 10 13 6 0 16 12 23 28 6 15 14 29
17 32 3 3 14 23 25 45 11 22 25 43 30 47 6 4 74 8 151 8 l142 0 12 -30z"/>
<path d="M287 894 c-7 -8 42 -104 53 -104 19 0 16 17 -12 61 -32 53 -31 52
-41 43z"/>
<path d="M359 750 c-6 -16 -15 -30 -19 -30 -5 0 -16 -20 -26 -45 -9 -25 -20
-45 -25 -45 -4 0 -13 -16 -20 -35 -7 -19 -17 -35 -21 -35 -5 0 -13 -12 -19
-27 -11 -30 5 -113 23 -113 4 0 14 -12 21 -27 6 -16 14 -30 17 -33 3 -3 14
-23 25 -45 11 -22 22 -42 25 -45 3 -3 11 -17 17 -32 l13 -28 160 0 c177 0 191
4 205 63 4 16 14 31 21 34 8 3 19 23 25 44 7 21 16 39 21 39 5 0 16 17 25 38
8 20 22 44 30 54 9 11 11 18 4 23 -6 3 -21 27 -32 52 -12 26 -27 53 -35 60 -8
8 -17 25 -20 39 -3 13 -10 24 -15 24 -5 0 -15 16 -23 35 -8 19 -20 35 -25 35
-6 0 -11 7 -11 15 0 13 -25 15 -166 15 l-165 0 -10 -30z m331 -23 c9 -7 22
-28 30 -47 8 -19 25 -50 37 -69 13 -19 23 -39 23 -46 0 -7 7 -16 16 -19 22 -8
14 -97 -9 -121 -10 -9 -17 -23 -17 -30 0 -8 -6 -18 -13 -22 -7 -4 -21 -27 -30
-50 -32 -83 -33 -83 -198 -83 l-146 0 -13 39 c-7 22 -18 42 -24 44 -7 3 -18
23 -26 46 -7 23 -17 41 -21 41 -10 0 -29 58 -29 92 0 26 16 66 32 78 3 3 14
24 23 48 10 23 21 42 25 42 5 0 14 16 20 35 l12 35 146 0 c100 -1 152 -5 162
-13z"/>
<path d="M397 708 c-5 -15 39 -88 53 -88 15 0 13 7 -16 56 -29 48 -30 50 -37
32z"/>
<path d="M474 602 c-5 -4 -16 -23 -24 -42 -8 -19 -20 -41 -27 -48 -13 -13 -7
-39 14 -60 7 -7 13 -19 13 -25 1 -7 9 -22 19 -34 16 -19 29 -23 75 -23 42 0
56 4 56 14 0 8 7 21 15 30 9 8 22 30 29 48 11 28 11 38 0 66 -8 17 -18 32 -23
32 -5 0 -12 11 -15 25 -6 23 -11 25 -64 25 -31 0 -62 -4 -68 -8z m112 -37 c3
-14 10 -25 15 -25 5 0 14 -12 19 -26 10 -26 1 -54 -27 -82 -7 -7 -13 -20 -13
-28 0 -24 -69 -18 -91 9 -10 12 -18 27 -19 34 0 6 -7 19 -17 28 -9 10 -12 20
-7 23 6 4 16 23 24 42 17 44 26 50 72 50 32 0 39 -4 44 -25z"/>
<path d="M592 344 c24 -54 44 -84 56 -84 17 0 -26 81 -47 88 -7 2 -12 1 -9 -4z"/>
<path d="M712 130 c18 -33 39 -60 46 -60 16 0 16 -1 -22 68 -16 28 -36 52 -43
52 -10 0 -5 -17 19 -60z"/>
</g>
</svg>
