<?xml version="1.0" standalone="no"?>
<!DOCTYPE svg PUBLIC "-//W3C//DTD SVG 20010904//EN"
 "http://www.w3.org/TR/2001/REC-SVG-20010904/DTD/svg10.dtd">
<svg version="1.0" xmlns="http://www.w3.org/2000/svg"
 width="100.000000pt" height="100.000000pt" viewBox="0 0 100.000000 100.000000"
 preserveAspectRatio="xMidYMid meet">
<metadata>
Created by potrace 1.16, written by Peter Selinger 2001-2019
</metadata>
<g transform="translate(0.000000,100.000000) scale(0.100000,-0.100000)"
fill="#000000" stroke="none">
<path d="M150 820 c-14 -16 -31 -30 -37 -30 -19 0 -18 -210 0 -210 7 0 19 -9
27 -20 8 -11 20 -20 28 -20 37 0 42 -24 42 -195 0 -131 3 -169 14 -181 17 -16
106 -20 106 -4 0 6 25 10 55 10 30 0 55 5 55 10 0 6 9 10 20 10 11 0 20 5 20
10 0 6 8 10 18 10 10 0 24 9 32 20 8 11 20 20 27 20 19 0 113 95 113 114 0 9
7 16 16 16 9 0 29 14 44 30 15 17 35 30 44 30 9 0 16 5 16 10 0 6 18 10 40 10
22 0 40 5 40 10 0 6 7 10 15 10 13 0 15 25 15 165 0 140 -2 165 -15 165 -8 0
-15 5 -15 10 0 6 -30 10 -70 10 -40 0 -70 -4 -70 -10 0 -5 -18 -10 -40 -10
-22 0 -40 -4 -40 -10 0 -5 -10 -10 -23 -10 -12 0 -29 -9 -37 -20 -8 -11 -20
-20 -28 -20 -7 0 -35 -22 -62 -50 -27 -27 -51 -50 -54 -50 -3 0 -6 30 -6 66 0
62 -13 94 -37 94 -5 0 -15 9 -23 20 -13 18 -26 20 -110 20 -93 -1 -96 -1 -120
-30z m210 -10 c8 -11 18 -20 23 -20 5 0 15 -6 23 -14 16 -17 20 -146 4 -146
-5 0 -10 -11 -10 -25 0 -16 -6 -25 -15 -25 -8 0 -15 -4 -15 -10 0 -5 -9 -10
-20 -10 -11 0 -20 -4 -20 -10 0 -6 -27 -10 -60 -10 -33 0 -60 4 -60 10 0 6 -8
10 -18 10 -10 0 -24 9 -32 20 -8 11 -20 20 -27 20 -18 0 -19 170 0 170 6 0 23
14 37 30 24 28 29 29 100 30 64 0 78 -3 90 -20z m490 -10 c0 -5 7 -10 15 -10
13 0 15 -23 15 -145 0 -122 -2 -145 -15 -145 -8 0 -15 -4 -15 -10 0 -5 -18
-10 -40 -10 -22 0 -40 -4 -40 -10 0 -5 -7 -10 -16 -10 -9 0 -29 -13 -44 -30
-15 -16 -35 -30 -44 -30 -10 0 -16 -9 -16 -25 0 -14 -4 -25 -10 -25 -5 0 -7 7
-4 15 4 8 1 15 -5 15 -6 0 -11 -9 -11 -20 0 -23 -62 -90 -82 -90 -8 0 -20 -9
-28 -20 -8 -11 -22 -20 -32 -20 -10 0 -18 -4 -18 -10 0 -5 -9 -10 -20 -10 -11
0 -20 -4 -20 -10 0 -5 -25 -10 -55 -10 -30 0 -55 -4 -55 -10 0 -15 -49 -12
-66 4 -11 11 -14 48 -14 165 l0 151 40 0 c22 0 40 5 40 10 0 6 9 10 20 10 11
0 20 5 20 10 0 6 9 10 20 10 18 0 90 60 90 75 0 12 110 115 123 115 7 0 19 9
27 20 8 11 25 20 37 20 13 0 23 5 23 10 0 6 18 10 40 10 22 0 40 5 40 10 0 6
23 10 50 10 28 0 50 -4 50 -10z"/>
<path d="M690 759 c0 -5 5 -7 10 -4 6 3 10 8 10 11 0 2 -4 4 -10 4 -5 0 -10
-5 -10 -11z"/>
<path d="M655 430 c-3 -5 -1 -10 4 -10 6 0 11 5 11 10 0 6 -2 10 -4 10 -3 0
-8 -4 -11 -10z"/>
<path d="M525 300 c-3 -5 -1 -10 4 -10 6 0 11 5 11 10 0 6 -2 10 -4 10 -3 0
-8 -4 -11 -10z"/>
</g>
</svg>
