<?xml version="1.0" standalone="no"?>
<!DOCTYPE svg PUBLIC "-//W3C//DTD SVG 20010904//EN"
 "http://www.w3.org/TR/2001/REC-SVG-20010904/DTD/svg10.dtd">
<svg version="1.0" xmlns="http://www.w3.org/2000/svg"
 width="192.000000pt" height="192.000000pt" viewBox="0 0 192.000000 192.000000"
 preserveAspectRatio="xMidYMid meet">
<metadata>
Created by potrace 1.16, written by Peter Selinger 2001-2019
</metadata>
<g transform="translate(0.000000,192.000000) scale(0.100000,-0.100000)"
fill="#000000" stroke="none">
<path d="M0 1090 c0 -7 327 -10 960 -10 633 0 960 3 960 10 0 7 -327 10 -960
10 -633 0 -960 -3 -960 -10z"/>
<path d="M8 1035 c-14 -30 3 -55 38 -55 29 0 45 27 33 58 -12 31 -56 30 -71
-3z m43 -18 c-1 -12 -15 -9 -19 4 -3 6 1 10 8 8 6 -3 11 -8 11 -12z"/>
<path d="M277 1053 c-4 -3 -7 -46 -7 -95 0 -81 2 -88 20 -88 19 0 20 7 20 95
0 73 -3 95 -13 95 -8 0 -17 -3 -20 -7z"/>
<path d="M350 965 c0 -88 1 -95 20 -95 18 0 20 7 20 68 l0 67 41 -68 c33 -55
45 -68 62 -65 21 3 22 8 22 93 0 83 -1 90 -20 90 -18 0 -20 -6 -18 -62 2 -35
1 -63 -1 -63 -2 0 -21 29 -42 65 -29 50 -43 65 -61 65 -22 0 -23 -3 -23 -95z"/>
<path d="M535 1050 c-10 -16 4 -30 31 -30 23 0 24 -2 24 -75 0 -68 2 -75 20
-75 18 0 20 7 20 74 0 70 1 75 22 78 13 2 24 11 26 21 3 15 -5 17 -67 17 -38
0 -73 -4 -76 -10z"/>
<path d="M707 1053 c-4 -3 -7 -46 -7 -95 l0 -88 70 0 c56 0 70 3 70 15 0 11
-12 15 -50 15 -47 0 -50 2 -50 25 0 23 4 25 45 25 33 0 45 4 45 15 0 11 -12
15 -46 15 -41 0 -45 2 -42 22 3 18 10 22 48 22 34 1 45 5 48 19 3 15 -5 17
-61 17 -35 0 -67 -3 -70 -7z"/>
<path d="M867 1053 c-4 -3 -7 -46 -7 -95 0 -87 1 -89 22 -86 19 2 23 9 23 38
0 29 3 35 20 32 39 -6 45 -12 45 -42 0 -25 4 -30 24 -30 23 0 24 3 19 38 -3
20 -11 40 -16 44 -6 4 -4 13 6 23 41 41 1 85 -76 85 -30 0 -57 -3 -60 -7z m98
-53 c0 -21 -5 -26 -32 -28 -31 -3 -33 -1 -33 28 0 29 2 31 33 28 27 -2 32 -7
32 -28z"/>
<path d="M1057 1042 c-37 -41 -11 -82 61 -97 23 -5 32 -12 32 -26 0 -27 -42
-29 -71 -3 -22 20 -39 17 -39 -6 0 -26 29 -40 83 -40 53 0 70 16 65 62 -3 30
-8 34 -53 49 -29 9 -50 22 -50 30 0 21 44 23 66 3 16 -14 22 -15 32 -5 9 10 7
16 -12 32 -30 25 -92 25 -114 1z"/>
<path d="M1214 1047 c-2 -7 -3 -49 -2 -93 3 -71 5 -79 23 -79 16 0 20 7 20 33
0 30 2 32 33 32 51 0 72 16 72 54 0 47 -25 66 -89 66 -33 0 -53 -5 -57 -13z
m94 -26 c25 -15 9 -46 -24 -49 -29 -3 -30 -1 -26 27 4 32 23 40 50 22z"/>
<path d="M1400 1040 c-25 -25 -28 -114 -4 -148 21 -30 95 -31 124 -2 28 28 28
117 0 148 -27 29 -92 30 -120 2z m88 -22 c13 -13 16 -75 6 -102 -4 -9 -18 -16
-34 -16 -32 0 -40 14 -40 69 0 40 14 61 40 61 9 0 21 -5 28 -12z"/>
<path d="M1570 975 c0 -47 -1 -88 -2 -92 -2 -5 7 -9 20 -11 20 -3 22 1 22 36
0 37 1 38 30 34 19 -3 30 -10 31 -21 1 -9 2 -23 3 -31 0 -8 12 -17 25 -18 22
-4 24 -1 18 34 -4 20 -12 41 -19 46 -10 6 -9 11 5 19 24 14 21 55 -5 73 -14
10 -44 16 -75 16 l-53 0 0 -85z m94 49 c9 -3 16 -14 16 -24 0 -19 -19 -30 -51
-30 -14 0 -19 7 -19 30 0 31 17 38 54 24z"/>
<path d="M1732 1043 c2 -11 12 -18 26 -17 21 1 22 -3 22 -78 0 -71 2 -78 20
-78 18 0 20 7 20 74 0 74 0 75 28 78 16 2 27 9 27 18 0 12 -16 16 -73 18 -66
3 -73 1 -70 -15z"/>
<path d="M1897 1053 c-13 -12 -7 -33 8 -33 8 0 15 9 15 20 0 20 -11 26 -23 13z"/>
<path d="M120 1005 c-28 -25 -60 -45 -70 -45 -17 0 -20 -7 -20 -45 0 -43 1
-45 30 -45 21 0 44 13 80 45 28 25 57 45 65 45 11 0 15 12 15 45 0 41 -2 45
-25 45 -15 0 -44 -18 -75 -45z m77 -5 c-1 -11 -8 -20 -17 -20 -9 0 -27 -11
-40 -25 -12 -13 -27 -22 -33 -18 -6 3 -7 1 -4 -4 4 -6 -3 -18 -16 -26 -22 -14
-23 -13 -25 9 -1 15 4 24 13 24 8 0 30 13 48 30 19 16 37 26 41 22 4 -4 7 -2
6 3 -4 18 0 25 14 25 9 0 14 -9 13 -20z"/>
<path d="M0 840 c0 -7 327 -10 960 -10 633 0 960 3 960 10 0 7 -327 10 -960
10 -633 0 -960 -3 -960 -10z"/>
</g>
</svg>
