<?xml version="1.0" standalone="no"?>
<!DOCTYPE svg PUBLIC "-//W3C//DTD SVG 20010904//EN"
 "http://www.w3.org/TR/2001/REC-SVG-20010904/DTD/svg10.dtd">
<svg version="1.0" xmlns="http://www.w3.org/2000/svg"
 width="100.000000pt" height="100.000000pt" viewBox="0 0 100.000000 100.000000"
 preserveAspectRatio="xMidYMid meet">
<metadata>
Created by potrace 1.16, written by Peter Selinger 2001-2019
</metadata>
<g transform="translate(0.000000,100.000000) scale(0.100000,-0.100000)"
fill="#000000" stroke="none">
<path d="M170 813 c0 -13 3 -14 12 -5 16 16 28 15 28 -3 0 -8 -9 -15 -20 -15
-13 0 -20 -7 -20 -20 0 -13 -7 -20 -20 -20 -25 0 -25 9 -2 26 16 12 15 13 -5
14 -22 0 -23 -4 -23 -80 0 -79 0 -80 25 -80 20 0 25 -5 25 -25 0 -24 2 -25 76
-25 53 0 73 -3 68 -11 -4 -7 -25 -9 -55 -7 -30 3 -50 1 -52 -6 -3 -7 -9 -7
-20 3 -15 12 -17 11 -17 -3 0 -13 13 -16 79 -16 54 0 81 -4 84 -12 4 -10 7
-10 18 0 11 10 10 12 -4 12 -10 0 -17 8 -17 20 0 13 7 20 20 20 19 0 20 7 20
105 0 98 -1 105 -20 105 -13 0 -20 7 -20 20 0 18 -7 20 -80 20 -69 0 -80 -2
-80 -17z m80 -13 c0 -5 -7 -10 -16 -10 -8 0 -12 5 -9 10 3 6 10 10 16 10 5 0
9 -4 9 -10z m65 0 c3 -5 -1 -10 -9 -10 -9 0 -16 5 -16 10 0 6 4 10 9 10 6 0
13 -4 16 -10z m35 -114 l0 -83 -80 -2 -80 -2 0 86 0 85 80 0 80 0 0 -84z
m-180 39 c0 -8 -7 -15 -15 -15 -26 0 -18 20 13 29 1 1 2 -6 2 -14z m0 -70 c0
-9 -6 -12 -15 -9 -8 4 -15 10 -15 15 0 5 7 9 15 9 8 0 15 -7 15 -15z"/>
<path d="M345 820 c3 -5 10 -10 16 -10 5 0 9 5 9 10 0 6 -7 10 -16 10 -8 0
-12 -4 -9 -10z"/>
<path d="M750 822 c0 -4 18 -8 40 -9 22 -1 40 2 40 8 0 5 -18 9 -40 9 -22 0
-40 -4 -40 -8z"/>
<path d="M850 820 c0 -5 7 -10 15 -10 8 0 15 5 15 10 0 6 -7 10 -15 10 -8 0
-15 -4 -15 -10z"/>
<path d="M390 781 c0 -5 7 -11 15 -15 9 -3 15 0 15 9 0 8 -7 15 -15 15 -8 0
-15 -4 -15 -9z"/>
<path d="M620 780 c0 -5 7 -10 15 -10 8 0 15 5 15 10 0 6 -7 10 -15 10 -8 0
-15 -4 -15 -10z"/>
<path d="M670 775 c0 -13 4 -14 20 -5 16 9 20 8 20 -5 0 -12 -13 -15 -65 -15
-52 0 -65 -3 -65 -15 0 -13 4 -14 20 -5 16 9 20 8 20 -5 0 -11 -11 -15 -40
-15 -33 0 -40 -3 -40 -20 0 -13 -7 -20 -20 -20 -13 0 -20 -7 -20 -20 0 -13 -7
-20 -20 -20 -15 0 -20 -7 -20 -25 0 -18 -5 -25 -20 -25 -13 0 -20 -7 -20 -20
0 -15 -7 -20 -25 -20 -18 0 -25 -5 -25 -20 0 -18 -7 -20 -60 -20 l-60 0 0
-145 0 -145 105 0 c98 0 105 1 105 20 0 13 7 20 20 20 13 0 20 7 20 20 0 17 7
20 40 20 33 0 40 3 40 20 0 13 7 20 20 20 17 0 20 7 20 45 l0 45 45 0 c38 0
45 3 45 20 0 18 7 20 60 20 33 0 60 4 60 10 0 5 -18 9 -40 7 -28 -2 -40 1 -40
10 0 9 18 13 65 13 l65 0 0 145 0 145 -105 0 c-88 0 -105 -3 -105 -15z m140
-130 l0 -125 -50 0 c-39 0 -53 -4 -62 -20 -7 -11 -21 -20 -30 -20 -11 0 -18
-8 -18 -20 0 -15 -7 -20 -25 -20 -18 0 -25 -5 -25 -20 0 -13 -7 -20 -20 -20
-15 0 -20 -7 -20 -25 0 -18 -5 -25 -20 -25 -13 0 -20 -7 -20 -20 0 -13 -7 -20
-20 -20 -13 0 -20 -7 -20 -20 0 -17 -7 -20 -40 -20 -33 0 -40 -3 -40 -20 0
-18 -7 -20 -65 -20 l-65 0 0 125 0 125 81 0 c72 0 81 2 86 20 3 11 14 20 24
20 12 0 19 7 19 20 0 13 7 20 20 20 15 0 20 7 20 25 0 18 5 25 20 25 13 0 20
7 20 20 0 13 7 20 20 20 13 0 20 7 20 19 0 13 8 21 23 23 15 2 21 9 19 21 -2
14 5 17 43 17 38 0 45 3 45 20 0 17 7 20 40 20 l40 0 0 -125z m48 0 c0 -100
-3 -125 -14 -125 -11 0 -14 25 -14 125 0 100 3 125 14 125 11 0 14 -25 14
-125z m-278 35 c0 -5 -4 -10 -10 -10 -5 0 -10 5 -10 10 0 6 5 10 10 10 6 0 10
-4 10 -10z m-40 -35 c0 -8 -7 -15 -16 -15 -14 0 -14 3 -4 15 7 8 14 15 16 15
2 0 4 -7 4 -15z m-40 -45 c0 -11 -7 -20 -15 -20 -13 0 -14 4 -5 20 6 11 13 20
15 20 3 0 5 -9 5 -20z m-40 -50 c0 -5 -7 -10 -16 -10 -8 0 -12 5 -9 10 3 6 10
10 16 10 5 0 9 -4 9 -10z m-40 -40 c0 -5 -7 -10 -15 -10 -8 0 -15 5 -15 10 0
6 7 10 15 10 8 0 15 -4 15 -10z m310 -20 c0 -5 -4 -10 -10 -10 -5 0 -10 5 -10
10 0 6 5 10 10 10 6 0 10 -4 10 -10z m-30 -34 c0 -2 -7 -9 -15 -16 -12 -10
-15 -10 -15 4 0 9 7 16 15 16 8 0 15 -2 15 -4z m-100 -96 c-6 -11 -13 -20 -15
-20 -3 0 -5 9 -5 20 0 11 7 20 15 20 13 0 14 -4 5 -20z m-30 -34 c0 -2 -7 -9
-15 -16 -12 -10 -15 -10 -15 4 0 9 7 16 15 16 8 0 15 -2 15 -4z m-125 -86 c-3
-5 -10 -10 -16 -10 -5 0 -9 5 -9 10 0 6 7 10 16 10 8 0 12 -4 9 -10z"/>
<path d="M391 734 c7 -9 9 -18 3 -22 -5 -4 -9 -14 -9 -22 0 -8 4 -18 9 -22 6
-4 4 -13 -3 -22 -12 -14 -10 -16 8 -16 19 0 21 6 21 60 0 54 -2 60 -21 60 -18
0 -20 -2 -8 -16z"/>
<path d="M540 740 c0 -5 5 -10 10 -10 6 0 10 5 10 10 0 6 -4 10 -10 10 -5 0
-10 -4 -10 -10z"/>
<path d="M500 700 c0 -5 5 -10 10 -10 6 0 10 5 10 10 0 6 -4 10 -10 10 -5 0
-10 -4 -10 -10z"/>
<path d="M460 660 c0 -5 5 -10 10 -10 6 0 10 5 10 10 0 6 -4 10 -10 10 -5 0
-10 -4 -10 -10z"/>
<path d="M120 601 c0 -12 6 -21 15 -21 8 0 15 4 15 9 0 5 -7 14 -15 21 -13 10
-15 9 -15 -9z"/>
<path d="M395 599 c-11 -17 1 -21 15 -4 8 9 8 15 2 15 -6 0 -14 -5 -17 -11z"/>
<path d="M210 355 c0 -125 2 -145 16 -145 8 0 13 4 10 8 -3 5 -6 70 -7 145 0
76 -5 137 -10 137 -5 0 -9 -65 -9 -145z"/>
<path d="M855 470 c-3 -5 1 -10 9 -10 9 0 16 5 16 10 0 6 -4 10 -9 10 -6 0
-13 -4 -16 -10z"/>
<path d="M730 430 c0 -5 5 -10 10 -10 6 0 10 5 10 10 0 6 -4 10 -10 10 -5 0
-10 -4 -10 -10z"/>
<path d="M644 395 c-19 -14 -18 -14 4 -15 13 0 22 6 22 15 0 19 -1 19 -26 0z"/>
<path d="M520 265 c-10 -12 -10 -15 4 -15 9 0 16 7 16 15 0 8 -2 15 -4 15 -2
0 -9 -7 -16 -15z"/>
<path d="M475 220 c-3 -5 1 -10 9 -10 9 0 16 5 16 10 0 6 -4 10 -9 10 -6 0
-13 -4 -16 -10z"/>
<path d="M250 183 c0 -9 19 -13 60 -13 78 0 78 17 0 22 -43 2 -60 -1 -60 -9z"/>
<path d="M210 180 c0 -5 5 -10 10 -10 6 0 10 5 10 10 0 6 -4 10 -10 10 -5 0
-10 -4 -10 -10z"/>
<path d="M390 180 c0 -5 7 -10 15 -10 8 0 15 5 15 10 0 6 -7 10 -15 10 -8 0
-15 -4 -15 -10z"/>
</g>
</svg>
