<?xml version="1.0" standalone="no"?>
<!DOCTYPE svg PUBLIC "-//W3C//DTD SVG 20010904//EN"
 "http://www.w3.org/TR/2001/REC-SVG-20010904/DTD/svg10.dtd">
<svg version="1.0" xmlns="http://www.w3.org/2000/svg"
 width="196.000000pt" height="196.000000pt" viewBox="0 0 196.000000 196.000000"
 preserveAspectRatio="xMidYMid meet">
<metadata>
Created by potrace 1.16, written by Peter Selinger 2001-2019
</metadata>
<g transform="translate(0.000000,196.000000) scale(0.100000,-0.100000)"
fill="#000000" stroke="none">
<path d="M434 1514 c-58 -21 -120 -77 -151 -138 -22 -42 -27 -64 -27 -126 0
-88 16 -130 71 -190 50 -57 122 -90 194 -90 122 0 214 53 267 154 21 42 26 65
26 126 0 64 -4 83 -29 129 -70 127 -215 183 -351 135z m217 -41 c169 -91 187
-309 35 -424 -78 -59 -145 -72 -228 -43 -63 21 -122 74 -154 139 -53 110 -16
241 90 313 27 17 62 36 80 42 48 15 122 4 177 -27z"/>
<path d="M1496 1514 c-166 -36 -302 -111 -410 -226 -38 -40 -97 -102 -130
-137 -103 -109 -225 -175 -347 -188 l-59 -6 0 -248 c0 -136 -3 -255 -7 -265
-11 -29 160 -14 278 26 155 51 215 93 389 270 85 87 175 170 199 185 61 38
143 64 223 72 l68 6 0 263 0 264 -67 -1 c-38 0 -99 -7 -137 -15z m174 -249 l0
-245 -43 0 c-61 0 -151 -25 -220 -62 -44 -24 -92 -67 -186 -165 -69 -74 -153
-155 -186 -180 -108 -83 -257 -141 -408 -159 l-57 -6 0 246 0 246 38 0 c45 0
122 20 182 47 77 35 164 107 255 213 127 147 236 223 390 269 64 20 157 37
213 40 l22 1 0 -245z"/>
</g>
</svg>
