<?xml version="1.0" standalone="no"?>
<!DOCTYPE svg PUBLIC "-//W3C//DTD SVG 20010904//EN"
 "http://www.w3.org/TR/2001/REC-SVG-20010904/DTD/svg10.dtd">
<svg version="1.0" xmlns="http://www.w3.org/2000/svg"
 width="100.000000pt" height="100.000000pt" viewBox="0 0 100.000000 100.000000"
 preserveAspectRatio="xMidYMid meet">
<metadata>
Created by potrace 1.16, written by Peter Selinger 2001-2019
</metadata>
<g transform="translate(0.000000,100.000000) scale(0.100000,-0.100000)"
fill="#000000" stroke="none">
<path d="M420 945 l0 -55 -35 0 -35 0 0 -60 c0 -33 -4 -60 -10 -60 -5 0 -10
14 -10 30 0 27 -3 30 -30 30 -27 0 -30 3 -30 30 l0 30 -80 0 -80 0 0 -80 0
-80 30 0 c27 0 30 -3 30 -30 0 -27 3 -30 30 -30 17 0 30 -4 30 -10 0 -6 -27
-10 -60 -10 l-60 0 0 -35 0 -35 -55 0 c-30 0 -55 -4 -55 -10 0 -6 28 -10 65
-10 l65 0 0 35 0 35 60 0 60 0 0 30 c0 27 -3 30 -30 30 -27 0 -30 3 -30 30 0
27 -3 30 -30 30 l-30 0 0 60 0 60 60 0 60 0 0 -30 c0 -27 3 -30 30 -30 27 0
30 -3 30 -30 0 -27 3 -30 30 -30 l30 0 0 60 0 60 35 0 35 0 0 65 c0 37 -4 65
-10 65 -5 0 -10 -25 -10 -55z"/>
<path d="M560 935 l0 -65 30 0 30 0 0 -60 0 -60 35 0 c32 0 35 2 35 30 0 27 3
30 30 30 27 0 30 3 30 30 l0 30 60 0 60 0 0 -60 0 -60 -30 0 c-27 0 -30 -3
-30 -30 0 -27 -3 -30 -30 -30 -27 0 -30 -3 -30 -30 l0 -30 60 0 60 0 0 -35 0
-35 65 0 c37 0 65 4 65 10 0 6 -25 10 -55 10 l-55 0 0 35 0 35 -60 0 c-33 0
-60 4 -60 10 0 6 14 10 30 10 27 0 30 3 30 30 0 27 3 30 30 30 l30 0 0 80 0
80 -80 0 -80 0 0 -30 c0 -27 -3 -30 -30 -30 -27 0 -30 -3 -30 -30 0 -20 -5
-30 -15 -30 -12 0 -15 13 -15 60 l0 60 -30 0 c-30 0 -30 1 -30 55 0 30 -4 55
-10 55 -6 0 -10 -28 -10 -65z"/>
<path d="M431 834 c0 -11 3 -14 6 -6 3 7 2 16 -1 19 -3 4 -6 -2 -5 -13z"/>
<path d="M578 813 c7 -3 16 -2 19 1 4 3 -2 6 -13 5 -11 0 -14 -3 -6 -6z"/>
<path d="M545 783 c3 -16 9 -43 12 -60 4 -28 9 -33 34 -33 23 0 29 4 29 22 0
21 -1 21 -13 3 -8 -10 -19 -15 -25 -11 -17 10 -15 26 3 26 8 0 15 5 15 10 0 6
-9 10 -20 10 -16 0 -20 7 -20 30 0 17 -5 30 -11 30 -7 0 -9 -10 -4 -27z"/>
<path d="M430 725 c0 -24 -31 -31 -46 -10 -13 18 -14 18 -14 -3 0 -18 6 -22
35 -22 31 0 35 3 35 25 0 14 -2 25 -5 25 -3 0 -5 -7 -5 -15z"/>
<path d="M432 625 c-15 -32 -15 -45 -2 -45 6 0 10 11 10 25 0 24 3 25 60 25
57 0 60 -1 60 -25 0 -14 5 -25 10 -25 13 0 13 13 -2 45 -10 22 -17 25 -68 25
-51 0 -58 -3 -68 -25z"/>
<path d="M191 594 c0 -11 3 -14 6 -6 3 7 2 16 -1 19 -3 4 -6 -2 -5 -13z"/>
<path d="M252 585 c0 -16 2 -22 5 -12 2 9 2 23 0 30 -3 6 -5 -1 -5 -18z"/>
<path d="M742 585 c0 -16 2 -22 5 -12 2 9 2 23 0 30 -3 6 -5 -1 -5 -18z"/>
<path d="M810 585 c0 -18 5 -25 20 -25 11 0 20 5 20 10 0 6 -4 10 -10 10 -5 0
-10 7 -10 15 0 8 -4 15 -10 15 -5 0 -10 -11 -10 -25z"/>
<path d="M150 550 c0 -6 11 -8 28 -4 39 10 40 14 4 14 -18 0 -32 -5 -32 -10z"/>
<path d="M370 500 c0 -33 3 -60 8 -60 4 0 5 24 4 54 -4 50 -2 55 20 59 21 4
20 4 -4 6 -28 1 -28 0 -28 -59z"/>
<path d="M440 500 l0 -60 60 0 60 0 0 60 0 60 -60 0 -60 0 0 -60z m100 0 l0
-40 -40 0 -40 0 0 40 0 40 40 0 40 0 0 -40z"/>
<path d="M610 476 c0 -15 -7 -26 -17 -29 -14 -4 -12 -5 5 -6 18 -1 22 4 22 29
0 17 -2 30 -5 30 -3 0 -5 -11 -5 -24z"/>
<path d="M150 450 c0 -5 14 -10 32 -10 36 0 35 4 -4 14 -17 4 -28 2 -28 -4z"/>
<path d="M0 430 c0 -5 25 -10 55 -10 54 0 55 0 55 -30 l0 -30 60 0 c47 0 60
-3 60 -15 0 -10 -10 -15 -30 -15 -27 0 -30 -3 -30 -30 0 -27 -3 -30 -30 -30
l-30 0 0 -80 0 -80 80 0 80 0 0 30 c0 27 3 30 30 30 27 0 30 3 30 30 0 17 5
30 10 30 6 0 10 -27 10 -60 l0 -60 35 0 35 0 0 -55 c0 -30 5 -55 10 -55 6 0
10 28 10 65 l0 65 -35 0 -35 0 0 60 0 60 -30 0 c-27 0 -30 -3 -30 -30 0 -27
-3 -30 -30 -30 -27 0 -30 -3 -30 -30 l0 -30 -60 0 -60 0 0 60 0 60 30 0 c27 0
30 3 30 30 0 27 3 30 30 30 28 0 30 3 30 35 l0 35 -60 0 -60 0 0 30 0 30 -65
0 c-37 0 -65 -4 -65 -10z"/>
<path d="M252 420 c0 -14 2 -19 5 -12 2 6 2 18 0 25 -3 6 -5 1 -5 -13z"/>
<path d="M742 420 c0 -14 2 -19 5 -12 2 6 2 18 0 25 -3 6 -5 1 -5 -13z"/>
<path d="M810 420 c0 -24 6 -25 26 -6 19 20 18 26 -6 26 -13 0 -20 -7 -20 -20z"/>
<path d="M870 410 l0 -30 -60 0 -60 0 0 -35 c0 -32 2 -35 30 -35 27 0 30 -3
30 -30 0 -27 3 -30 30 -30 l30 0 0 -60 0 -60 -60 0 -60 0 0 30 c0 27 -3 30
-30 30 -27 0 -30 3 -30 30 0 28 -3 30 -35 30 l-35 0 0 -60 0 -60 -30 0 -30 0
0 -65 c0 -37 4 -65 10 -65 6 0 10 25 10 55 0 54 0 55 30 55 l30 0 0 60 c0 47
3 60 15 60 10 0 15 -10 15 -30 0 -27 3 -30 30 -30 27 0 30 -3 30 -30 l0 -30
80 0 80 0 0 80 0 80 -30 0 c-27 0 -30 3 -30 30 0 27 -3 30 -30 30 -20 0 -30 5
-30 15 0 12 13 15 60 15 l60 0 0 30 c0 30 1 30 55 30 30 0 55 5 55 10 0 6 -28
10 -65 10 l-65 0 0 -30z"/>
<path d="M420 404 c0 -29 27 -44 79 -44 40 0 53 4 65 22 18 26 20 38 6 38 -5
0 -10 -9 -10 -20 0 -18 -7 -20 -60 -20 -53 0 -60 2 -60 20 0 11 -4 20 -10 20
-5 0 -10 -7 -10 -16z"/>
<path d="M370 288 c0 -21 1 -21 14 -3 8 11 20 16 29 12 12 -5 17 -24 20 -79
l3 -73 2 83 2 82 -35 0 c-29 0 -35 -4 -35 -22z"/>
<path d="M557 278 c-3 -18 -9 -45 -12 -60 -5 -18 -3 -28 4 -28 6 0 11 14 11
30 0 23 4 30 20 30 11 0 20 5 20 10 0 6 -7 10 -15 10 -8 0 -15 7 -15 16 0 12
7 15 25 12 14 -3 25 -1 25 3 0 5 -13 9 -29 9 -25 0 -30 -5 -34 -32z"/>
<path d="M578 183 c7 -3 16 -2 19 1 4 3 -2 6 -13 5 -11 0 -14 -3 -6 -6z"/>
</g>
</svg>
