<?xml version="1.0" standalone="no"?>
<!DOCTYPE svg PUBLIC "-//W3C//DTD SVG 20010904//EN"
 "http://www.w3.org/TR/2001/REC-SVG-20010904/DTD/svg10.dtd">
<svg version="1.0" xmlns="http://www.w3.org/2000/svg"
 width="192.000000pt" height="192.000000pt" viewBox="0 0 192.000000 192.000000"
 preserveAspectRatio="xMidYMid meet">
<metadata>
Created by potrace 1.16, written by Peter Selinger 2001-2019
</metadata>
<g transform="translate(0.000000,192.000000) scale(0.100000,-0.100000)"
fill="#000000" stroke="none">
<path d="M630 1906 c-30 -6 -68 -19 -85 -28 -16 -10 -53 -28 -82 -42 -28 -14
-57 -32 -65 -39 -7 -7 -29 -24 -48 -37 -19 -13 -42 -32 -50 -43 -19 -24 -73
-78 -97 -97 -11 -8 -30 -31 -43 -50 -13 -19 -30 -41 -37 -48 -7 -8 -25 -37
-39 -65 -14 -29 -34 -68 -44 -87 -23 -43 -43 -153 -37 -206 3 -37 4 -37 5 9 1
26 6 47 11 47 5 0 11 21 15 48 4 26 16 63 26 82 10 19 30 58 44 87 14 28 32
57 39 65 7 7 24 29 37 48 13 19 32 42 43 50 10 8 33 29 51 46 17 18 38 41 46
51 8 11 31 30 50 43 19 13 41 30 48 37 8 7 37 25 65 39 29 14 68 34 87 44 19
10 56 22 83 26 26 4 47 10 47 15 0 4 21 10 48 12 l47 3 -55 1 c-30 1 -80 -4
-110 -11z"/>
<path d="M1173 1913 c26 -2 47 -8 47 -12 0 -5 21 -11 48 -15 26 -4 63 -16 82
-26 19 -10 58 -30 87 -44 28 -14 57 -32 65 -39 7 -7 29 -24 48 -37 19 -13 42
-32 50 -43 19 -24 73 -78 97 -97 11 -8 30 -31 43 -50 13 -19 30 -41 37 -48 7
-8 25 -37 39 -65 14 -29 34 -68 44 -87 10 -19 22 -56 26 -82 4 -27 10 -48 15
-48 5 0 10 -21 11 -47 1 -46 2 -46 5 -9 6 53 -14 163 -37 206 -10 19 -30 58
-44 87 -14 28 -32 57 -39 65 -7 7 -24 29 -37 48 -13 19 -32 42 -43 50 -10 8
-33 29 -51 46 -17 18 -38 41 -46 51 -8 11 -31 30 -50 43 -19 13 -41 30 -48 37
-8 7 -37 25 -65 39 -29 14 -68 33 -87 44 -44 22 -138 41 -199 38 l-46 -2 48
-3z"/>
<path d="M692 1333 c-23 -3 -48 -19 -75 -46 -34 -34 -45 -54 -56 -104 -7 -35
-10 -75 -7 -90 4 -16 10 -40 13 -55 6 -34 70 -108 109 -128 50 -26 84 -67 84
-102 0 -18 -4 -39 -9 -46 -12 -19 -21 8 -21 62 0 36 -4 45 -25 54 -45 21 -103
15 -130 -13 -28 -27 -31 -54 -12 -134 9 -41 23 -66 54 -100 l43 -45 84 0 c77
0 87 2 121 28 58 45 78 101 73 205 -2 49 -10 96 -19 110 -21 37 -70 84 -104
101 -57 27 -65 39 -64 94 l2 51 6 -46 c10 -68 23 -79 93 -79 76 0 88 12 88 87
0 66 -37 159 -67 170 -10 4 -21 10 -24 15 -6 10 -112 18 -157 11z m143 -42
c17 -9 34 -27 40 -39 5 -12 13 -22 17 -22 5 0 8 -24 8 -53 0 -29 5 -58 12 -65
9 -9 9 -12 0 -12 -7 0 -12 -6 -12 -12 0 -11 -37 -14 -102 -9 -5 1 -8 26 -8 56
0 43 -3 55 -16 55 -8 0 -12 5 -9 10 3 6 1 10 -4 10 -6 0 -11 -4 -11 -10 0 -5
-9 -10 -20 -10 -18 0 -20 -7 -20 -60 0 -33 4 -60 10 -60 6 0 10 -5 10 -11 0
-16 26 -39 44 -39 9 0 16 -4 16 -10 0 -5 7 -10 15 -10 8 0 15 -4 15 -10 0 -5
7 -10 16 -10 8 0 12 -4 9 -10 -3 -5 2 -10 11 -10 10 0 15 -3 11 -6 -3 -3 3
-15 14 -27 12 -13 19 -35 19 -58 0 -21 6 -40 13 -43 10 -5 10 -7 0 -12 -8 -3
-13 -26 -13 -60 0 -30 -5 -60 -10 -67 -6 -7 -18 -21 -28 -32 -52 -62 -181 -60
-233 3 -30 36 -58 175 -38 188 12 7 91 12 107 6 8 -3 12 -25 12 -63 l0 -59 40
0 40 0 0 65 c0 37 -4 65 -10 65 -5 0 -10 8 -10 19 0 11 -12 23 -30 31 -16 7
-30 16 -30 21 0 5 -7 9 -15 9 -23 0 -80 61 -93 99 -15 44 -15 129 0 172 13 39
50 79 73 79 8 0 15 5 15 10 0 17 112 10 145 -9z"/>
<path d="M1375 1334 c-27 -7 -67 -27 -82 -40 -103 -98 -110 -543 -10 -655 37
-41 74 -54 153 -53 73 1 74 1 117 45 46 46 56 70 64 157 4 46 2 57 -18 78 -18
20 -32 24 -77 24 -68 0 -81 -15 -82 -88 0 -33 -4 -51 -10 -47 -6 4 -10 83 -10
205 0 122 4 201 10 205 6 4 10 -13 10 -44 0 -49 16 -79 43 -82 49 -6 75 -4 92
4 40 20 47 35 42 90 -6 58 -17 109 -26 117 -3 3 -11 14 -17 24 -6 11 -19 24
-30 30 -10 6 -22 14 -25 18 -7 10 -117 19 -144 12z m123 -38 c42 -22 62 -49
78 -107 26 -101 19 -119 -51 -119 -57 0 -65 7 -65 62 0 30 -6 55 -15 64 -13
13 -18 12 -40 -10 l-25 -25 0 -201 0 -201 25 -25 c22 -22 27 -23 40 -10 10 9
15 34 15 70 0 38 4 56 13 57 95 9 117 1 117 -40 0 -45 -27 -128 -48 -151 -60
-65 -166 -67 -227 -4 -30 30 -45 61 -45 89 0 14 -4 25 -10 25 -6 0 -10 70 -10
190 0 120 4 190 10 190 6 0 10 12 10 26 0 45 39 97 90 121 35 16 106 16 138
-1z"/>
<path d="M333 1315 c-20 -22 -18 -691 1 -711 18 -18 156 -20 174 -2 17 17 17
699 0 716 -18 18 -159 15 -175 -3z m155 -21 c18 -18 18 -650 -1 -668 -14 -14
-104 -16 -124 -3 -17 11 -19 657 -2 674 15 15 111 12 127 -3z"/>
<path d="M484 960 c0 -162 2 -229 3 -147 2 81 2 213 0 295 -1 81 -3 14 -3
-148z"/>
<path d="M992 1318 c-17 -17 -17 -699 0 -716 7 -7 41 -12 84 -12 109 0 104
-20 104 370 0 390 5 370 -104 370 -43 0 -77 -5 -84 -12z m141 -15 c16 -4 17
-29 17 -344 0 -186 -3 -339 -7 -340 -90 -8 -120 -6 -131 12 -7 11 -8 20 -2 24
13 8 13 602 0 610 -6 4 -5 13 2 25 9 13 24 18 57 18 25 0 54 -2 64 -5z"/>
<path d="M2 749 c-3 -61 16 -155 38 -199 11 -19 30 -58 44 -87 14 -28 32 -57
39 -65 7 -7 24 -29 37 -48 13 -19 32 -42 43 -50 24 -19 78 -73 97 -97 8 -11
31 -30 50 -43 19 -13 41 -30 48 -37 8 -7 37 -25 65 -39 29 -14 68 -34 87 -44
43 -23 153 -43 206 -37 37 3 37 4 -8 5 -27 1 -48 6 -48 11 0 5 -21 11 -47 15
-27 4 -64 16 -83 26 -19 10 -58 30 -87 44 -28 14 -57 32 -65 39 -7 7 -29 24
-48 37 -19 13 -42 32 -50 43 -19 24 -73 78 -97 97 -11 8 -30 31 -43 50 -13 19
-30 41 -37 48 -7 8 -25 37 -39 65 -14 29 -34 68 -44 87 -10 19 -22 56 -26 83
-4 26 -10 47 -15 47 -4 0 -10 21 -12 48 l-3 47 -2 -46z"/>
<path d="M1912 748 c-1 -27 -6 -48 -11 -48 -5 0 -11 -21 -15 -47 -4 -27 -16
-64 -26 -83 -10 -19 -30 -58 -44 -87 -14 -28 -32 -57 -39 -65 -7 -7 -24 -29
-37 -48 -13 -19 -32 -42 -43 -50 -24 -19 -78 -73 -97 -97 -8 -11 -31 -30 -50
-43 -19 -13 -41 -30 -48 -37 -8 -7 -37 -25 -65 -39 -29 -14 -68 -34 -87 -44
-19 -10 -56 -22 -82 -26 -27 -4 -48 -10 -48 -15 0 -5 -21 -10 -47 -11 -46 -1
-46 -2 -9 -5 53 -6 163 14 206 37 19 10 58 30 87 44 28 14 57 32 65 39 7 7 29
24 48 37 19 13 42 32 50 43 19 24 73 78 97 97 11 8 30 31 43 50 13 19 30 41
37 48 7 8 25 37 39 65 14 29 34 68 44 87 23 43 43 153 37 206 -3 37 -4 37 -5
-8z"/>
</g>
</svg>
