<?xml version="1.0" standalone="no"?>
<!DOCTYPE svg PUBLIC "-//W3C//DTD SVG 20010904//EN"
 "http://www.w3.org/TR/2001/REC-SVG-20010904/DTD/svg10.dtd">
<svg version="1.0" xmlns="http://www.w3.org/2000/svg"
 width="100.000000pt" height="100.000000pt" viewBox="0 0 100.000000 100.000000"
 preserveAspectRatio="xMidYMid meet">
<metadata>
Created by potrace 1.16, written by Peter Selinger 2001-2019
</metadata>
<g transform="translate(0.000000,100.000000) scale(0.100000,-0.100000)"
fill="#000000" stroke="none">
<path d="M250 980 c0 -11 5 -20 10 -20 6 0 10 9 10 20 0 11 -4 20 -10 20 -5 0
-10 -9 -10 -20z"/>
<path d="M310 974 c0 -14 4 -23 10 -19 6 3 10 15 10 26 0 10 -4 19 -10 19 -5
0 -10 -12 -10 -26z"/>
<path d="M370 974 c0 -14 4 -23 10 -19 6 3 10 15 10 26 0 10 -4 19 -10 19 -5
0 -10 -12 -10 -26z"/>
<path d="M440 974 c0 -14 4 -23 10 -19 6 3 10 15 10 26 0 10 -4 19 -10 19 -5
0 -10 -12 -10 -26z"/>
<path d="M540 981 c0 -11 5 -23 10 -26 6 -4 10 5 10 19 0 14 -4 26 -10 26 -5
0 -10 -9 -10 -19z"/>
<path d="M600 981 c0 -11 5 -23 10 -26 6 -4 10 5 10 19 0 14 -4 26 -10 26 -5
0 -10 -9 -10 -19z"/>
<path d="M670 981 c0 -11 5 -23 10 -26 6 -4 10 5 10 19 0 14 -4 26 -10 26 -5
0 -10 -9 -10 -19z"/>
<path d="M730 980 c0 -11 5 -20 10 -20 6 0 10 9 10 20 0 11 -4 20 -10 20 -5 0
-10 -9 -10 -20z"/>
<path d="M190 909 c0 -17 4 -28 10 -24 6 3 10 12 10 20 0 11 20 25 36 25 2 0
4 -13 4 -30 l0 -30 -60 0 -60 0 0 -60 c0 -60 0 -60 -29 -60 -24 0 -28 3 -24
20 3 11 11 20 19 20 7 0 16 5 19 10 4 6 -7 10 -24 10 l-31 0 0 -310 0 -310 31
0 c17 0 28 4 24 10 -3 5 -12 10 -19 10 -8 0 -16 9 -19 20 -4 17 0 20 24 20 29
0 29 0 29 -60 l0 -60 60 0 c60 0 60 0 60 -29 0 -24 -3 -28 -20 -24 -11 3 -20
11 -20 19 0 7 -5 16 -10 19 -6 4 -10 -7 -10 -24 l0 -31 310 0 310 0 0 31 c0
17 -4 28 -10 24 -6 -3 -10 -12 -10 -19 0 -8 -9 -16 -20 -19 -17 -4 -20 0 -20
24 0 29 0 29 60 29 l60 0 0 60 c0 60 0 60 29 60 24 0 28 -3 24 -20 -3 -11 -11
-20 -19 -20 -7 0 -16 -4 -19 -10 -4 -6 7 -10 24 -10 l31 0 0 310 0 310 -31 0
c-17 0 -28 -4 -24 -10 3 -5 12 -10 19 -10 8 0 16 -9 19 -20 4 -17 0 -20 -24
-20 -29 0 -29 0 -29 60 l0 60 -60 0 -60 0 0 31 c0 24 3 30 16 25 9 -3 18 -6
20 -6 2 0 4 -6 4 -14 0 -8 5 -18 10 -21 6 -4 10 7 10 24 l0 31 -310 0 -310 0
0 -31z m120 -14 c0 -21 5 -25 30 -25 17 0 30 5 30 11 0 6 -9 8 -20 4 -16 -5
-20 -2 -20 14 0 20 5 21 170 21 166 0 170 0 170 -21 0 -18 -4 -20 -25 -15 -14
4 -25 2 -25 -4 0 -5 16 -10 35 -10 31 0 35 3 35 25 0 18 5 25 20 25 15 0 20
-7 20 -25 0 -14 -6 -25 -12 -26 -7 0 -3 -4 10 -9 12 -6 22 -18 22 -30 0 -16 7
-20 30 -20 27 0 30 -3 30 -30 0 -23 5 -30 19 -30 16 0 31 -18 31 -38 0 -4 -51
-6 -112 -5 -62 1 -225 2 -361 2 -231 1 -248 2 -245 19 2 9 13 18 26 20 17 3
22 10 22 33 0 26 3 29 30 29 23 0 30 4 30 20 0 12 10 24 23 30 12 5 16 9 10 9
-7 1 -13 12 -13 26 0 18 5 25 20 25 15 0 20 -7 20 -25z m-120 -60 c0 -20 -5
-25 -24 -25 -19 0 -23 4 -19 19 3 11 12 22 22 24 9 3 17 5 19 6 1 0 2 -10 2
-24z m663 -6 c4 -15 0 -19 -19 -19 -19 0 -24 5 -24 24 0 19 4 23 19 19 11 -3
21 -13 24 -24z m-623 11 c0 -5 -4 -10 -10 -10 -5 0 -10 5 -10 10 0 6 5 10 10
10 6 0 10 -4 10 -10z m560 0 c0 -5 -4 -10 -10 -10 -5 0 -10 5 -10 10 0 6 5 10
10 10 6 0 10 -4 10 -10z m-620 -60 c0 -5 -4 -10 -10 -10 -5 0 -10 5 -10 10 0
6 5 10 10 10 6 0 10 -4 10 -10z m680 0 c0 -5 -4 -10 -10 -10 -5 0 -10 5 -10
10 0 6 5 10 10 10 6 0 10 -4 10 -10z m-720 -70 c0 -15 -7 -20 -25 -20 -18 0
-25 5 -25 20 0 15 7 20 25 20 18 0 25 -5 25 -20z m790 0 c0 -15 -7 -20 -25
-20 -18 0 -25 5 -25 20 0 15 7 20 25 20 18 0 25 -5 25 -20z m-750 -210 c0
-183 -1 -190 -20 -190 -19 0 -20 7 -20 190 0 183 1 190 20 190 19 0 20 -7 20
-190z m80 0 l0 -190 -30 0 -30 0 0 190 0 190 30 0 30 0 0 -190z m40 170 c0
-11 -4 -20 -10 -20 -5 0 -10 9 -10 20 0 11 5 20 10 20 6 0 10 -9 10 -20z m150
-10 c0 -28 -3 -30 -35 -30 -28 0 -35 4 -35 20 0 24 -6 25 -26 6 -19 -20 -18
-26 6 -26 18 0 20 -7 20 -65 l0 -65 -30 0 -30 0 0 95 0 95 65 0 65 0 0 -30z
m180 0 c0 -28 3 -30 35 -30 32 0 35 2 35 30 l0 30 60 0 60 0 0 -65 0 -65 -30
0 -30 0 0 -60 0 -60 30 0 30 0 0 -65 0 -65 -60 0 -60 0 0 35 c0 33 -2 35 -35
35 -33 0 -35 -2 -35 -35 l0 -35 -80 0 c-79 0 -80 0 -80 25 0 14 5 25 10 25 6
0 10 -9 10 -20 0 -11 5 -20 10 -20 6 0 10 14 10 30 0 27 -3 30 -30 30 -28 0
-30 -3 -30 -35 l0 -35 -65 0 -65 0 0 65 0 65 30 0 c27 0 30 -3 30 -30 0 -23
-4 -30 -20 -30 -11 0 -20 -4 -20 -10 0 -5 5 -10 10 -10 6 0 10 -7 10 -15 0 -8
5 -15 10 -15 6 0 10 11 10 25 0 21 5 25 30 25 17 0 30 5 30 10 0 6 -9 10 -20
10 -28 0 -25 17 5 22 16 4 25 0 28 -11 3 -10 5 -8 6 7 1 17 7 22 26 22 21 0
25 5 25 28 -1 26 -1 26 -16 7 -13 -17 -16 -18 -24 -5 -15 24 -12 30 15 30 21
0 25 5 25 30 0 27 -3 30 -30 30 l-30 0 0 -60 0 -60 -35 0 c-32 0 -35 2 -35 30
0 25 4 30 25 30 14 0 25 5 25 10 0 6 -7 10 -15 10 -11 0 -15 12 -15 45 0 38 3
45 19 45 11 0 23 5 26 10 3 6 19 10 36 10 25 0 29 4 29 28 -1 24 -2 25 -14 10
-17 -23 -22 -23 -29 2 -5 19 0 20 79 20 l84 0 0 -30z m50 10 c0 -11 -7 -20
-15 -20 -8 0 -15 9 -15 20 0 11 7 20 15 20 8 0 15 -9 15 -20z m200 -45 c0 -61
-1 -65 -23 -65 -20 0 -23 4 -19 35 3 21 10 35 18 35 8 0 14 5 14 10 0 6 -7 10
-15 10 -8 0 -15 9 -15 20 0 13 7 20 20 20 18 0 20 -7 20 -65z m-759 -10 c2
-251 0 -285 -16 -285 -13 0 -15 26 -15 170 0 144 2 170 15 170 11 0 15 -13 16
-55z m809 35 c0 -11 -7 -20 -15 -20 -8 0 -15 9 -15 20 0 11 7 20 15 20 8 0 15
-9 15 -20z m-628 -55 c-2 -19 -8 -35 -13 -35 -5 0 -9 16 -9 35 0 22 5 35 13
35 9 0 12 -11 9 -35z m628 5 c0 -11 -7 -20 -15 -20 -8 0 -15 9 -15 20 0 11 7
20 15 20 8 0 15 -9 15 -20z m5 -100 c0 -56 -2 -60 -22 -60 -21 0 -23 4 -23 60
0 56 2 60 23 60 20 0 22 -4 22 -60z m-55 2 c0 -48 0 -49 -30 -44 -27 4 -30 8
-30 42 0 34 3 39 28 43 15 2 28 5 30 6 1 0 2 -21 2 -47z m-580 14 c0 -14 5
-28 10 -31 17 -10 11 -25 -10 -25 -17 0 -20 7 -20 40 0 22 5 40 10 40 6 0 10
-11 10 -24z m190 14 c0 -5 -4 -10 -10 -10 -5 0 -10 5 -10 10 0 6 5 10 10 10 6
0 10 -4 10 -10z m320 -30 c0 -29 -4 -40 -15 -40 -11 0 -15 11 -15 40 0 29 4
40 15 40 11 0 15 -11 15 -40z m-450 -30 c0 -5 -7 -10 -15 -10 -8 0 -15 5 -15
10 0 6 7 10 15 10 8 0 15 -4 15 -10z m-55 -60 c0 -17 -5 -30 -12 -30 -8 0 -13
13 -13 30 0 17 5 30 13 30 7 0 12 -13 12 -30z m575 -35 c0 -58 -2 -65 -20 -65
-15 0 -20 7 -20 25 0 16 6 25 15 25 8 0 15 5 15 10 0 6 -6 10 -14 10 -8 0 -16
13 -18 30 -4 26 -1 30 19 30 22 0 23 -4 23 -65z m50 30 c0 -8 -7 -15 -15 -15
-8 0 -15 7 -15 15 0 8 7 15 15 15 8 0 15 -7 15 -15z m0 -50 c0 -16 -6 -25 -15
-25 -9 0 -15 9 -15 25 0 16 6 25 15 25 9 0 15 -9 15 -25z m-630 -20 c0 -14 -4
-25 -10 -25 -5 0 -10 11 -10 25 0 14 5 25 10 25 6 0 10 -11 10 -25z m380 0 c0
-16 -6 -25 -15 -25 -9 0 -15 9 -15 25 0 16 6 25 15 25 9 0 15 -9 15 -25z
m-540 -45 c0 -15 -7 -20 -25 -20 -18 0 -25 5 -25 20 0 15 7 20 25 20 18 0 25
-5 25 -20z m790 0 c0 -15 -7 -20 -25 -20 -18 0 -25 5 -25 20 0 15 7 20 25 20
18 0 25 -5 25 -20z m-60 -2 c0 -20 -15 -38 -31 -38 -14 0 -19 -7 -19 -30 0
-27 -3 -30 -30 -30 -25 0 -30 -4 -30 -25 0 -14 -4 -25 -10 -25 -5 0 -10 -13
-10 -30 0 -23 -4 -30 -20 -30 -15 0 -20 7 -20 25 0 22 -4 25 -35 25 -19 0 -35
-5 -35 -10 0 -6 11 -8 25 -4 21 5 25 3 25 -15 0 -21 -4 -21 -170 -21 -165 0
-170 1 -170 21 0 16 4 19 20 14 11 -4 20 -2 20 4 0 6 -13 11 -30 11 -25 0 -30
-4 -30 -25 0 -18 -5 -25 -20 -25 -16 0 -20 7 -20 30 0 17 -4 30 -10 30 -5 0
-10 11 -10 25 0 21 -5 25 -30 25 -27 0 -30 3 -30 29 0 23 -5 30 -22 33 -13 2
-24 11 -26 20 -3 16 16 18 250 20 382 4 468 4 468 -4z m-690 -68 c0 -5 -4 -10
-10 -10 -5 0 -10 5 -10 10 0 6 5 10 10 10 6 0 10 -4 10 -10z m680 0 c0 -5 -4
-10 -10 -10 -5 0 -10 5 -10 10 0 6 5 10 10 10 6 0 10 -4 10 -10z m-660 -54 c0
-19 -4 -23 -19 -19 -11 3 -21 13 -24 24 -4 15 0 19 19 19 19 0 24 -5 24 -24z
m663 5 c-3 -11 -13 -21 -24 -24 -15 -4 -19 0 -19 19 0 19 5 24 24 24 19 0 23
-4 19 -19z m-623 -11 c0 -5 -4 -10 -10 -10 -5 0 -10 5 -10 10 0 6 5 10 10 10
6 0 10 -4 10 -10z m560 0 c0 -5 -4 -10 -10 -10 -5 0 -10 5 -10 10 0 6 5 10 10
10 6 0 10 -4 10 -10z"/>
<path d="M218 743 c6 -2 18 -2 25 0 6 3 1 5 -13 5 -14 0 -19 -2 -12 -5z"/>
<path d="M753 743 c9 -2 23 -2 30 0 6 3 -1 5 -18 5 -16 0 -22 -2 -12 -5z"/>
<path d="M210 640 c0 -5 5 -10 10 -10 6 0 10 5 10 10 0 6 -4 10 -10 10 -5 0
-10 -4 -10 -10z"/>
<path d="M210 370 c0 -5 5 -10 10 -10 6 0 10 5 10 10 0 6 -4 10 -10 10 -5 0
-10 -4 -10 -10z"/>
<path d="M750 650 c0 -13 -7 -20 -20 -20 -11 0 -20 -4 -20 -10 0 -5 5 -10 10
-10 6 0 10 -7 10 -15 0 -8 5 -15 10 -15 6 0 10 11 10 25 0 18 5 25 20 25 24 0
25 6 6 26 -20 19 -26 18 -26 -6z"/>
<path d="M520 640 c0 -5 18 -10 40 -10 22 0 40 5 40 10 0 6 -18 10 -40 10 -22
0 -40 -4 -40 -10z"/>
<path d="M675 603 c-8 -26 -35 -31 -35 -8 0 8 -4 15 -10 15 -5 0 -10 -11 -10
-25 0 -20 -5 -25 -24 -25 -19 0 -26 6 -29 28 -2 15 -4 -22 -4 -83 1 -60 2 -86
4 -57 4 48 6 52 29 52 20 0 24 5 24 30 0 28 3 30 35 30 l35 0 0 -60 0 -60 -35
0 c-28 0 -35 -4 -35 -20 0 -11 5 -20 10 -20 6 0 10 5 10 10 0 16 22 12 36 -7
12 -16 13 -15 14 10 0 20 5 27 20 27 11 0 20 5 20 10 0 6 -7 10 -15 10 -11 0
-15 11 -15 40 0 29 4 40 15 40 8 0 15 5 15 10 0 6 -9 10 -19 10 -15 0 -21 8
-24 33 -4 29 -5 30 -12 10z m-75 -73 c0 -11 -4 -20 -10 -20 -5 0 -10 9 -10 20
0 11 5 20 10 20 6 0 10 -9 10 -20z"/>
<path d="M441 594 c0 -11 3 -14 6 -6 3 7 2 16 -1 19 -3 4 -6 -2 -5 -13z"/>
<path d="M480 595 c0 -8 5 -15 10 -15 6 0 10 7 10 15 0 8 -4 15 -10 15 -5 0
-10 -7 -10 -15z"/>
<path d="M520 570 c0 -5 7 -10 16 -10 8 0 12 5 9 10 -3 6 -10 10 -16 10 -5 0
-9 -4 -9 -10z"/>
<path d="M520 490 c0 -5 4 -10 9 -10 6 0 13 5 16 10 3 6 -1 10 -9 10 -9 0 -16
-4 -16 -10z"/>
<path d="M723 405 c-18 -20 -16 -25 7 -25 15 0 20 -7 20 -25 0 -14 5 -25 10
-25 6 0 10 7 10 15 0 8 5 15 10 15 6 0 10 5 10 10 0 6 -9 10 -20 10 -13 0 -20
7 -20 20 0 23 -10 25 -27 5z"/>
<path d="M520 370 c0 -5 18 -10 40 -10 22 0 40 5 40 10 0 6 -18 10 -40 10 -22
0 -40 -4 -40 -10z"/>
<path d="M620 260 c0 -5 5 -10 11 -10 5 0 7 5 4 10 -3 6 -8 10 -11 10 -2 0 -4
-4 -4 -10z"/>
<path d="M0 740 c0 -5 9 -10 20 -10 11 0 20 5 20 10 0 6 -9 10 -20 10 -11 0
-20 -4 -20 -10z"/>
<path d="M960 740 c0 -5 9 -10 20 -10 11 0 20 5 20 10 0 6 -9 10 -20 10 -11 0
-20 -4 -20 -10z"/>
<path d="M0 680 c0 -5 9 -10 19 -10 11 0 23 5 26 10 4 6 -5 10 -19 10 -14 0
-26 -4 -26 -10z"/>
<path d="M955 680 c3 -5 15 -10 26 -10 10 0 19 5 19 10 0 6 -12 10 -26 10 -14
0 -23 -4 -19 -10z"/>
<path d="M0 620 c0 -5 9 -10 19 -10 11 0 23 5 26 10 4 6 -5 10 -19 10 -14 0
-26 -4 -26 -10z"/>
<path d="M955 620 c3 -5 15 -10 26 -10 10 0 19 5 19 10 0 6 -12 10 -26 10 -14
0 -23 -4 -19 -10z"/>
<path d="M0 550 c0 -5 9 -10 20 -10 11 0 20 5 20 10 0 6 -9 10 -20 10 -11 0
-20 -4 -20 -10z"/>
<path d="M960 550 c0 -5 9 -10 20 -10 11 0 20 5 20 10 0 6 -9 10 -20 10 -11 0
-20 -4 -20 -10z"/>
<path d="M0 450 c0 -5 9 -10 20 -10 11 0 20 5 20 10 0 6 -9 10 -20 10 -11 0
-20 -4 -20 -10z"/>
<path d="M960 450 c0 -5 9 -10 20 -10 11 0 20 5 20 10 0 6 -9 10 -20 10 -11 0
-20 -4 -20 -10z"/>
<path d="M0 390 c0 -5 12 -10 26 -10 14 0 23 4 19 10 -3 6 -15 10 -26 10 -10
0 -19 -4 -19 -10z"/>
<path d="M955 390 c-4 -6 5 -10 19 -10 14 0 26 5 26 10 0 6 -9 10 -19 10 -11
0 -23 -4 -26 -10z"/>
<path d="M0 320 c0 -5 12 -10 26 -10 14 0 23 4 19 10 -3 6 -15 10 -26 10 -10
0 -19 -4 -19 -10z"/>
<path d="M955 320 c-4 -6 5 -10 19 -10 14 0 26 5 26 10 0 6 -9 10 -19 10 -11
0 -23 -4 -26 -10z"/>
<path d="M0 260 c0 -5 9 -10 20 -10 11 0 20 5 20 10 0 6 -9 10 -20 10 -11 0
-20 -4 -20 -10z"/>
<path d="M960 260 c0 -5 9 -10 20 -10 11 0 20 5 20 10 0 6 -9 10 -20 10 -11 0
-20 -4 -20 -10z"/>
<path d="M310 26 c0 -14 5 -26 10 -26 6 0 10 9 10 19 0 11 -4 23 -10 26 -6 4
-10 -5 -10 -19z"/>
<path d="M370 26 c0 -14 5 -26 10 -26 6 0 10 9 10 19 0 11 -4 23 -10 26 -6 4
-10 -5 -10 -19z"/>
<path d="M440 26 c0 -14 5 -26 10 -26 6 0 10 9 10 19 0 11 -4 23 -10 26 -6 4
-10 -5 -10 -19z"/>
<path d="M547 43 c-11 -10 -8 -43 3 -43 6 0 10 11 10 25 0 26 -2 29 -13 18z"/>
<path d="M607 43 c-11 -10 -8 -43 3 -43 6 0 10 11 10 25 0 26 -2 29 -13 18z"/>
<path d="M677 43 c-11 -10 -8 -43 3 -43 6 0 10 11 10 25 0 26 -2 29 -13 18z"/>
<path d="M250 20 c0 -11 5 -20 10 -20 6 0 10 9 10 20 0 11 -4 20 -10 20 -5 0
-10 -9 -10 -20z"/>
<path d="M730 20 c0 -11 5 -20 10 -20 6 0 10 9 10 20 0 11 -4 20 -10 20 -5 0
-10 -9 -10 -20z"/>
</g>
</svg>
