<?xml version="1.0" standalone="no"?>
<!DOCTYPE svg PUBLIC "-//W3C//DTD SVG 20010904//EN"
 "http://www.w3.org/TR/2001/REC-SVG-20010904/DTD/svg10.dtd">
<svg version="1.0" xmlns="http://www.w3.org/2000/svg"
 width="50.000000pt" height="50.000000pt" viewBox="0 0 50.000000 50.000000"
 preserveAspectRatio="xMidYMid meet">
<metadata>
Created by potrace 1.16, written by Peter Selinger 2001-2019
</metadata>
<g transform="translate(0.000000,50.000000) scale(0.100000,-0.100000)"
fill="#000000" stroke="none">
<path d="M92 470 c-22 -16 -52 -49 -66 -73 -23 -39 -26 -55 -26 -140 0 -112 8
-138 58 -191 53 -55 86 -66 199 -66 115 0 156 18 210 88 33 44 33 44 33 161 0
109 -2 120 -26 158 -15 22 -45 52 -67 67 -38 24 -49 26 -158 26 -113 0 -117
-1 -157 -30z m263 1 c88 -40 135 -116 135 -216 0 -107 -44 -179 -135 -221
-188 -88 -391 86 -335 288 15 54 68 118 119 145 56 29 157 31 216 4z"/>
<path d="M82 253 l3 -108 155 -2 c85 0 163 3 172 8 13 7 18 22 18 54 0 40 -2
44 -27 48 l-28 4 28 2 c25 1 27 5 27 40 0 21 -6 43 -13 49 -7 6 -77 11 -175
11 l-163 1 3 -107z m58 2 c0 -78 -2 -85 -20 -85 -18 0 -20 7 -20 85 0 78 2 85
20 85 18 0 20 -7 20 -85z m98 53 c2 -20 -1 -28 -12 -28 -9 0 -16 7 -16 15 0 8
-4 15 -10 15 -19 0 -10 -30 15 -46 52 -34 19 -123 -35 -94 -24 13 -28 60 -5
60 8 0 15 -9 15 -20 0 -11 5 -20 10 -20 20 0 9 40 -15 56 -46 30 -27 98 25 92
19 -2 26 -10 28 -30z m62 -53 c0 -75 -2 -85 -18 -85 -15 0 -18 11 -20 85 -2
79 -1 85 18 85 18 0 20 -6 20 -85z m98 73 c17 -17 15 -48 -3 -48 -8 0 -15 7
-15 15 0 8 -4 15 -10 15 -6 0 -10 -27 -10 -60 0 -33 4 -60 10 -60 6 0 10 9 10
20 0 11 7 20 15 20 20 0 19 -34 -1 -54 -19 -19 -25 -20 -48 -3 -27 20 -34 108
-12 142 18 27 45 32 64 13z"/>
</g>
</svg>
