<?xml version="1.0" standalone="no"?>
<!DOCTYPE svg PUBLIC "-//W3C//DTD SVG 20010904//EN"
 "http://www.w3.org/TR/2001/REC-SVG-20010904/DTD/svg10.dtd">
<svg version="1.0" xmlns="http://www.w3.org/2000/svg"
 width="100.000000pt" height="100.000000pt" viewBox="0 0 100.000000 100.000000"
 preserveAspectRatio="xMidYMid meet">
<metadata>
Created by potrace 1.16, written by Peter Selinger 2001-2019
</metadata>
<g transform="translate(0.000000,100.000000) scale(0.100000,-0.100000)"
fill="#000000" stroke="none">
<path d="M190 931 c0 -5 9 -7 20 -4 11 3 20 7 20 9 0 2 -9 4 -20 4 -11 0 -20
-4 -20 -9z"/>
<path d="M250 915 c0 -14 5 -25 10 -25 6 0 10 6 10 14 0 8 7 17 16 20 23 9 24
8 24 -14 0 -11 5 -20 10 -20 6 0 10 6 10 14 0 7 9 16 19 19 15 4 21 -1 24 -22
4 -25 4 -26 12 -3 11 33 55 31 55 -3 l0 -25 -125 0 -125 0 0 -27 c1 -24 2 -26
13 -12 7 8 20 18 30 22 13 5 17 1 17 -18 0 -24 -3 -25 -60 -25 l-60 0 0 -215
0 -215 28 0 c24 1 25 2 10 14 -22 16 -24 46 -3 46 8 0 15 5 15 10 0 6 -7 10
-15 10 -8 0 -15 9 -15 20 0 13 7 20 20 20 19 0 20 -7 20 -125 l0 -125 60 0 60
0 0 -60 0 -60 220 0 c213 0 220 1 220 20 0 11 -4 20 -10 20 -5 0 -10 -4 -10
-9 0 -5 -9 -11 -20 -14 -15 -4 -20 0 -20 16 -1 20 -2 21 -14 5 -19 -25 -56
-24 -56 2 0 19 7 20 95 20 l95 0 0 30 c0 27 3 30 30 30 l30 0 0 220 0 220 -25
0 c-14 0 -25 -4 -25 -10 0 -5 6 -10 14 -10 7 0 16 -9 19 -20 4 -16 0 -20 -19
-20 -23 0 -24 3 -24 60 l0 60 -30 0 c-27 0 -30 3 -30 30 0 27 -3 30 -30 30
l-30 0 0 65 0 65 -31 0 c-17 0 -28 -4 -24 -10 3 -5 13 -10 21 -10 8 0 14 -4
14 -9 0 -5 3 -16 6 -25 5 -13 -1 -16 -25 -16 -29 0 -31 3 -31 35 l0 35 -185 0
-185 0 0 -25z m230 -10 c0 -8 -4 -15 -10 -15 -5 0 -10 7 -10 15 0 8 5 15 10
15 6 0 10 -7 10 -15z m60 0 c0 -8 -9 -15 -20 -15 -11 0 -20 7 -20 15 0 8 9 15
20 15 11 0 20 -7 20 -15z m60 4 c0 -7 -8 -18 -17 -25 -16 -12 -15 -13 10 -14
15 0 27 -4 27 -10 0 -5 11 -10 25 -10 18 0 25 -5 25 -20 0 -22 -34 -28 -46 -9
-4 7 -29 10 -65 7 -54 -4 -59 -3 -59 16 -1 18 -2 19 -13 5 -7 -8 -20 -18 -29
-22 -14 -5 -18 -1 -18 18 0 24 3 25 60 25 57 0 60 1 60 25 0 18 5 25 20 25 11
0 20 -5 20 -11z m-290 -79 c0 -13 -7 -20 -20 -20 -13 0 -20 7 -20 20 0 13 7
20 20 20 13 0 20 -7 20 -20z m40 10 c0 -5 -4 -10 -10 -10 -5 0 -10 5 -10 10 0
6 5 10 10 10 6 0 10 -4 10 -10z m70 0 c0 -5 -11 -10 -25 -10 -14 0 -25 5 -25
10 0 6 11 10 25 10 14 0 25 -4 25 -10z m-67 -49 c-3 -11 -13 -21 -24 -24 -15
-4 -19 0 -19 19 0 19 5 24 24 24 19 0 23 -4 19 -19z m267 -11 c0 -28 3 -30 35
-30 32 0 35 -2 35 -30 0 -26 4 -30 28 -30 23 1 25 2 11 13 -8 7 -18 20 -22 30
-5 13 -1 17 18 17 l25 0 0 -220 0 -220 -26 0 c-22 0 -24 3 -18 22 4 13 14 28
23 35 14 11 12 12 -11 13 -28 0 -28 -1 -28 -65 l0 -65 -65 0 -65 0 0 -30 0
-30 -95 0 c-94 0 -95 0 -95 -24 0 -19 -4 -23 -20 -19 -11 3 -20 13 -20 23 0
10 9 20 20 23 11 3 20 14 20 25 0 15 5 18 25 14 14 -2 25 -8 25 -13 0 -5 5 -9
10 -9 6 0 10 9 10 20 0 16 -7 20 -35 20 -32 0 -35 2 -35 30 0 26 -4 30 -27 30
-25 -1 -26 -2 -10 -14 18 -14 25 -86 7 -86 -5 0 -10 11 -10 25 0 14 -4 25 -10
25 -6 0 -10 27 -10 60 0 59 -1 60 -27 60 -24 -1 -26 -2 -12 -13 8 -7 18 -22
21 -34 5 -19 2 -23 -18 -23 l-24 0 0 190 0 190 30 0 c27 0 30 3 30 30 0 27 3
30 30 30 27 0 30 3 30 30 l0 30 125 0 125 0 0 -30z m-430 -5 c0 -18 -5 -25
-20 -25 -25 0 -27 37 -2 43 9 3 18 5 20 6 1 0 2 -10 2 -24z m500 6 c0 -14 -6
-17 -25 -13 -39 7 -30 24 18 31 4 0 7 -7 7 -18z m-400 0 c0 -5 -12 -11 -27
-13 -22 -2 -29 -9 -31 -30 -5 -43 -22 -33 -22 12 l0 40 40 0 c22 0 40 -4 40
-9z m440 -1 c0 -5 -4 -10 -10 -10 -5 0 -10 5 -10 10 0 6 5 10 10 10 6 0 10 -4
10 -10z m-437 -49 c-3 -11 -13 -21 -24 -24 -15 -4 -19 0 -19 19 0 19 5 24 24
24 19 0 23 -4 19 -19z m-103 -10 c0 -14 -5 -18 -20 -14 -25 7 -26 20 -2 26 9
3 18 5 20 6 1 0 2 -8 2 -18z m600 -11 c0 -11 -4 -20 -10 -20 -5 0 -10 9 -10
20 0 11 5 20 10 20 6 0 10 -9 10 -20z m-600 -50 c0 -23 4 -30 20 -30 15 0 20
-7 20 -25 0 -14 -4 -25 -10 -25 -5 0 -10 7 -10 15 0 8 -4 15 -10 15 -5 0 -10
-9 -10 -20 0 -22 -1 -23 -24 -14 -19 7 -22 54 -3 54 8 0 9 3 1 8 -6 4 -13 17
-16 30 -5 18 -2 22 18 22 20 0 24 -5 24 -30z m40 10 c0 -11 -4 -20 -9 -20 -5
0 -11 9 -14 20 -3 13 0 20 9 20 8 0 14 -9 14 -20z m560 -5 c0 -8 -4 -15 -10
-15 -5 0 -10 7 -10 15 0 8 5 15 10 15 6 0 10 -7 10 -15z m20 -130 c0 -94 0
-95 -25 -95 -19 0 -23 4 -18 18 4 9 11 21 17 25 8 6 7 10 -1 14 -7 2 -13 17
-13 33 0 16 6 31 13 34 10 5 10 7 0 12 -7 3 -13 17 -13 30 0 17 6 24 20 24 19
0 20 -7 20 -95z m40 50 c0 -16 -6 -25 -16 -25 -11 0 -14 5 -10 16 3 9 6 20 6
25 0 5 5 9 10 9 6 0 10 -11 10 -25z m-620 -105 c0 -47 -4 -80 -10 -80 -5 0
-10 22 -10 48 0 51 -12 72 -42 72 -11 0 -18 7 -18 20 0 17 7 20 40 20 l40 0 0
-80z m620 40 c0 -11 -4 -20 -10 -20 -5 0 -10 9 -10 20 0 11 5 20 10 20 6 0 10
-9 10 -20z m0 -60 c0 -11 -4 -20 -10 -20 -5 0 -10 9 -10 20 0 11 5 20 10 20 6
0 10 -9 10 -20z m0 -55 c0 -22 -4 -25 -40 -25 -33 0 -40 3 -40 19 0 15 8 21
33 24 17 2 35 5 40 5 4 1 7 -9 7 -23z m-620 -50 c0 -14 -4 -25 -10 -25 -5 0
-10 11 -10 25 0 14 5 25 10 25 6 0 10 -11 10 -25z m620 -16 c0 -11 -6 -19 -12
-20 -10 0 -10 -2 0 -6 20 -8 14 -43 -8 -43 -17 0 -20 7 -20 49 0 44 2 49 20
44 11 -3 20 -14 20 -24z m-60 -24 c0 -25 -4 -45 -10 -45 -5 0 -10 20 -10 45 0
25 5 45 10 45 6 0 10 -20 10 -45z m-540 -30 c0 -29 -12 -32 -34 -9 -23 22 -20
34 9 34 20 0 25 -5 25 -25z m40 -5 c0 -5 -4 -10 -10 -10 -5 0 -10 5 -10 10 0
6 5 10 10 10 6 0 10 -4 10 -10z m460 -10 c0 -13 -7 -20 -20 -20 -13 0 -20 7
-20 20 0 13 7 20 20 20 13 0 20 -7 20 -20z m40 -40 c0 -13 -7 -20 -20 -20 -13
0 -20 7 -20 20 0 13 7 20 20 20 13 0 20 -7 20 -20z m-170 -15 c0 -20 -5 -25
-24 -25 -19 0 -23 4 -19 19 3 11 12 22 22 24 9 3 17 5 19 6 1 0 2 -10 2 -24z
m110 5 c0 -5 -20 -10 -45 -10 -25 0 -45 5 -45 10 0 6 20 10 45 10 25 0 45 -4
45 -10z m-290 -55 c0 -9 -9 -15 -25 -15 -29 0 -34 16 -7 23 30 8 32 7 32 -8z
m60 -5 c0 -5 -9 -10 -20 -10 -11 0 -20 5 -20 10 0 6 9 10 20 10 11 0 20 -4 20
-10z m40 0 c0 -5 -4 -10 -10 -10 -5 0 -10 5 -10 10 0 6 5 10 10 10 6 0 10 -4
10 -10z m60 0 c0 -5 -9 -10 -20 -10 -11 0 -20 5 -20 10 0 6 9 10 20 10 11 0
20 -4 20 -10z"/>
<path d="M420 780 c0 -5 -7 -10 -15 -10 -8 0 -15 -4 -15 -10 0 -5 11 -10 25
-10 18 0 25 5 25 20 0 11 -4 20 -10 20 -5 0 -10 -4 -10 -10z"/>
<path d="M560 773 c0 -17 6 -23 23 -23 16 0 18 3 8 9 -7 5 -17 15 -22 22 -6
10 -9 8 -9 -8z"/>
<path d="M343 715 c-18 -20 -16 -25 7 -25 13 0 20 7 20 20 0 23 -10 25 -27 5z"/>
<path d="M287 660 c-22 -26 -21 -30 3 -30 15 0 20 7 20 25 0 30 -1 30 -23 5z"/>
<path d="M690 650 c0 -13 7 -20 20 -20 24 0 25 6 6 26 -20 19 -26 18 -26 -6z"/>
<path d="M300 595 c0 -7 -8 -19 -17 -24 -16 -9 -16 -10 5 -11 17 0 22 6 22 25
0 14 -2 25 -5 25 -3 0 -5 -7 -5 -15z"/>
<path d="M302 480 c0 -14 2 -19 5 -12 2 6 2 18 0 25 -3 6 -5 1 -5 -13z"/>
<path d="M270 434 c0 -7 27 -34 34 -34 3 0 6 9 6 20 0 13 -7 20 -20 20 -11 0
-20 -3 -20 -6z"/>
<path d="M690 420 c0 -24 6 -25 26 -6 19 20 18 26 -6 26 -13 0 -20 -7 -20 -20z"/>
<path d="M425 300 c3 -5 8 -10 11 -10 2 0 4 5 4 10 0 6 -5 10 -11 10 -5 0 -7
-4 -4 -10z"/>
<path d="M620 283 c1 -25 2 -26 14 -10 7 9 18 17 24 17 6 0 14 5 17 10 4 6 -7
10 -24 10 -27 0 -31 -3 -31 -27z"/>
<path d="M500 230 c0 -11 2 -20 5 -20 3 0 15 9 27 20 l22 20 -27 0 c-20 0 -27
-5 -27 -20z"/>
<path d="M722 928 c9 -7 18 -20 21 -28 3 -8 6 -3 6 13 1 21 -3 27 -21 27 -19
0 -20 -2 -6 -12z"/>
<path d="M130 850 c0 -24 6 -25 26 -6 19 20 18 26 -6 26 -13 0 -20 -7 -20 -20z"/>
<path d="M710 864 c0 -3 6 -12 14 -20 20 -19 26 -18 26 6 0 13 -7 20 -20 20
-11 0 -20 -3 -20 -6z"/>
<path d="M60 790 c0 -11 5 -20 10 -20 6 0 10 5 10 10 0 6 7 10 15 10 8 0 15 5
15 10 0 6 -11 10 -25 10 -18 0 -25 -5 -25 -20z"/>
<path d="M770 797 c8 -7 21 -19 28 -27 10 -12 12 -9 12 13 0 23 -4 27 -27 27
-24 -1 -26 -3 -13 -13z"/>
<path d="M60 595 l0 -155 25 0 c14 0 25 5 25 10 0 6 -6 10 -14 10 -7 0 -16 9
-19 20 -4 15 0 20 14 20 10 0 19 5 19 10 0 6 -6 10 -14 10 -7 0 -16 9 -19 20
-4 15 0 20 14 20 10 0 19 5 19 10 0 6 -6 10 -14 10 -7 0 -16 11 -18 25 -4 19
-1 25 13 25 11 0 19 5 19 10 0 6 -7 10 -15 10 -21 0 -19 28 3 33 16 4 16 5 0
6 -22 1 -25 41 -3 41 8 0 15 5 15 10 0 6 -11 10 -25 10 l-25 0 0 -155z"/>
<path d="M830 745 c0 -3 9 -15 20 -27 l20 -22 0 27 c0 20 -5 27 -20 27 -11 0
-20 -2 -20 -5z"/>
<path d="M925 740 c3 -5 8 -10 11 -10 2 0 4 5 4 10 0 6 -5 10 -11 10 -5 0 -7
-4 -4 -10z"/>
<path d="M890 680 c0 -5 7 -10 15 -10 8 0 15 -4 15 -10 0 -5 5 -10 10 -10 6 0
10 9 10 20 0 15 -7 20 -25 20 -14 0 -25 -4 -25 -10z"/>
<path d="M7 623 c7 -2 19 -2 26 0 6 3 1 5 -13 5 -14 0 -19 -2 -13 -5z"/>
<path d="M890 620 c0 -5 6 -10 14 -10 7 0 16 -11 18 -25 4 -19 1 -25 -13 -25
-11 0 -19 -4 -19 -10 0 -5 7 -10 15 -10 8 0 15 -9 15 -20 0 -11 -7 -20 -15
-20 -8 0 -15 -4 -15 -10 0 -5 7 -10 15 -10 8 0 15 -9 15 -20 0 -11 -7 -20 -15
-20 -8 0 -15 -4 -15 -10 0 -5 7 -10 15 -10 8 0 15 -9 15 -20 0 -11 -7 -20 -15
-20 -8 0 -15 -4 -15 -10 0 -5 7 -10 15 -10 23 0 18 -27 -7 -35 -22 -7 -22 -8
5 -12 20 -3 27 -9 23 -20 -3 -8 -6 -17 -6 -19 0 -2 -7 -4 -15 -4 -8 0 -15 -4
-15 -10 0 -5 11 -10 25 -10 l25 0 0 190 0 190 -25 0 c-14 0 -25 -4 -25 -10z"/>
<path d="M7 563 c7 -2 19 -2 26 0 6 3 1 5 -13 5 -14 0 -19 -2 -13 -5z"/>
<path d="M968 553 c6 -2 18 -2 25 0 6 3 1 5 -13 5 -14 0 -19 -2 -12 -5z"/>
<path d="M7 503 c7 -2 19 -2 26 0 6 3 1 5 -13 5 -14 0 -19 -2 -13 -5z"/>
<path d="M960 490 c0 -5 9 -10 20 -10 11 0 20 5 20 10 0 6 -9 10 -20 10 -11 0
-20 -4 -20 -10z"/>
<path d="M60 402 c0 -18 6 -22 28 -21 15 0 20 3 12 6 -8 3 -21 12 -27 21 -11
14 -13 13 -13 -6z"/>
<path d="M960 390 c0 -5 9 -10 20 -10 11 0 20 5 20 10 0 6 -9 10 -20 10 -11 0
-20 -4 -20 -10z"/>
<path d="M130 341 c0 -24 4 -31 20 -31 11 0 20 5 20 10 0 6 -4 10 -10 10 -5 0
-10 6 -10 14 0 8 -4 18 -10 21 -6 4 -10 -7 -10 -24z"/>
<path d="M130 260 c0 -5 5 -10 11 -10 5 0 7 5 4 10 -3 6 -8 10 -11 10 -2 0 -4
-4 -4 -10z"/>
<path d="M250 210 c0 -13 7 -20 20 -20 24 0 25 6 6 26 -20 19 -26 18 -26 -6z"/>
<path d="M836 209 c-19 -19 -19 -19 7 -19 20 0 27 5 27 20 0 25 -9 25 -34 -1z"/>
<path d="M250 150 c0 -13 7 -20 20 -20 24 0 25 6 6 26 -20 19 -26 18 -26 -6z"/>
<path d="M783 155 c-18 -20 -16 -25 7 -25 13 0 20 7 20 20 0 23 -10 25 -27 5z"/>
<path d="M370 85 c0 -21 5 -25 31 -25 17 0 28 4 24 10 -3 6 -13 10 -21 10 -8
0 -14 7 -14 15 0 8 -4 15 -10 15 -5 0 -10 -11 -10 -25z"/>
<path d="M440 85 c0 -25 1 -25 90 -25 89 0 90 0 90 25 0 14 -4 25 -10 25 -5 0
-10 -6 -10 -14 0 -7 -9 -16 -20 -19 -15 -4 -20 0 -20 14 0 10 -4 19 -10 19 -5
0 -10 -7 -10 -15 0 -21 -28 -19 -33 3 -4 16 -5 16 -6 0 -1 -22 -41 -25 -41 -3
0 8 -4 15 -10 15 -5 0 -10 -11 -10 -25z"/>
<path d="M680 95 c0 -9 -10 -20 -22 -25 -22 -8 -22 -9 5 -9 22 -1 27 3 27 24
0 14 -2 25 -5 25 -3 0 -5 -7 -5 -15z"/>
</g>
</svg>
