<?xml version="1.0" standalone="no"?>
<!DOCTYPE svg PUBLIC "-//W3C//DTD SVG 20010904//EN"
 "http://www.w3.org/TR/2001/REC-SVG-20010904/DTD/svg10.dtd">
<svg version="1.0" xmlns="http://www.w3.org/2000/svg"
 width="100.000000pt" height="100.000000pt" viewBox="0 0 100.000000 100.000000"
 preserveAspectRatio="xMidYMid meet">
<metadata>
Created by potrace 1.16, written by Peter Selinger 2001-2019
</metadata>
<g transform="translate(0.000000,100.000000) scale(0.100000,-0.100000)"
fill="#000000" stroke="none">
<path d="M151 758 c1 -77 3 -86 10 -53 4 22 8 59 8 83 1 40 3 42 31 43 42 2
47 3 56 12 4 4 -18 7 -49 7 l-57 0 1 -92z"/>
<path d="M270 839 c0 -5 5 -7 10 -4 6 4 10 -8 11 -27 l1 -33 8 30 c7 29 8 29
10 -10 2 -25 4 -32 7 -17 4 21 8 22 136 24 l132 2 -127 3 c-79 2 -128 8 -128
14 0 6 5 7 10 4 6 -3 10 -2 10 3 0 5 41 8 95 6 59 -3 95 0 95 6 0 6 -52 10
-135 10 -88 0 -135 -4 -135 -11z"/>
<path d="M580 839 c0 -5 5 -7 10 -4 6 3 10 -2 11 -12 0 -10 3 -13 6 -5 2 6 17
12 33 12 22 0 30 -5 33 -22 l4 -23 2 23 c0 12 4 22 9 23 4 0 15 2 25 4 15 3
17 -7 17 -93 0 -66 -3 -92 -10 -82 -7 11 -10 4 -9 -25 0 -31 2 -36 9 -20 6 13
8 -7 8 -60 -1 -73 -2 -75 -8 -30 -6 45 -7 41 -10 -40 -3 -77 -4 -83 -10 -45
l-7 45 -2 -45 c-1 -33 -4 -41 -11 -30 -8 12 -10 10 -10 -10 0 -18 -3 -21 -9
-11 -7 11 -9 11 -14 0 -4 -12 -7 -11 -16 1 -7 10 -11 11 -11 3 0 -7 -10 -13
-22 -14 -22 -1 -22 -1 2 -8 14 -4 35 -6 48 -5 12 1 22 -2 22 -7 0 -5 -17 -9
-37 -9 -28 0 -34 -3 -23 -10 11 -7 6 -10 -20 -11 -32 -1 -33 -2 -10 -9 16 -5
-11 -8 -77 -9 -96 -1 -103 -2 -103 -21 0 -11 5 -20 10 -20 6 0 10 -19 10 -42
0 -32 -3 -39 -10 -28 -7 11 -10 3 -10 -28 0 -28 -4 -41 -11 -37 -6 4 -9 37 -8
78 2 112 -8 163 -38 176 -16 7 -30 8 -41 1 -14 -7 -11 -9 16 -10 17 0 32 -5
32 -11 0 -5 -4 -7 -10 -4 -5 3 -10 -3 -10 -14 0 -14 6 -21 20 -21 19 0 20 -7
20 -105 l0 -105 285 0 285 0 0 365 0 365 -180 0 c-120 0 -180 -4 -180 -11z
m254 -5 c13 -5 16 -24 16 -105 l0 -99 -30 0 -30 0 2 103 2 102 6 -85 6 -85 2
88 c1 48 4 87 6 87 2 0 11 -3 20 -6z m-87 -126 c-2 -24 -4 -5 -4 42 0 47 2 66
4 43 2 -24 2 -62 0 -85z m172 10 c-1 -62 -3 -106 -6 -97 -2 10 -13 19 -24 22
-17 5 -19 14 -19 96 0 90 0 91 25 91 l25 0 -1 -112z m-142 -80 c-3 -7 -5 -2
-5 12 0 14 2 19 5 13 2 -7 2 -19 0 -25z m123 -35 c0 -19 3 -24 9 -15 12 19 19
-63 15 -173 -4 -114 -6 -125 -16 -125 -4 0 -8 -9 -8 -20 0 -11 5 -20 10 -20 6
0 9 -25 8 -57 l-1 -58 -7 50 -7 50 -1 -47 c-3 -68 -22 -60 -24 10 l-2 57 -3
-57 c-5 -72 -22 -76 -25 -5 l-1 52 -7 -55 -7 -55 -2 55 c-2 41 -5 50 -11 35
-7 -16 -9 -14 -9 15 -1 26 2 31 9 20 7 -11 10 -6 10 20 0 26 3 31 10 20 8 -12
10 -10 10 10 l1 25 14 -25 c13 -23 14 -12 15 113 0 75 -4 137 -8 137 -4 0 -9
-17 -10 -37 -4 -58 -12 -53 -12 8 0 38 -3 50 -10 39 -8 -12 -10 -11 -10 8 0
18 -6 22 -30 22 -16 0 -30 4 -30 9 0 5 13 7 29 6 16 -1 35 1 43 6 7 5 23 9 36
9 17 0 22 -6 22 -27z m-153 -95 c-2 -18 -4 -4 -4 32 0 36 2 50 4 33 2 -18 2
-48 0 -65z m68 13 c-2 -4 7 -19 21 -34 21 -23 25 -36 23 -86 -2 -52 -4 -58
-21 -53 -14 3 -21 -2 -25 -17 -3 -11 -9 -21 -14 -21 -5 0 -9 -5 -9 -12 0 -21
-33 -48 -58 -48 -18 0 -23 -4 -18 -16 3 -8 2 -12 -3 -9 -5 3 -12 1 -16 -5 -10
-16 -131 -12 -145 5 -18 21 4 45 41 45 18 0 34 8 41 20 7 11 21 20 30 20 10 0
23 10 29 22 7 13 18 29 26 36 7 7 13 22 13 33 0 10 5 19 11 19 6 0 9 6 6 13
-5 13 17 39 26 31 3 -3 8 13 12 35 5 29 11 38 21 34 8 -3 12 -8 9 -12z m-282
-228 c-18 -2 -48 -2 -65 0 -18 2 -4 4 32 4 36 0 50 -2 33 -4z m-25 -20 c-10
-2 -28 -2 -40 0 -13 2 -5 4 17 4 22 1 32 -1 23 -4z m-62 -55 c-6 -4 8 -8 32
-8 37 0 42 -3 41 -22 0 -22 -1 -22 -9 -3 -7 17 -9 14 -10 -15 -1 -29 -3 -32
-10 -15 -8 19 -9 19 -9 -2 -1 -16 -6 -20 -21 -16 -11 3 -20 13 -20 22 0 9 -3
34 -7 55 -6 36 -5 38 9 25 11 -10 13 -16 4 -21z m51 6 c-3 -3 -12 -4 -19 -1
-8 3 -5 6 6 6 11 1 17 -2 13 -5z m273 -4 c-31 -7 -32 -7 -7 -9 24 -1 27 -5 27
-36 0 -28 -4 -35 -20 -35 -14 0 -20 7 -21 23 -1 21 -1 21 -9 -3 -7 -20 -8 -16
-9 23 l-1 47 38 -1 37 -2 -35 -7z m-182 -37 c-10 -2 -26 -2 -35 0 -10 3 -2 5
17 5 19 0 27 -2 18 -5z m95 0 c-7 -2 -19 -2 -25 0 -7 3 -2 5 12 5 14 0 19 -2
13 -5z m7 -31 c0 -15 -10 -17 -75 -18 -66 0 -75 2 -75 18 0 16 9 18 75 18 65
0 75 -2 75 -18z"/>
<path d="M894 425 c0 -66 1 -92 3 -57 2 34 2 88 0 120 -2 31 -3 3 -3 -63z"/>
<path d="M613 153 c9 -2 23 -2 30 0 6 3 -1 5 -18 5 -16 0 -22 -2 -12 -5z"/>
<path d="M330 768 c0 -17 3 -19 12 -10 15 15 198 17 198 2 0 -5 9 -10 20 -10
13 0 20 7 20 20 0 19 -7 20 -125 20 -122 0 -125 -1 -125 -22z"/>
<path d="M598 763 c7 -3 16 -2 19 1 4 3 -2 6 -13 5 -11 0 -14 -3 -6 -6z"/>
<path d="M378 753 c7 -3 16 -2 19 1 4 3 -2 6 -13 5 -11 0 -14 -3 -6 -6z"/>
<path d="M249 718 c-1 -31 -1 -32 -9 -8 -8 24 -8 24 -9 3 -1 -13 -5 -23 -11
-23 -6 0 -10 -46 -10 -117 0 -70 4 -112 9 -104 7 11 9 11 14 0 2 -8 8 -2 12
14 5 18 3 33 -4 40 -13 13 -15 83 -2 91 5 3 7 15 4 25 -3 10 0 22 6 25 6 4 11
17 11 29 0 18 2 19 10 7 6 -10 10 -11 10 -2 0 6 7 12 16 12 10 0 14 6 11 14
-3 8 -1 17 6 20 7 2 -5 5 -25 5 -36 1 -38 -1 -39 -31z"/>
<path d="M583 730 c-1 -11 4 -20 12 -20 7 0 16 -6 18 -12 3 -7 6 2 6 20 1 24
-3 32 -17 32 -11 0 -18 -8 -19 -20z"/>
<path d="M635 710 c0 -22 3 -40 8 -40 4 0 7 6 7 14 0 8 6 17 13 19 10 4 10 6
0 6 -7 1 -13 10 -13 21 0 11 -3 20 -8 20 -4 0 -7 -18 -7 -40z"/>
<path d="M194 575 c0 -66 1 -92 3 -57 2 34 2 88 0 120 -2 31 -3 3 -3 -63z"/>
<path d="M672 650 c0 -14 2 -19 5 -12 2 6 2 18 0 25 -3 6 -5 1 -5 -13z"/>
<path d="M610 595 c-1 -38 -3 -84 -4 -100 -1 -17 3 -43 9 -57 8 -21 10 -4 7
80 -4 136 -9 166 -12 77z"/>
<path d="M692 625 c0 -16 2 -22 5 -12 2 9 2 23 0 30 -3 6 -5 -1 -5 -18z"/>
<path d="M150 377 l0 -257 106 0 c69 0 103 4 99 10 -4 6 -11 8 -16 5 -5 -4
-10 33 -11 87 l-2 93 -5 -90 -5 -90 -6 90 -6 90 -2 -87 c-2 -80 -4 -88 -22
-88 -18 0 -20 8 -23 108 l-3 107 -2 -107 -2 -108 -40 0 -40 0 0 139 c0 102 3
141 13 144 9 4 9 8 -2 15 -11 8 -16 36 -18 98 -6 177 -13 89 -13 -159z"/>
<path d="M643 540 c0 -36 2 -50 4 -32 2 17 2 47 0 65 -2 17 -4 3 -4 -33z"/>
<path d="M251 448 c-1 -22 4 -28 19 -28 11 0 20 -4 20 -10 0 -5 5 -10 12 -10
7 0 6 6 -4 18 -9 9 -13 23 -11 30 3 6 0 12 -6 12 -6 0 -11 -8 -12 -17 -1 -12
-4 -10 -9 7 l-8 25 -1 -27z"/>
<path d="M578 443 c7 -3 16 -2 19 1 4 3 -2 6 -13 5 -11 0 -14 -3 -6 -6z"/>
<path d="M420 390 c-18 -6 -5 -8 48 -9 39 -1 72 3 72 7 0 11 -88 13 -120 2z"/>
<path d="M283 353 c9 -2 23 -2 30 0 6 3 -1 5 -18 5 -16 0 -22 -2 -12 -5z"/>
<path d="M278 322 c-3 -9 -1 -26 3 -37 6 -15 8 -11 8 18 1 40 -4 48 -11 19z"/>
<path d="M438 323 c23 -2 59 -2 80 0 20 2 1 4 -43 4 -44 0 -61 -2 -37 -4z"/>
</g>
</svg>
