<?xml version="1.0" standalone="no"?>
<!DOCTYPE svg PUBLIC "-//W3C//DTD SVG 20010904//EN"
 "http://www.w3.org/TR/2001/REC-SVG-20010904/DTD/svg10.dtd">
<svg version="1.0" xmlns="http://www.w3.org/2000/svg"
 width="256.000000pt" height="256.000000pt" viewBox="0 0 256.000000 256.000000"
 preserveAspectRatio="xMidYMid meet">
<metadata>
Created by potrace 1.16, written by Peter Selinger 2001-2019
</metadata>
<g transform="translate(0.000000,256.000000) scale(0.100000,-0.100000)"
fill="#000000" stroke="none">
<path d="M920 2095 c-114 -31 -199 -82 -290 -174 -94 -95 -148 -188 -175 -303
-19 -82 -19 -247 0 -323 25 -97 88 -214 155 -288 95 -103 270 -201 302 -169 9
9 8 12 -6 12 -43 0 -169 73 -236 136 -86 81 -133 151 -173 257 -29 76 -31 92
-31 212 -1 117 2 138 26 203 38 104 83 175 160 253 108 108 273 179 418 179
200 -1 395 -110 511 -288 53 -81 76 -81 32 0 -37 68 -143 176 -218 220 -101
61 -174 81 -305 85 -79 2 -132 -2 -170 -12z"/>
<path d="M1650 1735 c0 -4 6 -18 14 -33 30 -59 49 -182 43 -282 -16 -290 -212
-534 -487 -605 -67 -17 -253 -18 -293 0 -14 6 -10 -5 15 -48 78 -133 202 -236
341 -285 96 -33 253 -42 347 -18 180 45 339 173 418 336 55 112 72 184 72 301
0 262 -134 483 -361 593 -94 46 -109 51 -109 41z m139 -88 c72 -43 168 -139
213 -212 218 -358 46 -804 -362 -941 -38 -13 -85 -18 -150 -19 -113 0 -201 24
-299 82 -66 40 -174 140 -203 190 l-17 29 112 2 c191 1 320 55 452 187 91 90
152 198 180 315 24 106 19 294 -12 394 -7 24 9 19 86 -27z"/>
</g>
</svg>
