<?xml version="1.0" standalone="no"?>
<!DOCTYPE svg PUBLIC "-//W3C//DTD SVG 20010904//EN"
 "http://www.w3.org/TR/2001/REC-SVG-20010904/DTD/svg10.dtd">
<svg version="1.0" xmlns="http://www.w3.org/2000/svg"
 width="100.000000pt" height="100.000000pt" viewBox="0 0 100.000000 100.000000"
 preserveAspectRatio="xMidYMid meet">
<metadata>
Created by potrace 1.16, written by Peter Selinger 2001-2019
</metadata>
<g transform="translate(0.000000,100.000000) scale(0.100000,-0.100000)"
fill="#000000" stroke="none">
<path d="M60 974 c0 -14 4 -23 10 -19 13 8 13 45 0 45 -5 0 -10 -12 -10 -26z"/>
<path d="M920 981 c0 -11 5 -23 10 -26 6 -4 10 5 10 19 0 14 -4 26 -10 26 -5
0 -10 -9 -10 -19z"/>
<path d="M0 929 c0 -7 11 -9 30 -5 l30 6 0 -175 c0 -110 -4 -175 -10 -175 -13
0 -13 -207 0 -215 6 -4 10 -65 10 -150 l0 -144 -30 6 c-19 3 -30 1 -30 -6 0
-8 136 -11 500 -11 364 0 500 3 500 11 0 7 -11 9 -30 6 l-30 -6 0 144 c0 85 4
146 10 150 13 8 13 265 0 265 -6 0 -10 57 -10 150 l0 150 30 -6 c19 -4 30 -2
30 5 0 8 -136 11 -500 11 -364 0 -500 -3 -500 -11z m920 -143 l0 -135 -32 -3
c-29 -3 -33 -7 -36 -35 -2 -18 -7 -33 -12 -33 -5 0 -10 15 -12 33 l-3 32 -142
3 -143 3 0 -36 0 -35 -230 0 -230 0 0 170 0 170 420 0 420 0 0 -134z m-230
-181 c0 -24 -2 -25 -65 -25 -63 0 -65 1 -65 25 0 24 2 25 65 25 63 0 65 -1 65
-25z m120 0 c0 -21 -5 -25 -29 -25 -23 0 -31 5 -34 23 l-4 22 -8 -22 c-10 -30
-22 -29 -27 2 -5 24 -3 25 48 25 51 0 54 -1 54 -25z m130 0 c0 -22 -4 -25 -35
-25 -31 0 -35 3 -35 25 0 22 4 25 35 25 31 0 35 -3 35 -25z m-130 -105 l0 -60
-30 0 c-27 0 -30 3 -30 30 0 27 -3 30 -30 30 -27 0 -30 -3 -30 -30 l0 -30 -95
0 c-88 0 -95 -1 -95 -20 0 -22 15 -27 24 -7 5 10 7 10 12 0 3 -7 10 -13 15
-13 5 0 9 6 9 13 0 8 20 12 65 12 45 0 65 -4 65 -12 0 -7 5 -13 10 -13 6 0 10
18 10 40 0 22 5 40 10 40 6 0 10 -11 10 -25 0 -14 5 -25 10 -25 6 0 10 -7 10
-15 0 -18 16 -20 24 -2 5 10 7 10 12 0 9 -20 24 -15 24 7 0 28 34 26 55 -2 12
-16 19 -19 22 -10 3 6 13 12 24 12 10 0 19 5 19 10 0 6 -13 10 -30 10 l-30 0
0 60 0 60 35 0 35 0 0 -90 0 -90 -440 0 -440 0 0 90 0 90 375 0 375 0 0 -60z
m43 40 c-3 -11 -9 -20 -13 -20 -4 0 -10 9 -13 20 -4 15 0 20 13 20 13 0 17 -5
13 -20z m-3 -60 c0 -11 -4 -20 -10 -20 -5 0 -10 9 -10 20 0 11 5 20 10 20 6 0
10 -9 10 -20z m70 -260 l0 -140 -420 0 -420 0 0 140 0 140 420 0 420 0 0 -140z"/>
<path d="M130 490 c0 -49 -1 -50 -31 -50 -17 0 -28 -4 -24 -10 3 -5 17 -10 30
-10 13 0 26 -6 28 -12 4 -10 8 -9 17 2 9 11 13 12 17 3 2 -7 9 -13 14 -13 5 0
9 6 9 13 0 8 19 12 60 12 41 0 60 -4 60 -12 0 -7 4 -13 9 -13 5 0 12 6 15 13
5 10 7 10 12 0 8 -17 24 -17 24 0 0 10 13 13 54 9 33 -3 56 0 60 7 5 8 -35 11
-143 11 l-151 0 0 50 c0 29 -5 50 -11 50 -6 0 -8 -9 -4 -20 5 -16 2 -20 -15
-20 -17 0 -20 4 -15 20 4 11 2 20 -4 20 -6 0 -11 -21 -11 -50z m40 -30 c0 -11
-4 -20 -10 -20 -5 0 -10 9 -10 20 0 11 5 20 10 20 6 0 10 -9 10 -20z"/>
<path d="M250 520 c0 -16 7 -20 30 -20 26 0 30 -4 30 -26 0 -14 4 -23 10 -19
6 3 10 24 10 46 0 21 -4 39 -10 39 -5 0 -10 -6 -10 -14 0 -9 -7 -12 -20 -9
-11 3 -20 9 -20 14 0 5 -4 9 -10 9 -5 0 -10 -9 -10 -20z"/>
<path d="M370 520 c0 -18 7 -20 65 -20 58 0 65 2 65 20 0 11 -4 20 -10 20 -5
0 -10 -4 -10 -10 0 -5 -20 -10 -45 -10 -25 0 -45 5 -45 10 0 6 -4 10 -10 10
-5 0 -10 -9 -10 -20z"/>
<path d="M545 521 c4 -14 1 -20 -14 -23 -19 -3 -19 -4 4 -27 l25 -23 0 46 c0
26 -5 46 -11 46 -6 0 -8 -8 -4 -19z"/>
<path d="M586 519 c-19 -19 -19 -19 7 -19 14 0 29 -4 32 -10 3 -5 15 -10 26
-10 10 0 19 5 19 10 0 6 -11 10 -25 10 -18 0 -25 5 -25 20 0 25 -9 25 -34 -1z"/>
<path d="M690 524 c0 -8 5 -12 10 -9 6 3 10 10 10 16 0 5 -4 9 -10 9 -5 0 -10
-7 -10 -16z"/>
<path d="M730 530 c0 -5 5 -10 10 -10 6 0 10 5 10 10 0 6 -4 10 -10 10 -5 0
-10 -4 -10 -10z"/>
<path d="M210 490 c0 -5 5 -10 10 -10 6 0 10 5 10 10 0 6 -4 10 -10 10 -5 0
-10 -4 -10 -10z"/>
<path d="M770 490 c0 -5 5 -10 10 -10 6 0 10 5 10 10 0 6 -4 10 -10 10 -5 0
-10 -4 -10 -10z"/>
<path d="M370 476 c0 -9 5 -16 10 -16 6 0 10 4 10 9 0 6 -4 13 -10 16 -5 3
-10 -1 -10 -9z"/>
<path d="M60 26 c0 -14 5 -26 10 -26 6 0 10 9 10 19 0 11 -4 23 -10 26 -6 4
-10 -5 -10 -19z"/>
<path d="M927 43 c-11 -10 -8 -43 3 -43 6 0 10 11 10 25 0 26 -2 29 -13 18z"/>
</g>
</svg>
