<?xml version="1.0" standalone="no"?>
<!DOCTYPE svg PUBLIC "-//W3C//DTD SVG 20010904//EN"
 "http://www.w3.org/TR/2001/REC-SVG-20010904/DTD/svg10.dtd">
<svg version="1.0" xmlns="http://www.w3.org/2000/svg"
 width="256.000000pt" height="256.000000pt" viewBox="0 0 256.000000 256.000000"
 preserveAspectRatio="xMidYMid meet">
<metadata>
Created by potrace 1.16, written by Peter Selinger 2001-2019
</metadata>
<g transform="translate(0.000000,256.000000) scale(0.100000,-0.100000)"
fill="#000000" stroke="none">
<path d="M0 1530 c0 -7 180 -10 520 -10 l520 0 0 -160 0 -160 80 0 80 0 0 160
0 160 400 0 400 0 0 -40 0 -40 40 0 40 0 0 40 0 40 80 0 80 0 0 -160 0 -160
80 0 80 0 0 160 0 160 80 0 c47 0 80 4 80 10 0 6 -37 10 -90 10 l-90 0 0 -160
0 -160 -60 0 -60 0 0 160 0 160 -100 0 -100 0 0 -40 c0 -33 -3 -40 -20 -40
-17 0 -20 7 -20 40 l0 40 -420 0 -420 0 0 -160 0 -160 -60 0 -60 0 0 160 0
160 -530 0 c-347 0 -530 -3 -530 -10z"/>
<path d="M640 1320 l0 -40 80 0 80 0 0 40 0 40 -80 0 -80 0 0 -40z m140 0 c0
-18 -7 -20 -60 -20 -53 0 -60 2 -60 20 0 18 7 20 60 20 53 0 60 -2 60 -20z"/>
<path d="M1440 1320 l0 -40 80 0 80 0 0 40 0 40 -80 0 -80 0 0 -40z m140 0 c0
-18 -7 -20 -60 -20 -53 0 -60 2 -60 20 0 18 7 20 60 20 53 0 60 -2 60 -20z"/>
<path d="M240 1240 l0 -40 80 0 80 0 0 40 0 40 -80 0 -80 0 0 -40z m140 0 c0
-18 -7 -20 -60 -20 -53 0 -60 2 -60 20 0 18 7 20 60 20 53 0 60 -2 60 -20z"/>
<path d="M1840 1240 l0 -40 80 0 80 0 0 40 0 40 -80 0 -80 0 0 -40z m140 0 c0
-18 -7 -20 -60 -20 -53 0 -60 2 -60 20 0 18 7 20 60 20 53 0 60 -2 60 -20z"/>
<path d="M800 1080 l0 -40 -400 0 c-260 0 -400 -3 -400 -10 0 -7 143 -10 410
-10 l410 0 0 40 c0 33 3 40 20 40 17 0 20 -7 20 -40 l0 -40 260 0 260 0 0 40
c0 33 3 40 20 40 17 0 20 -7 20 -40 l0 -40 300 0 300 0 0 40 c0 33 3 40 20 40
17 0 20 -7 20 -40 l0 -40 250 0 c160 0 250 4 250 10 0 6 -87 10 -240 10 l-240
0 0 40 0 40 -40 0 -40 0 0 -40 0 -40 -280 0 -280 0 0 40 0 40 -40 0 -40 0 0
-40 0 -40 -240 0 -240 0 0 40 0 40 -40 0 -40 0 0 -40z"/>
</g>
</svg>
