<?xml version="1.0" standalone="no"?>
<!DOCTYPE svg PUBLIC "-//W3C//DTD SVG 20010904//EN"
 "http://www.w3.org/TR/2001/REC-SVG-20010904/DTD/svg10.dtd">
<svg version="1.0" xmlns="http://www.w3.org/2000/svg"
 width="100.000000pt" height="100.000000pt" viewBox="0 0 100.000000 100.000000"
 preserveAspectRatio="xMidYMid meet">
<metadata>
Created by potrace 1.16, written by Peter Selinger 2001-2019
</metadata>
<g transform="translate(0.000000,100.000000) scale(0.100000,-0.100000)"
fill="#000000" stroke="none">
<path d="M6 984 c-9 -23 -8 -27 9 -20 13 5 15 -25 15 -229 0 -204 -2 -234 -15
-229 -10 4 -15 0 -15 -15 0 -16 6 -21 25 -21 l25 0 0 265 c0 253 -1 265 -19
265 -10 0 -22 -7 -25 -16z"/>
<path d="M115 987 c-12 -15 -19 -56 -19 -122 0 -88 12 -122 60 -170 24 -25 41
-45 38 -45 -4 0 3 -8 14 -19 12 -10 22 -21 22 -25 0 -3 -29 -6 -65 -6 l-65 0
0 -65 0 -65 83 0 c81 0 84 1 96 27 7 15 11 62 10 112 -1 69 -5 89 -20 102 -10
9 -16 19 -12 23 3 3 -2 6 -12 6 -14 0 -15 3 -5 15 10 12 9 15 -5 15 -10 0 -16
3 -12 6 6 7 -17 34 -29 34 -9 0 -44 41 -44 52 0 4 32 8 70 8 l70 0 0 65 c0 52
-3 65 -15 65 -13 0 -15 -7 -10 -34 13 -65 2 -76 -71 -76 -64 0 -64 0 -64 -29
0 -19 13 -42 40 -72 22 -24 40 -48 40 -53 0 -5 8 -16 18 -25 11 -9 24 -26 30
-38 15 -28 15 -125 0 -158 -10 -23 -16 -25 -75 -25 l-63 0 0 30 0 30 65 0 65
0 0 45 c0 37 -6 51 -34 82 -63 69 -76 86 -76 100 0 7 -4 13 -10 13 -17 0 -12
146 5 164 8 8 15 22 15 30 0 19 -21 20 -35 3z m115 -407 c0 -6 -25 -9 -57 -8
l-58 1 55 7 c30 4 56 7 58 8 1 1 2 -2 2 -8z"/>
<path d="M330 783 c0 -228 9 -293 38 -293 15 0 15 -2 2 -10 -10 -7 6 -10 55
-10 49 0 65 3 55 10 -12 8 -11 10 6 10 15 0 24 8 29 28 9 37 19 426 11 457
-17 67 -25 7 -28 -205 l-3 -230 -27 -25 c-34 -31 -46 -31 -83 1 l-30 26 -3
229 c-2 127 -8 229 -13 229 -5 0 -9 -94 -9 -217z"/>
<path d="M360 806 c0 -107 3 -201 6 -210 9 -23 109 -23 118 0 11 27 7 404 -4
404 -6 0 -10 -68 -10 -184 0 -101 -3 -191 -6 -200 -4 -10 -18 -16 -41 -16 -20
0 -32 4 -28 10 3 6 1 10 -4 10 -6 0 -10 3 -10 8 7 41 -3 372 -11 372 -6 0 -10
-71 -10 -194z"/>
<path d="M558 935 l-3 -65 73 0 c75 0 85 -6 53 -30 -11 -7 -18 -17 -15 -22 3
-4 0 -8 -6 -8 -6 0 -9 -4 -6 -8 3 -5 -4 -15 -15 -22 -10 -8 -19 -20 -19 -27 0
-7 -5 -13 -11 -13 -5 0 -7 -4 -4 -10 3 -5 1 -10 -5 -10 -6 0 -8 -4 -5 -10 3
-5 2 -10 -3 -10 -33 0 -55 -150 -30 -205 11 -24 14 -25 105 -25 l94 0 -3 65
-3 65 -65 -2 c-60 -1 -61 -2 -15 -5 75 -6 81 -23 7 -23 -56 0 -62 2 -62 20 0
12 11 32 24 45 14 13 27 34 31 45 3 11 13 20 21 20 8 0 13 4 10 9 -4 5 -2 11
4 13 5 1 19 30 31 63 16 46 20 75 16 122 -4 55 -21 93 -41 93 -10 0 -6 -36 5
-47 15 -15 14 -116 -2 -155 -14 -34 -20 -43 -54 -81 -48 -54 -65 -87 -65 -127
l0 -40 65 0 65 0 0 -30 0 -30 -61 0 c-51 0 -65 4 -80 22 -35 39 -18 128 35
185 14 15 26 33 26 40 0 6 6 18 13 25 36 38 57 74 57 99 l0 29 -70 0 -70 0 0
55 c0 77 -18 69 -22 -10z"/>
<path d="M794 975 c-3 -14 -4 -117 -2 -228 5 -205 14 -257 45 -257 8 0 11 -4
8 -10 -9 -15 94 -12 109 3 33 32 36 58 36 286 l0 231 -25 0 -25 0 0 -175 c0
-196 -7 -225 -52 -225 l-28 0 0 184 c0 181 -3 216 -21 216 -10 0 -12 -340 -3
-389 6 -30 8 -31 60 -31 30 0 55 1 56 3 1 1 5 90 8 197 l6 195 2 -207 c1 -129
-2 -216 -9 -230 -12 -28 -71 -58 -77 -40 -2 7 -10 12 -18 12 -7 0 -21 16 -29
36 -12 29 -15 81 -15 245 0 130 -4 209 -10 209 -5 0 -12 -11 -16 -25z"/>
<path d="M281 263 c-6 -31 -11 -70 -10 -87 1 -30 1 -30 9 -6 l8 25 2 -25 c2
-24 2 -24 11 5 5 19 5 31 -3 36 -7 5 -9 24 -4 58 9 68 2 65 -13 -6z"/>
<path d="M336 288 c-12 -53 -17 -187 -7 -158 5 14 9 37 10 53 1 15 6 27 12 27
7 0 8 -14 4 -42 -4 -24 -4 -40 0 -36 6 5 9 15 15 53 1 6 6 -1 11 -15 8 -22 8
-22 3 5 -3 17 -5 53 -5 80 1 37 -1 46 -9 35 -5 -8 -10 -25 -10 -37 0 -13 -4
-23 -10 -23 -6 0 -7 18 -3 45 7 52 -1 61 -11 13z"/>
<path d="M240 300 c-7 -21 -10 -170 -3 -170 5 0 10 21 12 46 1 25 6 57 12 71
5 14 7 28 4 31 -3 3 -5 -1 -6 -9 -1 -8 -5 -3 -9 11 -4 14 -9 23 -10 20z"/>
<path d="M562 273 c-13 -34 -23 -183 -13 -183 4 0 8 17 9 38 2 20 7 66 13 101
11 70 7 87 -9 44z"/>
<path d="M681 233 c1 -52 3 -62 10 -43 7 20 8 17 6 -17 -1 -24 1 -43 5 -43 5
0 8 23 8 50 0 28 -4 50 -10 50 -5 0 -10 8 -10 18 0 15 2 15 11 2 9 -12 10 -12
5 3 -3 10 -6 25 -6 33 0 8 -4 14 -10 14 -6 0 -10 -29 -9 -67z"/>
<path d="M770 246 c0 -29 -2 -69 -5 -87 -4 -27 -3 -29 3 -9 l8 25 8 -24 8 -24
13 23 13 24 5 -24 c3 -17 5 -10 7 20 l3 45 7 -35 7 -35 2 43 c1 40 0 42 -29
42 -29 0 -41 -15 -18 -22 8 -3 8 -9 1 -23 -10 -16 -12 -12 -18 28 -4 26 -5 56
-2 67 3 11 1 20 -4 20 -5 0 -9 -24 -9 -54z"/>
<path d="M659 250 c-7 -35 -4 -48 7 -38 3 4 4 21 2 40 l-3 33 -6 -35z"/>
<path d="M301 244 c0 -11 3 -14 6 -6 3 7 2 16 -1 19 -3 4 -6 -2 -5 -13z"/>
<path d="M441 225 c-3 -37 -4 -38 -12 -15 -6 17 -7 6 -4 -37 4 -52 2 -63 -11
-63 -35 0 -55 -50 -38 -94 15 -40 64 1 64 54 0 10 7 26 17 35 11 12 13 19 5
24 -6 3 -13 36 -15 71 -2 46 -4 53 -6 25z m-21 -160 c0 -14 -5 -25 -11 -25 -5
0 -7 -4 -4 -10 3 -5 2 -10 -3 -10 -14 0 -25 34 -13 38 6 2 11 10 11 18 0 8 5
14 10 14 6 0 10 -11 10 -25z"/>
<path d="M586 238 c-9 -34 -7 -108 2 -108 5 0 9 29 9 65 0 36 -1 65 -2 65 -2
0 -5 -10 -9 -22z"/>
<path d="M624 245 c3 -8 -1 -20 -8 -28 -10 -9 -11 -24 -6 -53 l8 -39 1 43 c0
23 6 42 11 42 6 0 10 11 10 25 0 14 -5 25 -11 25 -6 0 -9 -7 -5 -15z"/>
<path d="M726 238 c-9 -37 -7 -88 5 -88 6 0 8 9 4 20 -4 11 -2 20 4 20 6 0 10
15 8 35 -2 40 -12 46 -21 13z"/>
<path d="M790 250 c0 -5 5 -10 10 -10 6 0 10 5 10 10 0 6 -4 10 -10 10 -5 0
-10 -4 -10 -10z"/>
<path d="M820 256 c0 -2 7 -6 15 -10 8 -3 15 -1 15 4 0 6 -7 10 -15 10 -8 0
-15 -2 -15 -4z"/>
<path d="M864 243 c-1 -10 -4 -48 -7 -85 -4 -51 -2 -68 7 -68 8 0 13 19 14 58
2 31 5 69 8 85 4 19 2 27 -8 27 -8 0 -14 -8 -14 -17z"/>
<path d="M906 223 c-8 -53 -7 -93 2 -93 5 0 9 6 9 13 0 6 3 36 6 65 7 59 -7
72 -17 15z"/>
<path d="M936 211 c-3 -27 -4 -56 0 -65 11 -30 24 -17 26 27 l1 42 7 -45 7
-45 3 45 3 45 7 -35 7 -35 2 43 c1 39 -1 42 -24 42 -14 0 -25 5 -25 11 0 5 4
7 10 4 5 -3 18 -1 27 4 15 9 13 10 -13 11 -30 0 -32 -2 -38 -49z"/>
<path d="M466 200 c-8 -44 -8 -50 5 -50 5 0 8 3 6 8 -3 4 -1 16 4 27 7 17 8
17 8 -7 1 -16 5 -28 10 -28 10 0 25 69 17 78 -3 3 -6 -6 -7 -19 l-1 -24 -8 25
c-4 14 -9 18 -9 10 -1 -12 -3 -12 -10 -2 -6 10 -10 4 -15 -18z"/>
<path d="M651 180 c0 -14 4 -32 9 -40 8 -12 10 -12 9 5 0 11 -4 29 -9 40 -8
18 -9 18 -9 -5z"/>
<path d="M517 157 c-4 -10 -7 -26 -7 -35 1 -15 2 -15 11 1 6 10 9 25 7 35 -3
16 -4 15 -11 -1z"/>
</g>
</svg>
