<?xml version="1.0" standalone="no"?>
<!DOCTYPE svg PUBLIC "-//W3C//DTD SVG 20010904//EN"
 "http://www.w3.org/TR/2001/REC-SVG-20010904/DTD/svg10.dtd">
<svg version="1.0" xmlns="http://www.w3.org/2000/svg"
 width="192.000000pt" height="192.000000pt" viewBox="0 0 192.000000 192.000000"
 preserveAspectRatio="xMidYMid meet">
<metadata>
Created by potrace 1.16, written by Peter Selinger 2001-2019
</metadata>
<g transform="translate(0.000000,192.000000) scale(0.100000,-0.100000)"
fill="#000000" stroke="none">
<path d="M95 1118 c-3 -8 -4 -83 -3 -168 l3 -155 70 0 70 0 0 165 0 165 -68 3
c-49 2 -69 -1 -72 -10z m120 -157 l0 -144 -50 0 -50 0 -3 134 c-1 73 0 139 3
147 3 9 19 12 52 10 l48 -3 0 -144z"/>
<path d="M300 1123 c-36 -13 -50 -36 -50 -83 0 -55 11 -67 89 -104 l55 -25
-65 -3 -64 -3 -3 -57 -3 -58 166 0 c196 0 224 9 225 70 1 24 2 23 15 -7 23
-54 60 -65 197 -61 l120 3 29 33 30 33 -3 132 -3 132 -70 0 -70 0 -5 -105 -5
-105 -35 0 -35 0 -5 95 c-3 52 -9 101 -13 108 -12 18 -126 16 -133 -3 -4 -8
-10 -15 -15 -15 -5 0 -9 7 -9 15 0 13 -24 15 -162 14 -90 0 -170 -3 -178 -6z
m318 -49 l-3 -37 -112 2 c-109 2 -146 -9 -86 -24 41 -10 174 -73 195 -92 24
-22 23 -66 -3 -89 -18 -17 -40 -19 -176 -22 l-154 -3 3 38 3 38 117 -1 c120
-2 137 5 70 27 -53 17 -164 70 -184 87 -37 31 -15 92 37 105 11 2 82 5 158 6
l138 1 -3 -36z m162 -74 l5 -105 62 -3 62 -3 3 108 3 108 50 0 50 0 0 -117 c0
-155 -5 -161 -143 -169 -176 -10 -192 4 -192 167 0 61 3 114 7 118 4 4 25 6
48 4 l40 -3 5 -105z m-130 -17 l0 -56 -22 21 c-13 11 -43 30 -68 41 l-45 21
58 0 c42 0 59 4 63 15 11 27 14 16 14 -42z"/>
<path d="M1064 1116 c-3 -7 -4 -33 -2 -57 l3 -44 65 -5 65 -5 -48 -19 c-80
-32 -97 -50 -97 -105 0 -81 11 -85 216 -89 l174 -3 6 31 c6 29 7 29 20 12 24
-35 66 -44 189 -40 l117 3 29 33 30 33 -3 132 -3 132 -70 0 -70 0 -5 -105 -5
-105 -35 0 -35 0 -5 95 c-3 52 -9 101 -13 108 -12 18 -126 16 -133 -2 -5 -12
-9 -12 -32 0 -39 20 -350 20 -358 0z m345 -30 c26 -23 27 -67 3 -89 -22 -20
-187 -97 -207 -97 -8 0 -15 -4 -15 -10 0 -6 45 -10 115 -10 l115 0 0 -35 0
-35 -135 0 c-182 0 -228 19 -211 86 6 21 25 34 100 69 52 24 105 47 120 51 56
14 21 21 -91 20 -116 -1 -118 -1 -121 22 -8 52 -4 54 157 50 130 -3 152 -5
170 -22z m159 -66 c3 -133 2 -130 72 -130 68 0 62 -14 64 130 l1 85 50 0 50 0
0 -117 c0 -155 -5 -161 -143 -169 -176 -10 -192 4 -192 167 0 61 3 114 7 118
4 4 25 6 48 4 l40 -3 3 -85z m-128 -77 l0 -38 -62 4 -63 4 52 23 c28 12 54 28
58 33 11 19 15 12 15 -26z"/>
</g>
</svg>
