<?xml version="1.0" standalone="no"?>
<!DOCTYPE svg PUBLIC "-//W3C//DTD SVG 20010904//EN"
 "http://www.w3.org/TR/2001/REC-SVG-20010904/DTD/svg10.dtd">
<svg version="1.0" xmlns="http://www.w3.org/2000/svg"
 width="100.000000pt" height="100.000000pt" viewBox="0 0 100.000000 100.000000"
 preserveAspectRatio="xMidYMid meet">
<metadata>
Created by potrace 1.16, written by Peter Selinger 2001-2019
</metadata>
<g transform="translate(0.000000,100.000000) scale(0.100000,-0.100000)"
fill="#000000" stroke="none">
<path d="M130 500 l0 -440 370 0 370 0 0 345 0 345 -27 0 c-25 -1 -26 -2 -10
-14 20 -15 22 -32 5 -39 -10 -4 -10 -6 0 -6 6 -1 12 -12 12 -26 0 -24 -2 -26
-37 -19 -21 4 -43 14 -50 23 -11 14 -12 14 -13 -4 0 -19 -6 -20 -85 -17 -76 3
-85 5 -85 23 0 12 7 19 20 19 11 0 20 -4 20 -10 0 -5 25 -10 55 -10 30 0 55 5
55 10 0 6 -25 10 -55 10 l-55 0 0 60 0 60 35 0 c32 0 35 -2 35 -30 0 -26 4
-30 28 -30 23 1 25 2 11 13 -8 7 -18 20 -22 30 -5 13 -1 17 18 17 24 0 25 -3
25 -60 l0 -60 30 0 30 0 0 60 0 60 -30 0 c-27 0 -30 3 -30 30 0 27 -3 30 -30
30 -28 0 -30 3 -30 35 l0 35 -280 0 -280 0 0 -440z m430 408 c0 -23 0 -23
-155 -20 -126 2 -155 6 -155 17 0 12 29 15 153 18 83 1 153 4 155 5 1 1 2 -8
2 -20z m-370 -8 c0 -13 -7 -20 -20 -20 -13 0 -20 7 -20 20 0 13 7 20 20 20 13
0 20 -7 20 -20z m40 5 c0 -8 -4 -15 -10 -15 -5 0 -10 7 -10 15 0 8 5 15 10 15
6 0 10 -7 10 -15z m390 0 c0 -8 -9 -15 -20 -15 -11 0 -20 7 -20 15 0 8 9 15
20 15 11 0 20 -7 20 -15z m50 0 c0 -8 -7 -15 -15 -15 -8 0 -15 7 -15 15 0 8 7
15 15 15 8 0 15 -7 15 -15z m-498 -397 c-2 -237 1 -365 8 -372 18 -18 12 -56
-10 -56 -20 0 -20 7 -20 395 0 309 3 395 13 395 9 0 11 -78 9 -362z m518 338
c0 -19 -4 -22 -25 -18 -14 2 -25 8 -25 13 0 5 -4 9 -10 9 -5 0 -10 -7 -10 -15
0 -8 -4 -15 -10 -15 -5 0 -10 -16 -10 -35 0 -21 -5 -35 -13 -35 -8 0 -11 14
-8 46 2 25 -2 51 -8 57 -8 8 -11 -20 -11 -106 l0 -117 125 0 125 0 0 -250 0
-250 -310 0 -310 0 0 370 0 370 250 0 250 0 0 -24z m40 -6 c0 -5 -4 -10 -10
-10 -5 0 -10 5 -10 10 0 6 5 10 10 10 6 0 10 -4 10 -10z m60 -60 c0 -5 -4 -10
-10 -10 -5 0 -10 5 -10 10 0 6 5 10 10 10 6 0 10 -4 10 -10z m0 -50 c0 -11 -4
-20 -9 -20 -5 0 -11 9 -14 20 -3 13 0 20 9 20 8 0 14 -9 14 -20z m-190 -10 c0
-5 -4 -10 -10 -10 -5 0 -10 5 -10 10 0 6 5 10 10 10 6 0 10 -4 10 -10z m250
-365 c0 -268 0 -275 -20 -275 -15 0 -20 7 -20 24 0 14 5 28 10 31 6 4 10 98
10 251 0 156 4 244 10 244 6 0 10 -98 10 -275z m-620 -260 c0 -8 -4 -15 -10
-15 -5 0 -10 7 -10 15 0 8 5 15 10 15 6 0 10 -7 10 -15z m520 0 c0 -13 -34
-15 -250 -15 -216 0 -250 2 -250 15 0 13 34 15 250 15 216 0 250 -2 250 -15z
m40 0 c0 -8 -4 -15 -10 -15 -5 0 -10 7 -10 15 0 8 5 15 10 15 6 0 10 -7 10
-15z"/>
<path d="M230 841 c0 -6 5 -13 10 -16 6 -3 10 1 10 9 0 9 -4 16 -10 16 -5 0
-10 -4 -10 -9z"/>
<path d="M210 801 c0 -5 4 -11 9 -13 5 -1 12 -50 15 -107 4 -58 9 -107 11
-110 3 -2 5 50 5 117 0 115 -1 122 -20 122 -11 0 -20 -4 -20 -9z"/>
<path d="M270 801 c0 -5 47 -9 105 -9 58 0 108 4 111 9 3 5 -44 9 -105 9 -61
0 -111 -4 -111 -9z"/>
<path d="M500 750 c0 -56 2 -60 23 -60 19 1 20 2 5 10 -19 11 -18 82 1 88 19
6 12 22 -9 22 -18 0 -20 -7 -20 -60z"/>
<path d="M467 684 c12 -3 24 -13 27 -22 3 -12 4 -11 3 3 -2 14 -10 21 -27 22
-21 1 -21 1 -3 -3z"/>
<path d="M335 624 c71 -8 165 -8 165 -1 0 4 -44 6 -97 5 -54 0 -84 -3 -68 -4z"/>
<path d="M518 623 c7 -3 16 -2 19 1 4 3 -2 6 -13 5 -11 0 -14 -3 -6 -6z"/>
<path d="M551 594 c0 -11 3 -14 6 -6 3 7 2 16 -1 19 -3 4 -6 -2 -5 -13z"/>
<path d="M751 594 c0 -11 3 -14 6 -6 3 7 2 16 -1 19 -3 4 -6 -2 -5 -13z"/>
<path d="M237 540 c3 -11 7 -20 9 -20 2 0 4 9 4 20 0 11 -4 20 -9 20 -5 0 -7
-9 -4 -20z"/>
<path d="M540 548 c30 -5 90 -8 133 -6 63 3 77 0 78 -12 0 -10 2 -11 6 -2 2 6
11 12 19 12 8 0 14 5 14 10 0 6 -57 10 -152 9 -131 -1 -145 -3 -98 -11z"/>
<path d="M278 493 c7 -3 16 -2 19 1 4 3 -2 6 -13 5 -11 0 -14 -3 -6 -6z"/>
<path d="M378 373 c67 -2 177 -2 245 0 67 1 12 3 -123 3 -135 0 -190 -2 -122
-3z"/>
<path d="M250 241 c0 -4 11 -6 25 -3 14 2 25 6 25 8 0 2 -11 4 -25 4 -14 0
-25 -4 -25 -9z"/>
<path d="M700 246 c0 -2 11 -6 25 -8 14 -3 25 -1 25 3 0 5 -11 9 -25 9 -14 0
-25 -2 -25 -4z"/>
<path d="M250 199 c0 -5 107 -9 250 -9 143 0 250 4 250 9 0 5 -107 9 -250 9
-143 0 -250 -4 -250 -9z"/>
<path d="M218 193 c7 -3 16 -2 19 1 4 3 -2 6 -13 5 -11 0 -14 -3 -6 -6z"/>
<path d="M768 193 c7 -3 16 -2 19 1 4 3 -2 6 -13 5 -11 0 -14 -3 -6 -6z"/>
<path d="M640 740 c0 -5 7 -10 15 -10 8 0 15 5 15 10 0 6 -7 10 -15 10 -8 0
-15 -4 -15 -10z"/>
<path d="M132 20 c0 -14 2 -19 5 -12 2 6 2 18 0 25 -3 6 -5 1 -5 -13z"/>
<path d="M190 20 c0 -11 5 -20 10 -20 6 0 10 9 10 20 0 11 -4 20 -10 20 -5 0
-10 -9 -10 -20z"/>
<path d="M790 20 c0 -11 5 -20 10 -20 6 0 10 9 10 20 0 11 -4 20 -10 20 -5 0
-10 -9 -10 -20z"/>
<path d="M862 20 c0 -14 2 -19 5 -12 2 6 2 18 0 25 -3 6 -5 1 -5 -13z"/>
</g>
</svg>
