<?xml version="1.0" standalone="no"?>
<!DOCTYPE svg PUBLIC "-//W3C//DTD SVG 20010904//EN"
 "http://www.w3.org/TR/2001/REC-SVG-20010904/DTD/svg10.dtd">
<svg version="1.0" xmlns="http://www.w3.org/2000/svg"
 width="190.000000pt" height="190.000000pt" viewBox="0 0 190.000000 190.000000"
 preserveAspectRatio="xMidYMid meet">
<metadata>
Created by potrace 1.16, written by Peter Selinger 2001-2019
</metadata>
<g transform="translate(0.000000,190.000000) scale(0.100000,-0.100000)"
fill="#000000" stroke="none">
<path d="M490 1406 c7 -7 13 -7 20 0 6 6 3 10 -10 10 -13 0 -16 -4 -10 -10z"/>
<path d="M1126 1411 c8 -8 43 -8 38 0 -2 4 -13 7 -24 6 -10 -1 -17 -3 -14 -6z"/>
<path d="M1285 1410 c-3 -5 -1 -10 4 -10 6 0 11 5 11 10 0 6 -2 10 -4 10 -3 0
-8 -4 -11 -10z"/>
<path d="M1350 1409 c0 -5 5 -7 10 -4 6 3 10 8 10 11 0 2 -4 4 -10 4 -5 0 -10
-5 -10 -11z"/>
<path d="M538 1403 c7 -3 16 -2 19 1 4 3 -2 6 -13 5 -11 0 -14 -3 -6 -6z"/>
<path d="M343 1368 c15 -5 30 -20 33 -33 3 -12 4 -186 2 -386 -3 -389 -4 -395
-56 -442 -23 -21 -80 -32 -116 -23 -30 7 -86 53 -86 71 0 7 9 15 20 18 11 3
25 17 31 31 24 52 -26 105 -81 84 -31 -12 -40 -25 -40 -61 0 -87 116 -177 229
-177 48 0 134 37 169 72 61 64 62 72 62 460 0 194 4 358 8 364 4 6 21 16 37
22 24 8 3 10 -105 10 -102 0 -128 -2 -107 -10z m143 -375 c-1 -389 0 -382 -60
-445 -25 -28 -70 -42 -47 -15 18 23 19 50 20 440 l1 377 44 0 43 0 -1 -357z
m-351 -347 c16 -11 16 -15 4 -32 -19 -26 -41 -29 -56 -8 -8 12 -9 22 -2 35 12
22 28 24 54 5z"/>
<path d="M1128 1366 l32 -15 0 -436 0 -436 -32 -15 c-30 -14 -18 -15 152 -10
256 7 366 36 453 121 73 71 107 175 107 327 0 261 -91 390 -317 449 -103 27
-450 40 -395 15z m327 -27 c151 -27 217 -107 245 -299 20 -136 4 -309 -37
-401 -46 -102 -143 -153 -306 -161 l-57 -3 0 438 c0 240 0 439 0 441 0 5 85
-3 155 -15z m-185 -424 l0 -435 -41 0 c-24 0 -38 4 -34 10 3 6 3 10 -2 10 -5
0 -8 731 -3 848 0 1 18 2 40 2 l40 0 0 -435z m456 285 c13 -14 28 -37 35 -52
6 -16 15 -28 19 -28 3 0 7 -6 7 -12 1 -7 9 -47 18 -88 29 -131 5 -293 -58
-379 -19 -26 -41 -45 -54 -46 -16 -1 -19 2 -12 14 37 65 43 107 43 301 0 175
-2 201 -22 259 -12 36 -30 74 -40 85 -22 28 33 -19 64 -54z"/>
<path d="M1611 1203 c7 -12 15 -20 18 -17 3 2 -3 12 -13 22 -17 16 -18 16 -5
-5z"/>
<path d="M1621 663 c-10 -26 -10 -27 4 -9 8 11 15 23 15 28 0 15 -7 8 -19 -19z"/>
<path d="M1527 599 c7 -7 15 -10 18 -7 3 3 -2 9 -12 12 -14 6 -15 5 -6 -5z"/>
<path d="M1450 530 c0 -5 5 -10 11 -10 5 0 7 5 4 10 -3 6 -8 10 -11 10 -2 0
-4 -4 -4 -10z"/>
<path d="M331 1304 c0 -11 3 -14 6 -6 3 7 2 16 -1 19 -3 4 -6 -2 -5 -13z"/>
<path d="M1710 1316 c0 -2 7 -7 16 -10 8 -3 12 -2 9 4 -6 10 -25 14 -25 6z"/>
<path d="M1774 1249 c-4 -7 -3 -9 4 -5 5 3 13 0 15 -6 4 -9 6 -10 6 -1 1 17
-16 25 -25 12z"/>
<path d="M713 1085 c-35 -15 -63 -60 -63 -100 0 -42 25 -89 118 -223 112 -160
106 -147 87 -175 -20 -31 -56 -47 -104 -47 -48 0 -84 27 -105 81 -19 48 -10
98 25 135 41 44 11 36 -34 -8 -79 -79 -83 -154 -12 -217 66 -58 151 -49 221
23 l40 43 23 -40 c27 -46 78 -72 127 -62 36 6 74 46 74 78 0 18 -2 18 -25 -7
-27 -29 -39 -31 -72 -13 -25 14 -268 362 -290 415 -33 80 45 145 116 95 18
-12 23 -13 19 -2 -12 36 -88 49 -145 24z m-21 -105 c2 -22 0 -40 -4 -40 -5 0
-8 18 -8 40 0 22 2 40 4 40 2 0 6 -18 8 -40z m23 -68 c-3 -3 -11 0 -18 7 -9
10 -8 11 6 5 10 -3 15 -9 12 -12z m64 -94 l22 -43 -23 29 c-20 26 -32 56 -23
56 2 0 13 -19 24 -42z m75 -109 c-3 -5 -10 -7 -15 -3 -5 3 -7 10 -3 15 3 5 10
7 15 3 5 -3 7 -10 3 -15z m-232 -106 c7 -9 7 -13 0 -13 -12 0 -22 25 -21 48 1
13 3 12 6 -3 3 -11 10 -26 15 -32z m283 38 c3 -5 2 -12 -3 -15 -5 -3 -9 1 -9
9 0 17 3 19 12 6z m70 -101 c16 -17 16 -20 3 -15 -9 4 -19 13 -22 21 -7 19 -2
18 19 -6z"/>
<path d="M1870 900 c0 -5 5 -10 10 -10 6 0 10 5 10 10 0 6 -4 10 -10 10 -5 0
-10 -4 -10 -10z"/>
<path d="M646 877 c3 -10 9 -15 12 -12 3 3 0 11 -7 18 -10 9 -11 8 -5 -6z"/>
<path d="M650 828 c0 -4 4 -8 9 -8 6 0 12 4 15 8 3 5 -1 9 -9 9 -8 0 -15 -4
-15 -9z"/>
<path d="M584 766 c-10 -8 -17 -16 -14 -19 3 -2 14 4 24 14 23 22 18 25 -10 5z"/>
<path d="M895 769 c-3 -3 3 -13 13 -20 9 -7 14 -9 10 -5 -4 5 -3 14 2 21 7 8
5 12 -6 12 -8 0 -17 -4 -19 -8z"/>
<path d="M990 772 c-31 -14 -64 -42 -57 -49 4 -3 13 -1 19 5 18 18 35 14 41
-8 4 -15 14 -20 36 -20 25 0 32 5 37 27 10 40 -31 65 -76 45z m50 -28 c0 -8
-19 -13 -24 -6 -3 5 1 9 9 9 8 0 15 -2 15 -3z"/>
<path d="M735 739 c-4 -6 -5 -12 -2 -15 2 -3 7 2 10 11 7 17 1 20 -8 4z"/>
<path d="M201 690 c0 -8 3 -21 8 -28 6 -11 10 -10 15 4 3 9 4 19 1 22 -3 3 -5
-1 -6 -9 0 -8 -4 -6 -9 6 -6 13 -9 15 -9 5z"/>
<path d="M336 685 c-9 -26 -7 -32 5 -12 6 10 9 21 6 23 -2 3 -7 -2 -11 -11z"/>
<path d="M950 681 c0 -6 4 -12 8 -15 5 -3 9 1 9 9 0 8 -4 15 -9 15 -4 0 -8 -4
-8 -9z"/>
<path d="M212 627 c-7 -8 -7 -18 -2 -27 6 -8 10 -10 11 -5 0 6 2 18 4 28 4 20
1 21 -13 4z"/>
<path d="M1813 626 c0 -8 5 -13 10 -9 5 3 6 -3 3 -15 -4 -11 -3 -23 2 -25 12
-8 9 40 -4 53 -8 8 -11 6 -11 -4z"/>
<path d="M809 628 c0 -2 -2 -11 -4 -21 -3 -15 -1 -16 11 -6 7 6 11 15 8 20 -5
9 -13 12 -15 7z"/>
<path d="M686 608 c3 -5 10 -6 15 -3 13 9 11 12 -6 12 -8 0 -12 -4 -9 -9z"/>
<path d="M1020 604 c12 -13 41 -13 40 1 0 5 -11 10 -25 11 -19 1 -22 -2 -15
-12z"/>
<path d="M5 600 c3 -5 8 -10 11 -10 2 0 4 5 4 10 0 6 -5 10 -11 10 -5 0 -7 -4
-4 -10z"/>
<path d="M531 580 c14 -31 19 -36 19 -24 0 6 -7 19 -16 30 -14 18 -14 18 -3
-6z"/>
<path d="M1801 584 c0 -11 3 -14 6 -6 3 7 2 16 -1 19 -3 4 -6 -2 -5 -13z"/>
<path d="M170 545 c0 -2 10 -10 23 -16 20 -11 21 -11 8 4 -13 16 -31 23 -31
12z"/>
<path d="M210 547 c0 -2 6 -10 14 -16 11 -9 16 -9 22 1 4 7 4 10 -1 6 -4 -4
-14 -3 -22 3 -7 6 -13 9 -13 6z"/>
<path d="M570 515 c7 -8 8 -15 3 -15 -5 0 -10 -7 -10 -15 0 -8 4 -15 9 -15 4
0 8 4 8 9 0 5 3 16 6 24 3 8 -2 17 -12 21 -14 5 -15 4 -4 -9z"/>
<path d="M1716 499 c-11 -11 -15 -19 -9 -19 12 0 38 28 32 34 -2 2 -13 -5 -23
-15z"/>
<path d="M880 489 c-13 -9 -13 -10 1 -6 9 3 23 0 30 -6 11 -10 11 -9 0 6 -7 9
-14 17 -15 17 0 0 -8 -5 -16 -11z"/>
<path d="M445 470 c-3 -6 1 -7 9 -4 18 7 21 14 7 14 -6 0 -13 -4 -16 -10z"/>
<path d="M937 469 c7 -7 15 -10 18 -7 3 3 -2 9 -12 12 -14 6 -15 5 -6 -5z"/>
<path d="M1636 472 c-2 -4 4 -8 14 -8 10 0 16 4 14 8 -3 4 -9 8 -14 8 -5 0
-11 -4 -14 -8z"/>
<path d="M1288 423 c7 -3 16 -2 19 1 4 3 -2 6 -13 5 -11 0 -14 -3 -6 -6z"/>
<path d="M1182 400 c-7 -11 -8 -20 -3 -20 9 0 24 30 18 36 -1 2 -8 -6 -15 -16z"/>
<path d="M1108 393 c7 -3 16 -2 19 1 4 3 -2 6 -13 5 -11 0 -14 -3 -6 -6z"/>
</g>
</svg>
