<?xml version="1.0" standalone="no"?>
<!DOCTYPE svg PUBLIC "-//W3C//DTD SVG 20010904//EN"
 "http://www.w3.org/TR/2001/REC-SVG-20010904/DTD/svg10.dtd">
<svg version="1.0" xmlns="http://www.w3.org/2000/svg"
 width="192.000000pt" height="192.000000pt" viewBox="0 0 192.000000 192.000000"
 preserveAspectRatio="xMidYMid meet">
<metadata>
Created by potrace 1.16, written by Peter Selinger 2001-2019
</metadata>
<g transform="translate(0.000000,192.000000) scale(0.100000,-0.100000)"
fill="#000000" stroke="none">
<path d="M523 1670 c-68 -41 -68 -40 -68 -381 0 -296 1 -309 21 -336 11 -15
38 -38 60 -51 38 -22 43 -22 334 -20 415 4 390 -22 390 405 0 322 -3 336 -69
380 -33 23 -39 23 -335 23 -281 0 -303 -1 -333 -20z m655 -20 c58 -36 62 -58
62 -366 0 -301 -4 -324 -58 -361 -24 -16 -56 -18 -312 -21 -320 -3 -332 -1
-378 68 -23 35 -23 35 -20 331 3 322 2 313 63 351 27 16 56 18 320 18 273 0
292 -1 323 -20z"/>
<path d="M729 1503 c-100 -51 -144 -155 -119 -279 10 -49 20 -66 64 -110 45
-44 61 -54 111 -64 183 -38 326 93 301 276 -23 167 -201 255 -357 177z m229
-30 c58 -33 94 -90 100 -158 6 -79 -4 -117 -45 -165 -89 -104 -242 -107 -330
-7 -41 47 -56 96 -51 167 11 158 184 245 326 163z"/>
<path d="M785 1436 c-17 -7 -45 -30 -63 -50 -28 -32 -32 -44 -32 -94 0 -101
59 -162 156 -162 168 0 221 226 70 299 -48 24 -88 26 -131 7z m142 -47 c78
-74 65 -173 -30 -222 -50 -26 -97 -17 -142 28 -65 65 -54 149 25 203 44 30
109 26 147 -9z"/>
<path d="M1345 1527 c-11 -5 -29 -21 -40 -36 -19 -24 -20 -42 -20 -251 0 -124
4 -238 8 -253 5 -20 20 -34 50 -47 37 -17 67 -20 241 -20 233 0 265 6 295 60
20 35 21 52 21 255 0 204 -1 219 -21 246 -39 56 -57 59 -296 58 -124 -1 -227
-6 -238 -12z m475 -22 c55 -28 60 -53 60 -275 0 -296 6 -290 -292 -290 -290 0
-287 -4 -287 285 -1 208 7 248 52 275 29 18 52 20 235 20 162 0 209 -3 232
-15z"/>
<path d="M1561 1406 c-8 -9 -11 -66 -9 -182 l3 -169 43 -3 42 -3 0 179 c0 155
-2 181 -16 186 -26 10 -51 7 -63 -8z m54 -172 c0 -148 -1 -159 -19 -159 -17 0
-18 11 -17 153 0 154 3 176 24 169 9 -3 12 -51 12 -163z"/>
<path d="M79 881 c-24 -19 -24 -21 -24 -221 l0 -202 29 -24 c28 -25 29 -25
221 -22 173 3 195 5 214 22 20 18 21 29 21 223 0 190 -1 204 -20 223 -19 19
-33 20 -219 20 -181 0 -201 -2 -222 -19z m431 -20 c6 -12 10 -98 10 -209 0
-164 -2 -191 -17 -203 -12 -11 -62 -15 -197 -17 -245 -4 -230 -18 -234 210 -4
192 -1 215 31 228 12 5 106 9 209 9 175 1 188 0 198 -18z"/>
<path d="M256 805 c-9 -25 -7 -258 3 -273 5 -8 22 -12 42 -10 l34 3 0 145 0
145 -36 3 c-26 2 -38 -1 -43 -13z m54 -135 c0 -109 -2 -130 -15 -130 -13 0
-15 21 -15 130 0 109 2 130 15 130 13 0 15 -21 15 -130z"/>
<path d="M1285 876 c-18 -18 -25 -36 -25 -63 l-1 -38 -14 32 c-7 17 -22 36
-34 42 -13 7 -116 11 -291 11 l-272 0 -29 -29 -29 -29 0 -271 0 -271 29 -32
29 -33 249 -3 c280 -4 313 1 343 51 17 27 20 51 20 155 l0 122 20 -20 c18 -18
33 -20 190 -20 225 0 210 -14 210 208 0 129 -3 173 -14 188 -13 17 -30 19
-185 22 l-171 3 -25 -25z m361 -20 c11 -15 14 -56 14 -168 0 -197 9 -188 -190
-188 -199 0 -190 -9 -190 185 0 143 1 146 25 171 25 25 26 25 176 22 135 -3
152 -5 165 -22z m-448 -34 c37 -33 42 -66 42 -300 0 -329 15 -315 -343 -310
l-229 3 -29 33 -29 32 0 251 0 251 29 29 29 29 255 0 c232 0 256 -2 275 -18z"/>
<path d="M881 712 c-13 -25 -13 -340 0 -364 8 -15 19 -18 47 -16 l37 3 3 175
c3 215 2 220 -43 220 -23 0 -38 -6 -44 -18z m64 -182 c0 -168 -1 -175 -20
-175 -19 0 -20 8 -23 165 -1 90 0 170 3 178 3 7 13 12 22 10 16 -3 18 -19 18
-178z"/>
<path d="M620 10 c0 -5 5 -10 11 -10 5 0 7 5 4 10 -3 6 -8 10 -11 10 -2 0 -4
-4 -4 -10z"/>
</g>
</svg>
