<?xml version="1.0" standalone="no"?>
<!DOCTYPE svg PUBLIC "-//W3C//DTD SVG 20010904//EN"
 "http://www.w3.org/TR/2001/REC-SVG-20010904/DTD/svg10.dtd">
<svg version="1.0" xmlns="http://www.w3.org/2000/svg"
 width="108.000000pt" height="108.000000pt" viewBox="0 0 108.000000 108.000000"
 preserveAspectRatio="xMidYMid meet">
<metadata>
Created by potrace 1.16, written by Peter Selinger 2001-2019
</metadata>
<g transform="translate(0.000000,108.000000) scale(0.100000,-0.100000)"
fill="#000000" stroke="none">
<path d="M255 768 c-8 -47 -9 -99 -3 -128 3 -14 3 -19 1 -12 -3 6 -8 12 -12
12 -7 0 -38 -114 -43 -160 -3 -24 -6 -25 -87 -28 -54 -2 -88 -8 -97 -17 -9 -9
-14 -36 -14 -78 l0 -65 148 -4 c113 -3 149 -1 155 9 4 7 14 13 21 13 8 0 27
15 42 33 l29 32 119 -3 c120 -4 143 2 132 34 -3 6 3 11 12 10 12 -1 19 10 23
34 4 19 7 27 8 17 2 -27 60 -80 82 -74 12 3 19 0 19 -9 0 -11 21 -14 100 -14
116 0 136 17 28 23 l-73 4 80 0 c102 0 115 6 115 50 0 20 -4 32 -10 28 -6 -3
-7 1 -4 10 4 9 -2 23 -15 34 -23 20 -29 81 -16 152 9 49 -8 82 -38 74 -18 -5
-19 -4 -7 5 11 9 12 13 3 17 -7 2 -13 11 -13 19 0 11 -20 14 -95 14 -78 0 -95
-3 -95 -15 0 -12 -20 -15 -119 -15 -66 0 -126 -3 -135 -6 -12 -4 -16 0 -16 15
0 20 -5 21 -110 21 l-109 0 -6 -32z m44 -5 c1 14 11 17 72 17 l71 0 -6 -27
c-4 -16 -9 -42 -12 -60 -2 -17 -11 -44 -19 -60 -8 -15 -15 -40 -15 -55 0 -25
-4 -28 -34 -28 -49 0 -96 -11 -90 -21 3 -5 27 -9 54 -9 57 0 67 -16 50 -79 -6
-22 -9 -43 -8 -48 2 -5 -7 -21 -19 -37 -13 -16 -23 -25 -23 -20 0 4 10 19 22
33 17 19 13 17 -12 -5 -19 -17 -44 -37 -55 -43 -19 -12 -19 -12 0 -6 11 3 16
3 12 -1 -7 -7 -268 -6 -276 1 -2 2 0 25 3 50 l7 45 93 0 c104 0 110 3 121 65
4 22 14 52 21 67 8 15 16 51 19 80 3 29 7 69 10 88 4 27 3 30 -4 15 -12 -24
-14 -2 -4 34 6 23 7 23 14 5 7 -16 8 -17 8 -1z m153 -47 l-10 -35 30 22 c25
19 45 22 139 25 118 4 115 6 103 -54 l-5 -29 -90 2 c-89 2 -89 1 -104 -27
l-15 -29 73 5 c39 3 86 7 104 9 29 3 33 0 44 -32 6 -19 7 -39 3 -43 -5 -5 -9
4 -10 21 -1 33 -12 49 -22 33 -6 -10 -270 -40 -278 -32 -1 2 1 21 6 43 5 22
11 58 14 80 12 78 20 110 24 93 2 -9 -1 -33 -6 -52z m446 39 c-5 -23 -2 -25
33 -25 22 0 39 -1 39 -3 0 -1 -4 -17 -10 -36 -6 -20 -6 -49 -1 -72 5 -23 5
-39 0 -39 -5 0 -9 14 -9 30 0 32 -4 35 -57 44 l-32 5 -6 -57 c-3 -31 -8 -69
-10 -84 l-4 -28 83 0 84 0 7 -30 c4 -16 4 -34 1 -39 -4 -5 -64 -10 -135 -10
-119 0 -131 2 -148 21 -10 12 -13 19 -8 16 6 -4 10 14 10 46 1 29 8 68 17 87
20 42 31 79 24 79 -2 0 -17 -5 -32 -10 -25 -10 -26 -9 -20 12 3 13 6 33 6 46
0 17 6 22 25 22 18 0 26 7 31 25 6 23 11 25 61 25 54 0 55 -1 51 -25z m-378
-15 c0 -5 -8 -10 -17 -10 -15 0 -16 2 -3 10 19 12 20 12 20 0z m158 3 c-27 -2
-69 -2 -95 0 -27 2 -5 3 47 3 52 0 74 -1 48 -3z m72 -113 c0 -5 -8 -10 -17
-10 -15 0 -16 2 -3 10 19 12 20 12 20 0z m131 -36 c-5 -21 -9 -30 -10 -19 -1
24 10 67 15 62 3 -2 0 -22 -5 -43z m-233 29 c-21 -2 -55 -2 -75 0 -21 2 -4 4
37 4 41 0 58 -2 38 -4z m-408 -83 c-7 -28 -14 -49 -16 -47 -3 2 1 27 8 55 6
29 13 50 16 47 2 -2 -1 -27 -8 -55z m690 56 c0 -2 -7 -7 -16 -10 -8 -3 -12 -2
-9 4 6 10 25 14 25 6z m38 -38 c-5 -15 -48 -24 -48 -10 0 14 12 22 33 22 10 0
17 -5 15 -12z m-268 -2 c0 -30 -16 -36 -99 -38 l-86 -1 65 -7 65 -7 -67 -1
c-45 -1 -68 2 -71 11 -3 7 -6 5 -6 -5 -1 -16 9 -18 75 -18 71 0 75 -1 70 -20
-3 -11 -8 -29 -11 -39 -5 -18 -17 -20 -112 -23 -58 -2 -110 1 -117 5 -7 6 -4
7 7 3 22 -7 22 -3 -5 20 -12 10 -18 14 -15 7 4 -6 3 -14 -2 -17 -4 -3 -8 14
-7 38 1 35 4 42 19 38 10 -3 17 1 17 11 0 17 108 31 201 26 34 -2 54 1 57 9 3
11 22 18 22 8z m17 -83 c-3 -10 -5 -4 -5 12 0 17 2 24 5 18 2 -7 2 -21 0 -30z
m251 30 c-21 -2 -57 -2 -80 0 -24 2 -7 4 37 4 44 0 63 -2 43 -4z m-306 -50
c-3 -16 -7 -22 -10 -15 -4 13 4 42 11 42 2 0 2 -12 -1 -27z m-510 -30 c-23 -2
-61 -2 -85 0 -23 2 -4 4 43 4 47 0 66 -2 42 -4z m441 -30 c-24 -2 -62 -2 -85
0 -24 2 -5 4 42 4 47 0 66 -2 43 -4z"/>
<path d="M320 750 c0 -5 5 -10 10 -10 6 0 10 5 10 10 0 6 -4 10 -10 10 -5 0
-10 -4 -10 -10z"/>
<path d="M351 756 c12 -10 59 -15 59 -6 0 5 -14 10 -32 10 -17 0 -29 -2 -27
-4z"/>
<path d="M310 710 c0 -5 23 -10 50 -10 28 0 50 5 50 10 0 6 -22 10 -50 10 -27
0 -50 -4 -50 -10z"/>
<path d="M40 379 c0 -5 5 -7 10 -4 6 3 10 8 10 11 0 2 -4 4 -10 4 -5 0 -10 -5
-10 -11z"/>
<path d="M30 338 c0 -5 44 -7 98 -6 100 1 88 5 -31 10 -37 2 -67 0 -67 -4z"/>
<path d="M573 703 c20 -2 54 -2 75 0 20 2 3 4 -38 4 -41 0 -58 -2 -37 -4z"/>
<path d="M780 718 c-35 -18 -35 -18 -7 -18 15 0 27 5 27 10 0 6 16 10 35 10
20 0 35 -5 35 -12 0 -6 3 -9 6 -5 12 11 -11 32 -36 32 -14 0 -41 -8 -60 -17z"/>
<path d="M760 558 c0 -14 45 -21 70 -11 12 4 11 7 -5 13 -31 13 -65 11 -65 -2z"/>
<path d="M971 454 c0 -11 3 -14 6 -6 3 7 2 16 -1 19 -3 4 -6 -2 -5 -13z"/>
<path d="M1002 440 c0 -14 2 -19 5 -12 2 6 2 18 0 25 -3 6 -5 1 -5 -13z"/>
<path d="M798 433 c7 -3 16 -2 19 1 4 3 -2 6 -13 5 -11 0 -14 -3 -6 -6z"/>
<path d="M838 433 c7 -3 16 -2 19 1 4 3 -2 6 -13 5 -11 0 -14 -3 -6 -6z"/>
<path d="M898 433 c7 -3 16 -2 19 1 4 3 -2 6 -13 5 -11 0 -14 -3 -6 -6z"/>
<path d="M493 433 c9 -2 23 -2 30 0 6 3 -1 5 -18 5 -16 0 -22 -2 -12 -5z"/>
<path d="M548 433 c7 -3 16 -2 19 1 4 3 -2 6 -13 5 -11 0 -14 -3 -6 -6z"/>
</g>
</svg>
