<?xml version="1.0" standalone="no"?>
<!DOCTYPE svg PUBLIC "-//W3C//DTD SVG 20010904//EN"
 "http://www.w3.org/TR/2001/REC-SVG-20010904/DTD/svg10.dtd">
<svg version="1.0" xmlns="http://www.w3.org/2000/svg"
 width="192.000000pt" height="192.000000pt" viewBox="0 0 192.000000 192.000000"
 preserveAspectRatio="xMidYMid meet">
<metadata>
Created by potrace 1.16, written by Peter Selinger 2001-2019
</metadata>
<g transform="translate(0.000000,192.000000) scale(0.100000,-0.100000)"
fill="#000000" stroke="none">
<path d="M356 1240 c-71 -65 -90 -126 -90 -280 0 -154 19 -215 90 -280 l45
-41 159 3 159 3 31 30 c133 126 133 444 0 570 l-31 30 -159 3 -159 3 -45 -41z
m171 -4 c-106 -91 -130 -354 -46 -492 16 -27 17 -33 5 -43 -12 -10 -20 -5 -46
30 -42 58 -60 127 -60 229 0 105 19 174 65 235 41 53 42 57 14 53 -12 -2 -35
-19 -50 -38 -98 -121 -98 -380 0 -500 18 -22 37 -35 52 -35 32 0 84 71 106
143 19 65 21 221 4 265 -10 27 2 77 19 77 10 0 38 -96 46 -157 7 -59 -8 -164
-33 -220 -10 -21 -18 -45 -19 -53 0 -8 -2 -21 -3 -29 0 -8 -7 -11 -17 -7 -22
8 -38 -3 -25 -18 8 -10 -3 -13 -50 -14 -75 -2 -109 16 -148 78 -45 71 -56 116
-55 225 1 107 14 157 58 221 39 58 71 74 144 72 l63 -2 -24 -20z m208 -18 c62
-63 87 -138 87 -258 0 -120 -25 -195 -87 -258 -42 -42 -43 -42 -109 -40 l-67
2 26 23 c100 94 124 325 49 475 -19 37 -21 48 -10 57 18 15 37 -8 73 -84 26
-55 28 -70 28 -175 0 -106 -2 -120 -29 -178 -16 -35 -40 -72 -54 -82 -21 -17
-22 -21 -8 -26 28 -11 63 23 98 93 32 66 33 71 33 194 0 124 0 127 -35 195
-22 43 -45 74 -63 84 -28 15 -29 14 -63 -24 -66 -76 -97 -215 -75 -339 11 -65
7 -117 -9 -117 -5 0 -17 24 -27 53 -28 79 -24 233 7 312 13 33 24 69 24 80 1
12 7 19 15 17 26 -5 44 7 32 21 -8 11 2 14 56 15 65 2 66 2 108 -40z m-178
-295 c-2 -21 -4 -4 -4 37 0 41 2 58 4 38 2 -21 2 -55 0 -75z"/>
<path d="M937 1164 c-14 -14 -7 -64 8 -64 13 0 15 -21 15 -130 0 -110 -2 -130
-15 -130 -9 0 -18 7 -21 15 -4 9 -19 15 -40 15 -30 0 -34 -3 -34 -25 0 -40 27
-84 58 -92 68 -18 151 -1 169 36 4 9 10 81 13 161 4 127 7 145 23 148 15 3 17
-9 17 -137 0 -121 -2 -141 -16 -141 -11 0 -14 -8 -12 -32 l3 -33 262 -3 263
-2 15 36 c8 20 15 47 15 60 0 20 -5 24 -30 24 -17 0 -39 -9 -51 -21 -11 -11
-28 -19 -37 -17 -15 3 -17 21 -20 136 -3 140 -1 145 43 116 16 -10 34 -14 50
-10 21 5 25 12 25 46 0 49 -3 50 -160 47 l-115 -2 -3 -29 c-2 -19 2 -32 12
-38 13 -7 16 -29 16 -118 0 -104 -1 -110 -20 -110 -12 0 -34 -10 -50 -22 -24
-17 -32 -19 -45 -8 -12 10 -15 37 -15 132 0 113 1 120 21 125 16 4 19 12 17
37 l-3 31 -176 3 c-96 1 -178 -1 -182 -4z m683 -45 c0 -12 -7 -19 -19 -19 -26
0 -36 17 -21 35 15 18 40 8 40 -16z m-515 11 c-3 -5 -12 -10 -20 -10 -11 0
-14 -31 -17 -151 l-3 -151 -28 -24 c-41 -35 -99 -33 -138 5 -31 32 -37 51 -15
51 7 0 16 -9 19 -20 4 -14 14 -20 34 -20 49 0 53 12 53 167 0 136 -1 143 -20
143 -11 0 -20 5 -20 10 0 6 34 10 81 10 51 0 78 -4 74 -10z m175 0 c0 -5 -9
-10 -20 -10 -20 0 -20 -5 -18 -152 l3 -153 42 -3 c32 -2 46 2 62 19 26 29 34
21 20 -19 l-11 -32 -119 0 c-73 0 -119 4 -119 10 0 6 9 10 20 10 19 0 20 7 20
160 0 133 -2 160 -14 160 -8 0 -18 5 -21 10 -4 6 23 10 74 10 47 0 81 -4 81
-10z m260 5 c0 -3 -11 -10 -25 -15 -25 -9 -25 -10 -25 -144 0 -74 3 -141 6
-150 10 -25 90 -22 106 4 22 34 37 25 24 -15 l-11 -35 -117 0 c-108 0 -149 10
-98 23 19 5 20 14 20 157 0 143 -1 152 -20 157 -45 12 -15 23 60 23 44 0 80
-2 80 -5z"/>
</g>
</svg>
