<?xml version="1.0" standalone="no"?>
<!DOCTYPE svg PUBLIC "-//W3C//DTD SVG 20010904//EN"
 "http://www.w3.org/TR/2001/REC-SVG-20010904/DTD/svg10.dtd">
<svg version="1.0" xmlns="http://www.w3.org/2000/svg"
 width="100.000000pt" height="100.000000pt" viewBox="0 0 100.000000 100.000000"
 preserveAspectRatio="xMidYMid meet">
<metadata>
Created by potrace 1.16, written by Peter Selinger 2001-2019
</metadata>
<g transform="translate(0.000000,100.000000) scale(0.100000,-0.100000)"
fill="#000000" stroke="none">
<path d="M230 980 c0 -16 -7 -20 -30 -20 -28 0 -30 -3 -30 -35 0 -32 -2 -35
-30 -35 -27 0 -30 -3 -30 -30 0 -28 -3 -30 -35 -30 l-35 0 0 -330 0 -330 35 0
c32 0 35 -2 35 -30 0 -27 3 -30 30 -30 28 0 30 -3 30 -35 0 -32 2 -35 30 -35
23 0 30 -4 30 -20 0 -11 5 -20 10 -20 6 0 10 13 10 30 0 27 -3 30 -30 30 -28
0 -30 3 -30 35 0 32 -2 35 -30 35 -27 0 -30 3 -30 30 0 28 -3 30 -35 30 l-35
0 0 310 0 310 35 0 c32 0 35 2 35 30 0 27 3 30 30 30 28 0 30 3 30 35 0 32 2
35 30 35 27 0 30 3 30 30 0 17 -4 30 -10 30 -5 0 -10 -9 -10 -20z"/>
<path d="M750 970 c0 -27 3 -30 30 -30 28 0 30 -3 30 -35 0 -32 2 -35 30 -35
27 0 30 -3 30 -30 0 -28 3 -30 35 -30 l35 0 0 -310 0 -310 -35 0 c-32 0 -35
-2 -35 -30 0 -27 -3 -30 -30 -30 -28 0 -30 -3 -30 -35 0 -32 -2 -35 -30 -35
-27 0 -30 -3 -30 -30 0 -17 5 -30 10 -30 6 0 10 9 10 20 0 16 7 20 30 20 28 0
30 3 30 35 0 32 2 35 30 35 27 0 30 3 30 30 0 28 3 30 35 30 l35 0 0 330 0
330 -35 0 c-32 0 -35 2 -35 30 0 27 -3 30 -30 30 -28 0 -30 3 -30 35 0 32 -2
35 -30 35 -23 0 -30 4 -30 20 0 11 -4 20 -10 20 -5 0 -10 -13 -10 -30z"/>
<path d="M88 743 c7 -3 16 -2 19 1 4 3 -2 6 -13 5 -11 0 -14 -3 -6 -6z"/>
<path d="M898 743 c7 -3 16 -2 19 1 4 3 -2 6 -13 5 -11 0 -14 -3 -6 -6z"/>
<path d="M88 253 c7 -3 16 -2 19 1 4 3 -2 6 -13 5 -11 0 -14 -3 -6 -6z"/>
<path d="M883 253 c9 -2 23 -2 30 0 6 3 -1 5 -18 5 -16 0 -22 -2 -12 -5z"/>
</g>
</svg>
