<?xml version="1.0" standalone="no"?>
<!DOCTYPE svg PUBLIC "-//W3C//DTD SVG 20010904//EN"
 "http://www.w3.org/TR/2001/REC-SVG-20010904/DTD/svg10.dtd">
<svg version="1.0" xmlns="http://www.w3.org/2000/svg"
 width="100.000000pt" height="100.000000pt" viewBox="0 0 100.000000 100.000000"
 preserveAspectRatio="xMidYMid meet">
<metadata>
Created by potrace 1.16, written by Peter Selinger 2001-2019
</metadata>
<g transform="translate(0.000000,100.000000) scale(0.100000,-0.100000)"
fill="#000000" stroke="none">
<path d="M0 800 c0 -6 35 -10 85 -10 l85 0 0 -260 0 -260 -85 0 c-50 0 -85 -4
-85 -10 0 -6 38 -10 95 -10 l95 0 0 270 0 270 90 0 90 0 0 -300 0 -300 -30 0
c-23 0 -30 -4 -30 -20 0 -19 -7 -20 -155 -20 -97 0 -155 -4 -155 -10 0 -7 173
-10 500 -10 327 0 500 3 500 10 0 6 -9 10 -20 10 -11 0 -20 5 -20 10 0 6 9 10
20 10 11 0 20 5 20 10 0 6 -13 10 -30 10 -23 0 -30 -4 -30 -20 0 -19 -7 -20
-220 -20 l-220 0 0 80 0 80 60 0 60 0 0 -30 0 -30 95 0 95 0 0 65 0 65 -60 0
-60 0 0 30 0 30 -65 0 -65 0 0 30 c0 27 -3 30 -30 30 l-30 0 0 125 0 125 30 0
c23 0 30 4 30 20 0 19 7 20 220 20 140 0 220 4 220 10 0 7 -173 10 -500 10
-327 0 -500 -3 -500 -10z m540 -19 c0 -5 -12 -11 -27 -13 l-28 -3 0 -140 0
-140 27 -3 c21 -3 27 -9 30 -30 3 -26 6 -27 65 -30 59 -3 62 -4 65 -30 3 -25
6 -27 61 -30 l57 -3 0 -44 0 -45 -74 0 c-74 0 -75 0 -78 28 -3 27 -4 27 -78
27 l-75 0 -3 -88 -3 -87 -74 0 c-72 0 -105 15 -47 22 l27 3 3 308 2 307 75 0
c41 0 75 -4 75 -9z"/>
<path d="M690 625 l0 -65 90 0 90 0 0 -30 0 -30 65 0 c37 0 65 4 65 10 0 6
-24 10 -54 10 -52 0 -55 1 -58 28 -3 27 -3 27 -90 30 l-88 3 0 44 0 45 69 0
c69 0 70 0 73 -27 3 -27 5 -28 76 -31 45 -2 72 1 72 8 0 6 -27 10 -65 10 l-65
0 0 30 0 30 -90 0 -90 0 0 -65z"/>
</g>
</svg>
