<?xml version="1.0" standalone="no"?>
<!DOCTYPE svg PUBLIC "-//W3C//DTD SVG 20010904//EN"
 "http://www.w3.org/TR/2001/REC-SVG-20010904/DTD/svg10.dtd">
<svg version="1.0" xmlns="http://www.w3.org/2000/svg"
 width="100.000000pt" height="100.000000pt" viewBox="0 0 100.000000 100.000000"
 preserveAspectRatio="xMidYMid meet">
<metadata>
Created by potrace 1.16, written by Peter Selinger 2001-2019
</metadata>
<g transform="translate(0.000000,100.000000) scale(0.100000,-0.100000)"
fill="#000000" stroke="none">
<path d="M60 500 c0 -327 3 -500 10 -500 6 0 10 27 10 60 l0 60 43 2 42 1 -45
6 -45 7 40 5 c56 8 85 -23 85 -92 0 -27 5 -49 10 -49 6 0 10 15 10 33 0 28 4
32 27 34 14 0 22 -2 17 -5 -17 -13 -16 -62 1 -62 8 0 15 7 15 15 0 10 10 15
30 15 20 0 30 -5 30 -15 0 -24 18 -18 22 7 3 20 10 23 68 26 104 5 83 12 -38
12 -75 0 -112 4 -112 11 0 6 7 9 15 5 8 -3 15 -1 15 4 0 6 -13 10 -30 10 -23
0 -30 4 -30 20 0 11 -7 20 -15 20 -12 0 -15 15 -15 75 l0 75 60 0 60 0 0 125
0 125 35 0 c19 0 35 5 35 11 0 6 -9 8 -20 4 -11 -4 -20 -2 -20 4 0 7 30 11 80
11 45 0 80 -4 80 -10 0 -5 -7 -7 -15 -4 -8 4 -15 1 -15 -5 0 -6 14 -11 30 -11
17 0 30 -5 30 -11 0 -6 -6 -9 -14 -6 -8 3 -16 1 -18 -5 -5 -15 -148 -13 -158
2 -5 9 -9 9 -14 1 -4 -6 -2 -11 3 -11 6 0 11 -19 11 -41 0 -37 2 -40 16 -28
11 9 18 9 22 2 4 -6 16 -13 27 -16 11 -2 1 -5 -22 -6 l-43 -1 0 -50 0 -50 65
0 65 0 0 50 c0 28 -4 50 -10 50 -5 0 -7 -7 -4 -15 4 -8 1 -15 -5 -15 -6 0 -11
14 -11 30 0 27 -3 30 -30 30 -20 0 -30 5 -30 15 0 11 12 15 46 15 40 0 46 -2
41 -19 -3 -14 0 -17 14 -14 13 4 19 14 19 34 0 26 4 29 30 29 27 0 30 3 30 30
0 20 5 30 15 30 8 0 15 7 15 15 0 12 14 15 65 15 51 0 65 -3 65 -15 0 -11 -12
-15 -45 -15 -33 0 -45 -4 -45 -15 0 -8 -9 -15 -20 -15 -18 0 -20 -7 -20 -60 0
-36 4 -60 11 -60 6 0 9 15 7 38 -3 32 0 37 19 40 12 2 30 -1 40 -7 16 -9 14
-10 -9 -11 -28 0 -28 -1 -28 -65 l0 -65 30 0 c21 0 30 5 30 16 0 12 -6 15 -25
10 -14 -4 -25 -2 -25 4 0 5 24 10 55 10 54 0 55 0 55 30 0 17 -5 30 -11 30 -6
0 -9 -6 -6 -13 3 -8 1 -20 -4 -28 -6 -10 -9 -7 -9 14 0 17 -5 27 -15 27 -10 0
-15 10 -15 30 0 27 -3 30 -30 30 -20 0 -30 5 -30 15 0 11 12 15 45 15 33 0 45
-4 45 -15 0 -8 6 -15 14 -15 8 0 17 -10 19 -22 2 -13 3 -6 1 15 -3 20 0 37 5
37 10 0 9 75 -1 86 -5 4 -8 2 -8 -4 0 -8 -7 -9 -22 -3 -13 5 -22 14 -21 20 3
13 -59 25 -90 17 -35 -8 -77 -49 -77 -74 0 -12 -4 -22 -10 -22 -5 0 -10 7 -10
15 0 12 -18 15 -100 15 -82 0 -100 -3 -100 -15 0 -8 -7 -15 -15 -15 -8 0 -15
-6 -15 -14 0 -8 -7 -16 -15 -20 -12 -4 -15 -24 -15 -91 0 -67 -3 -87 -15 -91
-26 -10 -16 -24 17 -24 39 0 32 -9 -10 -14 -29 -3 -32 -1 -33 23 0 25 0 26 -9
3 -5 -12 -12 -22 -15 -22 -3 0 -5 52 -5 115 0 74 4 115 11 115 5 0 8 -3 6 -7
-3 -5 -1 -26 3 -48 7 -36 8 -33 9 29 l1 68 31 -4 c23 -4 34 1 49 19 10 12 23
23 30 23 7 0 10 6 7 13 -3 9 6 11 36 8 37 -3 40 -2 28 13 -14 17 -16 17 72 19
15 1 27 7 27 14 0 9 14 13 41 13 24 0 38 4 34 10 -3 6 -18 7 -32 4 -22 -6 -25
-4 -20 10 4 10 7 24 7 32 0 9 4 13 10 9 5 -3 7 -12 3 -20 -3 -8 0 -15 6 -15 6
0 11 19 11 45 0 33 -4 45 -15 45 -8 0 -15 -7 -15 -15 0 -8 -7 -15 -15 -15 -11
0 -15 -12 -15 -45 l0 -45 -45 0 -45 0 0 60 0 60 -35 0 -35 0 0 -75 c0 -60 -3
-75 -15 -75 -8 0 -15 -7 -15 -15 0 -8 -7 -15 -15 -15 -8 0 -15 -9 -15 -20 0
-19 -7 -20 -110 -20 -97 0 -110 2 -110 17 0 13 3 14 12 5 16 -16 28 -15 28 3
0 8 -9 15 -20 15 -18 0 -20 7 -20 60 l0 60 35 0 c19 0 35 5 35 11 0 6 -7 9
-15 5 -8 -3 -15 -1 -15 4 0 6 33 10 75 10 l75 0 0 30 c0 20 5 30 15 30 10 0
15 11 15 35 0 24 5 35 15 35 8 0 15 7 15 15 0 10 11 15 35 15 19 0 35 5 35 11
0 6 -9 8 -20 4 -11 -4 -20 -2 -20 4 0 7 34 11 95 11 78 0 95 -3 95 -15 0 -8 5
-15 11 -15 6 0 9 7 5 15 -3 8 -1 15 4 15 6 0 10 -35 10 -80 l0 -80 35 0 c32 0
35 -2 35 -30 0 -23 -4 -30 -20 -30 -16 0 -20 -7 -20 -30 0 -29 1 -30 50 -30
30 0 50 -4 50 -11 0 -6 -7 -9 -15 -5 -8 3 -15 1 -15 -4 0 -6 20 -10 45 -10 25
0 45 -4 45 -10 0 -5 -7 -7 -15 -4 -8 4 -15 1 -15 -5 0 -6 14 -11 30 -11 l30 0
0 -93 c0 -52 -3 -97 -7 -101 -11 -10 -11 -56 -1 -56 4 0 8 7 8 15 0 12 14 15
65 15 l65 0 0 -95 c0 -63 -4 -95 -11 -95 -6 0 -9 7 -5 15 3 8 1 15 -4 15 -6 0
-10 -13 -10 -30 0 -23 -4 -30 -20 -30 -11 0 -20 -7 -20 -15 0 -8 -7 -15 -15
-15 -8 0 -15 -7 -15 -15 0 -8 -7 -15 -15 -15 -8 0 -15 -9 -15 -20 0 -11 -7
-20 -15 -20 -8 0 -15 -7 -15 -15 0 -8 -7 -15 -15 -15 -8 0 -15 -7 -15 -15 0
-13 -28 -15 -190 -15 -145 0 -190 -3 -190 -12 0 -10 49 -13 211 -13 191 1 212
3 221 19 5 9 7 24 4 33 -5 13 -4 14 9 3 9 -8 13 -21 9 -36 -4 -15 -2 -24 5
-24 15 0 14 87 -1 92 -9 3 -9 6 0 12 7 4 12 2 12 -3 0 -17 17 -13 44 12 13 12
32 28 41 36 11 9 15 21 10 40 -4 19 -3 22 5 11 5 -8 10 -57 10 -107 0 -55 4
-93 10 -93 7 0 10 173 10 500 0 327 -3 500 -10 500 -5 0 -10 -16 -10 -34 l0
-35 -146 -3 c-136 -3 -149 -1 -170 17 -13 11 -24 26 -24 33 0 14 7 13 -130 17
-97 2 -106 1 -122 -19 l-18 -21 0 23 c0 34 -15 26 -17 -9 -3 -40 -4 -41 -50
-43 -38 -1 -38 -1 -35 37 2 22 -1 37 -7 37 -6 0 -11 -20 -11 -45 0 -43 1 -45
30 -45 17 0 30 -4 30 -10 0 -5 -7 -10 -16 -10 -12 0 -15 -7 -12 -28 4 -28 3
-28 -44 -27 -33 1 -48 -2 -48 -11 0 -7 6 -15 13 -18 6 -3 3 -4 -9 -1 -28 7
-54 -3 -54 -21 0 -8 -4 -14 -10 -14 -6 0 -10 45 -10 115 0 96 -3 115 -15 115
-13 0 -15 -62 -15 -500z m581 340 c10 0 19 7 19 15 0 8 -4 15 -10 15 -5 0 -10
9 -10 20 0 19 7 20 155 20 l155 0 0 -35 0 -35 -130 0 -130 0 0 -31 0 -32 130
8 130 7 0 -71 0 -71 -61 0 -61 0 4 50 c2 35 -1 50 -9 50 -9 0 -13 -17 -13 -51
0 -67 -19 -55 -22 14 l-1 52 -6 -50 c-4 -29 -9 -45 -14 -38 -4 7 -13 11 -20 9
-7 -1 -9 -1 -4 1 4 3 7 12 7 20 0 13 -3 13 -15 3 -13 -11 -15 -8 -16 21 -1 24
-3 27 -6 12 -5 -24 -38 -38 -70 -30 -10 3 -4 5 15 6 l33 1 -6 46 c-7 58 -9 62
-37 60 -30 -2 -38 11 -36 54 l1 35 4 -37 c3 -30 9 -38 24 -38z m-341 26 c0 -3
-4 -8 -10 -11 -5 -3 -10 -1 -10 4 0 6 5 11 10 11 6 0 10 -2 10 -4z m650 -46
c0 -6 -49 -10 -126 -10 -81 0 -123 4 -119 10 4 6 57 10 126 10 73 0 119 -4
119 -10z m-685 -20 c-7 -11 -75 -9 -75 3 0 4 18 7 41 7 24 0 38 -4 34 -10z
m152 -16 c-3 -3 -12 -4 -19 -1 -8 3 -5 6 6 6 11 1 17 -2 13 -5z m-2 -90 c-3
-21 -12 -34 -21 -34 -11 0 -12 5 -6 18 5 9 7 23 5 30 -3 6 0 12 6 12 6 0 12
12 12 28 2 25 2 25 6 3 3 -13 2 -39 -2 -57z m225 -74 c0 -5 -4 -10 -10 -10 -5
0 -10 5 -10 10 0 6 5 10 10 10 6 0 10 -4 10 -10z m80 0 c0 -5 -13 -10 -30 -10
-16 0 -30 5 -30 10 0 6 14 10 30 10 17 0 30 -4 30 -10z m230 -10 c0 -18 -7
-20 -55 -20 l-55 0 0 -75 0 -75 35 0 c19 0 35 -4 35 -10 0 -5 -23 -9 -50 -9
-47 2 -50 3 -43 23 3 11 7 48 7 81 1 33 5 63 10 67 6 4 4 13 -3 22 -12 14 -6
16 53 16 59 0 66 -2 66 -20z m-340 -24 c0 -3 -4 -8 -10 -11 -5 -3 -10 -1 -10
4 0 6 5 11 10 11 6 0 10 -2 10 -4z m170 -6 c0 -5 -2 -10 -4 -10 -3 0 -8 5 -11
10 -3 6 -1 10 4 10 6 0 11 -4 11 -10z m-560 -10 c0 -5 -15 -10 -32 -9 -31 1
-32 1 -8 9 35 11 40 11 40 0z m730 1 c0 -5 -20 -11 -45 -13 -43 -3 -53 1 -38
15 10 10 83 8 83 -2z m-812 -12 c-17 -11 -4 -21 25 -21 22 0 25 -6 31 -52 3
-28 6 -72 6 -98 0 -43 -3 -48 -22 -49 l-23 -2 23 -4 c44 -9 21 -23 -38 -23
l-60 0 0 35 0 35 55 0 c54 0 55 0 55 30 0 21 -5 30 -16 30 -14 0 -14 -3 -4
-15 11 -13 6 -15 -39 -15 -55 0 -72 19 -18 22 l32 1 -32 4 c-31 4 -31 4 -32
66 l0 62 35 1 c20 0 29 -3 22 -7z m642 -14 c0 -8 -7 -15 -15 -15 -8 0 -15 7
-15 15 0 8 7 15 15 15 8 0 15 -7 15 -15z m169 -57 c0 -24 -3 -37 -6 -30 -2 6
-16 12 -29 12 -19 0 -24 5 -24 25 0 37 -18 31 -22 -7 l-3 -33 -6 38 -5 37 48
0 48 0 -1 -42z m-621 -89 c-3 -90 -18 -70 -17 24 0 63 3 76 10 58 5 -13 8 -50
7 -82z m391 22 c7 -12 4 -16 -12 -16 -16 0 -22 6 -22 21 0 24 20 21 34 -5z
m221 9 c0 -5 -2 -10 -4 -10 -3 0 -8 5 -11 10 -3 6 -1 10 4 10 6 0 11 -4 11
-10z m-485 -51 c-4 -5 -2 -9 3 -9 5 0 12 -9 15 -21 4 -16 1 -20 -16 -17 -16 2
-22 9 -21 28 2 39 3 42 14 35 6 -4 8 -11 5 -16z m-45 -10 c0 -11 -4 -17 -10
-14 -5 3 -10 13 -10 21 0 8 5 14 10 14 6 0 10 -9 10 -21z m0 -39 c0 -5 -4 -10
-10 -10 -5 0 -10 5 -10 10 0 6 5 10 10 10 6 0 10 -4 10 -10z m-236 -39 c8 -12
-18 -21 -60 -21 -24 0 -34 5 -34 15 0 11 12 15 44 15 25 0 47 -4 50 -9z m-10
-63 c-1 -13 -3 -33 -3 -45 -1 -20 -6 -23 -41 -23 -48 0 -54 19 -7 22 l32 1
-32 4 c-47 6 -44 33 5 35 l37 1 -37 4 c-52 6 -48 23 5 23 39 0 43 -2 41 -22z
m43 -23 c0 -25 -4 -45 -8 -45 -5 0 -9 20 -9 45 0 25 4 45 9 45 4 0 8 -20 8
-45z m703 -35 c0 -5 -7 -10 -16 -10 -8 0 -12 5 -9 10 3 6 10 10 16 10 5 0 9
-4 9 -10z m-40 -30 c0 -5 -5 -10 -11 -10 -5 0 -7 5 -4 10 3 6 8 10 11 10 2 0
4 -4 4 -10z m-636 -35 c3 -8 1 -15 -4 -15 -6 0 -10 7 -10 15 0 8 2 15 4 15 2
0 6 -7 10 -15z m546 -65 c0 -5 -5 -10 -11 -10 -5 0 -7 5 -4 10 3 6 8 10 11 10
2 0 4 -4 4 -10z"/>
<path d="M738 753 c7 -3 16 -2 19 1 4 3 -2 6 -13 5 -11 0 -14 -3 -6 -6z"/>
<path d="M112 494 c10 -10 58 -12 64 -3 3 5 -12 9 -32 9 -21 0 -35 -3 -32 -6z"/>
<path d="M124 915 c0 -49 1 -71 3 -48 2 23 2 64 0 90 -2 26 -3 8 -3 -42z"/>
<path d="M193 955 c0 -27 2 -38 4 -22 2 15 2 37 0 50 -2 12 -4 0 -4 -28z"/>
<path d="M355 920 c-3 -5 -1 -10 4 -10 6 0 11 5 11 10 0 6 -2 10 -4 10 -3 0
-8 -4 -11 -10z"/>
<path d="M326 891 c-4 -7 -5 -15 -2 -18 9 -9 19 4 14 18 -4 11 -6 11 -12 0z"/>
<path d="M220 882 c0 -6 -8 -13 -17 -15 -16 -4 -16 -5 -1 -6 18 -1 34 16 24
26 -3 4 -6 1 -6 -5z"/>
<path d="M508 863 c7 -3 16 -2 19 1 4 3 -2 6 -13 5 -11 0 -14 -3 -6 -6z"/>
<path d="M418 833 c7 -3 16 -2 19 1 4 3 -2 6 -13 5 -11 0 -14 -3 -6 -6z"/>
<path d="M471 824 c0 -11 3 -14 6 -6 3 7 2 16 -1 19 -3 4 -6 -2 -5 -13z"/>
<path d="M500 795 c0 -25 4 -45 10 -45 5 0 9 10 7 22 -1 12 3 23 10 23 15 0
30 15 15 15 -7 0 -12 7 -12 15 0 8 -7 15 -15 15 -11 0 -15 -12 -15 -45z"/>
<path d="M560 829 c0 -5 5 -7 10 -4 6 3 10 8 10 11 0 2 -4 4 -10 4 -5 0 -10
-5 -10 -11z"/>
<path d="M600 794 c0 -15 28 -31 41 -23 11 7 11 9 -3 9 -10 0 -18 5 -18 10 0
6 -4 10 -10 10 -5 0 -10 -3 -10 -6z"/>
<path d="M342 750 c0 -19 2 -27 5 -17 2 9 2 25 0 35 -3 9 -5 1 -5 -18z"/>
<path d="M461 764 c0 -11 3 -14 6 -6 3 7 2 16 -1 19 -3 4 -6 -2 -5 -13z"/>
<path d="M258 753 c7 -3 16 -2 19 1 4 3 -2 6 -13 5 -11 0 -14 -3 -6 -6z"/>
<path d="M105 730 c-3 -5 1 -10 9 -10 9 0 16 5 16 10 0 6 -4 10 -9 10 -6 0
-13 -4 -16 -10z"/>
<path d="M464 712 c6 -10 42 -9 52 1 4 4 -7 7 -25 7 -18 0 -30 -4 -27 -8z"/>
<path d="M168 683 c7 -3 16 -2 19 1 4 3 -2 6 -13 5 -11 0 -14 -3 -6 -6z"/>
<path d="M598 663 c7 -3 16 -2 19 1 4 3 -2 6 -13 5 -11 0 -14 -3 -6 -6z"/>
<path d="M160 651 c0 -5 -3 -18 -7 -28 -6 -17 -6 -17 10 -1 19 18 22 38 7 38
-5 0 -10 -4 -10 -9z"/>
<path d="M190 645 c0 -8 7 -15 15 -15 8 0 15 7 15 15 0 8 -7 15 -15 15 -8 0
-15 -7 -15 -15z"/>
<path d="M310 649 c0 -5 5 -7 10 -4 6 3 10 8 10 11 0 2 -4 4 -10 4 -5 0 -10
-5 -10 -11z"/>
<path d="M220 615 c0 -8 7 -15 15 -15 8 0 15 7 15 15 0 8 -7 15 -15 15 -8 0
-15 -7 -15 -15z"/>
<path d="M280 620 c0 -5 5 -10 10 -10 6 0 10 5 10 10 0 6 -4 10 -10 10 -5 0
-10 -4 -10 -10z"/>
<path d="M260 545 c0 -8 5 -15 10 -15 6 0 10 7 10 15 0 8 -4 15 -10 15 -5 0
-10 -7 -10 -15z"/>
<path d="M438 518 c2 -10 10 -18 17 -18 7 0 15 8 17 18 4 12 -1 17 -17 17 -16
0 -21 -5 -17 -17z"/>
<path d="M552 474 c-7 -8 -11 -18 -7 -23 3 -5 1 -11 -3 -13 -5 -1 -11 -23 -15
-48 -3 -25 -3 -37 0 -27 6 23 23 22 23 -2 0 -10 -9 -21 -20 -24 -28 -7 -25
-27 5 -27 25 0 25 1 25 80 0 64 3 80 15 80 8 0 15 5 15 10 0 15 -23 11 -38 -6z"/>
<path d="M735 460 c3 -5 8 -10 11 -10 2 0 4 5 4 10 0 6 -5 10 -11 10 -5 0 -7
-4 -4 -10z"/>
<path d="M243 390 c0 -25 2 -35 4 -22 2 12 2 32 0 45 -2 12 -4 2 -4 -23z"/>
<path d="M583 360 c0 -30 2 -43 4 -27 2 15 2 39 0 55 -2 15 -4 2 -4 -28z"/>
<path d="M620 390 c0 -5 5 -10 11 -10 5 0 7 5 4 10 -3 6 -8 10 -11 10 -2 0 -4
-4 -4 -10z"/>
<path d="M735 350 c-3 -5 -1 -10 4 -10 6 0 11 5 11 10 0 6 -2 10 -4 10 -3 0
-8 -4 -11 -10z"/>
<path d="M780 332 c0 -5 10 -8 23 -8 17 1 21 -4 20 -21 -2 -13 2 -23 7 -23 6
0 10 14 10 30 0 27 -3 30 -30 30 -16 0 -30 -4 -30 -8z"/>
<path d="M660 300 c0 -5 7 -10 15 -10 8 0 15 5 15 10 0 6 -7 10 -15 10 -8 0
-15 -4 -15 -10z"/>
<path d="M706 295 c4 -8 8 -15 10 -15 2 0 4 7 4 15 0 8 -4 15 -10 15 -5 0 -7
-7 -4 -15z"/>
<path d="M780 295 c0 -8 7 -15 15 -15 8 0 15 7 15 15 0 8 -7 15 -15 15 -8 0
-15 -7 -15 -15z"/>
<path d="M363 288 c-2 -5 41 -8 96 -8 56 0 101 3 101 8 0 9 -190 9 -197 0z"/>
<path d="M590 265 c0 -11 12 -15 44 -15 24 0 50 -2 58 -3 7 -2 10 -2 6 0 -5 3
-8 11 -8 19 0 10 -14 14 -50 14 -38 0 -50 -4 -50 -15z"/>
<path d="M750 265 c0 -8 -7 -15 -15 -15 -8 0 -15 -7 -15 -15 0 -13 -22 -15
-137 -14 -76 0 -132 3 -125 6 17 7 15 23 -3 23 -8 0 -15 -9 -15 -20 0 -13 -5
-18 -15 -14 -9 4 -15 0 -15 -10 0 -13 12 -16 60 -16 47 0 60 -3 60 -15 0 -12
17 -15 95 -15 78 0 95 3 95 15 0 8 5 15 11 15 6 0 9 -7 5 -15 -3 -8 -1 -15 4
-15 6 0 10 19 11 43 0 23 3 36 6 30 9 -24 23 -13 23 17 0 20 -5 30 -15 30 -8
0 -15 -7 -15 -15z m-110 -65 c20 -6 14 -8 -27 -9 -30 -1 -53 -6 -53 -12 0 -5
-5 -7 -12 -3 -7 5 -5 11 7 21 21 14 46 15 85 3z m55 -10 c3 -5 2 -10 -4 -10
-5 0 -13 5 -16 10 -3 6 -2 10 4 10 5 0 13 -4 16 -10z"/>
<path d="M500 170 c0 -5 5 -10 11 -10 5 0 7 5 4 10 -3 6 -8 10 -11 10 -2 0 -4
-4 -4 -10z"/>
<path d="M590 138 c0 -5 27 -8 61 -8 41 0 58 -3 53 -11 -3 -6 -24 -9 -45 -7
-27 2 -39 0 -39 -9 0 -9 16 -13 50 -13 48 0 50 1 50 28 0 28 -1 28 -65 28 -36
-1 -65 -4 -65 -8z"/>
<path d="M738 120 c-2 -16 1 -31 7 -33 7 -3 9 7 7 29 -5 42 -8 43 -14 4z"/>
<path d="M780 114 c0 -8 5 -12 10 -9 6 3 10 10 10 16 0 5 -4 9 -10 9 -5 0 -10
-7 -10 -16z"/>
<path d="M590 100 c0 -5 5 -10 11 -10 5 0 7 5 4 10 -3 6 -8 10 -11 10 -2 0 -4
-4 -4 -10z"/>
<path d="M620 68 c0 -5 16 -8 35 -8 19 0 35 4 35 8 0 5 -16 8 -35 8 -19 -1
-35 -4 -35 -8z"/>
<path d="M873 35 c0 -22 2 -30 4 -17 2 12 2 30 0 40 -3 9 -5 -1 -4 -23z"/>
<path d="M543 53 c9 -2 25 -2 35 0 9 3 1 5 -18 5 -19 0 -27 -2 -17 -5z"/>
<path d="M295 10 c-3 -5 -1 -10 4 -10 6 0 11 5 11 10 0 6 -2 10 -4 10 -3 0 -8
-4 -11 -10z"/>
</g>
</svg>
