<?xml version="1.0" standalone="no"?>
<!DOCTYPE svg PUBLIC "-//W3C//DTD SVG 20010904//EN"
 "http://www.w3.org/TR/2001/REC-SVG-20010904/DTD/svg10.dtd">
<svg version="1.0" xmlns="http://www.w3.org/2000/svg"
 width="256.000000pt" height="256.000000pt" viewBox="0 0 256.000000 256.000000"
 preserveAspectRatio="xMidYMid meet">
<metadata>
Created by potrace 1.16, written by Peter Selinger 2001-2019
</metadata>
<g transform="translate(0.000000,256.000000) scale(0.100000,-0.100000)"
fill="#000000" stroke="none">
<path d="M93 2533 c-23 -15 -53 -45 -67 -67 l-26 -40 2 -1151 3 -1151 34 -42
c18 -23 53 -51 76 -62 43 -20 69 -20 1165 -20 1101 0 1121 0 1160 20 47 24 75
53 101 102 18 36 19 74 19 1159 0 1116 0 1123 -21 1166 -11 23 -39 57 -62 75
l-41 33 -1151 2 -1150 3 -42 -27z m2299 5 c22 -6 60 -31 83 -54 79 -76 75 -10
75 -1208 -1 -864 -3 -1068 -14 -1099 -22 -62 -58 -105 -111 -134 l-50 -28
-1090 -2 -1090 -2 -52 24 c-55 26 -103 79 -121 134 -9 25 -12 325 -12 1123 0
1050 1 1090 19 1126 25 49 63 86 114 111 42 21 50 21 1126 21 808 0 1094 -3
1123 -12z"/>
<path d="M1474 1975 c-8 -23 -150 -555 -239 -895 -26 -96 -48 -182 -51 -190
-3 -13 29 -15 259 -13 l262 3 11 42 c7 24 71 266 143 538 73 272 134 502 136
510 4 13 -29 15 -256 15 -166 0 -263 -4 -265 -10z m486 -26 c0 -6 -25 -102
-55 -213 -95 -349 -105 -386 -164 -611 l-57 -220 -232 -3 c-128 -1 -232 1
-232 5 0 8 19 79 64 248 13 50 38 142 54 205 17 63 51 194 77 290 26 96 54
201 61 234 8 32 17 62 20 67 8 14 464 11 464 -2z"/>
<path d="M646 1187 c-33 -122 -67 -247 -75 -279 l-15 -56 56 -84 c154 -228
282 -413 290 -416 4 -2 8 -9 8 -17 0 -7 6 -17 13 -23 10 -9 20 15 45 111 112
418 170 633 213 790 27 98 49 182 49 188 0 5 -105 9 -262 9 l-263 0 -59 -223z
m539 145 c-8 -27 -23 -82 -34 -123 -10 -41 -36 -135 -56 -209 -20 -74 -47
-173 -60 -220 -80 -299 -107 -395 -111 -399 -2 -3 -8 0 -13 5 -8 8 -164 236
-278 406 l-46 68 16 62 c39 147 105 390 122 446 3 9 60 12 239 12 l235 0 -14
-48z"/>
</g>
</svg>
