<?xml version="1.0" standalone="no"?>
<!DOCTYPE svg PUBLIC "-//W3C//DTD SVG 20010904//EN"
 "http://www.w3.org/TR/2001/REC-SVG-20010904/DTD/svg10.dtd">
<svg version="1.0" xmlns="http://www.w3.org/2000/svg"
 width="256.000000pt" height="256.000000pt" viewBox="0 0 256.000000 256.000000"
 preserveAspectRatio="xMidYMid meet">
<metadata>
Created by potrace 1.16, written by Peter Selinger 2001-2019
</metadata>
<g transform="translate(0.000000,256.000000) scale(0.100000,-0.100000)"
fill="#000000" stroke="none">
<path d="M1060 2049 c-190 -120 -379 -239 -420 -264 l-74 -45 242 0 243 0 -7
-22 c-32 -102 -282 -953 -281 -955 2 -1 61 -5 133 -9 192 -10 264 16 302 112
12 30 262 859 262 868 0 3 115 7 255 8 l254 3 -271 260 c-149 143 -276 261
-282 262 -6 1 -166 -97 -356 -218z m602 -51 l241 -233 -231 -3 -231 -2 -30
-98 c-26 -85 -104 -344 -206 -684 -38 -127 -52 -151 -108 -180 -38 -20 -55
-22 -166 -21 -68 1 -126 5 -129 7 -6 6 5 43 157 554 61 205 111 383 111 397
l0 25 -201 2 -202 3 364 232 c200 127 370 232 377 232 7 1 122 -104 254 -231z"/>
<path d="M1555 1618 c-2 -7 -54 -184 -115 -393 -61 -209 -118 -399 -126 -421
-24 -62 -68 -109 -132 -141 -57 -28 -58 -28 -259 -28 l-201 0 -45 -150 c-25
-82 -43 -153 -39 -157 15 -14 270 -30 377 -23 335 21 504 116 607 344 22 50
298 952 298 976 0 3 -81 5 -180 5 -136 0 -182 -3 -185 -12z m325 -31 c0 -7 -9
-40 -19 -73 -11 -32 -48 -153 -81 -269 -129 -438 -163 -542 -203 -619 -75
-141 -198 -232 -367 -271 -124 -29 -485 -33 -529 -6 -19 12 58 272 79 267 8
-3 65 -7 125 -11 187 -10 320 18 389 83 27 26 86 134 86 159 0 6 20 78 44 160
25 81 72 243 106 358 34 116 63 216 65 223 6 18 305 17 305 -1z"/>
</g>
</svg>
