<?xml version="1.0" standalone="no"?>
<!DOCTYPE svg PUBLIC "-//W3C//DTD SVG 20010904//EN"
 "http://www.w3.org/TR/2001/REC-SVG-20010904/DTD/svg10.dtd">
<svg version="1.0" xmlns="http://www.w3.org/2000/svg"
 width="100.000000pt" height="100.000000pt" viewBox="0 0 100.000000 100.000000"
 preserveAspectRatio="xMidYMid meet">
<metadata>
Created by potrace 1.16, written by Peter Selinger 2001-2019
</metadata>
<g transform="translate(0.000000,100.000000) scale(0.100000,-0.100000)"
fill="#000000" stroke="none">
<path d="M0 760 c0 -7 173 -10 500 -10 327 0 500 3 500 10 0 7 -173 10 -500
10 -327 0 -500 -3 -500 -10z"/>
<path d="M0 720 c0 -5 21 -10 46 -10 44 0 81 -20 70 -38 -3 -5 8 -6 25 -4 17
3 29 0 29 -7 0 -6 7 -11 16 -11 22 0 44 -25 44 -49 0 -18 -6 -21 -40 -21 -22
0 -40 -4 -40 -10 0 -5 -7 -10 -15 -10 -8 0 -15 -4 -15 -10 0 -5 -18 -10 -40
-10 -35 0 -40 -3 -39 -22 0 -22 1 -22 9 -3 8 18 9 17 9 -7 1 -16 6 -28 11 -28
6 0 10 -10 10 -22 0 -19 2 -20 10 -8 8 12 10 11 10 -7 0 -13 5 -23 10 -23 6 0
10 -34 10 -81 0 -44 4 -78 8 -75 5 3 8 22 7 42 -1 20 1 52 6 72 8 35 -9 85
-35 103 -14 11 1 39 21 39 10 0 29 9 43 20 38 30 60 26 60 -10 0 -23 -4 -30
-20 -30 -13 0 -20 -7 -20 -20 0 -11 -4 -20 -10 -20 -15 0 -12 -49 4 -66 8 -8
21 -14 30 -14 8 0 18 -4 21 -10 3 -5 17 -10 31 -10 13 0 24 5 24 10 0 6 7 10
16 10 27 0 59 48 67 100 2 14 5 3 6 -23 0 -28 7 -55 16 -63 19 -20 73 -28 105
-16 15 5 38 5 60 -1 61 -16 110 -20 110 -8 0 7 43 9 138 6 75 -3 145 -2 155 1
24 8 23 64 -3 92 -26 27 -25 57 0 85 15 15 20 32 18 57 l-3 35 -369 3 c-354 2
-370 3 -386 22 -10 11 -25 20 -34 20 -9 0 -16 3 -16 8 0 4 -12 13 -27 20 -32
14 -143 16 -143 2z m440 -97 c0 -5 -43 -8 -95 -8 -52 0 -95 3 -95 8 0 4 43 7
95 7 52 0 95 -3 95 -7z m120 -1 c0 -4 -18 -8 -40 -7 -22 0 -40 3 -40 8 0 4 18
7 40 7 22 0 40 -4 40 -8z m148 3 c-8 -9 -88 -11 -100 -3 -8 4 13 8 46 8 33 0
57 -2 54 -5z m115 -3 c-13 -8 -81 -7 -90 2 -4 3 18 6 48 6 30 0 49 -4 42 -8z
m137 0 c0 -4 -25 -8 -55 -7 -30 0 -55 3 -55 8 0 4 25 7 55 7 30 0 55 -4 55 -8z
m-630 -112 c0 -87 -1 -90 -22 -90 -19 0 -20 -2 -8 -10 11 -7 0 -10 -37 -10
l-53 0 0 40 c0 31 4 40 18 40 14 0 15 -2 2 -10 -12 -8 -9 -10 13 -10 27 0 27
0 25 68 l-1 67 -7 -65 -7 -65 -1 68 -2 67 40 0 40 0 0 -90z m110 70 c0 -13 7
-20 20 -20 13 0 20 7 20 20 0 17 7 20 39 20 22 0 42 -6 45 -12 5 -10 7 -10 12
0 4 8 28 12 70 12 l64 0 0 -30 c0 -25 -4 -30 -22 -29 -22 0 -22 1 -3 9 15 7
10 9 -22 9 -37 1 -43 -2 -43 -19 0 -11 5 -20 11 -20 5 0 7 5 4 10 -3 6 -1 10
4 10 6 0 11 -4 11 -10 0 -5 14 -10 30 -10 29 0 30 -1 30 -50 0 -45 -2 -50 -22
-50 -19 0 -20 -2 -8 -10 11 -7 -4 -10 -48 -10 -42 0 -68 5 -78 14 -16 17 -19
30 -4 21 6 -4 10 6 11 22 0 15 3 22 6 16 2 -7 20 -13 39 -13 21 0 33 -4 29
-10 -3 -5 -1 -10 4 -10 6 0 11 9 11 20 0 16 -7 20 -31 20 -40 0 -59 20 -59 64
0 20 -3 36 -6 36 -11 0 -34 -29 -34 -44 0 -9 -4 -16 -10 -16 -6 0 -10 -27 -10
-60 l0 -60 -40 0 -40 0 0 63 c0 44 -3 58 -10 47 -7 -11 -10 -6 -11 20 0 19 -3
29 -6 23 -8 -20 -23 -15 -23 7 0 11 -4 20 -10 20 -5 0 -10 5 -10 10 0 6 20 10
45 10 38 0 45 -3 45 -20z m370 -20 c0 -22 5 -40 10 -40 6 0 10 9 10 20 0 11 5
20 10 20 6 0 10 9 10 20 0 17 7 20 45 20 25 0 45 -4 45 -10 0 -5 -4 -10 -10
-10 -5 0 -10 -9 -10 -20 0 -11 -4 -20 -10 -20 -5 0 -10 -13 -10 -30 0 -16 5
-30 10 -30 6 0 10 -8 10 -18 0 -10 9 -24 20 -32 32 -23 24 -30 -35 -30 l-55 0
0 33 c0 24 -3 28 -10 17 -8 -12 -10 -11 -10 8 0 12 -4 22 -10 22 -5 0 -10 -18
-10 -40 0 -38 -2 -40 -30 -40 l-30 0 0 100 0 100 30 0 c28 0 30 -2 30 -40z
m-73 -27 c-3 -10 -5 -4 -5 12 0 17 2 24 5 18 2 -7 2 -21 0 -30z m0 -125 c-3
-8 -6 -5 -6 6 -1 11 2 17 5 13 3 -3 4 -12 1 -19z"/>
<path d="M48 683 c6 -2 18 -2 25 0 6 3 1 5 -13 5 -14 0 -19 -2 -12 -5z"/>
<path d="M0 650 c0 -13 7 -20 19 -20 10 0 21 -7 25 -15 3 -8 1 -15 -5 -15 -24
0 -39 -30 -39 -80 0 -53 10 -80 41 -114 14 -14 19 -35 19 -77 0 -48 3 -57 20
-62 18 -5 20 0 20 54 0 33 -4 59 -10 59 -5 0 -10 9 -10 20 0 11 -4 20 -10 20
-5 0 -10 10 -10 23 0 18 -2 19 -10 7 -8 -12 -10 -11 -10 8 0 12 -4 22 -10 22
-5 0 -10 18 -10 40 l0 40 43 1 c36 1 38 2 17 9 -24 8 -23 8 8 9 29 1 32 4 32
32 0 43 -21 59 -74 59 -39 0 -46 -3 -46 -20z m100 -10 c0 -5 -9 -10 -20 -10
-11 0 -20 5 -20 10 0 6 9 10 20 10 11 0 20 -4 20 -10z m-13 -36 c-3 -3 -12 -4
-19 -1 -8 3 -5 6 6 6 11 1 17 -2 13 -5z"/>
<path d="M150 628 c0 -21 5 -28 19 -28 10 0 21 9 24 19 3 14 1 18 -10 14 -8
-3 -19 0 -24 8 -6 10 -9 6 -9 -13z"/>
<path d="M211 604 c0 -11 3 -14 6 -6 3 7 2 16 -1 19 -3 4 -6 -2 -5 -13z"/>
<path d="M150 329 c0 -44 4 -68 10 -64 6 3 10 35 10 71 0 36 -4 64 -10 64 -6
0 -10 -30 -10 -71z"/>
<path d="M0 240 c0 -7 173 -10 500 -10 327 0 500 3 500 10 0 7 -173 10 -500
10 -327 0 -500 -3 -500 -10z"/>
</g>
</svg>
