<?xml version="1.0" standalone="no"?>
<!DOCTYPE svg PUBLIC "-//W3C//DTD SVG 20010904//EN"
 "http://www.w3.org/TR/2001/REC-SVG-20010904/DTD/svg10.dtd">
<svg version="1.0" xmlns="http://www.w3.org/2000/svg"
 width="150.000000pt" height="150.000000pt" viewBox="0 0 150.000000 150.000000"
 preserveAspectRatio="xMidYMid meet">
<metadata>
Created by potrace 1.16, written by Peter Selinger 2001-2019
</metadata>
<g transform="translate(0.000000,150.000000) scale(0.100000,-0.100000)"
fill="#000000" stroke="none">
<path d="M666 1400 c-22 -11 -48 -28 -59 -37 -30 -27 -73 -94 -88 -136 -12
-34 -16 -38 -39 -32 -14 4 -72 9 -130 12 -174 8 -222 -18 -234 -130 -7 -73 5
-187 26 -238 15 -35 15 -35 -13 -48 -16 -7 -51 -33 -79 -58 -40 -36 -50 -51
-50 -76 l0 -32 19 31 c24 39 95 100 142 121 l37 16 -25 47 c-46 88 -50 263 -7
307 10 11 34 25 53 32 53 18 180 14 245 -8 53 -17 58 -17 63 -2 37 118 98 191
186 222 95 34 210 -64 260 -222 5 -15 10 -15 63 2 65 22 192 26 245 8 19 -7
44 -23 57 -38 22 -24 23 -32 20 -136 -3 -97 -6 -118 -29 -162 l-27 -50 43 -21
c52 -25 112 -77 137 -117 l18 -30 0 31 c0 24 -10 41 -45 73 -25 23 -60 48 -78
57 l-34 16 18 49 c15 38 19 76 19 168 0 108 -2 120 -22 144 -34 38 -89 50
-208 44 -58 -3 -116 -8 -130 -12 -23 -6 -27 -2 -39 32 -55 153 -198 231 -315
173z"/>
<path d="M714 740 c-55 -12 -94 -43 -119 -94 -34 -68 -29 -121 16 -183 23 -32
99 -73 137 -73 64 0 140 53 168 119 20 48 18 80 -11 137 -36 73 -115 111 -191
94z m107 -42 c28 -16 47 -37 65 -74 23 -48 25 -56 13 -89 -17 -46 -57 -87
-108 -110 -40 -17 -42 -17 -82 0 -51 24 -90 64 -106 112 -12 34 -11 42 12 88
43 88 127 118 206 73z"/>
<path d="M147 563 c73 -2 193 -2 265 0 73 1 14 3 -132 3 -146 0 -205 -2 -133
-3z"/>
<path d="M1092 563 c70 -2 187 -2 260 0 73 1 16 3 -127 3 -143 0 -203 -2 -133
-3z"/>
<path d="M0 487 c0 -14 10 -37 23 -51 31 -36 131 -93 175 -101 l37 -6 1 -87
c1 -88 13 -132 39 -132 7 0 15 -6 17 -12 4 -10 43 -13 154 -13 161 0 208 9
269 51 33 22 39 23 54 11 55 -49 171 -72 324 -64 68 3 113 9 115 16 2 6 10 11
17 11 25 0 38 43 39 132 l1 87 37 6 c44 8 144 65 176 101 12 14 22 37 22 51 0
25 -1 24 -28 -13 -33 -45 -137 -110 -191 -119 l-37 -6 0 -87 c0 -88 -13 -132
-39 -132 -7 0 -15 -5 -17 -10 -6 -18 -177 -24 -254 -10 -86 16 -136 40 -164
80 l-22 31 -19 -30 c-24 -39 -79 -67 -164 -82 -77 -13 -248 -6 -253 11 -2 5
-10 10 -17 10 -26 0 -39 44 -39 132 l1 87 -38 6 c-54 9 -158 74 -191 119 -27
37 -28 38 -28 13z"/>
<path d="M569 393 c-13 -16 -12 -17 4 -4 9 7 17 15 17 17 0 8 -8 3 -21 -13z"/>
<path d="M910 406 c0 -2 8 -10 18 -17 15 -13 16 -12 3 4 -13 16 -21 21 -21 13z"/>
</g>
</svg>
