<?xml version="1.0" standalone="no"?>
<!DOCTYPE svg PUBLIC "-//W3C//DTD SVG 20010904//EN"
 "http://www.w3.org/TR/2001/REC-SVG-20010904/DTD/svg10.dtd">
<svg version="1.0" xmlns="http://www.w3.org/2000/svg"
 width="192.000000pt" height="192.000000pt" viewBox="0 0 192.000000 192.000000"
 preserveAspectRatio="xMidYMid meet">
<metadata>
Created by potrace 1.16, written by Peter Selinger 2001-2019
</metadata>
<g transform="translate(0.000000,192.000000) scale(0.100000,-0.100000)"
fill="#000000" stroke="none">
<path d="M740 1800 c0 -5 -7 -10 -15 -10 -44 0 -205 -123 -205 -157 0 -7 -4
-13 -8 -13 -20 0 -44 -121 -40 -200 3 -81 1 -89 -19 -69 -13 13 -118 7 -181
-10 -81 -21 -156 -80 -208 -162 -23 -37 -24 -46 -24 -203 0 -91 4 -167 9 -170
5 -3 12 -18 16 -33 14 -58 181 -253 216 -253 5 0 9 -27 9 -60 0 -59 13 -94 61
-162 27 -37 142 -120 218 -157 63 -30 68 -31 204 -31 137 0 140 1 163 26 l24
25 24 -25 c23 -25 26 -26 163 -26 136 0 141 1 204 31 180 87 279 201 279 319
0 33 4 60 9 60 35 0 202 195 216 253 4 15 11 30 16 33 5 3 9 79 9 170 0 157
-1 166 -24 203 -52 82 -127 141 -208 162 -63 17 -168 23 -181 10 -20 -20 -22
-12 -19 69 4 79 -20 200 -40 200 -4 0 -8 6 -8 13 0 34 -161 157 -205 157 -8 0
-15 5 -15 10 0 6 -80 10 -220 10 -140 0 -220 -4 -220 -10z m420 -20 c0 -5 7
-10 15 -10 44 0 205 -123 205 -157 0 -7 4 -13 8 -13 5 0 16 -27 26 -60 17 -58
18 -118 1 -196 -7 -30 -6 -31 22 -27 15 2 38 9 49 15 12 6 39 8 60 5 136 -18
222 -71 290 -178 23 -36 24 -48 24 -183 0 -80 -4 -147 -9 -150 -5 -3 -12 -18
-16 -33 -14 -58 -181 -253 -216 -253 -5 0 -9 -27 -9 -60 0 -59 -13 -94 -61
-162 -27 -37 -142 -120 -218 -157 -61 -29 -71 -31 -184 -31 l-120 0 -33 36
-34 35 -34 -35 -33 -36 -120 0 c-113 0 -123 2 -184 31 -180 87 -279 201 -279
319 0 33 -4 60 -9 60 -35 0 -202 195 -216 253 -4 15 -11 30 -16 33 -5 3 -9 70
-9 150 0 135 1 147 24 183 68 107 154 160 290 178 21 3 48 1 60 -5 11 -6 34
-13 49 -15 28 -4 29 -3 22 27 -17 78 -16 138 1 196 10 33 21 60 26 60 4 0 8 6
8 13 0 34 161 157 205 157 8 0 15 5 15 10 0 6 73 10 200 10 127 0 200 -4 200
-10z"/>
<path d="M816 1724 c-107 -29 -203 -97 -222 -157 -4 -12 -12 -25 -18 -29 -15
-10 -15 -180 0 -199 7 -8 15 -29 19 -46 3 -18 10 -33 13 -33 11 0 32 -52 32
-78 0 -37 -33 -23 -108 46 -7 6 -22 12 -32 12 -10 0 -20 5 -22 12 -5 15 -176
17 -186 1 -4 -6 -17 -14 -30 -18 -30 -9 -108 -87 -117 -117 -4 -13 -12 -26
-18 -30 -6 -3 -12 -44 -15 -90 -4 -70 -1 -92 17 -130 11 -26 21 -52 21 -57 0
-6 4 -11 9 -11 5 0 12 -11 15 -25 4 -14 11 -25 16 -25 6 0 10 -6 10 -13 0 -16
136 -147 153 -147 7 0 22 7 33 15 22 17 209 21 219 5 3 -5 14 -10 23 -10 9 0
50 -17 91 -37 78 -39 211 -157 211 -187 0 -9 5 -16 10 -16 6 0 10 -9 10 -20 0
-11 5 -20 10 -20 6 0 10 9 10 20 0 11 5 20 10 20 6 0 10 7 10 16 0 30 133 148
211 187 41 20 82 37 91 37 9 0 20 5 23 10 10 16 197 12 219 -5 11 -8 26 -15
33 -15 17 0 153 131 153 147 0 7 4 13 10 13 5 0 12 11 16 25 3 14 10 25 15 25
5 0 9 5 9 11 0 5 10 31 21 57 18 38 21 60 17 130 -3 46 -9 87 -15 90 -6 4 -14
17 -18 30 -9 30 -87 108 -117 117 -13 4 -26 12 -30 18 -10 16 -181 14 -186 -1
-2 -7 -12 -12 -22 -12 -10 0 -25 -6 -32 -12 -46 -42 -65 -56 -85 -63 -19 -5
-23 -3 -23 17 0 26 21 78 32 78 3 0 10 15 13 33 4 17 12 38 19 46 15 19 15
189 0 199 -6 4 -14 16 -18 28 -10 34 -68 91 -117 118 -102 53 -278 72 -393 40z
m264 -20 c110 -28 207 -96 226 -158 4 -12 12 -24 17 -28 14 -9 14 -142 0 -159
-6 -8 -14 -29 -18 -46 -3 -18 -10 -33 -13 -33 -14 0 -32 -55 -32 -97 0 -39 2
-43 24 -43 14 0 36 4 50 10 26 9 26 9 26 -40 0 -28 -4 -50 -9 -50 -5 0 -13
-10 -16 -21 -4 -12 -27 -41 -51 -66 l-44 -44 0 -84 c0 -47 -3 -85 -7 -85 -9 0
-53 45 -53 54 0 3 9 6 20 6 19 0 20 7 20 119 0 96 3 120 15 125 10 4 15 19 15
48 0 40 -3 44 -40 62 -52 25 -71 46 -41 46 20 0 21 5 21 100 l0 100 30 0 30 0
0 65 0 65 -110 0 -109 0 -3 68 -3 67 -65 0 -65 0 -3 -67 -3 -68 -109 0 -110 0
0 -65 0 -65 30 0 30 0 0 -100 0 -100 27 0 26 0 -23 -20 c-13 -11 -29 -20 -37
-20 -7 0 -13 -4 -13 -10 0 -5 -9 -10 -20 -10 -17 0 -20 -7 -20 -44 0 -30 5
-46 15 -50 12 -4 15 -28 15 -126 l0 -120 27 0 27 0 -29 -30 c-16 -16 -32 -30
-37 -30 -4 0 -8 38 -8 85 l0 84 -44 44 c-24 25 -47 54 -51 66 -3 11 -11 21
-16 21 -5 0 -9 22 -9 50 0 49 0 49 26 40 14 -6 36 -10 50 -10 22 0 24 4 24 43
0 42 -18 97 -32 97 -3 0 -10 15 -13 33 -4 17 -12 38 -18 46 -14 17 -14 150 0
159 5 4 13 17 17 29 4 13 24 40 45 62 89 93 270 134 421 95z m-72 -106 l3 -68
109 0 110 0 0 -45 c0 -43 -1 -45 -30 -45 l-30 0 0 -100 0 -100 -47 0 -48 0 40
-35 c22 -19 57 -42 77 -52 45 -22 49 -48 12 -79 -15 -13 -21 -25 -15 -29 6 -3
11 -28 11 -56 l0 -49 -47 -2 -48 -2 48 -3 47 -4 0 -45 c0 -42 -1 -44 -29 -44
-17 0 -32 -4 -35 -9 -7 -11 65 -91 81 -91 15 0 23 -24 23 -66 0 -33 -1 -34
-40 -34 l-40 0 0 -45 0 -45 -75 0 -75 0 0 -50 0 -50 -50 0 -50 0 0 50 0 50
-75 0 -75 0 0 45 0 45 -40 0 c-39 0 -40 1 -40 34 0 43 9 66 25 66 7 0 32 21
56 48 l44 47 -42 3 -43 3 0 45 0 44 48 2 47 2 -47 3 -48 4 0 48 c0 26 5 52 11
58 7 7 3 16 -15 31 -32 24 -35 62 -6 62 11 0 20 5 20 10 0 6 6 10 14 10 8 0
34 18 58 40 l43 39 -47 1 -48 0 0 100 0 100 -30 0 c-29 0 -30 2 -30 45 l0 45
110 0 110 0 0 63 c0 35 3 67 7 71 4 4 25 6 48 4 l40 -3 3 -67z m-570 -358 c30
0 28 -12 -8 -32 -17 -9 -30 -25 -30 -35 0 -13 -3 -14 -12 -5 -17 17 -74 15
-103 -4 -21 -14 -25 -24 -25 -69 0 -46 4 -57 26 -74 l27 -21 -38 0 c-56 0 -75
-22 -75 -87 0 -47 3 -55 25 -65 22 -10 25 -17 25 -65 0 -52 -14 -71 -27 -35
-4 9 -13 23 -20 30 -7 7 -13 20 -13 28 0 8 -4 14 -10 14 -5 0 -10 5 -10 11 0
5 -10 31 -21 57 -17 37 -20 59 -16 110 3 36 9 67 15 71 5 3 13 16 17 29 9 32
90 110 120 118 14 3 25 10 25 14 0 10 56 19 85 14 11 -2 30 -4 43 -4z m1172
-10 c3 -4 15 -11 28 -15 30 -9 108 -87 117 -117 4 -13 12 -26 17 -29 6 -4 12
-35 15 -71 4 -51 1 -73 -16 -110 -11 -26 -21 -52 -21 -57 0 -6 -4 -11 -10 -11
-5 0 -10 -6 -10 -14 0 -8 -6 -21 -13 -28 -7 -7 -16 -21 -20 -30 -13 -36 -27
-17 -27 35 0 48 3 55 25 65 22 10 25 18 25 63 0 67 -19 89 -73 89 l-40 0 27
21 c22 17 26 28 26 74 0 45 -4 55 -25 69 -29 19 -86 21 -103 4 -9 -9 -12 -8
-12 5 0 10 -13 26 -30 35 -16 9 -30 20 -30 24 0 17 138 15 150 -2z m-1089 -41
c17 -9 19 -19 17 -73 -1 -49 2 -67 15 -80 9 -10 17 -22 17 -27 0 -5 20 -30 45
-55 l45 -45 0 -73 c0 -40 -3 -94 -6 -120 l-7 -46 -43 0 c-25 0 -52 4 -62 10
-9 5 -47 12 -84 15 -38 4 -68 11 -68 16 0 5 -20 9 -44 9 -66 0 -76 7 -76 49 0
41 14 61 44 62 19 0 18 2 -4 11 -91 37 -90 37 -90 70 0 42 25 68 66 68 28 0
35 -4 40 -27 4 -15 13 -34 21 -41 19 -20 144 -82 164 -82 10 0 21 -4 24 -10 3
-5 16 -10 28 -9 15 0 17 2 7 6 -8 3 -17 9 -20 12 -3 3 -25 17 -49 30 -25 13
-51 29 -58 35 -35 28 -113 110 -113 119 0 5 -11 18 -26 29 -56 45 -2 142 60
108 21 -11 26 -21 26 -52 0 -21 6 -46 13 -54 22 -28 113 -119 137 -136 39 -29
45 -20 10 15 -41 42 -90 112 -90 130 0 8 -9 24 -20 37 -52 60 10 137 81 99z
m957 -5 c28 -19 29 -63 2 -94 -11 -13 -20 -29 -20 -37 0 -18 -49 -88 -90 -130
-35 -35 -29 -44 10 -15 24 17 115 108 138 136 6 8 12 33 12 54 0 31 5 41 26
52 62 34 116 -63 60 -108 -15 -11 -26 -24 -26 -29 0 -9 -78 -91 -113 -119 -7
-6 -33 -22 -58 -35 -24 -13 -46 -27 -49 -30 -3 -3 -12 -9 -20 -12 -10 -4 -8
-6 7 -6 12 -1 25 4 28 9 3 6 14 10 24 10 20 0 145 62 164 82 8 7 17 26 21 41
5 22 12 27 38 27 42 0 68 -25 68 -67 0 -35 2 -33 -90 -71 -22 -9 -23 -11 -4
-11 30 -1 44 -21 44 -62 0 -42 -10 -49 -76 -49 -24 0 -44 -4 -44 -9 0 -5 -30
-12 -67 -16 -38 -3 -76 -10 -85 -15 -10 -6 -37 -10 -62 -10 l-43 0 -7 46 c-3
26 -6 80 -6 120 l0 73 45 45 c25 25 45 50 45 55 0 5 8 17 17 27 13 13 16 31
15 80 -2 51 1 65 15 73 26 15 55 13 81 -5z m-1108 -494 c0 -5 30 -11 68 -15
37 -3 75 -10 84 -15 10 -6 45 -10 78 -10 47 0 60 -3 60 -15 0 -17 -25 -20 -35
-5 -9 14 -231 13 -254 -2 -16 -10 -25 -6 -65 33 l-47 44 56 -3 c30 -2 55 -8
55 -12z m1247 -27 c-42 -40 -52 -45 -68 -35 -23 15 -245 16 -254 2 -10 -15
-35 -12 -35 5 0 12 13 15 60 15 33 0 68 4 78 10 9 5 47 12 85 15 37 4 67 10
67 15 0 5 24 11 53 13 28 2 54 4 57 5 3 1 -17 -19 -43 -45z m-877 -58 c0 -19
-10 -19 -46 0 l-29 15 38 0 c26 0 37 -4 37 -15z m486 0 c-36 -19 -46 -19 -46
0 0 11 11 15 38 15 l37 0 -29 -15z m-336 -101 c0 -24 -2 -25 -17 -13 -44 35
-46 39 -14 39 27 0 31 -4 31 -26z m188 14 c-7 -7 -21 -19 -31 -27 -15 -12 -17
-11 -17 13 0 22 4 26 31 26 25 0 28 -2 17 -12z m-104 -110 c-7 -26 -12 -33
-18 -27 -2 2 -7 14 -10 27 -6 18 -4 22 14 22 18 0 20 -4 14 -22z"/>
<path d="M1012 1104 c1 -34 3 -46 5 -27 2 17 10 33 18 35 10 2 9 8 -6 27 l-19
23 2 -58z"/>
<path d="M887 1130 c-13 -16 -14 -20 -3 -20 9 0 16 -13 19 -32 3 -23 4 -16 5
20 1 28 1 52 -1 52 -1 0 -10 -9 -20 -20z"/>
<path d="M928 933 c17 -2 47 -2 65 0 17 2 3 4 -33 4 -36 0 -50 -2 -32 -4z"/>
<path d="M390 790 c0 -6 18 -13 40 -16 22 -4 43 -11 46 -15 3 -5 15 -9 27 -8
14 0 16 2 7 6 -8 2 -24 8 -35 13 -47 20 -85 29 -85 20z"/>
<path d="M548 743 c6 -2 18 -2 25 0 6 3 1 5 -13 5 -14 0 -19 -2 -12 -5z"/>
<path d="M1495 788 c-16 -5 -39 -13 -50 -18 -11 -5 -27 -11 -35 -13 -9 -4 -7
-6 7 -6 12 -1 24 3 27 8 3 4 24 11 46 15 22 3 40 11 40 16 0 6 -1 10 -2 9 -2
0 -16 -5 -33 -11z"/>
<path d="M1348 743 c6 -2 18 -2 25 0 6 3 1 5 -13 5 -14 0 -19 -2 -12 -5z"/>
<path d="M440 550 c-47 -11 -63 -35 -57 -89 3 -24 9 -46 14 -50 4 -3 19 -22
32 -41 25 -37 111 -110 130 -110 6 0 11 -4 11 -9 0 -5 14 -12 30 -16 17 -4 30
-10 30 -15 0 -9 74 -30 135 -37 47 -5 115 20 115 42 0 8 5 15 10 15 17 0 11
37 -15 87 -30 58 -120 142 -183 172 -26 12 -55 26 -64 31 -15 8 -135 31 -148
29 -3 -1 -21 -5 -40 -9z m165 -38 c11 -6 41 -21 67 -33 63 -30 153 -114 183
-171 13 -27 20 -48 15 -48 -6 0 -10 -7 -10 -15 0 -18 -68 -48 -95 -41 -11 3
-41 10 -67 16 -27 6 -48 15 -48 20 0 5 -13 11 -30 15 -16 4 -30 11 -30 16 0 5
-5 9 -11 9 -19 0 -105 73 -130 110 -13 19 -27 37 -31 40 -3 3 -9 17 -13 32 -5
20 -1 32 15 48 20 20 30 22 94 18 39 -3 80 -10 91 -16z"/>
<path d="M1367 550 c-85 -15 -170 -58 -242 -125 -73 -66 -133 -185 -95 -185 6
0 10 -7 10 -15 0 -22 68 -47 115 -42 61 7 135 28 135 37 0 5 14 11 30 15 17 4
30 11 30 16 0 5 5 9 11 9 20 0 107 75 131 112 13 21 26 38 30 38 11 0 21 67
14 95 -3 13 -14 29 -24 34 -28 15 -94 20 -145 11z m134 -41 c15 -15 19 -28 14
-47 -4 -15 -10 -29 -13 -32 -4 -3 -18 -21 -31 -40 -25 -37 -111 -110 -130
-110 -6 0 -11 -4 -11 -9 0 -5 -13 -12 -30 -16 -16 -4 -30 -10 -30 -15 0 -5
-21 -14 -47 -20 -27 -6 -57 -13 -68 -16 -27 -7 -95 23 -95 41 0 8 -4 15 -10
15 -21 0 43 98 95 145 53 49 83 68 155 98 56 24 62 25 123 26 45 1 61 -3 78
-20z"/>
</g>
</svg>
