<?xml version="1.0" standalone="no"?>
<!DOCTYPE svg PUBLIC "-//W3C//DTD SVG 20010904//EN"
 "http://www.w3.org/TR/2001/REC-SVG-20010904/DTD/svg10.dtd">
<svg version="1.0" xmlns="http://www.w3.org/2000/svg"
 width="100.000000pt" height="100.000000pt" viewBox="0 0 100.000000 100.000000"
 preserveAspectRatio="xMidYMid meet">
<metadata>
Created by potrace 1.16, written by Peter Selinger 2001-2019
</metadata>
<g transform="translate(0.000000,100.000000) scale(0.100000,-0.100000)"
fill="#000000" stroke="none">
<path d="M500 980 c0 -11 5 -20 10 -20 6 0 10 9 10 20 0 11 -4 20 -10 20 -5 0
-10 -9 -10 -20z"/>
<path d="M560 970 c0 -27 -3 -30 -30 -30 -28 0 -30 -3 -30 -35 l0 -35 -65 0
c-63 0 -65 -1 -65 -25 0 -14 5 -25 10 -25 6 0 10 6 10 14 0 7 11 16 25 18 21
4 25 1 25 -18 0 -24 -2 -24 -95 -24 l-95 0 0 -27 c1 -24 2 -26 13 -12 7 8 20
18 30 22 13 5 17 1 17 -18 0 -24 -3 -25 -60 -25 l-60 0 0 -30 0 -30 -65 0 -65
0 0 -30 c0 -27 -3 -30 -30 -30 -17 0 -30 -4 -30 -10 0 -5 13 -10 30 -10 25 0
30 -4 30 -25 0 -21 -5 -25 -30 -25 -17 0 -30 -4 -30 -10 0 -5 18 -10 40 -10
39 0 40 1 40 35 0 33 2 35 35 35 32 0 35 2 35 30 0 29 1 30 48 30 51 0 72 12
72 42 0 13 8 18 30 18 27 0 30 3 30 30 l0 30 65 0 65 0 0 30 c0 29 1 30 48 30
53 0 72 12 72 47 0 13 5 23 10 23 6 0 10 -20 10 -45 0 -43 -1 -45 -30 -45
l-30 0 0 -60 0 -60 -30 0 c-27 0 -30 -3 -30 -30 0 -16 -4 -30 -10 -30 -5 0
-10 8 -10 18 0 33 -22 42 -97 42 l-73 0 0 -30 c0 -27 -3 -30 -30 -30 -28 0
-30 -3 -30 -35 0 -32 -2 -35 -30 -35 -27 0 -30 -3 -30 -30 0 -27 -3 -30 -30
-30 -27 0 -30 -3 -30 -30 0 -20 -5 -30 -15 -30 -8 0 -15 8 -15 18 0 10 -5 23
-12 30 -14 14 -68 16 -68 2 0 -5 13 -10 30 -10 23 0 30 -4 30 -20 0 -16 -7
-20 -30 -20 -17 0 -30 -4 -30 -10 0 -6 38 -10 95 -10 l95 0 0 -30 c0 -27 -3
-30 -30 -30 -28 0 -30 -3 -30 -35 0 -33 -2 -35 -35 -35 -32 0 -35 -2 -35 -30
0 -27 -3 -30 -30 -30 -17 0 -30 -4 -30 -10 0 -5 13 -10 30 -10 23 0 30 -4 30
-20 0 -16 -7 -20 -30 -20 -17 0 -30 -4 -30 -10 0 -14 54 -12 68 2 7 7 12 20
12 30 0 12 8 18 23 18 28 0 47 17 47 42 0 11 7 18 18 18 24 0 42 19 42 46 0
17 7 23 28 26 21 2 28 9 30 31 2 18 9 27 21 27 29 0 41 22 41 72 0 47 1 48 30
48 28 0 30 3 30 35 0 24 5 35 15 35 11 0 15 -12 15 -45 0 -40 -2 -45 -23 -45
-39 0 -47 -18 -47 -107 l0 -83 -30 0 c-27 0 -30 -3 -30 -30 0 -22 -5 -30 -18
-30 -30 0 -42 -21 -42 -72 0 -47 -1 -48 -30 -48 -28 0 -30 -3 -30 -35 l0 -35
-85 0 c-50 0 -85 -4 -85 -10 0 -5 25 -10 55 -10 54 0 55 0 55 -30 0 -17 5 -30
10 -30 6 0 10 13 10 30 l0 30 60 0 60 0 0 65 c0 63 1 65 25 65 31 0 32 -13 3
-40 l-22 -20 27 0 27 0 0 90 c0 89 0 90 25 90 19 0 23 -4 18 -17 -4 -10 -14
-23 -22 -30 -14 -11 -12 -12 12 -13 l27 0 0 -125 c0 -77 4 -125 10 -125 6 0
10 13 10 30 0 20 5 30 15 30 8 0 15 5 15 10 0 6 -7 10 -15 10 -23 0 -18 27 8
35 l22 8 -22 4 c-14 3 -23 12 -23 23 0 10 10 21 23 25 l22 8 -22 4 c-14 3 -23
12 -23 23 0 10 10 21 23 25 20 7 19 8 -10 12 l-33 4 0 95 0 94 35 0 35 0 0 95
c0 88 1 95 20 95 26 0 27 -37 3 -56 -16 -12 -15 -13 10 -14 l27 0 0 -125 0
-125 -24 0 c-20 0 -23 4 -18 22 3 13 13 28 21 35 14 11 12 12 -11 13 -24 0
-28 4 -28 28 -1 23 -2 25 -13 11 -7 -8 -21 -19 -32 -24 -17 -8 -16 -9 13 -13
l32 -3 0 -190 c0 -119 4 -189 10 -189 6 0 10 55 10 145 l0 145 30 0 30 0 0
125 0 125 30 0 c28 0 30 3 30 35 0 32 2 35 30 35 27 0 30 3 30 30 0 28 3 30
35 30 32 0 35 2 35 30 0 27 3 30 30 30 27 0 30 3 30 30 0 27 3 30 30 30 27 0
30 3 30 30 0 27 3 30 30 30 28 0 30 3 30 34 0 32 3 35 33 38 29 3 32 6 35 41
2 21 -1 37 -7 37 -6 0 -11 -13 -11 -30 0 -25 -4 -30 -25 -30 -21 0 -25 5 -25
30 0 17 -4 30 -10 30 -5 0 -10 -13 -10 -30 0 -27 -3 -30 -30 -30 l-30 0 0 -65
0 -65 -30 0 c-27 0 -30 -3 -30 -30 0 -27 -3 -30 -30 -30 -27 0 -30 -3 -30 -30
0 -28 -3 -30 -35 -30 -32 0 -35 -2 -35 -30 0 -30 0 -30 -56 -30 -37 0 -53 -4
-48 -11 3 -6 15 -9 25 -6 15 4 19 0 19 -24 0 -26 -4 -29 -30 -29 l-30 0 0 65
0 65 30 0 c27 0 30 3 30 30 0 27 3 30 30 30 23 0 30 -4 30 -20 0 -11 5 -20 10
-20 6 0 10 5 10 10 0 6 7 10 15 10 8 0 15 5 15 10 0 6 -11 10 -25 10 -24 0
-25 3 -25 60 l0 60 35 0 35 0 0 65 c0 37 -4 65 -10 65 -5 0 -10 -9 -10 -20 0
-11 -7 -20 -15 -20 -8 0 -15 9 -15 20 0 11 -4 20 -10 20 -5 0 -10 -13 -10 -30
0 -25 -4 -30 -23 -30 -20 0 -23 4 -19 30 3 18 0 30 -7 30 -6 0 -11 -13 -11
-30z m110 -55 c0 -20 -5 -25 -25 -25 -20 0 -25 5 -25 25 0 20 5 25 25 25 20 0
25 -5 25 -25z m200 -15 c0 -25 -4 -30 -24 -30 -19 0 -22 4 -19 24 3 14 13 27
22 29 9 3 17 5 19 6 1 0 2 -12 2 -29z m-310 -5 c0 -18 -5 -25 -20 -25 -15 0
-20 7 -20 25 0 18 5 25 20 25 15 0 20 -7 20 -25z m40 -104 c0 -10 -9 -21 -20
-24 -16 -4 -20 0 -20 19 0 17 6 24 20 24 13 0 20 -7 20 -19z m-350 -81 c0 -13
-7 -20 -20 -20 -13 0 -20 7 -20 20 0 13 7 20 20 20 13 0 20 -7 20 -20z m120
-85 l0 -65 -30 0 c-25 0 -30 4 -30 25 0 14 -4 25 -10 25 -5 0 -10 -5 -10 -11
0 -7 -8 -18 -17 -25 -16 -12 -15 -13 10 -14 23 0 27 -4 27 -30 0 -27 -3 -30
-30 -30 l-30 0 0 65 0 65 30 0 c27 0 30 3 30 30 0 27 3 30 30 30 l30 0 0 -65z
m70 35 c0 -25 -4 -30 -25 -30 -21 0 -25 5 -25 30 0 25 4 30 25 30 21 0 25 -5
25 -30z m-310 -10 c0 -15 -7 -20 -25 -20 -18 0 -25 5 -25 20 0 15 7 20 25 20
18 0 25 -5 25 -20z m103 -109 c-3 -11 -13 -21 -24 -24 -15 -4 -19 0 -19 19 0
19 5 24 24 24 19 0 23 -4 19 -19z m-60 -60 c-3 -11 -13 -21 -24 -24 -15 -4
-19 0 -19 19 0 19 5 24 24 24 19 0 23 -4 19 -19z m77 -11 c0 -27 -3 -30 -30
-30 -27 0 -30 3 -30 30 0 27 3 30 30 30 27 0 30 -3 30 -30z m170 10 c0 -15 -7
-20 -25 -20 -18 0 -25 5 -25 20 0 15 7 20 25 20 18 0 25 -5 25 -20z m-110 -20
c0 -13 -7 -20 -20 -20 -13 0 -20 7 -20 20 0 13 7 20 20 20 13 0 20 -7 20 -20z
m-60 -60 c0 -13 -7 -20 -20 -20 -13 0 -20 7 -20 20 0 13 7 20 20 20 13 0 20
-7 20 -20z m-60 -65 c0 -18 -5 -25 -20 -25 -15 0 -20 7 -20 25 0 18 5 25 20
25 15 0 20 -7 20 -25z m-60 -65 c0 -15 -7 -20 -25 -20 -18 0 -25 5 -25 20 0
15 7 20 25 20 18 0 25 -5 25 -20z m160 -40 c0 -13 -7 -20 -20 -20 -13 0 -20 7
-20 20 0 13 7 20 20 20 13 0 20 -7 20 -20z m-57 -124 c-3 -13 -14 -26 -24 -29
-15 -4 -19 0 -19 24 0 24 4 29 24 29 19 0 22 -4 19 -24z"/>
<path d="M330 640 c0 -5 5 -10 10 -10 6 0 10 5 10 10 0 6 -4 10 -10 10 -5 0
-10 -4 -10 -10z"/>
<path d="M730 980 c0 -11 -4 -20 -10 -20 -5 0 -10 -4 -10 -10 0 -5 9 -10 20
-10 16 0 20 7 20 30 0 17 -4 30 -10 30 -5 0 -10 -9 -10 -20z"/>
<path d="M440 915 c0 -14 5 -25 10 -25 6 0 10 5 10 11 0 7 8 18 18 25 15 12
14 13 -10 14 -23 0 -28 -4 -28 -25z"/>
<path d="M735 913 c-4 -13 -11 -23 -16 -23 -5 0 -9 -4 -9 -10 0 -5 9 -10 20
-10 15 0 20 -7 20 -26 l0 -26 25 23 24 24 -24 3 c-18 3 -25 10 -28 35 -4 29
-5 30 -12 10z"/>
<path d="M310 850 c0 -24 6 -25 26 -6 19 20 18 26 -6 26 -13 0 -20 -7 -20 -20z"/>
<path d="M675 849 c-5 -8 -19 -19 -30 -24 -17 -8 -16 -9 13 -13 24 -2 32 -8
32 -23 0 -23 6 -24 26 -5 19 20 18 26 -5 26 -14 0 -21 8 -23 28 -2 22 -5 24
-13 11z"/>
<path d="M932 818 c-7 -7 -12 -20 -12 -30 0 -14 -8 -18 -35 -18 -32 0 -35 -2
-35 -30 0 -27 -3 -30 -30 -30 -27 0 -30 -3 -30 -30 0 -29 -1 -30 -48 -30 -53
0 -72 -12 -72 -47 0 -20 -5 -23 -35 -23 l-35 0 0 -185 c0 -171 -1 -185 -18
-185 -34 0 -42 -21 -42 -117 0 -55 4 -93 10 -93 6 0 10 38 10 95 0 88 1 95 20
95 25 0 26 -28 3 -46 -17 -13 -17 -13 0 -14 14 0 17 -10 17 -65 0 -37 4 -65
10 -65 6 0 10 100 10 280 l0 280 29 0 c24 0 28 -3 24 -20 -3 -11 -12 -20 -19
-20 -8 0 -14 -4 -14 -10 0 -5 7 -10 15 -10 10 0 15 -10 15 -30 0 -20 -5 -30
-15 -30 -8 0 -15 -4 -15 -10 0 -5 7 -10 15 -10 11 0 15 -12 15 -44 0 -36 -4
-45 -22 -51 -23 -8 -22 -8 3 -12 21 -3 26 -9 22 -24 -3 -10 -12 -19 -19 -19
-8 0 -14 -4 -14 -10 0 -5 7 -10 15 -10 8 0 15 -9 15 -20 0 -11 -7 -20 -15 -20
-8 0 -15 -4 -15 -10 0 -5 11 -10 25 -10 l25 0 0 185 0 185 30 0 c28 0 30 3 30
35 l0 35 60 0 60 0 0 30 c0 28 3 30 35 30 32 0 35 2 35 30 0 27 3 30 30 30 17
0 30 5 30 10 0 6 -13 10 -30 10 -23 0 -30 4 -30 20 0 16 7 20 30 20 17 0 30 5
30 10 0 14 -54 12 -68 -2z m-9 -88 c-3 -13 -14 -20 -29 -20 -17 0 -24 6 -24
20 0 15 7 20 29 20 24 0 28 -3 24 -20z m-70 -59 c-3 -11 -13 -21 -24 -24 -15
-4 -19 0 -19 19 0 19 5 24 24 24 19 0 23 -4 19 -19z m-123 -66 c0 -18 -5 -25
-20 -25 -15 0 -20 7 -20 25 0 18 5 25 20 25 15 0 20 -7 20 -25z"/>
<path d="M190 790 c0 -24 6 -25 26 -6 19 20 18 26 -6 26 -13 0 -20 -7 -20 -20z"/>
<path d="M130 723 c1 -24 3 -26 13 -13 7 8 19 21 27 28 12 10 9 12 -13 12 -23
0 -27 -4 -27 -27z"/>
<path d="M960 700 c0 -5 9 -10 20 -10 11 0 20 5 20 10 0 6 -9 10 -20 10 -11 0
-20 -4 -20 -10z"/>
<path d="M578 678 c9 -9 15 -9 24 0 9 9 7 12 -12 12 -19 0 -21 -3 -12 -12z"/>
<path d="M546 671 c-4 -7 -5 -15 -2 -18 9 -9 19 4 14 18 -4 11 -6 11 -12 0z"/>
<path d="M790 599 c0 -7 -8 -18 -17 -25 -16 -12 -15 -13 10 -14 22 0 27 4 27
25 0 14 -4 25 -10 25 -5 0 -10 -5 -10 -11z"/>
<path d="M450 510 c0 -5 9 -10 20 -10 11 0 20 5 20 10 0 6 -9 10 -20 10 -11 0
-20 -4 -20 -10z"/>
<path d="M460 450 c0 -5 5 -10 10 -10 6 0 10 5 10 10 0 6 -4 10 -10 10 -5 0
-10 -4 -10 -10z"/>
<path d="M130 410 c0 -5 5 -10 10 -10 6 0 10 5 10 10 0 6 -4 10 -10 10 -5 0
-10 -4 -10 -10z"/>
<path d="M60 355 c0 -14 5 -25 10 -25 6 0 10 7 10 15 0 8 7 15 15 15 8 0 15 5
15 10 0 6 -11 10 -25 10 -20 0 -25 -5 -25 -25z"/>
<path d="M0 300 c0 -5 9 -10 20 -10 11 0 20 5 20 10 0 6 -9 10 -20 10 -11 0
-20 -4 -20 -10z"/>
<path d="M390 300 c0 -5 7 -10 15 -10 8 0 15 5 15 10 0 6 -7 10 -15 10 -8 0
-15 -4 -15 -10z"/>
<path d="M177 43 c-11 -10 -8 -43 3 -43 6 0 10 11 10 25 0 26 -2 29 -13 18z"/>
</g>
</svg>
