<?xml version="1.0" standalone="no"?>
<!DOCTYPE svg PUBLIC "-//W3C//DTD SVG 20010904//EN"
 "http://www.w3.org/TR/2001/REC-SVG-20010904/DTD/svg10.dtd">
<svg version="1.0" xmlns="http://www.w3.org/2000/svg"
 width="255.000000pt" height="255.000000pt" viewBox="0 0 255.000000 255.000000"
 preserveAspectRatio="xMidYMid meet">
<metadata>
Created by potrace 1.16, written by Peter Selinger 2001-2019
</metadata>
<g transform="translate(0.000000,255.000000) scale(0.100000,-0.100000)"
fill="#000000" stroke="none">
<path d="M1251 2435 c-27 -62 -100 -153 -158 -197 -26 -20 -109 -71 -183 -113
-168 -96 -212 -128 -288 -210 -43 -45 -76 -96 -112 -167 -57 -115 -80 -207
-86 -342 l-4 -89 -36 -13 c-49 -17 -100 -68 -120 -121 -26 -68 -16 -192 23
-276 36 -75 105 -149 159 -169 36 -13 78 -67 109 -140 32 -79 115 -205 163
-250 70 -66 136 -96 245 -112 51 -8 121 -27 157 -42 56 -25 78 -28 160 -28 81
0 104 4 160 27 36 16 104 34 152 42 193 30 296 118 412 352 55 113 69 131 111
150 61 27 139 112 165 180 72 189 23 355 -116 392 -23 6 -24 10 -28 111 -10
239 -114 448 -286 578 -41 31 -142 95 -224 142 -125 71 -159 96 -217 158 -37
40 -80 97 -95 127 -14 30 -30 55 -35 55 -4 0 -17 -20 -28 -45z m48 -42 c20
-43 102 -140 151 -177 25 -19 105 -69 179 -111 216 -124 300 -196 379 -330 66
-112 93 -209 101 -353 l6 -124 39 -13 c78 -27 135 -110 136 -195 0 -66 -26
-158 -62 -213 -33 -51 -106 -114 -144 -123 -24 -6 -71 -72 -98 -137 -33 -81
-113 -201 -166 -250 -72 -66 -142 -97 -242 -108 -44 -5 -97 -18 -118 -29 -22
-11 -69 -27 -105 -35 -79 -19 -158 -8 -245 31 -32 15 -89 29 -134 34 -90 11
-159 40 -224 96 -55 47 -93 102 -172 253 -60 115 -68 126 -114 151 -121 64
-196 194 -196 337 0 76 63 163 136 188 l39 13 7 119 c7 137 35 237 98 349 77
139 162 213 400 349 74 43 154 93 177 111 44 37 143 161 143 182 0 21 16 13
29 -15z"/>
<path d="M1245 2331 c-7 -22 -140 -151 -155 -151 -6 0 -10 -11 -10 -25 0 -15
6 -25 14 -25 11 0 14 -11 13 -42 -2 -39 0 -43 20 -41 18 2 21 -2 20 -30 -2
-25 2 -32 16 -31 12 1 17 -6 17 -27 0 -21 5 -29 18 -29 13 -1 11 -4 -8 -15
-35 -20 -40 -19 -40 10 0 20 -5 25 -27 25 -21 0 -24 3 -15 12 7 7 12 25 12 40
0 25 -4 28 -31 28 -26 0 -29 2 -20 14 7 8 11 27 9 43 -3 25 -8 28 -41 31 -29
3 -54 -6 -105 -33 -206 -113 -313 -211 -381 -349 -56 -112 -74 -196 -75 -342
l-1 -122 -43 -6 c-76 -10 -113 -49 -125 -131 -9 -54 9 -156 36 -213 29 -63
103 -136 155 -153 41 -14 45 -18 76 -96 107 -259 212 -364 385 -383 54 -5 97
-18 146 -41 66 -32 76 -34 175 -34 98 0 110 2 175 33 48 23 94 36 146 42 95
11 161 41 219 100 50 50 124 176 172 291 29 72 34 78 71 89 59 17 139 101 166
174 63 169 23 306 -95 321 l-49 7 0 131 c-1 150 -19 230 -83 351 -66 125 -160
210 -369 329 -87 50 -128 59 -136 30 -3 -10 -5 -2 -6 18 -1 31 -7 41 -42 64
-43 31 -139 131 -139 146 0 5 -13 9 -29 9 -20 0 -32 -6 -36 -19z m45 -10 c0
-16 109 -129 146 -151 23 -15 34 -29 34 -46 0 -26 -9 -31 -27 -13 -15 15 -33
3 -33 -21 0 -25 -18 -36 -26 -16 -7 19 -33 21 -39 4 -24 -70 -24 -69 -45 -56
-18 12 -24 8 -61 -32 l-40 -45 7 34 c6 32 5 33 -19 27 -24 -6 -25 -5 -20 34 6
43 3 46 -29 29 -18 -10 -19 -8 -12 13 13 41 10 63 -8 62 -23 -2 -23 13 0 20
24 8 140 123 147 147 6 19 25 27 25 10z m337 -267 c202 -116 290 -197 358
-325 57 -109 77 -202 77 -356 l0 -133 45 0 c91 0 129 -55 121 -174 -8 -129
-87 -244 -190 -278 -37 -13 -43 -20 -58 -64 -40 -117 -146 -294 -202 -336 -60
-46 -117 -69 -186 -75 -44 -3 -94 -17 -146 -40 -129 -56 -228 -53 -350 9 -22
12 -73 24 -113 29 -39 4 -94 17 -121 29 -92 40 -185 161 -263 343 -16 38 -29
75 -29 82 0 7 -12 15 -27 18 -113 23 -213 169 -213 310 0 96 46 147 132 147
l43 0 -3 125 c-3 100 0 140 17 206 54 212 146 323 389 467 75 44 112 60 127
56 29 -9 29 -10 6 -42 -32 -45 -28 -56 19 -49 44 6 47 2 24 -31 -22 -32 -11
-56 21 -48 23 6 25 4 19 -18 -3 -14 -3 -29 0 -35 8 -12 60 4 99 31 23 17 27
17 27 4 0 -27 24 -18 65 24 33 34 40 37 50 24 10 -14 15 -11 43 20 18 20 32
41 32 46 0 5 10 9 23 7 17 -1 26 7 42 40 11 23 21 42 22 43 1 0 46 -25 100
-56z m-149 14 c-7 -20 -48 -23 -48 -4 0 11 9 16 26 16 16 0 24 -5 22 -12z
m-82 -28 c24 0 24 -1 8 -25 -10 -15 -26 -25 -39 -25 -22 0 -23 2 -12 36 6 20
13 31 15 25 2 -6 15 -11 28 -11z m-91 -80 c-17 -18 -33 -26 -46 -23 -18 5 -18
6 4 32 15 19 29 26 45 23 l23 -5 -26 -27z"/>
<path d="M953 1128 c-6 -7 -12 -22 -14 -32 -5 -27 -29 -33 -29 -7 0 11 -5 23
-11 27 -16 9 -30 -16 -27 -48 3 -31 -15 -39 -20 -8 -2 11 -10 20 -19 20 -13 0
-14 -9 -9 -52 l6 -53 -20 24 c-16 18 -24 21 -32 13 -9 -9 -6 -19 10 -42 29
-39 28 -54 -2 -46 -14 3 -28 1 -31 -4 -9 -15 14 -40 36 -40 12 0 19 -7 19 -20
0 -54 75 -134 135 -146 160 -30 281 118 216 263 -11 22 -33 51 -49 63 -26 19
-29 26 -19 41 18 29 -1 35 -28 9 -26 -24 -29 -22 -25 18 2 30 -18 28 -32 -3
-13 -29 -33 -28 -33 2 0 28 -10 37 -22 21z m107 -110 c43 -29 67 -64 75 -108
l7 -35 -24 27 c-28 31 -59 48 -90 48 -30 0 -84 -33 -98 -61 -16 -28 -15 -86 0
-105 20 -23 6 -26 -22 -4 -58 45 -74 133 -35 191 44 66 127 87 187 47z m26
-123 c14 -14 34 -25 45 -25 51 0 -38 -113 -103 -131 -41 -11 -99 -2 -77 12 11
6 11 14 1 42 -18 50 -15 65 17 98 38 37 82 39 117 4z"/>
<path d="M1612 1110 c-20 -35 -43 -40 -39 -9 3 33 -21 35 -29 2 -10 -39 -44
-61 -44 -27 0 28 -25 9 -28 -22 -4 -33 -22 -58 -22 -30 0 10 -6 16 -12 14 -8
-3 -16 -35 -20 -84 -11 -118 12 -175 89 -221 37 -22 53 -25 107 -21 51 3 71
10 101 32 48 37 77 102 74 163 -2 33 1 48 14 58 25 18 21 28 -8 23 -35 -7 -56
19 -30 38 27 20 6 41 -24 23 -16 -11 -23 -11 -33 -1 -9 9 -8 16 5 30 16 18 14
32 -5 32 -4 0 -17 -9 -28 -20 -26 -26 -41 -17 -33 20 7 40 -13 39 -35 0z m29
-80 c45 -13 84 -54 98 -105 13 -49 14 -55 2 -55 -5 0 -13 9 -16 20 -8 27 -55
50 -101 50 -72 0 -127 -88 -94 -151 16 -30 -5 -23 -34 11 -62 75 -39 182 49
221 47 22 49 22 96 9z m-181 -40 c0 -5 -4 -10 -10 -10 -5 0 -10 5 -10 10 0 6
5 10 10 10 6 0 10 -4 10 -10z m210 -85 c16 -8 31 -24 35 -34 3 -11 17 -21 31
-23 l24 -3 -25 -37 c-40 -58 -110 -88 -170 -72 -17 4 -20 13 -19 66 0 56 3 64
32 90 37 32 51 34 92 13z"/>
<path d="M1340 674 c-23 -14 -37 -14 -130 -2 -35 4 -38 -26 -4 -48 56 -37 189
-9 182 38 -4 27 -16 30 -48 12z m-37 -41 c-13 -2 -33 -2 -45 0 -13 2 -3 4 22
4 25 0 35 -2 23 -4z"/>
<path d="M1101 524 c-27 -35 -28 -58 0 -51 11 3 41 -4 67 -16 64 -29 170 -29
234 0 26 12 56 19 66 16 33 -8 34 14 4 48 l-29 33 -27 -22 c-61 -48 -191 -49
-257 -2 -34 25 -33 25 -58 -6z m53 -23 c4 -5 -3 -7 -14 -4 -23 6 -26 13 -6 13
8 0 17 -4 20 -9z m131 -26 c33 0 74 3 90 7 28 7 27 6 -5 -9 -40 -17 -153 -14
-186 6 -16 9 -14 10 11 4 17 -5 57 -8 90 -8z"/>
</g>
</svg>
