<?xml version="1.0" standalone="no"?>
<!DOCTYPE svg PUBLIC "-//W3C//DTD SVG 20010904//EN"
 "http://www.w3.org/TR/2001/REC-SVG-20010904/DTD/svg10.dtd">
<svg version="1.0" xmlns="http://www.w3.org/2000/svg"
 width="120.000000pt" height="120.000000pt" viewBox="0 0 120.000000 120.000000"
 preserveAspectRatio="xMidYMid meet">
<metadata>
Created by potrace 1.16, written by Peter Selinger 2001-2019
</metadata>
<g transform="translate(0.000000,120.000000) scale(0.100000,-0.100000)"
fill="#000000" stroke="none">
<path d="M122 678 l-53 -30 3 -81 3 -81 66 1 c55 0 75 5 127 34 l61 34 34 -33
c29 -28 42 -33 95 -37 34 -2 62 -1 62 1 0 3 -25 28 -56 56 -63 59 -65 55 38
112 l67 37 3 -103 3 -102 90 -1 90 -1 127 77 128 78 0 -80 0 -81 52 31 53 30
0 83 0 83 -46 3 c-42 3 -57 -4 -215 -101 l-169 -104 -5 101 -5 101 -94 3 c-51
1 -98 -1 -105 -7 -13 -11 -284 -161 -291 -161 -2 0 -6 38 -7 85 l-3 84 -53
-31z m528 -84 l0 -85 -27 3 c-28 3 -28 4 -31 86 l-3 82 31 0 30 0 0 -86z m450
32 c0 -47 -4 -57 -26 -75 -15 -12 -31 -21 -35 -21 -5 0 -9 29 -9 65 0 39 -4
65 -11 65 -5 0 -7 5 -4 10 3 6 24 10 46 10 l39 0 0 -54z m-940 -42 l0 -75 -32
3 c-32 3 -33 4 -36 54 -3 46 0 54 24 73 15 12 31 21 35 21 5 0 9 -34 9 -76z
m230 6 c0 -11 15 -34 33 -50 47 -43 15 -37 -43 9 -47 37 -48 39 -27 49 32 15
37 14 37 -8z"/>
</g>
</svg>
