<?xml version="1.0" standalone="no"?>
<!DOCTYPE svg PUBLIC "-//W3C//DTD SVG 20010904//EN"
 "http://www.w3.org/TR/2001/REC-SVG-20010904/DTD/svg10.dtd">
<svg version="1.0" xmlns="http://www.w3.org/2000/svg"
 width="180.000000pt" height="180.000000pt" viewBox="0 0 180.000000 180.000000"
 preserveAspectRatio="xMidYMid meet">
<metadata>
Created by potrace 1.16, written by Peter Selinger 2001-2019
</metadata>
<g transform="translate(0.000000,180.000000) scale(0.100000,-0.100000)"
fill="#000000" stroke="none">
<path d="M214 1042 c-100 -61 -94 -49 -94 -188 l0 -124 103 0 102 0 90 54 90
55 55 -54 55 -53 88 -4 c48 -3 87 -2 87 2 0 4 -39 44 -86 91 -64 62 -83 86
-73 92 37 22 232 137 233 137 1 0 1 -71 1 -157 l0 -158 138 -3 c92 -2 145 1
160 9 20 11 52 32 259 166 37 23 70 47 73 53 3 5 11 10 16 10 7 0 9 -44 7
-125 -2 -69 0 -125 4 -125 8 0 125 73 146 90 9 8 12 45 10 138 l-3 127 -70 3
-70 2 -112 -72 c-62 -40 -175 -113 -250 -163 -76 -49 -140 -91 -144 -93 -3 -1
-3 65 -1 148 3 110 1 154 -8 165 -16 20 -255 22 -291 2 -55 -29 -405 -241
-420 -253 -8 -8 -18 -14 -20 -14 -2 0 -3 63 -1 140 3 77 0 140 -4 140 -5 0
-36 -17 -70 -38z m526 -27 c-30 -19 -74 -45 -97 -57 -63 -34 -60 -65 14 -140
l57 -58 -39 0 c-34 0 -48 8 -94 50 -34 31 -64 50 -78 50 -13 0 -61 -22 -107
-50 -82 -49 -85 -50 -165 -50 l-82 0 3 105 3 105 52 30 53 30 0 -125 0 -125
25 0 c14 0 123 58 252 135 124 74 233 135 242 135 9 0 -9 -16 -39 -35z m258
-113 l3 -143 -53 3 -53 3 -3 143 -3 143 53 -3 53 -3 3 -143z m650 37 l-3 -110
-52 -30 -53 -31 0 111 0 111 -25 0 c-15 0 -74 -32 -138 -74 -201 -130 -247
-158 -258 -154 -7 2 87 68 207 145 210 136 221 142 272 142 l53 1 -3 -111z"/>
</g>
</svg>
