<?xml version="1.0" standalone="no"?>
<!DOCTYPE svg PUBLIC "-//W3C//DTD SVG 20010904//EN"
 "http://www.w3.org/TR/2001/REC-SVG-20010904/DTD/svg10.dtd">
<svg version="1.0" xmlns="http://www.w3.org/2000/svg"
 width="180.000000pt" height="180.000000pt" viewBox="0 0 180.000000 180.000000"
 preserveAspectRatio="xMidYMid meet">
<metadata>
Created by potrace 1.16, written by Peter Selinger 2001-2019
</metadata>
<g transform="translate(0.000000,180.000000) scale(0.100000,-0.100000)"
fill="#000000" stroke="none">
<path d="M160 1043 c-41 -25 -78 -51 -83 -57 -4 -6 -6 -69 -5 -141 l3 -130
103 -3 103 -3 99 60 99 60 58 -59 58 -59 90 -1 c50 -1 93 -1 98 -1 4 1 -37 43
-90 95 -54 52 -96 96 -93 98 8 6 244 145 253 149 5 2 9 -72 10 -166 l2 -170
147 -3 147 -3 193 128 c106 70 197 130 202 132 4 2 6 -58 5 -133 -2 -75 -2
-136 0 -136 8 0 157 95 164 105 4 5 6 71 5 145 l-3 135 -73 3 -74 3 -270 -176
c-148 -96 -271 -175 -273 -175 -3 0 -6 78 -7 173 l-3 172 -142 3 -142 3 -228
-137 c-126 -76 -235 -143 -244 -151 -8 -7 -19 -13 -23 -13 -4 0 -6 68 -4 150
2 83 1 150 -2 150 -3 0 -39 -21 -80 -47z m630 13 c0 -2 -47 -32 -105 -66 -132
-78 -134 -86 -38 -182 l67 -68 -50 0 c-47 0 -53 3 -104 55 -40 40 -62 55 -82
55 -15 0 -66 -24 -118 -55 l-91 -55 -84 0 -85 0 0 114 0 114 50 31 c28 17 52
31 55 31 3 0 5 -44 5 -99 0 -135 6 -161 37 -161 14 0 130 63 266 145 208 124
277 160 277 141z m212 -156 l3 -160 -57 0 -58 0 0 160 0 160 55 0 54 0 3 -160z
m698 41 l0 -119 -52 -31 -53 -30 -6 107 c-4 59 -7 110 -8 115 -4 27 -70 -5
-244 -118 -109 -71 -202 -125 -216 -125 -16 0 28 34 140 107 333 216 327 213
386 213 l53 0 0 -119z"/>
</g>
</svg>
