<?xml version="1.0" standalone="no"?>
<!DOCTYPE svg PUBLIC "-//W3C//DTD SVG 20010904//EN"
 "http://www.w3.org/TR/2001/REC-SVG-20010904/DTD/svg10.dtd">
<svg version="1.0" xmlns="http://www.w3.org/2000/svg"
 width="180.000000pt" height="180.000000pt" viewBox="0 0 180.000000 180.000000"
 preserveAspectRatio="xMidYMid meet">
<metadata>
Created by potrace 1.16, written by Peter Selinger 2001-2019
</metadata>
<g transform="translate(0.000000,180.000000) scale(0.100000,-0.100000)"
fill="#000000" stroke="none">
<path d="M155 1042 l-80 -48 0 -139 0 -140 103 -3 103 -3 98 60 99 59 58 -59
58 -59 98 0 97 0 -97 94 c-53 52 -95 96 -92 99 3 2 62 38 132 80 l128 76 2
-172 3 -172 147 -3 146 -3 117 76 c64 42 155 101 202 131 l85 55 -4 -136 c-2
-74 -2 -135 -1 -135 8 0 159 96 166 104 4 6 6 72 5 146 l-3 135 -73 3 -74 3
-181 -117 c-100 -65 -222 -144 -270 -176 -49 -32 -90 -58 -92 -58 -3 0 -6 78
-7 173 l-3 172 -141 3 -142 3 -218 -131 c-121 -72 -231 -140 -246 -151 -15
-10 -30 -19 -33 -19 -4 0 -5 68 -3 150 2 83 1 150 -2 150 -3 -1 -41 -22 -85
-48z m538 -49 c-141 -85 -142 -88 -41 -190 l72 -73 -50 0 c-47 0 -52 3 -109
60 -39 39 -67 60 -83 60 -12 0 -69 -27 -124 -60 -101 -60 -103 -60 -180 -60
-93 0 -90 -4 -86 140 l3 95 55 37 c30 21 58 38 63 38 4 0 7 -61 7 -135 l0
-135 24 0 c14 0 129 63 263 144 159 97 248 145 268 145 25 1 10 -11 -82 -66z
m315 -101 l3 -163 -58 3 -58 3 -3 163 -3 163 58 -3 58 -3 3 -163z m700 57 c3
-121 0 -128 -80 -174 l-48 -27 0 121 c0 119 0 121 -22 121 -13 0 -113 -58
-223 -130 -138 -89 -209 -130 -229 -130 -23 0 26 36 225 165 l254 165 60 -2
60 -3 3 -106z"/>
</g>
</svg>
