<?xml version="1.0" standalone="no"?>
<!DOCTYPE svg PUBLIC "-//W3C//DTD SVG 20010904//EN"
 "http://www.w3.org/TR/2001/REC-SVG-20010904/DTD/svg10.dtd">
<svg version="1.0" xmlns="http://www.w3.org/2000/svg"
 width="192.000000pt" height="192.000000pt" viewBox="0 0 192.000000 192.000000"
 preserveAspectRatio="xMidYMid meet">
<metadata>
Created by potrace 1.16, written by Peter Selinger 2001-2019
</metadata>
<g transform="translate(0.000000,192.000000) scale(0.100000,-0.100000)"
fill="#000000" stroke="none">
<path d="M100 1189 c-88 -49 -100 -58 -100 -79 0 -19 1 -19 20 -3 35 30 154
92 178 93 22 0 22 -1 22 -160 0 -100 4 -160 10 -160 6 0 10 3 10 8 0 8 57 42
71 42 6 0 15 5 22 10 27 23 166 110 176 110 6 0 11 5 11 10 0 6 6 10 13 10 7
0 37 17 67 37 30 20 80 49 110 65 54 27 59 28 226 28 130 0 174 -3 183 -13 6
-8 12 -81 13 -191 l3 -177 90 58 c50 32 91 61 93 65 2 5 8 8 14 8 5 0 42 23
81 50 39 28 76 50 83 50 7 0 14 3 16 8 3 7 108 77 180 121 33 20 49 22 133 19
71 -2 95 0 95 10 0 9 -28 12 -106 12 -117 0 -107 4 -249 -89 -38 -25 -71 -49
-73 -53 -2 -5 -9 -8 -16 -8 -7 0 -44 -22 -83 -50 -39 -27 -76 -50 -81 -50 -6
0 -12 -3 -14 -7 -1 -5 -36 -29 -75 -56 l-73 -47 0 168 c0 117 -4 172 -12 180
-9 9 -68 12 -203 12 -188 0 -191 -1 -245 -28 -30 -16 -80 -45 -110 -65 -30
-20 -60 -37 -67 -37 -7 0 -13 -4 -13 -10 0 -5 -5 -10 -11 -10 -10 0 -149 -87
-176 -110 -7 -5 -19 -10 -27 -10 -8 0 -18 -4 -21 -10 -19 -30 -25 3 -25 135
l0 145 -42 0 c-29 -1 -61 -11 -98 -31z"/>
<path d="M810 1059 c-47 -28 -103 -61 -126 -73 l-40 -21 98 -95 c68 -65 98
-101 98 -117 0 -23 -2 -23 -118 -23 -131 0 -133 1 -205 77 -45 47 -67 51 -100
18 -8 -7 -48 -32 -90 -55 l-77 -41 -125 3 c-95 2 -125 0 -125 -9 0 -10 34 -13
136 -13 l136 0 76 41 c41 22 82 47 89 55 21 20 27 18 65 -24 64 -71 68 -72
220 -72 l138 0 0 43 c0 40 -5 47 -85 125 -70 68 -82 84 -68 89 10 4 52 29 93
55 l75 48 3 -172 c2 -122 6 -174 15 -180 6 -4 98 -8 204 -8 163 0 196 3 225
18 18 9 35 20 36 25 2 4 10 7 18 7 8 0 14 3 14 8 0 4 21 20 48 37 26 16 49 32
52 35 3 3 16 10 30 16 14 7 50 30 80 53 30 22 60 41 67 41 10 0 13 -30 13
-125 l0 -125 41 0 c23 0 53 8 67 18 15 10 44 27 65 37 45 23 71 49 65 65 -2 7
-12 5 -28 -8 -14 -10 -47 -31 -75 -46 -27 -16 -54 -32 -60 -37 -5 -5 -19 -9
-32 -9 -23 0 -23 1 -23 140 0 79 -4 140 -9 140 -5 0 -16 -7 -25 -15 -8 -8 -18
-15 -23 -15 -5 0 -33 -19 -63 -41 -30 -23 -66 -46 -80 -53 -14 -6 -27 -13 -30
-16 -3 -3 -26 -19 -52 -35 -27 -17 -48 -33 -48 -37 0 -5 -6 -8 -14 -8 -8 0
-16 -3 -18 -7 -1 -5 -18 -16 -36 -25 -28 -15 -61 -18 -205 -18 -95 0 -178 4
-184 8 -9 6 -13 60 -15 190 l-3 183 -85 -52z"/>
</g>
</svg>
