<?xml version="1.0" standalone="no"?>
<!DOCTYPE svg PUBLIC "-//W3C//DTD SVG 20010904//EN"
 "http://www.w3.org/TR/2001/REC-SVG-20010904/DTD/svg10.dtd">
<svg version="1.0" xmlns="http://www.w3.org/2000/svg"
 width="256.000000pt" height="256.000000pt" viewBox="0 0 256.000000 256.000000"
 preserveAspectRatio="xMidYMid meet">
<metadata>
Created by potrace 1.16, written by Peter Selinger 2001-2019
</metadata>
<g transform="translate(0.000000,256.000000) scale(0.100000,-0.100000)"
fill="#000000" stroke="none">
<path d="M390 1455 c-46 -30 -90 -62 -97 -71 -18 -24 -18 -315 -1 -332 8 -8
49 -12 120 -12 122 0 119 -1 267 92 l94 59 76 -75 76 -76 115 0 115 0 -119
119 -118 118 153 94 c84 52 155 95 158 97 4 1 5 -87 3 -197 -3 -176 -2 -200
14 -215 15 -15 37 -17 183 -14 l166 3 235 158 235 157 3 -165 2 -164 93 55
c50 31 98 63 105 72 17 22 17 323 0 340 -7 7 -44 12 -94 12 l-82 0 -319 -212
c-175 -117 -321 -214 -325 -216 -4 -2 -9 92 -10 210 l-3 213 -175 3 -175 2
-293 -180 c-161 -99 -295 -180 -298 -180 -3 0 -4 81 -2 180 2 116 -1 180 -7
179 -5 0 -48 -25 -95 -54z m660 -63 c-181 -111 -180 -105 -56 -231 l89 -91
-74 0 -75 0 -69 70 c-47 48 -77 70 -93 70 -13 0 -75 -31 -137 -70 l-113 -70
-106 0 -106 0 0 149 0 149 80 51 80 51 0 -170 0 -170 28 0 c17 1 126 62 307
174 270 168 282 174 335 175 l54 1 -144 -88z m368 -119 l2 -203 -80 0 -80 0 0
205 0 206 78 -3 77 -3 3 -202z m836 191 c10 -26 7 -254 -4 -275 -10 -17 -103
-83 -137 -96 -10 -4 -13 20 -13 118 0 148 -5 169 -35 169 -12 0 -127 -70 -256
-155 -214 -141 -238 -155 -279 -155 -45 0 -43 1 260 204 l305 205 76 0 c61 1
78 -2 83 -15z"/>
</g>
</svg>
