<?xml version="1.0" standalone="no"?>
<!DOCTYPE svg PUBLIC "-//W3C//DTD SVG 20010904//EN"
 "http://www.w3.org/TR/2001/REC-SVG-20010904/DTD/svg10.dtd">
<svg version="1.0" xmlns="http://www.w3.org/2000/svg"
 width="80.000000pt" height="80.000000pt" viewBox="0 0 80.000000 80.000000"
 preserveAspectRatio="xMidYMid meet">
<metadata>
Created by potrace 1.16, written by Peter Selinger 2001-2019
</metadata>
<g transform="translate(0.000000,80.000000) scale(0.100000,-0.100000)"
fill="#000000" stroke="none">
<path d="M186 778 c-51 -26 -138 -114 -164 -164 -18 -36 -20 -59 -20 -215 0
-166 1 -176 24 -216 38 -65 74 -104 137 -144 l59 -38 176 0 c204 1 220 5 308
93 88 88 92 104 93 307 0 166 -1 176 -25 216 -38 65 -74 104 -137 144 l-59 38
-176 0 c-158 -1 -181 -3 -216 -21z m84 -5 c-107 -37 -196 -122 -239 -228 -11
-28 -20 -43 -20 -35 -1 34 52 124 103 176 55 54 142 104 181 103 11 0 0 -7
-25 -16z m338 -26 c83 -50 162 -148 177 -222 4 -19 -1 -13 -14 17 -42 103
-125 184 -236 232 -33 14 -35 16 -10 11 17 -4 54 -21 83 -38z m-45 -5 c77 -38
148 -111 185 -190 23 -49 27 -70 27 -152 0 -82 -4 -103 -27 -152 -37 -80 -107
-152 -187 -191 -60 -29 -74 -32 -161 -32 -84 0 -102 3 -157 29 -76 35 -153
113 -191 193 -23 50 -27 71 -27 153 0 82 4 103 27 152 47 100 137 180 241 214
26 9 73 13 124 11 67 -3 92 -9 146 -35z m-516 -516 c43 -89 120 -160 211 -197
30 -13 36 -18 17 -14 -39 8 -108 49 -154 90 -42 39 -97 127 -105 170 -4 17 -3
23 0 15 4 -8 17 -37 31 -64z m719 -1 c-14 -31 -49 -79 -80 -110 -52 -52 -142
-105 -176 -104 -8 0 6 8 32 18 103 41 214 156 234 243 4 18 9 27 11 21 3 -7
-7 -38 -21 -68z"/>
<path d="M272 719 c-32 -13 -75 -42 -110 -75 l-57 -53 68 -1 c53 0 67 -3 67
-15 0 -9 -10 -15 -26 -15 -17 0 -24 -4 -21 -12 3 -7 31 -89 62 -183 32 -93 58
-171 60 -173 1 -1 18 49 38 111 l37 114 -27 72 c-22 60 -29 71 -49 71 -15 0
-24 6 -24 15 0 12 18 15 106 15 80 0 105 -3 102 -12 -3 -7 -15 -14 -27 -16
-12 -2 -21 -9 -18 -15 2 -7 28 -84 56 -172 29 -88 55 -167 58 -175 7 -21 63
177 63 224 0 25 -11 58 -30 93 -16 29 -30 63 -30 76 0 26 28 57 51 57 25 1
-44 49 -99 70 -71 27 -178 26 -250 -1z m246 -29 c44 -19 50 -25 42 -40 -18
-34 -11 -96 20 -162 l30 -64 -15 -59 c-16 -59 -22 -72 -29 -64 -5 6 -76 222
-76 232 0 4 7 7 15 7 11 0 15 11 15 35 l0 36 -137 1 c-76 0 -155 0 -175 0 -44
0 -43 5 12 43 97 67 196 79 298 35z m-225 -150 c18 0 27 -12 45 -65 l24 -65
-23 -67 -22 -67 -43 119 c-48 134 -50 145 -29 145 8 0 15 6 16 13 0 10 2 10 6
0 2 -7 14 -13 26 -13z"/>
<path d="M701 523 c-1 -37 -20 -105 -65 -235 -36 -100 -63 -184 -61 -187 2 -2
31 23 63 55 74 75 102 143 101 247 0 43 -8 92 -19 122 l-18 50 -1 -52z m5
-196 c-16 -53 -53 -123 -62 -115 -2 3 13 53 33 112 27 75 39 99 41 81 2 -14
-4 -49 -12 -78z"/>
<path d="M72 501 c-19 -61 -15 -163 9 -225 22 -60 88 -140 140 -170 23 -14 31
-15 27 -5 -3 8 -40 108 -82 224 -43 115 -78 211 -80 212 -2 2 -8 -14 -14 -36z
m66 -181 c24 -67 46 -128 49 -138 15 -42 -39 25 -68 83 -29 60 -51 175 -33
175 5 0 28 -54 52 -120z"/>
<path d="M354 220 l-52 -150 25 -6 c28 -8 170 0 180 9 4 5 -95 298 -101 297
-1 0 -24 -68 -52 -150z m95 -48 l30 -80 -31 -6 c-42 -8 -80 -7 -96 2 -10 7 -5
29 20 100 21 58 35 87 40 78 4 -7 21 -50 37 -94z"/>
</g>
</svg>
