<?xml version="1.0" standalone="no"?>
<!DOCTYPE svg PUBLIC "-//W3C//DTD SVG 20010904//EN"
 "http://www.w3.org/TR/2001/REC-SVG-20010904/DTD/svg10.dtd">
<svg version="1.0" xmlns="http://www.w3.org/2000/svg"
 width="100.000000pt" height="100.000000pt" viewBox="0 0 100.000000 100.000000"
 preserveAspectRatio="xMidYMid meet">
<metadata>
Created by potrace 1.16, written by Peter Selinger 2001-2019
</metadata>
<g transform="translate(0.000000,100.000000) scale(0.100000,-0.100000)"
fill="#000000" stroke="none">
<path d="M90 581 c0 -5 8 -12 18 -14 9 -3 2 -5 -15 -6 -22 -1 -33 -6 -33 -16
0 -8 -7 -15 -15 -15 -12 0 -15 -15 -15 -75 l0 -75 80 0 c45 0 80 4 80 10 0 5
-7 7 -15 4 -8 -4 -15 -1 -15 5 0 6 14 11 30 11 20 0 30 5 30 15 0 10 10 15 30
15 20 0 30 -5 30 -15 0 -8 7 -15 15 -15 8 0 15 -7 15 -15 0 -12 14 -15 65 -15
53 0 65 3 65 16 0 10 -6 14 -15 10 -10 -4 -15 1 -15 14 0 13 -7 20 -20 20 -11
0 -20 7 -20 15 0 8 -5 15 -11 15 -6 0 -9 -7 -5 -15 3 -8 1 -15 -4 -15 -6 0
-10 14 -10 30 0 20 5 30 15 30 8 0 15 7 15 15 0 10 11 15 35 15 24 0 35 5 35
15 0 8 7 15 15 15 12 0 15 -17 15 -90 l0 -90 95 0 c78 0 95 3 95 15 0 10 10
15 30 15 20 0 30 5 30 15 0 10 10 15 30 15 17 0 30 4 30 10 0 5 -7 7 -15 4 -8
-4 -15 -1 -15 5 0 6 14 11 30 11 20 0 30 5 30 15 0 10 10 15 27 15 l26 0 -24
22 c-18 16 -19 19 -6 15 10 -4 23 -7 28 -7 5 0 9 -34 9 -75 0 -68 2 -75 20
-75 25 0 26 17 3 23 -10 3 3 5 30 6 l47 1 0 90 0 90 -65 0 c-36 0 -65 -4 -65
-10 0 -5 7 -7 15 -4 8 4 15 1 15 -5 0 -6 -13 -11 -30 -11 -20 0 -30 -5 -30
-15 0 -10 -10 -15 -30 -15 -16 0 -30 -5 -30 -11 0 -5 5 -7 10 -4 6 3 17 0 25
-8 13 -13 10 -14 -25 -10 -33 5 -40 3 -40 -11 0 -11 -9 -16 -30 -16 -16 0 -30
-5 -30 -11 0 -6 6 -9 13 -6 16 6 41 -20 27 -28 -6 -3 -10 -1 -10 4 0 6 -16 11
-35 11 -23 0 -35 -5 -35 -14 0 -8 -13 -16 -30 -18 l-30 -5 0 94 0 93 -95 0
c-61 0 -95 -4 -95 -11 0 -6 8 -8 19 -4 11 3 21 0 24 -7 3 -10 -6 -12 -34 -10
-31 3 -39 1 -39 -12 0 -11 -9 -16 -30 -16 -20 0 -30 -5 -30 -15 0 -10 -10 -15
-30 -15 -16 0 -30 -5 -30 -11 0 -6 7 -9 15 -5 8 3 15 1 15 -4 0 -6 -20 -10
-45 -10 -25 0 -45 -4 -45 -10 0 -5 6 -7 14 -4 7 3 16 -1 19 -8 3 -10 -4 -13
-29 -10 l-34 4 0 74 c0 67 -2 74 -20 74 -11 0 -20 -4 -20 -9z m433 -18 c-22
-4 -23 -9 -23 -90 0 -48 -3 -84 -6 -80 -4 4 -8 136 -4 172 0 3 12 4 28 4 23
-2 24 -2 5 -6z m415 0 c-10 -2 -28 -2 -40 0 -13 2 -5 4 17 4 22 1 32 -1 23 -4z
m-398 -78 c0 -30 -4 -55 -10 -55 -5 0 -10 25 -10 55 0 30 5 55 10 55 6 0 10
-25 10 -55z m410 15 c0 -29 -4 -40 -15 -40 -8 0 -15 -7 -15 -15 0 -8 -7 -15
-15 -15 -12 0 -15 13 -15 55 0 54 0 55 30 55 28 0 30 -2 30 -40z m-840 -25 c0
-43 -1 -45 -30 -45 -28 0 -30 2 -30 39 0 36 3 40 28 44 15 2 28 5 30 6 1 0 2
-19 2 -44z m207 9 c2 -13 1 -15 -4 -4 -3 8 -11 19 -17 23 -7 6 -6 7 4 4 8 -2
16 -12 17 -23z m-7 -54 c0 -5 -2 -10 -4 -10 -3 0 -8 5 -11 10 -3 6 -1 10 4 10
6 0 11 -4 11 -10z m650 0 c0 -5 -4 -10 -10 -10 -5 0 -10 5 -10 10 0 6 5 10 10
10 6 0 10 -4 10 -10z m-575 -21 c-4 -5 -21 -8 -38 -8 -30 2 -31 2 -4 6 15 2
27 9 27 14 0 6 5 7 10 4 6 -4 8 -11 5 -16z m-257 -6 c-16 -2 -40 -2 -55 0 -16
2 -3 4 27 4 30 0 43 -2 28 -4z m415 0 c-7 -2 -19 -2 -25 0 -7 3 -2 5 12 5 14
0 19 -2 13 -5z"/>
<path d="M148 548 c5 -71 10 -77 11 -15 0 31 -2 57 -7 57 -4 0 -6 -19 -4 -42z"/>
<path d="M576 568 c1 -13 3 -49 3 -80 1 -49 4 -58 19 -57 10 0 12 3 5 6 -9 3
-13 29 -13 79 0 41 -4 74 -8 74 -5 0 -8 -10 -6 -22z"/>
<path d="M30 549 c0 -5 5 -7 10 -4 6 3 10 8 10 11 0 2 -4 4 -10 4 -5 0 -10 -5
-10 -11z"/>
<path d="M310 549 c0 -5 5 -7 10 -4 6 3 10 8 10 11 0 2 -4 4 -10 4 -5 0 -10
-5 -10 -11z"/>
<path d="M390 510 c-13 -8 -12 -10 3 -10 9 0 17 5 17 10 0 12 -1 12 -20 0z"/>
<path d="M838 430 c2 -27 7 -50 10 -50 4 0 5 22 4 50 -2 27 -7 50 -10 50 -4 0
-5 -22 -4 -50z"/>
<path d="M675 390 c-3 -5 -1 -10 4 -10 6 0 11 5 11 10 0 6 -2 10 -4 10 -3 0
-8 -4 -11 -10z"/>
</g>
</svg>
