<?xml version="1.0" standalone="no"?>
<!DOCTYPE svg PUBLIC "-//W3C//DTD SVG 20010904//EN"
 "http://www.w3.org/TR/2001/REC-SVG-20010904/DTD/svg10.dtd">
<svg version="1.0" xmlns="http://www.w3.org/2000/svg"
 width="192.000000pt" height="192.000000pt" viewBox="0 0 192.000000 192.000000"
 preserveAspectRatio="xMidYMid meet">
<metadata>
Created by potrace 1.16, written by Peter Selinger 2001-2019
</metadata>
<g transform="translate(0.000000,192.000000) scale(0.100000,-0.100000)"
fill="#000000" stroke="none">
<path d="M26 1891 c-15 -16 -26 -35 -24 -43 2 -8 18 3 44 30 30 30 37 42 25
42 -10 0 -30 -13 -45 -29z"/>
<path d="M1874 1878 c26 -27 42 -38 44 -30 5 18 -47 72 -69 72 -12 0 -5 -12
25 -42z"/>
<path d="M243 1132 c-109 -67 -103 -55 -103 -217 0 -96 4 -145 12 -153 8 -8
50 -12 121 -12 l109 0 85 51 84 51 54 -51 54 -51 105 0 106 0 0 28 c0 20 -19
47 -70 101 -39 41 -67 78 -63 82 5 4 42 27 83 52 l75 46 3 -141 c1 -84 7 -147
14 -155 8 -10 48 -13 157 -13 l147 0 69 43 c39 24 116 73 173 110 l102 67 0
-110 0 -110 31 0 c18 0 57 15 93 37 103 61 96 46 96 214 0 174 3 169 -112 169
-83 0 -67 9 -391 -203 -81 -53 -150 -97 -151 -97 -2 0 -6 61 -8 136 -4 175 6
166 -193 162 l-150 -3 -207 -127 -207 -127 -3 127 -3 127 -25 2 c-15 2 -51
-13 -87 -35z m88 -131 c-1 -78 0 -141 2 -141 2 0 108 63 236 140 l233 141 141
-3 142 -3 0 -163 c0 -89 3 -162 6 -162 3 0 39 22 80 49 41 26 154 101 252 165
l178 116 73 0 c58 0 75 -3 80 -16 3 -9 6 -64 6 -123 0 -77 -4 -112 -15 -127
-11 -17 -143 -104 -157 -104 -2 0 -2 59 0 131 l3 130 -28 -19 c-15 -11 -102
-68 -191 -126 l-164 -107 -141 3 -142 3 0 163 c0 89 -1 162 -3 162 -2 0 -59
-33 -127 -73 l-123 -74 89 -89 c49 -49 89 -91 89 -94 0 -3 -42 -4 -94 -2 l-94
3 -52 55 c-28 30 -53 54 -54 54 -2 0 -45 -25 -95 -55 l-92 -55 -99 0 c-55 0
-100 4 -102 10 -1 5 -2 66 0 135 l3 125 70 41 c38 23 72 46 75 51 13 21 16 -7
15 -141z"/>
<path d="M0 71 c0 -22 54 -74 72 -69 8 2 -3 18 -29 44 -31 30 -43 37 -43 25z"/>
<path d="M1874 43 c-30 -31 -37 -43 -25 -43 22 0 74 54 69 72 -2 8 -18 -3 -44
-29z"/>
</g>
</svg>
