<?xml version="1.0" standalone="no"?>
<!DOCTYPE svg PUBLIC "-//W3C//DTD SVG 20010904//EN"
 "http://www.w3.org/TR/2001/REC-SVG-20010904/DTD/svg10.dtd">
<svg version="1.0" xmlns="http://www.w3.org/2000/svg"
 width="192.000000pt" height="192.000000pt" viewBox="0 0 192.000000 192.000000"
 preserveAspectRatio="xMidYMid meet">
<metadata>
Created by potrace 1.16, written by Peter Selinger 2001-2019
</metadata>
<g transform="translate(0.000000,192.000000) scale(0.100000,-0.100000)"
fill="#000000" stroke="none">
<path d="M140 1219 c-36 -21 -77 -48 -93 -59 l-27 -21 0 -154 c0 -191 -5 -185
150 -185 l106 0 87 50 c48 28 96 56 107 62 17 11 27 5 84 -50 l64 -62 109 0
c107 0 133 7 133 36 0 6 -41 51 -90 100 -49 48 -90 90 -90 93 0 7 141 90 182
108 l28 12 0 -154 c0 -206 -11 -195 196 -195 l156 0 97 59 c53 32 143 88 201
125 58 36 108 66 113 66 4 0 7 -51 7 -114 0 -151 5 -155 108 -101 41 22 88 52
104 67 l28 26 0 150 c0 186 3 182 -119 182 -98 0 -77 9 -311 -139 -63 -41
-144 -92 -180 -114 -36 -22 -84 -53 -107 -68 -23 -16 -44 -29 -47 -29 -3 0 -6
72 -6 159 0 132 -3 162 -16 175 -13 13 -44 16 -181 16 l-165 0 -106 -62 c-249
-144 -396 -228 -398 -228 -2 0 -5 64 -6 143 l-3 142 -25 2 c-14 1 -54 -16 -90
-38z m100 -129 l0 -160 38 23 c20 13 100 60 177 104 77 45 180 104 228 132
l89 51 166 -2 167 -3 5 -181 5 -182 96 62 c53 33 136 86 185 117 49 31 136 86
194 123 l105 67 90 -3 90 -3 2 -150 c2 -82 0 -155 -5 -161 -10 -15 -163 -104
-179 -104 -9 0 -13 35 -15 134 l-3 135 -110 -68 c-60 -37 -158 -98 -218 -134
l-107 -67 -153 0 c-106 0 -157 4 -165 12 -8 8 -12 64 -12 186 l0 173 -29 -20
c-16 -12 -32 -21 -36 -21 -12 0 -195 -112 -195 -119 0 -4 43 -48 95 -98 52
-51 95 -96 95 -102 0 -7 -37 -11 -108 -11 l-107 0 -62 60 c-34 33 -66 60 -73
60 -6 0 -57 -27 -112 -60 l-102 -60 -102 0 c-56 0 -109 3 -118 6 -14 5 -16 29
-16 158 l0 152 93 56 c50 31 95 57 100 57 4 1 7 -71 7 -159z"/>
</g>
</svg>
