<?xml version="1.0" standalone="no"?>
<!DOCTYPE svg PUBLIC "-//W3C//DTD SVG 20010904//EN"
 "http://www.w3.org/TR/2001/REC-SVG-20010904/DTD/svg10.dtd">
<svg version="1.0" xmlns="http://www.w3.org/2000/svg"
 width="180.000000pt" height="180.000000pt" viewBox="0 0 180.000000 180.000000"
 preserveAspectRatio="xMidYMid meet">
<metadata>
Created by potrace 1.16, written by Peter Selinger 2001-2019
</metadata>
<g transform="translate(0.000000,180.000000) scale(0.100000,-0.100000)"
fill="#000000" stroke="none">
<path d="M730 1150 c-11 -8 -7 -9 15 -4 37 8 45 14 19 14 -10 0 -26 -5 -34
-10z"/>
<path d="M1575 1150 c40 -9 112 -13 104 -6 -2 2 -35 6 -74 9 -54 4 -61 4 -30
-3z"/>
<path d="M818 1140 c-38 -3 -71 -10 -75 -14 -5 -4 8 -5 27 -1 19 3 74 7 121 8
48 1 82 5 75 9 -13 9 -52 8 -148 -2z"/>
<path d="M290 1131 c0 -5 7 -12 16 -15 14 -5 15 -4 4 9 -14 17 -20 19 -20 6z"/>
<path d="M1700 1130 c19 -13 30 -13 30 0 0 6 -10 10 -22 10 -19 0 -20 -2 -8
-10z"/>
<path d="M1003 1123 c9 -2 23 -2 30 0 6 3 -1 5 -18 5 -16 0 -22 -2 -12 -5z"/>
<path d="M1533 1123 c9 -2 23 -2 30 0 6 3 -1 5 -18 5 -16 0 -22 -2 -12 -5z"/>
<path d="M245 1110 c-3 -6 1 -7 9 -4 18 7 21 14 7 14 -6 0 -13 -4 -16 -10z"/>
<path d="M1746 1083 c-6 -14 -5 -15 5 -6 7 7 10 15 7 18 -3 3 -9 -2 -12 -12z"/>
<path d="M246 1081 c-3 -5 -35 -26 -71 -47 -38 -22 -68 -47 -71 -59 -3 -11 -3
-72 -2 -135 l3 -115 97 -3 c106 -3 92 -8 265 94 l32 19 53 -58 53 -57 97 0 96
0 -93 88 c-51 48 -93 89 -94 92 0 3 42 30 95 60 53 30 109 66 125 78 16 13 29
20 30 15 0 -4 1 -80 2 -168 l2 -160 143 -3 142 -3 185 122 c101 66 187 122
190 123 4 0 7 -56 6 -126 -2 -117 5 -149 24 -119 3 6 31 24 63 42 31 17 63 39
70 47 8 11 12 56 12 144 l0 128 -79 0 -80 0 -133 -86 c-73 -48 -178 -116 -233
-152 -55 -36 -110 -74 -122 -85 -13 -11 -23 -16 -23 -11 -1 5 0 82 0 172 l1
162 -147 0 -147 0 -219 -131 c-120 -72 -221 -135 -224 -140 -18 -29 -24 6 -24
136 0 131 -6 165 -24 136z m752 -185 c2 -104 0 -156 -7 -152 -6 4 -10 57 -10
127 -1 66 -3 125 -6 130 -4 5 -24 9 -46 9 -28 0 -39 4 -39 15 0 10 11 15 35
15 19 0 35 5 35 11 0 6 8 9 18 7 15 -3 17 -20 20 -162z m666 133 c12 -61 7
-186 -8 -198 -25 -21 -56 7 -56 51 0 28 -5 40 -21 48 -11 7 -18 18 -15 25 3 8
1 17 -5 20 -5 4 -7 11 -4 16 4 5 2 9 -4 9 -5 0 -12 -6 -14 -12 -3 -8 -6 -6 -6
5 -1 9 -5 17 -11 17 -5 0 -7 -8 -4 -17 5 -15 4 -16 -5 -3 -16 22 -13 30 9 30
14 0 18 5 13 16 -5 13 -2 15 15 10 11 -4 23 -3 26 2 2 4 22 9 44 10 37 3 40 1
46 -29z m-888 4 c-4 -5 -32 -11 -54 -12 -7 -1 -10 -5 -7 -11 3 -6 -1 -7 -10
-4 -11 5 -14 2 -9 -10 3 -9 2 -16 -4 -16 -6 0 -12 6 -15 13 -5 14 72 57 91 50
7 -3 11 -8 8 -10z m-536 -102 c3 -99 3 -147 1 -168 -1 -9 -17 -13 -46 -13 -31
0 -45 4 -44 13 1 6 0 41 -2 77 l-3 65 -6 -75 -6 -75 -2 93 c-2 79 0 92 14 92
14 0 14 3 4 15 -11 13 -10 18 6 30 10 8 25 15 32 15 7 0 15 6 18 13 3 8 11 14
18 14 10 0 14 -24 16 -96z m417 49 c1 -11 -2 -22 -6 -25 -7 -3 -8 31 -2 43 3
7 7 0 8 -18z m313 -108 l0 -128 -40 4 -40 4 0 124 0 124 40 0 40 0 0 -128z
m524 107 c-3 -5 -12 -9 -20 -9 -8 0 -14 -4 -14 -10 0 -5 -7 -7 -15 -4 -8 4
-15 14 -15 23 0 13 2 13 9 3 7 -12 11 -11 22 1 14 15 43 12 33 -4z m-869 -9
c-3 -5 -11 -10 -16 -10 -6 0 -7 5 -4 10 3 6 11 10 16 10 6 0 7 -4 4 -10z m-21
-29 c-14 -4 -20 -13 -18 -26 2 -11 -3 -30 -11 -42 -11 -16 -12 -24 -3 -29 6
-4 8 -3 5 3 -4 6 1 17 10 24 12 10 14 10 9 2 -4 -7 -2 -13 3 -13 7 0 7 -7 -1
-20 -14 -22 -40 -19 -70 7 -10 9 -27 13 -38 10 -31 -8 -21 25 13 40 15 7 29
11 31 10 2 -1 14 10 25 25 16 19 27 25 43 20 23 -6 23 -6 2 -11z m821 1 c-3
-3 -11 0 -18 7 -9 10 -8 11 6 5 10 -3 15 -9 12 -12z m-25 -22 c-19 -13 -30
-13 -30 0 0 6 10 10 23 10 18 0 19 -2 7 -10z m188 -39 c-3 -34 0 -41 20 -51
20 -9 22 -13 11 -26 -7 -8 -21 -20 -31 -25 -17 -9 -18 -4 -18 66 0 48 4 75 11
75 7 0 10 -15 7 -39z m-239 10 c-7 -10 -19 -18 -28 -17 -9 0 -15 -5 -13 -12 1
-8 -2 -11 -8 -7 -5 3 -10 2 -10 -3 0 -6 -13 -14 -28 -20 -16 -5 -35 -16 -43
-23 -29 -29 -68 -49 -74 -39 -3 6 -1 10 5 10 6 0 9 4 5 9 -3 5 -1 12 5 16 5 3
10 1 10 -5 0 -6 5 -8 10 -5 6 4 7 11 4 17 -4 7 -2 8 4 4 14 -8 55 17 45 27 -6
7 0 9 30 11 6 1 21 11 32 22 32 34 72 45 54 15z m-894 -31 c3 -6 -4 -10 -17
-10 -18 0 -20 2 -8 10 19 12 18 12 25 0z m-30 -30 c3 -5 -3 -10 -14 -10 -11 0
-28 -9 -39 -20 -17 -19 -18 -19 -19 0 -1 12 8 22 25 29 36 13 40 13 47 1z
m204 -12 c11 -10 14 -10 18 -1 3 10 9 8 21 -4 12 -12 13 -18 4 -21 -19 -6 -14
-22 8 -22 11 0 20 -4 20 -10 0 -5 -18 -10 -40 -10 -38 0 -45 6 -41 37 1 6 -3
14 -9 18 -12 7 -13 25 -2 25 4 0 14 -6 21 -12z m-289 -29 c0 -6 -15 -16 -32
-24 -18 -8 -27 -14 -19 -15 8 0 12 -2 9 -5 -3 -3 -15 -2 -26 2 -16 6 -19 12
-12 23 6 10 10 11 10 3 0 -7 7 -10 15 -7 8 4 12 10 9 15 -3 5 2 6 10 3 11 -4
16 0 16 11 0 9 5 13 10 10 6 -3 10 -11 10 -16z m258 3 c2 -7 -2 -10 -12 -6 -9
3 -16 11 -16 16 0 13 23 5 28 -10z m532 -32 c0 -5 -10 -10 -22 -10 -19 0 -20
2 -8 10 19 13 30 13 30 0z"/>
<path d="M970 1041 c0 -6 5 -13 10 -16 6 -3 10 1 10 9 0 9 -4 16 -10 16 -5 0
-10 -4 -10 -9z"/>
<path d="M1575 1029 c-19 -12 -24 -19 -13 -19 9 0 18 -6 21 -12 2 -7 8 -9 13
-5 5 4 2 12 -5 16 -11 7 -10 11 5 19 10 6 17 12 14 15 -3 2 -18 -4 -35 -14z"/>
<path d="M1580 961 c0 -6 5 -13 10 -16 6 -3 10 1 10 9 0 9 -4 16 -10 16 -5 0
-10 -4 -10 -9z"/>
<path d="M650 799 c0 -5 -4 -7 -10 -4 -6 3 -10 -4 -10 -17 1 -22 1 -22 15 -4
15 20 19 36 10 36 -3 0 -5 -5 -5 -11z"/>
<path d="M85 1070 c-3 -6 1 -7 9 -4 18 7 21 14 7 14 -6 0 -13 -4 -16 -10z"/>
<path d="M574 1064 c-18 -14 -18 -14 6 -3 31 14 36 19 24 19 -6 0 -19 -7 -30
-16z"/>
<path d="M616 1065 c-11 -8 -15 -15 -9 -15 7 0 15 5 18 10 4 6 10 8 15 5 5 -3
11 -1 15 5 9 15 -17 12 -39 -5z"/>
<path d="M1360 1070 c0 -5 5 -10 11 -10 5 0 7 5 4 10 -3 6 -8 10 -11 10 -2 0
-4 -4 -4 -10z"/>
<path d="M1436 1065 c-11 -8 -15 -15 -9 -15 6 0 16 7 23 15 16 19 11 19 -14 0z"/>
<path d="M96 1051 c-3 -5 1 -12 10 -15 8 -3 13 -2 9 3 -3 5 1 12 7 14 8 4 7 6
-4 6 -9 1 -19 -3 -22 -8z"/>
<path d="M1751 1044 c0 -11 3 -14 6 -6 3 7 2 16 -1 19 -3 4 -6 -2 -5 -13z"/>
<path d="M565 1029 c-4 -6 -4 -13 -1 -16 3 -4 6 -1 6 5 0 6 8 13 18 15 15 4
15 5 0 6 -9 0 -20 -4 -23 -10z"/>
<path d="M1361 1024 c0 -11 3 -14 6 -6 3 7 2 16 -1 19 -3 4 -6 -2 -5 -13z"/>
<path d="M1390 1030 c0 -5 5 -10 10 -10 6 0 10 5 10 10 0 6 -4 10 -10 10 -5 0
-10 -4 -10 -10z"/>
<path d="M305 1020 c-3 -5 -1 -10 4 -10 6 0 11 5 11 10 0 6 -2 10 -4 10 -3 0
-8 -4 -11 -10z"/>
<path d="M1735 1000 c-8 -13 5 -159 14 -165 4 -2 3 26 -2 63 -4 37 -6 77 -4
89 5 25 2 29 -8 13z"/>
<path d="M499 989 c14 -5 28 -6 32 -2 4 4 -6 9 -24 10 -30 1 -31 1 -8 -8z"/>
<path d="M1287 981 c-4 -17 -3 -21 5 -13 5 5 8 16 6 23 -3 8 -7 3 -11 -10z"/>
<path d="M410 980 c0 -5 7 -10 16 -10 8 0 12 5 9 10 -3 6 -10 10 -16 10 -5 0
-9 -4 -9 -10z"/>
<path d="M465 970 c-3 -5 -1 -10 4 -10 6 0 11 5 11 10 0 6 -2 10 -4 10 -3 0
-8 -4 -11 -10z"/>
<path d="M425 940 c-3 -5 -2 -10 4 -10 5 0 13 5 16 10 3 6 2 10 -4 10 -5 0
-13 -4 -16 -10z"/>
<path d="M790 941 c0 -7 -10 -9 -27 -6 -27 5 -27 5 -5 -6 17 -9 25 -10 34 -1
6 6 9 15 5 19 -4 3 -7 1 -7 -6z"/>
<path d="M368 913 c7 -3 16 -2 19 1 4 3 -2 6 -13 5 -11 0 -14 -3 -6 -6z"/>
<path d="M1120 894 c0 -8 5 -12 10 -9 6 3 10 10 10 16 0 5 -4 9 -10 9 -5 0
-10 -7 -10 -16z"/>
<path d="M1165 900 c4 -6 11 -8 16 -5 14 9 11 15 -7 15 -8 0 -12 -5 -9 -10z"/>
<path d="M690 890 c0 -5 5 -10 10 -10 6 0 10 5 10 10 0 6 -4 10 -10 10 -5 0
-10 -4 -10 -10z"/>
<path d="M1465 890 c-3 -5 -1 -10 4 -10 6 0 11 5 11 10 0 6 -2 10 -4 10 -3 0
-8 -4 -11 -10z"/>
<path d="M1460 856 c0 -2 7 -6 15 -10 8 -3 15 -1 15 4 0 6 -7 10 -15 10 -8 0
-15 -2 -15 -4z"/>
<path d="M1065 831 c-3 -5 0 -13 6 -17 8 -5 9 -3 4 6 -6 10 -4 12 8 7 10 -3
17 -2 17 3 0 13 -27 13 -35 1z"/>
<path d="M770 810 c0 -5 5 -10 10 -10 6 0 10 5 10 10 0 6 -4 10 -10 10 -5 0
-10 -4 -10 -10z"/>
<path d="M1740 800 c0 -5 5 -10 10 -10 6 0 10 5 10 10 0 6 -4 10 -10 10 -5 0
-10 -4 -10 -10z"/>
<path d="M1724 780 c1 -8 10 -16 21 -17 15 -1 15 0 3 3 -9 3 -19 11 -21 17 -2
7 -3 5 -3 -3z"/>
<path d="M476 768 c3 -5 10 -6 15 -3 13 9 11 12 -6 12 -8 0 -12 -4 -9 -9z"/>
<path d="M1241 740 c-17 -15 -19 -20 -7 -20 8 0 20 9 26 20 13 25 11 25 -19 0z"/>
<path d="M1668 725 c-3 -14 -1 -25 3 -25 5 0 9 11 9 25 0 14 -2 25 -4 25 -2 0
-6 -11 -8 -25z"/>
<path d="M1630 730 c0 -5 5 -10 10 -10 6 0 10 5 10 10 0 6 -4 10 -10 10 -5 0
-10 -4 -10 -10z"/>
<path d="M350 700 c0 -6 7 -10 15 -10 8 0 15 2 15 4 0 2 -7 6 -15 10 -8 3 -15
1 -15 -4z"/>
<path d="M850 701 c0 -5 5 -13 10 -16 6 -3 10 -2 10 4 0 5 -4 13 -10 16 -5 3
-10 2 -10 -4z"/>
<path d="M90 690 c8 -5 24 -10 34 -10 26 0 18 6 -19 14 -22 5 -26 4 -15 -4z"/>
<path d="M560 689 c0 -5 9 -9 20 -9 11 0 20 2 20 4 0 2 -9 6 -20 9 -11 3 -20
1 -20 -4z"/>
<path d="M610 696 c0 -2 7 -7 16 -10 8 -3 12 -2 9 4 -6 10 -25 14 -25 6z"/>
<path d="M737 689 c7 -7 15 -10 18 -7 3 3 -2 9 -12 12 -14 6 -15 5 -6 -5z"/>
<path d="M1200 693 c0 -5 16 -8 35 -9 18 0 32 3 29 8 -6 10 -64 11 -64 1z"/>
<path d="M1628 693 c7 -3 16 -2 19 1 4 3 -2 6 -13 5 -11 0 -14 -3 -6 -6z"/>
<path d="M318 683 c7 -3 16 -2 19 1 4 3 -2 6 -13 5 -11 0 -14 -3 -6 -6z"/>
<path d="M1088 683 c7 -3 16 -2 19 1 4 3 -2 6 -13 5 -11 0 -14 -3 -6 -6z"/>
<path d="M1558 683 c7 -3 16 -2 19 1 4 3 -2 6 -13 5 -11 0 -14 -3 -6 -6z"/>
</g>
</svg>
