<?xml version="1.0" standalone="no"?>
<!DOCTYPE svg PUBLIC "-//W3C//DTD SVG 20010904//EN"
 "http://www.w3.org/TR/2001/REC-SVG-20010904/DTD/svg10.dtd">
<svg version="1.0" xmlns="http://www.w3.org/2000/svg"
 width="100.000000pt" height="100.000000pt" viewBox="0 0 100.000000 100.000000"
 preserveAspectRatio="xMidYMid meet">
<metadata>
Created by potrace 1.16, written by Peter Selinger 2001-2019
</metadata>
<g transform="translate(0.000000,100.000000) scale(0.100000,-0.100000)"
fill="#000000" stroke="none">
<path d="M130 575 c0 -10 -11 -15 -35 -15 l-35 0 0 -75 0 -75 80 0 c64 0 80 3
80 15 0 11 12 15 45 15 33 0 45 -4 45 -15 0 -11 12 -15 50 -15 38 0 50 4 50
15 0 8 -9 15 -20 15 -11 0 -20 7 -20 15 0 8 -7 15 -15 15 -8 0 -15 7 -15 15 0
8 7 15 15 15 8 0 15 7 15 15 0 10 11 15 35 15 19 0 35 5 35 11 0 6 -7 9 -15 5
-8 -3 -15 -1 -15 4 0 6 -16 10 -35 10 -24 0 -35 -5 -35 -14 0 -8 5 -16 12 -18
9 -3 9 -6 0 -12 -7 -4 -12 -2 -12 3 0 6 -13 11 -30 11 -20 0 -30 -5 -30 -15 0
-10 -10 -15 -30 -15 -16 0 -30 -5 -30 -11 0 -6 7 -9 15 -5 8 3 15 1 15 -4 0
-6 7 -10 15 -10 8 0 15 -4 15 -10 0 -5 -7 -10 -15 -10 -8 0 -15 5 -15 10 0 6
-13 10 -30 10 -20 0 -30 -5 -30 -15 0 -8 5 -15 12 -15 6 0 9 -2 7 -5 -3 -2
-15 -2 -27 2 -20 5 -22 11 -22 79 0 59 -3 74 -15 74 -8 0 -15 -7 -15 -15z
m-40 -35 c0 -5 -5 -10 -11 -10 -5 0 -7 5 -4 10 3 6 8 10 11 10 2 0 4 -4 4 -10z
m50 -55 c0 -54 0 -55 -30 -55 -28 0 -30 2 -30 40 0 29 4 40 15 40 8 0 15 7 15
15 0 8 7 15 15 15 12 0 15 -13 15 -55z"/>
<path d="M370 579 c0 -6 9 -8 20 -4 11 4 20 2 20 -4 0 -6 14 -11 30 -11 l30 0
0 -75 0 -75 45 0 45 0 0 90 0 90 -95 0 c-61 0 -95 -4 -95 -11z m128 -86 l-2
-78 -5 70 c-3 39 -5 73 -3 78 9 20 12 0 10 -70z m42 -9 c0 -30 -4 -54 -10 -54
-6 0 -10 27 -10 61 0 37 4 58 10 54 6 -3 10 -31 10 -61z"/>
<path d="M810 579 c0 -6 7 -9 15 -5 8 3 15 1 15 -4 0 -6 -13 -10 -30 -10 -20
0 -30 -5 -30 -15 0 -10 -10 -15 -30 -15 -16 0 -30 -5 -30 -11 0 -6 7 -9 15 -5
8 3 15 1 15 -4 0 -6 16 -10 35 -10 26 0 33 3 29 15 -4 9 0 15 10 15 13 0 16
-12 16 -60 l0 -60 35 0 c19 0 35 5 35 11 0 6 -9 8 -20 4 -11 -4 -20 -2 -20 4
0 6 16 11 35 11 l35 0 0 75 0 75 -65 0 c-41 0 -65 -4 -65 -11z m107 -96 c-2
-21 -4 -6 -4 32 0 39 2 55 4 38 2 -18 2 -50 0 -70z m-27 32 c0 -42 -3 -55 -15
-55 -12 0 -15 13 -15 55 0 42 3 55 15 55 12 0 15 -13 15 -55z"/>
<path d="M310 549 c0 -5 5 -7 10 -4 6 3 10 8 10 11 0 2 -4 4 -10 4 -5 0 -10
-5 -10 -11z"/>
<path d="M660 489 c0 -5 5 -7 10 -4 6 3 10 8 10 11 0 2 -4 4 -10 4 -5 0 -10
-5 -10 -11z"/>
<path d="M692 482 c4 -15 -1 -17 -34 -14 -30 3 -38 1 -38 -12 0 -9 -7 -16 -15
-16 -8 0 -15 -7 -15 -15 0 -11 12 -15 50 -15 30 0 50 4 50 11 0 6 -7 9 -15 5
-8 -3 -15 -1 -15 4 0 5 -8 11 -17 13 -10 3 3 2 30 0 39 -5 47 -3 47 11 0 11 9
16 30 16 17 0 30 5 30 11 0 6 -7 9 -15 5 -8 -3 -15 -1 -15 4 0 6 -14 10 -31
10 -25 0 -30 -4 -27 -18z"/>
<path d="M812 433 l-2 -53 33 1 c29 2 29 2 5 6 -24 4 -27 9 -31 51 l-3 47 -2
-52z"/>
<path d="M427 420 c-4 -16 -14 -20 -46 -20 -23 0 -41 -4 -41 -10 0 -5 23 -10
50 -10 49 0 50 1 50 30 0 35 -5 39 -13 10z"/>
<path d="M60 388 c0 -4 29 -8 65 -8 36 0 65 3 65 8 0 4 -29 7 -65 8 -36 0 -65
-3 -65 -8z"/>
<path d="M470 388 c0 -5 34 -8 75 -8 45 0 75 4 75 10 0 7 -29 9 -75 8 -41 -2
-75 -6 -75 -10z"/>
</g>
</svg>
