<?xml version="1.0" standalone="no"?>
<!DOCTYPE svg PUBLIC "-//W3C//DTD SVG 20010904//EN"
 "http://www.w3.org/TR/2001/REC-SVG-20010904/DTD/svg10.dtd">
<svg version="1.0" xmlns="http://www.w3.org/2000/svg"
 width="100.000000pt" height="100.000000pt" viewBox="0 0 100.000000 100.000000"
 preserveAspectRatio="xMidYMid meet">
<metadata>
Created by potrace 1.16, written by Peter Selinger 2001-2019
</metadata>
<g transform="translate(0.000000,100.000000) scale(0.100000,-0.100000)"
fill="#000000" stroke="none">
<path d="M30 611 c0 -10 8 -21 18 -23 15 -4 18 -1 14 18 -5 28 -32 32 -32 5z"/>
<path d="M190 610 c0 -11 7 -20 15 -20 8 0 15 9 15 20 0 11 -7 20 -15 20 -8 0
-15 -9 -15 -20z"/>
<path d="M410 620 c0 -5 7 -10 15 -10 8 0 15 5 15 10 0 6 -7 10 -15 10 -8 0
-15 -4 -15 -10z"/>
<path d="M590 620 c0 -5 4 -10 9 -10 5 0 12 -12 14 -27 3 -23 4 -21 6 10 1 27
-3 37 -14 37 -8 0 -15 -4 -15 -10z"/>
<path d="M811 603 c1 -17 3 -21 6 -10 2 9 9 17 14 17 5 0 9 5 9 10 0 6 -7 10
-15 10 -10 0 -15 -9 -14 -27z"/>
<path d="M90 581 c0 -5 8 -12 18 -14 9 -3 2 -5 -15 -6 -22 -1 -33 -6 -33 -16
0 -8 -7 -15 -15 -15 -12 0 -15 -15 -15 -75 l0 -75 80 0 c45 0 80 4 80 10 0 5
-7 7 -15 4 -8 -4 -15 -1 -15 5 0 6 14 11 30 11 20 0 30 5 30 15 0 10 10 15 30
15 20 0 30 -5 30 -15 0 -8 7 -15 15 -15 8 0 15 -7 15 -15 0 -12 14 -15 65 -15
53 0 65 3 65 16 0 10 -6 14 -15 10 -10 -4 -15 1 -15 14 0 13 -7 20 -20 20 -11
0 -20 7 -20 15 0 8 -5 15 -11 15 -6 0 -9 -7 -5 -15 3 -8 1 -15 -4 -15 -6 0
-10 14 -10 30 0 28 3 30 35 30 19 0 35 5 35 11 0 6 -9 8 -20 4 -11 -4 -20 -2
-20 4 0 6 16 11 35 11 24 0 35 5 35 15 0 8 7 15 15 15 12 0 15 -17 15 -90 l0
-90 95 0 c78 0 95 3 95 15 0 10 10 15 30 15 17 0 30 5 30 11 0 6 -7 9 -15 5
-8 -3 -15 -1 -15 4 0 6 -16 10 -35 10 -23 0 -35 -5 -35 -14 0 -8 -13 -16 -30
-18 l-30 -5 0 94 0 93 -95 0 c-61 0 -95 -4 -95 -11 0 -6 8 -8 19 -4 11 3 21 0
24 -7 3 -10 -9 -12 -49 -10 -34 3 -54 0 -54 -7 0 -6 7 -8 15 -5 8 4 15 1 15
-5 0 -6 -13 -11 -30 -11 -20 0 -30 -5 -30 -15 0 -10 -10 -15 -30 -15 -16 0
-30 -5 -30 -11 0 -6 7 -9 15 -5 8 3 15 0 15 -5 0 -7 9 -9 21 -6 12 3 18 2 13
-2 -5 -5 -35 -6 -66 -4 l-58 5 -2 47 c-1 39 -2 41 -5 12 -6 -48 4 -82 22 -75
8 4 15 1 15 -5 0 -6 -13 -11 -30 -11 l-30 0 0 75 c0 68 -2 75 -20 75 -11 0
-20 -4 -20 -9z m438 -18 l-28 -4 0 -86 c0 -48 -3 -84 -6 -81 -4 5 -8 137 -5
171 1 4 16 6 34 6 30 -2 30 -2 5 -6z m12 -90 c0 -71 -8 -65 -15 11 -4 38 -2
55 5 51 5 -3 10 -31 10 -62z m-434 -12 c-3 -31 -7 -36 -27 -33 -32 5 -38 12
-11 12 13 0 22 6 22 15 0 8 -9 15 -20 15 -13 0 -20 7 -20 18 0 15 6 18 29 14
28 -4 30 -7 27 -41z m212 16 c4 -32 -12 -65 -22 -48 -4 6 -2 11 3 11 14 0 14
57 1 63 -6 3 -5 4 2 3 7 -1 14 -14 16 -29z m67 -56 c3 -5 1 -12 -5 -16 -5 -3
-10 1 -10 9 0 18 6 21 15 7z m-240 -11 c4 -6 -14 -9 -47 -8 l-53 1 45 7 c25 4
46 8 47 8 1 1 5 -2 8 -8z m195 -10 c0 -5 -2 -10 -4 -10 -3 0 -8 5 -11 10 -3 6
-1 10 4 10 6 0 11 -4 11 -10z m197 4 c-3 -3 -12 -4 -19 -1 -8 3 -5 6 6 6 11 1
17 -2 13 -5z"/>
<path d="M250 580 c0 -5 7 -10 15 -10 8 0 15 5 15 10 0 6 -7 10 -15 10 -8 0
-15 -4 -15 -10z"/>
<path d="M577 510 c0 -44 4 -80 7 -80 3 0 6 2 6 5 0 3 0 39 0 80 0 41 -3 75
-7 75 -5 0 -7 -36 -6 -80z"/>
<path d="M840 579 c0 -5 3 -8 8 -6 4 2 30 1 57 -3 49 -7 49 -7 -22 -9 -58 -1
-73 -4 -73 -16 0 -10 -10 -15 -30 -15 -16 0 -30 -5 -30 -11 0 -6 6 -9 13 -6 6
2 17 -1 24 -8 10 -10 4 -12 -28 -8 -32 5 -39 3 -39 -11 0 -11 -9 -16 -30 -16
-16 0 -30 -5 -30 -11 0 -6 7 -9 15 -5 8 3 15 1 15 -4 0 -6 20 -10 45 -10 25 0
45 4 45 10 0 5 -6 7 -14 4 -7 -3 -16 1 -19 8 -3 10 4 13 29 10 26 -3 34 0 34
12 0 11 9 16 27 16 l26 0 -22 19 c-13 12 -18 22 -11 26 5 3 10 1 10 -4 0 -6 7
-11 15 -11 12 0 15 -15 15 -75 0 -68 2 -75 20 -75 11 0 20 7 20 15 0 10 10 15
30 15 l30 0 0 90 0 90 -65 0 c-39 0 -65 -4 -65 -11z m108 -81 l-1 -43 -4 38
c-3 25 -9 37 -20 37 -12 0 -14 -10 -11 -49 2 -33 -1 -47 -8 -44 -15 6 -16 86
-1 95 7 4 20 8 30 8 14 0 17 -8 15 -42z m12 -62 c0 -3 -4 -8 -10 -11 -5 -3
-10 -1 -10 4 0 6 5 11 10 11 6 0 10 -2 10 -4z"/>
<path d="M30 549 c0 -5 5 -7 10 -4 6 3 10 8 10 11 0 2 -4 4 -10 4 -5 0 -10 -5
-10 -11z"/>
<path d="M181 544 c0 -11 3 -14 6 -6 3 7 2 16 -1 19 -3 4 -6 -2 -5 -13z"/>
<path d="M258 553 c7 -3 16 -2 19 1 4 3 -2 6 -13 5 -11 0 -14 -3 -6 -6z"/>
<path d="M690 489 c0 -5 5 -7 10 -4 6 3 10 8 10 11 0 2 -4 4 -10 4 -5 0 -10
-5 -10 -11z"/>
<path d="M838 430 c2 -27 7 -50 10 -50 4 0 5 22 4 50 -2 27 -7 50 -10 50 -4 0
-5 -22 -4 -50z"/>
<path d="M1 454 c0 -11 3 -14 6 -6 3 7 2 16 -1 19 -3 4 -6 -2 -5 -13z"/>
<path d="M810 395 c0 -8 4 -15 10 -15 5 0 7 7 4 15 -4 8 -8 15 -10 15 -2 0 -4
-7 -4 -15z"/>
<path d="M990 401 c0 -5 -8 -12 -17 -14 -14 -4 -12 -5 5 -6 13 -1 22 5 22 14
0 8 -2 15 -5 15 -3 0 -5 -4 -5 -9z"/>
<path d="M675 390 c-3 -5 -1 -10 4 -10 6 0 11 5 11 10 0 6 -2 10 -4 10 -3 0
-8 -4 -11 -10z"/>
<path d="M228 383 c7 -3 16 -2 19 1 4 3 -2 6 -13 5 -11 0 -14 -3 -6 -6z"/>
</g>
</svg>
