<?xml version="1.0" standalone="no"?>
<!DOCTYPE svg PUBLIC "-//W3C//DTD SVG 20010904//EN"
 "http://www.w3.org/TR/2001/REC-SVG-20010904/DTD/svg10.dtd">
<svg version="1.0" xmlns="http://www.w3.org/2000/svg"
 width="256.000000pt" height="256.000000pt" viewBox="0 0 256.000000 256.000000"
 preserveAspectRatio="xMidYMid meet">
<metadata>
Created by potrace 1.16, written by Peter Selinger 2001-2019
</metadata>
<g transform="translate(0.000000,256.000000) scale(0.100000,-0.100000)"
fill="#000000" stroke="none">
<path d="M338 1797 c-75 -124 -100 -176 -108 -219 -7 -36 -10 -217 -8 -486 2
-346 6 -432 17 -445 11 -14 34 -17 132 -17 l118 0 84 138 c46 75 101 167 123
204 21 37 42 67 45 68 3 0 39 -90 79 -201 40 -111 79 -203 85 -205 6 -3 61 -3
122 -2 l111 3 -119 325 c-66 179 -118 332 -116 341 2 8 69 121 147 250 79 128
151 248 159 264 15 28 16 -16 21 -560 3 -324 9 -598 14 -607 7 -16 26 -18 181
-18 171 0 174 0 192 24 10 13 124 213 253 444 129 232 239 421 243 422 4 0 6
-207 5 -460 -2 -253 -1 -460 2 -459 3 0 49 74 103 165 83 139 100 174 108 228
6 36 9 245 7 493 -2 346 -6 433 -17 446 -10 13 -31 17 -90 17 -42 0 -82 -4
-88 -8 -7 -4 -166 -280 -352 -612 l-340 -603 -3 595 c-2 486 -6 598 -17 611
-11 15 -37 17 -180 17 -91 0 -171 -4 -177 -8 -11 -7 -50 -69 -437 -707 -97
-159 -181 -297 -186 -305 -7 -10 -9 158 -8 508 1 287 0 522 -3 522 -3 -1 -49
-74 -102 -163z m1083 88 c4 -16 7 -286 8 -598 l1 -568 26 3 c23 3 63 69 362
600 l337 598 72 0 c67 0 73 -2 78 -22 3 -13 5 -230 3 -483 l-3 -460 -71 -115
c-39 -63 -76 -124 -82 -135 -9 -15 -11 89 -12 408 l0 427 -27 0 c-26 -1 -42
-26 -253 -402 -124 -221 -237 -421 -252 -445 l-28 -43 -154 0 c-137 0 -155 2
-162 18 -5 9 -10 281 -12 605 l-3 587 -24 0 c-17 0 -29 -9 -39 -27 -8 -16 -80
-136 -160 -267 -107 -176 -146 -248 -146 -272 0 -17 48 -162 106 -320 59 -159
109 -297 112 -307 4 -16 -3 -18 -89 -15 l-94 3 -74 203 c-98 269 -85 269 -250
-3 l-124 -205 -97 0 c-71 0 -101 4 -109 14 -8 10 -11 139 -9 477 l3 464 83
135 82 134 0 -482 0 -482 28 0 c24 1 38 19 146 198 333 550 460 760 478 785
l20 27 161 -2 162 -3 6 -30z"/>
</g>
</svg>
