<?xml version="1.0" standalone="no"?>
<!DOCTYPE svg PUBLIC "-//W3C//DTD SVG 20010904//EN"
 "http://www.w3.org/TR/2001/REC-SVG-20010904/DTD/svg10.dtd">
<svg version="1.0" xmlns="http://www.w3.org/2000/svg"
 width="192.000000pt" height="192.000000pt" viewBox="0 0 192.000000 192.000000"
 preserveAspectRatio="xMidYMid meet">
<metadata>
Created by potrace 1.16, written by Peter Selinger 2001-2019
</metadata>
<g transform="translate(0.000000,192.000000) scale(0.100000,-0.100000)"
fill="#000000" stroke="none">
<path d="M85 1160 c-44 -28 -81 -57 -83 -65 -2 -10 29 5 88 40 50 30 97 55
105 55 13 0 15 -27 15 -165 0 -91 2 -165 4 -165 2 0 125 74 275 165 l271 165
174 0 c149 0 175 -2 180 -16 3 -9 6 -96 6 -195 0 -98 3 -179 7 -179 4 0 36 20
72 44 72 47 265 173 430 280 l104 67 93 -3 c70 -2 94 0 94 10 0 9 -27 12 -100
12 l-99 0 -103 -67 c-186 -120 -302 -195 -391 -254 l-87 -59 0 171 c0 98 -4
178 -10 190 -10 18 -23 19 -195 19 l-184 0 -256 -155 c-140 -85 -257 -155
-260 -155 -2 0 -6 69 -7 153 l-3 152 -30 2 c-21 1 -55 -13 -110 -47z"/>
<path d="M761 1048 l-133 -81 101 -101 c56 -56 101 -107 101 -114 0 -9 -30
-12 -112 -12 l-112 0 -67 66 -67 66 -111 -66 -111 -67 -125 3 c-95 2 -125 0
-125 -9 0 -10 33 -13 131 -13 l131 0 100 60 c54 33 102 60 106 60 4 0 34 -27
67 -60 l60 -61 125 3 c123 3 125 3 128 27 3 19 -16 43 -89 117 -57 57 -90 97
-84 102 6 5 56 37 113 70 l102 61 0 -177 c0 -125 4 -182 12 -190 8 -8 66 -12
194 -12 l182 0 148 98 c82 54 175 115 206 135 l57 36 3 -137 3 -137 25 -3 c32
-3 193 96 198 122 4 16 0 16 -30 -6 -49 -37 -154 -98 -167 -98 -8 0 -11 46
-11 150 l0 150 -82 -54 c-46 -29 -146 -94 -222 -145 l-139 -91 -176 2 -176 3
-3 193 c-1 105 -6 192 -10 192 -4 -1 -67 -37 -141 -82z"/>
</g>
</svg>
