<?xml version="1.0" standalone="no"?>
<!DOCTYPE svg PUBLIC "-//W3C//DTD SVG 20010904//EN"
 "http://www.w3.org/TR/2001/REC-SVG-20010904/DTD/svg10.dtd">
<svg version="1.0" xmlns="http://www.w3.org/2000/svg"
 width="100.000000pt" height="100.000000pt" viewBox="0 0 100.000000 100.000000"
 preserveAspectRatio="xMidYMid meet">
<metadata>
Created by potrace 1.16, written by Peter Selinger 2001-2019
</metadata>
<g transform="translate(0.000000,100.000000) scale(0.100000,-0.100000)"
fill="#000000" stroke="none">
<path d="M80 615 c0 -8 -9 -15 -20 -15 -11 0 -20 -4 -20 -10 0 -5 -9 -10 -20
-10 -11 0 -20 -4 -20 -10 0 -5 13 -10 30 -10 17 0 30 5 30 10 0 6 9 10 20 10
18 0 20 -7 20 -70 l0 -70 33 0 c21 0 38 7 47 20 8 11 22 20 32 20 10 0 18 5
18 10 0 6 8 10 18 10 10 0 24 9 32 20 8 11 22 20 32 20 14 0 18 -8 18 -36 0
-32 18 -64 35 -64 8 0 35 -26 35 -34 0 -3 -14 -6 -31 -6 -22 0 -40 9 -59 30
-23 24 -36 30 -72 30 -32 0 -47 -5 -58 -20 -8 -11 -22 -20 -32 -20 -10 0 -18
-4 -18 -10 0 -6 -28 -10 -65 -10 -37 0 -65 -4 -65 -10 0 -6 32 -10 75 -10 43
0 75 4 75 10 0 6 8 10 18 10 10 0 24 9 32 20 21 29 57 25 90 -10 25 -27 34
-30 89 -30 48 0 61 3 61 15 0 15 -43 65 -55 65 -12 0 -35 29 -35 44 0 10 9 16
23 16 12 0 29 9 37 20 8 11 22 20 31 20 10 0 19 6 22 13 2 7 8 8 13 3 5 -5 4
-11 -3 -13 -19 -7 -17 -150 1 -169 11 -10 41 -14 113 -14 87 0 100 2 113 20 8
11 21 20 30 20 9 0 22 9 30 20 8 11 21 20 30 20 9 0 22 9 30 20 8 11 25 20 37
20 13 0 23 5 23 10 0 6 5 10 10 10 6 0 10 -30 10 -70 0 -60 2 -70 18 -70 10 0
24 9 32 20 8 11 22 20 32 20 10 0 18 5 18 10 0 6 -13 10 -30 10 -16 0 -30 -4
-30 -10 0 -5 -4 -10 -10 -10 -6 0 -10 27 -10 60 l0 60 -30 0 c-16 0 -30 -4
-30 -10 0 -5 -10 -10 -23 -10 -12 0 -29 -9 -37 -20 -8 -11 -21 -20 -30 -20 -9
0 -22 -9 -30 -20 -8 -11 -21 -20 -30 -20 -9 0 -22 -9 -30 -20 -13 -18 -60 -29
-60 -14 0 12 30 34 47 34 10 0 25 9 33 20 8 11 21 20 30 20 9 0 22 9 30 20 8
11 21 20 30 20 9 0 22 9 30 20 8 11 22 20 32 20 10 0 18 5 18 10 0 6 11 10 25
10 16 0 25 6 25 15 0 11 11 15 40 15 22 0 40 5 40 10 0 6 -22 10 -50 10 -38 0
-50 -4 -50 -15 0 -9 -9 -15 -25 -15 -14 0 -25 -4 -25 -10 0 -5 -8 -10 -18 -10
-10 0 -24 -9 -32 -20 -8 -11 -21 -20 -30 -20 -9 0 -22 -9 -30 -20 -8 -11 -21
-20 -30 -20 -9 0 -22 -9 -30 -20 -8 -11 -23 -20 -34 -20 -10 0 -27 -10 -37
-22 -11 -11 -22 -18 -27 -13 -4 4 -1 10 5 12 16 6 18 163 3 163 -5 0 -10 7
-10 15 0 12 -18 15 -105 15 -87 0 -105 -3 -105 -15 0 -8 -8 -15 -18 -15 -10 0
-24 -9 -32 -20 -8 -11 -21 -20 -30 -20 -9 0 -22 -9 -30 -20 -8 -11 -22 -20
-32 -20 -10 0 -18 -4 -18 -10 0 -5 -8 -10 -18 -10 -10 0 -24 -9 -32 -20 -30
-41 -40 -24 -40 65 0 78 -2 85 -20 85 -11 0 -20 -7 -20 -15z m480 -20 c0 -8 5
-15 10 -15 6 0 10 -27 10 -60 0 -33 -4 -60 -10 -60 -5 0 -10 -13 -10 -30 0
-26 -4 -30 -26 -30 -40 0 -54 22 -54 84 0 31 5 56 10 56 6 0 10 14 10 30 0 27
-3 30 -30 30 -16 0 -30 -4 -30 -10 0 -5 -8 -10 -18 -10 -10 0 -24 -9 -32 -20
-13 -18 -60 -29 -60 -14 0 11 29 34 44 34 9 0 16 7 16 15 0 12 16 15 85 15 69
0 85 -3 85 -15z"/>
</g>
</svg>
