<?xml version="1.0" standalone="no"?>
<!DOCTYPE svg PUBLIC "-//W3C//DTD SVG 20010904//EN"
 "http://www.w3.org/TR/2001/REC-SVG-20010904/DTD/svg10.dtd">
<svg version="1.0" xmlns="http://www.w3.org/2000/svg"
 width="100.000000pt" height="100.000000pt" viewBox="0 0 100.000000 100.000000"
 preserveAspectRatio="xMidYMid meet">
<metadata>
Created by potrace 1.16, written by Peter Selinger 2001-2019
</metadata>
<g transform="translate(0.000000,100.000000) scale(0.100000,-0.100000)"
fill="#000000" stroke="none">
<path d="M80 619 c0 -16 -27 -39 -47 -39 -15 0 -16 -2 -3 -10 12 -8 11 -10 -7
-10 -16 0 -23 -6 -23 -20 0 -11 6 -20 13 -20 7 0 23 9 35 20 12 11 24 20 27
20 3 0 5 -31 5 -70 l0 -70 -40 0 c-22 0 -40 -4 -40 -10 0 -6 36 -10 88 -10 60
0 82 3 72 10 -12 8 -11 10 8 10 12 0 22 5 22 10 0 6 9 10 20 10 11 0 20 5 20
10 0 6 9 10 20 10 12 0 20 -7 20 -16 0 -31 27 -44 89 -44 34 0 61 3 61 6 0 7
-27 34 -35 34 -12 0 -55 50 -55 65 0 9 9 15 23 15 18 0 19 2 7 10 -12 8 -9 10
13 10 15 0 27 5 27 10 0 6 7 10 16 10 15 0 44 23 44 34 0 3 -26 6 -57 6 -41 0
-54 -3 -43 -10 12 -8 11 -10 -7 -10 -13 0 -23 -4 -23 -10 0 -5 -9 -10 -20 -10
-11 0 -20 -4 -20 -10 0 -5 -10 -10 -22 -10 -19 0 -20 -2 -8 -10 12 -8 11 -10
-7 -10 -13 0 -23 -4 -23 -10 0 -5 -9 -10 -20 -10 -11 0 -20 -4 -20 -10 0 -5
-10 -10 -22 -10 -19 0 -20 -2 -8 -10 12 -8 9 -10 -12 -10 -16 0 -28 -4 -28
-10 0 -5 -4 -10 -10 -10 -6 0 -10 38 -10 95 0 57 -4 95 -10 95 -5 0 -10 -5
-10 -11z m210 -129 c0 -5 -7 -10 -16 -10 -8 0 -12 5 -9 10 3 6 10 10 16 10 5
0 9 -4 9 -10z"/>
<path d="M400 621 c0 -4 41 -8 90 -7 50 0 90 4 90 8 0 5 -40 8 -90 8 -49 0
-90 -4 -90 -9z"/>
<path d="M900 622 c0 -10 86 -9 97 1 3 4 -17 7 -45 7 -29 0 -52 -4 -52 -8z"/>
<path d="M480 500 l0 -100 105 0 c63 0 105 4 105 10 0 6 10 10 23 10 18 0 19
2 7 10 -12 8 -11 10 8 10 12 0 22 5 22 10 0 6 10 10 23 10 18 0 19 2 7 10 -12
8 -11 10 8 10 12 0 22 5 22 10 0 6 10 10 23 10 18 0 19 2 7 10 -12 8 -9 10 13
10 15 0 27 5 27 10 0 6 5 10 10 10 6 0 10 -33 10 -80 0 -44 4 -80 8 -80 4 0
14 9 22 20 8 11 24 20 35 20 16 0 17 2 5 10 -12 8 -11 10 8 10 15 0 22 6 22
20 0 26 -20 25 -49 -1 -12 -12 -24 -19 -26 -17 -2 1 -5 32 -6 68 l-3 65 42 3
c64 5 50 22 -18 22 -33 0 -60 -4 -60 -10 0 -5 -12 -10 -27 -10 -22 0 -25 -2
-13 -10 12 -8 11 -10 -7 -10 -13 0 -23 -4 -23 -10 0 -5 -9 -10 -20 -10 -11 0
-20 -4 -20 -10 0 -5 -10 -10 -22 -10 -19 0 -20 -2 -8 -10 12 -8 11 -10 -7 -10
-13 0 -23 -4 -23 -10 0 -5 -10 -10 -22 -10 -19 0 -20 -2 -8 -10 12 -8 11 -10
-7 -10 -13 0 -23 -4 -23 -10 0 -5 -12 -10 -27 -10 -22 0 -25 -2 -13 -10 12 -8
11 -10 -7 -10 -22 0 -23 3 -23 90 l0 90 -50 0 -50 0 0 -100z m60 0 c0 -73 -2
-80 -20 -80 -18 0 -20 7 -20 80 0 73 2 80 20 80 18 0 20 -7 20 -80z"/>
<path d="M370 390 l-65 -7 68 -1 c39 -1 67 2 67 8 0 6 -1 9 -2 8 -2 -1 -32 -4
-68 -8z"/>
<path d="M43 383 c15 -2 39 -2 55 0 15 2 2 4 -28 4 -30 0 -43 -2 -27 -4z"/>
<path d="M523 383 c26 -2 67 -2 90 0 23 2 2 3 -48 3 -49 0 -68 -1 -42 -3z"/>
</g>
</svg>
