<?xml version="1.0" standalone="no"?>
<!DOCTYPE svg PUBLIC "-//W3C//DTD SVG 20010904//EN"
 "http://www.w3.org/TR/2001/REC-SVG-20010904/DTD/svg10.dtd">
<svg version="1.0" xmlns="http://www.w3.org/2000/svg"
 width="180.000000pt" height="180.000000pt" viewBox="0 0 180.000000 180.000000"
 preserveAspectRatio="xMidYMid meet">
<metadata>
Created by potrace 1.16, written by Peter Selinger 2001-2019
</metadata>
<g transform="translate(0.000000,180.000000) scale(0.100000,-0.100000)"
fill="#000000" stroke="none">
<path d="M213 1066 c-97 -60 -93 -51 -93 -206 0 -92 4 -140 12 -148 8 -8 50
-12 123 -12 l110 0 69 40 c37 22 74 40 80 40 7 0 29 -18 51 -40 l38 -39 276 0
276 -1 145 95 145 94 5 -92 5 -92 36 -3 c27 -2 51 5 90 29 103 61 99 54 99
209 0 92 -4 140 -12 148 -8 8 -46 12 -104 12 l-92 0 -193 -126 c-107 -70 -200
-129 -206 -131 -10 -4 -13 23 -13 114 0 79 -4 123 -12 131 -8 8 -60 12 -169
12 l-158 0 -183 -110 -183 -110 -5 107 -5 108 -40 2 c-30 1 -53 -6 -92 -31z
m119 -105 l3 -119 199 119 198 120 152 -3 151 -3 3 -137 c1 -76 5 -138 8 -138
3 0 103 63 222 140 l216 141 85 -3 86 -3 3 -129 c2 -81 -1 -133 -8 -141 -20
-24 -131 -85 -155 -85 -24 0 -24 2 -27 104 l-3 105 -160 -105 -160 -104 -142
0 c-130 0 -143 2 -153 19 -5 11 -10 76 -10 145 l0 125 -89 -52 -89 -52 79 -80
c43 -44 79 -86 79 -93 0 -9 -28 -12 -103 -12 l-103 0 -44 45 c-24 25 -48 45
-52 45 -5 0 -44 -20 -87 -45 l-78 -46 -104 3 -104 3 -3 131 c-3 147 -8 135 82
191 28 17 63 32 78 32 l27 1 3 -119z m486 -137 l-3 -45 -58 59 -59 59 59 36
58 36 3 -50 c2 -27 2 -70 0 -95z"/>
</g>
</svg>
