<?xml version="1.0" standalone="no"?>
<!DOCTYPE svg PUBLIC "-//W3C//DTD SVG 20010904//EN"
 "http://www.w3.org/TR/2001/REC-SVG-20010904/DTD/svg10.dtd">
<svg version="1.0" xmlns="http://www.w3.org/2000/svg"
 width="100.000000pt" height="100.000000pt" viewBox="0 0 100.000000 100.000000"
 preserveAspectRatio="xMidYMid meet">
<metadata>
Created by potrace 1.16, written by Peter Selinger 2001-2019
</metadata>
<g transform="translate(0.000000,100.000000) scale(0.100000,-0.100000)"
fill="#000000" stroke="none">
<path d="M60 605 c-19 -25 -40 -45 -47 -45 -10 0 -13 -22 -13 -86 0 -106 7
-113 101 -114 66 0 115 16 139 45 19 23 37 18 61 -14 l22 -30 177 0 177 -1 24
26 c13 14 42 34 64 44 l40 19 3 -27 c5 -34 29 -62 55 -62 21 0 68 30 110 71
25 25 27 34 27 103 0 100 -13 116 -91 116 -38 0 -61 -5 -69 -15 -7 -8 -18 -15
-25 -15 -6 0 -20 -9 -30 -20 -10 -11 -24 -20 -30 -20 -7 0 -18 -6 -24 -14 -7
-8 -39 -28 -71 -44 l-59 -31 -3 77 -3 77 -103 3 c-85 2 -103 0 -108 -13 -3 -8
-14 -15 -23 -15 -9 -1 -32 -14 -51 -30 -19 -17 -42 -30 -51 -30 -9 0 -24 -9
-34 -20 -20 -22 -44 -26 -46 -7 -1 6 -5 1 -9 -13 -6 -17 -8 -4 -5 40 4 72 -5
90 -44 90 -21 0 -36 -11 -61 -45z m90 -50 c0 -68 2 -75 20 -75 11 0 20 5 20
10 0 6 8 10 18 10 10 0 24 9 32 20 8 11 22 20 32 20 10 0 18 5 18 10 0 6 8 10
18 10 10 0 24 9 32 20 8 11 25 20 37 20 14 0 23 6 23 15 0 12 17 15 90 15 l90
0 0 -95 c0 -52 4 -95 8 -95 4 0 14 9 22 20 8 11 20 20 27 20 7 0 13 5 13 10 0
6 9 10 20 10 11 0 20 5 20 10 0 6 8 10 18 10 10 0 24 9 32 20 8 11 21 20 30
20 9 0 22 9 30 20 8 11 22 20 32 20 10 0 18 7 18 15 0 12 13 15 55 15 42 0 55
-3 55 -15 0 -8 5 -15 10 -15 6 0 10 -28 10 -65 0 -62 -2 -68 -35 -100 -19 -19
-41 -35 -50 -35 -8 0 -15 -4 -15 -10 0 -5 -7 -10 -15 -10 -17 0 -20 16 -5 25
13 8 13 122 0 130 -6 4 -10 -20 -10 -64 0 -41 -4 -71 -10 -71 -5 0 -10 23 -10
50 0 54 -7 61 -30 30 -8 -11 -22 -20 -32 -20 -10 0 -18 -4 -18 -10 0 -5 -7
-10 -16 -10 -9 0 -29 -13 -44 -30 -27 -29 -31 -30 -115 -30 -110 0 -115 5
-115 104 0 79 -6 90 -30 56 -8 -11 -25 -20 -37 -20 -16 0 -23 -6 -23 -20 0
-11 5 -20 10 -20 21 0 60 -49 60 -75 0 -23 -3 -25 -51 -25 -44 0 -55 4 -79 30
-33 35 -69 39 -90 10 -8 -11 -22 -20 -32 -20 -10 0 -18 -4 -18 -10 0 -16 -119
-12 -136 4 -16 17 -20 146 -4 146 6 0 10 -30 10 -70 0 -40 4 -70 10 -70 13 0
13 137 0 145 -6 4 2 18 20 35 16 15 30 33 30 39 0 6 11 11 25 11 24 0 25 -2
25 -75z m290 -72 c0 -26 0 -26 -21 -7 -20 18 -18 23 19 33 1 1 2 -11 2 -26z"/>
<path d="M121 594 c0 -11 3 -14 6 -6 3 7 2 16 -1 19 -3 4 -6 -2 -5 -13z"/>
<path d="M940 530 c0 -40 4 -70 10 -70 6 0 10 30 10 70 0 40 -4 70 -10 70 -6
0 -10 -30 -10 -70z"/>
<path d="M710 489 c0 -5 5 -7 10 -4 6 3 10 8 10 11 0 2 -4 4 -10 4 -5 0 -10
-5 -10 -11z"/>
<path d="M635 410 c-3 -5 1 -10 10 -10 9 0 13 5 10 10 -3 6 -8 10 -10 10 -2 0
-7 -4 -10 -10z"/>
</g>
</svg>
