<?xml version="1.0" standalone="no"?>
<!DOCTYPE svg PUBLIC "-//W3C//DTD SVG 20010904//EN"
 "http://www.w3.org/TR/2001/REC-SVG-20010904/DTD/svg10.dtd">
<svg version="1.0" xmlns="http://www.w3.org/2000/svg"
 width="100.000000pt" height="100.000000pt" viewBox="0 0 100.000000 100.000000"
 preserveAspectRatio="xMidYMid meet">
<metadata>
Created by potrace 1.16, written by Peter Selinger 2001-2019
</metadata>
<g transform="translate(0.000000,100.000000) scale(0.100000,-0.100000)"
fill="#000000" stroke="none">
<path d="M880 815 c0 -8 -5 -15 -11 -15 -23 0 -39 -30 -39 -74 0 -25 5 -46 10
-46 6 0 10 -18 10 -40 0 -22 4 -40 10 -40 5 0 7 7 4 15 -4 8 -1 15 5 15 6 0
11 -11 11 -25 0 -24 3 -25 60 -25 33 0 60 4 60 10 0 6 -22 10 -50 10 -47 0
-50 2 -50 25 0 16 -6 25 -15 25 -9 0 -15 9 -15 25 0 14 -4 25 -10 25 -5 0 -10
11 -10 25 0 16 6 25 16 25 11 0 15 6 12 18 -4 15 1 17 43 14 26 -2 56 1 66 7
10 6 12 11 6 11 -7 0 -13 7 -13 15 0 11 -12 15 -50 15 -38 0 -50 -4 -50 -15z
m73 -12 c-13 -2 -33 -2 -45 0 -13 2 -3 4 22 4 25 0 35 -2 23 -4z"/>
<path d="M770 791 c0 -6 7 -11 14 -11 11 0 16 -15 19 -52 4 -51 4 -51 3 7 -1
49 -4 60 -18 63 -10 2 -18 -1 -18 -7z"/>
<path d="M686 760 c4 -14 7 -32 6 -41 0 -9 9 -21 21 -27 12 -6 16 -11 10 -11
-7 -1 -13 -8 -13 -16 0 -8 -7 -15 -15 -15 -8 0 -15 3 -15 8 0 4 -12 7 -27 8
-16 0 -36 4 -45 8 -13 6 -18 4 -18 -8 0 -9 -7 -16 -16 -16 -12 0 -15 -7 -12
-29 3 -21 1 -28 -9 -24 -7 3 -13 0 -13 -6 0 -6 11 -11 25 -11 20 0 25 5 26 28
0 24 1 25 9 7 8 -18 9 -17 9 8 1 24 5 27 36 27 19 0 35 -4 35 -10 0 -5 -11
-10 -25 -10 -20 0 -25 -5 -25 -25 0 -14 -4 -25 -10 -25 -5 0 -10 -7 -10 -15 0
-8 -4 -15 -10 -15 -5 0 -10 3 -10 8 0 4 -18 7 -40 6 -22 0 -40 3 -40 8 0 4 -4
8 -10 8 -5 0 -10 -7 -10 -15 0 -8 -7 -15 -15 -15 -18 0 -21 -46 -3 -52 9 -3 9
-6 0 -12 -7 -4 -12 -2 -12 3 0 6 -4 11 -10 11 -5 0 -10 -7 -10 -15 0 -9 9 -15
25 -15 20 0 25 5 25 26 0 14 6 32 14 40 16 16 86 19 86 4 0 -5 -11 -10 -25
-10 -21 0 -25 -5 -25 -30 0 -20 -5 -30 -15 -30 -8 0 -15 -5 -15 -11 0 -6 -7
-9 -14 -6 -10 4 -13 1 -9 -9 8 -22 29 -17 52 14 39 51 64 77 74 77 5 0 18 20
28 45 10 25 18 39 18 33 1 -18 21 -16 21 2 0 8 5 16 10 16 6 1 15 2 20 3 6 0
14 6 18 12 4 6 16 14 28 18 34 11 25 36 -13 36 -29 0 -33 3 -33 25 0 22 4 25
35 25 36 0 47 13 19 24 -26 10 -52 7 -57 -6 -4 -10 -8 -9 -17 2 -9 12 -10 10
-4 -10z"/>
<path d="M980 765 c0 -8 5 -15 10 -15 6 0 10 7 10 15 0 8 -4 15 -10 15 -5 0
-10 -7 -10 -15z"/>
<path d="M660 725 c0 -16 -6 -25 -15 -25 -8 0 -15 -4 -15 -10 0 -5 11 -10 25
-10 22 0 25 4 25 35 0 19 -4 35 -10 35 -5 0 -10 -11 -10 -25z"/>
<path d="M630 719 c0 -5 5 -7 10 -4 6 3 10 8 10 11 0 2 -4 4 -10 4 -5 0 -10
-5 -10 -11z"/>
<path d="M793 653 c-15 -5 -17 -23 -4 -23 5 0 11 7 15 15 3 8 4 15 3 14 -1 0
-8 -3 -14 -6z"/>
<path d="M810 590 c0 -5 5 -10 10 -10 6 0 10 5 10 10 0 6 -4 10 -10 10 -5 0
-10 -4 -10 -10z"/>
<path d="M851 564 c0 -11 3 -14 6 -6 3 7 2 16 -1 19 -3 4 -6 -2 -5 -13z"/>
<path d="M880 559 c0 -5 28 -9 63 -8 71 1 67 5 -10 12 -29 2 -53 0 -53 -4z"/>
<path d="M908 523 c17 -2 47 -2 65 0 17 2 3 4 -33 4 -36 0 -50 -2 -32 -4z"/>
<path d="M500 511 c0 -10 19 -25 25 -20 1 2 -3 10 -11 17 -8 7 -14 8 -14 3z"/>
<path d="M393 455 c4 -10 1 -12 -10 -8 -14 5 -15 0 -10 -33 3 -21 3 -33 0 -26
-8 22 -36 14 -30 -9 5 -18 2 -20 -24 -14 -18 4 -29 3 -29 -4 0 -6 4 -11 10
-11 5 0 7 -7 4 -15 -4 -8 -1 -15 5 -15 6 0 11 7 11 15 0 9 9 15 21 15 26 0 49
23 49 49 0 12 5 21 10 21 6 0 10 7 10 15 0 10 10 15 27 15 33 0 27 5 -16 14
-26 5 -32 3 -28 -9z"/>
<path d="M433 423 c11 -7 8 -53 -4 -53 -14 0 -39 -26 -39 -40 0 -8 -11 -11
-28 -8 -26 4 -28 2 -24 -24 3 -16 0 -28 -7 -28 -6 0 -11 -16 -10 -37 l1 -38
14 35 c8 19 17 43 20 53 4 9 10 17 14 17 12 0 90 79 90 90 0 6 7 10 15 10 8 0
15 5 15 10 0 6 -9 10 -19 10 -11 0 -25 2 -33 3 -7 2 -10 2 -5 0z"/>
<path d="M410 389 c0 -5 5 -7 10 -4 6 3 10 8 10 11 0 2 -4 4 -10 4 -5 0 -10
-5 -10 -11z"/>
<path d="M273 313 c3 -21 3 -32 0 -25 -8 21 -36 14 -30 -7 3 -14 1 -18 -9 -14
-12 4 -14 -19 -14 -131 0 -84 4 -136 10 -136 6 0 10 48 10 125 0 82 4 125 11
125 21 0 39 29 39 64 0 20 -5 36 -11 36 -8 0 -10 -13 -6 -37z"/>
<path d="M290 123 c0 -69 2 -124 4 -122 9 10 14 249 6 249 -6 0 -10 -53 -10
-127z"/>
<path d="M264 120 c0 -69 1 -97 3 -63 2 35 2 91 0 125 -2 35 -3 7 -3 -62z"/>
</g>
</svg>
