<?xml version="1.0" standalone="no"?>
<!DOCTYPE svg PUBLIC "-//W3C//DTD SVG 20010904//EN"
 "http://www.w3.org/TR/2001/REC-SVG-20010904/DTD/svg10.dtd">
<svg version="1.0" xmlns="http://www.w3.org/2000/svg"
 width="200.000000pt" height="200.000000pt" viewBox="0 0 200.000000 200.000000"
 preserveAspectRatio="xMidYMid meet">
<metadata>
Created by potrace 1.16, written by Peter Selinger 2001-2019
</metadata>
<g transform="translate(0.000000,200.000000) scale(0.100000,-0.100000)"
fill="#000000" stroke="none">
<path d="M5 1000 l0 -770 433 0 c237 0 432 4 432 8 0 4 -14 16 -31 26 -17 10
-33 26 -37 36 -4 10 -25 38 -47 62 -44 47 -100 112 -149 171 -17 20 -50 57
-73 81 -24 24 -43 47 -43 51 0 4 -16 26 -36 49 -20 22 -59 67 -88 100 -28 32
-61 68 -73 79 -13 11 -23 26 -23 33 0 7 -13 24 -30 37 -16 14 -30 30 -30 36 0
5 14 24 30 43 17 18 38 42 48 54 9 11 39 47 67 80 27 32 68 78 90 102 22 24
42 49 44 55 2 7 15 24 30 38 14 14 46 49 71 78 25 30 62 72 82 95 21 22 38 44
38 48 0 4 20 26 45 49 25 23 45 48 45 55 0 8 16 24 35 36 19 13 35 26 35 31 0
4 -195 7 -432 7 l-433 0 0 -770z m765 722 c0 -5 -18 -28 -40 -51 -22 -23 -40
-44 -40 -47 0 -5 -129 -155 -186 -215 -19 -21 -34 -41 -34 -46 0 -5 -8 -16
-17 -24 -19 -16 -178 -198 -203 -231 -8 -11 -27 -35 -42 -53 -38 -44 -36 -74
7 -115 19 -19 35 -38 35 -43 0 -4 15 -25 34 -45 71 -76 186 -211 186 -217 0
-3 16 -23 35 -43 20 -20 74 -82 121 -137 46 -55 95 -111 107 -125 58 -66 89
-60 -322 -60 l-371 0 0 730 0 730 365 0 c201 0 365 -4 365 -8z"/>
<path d="M1080 1761 c0 -5 -12 -23 -26 -40 l-26 -31 201 0 c170 0 203 2 207
15 5 13 35 15 184 15 152 0 183 3 209 18 17 9 31 20 31 25 0 4 -175 7 -390 7
-232 0 -390 -4 -390 -9z m325 -41 c-4 -6 -67 -10 -156 -10 -98 0 -148 4 -144
10 4 6 67 10 156 10 98 0 148 -4 144 -10z"/>
<path d="M963 1615 c-18 -19 -33 -37 -33 -40 0 -3 92 -5 204 -5 172 0 205 2
210 15 4 12 33 15 168 15 160 0 163 1 187 25 l23 25 -363 -1 -364 0 -32 -34z
m275 -12 c-42 -2 -114 -2 -160 0 -46 1 -11 3 77 3 88 0 125 -2 83 -3z"/>
<path d="M859 1498 l-37 -38 209 0 c200 0 209 1 219 20 11 20 19 21 173 18
143 -3 164 -1 180 15 9 9 14 17 10 17 -5 1 -168 2 -363 3 l-355 2 -36 -37z
m356 -8 c-4 -6 -69 -10 -161 -10 -101 0 -153 3 -149 10 4 6 69 10 161 10 101
0 153 -3 149 -10z"/>
<path d="M763 1383 c-18 -20 -33 -38 -33 -40 0 -1 94 -3 209 -3 201 0 210 1
216 20 6 19 15 20 195 20 162 0 189 2 194 16 3 9 6 18 6 20 0 2 -170 4 -377 3
l-378 0 -32 -36z m290 0 c-46 -2 -120 -2 -165 0 -46 1 -9 3 82 3 91 0 128 -2
83 -3z"/>
<path d="M1106 1302 l-409 -2 -32 -33 -31 -32 210 3 c174 2 213 6 223 18 10
13 45 15 242 12 127 -2 231 -1 231 2 0 3 -6 12 -13 20 -10 13 -67 15 -421 12z
m-71 -32 c-4 -6 -71 -10 -168 -10 -108 0 -157 4 -147 10 20 13 323 13 315 0z"/>
<path d="M577 1165 c-21 -20 -37 -38 -37 -40 0 -3 93 -5 208 -5 198 0 208 1
225 21 18 20 25 21 313 17 162 -2 294 0 294 5 0 4 -4 7 -10 7 -5 0 -10 7 -10
15 0 13 -59 15 -473 15 l-474 0 -36 -35z m281 -12 c-42 -2 -114 -2 -160 0 -46
1 -11 3 77 3 88 0 125 -2 83 -3z"/>
<path d="M473 1045 c-17 -18 -30 -35 -28 -37 2 -1 99 -1 215 2 189 4 213 7
225 23 12 17 36 18 399 15 212 -2 386 -1 386 1 0 2 -8 10 -17 17 -15 11 -128
13 -583 13 l-565 0 -32 -34z m300 -2 c-45 -2 -122 -2 -170 0 -48 1 -11 3 82 3
94 0 133 -2 88 -3z"/>
<path d="M493 935 l32 -34 203 -3 c111 -2 202 -1 202 2 0 4 -5 11 -12 18 -9 9
85 12 427 12 437 0 438 0 420 20 -18 20 -31 20 -661 20 l-643 0 32 -35z m309
-2 c-51 -2 -132 -2 -180 0 -48 1 -6 3 93 3 99 0 138 -2 87 -3z"/>
<path d="M589 825 l38 -35 196 0 c181 0 195 1 191 18 -5 16 9 17 208 15 117
-2 313 -4 436 -5 122 -2 222 0 222 3 0 3 -8 13 -18 22 -17 15 -78 17 -665 17
l-647 0 39 -35z m391 -5 c0 -6 -61 -10 -164 -10 -99 0 -167 4 -171 10 -4 7 53
10 164 10 107 0 171 -4 171 -10z"/>
<path d="M660 740 c0 -5 11 -17 25 -26 14 -9 25 -23 25 -30 0 -11 37 -14 204
-14 199 0 204 0 199 20 -5 20 0 20 415 20 415 0 420 0 415 20 -5 20 -14 20
-644 20 -409 0 -639 -4 -639 -10z m343 -37 c-45 -2 -122 -2 -170 0 -48 1 -11
3 82 3 94 0 133 -2 88 -3z"/>
<path d="M786 595 l26 -35 183 0 c101 0 191 -3 200 -6 13 -5 15 -2 10 17 l-6
24 388 0 c361 0 388 1 391 18 3 16 -31 17 -608 17 l-611 0 27 -35z m394 5 c0
-6 -65 -10 -174 -10 -106 0 -177 4 -181 10 -4 7 57 10 174 10 114 0 181 -4
181 -10z"/>
<path d="M850 514 c0 -3 13 -18 28 -34 l29 -28 201 -4 c127 -2 198 0 192 7 -6
5 -10 13 -10 17 0 4 148 8 329 8 291 0 330 2 335 16 3 9 6 18 6 20 0 2 -250 4
-555 4 -305 0 -555 -3 -555 -6z m338 -31 c-49 -2 -127 -2 -175 0 -49 1 -9 3
87 3 96 0 136 -2 88 -3z"/>
<path d="M971 377 l37 -38 192 0 c105 0 194 2 197 5 4 3 1 6 -5 6 -7 0 -12 5
-12 10 0 6 93 10 259 10 221 0 260 2 265 15 5 13 -51 15 -463 15 -258 0 -478
3 -488 7 -10 4 -3 -9 18 -30z m389 -7 c0 -6 -62 -10 -165 -10 -103 0 -165 4
-165 10 0 6 62 10 165 10 103 0 165 -4 165 -10z"/>
<path d="M1050 279 c0 -4 7 -9 15 -13 8 -3 15 -12 15 -21 0 -13 42 -15 351
-15 350 0 351 0 375 23 13 12 24 24 24 27 0 3 -175 5 -390 5 -214 0 -390 -3
-390 -6z"/>
</g>
</svg>
