<?xml version="1.0" standalone="no"?>
<!DOCTYPE svg PUBLIC "-//W3C//DTD SVG 20010904//EN"
 "http://www.w3.org/TR/2001/REC-SVG-20010904/DTD/svg10.dtd">
<svg version="1.0" xmlns="http://www.w3.org/2000/svg"
 width="96.000000pt" height="96.000000pt" viewBox="0 0 96.000000 96.000000"
 preserveAspectRatio="xMidYMid meet">
<metadata>
Created by potrace 1.16, written by Peter Selinger 2001-2019
</metadata>
<g transform="translate(0.000000,96.000000) scale(0.100000,-0.100000)"
fill="#000000" stroke="none">
<path d="M343 704 c-3 -8 -10 -11 -17 -7 -6 3 -7 2 -3 -2 13 -15 35 -14 41 2
3 8 11 11 18 7 7 -4 9 -3 5 1 -13 15 -38 14 -44 -1z"/>
<path d="M558 713 c7 -3 16 -2 19 1 4 3 -2 6 -13 5 -11 0 -14 -3 -6 -6z"/>
<path d="M594 707 c3 -10 6 -21 6 -23 0 -2 9 -4 20 -4 11 0 20 5 20 11 0 5 -5
7 -12 3 -6 -4 -18 2 -26 12 -14 18 -14 18 -8 1z"/>
<path d="M398 689 c-50 -29 -42 -79 25 -146 l41 -43 34 33 c48 46 75 102 62
127 -16 31 -45 42 -73 29 -18 -8 -30 -8 -45 0 -24 13 -22 13 -44 0z m49 -20
c9 -9 20 -9 43 1 27 11 34 11 47 -3 22 -22 10 -59 -34 -108 l-37 -41 -38 40
c-42 46 -56 85 -38 107 15 18 42 19 57 4z"/>
<path d="M451 578 c5 -10 11 -18 12 -18 2 0 3 8 3 18 0 10 -6 19 -13 19 -8 0
-9 -6 -2 -19z"/>
<path d="M592 640 c0 -14 2 -19 5 -12 2 6 2 18 0 25 -3 6 -5 1 -5 -13z"/>
<path d="M320 581 c0 -6 4 -13 10 -16 6 -3 7 1 4 9 -7 18 -14 21 -14 7z"/>
<path d="M586 575 c-16 -12 -17 -15 -4 -15 9 0 18 7 22 15 7 18 6 18 -18 0z"/>
<path d="M509 508 c-7 -23 -4 -35 7 -35 9 0 11 4 4 12 -5 7 -7 15 -3 18 3 4 3
7 0 7 -4 0 -7 -1 -8 -2z"/>
<path d="M102 460 c-22 -18 -22 -19 -2 -17 11 1 20 7 20 14 0 17 15 16 30 -2
7 -8 16 -15 21 -15 5 0 0 9 -11 20 -24 24 -29 24 -58 0z"/>
<path d="M183 466 c-4 -5 -1 -6 7 -1 10 6 12 4 7 -8 -4 -11 -2 -14 8 -11 7 3
16 11 18 18 6 14 -32 16 -40 2z"/>
<path d="M256 471 c-3 -5 2 -15 12 -22 15 -12 16 -12 5 2 -7 9 -10 19 -6 22 3
4 4 7 0 7 -3 0 -8 -4 -11 -9z"/>
<path d="M300 470 c13 -9 13 -10 0 -10 -11 -1 -11 -3 3 -11 10 -6 21 -8 24 -5
4 3 1 6 -6 6 -7 0 -9 5 -6 10 5 8 12 7 23 -2 14 -10 15 -10 5 2 -7 7 -23 15
-35 17 -18 2 -20 1 -8 -7z"/>
<path d="M540 470 c0 -6 7 -10 15 -10 8 0 15 2 15 4 0 2 -7 6 -15 10 -8 3 -15
1 -15 -4z"/>
<path d="M646 467 c3 -8 11 -14 19 -14 20 0 19 4 -5 17 -15 8 -18 8 -14 -3z"/>
<path d="M697 459 c4 -13 8 -18 11 -10 2 7 -1 18 -6 23 -8 8 -9 4 -5 -13z"/>
<path d="M735 469 c-4 -6 -5 -12 -2 -15 2 -3 7 2 10 11 7 17 1 20 -8 4z"/>
<path d="M813 473 c4 -3 1 -13 -6 -22 -11 -14 -10 -14 5 -2 16 12 16 31 1 31
-4 0 -3 -3 0 -7z"/>
<path d="M855 471 c-3 -5 -2 -12 3 -15 5 -3 9 1 9 9 0 17 -3 19 -12 6z"/>
<path d="M10 446 c4 -4 16 -4 26 2 16 9 14 10 -8 9 -15 -1 -23 -6 -18 -11z"/>
<path d="M2 385 c0 -22 2 -32 5 -22 5 21 29 23 37 2 3 -8 11 -15 17 -15 7 0 6
8 -4 23 -14 21 -13 24 1 35 16 10 16 11 1 11 -9 1 -23 -6 -30 -15 -12 -14 -14
-14 -20 3 -5 12 -7 5 -7 -22z"/>
<path d="M83 385 c0 -22 2 -30 4 -17 2 12 2 30 0 40 -3 9 -5 -1 -4 -23z"/>
<path d="M108 390 c-3 -17 -1 -33 4 -36 4 -3 8 4 8 15 0 10 3 26 6 35 3 9 2
16 -4 16 -5 0 -12 -14 -14 -30z"/>
<path d="M163 400 c6 -23 -3 -26 -21 -8 -7 7 -12 8 -12 2 0 -12 32 -44 43 -44
4 0 7 16 7 35 0 19 -5 35 -11 35 -6 0 -9 -9 -6 -20z"/>
<path d="M192 388 c3 -29 7 -33 32 -33 32 0 53 23 43 49 -4 11 -18 16 -42 16
-35 0 -36 -1 -33 -32z m63 -3 c0 -5 -10 -11 -22 -13 -16 -2 -23 2 -23 13 0 11
7 15 23 13 12 -2 22 -7 22 -13z"/>
<path d="M310 385 c0 -35 1 -36 33 -33 28 3 32 6 32 33 0 27 -4 30 -32 33 -32
3 -33 2 -33 -33z m58 3 c-7 -20 -48 -23 -48 -4 0 11 9 16 26 16 16 0 24 -5 22
-12z"/>
<path d="M399 415 c-1 -3 -1 -17 -2 -32 -1 -24 3 -28 31 -31 18 -2 32 1 32 7
0 6 -12 11 -27 12 -25 0 -26 1 -8 9 17 7 17 9 3 9 -10 1 -18 6 -18 11 0 6 11
8 25 4 15 -4 25 -2 25 5 0 11 -59 16 -61 6z"/>
<path d="M470 391 c0 -17 5 -33 10 -36 6 -3 10 1 10 9 0 21 9 20 33 -1 18 -16
20 -16 14 -2 -3 9 -1 21 5 27 17 17 -1 32 -38 32 -31 0 -34 -3 -34 -29z m55 9
c3 -6 -4 -10 -17 -10 -18 0 -20 2 -8 10 19 12 18 12 25 0z"/>
<path d="M584 409 c-8 -13 4 -25 31 -32 15 -4 13 -5 -7 -6 -16 0 -28 -5 -28
-11 0 -12 40 -13 59 -1 16 10 6 31 -14 31 -8 0 -17 5 -21 11 -4 8 0 9 15 4 12
-4 21 -2 21 4 0 14 -47 14 -56 0z"/>
<path d="M650 410 c0 -5 5 -10 10 -10 6 0 10 -11 10 -25 0 -14 5 -25 10 -25 6
0 10 10 10 21 0 12 8 28 18 35 15 12 13 13 -20 14 -21 0 -38 -4 -38 -10z"/>
<path d="M727 403 c-2 -10 -8 -26 -12 -36 -7 -17 -6 -18 13 -6 17 10 23 10 36
0 19 -16 21 -3 4 34 -13 29 -33 33 -41 8z m28 -13 c3 -5 1 -10 -4 -10 -6 0
-11 5 -11 10 0 6 2 10 4 10 3 0 8 -4 11 -10z"/>
<path d="M792 388 c3 -29 7 -33 32 -33 36 0 56 26 37 49 -8 9 -27 16 -43 16
-27 0 -29 -2 -26 -32z m58 -3 c0 -8 -9 -15 -20 -15 -11 0 -20 7 -20 15 0 8 9
15 20 15 11 0 20 -7 20 -15z"/>
<path d="M870 410 c0 -5 5 -10 10 -10 6 0 10 -11 10 -25 0 -14 5 -25 10 -25 6
0 10 11 10 25 0 20 5 25 25 25 14 0 25 5 25 10 0 6 -20 10 -45 10 -25 0 -45
-4 -45 -10z"/>
<path d="M126 332 c-3 -4 4 -9 15 -9 23 -2 25 3 4 10 -8 4 -16 3 -19 -1z"/>
<path d="M265 330 c-3 -6 1 -7 9 -4 18 7 21 14 7 14 -6 0 -13 -4 -16 -10z"/>
<path d="M746 331 c-3 -4 6 -7 19 -7 14 0 22 2 19 5 -8 8 -34 10 -38 2z"/>
<path d="M928 323 c6 -2 18 -2 25 0 6 3 1 5 -13 5 -14 0 -19 -2 -12 -5z"/>
</g>
</svg>
