<?xml version="1.0" standalone="no"?>
<!DOCTYPE svg PUBLIC "-//W3C//DTD SVG 20010904//EN"
 "http://www.w3.org/TR/2001/REC-SVG-20010904/DTD/svg10.dtd">
<svg version="1.0" xmlns="http://www.w3.org/2000/svg"
 width="256.000000pt" height="256.000000pt" viewBox="0 0 256.000000 256.000000"
 preserveAspectRatio="xMidYMid meet">
<metadata>
Created by potrace 1.16, written by Peter Selinger 2001-2019
</metadata>
<g transform="translate(0.000000,256.000000) scale(0.100000,-0.100000)"
fill="#000000" stroke="none">
<path d="M1155 2544 c-8 -9 -15 -22 -15 -30 0 -8 -6 -14 -14 -14 -30 0 -48
-129 -24 -173 15 -30 51 -67 63 -67 6 0 18 -9 27 -19 9 -11 33 -23 53 -27 38
-7 115 10 115 25 0 5 10 11 23 15 12 3 34 25 49 50 25 42 29 70 19 162 0 6
-12 24 -26 40 -14 16 -30 35 -36 42 -5 6 -20 12 -32 12 l-22 -1 21 -12 c77
-44 106 -149 63 -226 -60 -107 -207 -115 -283 -14 -21 29 -31 88 -22 135 9 48
68 110 101 104 14 -3 25 -1 25 3 0 15 -69 10 -85 -5z"/>
<path d="M1310 2549 c0 -5 5 -7 10 -4 6 3 10 8 10 11 0 2 -4 4 -10 4 -5 0 -10
-5 -10 -11z"/>
<path d="M655 2424 c-11 -9 -32 -20 -47 -26 -32 -11 -68 -79 -73 -135 -1 -21
4 -55 11 -77 16 -44 74 -106 101 -107 120 -6 129 -5 170 18 55 32 82 87 78
165 -3 74 -27 113 -93 149 -59 32 -116 37 -147 13z m156 -38 c93 -62 93 -209
0 -272 -42 -29 -124 -33 -174 -9 -76 36 -108 144 -65 224 48 89 152 114 239
57z"/>
<path d="M708 2393 c7 -3 16 -2 19 1 4 3 -2 6 -13 5 -11 0 -14 -3 -6 -6z"/>
<path d="M830 2345 c7 -9 15 -13 17 -11 7 7 -7 26 -19 26 -6 0 -6 -6 2 -15z"/>
<path d="M815 2150 c-3 -5 -1 -10 4 -10 6 0 11 5 11 10 0 6 -2 10 -4 10 -3 0
-8 -4 -11 -10z"/>
<path d="M1760 2419 c-60 -34 -98 -82 -105 -133 -20 -133 51 -215 182 -210 78
3 100 10 106 35 3 11 14 23 25 25 24 7 52 69 52 116 0 49 -46 137 -77 144 -12
4 -23 9 -23 13 0 14 -50 31 -88 30 -20 0 -53 -9 -72 -20z m150 -23 c103 -55
118 -187 31 -271 -27 -24 -41 -30 -95 -33 -97 -6 -149 29 -171 115 -21 83 12
155 87 192 56 27 93 27 148 -3z"/>
<path d="M1828 2393 c7 -3 16 -2 19 1 4 3 -2 6 -13 5 -11 0 -14 -3 -6 -6z"/>
<path d="M1700 2163 c0 -12 38 -48 45 -41 3 2 -6 15 -20 28 -14 13 -25 19 -25
13z"/>
<path d="M1255 2250 c3 -5 12 -10 20 -10 8 0 17 5 20 10 4 6 -5 10 -20 10 -15
0 -24 -4 -20 -10z"/>
<path d="M1134 2150 c-337 -61 -599 -288 -694 -603 -31 -104 -40 -164 -40
-267 0 -241 89 -460 255 -625 105 -105 209 -167 365 -216 100 -32 113 -34 255
-33 136 0 158 2 240 28 159 49 277 118 382 223 107 106 189 256 229 413 26
104 26 316 0 420 -80 317 -298 543 -613 636 -98 29 -286 41 -379 24z m346 -41
c206 -52 401 -192 512 -369 91 -145 131 -285 131 -460 0 -96 -5 -143 -22 -203
-97 -361 -373 -603 -740 -647 -107 -13 -226 -1 -344 37 -307 96 -534 362 -586
688 -24 148 7 346 76 494 170 362 583 558 973 460z"/>
<path d="M1619 1724 l-97 -96 -38 12 c-51 17 -173 17 -215 0 -70 -28 -159
-125 -159 -172 0 -7 -21 -22 -47 -32 -126 -52 -190 -196 -152 -341 5 -22 11
-45 12 -51 1 -7 -40 -55 -90 -107 -81 -83 -93 -100 -93 -130 0 -41 25 -67 65
-67 22 0 49 21 126 96 l97 96 39 -13 c44 -14 141 -17 195 -6 56 12 130 75 158
136 21 44 34 57 83 83 97 52 147 136 147 247 0 32 -7 79 -16 105 l-17 48 97
97 c80 80 96 102 96 127 0 38 -27 64 -66 64 -24 0 -48 -18 -125 -96z m167 44
c5 -16 -15 -42 -101 -128 l-107 -107 23 -44 c34 -68 32 -158 -6 -228 -31 -57
-84 -102 -139 -121 -23 -7 -36 -20 -44 -44 -50 -137 -209 -205 -341 -145 l-45
20 -100 -99 c-107 -105 -121 -115 -148 -100 -38 19 -20 51 86 156 l104 103
-21 42 c-32 66 -29 158 8 226 31 56 83 102 138 121 25 8 37 22 56 65 25 59 72
104 135 130 51 21 142 19 196 -6 l44 -20 104 104 c85 85 108 103 128 99 13 -2
26 -13 30 -24z"/>
<path d="M1305 1536 c-31 -13 -85 -69 -85 -87 0 -5 -1 -12 -2 -16 -2 -3 7 -8
20 -10 35 -5 76 -29 111 -64 34 -34 71 -98 71 -124 0 -52 101 35 119 103 37
135 -105 254 -234 198z m113 -21 c73 -31 110 -92 98 -160 -6 -33 -49 -95 -65
-95 -5 0 -16 18 -26 40 -24 52 -75 105 -131 133 l-45 23 28 26 c24 22 70 45
96 47 4 1 24 -6 45 -14z"/>
<path d="M1212 1323 c22 -51 108 -126 125 -109 17 16 -41 97 -88 121 -42 22
-50 19 -37 -12z"/>
<path d="M1060 1302 c-69 -69 -74 -160 -14 -232 50 -59 125 -76 198 -46 28 12
96 80 96 96 0 3 -23 13 -51 23 -68 25 -135 92 -151 152 -7 26 -18 45 -26 45
-8 0 -31 -17 -52 -38z m58 -35 c18 -49 69 -103 129 -135 l53 -28 -28 -26 c-62
-57 -127 -59 -187 -7 -62 55 -70 138 -19 199 14 16 29 30 33 30 4 0 12 -15 19
-33z"/>
<path d="M254 2015 c-4 -8 -12 -15 -20 -15 -28 0 -65 -24 -70 -47 -4 -13 -10
-23 -14 -23 -18 0 -32 -61 -25 -112 6 -42 14 -60 41 -85 19 -17 34 -36 34 -41
0 -12 78 -42 108 -42 12 0 30 4 40 10 9 5 34 16 54 24 57 22 85 75 84 156 -2
90 -27 131 -107 170 -51 24 -117 27 -125 5z m126 -27 c63 -32 90 -77 90 -148
0 -70 -27 -116 -85 -145 -76 -38 -153 -21 -206 45 -65 80 -40 198 51 245 57
30 94 31 150 3z"/>
<path d="M283 1983 c9 -2 23 -2 30 0 6 3 -1 5 -18 5 -16 0 -22 -2 -12 -5z"/>
<path d="M407 1735 c-10 -14 -14 -25 -9 -25 10 0 42 33 42 43 0 14 -16 5 -33
-18z"/>
<path d="M288 1688 c17 -8 26 -8 34 0 9 9 4 12 -22 11 -33 0 -34 -1 -12 -11z"/>
<path d="M2155 1995 c-22 -19 -45 -35 -51 -35 -34 0 -53 -149 -26 -204 18 -37
60 -76 82 -76 9 0 25 -7 36 -15 72 -55 234 66 234 175 0 54 -74 160 -111 160
-9 0 -19 7 -23 15 -4 10 -20 15 -53 15 -41 0 -54 -5 -88 -35z m154 -5 c47 -24
77 -60 93 -111 22 -76 -26 -163 -108 -195 -38 -14 -51 -15 -87 -5 -89 27 -127
74 -127 159 0 69 20 106 78 143 54 34 97 37 151 9z"/>
<path d="M2194 1988 c-3 -4 15 -8 40 -8 25 0 46 2 46 4 0 8 -82 11 -86 4z"/>
<path d="M2381 1840 c0 -40 2 -42 11 -22 8 16 8 28 0 45 -9 19 -11 17 -11 -23z"/>
<path d="M2228 1688 c8 -8 17 -8 34 0 22 10 21 11 -11 11 -27 1 -32 -2 -23
-11z"/>
<path d="M83 1450 c-17 -10 -37 -28 -43 -39 -6 -12 -17 -21 -25 -21 -10 0 -15
-10 -15 -27 l0 -28 13 24 c6 13 29 37 49 54 140 113 336 -70 235 -221 -45 -68
-125 -98 -194 -71 -33 12 -82 56 -93 84 -8 18 -9 17 -9 -7 -1 -19 4 -28 14
-28 9 0 20 -11 26 -24 6 -13 26 -31 45 -40 43 -20 122 -22 130 -2 3 8 17 16
32 19 19 4 39 23 65 64 34 50 38 64 34 101 -6 57 -58 132 -111 160 -51 27
-111 28 -153 2z"/>
<path d="M2334 1455 c-4 -8 -14 -15 -24 -15 -40 0 -110 -104 -110 -164 0 -29
34 -98 62 -129 33 -34 85 -57 129 -57 47 0 107 27 114 52 4 9 16 26 29 35 20
17 22 26 22 105 -1 82 -3 89 -28 113 -16 14 -28 29 -28 34 0 4 -16 15 -35 24
-45 22 -123 23 -131 2z m125 -23 c19 -9 48 -34 65 -55 26 -32 28 -41 18 -57
-15 -25 -15 -55 0 -79 10 -16 7 -25 -16 -55 -37 -48 -68 -68 -119 -73 -111
-12 -206 97 -178 204 29 106 140 162 230 115z"/>
<path d="M2355 1430 c-4 -6 12 -10 42 -10 35 0 44 3 33 10 -20 13 -67 13 -75
0z"/>
<path d="M2234 1286 c-3 -8 -1 -23 5 -33 9 -15 10 -13 11 15 0 34 -7 42 -16
18z"/>
<path d="M2360 1130 c8 -5 24 -10 35 -10 11 0 27 5 35 10 11 7 1 10 -35 10
-36 0 -46 -3 -35 -10z"/>
<path d="M120 1430 c-11 -7 0 -10 38 -10 33 0 51 4 47 10 -8 13 -65 13 -85 0z"/>
<path d="M301 1270 c0 -33 1 -34 11 -12 8 17 8 26 0 34 -9 9 -12 4 -11 -22z"/>
<path d="M125 1130 c28 -12 63 -12 70 0 4 6 -12 10 -42 9 -36 0 -43 -3 -28 -9z"/>
<path d="M250 894 c-19 -8 -54 -34 -76 -58 -34 -35 -43 -53 -49 -95 -7 -50 7
-111 25 -111 4 0 11 -11 14 -25 4 -15 16 -27 31 -31 14 -3 25 -9 25 -13 0 -14
50 -31 90 -31 22 0 55 10 77 22 77 46 98 81 99 168 1 81 -27 134 -84 156 -20
8 -45 19 -54 24 -25 14 -57 12 -98 -6z m139 -32 c54 -26 81 -74 81 -142 0 -69
-26 -114 -85 -147 -51 -29 -99 -29 -154 0 -96 52 -119 171 -47 252 55 63 126
76 205 37z"/>
<path d="M295 870 c-4 -6 6 -10 22 -10 22 0 25 2 13 10 -19 12 -27 12 -35 0z"/>
<path d="M407 825 c18 -25 33 -32 33 -17 0 10 -33 42 -44 42 -4 0 1 -11 11
-25z"/>
<path d="M281 576 c9 -9 69 -13 75 -5 3 5 -14 9 -37 9 -23 0 -40 -2 -38 -4z"/>
<path d="M2205 901 c-3 -5 -19 -12 -35 -16 -35 -8 -88 -57 -94 -88 -15 -75
-14 -136 5 -166 10 -17 23 -31 29 -31 5 0 10 -7 10 -15 0 -9 12 -18 29 -21 17
-4 32 -12 35 -20 7 -19 105 -19 112 0 3 8 18 16 35 20 21 4 38 20 64 60 39 62
45 108 19 159 -22 42 -75 97 -95 97 -8 0 -24 7 -35 15 -21 16 -70 20 -79 6z
m86 -26 c55 -20 77 -40 100 -90 25 -55 24 -89 -7 -144 -45 -83 -140 -113 -219
-68 -56 32 -85 79 -85 139 0 86 32 135 106 162 50 19 54 19 105 1z"/>
<path d="M2225 870 c-3 -5 3 -10 15 -10 12 0 18 5 15 10 -3 6 -10 10 -15 10
-5 0 -12 -4 -15 -10z"/>
<path d="M2380 717 c0 -30 4 -46 10 -42 13 8 13 55 0 75 -7 11 -10 2 -10 -33z"/>
<path d="M2208 571 c12 -7 62 -4 62 5 0 2 -17 4 -37 4 -24 0 -33 -3 -25 -9z"/>
<path d="M641 477 c-33 -8 -88 -71 -100 -115 -12 -42 -5 -97 18 -145 17 -34
32 -47 78 -70 67 -31 101 -30 172 5 58 29 82 71 87 150 6 112 -57 180 -168
182 -32 1 -71 -2 -87 -7z m170 -31 c50 -34 72 -85 67 -153 -6 -66 -29 -100
-88 -131 -57 -28 -94 -28 -150 2 -88 47 -114 154 -59 238 31 48 70 67 139 68
42 0 64 -6 91 -24z"/>
<path d="M815 410 c3 -5 8 -10 11 -10 2 0 4 5 4 10 0 6 -5 10 -11 10 -5 0 -7
-4 -4 -10z"/>
<path d="M820 205 c-13 -14 -19 -25 -13 -25 12 0 48 38 41 45 -2 3 -15 -6 -28
-20z"/>
<path d="M1731 462 c-26 -15 -44 -34 -48 -50 -3 -15 -12 -33 -20 -40 -16 -16
-17 -73 -3 -124 12 -42 63 -98 89 -98 9 0 22 -5 27 -10 24 -24 144 -16 144 10
0 4 11 10 23 14 31 7 77 95 77 144 0 45 -28 110 -51 117 -10 4 -21 15 -24 25
-8 24 -30 31 -109 34 -52 2 -71 -1 -105 -22z m209 -27 c62 -59 75 -130 37
-204 -24 -48 -91 -91 -140 -91 -36 0 -95 25 -124 52 -69 65 -53 203 29 257 27
18 45 21 100 19 59 -3 71 -7 98 -33z"/>
<path d="M1223 340 c-12 -5 -39 -28 -60 -51 -21 -23 -45 -50 -54 -58 -23 -23
-23 -133 0 -158 9 -10 24 -30 34 -45 21 -34 67 -39 67 -9 0 10 -9 21 -20 24
-25 6 -26 -8 -2 -22 9 -6 12 -11 5 -11 -7 0 -28 21 -48 46 -29 40 -35 55 -35
98 0 136 152 220 255 142 59 -45 77 -82 73 -147 -4 -59 -34 -109 -82 -136
l-21 -12 22 -1 c24 0 53 24 53 46 0 8 6 14 14 14 19 0 27 24 32 90 4 57 -18
120 -42 120 -6 0 -19 12 -29 26 -29 45 -107 66 -162 44z"/>
<path d="M1255 310 c-4 -6 5 -10 20 -10 15 0 24 4 20 10 -3 6 -12 10 -20 10
-8 0 -17 -4 -20 -10z"/>
<path d="M1132 110 c0 -14 2 -19 5 -12 2 6 2 18 0 25 -3 6 -5 1 -5 -13z"/>
<path d="M1225 10 c-3 -5 -1 -10 4 -10 6 0 11 5 11 10 0 6 -2 10 -4 10 -3 0
-8 -4 -11 -10z"/>
<path d="M1310 10 c0 -5 5 -10 11 -10 5 0 7 5 4 10 -3 6 -8 10 -11 10 -2 0 -4
-4 -4 -10z"/>
</g>
</svg>
