<?xml version="1.0" standalone="no"?>
<!DOCTYPE svg PUBLIC "-//W3C//DTD SVG 20010904//EN"
 "http://www.w3.org/TR/2001/REC-SVG-20010904/DTD/svg10.dtd">
<svg version="1.0" xmlns="http://www.w3.org/2000/svg"
 width="100.000000pt" height="100.000000pt" viewBox="0 0 100.000000 100.000000"
 preserveAspectRatio="xMidYMid meet">
<metadata>
Created by potrace 1.16, written by Peter Selinger 2001-2019
</metadata>
<g transform="translate(0.000000,100.000000) scale(0.100000,-0.100000)"
fill="#000000" stroke="none">
<path d="M110 925 c0 -33 -2 -35 -35 -35 -32 0 -35 -2 -35 -30 0 -23 -4 -30
-20 -30 -11 0 -20 -4 -20 -10 0 -5 11 -10 24 -10 19 0 23 -4 19 -20 -3 -11
-14 -20 -24 -20 -11 0 -19 -4 -19 -10 0 -5 13 -10 30 -10 l30 0 0 60 0 60 65
0 65 0 0 -155 0 -155 125 0 125 0 0 31 c0 17 -4 28 -10 24 -6 -3 -10 -13 -10
-21 0 -8 -4 -14 -9 -14 -5 0 -16 -3 -25 -6 -13 -5 -16 1 -16 25 l0 31 65 0 65
0 0 60 0 60 30 0 c27 0 30 3 30 30 l0 30 65 0 c63 0 65 1 65 25 0 14 -4 25
-10 25 -5 0 -10 -6 -10 -14 0 -7 -11 -16 -25 -18 -21 -4 -25 -1 -25 18 0 24 2
24 95 24 l95 0 0 -26 c0 -15 4 -23 11 -18 6 3 9 15 6 25 -3 12 0 19 9 19 8 0
14 5 14 10 0 6 -9 10 -20 10 -11 0 -20 7 -20 15 0 8 -4 15 -10 15 -5 0 -10 -7
-10 -15 0 -8 -9 -15 -20 -15 -15 0 -20 7 -20 25 0 24 3 25 60 25 l60 0 0 -65
0 -65 -30 0 c-27 0 -30 -3 -30 -30 0 -27 -3 -30 -30 -30 -27 0 -30 -3 -30 -30
0 -27 -3 -30 -30 -30 -27 0 -30 -3 -30 -30 0 -28 -3 -30 -35 -30 -33 0 -35 -2
-35 -35 0 -32 -2 -35 -30 -35 l-30 0 0 -60 0 -60 30 0 c27 0 30 -3 30 -30 0
-28 3 -30 35 -30 33 0 35 -2 35 -35 0 -32 2 -35 30 -35 27 0 30 -3 30 -30 0
-27 3 -30 30 -30 27 0 30 -3 30 -30 0 -27 3 -30 30 -30 27 0 30 -3 30 -30 l0
-30 65 0 c37 0 65 4 65 10 0 6 -9 10 -20 10 -16 0 -20 7 -20 30 0 28 -3 30
-35 30 -32 0 -35 2 -35 30 0 27 -3 30 -29 30 -25 0 -30 4 -33 27 -2 22 -9 29
-30 31 -22 3 -27 9 -30 35 -2 27 -8 33 -30 35 -24 3 -28 8 -28 33 0 27 -3 29
-35 29 -34 0 -35 1 -35 40 0 35 3 40 23 40 35 0 47 19 47 77 0 52 0 53 30 53
27 0 30 3 30 30 0 27 3 30 30 30 27 0 30 3 30 30 0 27 3 30 30 30 27 0 30 3
30 30 0 20 5 30 15 30 19 0 55 36 55 55 0 8 -9 24 -20 35 -17 17 -33 20 -115
20 l-95 0 0 -35 0 -35 -65 0 -65 0 0 -30 c0 -27 -3 -30 -30 -30 -27 0 -30 -3
-30 -30 0 -27 -3 -30 -30 -30 -27 0 -30 -3 -30 -30 0 -27 -3 -30 -30 -30 -27
0 -30 -3 -30 -30 l0 -30 -65 0 -65 0 0 -35 c0 -44 -18 -46 -22 -2 -2 27 -8 33
-30 35 -31 4 -39 22 -9 22 36 0 42 22 39 156 l-3 129 -77 3 -78 3 0 -36z m80
-12 c0 -24 -4 -28 -30 -28 -26 0 -30 4 -30 28 0 23 4 27 30 27 26 0 30 -4 30
-27z m60 -98 c0 -118 -1 -125 -20 -125 -16 0 -20 7 -20 30 0 17 5 30 13 31 10
0 10 2 0 6 -18 7 -16 24 5 39 15 12 15 13 0 14 -13 0 -17 13 -20 65 -3 62 -2
65 20 65 22 0 22 -2 22 -125z m690 90 c0 -31 -3 -35 -25 -35 -22 0 -25 4 -25
35 0 31 3 35 25 35 22 0 25 -4 25 -35z m-457 -234 c-3 -11 -13 -21 -24 -24
-15 -4 -19 0 -19 19 0 19 5 24 24 24 19 0 23 -4 19 -19z m-233 -66 c0 -18 -5
-25 -20 -25 -15 0 -20 7 -20 25 0 18 5 25 20 25 15 0 20 -7 20 -25z m102 0
c-3 -16 -11 -25 -23 -25 -14 0 -19 7 -19 25 0 20 5 25 24 25 19 0 22 -4 18
-25z m338 -20 c0 -20 -5 -25 -25 -25 -20 0 -25 5 -25 25 0 20 5 25 25 25 20 0
25 -5 25 -25z m-70 -84 c0 -44 -2 -49 -20 -44 -22 6 -27 38 -7 47 10 5 10 7 0
12 -18 8 -16 22 5 27 9 3 18 5 20 6 1 0 2 -21 2 -48z m70 -81 c0 -15 -7 -20
-25 -20 -18 0 -25 5 -25 20 0 15 7 20 25 20 18 0 25 -5 25 -20z m60 -65 c0
-18 -5 -25 -20 -25 -15 0 -20 7 -20 25 0 18 5 25 20 25 15 0 20 -7 20 -25z
m60 -65 c0 -13 -7 -20 -20 -20 -13 0 -20 7 -20 20 0 13 7 20 20 20 13 0 20 -7
20 -20z m60 -60 c0 -13 -7 -20 -20 -20 -13 0 -20 7 -20 20 0 13 7 20 20 20 13
0 20 -7 20 -20z m70 -60 c0 -14 -7 -20 -24 -20 -15 0 -26 7 -29 20 -4 17 0 20
24 20 22 0 29 -5 29 -20z"/>
<path d="M110 840 c0 -5 -7 -10 -15 -10 -8 0 -15 -4 -15 -10 0 -5 11 -10 25
-10 18 0 25 5 25 20 0 11 -4 20 -10 20 -5 0 -10 -4 -10 -10z"/>
<path d="M716 829 c-19 -19 -19 -19 7 -19 22 0 27 -4 27 -26 l0 -26 25 23 24
24 -24 3 c-17 2 -25 10 -25 23 0 24 -9 23 -34 -2z"/>
<path d="M143 795 c-9 -9 -13 -50 -13 -125 0 -103 1 -110 20 -110 11 0 20 5
20 10 0 6 -4 10 -10 10 -6 0 -10 32 -10 75 0 43 4 75 10 75 6 0 10 5 10 10 0
6 -7 10 -15 10 -8 0 -15 4 -15 9 0 5 7 16 15 25 8 8 15 17 15 20 0 11 -15 6
-27 -9z"/>
<path d="M591 775 l-23 -25 26 0 c21 0 26 5 26 25 0 30 1 30 -29 0z"/>
<path d="M690 723 l0 -27 20 22 c11 12 20 24 20 27 0 3 -9 5 -20 5 -15 0 -20
-7 -20 -27z"/>
<path d="M531 715 l-23 -25 26 0 c21 0 26 5 26 25 0 30 1 30 -29 0z"/>
<path d="M40 720 c0 -5 -9 -10 -20 -10 -11 0 -20 -4 -20 -10 0 -5 11 -10 24
-10 19 0 23 -5 22 -30 -1 -25 -5 -30 -26 -31 -24 -2 -24 -2 -2 -6 22 -4 22 -7
22 -153 0 -146 0 -149 -22 -153 l-23 -4 23 -2 c20 -1 22 -6 22 -51 0 -27 5
-50 10 -50 6 0 10 93 10 260 0 167 -4 260 -10 260 -5 0 -10 -4 -10 -10z"/>
<path d="M620 670 c0 -11 5 -20 10 -20 6 0 10 5 10 10 0 6 7 10 15 10 8 0 15
5 15 10 0 6 -11 10 -25 10 -18 0 -25 -5 -25 -20z"/>
<path d="M560 605 c0 -14 5 -25 10 -25 6 0 10 7 10 15 0 8 5 15 10 15 6 0 10
5 10 10 0 6 -9 10 -20 10 -15 0 -20 -7 -20 -25z"/>
<path d="M190 520 c0 -18 7 -20 60 -20 53 0 60 2 60 20 0 11 -4 20 -10 20 -5
0 -10 -4 -10 -10 0 -5 -18 -10 -40 -10 -22 0 -40 5 -40 10 0 6 -4 10 -10 10
-5 0 -10 -9 -10 -20z"/>
<path d="M130 285 l0 -155 -25 0 c-14 0 -25 -4 -25 -10 0 -5 7 -10 15 -10 8 0
15 -7 15 -15 0 -8 5 -15 10 -15 6 0 10 11 10 25 0 18 5 25 20 25 11 0 20 5 20
10 0 6 -4 10 -10 10 -6 0 -10 42 -10 105 0 63 4 105 10 105 6 0 10 5 10 10 0
6 -7 10 -15 10 -8 0 -15 4 -15 9 0 5 7 16 15 25 20 20 19 26 -5 26 -19 0 -20
-7 -20 -155z"/>
<path d="M190 220 c0 -140 4 -220 10 -220 6 0 10 13 10 29 0 16 6 32 13 34 9
4 10 6 0 6 -17 1 -17 58 0 64 10 4 10 6 0 6 -9 1 -13 25 -13 86 0 78 2 85 20
85 19 0 20 -7 20 -155 0 -97 4 -155 10 -155 6 0 10 58 10 153 0 158 -4 177
-42 177 -10 0 -18 7 -18 15 0 12 14 15 70 15 l70 0 0 -35 c0 -33 2 -35 35 -35
32 0 35 -2 35 -30 0 -27 3 -30 29 -30 25 0 30 -4 33 -27 2 -22 9 -29 30 -31
21 -3 27 -9 30 -30 3 -26 6 -27 66 -30 l62 -3 0 -34 0 -35 60 0 c53 0 60 -2
60 -20 0 -11 5 -20 10 -20 6 0 10 9 10 20 0 13 7 20 20 20 13 0 20 -7 20 -20
0 -11 5 -20 10 -20 6 0 10 9 10 20 0 15 7 20 25 20 18 0 25 -5 25 -20 0 -11 5
-20 10 -20 6 0 10 9 10 20 0 16 7 20 30 20 17 0 30 5 30 10 0 6 -58 10 -155
10 l-155 0 0 29 c0 24 3 28 20 24 11 -3 20 -11 20 -19 0 -7 5 -16 10 -19 6 -4
10 7 10 24 l0 31 -65 0 -65 0 0 30 c0 27 -3 30 -30 30 -27 0 -30 3 -30 30 0
27 -3 30 -30 30 -27 0 -30 3 -30 30 0 27 -3 30 -30 30 -28 0 -30 3 -30 35 l0
35 -119 0 c-114 0 -119 1 -114 20 6 22 38 27 46 8 4 -10 8 -9 16 2 9 13 12 12
25 -5 15 -20 15 -20 16 2 0 17 4 21 18 16 9 -4 22 -14 29 -22 11 -14 12 -12
13 12 l0 27 -90 0 -90 0 0 -220z m232 115 c5 -22 2 -25 -23 -25 -24 0 -29 4
-29 25 0 20 5 25 24 25 17 0 25 -7 28 -25z m58 -65 c0 -13 -7 -20 -20 -20 -13
0 -20 7 -20 20 0 13 7 20 20 20 13 0 20 -7 20 -20z m60 -60 c0 -13 -7 -20 -20
-20 -13 0 -20 7 -20 20 0 13 7 20 20 20 13 0 20 -7 20 -20z m60 -60 c0 -13 -7
-20 -20 -20 -13 0 -20 7 -20 20 0 13 7 20 20 20 13 0 20 -7 20 -20z"/>
<path d="M560 400 c0 -13 7 -20 20 -20 24 0 25 6 6 26 -20 19 -26 18 -26 -6z"/>
<path d="M460 370 c0 -5 5 -10 10 -10 6 0 10 -7 10 -15 0 -8 5 -15 10 -15 6 0
10 11 10 25 0 18 -5 25 -20 25 -11 0 -20 -4 -20 -10z"/>
<path d="M620 335 c0 -20 5 -25 25 -25 14 0 25 5 25 10 0 6 -7 10 -15 10 -8 0
-15 7 -15 15 0 8 -4 15 -10 15 -5 0 -10 -11 -10 -25z"/>
<path d="M940 310 c-11 -11 -20 -24 -20 -30 0 -17 39 -50 60 -50 11 0 20 5 20
10 0 6 -13 10 -30 10 -27 0 -30 3 -30 30 0 27 3 30 30 30 17 0 30 5 30 10 0
17 -39 11 -60 -10z"/>
<path d="M520 304 c0 -7 27 -34 34 -34 3 0 6 9 6 20 0 13 -7 20 -20 20 -11 0
-20 -3 -20 -6z"/>
<path d="M690 270 c0 -13 7 -20 20 -20 24 0 25 6 6 26 -20 19 -26 18 -26 -6z"/>
<path d="M580 244 c0 -7 27 -34 34 -34 3 0 6 9 6 20 0 13 -7 20 -20 20 -11 0
-20 -3 -20 -6z"/>
<path d="M750 210 c0 -13 7 -20 20 -20 24 0 25 6 6 26 -20 19 -26 18 -26 -6z"/>
<path d="M0 180 c0 -5 7 -10 16 -10 9 0 23 -8 30 -17 12 -16 13 -15 14 10 0
23 -4 27 -30 27 -17 0 -30 -4 -30 -10z"/>
<path d="M635 180 c3 -5 13 -10 21 -10 8 0 14 -4 14 -10 0 -5 5 -10 10 -10 6
0 10 9 10 20 0 16 -7 20 -31 20 -17 0 -28 -4 -24 -10z"/>
<path d="M0 120 c0 -5 9 -10 20 -10 15 0 20 -7 20 -25 0 -18 -5 -25 -20 -25
-11 0 -20 -4 -20 -10 0 -5 9 -10 20 -10 13 0 20 -7 20 -20 0 -11 5 -20 10 -20
6 0 10 9 10 20 0 15 7 20 25 20 18 0 25 -5 25 -20 0 -11 5 -20 10 -20 6 0 10
11 10 24 0 19 4 23 19 19 10 -3 22 0 25 6 5 8 -12 11 -53 11 l-61 0 0 35 c0
32 -2 35 -30 35 -17 0 -30 -4 -30 -10z"/>
<path d="M773 116 c9 -7 17 -18 17 -25 0 -6 5 -11 10 -11 6 0 10 11 10 25 0
21 -5 25 -27 25 -25 -1 -26 -2 -10 -14z"/>
<path d="M940 95 c0 -8 5 -15 10 -15 6 0 10 7 10 15 0 8 -4 15 -10 15 -5 0
-10 -7 -10 -15z"/>
</g>
</svg>
