<?xml version="1.0" standalone="no"?>
<!DOCTYPE svg PUBLIC "-//W3C//DTD SVG 20010904//EN"
 "http://www.w3.org/TR/2001/REC-SVG-20010904/DTD/svg10.dtd">
<svg version="1.0" xmlns="http://www.w3.org/2000/svg"
 width="100.000000pt" height="100.000000pt" viewBox="0 0 100.000000 100.000000"
 preserveAspectRatio="xMidYMid meet">
<metadata>
Created by potrace 1.16, written by Peter Selinger 2001-2019
</metadata>
<g transform="translate(0.000000,100.000000) scale(0.100000,-0.100000)"
fill="#000000" stroke="none">
<path d="M110 980 c0 -16 -7 -20 -35 -20 -33 0 -35 -2 -35 -35 0 -28 -4 -35
-20 -35 -11 0 -20 -4 -20 -10 0 -5 13 -10 30 -10 28 0 30 3 30 35 0 33 2 35
35 35 32 0 35 2 35 30 0 17 -4 30 -10 30 -5 0 -10 -9 -10 -20z"/>
<path d="M501 923 c0 -54 3 -71 9 -57 12 29 11 134 -1 134 -5 0 -9 -35 -8 -77z"/>
<path d="M870 970 c0 -28 3 -30 35 -30 33 0 35 -2 35 -35 0 -32 2 -35 30 -35
17 0 30 5 30 10 0 6 -9 10 -20 10 -16 0 -20 7 -20 35 0 33 -2 35 -35 35 -28 0
-35 4 -35 20 0 11 -4 20 -10 20 -5 0 -10 -13 -10 -30z"/>
<path d="M441 913 c0 -16 3 -21 6 -13 3 8 12 21 21 28 14 10 13 12 -6 12 -18
0 -22 -6 -21 -27z"/>
<path d="M440 820 c0 -27 5 -50 10 -50 6 0 10 16 10 36 0 23 6 42 18 50 15 12
14 13 -10 14 -27 0 -28 -2 -28 -50z"/>
<path d="M440 720 c0 -28 -3 -30 -35 -30 l-35 0 0 -65 0 -65 -30 0 -30 0 0
-60 0 -60 30 0 30 0 0 -65 0 -65 125 0 125 0 0 65 0 65 35 0 35 0 0 60 0 60
-35 0 -35 0 0 65 0 65 -60 0 -60 0 0 30 c0 27 -3 30 -30 30 -27 0 -30 -3 -30
-30z m40 -20 l0 -30 60 0 60 0 0 -65 0 -65 35 0 c34 0 35 -1 35 -40 0 -39 -1
-40 -35 -40 l-35 0 0 -65 0 -65 -105 0 -105 0 0 65 0 65 -30 0 c-28 0 -30 2
-30 40 0 38 2 40 30 40 l30 0 0 65 0 65 35 0 c32 0 35 2 35 30 0 17 5 30 10
30 6 0 10 -13 10 -30z"/>
<path d="M640 391 c0 -7 35 -11 115 -11 l115 0 0 -65 0 -65 65 0 c36 0 65 4
65 10 0 5 -23 9 -50 9 -28 -1 -53 1 -57 4 -3 4 -7 28 -10 54 -2 26 -7 51 -11
55 -13 13 -232 22 -232 9z"/>
<path d="M750 335 c0 -24 3 -25 53 -24 l52 1 -42 11 c-25 5 -43 16 -43 23 0 8
-4 14 -10 14 -5 0 -10 -11 -10 -25z"/>
<path d="M810 260 c0 -5 5 -10 11 -10 5 0 7 5 4 10 -3 6 -8 10 -11 10 -2 0 -4
-4 -4 -10z"/>
<path d="M940 212 c0 -18 5 -22 33 -21 20 1 25 3 12 6 -11 3 -26 12 -32 21
-12 14 -13 13 -13 -6z"/>
<path d="M0 120 c0 -5 9 -10 20 -10 16 0 20 -7 20 -35 0 -33 2 -35 35 -35 28
0 35 -4 35 -20 0 -11 5 -20 10 -20 6 0 10 13 10 30 0 28 -3 30 -35 30 -33 0
-35 2 -35 35 0 32 -2 35 -30 35 -17 0 -30 -4 -30 -10z"/>
<path d="M940 95 c0 -33 -2 -35 -35 -35 -32 0 -35 -2 -35 -30 0 -17 5 -30 10
-30 6 0 10 9 10 20 0 16 7 20 35 20 33 0 35 2 35 35 0 28 4 35 20 35 11 0 20
5 20 10 0 6 -13 10 -30 10 -28 0 -30 -3 -30 -35z"/>
</g>
</svg>
