<?xml version="1.0" standalone="no"?>
<!DOCTYPE svg PUBLIC "-//W3C//DTD SVG 20010904//EN"
 "http://www.w3.org/TR/2001/REC-SVG-20010904/DTD/svg10.dtd">
<svg version="1.0" xmlns="http://www.w3.org/2000/svg"
 width="100.000000pt" height="100.000000pt" viewBox="0 0 100.000000 100.000000"
 preserveAspectRatio="xMidYMid meet">
<metadata>
Created by potrace 1.16, written by Peter Selinger 2001-2019
</metadata>
<g transform="translate(0.000000,100.000000) scale(0.100000,-0.100000)"
fill="#000000" stroke="none">
<path d="M318 943 c6 -2 18 -2 25 0 6 3 1 5 -13 5 -14 0 -19 -2 -12 -5z"/>
<path d="M250 850 c0 -11 5 -20 10 -20 6 0 10 5 10 10 0 6 18 10 40 10 22 0
40 -4 40 -10 0 -5 5 -10 10 -10 6 0 10 9 10 20 0 18 -7 20 -60 20 -53 0 -60
-2 -60 -20z"/>
<path d="M690 850 c0 -22 15 -27 24 -7 5 10 7 10 12 0 9 -20 24 -15 24 7 0 16
-7 20 -30 20 -23 0 -30 -4 -30 -20z"/>
<path d="M551 843 c0 -7 -12 -13 -25 -13 -14 0 -28 -4 -31 -10 -4 -6 8 -10 29
-10 29 0 36 -4 36 -20 0 -24 6 -25 26 -6 19 20 18 26 -5 26 -12 0 -21 8 -24
23 -2 12 -5 16 -6 10z"/>
<path d="M250 500 l0 -310 60 0 60 0 0 125 0 125 65 0 65 0 0 -30 c0 -27 3
-30 30 -30 28 0 30 -3 30 -35 l0 -35 65 0 c62 0 65 -1 65 -24 0 -19 -4 -22
-25 -18 -14 2 -25 11 -25 18 0 8 -4 14 -10 14 -5 0 -10 -11 -10 -25 0 -25 1
-25 85 -25 78 0 85 -2 85 -20 0 -25 -9 -25 -26 -3 -13 17 -13 17 -14 1 0 -23
-29 -23 -46 -1 -12 16 -13 15 -14 -9 0 -27 1 -28 60 -28 l60 0 0 60 0 60 -30
0 c-28 0 -30 3 -30 35 l0 35 -65 0 -65 0 0 30 c0 27 -3 30 -30 30 -27 0 -30 3
-30 30 0 27 -3 30 -30 30 -27 0 -30 3 -30 30 0 27 3 30 30 30 28 0 30 3 30 35
l0 35 65 0 c64 0 65 0 65 28 -1 23 -2 25 -13 11 -7 -8 -22 -18 -34 -21 -19 -5
-23 -2 -23 18 0 23 3 24 65 24 l65 0 0 60 0 60 -65 0 c-63 0 -65 -1 -65 -25 0
-14 5 -25 10 -25 6 0 10 7 10 15 0 9 9 15 25 15 18 0 25 -5 25 -20 0 -18 -7
-20 -65 -20 l-65 0 0 -30 c0 -27 -3 -30 -30 -30 -27 0 -30 -3 -30 -30 l0 -30
-61 0 c-41 0 -58 -3 -53 -11 3 -6 17 -9 30 -6 21 4 24 0 24 -24 0 -26 -3 -29
-35 -29 l-35 0 0 125 0 125 -60 0 -60 0 0 -310z m60 26 c0 -259 0 -264 -20
-259 -22 6 -28 33 -7 34 10 0 10 2 0 6 -18 7 -18 123 0 124 10 0 10 2 0 6 -18
7 -18 123 0 124 10 0 10 2 0 6 -18 7 -18 173 0 174 10 0 10 2 0 6 -21 8 -15
43 7 43 19 0 20 -7 20 -264z m40 244 c0 -11 -4 -20 -10 -20 -5 0 -10 9 -10 20
0 11 5 20 10 20 6 0 10 -9 10 -20z m380 10 c0 -5 -4 -10 -10 -10 -5 0 -10 5
-10 10 0 6 5 10 10 10 6 0 10 -4 10 -10z m0 -50 c0 -13 -7 -20 -20 -20 -13 0
-20 7 -20 20 0 13 7 20 20 20 13 0 20 -7 20 -20z m-378 -80 c2 -75 0 -90 -12
-90 -12 0 -14 15 -12 90 2 49 7 90 12 90 5 0 10 -41 12 -90z m268 65 c0 -20
-5 -25 -24 -25 -19 0 -23 4 -19 19 3 11 12 22 22 24 9 3 17 5 19 6 1 0 2 -10
2 -24z m50 5 c0 -5 -7 -10 -15 -10 -8 0 -15 5 -15 10 0 6 7 10 15 10 8 0 15
-4 15 -10z m-112 -67 c-5 -26 -38 -29 -38 -4 0 15 6 21 21 21 14 0 19 -5 17
-17z m42 7 c0 -5 -4 -10 -10 -10 -5 0 -10 5 -10 10 0 6 5 10 10 10 6 0 10 -4
10 -10z m-60 -65 c0 -10 -10 -15 -30 -15 -16 0 -30 -4 -30 -10 0 -5 -4 -10
-10 -10 -5 0 -10 11 -10 25 0 23 4 25 40 25 29 0 40 -4 40 -15z m-60 -90 c0
-25 -4 -45 -10 -45 -5 0 -10 8 -10 19 0 28 -24 43 -67 39 -33 -3 -38 -7 -41
-30 -5 -43 -22 -33 -22 12 l0 39 68 4 c37 2 70 4 75 5 4 1 7 -18 7 -43z m-40
-25 c0 -16 -7 -20 -35 -20 -28 0 -35 4 -35 20 0 16 7 20 35 20 28 0 35 -4 35
-20z m103 -21 c4 -15 0 -19 -19 -19 -19 0 -24 5 -24 24 0 19 4 23 19 19 11 -3
21 -13 24 -24z m-193 -84 c0 -84 -17 -84 -22 0 -2 47 0 65 10 65 8 0 12 -20
12 -65z m250 35 c0 -5 -18 -10 -40 -10 -22 0 -40 5 -40 10 0 6 18 10 40 10 22
0 40 -4 40 -10z m20 -55 c0 -18 -5 -25 -20 -25 -15 0 -20 7 -20 25 0 18 5 25
20 25 15 0 20 -7 20 -25z m113 -21 c3 -20 0 -24 -19 -24 -20 0 -24 5 -24 29 0
24 4 28 19 24 10 -3 21 -16 24 -29z m-63 11 c0 -8 -7 -15 -15 -15 -8 0 -15 7
-15 15 0 8 7 15 15 15 8 0 15 -7 15 -15z m-320 -65 c0 -5 -4 -10 -10 -10 -5 0
-10 5 -10 10 0 6 5 10 10 10 6 0 10 -4 10 -10z m380 0 c0 -5 -4 -10 -10 -10
-5 0 -10 5 -10 10 0 6 5 10 10 10 6 0 10 -4 10 -10z m60 1 c0 -5 -7 -12 -16
-15 -22 -9 -24 -8 -24 9 0 8 9 15 20 15 11 0 20 -4 20 -9z m-440 -51 c0 -22
-15 -27 -24 -7 -5 10 -7 10 -12 0 -10 -21 -44 -16 -44 7 0 17 7 20 40 20 33 0
40 -3 40 -20z"/>
<path d="M390 800 c0 -5 7 -10 15 -10 11 0 15 -11 15 -40 0 -29 -4 -40 -15
-40 -8 0 -15 -4 -15 -10 0 -5 11 -10 25 -10 18 0 25 -5 25 -20 0 -11 2 -20 5
-20 3 0 15 9 27 20 l22 20 -27 0 c-26 0 -27 2 -27 60 0 57 -1 60 -25 60 -14 0
-25 -4 -25 -10z"/>
<path d="M770 800 c0 -5 5 -10 10 -10 6 0 10 -18 10 -40 0 -22 -4 -40 -10 -40
-5 0 -10 -4 -10 -10 0 -5 9 -10 20 -10 18 0 20 7 20 60 0 53 -2 60 -20 60 -11
0 -20 -4 -20 -10z"/>
<path d="M500 730 c0 -24 6 -25 26 -6 19 20 18 26 -6 26 -13 0 -20 -7 -20 -20z"/>
<path d="M723 655 c-18 -20 -16 -25 7 -25 13 0 20 7 20 20 0 23 -10 25 -27 5z"/>
<path d="M603 603 c-4 -10 -14 -23 -22 -30 -14 -11 -12 -12 12 -13 23 0 27 4
27 30 0 34 -7 39 -17 13z"/>
<path d="M544 539 c-3 -6 -1 -16 5 -22 8 -8 11 -5 11 11 0 24 -5 28 -16 11z"/>
<path d="M620 526 c0 -15 21 -26 50 -26 11 0 21 -9 23 -22 5 -20 5 -20 4 2 -2
19 -8 26 -29 28 -16 2 -28 9 -28 18 0 8 -4 14 -10 14 -5 0 -10 -6 -10 -14z"/>
<path d="M588 480 c12 -11 24 -20 27 -20 3 0 5 9 5 20 0 15 -7 20 -27 20 l-27
0 22 -20z"/>
<path d="M635 430 c3 -5 11 -10 17 -10 6 0 17 -8 24 -17 12 -16 13 -15 14 10
0 24 -4 27 -31 27 -17 0 -28 -4 -24 -10z"/>
<path d="M440 400 c0 -15 7 -20 27 -20 l27 0 -22 20 c-12 11 -24 20 -27 20 -3
0 -5 -9 -5 -20z"/>
<path d="M929 360 c-6 -45 -4 -58 7 -48 3 3 4 26 2 49 l-3 44 -6 -45z"/>
<path d="M398 383 c7 -3 16 -2 19 1 4 3 -2 6 -13 5 -11 0 -14 -3 -6 -6z"/>
<path d="M968 383 c6 -2 18 -2 25 0 6 3 1 5 -13 5 -14 0 -19 -2 -12 -5z"/>
<path d="M770 370 c0 -5 5 -10 10 -10 6 0 10 -7 10 -15 0 -8 5 -15 10 -15 6 0
10 11 10 25 0 18 -5 25 -20 25 -11 0 -20 -4 -20 -10z"/>
<path d="M420 336 c0 -15 -7 -26 -17 -29 -17 -4 -17 -5 0 -6 10 -1 17 -9 17
-20 0 -11 -8 -22 -17 -24 -14 -4 -13 -5 4 -6 16 -1 20 -6 16 -21 -3 -11 -12
-20 -19 -20 -8 0 -14 -4 -14 -10 0 -5 11 -10 25 -10 25 0 25 1 25 85 0 50 -4
85 -10 85 -5 0 -10 -11 -10 -24z"/>
<path d="M500 335 c0 -21 5 -25 28 -25 24 1 25 2 10 14 -10 7 -18 18 -18 25 0
6 -4 11 -10 11 -5 0 -10 -11 -10 -25z"/>
<path d="M830 300 c0 -5 5 -10 10 -10 14 0 12 -27 -2 -33 -10 -4 -10 -6 0 -6
14 -1 17 -41 2 -41 -5 0 -10 -4 -10 -10 0 -5 9 -10 20 -10 18 0 20 7 20 60 0
53 -2 60 -20 60 -11 0 -20 -4 -20 -10z"/>
<path d="M968 303 c6 -2 18 -2 25 0 6 3 1 5 -13 5 -14 0 -19 -2 -12 -5z"/>
<path d="M560 270 c0 -13 7 -20 20 -20 24 0 25 6 6 26 -20 19 -26 18 -26 -6z"/>
<path d="M495 240 c3 -5 15 -10 25 -10 10 0 22 5 25 10 4 6 -7 10 -25 10 -18
0 -29 -4 -25 -10z"/>
<path d="M941 228 c1 -16 3 -18 6 -6 2 9 16 19 31 21 24 4 24 4 -5 6 -28 1
-33 -2 -32 -21z"/>
</g>
</svg>
