<?xml version="1.0" standalone="no"?>
<!DOCTYPE svg PUBLIC "-//W3C//DTD SVG 20010904//EN"
 "http://www.w3.org/TR/2001/REC-SVG-20010904/DTD/svg10.dtd">
<svg version="1.0" xmlns="http://www.w3.org/2000/svg"
 width="192.000000pt" height="192.000000pt" viewBox="0 0 192.000000 192.000000"
 preserveAspectRatio="xMidYMid meet">
<metadata>
Created by potrace 1.16, written by Peter Selinger 2001-2019
</metadata>
<g transform="translate(0.000000,192.000000) scale(0.100000,-0.100000)"
fill="#000000" stroke="none">
<path d="M1130 1114 c-44 -37 -62 -79 -63 -143 0 -70 21 -112 75 -151 136 -98
308 -27 308 127 0 125 -81 193 -232 193 -46 0 -62 -5 -88 -26z m224 -34 c120
-74 74 -261 -69 -277 -31 -4 -54 1 -92 21 -60 30 -90 64 -99 113 -12 62 30
154 78 172 34 12 144 -5 182 -29z"/>
<path d="M1157 1073 c-13 -12 -7 -33 8 -33 8 0 15 9 15 20 0 20 -11 26 -23 13z"/>
<path d="M1343 1025 c-3 -9 -3 -18 0 -22 10 -10 37 6 37 22 0 20 -29 20 -37 0z"/>
<path d="M1220 841 c0 -11 86 -24 101 -15 19 11 -12 24 -58 24 -24 0 -43 -4
-43 -9z"/>
<path d="M275 1029 l-60 -49 -3 45 c-3 37 -7 45 -23 45 -18 0 -19 -8 -19 -115
0 -108 1 -115 20 -115 17 0 20 7 20 43 0 24 3 46 6 50 4 3 37 -18 74 -48 63
-50 69 -53 83 -37 14 16 9 21 -49 62 -35 25 -64 47 -64 50 0 3 22 23 50 44 42
32 48 41 39 57 -5 10 -11 19 -12 18 -1 0 -29 -22 -62 -50z"/>
<path d="M450 984 c0 -81 1 -87 29 -115 24 -23 38 -29 74 -29 29 0 53 7 68 19
21 17 25 30 29 115 5 94 5 96 -17 96 -22 0 -23 -4 -23 -83 0 -95 -7 -107 -62
-107 -49 0 -58 18 -58 114 0 69 -2 76 -20 76 -18 0 -20 -7 -20 -86z"/>
<path d="M755 955 c0 -114 0 -115 24 -115 23 0 24 1 19 80 -3 44 -2 80 2 80 3
0 20 -18 37 -40 l31 -41 36 43 36 43 0 -82 c0 -76 2 -83 20 -83 19 0 20 7 20
115 0 106 -1 115 -19 115 -10 0 -35 -20 -56 -45 l-37 -46 -36 46 c-22 26 -45
45 -57 45 -19 0 -20 -7 -20 -115z"/>
<path d="M1530 955 c0 -113 0 -115 23 -115 20 0 22 4 19 53 -2 30 -2 66 0 82
3 27 6 25 73 -53 97 -114 105 -112 105 33 0 108 -1 115 -20 115 -17 0 -19 -8
-22 -79 l-3 -79 -68 79 c-41 47 -76 79 -88 79 -18 0 -19 -8 -19 -115z"/>
</g>
</svg>
