<?xml version="1.0" standalone="no"?>
<!DOCTYPE svg PUBLIC "-//W3C//DTD SVG 20010904//EN"
 "http://www.w3.org/TR/2001/REC-SVG-20010904/DTD/svg10.dtd">
<svg version="1.0" xmlns="http://www.w3.org/2000/svg"
 width="256.000000pt" height="256.000000pt" viewBox="0 0 256.000000 256.000000"
 preserveAspectRatio="xMidYMid meet">
<metadata>
Created by potrace 1.16, written by Peter Selinger 2001-2019
</metadata>
<g transform="translate(0.000000,256.000000) scale(0.100000,-0.100000)"
fill="#000000" stroke="none">
<path d="M854 2141 c-23 -10 -54 -36 -70 -57 -25 -33 -29 -47 -32 -118 -3 -76
-2 -84 27 -127 42 -63 109 -94 184 -86 140 14 206 108 183 261 -18 117 -169
183 -292 127z m171 -20 c56 -25 92 -71 101 -126 17 -115 -44 -199 -160 -220
-56 -11 -128 25 -167 84 -27 41 -30 52 -27 107 3 49 10 69 32 99 53 69 143 92
221 56z"/>
<path d="M918 1798 c5 -5 16 -8 23 -6 8 3 3 7 -10 11 -17 4 -21 3 -13 -5z"/>
<path d="M1442 2105 c-83 -36 -125 -134 -103 -242 18 -92 97 -153 197 -153
141 0 228 118 198 269 -9 45 -75 115 -122 129 -52 16 -129 14 -170 -3z m150
-17 c55 -16 115 -86 124 -143 12 -81 -34 -161 -111 -196 -51 -24 -83 -24 -137
0 -59 26 -95 67 -108 124 -19 87 18 169 94 207 47 23 82 25 138 8z"/>
<path d="M1518 2073 c6 -2 18 -2 25 0 6 3 1 5 -13 5 -14 0 -19 -2 -12 -5z"/>
<path d="M1692 1915 c0 -16 2 -22 5 -12 2 9 2 23 0 30 -3 6 -5 -1 -5 -18z"/>
<path d="M1523 1753 c9 -2 23 -2 30 0 6 3 -1 5 -18 5 -16 0 -22 -2 -12 -5z"/>
<path d="M43 1923 c-23 -9 -14 -57 20 -108 127 -194 187 -331 205 -465 5 -36
7 -141 5 -235 -4 -148 -2 -181 16 -259 44 -183 145 -315 305 -395 75 -38 95
-44 172 -49 85 -5 87 -6 122 -44 89 -99 237 -157 397 -158 210 0 356 72 555
275 81 83 141 127 235 173 75 37 214 76 324 92 116 16 131 23 131 60 0 35 -25
53 -187 136 -279 144 -555 216 -833 216 -117 0 -292 -20 -319 -36 -4 -3 -20
20 -35 50 -144 284 -513 564 -939 713 -113 39 -146 46 -174 34z m154 -54 c463
-162 825 -453 969 -777 1 -1 14 2 30 8 59 23 203 42 314 41 259 0 541 -75 813
-215 124 -63 187 -103 187 -116 0 -16 -38 -27 -131 -40 -110 -16 -249 -55
-324 -92 -94 -46 -154 -90 -235 -173 -192 -196 -347 -275 -535 -275 -89 1
-226 40 -288 82 -38 27 -117 100 -117 108 0 4 13 7 28 7 77 0 215 101 261 192
53 104 69 273 37 385 -10 32 -16 59 -14 61 2 2 26 10 53 18 28 9 41 16 31 16
-11 1 -36 -4 -55 -10 -20 -7 -42 -13 -49 -15 -8 -2 -10 -9 -5 -16 4 -7 8 -16
9 -20 1 -5 2 -9 4 -10 1 -2 4 -12 6 -23 20 -82 24 -164 11 -230 -5 -22 -8 -48
-8 -57 0 -10 -5 -18 -10 -18 -6 0 -9 -6 -6 -12 2 -7 -4 -30 -15 -51 -21 -42
-115 -143 -129 -139 -5 1 -9 -2 -9 -7 0 -10 -39 -27 -52 -23 -5 1 -8 -3 -8 -8
0 -5 -3 -9 -7 -9 -5 1 -10 1 -13 -1 -29 -11 -69 -15 -146 -15 -88 1 -95 2
-178 45 -162 81 -263 212 -307 396 -19 79 -20 108 -16 255 4 91 2 197 -4 235
-17 121 -65 240 -157 389 -87 141 -85 137 -71 146 8 5 15 9 16 9 1 0 55 -19
120 -41z"/>
<path d="M311 1164 c0 -11 3 -14 6 -6 3 7 2 16 -1 19 -3 4 -6 -2 -5 -13z"/>
<path d="M1435 1119 c-58 -5 -49 -6 56 -7 69 -1 148 -5 175 -8 27 -4 46 -4 42
0 -10 12 -195 22 -273 15z"/>
<path d="M1338 1103 c7 -3 16 -2 19 1 4 3 -2 6 -13 5 -11 0 -14 -3 -6 -6z"/>
<path d="M1805 1081 c44 -10 82 -17 84 -16 5 5 -69 24 -119 30 -25 3 -10 -3
35 -14z"/>
<path d="M1920 1053 c67 -22 100 -31 100 -28 0 9 -73 35 -94 34 -14 0 -16 -2
-6 -6z"/>
<path d="M2050 1014 c83 -35 85 -35 70 -20 -8 7 -31 17 -50 20 -19 3 -28 3
-20 0z"/>
<path d="M2170 965 c14 -8 32 -14 40 -15 23 0 -2 17 -35 24 l-30 6 25 -15z"/>
<path d="M2375 802 c-49 -9 -84 -17 -77 -20 16 -5 151 17 171 28 19 11 21 11
-94 -8z"/>
<path d="M2190 760 c-30 -10 -49 -18 -42 -19 15 -1 112 29 112 35 0 6 -12 4
-70 -16z"/>
<path d="M1925 640 c-3 -5 -1 -10 4 -10 6 0 11 5 11 10 0 6 -2 10 -4 10 -3 0
-8 -4 -11 -10z"/>
<path d="M1815 549 c-38 -39 -32 -45 8 -10 18 15 42 51 34 51 -1 0 -21 -19
-42 -41z"/>
<path d="M1705 440 c-10 -11 -13 -20 -7 -20 6 0 16 9 22 20 6 11 9 20 7 20 -2
0 -12 -9 -22 -20z"/>
<path d="M1645 390 c-3 -5 -1 -10 4 -10 6 0 11 5 11 10 0 6 -2 10 -4 10 -3 0
-8 -4 -11 -10z"/>
<path d="M1607 363 c-4 -3 -7 -11 -7 -17 0 -6 5 -5 12 2 6 6 9 14 7 17 -3 3
-9 2 -12 -2z"/>
<path d="M1030 319 c0 -12 25 -22 41 -17 6 2 0 9 -15 16 -16 7 -26 8 -26 1z"/>
<path d="M1526 314 c-17 -12 -17 -14 -4 -14 9 0 20 5 23 11 11 17 2 18 -19 3z"/>
<path d="M1430 279 l-55 -19 45 6 c25 3 52 12 60 20 17 17 19 17 -50 -7z"/>
<path d="M1120 280 c0 -8 80 -23 86 -17 2 2 -16 8 -41 14 -25 6 -45 7 -45 3z"/>
<path d="M1258 253 c17 -2 47 -2 65 0 17 2 3 4 -33 4 -36 0 -50 -2 -32 -4z"/>
<path d="M1861 1695 c-103 -47 -140 -173 -83 -286 42 -84 128 -121 229 -99 96
22 153 96 153 200 0 70 -27 129 -75 165 -31 24 -47 29 -113 32 -54 2 -87 -1
-111 -12z m205 -40 c68 -52 91 -143 55 -221 -45 -100 -163 -135 -263 -78 -37
22 -88 111 -88 155 0 62 50 136 111 164 52 24 141 14 185 -20z"/>
<path d="M1791 1514 c0 -11 3 -14 6 -6 3 7 2 16 -1 19 -3 4 -6 -2 -5 -13z"/>
<path d="M2112 1510 c0 -14 2 -19 5 -12 2 6 2 18 0 25 -3 6 -5 1 -5 -13z"/>
</g>
</svg>
