<?xml version="1.0" standalone="no"?>
<!DOCTYPE svg PUBLIC "-//W3C//DTD SVG 20010904//EN"
 "http://www.w3.org/TR/2001/REC-SVG-20010904/DTD/svg10.dtd">
<svg version="1.0" xmlns="http://www.w3.org/2000/svg"
 width="180.000000pt" height="180.000000pt" viewBox="0 0 180.000000 180.000000"
 preserveAspectRatio="xMidYMid meet">
<metadata>
Created by potrace 1.16, written by Peter Selinger 2001-2019
</metadata>
<g transform="translate(0.000000,180.000000) scale(0.100000,-0.100000)"
fill="#000000" stroke="none">
<path d="M360 900 l0 -720 148 0 147 0 0 720 0 720 -147 0 -148 0 0 -720z
m260 0 l0 -690 -110 0 -110 0 0 690 0 690 110 0 110 0 0 -690z"/>
<path d="M1190 1222 l-175 -4 -75 -90 c-118 -141 -149 -188 -166 -247 -36
-121 2 -219 196 -514 l124 -187 175 0 175 0 -26 27 c-14 16 -55 71 -90 123
-207 304 -257 383 -272 428 -29 86 -20 99 262 391 57 59 74 85 55 79 -5 -1
-87 -4 -183 -6z m-10 -172 c-72 -77 -138 -156 -146 -175 -19 -47 -17 -112 6
-163 20 -44 139 -225 152 -230 5 -2 8 -8 8 -12 0 -5 31 -53 68 -107 38 -54 77
-110 86 -125 l18 -28 -129 0 -130 0 -125 187 c-138 207 -152 231 -179 311 -43
125 -16 199 136 377 l90 105 138 0 139 0 -132 -140z"/>
</g>
</svg>
