<?xml version="1.0" standalone="no"?>
<!DOCTYPE svg PUBLIC "-//W3C//DTD SVG 20010904//EN"
 "http://www.w3.org/TR/2001/REC-SVG-20010904/DTD/svg10.dtd">
<svg version="1.0" xmlns="http://www.w3.org/2000/svg"
 width="192.000000pt" height="192.000000pt" viewBox="0 0 192.000000 192.000000"
 preserveAspectRatio="xMidYMid meet">
<metadata>
Created by potrace 1.16, written by Peter Selinger 2001-2019
</metadata>
<g transform="translate(0.000000,192.000000) scale(0.100000,-0.100000)"
fill="#000000" stroke="none">
<path d="M700 1434 c-167 -24 -340 -72 -470 -132 -104 -47 -230 -126 -230
-144 0 -14 19 -6 88 36 365 222 833 292 1282 190 181 -41 414 -144 538 -237 8
-7 12 -4 12 9 -1 51 -322 201 -530 248 -202 46 -493 58 -690 30z"/>
<path d="M742 1398 c-40 -6 -71 -12 -69 -15 3 -2 52 1 109 8 60 7 167 10 258
7 87 -3 133 -2 105 3 -69 10 -315 8 -403 -3z"/>
<path d="M1213 1383 c9 -2 23 -2 30 0 6 3 -1 5 -18 5 -16 0 -22 -2 -12 -5z"/>
<path d="M590 1370 c-20 -6 -21 -8 -5 -8 11 0 34 4 50 8 27 7 27 8 5 8 -14 0
-36 -4 -50 -8z"/>
<path d="M1285 1370 c17 -4 39 -8 50 -8 16 0 15 2 -5 8 -14 4 -36 8 -50 8 -22
0 -22 -1 5 -8z"/>
<path d="M1365 1356 c26 -12 87 -24 79 -16 -5 4 -27 11 -49 14 -22 3 -35 4
-30 2z"/>
<path d="M470 1340 c0 -12 8 -12 35 0 18 8 17 9 -7 9 -16 1 -28 -3 -28 -9z"/>
<path d="M395 1315 c-16 -7 -40 -17 -53 -21 -13 -5 254 -9 617 -9 536 0 634 2
603 13 -29 10 -162 13 -587 12 -364 0 -545 3 -535 10 23 15 -8 12 -45 -5z"/>
<path d="M0 1110 c0 -6 33 -10 78 -10 l77 0 -38 -23 c-58 -35 -77 -71 -77
-147 0 -81 13 -107 72 -143 40 -25 61 -30 137 -35 52 -3 116 0 151 7 46 9 65
9 75 1 8 -6 28 -10 47 -8 38 4 53 27 65 105 l8 53 40 -38 c105 -101 135 -122
174 -122 40 0 71 23 71 54 0 15 5 14 33 -8 44 -33 97 -46 190 -46 102 0 158
15 196 52 l31 30 0 -25 c0 -35 25 -57 64 -57 41 0 56 15 56 58 l0 34 41 -35
c22 -19 60 -40 84 -46 56 -14 179 -14 245 0 55 12 69 33 56 85 l-7 26 -82 -7
c-49 -4 -92 -2 -107 4 -19 8 -4 10 68 10 124 1 132 6 132 81 0 49 -4 64 -27
90 -14 18 -36 36 -47 40 -15 6 0 9 47 9 37 1 67 5 67 11 0 7 -327 10 -960 10
-633 0 -960 -3 -960 -10z m468 -35 l-11 -24 -31 21 c-17 12 -33 23 -35 25 -2
2 17 3 42 3 46 0 46 0 35 -25z m302 -2 c-5 -16 -13 -47 -17 -71 l-8 -42 -44
37 c-24 21 -60 53 -80 70 l-36 33 97 0 96 0 -8 -27z m185 11 c-16 -8 -40 -25
-52 -36 l-23 -21 0 24 c0 14 -5 30 -12 37 -9 9 2 12 53 12 l64 0 -30 -16z
m367 -39 l-4 -55 -116 2 -117 2 98 3 97 4 0 44 c0 25 -5 45 -12 48 -7 3 3 6
22 6 l35 1 -3 -55z m213 39 c-16 -8 -40 -24 -51 -35 l-22 -20 -4 35 -4 36 56
0 55 0 -30 -16z m-1140 -24 c58 -36 83 -126 42 -152 -7 -4 -53 -8 -103 -8
-102 0 -138 14 -118 47 9 14 26 19 78 21 71 3 87 19 41 40 -53 24 -142 4 -164
-36 -44 -81 39 -137 192 -131 82 4 82 4 82 -21 0 -22 -7 -27 -50 -38 -31 -8
-82 -11 -133 -9 -70 4 -91 10 -130 34 -55 34 -72 62 -72 121 0 74 51 132 134
153 57 15 161 4 201 -21z m848 15 c9 -4 17 -18 17 -31 0 -24 -2 -24 -90 -24
-92 0 -129 -10 -167 -44 -84 -73 74 -174 186 -118 59 29 51 42 -27 42 -51 0
-75 4 -86 16 -19 19 -20 26 -4 42 16 16 220 16 236 0 30 -30 8 -108 -43 -150
-52 -43 -226 -50 -301 -11 -133 68 -100 244 52 282 41 11 196 7 227 -4z m185
3 c13 -13 16 -54 5 -61 -5 -3 -27 -8 -50 -12 l-43 -7 0 36 c0 23 6 39 18 45
23 14 55 14 70 -1z m328 1 c60 -15 104 -65 104 -119 0 -52 -17 -60 -124 -60
-100 0 -116 5 -116 35 0 28 17 35 85 35 64 0 77 13 36 35 -43 22 -93 19 -132
-8 -111 -75 -14 -167 162 -154 62 5 78 3 83 -8 10 -28 -6 -44 -55 -54 -121
-26 -231 -8 -290 49 -37 35 -39 40 -39 100 0 60 2 65 39 100 58 55 150 73 247
49z m-1155 -32 c82 -74 143 -122 153 -122 6 0 16 30 22 66 12 76 19 89 43 89
35 0 41 -20 41 -150 0 -113 -2 -129 -20 -145 -26 -24 -55 -14 -111 37 -96 90
-130 118 -143 118 -10 0 -16 -19 -21 -65 -9 -78 -33 -117 -62 -99 -16 10 -18
28 -21 138 -1 76 2 134 8 146 17 32 68 26 111 -13z m-308 -54 c-7 -2 -19 -2
-25 0 -7 3 -2 5 12 5 14 0 19 -2 13 -5z m1144 -95 c-7 -110 -18 -135 -56 -123
-24 7 -28 20 -36 132 l-5 82 32 4 c78 9 72 18 65 -95z m256 95 c-7 -2 -19 -2
-25 0 -7 3 -2 5 12 5 14 0 19 -2 13 -5z m-651 -46 c-5 -47 17 -67 76 -68 41 0
44 -2 24 -11 -30 -15 -97 7 -123 40 -19 25 -19 25 3 49 12 12 22 23 23 23 0 0
-1 -15 -3 -33z m555 -19 c-3 -8 -6 -5 -6 6 -1 11 2 17 5 13 3 -3 4 -12 1 -19z
m-1137 -47 c0 -12 -151 -24 -186 -14 -21 6 -2 9 76 14 58 3 106 6 108 7 1 1 2
-2 2 -7z"/>
<path d="M286 1061 c33 -4 67 -11 75 -16 11 -6 12 -5 2 5 -8 8 -39 15 -75 16
l-63 3 61 -8z"/>
<path d="M176 1051 c-4 -5 3 -7 14 -4 23 6 26 13 6 13 -8 0 -17 -4 -20 -9z"/>
<path d="M258 1043 c12 -2 30 -2 40 0 9 3 -1 5 -23 4 -22 0 -30 -2 -17 -4z"/>
<path d="M208 1033 c7 -3 16 -2 19 1 4 3 -2 6 -13 5 -11 0 -14 -3 -6 -6z"/>
<path d="M400 1015 c7 -9 15 -13 17 -11 7 7 -7 26 -19 26 -6 0 -6 -6 2 -15z"/>
<path d="M110 1009 c0 -5 5 -7 10 -4 6 3 10 8 10 11 0 2 -4 4 -10 4 -5 0 -10
-5 -10 -11z"/>
<path d="M382 985 c0 -16 2 -22 5 -12 2 9 2 23 0 30 -3 6 -5 -1 -5 -18z"/>
<path d="M423 964 l2 -29 -90 -1 c-81 -1 -84 0 -30 6 l60 7 -68 1 c-51 2 -68
-1 -65 -10 3 -9 35 -14 101 -16 l96 -3 7 26 c4 15 2 31 -4 37 -8 8 -11 3 -9
-18z"/>
<path d="M83 919 c3 -35 11 -65 19 -70 25 -17 28 -9 7 20 -16 22 -20 39 -17
70 2 23 -1 41 -6 41 -5 0 -6 -27 -3 -61z"/>
<path d="M133 930 c0 -25 2 -35 4 -22 2 12 2 32 0 45 -2 12 -4 2 -4 -23z"/>
<path d="M154 861 c21 -23 26 -26 26 -11 0 5 -10 15 -22 21 -23 12 -23 12 -4
-10z"/>
<path d="M228 823 c7 -3 16 -2 19 1 4 3 -2 6 -13 5 -11 0 -14 -3 -6 -6z"/>
<path d="M400 820 c0 -5 7 -10 15 -10 8 0 15 5 15 10 0 6 -7 10 -15 10 -8 0
-15 -4 -15 -10z"/>
<path d="M178 808 c5 -5 16 -8 23 -6 8 3 3 7 -10 11 -17 4 -21 3 -13 -5z"/>
<path d="M275 815 c24 -8 114 -11 109 -3 -3 4 -31 8 -62 7 -31 0 -52 -2 -47
-4z"/>
<path d="M258 793 c17 -2 47 -2 65 0 17 2 3 4 -33 4 -36 0 -50 -2 -32 -4z"/>
<path d="M1049 1066 c-2 -3 -18 -6 -34 -9 -16 -2 -31 -9 -33 -16 -3 -10 0 -10
19 -1 12 7 57 16 98 20 l76 7 -61 2 c-33 0 -63 -1 -65 -3z"/>
<path d="M1135 1050 l-60 -7 83 -1 c49 -1 82 2 82 8 0 11 -9 11 -105 0z"/>
<path d="M1020 1030 c-12 -8 -11 -10 8 -10 12 0 22 5 22 10 0 13 -11 13 -30 0z"/>
<path d="M939 1003 l-24 -28 28 24 c25 23 32 31 24 31 -2 0 -14 -12 -28 -27z"/>
<path d="M979 1003 c-13 -16 -12 -17 4 -4 9 7 17 15 17 17 0 8 -8 3 -21 -13z"/>
<path d="M907 963 c-4 -3 -7 -23 -7 -43 0 -37 31 -90 52 -90 5 0 -2 14 -17 32
-21 25 -26 40 -23 70 2 21 3 38 2 38 0 0 -4 -3 -7 -7z"/>
<path d="M950 934 c0 -16 5 -36 10 -44 6 -10 7 -2 3 25 -7 49 -13 58 -13 19z"/>
<path d="M1086 935 c5 -12 22 -15 78 -13 l71 2 -70 5 -70 5 100 6 100 6 -107
2 c-92 2 -107 0 -102 -13z"/>
<path d="M1292 910 c0 -14 2 -19 5 -12 2 6 2 18 0 25 -3 6 -5 1 -5 -13z"/>
<path d="M970 866 c0 -2 8 -10 18 -17 15 -13 16 -12 3 4 -13 16 -21 21 -21 13z"/>
<path d="M1020 830 c20 -13 43 -13 35 0 -3 6 -16 10 -28 10 -18 0 -19 -2 -7
-10z"/>
<path d="M1180 830 c0 -13 11 -13 30 0 12 8 11 10 -7 10 -13 0 -23 -4 -23 -10z"/>
<path d="M970 821 c0 -16 85 -32 145 -28 l60 3 -68 2 c-37 1 -83 9 -102 16
-19 8 -35 11 -35 7z"/>
<path d="M1220 820 c-13 -8 -12 -10 3 -10 9 0 17 5 17 10 0 12 -1 12 -20 0z"/>
<path d="M1093 813 c15 -2 37 -2 50 0 12 2 0 4 -28 4 -27 0 -38 -2 -22 -4z"/>
<path d="M1373 1063 c-7 -2 -13 -13 -13 -22 0 -14 6 -17 30 -13 17 2 30 8 30
12 0 4 -11 5 -25 2 -31 -6 -33 6 -2 18 12 5 15 9 7 9 -8 -1 -21 -3 -27 -6z"/>
<path d="M1612 1061 c-8 -5 8 -6 40 -4 73 6 83 11 23 12 -27 0 -56 -3 -63 -8z"/>
<path d="M1560 1040 c0 -5 7 -7 15 -4 8 4 15 8 15 10 0 2 -7 4 -15 4 -8 0 -15
-4 -15 -10z"/>
<path d="M1668 1043 c12 -2 30 -2 40 0 9 3 -1 5 -23 4 -22 0 -30 -2 -17 -4z"/>
<path d="M1746 1041 c-21 -8 -11 -19 22 -26 12 -2 18 3 19 16 2 20 -9 23 -41
10z"/>
<path d="M1560 1005 c-8 -9 -8 -15 -2 -15 12 0 26 19 19 26 -2 2 -10 -2 -17
-11z"/>
<path d="M1497 993 c-4 -3 -6 -29 -5 -57 l1 -51 4 45 c3 24 9 50 15 57 11 13
-3 19 -15 6z"/>
<path d="M1782 976 c1 -14 6 -22 10 -20 12 7 10 44 -2 44 -5 0 -9 -11 -8 -24z"/>
<path d="M1828 958 c-3 -22 -7 -23 -93 -24 -81 -1 -84 0 -30 6 l60 7 -62 1
c-50 2 -63 -1 -63 -13 0 -12 17 -15 95 -15 93 0 95 0 101 25 4 14 4 28 1 31
-3 3 -7 -5 -9 -18z"/>
<path d="M1545 880 c3 -5 8 -10 11 -10 2 0 4 5 4 10 0 6 -5 10 -11 10 -5 0 -7
-4 -4 -10z"/>
<path d="M1500 876 c0 -2 8 -10 18 -17 15 -13 16 -12 3 4 -13 16 -21 21 -21
13z"/>
<path d="M1615 830 c11 -5 27 -9 35 -9 9 0 8 4 -5 9 -11 5 -27 9 -35 9 -9 0
-8 -4 5 -9z"/>
<path d="M1560 820 c0 -6 7 -10 15 -10 8 0 15 2 15 4 0 2 -7 6 -15 10 -8 3
-15 1 -15 -4z"/>
<path d="M1807 823 c-4 -3 -37 -6 -75 -6 l-67 1 65 -8 c68 -9 110 -4 110 11 0
10 -24 12 -33 2z"/>
<path d="M1657 793 c18 -2 50 -2 70 0 21 2 7 4 -32 4 -38 0 -55 -2 -38 -4z"/>
<path d="M507 1053 c-10 -9 -9 -263 1 -263 4 0 6 56 4 125 -3 107 -1 126 12
131 9 3 23 1 31 -6 13 -11 14 -10 9 4 -6 16 -44 22 -57 9z"/>
<path d="M807 1043 c-3 -5 -7 -35 -10 -68 l-6 -60 11 63 c17 99 30 73 26 -53
-2 -63 0 -115 5 -115 4 0 7 54 7 120 0 98 -3 120 -14 120 -8 0 -17 -3 -19 -7z"/>
<path d="M610 996 c0 -2 7 -9 15 -16 13 -11 14 -10 9 4 -5 14 -24 23 -24 12z"/>
<path d="M560 966 c0 -2 15 -6 34 -8 19 -2 32 0 30 4 -5 8 -64 12 -64 4z"/>
<path d="M542 915 c0 -16 2 -22 5 -12 2 9 2 23 0 30 -3 6 -5 -1 -5 -18z"/>
<path d="M680 936 c0 -2 8 -10 18 -17 15 -13 16 -12 3 4 -13 16 -21 21 -21 13z"/>
<path d="M670 916 c0 -2 8 -10 18 -17 15 -13 16 -12 3 4 -13 16 -21 21 -21 13z"/>
<path d="M755 900 l-30 -8 27 -1 c15 0 30 4 33 9 3 6 5 9 3 9 -2 -1 -16 -5
-33 -9z"/>
<path d="M528 845 c-2 -19 0 -35 4 -35 4 0 8 16 8 35 0 19 -2 35 -4 35 -2 0
-6 -16 -8 -35z"/>
<path d="M710 870 c0 -5 5 -10 11 -10 5 0 7 5 4 10 -3 6 -8 10 -11 10 -2 0 -4
-4 -4 -10z"/>
<path d="M776 818 c10 -15 25 -28 33 -28 8 0 12 1 10 3 -2 1 -17 13 -33 27
l-29 25 19 -27z"/>
<path d="M1413 920 c0 -36 2 -50 4 -32 2 17 2 47 0 65 -2 17 -4 3 -4 -33z"/>
<path d="M1361 948 c1 -16 3 -18 6 -6 2 9 12 19 21 21 12 3 10 5 -5 6 -18 1
-23 -4 -22 -21z"/>
<path d="M1372 858 c-1 -33 3 -60 9 -64 14 -8 29 14 27 41 -1 17 -1 17 -5 -2
-8 -41 -22 -24 -26 30 l-3 52 -2 -57z"/>
<path d="M1030 686 c0 -23 -3 -24 -34 -19 -19 3 -51 2 -70 -1 l-36 -7 0 -54
c0 -52 -1 -55 -25 -55 -24 0 -25 2 -25 75 l0 75 -40 0 -40 0 0 -115 0 -115
315 1 315 0 1 57 c1 56 2 56 8 15 13 -74 6 -72 257 -73 l224 0 0 40 c0 38 -2
40 -31 40 -24 0 -30 4 -27 18 2 10 14 18 31 20 23 3 27 8 27 37 0 21 -6 35
-16 39 -22 9 -77 7 -92 -3 -7 -4 -31 -3 -53 3 -28 7 -48 7 -69 -1 -29 -11 -30
-10 -30 18 0 26 -3 29 -35 29 -32 0 -35 -2 -35 -30 0 -26 -3 -29 -17 -21 -14
7 -177 7 -353 1 -42 -2 -80 13 -80 31 0 15 -7 19 -35 19 -30 0 -35 -3 -35 -24z
m50 -20 c0 -19 4 -23 20 -19 11 3 31 -2 45 -11 21 -14 25 -24 25 -66 0 -63
-17 -81 -76 -78 l-44 1 0 99 c0 80 3 98 15 98 9 0 15 -9 15 -24z m520 -76 c0
-82 -3 -100 -15 -100 -12 0 -15 18 -15 100 0 82 3 100 15 100 12 0 15 -18 15
-100z m-780 15 l0 -75 40 0 c33 0 40 -3 40 -20 0 -18 -7 -20 -60 -20 l-60 0 0
95 c0 88 1 95 20 95 18 0 20 -7 20 -75z m181 35 c16 -9 19 -22 19 -80 l0 -70
-39 0 c-58 0 -71 8 -71 44 0 40 15 56 53 56 16 0 26 4 22 10 -3 6 -22 10 -41
10 -23 0 -34 5 -34 14 0 23 58 33 91 16z m287 -6 c18 -12 22 -25 22 -68 0 -61
-11 -76 -59 -76 -49 0 -71 24 -71 76 0 34 5 47 26 63 32 25 52 26 82 5z m130
-6 c2 -10 -7 -18 -22 -22 -24 -6 -26 -11 -26 -61 0 -48 -2 -55 -20 -55 -18 0
-20 7 -20 76 0 70 2 76 19 71 10 -2 25 -1 32 4 18 11 33 6 37 -13z m107 -3
c14 -13 25 -33 25 -45 0 -17 -6 -20 -45 -20 -25 0 -45 -4 -45 -10 0 -16 35
-29 59 -23 19 5 22 2 19 -13 -2 -14 -13 -20 -45 -22 -33 -2 -44 1 -57 20 -26
36 -21 93 10 117 34 27 50 26 79 -4z m207 6 c4 -3 11 -21 14 -39 l7 -32 -47 0
c-25 0 -46 -4 -46 -10 0 -15 35 -29 58 -23 18 4 22 1 22 -16 0 -18 -6 -21 -44
-21 -51 0 -66 14 -73 69 -5 33 -1 44 21 66 21 21 33 25 54 20 15 -3 30 -10 34
-14z m112 13 c25 -10 19 -34 -9 -34 -22 0 -45 -24 -45 -49 0 -19 32 -42 51
-36 14 5 19 1 19 -14 0 -18 -6 -21 -40 -21 -47 0 -60 18 -60 84 0 59 36 88 84
70z"/>
<path d="M1093 623 c9 -2 23 -2 30 0 6 3 -1 5 -18 5 -16 0 -22 -2 -12 -5z"/>
<path d="M1087 603 c-14 -13 -7 -71 9 -77 22 -8 44 11 44 38 0 34 -34 59 -53
39z m28 -32 c3 -5 1 -12 -5 -16 -5 -3 -10 1 -10 9 0 18 6 21 15 7z"/>
<path d="M797 584 c2 -103 13 -108 13 -6 0 45 -3 82 -7 82 -5 0 -7 -34 -6 -76z"/>
<path d="M968 623 c6 -2 18 -2 25 0 6 3 1 5 -13 5 -14 0 -19 -2 -12 -5z"/>
<path d="M944 549 c-3 -6 -2 -15 3 -20 13 -13 43 -1 43 17 0 16 -36 19 -46 3z"/>
<path d="M1224 596 c-10 -27 1 -71 18 -74 22 -4 40 31 32 63 -7 27 -41 35 -50
11z m23 -38 c-3 -8 -6 -5 -6 6 -1 11 2 17 5 13 3 -3 4 -12 1 -19z"/>
<path d="M1465 600 c-4 -6 5 -10 20 -10 15 0 24 4 20 10 -3 6 -12 10 -20 10
-8 0 -17 -4 -20 -10z"/>
<path d="M1442 570 c0 -19 2 -27 5 -17 2 9 2 25 0 35 -3 9 -5 1 -5 -18z"/>
<path d="M1665 600 c-4 -6 5 -10 19 -10 14 0 26 5 26 10 0 6 -9 10 -19 10 -11
0 -23 -4 -26 -10z"/>
<path d="M1642 575 c0 -16 2 -22 5 -12 2 9 2 23 0 30 -3 6 -5 -1 -5 -18z"/>
<path d="M1808 623 c7 -3 16 -2 19 1 4 3 -2 6 -13 5 -11 0 -14 -3 -6 -6z"/>
<path d="M1781 604 c0 -11 3 -14 6 -6 3 7 2 16 -1 19 -3 4 -6 -2 -5 -13z"/>
</g>
</svg>
