<?xml version="1.0" standalone="no"?>
<!DOCTYPE svg PUBLIC "-//W3C//DTD SVG 20010904//EN"
 "http://www.w3.org/TR/2001/REC-SVG-20010904/DTD/svg10.dtd">
<svg version="1.0" xmlns="http://www.w3.org/2000/svg"
 width="144.000000pt" height="144.000000pt" viewBox="0 0 144.000000 144.000000"
 preserveAspectRatio="xMidYMid meet">
<metadata>
Created by potrace 1.16, written by Peter Selinger 2001-2019
</metadata>
<g transform="translate(0.000000,144.000000) scale(0.100000,-0.100000)"
fill="#000000" stroke="none">
<path d="M500 1166 c-97 -22 -160 -47 -175 -69 -43 -61 2 -352 77 -502 75
-149 251 -335 318 -335 29 0 101 53 171 127 148 156 224 340 236 570 8 144 3
152 -109 189 -77 25 -98 28 -273 30 -128 2 -208 -1 -245 -10z m400 -10 c120
-20 198 -51 212 -84 26 -66 -28 -355 -88 -475 -58 -115 -163 -236 -262 -302
l-42 -28 -41 28 c-62 41 -169 152 -217 225 -81 125 -132 302 -135 476 -2 97 2
103 81 129 137 44 335 57 492 31z"/>
<path d="M565 1139 c-107 -16 -206 -50 -217 -75 -15 -33 15 -260 46 -353 51
-146 149 -286 267 -376 l59 -47 63 49 c130 103 232 259 276 423 25 92 44 285
31 309 -11 22 -128 58 -230 71 -89 11 -212 11 -295 -1z m70 -69 c0 -39 -3 -45
-22 -48 -21 -3 -23 0 -23 48 0 48 2 51 23 48 19 -3 22 -9 22 -48z m70 0 c0
-35 -4 -45 -17 -48 -12 -2 -21 6 -28 22 -13 35 4 79 28 74 13 -3 17 -13 17
-48z m70 -2 c1 -54 -6 -61 -22 -20 l-11 27 -1 -27 c-2 -50 -16 -29 -16 22 0
48 1 51 25 48 23 -3 25 -7 25 -50z m66 36 c12 -15 11 -16 -9 -10 -19 7 -22 4
-22 -23 0 -17 5 -31 11 -31 6 0 9 7 5 15 -3 9 0 15 10 15 10 0 14 -8 12 -22
-4 -33 -52 -32 -56 1 -9 58 20 90 49 55z m-299 -45 c5 -4 8 -17 5 -30 l-4 -24
-9 25 -8 25 -7 -25 c-5 -20 -7 -15 -8 21 -1 49 12 76 18 37 1 -12 7 -26 13
-29z m31 4 c-2 -61 -4 -64 -13 -28 -12 47 -11 75 3 75 8 0 11 -15 10 -47z
m307 27 c0 -11 5 -20 10 -20 6 0 10 9 10 20 0 11 5 20 10 20 6 0 10 -22 10
-50 0 -27 -4 -50 -10 -50 -5 0 -10 11 -10 25 0 14 -4 25 -10 25 -5 0 -10 -11
-10 -25 0 -14 -4 -25 -10 -25 -5 0 -10 23 -10 50 0 28 5 50 10 50 6 0 10 -9
10 -20z m70 -40 c0 -27 -4 -50 -10 -50 -5 0 -10 23 -10 50 0 28 5 50 10 50 6
0 10 -22 10 -50z m40 20 c0 -10 5 -22 12 -26 8 -5 9 0 6 14 -4 12 -2 22 3 22
5 0 9 -23 9 -51 0 -31 -4 -48 -10 -44 -5 3 -10 15 -10 25 0 10 -4 22 -10 25
-6 4 -10 -5 -10 -20 0 -14 -3 -24 -7 -22 -5 3 -6 28 -5 56 2 28 8 48 13 45 5
-3 9 -14 9 -24z m-502 -22 c10 -38 6 -71 -5 -40 -6 16 -23 15 -23 -2 0 -8 -11
-17 -24 -20 -13 -3 -30 -8 -38 -11 -10 -4 -14 8 -15 45 -1 27 2 50 7 50 6 0
10 -18 10 -39 0 -34 3 -38 19 -34 13 3 21 17 26 41 12 67 28 70 43 10z m572
-55 c0 -43 -4 -94 -10 -113 -9 -31 -13 -35 -42 -34 -22 1 -32 6 -30 15 3 11 1
11 -9 2 -10 -10 -16 -6 -31 17 -10 17 -23 30 -30 29 -11 0 -11 -2 0 -6 7 -2
17 -14 23 -26 11 -21 10 -20 -15 2 -14 14 -24 26 -21 29 2 2 -2 17 -11 33 -11
23 -12 29 -2 30 10 0 10 2 1 6 -7 2 -13 9 -13 13 0 5 21 3 47 -5 26 -8 49 -12
51 -10 3 2 18 -3 34 -11 17 -9 33 -13 36 -10 3 4 4 31 3 61 -1 34 2 55 8 55 7
0 11 -29 11 -77z m-674 -190 c-7 -7 -26 149 -25 200 1 34 6 8 15 -72 7 -69 12
-127 10 -128z m266 162 c3 -27 1 -32 -9 -23 -9 7 -13 7 -13 0 0 -6 5 -14 10
-17 17 -10 11 -28 -6 -21 -15 6 -15 4 -3 -11 12 -15 12 -16 -3 -11 -11 5 -15
2 -13 -10 1 -9 -9 -29 -23 -44 -20 -21 -28 -25 -39 -16 -11 9 -12 7 -6 -8 6
-17 5 -17 -10 -5 -15 12 -17 12 -11 -3 7 -19 -7 -21 -25 -3 -10 10 -11 9 -6
-4 5 -14 0 -16 -26 -15 -31 1 -34 5 -50 58 -27 92 -32 129 -17 127 7 -2 32 3
55 11 44 14 79 8 67 -11 -4 -8 -3 -9 4 -5 6 4 9 13 6 21 -6 13 15 19 87 23 23
2 27 -2 31 -33z m146 26 c20 -12 -23 -21 -70 -15 -24 4 -38 2 -38 -5 0 -7 28
-11 74 -11 65 0 77 -3 90 -21 8 -12 12 -27 10 -34 -3 -7 1 -29 10 -48 8 -20
14 -56 14 -82 0 -51 14 -75 44 -75 10 0 16 -4 13 -10 -11 -18 -51 -10 -75 15
-13 14 -31 24 -40 23 -8 -1 -20 1 -27 5 -6 4 -15 2 -19 -4 -8 -14 14 -29 44
-29 12 0 22 -4 22 -10 0 -11 -59 -2 -77 13 -20 15 -15 37 11 47 23 8 23 11 12
43 -6 19 -18 42 -25 51 -7 9 -11 24 -8 35 4 17 2 18 -24 9 -31 -11 -39 -28
-13 -28 11 0 15 -8 12 -27 -2 -22 1 -27 15 -25 10 2 17 -3 17 -13 0 -8 5 -15
10 -15 21 0 9 -20 -16 -26 -19 -5 -23 -11 -18 -23 4 -9 7 -29 6 -46 -2 -44 6
-72 22 -78 12 -5 13 0 5 26 -12 41 -11 50 1 42 6 -3 10 -18 11 -33 l1 -27 10
28 c6 17 17 27 30 27 19 0 19 0 0 -27 -11 -16 -21 -37 -23 -47 -3 -12 -14 -20
-31 -22 -23 -2 -29 3 -40 34 -6 20 -11 41 -10 45 1 5 -2 6 -8 2 -15 -9 -12 18
6 43 9 13 11 22 4 22 -6 0 -8 5 -5 10 3 6 2 10 -4 10 -5 0 -13 -9 -16 -20 -6
-20 -25 -28 -25 -10 0 5 -9 14 -21 21 -19 10 -20 9 -14 -11 5 -17 3 -21 -12
-18 -13 2 -17 -2 -15 -15 2 -10 -3 -26 -10 -35 -11 -15 -10 -15 8 1 11 9 28
17 38 17 9 0 15 4 12 8 -3 5 2 9 10 9 10 0 11 -4 4 -11 -14 -14 -13 -26 3 -26
7 0 20 -12 29 -27 18 -32 9 -73 -17 -73 -19 0 -19 19 0 44 17 22 11 36 -13 35
-10 0 -12 -3 -5 -5 9 -4 4 -20 -15 -55 -29 -53 -30 -53 -52 -39 -12 8 -10 14
13 38 18 19 27 39 27 61 0 18 -4 30 -9 27 -10 -6 -55 -95 -56 -111 -3 -27 -18
-55 -30 -55 -24 0 -27 19 -6 48 10 15 22 46 26 67 12 68 33 142 48 171 8 16
17 41 21 55 3 15 21 36 38 48 18 11 40 26 50 33 13 9 25 9 57 -2 30 -10 45
-10 52 -3 21 21 0 30 -81 37 -84 8 -105 20 -75 43 21 14 93 17 113 4z m-108
-70 c0 -5 -7 -11 -15 -15 -15 -5 -20 5 -8 17 9 10 23 9 23 -2z m315 -91 c29 0
35 -4 35 -20 0 -49 -90 -260 -110 -260 -9 0 -18 78 -10 88 3 4 14 12 25 18 11
6 21 23 23 38 3 21 -1 26 -18 26 -24 0 -27 7 -33 82 l-4 57 28 -15 c16 -8 44
-14 64 -14z m-415 -50 c-6 -11 -18 -55 -26 -97 -8 -42 -23 -90 -33 -106 l-19
-30 -27 42 c-22 33 -54 128 -55 164 0 4 19 7 43 7 26 0 58 9 82 24 46 26 51
26 35 -4z m-193 -12 c-3 -8 -6 -5 -6 6 -1 11 2 17 5 13 3 -3 4 -12 1 -19z
m487 -95 c2 -10 6 -40 8 -68 2 -41 0 -50 -15 -53 -15 -3 -18 3 -16 40 1 24 1
48 -1 53 -5 19 0 45 9 45 5 0 12 -8 15 -17z m-44 -128 c0 -10 10 -15 27 -15
l28 0 -26 -26 c-25 -25 -27 -25 -57 -10 -18 9 -55 16 -87 16 -30 0 -55 5 -55
10 0 6 13 10 28 10 15 0 32 4 38 9 5 5 27 11 49 14 22 2 43 4 48 5 4 1 7 -5 7
-13z m72 -47 c-23 -38 -176 -178 -194 -178 -6 0 -46 35 -87 77 -64 65 -73 77
-56 81 11 2 22 8 25 12 3 4 15 10 26 14 19 6 23 2 28 -31 9 -45 44 -123 57
-123 5 0 0 16 -11 35 -11 19 -17 35 -14 35 2 0 0 8 -5 18 -6 10 -8 27 -5 38 4
15 14 19 50 19 24 0 44 -4 44 -9 0 -4 7 -5 16 -2 11 4 15 2 11 -7 -3 -8 1 -14
9 -14 7 0 10 5 7 11 -3 6 0 6 7 -1 16 -15 1 -36 -38 -56 -25 -12 -50 -57 -32
-57 6 0 10 6 10 13 0 8 21 28 48 45 26 17 62 49 80 71 40 49 52 53 24 9z"/>
<path d="M605 1090 c-3 -5 1 -10 9 -10 9 0 16 5 16 10 0 6 -4 10 -9 10 -6 0
-13 -4 -16 -10z"/>
<path d="M610 1050 c0 -5 5 -10 10 -10 6 0 10 5 10 10 0 6 -4 10 -10 10 -5 0
-10 -4 -10 -10z"/>
<path d="M670 1070 c0 -16 4 -30 9 -30 13 0 21 27 15 45 -10 25 -24 17 -24
-15z"/>
<path d="M740 1096 c0 -9 5 -16 10 -16 6 0 10 4 10 9 0 6 -4 13 -10 16 -5 3
-10 -1 -10 -9z"/>
<path d="M461 1044 c0 -11 3 -14 6 -6 3 7 2 16 -1 19 -3 4 -6 -2 -5 -13z"/>
<path d="M984 953 c11 -13 29 -22 40 -22 20 1 20 2 1 6 -11 3 -29 12 -40 22
-20 16 -20 16 -1 -6z"/>
<path d="M500 921 c-7 -11 -16 -18 -20 -16 -3 2 -12 0 -20 -5 -11 -7 -9 -9 8
-7 22 1 76 47 56 47 -5 0 -16 -9 -24 -19z"/>
<path d="M783 879 c3 -8 13 -39 23 -69 19 -63 20 -65 54 -75 23 -7 24 -7 10
10 -9 11 -15 39 -15 73 0 30 -5 57 -11 59 -6 2 -9 -11 -7 -34 l4 -38 -21 37
c-20 36 -48 65 -37 37z"/>
<path d="M656 808 c-14 -41 -15 -48 -8 -46 4 1 15 -2 25 -7 25 -11 26 -5 6 35
-14 28 -18 31 -23 18z"/>
</g>
</svg>
