<?xml version="1.0" standalone="no"?>
<!DOCTYPE svg PUBLIC "-//W3C//DTD SVG 20010904//EN"
 "http://www.w3.org/TR/2001/REC-SVG-20010904/DTD/svg10.dtd">
<svg version="1.0" xmlns="http://www.w3.org/2000/svg"
 width="192.000000pt" height="192.000000pt" viewBox="0 0 192.000000 192.000000"
 preserveAspectRatio="xMidYMid meet">
<metadata>
Created by potrace 1.16, written by Peter Selinger 2001-2019
</metadata>
<g transform="translate(0.000000,192.000000) scale(0.100000,-0.100000)"
fill="#000000" stroke="none">
<path d="M833 1611 c-46 -21 -63 -45 -63 -89 0 -43 27 -60 116 -73 72 -10 108
-19 74 -19 -8 0 -50 -23 -94 -52 -45 -28 -98 -62 -118 -75 -44 -27 -60 -56
-83 -143 -9 -36 -34 -94 -56 -131 -30 -51 -40 -78 -44 -125 -2 -33 -11 -76
-20 -97 -8 -20 -15 -61 -15 -91 0 -32 -8 -71 -20 -97 -11 -24 -20 -55 -20 -68
0 -13 -20 -50 -45 -83 -33 -43 -45 -69 -45 -94 0 -60 57 -90 123 -65 17 7 27
20 31 43 11 56 20 64 50 45 30 -20 85 -22 110 -4 10 8 29 38 42 68 13 30 23
46 24 37 1 -40 90 -52 134 -17 19 15 26 30 26 57 l1 37 15 -27 c14 -27 17 -28
103 -28 79 0 90 2 109 23 13 14 22 36 22 56 0 36 26 87 48 96 26 10 39 -48 29
-132 -9 -69 -8 -78 9 -90 24 -18 89 -17 104 2 9 11 11 37 6 95 -5 50 -3 109 5
155 11 73 12 75 41 75 16 0 44 7 63 14 29 13 35 20 35 46 0 30 -1 31 -41 28
-36 -2 -45 2 -65 27 -17 21 -24 44 -25 75 -1 25 -2 70 -3 100 -1 42 -10 74
-40 135 -33 69 -39 90 -40 152 -1 60 -5 75 -24 96 -26 27 -87 46 -154 48 -38
1 -40 2 -13 8 25 5 30 11 30 36 0 27 -5 31 -55 47 -78 24 -212 23 -267 -1z
m247 -23 c72 -18 70 -28 -5 -28 -49 0 -65 -3 -55 -10 8 -5 26 -10 40 -10 20 0
22 -2 10 -10 -26 -17 -78 -11 -142 16 -61 25 -61 25 -81 6 -11 -11 -17 -27
-14 -35 8 -21 54 -27 219 -27 211 0 246 -18 235 -124 -4 -45 0 -61 36 -136 33
-67 42 -97 43 -145 1 -33 5 -75 10 -94 6 -30 5 -34 -10 -28 -10 4 -28 7 -41 7
-21 0 -22 2 -12 29 8 22 7 40 -6 82 -13 41 -15 62 -7 88 13 47 -16 113 -60
136 -39 20 -50 12 -23 -18 25 -27 34 -61 26 -99 -10 -50 -41 -33 -84 47 -34
61 -66 101 -76 92 -1 -2 12 -35 31 -73 19 -38 44 -100 55 -139 12 -38 24 -78
27 -87 3 -11 0 -18 -8 -18 -7 0 -26 24 -41 54 -35 66 -60 91 -84 82 -17 -7
-17 -8 0 -18 13 -7 17 -17 13 -32 -4 -18 0 -26 18 -34 14 -6 29 -26 36 -46 11
-34 14 -36 53 -36 23 0 62 -9 86 -20 24 -11 53 -20 65 -20 13 0 39 -18 61 -41
36 -36 44 -40 78 -36 43 6 49 -5 12 -21 -45 -21 -89 -14 -134 19 -56 40 -65
29 -16 -21 l38 -39 -11 -83 c-9 -62 -9 -99 -1 -146 10 -55 9 -66 -5 -80 -15
-15 -16 -14 -17 8 l0 25 -10 -24 c-9 -23 -10 -23 -29 -6 -15 13 -17 22 -10 36
17 32 12 127 -10 169 -11 22 -24 40 -29 40 -34 0 -91 -94 -91 -149 0 -34 -32
-51 -94 -51 -34 0 -66 4 -73 8 -7 4 -21 28 -31 52 l-20 45 -16 -37 c-9 -21
-16 -51 -16 -67 0 -24 -7 -34 -30 -46 -41 -21 -53 -19 -45 8 6 18 5 20 -6 9
-35 -33 -41 17 -6 51 37 37 60 78 50 88 -16 16 -43 -2 -62 -40 -11 -20 -28
-44 -39 -55 -12 -10 -24 -31 -27 -47 -4 -16 -11 -31 -16 -34 -5 -4 -9 -14 -9
-24 0 -23 -17 -37 -54 -47 -28 -7 -29 -6 -22 22 6 26 5 27 -7 11 -21 -25 -27
-21 -27 17 0 28 7 39 45 67 59 45 74 78 68 157 -8 90 -27 80 -88 -44 -27 -55
-58 -113 -67 -127 -10 -14 -18 -40 -18 -57 0 -17 -4 -38 -9 -48 -6 -9 -12 -29
-16 -44 -5 -24 -10 -28 -41 -28 -32 0 -35 2 -24 15 7 9 10 18 6 22 -3 4 -13
-2 -21 -13 -14 -18 -14 -18 -15 9 0 28 35 92 63 115 8 7 19 32 22 55 4 23 14
54 21 69 8 15 14 51 14 80 1 29 8 71 16 93 8 22 19 72 23 112 7 59 15 81 48
131 27 40 44 80 52 123 19 95 32 112 128 170 49 29 103 63 122 76 45 30 74 29
193 -9 105 -33 117 -31 118 15 0 61 -46 77 -230 77 -181 0 -241 19 -225 69 19
61 147 83 285 49z m-180 -64 c0 -2 -7 -4 -15 -4 -8 0 -15 4 -15 10 0 5 7 7 15
4 8 -4 15 -8 15 -10z m298 -100 c12 -8 22 -22 22 -30 0 -17 11 -19 -95 16
l-90 29 70 1 c48 0 78 -5 93 -16z m79 -226 c-3 -8 -6 -5 -6 6 -1 11 2 17 5 13
3 -3 4 -12 1 -19z m5 -136 c13 -60 6 -73 -34 -65 -20 4 -28 11 -28 27 0 11 -6
42 -14 67 -14 46 -14 46 9 42 12 -3 29 2 36 10 12 13 14 12 17 -7 1 -11 7 -45
14 -74z m-592 -461 c-4 -9 -20 -27 -35 -41 l-27 -25 7 25 c4 14 17 45 28 70
l20 45 8 -29 c4 -16 4 -36 -1 -45z"/>
<path d="M747 1183 c-3 -4 -8 -33 -12 -63 -4 -30 -14 -67 -21 -82 -15 -30 -3
-46 16 -23 16 19 33 19 71 -1 17 -8 34 -13 37 -9 4 3 -6 28 -21 54 -15 27 -30
66 -35 87 -7 36 -25 54 -35 37z m26 -103 c3 -12 0 -20 -8 -20 -8 0 -11 8 -8
20 3 11 7 20 8 20 1 0 5 -9 8 -20z"/>
<path d="M965 990 c-7 -11 4 -39 27 -72 23 -34 23 -54 -3 -139 -21 -70 -19
-100 5 -66 20 26 26 21 26 -21 0 -21 6 -47 14 -57 13 -18 15 -17 26 22 11 36
11 46 -4 67 -15 24 -22 66 -11 66 12 0 43 -39 34 -42 -7 -2 -6 -13 1 -30 10
-20 10 -34 1 -59 -13 -37 -5 -99 13 -99 25 0 44 26 50 70 8 50 44 103 85 124
28 15 51 53 51 86 0 10 -14 39 -30 64 -23 33 -41 48 -67 55 -34 10 -64 4 -35
-6 22 -8 13 -33 -12 -33 -35 0 -40 -16 -15 -41 18 -18 30 -21 70 -17 56 6 64
-5 18 -21 -44 -15 -67 -14 -115 8 -53 24 -76 71 -49 101 10 11 27 20 37 20 11
0 18 5 16 11 -4 13 -126 21 -133 9z m248 -84 c3 -8 -1 -17 -9 -20 -28 -11 -35
-7 -24 14 13 23 26 26 33 6z m-58 -96 c31 0 65 5 76 10 17 10 18 9 8 -12 -6
-13 -24 -32 -41 -43 -44 -28 -69 -65 -75 -114 -10 -75 -21 -53 -16 33 5 76 4
85 -16 105 -11 11 -30 21 -41 21 -11 0 -20 4 -20 8 0 18 14 21 41 7 15 -8 53
-15 84 -15z"/>
<path d="M886 914 c-20 -12 -47 -15 -92 -12 -60 4 -64 3 -64 -18 0 -18 -7 -23
-44 -28 -24 -4 -49 -12 -54 -19 -14 -16 -35 -137 -26 -146 4 -3 9 0 12 8 3 8
19 29 36 47 27 29 38 33 94 36 69 5 80 -10 21 -27 -33 -10 -34 -11 -31 -57 3
-54 10 -57 72 -32 26 10 56 15 80 11 22 -3 40 -4 40 -2 0 1 -11 28 -25 59 -14
31 -25 72 -25 91 0 21 9 44 25 63 38 45 32 53 -19 26z m-34 -83 c-3 -24 4 -56
16 -85 l21 -46 -40 0 c-22 0 -49 -5 -60 -10 -16 -9 -19 -7 -19 12 0 17 9 27
30 35 25 9 30 17 30 43 l0 32 -77 -4 c-43 -2 -87 -8 -98 -13 -19 -8 -19 -8 -2
12 10 11 36 23 58 27 22 3 42 13 45 21 4 10 21 15 53 15 l47 0 -4 -39z"/>
<path d="M1293 773 c-10 -21 -10 -31 4 -54 25 -42 34 -35 31 23 -3 58 -17 70
-35 31z"/>
<path d="M1000 606 c0 -16 26 -46 40 -46 22 0 21 24 -1 41 -29 22 -39 24 -39
5z"/>
</g>
</svg>
