<?xml version="1.0" standalone="no"?>
<!DOCTYPE svg PUBLIC "-//W3C//DTD SVG 20010904//EN"
 "http://www.w3.org/TR/2001/REC-SVG-20010904/DTD/svg10.dtd">
<svg version="1.0" xmlns="http://www.w3.org/2000/svg"
 width="256.000000pt" height="256.000000pt" viewBox="0 0 256.000000 256.000000"
 preserveAspectRatio="xMidYMid meet">
<metadata>
Created by potrace 1.16, written by Peter Selinger 2001-2019
</metadata>
<g transform="translate(0.000000,256.000000) scale(0.100000,-0.100000)"
fill="#000000" stroke="none">
<path d="M1233 2233 c-7 -2 -13 -11 -13 -19 0 -8 -4 -22 -9 -32 -10 -17 -28
-71 -131 -397 -82 -256 -102 -319 -110 -340 -42 -117 -62 -197 -52 -207 16
-16 45 9 33 29 -4 9 0 37 11 70 10 31 18 62 18 69 0 8 9 19 20 26 11 7 20 17
20 22 0 4 -7 3 -15 -4 -13 -10 -15 -9 -15 9 l0 21 419 0 420 0 26 83 c135 420
189 588 201 620 17 44 18 57 4 57 -9 0 -27 -33 -34 -65 -2 -5 -6 -17 -9 -25
-3 -8 -14 -42 -23 -75 -9 -33 -20 -64 -24 -69 -5 -5 -6 -15 -3 -22 3 -8 1 -14
-4 -14 -6 0 -16 -26 -23 -57 -6 -32 -18 -71 -26 -88 -7 -16 -20 -50 -27 -75
-14 -44 -15 -44 -25 -20 -9 20 -10 13 -6 -35 2 -33 1 -54 -4 -48 -5 8 -8 1 -9
-20 0 -17 -6 -45 -14 -62 -7 -16 -13 -37 -13 -45 -1 -13 -54 -15 -406 -17
-284 -2 -400 1 -387 8 9 6 15 15 11 21 -4 5 -1 27 6 47 9 27 21 41 43 49 17 6
28 15 24 19 -4 4 -13 1 -19 -5 -16 -16 -28 -15 -28 3 0 8 9 20 20 27 11 7 20
17 20 22 0 4 -7 3 -15 -4 -9 -8 -15 -9 -15 -2 0 6 5 14 10 17 6 3 10 23 11 43
1 33 3 30 14 -23 l13 -60 -4 55 c-4 38 2 79 16 130 11 41 24 91 27 110 l7 35
13 -40 13 -40 -4 35 c-4 39 32 213 45 218 5 2 9 12 9 23 0 18 12 19 380 19
l380 0 1 -22 c1 -21 2 -21 6 -3 3 11 9 24 14 30 5 5 9 12 9 16 0 4 -167 7
-372 8 -279 0 -374 -3 -380 -12 -6 -9 -8 -9 -8 1 0 12 -15 15 -37 5z m647
-543 c0 -5 -4 -10 -10 -10 -5 0 -10 5 -10 10 0 6 5 10 10 10 6 0 10 -4 10 -10z
m-930 -434 c0 -2 -7 -7 -16 -10 -8 -3 -12 -2 -9 4 6 10 25 14 25 6z"/>
<path d="M1255 2180 c-3 -5 -1 -10 4 -10 6 0 11 5 11 10 0 6 -2 10 -4 10 -3 0
-8 -4 -11 -10z"/>
<path d="M1121 2124 c0 -11 3 -14 6 -6 3 7 2 16 -1 19 -3 4 -6 -2 -5 -13z"/>
<path d="M1123 2075 c-3 -9 -3 -18 -1 -21 3 -3 8 4 11 16 6 23 -1 27 -10 5z"/>
<path d="M2061 2045 c1 -19 18 -51 18 -35 0 8 -4 22 -9 30 -5 8 -9 11 -9 5z"/>
<path d="M1936 1985 c-3 -9 -6 -24 -5 -33 0 -9 5 -4 10 12 9 32 6 48 -5 21z"/>
<path d="M1061 1884 c0 -11 3 -14 6 -6 3 7 2 16 -1 19 -3 4 -6 -2 -5 -13z"/>
<path d="M1841 1824 c0 -11 3 -14 6 -6 3 7 2 16 -1 19 -3 4 -6 -2 -5 -13z"/>
<path d="M1991 1804 c0 -11 3 -14 6 -6 3 7 2 16 -1 19 -3 4 -6 -2 -5 -13z"/>
<path d="M970 1664 c0 -8 5 -12 10 -9 6 4 8 11 5 16 -9 14 -15 11 -15 -7z"/>
<path d="M991 1634 c0 -11 3 -14 6 -6 3 7 2 16 -1 19 -3 4 -6 -2 -5 -13z"/>
<path d="M970 1585 c0 -8 2 -15 4 -15 2 0 6 7 10 15 3 8 1 15 -4 15 -6 0 -10
-7 -10 -15z"/>
<path d="M1760 1590 c0 -12 8 -12 35 0 18 8 17 9 -7 9 -16 1 -28 -3 -28 -9z"/>
<path d="M1891 1584 c0 -11 6 -29 14 -40 8 -10 15 -14 15 -8 0 5 -4 14 -9 20
-5 5 -11 18 -14 29 -5 20 -5 19 -6 -1z"/>
<path d="M1878 1523 c7 -3 16 -2 19 1 4 3 -2 6 -13 5 -11 0 -14 -3 -6 -6z"/>
<path d="M123 1513 c9 -2 23 -2 30 0 6 3 -1 5 -18 5 -16 0 -22 -2 -12 -5z"/>
<path d="M2168 1513 c7 -3 16 -2 19 1 4 3 -2 6 -13 5 -11 0 -14 -3 -6 -6z"/>
<path d="M2235 1510 c3 -5 8 -10 11 -10 2 0 4 5 4 10 0 6 -5 10 -11 10 -5 0
-7 -4 -4 -10z"/>
<path d="M2458 1513 c7 -3 16 -2 19 1 4 3 -2 6 -13 5 -11 0 -14 -3 -6 -6z"/>
<path d="M1978 1503 c7 -3 16 -2 19 1 4 3 -2 6 -13 5 -11 0 -14 -3 -6 -6z"/>
<path d="M250 1489 c0 -5 5 -7 10 -4 6 3 10 8 10 11 0 2 -4 4 -10 4 -5 0 -10
-5 -10 -11z"/>
<path d="M2160 1490 c0 -5 5 -10 10 -10 6 0 10 5 10 10 0 6 -4 10 -10 10 -5 0
-10 -4 -10 -10z"/>
<path d="M2295 1490 c3 -5 8 -10 11 -10 2 0 4 5 4 10 0 6 -5 10 -11 10 -5 0
-7 -4 -4 -10z"/>
<path d="M100 1085 l0 -375 190 0 190 0 0 85 0 85 -85 0 -85 0 0 290 0 290
-105 0 -105 0 0 -375z m162 108 l3 -238 2 238 c2 143 7 237 13 237 13 0 11
-501 -2 -517 -7 -9 -7 -13 1 -13 6 0 11 -9 11 -20 0 -18 7 -20 85 -20 l85 0 0
-65 0 -65 -160 0 -160 0 0 350 0 350 60 0 60 0 2 -237z"/>
<path d="M432 770 c0 -19 2 -27 5 -17 2 9 2 25 0 35 -3 9 -5 1 -5 -18z"/>
<path d="M1792 1451 c-8 -4 -13 -11 -13 -15 2 -9 -9 -54 -27 -114 -12 -39 -20
-51 -31 -47 -9 2 -20 1 -26 -3 -17 -12 -13 -38 6 -38 14 0 15 4 8 18 -10 19 5
26 16 8 16 -26 34 8 75 135 7 22 15 46 17 53 6 14 -6 16 -25 3z"/>
<path d="M1970 1271 c1 -148 4 -191 15 -195 11 -4 13 27 9 175 l-4 179 80 0
80 0 0 -249 c0 -162 -4 -260 -12 -282 -13 -38 -43 -81 -51 -73 -2 3 -14 -6
-25 -20 -11 -15 -25 -26 -31 -26 -6 0 -20 -9 -32 -21 -15 -15 -29 -20 -49 -16
-15 3 -32 1 -37 -4 -13 -13 -125 9 -117 23 3 4 -1 8 -8 8 -7 1 -2 7 12 15 30
17 21 20 -14 4 -14 -7 -23 -16 -19 -22 3 -6 1 -7 -5 -3 -7 4 -12 14 -12 23 0
9 -6 13 -15 9 -9 -3 -15 0 -15 9 0 8 -4 15 -10 15 -13 0 -40 54 -40 82 0 19
-2 20 -10 8 -9 -13 -10 -13 -11 0 -11 122 -7 176 11 165 9 -5 15 24 11 48 -1
5 3 6 8 3 5 -4 14 1 19 10 5 9 12 16 15 15 15 -1 37 12 37 22 0 7 -4 7 -12 -1
-17 -17 -33 -15 -18 3 7 8 16 15 21 15 5 0 33 11 63 25 63 29 88 31 107 9 10
-13 10 -17 -2 -25 -11 -7 -10 -9 4 -9 16 0 18 -6 15 -44 -4 -37 -2 -43 11 -38
14 5 14 4 2 -12 -10 -12 -16 -14 -21 -5 -10 15 -77 -6 -108 -35 -22 -19 -23
-27 -19 -96 3 -41 3 -70 0 -63 -2 7 -12 9 -20 6 -14 -6 -14 -7 3 -13 29 -11
46 -1 38 22 -6 19 -5 19 13 1 11 -10 16 -20 12 -23 -4 -3 16 -5 46 -5 29 0 51
3 48 8 -7 12 12 8 26 -5 21 -22 39 15 35 75 -5 79 -17 113 -39 109 -16 -3 -17
-1 -6 12 11 13 11 30 0 96 l-13 80 -55 0 c-98 -1 -198 -65 -243 -158 -31 -65
-31 -169 0 -229 52 -99 129 -152 236 -160 84 -7 164 24 227 87 73 73 79 104
79 407 l0 253 -105 0 -106 0 1 -189z m-49 -211 c21 0 49 -42 49 -72 0 -91
-135 -107 -155 -18 -10 46 45 109 83 95 8 -3 18 -5 23 -5z m66 -129 c0 -11 -5
-18 -9 -15 -4 3 -5 11 -1 19 7 21 12 19 10 -4z m-12 -31 c3 -5 1 -10 -4 -10
-6 0 -11 5 -11 10 0 6 2 10 4 10 3 0 8 -4 11 -10z"/>
<path d="M2248 1438 c-4 -72 20 -111 80 -128 79 -21 155 59 126 134 -5 13 -24
16 -105 16 -96 0 -99 -1 -101 -22z m153 -20 c0 -10 2 -10 6 0 2 6 9 12 14 12
6 0 7 -4 4 -10 -3 -5 0 -10 7 -10 9 0 10 -2 2 -8 -7 -4 -14 -18 -16 -32 -2
-14 -9 -24 -16 -22 -7 1 -22 -3 -33 -9 -31 -16 -67 -3 -84 31 -18 34 -19 44
-5 35 6 -3 10 -2 10 4 0 5 -6 12 -12 14 -7 3 17 6 55 6 47 1 67 -3 68 -11z"/>
<path d="M2307 1401 c-4 -17 -3 -21 5 -13 5 5 8 16 6 23 -3 8 -7 3 -11 -10z"/>
<path d="M2330 1350 c-13 -8 -13 -10 2 -10 9 0 20 5 23 10 8 13 -5 13 -25 0z"/>
<path d="M1928 1398 c5 -95 9 -104 11 -25 0 42 -2 77 -6 77 -5 0 -7 -24 -5
-52z"/>
<path d="M1011 1394 c0 -11 3 -14 6 -6 3 7 2 16 -1 19 -3 4 -6 -2 -5 -13z"/>
<path d="M881 1374 c0 -11 3 -14 6 -6 3 7 2 16 -1 19 -3 4 -6 -2 -5 -13z"/>
<path d="M1820 1365 c0 -8 4 -15 10 -15 5 0 7 7 4 15 -4 8 -8 15 -10 15 -2 0
-4 -7 -4 -15z"/>
<path d="M1816 1325 c-9 -26 -7 -32 5 -12 6 10 9 21 6 23 -2 3 -7 -2 -11 -11z"/>
<path d="M567 1269 c7 -7 15 -10 18 -7 3 3 -2 9 -12 12 -14 6 -15 5 -6 -5z"/>
<path d="M1150 1271 c-8 -6 -18 -7 -24 -4 -5 3 -6 1 -2 -5 6 -11 35 -3 55 14
9 8 -15 3 -29 -5z"/>
<path d="M1494 1265 c-18 -15 -18 -15 0 -8 13 4 17 3 12 -5 -3 -6 -3 -13 2
-16 4 -2 8 6 8 20 0 13 0 24 -1 24 -1 0 -10 -7 -21 -15z"/>
<path d="M688 1250 c-86 -22 -177 -104 -198 -179 -16 -58 -12 -151 9 -197 43
-94 123 -151 231 -163 l59 -7 16 70 c9 39 18 86 19 104 2 18 6 36 10 40 4 4 6
-42 4 -101 l-3 -107 104 0 104 0 -5 163 c-7 190 -24 254 -85 308 -72 62 -179
90 -265 69z m119 -32 c-16 -12 -15 -13 8 -14 14 -1 22 2 19 7 -9 14 28 -2 75
-35 28 -18 40 -31 31 -34 -7 -3 -19 3 -25 12 -17 23 -28 20 -15 -4 7 -13 21
-20 40 -20 26 0 30 -3 30 -29 0 -17 5 -33 12 -37 8 -5 9 -2 5 10 -4 10 -3 15
4 11 5 -4 7 -15 4 -26 -4 -10 -3 -19 2 -19 4 0 8 -70 8 -155 0 -141 -1 -155
-17 -155 -14 0 -18 9 -20 38 l-1 37 -4 -37 c-4 -37 -5 -38 -47 -38 -44 0 -56
12 -56 60 0 13 1 13 10 0 13 -20 12 -15 -4 45 -13 49 -13 68 -2 172 3 32 1 55
-6 59 -6 4 -8 -1 -3 -15 4 -12 2 -21 -4 -21 -6 0 -11 7 -11 15 0 20 -39 39
-80 38 -26 -1 -28 0 -8 4 14 2 32 11 40 20 12 15 11 15 -10 4 -12 -6 -26 -9
-31 -6 -12 7 -91 -69 -91 -87 0 -10 -3 -9 -10 2 -5 8 -10 10 -10 5 0 -6 6 -17
12 -23 10 -10 10 -17 0 -33 -8 -12 -11 -24 -8 -27 3 -3 6 1 6 9 0 12 2 12 9 0
10 -15 3 -44 -8 -37 -4 3 -7 -4 -7 -14 0 -19 1 -18 19 0 22 25 31 26 18 2 -9
-17 -4 -18 55 -17 51 1 64 -2 64 -15 -1 -21 -27 -131 -34 -137 -2 -3 -12 8
-21 24 l-16 28 6 -30 c5 -23 4 -27 -6 -18 -6 7 -24 10 -38 7 -15 -3 -34 1 -46
10 -19 14 -18 15 15 6 46 -13 51 -11 15 5 -30 14 -30 14 -5 15 15 0 31 -5 38
-12 7 -7 12 -8 12 -2 0 19 -49 35 -70 24 -13 -7 -21 -7 -25 0 -3 5 -12 10 -18
10 -7 0 -6 -4 3 -10 8 -5 11 -10 5 -10 -19 0 -75 67 -81 98 -4 18 -10 29 -14
27 -13 -8 -22 72 -15 128 6 37 10 46 15 32 5 -15 8 -11 13 19 4 25 18 50 42
73 20 19 39 33 42 30 3 -4 12 1 20 9 10 10 26 13 47 9 26 -4 28 -4 9 5 -13 5
-23 11 -23 12 0 2 35 4 78 6 65 3 74 1 59 -10z m1 -178 c26 -25 29 -75 6 -108
-21 -30 -79 -30 -111 0 -29 27 -30 67 -2 102 26 33 75 35 107 6z"/>
<path d="M600 1160 c-8 -5 -11 -12 -8 -15 4 -4 17 0 30 9 24 17 5 23 -22 6z"/>
<path d="M820 1100 c6 -11 15 -20 20 -20 17 0 11 15 -11 28 -19 12 -19 11 -9
-8z"/>
<path d="M650 1095 c-20 -24 -6 -28 15 -5 10 11 13 20 8 20 -6 0 -16 -7 -23
-15z"/>
<path d="M541 1084 c0 -11 3 -14 6 -6 3 7 2 16 -1 19 -3 4 -6 -2 -5 -13z"/>
<path d="M681 1084 c-7 -8 -11 -17 -9 -20 3 -2 13 5 23 16 10 11 14 20 9 20
-5 -1 -15 -8 -23 -16z"/>
<path d="M975 1000 c-4 -17 -5 -34 -2 -36 3 -3 8 9 12 26 4 17 5 34 2 36 -3 3
-8 -9 -12 -26z"/>
<path d="M545 921 c-4 -22 -3 -47 2 -55 6 -11 9 3 9 39 1 30 0 55 -2 55 -1 0
-5 -18 -9 -39z"/>
<path d="M865 939 c-4 -6 -5 -12 -2 -15 2 -3 7 2 10 11 7 17 1 20 -8 4z"/>
<path d="M867 898 c-2 -7 -1 -22 3 -33 6 -16 8 -13 7 13 0 35 -2 39 -10 20z"/>
<path d="M962 840 c0 -19 2 -27 5 -17 2 9 2 25 0 35 -3 9 -5 1 -5 -18z"/>
<path d="M982 770 c0 -19 2 -27 5 -17 2 9 2 25 0 35 -3 9 -5 1 -5 -18z"/>
<path d="M1238 1251 c-54 -18 -97 -52 -117 -95 -19 -38 -21 -60 -21 -244 l0
-202 98 0 97 0 -3 162 c-4 201 -2 210 41 206 l32 -3 3 -182 2 -183 98 0 97 0
-3 207 c-3 206 -3 208 -30 252 -38 62 -85 84 -186 88 -45 1 -93 -2 -108 -6z
m172 -25 c19 -6 34 -18 32 -24 -2 -10 3 -10 19 -1 12 6 19 7 16 2 -7 -10 13
-38 32 -44 20 -7 23 -31 25 -244 1 -104 -1 -172 -4 -150 l-6 40 -5 -34 c-4
-32 -6 -34 -47 -35 l-42 -1 -2 75 -2 75 -3 -78 c-3 -56 -7 -77 -16 -74 -9 3
-13 50 -14 168 -2 110 0 159 7 149 9 -13 10 -13 10 0 0 17 -34 50 -51 50 -5 0
-8 3 -6 8 3 4 -12 7 -34 7 -21 1 -33 -2 -27 -6 9 -6 8 -10 -5 -15 -15 -5 -17
-25 -17 -185 l0 -179 -75 0 -75 0 0 174 c0 95 3 187 6 204 5 27 9 30 25 21 15
-7 17 -6 13 6 -4 8 -10 15 -16 15 -5 0 -6 5 -3 11 4 6 17 -1 32 -18 20 -22 23
-24 14 -6 -6 13 -9 34 -5 48 5 19 13 25 35 25 16 0 29 4 29 10 0 5 7 7 15 4 8
-4 15 -1 15 5 0 15 86 13 130 -3z"/>
<path d="M1328 1223 c12 -2 30 -2 40 0 9 3 -1 5 -23 4 -22 0 -30 -2 -17 -4z"/>
<path d="M1440 1160 c0 -5 5 -10 10 -10 6 0 10 5 10 10 0 6 -4 10 -10 10 -5 0
-10 -4 -10 -10z"/>
<path d="M1407 1113 c-4 -3 -7 -11 -7 -17 0 -6 5 -5 12 2 6 6 9 14 7 17 -3 3
-9 2 -12 -2z"/>
<path d="M1420 1074 c0 -8 5 -12 10 -9 6 4 8 11 5 16 -9 14 -15 11 -15 -7z"/>
<path d="M1420 1039 c0 -5 5 -7 10 -4 6 3 10 8 10 11 0 2 -4 4 -10 4 -5 0 -10
-5 -10 -11z"/>
<path d="M1422 990 c0 -19 2 -27 5 -17 2 9 2 25 0 35 -3 9 -5 1 -5 -18z"/>
<path d="M2250 985 l0 -275 105 0 105 0 0 275 0 275 -105 0 -105 0 0 -275z
m172 249 c4 6 7 -106 6 -249 l-3 -260 -2 243 c-2 133 -7 242 -11 242 -4 0 -6
-108 -4 -240 l3 -240 -56 0 -56 0 3 245 c2 191 0 245 -9 245 -7 0 -13 3 -13 8
0 4 30 5 68 2 43 -4 70 -2 74 4z m-130 -181 c-4 -299 -8 -327 -10 -85 -1 133
1 242 6 242 4 0 6 -71 4 -157z"/>
<path d="M1826 1208 c3 -4 11 -5 19 -1 21 7 19 12 -4 10 -11 0 -18 -5 -15 -9z"/>
<path d="M493 1194 c3 -4 2 -16 -4 -28 -10 -20 -10 -20 5 -2 19 24 20 36 4 36
-6 0 -8 -3 -5 -6z"/>
<path d="M992 1175 c11 -13 26 -21 31 -18 7 4 8 -1 3 -12 -7 -18 -6 -18 14 0
21 19 27 30 9 20 -6 -4 -16 1 -23 11 -7 9 -23 19 -34 21 l-22 3 22 -25z m28
-6 c0 -6 -4 -7 -10 -4 -5 3 -10 11 -10 16 0 6 5 7 10 4 6 -3 10 -11 10 -16z"/>
<path d="M1060 1189 c0 -5 5 -7 10 -4 6 3 10 8 10 11 0 2 -4 4 -10 4 -5 0 -10
-5 -10 -11z"/>
<path d="M1095 1189 c-4 -6 -5 -12 -2 -15 2 -3 7 2 10 11 7 17 1 20 -8 4z"/>
<path d="M1596 1191 c-4 -6 -2 -11 5 -11 7 0 9 -10 7 -25 -3 -14 -1 -25 3 -25
11 0 11 41 0 59 -6 9 -11 10 -15 2z"/>
<path d="M1630 1190 c0 -13 18 -22 24 -11 3 5 -1 11 -9 15 -8 3 -15 1 -15 -4z"/>
<path d="M1581 1154 c0 -11 3 -14 6 -6 3 7 2 16 -1 19 -3 4 -6 -2 -5 -13z"/>
<path d="M1070 1149 c0 -5 5 -7 10 -4 6 3 10 8 10 11 0 2 -4 4 -10 4 -5 0 -10
-5 -10 -11z"/>
<path d="M1721 1131 c-10 -7 -7 -9 12 -8 14 1 23 5 20 10 -6 9 -15 9 -32 -2z"/>
<path d="M1581 1114 c0 -11 3 -14 6 -6 3 7 2 16 -1 19 -3 4 -6 -2 -5 -13z"/>
<path d="M1863 1113 c-13 -2 -23 -8 -23 -13 0 -5 15 -4 33 2 52 18 47 22 -10
11z"/>
<path d="M1057 990 c6 -116 11 -131 11 -35 0 44 -3 89 -7 100 -4 11 -6 -18 -4
-65z"/>
<path d="M1320 1056 c0 -2 7 -7 16 -10 8 -3 12 -2 9 4 -6 10 -25 14 -25 6z"/>
<path d="M1651 1024 c0 -11 3 -14 6 -6 3 7 2 16 -1 19 -3 4 -6 -2 -5 -13z"/>
<path d="M1671 1024 c0 -11 3 -14 6 -6 3 7 2 16 -1 19 -3 4 -6 -2 -5 -13z"/>
<path d="M1342 878 c-1 -87 -6 -158 -11 -158 -5 0 -12 -8 -15 -17 -6 -15 -3
-15 14 3 19 19 20 29 17 175 l-3 154 -2 -157z"/>
<path d="M1771 1018 c0 -9 -4 -25 -7 -35 -5 -17 -5 -17 6 0 6 10 9 25 7 35 -4
15 -5 15 -6 0z"/>
<path d="M422 1000 c0 -14 2 -19 5 -12 2 6 2 18 0 25 -3 6 -5 1 -5 -13z"/>
<path d="M401 974 c0 -11 3 -14 6 -6 3 7 2 16 -1 19 -3 4 -6 -2 -5 -13z"/>
<path d="M431 944 c0 -11 3 -14 6 -6 3 7 2 16 -1 19 -3 4 -6 -2 -5 -13z"/>
<path d="M1775 949 c-4 -6 -5 -12 -2 -15 2 -3 7 2 10 11 7 17 1 20 -8 4z"/>
<path d="M2208 933 c5 -21 7 -23 10 -9 2 10 0 22 -6 28 -6 6 -7 0 -4 -19z"/>
<path d="M348 913 c6 -2 18 -2 25 0 6 3 1 5 -13 5 -14 0 -19 -2 -12 -5z"/>
<path d="M1591 836 c-1 -74 6 -103 11 -43 2 19 6 23 14 16 8 -7 15 -6 20 2 4
8 3 9 -4 5 -12 -7 -16 5 -13 32 1 6 -3 12 -8 12 -5 0 -12 12 -14 28 -2 15 -5
-9 -6 -52z"/>
<path d="M2106 865 c-3 -9 -11 -13 -17 -9 -8 5 -9 3 -4 -5 6 -10 11 -9 23 3 9
8 13 18 10 21 -3 3 -8 -1 -12 -10z"/>
<path d="M2015 800 c-3 -5 -1 -10 4 -10 6 0 11 5 11 10 0 6 -2 10 -4 10 -3 0
-8 -4 -11 -10z"/>
<path d="M2149 803 c-1 -5 -2 -14 -3 -21 0 -7 -8 -17 -16 -22 -8 -5 -10 -10
-4 -10 16 0 31 21 31 43 0 17 -6 24 -8 10z"/>
<path d="M1940 784 l-25 -15 25 6 c14 4 34 7 45 6 16 0 17 2 5 9 -19 12 -20
12 -50 -6z"/>
<path d="M1810 776 c0 -2 7 -6 15 -10 8 -3 15 -1 15 4 0 6 -7 10 -15 10 -8 0
-15 -2 -15 -4z"/>
<path d="M1955 760 c-7 -12 2 -12 30 0 19 8 19 9 -2 9 -12 1 -25 -3 -28 -9z"/>
<path d="M510 745 c7 -8 17 -15 22 -15 5 0 3 7 -6 15 -8 8 -18 15 -22 15 -3 0
-1 -7 6 -15z"/>
<path d="M1692 737 c-8 -10 -6 -13 8 -14 11 -1 22 2 25 8 4 5 -2 6 -11 2 -12
-4 -15 -3 -10 5 10 16 1 15 -12 -1z"/>
<path d="M2090 730 c-12 -8 -10 -10 8 -10 13 0 20 4 17 10 -7 12 -6 12 -25 0z"/>
<path d="M1070 700 c0 -5 5 -10 11 -10 5 0 7 5 4 10 -3 6 -8 10 -11 10 -2 0
-4 -4 -4 -10z"/>
<path d="M84 675 c1 -12 9 -21 21 -22 14 -1 15 0 3 3 -9 3 -19 13 -21 22 -3
12 -4 11 -3 -3z"/>
<path d="M1344 684 c-18 -14 -18 -15 4 -4 12 6 22 13 22 15 0 8 -5 6 -26 -11z"/>
<path d="M2465 691 c-3 -5 -1 -12 5 -16 5 -3 10 1 10 9 0 18 -6 21 -15 7z"/>
<path d="M668 683 c6 -2 18 -2 25 0 6 3 1 5 -13 5 -14 0 -19 -2 -12 -5z"/>
<path d="M720 680 c0 -5 5 -10 10 -10 6 0 10 -7 10 -17 0 -9 3 -14 6 -10 8 8
-5 47 -17 47 -5 0 -9 -4 -9 -10z"/>
<path d="M797 679 c7 -7 15 -10 18 -7 3 3 -2 9 -12 12 -14 6 -15 5 -6 -5z"/>
<path d="M885 680 c28 -12 75 -12 75 0 0 6 -21 10 -47 9 -36 0 -43 -3 -28 -9z"/>
<path d="M970 680 c0 -5 12 -10 28 -9 24 0 25 1 7 9 -27 12 -35 12 -35 0z"/>
<path d="M1057 679 c6 -6 9 -18 6 -25 -3 -8 0 -14 7 -14 6 0 8 5 5 10 -3 6 -2
10 4 10 5 0 12 -6 14 -12 4 -9 6 -8 6 2 1 8 -11 21 -26 28 -17 7 -23 8 -16 1z"/>
<path d="M1105 681 c4 -3 46 -9 93 -12 l87 -6 -82 -1 c-111 -3 -113 -17 -3
-17 48 0 86 3 84 7 -2 4 6 9 18 11 l23 4 -22 2 c-13 0 -23 6 -23 11 0 7 -33
10 -90 9 -50 -1 -88 -4 -85 -8z"/>
<path d="M1928 683 c7 -3 16 -2 19 1 4 3 -2 6 -13 5 -11 0 -14 -3 -6 -6z"/>
<path d="M2430 679 c0 -5 5 -7 10 -4 6 3 10 8 10 11 0 2 -4 4 -10 4 -5 0 -10
-5 -10 -11z"/>
<path d="M765 670 c3 -5 8 -10 11 -10 2 0 4 5 4 10 0 6 -5 10 -11 10 -5 0 -7
-4 -4 -10z"/>
<path d="M1420 671 c0 -5 -8 -11 -17 -13 -12 -2 -14 -6 -7 -10 6 -4 19 1 29
12 10 12 13 20 7 20 -7 0 -12 -4 -12 -9z"/>
<path d="M1538 673 c-22 -6 -23 -19 -3 -27 9 -3 15 0 15 9 0 7 8 16 18 18 11
3 12 5 2 5 -8 0 -23 -2 -32 -5z"/>
<path d="M1775 667 c11 -9 34 -16 50 -16 l30 1 -30 8 c-16 4 -39 11 -50 15
l-20 8 20 -16z"/>
<path d="M1888 673 c7 -3 16 -2 19 1 4 3 -2 6 -13 5 -11 0 -14 -3 -6 -6z"/>
<path d="M1982 665 c-11 -12 -10 -15 3 -15 8 0 15 7 15 15 0 18 -2 18 -18 0z"/>
<path d="M871 659 c8 -5 34 -8 59 -8 53 1 44 6 -24 12 -30 3 -43 1 -35 -4z"/>
<path d="M1352 661 c-11 -6 -10 -10 4 -15 9 -3 19 -4 22 -1 3 3 0 5 -7 5 -7 0
-9 5 -6 10 7 12 4 12 -13 1z"/>
<path d="M1928 663 c7 -3 16 -2 19 1 4 3 -2 6 -13 5 -11 0 -14 -3 -6 -6z"/>
<path d="M2240 660 c0 -5 5 -10 11 -10 5 0 7 5 4 10 -3 6 -8 10 -11 10 -2 0
-4 -4 -4 -10z"/>
<path d="M800 650 c-13 -8 -13 -10 2 -10 9 0 20 5 23 10 8 13 -5 13 -25 0z"/>
<path d="M995 650 c-16 -7 -17 -9 -3 -9 9 -1 20 4 23 9 7 11 7 11 -20 0z"/>
<path d="M2443 653 c9 -2 23 -2 30 0 6 3 -1 5 -18 5 -16 0 -22 -2 -12 -5z"/>
<path d="M708 625 c2 -14 6 -25 7 -25 1 0 5 11 7 25 3 16 1 25 -7 25 -8 0 -10
-9 -7 -25z"/>
<path d="M1308 643 c7 -3 16 -2 19 1 4 3 -2 6 -13 5 -11 0 -14 -3 -6 -6z"/>
<path d="M1878 643 c7 -3 16 -2 19 1 4 3 -2 6 -13 5 -11 0 -14 -3 -6 -6z"/>
<path d="M1522 604 c-1 -14 -7 -34 -12 -45 -6 -11 -8 -25 -4 -31 7 -10 33 65
34 95 0 20 -16 3 -18 -19z"/>
<path d="M691 555 c1 -40 1 -40 10 -10 5 18 5 33 -1 39 -7 7 -10 -4 -9 -29z"/>
<path d="M660 495 c0 -8 5 -15 10 -15 6 0 10 7 10 15 0 8 -4 15 -10 15 -5 0
-10 -7 -10 -15z"/>
<path d="M1470 496 c0 -9 5 -16 10 -16 6 0 10 4 10 9 0 6 -4 13 -10 16 -5 3
-10 -1 -10 -9z"/>
<path d="M675 460 c3 -5 8 -10 11 -10 2 0 4 5 4 10 0 6 -5 10 -11 10 -5 0 -7
-4 -4 -10z"/>
<path d="M641 414 c0 -11 3 -14 6 -6 3 7 2 16 -1 19 -3 4 -6 -2 -5 -13z"/>
<path d="M1441 384 c0 -11 3 -14 6 -6 3 7 2 16 -1 19 -3 4 -6 -2 -5 -13z"/>
</g>
</svg>
