<?xml version="1.0" standalone="no"?>
<!DOCTYPE svg PUBLIC "-//W3C//DTD SVG 20010904//EN"
 "http://www.w3.org/TR/2001/REC-SVG-20010904/DTD/svg10.dtd">
<svg version="1.0" xmlns="http://www.w3.org/2000/svg"
 width="192.000000pt" height="192.000000pt" viewBox="0 0 192.000000 192.000000"
 preserveAspectRatio="xMidYMid meet">
<metadata>
Created by potrace 1.16, written by Peter Selinger 2001-2019
</metadata>
<g transform="translate(0.000000,192.000000) scale(0.100000,-0.100000)"
fill="#000000" stroke="none">
<path d="M610 1893 c-271 -95 -490 -315 -585 -588 -14 -42 -25 -94 -24 -122
l0 -48 15 55 c49 189 141 348 271 471 132 124 262 196 443 243 l55 15 -50 0
c-29 0 -81 -10 -125 -26z"/>
<path d="M1190 1904 c364 -95 619 -350 714 -714 l15 -55 0 48 c2 121 -102 325
-238 470 -137 145 -367 268 -498 266 l-48 0 55 -15z"/>
<path d="M465 1575 l-25 -24 0 -499 c0 -490 0 -500 21 -526 l20 -26 224 0
c220 0 224 0 239 22 9 12 16 38 16 56 l0 34 37 -32 c65 -57 136 -84 239 -88
101 -5 175 11 256 55 74 40 103 76 103 128 0 90 -63 104 -163 38 -116 -77
-230 -79 -316 -4 -23 21 -56 84 -56 110 0 19 8 20 261 23 245 3 262 4 275 22
31 43 9 217 -38 295 -34 57 -99 120 -153 149 -45 25 -60 27 -160 27 -95 0
-116 -3 -152 -23 -90 -48 -158 -127 -195 -230 -33 -88 -30 -252 5 -350 20 -58
22 -72 10 -68 -8 3 -77 6 -154 6 l-139 0 0 440 0 441 -25 24 c-18 19 -35 25
-65 25 -30 0 -47 -6 -65 -25z m116 -22 c11 -13 14 -99 14 -465 l0 -448 156 0
c173 0 183 -3 181 -63 -1 -53 -16 -57 -227 -57 -156 0 -195 3 -213 16 l-22 15
0 498 c0 373 3 500 12 509 18 18 83 15 99 -5z m805 -268 c99 -49 174 -159 195
-286 14 -85 6 -115 -34 -129 -21 -7 -119 -10 -277 -9 l-245 1 3 -33 c13 -122
103 -198 233 -199 80 0 135 18 199 65 68 50 110 44 110 -16 0 -81 -159 -163
-315 -162 -231 2 -368 170 -353 433 11 178 117 319 273 361 52 14 155 1 211
-26z"/>
<path d="M1155 1186 c-66 -30 -125 -119 -125 -191 l0 -35 216 0 216 0 -7 47
c-12 79 -57 147 -117 179 -34 18 -143 18 -183 0z m153 -21 c64 -27 102 -73
117 -142 l7 -33 -186 0 c-181 0 -186 1 -186 20 0 28 33 90 62 117 53 50 122
64 186 38z"/>
<path d="M1 737 c-2 -130 122 -362 266 -498 146 -137 348 -240 470 -238 l48 0
-55 15 c-364 95 -619 350 -714 714 l-15 55 0 -48z"/>
<path d="M1912 763 c-1 -12 -15 -62 -32 -110 -108 -323 -353 -549 -690 -637
l-55 -15 48 0 c122 -2 324 101 470 238 147 139 274 379 264 499 -2 26 -4 37
-5 25z"/>
</g>
</svg>
