<?xml version="1.0" standalone="no"?>
<!DOCTYPE svg PUBLIC "-//W3C//DTD SVG 20010904//EN"
 "http://www.w3.org/TR/2001/REC-SVG-20010904/DTD/svg10.dtd">
<svg version="1.0" xmlns="http://www.w3.org/2000/svg"
 width="100.000000pt" height="100.000000pt" viewBox="0 0 100.000000 100.000000"
 preserveAspectRatio="xMidYMid meet">
<metadata>
Created by potrace 1.16, written by Peter Selinger 2001-2019
</metadata>
<g transform="translate(0.000000,100.000000) scale(0.100000,-0.100000)"
fill="#000000" stroke="none">
<path d="M370 790 c0 -11 5 -20 10 -20 6 0 10 5 10 10 0 6 7 10 15 10 8 0 15
5 15 10 0 6 -11 10 -25 10 -18 0 -25 -5 -25 -20z"/>
<path d="M440 750 l0 -60 -65 0 c-64 0 -65 0 -65 -27 1 -24 2 -26 13 -12 7 8
20 18 30 22 13 5 17 1 17 -18 0 -24 -3 -25 -60 -25 l-60 0 0 -65 0 -65 -30 0
c-27 0 -30 -3 -30 -30 0 -25 -4 -30 -25 -30 -19 0 -23 4 -18 18 4 9 14 22 22
29 14 11 12 12 -11 13 -24 0 -28 -4 -28 -30 0 -28 -3 -30 -35 -30 -32 0 -35
-2 -35 -30 0 -27 -3 -30 -30 -30 -17 0 -30 -5 -30 -11 0 -7 12 -10 30 -7 24 4
30 1 30 -14 0 -10 5 -18 11 -18 7 0 9 10 5 25 -5 20 -3 25 14 25 11 0 20 5 20
10 0 6 -7 10 -15 10 -25 0 -17 17 10 22 24 5 25 4 25 -53 l0 -59 -65 0 c-41 0
-65 -4 -65 -11 0 -7 12 -10 30 -7 20 3 30 0 30 -9 0 -8 -12 -13 -30 -13 -17 0
-30 -4 -30 -10 0 -7 148 -10 425 -10 306 0 425 3 425 11 0 6 -9 9 -20 6 -13
-3 -20 0 -20 9 0 8 -4 14 -10 14 -5 0 -10 -4 -10 -9 0 -5 -9 -11 -20 -14 -16
-4 -20 0 -20 19 0 17 6 24 20 24 11 0 20 5 20 10 0 6 -4 10 -10 10 -5 0 -10 7
-10 15 0 8 5 15 10 15 6 0 10 5 10 10 0 6 -9 10 -20 10 -19 0 -20 7 -20 125
l0 125 -30 0 c-27 0 -30 3 -30 30 l0 30 -65 0 -65 0 0 30 c0 29 -1 30 -50 30
-43 0 -50 3 -50 20 0 25 9 25 26 3 13 -17 13 -17 14 0 0 9 7 17 16 17 9 0 23
-8 30 -17 12 -16 13 -15 14 10 0 26 -1 27 -60 27 l-60 0 0 -60z m100 -30 c0
-5 -18 -10 -40 -10 -22 0 -40 5 -40 10 0 6 18 10 40 10 22 0 40 -4 40 -10z
m20 -55 c0 -31 -13 -32 -40 -3 l-20 22 0 -62 0 -62 -30 0 -30 0 0 65 0 65 60
0 c57 0 60 -1 60 -25z m110 -16 c0 -11 -7 -19 -15 -19 -8 0 -15 -4 -15 -10 0
-5 7 -10 15 -10 8 0 15 -7 15 -15 0 -8 5 -15 10 -15 6 0 10 7 10 15 0 26 37
17 42 -10 5 -24 4 -25 -53 -25 -58 0 -58 0 -62 33 -4 29 -5 30 -12 10 -8 -26
-25 -31 -25 -9 0 8 -4 18 -10 21 -6 4 -10 -7 -10 -24 0 -28 3 -31 30 -31 27 0
30 -3 30 -30 l0 -30 61 0 c52 0 60 -2 55 -16 -3 -9 -6 -20 -6 -25 0 -18 -18
-9 -26 14 -6 17 -9 8 -11 -35 l-4 -58 -34 0 c-32 0 -35 2 -35 30 0 27 -3 30
-30 30 -30 0 -30 0 -30 56 0 36 -4 53 -10 49 -6 -4 -8 -15 -5 -26 6 -18 0 -19
-84 -19 l-91 0 0 30 c0 28 3 30 35 30 31 0 35 -3 35 -27 1 -24 2 -26 13 -12
19 25 47 31 47 11 1 -14 2 -14 12 3 6 11 16 23 22 27 8 6 8 8 0 8 -7 0 -14 14
-16 30 l-5 30 54 0 c49 0 53 2 53 24 0 19 4 22 25 18 16 -3 25 -11 25 -23z
m-250 11 c0 -5 -7 -10 -15 -10 -8 0 -15 5 -15 10 0 6 7 10 15 10 8 0 15 -4 15
-10z m180 0 c0 -5 -4 -10 -10 -10 -5 0 -10 5 -10 10 0 6 5 10 10 10 6 0 10 -4
10 -10z m-180 -54 c0 -17 -7 -25 -25 -28 -22 -5 -25 -2 -25 23 0 24 4 29 25
29 20 0 25 -5 25 -24z m-110 -16 c0 -25 -4 -30 -24 -30 -19 0 -22 4 -19 24 3
14 13 27 22 29 9 3 17 5 19 6 1 0 2 -12 2 -29z m40 5 c0 -8 -4 -15 -10 -15 -5
0 -10 7 -10 15 0 8 5 15 10 15 6 0 10 -7 10 -15z m3 -54 c-3 -11 -13 -21 -24
-24 -15 -4 -19 0 -19 19 0 19 5 24 24 24 19 0 23 -4 19 -19z m-63 -41 c0 -22
-2 -40 -4 -40 -2 0 -11 -3 -20 -6 -12 -4 -16 0 -16 15 0 12 5 21 10 21 6 0 10
11 10 25 0 14 5 25 10 25 6 0 10 -18 10 -40z m400 30 c0 -5 -11 -10 -25 -10
-14 0 -25 5 -25 10 0 6 11 10 25 10 14 0 25 -4 25 -10z m40 0 c0 -5 -7 -10
-15 -10 -8 0 -15 5 -15 10 0 6 7 10 15 10 8 0 15 -4 15 -10z m-360 -52 c0 -13
3 -18 8 -12 4 6 19 13 35 16 23 5 27 2 27 -18 0 -21 -5 -24 -35 -24 -32 0 -35
-2 -35 -30 0 -27 -3 -30 -30 -30 -28 0 -30 -3 -30 -35 0 -32 -2 -35 -30 -35
-25 0 -30 4 -30 25 0 14 -4 25 -10 25 -5 0 -10 -9 -10 -19 0 -11 -6 -22 -12
-24 -7 -3 -3 -6 10 -6 15 -1 22 -7 22 -21 0 -16 -7 -20 -30 -20 -17 0 -30 5
-30 13 0 8 -3 9 -8 1 -4 -6 -17 -13 -30 -16 -18 -5 -22 -2 -22 18 0 20 5 24
30 24 28 0 30 3 30 35 0 32 2 35 30 35 27 0 30 3 30 30 0 27 3 30 30 30 27 0
30 3 30 30 0 27 3 30 30 30 24 0 30 -4 30 -22z m-140 -8 c0 -5 -4 -10 -10 -10
-5 0 -10 5 -10 10 0 6 5 10 10 10 6 0 10 -4 10 -10z m310 -8 c0 -23 19 -42 42
-42 11 0 18 -7 18 -18 0 -25 19 -42 47 -42 21 0 30 -19 24 -53 -1 -4 12 -10
29 -13 78 -16 10 -24 -200 -24 -210 0 -278 8 -200 24 17 3 30 9 29 13 -5 31 3
53 19 53 23 0 42 19 42 41 0 10 11 20 25 23 14 4 31 18 37 31 9 20 18 25 50
25 30 0 38 -4 38 -18z m-300 -26 c0 -18 -15 -36 -31 -36 -10 0 -19 -4 -19 -10
0 -5 -9 -10 -20 -10 -13 0 -20 7 -20 20 0 13 7 20 20 20 11 0 20 5 20 10 0 6
11 10 25 10 14 0 25 -2 25 -4z m490 -16 c0 -11 -4 -20 -10 -20 -5 0 -10 9 -10
20 0 11 5 20 10 20 6 0 10 -9 10 -20z m20 -75 c0 -32 -2 -35 -30 -35 -28 0
-30 3 -30 35 0 32 2 35 30 35 28 0 30 -3 30 -35z m-580 0 c0 -8 -4 -15 -10
-15 -5 0 -10 7 -10 15 0 8 5 15 10 15 6 0 10 -7 10 -15z m-60 -65 c0 -5 -7
-10 -15 -10 -8 0 -15 5 -15 10 0 6 7 10 15 10 8 0 15 -4 15 -10z"/>
<path d="M460 640 c0 -5 5 -10 10 -10 6 0 10 5 10 10 0 6 -4 10 -10 10 -5 0
-10 -4 -10 -10z"/>
<path d="M580 490 c0 -5 5 -10 10 -10 6 0 10 5 10 10 0 6 -4 10 -10 10 -5 0
-10 -4 -10 -10z"/>
<path d="M648 433 c7 -3 16 -2 19 1 4 3 -2 6 -13 5 -11 0 -14 -3 -6 -6z"/>
<path d="M589 801 c7 -5 17 -15 22 -22 6 -10 9 -8 9 9 0 16 -6 22 -22 22 -17
0 -19 -3 -9 -9z"/>
<path d="M310 728 c0 -17 3 -19 9 -9 5 7 15 17 22 22 10 6 8 9 -8 9 -17 0 -23
-6 -23 -22z"/>
<path d="M370 723 c1 -25 2 -26 14 -10 7 9 18 17 24 17 6 0 14 5 17 10 4 6 -7
10 -24 10 -27 0 -31 -3 -31 -27z"/>
<path d="M580 737 c8 -7 21 -19 28 -27 10 -12 12 -9 12 13 0 23 -4 27 -27 27
-24 -1 -26 -3 -13 -13z"/>
<path d="M650 743 c8 -3 21 -12 28 -21 10 -14 12 -13 12 6 0 18 -6 22 -27 21
-16 0 -21 -3 -13 -6z"/>
<path d="M250 668 c0 -17 3 -19 9 -9 5 7 15 17 22 22 10 6 8 9 -8 9 -17 0 -23
-6 -23 -22z"/>
<path d="M719 681 c7 -5 17 -15 22 -22 6 -10 9 -8 9 9 0 16 -6 22 -22 22 -17
0 -19 -3 -9 -9z"/>
<path d="M191 603 c0 -16 3 -21 6 -13 3 8 12 21 21 28 14 10 13 12 -6 12 -18
0 -22 -6 -21 -27z"/>
<path d="M782 618 c9 -7 18 -20 21 -28 3 -8 6 -3 6 13 1 21 -3 27 -21 27 -19
0 -20 -2 -6 -12z"/>
<path d="M130 540 c0 -24 6 -25 26 -6 19 20 18 26 -6 26 -13 0 -20 -7 -20 -20z"/>
<path d="M190 533 c1 -24 3 -26 13 -13 7 8 19 21 27 28 12 10 9 12 -13 12 -23
0 -27 -4 -27 -27z"/>
<path d="M771 547 c26 -21 31 -47 9 -47 -11 0 -20 -4 -20 -10 0 -5 7 -10 15
-10 20 0 19 -10 -2 -26 -16 -12 -15 -13 10 -14 27 0 27 -1 27 -65 l0 -65 30 0
c27 0 30 -3 30 -30 l0 -30 65 0 c41 0 65 4 65 11 0 7 -12 10 -30 7 l-30 -5 0
59 0 58 -59 0 c-54 0 -59 2 -54 20 6 23 23 27 23 5 0 -8 5 -15 10 -15 6 0 10
9 10 19 0 15 5 18 23 13 12 -3 27 -13 34 -21 11 -14 12 -12 13 12 0 27 -1 27
-65 27 l-65 0 0 60 c0 59 -1 60 -27 60 -24 -1 -26 -2 -12 -13z m99 -201 c0
-19 -4 -23 -20 -19 -32 8 -23 38 13 42 4 1 7 -10 7 -23z m50 -31 c0 -33 -4
-45 -15 -45 -11 0 -15 12 -15 45 0 33 4 45 15 45 11 0 15 -12 15 -45z"/>
<path d="M839 551 c7 -5 17 -15 22 -22 6 -10 9 -8 9 9 0 16 -6 22 -22 22 -17
0 -19 -3 -9 -9z"/>
<path d="M60 478 c0 -19 2 -20 13 -6 6 9 19 18 27 21 8 3 3 6 -12 6 -22 1 -28
-3 -28 -21z"/>
<path d="M830 494 c0 -7 27 -34 34 -34 3 0 6 9 6 20 0 13 -7 20 -20 20 -11 0
-20 -3 -20 -6z"/>
<path d="M900 493 c8 -3 21 -12 28 -21 10 -14 12 -13 12 6 0 18 -6 22 -27 21
-16 0 -21 -3 -13 -6z"/>
<path d="M968 433 c6 -2 18 -2 25 0 6 3 1 5 -13 5 -14 0 -19 -2 -12 -5z"/>
<path d="M955 370 c3 -5 15 -10 26 -10 10 0 19 5 19 10 0 6 -12 10 -26 10 -14
0 -23 -4 -19 -10z"/>
<path d="M960 300 c0 -5 9 -10 20 -10 11 0 20 5 20 10 0 6 -9 10 -20 10 -11 0
-20 -4 -20 -10z"/>
<path d="M60 218 l0 -28 440 0 c433 0 440 0 440 20 0 11 -4 20 -10 20 -5 0
-10 -4 -10 -10 0 -15 -107 -13 -114 3 -5 10 -7 10 -12 0 -8 -19 -580 -19 -588
0 -5 10 -7 10 -12 0 -9 -21 -104 -17 -120 5 -12 15 -13 14 -14 -10z"/>
<path d="M7 193 c7 -2 19 -2 26 0 6 3 1 5 -13 5 -14 0 -19 -2 -13 -5z"/>
<path d="M968 193 c6 -2 18 -2 25 0 6 3 1 5 -13 5 -14 0 -19 -2 -12 -5z"/>
</g>
</svg>
