<?xml version="1.0" standalone="no"?>
<!DOCTYPE svg PUBLIC "-//W3C//DTD SVG 20010904//EN"
 "http://www.w3.org/TR/2001/REC-SVG-20010904/DTD/svg10.dtd">
<svg version="1.0" xmlns="http://www.w3.org/2000/svg"
 width="100.000000pt" height="100.000000pt" viewBox="0 0 100.000000 100.000000"
 preserveAspectRatio="xMidYMid meet">
<metadata>
Created by potrace 1.16, written by Peter Selinger 2001-2019
</metadata>
<g transform="translate(0.000000,100.000000) scale(0.100000,-0.100000)"
fill="#000000" stroke="none">
<path d="M50 850 l0 -150 425 0 425 0 0 150 c0 93 -4 150 -10 150 -5 0 -10 -7
-10 -15 0 -21 -18 -19 -23 3 -4 16 -5 16 -6 0 -1 -16 -15 -18 -133 -19 -73 -1
-144 -5 -158 -9 l-25 -8 27 -1 c20 -1 25 -5 21 -19 -3 -14 -12 -17 -34 -14
-23 3 -29 9 -29 28 l0 24 -209 0 c-191 0 -210 2 -214 18 -4 16 -5 16 -6 0 -1
-22 -21 -24 -21 -3 0 8 -4 15 -10 15 -6 0 -10 -57 -10 -150z m27 78 c-3 -8 -6
-5 -6 6 -1 11 2 17 5 13 3 -3 4 -12 1 -19z m173 -78 l0 -100 -75 0 -75 0 0
100 0 100 75 0 75 0 0 -100z m80 85 c0 -10 -10 -15 -30 -15 -20 0 -30 5 -30
15 0 10 10 15 30 15 20 0 30 -5 30 -15z m170 0 c0 -18 -21 -20 -38 -3 -9 9
-12 8 -12 -4 0 -14 -5 -15 -32 -7 -21 5 -36 5 -42 -1 -16 -16 -26 -12 -26 10
0 18 7 20 75 20 60 0 75 -3 75 -15z m180 -1 c0 -14 -3 -14 -15 -4 -8 7 -15 8
-15 2 0 -5 -11 -12 -25 -14 -19 -4 -25 -1 -25 13 0 15 8 19 40 19 30 0 40 -4
40 -16z m170 -84 l0 -100 -75 0 -75 0 0 100 0 100 75 0 75 0 0 -100z m27 78
c-3 -8 -6 -5 -6 6 -1 11 2 17 5 13 3 -3 4 -12 1 -19z m-800 -105 c-2 -16 -4
-3 -4 27 0 30 2 43 4 28 2 -16 2 -40 0 -55z m200 0 c-2 -16 -4 -3 -4 27 0 30
2 43 4 28 2 -16 2 -40 0 -55z m273 27 l0 -50 -115 0 c-77 0 -115 -4 -115 -11
0 -6 6 -9 14 -6 8 3 16 1 18 -5 3 -8 10 -7 26 1 19 10 22 9 22 -9 0 -17 -6
-20 -50 -20 l-50 0 0 75 0 75 125 0 125 0 0 -50z m27 28 c-3 -8 -6 -5 -6 6 -1
11 2 17 5 13 3 -3 4 -12 1 -19z m73 -53 l0 -75 -75 0 c-68 0 -75 2 -75 20 0
21 15 27 25 10 9 -15 25 -12 25 5 0 9 9 15 25 15 16 0 25 -6 25 -16 0 -9 5
-14 12 -12 18 6 21 28 4 28 -12 0 -16 11 -16 50 0 47 2 50 25 50 24 0 25 -2
25 -75z m27 53 c-3 -8 -6 -5 -6 6 -1 11 2 17 5 13 3 -3 4 -12 1 -19z m200 0
c-3 -8 -6 -5 -6 6 -1 11 2 17 5 13 3 -3 4 -12 1 -19z m-293 -43 c-4 -8 -8 -15
-10 -15 -2 0 -4 7 -4 15 0 8 4 15 10 15 5 0 7 -7 4 -15z m96 -10 c0 -14 -4
-25 -9 -25 -4 0 -6 11 -3 25 2 14 6 25 8 25 2 0 4 -11 4 -25z m197 -12 c-3
-10 -5 -4 -5 12 0 17 2 24 5 18 2 -7 2 -21 0 -30z m-800 -55 c-3 -8 -6 -5 -6
6 -1 11 2 17 5 13 3 -3 4 -12 1 -19z m200 0 c-3 -8 -6 -5 -6 6 -1 11 2 17 5
13 3 -3 4 -12 1 -19z m163 18 c0 -3 -4 -8 -10 -11 -5 -3 -10 -1 -10 4 0 6 5
11 10 11 6 0 10 -2 10 -4z m40 -20 c0 -20 6 -25 33 -29 17 -2 -69 -5 -192 -5
-123 -1 -222 0 -219 3 3 3 76 6 162 6 93 0 156 4 156 9 0 6 7 10 15 10 8 0 15
7 15 15 0 8 7 15 15 15 9 0 15 -9 15 -24z m288 -29 c63 -2 52 -3 -38 -3 -69
-1 -110 1 -92 3 27 4 32 9 33 31 l2 27 4 -27 c4 -27 5 -27 91 -31z m109 31
c-3 -8 -6 -5 -6 6 -1 11 2 17 5 13 3 -3 4 -12 1 -19z m-284 -35 c-7 -2 -21 -2
-30 0 -10 3 -4 5 12 5 17 0 24 -2 18 -5z"/>
<path d="M118 913 c-8 -10 3 -13 56 -13 37 0 66 4 66 10 0 11 1 11 -63 14 -29
1 -52 -4 -59 -11z"/>
<path d="M120 840 c0 -10 9 -12 55 -12 46 0 55 2 55 12 0 6 -25 10 -55 10 -30
0 -55 -4 -55 -10z"/>
<path d="M115 790 c3 -5 30 -10 60 -10 30 0 57 5 60 10 4 6 -18 10 -60 10 -42
0 -64 -4 -60 -10z"/>
<path d="M721 922 c-6 -2 -11 -8 -11 -13 0 -5 29 -9 65 -9 37 0 65 4 65 10 0
6 -3 10 -7 11 -27 3 -103 4 -112 1z"/>
<path d="M720 840 c0 -5 7 -7 15 -4 8 4 15 1 15 -4 0 -6 12 -9 28 -7 15 2 33
4 40 4 6 1 12 6 12 11 0 6 -25 10 -55 10 -30 0 -55 -4 -55 -10z"/>
<path d="M715 790 c3 -5 30 -10 60 -10 30 0 57 5 60 10 4 6 -18 10 -60 10 -42
0 -64 -4 -60 -10z"/>
<path d="M500 870 c0 -14 7 -20 22 -20 20 0 21 1 3 20 -10 11 -20 20 -22 20
-1 0 -3 -9 -3 -20z"/>
<path d="M327 873 c-16 -15 -5 -23 33 -23 29 0 40 -4 40 -15 0 -8 5 -15 10
-15 6 0 10 12 10 26 0 24 -3 26 -35 22 -19 -2 -35 0 -35 4 0 10 -14 11 -23 1z"/>
<path d="M430 866 c0 -17 17 -31 49 -41 17 -5 22 -4 19 6 -3 8 -14 15 -26 17
-12 2 -22 10 -22 18 0 8 -4 14 -10 14 -5 0 -10 -6 -10 -14z"/>
<path d="M50 520 c0 -167 0 -170 22 -170 20 0 20 1 5 18 -22 24 -21 32 3 32
11 0 20 -7 20 -15 0 -19 14 -19 30 0 10 13 9 15 -9 15 -20 0 -21 4 -21 140 0
87 -4 140 -10 140 -5 0 -10 -8 -11 -17 0 -14 -2 -13 -9 5 -5 12 -12 22 -15 22
-3 0 -5 -76 -5 -170z m27 13 c-2 -21 -4 -4 -4 37 0 41 2 58 4 38 2 -21 2 -55
0 -75z m0 -75 c-3 -8 -6 -5 -6 6 -1 11 2 17 5 13 3 -3 4 -12 1 -19z"/>
<path d="M450 674 c0 -8 5 -12 10 -9 6 4 8 11 5 16 -9 14 -15 11 -15 -7z"/>
<path d="M485 681 c-3 -5 -1 -12 5 -16 5 -3 10 1 10 9 0 18 -6 21 -15 7z"/>
<path d="M885 678 c-3 -7 -6 -51 -8 -98 l-3 -85 -2 93 c-1 53 -6 92 -12 92 -6
0 -10 -62 -10 -165 l0 -165 -25 0 c-20 0 -25 5 -25 25 0 20 -5 25 -25 25 -20
0 -25 5 -25 25 0 20 -5 25 -25 25 -20 0 -25 5 -25 25 0 20 -5 25 -25 25 -20 0
-25 5 -25 25 0 20 -5 25 -25 25 -20 0 -25 5 -25 25 0 20 -5 25 -25 25 -20 0
-25 5 -25 25 0 24 -2 25 -75 25 -73 0 -75 -1 -75 -25 0 -20 -5 -25 -25 -25
-20 0 -25 -5 -25 -25 0 -20 -5 -25 -25 -25 -20 0 -25 -5 -25 -25 0 -20 -5 -25
-25 -25 -20 0 -25 -5 -25 -25 0 -20 -5 -25 -25 -25 -20 0 -25 -5 -25 -25 0
-20 -5 -25 -25 -25 -24 0 -25 -2 -25 -75 0 -73 1 -75 25 -75 20 0 25 -5 25
-25 0 -23 3 -25 50 -25 47 0 50 2 50 25 0 20 5 25 25 25 20 0 25 5 25 25 0 20
5 25 25 25 20 0 25 5 25 25 0 24 2 25 75 25 73 0 75 -1 75 -25 0 -20 5 -25 25
-25 20 0 25 -5 25 -25 0 -20 5 -25 25 -25 20 0 25 -5 25 -25 0 -20 5 -25 25
-25 20 0 25 -5 25 -25 0 -19 -5 -25 -21 -25 -15 0 -19 5 -15 15 3 8 1 15 -4
15 -6 0 -10 -18 -10 -40 l0 -40 -50 0 c-47 0 -50 -2 -50 -25 0 -24 -2 -25 -75
-25 -73 0 -75 1 -75 25 0 20 -5 25 -25 25 -20 0 -25 5 -25 25 0 18 -5 25 -19
25 -17 0 -18 -3 -8 -25 7 -14 15 -25 20 -25 4 0 7 -9 7 -20 0 -13 -5 -18 -15
-14 -8 4 -15 12 -15 20 0 8 -4 14 -10 14 -5 0 -10 21 -10 47 0 37 -3 44 -12
35 -15 -15 -61 -15 -76 0 -9 9 -12 7 -12 -10 0 -17 6 -22 25 -22 20 0 25 -5
25 -25 0 -20 5 -25 25 -25 20 0 25 -5 25 -25 0 -23 3 -25 50 -25 47 0 50 -2
50 -25 0 -14 5 -25 10 -25 6 0 10 7 10 15 0 23 77 21 83 -2 4 -17 5 -17 6 0 1
21 21 23 21 2 0 -8 5 -15 10 -15 6 0 10 11 10 25 0 23 3 25 50 25 47 0 50 2
50 25 0 20 5 25 25 25 20 0 25 5 25 25 0 20 5 25 25 25 20 0 25 5 25 25 0 20
5 25 25 25 23 0 25 3 25 50 0 47 2 50 25 50 20 0 25 5 25 25 0 20 5 25 25 25
l25 0 0 170 c0 157 -3 191 -15 158z m-438 -75 c-3 -2 -13 -3 -23 -1 -16 3 -16
4 2 22 18 18 19 18 22 2 2 -10 1 -20 -1 -23z m83 12 c0 -8 -7 -15 -15 -15 -8
0 -15 7 -15 15 0 8 7 15 15 15 8 0 15 -7 15 -15z m-30 -29 c0 -7 -11 -16 -25
-18 -19 -4 -25 -1 -25 13 0 14 7 19 25 19 15 0 25 -6 25 -14z m-103 -33 c-3
-2 -13 -3 -23 -1 -16 3 -16 4 2 22 18 18 19 18 22 2 2 -10 1 -20 -1 -23z m183
12 c0 -8 -4 -15 -9 -15 -5 0 -11 7 -15 15 -3 9 0 15 9 15 8 0 15 -7 15 -15z
m-148 -40 c-2 -14 -8 -25 -13 -25 -5 0 -2 -11 7 -25 16 -24 15 -25 -5 -25 -19
0 -21 6 -21 50 0 42 3 50 19 50 14 0 17 -6 13 -25z m118 -25 l0 -50 -50 0 -50
0 0 50 0 50 50 0 50 0 0 -50z m-203 3 c-3 -2 -13 -3 -23 -1 -16 3 -16 4 2 22
18 18 19 18 22 2 2 -10 1 -20 -1 -23z m129 -73 l94 0 1 53 c1 38 3 45 8 27 4
-15 15 -26 29 -28 17 -3 22 -10 22 -33 0 -24 -4 -29 -25 -29 -21 0 -25 -5 -25
-27 -1 -26 -1 -27 -12 -8 -17 30 -28 35 -85 35 -51 0 -53 -1 -53 -27 -1 -26
-1 -27 -12 -8 -16 28 -28 35 -65 35 -30 0 -33 3 -33 30 0 25 4 30 25 30 20 0
25 5 27 28 1 15 3 3 5 -25 l4 -53 95 0z m154 85 c0 -8 -7 -15 -15 -15 -8 0
-15 7 -15 15 0 8 7 15 15 15 8 0 15 -7 15 -15z m-333 -62 c-3 -2 -13 -3 -23
-1 -16 3 -16 4 2 22 18 18 19 18 22 2 2 -10 1 -20 -1 -23z m383 12 c0 -8 -7
-15 -15 -15 -8 0 -15 7 -15 15 0 8 7 15 15 15 8 0 15 -7 15 -15z m197 -7 c-3
-8 -6 -5 -6 6 -1 11 2 17 5 13 3 -3 4 -12 1 -19z m-197 -34 c0 -2 -7 -4 -15
-4 -8 0 -15 4 -15 10 0 5 7 7 15 4 8 -4 15 -8 15 -10z m-432 -6 c-6 -18 -28
-21 -28 -4 0 9 7 16 16 16 9 0 14 -5 12 -12z m49 6 c-3 -3 -12 -4 -19 -1 -8 3
-5 6 6 6 11 1 17 -2 13 -5z m430 0 c-3 -3 -12 -4 -19 -1 -8 3 -5 6 6 6 11 1
17 -2 13 -5z m-377 -74 l0 -50 -50 0 -50 0 0 50 0 50 50 0 50 0 0 -50z m50 36
c0 -8 -7 -16 -15 -20 -10 -4 -15 1 -15 14 0 11 7 20 15 20 8 0 15 -6 15 -14z
m100 -3 c0 -12 -8 -18 -25 -18 -17 0 -25 6 -25 18 0 12 8 17 25 17 17 0 25 -5
25 -17z m50 2 c0 -8 -7 -15 -15 -15 -8 0 -15 7 -15 15 0 8 7 15 15 15 8 0 15
-7 15 -15z m200 -35 l0 -50 -75 0 -75 0 0 50 0 50 75 0 75 0 0 -50z m130 34
c0 -8 -4 -12 -10 -9 -5 3 -10 10 -10 16 0 5 5 9 10 9 6 0 10 -7 10 -16z m-680
-19 c0 -8 -9 -15 -20 -15 -13 0 -18 5 -14 15 4 8 12 15 20 15 8 0 14 -7 14
-15z m577 -7 c-3 -8 -6 -5 -6 6 -1 11 2 17 5 13 3 -3 4 -12 1 -19z m-547 -33
c0 -16 -6 -25 -15 -25 -9 0 -15 9 -15 25 0 16 6 25 15 25 9 0 15 -9 15 -25z
m147 3 c-3 -8 -6 -5 -6 6 -1 11 2 17 5 13 3 -3 4 -12 1 -19z m200 0 c-3 -8 -6
-5 -6 6 -1 11 2 17 5 13 3 -3 4 -12 1 -19z m200 -45 c-3 -10 -5 -2 -5 17 0 19
2 27 5 18 2 -10 2 -26 0 -35z m53 43 c0 -2 -7 -6 -15 -10 -8 -3 -15 -1 -15 4
0 6 7 10 15 10 8 0 15 -2 15 -4z m-630 -41 c0 -8 -7 -15 -15 -15 -8 0 -15 7
-15 15 0 8 7 15 15 15 8 0 15 -7 15 -15z m100 -21 c0 -8 -10 -14 -25 -14 -18
0 -25 5 -25 19 0 14 6 17 25 13 14 -2 25 -11 25 -18z m400 6 c0 -15 -7 -20
-25 -20 -32 0 -34 27 -2 33 12 2 23 5 25 6 1 0 2 -8 2 -19z m-442 -43 c24 -4
24 -4 -5 -6 -31 -1 -33 1 -32 32 2 29 2 29 6 5 3 -20 11 -28 31 -31z m490 41
c-6 -18 -28 -21 -28 -4 0 9 7 16 16 16 9 0 14 -5 12 -12z m36 -32 c-9 -24 -34
-28 -34 -6 0 13 7 20 20 20 13 0 17 -5 14 -14z m-87 -12 c-3 -3 -12 -4 -19 -1
-8 3 -5 6 6 6 11 1 17 -2 13 -5z m33 -39 c0 -8 -2 -15 -4 -15 -2 0 -6 7 -10
15 -3 8 -1 15 4 15 6 0 10 -7 10 -15z m-453 -57 c-3 -8 -6 -5 -6 6 -1 11 2 17
5 13 3 -3 4 -12 1 -19z m320 -54 c-3 -3 -12 -4 -19 -1 -8 3 -5 6 6 6 11 1 17
-2 13 -5z"/>
<path d="M500 484 c0 -17 22 -14 28 4 2 7 -3 12 -12 12 -9 0 -16 -7 -16 -16z"/>
<path d="M300 366 c0 -9 7 -16 16 -16 17 0 14 22 -4 28 -7 2 -12 -3 -12 -12z"/>
<path d="M270 360 c0 -5 5 -10 11 -10 5 0 7 5 4 10 -3 6 -8 10 -11 10 -2 0 -4
-4 -4 -10z"/>
<path d="M632 377 c-12 -14 -5 -57 9 -57 5 0 9 16 9 35 0 38 -2 41 -18 22z"/>
<path d="M700 350 c0 -22 2 -40 5 -40 10 0 24 50 19 65 -11 28 -24 15 -24 -25z"/>
<path d="M572 638 c6 -18 28 -21 28 -4 0 9 -7 16 -16 16 -9 0 -14 -5 -12 -12z"/>
<path d="M622 588 c6 -18 28 -21 28 -4 0 9 -7 16 -16 16 -9 0 -14 -5 -12 -12z"/>
<path d="M672 538 c6 -18 28 -21 28 -4 0 9 -7 16 -16 16 -9 0 -14 -5 -12 -12z"/>
<path d="M722 488 c6 -18 28 -21 28 -4 0 9 -7 16 -16 16 -9 0 -14 -5 -12 -12z"/>
<path d="M772 438 c6 -18 28 -21 28 -4 0 9 -7 16 -16 16 -9 0 -14 -5 -12 -12z"/>
<path d="M815 390 c3 -5 10 -10 16 -10 5 0 9 5 9 10 0 6 -7 10 -16 10 -8 0
-12 -4 -9 -10z"/>
<path d="M100 325 c0 -18 5 -25 20 -25 11 0 20 5 20 10 0 6 -5 10 -11 10 -8 0
-8 5 1 15 10 13 9 15 -9 15 -16 0 -21 -6 -21 -25z"/>
<path d="M425 320 c-18 -19 -17 -20 3 -20 15 0 22 6 22 20 0 11 -2 20 -3 20
-2 0 -12 -9 -22 -20z"/>
<path d="M500 316 c0 -9 7 -16 16 -16 17 0 14 22 -4 28 -7 2 -12 -3 -12 -12z"/>
<path d="M375 270 c-18 -19 -17 -20 3 -20 15 0 22 6 22 20 0 11 -2 20 -3 20
-2 0 -12 -9 -22 -20z"/>
<path d="M832 278 c-16 -16 -15 -28 3 -28 8 0 15 9 15 20 0 23 -2 24 -18 8z"/>
<path d="M100 266 c0 -9 7 -16 16 -16 17 0 14 22 -4 28 -7 2 -12 -3 -12 -12z"/>
<path d="M550 266 c0 -9 7 -16 16 -16 9 0 14 5 12 12 -6 18 -28 21 -28 4z"/>
<path d="M150 220 c0 -14 7 -20 22 -20 20 0 21 1 3 20 -10 11 -20 20 -22 20
-1 0 -3 -9 -3 -20z"/>
<path d="M325 220 c-18 -19 -17 -20 3 -20 15 0 22 6 22 20 0 11 -2 20 -3 20
-2 0 -12 -9 -22 -20z"/>
<path d="M600 216 c0 -9 7 -16 16 -16 9 0 14 5 12 12 -6 18 -28 21 -28 4z"/>
<path d="M600 134 c0 -17 22 -14 28 4 2 7 -3 12 -12 12 -9 0 -16 -7 -16 -16z"/>
<path d="M727 123 c-12 -11 -8 -23 8 -23 8 0 15 7 15 15 0 16 -12 20 -23 8z"/>
<path d="M580 15 c0 -8 5 -15 10 -15 6 0 10 7 10 15 0 8 -4 15 -10 15 -5 0
-10 -7 -10 -15z"/>
</g>
</svg>
