<?xml version="1.0" standalone="no"?>
<!DOCTYPE svg PUBLIC "-//W3C//DTD SVG 20010904//EN"
 "http://www.w3.org/TR/2001/REC-SVG-20010904/DTD/svg10.dtd">
<svg version="1.0" xmlns="http://www.w3.org/2000/svg"
 width="180.000000pt" height="180.000000pt" viewBox="0 0 180.000000 180.000000"
 preserveAspectRatio="xMidYMid meet">
<metadata>
Created by potrace 1.16, written by Peter Selinger 2001-2019
</metadata>
<g transform="translate(0.000000,180.000000) scale(0.100000,-0.100000)"
fill="#000000" stroke="none">
<path d="M826 1732 c-22 -37 -62 -107 -89 -157 -28 -49 -80 -142 -117 -205
-68 -118 -158 -277 -271 -479 -61 -111 -63 -117 -63 -185 0 -79 4 -87 201
-425 89 -154 130 -198 227 -247 67 -33 72 -34 186 -34 114 0 119 1 187 35 120
60 140 87 369 494 55 100 58 108 59 175 0 68 -3 76 -53 166 -30 52 -66 118
-82 145 -15 28 -48 84 -72 125 -41 69 -47 75 -77 75 -30 0 -36 -6 -65 -60 -18
-33 -64 -114 -103 -180 -39 -66 -93 -157 -120 -203 -26 -46 -49 -77 -51 -70
-3 18 92 191 249 454 43 71 49 89 49 135 0 46 -7 65 -45 129 -25 41 -45 78
-45 82 0 4 -16 8 -35 8 -31 0 -37 -5 -56 -42 -12 -24 -50 -90 -84 -148 -34
-58 -81 -139 -105 -180 -23 -41 -85 -148 -136 -238 -65 -113 -94 -173 -94
-195 0 -20 17 -61 48 -112 26 -44 71 -123 100 -176 60 -109 86 -129 160 -129
75 0 97 23 204 216 67 121 124 214 131 214 14 0 6 -21 -33 -85 -22 -36 -40
-67 -40 -69 0 -8 -125 -212 -145 -237 -54 -67 -117 -88 -179 -60 -48 21 -72
52 -156 201 -29 52 -70 125 -92 161 -21 36 -38 70 -38 76 0 6 24 53 54 104
103 179 193 335 264 456 40 67 72 124 72 126 0 3 18 36 40 73 54 93 55 144 4
229 -20 33 -40 70 -45 82 -6 18 -16 23 -41 23 -30 0 -36 -6 -72 -68z m93 25
c5 -12 25 -49 45 -82 20 -34 36 -73 36 -90 0 -17 -17 -60 -40 -99 -22 -37 -40
-70 -40 -73 0 -2 -32 -59 -72 -126 -39 -67 -102 -176 -140 -242 -39 -66 -98
-169 -133 -228 l-64 -109 48 -81 c26 -45 72 -125 101 -177 29 -52 67 -115 83
-139 70 -104 209 -105 292 -2 19 24 145 229 145 237 0 2 20 37 45 77 25 41 45
79 45 86 0 6 -8 24 -19 42 l-19 30 -81 -135 c-44 -75 -81 -138 -81 -141 0 -2
-21 -38 -46 -79 -52 -86 -84 -116 -126 -116 -53 0 -84 29 -140 129 -29 53 -74
132 -100 176 -27 44 -48 85 -48 92 0 7 42 85 94 175 51 90 113 197 136 238 24
41 71 122 105 180 34 58 72 124 84 148 12 23 28 42 36 42 8 0 15 -4 15 -8 0
-4 20 -41 45 -82 59 -99 59 -119 -7 -230 -29 -49 -87 -147 -128 -220 -41 -72
-89 -156 -107 -186 l-32 -55 21 -34 c11 -19 21 -35 23 -35 1 0 28 44 60 98 31
53 89 151 128 217 39 66 85 147 103 180 18 33 38 60 45 60 11 0 59 -73 129
-200 16 -27 52 -92 81 -144 74 -131 73 -162 -6 -303 -230 -409 -248 -434 -374
-496 -69 -34 -82 -37 -161 -37 -79 0 -92 3 -161 37 -40 20 -92 54 -114 75 -38
37 -116 164 -257 416 -84 150 -84 175 2 329 111 201 202 360 270 478 37 63 89
156 117 205 131 236 143 252 162 202z"/>
</g>
</svg>
