<?xml version="1.0" standalone="no"?>
<!DOCTYPE svg PUBLIC "-//W3C//DTD SVG 20010904//EN"
 "http://www.w3.org/TR/2001/REC-SVG-20010904/DTD/svg10.dtd">
<svg version="1.0" xmlns="http://www.w3.org/2000/svg"
 width="196.000000pt" height="196.000000pt" viewBox="0 0 196.000000 196.000000"
 preserveAspectRatio="xMidYMid meet">
<metadata>
Created by potrace 1.16, written by Peter Selinger 2001-2019
</metadata>
<g transform="translate(0.000000,196.000000) scale(0.100000,-0.100000)"
fill="#000000" stroke="none">
<path d="M111 1886 c-52 -29 -50 0 -51 -904 0 -916 -2 -884 55 -910 37 -17
1693 -17 1730 0 57 26 55 -5 55 908 0 913 2 882 -55 908 -40 18 -1701 16
-1734 -2z m1718 -21 c16 -8 34 -28 40 -46 8 -22 11 -276 11 -846 0 -896 3
-860 -61 -882 -22 -8 -276 -11 -846 -11 -896 0 -860 -3 -882 61 -17 48 -15
1648 1 1685 25 54 7 53 891 54 701 0 822 -2 846 -15z"/>
<path d="M823 1633 c-252 -264 -249 -257 -95 -261 l102 -3 2 -387 3 -387 157
-3 156 -2 4 62 c2 35 3 210 2 391 l-1 327 104 0 103 0 0 26 c0 21 -39 67 -176
210 -98 103 -184 184 -194 184 -10 0 -84 -70 -167 -157z m222 75 c27 -29 104
-110 172 -179 68 -70 123 -128 123 -130 0 -2 -48 -3 -107 -1 l-108 4 0 -392 0
-391 -133 0 -133 0 0 391 1 391 -102 -1 c-57 -1 -106 -1 -109 -1 -3 1 58 67
136 149 78 81 155 162 170 180 15 17 30 32 35 32 4 0 29 -24 55 -52z"/>
<path d="M287 1150 c-6 -22 6 -39 51 -69 l33 -23 -41 -41 c-23 -23 -55 -71
-73 -107 -27 -55 -33 -78 -36 -154 -5 -146 27 -226 139 -337 92 -90 209 -153
365 -196 91 -24 116 -27 270 -27 144 0 182 3 252 22 210 57 391 183 460 322
26 52 28 63 28 185 0 120 -2 134 -26 185 -15 30 -50 80 -78 111 -51 58 -148
129 -174 129 -7 0 -59 -30 -115 -66 -87 -57 -102 -71 -102 -93 0 -19 9 -32 30
-45 57 -33 117 -106 135 -161 20 -67 13 -110 -29 -169 -95 -133 -299 -207
-488 -176 -189 32 -348 161 -348 283 0 21 12 61 26 90 40 78 42 80 74 57 16
-11 40 -20 54 -20 33 0 39 31 34 184 -2 90 -6 119 -18 126 -8 5 -106 10 -216
10 -192 0 -202 -1 -207 -20z m413 -146 c0 -147 3 -142 -59 -96 l-34 25 -22
-27 c-148 -186 -59 -386 208 -472 232 -75 519 9 617 180 70 121 16 272 -128
366 -23 15 -22 16 69 75 51 33 96 61 101 63 15 7 126 -80 168 -131 73 -89 94
-147 94 -257 0 -120 -24 -187 -96 -265 -158 -173 -455 -275 -713 -246 -250 29
-450 125 -574 276 -60 73 -85 143 -85 240 0 69 4 89 31 147 19 40 54 90 87
124 31 32 55 58 53 59 -33 18 -107 69 -107 74 0 3 88 5 195 3 l195 -3 0 -135z"/>
</g>
</svg>
