<?xml version="1.0" standalone="no"?>
<!DOCTYPE svg PUBLIC "-//W3C//DTD SVG 20010904//EN"
 "http://www.w3.org/TR/2001/REC-SVG-20010904/DTD/svg10.dtd">
<svg version="1.0" xmlns="http://www.w3.org/2000/svg"
 width="100.000000pt" height="100.000000pt" viewBox="0 0 100.000000 100.000000"
 preserveAspectRatio="xMidYMid meet">
<metadata>
Created by potrace 1.16, written by Peter Selinger 2001-2019
</metadata>
<g transform="translate(0.000000,100.000000) scale(0.100000,-0.100000)"
fill="#000000" stroke="none">
<path d="M173 993 c-29 -4 -33 -8 -33 -34 0 -27 -3 -29 -35 -29 -33 0 -35 -2
-35 -35 0 -32 -2 -35 -30 -35 -25 0 -30 -4 -30 -24 0 -13 -3 -31 -6 -40 -4
-11 -1 -16 10 -16 11 0 16 9 16 30 0 27 3 30 30 30 28 0 30 3 30 35 0 33 2 35
35 35 32 0 35 2 35 30 0 27 3 30 30 30 20 0 30 5 30 15 0 8 -3 14 -7 13 -5 0
-23 -3 -40 -5z"/>
<path d="M310 974 c0 -14 4 -23 9 -20 5 3 7 15 4 26 -7 28 -13 25 -13 -6z"/>
<path d="M340 974 c0 -14 4 -23 9 -20 5 3 7 15 4 26 -7 28 -13 25 -13 -6z"/>
<path d="M552 980 c0 -14 2 -19 5 -12 2 6 2 18 0 25 -3 6 -5 1 -5 -13z"/>
<path d="M645 980 c2 -31 15 -37 15 -7 0 15 -4 27 -8 27 -5 0 -8 -9 -7 -20z"/>
<path d="M677 980 c-3 -11 -1 -23 4 -26 5 -3 9 6 9 20 0 31 -6 34 -13 6z"/>
<path d="M780 986 c0 -11 9 -16 30 -16 27 0 30 -3 30 -30 0 -28 3 -30 35 -30
33 0 35 -2 35 -35 0 -32 2 -35 30 -35 27 0 30 -3 30 -30 0 -21 5 -30 16 -30
11 0 14 5 10 16 -3 9 -6 27 -6 40 0 20 -5 24 -30 24 -28 0 -30 3 -30 35 0 33
-2 35 -35 35 -32 0 -35 2 -35 30 0 25 -4 30 -24 30 -13 0 -31 3 -40 6 -11 4
-16 1 -16 -10z"/>
<path d="M240 962 c0 -5 14 -7 30 -4 17 2 30 6 30 8 0 2 -13 4 -30 4 -16 0
-30 -4 -30 -8z"/>
<path d="M478 963 c7 -3 16 -2 19 1 4 3 -2 6 -13 5 -11 0 -14 -3 -6 -6z"/>
<path d="M700 966 c0 -2 14 -6 30 -8 17 -3 30 -1 30 4 0 4 -13 8 -30 8 -16 0
-30 -2 -30 -4z"/>
<path d="M210 938 c0 -9 34 -11 175 -10 65 0 103 -4 107 -12 5 -7 8 -5 8 6 0
15 -16 17 -145 20 -80 2 -145 0 -145 -4z"/>
<path d="M573 934 c8 -8 226 -9 234 -1 3 4 -49 7 -117 7 -68 0 -121 -3 -117
-6z"/>
<path d="M204 903 c9 -10 147 -12 171 -2 12 5 -18 8 -79 8 -55 1 -96 -2 -92
-6z"/>
<path d="M620 903 c0 -5 29 -9 65 -9 36 -1 65 2 65 7 0 5 -29 9 -65 9 -36 0
-65 -3 -65 -7z"/>
<path d="M763 903 c10 -9 57 -10 57 -1 0 4 -14 8 -32 8 -17 0 -28 -3 -25 -7z"/>
<path d="M140 880 c0 -5 5 -10 10 -10 6 0 10 5 10 10 0 6 -4 10 -10 10 -5 0
-10 -4 -10 -10z"/>
<path d="M440 879 c-20 -6 -16 -7 18 -8 23 -1 42 3 42 7 0 10 -28 10 -60 1z"/>
<path d="M840 880 c0 -6 -37 -10 -90 -10 -73 0 -90 -3 -90 -15 0 -16 16 -20
24 -6 3 5 36 8 73 7 38 -2 76 1 86 6 18 9 23 28 7 28 -5 0 -10 -4 -10 -10z"/>
<path d="M174 863 c7 -7 87 -5 95 3 2 2 -20 4 -49 4 -29 0 -50 -3 -46 -7z"/>
<path d="M310 855 c0 -12 16 -15 83 -14 47 0 74 4 63 8 -11 4 -43 7 -73 6 -29
-1 -53 2 -53 6 0 5 -4 9 -10 9 -5 0 -10 -7 -10 -15z"/>
<path d="M620 860 c0 -6 -4 -9 -8 -6 -5 3 -22 1 -38 -4 -26 -7 -25 -8 19 -9
44 -1 60 10 37 24 -5 3 -10 1 -10 -5z"/>
<path d="M110 850 c0 -5 5 -10 10 -10 6 0 10 5 10 10 0 6 -4 10 -10 10 -5 0
-10 -4 -10 -10z"/>
<path d="M865 850 c-10 -16 -13 -120 -4 -120 5 0 9 25 9 55 0 30 5 55 10 55 6
0 10 5 10 10 0 13 -17 13 -25 0z"/>
<path d="M218 833 c7 -3 16 -2 19 1 4 3 -2 6 -13 5 -11 0 -14 -3 -6 -6z"/>
<path d="M750 833 c0 -5 14 -8 30 -8 17 0 30 3 30 8 0 4 -13 7 -30 7 -16 0
-30 -3 -30 -7z"/>
<path d="M130 782 c0 -29 4 -52 8 -52 10 0 8 87 -2 97 -3 3 -6 -17 -6 -45z"/>
<path d="M300 820 c-10 -7 15 -10 74 -10 49 0 87 2 84 5 -10 10 -144 14 -158
5z"/>
<path d="M565 819 c-18 -4 5 -7 59 -8 49 0 86 2 82 6 -9 9 -102 10 -141 2z"/>
<path d="M90 788 c0 -17 3 -28 7 -25 9 10 10 57 1 57 -4 0 -8 -14 -8 -32z"/>
<path d="M896 805 c4 -8 8 -15 10 -15 2 0 4 7 4 15 0 8 -4 15 -10 15 -5 0 -7
-7 -4 -15z"/>
<path d="M827 790 c-3 -11 -1 -23 4 -26 5 -3 9 6 9 20 0 31 -6 34 -13 6z"/>
<path d="M264 788 c-3 -4 32 -8 77 -8 45 0 80 2 77 5 -9 9 -149 12 -154 3z"/>
<path d="M440 704 c0 -54 2 -95 5 -92 9 9 11 179 3 185 -5 2 -8 -40 -8 -93z"/>
<path d="M470 746 c0 -31 4 -56 10 -56 5 0 7 7 4 15 -4 8 -1 15 5 15 7 0 7 8
1 26 -6 14 -8 29 -5 34 3 5 1 11 -5 15 -6 4 -10 -14 -10 -49z"/>
<path d="M518 795 c-6 -6 1 -107 8 -114 2 -2 4 23 4 57 0 61 -1 67 -12 57z"/>
<path d="M549 793 c-3 -23 3 -238 6 -242 3 -2 5 53 5 122 0 70 -2 127 -5 127
-3 0 -5 -3 -6 -7z"/>
<path d="M620 788 c0 -4 28 -8 62 -8 34 0 58 3 55 7 -10 9 -117 11 -117 1z"/>
<path d="M750 790 c0 -5 5 -10 11 -10 5 0 7 5 4 10 -3 6 -8 10 -11 10 -2 0 -4
-4 -4 -10z"/>
<path d="M59 678 c3 -85 6 -102 11 -70 6 37 6 68 1 165 -1 9 -4 17 -8 17 -5 0
-6 -51 -4 -112z"/>
<path d="M588 783 c7 -3 16 -2 19 1 4 3 -2 6 -13 5 -11 0 -14 -3 -6 -6z"/>
<path d="M895 770 c3 -5 8 -10 11 -10 2 0 4 5 4 10 0 6 -5 10 -11 10 -5 0 -7
-4 -4 -10z"/>
<path d="M928 762 c-6 -22 0 -184 7 -191 3 -2 5 44 5 102 0 105 -3 125 -12 89z"/>
<path d="M239 768 c-5 -14 -2 -138 4 -138 4 0 7 32 7 70 0 39 -2 70 -5 70 -3
0 -5 -1 -6 -2z"/>
<path d="M263 758 c-2 -5 14 -8 36 -8 23 0 41 3 41 8 0 4 -16 7 -36 7 -20 0
-38 -3 -41 -7z"/>
<path d="M620 758 c0 -5 28 -8 62 -8 34 0 58 3 54 7 -9 9 -116 10 -116 1z"/>
<path d="M750 760 c0 -5 5 -10 11 -10 5 0 7 5 4 10 -3 6 -8 10 -11 10 -2 0 -4
-4 -4 -10z"/>
<path d="M780 530 c0 -134 3 -241 6 -237 8 8 8 466 0 474 -3 4 -6 -103 -6
-237z"/>
<path d="M30 730 c0 -16 2 -30 4 -30 2 0 6 14 8 30 3 17 1 30 -4 30 -4 0 -8
-13 -8 -30z"/>
<path d="M958 730 c2 -16 6 -30 8 -30 2 0 4 14 4 30 0 17 -4 30 -8 30 -5 0 -7
-13 -4 -30z"/>
<path d="M90 690 c0 -33 4 -60 8 -60 4 0 8 27 8 60 1 33 -3 60 -8 60 -4 0 -8
-27 -8 -60z"/>
<path d="M168 743 c7 -3 16 -2 19 1 4 3 -2 6 -13 5 -11 0 -14 -3 -6 -6z"/>
<path d="M206 505 c1 -135 4 -248 8 -252 3 -3 6 107 6 245 0 139 -3 252 -7
252 -5 0 -8 -110 -7 -245z"/>
<path d="M811 526 c-1 -126 2 -226 6 -222 10 10 12 407 2 431 -4 11 -8 -81 -8
-209z"/>
<path d="M890 735 c7 -9 8 -15 2 -15 -6 0 -7 -13 -2 -37 5 -20 7 -41 4 -45 -3
-4 0 -8 5 -8 7 0 11 24 11 60 0 49 -3 60 -16 60 -14 0 -14 -3 -4 -15z"/>
<path d="M265 730 c-3 -5 -1 -10 4 -10 6 0 11 5 11 10 0 6 -2 10 -4 10 -3 0
-8 -4 -11 -10z"/>
<path d="M295 730 c-3 -5 -1 -10 4 -10 6 0 11 5 11 10 0 6 -2 10 -4 10 -3 0
-8 -4 -11 -10z"/>
<path d="M690 730 c0 -5 5 -10 11 -10 5 0 7 5 4 10 -3 6 -8 10 -11 10 -2 0 -4
-4 -4 -10z"/>
<path d="M720 730 c0 -5 5 -10 11 -10 5 0 7 5 4 10 -3 6 -8 10 -11 10 -2 0 -4
-4 -4 -10z"/>
<path d="M750 687 c0 -31 3 -57 8 -57 9 0 8 97 -1 106 -4 4 -7 -18 -7 -49z"/>
<path d="M411 714 c0 -11 3 -14 6 -6 3 7 2 16 -1 19 -3 4 -6 -2 -5 -13z"/>
<path d="M130 710 c0 -5 4 -10 9 -10 6 0 13 5 16 10 3 6 -1 10 -9 10 -9 0 -16
-4 -16 -10z"/>
<path d="M174 506 c1 -118 4 -218 9 -222 4 -4 7 92 7 214 0 122 -4 222 -8 222
-5 0 -8 -96 -8 -214z"/>
<path d="M855 710 c3 -5 8 -10 11 -10 2 0 4 5 4 10 0 6 -5 10 -11 10 -5 0 -7
-4 -4 -10z"/>
<path d="M265 700 c-3 -5 -1 -10 4 -10 6 0 11 5 11 10 0 6 -2 10 -4 10 -3 0
-8 -4 -11 -10z"/>
<path d="M720 700 c0 -5 5 -10 11 -10 5 0 7 5 4 10 -3 6 -8 10 -11 10 -2 0 -4
-4 -4 -10z"/>
<path d="M0 682 c0 -10 36 -9 46 1 4 4 -5 7 -19 7 -15 0 -27 -4 -27 -8z"/>
<path d="M130 660 c0 -20 5 -30 15 -30 10 0 15 10 15 30 0 20 -5 30 -15 30
-10 0 -15 -10 -15 -30z"/>
<path d="M340 682 c0 -4 18 -7 40 -7 22 0 40 3 40 7 0 5 -18 8 -40 8 -22 0
-40 -3 -40 -8z"/>
<path d="M575 680 c3 -5 8 -10 11 -10 2 0 4 5 4 10 0 6 -5 10 -11 10 -5 0 -7
-4 -4 -10z"/>
<path d="M605 680 c3 -5 8 -10 11 -10 2 0 4 5 4 10 0 6 -5 10 -11 10 -5 0 -7
-4 -4 -10z"/>
<path d="M840 660 c0 -20 5 -30 15 -30 10 0 15 10 15 30 0 20 -5 30 -15 30
-10 0 -15 -10 -15 -30z"/>
<path d="M954 683 c10 -10 46 -11 46 -1 0 4 -12 8 -27 8 -14 0 -23 -3 -19 -7z"/>
<path d="M310 650 c0 -11 4 -20 9 -20 5 0 7 9 4 20 -3 11 -7 20 -9 20 -2 0 -4
-9 -4 -20z"/>
<path d="M0 652 c0 -10 36 -9 46 1 4 4 -5 7 -19 7 -15 0 -27 -4 -27 -8z"/>
<path d="M341 644 c0 -11 3 -14 6 -6 3 7 2 16 -1 19 -3 4 -6 -2 -5 -13z"/>
<path d="M370 628 c0 -36 4 -35 14 5 4 16 2 27 -4 27 -5 0 -10 -14 -10 -32z"/>
<path d="M412 630 c0 -19 2 -27 5 -17 2 9 2 25 0 35 -3 9 -5 1 -5 -18z"/>
<path d="M581 644 c0 -11 3 -14 6 -6 3 7 2 16 -1 19 -3 4 -6 -2 -5 -13z"/>
<path d="M606 645 c4 -8 8 -15 10 -15 2 0 4 7 4 15 0 8 -4 15 -10 15 -5 0 -7
-7 -4 -15z"/>
<path d="M641 653 c0 -5 4 -17 9 -28 8 -18 9 -17 9 8 1 15 -3 27 -9 27 -5 0
-10 -3 -9 -7z"/>
<path d="M682 630 c0 -19 2 -27 5 -17 2 9 2 25 0 35 -3 9 -5 1 -5 -18z"/>
<path d="M958 635 c2 -14 6 -25 8 -25 2 0 4 11 4 25 0 14 -4 25 -9 25 -4 0 -6
-11 -3 -25z"/>
<path d="M985 650 c3 -5 8 -10 11 -10 2 0 4 5 4 10 0 6 -5 10 -11 10 -5 0 -7
-4 -4 -10z"/>
<path d="M140 605 c-7 -8 -8 -15 -3 -15 12 0 13 -173 1 -181 -5 -3 -3 -9 6
-12 14 -6 16 8 16 108 0 63 -2 115 -4 115 -2 0 -9 -7 -16 -15z"/>
<path d="M840 481 c0 -77 4 -141 9 -141 4 0 7 55 6 123 -1 67 2 125 7 128 5 3
2 12 -7 19 -13 11 -15 -2 -15 -129z"/>
<path d="M896 605 c-3 -8 -1 -15 4 -15 6 0 10 7 10 15 0 8 -2 15 -4 15 -2 0
-6 -7 -10 -15z"/>
<path d="M370 579 c0 -5 5 -7 10 -4 6 3 10 8 10 11 0 2 -4 4 -10 4 -5 0 -10
-5 -10 -11z"/>
<path d="M628 583 c6 -2 18 -2 25 0 6 3 1 5 -13 5 -14 0 -19 -2 -12 -5z"/>
<path d="M673 515 c-1 -41 3 -75 8 -75 5 0 9 34 9 75 0 41 -3 75 -8 75 -4 0
-8 -34 -9 -75z"/>
<path d="M7 553 c7 -2 19 -2 26 0 6 3 1 5 -13 5 -14 0 -19 -2 -13 -5z"/>
<path d="M282 530 c0 -19 2 -27 5 -17 2 9 2 25 0 35 -3 9 -5 1 -5 -18z"/>
<path d="M310 530 c0 -16 3 -30 8 -30 4 0 7 14 7 30 0 17 -3 30 -7 30 -5 0 -8
-13 -8 -30z"/>
<path d="M340 530 l0 -30 73 0 c49 0 67 3 57 10 -8 5 -29 7 -47 5 -36 -5 -47
4 -32 25 8 12 12 12 16 2 5 -13 23 -7 23 9 0 5 -13 9 -30 9 -26 0 -30 -4 -30
-26 0 -15 -4 -23 -10 -19 -6 4 -8 15 -5 26 4 11 2 19 -4 19 -6 0 -11 -13 -11
-30z"/>
<path d="M440 544 c0 -14 3 -14 15 -4 8 7 15 14 15 16 0 2 -7 4 -15 4 -8 0
-15 -7 -15 -16z"/>
<path d="M620 550 c0 -5 9 -10 20 -10 11 0 20 5 20 10 0 6 -9 10 -20 10 -11 0
-20 -4 -20 -10z"/>
<path d="M713 500 c0 -36 2 -50 4 -32 2 17 2 47 0 65 -2 17 -4 3 -4 -33z"/>
<path d="M968 553 c6 -2 18 -2 25 0 6 3 1 5 -13 5 -14 0 -19 -2 -12 -5z"/>
<path d="M545 525 c6 -2 30 -5 55 -7 39 -3 44 -6 44 -28 0 -14 -3 -31 -8 -38
-4 -7 -1 -12 8 -12 12 0 16 11 16 45 l0 45 -62 -1 c-35 0 -58 -2 -53 -4z"/>
<path d="M500 489 c0 -5 5 -7 10 -4 6 3 10 8 10 11 0 2 -4 4 -10 4 -5 0 -10
-5 -10 -11z"/>
<path d="M530 493 c0 -5 17 -9 37 -11 43 -3 51 -8 35 -24 -9 -9 -12 -9 -12 1
0 7 -4 9 -10 6 -18 -11 -10 -25 15 -25 21 0 25 5 25 30 0 29 -2 30 -45 30 -25
0 -45 -3 -45 -7z"/>
<path d="M870 490 c0 -13 11 -13 30 0 12 8 11 10 -7 10 -13 0 -23 -4 -23 -10z"/>
<path d="M928 475 c-6 -30 -3 -43 8 -33 3 4 4 19 2 35 l-3 28 -7 -30z"/>
<path d="M312 470 c0 -14 2 -19 5 -12 2 6 2 18 0 25 -3 6 -5 1 -5 -13z"/>
<path d="M442 470 c0 -14 2 -19 5 -12 2 6 2 18 0 25 -3 6 -5 1 -5 -13z"/>
<path d="M472 460 c0 -19 2 -27 5 -17 2 9 2 25 0 35 -3 9 -5 1 -5 -18z"/>
<path d="M500 425 c0 -43 1 -45 30 -45 27 0 30 3 30 30 0 20 -5 30 -15 30 -8
0 -15 -7 -15 -15 0 -8 5 -15 12 -15 9 0 9 -3 0 -12 -16 -16 -21 -8 -24 35 -4
52 -18 46 -18 -8z"/>
<path d="M530 460 c0 -5 4 -10 9 -10 6 0 13 5 16 10 3 6 -1 10 -9 10 -9 0 -16
-4 -16 -10z"/>
<path d="M13 443 c9 -2 23 -2 30 0 6 3 -1 5 -18 5 -17 0 -22 -2 -12 -5z"/>
<path d="M281 424 c0 -11 3 -14 6 -6 3 7 2 16 -1 19 -3 4 -6 -2 -5 -13z"/>
<path d="M310 410 c0 -16 4 -30 8 -30 5 0 9 14 10 30 0 17 -4 30 -9 30 -5 0
-9 -13 -9 -30z"/>
<path d="M340 410 c0 -27 3 -30 31 -30 18 0 28 4 24 10 -4 6 -14 9 -22 8 -9
-2 -18 3 -20 10 -3 7 5 12 19 13 13 0 32 4 43 9 15 6 8 9 -27 9 -47 1 -48 0
-48 -29z"/>
<path d="M59 322 c-2 -61 -1 -112 4 -112 4 0 7 15 8 33 0 17 2 48 3 67 1 19
-1 55 -4 80 -5 33 -8 14 -11 -68z"/>
<path d="M578 379 c-1 -28 0 -53 5 -56 4 -2 7 21 7 51 0 70 -7 73 -12 5z"/>
<path d="M609 425 c-3 -26 0 -97 5 -102 3 -3 6 19 6 50 0 31 -2 57 -5 57 -3 0
-5 -2 -6 -5z"/>
<path d="M645 420 c-3 -5 -1 -10 4 -10 6 0 11 5 11 10 0 6 -2 10 -4 10 -3 0
-8 -4 -11 -10z"/>
<path d="M930 395 c-8 -99 -1 -207 13 -184 1 2 0 54 -4 114 -3 61 -7 92 -9 70z"/>
<path d="M649 398 c-5 -16 -2 -71 3 -75 5 -2 8 14 8 36 0 23 -2 41 -5 41 -3 0
-5 -1 -6 -2z"/>
<path d="M30 369 c0 -15 -5 -19 -15 -15 -8 3 -15 1 -15 -4 0 -6 11 -10 24 -10
19 0 22 4 18 25 -5 30 -12 33 -12 4z"/>
<path d="M90 280 c0 -55 3 -100 8 -100 4 0 7 45 8 100 0 55 -4 100 -8 100 -4
0 -8 -45 -8 -100z"/>
<path d="M132 368 c6 -18 28 -21 28 -4 0 9 -7 16 -16 16 -9 0 -14 -5 -12 -12z"/>
<path d="M235 355 c2 -37 15 -43 15 -7 0 18 -4 32 -8 32 -4 0 -7 -11 -7 -25z"/>
<path d="M440 345 c0 -46 15 -46 16 0 0 19 -3 35 -8 35 -4 0 -8 -16 -8 -35z"/>
<path d="M470 345 c0 -26 4 -35 16 -35 13 0 14 3 4 15 -7 8 -10 24 -7 35 3 11
1 20 -4 20 -5 0 -9 -16 -9 -35z"/>
<path d="M750 318 c0 -34 3 -58 7 -54 9 9 10 116 1 116 -5 0 -8 -28 -8 -62z"/>
<path d="M411 328 c-1 -27 3 -48 7 -48 4 0 6 17 4 38 -5 58 -10 62 -11 10z"/>
<path d="M899 348 c-1 -13 -2 -34 -3 -48 -1 -14 -5 -31 -9 -37 -5 -8 -3 -13 7
-13 13 0 16 12 16 60 0 57 -9 85 -11 38z"/>
<path d="M340 350 c0 -5 5 -10 11 -10 5 0 7 5 4 10 -3 6 -8 10 -11 10 -2 0 -4
-4 -4 -10z"/>
<path d="M370 315 c0 -25 4 -45 8 -45 5 0 8 20 8 45 1 25 -3 45 -8 45 -4 0 -8
-20 -8 -45z"/>
<path d="M954 348 c-3 -4 6 -8 20 -8 14 0 26 4 26 8 0 4 -9 8 -21 8 -11 0 -23
-4 -25 -8z"/>
<path d="M130 253 c0 -47 3 -83 7 -80 3 4 6 35 6 69 0 35 4 71 9 81 6 12 5 17
-7 17 -12 0 -15 -15 -15 -87z"/>
<path d="M265 330 c3 -5 8 -10 11 -10 2 0 4 5 4 10 0 6 -5 10 -11 10 -5 0 -7
-4 -4 -10z"/>
<path d="M0 318 c0 -4 12 -8 27 -8 14 0 23 3 19 7 -10 10 -46 11 -46 1z"/>
<path d="M954 318 c-3 -4 6 -8 20 -8 14 0 26 4 26 8 0 4 -9 8 -21 8 -11 0 -23
-4 -25 -8z"/>
<path d="M235 290 c2 -31 15 -37 15 -7 0 15 -4 27 -8 27 -5 0 -8 -9 -7 -20z"/>
<path d="M265 300 c3 -5 8 -10 11 -10 2 0 4 5 4 10 0 6 -5 10 -11 10 -5 0 -7
-4 -4 -10z"/>
<path d="M295 300 c3 -5 8 -10 11 -10 2 0 4 5 4 10 0 6 -5 10 -11 10 -5 0 -7
-4 -4 -10z"/>
<path d="M560 302 c0 -5 -20 -8 -45 -7 -25 0 -45 -3 -45 -7 0 -4 27 -8 60 -8
47 0 60 3 60 15 0 8 -7 15 -15 15 -8 0 -15 -4 -15 -8z"/>
<path d="M603 289 c2 -21 -3 -22 -76 -24 -110 -3 -109 -15 1 -15 l92 0 0 30
c0 17 -4 30 -10 30 -5 0 -9 -10 -7 -21z"/>
<path d="M640 300 c0 -5 5 -10 10 -10 6 0 10 5 10 10 0 6 -4 10 -10 10 -5 0
-10 -4 -10 -10z"/>
<path d="M675 300 c3 -5 8 -10 11 -10 2 0 4 5 4 10 0 6 -5 10 -11 10 -5 0 -7
-4 -4 -10z"/>
<path d="M440 290 c0 -5 5 -10 11 -10 5 0 7 5 4 10 -3 6 -8 10 -11 10 -2 0 -4
-4 -4 -10z"/>
<path d="M962 270 c0 -19 2 -27 5 -17 2 9 2 25 0 35 -3 9 -5 1 -5 -18z"/>
<path d="M265 270 c3 -5 8 -10 11 -10 2 0 4 5 4 10 0 6 -5 10 -11 10 -5 0 -7
-4 -4 -10z"/>
<path d="M295 270 c3 -5 8 -10 11 -10 2 0 4 5 4 10 0 6 -5 10 -11 10 -5 0 -7
-4 -4 -10z"/>
<path d="M328 273 c7 -3 16 -2 19 1 4 3 -2 6 -13 5 -11 0 -14 -3 -6 -6z"/>
<path d="M663 273 c15 -2 39 -2 55 0 15 2 2 4 -28 4 -30 0 -43 -2 -27 -4z"/>
<path d="M780 270 c0 -5 4 -10 9 -10 6 0 13 5 16 10 3 6 -1 10 -9 10 -9 0 -16
-4 -16 -10z"/>
<path d="M858 224 c-2 -25 0 -48 4 -50 5 -3 8 18 8 45 0 64 -7 66 -12 5z"/>
<path d="M30 250 c0 -5 5 -10 11 -10 5 0 7 5 4 10 -3 6 -8 10 -11 10 -2 0 -4
-4 -4 -10z"/>
<path d="M234 242 c5 -9 166 -6 174 3 3 3 -36 5 -87 5 -51 0 -90 -4 -87 -8z"/>
<path d="M662 245 c9 -9 68 -12 74 -4 3 5 -14 9 -37 9 -23 0 -40 -2 -37 -5z"/>
<path d="M750 240 c0 -5 5 -10 10 -10 6 0 10 5 10 10 0 6 -4 10 -10 10 -5 0
-10 -4 -10 -10z"/>
<path d="M785 240 c3 -5 10 -10 16 -10 5 0 9 5 9 10 0 6 -7 10 -16 10 -8 0
-12 -4 -9 -10z"/>
<path d="M832 220 c0 -19 2 -27 5 -17 2 9 2 25 0 35 -3 9 -5 1 -5 -18z"/>
<path d="M162 215 c0 -16 2 -22 5 -12 2 9 2 23 0 30 -3 6 -5 -1 -5 -18z"/>
<path d="M899 238 c-5 -16 -3 -58 3 -58 4 0 8 14 8 30 0 17 -2 30 -5 30 -3 0
-5 -1 -6 -2z"/>
<path d="M4 204 c3 -9 6 -27 6 -40 0 -20 5 -24 30 -24 28 0 30 -3 30 -35 0
-33 2 -35 35 -35 32 0 35 -2 35 -30 0 -25 4 -30 24 -30 13 0 31 -3 40 -6 11
-4 16 -1 16 10 0 11 -9 16 -30 16 -27 0 -30 3 -30 30 0 28 -3 30 -35 30 -33 0
-35 2 -35 35 0 32 -2 35 -30 35 -27 0 -30 3 -30 30 0 21 -5 30 -16 30 -11 0
-14 -5 -10 -16z"/>
<path d="M254 211 c3 -5 17 -8 31 -8 14 0 25 3 25 8 0 5 -14 9 -31 9 -16 0
-28 -4 -25 -9z"/>
<path d="M324 213 c7 -7 77 -5 85 3 2 2 -17 4 -44 4 -27 0 -45 -3 -41 -7z"/>
<path d="M425 210 c3 -5 8 -10 11 -10 2 0 4 5 4 10 0 6 -5 10 -11 10 -5 0 -7
-4 -4 -10z"/>
<path d="M690 209 c0 -5 5 -7 10 -4 6 3 10 8 10 11 0 2 -4 4 -10 4 -5 0 -10
-5 -10 -11z"/>
<path d="M720 209 c0 -5 5 -7 10 -4 6 3 10 8 10 11 0 2 -4 4 -10 4 -5 0 -10
-5 -10 -11z"/>
<path d="M750 204 c0 -8 5 -12 10 -9 6 3 10 10 10 16 0 5 -4 9 -10 9 -5 0 -10
-7 -10 -16z"/>
<path d="M970 190 c0 -27 -3 -30 -30 -30 -28 0 -30 -3 -30 -35 0 -33 -2 -35
-35 -35 -32 0 -35 -2 -35 -30 0 -27 -3 -30 -30 -30 -21 0 -30 -5 -30 -16 0
-11 5 -14 16 -10 9 3 27 6 40 6 20 0 24 5 24 30 0 28 3 30 35 30 33 0 35 2 35
35 0 32 2 35 30 35 25 0 30 4 30 24 0 13 3 31 6 40 4 11 1 16 -10 16 -11 0
-16 -9 -16 -30z"/>
<path d="M284 182 c5 -9 403 -8 413 1 3 4 -89 7 -206 7 -117 0 -210 -3 -207
-8z"/>
<path d="M220 170 c0 -5 5 -10 11 -10 5 0 7 5 4 10 -3 6 -8 10 -11 10 -2 0 -4
-4 -4 -10z"/>
<path d="M763 163 c9 -2 25 -2 35 0 9 3 1 5 -18 5 -19 0 -27 -2 -17 -5z"/>
<path d="M110 150 c0 -5 5 -10 10 -10 6 0 10 5 10 10 0 6 -4 10 -10 10 -5 0
-10 -4 -10 -10z"/>
<path d="M324 149 c-3 -6 -15 -9 -25 -6 -11 3 -19 1 -19 -4 0 -5 14 -9 30 -9
20 0 30 5 30 15 0 18 -6 19 -16 4z"/>
<path d="M350 151 c0 -6 5 -13 10 -16 6 -3 10 1 10 9 0 9 -4 16 -10 16 -5 0
-10 -4 -10 -9z"/>
<path d="M384 152 c6 -10 212 -10 222 1 4 4 -45 7 -110 7 -64 0 -115 -4 -112
-8z"/>
<path d="M870 150 c0 -5 5 -10 10 -10 6 0 10 5 10 10 0 6 -4 10 -10 10 -5 0
-10 -4 -10 -10z"/>
<path d="M174 138 c-3 -4 12 -8 32 -8 21 0 34 3 31 7 -10 9 -58 10 -63 1z"/>
<path d="M250 140 c0 -5 5 -10 11 -10 5 0 7 5 4 10 -3 6 -8 10 -11 10 -2 0 -4
-4 -4 -10z"/>
<path d="M770 139 l-45 -6 58 -1 c31 -1 57 -6 57 -12 0 -5 5 -10 10 -10 6 0
10 4 10 8 0 17 -46 27 -90 21z"/>
<path d="M140 120 c0 -5 5 -10 10 -10 6 0 10 5 10 10 0 6 -4 10 -10 10 -5 0
-10 -4 -10 -10z"/>
<path d="M250 106 c0 -13 12 -16 63 -15 51 0 58 2 37 10 -13 6 -36 9 -50 7
-14 -1 -31 1 -38 5 -7 5 -12 3 -12 -7z"/>
<path d="M736 111 c-3 -5 -14 -7 -24 -5 -9 3 -35 1 -57 -5 -38 -9 -37 -9 28
-10 53 -1 67 2 67 14 0 17 -6 19 -14 6z"/>
<path d="M220 100 c0 -5 5 -10 11 -10 5 0 7 5 4 10 -3 6 -8 10 -11 10 -2 0 -4
-4 -4 -10z"/>
<path d="M763 98 c-2 -5 10 -8 26 -8 17 0 31 3 31 8 0 4 -12 7 -26 7 -14 0
-28 -3 -31 -7z"/>
<path d="M213 67 c-8 -12 -7 -12 112 -6 112 5 99 10 -33 13 -41 1 -76 -2 -79
-7z"/>
<path d="M605 70 c-28 -5 -6 -8 73 -11 69 -2 111 0 109 6 -4 11 -122 14 -182
5z"/>
<path d="M310 26 c0 -31 6 -34 13 -6 3 11 1 23 -4 26 -5 3 -9 -6 -9 -20z"/>
<path d="M340 26 c0 -31 6 -34 13 -6 3 11 1 23 -4 26 -5 3 -9 -6 -9 -20z"/>
<path d="M442 25 c0 -17 2 -22 5 -12 2 9 2 23 0 30 -3 6 -5 -1 -5 -18z"/>
<path d="M649 48 c-5 -17 -4 -48 3 -48 4 0 8 11 8 25 0 20 -7 34 -11 23z"/>
<path d="M677 43 c-3 -5 -1 -17 4 -28 7 -17 8 -17 8 8 1 27 -4 34 -12 20z"/>
<path d="M253 33 c9 -2 25 -2 35 0 9 3 1 5 -18 5 -19 0 -27 -2 -17 -5z"/>
<path d="M552 20 c0 -14 2 -19 5 -12 2 6 2 18 0 25 -3 6 -5 1 -5 -13z"/>
<path d="M713 33 c9 -2 25 -2 35 0 9 3 1 5 -18 5 -19 0 -27 -2 -17 -5z"/>
</g>
</svg>
