<?xml version="1.0" standalone="no"?>
<!DOCTYPE svg PUBLIC "-//W3C//DTD SVG 20010904//EN"
 "http://www.w3.org/TR/2001/REC-SVG-20010904/DTD/svg10.dtd">
<svg version="1.0" xmlns="http://www.w3.org/2000/svg"
 width="152.000000pt" height="152.000000pt" viewBox="0 0 152.000000 152.000000"
 preserveAspectRatio="xMidYMid meet">
<metadata>
Created by potrace 1.16, written by Peter Selinger 2001-2019
</metadata>
<g transform="translate(0.000000,152.000000) scale(0.100000,-0.100000)"
fill="#000000" stroke="none">
<path d="M334 1348 c10 -5 23 -5 34 1 14 8 10 10 -16 9 -26 -1 -30 -3 -18 -10z"/>
<path d="M390 1343 c-13 -15 -12 -16 4 -10 10 4 25 7 34 7 15 0 15 2 2 10 -20
13 -22 12 -40 -7z"/>
<path d="M455 1350 c-3 -5 1 -10 9 -10 9 0 16 5 16 10 0 6 -4 10 -9 10 -6 0
-13 -4 -16 -10z"/>
<path d="M548 1353 c7 -3 16 -2 19 1 4 3 -2 6 -13 5 -11 0 -14 -3 -6 -6z"/>
<path d="M958 1353 c7 -3 16 -2 19 1 4 3 -2 6 -13 5 -11 0 -14 -3 -6 -6z"/>
<path d="M1153 1349 c10 -6 23 -6 33 -1 12 7 8 9 -18 10 -26 1 -30 -1 -15 -9z"/>
<path d="M332 1326 c7 -7 19 -11 27 -8 11 4 10 7 -5 13 -29 12 -36 10 -22 -5z"/>
<path d="M440 1330 c-25 -3 -55 -12 -68 -18 -12 -7 -27 -10 -32 -7 -6 3 -24
-9 -40 -27 -17 -18 -30 -27 -30 -20 0 6 -5 12 -11 12 -6 0 -8 -9 -4 -21 5 -13
3 -19 -3 -15 -5 3 -13 -6 -16 -19 -4 -14 -11 -23 -15 -20 -5 3 -7 -3 -4 -14 3
-10 0 -22 -6 -25 -7 -4 -11 1 -11 13 0 11 -4 22 -9 26 -6 3 -6 -7 0 -27 11
-40 11 -40 1 -34 -4 2 -7 -28 -5 -67 l2 -72 -10 55 c-14 80 -19 84 -12 10 3
-36 10 -70 15 -77 11 -13 1 -71 -14 -90 -7 -9 -7 -13 0 -13 6 0 16 13 23 29
l13 30 23 -46 c12 -26 20 -50 18 -54 -3 -4 3 -6 12 -5 9 0 18 -5 21 -13 3 -10
0 -12 -11 -8 -9 3 -18 3 -21 -1 -3 -4 4 -8 14 -9 11 -1 22 2 25 8 4 5 11 9 16
9 6 0 8 -4 4 -9 -3 -5 4 -12 15 -16 11 -3 20 -11 20 -16 0 -5 14 -9 30 -9 17
0 30 -4 30 -10 0 -5 -14 -10 -31 -10 -16 0 -28 -4 -25 -9 3 -5 -6 -12 -19 -15
-14 -4 -23 -11 -20 -16 8 -14 -8 -13 -22 1 -8 8 -11 6 -10 -7 1 -12 -4 -19
-16 -18 -9 1 -17 -4 -17 -11 0 -7 -8 -32 -19 -55 -17 -38 -20 -40 -30 -24 -9
17 -10 16 -11 -8 0 -16 3 -28 8 -28 4 0 5 -26 3 -57 -2 -42 -6 -52 -12 -38
-11 30 -11 1 1 -31 7 -18 7 -30 0 -39 -12 -15 -3 -65 12 -65 6 0 7 13 3 32 -6
26 -4 30 5 21 7 -6 13 -23 13 -37 -1 -14 3 -23 8 -20 5 3 9 1 9 -4 0 -12 97
-111 103 -105 3 2 22 -3 43 -11 52 -19 188 -31 178 -15 -5 8 -3 9 6 4 7 -4 15
-4 19 1 3 5 30 22 59 37 39 20 57 25 66 18 9 -8 13 -7 13 4 0 8 -4 12 -8 9 -4
-2 -10 0 -14 6 -3 5 -2 10 4 10 6 0 13 11 17 25 3 14 10 23 14 20 10 -6 22 24
14 36 -3 5 4 9 16 9 12 0 19 -4 16 -9 -8 -13 4 -42 15 -35 5 3 9 -4 9 -16 0
-11 7 -23 15 -26 8 -4 12 -10 9 -15 -3 -5 -9 -7 -13 -5 -4 3 -8 -1 -8 -9 0
-11 4 -12 13 -4 9 7 27 2 66 -18 29 -15 56 -32 59 -37 4 -5 12 -5 19 -1 9 5
11 4 6 -4 -10 -16 126 -4 178 15 21 8 40 13 43 11 6 -6 103 93 103 105 0 5 4
7 9 4 5 -3 9 6 9 20 0 14 5 31 12 37 9 9 11 5 5 -21 -4 -19 -3 -32 3 -32 15 0
24 50 12 65 -7 9 -7 21 0 39 12 32 12 61 1 31 -6 -14 -10 -4 -12 38 -2 31 -1
57 4 57 4 0 7 12 7 28 -1 24 -2 25 -11 8 -10 -16 -13 -14 -30 24 -11 23 -19
48 -19 55 0 7 -8 12 -17 11 -12 -1 -17 6 -16 18 1 13 -2 15 -10 7 -14 -14 -30
-15 -22 -1 3 5 -6 12 -20 16 -13 3 -22 10 -19 15 3 5 -9 9 -25 9 -17 0 -31 5
-31 10 0 6 14 10 30 10 17 0 30 4 30 9 0 5 9 13 20 16 11 4 18 11 15 16 -4 5
-2 9 4 9 5 0 12 -4 16 -9 3 -6 14 -9 25 -8 10 1 17 5 14 9 -3 4 -12 4 -21 1
-11 -4 -14 -2 -11 8 3 8 12 13 21 13 9 -1 15 1 12 5 -2 4 7 30 20 57 14 27 25
41 25 32 0 -9 5 -20 11 -24 9 -5 10 4 5 30 -4 21 -3 43 2 49 5 7 12 41 15 77
7 74 2 70 -12 -10 l-10 -55 2 72 c2 39 -1 69 -5 67 -10 -6 -10 -6 1 34 6 20 6
30 0 27 -5 -4 -9 -15 -9 -26 0 -12 -4 -17 -11 -13 -6 3 -9 15 -6 25 3 11 1 17
-4 14 -4 -3 -11 6 -15 20 -3 13 -11 22 -16 19 -6 -4 -8 2 -3 15 4 12 2 21 -4
21 -6 0 -11 -6 -11 -12 0 -7 -13 2 -30 20 -16 18 -34 31 -39 27 -5 -3 -21 0
-36 7 -14 6 -21 14 -16 18 6 3 -44 5 -109 5 -87 0 -123 -4 -132 -14 -11 -11
-7 -12 22 -7 l35 7 -35 -18 c-19 -9 -36 -21 -38 -25 -2 -4 -12 -8 -23 -8 -12
0 -16 -5 -13 -15 6 -14 -6 -20 -30 -16 -5 1 -6 -7 -4 -17 3 -12 -2 -25 -13
-33 -11 -8 -19 -26 -19 -41 0 -15 -4 -28 -10 -28 -5 0 -10 13 -10 28 0 15 -8
33 -19 41 -12 9 -17 21 -13 34 3 11 1 18 -4 14 -6 -3 -16 -1 -24 4 -13 8 -13
10 0 20 12 9 11 10 -8 6 -12 -3 -25 0 -30 7 -4 6 -23 20 -42 29 l-35 18 35 -7
c29 -5 33 -4 22 7 -14 15 -110 19 -192 9z m133 -40 c56 -21 113 -72 143 -130
16 -29 19 -63 22 -208 l4 -174 -174 4 c-155 3 -177 5 -214 25 -61 33 -111 93
-130 159 -63 219 135 404 349 324z m594 -8 c113 -59 166 -188 129 -316 -19
-66 -69 -126 -130 -159 -37 -20 -59 -22 -214 -25 l-174 -4 4 174 c3 154 5 177
25 213 30 56 81 102 139 126 61 24 163 20 221 -9z m-429 -714 c-3 -155 -5
-177 -25 -214 -85 -159 -308 -192 -429 -62 -94 99 -97 252 -8 357 67 78 105
89 307 90 l159 1 -4 -172z m428 145 c95 -50 152 -158 140 -265 -7 -68 -25
-109 -70 -156 -121 -130 -344 -97 -429 62 -20 37 -22 59 -25 214 l-4 174 174
-4 c155 -3 177 -5 214 -25z"/>
<path d="M360 1245 c-8 -9 -8 -15 -2 -15 12 0 26 19 19 26 -2 2 -10 -2 -17
-11z"/>
<path d="M560 1249 c0 -5 5 -7 10 -4 6 3 10 8 10 11 0 2 -4 4 -10 4 -5 0 -10
-5 -10 -11z"/>
<path d="M392 1220 c0 -14 2 -19 5 -12 2 6 2 18 0 25 -3 6 -5 1 -5 -13z"/>
<path d="M641 1174 c0 -11 3 -14 6 -6 3 7 2 16 -1 19 -3 4 -6 -2 -5 -13z"/>
<path d="M272 1154 c-7 -8 -8 -14 -3 -14 10 0 25 19 20 25 -2 1 -10 -3 -17
-11z"/>
<path d="M298 1123 c7 -3 16 -2 19 1 4 3 -2 6 -13 5 -11 0 -14 -3 -6 -6z"/>
<path d="M307 940 c-3 -11 -1 -20 4 -20 5 0 9 9 9 20 0 11 -2 20 -4 20 -2 0
-6 -9 -9 -20z"/>
<path d="M275 939 c-4 -6 -5 -12 -2 -15 2 -3 7 2 10 11 7 17 1 20 -8 4z"/>
<path d="M348 873 c7 -3 16 -2 19 1 4 3 -2 6 -13 5 -11 0 -14 -3 -6 -6z"/>
<path d="M391 864 c0 -11 3 -14 6 -6 3 7 2 16 -1 19 -3 4 -6 -2 -5 -13z"/>
<path d="M945 1250 c3 -5 8 -10 11 -10 2 0 4 5 4 10 0 6 -5 10 -11 10 -5 0 -7
-4 -4 -10z"/>
<path d="M1140 1252 c0 -12 19 -26 26 -19 2 2 -2 10 -11 17 -9 8 -15 8 -15 2z"/>
<path d="M1122 1220 c0 -14 2 -19 5 -12 2 6 2 18 0 25 -3 6 -5 1 -5 -13z"/>
<path d="M871 1174 c0 -11 3 -14 6 -6 3 7 2 16 -1 19 -3 4 -6 -2 -5 -13z"/>
<path d="M1230 1164 c0 -5 7 -18 15 -28 8 -11 15 -16 15 -10 0 5 -7 18 -15 28
-8 11 -15 16 -15 10z"/>
<path d="M1200 940 c0 -11 4 -20 9 -20 5 0 7 9 4 20 -3 11 -7 20 -9 20 -2 0
-4 -9 -4 -20z"/>
<path d="M1236 937 c3 -10 9 -15 12 -12 3 3 0 11 -7 18 -10 9 -11 8 -5 -6z"/>
<path d="M1121 864 c0 -11 3 -14 6 -6 3 7 2 16 -1 19 -3 4 -6 -2 -5 -13z"/>
<path d="M1158 873 c7 -3 16 -2 19 1 4 3 -2 6 -13 5 -11 0 -14 -3 -6 -6z"/>
<path d="M391 654 c0 -11 3 -14 6 -6 3 7 2 16 -1 19 -3 4 -6 -2 -5 -13z"/>
<path d="M348 643 c7 -3 16 -2 19 1 4 3 -2 6 -13 5 -11 0 -14 -3 -6 -6z"/>
<path d="M312 585 c0 -16 2 -22 5 -12 2 9 2 23 0 30 -3 6 -5 -1 -5 -18z"/>
<path d="M271 583 c7 -12 15 -20 18 -17 3 2 -3 12 -13 22 -17 16 -18 16 -5 -5z"/>
<path d="M301 390 c0 -8 4 -22 9 -30 12 -18 12 -2 0 25 -6 13 -9 15 -9 5z"/>
<path d="M638 337 c-3 -15 -2 -27 3 -27 13 0 17 14 9 35 -6 17 -7 16 -12 -8z"/>
<path d="M360 311 c0 -5 9 -11 20 -14 24 -6 27 8 4 17 -21 8 -24 8 -24 -3z"/>
<path d="M580 316 c0 -2 7 -7 16 -10 8 -3 12 -2 9 4 -6 10 -25 14 -25 6z"/>
<path d="M570 290 c0 -5 5 -10 10 -10 6 0 10 5 10 10 0 6 -4 10 -10 10 -5 0
-10 -4 -10 -10z"/>
<path d="M378 263 c7 -3 16 -2 19 1 4 3 -2 6 -13 5 -11 0 -14 -3 -6 -6z"/>
<path d="M1121 654 c0 -11 3 -14 6 -6 3 7 2 16 -1 19 -3 4 -6 -2 -5 -13z"/>
<path d="M1158 643 c7 -3 16 -2 19 1 4 3 -2 6 -13 5 -11 0 -14 -3 -6 -6z"/>
<path d="M1202 585 c0 -16 2 -22 5 -12 2 9 2 23 0 30 -3 6 -5 -1 -5 -18z"/>
<path d="M1240 585 c-7 -9 -11 -17 -9 -20 3 -2 10 5 17 15 14 24 10 26 -8 5z"/>
<path d="M1211 393 c-1 -6 -4 -20 -7 -30 -5 -17 -5 -17 6 0 6 10 9 23 6 30 -3
9 -5 9 -5 0z"/>
<path d="M868 343 c-3 -13 -2 -26 4 -29 14 -9 16 -2 8 26 -6 25 -6 25 -12 3z"/>
<path d="M915 310 c-3 -6 1 -7 9 -4 18 7 21 14 7 14 -6 0 -13 -4 -16 -10z"/>
<path d="M1133 313 c-21 -8 -15 -22 7 -16 11 3 20 9 20 14 0 10 -8 10 -27 2z"/>
<path d="M930 290 c0 -5 5 -10 10 -10 6 0 10 5 10 10 0 6 -4 10 -10 10 -5 0
-10 -4 -10 -10z"/>
<path d="M1128 263 c7 -3 16 -2 19 1 4 3 -2 6 -13 5 -11 0 -14 -3 -6 -6z"/>
<path d="M1166 1331 c-15 -6 -16 -9 -5 -13 8 -3 20 1 27 8 14 15 7 17 -22 5z"/>
<path d="M801 1264 c0 -11 3 -14 6 -6 3 7 2 16 -1 19 -3 4 -6 -2 -5 -13z"/>
<path d="M162 1170 c0 -19 2 -27 5 -17 2 9 2 25 0 35 -3 9 -5 1 -5 -18z"/>
<path d="M1352 1170 c0 -19 2 -27 5 -17 2 9 2 25 0 35 -3 9 -5 1 -5 -18z"/>
<path d="M161 944 c0 -11 3 -14 6 -6 3 7 2 16 -1 19 -3 4 -6 -2 -5 -13z"/>
<path d="M1351 944 c0 -11 3 -14 6 -6 3 7 2 16 -1 19 -3 4 -6 -2 -5 -13z"/>
<path d="M165 630 c3 -5 8 -10 11 -10 2 0 4 5 4 10 0 6 -5 10 -11 10 -5 0 -7
-4 -4 -10z"/>
<path d="M1340 629 c0 -5 5 -7 10 -4 6 3 10 8 10 11 0 2 -4 4 -10 4 -5 0 -10
-5 -10 -11z"/>
<path d="M163 545 c0 -22 2 -30 4 -17 2 12 2 30 0 40 -3 9 -5 -1 -4 -23z"/>
<path d="M1353 545 c0 -22 2 -30 4 -17 2 12 2 30 0 40 -3 9 -5 -1 -4 -23z"/>
<path d="M245 265 c0 -14 5 -25 12 -25 13 0 11 26 -3 40 -5 5 -9 0 -9 -15z"/>
<path d="M1263 278 c-12 -21 -12 -38 0 -38 7 0 12 11 12 25 0 29 -1 30 -12 13z"/>
<path d="M331 196 c-10 -12 -8 -13 8 -9 12 3 18 9 15 14 -7 12 -10 11 -23 -5z"/>
<path d="M625 200 c3 -5 8 -10 11 -10 2 0 4 5 4 10 0 6 -5 10 -11 10 -5 0 -7
-4 -4 -10z"/>
<path d="M880 199 c0 -5 5 -7 10 -4 6 3 10 8 10 11 0 2 -4 4 -10 4 -5 0 -10
-5 -10 -11z"/>
<path d="M1166 201 c-3 -5 3 -11 15 -14 16 -4 18 -3 8 9 -13 16 -16 17 -23 5z"/>
<path d="M333 172 c-8 -5 1 -8 22 -8 21 0 30 3 22 8 -6 4 -16 8 -22 8 -5 0
-16 -4 -22 -8z"/>
<path d="M455 170 c3 -5 16 -10 28 -10 18 0 19 2 7 10 -20 13 -43 13 -35 0z"/>
<path d="M593 173 c9 -2 25 -2 35 0 9 3 1 5 -18 5 -19 0 -27 -2 -17 -5z"/>
<path d="M893 173 c9 -2 25 -2 35 0 9 3 1 5 -18 5 -19 0 -27 -2 -17 -5z"/>
<path d="M1030 170 c-12 -8 -11 -10 7 -10 12 0 25 5 28 10 8 13 -15 13 -35 0z"/>
<path d="M1170 170 c8 -5 20 -10 25 -10 6 0 3 5 -5 10 -8 5 -19 10 -25 10 -5
0 -3 -5 5 -10z"/>
<path d="M408 163 c7 -3 16 -2 19 1 4 3 -2 6 -13 5 -11 0 -14 -3 -6 -6z"/>
<path d="M1098 163 c7 -3 16 -2 19 1 4 3 -2 6 -13 5 -11 0 -14 -3 -6 -6z"/>
</g>
</svg>
