<?xml version="1.0" standalone="no"?>
<!DOCTYPE svg PUBLIC "-//W3C//DTD SVG 20010904//EN"
 "http://www.w3.org/TR/2001/REC-SVG-20010904/DTD/svg10.dtd">
<svg version="1.0" xmlns="http://www.w3.org/2000/svg"
 width="100.000000pt" height="100.000000pt" viewBox="0 0 100.000000 100.000000"
 preserveAspectRatio="xMidYMid meet">
<metadata>
Created by potrace 1.16, written by Peter Selinger 2001-2019
</metadata>
<g transform="translate(0.000000,100.000000) scale(0.100000,-0.100000)"
fill="#000000" stroke="none">
<path d="M198 993 l-158 -4 0 -124 c0 -104 -2 -125 -15 -125 -11 0 -15 -11
-15 -39 0 -22 -3 -46 -6 -55 -4 -11 -1 -16 10 -16 9 0 16 7 16 15 0 8 7 15 15
15 13 0 15 -22 15 -140 0 -118 2 -140 15 -140 10 0 15 -11 15 -35 0 -24 -5
-35 -15 -35 -10 0 -15 11 -15 35 0 32 -2 35 -30 35 -17 0 -30 -4 -30 -10 0 -5
3 -10 8 -10 4 0 5 -22 4 -50 -3 -41 -1 -50 12 -50 14 0 16 -16 16 -110 l0
-110 110 0 c91 0 110 -3 110 -15 0 -11 11 -15 39 -15 22 0 46 -3 55 -6 11 -4
16 -1 16 10 0 9 8 16 20 16 11 0 20 7 20 15 0 11 -12 15 -50 15 -38 0 -50 4
-50 15 0 11 12 15 48 15 59 0 67 -6 76 -51 l6 -35 60 0 c43 0 60 3 60 13 0 7
4 13 9 13 5 0 7 9 4 21 -8 28 11 39 70 39 35 0 47 -4 47 -15 0 -11 -12 -15
-50 -15 -38 0 -50 -4 -50 -15 0 -8 7 -15 15 -15 8 0 15 -7 15 -16 0 -11 5 -14
16 -10 9 3 36 6 60 6 32 0 44 4 44 15 0 12 19 15 110 15 l110 0 0 110 c0 91 3
110 15 110 11 0 15 12 15 44 0 24 3 51 6 60 5 13 -1 16 -25 16 -29 0 -31 -3
-31 -35 0 -24 -5 -35 -15 -35 -10 0 -15 11 -15 35 0 24 5 35 15 35 13 0 15 22
15 140 0 118 2 140 15 140 8 0 15 -7 15 -15 0 -8 7 -15 16 -15 11 0 14 5 10
16 -3 9 -6 33 -6 55 0 28 -4 39 -15 39 -13 0 -15 21 -15 125 l0 125 -154 0
c-85 0 -161 3 -170 6 -11 4 -16 1 -16 -10 0 -14 20 -16 160 -16 l160 0 0 -110
0 -110 -32 -1 c-18 -1 -25 -3 -15 -6 9 -2 17 -9 17 -14 0 -5 14 -9 30 -9 20 0
30 -5 30 -15 0 -8 -7 -15 -15 -15 -8 0 -15 -7 -15 -15 0 -8 -7 -15 -15 -15
-10 0 -15 10 -15 30 0 23 -4 30 -20 30 -15 0 -20 7 -20 29 0 26 4 30 33 33
l32 4 -28 12 c-15 6 -30 19 -33 27 -4 8 -12 15 -20 15 -8 0 -14 7 -14 15 0 8
-6 15 -14 15 -16 0 -26 21 -26 56 0 19 -5 24 -24 24 -13 0 -31 3 -40 6 -9 3
-16 1 -16 -5 0 -6 14 -11 30 -11 28 0 30 -3 30 -35 0 -24 -5 -35 -15 -35 -8 0
-15 9 -15 20 0 16 -7 20 -30 20 -20 0 -30 5 -30 15 0 12 -14 15 -65 15 l-65 0
0 30 c0 17 -4 30 -10 30 -5 0 -10 -6 -10 -12 0 -9 -3 -9 -8 -2 -4 5 -18 10
-32 10 -14 0 -28 -5 -32 -10 -5 -7 -8 -7 -8 2 0 6 -4 12 -10 12 -5 0 -10 -13
-10 -30 l0 -30 -65 0 c-51 0 -65 -3 -65 -15 0 -10 -10 -15 -30 -15 -23 0 -30
-4 -30 -20 0 -11 -7 -20 -15 -20 -10 0 -15 11 -15 35 0 32 2 35 30 35 17 0 30
5 30 11 0 6 -7 8 -16 5 -9 -3 -27 -6 -40 -6 -15 0 -24 -6 -24 -16 0 -23 -43
-94 -57 -94 -7 0 -13 -7 -13 -15 0 -8 -8 -15 -19 -15 -10 0 -24 -7 -31 -15
-11 -13 -8 -15 19 -15 21 0 31 5 31 15 0 8 7 15 15 15 8 0 15 -7 15 -15 0 -8
-7 -15 -15 -15 -8 0 -15 -7 -15 -15 0 -8 -7 -15 -16 -15 -14 0 -14 -3 -4 -15
10 -12 10 -15 -4 -15 -11 0 -16 -9 -16 -30 0 -20 -5 -30 -15 -30 -8 0 -15 7
-15 15 0 8 -7 15 -15 15 -8 0 -15 7 -15 15 0 10 10 15 30 15 20 0 30 5 30 15
0 8 -7 15 -15 15 -12 0 -15 19 -15 110 l0 110 155 0 c131 0 155 2 155 15 0 8
-3 14 -7 13 -5 -1 -79 -4 -165 -5z m349 -45 c-2 -21 2 -23 61 -26 46 -2 62 -7
62 -17 0 -8 6 -15 13 -15 7 0 18 -9 25 -20 7 -11 21 -20 32 -20 11 0 20 -7 20
-15 0 -8 7 -15 15 -15 8 0 15 -7 15 -15 0 -8 7 -15 15 -15 8 0 15 -7 15 -15 0
-8 7 -15 15 -15 9 0 15 -9 15 -25 l0 -25 -290 0 -290 0 0 30 c0 29 -2 30 -45
30 -25 0 -45 5 -45 10 0 6 7 10 15 10 8 0 15 7 15 15 0 8 7 15 15 15 8 0 15 7
15 15 0 8 9 15 20 15 11 0 25 9 32 20 7 11 18 20 25 20 7 0 13 7 13 15 0 10
16 15 63 17 58 3 62 5 60 26 -3 20 1 22 47 22 46 0 50 -2 47 -22z m-271 -75
c-10 -10 -19 5 -10 18 6 11 8 11 12 0 2 -7 1 -15 -2 -18z m464 6 c0 -5 -4 -9
-10 -9 -5 0 -10 7 -10 16 0 8 5 12 10 9 6 -3 10 -10 10 -16z m-520 -24 c0 -8
-7 -15 -15 -15 -8 0 -15 -7 -15 -15 0 -8 -7 -15 -15 -15 -8 0 -15 7 -15 15 0
8 7 15 15 15 8 0 15 7 15 15 0 8 7 15 15 15 8 0 15 -7 15 -15z m590 0 c0 -8 7
-15 15 -15 8 0 15 -7 15 -15 0 -8 7 -15 15 -15 8 0 15 -7 15 -15 0 -8 -7 -15
-15 -15 -8 0 -15 7 -15 15 0 8 -7 15 -15 15 -8 0 -15 7 -15 15 0 8 -7 15 -15
15 -8 0 -15 7 -15 15 0 8 7 15 15 15 8 0 15 -7 15 -15z m-560 -115 c0 -5 -7
-7 -15 -4 -8 4 -15 1 -15 -5 0 -6 7 -11 15 -11 11 0 15 -12 15 -45 0 -25 4
-45 10 -45 5 0 7 7 4 15 -4 8 -1 15 6 15 7 0 10 7 6 15 -5 13 30 15 279 15
l285 0 -1 -97 c0 -56 -4 -90 -8 -79 -4 11 -7 32 -6 48 1 15 -2 28 -7 28 -4 0
-8 -27 -8 -60 l0 -60 -220 0 -220 0 0 -45 0 -45 205 0 205 0 0 -35 0 -35 -220
0 -220 0 0 35 c0 19 -5 35 -11 35 -6 0 -8 -9 -4 -20 4 -11 2 -20 -4 -20 -6 0
-11 21 -11 50 0 30 -4 50 -11 50 -6 0 -9 -7 -5 -15 3 -8 1 -15 -4 -15 -6 0
-10 20 -10 45 0 44 -14 61 -23 28 -3 -10 -5 10 -6 45 0 34 -5 62 -11 62 -5 0
-7 -7 -4 -15 4 -8 1 -15 -5 -15 -7 0 -11 20 -11 50 0 28 -4 50 -10 50 -5 0 -7
-7 -4 -15 4 -8 1 -15 -5 -15 -6 0 -11 14 -11 30 0 27 -3 30 -30 30 -27 0 -30
3 -30 30 l0 30 60 0 c33 0 60 -4 60 -10z m620 -65 c0 -8 -2 -15 -4 -15 -2 0
-6 7 -10 15 -3 8 -1 15 4 15 6 0 10 -7 10 -15z m-700 -50 c0 -31 5 -47 15 -51
8 -4 15 -17 15 -30 0 -14 7 -27 15 -30 9 -4 15 -19 15 -35 0 -19 5 -29 15 -29
10 0 15 -10 15 -30 0 -20 5 -30 15 -30 10 0 15 -11 15 -35 0 -24 5 -35 15 -35
8 0 15 -7 15 -15 0 -8 7 -15 15 -15 9 0 15 -10 15 -26 0 -17 6 -28 20 -31 11
-3 20 -12 20 -19 0 -8 6 -14 14 -14 8 0 16 -7 20 -15 7 -19 55 -19 62 0 4 8
12 15 20 15 10 0 14 13 14 45 l0 45 40 0 c36 0 40 -2 40 -26 0 -17 6 -28 20
-31 11 -3 20 -12 20 -19 0 -8 6 -14 14 -14 8 0 16 -7 20 -15 3 -8 17 -15 31
-15 14 0 25 -4 25 -10 0 -5 -12 -10 -26 -10 -17 0 -28 -6 -31 -20 -4 -16 -14
-20 -49 -20 -30 0 -46 -5 -50 -15 -5 -11 -23 -15 -74 -15 -51 0 -69 4 -74 15
-4 10 -20 15 -50 15 -35 0 -45 4 -49 20 -3 14 -14 20 -31 20 -16 0 -26 6 -26
15 0 8 -4 15 -10 15 -12 0 -80 68 -80 80 0 6 -7 10 -15 10 -8 0 -15 7 -15 15
0 8 -9 15 -20 15 -17 0 -20 7 -20 45 0 31 -5 47 -15 51 -12 5 -15 28 -15 120
0 127 10 152 63 153 26 1 27 -1 27 -44z m750 -105 c0 -96 -3 -119 -15 -124
-10 -4 -15 -20 -15 -51 0 -38 -3 -45 -20 -45 -11 0 -20 -7 -20 -15 0 -8 -7
-15 -15 -15 -8 0 -15 -4 -15 -10 0 -10 -36 -50 -45 -50 -3 0 -5 18 -5 40 0 29
4 40 15 40 12 0 15 13 15 55 l0 55 -205 0 c-130 0 -205 4 -205 10 0 6 7 10 15
10 9 0 18 7 21 15 5 13 37 15 205 15 163 0 199 2 199 14 0 8 7 16 15 20 11 4
15 23 15 80 0 76 6 88 43 78 15 -4 17 -18 17 -122z m50 -190 c0 -5 -2 -10 -4
-10 -3 0 -8 5 -11 10 -3 6 -1 10 4 10 6 0 11 -4 11 -10z m-910 -30 c0 -5 16
-12 35 -16 20 -3 35 -12 35 -20 0 -8 7 -14 15 -14 18 0 20 -27 2 -33 -7 -2 -8
-8 -3 -13 5 -5 11 -4 13 4 8 20 36 15 30 -7 -3 -14 0 -17 14 -14 13 4 19 0 19
-11 0 -9 7 -16 15 -16 8 0 15 -7 15 -15 0 -10 10 -15 30 -15 23 0 30 -4 30
-20 0 -16 -7 -20 -30 -20 -20 0 -30 -5 -30 -15 0 -12 -17 -15 -95 -15 l-95 0
0 95 c0 78 3 95 15 95 8 0 15 7 15 15 0 10 -10 15 -30 15 -20 0 -30 5 -30 15
0 8 7 15 15 15 8 0 15 -4 15 -10z m910 -5 c0 -10 -10 -15 -30 -15 -20 0 -30
-5 -30 -15 0 -8 7 -15 15 -15 12 0 15 -17 15 -95 l0 -95 -95 0 c-78 0 -95 3
-95 15 0 10 -10 15 -30 15 -23 0 -30 4 -30 20 0 16 7 20 30 20 20 0 30 5 30
15 0 8 7 15 15 15 8 0 15 -7 15 -15 0 -10 10 -15 30 -15 20 0 30 5 30 15 0 10
-10 15 -30 15 -20 0 -30 5 -30 15 0 8 7 15 15 15 8 0 15 -5 15 -11 0 -5 5 -7
12 -3 9 6 9 9 0 12 -17 5 -15 32 3 32 10 0 15 -10 15 -30 0 -20 5 -30 15 -30
8 0 15 7 15 15 0 8 -4 15 -10 15 -5 0 -7 7 -4 15 4 8 1 15 -5 15 -6 0 -11 7
-11 15 0 8 7 15 15 15 8 0 15 6 15 14 0 8 15 17 35 20 19 4 35 11 35 16 0 6 7
10 15 10 8 0 15 -7 15 -15z m-580 -30 c0 -8 -4 -15 -10 -15 -5 0 -10 7 -10 15
0 8 5 15 10 15 6 0 10 -7 10 -15z m80 -15 c0 -27 -3 -30 -30 -30 -27 0 -30 3
-30 30 0 27 3 30 30 30 27 0 30 -3 30 -30z m30 0 c0 -39 -15 -39 -16 0 -1 17
3 30 7 30 5 0 9 -13 9 -30z m140 15 c0 -8 -4 -15 -10 -15 -5 0 -10 7 -10 15 0
8 5 15 10 15 6 0 10 -7 10 -15z m80 -15 c0 -27 -3 -30 -30 -30 -27 0 -30 3
-30 30 0 27 3 30 30 30 27 0 30 -3 30 -30z m30 0 c0 -39 -15 -39 -16 0 -1 17
3 30 7 30 5 0 9 -13 9 -30z m-283 -56 c-3 -3 -12 -4 -19 -1 -8 3 -5 6 6 6 11
1 17 -2 13 -5z m250 0 c-3 -3 -12 -4 -19 -1 -8 3 -5 6 6 6 11 1 17 -2 13 -5z
m43 -4 c0 -5 -4 -10 -10 -10 -5 0 -10 5 -10 10 0 6 5 10 10 10 6 0 10 -4 10
-10z m-450 -145 c0 -8 -7 -15 -15 -15 -8 0 -15 7 -15 15 0 8 7 15 15 15 8 0
15 -7 15 -15z m250 0 c0 -12 -13 -15 -60 -15 -47 0 -60 3 -60 15 0 12 13 15
60 15 47 0 60 -3 60 -15z m160 0 c0 -8 -7 -15 -15 -15 -8 0 -15 7 -15 15 0 8
7 15 15 15 8 0 15 -7 15 -15z m-380 -5 c0 -5 -5 -10 -11 -10 -5 0 -7 5 -4 10
3 6 8 10 11 10 2 0 4 -4 4 -10z m335 0 c3 -5 1 -10 -4 -10 -6 0 -11 5 -11 10
0 6 2 10 4 10 3 0 8 -4 11 -10z"/>
<path d="M145 731 c-3 -5 -1 -12 5 -16 5 -3 10 1 10 9 0 18 -6 21 -15 7z"/>
<path d="M180 713 c0 -10 4 -14 8 -8 4 6 11 13 16 18 5 4 2 7 -7 7 -10 0 -17
-8 -17 -17z"/>
<path d="M293 669 c-16 -16 -17 -109 -2 -109 5 0 7 5 3 11 -3 6 -1 15 5 19 7
4 11 24 9 49 -2 34 -5 40 -15 30z"/>
<path d="M810 670 c0 -5 5 -10 11 -10 5 0 7 5 4 10 -3 6 -8 10 -11 10 -2 0 -4
-4 -4 -10z"/>
<path d="M370 625 c0 -19 5 -35 11 -35 6 0 9 9 6 20 -3 13 0 20 9 20 10 0 14
-14 14 -50 0 -30 4 -50 11 -50 6 0 9 7 5 15 -3 8 -1 15 4 15 6 0 10 -13 10
-30 l0 -30 155 0 155 0 0 72 c0 81 6 87 14 14 7 -72 16 -68 16 7 l0 67 -205 0
-205 0 0 -35z m360 -45 l0 -60 -135 0 -135 0 0 29 c0 16 -7 36 -15 45 -8 8
-15 22 -15 30 0 14 20 16 150 16 l150 0 0 -60z"/>
<path d="M325 610 c4 -11 2 -20 -4 -20 -6 0 -11 -20 -11 -45 0 -26 5 -45 11
-45 6 0 9 7 5 15 -3 8 -1 15 4 15 6 0 10 23 10 50 0 29 -5 50 -11 50 -6 0 -8
-9 -4 -20z"/>
<path d="M811 614 c0 -11 3 -14 6 -6 3 7 2 16 -1 19 -3 4 -6 -2 -5 -13z"/>
<path d="M356 545 c4 -8 1 -15 -5 -15 -6 0 -11 -19 -11 -45 0 -48 14 -60 24
-22 9 35 7 97 -4 97 -5 0 -7 -7 -4 -15z"/>
<path d="M770 511 c0 -6 4 -13 10 -16 6 -3 7 1 4 9 -7 18 -14 21 -14 7z"/>
<path d="M305 469 c-4 -6 -5 -12 -2 -15 2 -3 7 2 10 11 7 17 1 20 -8 4z"/>
<path d="M370 356 c0 -14 22 -16 200 -16 121 0 200 4 200 10 0 13 -359 18
-363 5 -2 -6 -11 -4 -20 4 -15 12 -17 11 -17 -3z"/>
<path d="M87 228 c-4 -12 -4 -24 -2 -27 3 -2 5 1 5 7 0 7 9 12 20 12 11 0 20
7 20 15 0 24 -37 18 -43 -7z"/>
<path d="M130 175 c0 -8 7 -15 15 -15 8 0 15 -7 15 -15 0 -10 10 -15 30 -15
23 0 30 -4 30 -20 0 -11 -5 -20 -12 -20 -6 0 -9 -2 -7 -5 3 -2 15 -2 27 2 25
6 31 43 7 43 -8 0 -15 7 -15 15 0 10 -10 15 -30 15 -20 0 -30 5 -30 15 0 8 -7
15 -15 15 -8 0 -15 -7 -15 -15z"/>
<path d="M870 235 c0 -8 9 -15 20 -15 22 0 28 -25 8 -33 -10 -4 -10 -6 -1 -6
18 -1 24 15 17 44 -7 27 -44 36 -44 10z"/>
<path d="M750 111 c0 -12 9 -21 25 -25 29 -7 45 -1 44 17 0 9 -2 9 -6 0 -8
-21 -33 -15 -33 7 0 11 -7 20 -15 20 -8 0 -15 -9 -15 -19z"/>
<path d="M410 979 c0 -11 5 -17 10 -14 6 3 10 13 10 21 0 8 -4 14 -10 14 -5 0
-10 -9 -10 -21z"/>
<path d="M570 986 c0 -8 5 -18 10 -21 6 -3 10 3 10 14 0 12 -4 21 -10 21 -5 0
-10 -6 -10 -14z"/>
<path d="M0 580 c0 -5 6 -10 13 -10 8 0 8 -3 1 -8 -6 -4 -10 -32 -10 -62 0
-30 4 -58 10 -62 7 -5 7 -8 -1 -8 -19 0 -16 -17 5 -22 15 -4 17 4 14 89 -3 72
-7 93 -18 93 -8 0 -14 -4 -14 -10z"/>
<path d="M968 497 c-3 -85 -1 -93 15 -89 20 5 23 22 5 22 -9 0 -9 3 -2 8 6 4
10 32 10 62 0 30 -4 58 -10 62 -7 5 -7 8 2 8 6 0 12 5 12 10 0 6 -6 10 -14 10
-11 0 -15 -21 -18 -93z"/>
<path d="M410 10 c0 -5 5 -10 11 -10 5 0 7 5 4 10 -3 6 -8 10 -11 10 -2 0 -4
-4 -4 -10z"/>
<path d="M575 10 c-3 -5 -1 -10 4 -10 6 0 11 5 11 10 0 6 -2 10 -4 10 -3 0 -8
-4 -11 -10z"/>
</g>
</svg>
