<?xml version="1.0" standalone="no"?>
<!DOCTYPE svg PUBLIC "-//W3C//DTD SVG 20010904//EN"
 "http://www.w3.org/TR/2001/REC-SVG-20010904/DTD/svg10.dtd">
<svg version="1.0" xmlns="http://www.w3.org/2000/svg"
 width="256.000000pt" height="256.000000pt" viewBox="0 0 256.000000 256.000000"
 preserveAspectRatio="xMidYMid meet">
<metadata>
Created by potrace 1.16, written by Peter Selinger 2001-2019
</metadata>
<g transform="translate(0.000000,256.000000) scale(0.100000,-0.100000)"
fill="#000000" stroke="none">
<path d="M2258 1643 c-23 -11 -28 -21 -28 -51 1 -20 7 -48 15 -62 16 -29 20
-70 6 -70 -6 0 -13 5 -16 10 -3 6 -17 10 -30 10 -13 0 -27 5 -30 10 -3 6 -17
10 -29 10 -29 0 -56 -38 -56 -78 0 -32 18 -43 95 -58 l40 -8 -35 -3 c-124 -10
-140 -14 -140 -34 0 -16 -7 -19 -41 -19 l-40 0 23 33 c12 17 39 55 60 82 22
30 38 61 38 78 0 27 0 27 -67 27 l-68 -1 -45 -61 c-25 -33 -59 -78 -77 -99
-17 -22 -33 -44 -36 -51 -2 -7 -7 -10 -11 -6 -4 3 20 40 53 81 45 56 61 83 61
106 l0 31 -64 0 -64 0 -83 -106 c-46 -58 -90 -117 -97 -130 -14 -26 -28 -31
-118 -37 -64 -5 -121 -29 -173 -72 l-31 -27 0 31 c0 18 -9 40 -20 51 -19 19
-29 20 -148 14 l-127 -7 -64 -66 c-35 -36 -54 -52 -43 -35 12 17 28 37 37 44
8 7 15 19 15 27 0 8 11 31 25 51 29 42 34 109 10 118 -12 5 -9 13 16 41 36 42
49 72 49 117 0 53 -27 70 -103 64 -75 -6 -111 -23 -198 -94 -64 -52 -184 -186
-208 -232 -11 -21 -18 -23 -49 -17 -45 8 -79 26 -115 60 -27 26 -31 36 -27 65
3 24 68 80 118 102 41 18 59 20 150 14 l103 -6 -3 32 c-5 46 -53 60 -193 56
-100 -4 -115 -7 -170 -35 -83 -44 -110 -86 -110 -172 0 -60 3 -70 34 -109 34
-42 43 -46 170 -81 24 -7 23 -8 -31 -72 -37 -43 -61 -63 -74 -61 -10 1 -46 7
-79 13 -67 12 -183 6 -214 -11 -17 -9 -21 -20 -21 -66 0 -48 3 -56 23 -63 12
-5 126 -9 252 -9 189 0 239 3 281 17 49 16 52 16 63 0 9 -16 27 -18 137 -18
l126 0 65 67 c35 37 60 57 54 45 -14 -28 -14 -69 -1 -94 15 -26 111 -27 162
-1 35 18 37 18 52 0 20 -23 108 -25 150 -3 26 14 31 14 46 0 24 -22 117 -20
156 4 30 18 31 18 42 0 10 -15 24 -19 68 -19 64 0 81 7 152 68 43 36 52 50 50
71 -2 20 -9 27 -31 29 -16 2 -36 -3 -45 -10 -24 -20 -8 5 56 85 l54 67 70 0
c61 0 71 2 75 20 3 11 11 20 18 20 21 0 27 -31 10 -50 -9 -10 -18 -33 -21 -51
-7 -44 32 -89 76 -89 17 0 30 -4 30 -10 0 -5 7 -10 15 -10 8 0 15 -9 15 -20 0
-13 -7 -20 -18 -20 -25 0 -42 -20 -42 -49 1 -45 22 -61 78 -61 65 0 82 7 82
34 1 19 2 19 13 4 7 -9 31 -21 52 -26 55 -14 165 -14 182 -1 17 15 17 68 -1
88 -15 18 -29 91 -16 91 4 0 10 19 13 43 2 23 8 52 12 65 5 14 3 22 -4 22 -17
0 -41 -63 -34 -88 5 -20 2 -21 -26 -16 -18 4 -37 2 -45 -6 -9 -6 -25 -9 -38
-5 -14 4 -18 3 -11 -2 9 -6 10 -18 4 -39 -4 -16 -4 -39 0 -52 12 -32 19 -27
12 11 -5 36 15 67 44 67 24 0 53 -39 53 -71 0 -17 8 -34 22 -43 21 -15 21 -16
3 -36 -21 -23 -57 -28 -49 -6 5 12 0 12 -32 1 -59 -20 -108 -3 -133 49 -13 26
-20 34 -21 22 0 -11 -3 -16 -7 -13 -3 4 -13 -2 -20 -13 -11 -16 -12 -24 -4
-34 15 -18 -16 -31 -34 -16 -9 8 -15 8 -20 0 -10 -16 -29 -12 -43 11 -12 18
-11 24 2 37 12 13 18 13 30 2 14 -11 16 -7 16 34 0 60 0 61 -11 58 -5 -1 -20
7 -32 18 -12 12 -23 16 -25 10 -6 -17 -20 -12 -46 17 -17 18 -22 31 -16 38 6
7 8 14 5 17 -3 3 1 11 10 18 10 8 15 9 15 2 0 -6 7 -9 15 -6 10 4 15 0 15 -15
0 -16 6 -21 24 -21 24 0 56 23 56 41 0 5 21 19 46 32 46 23 46 24 15 24 -17 0
-31 -4 -31 -8 0 -4 -27 -8 -60 -8 -58 1 -90 15 -90 40 0 5 -8 9 -18 9 -10 0
-18 8 -19 20 -1 16 2 18 23 10 17 -7 23 -6 21 3 -1 9 22 12 83 13 47 1 89 2
94 3 20 3 -59 51 -93 57 -52 8 -91 25 -91 38 0 6 9 22 20 36 17 22 20 23 25 8
5 -13 14 -16 30 -12 15 4 26 0 32 -9 5 -9 18 -13 38 -10 27 4 30 8 29 41 -1
21 -9 52 -18 69 -24 47 -20 60 20 79 29 14 40 15 55 6 10 -7 25 -12 33 -12 22
0 24 -21 8 -60 -8 -19 -15 -54 -16 -77 -1 -35 2 -42 21 -46 13 -2 24 2 27 9 7
17 46 18 47 2 0 -7 5 -2 10 11 l9 23 25 -23 c42 -41 41 -42 -93 -81 -18 -6
-36 -16 -39 -24 -3 -8 -11 -14 -19 -14 -8 0 -14 -5 -14 -12 0 -6 3 -8 7 -5 15
15 43 -27 45 -67 l1 -41 6 45 c3 25 9 43 12 40 4 -3 15 2 25 11 23 21 106 64
117 61 15 -4 -7 84 -27 105 -21 23 -60 31 -70 14 -3 -5 -19 -11 -36 -13 -36
-5 -39 10 -14 72 19 48 12 90 -16 90 -10 0 -22 5 -25 10 -9 14 -75 10 -107 -7z
m-1274 -82 c26 -29 13 -70 -45 -136 -51 -58 -58 -70 -36 -62 18 6 47 -11 47
-30 0 -28 -41 -83 -66 -89 -28 -7 -54 10 -54 36 0 10 12 33 27 52 l28 33 -41
-35 c-88 -76 -105 -86 -189 -114 -41 -14 -59 -28 -100 -82 -27 -36 -76 -82
-108 -103 l-57 -39 40 -7 c102 -17 192 29 295 155 l67 80 54 0 55 0 -30 -37
c-17 -21 -52 -65 -79 -98 -78 -97 -95 -125 -79 -125 19 0 150 114 222 194 58
64 61 66 108 66 l49 0 -16 -25 -16 -24 36 24 c65 44 134 42 149 -4 9 -29 -8
-60 -80 -143 -36 -43 -64 -78 -60 -78 26 0 92 51 151 117 42 46 93 90 122 106
60 33 144 46 167 27 13 -11 19 -9 38 11 12 13 32 39 45 57 13 19 55 74 94 123
70 87 72 89 115 89 23 0 43 -5 43 -11 0 -5 -27 -45 -60 -87 -34 -42 -94 -122
-135 -177 -41 -55 -104 -135 -140 -179 -36 -43 -64 -81 -61 -83 3 -3 31 8 63
24 48 25 72 47 146 139 74 93 84 109 67 112 -22 4 -22 4 -14 26 4 10 18 16 38
16 22 0 35 7 46 24 8 13 44 63 80 110 l65 85 48 1 c26 0 47 -3 47 -7 0 -5 -34
-53 -75 -108 l-75 -100 60 -3 c51 -3 61 -6 58 -20 -3 -14 -17 -18 -75 -20
l-72 -3 -106 -133 c-58 -74 -105 -137 -105 -140 0 -21 39 0 124 68 25 20 40
26 47 19 7 -7 -7 -25 -43 -55 -67 -57 -88 -68 -132 -68 -36 0 -72 32 -59 53 3
6 -19 -4 -49 -21 -84 -48 -148 -41 -148 15 0 24 0 24 -39 -8 -70 -55 -161 -49
-161 12 0 18 -4 17 -45 -12 -31 -22 -59 -33 -94 -37 -46 -4 -51 -2 -62 20 -15
33 0 59 90 163 38 44 68 82 66 83 -11 12 -113 -66 -204 -156 -94 -94 -110
-105 -144 -107 -46 -2 -55 9 -31 38 l19 22 -25 -21 c-38 -32 -65 -44 -102 -44
-38 0 -58 15 -58 43 0 10 -3 17 -7 15 -106 -54 -145 -60 -308 -49 -27 2 -95 0
-150 -3 -115 -8 -148 2 -153 46 -2 20 4 31 24 45 36 23 176 23 250 1 l52 -16
34 36 c20 21 54 62 78 92 l42 55 -48 8 c-95 15 -139 35 -175 80 -68 84 -37
181 76 240 51 26 73 31 150 35 61 2 103 -1 129 -11 69 -24 52 -33 -54 -29
-119 5 -167 -9 -229 -66 -45 -42 -59 -80 -41 -120 34 -79 201 -137 231 -79 40
75 223 258 298 297 66 34 130 38 155 11z m1457 -212 c-18 -11 -38 -18 -45 -16
-6 3 5 12 24 20 50 23 61 21 21 -4z m-1631 -99 c0 -5 -4 -10 -10 -10 -5 0 -10
5 -10 10 0 6 5 10 10 10 6 0 10 -4 10 -10z m-85 -67 c-89 -112 -158 -165 -227
-177 -46 -8 -48 -4 -5 23 17 11 55 49 82 85 48 62 76 80 184 115 2 0 -14 -20
-34 -46z m945 -42 c-33 -43 -70 -87 -82 -97 -25 -21 -22 -17 80 110 75 92 76
83 2 -13z m534 55 c-9 -24 -34 -28 -34 -6 0 13 7 20 20 20 13 0 17 -5 14 -14z"/>
<path d="M875 1521 c-81 -60 -165 -152 -219 -238 l-26 -42 26 9 c79 31 190
123 289 242 46 56 -6 77 -70 29z m31 -28 c-17 -33 -116 -130 -166 -163 -39
-26 -37 -24 34 60 33 38 134 130 144 130 1 0 -4 -12 -12 -27z"/>
<path d="M1459 1161 c-74 -47 -192 -181 -175 -198 13 -13 89 33 140 86 123
124 140 179 35 112z m-25 -64 c-16 -17 -45 -45 -64 -61 -19 -16 -8 -2 25 32
64 67 85 82 39 29z"/>
<path d="M50 990 c-8 -5 -11 -12 -7 -16 12 -12 110 -17 147 -7 l35 10 -53 11
c-64 14 -102 15 -122 2z"/>
<path d="M2270 1391 c0 -6 4 -13 10 -16 6 -3 7 1 4 9 -7 18 -14 21 -14 7z"/>
<path d="M2356 1383 c-6 -14 -5 -15 5 -6 7 7 10 15 7 18 -3 3 -9 -2 -12 -12z"/>
<path d="M2547 1324 c-2 -15 -1 -38 3 -53 7 -21 8 -16 9 27 1 56 -4 67 -12 26z"/>
<path d="M2369 1193 c-13 -16 -12 -17 4 -4 9 7 17 15 17 17 0 8 -8 3 -21 -13z"/>
<path d="M2270 1200 c-1 -3 -3 -41 -3 -85 -2 -67 -1 -74 7 -43 8 33 12 37 35
32 l26 -5 -25 15 c-14 8 -24 17 -23 20 1 3 1 11 -2 18 -2 7 -6 22 -8 33 -3 11
-6 18 -7 15z"/>
<path d="M2450 1030 c0 -5 5 -10 11 -10 5 0 7 5 4 10 -3 6 -8 10 -11 10 -2 0
-4 -4 -4 -10z"/>
</g>
</svg>
