<?xml version="1.0" standalone="no"?>
<!DOCTYPE svg PUBLIC "-//W3C//DTD SVG 20010904//EN"
 "http://www.w3.org/TR/2001/REC-SVG-20010904/DTD/svg10.dtd">
<svg version="1.0" xmlns="http://www.w3.org/2000/svg"
 width="256.000000pt" height="256.000000pt" viewBox="0 0 256.000000 256.000000"
 preserveAspectRatio="xMidYMid meet">
<metadata>
Created by potrace 1.16, written by Peter Selinger 2001-2019
</metadata>
<g transform="translate(0.000000,256.000000) scale(0.100000,-0.100000)"
fill="#000000" stroke="none">
<path d="M828 2530 c-369 -125 -668 -424 -796 -797 -21 -60 -32 -109 -31 -145
l0 -53 18 70 c100 400 392 734 773 886 29 12 94 32 143 45 l90 23 -55 0 c-35
0 -86 -10 -142 -29z"/>
<path d="M1595 2545 c87 -19 148 -41 253 -90 344 -162 602 -475 693 -840 l18
-70 0 53 c1 62 -33 168 -89 283 -130 264 -339 470 -602 594 -129 60 -211 85
-277 84 l-56 -1 60 -13z"/>
<path d="M1082 2089 c-371 -99 -635 -436 -635 -809 0 -269 133 -519 364 -683
226 -160 499 -195 760 -97 48 17 56 24 52 41 -4 16 -8 17 -20 7 -9 -7 -50 -12
-112 -12 -84 0 -102 3 -128 22 -17 12 -36 22 -42 22 -6 0 -17 11 -23 25 -6 14
-15 25 -20 25 -4 0 -8 4 -8 9 0 5 -4 21 -9 34 -8 19 -15 23 -35 20 -14 -3 -26
-12 -26 -19 0 -8 -6 -14 -13 -14 -16 0 -40 -38 -32 -50 4 -6 13 -10 21 -10 9
0 14 -10 14 -29 0 -24 -5 -31 -30 -36 -16 -4 -42 -6 -57 -4 -16 1 -36 -1 -45
-6 -10 -4 -32 -8 -50 -9 -27 -1 -34 3 -36 22 -2 12 -10 22 -17 22 -8 0 -17 9
-20 20 -3 11 -11 20 -16 20 -20 0 -4 45 19 55 13 6 25 20 29 33 7 31 56 31 70
0 10 -22 10 -22 19 -3 5 11 8 57 6 102 l-3 82 -35 -6 c-30 -5 -34 -3 -34 16 0
16 -8 23 -30 28 -18 3 -30 12 -31 22 0 11 -3 9 -9 -6 -9 -22 -50 -33 -50 -14
0 5 -10 11 -22 13 -17 2 -24 11 -26 31 -2 19 -9 27 -24 27 -11 0 -22 8 -25 20
-3 11 -9 20 -14 20 -5 0 -9 11 -9 25 0 16 6 25 15 25 10 0 15 10 15 31 0 59
38 89 72 56 7 -7 27 -13 43 -13 29 1 30 -1 29 -41 -1 -45 16 -57 63 -48 13 3
34 7 47 10 19 4 25 13 30 50 6 34 15 50 39 69 17 14 29 27 26 30 -3 3 -67 8
-142 12 -137 7 -137 7 -144 33 -8 33 -20 41 -65 41 -34 0 -38 3 -38 25 0 14
-4 25 -10 25 -5 0 -10 12 -10 26 0 26 1 27 54 21 51 -5 55 -4 58 16 4 27 46
34 89 17 23 -10 32 -10 44 0 14 12 99 10 195 -4 19 -3 27 -3 18 0 -10 3 -18
13 -18 23 0 9 -6 25 -12 34 -19 25 -115 58 -175 60 -36 2 -61 9 -82 25 -17 12
-44 22 -61 22 -28 0 -30 2 -30 39 0 30 6 44 23 58 13 10 30 30 37 43 24 46 65
55 79 17 9 -22 14 -23 64 -19 54 4 56 3 71 -27 15 -28 21 -31 62 -31 41 0 44
2 34 19 -13 26 -13 87 1 112 8 16 5 31 -15 73 -14 29 -26 58 -26 63 0 6 -7 16
-15 23 -17 14 -20 72 -5 101 7 11 26 21 50 25 42 7 55 24 18 23 -13 0 -56 -9
-96 -20z m-2 -83 c0 -35 5 -58 15 -66 8 -7 15 -17 15 -22 0 -5 8 -28 18 -51
13 -31 17 -60 14 -109 -4 -76 -20 -89 -47 -38 -15 28 -19 30 -74 30 -50 0 -59
3 -64 20 -4 16 -13 20 -44 20 -44 0 -55 -6 -73 -40 -7 -13 -24 -33 -37 -43
-19 -16 -23 -27 -23 -78 l0 -59 30 0 c17 0 44 -9 59 -21 17 -12 50 -23 77 -26
61 -5 146 -29 170 -48 17 -13 8 -15 -76 -16 -52 -1 -123 0 -158 1 -57 2 -64 0
-69 -19 -5 -18 -13 -21 -59 -21 l-54 0 0 -45 c0 -25 5 -45 10 -45 6 0 10 -11
10 -25 0 -22 4 -25 38 -25 46 0 57 -8 66 -42 6 -27 9 -28 74 -28 102 0 174
-11 163 -24 -5 -6 -13 -29 -17 -51 -8 -46 -17 -55 -61 -55 -30 0 -32 2 -35 42
-3 47 -7 49 -122 65 -47 6 -66 -12 -66 -64 0 -23 -5 -33 -15 -33 -11 0 -15
-12 -15 -45 0 -25 4 -45 9 -45 5 0 11 -9 14 -20 3 -12 14 -20 25 -20 15 0 22
-8 24 -27 2 -20 9 -29 26 -31 12 -2 22 -8 22 -14 0 -5 20 -9 48 -8 67 4 72 2
72 -20 0 -16 7 -20 35 -20 l35 0 0 -55 0 -55 -44 0 c-37 0 -45 -3 -49 -22 -4
-13 -16 -27 -29 -33 -18 -8 -24 -19 -26 -52 -2 -29 1 -43 9 -43 7 0 10 -3 6
-6 -9 -9 -134 82 -192 141 -156 155 -248 369 -247 570 3 305 214 612 510 741
42 19 83 34 90 34 8 0 12 -17 12 -54z m165 -1366 c4 -16 10 -30 14 -30 4 0 13
-11 19 -25 6 -14 17 -25 23 -25 6 0 23 -9 38 -19 17 -12 54 -22 101 -27 l75
-7 -38 -13 c-82 -29 -198 -37 -292 -20 -101 17 -134 36 -64 36 81 0 89 6 89
61 0 27 -4 49 -10 49 -5 0 -10 5 -10 10 0 6 7 10 15 10 8 0 15 7 15 15 0 27
18 16 25 -15z"/>
<path d="M1354 2102 c4 -7 17 -12 29 -12 45 0 67 -27 67 -81 0 -27 -4 -49 -10
-49 -5 0 -10 -5 -10 -10 0 -6 -10 -31 -22 -57 -17 -37 -22 -66 -23 -136 l0
-88 40 3 c33 2 42 8 54 32 13 27 15 28 72 24 53 -4 58 -2 61 16 2 16 10 21 33
21 23 0 33 -7 44 -30 8 -16 25 -38 38 -48 17 -14 23 -29 23 -58 0 -35 -2 -39
-26 -39 -14 0 -45 -12 -70 -26 -33 -19 -54 -25 -82 -22 -20 3 -44 1 -52 -3 -8
-5 -36 -17 -63 -28 -67 -28 -93 -102 -42 -121 20 -8 25 -17 26 -47 l2 -38 6
40 c5 35 10 40 34 43 16 2 48 18 71 36 24 18 69 43 102 56 32 13 68 31 80 42
11 10 35 18 53 18 33 0 33 0 27 -38 -3 -21 -13 -53 -22 -71 -21 -43 -14 -122
15 -161 11 -16 21 -43 21 -59 0 -26 -4 -30 -32 -33 -49 -5 -74 -61 -70 -160 2
-77 2 -78 -23 -78 -14 0 -25 3 -25 8 0 8 -49 32 -67 32 -7 0 -28 -13 -46 -30
-20 -17 -46 -30 -61 -30 -18 0 -26 -5 -26 -18 0 -10 -5 -23 -12 -30 -9 -9 -9
-12 0 -12 7 0 12 4 12 9 0 34 154 57 166 26 4 -8 15 -15 25 -15 13 0 19 -7 19
-24 0 -13 7 -26 15 -30 11 -4 15 -22 15 -69 0 -49 4 -68 18 -80 10 -10 24 -17
30 -17 6 0 15 -7 20 -17 8 -14 17 -9 61 32 190 178 295 454 263 693 -44 331
-266 600 -585 708 -84 29 -184 43 -173 26z m295 -107 c232 -122 402 -367 442
-635 19 -130 -13 -285 -89 -436 -56 -112 -181 -257 -211 -247 -41 15 -51 35
-51 100 0 47 -4 65 -15 69 -8 4 -15 17 -15 30 0 17 -6 24 -20 24 -11 0 -20 5
-20 10 0 6 18 10 40 10 l41 0 -2 79 c-2 102 21 154 69 159 31 3 32 4 32 54 0
34 -6 58 -20 75 -29 37 -35 86 -15 125 9 18 19 59 22 91 l6 57 -53 0 c-38 0
-60 -5 -74 -18 -12 -11 -48 -29 -80 -42 -33 -13 -79 -39 -103 -57 -42 -32
-104 -45 -117 -25 -22 37 88 101 174 102 30 0 58 8 85 25 22 13 52 25 68 25
26 0 27 1 27 59 0 50 -4 62 -23 78 -13 10 -30 32 -38 48 -12 26 -20 30 -62 33
-42 3 -49 0 -54 -17 -5 -18 -13 -21 -64 -21 -53 0 -59 -2 -71 -27 -7 -15 -21
-29 -31 -31 -26 -5 -24 129 3 186 11 22 20 46 20 52 0 5 5 10 10 10 6 0 10 28
10 64 l0 65 55 -19 c30 -10 86 -35 124 -55z m-4 -1055 c16 -7 12 -9 -18 -9
-23 -1 -36 3 -32 9 7 12 23 12 50 0z"/>
<path d="M1150 1240 c0 -18 4 -20 23 -14 12 3 24 8 26 10 6 6 -1 11 -26 18
-19 6 -23 4 -23 -14z"/>
<path d="M1151 1104 c0 -11 3 -14 6 -6 3 7 2 16 -1 19 -3 4 -6 -2 -5 -13z"/>
<path d="M1161 1064 c0 -11 3 -14 6 -6 3 7 2 16 -1 19 -3 4 -6 -2 -5 -13z"/>
<path d="M1181 1018 c0 -20 -3 -42 -4 -50 -2 -7 -2 -10 0 -5 3 4 11 7 19 7 8
0 14 9 14 20 0 11 -4 20 -9 20 -5 0 -12 10 -14 23 -3 14 -5 9 -6 -15z"/>
<path d="M1 972 c-2 -115 118 -383 236 -527 55 -67 172 -180 239 -230 150
-113 386 -216 495 -215 l54 1 -90 23 c-226 59 -420 172 -582 338 -90 92 -110
116 -165 203 -78 120 -134 249 -169 390 l-18 70 0 -53z"/>
<path d="M2547 970 c-12 -65 -54 -184 -98 -272 -125 -255 -324 -455 -579 -583
-92 -46 -132 -61 -240 -90 l-85 -23 51 -1 c62 -1 176 35 289 92 310 154 537
413 649 740 19 55 26 94 24 130 l-3 52 -8 -45z"/>
</g>
</svg>
