<?xml version="1.0" standalone="no"?>
<!DOCTYPE svg PUBLIC "-//W3C//DTD SVG 20010904//EN"
 "http://www.w3.org/TR/2001/REC-SVG-20010904/DTD/svg10.dtd">
<svg version="1.0" xmlns="http://www.w3.org/2000/svg"
 width="233.000000pt" height="234.000000pt" viewBox="0 0 233.000000 234.000000"
 preserveAspectRatio="xMidYMid meet">
<metadata>
Created by potrace 1.16, written by Peter Selinger 2001-2019
</metadata>
<g transform="translate(0.000000,234.000000) scale(0.100000,-0.100000)"
fill="#000000" stroke="none">
<path d="M175 2311 c-98 -56 -176 -164 -174 -243 l0 -43 14 42 c38 122 136
220 260 259 l40 13 -45 0 c-32 1 -59 -7 -95 -28z"/>
<path d="M2055 2326 c124 -39 222 -137 260 -259 l14 -42 0 45 c2 114 -157 271
-271 269 l-43 0 40 -13z"/>
<path d="M1992 1536 c-34 -20 -34 -21 -12 -61 16 -29 18 -40 9 -51 -10 -12 -7
-20 14 -42 31 -32 35 -57 11 -66 -15 -6 -43 17 -44 37 0 13 19 7 28 -9 6 -11
11 -13 16 -5 12 18 -3 31 -36 31 -17 0 -37 8 -45 18 -10 12 -16 14 -19 5 -8
-18 -24 -16 -24 2 0 21 -9 19 -30 -7 -18 -22 -18 -23 3 -35 12 -7 32 -12 44
-13 26 0 73 -20 73 -31 0 -4 12 -10 27 -14 19 -4 34 0 54 14 15 11 40 23 55
26 36 8 84 26 84 32 0 2 -9 13 -19 24 -13 15 -21 17 -26 9 -4 -7 -1 -16 6 -21
7 -4 10 -11 6 -15 -3 -4 -16 4 -27 17 -19 23 -21 23 -34 7 -7 -10 -26 -18 -42
-18 -22 0 -25 3 -16 12 15 15 16 48 2 48 -5 0 -10 -9 -10 -20 0 -23 -25 -27
-34 -5 -4 10 2 19 18 25 18 7 66 68 66 85 0 5 -61 35 -69 34 -3 -1 -16 -7 -29
-13z m53 -50 c-18 -41 -28 -42 -46 -3 l-14 32 36 0 36 0 -12 -29z m-150 -116
c3 -5 -1 -10 -9 -10 -9 0 -16 5 -16 10 0 6 4 10 9 10 6 0 13 -4 16 -10z m50
-10 c3 -5 -1 -10 -9 -10 -9 0 -16 5 -16 10 0 6 4 10 9 10 6 0 13 -4 16 -10z
m185 5 c0 -2 -10 -10 -22 -16 -21 -11 -22 -11 -9 4 13 16 31 23 31 12z m-60
-19 c0 -7 -8 -20 -17 -27 -15 -12 -16 -12 -10 4 4 10 7 23 7 28 0 5 5 9 10 9
6 0 10 -6 10 -14z"/>
<path d="M816 1485 c-66 -23 -146 -86 -223 -174 -40 -46 -73 -87 -73 -92 0
-12 -67 -11 -114 2 -115 32 -116 153 -2 209 47 22 132 29 194 16 20 -5 32 -4
32 3 0 30 -169 36 -242 8 -101 -39 -140 -137 -82 -206 27 -33 102 -61 162 -61
l34 0 -53 -62 c-87 -103 -94 -107 -148 -91 -98 30 -216 12 -216 -32 0 -34 41
-47 125 -39 76 7 93 7 218 2 61 -3 76 1 130 28 59 31 60 31 52 9 -21 -56 60
-63 119 -10 22 20 49 38 60 40 21 4 111 92 111 107 0 5 6 8 14 8 15 0 66 37
66 48 0 4 -17 6 -37 4 -32 -4 -45 -13 -81 -58 -51 -64 -175 -167 -196 -162
-10 2 11 35 66 103 44 55 85 103 92 107 6 4 -10 8 -35 8 -45 0 -47 -1 -107
-74 -76 -93 -136 -126 -228 -126 -35 0 -65 4 -68 8 -3 5 12 16 34 26 36 16
150 127 150 146 0 5 19 14 42 21 104 28 238 131 279 216 l22 46 -22 19 c-27
21 -25 21 -75 3z m62 -28 c5 -27 -66 -116 -131 -163 -62 -46 -144 -87 -157
-79 -14 9 183 221 230 246 40 21 54 20 58 -4z m-643 -448 c34 -10 37 -13 20
-20 -29 -11 -113 -11 -136 2 -50 26 37 40 116 18z"/>
<path d="M1604 1423 c-26 -3 -46 -23 -125 -123 -70 -91 -95 -116 -102 -105
-11 21 -46 19 -111 -5 -50 -19 -92 -53 -168 -136 -29 -32 -108 -81 -108 -67 0
4 27 39 60 76 43 49 60 76 60 96 0 60 -51 64 -127 10 -24 -17 -43 -27 -43 -23
0 4 -31 -23 -70 -60 -38 -37 -73 -66 -77 -63 -5 2 -21 -9 -37 -25 l-29 -28 38
0 c33 0 45 8 118 84 77 78 171 146 184 132 3 -3 -24 -37 -61 -77 -79 -83 -95
-111 -76 -134 7 -8 24 -15 38 -15 28 0 112 39 112 52 0 4 5 8 10 8 6 0 10 -8
10 -18 0 -56 85 -53 153 6 15 14 17 13 17 -4 0 -27 19 -44 48 -44 26 0 102 39
102 52 0 4 7 8 16 8 14 0 14 -3 4 -15 -17 -21 4 -45 39 -45 29 0 104 44 135
79 36 40 8 33 -49 -13 -30 -25 -65 -46 -75 -46 -25 0 -25 5 1 33 11 12 53 64
92 114 l72 93 52 0 c57 0 83 7 83 22 0 7 -21 9 -55 6 -30 -3 -55 -3 -55 -1 0
2 29 40 65 86 67 84 77 104 49 93 -9 -3 -26 -6 -39 -6 -17 0 -40 -23 -91 -90
-57 -75 -73 -90 -90 -85 -13 3 -27 -1 -34 -10 -11 -13 -8 -15 15 -15 26 0 26
0 -21 -57 -83 -101 -135 -150 -175 -169 -51 -23 -60 -12 -22 29 36 38 313 393
313 401 0 3 -3 5 -7 4 -5 0 -22 -3 -39 -5z m-234 -250 c0 -19 -91 -120 -138
-154 -49 -35 -92 -50 -92 -33 0 18 79 109 128 149 49 39 102 59 102 38z"/>
<path d="M2165 1295 c-22 -13 -49 -29 -60 -35 -18 -10 -18 -10 5 -6 23 5 23 4
8 -8 -11 -8 -18 -26 -18 -45 0 -18 -4 -30 -9 -27 -5 3 -11 -1 -15 -9 -3 -9 0
-15 10 -15 8 0 12 -5 9 -10 -4 -6 -15 -3 -29 7 -23 18 -23 18 -5 42 22 28 25
64 5 80 -8 7 -34 12 -58 12 -23 -1 -67 0 -95 2 -36 1 -53 -2 -53 -10 0 -14 72
-36 80 -24 8 12 108 13 115 1 10 -16 -4 -48 -23 -54 -9 -3 -23 -15 -30 -27
-12 -18 -11 -21 7 -26 25 -6 23 -50 -2 -45 -10 2 -18 -8 -22 -28 -4 -16 -11
-33 -17 -36 -7 -5 -8 5 -3 32 8 40 9 55 3 89 -2 14 8 25 34 40 21 11 40 27 43
35 4 8 3 11 -1 8 -4 -4 -14 -3 -23 2 -11 5 -34 5 -60 -1 -35 -8 -50 -6 -88 11
-25 11 -48 18 -51 16 -9 -9 10 -26 29 -26 13 0 18 -4 13 -12 -5 -8 15 -9 80
-4 58 4 85 3 81 -4 -3 -5 -14 -10 -23 -10 -26 -1 -52 -25 -52 -49 0 -18 -6
-21 -41 -21 -31 0 -40 3 -36 14 3 8 -1 17 -10 20 -19 8 -18 8 -27 -21 -6 -17
-3 -23 8 -23 9 0 16 -7 16 -15 0 -8 5 -15 11 -15 5 0 7 5 4 10 -10 16 11 12
25 -5 7 -8 20 -15 29 -15 14 0 17 -11 18 -56 1 -51 0 -55 -15 -41 -15 13 -19
13 -30 1 -11 -12 -10 -15 2 -20 9 -3 13 -10 10 -15 -3 -5 -1 -9 5 -9 5 0 13 5
16 10 5 7 11 8 19 1 6 -5 18 -6 25 -2 10 6 9 10 -4 15 -15 5 -14 9 7 35 27 35
38 38 38 13 0 -49 99 -84 130 -47 18 22 32 18 20 -5 -14 -27 10 -28 34 -1 16
17 16 19 -4 24 -16 4 -20 11 -16 32 7 36 -25 68 -56 56 -27 -10 -31 -38 -10
-63 13 -16 13 -18 -2 -18 -20 0 -37 40 -31 71 3 12 0 28 -6 36 -14 16 2 18 18
2 8 -8 17 -7 34 4 16 12 27 13 41 6 16 -9 19 -7 18 8 -5 45 1 65 20 70 24 6
24 3 4 41 -11 23 -12 36 -5 51 21 38 13 39 -44 6z m-238 -31 c-3 -3 -12 -4
-19 -1 -8 3 -5 6 6 6 11 1 17 -2 13 -5z m258 -5 c-4 -6 1 -17 11 -25 18 -14
17 -15 -11 -9 -35 8 -58 25 -32 25 9 0 17 5 17 10 0 6 5 10 11 10 5 0 7 -5 4
-11z m-16 -49 c5 0 8 -13 7 -30 -1 -36 -3 -36 -27 -7 -23 27 -25 51 -3 43 9
-3 19 -6 23 -6z m-29 -51 c13 -23 13 -24 -16 -33 -18 -6 -20 -3 -16 24 5 35
17 38 32 9z m-180 -39 c0 -6 -11 -8 -27 -4 -40 10 -41 14 -5 14 18 0 32 -5 32
-10z m95 -11 c4 -6 -1 -17 -11 -25 -18 -13 -18 -14 1 -7 18 6 18 5 6 -10 -12
-16 -12 -17 5 -11 15 6 17 4 7 -6 -15 -17 22 -57 57 -62 l25 -4 -28 -5 c-28
-6 -50 9 -89 62 -23 30 -22 35 3 52 15 11 17 16 7 20 -9 4 -9 6 -1 6 6 1 15
-4 18 -10z m99 -81 c-3 -5 -12 -4 -20 3 -7 6 -11 15 -8 21 3 5 12 4 20 -3 7
-6 11 -15 8 -21z"/>
<path d="M802 1287 c-24 -26 -29 -53 -9 -60 19 -7 65 20 72 43 14 44 -28 55
-63 17z"/>
<path d="M1 272 c-2 -114 155 -273 269 -271 l45 0 -42 14 c-122 38 -220 136
-259 260 l-13 40 0 -43z"/>
<path d="M2322 295 c-4 -38 -51 -124 -93 -170 -48 -52 -108 -91 -172 -110
l-42 -14 45 0 c116 -2 277 163 267 272 -2 23 -4 33 -5 22z"/>
</g>
</svg>
