<?xml version="1.0" standalone="no"?>
<!DOCTYPE svg PUBLIC "-//W3C//DTD SVG 20010904//EN"
 "http://www.w3.org/TR/2001/REC-SVG-20010904/DTD/svg10.dtd">
<svg version="1.0" xmlns="http://www.w3.org/2000/svg"
 width="192.000000pt" height="192.000000pt" viewBox="0 0 192.000000 192.000000"
 preserveAspectRatio="xMidYMid meet">
<metadata>
Created by potrace 1.16, written by Peter Selinger 2001-2019
</metadata>
<g transform="translate(0.000000,192.000000) scale(0.100000,-0.100000)"
fill="#000000" stroke="none">
<path d="M70 940 l0 -890 890 0 890 0 0 890 0 890 -890 0 -890 0 0 -890z m720
850 c-155 -33 -288 -96 -385 -183 -36 -32 -55 -43 -55 -33 0 9 -8 16 -20 16
-13 0 -20 -7 -20 -20 0 -11 7 -20 15 -20 9 0 -7 -27 -40 -72 -62 -82 -104
-165 -137 -270 -20 -64 -23 -93 -23 -248 0 -156 3 -183 23 -250 88 -278 284
-474 562 -562 67 -20 94 -23 250 -23 156 0 183 3 250 23 276 87 472 282 560
557 30 94 39 335 17 441 -55 257 -236 485 -469 588 -44 19 -58 30 -58 45 0 12
-4 21 -10 21 -5 0 -10 -8 -10 -19 0 -17 -3 -18 -55 -3 -30 8 -55 19 -55 24 0
4 157 8 350 8 l350 0 0 -870 0 -870 -870 0 -870 0 0 350 c0 227 4 350 10 350
6 0 10 9 10 20 0 11 -4 20 -9 20 -6 0 -10 205 -11 500 l-1 500 393 -1 393 0
-85 -19z m198 13 c-16 -2 -40 -2 -55 0 -16 2 -3 4 27 4 30 0 43 -2 28 -4z m95
0 c-7 -2 -19 -2 -25 0 -7 3 -2 5 12 5 14 0 19 -2 13 -5z m73 -43 c288 -74 505
-281 596 -570 20 -65 23 -95 23 -230 0 -135 -3 -165 -23 -230 -88 -278 -284
-474 -562 -562 -65 -20 -95 -23 -230 -23 -135 0 -165 3 -230 23 -278 88 -474
284 -562 562 -20 65 -23 95 -23 230 0 135 3 165 23 230 91 287 306 495 592
569 106 28 289 28 396 1z"/>
<path d="M1680 1440 c0 -5 7 -10 15 -10 8 0 15 5 15 10 0 6 -7 10 -15 10 -8 0
-15 -4 -15 -10z"/>
<path d="M100 650 c0 -5 9 -10 20 -10 11 0 20 5 20 10 0 6 -9 10 -20 10 -11 0
-20 -4 -20 -10z"/>
<path d="M1740 557 c0 -7 9 -13 20 -14 11 -1 20 4 20 10 0 7 -9 13 -20 14 -11
1 -20 -4 -20 -10z"/>
<path d="M450 205 c0 -8 5 -15 10 -15 6 0 10 7 10 15 0 8 -4 15 -10 15 -5 0
-10 -7 -10 -15z"/>
<path d="M1333 140 c1 -11 7 -20 14 -20 6 0 11 9 10 20 -1 11 -7 20 -14 20 -6
0 -11 -9 -10 -20z"/>
<path d="M785 1746 c-90 -21 -157 -49 -241 -102 -77 -47 -204 -158 -204 -176
0 -6 33 21 74 60 89 84 186 144 304 186 83 30 94 31 242 31 148 0 159 -1 242
-31 266 -95 458 -302 528 -569 11 -38 19 -62 19 -51 2 37 -31 141 -66 210 -77
154 -170 256 -316 346 -126 78 -213 102 -382 106 -95 2 -159 -1 -200 -10z"/>
<path d="M315 1439 c-11 -17 1 -21 15 -4 8 9 8 15 2 15 -6 0 -14 -5 -17 -11z"/>
<path d="M247 1323 c-43 -83 -78 -188 -76 -229 0 -11 8 13 19 52 10 39 33 102
51 140 l33 69 4 -37 c3 -37 5 -38 41 -38 l38 0 154 -340 153 -340 91 -1 c62 0
83 -3 68 -9 -30 -12 -43 -41 -43 -93 0 -67 25 -92 90 -92 44 0 55 4 76 28 35
41 33 99 -5 138 l-29 29 181 -1 c115 0 174 -3 160 -9 -29 -12 -43 -40 -43 -90
0 -53 12 -74 49 -90 42 -17 95 -5 121 27 35 44 22 129 -24 151 -17 9 -8 11 45
11 60 1 67 3 73 24 6 22 8 65 4 69 -2 1 -155 5 -341 8 l-338 5 -151 335 c-83
184 -155 341 -161 348 -11 14 -130 8 -174 -9 -25 -9 -30 0 -11 19 8 8 8 12 1
12 -6 0 -31 -39 -56 -87z m362 -267 c77 -172 148 -330 156 -350 l15 -36 341 0
c307 0 341 -2 335 -16 -3 -9 -6 -20 -6 -25 0 -5 -157 -9 -383 -9 l-383 0 -10
28 c-6 15 -76 170 -155 345 l-144 319 -37 -6 c-35 -6 -38 -4 -38 18 0 19 7 26
38 34 20 5 58 10 83 11 l46 1 142 -314z m316 -506 c42 -46 10 -120 -52 -120
-42 0 -73 30 -73 70 0 62 84 95 125 50z m434 -6 c12 -15 21 -34 21 -44 0 -10
-9 -29 -21 -44 -41 -52 -129 -21 -129 46 0 65 88 94 129 42z"/>
<path d="M573 1323 c-24 -9 -13 -44 84 -263 l97 -220 385 2 386 3 42 175 c23
96 42 194 42 218 l1 42 -40 0 c-40 0 -811 36 -925 43 -33 2 -66 2 -72 0z m457
-43 c217 -10 432 -20 478 -22 50 -1 82 -6 82 -12 -1 -6 -20 -94 -44 -196 l-43
-185 -364 -2 -364 -3 -96 220 c-97 220 -97 220 -70 220 14 0 204 -9 421 -20z"/>
<path d="M791 1082 l68 -167 273 -3 273 -2 33 142 c17 79 32 148 32 153 0 6
-30 11 -68 12 -239 8 -622 24 -648 27 l-31 4 68 -166z m399 117 c135 -6 246
-12 248 -13 1 -2 -10 -56 -26 -122 l-28 -119 -253 0 -253 0 -48 116 c-74 179
-77 161 27 154 48 -3 198 -10 333 -16z"/>
<path d="M164 960 c0 -63 1 -89 3 -57 2 31 2 83 0 115 -2 31 -3 5 -3 -58z"/>
<path d="M1754 960 c0 -63 1 -89 3 -57 2 31 2 83 0 115 -2 31 -3 5 -3 -58z"/>
<path d="M175 803 c6 -47 44 -157 52 -150 2 3 0 15 -7 26 -6 12 -20 54 -31 94
-13 49 -18 58 -14 30z"/>
<path d="M1740 818 c0 -13 -11 -54 -24 -93 -29 -84 -27 -99 3 -21 22 60 38
136 27 136 -3 0 -6 -10 -6 -22z"/>
<path d="M270 560 c6 -11 13 -20 16 -20 2 0 0 9 -6 20 -6 11 -13 20 -16 20 -2
0 0 -9 6 -20z"/>
<path d="M1640 560 c-6 -11 -8 -20 -6 -20 3 0 10 9 16 20 6 11 8 20 6 20 -3 0
-10 -9 -16 -20z"/>
<path d="M310 496 c0 -2 8 -10 18 -17 15 -13 16 -12 3 4 -13 16 -21 21 -21 13z"/>
<path d="M1589 483 c-13 -16 -12 -17 4 -4 16 13 21 21 13 21 -2 0 -10 -8 -17
-17z"/>
<path d="M1520 403 l-55 -58 58 55 c53 50 62 60 54 60 -1 0 -27 -26 -57 -57z"/>
<path d="M395 400 c27 -27 51 -50 54 -50 3 0 -17 23 -44 50 -27 28 -51 50 -54
50 -3 0 17 -22 44 -50z"/>
<path d="M470 336 c0 -2 8 -10 18 -17 15 -13 16 -12 3 4 -13 16 -21 21 -21 13z"/>
<path d="M1429 323 c-13 -16 -12 -17 4 -4 16 13 21 21 13 21 -2 0 -10 -8 -17
-17z"/>
<path d="M540 286 c0 -3 9 -10 20 -16 11 -6 20 -8 20 -6 0 3 -9 10 -20 16 -11
6 -20 8 -20 6z"/>
<path d="M1354 274 c-18 -14 -18 -15 4 -4 12 6 22 13 22 15 0 8 -5 6 -26 -11z"/>
<path d="M660 220 c8 -5 20 -10 25 -10 6 0 3 5 -5 10 -8 5 -19 10 -25 10 -5 0
-3 -5 5 -10z"/>
<path d="M1240 220 c-8 -5 -10 -10 -5 -10 6 0 17 5 25 10 8 5 11 10 5 10 -5 0
-17 -5 -25 -10z"/>
<path d="M727 195 c17 -8 51 -17 75 -20 l43 -5 -50 13 c-27 8 -61 17 -75 20
-17 5 -15 2 7 -8z"/>
<path d="M1140 188 c-53 -15 -57 -17 -22 -13 24 3 58 12 75 19 43 19 26 17
-53 -6z"/>
<path d="M903 163 c31 -2 83 -2 115 0 31 2 5 3 -58 3 -63 0 -89 -1 -57 -3z"/>
</g>
</svg>
