<?xml version="1.0" standalone="no"?>
<!DOCTYPE svg PUBLIC "-//W3C//DTD SVG 20010904//EN"
 "http://www.w3.org/TR/2001/REC-SVG-20010904/DTD/svg10.dtd">
<svg version="1.0" xmlns="http://www.w3.org/2000/svg"
 width="100.000000pt" height="100.000000pt" viewBox="0 0 100.000000 100.000000"
 preserveAspectRatio="xMidYMid meet">
<metadata>
Created by potrace 1.16, written by Peter Selinger 2001-2019
</metadata>
<g transform="translate(0.000000,100.000000) scale(0.100000,-0.100000)"
fill="#000000" stroke="none">
<path d="M130 950 c0 -5 5 -10 11 -10 5 0 7 5 4 10 -3 6 -8 10 -11 10 -2 0 -4
-4 -4 -10z"/>
<path d="M51 904 c0 -11 3 -14 6 -6 3 7 2 16 -1 19 -3 4 -6 -2 -5 -13z"/>
<path d="M560 731 c0 -11 -4 -23 -10 -26 -5 -3 -10 -17 -10 -31 0 -22 -4 -24
-46 -24 -32 0 -44 4 -41 13 2 6 14 11 26 10 11 -2 21 2 21 7 0 6 -13 10 -30
10 -27 0 -30 -3 -30 -30 0 -28 -3 -30 -34 -30 -32 0 -35 -3 -38 -32 -2 -27 -8
-34 -30 -36 -21 -3 -27 -9 -30 -30 -2 -21 -9 -28 -30 -30 -20 -2 -28 -9 -28
-23 0 -17 -7 -19 -60 -19 -53 0 -60 2 -60 20 0 18 7 20 56 20 34 0 53 4 49 10
-3 6 -26 10 -50 10 -37 0 -44 3 -48 23 -3 16 -5 13 -6 -10 -1 -31 -3 -33 -36
-33 -28 0 -35 -4 -35 -20 0 -16 -7 -20 -30 -20 -17 0 -30 -4 -30 -10 0 -5 11
-10 24 -10 19 0 23 -4 19 -20 -3 -11 -14 -20 -24 -20 -11 0 -19 -4 -19 -10 0
-5 10 -10 23 -10 20 0 23 -4 19 -30 -3 -18 0 -30 7 -30 6 0 11 14 11 30 0 28
3 30 35 30 33 0 35 -2 35 -35 l0 -35 -65 0 c-37 0 -65 -4 -65 -10 0 -5 9 -10
20 -10 30 0 27 -40 -2 -41 -18 -1 -16 -3 10 -10 22 -7 32 -16 32 -29 0 -19 7
-20 95 -20 88 0 95 1 95 20 0 16 7 20 30 20 17 0 30 5 30 10 0 6 14 10 30 10
23 0 30 4 30 20 0 15 7 20 25 20 17 0 25 -5 25 -18 0 -37 19 -42 172 -42 92 0
148 -4 148 -10 0 -5 -8 -10 -17 -10 -10 -1 -64 -2 -120 -2 -57 -1 -103 -6
-103 -10 0 -4 56 -8 125 -8 118 0 125 1 125 20 0 16 7 20 30 20 17 0 30 5 30
10 0 6 13 10 29 10 25 0 30 4 33 28 2 22 8 28 36 30 l32 3 0 65 c0 36 4 64 10
64 6 0 10 37 10 90 0 86 1 90 23 91 19 1 19 2 3 6 -26 7 -46 28 -46 47 0 9 -8
16 -19 16 -35 0 -51 12 -51 36 0 20 -5 24 -30 24 -16 0 -30 -4 -30 -8 0 -5 10
-8 21 -8 12 1 24 -5 26 -11 4 -10 -17 -13 -81 -13 -79 0 -86 2 -86 20 0 18 -7
20 -65 20 -58 0 -65 -2 -65 -19z m117 -8 c4 -10 -11 -13 -51 -13 -50 0 -66 7
-51 22 11 10 98 3 102 -9z m193 -53 c0 -25 -28 -26 -46 -2 -12 15 -13 14 -14
-10 l0 -28 -95 0 c-88 0 -95 1 -95 20 0 11 -4 20 -10 20 -5 0 -10 -4 -10 -9 0
-5 -9 -11 -20 -14 -16 -4 -20 0 -20 19 l0 24 155 0 c148 0 155 -1 155 -20z
m60 -5 c0 -8 -9 -15 -20 -15 -11 0 -20 7 -20 15 0 8 9 15 20 15 11 0 20 -7 20
-15z m-448 -60 c-3 -16 -11 -25 -23 -25 -14 0 -19 7 -19 25 0 20 5 25 24 25
19 0 22 -4 18 -25z m138 -5 c0 -16 5 -30 10 -30 6 0 10 8 10 19 0 12 9 20 25
23 19 4 25 1 25 -13 0 -11 5 -19 10 -19 6 0 10 7 10 15 0 8 5 15 10 15 6 0 10
-7 10 -15 0 -8 5 -15 10 -15 6 0 10 7 10 15 0 26 37 17 42 -10 l5 -25 -118 0
-119 0 0 -30 c0 -27 -3 -30 -30 -30 -27 0 -30 -3 -30 -30 0 -27 -3 -30 -30
-30 -27 0 -30 -3 -30 -30 l0 -30 -64 0 c-61 0 -65 1 -68 25 l-3 24 -24 -24
-23 -25 26 0 c21 0 26 -5 26 -25 0 -14 5 -25 10 -25 6 0 10 7 10 15 0 8 5 15
10 15 6 0 10 -7 10 -15 0 -8 5 -15 10 -15 6 0 10 7 10 15 0 9 9 15 25 15 16 0
25 -6 25 -15 0 -8 5 -15 10 -15 6 0 10 11 10 25 l0 25 185 0 185 0 0 -35 0
-35 -310 0 -310 0 0 35 c0 28 -4 35 -19 35 -11 0 -23 9 -26 21 -4 12 -10 17
-14 12 -3 -6 -21 -12 -38 -15 -29 -4 -33 -2 -33 19 l0 23 155 0 155 0 0 30 c0
28 3 30 35 30 31 0 35 -3 35 -27 l0 -27 20 22 c11 12 20 24 20 27 0 3 -9 5
-20 5 -16 0 -20 7 -20 30 0 27 3 30 30 30 28 0 30 3 30 35 l0 35 60 0 60 0 0
-30z m320 -35 l0 -65 -65 0 -65 0 0 65 0 65 65 0 65 0 0 -65z m-520 30 c0 -8
-7 -15 -15 -15 -8 0 -15 7 -15 15 0 8 7 15 15 15 8 0 15 -7 15 -15z m3 -54
c-3 -10 -16 -21 -29 -24 -20 -3 -24 0 -24 19 0 20 5 24 29 24 24 0 28 -4 24
-19z m-73 -11 c0 -5 -4 -10 -10 -10 -5 0 -10 5 -10 10 0 6 5 10 10 10 6 0 10
-4 10 -10z m270 -10 c0 -13 -7 -20 -20 -20 -13 0 -20 7 -20 20 0 13 7 20 20
20 13 0 20 -7 20 -20z m60 10 c0 -5 -9 -10 -20 -10 -11 0 -20 5 -20 10 0 6 9
10 20 10 11 0 20 -4 20 -10z m70 -10 c0 -13 7 -20 20 -20 13 0 20 -7 20 -20 0
-13 -7 -20 -18 -20 -23 0 -42 -19 -42 -42 0 -15 -9 -18 -51 -18 -36 0 -49 4
-46 13 2 6 16 12 30 12 15 -1 27 3 27 7 0 4 -16 8 -35 8 -32 0 -35 2 -35 30 0
28 3 30 35 30 28 0 35 4 35 20 0 16 7 20 30 20 23 0 30 -4 30 -20z m40 10 c0
-5 -4 -10 -10 -10 -5 0 -10 5 -10 10 0 6 5 10 10 10 6 0 10 -4 10 -10z m-437
-50 c-3 -11 -14 -20 -24 -20 -12 0 -19 7 -19 20 0 14 7 20 24 20 19 0 23 -4
19 -20z m252 -11 c0 -9 -14 -15 -42 -17 -33 -2 -43 0 -43 12 0 9 12 16 33 19
43 5 52 3 52 -14z m265 -8 c1 -14 2 -14 14 2 19 24 56 23 56 -3 0 -16 -7 -20
-35 -20 l-35 0 0 -65 c0 -61 -1 -65 -23 -65 -21 0 -23 4 -19 33 3 17 10 35 16
40 8 5 6 10 -4 18 -11 8 -12 12 -2 16 17 7 15 23 -4 23 -9 0 -18 -9 -21 -20
-4 -14 -14 -20 -34 -20 -22 0 -29 5 -29 20 0 16 7 20 30 20 25 0 30 4 30 23 0
20 4 23 30 19 19 -3 30 -10 30 -21z m-760 9 c0 -5 -9 -10 -20 -10 -11 0 -20 5
-20 10 0 6 9 10 20 10 11 0 20 -4 20 -10z m180 0 c0 -5 -4 -10 -10 -10 -5 0
-10 5 -10 10 0 6 5 10 10 10 6 0 10 -4 10 -10z m330 -50 c0 -17 -7 -20 -50
-20 -43 0 -50 3 -50 20 0 17 7 20 50 20 43 0 50 -3 50 -20z m-120 -5 c0 -8 -9
-15 -20 -15 -25 0 -26 17 -2 23 9 3 18 5 20 6 1 0 2 -6 2 -14z m428 -42 c-2
-36 -7 -49 -20 -51 -15 -3 -18 4 -18 47 0 45 3 51 21 51 18 0 20 -5 17 -47z
m-758 -49 c0 -36 0 -36 40 -32 36 3 40 1 40 -19 0 -22 -3 -23 -95 -23 -88 0
-95 1 -95 20 0 14 7 20 24 20 13 0 26 -6 28 -12 8 -23 38 18 38 51 0 17 5 31
10 31 6 0 10 -16 10 -36z m531 -54 c5 0 9 4 9 9 0 5 9 11 20 14 16 4 20 0 20
-19 l0 -24 -155 0 c-148 0 -155 1 -155 20 0 25 28 26 46 3 13 -17 13 -17 14 0
0 20 35 24 44 5 5 -10 7 -10 12 0 3 6 14 12 24 12 10 0 21 -6 23 -12 4 -10 8
-10 14 -1 12 16 67 21 71 6 2 -7 8 -13 13 -13z m-391 0 c0 -14 -7 -20 -24 -20
-19 0 -23 4 -19 20 3 11 14 20 24 20 12 0 19 -7 19 -20z m50 10 c0 -5 -7 -10
-15 -10 -8 0 -15 5 -15 10 0 6 7 10 15 10 8 0 15 -4 15 -10z m450 -10 c0 -14
-7 -20 -24 -20 -19 0 -23 4 -19 20 3 11 14 20 24 20 12 0 19 -7 19 -20z m50 5
c0 -8 -7 -15 -15 -15 -8 0 -15 7 -15 15 0 8 7 15 15 15 8 0 15 -7 15 -15z
m-622 -57 c-5 -15 -43 -19 -115 -12 -84 8 -62 24 33 24 64 0 85 -3 82 -12z"/>
<path d="M560 595 c0 -8 5 -15 10 -15 6 0 10 7 10 15 0 8 -4 15 -10 15 -5 0
-10 -7 -10 -15z"/>
<path d="M500 535 c0 -8 5 -15 10 -15 6 0 10 7 10 15 0 8 -4 15 -10 15 -5 0
-10 -7 -10 -15z"/>
<path d="M381 424 c-7 -8 -10 -18 -6 -22 4 -4 10 -1 12 6 3 6 11 12 19 12 8 0
14 5 14 10 0 15 -23 11 -39 -6z"/>
<path d="M216 399 c-17 -17 -18 -19 -3 -19 11 0 17 -8 17 -24 0 -14 5 -28 10
-31 6 -4 10 13 10 44 0 55 -5 60 -34 30z"/>
<path d="M560 345 c0 -8 5 -15 10 -15 6 0 10 7 10 15 0 8 -4 15 -10 15 -5 0
-10 -7 -10 -15z"/>
<path d="M621 344 c0 -11 3 -14 6 -6 3 7 2 16 -1 19 -3 4 -6 -2 -5 -13z"/>
<path d="M691 344 c0 -11 3 -14 6 -6 3 7 2 16 -1 19 -3 4 -6 -2 -5 -13z"/>
<path d="M750 345 c0 -8 5 -15 10 -15 6 0 10 7 10 15 0 8 -4 15 -10 15 -5 0
-10 -7 -10 -15z"/>
<path d="M870 585 c0 -18 -5 -25 -20 -25 -24 0 -25 -6 -6 -26 20 -19 26 -18
26 6 0 15 7 20 25 20 14 0 25 5 25 10 0 6 -7 10 -15 10 -8 0 -15 7 -15 15 0 8
-4 15 -10 15 -5 0 -10 -11 -10 -25z"/>
<path d="M440 199 c0 -5 9 -9 20 -9 11 0 20 2 20 4 0 2 -9 6 -20 9 -11 3 -20
1 -20 -4z"/>
</g>
</svg>
