<?xml version="1.0" standalone="no"?>
<!DOCTYPE svg PUBLIC "-//W3C//DTD SVG 20010904//EN"
 "http://www.w3.org/TR/2001/REC-SVG-20010904/DTD/svg10.dtd">
<svg version="1.0" xmlns="http://www.w3.org/2000/svg"
 width="64.000000pt" height="64.000000pt" viewBox="0 0 64.000000 64.000000"
 preserveAspectRatio="xMidYMid meet">
<metadata>
Created by potrace 1.16, written by Peter Selinger 2001-2019
</metadata>
<g transform="translate(0.000000,64.000000) scale(0.100000,-0.100000)"
fill="#000000" stroke="none">
<path d="M350 449 c-25 -11 -70 -45 -101 -76 l-57 -55 -68 -2 c-92 -3 -114
-16 -114 -64 0 -21 5 -43 12 -50 17 -17 141 -15 183 2 29 13 40 13 81 0 26 -8
86 -14 134 -14 74 0 92 3 121 23 25 17 35 31 37 55 3 28 0 32 -21 32 -13 0
-38 -7 -56 -16 -24 -12 -46 -14 -96 -9 -36 4 -67 11 -70 15 -7 12 100 108 128
115 34 9 69 -11 67 -38 -4 -43 -1 -47 39 -47 49 0 63 17 59 72 -3 38 -7 45
-38 60 -51 26 -180 24 -240 -3z m220 -17 c57 -28 48 -92 -13 -92 -19 0 -19 1
-3 19 33 36 -4 71 -76 71 -52 0 -76 -16 -154 -97 l-59 -61 61 -11 c90 -16 175
-14 202 5 28 19 41 11 21 -12 -38 -46 -140 -56 -252 -25 -67 18 -69 18 -107 0
-67 -33 -160 -21 -160 20 0 26 42 41 113 41 61 0 62 0 118 56 74 73 136 103
214 104 38 0 73 -7 95 -18z"/>
<path d="M77 263 c-17 -16 -5 -33 23 -33 32 0 80 19 80 32 0 10 -94 11 -103 1z"/>
</g>
</svg>
