<?xml version="1.0" standalone="no"?>
<!DOCTYPE svg PUBLIC "-//W3C//DTD SVG 20010904//EN"
 "http://www.w3.org/TR/2001/REC-SVG-20010904/DTD/svg10.dtd">
<svg version="1.0" xmlns="http://www.w3.org/2000/svg"
 width="192.000000pt" height="192.000000pt" viewBox="0 0 192.000000 192.000000"
 preserveAspectRatio="xMidYMid meet">
<metadata>
Created by potrace 1.16, written by Peter Selinger 2001-2019
</metadata>
<g transform="translate(0.000000,192.000000) scale(0.100000,-0.100000)"
fill="#000000" stroke="none">
<path d="M849 1870 c-378 -47 -680 -311 -776 -678 -36 -139 -36 -325 0 -464
85 -325 330 -570 655 -655 139 -36 325 -36 464 0 325 85 570 330 655 655 36
139 36 325 0 464 -102 390 -433 659 -837 681 -52 3 -125 2 -161 -3z m228 -31
c196 -27 365 -111 508 -254 148 -148 230 -318 256 -528 23 -181 -22 -387 -119
-552 -63 -107 -200 -244 -307 -307 -165 -97 -371 -142 -552 -119 -124 15 -256
59 -358 119 -107 63 -244 200 -307 307 -97 165 -142 371 -119 552 25 207 107
378 251 524 200 202 471 296 747 258z"/>
<path d="M387 1318 c246 -287 282 -332 274 -342 -4 -6 -88 -112 -185 -234 -98
-123 -176 -225 -174 -225 2 -1 117 0 257 3 l254 5 41 65 c22 36 54 89 72 118
32 52 33 53 45 30 6 -13 41 -69 76 -126 l65 -102 256 0 c242 0 254 1 240 18
-8 9 -94 115 -192 234 l-177 218 122 152 c67 84 147 181 177 216 l54 62 -244
0 -244 0 -75 -120 c-41 -66 -76 -120 -79 -120 -3 0 -38 54 -79 120 l-74 120
-244 0 -245 0 79 -92z m465 -55 c61 -98 78 -118 98 -118 21 0 37 20 99 118
l74 117 199 0 199 0 -150 -186 c-113 -139 -151 -193 -151 -214 0 -20 41 -77
167 -231 l166 -204 -204 -3 c-112 -1 -208 0 -215 2 -6 2 -42 54 -80 115 -69
111 -92 133 -119 111 -8 -6 -45 -61 -82 -121 l-68 -109 -213 0 -214 0 34 42
c18 24 93 118 165 210 93 116 133 175 133 193 0 23 -63 102 -298 378 -14 16
-5 17 186 17 l200 0 74 -117z"/>
</g>
</svg>
