<?xml version="1.0" standalone="no"?>
<!DOCTYPE svg PUBLIC "-//W3C//DTD SVG 20010904//EN"
 "http://www.w3.org/TR/2001/REC-SVG-20010904/DTD/svg10.dtd">
<svg version="1.0" xmlns="http://www.w3.org/2000/svg"
 width="80.000000pt" height="80.000000pt" viewBox="0 0 80.000000 80.000000"
 preserveAspectRatio="xMidYMid meet">
<metadata>
Created by potrace 1.16, written by Peter Selinger 2001-2019
</metadata>
<g transform="translate(0.000000,80.000000) scale(0.100000,-0.100000)"
fill="#000000" stroke="none">
<path d="M84 595 c-18 -15 -18 -15 7 -10 14 4 33 7 42 9 30 4 31 16 1 16 -17
0 -39 -7 -50 -15z"/>
<path d="M108 569 c-36 -21 -16 -79 27 -79 43 0 59 44 27 73 -21 19 -30 20
-54 6z m40 -37 c2 -7 -3 -12 -12 -12 -9 0 -16 7 -16 16 0 17 22 14 28 -4z"/>
<path d="M63 530 c0 -25 2 -35 4 -22 2 12 2 32 0 45 -2 12 -4 2 -4 -23z"/>
<path d="M198 535 c-7 -36 -3 -42 16 -26 8 7 27 16 43 21 l28 8 -27 1 c-15 1
-30 -5 -34 -11 -6 -9 -10 -5 -14 12 -6 25 -6 25 -12 -5z"/>
<path d="M301 537 c2 -1 14 -11 27 -21 12 -11 22 -16 22 -13 0 10 -31 37 -42
37 -6 0 -9 -1 -7 -3z"/>
<path d="M242 498 c-19 -19 -14 -46 12 -63 36 -24 68 -5 64 38 -3 27 -7 32
-33 35 -17 2 -36 -3 -43 -10z m48 -42 c-13 -13 -35 7 -25 24 5 8 11 8 21 -1
10 -8 12 -15 4 -23z"/>
<path d="M455 474 c50 -13 99 -23 110 -21 25 3 -145 47 -177 46 -13 0 18 -12
67 -25z"/>
<path d="M186 483 c-4 -4 -28 -10 -54 -14 l-47 -6 46 -2 c25 0 50 4 57 11 9 9
12 7 12 -10 0 -12 4 -22 9 -22 4 0 6 11 3 25 -4 25 -13 31 -26 18z"/>
<path d="M365 383 c0 -73 3 -92 13 -88 8 3 84 23 171 45 128 33 163 39 185 30
26 -9 27 -9 24 17 -3 25 -9 29 -78 45 -96 23 -116 17 -27 -7 102 -27 101 -45
-1 -19 -48 12 -132 33 -187 46 l-100 24 0 -93z m148 30 l108 -27 -103 -28
c-57 -15 -109 -28 -115 -28 -9 0 -13 18 -13 55 0 30 3 55 8 55 4 0 56 -12 115
-27z"/>
<path d="M70 431 c-15 -29 -12 -87 6 -106 13 -12 14 -18 4 -31 -7 -8 -10 -17
-6 -21 3 -3 6 -1 6 5 0 6 18 16 41 22 35 10 44 9 60 -6 22 -20 25 -71 5 -96
-8 -11 -26 -18 -45 -18 -17 0 -31 -4 -31 -10 0 -16 53 -12 78 6 16 11 22 25
22 50 0 23 4 33 11 28 7 -4 10 1 7 12 -2 11 -7 18 -11 16 -5 -2 -17 7 -27 19
-16 17 -26 20 -54 15 -29 -6 -37 -3 -50 16 -24 33 -20 82 7 101 18 13 19 16 5
16 -10 1 -22 -8 -28 -18z"/>
<path d="M108 419 c-35 -20 -19 -79 21 -79 51 0 69 46 29 74 -26 19 -27 19
-50 5z m37 -49 c-5 -8 -11 -8 -17 -2 -6 6 -7 16 -3 22 5 8 11 8 17 2 6 -6 7
-16 3 -22z"/>
<path d="M310 410 c-13 -8 -13 -10 2 -10 9 0 20 5 23 10 8 13 -5 13 -25 0z"/>
<path d="M198 385 c-3 -14 1 -30 8 -36 12 -9 13 -5 8 22 -9 44 -10 45 -16 14z"/>
<path d="M250 380 c0 -5 19 -10 43 -10 31 0 38 3 27 10 -20 13 -70 13 -70 0z"/>
<path d="M245 336 c-24 -36 -5 -68 38 -64 27 3 33 8 35 33 3 19 -2 33 -14 42
-26 19 -42 16 -59 -11z m51 -17 c10 -17 -13 -36 -27 -22 -12 12 -4 33 11 33 5
0 12 -5 16 -11z"/>
<path d="M535 316 c-88 -22 -152 -42 -143 -44 14 -3 295 65 307 75 16 12 -24
5 -164 -31z"/>
<path d="M101 261 c-16 -29 -14 -39 13 -56 36 -24 68 -5 64 38 -3 28 -7 32
-35 35 -23 2 -34 -2 -42 -17z m49 -35 c-13 -13 -35 7 -25 24 5 8 11 8 21 -1
10 -8 12 -15 4 -23z"/>
<path d="M330 264 c0 -8 5 -12 10 -9 6 3 10 10 10 16 0 5 -4 9 -10 9 -5 0 -10
-7 -10 -16z"/>
<path d="M60 235 c0 -14 3 -25 8 -25 4 0 7 11 7 25 0 14 -3 25 -7 25 -5 0 -8
-11 -8 -25z"/>
<path d="M258 243 c12 -2 32 -2 45 0 12 2 2 4 -23 4 -25 0 -35 -2 -22 -4z"/>
</g>
</svg>
