<?xml version="1.0" standalone="no"?>
<!DOCTYPE svg PUBLIC "-//W3C//DTD SVG 20010904//EN"
 "http://www.w3.org/TR/2001/REC-SVG-20010904/DTD/svg10.dtd">
<svg version="1.0" xmlns="http://www.w3.org/2000/svg"
 width="100.000000pt" height="100.000000pt" viewBox="0 0 100.000000 100.000000"
 preserveAspectRatio="xMidYMid meet">
<metadata>
Created by potrace 1.16, written by Peter Selinger 2001-2019
</metadata>
<g transform="translate(0.000000,100.000000) scale(0.100000,-0.100000)"
fill="#000000" stroke="none">
<path d="M33 965 c-20 -22 -18 -911 1 -931 22 -21 910 -21 932 0 21 22 21 910
0 932 -22 21 -915 20 -933 -1z m907 -465 l0 -440 -440 0 -440 0 0 440 0 440
440 0 440 0 0 -440z"/>
<path d="M100 889 c0 -5 5 -7 10 -4 6 3 10 8 10 11 0 2 -4 4 -10 4 -5 0 -10
-5 -10 -11z"/>
<path d="M885 890 c3 -5 8 -10 11 -10 2 0 4 5 4 10 0 6 -5 10 -11 10 -5 0 -7
-4 -4 -10z"/>
<path d="M120 740 c0 -5 5 -10 10 -10 6 0 10 5 10 10 0 6 -4 10 -10 10 -5 0
-10 -4 -10 -10z"/>
<path d="M150 728 c0 -19 2 -20 10 -8 8 12 10 10 10 -10 0 -20 2 -22 10 -10 8
13 10 12 10 -3 0 -11 14 -32 30 -47 17 -15 30 -32 30 -37 0 -5 9 -15 20 -23
11 -8 20 -24 20 -35 0 -16 2 -17 10 -5 8 12 10 10 10 -10 0 -20 2 -22 10 -10
8 12 10 11 10 -5 0 -11 -9 -27 -20 -35 -11 -8 -20 -24 -20 -35 0 -16 -2 -17
-10 -5 -8 13 -10 12 -10 -3 0 -11 -13 -32 -30 -47 -29 -27 -41 -48 -20 -35 15
9 12 -4 -4 -21 -11 -11 -16 -11 -19 -1 -3 7 -6 4 -6 -6 -1 -10 -13 -30 -27
-44 -21 -21 -28 -23 -35 -12 -7 11 -9 8 -9 -8 0 -23 1 -23 150 -23 137 0 150
2 150 18 0 10 9 24 20 32 11 8 20 22 20 32 0 10 5 18 10 18 6 0 10 7 10 15 0
8 9 15 20 15 15 0 20 -7 20 -25 0 -14 5 -25 10 -25 6 0 10 -10 10 -22 0 -19 2
-20 10 -8 8 13 10 12 10 -3 0 -41 21 -47 174 -47 91 0 146 4 146 10 0 6 -5 10
-10 10 -11 0 -100 85 -100 95 0 4 5 3 10 0 26 -16 5 11 -50 65 -36 36 -60 67
-60 80 0 12 18 39 40 60 37 36 53 59 30 45 -26 -16 -5 11 50 65 33 32 60 61
60 64 0 4 -65 6 -145 6 l-145 0 0 -32 c0 -25 -3 -29 -10 -18 -8 12 -10 11 -10
-7 0 -13 -4 -23 -10 -23 -5 0 -10 -9 -10 -20 0 -13 -7 -20 -20 -20 -14 0 -20
7 -20 23 0 18 -2 19 -10 7 -8 -12 -10 -11 -10 8 0 12 -4 22 -10 22 -5 0 -10
10 -10 23 0 18 -2 19 -10 7 -8 -12 -10 -11 -10 8 0 22 -2 22 -135 22 -133 0
-135 0 -135 -22z m250 -31 c0 -7 9 -23 20 -35 11 -12 20 -28 20 -37 0 -8 5
-15 10 -15 6 0 10 -7 10 -15 0 -11 11 -15 41 -15 31 0 40 3 36 14 -3 8 1 17 9
20 8 3 14 12 14 21 0 8 5 15 10 15 6 0 10 7 10 16 0 32 27 44 99 44 39 0 71
-3 71 -6 0 -10 -63 -97 -92 -128 -47 -49 -33 -104 44 -178 15 -14 28 -30 28
-35 0 -4 9 -19 20 -33 11 -14 20 -28 20 -32 0 -5 -38 -8 -84 -8 -84 0 -84 0
-98 30 -7 17 -16 30 -20 30 -5 0 -8 8 -8 18 -1 30 -26 52 -59 52 -34 0 -61
-19 -61 -42 0 -7 -9 -24 -20 -38 -11 -14 -20 -31 -20 -37 0 -10 -25 -13 -91
-13 l-90 0 18 31 c10 17 25 38 33 47 9 9 27 33 40 52 13 19 32 44 42 54 26 29
23 45 -22 104 -22 29 -40 55 -40 58 0 3 -13 19 -30 34 -16 15 -30 31 -30 34 0
3 38 6 85 6 63 0 85 -3 85 -13z m120 -89 c0 -4 -9 -8 -20 -8 -11 0 -20 4 -20
9 0 6 9 9 20 8 11 -1 20 -5 20 -9z m-7 -215 c-7 -2 -19 -2 -25 0 -7 3 -2 5 12
5 14 0 19 -2 13 -5z"/>
<path d="M100 110 c0 -5 5 -10 11 -10 5 0 7 5 4 10 -3 6 -8 10 -11 10 -2 0 -4
-4 -4 -10z"/>
<path d="M885 110 c-3 -5 -1 -10 4 -10 6 0 11 5 11 10 0 6 -2 10 -4 10 -3 0
-8 -4 -11 -10z"/>
</g>
</svg>
