<?xml version="1.0" standalone="no"?>
<!DOCTYPE svg PUBLIC "-//W3C//DTD SVG 20010904//EN"
 "http://www.w3.org/TR/2001/REC-SVG-20010904/DTD/svg10.dtd">
<svg version="1.0" xmlns="http://www.w3.org/2000/svg"
 width="152.000000pt" height="152.000000pt" viewBox="0 0 152.000000 152.000000"
 preserveAspectRatio="xMidYMid meet">
<metadata>
Created by potrace 1.16, written by Peter Selinger 2001-2019
</metadata>
<g transform="translate(0.000000,152.000000) scale(0.100000,-0.100000)"
fill="#000000" stroke="none">
<path d="M635 1396 c-262 -61 -459 -260 -510 -518 -19 -98 -19 -150 1 -245 38
-185 136 -332 281 -424 165 -104 330 -132 512 -89 124 30 211 80 306 175 124
124 180 248 192 422 19 298 -172 572 -462 663 -89 28 -237 35 -320 16z m330
-53 c188 -67 334 -216 396 -405 20 -61 24 -93 23 -193 0 -104 -3 -129 -26
-187 -37 -97 -84 -171 -154 -242 -73 -72 -145 -118 -246 -154 -63 -23 -89 -26
-188 -27 -100 0 -125 4 -195 28 -240 82 -414 305 -432 553 -20 276 174 550
452 637 76 24 92 26 195 22 73 -2 114 -10 175 -32z"/>
<path d="M394 935 c-10 -73 0 -281 15 -299 17 -20 107 -22 114 -3 3 9 8 9 21
-3 28 -23 119 -19 154 7 l29 21 27 -22 c25 -20 27 -23 12 -35 -26 -21 -20 -66
9 -79 66 -30 154 -3 181 57 14 32 20 36 56 38 22 0 44 7 49 14 6 10 11 10 24
-1 15 -12 57 -15 140 -9 11 0 37 -2 57 -6 31 -6 40 -4 62 18 31 31 33 65 5
101 -26 32 -79 36 -109 6 -12 -12 -22 -15 -26 -9 -3 6 -19 9 -35 7 -16 -1 -29
2 -29 7 0 6 13 10 29 10 55 0 95 72 57 104 -24 20 -99 24 -138 8 -27 -11 -38
-12 -41 -4 -2 8 -44 12 -139 12 -123 0 -139 -2 -165 -21 -28 -21 -28 -21 -54
-2 -36 27 -97 33 -141 15 l-37 -16 -3 62 -3 62 -57 3 -57 3 -7 -46z m99 -139
c2 -148 1 -156 -17 -156 -11 0 -28 7 -38 17 -16 14 -18 33 -18 154 l0 138 33
3 c17 2 33 3 35 2 1 -1 4 -72 5 -158z m176 39 c27 -13 51 -58 51 -92 0 -29
-31 -80 -56 -92 -43 -19 -81 -13 -116 18 -28 25 -33 36 -33 76 0 40 5 51 33
76 36 33 77 37 121 14z m271 -112 c0 -124 0 -125 -29 -154 -32 -31 -83 -39
-122 -18 -20 10 -20 11 3 29 13 10 34 20 47 22 13 1 30 12 37 24 14 20 12 20
-35 20 -71 -1 -101 28 -101 100 0 46 4 55 30 78 26 22 39 25 100 24 l70 0 0
-125z m95 22 l0 -105 -37 0 -38 0 0 105 0 105 38 0 37 0 0 -105z m168 94 c12
-7 24 -13 25 -15 2 -1 -5 -11 -16 -22 -14 -14 -28 -18 -47 -14 -28 5 -55 -16
-55 -44 0 -23 32 -46 56 -40 16 4 30 0 45 -15 11 -11 19 -22 17 -23 -40 -35
-99 -33 -140 2 -27 25 -31 36 -31 77 0 41 4 52 31 77 35 30 77 36 115 17z
m128 -130 c16 -30 -3 -69 -34 -69 -29 0 -47 17 -47 45 0 45 60 63 81 24z"/>
<path d="M580 775 c-19 -22 -4 -64 25 -71 31 -8 55 10 55 40 0 43 -53 63 -80
31z m44 -36 c-3 -5 -10 -7 -15 -3 -5 3 -7 10 -3 15 3 5 10 7 15 3 5 -3 7 -10
3 -15z"/>
<path d="M800 770 c-15 -29 -3 -59 26 -66 30 -8 54 11 54 40 0 46 -59 64 -80
26z m45 -19 c3 -5 1 -12 -5 -16 -5 -3 -10 1 -10 9 0 18 6 21 15 7z"/>
</g>
</svg>
