<?xml version="1.0" standalone="no"?>
<!DOCTYPE svg PUBLIC "-//W3C//DTD SVG 20010904//EN"
 "http://www.w3.org/TR/2001/REC-SVG-20010904/DTD/svg10.dtd">
<svg version="1.0" xmlns="http://www.w3.org/2000/svg"
 width="100.000000pt" height="100.000000pt" viewBox="0 0 100.000000 100.000000"
 preserveAspectRatio="xMidYMid meet">
<metadata>
Created by potrace 1.16, written by Peter Selinger 2001-2019
</metadata>
<g transform="translate(0.000000,100.000000) scale(0.100000,-0.100000)"
fill="#000000" stroke="none">
<path d="M58 979 c-29 -21 -65 -85 -55 -96 8 -7 37 22 37 37 0 16 47 60 65 60
8 0 15 5 15 10 0 17 -33 11 -62 -11z"/>
<path d="M880 990 c0 -5 7 -10 15 -10 18 0 65 -44 65 -60 0 -14 29 -44 36 -37
8 7 -16 46 -50 85 -29 30 -66 43 -66 22z"/>
<path d="M248 853 c7 -3 16 -2 19 1 4 3 -2 6 -13 5 -11 0 -14 -3 -6 -6z"/>
<path d="M460 840 c0 -5 -9 -10 -20 -10 -11 0 -20 -4 -20 -8 0 -5 -16 -14 -35
-22 -19 -8 -35 -17 -35 -22 0 -4 -9 -8 -20 -8 -11 0 -20 -4 -20 -10 0 -5 -7
-10 -15 -10 -8 0 -15 -3 -15 -8 0 -12 -59 -34 -71 -26 -8 4 -9 3 -5 -4 4 -7
-2 -22 -13 -34 -19 -20 -21 -34 -21 -165 0 -105 -4 -150 -14 -166 -17 -28 -10
-101 10 -93 8 3 11 0 7 -10 -4 -10 3 -14 26 -14 17 0 31 -4 31 -10 0 -6 31
-10 74 -10 47 0 76 -4 78 -12 6 -17 226 -18 240 -1 7 8 35 13 79 13 38 0 69 4
69 9 0 6 15 11 33 13 22 2 35 10 42 26 8 17 19 22 50 24 l40 1 -45 7 c-25 4
-38 8 -30 9 13 1 13 2 0 11 -8 5 -12 10 -7 10 4 0 1 13 -8 30 -8 16 -15 52
-15 80 l0 50 43 1 42 2 -35 7 -35 7 30 3 30 2 -30 7 c-25 5 -31 12 -37 46 -4
22 -7 55 -7 73 -1 23 -11 42 -36 67 -19 19 -41 35 -50 35 -8 0 -15 5 -15 10 0
6 -6 10 -12 10 -7 0 -24 9 -38 20 -14 11 -32 20 -42 20 -9 0 -18 3 -20 8 -13
31 -158 69 -158 42z m90 -40 c-12 -8 -11 -10 8 -10 12 0 22 -4 22 -10 0 -5 9
-10 20 -10 11 0 20 -4 20 -10 0 -5 12 -10 28 -10 21 0 24 -2 12 -10 -12 -8
-11 -10 8 -10 12 0 22 -4 22 -10 0 -5 9 -10 20 -10 11 0 20 -4 20 -10 0 -5 10
-10 23 -10 18 0 19 -2 7 -10 -12 -8 -11 -10 8 -10 15 0 22 -6 22 -20 0 -11 5
-20 10 -20 6 0 10 -53 10 -140 0 -133 -1 -140 -20 -140 -19 0 -20 7 -22 128
l-2 127 -6 -130 -6 -130 -2 153 c-2 145 -3 152 -22 152 -11 0 -20 5 -20 10 0
6 -8 10 -18 10 -10 0 -24 9 -32 20 -8 11 -25 20 -37 20 -13 0 -23 5 -23 10 0
6 -9 10 -20 10 -11 0 -20 5 -20 10 0 6 -27 10 -60 10 -33 0 -60 -4 -60 -10 0
-5 -10 -10 -22 -10 -19 0 -20 -2 -8 -10 11 -7 5 -10 -25 -10 -30 0 -36 -3 -25
-10 12 -8 11 -10 -7 -10 -13 0 -23 -4 -23 -10 0 -5 -8 -10 -18 -10 -10 0 -24
-9 -32 -20 -10 -14 -16 -16 -22 -7 -4 6 -8 -57 -8 -140 l0 -153 -30 0 -30 0 2
143 2 142 6 -140 6 -140 2 160 c1 88 6 154 10 148 6 -9 12 -7 22 7 8 11 24 20
35 20 16 0 17 2 5 10 -12 8 -11 10 8 10 12 0 22 5 22 10 0 6 9 10 20 10 11 0
20 5 20 10 0 6 12 10 28 11 24 0 25 1 7 9 -18 8 -17 9 8 9 15 1 27 6 27 11 0
6 9 10 20 10 11 0 20 5 20 10 0 6 24 10 53 10 37 0 48 -3 37 -10z m-30 -90 c0
-13 -7 -20 -20 -20 -13 0 -20 7 -20 20 0 13 7 20 20 20 13 0 20 -7 20 -20z
m40 -9 c0 -5 9 -11 20 -14 17 -4 20 -14 20 -57 l0 -52 35 4 c43 5 47 -15 10
-44 -14 -11 -23 -24 -20 -29 4 -5 1 -9 -4 -9 -6 0 -11 5 -11 10 0 6 -6 10 -13
10 -7 0 -14 12 -15 26 -2 29 -18 54 -34 54 -13 0 -38 26 -38 39 0 6 -3 10 -7
10 -22 -4 -43 2 -43 11 0 6 16 10 35 10 28 0 35 4 35 20 0 11 7 20 15 20 8 0
15 -4 15 -9z m-120 -33 c0 -19 -2 -20 -10 -8 -7 10 -10 -6 -10 -55 0 -49 3
-65 10 -55 8 12 10 9 10 -13 0 -32 58 -97 87 -97 15 0 16 -2 3 -10 -10 -7 12
-10 73 -10 80 0 87 -2 87 -20 0 -13 -7 -20 -20 -20 -11 0 -20 -5 -20 -11 0 -5
5 -7 10 -4 6 3 10 1 10 -4 0 -6 -11 -11 -25 -11 -14 0 -25 -4 -25 -10 0 -6 42
-10 105 -10 98 0 105 -1 105 -20 0 -11 -4 -20 -10 -20 -5 0 -10 -9 -10 -20 0
-15 -6 -20 -27 -19 l-28 1 25 8 25 8 -25 1 c-20 1 -22 3 -10 11 12 8 9 10 -12
10 -16 0 -28 -4 -28 -10 0 -5 -15 -10 -32 -10 -25 0 -29 -3 -18 -10 11 -7 -2
-10 -42 -10 -32 0 -58 -4 -58 -10 0 -5 5 -10 10 -10 6 0 10 -4 10 -10 0 -6
-40 -10 -100 -10 -64 0 -100 4 -100 11 0 5 5 7 10 4 6 -3 10 1 10 9 0 12 -11
16 -45 16 -25 0 -45 5 -45 10 0 6 -13 10 -30 10 -16 0 -30 5 -30 10 0 6 -9 10
-20 10 -11 0 -20 7 -20 16 0 8 -4 12 -10 9 -18 -11 -11 -20 34 -44 26 -15 48
-21 56 -16 8 5 11 4 6 -3 -4 -7 9 -12 36 -15 29 -2 19 -4 -29 -5 -67 -2 -73 0
-73 18 0 15 -6 20 -27 19 l-28 -1 25 -8 25 -8 -27 -1 c-23 -1 -28 3 -28 22 0
18 -2 19 -10 7 -7 -11 -10 -7 -10 18 l0 32 115 0 c70 0 115 4 115 10 0 6 -11
10 -25 10 -14 0 -25 5 -25 11 0 5 5 7 10 4 17 -11 11 7 -9 24 -10 9 -21 25
-24 36 -3 16 -6 13 -12 -12 -9 -38 -45 -48 -45 -13 0 13 7 20 20 20 18 0 20 7
20 80 0 47 4 80 10 80 6 0 10 9 10 20 0 22 41 70 60 70 5 0 10 5 10 10 0 6 9
10 20 10 14 0 20 -7 20 -22z m230 -43 c0 -20 -5 -25 -25 -25 -20 0 -25 5 -25
25 0 20 5 25 25 25 20 0 25 -5 25 -25z m-170 -6 c0 -5 -4 -7 -10 -4 -5 3 -10
1 -10 -4 0 -6 5 -11 10 -11 6 0 10 -4 10 -10 0 -5 -9 -10 -20 -10 -15 0 -20 7
-20 25 0 18 5 25 20 25 11 0 20 -5 20 -11z m216 -3 c16 -16 19 -76 4 -76 -5 0
-10 5 -10 10 0 6 -7 10 -15 10 -16 0 -18 12 -9 48 7 26 11 27 30 8z m-426 -26
c0 -5 -4 -10 -10 -10 -5 0 -10 5 -10 10 0 6 5 10 10 10 6 0 10 -4 10 -10z
m270 -30 c0 -13 -7 -20 -20 -20 -13 0 -20 7 -20 20 0 13 7 20 20 20 13 0 20
-7 20 -20z m-38 -33 c35 -37 35 -47 1 -46 l-28 1 25 8 c23 7 22 8 -10 9 -21 1
-30 4 -23 9 9 6 7 12 -7 22 -24 18 -25 27 -3 27 9 0 29 -14 45 -30z m188 -27
c0 -13 -7 -20 -20 -20 -13 0 -20 7 -20 20 0 13 7 20 20 20 13 0 20 -7 20 -20z
m-130 -20 c0 -11 -4 -20 -10 -20 -5 0 -10 9 -10 20 0 11 5 20 10 20 6 0 10 -9
10 -20z m75 -20 c8 0 15 -4 15 -10 0 -5 -17 -10 -38 -10 -27 0 -39 4 -39 14 0
8 6 12 14 9 8 -3 13 2 13 13 1 18 1 18 11 2 5 -10 17 -18 24 -18z m75 -8 c0
-10 -7 -19 -14 -19 -11 0 -13 5 -5 19 5 10 12 18 14 18 3 0 5 -8 5 -18z m-4
-79 c-10 -10 -19 5 -10 18 6 11 8 11 12 0 2 -7 1 -15 -2 -18z m24 -128 c0 -12
-14 -15 -72 -14 l-73 1 59 9 c32 5 61 11 64 14 10 10 22 5 22 -10z"/>
<path d="M493 763 c9 -2 25 -2 35 0 9 3 1 5 -18 5 -19 0 -27 -2 -17 -5z"/>
<path d="M234 480 c0 -69 1 -97 3 -62 2 34 2 90 0 125 -2 34 -3 6 -3 -63z"/>
<path d="M598 403 c12 -2 30 -2 40 0 9 3 -1 5 -23 4 -22 0 -30 -2 -17 -4z"/>
<path d="M142 690 c0 -14 2 -19 5 -12 2 6 2 18 0 25 -3 6 -5 1 -5 -13z"/>
<path d="M135 620 c3 -5 8 -10 11 -10 2 0 4 5 4 10 0 6 -5 10 -11 10 -5 0 -7
-4 -4 -10z"/>
<path d="M135 590 c3 -5 8 -10 11 -10 2 0 4 5 4 10 0 6 -5 10 -11 10 -5 0 -7
-4 -4 -10z"/>
<path d="M921 398 c1 -79 3 -96 10 -73 11 36 9 164 -3 171 -4 3 -8 -41 -7 -98z"/>
<path d="M128 473 c7 -3 16 -2 19 1 4 3 -2 6 -13 5 -11 0 -14 -3 -6 -6z"/>
<path d="M40 450 c0 -5 -9 -10 -20 -10 -11 0 -20 -4 -20 -10 0 -5 13 -10 30
-10 23 0 30 4 30 20 0 11 -4 20 -10 20 -5 0 -10 -4 -10 -10z"/>
<path d="M101 398 c0 -31 3 -37 8 -24 7 18 3 66 -5 66 -2 0 -4 -19 -3 -42z"/>
<path d="M83 340 c0 -36 2 -50 4 -32 2 17 2 47 0 65 -2 17 -4 3 -4 -33z"/>
<path d="M0 280 c0 -5 9 -10 20 -10 11 0 20 5 20 10 0 6 -9 10 -20 10 -11 0
-20 -4 -20 -10z"/>
<path d="M0 115 c0 -3 5 -11 10 -18 6 -7 19 -24 31 -39 12 -17 29 -28 42 -27
20 1 20 2 3 6 -23 6 -46 27 -46 43 0 6 -6 18 -14 26 -15 14 -26 18 -26 9z"/>
<path d="M973 105 c-7 -8 -13 -19 -13 -25 0 -16 -47 -60 -65 -60 -8 0 -15 -4
-15 -10 0 -33 82 28 95 71 4 11 11 19 16 19 5 0 9 5 9 10 0 14 -13 12 -27 -5z"/>
<path d="M95 10 c3 -5 10 -10 16 -10 5 0 9 5 9 10 0 6 -7 10 -16 10 -8 0 -12
-4 -9 -10z"/>
</g>
</svg>
