<?xml version="1.0" standalone="no"?>
<!DOCTYPE svg PUBLIC "-//W3C//DTD SVG 20010904//EN"
 "http://www.w3.org/TR/2001/REC-SVG-20010904/DTD/svg10.dtd">
<svg version="1.0" xmlns="http://www.w3.org/2000/svg"
 width="180.000000pt" height="180.000000pt" viewBox="0 0 180.000000 180.000000"
 preserveAspectRatio="xMidYMid meet">
<metadata>
Created by potrace 1.16, written by Peter Selinger 2001-2019
</metadata>
<g transform="translate(0.000000,180.000000) scale(0.100000,-0.100000)"
fill="#000000" stroke="none">
<path d="M270 1264 c-11 -25 -20 -50 -20 -54 0 -10 -99 -234 -130 -295 -11
-21 -20 -45 -20 -53 0 -7 -23 -65 -50 -128 -28 -63 -50 -125 -50 -137 0 -20 2
-19 15 7 29 56 105 235 105 248 0 8 9 32 20 53 50 97 160 360 160 382 0 2 338
3 750 3 493 0 750 3 750 10 0 7 -258 10 -755 10 l-756 0 -19 -46z"/>
<path d="M703 1230 c-108 -22 -163 -73 -231 -214 -28 -55 -63 -121 -79 -144
l-30 -44 -102 -1 c-95 -2 -104 -4 -122 -26 -11 -14 -19 -39 -19 -62 0 -31 5
-42 27 -56 40 -26 143 -24 209 5 l50 23 234 -36 c129 -19 241 -35 250 -36 8 0
5 -4 -8 -10 -33 -13 -28 -63 7 -67 40 -6 89 8 119 33 27 23 31 23 108 13 180
-23 326 7 405 81 44 42 52 81 18 81 -12 0 -23 8 -26 20 -3 11 -9 20 -14 20
-21 0 -6 22 27 42 28 16 34 26 32 47 l-3 26 -143 3 -142 3 15 29 c8 16 15 36
15 45 0 9 10 29 22 45 69 94 -96 133 -185 44 -19 -19 -47 -64 -62 -99 l-27
-65 -229 0 c-126 0 -229 2 -229 4 0 1 5 18 12 36 10 31 12 32 19 12 7 -19 16
-22 66 -22 105 0 204 66 219 145 9 51 -4 93 -34 109 -37 19 -118 26 -169 16z
m152 -44 c24 -16 27 -23 22 -58 -6 -46 -43 -90 -99 -119 -45 -23 -129 -30
-135 -11 -3 8 8 12 37 12 23 0 51 5 63 11 63 33 112 114 87 144 -33 40 -138
20 -178 -34 -11 -15 -48 -83 -81 -150 -34 -66 -77 -139 -96 -160 l-35 -38 73
-12 c88 -14 440 -61 459 -61 13 0 20 13 67 123 17 40 18 47 5 47 -9 0 -14 6
-11 13 2 6 12 12 22 12 12 0 25 19 44 65 33 82 83 136 135 146 45 8 71 -4 71
-32 0 -14 -8 -20 -29 -22 -25 -3 -28 -1 -23 17 3 12 2 21 -2 21 -22 0 -54 -40
-86 -106 -28 -61 -33 -79 -24 -91 10 -11 9 -15 -7 -19 -12 -4 -32 -35 -56 -92
-21 -47 -36 -87 -34 -89 2 -2 61 -11 131 -19 152 -19 224 -10 298 36 27 16 53
30 59 30 24 0 -40 -53 -100 -82 -77 -38 -170 -46 -317 -29 -97 11 -97 11 -120
-13 -33 -36 -130 -58 -110 -25 4 5 14 9 24 9 10 0 27 10 39 23 l22 23 -293 43
-292 43 -36 -21 c-99 -58 -238 -24 -199 48 13 26 62 35 156 29 l74 -5 39 61
c22 34 58 100 81 148 22 48 52 101 67 118 25 30 81 64 133 81 39 13 125 4 155
-15z m-58 -42 c15 -41 -49 -96 -126 -109 l-44 -7 25 43 c42 72 128 116 145 73z
m483 -117 c0 -2 -23 -54 -50 -116 -40 -89 -48 -116 -39 -127 10 -12 2 -14 -45
-14 -51 0 -78 14 -40 22 20 4 105 196 98 221 -4 14 1 17 35 17 23 0 41 -1 41
-3z m-653 -126 c2 -1 -9 -22 -23 -47 -28 -50 -27 -62 4 -43 26 16 44 56 37 79
-5 14 1 17 35 17 22 0 40 -1 40 -2 0 -1 -11 -27 -24 -56 -12 -30 -21 -60 -19
-66 3 -9 -7 -13 -32 -13 -29 0 -36 3 -31 15 7 19 6 19 -32 -1 -18 -8 -36 -13
-42 -9 -14 9 -12 41 5 75 10 19 11 31 5 35 -19 12 -1 22 37 19 21 -1 39 -2 40
-3z m273 -2 c0 -5 -10 -14 -22 -19 -46 -19 -67 -43 -57 -67 4 -13 13 -23 19
-23 5 0 10 -4 10 -10 0 -5 -21 -10 -46 -10 -42 0 -45 2 -39 23 l6 22 -17 -22
c-10 -14 -27 -23 -43 -22 -25 0 -25 1 -6 14 61 43 58 38 41 79 -9 21 -16 39
-16 40 0 1 38 3 85 4 51 1 85 -3 85 -9z m95 -2 c14 -11 16 -21 11 -43 -4 -16
-8 -40 -9 -54 -2 -23 -6 -25 -52 -26 -63 -2 -82 3 -89 22 -12 32 12 54 58 54
31 0 46 5 50 16 10 25 -1 29 -23 10 -14 -13 -21 -14 -27 -5 -8 14 21 39 46 39
9 0 24 -6 35 -13z m346 3 c43 -23 5 -80 -53 -80 -17 0 -28 -5 -28 -14 0 -18
92 -15 114 3 18 15 19 21 7 53 -5 13 -8 27 -7 33 1 11 166 19 166 7 0 -4 -20
-18 -45 -32 -25 -14 -45 -30 -45 -36 0 -23 12 -44 26 -44 8 0 14 -4 14 -10 0
-5 -23 -10 -51 -10 -45 0 -50 2 -39 15 10 12 10 15 -4 15 -9 0 -16 -7 -16 -15
0 -10 -10 -15 -30 -15 -17 0 -30 5 -30 12 0 9 -3 9 -12 0 -7 -7 -24 -12 -38
-12 -59 0 -67 55 -16 106 36 36 55 41 87 24z m44 -159 c70 -1 60 -14 -24 -32
-42 -9 -81 -8 -163 1 -59 7 -108 16 -108 21 0 9 84 15 175 12 33 -1 87 -2 120
-2z"/>
<path d="M181 761 c-8 -5 -11 -16 -8 -25 9 -22 98 -21 140 1 l32 17 -45 7
c-63 10 -103 10 -119 0z"/>
<path d="M800 875 c0 -8 4 -15 9 -15 5 0 14 7 21 15 10 13 9 15 -9 15 -12 0
-21 -6 -21 -15z"/>
<path d="M916 824 c-13 -13 -15 -19 -6 -22 6 -2 16 0 22 6 6 6 8 16 6 22 -3 9
-9 7 -22 -6z"/>
<path d="M1290 865 c-18 -19 -20 -25 -8 -25 19 0 52 36 40 44 -5 3 -20 -6 -32
-19z"/>
<path d="M1430 875 c0 -17 2 -18 24 -9 23 9 20 24 -4 24 -11 0 -20 -7 -20 -15z"/>
<path d="M1564 1222 c-16 -10 -34 -48 -34 -70 0 -35 38 -72 74 -72 52 0 76 24
76 75 0 34 -5 47 -22 59 -23 17 -75 21 -94 8z m74 -28 c32 -22 26 -63 -11 -84
-27 -14 -29 -14 -52 12 -27 31 -24 61 8 76 29 14 29 14 55 -4z"/>
<path d="M1581 1176 c-8 -10 -10 -23 -5 -33 6 -15 8 -13 12 10 2 19 9 27 23
27 16 0 19 -5 14 -19 -3 -11 -1 -22 5 -26 8 -5 10 2 8 21 -4 33 -37 45 -57 20z"/>
<path d="M1600 1130 c0 -5 5 -10 11 -10 5 0 7 5 4 10 -3 6 -8 10 -11 10 -2 0
-4 -4 -4 -10z"/>
<path d="M1782 1182 c-37 -79 -102 -232 -102 -242 0 -9 -25 -66 -101 -225 -10
-22 -31 -76 -47 -120 l-29 -80 -751 -3 c-490 -1 -752 -6 -752 -12 0 -16 1505
-14 1518 3 5 6 20 41 32 77 22 63 44 114 116 267 19 40 34 77 34 83 0 6 23 63
50 127 28 64 50 124 48 134 -2 15 -5 14 -16 -9z"/>
</g>
</svg>
