<?xml version="1.0" standalone="no"?>
<!DOCTYPE svg PUBLIC "-//W3C//DTD SVG 20010904//EN"
 "http://www.w3.org/TR/2001/REC-SVG-20010904/DTD/svg10.dtd">
<svg version="1.0" xmlns="http://www.w3.org/2000/svg"
 width="64.000000pt" height="64.000000pt" viewBox="0 0 64.000000 64.000000"
 preserveAspectRatio="xMidYMid meet">
<metadata>
Created by potrace 1.16, written by Peter Selinger 2001-2019
</metadata>
<g transform="translate(0.000000,64.000000) scale(0.100000,-0.100000)"
fill="#000000" stroke="none">
<path d="M10 320 l0 -310 315 0 315 0 0 310 0 310 -315 0 -315 0 0 -310z m210
0 l0 -290 -95 0 -95 0 0 290 0 290 95 0 95 0 0 -290z m200 0 l0 -290 -95 0
-95 0 0 290 0 290 95 0 95 0 0 -290z m200 0 l0 -290 -90 0 -90 0 0 290 0 290
90 0 90 0 0 -290z"/>
<path d="M65 320 l0 -101 65 3 65 3 3 33 c3 33 2 34 -30 30 -32 -3 -33 -2 -36
40 -2 25 1 42 7 42 6 0 11 11 11 25 0 23 -4 25 -43 25 l-42 0 0 -100z m58 73
c-9 -3 -13 -27 -13 -69 0 -71 14 -89 52 -65 16 10 19 10 16 -1 -3 -7 -23 -14
-49 -16 l-44 -3 3 72 c3 52 0 74 -10 80 -8 6 -1 8 22 8 19 0 29 -3 23 -6z"/>
<path d="M245 410 c-4 -6 7 -10 25 -10 18 0 29 -4 25 -10 -6 -10 26 -110 35
-110 10 0 42 99 35 110 -4 6 4 10 19 10 14 0 26 5 26 10 0 6 -13 10 -29 10
-25 0 -31 -5 -36 -30 -4 -16 -11 -30 -16 -30 -5 0 -9 14 -9 30 0 28 -3 30 -34
30 -19 0 -38 -4 -41 -10z"/>
<path d="M246 363 c4 -15 17 -53 30 -83 18 -45 27 -56 48 -58 23 -3 29 3 50
50 28 63 41 118 29 118 -5 0 -22 -33 -39 -72 -16 -40 -34 -72 -39 -70 -6 2
-21 33 -35 69 -26 68 -58 102 -44 46z"/>
<path d="M482 408 c-15 -15 -16 -85 -1 -94 8 -5 6 -10 -5 -16 -23 -13 -21 -65
3 -78 53 -28 111 2 111 56 0 20 -5 44 -10 55 -7 13 -7 19 0 19 5 0 10 16 10
35 l0 35 -48 0 c-26 0 -53 -5 -60 -12z m88 -30 c0 -21 -1 -21 -14 -3 -14 20
-46 15 -46 -8 0 -7 14 -26 30 -42 36 -35 38 -59 6 -80 -19 -13 -29 -14 -45 -5
-21 11 -29 40 -11 40 6 0 10 -7 10 -15 0 -20 39 -19 47 1 3 9 -6 28 -26 48
-46 48 -37 86 21 86 22 0 28 -5 28 -22z"/>
</g>
</svg>
