<?xml version="1.0" standalone="no"?>
<!DOCTYPE svg PUBLIC "-//W3C//DTD SVG 20010904//EN"
 "http://www.w3.org/TR/2001/REC-SVG-20010904/DTD/svg10.dtd">
<svg version="1.0" xmlns="http://www.w3.org/2000/svg"
 width="100.000000pt" height="100.000000pt" viewBox="0 0 100.000000 100.000000"
 preserveAspectRatio="xMidYMid meet">
<metadata>
Created by potrace 1.16, written by Peter Selinger 2001-2019
</metadata>
<g transform="translate(0.000000,100.000000) scale(0.100000,-0.100000)"
fill="#000000" stroke="none">
<path d="M60 935 l0 -65 -30 0 c-17 0 -30 -4 -30 -10 0 -5 9 -10 20 -10 17 0
20 -7 20 -40 0 -33 -3 -40 -20 -40 -11 0 -20 -4 -20 -10 0 -5 13 -10 30 -10
l30 0 0 60 0 60 35 0 c33 0 35 2 35 35 l0 35 405 0 405 0 0 -65 0 -65 30 0
c17 0 30 5 30 10 0 6 -9 10 -20 10 -17 0 -20 7 -20 45 0 38 3 45 20 45 11 0
20 5 20 10 0 6 -13 10 -30 10 -27 0 -30 3 -30 30 0 17 -4 30 -10 30 -5 0 -10
-9 -10 -20 0 -20 -7 -20 -405 -20 l-405 0 0 -35 c0 -24 -5 -35 -15 -35 -12 0
-15 13 -15 55 0 30 -4 55 -10 55 -6 0 -10 -28 -10 -65z"/>
<path d="M0 930 c0 -5 9 -10 19 -10 11 0 23 5 26 10 4 6 -5 10 -19 10 -14 0
-26 -4 -26 -10z"/>
<path d="M230 901 c0 -15 -10 -21 -42 -27 -24 -4 -37 -9 -30 -11 6 -3 12 -13
12 -23 0 -10 -6 -21 -12 -23 -8 -3 -6 -6 4 -6 20 -1 14 -29 -11 -48 -14 -11
-12 -12 12 -13 26 0 27 1 27 60 l0 60 30 0 c25 0 30 4 30 25 0 14 -4 25 -10
25 -5 0 -10 -9 -10 -19z"/>
<path d="M810 895 c0 -19 5 -25 23 -24 12 0 16 3 10 6 -7 2 -13 13 -13 24 0
10 -4 19 -10 19 -5 0 -10 -11 -10 -25z"/>
<path d="M870 895 c0 -20 5 -25 25 -25 14 0 25 5 25 10 0 6 -7 10 -15 10 -8 0
-15 7 -15 15 0 8 -4 15 -10 15 -5 0 -10 -11 -10 -25z"/>
<path d="M240 845 c0 -7 -8 -19 -17 -24 -16 -9 -16 -10 5 -11 17 0 22 6 22 25
0 14 -2 25 -5 25 -3 0 -5 -7 -5 -15z"/>
<path d="M811 838 c-1 -22 4 -28 19 -28 11 0 20 5 20 10 0 6 -6 10 -14 10 -8
0 -17 8 -19 18 -3 10 -5 6 -6 -10z"/>
<path d="M870 838 c0 -23 4 -28 25 -28 14 0 25 5 25 10 0 6 -5 10 -11 10 -7 0
-18 8 -25 18 -12 15 -13 14 -14 -10z"/>
<path d="M110 840 c0 -5 -7 -10 -15 -10 -8 0 -15 -4 -15 -10 0 -5 9 -10 20
-10 22 0 23 -1 14 -24 -3 -9 -12 -16 -20 -16 -8 0 -14 -4 -14 -10 0 -5 11 -10
25 -10 23 0 25 3 25 50 0 28 -4 50 -10 50 -5 0 -10 -4 -10 -10z"/>
<path d="M870 778 c0 -23 4 -28 25 -28 14 0 25 5 25 10 0 6 -5 10 -11 10 -7 0
-18 8 -25 18 -12 15 -13 14 -14 -10z"/>
<path d="M940 770 c0 -16 7 -20 30 -20 17 0 30 5 30 10 0 6 -9 10 -20 10 -11
0 -20 5 -20 10 0 6 -4 10 -10 10 -5 0 -10 -9 -10 -20z"/>
<path d="M323 753 c9 -2 25 -2 35 0 9 3 1 5 -18 5 -19 0 -27 -2 -17 -5z"/>
<path d="M648 753 c7 -3 16 -2 19 1 4 3 -2 6 -13 5 -11 0 -14 -3 -6 -6z"/>
<path d="M718 753 c17 -2 47 -2 65 0 17 2 3 4 -33 4 -36 0 -50 -2 -32 -4z"/>
<path d="M113 727 c-13 -22 -53 -28 -54 -9 0 11 -2 12 -6 5 -2 -7 -16 -13 -29
-13 -13 0 -24 -4 -24 -10 0 -6 28 -10 65 -10 63 0 65 1 65 25 0 28 -5 31 -17
12z"/>
<path d="M940 710 c0 -16 7 -20 30 -20 17 0 30 5 30 10 0 6 -9 10 -20 10 -11
0 -20 5 -20 10 0 6 -4 10 -10 10 -5 0 -10 -9 -10 -20z"/>
<path d="M159 699 c-9 -6 4 -9 40 -9 30 0 52 2 50 4 -11 9 -77 13 -90 5z"/>
<path d="M405 699 c-23 -4 15 -7 88 -8 70 0 127 2 127 7 0 8 -158 10 -215 1z"/>
<path d="M845 700 c-25 -6 -20 -8 28 -9 37 -1 56 3 52 9 -7 11 -36 11 -80 0z"/>
<path d="M648 693 c7 -3 16 -2 19 1 4 3 -2 6 -13 5 -11 0 -14 -3 -6 -6z"/>
<path d="M690 671 c0 -15 -10 -20 -57 -25 -89 -9 -255 1 -264 16 -7 10 -9 10
-9 1 0 -9 -17 -13 -49 -13 -30 0 -51 5 -54 13 -3 7 -6 4 -6 -6 -1 -17 -8 -18
-86 -13 -49 3 -87 1 -90 -4 -4 -6 164 -10 459 -10 293 0 466 4 466 10 0 6 -37
7 -95 4 -87 -5 -95 -4 -96 13 0 10 -3 13 -6 6 -2 -7 -16 -13 -29 -13 -17 0
-24 6 -24 20 0 11 -4 20 -9 20 -5 0 -7 -9 -4 -20 4 -15 0 -20 -17 -20 -17 0
-20 4 -15 20 4 11 2 20 -4 20 -6 0 -11 -8 -11 -19z"/>
<path d="M50 660 c0 -5 -11 -10 -25 -10 -14 0 -25 -4 -25 -10 0 -5 13 -10 30
-10 23 0 30 4 30 20 0 11 -2 20 -5 20 -3 0 -5 -4 -5 -10z"/>
<path d="M234 607 c-3 -8 -4 -91 -2 -185 l3 -172 -84 0 c-46 0 -81 -3 -78 -7
4 -3 41 -6 82 -5 41 2 75 -2 75 -7 0 -5 3 -16 6 -25 5 -14 -9 -16 -115 -16
-74 0 -121 -4 -121 -10 0 -5 11 -10 24 -10 13 0 27 -6 29 -12 4 -9 6 -8 6 2 1
12 16 14 85 12 73 -3 85 -6 89 -23 5 -18 -1 -19 -114 -19 -73 0 -119 -4 -119
-10 0 -5 11 -10 24 -10 15 0 26 -7 29 -17 4 -15 5 -15 6 2 1 19 7 20 86 17 65
-3 85 -7 85 -18 0 -8 5 -14 10 -14 6 0 10 97 10 270 0 149 -2 270 -5 270 -3 0
-8 -6 -11 -13z"/>
<path d="M370 440 c0 -118 3 -179 10 -175 6 3 10 12 10 20 0 7 12 16 28 18
l27 4 -30 1 -30 2 2 150 c1 87 -2 152 -7 155 -6 4 -10 -62 -10 -175z"/>
<path d="M608 614 c-5 -4 -8 -15 -8 -25 0 -10 -9 -19 -22 -22 -22 -4 -22 -4 2
-6 l25 -1 0 -125 0 -125 -80 -2 -80 -2 76 -3 c69 -3 78 -6 85 -26 5 -15 9 9
11 71 5 127 0 275 -9 266z"/>
<path d="M677 613 c-4 -3 -7 -14 -7 -24 0 -10 -8 -20 -17 -22 -17 -4 -17 -5 0
-6 15 -1 17 -14 17 -125 0 -110 -2 -125 -17 -129 -17 -4 -17 -5 0 -6 11 -1 17
-9 17 -25 0 -15 -7 -26 -17 -29 -15 -4 -16 -5 -2 -6 9 0 19 -12 21 -25 4 -21
1 -26 -21 -29 -26 -4 -26 -4 -3 -12 25 -8 31 -45 7 -45 -8 0 -15 -4 -15 -10 0
-5 7 -10 15 -10 8 0 15 -7 15 -15 0 -8 5 -15 10 -15 6 0 10 97 10 270 0 149
-1 270 -3 270 -2 0 -7 -3 -10 -7z"/>
<path d="M750 351 c0 -174 4 -271 10 -271 6 0 10 6 10 14 0 7 9 16 20 19 15 4
20 0 21 -16 1 -17 2 -18 6 -4 4 15 17 17 94 17 53 0 89 4 89 10 0 6 -45 10
-115 10 -108 0 -115 1 -115 20 0 19 7 20 115 20 70 0 115 4 115 10 0 6 -45 10
-115 10 l-115 0 0 24 0 25 115 -5 c73 -2 115 0 115 6 0 6 -45 10 -115 10 -106
0 -115 1 -115 19 0 19 25 35 39 26 4 -2 21 0 37 5 25 7 23 8 -23 9 -47 1 -53
3 -53 22 0 12 8 28 18 35 16 13 16 13 0 14 -15 0 -18 10 -18 59 0 38 4 61 13
64 10 4 10 6 0 6 -7 1 -13 12 -13 25 0 13 6 27 13 29 10 4 10 6 0 6 -7 1 -13
10 -13 20 0 11 -4 23 -10 26 -7 4 -10 -87 -10 -264z"/>
<path d="M47 591 c-2 -11 -15 -21 -28 -24 -19 -3 -17 -5 9 -6 28 -1 32 2 32
24 0 30 -6 32 -13 6z"/>
<path d="M290 591 c0 -11 -6 -22 -12 -24 -7 -3 -3 -6 10 -6 22 -1 22 -3 22
-122 0 -83 3 -118 11 -113 6 3 8 17 5 30 -5 18 -2 24 11 25 11 0 13 3 6 6 -9
3 -13 28 -13 75 0 56 4 74 18 84 15 12 14 13 -10 14 -23 0 -28 4 -28 25 0 14
-4 25 -10 25 -5 0 -10 -9 -10 -19z"/>
<path d="M812 470 c0 -92 3 -138 8 -125 11 24 10 209 -1 245 -4 14 -7 -40 -7
-120z"/>
<path d="M710 570 c0 -5 5 -10 10 -10 6 0 10 5 10 10 0 6 -4 10 -10 10 -5 0
-10 -4 -10 -10z"/>
<path d="M108 563 c17 -2 47 -2 65 0 17 2 3 4 -33 4 -36 0 -50 -2 -32 -4z"/>
<path d="M453 563 c9 -2 23 -2 30 0 6 3 -1 5 -18 5 -16 0 -22 -2 -12 -5z"/>
<path d="M48 517 c-2 -12 -1 -45 2 -72 7 -48 7 -48 9 23 1 73 -3 91 -11 49z"/>
<path d="M432 420 c0 -14 2 -19 5 -12 2 6 2 18 0 25 -3 6 -5 1 -5 -13z"/>
<path d="M41 373 c0 -5 4 -17 9 -28 8 -18 9 -17 9 8 1 15 -3 27 -9 27 -5 0
-10 -3 -9 -7z"/>
<path d="M468 373 c7 -3 16 -2 19 1 4 3 -2 6 -13 5 -11 0 -14 -3 -6 -6z"/>
<path d="M710 370 c0 -5 5 -10 10 -10 6 0 10 5 10 10 0 6 -4 10 -10 10 -5 0
-10 -4 -10 -10z"/>
<path d="M15 303 c11 -3 26 -12 33 -21 11 -14 12 -13 12 6 0 18 -5 22 -32 21
-21 -1 -26 -3 -13 -6z"/>
<path d="M108 303 c17 -2 47 -2 65 0 17 2 3 4 -33 4 -36 0 -50 -2 -32 -4z"/>
<path d="M270 300 c0 -5 5 -10 10 -10 6 0 10 5 10 10 0 6 -4 10 -10 10 -5 0
-10 -4 -10 -10z"/>
<path d="M310 283 c1 -24 3 -26 13 -13 7 8 19 21 27 28 12 10 9 12 -13 12 -23
0 -27 -4 -27 -27z"/>
<path d="M710 300 c0 -5 5 -10 10 -10 6 0 10 5 10 10 0 6 -4 10 -10 10 -5 0
-10 -4 -10 -10z"/>
<path d="M918 303 c18 -2 45 -2 60 0 15 2 0 4 -33 4 -33 0 -45 -2 -27 -4z"/>
<path d="M15 243 c11 -3 26 -12 33 -21 11 -14 12 -13 12 6 0 18 -5 22 -32 21
-21 -1 -26 -3 -13 -6z"/>
<path d="M270 240 c0 -5 5 -10 10 -10 6 0 10 5 10 10 0 6 -4 10 -10 10 -5 0
-10 -4 -10 -10z"/>
<path d="M310 220 c0 -26 -4 -30 -27 -30 -24 -1 -26 -2 -12 -13 23 -18 31 -47
14 -47 -8 0 -15 -4 -15 -10 0 -5 5 -10 10 -10 6 0 10 -7 10 -15 0 -8 5 -15 10
-15 6 0 10 25 10 55 0 53 1 55 28 55 26 1 26 1 7 16 -17 13 -18 16 -5 24 27
17 30 11 30 -70 0 -47 4 -80 10 -80 6 0 10 9 10 19 0 11 8 22 18 24 16 4 16 5
0 6 -11 1 -18 9 -18 21 0 23 1 23 120 20 78 -2 99 -9 100 -32 0 -5 -38 -8 -85
-8 -84 0 -85 0 -85 -25 0 -14 5 -25 10 -25 6 0 10 7 10 15 0 12 14 15 70 15
56 0 70 -3 70 -15 0 -8 5 -15 10 -15 6 0 10 25 10 55 l0 55 -120 0 c-113 0
-120 1 -120 20 0 14 7 20 24 20 13 0 27 -6 29 -12 3 -7 6 -3 6 10 1 21 -3 22
-64 22 l-65 0 0 -30z"/>
<path d="M518 240 c53 -6 77 -13 87 -27 13 -17 14 -16 15 10 l0 27 -87 -1 -88
-2 73 -7z"/>
<path d="M710 180 c0 -5 5 -10 10 -10 6 0 10 5 10 10 0 6 -4 10 -10 10 -5 0
-10 -4 -10 -10z"/>
<path d="M330 140 c0 -5 5 -10 10 -10 6 0 10 5 10 10 0 6 -4 10 -10 10 -5 0
-10 -4 -10 -10z"/>
<path d="M0 50 c0 -7 173 -10 500 -10 327 0 500 3 500 10 0 7 -173 10 -500 10
-327 0 -500 -3 -500 -10z"/>
</g>
</svg>
