<?xml version="1.0" standalone="no"?>
<!DOCTYPE svg PUBLIC "-//W3C//DTD SVG 20010904//EN"
 "http://www.w3.org/TR/2001/REC-SVG-20010904/DTD/svg10.dtd">
<svg version="1.0" xmlns="http://www.w3.org/2000/svg"
 width="256.000000pt" height="256.000000pt" viewBox="0 0 256.000000 256.000000"
 preserveAspectRatio="xMidYMid meet">
<metadata>
Created by potrace 1.16, written by Peter Selinger 2001-2019
</metadata>
<g transform="translate(0.000000,256.000000) scale(0.100000,-0.100000)"
fill="#000000" stroke="none">
<path d="M2099 2532 c-45 -29 -84 -73 -112 -127 -12 -24 -217 -656 -432 -1335
-18 -58 -68 -213 -110 -345 -43 -132 -84 -267 -92 -300 -26 -104 -1 -221 67
-320 37 -54 113 -105 154 -104 30 1 29 1 -12 16 -55 19 -131 94 -161 158 -13
28 -28 78 -34 112 -14 79 -4 124 97 438 43 132 93 287 111 345 214 674 420
1311 432 1334 25 49 106 122 154 139 41 14 42 15 13 16 -17 1 -49 -11 -75 -27z"/>
<path d="M2375 2536 c49 -23 120 -90 146 -137 7 -13 18 -42 25 -64 l13 -40 0
33 c2 89 -129 232 -211 232 -16 0 -8 -7 27 -24z"/>
<path d="M1440 2351 c-65 -21 -115 -61 -153 -121 -9 -14 -124 -365 -257 -780
-214 -667 -242 -763 -242 -821 0 -116 51 -203 148 -250 55 -27 71 -31 113 -26
86 10 157 59 195 134 9 18 124 371 256 784 270 845 264 822 211 934 -42 90
-112 142 -199 150 -26 3 -58 1 -72 -4z m111 -21 c51 -14 118 -76 145 -134 47
-102 50 -92 -216 -925 -132 -413 -246 -764 -254 -779 -22 -43 -90 -99 -133
-111 -59 -17 -95 -13 -150 14 -88 44 -135 126 -135 234 0 58 28 154 242 820
132 415 249 766 260 780 65 91 149 126 241 101z"/>
<path d="M810 2164 c-42 -18 -68 -41 -86 -76 -28 -55 -384 -1191 -384 -1226 0
-43 31 -116 63 -151 25 -27 98 -61 130 -61 41 0 123 46 145 82 19 31 52 129
269 808 112 352 123 390 123 437 0 143 -136 241 -260 187z m176 -45 c46 -43
64 -85 64 -147 0 -69 -356 -1187 -394 -1236 -32 -43 -101 -71 -151 -62 -83 16
-153 122 -142 214 3 26 65 232 137 457 164 512 198 618 216 676 16 54 45 94
88 121 24 15 44 18 89 15 49 -3 62 -8 93 -38z"/>
<path d="M2551 2130 c-3 -29 -614 -1936 -631 -1970 -26 -49 -97 -115 -150
-139 -33 -15 -39 -21 -22 -21 56 0 151 77 190 155 37 76 624 1933 619 1962 -2
15 -5 21 -6 13z"/>
<path d="M333 2001 c-54 -34 -39 6 -260 -691 -31 -96 -59 -177 -62 -180 -3 -3
-6 -36 -6 -74 -1 -37 1 -63 3 -57 2 6 14 -3 26 -21 24 -37 71 -57 117 -50 66
10 74 28 222 489 75 237 137 443 137 457 0 101 -102 174 -177 127z m125 -44
c47 -50 44 -71 -93 -497 -163 -511 -155 -491 -183 -501 -86 -33 -152 12 -152
102 0 37 35 160 130 457 71 224 138 418 148 432 10 13 32 32 48 41 33 19 62
10 102 -34z"/>
<path d="M532 1870 c0 -19 2 -27 5 -17 2 9 2 25 0 35 -3 9 -5 1 -5 -18z"/>
<path d="M166 1684 c-4 -14 -5 -28 -3 -31 3 -2 8 8 11 23 4 14 5 28 3 31 -3 2
-8 -8 -11 -23z"/>
<path d="M472 1670 c0 -14 2 -19 5 -12 2 6 2 18 0 25 -3 6 -5 1 -5 -13z"/>
<path d="M402 1461 c-7 -21 -12 -45 -11 -52 0 -8 7 8 15 35 9 26 13 50 11 52
-2 2 -9 -13 -15 -35z"/>
<path d="M91 1444 c0 -11 3 -14 6 -6 3 7 2 16 -1 19 -3 4 -6 -2 -5 -13z"/>
<path d="M16 1214 c-4 -14 -5 -28 -3 -31 3 -2 8 8 11 23 4 14 5 28 3 31 -3 2
-8 -8 -11 -23z"/>
<path d="M321 1204 c0 -11 3 -14 6 -6 3 7 2 16 -1 19 -3 4 -6 -2 -5 -13z"/>
<path d="M123 903 c9 -2 23 -2 30 0 6 3 -1 5 -18 5 -16 0 -22 -2 -12 -5z"/>
</g>
</svg>
