<?xml version="1.0" standalone="no"?>
<!DOCTYPE svg PUBLIC "-//W3C//DTD SVG 20010904//EN"
 "http://www.w3.org/TR/2001/REC-SVG-20010904/DTD/svg10.dtd">
<svg version="1.0" xmlns="http://www.w3.org/2000/svg"
 width="124.000000pt" height="124.000000pt" viewBox="0 0 124.000000 124.000000"
 preserveAspectRatio="xMidYMid meet">
<metadata>
Created by potrace 1.16, written by Peter Selinger 2001-2019
</metadata>
<g transform="translate(0.000000,124.000000) scale(0.100000,-0.100000)"
fill="#000000" stroke="none">
<path d="M973 1140 c-17 -10 -37 -28 -42 -39 -6 -11 -76 -198 -156 -416 -155
-423 -163 -458 -129 -531 25 -53 69 -74 153 -74 119 0 114 -8 286 464 125 344
145 408 145 458 0 68 -17 107 -59 137 -40 29 -152 30 -198 1z m178 -21 c38
-27 59 -68 59 -117 0 -25 -52 -182 -145 -438 -129 -354 -149 -403 -180 -431
-30 -28 -42 -33 -86 -33 -87 0 -149 58 -149 138 0 27 272 789 300 842 31 58
144 80 201 39z"/>
<path d="M664 1066 c-17 -8 -40 -25 -51 -39 -11 -14 -71 -165 -133 -336 -129
-355 -131 -369 -66 -428 30 -28 43 -33 86 -33 43 0 55 5 85 32 30 29 49 73
145 337 120 332 129 374 88 426 -22 28 -74 55 -105 55 -10 -1 -32 -7 -49 -14z
m90 -20 c43 -18 66 -51 66 -96 0 -21 -47 -165 -110 -341 -90 -246 -116 -309
-141 -332 -41 -37 -97 -37 -139 1 -56 50 -53 64 70 402 61 168 118 315 126
328 14 21 64 50 87 52 4 0 23 -6 41 -14z"/>
<path d="M353 978 c-11 -13 -48 -102 -83 -198 -35 -96 -65 -177 -68 -180 -19
-21 41 170 65 205 34 51 -7 135 -67 135 -32 0 -90 -51 -90 -80 0 -21 -32 -109
-54 -150 -7 -14 -16 -41 -20 -61 -4 -21 -13 -43 -22 -50 -16 -13 -12 -74 7
-111 10 -19 70 -41 91 -33 15 6 58 82 58 102 0 6 7 17 17 24 14 12 15 12 10
-1 -45 -115 -46 -174 0 -210 36 -28 104 -27 138 3 38 32 194 461 195 533 0 70
-26 94 -101 94 -45 0 -59 -4 -76 -22z m134 -20 c14 -13 23 -33 23 -53 0 -37
-160 -479 -183 -506 -39 -44 -108 -32 -136 25 -12 27 -8 44 74 270 48 132 96
251 108 264 27 29 82 30 114 0z m-247 -46 c12 -10 22 -29 22 -43 0 -33 -119
-359 -139 -381 -36 -40 -103 -10 -103 45 0 45 117 359 142 380 26 22 50 22 78
-1z"/>
</g>
</svg>
