<?xml version="1.0" standalone="no"?>
<!DOCTYPE svg PUBLIC "-//W3C//DTD SVG 20010904//EN"
 "http://www.w3.org/TR/2001/REC-SVG-20010904/DTD/svg10.dtd">
<svg version="1.0" xmlns="http://www.w3.org/2000/svg"
 width="256.000000pt" height="256.000000pt" viewBox="0 0 256.000000 256.000000"
 preserveAspectRatio="xMidYMid meet">
<metadata>
Created by potrace 1.16, written by Peter Selinger 2001-2019
</metadata>
<g transform="translate(0.000000,256.000000) scale(0.100000,-0.100000)"
fill="#000000" stroke="none">
<path d="M2160 2422 c0 -4 -17 -14 -37 -21 -79 -29 -145 -101 -176 -191 -8
-25 -22 -63 -30 -85 -9 -22 -39 -103 -67 -180 -28 -77 -62 -169 -75 -205 -13
-36 -40 -110 -60 -165 -20 -55 -42 -116 -49 -135 -8 -19 -26 -69 -41 -110 -14
-41 -37 -104 -50 -140 -13 -36 -40 -110 -60 -165 -20 -55 -42 -116 -50 -135
-7 -19 -26 -69 -41 -110 -15 -41 -39 -104 -53 -140 -22 -56 -26 -80 -26 -175
0 -95 3 -116 23 -153 29 -54 91 -115 140 -136 20 -10 45 -21 54 -26 10 -6 55
-10 100 -10 73 0 90 4 146 31 36 18 79 50 101 75 37 43 49 66 104 219 14 39
48 133 77 210 56 153 89 245 125 345 13 36 46 126 73 200 28 74 55 149 60 165
6 17 22 59 35 95 24 64 107 292 154 423 13 38 23 83 21 100 -3 27 -7 20 -30
-48 -34 -99 -123 -348 -142 -395 -8 -19 -25 -66 -39 -105 -32 -86 -120 -327
-152 -415 -36 -100 -69 -192 -125 -345 -29 -77 -63 -171 -77 -210 -14 -38 -34
-94 -45 -122 -44 -117 -166 -203 -286 -203 -34 0 -70 4 -80 10 -9 5 -34 16
-54 26 -49 21 -111 82 -140 136 -33 64 -32 198 3 288 15 36 38 99 53 140 15
41 34 91 41 110 8 19 30 80 50 135 20 55 47 129 60 165 13 36 36 99 50 140 15
41 33 91 41 110 7 19 29 80 49 135 20 55 47 129 60 165 13 36 47 128 75 205
28 77 58 158 67 180 8 22 22 60 30 85 31 90 97 162 176 191 20 7 37 17 37 21
0 4 36 8 80 8 44 0 80 -3 80 -7 0 -5 20 -16 43 -26 58 -24 124 -89 153 -151
l24 -51 0 36 c0 64 -85 161 -166 191 -19 6 -34 16 -34 20 0 4 -45 8 -100 8
-55 0 -100 -4 -100 -8z"/>
<path d="M1370 2206 c-25 -13 -56 -37 -70 -52 -21 -25 -102 -221 -145 -349 -7
-22 -27 -78 -45 -125 -17 -47 -36 -98 -42 -115 -9 -27 -60 -167 -133 -365 -13
-36 -35 -96 -49 -135 -14 -38 -42 -115 -63 -170 -61 -164 -51 -277 34 -357 76
-72 205 -90 302 -42 59 30 99 77 125 151 9 26 28 77 41 113 27 74 78 215 136
375 22 61 51 139 64 175 22 59 85 232 151 415 14 39 37 98 50 133 56 146 10
292 -110 348 -71 33 -182 33 -246 0z m226 -20 c79 -37 133 -121 134 -208 0
-21 -11 -66 -24 -100 -13 -35 -36 -94 -50 -133 -66 -183 -129 -356 -151 -415
-13 -36 -42 -114 -64 -175 -58 -160 -109 -301 -136 -375 -13 -36 -32 -87 -41
-113 -26 -74 -66 -121 -125 -151 -115 -57 -249 -10 -312 109 -32 62 -28 131
17 250 20 55 48 132 62 170 14 39 36 99 49 135 73 198 124 338 133 365 6 17
25 68 42 115 18 47 38 103 45 125 43 128 124 324 145 349 65 75 180 97 276 52z"/>
<path d="M795 2065 c-69 -37 -80 -58 -175 -320 -28 -77 -62 -170 -75 -207 -14
-38 -36 -98 -50 -135 -13 -38 -46 -129 -74 -203 -78 -215 -84 -237 -78 -297 8
-74 39 -120 101 -149 81 -38 168 -28 229 26 36 32 39 38 172 405 20 55 42 116
49 135 8 19 26 69 41 110 14 41 37 104 50 140 90 243 95 260 95 317 0 70 -21
115 -73 157 -34 27 -48 31 -110 34 -52 2 -80 -2 -102 -13z m193 -42 c20 -16
45 -45 54 -64 33 -63 29 -82 -77 -369 -13 -36 -36 -99 -50 -140 -15 -41 -33
-91 -41 -110 -7 -19 -29 -80 -49 -135 -132 -366 -136 -374 -172 -405 -30 -27
-87 -50 -123 -50 -35 0 -118 49 -138 81 -46 76 -43 96 49 349 28 74 61 165 74
203 14 37 36 97 50 135 13 37 47 130 75 207 95 262 106 283 175 320 47 25 126
15 173 -22z"/>
<path d="M314 1946 c-45 -20 -65 -55 -119 -206 -26 -74 -61 -171 -77 -215
-103 -280 -119 -329 -116 -360 2 -24 10 -12 37 65 51 142 67 187 99 275 16 44
51 141 77 215 56 157 80 195 134 211 71 21 134 -7 170 -78 19 -37 13 -62 -50
-233 -33 -91 -66 -183 -74 -205 -7 -22 -22 -65 -34 -95 -11 -30 -38 -103 -59
-162 -64 -173 -84 -193 -196 -189 -19 1 -41 14 -67 40 -36 36 -39 37 -39 16 0
-54 100 -95 183 -76 65 15 90 47 132 170 13 36 38 104 55 151 18 47 38 103 46
125 7 22 40 114 73 205 78 212 79 262 7 330 -21 19 -39 25 -89 27 -38 2 -74
-2 -93 -11z"/>
</g>
</svg>
