<?xml version="1.0" standalone="no"?>
<!DOCTYPE svg PUBLIC "-//W3C//DTD SVG 20010904//EN"
 "http://www.w3.org/TR/2001/REC-SVG-20010904/DTD/svg10.dtd">
<svg version="1.0" xmlns="http://www.w3.org/2000/svg"
 width="256.000000pt" height="256.000000pt" viewBox="0 0 256.000000 256.000000"
 preserveAspectRatio="xMidYMid meet">
<metadata>
Created by potrace 1.16, written by Peter Selinger 2001-2019
</metadata>
<g transform="translate(0.000000,256.000000) scale(0.100000,-0.100000)"
fill="#000000" stroke="none">
<path d="M2102 2535 c-97 -42 -146 -112 -197 -281 -20 -66 -41 -137 -46 -159
-11 -43 -57 -202 -88 -300 -11 -33 -26 -85 -35 -115 -8 -30 -37 -129 -64 -220
-27 -91 -66 -223 -87 -295 -36 -124 -144 -488 -185 -624 -44 -143 -35 -286 25
-385 63 -105 128 -146 231 -146 83 0 133 14 178 52 78 64 97 111 214 518 43
150 122 416 137 460 8 25 35 115 59 200 25 85 56 194 70 243 14 48 37 125 51
172 14 47 37 124 51 173 14 48 38 130 55 182 43 139 39 285 -12 382 -28 54
-85 112 -133 134 -60 28 -170 32 -224 9z m204 -29 c48 -22 105 -80 133 -134
49 -95 53 -209 12 -342 -17 -52 -41 -134 -55 -182 -14 -49 -37 -126 -51 -173
-14 -47 -37 -124 -51 -172 -14 -49 -45 -158 -70 -243 -24 -85 -51 -175 -59
-200 -15 -44 -94 -310 -137 -460 -117 -407 -136 -454 -214 -518 -89 -73 -221
-68 -308 12 -75 71 -124 207 -111 313 7 52 11 68 108 393 35 118 81 274 102
345 47 162 130 443 151 510 9 28 18 59 20 70 2 11 11 40 19 65 21 63 72 237
84 285 30 124 86 284 115 330 74 115 196 155 312 101z"/>
<path d="M1450 2328 c-43 -12 -100 -54 -100 -74 0 -7 -4 -14 -10 -14 -5 0 -10
-7 -10 -15 0 -8 -4 -15 -10 -15 -5 0 -10 -8 -10 -19 0 -10 -7 -32 -15 -47 -8
-16 -15 -39 -15 -51 0 -12 -8 -46 -19 -75 -24 -70 -75 -234 -101 -328 -11 -41
-26 -95 -34 -120 -7 -25 -23 -76 -34 -115 -11 -38 -32 -110 -47 -160 -15 -49
-32 -108 -37 -130 -5 -22 -14 -49 -18 -60 -5 -11 -12 -35 -15 -53 -4 -18 -13
-45 -21 -60 -8 -15 -14 -38 -14 -50 0 -13 -7 -38 -15 -55 -22 -48 -55 -186
-55 -229 0 -66 21 -130 63 -190 31 -46 48 -60 85 -72 51 -18 144 -21 171 -7
29 16 95 87 113 122 18 36 88 262 88 285 0 8 4 22 10 32 5 9 16 44 25 77 9 33
20 74 25 90 5 17 25 84 45 150 20 66 49 163 65 215 17 53 30 102 30 111 0 8
15 62 34 120 53 162 93 298 112 373 26 108 7 222 -46 278 -12 13 -29 33 -37
45 -16 25 -92 53 -137 52 -17 0 -47 -5 -66 -11z m134 -28 c64 -21 127 -114
141 -210 8 -53 0 -89 -89 -385 -35 -115 -80 -268 -101 -340 -21 -71 -60 -204
-87 -295 -27 -91 -57 -194 -68 -230 -97 -332 -100 -338 -152 -386 -45 -43 -70
-54 -120 -54 -110 1 -193 87 -213 221 -8 54 13 146 80 354 7 22 22 72 34 110
11 39 33 115 49 170 17 55 49 165 72 245 51 175 163 554 187 630 47 150 142
211 267 170z"/>
<path d="M886 2147 c-28 -17 -56 -46 -56 -56 0 -5 -4 -11 -10 -13 -9 -3 -47
-123 -105 -336 -16 -57 -32 -105 -37 -108 -4 -3 -8 -15 -8 -27 0 -12 -6 -39
-14 -62 -8 -22 -21 -65 -30 -95 -9 -30 -27 -91 -41 -135 -14 -44 -25 -89 -25
-100 0 -11 -7 -33 -15 -49 -8 -15 -15 -36 -15 -46 0 -10 -7 -37 -16 -61 -25
-69 -44 -147 -44 -179 0 -46 40 -142 73 -175 29 -28 35 -30 110 -30 55 0 82 4
85 13 2 6 10 12 18 12 8 0 14 5 14 11 0 6 11 25 24 42 14 18 30 55 37 82 11
46 73 253 104 351 16 49 120 403 146 494 9 36 25 90 35 120 9 30 19 92 21 137
5 91 -9 130 -67 191 -29 30 -35 32 -98 31 -37 0 -76 -6 -86 -12z m164 -33 c77
-65 88 -156 41 -313 -16 -53 -48 -161 -71 -241 -23 -80 -77 -262 -120 -405
-42 -143 -83 -281 -90 -308 -29 -108 -93 -164 -179 -154 -59 7 -103 53 -126
132 -18 60 -16 74 21 200 41 135 52 173 109 370 31 105 68 233 84 285 16 52
46 154 67 225 20 72 46 145 57 164 44 73 146 96 207 45z"/>
<path d="M460 2022 c0 -5 -11 -15 -25 -22 -14 -7 -25 -19 -25 -27 0 -7 -4 -13
-10 -13 -5 0 -10 -9 -10 -20 0 -11 -4 -28 -9 -38 -10 -18 -45 -137 -55 -187
-8 -36 -72 -245 -92 -298 -8 -20 -14 -48 -14 -60 0 -13 -4 -27 -9 -33 -5 -5
-21 -51 -36 -103 -22 -75 -26 -108 -23 -169 2 -48 8 -77 16 -80 7 -2 12 -10
12 -17 0 -8 20 -24 44 -36 62 -30 116 -23 153 22 45 53 48 58 87 194 20 72 49
168 63 214 14 46 33 113 43 150 10 36 30 107 45 156 50 164 56 189 50 230 -7
48 -61 132 -90 139 -31 9 -115 7 -115 -2z m121 -30 c19 -16 23 -30 26 -93 3
-63 -2 -93 -36 -206 -21 -73 -37 -133 -34 -133 3 0 12 8 20 18 14 16 14 16 8
-3 -3 -11 -9 -32 -12 -47 -3 -16 -10 -28 -15 -28 -5 0 -6 10 -3 23 5 15 4 19
-3 12 -6 -5 -38 -104 -72 -220 -107 -364 -103 -355 -172 -355 -89 0 -109 84
-60 243 16 53 26 100 21 103 -9 5 -29 -36 -29 -58 0 -6 -3 -9 -6 -5 -4 3 1 28
10 54 25 75 123 404 131 441 11 52 15 32 6 -27 -4 -29 -5 -49 0 -44 7 7 58
177 63 209 1 7 5 17 9 20 4 4 7 14 7 21 0 8 11 25 25 38 28 29 70 32 103 9 20
-13 22 -13 22 0 0 21 -31 36 -74 36 -46 0 -87 -41 -105 -106 -20 -73 -34 -114
-39 -110 -2 2 7 39 20 82 29 99 69 144 127 144 23 0 48 -8 62 -18z m58 -96
c-1 -20 -1 -21 -6 -1 -3 11 -9 24 -14 30 -5 5 -9 14 -9 20 0 5 7 1 15 -9 8
-11 14 -29 14 -40z m4 -58 c-9 -49 -25 -82 -17 -38 7 45 14 70 19 70 3 0 2
-15 -2 -32z m-46 -162 c-13 -42 -26 -74 -29 -70 -4 3 3 34 14 67 12 34 23 68
25 76 2 8 6 12 8 9 3 -2 -5 -39 -18 -82z m-63 -220 c-3 -15 -8 -25 -11 -23 -2
3 -1 17 3 31 3 15 8 25 11 23 2 -3 1 -17 -3 -31z m-29 -87 l-14 -44 6 40 c6
42 12 59 19 52 2 -2 -3 -23 -11 -48z m-23 -84 c-5 -16 -11 -25 -14 -20 -6 11
10 61 17 53 2 -2 1 -17 -3 -33z m-23 -84 c-7 -23 -14 -39 -16 -37 -3 2 1 23 8
45 7 23 14 39 16 37 3 -2 -1 -23 -8 -45z m-260 -20 c-7 -23 -14 -39 -16 -37
-3 2 1 23 8 45 7 23 14 39 16 37 3 -2 -1 -23 -8 -45z m220 -111 c-34 -114 -95
-166 -163 -141 -29 11 -76 57 -76 74 0 6 15 -7 34 -29 30 -34 38 -39 77 -38
58 2 90 38 119 138 13 42 25 74 27 72 2 -2 -6 -36 -18 -76z m-242 -22 c-2 -18
-4 -6 -4 27 0 33 2 48 4 33 2 -15 2 -42 0 -60z"/>
<path d="M340 1629 c0 -5 5 -7 10 -4 6 3 10 8 10 11 0 2 -4 4 -10 4 -5 0 -10
-5 -10 -11z"/>
<path d="M328 1585 c-3 -13 -2 -22 2 -20 11 7 20 45 10 45 -4 0 -10 -11 -12
-25z"/>
<path d="M310 1529 c0 -5 5 -7 10 -4 6 3 10 8 10 11 0 2 -4 4 -10 4 -5 0 -10
-5 -10 -11z"/>
<path d="M293 1483 c-37 -103 -50 -169 -32 -157 7 4 20 51 24 84 0 3 3 10 7
15 3 6 10 27 16 48 12 43 -1 51 -15 10z"/>
</g>
</svg>
