<?xml version="1.0" standalone="no"?>
<!DOCTYPE svg PUBLIC "-//W3C//DTD SVG 20010904//EN"
 "http://www.w3.org/TR/2001/REC-SVG-20010904/DTD/svg10.dtd">
<svg version="1.0" xmlns="http://www.w3.org/2000/svg"
 width="180.000000pt" height="180.000000pt" viewBox="0 0 180.000000 180.000000"
 preserveAspectRatio="xMidYMid meet">
<metadata>
Created by potrace 1.16, written by Peter Selinger 2001-2019
</metadata>
<g transform="translate(0.000000,180.000000) scale(0.100000,-0.100000)"
fill="#000000" stroke="none">
<path d="M690 1311 c0 -6 -10 -10 -22 -8 -13 2 -17 2 -10 0 18 -6 15 -23 -4
-23 -10 0 -14 -6 -10 -15 4 -10 -1 -15 -14 -15 -11 0 -20 -4 -20 -10 0 -5 -13
-10 -29 -10 -16 0 -31 -4 -33 -9 -5 -14 -58 -25 -58 -12 0 6 11 11 25 11 14 0
25 4 25 9 0 5 -12 6 -27 2 -24 -7 -28 -13 -26 -41 1 -21 -2 -29 -9 -22 -11 11
-68 -6 -68 -20 0 -11 18 -10 25 2 3 6 13 10 22 10 12 0 13 -3 4 -14 -7 -9 -24
-13 -42 -11 -35 5 -38 -7 -6 -24 l22 -11 -22 6 c-13 3 -23 1 -23 -5 0 -6 -9
-11 -20 -11 -11 0 -20 -5 -20 -11 0 -5 -4 -8 -9 -5 -24 15 -50 -69 -26 -86 5
-5 -9 -6 -32 -3 -25 3 -45 1 -49 -6 -4 -7 0 -9 14 -5 17 6 20 1 24 -28 2 -19
1 -34 -2 -34 -21 2 -30 -5 -29 -24 0 -13 3 -17 6 -10 2 6 9 12 15 12 6 0 5 -8
-4 -17 -8 -10 -20 -43 -26 -73 -6 -30 -14 -68 -17 -85 -4 -16 -6 -48 -6 -70 0
-45 -6 -35 -32 50 l-15 50 3 -45 c2 -25 3 -55 4 -68 1 -13 5 -21 10 -18 8 5
31 -35 31 -54 0 -4 -12 -13 -27 -18 -25 -9 -25 -11 -6 -11 12 -1 25 -5 28 -11
4 -6 127 -10 336 -10 182 0 328 4 325 8 -7 12 65 14 79 2 7 -6 143 -10 325
-11 291 -1 314 0 327 16 7 10 9 23 4 29 -4 6 -7 46 -5 89 2 49 -1 77 -8 77 -7
0 -9 14 -6 38 4 24 1 42 -8 50 -8 7 -14 18 -13 25 0 9 2 9 6 0 2 -7 12 -13 21
-13 12 0 13 3 5 8 -8 5 -9 13 -3 22 16 25 11 34 -9 16 -24 -22 -41 -13 -41 20
0 27 27 33 49 12 10 -11 11 -9 5 5 -5 14 -15 18 -38 15 -27 -3 -31 0 -33 20 0
13 -8 31 -17 41 -9 10 -14 21 -11 24 3 4 2 5 -2 2 -11 -8 -53 37 -53 57 0 10
-7 18 -17 18 -9 0 -14 3 -10 6 11 12 -44 50 -65 46 -5 -1 -8 7 -8 19 0 11 -4
18 -8 15 -5 -3 -21 3 -36 13 -20 13 -24 20 -14 25 7 3 0 4 -15 2 -15 -2 -25
-1 -23 2 3 3 -2 11 -12 18 -16 12 -15 13 6 14 13 0 20 -4 17 -10 -3 -5 -2 -10
4 -10 17 0 21 18 5 24 -26 10 -52 7 -58 -6 -5 -10 -7 -10 -12 0 -3 6 -16 12
-29 12 -13 0 -27 5 -30 10 -4 6 -11 7 -17 4 -7 -5 -8 -2 -3 6 6 10 2 11 -19 6
-20 -5 -26 -4 -20 5 5 9 2 10 -10 6 -22 -9 -106 3 -106 15 0 6 11 7 28 3 45
-13 130 -15 109 -3 -10 5 -32 7 -50 3 -22 -4 -28 -3 -18 3 9 7 -1 9 -33 8 -27
-1 -50 -7 -55 -15 -7 -11 -15 -11 -41 -2 -25 8 -36 8 -47 0 -7 -7 -28 -9 -47
-6 -19 3 -36 1 -38 -4 -2 -7 -13 -7 -30 0 -20 8 -26 7 -23 -2 6 -14 -42 -39
-51 -26 -3 5 -1 9 5 9 13 0 35 39 27 48 -3 3 -6 0 -6 -7z m419 -77 c274 -91
461 -352 461 -644 l0 -60 -39 0 -38 0 5 48 c2 26 -3 85 -11 130 -52 271 -277
472 -547 489 -341 21 -631 -245 -634 -579 l-1 -88 -37 0 -38 0 0 64 c0 322
239 609 553 666 92 16 232 5 326 -26z m-143 -69 c32 -4 64 -12 70 -17 7 -5 16
-8 20 -7 27 5 44 -3 44 -20 0 -22 29 -36 44 -21 15 15 30 12 17 -4 -9 -11 -9
-16 0 -22 8 -4 9 -3 5 4 -4 7 -1 12 9 12 9 0 14 -4 10 -9 -3 -5 0 -13 6 -17 6
-3 15 0 20 7 6 10 9 6 9 -15 0 -18 4 -27 13 -23 6 2 21 1 32 -4 17 -6 17 -8 3
-8 -20 -1 -22 -9 -9 -30 5 -7 14 -10 21 -6 9 6 9 9 0 15 -8 5 -7 9 5 13 9 4
13 3 10 -3 -3 -6 0 -10 7 -10 9 0 10 -2 1 -8 -6 -4 -14 -21 -17 -37 l-6 -30
14 30 c15 29 15 29 16 6 0 -24 0 -24 16 -5 13 16 15 17 10 1 -7 -22 11 -70 23
-63 5 4 18 -5 29 -19 11 -13 21 -23 23 -22 3 1 1 -2 -3 -7 -4 -5 0 -15 8 -23
8 -8 14 -26 14 -40 l0 -26 -73 6 c-68 6 -73 5 -74 -13 -1 -11 3 -20 8 -20 6 0
8 4 4 9 -3 5 -1 12 4 15 17 11 21 -11 5 -25 -14 -11 -18 -11 -28 2 -6 9 -16
14 -23 12 -6 -2 -15 1 -19 8 -4 8 -3 9 4 5 7 -4 12 -2 12 5 0 8 -12 10 -37 5
-21 -3 -59 -6 -86 -6 -26 0 -46 -3 -45 -7 3 -16 -15 -103 -21 -103 -16 0 -20
14 -10 27 6 7 9 13 6 13 -3 0 -2 14 3 31 7 25 6 30 -5 25 -8 -3 -21 2 -30 10
-8 8 -23 15 -32 14 -10 0 -51 -2 -90 -4 -40 -2 -79 -8 -86 -14 -8 -7 -17 -9
-20 -5 -4 3 -7 -5 -7 -20 0 -19 -8 -30 -32 -41 -39 -20 -37 -20 -31 4 3 12 0
20 -7 20 -9 0 -9 4 -2 13 7 8 7 18 2 27 -6 8 -10 11 -10 7 0 -5 -6 -5 -12 -1
-21 13 -158 17 -158 5 0 -6 7 -11 16 -11 8 0 12 -5 9 -10 -4 -6 -11 -8 -16 -4
-6 3 -17 -2 -25 -12 -14 -18 -15 -18 -9 3 5 18 3 22 -9 17 -9 -3 -16 -1 -16 5
0 6 10 12 23 12 12 1 2 5 -23 9 -25 4 -57 4 -71 0 -26 -8 -27 -7 -25 30 1 22
-2 37 -6 34 -4 -3 -8 0 -8 5 0 6 4 11 8 11 4 0 13 14 19 30 7 20 18 30 32 30
12 0 18 5 15 13 -2 7 1 21 9 30 12 17 13 17 14 -3 1 -12 -2 -18 -9 -14 -7 4
-8 2 -4 -5 11 -16 26 -4 26 22 0 33 14 49 35 41 13 -5 16 -4 11 4 -9 15 3 54
14 47 5 -3 7 -12 3 -20 -3 -8 0 -15 7 -15 7 0 10 8 7 20 -3 10 0 23 7 28 15
13 106 31 121 25 7 -2 16 0 20 6 3 7 0 8 -10 5 -11 -5 -14 -2 -9 10 4 10 1 16
-7 17 -8 0 17 11 55 25 38 13 79 22 91 20 12 -2 28 0 36 5 8 5 19 7 25 5 6 -2
37 -7 70 -11z m169 -44 c3 -5 1 -12 -5 -16 -5 -3 -10 1 -10 9 0 18 6 21 15 7z
m-465 -21 c-8 -5 -26 -9 -40 -9 l-25 1 25 8 c14 4 32 8 40 9 13 1 13 0 0 -9z
m-290 -36 c0 -8 -4 -12 -10 -9 -5 3 -10 10 -10 16 0 5 5 9 10 9 6 0 10 -7 10
-16z m-30 -15 c0 -6 -7 -17 -15 -25 -13 -14 -15 -13 -15 9 0 13 3 27 6 30 9 8
24 -1 24 -14z m-59 -112 c-8 -8 -11 -7 -11 4 0 20 13 34 18 19 3 -7 -1 -17 -7
-23z m90 -164 c-9 -16 -10 -14 -11 12 0 21 3 26 11 18 8 -8 8 -16 0 -30z m629
-23 c0 -6 6 -10 14 -10 8 0 18 -5 21 -10 4 -6 -5 -10 -23 -8 -22 1 -28 6 -24
17 4 10 1 13 -11 8 -9 -3 -18 -3 -21 1 -2 4 6 9 20 10 13 1 24 -3 24 -8z
m-515 -57 l32 -35 31 39 c29 35 36 38 80 37 26 0 48 -3 50 -7 1 -4 2 -50 2
-102 l0 -95 -53 0 -52 0 4 46 3 46 -34 -37 -34 -37 -33 38 -33 37 3 -46 4 -47
-55 0 -55 0 2 102 c1 57 2 103 3 104 0 1 23 -1 52 -4 43 -4 57 -11 83 -39z
m529 -60 l65 -103 -59 0 c-33 0 -60 4 -60 10 0 6 -30 10 -70 10 -40 0 -70 -4
-70 -10 0 -6 -27 -10 -60 -10 l-60 0 68 103 67 102 56 0 57 0 66 -102z m224
74 c20 -15 50 -36 65 -48 l29 -22 -3 48 -3 47 52 2 52 1 0 -102 0 -103 -54 0
c-51 0 -59 3 -115 50 l-61 51 0 -51 0 -50 -52 0 -53 0 2 102 c1 57 2 103 3
103 79 0 104 -5 138 -28z m-205 -11 c4 -10 1 -13 -9 -9 -15 6 -19 23 -5 23 5
0 11 -7 14 -14z m-283 -35 c-10 -21 -30 -37 -30 -26 0 14 21 45 31 45 6 0 6
-7 -1 -19z m495 -111 c-3 -5 -12 -10 -18 -10 -7 0 -6 4 3 10 19 12 23 12 15 0z
m-745 -14 c0 -3 -4 -8 -10 -11 -5 -3 -10 -1 -10 4 0 6 5 11 10 11 6 0 10 -2
10 -4z m54 -8 c-3 -4 -9 -8 -15 -8 -5 0 -9 4 -9 8 0 5 7 9 15 9 8 0 12 -4 9
-9z m716 2 c0 -5 -2 -10 -4 -10 -3 0 -8 5 -11 10 -3 6 -1 10 4 10 6 0 11 -4
11 -10z"/>
<path d="M797 1229 c7 -7 15 -10 18 -7 3 3 -2 9 -12 12 -14 6 -15 5 -6 -5z"/>
<path d="M990 1226 c0 -2 13 -6 29 -8 17 -2 28 -1 25 4 -5 8 -54 12 -54 4z"/>
<path d="M710 1209 c0 -5 5 -7 10 -4 6 3 10 8 10 11 0 2 -4 4 -10 4 -5 0 -10
-5 -10 -11z"/>
<path d="M1265 1121 c-3 -5 -2 -12 3 -15 5 -3 9 1 9 9 0 17 -3 19 -12 6z"/>
<path d="M482 1085 c-7 -8 -9 -15 -4 -15 5 0 15 7 22 15 16 19 -1 19 -18 0z"/>
<path d="M1333 1055 c0 -8 4 -12 9 -9 5 3 6 10 3 15 -9 13 -12 11 -12 -6z"/>
<path d="M373 959 c-12 -21 -17 -37 -12 -33 11 6 42 64 37 69 -2 2 -13 -14
-25 -36z"/>
<path d="M1436 927 c3 -10 9 -15 12 -12 3 3 0 11 -7 18 -10 9 -11 8 -5 -6z"/>
<path d="M1470 860 c0 -5 5 -10 11 -10 5 0 7 5 4 10 -3 6 -8 10 -11 10 -2 0
-4 -4 -4 -10z"/>
<path d="M1480 836 c0 -2 8 -10 18 -17 15 -13 16 -12 3 4 -13 16 -21 21 -21
13z"/>
<path d="M262 660 c0 -14 2 -19 5 -12 2 6 2 18 0 25 -3 6 -5 1 -5 -13z"/>
<path d="M1532 655 c0 -16 2 -22 5 -12 2 9 2 23 0 30 -3 6 -5 -1 -5 -18z"/>
<path d="M1520 615 c0 -5 5 -17 10 -25 5 -8 10 -10 10 -5 0 6 -5 17 -10 25 -5
8 -10 11 -10 5z"/>
<path d="M715 1120 c3 -5 8 -10 11 -10 2 0 4 5 4 10 0 6 -5 10 -11 10 -5 0 -7
-4 -4 -10z"/>
<path d="M1357 873 c-2 -4 4 -16 14 -26 15 -16 17 -16 15 -3 -3 21 -22 40 -29
29z"/>
<path d="M424 696 c-10 -8 -17 -16 -14 -19 3 -2 14 4 24 14 23 22 18 25 -10 5z"/>
<path d="M601 688 c-7 -11 -8 -17 -2 -14 5 3 12 -2 14 -11 4 -17 5 -17 6 0 0
10 5 16 10 13 5 -3 14 1 21 9 9 10 9 15 1 15 -6 0 -11 -6 -11 -12 -1 -8 -5 -7
-13 4 -12 15 -14 15 -26 -4z"/>
<path d="M461 670 c0 -8 4 -22 9 -30 12 -18 12 -2 0 25 -6 13 -9 15 -9 5z"/>
<path d="M426 653 c-6 -14 -5 -15 5 -6 7 7 10 15 7 18 -3 3 -9 -2 -12 -12z"/>
<path d="M565 660 c3 -5 8 -10 11 -10 2 0 4 5 4 10 0 6 -5 10 -11 10 -5 0 -7
-4 -4 -10z"/>
<path d="M585 640 c-3 -5 1 -10 10 -10 9 0 13 5 10 10 -3 6 -8 10 -10 10 -2 0
-7 -4 -10 -10z"/>
<path d="M407 623 c-12 -12 -7 -22 8 -17 8 4 15 10 15 15 0 11 -14 12 -23 2z"/>
<path d="M525 620 c3 -5 11 -10 16 -10 6 0 7 5 4 10 -3 6 -11 10 -16 10 -6 0
-7 -4 -4 -10z"/>
<path d="M633 602 c0 -12 5 -22 9 -22 11 0 10 12 -2 30 -7 12 -9 10 -7 -8z"/>
<path d="M386 575 c-3 -8 -1 -15 3 -15 5 0 11 7 15 15 3 8 1 15 -3 15 -5 0
-11 -7 -15 -15z"/>
<path d="M860 689 c0 -5 5 -7 10 -4 6 3 10 8 10 11 0 2 -4 4 -10 4 -5 0 -10
-5 -10 -11z"/>
<path d="M920 671 c0 -6 4 -13 10 -16 6 -3 7 1 4 9 -7 18 -14 21 -14 7z"/>
<path d="M827 639 c7 -7 15 -10 18 -7 3 3 -2 9 -12 12 -14 6 -15 5 -6 -5z"/>
<path d="M882 630 c-16 -27 -16 -27 17 -22 26 4 29 6 18 23 -15 24 -19 24 -35
-1z"/>
<path d="M950 640 c-9 -6 -10 -10 -3 -10 6 0 15 5 18 10 8 12 4 12 -15 0z"/>
<path d="M817 606 c-6 -14 0 -26 13 -26 3 0 6 9 6 20 0 23 -11 27 -19 6z"/>
<path d="M973 613 c4 -3 2 -12 -4 -20 -9 -9 -8 -13 0 -13 6 0 11 2 11 4 0 2 3
11 6 20 4 10 1 16 -7 16 -7 0 -9 -3 -6 -7z"/>
<path d="M791 571 c-9 -6 -10 -11 -2 -15 6 -4 11 -2 11 4 0 6 5 8 12 4 7 -4 8
-3 4 4 -8 14 -7 14 -25 3z"/>
<path d="M996 572 c-3 -5 1 -9 9 -9 8 0 15 4 15 9 0 4 -4 8 -9 8 -6 0 -12 -4
-15 -8z"/>
<path d="M1148 693 c6 -2 18 -2 25 0 6 3 1 5 -13 5 -14 0 -19 -2 -12 -5z"/>
<path d="M1383 693 c9 -2 23 -2 30 0 6 3 -1 5 -18 5 -16 0 -22 -2 -12 -5z"/>
<path d="M1206 668 c3 -4 11 -5 19 -1 21 7 19 12 -4 10 -11 0 -18 -5 -15 -9z"/>
<path d="M1280 636 c0 -2 8 -10 18 -17 15 -13 16 -12 3 4 -13 16 -21 21 -21
13z"/>
<path d="M1322 601 c-11 -6 -10 -10 4 -15 9 -3 19 -4 22 -1 3 3 -1 5 -9 6 -8
0 -6 4 6 9 13 6 15 9 5 9 -8 0 -21 -3 -28 -8z"/>
<path d="M1148 593 c6 -2 18 -2 25 0 6 3 1 5 -13 5 -14 0 -19 -2 -12 -5z"/>
<path d="M1388 583 c7 -3 16 -2 19 1 4 3 -2 6 -13 5 -11 0 -14 -3 -6 -6z"/>
<path d="M735 1310 c-3 -5 1 -10 10 -10 9 0 13 5 10 10 -3 6 -8 10 -10 10 -2
0 -7 -4 -10 -10z"/>
<path d="M795 1307 c11 -6 25 -5 39 1 18 9 16 10 -17 10 -30 -1 -35 -3 -22
-11z"/>
<path d="M908 1313 c7 -3 16 -2 19 1 4 3 -2 6 -13 5 -11 0 -14 -3 -6 -6z"/>
<path d="M1358 1153 c7 -3 16 -2 19 1 4 3 -2 6 -13 5 -11 0 -14 -3 -6 -6z"/>
<path d="M246 935 c4 -8 8 -15 10 -15 2 0 4 7 4 15 0 8 -4 15 -10 15 -5 0 -7
-7 -4 -15z"/>
<path d="M1550 875 c0 -8 5 -15 10 -15 6 0 10 7 10 15 0 8 -4 15 -10 15 -5 0
-10 -7 -10 -15z"/>
<path d="M1597 776 c-5 -15 -6 -31 -3 -34 8 -8 18 25 14 45 -3 13 -6 10 -11
-11z"/>
<path d="M178 748 c7 -7 13 -26 13 -42 l1 -31 7 30 c6 28 -6 55 -25 55 -5 0
-3 -5 4 -12z"/>
<path d="M177 586 c-4 -10 -5 -21 -2 -24 9 -9 17 6 13 25 -3 17 -4 17 -11 -1z"/>
</g>
</svg>
