<?xml version="1.0" standalone="no"?>
<!DOCTYPE svg PUBLIC "-//W3C//DTD SVG 20010904//EN"
 "http://www.w3.org/TR/2001/REC-SVG-20010904/DTD/svg10.dtd">
<svg version="1.0" xmlns="http://www.w3.org/2000/svg"
 width="192.000000pt" height="192.000000pt" viewBox="0 0 192.000000 192.000000"
 preserveAspectRatio="xMidYMid meet">
<metadata>
Created by potrace 1.16, written by Peter Selinger 2001-2019
</metadata>
<g transform="translate(0.000000,192.000000) scale(0.100000,-0.100000)"
fill="#000000" stroke="none">
<path d="M838 1890 c-399 -63 -694 -331 -790 -717 -32 -129 -30 -313 5 -445
110 -418 472 -700 902 -702 341 -2 642 170 815 463 120 205 157 474 97 704
-106 403 -455 684 -872 702 -55 2 -126 0 -157 -5z m354 -44 c253 -64 472 -243
593 -484 129 -258 118 -607 -28 -857 -171 -292 -466 -461 -802 -459 -256 1
-460 87 -641 268 -90 91 -127 141 -179 246 -112 222 -120 523 -19 762 83 198
283 399 479 481 188 79 396 94 597 43z"/>
<path d="M791 1770 c-298 -63 -531 -275 -623 -570 -20 -66 -23 -95 -23 -240 0
-145 3 -174 23 -240 85 -271 281 -467 552 -552 66 -20 95 -23 240 -23 188 0
252 14 390 86 192 100 334 272 402 489 20 66 23 95 23 240 0 145 -3 174 -23
240 -68 217 -210 390 -402 489 -131 68 -195 83 -365 87 -82 2 -170 -1 -194 -6z
m316 -25 c107 -21 219 -67 308 -128 48 -33 165 -148 195 -192 195 -285 198
-641 7 -920 -33 -48 -148 -165 -192 -195 -336 -230 -762 -190 -1036 96 -103
109 -154 196 -201 346 -33 106 -33 310 1 418 70 229 222 411 422 508 155 74
332 98 496 67z"/>
<path d="M831 1429 c-78 -14 -134 -42 -167 -83 -16 -20 -38 -36 -49 -36 -71
-1 -173 -96 -230 -215 -60 -127 -65 -226 -13 -282 44 -48 71 -53 303 -53 l215
0 0 -140 0 -140 70 0 70 0 0 139 0 140 229 3 c263 3 266 4 310 92 23 46 24 53
12 107 -33 162 -159 330 -258 346 -27 5 -48 18 -73 45 -48 54 -124 78 -260 83
-58 2 -129 0 -159 -6z m277 -33 c64 -17 114 -48 132 -81 8 -16 22 -25 37 -25
61 0 157 -80 216 -181 32 -55 67 -152 67 -188 0 -44 -34 -94 -80 -118 -41 -22
-54 -23 -257 -23 l-213 0 0 -140 0 -140 -50 0 -50 0 0 140 0 140 -212 0 c-244
0 -277 8 -318 75 -29 47 -23 111 19 201 56 120 139 206 218 225 29 8 50 21 64
40 26 36 77 63 149 78 30 6 64 13 75 15 31 7 146 -3 203 -18z"/>
<path d="M868 1320 c-31 -5 -73 -16 -92 -24 -59 -25 -52 -55 61 -249 128 -221
117 -220 243 -4 77 131 95 170 95 202 0 39 -1 40 -50 57 -64 21 -184 29 -257
18z m223 -36 c32 -9 60 -23 63 -31 6 -14 -13 -49 -145 -272 -21 -35 -40 -68
-42 -75 -6 -15 -8 -12 -57 74 -24 41 -67 117 -97 169 -42 73 -51 96 -42 107
34 41 216 57 320 28z"/>
<path d="M561 1158 c-55 -56 -103 -154 -109 -223 -6 -68 -9 -67 203 -63 l160
3 -2 28 c-2 27 -137 275 -157 289 -24 17 -55 6 -95 -34z m105 -35 c15 -27 49
-85 76 -130 26 -45 48 -85 48 -88 0 -3 -71 -4 -157 -3 l-158 3 3 33 c5 70 108
232 147 232 8 0 26 -21 41 -47z"/>
<path d="M1265 1192 c-22 -15 -166 -277 -163 -297 3 -19 11 -20 163 -23 212
-4 209 -5 203 61 -11 131 -144 301 -203 259z m77 -59 c18 -21 43 -54 55 -73
24 -40 55 -138 47 -151 -3 -5 -76 -9 -163 -9 l-158 0 80 135 c44 74 86 135 92
135 7 0 28 -17 47 -37z"/>
</g>
</svg>
