<?xml version="1.0" standalone="no"?>
<!DOCTYPE svg PUBLIC "-//W3C//DTD SVG 20010904//EN"
 "http://www.w3.org/TR/2001/REC-SVG-20010904/DTD/svg10.dtd">
<svg version="1.0" xmlns="http://www.w3.org/2000/svg"
 width="180.000000pt" height="180.000000pt" viewBox="0 0 180.000000 180.000000"
 preserveAspectRatio="xMidYMid meet">
<metadata>
Created by potrace 1.16, written by Peter Selinger 2001-2019
</metadata>
<g transform="translate(0.000000,180.000000) scale(0.100000,-0.100000)"
fill="#000000" stroke="none">
<path d="M1088 1683 c6 -2 18 -2 25 0 6 3 1 5 -13 5 -14 0 -19 -2 -12 -5z"/>
<path d="M808 1663 c7 -3 16 -2 19 1 4 3 -2 6 -13 5 -11 0 -14 -3 -6 -6z"/>
<path d="M868 1663 c17 -2 47 -2 65 0 17 2 3 4 -33 4 -36 0 -50 -2 -32 -4z"/>
<path d="M1025 1660 c3 -5 8 -10 11 -10 2 0 4 5 4 10 0 6 -5 10 -11 10 -5 0
-7 -4 -4 -10z"/>
<path d="M530 1636 c0 -2 9 -6 20 -9 11 -3 18 -1 14 4 -5 9 -34 13 -34 5z"/>
<path d="M588 1633 c7 -3 16 -2 19 1 4 3 -2 6 -13 5 -11 0 -14 -3 -6 -6z"/>
<path d="M765 1633 c-55 -12 -175 -56 -214 -78 -32 -19 -47 -22 -56 -15 -9 7
-15 7 -19 1 -4 -5 2 -11 11 -13 14 -3 12 -7 -12 -20 -37 -20 -114 -95 -166
-161 -23 -29 -39 -42 -39 -32 0 9 -5 13 -10 10 -8 -5 -8 -11 0 -20 7 -9 3 -25
-15 -57 -53 -95 -77 -185 -82 -314 -7 -149 11 -242 68 -361 38 -79 114 -184
168 -230 21 -18 23 -22 9 -23 -12 0 -15 -5 -11 -16 5 -15 7 -15 15 0 8 14 15
13 54 -16 45 -32 56 -45 28 -34 -9 3 -12 2 -9 -5 4 -6 14 -8 22 -5 8 3 33 -4
56 -15 99 -51 178 -71 305 -76 81 -4 143 -2 179 7 40 9 58 9 66 1 6 -6 15 -11
21 -11 5 0 2 6 -8 13 -16 12 -14 14 25 26 71 21 172 78 232 132 31 28 61 48
66 45 5 -3 15 2 22 12 13 15 12 16 -3 3 -30 -23 -20 -3 28 56 25 30 55 76 67
100 17 35 23 40 28 26 4 -12 7 -6 6 17 0 19 6 49 13 65 16 37 14 27 29 111 22
115 11 270 -27 378 -17 48 -28 96 -25 105 4 12 3 13 -5 3 -7 -11 -10 -10 -16
3 -3 10 -1 25 6 34 12 14 11 14 -4 2 -11 -8 -18 -9 -18 -3 0 12 19 27 35 27 6
0 11 11 12 25 l2 25 -8 -25 c-5 -14 -9 -21 -10 -16 -1 5 -9 2 -19 -7 -18 -16
-20 -15 -50 25 -39 54 -67 84 -117 128 -22 18 -39 38 -37 43 1 5 -1 6 -6 3 -5
-3 -26 6 -47 21 -55 38 -157 81 -228 98 -58 14 -263 19 -312 8z m325 -28 c73
-19 152 -56 231 -108 67 -44 93 -68 144 -132 22 -28 42 -52 45 -55 16 -14 61
-104 83 -165 124 -347 -29 -736 -353 -898 -127 -63 -199 -81 -335 -80 -168 0
-284 36 -425 134 -88 61 -209 196 -195 219 4 6 1 9 -7 8 -7 -2 -13 6 -13 17 0
11 5 19 10 18 6 -1 11 7 11 18 0 19 -1 19 -17 -3 l-17 -22 -16 38 c-90 217
-85 429 16 631 17 33 39 73 50 88 17 24 22 26 36 15 15 -12 16 -11 3 5 -13 17
-9 24 46 79 35 35 66 58 72 54 8 -5 6 -12 -4 -23 -9 -8 -13 -18 -10 -22 12
-11 35 31 25 44 -12 15 -5 21 65 62 160 94 377 124 555 78z"/>
<path d="M1048 1583 c7 -3 16 -2 19 1 4 3 -2 6 -13 5 -11 0 -14 -3 -6 -6z"/>
<path d="M830 1564 c0 -13 -3 -14 -14 -5 -15 12 -62 6 -72 -10 -10 -17 7 -49
27 -49 15 0 19 7 19 31 l0 32 25 -27 c13 -14 26 -26 28 -26 1 0 3 16 3 35 0
19 -4 35 -8 35 -4 0 -8 -7 -8 -16z m-50 -35 c0 -11 -4 -17 -10 -14 -5 3 -10
13 -10 21 0 8 5 14 10 14 6 0 10 -9 10 -21z"/>
<path d="M874 1545 c1 -36 20 -48 28 -17 6 26 -2 52 -16 52 -8 0 -12 -13 -12
-35z"/>
<path d="M915 1562 c3 -8 5 -22 5 -33 0 -14 7 -19 30 -19 17 0 30 5 30 11 0 5
-4 8 -9 5 -5 -4 -6 4 -3 16 5 21 7 20 19 -11 8 -18 17 -31 20 -27 3 3 0 19 -6
35 -10 24 -20 30 -52 33 -30 3 -38 0 -34 -10z m38 -28 c-4 -10 -9 -12 -15 -6
-12 12 -1 35 12 27 5 -3 6 -13 3 -21z"/>
<path d="M1010 1553 c0 -16 2 -16 11 -3 8 11 9 7 5 -17 -4 -24 -2 -33 8 -33 8
0 36 -9 62 -20 33 -14 51 -17 58 -10 7 7 4 10 -9 10 -11 0 -16 4 -10 8 11 8
13 37 4 47 -4 3 -9 -6 -13 -20 -4 -14 -13 -25 -21 -25 -19 0 -19 16 0 24 8 3
15 15 15 27 0 15 -4 19 -16 15 -9 -3 -18 -6 -20 -6 -2 0 -4 -9 -4 -19 0 -11
-4 -22 -9 -25 -4 -3 -6 6 -3 19 3 20 -1 27 -23 35 -34 13 -35 13 -35 -7z m50
-22 c0 -6 -4 -13 -10 -16 -5 -3 -10 1 -10 9 0 9 5 16 10 16 6 0 10 -4 10 -9z"/>
<path d="M715 1550 c-3 -5 -1 -10 4 -10 6 0 11 5 11 10 0 6 -2 10 -4 10 -3 0
-8 -4 -11 -10z"/>
<path d="M1166 1531 c-11 -12 -14 -21 -7 -26 6 -3 11 1 11 10 0 8 10 20 23 25
14 6 16 9 6 9 -9 1 -24 -8 -33 -18z"/>
<path d="M660 1536 c0 -3 4 -16 10 -30 12 -31 0 -34 -26 -5 l-19 21 -6 -33
c-6 -31 -7 -32 -14 -11 -9 29 -35 30 -28 1 5 -19 4 -20 -15 -8 -12 7 -25 9
-29 5 -4 -5 -2 -11 5 -13 6 -3 12 -16 12 -29 0 -13 5 -24 11 -24 7 0 9 9 6 21
-4 16 -3 18 9 8 11 -9 14 -8 14 7 0 14 3 15 8 6 11 -17 42 -5 43 17 0 9 3 11
5 5 6 -15 94 16 94 33 0 11 -30 33 -44 33 -14 0 -4 -18 17 -29 12 -6 14 -9 5
-7 -10 3 -18 1 -18 -5 0 -6 -4 -7 -10 -4 -5 3 -10 15 -10 26 0 10 -4 19 -10
19 -5 0 -10 -2 -10 -4z"/>
<path d="M800 1516 c0 -9 5 -16 10 -16 6 0 10 4 10 9 0 6 -4 13 -10 16 -5 3
-10 -1 -10 -9z"/>
<path d="M1177 1478 c-17 -29 -16 -30 3 -35 11 -3 20 -10 20 -15 0 -5 5 -6 10
-3 15 9 12 25 -5 25 -8 0 -15 5 -15 11 0 5 4 7 10 4 6 -4 7 1 3 11 -4 12 -2
15 8 12 8 -2 16 -22 19 -42 l5 -38 23 25 c15 16 20 27 13 32 -6 3 -11 -1 -11
-9 0 -9 -4 -16 -9 -16 -5 0 -7 9 -4 19 4 14 -3 24 -24 34 -28 15 -29 14 -46
-15z"/>
<path d="M833 1473 c-7 -2 -13 -22 -13 -43 0 -41 13 -52 48 -39 22 9 28 20 15
33 -4 4 -8 17 -8 29 0 21 -18 30 -42 20z m27 -24 c0 -5 -4 -9 -10 -9 -5 0 -10
7 -10 16 0 8 5 12 10 9 6 -3 10 -10 10 -16z m5 -39 c3 -5 -1 -10 -9 -10 -9 0
-16 5 -16 10 0 6 4 10 9 10 6 0 13 -4 16 -10z"/>
<path d="M900 1453 c0 -16 6 -23 20 -23 11 0 20 -7 20 -15 0 -8 -4 -15 -10
-15 -5 0 -10 5 -10 10 0 6 -4 10 -10 10 -5 0 -10 -7 -10 -16 0 -26 54 -14 58
14 3 18 -1 22 -22 22 -14 0 -26 4 -26 8 0 5 10 8 21 8 12 -1 24 4 25 9 2 6 -9
10 -26 10 -24 0 -30 -4 -30 -22z"/>
<path d="M996 1459 c-31 -24 -33 -39 -6 -39 22 0 27 -15 8 -23 -7 -3 3 -5 22
-5 19 0 29 2 23 5 -7 2 -13 9 -13 14 0 6 4 8 9 4 5 -3 12 -1 16 5 3 5 -1 10
-10 10 -13 0 -16 6 -11 25 8 30 -3 32 -38 4z m14 -19 c0 -5 -5 -10 -11 -10 -5
0 -7 5 -4 10 3 6 8 10 11 10 2 0 4 -4 4 -10z"/>
<path d="M496 1455 c-3 -8 -1 -15 4 -15 13 0 22 18 11 24 -5 3 -11 -1 -15 -9z"/>
<path d="M717 1463 c-10 -10 -8 -23 4 -23 5 0 8 4 5 9 -4 5 0 12 6 14 7 3 8 6
2 6 -6 1 -14 -2 -17 -6z"/>
<path d="M760 1460 c-10 -6 -11 -10 -2 -10 6 0 12 -11 12 -24 0 -13 -6 -27
-12 -29 -7 -3 1 -6 17 -6 30 -1 30 0 27 39 -4 40 -14 48 -42 30z"/>
<path d="M1078 1454 c-4 -3 0 -17 8 -29 9 -14 11 -26 5 -29 -5 -3 -12 0 -14 6
-3 8 -6 6 -6 -4 -1 -21 9 -23 33 -5 16 12 16 15 4 28 -8 8 -17 20 -19 27 -2 7
-7 10 -11 6z"/>
<path d="M655 1430 c-3 -5 1 -10 9 -10 9 0 16 5 16 10 0 6 -4 10 -9 10 -6 0
-13 -4 -16 -10z"/>
<path d="M480 1409 c0 -12 7 -27 16 -33 22 -16 47 -136 28 -136 -7 0 -12 8
-12 18 3 32 -73 134 -88 119 -7 -6 20 -59 39 -79 8 -7 18 -27 24 -43 7 -21 16
-29 28 -27 17 3 17 2 2 -13 -9 -9 -21 -13 -27 -10 -5 3 -10 -1 -10 -9 0 -23
-8 -20 -40 14 -28 30 -50 39 -50 21 0 -5 14 -24 31 -41 l32 -31 -21 -22 c-30
-32 -42 -69 -30 -91 7 -13 5 -22 -8 -37 -16 -17 -16 -21 -1 -36 14 -16 14 -20
-2 -38 -33 -38 -85 -58 -93 -34 -2 7 -11 7 -28 0 -25 -10 -25 -10 -2 -10 13
-1 20 -5 17 -11 -4 -6 7 -10 24 -10 17 0 31 5 31 10 0 6 8 10 18 10 13 0 10
-6 -13 -25 -21 -17 -25 -24 -14 -25 9 0 22 7 29 15 24 29 33 16 25 -37 -4 -29
-8 -74 -8 -100 0 -42 -3 -48 -29 -59 -15 -6 -28 -18 -28 -26 0 -8 4 -11 10 -8
6 4 10 -10 10 -34 0 -22 -5 -43 -10 -46 -6 -3 -10 -13 -10 -21 0 -11 11 -14
53 -10 28 2 72 1 97 -4 44 -7 43 -8 -25 -10 -38 -1 -76 -2 -82 -1 -7 1 -13 -3
-13 -10 0 -7 13 -10 38 -7 20 3 53 1 72 -4 19 -5 51 -11 70 -13 l35 -5 -35 14
-35 14 38 1 c31 1 40 -3 44 -19 4 -16 14 -20 47 -21 131 -3 150 -2 154 10 3 9
-7 11 -41 6 -31 -5 -47 -3 -52 6 -6 9 -1 10 18 5 15 -3 29 -1 32 5 4 6 13 8
21 5 8 -3 14 1 14 10 0 10 6 14 15 10 11 -4 15 2 15 23 0 39 41 96 68 95 11 0
19 3 17 7 -3 3 7 7 20 6 16 0 36 -12 55 -34 17 -18 30 -29 30 -23 0 6 4 9 10
5 5 -3 7 -33 3 -70 l-6 -65 29 1 c16 0 23 3 17 6 -7 2 -14 17 -14 31 -1 27 -1
27 -9 -3 -7 -28 -8 -27 -9 13 0 23 3 42 8 42 5 0 32 -7 60 -17 35 -11 50 -21
47 -30 -3 -7 -1 -13 4 -13 6 0 10 5 10 10 0 6 7 10 15 10 8 0 15 -4 15 -10 0
-5 -4 -10 -10 -10 -5 0 -10 -4 -10 -9 0 -11 59 -20 65 -10 3 4 21 3 40 -1 19
-4 35 -5 35 -1 0 3 7 -3 15 -13 8 -11 18 -16 22 -11 5 4 2 10 -4 12 -7 3 -13
9 -13 15 0 6 7 8 15 4 8 -3 15 0 15 6 0 9 3 9 12 0 10 -10 10 -15 -1 -21 -16
-10 -6 -31 14 -31 7 0 20 7 28 15 8 8 17 11 21 8 3 -4 6 1 6 10 0 27 -31 17
-43 -13 -3 -9 -6 -4 -6 13 -1 20 4 27 19 28 11 1 25 2 31 3 20 2 39 40 39 78
0 43 -26 102 -40 93 -6 -4 -10 20 -10 60 0 61 -2 66 -26 75 -14 6 -36 10 -50
10 -20 0 -24 5 -24 30 0 24 7 33 36 48 25 13 33 22 25 26 -7 5 -19 0 -27 -10
-15 -18 -15 -18 -11 3 3 15 -1 23 -16 27 -12 3 -22 4 -22 3 -1 -1 1 -32 4 -69
4 -38 2 -68 -2 -68 -5 0 -7 -32 -5 -70 3 -44 1 -69 -5 -67 -14 4 -16 55 -9
232 5 120 10 159 20 158 7 -2 12 7 12 22 0 29 -16 34 -24 8 -2 -10 -4 -3 -3
16 1 21 -3 36 -11 39 -9 3 -13 -4 -12 -19 1 -13 2 -88 1 -166 -1 -134 -2 -143
-20 -143 -31 0 -51 -28 -51 -71 0 -21 -4 -39 -10 -39 -5 0 -10 7 -10 15 0 8
-9 29 -20 47 l-20 33 2 -38 c1 -24 6 -37 15 -37 8 0 11 -4 8 -10 -3 -5 -1 -10
5 -10 8 0 8 -6 0 -21 -8 -14 -8 -29 -1 -50 7 -21 7 -29 -2 -29 -9 0 -8 -3 1
-9 7 -4 12 -12 10 -17 -2 -5 2 -9 7 -9 6 0 11 16 11 35 3 82 4 91 14 85 6 -4
8 -15 5 -25 -3 -11 0 -20 10 -24 9 -3 14 -10 11 -15 -4 -5 -2 -11 4 -13 6 -2
3 -17 -8 -38 -14 -28 -23 -35 -49 -36 -30 -2 -32 1 -27 22 4 17 2 24 -9 24 -8
0 -18 7 -21 16 -5 13 -19 15 -71 12 -46 -2 -65 0 -65 9 0 18 -54 43 -94 43
-41 0 -82 -42 -92 -95 -4 -23 -12 -35 -22 -35 -12 0 -13 3 -4 12 19 19 14 30
-9 17 -15 -8 -18 -14 -10 -22 6 -6 11 -16 11 -21 0 -6 -5 -5 -12 2 -9 9 -14 8
-22 -2 -8 -11 -26 -13 -76 -7 -57 6 -61 8 -35 15 17 4 38 14 47 23 18 16 38
10 38 -12 0 -8 4 -17 10 -20 6 -4 7 1 3 10 -3 10 0 21 8 26 10 6 8 9 -9 9 -13
0 -20 4 -17 10 3 6 17 10 30 10 62 0 71 28 25 80 -22 24 -39 34 -61 34 -30 1
-31 3 -33 47 -2 58 -19 79 -62 79 -19 0 -34 5 -34 12 0 6 3 8 6 5 4 -3 16 -1
27 5 18 9 25 6 54 -27 18 -21 33 -32 33 -24 0 19 -47 69 -65 69 -7 0 -16 6
-18 13 -4 9 -8 8 -16 -3 -9 -13 -11 -12 -11 3 0 10 -4 15 -10 12 -5 -3 -10
-18 -10 -32 0 -44 -9 -20 -13 35 -3 32 1 62 9 78 8 14 11 31 7 37 -3 5 -1 7 4
4 6 -4 16 6 23 22 18 45 45 64 77 58 l28 -6 -28 13 c-15 6 -25 15 -21 19 11
11 54 -24 54 -44 0 -11 7 -19 16 -19 12 0 15 6 10 23 -3 12 -6 25 -6 28 0 8
-25 19 -69 30 -42 10 -78 -5 -61 -26 8 -10 5 -18 -15 -33 -14 -11 -25 -25 -25
-32 0 -6 -4 -8 -10 -5 -5 3 -10 24 -10 46 0 35 -8 48 -22 34 -3 -3 -2 -23 2
-45 9 -48 4 -55 -23 -30 -20 19 -20 20 -2 40 10 11 13 20 7 20 -7 0 -12 7 -12
16 0 8 4 13 9 9 5 -3 16 3 23 14 15 21 76 43 64 22 -8 -13 0 -13 29 -2 11 5
25 5 30 1 18 -14 85 -23 85 -11 0 6 -7 8 -16 4 -14 -5 -14 -3 -3 15 10 16 16
18 26 10 7 -5 10 -15 7 -22 -4 -6 6 2 21 17 15 15 24 34 21 42 -11 29 217 32
251 3 7 -6 20 -8 28 -4 10 4 15 -1 15 -15 0 -11 5 -30 12 -42 7 -12 13 -31 15
-41 5 -27 10 -31 26 -17 11 9 17 8 27 -4 11 -13 11 -16 0 -13 -7 2 -15 -3 -17
-11 -4 -10 4 -12 35 -7 33 4 40 3 35 -9 -3 -10 2 -15 16 -15 14 0 21 6 21 20
0 11 5 20 10 20 6 0 10 16 10 35 0 24 -6 37 -19 45 -28 15 -51 12 -51 -6 0 -8
-4 -13 -9 -9 -10 6 -7 37 4 56 13 21 49 26 82 12 18 -7 33 -10 33 -7 0 7 91
-64 101 -79 7 -10 29 -1 29 12 0 5 -10 11 -22 14 -32 9 -14 20 28 19 29 -1 35
2 30 14 -3 9 -6 17 -6 20 0 2 -14 1 -30 -2 -27 -6 -30 -4 -30 19 0 14 5 29 10
32 6 3 10 -3 10 -14 0 -12 5 -21 10 -21 6 0 10 5 10 11 0 5 5 7 11 3 6 -3 15
0 20 7 12 19 11 32 -1 24 -13 -8 -60 5 -60 17 0 5 9 7 19 3 11 -3 23 0 27 6 5
9 2 10 -9 6 -10 -3 -17 -2 -17 3 0 6 -7 10 -15 10 -8 0 -15 -9 -15 -20 0 -11
-6 -19 -12 -17 -14 2 -14 -6 -2 -37 6 -15 4 -17 -6 -11 -10 6 -11 2 -6 -21 5
-21 4 -25 -4 -14 -5 8 -10 11 -10 7 0 -5 -13 1 -29 12 -16 12 -37 21 -46 21
-10 0 -13 5 -9 11 5 8 -1 10 -20 7 -21 -4 -26 -2 -22 9 4 9 1 13 -6 10 -7 -2
-12 -10 -10 -16 1 -6 -2 -11 -8 -11 -5 0 -10 6 -11 13 -2 41 -9 71 -20 81 -9
8 -10 7 -6 -6 3 -10 3 -19 -1 -22 -4 -2 -9 6 -10 20 -1 13 3 24 8 24 6 0 5 8
-2 19 -6 10 -16 18 -22 17 -30 -6 -56 -18 -56 -27 0 -6 -6 -7 -12 -2 -7 4 -22
8 -33 9 -11 1 -50 5 -86 9 -41 5 -86 3 -119 -4 -29 -6 -56 -8 -59 -4 -9 13
-51 15 -51 4 0 -6 -7 -11 -15 -11 -8 0 -23 -9 -32 -19 -9 -11 -20 -18 -25 -15
-4 3 -8 -2 -8 -11 0 -9 -4 -14 -9 -11 -9 6 -24 -30 -21 -53 1 -7 -3 -10 -9 -6
-6 3 -11 12 -11 19 0 25 61 104 90 116 40 17 38 31 -2 23 -58 -11 -77 -21 -93
-53 -16 -31 -9 -39 15 -17 11 9 11 8 0 -7 -8 -10 -20 -35 -25 -55 -15 -52 -29
-40 -26 23 1 31 -2 57 -8 61 -6 3 -9 10 -6 15 3 5 0 12 -5 15 -6 4 -15 18 -20
31 -12 30 -30 31 -30 3z m136 -66 c-10 -10 -19 5 -10 18 6 11 8 11 12 0 2 -7
1 -15 -2 -18z m369 2 c72 -8 109 -23 153 -59 35 -30 41 -59 17 -93 -15 -22
-16 -22 -34 -4 -33 33 -148 54 -276 50 -73 -3 -119 -9 -127 -17 -9 -9 -8 -12
8 -12 18 -1 18 -1 2 -11 -11 -6 -24 -6 -34 -1 -14 8 -14 11 2 26 13 14 15 22
7 35 -6 9 -16 15 -22 14 -6 -2 -11 6 -11 17 0 11 5 20 11 20 5 0 7 -6 3 -12
-4 -8 -3 -10 2 -5 5 5 9 14 9 20 0 7 10 12 22 11 12 0 20 3 17 8 -3 4 -4 8 -2
9 2 0 37 3 78 5 41 3 77 7 79 10 3 2 12 2 20 0 9 -2 43 -7 76 -11z m150 -33
c-8 -8 -35 20 -35 37 1 12 5 11 21 -8 11 -13 17 -26 14 -29z m-481 -56 c-3
-13 -1 -27 5 -30 6 -4 11 -14 11 -22 0 -8 -4 -12 -10 -9 -5 3 -10 2 -10 -4 0
-5 8 -11 18 -13 15 -3 14 -6 -5 -16 -20 -11 -22 -10 -16 4 5 14 2 16 -19 11
-15 -4 -33 -9 -40 -12 -9 -4 -19 3 -25 17 l-11 23 -10 -25 c-6 -14 -11 -19
-11 -12 -1 11 -3 11 -14 0 -7 -7 -19 -22 -26 -33 l-13 -20 6 20 c5 17 4 18 -7
5 -7 -8 -21 -20 -32 -26 -25 -14 -32 -44 -11 -44 8 0 18 5 22 12 5 7 2 9 -9 5
-11 -4 -14 -2 -10 9 4 11 8 12 19 3 12 -10 12 -15 1 -32 -20 -31 -34 -31 -41
-1 -10 37 14 68 87 115 67 42 97 48 117 24 10 -12 16 -13 24 -5 8 8 6 15 -7
25 -16 11 -16 16 -5 34 17 28 30 27 22 -3z m39 1 c3 -8 -1 -14 -9 -14 -15 0
-18 9 -7 20 9 9 10 9 16 -6z m422 -77 c3 -6 -1 -7 -9 -4 -18 7 -21 14 -7 14 6
0 13 -4 16 -10z m10 -22 c14 -6 28 -23 32 -36 l6 -26 22 28 c18 23 26 26 40
18 17 -9 17 -10 -4 -17 -11 -3 -19 -10 -17 -14 3 -4 -4 -15 -15 -24 -10 -9
-19 -13 -19 -9 0 4 -13 13 -30 20 -16 7 -32 22 -35 33 -4 10 -11 19 -16 19 -5
0 -9 5 -9 10 0 13 13 13 45 -2z m105 -73 c0 -8 -4 -15 -9 -15 -13 0 -22 16
-14 24 11 11 23 6 23 -9z m-760 -75 c10 0 11 -3 3 -11 -12 -12 -63 -2 -63 13
0 6 10 8 23 4 12 -3 29 -6 37 -6z m60 -31 c0 -25 -6 -32 -37 -46 -21 -9 -32
-18 -25 -20 18 -7 15 -21 -5 -19 -10 0 -22 -9 -28 -21 -12 -28 -17 -28 -38 -5
-14 15 -14 20 -2 42 8 14 17 32 20 40 5 13 84 56 108 59 4 1 7 -13 7 -30z
m-17 -99 c3 -19 8 -43 13 -54 5 -14 3 -17 -7 -14 -8 3 -15 10 -15 16 -1 7 -2
13 -3 15 -6 7 -9 62 -5 69 8 13 11 7 17 -32z m-23 -10 c0 -5 -2 -10 -4 -10 -3
0 -8 5 -11 10 -3 6 -1 10 4 10 6 0 11 -4 11 -10z m-10 -34 c0 -8 -7 -22 -17
-31 -15 -16 -11 -16 60 -13 63 2 77 0 86 -14 14 -22 14 -54 1 -79 -12 -22 -6
-26 45 -32 28 -3 30 -7 31 -46 0 -41 -15 -71 -37 -71 -16 0 -10 39 9 50 16 11
16 11 0 6 -14 -4 -18 0 -18 19 0 21 -5 25 -30 25 -27 0 -29 2 -20 25 9 23 7
25 -18 24 -15 0 -21 -3 -14 -6 6 -2 12 -8 12 -13 0 -11 -54 -7 -62 5 -5 7 -15
5 -29 -3 -26 -17 -34 -10 -20 17 16 28 -13 101 -40 101 -12 0 -19 7 -18 18 0
10 3 12 6 5 7 -18 23 -16 23 3 0 13 3 14 14 5 10 -9 15 -8 20 4 7 19 16 19 16
1z m-58 -104 c-17 -5 -15 -22 3 -22 8 0 15 5 15 10 0 6 5 10 12 10 6 0 4 -7
-5 -18 -10 -10 -17 -24 -17 -31 0 -7 -6 -11 -12 -9 -14 5 -23 81 -12 107 5 13
9 10 17 -13 7 -22 7 -31 -1 -34z m962 14 c3 -12 6 -35 6 -51 0 -29 -2 -30 -40
-30 l-40 0 0 47 c0 31 4 48 13 49 10 0 10 2 0 6 -29 11 -10 20 21 11 21 -7 37
-19 40 -32z m-126 -41 c2 -32 -1 -51 -10 -56 -10 -7 -9 -9 4 -9 11 0 15 -6 11
-20 -7 -25 -23 -26 -24 -2 -5 124 -4 142 5 139 6 -2 12 -25 14 -52z m-618 -15
c0 -5 -5 -10 -11 -10 -5 0 -7 5 -4 10 3 6 8 10 11 10 2 0 4 -4 4 -10z m124
-89 c-9 -9 -64 -9 -64 0 0 5 5 9 11 9 7 0 8 12 4 33 l-7 32 30 -35 c17 -19 28
-37 26 -39z m-366 29 c-2 -33 -8 -36 -26 -18 -17 17 -15 36 6 41 9 3 18 5 20
6 1 0 1 -12 0 -29z m61 -57 c1 -43 -4 -48 -33 -37 -20 8 -21 44 -1 44 8 0 15
4 15 9 0 5 -7 11 -15 15 -21 8 -19 44 3 48 20 4 30 -19 31 -79z m920 68 c7 -5
14 -26 15 -46 1 -34 -2 -38 -26 -41 -19 -2 -28 2 -28 12 0 8 10 15 23 15 l22
2 -22 4 c-13 2 -23 11 -23 20 0 10 6 13 16 9 8 -3 12 -2 9 4 -3 6 -13 10 -21
10 -8 0 -14 5 -14 10 0 12 30 13 49 1z m-866 -13 c4 -10 7 -10 14 0 8 11 67
12 77 1 2 -2 6 -25 9 -51 5 -41 3 -48 -14 -53 -28 -9 -35 1 -23 33 6 15 8 36
4 47 -6 17 -7 17 -13 1 -4 -10 -7 -33 -7 -52 0 -36 -13 -45 -28 -18 -6 11 -11
13 -16 5 -4 -6 -14 -11 -22 -11 -10 0 -14 13 -14 48 0 27 3 52 7 55 10 11 21
8 26 -5z m787 2 c0 -5 -4 -10 -10 -10 -5 0 -10 -5 -10 -11 0 -5 5 -7 10 -4 6
4 9 1 8 -7 -2 -7 3 -12 10 -10 20 4 14 -16 -8 -23 -11 -3 -19 -9 -19 -13 1 -4
1 -16 0 -27 -1 -17 -3 -18 -12 -5 -8 12 -9 10 -4 -7 9 -32 -13 -29 -26 3 -11
32 -3 64 17 64 8 0 14 10 14 23 0 13 3 27 7 30 10 10 23 8 23 -3z m132 -82
c-9 -9 -12 -1 -11 33 l1 44 11 -33 c7 -24 7 -36 -1 -44z m-1040 17 c4 -19 1
-25 -13 -25 -14 0 -19 7 -19 25 0 15 6 25 14 25 7 0 16 -11 18 -25z m683 -5
c3 -5 -3 -10 -15 -10 -12 0 -18 5 -15 10 3 6 10 10 15 10 5 0 12 -4 15 -10z
m50 -10 c3 -5 -1 -10 -9 -10 -8 0 -18 5 -21 10 -3 6 1 10 9 10 8 0 18 -4 21
-10z m274 -16 c46 -9 38 -20 -11 -15 -38 3 -41 2 -29 -13 12 -14 10 -16 -13
-16 -15 0 -25 3 -23 8 2 4 7 15 10 25 7 18 18 20 66 11z m-87 -22 c-7 -2 -12
-12 -12 -23 0 -10 -4 -19 -10 -19 -13 0 -13 3 1 34 7 14 17 22 22 19 8 -5 7
-8 -1 -11z m-82 -7 c0 -8 -2 -15 -4 -15 -2 0 -6 7 -10 15 -3 8 -1 15 4 15 6 0
10 -7 10 -15z m-30 -5 c0 -5 -2 -10 -4 -10 -3 0 -8 5 -11 10 -3 6 -1 10 4 10
6 0 11 -4 11 -10z m-530 -20 c0 -10 -70 -18 -76 -9 -5 9 8 14 46 15 17 1 30
-2 30 -6z"/>
<path d="M866 1314 c4 -14 1 -31 -6 -39 -10 -13 -8 -15 13 -15 19 0 25 4 21
15 -5 11 1 15 20 15 27 0 35 -15 14 -23 -7 -3 -1 -6 14 -6 21 -1 25 3 21 19
-3 11 0 27 7 35 11 13 8 15 -13 15 -21 0 -25 -4 -20 -17 5 -13 2 -15 -11 -10
-10 4 -22 7 -27 7 -4 0 -6 6 -3 13 2 7 -4 13 -16 14 -17 1 -19 -3 -14 -23z"/>
<path d="M763 1319 c-25 -7 -33 -15 -33 -32 0 -22 1 -22 20 3 17 22 19 23 25
7 4 -9 5 -24 1 -32 -6 -16 11 -20 33 -6 9 6 10 11 2 15 -13 8 -15 46 -3 46 4
0 13 -5 20 -12 9 -9 12 -8 12 5 0 19 -25 21 -77 6z"/>
<path d="M1018 1322 c-19 -2 -28 -9 -28 -22 0 -10 -2 -25 -6 -33 -4 -11 6 -16
38 -21 56 -9 52 -9 56 4 3 8 -2 10 -14 6 -11 -3 -24 -2 -31 2 -17 11 -9 48 10
44 19 -3 32 14 14 20 -6 2 -24 2 -39 0z"/>
<path d="M1045 1287 c-12 -9 -14 -16 -7 -21 6 -3 15 2 21 11 6 11 11 13 11 5
0 -15 20 -6 20 9 0 13 -23 11 -45 -4z"/>
<path d="M1103 1262 c-10 -7 -10 -12 0 -25 11 -16 12 -15 12 8 0 14 0 25 0 25
0 0 -6 -4 -12 -8z"/>
<path d="M1125 1120 c4 -6 11 -8 16 -5 14 9 11 15 -7 15 -8 0 -12 -5 -9 -10z"/>
<path d="M484 982 c-6 -4 -16 -16 -22 -27 -6 -11 -12 -14 -12 -7 0 10 -3 10
-14 0 -8 -7 -12 -16 -9 -20 2 -5 -1 -8 -7 -8 -6 0 -8 -5 -4 -12 5 -7 17 -1 36
20 15 18 30 32 33 31 15 -2 24 7 17 18 -4 7 -12 9 -18 5z"/>
<path d="M500 768 c0 -4 9 -8 20 -8 11 0 23 0 27 -1 4 0 9 3 10 8 2 4 -10 8
-27 8 -16 1 -30 -3 -30 -7z"/>
<path d="M480 731 c0 -11 10 -17 30 -18 17 -1 30 2 30 8 0 6 6 6 18 0 11 -6
24 -6 32 -1 21 13 11 17 -52 22 -48 4 -58 2 -58 -11z"/>
<path d="M1362 720 c0 -14 2 -19 5 -12 2 6 2 18 0 25 -3 6 -5 1 -5 -13z"/>
<path d="M1320 721 c0 -5 7 -11 15 -15 9 -3 15 0 15 9 0 8 -7 15 -15 15 -8 0
-15 -4 -15 -9z"/>
<path d="M500 581 c0 -13 7 -18 24 -18 17 0 22 4 19 16 -6 24 -43 25 -43 2z"/>
<path d="M1255 550 c3 -5 8 -10 11 -10 2 0 4 5 4 10 0 6 -5 10 -11 10 -5 0 -7
-4 -4 -10z"/>
<path d="M1143 1415 c-18 -19 -16 -30 2 -15 8 6 20 8 27 4 10 -6 9 -3 -1 9
-16 20 -13 20 -28 2z"/>
<path d="M618 1413 c7 -3 16 -2 19 1 4 3 -2 6 -13 5 -11 0 -14 -3 -6 -6z"/>
<path d="M1370 1410 c-13 -9 -13 -10 0 -10 13 0 13 -2 0 -11 -13 -9 -12 -10 2
-5 10 3 20 1 23 -4 8 -12 25 -13 25 -1 0 5 -9 11 -21 14 -12 3 -18 10 -14 16
8 13 4 14 -15 1z"/>
<path d="M1316 1387 c3 -10 9 -15 12 -12 3 3 0 11 -7 18 -10 9 -11 8 -5 -6z"/>
<path d="M390 1369 c0 -19 -2 -20 -17 -8 -15 11 -16 11 -5 -1 18 -21 15 -34
-5 -19 -16 13 -17 12 -5 -3 19 -24 50 -4 44 28 -5 30 -12 31 -12 3z"/>
<path d="M1199 1379 c-12 -7 -12 -9 0 -9 8 0 22 -7 31 -15 15 -14 18 -13 27 8
10 22 9 24 -16 25 -15 0 -34 -4 -42 -9z"/>
<path d="M1248 1339 c-22 -23 -23 -39 -3 -39 13 0 35 36 35 56 0 9 -16 1 -32
-17z"/>
<path d="M1299 1333 c-5 -13 -8 -29 -6 -36 1 -6 -9 -11 -25 -11 -16 1 -28 -3
-28 -7 0 -5 6 -9 13 -9 7 0 24 -13 39 -30 32 -37 58 -39 58 -6 0 28 -17 37
-42 24 -14 -6 -18 -5 -18 7 0 9 6 15 13 12 6 -2 25 2 40 10 22 11 26 17 17 28
-8 10 -7 16 7 24 14 8 15 11 3 12 -8 0 -26 2 -38 3 -17 2 -26 -4 -33 -21z m43
-35 c-12 -12 -35 -1 -27 12 3 5 13 6 21 3 10 -4 12 -9 6 -15z m-12 -58 c0 -5
-5 -10 -11 -10 -5 0 -7 5 -4 10 3 6 8 10 11 10 2 0 4 -4 4 -10z"/>
<path d="M1418 1353 c-19 -5 -24 -18 -9 -27 5 -3 12 2 15 11 6 14 8 14 22 -3
14 -18 15 -18 4 4 -6 12 -12 21 -13 21 -1 -1 -10 -3 -19 -6z"/>
<path d="M1188 1338 c7 -7 12 -25 12 -40 0 -15 5 -28 11 -28 6 0 8 13 5 30 -2
17 0 30 5 30 6 0 7 5 4 10 -3 6 -16 10 -28 10 -16 0 -18 -3 -9 -12z"/>
<path d="M395 1310 c3 -5 14 -10 23 -10 15 0 15 2 2 10 -20 13 -33 13 -25 0z"/>
<path d="M297 1267 c-4 -10 1 -21 11 -27 14 -8 14 -11 3 -19 -8 -5 -9 -11 -3
-15 17 -10 23 24 9 51 -11 21 -15 23 -20 10z"/>
<path d="M410 1272 c0 -13 58 -63 64 -54 3 5 -6 20 -20 35 -24 26 -44 35 -44
19z"/>
<path d="M1492 1235 c-13 -29 -5 -33 14 -7 12 15 13 13 14 -18 0 -19 -4 -30
-8 -23 -5 8 -11 3 -19 -13 -13 -29 -10 -30 17 -7 23 20 27 65 7 82 -11 8 -16
5 -25 -14z"/>
<path d="M273 1213 c-3 -10 -8 -21 -10 -25 -2 -4 1 -9 6 -12 5 -3 11 8 13 24
5 33 1 39 -9 13z"/>
<path d="M341 1213 c0 -12 -4 -30 -7 -40 -5 -17 -5 -17 6 0 6 10 9 28 7 40 -4
22 -4 22 -6 0z"/>
<path d="M370 1191 c0 -5 5 -13 10 -16 6 -3 10 -2 10 4 0 5 -4 13 -10 16 -5 3
-10 2 -10 -4z"/>
<path d="M798 1193 c6 -2 18 -2 25 0 6 3 1 5 -13 5 -14 0 -19 -2 -12 -5z"/>
<path d="M865 1190 c-17 -6 -15 -9 17 -15 20 -4 44 -5 55 -2 10 3 1 5 -20 6
-23 1 -36 5 -32 11 7 11 7 11 -20 0z"/>
<path d="M956 1185 c4 -8 16 -14 28 -14 16 1 17 2 4 6 -10 2 -18 9 -18 14 0 5
-4 9 -10 9 -5 0 -7 -7 -4 -15z"/>
<path d="M1210 1190 c-16 -10 -15 -12 22 -27 20 -9 28 -9 32 0 2 7 5 4 5 -7 1
-16 3 -17 18 -5 15 12 16 12 10 -3 -3 -10 -3 -18 2 -18 4 0 21 -11 37 -25 16
-14 32 -21 37 -16 11 11 -1 33 -14 26 -5 -4 -9 1 -9 10 0 12 -6 15 -22 10 -16
-6 -20 -4 -15 7 3 10 -9 22 -39 36 -52 25 -45 24 -64 12z m30 -10 c0 -5 -2
-10 -4 -10 -3 0 -8 5 -11 10 -3 6 -1 10 4 10 6 0 11 -4 11 -10z"/>
<path d="M297 1174 c-3 -5 1 -15 9 -22 16 -14 18 -5 5 17 -5 7 -11 9 -14 5z"/>
<path d="M240 1148 c0 -9 5 -20 10 -23 13 -8 13 5 0 25 -8 13 -10 13 -10 -2z"/>
<path d="M270 1153 c0 -15 18 -35 23 -27 3 5 -1 15 -9 22 -8 7 -14 9 -14 5z"/>
<path d="M1006 1152 c-4 -4 -22 -7 -39 -7 -25 -1 -31 -5 -29 -18 2 -9 -2 -17
-8 -17 -5 0 -10 9 -10 20 0 28 -20 25 -21 -2 -1 -17 -2 -19 -6 -5 -5 20 -23
23 -24 5 0 -7 -4 -4 -9 7 -7 16 -9 17 -9 3 -1 -9 -6 -20 -13 -24 -7 -5 -9 -2
-5 8 9 26 -4 29 -24 5 -10 -12 -18 -17 -19 -10 0 6 6 14 13 17 6 3 3 5 -8 3
-11 -1 -20 -9 -20 -17 0 -12 18 -15 88 -17 72 -2 87 0 87 12 0 8 5 15 11 15 6
0 9 -7 5 -15 -3 -8 -1 -15 4 -15 6 0 10 7 10 15 0 8 5 15 10 15 6 0 10 -7 10
-15 0 -8 8 -15 18 -15 14 0 15 2 2 10 -10 6 -11 10 -2 10 14 0 17 26 3 34 -4
3 -11 2 -15 -2z"/>
<path d="M1540 1151 c0 -6 5 -13 10 -16 6 -3 10 1 10 9 0 9 -4 16 -10 16 -5 0
-10 -4 -10 -9z"/>
<path d="M538 1134 c-5 -4 -8 -23 -7 -43 0 -34 1 -34 10 -11 11 27 8 66 -3 54z"/>
<path d="M1427 1128 c-6 -17 24 -68 40 -68 18 0 16 8 -7 37 -11 14 -17 29 -14
34 3 5 1 9 -5 9 -5 0 -11 -6 -14 -12z"/>
<path d="M731 1114 c0 -11 3 -14 6 -6 3 7 2 16 -1 19 -3 4 -6 -2 -5 -13z"/>
<path d="M264 1069 c-7 -39 -8 -41 -17 -21 -12 27 -31 30 -22 3 3 -11 -1 -25
-10 -34 -20 -20 -19 -23 8 -32 51 -16 52 -16 63 30 6 25 7 45 2 45 -4 0 -8 -8
-9 -17 0 -10 -3 -13 -5 -6 -3 7 0 22 6 34 8 15 9 24 1 32 -7 7 -12 -3 -17 -34z
m-14 -71 c0 -4 -6 -5 -14 -2 -8 3 -12 12 -9 21 5 12 7 12 14 1 5 -7 9 -16 9
-20z"/>
<path d="M1480 1100 c0 -5 5 -10 11 -10 5 0 7 5 4 10 -3 6 -8 10 -11 10 -2 0
-4 -4 -4 -10z"/>
<path d="M1569 1095 c-3 -46 4 -81 16 -94 12 -12 12 -7 0 32 -10 35 -11 47 -2
50 9 3 9 8 0 18 -11 11 -13 10 -14 -6z"/>
<path d="M1530 1093 c0 -5 5 -15 10 -23 8 -12 10 -11 10 8 0 12 -4 22 -10 22
-5 0 -10 -3 -10 -7z"/>
<path d="M738 1066 c-5 -23 -2 -25 34 -24 32 0 38 4 37 22 0 20 -1 20 -9 1 -7
-16 -9 -16 -9 -4 -1 15 -20 29 -41 29 -4 0 -10 -11 -12 -24z"/>
<path d="M850 1081 c-8 -6 -18 -7 -22 -5 -4 3 -8 -5 -8 -18 0 -19 2 -20 10 -8
8 12 12 12 18 2 5 -7 23 -11 41 -10 25 2 31 6 29 22 -4 27 -28 33 -28 7 0 -12
-4 -21 -9 -21 -6 0 -8 9 -6 20 4 22 -2 25 -25 11z"/>
<path d="M943 1083 c-21 -8 -16 -43 6 -43 14 0 18 6 15 23 -4 21 -4 21 6 2 9
-16 21 -21 59 -21 45 -1 47 1 43 23 -5 26 -6 27 -33 13 -14 -8 -19 -7 -19 2
-1 8 -6 7 -14 -5 -12 -15 -14 -16 -20 -2 -5 15 -20 18 -43 8z"/>
<path d="M1321 1034 c-2 -49 8 -69 24 -44 3 5 12 7 20 3 21 -8 65 24 65 46 0
27 -10 51 -22 51 -5 0 -7 -16 -4 -35 7 -39 -6 -45 -28 -14 -8 11 -23 27 -33
34 -19 13 -20 11 -22 -41z m39 1 c0 -8 -4 -17 -10 -20 -6 -4 -10 5 -10 20 0
15 4 24 10 20 6 -3 10 -12 10 -20z"/>
<path d="M1505 1079 c-4 -6 -5 -12 -2 -15 2 -3 7 2 10 11 7 17 1 20 -8 4z"/>
<path d="M341 1046 c-15 -18 0 -28 16 -10 7 7 9 15 4 18 -5 3 -14 -1 -20 -8z"/>
<path d="M1530 1019 c0 -11 5 -17 10 -14 6 3 10 13 10 21 0 8 -4 14 -10 14 -5
0 -10 -9 -10 -21z"/>
<path d="M618 1023 c7 -3 16 -2 19 1 4 3 -2 6 -13 5 -11 0 -14 -3 -6 -6z"/>
<path d="M1453 1015 c0 -8 4 -15 9 -15 4 0 8 7 8 15 0 8 -4 15 -8 15 -5 0 -9
-7 -9 -15z"/>
<path d="M297 991 c-17 -29 -53 -46 -63 -30 -7 12 -24 12 -24 0 0 -5 12 -12
27 -16 22 -5 24 -8 12 -16 -10 -7 -2 -9 29 -7 23 2 42 0 42 -4 0 -5 8 -8 17
-8 13 0 14 3 5 12 -7 7 -12 20 -12 30 0 10 -7 18 -15 18 -8 0 -15 5 -15 10 0
14 28 12 33 -2 2 -7 8 -10 12 -6 4 4 -2 16 -12 27 l-19 20 -17 -28z m-2 -51
c3 -5 -1 -10 -9 -10 -9 0 -16 5 -16 10 0 6 4 10 9 10 6 0 13 -4 16 -10z"/>
<path d="M1053 998 c-28 -37 -19 -118 13 -118 9 0 12 -5 9 -11 -5 -6 0 -6 12
1 22 14 29 80 7 80 -7 0 -12 -10 -11 -24 1 -14 -2 -25 -8 -25 -17 -1 -26 44
-15 75 11 27 13 28 24 12 17 -24 25 -23 19 2 -6 22 -35 27 -50 8z"/>
<path d="M1125 946 l0 -64 35 -5 c42 -5 44 -4 35 23 -6 20 -7 21 -21 3 -12
-16 -15 -16 -24 -3 -17 26 -12 42 11 35 16 -5 20 -3 17 6 -3 8 -12 13 -22 11
-10 -2 -16 4 -16 18 0 11 7 20 15 20 8 0 15 -4 15 -10 0 -5 7 -7 16 -3 21 8 4
23 -32 29 l-29 4 0 -64z"/>
<path d="M1225 999 c-4 -6 -5 -12 -2 -15 2 -3 7 2 10 11 7 17 1 20 -8 4z"/>
<path d="M638 992 c14 -9 7 -88 -9 -98 -15 -9 -10 -21 10 -27 16 -4 18 0 13
41 -7 60 13 48 22 -13 8 -49 22 -54 24 -8 0 15 5 39 11 53 9 22 10 19 10 -24
1 -40 4 -47 17 -42 9 4 23 1 32 -6 13 -11 15 -10 10 10 -4 12 -2 22 3 22 5 0
7 11 3 25 -4 15 -2 25 5 25 10 0 16 -25 13 -60 -1 -12 8 -16 31 -16 30 0 33 2
29 28 -5 35 14 37 22 3 4 -14 10 -25 15 -25 4 0 6 11 3 25 -2 14 -9 25 -16 25
-7 0 -6 4 2 9 8 4 12 19 10 32 -2 18 -10 25 -30 27 -28 3 -28 3 -28 -55 -1
-64 -13 -57 -25 15 -9 59 -29 53 -44 -13 -13 -58 -31 -74 -31 -27 0 15 -3 38
-7 51 -4 17 -3 22 5 17 7 -4 12 -2 12 3 0 6 -9 11 -20 11 -14 0 -21 -9 -26
-35 -9 -50 -21 -52 -29 -5 -5 32 -11 40 -28 40 -15 0 -18 -3 -9 -8z m242 -27
c0 -14 -4 -25 -10 -25 -5 0 -10 11 -10 25 0 14 5 25 10 25 6 0 10 -11 10 -25z"/>
<path d="M920 935 c0 -37 4 -65 10 -65 6 0 10 28 10 65 0 37 -4 65 -10 65 -6
0 -10 -28 -10 -65z"/>
<path d="M974 992 c3 -5 -1 -33 -9 -63 -18 -65 -17 -59 -5 -59 6 0 10 7 10 15
0 8 4 15 8 15 4 0 6 17 5 38 -3 28 -2 33 6 21 6 -9 12 -30 13 -48 2 -23 7 -31
21 -31 15 0 17 3 8 14 -6 7 -14 34 -17 60 -5 37 -11 46 -26 46 -11 0 -17 -4
-14 -8z"/>
<path d="M1510 986 c0 -7 5 -17 12 -24 16 -16 -4 -16 -21 1 -11 10 -13 9 -9
-3 2 -8 -4 -24 -14 -35 -19 -20 -19 -20 -31 0 -6 11 -12 24 -12 29 0 5 -9 10
-20 11 -11 2 -29 6 -39 10 -13 6 -17 5 -13 -2 4 -6 -2 -13 -13 -16 -11 -3 -18
-1 -14 4 3 5 -4 9 -15 9 -34 0 -24 -14 28 -39 50 -23 51 -25 42 -81 -1 -3 -6
2 -11 10 -6 10 -10 11 -10 3 0 -7 -9 -13 -20 -13 -21 0 -27 -15 -10 -25 6 -3
10 -1 10 4 0 17 19 13 48 -9 25 -20 25 -20 43 -1 10 11 26 24 34 29 16 9 11
42 -6 42 -6 0 -4 6 3 13 6 8 23 12 37 11 15 -2 18 -1 8 2 -9 3 -15 10 -11 15
3 5 10 7 15 4 12 -8 34 15 35 37 1 10 -8 18 -22 21 -14 2 -24 -1 -24 -7z m-92
-51 c53 -44 51 -102 -3 -102 -19 0 -23 3 -15 12 6 7 8 21 4 31 -4 15 -1 14 14
-5 13 -16 21 -20 26 -12 9 15 -29 68 -54 76 -11 4 -20 11 -20 16 0 16 17 10
48 -16z"/>
<path d="M1430 987 c0 -9 40 -35 44 -28 3 4 -6 13 -19 19 -14 7 -25 10 -25 9z"/>
<path d="M1570 970 c0 -5 7 -7 15 -4 8 4 15 8 15 10 0 2 -7 4 -15 4 -8 0 -15
-4 -15 -10z"/>
<path d="M362 945 c0 -16 2 -22 5 -12 2 9 2 23 0 30 -3 6 -5 -1 -5 -18z"/>
<path d="M341 944 c0 -11 3 -14 6 -6 3 7 2 16 -1 19 -3 4 -6 -2 -5 -13z"/>
<path d="M573 935 c-18 -20 -16 -35 5 -34 10 0 12 3 4 6 -6 2 -9 9 -6 14 4 6
11 6 19 -1 11 -9 12 -7 8 9 -6 24 -13 26 -30 6z"/>
<path d="M1578 943 c6 -2 12 -12 12 -20 0 -10 -6 -13 -16 -9 -9 3 -12 2 -9 -5
4 -6 13 -8 20 -5 10 3 13 -6 11 -34 -2 -22 1 -37 6 -34 11 7 10 71 -2 95 -6
10 -16 19 -23 18 -9 0 -9 -2 1 -6z"/>
<path d="M196 908 c11 -77 16 -98 24 -98 6 0 10 7 10 15 0 8 -4 15 -10 15 -5
0 -10 20 -10 45 0 25 -4 45 -9 45 -4 0 -7 -10 -5 -22z"/>
<path d="M1231 904 c0 -11 3 -14 6 -6 3 7 2 16 -1 19 -3 4 -6 -2 -5 -13z"/>
<path d="M1498 894 c-9 -8 3 -45 12 -39 5 3 16 -5 25 -17 13 -20 17 -21 25 -8
14 22 12 33 -5 26 -8 -3 -15 -3 -15 0 0 2 10 9 23 13 22 9 22 9 -6 20 -31 12
-51 14 -59 5z m32 -14 c0 -5 -2 -10 -4 -10 -3 0 -8 5 -11 10 -3 6 -1 10 4 10
6 0 11 -4 11 -10z"/>
<path d="M241 864 c0 -11 3 -14 6 -6 3 7 2 16 -1 19 -3 4 -6 -2 -5 -13z"/>
<path d="M1033 853 c-15 -3 -23 -12 -23 -24 0 -27 23 -23 37 6 6 14 10 24 10
24 -1 -1 -12 -4 -24 -6z"/>
<path d="M1094 852 c3 -5 2 -12 -4 -14 -12 -4 -1 -78 11 -78 11 0 10 18 0 45
-5 11 -4 25 1 32 6 7 5 14 -3 19 -7 4 -9 3 -5 -4z"/>
<path d="M784 835 c-3 -8 -3 -19 1 -24 8 -15 34 10 28 26 -7 17 -22 16 -29 -2z"/>
<path d="M830 831 c0 -16 9 -18 83 -19 76 -1 83 0 83 18 0 25 -33 27 -39 3 -4
-17 -5 -17 -6 0 -1 21 -31 23 -31 2 0 -8 -7 -15 -16 -15 -14 0 -14 3 -4 15 10
13 9 15 -8 15 -15 0 -20 -5 -16 -15 4 -8 1 -15 -5 -15 -6 0 -11 7 -11 15 0 8
-7 15 -15 15 -8 0 -15 -8 -15 -19z"/>
<path d="M693 819 c-1 -11 3 -17 9 -13 6 4 14 0 19 -7 6 -10 8 -5 8 16 0 17
-3 24 -6 17 -3 -9 -9 -10 -17 -3 -8 7 -12 4 -13 -10z"/>
<path d="M1162 820 c12 -19 28 -27 28 -14 0 7 -27 34 -34 34 -4 0 -1 -9 6 -20z"/>
<path d="M1120 814 c0 -8 5 -12 10 -9 6 4 8 11 5 16 -9 14 -15 11 -15 -7z"/>
<path d="M336 807 c3 -10 9 -15 12 -12 3 3 0 11 -7 18 -10 9 -11 8 -5 -6z"/>
<path d="M1450 797 c0 -16 6 -23 19 -23 13 0 18 7 17 23 -1 32 -36 32 -36 0z"/>
<path d="M1570 816 c0 -2 7 -9 15 -16 9 -7 15 -8 15 -2 0 5 -7 12 -15 16 -8 3
-15 4 -15 2z"/>
<path d="M227 774 c-2 -15 -1 -38 3 -53 5 -20 7 -14 7 27 1 58 -2 65 -10 26z"/>
<path d="M321 784 c0 -11 3 -14 6 -6 3 7 2 16 -1 19 -3 4 -6 -2 -5 -13z"/>
<path d="M754 783 c3 -4 20 -8 37 -9 40 -3 29 8 -13 13 -17 2 -28 0 -24 -4z"/>
<path d="M835 758 l-60 -31 70 -34 70 -34 64 34 63 34 -63 32 c-34 17 -67 31
-73 31 -6 -1 -38 -15 -71 -32z m126 -5 c21 -10 39 -21 39 -24 0 -10 -50 -33
-57 -25 -4 4 -2 10 5 15 9 5 8 12 -3 27 -15 18 -15 17 -13 -18 1 -20 -1 -40
-4 -44 -10 -9 -58 4 -58 17 0 6 5 7 10 4 12 -8 13 15 1 35 -22 33 20 40 80 13z
m-101 -18 c0 -19 -24 -30 -41 -19 -9 5 -7 11 6 21 24 17 35 17 35 -2z"/>
<path d="M896 752 c-7 -12 4 -52 15 -52 5 0 6 12 3 28 -8 33 -10 36 -18 24z"/>
<path d="M1003 783 c9 -2 23 -2 30 0 6 3 -1 5 -18 5 -16 0 -22 -2 -12 -5z"/>
<path d="M1161 774 c0 -11 3 -14 6 -6 3 7 2 16 -1 19 -3 4 -6 -2 -5 -13z"/>
<path d="M1426 724 c11 -60 24 -83 47 -84 5 0 5 5 2 10 -3 6 0 10 7 11 7 0 1
5 -14 11 -26 9 -28 14 -28 64 0 39 -4 54 -13 54 -12 0 -12 -11 -1 -66z"/>
<path d="M1504 769 c-3 -6 -1 -16 4 -21 8 -8 11 -5 9 11 -1 24 -3 25 -13 10z"/>
<path d="M686 735 c9 -29 22 -41 34 -29 15 15 0 53 -21 51 -14 -1 -17 -6 -13
-22z"/>
<path d="M746 747 c3 -10 9 -15 12 -12 3 3 0 11 -7 18 -10 9 -11 8 -5 -6z"/>
<path d="M332 710 c0 -19 2 -27 5 -17 2 9 2 25 0 35 -3 9 -5 1 -5 -18z"/>
<path d="M1470 725 c0 -8 -4 -15 -10 -15 -5 0 -10 -4 -10 -10 0 -5 11 -10 25
-10 14 0 25 5 25 10 0 6 -5 10 -11 10 -6 0 -9 7 -5 15 3 8 1 15 -4 15 -6 0
-10 -7 -10 -15z"/>
<path d="M764 685 c23 -18 36 -19 36 -4 0 5 -4 8 -9 4 -5 -3 -12 -1 -16 5 -3
5 -12 10 -18 10 -7 0 -3 -7 7 -15z"/>
<path d="M810 679 c0 -5 5 -7 10 -4 6 3 10 8 10 11 0 2 -4 4 -10 4 -5 0 -10
-5 -10 -11z"/>
<path d="M1032 670 c3 -9 22 -17 51 -20 39 -5 45 -3 44 12 -1 12 -5 14 -11 8
-14 -14 -59 -12 -75 3 -11 10 -13 9 -9 -3z"/>
<path d="M1510 671 c0 -5 -3 -18 -6 -28 -5 -15 -4 -15 5 -3 8 11 11 11 11 2 0
-7 -10 -16 -22 -21 -18 -6 -19 -9 -5 -14 10 -4 17 -2 17 4 0 6 5 7 10 4 6 -4
10 8 10 29 0 20 -4 36 -10 36 -5 0 -10 -4 -10 -9z"/>
<path d="M1547 648 c-4 -12 -4 -24 -2 -27 3 -2 5 1 5 8 0 7 5 9 10 6 6 -3 10
1 10 9 0 25 -17 27 -23 4z"/>
<path d="M860 591 c-26 -25 -29 -34 -26 -80 2 -28 0 -54 -5 -57 -18 -11 -8
-36 29 -72 41 -41 69 -51 78 -28 3 9 10 13 15 10 5 -3 9 -2 8 3 -2 4 4 20 11
35 11 24 11 30 -4 47 -15 17 -15 19 0 31 22 19 10 77 -24 113 -33 34 -47 34
-82 -2z m44 -2 c-33 -13 -50 -9 -24 5 14 8 29 12 34 8 5 -3 1 -9 -10 -13z m36
-24 c10 -12 9 -15 -6 -16 -39 -3 -44 -4 -41 -14 1 -5 10 -9 20 -8 25 4 21 -14
-5 -21 -19 -5 -21 -8 -8 -16 19 -13 33 -13 25 0 -3 6 -2 10 4 10 5 0 12 8 14
18 4 14 5 13 6 -4 2 -33 -22 -58 -48 -49 -44 14 -51 82 -10 102 31 16 34 16
49 -2z m-10 -120 c10 3 21 1 25 -5 7 -11 -4 -13 -45 -11 -23 2 -22 0 8 -15 18
-9 30 -19 28 -22 -3 -3 -12 1 -21 8 -9 7 -18 10 -22 7 -7 -8 -43 37 -43 53 0
8 8 7 25 -4 14 -10 34 -14 45 -11z m-16 -70 c-4 -8 -8 -15 -10 -15 -2 0 -4 7
-4 15 0 8 4 15 10 15 5 0 7 -7 4 -15z"/>
<path d="M1200 575 c0 -15 4 -24 10 -20 6 3 10 12 10 20 0 8 -4 17 -10 20 -6
4 -10 -5 -10 -20z"/>
<path d="M1480 588 c0 -10 2 -18 4 -18 2 0 11 -3 19 -6 9 -3 16 3 20 16 5 18
3 19 -10 9 -12 -10 -16 -10 -24 2 -7 11 -9 11 -9 -3z"/>
<path d="M1501 524 c0 -11 3 -14 6 -6 3 7 2 16 -1 19 -3 4 -6 -2 -5 -13z"/>
<path d="M1040 485 c0 -10 10 -15 29 -15 35 0 49 15 21 23 -10 3 -21 0 -24 -7
-3 -7 -5 -7 -5 2 -1 17 -21 15 -21 -3z"/>
<path d="M1476 487 c3 -10 9 -15 12 -12 3 3 0 11 -7 18 -10 9 -11 8 -5 -6z"/>
<path d="M792 465 c0 -16 2 -22 5 -12 2 9 2 23 0 30 -3 6 -5 -1 -5 -18z"/>
<path d="M1103 455 c-5 -9 -27 -16 -53 -18 -24 -2 -45 -8 -47 -14 -6 -16 16
-26 30 -15 7 6 54 9 111 6 61 -2 105 1 112 7 7 6 18 8 23 5 5 -4 12 -2 15 3 3
5 -7 11 -22 14 -15 3 -30 1 -33 -5 -4 -7 -29 -7 -70 -2 -35 4 -56 9 -46 12 9
2 17 8 17 13 0 15 -28 10 -37 -6z"/>
<path d="M365 440 c3 -5 11 -10 16 -10 6 0 7 5 4 10 -3 6 -11 10 -16 10 -6 0
-7 -4 -4 -10z"/>
<path d="M694 431 c-17 -4 -36 -11 -42 -14 -5 -4 -12 -1 -15 5 -2 7 -8 10 -12
6 -4 -4 -2 -15 5 -23 11 -13 15 -13 22 -3 6 10 10 10 19 -2 9 -13 10 -13 6 2
-5 14 2 16 54 11 38 -3 59 -1 59 6 0 6 -9 11 -19 11 -11 0 -25 2 -33 4 -7 2
-27 1 -44 -3z"/>
<path d="M801 418 c-1 -19 54 -78 72 -78 7 0 0 8 -14 17 -15 9 -34 30 -42 47
-10 19 -16 24 -16 14z"/>
<path d="M1350 379 c-7 -13 -5 -18 11 -22 16 -4 18 -3 8 9 -9 11 -8 14 5 14 9
0 16 4 16 8 0 16 -31 9 -40 -9z"/>
<path d="M1163 378 c-2 -5 7 -8 21 -8 13 0 31 -2 39 -5 7 -3 14 0 14 8 0 14
-65 18 -74 5z"/>
<path d="M1273 374 c-14 -15 -3 -27 14 -16 7 4 9 13 5 19 -5 8 -11 7 -19 -3z"/>
<path d="M660 370 c0 -5 5 -10 11 -10 5 0 7 5 4 10 -3 6 -8 10 -11 10 -2 0 -4
-4 -4 -10z"/>
<path d="M730 364 c0 -8 5 -12 10 -9 6 3 10 10 10 16 0 5 -4 9 -10 9 -5 0 -10
-7 -10 -16z"/>
<path d="M770 360 c0 -11 2 -20 4 -20 2 0 6 9 9 20 3 11 1 20 -4 20 -5 0 -9
-9 -9 -20z"/>
<path d="M1123 365 c0 -8 4 -12 9 -9 5 3 6 10 3 15 -9 13 -12 11 -12 -6z"/>
<path d="M1025 361 c18 -8 16 -10 -10 -10 -21 -1 -26 -4 -16 -10 17 -11 53 -2
48 13 -2 6 -12 12 -23 13 -18 3 -18 2 1 -6z"/>
<path d="M1317 358 c4 -7 8 -16 9 -20 1 -5 2 -11 3 -15 1 -5 5 -2 10 6 6 9 4
19 -4 28 -17 16 -29 17 -18 1z"/>
<path d="M440 356 c0 -9 40 -13 46 -5 3 5 -6 9 -20 9 -14 0 -26 -2 -26 -4z"/>
<path d="M538 344 c22 -17 29 -17 35 -1 3 8 -6 12 -24 13 -26 1 -27 0 -11 -12z"/>
<path d="M690 350 c0 -5 5 -10 10 -10 6 0 10 5 10 10 0 6 -4 10 -10 10 -5 0
-10 -4 -10 -10z"/>
<path d="M790 350 c0 -5 5 -10 11 -10 5 0 7 5 4 10 -3 6 -8 10 -11 10 -2 0 -4
-4 -4 -10z"/>
<path d="M1145 340 c-22 -11 -50 -20 -62 -20 -16 0 -23 -6 -23 -20 0 -12 7
-20 18 -20 13 0 14 2 3 9 -8 5 -9 11 -3 15 6 3 12 0 15 -6 3 -10 7 -10 20 1
10 7 17 10 17 6 0 -4 6 -3 13 3 6 6 16 10 22 10 5 0 12 10 17 21 9 25 11 25
-37 1z"/>
<path d="M1204 349 c-3 -5 6 -9 20 -9 31 0 34 6 6 13 -11 3 -23 1 -26 -4z"/>
<path d="M610 340 c0 -5 5 -10 10 -10 6 0 10 5 10 10 0 6 -4 10 -10 10 -5 0
-10 -4 -10 -10z"/>
<path d="M1068 343 c7 -3 16 -2 19 1 4 3 -2 6 -13 5 -11 0 -14 -3 -6 -6z"/>
<path d="M1282 341 c-11 -7 -10 -9 3 -14 9 -4 14 -3 10 2 -3 5 1 12 7 14 7 3
9 6 3 6 -5 0 -16 -3 -23 -8z"/>
<path d="M634 329 c-3 -6 -2 -15 4 -21 6 -6 11 -2 15 11 5 22 -7 29 -19 10z"/>
<path d="M970 330 c0 -5 5 -10 11 -10 5 0 7 5 4 10 -3 6 -8 10 -11 10 -2 0 -4
-4 -4 -10z"/>
<path d="M503 317 c15 -6 27 -18 28 -26 0 -11 2 -12 6 -3 7 19 -16 42 -41 41
-18 -1 -17 -3 7 -12z"/>
<path d="M667 323 c-12 -11 -8 -23 8 -23 8 0 15 7 15 15 0 16 -12 20 -23 8z"/>
<path d="M788 323 c7 -3 16 -2 19 1 4 3 -2 6 -13 5 -11 0 -14 -3 -6 -6z"/>
<path d="M1210 316 c0 -9 5 -16 10 -16 6 0 10 4 10 9 0 6 -4 13 -10 16 -5 3
-10 -1 -10 -9z"/>
<path d="M1250 322 c0 -7 7 -20 15 -28 9 -9 15 -11 15 -4 0 6 5 8 12 4 7 -4 8
-3 4 5 -4 6 -11 9 -16 6 -5 -3 -13 3 -19 12 -6 11 -11 13 -11 5z"/>
<path d="M696 304 c-8 -22 -8 -24 7 -21 16 3 27 19 21 29 -8 13 -21 9 -28 -8z"/>
<path d="M873 298 c-2 -26 -12 -36 -22 -20 -10 17 -101 33 -101 18 0 -6 -9
-19 -20 -29 -11 -9 -20 -12 -20 -7 0 6 -7 10 -15 10 -34 0 -12 -26 30 -36 41
-10 45 -9 45 9 0 17 -2 18 -16 6 -14 -12 -16 -11 -13 6 4 21 38 28 52 10 4 -6
11 -4 17 5 9 13 10 13 10 0 0 -13 1 -13 10 0 5 8 10 10 10 4 0 -7 11 -14 24
-16 21 -4 23 -1 21 24 -3 35 -10 45 -12 16z"/>
<path d="M560 301 c0 -5 5 -13 10 -16 6 -3 10 -2 10 4 0 5 -4 13 -10 16 -5 3
-10 2 -10 -4z"/>
<path d="M607 296 c-9 -23 -2 -33 28 -38 19 -4 25 -1 25 13 0 21 -16 26 -23 7
-3 -8 -9 -3 -14 11 -8 21 -11 22 -16 7z"/>
<path d="M1016 302 c-3 -6 -15 -8 -26 -5 -13 3 -22 -1 -26 -12 -5 -13 -9 -14
-15 -3 -7 10 -9 9 -9 -5 0 -15 5 -17 33 -12 17 4 40 6 50 6 19 0 21 7 8 28 -5
8 -11 9 -15 3z"/>
<path d="M1152 295 c-17 -8 -32 -20 -32 -27 0 -9 -3 -9 -10 2 -8 13 -10 13
-10 -2 0 -9 5 -20 10 -23 6 -3 10 -1 10 5 0 7 7 10 15 6 8 -3 15 -1 15 3 0 5
11 13 25 18 15 5 22 12 17 20 -5 8 -15 8 -40 -2z"/>
<path d="M904 258 c3 -18 5 -37 5 -42 2 -22 15 8 17 39 2 25 -1 35 -11 35 -11
0 -14 -9 -11 -32z"/>
<path d="M1056 261 c-3 -5 -15 -7 -26 -4 -11 3 -20 0 -20 -6 0 -5 -7 -8 -15
-5 -9 4 -15 0 -15 -10 0 -17 11 -19 58 -10 21 4 29 11 25 20 -3 8 0 14 5 14 6
0 13 -8 15 -17 4 -14 5 -12 6 5 1 22 -22 31 -33 13z"/>
<path d="M780 237 c0 -8 6 -14 13 -15 38 -5 53 -9 63 -15 13 -8 24 1 24 19 0
15 -46 24 -58 12 -6 -6 -12 -6 -16 1 -10 15 -26 14 -26 -2z"/>
<path d="M940 231 c0 -14 5 -19 15 -14 17 6 15 25 -3 31 -7 2 -12 -5 -12 -17z"/>
<path d="M1146 231 c-4 -5 3 -7 14 -4 23 6 26 13 6 13 -8 0 -17 -4 -20 -9z"/>
<path d="M1076 212 c-2 -4 4 -8 14 -8 10 0 16 4 14 8 -3 4 -9 8 -14 8 -5 0
-11 -4 -14 -8z"/>
<path d="M1025 200 c-16 -7 -17 -9 -3 -9 9 -1 20 4 23 9 7 11 7 11 -20 0z"/>
<path d="M1256 1576 c10 -8 21 -12 24 -10 5 6 -21 24 -34 24 -6 0 -1 -6 10
-14z"/>
<path d="M425 1550 c3 -5 8 -10 11 -10 2 0 4 5 4 10 0 6 -5 10 -11 10 -5 0 -7
-4 -4 -10z"/>
<path d="M430 1509 c0 -5 5 -7 10 -4 6 3 10 8 10 11 0 2 -4 4 -10 4 -5 0 -10
-5 -10 -11z"/>
<path d="M350 1469 c0 -5 5 -7 10 -4 6 3 10 8 10 11 0 2 -4 4 -10 4 -5 0 -10
-5 -10 -11z"/>
<path d="M1420 1461 c0 -5 7 -12 16 -15 14 -5 15 -4 4 9 -14 17 -20 19 -20 6z"/>
<path d="M355 1440 c-10 -11 -16 -22 -13 -25 3 -3 13 6 22 20 20 30 16 32 -9
5z"/>
<path d="M1480 1450 c0 -5 5 -10 10 -10 6 0 10 5 10 10 0 6 -4 10 -10 10 -5 0
-10 -4 -10 -10z"/>
<path d="M1491 1398 c9 -8 19 -22 22 -33 4 -18 5 -18 6 2 1 14 -7 26 -21 33
-20 10 -21 9 -7 -2z"/>
<path d="M240 1370 c0 -5 5 -10 11 -10 5 0 7 5 4 10 -3 6 -8 10 -11 10 -2 0
-4 -4 -4 -10z"/>
<path d="M280 1359 c0 -5 5 -7 10 -4 6 3 10 8 10 11 0 2 -4 4 -10 4 -5 0 -10
-5 -10 -11z"/>
<path d="M161 1254 c0 -11 3 -14 6 -6 3 7 2 16 -1 19 -3 4 -6 -2 -5 -13z"/>
<path d="M203 1225 c-3 -9 -3 -18 -1 -21 3 -3 8 4 11 16 6 23 -1 27 -10 5z"/>
<path d="M175 1160 c3 -5 8 -10 11 -10 2 0 4 5 4 10 0 6 -5 10 -11 10 -5 0 -7
-4 -4 -10z"/>
<path d="M1641 1110 c0 -8 6 -37 13 -65 8 -27 15 -43 15 -35 0 8 -6 38 -13 65
-8 28 -15 43 -15 35z"/>
<path d="M161 1094 c0 -11 3 -14 6 -6 3 7 2 16 -1 19 -3 4 -6 -2 -5 -13z"/>
<path d="M133 920 c0 -47 2 -66 4 -42 2 23 2 61 0 85 -2 23 -4 4 -4 -43z"/>
<path d="M1673 895 c0 -44 2 -61 4 -37 2 23 2 59 0 80 -2 20 -4 1 -4 -43z"/>
<path d="M86 928 c-3 -13 -5 -39 -5 -58 1 -27 3 -22 9 20 9 58 7 77 -4 38z"/>
<path d="M1662 770 c0 -14 2 -19 5 -12 2 6 2 18 0 25 -3 6 -5 1 -5 -13z"/>
<path d="M1651 724 c0 -11 3 -14 6 -6 3 7 2 16 -1 19 -3 4 -6 -2 -5 -13z"/>
<path d="M100 696 c0 -9 5 -16 10 -16 6 0 10 4 10 9 0 6 -4 13 -10 16 -5 3
-10 -1 -10 -9z"/>
<path d="M1615 619 c-4 -6 -5 -12 -2 -15 2 -3 7 2 10 11 7 17 1 20 -8 4z"/>
<path d="M220 540 c6 -11 13 -20 16 -20 2 0 0 9 -6 20 -6 11 -13 20 -16 20 -2
0 0 -9 6 -20z"/>
<path d="M1647 540 c-3 -11 -1 -20 4 -20 5 0 9 9 9 20 0 11 -2 20 -4 20 -2 0
-6 -9 -9 -20z"/>
<path d="M255 470 c9 -16 17 -30 19 -30 3 0 -1 14 -7 30 -6 17 -15 30 -19 30
-5 0 -2 -13 7 -30z"/>
<path d="M1581 464 c0 -11 3 -14 6 -6 3 7 2 16 -1 19 -3 4 -6 -2 -5 -13z"/>
<path d="M1500 410 c-6 -11 -8 -20 -6 -20 3 0 10 9 16 20 6 11 8 20 6 20 -3 0
-10 -9 -16 -20z"/>
<path d="M330 376 c0 -2 8 -10 18 -17 15 -13 16 -12 3 4 -13 16 -21 21 -21 13z"/>
<path d="M340 320 c0 -5 5 -10 11 -10 5 0 7 5 4 10 -3 6 -8 10 -11 10 -2 0 -4
-4 -4 -10z"/>
<path d="M1500 320 c0 -5 5 -10 10 -10 6 0 10 5 10 10 0 6 -4 10 -10 10 -5 0
-10 -4 -10 -10z"/>
<path d="M1384 298 l-19 -23 23 19 c12 11 22 21 22 23 0 8 -8 2 -26 -19z"/>
<path d="M326 295 c4 -8 11 -15 16 -15 6 0 5 6 -2 15 -7 8 -14 15 -16 15 -2 0
-1 -7 2 -15z"/>
<path d="M1477 303 c-4 -3 -7 -11 -7 -17 0 -6 5 -5 12 2 6 6 9 14 7 17 -3 3
-9 2 -12 -2z"/>
<path d="M552 206 c7 -8 15 -12 17 -11 5 6 -10 25 -20 25 -5 0 -4 -6 3 -14z"/>
<path d="M458 203 c7 -3 16 -2 19 1 4 3 -2 6 -13 5 -11 0 -14 -3 -6 -6z"/>
<path d="M1180 180 c-9 -6 -10 -10 -3 -10 6 0 15 5 18 10 8 12 4 12 -15 0z"/>
<path d="M648 163 c7 -3 16 -2 19 1 4 3 -2 6 -13 5 -11 0 -14 -3 -6 -6z"/>
<path d="M688 153 c7 -3 16 -2 19 1 4 3 -2 6 -13 5 -11 0 -14 -3 -6 -6z"/>
<path d="M1245 150 c-18 -8 -17 -9 8 -9 15 -1 27 4 27 9 0 12 -8 12 -35 0z"/>
<path d="M735 140 c11 -5 27 -9 35 -9 9 0 8 4 -5 9 -11 5 -27 9 -35 9 -9 0 -8
-4 5 -9z"/>
<path d="M1068 143 c7 -3 16 -2 19 1 4 3 -2 6 -13 5 -11 0 -14 -3 -6 -6z"/>
<path d="M1018 133 c7 -3 16 -2 19 1 4 3 -2 6 -13 5 -11 0 -14 -3 -6 -6z"/>
<path d="M883 123 c20 -2 54 -2 75 0 20 2 3 4 -38 4 -41 0 -58 -2 -37 -4z"/>
<path d="M1148 123 c6 -2 18 -2 25 0 6 3 1 5 -13 5 -14 0 -19 -2 -12 -5z"/>
</g>
</svg>
