<?xml version="1.0" standalone="no"?>
<!DOCTYPE svg PUBLIC "-//W3C//DTD SVG 20010904//EN"
 "http://www.w3.org/TR/2001/REC-SVG-20010904/DTD/svg10.dtd">
<svg version="1.0" xmlns="http://www.w3.org/2000/svg"
 width="256.000000pt" height="256.000000pt" viewBox="0 0 256.000000 256.000000"
 preserveAspectRatio="xMidYMid meet">
<metadata>
Created by potrace 1.16, written by Peter Selinger 2001-2019
</metadata>
<g transform="translate(0.000000,256.000000) scale(0.100000,-0.100000)"
fill="#000000" stroke="none">
<path d="M413 1903 c9 -2 23 -2 30 0 6 3 -1 5 -18 5 -16 0 -22 -2 -12 -5z"/>
<path d="M475 1900 c-8 -12 331 -12 360 0 12 5 -53 9 -167 9 -115 1 -189 -3
-193 -9z"/>
<path d="M1120 1897 c-99 -28 -229 -117 -245 -167 -13 -42 -24 -16 -22 55 l2
76 -215 0 -215 0 -116 -574 c-63 -315 -118 -581 -122 -590 -6 -16 14 -17 238
-17 243 0 245 0 245 21 0 36 110 589 132 667 16 55 32 85 63 120 39 43 45 46
103 50 102 7 149 -42 139 -147 -5 -52 -131 -663 -143 -696 -5 -13 24 -15 238
-15 l243 0 69 348 c68 346 87 416 129 460 70 75 183 73 234 -4 25 -39 20 -98
-26 -314 -23 -107 -55 -257 -71 -332 -16 -76 -32 -142 -35 -148 -4 -7 77 -10
237 -10 l244 0 31 153 c18 83 51 240 73 347 76 360 80 401 42 494 -39 94 -116
170 -212 208 -74 30 -238 32 -319 5 -71 -24 -152 -77 -213 -138 -27 -27 -50
-49 -52 -49 -2 0 -6 13 -9 28 -9 43 -81 118 -143 148 -48 23 -71 28 -158 31
-62 2 -118 -2 -146 -10z m247 -33 c21 -9 43 -17 48 -18 25 -4 85 -63 90 -87 4
-15 13 -30 21 -33 8 -3 14 -18 14 -35 0 -36 16 -49 23 -20 5 20 7 20 22 5 18
-18 30 -21 20 -6 -3 5 13 18 36 28 24 11 37 22 30 26 -16 10 -14 29 3 23 10
-4 13 -1 10 7 -4 9 7 16 30 20 28 5 36 12 36 28 0 14 5 18 15 14 8 -3 15 -2
15 3 0 9 71 43 103 49 100 18 255 8 250 -16 -2 -6 3 -9 11 -6 14 5 92 -31 102
-47 3 -5 -3 -9 -12 -9 -23 0 -13 -9 16 -15 12 -2 33 -17 47 -32 24 -25 24 -27
7 -34 -18 -7 -17 -8 2 -8 25 -1 61 -78 44 -95 -6 -6 -10 -17 -10 -25 0 -14 2
-14 10 -1 16 26 19 6 10 -80 -13 -118 -44 -263 -54 -253 -5 4 -7 1 -4 -8 6
-14 -14 -125 -41 -231 -5 -21 -7 -38 -4 -38 3 0 1 -6 -5 -13 -6 -7 -13 -37
-16 -65 -3 -29 -8 -57 -11 -62 -3 -5 -8 -23 -10 -40 -2 -17 -7 -45 -10 -61
l-7 -29 -209 0 c-196 0 -210 1 -205 18 3 9 8 32 11 51 3 19 10 41 15 50 4 9
11 37 13 61 8 67 15 94 28 99 8 2 8 6 1 10 -13 8 10 114 30 138 9 12 9 15 1 9
-10 -5 -11 1 -6 26 3 18 10 35 15 36 4 2 8 21 8 41 0 21 6 59 14 85 8 26 12
68 10 94 -3 26 -6 57 -7 69 -1 12 -4 19 -6 17 -7 -7 -61 49 -61 63 0 7 -5 13
-11 13 -5 0 -7 -5 -3 -11 4 -8 -1 -9 -17 -3 -56 18 -159 -4 -172 -38 -3 -8 -9
-3 -15 12 l-11 25 0 -27 c-1 -18 -6 -28 -16 -28 -9 0 -12 -6 -8 -15 3 -9 -1
-23 -9 -33 -22 -27 -52 -132 -63 -222 -2 -14 -8 -50 -15 -80 -6 -30 -13 -64
-14 -75 -6 -39 -57 -291 -68 -337 l-12 -48 -209 0 -209 0 7 28 c4 15 9 45 11
67 3 22 7 47 11 55 3 8 7 24 9 35 4 32 42 197 54 235 6 19 13 57 15 84 3 28 8
52 12 55 5 3 9 17 10 31 1 14 5 55 9 92 5 53 3 75 -12 112 -11 26 -26 46 -34
46 -12 0 -13 2 -1 9 14 9 -43 21 -110 22 -42 1 -124 -19 -115 -28 3 -3 1 -12
-5 -20 -10 -11 -14 -10 -25 4 -12 16 -13 15 -14 -13 0 -16 -7 -39 -15 -50 -14
-18 -14 -18 -15 6 -1 23 -2 23 -9 5 -9 -22 -3 -48 9 -40 5 3 3 -8 -3 -24 -6
-17 -15 -27 -20 -24 -4 3 -7 -1 -6 -8 3 -14 -8 -94 -18 -136 -3 -13 -13 -23
-22 -23 -11 0 -12 -3 -4 -8 7 -4 10 -21 7 -37 -2 -17 -7 -54 -10 -82 -4 -29
-11 -50 -15 -47 -9 5 -14 -16 -11 -46 3 -26 -40 -254 -50 -267 -5 -7 -7 -17
-3 -23 4 -7 -61 -10 -205 -10 -198 0 -212 1 -205 17 4 10 10 41 15 68 23 130
43 221 51 231 5 6 7 19 3 28 -3 9 -2 16 2 16 5 0 9 19 10 43 1 42 37 220 54
267 6 14 12 51 15 83 5 60 14 105 24 122 3 6 6 19 7 30 1 25 22 125 37 183
l11 42 188 0 188 0 0 -70 0 -70 30 0 c23 0 33 7 45 30 9 17 22 30 30 30 8 0
15 5 15 11 0 12 17 29 48 47 13 7 22 8 22 2 0 -5 4 -10 9 -10 5 0 8 7 7 16 -2
23 21 29 27 7 4 -14 5 -13 6 5 0 12 7 22 15 22 7 0 26 6 40 14 40 20 196 21
243 0z"/>
<path d="M1978 1853 c6 -2 18 -2 25 0 6 3 1 5 -13 5 -14 0 -19 -2 -12 -5z"/>
<path d="M481 1804 c0 -11 3 -14 6 -6 3 7 2 16 -1 19 -3 4 -6 -2 -5 -13z"/>
<path d="M1455 1780 c-19 -8 -19 -9 3 -9 12 -1 22 4 22 9 0 6 -1 10 -2 9 -2 0
-12 -4 -23 -9z"/>
<path d="M850 1569 c0 -5 5 -7 10 -4 6 3 10 8 10 11 0 2 -4 4 -10 4 -5 0 -10
-5 -10 -11z"/>
<path d="M1645 1570 c3 -5 8 -10 11 -10 2 0 4 5 4 10 0 6 -5 10 -11 10 -5 0
-7 -4 -4 -10z"/>
<path d="M1125 1550 c2 -27 15 -38 15 -12 0 11 -4 23 -8 26 -5 3 -8 -4 -7 -14z"/>
<path d="M1880 1540 c0 -5 5 -10 11 -10 5 0 7 5 4 10 -3 6 -8 10 -11 10 -2 0
-4 -4 -4 -10z"/>
<path d="M788 1503 c7 -3 16 -2 19 1 4 3 -2 6 -13 5 -11 0 -14 -3 -6 -6z"/>
<path d="M1482 1175 c0 -16 2 -22 5 -12 2 9 2 23 0 30 -3 6 -5 -1 -5 -18z"/>
<path d="M1131 1154 c0 -11 3 -14 6 -6 3 7 2 16 -1 19 -3 4 -6 -2 -5 -13z"/>
<path d="M682 1100 c0 -14 2 -19 5 -12 2 6 2 18 0 25 -3 6 -5 1 -5 -13z"/>
<path d="M906 1857 c3 -10 9 -15 12 -12 3 3 0 11 -7 18 -10 9 -11 8 -5 -6z"/>
<path d="M1528 1853 c6 -2 18 -2 25 0 6 3 1 5 -13 5 -14 0 -19 -2 -12 -5z"/>
<path d="M2320 1829 c0 -5 5 -7 10 -4 6 3 10 8 10 11 0 2 -4 4 -10 4 -5 0 -10
-5 -10 -11z"/>
<path d="M331 1654 c0 -11 3 -14 6 -6 3 7 2 16 -1 19 -3 4 -6 -2 -5 -13z"/>
<path d="M893 1455 c-3 -9 -3 -18 -1 -21 3 -3 8 4 11 16 6 23 -1 27 -10 5z"/>
<path d="M860 1429 c0 -5 5 -7 10 -4 6 3 10 8 10 11 0 2 -4 4 -10 4 -5 0 -10
-5 -10 -11z"/>
<path d="M265 1310 c-3 -5 -1 -10 4 -10 6 0 11 5 11 10 0 6 -2 10 -4 10 -3 0
-8 -4 -11 -10z"/>
<path d="M1542 985 c0 -16 2 -22 5 -12 2 9 2 23 0 30 -3 6 -5 -1 -5 -18z"/>
<path d="M191 914 c0 -11 3 -14 6 -6 3 7 2 16 -1 19 -3 4 -6 -2 -5 -13z"/>
<path d="M2380 836 c0 -9 5 -16 10 -16 6 0 10 4 10 9 0 6 -4 13 -10 16 -5 3
-10 -1 -10 -9z"/>
<path d="M2367 783 c3 -7 6 -13 8 -13 2 0 5 6 8 13 3 8 -1 14 -8 14 -7 0 -11
-6 -8 -14z"/>
<path d="M1700 770 c0 -5 5 -10 11 -10 5 0 7 5 4 10 -3 6 -8 10 -11 10 -2 0
-4 -4 -4 -10z"/>
<path d="M910 695 c0 -8 7 -15 16 -15 14 0 14 3 4 15 -7 8 -14 15 -16 15 -2 0
-4 -7 -4 -15z"/>
</g>
</svg>
