<?xml version="1.0" standalone="no"?>
<!DOCTYPE svg PUBLIC "-//W3C//DTD SVG 20010904//EN"
 "http://www.w3.org/TR/2001/REC-SVG-20010904/DTD/svg10.dtd">
<svg version="1.0" xmlns="http://www.w3.org/2000/svg"
 width="192.000000pt" height="192.000000pt" viewBox="0 0 192.000000 192.000000"
 preserveAspectRatio="xMidYMid meet">
<metadata>
Created by potrace 1.16, written by Peter Selinger 2001-2019
</metadata>
<g transform="translate(0.000000,192.000000) scale(0.100000,-0.100000)"
fill="#000000" stroke="none">
<path d="M435 1818 c-3 -13 -77 -410 -166 -883 -88 -473 -161 -864 -162 -868
-2 -7 223 -11 229 -4 1 1 48 256 104 567 56 311 103 566 104 567 0 0 91 -262
201 -583 l199 -584 31 0 30 0 195 586 c107 323 196 578 198 568 2 -11 49 -268
105 -572 l103 -553 117 -2 c75 -1 116 2 114 8 -2 6 -84 407 -183 893 l-179
882 -57 0 c-38 0 -58 -4 -58 -12 0 -9 -329 -1109 -378 -1266 -8 -25 -11 -17
-302 876 l-132 402 -54 0 c-47 0 -54 -3 -59 -22z m184 -280 c49 -150 144 -441
211 -645 116 -355 123 -373 146 -373 13 0 24 2 24 4 0 2 22 77 49 167 27 90
93 308 145 484 53 176 100 331 105 345 5 14 26 85 47 158 l39 133 35 -3 35 -3
16 -80 c9 -44 46 -224 82 -400 36 -176 93 -457 127 -625 34 -168 77 -376 94
-463 l32 -158 -90 3 -90 3 -13 75 c-22 126 -73 402 -83 450 -5 25 -16 83 -24
130 -9 47 -31 170 -51 273 -19 104 -35 191 -35 194 0 2 -12 3 -27 1 -26 -3
-31 -18 -217 -575 -107 -323 -196 -573 -203 -573 -6 0 -45 100 -86 223 -41
122 -125 368 -187 547 -62 179 -115 336 -119 350 -9 31 -56 41 -65 13 -2 -10
-21 -110 -41 -223 -20 -113 -43 -241 -51 -285 -29 -152 -75 -410 -92 -507
l-16 -98 -88 0 c-68 0 -88 3 -88 14 0 8 11 72 25 142 14 71 59 311 100 534 41
223 82 439 90 480 9 41 26 136 40 210 13 74 33 180 44 235 12 55 21 103 21
108 0 4 15 7 34 7 l35 0 90 -272z"/>
</g>
</svg>
