<?xml version="1.0" standalone="no"?>
<!DOCTYPE svg PUBLIC "-//W3C//DTD SVG 20010904//EN"
 "http://www.w3.org/TR/2001/REC-SVG-20010904/DTD/svg10.dtd">
<svg version="1.0" xmlns="http://www.w3.org/2000/svg"
 width="100.000000pt" height="100.000000pt" viewBox="0 0 100.000000 100.000000"
 preserveAspectRatio="xMidYMid meet">
<metadata>
Created by potrace 1.16, written by Peter Selinger 2001-2019
</metadata>
<g transform="translate(0.000000,100.000000) scale(0.100000,-0.100000)"
fill="#000000" stroke="none">
<path d="M32 965 c-28 -30 -43 -65 -27 -65 7 0 95 88 95 95 0 16 -40 -1 -68
-30z"/>
<path d="M900 995 c0 -3 20 -26 45 -50 24 -25 47 -45 50 -45 16 0 0 35 -30 65
-30 30 -65 46 -65 30z"/>
<path d="M463 783 c15 -2 39 -2 55 0 15 2 2 4 -28 4 -30 0 -43 -2 -27 -4z"/>
<path d="M340 760 c11 -7 3 -10 -30 -10 -33 0 -41 -3 -30 -10 11 -7 6 -10 -20
-10 -26 0 -31 -3 -20 -10 13 -8 12 -10 -3 -10 -22 0 -67 -43 -67 -65 0 -8 -4
-15 -10 -15 -5 0 -10 -25 -10 -55 0 -30 5 -55 10 -55 6 0 10 -7 10 -16 0 -26
28 -47 55 -40 15 4 25 2 25 -4 0 -6 -4 -9 -8 -6 -4 2 -14 1 -22 -5 -10 -6 0
-9 35 -10 37 0 45 -3 30 -9 -19 -8 -19 -9 3 -9 14 -1 22 5 22 15 0 8 6 22 14
30 16 16 76 19 76 4 0 -5 9 -10 20 -10 11 0 20 -4 20 -10 0 -5 9 -10 20 -10
11 0 20 -4 20 -10 0 -5 10 -10 23 -10 18 0 19 2 7 10 -12 8 -11 10 8 10 12 0
22 5 22 10 0 6 9 10 20 10 11 0 20 5 20 10 0 15 60 12 76 -4 8 -8 14 -22 14
-30 0 -10 8 -16 23 -15 21 0 21 1 2 9 -15 7 -10 9 23 9 57 1 98 38 86 79 -6
23 -8 24 -12 8 -5 -24 -26 -46 -43 -46 -8 0 -9 -3 0 -13 8 -10 7 -14 -4 -14
-8 0 -15 6 -15 14 0 8 -13 14 -32 14 -24 1 -27 3 -10 6 29 6 28 18 -5 51 -19
19 -25 22 -20 9 4 -10 7 -22 7 -27 0 -5 8 -11 18 -13 9 -3 -16 -5 -55 -6 -41
0 -73 -5 -73 -11 0 -5 -9 -10 -20 -10 -11 0 -20 -4 -20 -10 0 -5 -9 -10 -20
-10 -11 0 -20 6 -20 14 0 9 7 12 20 9 11 -3 20 0 20 6 0 6 -9 11 -20 11 -11 0
-20 5 -20 10 0 6 -9 10 -20 10 -11 0 -20 -5 -20 -11 0 -6 7 -9 14 -6 10 4 13
1 9 -9 -6 -16 -43 -20 -43 -4 0 6 -25 10 -55 10 -30 0 -55 -4 -55 -10 0 -5
-22 -10 -50 -10 -45 0 -50 2 -50 22 0 20 -1 20 -12 5 -11 -14 -12 -4 -10 59 4
76 15 104 44 104 8 0 20 9 28 20 8 11 22 20 32 20 10 0 18 5 18 10 0 6 21 10
48 11 35 0 42 3 27 9 -14 6 -4 9 38 9 l57 1 0 -35 c0 -39 16 -48 23 -12 l4 22
2 -23 c1 -20 4 -21 22 -12 19 11 20 10 9 -10 -11 -20 -10 -21 9 -11 17 10 20
9 15 -4 -7 -17 -44 -21 -44 -5 0 6 -4 10 -10 10 -5 0 -10 -7 -10 -15 0 -8 -4
-15 -10 -15 -5 0 -10 7 -10 15 0 21 -13 19 -30 -5 -8 -11 -22 -20 -32 -20 -10
0 -18 -5 -18 -11 0 -5 5 -7 10 -4 6 3 10 1 10 -4 0 -6 -16 -11 -35 -11 -19 0
-35 -4 -35 -10 0 -5 18 -10 41 -10 39 0 69 17 69 39 0 6 14 11 30 11 17 0 30
-5 30 -11 0 -24 31 -41 68 -37 37 3 38 2 34 -27 -3 -16 -10 -33 -16 -37 -6 -4
1 -8 17 -8 25 0 27 3 27 45 0 45 0 45 -35 45 -26 0 -35 4 -35 16 0 12 -7 15
-27 11 -26 -5 -26 -4 -8 9 10 8 22 14 27 14 4 0 8 7 8 15 0 20 -44 65 -64 65
-8 0 -18 5 -21 10 -4 6 16 10 52 10 41 0 54 -3 43 -10 -11 -7 -2 -10 33 -10
26 0 47 -4 47 -10 0 -5 9 -10 20 -10 11 0 20 -4 20 -10 0 -5 10 -10 23 -10 18
0 19 -2 7 -10 -13 -8 -12 -10 3 -10 25 0 47 -24 48 -52 l0 -23 9 23 c5 12 11
22 12 22 2 0 1 -24 0 -54 -2 -30 1 -63 7 -73 8 -14 10 -1 11 55 0 70 -1 74
-35 107 -19 19 -42 35 -52 35 -15 0 -16 2 -3 10 11 7 6 10 -20 10 -26 0 -31 3
-20 10 11 7 1 10 -35 11 -37 0 -45 3 -30 9 12 5 -44 9 -145 9 -110 1 -160 -3
-150 -9z m-163 -192 c-3 -7 -5 -2 -5 12 0 14 2 19 5 13 2 -7 2 -19 0 -25z"/>
<path d="M440 713 c0 -13 4 -23 9 -23 11 0 24 31 16 38 -3 3 -5 -1 -5 -9 0
-11 -2 -11 -10 1 -8 12 -10 11 -10 -7z"/>
<path d="M410 670 c-8 -11 -18 -20 -23 -20 -10 0 -37 -26 -37 -35 0 -3 8 -1
18 4 23 13 72 57 72 65 0 13 -16 5 -30 -14z"/>
<path d="M588 660 c-7 -18 18 -57 29 -46 4 4 2 10 -4 14 -6 4 -12 16 -15 27
-3 16 -5 17 -10 5z"/>
<path d="M122 580 c0 -14 2 -19 5 -12 2 6 2 18 0 25 -3 6 -5 1 -5 -13z"/>
<path d="M330 587 c0 -17 27 -54 34 -46 2 2 -5 18 -15 34 -14 22 -19 25 -19
12z"/>
<path d="M293 535 c-25 -27 -30 -45 -11 -45 6 0 9 3 5 6 -3 3 5 16 19 29 13
12 24 25 24 29 0 12 -15 4 -37 -19z"/>
<path d="M417 554 c7 -3 9 -13 6 -21 -5 -13 -2 -15 11 -10 10 4 20 7 23 7 2 0
-2 7 -11 15 -8 8 -21 15 -28 14 -9 0 -9 -2 -1 -5z"/>
<path d="M551 544 c-18 -21 -6 -30 14 -11 8 9 15 18 15 21 0 11 -15 5 -29 -10z"/>
<path d="M348 513 c12 -2 30 -2 40 0 9 3 -1 5 -23 4 -22 0 -30 -2 -17 -4z"/>
<path d="M510 510 c19 -13 30 -13 30 0 0 6 -10 10 -22 10 -19 0 -20 -2 -8 -10z"/>
<path d="M300 410 c-11 -7 -3 -10 30 -10 33 0 41 -3 30 -10 -10 -7 31 -10 125
-10 94 0 135 3 125 10 -11 7 -1 10 35 10 36 0 46 3 35 10 -8 5 -40 10 -70 10
-39 0 -51 -3 -40 -10 10 -7 -15 -10 -80 -10 -65 0 -90 3 -80 10 11 7 -1 10
-40 10 -30 0 -62 -5 -70 -10z"/>
<path d="M448 353 c28 -2 76 -2 105 0 28 2 5 3 -53 3 -58 0 -81 -1 -52 -3z"/>
<path d="M150 290 c0 -33 3 -40 19 -40 15 0 21 8 23 32 2 22 9 34 21 36 21 4
57 -29 57 -53 0 -8 5 -15 10 -15 6 0 10 14 10 30 0 17 -5 30 -12 30 -9 0 -8 4
2 10 10 7 -7 10 -57 10 l-73 0 0 -40z"/>
<path d="M310 290 c0 -22 5 -40 10 -40 6 0 10 5 10 10 0 6 14 10 31 10 17 0
28 4 24 10 -3 5 -1 18 4 27 8 15 10 11 11 -19 0 -38 0 -38 41 -38 37 0 40 2
35 23 -3 12 -3 16 0 10 3 -7 14 -13 25 -13 10 0 19 -4 19 -10 0 -5 9 -10 20
-10 11 0 20 5 20 10 0 6 -4 10 -10 10 -5 0 -10 9 -10 20 0 11 5 20 10 20 6 0
10 5 10 10 0 6 -9 10 -21 10 -11 0 -17 -4 -14 -10 4 -6 -5 -10 -19 -10 -14 0
-26 5 -26 10 0 6 -4 10 -10 10 -5 0 -10 -16 -10 -35 0 -19 -4 -35 -10 -35 -5
0 -10 9 -10 21 0 34 -24 49 -79 49 l-51 0 0 -40z m37 24 c-3 -3 -12 -4 -19 -1
-8 3 -5 6 6 6 11 1 17 -2 13 -5z"/>
<path d="M580 290 l0 -40 125 0 125 0 0 40 0 40 -52 -1 c-49 -2 -51 -2 -18 -9
33 -7 31 -7 -17 -9 -30 0 -53 3 -53 9 0 6 -4 10 -10 10 -5 0 -10 -13 -10 -30
0 -28 -3 -30 -35 -30 -32 0 -35 2 -35 30 0 17 -4 30 -10 30 -5 0 -10 -18 -10
-40z m210 -12 c0 -6 -13 -8 -30 -4 -18 3 -30 1 -30 -5 0 -6 -4 -7 -10 -4 -17
11 -11 23 13 27 30 5 57 -2 57 -14z m-86 -3 c3 -8 1 -15 -4 -15 -6 0 -10 7
-10 15 0 8 2 15 4 15 2 0 6 -7 10 -15z"/>
<path d="M122 280 c0 -19 2 -27 5 -17 2 9 2 25 0 35 -3 9 -5 1 -5 -18z"/>
<path d="M210 280 c0 -16 5 -30 10 -30 6 0 10 14 10 30 0 17 -4 30 -10 30 -5
0 -10 -13 -10 -30z"/>
<path d="M0 85 c0 -20 65 -85 85 -85 23 0 19 6 -30 55 -49 49 -55 53 -55 30z"/>
<path d="M943 55 c-47 -49 -50 -55 -28 -55 20 0 85 65 85 85 0 23 -11 17 -57
-30z"/>
</g>
</svg>
