<?xml version="1.0" standalone="no"?>
<!DOCTYPE svg PUBLIC "-//W3C//DTD SVG 20010904//EN"
 "http://www.w3.org/TR/2001/REC-SVG-20010904/DTD/svg10.dtd">
<svg version="1.0" xmlns="http://www.w3.org/2000/svg"
 width="256.000000pt" height="256.000000pt" viewBox="0 0 256.000000 256.000000"
 preserveAspectRatio="xMidYMid meet">
<metadata>
Created by potrace 1.16, written by Peter Selinger 2001-2019
</metadata>
<g transform="translate(0.000000,256.000000) scale(0.100000,-0.100000)"
fill="#000000" stroke="none">
<path d="M995 2294 c-151 -13 -295 -40 -306 -57 -3 -5 -10 -9 -15 -8 -58 2
-301 -107 -336 -152 -10 -12 -18 -18 -18 -13 0 15 -129 -125 -166 -181 -53
-80 -101 -192 -130 -304 -24 -95 -26 -111 -22 -292 4 -154 9 -210 27 -282 40
-165 102 -295 189 -395 45 -53 51 -28 6 27 -108 132 -151 238 -189 466 -3 21
-6 111 -6 201 -1 129 4 180 19 247 20 84 69 208 112 284 34 60 127 162 181
199 27 18 47 36 44 39 -3 4 -2 5 1 2 4 -2 39 13 78 33 99 53 231 100 361 128
11 3 40 9 65 15 58 13 624 21 715 9 71 -9 130 -18 169 -26 11 -2 36 -7 55 -10
63 -11 205 -65 271 -104 127 -75 213 -159 315 -307 40 -57 51 -55 21 5 -50 95
-103 161 -189 235 -164 141 -354 210 -642 236 -195 18 -448 20 -610 5z"/>
<path d="M966 2195 c-132 -22 -231 -51 -326 -97 -110 -53 -154 -83 -228 -158
-60 -61 -61 -61 -86 -45 -34 23 -33 29 4 22 28 -6 36 0 31 26 -1 5 3 6 7 3 5
-3 18 4 28 15 26 29 149 111 202 133 59 27 47 30 -19 5 -79 -30 -176 -83 -238
-130 -29 -22 -60 -38 -68 -35 -16 7 -12 -2 26 -53 25 -33 136 -95 152 -86 4 3
10 17 14 32 3 15 37 57 74 94 114 114 308 193 536 220 110 13 407 6 490 -11
28 -6 59 -12 70 -15 100 -20 237 -80 322 -141 63 -45 136 -126 148 -164 6 -19
8 -19 63 9 51 26 142 105 131 114 -97 81 -211 143 -334 185 -150 50 -191 52
-54 2 32 -11 85 -39 119 -61 34 -21 66 -36 72 -33 6 4 8 2 4 -4 -8 -13 64 -73
77 -65 6 3 7 1 4 -4 -7 -12 26 -46 36 -37 3 4 -1 18 -10 33 l-15 26 20 -22
c11 -13 25 -23 31 -23 16 0 13 -14 -8 -39 l-20 -23 -37 42 c-123 136 -338 241
-574 280 -115 19 -536 22 -644 5z m633 -30 c259 -38 464 -159 520 -308 6 -15
9 -27 7 -27 -1 0 -20 25 -41 55 -86 125 -293 232 -523 269 -368 61 -762 -1
-956 -149 -62 -47 -71 -44 -16 5 25 22 88 61 140 88 83 43 109 51 210 65 63 9
129 19 145 21 62 9 414 -4 514 -19z m-1060 -180 c-42 -43 -85 -104 -105 -153
-3 -7 -54 22 -54 30 0 21 184 178 208 178 3 0 -19 -25 -49 -55z m1600 -69 c18
-19 30 -39 27 -45 -13 -20 -24 -12 -49 34 -30 54 -23 57 22 11z"/>
<path d="M1218 2123 c34 -2 88 -2 120 0 31 2 3 3 -63 3 -66 0 -92 -1 -57 -3z"/>
<path d="M1078 2113 c12 -2 30 -2 40 0 9 3 -1 5 -23 4 -22 0 -30 -2 -17 -4z"/>
<path d="M1433 2113 c9 -2 25 -2 35 0 9 3 1 5 -18 5 -19 0 -27 -2 -17 -5z"/>
<path d="M1018 2103 c7 -3 16 -2 19 1 4 3 -2 6 -13 5 -11 0 -14 -3 -6 -6z"/>
<path d="M1523 2103 c9 -2 23 -2 30 0 6 3 -1 5 -18 5 -16 0 -22 -2 -12 -5z"/>
<path d="M958 2093 c7 -3 16 -2 19 1 4 3 -2 6 -13 5 -11 0 -14 -3 -6 -6z"/>
<path d="M1578 2093 c7 -3 16 -2 19 1 4 3 -2 6 -13 5 -11 0 -14 -3 -6 -6z"/>
<path d="M1708 2063 c7 -3 16 -2 19 1 4 3 -2 6 -13 5 -11 0 -14 -3 -6 -6z"/>
<path d="M250 1891 c0 -5 12 -17 28 -26 l27 -18 -24 27 c-26 28 -31 31 -31 17z"/>
<path d="M2264 1867 c-81 -69 -134 -100 -149 -87 -8 6 -20 8 -26 4 -9 -5 -8
-10 4 -19 14 -10 1 -20 -86 -66 -56 -29 -149 -74 -207 -99 -124 -54 -204 -104
-260 -161 -65 -67 -262 -410 -240 -417 11 -4 3 -22 -9 -22 -10 0 -35 52 -32
68 3 17 -51 110 -98 170 -20 26 -56 75 -79 109 -87 129 -150 174 -372 268
-104 44 -210 103 -210 116 0 5 18 -2 40 -16 22 -14 42 -25 46 -25 3 0 34 -13
68 -29 33 -16 85 -39 114 -50 163 -64 302 -157 383 -256 35 -42 69 -89 76
-103 7 -15 24 -40 36 -56 l24 -29 15 29 c35 71 51 92 135 183 29 31 53 59 53
64 0 4 4 7 10 7 9 0 17 6 72 52 27 23 183 103 238 121 84 29 120 47 120 62 0
8 -4 15 -10 15 -5 0 -10 -7 -10 -16 0 -8 -4 -13 -9 -10 -8 5 -96 -30 -241 -97
-142 -65 -252 -159 -342 -295 l-36 -53 -54 78 c-90 128 -167 192 -320 266
-180 87 -223 107 -237 107 -6 0 -19 4 -29 9 -9 5 -48 24 -86 42 -37 18 -70 39
-73 46 -7 18 -31 16 -35 -2 -2 -11 -14 -8 -51 16 -75 47 -45 14 36 -39 40 -26
82 -59 95 -73 35 -42 114 -88 213 -126 181 -67 223 -98 353 -257 83 -100 161
-214 154 -222 -3 -2 -24 24 -48 59 -135 193 -222 255 -474 340 -163 56 -354
140 -436 193 -55 36 -59 41 -70 96 -7 31 -10 68 -6 82 13 54 -11 21 -62 -82
-51 -104 -68 -168 -39 -143 8 6 18 7 22 3 5 -4 5 -1 1 6 -4 7 -1 12 9 12 10 0
13 -5 9 -12 -4 -7 -3 -8 5 -4 6 4 8 12 5 18 -4 6 -2 8 4 4 6 -3 13 -2 16 3 3
5 -5 11 -19 13 -13 3 -22 1 -19 -3 3 -5 1 -9 -5 -9 -23 0 -20 21 4 30 34 13
37 13 30 -2 -4 -7 -1 -6 7 2 18 21 45 23 52 5 3 -9 -3 -33 -14 -54 -10 -21
-22 -49 -24 -62 -3 -13 -12 -53 -21 -89 -19 -85 -14 -348 9 -435 9 -33 18 -68
21 -77 2 -10 14 -39 28 -65 19 -40 37 -56 105 -98 65 -41 89 -62 120 -110 80
-123 222 -228 362 -268 205 -58 536 -67 810 -21 251 42 400 133 498 303 92
160 127 265 141 429 9 102 -1 289 -18 335 -6 17 2 42 35 103 38 70 54 114 40
114 -2 0 -29 -15 -59 -33 -67 -41 -224 -108 -412 -177 -264 -98 -341 -155
-498 -370 -10 -14 -4 2 14 35 54 102 165 250 232 309 49 43 106 76 239 140
182 88 278 144 388 229 84 65 85 66 79 72 -3 3 -23 -10 -45 -28z m-2072 -123
c-13 -23 -25 -1 -16 28 6 19 7 19 16 5 5 -10 5 -23 0 -33z m18 -24 c0 -9 -50
-23 -57 -16 -3 2 -2 9 1 14 7 11 56 13 56 2z m128 -115 c44 -25 83 -45 87 -45
21 0 104 -44 98 -53 -3 -5 -2 -7 4 -4 9 6 279 -83 348 -114 38 -17 130 -79
175 -119 l35 -31 -36 21 c-84 47 -217 91 -444 144 -95 22 -219 67 -239 87 -6
5 -20 9 -33 9 -39 0 -47 -38 -47 -240 0 -170 3 -193 27 -284 15 -54 32 -107
38 -118 17 -31 3 -33 -39 -5 -44 28 -67 70 -94 172 -25 90 -36 329 -19 418 12
60 51 207 56 207 2 0 39 -20 83 -45z m1908 -44 c-35 -57 -40 -61 -115 -89 -43
-17 -159 -54 -257 -82 -99 -28 -210 -62 -248 -75 -72 -25 -74 -23 -16 19 71
51 188 102 380 166 73 24 152 58 225 97 33 17 61 30 63 28 2 -2 -12 -31 -32
-64z m-1510 22 c-5 -5 -76 24 -76 31 0 2 18 -3 40 -11 22 -9 38 -18 36 -20z
m204 -99 c0 -3 -13 4 -30 16 -16 12 -30 24 -30 26 0 3 14 -4 30 -16 17 -12 30
-24 30 -26z m-556 -35 c31 -16 56 -27 56 -24 0 3 12 0 28 -8 15 -8 70 -24 122
-36 303 -67 459 -132 564 -235 87 -85 124 -149 132 -230 6 -54 9 -65 15 -47 5
12 7 36 5 54 -3 34 18 106 43 147 30 48 76 100 89 100 6 0 12 7 12 15 0 8 7
15 15 15 8 0 15 5 15 11 0 6 7 8 16 5 8 -3 12 -2 9 4 -8 12 93 63 112 56 9 -4
11 -2 7 6 -5 7 -2 9 8 5 9 -3 19 -3 23 1 4 4 10 7 13 8 4 0 20 6 37 13 16 7
113 37 215 68 102 30 189 58 195 61 5 4 15 7 20 9 6 1 32 9 59 17 l48 16 -5
-25 c-2 -14 0 -28 4 -31 5 -3 9 -15 9 -27 1 -12 4 -60 6 -106 20 -321 -159
-683 -396 -797 -138 -67 -323 -97 -590 -97 -340 0 -548 61 -694 201 -46 45
-146 183 -146 203 0 5 -9 18 -20 29 -11 11 -17 20 -13 20 4 0 -2 7 -13 16 -10
8 -12 12 -4 8 12 -6 12 -4 -1 12 -9 10 -14 24 -12 31 2 6 0 14 -6 17 -6 4 -7
14 -4 23 4 10 2 14 -4 10 -5 -3 -9 3 -8 16 1 12 -1 27 -5 32 -27 38 -43 277
-26 390 3 17 5 40 5 53 1 12 3 22 5 22 3 0 30 -14 60 -31z m30 -635 c10 -25
-1 -29 -14 -5 -6 12 -7 21 -1 21 5 0 12 -7 15 -16z"/>
<path d="M2160 1433 c-30 -13 -109 -40 -175 -59 -212 -61 -402 -140 -435 -179
-7 -8 -16 -15 -21 -15 -5 0 -23 -16 -41 -36 -18 -20 -43 -47 -54 -60 -12 -12
-19 -25 -17 -28 3 -3 -2 -8 -11 -12 -9 -3 -14 -9 -11 -14 2 -4 -4 -16 -15 -27
-10 -12 -16 -24 -13 -27 4 -3 1 -6 -6 -6 -7 0 -9 -4 -6 -10 3 -5 1 -10 -6 -10
-7 0 -9 -3 -6 -7 4 -3 2 -12 -4 -20 -6 -7 -9 -13 -5 -13 4 0 -3 -18 -14 -41
-29 -56 -47 -48 -79 36 -34 91 -71 143 -168 236 -88 84 -198 146 -308 175
-197 51 -257 65 -273 62 -9 -2 28 -16 83 -32 195 -56 284 -87 344 -124 133
-81 248 -209 291 -326 25 -65 50 -96 79 -96 25 0 39 18 76 105 62 142 161 253
285 322 69 38 153 71 311 122 68 22 151 50 183 61 33 11 62 18 65 15 2 -3 7
-56 9 -119 6 -166 -41 -369 -115 -494 -39 -65 -170 -193 -229 -222 -27 -14
-52 -29 -56 -35 -5 -6 -8 -6 -8 0 0 5 -5 4 -12 -3 -7 -7 -22 -12 -34 -12 -33
0 -55 -11 -47 -23 3 -5 1 -7 -4 -4 -6 4 -33 0 -59 -8 -27 -8 -83 -17 -124 -20
-41 -3 -100 -8 -131 -10 -31 -3 -142 -1 -247 5 -300 16 -438 60 -553 173 -91
90 -135 172 -219 406 -17 46 -26 95 -44 236 -2 17 -4 -6 -4 -50 0 -135 26
-237 98 -390 89 -190 194 -295 345 -349 11 -4 20 -7 20 -6 0 1 13 -3 28 -9 98
-37 511 -63 683 -42 110 14 211 36 264 58 94 40 150 67 150 75 0 4 6 8 14 8
25 0 143 127 186 199 42 70 79 170 105 281 16 72 16 328 -1 366 l-9 22 -55
-25z"/>
<path d="M342 1410 c0 -19 2 -27 5 -17 2 9 2 25 0 35 -3 9 -5 1 -5 -18z"/>
<path d="M2345 1787 c0 -51 3 -97 7 -103 23 -35 59 -209 65 -309 17 -326 -104
-643 -310 -812 -166 -137 -458 -213 -816 -213 -364 0 -587 48 -775 168 -94 59
-167 136 -258 267 -42 61 -88 121 -103 135 -40 37 -62 87 -85 191 l-20 94 4
-67 c7 -91 49 -245 90 -326 31 -62 128 -205 160 -237 7 -8 44 -37 81 -65 130
-98 275 -156 481 -192 114 -20 163 -22 419 -22 274 0 297 1 416 26 418 87 652
266 770 588 54 149 73 357 48 537 -11 79 -76 295 -91 301 -4 2 -8 8 -8 12 0 8
-52 92 -69 112 -3 4 -6 -34 -6 -85z m55 -44 c12 -21 23 -44 25 -53 2 -8 9 -28
16 -45 7 -16 13 -32 14 -35 1 -3 6 -16 12 -30 6 -14 14 -50 18 -80 5 -30 10
-64 11 -75 19 -124 3 -367 -28 -443 -6 -15 -12 -30 -13 -34 -2 -5 -3 -9 -5
-10 -1 -2 -3 -12 -5 -22 -5 -25 -37 -89 -50 -98 -5 -4 -7 -8 -2 -8 9 0 -18
-53 -40 -80 -9 -10 -21 -16 -26 -13 -6 4 -8 -1 -4 -11 5 -13 -14 -38 -74 -97
-44 -43 -84 -77 -89 -74 -4 3 -10 -1 -13 -9 -3 -8 -27 -24 -54 -37 -26 -13
-59 -30 -72 -38 -45 -28 -227 -88 -291 -96 -55 -6 -32 2 90 35 105 29 217 83
303 149 36 27 69 46 73 43 4 -4 5 -2 1 4 -3 5 18 40 47 77 90 113 144 239 176
412 27 150 33 259 20 355 -12 90 -44 223 -60 252 -10 17 -14 98 -6 98 2 0 14
-17 26 -37z m-2200 -926 c0 -10 130 -181 168 -222 15 -16 39 -38 52 -47 14
-10 43 -31 65 -47 115 -86 337 -153 544 -166 224 -13 286 -14 416 -5 77 5 163
12 190 16 28 4 47 4 44 0 -3 -3 -53 -12 -110 -20 -133 -17 -384 -20 -530 -6
-123 12 -335 54 -384 75 -16 7 -46 18 -65 26 -19 7 -41 17 -48 22 -7 6 -35 20
-62 33 -26 12 -53 31 -59 42 -6 11 -24 25 -41 32 -16 7 -30 19 -30 26 0 8 -7
14 -15 14 -8 0 -20 10 -26 23 -7 12 -20 28 -31 35 -10 7 -18 18 -18 24 0 6
-15 31 -33 57 -34 47 -87 144 -87 158 1 10 59 -59 60 -70z"/>
<path d="M2025 1740 c-3 -5 -2 -10 4 -10 5 0 13 5 16 10 3 6 2 10 -4 10 -5 0
-13 -4 -16 -10z"/>
<path d="M2346 1565 c2 -33 -1 -43 -9 -38 -23 14 -37 11 -49 -10 -18 -32 -18
-45 -1 -58 8 -7 13 -8 12 -3 -4 22 2 25 19 7 9 -10 14 -14 10 -9 -19 24 -6 27
19 5 14 -13 22 -17 17 -9 -17 30 -13 45 7 20 19 -24 20 -24 9 -2 -6 13 -9 30
-6 37 2 7 2 16 -1 19 -4 3 -8 20 -10 38 -5 51 -20 54 -17 3z m-25 -54 c7 11 9
11 9 1 0 -10 5 -10 23 -2 21 10 21 10 3 -4 -10 -8 -15 -20 -11 -28 3 -7 -1 -4
-9 6 -12 15 -16 16 -17 5 0 -11 -2 -11 -6 -1 -4 10 -9 9 -19 -5 -10 -13 -14
-14 -12 -3 4 21 22 40 27 28 2 -6 7 -4 12 3z"/>
<path d="M80 1571 c0 -24 0 -24 16 -5 8 10 12 12 8 4 -6 -11 -2 -10 13 3 11 9
23 14 26 10 4 -3 7 -2 7 4 0 6 -16 11 -35 10 -30 -1 -35 -4 -35 -26z"/>
<path d="M103 1544 c-38 -16 -43 -27 -10 -22 12 2 21 -2 20 -8 -1 -8 6 -10 19
-6 21 5 21 5 -3 15 -22 9 -23 10 -4 14 25 6 45 23 25 22 -8 0 -30 -7 -47 -15z"/>
<path d="M2541 1494 c0 -11 3 -14 6 -6 3 7 2 16 -1 19 -3 4 -6 -2 -5 -13z"/>
<path d="M75 1490 c-3 -5 -2 -10 4 -10 5 0 13 5 16 10 3 6 2 10 -4 10 -5 0
-13 -4 -16 -10z"/>
<path d="M98 1474 c-38 -20 -36 -28 2 -9 17 9 30 18 30 20 0 7 -1 6 -32 -11z"/>
<path d="M96 1441 c-16 -9 -31 -23 -34 -31 -3 -12 -2 -12 6 -2 5 7 18 14 30
15 11 0 19 4 16 8 -2 4 2 9 8 12 7 2 11 7 8 9 -3 3 -18 -2 -34 -11z"/>
<path d="M2552 1425 c0 -16 2 -22 5 -12 2 9 2 23 0 30 -3 6 -5 -1 -5 -18z"/>
<path d="M2380 1372 c0 -5 -19 -8 -41 -8 -37 1 -42 -2 -46 -23 -2 -13 1 -29 7
-36 5 -6 6 -16 2 -20 -4 -5 -1 -5 6 -1 7 4 10 12 7 17 -4 5 2 9 12 9 15 0 16
2 3 10 -11 7 -11 10 -2 10 7 0 11 4 8 8 -2 4 5 8 18 8 15 0 22 -6 22 -19 0
-17 -1 -17 -12 -2 -8 10 -14 12 -19 6 -3 -6 -1 -11 5 -11 6 0 9 -4 6 -9 -3 -5
1 -15 10 -22 8 -7 14 -8 13 -3 -1 5 0 11 1 14 4 10 8 80 4 80 -2 0 -4 -4 -4
-8z m-67 -42 c-3 -12 -8 -19 -11 -16 -5 6 5 36 12 36 2 0 2 -9 -1 -20z"/>
<path d="M55 1297 c8 -20 62 -20 69 -1 6 15 4 15 -10 3 -10 -8 -20 -12 -23
-11 -33 20 -40 22 -36 9z"/>
<path d="M56 1249 c2 -4 19 -5 37 -3 30 4 31 4 13 -11 -11 -8 -15 -15 -9 -15
16 0 36 27 24 34 -13 9 -71 4 -65 -5z"/>
<path d="M103 1202 c-13 -2 -23 -7 -23 -12 0 -9 38 -5 48 5 9 8 -1 11 -25 7z"/>
<path d="M2303 1186 c3 -6 10 -10 16 -8 14 3 48 -31 54 -55 3 -10 4 2 3 27 -3
45 -3 45 -40 46 -22 0 -35 -3 -33 -10z"/>
<path d="M96 1160 c-11 -3 -15 -9 -10 -12 5 -3 18 -2 28 2 11 3 15 9 10 12 -5
3 -18 2 -28 -2z"/>
<path d="M2296 1162 c-9 -8 -7 -50 2 -56 5 -3 7 9 5 27 -2 29 -2 30 6 7 6 -17
9 -20 10 -7 1 9 6 17 12 17 5 0 8 -4 5 -8 -8 -14 -16 -65 -8 -57 7 7 8 10 11
43 2 15 3 14 11 -3 7 -15 9 -16 9 -4 1 27 -47 58 -63 41z"/>
<path d="M1288 1137 c-6 -28 1 -49 13 -41 12 7 12 64 0 64 -5 0 -11 -10 -13
-23z"/>
<path d="M2552 1120 c0 -14 2 -19 5 -12 2 6 2 18 0 25 -3 6 -5 1 -5 -13z"/>
<path d="M120 1120 c0 -6 -4 -9 -9 -5 -5 3 -12 1 -15 -4 -10 -16 10 -21 29 -7
13 9 15 15 7 20 -7 4 -12 2 -12 -4z"/>
<path d="M130 1080 c0 -6 -4 -9 -9 -5 -5 3 -12 2 -15 -3 -2 -4 4 -8 14 -9 22
-2 35 13 20 22 -5 3 -10 1 -10 -5z"/>
<path d="M130 1038 c0 -5 -5 -6 -12 -2 -7 4 -8 3 -4 -4 5 -9 13 -9 27 -2 23
13 24 17 4 17 -8 0 -15 -4 -15 -9z"/>
<path d="M144 999 c-3 -6 -2 -14 3 -18 5 -3 13 -15 16 -25 11 -27 15 -16 10
22 -5 33 -16 41 -29 21z"/>
<path d="M2280 999 c0 -5 6 -7 13 -4 6 4 4 0 -5 -8 -10 -8 -18 -17 -18 -21 0
-9 24 -3 33 9 5 6 7 4 4 -5 -2 -8 -10 -14 -16 -12 -6 1 -11 -3 -11 -9 0 -5 -5
-7 -11 -3 -8 4 -8 1 0 -14 7 -14 17 -19 28 -15 12 5 14 3 8 -7 -5 -9 -4 -11 4
-6 6 4 9 11 6 16 -3 4 2 13 10 20 8 7 15 18 15 24 0 6 -5 4 -10 -4 -6 -9 -10
-10 -10 -3 0 6 5 15 10 18 6 4 8 11 4 16 -3 5 -9 7 -14 4 -5 -3 -11 -1 -15 5
-8 13 -25 13 -25 -1z m40 -54 c0 -2 -9 -9 -20 -15 -12 -6 -20 -7 -20 -1 0 5 8
12 18 14 9 3 18 5 20 6 1 0 2 -1 2 -4z"/>
<path d="M720 310 c34 -11 60 -11 35 0 -11 5 -29 8 -40 8 -16 0 -15 -2 5 -8z"/>
<path d="M798 293 c6 -2 18 -2 25 0 6 3 1 5 -13 5 -14 0 -19 -2 -12 -5z"/>
<path d="M1728 293 c7 -3 16 -2 19 1 4 3 -2 6 -13 5 -11 0 -14 -3 -6 -6z"/>
<path d="M848 283 c6 -2 18 -2 25 0 6 3 1 5 -13 5 -14 0 -19 -2 -12 -5z"/>
<path d="M1668 283 c6 -2 18 -2 25 0 6 3 1 5 -13 5 -14 0 -19 -2 -12 -5z"/>
<path d="M933 273 c9 -2 25 -2 35 0 9 3 1 5 -18 5 -19 0 -27 -2 -17 -5z"/>
<path d="M1603 273 c9 -2 23 -2 30 0 6 3 -1 5 -18 5 -16 0 -22 -2 -12 -5z"/>
<path d="M1063 263 c15 -2 39 -2 55 0 15 2 2 4 -28 4 -30 0 -43 -2 -27 -4z"/>
<path d="M1478 263 c12 -2 30 -2 40 0 9 3 -1 5 -23 4 -22 0 -30 -2 -17 -4z"/>
<path d="M1178 253 c7 -3 16 -2 19 1 4 3 -2 6 -13 5 -11 0 -14 -3 -6 -6z"/>
<path d="M1283 253 c26 -2 68 -2 95 0 26 2 4 3 -48 3 -52 0 -74 -1 -47 -3z"/>
<path d="M540 10 c0 -5 5 -10 11 -10 5 0 7 5 4 10 -3 6 -8 10 -11 10 -2 0 -4
-4 -4 -10z"/>
<path d="M575 10 c-3 -5 -1 -10 4 -10 6 0 11 5 11 10 0 6 -2 10 -4 10 -3 0 -8
-4 -11 -10z"/>
<path d="M1055 10 c-3 -5 -1 -10 4 -10 6 0 11 5 11 10 0 6 -2 10 -4 10 -3 0
-8 -4 -11 -10z"/>
<path d="M1990 10 c0 -5 5 -10 11 -10 5 0 7 5 4 10 -3 6 -8 10 -11 10 -2 0 -4
-4 -4 -10z"/>
</g>
</svg>
