<?xml version="1.0" standalone="no"?>
<!DOCTYPE svg PUBLIC "-//W3C//DTD SVG 20010904//EN"
 "http://www.w3.org/TR/2001/REC-SVG-20010904/DTD/svg10.dtd">
<svg version="1.0" xmlns="http://www.w3.org/2000/svg"
 width="192.000000pt" height="192.000000pt" viewBox="0 0 192.000000 192.000000"
 preserveAspectRatio="xMidYMid meet">
<metadata>
Created by potrace 1.16, written by Peter Selinger 2001-2019
</metadata>
<g transform="translate(0.000000,192.000000) scale(0.100000,-0.100000)"
fill="#000000" stroke="none">
<path d="M1195 1264 c-55 -13 -330 -75 -611 -136 -282 -62 -512 -117 -513
-123 0 -5 193 -93 430 -194 l431 -184 447 102 c488 112 477 109 468 118 -4 3
-208 -25 -455 -62 l-448 -68 -352 138 c-194 76 -350 140 -348 143 3 2 108 24
233 48 125 24 371 70 546 104 l317 60 111 -29 c71 -19 109 -26 106 -18 -2 7
-46 38 -98 69 -109 66 -118 67 -264 32z m189 -20 c25 -14 46 -27 46 -28 0 -1
-22 2 -48 7 -51 11 -50 11 -670 -109 -129 -25 -238 -44 -244 -42 -6 2 140 37
323 77 184 40 377 83 429 96 121 29 110 29 164 -1z m-941 -181 c-7 -2 -19 -2
-25 0 -7 3 -2 5 12 5 14 0 19 -2 13 -5z m-50 -10 c-7 -2 -19 -2 -25 0 -7 3 -2
5 12 5 14 0 19 -2 13 -5z m-46 -9 c-3 -3 -12 -4 -19 -1 -8 3 -5 6 6 6 11 1 17
-2 13 -5z m-50 -10 c-3 -3 -12 -4 -19 -1 -8 3 -5 6 6 6 11 1 17 -2 13 -5z
m-77 -37 c0 -22 28 -35 348 -160 241 -95 360 -137 387 -137 22 0 111 11 198
25 87 14 166 25 175 24 9 0 -74 -22 -186 -48 l-203 -48 -400 170 c-219 94
-399 174 -399 178 0 4 10 10 23 12 50 10 57 7 57 -16z m1157 -243 c-3 -3 -12
-4 -19 -1 -8 3 -5 6 6 6 11 1 17 -2 13 -5z"/>
</g>
</svg>
