<?xml version="1.0" standalone="no"?>
<!DOCTYPE svg PUBLIC "-//W3C//DTD SVG 20010904//EN"
 "http://www.w3.org/TR/2001/REC-SVG-20010904/DTD/svg10.dtd">
<svg version="1.0" xmlns="http://www.w3.org/2000/svg"
 width="100.000000pt" height="100.000000pt" viewBox="0 0 100.000000 100.000000"
 preserveAspectRatio="xMidYMid meet">
<metadata>
Created by potrace 1.16, written by Peter Selinger 2001-2019
</metadata>
<g transform="translate(0.000000,100.000000) scale(0.100000,-0.100000)"
fill="#000000" stroke="none">
<path d="M440 983 c0 -9 19 -13 60 -13 41 0 60 4 60 13 0 8 -19 12 -60 12 -41
0 -60 -4 -60 -12z"/>
<path d="M716 905 c4 -8 10 -15 15 -15 4 0 6 7 3 15 -4 8 -10 15 -15 15 -4 0
-6 -7 -3 -15z"/>
<path d="M310 898 c0 -10 45 -13 190 -13 145 0 190 3 190 13 0 9 -45 12 -190
12 -145 0 -190 -3 -190 -12z"/>
<path d="M780 880 c0 -6 -105 -10 -295 -10 -256 0 -295 -2 -295 -15 0 -8 -7
-15 -15 -15 -8 0 -15 -7 -15 -15 0 -10 -11 -15 -35 -15 -19 0 -35 -4 -35 -10
0 -26 112 15 118 43 3 12 211 17 218 6 3 -5 -35 -9 -86 -9 -78 0 -91 -2 -86
-15 4 -12 -3 -15 -29 -15 -24 0 -35 -5 -35 -15 0 -11 -12 -15 -50 -15 -49 0
-50 -1 -50 -30 0 -16 -4 -30 -10 -30 -5 0 -7 7 -4 15 4 8 1 15 -5 15 -6 0 -11
-7 -11 -15 0 -8 -7 -15 -15 -15 -10 0 -15 -10 -15 -30 0 -20 -5 -30 -15 -30
-8 0 -15 -4 -15 -10 0 -19 39 -10 45 10 4 11 16 20 28 21 21 1 21 1 -2 8 -22
6 -22 7 11 20 27 10 34 18 31 32 -3 11 -1 19 5 19 6 0 17 3 26 6 9 3 16 1 16
-5 0 -6 -7 -11 -15 -11 -8 0 -15 -7 -15 -15 0 -8 7 -15 15 -15 8 0 15 -5 15
-11 0 -6 -7 -9 -15 -5 -8 3 -15 1 -15 -4 0 -5 -8 -11 -17 -13 -10 -3 3 -2 30
0 39 5 47 3 47 -11 0 -9 6 -16 14 -16 8 0 16 -5 18 -10 3 -9 33 -17 76 -19 15
-1 16 -41 0 -41 -6 0 -9 -2 -6 -5 8 -9 38 6 32 16 -3 5 0 9 5 9 6 0 11 -4 11
-10 0 -5 7 -10 15 -10 8 0 15 -7 15 -15 0 -11 -12 -15 -49 -15 -27 0 -64 -2
-82 -5 -33 -5 -33 -4 3 6 51 15 48 29 -7 29 -33 0 -45 4 -45 15 0 9 6 12 15 9
8 -4 15 -1 15 5 0 6 -19 11 -45 11 -26 0 -45 5 -45 11 0 6 7 9 15 5 8 -3 15
-1 15 4 0 6 -16 10 -35 10 l-35 0 0 -50 c0 -27 5 -50 10 -50 6 0 10 -28 10
-64 0 -48 -4 -65 -15 -70 -8 -3 -15 -1 -15 4 0 6 5 10 11 10 5 0 7 4 4 10 -3
5 -8 47 -11 92 -3 46 -6 91 -7 101 -1 9 -5 17 -9 17 -4 0 -8 -63 -8 -140 0
-84 4 -140 10 -140 5 0 7 7 4 15 -5 11 0 15 17 14 13 0 18 -3 12 -6 -22 -8
-14 -23 13 -23 16 0 24 -5 21 -12 -2 -7 -12 -12 -21 -10 -9 2 -23 -4 -31 -12
-13 -13 -11 -14 20 -9 39 6 43 2 20 -21 -9 -9 -11 -17 -5 -21 5 -3 10 -1 10 4
0 6 7 11 16 11 11 0 15 -6 11 -20 -4 -15 0 -20 15 -20 13 0 18 -5 15 -14 -3
-8 1 -13 11 -12 10 1 16 -6 16 -16 -1 -10 2 -16 6 -13 11 7 61 -21 53 -29 -4
-4 0 -4 10 0 9 3 23 1 31 -5 16 -13 336 -16 345 -3 12 18 51 24 57 8 3 -8 12
-12 19 -10 7 3 16 1 20 -5 4 -8 -17 -11 -64 -11 -43 0 -71 -4 -71 -11 0 -5 5
-7 10 -4 6 3 10 1 10 -4 0 -7 -55 -11 -162 -11 -157 0 -191 7 -105 21 33 5 24
7 -45 8 -76 1 -87 3 -81 17 5 14 0 16 -29 12 -31 -3 -34 -1 -30 16 4 15 1 18
-15 14 -16 -4 -19 -2 -16 13 4 13 0 19 -11 19 -9 0 -16 7 -16 15 0 8 -9 15
-20 15 -11 0 -20 7 -20 15 0 8 -8 15 -18 15 -14 0 -19 8 -20 29 0 17 -6 39
-12 50 -12 24 -40 28 -40 6 0 -8 7 -15 15 -15 11 0 15 -12 15 -50 0 -38 4 -50
15 -50 8 0 15 -7 15 -15 0 -8 7 -15 15 -15 8 0 15 -7 15 -15 0 -8 9 -15 20
-15 11 0 20 -7 20 -15 0 -8 7 -15 15 -15 8 0 15 -7 15 -15 0 -10 10 -15 30
-15 20 0 30 -5 30 -15 0 -11 12 -15 45 -15 38 0 45 -3 45 -20 0 -19 7 -20 175
-20 168 0 175 1 175 20 0 18 7 20 60 20 47 0 60 3 60 15 0 10 10 15 30 15 20
0 30 5 30 15 0 8 7 15 15 15 8 0 15 7 15 15 0 8 9 15 20 15 11 0 20 7 20 15 0
8 7 15 15 15 10 0 15 10 15 30 0 20 5 30 15 30 10 0 15 11 15 35 0 24 5 35 15
35 8 0 15 5 15 11 0 6 -6 9 -14 6 -14 -6 -32 21 -21 31 3 3 5 0 5 -6 0 -7 7
-12 16 -12 27 0 9 25 -20 28 -28 4 -28 3 -24 -51 2 -41 0 -53 -10 -50 -7 3
-10 13 -7 24 5 15 0 20 -24 25 -40 8 -50 24 -17 24 36 0 33 16 -4 23 -21 5
-28 11 -24 22 3 8 1 15 -5 15 -7 0 -11 -24 -11 -65 0 -51 -3 -65 -15 -65 -10
0 -15 -10 -15 -30 0 -20 -5 -30 -15 -30 -8 0 -15 -7 -15 -15 0 -8 -7 -15 -15
-15 -8 0 -15 -7 -15 -15 0 -11 -12 -15 -45 -15 -33 0 -45 -4 -45 -15 0 -13
-26 -15 -175 -15 -149 0 -175 2 -175 15 0 10 -10 15 -30 15 -20 0 -30 5 -30
15 0 8 -7 15 -15 15 -8 0 -15 7 -15 15 0 8 -7 15 -15 15 -8 0 -15 7 -15 15 0
8 -7 15 -15 15 -11 0 -15 12 -15 50 0 38 -4 50 -15 50 -12 0 -15 15 -15 75 l0
75 30 0 c20 0 30 -5 30 -15 0 -11 12 -15 45 -15 33 0 45 -4 45 -15 0 -11 12
-15 45 -15 26 0 45 -5 45 -11 0 -6 -7 -9 -15 -5 -8 3 -15 1 -15 -4 0 -6 16
-10 35 -10 24 0 35 -5 35 -15 0 -8 7 -15 15 -15 10 0 15 -10 15 -30 0 -20 5
-30 15 -30 10 0 15 -11 15 -35 0 -32 2 -35 30 -35 28 0 30 3 30 35 0 24 5 35
15 35 10 0 15 10 15 30 0 20 5 30 15 30 8 0 15 7 15 15 0 8 7 15 15 15 8 0 15
7 15 15 0 11 12 15 50 15 38 0 50 4 50 15 0 11 12 15 45 15 33 0 45 4 45 15 0
10 10 15 30 15 l30 0 0 -60 c0 -53 2 -60 20 -60 19 0 20 7 20 110 l0 110 -35
0 c-19 0 -35 -5 -35 -11 0 -6 7 -9 15 -5 8 3 15 1 15 -4 0 -6 -20 -10 -45 -10
-35 0 -45 -4 -45 -16 0 -14 3 -14 15 -4 12 10 15 10 15 -4 0 -13 -11 -16 -60
-16 -52 0 -60 3 -60 19 0 14 10 20 42 24 24 3 44 11 46 16 2 6 10 11 18 11 8
0 14 7 14 16 0 14 7 16 39 11 32 -4 38 -2 28 8 -7 7 -18 10 -24 8 -7 -3 -13 0
-13 6 0 6 7 11 15 11 8 0 15 7 15 16 0 12 -8 15 -33 12 -30 -3 -33 -1 -29 16
4 15 1 18 -15 14 -16 -4 -19 -2 -16 13 5 16 0 19 -31 19 -24 0 -35 4 -31 11 4
6 13 8 21 5 8 -3 14 -1 14 4 0 6 -40 10 -92 10 -61 0 -88 3 -78 10 24 15 173
3 183 -15 4 -8 17 -15 28 -15 11 0 29 -9 41 -20 21 -19 21 -20 2 -21 -10 0 0
-7 24 -16 35 -12 41 -18 31 -29 -9 -11 -8 -14 5 -14 9 0 16 -8 16 -20 0 -11 5
-20 10 -20 6 0 10 5 10 10 0 6 4 10 9 10 6 0 11 -19 13 -42 2 -36 7 -44 26
-46 12 -2 22 1 22 7 0 6 -7 11 -15 11 -11 0 -15 12 -15 45 0 33 -4 45 -15 45
-8 0 -15 7 -15 15 0 8 -7 15 -15 15 -8 0 -15 7 -15 15 0 8 -9 15 -20 15 -11 0
-20 7 -20 15 0 8 -7 15 -15 15 -8 0 -15 7 -15 15 0 10 -10 15 -30 15 -20 0
-30 5 -30 15 0 8 7 15 15 15 8 0 15 -5 15 -11 0 -5 5 -7 10 -4 20 12 10 35
-15 35 -14 0 -25 -4 -25 -10z m-220 -55 c0 -12 14 -15 65 -15 51 0 65 -3 65
-15 0 -10 10 -15 30 -15 20 0 30 -5 30 -15 0 -8 7 -15 15 -15 8 0 15 -7 15
-15 0 -8 7 -15 15 -15 8 0 15 -7 15 -15 0 -8 -7 -15 -15 -15 -8 0 -15 -7 -15
-15 0 -11 -12 -15 -45 -15 -33 0 -45 -4 -45 -15 0 -10 -11 -15 -35 -15 -28 0
-35 -4 -35 -20 0 -16 -7 -20 -30 -20 -20 0 -30 -5 -30 -15 0 -8 -7 -15 -15
-15 -10 0 -15 -10 -15 -30 0 -27 -3 -30 -30 -30 -20 0 -30 5 -30 15 0 8 -7 15
-15 15 -8 0 -15 7 -15 15 0 8 -7 15 -15 15 -8 0 -15 7 -15 15 0 8 -9 15 -20
15 -13 0 -20 7 -20 20 0 16 -7 20 -30 20 -20 0 -30 5 -30 15 0 11 -12 15 -45
15 -33 0 -45 4 -45 15 0 8 -7 15 -15 15 -8 0 -15 7 -15 15 0 8 7 15 15 15 8 0
15 7 15 15 0 8 7 15 15 15 8 0 15 7 15 15 0 8 7 15 15 15 8 0 15 7 15 15 0 12
16 15 80 15 64 0 80 3 80 15 0 12 13 15 60 15 47 0 60 -3 60 -15z m-337 -39
c4 -10 1 -13 -8 -9 -8 3 -12 9 -9 14 7 12 11 11 17 -5z m-28 -36 c3 -6 -1 -7
-9 -4 -18 7 -21 14 -7 14 6 0 13 -4 16 -10z m695 -140 c0 -5 -5 -10 -11 -10
-5 0 -7 5 -4 10 3 6 8 10 11 10 2 0 4 -4 4 -10z m-753 -6 c-3 -3 -12 -4 -19
-1 -8 3 -5 6 6 6 11 1 17 -2 13 -5z m29 -12 c-7 -12 -66 -21 -66 -10 0 4 14 8
30 8 17 0 30 5 30 12 0 6 3 9 6 5 3 -3 3 -10 0 -15z m519 -1 c4 -12 12 -18 21
-14 7 3 14 0 14 -6 0 -7 -20 -11 -50 -11 -38 0 -50 4 -50 15 0 8 9 15 20 15
11 0 20 5 20 10 0 18 18 11 25 -9z m172 13 c-3 -3 -12 -4 -19 -1 -8 3 -5 6 6
6 11 1 17 -2 13 -5z m26 -21 c-7 -2 -21 -2 -30 0 -10 3 -4 5 12 5 17 0 24 -2
18 -5z m-267 -28 c4 -10 13 -13 25 -10 11 4 19 2 19 -4 0 -5 10 -11 23 -14 12
-2 -4 -2 -35 1 -49 4 -58 2 -58 -12 0 -9 -6 -16 -14 -16 -8 0 -16 -9 -18 -20
-2 -13 -7 -17 -16 -11 -10 6 -10 13 3 37 8 16 15 34 15 41 0 10 15 18 43 22 4
0 10 -6 13 -14z m173 -1 c10 -9 -35 -3 -49 6 -11 8 -7 9 15 4 17 -4 32 -8 34
-10z m-358 -33 c22 -21 39 -48 39 -60 0 -12 6 -21 15 -21 8 0 15 9 15 20 0 25
16 26 27 3 8 -16 8 -27 4 -58 -1 -5 -9 -1 -17 10 -15 19 -15 17 -12 -33 1 -28
0 -52 -4 -52 -5 0 -8 11 -8 24 0 14 -5 28 -11 31 -6 4 -8 14 -5 22 3 8 1 11
-4 8 -6 -3 -10 1 -10 9 0 8 -7 22 -16 30 -8 9 -11 16 -5 16 6 0 11 5 11 10 0
6 -17 11 -37 11 -21 1 -30 3 -20 6 9 2 17 11 17 20 0 13 -10 15 -57 11 -32 -3
-48 -3 -35 -1 12 3 22 8 22 13 0 8 18 15 44 19 4 0 26 -16 47 -38z m481 -194
c3 -48 1 -53 -15 -49 -14 3 -15 7 -6 18 9 11 8 14 -5 14 -11 0 -16 -9 -16 -30
0 -20 -5 -30 -15 -30 -8 0 -15 -7 -15 -15 0 -10 -10 -15 -30 -15 -21 0 -30 5
-30 16 0 11 6 15 19 11 15 -3 17 0 13 16 -4 16 -1 19 14 15 17 -4 19 -1 16 29
-3 25 0 33 12 33 9 0 16 8 16 20 0 13 7 20 19 20 16 0 20 -9 23 -53z m-132
-117 c0 -5 6 -7 14 -4 7 3 16 -1 18 -8 4 -10 -6 -12 -44 -9 -47 3 -49 4 -27
16 30 16 39 18 39 5z m-193 -96 c-3 -3 -12 -4 -19 -1 -8 3 -5 6 6 6 11 1 17
-2 13 -5z"/>
<path d="M11 608 c2 -13 0 -29 -4 -35 -5 -8 -3 -13 7 -13 12 0 16 10 16 35 0
19 -5 35 -11 35 -6 0 -9 -10 -8 -22z"/>
<path d="M928 605 c-7 -33 0 -122 10 -142 4 -7 6 20 4 60 -4 105 -6 117 -14
82z"/>
<path d="M970 580 c0 -5 7 -7 15 -4 8 4 15 8 15 10 0 2 -7 4 -15 4 -8 0 -15
-4 -15 -10z"/>
<path d="M970 550 c0 -5 4 -10 9 -10 6 0 13 5 16 10 3 6 -1 10 -9 10 -9 0 -16
-4 -16 -10z"/>
<path d="M240 500 c0 -5 5 -10 11 -10 5 0 7 5 4 10 -3 6 -8 10 -11 10 -2 0 -4
-4 -4 -10z"/>
<path d="M970 490 c0 -5 4 -10 9 -10 6 0 13 5 16 10 3 6 -1 10 -9 10 -9 0 -16
-4 -16 -10z"/>
<path d="M638 473 c7 -3 16 -2 19 1 4 3 -2 6 -13 5 -11 0 -14 -3 -6 -6z"/>
<path d="M8 463 c7 -3 16 -2 19 1 4 3 -2 6 -13 5 -11 0 -14 -3 -6 -6z"/>
<path d="M970 460 c0 -5 4 -10 9 -10 6 0 13 5 16 10 3 6 -1 10 -9 10 -9 0 -16
-4 -16 -10z"/>
<path d="M965 279 c-4 -6 -5 -13 -2 -16 7 -7 27 6 27 18 0 12 -17 12 -25 -2z"/>
<path d="M438 153 c12 -2 32 -2 45 0 12 2 2 4 -23 4 -25 0 -35 -2 -22 -4z"/>
</g>
</svg>
