<?xml version="1.0" standalone="no"?>
<!DOCTYPE svg PUBLIC "-//W3C//DTD SVG 20010904//EN"
 "http://www.w3.org/TR/2001/REC-SVG-20010904/DTD/svg10.dtd">
<svg version="1.0" xmlns="http://www.w3.org/2000/svg"
 width="256.000000pt" height="256.000000pt" viewBox="0 0 256.000000 256.000000"
 preserveAspectRatio="xMidYMid meet">
<metadata>
Created by potrace 1.16, written by Peter Selinger 2001-2019
</metadata>
<g transform="translate(0.000000,256.000000) scale(0.100000,-0.100000)"
fill="#000000" stroke="none">
<path d="M1115 2070 c-3 -5 -3 -10 2 -10 4 0 1 -5 -7 -10 -18 -12 -2 -12 25 0
l20 9 -20 0 c-17 1 -17 3 -5 11 9 6 10 10 3 10 -6 0 -15 -4 -18 -10z"/>
<path d="M970 2060 c0 -5 5 -10 10 -10 6 0 10 5 10 10 0 6 -4 10 -10 10 -5 0
-10 -4 -10 -10z"/>
<path d="M1178 2063 c7 -3 16 -2 19 1 4 3 -2 6 -13 5 -11 0 -14 -3 -6 -6z"/>
<path d="M1368 2063 c7 -3 16 -2 19 1 4 3 -2 6 -13 5 -11 0 -14 -3 -6 -6z"/>
<path d="M1535 2060 c-3 -5 1 -10 10 -10 9 0 13 5 10 10 -3 6 -8 10 -10 10 -2
0 -7 -4 -10 -10z"/>
<path d="M1240 2050 l-45 -7 40 -1 c22 0 49 3 60 8 23 10 9 10 -55 0z"/>
<path d="M1005 2040 c-8 -13 5 -13 25 0 13 8 13 10 -2 10 -9 0 -20 -4 -23 -10z"/>
<path d="M1368 2043 c7 -3 16 -2 19 1 4 3 -2 6 -13 5 -11 0 -14 -3 -6 -6z"/>
<path d="M1436 2042 c-2 -4 11 -6 30 -4 19 2 34 6 34 8 0 8 -59 4 -64 -4z"/>
<path d="M1106 2009 c-276 -25 -449 -91 -568 -217 -77 -82 -128 -178 -158
-297 -29 -113 -29 -300 0 -410 23 -89 67 -189 97 -220 10 -11 20 -23 21 -28 5
-21 36 -56 45 -50 5 3 7 1 4 -4 -8 -13 17 -36 27 -25 4 4 6 1 4 -7 -3 -15 39
-23 48 -9 3 4 10 8 17 8 6 0 2 -6 -8 -14 -11 -8 -24 -12 -30 -9 -5 2 1 -5 15
-16 30 -25 146 -83 210 -104 114 -38 429 -77 455 -57 6 5 52 6 104 3 71 -4 92
-2 86 7 -6 9 5 10 41 6 36 -5 45 -4 34 4 -11 8 -5 9 24 4 29 -5 37 -4 32 5 -6
8 0 10 18 5 14 -3 26 -2 26 2 0 5 12 10 28 11 41 3 147 48 224 94 202 122 314
390 288 689 -19 216 -94 353 -267 488 -149 117 -467 171 -817 141z m449 -53
c133 -27 254 -81 327 -145 43 -38 49 -40 73 -29 21 10 29 9 42 -5 15 -15 15
-17 0 -23 -9 -3 -14 -11 -10 -17 3 -6 1 -7 -5 -3 -7 4 -12 2 -12 -4 0 -6 -5
-8 -11 -5 -7 5 -2 16 12 31 12 13 19 24 15 24 -21 0 -67 -34 -83 -60 -9 -16
-21 -30 -26 -30 -9 0 9 36 23 45 20 12 9 32 -37 67 -110 83 -235 128 -406 147
-321 36 -635 -27 -777 -155 l-40 -36 21 -30 c12 -16 19 -32 16 -35 -3 -2 -16
11 -29 31 -13 20 -37 41 -55 48 -51 19 -47 27 57 95 30 20 63 36 73 36 9 -1
17 3 17 8 0 5 9 4 20 -3 23 -15 21 -18 -19 -23 -21 -3 -29 -1 -25 7 5 7 2 8
-6 3 -10 -6 -10 -10 2 -19 13 -9 5 -15 -44 -29 -39 -12 -56 -21 -52 -29 5 -8
1 -9 -12 -4 -16 6 -17 5 -6 -6 11 -11 16 -10 26 5 7 9 19 17 27 17 11 0 11 -2
-1 -10 -8 -5 -10 -10 -5 -10 6 0 22 8 35 17 14 10 49 30 78 45 46 22 50 27 33
33 -12 3 -21 11 -21 16 0 5 10 3 23 -6 21 -13 28 -13 72 4 48 18 170 45 245
55 69 8 376 -4 445 -18z m95 2 c20 -12 -49 1 -70 13 -9 5 -2 6 20 2 19 -3 42
-10 50 -15z m50 -8 c-8 -5 -19 -10 -25 -10 -5 0 -3 5 5 10 8 5 20 10 25 10 6
0 3 -5 -5 -10z m-285 -20 c49 -6 100 -13 113 -17 43 -10 17 -12 -48 -3 -71 11
-311 14 -381 5 -24 -3 -39 -3 -33 0 44 21 225 29 349 15z m312 4 c-3 -3 -12
-4 -19 -1 -8 3 -5 6 6 6 11 1 17 -2 13 -5z m42 -1 c-3 -21 3 -24 19 -12 15 13
16 12 4 -3 -11 -14 -17 -15 -32 -5 -14 8 -16 13 -7 19 15 10 17 10 16 1z
m-349 -34 c116 -14 193 -35 269 -72 67 -33 160 -117 185 -166 l15 -28 -97 -46
c-53 -25 -121 -55 -150 -66 -116 -46 -197 -95 -186 -112 3 -5 -1 -6 -9 -3 -18
6 -106 -90 -139 -152 -12 -24 -26 -44 -29 -44 -3 0 -22 26 -42 58 -41 67 -133
157 -197 195 -25 14 -96 46 -158 72 -92 37 -193 86 -211 101 -8 7 44 77 90
118 137 123 390 179 659 145z m430 -20 c0 -6 5 -9 12 -7 6 2 24 -8 40 -24 32
-31 39 -51 8 -23 -11 10 -37 29 -58 41 -24 15 -31 23 -19 24 9 0 17 -5 17 -11z
m-975 -9 c-3 -5 -12 -10 -18 -10 -7 0 -6 4 3 10 19 12 23 12 15 0z m870 -30
c3 -5 15 -10 26 -10 10 0 19 -4 19 -8 0 -15 -12 -21 -24 -11 -50 42 -61 49
-71 45 -7 -2 -12 2 -12 9 0 11 5 11 28 -1 15 -7 31 -18 34 -24z m-925 2 c0 -8
-45 -34 -61 -36 -13 -2 -37 -34 -31 -41 4 -5 2 -5 -5 -2 -6 4 -14 1 -16 -5 -3
-7 -6 -8 -6 -3 -2 21 46 59 117 94 1 0 2 -3 2 -7z m990 -42 c0 -5 7 -10 15
-10 8 0 15 -5 15 -11 0 -5 3 -8 8 -6 4 3 13 -1 19 -9 8 -8 9 -15 3 -19 -6 -3
-10 -1 -10 4 0 6 -9 11 -21 11 -11 0 -18 4 -14 9 3 5 -4 12 -15 16 -20 7 -28
25 -10 25 6 0 10 -4 10 -10z m-1265 -20 c-3 -6 5 -14 18 -19 34 -13 98 -71 91
-82 -5 -9 -39 18 -39 32 0 4 -3 11 -7 15 -5 4 -8 2 -8 -5 0 -7 -5 -9 -10 -6
-6 4 -7 11 -4 17 5 7 2 8 -6 3 -7 -4 -16 -2 -20 5 -4 7 -15 10 -24 7 -23 -9
-23 -142 -1 -151 13 -5 15 4 10 53 -2 32 -7 66 -11 77 -4 12 9 4 37 -22 24
-22 61 -53 82 -68 40 -29 238 -126 257 -126 6 0 8 -4 5 -10 -3 -5 0 -7 8 -4 8
3 18 1 22 -5 3 -6 15 -11 26 -11 10 0 19 -4 19 -10 0 -5 7 -10 16 -10 9 0 12
-5 8 -12 -5 -7 -2 -9 7 -6 9 4 24 -5 38 -22 12 -16 28 -27 35 -24 8 3 16 -4
19 -16 3 -12 10 -19 16 -16 12 8 34 -30 26 -44 -4 -6 -11 -5 -19 3 -8 6 -12
15 -10 19 3 4 -5 12 -16 18 -11 6 -18 15 -15 20 3 6 0 7 -8 4 -8 -3 -18 0 -22
5 -3 6 -11 8 -17 5 -7 -4 -8 -2 -4 5 6 9 0 10 -21 6 -21 -5 -24 -4 -13 4 12 9
10 11 -12 11 -15 0 -30 5 -33 11 -4 6 -13 8 -21 5 -8 -3 -14 -1 -14 5 0 6 -8
8 -17 4 -15 -5 -16 -4 -5 7 11 11 18 10 44 -5 20 -11 27 -13 20 -4 -7 8 -9 17
-5 21 4 4 -1 4 -11 0 -13 -5 -17 -4 -13 3 4 7 -2 10 -17 9 -13 0 -22 -4 -19
-8 5 -10 0 -10 -21 -2 -9 3 -16 10 -16 16 0 5 6 6 13 2 9 -5 9 -4 1 5 -9 10
-17 10 -32 2 -11 -6 -29 -11 -39 -11 -12 1 -8 5 12 15 29 13 29 14 3 9 -20 -5
-26 -2 -25 11 1 12 -7 19 -23 21 -19 3 -22 2 -10 -6 8 -5 11 -10 5 -10 -5 0
-1 -7 9 -15 15 -11 16 -15 5 -16 -8 0 0 -7 16 -14 18 -8 32 -9 36 -4 3 5 18
-2 33 -16 15 -14 32 -25 39 -25 7 0 39 -14 71 -30 32 -16 64 -26 70 -23 6 3 8
3 4 -2 -4 -4 15 -24 41 -45 53 -42 135 -145 161 -204 15 -33 19 -36 24 -18 13
40 84 138 140 194 53 53 56 58 37 67 -14 8 -22 8 -27 -1 -4 -6 -3 -8 3 -5 6 4
13 1 16 -7 3 -8 -1 -17 -9 -20 -8 -3 -13 -2 -9 3 3 5 -1 11 -7 14 -8 3 1 18
24 41 24 24 39 32 44 24 5 -7 2 -8 -7 -3 -8 5 -11 5 -7 0 4 -4 3 -14 -4 -22
-8 -10 -8 -17 1 -26 8 -8 14 -8 19 -2 9 13 66 40 115 55 20 6 37 16 37 21 0 6
9 7 20 4 34 -11 22 4 -16 20 -46 19 -56 19 -24 -1 l25 -15 -30 6 c-20 4 -25 3
-16 -4 11 -7 10 -11 -5 -19 -23 -12 -104 -13 -104 -1 0 13 39 31 52 23 6 -4 8
-3 5 3 -8 13 91 56 106 46 5 -3 7 -1 3 5 -8 13 59 36 76 26 7 -4 10 -3 5 1 -4
5 25 26 65 47 79 43 135 84 187 136 18 18 35 31 38 28 3 -2 5 -36 4 -75 0 -42
4 -75 12 -83 6 -7 12 -17 12 -23 0 -5 9 -49 19 -96 23 -108 19 -331 -9 -419
-71 -226 -218 -361 -460 -422 -82 -21 -113 -23 -335 -23 -222 0 -253 2 -335
23 -130 33 -243 91 -315 161 -33 33 -60 65 -60 72 0 8 6 7 18 -4 10 -10 22
-14 26 -10 4 5 6 -1 4 -12 -2 -12 2 -19 9 -18 7 2 12 -3 10 -10 -1 -6 4 -11
11 -9 8 1 11 -2 6 -9 -5 -9 -2 -10 12 -5 10 4 15 4 11 0 -9 -10 23 -45 34 -38
5 3 9 0 9 -7 0 -7 7 -4 16 7 15 19 16 19 9 -1 -5 -15 -3 -17 5 -9 9 9 9 17 1
32 -19 36 3 32 67 -12 118 -82 265 -112 507 -103 256 10 370 49 485 167 36 36
74 84 84 106 11 21 30 53 43 71 26 35 29 47 11 38 -7 -4 -4 1 7 10 11 9 19 25
17 35 -2 11 2 20 7 20 6 0 11 10 11 23 0 12 4 29 10 37 8 12 10 12 15 -2 10
-26 1 -73 -12 -71 -7 2 -13 -2 -13 -7 0 -16 27 -11 34 6 3 9 6 31 6 50 0 19 5
34 10 34 6 0 10 7 10 16 0 13 -3 14 -14 5 -11 -9 -15 -8 -22 6 -10 24 -21 172
-11 166 4 -2 7 -1 7 4 0 4 3 19 5 33 l6 25 -12 -25 c-10 -20 -13 -22 -16 -8
-2 9 7 34 21 54 l25 37 8 -29 c10 -37 10 -279 0 -359 -7 -58 -7 -59 8 -29 25
54 37 194 26 302 -9 79 -34 197 -46 210 -1 1 -40 -18 -87 -43 -47 -25 -151
-70 -230 -99 -80 -30 -160 -62 -179 -71 -121 -63 -259 -252 -259 -357 0 -26
-4 -48 -10 -48 -9 0 -15 55 -10 108 2 33 -51 119 -121 196 -51 55 -77 74 -153
110 -50 24 -116 51 -146 61 -75 24 -244 100 -279 125 -16 11 -32 20 -35 20 -3
0 -16 -33 -28 -72 -20 -63 -23 -94 -23 -233 0 -147 3 -167 28 -247 28 -88 40
-108 53 -87 4 8 3 9 -4 5 -11 -7 -16 7 -15 42 1 6 -2 12 -6 12 -4 0 -7 10 -6
22 1 13 -5 43 -13 68 -18 56 -23 341 -6 347 6 2 9 14 7 27 -3 12 2 29 9 37 8
8 13 20 10 28 -3 8 1 12 9 9 8 -3 13 -11 11 -18 -1 -7 4 -23 13 -37 15 -23 15
-29 -1 -95 -1 -5 -2 -58 -3 -119 l-1 -111 -25 6 c-18 5 -25 2 -25 -9 0 -8 9
-15 20 -15 13 0 20 -7 20 -20 0 -25 -20 -27 -21 -2 0 11 -2 13 -6 4 -3 -8 -1
-24 5 -35 6 -12 13 -40 16 -61 6 -46 13 -55 50 -62 23 -4 25 -3 14 10 -7 8
-15 10 -16 5 -2 -6 -10 -5 -18 2 -8 6 -11 15 -8 20 3 5 0 9 -5 9 -12 0 -13 69
-1 115 6 22 8 25 10 10 1 -11 2 -26 1 -33 -1 -7 16 -46 39 -87 41 -75 44 -94
12 -96 -11 0 -12 -2 -4 -6 7 -3 19 0 26 6 10 9 21 -1 49 -45 21 -31 30 -54 23
-51 -8 3 -17 1 -20 -6 -3 -9 -8 -8 -15 3 -7 10 -11 11 -11 3 0 -7 -5 -13 -11
-13 -6 0 -9 8 -6 19 2 10 -1 18 -7 17 -6 0 -11 4 -11 9 0 6 3 9 7 8 5 -2 8 2
8 7 0 15 -11 12 -33 -8 -18 -14 -20 -15 -15 -1 5 12 1 15 -18 13 -17 -1 -28 6
-40 25 -9 15 -24 28 -34 28 -89 7 -147 178 -138 402 5 113 38 261 59 261 5 0
6 6 3 13 -5 15 59 126 84 145 9 7 18 17 18 22 2 17 4 20 10 20 3 0 2 -5 -1
-10z m149 -51 c-3 -5 -10 -7 -15 -3 -5 3 -7 10 -3 15 3 5 10 7 15 3 5 -3 7
-10 3 -15z m1252 -25 c1 -9 0 -13 -3 -10 -4 3 -12 1 -20 -6 -21 -17 -25 -4 -5
20 18 22 24 21 28 -4z m137 -41 c-4 -10 -2 -14 5 -9 6 3 14 1 18 -5 4 -8 3 -9
-4 -5 -7 4 -12 3 -12 -3 0 -5 4 -12 9 -15 5 -4 8 -14 6 -24 -2 -9 -4 -23 -4
-31 -1 -11 -6 -10 -22 5 -16 15 -19 25 -14 54 7 35 13 50 20 50 3 0 1 -7 -2
-17z m44 -103 c-4 -31 -2 -50 4 -50 6 0 8 4 5 8 -3 5 1 9 9 9 10 0 11 -5 4
-18 -11 -22 -12 -69 0 -69 12 0 20 -59 8 -63 -6 -2 -5 -11 2 -24 13 -26 16
-56 2 -35 -15 24 -19 -20 -8 -80 5 -31 6 -64 2 -74 -11 -25 -16 -53 -16 -89
l0 -30 -15 28 c-8 15 -12 36 -9 47 11 34 15 339 5 362 -9 19 -9 17 -5 -12 5
-31 4 -32 -5 -11 -6 14 -9 32 -8 42 2 9 -6 27 -17 39 l-20 23 21 -7 c18 -5 22
-2 27 24 10 49 20 34 14 -20z m-102 -29 c-3 -5 -1 -12 5 -16 5 -3 10 -11 10
-17 0 -6 -3 -8 -6 -5 -4 4 -14 -8 -23 -25 -20 -40 -40 -48 -34 -13 3 14 9 25
14 25 5 0 9 8 9 18 0 10 5 23 12 30 14 14 21 16 13 3z m-1383 -43 c16 -5 25
-14 22 -19 -3 -5 3 -10 13 -10 28 -2 36 -4 76 -22 21 -10 51 -20 68 -24 16 -3
29 -10 29 -15 0 -6 7 -7 15 -4 9 3 18 -1 22 -10 3 -9 12 -13 21 -9 18 7 70
-15 77 -32 2 -7 0 -13 -5 -13 -6 0 -10 5 -10 11 0 5 -5 7 -12 3 -6 -4 -17 1
-25 12 -12 16 -15 17 -24 4 -8 -11 -12 -12 -16 -2 -2 6 -8 10 -13 7 -7 -4 -37
1 -169 31 -20 4 -22 7 -10 16 11 7 9 9 -8 5 -25 -6 -49 16 -37 34 4 7 2 10 -7
7 -8 -3 -13 -11 -11 -17 2 -9 -3 -9 -18 -1 -11 6 -20 17 -20 25 0 8 -4 15 -10
15 -5 0 -10 7 -10 16 0 11 5 14 18 9 9 -4 29 -12 44 -17z m1322 -8 c-9 -16
-20 -30 -25 -30 -6 0 -8 -4 -5 -8 2 -4 -3 -8 -12 -8 -9 -1 -26 -5 -37 -9 l-20
-8 20 16 c23 19 4 23 -24 5 -18 -11 -18 -13 -3 -25 14 -11 12 -11 -12 -1 -26
11 -30 10 -52 -15 -13 -16 -24 -23 -24 -16 0 9 -3 9 -14 0 -10 -8 -20 -8 -37
-1 -23 10 -23 10 -1 6 12 -2 22 0 22 5 0 5 8 9 18 9 10 0 27 8 38 18 11 10 25
17 32 14 7 -2 11 2 10 10 -2 8 4 12 16 10 12 -2 16 1 10 9 -5 9 -2 10 9 6 54
-22 53 -22 39 -4 -12 14 -10 18 20 31 47 20 48 20 32 -14z m-1341 -74 c12 -8
95 -39 184 -69 252 -84 339 -147 416 -305 32 -67 46 -87 60 -84 9 2 17 8 17
14 0 7 16 44 36 85 69 138 196 230 404 289 52 14 124 39 159 55 35 16 65 29
67 29 2 0 4 -55 4 -122 -1 -328 -154 -546 -425 -603 -177 -37 -466 -28 -607
20 -204 69 -331 250 -354 506 -6 63 2 199 12 199 3 0 15 -7 27 -14z m915 1
c-18 -18 -48 -28 -48 -16 0 5 10 14 23 19 32 13 40 12 25 -3z m312 -12 c0 -1
-11 -5 -25 -7 -20 -4 -23 -2 -14 8 8 10 39 10 39 -1z m-165 -15 c-3 -14 2 -20
13 -21 9 0 1 -6 -18 -12 -39 -14 -92 -10 -68 4 7 5 9 9 3 9 -5 1 0 5 13 10 12
5 29 7 37 3 9 -3 15 -2 14 3 -2 13 0 24 5 24 3 0 3 -9 1 -20z m-82 -50 c7 0 1
-6 -13 -14 -16 -8 -29 -9 -37 -3 -9 7 -13 5 -13 -7 0 -9 -4 -16 -10 -16 -15 0
-12 19 4 36 17 16 30 19 21 4 -3 -5 1 -10 9 -10 10 0 16 9 17 23 1 16 2 18 6
5 2 -10 10 -18 16 -18z m-190 6 c4 -11 1 -13 -10 -9 -12 5 -15 2 -10 -10 3 -9
2 -17 -3 -17 -14 0 -12 24 2 38 15 15 15 15 21 -2z m-438 -27 c50 -13 115 -44
167 -81 28 -19 95 -108 82 -108 -3 0 -1 -6 5 -13 6 -8 8 -17 4 -20 -3 -4 -16
5 -29 20 -17 20 -20 30 -12 40 8 10 7 12 -4 8 -10 -4 -27 8 -49 34 -18 23 -39
41 -46 41 -7 0 -13 5 -13 11 0 5 -4 7 -10 4 -5 -3 -10 -1 -10 4 0 6 -5 11 -12
11 -10 0 -56 20 -138 58 -28 14 -15 12 65 -9z m70 11 c7 -12 -2 -12 -30 0 -19
8 -19 9 2 9 12 1 25 -3 28 -9z m164 -52 c17 -32 29 -58 27 -58 -12 0 -76 101
-71 110 9 14 7 16 44 -52z m161 23 c0 -6 -4 -12 -8 -15 -5 -3 -9 1 -9 9 0 8 4
15 9 15 4 0 8 -4 8 -9z m800 -1 c0 -5 -4 -10 -10 -10 -5 0 -10 5 -10 10 0 6 5
10 10 10 6 0 10 -4 10 -10z m-670 -17 c-8 -3 -24 -10 -35 -15 -20 -9 -20 -9
-1 6 11 9 27 16 35 15 14 0 14 -1 1 -6z m-160 -37 c0 -2 -7 -9 -15 -16 -13
-11 -14 -10 -9 4 5 14 24 23 24 12z m81 -25 c-7 -5 -11 -13 -9 -17 3 -5 -10
-22 -28 -37 -19 -16 -34 -25 -34 -20 0 5 9 15 21 23 12 8 25 25 30 38 5 12 14
22 21 22 10 0 10 -2 -1 -9z m582 -6 c4 -8 2 -17 -3 -20 -6 -4 -10 3 -10 14 0
25 6 27 13 6z m-720 -37 c-8 -46 -13 -48 -13 -5 0 21 4 37 10 37 5 0 7 -14 3
-32z m829 -130 c-7 -7 -12 -8 -12 -2 0 14 12 26 19 19 2 -3 -1 -11 -7 -17z
m-2 -39 c0 -6 -4 -7 -10 -4 -5 3 -10 11 -10 16 0 6 5 7 10 4 6 -3 10 -11 10
-16z m-17 -40 c-8 -8 -13 -7 -18 2 -5 8 -4 10 3 5 7 -4 12 -2 12 5 0 7 3 9 7
6 4 -4 2 -12 -4 -18z m-18 -49 c-3 -6 -12 -10 -18 -10 -9 0 -8 3 1 8 7 5 10
17 7 28 -6 17 -6 18 5 1 6 -9 8 -22 5 -27z m-1562 -13 c7 3 9 3 5 -2 -4 -4 2
-19 12 -33 11 -13 20 -29 20 -35 0 -5 -13 9 -30 31 -16 23 -30 45 -29 49 0 5
3 2 6 -5 2 -6 10 -9 16 -5z m1537 -23 c0 -8 -5 -12 -10 -9 -6 4 -8 11 -5 16 9
14 15 11 15 -7z m-1306 -68 c-3 -7 -16 -18 -29 -24 -19 -9 -23 -8 -21 5 2 9
11 20 22 24 28 11 34 10 28 -5z m1249 -1 c-3 -9 -8 -14 -10 -11 -3 3 -2 9 2
15 9 16 15 13 8 -4z m-1382 -42 c13 -17 13 -17 -6 -3 -11 8 -22 16 -24 17 -2
2 0 3 6 3 6 0 17 -8 24 -17z m129 9 c0 -13 -12 -22 -22 -16 -10 6 -1 24 13 24
5 0 9 -4 9 -8z m-35 -72 c3 -5 2 -10 -4 -10 -5 0 -13 5 -16 10 -3 6 -2 10 4
10 5 0 13 -4 16 -10z"/>
<path d="M1258 1863 c12 -2 32 -2 45 0 12 2 2 4 -23 4 -25 0 -35 -2 -22 -4z"/>
<path d="M1411 1866 c2 -2 22 -6 44 -9 28 -5 34 -4 20 3 -19 8 -73 14 -64 6z"/>
<path d="M1078 1853 c7 -3 16 -2 19 1 4 3 -2 6 -13 5 -11 0 -14 -3 -6 -6z"/>
<path d="M1357 1849 c7 -7 15 -10 18 -7 3 3 -2 9 -12 12 -14 6 -15 5 -6 -5z"/>
<path d="M1516 1852 c-3 -4 4 -9 15 -9 23 -2 25 3 4 10 -8 4 -16 3 -19 -1z"/>
<path d="M1278 1843 c7 -3 16 -2 19 1 4 3 -2 6 -13 5 -11 0 -14 -3 -6 -6z"/>
<path d="M899 1803 c-13 -17 -13 -17 6 -3 11 8 22 16 24 17 2 2 0 3 -6 3 -6 0
-17 -8 -24 -17z"/>
<path d="M1610 1806 c0 -3 9 -10 20 -16 11 -6 20 -8 20 -6 0 3 -9 10 -20 16
-11 6 -20 8 -20 6z"/>
<path d="M835 1780 c-3 -6 1 -7 9 -4 18 7 21 14 7 14 -6 0 -13 -4 -16 -10z"/>
<path d="M1690 1770 c0 -5 5 -10 11 -10 5 0 7 5 4 10 -3 6 -8 10 -11 10 -2 0
-4 -4 -4 -10z"/>
<path d="M1773 1715 c0 -8 4 -12 9 -9 5 3 6 10 3 15 -9 13 -12 11 -12 -6z"/>
<path d="M763 1713 c4 -7 0 -16 -10 -22 -10 -6 -13 -11 -6 -11 6 0 15 5 19 11
4 8 9 7 15 -2 5 -8 9 -9 9 -3 0 6 -8 18 -17 25 -10 8 -14 9 -10 2z"/>
<path d="M1797 1689 c7 -7 15 -10 18 -7 3 3 -2 9 -12 12 -14 6 -15 5 -6 -5z"/>
<path d="M1780 1660 c0 -5 7 -7 15 -4 8 4 15 8 15 10 0 2 -7 4 -15 4 -8 0 -15
-4 -15 -10z"/>
<path d="M1806 1635 c-11 -8 -15 -15 -9 -15 6 0 16 7 23 15 16 19 11 19 -14 0z"/>
<path d="M816 1591 c-5 -8 40 -9 47 -1 3 3 -6 6 -19 6 -13 1 -26 -1 -28 -5z"/>
<path d="M908 1593 c7 -3 16 -2 19 1 4 3 -2 6 -13 5 -11 0 -14 -3 -6 -6z"/>
<path d="M1690 1576 c4 -4 16 -4 26 2 16 9 14 10 -8 9 -15 -1 -23 -6 -18 -11z"/>
<path d="M915 1570 c3 -5 8 -10 11 -10 2 0 4 5 4 10 0 6 -5 10 -11 10 -5 0 -7
-4 -4 -10z"/>
<path d="M1635 1570 c27 -12 43 -12 25 0 -8 5 -22 9 -30 9 -10 0 -8 -3 5 -9z"/>
<path d="M1025 1510 c-3 -6 -5 -10 -3 -11 2 0 10 -2 18 -4 8 -2 24 -6 35 -11
24 -9 19 -4 -17 19 -16 10 -29 13 -33 7z"/>
<path d="M1443 1507 c0 -7 11 -13 24 -13 27 -2 27 -1 -3 14 -15 8 -21 8 -21
-1z"/>
<path d="M1445 1470 c-3 -6 1 -7 9 -4 18 7 21 14 7 14 -6 0 -13 -4 -16 -10z"/>
<path d="M1130 1436 c0 -2 7 -7 16 -10 8 -3 12 -2 9 4 -6 10 -25 14 -25 6z"/>
<path d="M1176 1432 c-3 -5 1 -15 8 -21 11 -10 14 -9 12 3 -3 21 -13 29 -20
18z"/>
<path d="M1370 1438 c0 -3 6 -11 14 -17 10 -9 17 -7 27 6 12 16 12 17 -2 6
-12 -10 -18 -10 -27 -1 -7 7 -12 9 -12 6z"/>
<path d="M1360 1416 c0 -2 8 -10 18 -17 15 -13 16 -12 3 4 -13 16 -21 21 -21
13z"/>
<path d="M1260 1351 c0 -6 4 -13 10 -16 6 -3 7 1 4 9 -7 18 -14 21 -14 7z"/>
<path d="M1300 1349 c13 -8 13 -11 -3 -20 -9 -6 -14 -15 -11 -21 4 -6 0 -15
-7 -20 -12 -8 -11 -9 1 -5 8 2 14 12 14 21 -1 9 2 16 7 16 4 0 13 8 18 18 8
14 5 18 -12 19 -17 2 -19 0 -7 -8z"/>
<path d="M497 1693 c-4 -3 -7 -30 -7 -60 0 -29 -4 -53 -10 -53 -5 0 -8 15 -5
35 2 19 0 37 -5 40 -6 4 -7 -1 -3 -11 4 -10 2 -15 -3 -11 -11 6 -13 -32 -2
-48 3 -5 0 -41 -8 -80 -16 -83 -18 -158 -2 -85 6 25 19 72 30 105 11 33 20 86
21 117 1 32 2 58 1 58 0 0 -4 -3 -7 -7z"/>
<path d="M569 1654 c-5 -47 -5 -65 2 -70 4 -2 10 0 13 5 4 5 1 13 -4 16 -7 5
-5 11 5 19 15 11 15 13 1 25 -9 8 -16 10 -17 5z"/>
<path d="M1963 1630 c2 -11 7 -23 12 -27 4 -5 4 -2 0 6 -6 11 -4 13 8 8 22 -8
21 -5 -3 16 -19 16 -20 16 -17 -3z"/>
<path d="M1935 1621 c-3 -5 -2 -12 3 -15 5 -3 9 1 9 9 0 17 -3 19 -12 6z"/>
<path d="M616 1571 c10 -10 21 -17 23 -15 6 6 -20 34 -32 34 -6 0 -2 -8 9 -19z"/>
<path d="M441 1564 c0 -11 3 -14 6 -6 3 7 2 16 -1 19 -3 4 -6 -2 -5 -13z"/>
<path d="M725 1539 c2 -17 7 -34 11 -38 4 -3 5 1 1 10 -3 9 -2 20 3 25 5 5 2
15 -5 21 -12 11 -13 8 -10 -18z"/>
<path d="M1809 1530 c-20 -16 -21 -19 -6 -20 9 0 17 6 17 13 0 8 3 7 10 -3 7
-12 9 -10 7 8 -2 27 0 26 -28 2z"/>
<path d="M1769 1528 c-1 -7 -1 -16 0 -20 0 -5 -8 -8 -18 -8 -10 0 -21 -7 -25
-15 -3 -8 -10 -15 -15 -15 -6 0 -8 7 -5 15 7 16 1 18 -33 9 -13 -4 -20 -10
-17 -16 3 -5 12 -4 20 3 12 9 13 9 9 -3 -7 -17 21 -33 30 -18 4 6 18 10 33 11
24 0 25 1 7 9 -16 7 -12 9 20 10 36 1 37 2 16 11 -19 8 -21 12 -11 24 9 10 9
15 1 15 -6 0 -12 -6 -12 -12z"/>
<path d="M419 1451 l5 -76 6 65 c3 36 9 71 13 77 5 7 1 11 -10 10 -16 -1 -18
-9 -14 -76z"/>
<path d="M539 1458 c-3 -13 -1 -41 2 -63 5 -35 6 -33 8 23 1 63 -4 81 -10 40z"/>
<path d="M402 1430 c0 -14 2 -19 5 -12 2 6 2 18 0 25 -3 6 -5 1 -5 -13z"/>
<path d="M2032 1430 c0 -14 2 -19 5 -12 2 6 2 18 0 25 -3 6 -5 1 -5 -13z"/>
<path d="M512 1390 c0 -19 2 -27 5 -17 2 9 2 25 0 35 -3 9 -5 1 -5 -18z"/>
<path d="M2020 1370 c0 -5 5 -10 11 -10 5 0 7 5 4 10 -3 6 -8 10 -11 10 -2 0
-4 -4 -4 -10z"/>
<path d="M427 1300 c4 -38 2 -65 -6 -74 -6 -7 -8 -22 -4 -32 6 -16 8 -14 14
11 10 46 10 143 0 149 -5 4 -7 -19 -4 -54z"/>
<path d="M2032 1305 c0 -16 2 -22 5 -12 2 9 2 23 0 30 -3 6 -5 -1 -5 -18z"/>
<path d="M412 1300 c0 -14 2 -19 5 -12 2 6 2 18 0 25 -3 6 -5 1 -5 -13z"/>
<path d="M441 1183 c0 -23 -5 -43 -11 -45 -6 -2 -6 -14 -1 -33 l9 -30 1 34 c1
51 10 33 15 -32 3 -31 8 -62 12 -68 3 -6 0 -16 -7 -21 -11 -7 -9 -8 5 -4 14 5
17 2 12 -9 -3 -9 -2 -13 4 -10 6 3 10 2 10 -3 0 -6 6 -12 14 -15 10 -4 6 18
-15 79 -16 46 -33 110 -38 141 -8 54 -9 55 -10 16z"/>
<path d="M515 1200 c3 -5 8 -10 11 -10 2 0 4 5 4 10 0 6 -5 10 -11 10 -5 0 -7
-4 -4 -10z"/>
<path d="M406 1155 c-9 -26 -7 -32 5 -12 6 10 9 21 6 23 -2 3 -7 -2 -11 -11z"/>
<path d="M437 1053 c-4 -3 -7 -11 -7 -17 0 -6 5 -5 12 2 6 6 9 14 7 17 -3 3
-9 2 -12 -2z"/>
<path d="M2021 1050 c0 -8 4 -22 9 -30 12 -18 12 -2 0 25 -6 13 -9 15 -9 5z"/>
<path d="M1980 1046 c0 -2 7 -6 15 -10 8 -3 15 -1 15 4 0 6 -7 10 -15 10 -8 0
-15 -2 -15 -4z"/>
<path d="M1966 1014 c-9 -24 -7 -27 9 -10 17 17 19 26 6 26 -5 0 -12 -7 -15
-16z"/>
<path d="M1996 1003 c-6 -14 -5 -15 5 -6 7 7 10 15 7 18 -3 3 -9 -2 -12 -12z"/>
<path d="M660 871 c0 -5 5 -13 10 -16 6 -3 10 -2 10 4 0 5 -4 13 -10 16 -5 3
-10 2 -10 -4z"/>
<path d="M1901 864 c0 -11 3 -14 6 -6 3 7 2 16 -1 19 -3 4 -6 -2 -5 -13z"/>
<path d="M1943 866 c1 -6 -3 -10 -10 -9 -7 2 -10 -4 -7 -12 4 -9 -1 -13 -15
-12 -12 1 -21 6 -21 11 0 5 -6 2 -13 -9 -9 -11 -19 -15 -27 -10 -9 5 -11 4 -6
-3 4 -7 2 -12 -3 -12 -6 0 -11 -5 -11 -11 0 -5 4 -8 8 -5 4 2 14 1 22 -5 12
-7 11 -9 -5 -10 -11 -1 -23 -1 -27 0 -4 0 -5 -6 -2 -14 8 -20 -6 -19 -22 3
-13 16 -14 16 -7 -2 5 -16 3 -18 -11 -13 -9 4 -15 3 -12 -2 3 -4 -6 -13 -19
-19 -14 -7 -25 -17 -25 -23 0 -6 -7 -8 -17 -5 -10 4 -14 4 -10 -1 8 -8 -81
-35 -178 -54 -33 -6 -136 -15 -230 -19 l-170 -8 205 3 c174 2 218 6 290 25
105 27 200 71 239 110 16 17 35 30 41 30 7 0 9 9 5 23 -4 14 -3 17 3 9 9 -13
15 -8 50 39 9 12 9 16 -3 16 -7 0 -13 -5 -12 -11z m-59 -60 c-3 -9 -10 -13
-16 -10 -5 3 -4 12 3 20 15 18 22 13 13 -10z"/>
<path d="M775 762 c4 -7 -1 -23 -12 -35 -18 -22 -18 -22 2 -5 19 15 21 15 44
-3 13 -10 28 -19 35 -19 6 0 2 5 -9 11 -11 6 -31 23 -44 38 -13 14 -20 20 -16
13z"/>
<path d="M2070 1611 c0 -5 5 -13 10 -16 6 -3 10 -2 10 4 0 5 -4 13 -10 16 -5
3 -10 2 -10 -4z"/>
<path d="M2131 1344 c0 -11 3 -14 6 -6 3 7 2 16 -1 19 -3 4 -6 -2 -5 -13z"/>
<path d="M2130 1211 c0 -6 5 -13 10 -16 6 -3 10 1 10 9 0 9 -4 16 -10 16 -5 0
-10 -4 -10 -9z"/>
<path d="M670 1440 c0 -5 5 -10 10 -10 6 0 10 5 10 10 0 6 -4 10 -10 10 -5 0
-10 -4 -10 -10z"/>
<path d="M720 1420 c0 -5 5 -10 11 -10 5 0 7 5 4 10 -3 6 -8 10 -11 10 -2 0
-4 -4 -4 -10z"/>
<path d="M810 1390 c8 -5 20 -10 25 -10 6 0 3 5 -5 10 -8 5 -19 10 -25 10 -5
0 -3 -5 5 -10z"/>
<path d="M858 1373 c7 -3 16 -2 19 1 4 3 -2 6 -13 5 -11 0 -14 -3 -6 -6z"/>
<path d="M617 1349 c4 -13 8 -18 11 -10 2 7 -1 18 -6 23 -8 8 -9 4 -5 -13z"/>
<path d="M1810 1320 c-8 -5 -10 -10 -5 -10 6 0 17 5 25 10 8 5 11 10 5 10 -5
0 -17 -5 -25 -10z"/>
<path d="M758 1313 c7 -3 16 -2 19 1 4 3 -2 6 -13 5 -11 0 -14 -3 -6 -6z"/>
<path d="M1932 1290 c0 -19 2 -27 5 -17 2 9 2 25 0 35 -3 9 -5 1 -5 -18z"/>
<path d="M611 1294 c0 -11 3 -14 6 -6 3 7 2 16 -1 19 -3 4 -6 -2 -5 -13z"/>
<path d="M631 1294 c0 -11 3 -14 6 -6 3 7 2 16 -1 19 -3 4 -6 -2 -5 -13z"/>
<path d="M1768 1303 c7 -3 16 -2 19 1 4 3 -2 6 -13 5 -11 0 -14 -3 -6 -6z"/>
<path d="M743 1292 c-7 -5 4 -8 26 -7 22 0 37 3 34 8 -6 9 -45 9 -60 -1z"/>
<path d="M1795 1290 c-3 -6 1 -7 9 -4 18 7 21 14 7 14 -6 0 -13 -4 -16 -10z"/>
<path d="M975 1240 c10 -11 20 -20 23 -20 3 0 -3 9 -13 20 -10 11 -20 20 -23
20 -3 0 3 -9 13 -20z"/>
<path d="M1581 1241 c-11 -7 -11 -10 0 -15 8 -3 4 -4 -9 -2 -12 2 -19 0 -16
-5 9 -16 37 -6 40 14 3 20 3 19 -15 8z"/>
<path d="M963 1215 c0 -8 4 -12 9 -9 5 3 6 10 3 15 -9 13 -12 11 -12 -6z"/>
<path d="M1501 1184 c0 -11 3 -14 6 -6 3 7 2 16 -1 19 -3 4 -6 -2 -5 -13z"/>
<path d="M621 1154 c0 -11 3 -14 6 -6 3 7 2 16 -1 19 -3 4 -6 -2 -5 -13z"/>
<path d="M1480 1149 c0 -5 5 -7 10 -4 6 3 10 8 10 11 0 2 -4 4 -10 4 -5 0 -10
-5 -10 -11z"/>
<path d="M1066 1136 c10 -8 21 -12 24 -10 5 6 -21 24 -34 24 -6 0 -1 -6 10
-14z"/>
<path d="M1502 1134 c-7 -8 -8 -14 -3 -14 10 0 25 19 20 25 -2 1 -10 -3 -17
-11z"/>
<path d="M1422 1114 c-1 -13 0 -24 2 -24 7 0 14 40 7 44 -4 3 -8 -6 -9 -20z"/>
<path d="M1150 1084 c0 -6 7 -19 16 -30 14 -18 14 -18 3 6 -14 31 -19 36 -19
24z"/>
<path d="M1846 1029 c2 -4 11 -6 19 -2 18 6 19 -8 3 -27 -11 -12 -10 -12 5 -1
22 18 17 36 -11 37 -12 1 -19 -2 -16 -7z"/>
<path d="M692 990 c0 -14 2 -19 5 -12 2 6 2 18 0 25 -3 6 -5 1 -5 -13z"/>
<path d="M1340 969 c0 -5 5 -7 10 -4 6 3 10 8 10 11 0 2 -4 4 -10 4 -5 0 -10
-5 -10 -11z"/>
<path d="M1226 945 c-3 -9 -6 -26 -5 -38 1 -16 4 -12 10 12 10 34 6 55 -5 26z"/>
<path d="M1250 911 c0 -11 4 -22 9 -25 4 -3 6 6 3 19 -5 30 -12 33 -12 6z"/>
<path d="M1276 922 c-2 -4 -1 -14 4 -22 7 -11 9 -9 7 8 -1 24 -3 26 -11 14z"/>
<path d="M1335 920 c3 -5 11 -10 16 -10 6 0 7 5 4 10 -3 6 -11 10 -16 10 -6 0
-7 -4 -4 -10z"/>
<path d="M1305 910 c-3 -5 -1 -10 4 -10 6 0 11 5 11 10 0 6 -2 10 -4 10 -3 0
-8 -4 -11 -10z"/>
<path d="M1335 890 c-3 -5 -1 -10 4 -10 6 0 11 5 11 10 0 6 -2 10 -4 10 -3 0
-8 -4 -11 -10z"/>
<path d="M1760 876 c0 -2 8 -10 18 -17 15 -13 16 -12 3 4 -13 16 -21 21 -21
13z"/>
<path d="M781 854 c6 -7 7 -19 3 -25 -4 -7 -3 -9 4 -5 15 9 11 43 -5 43 -9 0
-10 -4 -2 -13z"/>
<path d="M1630 786 c0 -3 9 -10 20 -16 11 -6 20 -8 20 -6 0 3 -9 10 -20 16
-11 6 -20 8 -20 6z"/>
<path d="M888 773 c7 -3 16 -2 19 1 4 3 -2 6 -13 5 -11 0 -14 -3 -6 -6z"/>
<path d="M1607 769 c7 -7 15 -10 18 -7 3 3 -2 9 -12 12 -14 6 -15 5 -6 -5z"/>
<path d="M925 760 c-13 -6 -15 -9 -5 -9 8 0 22 4 30 9 18 12 2 12 -25 0z"/>
<path d="M1408 703 c6 -2 18 -2 25 0 6 3 1 5 -13 5 -14 0 -19 -2 -12 -5z"/>
<path d="M1796 1991 c-17 -6 -17 -8 -4 -14 10 -3 19 0 22 9 3 8 4 14 3 13 -1
0 -11 -4 -21 -8z"/>
<path d="M795 1980 c-3 -6 1 -7 9 -4 18 7 21 14 7 14 -6 0 -13 -4 -16 -10z"/>
<path d="M565 1910 c-3 -6 1 -7 9 -4 18 7 21 14 7 14 -6 0 -13 -4 -16 -10z"/>
<path d="M590 1900 c-9 -6 -10 -10 -3 -10 6 0 15 5 18 10 8 12 4 12 -15 0z"/>
<path d="M1961 1907 c2 -1 13 -9 24 -17 19 -14 19 -14 6 3 -7 9 -18 17 -24 17
-6 0 -8 -1 -6 -3z"/>
<path d="M560 1881 c0 -10 19 -25 25 -20 1 2 -3 10 -11 17 -8 7 -14 8 -14 3z"/>
<path d="M486 1832 c-6 -10 -2 -39 6 -48 4 -3 11 3 17 14 8 15 7 23 -3 31 -8
7 -17 8 -20 3z m19 -12 c3 -5 1 -10 -4 -10 -6 0 -11 5 -11 10 0 6 2 10 4 10 3
0 8 -4 11 -10z"/>
<path d="M2064 1789 c-3 -6 -2 -15 3 -20 5 -5 9 -1 9 11 0 23 -2 24 -12 9z"/>
<path d="M414 1731 c1 -17 4 -31 9 -31 10 0 9 32 -2 48 -5 9 -8 3 -7 -17z"/>
<path d="M2120 1744 c0 -5 9 -17 20 -27 11 -9 20 -13 20 -8 0 4 -9 16 -20 26
-11 10 -20 14 -20 9z"/>
<path d="M2120 1702 c0 -16 27 -45 33 -35 3 5 -3 17 -14 26 -10 9 -19 13 -19
9z"/>
<path d="M403 1669 c-2 -23 3 -25 10 -4 4 8 3 16 -1 19 -4 3 -9 -4 -9 -15z"/>
<path d="M2222 1570 c0 -14 2 -19 5 -12 2 6 2 18 0 25 -3 6 -5 1 -5 -13z"/>
<path d="M341 1545 c-1 -23 -3 -27 -11 -15 -12 18 -12 3 0 -25 7 -19 8 -18 15
7 4 14 5 35 2 45 -3 11 -5 7 -6 -12z"/>
<path d="M2186 1557 c3 -10 9 -15 12 -12 3 3 0 11 -7 18 -10 9 -11 8 -5 -6z"/>
<path d="M2207 1519 c7 -7 15 -10 18 -7 3 3 -2 9 -12 12 -14 6 -15 5 -6 -5z"/>
<path d="M2220 1464 c0 -10 5 -26 10 -34 8 -11 9 -7 4 15 -8 37 -14 45 -14 19z"/>
<path d="M2226 1377 c3 -10 9 -15 12 -12 3 3 0 11 -7 18 -10 9 -11 8 -5 -6z"/>
<path d="M326 1363 c-6 -14 -5 -15 5 -6 7 7 10 15 7 18 -3 3 -9 -2 -12 -12z"/>
<path d="M2222 1300 c0 -14 2 -19 5 -12 2 6 2 18 0 25 -3 6 -5 1 -5 -13z"/>
<path d="M2225 1199 c-4 -6 -5 -12 -2 -15 2 -3 7 2 10 11 7 17 1 20 -8 4z"/>
<path d="M2231 1154 c0 -11 3 -14 6 -6 3 7 2 16 -1 19 -3 4 -6 -2 -5 -13z"/>
<path d="M2211 1063 c7 -12 15 -20 18 -17 3 2 -3 12 -13 22 -17 16 -18 16 -5
-5z"/>
<path d="M351 1044 c0 -11 3 -14 6 -6 3 7 2 16 -1 19 -3 4 -6 -2 -5 -13z"/>
<path d="M332 995 c0 -16 2 -22 5 -12 2 9 2 23 0 30 -3 6 -5 -1 -5 -18z"/>
<path d="M360 1000 c0 -5 5 -10 10 -10 6 0 10 5 10 10 0 6 -4 10 -10 10 -5 0
-10 -4 -10 -10z"/>
<path d="M2139 873 c-3 -18 -2 -30 3 -27 4 3 8 0 8 -7 0 -7 2 -10 4 -8 3 2 1
20 -3 39 l-7 35 -5 -32z"/>
<path d="M417 883 c-4 -3 -7 -18 -7 -31 0 -32 13 -20 15 13 1 28 1 28 -8 18z"/>
<path d="M2116 821 c-3 -5 3 -11 15 -14 16 -4 18 -3 8 9 -13 16 -16 17 -23 5z"/>
<path d="M2055 750 c3 -5 8 -10 11 -10 2 0 4 5 4 10 0 6 -5 10 -11 10 -5 0 -7
-4 -4 -10z"/>
<path d="M485 740 c-3 -5 -5 -10 -3 -11 33 -8 38 -7 27 7 -14 17 -16 17 -24 4z"/>
<path d="M2015 730 c-3 -6 1 -7 9 -4 18 7 21 14 7 14 -6 0 -13 -4 -16 -10z"/>
<path d="M560 681 c0 -6 4 -13 10 -16 6 -3 7 1 4 9 -7 18 -14 21 -14 7z"/>
<path d="M621 654 c0 -11 3 -14 6 -6 3 7 2 16 -1 19 -3 4 -6 -2 -5 -13z"/>
<path d="M1905 661 c-3 -5 -2 -12 3 -15 5 -3 9 1 9 9 0 17 -3 19 -12 6z"/>
<path d="M728 588 c5 -5 16 -8 23 -6 8 3 3 7 -10 11 -17 4 -21 3 -13 -5z"/>
<path d="M792 581 c-11 -7 -11 -9 0 -14 9 -3 15 1 15 9 0 8 -1 14 -1 14 -1 0
-7 -4 -14 -9z"/>
<path d="M1298 543 c6 -2 18 -2 25 0 6 3 1 5 -13 5 -14 0 -19 -2 -12 -5z"/>
<path d="M1178 513 c7 -3 16 -2 19 1 4 3 -2 6 -13 5 -11 0 -14 -3 -6 -6z"/>
<path d="M1270 511 c0 -6 4 -13 10 -16 6 -3 7 1 4 9 -7 18 -14 21 -14 7z"/>
<path d="M1488 513 c6 -2 18 -2 25 0 6 3 1 5 -13 5 -14 0 -19 -2 -12 -5z"/>
<path d="M1387 503 c-9 -2 -15 -9 -11 -14 4 -6 10 -6 17 -1 7 6 21 12 32 15
l20 5 -20 0 c-11 0 -28 -2 -38 -5z"/>
<path d="M1048 493 c6 -2 18 -2 25 0 6 3 1 5 -13 5 -14 0 -19 -2 -12 -5z"/>
</g>
</svg>
