<?xml version="1.0" standalone="no"?>
<!DOCTYPE svg PUBLIC "-//W3C//DTD SVG 20010904//EN"
 "http://www.w3.org/TR/2001/REC-SVG-20010904/DTD/svg10.dtd">
<svg version="1.0" xmlns="http://www.w3.org/2000/svg"
 width="60.000000pt" height="60.000000pt" viewBox="0 0 60.000000 60.000000"
 preserveAspectRatio="xMidYMid meet">
<metadata>
Created by potrace 1.16, written by Peter Selinger 2001-2019
</metadata>
<g transform="translate(0.000000,60.000000) scale(0.100000,-0.100000)"
fill="#000000" stroke="none">
<path d="M10 295 l0 -235 290 0 290 0 0 235 0 235 -290 0 -290 0 0 -235z m482
192 c66 -38 88 -90 78 -177 -14 -123 -59 -190 -144 -215 -63 -19 -189 -19
-251 0 -27 8 -52 12 -56 9 -5 -3 -23 10 -42 28 -18 18 -24 26 -13 18 12 -9 30
-22 41 -30 11 -8 4 4 -15 27 -19 24 -40 43 -47 43 -17 0 -26 58 -21 139 4 77
30 126 82 157 46 27 89 33 222 31 110 -3 124 -5 166 -30z m-413 20 c-2 -1 -14
-11 -26 -21 -23 -19 -23 -19 -23 2 0 17 6 22 27 22 14 0 24 -1 22 -3z m491
-19 c0 -21 0 -21 -22 -2 -13 10 -25 20 -27 21 -2 2 8 3 22 3 21 0 27 -5 27
-22z m0 -307 c0 -6 -12 -23 -26 -38 l-25 -28 23 37 c24 40 28 44 28 29z m-481
-98 c2 -2 -10 -3 -27 -3 -28 0 -32 3 -32 27 l0 26 28 -24 c15 -13 29 -25 31
-26z m481 22 c0 -21 -5 -25 -31 -25 l-30 0 28 25 c35 30 33 30 33 0z"/>
<path d="M198 497 c-25 -7 -58 -21 -72 -30 -14 -9 -33 -17 -41 -17 -36 0 -5
-27 80 -70 80 -40 92 -50 110 -88 11 -23 22 -42 26 -42 4 0 9 13 12 29 7 34
51 70 116 95 25 10 57 26 73 37 29 21 38 45 13 36 -8 -4 -17 -2 -20 4 -28 45
-204 72 -297 46z m201 -45 c24 -9 46 -22 48 -28 2 -6 -17 -19 -42 -28 -25 -10
-59 -29 -75 -43 l-30 -25 -29 25 c-16 13 -50 33 -75 43 -25 11 -45 24 -43 29
5 17 99 44 152 44 28 0 70 -8 94 -17z"/>
<path d="M53 363 c-11 -41 -8 -115 5 -138 9 -16 11 -7 12 54 0 41 3 71 7 67 4
-4 6 -26 4 -50 -5 -81 50 -167 118 -186 46 -13 156 -13 201 0 41 11 94 61 109
103 6 16 11 54 12 85 0 48 2 53 10 32 6 -14 8 -37 5 -52 -3 -16 -1 -28 4 -28
10 0 14 122 5 132 -8 7 -165 -60 -188 -81 -11 -9 -24 -25 -29 -36 -10 -18 -8
-18 14 3 33 30 178 86 164 63 -4 -6 -31 -18 -60 -26 -76 -22 -148 -72 -141
-96 4 -11 2 -19 -4 -19 -6 0 -11 7 -11 16 0 30 -64 82 -123 99 -31 9 -60 21
-63 27 -8 12 17 6 99 -27 53 -21 57 -22 41 -4 -9 10 -41 28 -71 39 -30 11 -68
27 -84 35 -28 15 -29 15 -36 -12z m137 -97 c29 -14 52 -35 65 -59 28 -51 62
-51 90 0 20 38 74 75 129 89 28 7 28 6 21 -27 -10 -47 -35 -88 -68 -113 -38
-28 -188 -36 -235 -12 -39 20 -69 62 -81 115 -9 40 -8 41 12 36 12 -4 42 -17
67 -29z"/>
</g>
</svg>
