<?xml version="1.0" standalone="no"?>
<!DOCTYPE svg PUBLIC "-//W3C//DTD SVG 20010904//EN"
 "http://www.w3.org/TR/2001/REC-SVG-20010904/DTD/svg10.dtd">
<svg version="1.0" xmlns="http://www.w3.org/2000/svg"
 width="100.000000pt" height="100.000000pt" viewBox="0 0 100.000000 100.000000"
 preserveAspectRatio="xMidYMid meet">
<metadata>
Created by potrace 1.16, written by Peter Selinger 2001-2019
</metadata>
<g transform="translate(0.000000,100.000000) scale(0.100000,-0.100000)"
fill="#000000" stroke="none">
<path d="M310 869 c0 -6 9 -9 20 -6 11 3 20 2 20 -3 0 -4 7 -10 14 -13 10 -4
13 -1 10 7 -4 10 23 13 133 11 76 -1 147 -5 158 -8 11 -2 26 1 33 9 11 12 -17
14 -188 14 -140 0 -200 -3 -200 -11z"/>
<path d="M248 838 c16 -8 28 -8 45 0 19 9 17 11 -23 11 -40 0 -42 -2 -22 -11z"/>
<path d="M410 840 c11 -7 -2 -10 -42 -10 -32 0 -58 -4 -58 -10 0 -5 -15 -10
-32 -10 -25 0 -29 -3 -18 -10 12 -8 11 -10 -7 -10 -13 0 -23 -4 -23 -10 0 -5
-9 -10 -20 -10 -11 0 -20 -4 -20 -10 0 -5 -9 -10 -20 -10 -24 0 -25 6 -5 27 9
8 24 13 35 10 12 -3 17 0 14 8 -3 7 5 16 18 20 22 8 22 8 -5 12 -21 3 -34 -3
-56 -26 -16 -17 -32 -31 -35 -31 -4 0 -18 -11 -31 -25 -25 -24 -33 -55 -15
-55 6 0 10 9 10 20 0 27 37 26 61 -1 l18 -21 40 41 c22 22 47 41 55 41 9 0 16
5 16 10 0 6 15 10 33 10 24 0 28 3 17 10 -10 6 43 10 160 10 117 0 170 -4 160
-10 -11 -7 -7 -10 18 -10 17 0 32 -4 32 -10 0 -5 7 -10 15 -10 9 0 31 -16 50
-35 44 -43 45 -65 5 -65 -16 0 -30 -4 -30 -10 0 -5 -9 -10 -20 -10 -11 0 -20
-4 -20 -10 0 -5 14 -10 30 -10 17 0 30 5 30 10 0 6 7 10 15 10 20 0 65 45 65
65 0 8 -7 15 -16 15 -9 0 -28 13 -43 29 -15 16 -36 31 -46 33 -17 4 -15 6 9
13 19 5 31 4 36 -5 6 -9 12 -10 26 -1 18 10 18 10 -3 11 -13 0 -23 5 -23 10 0
6 -9 10 -20 10 -11 0 -20 5 -20 10 0 15 -37 12 -43 -3 -4 -10 2 -13 19 -9 14
2 24 0 24 -7 0 -6 -13 -11 -30 -11 -16 0 -30 5 -30 10 0 6 -26 10 -57 10 -41
0 -54 3 -43 10 10 7 -19 10 -90 10 -71 0 -100 -3 -90 -10z"/>
<path d="M807 777 c-4 -10 2 -13 19 -9 19 3 24 0 24 -17 0 -11 5 -21 11 -21 5
0 7 -4 4 -10 -3 -5 -1 -10 4 -10 6 0 11 5 11 10 0 6 5 10 10 10 6 0 10 -13 10
-30 0 -16 5 -30 10 -30 6 0 10 -9 10 -21 0 -13 5 -19 13 -16 9 3 11 -20 9
-104 -2 -60 -7 -109 -13 -109 -5 0 -9 -17 -10 -37 0 -31 -2 -34 -9 -18 -7 16
-9 13 -9 -17 -1 -21 -6 -38 -12 -38 -7 0 -9 -11 -6 -27 5 -25 4 -26 -8 -9 -13
18 -16 16 -54 -23 -22 -22 -47 -41 -55 -41 -9 0 -16 -4 -16 -10 0 -5 -13 -10
-30 -10 -16 0 -30 5 -30 10 0 6 -29 10 -67 10 -48 0 -64 -3 -53 -10 8 -5 38
-10 66 -10 27 0 58 -6 67 -12 15 -11 7 -12 -44 -10 -49 3 -61 1 -57 -10 5 -10
-14 -12 -98 -10 -57 2 -104 7 -104 13 0 5 -25 9 -55 9 -30 0 -55 5 -55 10 0 6
-13 10 -30 10 -16 0 -30 -4 -30 -10 0 -5 9 -10 20 -10 11 0 20 -4 20 -10 0 -5
23 -10 52 -10 52 0 60 -7 18 -15 -59 -11 -18 -15 161 -14 175 0 190 2 154 14
l-40 13 58 1 c31 1 57 6 57 11 0 6 9 10 20 10 11 0 20 5 20 10 0 6 9 10 20 10
11 0 20 5 20 10 0 6 10 10 22 10 21 0 21 0 3 14 -18 13 -18 14 7 9 29 -5 58
14 58 39 0 8 9 20 20 28 13 9 20 26 20 47 0 18 5 33 10 33 6 0 11 30 11 68 1
52 3 60 9 37 7 -27 8 -26 9 15 0 32 -2 41 -9 30 -7 -11 -10 5 -10 53 0 38 -4
67 -10 67 -5 0 -10 9 -10 20 0 11 -4 20 -10 20 -5 0 -10 7 -10 15 0 18 -43 65
-60 65 -5 0 -10 5 -10 10 0 15 -37 12 -43 -3z"/>
<path d="M60 683 c0 -18 5 -33 10 -33 13 0 13 30 0 50 -7 11 -10 7 -10 -17z"/>
<path d="M107 680 c-3 -11 -1 -20 4 -20 5 0 9 9 9 20 0 11 -2 20 -4 20 -2 0
-6 -9 -9 -20z"/>
<path d="M40 618 c0 -32 4 -58 10 -58 13 0 13 80 0 100 -7 11 -10 -2 -10 -42z"/>
<path d="M210 660 c0 -5 9 -10 20 -10 11 0 20 5 20 10 0 6 -9 10 -20 10 -11 0
-20 -4 -20 -10z"/>
<path d="M99 603 c-1 -39 -2 -43 -9 -23 -5 17 -8 -7 -9 -70 0 -65 2 -90 9 -80
7 11 10 7 10 -17 0 -28 3 -33 25 -33 l25 0 0 100 c0 64 4 100 11 100 5 0 7 -4
4 -10 -4 -6 6 -10 22 -10 22 0 25 -2 13 -10 -11 -7 -3 -10 30 -10 33 0 41 -3
30 -10 -11 -7 1 -10 40 -10 39 0 51 -3 40 -10 -12 -8 -11 -10 8 -10 12 0 22
-4 22 -10 0 -5 11 -10 25 -10 14 0 25 -4 25 -10 0 -5 5 -10 10 -10 14 0 12 38
-2 43 -8 2 -9 8 -4 13 5 5 11 4 13 -3 3 -7 9 -13 14 -13 14 0 11 30 -5 46 -17
16 -46 19 -46 4 0 -5 5 -10 10 -10 6 0 10 -4 10 -10 0 -5 -11 -10 -25 -10 -14
0 -25 5 -25 10 0 6 -10 10 -22 10 -21 0 -21 0 -3 14 11 8 25 12 31 9 7 -3 21
0 31 6 16 9 15 10 -9 11 -16 0 -28 5 -28 10 0 6 -9 10 -20 10 -11 0 -20 7 -20
15 0 8 -9 15 -20 15 -11 0 -20 -5 -20 -11 0 -5 -4 -7 -10 -4 -5 3 -10 1 -10
-4 0 -6 12 -11 26 -11 23 0 54 -20 54 -34 0 -3 -19 -6 -42 -6 -32 0 -39 3 -28
10 11 7 6 10 -20 10 -26 0 -31 3 -20 10 11 7 4 10 -27 10 -24 0 -43 5 -43 11
0 5 4 8 8 5 4 -2 14 -1 22 5 11 6 6 9 -17 9 -18 0 -33 5 -33 10 0 6 -11 10
-25 10 -23 0 -25 -4 -26 -47z m44 -15 c-4 -7 -11 -51 -14 -98 l-6 -85 -1 98
c-2 82 0 97 14 97 10 0 12 -4 7 -12z m262 -88 c-3 -5 -12 -10 -18 -10 -7 0 -6
4 3 10 19 12 23 12 15 0z"/>
<path d="M250 640 c0 -5 9 -10 20 -10 11 0 20 5 20 10 0 6 -9 10 -20 10 -11 0
-20 -4 -20 -10z"/>
<path d="M850 640 c0 -5 -15 -10 -32 -10 l-33 -1 25 -14 25 -14 -32 -1 c-18 0
-33 -4 -33 -10 0 -5 -15 -10 -32 -10 -25 0 -29 -3 -18 -10 11 -7 3 -10 -30
-10 -33 0 -41 -3 -30 -10 12 -8 9 -10 -12 -10 -16 0 -28 -4 -28 -10 0 -5 -9
-10 -20 -10 -11 0 -20 5 -20 11 0 6 7 8 16 5 8 -3 12 -2 9 4 -9 14 20 40 44
40 12 0 21 5 21 10 0 6 -11 10 -25 10 -14 0 -25 -4 -25 -10 0 -5 -7 -10 -15
-10 -20 0 -65 -44 -65 -63 0 -8 7 -17 14 -20 10 -4 13 -1 9 9 -6 16 5 18 27 4
10 -6 11 -10 3 -10 -7 0 -13 -4 -13 -10 0 -5 9 -10 20 -10 11 0 20 5 20 10 0
6 11 10 25 10 14 0 25 5 25 10 0 6 15 10 33 10 24 0 28 3 17 10 -11 7 1 10 40
10 39 0 51 3 40 10 -12 8 -9 10 13 10 16 0 26 4 22 10 -4 6 5 10 19 10 26 0
26 -1 25 -77 l-2 -78 -7 67 c-10 102 -20 94 -20 -15 0 -62 4 -97 11 -97 23 0
39 31 40 77 1 39 3 43 9 23 5 -17 8 -1 7 50 0 70 -1 72 -7 25 -7 -49 -7 -48
-8 23 -2 70 -3 72 -27 72 -14 0 -25 -4 -25 -10z"/>
<path d="M650 619 c0 -5 5 -7 10 -4 6 3 10 1 10 -4 0 -6 14 -11 30 -11 17 0
30 5 30 11 0 5 -4 7 -10 4 -5 -3 -10 -1 -10 4 0 6 -13 11 -30 11 -16 0 -30 -5
-30 -11z"/>
<path d="M21 510 c0 -65 2 -90 9 -80 7 11 10 2 10 -32 0 -27 5 -48 10 -48 6 0
10 -8 10 -18 0 -10 9 -24 20 -32 11 -8 20 -20 20 -28 0 -16 24 -42 39 -42 6 0
11 -4 11 -10 0 -5 9 -10 19 -10 11 0 21 -5 23 -12 3 -7 14 -9 34 -3 24 7 26 9
9 13 -11 2 -28 13 -37 24 -10 12 -25 18 -36 16 -15 -4 -18 -1 -14 18 4 25 -12
34 -21 12 -3 -7 -6 -4 -6 7 -1 11 -10 27 -21 35 -11 8 -20 25 -20 37 0 13 -4
23 -10 23 -5 0 -10 18 -10 40 0 22 -4 40 -10 40 -5 0 -10 21 -11 48 -2 97 -17
99 -18 2z"/>
<path d="M460 480 c0 -11 -4 -20 -10 -20 -5 0 -10 -9 -10 -20 0 -11 5 -20 10
-20 6 0 10 -10 11 -22 l0 -23 11 23 c6 12 15 22 20 22 5 0 6 5 3 10 -3 6 1 10
9 10 9 0 16 8 16 19 0 11 6 21 13 24 7 2 8 8 3 13 -5 5 -11 4 -13 -3 -5 -15
-43 -17 -43 -3 0 6 -4 10 -10 10 -5 0 -10 -9 -10 -20z m20 -40 c0 -11 -4 -20
-10 -20 -5 0 -10 9 -10 20 0 11 5 20 10 20 6 0 10 -9 10 -20z"/>
<path d="M564 464 c3 -8 2 -12 -4 -9 -16 10 -43 -23 -37 -45 3 -13 1 -17 -9
-13 -10 3 -14 -2 -14 -18 0 -19 -2 -21 -10 -9 -8 12 -10 9 -10 -12 0 -21 5
-28 20 -28 15 0 20 7 20 25 0 14 5 25 10 25 6 0 10 8 10 18 0 10 9 24 20 32
21 15 27 50 9 50 -6 0 -8 -7 -5 -16z"/>
<path d="M157 382 c-6 -17 -14 -21 -33 -18 -13 3 -24 2 -24 0 0 -12 30 -34 45
-34 22 0 45 -24 45 -48 0 -16 17 -32 36 -32 13 0 1 38 -16 50 -11 8 -20 23
-20 33 0 10 -4 16 -9 12 -5 -3 -11 9 -13 27 -3 30 -4 31 -11 10z"/>
<path d="M831 378 c-1 -23 3 -28 24 -28 14 0 25 4 25 10 0 5 -6 7 -13 4 -8 -3
-18 5 -25 18 -11 23 -11 23 -11 -4z"/>
<path d="M810 331 c0 -10 -5 -21 -12 -23 -8 -3 -8 -9 0 -24 11 -18 11 -18 12
4 0 12 5 22 10 22 6 0 10 6 10 14 0 8 -4 18 -10 21 -5 3 -10 -3 -10 -14z"/>
<path d="M770 270 c0 -11 5 -20 10 -20 6 0 10 9 10 20 0 11 -4 20 -10 20 -5 0
-10 -9 -10 -20z"/>
<path d="M230 240 c0 -5 9 -10 19 -10 11 0 21 -5 23 -12 3 -8 13 -8 34 -3 l29
9 -32 4 c-18 2 -33 7 -33 13 0 5 -9 9 -20 9 -11 0 -20 -4 -20 -10z"/>
<path d="M730 241 c0 -6 -15 -11 -32 -13 l-33 -4 29 -9 c21 -5 31 -5 34 3 2 7
12 12 23 12 10 0 19 5 19 10 0 6 -9 10 -20 10 -11 0 -20 -4 -20 -9z"/>
<path d="M310 200 c0 -13 100 -13 120 0 11 7 -5 10 -52 10 -39 0 -68 -4 -68
-10z"/>
<path d="M455 180 c27 -12 87 -12 105 0 10 7 -6 10 -55 9 -48 0 -64 -3 -50 -9z"/>
</g>
</svg>
