<?xml version="1.0" standalone="no"?>
<!DOCTYPE svg PUBLIC "-//W3C//DTD SVG 20010904//EN"
 "http://www.w3.org/TR/2001/REC-SVG-20010904/DTD/svg10.dtd">
<svg version="1.0" xmlns="http://www.w3.org/2000/svg"
 width="100.000000pt" height="100.000000pt" viewBox="0 0 100.000000 100.000000"
 preserveAspectRatio="xMidYMid meet">
<metadata>
Created by potrace 1.16, written by Peter Selinger 2001-2019
</metadata>
<g transform="translate(0.000000,100.000000) scale(0.100000,-0.100000)"
fill="#000000" stroke="none">
<path d="M40 895 c0 -58 -2 -65 -20 -65 -11 0 -20 -4 -20 -10 0 -5 13 -10 30
-10 27 0 30 -3 30 -30 0 -27 -3 -30 -30 -30 -17 0 -30 -5 -30 -11 0 -7 12 -10
30 -7 26 4 30 1 30 -19 0 -19 -5 -23 -30 -23 -17 0 -30 -5 -30 -11 0 -7 12
-10 30 -7 26 4 30 1 30 -19 0 -19 -5 -23 -30 -23 -17 0 -30 -4 -30 -10 0 -5 9
-10 20 -10 18 0 20 -7 20 -75 0 -68 -2 -75 -20 -75 -11 0 -20 -4 -20 -10 0 -5
9 -10 20 -10 13 0 20 -7 20 -20 0 -13 -7 -20 -20 -20 -11 0 -20 -4 -20 -10 0
-5 13 -10 30 -10 26 0 30 -4 30 -28 0 -26 -3 -28 -30 -24 -18 3 -30 0 -30 -7
0 -6 13 -11 30 -11 l30 0 0 -60 0 -60 -30 0 c-17 0 -30 -4 -30 -10 0 -5 9 -10
20 -10 16 0 20 -7 20 -30 l0 -30 65 0 65 0 0 -35 0 -35 60 0 c53 0 60 -2 60
-20 0 -11 5 -20 10 -20 6 0 10 13 10 30 l0 30 190 0 190 0 0 -30 c0 -17 5 -30
10 -30 6 0 10 9 10 20 0 18 7 20 60 20 l60 0 0 35 0 35 65 0 65 0 0 30 c0 23
4 30 20 30 11 0 20 5 20 10 0 6 -13 10 -30 10 l-30 0 0 60 0 60 30 0 c17 0 30
5 30 11 0 7 -12 10 -30 7 -27 -4 -30 -2 -30 24 0 24 4 28 30 28 17 0 30 5 30
10 0 6 -9 10 -20 10 -19 0 -20 7 -20 105 0 98 1 105 20 105 11 0 20 5 20 10 0
6 -13 10 -30 10 -25 0 -30 4 -30 23 0 20 4 23 30 19 18 -3 30 0 30 7 0 6 -13
11 -30 11 -25 0 -30 4 -30 23 0 20 4 23 30 19 18 -3 30 0 30 7 0 6 -13 11 -30
11 -27 0 -30 3 -30 30 0 27 3 30 30 30 17 0 30 5 30 10 0 6 -9 10 -20 10 -18
0 -20 7 -20 65 l0 65 -115 0 -115 0 0 -45 c0 -25 5 -45 10 -45 6 0 10 -11 10
-24 0 -19 -4 -23 -20 -19 -13 3 -20 14 -20 29 0 13 -4 24 -10 24 -5 0 -10 14
-10 30 l0 30 -190 0 -190 0 0 -35 c0 -30 -3 -35 -23 -35 -20 0 -22 4 -19 45
l4 45 -116 0 -116 0 0 -65z m210 10 l0 -35 -60 0 -60 0 0 -30 c0 -28 -3 -30
-35 -30 l-35 0 0 65 0 65 95 0 95 0 0 -35z m690 -30 l0 -65 -35 0 c-32 0 -35
2 -35 30 l0 30 -60 0 -60 0 0 35 0 35 95 0 95 0 0 -65z m-570 35 c0 -13 -7
-20 -20 -20 -25 0 -27 27 -2 33 9 3 18 5 20 6 1 0 2 -8 2 -19z m300 -6 c0 -8
-10 -14 -25 -14 -18 0 -25 5 -25 19 0 14 6 17 25 13 14 -2 25 -11 25 -18z
m-60 1 c0 -12 -19 -15 -115 -15 -96 0 -115 3 -115 15 0 12 19 15 115 15 96 0
115 -3 115 -15z m80 -55 c0 -15 -7 -20 -25 -20 -14 0 -25 5 -25 10 0 6 -4 10
-10 10 -5 0 -10 -9 -10 -20 0 -19 -7 -20 -125 -20 -118 0 -125 1 -125 20 0 11
-4 20 -10 20 -5 0 -10 -4 -10 -9 0 -5 -9 -11 -20 -14 -16 -4 -20 0 -20 19 l0
24 190 0 c183 0 190 -1 190 -20z m-416 4 c23 -9 20 -24 -4 -24 -11 0 -20 7
-20 15 0 17 2 18 24 9z m-84 -24 c0 -14 -7 -20 -24 -20 -19 0 -23 4 -19 20 3
11 14 20 24 20 12 0 19 -7 19 -20z m40 10 c0 -5 -4 -10 -10 -10 -5 0 -10 5
-10 10 0 6 5 10 10 10 6 0 10 -4 10 -10z m560 0 c0 -5 -4 -10 -10 -10 -5 0
-10 5 -10 10 0 6 5 10 10 10 6 0 10 -4 10 -10z m63 -10 c4 -16 0 -20 -19 -20
-17 0 -24 6 -24 20 0 13 7 20 19 20 10 0 21 -9 24 -20z m-483 -50 l0 -30 -60
0 c-58 0 -60 1 -60 26 l0 26 -25 -23 -24 -24 24 -3 c20 -3 25 -9 25 -33 0 -26
-3 -29 -30 -29 l-30 0 0 60 0 60 90 0 90 0 0 -30z m440 -30 l0 -60 -30 0 c-27
0 -30 3 -30 30 0 26 4 30 26 30 l26 0 -23 25 -24 24 -3 -24 c-3 -24 -7 -25
-68 -25 l-64 0 0 30 0 30 95 0 95 0 0 -60z m-680 20 c0 -15 -7 -20 -25 -20
-18 0 -25 5 -25 20 0 15 7 20 25 20 18 0 25 -5 25 -20z m40 10 c0 -5 -4 -10
-10 -10 -5 0 -10 5 -10 10 0 6 5 10 10 10 6 0 10 -4 10 -10z m430 -20 l0 -30
65 0 c37 0 65 -4 65 -10 0 -6 -28 -10 -65 -10 l-65 0 0 -30 0 -30 -105 0 -105
0 0 30 0 30 -60 0 c-33 0 -60 4 -60 10 0 6 27 10 60 10 l60 0 0 30 0 30 105 0
105 0 0 -30z m250 20 c0 -5 -4 -10 -10 -10 -5 0 -10 5 -10 10 0 6 5 10 10 10
6 0 10 -4 10 -10z m70 -10 c0 -15 -7 -20 -25 -20 -18 0 -25 5 -25 20 0 15 7
20 25 20 18 0 25 -5 25 -20z m-748 -50 c4 -26 1 -30 -19 -30 -19 0 -23 5 -23
30 0 23 5 30 19 30 13 0 20 -9 23 -30z m698 0 c0 -25 -4 -30 -23 -30 -20 0
-23 4 -19 30 3 21 10 30 23 30 14 0 19 -7 19 -30z m-760 -20 c0 -27 3 -30 30
-30 17 0 30 -4 30 -10 0 -5 -20 -10 -45 -10 l-45 0 0 40 c0 29 4 40 15 40 10
0 15 -10 15 -30z m810 -10 c0 -29 -4 -40 -15 -40 -11 0 -15 11 -15 40 0 29 4
40 15 40 11 0 15 -11 15 -40z m-627 -19 c-3 -10 0 -22 6 -25 7 -5 11 3 11 18
0 22 4 26 30 26 27 0 30 -3 30 -30 l0 -30 -90 0 c-89 0 -90 0 -90 25 0 19 4
23 18 18 9 -4 22 -14 29 -22 11 -14 12 -12 13 12 0 22 5 27 24 27 19 0 23 -4
19 -19z m457 -8 c1 -25 2 -26 14 -10 18 23 46 22 46 -3 0 -19 -7 -20 -95 -20
l-95 0 0 30 0 30 65 0 c64 0 65 0 65 -27z m120 -2 c0 -14 -5 -18 -20 -14 -25
7 -26 20 -2 26 9 3 18 5 20 6 1 0 2 -8 2 -18z m-680 -56 c0 -21 -5 -25 -30
-25 -20 0 -30 5 -30 15 0 8 -4 15 -10 15 -5 0 -10 -6 -10 -14 0 -7 -10 -17
-22 -21 -23 -8 -23 -8 2 -12 24 -4 25 -7 22 -63 -3 -51 -7 -59 -25 -63 l-22
-4 23 -8 c31 -10 30 -45 -3 -45 l-25 0 0 125 0 125 65 0 c63 0 65 -1 65 -25z
m430 -10 l0 -35 -86 0 c-60 0 -83 -3 -78 -11 4 -7 25 -9 55 -7 46 5 49 4 49
-18 0 -23 -4 -24 -60 -24 l-60 0 0 30 c0 28 -3 30 -35 30 -33 0 -35 2 -35 35
l0 35 125 0 125 0 0 -35z m320 6 c0 -25 -3 -28 -25 -23 -14 2 -25 11 -25 18 0
8 -4 14 -10 14 -5 0 -10 -7 -10 -15 0 -10 -10 -15 -30 -15 -25 0 -30 4 -30 25
0 24 2 25 65 25 65 0 65 0 65 -29z m-650 -6 c0 -11 -11 -15 -40 -15 -29 0 -40
4 -40 15 0 11 11 15 40 15 29 0 40 -4 40 -15z m60 -15 c0 -16 5 -30 10 -30 6
0 10 -7 10 -15 0 -8 -9 -15 -20 -15 -13 0 -20 7 -20 19 0 11 -4 23 -10 26 -19
12 -11 45 10 45 16 0 20 -7 20 -30z m340 11 c0 -11 -4 -23 -10 -26 -5 -3 -10
-15 -10 -26 0 -14 -7 -19 -25 -19 -16 0 -25 6 -25 15 0 8 5 15 10 15 6 0 10
14 10 30 0 25 4 30 25 30 18 0 25 -5 25 -19z m100 4 c0 -11 -11 -15 -40 -15
-29 0 -40 4 -40 15 0 11 11 15 40 15 29 0 40 -4 40 -15z m-480 -65 l0 -30 -60
0 -60 0 0 -95 0 -95 -30 0 -30 0 0 125 0 125 90 0 90 0 0 -30z m630 -60 c0
-89 0 -90 -25 -90 -33 0 -34 35 -2 45 l22 8 -22 4 c-20 4 -23 11 -23 53 0 27
-4 52 -10 55 -6 4 -10 -37 -10 -114 l0 -121 -30 0 -30 0 0 95 0 95 -60 0 -60
0 0 30 0 30 125 0 125 0 0 -90z m-520 60 c0 -5 -7 -10 -15 -10 -8 0 -15 5 -15
10 0 6 7 10 15 10 8 0 15 -4 15 -10z m180 0 c0 -5 -4 -10 -10 -10 -5 0 -10 5
-10 10 0 6 5 10 10 10 6 0 10 -4 10 -10z m-230 -60 c0 -27 -3 -30 -30 -30 -27
0 -30 3 -30 30 0 27 3 30 30 30 27 0 30 -3 30 -30z m70 6 c0 -19 -4 -22 -24
-19 -13 3 -26 14 -29 24 -4 15 0 19 24 19 24 0 29 -4 29 -24z m163 5 c-3 -11
-13 -21 -24 -24 -15 -4 -19 0 -19 19 0 19 5 24 24 24 19 0 23 -4 19 -19z m87
-11 c0 -28 -3 -30 -35 -30 -32 0 -35 2 -35 30 0 28 3 30 35 30 32 0 35 -2 35
-30z m-400 -20 c0 -27 3 -30 30 -30 27 0 30 -3 30 -30 0 -28 3 -30 35 -30 33
0 35 -2 35 -35 l0 -35 80 0 80 0 0 35 c0 32 2 35 30 35 27 0 30 3 30 30 0 28
3 30 35 30 32 0 35 2 35 30 0 28 2 30 40 30 l40 0 0 -75 0 -75 -30 0 c-27 0
-30 -3 -30 -30 l0 -30 -230 0 -230 0 0 30 c0 27 -3 30 -30 30 l-30 0 0 75 0
75 40 0 c38 0 40 -2 40 -30z m250 20 c0 -5 -18 -10 -40 -10 -22 0 -40 5 -40
10 0 6 18 10 40 10 22 0 40 -4 40 -10z m-100 -60 c0 -28 -3 -30 -35 -30 -32 0
-35 2 -35 30 0 28 3 30 35 30 32 0 35 -2 35 -30z m100 10 c0 -21 -29 -29 -31
-7 0 10 -2 10 -6 0 -8 -21 -43 -15 -43 7 0 17 7 20 40 20 33 0 40 -3 40 -20z
m80 -10 c0 -27 -3 -30 -30 -30 -28 0 -30 -3 -30 -35 l0 -35 -60 0 -60 0 0 35
0 35 60 0 60 0 0 30 c0 27 3 30 30 30 27 0 30 -3 30 -30z m-510 -95 c0 -33 -4
-45 -15 -45 -11 0 -15 12 -15 45 0 33 4 45 15 45 11 0 15 -12 15 -45z m810 0
c0 -33 -4 -45 -15 -45 -11 0 -15 12 -15 45 0 33 4 45 15 45 11 0 15 -12 15
-45z m-670 -35 c0 -27 -3 -30 -30 -30 -27 0 -30 3 -30 30 0 27 3 30 30 30 27
0 30 -3 30 -30z m560 0 c0 -27 -3 -30 -30 -30 -27 0 -30 3 -30 30 0 27 3 30
30 30 27 0 30 -3 30 -30z m-640 -11 c0 -12 -7 -19 -20 -19 -14 0 -20 7 -20 24
0 19 4 23 20 19 11 -3 20 -14 20 -24z m700 6 c0 -20 -5 -25 -24 -25 -19 0 -23
4 -19 19 3 11 12 22 22 24 9 3 17 5 19 6 1 0 2 -10 2 -24z m-740 -49 c0 -19
-4 -22 -24 -19 -13 3 -26 14 -29 24 -4 15 0 19 24 19 24 0 29 -4 29 -24z m620
-6 l0 -30 -250 0 -250 0 0 30 0 30 250 0 250 0 0 -30z m173 11 c-3 -10 -16
-21 -29 -24 -20 -3 -24 0 -24 19 0 20 5 24 29 24 24 0 28 -4 24 -19z m-753
-11 c0 -5 -4 -10 -10 -10 -5 0 -10 5 -10 10 0 6 5 10 10 10 6 0 10 -4 10 -10z
m60 1 c0 -5 -9 -11 -20 -14 -13 -3 -20 0 -20 9 0 8 9 14 20 14 11 0 20 -4 20
-9z m580 -5 c0 -9 -7 -12 -20 -9 -11 3 -20 9 -20 14 0 5 9 9 20 9 11 0 20 -6
20 -14z m40 4 c0 -5 -4 -10 -10 -10 -5 0 -10 5 -10 10 0 6 5 10 10 10 6 0 10
-4 10 -10z m-660 -60 l0 -30 -65 0 -65 0 0 30 0 30 65 0 65 0 0 -30z m60 10
c0 -13 -7 -20 -19 -20 -10 0 -21 9 -24 20 -4 16 0 20 19 20 17 0 24 -6 24 -20z
m543 0 c-3 -11 -14 -20 -24 -20 -12 0 -19 7 -19 20 0 14 7 20 24 20 19 0 23
-4 19 -20z m147 -10 l0 -30 -65 0 -65 0 0 -35 0 -35 -60 0 c-57 0 -60 1 -60
25 0 14 -4 25 -10 25 -5 0 -10 -7 -10 -15 0 -9 -9 -15 -25 -15 -16 0 -25 6
-25 15 0 8 -4 15 -10 15 -5 0 -10 -7 -10 -15 0 -12 -18 -15 -105 -15 -87 0
-105 3 -105 15 0 8 -4 15 -10 15 -5 0 -10 -7 -10 -15 0 -8 -9 -15 -20 -15 -11
0 -20 7 -20 15 0 8 -4 15 -10 15 -5 0 -10 -11 -10 -25 0 -24 -3 -25 -60 -25
l-60 0 0 35 0 35 310 0 310 0 0 30 0 30 65 0 65 0 0 -30z m-650 0 c0 -5 -4
-10 -10 -10 -5 0 -10 5 -10 10 0 6 5 10 10 10 6 0 10 -4 10 -10z m60 0 c0 -5
-9 -10 -20 -10 -11 0 -20 5 -20 10 0 6 9 10 20 10 11 0 20 -4 20 -10z m270 0
c0 -6 -48 -10 -125 -10 -77 0 -125 4 -125 10 0 6 48 10 125 10 77 0 125 -4
125 -10z m70 0 c0 -5 -11 -10 -25 -10 -14 0 -25 5 -25 10 0 6 11 10 25 10 14
0 25 -4 25 -10z m40 0 c0 -5 -4 -10 -10 -10 -5 0 -10 5 -10 10 0 6 5 10 10 10
6 0 10 -4 10 -10z"/>
<path d="M190 911 c0 -12 5 -21 10 -21 6 0 10 6 10 14 0 8 -4 18 -10 21 -5 3
-10 -3 -10 -14z"/>
<path d="M130 905 c0 -8 5 -15 10 -15 6 0 10 7 10 15 0 8 -4 15 -10 15 -5 0
-10 -7 -10 -15z"/>
<path d="M80 860 c0 -5 6 -10 14 -10 8 0 18 5 21 10 3 6 -3 10 -14 10 -12 0
-21 -4 -21 -10z"/>
<path d="M795 917 c-4 -10 -5 -21 -1 -24 10 -10 18 4 13 24 -4 17 -4 17 -12 0z"/>
<path d="M850 905 c0 -8 5 -15 10 -15 6 0 10 7 10 15 0 8 -4 15 -10 15 -5 0
-10 -7 -10 -15z"/>
<path d="M885 860 c3 -5 13 -10 21 -10 8 0 14 5 14 10 0 6 -9 10 -21 10 -11 0
-17 -4 -14 -10z"/>
<path d="M290 780 c0 -5 5 -10 10 -10 6 0 10 5 10 10 0 6 -4 10 -10 10 -5 0
-10 -4 -10 -10z"/>
<path d="M690 780 c0 -5 5 -10 10 -10 6 0 10 5 10 10 0 6 -4 10 -10 10 -5 0
-10 -4 -10 -10z"/>
<path d="M690 659 c0 -11 5 -17 10 -14 6 3 10 13 10 21 0 8 -4 14 -10 14 -5 0
-10 -9 -10 -21z"/>
<path d="M420 601 c0 -11 5 -23 10 -26 6 -4 10 5 10 19 0 14 -4 26 -10 26 -5
0 -10 -9 -10 -19z"/>
<path d="M560 594 c0 -14 4 -23 10 -19 6 3 10 15 10 26 0 10 -4 19 -10 19 -5
0 -10 -12 -10 -26z"/>
<path d="M190 524 c0 -8 5 -12 10 -9 6 3 10 10 10 16 0 5 -4 9 -10 9 -5 0 -10
-7 -10 -16z"/>
<path d="M250 524 c0 -8 5 -12 10 -9 6 3 10 10 10 16 0 5 -4 9 -10 9 -5 0 -10
-7 -10 -16z"/>
<path d="M150 510 c0 -5 7 -10 16 -10 8 0 12 5 9 10 -3 6 -10 10 -16 10 -5 0
-9 -4 -9 -10z"/>
<path d="M150 430 c0 -5 5 -10 10 -10 6 0 10 5 10 10 0 6 -4 10 -10 10 -5 0
-10 -4 -10 -10z"/>
<path d="M150 370 c0 -5 5 -10 10 -10 6 0 10 5 10 10 0 6 -4 10 -10 10 -5 0
-10 -4 -10 -10z"/>
<path d="M730 531 c0 -6 5 -13 10 -16 6 -3 10 1 10 9 0 9 -4 16 -10 16 -5 0
-10 -4 -10 -9z"/>
<path d="M790 531 c0 -6 5 -13 10 -16 6 -3 10 1 10 9 0 9 -4 16 -10 16 -5 0
-10 -4 -10 -9z"/>
<path d="M825 510 c-3 -5 1 -10 9 -10 9 0 16 5 16 10 0 6 -4 10 -9 10 -6 0
-13 -4 -16 -10z"/>
<path d="M830 430 c0 -5 5 -10 10 -10 6 0 10 5 10 10 0 6 -4 10 -10 10 -5 0
-10 -4 -10 -10z"/>
<path d="M830 370 c0 -5 5 -10 10 -10 6 0 10 5 10 10 0 6 -4 10 -10 10 -5 0
-10 -4 -10 -10z"/>
<path d="M296 231 c-4 -7 -5 -15 -2 -18 9 -9 19 4 14 18 -4 11 -6 11 -12 0z"/>
<path d="M690 226 c0 -9 5 -16 10 -16 6 0 10 4 10 9 0 6 -4 13 -10 16 -5 3
-10 -1 -10 -9z"/>
<path d="M350 220 c0 -5 5 -10 10 -10 6 0 10 5 10 10 0 6 -4 10 -10 10 -5 0
-10 -4 -10 -10z"/>
<path d="M620 220 c0 -5 5 -10 10 -10 6 0 10 5 10 10 0 6 -4 10 -10 10 -5 0
-10 -4 -10 -10z"/>
<path d="M130 160 c0 -19 3 -21 12 -12 9 9 9 15 0 24 -9 9 -12 7 -12 -12z"/>
<path d="M854 169 c-3 -6 -1 -16 5 -22 8 -8 11 -5 11 11 0 24 -5 28 -16 11z"/>
<path d="M250 95 c0 -8 5 -15 10 -15 6 0 10 7 10 15 0 8 -4 15 -10 15 -5 0
-10 -7 -10 -15z"/>
<path d="M730 95 c0 -8 5 -15 10 -15 6 0 10 7 10 15 0 8 -4 15 -10 15 -5 0
-10 -7 -10 -15z"/>
<path d="M0 260 c0 -5 12 -10 26 -10 14 0 23 4 19 10 -8 13 -45 13 -45 0z"/>
<path d="M955 260 c-4 -6 5 -10 19 -10 14 0 26 5 26 10 0 6 -9 10 -19 10 -11
0 -23 -4 -26 -10z"/>
<path d="M920 40 c0 -22 5 -40 10 -40 6 0 10 13 10 30 0 27 3 30 30 30 17 0
30 5 30 10 0 6 -18 10 -40 10 l-40 0 0 -40z"/>
</g>
</svg>
