<?xml version="1.0" standalone="no"?>
<!DOCTYPE svg PUBLIC "-//W3C//DTD SVG 20010904//EN"
 "http://www.w3.org/TR/2001/REC-SVG-20010904/DTD/svg10.dtd">
<svg version="1.0" xmlns="http://www.w3.org/2000/svg"
 width="100.000000pt" height="100.000000pt" viewBox="0 0 100.000000 100.000000"
 preserveAspectRatio="xMidYMid meet">
<metadata>
Created by potrace 1.16, written by Peter Selinger 2001-2019
</metadata>
<g transform="translate(0.000000,100.000000) scale(0.100000,-0.100000)"
fill="#000000" stroke="none">
<path d="M290 910 c0 -17 -7 -20 -45 -20 -33 0 -45 -4 -45 -15 0 -10 -10 -15
-30 -15 -20 0 -30 -5 -30 -15 0 -10 -11 -15 -35 -15 -24 0 -35 -5 -35 -15 0
-8 -7 -15 -15 -15 -10 0 -15 -10 -15 -30 0 -20 -5 -30 -15 -30 -9 0 -15 -9
-15 -24 0 -13 -3 -31 -6 -40 -4 -11 -1 -16 10 -16 11 0 16 9 16 30 0 20 5 30
15 30 10 0 15 10 15 30 0 20 5 30 15 30 10 0 15 -10 15 -30 0 -21 5 -30 16
-30 8 0 12 5 9 10 -7 11 18 40 34 40 6 0 11 5 11 10 0 7 -13 8 -35 4 -28 -5
-35 -3 -35 10 0 12 9 16 35 16 24 0 35 5 35 15 0 10 10 15 30 15 20 0 30 5 30
15 0 11 12 15 45 15 38 0 45 3 45 20 0 19 7 20 190 20 183 0 190 -1 190 -20 0
-18 7 -20 60 -20 47 0 60 -3 60 -15 0 -8 7 -15 15 -15 8 0 15 -7 15 -15 0 -10
11 -15 35 -15 24 0 35 -5 35 -15 0 -8 -9 -15 -20 -15 -11 0 -20 -7 -20 -15 0
-10 -10 -15 -30 -15 -20 0 -30 5 -30 15 0 10 -10 15 -30 15 -20 0 -30 -5 -30
-15 0 -8 -7 -15 -15 -15 -8 0 -15 7 -15 15 0 10 -10 15 -30 15 -20 0 -30 5
-30 15 0 13 -24 15 -160 15 -136 0 -160 -2 -160 -15 0 -10 -10 -15 -30 -15
-20 0 -30 -5 -30 -15 0 -8 -7 -15 -15 -15 -8 0 -15 7 -15 15 0 10 -10 15 -30
15 -20 0 -30 -5 -30 -15 0 -10 -10 -15 -30 -15 -27 0 -30 -3 -30 -30 l0 -30
60 0 c47 0 60 -3 60 -15 0 -10 10 -15 30 -15 20 0 30 -5 30 -15 0 -10 10 -15
30 -15 23 0 30 -4 30 -20 0 -16 7 -20 35 -20 24 0 35 -5 35 -15 0 -8 7 -15 15
-15 8 0 15 -7 15 -15 0 -19 -29 -19 -36 0 -8 19 -24 19 -24 0 0 -8 -8 -15 -17
-15 -14 0 -15 -2 -4 -12 11 -10 14 -10 18 0 7 17 33 15 33 -3 0 -10 -11 -15
-35 -15 -24 0 -35 -5 -35 -15 0 -10 -10 -15 -30 -15 -20 0 -30 5 -30 15 0 10
10 15 30 15 20 0 30 5 30 15 0 10 -10 15 -30 15 -20 0 -30 -5 -30 -15 0 -11
-12 -15 -45 -15 -33 0 -45 4 -45 15 0 11 12 15 45 15 25 0 45 4 45 10 0 5 7 7
15 4 8 -4 15 -1 15 6 0 8 9 10 28 6 l27 -7 -25 20 c-20 16 -26 17 -28 6 -5
-21 -92 -21 -92 0 0 11 -12 15 -45 15 -35 0 -45 4 -45 16 0 14 3 14 15 4 12
-10 15 -10 15 4 0 11 -9 16 -30 16 -20 0 -30 5 -30 15 0 8 -9 15 -20 15 -19 0
-20 -7 -20 -140 l0 -140 29 0 c25 0 28 3 24 24 -3 16 -10 23 -19 19 -8 -3 -14
0 -14 6 0 6 5 11 10 11 6 0 10 27 10 60 l0 60 39 0 c22 0 45 2 53 3 7 2 10 2
6 0 -5 -3 -8 -11 -8 -19 0 -9 -11 -14 -30 -14 l-30 0 0 -75 c0 -60 3 -75 15
-75 10 0 15 -11 15 -35 0 -24 5 -35 15 -35 8 0 15 -7 15 -15 0 -8 7 -15 15
-15 8 0 15 -7 15 -15 0 -8 7 -15 15 -15 8 0 15 -7 15 -15 0 -10 10 -15 30 -15
20 0 30 -5 30 -15 0 -13 24 -15 160 -15 136 0 160 2 160 15 0 10 10 15 30 15
20 0 30 5 30 15 0 10 10 15 30 15 20 0 30 5 30 15 0 8 7 15 15 15 10 0 15 10
15 30 0 20 5 30 15 30 12 0 15 14 15 65 0 51 3 65 15 65 10 0 15 10 15 30 0
29 -2 30 -45 30 -32 0 -45 4 -45 14 0 8 -3 16 -7 19 -5 2 -2 2 5 0 8 -1 31 -3
53 -3 28 0 39 -4 39 -15 0 -8 9 -15 20 -15 17 0 20 7 20 50 l0 50 -65 0 c-53
0 -65 3 -65 16 0 14 8 16 43 11 42 -5 42 -5 12 9 -42 18 -50 17 -62 -9 -8 -17
-7 -25 3 -35 8 -7 19 -10 24 -7 6 3 10 1 10 -6 0 -8 4 -8 15 1 12 10 15 10 15
-4 0 -13 -12 -16 -62 -17 -35 -1 -55 -3 -45 -6 33 -9 16 -23 -28 -23 -26 0
-45 -5 -45 -11 0 -6 7 -9 15 -5 8 3 15 1 15 -4 0 -6 20 -10 45 -10 33 0 45 -4
45 -15 0 -11 -12 -15 -45 -15 -33 0 -45 4 -45 15 0 10 -11 15 -35 15 -24 0
-35 -5 -35 -15 0 -10 11 -15 35 -15 24 0 35 -5 35 -15 0 -10 -11 -15 -35 -15
-24 0 -35 5 -35 15 0 8 -7 15 -15 15 -8 0 -15 -7 -15 -15 0 -8 7 -15 15 -15 8
0 15 -7 15 -15 0 -8 -7 -15 -15 -15 -8 0 -15 7 -15 15 0 8 -7 15 -15 15 -8 0
-15 -7 -15 -15 0 -8 -7 -15 -15 -15 -8 0 -15 7 -15 15 0 8 -9 15 -20 15 -13 0
-18 5 -14 15 4 8 12 15 20 15 9 0 14 11 14 30 0 20 5 30 15 30 8 0 15 7 15 15
0 10 10 15 30 15 23 0 30 4 30 20 0 16 7 20 35 20 24 0 35 5 35 15 0 10 10 15
30 15 20 0 30 5 30 15 0 8 7 15 15 15 8 0 15 7 15 15 0 8 -7 15 -15 15 -8 0
-15 7 -15 15 0 8 7 15 15 15 8 0 15 -7 15 -15 0 -8 7 -15 15 -15 8 0 15 -7 15
-15 0 -10 10 -15 30 -15 20 0 30 5 30 15 0 8 9 15 20 15 16 0 20 7 20 30 0 20
5 30 15 30 10 0 15 -10 15 -30 0 -20 5 -30 15 -30 10 0 15 -10 15 -30 0 -21 5
-30 16 -30 11 0 14 5 10 16 -3 9 -6 27 -6 40 0 15 -6 24 -15 24 -10 0 -15 10
-15 30 0 20 -5 30 -15 30 -8 0 -15 7 -15 15 0 10 -11 15 -35 15 -24 0 -35 5
-35 15 0 8 -7 15 -15 15 -8 0 -15 7 -15 15 0 12 -13 15 -60 15 -53 0 -60 2
-60 20 0 19 -7 20 -210 20 -203 0 -210 -1 -210 -20z m350 -135 c0 -10 10 -15
30 -15 20 0 30 -5 30 -15 0 -8 7 -15 15 -15 9 0 15 -9 15 -25 0 -21 -5 -25
-30 -25 -20 0 -30 -5 -30 -15 0 -10 -11 -15 -35 -15 -28 0 -35 -4 -35 -20 0
-16 -7 -20 -30 -20 -20 0 -30 -5 -30 -15 0 -8 -7 -15 -15 -15 -8 0 -15 -7 -15
-15 0 -8 -4 -15 -10 -15 -5 0 -10 7 -10 15 0 8 -7 15 -15 15 -8 0 -15 7 -15
15 0 10 -11 15 -35 15 -28 0 -35 4 -35 20 0 16 -7 20 -30 20 -20 0 -30 5 -30
15 0 10 -10 15 -30 15 -25 0 -30 4 -30 25 0 16 6 25 15 25 8 0 15 7 15 15 0
10 10 15 30 15 20 0 30 5 30 15 0 13 22 15 140 15 118 0 140 -2 140 -15z
m-390 -40 c0 -8 -6 -15 -14 -15 -8 0 -16 -5 -18 -12 -3 -8 -9 -8 -24 0 -18 11
-18 11 4 12 13 0 22 6 22 15 0 8 7 15 15 15 8 0 15 -7 15 -15z m-90 -25 c0 -5
-2 -10 -4 -10 -3 0 -8 5 -11 10 -3 6 -1 10 4 10 6 0 11 -4 11 -10z m-27 -114
c6 -15 -1 -26 -15 -26 -4 0 -8 9 -8 20 0 23 15 27 23 6z m757 -16 c0 -5 -4
-10 -9 -10 -6 0 -13 5 -16 10 -3 6 1 10 9 10 9 0 16 -4 16 -10z m-390 -65 c0
-8 -7 -15 -15 -15 -10 0 -15 -10 -15 -30 0 -27 3 -30 30 -30 20 0 30 -5 30
-15 0 -8 7 -15 15 -15 10 0 15 -11 15 -35 0 -24 -5 -35 -15 -35 -8 0 -15 -7
-15 -15 0 -10 -10 -15 -30 -15 -28 0 -30 3 -30 35 0 24 -5 35 -15 35 -8 0 -15
7 -15 15 0 8 -7 15 -15 15 -8 0 -15 7 -15 15 0 8 -9 15 -20 15 -11 0 -20 7
-20 15 0 10 10 15 30 15 17 0 30 -5 30 -12 0 -7 12 -24 27 -38 25 -24 26 -24
14 -2 -6 12 -16 22 -21 22 -6 0 -10 14 -10 30 0 20 5 30 15 30 8 0 15 7 15 15
0 8 7 15 15 15 8 0 15 -7 15 -15z m-300 -20 c0 -11 12 -15 45 -15 33 0 45 -4
45 -15 0 -10 10 -15 30 -15 20 0 30 -5 30 -15 0 -8 9 -15 20 -15 11 0 20 -7
20 -15 0 -8 7 -15 15 -15 8 0 15 -7 15 -15 0 -8 7 -15 15 -15 10 0 15 -11 15
-35 l0 -35 50 0 c38 0 50 4 50 15 0 8 7 15 15 15 10 0 15 11 15 35 0 24 5 35
15 35 8 0 15 7 15 15 0 8 7 15 15 15 8 0 15 7 15 15 0 10 11 15 35 15 24 0 35
5 35 15 0 11 12 15 45 15 33 0 45 4 45 15 0 9 9 15 25 15 14 0 25 -4 25 -10 0
-5 -7 -10 -15 -10 -12 0 -15 -14 -15 -65 0 -51 -3 -65 -15 -65 -10 0 -15 -10
-15 -30 0 -20 -5 -30 -15 -30 -8 0 -15 -7 -15 -15 0 -10 -10 -15 -30 -15 -20
0 -30 -5 -30 -15 0 -10 -10 -15 -30 -15 -20 0 -30 -5 -30 -15 0 -13 -22 -15
-140 -15 -118 0 -140 2 -140 15 0 10 -10 15 -30 15 -20 0 -30 5 -30 15 0 8 -7
15 -15 15 -8 0 -15 7 -15 15 0 8 -7 15 -15 15 -8 0 -15 7 -15 15 0 8 -7 15
-15 15 -10 0 -15 11 -15 35 0 24 -5 35 -15 35 -12 0 -15 13 -15 55 0 30 5 55
10 55 6 0 10 -7 10 -15z m390 -70 c0 -8 -7 -15 -15 -15 -8 0 -15 7 -15 15 0 8
7 15 15 15 8 0 15 -7 15 -15z m-460 -25 c0 -5 -4 -10 -9 -10 -6 0 -13 5 -16
10 -3 6 1 10 9 10 9 0 16 -4 16 -10z"/>
<path d="M500 400 c0 -5 5 -10 10 -10 6 0 10 5 10 10 0 6 -4 10 -10 10 -5 0
-10 -4 -10 -10z"/>
<path d="M500 349 c0 -27 2 -29 15 -15 8 8 15 22 15 30 0 9 -7 16 -15 16 -10
0 -15 -10 -15 -31z"/>
<path d="M340 880 c0 -6 32 -10 80 -10 44 0 80 4 80 8 0 4 -36 9 -80 10 -49 1
-80 -2 -80 -8z"/>
<path d="M514 878 c-3 -4 6 -8 20 -8 14 0 26 4 26 9 0 11 -39 10 -46 -1z"/>
<path d="M573 878 c-2 -5 19 -8 46 -8 28 0 51 4 51 8 0 11 -90 10 -97 0z"/>
<path d="M240 846 c0 -8 51 -13 56 -5 3 5 -9 9 -25 9 -17 0 -31 -2 -31 -4z"/>
<path d="M748 843 c7 -3 16 -2 19 1 4 3 -2 6 -13 5 -11 0 -14 -3 -6 -6z"/>
<path d="M310 824 c0 -15 -9 -16 -67 -12 -38 3 -58 3 -45 1 12 -2 22 -8 22
-13 0 -5 7 -7 15 -4 8 4 15 1 15 -6 0 -16 51 -4 66 16 17 21 351 22 368 0 15
-20 66 -32 66 -16 0 7 7 10 15 6 8 -3 15 -1 15 4 0 6 -20 10 -45 10 -33 0 -45
4 -45 15 0 13 -28 15 -190 15 -170 0 -190 -2 -190 -16z"/>
<path d="M810 800 c0 -5 9 -14 19 -20 30 -15 33 -12 11 10 -22 22 -30 25 -30
10z"/>
<path d="M910 690 c0 -19 3 -21 12 -12 9 9 9 15 0 24 -9 9 -12 7 -12 -12z"/>
<path d="M49 668 c-3 -21 -1 -38 3 -38 4 0 8 -8 8 -17 0 -9 2 -14 4 -12 3 3 2
27 -3 54 l-7 50 -5 -37z"/>
<path d="M942 670 c0 -19 2 -27 5 -17 2 9 2 25 0 35 -3 9 -5 1 -5 -18z"/>
<path d="M151 661 c-10 -6 1 -8 30 -4 24 3 46 7 48 9 10 9 -65 3 -78 -5z"/>
<path d="M870 650 c0 -5 9 -10 20 -10 11 0 20 5 20 10 0 6 -9 10 -20 10 -11 0
-20 -4 -20 -10z"/>
<path d="M216 634 c-8 -22 -4 -25 11 -9 7 8 9 16 4 19 -5 3 -12 -1 -15 -10z"/>
<path d="M10 629 c11 -8 12 -12 2 -16 -17 -7 -15 -23 3 -23 9 0 15 9 15 25 0
17 -5 25 -17 25 -16 0 -16 -2 -3 -11z"/>
<path d="M250 625 c0 -8 2 -15 4 -15 2 0 6 7 10 15 3 8 1 15 -4 15 -6 0 -10
-7 -10 -15z"/>
<path d="M281 618 c-1 -14 -7 -28 -13 -31 -7 -2 3 -3 22 -2 19 1 36 8 38 15 3
9 -1 11 -12 7 -12 -5 -20 0 -26 16 -8 21 -9 21 -9 -5z"/>
<path d="M712 620 c0 -14 2 -19 5 -12 2 6 2 18 0 25 -3 6 -5 1 -5 -13z"/>
<path d="M950 590 c12 -24 20 -59 20 -90 0 -27 5 -50 10 -50 6 0 11 6 11 13 5
46 4 67 -4 67 -5 0 -4 7 3 15 10 12 10 15 -4 15 -12 0 -16 9 -16 35 0 28 -4
35 -20 35 l-20 0 20 -40z"/>
<path d="M640 600 c0 -5 5 -10 10 -10 6 0 10 5 10 10 0 6 -4 10 -10 10 -5 0
-10 -4 -10 -10z"/>
<path d="M680 601 c0 -6 4 -13 10 -16 6 -3 7 1 4 9 -7 18 -14 21 -14 7z"/>
<path d="M61 499 c1 -84 2 -89 10 -49 9 43 5 127 -6 138 -3 3 -5 -37 -4 -89z"/>
<path d="M926 553 c-5 -24 -12 -40 -17 -38 -4 3 -10 1 -14 -5 -3 -5 2 -10 12
-10 17 -1 17 -2 -1 -15 -11 -8 -16 -15 -10 -16 5 0 -2 -5 -16 -12 -24 -11 -23
-11 18 -15 l42 -3 0 -60 c0 -54 2 -59 15 -45 20 20 21 106 0 106 -11 0 -15 18
-17 78 -3 72 -4 74 -12 35z m4 -87 c0 -3 -4 -8 -10 -11 -5 -3 -10 -1 -10 4 0
6 5 11 10 11 6 0 10 -2 10 -4z"/>
<path d="M5 570 c-3 -5 3 -10 15 -10 12 0 18 5 15 10 -3 6 -10 10 -15 10 -5 0
-12 -4 -15 -10z"/>
<path d="M587 563 c-12 -12 -7 -22 8 -17 8 4 15 10 15 15 0 11 -14 12 -23 2z"/>
<path d="M12 541 c-11 -7 -11 -9 2 -14 10 -4 16 -1 16 8 0 17 -1 17 -18 6z"/>
<path d="M551 524 c0 -11 3 -14 6 -6 3 7 2 16 -1 19 -3 4 -6 -2 -5 -13z"/>
<path d="M590 519 c0 -5 5 -7 10 -4 6 3 10 8 10 11 0 2 -4 4 -10 4 -5 0 -10
-5 -10 -11z"/>
<path d="M7 493 c7 -2 19 -2 26 0 6 3 1 5 -13 5 -14 0 -19 -2 -13 -5z"/>
<path d="M550 490 c0 -5 4 -10 9 -10 6 0 13 5 16 10 3 6 -1 10 -9 10 -9 0 -16
-4 -16 -10z"/>
<path d="M7 463 c7 -2 19 -2 26 0 6 3 1 5 -13 5 -14 0 -19 -2 -13 -5z"/>
<path d="M0 436 c0 -2 9 -6 20 -9 11 -3 20 -1 20 4 0 5 -9 9 -20 9 -11 0 -20
-2 -20 -4z"/>
<path d="M870 420 c0 -5 9 -10 20 -10 11 0 20 5 20 10 0 6 -9 10 -20 10 -11 0
-20 -4 -20 -10z"/>
<path d="M0 395 c0 -8 7 -15 15 -15 8 0 15 -6 15 -13 0 -7 14 -21 30 -30 17
-10 30 -13 30 -8 0 6 16 11 35 11 32 0 35 -2 35 -30 0 -16 -5 -30 -12 -30 -6
0 -9 -2 -6 -5 3 -3 12 -3 20 0 15 6 17 25 4 62 -7 22 -36 40 -36 22 0 -6 -7
-6 -20 1 -16 9 -20 8 -20 -5 0 -30 -28 -14 -34 20 -6 29 -11 35 -31 35 -16 0
-25 -6 -25 -15z"/>
<path d="M858 368 c-3 -16 -1 -28 4 -28 4 0 8 9 8 20 0 13 7 20 20 20 17 0 20
-7 20 -50 0 -43 -3 -50 -20 -50 -11 0 -20 -7 -20 -15 0 -8 -7 -15 -15 -15 -8
0 -15 -7 -15 -15 0 -8 -7 -15 -15 -15 -8 0 -15 -7 -15 -15 0 -8 -7 -15 -15
-15 -8 0 -15 -7 -15 -15 0 -11 -12 -15 -45 -15 -33 0 -45 4 -45 15 0 19 56 21
63 3 2 -8 8 -9 13 -4 5 5 4 11 -3 13 -7 3 -14 14 -14 26 -1 17 -2 18 -6 5 -3
-11 -14 -18 -28 -18 -13 0 -30 -6 -37 -14 -20 -20 -428 -29 -428 -10 0 9 -11
14 -30 14 -20 0 -30 -5 -30 -15 0 -8 -7 -15 -15 -15 -8 0 -15 7 -15 15 0 8 7
15 15 15 8 0 15 7 15 15 0 8 -7 15 -15 15 -8 0 -15 -7 -15 -15 0 -10 -11 -15
-35 -15 -24 0 -35 5 -35 15 0 10 11 15 35 15 25 0 35 4 35 16 0 12 -7 15 -27
10 -16 -3 -22 -3 -15 0 19 9 14 34 -7 34 -10 0 -24 -7 -31 -15 -9 -10 -9 -15
-1 -15 6 0 11 -7 11 -15 0 -8 -7 -15 -15 -15 -10 0 -15 10 -15 30 0 20 -5 30
-15 30 -10 0 -15 10 -15 30 0 21 -5 30 -16 30 -11 0 -14 -5 -10 -16 3 -9 6
-27 6 -40 0 -15 6 -24 15 -24 10 0 15 -10 15 -30 0 -20 5 -30 15 -30 8 0 15
-7 15 -15 0 -10 11 -15 35 -15 24 0 35 -5 35 -15 0 -8 7 -15 15 -15 8 0 15 -7
15 -15 0 -11 12 -15 45 -15 38 0 45 -3 45 -20 0 -19 7 -20 240 -20 233 0 240
1 240 20 0 17 7 20 45 20 33 0 45 4 45 15 0 8 7 15 15 15 8 0 15 7 15 15 0 10
11 15 35 15 24 0 35 5 35 15 0 8 7 15 15 15 10 0 15 10 15 30 0 20 5 30 15 30
9 0 15 9 15 24 0 13 3 31 6 40 4 11 1 16 -10 16 -11 0 -16 -9 -16 -30 0 -20
-5 -30 -15 -30 -10 0 -15 -10 -15 -30 0 -20 -5 -30 -15 -30 -8 0 -15 -7 -15
-15 0 -10 -11 -15 -35 -15 -24 0 -35 -5 -35 -15 0 -8 -7 -15 -15 -15 -26 0
-16 28 14 41 16 7 28 16 25 20 -2 4 6 5 18 1 21 -5 22 -4 8 13 -14 17 -13 18
3 12 14 -5 20 -2 24 13 3 11 9 20 14 20 5 0 9 7 9 15 0 8 -5 15 -11 15 -5 0
-8 4 -5 8 3 5 1 25 -5 44 -8 29 -14 36 -33 34 -19 -1 -25 -8 -28 -28z m-583
-228 c8 -6 24 -9 37 -6 13 3 17 3 11 0 -7 -3 -13 -11 -13 -17 0 -9 52 -12 190
-12 131 0 190 3 190 11 0 6 23 18 51 27 63 21 69 21 69 2 0 -11 -12 -15 -45
-15 -38 0 -45 -3 -45 -20 0 -19 -7 -20 -220 -20 -213 0 -220 1 -220 20 0 17
-7 20 -45 20 -33 0 -45 4 -45 15 0 12 9 14 36 11 19 -3 42 -10 49 -16z m415 5
c0 -13 -26 -15 -175 -15 -149 0 -175 2 -175 15 0 13 26 15 175 15 149 0 175
-2 175 -15z"/>
<path d="M121 311 c-8 -5 -9 -11 -3 -15 5 -3 12 1 16 9 6 17 6 18 -13 6z"/>
<path d="M830 304 c0 -10 5 -26 10 -34 8 -11 9 -7 4 15 -8 37 -14 45 -14 19z"/>
<path d="M60 295 c0 -8 7 -15 15 -15 8 0 15 7 15 15 0 8 -7 15 -15 15 -8 0
-15 -7 -15 -15z"/>
<path d="M870 299 c0 -5 5 -7 10 -4 6 3 10 8 10 11 0 2 -4 4 -10 4 -5 0 -10
-5 -10 -11z"/>
<path d="M189 269 c-5 -22 -3 -25 13 -21 20 5 26 -24 6 -30 -9 -3 -9 -6 0 -12
7 -4 12 -2 12 3 0 6 10 12 23 12 16 1 18 2 5 6 -10 2 -18 11 -18 19 0 8 -6 14
-14 14 -8 0 -16 8 -18 18 -3 12 -6 10 -9 -9z"/>
<path d="M810 239 c0 -5 5 -7 10 -4 6 3 10 8 10 11 0 2 -4 4 -10 4 -5 0 -10
-5 -10 -11z"/>
<path d="M276 191 c-3 -4 6 -6 19 -3 14 2 25 6 25 8 0 8 -39 4 -44 -5z"/>
</g>
</svg>
