<?xml version="1.0" standalone="no"?>
<!DOCTYPE svg PUBLIC "-//W3C//DTD SVG 20010904//EN"
 "http://www.w3.org/TR/2001/REC-SVG-20010904/DTD/svg10.dtd">
<svg version="1.0" xmlns="http://www.w3.org/2000/svg"
 width="256.000000pt" height="256.000000pt" viewBox="0 0 256.000000 256.000000"
 preserveAspectRatio="xMidYMid meet">
<metadata>
Created by potrace 1.16, written by Peter Selinger 2001-2019
</metadata>
<g transform="translate(0.000000,256.000000) scale(0.100000,-0.100000)"
fill="#000000" stroke="none">
<path d="M787 2253 c-4 -3 -7 -21 -7 -40 l0 -33 -120 0 -120 0 0 -40 0 -39
-77 -3 -78 -3 -3 -37 c-3 -37 -4 -38 -43 -38 -39 0 -39 0 -39 -40 l0 -40 -40
0 c-40 0 -40 0 -40 -39 0 -39 -1 -40 -37 -43 l-38 -3 -3 -77 -3 -78 -39 0 -40
0 0 -80 0 -80 -30 0 c-17 0 -30 -4 -30 -10 0 -5 13 -10 30 -10 27 0 30 -3 30
-30 0 -27 -3 -30 -30 -30 -17 0 -30 -4 -30 -10 0 -5 13 -10 30 -10 28 0 30 -3
30 -34 0 -32 -3 -35 -32 -39 l-33 -4 33 -1 32 -2 0 -79 0 -80 -32 -4 -33 -4
33 -1 c30 -2 32 -5 32 -36 0 -32 -3 -35 -32 -39 l-33 -4 33 -1 c30 -2 32 -5
32 -37 0 -32 -2 -35 -30 -35 -17 0 -30 -4 -30 -10 0 -5 13 -10 30 -10 27 0 30
-3 30 -30 0 -27 -3 -30 -30 -30 -17 0 -30 -4 -30 -10 0 -5 13 -10 30 -10 l30
0 0 -80 0 -80 40 0 40 0 0 -40 0 -40 45 0 45 0 -6 -67 c-3 -38 -1 -86 4 -108
9 -37 10 -35 11 38 l1 77 29 0 c26 0 29 -3 33 -40 3 -38 2 -40 -25 -40 -16 0
-26 -4 -22 -10 3 -5 14 -10 24 -10 13 0 20 -9 23 -30 4 -28 2 -30 -26 -31
l-31 -1 30 -8 c17 -4 47 -8 68 -9 34 -1 37 -4 37 -29 0 -46 15 -52 132 -52
l108 0 0 -28 c0 -49 12 -52 176 -52 l153 0 4 -27 4 -28 2 28 c1 23 5 27 30 27
24 0 29 -5 33 -30 4 -28 2 -30 -26 -31 l-31 -1 30 -8 c17 -4 157 -8 312 -9
306 -1 313 0 313 55 l0 24 148 0 c160 0 172 4 172 52 0 28 0 28 68 28 75 0 92
10 92 51 0 25 4 28 38 31 35 3 37 5 40 41 3 31 7 37 27 37 19 0 24 -6 27 -33
3 -29 6 -32 38 -33 35 -1 35 -1 3 3 -29 4 -33 8 -33 33 0 16 5 32 10 35 6 3
10 22 10 41 0 31 2 34 30 34 17 0 30 5 30 10 0 6 -13 10 -30 10 -27 0 -30 3
-30 30 0 27 3 30 30 30 24 0 30 -4 31 -22 1 -18 3 -16 10 10 8 27 14 32 39 32
l30 0 2 -72 1 -73 6 65 c6 62 7 65 36 71 29 6 29 7 -7 8 -35 1 -38 3 -38 31 0
25 5 31 33 39 29 8 29 9 7 10 -24 1 -25 4 -22 41 4 35 7 40 29 40 13 0 21 4
18 10 -3 6 -15 10 -26 10 -29 0 -26 47 4 53 l22 4 -22 2 c-18 1 -23 7 -23 30
0 28 1 29 73 37 53 6 63 9 36 12 -33 3 -35 5 -31 32 4 25 9 30 33 30 16 0 29
5 29 10 0 6 -13 10 -30 10 -27 0 -30 3 -30 30 0 27 3 30 30 30 17 0 30 5 30
10 0 6 -13 10 -30 10 -27 0 -30 3 -30 30 0 27 3 30 30 30 17 0 30 5 30 10 0 6
-13 10 -30 10 l-30 0 0 80 0 80 30 0 c17 0 30 5 30 10 0 6 -13 10 -30 10 -27
0 -30 3 -30 30 0 27 3 30 30 30 17 0 30 5 30 10 0 6 -13 10 -30 10 l-30 0 -1
78 c-1 42 -5 91 -9 107 l-8 30 -1 -27 c-1 -24 -5 -28 -31 -28 -27 0 -30 3 -30
29 0 25 5 30 28 34 l27 4 -27 2 c-26 1 -28 4 -28 46 l0 45 -40 0 -40 0 0 40 0
40 -40 0 -40 0 0 40 0 40 -40 0 -40 0 0 40 0 40 -44 0 c-38 0 -45 3 -49 23
l-4 22 -2 -22 c-1 -19 -7 -23 -31 -23 -27 0 -30 3 -30 30 0 24 4 30 23 31 56
3 -32 17 -110 18 -81 1 -82 1 -86 29 l-4 27 -2 -27 c-1 -24 -5 -28 -31 -28
-27 0 -30 3 -30 30 0 26 4 30 28 31 l27 1 -30 8 c-37 9 -1009 13 -1018 3z
m973 -43 c0 -27 -3 -30 -30 -30 -23 0 -30 5 -30 19 0 11 -4 23 -10 26 -6 4
-10 -5 -10 -19 0 -22 -4 -26 -30 -26 -23 0 -30 4 -30 20 0 11 -4 20 -10 20 -5
0 -10 -9 -10 -20 0 -16 -7 -20 -30 -20 -23 0 -30 4 -30 20 0 11 -4 20 -10 20
-5 0 -10 -13 -10 -30 0 -27 -3 -30 -32 -31 -24 -1 -27 -3 -10 -6 15 -3 22 -11
22 -29 0 -13 5 -24 10 -24 6 0 10 14 10 30 l0 30 240 0 240 0 0 -30 c0 -27 -3
-30 -30 -30 -25 0 -30 4 -30 25 0 14 -4 25 -10 25 -5 0 -10 -16 -10 -35 0 -33
-2 -35 -32 -36 -24 -1 -27 -3 -10 -6 15 -3 22 -11 22 -29 0 -13 5 -24 10 -24
6 0 10 14 10 30 l0 30 80 0 80 0 0 -40 c0 -38 -2 -40 -30 -40 -16 0 -30 -4
-30 -10 0 -5 9 -10 20 -10 13 0 20 -7 20 -20 0 -11 5 -20 10 -20 6 0 10 14 10
30 l0 30 80 0 80 0 0 -40 0 -40 40 0 c39 0 40 -1 40 -33 0 -32 -2 -33 -30 -29
-21 3 -30 10 -30 23 0 10 -4 21 -10 24 -6 4 -10 -8 -10 -29 l0 -36 -80 0 -80
0 0 33 c0 32 2 33 30 29 21 -3 30 -10 30 -23 0 -10 5 -21 10 -24 6 -4 10 8 10
29 0 33 2 36 30 36 17 0 30 5 30 10 0 6 -9 10 -20 10 -13 0 -20 7 -20 19 0 11
-4 23 -10 26 -6 4 -10 -8 -10 -29 l0 -36 -80 0 -80 0 0 40 0 40 -160 0 -160 0
0 30 c0 27 3 30 30 30 23 0 30 -5 30 -19 0 -11 5 -23 10 -26 6 -4 10 5 10 19
0 22 4 26 30 26 23 0 30 -5 30 -19 0 -11 5 -23 10 -26 6 -4 10 8 10 29 l0 36
-560 0 -560 0 0 30 c0 17 -4 30 -10 30 -5 0 -10 -9 -10 -20 0 -13 -7 -20 -19
-20 -11 0 -23 -4 -26 -10 -4 -6 8 -10 29 -10 35 0 36 -1 36 -36 0 -21 4 -33
10 -29 6 3 10 14 10 24 0 13 9 20 30 23 27 4 30 2 30 -24 0 -17 4 -27 10 -23
6 3 10 15 10 26 0 14 7 19 30 19 26 0 30 -4 30 -26 0 -14 4 -23 10 -19 6 3 10
15 10 26 0 14 7 19 30 19 26 0 30 -4 30 -26 0 -14 4 -23 10 -19 6 3 10 15 10
26 0 14 7 19 30 19 26 0 30 -4 31 -27 l2 -28 4 28 4 27 265 0 c260 0 264 0
264 -21 0 -11 5 -29 10 -40 10 -17 23 -19 160 -19 l150 0 0 -24 c0 -19 -6 -26
-27 -29 -23 -3 -21 -4 10 -6 35 -1 37 -3 38 -33 1 -24 3 -27 6 -10 4 20 10 22
69 22 61 0 64 -1 64 -24 0 -21 -6 -25 -32 -28 -32 -3 -33 -5 -33 -48 0 -43 1
-45 33 -48 26 -3 32 -8 32 -27 0 -23 -3 -24 -77 -27 l-78 -3 -3 -37 -3 -38
-77 -1 c-42 -1 -90 -5 -107 -9 l-30 -8 28 -1 c23 -1 27 -5 27 -31 0 -27 -3
-30 -30 -30 -26 0 -30 4 -31 28 l-2 27 -4 -27 c-4 -27 -6 -28 -69 -28 -69 0
-104 -20 -104 -59 0 -16 -8 -20 -37 -23 -36 -3 -38 -5 -41 -40 -3 -35 -5 -37
-40 -40 l-37 -3 -3 -77 -3 -78 -59 0 -59 0 -3 78 -3 77 -37 3 c-37 3 -38 4
-38 43 0 39 0 39 -40 39 -37 0 -40 2 -40 28 0 43 -17 52 -92 52 -68 0 -68 0
-68 28 0 43 -17 52 -97 52 -73 0 -73 0 -74 28 l-2 27 -4 -27 c-4 -23 -9 -28
-34 -28 -26 0 -29 3 -29 30 0 26 4 30 28 31 l27 1 -30 8 c-16 4 -47 8 -67 9
-33 1 -38 4 -38 25 0 19 6 26 28 29 22 3 20 4 -10 6 -21 0 -38 6 -38 11 0 6
-18 10 -40 10 -33 0 -40 3 -40 20 0 13 9 22 28 26 44 10 49 12 20 13 -24 1
-28 5 -28 31 0 27 3 30 30 30 27 0 30 -3 30 -30 0 -28 2 -30 40 -30 39 0 40
-1 41 -37 2 -31 3 -33 6 -10 3 21 10 27 29 27 29 0 64 33 64 60 0 11 -9 29
-20 40 -11 11 -29 20 -40 20 -13 0 -20 7 -20 20 0 19 7 20 158 21 86 1 171 5
187 9 17 4 -76 8 -207 9 l-238 1 0 -40 0 -40 -40 0 -40 0 0 -40 0 -40 -40 0
c-39 0 -40 -1 -40 -33 0 -32 -2 -33 -30 -29 -35 5 -44 42 -10 42 11 0 20 5 20
10 0 6 -13 10 -30 10 l-30 0 0 80 0 80 33 0 c32 0 33 -2 29 -30 -3 -21 -10
-30 -23 -30 -11 0 -19 -4 -19 -10 0 -5 11 -10 25 -10 21 0 25 -5 26 -32 1 -24
3 -27 6 -10 3 17 11 22 33 22 16 0 32 5 35 10 4 6 -8 10 -29 10 -35 0 -36 1
-36 40 l0 40 40 0 40 0 0 40 0 40 80 0 80 0 0 40 0 40 240 0 240 0 0 -30 c0
-16 5 -30 10 -30 6 0 10 9 10 20 0 16 7 20 30 20 24 0 30 -4 31 -22 l2 -23 4
23 c4 20 10 22 74 22 64 0 69 -1 70 -22 l2 -23 4 23 c6 30 63 33 63 2 0 -11 5
-20 10 -20 6 0 10 14 10 30 l0 30 -160 0 -160 0 0 30 c0 17 -4 30 -10 30 -5 0
-10 -9 -10 -20 0 -11 -6 -20 -14 -20 -8 0 -21 -3 -30 -6 -12 -5 -16 0 -16 20
0 14 -4 26 -10 26 -5 0 -10 -9 -10 -20 0 -16 -7 -20 -30 -20 -23 0 -30 4 -30
20 0 11 -4 20 -10 20 -5 0 -10 -9 -10 -20 0 -16 -7 -20 -30 -20 -26 0 -30 4
-30 26 0 14 -4 23 -10 19 -5 -3 -10 -15 -10 -26 0 -14 -7 -19 -30 -19 -27 0
-30 3 -30 30 l0 30 480 0 480 0 0 -30z m-1138 -80 c-4 -25 -9 -30 -33 -30 -26
0 -29 4 -29 30 0 27 3 30 33 30 32 0 33 -2 29 -30z m-162 -80 c0 -27 -3 -30
-30 -30 -27 0 -30 3 -30 30 0 27 3 30 30 30 27 0 30 -3 30 -30z m1700 0 c0
-26 -3 -30 -29 -30 -24 0 -29 5 -33 30 -4 28 -3 30 29 30 30 0 33 -3 33 -30z
m-498 -20 c4 -28 3 -30 -29 -30 -30 0 -33 3 -33 30 0 26 3 30 29 30 24 0 29
-5 33 -30z m-1022 -80 c0 -27 -3 -30 -30 -30 -27 0 -30 3 -30 30 0 27 3 30 30
30 27 0 30 -3 30 -30z m1342 0 c4 -28 3 -30 -29 -30 -30 0 -33 3 -33 30 0 26
3 30 29 30 24 0 29 -5 33 -30z m-1680 -59 c-3 -23 -10 -30 -33 -33 -27 -4 -29
-2 -29 29 0 31 2 33 33 33 31 0 33 -2 29 -29z m418 -11 l0 -40 -40 0 c-39 0
-40 1 -40 33 0 42 5 47 47 47 32 0 33 -1 33 -40z m-92 -2 c-2 -15 -11 -24 -25
-26 -19 -3 -23 1 -23 22 0 21 5 26 26 26 21 0 25 -4 22 -22z m-408 -68 c0 -27
-3 -30 -30 -30 -27 0 -30 3 -30 30 0 27 3 30 30 30 27 0 30 -3 30 -30z m100
-10 l0 -40 80 0 80 0 0 -40 0 -40 40 0 40 0 0 -40 0 -40 120 0 120 0 0 -33 c0
-32 -2 -33 -30 -29 -21 3 -30 10 -30 23 0 10 -4 21 -10 24 -6 4 -10 -8 -10
-29 l0 -36 120 0 120 0 0 -33 c0 -32 -2 -33 -30 -29 -21 3 -30 10 -30 23 0 10
-4 21 -10 24 -6 4 -10 -8 -10 -29 l0 -36 -200 0 -200 0 0 30 c0 27 3 30 30 30
25 0 30 -4 30 -25 0 -14 5 -25 10 -25 6 0 10 13 10 28 0 26 3 28 30 24 21 -3
30 -10 30 -23 0 -11 5 -19 10 -19 6 0 10 14 10 30 0 27 3 30 30 30 17 0 30 5
30 10 0 6 -9 10 -20 10 -13 0 -20 7 -20 20 0 11 -4 20 -10 20 -5 0 -10 -13
-10 -30 l0 -30 -120 0 -120 0 0 40 0 40 -80 0 -80 0 0 -360 0 -360 70 0 c40 0
70 4 70 10 0 6 -9 10 -20 10 -13 0 -20 7 -20 20 0 11 -4 20 -10 20 -5 0 -10
-10 -10 -23 0 -20 -4 -23 -30 -19 -16 2 -30 10 -30 17 0 7 -3 20 -6 29 -5 14
4 16 66 16 45 0 69 4 65 10 -3 5 -15 10 -26 10 -12 0 -19 7 -19 20 0 11 -4 20
-10 20 -5 0 -10 -9 -10 -20 0 -16 -7 -20 -30 -20 -27 0 -30 3 -30 30 l0 30 66
0 c41 0 63 4 59 10 -3 6 -15 10 -26 10 -12 0 -19 7 -19 20 0 11 -4 20 -10 20
-5 0 -10 -9 -10 -20 0 -16 -7 -20 -30 -20 -27 0 -30 3 -30 30 l0 30 66 0 c45
0 63 3 58 11 -3 6 -19 9 -35 7 l-29 -5 0 154 0 153 69 0 c39 0 73 -4 76 -10 3
-5 22 -10 41 -10 l34 0 0 -59 c0 -33 5 -63 10 -66 6 -4 10 18 10 59 l0 66 30
0 c23 0 30 -4 30 -20 0 -13 -7 -20 -20 -20 -11 0 -20 -4 -20 -10 0 -5 10 -10
23 -10 20 0 23 -4 19 -30 -3 -18 0 -30 7 -30 7 0 11 23 11 60 0 59 0 60 29 60
24 0 29 -5 33 -30 4 -27 2 -30 -24 -30 -17 0 -27 -4 -23 -10 3 -5 17 -10 31
-10 18 0 24 -6 25 -22 l2 -23 4 23 c6 30 63 33 63 3 0 -11 5 -23 10 -26 6 -4
10 5 10 19 0 22 5 26 29 26 24 0 29 -5 33 -30 4 -27 2 -30 -24 -30 -17 0 -27
-4 -23 -10 3 -5 15 -10 26 -10 12 0 19 -7 19 -20 0 -11 5 -20 10 -20 6 0 10
27 10 60 0 59 0 60 29 60 24 0 29 -5 33 -30 4 -27 2 -30 -24 -30 -17 0 -27 -4
-23 -10 3 -5 15 -10 26 -10 12 0 19 -7 19 -20 0 -11 5 -20 10 -20 6 0 10 10
10 23 0 20 4 23 30 19 21 -3 30 -10 30 -23 0 -10 5 -21 10 -24 6 -4 10 7 10
25 0 25 3 31 16 26 9 -3 24 -6 35 -6 13 0 19 -7 19 -22 0 -12 3 -19 6 -15 4 3
4 18 0 32 -6 24 -9 25 -81 25 l-75 0 0 36 c0 29 3 35 16 30 9 -3 22 -6 30 -6
8 0 14 -9 14 -20 0 -11 5 -20 10 -20 14 0 13 33 -2 48 -8 8 -58 12 -160 12
l-148 0 0 30 c0 27 3 30 30 30 23 0 30 -5 30 -19 0 -11 5 -23 10 -26 6 -4 10
7 10 25 0 25 3 31 16 26 9 -3 22 -6 30 -6 8 0 14 -9 14 -20 0 -11 5 -20 10
-20 6 0 10 14 10 30 l0 30 80 0 80 0 0 -40 0 -40 40 0 40 0 0 -40 0 -40 40 0
40 0 0 -120 0 -120 -40 0 -40 0 0 40 0 40 -80 0 -80 0 0 40 0 40 -120 0 -120
0 0 33 c0 32 2 33 30 29 21 -3 30 -10 30 -23 0 -10 5 -21 10 -24 6 -4 10 8 10
29 l0 36 -160 0 -160 0 0 40 0 40 -40 0 -40 0 0 -280 0 -280 40 0 40 0 0 -80
0 -80 -36 0 c-21 0 -33 -4 -29 -10 3 -5 15 -10 26 -10 12 0 19 -7 19 -19 0
-11 5 -23 10 -26 6 -4 10 8 10 29 0 35 1 36 36 36 21 0 33 4 29 10 -3 6 -14
10 -24 10 -13 0 -20 9 -23 30 -4 28 -3 30 29 30 l33 0 0 -80 0 -80 -36 0 c-21
0 -33 -4 -29 -10 3 -6 15 -10 26 -10 12 0 19 -7 19 -19 0 -11 5 -23 10 -26 6
-4 10 8 10 29 l0 36 80 0 80 0 0 -36 c0 -29 -3 -35 -16 -30 -9 3 -22 6 -30 6
-8 0 -14 9 -14 19 0 11 -4 23 -10 26 -6 4 -10 -8 -10 -29 l0 -36 -160 0 -160
0 0 70 0 70 30 0 c27 0 30 -3 30 -30 0 -24 -4 -30 -22 -31 l-23 -2 23 -4 c15
-3 22 -11 22 -28 0 -13 5 -27 10 -30 6 -4 10 6 10 23 0 26 3 28 30 24 24 -3
30 -9 30 -28 0 -13 5 -24 10 -24 6 0 10 16 10 35 0 34 -1 35 -40 35 l-40 0 0
40 0 40 -40 0 -40 0 0 40 0 40 -80 0 -80 0 0 33 c0 32 2 33 30 29 21 -3 30
-10 30 -23 0 -10 5 -21 10 -24 6 -4 10 6 10 23 0 26 3 28 30 24 21 -3 30 -10
30 -23 0 -10 5 -21 10 -24 6 -4 10 8 10 29 0 33 2 36 30 36 17 0 30 5 30 10 0
6 -9 10 -20 10 -13 0 -20 7 -20 19 0 11 -4 23 -10 26 -6 4 -10 -8 -10 -29 l0
-36 -80 0 -80 0 0 120 0 120 -30 0 c-16 0 -30 -4 -30 -10 0 -5 8 -10 19 -10
13 0 20 -9 23 -30 4 -26 1 -30 -19 -30 -13 0 -23 -4 -23 -10 0 -5 8 -10 19
-10 13 0 20 -9 23 -30 4 -27 2 -30 -24 -30 -15 0 -28 -4 -28 -10 0 -5 11 -10
25 -10 21 0 25 -5 25 -30 0 -27 -3 -30 -30 -30 l-30 0 0 440 0 440 30 0 c27 0
30 -3 30 -30 0 -25 -4 -30 -25 -30 -14 0 -25 -4 -25 -10 0 -5 13 -10 28 -10
26 0 28 -3 24 -30 -3 -21 -10 -30 -23 -30 -11 0 -19 -4 -19 -10 0 -5 10 -10
23 -10 20 0 23 -4 19 -30 -3 -21 -10 -30 -23 -30 -11 0 -19 -4 -19 -10 0 -5
14 -10 30 -10 l30 0 0 160 0 160 40 0 40 0 0 40 0 40 40 0 40 0 0 -40z m1745
20 c11 -35 -3 -60 -36 -60 -27 0 -29 2 -29 40 0 38 2 40 29 40 21 0 32 -6 36
-20z m255 -20 c0 -38 -2 -40 -30 -40 -16 0 -30 -4 -30 -10 0 -5 9 -10 20 -10
11 0 20 -6 20 -14 0 -8 3 -21 6 -30 5 -13 -1 -16 -26 -16 -18 0 -29 -4 -25
-10 3 -5 15 -10 26 -10 14 0 19 -7 19 -30 0 -27 -3 -30 -30 -30 l-30 0 0 120
0 120 40 0 40 0 0 -40z m80 7 c0 -31 -2 -33 -29 -29 -23 3 -30 10 -33 33 -4
27 -2 29 29 29 31 0 33 -2 33 -33z m-178 -18 c4 -27 2 -29 -29 -29 -31 0 -33
2 -33 33 0 31 2 33 29 29 23 -3 30 -10 33 -33z m-1752 11 c0 -15 -7 -20 -25
-20 -18 0 -25 5 -25 20 0 15 7 20 25 20 18 0 25 -5 25 -20z m1670 1 c0 -13 -9
-20 -30 -23 -26 -4 -30 -1 -30 19 0 19 5 23 30 23 23 0 30 -5 30 -19z m-1580
-71 c0 -27 -3 -30 -30 -30 -27 0 -30 3 -30 30 0 27 3 30 30 30 27 0 30 -3 30
-30z m1600 0 c0 -28 -2 -30 -40 -30 -38 0 -40 2 -40 30 0 28 2 30 40 30 38 0
40 -2 40 -30z m240 -50 l0 -80 -30 0 c-16 0 -30 -4 -30 -10 0 -5 9 -10 20 -10
13 0 20 -7 20 -20 0 -11 5 -20 10 -20 6 0 10 14 10 30 0 28 3 30 36 30 21 0
33 4 29 10 -3 6 -14 10 -24 10 -13 0 -20 9 -23 30 -4 28 -3 30 29 30 l33 0 0
-320 0 -320 -30 0 c-27 0 -30 3 -30 30 0 23 5 30 19 30 11 0 23 5 26 10 4 6
-6 10 -23 10 -26 0 -28 3 -24 30 3 21 10 30 23 30 11 0 19 5 19 10 0 6 -13 10
-30 10 l-30 0 0 -160 0 -160 -33 0 c-32 0 -33 2 -29 30 3 21 10 30 23 30 11 0
19 5 19 10 0 6 -11 10 -25 10 -22 0 -24 3 -18 30 3 19 1 30 -6 30 -6 0 -11 -9
-11 -20 0 -15 -7 -20 -29 -20 -17 0 -33 -4 -36 -10 -4 -6 8 -10 29 -10 l36 0
0 -120 0 -120 -40 0 -40 0 0 -40 0 -40 -40 0 -40 0 0 -40 0 -40 -40 0 -40 0 0
-40 0 -40 -80 0 -80 0 0 36 c0 21 -4 33 -10 29 -5 -3 -10 -15 -10 -26 0 -10
-6 -19 -14 -19 -8 0 -21 -3 -30 -6 -13 -5 -16 1 -16 30 l0 36 80 0 80 0 0 40
0 40 40 0 40 0 0 80 0 80 33 0 c32 0 33 -2 29 -30 -3 -21 -10 -30 -23 -30 -10
0 -21 -4 -24 -10 -4 -6 8 -10 29 -10 l36 0 0 360 0 360 40 0 40 0 0 -40 c0
-38 2 -40 30 -40 26 0 30 -3 30 -29 0 -24 -5 -29 -30 -33 -27 -4 -30 -2 -30
24 0 15 -4 28 -10 28 -6 0 -10 -42 -10 -105 0 -98 -1 -105 -20 -105 -11 0 -20
-4 -20 -10 0 -5 9 -10 20 -10 16 0 20 -7 20 -30 0 -23 -5 -30 -19 -30 -11 0
-23 -4 -26 -10 -4 -6 6 -10 23 -10 26 0 28 -3 24 -30 -3 -21 -10 -30 -23 -30
-10 0 -21 -4 -24 -10 -4 -6 8 -10 29 -10 l36 0 0 160 0 160 33 0 c32 0 33 -1
29 -35 -3 -27 -9 -35 -26 -36 -20 -2 -20 -2 2 -6 30 -6 33 -63 2 -63 -11 0
-20 -4 -20 -10 0 -5 9 -10 20 -10 16 0 20 -7 20 -30 0 -23 -5 -30 -19 -30 -11
0 -23 -4 -26 -10 -4 -6 8 -10 29 -10 l36 0 0 360 0 360 40 0 40 0 0 -80z
m-180 40 c0 -13 -7 -20 -20 -20 -13 0 -20 7 -20 20 0 13 7 20 20 20 13 0 20
-7 20 -20z m-1580 -70 c0 -26 -3 -30 -29 -30 -24 0 -29 5 -33 30 -4 28 -3 30
29 30 30 0 33 -3 33 -30z m1342 0 c-4 -25 -9 -30 -33 -30 -26 0 -29 4 -29 30
0 27 3 30 33 30 32 0 33 -2 29 -30z m178 -50 l0 -80 -120 0 -120 0 0 30 c0 17
-4 30 -10 30 -5 0 -10 -9 -10 -20 0 -13 -7 -20 -19 -20 -11 0 -23 -4 -26 -10
-4 -6 8 -10 29 -10 33 0 36 -2 36 -30 0 -16 5 -30 10 -30 6 0 10 9 10 20 0 11
6 20 14 20 8 0 21 3 30 6 13 5 16 -1 16 -25 0 -17 5 -31 10 -31 6 0 10 11 10
25 0 21 5 25 30 25 27 0 30 -3 30 -30 l0 -30 -160 0 -160 0 0 -36 c0 -21 4
-33 10 -29 6 3 10 15 10 26 0 14 7 19 30 19 27 0 30 -3 30 -30 l0 -30 -120 0
-120 0 0 -40 0 -40 -40 0 -40 0 0 -40 0 -40 -40 0 -40 0 0 -40 0 -40 -40 0
c-39 0 -40 1 -40 36 0 21 -4 33 -10 29 -5 -3 -10 -15 -10 -26 0 -12 -7 -19
-19 -19 -11 0 -23 -4 -26 -10 -4 -6 8 -10 29 -10 35 0 36 -1 36 -40 l0 -40
-40 0 -40 0 0 80 0 80 40 0 40 0 0 40 0 40 40 0 40 0 0 40 0 40 40 0 40 0 0
40 0 40 80 0 80 0 0 -30 c0 -16 5 -30 10 -30 6 0 10 9 10 20 0 13 7 20 19 20
11 0 23 5 26 10 4 6 -8 10 -29 10 -35 0 -36 1 -36 36 0 21 -4 33 -10 29 -5 -3
-10 -14 -10 -24 0 -13 -9 -20 -30 -23 -28 -4 -30 -3 -30 29 l0 33 120 0 120 0
0 35 c0 19 -4 35 -10 35 -5 0 -10 -11 -10 -25 0 -21 -5 -25 -30 -25 -27 0 -30
3 -30 30 l0 30 160 0 160 0 0 -30 c0 -16 5 -30 10 -30 6 0 10 9 10 20 0 13 7
20 20 20 11 0 20 5 20 10 0 6 -13 10 -30 10 -27 0 -30 3 -30 30 0 17 -4 30
-10 30 -5 0 -10 -8 -10 -19 0 -13 -9 -20 -30 -23 -28 -4 -30 -3 -30 29 l0 33
80 0 80 0 0 -80z m60 50 c0 -23 -4 -30 -20 -30 -16 0 -20 7 -20 30 0 23 4 30
20 30 16 0 20 -7 20 -30z m-1340 -80 c0 -27 -3 -30 -30 -30 -27 0 -30 3 -30
30 0 27 3 30 30 30 27 0 30 -3 30 -30z m1360 -10 c0 -39 -1 -40 -33 -40 -32 0
-32 1 -29 40 4 37 7 40 33 40 27 0 29 -3 29 -40z m-1920 0 c0 -11 5 -20 10
-20 6 0 10 9 10 20 0 34 37 25 42 -10 l5 -30 -64 0 -63 0 0 30 c0 27 3 30 30
30 23 0 30 -4 30 -20z m1980 -10 c0 -25 -4 -30 -23 -30 -20 0 -23 4 -19 30 3
21 10 30 23 30 14 0 19 -7 19 -30z m-1260 -60 c0 -27 -3 -30 -30 -30 -27 0
-30 3 -30 30 0 27 3 30 30 30 27 0 30 -3 30 -30z m540 0 c0 -27 -3 -30 -30
-30 -27 0 -30 3 -30 30 0 27 3 30 30 30 27 0 30 -3 30 -30z m-1260 -20 c0 -27
-3 -30 -30 -30 -27 0 -30 3 -30 30 0 27 3 30 30 30 27 0 30 -3 30 -30z m70 10
c0 -15 -7 -20 -25 -20 -18 0 -25 5 -25 20 0 15 7 20 25 20 18 0 25 -5 25 -20z
m70 -5 c0 -21 -5 -25 -30 -25 -25 0 -30 4 -30 25 0 21 5 25 30 25 25 0 30 -4
30 -25z m1840 -35 c0 -53 -2 -60 -20 -60 -15 0 -20 7 -20 26 0 35 -22 54 -64
54 -25 0 -38 -6 -46 -19 -6 -12 -10 -120 -10 -280 l0 -260 -37 -3 -38 -3 -3
-77 -3 -78 -39 0 c-40 0 -40 0 -40 -40 l0 -40 -40 0 -40 0 0 -40 0 -40 -68 0
c-75 0 -92 -9 -92 -52 l0 -28 -460 0 -460 0 0 28 c0 43 -17 52 -92 52 l-68 0
0 40 0 40 -40 0 -40 0 0 64 c0 71 -14 96 -56 96 -21 0 -24 4 -24 40 l0 40 -40
0 -40 0 0 220 c0 213 1 220 20 220 13 0 20 -7 20 -20 0 -11 9 -29 20 -40 17
-17 33 -20 120 -20 l100 0 0 -28 c0 -46 15 -52 132 -52 l108 0 0 -40 0 -40 40
0 40 0 0 -40 0 -40 40 0 c39 0 40 -1 41 -37 1 -21 5 -49 9 -63 8 -24 8 -24 9
-2 1 18 7 22 31 22 27 0 30 -3 30 -30 0 -24 -4 -30 -22 -31 l-23 -2 23 -4 c19
-4 22 -11 22 -49 l0 -44 45 0 c40 0 45 -3 46 -22 l2 -23 4 23 c4 18 11 22 44
22 37 0 39 -2 39 -29 0 -29 -2 -30 -52 -34 l-53 -4 55 1 55 1 9 73 c9 69 11
72 36 72 40 0 50 18 50 92 l0 68 40 0 40 0 0 40 0 40 60 0 c67 0 100 21 100
65 0 23 3 24 68 28 l67 3 -78 2 -78 2 3 38 3 37 75 6 75 5 -67 2 c-65 2 -68 3
-68 27 l0 25 104 0 c101 0 105 -1 109 -22 3 -17 5 -14 6 10 l1 32 79 0 80 0 4
-32 c4 -33 4 -33 3 2 l-1 35 -72 3 c-70 3 -73 4 -73 27 0 24 2 25 80 25 l80 0
0 40 0 40 100 0 100 0 0 -60z m-1180 -30 c0 -26 -3 -30 -29 -30 -24 0 -29 5
-33 30 -4 28 -3 30 29 30 30 0 33 -3 33 -30z m380 0 c0 -27 -3 -30 -30 -30
-27 0 -30 3 -30 30 0 27 3 30 30 30 27 0 30 -3 30 -30z m-1200 -95 c0 -98 -1
-105 -20 -105 -19 0 -20 7 -20 105 0 98 1 105 20 105 19 0 20 -7 20 -105z
m1620 75 c0 -27 -3 -30 -30 -30 -27 0 -30 3 -30 30 0 27 3 30 30 30 27 0 30
-3 30 -30z m-720 -60 c0 -27 -3 -30 -30 -30 -27 0 -30 3 -30 30 0 27 3 30 30
30 27 0 30 -3 30 -30z m220 0 c0 -27 -3 -30 -30 -30 -27 0 -30 3 -30 30 0 27
3 30 30 30 27 0 30 -3 30 -30z m260 -20 c0 -27 -3 -30 -30 -30 -27 0 -30 3
-30 30 0 27 3 30 30 30 27 0 30 -3 30 -30z m-10 -69 c0 -15 -9 -20 -37 -22
-65 -7 -93 0 -93 22 0 17 7 19 65 19 57 0 65 -2 65 -19z m-1364 -57 c-3 -9 -6
-22 -6 -30 0 -8 -9 -14 -20 -14 -16 0 -20 7 -20 30 0 26 4 30 26 30 20 0 25
-4 20 -16z m956 -14 c-3 -21 -10 -30 -23 -30 -14 0 -19 7 -19 30 0 25 4 30 23
30 20 0 23 -4 19 -30z m418 -10 l0 -40 -76 0 c-65 0 -75 2 -70 16 3 9 6 27 6
40 0 23 3 24 70 24 l70 0 0 -40z m-160 -50 l0 -70 -33 0 c-32 0 -32 1 -29 40
3 32 8 40 26 41 20 2 20 2 -1 6 -16 3 -23 11 -23 29 0 20 5 24 30 24 l30 0 0
-70z m-260 -20 c0 -23 -5 -30 -19 -30 -13 0 -20 9 -23 30 -4 26 -1 30 19 30
19 0 23 -5 23 -30z m-158 -21 c4 -27 2 -29 -29 -29 -31 0 -33 2 -33 33 0 31 2
33 29 29 23 -3 30 -10 33 -33z m338 6 c0 -32 -2 -35 -30 -35 -27 0 -30 3 -30
29 0 25 5 30 28 34 15 2 28 5 30 6 1 0 2 -15 2 -34z m-160 -115 l0 -80 -36 0
c-23 0 -33 -4 -28 -11 3 -6 19 -9 35 -7 25 4 29 1 29 -19 0 -13 5 -23 10 -23
6 0 10 9 10 20 0 13 7 20 20 20 11 0 20 5 20 10 0 6 -9 10 -20 10 -16 0 -20 7
-20 30 0 23 5 30 19 30 11 0 23 5 26 10 4 6 -6 10 -23 10 -26 0 -28 3 -24 29
3 23 10 30 33 33 l29 5 0 -114 0 -113 -80 0 -80 0 0 120 0 120 40 0 40 0 0
-80z m-100 29 c0 -26 -4 -29 -30 -29 -27 0 -30 3 -30 33 0 32 2 33 30 29 25
-4 30 -9 30 -33z m260 -34 l0 -75 -30 0 c-27 0 -30 3 -30 30 0 23 5 30 19 30
11 0 23 5 26 10 4 6 -5 10 -19 10 -22 0 -26 5 -26 29 0 25 5 30 28 34 15 2 28
5 30 6 1 0 2 -33 2 -74z m-960 -108 c0 -31 -2 -33 -29 -29 -23 3 -30 10 -33
33 -4 27 -2 29 29 29 31 0 33 -2 33 -33z m1660 4 c0 -24 -5 -29 -30 -33 -28
-4 -30 -3 -30 29 0 30 3 33 30 33 26 0 30 -3 30 -29z m260 -16 c0 -32 -2 -35
-30 -35 -27 0 -30 3 -30 29 0 25 5 30 28 34 15 2 28 5 30 6 1 0 2 -15 2 -34z
m-1840 -65 c0 -27 -3 -30 -30 -30 -27 0 -30 3 -30 30 0 27 3 30 30 30 27 0 30
-3 30 -30z m1828 -12 c-2 -15 -11 -24 -25 -26 -19 -3 -23 1 -23 22 0 21 5 26
26 26 21 0 25 -4 22 -22z m-328 -67 c0 -24 -5 -29 -30 -33 -28 -4 -30 -3 -30
29 0 30 3 33 30 33 26 0 30 -3 30 -29z m-1760 -10 c0 -13 -9 -20 -30 -23 -26
-4 -30 -1 -30 19 0 19 5 23 30 23 23 0 30 -5 30 -19z m340 -74 c0 -31 -2 -33
-29 -29 -23 3 -30 10 -33 33 -4 27 -2 29 29 29 31 0 33 -2 33 -33z m1342 3
c-4 -25 -9 -30 -33 -30 -26 0 -29 4 -29 30 0 27 3 30 33 30 32 0 33 -2 29 -30z
m258 -15 c0 -32 -2 -35 -30 -35 -27 0 -30 3 -30 29 0 25 5 30 28 34 15 2 28 5
30 6 1 0 2 -15 2 -34z m-1440 -65 c0 -27 -3 -30 -30 -30 -27 0 -30 3 -30 30 0
27 3 30 30 30 27 0 30 -3 30 -30z m1020 0 c0 -27 -3 -30 -30 -30 -27 0 -30 3
-30 30 0 27 3 30 30 30 27 0 30 -3 30 -30z m340 -20 c0 -27 -3 -30 -33 -30
-32 0 -33 2 -29 30 4 25 9 30 33 30 26 0 29 -4 29 -30z m-240 -66 c0 -21 4
-33 10 -29 5 3 10 14 10 24 0 13 9 20 30 23 28 4 30 3 30 -29 l0 -33 -120 0
-120 0 0 -36 c0 -21 4 -33 10 -29 6 3 10 15 10 26 0 14 7 19 30 19 27 0 30 -3
30 -30 l0 -30 -560 0 -560 0 0 30 c0 27 3 30 30 30 23 0 30 -5 30 -19 0 -11 5
-23 10 -26 6 -4 10 8 10 29 l0 36 -200 0 -200 0 0 30 c0 27 3 30 30 30 25 0
30 -4 30 -25 0 -14 5 -25 10 -25 6 0 10 11 10 25 0 21 5 25 30 25 25 0 30 -4
30 -25 0 -14 5 -25 10 -25 6 0 10 13 10 28 0 26 3 28 30 24 21 -3 30 -10 30
-23 0 -10 5 -21 10 -24 6 -4 10 8 10 29 l0 36 640 0 640 0 0 -36z m160 -14 c0
-27 -3 -30 -30 -30 -27 0 -30 3 -30 30 0 27 3 30 30 30 27 0 30 -3 30 -30z
m-1380 -80 c0 -27 -3 -30 -30 -30 -27 0 -30 3 -30 30 0 27 3 30 30 30 27 0 30
-3 30 -30z m1220 0 c0 -27 -3 -30 -30 -30 -27 0 -30 3 -30 30 0 27 3 30 30 30
27 0 30 -3 30 -30z m-820 -70 c0 -11 5 -20 10 -20 6 0 10 9 10 20 0 16 7 20
30 20 23 0 30 -4 30 -20 0 -11 5 -20 10 -20 6 0 10 9 10 20 0 18 7 20 80 20
76 0 80 -1 81 -22 l2 -23 4 23 c4 18 11 22 39 22 27 0 34 -4 34 -20 0 -11 5
-20 10 -20 6 0 10 9 10 20 0 16 7 20 30 20 26 0 30 -4 30 -26 0 -14 4 -23 10
-19 6 3 10 15 10 26 0 14 7 19 30 19 27 0 30 -3 30 -30 l0 -30 -280 0 -280 0
0 30 c0 27 3 30 30 30 23 0 30 -4 30 -20z"/>
<path d="M1180 2200 c0 -11 5 -20 10 -20 6 0 10 9 10 20 0 11 -4 20 -10 20 -5
0 -10 -9 -10 -20z"/>
<path d="M1272 2200 c0 -14 2 -19 5 -12 2 6 2 18 0 25 -3 6 -5 1 -5 -13z"/>
<path d="M1362 2200 c0 -14 2 -19 5 -12 2 6 2 18 0 25 -3 6 -5 1 -5 -13z"/>
<path d="M1440 2194 c0 -14 4 -23 10 -19 6 3 10 15 10 26 0 10 -4 19 -10 19
-5 0 -10 -12 -10 -26z"/>
<path d="M800 2120 c0 -11 5 -20 10 -20 6 0 10 9 10 20 0 11 -4 20 -10 20 -5
0 -10 -9 -10 -20z"/>
<path d="M880 2120 c0 -11 5 -20 10 -20 6 0 10 9 10 20 0 11 -4 20 -10 20 -5
0 -10 -9 -10 -20z"/>
<path d="M960 2120 c0 -11 5 -20 10 -20 6 0 10 9 10 20 0 11 -4 20 -10 20 -5
0 -10 -9 -10 -20z"/>
<path d="M1040 2120 c0 -11 5 -20 10 -20 6 0 10 9 10 20 0 11 -4 20 -10 20 -5
0 -10 -9 -10 -20z"/>
<path d="M1580 2120 c0 -11 5 -20 10 -20 6 0 10 9 10 20 0 11 -4 20 -10 20 -5
0 -10 -9 -10 -20z"/>
<path d="M1660 2120 c0 -11 5 -20 10 -20 6 0 10 9 10 20 0 11 -4 20 -10 20 -5
0 -10 -9 -10 -20z"/>
<path d="M1752 2120 c0 -14 2 -19 5 -12 2 6 2 18 0 25 -3 6 -5 1 -5 -13z"/>
<path d="M1840 2115 c0 -14 5 -25 10 -25 6 0 10 11 10 25 0 14 -4 25 -10 25
-5 0 -10 -11 -10 -25z"/>
<path d="M640 2045 c0 -14 5 -25 10 -25 6 0 10 11 10 25 0 14 -4 25 -10 25 -5
0 -10 -11 -10 -25z"/>
<path d="M540 2040 c0 -13 -7 -20 -20 -20 -11 0 -20 -5 -20 -11 0 -6 12 -9 28
-7 21 2 28 9 30 31 2 15 -1 27 -7 27 -6 0 -11 -9 -11 -20z"/>
<path d="M2000 2040 c0 -11 5 -20 10 -20 6 0 10 9 10 20 0 11 -4 20 -10 20 -5
0 -10 -9 -10 -20z"/>
<path d="M480 1960 c0 -11 5 -20 10 -20 6 0 10 9 10 20 0 11 -4 20 -10 20 -5
0 -10 -9 -10 -20z"/>
<path d="M1832 1880 c0 -19 2 -27 5 -17 2 9 2 25 0 35 -3 9 -5 1 -5 -18z"/>
<path d="M1868 1833 c12 -2 30 -2 40 0 9 3 -1 5 -23 4 -22 0 -30 -2 -17 -4z"/>
<path d="M260 1770 c0 -5 9 -10 20 -10 11 0 20 5 20 10 0 6 -9 10 -20 10 -11
0 -20 -4 -20 -10z"/>
<path d="M228 1744 c-5 -4 -8 -16 -8 -26 0 -11 -7 -18 -20 -18 -11 0 -20 -4
-20 -10 0 -5 14 -10 30 -10 27 0 30 -3 30 -30 0 -16 5 -30 10 -30 6 0 10 9 10
20 0 13 7 20 20 20 13 0 20 -7 20 -20 0 -11 5 -20 10 -20 6 0 10 14 10 30 0
28 -2 30 -39 30 -38 0 -40 1 -43 36 -2 20 -6 32 -10 28z"/>
<path d="M400 1716 c0 -35 1 -36 36 -36 21 0 33 4 29 10 -3 6 -15 10 -26 10
-12 0 -19 7 -19 19 0 11 -4 23 -10 26 -6 4 -10 -8 -10 -29z"/>
<path d="M340 1670 c0 -5 9 -10 20 -10 13 0 20 -7 20 -20 0 -11 5 -20 10 -20
15 0 12 29 -4 46 -17 16 -46 19 -46 4z"/>
<path d="M480 1630 c0 -28 -3 -30 -36 -30 -21 0 -33 -4 -29 -10 3 -5 15 -10
26 -10 12 0 19 -7 19 -20 0 -11 5 -20 10 -20 6 0 10 14 10 30 0 28 3 30 36 30
21 0 33 4 29 10 -3 6 -15 10 -26 10 -12 0 -19 7 -19 20 0 11 -4 20 -10 20 -5
0 -10 -13 -10 -30z"/>
<path d="M180 1590 c0 -5 9 -10 20 -10 11 0 20 5 20 10 0 6 -9 10 -20 10 -11
0 -20 -4 -20 -10z"/>
<path d="M180 1530 c0 -5 9 -10 20 -10 11 0 20 5 20 10 0 6 -9 10 -20 10 -11
0 -20 -4 -20 -10z"/>
<path d="M700 1480 c0 -11 5 -20 10 -20 6 0 10 9 10 20 0 11 -4 20 -10 20 -5
0 -10 -9 -10 -20z"/>
<path d="M800 1480 c0 -11 5 -20 10 -20 6 0 10 9 10 20 0 11 -4 20 -10 20 -5
0 -10 -9 -10 -20z"/>
<path d="M180 1430 c0 -5 9 -10 20 -10 11 0 20 5 20 10 0 6 -9 10 -20 10 -11
0 -20 -4 -20 -10z"/>
<path d="M140 1400 c0 -13 -7 -20 -20 -20 -11 0 -20 -4 -20 -10 0 -5 14 -10
30 -10 l30 0 0 -120 0 -120 -30 0 c-16 0 -30 -4 -30 -10 0 -5 11 -10 24 -10
18 0 26 -7 29 -22 3 -17 5 -14 6 10 1 29 4 32 31 32 17 0 30 5 30 10 0 6 -9
10 -20 10 -16 0 -20 7 -20 30 0 23 4 30 20 30 11 0 20 5 20 10 0 6 -9 10 -20
10 -13 0 -20 7 -20 20 0 13 7 20 20 20 11 0 20 5 20 10 0 6 -9 10 -20 10 -16
0 -20 7 -20 30 0 23 4 30 20 30 11 0 20 5 20 10 0 6 -13 10 -30 10 -27 0 -30
3 -30 30 0 17 -4 30 -10 30 -5 0 -10 -9 -10 -20z"/>
<path d="M960 1395 c0 -14 5 -25 10 -25 6 0 10 11 10 25 0 14 -4 25 -10 25 -5
0 -10 -11 -10 -25z"/>
<path d="M100 1290 c0 -5 9 -10 20 -10 11 0 20 5 20 10 0 6 -9 10 -20 10 -11
0 -20 -4 -20 -10z"/>
<path d="M348 1203 c6 -2 18 -2 25 0 6 3 1 5 -13 5 -14 0 -19 -2 -12 -5z"/>
<path d="M1148 1203 c6 -2 18 -2 25 0 6 3 1 5 -13 5 -14 0 -19 -2 -12 -5z"/>
<path d="M100 1190 c0 -5 9 -10 20 -10 11 0 20 5 20 10 0 6 -9 10 -20 10 -11
0 -20 -4 -20 -10z"/>
<path d="M975 1190 c3 -5 15 -10 26 -10 12 0 19 -7 19 -19 0 -11 5 -23 10 -26
6 -4 10 8 10 29 0 35 -1 36 -36 36 -21 0 -33 -4 -29 -10z"/>
<path d="M1060 1190 c0 -5 9 -10 20 -10 13 0 20 -7 20 -20 0 -11 5 -20 10 -20
6 0 10 14 10 30 0 27 -3 30 -30 30 -16 0 -30 -4 -30 -10z"/>
<path d="M1148 1123 c6 -2 18 -2 25 0 6 3 1 5 -13 5 -14 0 -19 -2 -12 -5z"/>
<path d="M180 1050 c0 -5 9 -10 20 -10 11 0 20 5 20 10 0 6 -9 10 -20 10 -11
0 -20 -4 -20 -10z"/>
<path d="M180 950 c0 -5 9 -10 20 -10 11 0 20 5 20 10 0 6 -9 10 -20 10 -11 0
-20 -4 -20 -10z"/>
<path d="M198 873 c15 -3 22 -11 22 -29 0 -13 5 -24 10 -24 6 0 10 11 10 24 0
24 -18 37 -48 35 -10 -1 -8 -4 6 -6z"/>
<path d="M400 750 c0 -27 -3 -30 -30 -30 -16 0 -30 -4 -30 -10 0 -5 9 -10 20
-10 13 0 20 -7 20 -19 0 -11 5 -23 10 -26 6 -4 10 8 10 29 0 33 2 36 30 36 17
0 30 5 30 10 0 6 -9 10 -20 10 -13 0 -20 7 -20 20 0 11 -4 20 -10 20 -5 0 -10
-13 -10 -30z"/>
<path d="M2340 1690 c0 -5 9 -10 20 -10 11 0 20 5 20 10 0 6 -9 10 -20 10 -11
0 -20 -4 -20 -10z"/>
<path d="M2340 1510 c0 -5 8 -10 19 -10 13 0 20 -9 23 -30 4 -26 1 -30 -19
-30 -13 0 -23 -4 -23 -10 0 -5 9 -10 20 -10 30 0 28 -47 -2 -53 l-23 -4 23 -2
c18 -1 22 -7 22 -31 0 -23 -4 -30 -20 -30 -11 0 -20 -4 -20 -10 0 -5 14 -10
30 -10 28 0 30 -3 30 -36 0 -21 4 -33 10 -29 6 3 10 15 10 26 0 12 7 19 20 19
11 0 20 5 20 10 0 6 -13 10 -30 10 l-30 0 0 120 0 120 -30 0 c-16 0 -30 -4
-30 -10z"/>
<path d="M2420 1510 c0 -5 9 -10 20 -10 11 0 20 5 20 10 0 6 -9 10 -20 10 -11
0 -20 -4 -20 -10z"/>
<path d="M2415 1430 c3 -5 15 -10 26 -10 10 0 19 5 19 10 0 6 -12 10 -26 10
-14 0 -23 -4 -19 -10z"/>
<path d="M2420 1350 c0 -5 9 -10 20 -10 11 0 20 5 20 10 0 6 -9 10 -20 10 -11
0 -20 -4 -20 -10z"/>
<path d="M2340 1130 c0 -5 9 -10 20 -10 11 0 20 5 20 10 0 6 -9 10 -20 10 -11
0 -20 -4 -20 -10z"/>
<path d="M2335 1050 c-4 -6 5 -10 19 -10 14 0 26 5 26 10 0 6 -9 10 -19 10
-11 0 -23 -4 -26 -10z"/>
<path d="M2227 943 c-4 -3 -7 -15 -7 -25 0 -11 -7 -18 -19 -18 -11 0 -23 -4
-26 -10 -4 -6 8 -10 29 -10 34 0 36 2 36 35 0 36 -2 40 -13 28z"/>
<path d="M2255 890 c-4 -6 5 -10 19 -10 14 0 26 5 26 10 0 6 -9 10 -19 10 -11
0 -23 -4 -26 -10z"/>
<path d="M2220 840 c0 -13 -7 -20 -20 -20 -11 0 -20 -4 -20 -10 0 -5 14 -10
30 -10 28 0 30 -3 30 -36 0 -21 4 -33 10 -29 6 3 10 15 10 26 0 12 7 19 20 19
11 0 20 5 20 10 0 6 -13 10 -30 10 -27 0 -30 3 -30 30 0 17 -4 30 -10 30 -5 0
-10 -9 -10 -20z"/>
<path d="M2173 705 c-15 -17 -17 -45 -3 -45 6 0 10 9 10 20 0 13 7 20 20 20
11 0 20 5 20 10 0 15 -33 11 -47 -5z"/>
<path d="M2100 630 c0 -5 9 -10 20 -10 11 0 20 5 20 10 0 6 -9 10 -20 10 -11
0 -20 -4 -20 -10z"/>
<path d="M2082 600 c0 -14 2 -19 5 -12 2 6 2 18 0 25 -3 6 -5 1 -5 -13z"/>
<path d="M2007 553 c-11 -10 -8 -53 3 -53 6 0 10 9 10 20 0 13 7 20 20 20 11
0 20 5 20 10 0 11 -43 14 -53 3z"/>
<path d="M1740 1480 c0 -11 5 -20 10 -20 6 0 10 9 10 20 0 11 -4 20 -10 20 -5
0 -10 -9 -10 -20z"/>
<path d="M1580 1400 c0 -11 5 -20 10 -20 6 0 10 9 10 20 0 11 -4 20 -10 20 -5
0 -10 -9 -10 -20z"/>
<path d="M1533 1345 c-15 -17 -17 -45 -3 -45 6 0 10 9 10 20 0 13 7 20 20 20
11 0 20 5 20 10 0 15 -33 11 -47 -5z"/>
<path d="M1452 1268 c-15 -15 -16 -48 -2 -48 6 0 10 9 10 20 0 13 7 20 20 20
11 0 20 5 20 10 0 14 -33 13 -48 -2z"/>
<path d="M1380 1210 c0 -5 9 -10 20 -10 11 0 20 5 20 10 0 6 -9 10 -20 10 -11
0 -20 -4 -20 -10z"/>
<path d="M1967 1273 c18 -2 50 -2 70 0 21 2 7 4 -32 4 -38 0 -55 -2 -38 -4z"/>
<path d="M1842 1240 c0 -19 2 -27 5 -17 2 9 2 25 0 35 -3 9 -5 1 -5 -18z"/>
<path d="M1602 1160 c0 -14 2 -19 5 -12 2 6 2 18 0 25 -3 6 -5 1 -5 -13z"/>
<path d="M1220 950 c0 -5 9 -10 20 -10 11 0 20 5 20 10 0 6 -9 10 -20 10 -11
0 -20 -4 -20 -10z"/>
<path d="M960 442 c0 -26 -3 -28 -30 -24 -21 3 -30 10 -30 23 0 11 -4 19 -10
19 -5 0 -10 -13 -10 -30 l0 -30 400 0 400 0 0 -30 c0 -16 5 -30 10 -30 6 0 10
9 10 20 0 13 7 20 20 20 11 0 20 5 20 10 0 6 -13 10 -30 10 -27 0 -30 3 -30
30 0 17 -4 30 -10 30 -5 0 -10 -9 -10 -20 0 -16 -7 -20 -30 -20 -23 0 -30 4
-30 20 0 11 -4 20 -10 20 -5 0 -10 -9 -10 -20 0 -16 -7 -20 -30 -20 -23 0 -30
4 -30 20 0 11 -4 20 -10 20 -5 0 -10 -9 -10 -20 0 -16 -7 -20 -30 -20 -23 0
-30 4 -30 20 0 11 -4 20 -10 20 -5 0 -10 -9 -10 -20 0 -31 -57 -28 -63 3 l-4
22 -2 -22 c-1 -22 -6 -23 -70 -23 -64 0 -70 2 -74 23 l-4 22 -2 -22 c-1 -19
-7 -23 -31 -23 -23 0 -30 4 -30 20 0 11 -4 20 -10 20 -5 0 -10 -9 -10 -20 0
-16 -7 -20 -30 -20 -23 0 -30 4 -30 20 0 11 -4 20 -10 20 -5 0 -10 -9 -10 -20
0 -16 -7 -20 -30 -20 -23 0 -30 5 -30 19 0 11 -4 23 -10 26 -6 4 -10 -6 -10
-23z"/>
<path d="M700 440 c0 -11 5 -20 10 -20 6 0 10 9 10 20 0 11 -4 20 -10 20 -5 0
-10 -9 -10 -20z"/>
<path d="M800 435 c0 -14 5 -25 10 -25 6 0 10 11 10 25 0 14 -4 25 -10 25 -5
0 -10 -11 -10 -25z"/>
<path d="M1740 435 c0 -14 5 -25 10 -25 6 0 10 11 10 25 0 14 -4 25 -10 25 -5
0 -10 -11 -10 -25z"/>
<path d="M820 391 c0 -6 9 -11 20 -11 13 0 20 -7 20 -20 0 -11 5 -20 11 -20 6
0 9 12 7 28 -2 21 -9 28 -30 30 -16 2 -28 -1 -28 -7z"/>
<path d="M952 360 c0 -14 2 -19 5 -12 2 6 2 18 0 25 -3 6 -5 1 -5 -13z"/>
<path d="M1362 360 c0 -14 2 -19 5 -12 2 6 2 18 0 25 -3 6 -5 1 -5 -13z"/>
<path d="M1442 360 c0 -14 2 -19 5 -12 2 6 2 18 0 25 -3 6 -5 1 -5 -13z"/>
<path d="M1522 360 c0 -14 2 -19 5 -12 2 6 2 18 0 25 -3 6 -5 1 -5 -13z"/>
<path d="M1600 360 c0 -11 5 -20 10 -20 6 0 10 9 10 20 0 11 -4 20 -10 20 -5
0 -10 -9 -10 -20z"/>
<path d="M2481 843 c1 -100 3 -111 11 -73 5 25 6 73 3 108 l-7 62 36 0 c20 0
36 5 36 10 0 6 -18 10 -40 10 l-40 0 1 -117z"/>
<path d="M2321 523 c1 -36 2 -37 8 -8 4 20 14 31 31 36 23 6 22 7 -7 8 -32 1
-33 0 -32 -36z"/>
</g>
</svg>
