<?xml version="1.0" standalone="no"?>
<!DOCTYPE svg PUBLIC "-//W3C//DTD SVG 20010904//EN"
 "http://www.w3.org/TR/2001/REC-SVG-20010904/DTD/svg10.dtd">
<svg version="1.0" xmlns="http://www.w3.org/2000/svg"
 width="60.000000pt" height="60.000000pt" viewBox="0 0 60.000000 60.000000"
 preserveAspectRatio="xMidYMid meet">
<metadata>
Created by potrace 1.16, written by Peter Selinger 2001-2019
</metadata>
<g transform="translate(0.000000,60.000000) scale(0.100000,-0.100000)"
fill="#000000" stroke="none">
<path d="M225 435 c-48 -18 -48 -18 -39 -4 11 19 -29 -7 -55 -35 -19 -20 -26
-40 -29 -86 -4 -53 -1 -65 22 -101 36 -53 81 -72 176 -73 89 -1 143 21 177 73
24 36 31 109 14 153 -11 29 -56 78 -72 78 -6 0 -1 -9 12 -20 31 -25 19 -26
-22 -1 -17 10 -26 20 -20 22 6 2 -20 5 -57 6 -39 1 -84 -4 -107 -12z m177 -35
c22 -16 32 -19 42 -10 10 8 15 7 20 -6 9 -25 7 -34 -8 -34 -32 0 -113 -43
-138 -73 l-27 -32 -10 27 c-5 14 -16 30 -23 34 -27 18 -117 51 -123 46 -8 -8
-6 -105 3 -119 4 -6 25 -25 46 -42 21 -17 33 -31 26 -31 -7 0 -33 20 -58 45
-44 44 -44 46 -40 100 3 31 10 61 16 67 15 15 141 -49 155 -79 6 -13 14 -23
19 -23 34 0 -43 72 -97 90 -35 12 -36 13 -19 31 39 43 163 48 216 9z m-222 16
c0 -3 -4 -8 -10 -11 -5 -3 -10 -1 -10 4 0 6 5 11 10 11 6 0 10 -2 10 -4z m270
-123 c-8 -61 -23 -89 -60 -108 -40 -21 -144 -20 -181 2 -33 20 -59 68 -59 111
0 30 0 31 28 16 15 -7 34 -14 41 -14 19 0 71 -50 71 -67 0 -22 20 -14 30 12
10 27 64 65 91 65 9 0 22 7 29 15 7 8 13 15 14 15 2 0 0 -21 -4 -47z m14 -70
c-19 -36 -85 -74 -125 -72 -16 1 -12 4 16 10 24 6 55 25 77 46 33 32 38 43 40
88 l1 50 5 -45 c2 -30 -2 -56 -14 -77z m-191 -70 c-7 -2 -19 -2 -25 0 -7 3 -2
5 12 5 14 0 19 -2 13 -5z"/>
<path d="M372 349 c-23 -12 -48 -31 -54 -43 -11 -21 -11 -21 13 1 13 12 41 29
62 38 20 8 37 17 37 20 0 9 -15 5 -58 -16z"/>
</g>
</svg>
