<?xml version="1.0" standalone="no"?>
<!DOCTYPE svg PUBLIC "-//W3C//DTD SVG 20010904//EN"
 "http://www.w3.org/TR/2001/REC-SVG-20010904/DTD/svg10.dtd">
<svg version="1.0" xmlns="http://www.w3.org/2000/svg"
 width="192.000000pt" height="192.000000pt" viewBox="0 0 192.000000 192.000000"
 preserveAspectRatio="xMidYMid meet">
<metadata>
Created by potrace 1.16, written by Peter Selinger 2001-2019
</metadata>
<g transform="translate(0.000000,192.000000) scale(0.100000,-0.100000)"
fill="#000000" stroke="none">
<path d="M855 1752 c-3 -3 -198 -9 -433 -12 l-427 -6 305 -3 c171 -2 294 -7
280 -11 -14 -4 -151 -9 -305 -11 l-280 -3 250 -6 250 -6 -247 -2 c-157 -1
-248 -6 -248 -12 0 -6 75 -10 203 -11 111 -1 194 -3 184 -6 -9 -2 -15 -9 -12
-14 4 -5 -72 -10 -187 -11 l-193 -2 165 -6 c143 -4 161 -7 137 -17 -17 -8 -82
-14 -165 -15 l-137 -2 140 -6 140 -6 -140 -4 -140 -4 122 -3 c71 -2 123 -8
123 -13 0 -6 -52 -11 -122 -12 -123 -2 -123 -2 -25 -5 53 -2 97 -8 97 -13 0
-6 -5 -10 -10 -10 -6 0 -16 -11 -22 -25 -10 -23 -16 -25 -85 -25 -42 0 -73 -4
-73 -10 0 -6 31 -10 73 -10 88 0 73 -19 -18 -22 l-60 -1 60 -7 c65 -6 58 -17
-15 -23 -44 -3 -43 -4 10 -5 64 -3 52 -21 -15 -23 l-40 -2 45 -7 45 -7 -45 -3
-45 -3 40 -7 40 -7 -40 -3 -40 -3 35 -7 35 -7 -35 -3 -35 -2 30 -8 30 -8 -30
-1 -30 -2 25 -11 25 -11 -23 -5 c-22 -3 -23 -4 -5 -17 17 -14 17 -14 -1 -15
-15 0 -16 -3 -6 -15 9 -10 9 -15 1 -15 -15 0 -13 -442 2 -452 7 -4 7 -11 -2
-22 -11 -13 -11 -16 3 -16 22 0 21 -27 -2 -33 -13 -4 -12 -5 4 -6 18 -1 34
-18 34 -36 0 -2 -12 -6 -27 -8 -25 -4 -25 -4 7 -7 l35 -3 -35 -7 -35 -7 40 -3
40 -3 -40 -7 -40 -7 43 -2 c26 0 41 -5 37 -11 -3 -6 0 -11 7 -12 7 0 -9 -4
-37 -8 l-50 -7 52 -1 c72 -3 77 -20 6 -25 l-58 -3 62 -2 c85 -3 93 -22 9 -22
-39 0 -66 -4 -66 -10 0 -7 27 -10 70 -9 43 1 75 -3 84 -11 9 -6 -5 19 -29 56
-39 60 -54 94 -41 94 2 0 16 -21 31 -48 39 -67 73 -100 132 -128 28 -14 53
-31 56 -39 10 -25 176 -115 250 -134 84 -23 158 -34 206 -32 18 1 39 -3 45 -8
15 -12 298 -11 313 1 7 6 24 7 37 4 29 -7 201 25 266 49 117 44 119 46 258
183 46 46 78 73 71 60 -21 -38 -20 -52 2 -32 19 17 79 106 79 117 0 3 -16 -3
-36 -15 -20 -12 -35 -17 -32 -12 39 82 50 109 63 160 21 79 30 281 17 369 -6
39 -20 97 -31 130 -11 33 -21 89 -23 125 l-3 65 70 6 70 5 -65 2 c-98 3 -113
22 -17 22 44 0 77 4 77 10 0 6 -33 10 -78 10 -74 0 -79 2 -92 25 -7 14 -20 25
-29 25 -9 0 -12 3 -5 10 5 5 54 11 109 13 94 3 92 3 -32 5 -78 1 -133 6 -133
12 0 5 56 11 133 13 l132 3 -150 4 -150 4 150 6 150 6 -148 2 c-97 1 -156 6
-170 15 -18 10 5 13 148 17 l170 6 -205 2 c-123 1 -199 6 -191 11 11 7 10 10
-5 14 -10 2 74 5 189 6 130 1 207 5 207 11 0 6 -96 11 -262 12 l-263 2 265 6
265 6 -295 2 c-418 3 -440 16 -40 22 l335 5 -430 4 c-236 2 -476 5 -532 6 -56
1 -105 0 -108 -3z m356 -38 c208 -29 352 -82 467 -173 76 -61 93 -92 91 -171
-1 -42 6 -89 19 -133 87 -278 25 -605 -147 -776 -160 -160 -376 -220 -750
-208 -256 8 -388 39 -513 120 -57 37 -153 133 -183 183 -16 28 -71 57 -110 59
-13 0 -31 50 -55 150 -16 64 -19 110 -17 235 3 141 6 163 32 240 40 117 124
241 206 303 89 67 225 130 333 153 54 12 125 24 161 27 85 9 377 3 466 -9z
m-1035 -1179 c24 -37 10 -42 -16 -6 -12 17 -17 31 -11 31 6 0 18 -11 27 -25z"/>
<path d="M785 1700 c-154 -14 -288 -53 -395 -115 -14 -8 -42 -22 -63 -31 -21
-9 -36 -19 -33 -21 8 -8 68 16 106 42 51 35 204 83 322 101 158 24 440 15 570
-19 120 -32 209 -73 295 -138 60 -46 67 -49 82 -35 13 14 13 16 0 16 -8 0 -30
13 -49 28 -54 45 -158 98 -235 122 -144 44 -417 67 -600 50z"/>
<path d="M715 1655 c-162 -27 -294 -81 -378 -155 l-41 -37 23 -39 23 -39 -39
42 c-39 42 -71 63 -95 63 -13 -1 23 -35 90 -88 l33 -25 67 66 c81 80 162 130
263 162 196 62 508 53 665 -19 69 -32 186 -118 231 -172 l38 -44 63 51 c34 29
60 54 58 57 -12 12 -69 -24 -96 -61 -17 -23 -30 -36 -30 -30 0 6 10 23 22 38
l22 28 -45 39 c-78 67 -196 121 -339 154 -95 22 -419 27 -535 9z m-219 -98
c-38 -24 -136 -109 -136 -118 0 -14 -17 -11 -23 5 -6 14 62 70 128 105 43 23
62 28 31 8z m1051 -71 c23 -17 43 -37 43 -43 0 -21 -12 -15 -57 26 -23 21 -55
49 -70 60 l-28 22 35 -17 c19 -9 54 -30 77 -48z"/>
<path d="M754 1596 c-83 -16 -170 -41 -201 -59 -17 -10 61 -12 407 -12 416 0
428 1 395 18 -19 9 -72 27 -117 38 -107 27 -377 35 -484 15z m391 -16 c12 -5
-62 -8 -185 -8 -117 0 -194 3 -180 8 34 11 340 11 365 0z m-7 -37 c-98 -2
-258 -2 -355 0 -98 1 -18 2 177 2 195 0 275 -1 178 -2z"/>
<path d="M728 1503 c127 -2 337 -2 465 0 127 1 23 2 -233 2 -256 0 -360 -1
-232 -2z"/>
<path d="M950 1490 l-485 -5 493 -3 c327 -1 491 1 487 8 -3 6 -7 9 -8 8 -1 -2
-220 -5 -487 -8z"/>
<path d="M433 1458 c-2 -5 235 -8 528 -8 293 0 530 2 527 5 -8 8 -1049 11
-1055 3z"/>
<path d="M233 1395 c65 -59 141 -101 352 -194 80 -35 162 -78 190 -101 57 -46
52 -40 109 -102 34 -38 50 -48 75 -48 21 0 30 -4 25 -11 -3 -6 -17 -9 -30 -6
-30 5 -31 -1 -2 -12 19 -7 28 0 62 43 57 73 130 142 181 171 24 15 117 56 207
93 90 37 188 84 218 104 62 42 127 104 117 114 -7 7 -50 -24 -106 -76 -24 -22
-37 -28 -44 -21 -15 15 -1243 15 -1252 0 -5 -7 -11 -5 -18 5 -23 28 -112 96
-127 96 -8 -1 11 -24 43 -55z m1039 -52 c-171 -2 -453 -2 -625 0 -171 1 -31 2
313 2 344 0 484 -1 312 -2z m239 -38 c-28 -13 -119 -15 -550 -15 -294 0 -521
4 -526 9 -6 5 -19 11 -30 14 -11 3 241 5 560 5 517 1 576 0 546 -13z m-111
-50 c-38 -22 -837 -22 -866 0 -17 13 34 14 436 14 399 0 452 -1 430 -14z
m-110 -45 c-9 -6 -144 -10 -330 -10 -186 0 -321 4 -330 10 -10 6 104 10 330
10 226 0 340 -4 330 -10z m-100 -40 c0 -6 -83 -10 -229 -10 -143 0 -232 4
-236 10 -4 7 75 10 229 10 151 0 236 -4 236 -10z m-127 -37 c-57 -2 -149 -2
-205 0 -57 1 -11 3 102 3 113 0 159 -2 103 -3z m57 -19 c0 -3 -6 -12 -14 -20
-11 -11 -46 -14 -148 -14 -128 0 -158 6 -158 32 0 4 72 8 160 8 88 0 160 -3
160 -6z m-90 -94 c-43 -36 -99 -41 -130 -10 -11 11 -24 20 -29 20 -6 0 -13 5
-16 10 -4 6 32 10 102 10 l107 0 -34 -30z m-25 -50 c-3 -5 -24 -10 -45 -10
-21 0 -42 5 -45 10 -4 6 13 10 45 10 32 0 49 -4 45 -10z"/>
<path d="M170 1367 c0 -64 1 -68 26 -78 34 -12 39 -7 14 16 -14 12 -20 31 -20
59 0 23 -5 48 -10 56 -7 11 -10 -5 -10 -53z"/>
<path d="M367 1393 c-3 -5 264 -8 593 -8 329 0 596 3 593 8 -2 4 -269 7 -593
7 -324 0 -591 -3 -593 -7z"/>
<path d="M139 1355 c-3 -5 -6 -21 -7 -35 -1 -14 -11 -61 -22 -104 -11 -44 -20
-89 -19 -100 1 -25 1 -25 34 95 23 83 32 175 14 144z"/>
<path d="M166 1268 c-2 -7 -12 -35 -20 -63 -29 -90 -40 -226 -27 -342 12 -102
40 -213 62 -243 9 -12 10 -11 4 5 -39 119 -55 374 -31 492 27 136 28 137 62
64 26 -59 32 -66 81 -87 29 -13 130 -44 225 -70 183 -48 243 -74 314 -137 44
-39 64 -73 89 -152 13 -39 13 -39 20 -13 15 58 -116 238 -222 306 -27 17 -118
57 -203 90 -175 67 -246 99 -308 137 -31 19 -43 23 -46 13z m147 -100 c21 -10
93 -39 160 -64 104 -38 280 -116 223 -99 -11 3 -81 19 -155 36 -192 42 -273
75 -296 120 -8 15 -15 31 -15 34 0 9 37 -3 83 -27z"/>
<path d="M1665 1234 c-72 -39 -144 -70 -358 -150 -126 -48 -234 -149 -308
-288 -28 -51 -32 -69 -30 -123 1 -35 -1 -63 -6 -63 -4 0 -28 41 -52 91 -33 68
-60 107 -107 154 -77 77 -148 113 -299 154 -60 16 -130 37 -154 45 -49 18
-111 21 -111 6 0 -5 20 -10 45 -10 53 0 375 -94 375 -110 0 -3 -95 -3 -211 -1
-174 2 -211 1 -207 -10 6 -19 408 -26 419 -8 8 14 60 -4 80 -27 10 -12 -27
-14 -245 -14 -164 0 -256 -4 -256 -10 0 -6 98 -10 275 -10 177 0 275 -4 275
-10 0 -6 -98 -10 -275 -10 -151 0 -275 -3 -275 -7 0 -5 129 -7 287 -5 187 2
290 -1 297 -8 7 -7 -82 -10 -282 -10 l-292 0 1 -22 c0 -13 3 -17 6 -10 3 9 71
12 288 12 156 0 290 -3 299 -6 49 -19 -12 -24 -284 -24 -244 0 -300 -2 -300
-13 0 -27 38 -125 66 -168 43 -69 162 -181 224 -211 113 -54 167 -62 395 -63
240 0 285 8 423 76 157 77 265 215 296 380 16 87 21 307 6 329 -6 10 -10 11
-10 3 0 -7 -10 -14 -22 -14 -21 -1 -21 -2 -3 -6 45 -11 37 -23 -14 -23 -42 0
-235 -43 -249 -55 -1 -1 62 0 141 3 105 3 146 1 152 -7 5 -9 -34 -12 -162 -10
-152 1 -174 -1 -214 -19 -43 -20 -44 -20 -9 -15 19 3 39 10 44 14 6 5 83 9
172 9 154 0 162 -1 167 -20 5 -20 2 -21 -220 -20 -148 1 -229 -2 -236 -9 -8
-8 58 -11 227 -11 130 0 235 -3 233 -7 -3 -5 -114 -6 -248 -3 l-242 5 -49 -44
c-90 -81 -104 -76 225 -73 190 2 294 -1 301 -8 7 -7 -86 -10 -296 -10 -169 0
-309 -3 -311 -7 -3 -5 128 -8 291 -8 190 0 298 -4 299 -10 2 -7 -104 -10 -302
-10 -168 0 -305 -3 -305 -7 0 -5 138 -8 308 -8 171 0 301 -4 294 -9 -8 -4 -13
-12 -13 -17 1 -5 -137 -11 -306 -14 l-308 -5 308 -3 c304 -2 308 -2 297 -22
-10 -19 -21 -20 -315 -20 l-305 0 0 44 c0 47 34 120 79 170 70 77 223 154 399
202 53 14 124 37 157 50 57 23 61 27 85 84 14 33 28 60 31 60 14 0 40 -190 37
-275 l-3 -89 -37 -9 c-21 -5 -38 -13 -38 -18 0 -12 22 -11 53 0 l24 9 -12 -74
c-12 -78 -3 -100 15 -36 23 85 32 220 21 318 -11 92 -40 215 -51 213 -3 -1
-41 -21 -85 -45z m16 -63 c-23 -44 -64 -65 -211 -106 -52 -14 -140 -42 -195
-61 -86 -29 -97 -31 -75 -13 37 31 102 62 220 104 58 20 141 54 185 75 44 21
83 39 88 39 4 1 -1 -16 -12 -38z m-21 -151 c0 -6 -30 -10 -71 -10 -44 0 -68 4
-64 10 3 6 35 10 71 10 36 0 64 -4 64 -10z m4 -155 c-5 -13 -44 -15 -260 -15
-221 0 -253 2 -248 15 5 13 44 15 260 15 221 0 253 -2 248 -15z m-142 -32
c-73 -2 -190 -2 -260 0 -70 1 -10 3 133 3 143 0 200 -2 127 -3z m138 -23 c0
-6 -104 -10 -291 -10 -191 0 -288 3 -284 10 4 6 112 10 291 10 183 0 284 -4
284 -10z m-784 -75 c17 -13 -17 -14 -293 -15 -199 0 -313 4 -313 10 0 6 107
11 288 13 158 1 290 3 293 5 3 1 14 -5 25 -13z m19 -35 c4 -7 -100 -9 -307 -8
l-313 3 300 5 c165 3 303 6 307 8 4 1 10 -2 13 -8z m-132 -27 c-83 -2 -223 -2
-310 0 -87 1 -19 3 152 3 171 0 242 -2 158 -3z m157 -23 c10 -6 -94 -10 -303
-10 -210 0 -316 3 -312 10 8 13 594 13 615 0z m15 -30 c-8 -13 -584 -13 -605
0 -10 6 92 10 298 10 206 0 311 -3 307 -10z m555 -3 c58 -1 -33 -4 -202 -5
-170 -1 -308 1 -308 6 0 6 247 6 510 -1z m-218 -24 c-171 -2 -453 -2 -625 0
-171 1 -31 2 313 2 344 0 484 -1 312 -2z m293 -23 c-4 -6 -217 -10 -605 -10
-388 0 -601 4 -605 10 -4 7 200 10 605 10 405 0 609 -3 605 -10z m-30 -40 c-9
-14 -1141 -14 -1150 0 -4 7 190 10 575 10 385 0 579 -3 575 -10z m-65 -60 c0
-7 -177 -10 -510 -10 -333 0 -510 3 -510 10 0 7 177 10 510 10 333 0 510 -3
510 -10z m-40 -29 c0 -5 -14 -11 -31 -15 -40 -8 -867 -8 -896 0 -71 19 21 24
452 24 265 0 475 -4 475 -9z m-475 -51 c258 0 404 4 418 11 21 10 21 10 3 -5
-22 -18 -30 -19 -105 -16 -37 1 -51 -1 -47 -9 5 -8 -71 -11 -269 -11 -182 0
-274 3 -270 10 4 6 -12 10 -42 9 l-48 -1 43 -13 c79 -25 240 -38 392 -31 80 3
159 8 175 11 23 4 26 3 10 -4 -11 -4 -67 -14 -125 -20 -177 -20 -438 11 -541
65 -16 8 -29 17 -29 20 0 2 9 0 19 -6 13 -6 162 -10 416 -10z m312 -36 c-3 -3
-12 -4 -19 -1 -8 3 -5 6 6 6 11 1 17 -2 13 -5z"/>
<path d="M1393 1160 c-180 -66 -225 -92 -318 -184 -44 -44 -84 -80 -90 -81 -5
0 -13 -18 -16 -40 -5 -38 -5 -38 -10 -10 -2 17 -8 29 -13 27 -4 -2 -19 20 -32
47 -13 28 -26 51 -29 51 -3 0 -1 -10 6 -22 6 -13 -18 5 -52 40 -35 35 -86 75
-113 90 -51 25 -238 93 -243 88 -2 -2 51 -27 118 -56 171 -75 250 -144 332
-288 l30 -53 27 50 c62 112 136 194 222 245 24 14 96 45 159 69 110 42 185 76
164 76 -5 0 -69 -22 -142 -49z"/>
<path d="M206 1074 c-8 -62 -6 -203 4 -234 10 -33 10 -37 13 133 3 146 -4 189
-17 101z"/>
<path d="M1700 1069 c0 -24 5 -51 10 -59 7 -10 8 2 5 39 -5 66 -15 80 -15 20z"/>
<path d="M242 1009 c3 -10 28 -15 94 -16 71 -2 85 -1 69 9 -10 6 -52 13 -93
16 -61 4 -74 2 -70 -9z"/>
<path d="M84 860 c6 -102 33 -209 61 -239 22 -23 22 -20 -7 60 -16 46 -36 122
-44 169 l-14 85 4 -75z"/>
<path d="M950 900 c0 -5 5 -10 10 -10 6 0 10 5 10 10 0 6 -4 10 -10 10 -5 0
-10 -4 -10 -10z"/>
<path d="M1168 703 c84 -2 219 -2 300 0 81 1 12 3 -153 3 -165 0 -231 -2 -147
-3z"/>
<path d="M238 525 c22 -32 78 -88 126 -123 47 -36 50 -13 4 28 -32 29 -38 39
-25 40 10 0 15 5 12 10 -4 6 -15 8 -24 5 -10 -3 -29 4 -44 16 -15 11 -27 17
-27 14 0 -4 -9 3 -21 16 l-21 24 20 -30z"/>
<path d="M1566 450 c-84 -65 -228 -126 -359 -151 -34 -7 -136 -15 -227 -19
l-165 -7 150 -1 c199 -2 317 15 456 67 65 25 176 97 197 129 21 32 4 26 -52
-18z"/>
<path d="M1792 1410 c3 -10 21 -13 64 -11 73 3 85 11 16 11 -27 0 -58 3 -68 7
-11 4 -15 2 -12 -7z"/>
<path d="M1812 1379 c3 -9 19 -12 54 -10 61 3 72 11 16 11 -22 0 -48 3 -58 7
-11 4 -15 2 -12 -8z"/>
<path d="M1833 1343 c3 -10 20 -56 37 -103 24 -63 34 -111 40 -185 l7 -100 0
113 c0 65 -4 112 -10 112 -5 0 -4 7 3 15 10 12 9 15 -6 15 -18 1 -18 1 -1 15
18 13 17 14 -5 17 l-23 5 25 11 25 11 -29 0 c-32 1 -26 15 9 24 13 3 8 6 -15
7 l-35 3 35 7 35 7 -40 3 -40 3 40 7 40 7 -40 3 -40 3 40 7 40 7 -49 2 c-42 1
-48 -1 -43 -16z"/>
<path d="M1912 910 c0 -19 2 -27 5 -17 2 9 2 25 0 35 -3 9 -5 1 -5 -18z"/>
<path d="M1867 773 c-4 -3 -7 -20 -6 -37 l1 -31 9 34 c10 33 8 47 -4 34z"/>
<path d="M1890 730 c0 -5 7 -10 15 -10 8 0 15 5 15 10 0 6 -7 10 -15 10 -8 0
-15 -4 -15 -10z"/>
<path d="M1842 671 c-17 -48 -14 -63 4 -22 8 19 13 39 11 45 -2 6 -9 -5 -15
-23z"/>
<path d="M1888 683 c6 -2 18 -2 25 0 6 3 1 5 -13 5 -14 0 -19 -2 -12 -5z"/>
<path d="M1873 633 c9 -2 25 -2 35 0 9 3 1 5 -18 5 -19 0 -27 -2 -17 -5z"/>
<path d="M1868 613 c12 -2 30 -2 40 0 9 3 -1 5 -23 4 -22 0 -30 -2 -17 -4z"/>
<path d="M1858 593 c12 -2 32 -2 45 0 12 2 2 4 -23 4 -25 0 -35 -2 -22 -4z"/>
<path d="M1843 553 c15 -2 39 -2 55 0 15 2 2 4 -28 4 -30 0 -43 -2 -27 -4z"/>
<path d="M1828 523 c17 -2 47 -2 65 0 17 2 3 4 -33 4 -36 0 -50 -2 -32 -4z"/>
<path d="M1775 490 c-4 -6 22 -10 69 -10 44 0 76 4 76 10 0 6 -30 10 -69 10
-39 0 -73 -4 -76 -10z"/>
<path d="M1725 430 c-18 -20 -17 -20 88 -20 100 0 107 1 107 20 0 18 -7 20
-88 20 -76 0 -91 -3 -107 -20z"/>
<path d="M0 420 c0 -19 7 -20 108 -20 96 0 111 -2 127 -20 17 -19 16 -19 -111
-23 l-129 -3 140 -2 c83 -1 134 -6 126 -11 -9 -6 -1 -10 25 -13 49 -6 53 -3
17 15 -16 9 -51 34 -78 56 l-50 41 -87 0 c-81 0 -88 -2 -88 -20z"/>
<path d="M1653 368 c-2 -5 58 -7 134 -6 139 2 124 5 -40 10 -49 2 -91 0 -94
-4z"/>
<path d="M1625 350 c-4 -6 6 -10 22 -10 22 0 25 2 13 10 -19 12 -27 12 -35 0z"/>
<path d="M170 310 l-175 -6 183 -2 c120 -1 181 1 177 8 -3 6 -7 9 -8 8 -1 -1
-81 -5 -177 -8z"/>
<path d="M1652 313 c48 -2 129 -2 180 0 51 1 12 3 -87 3 -99 0 -141 -2 -93 -3z"/>
<path d="M1516 288 c-6 -4 84 -7 199 -6 222 2 207 6 -39 10 -81 2 -153 0 -160
-4z"/>
<path d="M195 280 l-200 -6 220 -4 220 -4 -220 -6 -220 -6 230 -2 c165 -2 243
-6 275 -16 41 -14 23 -15 -227 -15 -175 -1 -273 -5 -273 -11 0 -6 120 -10 340
-10 187 0 340 2 340 4 0 2 -35 12 -77 21 -43 10 -107 27 -143 39 -60 19 -80
21 -265 16z"/>
<path d="M1430 257 c-30 -10 -82 -24 -115 -32 -54 -12 -28 -13 273 -14 215 -1
332 3 332 9 0 6 -93 10 -257 11 -228 0 -254 2 -223 14 25 10 101 14 260 16
239 3 221 7 -50 11 -138 3 -174 0 -220 -15z"/>
<path d="M698 203 c7 -3 16 -2 19 1 4 3 -2 6 -13 5 -11 0 -14 -3 -6 -6z"/>
<path d="M1145 199 c-33 -5 -134 -9 -225 -9 -91 -1 -336 -4 -545 -8 l-380 -8
372 -2 c234 -1 382 2 399 8 17 7 31 7 38 1 7 -6 76 -8 166 -6 85 2 333 5 550
6 l395 2 -335 7 c-184 4 -344 9 -355 12 -11 3 -47 2 -80 -3z"/>
</g>
</svg>
