<?xml version="1.0" standalone="no"?>
<!DOCTYPE svg PUBLIC "-//W3C//DTD SVG 20010904//EN"
 "http://www.w3.org/TR/2001/REC-SVG-20010904/DTD/svg10.dtd">
<svg version="1.0" xmlns="http://www.w3.org/2000/svg"
 width="200.000000pt" height="200.000000pt" viewBox="0 0 200.000000 200.000000"
 preserveAspectRatio="xMidYMid meet">
<metadata>
Created by potrace 1.16, written by Peter Selinger 2001-2019
</metadata>
<g transform="translate(0.000000,200.000000) scale(0.100000,-0.100000)"
fill="#000000" stroke="none">
<path d="M378 1723 c-240 -2 -378 -7 -378 -13 0 -6 114 -10 313 -11 286 -1
307 -2 252 -14 -41 -9 -139 -14 -312 -14 -159 -1 -253 -5 -253 -11 0 -6 87
-11 228 -13 l227 -2 -227 -3 c-144 -1 -228 -6 -228 -12 0 -6 73 -10 198 -10
l197 -1 -37 -19 c-20 -11 -40 -24 -43 -30 -4 -6 -67 -10 -161 -10 -201 0 -207
-18 -6 -23 l147 -3 -147 -2 c-91 -1 -148 -6 -148 -12 0 -6 47 -10 121 -10 77
0 118 -4 114 -10 -4 -6 -55 -10 -121 -10 -69 0 -114 -4 -114 -10 0 -6 45 -10
116 -10 102 0 115 -2 104 -15 -10 -12 -36 -15 -116 -15 -63 0 -104 -4 -104
-10 0 -6 36 -10 89 -10 l89 0 -28 -52 c-16 -29 -34 -72 -41 -95 -12 -43 -12
-43 -63 -45 l-51 -2 48 -3 c60 -5 62 -23 2 -23 -25 0 -45 -4 -45 -10 0 -5 17
-10 38 -10 l37 0 0 -168 c0 -141 4 -180 23 -249 12 -45 22 -105 22 -133 l0
-50 -60 0 c-33 0 -60 -4 -60 -10 0 -6 44 -10 111 -10 105 0 111 1 98 17 -8 10
-17 20 -20 23 -11 9 -67 183 -80 245 -15 79 -16 256 0 327 75 346 328 515 796
535 270 11 511 -27 657 -104 73 -38 174 -123 196 -165 12 -23 15 -23 130 -18
l117 5 -110 5 -110 6 108 2 c88 2 107 5 107 17 0 12 -20 15 -118 15 l-119 0
-32 35 -31 35 150 0 c91 0 150 4 150 10 0 6 -69 11 -172 13 l-173 3 175 4 175
4 -190 6 -190 6 188 2 c258 3 247 21 -15 25 l-203 2 203 3 c289 3 264 21 -35
25 l-238 2 238 3 c332 3 308 20 -35 25 -205 3 -288 8 -333 19 -58 15 -49 16
274 17 184 1 332 3 330 5 -6 5 -1202 12 -1621 9z m-219 -1125 c1 -10 -3 -18
-9 -18 -5 0 -10 19 -9 43 1 36 2 38 9 17 4 -14 8 -33 9 -42z"/>
<path d="M800 1683 c-134 -14 -279 -58 -325 -97 -16 -14 -43 -27 -61 -31 -18
-3 -36 -10 -39 -15 -12 -19 16 -10 108 35 106 52 205 79 341 94 317 36 607
-25 768 -160 46 -39 49 -39 75 -25 l28 15 -31 1 c-20 0 -39 9 -55 26 -41 44
-151 98 -253 124 -133 34 -399 50 -556 33z"/>
<path d="M810 1649 c-168 -20 -313 -73 -400 -148 l-44 -38 23 -32 c17 -24 26
-29 36 -21 15 12 1124 15 1136 3 4 -5 3 -28 -1 -53 -4 -25 -8 -42 -9 -38 0 3
-51 -16 -112 -43 l-111 -49 -332 0 -331 0 -117 52 c-112 50 -117 54 -118 83
l0 30 -19 -24 c-15 -20 -20 -21 -27 -10 -16 27 -114 102 -122 95 -12 -13 95
-102 167 -139 36 -19 124 -61 196 -92 154 -68 166 -75 227 -133 l47 -45 88 1
c69 1 83 -1 66 -9 -12 -6 -24 -21 -27 -33 -3 -11 -11 -30 -19 -40 -14 -19 -16
-17 -38 22 -13 23 -30 44 -37 47 -28 10 -32 -7 -11 -41 34 -56 17 -48 -36 16
-57 67 -117 103 -249 149 -110 39 -136 36 -35 -3 185 -72 297 -160 364 -288
l30 -57 29 56 c43 80 153 193 223 230 32 17 97 45 145 62 96 33 153 60 145 67
-3 3 -13 1 -24 -4 -10 -6 -65 -27 -123 -48 -178 -63 -237 -100 -318 -197 -24
-29 -47 -51 -51 -50 -5 1 -12 -17 -17 -40 -8 -42 -8 -42 -12 -10 -3 27 7 48
49 109 86 124 156 173 357 253 57 23 129 54 161 70 61 31 171 116 171 132 0
21 -28 6 -78 -41 -29 -28 -57 -48 -62 -45 -4 3 -10 -1 -13 -7 -3 -7 -4 -1 -3
13 1 14 12 40 24 56 12 17 22 34 22 37 0 15 -72 69 -140 105 -162 85 -416 119
-670 90z m419 -35 c86 -18 198 -77 268 -142 27 -24 43 -41 36 -37 -15 7 -1061
7 -1076 -1 -7 -3 9 14 34 38 86 82 232 143 374 158 101 10 268 3 364 -16z
m-654 -57 c-33 -17 -80 -51 -104 -75 -40 -37 -72 -49 -71 -25 1 14 89 73 153
104 83 39 97 37 22 -4z m894 -17 c81 -44 129 -86 115 -100 -9 -9 -20 -3 -45
22 -19 18 -38 33 -42 33 -4 0 -11 6 -16 13 -4 8 -26 24 -47 37 -56 35 -32 31
35 -5z m-272 -360 l-48 -30 -157 0 c-87 0 -162 4 -167 9 -6 5 -28 18 -50 30
l-40 21 255 0 254 0 -47 -30z m-62 -50 c4 -6 -45 -10 -140 -10 -95 0 -144 4
-140 10 4 6 62 10 140 10 78 0 136 -4 140 -10z m-52 -45 c-4 -13 -21 -15 -91
-13 -57 2 -87 7 -90 16 -3 9 20 12 92 12 82 0 95 -2 89 -15z m-125 -114 c17
-26 27 -52 24 -57 -4 -5 -21 19 -39 53 -36 73 -28 75 15 4z"/>
<path d="M825 1600 c-66 -11 -181 -44 -205 -60 -10 -6 113 -10 375 -9 l390 0
-43 20 c-79 35 -173 51 -317 54 -77 2 -167 0 -200 -5z m268 -27 c-51 -2 -136
-2 -190 0 -54 1 -12 3 92 3 105 0 149 -2 98 -3z m60 -20 c-83 -2 -223 -2 -310
0 -87 1 -19 3 152 3 171 0 242 -2 158 -3z"/>
<path d="M980 1520 c-384 -5 -417 -6 -442 -24 -16 -10 -28 -20 -28 -22 0 -2
219 -4 488 -4 441 1 485 2 467 16 -50 39 -59 39 -485 34z m415 -20 c4 -7 -133
-9 -407 -8 l-413 3 400 5 c220 3 403 6 407 8 4 1 10 -2 13 -8z"/>
<path d="M335 1510 c-3 -5 -2 -10 4 -10 5 0 13 5 16 10 3 6 2 10 -4 10 -5 0
-13 -4 -16 -10z"/>
<path d="M330 1442 c30 -28 58 -51 63 -52 14 0 -44 78 -61 83 -9 3 -26 8 -37
12 -11 4 5 -16 35 -43z"/>
<path d="M1668 1466 c-23 -10 -78 -69 -78 -84 0 -5 46 30 90 67 37 32 33 37
-12 17z"/>
<path d="M250 1372 c0 -56 2 -64 23 -71 28 -11 37 -3 14 13 -11 9 -17 27 -17
52 0 21 -5 46 -10 54 -7 11 -10 -4 -10 -48z"/>
<path d="M1750 1370 c0 -30 9 -77 19 -105 45 -119 53 -333 17 -470 -59 -223
-218 -374 -456 -434 -250 -63 -640 -40 -824 49 -110 53 -212 153 -262 260 -26
54 -54 159 -72 270 -9 52 -9 53 -11 15 -2 -89 36 -252 68 -289 15 -18 15 -18
-9 -11 -14 4 -31 12 -39 19 -18 14 24 -69 56 -112 14 -19 46 -43 72 -54 25
-10 58 -32 73 -47 39 -40 160 -98 253 -121 248 -63 634 -44 830 40 26 11 52
17 57 13 7 -4 8 -1 3 7 -6 10 -4 12 9 7 9 -4 15 -3 11 2 -3 5 10 19 29 31 19
11 67 55 105 96 39 42 71 72 71 67 0 -5 -5 -14 -12 -21 -7 -7 -8 -12 -3 -12 4
0 0 -10 -11 -22 l-19 -23 24 20 c25 20 81 102 81 117 0 5 -10 0 -22 -12 -35
-32 -51 -26 -28 13 10 17 29 66 42 107 20 65 23 96 23 230 0 135 -3 165 -24
230 -13 41 -25 97 -26 123 -4 72 -25 86 -25 17z m-1491 -777 c12 -14 19 -28
16 -31 -6 -6 -55 38 -55 50 0 16 19 7 39 -19z"/>
<path d="M1533 1375 c0 -22 2 -30 4 -17 2 12 2 30 0 40 -3 9 -5 -1 -4 -23z"/>
<path d="M1809 1352 c58 -116 81 -211 81 -340 0 -64 -5 -146 -11 -182 -9 -55
-21 -91 -76 -217 -3 -7 0 -13 6 -13 6 0 11 10 11 22 0 25 15 14 23 -17 3 -11
6 0 7 25 1 25 6 56 10 70 6 19 8 10 9 -36 1 -69 16 -96 46 -84 17 7 17 9 3 9
-16 1 -18 14 -18 124 0 68 3 185 7 260 l6 137 44 0 c32 0 43 4 43 15 0 11 -12
15 -45 15 -25 0 -45 5 -45 10 0 6 20 10 45 10 25 0 45 5 45 10 0 6 -27 10 -60
10 -56 0 -60 1 -60 23 0 30 -33 127 -56 167 -33 55 -45 41 -15 -18z"/>
<path d="M452 1370 c0 -19 2 -27 5 -17 2 9 2 25 0 35 -3 9 -5 1 -5 -18z"/>
<path d="M217 1370 c-4 -14 -6 -34 -5 -45 0 -11 -8 -54 -20 -95 -11 -41 -23
-93 -27 -115 -10 -62 10 -29 25 40 7 33 20 80 29 105 10 29 14 61 10 90 -4 38
-6 41 -12 20z"/>
<path d="M172 1283 c-24 -58 -38 -111 -46 -178 -4 -31 -3 -42 3 -30 4 11 11
43 15 71 3 28 17 79 31 114 29 75 27 92 -3 23z"/>
<path d="M1791 1315 c0 -5 9 -28 20 -50 10 -22 16 -29 13 -15 -7 28 -33 80
-33 65z"/>
<path d="M239 1263 c-44 -116 -53 -335 -19 -468 32 -125 62 -179 142 -259 67
-65 140 -119 137 -99 -4 21 3 23 23 9 34 -24 45 -19 12 6 -16 11 -56 46 -88
77 -33 31 -54 49 -48 40 19 -25 -12 -33 -33 -9 -10 11 -21 17 -25 15 -11 -7
-65 82 -83 135 -41 125 -47 365 -12 489 l18 63 27 -59 c26 -57 30 -61 91 -86
35 -15 130 -45 212 -66 240 -65 318 -119 361 -251 22 -69 24 -72 25 -37 2 68
-79 193 -171 266 -48 39 -80 54 -316 146 -68 27 -149 63 -179 82 -31 18 -57
33 -59 33 -3 0 -9 -12 -15 -27z m226 -105 c28 -11 92 -35 143 -53 89 -32 188
-82 179 -91 -2 -2 -17 2 -33 10 -16 8 -102 33 -192 55 -205 51 -238 68 -257
129 l-6 22 58 -26 c32 -14 81 -35 108 -46z m-104 -605 c13 -16 12 -17 -3 -4
-17 13 -22 21 -14 21 2 0 10 -8 17 -17z m71 -32 c13 -11 33 -29 46 -39 14 -12
19 -23 12 -27 -13 -8 -32 4 -24 16 3 6 -2 9 -12 7 -11 -2 -18 2 -17 9 2 7 -6
17 -17 23 -11 6 -20 8 -20 5 0 -4 -5 -3 -10 0 -12 7 -4 25 11 25 5 0 19 -9 31
-19z"/>
<path d="M1716 1281 c-10 -15 -175 -91 -295 -135 -197 -73 -249 -106 -327
-209 -72 -96 -92 -147 -102 -267 -6 -69 -9 -84 -9 -44 0 51 -6 71 -38 132 -46
88 -99 149 -167 195 -48 31 -154 77 -178 77 -12 0 -12 -427 0 -455 5 -12 9 74
9 214 1 129 3 232 6 230 2 -3 5 -107 5 -232 1 -130 5 -227 10 -227 6 0 11 97
13 223 l2 222 3 -222 c1 -141 6 -223 12 -223 6 0 11 82 12 223 l2 222 6 -210
6 -210 4 200 4 200 6 -200 6 -200 4 195 4 195 6 -195 5 -195 5 185 5 185 3
-187 2 -188 -22 -1 c-13 -1 -26 -1 -30 0 -5 0 -8 -4 -8 -9 0 -6 21 -10 48 -10
l47 0 -2 197 c-1 123 1 190 7 176 5 -11 10 -100 11 -197 l2 -176 36 0 36 0 -3
146 c-2 100 0 144 7 139 7 -4 11 -54 11 -131 0 -104 2 -124 15 -124 12 0 15
17 16 88 0 68 2 82 10 62 6 -14 9 -52 8 -84 -3 -71 18 -91 24 -24 l4 43 1 -47
2 -48 -34 0 c-19 0 -38 -4 -41 -10 -4 -6 46 -10 142 -10 l148 0 0 185 0 184
-41 -40 c-38 -38 -89 -123 -94 -159 -1 -8 -1 -42 1 -75 l3 -60 6 70 6 70 2
-67 c3 -105 22 -82 24 30 l2 97 6 -105 6 -105 2 123 c1 73 6 122 12 122 6 0
10 -44 10 -111 0 -92 3 -114 16 -124 14 -10 8 -13 -40 -18 -45 -4 -61 -2 -77
11 -23 20 -26 62 -4 62 12 0 14 11 9 59 -6 54 -4 64 26 115 58 102 201 187
425 252 185 54 197 61 226 127 13 31 27 57 30 57 3 0 14 -46 24 -102 19 -109
17 -242 -5 -346 -13 -58 -7 -81 10 -38 42 111 37 369 -9 489 -10 27 -25 35
-35 18z m-26 -58 c0 -5 -9 -22 -19 -39 -20 -33 -67 -53 -228 -98 -50 -14 -126
-39 -168 -55 -68 -26 -75 -28 -59 -10 23 26 112 67 244 114 58 21 130 50 160
66 59 30 70 33 70 22z m-520 -258 c-13 -14 -28 -25 -34 -25 -11 1 40 50 51 50
4 0 -4 -11 -17 -25z m-413 -287 c-1 -51 -3 -10 -3 92 0 102 2 143 3 93 2 -51
2 -135 0 -185z m83 49 c0 -96 -4 -146 -10 -142 -6 4 -10 69 -10 163 0 105 4
152 10 142 5 -8 10 -82 10 -163z"/>
<path d="M1417 1218 c-54 -22 -96 -42 -94 -45 2 -2 25 5 50 16 25 11 54 21 64
23 10 2 20 5 23 8 3 3 21 13 40 22 64 31 16 17 -83 -24z"/>
<path d="M590 1200 c19 -11 42 -19 50 -19 8 0 -5 8 -29 19 -55 25 -67 25 -21
0z"/>
<path d="M1835 1202 c4 -13 11 -45 16 -70 l8 -47 -4 53 c-2 28 -9 60 -15 70
-9 14 -10 13 -5 -6z"/>
<path d="M660 1170 c0 -6 7 -10 15 -10 8 0 15 2 15 4 0 2 -7 6 -15 10 -8 3
-15 1 -15 -4z"/>
<path d="M707 1149 c7 -7 15 -10 18 -7 3 3 -2 9 -12 12 -14 6 -15 5 -6 -5z"/>
<path d="M1265 1150 c-3 -6 1 -7 9 -4 18 7 21 14 7 14 -6 0 -13 -4 -16 -10z"/>
<path d="M286 1133 c-12 -42 -11 -263 2 -263 4 0 7 63 8 140 0 77 0 140 -2
140 -1 0 -5 -8 -8 -17z"/>
<path d="M318 1095 c-12 -62 -9 -182 7 -269 20 -115 64 -197 150 -281 134
-131 237 -165 505 -165 183 0 282 16 375 59 153 72 255 188 299 341 32 117 33
356 0 343 -7 -3 -11 -10 -7 -16 3 -5 2 -7 -4 -4 -5 3 -33 -2 -61 -13 -28 -11
-80 -27 -116 -36 l-66 -16 0 -225 c0 -156 3 -224 11 -221 7 2 10 72 9 216 l-1
212 40 6 c23 4 38 11 35 16 -3 5 0 8 7 7 25 -4 89 13 89 24 0 6 3 8 6 4 3 -3
17 -2 30 3 l24 10 0 -104 c0 -160 -38 -282 -116 -375 -22 -27 -32 -31 -75 -31
-27 0 -49 -4 -49 -10 0 -5 19 -10 41 -10 36 0 40 -2 29 -15 -11 -13 -78 -15
-492 -15 -423 0 -479 2 -474 15 3 10 -1 15 -14 15 -27 0 -32 48 -28 298 2 116
0 212 -4 212 -5 0 -8 -107 -8 -237 0 -164 -3 -234 -10 -227 -7 7 -10 92 -8
242 2 128 0 232 -4 232 -5 0 -8 -102 -8 -227 -1 -161 -4 -223 -11 -210 -6 11
-9 98 -7 232 2 118 0 215 -4 215 -5 0 -9 -93 -10 -207 l-2 -208 -6 215 -6 215
-4 -195 -4 -195 -6 200 -6 200 -4 -175 -4 -175 -6 180 -6 180 -4 -140 -4 -140
-6 145 c-4 105 -7 134 -12 105z m1089 -596 c-23 -13 -805 -13 -838 0 -16 6
130 10 416 10 308 0 435 -3 422 -10z m-230 -36 c-109 -2 -285 -2 -390 0 -106
1 -16 2 198 2 215 0 301 -1 192 -2z m8 -34 c-52 -10 -328 -10 -380 0 -26 6 43
9 190 9 147 0 216 -3 190 -9z m-428 -15 c-3 -3 -12 -4 -19 -1 -8 3 -5 6 6 6
11 1 17 -2 13 -5z m66 -11 c-7 -2 -21 -2 -30 0 -10 3 -4 5 12 5 17 0 24 -2 18
-5z m239 -10 c-40 -2 -103 -2 -140 0 -37 2 -4 3 73 3 77 0 107 -2 67 -3z"/>
<path d="M1695 1064 c10 -90 15 -94 15 -11 0 37 -5 69 -11 73 -8 4 -9 -14 -4
-62z"/>
<path d="M1861 1064 c0 -11 3 -14 6 -6 3 7 2 16 -1 19 -3 4 -6 -2 -5 -13z"/>
<path d="M490 820 c0 -132 3 -240 8 -240 4 0 7 108 7 240 0 132 -3 240 -7 240
-5 0 -8 -108 -8 -240z"/>
<path d="M521 823 c0 -126 4 -237 9 -248 5 -12 9 80 9 228 1 158 -3 247 -9
247 -6 0 -10 -82 -9 -227z"/>
<path d="M551 800 c1 -174 4 -240 12 -240 9 0 12 66 12 240 0 190 -3 240 -13
240 -10 0 -13 -50 -11 -240z"/>
<path d="M1863 1005 c0 -22 2 -30 4 -17 2 12 2 30 0 40 -3 9 -5 -1 -4 -23z"/>
<path d="M983 1023 c9 -2 23 -2 30 0 6 3 -1 5 -18 5 -16 0 -22 -2 -12 -5z"/>
<path d="M1368 853 c4 -290 8 -314 10 -60 1 130 -1 237 -5 237 -5 0 -7 -80 -5
-177z"/>
<path d="M1338 798 l-3 -223 -2 218 c-2 133 -7 217 -13 217 -11 0 -14 -367 -4
-419 4 -17 13 -31 20 -31 12 0 14 42 14 230 0 127 -2 230 -5 230 -3 0 -6 -100
-7 -222z"/>
<path d="M125 935 c8 -86 33 -188 50 -212 8 -11 6 4 -5 38 -11 30 -24 95 -30
144 -13 107 -25 130 -15 30z"/>
<path d="M1294 790 c0 -118 2 -167 3 -107 2 59 2 155 0 215 -1 59 -3 10 -3
-108z"/>
<path d="M1274 775 c0 -121 2 -169 3 -107 2 62 2 161 0 220 -1 59 -3 8 -3
-113z"/>
<path d="M1254 780 c0 -113 2 -159 3 -102 2 56 2 148 0 205 -1 56 -3 10 -3
-103z"/>
<path d="M1701 945 c-8 -115 -12 -145 -25 -183 -8 -23 -12 -42 -7 -42 7 0 21
51 36 127 4 19 14 35 26 38 25 8 25 29 0 22 -17 -4 -21 1 -24 37 l-4 41 -2
-40z"/>
<path d="M1225 958 c-3 -7 -6 -98 -8 -203 l-2 -190 -3 193 c-1 130 -5 191 -12
187 -7 -4 -10 -75 -10 -196 l2 -189 23 0 24 0 1 205 c0 188 -3 227 -15 193z"/>
<path d="M1852 870 c0 -14 2 -19 5 -12 2 6 2 18 0 25 -3 6 -5 1 -5 -13z"/>
<path d="M289 828 c4 -28 6 -29 9 -9 2 13 0 27 -5 32 -6 6 -7 -3 -4 -23z"/>
<path d="M1848 834 c-5 -4 -8 -16 -8 -28 0 -14 3 -17 11 -9 6 6 9 19 7 28 -1
9 -6 13 -10 9z"/>
<path d="M302 775 c0 -11 3 -29 8 -40 11 -25 11 1 0 35 -6 20 -8 21 -8 5z"/>
<path d="M1830 750 c-6 -11 -7 -20 -2 -20 6 0 12 9 15 20 3 11 3 20 1 20 -2 0
-8 -9 -14 -20z"/>
<path d="M340 660 c6 -11 13 -20 16 -20 2 0 0 9 -6 20 -6 11 -13 20 -16 20 -2
0 0 -9 6 -20z"/>
<path d="M1635 560 c-16 -16 -33 -30 -38 -30 -4 0 -23 -11 -41 -25 -50 -38
-173 -90 -272 -116 -72 -18 -126 -24 -284 -28 -183 -6 -189 -6 -100 -13 118
-9 327 7 428 33 112 28 213 81 285 150 34 32 59 58 56 59 -3 0 -18 -13 -34
-30z"/>
<path d="M1781 583 c0 -7 -22 -32 -47 -55 -25 -23 -41 -44 -35 -46 7 -2 23 8
36 22 23 25 28 26 145 26 100 0 120 2 120 15 0 12 -18 15 -104 15 -91 0 -105
2 -109 18 -3 9 -5 11 -6 5z"/>
<path d="M117 532 c-153 -4 -155 -22 -2 -22 102 0 117 -2 135 -20 l20 -20
-135 0 c-83 0 -135 -4 -135 -10 0 -6 61 -10 163 -10 108 0 157 -4 147 -10 -8
-5 -82 -10 -165 -11 -181 -3 -149 -7 73 -11 l162 -3 -27 20 c-16 11 -48 38
-73 60 l-45 40 -118 -3z"/>
<path d="M1539 523 c-13 -16 -12 -17 4 -4 16 13 21 21 13 21 -2 0 -10 -8 -17
-17z"/>
<path d="M1499 493 c-13 -16 -12 -17 4 -4 16 13 21 21 13 21 -2 0 -10 -8 -17
-17z"/>
<path d="M1645 474 c-18 -16 -22 -22 -9 -15 18 9 53 42 43 41 -2 -1 -17 -12
-34 -26z"/>
<path d="M1668 463 c-8 -10 25 -13 161 -13 221 0 229 18 10 22 -119 2 -163 0
-171 -9z"/>
<path d="M1574 424 c-18 -14 -18 -15 4 -4 12 6 22 13 22 15 0 8 -5 6 -26 -11z"/>
<path d="M1613 421 c-16 -12 -14 -13 16 -7 18 3 111 7 205 7 203 2 184 7 -41
11 -126 2 -167 0 -180 -11z"/>
<path d="M190 400 l-195 -6 192 -2 c263 -3 268 -21 6 -24 l-198 -2 235 -6 235
-6 -232 -2 c-133 -1 -233 -6 -233 -11 0 -5 117 -11 273 -13 182 -2 279 -7 288
-14 15 -12 150 -35 197 -33 15 0 -12 9 -60 19 -110 23 -177 45 -250 81 -32 16
-59 28 -60 27 -2 -1 -91 -5 -198 -8z"/>
<path d="M1574 398 c-9 -14 -172 -71 -269 -94 l-100 -24 70 5 c39 3 219 6 400
7 l330 3 -310 5 c-277 4 -304 6 -257 18 35 8 139 12 307 12 163 0 255 4 255
10 0 6 -91 11 -247 12 l-248 2 250 6 250 6 -209 2 c-272 3 -265 21 9 24 l200
3 -213 5 c-118 3 -216 2 -218 -2z"/>
<path d="M398 272 c-254 -1 -398 -6 -398 -12 0 -7 348 -10 1000 -10 660 0
1000 3 1000 10 0 6 -143 10 -407 10 -225 1 -496 2 -603 3 -107 1 -374 1 -592
-1z"/>
</g>
</svg>
