<?xml version="1.0" standalone="no"?>
<!DOCTYPE svg PUBLIC "-//W3C//DTD SVG 20010904//EN"
 "http://www.w3.org/TR/2001/REC-SVG-20010904/DTD/svg10.dtd">
<svg version="1.0" xmlns="http://www.w3.org/2000/svg"
 width="180.000000pt" height="166.000000pt" viewBox="0 0 180.000000 166.000000"
 preserveAspectRatio="xMidYMid meet">
<metadata>
Created by potrace 1.16, written by Peter Selinger 2001-2019
</metadata>
<g transform="translate(0.000000,166.000000) scale(0.100000,-0.100000)"
fill="#000000" stroke="none">
<path d="M0 1630 c0 -6 93 -10 258 -11 223 0 252 -2 222 -13 -168 -62 -279
-179 -333 -351 -29 -93 -31 -305 -4 -405 59 -217 198 -347 442 -411 102 -27
386 -37 520 -20 179 24 339 95 428 189 91 99 136 221 144 397 13 303 -110 510
-357 601 -30 11 -1 13 223 13 164 1 257 5 257 11 0 7 -307 10 -900 10 -593 0
-900 -3 -900 -10z m695 -20 c-55 -10 -118 -25 -140 -33 -84 -31 -98 -38 -93
-42 3 -3 35 6 72 20 96 36 220 55 375 56 98 1 125 4 96 10 -26 5 -5 6 59 3
237 -11 396 -89 500 -245 88 -133 118 -352 72 -524 -54 -204 -202 -337 -441
-397 -79 -20 -116 -22 -295 -23 -180 0 -216 3 -294 23 -178 45 -337 157 -391
275 -50 109 -68 208 -63 347 4 103 10 137 31 193 29 74 75 146 121 191 81 77
225 140 350 155 123 14 145 10 41 -9z"/>
<path d="M1141 1590 c100 -21 197 -64 255 -114 28 -24 45 -32 55 -26 17 11 2
24 -88 75 -61 35 -230 86 -282 84 -14 0 13 -9 60 -19z"/>
<path d="M680 1576 c-95 -20 -158 -44 -221 -82 -78 -47 -86 -58 -65 -89 l17
-26 45 44 c101 100 243 147 445 147 169 0 277 -22 351 -73 16 -10 33 -15 38
-12 6 4 10 3 9 -2 -3 -18 2 -27 9 -16 6 9 18 6 45 -13 21 -14 35 -30 31 -35
-4 -6 -18 1 -35 17 -16 15 -30 26 -32 23 -2 -2 14 -21 35 -41 l38 -38 17 26
c17 26 16 27 -18 55 -47 39 -131 79 -214 102 -92 26 -395 33 -495 13z m-225
-136 c-15 -16 -32 -27 -37 -24 -5 3 5 17 23 30 44 32 49 30 14 -6z"/>
<path d="M810 1549 c-159 -15 -252 -54 -350 -145 l-65 -62 -44 39 c-55 49 -77
51 -30 3 45 -48 122 -91 249 -143 167 -68 208 -100 274 -213 15 -26 25 -52 22
-57 -6 -10 23 -81 33 -81 3 0 15 19 26 42 11 23 47 71 79 106 62 66 125 104
226 137 56 18 105 45 82 45 -8 0 -10 5 -6 12 5 8 2 9 -12 4 -10 -4 -43 -17
-71 -28 -29 -11 -50 -24 -48 -28 3 -4 -2 -11 -11 -14 -8 -3 -12 -2 -9 4 11 18
-5 11 -63 -29 -58 -39 -131 -111 -151 -150 -7 -12 -16 -19 -22 -16 -5 4 -9 -6
-10 -22 l0 -28 -12 24 c-9 19 -9 25 1 29 7 2 20 18 28 34 23 45 99 123 152
157 26 16 94 48 152 72 142 58 248 122 273 165 15 26 -10 14 -55 -25 l-44 -39
-58 58 c-32 34 -83 72 -117 89 -103 51 -265 75 -419 60z m255 -34 c46 -8 108
-28 150 -49 76 -38 151 -106 142 -129 -3 -8 -41 -29 -84 -46 -201 -82 -301
-148 -351 -233 -19 -33 -28 -35 -37 -9 -3 10 -34 46 -70 80 -64 62 -118 92
-288 162 -43 17 -81 38 -84 46 -9 23 64 89 141 127 125 61 311 81 481 51z
m215 -304 c-8 -5 -26 -11 -40 -15 -21 -5 -20 -3 5 9 32 15 60 20 35 6z m-410
-182 c12 -16 20 -32 17 -35 -2 -3 -14 11 -25 31 -26 43 -21 46 8 4z"/>
<path d="M394 1494 c-18 -14 -18 -15 4 -4 12 6 22 13 22 15 0 8 -5 6 -26 -11z"/>
<path d="M330 1420 c19 -17 44 -35 54 -41 17 -10 16 -8 -3 20 -23 32 -50 51
-72 51 -7 0 2 -14 21 -30z"/>
<path d="M1447 1429 c-15 -12 -32 -30 -38 -41 -11 -21 -11 -21 17 0 53 39 64
49 64 56 0 11 -14 6 -43 -15z"/>
<path d="M274 1386 c-8 -22 4 -86 17 -86 7 0 8 17 4 47 -7 54 -12 63 -21 39z"/>
<path d="M1530 1346 c0 -30 4 -57 9 -61 23 -14 43 -155 39 -273 -12 -297 -149
-460 -438 -519 -92 -19 -367 -21 -460 -4 -165 30 -279 91 -355 189 -42 54 -90
90 -103 78 -6 -7 53 -99 80 -122 12 -11 18 -13 13 -5 -5 8 6 5 23 -8 18 -12
36 -30 41 -39 13 -25 125 -79 216 -104 72 -20 104 -22 305 -22 201 0 233 2
305 22 273 76 407 227 431 485 9 104 -25 299 -59 332 -7 7 -7 4 -2 -10 32 -82
47 -175 43 -278 -3 -59 -9 -112 -14 -117 -5 -5 -8 42 -6 123 3 127 -10 214
-43 291 -6 13 -5 17 3 12 7 -4 5 11 -4 39 -9 25 -18 45 -20 45 -2 0 -4 -24 -4
-54z m61 -507 c-5 -13 -10 -19 -10 -12 -1 15 10 45 15 40 3 -2 0 -15 -5 -28z"/>
<path d="M246 1340 c-5 -14 -10 -36 -11 -50 -2 -14 -10 -50 -19 -80 -17 -60
-22 -116 -7 -90 5 8 12 33 16 55 4 22 13 59 21 83 9 24 14 58 12 75 -3 32 -3
32 -12 7z"/>
<path d="M207 1262 c-8 -21 -18 -56 -22 -78 -3 -21 -8 -50 -11 -62 -3 -15 -1
-21 6 -17 5 3 10 19 10 35 0 15 9 57 20 91 22 71 20 89 -3 31z"/>
<path d="M262 1243 c-45 -151 -33 -374 24 -473 10 -15 13 -17 8 -5 -9 27 -32
159 -29 163 2 2 12 -1 23 -7 22 -11 33 -6 26 13 -3 8 -15 11 -30 8 l-24 -4 0
98 c1 55 7 126 14 159 l12 60 21 -46 c19 -43 26 -48 89 -72 38 -14 121 -40
184 -57 172 -47 266 -113 285 -201 4 -16 11 -27 16 -24 15 10 -46 117 -99 172
-55 57 -113 90 -240 135 -48 16 -126 50 -175 74 -48 24 -89 44 -90 44 -2 0 -9
-17 -15 -37z m242 -93 c118 -43 238 -96 171 -75 -11 4 -77 22 -148 41 -113 30
-187 57 -187 68 0 3 -3 12 -7 21 -5 14 -3 16 13 7 10 -5 82 -33 158 -62z"/>
<path d="M1436 1238 c-43 -22 -122 -56 -175 -75 -188 -67 -241 -108 -323 -245
-34 -58 -40 -74 -36 -113 4 -56 -9 -53 -32 8 -50 132 -141 202 -340 262 -74
23 -145 47 -157 53 -40 22 -43 16 -43 -91 0 -177 42 -287 146 -387 116 -111
218 -137 482 -120 226 14 287 36 383 136 93 99 129 202 129 371 0 57 -4 103
-9 103 -5 0 -30 -9 -56 -21 -26 -11 -85 -32 -133 -46 -192 -55 -303 -144 -343
-273 -6 -21 -7 -19 -8 15 -1 28 7 52 27 81 57 86 136 132 352 204 l165 55 25
50 24 49 13 -59 c7 -33 12 -99 13 -146 0 -82 -1 -86 -22 -85 -19 1 -24 -6 -29
-39 -3 -22 -9 -58 -13 -80 -4 -29 -4 -34 3 -19 5 12 12 42 16 67 5 33 12 47
27 50 16 5 19 2 15 -16 -16 -71 -18 -89 -9 -83 33 20 43 248 16 367 -8 38 -19
69 -22 68 -4 0 -42 -18 -86 -41z m24 -39 c-14 -26 -48 -40 -220 -95 -160 -51
-148 -34 18 27 65 23 137 52 162 65 25 13 46 23 48 24 1 0 -2 -9 -8 -21z
m-1072 -103 c15 -7 70 -26 122 -41 177 -50 273 -123 331 -250 26 -58 32 -65
58 -65 25 0 32 7 60 65 62 130 139 188 336 253 66 22 129 43 139 47 18 8 19 4
13 -91 -6 -111 -30 -190 -78 -266 -82 -128 -193 -177 -420 -185 -332 -13 -491
68 -570 293 -20 58 -40 254 -25 254 4 0 19 -6 34 -14z"/>
<path d="M1330 1250 c-9 -6 -10 -10 -3 -10 6 0 15 5 18 10 8 12 4 12 -15 0z"/>
<path d="M560 1204 l25 -15 -30 6 c-16 3 20 -19 81 -49 93 -46 121 -66 169
-118 44 -47 53 -55 39 -29 -28 50 -117 139 -148 147 -14 3 -26 10 -26 15 0 5
-7 5 -17 2 -11 -4 -14 -3 -9 5 4 7 2 10 -7 7 -7 -3 -24 -1 -38 5 -23 10 -23
10 6 6 27 -5 26 -3 -10 14 -48 22 -70 25 -35 4z"/>
<path d="M1491 1124 c0 -11 3 -14 6 -6 3 7 2 16 -1 19 -3 4 -6 -2 -5 -13z"/>
<path d="M296 1105 c-9 -26 -7 -32 5 -12 6 10 9 21 6 23 -2 3 -7 -2 -11 -11z"/>
<path d="M205 985 c4 -118 20 -185 49 -213 18 -16 19 -16 11 3 -30 79 -48 153
-55 230 l-9 90 4 -110z"/>
<path d="M1503 1035 c0 -33 2 -45 4 -27 2 18 2 45 0 60 -2 15 -4 0 -4 -33z"/>
<path d="M290 1020 c0 -29 3 -50 7 -47 7 8 6 88 -2 95 -3 3 -5 -19 -5 -48z"/>
<path d="M170 1008 c0 -29 28 -162 39 -188 l12 -25 -6 25 c-3 14 -12 63 -20
109 -14 78 -25 115 -25 79z"/>
<path d="M311 879 c-1 -23 28 -117 39 -124 6 -4 5 6 -1 22 -6 15 -17 48 -24
73 -7 25 -14 38 -14 29z"/>
<path d="M347 673 c32 -42 103 -92 122 -85 9 3 11 0 6 -8 -5 -9 -4 -11 3 -6 6
4 22 2 34 -5 13 -6 21 -10 18 -7 -3 2 -36 33 -73 68 -37 35 -65 56 -61 45 6
-15 4 -17 -10 -12 -10 4 -20 7 -22 7 -3 0 -3 4 1 9 6 10 -11 24 -32 27 -7 1
-1 -13 14 -33z m82 -37 c9 -11 9 -16 -1 -22 -7 -4 -10 -4 -6 1 4 4 3 14 -3 22
-6 7 -9 13 -6 13 2 0 10 -6 16 -14z"/>
<path d="M1389 637 c-106 -70 -208 -109 -334 -126 l-70 -10 81 4 c131 7 288
67 349 135 24 26 16 25 -26 -3z"/>
<path d="M340 606 c0 -2 8 -10 18 -17 15 -13 16 -12 3 4 -13 16 -21 21 -21 13z"/>
<path d="M908 493 c12 -2 30 -2 40 0 9 3 -1 5 -23 4 -22 0 -30 -2 -17 -4z"/>
<path d="M898 292 c-64 -2 -108 -7 -108 -13 0 -6 -7 -6 -19 1 -11 5 -84 10
-165 10 -143 0 -146 0 -146 -22 0 -21 0 -21 -21 -2 -19 17 -41 19 -230 22
-127 2 -209 -1 -209 -6 0 -19 33 -22 216 -22 174 0 185 -1 205 -21 16 -16 20
-29 15 -51 -3 -17 -6 -61 -6 -99 l0 -69 -30 0 c-16 0 -30 -4 -30 -10 0 -14 54
-12 68 2 9 9 12 9 12 0 0 -10 50 -12 210 -12 l211 1 59 40 c51 34 66 39 116
39 54 0 56 -1 50 -22 -3 -13 -6 -26 -6 -30 0 -5 -37 -8 -82 -8 -46 0 -90 -5
-98 -10 -10 -7 21 -10 103 -9 73 1 117 6 117 13 0 6 5 5 12 -2 16 -16 304 -17
313 -2 5 8 11 8 20 0 8 -7 67 -10 166 -8 l154 3 3 136 c2 123 1 137 -15 144
-24 10 -255 19 -288 11 -16 -4 -25 -13 -25 -26 0 -20 -1 -20 -31 2 -30 22 -38
23 -232 23 -111 0 -250 -1 -309 -3z m142 -22 c0 -5 -12 -13 -27 -16 -16 -4
-41 -14 -58 -24 -16 -10 -56 -20 -87 -22 l-57 -5 1 32 1 32 106 2 c58 1 107 4
110 7 7 7 11 5 11 -6z m-278 -31 c9 -11 15 -25 13 -32 -2 -7 -6 -50 -9 -97 -5
-70 -4 -82 7 -69 7 9 81 64 164 122 l151 106 162 -2 162 -2 24 -28 c21 -25 23
-35 18 -85 -12 -121 -28 -132 -195 -132 l-107 0 -7 66 c-4 36 -5 85 -2 110 2
24 3 44 0 44 -13 0 -61 -45 -56 -53 3 -6 1 -7 -5 -3 -13 8 -64 -22 -57 -34 5
-8 -60 -53 -81 -56 -6 -1 -36 -18 -65 -38 l-54 -36 -152 0 c-143 0 -153 1
-177 23 -37 32 -42 67 -15 101 l22 28 108 -4 c93 -3 109 -1 109 13 0 32 -23
39 -122 39 -59 0 -98 -4 -98 -10 0 -5 -4 -10 -10 -10 -5 0 -9 15 -8 33 l1 32
131 -3 c117 -3 133 -5 148 -23z m1005 14 c18 -16 20 -28 15 -126 l-4 -107
-120 0 c-66 0 -127 4 -137 10 -25 13 -45 64 -37 95 3 13 16 30 29 37 29 16
187 21 204 6 19 -16 25 -5 14 26 -10 26 -11 26 -115 26 -74 0 -106 -4 -109
-12 -3 -7 -6 4 -6 25 l-1 37 124 0 c104 0 127 -3 143 -17z m-912 -108 c-38
-31 -45 -31 -45 0 0 22 4 25 38 25 l37 -1 -30 -24z m200 15 c-3 -5 -12 -10
-18 -10 -7 0 -6 4 3 10 19 12 23 12 15 0z m52 -57 c-3 -2 -22 -3 -43 -1 l-38
3 40 26 39 26 3 -24 c2 -14 1 -27 -1 -30z m-616 -80 c13 -16 12 -17 -3 -4 -17
13 -22 21 -14 21 2 0 10 -8 17 -17z"/>
<path d="M1196 213 c-1 -1 1 -28 4 -60 4 -32 5 -63 3 -70 -3 -8 18 -10 79 -6
92 6 118 22 118 72 0 49 -13 56 -110 61 -51 3 -93 4 -94 3z m162 -72 c5 -31
-12 -41 -70 -41 l-48 0 0 35 0 36 58 -3 c51 -3 57 -5 60 -27z"/>
<path d="M530 115 c-7 -8 -10 -22 -6 -30 4 -12 23 -15 85 -15 44 0 86 -2 93
-5 10 -4 14 4 15 30 l1 35 -88 0 c-65 0 -91 -4 -100 -15z m123 -12 c-18 -2
-48 -2 -65 0 -18 2 -4 4 32 4 36 0 50 -2 33 -4z"/>
<path d="M490 100 c0 -11 9 -29 20 -40 17 -17 32 -20 113 -18 l92 2 -98 5
c-102 6 -123 16 -111 54 3 9 1 17 -5 17 -6 0 -11 -9 -11 -20z"/>
<path d="M862 84 c-70 -47 -61 -54 13 -10 67 41 73 46 54 46 -8 0 -38 -16 -67
-36z"/>
<path d="M1170 81 l0 -43 111 4 c102 3 112 5 130 27 10 13 19 30 19 39 0 11
-10 4 -29 -18 l-29 -35 -93 0 -94 0 0 27 c-1 15 -4 30 -8 34 -4 4 -7 -12 -7
-35z"/>
<path d="M730 100 c0 -5 5 -10 10 -10 6 0 10 5 10 10 0 6 -4 10 -10 10 -5 0
-10 -4 -10 -10z"/>
<path d="M727 60 c-3 -11 -1 -20 4 -20 5 0 9 9 9 20 0 11 -2 20 -4 20 -2 0 -6
-9 -9 -20z"/>
<path d="M1544 115 c-14 -36 3 -45 85 -45 44 0 85 -2 93 -5 9 -4 13 5 14 30
l1 35 -94 0 c-74 0 -95 -3 -99 -15z m129 -12 c-18 -2 -48 -2 -65 0 -18 2 -4 4
32 4 36 0 50 -2 33 -4z"/>
<path d="M1506 112 c-2 -4 -1 -14 5 -22 7 -12 9 -10 9 8 0 23 -5 28 -14 14z"/>
<path d="M1750 99 c0 -5 5 -7 10 -4 6 3 10 8 10 11 0 2 -4 4 -10 4 -5 0 -10
-5 -10 -11z"/>
<path d="M1747 66 c-4 -10 -5 -21 -2 -24 9 -9 17 6 13 25 -3 17 -4 17 -11 -1z"/>
<path d="M1529 58 c11 -15 28 -18 110 -16 l96 2 -94 3 c-54 2 -102 9 -110 16
-14 11 -14 10 -2 -5z"/>
<path d="M0 142 c0 -60 3 -117 6 -126 7 -19 55 -21 72 -4 9 9 12 9 12 0 0 -7
5 -12 10 -12 6 0 10 35 10 85 0 84 0 85 25 85 25 0 25 -1 25 -85 0 -47 3 -85
8 -85 21 0 29 40 23 113 -4 46 -3 81 3 87 7 7 -15 10 -62 10 l-72 0 5 -27 c4
-16 8 -39 11 -52 3 -13 2 -43 -2 -67 -6 -39 -9 -44 -33 -44 l-26 0 -3 113 c-2
61 -6 114 -8 116 -2 2 -4 -46 -4 -107z"/>
<path d="M257 171 c3 -22 2 -65 -1 -95 -7 -54 -9 -56 -37 -56 -16 0 -29 -4
-29 -10 0 -14 54 -12 68 2 9 9 12 9 12 0 0 -7 5 -12 10 -12 6 0 10 35 10 86 0
83 1 85 23 82 20 -3 22 -9 25 -85 3 -80 12 -102 27 -65 12 27 14 166 3 180 -6
7 -33 12 -63 12 l-53 0 5 -39z"/>
<path d="M36 112 c-2 -4 -1 -23 3 -42 l8 -35 4 38 c5 36 -3 57 -15 39z"/>
<path d="M218 113 c-2 -5 -1 -24 2 -43 l6 -35 5 38 c5 34 -4 59 -13 40z"/>
<path d="M396 112 c-2 -4 -1 -23 4 -42 l8 -35 1 43 c1 41 -3 50 -13 34z"/>
<path d="M1003 43 c15 -2 37 -2 50 0 12 2 0 4 -28 4 -27 0 -38 -2 -22 -4z"/>
</g>
</svg>
