<?xml version="1.0" standalone="no"?>
<!DOCTYPE svg PUBLIC "-//W3C//DTD SVG 20010904//EN"
 "http://www.w3.org/TR/2001/REC-SVG-20010904/DTD/svg10.dtd">
<svg version="1.0" xmlns="http://www.w3.org/2000/svg"
 width="100.000000pt" height="100.000000pt" viewBox="0 0 100.000000 100.000000"
 preserveAspectRatio="xMidYMid meet">
<metadata>
Created by potrace 1.16, written by Peter Selinger 2001-2019
</metadata>
<g transform="translate(0.000000,100.000000) scale(0.100000,-0.100000)"
fill="#000000" stroke="none">
<path d="M170 990 c0 -5 5 -10 10 -10 6 0 10 5 10 10 0 6 -4 10 -10 10 -5 0
-10 -4 -10 -10z"/>
<path d="M850 990 c0 -5 5 -10 11 -10 5 0 7 5 4 10 -3 6 -8 10 -11 10 -2 0 -4
-4 -4 -10z"/>
<path d="M905 990 c-3 -5 -1 -10 4 -10 6 0 11 5 11 10 0 6 -2 10 -4 10 -3 0
-8 -4 -11 -10z"/>
<path d="M453 953 c20 -2 54 -2 75 0 20 2 3 4 -38 4 -41 0 -58 -2 -37 -4z"/>
<path d="M330 930 c0 -5 -10 -10 -22 -11 -22 -1 -22 -1 2 -9 21 -7 18 -8 -20
-9 -33 -1 -41 -4 -30 -11 12 -8 11 -10 -7 -10 -13 0 -23 -5 -23 -11 0 -5 5 -7
10 -4 15 9 12 -4 -4 -21 -16 -16 -61 -20 -51 -4 3 6 1 10 -4 10 -6 0 -11 -13
-11 -30 0 -28 2 -30 40 -30 33 0 40 3 40 20 0 13 7 20 20 20 11 0 20 5 20 10
0 6 9 10 20 10 11 0 20 7 20 15 0 11 12 15 48 15 34 0 43 3 32 10 -10 7 19 10
90 10 71 0 100 -3 90 -10 -11 -7 -2 -10 33 -10 35 0 47 -4 47 -15 0 -9 9 -15
23 -15 18 0 19 -2 7 -10 -11 -7 -7 -10 18 -10 22 0 32 -5 32 -16 0 -21 25 -44
47 -43 16 0 16 1 -2 9 -18 8 -17 9 8 9 25 1 27 4 27 46 l0 45 -52 1 c-42 1
-48 3 -28 9 20 6 13 8 -30 10 -43 2 -50 4 -30 10 15 5 -49 9 -160 11 -119 1
-167 5 -135 9 l50 7 -57 1 c-33 1 -58 -2 -58 -8z m-19 -58 c-7 -2 -18 1 -23 6
-8 8 -4 9 13 5 13 -4 18 -8 10 -11z m396 2 c-3 -3 -12 -4 -19 -1 -8 3 -5 6 6
6 11 1 17 -2 13 -5z m111 -19 c3 -3 -12 -5 -34 -5 -27 0 -35 3 -25 9 14 9 49
7 59 -4z m-15 -22 c-7 -2 -19 -2 -25 0 -7 3 -2 5 12 5 14 0 19 -2 13 -5z"/>
<path d="M558 933 c12 -2 32 -2 45 0 12 2 2 4 -23 4 -25 0 -35 -2 -22 -4z"/>
<path d="M648 933 c7 -3 16 -2 19 1 4 3 -2 6 -13 5 -11 0 -14 -3 -6 -6z"/>
<path d="M980 909 c0 -5 5 -7 10 -4 6 3 10 8 10 11 0 2 -4 4 -10 4 -5 0 -10
-5 -10 -11z"/>
<path d="M170 870 c0 -5 5 -10 10 -10 6 0 10 5 10 10 0 6 -4 10 -10 10 -5 0
-10 -4 -10 -10z"/>
<path d="M865 870 c3 -5 8 -10 11 -10 2 0 4 5 4 10 0 6 -5 10 -11 10 -5 0 -7
-4 -4 -10z"/>
<path d="M980 860 c0 -5 5 -10 11 -10 5 0 7 5 4 10 -3 6 -8 10 -11 10 -2 0 -4
-4 -4 -10z"/>
<path d="M120 675 c0 -85 4 -155 9 -155 5 0 8 68 8 155 -1 85 -5 155 -9 155
-5 0 -8 -70 -8 -155z"/>
<path d="M151 668 c-1 -152 1 -168 16 -168 14 0 15 -2 4 -12 -11 -10 -14 -10
-18 0 -3 6 -16 12 -29 12 -21 0 -24 5 -25 43 -1 23 -1 52 -1 65 1 12 -3 22 -8
22 -6 0 -10 -29 -10 -65 0 -37 4 -65 10 -65 6 0 10 -15 11 -32 1 -31 1 -32 9
-8 7 21 8 18 9 -20 2 -44 2 -45 16 -20 8 14 14 19 15 13 0 -28 20 -11 20 17 0
17 5 30 10 30 6 0 10 38 10 95 l0 95 43 -1 c36 -1 38 -2 17 -9 -20 -6 -14 -8
28 -9 28 -1 52 -5 52 -11 0 -5 16 -10 35 -10 19 0 35 -4 35 -8 0 -5 -16 -8
-35 -7 -19 0 -35 -3 -35 -7 0 -4 18 -8 40 -8 54 0 89 -34 91 -87 l2 -38 7 35
c4 19 8 28 9 20 2 -24 21 9 21 38 0 12 5 22 10 22 6 0 10 -7 10 -15 0 -23 53
-19 70 5 10 13 26 20 50 20 24 0 31 3 21 9 -8 5 -20 7 -28 4 -7 -3 -13 0 -13
6 0 6 11 11 25 11 14 0 25 5 25 10 0 6 24 10 53 11 41 1 47 3 27 9 -21 7 -19
8 18 9 l42 1 0 -85 c0 -50 4 -85 10 -85 6 0 10 14 10 30 0 17 5 30 10 30 6 0
10 -24 10 -52 0 -38 -3 -49 -10 -38 -7 12 -10 8 -10 -15 0 -16 5 -37 10 -45 8
-12 10 -11 10 8 0 12 5 22 11 22 5 0 7 -4 4 -10 -3 -6 -1 -10 4 -10 6 0 11 9
11 20 0 11 5 20 10 20 6 0 10 9 10 20 0 11 5 20 10 20 6 0 10 45 9 118 0 64
-3 111 -6 105 -9 -25 -33 -14 -32 15 l1 27 8 -25 c7 -22 8 -21 9 13 1 20 -3
37 -9 37 -5 0 -10 9 -10 20 0 11 -7 20 -15 20 -9 0 -15 -9 -15 -25 0 -19 6
-25 23 -26 15 -1 10 -4 -13 -9 -19 -4 -26 -8 -14 -9 16 -1 21 -9 22 -43 2 -26
9 -48 19 -55 10 -8 12 -13 5 -13 -8 0 -12 -24 -12 -75 0 -41 -4 -75 -9 -75
-11 0 -21 85 -21 178 0 41 -4 72 -10 72 -5 0 -10 -4 -10 -10 0 -5 -19 -10 -42
-11 -37 -1 -39 -2 -18 -9 23 -7 23 -8 -10 -10 -33 -2 -33 -3 -10 -10 21 -7 19
-8 -17 -9 -24 -1 -43 -5 -43 -11 0 -5 -16 -10 -35 -10 -19 0 -35 -4 -35 -10 0
-5 -18 -10 -40 -10 -34 0 -40 -3 -40 -21 0 -11 5 -17 10 -14 6 3 10 1 10 -4 0
-6 -21 -11 -50 -11 -29 0 -50 5 -50 11 0 5 4 8 8 5 4 -2 14 -1 22 5 12 7 10 9
-7 9 -16 0 -23 6 -23 20 0 18 -7 20 -87 20 -61 0 -83 3 -73 10 11 7 6 10 -20
10 -26 0 -31 3 -20 10 11 7 6 10 -20 10 -26 0 -31 3 -20 10 11 7 7 10 -17 10
-29 0 -33 3 -34 28 -1 15 -5 38 -9 52 -5 15 -8 -43 -9 -142z m42 14 c-6 -4
-13 -30 -16 -57 l-3 -50 -2 58 c-2 48 1 57 16 57 11 0 13 -3 5 -8z m637 -39
c0 -25 -2 -44 -4 -42 -8 10 -13 89 -5 89 5 0 9 -21 9 -47z m-403 11 c-3 -3
-12 -4 -19 -1 -8 3 -5 6 6 6 11 1 17 -2 13 -5z"/>
<path d="M198 773 c6 -2 18 -2 25 0 6 3 1 5 -13 5 -14 0 -19 -2 -12 -5z"/>
<path d="M270 750 c0 -13 7 -20 20 -20 13 0 20 7 20 20 0 13 -7 20 -20 20 -13
0 -20 -7 -20 -20z"/>
<path d="M698 763 c6 -2 18 -2 25 0 6 3 1 5 -13 5 -14 0 -19 -2 -12 -5z"/>
<path d="M80 712 c0 -23 4 -42 9 -42 6 0 7 17 4 38 -8 51 -13 53 -13 4z"/>
<path d="M670 725 c0 -14 5 -25 11 -25 5 0 7 5 4 10 -3 6 2 13 12 16 54 17 58
23 16 23 -39 1 -43 -1 -43 -24z"/>
<path d="M338 723 c6 -2 18 -2 25 0 6 3 1 5 -13 5 -14 0 -19 -2 -12 -5z"/>
<path d="M350 703 c31 -3 40 -7 30 -14 -11 -6 -8 -9 13 -9 17 0 27 5 27 15 0
12 -12 15 -57 13 -54 -1 -55 -2 -13 -5z"/>
<path d="M598 703 c12 -2 32 -2 45 0 12 2 2 4 -23 4 -25 0 -35 -2 -22 -4z"/>
<path d="M60 658 c0 -23 3 -29 9 -19 8 12 4 51 -5 51 -2 0 -4 -15 -4 -32z"/>
<path d="M298 633 c7 -3 16 -2 19 1 4 3 -2 6 -13 5 -11 0 -14 -3 -6 -6z"/>
<path d="M650 540 c0 -15 -7 -20 -25 -20 -14 0 -25 -4 -25 -10 0 -15 39 -12
56 4 16 17 19 46 4 46 -5 0 -10 -9 -10 -20z"/>
<path d="M531 523 c1 -22 2 -23 6 -8 3 11 10 23 17 27 7 5 5 8 -6 8 -13 0 -18
-7 -17 -27z"/>
<path d="M500 519 c0 -11 -4 -17 -10 -14 -15 9 -12 -15 4 -31 22 -21 26 -17
26 26 0 22 -4 40 -10 40 -5 0 -10 -9 -10 -21z"/>
<path d="M201 484 c0 -11 3 -14 6 -6 3 7 2 16 -1 19 -3 4 -6 -2 -5 -13z"/>
<path d="M705 470 c3 -5 10 -10 16 -10 5 0 9 5 9 10 0 6 -7 10 -16 10 -8 0
-12 -4 -9 -10z"/>
<path d="M206 445 c26 -20 51 -20 30 0 -8 8 -23 15 -32 15 -16 0 -16 -1 2 -15z"/>
<path d="M670 450 c0 -5 5 -10 10 -10 6 0 10 5 10 10 0 6 -4 10 -10 10 -5 0
-10 -4 -10 -10z"/>
<path d="M770 451 c0 -5 7 -11 14 -14 10 -4 13 -1 9 9 -6 15 -23 19 -23 5z"/>
<path d="M188 433 c7 -3 16 -2 19 1 4 3 -2 6 -13 5 -11 0 -14 -3 -6 -6z"/>
<path d="M980 410 c0 -16 -4 -30 -10 -30 -5 0 -10 -11 -10 -25 0 -14 5 -25 10
-25 6 0 10 11 10 25 0 14 4 25 8 25 4 0 9 14 10 30 1 17 -2 30 -8 30 -5 0 -10
-13 -10 -30z"/>
<path d="M170 400 c0 -13 7 -20 20 -20 11 0 20 -5 20 -11 0 -5 -4 -7 -10 -4
-5 3 -10 1 -10 -4 0 -6 9 -11 20 -11 11 0 20 -4 20 -10 0 -5 14 -10 30 -10 17
0 30 5 30 10 0 6 -9 10 -20 10 -15 0 -20 7 -20 25 0 18 5 25 20 25 11 0 20 5
20 10 0 6 -9 10 -20 10 -11 0 -20 -4 -20 -10 0 -5 -9 -10 -20 -10 -11 0 -20 5
-20 10 0 6 -9 10 -20 10 -13 0 -20 -7 -20 -20z"/>
<path d="M702 405 c-18 -21 7 -21 34 0 19 14 19 14 -1 14 -11 0 -26 -6 -33
-14z"/>
<path d="M790 410 c0 -5 -10 -10 -22 -10 -19 0 -20 -2 -8 -10 11 -7 0 -10 -37
-10 -59 0 -72 -18 -28 -38 32 -15 75 -16 75 -2 0 6 9 10 20 10 11 0 20 5 20
11 0 5 -4 7 -10 4 -5 -3 -10 -1 -10 4 0 6 9 11 20 11 13 0 20 7 20 20 0 13 -7
20 -20 20 -11 0 -20 -4 -20 -10z m-40 -50 c0 -5 -14 -10 -31 -10 -17 0 -28 4
-24 10 3 6 17 10 31 10 13 0 24 -4 24 -10z"/>
<path d="M920 390 c0 -5 5 -10 10 -10 6 0 10 5 10 10 0 6 -4 10 -10 10 -5 0
-10 -4 -10 -10z"/>
<path d="M298 364 c14 -10 32 -14 48 -10 41 11 27 26 -23 26 -46 0 -47 0 -25
-16z"/>
<path d="M613 373 c9 -2 23 -2 30 0 6 3 -1 5 -18 5 -16 0 -22 -2 -12 -5z"/>
<path d="M375 340 c4 -6 -11 -10 -37 -10 -24 0 -50 -5 -58 -10 -11 -7 -7 -10
18 -10 17 0 32 -4 32 -10 0 -6 63 -10 170 -10 107 0 170 4 170 10 0 6 15 10
33 10 24 0 28 3 17 10 -8 5 -30 10 -48 10 -20 0 -31 4 -27 10 4 6 -43 10 -135
10 -92 0 -139 -4 -135 -10z m215 -20 c10 -7 -20 -10 -93 -10 -70 0 -106 4
-102 10 8 13 175 13 195 0z m63 -17 c-7 -2 -19 -2 -25 0 -7 3 -2 5 12 5 14 0
19 -2 13 -5z"/>
<path d="M0 320 c0 -5 5 -10 10 -10 6 0 10 5 10 10 0 6 -4 10 -10 10 -5 0 -10
-4 -10 -10z"/>
<path d="M830 310 c0 -11 5 -20 10 -20 6 0 10 9 10 20 0 11 -4 20 -10 20 -5 0
-10 -9 -10 -20z"/>
<path d="M170 300 c0 -5 5 -10 10 -10 6 0 10 5 10 10 0 6 -4 10 -10 10 -5 0
-10 -4 -10 -10z"/>
<path d="M0 200 c0 -6 49 -10 126 -10 81 0 123 -4 119 -10 -4 -6 15 -10 49
-10 31 0 56 -4 56 -10 0 -5 20 -10 45 -10 25 0 45 5 45 10 0 15 29 12 46 -4
17 -18 19 -56 2 -56 -9 0 -8 -4 2 -10 10 -7 -16 -10 -82 -10 -91 0 -98 1 -98
20 0 17 -7 20 -46 20 -25 0 -43 4 -40 9 3 4 16 7 28 6 13 -1 31 -3 40 -4 9 0
23 -7 30 -15 15 -14 118 -27 118 -14 0 3 8 9 18 11 9 3 -16 5 -55 6 -58 1 -73
4 -73 16 0 11 -12 15 -50 15 -27 0 -50 5 -50 10 0 6 -42 10 -105 10 l-105 0 0
-25 c0 -14 -6 -25 -12 -25 -9 0 -8 -4 2 -10 10 -6 11 -10 3 -10 -7 0 -13 -9
-13 -20 0 -16 7 -20 30 -20 25 0 30 4 29 23 0 21 -1 21 -9 2 -7 -15 -9 -10 -9
23 -1 40 0 42 29 42 30 0 30 -1 30 -55 0 -52 1 -55 25 -55 24 0 25 3 25 55 0
54 0 55 30 55 29 0 30 -2 29 -42 0 -33 -2 -38 -9 -23 -8 19 -9 19 -9 -2 -1
-22 3 -23 82 -24 62 -1 74 -3 47 -9 -26 -5 -14 -7 45 -7 63 0 71 1 40 7 -23 4
57 8 185 9 124 2 219 5 213 8 -10 3 -10 8 1 19 20 19 26 18 26 -6 0 -18 7 -20
83 -20 l83 0 2 30 2 30 -100 0 c-66 0 -99 4 -95 10 4 6 11 8 16 5 5 -4 9 -1 9
4 0 6 -9 11 -20 11 -15 0 -20 -7 -21 -27 l-1 -28 -8 25 c-8 24 -8 24 -9 3 -1
-20 -6 -23 -41 -23 -39 0 -40 1 -40 35 0 28 4 35 20 35 11 0 20 5 20 10 0 6 8
10 18 10 9 0 24 5 32 10 10 6 -122 10 -382 10 -259 0 -398 -3 -398 -10z m327
-6 c-3 -3 -12 -4 -19 -1 -8 3 -5 6 6 6 11 1 17 -2 13 -5z m103 -16 c0 -4 -7
-8 -15 -8 -8 0 -15 4 -15 8 0 5 7 9 15 9 8 0 15 -4 15 -9z m70 2 c0 -5 14 -10
30 -10 17 0 30 5 30 10 0 6 25 10 55 10 55 0 55 0 55 -31 0 -17 -6 -37 -14
-45 -16 -16 -30 -19 -21 -5 3 5 1 12 -5 16 -5 3 -10 -1 -10 -9 0 -12 -10 -16
-39 -16 -22 0 -42 5 -44 10 -3 6 -4 5 -3 -2 1 -7 18 -16 37 -19 34 -6 34 -6
-8 -8 -40 -1 -43 1 -43 24 0 26 24 35 33 13 3 -7 6 -3 6 10 1 19 6 22 46 22
34 0 45 4 45 16 0 9 -5 12 -12 8 -7 -5 -27 -7 -45 -5 -19 1 -33 -2 -33 -8 0
-6 -13 -11 -30 -11 -16 0 -30 5 -30 10 0 6 -10 15 -22 20 l-23 9 23 0 c12 1
22 -3 22 -9z m-362 -55 c-1 -14 -6 -25 -10 -25 -4 0 -8 11 -8 25 0 14 4 25 10
25 5 0 9 -11 8 -25z m125 -22 c-7 -2 -19 -2 -25 0 -7 3 -2 5 12 5 14 0 19 -2
13 -5z m34 -15 c-3 -8 -6 -5 -6 6 -1 11 2 17 5 13 3 -3 4 -12 1 -19z m446 -5
c-7 -2 -19 -2 -25 0 -7 3 -2 5 12 5 14 0 19 -2 13 -5z m205 -10 c-21 -2 -55
-2 -75 0 -21 2 -4 4 37 4 41 0 58 -2 38 -4z m-811 -19 c-3 -3 -12 -4 -19 -1
-8 3 -5 6 6 6 11 1 17 -2 13 -5z"/>
<path d="M830 190 c0 -18 7 -20 75 -20 43 0 75 -4 75 -10 0 -5 5 -10 10 -10 6
0 10 9 10 20 0 18 -7 20 -77 22 l-78 2 80 6 80 6 -87 2 c-82 2 -88 1 -88 -18z"/>
<path d="M790 175 c12 -15 30 -12 30 6 0 5 -10 9 -21 9 -18 0 -19 -2 -9 -15z"/>
<path d="M730 160 c0 -5 14 -10 30 -10 17 0 30 5 30 10 0 6 -13 10 -30 10 -16
0 -30 -4 -30 -10z"/>
<path d="M7 43 c7 -2 19 -2 26 0 6 3 1 5 -13 5 -14 0 -19 -2 -13 -5z"/>
<path d="M518 43 c12 -2 32 -2 45 0 12 2 2 4 -23 4 -25 0 -35 -2 -22 -4z"/>
<path d="M648 43 c18 -2 45 -2 60 0 15 2 0 4 -33 4 -33 0 -45 -2 -27 -4z"/>
<path d="M848 43 c12 -2 30 -2 40 0 9 3 -1 5 -23 4 -22 0 -30 -2 -17 -4z"/>
<path d="M938 43 c12 -2 32 -2 45 0 12 2 2 4 -23 4 -25 0 -35 -2 -22 -4z"/>
</g>
</svg>
