<?xml version="1.0" standalone="no"?>
<!DOCTYPE svg PUBLIC "-//W3C//DTD SVG 20010904//EN"
 "http://www.w3.org/TR/2001/REC-SVG-20010904/DTD/svg10.dtd">
<svg version="1.0" xmlns="http://www.w3.org/2000/svg"
 width="100.000000pt" height="100.000000pt" viewBox="0 0 100.000000 100.000000"
 preserveAspectRatio="xMidYMid meet">
<metadata>
Created by potrace 1.16, written by Peter Selinger 2001-2019
</metadata>
<g transform="translate(0.000000,100.000000) scale(0.100000,-0.100000)"
fill="#000000" stroke="none">
<path d="M0 860 c0 -6 34 -10 81 -10 66 0 84 -3 95 -17 13 -17 13 -17 14 0 0
18 40 25 40 7 0 -5 -4 -10 -10 -10 -5 0 -10 -4 -10 -10 0 -5 9 -10 20 -10 13
0 20 7 20 20 0 18 7 20 60 20 53 0 60 -2 60 -20 0 -16 7 -20 30 -20 17 0 30 5
30 10 0 6 -9 10 -20 10 -11 0 -20 5 -20 10 0 6 33 10 80 10 73 0 80 -2 80 -20
0 -18 -7 -20 -55 -20 -53 0 -55 -1 -55 -27 1 -25 2 -26 14 -10 15 20 32 22 39
5 3 -8 6 -6 6 5 1 21 15 22 35 1 22 -22 20 -34 -6 -34 -23 -1 -23 -1 -3 -16
17 -13 18 -16 5 -24 -24 -15 -30 -12 -30 15 0 21 -5 25 -30 25 -27 0 -30 -3
-30 -30 l0 -30 60 0 60 0 0 80 c0 73 2 80 20 80 25 0 25 -9 3 -26 -16 -12 -15
-13 10 -14 20 0 27 5 27 20 0 18 7 20 64 20 55 0 64 -3 69 -20 3 -12 13 -20
24 -19 16 1 16 2 1 6 -10 2 -18 11 -18 19 0 11 23 14 120 14 73 0 120 4 120
10 0 7 -173 10 -500 10 -327 0 -500 -3 -500 -10z m480 -140 c0 -5 -4 -10 -10
-10 -5 0 -10 5 -10 10 0 6 5 10 10 10 6 0 10 -4 10 -10z"/>
<path d="M0 800 c0 -5 24 -10 54 -10 30 0 58 5 61 10 4 6 -17 10 -54 10 -34 0
-61 -4 -61 -10z"/>
<path d="M130 780 c0 -27 3 -30 30 -30 27 0 30 3 30 30 0 27 -3 30 -30 30 -27
0 -30 -3 -30 -30z m40 0 c0 -5 -4 -10 -10 -10 -5 0 -10 5 -10 10 0 6 5 10 10
10 6 0 10 -4 10 -10z"/>
<path d="M690 788 c0 -21 0 -21 15 -2 15 19 15 19 30 0 15 -19 15 -19 15 2 0
18 -6 22 -30 22 -24 0 -30 -4 -30 -22z"/>
<path d="M810 780 c0 -26 4 -30 28 -30 24 1 25 2 10 14 -21 15 -23 32 -5 39 6
3 2 6 -10 6 -19 1 -23 -4 -23 -29z"/>
<path d="M870 802 c0 -5 26 -7 58 -5 83 6 87 11 10 12 -38 1 -68 -3 -68 -7z"/>
<path d="M0 760 c0 -6 27 -10 61 -10 37 0 58 4 54 10 -3 6 -31 10 -61 10 -30
0 -54 -4 -54 -10z"/>
<path d="M870 693 l0 -63 67 0 c36 0 64 2 61 5 -4 5 -56 13 -89 14 -9 1 -19
10 -22 21 -4 15 0 20 16 21 17 1 18 2 5 6 -10 2 -18 13 -18 23 0 16 9 19 58
22 l57 3 -68 5 -67 5 0 -62z"/>
<path d="M250 730 c0 -22 15 -27 24 -7 5 10 7 10 12 0 9 -20 24 -15 24 7 0 16
-7 20 -30 20 -23 0 -30 -4 -30 -20z"/>
<path d="M338 743 c6 -2 12 -11 12 -19 0 -8 5 -14 10 -14 6 0 10 9 10 20 0 14
-6 20 -22 19 -13 0 -17 -3 -10 -6z"/>
<path d="M620 723 c1 -24 2 -26 13 -12 7 8 22 18 35 21 18 5 22 2 22 -18 0
-21 -5 -24 -35 -24 -32 0 -35 -2 -35 -30 0 -28 3 -30 35 -30 l35 0 0 -65 0
-65 60 0 60 0 0 65 0 65 -60 0 -60 0 0 30 c0 27 3 30 30 30 27 0 30 3 30 30
l0 30 -65 0 c-64 0 -65 0 -65 -27z m110 -3 c0 -5 -4 -10 -10 -10 -5 0 -10 5
-10 10 0 6 5 10 10 10 6 0 10 -4 10 -10z m-60 -60 c0 -5 -7 -10 -15 -10 -8 0
-15 5 -15 10 0 6 7 10 15 10 8 0 15 -4 15 -10z m120 -64 c0 -16 -24 -24 -57
-18 -41 7 -27 32 17 32 28 0 40 -4 40 -14z m0 -56 c0 -17 -7 -20 -39 -20 -30
0 -40 4 -44 20 -5 18 0 20 39 20 37 0 44 -3 44 -20z"/>
<path d="M110 725 c0 -12 -13 -15 -55 -15 -30 0 -55 -4 -55 -10 0 -6 28 -10
65 -10 63 0 65 1 65 25 0 14 -4 25 -10 25 -5 0 -10 -7 -10 -15z"/>
<path d="M250 660 l0 -30 60 0 60 0 0 30 0 30 -60 0 -60 0 0 -30z m60 0 c0 -5
-9 -10 -20 -10 -11 0 -20 5 -20 10 0 6 9 10 20 10 11 0 20 -4 20 -10z m40 0
c0 -5 -4 -10 -10 -10 -5 0 -10 5 -10 10 0 6 5 10 10 10 6 0 10 -4 10 -10z"/>
<path d="M770 684 c0 -3 6 -12 14 -20 20 -19 26 -18 26 6 0 13 -7 20 -20 20
-11 0 -20 -3 -20 -6z"/>
<path d="M736 671 c-4 -7 -5 -15 -2 -18 9 -9 19 4 14 18 -4 11 -6 11 -12 0z"/>
<path d="M440 653 c0 -21 4 -23 60 -23 56 0 60 2 60 23 -1 20 -2 20 -11 5 -7
-12 -22 -18 -49 -18 -27 0 -42 6 -49 18 -9 15 -10 15 -11 -5z"/>
<path d="M20 621 c24 -7 25 -11 25 -78 0 -39 3 -75 8 -79 4 -4 7 32 7 79 l0
87 -32 -1 c-30 -1 -31 -2 -8 -8z"/>
<path d="M190 605 c0 -14 5 -25 10 -25 6 0 10 7 10 15 0 8 5 15 10 15 6 0 10
5 10 10 0 6 -9 10 -20 10 -15 0 -20 -7 -20 -25z"/>
<path d="M940 541 c0 -51 4 -81 11 -81 6 0 8 9 4 20 -5 17 -2 20 22 21 23 2
24 2 6 6 -20 4 -23 11 -23 53 0 27 -4 52 -10 55 -6 4 -10 -23 -10 -74z"/>
<path d="M311 594 c0 -11 3 -14 6 -6 3 7 2 16 -1 19 -3 4 -6 -2 -5 -13z"/>
<path d="M354 535 c4 -74 4 -75 -20 -75 -13 0 -24 -4 -24 -10 0 -5 14 -10 30
-10 l30 0 0 85 c0 52 -4 85 -10 85 -7 0 -9 -27 -6 -75z"/>
<path d="M621 594 c0 -11 3 -14 6 -6 3 7 2 16 -1 19 -3 4 -6 -2 -5 -13z"/>
<path d="M115 570 c-3 -5 -1 -10 4 -10 6 0 11 5 11 10 0 6 -2 10 -4 10 -3 0
-8 -4 -11 -10z"/>
<path d="M190 530 l0 -30 60 0 60 0 0 30 0 30 -60 0 -60 0 0 -30z m100 0 c0
-5 -18 -10 -40 -10 -22 0 -40 5 -40 10 0 6 18 10 40 10 22 0 40 -4 40 -10z"/>
<path d="M404 551 c11 -4 23 -16 27 -27 6 -16 8 -14 8 9 1 23 -3 27 -26 26
-23 0 -25 -2 -9 -8z"/>
<path d="M620 530 c0 -27 3 -30 31 -30 17 0 28 4 24 10 -3 6 -13 10 -21 10 -8
0 -14 5 -14 10 0 6 7 10 15 10 8 0 15 5 15 10 0 6 -11 10 -25 10 -21 0 -25 -5
-25 -30z"/>
<path d="M138 493 c6 -2 18 -2 25 0 6 3 1 5 -13 5 -14 0 -19 -2 -12 -5z"/>
<path d="M420 470 c0 -16 5 -30 10 -30 6 0 10 14 10 30 0 17 -4 30 -10 30 -5
0 -10 -13 -10 -30z"/>
<path d="M839 491 c7 -5 17 -15 22 -22 6 -10 9 -8 9 9 0 16 -6 22 -22 22 -17
0 -19 -3 -9 -9z"/>
<path d="M796 481 c-4 -7 -5 -15 -2 -18 9 -9 19 4 14 18 -4 11 -6 11 -12 0z"/>
<path d="M190 460 c0 -16 -7 -20 -30 -20 -27 0 -30 -3 -30 -30 l0 -30 66 0
c41 0 63 4 59 10 -3 6 -26 9 -51 8 -44 -1 -63 6 -51 19 4 3 17 7 28 8 16 1 23
9 25 28 1 15 -2 27 -7 27 -5 0 -9 -9 -9 -20z"/>
<path d="M690 430 l0 -50 -65 0 -65 0 0 -35 0 -35 65 0 65 0 0 -30 0 -30 90 0
90 0 0 30 0 30 -90 0 -90 0 0 35 0 35 90 0 90 0 0 30 c0 26 -4 30 -27 30 -27
-1 -27 -1 -8 -16 17 -13 18 -16 5 -24 -24 -15 -30 -12 -30 15 0 24 -3 25 -56
25 -51 0 -55 2 -49 20 4 11 2 20 -4 20 -6 0 -11 -21 -11 -50z m96 -10 c8 0 14
-4 14 -10 0 -5 -20 -10 -45 -10 -35 0 -45 4 -45 16 0 13 7 15 31 10 17 -3 38
-6 45 -6z m-116 -75 c0 -11 -12 -15 -45 -15 -33 0 -45 4 -45 15 0 11 12 15 45
15 33 0 45 -4 45 -15z m179 -61 c11 -10 -13 -16 -73 -20 -60 -4 -66 -2 -66 16
0 18 5 19 68 13 37 -3 69 -7 71 -9z"/>
<path d="M0 430 c0 -5 9 -10 20 -10 11 0 20 -4 20 -10 0 -5 -9 -10 -20 -10
-11 0 -20 -4 -20 -10 0 -5 13 -10 30 -10 27 0 30 3 30 30 0 27 -3 30 -30 30
-17 0 -30 -4 -30 -10z"/>
<path d="M940 410 c0 -27 3 -30 30 -30 17 0 30 5 30 10 0 6 -9 10 -20 10 -11
0 -20 5 -20 10 0 6 9 10 20 10 11 0 20 5 20 10 0 6 -13 10 -30 10 -27 0 -30
-3 -30 -30z"/>
<path d="M301 414 c0 -11 3 -14 6 -6 3 7 2 16 -1 19 -3 4 -6 -2 -5 -13z"/>
<path d="M431 414 c0 -11 3 -14 6 -6 3 7 2 16 -1 19 -3 4 -6 -2 -5 -13z"/>
<path d="M310 345 l0 -35 65 0 65 0 0 35 0 35 -65 0 -65 0 0 -35z m110 0 c0
-11 -12 -15 -45 -15 -33 0 -45 4 -45 15 0 11 12 15 45 15 33 0 45 -4 45 -15z"/>
<path d="M250 351 c0 -12 5 -21 10 -21 6 0 10 6 10 14 0 8 -4 18 -10 21 -5 3
-10 -3 -10 -14z"/>
<path d="M861 344 c0 -11 3 -14 6 -6 3 7 2 16 -1 19 -3 4 -6 -2 -5 -13z"/>
<path d="M130 280 l0 -30 91 0 90 0 -3 28 c-3 27 -3 27 -90 30 l-88 3 0 -31z
m160 6 c0 -7 -9 -16 -20 -19 -15 -4 -20 0 -20 14 0 12 7 19 20 19 11 0 20 -6
20 -14z m-50 -6 c0 -5 -20 -10 -45 -10 -25 0 -45 5 -45 10 0 6 20 10 45 10 25
0 45 -4 45 -10z"/>
<path d="M18 243 c30 -6 30 -40 0 -46 -17 -3 -14 -5 10 -6 29 -1 32 2 32 29 0
27 -3 30 -32 29 -24 -1 -27 -3 -10 -6z"/>
<path d="M370 243 c26 -2 50 -11 58 -20 11 -15 12 -15 12 5 0 20 -4 22 -57 20
-54 -1 -55 -2 -13 -5z"/>
<path d="M560 194 c0 -37 4 -53 11 -49 6 4 8 22 4 46 l-7 39 51 0 c27 0 53 5
56 10 4 6 -17 10 -54 10 l-61 0 0 -56z"/>
<path d="M940 220 c0 -27 3 -30 33 -29 30 1 30 2 7 8 -17 5 -25 14 -24 29 0
12 -3 22 -8 22 -4 0 -8 -13 -8 -30z"/>
<path d="M863 195 c0 -27 2 -38 4 -22 2 15 2 37 0 50 -2 12 -4 0 -4 -28z"/>
<path d="M130 163 c1 -26 2 -27 14 -10 17 23 146 30 153 10 3 -7 -2 -13 -11
-13 -9 0 -16 -4 -16 -10 0 -5 5 -10 10 -10 6 0 10 -11 10 -25 0 -18 -5 -25
-20 -25 -15 0 -20 7 -20 25 0 24 -3 25 -60 25 l-60 0 0 -35 c0 -19 -4 -35 -10
-35 -5 0 -10 -13 -10 -30 0 -17 5 -30 10 -30 6 0 10 13 10 30 l0 30 90 0 90 0
0 35 c0 32 2 35 30 35 28 0 30 -3 30 -35 l0 -35 250 0 250 0 0 -30 c0 -17 5
-30 10 -30 6 0 10 13 10 30 0 17 -4 30 -10 30 -5 0 -10 16 -10 35 l0 35 -90 0
c-89 0 -90 0 -90 -25 0 -24 -3 -25 -55 -25 -42 0 -55 3 -55 15 0 11 12 15 44
15 25 0 48 5 51 10 4 6 -17 10 -54 10 -58 0 -61 -1 -61 -25 0 -24 -3 -25 -60
-25 -57 0 -60 1 -60 25 0 21 -5 25 -30 25 -16 0 -30 5 -30 10 0 6 -16 10 -35
10 -28 0 -35 4 -35 20 0 19 -7 20 -90 20 l-90 0 0 -27z m100 -68 c0 -11 -11
-15 -40 -15 -29 0 -40 4 -40 15 0 11 11 15 40 15 29 0 40 -4 40 -15z m190 0
c0 -8 -7 -15 -15 -15 -8 0 -15 7 -15 15 0 8 7 15 15 15 8 0 15 -7 15 -15z
m430 0 c0 -12 -14 -15 -70 -15 -56 0 -70 3 -70 15 0 12 14 15 70 15 56 0 70
-3 70 -15z"/>
<path d="M393 183 c15 -2 27 -11 27 -19 0 -8 5 -14 10 -14 6 0 10 9 10 20 0
17 -6 20 -37 19 -31 -2 -33 -3 -10 -6z"/>
</g>
</svg>
