<?xml version="1.0" standalone="no"?>
<!DOCTYPE svg PUBLIC "-//W3C//DTD SVG 20010904//EN"
 "http://www.w3.org/TR/2001/REC-SVG-20010904/DTD/svg10.dtd">
<svg version="1.0" xmlns="http://www.w3.org/2000/svg"
 width="100.000000pt" height="100.000000pt" viewBox="0 0 100.000000 100.000000"
 preserveAspectRatio="xMidYMid meet">
<metadata>
Created by potrace 1.16, written by Peter Selinger 2001-2019
</metadata>
<g transform="translate(0.000000,100.000000) scale(0.100000,-0.100000)"
fill="#000000" stroke="none">
<path d="M220 932 c0 -5 16 -9 36 -10 60 -2 52 -12 -9 -12 -50 0 -57 -2 -57
-20 0 -11 -7 -20 -15 -20 -10 0 -15 -10 -15 -30 0 -20 -5 -30 -15 -30 -11 0
-15 -12 -15 -45 0 -26 -5 -45 -11 -45 -6 0 -9 7 -5 15 3 8 1 15 -4 15 -5 0 -7
7 -4 15 4 8 1 15 -5 15 -7 0 -11 -28 -12 -77 0 -59 -3 -72 -10 -55 -5 13 -7
28 -3 33 3 5 0 9 -5 9 -7 0 -11 -35 -11 -97 0 -98 -6 -117 -15 -48 -10 82 -15
41 -15 -131 0 -119 4 -174 10 -164 5 8 10 66 10 128 0 84 3 111 12 110 9 -2
14 16 16 59 2 38 8 66 17 73 8 7 15 27 15 45 0 20 6 35 15 39 13 4 15 -10 15
-97 1 -120 11 -320 16 -326 2 -2 4 89 4 202 0 114 3 207 8 207 4 0 9 -28 10
-62 5 -103 12 -80 12 40 0 75 4 112 11 112 6 0 9 -7 5 -15 -3 -8 -1 -15 4 -15
6 0 10 20 10 45 0 33 4 45 15 45 8 0 15 7 15 15 0 10 10 15 30 15 20 0 30 -5
30 -15 0 -8 7 -15 15 -15 11 0 15 -12 15 -45 0 -25 4 -45 10 -45 5 0 7 7 4 15
-4 8 -1 15 5 15 7 0 11 -32 11 -95 0 -52 4 -95 8 -95 5 0 9 17 9 38 2 61 6 87
18 94 6 5 6 8 -2 8 -8 0 -13 13 -13 30 0 17 5 30 13 30 9 0 11 -62 9 -287 -2
-159 -2 -286 1 -283 2 3 7 79 10 169 4 90 9 166 12 169 3 3 5 -92 5 -211 l0
-217 60 0 60 0 0 217 c0 119 3 214 6 210 3 -3 8 -65 11 -139 3 -73 7 -135 9
-137 2 -2 4 96 4 219 0 211 4 261 15 175 9 -65 15 -52 15 28 0 61 3 77 15 77
9 0 12 -6 9 -15 -4 -8 -1 -15 5 -15 6 0 11 19 11 45 0 33 4 45 15 45 8 0 15 7
15 15 0 10 10 15 30 15 20 0 30 -5 30 -15 0 -8 7 -15 15 -15 11 0 15 -12 15
-45 0 -25 4 -45 10 -45 5 0 7 7 4 15 -4 8 -1 15 5 15 7 0 11 -37 11 -112 0
-120 5 -137 13 -45 11 127 17 58 17 -198 0 -282 7 -354 12 -125 5 242 15 241
16 -2 l2 -238 65 0 c47 0 65 4 65 13 0 10 -14 13 -55 9 l-55 -4 0 220 c0 183
-2 222 -15 232 -21 18 -22 170 -1 170 10 0 16 -14 18 -42 2 -28 7 -42 16 -40
9 1 12 -18 12 -70 0 -40 5 -80 10 -88 7 -10 10 26 9 110 0 88 -3 118 -10 102
-5 -13 -7 -28 -3 -33 3 -5 0 -9 -5 -9 -7 0 -11 29 -11 75 0 48 -4 75 -11 75
-6 0 -9 -7 -5 -15 3 -8 1 -15 -4 -15 -5 0 -7 -7 -4 -15 4 -8 1 -15 -5 -15 -6
0 -11 19 -11 45 0 33 -4 45 -15 45 -10 0 -15 10 -15 30 0 20 -5 30 -15 30 -8
0 -15 9 -15 20 0 18 -7 20 -57 20 -61 0 -69 10 -9 12 61 2 40 18 -24 18 -37 0
-60 -4 -60 -11 0 -6 7 -9 15 -5 8 3 15 1 15 -4 0 -6 -16 -10 -35 -10 -28 0
-35 -4 -35 -20 0 -11 -7 -20 -15 -20 -10 0 -15 -10 -15 -30 0 -16 -5 -30 -11
-30 -6 0 -9 7 -5 15 3 8 1 15 -4 15 -6 0 -10 -20 -10 -45 0 -26 -5 -45 -11
-45 -6 0 -9 7 -5 15 3 8 1 15 -4 15 -6 0 -10 -27 -10 -60 l0 -60 -30 0 -30 0
0 60 c0 33 -4 60 -10 60 -5 0 -7 -7 -4 -15 4 -8 1 -15 -5 -15 -6 0 -11 19 -11
45 0 25 -4 45 -10 45 -5 0 -7 -7 -4 -15 4 -8 1 -15 -5 -15 -6 0 -11 14 -11 30
0 23 -4 30 -20 30 -13 0 -20 7 -20 20 0 16 -7 20 -30 20 -16 0 -30 4 -30 10 0
5 7 7 15 4 8 -4 15 -1 15 5 0 7 -23 11 -60 11 -33 0 -60 -4 -60 -8z m4 -58 c3
-8 2 -12 -4 -9 -6 3 -10 10 -10 16 0 14 7 11 14 -7z m117 -7 c-10 -9 -11 -8
-5 6 3 10 9 15 12 12 3 -3 0 -11 -7 -18z m322 9 c4 -10 1 -13 -9 -9 -7 3 -14
9 -14 14 0 14 17 10 23 -5z m118 -9 c-10 -9 -11 -8 -5 6 3 10 9 15 12 12 3 -3
0 -11 -7 -18z m-591 -17 c0 -5 -5 -10 -11 -10 -5 0 -7 5 -4 10 3 6 8 10 11 10
2 0 4 -4 4 -10z m195 0 c3 -5 1 -10 -4 -10 -6 0 -11 5 -11 10 0 6 2 10 4 10 3
0 8 -4 11 -10z m440 0 c3 -5 1 -10 -4 -10 -6 0 -11 5 -11 10 0 6 2 10 4 10 3
0 8 -4 11 -10z m-185 -12 c0 -4 -4 -8 -9 -8 -6 0 -12 4 -15 8 -3 5 1 9 9 9 8
0 15 -4 15 -9z m-442 -43 c-3 -3 -9 2 -12 12 -6 14 -5 15 5 6 7 -7 10 -15 7
-18z m192 14 c0 -5 -4 -7 -10 -4 -5 3 -10 1 -10 -6 0 -7 -3 -10 -6 -6 -8 7 4
27 17 27 5 0 9 -5 9 -11z m423 -4 c-3 -9 -8 -14 -10 -11 -3 3 -2 9 2 15 9 16
15 13 8 -4z m-173 -5 c0 -5 -4 -10 -10 -10 -5 0 -10 5 -10 10 0 6 5 10 10 10
6 0 10 -4 10 -10z m-470 -63 c0 -23 -4 -36 -10 -32 -6 3 -9 26 -8 51 2 54 18
37 18 -19z m430 29 c0 -14 -4 -28 -10 -31 -6 -4 -10 7 -10 24 0 17 5 31 10 31
6 0 10 -11 10 -24z m250 -25 c0 -17 -4 -33 -10 -36 -6 -4 -10 8 -10 29 0 20 5
36 10 36 6 0 10 -13 10 -29z m-401 -13 c-1 -7 -1 -29 0 -49 l1 -36 50 0 50 1
0 49 c0 29 4 46 10 42 17 -10 12 -151 -5 -165 -12 -10 -15 -47 -15 -216 l0
-204 -40 0 -40 0 0 193 c0 154 -3 197 -15 213 -21 28 -20 184 2 184 2 0 3 -6
2 -12z"/>
<path d="M488 623 c6 -2 18 -2 25 0 6 3 1 5 -13 5 -14 0 -19 -2 -12 -5z"/>
<path d="M390 900 c0 -5 5 -10 10 -10 6 0 10 5 10 10 0 6 -4 10 -10 10 -5 0
-10 -4 -10 -10z"/>
<path d="M130 829 c0 -5 5 -7 10 -4 6 3 10 8 10 11 0 2 -4 4 -10 4 -5 0 -10
-5 -10 -11z"/>
<path d="M855 830 c3 -5 8 -10 11 -10 2 0 4 5 4 10 0 6 -5 10 -11 10 -5 0 -7
-4 -4 -10z"/>
<path d="M235 820 c-3 -5 -1 -10 4 -10 6 0 11 5 11 10 0 6 -2 10 -4 10 -3 0
-8 -4 -11 -10z"/>
<path d="M310 820 c0 -5 5 -10 11 -10 5 0 7 5 4 10 -3 6 -8 10 -11 10 -2 0 -4
-4 -4 -10z"/>
<path d="M675 820 c-3 -5 -1 -10 4 -10 6 0 11 5 11 10 0 6 -2 10 -4 10 -3 0
-8 -4 -11 -10z"/>
<path d="M750 820 c0 -5 5 -10 11 -10 5 0 7 5 4 10 -3 6 -8 10 -11 10 -2 0 -4
-4 -4 -10z"/>
<path d="M495 710 c3 -5 8 -10 11 -10 2 0 4 5 4 10 0 6 -5 10 -11 10 -5 0 -7
-4 -4 -10z"/>
<path d="M495 680 c4 -6 11 -8 16 -5 14 9 11 15 -7 15 -8 0 -12 -5 -9 -10z"/>
<path d="M611 604 c0 -11 3 -14 6 -6 3 7 2 16 -1 19 -3 4 -6 -2 -5 -13z"/>
<path d="M957 553 c-9 -70 -7 -398 2 -428 6 -20 10 50 10 218 1 136 -1 247 -3
247 -2 0 -6 -17 -9 -37z"/>
<path d="M116 534 c-3 -9 -6 -114 -6 -235 l0 -219 -55 0 c-30 0 -55 -4 -55
-10 0 -6 28 -10 65 -10 l65 0 0 245 c0 135 -2 245 -4 245 -2 0 -7 -7 -10 -16z"/>
</g>
</svg>
