<?xml version="1.0" standalone="no"?>
<!DOCTYPE svg PUBLIC "-//W3C//DTD SVG 20010904//EN"
 "http://www.w3.org/TR/2001/REC-SVG-20010904/DTD/svg10.dtd">
<svg version="1.0" xmlns="http://www.w3.org/2000/svg"
 width="100.000000pt" height="100.000000pt" viewBox="0 0 100.000000 100.000000"
 preserveAspectRatio="xMidYMid meet">
<metadata>
Created by potrace 1.16, written by Peter Selinger 2001-2019
</metadata>
<g transform="translate(0.000000,100.000000) scale(0.100000,-0.100000)"
fill="#000000" stroke="none">
<path d="M560 735 c0 -12 -17 -15 -95 -15 -78 0 -95 -3 -95 -15 0 -12 -20 -15
-120 -15 -100 0 -120 -2 -120 -15 0 -8 -9 -15 -20 -15 -16 0 -20 -7 -20 -35 0
-24 -5 -35 -15 -35 -10 0 -15 -10 -15 -27 1 -24 3 -26 13 -13 7 8 18 15 25 16
6 1 17 2 22 3 14 2 12 58 -2 64 -7 3 -3 6 9 6 16 1 21 -3 17 -14 -4 -8 -1 -15
5 -15 6 0 11 14 11 30 0 17 5 30 11 30 5 0 8 -4 4 -9 -3 -5 -1 -12 5 -16 5 -3
10 2 10 12 0 15 8 19 45 19 34 0 45 -4 45 -16 0 -9 3 -11 8 -5 8 12 82 14 82
2 0 -5 5 -5 10 -2 6 3 10 14 10 24 0 16 8 18 73 14 39 -2 90 -6 112 -9 22 -3
56 -7 75 -9 79 -9 102 -16 96 -31 -4 -10 3 -14 29 -14 l35 0 0 -50 c0 -49 -1
-50 -30 -50 -29 0 -30 2 -30 43 l0 42 -55 -2 c-30 0 -57 3 -61 8 -3 5 15 9 40
9 34 0 46 4 46 15 0 13 -22 15 -142 14 -115 -1 -137 -3 -110 -11 33 -11 47
-48 17 -48 -8 0 -15 7 -15 15 0 13 -22 15 -140 15 -87 0 -140 -4 -140 -10 0
-6 26 -10 59 -10 38 0 61 -4 64 -12 4 -10 8 -9 16 2 9 12 11 11 11 -7 0 -23
-14 -31 -24 -14 -9 13 -156 14 -156 0 0 -6 7 -9 15 -5 8 3 15 1 15 -4 0 -6 14
-10 30 -10 20 0 30 -5 30 -15 0 -8 7 -15 15 -15 8 0 15 7 15 15 0 10 10 15 30
15 28 0 30 -3 30 -37 0 -37 1 -38 35 -39 34 0 35 1 35 38 0 27 4 38 15 38 18
0 20 16 3 23 -7 3 26 6 75 6 80 1 87 3 87 21 0 11 7 20 15 20 8 0 15 -9 15
-20 0 -17 7 -20 50 -20 39 0 50 -3 50 -16 0 -13 -10 -15 -57 -11 -32 2 -46 2
-30 0 39 -6 35 -33 -5 -33 -35 0 -32 -12 4 -14 13 -1 31 8 40 19 17 20 17 20
18 -7 l0 -28 -95 0 c-78 0 -95 -3 -95 -15 0 -8 -7 -15 -15 -15 -9 0 -15 9 -15
24 0 13 -3 32 -6 41 -5 13 0 12 29 -5 l35 -21 4 25 c7 34 -6 53 -25 38 -8 -7
-25 -11 -38 -10 -22 3 -24 -1 -27 -44 l-3 -48 -65 0 c-40 0 -64 -4 -64 -11 0
-6 7 -9 15 -5 8 3 15 1 15 -4 0 -6 -33 -10 -75 -10 l-75 0 0 60 c0 47 -3 60
-15 60 -8 0 -15 -7 -15 -15 0 -10 -11 -15 -35 -15 -19 0 -35 -5 -35 -11 0 -6
9 -8 20 -4 11 4 20 2 20 -4 0 -6 -16 -11 -35 -11 -35 0 -35 0 -35 -45 0 -44 0
-45 33 -44 21 1 25 3 12 6 -36 9 -41 23 -7 23 22 0 32 -5 32 -15 0 -13 27 -15
184 -15 162 0 185 -2 190 -16 7 -18 -13 -17 -239 2 -33 3 -71 1 -85 -5 -19 -7
0 -10 83 -10 64 -1 107 -5 107 -11 0 -16 -207 -13 -217 3 -10 17 -63 31 -63
17 0 -5 9 -10 20 -10 13 0 20 -7 20 -20 0 -19 7 -20 200 -20 193 0 200 1 200
20 0 19 7 20 95 20 75 0 95 3 95 14 0 11 -25 15 -117 19 -65 3 -129 7 -143 10
-14 2 -45 5 -69 6 -24 0 -42 4 -38 7 3 3 65 5 136 5 90 -1 131 2 131 9 0 6 -3
9 -8 7 -4 -3 -30 1 -57 7 -44 12 -47 14 -25 21 15 5 25 4 28 -4 2 -7 48 -11
143 -11 120 0 139 -2 139 -16 0 -13 -12 -15 -80 -12 -44 2 -80 0 -80 -4 0 -5
9 -8 20 -8 11 0 20 -4 20 -10 0 -6 32 -10 75 -10 l75 0 0 45 c0 31 4 45 14 45
9 0 12 -10 10 -30 -2 -16 1 -30 6 -30 6 0 10 25 10 55 0 30 -4 55 -10 55 -5 0
-10 -9 -10 -20 0 -14 -6 -20 -17 -18 -10 2 -18 -3 -18 -12 0 -9 -9 -15 -22
-14 -65 2 -83 5 -83 14 0 6 18 7 45 3 38 -5 45 -3 45 11 0 9 7 16 15 16 8 0
15 7 15 15 0 8 9 15 20 15 16 0 20 7 20 35 0 28 -4 35 -20 35 -11 0 -20 7 -20
15 0 11 -12 15 -52 15 -71 0 -56 9 25 15 62 5 67 4 67 -14 0 -11 4 -22 8 -25
5 -3 7 -28 6 -56 -2 -27 1 -50 6 -50 6 0 10 23 10 50 0 38 4 50 15 50 8 0 15
9 15 20 0 13 5 18 15 14 9 -4 15 0 15 10 0 13 -12 16 -65 16 -51 0 -65 3 -65
15 0 10 -10 15 -30 15 -20 0 -30 5 -30 15 0 10 -10 15 -30 15 -16 0 -30 -4
-30 -10 0 -5 7 -7 15 -4 8 4 15 1 15 -5 0 -6 -19 -11 -45 -11 -26 0 -45 5 -45
11 0 6 7 9 15 6 8 -4 17 -2 20 3 4 6 -28 10 -79 10 -70 0 -86 -3 -86 -15z
m120 -17 c0 -4 33 -8 73 -9 39 0 81 -4 92 -9 13 -5 -31 -9 -116 -9 -109 -1
-138 2 -142 13 -3 8 -4 16 -2 18 7 7 95 4 95 -4z m256 -75 c-10 -10 -19 5 -10
18 6 11 8 11 12 0 2 -7 1 -15 -2 -18z m-373 -14 l22 0 -22 -11 c-17 -8 -26 -7
-40 8 -17 17 -17 18 0 11 10 -4 28 -7 40 -8z m327 -35 c0 -8 -7 -14 -15 -14
-9 0 -18 -7 -21 -15 -9 -23 -24 -7 -24 24 0 25 3 27 30 23 17 -2 30 -10 30
-18z m-480 -19 c0 -8 -4 -15 -10 -15 -5 0 -10 -6 -10 -14 0 -8 -6 -17 -12 -19
-10 -4 -9 -8 2 -16 12 -9 11 -11 -7 -11 -14 0 -23 6 -23 15 0 8 5 15 10 15 6
0 10 14 10 30 0 23 4 30 20 30 11 0 20 -7 20 -15z m110 -36 c0 -5 -4 -9 -10
-9 -5 0 -10 7 -10 16 0 8 5 12 10 9 6 -3 10 -10 10 -16z m205 -23 c0 -13 -5
-22 -11 -19 -7 2 -10 13 -7 24 7 27 18 24 18 -5z m-555 -25 c0 -11 -59 -36
-67 -27 -3 3 1 6 9 6 9 0 18 7 22 15 6 16 36 21 36 6z m-83 -33 c-3 -8 -6 -5
-6 6 -1 11 2 17 5 13 3 -3 4 -12 1 -19z m93 -2 c0 -14 -29 -30 -38 -21 -3 3 0
5 6 5 7 0 12 7 12 15 0 8 5 15 10 15 6 0 10 -6 10 -14z"/>
<path d="M778 587 c-2 -20 -1 -34 3 -31 11 7 17 41 9 54 -5 7 -9 -2 -12 -23z"/>
<path d="M959 593 c0 -10 -2 -28 -5 -40 -2 -13 1 -23 6 -23 6 0 10 18 10 40 0
39 -9 58 -11 23z"/>
<path d="M991 574 c0 -11 3 -14 6 -6 3 7 2 16 -1 19 -3 4 -6 -2 -5 -13z"/>
<path d="M560 547 c0 -28 3 -35 15 -31 8 4 15 14 15 24 0 10 -7 23 -15 30 -13
11 -15 7 -15 -23z"/>
<path d="M30 498 c0 -34 2 -59 4 -57 8 9 13 119 5 119 -5 0 -9 -28 -9 -62z"/>
<path d="M130 549 c0 -5 5 -7 10 -4 6 3 10 8 10 11 0 2 -4 4 -10 4 -5 0 -10
-5 -10 -11z"/>
<path d="M0 514 c0 -8 5 -12 10 -9 6 3 10 10 10 16 0 5 -4 9 -10 9 -5 0 -10
-7 -10 -16z"/>
<path d="M310 503 c0 -14 3 -23 7 -19 10 10 11 46 1 46 -4 0 -8 -12 -8 -27z"/>
<path d="M212 500 c-2 -37 9 -49 45 -46 48 3 52 16 5 16 -37 0 -41 3 -45 28
-4 26 -4 26 -5 2z"/>
<path d="M250 511 c0 -5 9 -11 19 -14 14 -3 18 -1 14 9 -6 15 -33 19 -33 5z"/>
<path d="M925 510 c-3 -5 -1 -10 4 -10 6 0 11 5 11 10 0 6 -2 10 -4 10 -3 0
-8 -4 -11 -10z"/>
<path d="M638 443 c7 -3 16 -2 19 1 4 3 -2 6 -13 5 -11 0 -14 -3 -6 -6z"/>
</g>
</svg>
