<?xml version="1.0" standalone="no"?>
<!DOCTYPE svg PUBLIC "-//W3C//DTD SVG 20010904//EN"
 "http://www.w3.org/TR/2001/REC-SVG-20010904/DTD/svg10.dtd">
<svg version="1.0" xmlns="http://www.w3.org/2000/svg"
 width="70.000000pt" height="70.000000pt" viewBox="0 0 70.000000 70.000000"
 preserveAspectRatio="xMidYMid meet">
<metadata>
Created by potrace 1.16, written by Peter Selinger 2001-2019
</metadata>
<g transform="translate(0.000000,70.000000) scale(0.100000,-0.100000)"
fill="#000000" stroke="none">
<path d="M10 395 l0 -305 220 0 220 0 0 85 0 85 -120 0 -120 0 0 30 0 30 115
0 115 0 0 90 0 90 -115 0 -115 0 0 30 0 31 133 -3 132 -3 3 -277 c1 -177 6
-278 12 -278 7 0 9 101 8 288 l-3 287 -152 3 -153 3 0 -51 0 -50 115 0 115 0
0 -70 0 -70 -115 0 -115 0 0 -50 0 -50 120 0 120 0 0 -65 0 -65 -200 0 -200 0
0 295 c0 190 -4 295 -10 295 -6 0 -10 -108 -10 -305z"/>
<path d="M50 409 c0 -261 2 -291 16 -285 9 3 92 6 185 6 155 0 169 1 168 18 0
10 -3 12 -6 5 -3 -10 -47 -13 -169 -13 l-164 0 -1 28 c0 15 -1 135 -1 267 0
132 -3 246 -5 253 -18 45 -23 -21 -23 -279z"/>
<path d="M390 686 c0 -14 68 -81 92 -89 12 -4 16 -1 15 13 -1 10 -5 16 -9 14
-5 -3 -22 8 -39 25 -17 17 -28 34 -25 39 2 4 -4 9 -15 9 -10 1 -19 -4 -19 -11z"/>
<path d="M440 696 c0 -3 50 -54 110 -114 l110 -109 0 -179 0 -178 -57 -58
c-45 -46 -53 -58 -37 -58 11 0 41 22 67 48 l47 48 0 198 0 198 -104 104 c-57
57 -111 104 -120 104 -9 0 -16 -2 -16 -4z"/>
<path d="M157 593 c-4 -3 -7 -37 -7 -74 0 -52 4 -68 16 -73 9 -3 60 -6 115 -6
l99 0 0 -34 c0 -31 -2 -33 -32 -33 -18 0 -70 -1 -115 -2 l-83 -1 0 -64 c0
-101 -7 -96 139 -94 l126 2 -124 6 -123 5 0 65 0 65 116 3 116 3 0 49 0 50
-102 1 c-57 1 -109 1 -115 0 -11 -2 -18 56 -16 127 1 14 -1 15 -10 5z"/>
<path d="M527 583 c-3 -5 -5 -137 -6 -296 l0 -288 57 62 c31 34 59 65 60 70 8
21 -17 6 -56 -33 l-42 -41 -1 29 c0 34 0 316 1 389 l0 49 43 -42 c23 -23 46
-42 50 -42 18 0 3 24 -48 76 -30 30 -53 60 -50 65 4 5 4 9 1 9 -3 0 -7 -3 -9
-7z"/>
</g>
</svg>
