<?xml version="1.0" standalone="no"?>
<!DOCTYPE svg PUBLIC "-//W3C//DTD SVG 20010904//EN"
 "http://www.w3.org/TR/2001/REC-SVG-20010904/DTD/svg10.dtd">
<svg version="1.0" xmlns="http://www.w3.org/2000/svg"
 width="180.000000pt" height="180.000000pt" viewBox="0 0 180.000000 180.000000"
 preserveAspectRatio="xMidYMid meet">
<metadata>
Created by potrace 1.16, written by Peter Selinger 2001-2019
</metadata>
<g transform="translate(0.000000,180.000000) scale(0.100000,-0.100000)"
fill="#000000" stroke="none">
<path d="M760 1675 c-170 -34 -280 -95 -410 -225 -133 -133 -192 -242 -226
-418 -34 -176 3 -378 97 -539 44 -75 207 -238 282 -282 83 -49 203 -89 308
-103 161 -21 352 18 496 103 75 44 238 207 282 282 85 144 124 335 103 496
-14 105 -54 225 -103 308 -44 75 -207 238 -282 282 -161 95 -371 131 -547 96z
m302 -20 c153 -32 270 -97 388 -215 121 -121 186 -239 216 -396 36 -190 2
-382 -97 -552 -44 -73 -188 -217 -261 -261 -142 -83 -282 -117 -448 -108 -410
22 -730 360 -730 772 0 215 73 388 230 545 116 116 235 183 384 215 81 18 235
18 318 0z"/>
<path d="M805 1589 c-176 -27 -349 -128 -451 -262 -99 -131 -147 -272 -147
-432 0 -160 48 -301 147 -432 86 -113 239 -212 386 -249 86 -22 245 -22 330
-1 86 23 212 86 282 142 105 84 198 233 234 375 22 86 23 245 1 330 -38 148
-137 301 -250 386 -154 116 -355 171 -532 143z m301 -53 c200 -64 374 -238
441 -440 23 -70 27 -97 27 -201 0 -104 -4 -131 -27 -201 -67 -202 -239 -374
-441 -441 -70 -23 -97 -27 -201 -27 -104 0 -131 4 -201 27 -202 67 -374 239
-441 441 -23 70 -27 97 -27 201 0 104 4 131 27 201 46 139 146 270 270 356
170 117 378 147 573 84z"/>
<path d="M825 1497 c-86 -34 -125 -95 -125 -195 0 -35 6 -77 14 -95 13 -32 76
-95 99 -99 7 -1 -68 -4 -165 -7 -159 -5 -179 -8 -205 -27 -66 -49 -94 -134
-72 -216 28 -105 84 -137 237 -138 l102 0 0 -117 c0 -143 11 -186 59 -234 55
-56 136 -72 214 -45 93 34 116 86 117 264 l0 132 104 0 c115 0 147 8 190 48
87 82 72 248 -28 307 -41 24 -50 25 -212 25 -169 0 -169 0 -139 19 40 24 71
60 84 94 14 36 14 138 0 174 -36 95 -172 150 -274 110z m165 -32 c55 -29 100
-104 100 -167 -1 -84 -73 -166 -154 -175 -94 -11 -157 21 -198 100 -51 100 12
231 125 257 38 9 92 3 127 -15z m333 -399 c71 -29 117 -121 97 -195 -26 -96
-88 -130 -237 -131 l-103 0 0 -132 c0 -160 -15 -202 -86 -244 -38 -22 -54 -26
-100 -22 -58 5 -93 24 -128 72 -19 24 -21 44 -24 176 l-3 148 -117 3 c-99 3
-122 7 -152 26 -112 69 -103 241 14 294 38 17 72 19 424 19 301 0 390 -3 415
-14z"/>
<path d="M840 1432 c-50 -25 -80 -75 -80 -132 0 -112 114 -183 210 -131 107
56 107 210 0 263 -19 10 -48 18 -65 18 -16 0 -46 -8 -65 -18z m142 -51 c29
-26 33 -35 33 -81 0 -46 -4 -55 -33 -81 -84 -75 -211 5 -181 116 22 77 119
102 181 46z"/>
<path d="M870 1367 c-52 -26 -52 -105 1 -132 54 -29 109 5 109 66 0 29 -6 42
-26 58 -31 24 -49 26 -84 8z m70 -37 c11 -11 20 -24 20 -30 0 -14 -37 -50 -52
-50 -17 0 -48 31 -48 48 0 20 29 52 47 52 7 0 22 -9 33 -20z"/>
<path d="M493 1020 c-64 -39 -85 -115 -48 -177 32 -54 60 -63 193 -63 81 0
123 -4 128 -12 4 -6 6 -66 5 -132 0 -67 3 -139 8 -160 21 -88 120 -133 193
-88 58 36 63 52 68 227 l5 160 130 5 c142 5 165 13 195 63 36 59 17 141 -42
177 -32 19 -49 20 -418 20 -364 0 -387 -1 -417 -20z m824 -42 c11 -13 24 -33
27 -45 9 -28 -16 -88 -42 -102 -12 -6 -80 -11 -161 -11 l-141 0 0 -165 c0
-184 -7 -213 -59 -235 -37 -15 -83 -6 -107 22 -17 18 -19 41 -22 197 l-3 176
-144 0 c-144 0 -145 0 -172 28 -39 38 -39 99 0 133 l28 24 388 0 388 0 20 -22z"/>
<path d="M517 952 c-25 -27 -22 -69 7 -87 19 -13 52 -16 172 -14 l149 1 3
-188 c2 -204 5 -214 58 -214 50 0 54 17 54 216 l0 184 153 0 c122 0 157 3 175
16 25 17 29 51 8 80 -14 18 -31 19 -388 22 -354 3 -375 2 -391 -16z m753 -27
c7 -8 10 -22 6 -30 -4 -12 -30 -15 -148 -15 -79 0 -153 -3 -165 -6 -23 -6 -23
-8 -23 -189 0 -154 -2 -185 -16 -196 -11 -9 -20 -10 -32 -2 -15 9 -18 37 -22
199 l-5 189 -156 3 c-163 3 -190 10 -175 47 8 22 717 23 736 0z"/>
</g>
</svg>
