<?xml version="1.0" standalone="no"?>
<!DOCTYPE svg PUBLIC "-//W3C//DTD SVG 20010904//EN"
 "http://www.w3.org/TR/2001/REC-SVG-20010904/DTD/svg10.dtd">
<svg version="1.0" xmlns="http://www.w3.org/2000/svg"
 width="100.000000pt" height="100.000000pt" viewBox="0 0 100.000000 100.000000"
 preserveAspectRatio="xMidYMid meet">
<metadata>
Created by potrace 1.16, written by Peter Selinger 2001-2019
</metadata>
<g transform="translate(0.000000,100.000000) scale(0.100000,-0.100000)"
fill="#000000" stroke="none">
<path d="M310 825 c0 -10 -10 -15 -30 -15 -20 0 -30 -5 -30 -15 0 -10 -10 -15
-30 -15 -20 0 -30 -5 -30 -15 0 -8 -7 -15 -15 -15 -8 0 -15 -7 -15 -15 0 -8
-7 -15 -15 -15 -10 0 -15 -10 -15 -30 0 -23 -4 -30 -20 -30 -11 0 -20 -7 -20
-15 0 -8 -7 -15 -15 -15 -11 0 -15 -12 -15 -50 0 -38 4 -50 15 -50 8 0 15 7
15 15 0 8 9 15 20 15 16 0 20 7 20 35 0 24 5 35 15 35 8 0 15 7 15 15 0 8 7
15 15 15 10 0 15 -11 15 -35 0 -24 -5 -35 -15 -35 -8 0 -15 -7 -15 -15 0 -10
10 -15 30 -15 20 0 30 5 30 15 0 8 7 15 15 15 8 0 15 9 15 20 0 11 7 20 15 20
8 0 15 7 15 15 0 11 12 15 45 15 33 0 45 4 45 15 0 13 24 15 160 15 136 0 160
-2 160 -15 0 -10 10 -15 30 -15 20 0 30 -5 30 -15 0 -10 10 -15 30 -15 23 0
30 -4 30 -20 0 -16 7 -20 30 -20 20 0 30 -5 30 -15 0 -8 9 -15 20 -15 11 0 20
-7 20 -15 0 -8 7 -15 15 -15 10 0 15 -10 15 -30 l0 -30 -95 0 c-78 0 -95 -3
-95 -15 0 -12 -14 -15 -65 -15 -51 0 -65 -3 -65 -15 0 -10 -10 -15 -30 -15
l-30 0 0 60 c0 47 -3 60 -15 60 -8 0 -15 7 -15 15 0 10 -10 15 -30 15 -20 0
-30 -5 -30 -15 0 -8 -7 -15 -15 -15 -8 0 -15 -7 -15 -15 0 -8 -7 -15 -15 -15
-10 0 -15 -10 -15 -30 0 -20 5 -30 15 -30 8 0 15 -7 15 -15 0 -10 -11 -15 -35
-15 -24 0 -35 5 -35 15 0 12 -13 15 -60 15 -47 0 -60 3 -60 15 0 13 -21 15
-125 15 -104 0 -125 -2 -125 -15 0 -10 10 -15 30 -15 20 0 30 -5 30 -15 0 -11
12 -15 50 -15 38 0 50 -4 50 -15 0 -10 10 -15 30 -15 23 0 30 -4 30 -20 0 -16
7 -20 30 -20 20 0 30 -5 30 -15 0 -8 7 -15 15 -15 8 0 15 -7 15 -15 0 -8 7
-15 15 -15 10 0 15 -10 15 -30 0 -20 5 -30 15 -30 10 0 15 -10 15 -30 l0 -30
125 0 125 0 0 30 c0 23 4 30 20 30 16 0 20 7 20 30 0 20 5 30 15 30 8 0 15 7
15 15 0 8 7 15 15 15 8 0 15 7 15 15 0 10 10 15 30 15 23 0 30 4 30 20 0 16 7
20 30 20 20 0 30 5 30 15 0 11 12 15 50 15 38 0 50 4 50 15 0 10 10 15 30 15
20 0 30 5 30 15 0 8 -7 15 -15 15 -11 0 -15 12 -15 45 0 33 -4 45 -15 45 -8 0
-15 7 -15 15 0 8 -7 15 -15 15 -10 0 -15 11 -15 35 0 28 -4 35 -20 35 -11 0
-20 7 -20 15 0 8 -7 15 -15 15 -8 0 -15 7 -15 15 0 8 -7 15 -15 15 -8 0 -15 7
-15 15 0 10 -10 15 -30 15 -20 0 -30 5 -30 15 0 8 -7 15 -15 15 -8 0 -15 7
-15 15 0 8 -7 15 -15 15 -8 0 -15 7 -15 15 0 13 -28 15 -190 15 -162 0 -190
-2 -190 -15z m360 -20 c0 -8 7 -15 15 -15 8 0 15 -7 15 -15 0 -8 7 -15 15 -15
8 0 15 -7 15 -15 0 -10 10 -15 30 -15 20 0 30 -5 30 -15 0 -8 7 -15 15 -15 8
0 15 -7 15 -15 0 -8 7 -15 15 -15 8 0 15 -7 15 -15 0 -8 9 -15 20 -15 11 0 20
-7 20 -15 0 -10 -10 -15 -30 -15 -23 0 -30 4 -30 20 0 16 -7 20 -30 20 -20 0
-30 5 -30 15 0 10 -10 15 -30 15 -20 0 -30 5 -30 15 0 13 -26 15 -175 15
l-175 0 0 30 c0 28 -3 30 -35 30 -24 0 -35 -5 -35 -15 0 -10 -10 -15 -30 -15
-20 0 -30 -5 -30 -15 0 -9 -9 -15 -25 -15 -14 0 -25 5 -25 10 0 6 7 10 15 10
8 0 15 7 15 15 0 10 10 15 30 15 20 0 30 5 30 15 0 10 10 15 30 15 20 0 30 5
30 15 0 13 26 15 170 15 144 0 170 -2 170 -15z m-330 -70 c0 -8 -7 -15 -15
-15 -8 0 -15 7 -15 15 0 8 7 15 15 15 8 0 15 -7 15 -15z m-60 -30 c0 -8 -7
-15 -15 -15 -8 0 -15 -7 -15 -15 0 -10 -10 -15 -30 -15 -20 0 -30 5 -30 15 0
10 10 15 30 15 20 0 30 5 30 15 0 8 7 15 15 15 8 0 15 -7 15 -15z m-110 -15
c0 -5 -4 -10 -10 -10 -5 0 -10 5 -10 10 0 6 5 10 10 10 6 0 10 -4 10 -10z
m180 0 c0 -5 -11 -10 -25 -10 -14 0 -25 5 -25 10 0 6 11 10 25 10 14 0 25 -4
25 -10z m-120 -65 c0 -8 -4 -15 -10 -15 -5 0 -10 7 -10 15 0 8 5 15 10 15 6 0
10 -7 10 -15z m-120 -30 c0 -8 -7 -15 -15 -15 -8 0 -15 7 -15 15 0 8 7 15 15
15 8 0 15 -7 15 -15z m400 -70 c0 -8 7 -15 15 -15 11 0 15 -11 15 -40 l0 -40
-40 0 c-29 0 -40 4 -40 15 0 8 -7 15 -15 15 -8 0 -15 5 -15 10 0 6 7 10 15 10
8 0 15 7 15 15 0 8 7 15 15 15 8 0 15 7 15 15 0 8 5 15 10 15 6 0 10 -7 10
-15z m-280 -90 c0 -12 13 -15 60 -15 47 0 60 -3 60 -15 0 -10 11 -15 35 -15
24 0 35 -5 35 -15 0 -12 16 -15 80 -15 64 0 80 3 80 15 0 10 10 15 30 15 20 0
30 5 30 15 0 12 14 15 65 15 51 0 65 3 65 15 0 12 15 15 75 15 43 0 75 -4 75
-10 0 -5 -22 -10 -50 -10 -38 0 -50 -4 -50 -15 0 -10 -10 -15 -30 -15 -23 0
-30 -4 -30 -20 0 -16 -7 -20 -30 -20 -20 0 -30 -5 -30 -15 0 -8 -7 -15 -15
-15 -8 0 -15 -7 -15 -15 0 -8 -7 -15 -15 -15 -10 0 -15 -10 -15 -30 0 -23 -4
-30 -20 -30 -16 0 -20 -7 -20 -30 l0 -30 -105 0 -105 0 0 30 c0 20 -5 30 -15
30 -10 0 -15 10 -15 30 0 20 -5 30 -15 30 -8 0 -15 7 -15 15 0 8 -7 15 -15 15
-8 0 -15 7 -15 15 0 10 -10 15 -30 15 -23 0 -30 4 -30 20 0 16 -7 20 -30 20
-20 0 -30 5 -30 15 0 11 -12 15 -50 15 -27 0 -50 5 -50 10 0 6 32 10 75 10 60
0 75 -3 75 -15z m330 -40 c0 -12 -13 -15 -60 -15 -47 0 -60 3 -60 15 0 12 13
15 60 15 47 0 60 -3 60 -15z"/>
</g>
</svg>
