<?xml version="1.0" standalone="no"?>
<!DOCTYPE svg PUBLIC "-//W3C//DTD SVG 20010904//EN"
 "http://www.w3.org/TR/2001/REC-SVG-20010904/DTD/svg10.dtd">
<svg version="1.0" xmlns="http://www.w3.org/2000/svg"
 width="180.000000pt" height="180.000000pt" viewBox="0 0 180.000000 180.000000"
 preserveAspectRatio="xMidYMid meet">
<metadata>
Created by potrace 1.16, written by Peter Selinger 2001-2019
</metadata>
<g transform="translate(0.000000,180.000000) scale(0.100000,-0.100000)"
fill="#000000" stroke="none">
<path d="M599 1490 c-79 -42 -128 -132 -115 -213 11 -70 43 -112 176 -237 122
-116 145 -147 112 -158 -7 -2 -74 57 -150 131 -129 125 -142 135 -191 146 -83
18 -154 -2 -214 -58 -63 -58 -76 -124 -48 -231 24 -90 26 -160 6 -226 -42
-137 13 -265 130 -304 106 -35 203 12 332 161 41 48 91 95 110 106 34 18 35
18 49 -2 12 -16 15 -46 12 -148 l-3 -127 108 0 107 0 -6 27 c-4 15 -8 73 -8
130 -1 112 11 142 52 129 11 -4 68 -58 126 -121 122 -129 177 -165 260 -165
120 0 216 99 216 221 0 19 -7 56 -15 83 -8 27 -15 77 -15 111 0 34 7 84 15
111 45 150 -16 271 -155 304 -39 9 -61 9 -102 0 -48 -12 -65 -24 -189 -146
-75 -74 -141 -134 -148 -134 -6 0 -14 7 -18 16 -4 11 36 56 140 158 139 135
146 143 156 195 19 89 -1 155 -63 208 -64 57 -125 63 -299 33 -56 -10 -81 -9
-146 4 -104 21 -177 20 -222 -4z m173 -16 c71 -16 94 -16 328 2 71 5 78 4 121
-24 58 -37 94 -105 86 -161 -9 -70 -37 -107 -167 -227 -71 -65 -131 -127 -134
-138 -3 -11 -3 -31 0 -43 5 -19 13 -23 42 -23 32 0 48 12 167 129 132 130 164
151 233 151 34 0 93 -27 125 -58 61 -57 71 -111 43 -218 -20 -77 -20 -153 -1
-227 28 -107 15 -165 -46 -224 -41 -38 -77 -53 -130 -53 -59 0 -113 33 -188
113 -151 163 -157 167 -205 167 -40 0 -45 -3 -57 -32 -9 -22 -13 -69 -12 -141
l2 -107 -72 0 -72 0 3 112 c3 141 -5 162 -67 166 l-44 3 -121 -125 c-76 -78
-135 -131 -158 -141 -85 -35 -180 -4 -230 74 -26 41 -29 53 -25 106 2 33 10
88 17 123 14 65 11 96 -21 243 -12 52 -11 59 11 103 25 53 89 101 148 112 68
13 111 -12 256 -149 123 -117 139 -128 168 -125 31 3 33 6 36 43 2 39 0 42
-123 155 -170 156 -200 218 -156 316 21 47 70 88 121 102 48 14 42 14 122 -4z"/>
</g>
</svg>
