<?xml version="1.0" standalone="no"?>
<!DOCTYPE svg PUBLIC "-//W3C//DTD SVG 20010904//EN"
 "http://www.w3.org/TR/2001/REC-SVG-20010904/DTD/svg10.dtd">
<svg version="1.0" xmlns="http://www.w3.org/2000/svg"
 width="64.000000pt" height="64.000000pt" viewBox="0 0 64.000000 64.000000"
 preserveAspectRatio="xMidYMid meet">
<metadata>
Created by potrace 1.16, written by Peter Selinger 2001-2019
</metadata>
<g transform="translate(0.000000,64.000000) scale(0.100000,-0.100000)"
fill="#000000" stroke="none">
<path d="M162 583 c-19 -7 -42 -58 -42 -93 0 -27 -3 -30 -34 -30 -18 0 -45 -9
-59 -20 -26 -20 -26 -22 -26 -160 0 -172 5 -180 109 -180 58 0 69 3 103 31
l37 30 0 -30 0 -31 70 0 70 0 0 34 0 33 36 -33 c33 -32 40 -34 103 -34 106 0
110 7 110 180 0 138 0 140 -26 160 -14 11 -41 20 -59 20 -31 0 -34 3 -34 30 0
37 -23 85 -44 93 -18 7 -296 7 -314 0z m309 -34 c24 -24 34 -65 22 -92 -10
-21 -8 -22 33 -19 38 3 48 0 74 -26 33 -33 36 -49 18 -98 -9 -26 -9 -41 1 -72
24 -73 -13 -122 -91 -122 -43 0 -52 4 -99 50 -58 56 -74 53 -63 -12 l6 -38
-52 0 -51 0 6 44 c4 24 3 46 -2 49 -5 4 -33 -16 -62 -43 -47 -46 -56 -50 -99
-50 -78 0 -115 49 -91 122 10 31 10 46 1 72 -18 49 -15 65 18 98 26 26 36 29
74 26 41 -3 43 -2 33 19 -12 27 -2 68 22 92 16 16 35 19 151 19 116 0 135 -3
151 -19z"/>
<path d="M174 526 c-27 -39 -17 -67 46 -128 62 -60 72 -78 44 -78 -11 0 -14 5
-10 17 4 10 4 14 0 10 -4 -3 -28 11 -54 33 -57 48 -102 53 -143 17 -27 -23
-36 -60 -17 -72 14 -9 13 -71 -2 -95 -14 -22 1 -77 20 -73 7 2 12 -2 12 -7 0
-6 17 -10 38 -10 27 0 48 8 75 31 20 17 37 37 37 45 0 10 12 14 41 14 24 0 38
4 34 10 -15 24 -55 8 -104 -40 -55 -54 -96 -65 -122 -34 -20 25 -21 203 -1
227 25 28 61 20 111 -24 65 -57 68 -59 91 -59 37 0 23 41 -35 100 -32 32 -55
64 -55 76 0 40 25 49 142 49 104 1 111 0 129 -23 23 -29 15 -47 -42 -99 -37
-34 -49 -53 -31 -53 4 0 29 20 55 45 51 48 60 82 33 121 -14 19 -25 21 -146
21 -121 0 -132 -2 -146 -21z"/>
<path d="M440 383 c-24 -21 -47 -37 -52 -35 -5 1 -7 -2 -3 -8 12 -19 35 -10
79 30 47 44 83 51 108 23 12 -14 15 -42 14 -125 -2 -104 6 -137 20 -81 4 14 2
34 -5 44 -14 23 -15 86 -1 94 19 12 10 53 -16 74 -43 34 -93 28 -144 -16z"/>
<path d="M351 338 c-1 -24 3 -28 27 -27 22 1 23 2 5 6 -13 2 -24 13 -26 26 -4
18 -5 17 -6 -5z"/>
<path d="M347 243 c-3 -5 -8 -24 -11 -43 l-7 -35 15 33 c11 24 21 32 41 32 15
0 24 4 20 10 -7 12 -52 14 -58 3z"/>
<path d="M300 191 c0 -11 -3 -26 -6 -35 -5 -13 1 -16 25 -16 17 0 31 4 31 9 0
4 -11 6 -23 4 -22 -4 -23 -2 -19 26 2 17 2 31 -2 31 -3 0 -6 -9 -6 -19z"/>
<path d="M440 193 c0 -6 7 -19 16 -28 9 -9 19 -13 22 -10 3 3 -4 15 -16 28
-12 12 -22 16 -22 10z"/>
<path d="M490 148 c0 -5 18 -8 40 -8 22 0 40 3 40 8 0 4 -18 7 -40 7 -22 0
-40 -3 -40 -7z"/>
</g>
</svg>
