<?xml version="1.0" standalone="no"?>
<!DOCTYPE svg PUBLIC "-//W3C//DTD SVG 20010904//EN"
 "http://www.w3.org/TR/2001/REC-SVG-20010904/DTD/svg10.dtd">
<svg version="1.0" xmlns="http://www.w3.org/2000/svg"
 width="192.000000pt" height="192.000000pt" viewBox="0 0 192.000000 192.000000"
 preserveAspectRatio="xMidYMid meet">
<metadata>
Created by potrace 1.16, written by Peter Selinger 2001-2019
</metadata>
<g transform="translate(0.000000,192.000000) scale(0.100000,-0.100000)"
fill="#000000" stroke="none">
<path d="M550 1910 c13 -9 13 -11 0 -19 -8 -6 -12 -13 -8 -16 8 -8 36 6 38 19
2 10 -20 26 -35 26 -5 0 -3 -5 5 -10z"/>
<path d="M660 1911 c0 -5 5 -13 10 -16 6 -3 10 -2 10 4 0 5 -4 13 -10 16 -5 3
-10 2 -10 -4z"/>
<path d="M695 1910 c-3 -5 1 -10 10 -10 9 0 13 5 10 10 -3 6 -8 10 -10 10 -2
0 -7 -4 -10 -10z"/>
<path d="M1320 1910 c0 -5 5 -10 10 -10 6 0 10 5 10 10 0 6 -4 10 -10 10 -5 0
-10 -4 -10 -10z"/>
<path d="M1350 1909 c0 -5 5 -7 10 -4 6 3 10 8 10 11 0 2 -4 4 -10 4 -5 0 -10
-5 -10 -11z"/>
<path d="M400 1900 c0 -5 5 -10 10 -10 6 0 10 5 10 10 0 6 -4 10 -10 10 -5 0
-10 -4 -10 -10z"/>
<path d="M1280 1884 c0 -16 5 -36 10 -44 6 -10 7 -2 3 25 -7 49 -13 58 -13 19z"/>
<path d="M1520 1891 c0 -5 11 -8 25 -7 38 4 43 16 7 16 -18 0 -32 -4 -32 -9z"/>
<path d="M455 1880 c-3 -5 1 -10 9 -10 9 0 16 5 16 10 0 6 -4 10 -9 10 -6 0
-13 -4 -16 -10z"/>
<path d="M1300 1880 c0 -5 5 -10 10 -10 6 0 10 5 10 10 0 6 -4 10 -10 10 -5 0
-10 -4 -10 -10z"/>
<path d="M1340 1866 c0 -16 -4 -25 -10 -21 -6 3 -10 -5 -10 -19 0 -13 -3 -26
-7 -28 -13 -5 -43 -68 -43 -89 0 -11 -4 -17 -10 -14 -5 3 -10 -3 -10 -14 0
-12 -4 -21 -10 -21 -5 0 -10 -8 -10 -18 0 -10 -7 -27 -15 -38 -8 -10 -15 -27
-15 -37 0 -10 -4 -15 -10 -12 -5 3 -10 -3 -10 -14 0 -12 -4 -21 -10 -21 -5 0
-10 -7 -10 -16 0 -18 -31 -77 -42 -82 -5 -2 -8 -15 -8 -28 0 -14 -4 -22 -10
-19 -5 3 -10 -1 -10 -10 0 -9 -11 -36 -25 -61 -14 -25 -25 -51 -25 -59 0 -8
-4 -15 -8 -15 -26 0 -33 -78 -31 -327 3 -336 1 -375 -17 -393 -12 -12 -14 -10
-14 20 -1 33 -2 34 -15 16 -9 -12 -28 -19 -49 -20 -19 -1 -33 1 -31 3 3 2 0
12 -5 21 -6 12 -17 16 -30 13 -11 -3 -20 0 -20 6 0 6 -9 11 -21 11 -11 0 -27
7 -35 15 -9 8 -26 15 -40 15 -16 0 -24 6 -25 18 0 14 -2 14 -8 -3 l-8 -20 -5
20 c-5 18 -6 18 -7 -2 -1 -17 5 -23 22 -24 21 -1 21 -1 -3 -9 -25 -8 -25 -8 5
-10 17 -1 36 -2 43 -1 6 1 12 -3 12 -9 0 -5 13 -10 30 -10 22 0 28 -4 24 -15
-5 -11 1 -15 26 -15 18 0 29 -4 25 -10 -4 -6 7 -10 24 -10 17 0 31 -4 31 -10
0 -5 8 -10 18 -10 10 0 24 -6 31 -13 11 -10 12 -9 6 2 -6 10 -1 12 24 6 21 -4
31 -3 31 5 0 22 29 40 66 40 21 0 45 7 55 16 9 8 26 16 38 17 13 1 21 8 21 19
0 10 5 18 11 18 5 0 7 -4 4 -10 -3 -5 1 -10 10 -10 9 0 13 5 10 10 -3 6 4 11
17 11 16 1 13 4 -12 9 -31 7 -29 8 19 7 56 -1 68 7 51 33 -8 12 -12 13 -19 2
-4 -8 -27 -16 -50 -19 -24 -3 -45 -12 -48 -19 -3 -8 -11 -14 -17 -14 -7 0 -25
-13 -41 -30 -26 -27 -65 -41 -65 -23 0 3 25 30 55 59 30 30 55 58 55 64 0 5 5
10 11 10 13 0 129 118 129 131 0 5 5 9 10 9 6 0 10 14 10 30 0 17 3 30 8 30 4
0 6 21 5 47 -6 179 -4 751 2 767 4 10 4 21 -2 25 -5 3 -12 16 -16 29 -5 20 -3
21 9 11 13 -11 14 -9 3 14 -10 22 -10 32 1 51 12 24 13 24 33 5 11 -10 27 -19
34 -19 12 0 41 -15 131 -67 23 -14 42 -31 42 -38 0 -8 15 -12 42 -12 23 0 44
-5 46 -12 2 -6 10 -11 18 -11 9 0 12 -4 9 -10 -4 -6 8 -10 27 -11 28 0 30 -2
13 -10 -18 -8 -18 -9 5 -7 14 0 36 -3 48 -9 l24 -9 -31 -25 c-44 -34 -39 -44
7 -14 37 24 40 25 71 9 30 -15 31 -17 14 -30 -17 -12 -16 -13 8 -14 26 0 28 6
20 53 0 4 -10 7 -22 7 -11 0 -17 5 -14 10 3 6 0 10 -8 10 -8 0 -35 11 -58 25
-24 14 -52 25 -61 25 -10 0 -18 5 -18 10 0 6 -7 10 -15 10 -8 0 -15 5 -15 10
0 6 -9 10 -20 10 -11 0 -20 5 -20 10 0 6 -9 10 -19 10 -11 0 -26 7 -35 15 -8
8 -22 15 -31 15 -9 0 -13 5 -10 10 3 6 -2 10 -11 10 -23 0 -125 50 -120 59 3
4 -7 8 -22 9 -14 1 -28 5 -31 10 -3 4 -14 13 -23 21 -16 12 -18 11 -18 -13z
m-17 -565 c2 -345 -1 -442 -10 -446 -7 -2 -13 -11 -13 -20 0 -8 -4 -15 -10
-15 -5 0 -10 -8 -10 -17 0 -15 -2 -14 -15 3 -8 10 -15 15 -14 9 4 -28 -4 -46
-37 -80 -28 -30 -38 -35 -45 -24 -7 11 -9 9 -9 -7 0 -11 -9 -29 -21 -40 -20
-18 -22 -18 -33 -2 -7 10 -16 15 -19 12 -3 -4 4 -14 15 -24 l22 -17 -22 -7
c-12 -4 -24 -17 -28 -30 -3 -12 -13 -22 -23 -23 -15 -1 -17 8 -18 75 0 42 -2
175 -5 295 -2 119 0 217 4 217 4 0 8 11 8 25 0 15 6 25 14 25 9 0 12 7 9 20
-3 11 -1 20 5 20 5 0 13 17 17 37 5 27 9 33 16 22 5 -8 9 -11 10 -6 10 52 21
77 33 77 17 0 23 16 32 80 7 56 22 59 22 4 0 -33 7 -52 16 -43 2 2 0 26 -5 54
-8 43 -7 53 11 77 11 15 20 35 20 44 0 10 3 15 6 11 11 -10 34 20 28 36 -3 8
-1 18 5 22 6 3 11 15 11 26 0 11 5 17 10 14 6 -3 8 -18 5 -33 -4 -23 -4 -24 4
-7 5 11 7 36 4 55 -3 19 -3 32 1 29 4 -4 8 -205 9 -448z"/>
<path d="M1301 1614 c0 -11 3 -14 6 -6 3 7 2 16 -1 19 -3 4 -6 -2 -5 -13z"/>
<path d="M1267 1603 c-5 -7 -3 -21 2 -31 6 -10 10 -60 10 -111 -1 -118 8 -130
13 -17 3 88 -12 181 -25 159z"/>
<path d="M1218 1523 c7 -3 16 -2 19 1 4 3 -2 6 -13 5 -11 0 -14 -3 -6 -6z"/>
<path d="M1232 1430 c0 -27 4 -50 9 -50 5 0 9 23 9 50 0 28 -4 50 -9 50 -5 0
-9 -22 -9 -50z"/>
<path d="M1180 1403 c1 -10 26 -43 33 -43 3 0 0 11 -6 25 -11 23 -27 34 -27
18z"/>
<path d="M1280 1305 c0 -14 4 -25 9 -25 4 0 6 11 3 25 -2 14 -6 25 -8 25 -2 0
-4 -11 -4 -25z"/>
<path d="M1090 1274 c0 -8 5 -12 10 -9 6 4 8 11 5 16 -9 14 -15 11 -15 -7z"/>
<path d="M1100 1240 c0 -5 5 -10 10 -10 6 0 10 5 10 10 0 6 -4 10 -10 10 -5 0
-10 -4 -10 -10z"/>
<path d="M1040 1125 c1 -26 2 -28 11 -12 8 14 8 22 0 30 -8 8 -11 3 -11 -18z"/>
<path d="M1281 1038 c1 -93 6 -87 11 15 2 37 0 67 -4 67 -4 0 -7 -37 -7 -82z"/>
<path d="M1203 920 c0 -25 2 -35 4 -22 2 12 2 32 0 45 -2 12 -4 2 -4 -23z"/>
<path d="M1242 920 c0 -14 2 -19 5 -12 2 6 2 18 0 25 -3 6 -5 1 -5 -13z"/>
<path d="M1282 920 c0 -14 2 -19 5 -12 2 6 2 18 0 25 -3 6 -5 1 -5 -13z"/>
<path d="M1290 880 c0 -5 7 -10 16 -10 8 0 12 5 9 10 -3 6 -10 10 -16 10 -5 0
-9 -4 -9 -10z"/>
<path d="M1254 858 c1 -13 7 -23 11 -23 4 0 10 10 11 23 3 14 -1 22 -11 22
-10 0 -14 -8 -11 -22z"/>
<path d="M1210 790 c0 -5 5 -10 10 -10 6 0 10 5 10 10 0 6 -4 10 -10 10 -5 0
-10 -4 -10 -10z"/>
<path d="M1186 755 c4 -8 10 -15 15 -15 5 0 9 7 9 15 0 8 -7 15 -15 15 -9 0
-12 -6 -9 -15z"/>
<path d="M1130 723 c16 -8 12 -33 -5 -27 -8 4 -15 1 -15 -6 0 -6 8 -10 18 -8
20 4 23 40 4 44 -7 1 -8 0 -2 -3z"/>
<path d="M1065 640 c3 -5 11 -10 16 -10 6 0 7 5 4 10 -3 6 -11 10 -16 10 -6 0
-7 -4 -4 -10z"/>
<path d="M628 1872 c-10 -2 -18 -8 -18 -13 0 -5 -12 -9 -26 -9 -14 0 -23 -4
-19 -10 3 -5 -3 -10 -14 -10 -10 0 -21 -4 -23 -10 -1 -5 -27 -18 -55 -28 -29
-10 -50 -22 -46 -25 3 -4 -3 -7 -14 -7 -12 0 -23 -3 -25 -7 -4 -11 -75 -43
-94 -43 -8 0 -12 -4 -9 -10 3 -5 -1 -10 -10 -10 -9 0 -33 -11 -53 -25 -20 -14
-47 -25 -60 -25 -13 0 -20 -4 -17 -10 3 -5 -3 -10 -14 -10 -12 0 -21 -4 -21
-9 0 -5 -8 -11 -18 -14 -49 -16 -95 -36 -82 -37 13 0 13 -1 0 -10 -8 -5 -11
-12 -7 -16 7 -7 26 0 92 33 21 10 31 11 33 3 3 -7 10 -3 19 9 8 12 23 21 34
21 10 0 19 5 19 10 0 6 10 10 23 10 16 0 18 3 9 9 -10 6 -6 11 16 19 21 7 33
7 41 -1 13 -13 22 -6 24 23 1 17 6 21 24 17 13 -2 23 0 23 4 0 5 9 9 20 9 14
0 18 -5 14 -17 -5 -15 -4 -16 5 -3 8 11 7 18 -6 28 -17 12 -12 16 18 13 24 -3
93 46 77 53 -7 4 -3 4 10 2 12 -2 22 0 22 5 0 5 12 9 28 9 16 0 32 8 40 20 7
11 22 20 35 19 21 0 21 -1 2 -9 l-20 -9 20 -1 c11 -2 23 -2 27 -1 12 1 21 -64
20 -147 0 -50 3 -80 9 -77 5 4 7 33 5 66 -2 32 0 59 5 59 4 0 17 -21 28 -46
18 -39 19 -52 10 -95 -6 -27 -15 -49 -20 -49 -5 0 -9 -19 -8 -42 l1 -43 9 35
c5 19 14 44 19 55 5 11 11 34 12 50 3 28 6 24 36 -38 17 -37 32 -75 32 -85 0
-11 3 -13 8 -5 5 8 12 1 20 -20 8 -18 17 -39 22 -48 5 -10 4 -21 -3 -29 -10
-10 -8 -12 6 -7 13 5 17 1 17 -18 0 -14 3 -25 8 -25 7 0 29 -39 63 -113 7 -16
16 -24 21 -19 12 12 -1 84 -13 76 -5 -3 -9 4 -9 15 0 12 -4 21 -10 21 -5 0
-10 9 -10 19 0 11 -4 23 -10 26 -9 6 -26 41 -50 103 -7 17 -16 32 -20 32 -5 0
-11 14 -15 30 -4 17 -11 30 -16 30 -5 0 -9 12 -9 26 0 14 -4 23 -10 19 -5 -3
-10 3 -10 14 0 12 -4 21 -10 21 -5 0 -12 16 -16 35 -3 19 -10 32 -15 29 -5 -3
-9 7 -9 21 0 15 -4 24 -10 20 -5 -3 -10 1 -10 9 0 15 -30 86 -40 96 -3 3 -12
19 -20 35 -10 20 -21 29 -32 27z"/>
<path d="M685 1870 c3 -5 8 -10 11 -10 2 0 4 5 4 10 0 6 -5 10 -11 10 -5 0 -7
-4 -4 -10z"/>
<path d="M418 1863 c7 -3 16 -2 19 1 4 3 -2 6 -13 5 -11 0 -14 -3 -6 -6z"/>
<path d="M500 1860 c0 -5 7 -7 15 -4 8 4 15 8 15 10 0 2 -7 4 -15 4 -8 0 -15
-4 -15 -10z"/>
<path d="M423 1827 c-24 -11 -43 -24 -43 -28 0 -4 18 1 40 12 21 10 44 19 50
19 5 0 10 5 10 10 0 13 -7 12 -57 -13z"/>
<path d="M1515 1839 c-4 -6 -4 -13 -1 -16 3 -4 6 -1 6 5 0 6 8 13 18 15 15 4
15 5 0 6 -9 0 -20 -4 -23 -10z"/>
<path d="M241 1824 c0 -11 3 -14 6 -6 3 7 2 16 -1 19 -3 4 -6 -2 -5 -13z"/>
<path d="M720 1829 c0 -5 5 -7 10 -4 6 3 10 8 10 11 0 2 -4 4 -10 4 -5 0 -10
-5 -10 -11z"/>
<path d="M793 1800 c0 -25 2 -35 4 -22 2 12 2 32 0 45 -2 12 -4 2 -4 -23z"/>
<path d="M1565 1820 c-18 -8 -17 -9 8 -9 16 -1 26 3 22 9 -3 6 -7 10 -8 9 -1
0 -11 -4 -22 -9z"/>
<path d="M605 1790 c-3 -5 3 -10 15 -10 12 0 18 -4 15 -11 -4 -6 -14 -8 -22
-4 -13 4 -14 3 -3 -10 9 -11 11 -105 9 -412 -2 -219 -1 -403 4 -410 4 -6 4
-14 -1 -16 -4 -3 -8 -96 -9 -208 -2 -111 -4 -204 -7 -206 -2 -2 -139 -4 -305
-3 -261 0 -301 -1 -301 -14 0 -13 43 -16 317 -18 184 -2 321 1 325 6 3 5 7
301 7 657 1 632 1 649 -18 659 -13 7 -22 7 -26 0z"/>
<path d="M320 1780 c0 -5 4 -10 9 -10 6 0 13 5 16 10 3 6 -1 10 -9 10 -9 0
-16 -4 -16 -10z"/>
<path d="M1420 1783 c8 -3 19 -11 23 -17 6 -7 7 -6 4 4 -2 8 -12 16 -23 17
-13 2 -15 1 -4 -4z"/>
<path d="M1408 1763 c7 -3 16 -2 19 1 4 3 -2 6 -13 5 -11 0 -14 -3 -6 -6z"/>
<path d="M220 1756 c0 -2 7 -7 16 -10 8 -3 12 -2 9 4 -6 10 -25 14 -25 6z"/>
<path d="M266 1745 c7 -17 20 -20 28 -6 3 5 -1 12 -10 15 -22 9 -24 8 -18 -9z"/>
<path d="M315 1750 c3 -5 8 -10 11 -10 2 0 4 5 4 10 0 6 -5 10 -11 10 -5 0 -7
-4 -4 -10z"/>
<path d="M570 1442 c0 -177 3 -322 8 -322 8 0 5 630 -3 638 -3 3 -5 -139 -5
-316z"/>
<path d="M1212 1735 c0 -16 2 -22 5 -12 2 9 2 23 0 30 -3 6 -5 -1 -5 -18z"/>
<path d="M1744 1751 c3 -5 15 -7 26 -4 28 7 25 13 -6 13 -14 0 -23 -4 -20 -9z"/>
<path d="M771 1734 c0 -11 3 -14 6 -6 3 7 2 16 -1 19 -3 4 -6 -2 -5 -13z"/>
<path d="M1235 1740 c3 -5 8 -10 11 -10 2 0 4 5 4 10 0 6 -5 10 -11 10 -5 0
-7 -4 -4 -10z"/>
<path d="M220 1720 c0 -5 5 -10 10 -10 6 0 10 5 10 10 0 6 -4 10 -10 10 -5 0
-10 -4 -10 -10z"/>
<path d="M1520 1720 c0 -5 5 -10 10 -10 6 0 10 5 10 10 0 6 -4 10 -10 10 -5 0
-10 -4 -10 -10z"/>
<path d="M1746 1715 c4 -8 8 -15 10 -15 2 0 4 7 4 15 0 8 -4 15 -10 15 -5 0
-7 -7 -4 -15z"/>
<path d="M115 1710 c-3 -5 -1 -10 4 -10 6 0 11 5 11 10 0 6 -2 10 -4 10 -3 0
-8 -4 -11 -10z"/>
<path d="M180 1700 c0 -5 4 -10 9 -10 6 0 13 5 16 10 3 6 -1 10 -9 10 -9 0
-16 -4 -16 -10z"/>
<path d="M420 1696 c0 -2 14 -6 30 -8 17 -3 30 -1 30 4 0 4 -13 8 -30 8 -16 0
-30 -2 -30 -4z"/>
<path d="M150 1680 c-9 -6 -10 -10 -3 -10 6 0 15 5 18 10 8 12 4 12 -15 0z"/>
<path d="M48 1673 c6 -2 18 -2 25 0 6 3 1 5 -13 5 -14 0 -19 -2 -12 -5z"/>
<path d="M1855 1670 c-3 -5 -2 -10 4 -10 5 0 13 5 16 10 3 6 2 10 -4 10 -5 0
-13 -4 -16 -10z"/>
<path d="M108 1663 c7 -3 16 -2 19 1 4 3 -2 6 -13 5 -11 0 -14 -3 -6 -6z"/>
<path d="M1888 1653 c6 -2 18 -2 25 0 6 3 1 5 -13 5 -14 0 -19 -2 -12 -5z"/>
<path d="M265 1631 c-6 -11 9 -23 19 -14 9 9 7 23 -3 23 -6 0 -12 -4 -16 -9z"/>
<path d="M0 1620 c0 -5 10 -10 23 -10 18 0 19 2 7 10 -19 13 -30 13 -30 0z"/>
<path d="M1688 1623 c6 -2 18 -2 25 0 6 3 1 5 -13 5 -14 0 -19 -2 -12 -5z"/>
<path d="M1747 1611 c4 -3 10 -10 14 -14 3 -4 11 -2 18 6 9 12 7 15 -14 15
-14 0 -22 -3 -18 -7z"/>
<path d="M235 1600 c-3 -5 -1 -10 4 -10 6 0 11 5 11 10 0 6 -2 10 -4 10 -3 0
-8 -4 -11 -10z"/>
<path d="M834 1566 c6 -19 12 -33 14 -31 7 6 -9 65 -17 65 -5 0 -3 -15 3 -34z"/>
<path d="M1825 1570 c-4 -6 3 -10 14 -10 25 0 27 6 6 13 -8 4 -17 2 -20 -3z"/>
<path d="M95 1540 c3 -5 13 -10 21 -10 8 0 14 5 14 10 0 6 -9 10 -21 10 -11 0
-17 -4 -14 -10z"/>
<path d="M860 1523 c0 -21 3 -24 9 -14 5 8 7 20 4 28 -8 21 -13 15 -13 -14z"/>
<path d="M1790 1540 c0 -5 4 -10 9 -10 6 0 13 5 16 10 3 6 -1 10 -9 10 -9 0
-16 -4 -16 -10z"/>
<path d="M750 1511 c0 -17 5 -31 10 -31 6 0 10 11 10 24 0 14 -4 28 -10 31 -6
4 -10 -7 -10 -24z"/>
<path d="M50 1526 c0 -2 7 -7 16 -10 8 -3 12 -2 9 4 -6 10 -25 14 -25 6z"/>
<path d="M1838 1523 c7 -3 16 -2 19 1 4 3 -2 6 -13 5 -11 0 -14 -3 -6 -6z"/>
<path d="M940 1510 c0 -5 5 -10 10 -10 6 0 10 5 10 10 0 6 -4 10 -10 10 -5 0
-10 -4 -10 -10z"/>
<path d="M1076 1493 c10 -40 14 -41 14 -5 0 18 -5 32 -10 32 -6 0 -8 -11 -4
-27z"/>
<path d="M1110 1510 c0 -5 5 -10 10 -10 6 0 10 5 10 10 0 6 -4 10 -10 10 -5 0
-10 -4 -10 -10z"/>
<path d="M1883 1513 c9 -2 23 -2 30 0 6 3 -1 5 -18 5 -16 0 -22 -2 -12 -5z"/>
<path d="M0 1500 c0 -5 4 -10 9 -10 6 0 13 5 16 10 3 6 -1 10 -9 10 -9 0 -16
-4 -16 -10z"/>
<path d="M0 1460 c0 -5 5 -10 10 -10 6 0 10 5 10 10 0 6 -4 10 -10 10 -5 0
-10 -4 -10 -10z"/>
<path d="M670 1429 c0 -5 5 -7 10 -4 6 3 10 8 10 11 0 2 -4 4 -10 4 -5 0 -10
-5 -10 -11z"/>
<path d="M914 1433 c10 -10 46 -11 46 -1 0 4 -12 8 -27 8 -14 0 -23 -3 -19 -7z"/>
<path d="M1041 1418 c-1 -15 4 -30 9 -33 12 -7 12 12 0 40 -8 18 -9 17 -9 -7z"/>
<path d="M810 1404 c0 -20 29 -49 38 -39 4 4 1 10 -5 12 -7 3 -13 13 -13 24 0
10 -4 19 -10 19 -5 0 -10 -7 -10 -16z"/>
<path d="M670 1370 c0 -5 5 -10 10 -10 6 0 10 5 10 10 0 6 -4 10 -10 10 -5 0
-10 -4 -10 -10z"/>
<path d="M807 1349 c4 -13 8 -18 11 -10 2 7 -1 18 -6 23 -8 8 -9 4 -5 -13z"/>
<path d="M704 1110 c0 -140 2 -198 3 -128 2 71 2 185 0 255 -1 71 -3 13 -3
-127z"/>
<path d="M957 1340 c-3 -11 -1 -23 4 -26 5 -3 9 4 9 15 0 12 5 21 10 21 6 0
10 -11 10 -25 0 -14 5 -25 10 -25 6 0 10 11 10 24 0 13 6 26 12 28 7 3 -4 5
-24 6 -28 1 -37 -3 -41 -18z"/>
<path d="M830 1285 c0 -14 5 -25 10 -25 6 0 10 11 10 25 0 14 -4 25 -10 25 -5
0 -10 -11 -10 -25z"/>
<path d="M801 1264 c0 -11 3 -14 6 -6 3 7 2 16 -1 19 -3 4 -6 -2 -5 -13z"/>
<path d="M871 1264 c0 -11 3 -14 6 -6 3 7 2 16 -1 19 -3 4 -6 -2 -5 -13z"/>
<path d="M995 1269 c-11 -16 -1 -19 13 -3 7 8 8 14 3 14 -5 0 -13 -5 -16 -11z"/>
<path d="M888 1227 c-4 -20 -1 -25 14 -24 22 2 22 7 4 32 -12 17 -13 17 -18
-8z"/>
<path d="M816 1221 c-4 -7 -5 -15 -2 -18 9 -9 19 4 14 18 -4 11 -6 11 -12 0z"/>
<path d="M850 1210 c0 -5 5 -10 10 -10 6 0 10 5 10 10 0 6 -4 10 -10 10 -5 0
-10 -4 -10 -10z"/>
<path d="M950 1135 c0 -5 5 -17 10 -25 5 -8 10 -10 10 -5 0 6 -5 17 -10 25 -5
8 -10 11 -10 5z"/>
<path d="M572 1070 c-1 -16 2 -30 7 -30 5 0 9 14 9 30 -1 17 -4 30 -7 30 -4 0
-8 -13 -9 -30z"/>
<path d="M572 990 c0 -19 2 -27 5 -17 2 9 2 25 0 35 -3 9 -5 1 -5 -18z"/>
<path d="M576 923 c-2 -10 -7 -27 -10 -39 -4 -14 -2 -21 9 -21 11 0 14 11 13
39 -1 42 -4 47 -12 21z"/>
<path d="M670 826 c0 -19 5 -38 10 -41 6 -4 10 10 10 34 0 23 -4 41 -10 41 -5
0 -10 -15 -10 -34z"/>
<path d="M585 830 c-4 -6 -5 -63 -4 -128 1 -64 1 -121 -1 -127 -2 -5 1 -21 7
-35 8 -18 10 18 9 137 0 90 -2 163 -3 163 -1 0 -5 -5 -8 -10z"/>
<path d="M713 813 c3 -13 1 -23 -4 -23 -6 0 -5 -9 2 -21 7 -15 14 -18 21 -11
8 8 6 21 -6 44 -12 22 -16 25 -13 11z"/>
<path d="M1357 812 c3 -12 0 -29 -7 -36 -8 -11 -8 -20 -1 -35 16 -30 11 -132
-7 -151 -9 -8 -19 -15 -23 -15 -4 0 -11 -3 -15 -7 -4 -5 -2 -8 4 -8 7 0 12 -8
13 -17 0 -16 2 -15 9 2 7 15 9 8 8 -27 -1 -26 0 -49 3 -50 2 -2 133 -2 292 0
243 2 287 5 287 17 0 13 -40 15 -270 15 l-270 0 -2 123 c0 67 0 133 1 147 1
14 -5 34 -13 45 -15 20 -15 19 -9 -3z"/>
<path d="M786 781 c-4 -7 -5 -15 -2 -18 9 -9 19 4 14 18 -4 11 -6 11 -12 0z"/>
<path d="M746 744 c-3 -8 -10 -13 -16 -9 -12 7 -23 -35 -17 -66 3 -16 5 -12 6
14 1 32 4 37 25 37 23 0 41 22 29 34 -11 10 -21 7 -27 -10z"/>
<path d="M676 742 c-3 -6 -2 -13 4 -17 5 -3 11 -23 12 -43 1 -34 2 -34 5 -7 5
36 -10 84 -21 67z"/>
<path d="M1301 723 c-7 -8 -10 -17 -7 -20 9 -9 29 13 25 25 -2 6 -10 3 -18 -5z"/>
<path d="M780 705 c0 -8 4 -15 10 -15 5 0 12 -11 16 -25 5 -20 9 -23 20 -14
12 9 10 16 -7 40 -22 32 -39 38 -39 14z"/>
<path d="M862 708 c-6 -6 -12 -19 -12 -27 0 -13 2 -13 16 1 9 9 15 21 13 27
-3 9 -8 8 -17 -1z"/>
<path d="M1265 691 c-3 -5 -1 -12 5 -16 5 -3 10 1 10 9 0 18 -6 21 -15 7z"/>
<path d="M956 648 c-4 -23 -3 -45 3 -51 6 -6 9 10 9 42 1 28 -1 51 -2 51 -2 0
-6 -19 -10 -42z"/>
<path d="M850 640 c0 -11 5 -20 10 -20 6 0 10 9 10 20 0 11 -4 20 -10 20 -5 0
-10 -9 -10 -20z"/>
<path d="M1220 650 c0 -5 5 -10 10 -10 6 0 10 5 10 10 0 6 -4 10 -10 10 -5 0
-10 -4 -10 -10z"/>
<path d="M483 600 c0 -25 2 -35 4 -22 2 12 2 32 0 45 -2 12 -4 2 -4 -23z"/>
<path d="M510 600 c0 -22 5 -40 10 -40 6 0 10 18 10 40 0 22 -4 40 -10 40 -5
0 -10 -18 -10 -40z"/>
<path d="M553 600 c0 -25 2 -35 4 -22 2 12 2 32 0 45 -2 12 -4 2 -4 -23z"/>
<path d="M880 615 c0 -18 7 -26 25 -31 20 -5 24 -11 19 -28 -6 -20 -5 -20 12
-4 17 17 16 19 -19 52 -36 34 -37 34 -37 11z"/>
<path d="M1301 534 c0 -11 3 -14 6 -6 3 7 2 16 -1 19 -3 4 -6 -2 -5 -13z"/>
<path d="M691 523 c0 -12 -4 -30 -7 -40 -5 -14 -4 -15 5 -7 7 6 11 24 8 40 -3
21 -4 23 -6 7z"/>
<path d="M555 520 c-3 -5 -2 -10 4 -10 5 0 13 5 16 10 3 6 2 10 -4 10 -5 0
-13 -4 -16 -10z"/>
<path d="M1170 520 c-12 -8 -11 -10 8 -10 12 0 22 5 22 10 0 13 -11 13 -30 0z"/>
<path d="M1220 520 c0 -5 5 -10 11 -10 5 0 7 5 4 10 -3 6 -8 10 -11 10 -2 0
-4 -4 -4 -10z"/>
<path d="M1558 523 c67 -2 177 -2 245 0 67 1 12 3 -123 3 -135 0 -190 -2 -122
-3z"/>
<path d="M1063 513 c9 -2 23 -2 30 0 6 3 -1 5 -18 5 -16 0 -22 -2 -12 -5z"/>
<path d="M733 503 c9 -2 25 -2 35 0 9 3 1 5 -18 5 -19 0 -27 -2 -17 -5z"/>
<path d="M838 483 c7 -3 16 -2 19 1 4 3 -2 6 -13 5 -11 0 -14 -3 -6 -6z"/>
<path d="M1158 483 c7 -3 16 -2 19 1 4 3 -2 6 -13 5 -11 0 -14 -3 -6 -6z"/>
<path d="M1281 464 c0 -11 3 -14 6 -6 3 7 2 16 -1 19 -3 4 -6 -2 -5 -13z"/>
<path d="M712 440 c0 -14 2 -19 5 -12 2 6 2 18 0 25 -3 6 -5 1 -5 -13z"/>
<path d="M884 434 c9 -33 13 -40 22 -31 4 4 2 13 -4 20 -7 8 -9 16 -6 19 3 3
0 9 -7 13 -9 6 -10 1 -5 -21z"/>
<path d="M915 450 c-3 -5 1 -10 10 -10 9 0 13 5 10 10 -3 6 -8 10 -10 10 -2 0
-7 -4 -10 -10z"/>
<path d="M643 432 c-9 -6 -7 -11 7 -20 17 -11 20 -10 20 8 0 21 -7 25 -27 12z"/>
<path d="M1036 425 c-9 -26 -7 -32 5 -12 6 10 9 21 6 23 -2 3 -7 -2 -11 -11z"/>
<path d="M23 423 c15 -2 37 -2 50 0 12 2 0 4 -28 4 -27 0 -38 -2 -22 -4z"/>
<path d="M193 423 c26 -2 68 -2 95 0 26 2 4 3 -48 3 -52 0 -74 -1 -47 -3z"/>
<path d="M413 423 c15 -2 39 -2 55 0 15 2 2 4 -28 4 -30 0 -43 -2 -27 -4z"/>
<path d="M557 410 c-3 -12 0 -20 8 -20 8 0 11 8 8 20 -3 11 -7 20 -8 20 -1 0
-5 -9 -8 -20z"/>
<path d="M593 412 c1 -18 47 -49 47 -32 0 4 -7 10 -15 14 -8 3 -15 12 -15 21
0 8 -4 15 -9 15 -6 0 -9 -8 -8 -18z"/>
<path d="M1318 423 c7 -3 16 -2 19 1 4 3 -2 6 -13 5 -11 0 -14 -3 -6 -6z"/>
<path d="M960 404 c0 -12 3 -14 13 -6 6 5 21 12 32 15 13 3 9 5 -12 6 -24 1
-33 -3 -33 -15z"/>
<path d="M1442 405 c8 -8 478 -11 478 -3 0 5 -109 8 -242 8 -133 0 -239 -2
-236 -5z"/>
<path d="M11 387 c-6 -6 -11 -15 -11 -21 0 -6 5 -5 12 2 9 9 14 7 23 -5 7 -9
15 -12 18 -6 10 15 -29 43 -42 30z"/>
<path d="M445 390 c3 -5 8 -10 11 -10 2 0 4 5 4 10 0 6 -5 10 -11 10 -5 0 -7
-4 -4 -10z"/>
<path d="M500 389 c0 -5 5 -7 10 -4 6 3 10 8 10 11 0 2 -4 4 -10 4 -5 0 -10
-5 -10 -11z"/>
<path d="M1195 391 c-3 -5 4 -13 16 -16 28 -9 36 1 10 14 -12 7 -22 7 -26 2z"/>
<path d="M1258 393 c7 -3 16 -2 19 1 4 3 -2 6 -13 5 -11 0 -14 -3 -6 -6z"/>
<path d="M320 380 c0 -5 5 -10 10 -10 6 0 10 5 10 10 0 6 -4 10 -10 10 -5 0
-10 -4 -10 -10z"/>
<path d="M1014 365 c0 -14 4 -25 9 -25 10 0 9 38 -2 44 -5 3 -8 -5 -7 -19z"/>
<path d="M1128 383 c7 -3 16 -2 19 1 4 3 -2 6 -13 5 -11 0 -14 -3 -6 -6z"/>
<path d="M722 360 c0 -14 2 -19 5 -12 2 6 2 18 0 25 -3 6 -5 1 -5 -13z"/>
<path d="M970 360 c0 -11 5 -20 10 -20 6 0 10 9 10 20 0 11 -4 20 -10 20 -5 0
-10 -9 -10 -20z"/>
<path d="M70 360 c0 -5 5 -10 10 -10 6 0 10 5 10 10 0 6 -4 10 -10 10 -5 0
-10 -4 -10 -10z"/>
<path d="M120 360 c0 -5 5 -10 10 -10 6 0 10 5 10 10 0 6 -4 10 -10 10 -5 0
-10 -4 -10 -10z"/>
<path d="M218 364 c-5 -4 -8 -19 -8 -33 0 -18 3 -22 11 -14 6 6 9 21 7 33 -1
12 -6 18 -10 14z"/>
<path d="M350 362 c0 -5 11 -12 25 -15 16 -3 24 0 22 7 -4 14 -47 21 -47 8z"/>
<path d="M420 359 c0 -5 5 -7 10 -4 6 3 10 8 10 11 0 2 -4 4 -10 4 -5 0 -10
-5 -10 -11z"/>
<path d="M470 360 c0 -5 5 -10 10 -10 6 0 10 5 10 10 0 6 -4 10 -10 10 -5 0
-10 -4 -10 -10z"/>
<path d="M525 360 c3 -5 8 -10 11 -10 2 0 4 5 4 10 0 6 -5 10 -11 10 -5 0 -7
-4 -4 -10z"/>
<path d="M560 360 c0 -5 5 -10 10 -10 6 0 10 5 10 10 0 6 -4 10 -10 10 -5 0
-10 -4 -10 -10z"/>
<path d="M1160 360 c0 -5 4 -10 9 -10 6 0 13 5 16 10 3 6 -1 10 -9 10 -9 0
-16 -4 -16 -10z"/>
<path d="M1260 360 c-13 -8 -12 -10 3 -10 9 0 17 5 17 10 0 12 -1 12 -20 0z"/>
<path d="M170 340 c0 -11 5 -20 10 -20 6 0 10 9 10 20 0 11 -4 20 -10 20 -5 0
-10 -9 -10 -20z"/>
<path d="M590 350 c0 -5 12 -10 28 -9 24 0 25 1 7 9 -27 12 -35 12 -35 0z"/>
<path d="M1840 349 c0 -5 19 -9 42 -9 49 0 47 5 -4 13 -21 3 -38 2 -38 -4z"/>
<path d="M8 324 c5 -29 17 -32 19 -5 1 11 -4 22 -11 24 -9 4 -11 -2 -8 -19z"/>
<path d="M1128 343 c7 -3 16 -2 19 1 4 3 -2 6 -13 5 -11 0 -14 -3 -6 -6z"/>
<path d="M1198 343 c7 -3 16 -2 19 1 4 3 -2 6 -13 5 -11 0 -14 -3 -6 -6z"/>
<path d="M395 320 c-3 -5 -1 -10 4 -10 6 0 11 5 11 10 0 6 -2 10 -4 10 -3 0
-8 -4 -11 -10z"/>
<path d="M961 318 c-1 -10 6 -18 14 -18 8 0 15 5 15 11 0 5 -4 8 -9 5 -5 -4
-12 0 -14 6 -3 8 -6 6 -6 -4z"/>
<path d="M137 309 c7 -7 15 -10 18 -7 3 3 -2 9 -12 12 -14 6 -15 5 -6 -5z"/>
<path d="M640 310 c0 -6 -34 -10 -89 -10 l-89 0 -1 -94 -2 -95 97 -3 c53 -2
101 0 108 4 8 6 7 8 -2 8 -7 0 -10 5 -7 10 4 6 -25 10 -79 10 l-86 0 0 29 c0
31 14 49 25 31 3 -5 35 -10 69 -10 55 0 64 3 69 20 5 19 0 20 -79 20 -83 0
-84 0 -84 25 0 25 1 25 84 25 88 0 104 6 80 28 -8 7 -14 8 -14 2z"/>
<path d="M687 305 c-8 -20 -4 -29 11 -24 5 2 6 13 2 23 -6 19 -7 19 -13 1z"/>
<path d="M753 304 c-9 -8 -13 -45 -13 -104 l0 -90 85 0 c47 0 88 -1 92 -2 4
-2 9 5 11 15 3 15 -6 17 -75 17 l-78 0 3 74 c4 82 -4 113 -25 90z"/>
<path d="M1105 310 c-3 -5 -28 -10 -55 -10 l-48 0 0 -90 c0 -103 -2 -101 101
-102 95 -1 127 9 127 38 0 14 5 34 10 45 10 18 7 19 -60 19 -64 0 -70 -2 -70
-21 0 -13 4 -18 12 -13 18 12 82 12 90 0 16 -24 -15 -36 -97 -36 -94 0 -95 1
-95 80 0 57 5 60 103 60 62 0 74 -3 85 -20 14 -24 32 -19 27 8 -2 9 -4 20 -4
25 -1 4 -21 7 -45 7 -25 0 -48 5 -51 10 -3 6 -10 10 -15 10 -5 0 -12 -4 -15
-10z"/>
<path d="M1364 308 c4 -20 26 -21 26 -1 0 14 -2 15 -9 4 -6 -9 -10 -10 -14 -2
-4 8 -5 8 -3 -1z"/>
<path d="M1500 311 c0 -5 5 -13 10 -16 6 -3 10 -2 10 4 0 5 -4 13 -10 16 -5 3
-10 2 -10 -4z"/>
<path d="M1890 310 c-13 -8 -12 -10 3 -10 9 0 17 5 17 10 0 12 -1 12 -20 0z"/>
<path d="M50 284 c0 -8 5 -12 10 -9 6 3 10 -1 10 -10 0 -10 -5 -13 -12 -9 -7
5 -8 3 -3 -7 11 -17 17 -101 7 -95 -5 3 -9 -5 -9 -17 -2 -20 12 -36 29 -37 4
0 9 42 10 93 3 86 4 90 16 62 7 -16 13 -31 12 -33 -1 -2 8 -12 19 -21 12 -10
21 -21 21 -25 0 -4 5 -12 10 -19 6 -7 19 -23 29 -37 l20 -25 10 25 c5 14 10
21 11 15 0 -9 19 19 36 55 4 8 16 22 26 31 10 9 18 24 18 33 0 9 5 16 11 16 8
0 10 -24 7 -79 -4 -71 -3 -80 14 -84 17 -5 18 3 18 94 l0 99 -31 0 c-16 0 -28
-4 -25 -8 3 -5 -4 -15 -15 -22 -10 -8 -19 -20 -19 -26 0 -7 -4 -14 -8 -16 -4
-1 -18 -20 -30 -40 -22 -35 -52 -43 -52 -13 0 6 -11 25 -25 41 -13 15 -30 41
-36 56 -9 23 -18 28 -45 28 -24 0 -34 -5 -34 -16z"/>
<path d="M230 289 c0 -5 5 -7 10 -4 6 3 10 8 10 11 0 2 -4 4 -10 4 -5 0 -10
-5 -10 -11z"/>
<path d="M392 270 c0 -16 3 -32 7 -35 10 -5 9 50 0 59 -3 4 -6 -7 -7 -24z"/>
<path d="M1410 279 c0 -11 -4 -17 -10 -14 -5 3 -10 -3 -10 -14 0 -12 -3 -21
-7 -21 -5 0 -17 -20 -28 -45 -11 -25 -23 -45 -27 -45 -5 0 -8 -9 -8 -20 0 -11
3 -20 6 -20 11 0 34 29 34 44 0 12 14 15 78 14 76 -2 80 -3 95 -31 9 -15 21
-25 27 -22 13 8 13 35 0 35 -5 0 -10 7 -10 15 0 8 -4 15 -9 15 -8 0 -24 37
-22 53 1 4 -3 7 -9 7 -5 0 -10 7 -10 15 0 8 -4 15 -10 15 -5 0 -10 9 -10 20 0
16 -7 20 -35 20 -29 0 -35 -4 -35 -21z m50 -25 c0 -14 4 -23 10 -19 6 3 10 -1
10 -9 0 -9 5 -16 10 -16 6 0 10 -7 10 -15 0 -12 -13 -15 -60 -15 -49 0 -58 3
-54 15 4 8 9 15 13 15 4 0 13 16 21 35 16 41 40 47 40 9z"/>
<path d="M1650 206 c0 -90 9 -122 26 -94 4 7 7 27 6 45 l-3 33 75 0 c65 0 77
-3 86 -20 6 -11 10 -26 9 -33 -3 -23 1 -37 11 -37 14 0 12 74 -2 89 -10 11
-10 14 0 18 7 3 12 23 12 49 l0 44 -110 0 -110 0 0 -94z m197 58 c13 -34 -11
-49 -82 -52 -86 -4 -93 -1 -87 37 l4 31 79 0 c65 0 81 -3 86 -16z"/>
<path d="M1710 256 c0 -2 7 -6 15 -10 8 -3 15 -1 15 4 0 6 -7 10 -15 10 -8 0
-15 -2 -15 -4z"/>
<path d="M420 280 c0 -5 5 -10 11 -10 5 0 7 5 4 10 -3 6 -8 10 -11 10 -2 0 -4
-4 -4 -10z"/>
<path d="M205 270 c-3 -5 -1 -10 4 -10 6 0 11 5 11 10 0 6 -2 10 -4 10 -3 0
-8 -4 -11 -10z"/>
<path d="M17 253 c-9 -16 -6 -83 4 -83 5 0 9 20 8 45 -3 46 -4 51 -12 38z"/>
<path d="M538 253 c7 -3 16 -2 19 1 4 3 -2 6 -13 5 -11 0 -14 -3 -6 -6z"/>
<path d="M598 253 c7 -3 16 -2 19 1 4 3 -2 6 -13 5 -11 0 -14 -3 -6 -6z"/>
<path d="M677 253 c-9 -9 -9 -23 1 -22 19 3 25 -2 12 -11 -13 -8 -12 -10 3
-10 9 0 17 3 17 8 -1 14 -27 42 -33 35z"/>
<path d="M705 250 c3 -5 8 -10 11 -10 2 0 4 5 4 10 0 6 -5 10 -11 10 -5 0 -7
-4 -4 -10z"/>
<path d="M1090 249 c0 -5 5 -7 10 -4 6 4 19 1 28 -7 15 -12 16 -11 3 5 -15 19
-41 23 -41 6z"/>
<path d="M1150 250 c0 -5 5 -10 11 -10 5 0 7 5 4 10 -3 6 -8 10 -11 10 -2 0
-4 -4 -4 -10z"/>
<path d="M1265 251 c-3 -5 -1 -12 5 -16 6 -4 8 -10 5 -15 -3 -5 -1 -11 5 -15
5 -3 10 3 10 14 0 12 -5 21 -11 21 -5 0 -7 5 -4 10 3 6 4 10 1 10 -3 0 -7 -4
-11 -9z"/>
<path d="M1596 242 c-3 -5 1 -9 9 -9 8 0 12 4 9 9 -3 4 -7 8 -9 8 -2 0 -6 -4
-9 -8z"/>
<path d="M1320 229 c0 -15 18 -19 23 -6 3 8 -1 14 -9 14 -8 0 -14 -4 -14 -8z"/>
<path d="M860 220 c0 -5 -11 -10 -25 -10 -14 0 -25 -4 -25 -10 0 -15 39 -12
56 4 16 17 18 26 4 26 -5 0 -10 -4 -10 -10z"/>
<path d="M900 200 c0 -18 4 -29 10 -25 6 3 10 15 10 25 0 10 -4 22 -10 25 -6
4 -10 -7 -10 -25z"/>
<path d="M1550 220 c0 -5 4 -10 9 -10 6 0 13 5 16 10 3 6 -1 10 -9 10 -9 0
-16 -4 -16 -10z"/>
<path d="M950 200 c0 -11 4 -20 9 -20 5 0 7 9 4 20 -3 11 -7 20 -9 20 -2 0 -4
-9 -4 -20z"/>
<path d="M1586 199 c-9 -12 -15 -23 -12 -27 3 -3 6 -2 6 2 0 5 11 1 25 -8 21
-14 24 -14 19 -1 -4 8 -13 15 -21 15 -13 0 -13 3 -3 15 7 9 11 17 8 20 -2 2
-12 -5 -22 -16z"/>
<path d="M706 178 c4 -6 -1 -17 -11 -25 -18 -12 -18 -13 3 -13 17 0 22 6 22
25 0 14 -5 25 -11 25 -5 0 -7 -5 -3 -12z"/>
<path d="M1290 175 c0 -7 -8 -19 -17 -24 -16 -9 -16 -10 5 -11 17 0 22 6 22
25 0 14 -2 25 -5 25 -3 0 -5 -7 -5 -15z"/>
<path d="M1070 170 c0 -5 5 -10 10 -10 6 0 10 5 10 10 0 6 -4 10 -10 10 -5 0
-10 -4 -10 -10z"/>
<path d="M301 154 c0 -11 3 -14 6 -6 3 7 2 16 -1 19 -3 4 -6 -2 -5 -13z"/>
<path d="M808 163 c7 -3 16 -2 19 1 4 3 -2 6 -13 5 -11 0 -14 -3 -6 -6z"/>
<path d="M22 135 c0 -16 2 -22 5 -12 2 9 2 23 0 30 -3 6 -5 -1 -5 -18z"/>
<path d="M1731 143 c0 -13 -5 -23 -11 -23 -5 0 -10 -5 -10 -12 0 -8 6 -7 16 4
9 8 14 24 11 34 -4 16 -5 15 -6 -3z"/>
<path d="M1790 150 c-13 -8 -12 -10 3 -10 9 0 17 5 17 10 0 12 -1 12 -20 0z"/>
<path d="M1900 150 c0 -5 5 -10 11 -10 5 0 7 5 4 10 -3 6 -8 10 -11 10 -2 0
-4 -4 -4 -10z"/>
<path d="M110 139 c0 -5 5 -7 10 -4 6 3 10 8 10 11 0 2 -4 4 -10 4 -5 0 -10
-5 -10 -11z"/>
<path d="M431 134 c0 -11 3 -14 6 -6 3 7 2 16 -1 19 -3 4 -6 -2 -5 -13z"/>
<path d="M950 141 c0 -13 29 -35 37 -27 3 3 1 6 -5 6 -7 0 -12 7 -12 15 0 8
-4 15 -10 15 -5 0 -10 -4 -10 -9z"/>
<path d="M141 133 c-2 -20 11 -43 20 -37 5 3 9 10 9 15 0 6 -4 8 -9 4 -5 -3
-12 3 -14 12 -3 10 -5 13 -6 6z"/>
<path d="M275 130 c-3 -5 -1 -10 4 -10 6 0 11 5 11 10 0 6 -2 10 -4 10 -3 0
-8 -4 -11 -10z"/>
<path d="M395 130 c3 -5 10 -10 16 -10 5 0 9 5 9 10 0 6 -7 10 -16 10 -8 0
-12 -4 -9 -10z"/>
<path d="M1260 115 c0 -8 -6 -15 -14 -15 -8 0 -17 -4 -20 -8 -2 -4 4 -8 15 -8
10 0 19 4 19 8 0 4 7 8 15 8 9 0 12 6 9 15 -4 8 -10 15 -15 15 -5 0 -9 -7 -9
-15z"/>
<path d="M110 112 c0 -5 7 -15 15 -22 19 -16 19 -3 0 16 -8 9 -15 11 -15 6z"/>
<path d="M1408 102 c-5 -18 -2 -22 15 -22 13 0 17 3 11 8 -6 4 -13 14 -16 22
-3 10 -6 8 -10 -8z"/>
<path d="M1610 115 c0 -5 5 -17 10 -25 5 -8 10 -10 10 -5 0 6 -5 17 -10 25 -5
8 -10 11 -10 5z"/>
<path d="M1747 113 c-4 -3 -7 -13 -7 -22 1 -13 3 -13 11 2 11 19 8 33 -4 20z"/>
<path d="M1772 100 c0 -14 2 -19 5 -12 2 6 2 18 0 25 -3 6 -5 1 -5 -13z"/>
<path d="M1790 111 c0 -6 5 -13 10 -16 6 -3 10 1 10 9 0 9 -4 16 -10 16 -5 0
-10 -4 -10 -9z"/>
<path d="M1892 100 c0 -14 2 -19 5 -12 2 6 2 18 0 25 -3 6 -5 1 -5 -13z"/>
<path d="M265 101 c-3 -5 -1 -12 5 -16 5 -3 10 1 10 9 0 18 -6 21 -15 7z"/>
<path d="M301 94 c0 -11 3 -14 6 -6 3 7 2 16 -1 19 -3 4 -6 -2 -5 -13z"/>
<path d="M692 101 c-11 -7 -11 -9 1 -14 9 -3 18 1 21 9 6 16 -2 18 -22 5z"/>
<path d="M415 90 c4 -6 11 -8 16 -5 14 9 11 15 -7 15 -8 0 -12 -5 -9 -10z"/>
<path d="M568 73 c6 -2 18 -2 25 0 6 3 1 5 -13 5 -14 0 -19 -2 -12 -5z"/>
</g>
</svg>
