<?xml version="1.0" standalone="no"?>
<!DOCTYPE svg PUBLIC "-//W3C//DTD SVG 20010904//EN"
 "http://www.w3.org/TR/2001/REC-SVG-20010904/DTD/svg10.dtd">
<svg version="1.0" xmlns="http://www.w3.org/2000/svg"
 width="120.000000pt" height="120.000000pt" viewBox="0 0 120.000000 120.000000"
 preserveAspectRatio="xMidYMid meet">
<metadata>
Created by potrace 1.16, written by Peter Selinger 2001-2019
</metadata>
<g transform="translate(0.000000,120.000000) scale(0.100000,-0.100000)"
fill="#000000" stroke="none">
<path d="M223 1187 c-18 -6 -33 -17 -33 -24 0 -7 -7 -13 -16 -13 -20 0 -152
-134 -165 -167 -5 -14 -9 -31 -9 -40 0 -13 3 -13 15 -3 8 7 15 18 15 25 0 23
145 165 169 165 17 0 22 4 17 16 -5 13 -2 15 14 11 11 -3 20 -1 20 4 0 5 12 7
28 4 23 -5 24 -4 9 5 -9 6 -15 15 -12 21 7 11 -9 10 -52 -4z"/>
<path d="M305 1191 c-3 -6 6 -8 22 -5 37 7 42 14 10 14 -14 0 -28 -4 -32 -9z"/>
<path d="M853 1189 c9 -5 21 -8 26 -5 5 3 12 -1 15 -10 4 -9 9 -15 11 -12 15
14 -10 38 -39 38 -26 -1 -28 -2 -13 -11z"/>
<path d="M943 1180 c14 -11 30 -20 37 -20 16 0 190 -178 190 -194 0 -8 7 -19
15 -26 12 -10 15 -10 15 3 0 35 -22 68 -97 144 -77 79 -128 113 -166 113 -18
0 -17 -2 6 -20z"/>
<path d="M920 1160 c0 -5 5 -10 11 -10 5 0 7 5 4 10 -3 6 -8 10 -11 10 -2 0
-4 -4 -4 -10z"/>
<path d="M972 1124 c10 -10 20 -15 24 -12 3 4 -5 12 -18 18 -22 12 -22 12 -6
-6z"/>
<path d="M165 1089 c-11 -17 1 -21 15 -4 8 9 8 15 2 15 -6 0 -14 -5 -17 -11z"/>
<path d="M1020 1085 c7 -9 15 -13 17 -11 7 7 -7 26 -19 26 -6 0 -6 -6 2 -15z"/>
<path d="M108 1023 c-23 -28 -30 -43 -19 -43 6 0 11 5 11 12 0 6 7 20 17 30 9
10 14 18 11 18 -3 0 -12 -8 -20 -17z"/>
<path d="M1090 1013 c14 -15 29 -32 34 -38 5 -5 1 4 -10 22 -10 18 -25 35 -33
38 -9 4 -6 -5 9 -22z"/>
<path d="M733 1000 c-10 -11 -26 -20 -36 -20 -10 0 -21 -9 -24 -20 -3 -11 -9
-17 -14 -15 -4 3 -13 -5 -20 -17 -7 -12 -18 -29 -26 -36 -8 -8 -17 -27 -20
-43 -3 -15 -11 -30 -19 -33 -8 -3 -14 -18 -14 -33 0 -60 -34 -75 -159 -73
-142 3 -146 3 -131 -15 10 -13 9 -15 -8 -15 -12 0 -25 -7 -29 -15 -8 -13 -13
-13 -45 4 -20 10 -44 25 -52 34 -12 11 -34 16 -76 15 l-60 -1 0 -33 c0 -31 2
-34 33 -35 96 -2 122 -9 150 -42 37 -41 47 -68 47 -123 0 -31 5 -46 16 -51 8
-3 13 -12 10 -20 -6 -16 10 -53 28 -65 6 -4 33 -8 60 -8 43 0 53 4 78 32 15
17 28 42 28 55 0 13 4 23 10 23 12 0 61 95 53 103 -3 4 -52 4 -109 1 -134 -7
-144 -4 -144 46 0 21 4 41 9 44 12 8 51 9 179 4 82 -3 112 -1 112 7 0 7 9 24
20 38 11 14 20 33 20 42 0 9 9 28 20 42 11 14 20 36 20 48 0 13 7 25 15 29 8
3 15 12 15 20 0 19 46 66 64 66 7 0 23 9 36 20 19 16 37 20 97 20 55 0 75 -4
79 -15 3 -8 15 -17 27 -21 31 -10 77 -59 77 -83 0 -12 9 -30 19 -40 15 -15 19
-34 20 -81 0 -51 4 -64 23 -80 27 -23 29 -23 62 -10 20 7 26 17 26 39 0 26 -4
30 -32 33 -33 3 -33 3 -36 63 -2 42 -9 66 -22 80 -19 20 -20 23 -20 50 0 8 -7
15 -15 15 -8 0 -16 5 -16 10 -1 6 -2 16 -3 22 0 7 -10 14 -21 17 -11 2 -31 12
-44 22 -20 16 -41 19 -132 19 -97 0 -111 -2 -126 -20z m-325 -535 c3 -30 -9
-43 -56 -53 -42 -10 -42 -10 -50 22 -14 49 -6 57 52 54 42 -2 51 -6 54 -23z"/>
<path d="M47 943 c-4 -3 -7 -11 -7 -17 0 -6 5 -5 12 2 6 6 9 14 7 17 -3 3 -9
2 -12 -2z"/>
<path d="M1140 942 c0 -12 19 -26 26 -19 2 2 -2 10 -11 17 -9 8 -15 8 -15 2z"/>
<path d="M5 879 c-8 -34 1 -53 10 -23 4 10 11 27 16 37 7 12 5 17 -5 17 -8 0
-17 -14 -21 -31z"/>
<path d="M1170 901 c0 -6 5 -11 11 -11 5 0 8 -3 6 -7 -3 -5 -1 -17 4 -28 7
-16 8 -12 6 14 -1 19 -8 36 -14 39 -7 2 -13 -1 -13 -7z"/>
<path d="M778 828 c-16 -17 -28 -41 -28 -54 0 -13 -6 -27 -14 -31 -8 -4 -21
-26 -30 -47 -22 -54 -11 -64 54 -47 28 7 62 10 76 7 13 -4 33 -2 44 4 11 6 20
7 20 2 0 -6 9 -12 20 -15 16 -4 20 -14 20 -46 0 -61 -18 -64 -240 -47 l-55 5
-23 -47 c-12 -26 -22 -55 -22 -65 0 -10 -7 -20 -15 -23 -8 -3 -17 -22 -21 -41
-4 -19 -13 -37 -20 -40 -8 -3 -14 -12 -14 -20 0 -19 -45 -63 -64 -63 -7 0 -21
-9 -31 -20 -15 -17 -31 -20 -97 -20 -66 0 -81 3 -95 20 -10 11 -21 20 -26 20
-20 0 -67 60 -67 85 0 19 -6 29 -20 32 -11 3 -20 10 -19 17 1 6 1 39 0 74 -1
46 -5 62 -15 62 -8 0 -16 7 -20 15 -7 19 -32 19 -40 0 -3 -8 -12 -15 -21 -15
-9 0 -15 -9 -15 -24 0 -21 6 -25 33 -28 l32 -3 3 -67 c2 -55 6 -68 19 -68 9 0
14 -3 11 -6 -13 -12 60 -114 81 -114 6 0 11 -6 11 -14 0 -33 271 -35 295 -3 7
9 15 17 19 17 9 0 66 56 66 65 0 4 9 18 20 32 11 14 20 34 20 45 0 11 4 17 9
13 6 -3 13 10 17 29 3 20 15 46 26 58 18 21 30 23 136 26 106 4 119 6 149 29
32 25 34 25 67 9 19 -9 36 -20 38 -25 2 -4 36 -11 76 -15 l72 -7 0 31 c0 18
-4 29 -10 25 -5 -3 -18 -2 -27 3 -10 6 -39 13 -65 16 -26 4 -53 9 -60 12 -28
11 -60 80 -66 137 -3 36 -10 61 -18 64 -8 3 -14 18 -14 33 0 44 -24 60 -83 59
-45 -1 -56 -5 -79 -31z m123 -76 c8 -39 5 -42 -42 -42 -73 0 -89 23 -44 65 36
32 77 22 86 -23z"/>
<path d="M17 373 c-5 -18 -6 -37 -3 -42 4 -5 0 -11 -6 -14 -7 -2 -10 -8 -5
-12 15 -17 28 13 25 56 l-3 44 -8 -32z"/>
<path d="M1166 365 c-3 -10 -3 -22 3 -28 12 -12 20 4 11 27 -6 19 -7 19 -14 1z"/>
<path d="M1175 310 c3 -5 10 -10 16 -10 5 0 9 5 9 10 0 6 -7 10 -16 10 -8 0
-12 -4 -9 -10z"/>
<path d="M6 253 c9 -50 21 -73 39 -73 8 0 15 -9 15 -20 0 -11 7 -20 15 -20 8
0 15 -5 15 -11 0 -16 48 -59 66 -59 7 0 14 -6 14 -13 0 -13 76 -57 99 -57 10
0 7 8 -9 25 -13 14 -28 25 -34 25 -6 0 -17 9 -24 20 -7 11 -22 20 -35 21 -12
0 -16 3 -9 6 21 8 13 22 -15 25 -23 2 -28 8 -25 26 2 20 -1 22 -19 17 -14 -5
-19 -3 -15 3 9 16 -4 41 -19 36 -7 -3 -16 -1 -20 5 -3 6 1 11 9 11 9 0 16 5
16 11 0 6 -9 9 -20 6 -17 -4 -20 -2 -15 13 4 13 -1 22 -15 30 -20 11 -21 10
-14 -27z"/>
<path d="M1169 270 c-13 -10 -18 -19 -11 -20 6 0 12 -5 12 -11 0 -5 -4 -8 -9
-4 -5 3 -12 1 -16 -5 -3 -5 -1 -10 5 -10 6 0 8 -5 5 -11 -4 -6 -13 -8 -20 -5
-15 5 -28 -20 -19 -36 4 -6 -1 -8 -15 -3 -18 5 -21 3 -19 -17 3 -18 -2 -24
-24 -26 -29 -3 -37 -17 -15 -25 6 -3 3 -6 -9 -6 -11 -1 -30 -12 -42 -26 -12
-14 -31 -25 -42 -25 -11 0 -23 -7 -27 -15 -8 -22 2 -28 24 -17 10 6 33 16 51
22 17 7 32 19 32 26 0 8 7 14 14 14 18 0 66 43 66 59 0 6 7 11 15 11 8 0 15 9
15 20 0 11 7 20 15 20 18 0 30 23 39 73 8 43 6 44 -25 17z"/>
<path d="M141 174 c0 -11 3 -14 6 -6 3 7 2 16 -1 19 -3 4 -6 -2 -5 -13z"/>
<path d="M1046 177 c3 -10 9 -15 12 -12 3 3 0 11 -7 18 -10 9 -11 8 -5 -6z"/>
<path d="M275 30 c-3 -5 -1 -10 4 -10 6 0 11 5 11 10 0 6 -2 10 -4 10 -3 0 -8
-4 -11 -10z"/>
<path d="M347 34 c-4 -4 -7 -14 -7 -23 0 -11 3 -12 11 -4 6 6 10 16 7 23 -2 6
-7 8 -11 4z"/>
<path d="M820 30 c0 -5 5 -10 11 -10 5 0 7 5 4 10 -3 6 -8 10 -11 10 -2 0 -4
-4 -4 -10z"/>
<path d="M300 10 c0 -5 4 -10 9 -10 6 0 13 5 16 10 3 6 -1 10 -9 10 -9 0 -16
-4 -16 -10z"/>
<path d="M870 10 c-12 -8 -11 -10 8 -10 12 0 22 5 22 10 0 13 -11 13 -30 0z"/>
</g>
</svg>
