<?xml version="1.0" standalone="no"?>
<!DOCTYPE svg PUBLIC "-//W3C//DTD SVG 20010904//EN"
 "http://www.w3.org/TR/2001/REC-SVG-20010904/DTD/svg10.dtd">
<svg version="1.0" xmlns="http://www.w3.org/2000/svg"
 width="256.000000pt" height="256.000000pt" viewBox="0 0 256.000000 256.000000"
 preserveAspectRatio="xMidYMid meet">
<metadata>
Created by potrace 1.16, written by Peter Selinger 2001-2019
</metadata>
<g transform="translate(0.000000,256.000000) scale(0.100000,-0.100000)"
fill="#000000" stroke="none">
<path d="M1254 2195 c4 -12 0 -14 -19 -9 -15 4 -25 2 -25 -4 0 -6 10 -12 23
-14 18 -2 23 -10 25 -45 2 -23 -4 -65 -12 -94 -25 -82 -23 -85 36 -92 28 -4
54 -4 56 -2 6 5 -27 126 -38 140 -4 6 -10 27 -13 48 -5 35 -5 37 19 31 32 -8
31 4 -1 16 -14 5 -25 16 -25 25 0 8 -7 15 -16 15 -10 0 -14 -5 -10 -15z m50
-207 c6 -26 4 -28 -23 -28 -29 0 -29 0 -19 38 18 65 24 64 42 -10z"/>
<path d="M874 2150 c-218 -39 -420 -109 -569 -198 -104 -62 -223 -179 -262
-257 -40 -79 -48 -115 -28 -115 8 0 15 7 15 15 0 31 60 134 111 189 50 55 131
117 214 166 49 28 40 19 -47 -49 -79 -61 -158 -163 -187 -239 -42 -108 -37
-251 11 -347 11 -22 36 -62 55 -90 l35 -50 -61 60 c-58 56 -131 173 -131 209
0 9 -7 16 -15 16 -20 0 -12 -36 28 -114 56 -114 201 -238 370 -316 134 -62
141 -61 70 11 -198 205 -243 446 -127 677 103 203 353 372 647 436 l62 14 -45
0 c-25 0 -90 -8 -146 -18z m-234 -108 c-118 -66 -252 -199 -303 -302 -87 -174
-88 -376 -2 -544 l35 -70 -37 44 c-52 60 -60 71 -92 137 -72 145 -63 278 26
426 38 62 144 175 193 204 30 18 43 63 18 63 -23 1 25 23 122 56 130 45 140
42 40 -14z m-288 -161 c-111 -111 -169 -222 -179 -348 -11 -123 37 -262 124
-364 67 -78 50 -72 -30 11 -186 194 -204 387 -52 588 37 49 185 182 204 182 1
0 -28 -31 -67 -69z m19 -788 c13 -16 12 -17 -3 -4 -10 7 -18 15 -18 17 0 8 8
3 21 -13z m49 -28 c11 -13 10 -14 -4 -9 -9 3 -16 10 -16 15 0 13 6 11 20 -6z"/>
<path d="M1557 2154 c88 -19 204 -59 276 -95 l61 -31 -54 -18 c-75 -23 -199
-74 -268 -109 l-57 -29 -94 24 c-51 13 -152 29 -225 36 -127 11 -132 11 -174
-11 -42 -21 -42 -22 -36 -64 4 -23 8 -43 10 -45 1 -2 13 4 27 13 25 16 25 15
31 -12 14 -71 27 -226 19 -233 -4 -4 -84 -40 -178 -80 -181 -77 -209 -92 -154
-85 19 3 111 12 204 20 94 9 171 19 173 23 1 4 17 36 35 72 l32 65 250 126
c333 167 484 215 658 208 152 -7 158 -37 68 -314 l-59 -180 -28 5 c-60 10
-167 1 -391 -34 -127 -20 -239 -36 -247 -36 -13 0 -16 15 -16 85 0 52 -4 85
-10 85 -6 0 -38 -8 -71 -17 l-60 -18 5 -77 c5 -74 5 -78 -17 -83 -12 -2 -92
-19 -177 -36 -204 -41 -512 -118 -525 -131 -7 -7 -2 -9 15 -5 260 59 835 131
1243 157 133 8 248 6 247 -4 0 0 -16 -57 -35 -125 -19 -69 -32 -127 -30 -129
3 -3 7 1 9 9 41 118 121 315 170 416 l63 128 13 -74 c31 -182 -42 -377 -194
-520 -51 -47 -54 -53 -29 -47 106 27 305 150 396 245 77 81 150 231 112 231
-8 0 -15 -7 -15 -16 0 -36 -73 -153 -131 -209 l-61 -60 35 50 c50 72 73 122
87 190 23 113 -3 243 -71 341 -24 35 -36 44 -59 44 -46 0 -49 -36 -12 -113 64
-131 65 -252 2 -379 -33 -67 -41 -78 -93 -138 l-37 -44 35 70 c59 115 77 246
54 381 -10 55 -14 63 -33 63 -17 0 -29 -15 -56 -70 -18 -38 -35 -68 -37 -67
-1 2 17 64 42 137 35 105 45 148 45 201 0 95 -12 103 -148 107 -198 7 -334
-35 -677 -207 l-250 -126 -32 -65 c-18 -36 -34 -68 -35 -72 -3 -8 -212 -32
-229 -26 -7 2 41 26 106 53 65 28 120 56 123 64 5 13 -15 226 -25 269 -5 20
-11 23 -34 20 -42 -6 -38 24 6 45 50 24 55 22 55 -22 l0 -38 103 -6 c56 -4
141 -10 190 -13 77 -6 87 -5 87 10 0 10 9 16 25 16 14 0 53 14 87 31 76 38
281 119 302 119 10 0 16 9 16 25 0 18 -10 30 -37 44 -51 27 -31 26 58 -3 54
-17 104 -25 189 -28 93 -4 123 -9 157 -26 49 -25 73 -65 73 -118 0 -31 9 -46
60 -101 57 -61 120 -165 120 -198 0 -8 7 -15 15 -15 39 0 -33 146 -115 233
-51 55 -60 70 -60 101 0 99 -60 136 -240 147 -96 5 -150 14 -230 38 -115 34
-311 72 -369 70 -30 -1 -26 -3 26 -15z m-397 -274 c0 -13 -7 -20 -20 -20 -13
0 -20 7 -20 20 0 13 7 20 20 20 13 0 20 -7 20 -20z m60 0 c0 -11 -7 -20 -15
-20 -8 0 -15 2 -15 4 0 2 -3 11 -6 20 -4 12 0 16 15 16 14 0 21 -6 21 -20z
m60 6 c0 -2 3 -11 6 -19 4 -12 0 -14 -15 -10 -24 6 -29 33 -6 33 8 0 15 -2 15
-4z m70 -22 c0 -8 -9 -14 -20 -14 -13 0 -20 7 -20 19 0 14 5 18 20 14 11 -3
20 -12 20 -19z m60 -10 c0 -8 -9 -14 -20 -14 -13 0 -20 7 -20 19 0 14 5 18 20
14 11 -3 20 -12 20 -19z m50 -4 c0 -5 -4 -10 -9 -10 -6 0 -13 5 -16 10 -3 6 1
10 9 10 9 0 16 -4 16 -10z m909 -114 c125 -181 99 -374 -76 -556 -80 -83 -97
-89 -30 -11 135 158 163 368 74 541 -23 43 -25 70 -7 70 5 0 23 -20 39 -44z
m-970 -258 c-1 -18 -3 -25 -6 -15 -3 10 -14 17 -29 17 -19 0 -24 -5 -25 -27 0
-17 -3 -22 -6 -13 -4 8 -13 20 -22 27 -19 14 -16 16 29 30 56 17 60 16 59 -19z
m-10 -102 c-2 -2 -20 -6 -40 -9 -34 -5 -36 -4 -46 34 -12 46 -2 52 14 9 6 -16
18 -30 27 -30 17 0 19 6 17 55 0 27 1 26 15 -13 9 -24 14 -45 13 -46z m663 43
c29 -6 54 -13 56 -14 1 -1 -3 -15 -10 -29 -11 -26 -15 -27 -58 -21 -60 8 -341
-9 -654 -41 -249 -25 -320 -27 -184 -5 40 6 91 18 113 26 22 8 66 14 98 15 46
0 311 36 537 73 44 7 48 7 102 -4z m-935 -135 c-3 -3 -12 -4 -19 -1 -8 3 -5 6
6 6 11 1 17 -2 13 -5z m1093 -178 c0 -2 -8 -10 -17 -17 -16 -13 -17 -12 -4 4
13 16 21 21 21 13z m-50 -35 c0 -5 -7 -12 -16 -15 -14 -5 -15 -4 -4 9 14 17
20 19 20 6z"/>
<path d="M706 1767 c-14 -10 -16 -25 -14 -79 l3 -67 73 46 c39 25 72 49 72 53
0 4 -9 19 -21 34 -16 20 -29 26 -58 26 -20 0 -45 -6 -55 -13z m86 -24 c18 -16
17 -18 -27 -45 -25 -15 -47 -28 -50 -28 -3 0 -5 16 -5 35 0 51 45 72 82 38z"/>
<path d="M963 1740 c-23 -14 -33 -27 -33 -45 0 -29 2 -30 40 -10 23 12 30 22
30 45 0 17 -1 30 -2 30 -2 0 -18 -9 -35 -20z"/>
<path d="M872 1688 c-21 -13 -32 -28 -32 -43 0 -14 -7 -25 -20 -28 -15 -4 -20
0 -20 14 0 22 -1 23 -35 7 -18 -8 -25 -19 -25 -39 0 -19 -6 -30 -20 -34 -15
-5 -20 -15 -20 -41 0 -36 8 -42 28 -22 9 9 12 7 12 -10 0 -12 5 -22 11 -22 24
0 49 22 49 45 0 15 7 26 20 30 15 5 20 15 20 39 0 27 6 36 40 55 40 22 47 35
32 58 -5 9 -16 7 -40 -9z m-92 -88 c0 -5 9 -10 20 -10 11 0 20 -4 20 -9 0 -5
-9 -13 -20 -16 -13 -4 -20 -15 -20 -30 0 -13 -4 -27 -10 -30 -5 -3 -10 1 -10
9 0 10 -9 16 -22 17 l-23 0 23 11 c15 8 22 20 22 40 0 15 5 28 10 28 6 0 10
-4 10 -10z"/>
<path d="M968 1634 c-19 -10 -28 -23 -28 -39 0 -30 0 -30 45 -8 23 11 34 22
30 31 -3 7 -5 18 -5 23 0 12 -10 11 -42 -7z"/>
<path d="M883 1593 c-24 -12 -33 -24 -33 -41 0 -19 4 -23 18 -17 9 4 25 10 35
12 11 4 17 15 17 34 0 16 -1 29 -2 28 -2 0 -18 -8 -35 -16z"/>
<path d="M653 1563 c-23 -12 -33 -24 -33 -40 0 -22 0 -23 35 -6 25 12 35 23
35 40 0 13 -1 23 -2 22 -2 0 -18 -8 -35 -16z"/>
<path d="M648 1474 c-16 -8 -28 -23 -28 -34 0 -24 3 -24 40 -5 18 9 30 24 30
35 0 24 -6 24 -42 4z"/>
<path d="M563 1433 c-19 -10 -33 -24 -33 -35 0 -22 3 -22 40 -3 18 9 30 24 30
35 0 11 -1 20 -2 19 -2 0 -18 -8 -35 -16z"/>
<path d="M460 1332 c-35 -17 -35 -17 -31 -77 3 -64 7 -75 22 -75 5 0 9 22 9
50 0 45 3 51 30 65 18 9 30 23 30 35 0 25 -15 25 -60 2z"/>
<path d="M696 1108 c8 -47 -32 -257 -53 -280 -15 -17 -14 -18 43 -18 l59 0 1
84 c3 122 13 132 50 46 16 -38 31 -70 34 -70 3 0 27 33 53 73 l49 72 -6 -84
c-3 -47 -10 -89 -16 -95 -20 -20 -9 -26 52 -26 48 0 59 3 50 12 -18 18 -16
255 2 291 l15 27 -45 0 c-44 0 -45 0 -93 -74 l-48 -74 -33 74 -32 74 -44 0
c-43 0 -43 0 -38 -32z m95 -63 c23 -54 38 -75 51 -75 21 0 22 -8 4 -33 -13
-16 -16 -13 -37 38 -18 43 -27 55 -45 55 -28 0 -33 -13 -40 -116 -6 -72 -9
-84 -25 -84 -15 0 -17 6 -14 28 3 15 12 63 20 107 8 44 15 97 15 118 0 30 4
37 19 37 14 0 27 -20 52 -75z m191 -70 c-3 -133 -5 -145 -22 -145 -17 0 -18 7
-13 100 l6 100 -27 0 -27 0 31 45 c50 73 55 64 52 -100z"/>
<path d="M1095 1062 c-40 -25 -51 -39 -66 -89 -9 -33 -10 -52 -1 -81 19 -62
43 -77 122 -77 65 0 69 1 74 25 2 14 8 33 12 43 6 17 4 17 -27 -2 -19 -12 -43
-21 -54 -21 -29 0 -65 28 -65 51 0 17 7 19 81 19 l82 0 -5 52 c-4 40 -11 57
-32 75 -33 28 -80 30 -121 5z m72 -8 c-3 -3 -12 -4 -19 -1 -8 3 -5 6 6 6 11 1
17 -2 13 -5z m14 -51 c8 -22 6 -23 -36 -23 -30 0 -45 4 -45 13 0 41 67 48 81
10z m45 -21 l7 -32 -82 0 -81 0 0 -39 c0 -30 6 -44 23 -56 12 -10 16 -15 8
-13 -24 7 -54 55 -54 85 0 15 6 42 14 58 l13 30 4 -27 c3 -27 5 -28 69 -28
l66 0 -6 37 c-8 45 10 32 19 -15z m-79 -148 c-3 -3 -12 -4 -19 -1 -8 3 -5 6 6
6 11 1 17 -2 13 -5z"/>
<path d="M1372 1064 c-12 -8 -22 -10 -22 -5 0 6 -19 11 -41 11 -32 0 -39 -3
-31 -12 11 -14 -2 -177 -18 -215 -9 -22 -7 -23 33 -23 l42 0 2 73 c2 39 8 85
14 100 11 25 17 28 46 25 32 -4 33 -3 33 29 0 38 -20 44 -58 17z m-39 -27 c3
-8 1 -20 -3 -27 -5 -7 -11 -49 -15 -92 -4 -43 -12 -78 -17 -78 -10 0 -7 54 8
168 6 42 17 54 27 29z"/>
<path d="M1493 1060 c-81 -49 -93 -185 -20 -231 23 -14 43 -19 70 -15 47 5 47
5 57 51 8 35 8 36 -11 19 -42 -38 -99 -11 -99 48 0 68 52 112 96 83 21 -14 22
-13 26 25 l4 40 -46 0 c-27 0 -58 -8 -77 -20z m90 -7 c-7 -2 -21 -2 -30 0 -10
3 -4 5 12 5 17 0 24 -2 18 -5z m-103 -52 c-13 -25 -13 -106 1 -134 10 -21 9
-21 -10 2 -25 28 -27 80 -6 121 9 17 18 30 21 30 2 0 0 -9 -6 -19z m50 -161
c8 -5 11 -10 5 -10 -5 0 -17 5 -25 10 -8 5 -10 10 -5 10 6 0 17 -5 25 -10z"/>
<path d="M1642 970 c-3 -89 -1 -101 17 -119 23 -23 61 -27 92 -11 15 8 19 7
19 -4 0 -42 -82 -62 -128 -30 -22 15 -22 15 -22 -28 l0 -44 68 2 c113 2 137
27 152 155 5 46 12 105 15 132 l6 47 -38 0 -38 0 0 -63 c0 -34 -4 -74 -8 -89
-8 -31 -41 -45 -63 -27 -15 12 -14 65 2 152 5 26 4 27 -33 27 l-38 0 -3 -100z
m43 -4 c-7 -80 -6 -84 16 -100 13 -9 18 -16 11 -16 -6 0 -22 10 -33 21 -18 18
-21 29 -15 73 3 28 6 63 6 79 0 15 5 27 11 27 7 0 9 -26 4 -84z m141 -3 c-7
-92 -21 -159 -34 -167 -4 -3 -4 21 0 52 4 31 10 90 14 130 4 39 11 72 17 72 6
0 7 -32 3 -87z m-98 -200 c-15 -2 -42 -2 -60 0 -18 2 -6 4 27 4 33 0 48 -2 33
-4z"/>
<path d="M1262 771 c-21 -13 -11 -55 15 -59 28 -4 50 32 32 54 -13 16 -28 18
-47 5z"/>
<path d="M824 760 c-48 -19 -77 -86 -58 -134 3 -8 28 -29 55 -47 42 -26 50
-36 47 -58 -4 -38 -58 -42 -93 -7 -14 14 -28 26 -30 26 -3 0 -5 -24 -5 -52 l0
-53 69 -3 c61 -3 71 -1 99 23 63 53 51 126 -29 175 -50 30 -59 46 -37 68 18
18 53 14 73 -8 24 -27 35 -17 35 33 l0 43 -52 1 c-29 1 -63 -2 -74 -7z m94
-20 c6 0 12 -3 12 -8 0 -4 -20 -6 -45 -4 -56 5 -75 -9 -75 -54 0 -30 6 -38 48
-64 79 -48 85 -95 20 -143 -21 -16 -35 -18 -72 -13 -66 10 -57 21 17 21 l62 0
3 46 c3 46 2 47 -47 78 -28 18 -53 42 -57 53 -12 39 58 104 101 93 11 -2 26
-5 33 -5z"/>
<path d="M987 739 c7 -26 -17 -269 -29 -291 -8 -16 -3 -18 34 -18 l43 0 2 82
c3 92 20 131 56 126 21 -3 22 -7 19 -105 l-3 -103 33 0 33 0 4 78 c8 137 6
153 -14 168 -22 17 -69 18 -96 3 -19 -10 -20 -8 -14 35 l7 46 -40 0 c-36 0
-40 -2 -35 -21z m45 -51 c-6 -107 -26 -238 -35 -238 -6 0 -7 24 -3 63 4 34 10
99 13 145 4 49 10 82 17 82 7 0 10 -19 8 -52z m110 -30 c22 -17 23 -29 14
-125 -11 -118 -26 -104 -19 17 6 98 6 100 -18 109 -14 6 -17 10 -8 10 8 1 22
-5 31 -11z"/>
<path d="M1762 683 c2 -10 10 -18 18 -18 8 0 16 8 18 18 2 12 -3 17 -18 17
-15 0 -20 -5 -18 -17z"/>
<path d="M1393 683 c-40 -3 -51 -7 -46 -18 6 -18 -15 -250 -27 -287 -9 -28 -8
-28 33 -28 l43 0 -4 40 c-4 39 -3 41 21 35 99 -25 182 150 111 234 -18 22 -34
30 -52 29 -15 -1 -50 -3 -79 -5z m111 -44 c29 -35 32 -64 12 -114 -20 -47 -26
-44 -14 8 12 55 3 103 -25 122 -12 8 -16 15 -10 15 6 0 23 -14 37 -31z m-104
6 c-7 -8 -12 -51 -13 -104 -1 -50 -5 -91 -9 -91 -5 0 -8 -18 -8 -40 0 -22 -4
-40 -10 -40 -13 0 -13 8 2 163 11 115 14 127 31 127 16 0 17 -3 7 -15z m77
-35 c24 -51 -22 -152 -62 -136 -15 5 -16 15 -10 74 4 37 12 73 18 80 15 19 40
10 54 -18z"/>
<path d="M1599 661 c-16 -17 -29 -40 -29 -54 0 -26 43 -70 80 -82 26 -8 26
-42 0 -50 -23 -7 -54 7 -74 36 -13 19 -14 17 -18 -33 l-3 -54 60 1 c71 1 98
14 115 54 16 40 -3 80 -53 106 -43 23 -45 48 -5 53 19 2 31 -3 40 -17 20 -32
28 -25 28 24 l0 45 -56 0 c-48 0 -59 -4 -85 -29z m109 2 c-10 -2 -28 -2 -40 0
-13 2 -5 4 17 4 22 1 32 -1 23 -4z m-58 -93 c46 -19 64 -45 54 -77 -8 -28 -8
-28 -12 9 -2 26 -9 39 -23 43 -10 4 -33 18 -49 32 -26 22 -28 27 -17 46 12 21
12 21 15 -10 2 -23 10 -34 32 -43z"/>
<path d="M1235 670 c9 -14 -15 -212 -27 -227 -8 -10 0 -13 36 -13 40 0 47 3
42 18 -3 9 1 65 8 125 l12 107 -39 0 c-23 0 -36 -4 -32 -10z m42 -57 c-3 -27
-9 -74 -13 -105 -3 -32 -11 -58 -16 -58 -6 0 -8 17 -4 43 3 23 8 70 12 105 4
34 11 62 17 62 6 0 7 -19 4 -47z"/>
</g>
</svg>
