<?xml version="1.0" standalone="no"?>
<!DOCTYPE svg PUBLIC "-//W3C//DTD SVG 20010904//EN"
 "http://www.w3.org/TR/2001/REC-SVG-20010904/DTD/svg10.dtd">
<svg version="1.0" xmlns="http://www.w3.org/2000/svg"
 width="192.000000pt" height="192.000000pt" viewBox="0 0 192.000000 192.000000"
 preserveAspectRatio="xMidYMid meet">
<metadata>
Created by potrace 1.16, written by Peter Selinger 2001-2019
</metadata>
<g transform="translate(0.000000,192.000000) scale(0.100000,-0.100000)"
fill="#000000" stroke="none">
<path d="M1070 1904 c-273 -50 -550 -198 -729 -390 -85 -91 -138 -169 -196
-289 -85 -178 -108 -281 -108 -500 -1 -235 34 -353 146 -493 64 -82 158 -152
255 -193 62 -25 93 -32 162 -35 47 -1 72 0 55 2 -243 38 -430 166 -528 361
-87 171 -96 477 -20 703 23 69 97 218 143 287 154 232 441 426 755 509 56 15
105 19 240 19 158 -1 178 -3 287 -32 64 -17 127 -29 140 -26 25 7 65 30 86 50
7 7 31 13 53 13 34 0 40 -3 35 -17 -6 -24 -47 -195 -86 -368 -48 -210 -46
-205 -84 -205 l-33 0 -8 72 c-12 129 -56 228 -131 300 -53 50 -104 74 -182 88
-56 10 -78 9 -135 -4 -127 -30 -272 -121 -355 -224 -20 -26 -39 -49 -42 -52
-47 -47 -169 -289 -215 -425 -68 -205 -90 -470 -51 -599 71 -231 285 -332 546
-259 127 36 217 96 338 226 39 40 50 47 83 47 54 0 51 -16 -23 -113 -157 -206
-325 -317 -526 -346 l-57 -9 68 -1 c177 -3 368 117 535 336 49 65 62 89 62
117 l0 36 -59 0 c-56 0 -59 -1 -103 -47 -144 -154 -256 -218 -421 -243 -72
-11 -151 1 -222 34 -98 45 -165 126 -200 242 -38 123 -16 359 50 559 46 136
168 378 215 425 3 3 22 26 42 52 82 101 228 194 350 223 55 13 71 13 126 0 90
-21 173 -82 224 -165 27 -45 56 -144 63 -218 l8 -72 53 0 c62 0 54 -16 104
205 18 77 45 195 61 262 40 169 42 163 -30 163 -34 0 -65 -5 -73 -13 -25 -24
-67 -47 -87 -47 -10 0 -63 12 -117 27 -86 23 -121 27 -269 29 -93 1 -181 0
-195 -2z"/>
</g>
</svg>
