<?xml version="1.0" standalone="no"?>
<!DOCTYPE svg PUBLIC "-//W3C//DTD SVG 20010904//EN"
 "http://www.w3.org/TR/2001/REC-SVG-20010904/DTD/svg10.dtd">
<svg version="1.0" xmlns="http://www.w3.org/2000/svg"
 width="100.000000pt" height="100.000000pt" viewBox="0 0 100.000000 100.000000"
 preserveAspectRatio="xMidYMid meet">
<metadata>
Created by potrace 1.16, written by Peter Selinger 2001-2019
</metadata>
<g transform="translate(0.000000,100.000000) scale(0.100000,-0.100000)"
fill="#000000" stroke="none">
<path d="M60 970 c0 -27 -3 -30 -32 -31 -23 -1 -26 -3 -11 -6 38 -7 37 -108
-1 -117 -12 -2 -9 -4 9 -3 30 2 30 3 33 65 l3 62 64 0 65 0 0 30 c0 17 -4 30
-10 30 -5 0 -10 -9 -10 -19 0 -16 -18 -31 -36 -31 -2 0 -5 12 -5 28 -2 23 -2
24 -6 5 -6 -30 -43 -32 -43 -3 0 11 -4 20 -10 20 -5 0 -10 -13 -10 -30z"/>
<path d="M310 970 c0 -16 4 -30 8 -30 5 0 7 14 4 30 -2 17 -6 30 -8 30 -2 0
-4 -13 -4 -30z"/>
<path d="M501 973 c-1 -30 2 -33 29 -33 l30 0 0 -65 0 -65 30 0 30 0 0 65 0
65 -30 0 c-27 0 -30 3 -30 30 0 17 -4 30 -10 30 -5 0 -10 -9 -10 -20 0 -27
-28 -25 -33 3 -3 16 -5 13 -6 -10z m101 -80 c4 -35 -1 -63 -12 -63 -5 0 -10 8
-12 18 -5 24 3 72 12 72 4 0 9 -12 12 -27z"/>
<path d="M691 973 c-1 -29 -5 -33 -28 -34 -27 0 -27 -1 -5 -9 12 -5 22 -16 22
-25 0 -9 -10 -20 -22 -25 -22 -8 -22 -9 5 -9 24 -1 27 2 27 34 0 29 4 35 23
36 15 1 17 3 5 6 -9 2 -19 16 -21 31 -4 24 -4 24 -6 -5z"/>
<path d="M840 950 c-29 -6 -23 -8 33 -9 l67 -1 0 -35 c0 -19 5 -35 11 -35 6 0
8 8 6 18 -3 9 -8 29 -11 45 -5 23 -11 27 -39 26 -17 -1 -48 -5 -67 -9z"/>
<path d="M458 943 c6 -2 18 -2 25 0 6 3 1 5 -13 5 -14 0 -19 -2 -12 -5z"/>
<path d="M752 915 c0 -16 2 -22 5 -12 2 9 2 23 0 30 -3 6 -5 -1 -5 -18z"/>
<path d="M432 900 c0 -19 2 -27 5 -17 2 9 2 25 0 35 -3 9 -5 1 -5 -18z"/>
<path d="M802 910 c0 -14 2 -19 5 -12 2 6 2 18 0 25 -3 6 -5 1 -5 -13z"/>
<path d="M130 850 c0 -24 6 -25 26 -6 19 20 18 26 -6 26 -13 0 -20 -7 -20 -20z"/>
<path d="M190 850 c0 -22 15 -27 24 -7 5 10 7 10 12 0 8 -18 24 -16 24 2 0 8
4 15 9 15 5 0 16 -7 25 -15 20 -20 26 -19 26 5 0 18 -7 20 -60 20 -53 0 -60
-2 -60 -20z"/>
<path d="M750 850 c0 -22 15 -27 24 -7 5 10 7 10 12 0 8 -17 24 -16 24 1 0 9
7 12 20 9 11 -3 20 -9 20 -14 0 -5 5 -9 10 -9 6 0 10 9 10 20 0 18 -7 20 -60
20 -53 0 -60 -2 -60 -20z"/>
<path d="M60 783 c1 -25 2 -26 14 -10 7 9 18 17 24 17 6 0 14 5 17 10 4 6 -7
10 -24 10 -27 0 -31 -3 -31 -27z"/>
<path d="M130 783 c1 -25 2 -26 14 -10 15 20 42 23 49 5 4 -10 8 -9 16 2 10
13 12 13 22 0 8 -11 12 -12 16 -2 7 18 34 15 49 -5 12 -16 13 -15 14 10 l0 27
-90 0 -90 0 0 -27z"/>
<path d="M330 805 c0 -3 9 -15 20 -27 l20 -22 0 27 c0 20 -5 27 -20 27 -11 0
-20 -2 -20 -5z"/>
<path d="M440 780 c0 -27 3 -30 30 -30 27 0 30 -3 30 -30 0 -27 3 -30 30 -30
27 0 30 3 30 30 0 27 -3 30 -30 30 -27 0 -30 3 -30 30 0 27 -3 30 -30 30 -27
0 -30 -3 -30 -30z m48 -3 c2 -10 -3 -17 -12 -17 -18 0 -29 16 -21 31 9 14 29
6 33 -14z m52 -62 c0 -8 -4 -15 -10 -15 -5 0 -10 7 -10 15 0 8 5 15 10 15 6 0
10 -7 10 -15z"/>
<path d="M638 803 c6 -2 18 -2 25 0 6 3 1 5 -13 5 -14 0 -19 -2 -12 -5z"/>
<path d="M690 783 l0 -27 20 22 c26 28 40 28 40 0 1 -21 2 -22 14 -5 15 20 32
22 39 5 4 -10 6 -10 6 0 1 18 32 15 47 -5 12 -17 13 -16 14 5 0 20 4 22 22 16
13 -4 28 -14 35 -23 11 -14 12 -12 13 12 l0 27 -125 0 -125 0 0 -27z"/>
<path d="M60 500 l0 -250 95 0 95 0 0 155 0 155 30 0 30 0 0 -90 0 -90 28 0
c24 1 25 2 10 14 -21 15 -24 42 -5 49 8 4 9 8 1 14 -6 4 -13 16 -17 26 -5 13
-1 17 18 17 l25 0 0 -125 0 -125 125 0 125 0 0 125 0 125 25 0 c18 0 25 -5 25
-20 0 -13 -7 -20 -20 -20 -11 0 -20 -4 -20 -10 0 -5 9 -10 20 -10 13 0 20 -7
20 -20 0 -13 -7 -20 -20 -20 -11 0 -20 -4 -20 -10 0 -5 14 -10 30 -10 l30 0 0
90 0 90 30 0 c28 0 30 3 30 35 0 32 2 35 30 35 l30 0 0 -185 c0 -102 -3 -185
-7 -185 -5 0 -15 5 -23 10 -13 9 -13 11 0 21 11 8 12 12 3 16 -15 6 -18 53 -3
53 6 0 10 5 10 10 0 6 -6 10 -12 10 -8 0 -13 13 -13 30 0 17 5 30 13 30 16 0
15 8 -2 26 -18 18 -26 18 -26 0 0 -9 -7 -12 -20 -9 -11 3 -20 0 -20 -6 0 -6 9
-11 20 -11 19 0 20 -7 20 -95 l0 -95 95 0 95 0 0 250 0 250 -125 0 -125 0 0
-60 c0 -57 -1 -60 -25 -60 -33 0 -34 34 -2 45 21 7 21 8 -6 12 -20 3 -27 9
-23 20 3 8 6 17 6 19 0 2 6 4 14 4 8 0 18 5 21 10 4 6 -7 10 -24 10 l-31 0 0
-125 0 -125 -25 0 c-19 0 -23 4 -18 18 4 9 14 22 22 29 14 11 13 12 -7 13 -20
0 -22 4 -16 23 3 12 11 24 15 25 17 7 9 22 -11 22 -19 0 -20 -7 -20 -125 l0
-125 -60 0 -60 0 0 125 0 125 -31 0 c-17 0 -28 -4 -24 -10 3 -5 12 -10 19 -10
8 0 16 -11 18 -25 5 -22 2 -25 -23 -25 l-29 0 0 95 0 95 -27 0 c-24 -1 -26 -2
-12 -13 8 -7 18 -20 22 -29 5 -14 1 -18 -16 -18 -20 -1 -21 -2 -4 -14 23 -18
22 -46 -3 -46 -18 0 -20 7 -20 60 l0 60 -125 0 -125 0 0 -250z m70 1 l0 -238
-25 5 c-29 5 -35 41 -7 43 16 1 16 2 0 6 -11 3 -18 14 -18 29 0 16 6 24 18 25
16 1 16 2 0 6 -11 3 -18 14 -18 29 0 16 6 24 18 25 16 1 16 2 0 6 -24 6 -27
123 -3 123 8 0 15 5 15 10 0 6 -7 10 -15 10 -22 0 -20 50 3 51 16 1 16 2 0 6
-22 5 -24 33 -3 33 8 0 15 5 15 10 0 6 -7 10 -15 10 -8 0 -15 9 -15 19 0 17
12 25 43 30 4 0 7 -106 7 -238z m790 209 c0 -11 -9 -20 -22 -23 l-23 -4 23 -8
c19 -6 22 -14 22 -61 0 -51 -1 -54 -25 -54 -21 0 -25 -5 -25 -30 0 -23 -4 -30
-20 -30 -15 0 -20 7 -20 25 0 14 6 25 13 25 8 0 9 3 1 8 -6 4 -13 22 -16 40
-4 28 -2 32 19 32 21 0 23 4 23 54 0 51 1 53 25 48 16 -3 25 -11 25 -22z
m-730 0 c0 -13 -7 -20 -20 -20 -13 0 -20 7 -20 20 0 13 7 20 20 20 13 0 20 -7
20 -20z m100 0 c0 -13 -7 -20 -20 -20 -14 0 -20 -7 -20 -22 0 -19 -6 -23 -30
-23 -24 0 -30 4 -30 23 0 17 6 22 28 23 16 1 20 3 10 6 -36 9 -20 33 22 33 33
0 40 -3 40 -20z m460 0 c0 -13 -7 -20 -20 -20 -13 0 -20 7 -20 20 0 13 7 20
20 20 13 0 20 -7 20 -20z m100 -20 c0 -37 -18 -59 -21 -25 -1 8 -2 21 -3 28 0
6 -7 13 -13 13 -7 1 -20 2 -28 3 -34 3 -12 21 25 21 l40 0 0 -40z m-40 -22 c0
-19 -6 -23 -30 -23 -24 0 -30 4 -30 23 0 18 6 22 30 22 24 0 30 -4 30 -22z
m-634 -14 c-3 -9 -6 -47 -6 -85 0 -39 -4 -69 -10 -69 -6 0 -10 35 -10 85 0 71
3 85 16 85 11 0 14 -5 10 -16z m114 6 c0 -5 -4 -10 -10 -10 -5 0 -10 5 -10 10
0 6 5 10 10 10 6 0 10 -4 10 -10z m440 0 c0 -5 -4 -10 -10 -10 -5 0 -10 5 -10
10 0 6 5 10 10 10 6 0 10 -4 10 -10z m-420 -57 c0 -27 -1 -28 -50 -25 -32 3
-50 0 -50 -7 0 -6 6 -11 13 -11 15 0 10 -91 -7 -103 -8 -6 -8 -10 2 -14 6 -2
12 -18 12 -34 0 -16 -6 -29 -12 -30 -10 0 -10 -2 0 -6 6 -2 12 -18 12 -34 0
-16 -6 -29 -12 -30 -10 0 -10 -2 0 -6 19 -7 14 -30 -8 -36 -19 -5 -20 0 -20
179 l0 184 60 0 c59 0 60 -1 60 -27z m423 3 c-3 -13 -14 -26 -24 -29 -15 -4
-19 0 -19 24 0 24 4 29 24 29 19 0 22 -4 19 -24z m-383 -16 c0 -11 -4 -20 -10
-20 -5 0 -10 9 -10 20 0 11 5 20 10 20 6 0 10 -9 10 -20z m330 -5 c0 -18 -5
-25 -20 -25 -15 0 -20 7 -20 25 0 18 5 25 20 25 15 0 20 -7 20 -25z m-312 -52
c3 -17 -1 -20 -17 -16 -26 7 -29 46 -3 41 9 -2 18 -13 20 -25z m552 2 c0 -8
-9 -15 -20 -15 -20 0 -26 11 -13 23 12 13 33 7 33 -8z m-500 -15 c0 -11 -7
-20 -15 -20 -8 0 -15 9 -15 20 0 11 7 20 15 20 8 0 15 -9 15 -20z m250 10 c0
-5 -7 -10 -15 -10 -8 0 -15 5 -15 10 0 6 7 10 15 10 8 0 15 -4 15 -10z m250
-114 c0 -78 -2 -84 -22 -91 l-23 -8 23 -4 c32 -6 30 -43 -3 -43 -24 0 -25 3
-25 55 0 48 -2 55 -20 55 -16 0 -20 7 -20 30 0 23 4 30 20 30 16 0 20 7 20 30
0 25 4 30 25 30 25 0 25 -1 25 -84z m-500 59 c0 -8 -7 -15 -15 -15 -8 0 -15 7
-15 15 0 8 7 15 15 15 8 0 15 -7 15 -15z m430 -5 c0 -11 -4 -20 -10 -20 -5 0
-10 9 -10 20 0 11 5 20 10 20 6 0 10 -9 10 -20z m-680 -5 c0 -8 -4 -15 -10
-15 -5 0 -10 7 -10 15 0 8 5 15 10 15 6 0 10 -7 10 -15z m430 -5 c0 -11 -4
-20 -10 -20 -5 0 -10 9 -10 20 0 11 5 20 10 20 6 0 10 -9 10 -20z m-430 -50
c0 -16 -4 -30 -10 -30 -5 0 -10 14 -10 30 0 17 5 30 10 30 6 0 10 -13 10 -30z
m250 10 c0 -11 -7 -20 -15 -20 -8 0 -15 9 -15 20 0 11 7 20 15 20 8 0 15 -9
15 -20z m180 -5 c0 -8 -4 -15 -10 -15 -5 0 -10 7 -10 15 0 8 5 15 10 15 6 0
10 -7 10 -15z m-160 -96 c0 -52 -2 -60 -16 -55 -9 3 -19 6 -24 6 -4 0 -10 9
-13 19 -4 15 1 21 22 24 25 4 25 5 4 11 -11 5 -23 19 -26 32 -4 21 0 24 24 24
29 0 29 -1 29 -61z m160 40 c0 -12 -8 -28 -17 -35 -17 -13 -17 -13 0 -14 25 0
23 -40 -3 -40 -18 0 -20 7 -20 55 0 48 2 55 20 55 14 0 20 -7 20 -21z m-430
-14 c0 -8 -4 -15 -10 -15 -5 0 -10 7 -10 15 0 8 5 15 10 15 6 0 10 -7 10 -15z
m370 0 c0 -11 -11 -15 -40 -15 -29 0 -40 4 -40 15 0 11 11 15 40 15 29 0 40
-4 40 -15z m310 0 c0 -8 -4 -15 -10 -15 -5 0 -10 7 -10 15 0 8 5 15 10 15 6 0
10 -7 10 -15z m-680 -55 c0 -11 -4 -20 -10 -20 -5 0 -10 9 -10 20 0 11 5 20
10 20 6 0 10 -9 10 -20z m373 0 c-6 -22 -33 -28 -34 -7 0 10 -2 10 -6 0 -8
-21 -43 -15 -43 7 0 17 7 20 44 20 39 0 44 -2 39 -20z m310 0 c-3 -11 -9 -20
-14 -20 -5 0 -9 9 -9 20 0 11 6 20 14 20 9 0 12 -7 9 -20z"/>
<path d="M871 594 c0 -11 3 -14 6 -6 3 7 2 16 -1 19 -3 4 -6 -2 -5 -13z"/>
<path d="M960 740 c0 -5 9 -10 20 -10 11 0 20 5 20 10 0 6 -9 10 -20 10 -11 0
-20 -4 -20 -10z"/>
<path d="M390 680 c0 -5 5 -10 11 -10 7 0 18 -8 25 -17 12 -16 13 -15 14 10 0
22 -4 27 -25 27 -14 0 -25 -4 -25 -10z"/>
<path d="M968 683 c6 -2 18 -2 25 0 6 3 1 5 -13 5 -14 0 -19 -2 -12 -5z"/>
<path d="M500 640 c0 -5 5 -10 11 -10 5 0 7 5 4 10 -3 6 -8 10 -11 10 -2 0 -4
-4 -4 -10z"/>
<path d="M7 623 c7 -2 19 -2 26 0 6 3 1 5 -13 5 -14 0 -19 -2 -13 -5z"/>
<path d="M765 570 c-3 -5 1 -10 9 -10 9 0 16 5 16 10 0 6 -4 10 -9 10 -6 0
-13 -4 -16 -10z"/>
<path d="M460 554 c0 -3 6 -12 14 -20 20 -19 26 -18 26 6 0 13 -7 20 -20 20
-11 0 -20 -3 -20 -6z"/>
<path d="M968 553 c6 -2 18 -2 25 0 6 3 1 5 -13 5 -14 0 -19 -2 -12 -5z"/>
<path d="M721 525 l-23 -25 26 0 c21 0 26 5 26 25 0 30 1 30 -29 0z"/>
<path d="M265 510 c-3 -5 1 -10 9 -10 9 0 16 5 16 10 0 6 -4 10 -9 10 -6 0
-13 -4 -16 -10z"/>
<path d="M765 510 c-3 -5 1 -10 9 -10 9 0 16 5 16 10 0 6 -4 10 -9 10 -6 0
-13 -4 -16 -10z"/>
<path d="M960 510 c0 -5 9 -10 20 -10 11 0 20 5 20 10 0 6 -9 10 -20 10 -11 0
-20 -4 -20 -10z"/>
<path d="M471 475 c22 -22 24 -23 27 -6 2 13 9 17 23 14 10 -3 19 0 19 6 0 6
-19 11 -46 11 l-46 0 23 -25z"/>
<path d="M270 450 c0 -5 5 -10 10 -10 6 0 10 5 10 10 0 6 -4 10 -10 10 -5 0
-10 -4 -10 -10z"/>
<path d="M7 433 c7 -2 19 -2 26 0 6 3 1 5 -13 5 -14 0 -19 -2 -13 -5z"/>
<path d="M468 420 c25 -24 32 -25 32 -6 0 9 7 12 19 9 10 -3 22 0 25 6 5 7
-10 11 -45 11 l-53 0 22 -20z"/>
<path d="M960 430 c0 -5 9 -10 20 -10 11 0 20 5 20 10 0 6 -9 10 -20 10 -11 0
-20 -4 -20 -10z"/>
<path d="M0 390 c0 -5 9 -10 20 -10 11 0 20 5 20 10 0 6 -9 10 -20 10 -11 0
-20 -4 -20 -10z"/>
<path d="M960 390 c0 -5 9 -10 20 -10 11 0 20 5 20 10 0 6 -9 10 -20 10 -11 0
-20 -4 -20 -10z"/>
<path d="M673 350 c-3 -11 -12 -20 -19 -20 -8 0 -14 -4 -14 -10 0 -5 9 -10 21
-10 15 0 19 -4 15 -16 -3 -9 -6 -18 -6 -20 0 -2 -7 -4 -15 -4 -8 0 -15 -4 -15
-10 0 -5 11 -10 25 -10 24 0 25 3 25 60 0 60 -7 77 -17 40z"/>
<path d="M314 335 c1 -12 9 -21 21 -22 14 -1 15 0 3 3 -9 3 -19 13 -21 22 -3
12 -4 11 -3 -3z"/>
<path d="M7 303 c7 -2 19 -2 26 0 6 3 1 5 -13 5 -14 0 -19 -2 -13 -5z"/>
<path d="M270 301 c0 -5 6 -12 13 -15 10 -5 10 -7 0 -12 -20 -9 -15 -24 7 -24
16 0 20 7 20 30 0 23 -4 30 -20 30 -11 0 -20 -4 -20 -9z"/>
<path d="M968 303 c6 -2 18 -2 25 0 6 3 1 5 -13 5 -14 0 -19 -2 -12 -5z"/>
<path d="M0 260 c0 -5 9 -10 20 -10 11 0 20 5 20 10 0 6 -9 10 -20 10 -11 0
-20 -4 -20 -10z"/>
<path d="M960 260 c0 -5 9 -10 20 -10 11 0 20 5 20 10 0 6 -9 10 -20 10 -11 0
-20 -4 -20 -10z"/>
<path d="M60 210 c0 -16 -7 -20 -30 -20 -17 0 -30 -4 -30 -10 0 -5 11 -10 25
-10 14 0 25 -4 25 -10 0 -5 -11 -10 -25 -10 -14 0 -25 -4 -25 -10 0 -5 13 -10
30 -10 27 0 30 3 30 30 l0 30 65 0 c58 0 65 2 65 20 0 21 -16 28 -22 9 -2 -6
-21 -11 -43 -11 -22 0 -41 5 -43 11 -6 19 -22 12 -22 -9z"/>
<path d="M241 224 c0 -7 -11 -15 -23 -19 -22 -8 -22 -8 5 -12 22 -4 27 -9 27
-34 0 -29 0 -29 60 -29 l60 0 0 30 c0 30 0 30 -59 30 -54 0 -60 2 -64 23 -2
12 -5 17 -6 11z m109 -58 c0 -18 -20 -25 -53 -19 -41 8 -32 29 13 30 28 1 40
-2 40 -11z"/>
<path d="M440 210 c0 -19 7 -20 90 -20 l90 0 0 -30 0 -30 65 0 65 0 0 30 c0
24 -4 30 -22 30 -21 0 -21 -1 -3 -13 21 -16 12 -37 -16 -37 -14 0 -19 7 -19
25 0 22 -4 25 -35 25 -28 0 -35 4 -35 20 0 11 -4 20 -10 20 -5 0 -10 -6 -10
-13 0 -11 -16 -13 -67 -10 -38 1 -69 7 -71 13 -6 18 -22 11 -22 -10z m240 -50
c0 -5 -11 -10 -25 -10 -14 0 -25 5 -25 10 0 6 11 10 25 10 14 0 25 -4 25 -10z"/>
<path d="M810 210 c0 -18 7 -20 65 -20 l65 0 0 -30 c0 -27 3 -30 30 -30 17 0
30 5 30 10 0 6 -12 10 -26 10 -32 0 -27 22 7 31 21 6 21 7 -8 8 -26 1 -33 5
-33 21 0 11 -4 20 -10 20 -5 0 -10 -4 -10 -10 0 -5 -20 -10 -45 -10 -25 0 -45
5 -45 10 0 6 -4 10 -10 10 -5 0 -10 -9 -10 -20z"/>
<path d="M120 156 c0 -8 -10 -17 -22 -19 -20 -4 -19 -4 5 -6 21 -1 27 4 27 19
0 11 -2 20 -5 20 -3 0 -5 -6 -5 -14z"/>
<path d="M560 152 c0 -17 -6 -22 -27 -23 -28 0 -28 0 -4 -10 18 -7 22 -14 17
-34 -4 -14 -2 -25 4 -25 5 0 10 16 10 35 0 31 3 35 28 36 15 0 20 3 12 6 -8 3
-21 12 -27 21 -11 14 -13 13 -13 -6z"/>
<path d="M870 139 c0 -5 11 -9 25 -9 14 0 25 2 25 4 0 2 -11 6 -25 8 -14 3
-25 1 -25 -3z"/>
<path d="M440 95 c0 -32 2 -35 30 -35 17 0 30 5 30 10 0 6 -12 10 -26 10 -19
0 -25 4 -22 18 3 11 12 16 26 15 12 -2 22 2 22 7 0 6 -13 10 -30 10 -28 0 -30
-3 -30 -35z"/>
<path d="M45 50 c3 -5 8 -10 11 -10 2 0 4 5 4 10 0 6 -5 10 -11 10 -5 0 -7 -4
-4 -10z"/>
<path d="M130 49 c0 -5 5 -7 10 -4 6 3 10 8 10 11 0 2 -4 4 -10 4 -5 0 -10 -5
-10 -11z"/>
<path d="M235 50 c3 -5 8 -10 11 -10 2 0 4 5 4 10 0 6 -5 10 -11 10 -5 0 -7
-4 -4 -10z"/>
<path d="M370 30 c0 -39 6 -39 12 0 3 16 1 30 -4 30 -4 0 -8 -13 -8 -30z"/>
<path d="M691 28 c1 -29 2 -30 8 -9 3 13 15 28 26 32 17 6 16 8 -7 8 -25 1
-28 -2 -27 -31z"/>
<path d="M795 50 c3 -5 8 -10 11 -10 2 0 4 5 4 10 0 6 -5 10 -11 10 -5 0 -7
-4 -4 -10z"/>
<path d="M432 25 c0 -17 2 -22 5 -12 2 9 2 23 0 30 -3 6 -5 -1 -5 -18z"/>
</g>
</svg>
