<?xml version="1.0" standalone="no"?>
<!DOCTYPE svg PUBLIC "-//W3C//DTD SVG 20010904//EN"
 "http://www.w3.org/TR/2001/REC-SVG-20010904/DTD/svg10.dtd">
<svg version="1.0" xmlns="http://www.w3.org/2000/svg"
 width="100.000000pt" height="100.000000pt" viewBox="0 0 100.000000 100.000000"
 preserveAspectRatio="xMidYMid meet">
<metadata>
Created by potrace 1.16, written by Peter Selinger 2001-2019
</metadata>
<g transform="translate(0.000000,100.000000) scale(0.100000,-0.100000)"
fill="#000000" stroke="none">
<path d="M0 990 c0 -5 23 -10 50 -10 28 0 50 -4 50 -10 0 -5 11 -10 25 -10 14
0 25 -4 25 -10 0 -5 14 -10 30 -10 17 0 30 -4 30 -10 0 -5 9 -10 20 -10 11 0
20 -4 20 -10 0 -5 7 -10 16 -10 18 0 44 -23 44 -39 0 -6 8 -11 18 -11 10 0 24
-9 32 -20 8 -11 18 -20 23 -20 4 0 30 -22 57 -50 27 -27 54 -50 60 -50 6 0 38
27 70 60 32 33 64 60 69 60 6 0 11 5 11 10 0 6 9 10 20 10 11 0 20 5 20 11 0
16 26 39 44 39 9 0 16 5 16 10 0 6 9 10 20 10 11 0 20 5 20 10 0 6 14 10 30
10 17 0 30 5 30 10 0 6 11 10 25 10 14 0 25 5 25 10 0 6 23 10 50 10 28 0 50
5 50 10 0 6 -27 10 -60 10 -33 0 -60 -4 -60 -10 0 -5 -11 -10 -25 -10 -14 0
-25 -4 -25 -10 0 -5 -13 -10 -30 -10 -16 0 -30 -4 -30 -10 0 -5 -9 -10 -20
-10 -11 0 -20 -4 -20 -10 0 -5 -7 -10 -16 -10 -18 0 -44 -23 -44 -39 0 -6 -9
-11 -20 -11 -11 0 -20 -4 -20 -10 0 -5 -5 -10 -11 -10 -6 0 -32 -22 -59 -50
-27 -27 -54 -50 -60 -50 -6 0 -29 18 -50 40 -21 22 -42 40 -47 40 -5 0 -15 9
-23 20 -8 11 -22 20 -32 20 -10 0 -18 5 -18 11 0 16 -26 39 -44 39 -9 0 -16 5
-16 10 0 6 -9 10 -20 10 -11 0 -20 5 -20 10 0 6 -13 10 -30 10 -16 0 -30 5
-30 10 0 6 -11 10 -25 10 -14 0 -25 5 -25 10 0 6 -27 10 -60 10 -33 0 -60 -4
-60 -10z"/>
<path d="M488 694 c-5 -4 -8 -26 -8 -48 0 -30 -6 -46 -20 -56 -11 -8 -20 -22
-20 -32 0 -10 -4 -18 -10 -18 -5 0 -10 -9 -10 -20 0 -11 -4 -20 -10 -20 -5 0
-10 -19 -10 -42 1 -35 3 -40 11 -25 6 10 9 27 6 37 -3 14 -1 17 11 13 12 -5
14 -1 10 19 -4 20 -1 25 10 20 12 -4 14 1 10 20 -3 18 -1 25 7 22 7 -3 15 5
18 17 5 18 8 20 19 7 19 -20 45 -68 68 -123 7 -16 16 -38 21 -47 5 -10 9 -33
9 -52 0 -19 5 -38 10 -41 6 -4 10 21 10 67 0 51 -3 68 -10 58 -7 -11 -10 -7
-10 18 0 17 -4 32 -10 32 -5 0 -10 15 -10 33 0 24 -3 28 -10 17 -8 -12 -10
-11 -10 8 0 12 -4 22 -10 22 -5 0 -10 10 -10 21 0 12 -9 29 -19 38 -10 9 -21
27 -23 40 -1 12 -6 19 -10 15z"/>
<path d="M370 430 c0 -39 -3 -51 -10 -40 -7 10 -10 -13 -11 -75 -2 -74 -3 -82
-9 -45 -5 29 -7 -5 -7 -95 0 -85 3 -126 7 -105 l7 35 2 -32 c0 -18 5 -33 9
-33 4 0 8 65 9 145 1 93 5 151 13 159 12 16 11 108 -2 128 -4 8 -8 -10 -8 -42z"/>
<path d="M638 409 c-11 -28 -10 -369 2 -369 5 0 10 10 11 23 1 21 1 21 9 -3 5
-15 8 32 7 115 0 77 -3 124 -6 105 -4 -25 -7 -8 -11 55 -3 50 -8 83 -12 74z"/>
<path d="M0 10 c0 -7 173 -10 500 -10 327 0 500 3 500 10 0 7 -173 10 -500 10
-327 0 -500 -3 -500 -10z"/>
</g>
</svg>
