<?xml version="1.0" standalone="no"?>
<!DOCTYPE svg PUBLIC "-//W3C//DTD SVG 20010904//EN"
 "http://www.w3.org/TR/2001/REC-SVG-20010904/DTD/svg10.dtd">
<svg version="1.0" xmlns="http://www.w3.org/2000/svg"
 width="100.000000pt" height="100.000000pt" viewBox="0 0 100.000000 100.000000"
 preserveAspectRatio="xMidYMid meet">
<metadata>
Created by potrace 1.16, written by Peter Selinger 2001-2019
</metadata>
<g transform="translate(0.000000,100.000000) scale(0.100000,-0.100000)"
fill="#000000" stroke="none">
<path d="M160 500 c0 -327 3 -500 10 -500 6 0 10 136 11 388 0 213 3 438 5
500 5 97 3 112 -10 112 -14 0 -16 -51 -16 -500z"/>
<path d="M200 895 l0 -105 95 0 95 0 0 -205 c0 -130 -4 -205 -10 -205 -6 0
-10 73 -10 200 l0 200 -34 0 c-19 0 -38 -5 -42 -11 -3 -6 -15 -9 -25 -6 -11 3
-19 1 -19 -4 0 -14 68 -11 73 4 13 36 18 -21 18 -212 0 -176 3 -211 15 -211 8
0 14 8 14 17 0 14 2 15 13 4 10 -11 10 -14 0 -18 -24 -9 -14 -33 13 -33 17 0
24 -4 21 -12 -3 -10 17 -13 83 -13 71 0 87 3 86 15 -1 9 6 14 17 12 16 -3 18
2 14 25 -2 15 -2 22 0 15 5 -14 43 -17 43 -2 0 5 -7 7 -15 4 -9 -4 -15 0 -15
10 0 9 7 16 15 16 13 0 15 26 13 183 l-2 182 -6 -170 -6 -170 -2 173 c-1 109
2 172 8 172 14 0 12 27 -2 33 -7 3 24 6 70 6 l82 1 0 105 c0 63 -4 105 -10
105 -6 0 -10 -38 -10 -95 l0 -95 -95 0 -95 0 0 -235 0 -235 -30 0 c-16 0 -30
-4 -30 -10 0 -5 7 -7 15 -4 8 4 15 1 15 -5 0 -7 -23 -11 -60 -11 -37 0 -60 4
-60 11 0 6 7 9 15 5 8 -3 15 -1 15 4 0 6 -13 10 -30 10 l-30 0 0 235 0 235
-95 0 -95 0 0 95 c0 57 -4 95 -10 95 -6 0 -10 -42 -10 -105z m417 -412 c-1
-59 -3 -14 -3 102 0 116 2 164 3 108 2 -56 2 -151 0 -210z"/>
<path d="M250 970 c0 -29 2 -30 45 -30 43 0 45 1 45 28 0 25 -4 29 -30 29 -25
0 -30 -4 -30 -24 0 -13 -4 -22 -9 -19 -5 3 -7 15 -4 26 3 11 0 20 -6 20 -6 0
-11 -13 -11 -30z"/>
<path d="M362 985 c-11 -13 -9 -15 13 -15 16 0 25 5 23 12 -6 18 -21 19 -36 3z"/>
<path d="M410 933 c0 -51 3 -63 16 -63 13 0 15 8 12 35 -3 29 -1 35 14 35 13
0 18 8 18 28 0 25 -4 29 -30 29 l-30 0 0 -64z"/>
<path d="M530 970 c0 -24 -4 -30 -22 -30 -17 0 -19 -3 -10 -12 9 -9 15 -9 24
0 7 7 25 12 40 12 24 0 28 4 28 30 0 17 -4 30 -10 30 -5 0 -10 -5 -10 -12 0
-9 -3 -9 -12 0 -19 19 -28 14 -28 -18z"/>
<path d="M605 989 c-10 -15 0 -21 27 -17 l23 3 -22 13 c-15 8 -24 9 -28 1z"/>
<path d="M660 969 c0 -26 -3 -30 -22 -28 -37 5 -48 -9 -48 -62 0 -37 4 -49 15
-49 8 0 15 9 15 20 0 13 7 20 20 20 13 0 20 7 20 20 0 16 -7 20 -30 20 -16 0
-30 4 -30 9 0 9 71 21 121 21 26 0 29 4 29 30 0 17 -5 30 -11 30 -6 0 -9 -9
-6 -20 3 -11 1 -23 -4 -26 -5 -3 -9 6 -9 20 0 14 -4 26 -10 26 -5 0 -10 -5
-10 -12 0 -9 -3 -9 -12 0 -20 20 -28 14 -28 -19z"/>
<path d="M819 983 c-1 -10 -1 -54 -1 -98 0 -44 1 -261 1 -482 1 -262 5 -403
11 -403 7 0 10 173 10 500 0 327 -3 500 -10 500 -5 0 -10 -8 -11 -17z"/>
<path d="M485 980 c-3 -5 3 -10 14 -10 12 0 21 5 21 10 0 6 -6 10 -14 10 -8 0
-18 -4 -21 -10z"/>
<path d="M363 945 c-8 -9 -9 -16 -3 -20 6 -3 10 -1 10 4 0 6 7 11 16 11 8 0
12 5 9 10 -8 13 -18 12 -32 -5z"/>
<path d="M242 895 c0 -16 2 -22 5 -12 2 9 2 23 0 30 -3 6 -5 -1 -5 -18z"/>
<path d="M268 913 c7 -3 16 -2 19 1 4 3 -2 6 -13 5 -11 0 -14 -3 -6 -6z"/>
<path d="M311 874 l1 -49 13 40 13 40 1 -32 c1 -31 3 -33 36 -33 24 0 35 5 35
15 0 8 -9 15 -20 15 -13 0 -20 7 -20 20 0 11 -6 20 -14 20 -8 0 -21 3 -30 6
-13 5 -16 -2 -15 -42z"/>
<path d="M548 895 c-3 -14 -1 -25 3 -25 5 0 9 11 9 25 0 14 -2 25 -4 25 -2 0
-6 -11 -8 -25z"/>
<path d="M708 913 c7 -3 16 -2 19 1 4 3 -2 6 -13 5 -11 0 -14 -3 -6 -6z"/>
<path d="M752 895 c0 -16 2 -22 5 -12 2 9 2 23 0 30 -3 6 -5 -1 -5 -18z"/>
<path d="M470 860 c0 -39 3 -50 16 -50 12 0 15 7 12 30 -4 24 -1 30 14 30 11
0 18 7 18 20 0 16 -7 20 -30 20 -29 0 -30 -1 -30 -50z"/>
<path d="M681 884 c0 -11 3 -14 6 -6 3 7 2 16 -1 19 -3 4 -6 -2 -5 -13z"/>
<path d="M427 846 c-4 -11 -3 -24 2 -29 5 -5 7 -16 4 -23 -4 -11 11 -14 72
-14 57 0 76 3 72 13 -2 7 -18 11 -38 10 -19 -2 -48 -1 -66 2 -25 5 -32 11 -35
33 -3 23 -4 25 -11 8z"/>
<path d="M517 853 c-3 -5 -1 -17 4 -28 7 -17 8 -17 8 8 1 27 -4 34 -12 20z"/>
<path d="M652 839 c7 -5 36 -8 63 -8 60 1 50 6 -23 12 -32 2 -48 1 -40 -4z"/>
<path d="M253 833 c9 -2 25 -2 35 0 9 3 1 5 -18 5 -19 0 -27 -2 -17 -5z"/>
<path d="M548 833 c7 -3 16 -2 19 1 4 3 -2 6 -13 5 -11 0 -14 -3 -6 -6z"/>
<path d="M221 764 c0 -11 3 -14 6 -6 3 7 2 16 -1 19 -3 4 -6 -2 -5 -13z"/>
<path d="M771 764 c0 -11 3 -14 6 -6 3 7 2 16 -1 19 -3 4 -6 -2 -5 -13z"/>
<path d="M710 760 l-35 -7 38 -2 c20 0 37 4 37 9 0 6 -1 9 -2 9 -2 -1 -19 -5
-38 -9z"/>
<path d="M470 265 c0 -10 10 -15 30 -15 20 0 30 5 30 15 0 10 -10 15 -30 15
-20 0 -30 -5 -30 -15z"/>
</g>
</svg>
