<?xml version="1.0" standalone="no"?>
<!DOCTYPE svg PUBLIC "-//W3C//DTD SVG 20010904//EN"
 "http://www.w3.org/TR/2001/REC-SVG-20010904/DTD/svg10.dtd">
<svg version="1.0" xmlns="http://www.w3.org/2000/svg"
 width="100.000000pt" height="100.000000pt" viewBox="0 0 100.000000 100.000000"
 preserveAspectRatio="xMidYMid meet">
<metadata>
Created by potrace 1.16, written by Peter Selinger 2001-2019
</metadata>
<g transform="translate(0.000000,100.000000) scale(0.100000,-0.100000)"
fill="#000000" stroke="none">
<path d="M20 805 c0 -123 4 -195 10 -195 6 0 10 -28 10 -65 0 -37 4 -65 10
-65 6 0 10 -13 10 -30 0 -16 5 -30 10 -30 6 0 10 -13 10 -30 0 -16 5 -30 10
-30 6 0 10 -11 10 -25 0 -16 6 -25 15 -25 8 0 15 -9 15 -20 0 -11 5 -20 10
-20 6 0 10 -9 10 -20 0 -11 5 -20 10 -20 6 0 10 -7 10 -16 0 -8 18 -33 40 -54
22 -21 40 -41 40 -44 0 -16 92 -96 110 -96 11 0 20 -4 20 -10 0 -5 14 -10 30
-10 17 0 30 5 30 10 0 6 -9 10 -20 10 -11 0 -20 5 -20 10 0 6 -9 10 -20 10
-18 0 -110 80 -110 96 0 3 -18 23 -40 44 -22 21 -40 46 -40 54 0 9 -4 16 -10
16 -5 0 -10 9 -10 20 0 11 -4 20 -10 20 -5 0 -10 9 -10 20 0 11 -7 20 -15 20
-9 0 -15 9 -15 25 0 14 -4 25 -10 25 -5 0 -10 14 -10 30 0 17 -4 30 -10 30 -5
0 -10 14 -10 30 0 17 -4 30 -10 30 -6 0 -10 28 -10 65 0 37 -4 65 -10 65 -6 0
-10 68 -10 185 0 117 -4 185 -10 185 -6 0 -10 -72 -10 -195z"/>
<path d="M960 800 c0 -127 -4 -200 -10 -200 -5 0 -10 -22 -10 -50 0 -27 -4
-50 -10 -50 -5 0 -10 -18 -10 -40 0 -22 -4 -40 -10 -40 -5 0 -10 -9 -10 -20 0
-11 -4 -20 -10 -20 -5 0 -10 -16 -10 -35 0 -24 -5 -35 -15 -35 -8 0 -15 -8
-15 -18 0 -10 -9 -24 -20 -32 -11 -8 -20 -21 -20 -28 0 -7 -18 -31 -40 -52
-22 -21 -40 -41 -40 -44 0 -14 -91 -96 -105 -96 -16 0 -45 -22 -45 -34 0 -3 9
-6 20 -6 11 0 20 5 20 10 0 6 9 10 20 10 18 0 110 80 110 96 0 3 18 23 40 44
22 21 40 45 40 52 0 7 9 20 20 28 11 8 20 22 20 32 0 10 7 18 15 18 10 0 15
11 15 35 0 19 5 35 10 35 6 0 10 9 10 20 0 11 5 20 10 20 6 0 10 18 10 40 0
22 5 40 10 40 6 0 10 23 10 50 0 28 5 50 10 50 6 0 10 77 10 210 0 133 -4 210
-10 210 -6 0 -10 -73 -10 -200z"/>
<path d="M483 968 c-31 -15 -39 -62 -17 -109 20 -45 13 -62 -14 -33 -30 33
-60 44 -121 44 -116 0 -181 -65 -181 -181 0 -33 4 -59 10 -59 6 0 10 -9 10
-20 0 -24 32 -58 73 -79 15 -8 27 -22 27 -32 0 -10 5 -21 10 -24 13 -8 13
-222 0 -230 -31 -19 10 -75 55 -75 26 0 73 44 88 82 4 13 17 18 45 18 41 0 64
17 77 58 3 12 11 20 16 16 14 -8 1 -43 -26 -70 -55 -54 -39 -99 30 -88 27 4
45 2 49 -5 4 -6 23 -11 42 -11 38 0 94 44 94 74 0 8 5 18 10 21 14 9 13 128
-2 143 -9 9 -7 12 10 12 15 0 22 6 22 19 0 11 5 23 10 26 6 3 10 19 10 35 0
16 -4 32 -10 35 -5 3 -10 14 -10 24 0 10 -11 28 -25 41 -23 22 -33 24 -115 21
-83 -2 -90 -1 -90 17 0 25 25 32 126 32 93 0 114 12 92 52 -7 13 -17 26 -22
29 -4 4 -3 10 3 13 6 4 11 25 11 47 0 35 -3 39 -24 39 -14 0 -28 5 -31 10 -3
6 -26 10 -50 10 -24 0 -47 -4 -50 -10 -8 -13 -55 -13 -55 -1 0 6 5 13 10 16
20 12 10 58 -17 81 -31 26 -38 28 -70 12z m47 -38 c-10 -6 -11 -10 -2 -10 6 0
12 -9 12 -20 0 -11 -4 -20 -9 -20 -5 0 -11 -16 -13 -35 -4 -34 -3 -35 29 -35
26 0 33 -4 33 -20 0 -17 -7 -20 -40 -20 l-40 0 0 68 c0 47 -3 63 -10 52 -8
-13 -10 -12 -10 3 0 24 21 46 45 46 17 1 17 -1 5 -9z m-160 -90 c0 -5 9 -10
20 -10 26 0 70 -43 70 -67 0 -15 2 -16 10 -3 7 10 10 -8 10 -60 0 -52 -3 -70
-10 -60 -7 11 -10 6 -10 -19 0 -30 -2 -32 -12 -19 -7 9 -20 18 -28 21 -12 4
-11 6 3 6 11 1 17 9 17 27 0 14 4 23 10 19 6 -4 10 8 10 29 0 20 -4 36 -10 36
-5 0 -10 5 -10 10 0 6 -11 22 -24 35 -20 20 -35 24 -98 27 -57 2 -74 0 -71 -9
3 -7 0 -13 -6 -13 -6 0 -11 -10 -11 -22 0 -20 -1 -20 -12 -5 -11 14 -13 3 -13
-68 0 -47 2 -81 3 -75 5 13 22 13 22 -1 0 -14 25 -39 39 -39 6 0 11 -4 11 -10
0 -19 -41 -10 -65 15 -16 16 -25 36 -25 57 0 25 -3 29 -10 18 -7 -11 -10 1
-10 40 0 39 3 51 10 40 8 -12 10 -9 10 13 0 36 41 77 77 77 22 0 25 2 13 10
-11 7 0 10 38 10 28 0 52 -4 52 -10z m380 -26 c0 -8 -6 -22 -14 -30 -17 -16
-30 -19 -21 -4 4 6 -13 10 -44 10 -28 0 -51 -4 -51 -10 0 -5 -4 -10 -10 -10
-5 0 -10 14 -10 30 l0 30 75 0 c62 0 75 -3 75 -16z m-390 -54 c-10 -6 -11 -10
-2 -10 6 0 12 -9 12 -20 0 -11 4 -20 9 -20 6 0 8 9 6 20 -3 15 1 20 18 20 18
0 19 -2 7 -10 -12 -8 -11 -10 8 -10 27 0 28 -11 2 -30 -15 -11 -20 -26 -20
-57 0 -36 3 -43 20 -43 11 0 20 -4 20 -10 0 -6 27 -10 63 -10 44 0 58 3 47 10
-10 7 17 10 85 10 68 0 95 -3 85 -10 -12 -8 -11 -10 8 -10 16 0 22 -6 22 -22
0 -19 2 -20 10 -8 7 11 10 0 10 -37 0 -46 -3 -53 -20 -53 -13 0 -20 7 -20 20
0 11 5 20 10 20 6 0 10 5 10 10 0 6 -7 10 -16 10 -8 0 -12 4 -9 10 3 5 1 10
-4 10 -7 0 -11 -27 -11 -68 0 -56 3 -70 20 -82 14 -10 20 -26 20 -50 0 -26 -3
-31 -10 -20 -7 11 -10 5 -10 -23 0 -48 -36 -87 -80 -87 -16 0 -30 5 -30 10 0
6 7 10 15 10 8 0 15 5 15 10 0 6 9 10 20 10 16 0 20 7 20 33 0 24 3 28 10 17
7 -11 10 -7 10 18 0 22 -5 32 -16 32 -20 0 -44 -24 -44 -44 0 -19 -16 -21 -23
-3 -3 6 -6 -1 -6 -16 -1 -36 -26 -65 -35 -41 -3 9 -6 23 -6 32 0 13 2 13 13
-3 13 -16 14 -15 9 15 -3 21 0 36 9 42 11 7 11 11 2 15 -7 2 -13 11 -13 18 0
7 -6 15 -12 18 -18 6 -8 13 27 20 17 4 24 4 18 1 -18 -8 -16 -24 1 -24 8 0 16
-9 18 -19 3 -17 5 -18 22 -6 17 13 17 15 -7 39 -25 24 -32 26 -119 24 -75 -1
-84 -2 -48 -8 25 -4 39 -8 33 -8 -8 -1 -13 -17 -13 -38 0 -21 -4 -33 -10 -29
-5 3 -10 -1 -10 -9 0 -12 -11 -16 -50 -16 -49 0 -50 -1 -50 -30 0 -16 -5 -30
-11 -30 -5 0 -7 5 -4 10 3 6 1 10 -4 10 -6 0 -11 -10 -11 -22 0 -21 0 -21 -14
-3 -13 18 -14 18 -9 -8 4 -22 2 -27 -16 -27 -11 0 -21 5 -21 10 0 6 5 10 10
10 6 0 10 9 10 19 0 11 6 22 13 24 9 4 8 8 -3 17 -12 9 -11 10 8 5 20 -6 22
-3 22 39 0 25 -4 46 -10 46 -5 0 -10 -16 -10 -35 0 -28 -4 -35 -20 -35 -17 0
-20 7 -20 48 0 34 3 43 10 32 8 -12 10 -11 10 6 0 12 6 24 14 27 10 4 12 0 8
-16 -3 -12 -2 -19 3 -15 10 10 38 -19 30 -32 -3 -5 -1 -10 4 -10 6 0 11 16 11
35 0 24 -5 35 -15 35 -8 0 -15 5 -15 10 0 6 -9 10 -20 10 -14 0 -20 7 -20 23
0 18 -2 19 -10 7 -7 -11 -10 -3 -11 30 -1 38 -2 41 -9 20 -6 -17 -8 -2 -9 53
l-1 77 -30 0 c-27 0 -30 3 -30 30 0 17 5 30 10 30 6 0 10 14 10 30 l0 30 63 0
c44 0 58 -3 47 -10z m165 -20 c-16 -7 -13 -9 18 -9 30 -1 37 -5 37 -21 0 -16
-7 -20 -30 -20 -29 0 -30 -1 -30 -50 0 -27 -4 -50 -10 -50 -6 0 -10 33 -10 80
0 77 1 80 23 79 21 0 21 -1 2 -9z m205 -12 c0 -19 2 -20 10 -8 8 12 10 11 10
-7 0 -16 -6 -23 -20 -23 -11 0 -20 5 -20 10 0 6 -20 10 -45 10 -25 0 -45 -4
-45 -10 0 -5 -4 -10 -10 -10 -5 0 -10 14 -10 30 l0 30 65 0 c61 0 65 -1 65
-22z m33 -285 c-7 -2 -19 -2 -25 0 -7 3 -2 5 12 5 14 0 19 -2 13 -5z m-183
-213 c0 -13 -7 -20 -20 -20 -13 0 -20 7 -20 20 0 13 7 20 20 20 13 0 20 -7 20
-20z"/>
<path d="M318 823 c6 -2 18 -2 25 0 6 3 1 5 -13 5 -14 0 -19 -2 -12 -5z"/>
<path d="M264 745 c-3 -8 -4 -20 -1 -27 3 -7 6 -3 6 9 1 12 7 24 14 26 9 4 9
6 -1 6 -7 1 -15 -6 -18 -14z"/>
<path d="M290 720 c0 -5 9 -10 20 -10 11 0 20 5 20 10 0 6 -9 10 -20 10 -11 0
-20 -4 -20 -10z"/>
<path d="M370 658 c0 -36 4 -35 14 5 4 16 2 27 -4 27 -5 0 -10 -14 -10 -32z"/>
<path d="M588 433 c6 -2 18 -2 25 0 6 3 1 5 -13 5 -14 0 -19 -2 -12 -5z"/>
<path d="M439 373 c0 -25 -1 -26 -9 -8 -8 18 -9 17 -9 -7 -1 -22 4 -28 19 -28
11 0 20 5 20 10 0 6 9 10 20 10 15 0 20 7 20 25 0 21 -5 25 -30 25 -26 0 -30
-4 -31 -27z"/>
<path d="M575 640 c-4 -6 20 -10 65 -10 45 0 69 4 65 10 -3 6 -33 10 -65 10
-32 0 -62 -4 -65 -10z"/>
</g>
</svg>
