<?xml version="1.0" standalone="no"?>
<!DOCTYPE svg PUBLIC "-//W3C//DTD SVG 20010904//EN"
 "http://www.w3.org/TR/2001/REC-SVG-20010904/DTD/svg10.dtd">
<svg version="1.0" xmlns="http://www.w3.org/2000/svg"
 width="256.000000pt" height="256.000000pt" viewBox="0 0 256.000000 256.000000"
 preserveAspectRatio="xMidYMid meet">
<metadata>
Created by potrace 1.16, written by Peter Selinger 2001-2019
</metadata>
<g transform="translate(0.000000,256.000000) scale(0.100000,-0.100000)"
fill="#000000" stroke="none">
<path d="M400 1960 l0 -320 75 0 74 0 3 113 3 112 55 -112 55 -113 61 0 62 0
54 98 c29 53 58 108 65 122 9 21 12 4 12 -98 l1 -123 88 3 87 3 0 315 0 315
-72 3 -71 3 -55 -108 c-116 -227 -144 -275 -153 -261 -5 7 -50 92 -100 188
l-91 175 -77 3 -76 3 0 -321z m241 84 l112 -216 111 216 111 216 48 -2 47 -3
3 -298 2 -297 -68 0 -69 0 2 158 c1 86 1 160 1 164 -1 4 -30 -48 -65 -115
-114 -219 -105 -207 -151 -206 l-40 0 -74 157 c-41 86 -77 160 -80 164 -3 4
-4 -67 -2 -157 l3 -165 -56 0 -56 0 0 300 0 300 54 0 55 0 112 -216z"/>
<path d="M1165 2258 c-3 -13 -4 -156 -3 -318 l3 -295 85 0 85 0 0 315 0 315
-82 3 c-79 3 -83 2 -88 -20z m145 -298 l0 -300 -60 0 -60 0 0 300 0 300 60 0
60 0 0 -300z"/>
<path d="M1407 2273 c-4 -3 -7 -147 -7 -320 l0 -313 75 0 74 0 3 151 3 151
128 -152 129 -151 51 3 52 3 0 315 0 315 -72 3 -72 3 -3 -147 -3 -147 -120
146 -120 147 -56 0 c-31 0 -59 -3 -62 -7z m213 -154 c63 -78 126 -157 140
-177 l25 -36 3 177 2 177 50 0 50 0 0 -300 0 -300 -28 0 c-24 0 -48 23 -158
153 -71 83 -139 164 -149 179 -11 15 -22 28 -25 28 -3 0 -4 -81 -2 -180 l3
-180 -53 0 -53 0 2 297 c2 164 3 299 3 301 0 1 17 2 38 1 35 0 42 -6 152 -140z"/>
<path d="M1985 2258 c-3 -13 -4 -156 -3 -318 l3 -295 83 -3 82 -3 0 321 0 320
-80 0 c-74 0 -80 -2 -85 -22z m145 -298 l0 -300 -60 0 -60 0 0 300 0 300 60 0
60 0 0 -300z"/>
<path d="M1513 1446 c-38 -17 -53 -43 -53 -91 0 -71 33 -104 103 -105 67 0 97
30 97 99 0 38 -6 56 -22 75 -28 31 -82 41 -125 22z m104 -42 c63 -64 -23 -170
-95 -117 -40 30 -43 93 -6 122 36 28 69 27 101 -5z"/>
<path d="M546 1425 c-99 -27 -136 -79 -136 -190 0 -105 20 -130 165 -200 101
-49 115 -59 115 -81 0 -35 -57 -58 -120 -50 -25 3 -68 9 -97 12 l-52 7 -6 -35
c-4 -19 -5 -50 -3 -68 3 -31 7 -35 53 -47 79 -22 239 -13 298 16 82 40 127
154 97 245 -16 48 -84 106 -167 141 -87 37 -112 55 -113 81 0 35 46 48 149 40
52 -4 91 -4 95 2 3 5 8 34 12 64 l6 55 -57 11 c-75 15 -177 14 -239 -3z m234
-23 l36 -7 -9 -43 -8 -42 -42 7 c-65 12 -139 8 -172 -8 -23 -11 -31 -22 -33
-47 -5 -45 10 -59 108 -104 141 -65 180 -106 180 -188 0 -81 -53 -149 -132
-171 -47 -12 -157 -15 -209 -4 -72 14 -71 13 -64 58 4 23 9 43 10 45 2 2 23
-2 46 -8 24 -7 73 -12 108 -12 79 0 115 22 119 74 4 43 -12 58 -108 99 -127
53 -180 107 -180 183 0 78 49 142 128 166 33 10 175 11 222 2z"/>
<path d="M1052 1421 c-97 -33 -144 -101 -162 -233 -20 -145 15 -300 83 -366
61 -60 182 -79 280 -46 62 21 122 89 144 163 25 81 24 258 -1 330 -27 79 -96
145 -165 160 -72 15 -117 13 -179 -8z m180 -21 c51 -15 88 -48 123 -112 29
-51 30 -58 30 -183 0 -114 -3 -136 -23 -181 -42 -93 -108 -135 -213 -135 -161
-1 -247 125 -237 346 5 105 27 163 82 218 20 20 51 41 69 46 44 13 124 13 169
1z"/>
<path d="M1093 1315 c-39 -27 -55 -90 -56 -210 0 -159 37 -235 114 -235 30 0
43 7 67 35 38 43 47 83 47 210 -1 113 -15 165 -52 195 -30 24 -89 26 -120 5z
m98 -33 c34 -31 48 -79 49 -174 1 -125 -35 -208 -90 -208 -54 0 -90 82 -90
205 0 90 18 151 52 180 37 31 41 31 79 -3z"/>
<path d="M1796 1424 c-3 -9 -6 -35 -6 -59 0 -78 -8 -75 186 -75 l174 0 0 75 0
75 -174 0 c-149 0 -175 -2 -180 -16z m334 -61 l0 -53 -155 0 -155 0 0 53 0 52
155 0 155 0 0 -52z"/>
<path d="M1464 1145 c-17 -69 28 -203 93 -275 80 -89 207 -134 314 -111 173
37 277 156 287 329 l5 83 -69 -3 -69 -3 -6 -50 c-10 -88 -50 -150 -120 -185
-45 -24 -128 -26 -167 -6 -64 34 -122 121 -122 185 0 56 -7 61 -76 61 -60 0
-64 -2 -70 -25z m116 -31 c0 -157 175 -278 318 -219 78 33 152 141 152 223 0
25 3 27 45 27 42 0 45 -2 45 -27 0 -98 -65 -223 -143 -277 -119 -82 -285 -73
-391 20 -58 51 -106 147 -113 225 l-5 59 46 0 c45 0 46 -1 46 -31z"/>
<path d="M995 604 c-340 -35 -635 -111 -883 -229 -88 -43 -112 -58 -112 -74 0
-19 2 -19 48 8 232 136 601 238 982 271 514 44 1091 -56 1456 -251 65 -35 74
-38 74 -21 0 39 -307 164 -545 223 -234 57 -361 71 -685 74 -162 2 -313 1
-335 -1z"/>
<path d="M1642 290 c2 -94 6 -123 18 -130 26 -17 50 -12 50 10 0 11 -4 20 -10
20 -6 0 -10 43 -10 110 l0 110 -26 0 -26 0 4 -120z"/>
<path d="M1744 395 c-10 -24 12 -42 34 -29 24 16 21 38 -6 42 -13 2 -25 -3
-28 -13z"/>
<path d="M650 377 c0 -8 -15 -62 -34 -120 l-34 -107 23 0 c18 0 25 7 30 30 6
28 10 30 50 30 39 0 43 -2 49 -30 4 -23 11 -30 30 -30 l24 0 -34 107 c-19 58
-34 112 -34 120 0 8 -12 13 -35 13 -23 0 -35 -5 -35 -13z m60 -122 c0 -5 -14
-10 -31 -11 -23 -1 -29 2 -24 14 3 8 11 35 17 61 l12 46 13 -50 c7 -27 13 -54
13 -60z"/>
<path d="M1190 365 c0 -16 -6 -25 -15 -25 -8 0 -15 -9 -15 -20 0 -11 6 -20 13
-20 8 0 12 -19 12 -61 0 -68 16 -89 67 -89 21 0 28 5 28 20 0 15 -7 20 -25 20
-24 0 -25 3 -25 59 0 57 1 58 25 53 20 -3 25 0 25 17 0 16 -6 21 -25 21 -20 0
-25 5 -25 25 0 18 -5 25 -20 25 -15 0 -20 -7 -20 -25z"/>
<path d="M810 286 c0 -83 10 -116 37 -129 20 -9 31 -8 54 5 24 14 29 15 29 3
0 -8 9 -15 20 -15 19 0 20 7 20 95 0 94 0 95 -25 95 -23 0 -24 -3 -27 -72 -3
-70 -4 -73 -28 -73 -24 0 -25 3 -28 73 -3 69 -4 72 -27 72 -23 0 -25 -3 -25
-54z"/>
<path d="M1032 324 c-36 -25 -26 -64 22 -89 22 -11 41 -26 43 -32 6 -17 -33
-26 -58 -13 -27 15 -50 -3 -30 -22 20 -21 100 -16 117 7 24 32 13 58 -33 80
-43 20 -55 41 -29 51 8 3 23 1 34 -5 15 -8 23 -7 32 4 10 12 7 16 -15 25 -37
14 -57 13 -83 -6z"/>
<path d="M1310 245 c0 -95 0 -95 25 -95 24 0 25 2 25 64 0 67 15 94 45 82 8
-3 15 -1 15 3 0 5 3 16 6 25 9 24 -25 20 -53 -6 l-23 -21 0 21 c0 15 -6 22
-20 22 -19 0 -20 -7 -20 -95z"/>
<path d="M1478 327 c-37 -16 -23 -33 26 -32 47 0 60 -21 19 -31 -50 -11 -73
-32 -73 -64 0 -43 40 -61 81 -38 24 14 29 15 29 3 0 -9 9 -15 21 -15 20 0 21
4 17 76 -3 65 -7 79 -27 95 -26 22 -54 23 -93 6z m70 -109 c-2 -17 -11 -24
-30 -26 -19 -2 -28 1 -28 10 0 20 21 38 43 38 13 0 18 -6 15 -22z"/>
<path d="M1740 245 c0 -95 0 -95 25 -95 25 0 25 0 25 95 0 95 0 95 -25 95 -25
0 -25 0 -25 -95z"/>
<path d="M1868 327 c-37 -16 -23 -33 26 -32 47 0 60 -21 19 -31 -50 -11 -73
-32 -73 -64 0 -43 40 -61 81 -38 24 14 29 15 29 3 0 -9 9 -15 21 -15 20 0 21
4 17 76 -3 65 -7 79 -27 95 -26 22 -54 23 -93 6z m70 -109 c-2 -17 -11 -24
-30 -26 -19 -2 -28 1 -28 10 0 20 21 38 43 38 13 0 18 -6 15 -22z"/>
</g>
</svg>
