<?xml version="1.0" standalone="no"?>
<!DOCTYPE svg PUBLIC "-//W3C//DTD SVG 20010904//EN"
 "http://www.w3.org/TR/2001/REC-SVG-20010904/DTD/svg10.dtd">
<svg version="1.0" xmlns="http://www.w3.org/2000/svg"
 width="256.000000pt" height="256.000000pt" viewBox="0 0 256.000000 256.000000"
 preserveAspectRatio="xMidYMid meet">
<metadata>
Created by potrace 1.16, written by Peter Selinger 2001-2019
</metadata>
<g transform="translate(0.000000,256.000000) scale(0.100000,-0.100000)"
fill="#000000" stroke="none">
<path d="M860 2530 c0 -28 -2 -30 -40 -30 l-40 0 0 -80 0 -80 -280 0 -280 0 0
-1170 c0 -773 3 -1170 10 -1170 7 0 10 393 10 1160 l0 1160 280 0 280 0 0 80
0 80 40 0 40 0 0 40 c0 22 -4 40 -10 40 -5 0 -10 -13 -10 -30z"/>
<path d="M1680 2520 l0 -40 40 0 40 0 0 -80 0 -80 280 0 280 0 0 -1160 c0
-767 3 -1160 10 -1160 7 0 10 397 10 1170 l0 1170 -280 0 -280 0 0 80 0 80
-40 0 c-38 0 -40 2 -40 30 0 17 -4 30 -10 30 -5 0 -10 -18 -10 -40z"/>
<path d="M1040 2360 l0 -40 240 0 240 0 0 40 0 40 -240 0 -240 0 0 -40z m460
0 c0 -19 -7 -20 -220 -20 -213 0 -220 1 -220 20 0 19 7 20 220 20 213 0 220
-1 220 -20z"/>
<path d="M460 1480 l0 -300 220 0 220 0 0 45 c0 38 3 45 20 45 17 0 20 -7 20
-45 l0 -45 300 0 300 0 0 85 c0 78 2 85 20 85 15 0 20 -7 20 -29 0 -36 23 -61
55 -61 20 0 24 -6 27 -37 l3 -38 218 -3 217 -2 0 300 0 300 -200 0 c-189 0
-201 -1 -221 -21 -14 -14 -20 -31 -18 -57 4 -67 0 -82 -19 -82 -15 0 -20 12
-28 72 l-9 73 -40 7 c-22 4 -172 7 -332 7 l-293 1 0 -40 0 -40 -40 0 -40 0 0
-80 0 -80 -60 0 -60 0 0 64 c0 71 -14 96 -56 96 -21 0 -24 4 -24 40 l0 40
-100 0 -100 0 0 -300z m180 160 l0 -120 36 0 c21 0 33 4 29 10 -3 6 -14 10
-24 10 -13 0 -20 9 -23 30 -4 28 -3 30 29 30 l33 0 0 -120 0 -120 -36 0 c-21
0 -33 -4 -29 -10 3 -5 15 -10 26 -10 10 0 19 -6 19 -14 0 -8 3 -21 6 -30 5
-13 -1 -16 -30 -16 l-36 0 0 80 0 80 -40 0 -40 0 0 -120 0 -120 -40 0 -40 0 0
280 0 280 80 0 80 0 0 -120z m480 -160 l0 -280 -80 0 -80 0 0 120 0 120 -40 0
-40 0 0 80 0 80 40 0 40 0 0 80 0 80 80 0 80 0 0 -280z m60 0 c0 -273 0 -280
-20 -280 -20 0 -20 7 -20 280 0 273 0 280 20 280 20 0 20 -7 20 -280z m340
240 l0 -40 40 0 40 0 0 -40 0 -40 40 0 40 0 0 -80 0 -80 -30 0 c-16 0 -30 -4
-30 -10 0 -5 9 -10 20 -10 13 0 20 -7 20 -20 0 -11 5 -20 10 -20 6 0 10 14 10
30 0 28 2 30 40 30 l40 0 0 160 0 160 40 0 40 0 0 -280 0 -280 -40 0 -40 0 0
40 0 40 -40 0 -40 0 0 40 0 40 -40 0 -40 0 0 40 0 40 -40 0 -40 0 0 -120 0
-120 -40 0 -40 0 0 275 c0 177 -4 275 -10 275 -5 0 -10 -11 -10 -25 0 -18 -5
-25 -20 -25 -13 0 -20 7 -20 20 0 11 -4 20 -10 20 -5 0 -10 -13 -10 -30 0 -27
3 -30 30 -30 l29 0 3 -240 3 -240 -112 0 -113 0 0 280 0 280 160 0 160 0 0
-40z m80 10 c0 -27 -3 -30 -30 -30 -27 0 -30 3 -30 30 0 27 3 30 30 30 27 0
30 -3 30 -30z m140 -80 c0 -103 -1 -110 -20 -110 -17 0 -20 7 -20 40 0 22 -4
40 -10 40 -6 0 -10 30 -10 70 l0 70 30 0 30 0 0 -110z m162 75 c-3 -26 -9 -35
-23 -35 -15 0 -19 7 -19 35 0 30 3 35 23 35 20 0 23 -4 19 -35z m178 -245 l0
-280 -80 0 -80 0 0 280 0 280 80 0 80 0 0 -280z m-1360 170 c0 -27 -3 -30 -30
-30 -27 0 -30 3 -30 30 0 27 3 30 30 30 27 0 30 -3 30 -30z m220 1 c0 -24 -5
-29 -30 -33 -28 -4 -30 -3 -30 29 0 30 3 33 30 33 26 0 30 -3 30 -29z m962
-211 l3 -240 -22 0 -23 0 0 240 c0 232 1 240 20 240 19 0 19 -9 22 -240z
m-1120 50 c-3 -21 -10 -30 -23 -30 -14 0 -19 7 -19 30 0 25 4 30 23 30 20 0
23 -4 19 -30z m78 0 c0 -27 -3 -30 -30 -30 -27 0 -30 3 -30 30 0 27 3 30 30
30 27 0 30 -3 30 -30z m882 0 c-3 -20 -10 -30 -22 -30 -12 0 -19 10 -22 30 -4
27 -2 30 22 30 24 0 26 -3 22 -30z m-862 -170 l0 -120 -33 0 c-32 0 -33 2 -29
30 3 24 9 30 28 30 13 0 24 5 24 10 0 6 -16 10 -35 10 -34 0 -35 -1 -35 -40
l0 -40 -40 0 -40 0 0 80 0 80 40 0 c38 0 40 2 40 30 0 17 -4 30 -10 30 -5 0
-10 -9 -10 -20 0 -13 -7 -20 -20 -20 -11 0 -20 6 -20 14 0 8 -3 21 -6 30 -5
14 5 16 70 16 l76 0 0 -120z m-260 70 c0 -23 -4 -30 -20 -30 -16 0 -20 7 -20
30 0 23 4 30 20 30 16 0 20 -7 20 -30z m322 0 c4 -27 2 -30 -22 -30 -24 0 -26
3 -22 30 3 20 10 30 22 30 12 0 19 -10 22 -30z m638 0 c0 -23 -4 -30 -20 -30
-16 0 -20 7 -20 30 0 23 4 30 20 30 16 0 20 -7 20 -30z m-960 -85 c0 -19 5
-35 10 -35 6 0 10 -11 10 -25 0 -14 5 -25 10 -25 6 0 10 9 10 20 0 13 7 20 20
20 16 0 20 -7 20 -30 l0 -30 -62 0 -63 0 3 70 c3 61 6 70 23 70 15 0 19 -7 19
-35z m320 5 c0 -23 -4 -30 -20 -30 -16 0 -20 7 -20 30 0 23 4 30 20 30 16 0
20 -7 20 -30z m720 0 c0 -27 -3 -30 -30 -30 -27 0 -30 3 -30 30 0 27 3 30 30
30 27 0 30 -3 30 -30z m80 -80 c0 -27 -3 -30 -30 -30 -27 0 -30 3 -30 30 0 27
3 30 30 30 27 0 30 -3 30 -30z"/>
<path d="M560 1716 c0 -35 1 -36 36 -36 21 0 33 4 29 10 -3 6 -15 10 -26 10
-12 0 -19 7 -19 19 0 11 -4 23 -10 26 -6 4 -10 -8 -10 -29z"/>
<path d="M500 1690 c0 -5 12 -10 26 -10 14 0 23 4 19 10 -3 6 -15 10 -26 10
-10 0 -19 -4 -19 -10z"/>
<path d="M556 1604 c-18 -17 -21 -60 -6 -69 6 -4 10 8 10 29 0 33 2 36 30 36
17 0 30 5 30 10 0 16 -47 12 -64 -6z"/>
<path d="M560 1491 c0 -17 5 -31 10 -31 6 0 10 9 10 20 0 13 7 20 20 20 13 0
20 -7 20 -20 0 -11 5 -20 11 -20 6 0 9 12 7 28 -3 23 -8 27 -40 30 -36 3 -38
2 -38 -27z"/>
<path d="M668 1443 c6 -2 18 -2 25 0 6 3 1 5 -13 5 -14 0 -19 -2 -12 -5z"/>
<path d="M1040 1720 c0 -15 -7 -20 -29 -20 -17 0 -33 -4 -36 -10 -4 -6 8 -10
29 -10 l36 0 0 -230 c0 -152 4 -230 10 -230 7 0 10 76 8 230 l-3 230 23 0 c12
0 22 5 22 10 0 6 -9 10 -20 10 -13 0 -20 7 -20 20 0 11 -4 20 -10 20 -5 0 -10
-9 -10 -20z"/>
<path d="M947 1583 c-4 -3 -7 -15 -7 -25 0 -11 -7 -18 -20 -18 -11 0 -20 -4
-20 -10 0 -5 14 -10 30 -10 28 0 30 3 30 35 0 36 -2 40 -13 28z"/>
<path d="M988 1513 c6 -2 18 -2 25 0 6 3 1 5 -13 5 -14 0 -19 -2 -12 -5z"/>
<path d="M952 1480 c0 -14 2 -19 5 -12 2 6 2 18 0 25 -3 6 -5 1 -5 -13z"/>
<path d="M988 1433 c6 -2 18 -2 25 0 6 3 1 5 -13 5 -14 0 -19 -2 -12 -5z"/>
<path d="M1280 1480 c0 -173 4 -270 10 -270 6 0 10 85 10 235 l0 235 26 0 c14
0 23 4 19 10 -3 6 -15 10 -26 10 -14 0 -19 7 -19 25 0 14 -4 25 -10 25 -6 0
-10 -97 -10 -270z"/>
<path d="M1220 1690 c0 -5 9 -10 20 -10 11 0 20 5 20 10 0 6 -9 10 -20 10 -11
0 -20 -4 -20 -10z"/>
<path d="M1460 1690 c0 -5 9 -10 20 -10 11 0 20 5 20 10 0 6 -9 10 -20 10 -11
0 -20 -4 -20 -10z"/>
<path d="M1780 1690 c0 -5 9 -10 20 -10 11 0 20 5 20 10 0 6 -9 10 -20 10 -11
0 -20 -4 -20 -10z"/>
<path d="M1360 1446 c0 -144 4 -226 10 -226 6 0 10 80 10 219 0 136 -4 222
-10 226 -7 4 -10 -72 -10 -219z"/>
<path d="M1520 1636 c0 -33 2 -36 30 -36 17 0 30 5 30 10 0 6 -9 10 -20 10
-13 0 -20 7 -20 19 0 11 -4 23 -10 26 -6 4 -10 -8 -10 -29z"/>
<path d="M1600 1556 c0 -35 -1 -36 -40 -36 -39 0 -40 -1 -40 -36 0 -21 4 -33
10 -29 6 3 10 15 10 26 0 12 7 19 20 19 13 0 20 -7 20 -19 0 -11 5 -23 10 -26
6 -4 10 8 10 29 0 35 1 36 36 36 21 0 33 4 29 10 -3 6 -15 10 -26 10 -12 0
-19 7 -19 19 0 11 -4 23 -10 26 -6 4 -10 -8 -10 -29z"/>
<path d="M1460 1510 c0 -5 9 -10 19 -10 11 0 23 5 26 10 4 6 -5 10 -19 10 -14
0 -26 -4 -26 -10z"/>
<path d="M1700 1350 c0 -5 9 -10 20 -10 13 0 20 -7 20 -20 0 -11 5 -20 10 -20
6 0 10 14 10 30 0 27 -3 30 -30 30 -16 0 -30 -4 -30 -10z"/>
<path d="M1780 1270 c0 -5 9 -10 20 -10 11 0 20 5 20 10 0 6 -9 10 -20 10 -11
0 -20 -4 -20 -10z"/>
<path d="M1980 1720 c0 -13 -7 -20 -20 -20 -11 0 -20 -4 -20 -10 0 -5 9 -10
20 -10 19 0 20 -7 20 -230 0 -147 4 -230 10 -230 6 0 10 93 10 260 0 167 -4
260 -10 260 -5 0 -10 -9 -10 -20z"/>
<path d="M2015 1690 c-4 -6 5 -10 19 -10 14 0 26 5 26 10 0 6 -9 10 -19 10
-11 0 -23 -4 -26 -10z"/>
<path d="M828 1363 c6 -2 18 -2 25 0 6 3 1 5 -13 5 -14 0 -19 -2 -12 -5z"/>
<path d="M800 1326 c0 -14 5 -26 10 -26 6 0 10 9 10 19 0 11 -4 23 -10 26 -6
4 -10 -5 -10 -19z"/>
<path d="M629 1055 c-1 -3 -3 -9 -4 -15 -1 -5 -3 -21 -4 -35 -1 -24 -3 -25
-81 -25 l-80 0 0 -168 c0 -117 4 -172 12 -180 7 -7 40 -12 80 -12 61 0 68 -2
68 -20 0 -17 -8 -19 -77 -22 l-78 -3 -3 -98 -3 -97 218 2 218 3 3 78 c3 69 5
77 22 77 18 0 20 -7 20 -80 l0 -80 220 0 220 0 0 80 0 80 60 0 60 0 0 -64 c0
-92 6 -96 140 -96 105 0 109 -1 113 -22 l4 -23 2 23 c1 19 7 22 41 22 38 0 40
-2 40 -29 0 -29 -2 -30 -50 -34 l-50 -4 52 1 c52 1 53 1 56 34 l3 32 85 0 84
0 0 40 0 40 40 0 40 0 0 164 c0 136 -3 167 -16 180 -17 17 -57 20 -89 6 -15
-6 -6 -9 33 -9 51 -1 52 -2 52 -31 0 -28 -2 -30 -40 -30 -36 0 -40 2 -40 26 0
14 -4 23 -10 19 -5 -3 -10 -15 -10 -25 0 -14 -9 -20 -37 -22 l-38 -3 -3 -77
-3 -78 -104 0 c-100 0 -104 1 -108 23 l-4 22 -2 -22 c-1 -19 -7 -23 -31 -23
-27 0 -30 3 -30 29 0 23 5 31 23 34 21 4 21 4 1 6 -19 1 -22 9 -26 57 -3 31
-3 78 0 105 4 47 5 48 41 51 l36 3 0 55 0 55 -37 3 c-37 3 -38 4 -38 43 l0 39
-88 0 c-55 0 -92 -4 -100 -12 -7 -7 -12 -40 -12 -80 0 -61 -2 -68 -20 -68 -17
0 -20 7 -20 40 l0 40 -80 0 c-78 0 -80 1 -81 25 -1 14 -2 31 -3 38 -1 8 -19
12 -56 12 -37 0 -55 -4 -56 -12 -1 -7 -2 -24 -3 -38 -1 -24 -3 -25 -81 -25
l-80 0 0 -45 c0 -38 -3 -45 -20 -45 -17 0 -20 7 -20 45 l0 45 -40 0 c-36 0
-40 3 -41 25 -1 14 -2 31 -3 38 -1 8 -29 13 -93 15 -51 1 -94 0 -94 -3z m171
-45 l0 -30 -80 0 -80 0 0 30 0 30 80 0 80 0 0 -30z m400 0 c0 -28 -2 -30 -40
-30 -38 0 -40 2 -40 30 0 28 2 30 40 30 38 0 40 -2 40 -30z m400 -3 c0 -32 -1
-32 -40 -29 -35 4 -40 7 -40 29 0 13 -4 21 -10 18 -5 -3 -10 -15 -10 -26 0
-14 -7 -19 -30 -19 -27 0 -30 3 -30 30 l0 30 80 0 80 0 0 -33z m-1058 -77 c-3
-24 -9 -30 -28 -30 -13 0 -24 -4 -24 -10 0 -5 16 -10 35 -10 34 0 35 -1 35
-40 0 -38 -2 -40 -30 -40 -16 0 -30 -4 -30 -10 0 -5 9 -10 20 -10 13 0 20 -7
20 -20 0 -11 5 -20 10 -20 6 0 10 14 10 30 0 27 3 30 30 30 17 0 30 5 30 10 0
6 -9 10 -20 10 -13 0 -20 7 -20 20 0 13 7 20 19 20 11 0 23 5 26 10 4 6 -8 10
-29 10 -35 0 -36 1 -36 40 l0 40 160 0 160 0 0 -40 0 -40 -120 0 -120 0 0 -80
0 -80 -36 0 c-21 0 -33 -4 -29 -10 3 -5 15 -10 26 -10 12 0 19 -7 19 -20 0
-11 5 -20 10 -20 6 0 10 14 10 30 l0 30 80 0 80 0 0 -40 0 -40 40 0 40 0 0
-80 0 -80 -40 0 -40 0 0 -40 0 -40 -160 0 -160 0 0 40 0 40 120 0 120 0 0 80
0 80 -80 0 -80 0 0 40 0 40 -40 0 -40 0 0 120 0 120 33 0 c32 0 33 -2 29 -30z
m480 1 c-3 -23 -10 -30 -33 -33 -27 -4 -29 -2 -29 29 0 31 2 33 33 33 31 0 33
-2 29 -29z m258 -11 l0 -40 -120 0 -120 0 0 40 0 40 120 0 120 0 0 -40z m80 7
c0 -31 -2 -33 -29 -29 -23 3 -30 10 -33 33 -4 27 -2 29 29 29 31 0 33 -2 33
-33z m240 -7 l0 -40 -80 0 -80 0 0 40 0 40 80 0 80 0 0 -40z m80 0 c0 -38 -2
-40 -30 -40 -28 0 -30 2 -30 40 0 38 2 40 30 40 28 0 30 -2 30 -40z m-740 -70
c0 -27 -3 -30 -30 -30 -22 0 -30 5 -30 18 0 10 5 23 12 30 7 7 20 12 30 12 13
0 18 -8 18 -30z m100 -170 l0 -200 -40 0 -40 0 0 200 0 200 40 0 40 0 0 -200z
m320 0 l0 -200 -40 0 -40 0 0 200 0 200 40 0 40 0 0 -200z m60 170 c0 -23 -4
-30 -20 -30 -16 0 -20 7 -20 30 0 23 4 30 20 30 16 0 20 -7 20 -30z m-300
-175 l0 -195 40 0 40 0 0 196 c0 175 2 195 16 190 9 -3 22 -6 29 -6 7 0 15
-13 17 -30 4 -27 2 -30 -24 -30 -17 0 -27 -4 -23 -10 3 -5 15 -10 26 -10 14 0
19 -7 19 -30 0 -24 -4 -30 -22 -31 l-23 -2 23 -4 c30 -6 32 -53 2 -53 -11 0
-20 -4 -20 -10 0 -5 9 -10 20 -10 16 0 20 -7 20 -30 0 -25 -4 -30 -25 -30 -14
0 -25 -4 -25 -10 0 -5 14 -10 31 -10 24 0 30 -3 25 -16 -3 -9 -6 -22 -6 -30 0
-8 -9 -14 -19 -14 -11 0 -23 -4 -26 -10 -4 -6 8 -10 29 -10 35 0 36 -1 36 -40
l0 -40 -120 0 -120 0 0 40 c0 39 1 40 36 40 21 0 33 4 29 10 -3 6 -15 10 -26
10 -10 0 -19 6 -19 14 0 8 -3 21 -6 30 -5 13 1 16 25 16 17 0 31 5 31 10 0 6
-11 10 -25 10 -21 0 -25 5 -25 30 0 23 4 30 20 30 11 0 20 5 20 10 0 6 -9 10
-20 10 -30 0 -28 50 3 51 l22 2 -22 4 c-31 6 -34 63 -4 63 11 0 23 5 26 10 4
6 -6 10 -23 10 -26 0 -28 3 -24 29 4 28 8 31 55 40 4 0 7 -87 7 -194z m380
159 c0 -13 5 -24 10 -24 6 0 10 11 10 24 0 21 6 24 40 28 39 3 40 3 40 -29 l0
-33 -80 0 -80 0 0 33 c0 32 2 33 30 29 24 -3 30 -9 30 -28z m-634 -5 c-3 -17
-6 -44 -6 -60 0 -24 -4 -29 -24 -29 -21 0 -25 6 -28 33 -3 32 -3 32 -75 41
-61 8 -73 12 -73 28 0 16 10 18 106 18 l107 0 -7 -31z m314 -149 c0 -173 -1
-180 -20 -180 -19 0 -20 7 -20 180 0 173 1 180 20 180 19 0 20 -7 20 -180z
m-460 87 c0 -31 -2 -33 -29 -29 -23 3 -30 10 -33 33 -4 27 -2 29 29 29 31 0
33 -2 33 -33z m80 3 c0 -27 -3 -30 -30 -30 -27 0 -30 3 -30 30 0 27 3 30 30
30 27 0 30 -3 30 -30z m140 -5 c0 -29 -4 -35 -22 -36 l-23 -2 23 -4 c18 -4 22
-11 22 -44 0 -35 -3 -39 -25 -39 -20 0 -27 6 -31 30 -7 34 -24 41 -24 10 0
-34 -37 -25 -42 10 -4 28 -3 30 29 30 32 0 33 1 33 40 0 38 2 40 30 40 28 0
30 -3 30 -35z m500 -5 l0 -40 80 0 80 0 0 -80 0 -80 40 0 40 0 0 -40 c0 -38
-2 -40 -30 -40 -16 0 -30 -4 -30 -10 0 -5 9 -10 20 -10 13 0 20 -7 20 -20 0
-11 5 -20 10 -20 6 0 10 14 10 30 l0 30 120 0 120 0 0 -40 0 -40 -160 0 -160
0 0 40 0 40 -40 0 -40 0 0 80 0 80 30 0 c17 0 30 5 30 10 0 6 -11 10 -24 10
-18 0 -26 7 -29 23 -3 16 -5 13 -6 -10 -1 -32 -3 -33 -41 -33 -39 0 -40 1 -40
35 0 19 -5 35 -11 35 -7 0 -10 -14 -7 -35 4 -31 1 -35 -19 -35 -20 0 -23 5
-23 40 0 37 2 40 28 41 l27 2 -27 4 c-24 4 -28 9 -28 39 0 31 2 34 30 34 28 0
30 -2 30 -40z m160 0 c0 -18 -7 -20 -70 -20 -63 0 -70 2 -70 20 0 18 7 20 70
20 63 0 70 -2 70 -20z m380 -69 c0 -24 -5 -29 -30 -33 -28 -4 -30 -3 -30 29 0
30 3 33 30 33 26 0 30 -3 30 -29z m100 -51 l0 -80 -40 0 -40 0 0 80 0 80 40 0
40 0 0 -80z m-1540 30 c0 -27 -3 -30 -30 -30 -27 0 -30 3 -30 30 0 27 3 30 30
30 27 0 30 -3 30 -30z m1446 -46 c-3 -9 -6 -22 -6 -30 0 -8 -9 -14 -19 -14
-11 0 -23 -4 -26 -10 -4 -6 8 -10 29 -10 35 0 36 -1 36 -40 l0 -40 -40 0 -40
0 0 80 0 80 36 0 c29 0 35 -3 30 -16z m-484 -35 l5 -29 -64 0 -63 0 0 30 c0
23 4 30 20 30 13 0 20 -7 20 -20 0 -11 5 -20 10 -20 6 0 10 10 10 23 0 20 4
23 29 19 23 -3 30 -10 33 -33z m-802 1 c0 -25 -4 -30 -25 -30 -14 0 -25 -4
-25 -10 0 -5 11 -10 25 -10 18 0 25 -5 25 -20 0 -18 -7 -20 -60 -20 -53 0 -60
2 -60 19 0 11 -4 23 -10 26 -6 3 -10 -5 -10 -18 0 -22 -5 -25 -40 -29 -39 -3
-40 -3 -40 29 l0 33 80 0 80 0 0 30 c0 27 3 30 30 30 27 0 30 -3 30 -30z m240
0 c0 -23 -4 -30 -20 -30 -16 0 -20 7 -20 30 0 23 4 30 20 30 16 0 20 -7 20
-30z m882 -60 c-5 -35 -42 -44 -42 -10 0 11 -4 20 -10 20 -5 0 -10 -9 -10 -20
0 -15 -7 -20 -29 -20 -24 0 -29 5 -33 30 l-5 30 67 0 67 0 -5 -30z m80 1 c-3
-23 -10 -30 -33 -33 -27 -4 -29 -2 -29 29 0 31 2 33 33 33 31 0 33 -2 29 -29z
m178 -16 c0 -32 -2 -35 -30 -35 -27 0 -30 3 -30 29 0 25 5 30 28 34 15 2 28 5
30 6 1 0 2 -15 2 -34z m-1200 -80 c0 -33 -2 -35 -33 -35 -31 0 -33 2 -29 29 3
23 10 31 31 34 14 2 27 5 29 6 1 0 2 -15 2 -34z m142 -6 c4 -27 2 -29 -29 -29
-31 0 -33 2 -33 33 0 31 2 33 29 29 23 -3 30 -10 33 -33z m338 6 c0 -33 -2
-35 -33 -35 -31 0 -33 2 -29 29 3 23 10 31 31 34 14 2 27 5 29 6 1 0 2 -15 2
-34z m640 0 c0 -33 -2 -35 -33 -35 -31 0 -33 2 -29 29 3 23 10 31 31 34 14 2
27 5 29 6 1 0 2 -15 2 -34z m-420 -5 c0 -27 -3 -30 -30 -30 -27 0 -30 3 -30
30 0 27 3 30 30 30 27 0 30 -3 30 -30z"/>
<path d="M800 926 c0 -14 5 -26 10 -26 6 0 10 9 10 19 0 11 -4 23 -10 26 -6 4
-10 -5 -10 -19z"/>
<path d="M642 920 c0 -14 2 -19 5 -12 2 6 2 18 0 25 -3 6 -5 1 -5 -13z"/>
<path d="M720 680 c0 -11 5 -20 10 -20 6 0 10 9 10 20 0 11 -4 20 -10 20 -5 0
-10 -9 -10 -20z"/>
<path d="M740 630 c0 -5 9 -10 20 -10 13 0 20 -7 20 -20 0 -11 5 -20 10 -20
15 0 12 29 -4 46 -17 16 -46 19 -46 4z"/>
<path d="M740 550 c0 -5 9 -10 20 -10 13 0 20 -7 20 -20 0 -13 -7 -20 -20 -20
-11 0 -20 -5 -20 -11 0 -6 12 -9 28 -7 23 3 27 8 30 41 3 35 2 37 -27 37 -17
0 -31 -4 -31 -10z"/>
<path d="M820 550 c0 -5 9 -10 20 -10 11 0 20 5 20 10 0 6 -9 10 -20 10 -11 0
-20 -4 -20 -10z"/>
<path d="M540 440 c0 -11 5 -20 10 -20 6 0 10 9 10 20 0 11 -4 20 -10 20 -5 0
-10 -9 -10 -20z"/>
<path d="M720 440 c0 -11 5 -20 10 -20 6 0 10 9 10 20 0 11 -4 20 -10 20 -5 0
-10 -9 -10 -20z"/>
<path d="M1120 920 c0 -11 5 -20 10 -20 6 0 10 9 10 20 0 11 -4 20 -10 20 -5
0 -10 -9 -10 -20z"/>
<path d="M1180 920 c0 -11 5 -20 10 -20 6 0 10 9 10 20 0 11 -4 20 -10 20 -5
0 -10 -9 -10 -20z"/>
<path d="M1505 938 c-4 -10 -4 -26 0 -35 8 -17 8 -17 12 0 3 9 3 25 0 35 -4
16 -4 16 -12 0z"/>
<path d="M980 810 c0 -5 9 -10 20 -10 11 0 20 5 20 10 0 6 -9 10 -20 10 -11 0
-20 -4 -20 -10z"/>
<path d="M980 550 c0 -5 9 -10 20 -10 11 0 20 5 20 10 0 6 -9 10 -20 10 -11 0
-20 -4 -20 -10z"/>
<path d="M1300 810 c0 -5 9 -10 20 -10 11 0 20 5 20 10 0 6 -9 10 -20 10 -11
0 -20 -4 -20 -10z"/>
<path d="M1300 550 c0 -5 9 -10 20 -10 11 0 20 5 20 10 0 6 -9 10 -20 10 -11
0 -20 -4 -20 -10z"/>
<path d="M1100 440 c0 -11 5 -20 10 -20 6 0 10 9 10 20 0 11 -4 20 -10 20 -5
0 -10 -9 -10 -20z"/>
<path d="M1200 440 c0 -11 5 -20 10 -20 6 0 10 9 10 20 0 11 -4 20 -10 20 -5
0 -10 -9 -10 -20z"/>
<path d="M1548 553 c6 -2 18 -2 25 0 6 3 1 5 -13 5 -14 0 -19 -2 -12 -5z"/>
<path d="M1600 520 c0 -11 5 -20 10 -20 6 0 10 9 10 20 0 11 -4 20 -10 20 -5
0 -10 -9 -10 -20z"/>
<path d="M1752 440 c0 -14 2 -19 5 -12 2 6 2 18 0 25 -3 6 -5 1 -5 -13z"/>
<path d="M1840 440 c0 -11 5 -20 10 -20 6 0 10 9 10 20 0 11 -4 20 -10 20 -5
0 -10 -9 -10 -20z"/>
<path d="M2020 630 c0 -5 9 -10 20 -10 11 0 20 5 20 10 0 6 -9 10 -20 10 -11
0 -20 -4 -20 -10z"/>
<path d="M1747 1054 c-4 -4 -7 -49 -7 -101 l0 -93 180 0 181 0 -3 98 -3 97
-171 3 c-93 1 -173 -1 -177 -4z m333 -44 c0 -28 -3 -30 -35 -30 -29 0 -35 4
-36 23 l-2 22 -4 -22 c-4 -22 -9 -23 -84 -23 -75 0 -79 1 -80 23 l-2 22 -4
-22 c-4 -19 -11 -23 -39 -23 -31 0 -34 2 -34 30 l0 30 160 0 160 0 0 -30z m0
-90 l0 -40 -160 0 -160 0 0 40 0 40 160 0 160 0 0 -40z"/>
<path d="M1820 920 c0 -11 5 -20 10 -20 6 0 10 9 10 20 0 11 -4 20 -10 20 -5
0 -10 -9 -10 -20z"/>
<path d="M2000 920 c0 -11 5 -20 10 -20 6 0 10 9 10 20 0 11 -4 20 -10 20 -5
0 -10 -9 -10 -20z"/>
</g>
</svg>
