<?xml version="1.0" standalone="no"?>
<!DOCTYPE svg PUBLIC "-//W3C//DTD SVG 20010904//EN"
 "http://www.w3.org/TR/2001/REC-SVG-20010904/DTD/svg10.dtd">
<svg version="1.0" xmlns="http://www.w3.org/2000/svg"
 width="100.000000pt" height="100.000000pt" viewBox="0 0 100.000000 100.000000"
 preserveAspectRatio="xMidYMid meet">
<metadata>
Created by potrace 1.16, written by Peter Selinger 2001-2019
</metadata>
<g transform="translate(0.000000,100.000000) scale(0.100000,-0.100000)"
fill="#000000" stroke="none">
<path d="M308 993 c-12 -3 -18 -14 -18 -34 l0 -29 -110 0 -110 0 0 -465 c0
-303 3 -465 10 -465 7 0 10 158 10 455 l0 455 110 0 110 0 0 30 c0 20 5 30 15
30 8 0 15 7 15 15 0 15 -2 16 -32 8z"/>
<path d="M660 986 c0 -9 7 -16 15 -16 10 0 15 -10 15 -30 l0 -30 110 0 110 0
0 -455 c0 -297 3 -455 10 -455 7 0 10 162 10 465 l0 465 -110 0 -110 0 0 30
c0 17 -4 30 -9 30 -5 0 -16 3 -25 6 -11 4 -16 1 -16 -10z"/>
<path d="M410 925 c0 -12 17 -15 90 -15 73 0 90 3 90 15 0 12 -17 15 -90 15
-73 0 -90 -3 -90 -15z"/>
<path d="M170 583 c0 -71 4 -133 8 -139 4 -6 21 -19 37 -28 17 -9 23 -16 15
-15 -61 5 -61 5 -60 -78 1 -43 1 -98 0 -123 -2 -42 -3 -43 -10 -15 -7 29 -8
29 -9 4 -2 -46 13 -49 205 -46 174 2 179 3 190 25 6 12 15 26 19 30 5 4 5 2 2
-4 -3 -6 1 -20 9 -32 14 -20 24 -22 112 -22 148 0 141 -15 141 309 l1 261 -91
0 c-65 0 -91 -4 -95 -13 -6 -16 -34 -18 -31 -3 1 7 -42 12 -130 14 -114 2
-133 0 -133 -13 0 -8 -7 -15 -15 -15 -14 0 -19 -20 -16 -60 0 -8 -4 -5 -11 8
-6 12 -17 22 -25 22 -8 0 -13 12 -13 30 0 29 -1 30 -50 30 l-50 0 0 -127z m80
57 c0 -29 5 -50 11 -50 6 0 8 9 4 20 -4 12 -2 20 6 20 8 0 10 -18 7 -62 -3
-35 -3 -57 0 -50 2 6 10 12 18 12 9 0 14 11 14 30 0 17 5 30 11 30 6 0 9 -7 5
-15 -3 -8 -1 -15 4 -15 6 0 10 -20 10 -45 0 -43 -1 -45 -30 -45 -20 0 -30 5
-30 15 0 8 -7 15 -15 15 -10 0 -15 10 -15 30 0 20 -5 30 -15 30 -11 0 -15 -12
-15 -45 0 -33 -4 -45 -15 -45 -12 0 -15 19 -15 110 l0 110 30 0 c29 0 30 -1
30 -50z m190 -60 l0 -110 -35 0 c-35 0 -35 0 -35 45 0 33 -4 45 -15 45 -11 0
-15 12 -15 50 0 28 4 50 10 50 5 0 7 -7 4 -15 -4 -8 -1 -15 5 -15 6 0 11 14
11 30 0 28 3 30 35 30 l35 0 0 -110z m60 0 c0 -91 -3 -110 -15 -110 -12 0 -15
19 -15 110 0 91 3 110 15 110 12 0 15 -19 15 -110z m90 95 c0 -8 7 -15 15 -15
23 0 20 -67 -2 -73 -10 -2 -1 -2 20 0 29 4 37 1 37 -11 0 -9 7 -16 15 -16 12
0 15 14 15 65 0 51 3 65 15 65 12 0 15 -19 15 -110 0 -91 -3 -110 -15 -110 -8
0 -15 7 -15 15 0 8 -7 15 -15 15 -8 0 -15 7 -15 15 0 8 -9 15 -20 15 -11 0
-20 7 -20 15 0 8 -7 15 -15 15 -11 0 -15 -12 -15 -45 l0 -45 -41 0 c-35 0 -40
2 -30 14 15 18 13 175 -2 194 -7 9 0 12 32 12 30 0 41 -4 41 -15z m77 -22 c-3
-10 -5 -4 -5 12 0 17 2 24 5 18 2 -7 2 -21 0 -30z m143 -73 l0 -110 -30 0 -30
0 0 110 0 110 30 0 30 0 0 -110z m-150 35 c0 -9 -6 -12 -15 -9 -8 4 -15 10
-15 15 0 5 7 9 15 9 8 0 15 -7 15 -15z m-25 -105 c3 -5 1 -10 -4 -10 -6 0 -11
5 -11 10 0 6 2 10 4 10 3 0 8 -4 11 -10z m-380 -30 c3 -5 -1 -10 -10 -10 -9 0
-13 5 -10 10 3 6 8 10 10 10 2 0 7 -4 10 -10z m420 0 c3 -5 1 -10 -4 -10 -6 0
-11 5 -11 10 0 6 2 10 4 10 3 0 8 -4 11 -10z m-35 -15 c0 -14 17 -19 65 -16
14 0 12 -2 -7 -10 -16 -6 -28 -17 -28 -25 0 -8 -7 -14 -15 -14 -8 0 -15 6 -15
14 0 10 -16 16 -52 20 -29 3 -69 8 -88 10 -19 2 -3 3 35 3 58 0 71 2 73 16 4
21 32 23 32 2z m-375 -26 c5 -7 -5 -8 -32 -3 -51 9 -54 14 -10 14 20 0 39 -5
42 -11z m95 1 c0 -6 10 -15 23 -19 21 -8 21 -9 3 -17 -13 -5 -23 -2 -30 9 -7
8 -28 20 -47 25 l-34 10 43 1 c23 1 42 -4 42 -9z m83 3 c-13 -2 -35 -2 -50 0
-16 2 -5 4 22 4 28 0 40 -2 28 -4z m367 3 c0 -8 -71 -12 -76 -4 -3 4 13 8 35
8 23 0 41 -2 41 -4z m-270 -31 c0 -8 -4 -15 -9 -15 -13 0 -22 16 -14 24 11 11
23 6 23 -9z m-200 -13 c0 -9 -80 -5 -89 4 -2 2 17 4 42 4 26 0 47 -4 47 -8z
m127 2 c-3 -3 -12 -4 -19 -1 -8 3 -5 6 6 6 11 1 17 -2 13 -5z m153 -29 c0 -32
-2 -35 -30 -35 -23 0 -30 4 -30 20 0 15 7 20 28 20 23 1 25 2 9 11 -9 5 -22 7
-27 4 -6 -3 -10 -1 -10 4 0 6 14 11 30 11 28 0 30 -3 30 -35z m190 0 l0 -35
-60 0 -60 0 0 35 0 35 60 0 60 0 0 -35z m-470 -15 c0 -17 -7 -20 -45 -20 -33
0 -45 -4 -45 -15 0 -8 7 -15 15 -15 8 0 15 -5 15 -11 0 -5 -5 -7 -10 -4 -6 3
-17 0 -25 -8 -13 -13 -10 -14 25 -10 33 5 40 3 40 -11 0 -9 7 -16 15 -16 10 0
15 -10 15 -30 0 -20 -5 -30 -15 -30 -8 0 -15 -7 -15 -15 0 -12 -13 -15 -60
-15 l-60 0 0 30 c0 28 2 30 38 29 l37 -1 -35 -10 c-38 -11 -34 -15 20 -20 35
-3 35 -3 32 29 -4 29 -8 33 -33 33 -19 0 -29 5 -29 15 0 8 -7 15 -15 15 -11 0
-15 12 -15 50 l0 50 75 0 c68 0 75 -2 75 -20z m60 16 c0 -2 -7 -9 -15 -16 -12
-10 -15 -10 -15 4 0 9 7 16 15 16 8 0 15 -2 15 -4z m96 -23 c-16 -66 -18 -130
-5 -135 11 -4 13 8 11 58 -3 53 -1 64 12 64 13 0 16 -13 16 -75 0 -60 -3 -75
-15 -75 -8 0 -15 -7 -15 -15 0 -11 -12 -15 -45 -15 -33 0 -45 4 -45 15 0 8 -9
15 -20 15 -18 0 -20 7 -20 75 0 68 2 75 20 75 18 0 20 -7 20 -60 0 -39 -4 -60
-12 -60 -6 0 -9 -2 -6 -5 3 -3 13 -3 22 1 14 5 17 18 14 65 -1 33 -6 59 -10
59 -5 0 -8 9 -8 20 0 17 7 20 46 20 45 0 46 -1 40 -27z m34 12 c0 -8 -2 -15
-4 -15 -2 0 -6 7 -10 15 -3 8 -1 15 4 15 6 0 10 -7 10 -15z m130 -5 c0 -11 -4
-20 -10 -20 -5 0 -10 9 -10 20 0 11 5 20 10 20 6 0 10 -9 10 -20z m-40 -39 c0
-11 -59 -26 -67 -17 -4 3 3 6 15 6 11 0 24 5 27 10 8 13 25 13 25 1z m140 -10
c0 -5 -7 -11 -15 -15 -8 -3 -15 -17 -15 -31 0 -23 -4 -25 -45 -25 l-45 0 0 40
0 40 60 0 c33 0 60 -4 60 -9z m-418 -43 c-6 -6 -12 -6 -16 1 -4 6 -2 11 3 11
6 0 12 8 12 18 1 15 2 15 6 -2 3 -10 0 -23 -5 -28z m468 32 c0 -5 -7 -10 -15
-10 -8 0 -15 5 -15 10 0 6 7 10 15 10 8 0 15 -4 15 -10z m-190 -50 l0 -30 65
0 c51 0 65 3 65 15 0 8 7 15 15 15 8 0 15 7 15 15 0 8 7 15 15 15 10 0 15 -10
15 -31 0 -26 -3 -30 -19 -26 -14 3 -17 0 -14 -14 4 -13 0 -19 -11 -19 -9 0
-16 3 -16 8 0 13 -80 13 -94 -1 -12 -11 -5 -13 40 -9 45 4 54 2 54 -12 0 -13
-12 -16 -65 -16 -51 0 -65 3 -65 15 0 8 -7 15 -15 15 -10 0 -15 10 -15 30 0
17 5 30 11 30 5 0 7 4 4 10 -8 14 -34 -11 -28 -27 3 -7 0 -13 -6 -13 -6 0 -11
14 -11 30 0 27 3 30 30 30 27 0 30 -3 30 -30z m-280 -80 c0 -5 -5 -10 -11 -10
-5 0 -7 5 -4 10 3 6 8 10 11 10 2 0 4 -4 4 -10z m440 0 c0 -5 -5 -10 -11 -10
-5 0 -7 5 -4 10 3 6 8 10 11 10 2 0 4 -4 4 -10z"/>
<path d="M220 670 c0 -5 5 -10 11 -10 5 0 7 5 4 10 -3 6 -8 10 -11 10 -2 0 -4
-4 -4 -10z"/>
<path d="M210 606 c0 -8 4 -17 9 -20 5 -4 7 3 4 14 -6 23 -13 26 -13 6z"/>
<path d="M310 489 c0 -5 5 -7 10 -4 6 3 10 8 10 11 0 2 -4 4 -10 4 -5 0 -10
-5 -10 -11z"/>
<path d="M397 662 c8 -5 13 -41 15 -97 l3 -90 5 98 c5 92 4 97 -15 97 -13 0
-16 -3 -8 -8z"/>
<path d="M540 586 c0 -53 4 -98 10 -101 6 -4 10 30 10 94 0 61 -4 101 -10 101
-6 0 -10 -38 -10 -94z"/>
<path d="M590 640 c0 -5 5 -10 11 -10 5 0 7 5 4 10 -3 6 -8 10 -11 10 -2 0 -4
-4 -4 -10z"/>
<path d="M774 580 c0 -52 1 -74 3 -47 2 26 2 68 0 95 -2 26 -3 4 -3 -48z"/>
<path d="M704 388 c-3 -4 18 -8 46 -8 33 0 49 4 45 10 -8 12 -84 10 -91 -2z"/>
<path d="M206 361 c-5 -8 -4 -16 4 -21 7 -4 10 -15 7 -23 -4 -11 -1 -14 9 -10
15 6 20 33 5 33 -5 0 -11 8 -13 18 -3 13 -5 14 -12 3z"/>
<path d="M440 265 c0 -60 3 -75 15 -75 12 0 15 15 15 75 0 60 -3 75 -15 75
-12 0 -15 -15 -15 -75z"/>
</g>
</svg>
