<?xml version="1.0" standalone="no"?>
<!DOCTYPE svg PUBLIC "-//W3C//DTD SVG 20010904//EN"
 "http://www.w3.org/TR/2001/REC-SVG-20010904/DTD/svg10.dtd">
<svg version="1.0" xmlns="http://www.w3.org/2000/svg"
 width="100.000000pt" height="100.000000pt" viewBox="0 0 100.000000 100.000000"
 preserveAspectRatio="xMidYMid meet">
<metadata>
Created by potrace 1.16, written by Peter Selinger 2001-2019
</metadata>
<g transform="translate(0.000000,100.000000) scale(0.100000,-0.100000)"
fill="#000000" stroke="none">
<path d="M260 965 l0 -35 -125 0 -125 0 0 -465 c0 -303 3 -465 10 -465 7 0 10
158 10 455 l0 455 125 0 125 0 0 45 c0 25 -4 45 -10 45 -5 0 -10 -16 -10 -35z"/>
<path d="M294 984 c3 -9 6 -20 6 -25 0 -5 14 -9 30 -9 25 0 30 4 30 25 0 14
-4 25 -10 25 -5 0 -10 -7 -10 -15 0 -8 -7 -15 -15 -15 -8 0 -15 7 -15 15 0 8
-5 15 -11 15 -6 0 -8 -7 -5 -16z"/>
<path d="M660 985 c0 -8 7 -15 15 -15 8 0 15 7 15 15 0 8 -7 15 -15 15 -8 0
-15 -7 -15 -15z"/>
<path d="M720 955 l0 -45 125 0 125 0 0 -455 c0 -297 3 -455 10 -455 7 0 10
162 10 465 l0 465 -125 0 -125 0 0 35 c0 19 -4 35 -10 35 -5 0 -10 -20 -10
-45z"/>
<path d="M320 925 c0 -8 5 -15 10 -15 6 0 10 7 10 15 0 8 -4 15 -10 15 -5 0
-10 -7 -10 -15z"/>
<path d="M440 925 c0 -12 13 -15 60 -15 47 0 60 3 60 15 0 12 -13 15 -60 15
-47 0 -60 -3 -60 -15z"/>
<path d="M90 445 c0 -290 3 -445 10 -445 7 0 10 155 10 445 0 290 -3 445 -10
445 -7 0 -10 -155 -10 -445z"/>
<path d="M130 880 c0 -5 5 -10 10 -10 6 0 10 5 10 10 0 6 -4 10 -10 10 -5 0
-10 -4 -10 -10z"/>
<path d="M325 880 c-3 -5 -1 -10 4 -10 6 0 11 5 11 10 0 6 -2 10 -4 10 -3 0
-8 -4 -11 -10z"/>
<path d="M890 445 c0 -290 3 -445 10 -445 7 0 10 155 10 445 0 290 -3 445 -10
445 -7 0 -10 -155 -10 -445z"/>
<path d="M800 861 l55 -6 3 -275 c2 -203 -1 -281 -10 -298 -9 -18 -9 -25 0
-31 7 -4 12 -50 15 -131 1 -69 4 72 5 313 l2 437 -62 -2 -63 -1 55 -6z"/>
<path d="M134 415 c0 -231 2 -313 3 -182 2 146 7 237 13 237 6 0 10 43 10 105
0 60 -4 105 -10 105 -5 0 -11 35 -13 78 -1 42 -3 -112 -3 -343z"/>
<path d="M170 580 c0 -117 2 -132 20 -150 25 -25 25 -26 0 -33 -18 -5 -20 -13
-19 -129 1 -146 7 -158 79 -158 30 0 52 6 60 15 7 8 29 15 50 15 21 0 43 -7
50 -15 16 -19 74 -19 94 0 8 8 22 15 30 15 9 0 16 7 16 15 0 19 14 19 30 0 7
-8 25 -15 41 -15 18 0 28 -5 27 -12 -4 -20 86 -23 102 -3 7 8 18 15 24 15 6 0
21 11 32 23 21 22 22 31 23 285 l0 263 -89 -2 c-50 -1 -90 -5 -90 -9 0 -4 -9
-10 -20 -13 -11 -3 -18 0 -17 7 1 8 -38 12 -130 14 -97 2 -133 -1 -133 -9 0
-7 -7 -17 -16 -24 -9 -6 -16 -24 -16 -38 0 -15 -4 -27 -9 -27 -5 0 -9 11 -9
24 0 14 -7 31 -15 40 -8 8 -15 19 -15 25 0 6 -21 11 -50 11 l-50 0 0 -130z
m80 60 c0 -29 5 -50 11 -50 6 0 8 9 4 20 -4 11 -2 20 4 20 6 0 11 -16 11 -35
0 -31 3 -35 26 -35 14 0 32 -7 40 -15 9 -8 11 -15 5 -15 -6 0 -11 -13 -11 -30
0 -27 -3 -30 -30 -30 -27 0 -30 3 -30 30 0 24 4 30 23 30 21 1 21 1 3 12 -15
8 -21 8 -24 0 -5 -17 -32 -15 -32 3 0 8 -7 15 -15 15 -11 0 -15 -11 -15 -40 0
-30 3 -38 14 -34 8 3 17 1 21 -5 4 -7 -7 -11 -29 -11 l-36 0 0 110 0 110 30 0
c29 0 30 -1 30 -50z m190 -60 l0 -110 -35 0 c-35 0 -35 0 -35 45 0 33 -4 45
-15 45 -11 0 -15 12 -15 50 0 28 4 50 8 50 5 0 8 -16 7 -35 0 -19 3 -35 7 -35
4 0 8 23 8 50 l0 50 35 0 35 0 0 -110z m150 95 c0 -8 7 -15 15 -15 10 0 15
-10 15 -34 0 -28 -4 -35 -22 -39 -21 -3 -21 -4 -4 -12 11 -5 21 -3 26 4 4 7
18 11 31 9 22 -3 23 -3 3 -22 -18 -18 -18 -19 -1 -13 10 4 23 7 28 7 5 0 9 29
9 65 0 51 3 65 15 65 12 0 15 -19 15 -110 0 -91 -3 -110 -15 -110 -8 0 -15 7
-15 15 0 8 -7 15 -15 15 -8 0 -15 7 -15 15 0 8 -9 15 -20 15 -11 0 -20 7 -20
15 0 8 -7 15 -15 15 -11 0 -15 -12 -15 -45 l0 -45 -37 0 -38 0 3 95 c2 52 6
95 10 95 4 0 7 -39 7 -87 0 -60 4 -88 13 -91 9 -3 12 21 12 96 l0 99 -30 0
-30 0 0 -104 c0 -85 -3 -103 -15 -103 -12 0 -15 19 -15 110 l0 110 60 0 c47 0
60 -3 60 -15z m78 -27 c-11 -51 -12 -52 -28 -33 -10 12 -10 15 4 15 11 0 16 9
16 30 0 17 4 30 9 30 5 0 5 -18 -1 -42z m142 -68 l0 -110 -30 0 -30 0 0 110 0
110 30 0 30 0 0 -110z m-480 6 c0 -11 -19 -15 -25 -6 -3 5 1 10 9 10 9 0 16
-2 16 -4z m-65 -76 c3 -5 -1 -10 -10 -10 -9 0 -13 5 -10 10 3 6 8 10 10 10 2
0 7 -4 10 -10z m368 -7 c-7 -2 -13 -10 -13 -16 0 -25 44 -40 119 -40 68 0 69
-1 16 -4 -51 -3 -63 -8 -83 -31 -22 -27 -22 -27 -28 -5 -3 12 -14 25 -24 28
-12 4 -16 13 -13 28 9 41 12 47 25 46 10 0 10 -2 1 -6z m42 -23 c3 -5 1 -10
-4 -10 -6 0 -11 5 -11 10 0 6 2 10 4 10 3 0 8 -4 11 -10z m-419 -38 c-5 -8
-66 -4 -66 4 0 2 16 4 36 4 19 0 33 -4 30 -8z m94 -2 c0 -5 11 -12 25 -16 31
-8 33 -24 2 -24 -12 0 -28 9 -34 19 -7 11 -25 21 -40 24 -23 3 -21 4 10 6 20
0 37 -3 37 -9z m187 3 c-31 -2 -83 -2 -115 0 -31 2 -5 3 58 3 63 0 89 -1 57
-3z m8 -23 c3 -6 -1 -13 -10 -16 -19 -8 -30 0 -20 15 8 14 22 14 30 1z m-205
-18 c0 -4 -21 -6 -47 -4 -76 5 -83 10 -15 11 34 0 62 -2 62 -7z m143 1 c-13
-2 -35 -2 -50 0 -16 2 -5 4 22 4 28 0 40 -2 28 -4z m137 -2 c0 -4 -13 -8 -30
-7 -39 1 -39 16 0 16 17 0 30 -4 30 -9z m190 2 c0 -5 -27 -8 -60 -8 -33 0 -60
3 -60 8 0 4 27 7 60 7 33 0 60 -3 60 -7z m-605 -43 c-4 -11 -2 -20 4 -20 6 0
11 9 11 20 0 18 7 20 60 20 53 0 60 -2 60 -20 0 -17 -7 -20 -45 -20 -43 0 -45
-1 -45 -29 0 -16 -6 -31 -12 -34 -7 -3 6 -2 30 0 34 5 42 3 42 -11 0 -9 7 -16
15 -16 10 0 15 -10 15 -30 0 -20 -5 -30 -15 -30 -8 0 -15 7 -15 17 0 9 -3 14
-6 10 -11 -11 8 -49 22 -43 8 3 14 1 14 -4 0 -6 -33 -10 -75 -10 -60 0 -75 3
-75 15 0 11 12 15 45 15 43 0 45 1 45 30 0 27 -3 30 -30 30 -20 0 -30 5 -30
15 0 8 -7 15 -15 15 -11 0 -15 12 -15 50 0 29 5 50 11 50 6 0 8 -9 4 -20z
m195 16 c0 -2 -7 -9 -15 -16 -12 -10 -15 -10 -15 4 0 9 7 16 15 16 8 0 15 -2
15 -4z m130 -12 c0 -14 -3 -14 -15 -4 -12 10 -15 10 -15 -4 0 -9 -4 -16 -9
-16 -10 0 -7 -125 4 -157 7 -22 5 -23 -40 -23 -46 0 -47 1 -41 28 3 15 3 21 0
15 -3 -7 -14 -13 -25 -13 -17 0 -19 8 -19 75 0 68 2 75 20 75 18 0 20 -7 20
-60 0 -36 4 -60 11 -60 6 0 9 22 7 60 -1 33 -6 60 -10 60 -5 0 -8 9 -8 20 0
18 7 20 60 20 49 0 60 -3 60 -16z m90 -4 c0 -16 -7 -20 -30 -20 -23 0 -30 4
-30 20 0 16 7 20 30 20 23 0 30 -4 30 -20z m40 -9 c0 -34 23 -61 51 -61 14 0
19 -7 19 -25 0 -23 -3 -24 -45 -23 -25 1 -39 6 -32 10 8 6 9 10 1 16 -13 9
-16 112 -3 112 5 0 9 -13 9 -29z m150 9 c0 -18 -7 -20 -60 -20 -53 0 -60 2
-60 20 0 18 7 20 60 20 53 0 60 -2 60 -20z m-280 -95 c0 -60 -3 -75 -15 -75
-12 0 -15 15 -15 75 0 60 3 75 15 75 12 0 15 -15 15 -75z m90 55 c0 -6 -13
-10 -30 -10 -20 0 -30 -5 -30 -15 0 -10 10 -15 30 -15 27 0 30 -3 30 -30 0
-23 4 -30 20 -30 11 0 20 -7 20 -15 0 -11 12 -15 45 -15 33 0 45 -4 45 -15 0
-12 -14 -15 -65 -15 -51 0 -65 3 -65 15 0 8 -7 15 -16 15 -12 0 -15 8 -12 34
3 24 0 32 -9 29 -6 -3 -9 -11 -6 -19 3 -8 -1 -14 -8 -14 -12 0 -18 52 -11 95
3 13 62 17 62 5z m-290 -4 c0 -2 -7 -6 -15 -10 -8 -3 -15 -1 -15 4 0 6 7 10
15 10 8 0 15 -2 15 -4z m480 -5 c0 -9 -109 -3 -119 5 -2 2 23 4 57 4 34 0 62
-4 62 -9z m-530 -11 c0 -5 -2 -10 -4 -10 -3 0 -8 5 -11 10 -3 6 -1 10 4 10 6
0 11 -4 11 -10z m70 -10 c0 -13 -6 -20 -17 -19 -11 0 -13 3 -5 6 6 2 12 11 12
19 0 8 2 14 5 14 3 0 5 -9 5 -20z m414 -25 c-4 -8 -1 -15 5 -15 6 0 11 7 11
15 0 8 7 15 15 15 11 0 15 -12 15 -45 0 -25 -4 -45 -10 -45 -5 0 -7 6 -4 14 3
7 -1 16 -9 19 -11 4 -13 0 -10 -14 4 -13 0 -19 -11 -19 -9 0 -16 4 -16 10 0 5
-7 7 -15 4 -8 -4 -15 -1 -15 5 0 6 7 11 15 11 10 0 15 10 15 30 0 17 4 30 10
30 5 0 7 -7 4 -15z m-559 -5 c3 -5 1 -10 -4 -10 -6 0 -11 5 -11 10 0 6 2 10 4
10 3 0 8 -4 11 -10z m55 -39 c0 -5 -16 -11 -35 -13 -19 -2 -35 -1 -35 3 0 4
15 10 33 12 17 2 33 5 35 5 1 1 2 -2 2 -7z m443 -8 c-7 -2 -19 -2 -25 0 -7 3
-2 5 12 5 14 0 19 -2 13 -5z m-308 -43 c3 -5 -1 -10 -9 -10 -9 0 -16 5 -16 10
0 6 4 10 9 10 6 0 13 -4 16 -10z m135 0 c0 -5 -5 -10 -11 -10 -5 0 -7 5 -4 10
3 6 8 10 11 10 2 0 4 -4 4 -10z m75 0 c3 -5 1 -10 -4 -10 -6 0 -11 5 -11 10 0
6 2 10 4 10 3 0 8 -4 11 -10z m175 0 c0 -5 -5 -10 -11 -10 -5 0 -7 5 -4 10 3
6 8 10 11 10 2 0 4 -4 4 -10z m-497 -37 c-18 -2 -48 -2 -65 0 -18 2 -4 4 32 4
36 0 50 -2 33 -4z m200 0 c-13 -2 -35 -2 -50 0 -16 2 -5 4 22 4 28 0 40 -2 28
-4z m250 0 c-13 -2 -35 -2 -50 0 -16 2 -5 4 22 4 28 0 40 -2 28 -4z"/>
<path d="M215 670 c-3 -5 1 -10 10 -10 9 0 13 5 10 10 -3 6 -8 10 -10 10 -2 0
-7 -4 -10 -10z"/>
<path d="M213 605 c0 -22 2 -30 4 -17 2 12 2 30 0 40 -3 9 -5 -1 -4 -23z"/>
<path d="M310 489 c0 -5 5 -7 10 -4 6 3 10 8 10 11 0 2 -4 4 -10 4 -5 0 -10
-5 -10 -11z"/>
<path d="M392 663 c14 -4 18 -19 20 -91 l3 -87 5 93 5 92 -25 -1 c-16 -1 -19
-3 -8 -6z"/>
<path d="M590 640 c0 -5 5 -10 11 -10 5 0 7 5 4 10 -3 6 -8 10 -11 10 -2 0 -4
-4 -4 -10z"/>
<path d="M768 663 c7 -3 16 -2 19 1 4 3 -2 6 -13 5 -11 0 -14 -3 -6 -6z"/>
<path d="M773 565 c0 -44 2 -61 4 -37 2 23 2 59 0 80 -2 20 -4 1 -4 -43z"/>
<path d="M210 305 c0 -8 2 -15 4 -15 2 0 6 7 10 15 3 8 1 15 -4 15 -6 0 -10
-7 -10 -15z"/>
<path d="M440 265 c0 -60 3 -75 15 -75 12 0 15 15 15 75 0 60 -3 75 -15 75
-12 0 -15 -15 -15 -75z"/>
</g>
</svg>
