<?xml version="1.0" standalone="no"?>
<!DOCTYPE svg PUBLIC "-//W3C//DTD SVG 20010904//EN"
 "http://www.w3.org/TR/2001/REC-SVG-20010904/DTD/svg10.dtd">
<svg version="1.0" xmlns="http://www.w3.org/2000/svg"
 width="152.000000pt" height="152.000000pt" viewBox="0 0 152.000000 152.000000"
 preserveAspectRatio="xMidYMid meet">
<metadata>
Created by potrace 1.16, written by Peter Selinger 2001-2019
</metadata>
<g transform="translate(0.000000,152.000000) scale(0.100000,-0.100000)"
fill="#000000" stroke="none">
<path d="M260 1334 c-83 -32 -132 -76 -166 -149 -22 -46 -24 -63 -24 -212 l0
-163 53 0 52 0 -3 129 c-4 147 6 196 49 246 59 66 159 67 225 1 43 -43 54 -89
54 -231 l0 -120 50 0 50 0 0 134 c0 116 3 141 21 177 52 108 200 120 270 23
22 -32 24 -44 27 -184 l3 -150 55 0 54 0 0 136 c0 160 -13 216 -66 277 -56 66
-104 86 -199 87 -90 0 -136 -17 -190 -71 -29 -29 -33 -30 -43 -13 -6 9 -33 32
-58 50 -42 29 -57 33 -123 36 -42 1 -83 0 -91 -3z m184 -48 c22 -13 50 -33 60
-45 19 -21 76 -30 76 -11 0 18 89 70 140 82 65 15 138 -6 197 -57 71 -60 83
-99 83 -263 l0 -142 -24 0 -24 0 -3 143 c-4 138 -5 146 -32 186 -72 109 -248
107 -312 -3 -23 -40 -25 -52 -25 -184 l0 -142 -30 0 -30 0 0 130 c0 172 -18
218 -102 261 -65 33 -156 22 -207 -24 -49 -46 -61 -90 -61 -244 l0 -143 -31 0
-31 0 4 153 c4 166 10 190 72 255 77 83 188 102 280 48z"/>
<path d="M499 816 c-2 -2 -2 -82 1 -178 6 -191 11 -208 77 -274 52 -52 105
-74 183 -74 75 0 138 24 187 72 l32 31 21 -26 c11 -14 45 -38 75 -52 48 -24
64 -27 128 -23 91 4 156 39 204 111 42 62 53 122 53 282 l0 135 -55 0 -55 0 0
-151 c0 -171 -8 -202 -68 -247 -46 -35 -135 -38 -178 -6 -65 48 -69 60 -72
240 l-3 164 -55 0 -54 0 0 -159 c0 -147 -2 -160 -22 -191 -33 -48 -70 -72
-119 -77 -64 -6 -127 28 -156 87 -21 40 -23 59 -23 192 l0 148 -48 0 c-27 0
-51 -2 -53 -4z m83 -184 c3 -156 3 -159 31 -195 38 -50 75 -67 147 -67 76 0
129 25 161 77 22 35 24 51 27 191 l4 152 24 0 24 0 0 -122 c1 -179 15 -225 90
-275 26 -18 47 -23 100 -23 76 0 118 21 157 79 24 36 27 62 25 259 l-1 82 30
0 31 0 -4 -152 c-4 -168 -10 -189 -72 -251 -93 -93 -226 -98 -321 -12 -43 40
-74 44 -101 14 -31 -35 -98 -69 -147 -75 -92 -13 -198 53 -243 151 -21 45 -24
65 -24 188 l0 137 29 0 30 0 3 -158z"/>
</g>
</svg>
