<?xml version="1.0" standalone="no"?>
<!DOCTYPE svg PUBLIC "-//W3C//DTD SVG 20010904//EN"
 "http://www.w3.org/TR/2001/REC-SVG-20010904/DTD/svg10.dtd">
<svg version="1.0" xmlns="http://www.w3.org/2000/svg"
 width="180.000000pt" height="180.000000pt" viewBox="0 0 180.000000 180.000000"
 preserveAspectRatio="xMidYMid meet">
<metadata>
Created by potrace 1.16, written by Peter Selinger 2001-2019
</metadata>
<g transform="translate(0.000000,180.000000) scale(0.100000,-0.100000)"
fill="#000000" stroke="none">
<path d="M366 1137 l-39 -73 38 -66 c21 -37 42 -65 46 -62 4 2 23 33 43 68
l36 64 -39 67 c-22 36 -41 68 -43 70 -2 2 -21 -28 -42 -68z m69 -36 c17 -39
17 -40 -5 -76 -24 -39 -25 -39 -55 17 -14 25 -13 30 6 62 12 20 24 36 28 36 5
0 16 -18 26 -39z"/>
<path d="M1014 1079 c-45 -16 -39 -64 9 -77 17 -4 32 -13 35 -20 7 -21 -28
-25 -48 -7 -23 21 -39 12 -24 -13 15 -23 77 -28 93 -8 23 27 6 63 -34 70 -21
4 -35 13 -35 21 0 17 35 20 45 5 3 -5 13 -10 21 -10 11 0 12 4 5 19 -12 22
-39 31 -67 20z"/>
<path d="M1402 1079 c-16 -6 -22 -17 -22 -38 0 -26 5 -32 32 -39 17 -4 33 -13
36 -20 6 -20 -27 -26 -47 -8 -22 20 -34 10 -20 -15 12 -23 71 -26 89 -4 22 26
4 62 -35 69 -21 4 -35 13 -35 21 0 17 35 20 45 5 3 -5 13 -10 21 -10 11 0 12
4 5 19 -13 23 -40 31 -69 20z"/>
<path d="M700 1011 c0 -59 3 -71 16 -71 14 0 16 8 10 51 -5 33 -3 49 3 45 5
-4 13 -27 17 -51 5 -34 11 -45 24 -45 13 0 19 11 24 45 4 24 12 47 17 51 6 4
8 -12 3 -45 -6 -43 -4 -51 10 -51 13 0 16 12 16 70 0 68 -1 70 -24 70 -22 0
-26 -6 -32 -45 -3 -25 -10 -45 -14 -45 -4 0 -11 19 -16 43 -7 33 -14 43 -32
45 -21 3 -22 0 -22 -67z"/>
<path d="M850 1010 c0 -56 3 -70 15 -70 12 0 15 14 15 70 0 56 -3 70 -15 70
-12 0 -15 -14 -15 -70z"/>
<path d="M890 1070 c0 -5 7 -10 15 -10 12 0 15 -13 15 -60 0 -47 3 -60 15 -60
12 0 15 13 15 60 0 47 3 60 15 60 8 0 15 5 15 10 0 6 -20 10 -45 10 -25 0 -45
-4 -45 -10z"/>
<path d="M1100 1022 c0 -32 5 -63 12 -70 14 -14 74 -16 83 -3 3 5 7 37 9 70 3
46 0 61 -10 61 -9 0 -14 -18 -16 -57 -3 -50 -6 -58 -23 -58 -17 0 -20 8 -23
58 -2 42 -7 57 -17 57 -12 0 -15 -14 -15 -58z"/>
<path d="M1220 1010 l0 -71 48 3 47 3 0 65 0 65 -47 3 -48 3 0 -71z m75 30 c0
-23 -49 -20 -53 3 -3 15 2 18 25 15 17 -2 28 -9 28 -18z m3 -57 c-2 -12 -12
-18 -28 -18 -16 0 -26 6 -28 18 -3 13 3 17 28 17 25 0 31 -4 28 -17z"/>
<path d="M1338 1010 c5 -91 22 -91 22 0 0 49 -4 70 -12 70 -10 0 -12 -19 -10
-70z"/>
<path d="M1490 1010 c0 -58 3 -70 16 -70 12 0 15 7 12 30 -4 27 -2 30 24 30
24 0 28 -4 28 -30 0 -20 5 -30 15 -30 12 0 15 14 15 70 0 56 -3 70 -15 70 -10
0 -15 -10 -15 -28 0 -26 -3 -28 -28 -24 -24 3 -28 8 -24 28 3 17 0 24 -12 24
-13 0 -16 -12 -16 -70z"/>
<path d="M1610 1010 c0 -56 3 -70 15 -70 12 0 15 14 15 70 0 56 -3 70 -15 70
-12 0 -15 -14 -15 -70z"/>
<path d="M214 873 c-15 -27 -34 -58 -42 -70 l-14 -23 83 0 84 0 38 65 c20 35
37 66 37 69 0 3 -36 6 -79 6 l-79 0 -28 -47z m119 -18 c-23 -43 -27 -45 -69
-45 -24 0 -44 3 -44 6 0 4 10 24 22 45 20 37 24 39 69 39 l48 0 -26 -45z"/>
<path d="M428 888 c10 -18 29 -50 41 -70 l23 -38 80 0 c44 0 78 3 76 8 -1 4
-19 35 -38 70 l-35 62 -83 0 -84 0 20 -32z m150 -35 l23 -43 -48 0 c-48 0 -49
1 -71 46 l-22 45 47 -3 c45 -3 49 -6 71 -45z"/>
<path d="M700 849 l0 -70 50 3 c28 2 49 8 48 13 -2 6 -18 9 -35 8 -27 -2 -33
1 -33 17 0 16 7 20 36 20 24 0 34 4 31 13 -2 6 -18 12 -35 12 -25 0 -32 4 -32
19 0 16 5 18 35 13 26 -4 35 -2 35 9 0 10 -13 14 -50 14 l-50 0 0 -71z"/>
<path d="M818 850 l4 -70 45 0 c31 0 43 4 40 13 -2 7 -17 11 -36 9 l-31 -2 0
60 c0 41 -4 60 -12 60 -10 0 -12 -19 -10 -70z"/>
<path d="M914 904 c3 -9 6 -40 6 -70 l0 -54 51 0 c36 0 49 4 46 13 -2 7 -19
11 -41 10 -30 -2 -36 1 -36 17 0 16 7 20 35 20 25 0 35 4 35 16 0 12 -8 15
-32 12 -25 -2 -34 1 -36 15 -3 16 2 18 34 15 23 -2 39 2 41 10 3 9 -11 12 -52
12 -48 0 -56 -3 -51 -16z"/>
<path d="M1036 898 c-36 -50 -8 -118 48 -118 33 0 56 15 56 37 0 19 -21 16
-36 -4 -20 -27 -49 -5 -49 37 0 42 29 64 49 38 14 -19 36 -24 36 -9 0 19 -32
41 -60 41 -18 0 -34 -8 -44 -22z"/>
<path d="M1140 910 c0 -6 7 -10 15 -10 12 0 15 -13 15 -60 0 -47 3 -60 15 -60
12 0 15 13 15 60 0 53 2 60 20 60 18 0 20 -7 20 -60 0 -47 3 -60 15 -60 10 0
15 10 15 31 0 26 3 30 23 27 16 -2 23 -11 25 -30 2 -16 9 -28 18 -28 11 0 13
7 8 28 -4 15 -8 29 -10 31 -2 2 1 12 7 22 6 13 6 25 -1 39 -9 17 -21 19 -105
19 -54 0 -95 -4 -95 -9z m178 -32 c3 -13 -3 -18 -22 -18 -20 0 -26 5 -26 21 0
15 5 20 22 17 13 -2 24 -11 26 -20z"/>
<path d="M1360 850 c0 -49 4 -70 13 -70 8 0 12 21 12 70 0 49 -4 70 -12 70 -9
0 -13 -21 -13 -70z"/>
<path d="M1412 908 c-15 -15 -16 -82 -2 -109 15 -26 71 -26 95 1 21 24 12 40
-13 22 -33 -24 -45 -25 -58 -7 -18 24 -18 46 0 71 13 16 18 17 33 6 45 -31 69
-26 38 8 -20 22 -74 27 -93 8z"/>
<path d="M210 717 c-35 -18 -58 -62 -44 -84 12 -20 56 -29 82 -17 13 6 8 9
-18 13 -42 7 -50 31 -20 61 16 16 29 20 47 15 18 -4 24 -2 21 7 -6 18 -38 21
-68 5z"/>
<path d="M1264 716 c-16 -46 -34 -99 -34 -102 0 -8 65 -3 79 5 8 5 12 19 9 34
-3 16 0 28 8 31 8 3 14 12 14 20 0 17 -70 28 -76 12z m46 -15 c0 -12 -20 -25
-27 -18 -7 7 6 27 18 27 5 0 9 -4 9 -9z m-10 -56 c0 -8 -7 -15 -15 -15 -8 0
-15 7 -15 15 0 8 7 15 15 15 8 0 15 -7 15 -15z"/>
<path d="M286 683 c-3 -16 -8 -38 -12 -50 -4 -14 -2 -23 4 -23 9 0 21 23 28
55 1 6 5 18 9 28 5 11 2 17 -8 17 -8 0 -17 -12 -21 -27z"/>
<path d="M782 698 c-5 -7 -12 -23 -16 -35 -3 -13 -9 -32 -12 -43 -3 -13 -1
-20 9 -20 9 0 17 14 21 35 4 19 11 35 17 35 6 0 7 5 4 10 -3 6 1 10 9 10 9 0
16 5 16 10 0 14 -36 12 -48 -2z"/>
<path d="M1056 683 c-3 -16 -8 -38 -12 -50 -4 -14 -2 -23 4 -23 9 0 21 23 28
55 1 6 5 18 9 28 5 11 2 17 -8 17 -8 0 -17 -12 -21 -27z"/>
<path d="M1012 688 c-18 -22 -19 -73 -2 -73 9 0 14 7 12 18 -2 10 1 24 7 31 5
6 6 17 2 24 -6 10 -10 10 -19 0z"/>
<path d="M1433 692 c-6 -4 -14 -24 -18 -45 -6 -31 -4 -37 10 -37 11 0 15 5 11
16 -3 8 -1 24 5 35 12 24 8 41 -8 31z"/>
<path d="M1470 676 c-15 -39 -12 -66 6 -66 11 0 14 6 9 20 -4 12 -1 28 6 36 9
11 9 18 1 26 -8 8 -14 4 -22 -16z"/>
<path d="M319 678 c-6 -26 -7 -68 0 -68 9 0 21 33 21 58 0 10 -18 18 -21 10z"/>
<path d="M360 661 c-14 -27 -13 -54 3 -48 6 2 11 11 9 19 -1 9 5 21 13 28 9 8
15 8 15 2 0 -6 -4 -13 -10 -17 -10 -6 -3 -35 9 -35 3 0 11 16 17 35 11 34 10
35 -17 35 -18 0 -32 -7 -39 -19z"/>
<path d="M435 649 c-6 -28 -1 -48 10 -37 3 2 8 19 11 36 8 42 -12 43 -21 1z"/>
<path d="M472 643 c-2 -40 12 -34 22 10 5 19 3 27 -7 27 -9 0 -14 -13 -15 -37z"/>
<path d="M522 668 c-16 -16 -16 -51 1 -45 6 2 11 11 9 20 -1 8 2 18 8 22 14 9
13 -38 -1 -52 -6 -6 -18 -9 -25 -6 -8 3 -14 0 -14 -6 0 -6 11 -11 25 -11 25 0
38 16 49 63 6 23 3 27 -17 27 -13 0 -28 -5 -35 -12z"/>
<path d="M594 655 c-8 -13 -13 -29 -9 -35 8 -13 42 -13 50 0 3 6 -2 10 -12 10
-15 0 -14 2 5 16 27 19 28 34 2 34 -11 0 -27 -11 -36 -25z"/>
<path d="M674 655 c5 -18 2 -25 -9 -25 -8 0 -15 -5 -15 -11 0 -6 10 -9 23 -7
17 2 22 9 20 30 -1 18 4 28 15 31 9 3 4 5 -12 6 -25 1 -28 -2 -22 -24z"/>
<path d="M820 659 c-14 -24 -6 -49 14 -49 21 0 46 28 46 51 0 27 -46 26 -60
-2z m31 -22 c-16 -16 -26 0 -10 19 9 11 15 12 17 4 2 -6 -1 -17 -7 -23z"/>
<path d="M896 654 c-9 -34 -9 -38 3 -42 6 -2 11 3 11 11 0 9 12 24 28 35 l27
21 -32 -1 c-24 -1 -33 -6 -37 -24z"/>
<path d="M1089 678 c-6 -24 -5 -68 2 -68 5 0 9 1 9 3 0 1 4 17 9 35 8 25 7 32
-5 32 -8 0 -14 -1 -15 -2z"/>
<path d="M1130 659 c-7 -11 -9 -27 -6 -35 8 -21 51 -14 51 8 0 9 4 20 8 24 14
14 7 24 -18 24 -14 0 -29 -8 -35 -21z m37 -25 c-3 -3 -12 -4 -19 -1 -8 3 -5 6
6 6 11 1 17 -2 13 -5z"/>
<path d="M1352 668 c-30 -30 -2 -70 35 -49 16 9 15 10 -7 11 l-25 1 23 11 c12
6 22 17 22 25 0 16 -32 17 -48 1z m28 -8 c0 -5 -5 -10 -11 -10 -5 0 -7 5 -4
10 3 6 8 10 11 10 2 0 4 -4 4 -10z"/>
<path d="M1515 660 c-9 -10 -15 -26 -12 -35 7 -17 42 -20 52 -5 3 6 -2 10 -12
10 -15 0 -14 2 5 16 12 8 22 19 22 25 0 16 -36 10 -55 -11z"/>
<path d="M1586 671 c-2 -3 -6 -18 -10 -33 -8 -35 11 -37 24 -3 5 14 16 25 25
25 8 0 15 4 15 9 0 10 -48 12 -54 2z"/>
</g>
</svg>
