<?xml version="1.0" standalone="no"?>
<!DOCTYPE svg PUBLIC "-//W3C//DTD SVG 20010904//EN"
 "http://www.w3.org/TR/2001/REC-SVG-20010904/DTD/svg10.dtd">
<svg version="1.0" xmlns="http://www.w3.org/2000/svg"
 width="256.000000pt" height="256.000000pt" viewBox="0 0 256.000000 256.000000"
 preserveAspectRatio="xMidYMid meet">
<metadata>
Created by potrace 1.16, written by Peter Selinger 2001-2019
</metadata>
<g transform="translate(0.000000,256.000000) scale(0.100000,-0.100000)"
fill="#000000" stroke="none">
<path d="M493 1614 l-60 -107 59 -101 c33 -56 61 -102 62 -103 1 -1 29 44 63
101 l60 103 -57 102 c-32 56 -60 104 -63 107 -2 2 -31 -44 -64 -102z m128 -69
l21 -40 -40 -68 c-22 -38 -42 -71 -45 -73 -3 -3 -24 29 -47 70 l-41 76 42 75
43 75 23 -37 c13 -21 32 -56 44 -78z"/>
<path d="M1449 1529 c-14 -6 -31 -21 -38 -36 -15 -33 7 -70 47 -79 56 -12 62
-16 62 -34 0 -10 -9 -21 -20 -25 -21 -7 -60 10 -60 25 0 6 -9 10 -20 10 -11 0
-20 -7 -20 -15 0 -28 38 -55 78 -55 53 0 82 23 82 64 0 39 -14 53 -61 62 -46
9 -63 23 -48 40 15 19 58 18 65 -1 6 -16 44 -21 44 -6 0 17 -35 49 -60 54 -14
3 -37 1 -51 -4z"/>
<path d="M2030 1533 c-43 -16 -62 -58 -42 -91 5 -7 30 -21 57 -30 55 -20 66
-36 35 -52 -25 -13 -60 -4 -60 16 0 8 -9 14 -20 14 -28 0 -26 -35 2 -54 52
-37 138 -8 138 47 0 35 -14 49 -66 62 -37 9 -49 17 -49 31 0 25 52 33 61 10 7
-19 44 -22 44 -3 0 20 -14 35 -43 46 -31 12 -35 12 -57 4z"/>
<path d="M990 1425 c0 -101 1 -105 21 -105 21 0 22 3 15 80 -3 44 -4 80 -2 80
3 0 10 -19 16 -42 6 -24 16 -60 21 -80 14 -54 44 -52 59 2 5 22 15 58 20 80 6
22 13 40 16 40 2 0 1 -36 -2 -80 -7 -77 -6 -80 15 -80 20 0 21 4 21 105 l0
105 -29 0 c-27 0 -31 -5 -45 -54 -9 -30 -16 -61 -16 -70 0 -9 -4 -16 -10 -16
-5 0 -10 7 -10 16 0 9 -7 40 -16 70 -14 49 -18 54 -45 54 l-29 0 0 -105z"/>
<path d="M1210 1425 c0 -98 1 -105 20 -105 19 0 20 7 20 105 0 98 -1 105 -20
105 -19 0 -20 -7 -20 -105z"/>
<path d="M1260 1509 c0 -17 5 -20 25 -17 l25 5 0 -88 c0 -82 2 -89 20 -89 18
0 20 7 20 85 0 84 0 85 25 85 18 0 25 5 25 20 0 18 -7 20 -70 20 -65 0 -70 -2
-70 -21z"/>
<path d="M1578 1443 c4 -101 18 -123 81 -123 65 0 76 16 79 119 4 90 4 91 -20
91 -22 0 -23 -2 -20 -79 3 -72 2 -81 -18 -91 -11 -6 -30 -8 -40 -5 -18 6 -20
16 -20 91 0 80 -1 84 -22 84 -22 0 -23 -2 -20 -87z"/>
<path d="M1750 1425 l0 -105 53 0 c70 0 101 17 105 56 2 19 -3 36 -13 44 -14
12 -14 15 2 32 16 18 16 22 2 46 -13 25 -21 27 -82 30 l-67 3 0 -106z m109 66
c25 -16 4 -41 -34 -41 -31 0 -35 3 -35 25 0 21 5 25 28 25 15 0 33 -4 41 -9z
m-13 -81 c19 0 24 -5 24 -25 0 -20 -5 -25 -24 -25 -13 0 -31 -3 -40 -6 -13 -5
-16 1 -16 31 0 30 3 36 16 31 9 -3 27 -6 40 -6z"/>
<path d="M1925 1425 c0 -99 1 -105 20 -105 19 0 20 6 20 105 0 99 -1 105 -20
105 -19 0 -20 -6 -20 -105z"/>
<path d="M2150 1425 c0 -98 1 -105 20 -105 17 0 20 7 20 48 l0 48 42 -2 42 -2
-3 -46 c-2 -40 0 -46 18 -46 18 0 20 8 23 105 3 105 3 105 -21 105 -21 0 -23
-4 -19 -40 l4 -40 -43 0 -43 0 0 40 c0 33 -3 40 -20 40 -19 0 -20 -7 -20 -105z"/>
<path d="M2330 1425 c0 -98 1 -105 20 -105 19 0 20 7 20 105 0 98 -1 105 -20
105 -19 0 -20 -7 -20 -105z"/>
<path d="M251 1193 c-33 -58 -60 -107 -59 -107 2 -1 57 0 124 2 l120 3 57 98
c31 54 57 101 57 105 0 3 -53 6 -119 6 l-118 0 -62 -107z m249 72 c0 -3 -19
-39 -42 -80 l-43 -75 -88 0 -88 0 12 23 c6 12 27 48 46 80 l34 57 85 0 c46 0
84 -2 84 -5z"/>
<path d="M560 1295 c0 -3 26 -50 57 -105 l57 -99 120 -3 c67 -2 122 -3 124 -2
1 1 -25 49 -59 108 l-62 106 -118 0 c-66 0 -119 -2 -119 -5z m227 -37 c6 -7
27 -43 47 -80 l38 -68 -89 0 -88 0 -40 73 c-22 39 -41 75 -43 79 -6 14 165 9
175 -4z"/>
<path d="M1514 1290 c-35 -14 -54 -50 -54 -103 0 -81 64 -128 133 -96 21 9 47
46 47 64 0 15 -41 2 -50 -15 -24 -45 -90 -9 -90 50 0 59 66 95 90 50 11 -20
50 -28 50 -11 0 6 -10 21 -22 35 -25 29 -72 40 -104 26z"/>
<path d="M2064 1286 c-54 -24 -70 -130 -27 -178 44 -49 153 -19 153 42 0 16
-42 6 -51 -12 -23 -43 -89 -5 -89 52 0 57 66 95 89 52 11 -20 51 -27 51 -9 -1
20 -25 46 -54 57 -34 12 -34 12 -72 -4z"/>
<path d="M990 1188 l0 -103 75 0 c65 0 75 2 75 18 0 14 -9 17 -55 17 -55 0
-55 0 -55 31 l0 32 50 -5 c44 -4 50 -3 50 13 0 16 -8 19 -50 19 -47 0 -50 1
-50 26 0 26 1 26 55 22 48 -4 55 -2 55 14 0 16 -9 18 -75 18 l-75 0 0 -102z"/>
<path d="M1158 1188 l3 -103 65 0 c54 0 64 3 64 18 0 14 -9 17 -45 17 l-45 0
0 85 c0 81 -1 85 -22 85 -23 0 -23 -2 -20 -102z"/>
<path d="M1302 1189 l4 -100 77 -2 c67 -2 77 0 77 16 0 14 -9 17 -58 17 l-59
0 0 31 c0 31 1 31 49 27 40 -2 48 0 48 15 0 14 -9 17 -50 17 -46 0 -50 2 -46
23 3 20 9 22 57 22 43 0 54 4 57 18 3 15 -6 17 -78 17 l-82 0 4 -101z"/>
<path d="M1630 1281 c0 -12 20 -25 39 -26 12 0 15 -18 15 -85 1 -78 3 -85 21
-85 18 0 20 8 23 87 3 83 4 88 24 85 14 -1 24 4 26 16 3 15 -5 17 -72 17 -42
0 -76 -4 -76 -9z"/>
<path d="M1790 1195 c0 -52 -1 -98 -2 -102 -2 -3 7 -8 20 -9 20 -4 22 0 22 41
0 41 2 45 24 45 29 0 43 -16 48 -55 2 -21 8 -30 21 -30 9 0 17 3 17 8 0 4 0
20 0 36 0 16 -7 36 -15 44 -13 13 -13 16 0 21 18 7 20 67 3 84 -7 7 -39 12
-75 12 l-63 0 0 -95z m110 50 c18 -21 -4 -45 -41 -45 -26 0 -29 4 -29 30 0 26
3 30 29 30 16 0 34 -7 41 -15z"/>
<path d="M1960 1187 c0 -96 1 -103 20 -103 19 0 20 7 20 103 0 96 -1 103 -20
103 -19 0 -20 -7 -20 -103z"/>
<path d="M1798 925 l-24 -80 49 -3 c36 -2 54 2 68 14 23 21 24 50 2 62 -14 9
-14 10 5 16 23 8 39 43 25 56 -4 4 -29 10 -55 12 l-46 3 -24 -80z m92 51 c0
-18 -15 -36 -30 -36 -13 0 -17 5 -13 20 4 16 43 31 43 16z m-22 -88 c-2 -15
-11 -24 -27 -26 -19 -3 -22 0 -17 13 3 9 6 21 6 26 0 5 9 9 21 9 15 0 20 -5
17 -22z"/>
<path d="M236 970 c-80 -71 -48 -150 55 -134 53 9 50 29 -3 29 -41 0 -43 1
-46 32 -5 50 37 87 89 80 29 -4 39 -2 39 9 0 10 -14 14 -50 14 -41 0 -55 -5
-84 -30z"/>
<path d="M385 968 c-6 -21 -35 -121 -35 -125 0 -2 9 -3 20 -3 13 0 20 7 20 18
0 11 9 27 21 37 20 19 20 19 10 -9 -15 -37 -14 -46 3 -46 19 0 22 6 31 58 8
47 -4 55 -38 25 -19 -17 -19 -17 -12 7 4 14 10 31 12 38 3 6 -2 12 -11 12 -9
0 -18 -6 -21 -12z"/>
<path d="M1106 958 c-8 -13 -19 -42 -26 -66 -6 -24 -14 -50 -17 -58 -3 -9 1
-14 14 -14 15 0 22 12 32 50 8 30 18 50 27 50 8 0 14 5 14 10 0 6 -4 10 -10
10 -5 0 -10 5 -10 10 0 6 9 10 19 10 11 0 23 5 26 10 4 6 -6 10 -24 10 -21 0
-35 -7 -45 -22z"/>
<path d="M1512 933 c-6 -27 -14 -58 -18 -70 -9 -33 20 -30 35 3 6 15 10 29 7
32 -3 2 1 20 9 39 19 44 19 43 -3 43 -14 0 -22 -12 -30 -47z"/>
<path d="M1439 933 c-6 -16 -13 -43 -16 -60 -5 -30 -3 -33 21 -33 26 0 35 13
16 25 -11 7 -2 36 17 51 16 14 7 44 -13 44 -8 0 -19 -12 -25 -27z"/>
<path d="M2055 948 c-14 -43 -23 -92 -19 -100 3 -4 14 -8 24 -8 16 0 18 5 14
28 -4 19 0 34 10 45 9 8 13 23 10 31 -7 19 -33 21 -39 4z"/>
<path d="M2125 948 c-14 -43 -23 -92 -19 -100 3 -4 14 -8 24 -8 16 0 18 5 14
28 -4 19 0 34 10 45 9 8 13 23 10 31 -7 19 -33 21 -39 4z"/>
<path d="M491 914 c-24 -30 -28 -74 -7 -74 20 0 41 27 25 32 -14 5 5 48 21 48
12 0 13 -14 3 -24 -5 -4 -8 -19 -8 -32 -1 -35 31 -32 39 4 3 15 8 37 12 50 6
20 3 22 -29 22 -26 0 -41 -7 -56 -26z"/>
<path d="M596 904 c-4 -19 -10 -42 -13 -50 -10 -27 27 -14 39 14 18 42 17 72
-3 72 -11 0 -19 -12 -23 -36z"/>
<path d="M650 925 c-8 -10 -9 -15 -1 -15 7 0 8 -8 1 -26 -14 -35 -13 -44 5
-44 13 0 35 55 35 88 0 17 -25 15 -40 -3z"/>
<path d="M721 914 c-39 -50 -22 -88 23 -53 l26 21 -12 -27 c-10 -22 -17 -26
-40 -23 -19 3 -28 0 -28 -9 0 -10 11 -13 38 -11 31 3 40 8 53 38 9 19 20 47
23 63 6 25 4 27 -28 27 -25 0 -40 -7 -55 -26z m49 -2 c0 -5 -9 -17 -20 -27
-22 -20 -26 -14 -10 16 11 19 30 26 30 11z"/>
<path d="M841 923 c-26 -22 -31 -62 -10 -76 18 -11 69 -2 69 13 0 6 -11 8 -24
4 -13 -3 -26 -1 -30 4 -3 5 7 12 23 15 44 9 54 57 12 57 -11 0 -28 -8 -40 -17z
m39 -12 c0 -5 -7 -11 -15 -15 -15 -5 -20 5 -8 17 9 10 23 9 23 -2z"/>
<path d="M943 924 c-3 -9 -1 -25 5 -35 17 -26 15 -32 -8 -26 -24 6 -38 -11
-16 -19 27 -10 66 5 66 26 0 10 -4 22 -10 25 -17 10 -11 25 10 25 11 0 20 5
20 10 0 17 -60 12 -67 -6z"/>
<path d="M1172 917 c-42 -44 -22 -87 34 -73 26 7 56 59 47 83 -8 21 -58 15
-81 -10z m48 -15 c0 -19 -18 -42 -32 -42 -12 0 -9 35 4 48 17 17 28 15 28 -6z"/>
<path d="M1276 913 c-3 -16 -8 -38 -12 -50 -9 -34 22 -30 38 5 7 15 23 31 36
37 23 10 31 35 11 35 -7 0 -18 -8 -26 -17 -14 -17 -14 -17 -9 0 4 12 0 17 -13
17 -12 0 -21 -10 -25 -27z"/>
<path d="M1555 920 c-17 -19 -17 -20 -1 -14 16 6 16 4 2 -30 -14 -34 -14 -36
3 -36 14 0 22 12 30 44 6 25 11 47 11 50 0 14 -28 4 -45 -14z"/>
<path d="M1629 919 c-25 -25 -23 -72 4 -77 26 -5 67 6 67 19 0 7 -11 8 -30 4
-19 -4 -30 -3 -30 4 0 6 8 11 18 11 23 0 42 19 42 42 0 25 -44 24 -71 -3z m41
-8 c0 -6 -4 -13 -10 -16 -5 -3 -10 1 -10 9 0 9 5 16 10 16 6 0 10 -4 10 -9z"/>
<path d="M1949 919 c-13 -13 -19 -30 -17 -47 2 -22 9 -28 34 -30 19 -2 36 3
45 14 12 15 11 16 -19 10 -40 -9 -42 6 -2 21 20 8 30 18 30 32 0 28 -43 28
-71 0z m39 -11 c-2 -6 -10 -14 -16 -16 -7 -2 -10 2 -6 12 7 18 28 22 22 4z"/>
<path d="M2190 913 c-24 -31 -23 -66 3 -71 26 -5 67 6 67 18 0 6 -11 8 -24 4
-13 -3 -26 -1 -30 4 -3 5 7 12 23 15 28 6 46 30 35 48 -11 19 -53 9 -74 -18z
m50 -2 c0 -5 -7 -11 -15 -15 -15 -5 -20 5 -8 17 9 10 23 9 23 -2z"/>
<path d="M2296 928 c-3 -7 -9 -28 -15 -47 -14 -43 -14 -41 9 -41 13 0 20 7 20
18 0 21 29 52 48 52 7 0 12 7 12 15 0 20 -9 19 -32 -2 -18 -16 -18 -16 -12 0
4 12 1 17 -10 17 -9 0 -18 -6 -20 -12z"/>
</g>
</svg>
