<?xml version="1.0" standalone="no"?>
<!DOCTYPE svg PUBLIC "-//W3C//DTD SVG 20010904//EN"
 "http://www.w3.org/TR/2001/REC-SVG-20010904/DTD/svg10.dtd">
<svg version="1.0" xmlns="http://www.w3.org/2000/svg"
 width="256.000000pt" height="256.000000pt" viewBox="0 0 256.000000 256.000000"
 preserveAspectRatio="xMidYMid meet">
<metadata>
Created by potrace 1.16, written by Peter Selinger 2001-2019
</metadata>
<g transform="translate(0.000000,256.000000) scale(0.100000,-0.100000)"
fill="#000000" stroke="none">
<path d="M53 2507 c-46 -47 -53 -59 -53 -93 l0 -39 19 40 c21 45 80 106 126
129 l30 16 -34 0 c-28 0 -44 -10 -88 -53z"/>
<path d="M2420 2540 c42 -22 103 -83 124 -125 l16 -30 0 34 c0 28 -10 44 -53
88 -45 44 -60 53 -88 53 l-34 -1 35 -19z"/>
<path d="M1270 2363 c0 -6 -45 -91 -100 -189 l-100 -177 102 -183 c99 -176
104 -183 118 -162 8 12 56 94 106 183 l91 162 -102 182 c-103 184 -115 203
-115 184z m99 -215 l85 -151 -21 -36 c-11 -20 -45 -81 -76 -136 -87 -156 -70
-157 -164 13 -46 82 -83 154 -83 160 0 14 162 302 170 302 3 0 43 -68 89 -152z"/>
<path d="M763 1452 c-53 -95 -100 -175 -105 -178 -30 -19 12 -24 201 -24 l208
0 102 180 c55 99 101 182 101 185 0 2 -92 6 -205 7 l-205 3 -97 -173z m435 91
c-18 -32 -58 -103 -89 -158 l-56 -100 -177 -3 -177 -2 24 42 c14 24 44 77 67
118 23 41 53 94 67 118 l24 42 175 0 174 0 -32 -57z"/>
<path d="M1493 1622 c-112 -1 -203 -6 -203 -10 0 -4 45 -86 99 -182 l98 -175
211 -3 211 -2 -98 172 c-54 95 -102 180 -107 188 -8 13 -40 15 -211 12z m271
-176 c47 -85 86 -157 86 -160 0 -3 -78 -6 -172 -6 l-173 0 -54 98 c-30 53 -69
125 -88 160 l-35 62 175 0 175 0 86 -154z"/>
<path d="M450 976 l0 -116 25 0 c25 0 25 1 25 83 l1 82 30 -58 c16 -32 33 -56
37 -53 5 3 19 27 32 55 13 28 26 51 29 51 3 0 5 -35 3 -79 l-3 -78 25 0 26 0
0 111 0 112 -36 -4 c-30 -4 -38 -11 -57 -49 l-21 -44 -23 46 c-15 29 -30 45
-42 45 -11 0 -26 3 -35 6 -14 5 -16 -8 -16 -110z m50 74 c0 -5 -4 -10 -10 -10
-5 0 -10 5 -10 10 0 6 5 10 10 10 6 0 10 -4 10 -10z m150 0 c0 -5 -4 -10 -10
-10 -5 0 -10 5 -10 10 0 6 5 10 10 10 6 0 10 -4 10 -10z"/>
<path d="M720 973 l0 -113 25 0 25 0 0 113 0 112 -25 0 -25 0 0 -112z m27 -46
c-2 -23 -3 -1 -3 48 0 50 1 68 3 42 2 -26 2 -67 0 -90z"/>
<path d="M800 1063 c0 -19 6 -23 30 -23 l30 0 0 -90 0 -90 26 0 26 0 -4 90 -3
90 31 0 c25 0 30 4 29 21 -1 19 -8 21 -83 22 -79 2 -82 1 -82 -20z"/>
<path d="M1020 1077 c-20 -10 -25 -20 -25 -52 0 -36 3 -40 48 -62 65 -33 64
-56 -3 -51 -49 3 -50 2 -50 -24 0 -26 3 -28 44 -28 62 0 94 14 102 45 10 41
-10 71 -62 95 -57 24 -49 44 15 38 39 -3 41 -2 41 24 0 26 -3 28 -42 28 -24 0
-54 -6 -68 -13z"/>
<path d="M1170 995 c0 -96 3 -106 37 -124 36 -19 82 -13 108 14 23 22 25 32
25 112 0 86 0 88 -25 89 -24 2 -24 0 -27 -85 l-3 -86 -32 -3 -33 -3 0 89 c0
90 0 90 -25 88 -25 -1 -25 -2 -25 -91z"/>
<path d="M1380 973 l0 -113 65 4 c35 1 71 9 80 16 21 17 20 76 -2 89 -12 7
-14 13 -7 18 18 13 24 42 14 67 -8 22 -16 25 -79 28 l-71 3 0 -112z m110 47
c0 -21 -1 -22 -39 -24 -18 -1 -25 4 -26 22 -1 19 3 22 32 22 26 0 33 -4 33
-20z m-2 -89 c3 -17 -2 -21 -22 -21 -14 0 -29 0 -33 0 -6 0 -9 27 -4 44 1 3
13 3 29 2 19 -2 28 -10 30 -25z"/>
<path d="M1577 1084 c-1 -1 -1 -52 1 -114 3 -105 4 -111 23 -108 19 3 21 10
21 112 0 104 -2 110 -21 111 -12 1 -22 1 -24 -1z"/>
<path d="M1690 1077 c-51 -26 -39 -84 25 -115 64 -31 61 -55 -5 -50 -49 3 -51
2 -48 -22 3 -21 9 -25 44 -28 55 -4 92 12 100 43 10 39 -10 71 -56 95 -54 27
-52 43 5 38 43 -3 45 -2 45 24 0 26 -3 28 -42 28 -24 0 -54 -6 -68 -13z"/>
<path d="M1840 974 l0 -114 25 0 c23 0 25 4 25 45 l0 45 40 0 40 0 0 -45 c0
-41 2 -45 25 -45 l26 0 -3 112 c-3 107 -4 111 -25 113 -21 1 -23 -3 -23 -44
l0 -47 -40 4 c-40 4 -40 4 -40 46 0 37 -3 41 -25 42 l-25 2 0 -114z"/>
<path d="M2060 973 l0 -113 25 0 25 0 0 114 0 114 -25 -2 -25 -1 0 -112z"/>
<path d="M678 785 c-2 -2 -2 -53 0 -114 3 -107 4 -111 26 -111 21 0 22 3 18
63 -7 102 0 110 33 45 16 -32 32 -58 35 -58 4 0 17 23 30 51 13 28 27 52 32
55 4 3 5 -31 1 -76 l-6 -80 27 0 26 0 0 113 0 112 -32 -1 c-29 -1 -35 -6 -53
-47 -11 -26 -22 -46 -25 -46 -3 0 -14 19 -26 42 -15 32 -27 43 -52 48 -17 3
-33 5 -34 4z m47 -35 c3 -5 -1 -10 -9 -10 -9 0 -16 5 -16 10 0 6 4 10 9 10 6
0 13 -4 16 -10z m155 0 c0 -5 -7 -10 -16 -10 -8 0 -12 5 -9 10 3 6 10 10 16
10 5 0 9 -4 9 -10z"/>
<path d="M989 779 c-36 -14 -52 -57 -47 -125 6 -67 22 -85 81 -91 39 -5 49 -2
71 20 23 23 26 35 26 90 0 47 -5 71 -17 86 -21 25 -76 35 -114 20z m76 -104
l0 -60 -35 0 c-33 0 -35 2 -38 39 -2 22 -1 50 3 63 5 20 11 24 38 21 l32 -3 0
-60z m-98 -7 c-3 -8 -6 -5 -6 6 -1 11 2 17 5 13 3 -3 4 -12 1 -19z"/>
<path d="M1140 763 c0 -19 6 -23 30 -23 l30 0 0 -90 c0 -89 0 -90 25 -90 25 0
25 1 25 90 l0 90 30 0 c23 0 30 5 30 19 0 18 -9 20 -85 23 -82 3 -85 2 -85
-19z"/>
<path d="M1372 780 c-57 -24 -67 -153 -17 -197 35 -31 86 -30 122 1 25 22 28
30 28 90 0 53 -4 69 -21 86 -24 24 -79 34 -112 20z m78 -59 c25 -47 5 -111
-35 -111 -27 0 -45 25 -45 65 0 40 18 65 45 65 14 0 29 -8 35 -19z"/>
<path d="M1540 673 l0 -113 25 0 c23 0 25 4 25 45 0 36 3 43 15 38 9 -3 25
-23 36 -44 16 -32 25 -39 50 -39 l30 0 -30 43 -29 43 24 21 c27 25 31 59 9 90
-12 18 -27 22 -85 25 l-70 3 0 -112z m118 43 c5 -22 -13 -36 -45 -36 -19 0
-23 5 -23 31 0 28 2 30 32 27 23 -2 34 -9 36 -22z"/>
<path d="M1770 777 c-28 -14 -39 -59 -19 -83 7 -9 30 -24 51 -35 56 -28 50
-49 -13 -49 -47 0 -50 -2 -47 -22 3 -20 10 -23 51 -26 65 -4 97 16 97 62 0 35
-15 54 -67 80 -47 24 -42 39 12 34 43 -3 45 -2 45 24 0 26 -3 28 -42 28 -24 0
-54 -6 -68 -13z"/>
<path d="M425 400 c-11 -17 5 -32 21 -19 7 6 11 15 8 20 -7 12 -21 11 -29 -1z"/>
<path d="M1915 400 c-11 -17 5 -32 21 -19 7 6 11 15 8 20 -7 12 -21 11 -29 -1z"/>
<path d="M2085 400 c-11 -17 5 -32 21 -19 7 6 11 15 8 20 -7 12 -21 11 -29 -1z"/>
<path d="M160 315 l0 -85 48 0 c69 0 87 17 87 80 0 65 -25 90 -91 90 l-44 0 0
-85z m100 29 c6 -14 10 -32 10 -40 0 -21 -37 -54 -60 -54 -18 0 -20 7 -20 60
l0 60 30 0 c24 0 33 -6 40 -26z"/>
<path d="M1395 348 c-28 -61 -34 -128 -10 -128 9 0 15 9 15 25 0 23 4 25 40
25 36 0 40 -2 40 -25 0 -16 6 -25 15 -25 24 0 18 67 -10 128 -18 38 -30 52
-45 52 -15 0 -27 -14 -45 -52z m68 -15 c14 -36 14 -38 -4 -41 -10 -2 -28 -2
-38 0 -18 3 -18 5 -4 41 8 20 19 37 23 37 4 0 15 -17 23 -37z"/>
<path d="M1762 313 l3 -87 49 0 c29 1 51 7 57 15 11 17 12 80 1 95 -12 18 -43
24 -64 13 -20 -11 -21 -9 -15 20 6 27 4 31 -14 31 -19 0 -20 -5 -17 -87z m86
-17 c4 -35 -9 -50 -37 -41 -15 4 -21 15 -21 35 0 48 53 54 58 6z"/>
<path d="M1990 370 c0 -11 -7 -20 -15 -20 -8 0 -15 -4 -15 -10 0 -5 7 -10 15
-10 11 0 15 -12 15 -50 0 -44 3 -50 24 -56 28 -7 46 1 46 21 0 8 -7 11 -20 8
-16 -4 -20 0 -20 20 0 14 -3 32 -6 41 -5 12 0 16 20 16 14 0 26 5 26 10 0 6
-9 10 -20 10 -13 0 -20 7 -20 20 0 11 -7 20 -15 20 -8 0 -15 -9 -15 -20z"/>
<path d="M381 351 c-7 -5 -22 -6 -32 -4 -17 5 -19 -1 -19 -61 0 -52 3 -66 15
-66 11 0 15 12 15 50 0 43 3 50 20 50 13 0 20 7 20 20 0 23 0 23 -19 11z"/>
<path d="M643 350 c-44 -18 -42 -103 3 -120 29 -12 74 -3 74 14 0 6 -16 11
-37 11 -20 0 -38 6 -40 13 -3 8 9 12 41 12 45 0 46 1 40 28 -4 15 -9 30 -13
33 -12 13 -47 17 -68 9z m55 -37 c2 -9 -7 -13 -27 -13 -30 0 -39 9 -24 24 11
10 46 3 51 -11z"/>
<path d="M970 347 c-20 -10 -26 -21 -28 -54 -3 -35 1 -44 21 -58 30 -19 73
-11 87 15 34 63 -20 127 -80 97z m55 -57 c0 -31 -3 -35 -25 -35 -19 0 -26 6
-28 23 -5 36 5 54 30 50 19 -2 23 -9 23 -38z"/>
<path d="M1297 353 c-4 -3 -20 -6 -37 -5 l-31 1 3 -61 c4 -79 28 -95 28 -19 0
48 2 51 25 51 18 0 25 5 25 20 0 21 -3 24 -13 13z"/>
<path d="M1591 351 c-7 -5 -22 -6 -32 -4 -17 5 -19 -1 -19 -61 0 -51 3 -66 14
-66 11 0 16 15 18 53 3 45 6 52 26 55 21 3 22 0 22 -52 0 -43 3 -56 15 -56 11
0 15 12 15 49 0 35 4 51 16 55 29 11 33 6 36 -46 4 -77 28 -76 28 1 0 67 -15
86 -58 70 -14 -6 -30 -5 -42 1 -22 12 -21 12 -39 1z"/>
<path d="M2180 353 c-45 -16 -56 -92 -16 -118 45 -30 96 1 96 57 0 43 -42 74
-80 61z m45 -63 c0 -31 -3 -35 -25 -35 -19 0 -26 6 -28 23 -5 36 5 54 30 50
19 -2 23 -9 23 -38z"/>
<path d="M2341 351 c-7 -5 -22 -6 -32 -4 -17 5 -19 -1 -19 -62 0 -80 22 -87
30 -9 4 41 8 49 25 49 17 0 20 -8 23 -52 2 -38 7 -53 18 -53 11 0 14 14 14 60
0 48 -4 61 -19 70 -23 12 -22 12 -40 1z"/>
<path d="M420 284 c0 -54 3 -65 16 -62 12 2 16 17 17 66 2 53 -1 62 -15 62
-15 0 -18 -10 -18 -66z"/>
<path d="M485 314 c8 -47 33 -84 55 -84 18 0 38 34 50 88 7 27 5 32 -11 32
-14 0 -19 -7 -19 -27 -1 -16 -7 -39 -14 -52 l-13 -24 -12 33 c-6 18 -11 41
-11 51 0 11 -7 19 -16 19 -13 0 -15 -7 -9 -36z"/>
<path d="M800 334 c0 -8 10 -37 21 -65 18 -40 19 -52 9 -64 -9 -11 -10 -19 -2
-27 14 -14 78 84 87 135 6 30 4 37 -9 37 -9 0 -16 -8 -16 -17 0 -23 -22 -83
-31 -83 -4 0 -13 23 -20 50 -12 46 -39 70 -39 34z"/>
<path d="M1088 290 c4 -63 22 -82 59 -61 11 6 24 6 35 0 16 -9 18 -4 18 56 0
50 -3 65 -14 65 -11 0 -16 -14 -18 -47 -3 -44 -5 -48 -28 -48 -23 0 -25 3 -23
48 1 38 -1 47 -15 47 -14 0 -16 -9 -14 -60z"/>
<path d="M1910 285 c0 -51 3 -65 15 -65 12 0 15 14 15 65 0 51 -3 65 -15 65
-12 0 -15 -14 -15 -65z"/>
<path d="M2080 284 c0 -55 3 -65 16 -62 13 2 17 17 18 66 1 53 -2 62 -16 62
-15 0 -18 -10 -18 -66z"/>
<path d="M0 147 c0 -33 7 -46 54 -93 47 -46 60 -54 93 -54 l38 0 -42 21 c-48
23 -108 86 -129 133 l-13 31 -1 -38z"/>
<path d="M2546 154 c-9 -36 -84 -114 -131 -135 l-40 -19 39 0 c34 0 46 7 93
53 45 46 53 60 53 90 0 43 -5 47 -14 11z"/>
</g>
</svg>
