<?xml version="1.0" standalone="no"?>
<!DOCTYPE svg PUBLIC "-//W3C//DTD SVG 20010904//EN"
 "http://www.w3.org/TR/2001/REC-SVG-20010904/DTD/svg10.dtd">
<svg version="1.0" xmlns="http://www.w3.org/2000/svg"
 width="180.000000pt" height="180.000000pt" viewBox="0 0 180.000000 180.000000"
 preserveAspectRatio="xMidYMid meet">
<metadata>
Created by potrace 1.16, written by Peter Selinger 2001-2019
</metadata>
<g transform="translate(0.000000,180.000000) scale(0.100000,-0.100000)"
fill="#000000" stroke="none">
<path d="M697 1778 c-18 -77 -288 -1770 -283 -1775 3 -4 8 -4 11 -1 5 4 295
1766 295 1789 0 19 -18 8 -23 -13z"/>
<path d="M1420 1798 c0 -2 -58 -406 -130 -898 -71 -492 -127 -896 -124 -899 2
-3 8 0 12 5 7 7 263 1757 262 1787 0 6 -20 11 -20 5z"/>
</g>
</svg>
