<?xml version="1.0" standalone="no"?>
<!DOCTYPE svg PUBLIC "-//W3C//DTD SVG 20010904//EN"
 "http://www.w3.org/TR/2001/REC-SVG-20010904/DTD/svg10.dtd">
<svg version="1.0" xmlns="http://www.w3.org/2000/svg"
 width="180.000000pt" height="180.000000pt" viewBox="0 0 180.000000 180.000000"
 preserveAspectRatio="xMidYMid meet">
<metadata>
Created by potrace 1.16, written by Peter Selinger 2001-2019
</metadata>
<g transform="translate(0.000000,180.000000) scale(0.100000,-0.100000)"
fill="#000000" stroke="none">
<path d="M781 1218 c-13 -79 -47 -288 -75 -465 l-52 -323 185 0 186 0 64 443
c34 243 65 452 68 465 l5 22 -179 0 -179 0 -23 -142z m283 -320 c-34 -238 -63
-434 -63 -435 -2 -7 -311 -2 -311 5 0 20 124 787 135 840 5 22 8 22 153 22
l148 0 -62 -432z"/>
</g>
</svg>
