<?xml version="1.0" standalone="no"?>
<!DOCTYPE svg PUBLIC "-//W3C//DTD SVG 20010904//EN"
 "http://www.w3.org/TR/2001/REC-SVG-20010904/DTD/svg10.dtd">
<svg version="1.0" xmlns="http://www.w3.org/2000/svg"
 width="256.000000pt" height="256.000000pt" viewBox="0 0 256.000000 256.000000"
 preserveAspectRatio="xMidYMid meet">
<metadata>
Created by potrace 1.16, written by Peter Selinger 2001-2019
</metadata>
<g transform="translate(0.000000,256.000000) scale(0.100000,-0.100000)"
fill="#000000" stroke="none">
<path d="M1310 1528 c0 -9 -3 -23 -6 -32 -4 -11 -1 -16 11 -16 15 0 14 -3 -3
-27 -14 -20 -28 -84 -51 -224 -17 -108 -31 -200 -31 -205 0 -5 49 -8 110 -6
76 2 110 7 110 15 0 14 68 463 75 492 4 19 -1 20 -105 20 -96 0 -110 -2 -110
-17z m186 -35 c-3 -16 -13 -79 -22 -141 -13 -85 -19 -109 -28 -99 -6 8 -26 20
-43 27 -45 17 -41 29 7 23 l40 -6 0 41 c0 41 0 41 -46 48 -27 4 -55 2 -70 -5
-20 -9 -24 -8 -24 5 0 8 8 26 17 40 17 27 24 74 11 74 -4 0 -8 5 -8 10 0 6 35
10 86 10 l86 0 -6 -27z m-78 -133 c6 0 12 -11 12 -24 0 -23 -2 -23 -29 -13
-65 24 -88 -31 -23 -60 55 -25 72 -43 72 -74 0 -64 -40 -93 -114 -83 -43 6
-46 9 -46 36 0 28 1 29 22 14 24 -17 65 -21 86 -7 26 16 9 54 -33 77 -56 32
-65 41 -65 73 0 41 44 75 85 66 11 -3 26 -5 33 -5z m-29 -177 c3 -2 -1 -9 -7
-15 -10 -10 -20 -8 -46 6 -19 10 -39 15 -45 12 -11 -7 -16 36 -5 46 4 5 83
-33 103 -49z m-35 -97 c72 -1 76 -2 76 -23 0 -22 -4 -23 -85 -23 l-85 0 0 38
c0 26 3 33 9 23 7 -11 31 -15 85 -15z"/>
<path d="M1188 1400 c4 -70 -3 -85 -28 -55 -16 19 -83 19 -124 0 -85 -40 -87
-175 -4 -221 36 -21 98 -16 141 10 l38 23 2 157 c2 134 0 156 -13 156 -13 0
-15 -12 -12 -70z m-24 -91 c22 -18 26 -28 26 -74 0 -46 -4 -56 -26 -74 -41
-32 -98 -28 -135 8 -38 39 -39 87 -3 130 21 26 33 31 69 31 28 0 51 -7 69 -21z"/>
<path d="M1251 1434 c-18 -50 -9 -52 23 -4 23 36 24 40 8 40 -12 0 -23 -13
-31 -36z"/>
<path d="M1548 1290 c-3 -174 -2 -180 17 -180 19 0 20 6 17 86 -3 78 -1 88 19
110 31 33 82 32 115 -1 24 -24 25 -31 22 -110 -3 -79 -2 -85 17 -85 19 0 20 5
15 96 -6 93 -7 97 -38 125 -37 33 -100 40 -122 14 -23 -28 -30 -15 -30 55 0
55 -3 70 -15 70 -12 0 -15 -30 -17 -180z"/>
<path d="M2117 1433 c-14 -13 -7 -33 11 -33 26 0 34 11 21 27 -13 14 -22 16
-32 6z"/>
<path d="M297 1335 l-37 -26 0 -99 c0 -89 2 -100 18 -100 15 0 17 9 13 86 -3
78 -1 88 20 110 28 30 81 32 109 4 17 -17 20 -33 20 -110 0 -79 2 -90 18 -90
15 0 17 10 14 89 -4 82 -2 90 19 110 29 27 78 27 107 1 26 -25 36 -75 29 -146
-5 -49 -4 -54 15 -54 14 0 18 5 14 16 -3 9 -6 52 -6 96 0 75 -2 81 -29 109
-37 36 -94 40 -135 8 l-26 -20 -26 20 c-37 29 -90 27 -137 -4z"/>
<path d="M740 1338 c-49 -33 -69 -91 -49 -144 20 -52 69 -84 127 -84 38 0 50
5 84 40 39 38 40 42 36 91 -7 70 -46 110 -115 116 -39 4 -55 0 -83 -19z m141
-37 c21 -22 29 -39 29 -66 0 -52 -44 -95 -97 -95 -46 0 -76 19 -93 59 -40 98
85 177 161 102z"/>
<path d="M1873 1345 c-87 -37 -93 -165 -11 -215 40 -24 114 -27 146 -4 20 14
22 14 22 0 0 -9 8 -16 18 -16 15 0 17 10 14 103 l-3 104 -45 21 c-51 25 -95
27 -141 7z m128 -32 c27 -16 29 -22 29 -79 0 -53 -3 -64 -22 -76 -64 -41 -138
-24 -164 37 -18 45 -10 78 28 110 35 30 87 33 129 8z"/>
<path d="M2115 1235 c0 -113 2 -125 18 -125 16 0 17 11 15 122 -2 100 -6 123
-18 126 -13 2 -15 -17 -15 -123z"/>
<path d="M2205 1235 c0 -104 2 -125 15 -125 12 0 15 17 15 89 0 73 3 93 19
110 11 12 27 21 38 21 10 0 18 7 18 15 0 22 -36 18 -60 -7 l-20 -22 0 22 c0
12 -6 22 -12 22 -10 0 -13 -32 -13 -125z"/>
<path d="M1540 1049 l0 -42 26 26 c29 29 26 57 -6 57 -17 0 -20 -6 -20 -41z
m40 17 c0 -3 -4 -8 -10 -11 -5 -3 -10 -1 -10 4 0 6 5 11 10 11 6 0 10 -2 10
-4z"/>
<path d="M1721 1059 c-15 -44 -13 -58 5 -34 11 14 18 16 21 8 11 -30 19 -10 9
22 -13 43 -21 44 -35 4z"/>
<path d="M1891 1048 c1 -27 3 -34 6 -19 l5 25 18 -23 17 -24 -1 34 c-1 34 -11
49 -33 49 -9 0 -13 -14 -12 -42z"/>
<path d="M2060 1055 c0 -19 5 -35 10 -35 6 0 10 16 10 35 0 19 -4 35 -10 35
-5 0 -10 -16 -10 -35z"/>
<path d="M2204 1079 c-4 -7 4 -20 17 -31 l24 -20 -22 5 c-24 5 -32 -8 -10 -16
31 -11 53 25 22 37 -8 3 -15 10 -15 15 0 6 7 7 17 4 11 -4 14 -3 9 5 -9 15
-33 15 -42 1z"/>
</g>
</svg>
