<?xml version="1.0" standalone="no"?>
<!DOCTYPE svg PUBLIC "-//W3C//DTD SVG 20010904//EN"
 "http://www.w3.org/TR/2001/REC-SVG-20010904/DTD/svg10.dtd">
<svg version="1.0" xmlns="http://www.w3.org/2000/svg"
 width="192.000000pt" height="192.000000pt" viewBox="0 0 192.000000 192.000000"
 preserveAspectRatio="xMidYMid meet">
<metadata>
Created by potrace 1.16, written by Peter Selinger 2001-2019
</metadata>
<g transform="translate(0.000000,192.000000) scale(0.100000,-0.100000)"
fill="#000000" stroke="none">
<path d="M734 1869 c-6 -27 -8 -52 -4 -54 7 -5 24 94 17 101 -2 2 -8 -19 -13
-47z"/>
<path d="M1476 1908 c-6 -18 -46 -329 -46 -352 0 -40 10 -7 16 50 3 32 12 104
20 159 17 110 22 155 17 155 -2 0 -5 -6 -7 -12z"/>
<path d="M709 1710 c-8 -49 -12 -90 -8 -90 7 0 32 170 26 176 -2 2 -10 -36
-18 -86z"/>
<path d="M685 1563 c-9 -64 -35 -213 -42 -238 -3 -13 -2 -16 4 -10 8 9 24 91
48 253 4 23 4 42 1 42 -2 0 -8 -21 -11 -47z"/>
<path d="M1415 1483 c-3 -27 -10 -77 -16 -113 -41 -272 -45 -315 -29 -305 6 4
8 10 5 15 -3 5 1 58 10 117 18 113 18 119 30 223 4 36 12 73 16 82 5 10 5 19
0 23 -5 3 -12 -16 -16 -42z"/>
<path d="M635 1264 c-19 -130 -28 -183 -35 -211 -5 -18 -5 -35 -1 -38 10 -5
55 275 46 283 -2 2 -6 -13 -10 -34z"/>
<path d="M1352 1030 c0 -14 2 -19 5 -12 2 6 2 18 0 25 -3 6 -5 1 -5 -13z"/>
<path d="M586 970 c-3 -19 -7 -42 -7 -50 0 -8 -5 -40 -10 -70 -5 -30 -18 -112
-29 -182 -11 -70 -23 -136 -27 -145 -4 -12 -3 -15 4 -8 6 6 18 55 27 110 8 55
25 158 36 229 12 70 19 133 17 140 -2 6 -7 -5 -11 -24z"/>
<path d="M1346 992 c-3 -5 -7 -40 -10 -78 -5 -63 -4 -65 3 -17 5 29 12 64 15
78 6 25 2 33 -8 17z"/>
<path d="M1311 765 c-6 -42 -11 -88 -10 -103 1 -15 7 12 14 60 7 48 15 94 18
103 4 8 3 15 -2 15 -5 0 -14 -34 -20 -75z"/>
<path d="M1286 577 c-4 -28 -10 -69 -13 -89 -3 -21 -2 -38 3 -38 5 0 10 23 12
52 1 28 6 67 11 85 5 18 6 35 1 38 -4 2 -11 -19 -14 -48z"/>
<path d="M509 494 c-1 -5 -1 -12 -1 -15 1 -3 -15 -100 -34 -215 -18 -115 -33
-222 -32 -239 l1 -30 4 30 c2 17 20 128 39 248 20 120 33 221 30 224 -3 4 -7
2 -7 -3z"/>
<path d="M1265 428 c-4 -14 -25 -161 -25 -180 0 -22 13 2 16 29 5 55 14 118
18 141 5 23 -2 31 -9 10z"/>
<path d="M1219 117 c-8 -64 -11 -113 -6 -108 4 4 11 39 13 76 3 37 9 77 13 89
5 11 5 29 2 40 -4 11 -13 -29 -22 -97z"/>
</g>
</svg>
