<?xml version="1.0" standalone="no"?>
<!DOCTYPE svg PUBLIC "-//W3C//DTD SVG 20010904//EN"
 "http://www.w3.org/TR/2001/REC-SVG-20010904/DTD/svg10.dtd">
<svg version="1.0" xmlns="http://www.w3.org/2000/svg"
 width="256.000000pt" height="256.000000pt" viewBox="0 0 256.000000 256.000000"
 preserveAspectRatio="xMidYMid meet">
<metadata>
Created by potrace 1.16, written by Peter Selinger 2001-2019
</metadata>
<g transform="translate(0.000000,256.000000) scale(0.100000,-0.100000)"
fill="#000000" stroke="none">
<path d="M1103 1981 c-74 -20 -131 -46 -195 -89 -55 -36 -52 -64 15 -130 29
-29 61 -52 72 -52 11 0 52 16 90 35 138 70 260 70 401 1 39 -20 80 -36 91 -36
10 0 43 24 72 54 72 73 69 94 -19 148 -103 61 -174 80 -325 84 -105 3 -144 0
-202 -15z m341 -21 c75 -19 165 -61 216 -100 l25 -19 -55 -56 -56 -55 -55 29
c-148 81 -325 80 -468 0 l-54 -31 -56 56 -56 57 25 19 c136 106 354 146 534
100z"/>
<path d="M677 1628 c-47 -112 -52 -141 -52 -288 0 -168 17 -240 83 -350 54
-88 75 -91 148 -19 61 61 65 78 29 140 -29 51 -65 160 -65 198 0 25 5 22 73
-44 118 -116 305 -195 422 -179 132 17 267 87 368 189 l64 64 -8 -52 c-9 -63
-31 -127 -64 -183 -14 -24 -25 -49 -25 -57 0 -23 112 -127 137 -127 26 0 54
33 93 114 46 95 64 177 64 301 0 117 -13 188 -50 273 l-23 52 -88 0 c-123 0
-127 -2 -147 -65 -37 -120 -166 -245 -294 -286 l-67 -21 -57 22 c-134 50 -244
157 -289 280 -25 68 -28 70 -151 70 l-88 0 -13 -32z m190 6 l22 -6 -24 -38
c-86 -137 -86 -349 0 -499 l26 -45 -56 -55 -56 -56 -19 25 c-39 49 -89 161
-106 236 -21 98 -15 254 14 334 44 121 33 110 109 110 38 0 78 -3 90 -6z
m1007 -46 c35 -80 49 -154 49 -253 0 -108 -21 -195 -69 -292 -56 -111 -59
-112 -125 -48 l-56 53 24 39 c55 91 75 206 61 344 -6 52 -61 179 -77 179 -18
0 -12 18 7 23 9 3 50 5 90 6 l73 1 23 -52z m-894 -143 c74 -97 231 -182 315
-172 112 13 237 95 311 204 l43 62 16 -43 c9 -24 18 -71 18 -104 2 -47 5 -58
15 -50 6 6 12 18 12 27 0 9 6 23 13 30 10 10 9 12 -2 9 -7 -2 -16 3 -19 11 -3
10 0 11 9 5 12 -6 12 -5 0 9 -8 10 -11 20 -8 24 4 3 1 15 -5 26 -10 20 -19 77
-12 77 8 0 35 -62 30 -68 -3 -3 -1 -11 5 -19 7 -7 14 -30 16 -49 3 -29 -3 -45
-33 -84 -86 -113 -234 -202 -382 -230 -106 -19 -291 59 -407 174 -38 38 -62
63 -52 56 16 -11 17 -8 17 43 0 31 7 77 16 103 12 36 13 53 5 71 -6 13 -11 32
-11 41 0 9 11 -9 24 -41 13 -32 43 -82 66 -112z m695 145 c3 -5 1 -10 -4 -10
-6 0 -11 5 -11 10 0 6 2 10 4 10 3 0 8 -4 11 -10z m-5 -30 c0 -5 -4 -10 -10
-10 -5 0 -10 5 -10 10 0 6 5 10 10 10 6 0 10 -4 10 -10z m-785 -30 c-2 -11 -7
-25 -10 -30 -7 -12 -14 -45 -17 -82 -1 -15 -7 -24 -13 -20 -5 3 -4 -2 4 -11 8
-10 11 -21 7 -25 -9 -8 -46 39 -40 50 3 5 9 6 14 3 5 -3 12 0 16 6 4 8 3 9 -4
5 -7 -4 -12 -1 -12 9 0 10 5 13 13 9 9 -6 9 -5 0 8 -7 8 -9 18 -5 22 4 4 7 11
7 14 1 4 6 17 13 28 6 12 8 24 5 28 -3 3 1 6 10 6 10 0 15 -7 12 -20z"/>
<path d="M922 907 c-69 -70 -69 -92 1 -134 80 -49 140 -73 223 -88 181 -35
347 -6 499 86 73 44 74 66 2 137 -30 30 -62 52 -74 52 -11 0 -54 -16 -95 -35
-139 -66 -268 -65 -395 5 -80 43 -99 40 -161 -23z m150 -1 c136 -69 282 -70
426 -1 l76 36 55 -55 c64 -64 66 -59 -49 -120 -183 -96 -391 -99 -575 -6 -131
65 -129 61 -65 125 30 30 57 55 60 55 3 0 35 -16 72 -34z"/>
</g>
</svg>
