<?xml version="1.0" standalone="no"?>
<!DOCTYPE svg PUBLIC "-//W3C//DTD SVG 20010904//EN"
 "http://www.w3.org/TR/2001/REC-SVG-20010904/DTD/svg10.dtd">
<svg version="1.0" xmlns="http://www.w3.org/2000/svg"
 width="100.000000pt" height="100.000000pt" viewBox="0 0 100.000000 100.000000"
 preserveAspectRatio="xMidYMid meet">
<metadata>
Created by potrace 1.16, written by Peter Selinger 2001-2019
</metadata>
<g transform="translate(0.000000,100.000000) scale(0.100000,-0.100000)"
fill="#000000" stroke="none">
<path d="M290 980 c0 -16 -8 -19 -57 -22 -57 -3 -58 -3 -61 -35 -3 -29 -7 -33
-33 -33 -25 0 -29 -4 -29 -29 0 -26 -4 -30 -32 -33 -33 -3 -33 -4 -36 -60 -3
-50 -6 -58 -22 -58 -11 0 -20 -4 -20 -10 0 -5 9 -10 20 -10 13 0 20 -7 20 -20
0 -13 -7 -20 -20 -20 -11 0 -20 -4 -20 -10 0 -5 11 -10 24 -10 19 0 22 -4 18
-25 -3 -16 -11 -25 -23 -25 -11 0 -19 -4 -19 -10 0 -5 9 -10 20 -10 18 0 20
-7 20 -60 0 -53 -2 -60 -20 -60 -11 0 -20 -4 -20 -10 0 -5 8 -10 19 -10 10 0
21 -9 24 -20 4 -16 0 -20 -19 -20 -13 0 -24 -4 -24 -10 0 -5 9 -10 20 -10 15
0 20 -7 20 -25 0 -18 -5 -25 -20 -25 -11 0 -20 -4 -20 -10 0 -5 9 -10 20 -10
16 0 19 -8 22 -58 3 -56 3 -57 36 -60 28 -3 32 -7 32 -33 0 -25 4 -29 29 -29
26 0 30 -4 33 -32 3 -33 4 -33 61 -36 49 -3 57 -6 57 -22 0 -11 5 -20 10 -20
6 0 10 9 10 20 0 13 7 20 20 20 13 0 20 -7 20 -20 0 -11 5 -20 10 -20 6 0 10
11 10 24 0 19 4 22 25 18 16 -3 25 -11 25 -23 0 -11 5 -19 10 -19 6 0 10 9 10
20 0 18 7 20 60 20 53 0 60 -2 60 -20 0 -11 5 -20 10 -20 6 0 10 8 10 19 0 10
9 21 20 24 16 4 20 0 20 -19 0 -13 5 -24 10 -24 6 0 10 9 10 20 0 15 7 20 25
20 18 0 25 -5 25 -20 0 -11 5 -20 10 -20 6 0 10 9 10 20 0 16 8 19 58 22 56 3
57 3 60 35 3 29 7 33 33 33 25 0 29 4 29 29 0 26 4 30 33 33 32 3 32 4 35 60
3 50 6 58 22 58 11 0 20 5 20 10 0 6 -9 10 -20 10 -15 0 -20 7 -20 25 0 18 5
25 20 25 11 0 20 5 20 10 0 6 -11 10 -24 10 -19 0 -23 4 -19 20 3 11 14 20 24
20 11 0 19 5 19 10 0 6 -9 10 -20 10 -18 0 -20 7 -20 60 0 53 2 60 20 60 11 0
20 5 20 10 0 6 -8 10 -19 10 -12 0 -20 9 -23 25 -4 21 -1 25 18 25 13 0 24 5
24 10 0 6 -9 10 -20 10 -13 0 -20 7 -20 20 0 13 7 20 20 20 11 0 20 5 20 10 0
6 -9 10 -20 10 -16 0 -19 8 -22 58 -3 56 -3 57 -35 60 -29 3 -33 7 -33 33 0
25 -4 29 -29 29 -26 0 -30 4 -33 33 -3 32 -4 32 -60 35 -50 3 -58 6 -58 22 0
11 -4 20 -10 20 -5 0 -10 -9 -10 -20 0 -15 -7 -20 -25 -20 -18 0 -25 5 -25 20
0 11 -4 20 -10 20 -5 0 -10 -11 -10 -24 0 -19 -4 -23 -20 -19 -11 3 -20 14
-20 24 0 11 -4 19 -10 19 -5 0 -10 -9 -10 -20 0 -18 -7 -20 -60 -20 -53 0 -60
2 -60 20 0 11 -4 20 -10 20 -5 0 -10 -8 -10 -19 0 -12 -9 -20 -25 -23 -21 -4
-25 -1 -25 18 0 13 -4 24 -10 24 -5 0 -10 -9 -10 -20 0 -13 -7 -20 -20 -20
-13 0 -20 7 -20 20 0 11 -4 20 -10 20 -5 0 -10 -9 -10 -20z m-58 -65 c-3 -16
-11 -25 -23 -25 -14 0 -19 7 -19 25 0 20 5 25 24 25 19 0 22 -4 18 -25z m518
-10 c0 -32 2 -35 30 -35 27 0 30 -3 30 -30 0 -27 3 -30 30 -30 27 0 30 -3 30
-30 0 -28 3 -30 35 -30 l35 0 0 -250 0 -250 -35 0 c-32 0 -35 -2 -35 -30 0
-27 -3 -30 -30 -30 -27 0 -30 -3 -30 -30 0 -27 -3 -30 -30 -30 -28 0 -30 -3
-30 -35 l0 -35 -250 0 -250 0 0 35 c0 32 -2 35 -30 35 -27 0 -30 3 -30 30 0
27 -3 30 -30 30 -27 0 -30 3 -30 30 0 28 -3 30 -35 30 l-35 0 0 250 0 250 35
0 c32 0 35 2 35 30 0 27 3 30 30 30 27 0 30 3 30 30 0 27 3 30 30 30 28 0 30
3 30 35 l0 35 250 0 250 0 0 -35z m60 10 c0 -18 -5 -25 -19 -25 -12 0 -20 9
-23 25 -4 21 -1 25 18 25 19 0 24 -5 24 -25z m-637 -64 c-3 -11 -13 -21 -24
-24 -15 -4 -19 0 -19 19 0 19 5 24 24 24 19 0 23 -4 19 -19z m697 -5 c0 -19
-4 -23 -19 -19 -11 3 -21 13 -24 24 -4 15 0 19 19 19 19 0 24 -5 24 -24z
m-760 -55 c0 -12 -9 -20 -25 -23 -21 -4 -25 -1 -25 18 0 19 5 24 25 24 18 0
25 -5 25 -19z m830 -5 c0 -19 -4 -22 -25 -18 -16 3 -25 11 -25 23 0 14 7 19
25 19 20 0 25 -5 25 -24z m-830 -577 c0 -14 -7 -19 -25 -19 -20 0 -25 5 -25
24 0 19 4 22 25 18 16 -3 25 -11 25 -23z m830 6 c0 -20 -5 -25 -25 -25 -33 0
-35 37 -2 43 12 2 23 5 25 6 1 0 2 -10 2 -24z m-767 -66 c4 -15 0 -19 -19 -19
-19 0 -24 5 -24 24 0 19 4 23 19 19 11 -3 21 -13 24 -24z m697 6 c0 -20 -5
-25 -24 -25 -19 0 -23 4 -19 19 3 11 12 22 22 24 9 3 17 5 19 6 1 0 2 -10 2
-24z m-638 -70 c4 -21 1 -25 -18 -25 -19 0 -24 5 -24 25 0 18 5 25 19 25 12 0
20 -9 23 -25z m578 0 c0 -20 -5 -25 -24 -25 -19 0 -22 4 -18 25 3 16 11 25 23
25 14 0 19 -7 19 -25z"/>
<path d="M290 905 c0 -8 -4 -15 -10 -15 -5 0 -10 -4 -10 -10 0 -5 9 -10 20
-10 15 0 20 7 20 25 0 14 -4 25 -10 25 -5 0 -10 -7 -10 -15z"/>
<path d="M690 895 c0 -18 5 -25 20 -25 11 0 20 5 20 10 0 6 -4 10 -10 10 -5 0
-10 7 -10 15 0 8 -4 15 -10 15 -5 0 -10 -11 -10 -25z"/>
<path d="M250 530 l0 -280 30 0 30 0 0 220 0 220 30 0 30 0 0 -65 0 -65 35 0
35 0 0 -60 0 -60 30 0 c27 0 30 3 30 30 0 25 4 30 25 30 19 0 23 -4 18 -17 -4
-10 -14 -23 -22 -30 -14 -11 -12 -12 12 -13 26 0 27 1 27 60 0 57 1 60 25 60
14 0 25 5 25 11 0 7 -10 9 -25 7 -22 -5 -25 -2 -25 23 0 26 4 29 30 29 l30 0
0 -190 0 -190 65 0 65 0 0 280 0 280 -65 0 -65 0 0 -30 c0 -27 -3 -30 -30 -30
l-30 0 0 -60 0 -60 -30 0 c-28 0 -30 -3 -30 -35 0 -32 -2 -35 -30 -35 l-30 0
0 65 0 65 -35 0 -35 0 0 60 0 60 -60 0 -60 0 0 -280z m480 0 c0 -249 -1 -258
-20 -263 -20 -5 -20 0 -20 263 0 263 0 268 20 263 19 -5 20 -14 20 -263z
m-436 248 c5 -10 7 -10 12 0 9 19 41 14 47 -8 5 -18 0 -20 -39 -20 -37 0 -44
3 -44 20 0 22 15 27 24 8z m379 -8 c4 -16 0 -20 -18 -20 -18 0 -22 4 -18 20 3
11 11 20 18 20 7 0 15 -9 18 -20z m-53 -55 c0 -18 -5 -25 -20 -25 -25 0 -27
37 -2 43 9 3 18 5 20 6 1 0 2 -10 2 -24z m-330 -215 c0 -147 -4 -230 -10 -230
-6 0 -10 83 -10 230 0 147 4 230 10 230 6 0 10 -83 10 -230z m60 220 c0 -5 -9
-10 -20 -10 -11 0 -20 5 -20 10 0 6 9 10 20 10 11 0 20 -4 20 -10z m320 0 c0
-5 -7 -10 -15 -10 -8 0 -15 5 -15 10 0 6 7 10 15 10 8 0 15 -4 15 -10z m2
-240 c-2 -176 -5 -210 -17 -210 -13 0 -15 29 -15 185 0 117 -4 185 -10 185 -5
0 -10 11 -10 25 0 21 5 25 28 25 l27 0 -3 -210z m-252 170 c0 -11 -7 -20 -15
-20 -8 0 -15 9 -15 20 0 11 7 20 15 20 8 0 15 -9 15 -20z m180 10 c0 -5 -4
-10 -10 -10 -5 0 -10 5 -10 10 0 6 5 10 10 10 6 0 10 -4 10 -10z m-180 -65 c0
-8 -7 -15 -15 -15 -8 0 -15 7 -15 15 0 8 7 15 15 15 8 0 15 -7 15 -15z m120 6
c0 -5 3 -16 6 -25 4 -11 0 -16 -14 -16 -15 0 -18 5 -14 25 4 23 22 36 22 16z
m-40 -76 c0 -20 -5 -25 -25 -25 -43 0 -27 34 23 49 1 1 2 -10 2 -24z m40 5 c0
-5 -4 -10 -10 -10 -5 0 -10 5 -10 10 0 6 5 10 10 10 6 0 10 -4 10 -10z m-60
-60 c0 -5 -4 -10 -10 -10 -5 0 -10 5 -10 10 0 6 5 10 10 10 6 0 10 -4 10 -10z"/>
<path d="M560 783 c1 -24 3 -26 13 -13 7 8 19 21 27 28 12 10 9 12 -13 12 -23
0 -27 -4 -27 -27z"/>
<path d="M390 740 c0 -5 5 -10 11 -10 7 0 18 -8 25 -17 12 -16 13 -15 14 10 0
22 -4 27 -25 27 -14 0 -25 -4 -25 -10z"/>
<path d="M110 720 c0 -5 -7 -10 -15 -10 -8 0 -15 -4 -15 -10 0 -5 11 -10 25
-10 18 0 25 5 25 20 0 11 -4 20 -10 20 -5 0 -10 -4 -10 -10z"/>
<path d="M870 710 c0 -15 7 -20 25 -20 14 0 25 5 25 10 0 6 -7 10 -15 10 -8 0
-15 5 -15 10 0 6 -4 10 -10 10 -5 0 -10 -9 -10 -20z"/>
<path d="M500 670 c0 -24 6 -25 26 -6 19 20 18 26 -6 26 -13 0 -20 -7 -20 -20z"/>
<path d="M330 640 c0 -5 7 -10 15 -10 8 0 15 5 15 10 0 6 -7 10 -15 10 -8 0
-15 -4 -15 -10z"/>
<path d="M460 620 c0 -5 5 -10 10 -10 6 0 10 5 10 10 0 6 -4 10 -10 10 -5 0
-10 -4 -10 -10z"/>
<path d="M370 528 c0 -16 -4 -28 -10 -28 -6 0 -10 -44 -10 -111 0 -95 -3 -114
-17 -125 -16 -12 -15 -13 10 -14 l27 0 0 125 0 125 30 0 c17 0 30 5 30 10 0 6
-7 10 -16 10 -9 0 -23 8 -30 18 -12 15 -13 14 -14 -10z"/>
<path d="M390 450 c0 -5 7 -10 15 -10 8 0 15 5 15 10 0 6 -7 10 -15 10 -8 0
-15 -4 -15 -10z"/>
<path d="M440 408 c0 -27 1 -28 60 -28 58 0 60 1 60 27 l0 27 -20 -22 c-24
-26 -40 -28 -40 -7 0 18 -16 20 -23 3 -3 -9 -10 -7 -21 7 -15 20 -15 19 -16
-7z"/>
<path d="M80 300 c0 -5 7 -10 15 -10 8 0 15 -4 15 -10 0 -5 5 -10 10 -10 6 0
10 9 10 20 0 15 -7 20 -25 20 -14 0 -25 -4 -25 -10z"/>
<path d="M870 290 c0 -11 5 -20 10 -20 6 0 10 5 10 10 0 6 7 10 15 10 8 0 15
5 15 10 0 6 -11 10 -25 10 -18 0 -25 -5 -25 -20z"/>
<path d="M270 120 c0 -5 5 -10 10 -10 6 0 10 -7 10 -15 0 -8 5 -15 10 -15 6 0
10 11 10 25 0 18 -5 25 -20 25 -11 0 -20 -4 -20 -10z"/>
<path d="M690 105 c0 -14 5 -25 10 -25 6 0 10 7 10 15 0 8 5 15 10 15 6 0 10
5 10 10 0 6 -9 10 -20 10 -15 0 -20 -7 -20 -25z"/>
</g>
</svg>
