<?xml version="1.0" standalone="no"?>
<!DOCTYPE svg PUBLIC "-//W3C//DTD SVG 20010904//EN"
 "http://www.w3.org/TR/2001/REC-SVG-20010904/DTD/svg10.dtd">
<svg version="1.0" xmlns="http://www.w3.org/2000/svg"
 width="144.000000pt" height="144.000000pt" viewBox="0 0 144.000000 144.000000"
 preserveAspectRatio="xMidYMid meet">
<metadata>
Created by potrace 1.16, written by Peter Selinger 2001-2019
</metadata>
<g transform="translate(0.000000,144.000000) scale(0.100000,-0.100000)"
fill="#000000" stroke="none">
<path d="M358 1193 c-10 -2 -18 -9 -18 -14 0 -6 4 -8 9 -4 6 3 14 -3 20 -12 9
-16 10 -14 11 10 0 15 -1 26 -2 26 -2 -1 -11 -3 -20 -6z"/>
<path d="M1059 1174 c26 -33 27 -57 2 -27 l-19 23 3 -35 c2 -19 0 -34 -3 -34
-22 3 -33 -3 -29 -15 4 -10 1 -13 -9 -9 -10 4 -12 0 -7 -13 6 -16 5 -17 -10
-4 -15 14 -14 17 9 38 30 26 16 30 -16 4 -20 -16 -21 -21 -10 -41 9 -17 9 -21
0 -16 -7 4 -10 1 -8 -11 2 -14 -2 -18 -16 -16 -13 3 -17 -1 -13 -12 4 -10 1
-13 -9 -9 -10 4 -12 0 -7 -13 6 -16 5 -17 -10 -4 -15 14 -14 17 9 38 30 26 16
30 -16 4 -20 -16 -21 -21 -10 -41 10 -19 10 -22 -1 -16 -9 6 -11 3 -6 -8 3 -9
3 -16 -1 -16 -22 4 -33 -3 -29 -15 4 -10 1 -13 -9 -9 -10 4 -12 0 -7 -13 6
-16 5 -17 -10 -4 -15 14 -14 17 9 38 30 26 16 30 -16 4 -20 -16 -21 -21 -10
-41 9 -17 9 -21 0 -16 -7 4 -10 1 -8 -11 2 -14 -2 -18 -16 -16 -13 3 -17 -1
-13 -12 4 -10 1 -13 -9 -9 -10 4 -12 0 -7 -13 6 -16 5 -17 -10 -4 -15 14 -14
17 9 38 34 30 13 28 -24 -3 -33 -28 -64 -35 -38 -9 24 23 19 40 -5 18 -20 -18
-21 -18 -40 6 -10 14 -17 30 -15 36 3 7 -4 10 -17 7 l-22 -5 23 21 c13 11 18
22 12 26 -5 3 -10 2 -10 -3 0 -6 -7 -13 -16 -16 -21 -8 -66 38 -51 53 7 7 2 8
-14 4 -23 -6 -23 -6 -6 11 24 24 22 43 -3 21 -11 -10 -23 -15 -27 -11 -4 4 -1
12 7 17 13 9 13 10 0 8 -8 -1 -23 1 -33 6 -13 5 -15 11 -7 20 9 11 6 12 -12 7
-22 -5 -22 -5 -5 12 24 25 21 43 -3 21 -21 -19 -21 -18 -44 8 -26 30 -75 59
-88 51 -4 -3 -8 -202 -8 -443 0 -413 1 -439 19 -459 23 -27 34 -28 26 -3 -5
18 -3 19 31 9 21 -5 52 -8 70 -6 18 2 31 1 28 -3 -2 -4 0 -10 5 -13 5 -4 12 3
16 13 4 13 12 18 21 14 9 -3 14 0 12 8 -2 8 2 13 9 12 7 -2 10 4 6 13 -5 13
-7 13 -15 2 -5 -8 -6 28 -3 87 2 55 5 134 5 175 1 67 2 73 15 56 7 -10 12 -30
10 -45 -2 -22 1 -26 23 -28 18 -1 21 1 11 8 -11 7 -11 9 -1 9 7 0 10 5 6 11
-4 8 -9 7 -15 -2 -4 -7 -12 -10 -16 -5 -4 5 -2 11 5 13 6 3 9 10 5 16 -4 7 1
6 10 -2 28 -22 81 -115 62 -107 -9 3 -14 2 -11 -3 9 -13 113 -6 132 10 16 13
17 12 11 -4 -4 -11 -3 -16 4 -12 5 4 7 15 4 24 -6 21 26 53 58 57 12 1 23 3
25 3 1 1 -1 9 -6 19 -6 12 0 25 20 45 l27 28 -2 -173 c-2 -143 -5 -174 -17
-180 -12 -5 -12 -7 3 -7 11 -1 17 -9 18 -23 0 -13 3 -17 6 -10 6 15 30 16 35
1 2 -7 32 -8 91 -3 l87 7 0 443 0 444 -30 0 c-17 0 -33 6 -36 14 -3 8 -12 17
-20 20 -11 4 -9 -2 5 -20z m-140 -229 c107 107 196 195 198 195 2 0 3 -189 3
-419 l0 -420 -90 -3 -91 -3 3 213 c2 116 2 212 1 212 -1 0 -50 -50 -110 -111
l-108 -111 -107 110 -108 110 0 -211 0 -212 -90 3 -90 3 0 423 0 423 197 -199
198 -199 194 196z m-186 -129 c4 -10 0 -12 -14 -9 -10 3 -16 9 -13 14 8 13 21
11 27 -5z m128 -233 c13 -16 12 -17 -3 -4 -10 7 -18 15 -18 17 0 8 8 3 21 -13z
m-186 -63 c10 -11 16 -20 13 -20 -3 0 -13 9 -23 20 -10 11 -16 20 -13 20 3 0
13 -9 23 -20z"/>
<path d="M1015 1011 c-3 -5 -2 -12 3 -15 5 -3 9 1 9 9 0 17 -3 19 -12 6z"/>
<path d="M425 990 c-4 -6 -11 -8 -16 -5 -5 4 -9 1 -9 -4 0 -19 34 -13 36 7 3
15 -3 16 -11 2z"/>
<path d="M1000 976 c0 -2 7 -7 16 -10 8 -3 12 -2 9 4 -6 10 -25 14 -25 6z"/>
<path d="M935 931 c-3 -5 -2 -12 3 -15 5 -3 9 1 9 9 0 17 -3 19 -12 6z"/>
<path d="M505 910 c-4 -6 -12 -7 -18 -3 -7 4 -6 -1 2 -10 15 -19 24 -16 27 8
3 17 -2 19 -11 5z"/>
<path d="M920 895 c0 -7 30 -13 34 -7 3 4 -4 9 -15 9 -10 1 -19 0 -19 -2z"/>
<path d="M1084 600 c0 -157 2 -221 3 -142 2 78 2 206 0 285 -1 78 -3 14 -3
-143z"/>
<path d="M855 851 c-3 -5 -2 -12 3 -15 5 -3 9 1 9 9 0 17 -3 19 -12 6z"/>
<path d="M585 830 c-4 -6 -12 -7 -18 -3 -7 4 -6 -1 2 -10 15 -19 24 -16 27 8
3 17 -2 19 -11 5z"/>
<path d="M840 816 c0 -2 7 -7 16 -10 8 -3 12 -2 9 4 -6 10 -25 14 -25 6z"/>
<path d="M775 771 c-3 -5 -1 -12 5 -16 17 -10 11 -25 -7 -19 -15 5 -16 4 -3
-5 20 -14 37 3 22 22 -7 8 -9 17 -5 20 3 4 4 7 0 7 -3 0 -8 -4 -12 -9z"/>
<path d="M665 750 c-4 -6 -12 -7 -18 -3 -7 4 -6 -1 2 -10 15 -19 24 -16 27 8
3 17 -2 19 -11 5z"/>
<path d="M580 710 c-9 -6 -10 -10 -3 -10 6 0 15 5 18 10 8 12 4 12 -15 0z"/>
<path d="M597 693 c-4 -3 -7 -11 -7 -17 0 -6 5 -5 12 2 6 6 9 14 7 17 -3 3 -9
2 -12 -2z"/>
<path d="M800 680 c0 -5 5 -10 10 -10 6 0 10 5 10 10 0 6 -4 10 -10 10 -5 0
-10 -4 -10 -10z"/>
<path d="M660 630 c-9 -6 -10 -10 -3 -10 6 0 15 5 18 10 8 12 4 12 -15 0z"/>
<path d="M749 623 c-13 -16 -12 -17 4 -4 9 7 17 15 17 17 0 8 -8 3 -21 -13z"/>
<path d="M677 613 c-4 -3 -7 -11 -7 -17 0 -6 5 -5 12 2 6 6 9 14 7 17 -3 3 -9
2 -12 -2z"/>
<path d="M1087 1183 c3 -7 9 -13 13 -13 4 0 10 6 13 13 3 7 -3 13 -13 13 -10
0 -16 -6 -13 -13z"/>
<path d="M580 949 c0 -5 5 -7 10 -4 6 3 10 8 10 11 0 2 -4 4 -10 4 -5 0 -10
-5 -10 -11z"/>
<path d="M880 286 c0 -2 7 -7 16 -10 8 -3 12 -2 9 4 -6 10 -25 14 -25 6z"/>
<path d="M941 254 c0 -11 3 -14 6 -6 3 7 2 16 -1 19 -3 4 -6 -2 -5 -13z"/>
<path d="M540 249 c0 -5 5 -7 10 -4 6 3 10 8 10 11 0 2 -4 4 -10 4 -5 0 -10
-5 -10 -11z"/>
<path d="M880 252 c0 -5 7 -9 15 -9 8 0 15 4 15 9 0 4 -7 8 -15 8 -8 0 -15 -4
-15 -8z"/>
<path d="M408 243 c12 -2 32 -2 45 0 12 2 2 4 -23 4 -25 0 -35 -2 -22 -4z"/>
<path d="M988 243 c12 -2 30 -2 40 0 9 3 -1 5 -23 4 -22 0 -30 -2 -17 -4z"/>
</g>
</svg>
