<?xml version="1.0" standalone="no"?>
<!DOCTYPE svg PUBLIC "-//W3C//DTD SVG 20010904//EN"
 "http://www.w3.org/TR/2001/REC-SVG-20010904/DTD/svg10.dtd">
<svg version="1.0" xmlns="http://www.w3.org/2000/svg"
 width="100.000000pt" height="100.000000pt" viewBox="0 0 100.000000 100.000000"
 preserveAspectRatio="xMidYMid meet">
<metadata>
Created by potrace 1.16, written by Peter Selinger 2001-2019
</metadata>
<g transform="translate(0.000000,100.000000) scale(0.100000,-0.100000)"
fill="#000000" stroke="none">
<path d="M100 510 l0 -240 55 0 55 0 0 131 0 132 28 -29 c15 -16 38 -45 52
-64 32 -45 66 -80 80 -80 5 0 10 -8 10 -17 0 -10 11 -30 24 -45 22 -26 29 -28
97 -28 73 0 74 1 97 35 12 19 22 37 22 41 0 9 28 34 39 34 6 0 11 6 11 13 0 7
18 33 40 57 22 24 40 48 40 53 0 9 25 37 34 37 3 0 6 -61 6 -135 l0 -135 55 0
55 0 0 240 0 240 -73 0 c-70 0 -73 -1 -91 -30 -9 -17 -27 -41 -39 -53 -12 -12
-29 -35 -37 -52 -17 -35 -35 -55 -47 -55 -5 0 -16 -13 -25 -28 -9 -16 -34 -47
-56 -71 l-39 -42 -18 27 c-22 34 -61 74 -72 74 -5 0 -17 14 -27 30 -9 17 -28
41 -42 55 -13 13 -24 29 -24 35 0 5 -4 10 -8 10 -4 0 -15 12 -24 28 -38 64
-51 72 -117 72 l-61 0 0 -240z m103 213 c-8 -3 6 -23 37 -53 28 -27 50 -56 50
-65 0 -9 18 -34 40 -55 22 -21 40 -46 40 -54 0 -9 5 -16 11 -16 5 0 7 5 4 10
-3 6 -1 10 4 10 6 0 11 -7 11 -15 0 -18 84 -105 100 -105 17 0 60 48 60 67 0
15 2 16 10 3 8 -12 10 -11 10 5 0 11 9 27 20 35 11 8 20 22 20 32 0 10 5 18
11 18 5 0 7 -4 4 -10 -3 -5 -1 -10 4 -10 6 0 11 7 11 16 0 9 14 29 30 44 17
16 30 38 30 52 0 18 2 20 10 8 8 -13 10 -12 10 3 0 11 14 32 30 47 20 19 26
30 18 33 -7 3 13 6 45 6 l57 1 0 -220 0 -220 -35 0 -35 0 0 180 c0 113 -4 180
-10 180 -5 0 -10 -10 -10 -23 0 -12 -9 -29 -20 -37 -11 -8 -20 -21 -20 -28 0
-8 -14 -27 -30 -42 -16 -15 -30 -36 -30 -47 0 -15 -2 -16 -10 -3 -8 13 -10 12
-10 -3 0 -20 -23 -47 -39 -47 -6 0 -11 -10 -11 -22 0 -19 -2 -20 -10 -8 -8 12
-10 10 -10 -8 0 -14 -13 -36 -30 -52 -20 -19 -26 -30 -18 -33 7 -3 -16 -5 -52
-5 -36 0 -59 2 -52 5 8 3 2 14 -18 33 -16 15 -30 33 -30 39 0 6 -7 11 -15 11
-9 0 -15 9 -15 23 0 18 -2 19 -10 7 -8 -13 -10 -12 -10 3 0 10 -18 36 -40 57
-22 21 -40 44 -40 50 0 7 -13 25 -30 40 -17 15 -30 37 -30 49 0 12 -4 21 -10
21 -6 0 -10 -63 -10 -170 l0 -170 -35 0 -35 0 0 220 0 220 48 -1 c26 0 41 -3
35 -6z"/>
<path d="M480 360 c0 -5 9 -10 20 -10 11 0 20 5 20 10 0 6 -9 10 -20 10 -11 0
-20 -4 -20 -10z"/>
</g>
</svg>
