<?xml version="1.0" standalone="no"?>
<!DOCTYPE svg PUBLIC "-//W3C//DTD SVG 20010904//EN"
 "http://www.w3.org/TR/2001/REC-SVG-20010904/DTD/svg10.dtd">
<svg version="1.0" xmlns="http://www.w3.org/2000/svg"
 width="256.000000pt" height="256.000000pt" viewBox="0 0 256.000000 256.000000"
 preserveAspectRatio="xMidYMid meet">
<metadata>
Created by potrace 1.16, written by Peter Selinger 2001-2019
</metadata>
<g transform="translate(0.000000,256.000000) scale(0.100000,-0.100000)"
fill="#000000" stroke="none">
<path d="M404 2154 c3 -9 6 -409 6 -890 l0 -874 875 0 875 0 0 889 0 889 -328
-332 c-180 -182 -377 -382 -437 -444 l-110 -113 -235 238 c-130 131 -325 331
-435 444 -110 113 -204 207 -209 208 -4 0 -5 -6 -2 -15z m1739 -1743 c-2 -3
-663 665 -792 802 -49 51 -60 67 -45 67 12 0 166 149 419 406 220 224 402 412
405 418 3 6 7 -371 10 -839 3 -467 4 -852 3 -854z m-887 869 c8 0 14 -3 14 -7
0 -5 -192 -201 -426 -438 -234 -236 -423 -422 -420 -412 3 10 6 393 6 850 l0
832 406 -412 c223 -227 412 -413 420 -413z m539 -557 l310 -313 -820 0 -820 0
409 416 410 416 100 -104 c55 -56 240 -244 411 -415z"/>
</g>
</svg>
