<?xml version="1.0" standalone="no"?>
<!DOCTYPE svg PUBLIC "-//W3C//DTD SVG 20010904//EN"
 "http://www.w3.org/TR/2001/REC-SVG-20010904/DTD/svg10.dtd">
<svg version="1.0" xmlns="http://www.w3.org/2000/svg"
 width="192.000000pt" height="192.000000pt" viewBox="0 0 192.000000 192.000000"
 preserveAspectRatio="xMidYMid meet">
<metadata>
Created by potrace 1.16, written by Peter Selinger 2001-2019
</metadata>
<g transform="translate(0.000000,192.000000) scale(0.100000,-0.100000)"
fill="#000000" stroke="none">
<path d="M330 980 l0 -625 622 2 623 3 3 622 2 623 -312 -312 c-172 -172 -313
-313 -313 -313 -1 0 -142 141 -313 313 l-312 312 0 -625z m593 0 c9 0 17 -3
17 -8 0 -4 -133 -140 -296 -302 -198 -197 -294 -287 -290 -270 3 14 6 272 6
575 l0 550 273 -273 c149 -149 280 -272 290 -272z m629 -32 c2 -310 2 -565 0
-568 -5 -8 -582 575 -582 588 0 7 8 12 18 12 9 0 136 119 282 265 146 146 268
265 272 265 4 0 9 -253 10 -562z m-322 -293 l275 -275 -555 0 -555 0 275 275
c151 151 277 275 280 275 3 0 129 -124 280 -275z"/>
</g>
</svg>
