<?xml version="1.0" standalone="no"?>
<!DOCTYPE svg PUBLIC "-//W3C//DTD SVG 20010904//EN"
 "http://www.w3.org/TR/2001/REC-SVG-20010904/DTD/svg10.dtd">
<svg version="1.0" xmlns="http://www.w3.org/2000/svg"
 width="192.000000pt" height="192.000000pt" viewBox="0 0 192.000000 192.000000"
 preserveAspectRatio="xMidYMid meet">
<metadata>
Created by potrace 1.16, written by Peter Selinger 2001-2019
</metadata>
<g transform="translate(0.000000,192.000000) scale(0.100000,-0.100000)"
fill="#000000" stroke="none">
<path d="M180 1890 c0 -25 4 -30 25 -31 78 -4 81 -7 90 -69 6 -44 10 -50 31
-51 77 -4 80 -7 89 -69 6 -44 10 -50 31 -51 77 -4 80 -7 89 -69 6 -44 10 -50
31 -51 77 -4 80 -7 89 -69 6 -44 10 -50 31 -51 77 -4 80 -7 89 -69 6 -44 10
-50 31 -51 77 -4 80 -7 89 -69 l7 -50 61 0 62 0 -1 40 c-3 61 16 77 91 79 28
1 30 3 29 41 -3 61 16 77 91 79 28 1 30 3 29 41 -3 61 16 77 91 79 28 1 30 3
29 41 -3 61 16 77 91 79 28 1 30 3 29 41 -3 61 16 77 91 79 28 1 30 3 29 41
-2 53 14 71 67 77 52 6 46 2 51 32 1 13 -3 26 -9 28 -8 3 -13 -4 -13 -15 0
-15 -9 -21 -41 -25 -52 -7 -69 -24 -76 -74 -5 -39 -7 -41 -46 -46 -50 -7 -67
-24 -74 -74 -5 -39 -7 -41 -46 -46 -50 -7 -67 -24 -74 -74 -5 -39 -7 -41 -46
-46 -50 -7 -67 -24 -74 -74 -5 -39 -7 -41 -46 -46 -50 -7 -67 -24 -74 -74 -5
-39 -7 -41 -46 -46 -50 -7 -67 -24 -74 -76 -5 -40 -7 -41 -44 -41 -37 0 -38 1
-45 45 -7 52 -32 75 -81 75 -30 0 -32 2 -39 45 -7 52 -32 75 -81 75 -30 0 -32
2 -39 45 -7 52 -32 75 -81 75 -30 0 -32 2 -39 45 -7 52 -32 75 -81 75 -30 0
-32 2 -39 45 -7 52 -32 75 -81 75 -30 0 -32 2 -39 45 -7 53 -32 75 -81 75 -26
0 -33 4 -33 20 0 11 -4 20 -10 20 -5 0 -10 -13 -10 -30z"/>
<path d="M1032 983 c-7 -10 -11 -13 -8 -8 3 7 -20 10 -59 10 -40 0 -61 -3 -57
-10 3 -5 -1 -5 -9 2 -8 6 -24 10 -34 8 -11 -2 -27 -4 -35 -4 -13 -1 -13 -2 0
-11 13 -8 8 -14 -11 -12 -3 1 -6 -6 -6 -14 0 -8 3 -14 7 -14 11 0 41 36 35 42
-3 2 1 5 9 5 8 0 12 -5 10 -11 -4 -11 173 -13 184 -2 3 3 11 -3 19 -14 20 -29
34 -25 23 6 -6 14 -8 31 -4 37 3 7 -2 3 -10 -7 -12 -15 -16 -16 -16 -5 0 12
-2 12 -9 0 -7 -11 -10 -11 -12 3 -4 15 -5 15 -17 -1z"/>
<path d="M1123 945 c0 -8 4 -12 9 -9 5 3 6 10 3 15 -9 13 -12 11 -12 -6z"/>
<path d="M852 923 c-15 -12 -15 -12 2 -6 15 5 17 3 11 -8 -5 -8 1 -5 13 5 12
11 22 15 22 9 0 -6 23 -9 53 -8 28 1 58 -3 65 -8 7 -6 12 -6 11 -1 -4 23 2 26
17 8 8 -10 12 -13 8 -5 -6 11 -3 13 12 7 15 -6 16 -5 7 5 -18 18 -199 19 -221
2z"/>
<path d="M720 886 c7 -7 13 -7 20 0 6 6 3 10 -10 10 -13 0 -16 -4 -10 -10z"/>
<path d="M1180 890 c0 -5 5 -10 11 -10 5 0 7 5 4 10 -3 6 -8 10 -11 10 -2 0
-4 -4 -4 -10z"/>
<path d="M1214 886 c1 -8 7 -20 13 -27 6 -8 13 -23 16 -34 4 -19 5 -18 6 2 0
12 -6 28 -14 36 -8 8 -12 17 -9 20 3 3 1 8 -4 11 -6 3 -9 0 -8 -8z"/>
<path d="M690 880 c0 -6 -4 -9 -9 -5 -5 3 -13 0 -17 -6 -4 -7 -3 -9 4 -5 5 3
12 2 14 -3 1 -5 9 -3 15 4 8 9 9 16 3 20 -6 3 -10 1 -10 -5z"/>
<path d="M801 876 c-8 -10 -9 -16 -1 -21 6 -3 8 -10 5 -15 -6 -10 21 -7 32 3
4 4 8 15 9 23 1 9 0 13 -3 10 -4 -3 -12 -1 -18 4 -9 7 -16 6 -24 -4z m33 -28
c-3 -5 -12 -4 -20 3 -7 6 -11 15 -8 21 3 5 12 4 20 -3 7 -6 11 -15 8 -21z"/>
<path d="M874 875 c-10 -8 -15 -15 -10 -15 5 0 -1 -11 -13 -24 -13 -14 -31
-23 -42 -21 -11 2 -17 0 -14 -5 3 -5 15 -7 26 -5 13 3 19 0 16 -8 -2 -7 -13
-12 -24 -12 -27 0 -38 -11 -38 -37 0 -12 -5 -23 -12 -25 -8 -3 -11 3 -8 16 2
11 -4 26 -13 33 -15 11 -15 11 -5 -2 6 -8 11 -19 12 -25 0 -19 -41 -53 -60
-50 -11 2 -17 0 -14 -5 3 -5 15 -7 26 -5 13 3 19 0 16 -8 -2 -7 -13 -12 -24
-12 -12 0 -25 -4 -30 -8 -4 -5 -8 -18 -8 -29 0 -12 -5 -23 -12 -25 -8 -3 -11
3 -8 16 2 11 -4 26 -13 33 -15 11 -15 11 -5 -2 6 -8 11 -19 12 -25 0 -19 -41
-53 -60 -50 -11 2 -17 0 -14 -5 3 -5 15 -7 26 -5 13 3 19 0 16 -8 -2 -7 -13
-12 -24 -12 -12 0 -25 -4 -30 -8 -4 -5 -8 -18 -8 -29 0 -12 -5 -23 -12 -25 -8
-3 -11 3 -8 16 2 11 -4 26 -13 33 -15 11 -15 11 -5 -2 19 -25 19 -28 -6 -53
-13 -15 -31 -24 -42 -22 -11 2 -17 0 -14 -5 3 -5 15 -7 26 -5 13 3 19 0 16 -8
-2 -7 -13 -12 -24 -12 -27 0 -38 -11 -38 -37 0 -12 -5 -23 -12 -25 -8 -3 -11
3 -8 16 2 11 -4 26 -13 33 -16 12 -16 11 -2 -6 19 -24 19 -20 -9 -49 -13 -15
-31 -24 -42 -22 -11 2 -17 0 -14 -5 3 -5 15 -7 26 -5 13 3 19 0 16 -8 -2 -7
-13 -12 -24 -12 -27 0 -38 -11 -38 -38 0 -11 -5 -22 -12 -24 -8 -3 -11 3 -8
16 2 11 -4 26 -13 33 -15 11 -15 11 -5 -2 19 -25 19 -28 -6 -53 -13 -15 -31
-24 -42 -22 -11 2 -17 0 -14 -5 3 -5 15 -7 26 -5 13 3 19 0 16 -8 -2 -7 -13
-12 -25 -12 -26 0 -37 -11 -37 -37 0 -12 -5 -23 -12 -25 -8 -3 -11 3 -8 16 2
11 -4 26 -13 33 -15 11 -15 11 -5 -2 6 -8 11 -19 12 -25 0 -15 -41 -55 -50
-49 -14 8 -30 -35 -26 -69 4 -30 4 -30 7 8 l3 40 7 -35 8 -35 -3 41 c-1 27 2
41 10 41 8 0 11 -14 10 -41 -3 -41 -3 -41 4 -6 l7 35 5 -40 4 -40 5 42 c3 23
2 39 -2 37 -13 -8 -9 11 4 24 17 17 33 15 19 -2 -10 -12 -8 -14 11 -11 47 5
80 29 95 67 12 29 27 45 62 62 35 18 49 33 59 60 10 28 25 42 60 60 36 18 50
33 60 60 10 28 25 42 60 60 36 18 50 33 60 60 10 28 25 42 60 60 36 18 50 33
60 60 10 28 25 42 62 61 46 23 60 44 65 98 2 13 -1 15 -11 6 -17 -14 -19 2 -2
19 13 13 32 17 25 5 -3 -5 30 -8 73 -8 43 0 76 3 73 8 -7 12 12 8 25 -5 17
-17 15 -33 -2 -19 -12 10 -14 8 -12 -11 6 -51 19 -69 66 -93 37 -19 51 -32 60
-60 9 -27 23 -41 60 -60 37 -19 51 -33 60 -60 9 -27 23 -41 60 -60 37 -19 51
-33 60 -60 9 -27 23 -41 60 -60 37 -19 51 -33 60 -60 9 -27 23 -41 60 -60 37
-19 51 -33 60 -60 12 -36 53 -66 98 -71 19 -2 21 0 11 12 -14 17 2 19 19 2 13
-13 17 -32 4 -24 -4 2 -5 -14 -3 -37 l5 -42 6 40 6 40 6 -35 c5 -32 5 -32 3 6
-1 26 2 41 10 41 8 0 11 -14 10 -41 l-3 -41 8 35 7 35 3 -40 c3 -38 3 -38 7
-8 4 34 -12 77 -26 69 -9 -6 -48 34 -47 49 1 6 5 17 11 25 7 13 6 13 -7 2 -9
-7 -15 -22 -13 -33 3 -13 0 -19 -8 -16 -7 2 -12 13 -12 25 0 26 -11 37 -38 37
-11 0 -22 5 -24 12 -3 8 3 11 16 8 11 -2 26 4 33 13 11 13 11 14 -2 7 -26 -16
-38 -14 -62 12 -24 25 -24 28 -5 53 10 13 10 13 -5 2 -9 -7 -15 -22 -13 -33 3
-13 0 -19 -8 -16 -7 2 -12 13 -12 25 0 26 -11 37 -37 37 -12 0 -23 5 -25 12
-3 8 3 11 16 8 11 -2 26 4 33 13 11 13 11 14 -2 7 -25 -16 -38 -14 -57 9 -21
23 -23 33 -8 56 7 13 6 13 -7 2 -9 -7 -15 -22 -13 -33 3 -13 0 -19 -8 -16 -7
2 -12 13 -12 24 0 27 -11 38 -37 38 -12 0 -23 5 -25 12 -3 8 3 11 16 8 11 -2
26 4 33 13 11 13 11 14 -2 7 -25 -16 -38 -14 -59 9 -23 24 -24 35 -8 56 10 13
10 13 -5 2 -9 -7 -15 -22 -13 -33 3 -13 0 -19 -8 -16 -7 2 -12 13 -12 25 0 26
-11 37 -38 37 -11 0 -22 5 -24 12 -3 8 3 11 16 8 11 -2 26 4 33 13 12 16 11
16 -6 2 -24 -19 -20 -19 -49 8 -26 24 -28 36 -12 62 7 13 6 13 -7 2 -9 -7 -15
-22 -13 -33 3 -13 0 -19 -8 -16 -7 2 -12 13 -12 24 0 27 -11 38 -37 38 -12 0
-23 5 -25 12 -3 8 3 11 16 8 11 -2 26 4 33 13 11 13 11 14 -2 7 -26 -16 -38
-14 -62 12 -24 25 -24 28 -5 53 10 13 10 13 -5 2 -9 -7 -15 -22 -13 -33 3 -13
0 -19 -8 -16 -7 2 -12 13 -12 25 0 26 -11 37 -38 37 -11 0 -22 5 -24 12 -3 8
3 11 16 8 11 -2 26 4 33 13 12 16 11 16 -6 2 -11 -8 -22 -14 -25 -12 -18 10
-50 46 -45 53 17 29 -146 41 -182 14z m166 -5 c8 -5 11 -10 6 -10 -5 0 1 -12
15 -27 13 -15 16 -21 6 -14 -11 9 -47 14 -107 14 -60 0 -96 -5 -107 -14 -10
-7 -7 -1 6 14 14 15 20 27 15 27 -5 0 -2 5 6 10 8 5 44 10 80 10 36 0 72 -5
80 -10z m-198 -102 c-7 -7 -12 -8 -12 -2 0 14 12 26 19 19 2 -3 -1 -11 -7 -17z
m14 -17 c-9 -17 -34 -40 -56 -51 -26 -13 -47 -34 -60 -60 -13 -26 -34 -47 -60
-60 -26 -13 -47 -34 -60 -60 -13 -26 -34 -47 -60 -60 -26 -13 -47 -34 -60 -60
-13 -26 -34 -47 -60 -60 -26 -13 -47 -34 -60 -60 -13 -26 -34 -47 -60 -60 -26
-13 -47 -34 -60 -60 -11 -22 -33 -46 -50 -55 -37 -19 -49 -19 -24 0 19 15 19
15 -1 9 -20 -6 -20 -5 -1 10 14 11 22 13 27 5 4 -7 15 1 28 19 23 34 29 57 6
26 -8 -10 -15 -14 -15 -7 0 6 5 15 11 18 6 4 8 13 5 20 -5 14 17 39 27 29 3
-3 17 2 31 11 20 14 26 14 26 4 1 -15 50 40 50 55 0 6 -7 1 -15 -10 -8 -10
-15 -14 -15 -7 0 6 5 15 11 18 6 4 8 13 5 20 -5 14 17 39 27 29 3 -3 17 2 31
11 20 14 26 14 26 4 1 -15 50 40 50 55 0 6 -7 1 -15 -10 -8 -10 -15 -14 -15
-7 0 6 5 15 11 18 6 4 8 13 5 20 -5 14 17 39 27 29 3 -3 17 2 31 11 20 14 26
14 26 4 1 -15 50 40 50 55 0 6 -7 1 -15 -10 -8 -10 -15 -14 -15 -7 0 6 5 15
11 18 6 4 8 13 5 20 -5 14 17 39 27 29 3 -3 17 2 31 11 20 14 26 14 26 4 1
-15 50 40 50 55 0 6 -7 1 -15 -10 -8 -10 -15 -14 -15 -7 0 6 5 15 11 18 6 4 8
13 5 20 -5 14 17 39 27 29 3 -3 16 2 30 11 20 12 26 13 29 3 3 -8 14 2 29 24
28 43 37 43 15 -1z m256 -33 c13 -10 27 -18 32 -18 6 0 1 7 -10 15 -10 8 -14
15 -7 15 6 0 15 -5 18 -11 4 -6 13 -8 20 -5 16 6 35 -13 29 -29 -3 -7 -1 -16
5 -20 6 -3 11 -12 11 -18 0 -7 -7 -3 -15 7 -8 11 -15 15 -15 8 0 -6 16 -27 35
-47 20 -19 41 -35 47 -35 7 0 3 7 -8 15 -10 8 -14 15 -7 15 6 0 15 -5 18 -11
4 -6 13 -8 20 -5 16 6 35 -13 29 -29 -3 -7 -1 -16 5 -20 6 -3 11 -12 11 -18 0
-7 -7 -3 -15 7 -8 11 -15 15 -15 8 0 -15 67 -82 82 -82 7 0 3 7 -8 15 -10 8
-14 15 -7 15 6 0 15 -5 18 -11 4 -6 13 -8 20 -5 16 6 35 -13 29 -29 -3 -7 -1
-16 5 -20 6 -3 11 -12 11 -18 0 -7 -7 -3 -15 7 -8 11 -15 15 -15 8 0 -15 67
-82 82 -82 7 0 3 7 -8 15 -10 8 -14 15 -7 15 6 0 15 -5 18 -11 4 -6 13 -8 20
-5 16 6 35 -13 29 -29 -3 -7 -1 -16 5 -20 6 -3 11 -12 11 -18 0 -7 -7 -3 -15
7 -8 11 -15 15 -15 8 0 -15 67 -82 82 -82 7 0 3 7 -8 15 -10 8 -14 15 -7 15 6
0 15 -5 18 -11 4 -6 13 -8 20 -5 16 6 35 -13 29 -29 -3 -7 -1 -16 5 -20 6 -3
11 -12 11 -18 0 -7 -7 -3 -15 7 -8 11 -15 15 -15 8 0 -15 67 -82 82 -82 6 0 9
-3 6 -6 -13 -13 -69 29 -88 66 -13 26 -34 47 -60 60 -26 13 -47 34 -60 60 -13
26 -34 47 -60 60 -26 13 -47 34 -60 60 -13 26 -34 47 -60 60 -26 13 -47 34
-60 60 -13 26 -34 47 -60 60 -26 13 -47 34 -60 60 -13 26 -34 47 -60 60 -22
11 -46 33 -55 50 -21 41 -19 51 5 15 10 -16 30 -37 42 -47z m-4 36 c-13 16 -9
24 9 22 22 -3 25 -33 5 -41 -10 -4 -23 3 -34 17 -25 33 -22 48 5 18 12 -14 19
-21 15 -16z m-286 11 c13 -17 9 -22 -16 -22 -21 0 -25 7 -17 35 2 5 27 -4 33
-13z m-120 -120 c13 -17 9 -22 -16 -22 -21 0 -25 7 -17 35 2 5 27 -4 33 -13z
m554 -8 c2 -18 -25 -32 -38 -19 -13 13 1 40 19 38 9 -2 17 -10 19 -19z m-674
-112 c13 -17 9 -22 -16 -22 -21 0 -25 7 -17 35 2 5 27 -4 33 -13z m794 -8 c2
-18 -25 -32 -38 -19 -13 13 1 40 19 38 9 -2 17 -10 19 -19z m-914 -112 c13
-17 9 -22 -16 -22 -21 0 -25 7 -17 35 2 5 27 -4 33 -13z m1034 -8 c2 -18 -25
-32 -38 -19 -13 13 1 40 19 38 9 -2 17 -10 19 -19z m-1154 -112 c13 -17 9 -22
-16 -22 -21 0 -25 7 -17 35 2 5 27 -4 33 -13z m1274 -8 c2 -18 -25 -32 -38
-19 -13 13 1 40 19 38 9 -2 17 -10 19 -19z m-1394 -112 c13 -17 9 -22 -16 -22
-21 0 -25 7 -17 35 2 5 27 -4 33 -13z m1514 -8 c2 -18 -6 -22 -22 -9 -5 4 2
-3 16 -15 30 -27 15 -30 -18 -5 -14 11 -21 24 -17 34 8 20 38 17 41 -5z
m-1586 -41 c0 -2 -8 -10 -17 -17 -16 -13 -17 -12 -4 4 13 16 21 21 21 13z
m1641 -13 c13 -16 12 -17 -3 -4 -10 7 -18 15 -18 17 0 8 8 3 21 -13z"/>
<path d="M899 861 c11 -7 11 -9 0 -14 -8 -3 20 -6 61 -6 52 0 70 2 60 9 -12 8
-12 10 -1 10 8 0 12 3 8 6 -3 3 -12 2 -19 -2 -18 -12 -87 -14 -94 -3 -3 5 -11
9 -17 9 -8 0 -7 -3 2 -9z"/>
<path d="M763 694 l-28 -25 33 22 c17 13 32 24 32 26 0 8 -11 1 -37 -23z"/>
<path d="M643 574 l-28 -25 33 22 c17 13 32 24 32 26 0 8 -11 1 -37 -23z"/>
<path d="M523 454 l-28 -25 33 22 c17 13 32 24 32 26 0 8 -11 1 -37 -23z"/>
<path d="M403 334 l-28 -25 33 22 c17 13 32 24 32 26 0 8 -11 1 -37 -23z"/>
<path d="M283 214 l-28 -25 33 22 c17 13 32 24 32 26 0 8 -11 1 -37 -23z"/>
<path d="M1150 696 c0 -2 8 -10 18 -17 15 -13 16 -12 3 4 -13 16 -21 21 -21
13z"/>
<path d="M1270 576 c0 -2 8 -10 18 -17 15 -13 16 -12 3 4 -13 16 -21 21 -21
13z"/>
<path d="M1390 456 c0 -2 8 -10 18 -17 15 -13 16 -12 3 4 -13 16 -21 21 -21
13z"/>
<path d="M1510 336 c0 -2 8 -10 18 -17 15 -13 16 -12 3 4 -13 16 -21 21 -21
13z"/>
<path d="M1630 216 c0 -2 8 -10 18 -17 15 -13 16 -12 3 4 -13 16 -21 21 -21
13z"/>
<path d="M1095 880 c-3 -6 -10 -8 -15 -5 -10 6 -7 -21 3 -32 4 -4 15 -8 23 -9
9 -1 13 0 10 3 -3 4 -1 12 4 18 7 9 6 16 -4 24 -10 8 -16 9 -21 1z m14 -26
c-6 -7 -15 -11 -21 -8 -5 3 -4 12 3 20 6 7 15 11 21 8 5 -3 4 -12 -3 -20z"/>
<path d="M743 860 c-19 -8 -62 -70 -49 -70 3 0 12 14 21 30 9 17 22 30 30 30
7 0 17 5 20 10 7 12 7 12 -22 0z"/>
<path d="M1180 853 c0 -6 7 -13 15 -17 8 -3 15 -12 15 -20 0 -8 4 -17 9 -20 5
-4 7 3 4 13 -6 22 -43 60 -43 44z"/>
<path d="M667 829 c4 -13 8 -18 11 -10 2 7 -1 18 -6 23 -8 8 -9 4 -5 -13z"/>
<path d="M746 825 c-11 -8 -15 -15 -9 -15 6 0 16 7 23 15 16 19 11 19 -14 0z"/>
<path d="M1169 816 c14 -15 26 -26 28 -26 9 0 -24 40 -37 45 -8 4 -4 -5 9 -19z"/>
<path d="M889 808 c0 -2 -2 -21 -4 -42 -5 -48 -36 -82 -80 -90 -29 -6 -35 -12
-41 -41 -7 -40 -38 -70 -81 -80 -25 -5 -33 -13 -38 -38 -9 -43 -40 -74 -80
-81 -28 -6 -35 -12 -40 -39 -10 -43 -40 -74 -80 -81 -29 -6 -35 -12 -41 -41
-7 -40 -38 -70 -81 -80 -27 -5 -33 -12 -39 -40 -8 -45 -42 -75 -90 -79 -38 -3
-39 -5 -41 -42 l-1 -39 8 35 7 35 2 -32 c1 -38 21 -45 21 -8 0 16 7 28 18 31
57 18 82 35 87 61 10 45 18 54 59 68 48 17 57 25 65 66 7 33 9 35 73 62 27 12
39 24 43 44 10 45 18 54 59 68 48 17 57 25 65 66 7 33 9 35 73 62 27 12 39 24
43 44 10 45 18 54 60 69 45 15 65 37 65 71 0 24 30 43 60 37 8 -1 23 -3 32 -3
11 -1 21 -13 26 -33 5 -18 14 -32 19 -31 6 1 10 -5 9 -15 0 -10 6 -16 17 -16
9 1 17 -2 17 -6 0 -4 11 -11 25 -14 17 -4 27 -16 33 -39 5 -17 14 -31 19 -30
6 1 10 -5 9 -15 0 -10 6 -16 17 -16 9 1 17 -2 17 -6 0 -4 11 -11 25 -14 17 -4
27 -16 33 -39 5 -17 14 -31 19 -30 6 1 10 -5 9 -15 0 -10 6 -16 17 -16 9 1 17
-2 17 -6 0 -4 11 -11 25 -14 17 -4 27 -16 33 -39 5 -17 14 -31 19 -30 6 1 10
-5 9 -15 0 -10 6 -16 17 -16 9 1 17 -2 17 -6 0 -4 11 -11 25 -14 17 -4 27 -16
33 -39 5 -17 14 -31 19 -30 6 1 10 -5 9 -15 0 -10 6 -16 17 -16 9 1 17 -2 17
-6 0 -4 11 -11 25 -14 17 -4 27 -16 33 -39 5 -17 14 -31 19 -30 6 1 10 -5 9
-15 0 -9 4 -17 9 -18 6 0 25 -7 43 -13 24 -10 32 -19 32 -37 0 -37 20 -29 21
9 l2 32 7 -35 8 -35 -1 40 c-2 30 -6 39 -17 37 -30 -7 -87 20 -104 49 -9 16
-17 31 -16 34 2 25 -6 32 -43 43 -29 9 -49 23 -61 42 -9 16 -17 32 -16 35 2
25 -6 32 -43 43 -29 9 -49 23 -61 42 -9 16 -17 32 -16 35 2 25 -6 32 -43 43
-31 9 -49 22 -62 45 -11 18 -18 33 -17 35 11 13 -6 30 -41 40 -31 9 -49 22
-62 45 -11 18 -18 33 -17 35 11 13 -6 30 -41 40 -49 15 -70 42 -72 92 -2 32
-5 35 -34 38 -25 3 -31 0 -25 -10 6 -10 5 -11 -7 -1 -12 10 -18 10 -29 0 -10
-9 -11 -9 -6 1 5 8 -1 12 -18 12 -14 0 -26 -1 -27 -2z m128 -14 c-3 -3 -12 -4
-19 -1 -8 3 -5 6 6 6 11 1 17 -2 13 -5z"/>
<path d="M596 768 c3 -4 12 -8 20 -8 8 0 14 4 14 8 0 4 -9 8 -19 8 -11 0 -17
-4 -15 -8z"/>
<path d="M1300 770 c0 -5 5 -10 11 -10 5 0 7 5 4 10 -3 6 -8 10 -11 10 -2 0
-4 -4 -4 -10z"/>
<path d="M1334 766 c1 -8 7 -20 13 -27 6 -8 13 -23 16 -34 4 -19 5 -18 6 2 0
12 -6 28 -14 36 -8 8 -12 17 -9 20 3 3 1 8 -4 11 -6 3 -9 0 -8 -8z"/>
<path d="M570 760 c0 -6 -4 -9 -9 -5 -5 3 -13 0 -17 -6 -4 -7 -3 -9 4 -5 5 3
12 2 14 -3 1 -5 9 -3 15 4 8 9 9 16 3 20 -6 3 -10 1 -10 -5z"/>
<path d="M681 756 c-8 -10 -9 -16 -1 -21 6 -3 8 -10 5 -15 -6 -10 21 -7 32 3
4 4 8 15 9 23 1 9 0 13 -3 10 -4 -3 -12 -1 -18 4 -9 7 -16 6 -24 -4z m33 -28
c-3 -5 -12 -4 -20 3 -7 6 -11 15 -8 21 3 5 12 4 20 -3 7 -6 11 -15 8 -21z"/>
<path d="M1215 760 c-3 -6 -10 -8 -15 -5 -10 6 -7 -21 3 -32 4 -4 15 -8 23 -9
9 -1 13 0 10 3 -3 4 -1 12 4 18 7 9 6 16 -4 24 -10 8 -16 9 -21 1z m14 -26
c-6 -7 -15 -11 -21 -8 -5 3 -4 12 3 20 6 7 15 11 21 8 5 -3 4 -12 -3 -20z"/>
<path d="M623 740 c-19 -8 -62 -70 -49 -70 3 0 12 14 21 30 9 17 22 30 30 30
7 0 17 5 20 10 7 12 7 12 -22 0z"/>
<path d="M1300 733 c0 -6 7 -13 15 -17 8 -3 15 -12 15 -20 0 -8 4 -17 9 -20 5
-4 7 3 4 13 -6 22 -43 60 -43 44z"/>
<path d="M547 709 c4 -13 8 -18 11 -10 2 7 -1 18 -6 23 -8 8 -9 4 -5 -13z"/>
<path d="M626 705 c-11 -8 -15 -15 -9 -15 6 0 16 7 23 15 16 19 11 19 -14 0z"/>
<path d="M1289 696 c14 -15 26 -26 28 -26 9 0 -24 40 -37 45 -8 4 -4 -5 9 -19z"/>
<path d="M474 648 c-3 -5 -10 -6 -15 -3 -5 4 -9 1 -9 -5 0 -6 -4 -9 -9 -5 -5
3 -13 0 -17 -6 -4 -8 -3 -9 4 -5 7 4 12 2 12 -4 0 -6 9 -2 21 9 12 11 27 17
34 15 7 -3 15 -2 18 3 3 5 -3 9 -14 9 -11 0 -23 -4 -25 -8z"/>
<path d="M1420 650 c0 -5 5 -10 11 -10 5 0 7 5 4 10 -3 6 -8 10 -11 10 -2 0
-4 -4 -4 -10z"/>
<path d="M1454 648 c-4 -6 -1 -16 7 -22 8 -6 16 -20 17 -31 6 -34 11 -29 9 8
-1 19 -6 35 -12 34 -5 -1 -9 4 -7 11 3 15 -5 16 -14 0z"/>
<path d="M561 636 c-8 -10 -9 -16 -1 -21 6 -3 8 -10 5 -15 -6 -10 21 -7 32 3
4 4 8 15 9 23 1 9 0 13 -3 10 -4 -3 -12 -1 -18 4 -9 7 -16 6 -24 -4z m33 -28
c-3 -5 -12 -4 -20 3 -7 6 -11 15 -8 21 3 5 12 4 20 -3 7 -6 11 -15 8 -21z"/>
<path d="M1335 640 c-3 -6 -10 -8 -15 -5 -10 6 -7 -21 3 -32 4 -4 15 -8 23 -9
9 -1 13 0 10 3 -3 4 -1 12 4 18 7 9 6 16 -4 24 -10 8 -16 9 -21 1z m14 -26
c-6 -7 -15 -11 -21 -8 -5 3 -4 12 3 20 6 7 15 11 21 8 5 -3 4 -12 -3 -20z"/>
<path d="M503 620 c-19 -8 -62 -70 -49 -70 3 0 12 14 21 30 9 17 22 30 30 30
7 0 17 5 20 10 7 12 7 12 -22 0z"/>
<path d="M1420 611 c0 -13 30 -35 37 -27 3 3 1 6 -6 6 -7 0 -10 4 -7 9 3 5 -1
11 -9 15 -8 3 -15 2 -15 -3z"/>
<path d="M427 589 c4 -13 8 -18 11 -10 2 7 -1 18 -6 23 -8 8 -9 4 -5 -13z"/>
<path d="M506 585 c-11 -8 -15 -15 -9 -15 6 0 16 7 23 15 16 19 11 19 -14 0z"/>
<path d="M1410 575 c13 -14 26 -25 28 -25 3 0 -5 11 -18 25 -13 14 -26 25 -28
25 -3 0 5 -11 18 -25z"/>
<path d="M354 528 c-3 -5 -10 -6 -15 -3 -5 4 -9 1 -9 -5 0 -6 -4 -8 -10 -5 -6
4 -7 -1 -3 -10 3 -10 0 -21 -8 -26 -10 -6 -11 -9 -1 -9 7 0 16 8 19 18 9 22
34 41 49 35 7 -2 14 -1 17 4 3 5 -3 9 -14 9 -11 0 -23 -4 -25 -8z"/>
<path d="M1540 530 c0 -5 5 -10 11 -10 5 0 7 5 4 10 -3 6 -8 10 -11 10 -2 0
-4 -4 -4 -10z"/>
<path d="M1574 528 c-4 -6 -1 -16 7 -22 8 -6 16 -20 17 -31 6 -34 11 -29 9 8
-1 19 -6 35 -12 34 -5 -1 -9 4 -7 11 3 15 -5 16 -14 0z"/>
<path d="M441 516 c-8 -10 -9 -16 -1 -21 6 -3 8 -10 5 -15 -6 -10 21 -7 32 3
4 4 8 15 9 23 1 9 0 13 -3 10 -4 -3 -12 -1 -18 4 -9 7 -16 6 -24 -4z m33 -28
c-3 -5 -12 -4 -20 3 -7 6 -11 15 -8 21 3 5 12 4 20 -3 7 -6 11 -15 8 -21z"/>
<path d="M1455 520 c-3 -6 -10 -8 -15 -5 -10 6 -7 -21 3 -32 4 -4 15 -8 23 -9
9 -1 13 0 10 3 -3 4 -1 12 4 18 7 9 6 16 -4 24 -10 8 -16 9 -21 1z m14 -26
c-6 -7 -15 -11 -21 -8 -5 3 -4 12 3 20 6 7 15 11 21 8 5 -3 4 -12 -3 -20z"/>
<path d="M383 500 c-19 -8 -62 -70 -49 -70 3 0 12 14 21 30 9 17 22 30 30 30
7 0 17 5 20 10 7 12 7 12 -22 0z"/>
<path d="M1540 491 c0 -13 30 -35 37 -27 3 3 1 6 -6 6 -7 0 -10 4 -7 9 3 5 -1
11 -9 15 -8 3 -15 2 -15 -3z"/>
<path d="M386 465 c-11 -8 -15 -15 -9 -15 6 0 16 7 23 15 16 19 11 19 -14 0z"/>
<path d="M1530 455 c13 -14 26 -25 28 -25 3 0 -5 11 -18 25 -13 14 -26 25 -28
25 -3 0 5 -11 18 -25z"/>
<path d="M306 443 c-6 -14 -5 -15 5 -6 7 7 10 15 7 18 -3 3 -9 -2 -12 -12z"/>
<path d="M234 408 c-3 -5 -10 -6 -15 -3 -5 4 -9 1 -9 -5 0 -6 -4 -8 -10 -5 -6
4 -7 -1 -3 -10 3 -10 0 -21 -8 -26 -10 -6 -11 -9 -1 -9 7 0 16 8 19 18 9 22
34 41 49 35 7 -2 14 -1 17 4 3 5 -3 9 -14 9 -11 0 -23 -4 -25 -8z"/>
<path d="M1660 410 c0 -5 5 -10 11 -10 5 0 7 5 4 10 -3 6 -8 10 -11 10 -2 0
-4 -4 -4 -10z"/>
<path d="M1694 408 c-4 -6 -1 -16 7 -22 8 -6 16 -20 17 -31 6 -34 11 -29 9 8
-1 19 -6 35 -12 34 -5 -1 -9 4 -7 11 3 15 -5 16 -14 0z"/>
<path d="M321 396 c-8 -10 -9 -16 -1 -21 6 -3 8 -10 5 -15 -6 -10 21 -7 32 3
4 4 8 15 9 23 1 9 0 13 -3 10 -4 -3 -12 -1 -18 4 -9 7 -16 6 -24 -4z m33 -28
c-3 -5 -12 -4 -20 3 -7 6 -11 15 -8 21 3 5 12 4 20 -3 7 -6 11 -15 8 -21z"/>
<path d="M1575 400 c-3 -6 -10 -8 -15 -5 -10 6 -7 -21 3 -32 4 -4 15 -8 23 -9
9 -1 13 0 10 3 -3 4 -1 12 4 18 7 9 6 16 -4 24 -10 8 -16 9 -21 1z m14 -26
c-6 -7 -15 -11 -21 -8 -5 3 -4 12 3 20 6 7 15 11 21 8 5 -3 4 -12 -3 -20z"/>
<path d="M263 380 c-19 -8 -62 -70 -49 -70 3 0 12 14 21 30 9 17 22 30 30 30
7 0 17 5 20 10 7 12 7 12 -22 0z"/>
<path d="M1660 371 c0 -13 30 -35 37 -27 3 3 1 6 -6 6 -7 0 -10 4 -7 9 3 5 -1
11 -9 15 -8 3 -15 2 -15 -3z"/>
<path d="M266 345 c-11 -8 -15 -15 -9 -15 6 0 16 7 23 15 16 19 11 19 -14 0z"/>
<path d="M1650 335 c13 -14 26 -25 28 -25 3 0 -5 11 -18 25 -13 14 -26 25 -28
25 -3 0 5 -11 18 -25z"/>
<path d="M114 288 c-3 -5 -10 -6 -15 -3 -5 4 -9 1 -9 -5 0 -6 -3 -9 -7 -7 -5
3 -9 -11 -9 -32 l-2 -36 11 30 c12 34 35 55 53 48 7 -2 14 -1 17 4 3 5 -3 9
-14 9 -11 0 -23 -4 -25 -8z"/>
<path d="M1780 290 c0 -5 5 -10 11 -10 5 0 7 5 4 10 -3 6 -8 10 -11 10 -2 0
-4 -4 -4 -10z"/>
<path d="M1814 288 c-4 -6 -1 -16 7 -22 8 -6 16 -22 17 -36 6 -41 12 -36 9 8
-1 22 -6 40 -12 39 -5 -1 -9 4 -7 11 3 15 -5 16 -14 0z"/>
<path d="M201 276 c-8 -10 -9 -16 -1 -21 6 -3 8 -10 5 -15 -6 -10 21 -7 32 3
4 4 8 15 9 23 1 9 0 13 -3 10 -4 -3 -12 -1 -18 4 -9 7 -16 6 -24 -4z m33 -28
c-3 -5 -12 -4 -20 3 -7 6 -11 15 -8 21 3 5 12 4 20 -3 7 -6 11 -15 8 -21z"/>
<path d="M1695 280 c-3 -6 -10 -8 -15 -5 -10 6 -7 -21 3 -32 4 -4 15 -8 23 -9
9 -1 13 0 10 3 -3 4 -1 12 4 18 7 9 6 16 -4 24 -10 8 -16 9 -21 1z m14 -26
c-6 -7 -15 -11 -21 -8 -5 3 -4 12 3 20 6 7 15 11 21 8 5 -3 4 -12 -3 -20z"/>
<path d="M143 260 c-19 -8 -62 -70 -49 -70 3 0 12 14 21 30 9 17 22 30 30 30
7 0 17 5 20 10 7 12 7 12 -22 0z"/>
<path d="M1780 251 c0 -13 30 -35 37 -27 3 3 1 6 -6 6 -7 0 -10 4 -7 9 3 5 -1
11 -9 15 -8 3 -15 2 -15 -3z"/>
<path d="M146 225 c-11 -8 -15 -15 -9 -15 6 0 16 7 23 15 16 19 11 19 -14 0z"/>
<path d="M1770 215 c13 -14 26 -25 28 -25 3 0 -5 11 -18 25 -13 14 -26 25 -28
25 -3 0 5 -11 18 -25z"/>
<path d="M81 156 c-8 -10 -9 -16 -1 -21 6 -3 8 -10 5 -15 -6 -10 21 -7 32 3 4
4 8 15 9 23 1 9 0 13 -3 10 -4 -3 -12 -1 -18 4 -9 7 -16 6 -24 -4z m33 -28
c-3 -5 -12 -4 -20 3 -7 6 -11 15 -8 21 3 5 12 4 20 -3 7 -6 11 -15 8 -21z"/>
<path d="M1815 160 c-3 -6 -10 -8 -15 -5 -10 6 -7 -21 3 -32 4 -4 15 -8 23 -9
9 -1 13 0 10 3 -3 4 -1 12 4 18 7 9 6 16 -4 24 -10 8 -16 9 -21 1z m14 -26
c-6 -7 -15 -11 -21 -8 -5 3 -4 12 3 20 6 7 15 11 21 8 5 -3 4 -12 -3 -20z"/>
<path d="M8 143 c7 -3 16 -2 19 1 4 3 -2 6 -13 5 -11 0 -14 -3 -6 -6z"/>
<path d="M1883 93 c9 -2 23 -2 30 0 6 3 -1 5 -18 5 -16 0 -22 -2 -12 -5z"/>
<path d="M27 73 c-31 -5 -36 -18 -8 -20 11 -1 25 5 32 13 6 8 10 13 8 13 -2
-1 -16 -4 -32 -6z"/>
<path d="M1870 62 c0 -4 11 -8 25 -8 14 0 25 4 25 8 0 4 -11 8 -25 8 -14 0
-25 -4 -25 -8z"/>
</g>
</svg>
