<?xml version="1.0" standalone="no"?>
<!DOCTYPE svg PUBLIC "-//W3C//DTD SVG 20010904//EN"
 "http://www.w3.org/TR/2001/REC-SVG-20010904/DTD/svg10.dtd">
<svg version="1.0" xmlns="http://www.w3.org/2000/svg"
 width="100.000000pt" height="100.000000pt" viewBox="0 0 100.000000 100.000000"
 preserveAspectRatio="xMidYMid meet">
<metadata>
Created by potrace 1.16, written by Peter Selinger 2001-2019
</metadata>
<g transform="translate(0.000000,100.000000) scale(0.100000,-0.100000)"
fill="#000000" stroke="none">
<path d="M0 930 c0 -6 55 -10 145 -10 l145 0 0 -45 0 -44 -122 -3 -123 -3 -3
-57 c-3 -50 -6 -58 -22 -58 -11 0 -20 -4 -20 -10 0 -5 13 -10 30 -10 l30 0 0
60 0 60 125 0 125 0 0 55 0 55 345 0 c223 0 345 4 345 10 0 7 -173 10 -500 10
-327 0 -500 -3 -500 -10z"/>
<path d="M170 712 c0 -53 -2 -60 -25 -70 -21 -10 -25 -18 -23 -49 l1 -38 4 38
c3 29 9 37 24 37 15 0 19 -7 19 -35 0 -21 -5 -35 -12 -35 -9 0 -8 -4 2 -10 8
-5 50 -10 93 -10 l78 0 -3 113 -3 112 -77 3 -78 3 0 -59z m140 -57 l0 -95 -60
0 -60 0 0 95 0 95 60 0 60 0 0 -95z"/>
<path d="M278 383 c7 -3 16 -2 19 1 4 3 -2 6 -13 5 -11 0 -14 -3 -6 -6z"/>
<path d="M838 383 c7 -3 16 -2 19 1 4 3 -2 6 -13 5 -11 0 -14 -3 -6 -6z"/>
<path d="M190 345 c0 -32 2 -35 30 -35 28 0 30 3 30 35 0 32 -2 35 -30 35 -28
0 -30 -3 -30 -35z m40 0 c0 -8 -4 -15 -10 -15 -5 0 -10 7 -10 15 0 8 5 15 10
15 6 0 10 -7 10 -15z"/>
<path d="M313 345 c0 -22 2 -30 4 -17 2 12 2 30 0 40 -3 9 -5 -1 -4 -23z"/>
<path d="M750 345 c0 -32 2 -35 30 -35 28 0 30 3 30 35 0 32 -2 35 -30 35 -28
0 -30 -3 -30 -35z m40 0 c0 -8 -4 -15 -10 -15 -5 0 -10 7 -10 15 0 8 5 15 10
15 6 0 10 -7 10 -15z"/>
<path d="M873 345 c0 -22 2 -30 4 -17 2 12 2 30 0 40 -3 9 -5 -1 -4 -23z"/>
<path d="M278 303 c7 -3 16 -2 19 1 4 3 -2 6 -13 5 -11 0 -14 -3 -6 -6z"/>
<path d="M838 303 c7 -3 16 -2 19 1 4 3 -2 6 -13 5 -11 0 -14 -3 -6 -6z"/>
<path d="M350 206 c0 -53 -3 -65 -17 -69 -17 -4 -17 -5 0 -6 11 -1 17 -9 17
-26 0 -33 -37 -35 -43 -2 l-4 22 -2 -22 c-1 -22 -5 -23 -75 -23 -41 0 -78 -4
-81 -10 -4 -6 35 -10 109 -10 l116 0 0 95 0 95 125 0 125 0 0 -30 c0 -27 -3
-30 -30 -30 -27 0 -30 -3 -30 -30 0 -27 -3 -30 -30 -30 -28 0 -30 -3 -30 -35
0 -32 -2 -35 -30 -35 -27 0 -30 -3 -30 -30 0 -17 5 -30 10 -30 6 0 10 9 10 20
0 16 7 20 30 20 28 0 30 3 30 35 0 32 2 35 30 35 27 0 30 3 30 30 0 27 3 30
30 30 27 0 30 3 30 30 0 20 5 30 15 30 11 0 15 -19 17 -92 l3 -93 28 -3 c19
-2 27 -9 27 -23 0 -10 5 -19 10 -19 6 0 10 13 10 30 l0 30 95 0 95 0 0 95 0
95 30 0 c17 0 30 5 30 11 0 6 -16 9 -37 7 l-38 -3 -3 -62 c-3 -59 -4 -62 -30
-65 -21 -2 -28 -9 -30 -30 -3 -27 -6 -28 -58 -28 -30 0 -54 -4 -54 -10 0 -5
-13 -10 -30 -10 l-30 0 0 95 0 95 -34 0 c-19 0 -38 5 -41 10 -4 6 -60 10 -136
10 l-129 0 0 -64z m570 -101 c0 -20 -5 -25 -25 -25 -20 0 -25 5 -25 25 0 20 5
25 25 25 20 0 25 -5 25 -25z"/>
<path d="M0 240 c0 -5 25 -10 55 -10 l55 0 0 -115 c0 -70 4 -115 10 -115 6 0
10 48 10 125 l0 125 -65 0 c-37 0 -65 -4 -65 -10z"/>
</g>
</svg>
