<?xml version="1.0" standalone="no"?>
<!DOCTYPE svg PUBLIC "-//W3C//DTD SVG 20010904//EN"
 "http://www.w3.org/TR/2001/REC-SVG-20010904/DTD/svg10.dtd">
<svg version="1.0" xmlns="http://www.w3.org/2000/svg"
 width="192.000000pt" height="192.000000pt" viewBox="0 0 192.000000 192.000000"
 preserveAspectRatio="xMidYMid meet">
<metadata>
Created by potrace 1.16, written by Peter Selinger 2001-2019
</metadata>
<g transform="translate(0.000000,192.000000) scale(0.100000,-0.100000)"
fill="#000000" stroke="none">
<path d="M824 1891 c5 -8 56 -3 56 5 0 2 -14 4 -31 4 -16 0 -28 -4 -25 -9z"/>
<path d="M638 1812 c-4 -26 -2 -28 24 -24 15 2 28 8 28 12 0 45 -45 55 -52 12z"/>
<path d="M598 1751 c-9 -11 -14 -22 -11 -25 4 -3 13 3 21 15 18 26 11 34 -10
10z"/>
<path d="M520 1620 c0 -5 -9 -10 -20 -10 -15 0 -20 -7 -20 -25 0 -20 5 -25 25
-25 22 0 25 4 25 35 0 19 -2 35 -5 35 -3 0 -5 -4 -5 -10z"/>
<path d="M1391 1598 c-1 -36 11 -50 37 -40 6 2 12 15 12 29 0 20 -4 24 -19 20
-13 -3 -21 1 -24 12 -3 9 -5 0 -6 -21z"/>
<path d="M481 1464 c0 -11 3 -14 6 -6 3 7 2 16 -1 19 -3 4 -6 -2 -5 -13z"/>
<path d="M410 1444 c0 -20 4 -25 23 -22 26 4 37 16 30 35 -4 11 -8 10 -20 -4
-14 -17 -14 -17 -9 0 3 11 0 17 -9 17 -9 0 -15 -10 -15 -26z"/>
<path d="M1486 1455 c5 -12 2 -14 -12 -8 -17 6 -17 5 -5 -10 20 -25 41 -21 41
8 0 15 -6 25 -15 25 -9 0 -12 -6 -9 -15z"/>
<path d="M713 1433 c125 -2 329 -2 455 0 125 1 22 2 -228 2 -250 0 -353 -1
-227 -2z"/>
<path d="M1760 1306 c0 -2 8 -10 18 -17 15 -13 16 -12 3 4 -13 16 -21 21 -21
13z"/>
<path d="M530 1261 c0 -6 4 -13 10 -16 6 -3 7 1 4 9 -7 18 -14 21 -14 7z"/>
<path d="M1350 1245 c0 -20 5 -25 25 -25 19 0 25 5 25 23 0 17 -6 23 -25 25
-21 1 -25 -3 -25 -23z"/>
<path d="M104 1245 c-4 -8 -16 -15 -29 -15 -23 0 -35 -17 -35 -47 0 -13 2 -13
17 -2 15 13 15 12 5 -8 -10 -19 -9 -20 8 -16 13 4 24 20 31 47 6 22 13 44 16
49 2 4 2 7 -2 7 -3 0 -8 -7 -11 -15z"/>
<path d="M1800 1244 c0 -7 40 -44 47 -44 2 0 -4 11 -14 25 -17 23 -33 32 -33
19z"/>
<path d="M560 1190 c0 -5 5 -10 11 -10 5 0 7 5 4 10 -3 6 -8 10 -11 10 -2 0
-4 -4 -4 -10z"/>
<path d="M40 1124 c0 -8 5 -12 10 -9 6 4 8 11 5 16 -9 14 -15 11 -15 -7z"/>
<path d="M1274 1108 l-19 -23 23 19 c12 11 22 21 22 23 0 8 -8 2 -26 -19z"/>
<path d="M1880 1076 c0 -8 4 -17 9 -20 5 -4 7 3 4 14 -6 23 -13 26 -13 6z"/>
<path d="M740 1025 c0 -19 5 -25 23 -25 17 0 23 6 25 25 1 21 -3 25 -23 25
-20 0 -25 -5 -25 -25z"/>
<path d="M1130 1025 c0 -20 5 -25 25 -25 20 0 25 5 25 25 0 20 -5 25 -25 25
-20 0 -25 -5 -25 -25z"/>
<path d="M1902 1015 c0 -16 2 -22 5 -12 2 9 2 23 0 30 -3 6 -5 -1 -5 -18z"/>
<path d="M1020 983 c-25 -3 -49 -9 -55 -15 -7 -8 -3 -9 14 -5 17 4 24 1 28
-14 3 -12 14 -19 29 -19 19 0 24 5 24 26 0 16 4 23 12 18 7 -4 8 -3 4 4 -4 7
-8 11 -9 10 -1 -1 -22 -3 -47 -5z"/>
<path d="M860 955 c0 -20 5 -25 24 -25 15 0 26 7 29 20 3 13 10 18 21 14 9 -3
16 -1 16 5 0 6 -19 11 -45 11 -41 0 -45 -2 -45 -25z"/>
<path d="M1901 944 c0 -11 3 -14 6 -6 3 7 2 16 -1 19 -3 4 -6 -2 -5 -13z"/>
<path d="M1260 847 c0 -2 15 -16 33 -33 l32 -29 -29 33 c-28 30 -36 37 -36 29z"/>
<path d="M619 833 c-10 -2 -19 -13 -22 -23 -5 -18 -3 -18 24 2 38 29 38 32 -2
21z"/>
<path d="M1826 764 c-3 -9 -6 -26 -6 -39 0 -19 4 -22 23 -17 27 6 37 20 37 50
0 17 -6 22 -24 22 -13 0 -27 -7 -30 -16z"/>
<path d="M540 720 c-6 -12 -9 -24 -7 -27 3 -2 11 5 17 17 6 12 9 24 7 27 -3 2
-11 -5 -17 -17z"/>
<path d="M1728 623 c6 -2 18 -2 25 0 6 3 1 5 -13 5 -14 0 -19 -2 -12 -5z"/>
<path d="M240 565 c19 -11 21 -14 8 -15 -26 0 -22 -15 7 -28 48 -22 76 -14 68
17 -6 22 -44 41 -81 41 l-27 -1 25 -14z"/>
<path d="M501 554 c0 -11 3 -14 6 -6 3 7 2 16 -1 19 -3 4 -6 -2 -5 -13z"/>
<path d="M1411 554 c0 -11 3 -14 6 -6 3 7 2 16 -1 19 -3 4 -6 -2 -5 -13z"/>
<path d="M1614 562 c-19 -13 -25 -42 -9 -48 28 -11 62 5 67 31 5 22 2 25 -21
25 -14 0 -31 -4 -37 -8z"/>
<path d="M1493 523 c-16 -3 -23 -11 -23 -29 0 -26 8 -28 59 -18 17 4 31 13 31
20 0 8 6 14 13 14 8 0 7 4 -3 10 -15 10 -37 11 -77 3z"/>
<path d="M400 495 c0 -20 5 -25 25 -25 20 0 25 5 25 25 0 20 -5 25 -25 25 -20
0 -25 -5 -25 -25z"/>
<path d="M466 493 c7 -4 14 -19 17 -33 4 -22 5 -21 4 4 -1 17 -9 31 -17 33
-10 3 -11 2 -4 -4z"/>
<path d="M1432 465 c0 -16 2 -22 5 -12 2 9 2 23 0 30 -3 6 -5 -1 -5 -18z"/>
<path d="M1390 355 c0 -20 5 -25 25 -25 20 0 25 5 25 25 0 20 -5 25 -25 25
-20 0 -25 -5 -25 -25z"/>
<path d="M1380 312 c-18 -6 -30 -22 -30 -41 0 -8 6 -11 15 -7 9 3 15 0 15 -9
0 -8 4 -15 9 -15 18 0 29 64 14 73 -5 2 -15 2 -23 -1z"/>
<path d="M590 209 c0 -18 -2 -19 -15 -9 -12 10 -15 10 -15 -4 0 -17 9 -20 34
-10 17 7 22 44 6 44 -5 0 -10 -10 -10 -21z"/>
<path d="M1310 211 c0 -17 18 -31 41 -31 5 0 9 7 9 16 0 14 -3 14 -15 4 -13
-10 -15 -9 -15 9 0 11 -4 21 -10 21 -5 0 -10 -9 -10 -19z"/>
<path d="M838 35 c-4 -21 -1 -25 18 -25 19 0 24 5 24 25 0 35 -36 35 -42 0z"/>
<path d="M1040 35 c0 -20 5 -25 24 -25 19 0 22 4 18 25 -6 35 -42 35 -42 0z"/>
</g>
</svg>
