<?xml version="1.0" standalone="no"?>
<!DOCTYPE svg PUBLIC "-//W3C//DTD SVG 20010904//EN"
 "http://www.w3.org/TR/2001/REC-SVG-20010904/DTD/svg10.dtd">
<svg version="1.0" xmlns="http://www.w3.org/2000/svg"
 width="100.000000pt" height="100.000000pt" viewBox="0 0 100.000000 100.000000"
 preserveAspectRatio="xMidYMid meet">
<metadata>
Created by potrace 1.16, written by Peter Selinger 2001-2019
</metadata>
<g transform="translate(0.000000,100.000000) scale(0.100000,-0.100000)"
fill="#000000" stroke="none">
<path d="M470 980 c-8 -11 -22 -20 -32 -20 -10 0 -18 -4 -18 -10 0 -5 -11 -10
-25 -10 -14 0 -25 -4 -25 -10 0 -5 -9 -10 -20 -10 -13 0 -20 -7 -20 -20 0 -16
-7 -20 -30 -20 -20 0 -30 -5 -30 -15 0 -8 -4 -15 -10 -15 -5 0 -10 -9 -10 -20
0 -12 -7 -20 -16 -20 -20 0 -44 -24 -44 -44 0 -9 -8 -16 -20 -16 -11 0 -20 -4
-20 -10 0 -5 -7 -10 -15 -10 -8 0 -15 -8 -15 -18 0 -10 -9 -24 -20 -32 -11 -8
-20 -22 -20 -32 0 -10 -4 -18 -10 -18 -5 0 -10 -11 -10 -25 0 -14 -4 -25 -10
-25 -5 0 -10 -9 -10 -20 0 -11 -4 -20 -10 -20 -6 0 -10 -37 -10 -91 0 -88 1
-92 30 -119 17 -15 30 -33 30 -39 0 -12 44 -61 55 -61 10 0 95 -89 95 -100 0
-5 7 -10 16 -10 8 0 37 -23 64 -50 27 -28 58 -50 69 -50 12 0 21 -4 21 -10 0
-16 17 -12 24 6 3 8 2 12 -4 9 -6 -3 -10 -1 -10 4 0 6 -7 11 -15 11 -18 0
-105 84 -105 100 0 6 -4 9 -10 5 -5 -3 -34 19 -64 50 -31 30 -60 55 -66 55 -6
0 -8 5 -5 10 3 6 1 10 -5 10 -16 0 -40 26 -40 42 0 8 -9 20 -20 28 -11 8 -20
20 -20 27 0 7 -4 13 -10 13 -6 0 -10 30 -10 70 0 40 4 70 10 70 6 0 10 9 10
20 0 11 5 20 10 20 6 0 10 11 10 25 0 14 5 25 10 25 6 0 10 8 10 18 0 10 9 24
20 32 11 8 20 22 20 32 0 10 7 18 15 18 8 0 15 5 15 10 0 6 9 10 20 10 12 0
20 7 20 16 0 20 24 44 44 44 9 0 16 8 16 20 0 11 5 20 10 20 6 0 10 7 10 15 0
10 10 15 30 15 23 0 30 4 30 20 0 13 7 20 20 20 11 0 20 5 20 10 0 6 11 10 25
10 14 0 25 5 25 10 0 6 7 10 16 10 20 0 44 24 44 44 0 22 -13 20 -30 -4z"/>
<path d="M650 974 c0 -23 -20 -54 -35 -54 -12 0 -35 -29 -35 -45 0 -9 -31 -47
-70 -85 -38 -38 -70 -72 -70 -75 0 -3 23 -5 50 -5 l50 0 0 -67 c0 -48 -3 -64
-10 -53 -7 11 -10 6 -10 -20 0 -26 -3 -31 -10 -20 -7 11 -10 6 -10 -20 0 -26
-3 -31 -10 -20 -7 11 -10 6 -10 -20 0 -26 -3 -31 -10 -20 -7 11 -10 6 -10 -20
0 -26 -3 -31 -10 -20 -7 11 -10 6 -10 -20 0 -26 -3 -31 -10 -20 -7 11 -10 1
-10 -35 0 -36 -3 -46 -10 -35 -7 10 -10 -28 -10 -118 0 -128 1 -134 25 -157
13 -14 31 -25 39 -25 8 0 16 -6 19 -12 2 -7 8 -10 12 -6 4 4 -11 25 -34 47
l-41 40 0 91 c0 50 5 100 12 113 24 48 28 57 28 76 0 11 5 23 10 26 6 3 10 15
10 26 0 10 5 19 10 19 6 0 10 9 10 19 0 11 3 21 8 23 12 5 52 89 52 109 0 10
5 19 10 19 6 0 10 19 10 42 0 29 -8 51 -26 75 l-26 34 23 25 c23 24 49 32 49
14 0 -5 9 -10 20 -10 21 0 210 -180 210 -200 0 -5 5 -10 10 -10 22 0 80 -69
80 -95 0 -14 5 -25 10 -25 6 0 10 -13 10 -30 0 -16 -4 -30 -10 -30 -5 0 -10
-11 -10 -25 0 -14 -4 -25 -10 -25 -5 0 -10 -7 -10 -15 0 -15 -42 -65 -55 -65
-7 0 -115 -108 -115 -115 0 -12 -49 -55 -62 -55 -8 0 -20 -9 -28 -20 -8 -11
-18 -20 -23 -20 -14 0 -37 -27 -37 -44 0 -22 13 -20 30 4 8 11 19 20 25 20 6
0 17 9 25 20 8 11 20 20 28 20 13 0 62 43 62 55 0 7 108 115 115 115 13 0 55
50 55 65 0 8 5 15 10 15 6 0 10 11 10 25 0 14 5 25 10 25 6 0 10 23 10 50 0
28 -4 50 -10 50 -5 0 -10 11 -10 25 0 26 -58 95 -80 95 -5 0 -10 5 -10 10 0
17 -188 200 -206 200 -20 0 -44 24 -44 45 0 16 22 45 35 45 4 0 13 6 21 14 16
16 19 86 4 86 -5 0 -10 -12 -10 -26z m-137 -251 c-7 -2 -19 -2 -25 0 -7 3 -2
5 12 5 14 0 19 -2 13 -5z m44 -80 c-3 -10 -5 -2 -5 17 0 19 2 27 5 18 2 -10 2
-26 0 -35z"/>
<path d="M370 188 c0 -60 4 -108 9 -108 12 0 13 182 1 200 -7 10 -10 -18 -10
-92z"/>
</g>
</svg>
