<?xml version="1.0" standalone="no"?>
<!DOCTYPE svg PUBLIC "-//W3C//DTD SVG 20010904//EN"
 "http://www.w3.org/TR/2001/REC-SVG-20010904/DTD/svg10.dtd">
<svg version="1.0" xmlns="http://www.w3.org/2000/svg"
 width="256.000000pt" height="256.000000pt" viewBox="0 0 256.000000 256.000000"
 preserveAspectRatio="xMidYMid meet">
<metadata>
Created by potrace 1.16, written by Peter Selinger 2001-2019
</metadata>
<g transform="translate(0.000000,256.000000) scale(0.100000,-0.100000)"
fill="#000000" stroke="none">
<path d="M1165 2549 c-421 -24 -829 -299 -1027 -694 -49 -95 -94 -227 -112
-325 -18 -94 -22 -225 -6 -215 6 3 10 30 10 59 0 119 54 314 125 456 63 125
133 220 244 331 218 219 483 345 763 365 85 6 132 16 118 26 -3 2 -54 1 -115
-3z"/>
<path d="M1317 2544 c2 -6 40 -14 90 -18 271 -21 539 -151 754 -365 250 -250
369 -535 370 -881 0 -330 -116 -619 -346 -859 -221 -231 -497 -364 -805 -389
-359 -29 -700 93 -960 344 -103 99 -151 159 -219 273 -96 160 -158 349 -169
524 -4 55 -11 102 -17 104 -7 2 -8 -36 -4 -109 23 -422 296 -827 692 -1029
186 -95 343 -130 582 -129 144 0 186 4 278 24 494 113 868 498 972 1001 21
105 21 385 0 492 -104 509 -507 911 -1010 1007 -107 20 -214 26 -208 10z"/>
<path d="M1090 2371 c-198 -30 -416 -116 -560 -224 -81 -60 -195 -173 -251
-248 -62 -84 -141 -250 -169 -354 -28 -103 -38 -313 -20 -422 16 -105 54 -222
101 -317 102 -205 304 -400 520 -500 118 -55 146 -65 258 -93 96 -24 124 -27
301 -27 213 -1 273 8 447 66 102 34 256 114 338 178 73 56 202 193 248 262
210 319 236 724 67 1058 -120 238 -347 442 -602 540 -164 64 -258 81 -448 85
-96 2 -200 0 -230 -4z m375 -26 c254 -39 477 -145 655 -312 531 -500 424
-1301 -224 -1671 -106 -61 -216 -102 -357 -133 -134 -30 -366 -33 -502 -6
-564 112 -959 578 -934 1102 13 270 122 503 327 699 172 164 409 282 630 315
41 6 86 13 100 15 63 9 214 5 305 -9z"/>
<path d="M640 1281 l0 -431 50 0 50 0 1 248 0 247 40 -122 40 -123 34 0 34 0
40 123 40 122 0 -247 1 -248 50 0 50 0 0 431 0 430 -51 -3 -52 -3 -57 -175
-57 -175 -11 40 c-7 22 -32 101 -56 175 l-44 135 -51 3 -51 3 0 -430z m98 357
c79 -257 93 -293 117 -293 21 0 28 14 76 168 52 163 54 167 81 167 l28 0 0
-400 0 -400 -25 0 -25 0 0 235 0 235 -24 0 c-21 0 -27 -11 -60 -115 -24 -74
-42 -115 -51 -115 -9 0 -27 42 -52 115 -33 102 -40 115 -60 115 l-23 0 0 -235
0 -235 -27 0 -28 0 0 400 0 400 30 0 c27 0 32 -5 43 -42z"/>
<path d="M1120 1607 l0 -103 65 4 65 4 0 -331 0 -331 50 0 50 0 0 331 0 331
65 -4 65 -4 0 103 0 103 -180 0 -180 0 0 -103z m340 -2 l0 -75 -65 0 -65 0 0
-325 0 -325 -30 0 -30 0 0 325 0 325 -65 0 -65 0 0 75 0 75 160 0 160 0 0 -75z"/>
<path d="M1530 1281 l0 -431 50 0 50 0 0 258 1 257 92 -257 92 -258 50 0 50 0
0 430 0 430 -50 0 -50 0 3 -256 c2 -177 0 -254 -8 -249 -5 3 -10 12 -10 18 0
7 -38 118 -84 247 l-84 235 -51 3 -51 3 0 -430z m174 149 c82 -231 90 -250
112 -250 l24 0 0 250 0 250 25 0 25 0 0 -400 0 -400 -28 0 c-29 0 -30 3 -115
240 -48 132 -87 245 -87 250 0 6 -11 10 -25 10 l-25 0 0 -250 0 -250 -30 0
-30 0 0 400 0 400 33 0 32 0 89 -250z"/>
</g>
</svg>
