<?xml version="1.0" standalone="no"?>
<!DOCTYPE svg PUBLIC "-//W3C//DTD SVG 20010904//EN"
 "http://www.w3.org/TR/2001/REC-SVG-20010904/DTD/svg10.dtd">
<svg version="1.0" xmlns="http://www.w3.org/2000/svg"
 width="57.000000pt" height="57.000000pt" viewBox="0 0 57.000000 57.000000"
 preserveAspectRatio="xMidYMid meet">
<metadata>
Created by potrace 1.16, written by Peter Selinger 2001-2019
</metadata>
<g transform="translate(0.000000,57.000000) scale(0.100000,-0.100000)"
fill="#000000" stroke="none">
<path d="M10 538 c0 -19 2 -20 10 -8 13 19 13 30 0 30 -5 0 -10 -10 -10 -22z"/>
<path d="M540 553 c0 -5 5 -15 10 -23 8 -12 10 -11 10 8 0 12 -4 22 -10 22 -5
0 -10 -3 -10 -7z"/>
<path d="M120 394 l-44 -125 -35 3 c-21 2 -36 -2 -39 -10 -2 -8 11 -12 46 -12
l50 0 42 118 c23 64 44 123 46 131 4 11 93 -226 94 -249 1 -7 69 185 82 230
10 35 11 34 57 -97 l46 -133 53 0 c37 0 52 4 50 12 -2 6 -21 12 -42 12 l-38 1
-45 123 c-43 116 -47 123 -71 120 -22 -3 -29 -15 -57 -92 l-32 -89 -33 91
c-30 84 -35 92 -59 92 -24 0 -29 -8 -71 -126z"/>
<path d="M11 454 c0 -11 3 -14 6 -6 3 7 2 16 -1 19 -3 4 -6 -2 -5 -13z"/>
<path d="M551 454 c0 -11 3 -14 6 -6 3 7 2 16 -1 19 -3 4 -6 -2 -5 -13z"/>
<path d="M12 340 c0 -14 2 -19 5 -12 2 6 2 18 0 25 -3 6 -5 1 -5 -13z"/>
<path d="M552 340 c0 -14 2 -19 5 -12 2 6 2 18 0 25 -3 6 -5 1 -5 -13z"/>
<path d="M181 257 c-6 -15 -14 -39 -17 -52 -6 -24 -10 -25 -85 -25 l-79 0 6
-27 c9 -36 14 -42 14 -15 0 21 5 22 79 22 66 0 80 3 86 18 5 12 15 -6 36 -62
16 -44 29 -84 29 -88 0 -5 -50 -7 -112 -6 -110 3 -112 3 -119 28 -6 23 -7 22
-8 -7 l-1 -33 275 0 275 0 -1 33 c-1 29 -2 30 -8 7 -7 -25 -9 -25 -123 -28
l-117 -3 24 70 c13 39 28 78 33 87 8 15 10 15 15 0 5 -13 22 -16 87 -16 75 0
80 -1 80 -22 0 -27 5 -21 14 14 l6 27 -82 3 -81 3 -17 49 -16 50 -44 -127
c-25 -69 -47 -124 -50 -121 -3 3 -24 60 -47 127 -39 114 -42 120 -52 94z"/>
<path d="M11 94 c0 -11 3 -14 6 -6 3 7 2 16 -1 19 -3 4 -6 -2 -5 -13z"/>
<path d="M551 94 c0 -11 3 -14 6 -6 3 7 2 16 -1 19 -3 4 -6 -2 -5 -13z"/>
</g>
</svg>
