<?xml version="1.0" standalone="no"?>
<!DOCTYPE svg PUBLIC "-//W3C//DTD SVG 20010904//EN"
 "http://www.w3.org/TR/2001/REC-SVG-20010904/DTD/svg10.dtd">
<svg version="1.0" xmlns="http://www.w3.org/2000/svg"
 width="192.000000pt" height="192.000000pt" viewBox="0 0 192.000000 192.000000"
 preserveAspectRatio="xMidYMid meet">
<metadata>
Created by potrace 1.16, written by Peter Selinger 2001-2019
</metadata>
<g transform="translate(0.000000,192.000000) scale(0.100000,-0.100000)"
fill="#000000" stroke="none">
<path d="M384 1889 c-34 -10 -82 -53 -94 -85 -11 -28 -16 -606 -6 -623 13 -20
549 -9 649 13 178 39 279 156 294 340 8 95 6 96 -168 96 -129 0 -142 2 -212
30 -42 17 -89 30 -106 30 l-31 0 0 89 c0 105 -12 126 -64 116 -72 -15 -126
-82 -126 -156 0 -46 -2 -49 -25 -49 -25 0 -25 1 -25 89 0 116 -12 132 -86 110z
m60 -35 c3 -9 6 -54 6 -100 l0 -84 45 0 45 0 0 45 c0 26 7 59 15 74 32 63 114
104 129 65 3 -9 6 -54 6 -100 l0 -84 31 0 c17 0 64 -13 106 -30 70 -28 83 -30
209 -30 170 0 179 -4 170 -76 -20 -171 -122 -282 -293 -320 -100 -22 -594 -32
-608 -13 -6 9 -8 118 -5 299 5 265 6 287 25 312 39 52 106 76 119 42z"/>
<path d="M500 1570 c-31 -31 -27 -93 6 -119 57 -45 134 -11 134 60 0 52 -27
79 -80 79 -27 0 -47 -7 -60 -20z m101 -21 c26 -26 21 -57 -13 -82 l-28 -21
-27 21 c-16 11 -29 29 -31 41 -4 25 30 62 58 62 11 0 29 -9 41 -21z"/>
<path d="M274 1026 c-3 -13 -2 -244 3 -512 l8 -489 170 0 170 0 5 300 c4 266
7 304 23 328 21 33 65 36 92 8 15 -18 17 -50 20 -319 1 -165 5 -305 9 -311 8
-12 330 -16 360 -5 14 5 16 42 16 313 l0 308 23 21 c30 28 62 28 81 0 14 -19
16 -68 16 -330 l0 -308 183 0 184 0 6 263 c8 303 -2 490 -30 559 -30 76 -74
130 -134 163 -48 27 -63 30 -140 30 -80 0 -92 -3 -158 -37 l-72 -37 -46 29
c-118 75 -305 60 -400 -32 l-33 -32 0 57 0 57 -175 0 -175 0 -6 -24z m336 -51
c0 -51 2 -55 23 -55 13 0 34 12 48 26 30 33 110 71 165 80 58 8 143 -11 198
-46 26 -17 54 -30 64 -30 9 0 50 17 90 37 62 31 83 37 140 37 117 1 205 -66
255 -192 27 -67 37 -254 30 -539 l-6 -243 -164 0 -163 0 0 308 c0 352 0 352
-72 352 -29 0 -49 -7 -65 -22 l-23 -21 0 -308 c0 -271 -2 -308 -16 -313 -30
-11 -312 -7 -320 5 -4 7 -8 146 -9 310 -2 345 0 339 -86 339 -83 0 -83 -2 -89
-355 l-5 -300 -150 0 -150 0 -8 469 c-5 258 -6 480 -2 493 5 23 7 23 160 23
l155 0 0 -55z"/>
</g>
</svg>
