<?xml version="1.0" standalone="no"?>
<!DOCTYPE svg PUBLIC "-//W3C//DTD SVG 20010904//EN"
 "http://www.w3.org/TR/2001/REC-SVG-20010904/DTD/svg10.dtd">
<svg version="1.0" xmlns="http://www.w3.org/2000/svg"
 width="192.000000pt" height="192.000000pt" viewBox="0 0 192.000000 192.000000"
 preserveAspectRatio="xMidYMid meet">
<metadata>
Created by potrace 1.16, written by Peter Selinger 2001-2019
</metadata>
<g transform="translate(0.000000,192.000000) scale(0.100000,-0.100000)"
fill="#000000" stroke="none">
<path d="M1310 1773 c-64 -21 -78 -55 -40 -103 11 -14 20 -29 20 -35 0 -5 6
-21 13 -35 49 -95 94 -282 72 -300 -7 -6 -15 -42 -19 -80 -3 -39 -10 -78 -16
-88 -5 -9 -16 -33 -25 -52 -8 -19 -33 -55 -54 -80 -39 -46 -117 -107 -126 -98
-3 2 1 29 7 60 16 77 -9 192 -70 317 -21 42 -147 178 -173 186 -25 8 -25 32 0
40 24 7 91 80 91 99 0 32 -28 39 -88 22 -31 -10 -64 -21 -72 -25 -9 -5 -35
-12 -58 -16 -23 -4 -44 -11 -48 -16 -3 -5 -18 -9 -33 -9 -28 0 -43 13 -164
148 -24 27 -46 42 -61 42 -27 0 -216 -140 -267 -198 -87 -97 -179 -225 -179
-248 0 -7 -6 -14 -12 -16 -9 -3 -7 -10 6 -23 18 -18 18 -19 0 -32 -17 -12 -13
-19 52 -86 92 -94 114 -124 114 -157 0 -15 3 -30 7 -34 4 -3 8 -13 9 -21 1 -8
9 -29 18 -46 9 -18 15 -33 14 -34 -2 -1 -21 -6 -43 -11 -70 -16 -74 -82 -9
-154 53 -59 133 -76 201 -43 32 15 37 15 61 0 39 -23 37 -32 -11 -60 -103 -61
-157 -154 -158 -275 -1 -123 33 -174 117 -172 27 0 63 -2 80 -6 26 -5 38 0 68
26 33 30 36 36 35 84 -2 53 -36 127 -67 146 -15 9 -15 11 3 25 11 8 25 19 32
25 7 5 22 11 34 13 19 2 28 -13 66 -103 24 -58 56 -130 70 -160 23 -50 24 -56
10 -80 -20 -34 -26 -101 -9 -107 8 -3 12 7 12 30 0 37 32 87 56 87 20 0 18
-24 -6 -62 -22 -36 -26 -62 -9 -56 11 4 28 35 73 128 20 43 64 128 82 158 5 8
172 -113 207 -149 83 -85 173 -52 96 35 -17 20 -36 56 -41 79 -36 168 -48 223
-73 359 -5 26 -4 38 4 39 26 3 30 4 37 12 4 4 14 7 21 7 36 0 151 67 225 131
l57 49 3 -37 3 -38 99 -3 c68 -2 102 1 107 9 4 6 19 -25 33 -71 32 -97 85
-207 130 -266 17 -23 38 -52 46 -64 8 -12 23 -26 33 -31 25 -14 22 12 -5 41
l-22 23 22 -5 c31 -8 28 4 -17 70 -73 107 -126 232 -146 344 -9 48 -8 51 16
60 17 7 19 4 13 -30 -4 -28 2 -63 25 -131 35 -105 124 -265 129 -232 2 11 -9
39 -24 62 -35 56 -84 166 -84 189 0 11 -4 22 -10 25 -25 16 -5 25 55 25 59 0
65 2 65 21 0 18 -5 20 -55 18 -30 -1 -56 -1 -58 2 -2 2 0 45 3 95 4 50 4 113
0 140 -4 27 -6 51 -5 54 2 3 26 3 53 2 l51 -4 -4 -104 c-3 -60 0 -106 5 -109
6 -4 10 41 10 119 l0 126 -54 0 c-86 0 -86 1 -61 73 33 92 52 135 86 190 16
27 29 58 27 68 -2 14 -17 -4 -49 -58 -52 -88 -88 -177 -98 -243 -4 -30 -11
-45 -21 -45 -44 0 36 217 131 358 22 32 37 62 34 67 -9 14 -26 -5 -78 -86 -62
-96 -82 -144 -126 -294 -7 -23 -13 -25 -62 -26 -49 -1 -50 -1 -8 3 52 4 50 2
84 113 17 56 80 190 94 200 4 3 17 21 28 40 12 20 33 46 47 59 26 24 35 51 17
51 -11 0 -76 -71 -92 -102 -6 -12 -16 -25 -20 -28 -13 -9 -76 -143 -94 -200
-29 -95 -37 -110 -55 -110 -16 0 -17 5 -8 47 8 33 7 52 -1 65 -8 13 -8 24 -1
38 5 10 10 29 10 42 0 13 7 33 15 45 8 12 18 42 22 68 6 45 5 47 -39 88 -25
23 -69 51 -97 61 -48 17 -53 17 -70 2 -27 -24 -38 -20 -45 19 -4 20 -19 56
-34 80 -27 45 -47 53 -92 38z m77 -125 c18 -46 37 -95 42 -109 6 -16 20 -29
35 -33 33 -8 33 -24 1 -28 -32 -4 -37 -22 -7 -26 13 -2 34 7 51 21 36 30 86
32 86 3 0 -13 -10 -22 -30 -28 -16 -4 -41 -17 -55 -27 l-25 -20 24 -24 c16
-18 21 -32 16 -46 -4 -15 -2 -21 9 -21 23 0 30 38 11 66 -21 33 -14 40 24 23
36 -16 39 -37 14 -80 -21 -35 -47 -44 -107 -35 -34 5 -43 11 -42 24 10 63 -74
326 -122 384 -17 21 -8 38 21 38 19 0 28 -14 54 -82z m-834 -44 l87 -92 -68
-58 c-102 -89 -328 -313 -343 -340 -14 -27 -34 -31 -46 -10 -4 8 -36 44 -71
81 -49 50 -62 70 -57 86 12 37 151 213 217 274 76 70 180 154 189 152 3 -1 45
-43 92 -93z m407 -1 c0 -10 -62 -73 -72 -73 -4 0 -8 6 -8 14 0 8 -4 17 -9 20
-5 4 -7 -3 -4 -14 3 -13 0 -20 -8 -20 -8 0 -52 -23 -99 -51 -161 -97 -294
-156 -239 -105 74 68 163 136 177 136 35 0 144 43 169 66 22 20 42 28 81 33 6
0 12 -2 12 -6z m500 -13 c0 -5 -4 -10 -10 -10 -5 0 -10 5 -10 10 0 6 5 10 10
10 6 0 10 -4 10 -10z m93 -7 c24 -7 19 -56 -5 -61 -11 -2 -18 3 -18 12 0 24
-21 30 -27 7 -3 -12 -9 -21 -14 -21 -17 0 -19 21 -4 51 12 22 21 29 33 24 9
-4 25 -10 35 -12z m59 -55 c-15 -15 -26 -4 -18 18 5 13 9 15 18 6 9 -9 9 -15
0 -24z m38 -39 c0 -19 -5 -29 -15 -29 -15 0 -22 50 -9 63 12 12 24 -4 24 -34z
m-794 -16 c-10 -10 -19 5 -10 18 6 11 8 11 12 0 2 -7 1 -15 -2 -18z m4 -49
c72 -47 104 -78 145 -140 59 -89 79 -156 80 -269 0 -88 -3 -107 -27 -158 -100
-214 -350 -288 -570 -169 -38 20 -68 40 -68 44 0 16 -19 7 -50 -23 -28 -28
-35 -31 -72 -25 -65 11 -128 66 -115 101 3 7 33 18 68 24 65 11 109 33 109 54
0 6 -14 30 -30 51 -17 22 -30 44 -30 49 0 5 12 36 27 69 l27 60 -33 27 -32 26
89 88 c49 48 95 87 101 87 20 0 11 -26 -14 -40 -32 -17 -79 -85 -71 -105 8
-22 21 -19 40 9 22 34 79 86 94 86 17 0 15 27 -3 34 -22 8 -18 26 6 26 20 0
131 51 156 71 16 14 96 56 108 58 6 0 35 -15 65 -35z m770 6 c0 -12 -28 -25
-36 -17 -9 9 6 27 22 27 8 0 14 -5 14 -10z m-38 -192 c-18 -18 -158 -24 -177
-8 -26 21 -6 29 58 24 34 -3 73 -1 87 4 30 12 50 -2 32 -20z m-15 -67 c-10
-21 -16 -23 -59 -18 l-48 6 0 -100 0 -99 -72 -73 c-100 -101 -234 -177 -311
-177 -13 0 -31 -6 -40 -12 -15 -12 -15 -18 -1 -73 8 -33 19 -72 23 -87 8 -23
3 -31 -33 -66 -48 -47 -104 -77 -183 -97 -62 -16 -140 -20 -160 -7 -7 4 -25
39 -40 77 -17 42 -35 71 -45 73 -24 5 -120 -43 -153 -76 -15 -15 -34 -41 -41
-58 -10 -25 -21 -32 -50 -37 -20 -4 -41 -4 -45 -1 -4 2 2 28 14 57 26 63 94
131 162 161 121 55 145 57 145 14 0 -38 12 -68 25 -68 7 0 32 21 54 47 23 25
43 44 44 42 2 -2 15 -24 30 -49 14 -25 37 -58 51 -74 14 -16 26 -33 26 -38 0
-4 5 -8 10 -8 13 0 13 115 0 160 -5 19 -6 38 -2 42 5 5 32 3 61 -3 29 -6 55
-8 59 -5 3 4 1 21 -6 39 -11 29 -10 34 22 67 18 19 38 44 44 56 6 11 45 37 86
58 124 62 238 205 253 315 l5 36 93 0 92 0 -10 -24z m-1278 -68 l21 -18 -26
-63 -25 -63 30 -47 c19 -29 27 -50 21 -56 -11 -11 -11 -12 -42 39 -13 22 -32
68 -42 101 l-18 62 23 31 c27 36 30 37 58 14z m1436 2 c52 -26 71 -95 41 -154
-19 -35 -55 -51 -117 -51 l-51 0 4 -37 3 -37 -53 0 -53 0 -2 147 -2 147 98 0
c69 0 109 -5 132 -15z m-608 -102 c-3 -10 -5 -4 -5 12 0 17 2 24 5 18 2 -7 2
-21 0 -30z m353 -103 c0 -24 -4 -30 -22 -30 -20 0 -21 1 -3 20 10 11 15 20 11
20 -4 0 -4 5 -1 10 11 17 15 11 15 -20z m-342 -25 c-2 -1 -13 -7 -25 -13 -18
-10 -20 -9 -16 7 3 13 11 17 24 14 11 -3 18 -7 17 -8z m619 -230 c21 -55 98
-191 113 -200 6 -3 10 -11 10 -17 0 -20 -67 76 -103 148 -20 39 -48 108 -62
152 -21 65 -30 82 -46 82 -29 0 -26 48 3 52 21 3 25 -5 44 -82 12 -47 30 -107
41 -135z m-274 165 c3 -11 1 -18 -4 -14 -5 3 -9 12 -9 20 0 20 7 17 13 -6z
m-515 -148 c2 -7 -6 -12 -17 -12 -21 0 -27 11 -14 24 9 9 26 2 31 -12z m-430
-32 c11 0 6 -6 -12 -15 -36 -19 -36 -19 -36 6 0 15 4 19 16 15 9 -3 23 -6 32
-6z m316 -40 c3 -16 9 -43 12 -60 8 -44 -9 -37 -44 20 -28 45 -29 51 -14 59
29 17 40 12 46 -19z m-134 1 c0 -8 -43 -41 -55 -41 -3 0 -5 11 -5 25 0 21 5
25 30 25 17 0 30 -4 30 -9z m385 -232 c12 -57 26 -116 30 -131 7 -27 -7 -40
-20 -18 -12 19 -187 130 -206 130 -21 0 -38 -24 -89 -129 -19 -39 -37 -71 -40
-71 -3 0 -14 24 -24 53 -10 28 -27 70 -37 91 -10 22 -17 41 -15 44 3 2 38 5
78 7 42 2 86 10 103 19 17 9 37 16 46 16 22 0 106 55 121 80 7 11 17 19 22 17
5 -2 19 -50 31 -108z m-635 26 c0 -16 -6 -25 -15 -25 -18 0 -19 4 -3 30 16 26
18 25 18 -5z m36 -70 c22 -33 11 -46 -27 -33 -38 13 -44 7 -28 -31 14 -32 39
-42 39 -16 0 8 7 15 15 15 25 0 18 -45 -10 -60 -22 -12 -27 -11 -45 5 -17 16
-24 16 -44 6 -31 -17 -60 -7 -75 25 -15 33 -9 40 36 49 21 4 52 20 71 36 40
35 47 36 68 4z m-106 6 c0 -12 -67 -34 -80 -26 -18 11 -11 24 18 28 50 7 62 7
62 -2z m820 -198 c0 -7 -3 -13 -6 -13 -11 0 -46 22 -64 40 -18 18 -18 20 -2
29 13 7 23 4 45 -17 15 -14 27 -32 27 -39z"/>
<path d="M1459 1416 c-11 -11 14 -96 28 -96 17 0 17 15 -1 30 -8 6 -16 25 -18
42 -2 16 -6 27 -9 24z"/>
<path d="M713 1390 c-54 -31 -63 -46 -41 -68 9 -9 18 -6 38 13 14 13 43 31 65
38 22 8 40 20 40 28 0 25 -49 20 -102 -11z"/>
<path d="M805 1350 c-62 -13 -103 -60 -90 -101 10 -31 22 -22 29 21 7 45 27
60 80 60 39 0 70 -31 81 -80 8 -36 -19 -97 -46 -105 -11 -4 -17 -10 -14 -15
17 -28 95 57 95 103 0 37 -54 107 -90 119 -8 2 -28 2 -45 -2z"/>
<path d="M570 1299 c0 -5 5 -7 10 -4 6 3 10 8 10 11 0 2 -4 4 -10 4 -5 0 -10
-5 -10 -11z"/>
<path d="M678 1283 c7 -3 16 -2 19 1 4 3 -2 6 -13 5 -11 0 -14 -3 -6 -6z"/>
<path d="M620 1248 c0 -8 13 -21 28 -30 35 -21 192 -171 192 -184 0 -5 -20
-16 -45 -23 -48 -14 -63 -27 -48 -42 10 -10 110 25 132 46 13 12 8 22 -35 67
-117 126 -224 205 -224 166z"/>
<path d="M787 1243 c-4 -3 -7 -19 -7 -34 0 -22 6 -30 25 -35 33 -8 55 1 55 24
0 34 -53 66 -73 45z"/>
<path d="M461 1158 c-17 -18 -31 -40 -32 -48 0 -8 -2 -22 -4 -31 -6 -31 39
-102 78 -122 34 -17 43 -18 82 -7 107 30 113 183 10 226 -58 24 -100 18 -134
-18z m112 -2 c18 -7 39 -22 49 -32 36 -41 19 -131 -28 -153 -32 -14 -40 -14
-80 5 -66 32 -79 131 -21 176 27 21 38 22 80 4z"/>
<path d="M506 1064 c-3 -9 0 -28 7 -42 9 -20 20 -27 42 -27 25 0 30 4 33 28 2
16 -2 35 -9 43 -16 19 -65 18 -73 -2z"/>
<path d="M1031 1124 c0 -11 3 -14 6 -6 3 7 2 16 -1 19 -3 4 -6 -2 -5 -13z"/>
<path d="M1041 1084 c0 -11 3 -14 6 -6 3 7 2 16 -1 19 -3 4 -6 -2 -5 -13z"/>
<path d="M1042 1025 c0 -16 2 -22 5 -12 2 9 2 23 0 30 -3 6 -5 -1 -5 -18z"/>
<path d="M800 930 c-73 -17 -170 -22 -185 -10 -12 10 -18 10 -30 0 -19 -15
-20 -52 -2 -48 8 2 28 -12 47 -30 39 -39 68 -52 116 -52 47 0 94 45 94 90 0
18 6 33 15 36 8 4 15 10 15 15 0 11 -21 10 -70 -1z m18 -42 c-6 -17 -159 -39
-175 -26 -15 12 -7 29 10 23 7 -3 32 -1 57 4 69 14 112 13 108 -1z m-38 -58
c-8 -5 -28 -9 -45 -9 -29 1 -29 1 -5 9 14 4 34 8 45 9 16 1 17 -1 5 -9z"/>
<path d="M261 781 c-19 -3 -37 -12 -39 -20 -4 -11 5 -13 47 -8 46 5 51 4 51
-13 0 -39 15 -25 48 43 4 8 -57 7 -107 -2z"/>
<path d="M713 753 c15 -2 37 -2 50 0 12 2 0 4 -28 4 -27 0 -38 -2 -22 -4z"/>
<path d="M657 668 c23 -5 62 -5 90 0 44 8 40 9 -42 9 -76 0 -84 -2 -48 -9z"/>
<path d="M263 1061 c-6 -10 -8 -23 -3 -30 5 -9 9 -3 13 16 6 34 5 37 -10 14z"/>
<path d="M1610 1011 c0 -26 4 -31 24 -31 34 0 56 10 56 25 0 17 -14 26 -51 32
-27 4 -29 2 -29 -26z"/>
<path d="M375 240 c-18 -8 -17 -9 7 -9 15 -1 30 4 33 9 7 12 -12 12 -40 0z"/>
<path d="M1897 1333 c-11 -10 -8 -51 4 -58 6 -4 13 -4 17 0 4 4 1 10 -5 12
-15 5 -17 33 -3 33 6 0 10 5 10 10 0 11 -13 13 -23 3z"/>
</g>
</svg>
