<?xml version="1.0" standalone="no"?>
<!DOCTYPE svg PUBLIC "-//W3C//DTD SVG 20010904//EN"
 "http://www.w3.org/TR/2001/REC-SVG-20010904/DTD/svg10.dtd">
<svg version="1.0" xmlns="http://www.w3.org/2000/svg"
 width="100.000000pt" height="100.000000pt" viewBox="0 0 100.000000 100.000000"
 preserveAspectRatio="xMidYMid meet">
<metadata>
Created by potrace 1.16, written by Peter Selinger 2001-2019
</metadata>
<g transform="translate(0.000000,100.000000) scale(0.100000,-0.100000)"
fill="#000000" stroke="none">
<path d="M18 993 c-19 -5 -25 -23 -7 -23 5 0 7 -5 4 -10 -11 -17 -5 -874 5
-884 7 -7 10 152 10 442 0 395 2 452 15 452 8 0 15 -7 15 -15 0 -8 7 -15 15
-15 8 0 15 -7 15 -15 0 -8 9 -15 20 -15 16 0 20 -7 20 -35 0 -26 -4 -35 -16
-35 -14 0 -14 -3 -4 -15 10 -12 10 -15 -4 -15 -11 0 -16 9 -16 30 0 22 5 30
17 30 14 0 15 2 4 13 -11 10 -14 10 -18 0 -3 -7 -11 -13 -19 -13 -12 0 -14
-62 -14 -405 l0 -405 -30 0 c-17 0 -30 -5 -30 -11 0 -7 12 -10 30 -7 17 3 30
1 30 -4 0 -4 103 -8 229 -8 143 0 232 -4 236 -10 3 -5 22 -10 41 -10 19 0 34
5 34 10 0 6 11 10 25 10 14 0 25 -4 25 -10 0 -5 15 -10 34 -10 19 0 38 5 41
10 4 6 62 10 141 10 83 0 134 4 134 10 0 6 -50 10 -130 10 l-130 0 0 135 0
135 130 0 c80 0 130 4 130 10 0 6 -53 10 -140 10 l-140 0 0 -140 0 -140 -30 0
c-20 0 -30 5 -30 15 0 10 -11 15 -35 15 -24 0 -35 -5 -35 -15 0 -8 -7 -15 -15
-15 -12 0 -15 16 -15 80 l0 80 30 0 c29 0 30 -2 30 -45 0 -33 -4 -45 -15 -45
-10 0 -15 10 -15 30 0 17 -4 30 -9 30 -13 0 -10 -52 5 -67 15 -15 34 -17 34
-3 0 6 16 10 35 10 33 0 35 -2 35 -32 0 -17 2 -29 5 -26 3 3 2 37 -1 77 l-7
71 -33 0 c-34 0 -34 1 -34 45 0 26 5 45 11 45 6 0 9 -7 5 -15 -3 -8 -1 -15 5
-15 6 0 7 -5 4 -10 -8 -13 20 -41 37 -38 15 3 29 101 16 106 -4 2 -8 135 -9
295 0 161 -2 288 -4 282 -8 -20 -10 -575 -2 -575 4 0 7 -20 7 -45 0 -33 -4
-45 -15 -45 -13 0 -15 47 -15 360 l0 360 30 0 29 0 3 -226 c2 -133 -1 -229 -7
-235 -5 -5 -1 -9 13 -9 19 0 22 -5 22 -45 l0 -45 125 0 c77 0 125 4 125 10 0
6 -40 10 -100 10 l-100 0 0 40 c0 29 4 40 15 40 10 0 15 10 15 29 0 16 6 31
15 35 10 4 15 20 15 51 0 33 4 45 15 45 10 0 15 10 15 29 0 20 6 30 20 34 15
4 20 14 20 36 0 41 18 40 22 -1 2 -25 8 -34 26 -36 12 -2 22 1 22 7 0 6 -7 11
-15 11 -8 0 -15 5 -15 11 0 6 7 9 15 5 8 -3 15 -1 15 4 0 6 -7 10 -15 10 -11
0 -15 12 -15 45 0 33 4 45 15 45 18 0 20 16 3 23 -10 4 -10 8 -2 14 9 7 12 44
6 76 -3 11 -102 8 -102 -3 0 -6 -32 -10 -75 -10 -43 0 -75 4 -75 10 0 6 -22
10 -50 10 -27 0 -50 -4 -50 -10 0 -12 -537 -14 -542 -2 -4 11 -57 20 -80 15z
m72 -33 c0 -5 -2 -10 -4 -10 -3 0 -8 5 -11 10 -3 6 -1 10 4 10 6 0 11 -4 11
-10z m880 -40 c0 -49 -1 -50 -30 -50 -29 0 -30 -2 -30 -45 0 -33 -4 -45 -15
-45 -9 0 -12 6 -9 15 4 8 1 15 -5 15 -7 0 -11 24 -11 65 0 41 4 65 11 65 6 0
9 -7 5 -15 -3 -9 0 -15 9 -15 7 0 15 -6 17 -14 2 -11 8 -11 28 -3 l25 11 -27
4 c-23 3 -28 8 -28 33 0 26 3 29 30 29 29 0 30 -1 30 -50z m-330 -264 c0 -285
-1 -294 -20 -299 -15 -4 -20 -14 -20 -36 0 -17 -4 -31 -10 -31 -5 0 -10 9 -10
20 0 11 -7 20 -15 20 -8 0 -15 7 -15 15 0 8 -7 15 -15 15 -10 0 -15 10 -15 30
0 18 -6 33 -15 36 -8 4 -15 12 -15 20 0 8 -7 14 -15 14 -9 0 -15 9 -15 25 0
14 -7 28 -15 31 -8 4 -15 12 -15 20 0 8 -9 14 -20 14 -11 0 -20 7 -20 15 0 8
-7 15 -15 15 -10 0 -15 10 -15 30 0 18 -6 33 -15 36 -8 4 -15 12 -15 20 0 8
-7 14 -15 14 -9 0 -15 9 -15 25 0 14 -7 28 -15 31 -8 4 -15 12 -15 20 0 8 -7
14 -15 14 -8 0 -15 7 -15 15 0 8 -7 15 -15 15 -9 0 -15 9 -15 25 0 14 -7 28
-15 31 -8 4 -15 12 -15 20 0 8 -7 14 -15 14 -10 0 -15 10 -15 30 l0 30 245 0
245 0 0 -294z m210 265 c0 -16 -6 -31 -15 -35 -10 -3 -15 -19 -15 -46 0 -29
-4 -40 -15 -40 -10 0 -15 -10 -15 -29 0 -16 -6 -31 -15 -35 -10 -3 -15 -19
-15 -46 0 -22 -4 -40 -10 -40 -6 0 -10 57 -10 150 l0 150 55 0 c54 0 55 -1 55
-29z m-690 -81 c0 -20 5 -30 15 -30 10 0 15 -10 15 -30 0 -20 -5 -30 -15 -30
-8 0 -15 7 -15 15 0 8 -7 15 -15 15 -10 0 -15 10 -15 30 0 17 5 30 11 30 6 0
9 7 5 15 -3 8 -1 15 4 15 6 0 10 -13 10 -30z m696 -15 c-3 -8 -1 -15 4 -15 6
0 9 -28 9 -62 -1 -35 -3 -55 -6 -45 -9 33 -23 16 -23 -28 0 -26 -5 -45 -11
-45 -6 0 -9 7 -5 15 3 8 1 15 -4 15 -6 0 -10 27 -10 60 0 33 4 60 10 60 5 0 7
-6 4 -14 -3 -7 1 -16 8 -18 10 -4 12 6 10 43 -3 34 0 49 8 49 7 0 10 -7 6 -15z
m-746 -60 c0 -14 7 -28 15 -31 8 -4 15 -12 15 -20 0 -8 7 -14 15 -14 8 0 15
-7 15 -15 0 -8 7 -15 15 -15 10 0 15 -10 15 -30 0 -20 5 -30 15 -30 8 0 15 -9
15 -20 0 -11 7 -20 15 -20 9 0 15 -9 15 -25 0 -14 7 -28 15 -31 8 -4 15 -12
15 -20 0 -8 6 -14 14 -14 8 0 17 -11 20 -25 4 -14 11 -25 16 -25 6 0 10 -9 10
-20 0 -13 7 -20 20 -20 11 0 20 -7 20 -15 0 -8 7 -15 15 -15 10 0 15 -10 15
-30 0 -18 6 -33 15 -36 8 -4 15 -12 15 -20 0 -8 7 -14 15 -14 9 0 15 -9 15
-25 0 -14 7 -28 15 -31 8 -4 15 -12 15 -20 0 -8 7 -14 15 -14 10 0 15 -10 15
-30 0 -20 -5 -30 -15 -30 -10 0 -15 -10 -15 -30 l0 -30 -215 0 -215 0 0 370
c0 322 2 370 15 370 9 0 15 -9 15 -25z m107 -27 c-2 -24 -3 -37 0 -30 7 17 33
15 33 -3 0 -8 7 -15 15 -15 10 0 15 -10 15 -30 0 -16 -5 -30 -11 -30 -6 0 -8
-9 -4 -20 4 -12 2 -20 -5 -20 -8 0 -11 14 -8 38 3 33 1 38 -14 34 -12 -3 -18
1 -18 12 0 9 -7 16 -15 16 -10 0 -15 10 -15 30 0 17 4 30 10 30 5 0 7 7 4 15
-4 8 -1 15 6 15 9 0 11 -13 7 -42z m693 22 c0 -5 -5 -10 -11 -10 -5 0 -7 5 -4
10 3 6 8 10 11 10 2 0 4 -4 4 -10z m-660 -20 c0 -5 -2 -10 -4 -10 -3 0 -8 5
-11 10 -3 6 -1 10 4 10 6 0 11 -4 11 -10z m-75 -10 c3 -5 1 -10 -4 -10 -6 0
-11 5 -11 10 0 6 2 10 4 10 3 0 8 -4 11 -10z m629 -62 c12 -46 7 -108 -9 -108
-11 0 -15 -12 -15 -45 0 -25 -4 -45 -10 -45 -5 0 -7 7 -4 15 4 8 1 15 -5 15
-7 0 -11 24 -11 65 0 39 4 65 11 65 6 0 8 -8 4 -19 -3 -11 0 -21 7 -24 10 -3
12 9 10 49 -4 54 10 74 22 32z m-494 -43 c0 -24 5 -35 15 -35 10 0 15 -10 15
-30 0 -20 -5 -30 -15 -30 -8 0 -15 7 -15 15 0 8 -7 15 -15 15 -10 0 -15 11
-15 35 0 19 5 35 11 35 6 0 9 7 5 15 -3 8 -1 15 4 15 6 0 10 -16 10 -35z m527
-27 c-3 -8 -6 -5 -6 6 -1 11 2 17 5 13 3 -3 4 -12 1 -19z m-470 -80 c-2 -24
-3 -37 0 -30 7 17 43 15 43 -3 0 -8 7 -15 15 -15 10 0 15 -10 15 -30 0 -16 -4
-30 -10 -30 -5 0 -7 -7 -4 -15 4 -8 1 -15 -6 -15 -8 0 -11 12 -8 33 3 30 1 33
-19 29 -16 -3 -23 0 -23 12 0 9 -7 16 -15 16 -10 0 -15 10 -15 30 0 17 4 30
10 30 5 0 7 7 4 15 -4 8 -1 15 6 15 9 0 11 -13 7 -42z m43 2 c0 -5 -2 -10 -4
-10 -3 0 -8 5 -11 10 -3 6 -1 10 4 10 6 0 11 -4 11 -10z m-85 -10 c3 -5 1 -10
-4 -10 -6 0 -11 5 -11 10 0 6 2 10 4 10 3 0 8 -4 11 -10z m145 -100 c0 -20 5
-30 15 -30 10 0 15 -11 15 -35 0 -19 -5 -35 -11 -35 -6 0 -9 -7 -5 -15 3 -8 1
-15 -4 -15 -6 0 -10 14 -10 30 0 20 -5 30 -15 30 -10 0 -15 11 -15 35 0 19 5
35 11 35 6 0 9 7 5 15 -3 8 -1 15 4 15 6 0 10 -13 10 -30z m-85 10 c3 -5 1
-10 -4 -10 -6 0 -11 5 -11 10 0 6 2 10 4 10 3 0 8 -4 11 -10z m142 -122 c-2
-24 -3 -37 0 -30 7 17 33 15 33 -3 0 -8 7 -15 15 -15 8 0 15 -5 15 -11 0 -6
-7 -9 -15 -5 -8 3 -15 1 -15 -4 0 -6 -7 -10 -15 -10 -8 0 -15 7 -15 15 0 8 -7
15 -15 15 -10 0 -15 10 -15 30 0 17 4 30 10 30 5 0 7 7 4 15 -4 8 -1 15 6 15
9 0 11 -13 7 -42z m113 38 c0 -3 -4 -8 -10 -11 -5 -3 -10 -1 -10 4 0 6 5 11
10 11 6 0 10 -2 10 -4z m-80 -36 c0 -5 -2 -10 -4 -10 -3 0 -8 5 -11 10 -3 6
-1 10 4 10 6 0 11 -4 11 -10z m-15 -100 c3 -5 1 -10 -4 -10 -6 0 -11 5 -11 10
0 6 2 10 4 10 3 0 8 -4 11 -10z m123 -19 c5 -30 -13 -50 -30 -33 -9 9 -8 12 5
12 9 0 17 7 17 15 0 8 -7 15 -15 15 -8 0 -15 5 -15 11 0 21 35 3 38 -20z
m-122 -117 c-6 -24 -5 -26 19 -20 14 4 25 2 25 -4 0 -5 -13 -10 -30 -10 -27 0
-30 3 -30 30 0 17 5 30 11 30 7 0 9 -10 5 -26z m99 6 c3 -5 -1 -10 -9 -10 -9
0 -16 5 -16 10 0 6 4 10 9 10 6 0 13 -4 16 -10z m75 -32 c0 -5 -13 -8 -30 -8
-16 0 -30 3 -30 8 0 4 14 7 30 7 17 0 30 -3 30 -7z"/>
<path d="M928 943 c6 -2 18 -2 25 0 6 3 1 5 -13 5 -14 0 -19 -2 -12 -5z"/>
<path d="M50 910 c-8 -5 -11 -12 -7 -16 4 -4 13 -2 19 4 15 15 7 24 -12 12z"/>
<path d="M700 481 c0 -5 7 -11 14 -14 10 -4 13 -1 9 9 -6 15 -23 19 -23 5z"/>
<path d="M721 398 c0 -24 3 -37 6 -30 3 9 41 12 140 12 75 0 134 2 132 4 -2 3
-62 6 -132 7 -126 2 -127 2 -127 26 0 12 -4 23 -10 23 -5 0 -10 -19 -9 -42z"/>
<path d="M0 20 c0 -5 7 -7 15 -4 8 4 15 1 15 -5 0 -6 7 -11 15 -11 8 0 15 7
15 15 0 10 -10 15 -30 15 -17 0 -30 -4 -30 -10z"/>
</g>
</svg>
