<?xml version="1.0" standalone="no"?>
<!DOCTYPE svg PUBLIC "-//W3C//DTD SVG 20010904//EN"
 "http://www.w3.org/TR/2001/REC-SVG-20010904/DTD/svg10.dtd">
<svg version="1.0" xmlns="http://www.w3.org/2000/svg"
 width="256.000000pt" height="256.000000pt" viewBox="0 0 256.000000 256.000000"
 preserveAspectRatio="xMidYMid meet">
<metadata>
Created by potrace 1.16, written by Peter Selinger 2001-2019
</metadata>
<g transform="translate(0.000000,256.000000) scale(0.100000,-0.100000)"
fill="#000000" stroke="none">
<path d="M1150 2522 c-46 -22 -362 -332 -507 -497 -322 -365 -545 -730 -612
-1004 -29 -117 -33 -143 -19 -139 6 2 18 35 25 74 59 290 283 670 626 1059
150 171 453 466 501 489 23 11 48 15 62 12 51 -13 294 -251 510 -498 334 -382
545 -720 631 -1007 36 -124 42 -292 15 -417 -62 -277 -221 -476 -442 -551 -66
-22 -99 -50 -43 -37 251 60 447 288 508 594 25 121 17 304 -18 421 -109 365
-429 823 -912 1306 -95 94 -187 181 -206 192 -41 25 -73 26 -119 3z"/>
<path d="M1150 2469 c-51 -23 -361 -331 -515 -513 -356 -417 -539 -744 -592
-1054 -14 -82 -14 -114 -5 -204 36 -340 231 -593 494 -638 42 -7 277 -10 718
-8 652 3 655 3 715 26 255 95 419 368 419 697 0 138 -26 249 -94 406 -104 241
-322 552 -610 873 -141 156 -412 425 -431 427 -8 1 -24 3 -36 4 -12 1 -40 -6
-63 -16z m137 -57 c76 -64 294 -290 430 -445 304 -349 508 -665 600 -932 37
-107 38 -113 38 -255 0 -171 -13 -230 -81 -368 -90 -183 -247 -308 -419 -332
-93 -13 -1199 -13 -1290 0 -213 31 -403 218 -475 470 -31 107 -38 281 -15 391
70 347 391 826 878 1312 162 162 218 207 253 207 13 0 49 -21 81 -48z"/>
<path d="M1128 2258 c-29 -23 -125 -114 -213 -203 -398 -401 -658 -785 -727
-1075 -16 -68 -19 -108 -16 -200 6 -140 40 -249 112 -358 59 -90 119 -143 215
-190 l75 -37 635 0 636 0 78 37 c221 106 358 382 325 655 -35 289 -301 699
-753 1162 -178 182 -257 251 -290 251 -13 0 -47 -19 -77 -42z m302 -187 c203
-204 313 -328 440 -496 162 -214 272 -406 326 -570 25 -79 29 -104 29 -205 -1
-98 -5 -126 -27 -191 -73 -208 -219 -353 -392 -389 -36 -7 -236 -10 -627 -8
-573 3 -574 3 -631 26 -164 66 -302 244 -345 445 -55 258 79 579 416 999 110
138 395 437 514 540 61 52 70 57 90 46 12 -6 105 -95 207 -197z"/>
<path d="M1191 2162 c-5 -27 -26 -82 -45 -122 -43 -89 -49 -174 -17 -239 l18
-39 -44 34 c-39 29 -52 34 -101 34 -81 0 -111 -21 -182 -122 -73 -105 -75
-123 -20 -131 22 -3 63 -20 92 -38 58 -36 128 -48 176 -31 l30 10 -1 -46 c-2
-52 8 -59 68 -48 28 6 34 12 40 42 3 20 11 46 17 59 l10 23 30 -34 c38 -43 91
-57 191 -52 68 4 83 9 120 37 23 17 57 39 75 48 41 21 44 58 7 67 -20 5 -32
21 -52 66 -18 42 -36 66 -59 81 -36 22 -109 29 -159 16 -28 -8 -29 -8 -12 11
22 24 22 93 1 176 -21 83 -121 245 -151 246 -18 0 -23 -8 -32 -48z m125 -127
c24 -43 54 -143 54 -183 0 -17 -20 -44 -60 -84 -33 -33 -60 -64 -60 -69 0 -23
27 -17 89 20 115 70 190 53 241 -55 22 -48 36 -65 56 -70 25 -6 25 -7 -18 -31
-24 -13 -52 -33 -64 -44 -32 -30 -124 -44 -189 -30 -44 10 -61 20 -88 53 -44
53 -61 46 -84 -31 -14 -48 -23 -61 -42 -66 -13 -3 -28 -2 -33 3 -10 10 14 95
34 119 7 9 9 14 3 12 -5 -3 -36 -17 -68 -32 -32 -15 -66 -27 -76 -27 -11 0
-53 18 -95 40 -41 22 -89 40 -105 40 l-30 0 55 80 c79 114 116 139 189 126 26
-5 53 -25 100 -74 l65 -67 0 38 c0 22 -13 62 -30 97 -41 81 -40 126 6 220 19
40 40 96 45 122 l11 49 35 -58 c20 -32 46 -76 59 -98z"/>
<path d="M1251 1944 c0 -34 -4 -77 -7 -95 -5 -24 -3 -31 4 -24 14 13 20 99 11
145 -5 29 -7 25 -8 -26z"/>
<path d="M1061 1666 c33 -19 109 -32 109 -19 0 6 -19 13 -42 17 -24 3 -54 8
-68 11 l-25 6 26 -15z"/>
<path d="M1290 1624 c0 -10 70 -34 98 -34 16 0 34 6 40 13 8 10 3 12 -27 9
-21 -2 -54 1 -74 6 -21 6 -37 8 -37 6z"/>
<path d="M1179 1568 c-33 -58 -51 -108 -38 -108 6 0 17 17 24 38 8 20 24 54
34 75 26 51 10 47 -20 -5z"/>
<path d="M1662 1418 c-7 -7 -12 -29 -12 -50 0 -37 -1 -37 -27 -27 -31 12 -81
3 -105 -19 -16 -14 -18 -14 -18 1 0 25 -98 34 -139 13 -18 -10 -31 -12 -31 -6
0 7 -33 9 -95 7 -52 -2 -99 -1 -104 2 -5 3 -11 17 -12 31 -3 20 -10 25 -34 25
-20 0 -33 -7 -40 -21 -25 -50 -33 -54 -72 -37 -28 11 -45 12 -75 5 -30 -8 -38
-7 -38 4 0 8 5 14 10 14 6 0 10 14 10 30 l0 30 -141 0 -142 0 7 -49 c8 -58
-11 -189 -30 -212 -8 -8 -14 -25 -14 -37 0 -21 5 -22 70 -22 63 0 70 2 70 20
0 11 -6 29 -12 40 -10 15 -10 22 -1 31 11 11 16 -5 26 -81 2 -12 25 -15 137
-16 74 -1 140 3 147 8 7 6 19 6 32 -1 29 -16 56 -13 81 7 22 18 24 18 41 1 15
-15 31 -18 96 -15 43 2 99 4 125 5 l47 1 7 60 c5 48 10 60 24 60 13 0 19 -11
24 -44 9 -60 35 -81 97 -80 60 1 89 23 89 69 0 74 21 121 33 75 3 -11 1 -20
-3 -20 -5 0 -12 -21 -16 -46 -9 -61 9 -79 75 -79 63 0 91 23 91 75 0 21 5 61
10 91 12 65 2 80 -59 82 -39 2 -41 4 -41 33 0 37 -16 54 -50 54 -14 0 -31 -5
-38 -12z m59 -71 c-12 -36 -47 -75 -57 -64 -4 4 -2 13 5 20 6 9 8 27 4 47 -5
26 -2 36 12 47 16 11 21 11 33 -1 12 -11 12 -21 3 -49z m-965 -3 l19 -56 8 43
c6 30 6 44 -2 47 -27 9 -7 22 34 22 42 0 61 -13 33 -22 -16 -6 -50 -229 -37
-243 17 -18 9 -25 -30 -25 -39 0 -61 13 -42 24 5 3 -4 36 -20 74 -16 37 -29
75 -29 85 0 9 -4 17 -8 17 -5 0 -13 -36 -18 -80 -8 -67 -7 -83 5 -95 14 -13 9
-15 -39 -15 -47 1 -52 3 -38 13 20 16 56 239 39 245 -30 10 -4 22 47 22 l59 0
19 -56z m338 0 c-5 -18 -2 -24 10 -24 9 0 16 -8 16 -20 0 -13 -7 -20 -20 -20
-15 0 -20 -7 -20 -27 0 -16 -3 -45 -7 -67 -6 -36 -5 -38 16 -31 23 7 28 -4 9
-23 -16 -16 -53 -15 -67 2 -12 14 -9 78 6 129 3 11 -1 17 -11 17 -23 0 -20 9
9 32 14 11 25 25 25 32 0 16 21 36 32 30 4 -3 5 -16 2 -30z m340 -36 c4 7 16
12 27 12 17 0 20 -6 17 -37 -3 -42 -23 -55 -33 -22 -7 21 -8 21 -20 5 -7 -9
-16 -46 -20 -81 -6 -62 -8 -65 -34 -65 l-27 0 13 77 c9 51 10 79 3 81 -19 7
-10 22 23 35 28 12 33 12 38 -1 4 -11 8 -12 13 -4z m-464 -3 c9 -11 11 -35 7
-80 -5 -55 -4 -63 9 -58 22 8 15 -26 -8 -41 -13 -8 -23 -8 -38 1 -12 8 -21 9
-25 3 -9 -15 -51 -12 -64 4 -7 8 -11 27 -9 43 2 22 13 33 51 52 26 13 47 29
47 37 0 19 -39 18 -46 -1 -4 -8 -13 -15 -21 -15 -12 0 -14 7 -8 27 3 15 12 31
18 35 21 13 74 9 87 -7z m246 -25 c-3 -22 -9 -58 -12 -80 -6 -36 -4 -40 14
-40 17 0 22 10 30 58 6 33 6 58 1 60 -17 7 -9 20 21 32 17 7 33 10 36 8 3 -3
0 -34 -6 -69 -13 -84 -13 -89 5 -83 16 6 19 -4 9 -30 -7 -18 -49 -22 -60 -5
-4 8 -9 8 -17 0 -6 -6 -24 -11 -39 -11 -38 0 -52 35 -40 101 8 41 7 51 -6 58
-12 7 -10 12 14 24 48 27 57 22 50 -23z m418 24 c38 -38 -4 -104 -65 -104 -31
0 -32 -1 -23 -24 7 -18 59 -22 69 -6 9 15 25 12 25 -4 0 -44 -98 -62 -124 -24
-31 44 -12 142 31 167 27 15 70 13 87 -5z m180 10 c18 -7 22 -59 6 -69 -6 -3
-14 5 -20 19 -10 27 -24 33 -36 15 -3 -6 8 -25 25 -43 53 -55 33 -116 -39
-116 -45 0 -58 12 -52 50 5 37 19 39 32 5 5 -14 16 -25 25 -25 23 0 18 34 -10
60 -30 28 -34 84 -7 99 19 12 53 14 76 5z m-678 -76 c-3 -13 -6 -31 -6 -40 0
-10 -7 -18 -15 -18 -16 0 -20 35 -9 64 10 26 37 20 30 -6z m195 -35 c-9 -15
-10 -13 -11 13 0 17 3 34 8 38 11 12 14 -32 3 -51z"/>
<path d="M900 1195 c-14 -16 -5 -54 9 -39 14 15 23 54 13 54 -5 0 -15 -7 -22
-15z"/>
<path d="M1566 1271 c-16 -17 -22 -41 -10 -41 15 0 44 22 44 35 0 23 -16 26
-34 6z"/>
<path d="M304 993 c-10 -22 -18 -443 -9 -489 l6 -34 61 0 61 0 -7 84 c-11 136
22 121 47 -21 l11 -63 199 0 200 0 -6 45 c-4 24 -13 60 -21 80 -17 41 -39 45
-88 15 -39 -24 -58 -12 -58 35 0 39 14 52 60 57 33 3 36 6 49 59 8 31 11 63 8
72 -7 20 -67 23 -98 7 -24 -14 -25 1 0 31 18 22 19 22 44 6 15 -9 35 -17 45
-17 17 0 20 -10 26 -77 9 -103 31 -194 63 -265 24 -55 28 -59 56 -56 32 3 38
10 63 73 l16 40 22 -55 c20 -49 26 -55 54 -58 28 -3 33 1 53 40 12 24 30 68
40 98 l18 55 0 -73 c1 -103 8 -112 81 -112 57 0 60 1 60 25 0 14 -5 45 -12 69
-11 40 -10 47 7 66 10 11 31 20 47 20 33 0 37 -23 13 -90 -8 -23 -15 -53 -15
-66 0 -23 3 -24 61 -24 47 0 65 4 75 18 13 16 13 16 14 0 0 -15 10 -18 61 -18
l62 0 -7 84 c-3 47 -2 87 3 90 12 8 39 -61 47 -123 l7 -51 159 0 c177 0 206 7
234 62 54 104 26 346 -49 426 -36 39 -72 52 -142 52 -61 0 -66 -2 -75 -26 -6
-14 -10 -40 -11 -57 l-1 -32 -7 31 c-4 17 -11 36 -16 43 -16 26 -75 41 -164
41 l-90 0 -10 -37 c-6 -21 -11 -74 -12 -118 l-1 -80 -14 58 c-16 66 -33 102
-70 146 -20 25 -33 31 -64 31 -33 0 -43 -6 -69 -39 -17 -21 -39 -58 -50 -80
l-18 -42 -7 73 c-4 40 -10 76 -15 81 -4 4 -30 7 -57 5 l-49 -3 2 -35 c7 -106
4 -228 -4 -250 -9 -21 -12 -14 -18 51 -4 42 -5 111 -4 155 l4 79 -60 0 -60 0
4 -96 c2 -55 -2 -120 -10 -155 l-13 -59 -8 55 c-4 30 -5 101 -2 158 l6 102
-170 0 c-154 0 -171 -2 -176 -17 -6 -22 -22 -158 -31 -270 l-7 -82 -23 46
c-23 44 -23 46 -5 65 38 41 48 155 18 211 -16 32 -71 47 -167 47 -75 0 -90 -3
-97 -17z m203 -18 c50 -11 71 -123 33 -180 -11 -16 -25 -37 -32 -46 -9 -13 -6
-25 15 -62 26 -44 57 -142 57 -179 0 -15 -8 -18 -45 -18 -43 0 -45 1 -45 29 0
37 -37 158 -51 167 -6 3 -20 -2 -31 -13 -19 -16 -20 -25 -14 -100 l6 -83 -39
0 c-39 0 -40 0 -47 45 -10 71 0 421 13 436 11 14 125 16 180 4z m331 1 c2 -3
-3 -26 -13 -51 -16 -43 -18 -45 -34 -31 -26 24 -77 20 -95 -6 -16 -22 -22 -88
-9 -88 4 0 27 7 51 17 55 21 65 11 48 -47 -13 -42 -16 -45 -44 -43 -44 4 -76
-38 -69 -90 3 -21 11 -44 17 -52 18 -21 63 -18 94 6 20 15 27 17 31 7 15 -41
35 -101 35 -104 0 -2 -54 -4 -120 -4 l-120 0 0 130 c0 116 12 288 25 345 4 18
11 20 101 18 53 -1 99 -4 102 -7z m95 -95 c-5 -105 8 -216 27 -235 6 -6 16 4
27 30 13 29 18 73 20 174 l3 135 35 0 35 0 3 -145 c3 -158 17 -220 42 -187 30
41 44 230 23 317 -2 11 6 15 32 15 l35 0 3 -90 c2 -49 -2 -117 -8 -150 -21
-112 -78 -265 -99 -265 -5 0 -23 33 -39 72 -17 40 -34 74 -39 75 -4 2 -22 -29
-38 -69 -17 -39 -35 -73 -41 -75 -14 -5 -59 102 -79 187 -13 59 -22 300 -11
311 3 2 20 4 39 5 l34 0 -4 -105z m495 86 c29 -31 70 -124 82 -187 11 -58 14
-249 4 -274 -4 -11 -19 -16 -51 -16 -39 0 -44 2 -38 18 4 9 14 45 22 79 13 51
13 66 3 78 -27 32 -112 9 -130 -36 -10 -24 -9 -38 4 -78 9 -27 16 -52 16 -55
0 -3 -18 -6 -40 -6 -34 0 -42 4 -50 26 -26 67 0 278 45 364 21 40 84 110 99
110 7 0 22 -10 34 -23z m329 8 c29 -7 53 -54 53 -105 0 -45 -11 -72 -43 -108
l-21 -22 32 -63 c29 -60 51 -131 52 -169 0 -15 -9 -18 -45 -18 -43 0 -45 1
-45 29 0 37 -37 158 -51 167 -6 3 -20 -2 -31 -13 -19 -16 -20 -26 -15 -100 l6
-83 -39 0 c-38 0 -39 0 -46 45 -10 71 0 421 13 436 11 14 125 16 180 4z m283
-35 c55 -55 75 -122 75 -250 0 -92 -3 -110 -23 -141 -29 -48 -63 -61 -153 -57
l-74 3 -8 100 c-7 94 4 362 16 381 3 5 33 7 67 6 56 -4 65 -7 100 -42z m-210
-221 l0 -82 -25 48 -26 48 21 22 c11 11 20 27 20 33 0 7 2 12 5 12 3 0 5 -37
5 -81z"/>
<path d="M402 897 c-6 -7 -14 -39 -18 -70 -6 -49 -4 -58 11 -63 13 -5 28 4 57
34 39 42 48 78 26 100 -16 16 -63 15 -76 -1z m56 -33 c2 -11 -8 -30 -23 -44
l-25 -23 0 34 c0 53 41 81 48 33z"/>
<path d="M1362 858 c-20 -34 -47 -107 -40 -112 1 -2 29 2 62 8 l58 11 -5 38
c-5 39 -31 87 -46 87 -5 0 -18 -15 -29 -32z m52 -54 c6 -19 2 -22 -27 -26 -34
-4 -34 -3 -24 22 6 14 15 31 21 38 11 15 18 7 30 -34z"/>
<path d="M1650 895 c-6 -8 -14 -41 -17 -75 -5 -55 -4 -60 14 -60 27 0 93 74
93 103 0 13 -5 28 -12 35 -17 17 -63 15 -78 -3z m58 -31 c2 -11 -8 -30 -23
-44 l-25 -23 0 34 c0 53 41 81 48 33z"/>
<path d="M1941 891 c-16 -28 -14 -260 2 -291 30 -59 93 -13 103 76 15 124 -66
289 -105 215z m60 -65 c26 -58 26 -175 0 -207 -32 -39 -45 -13 -49 97 -4 107
3 168 20 158 5 -4 19 -25 29 -48z"/>
<path d="M6 648 c60 -341 252 -578 517 -642 56 -13 23 15 -43 37 -160 54 -278
162 -363 332 -43 86 -65 151 -81 234 -7 36 -17 66 -24 69 -8 2 -10 -6 -6 -30z"/>
<path d="M2466 651 c-39 -43 -12 -131 40 -131 30 0 54 36 54 81 0 61 -57 91
-94 50z m75 -27 c5 -15 6 -36 2 -48 -6 -17 -8 -14 -13 19 -4 32 -10 41 -27 43
-21 3 -23 -1 -23 -42 0 -45 15 -64 22 -28 3 14 5 12 10 -6 5 -19 3 -23 -14
-20 -28 4 -44 51 -29 84 15 34 58 33 72 -2z"/>
</g>
</svg>
