<?xml version="1.0" standalone="no"?>
<!DOCTYPE svg PUBLIC "-//W3C//DTD SVG 20010904//EN"
 "http://www.w3.org/TR/2001/REC-SVG-20010904/DTD/svg10.dtd">
<svg version="1.0" xmlns="http://www.w3.org/2000/svg"
 width="300.000000pt" height="251.000000pt" viewBox="0 0 300.000000 251.000000"
 preserveAspectRatio="xMidYMid meet">
<metadata>
Created by potrace 1.16, written by Peter Selinger 2001-2019
</metadata>
<g transform="translate(0.000000,251.000000) scale(0.100000,-0.100000)"
fill="#000000" stroke="none">
<path d="M1330 2343 l0 -168 130 0 c72 0 130 1 130 2 0 1 -37 39 -82 83 l-83
81 88 -3 c48 -2 87 -1 87 2 0 3 -24 19 -53 36 -28 17 -89 54 -134 82 l-83 52
0 -167z m34 105 c-4 -6 -2 -8 4 -5 5 4 18 4 28 0 16 -6 16 -7 -2 -14 -34 -13
-44 -10 -44 17 0 14 4 23 10 19 6 -4 7 -11 4 -17z m51 -48 c3 -5 13 -6 22 -3
11 4 14 2 11 -8 -7 -21 -55 -35 -75 -23 -22 14 -29 36 -10 28 8 -3 18 -1 22 5
8 14 22 14 30 1z m65 -19 c0 -5 10 -12 23 -14 14 -3 8 -5 -15 -6 -29 -1 -36 2
-32 14 7 16 24 21 24 6z m-80 -49 c-14 -2 -31 -9 -37 -14 -10 -8 -13 -5 -13 9
0 16 5 18 38 14 30 -4 32 -6 12 -9z m24 -38 c22 -21 20 -41 -5 -55 -16 -8 -27
-8 -44 1 -25 13 -27 29 -6 54 17 20 35 20 55 0z m76 -66 c0 -4 -12 -9 -27 -10
-19 -1 -13 -3 17 -8 36 -6 28 -7 -47 -8 -83 -2 -93 0 -92 16 0 10 3 12 6 5 2
-7 22 -13 43 -13 32 0 39 4 50 30 12 29 14 30 31 14 11 -10 19 -21 19 -26z"/>
<path d="M1093 2470 c-13 -5 -23 -14 -23 -20 0 -5 -8 -10 -18 -10 -23 0 -72
-22 -72 -33 0 -4 7 -10 15 -13 16 -7 21 -24 6 -24 -6 0 -26 -10 -47 -22 -43
-25 -84 -32 -84 -14 0 17 -47 39 -55 26 -4 -6 -14 -10 -25 -10 -10 0 -20 -7
-24 -15 -3 -8 -17 -15 -31 -15 -14 0 -25 -4 -25 -10 0 -5 -9 -10 -20 -10 -11
0 -20 -5 -20 -11 0 -6 9 -13 20 -16 30 -8 24 -16 -32 -43 -28 -13 -57 -35 -66
-48 -9 -13 -21 -21 -29 -17 -9 3 -17 -2 -20 -13 -3 -12 -15 -19 -36 -20 -18
-2 -33 -7 -35 -12 -2 -6 -12 -10 -23 -10 -25 0 -24 -16 1 -32 24 -15 26 -28 5
-28 -36 0 -135 -83 -135 -112 0 -11 75 -1 102 13 9 5 26 5 39 1 21 -8 21 -9
-11 -34 -18 -14 -40 -24 -47 -21 -8 3 -16 -2 -19 -13 -3 -13 -15 -20 -36 -21
-17 -1 -35 -8 -39 -15 -5 -7 -16 -13 -25 -13 -26 0 -29 -25 -5 -32 26 -7 27
-15 2 -28 -79 -42 -102 -59 -121 -90 -12 -20 -20 -38 -17 -41 7 -7 99 15 115
28 10 9 16 8 22 -1 4 -8 13 -10 19 -7 21 14 11 -16 -13 -35 -13 -10 -29 -33
-35 -51 -7 -18 -17 -42 -23 -52 -8 -16 -6 -23 11 -37 23 -19 27 -29 10 -29
-25 0 -129 -73 -148 -104 -12 -18 -21 -37 -21 -41 0 -12 87 3 120 20 17 9 30
11 30 5 0 -5 9 -10 20 -10 11 0 20 -4 20 -10 0 -5 -4 -10 -10 -10 -5 0 -23
-19 -40 -42 -24 -32 -30 -51 -30 -90 0 -26 4 -48 9 -48 14 0 94 82 108 110 7
14 17 37 23 53 11 30 30 36 30 10 1 -10 7 -35 14 -55 14 -40 5 -61 -22 -51 -8
4 -20 -1 -27 -11 -7 -9 -17 -16 -21 -15 -22 4 -34 -2 -34 -16 0 -18 34 -37 54
-29 9 3 16 1 16 -6 0 -6 -4 -8 -10 -5 -5 3 -10 1 -10 -4 0 -6 -7 -11 -16 -11
-49 0 -174 -106 -174 -148 0 -19 84 1 153 36 4 2 7 -3 7 -11 0 -10 7 -13 20
-10 28 7 25 -11 -5 -31 -39 -25 -67 -89 -63 -144 l3 -47 61 60 c41 40 66 75
75 104 20 59 35 62 44 9 8 -50 41 -129 58 -140 9 -6 8 -11 -4 -18 -21 -12 -61
-78 -51 -84 10 -6 98 11 123 25 14 7 24 8 31 1 6 -6 17 -8 24 -5 9 3 14 -2 14
-12 0 -14 -6 -16 -27 -10 -21 5 -25 4 -16 -5 8 -9 5 -21 -13 -47 -13 -20 -24
-44 -24 -54 0 -20 -10 -24 -25 -11 -6 5 -39 19 -75 32 -83 29 -160 61 -160 66
0 3 6 14 13 25 10 18 9 23 -3 27 -8 3 -53 24 -100 48 -46 23 -86 41 -87 40 -3
-2 38 -95 57 -128 8 -14 -1 -19 -59 -37 -38 -12 -76 -21 -85 -21 -9 0 -16 -4
-16 -10 0 -5 8 -10 18 -10 35 -1 147 -58 148 -77 1 -10 2 -23 3 -29 1 -10 151
-86 225 -114 22 -8 26 -14 18 -22 -35 -35 -6 -64 136 -136 175 -89 356 -152
541 -186 112 -21 571 -22 717 -1 227 32 448 97 618 181 165 82 182 96 177 150
-1 17 17 29 104 69 110 50 127 63 129 96 1 15 21 29 83 57 45 20 83 39 83 43
0 3 -34 11 -75 18 -42 8 -77 17 -80 20 -2 4 7 37 20 74 13 37 21 67 19 67 -2
0 -42 -19 -89 -42 -77 -38 -102 -58 -75 -58 40 0 -45 -47 -245 -136 -22 -10
-43 -20 -47 -22 -5 -2 -8 9 -8 25 0 16 -6 38 -14 49 -13 17 -12 22 6 41 22 24
11 31 -20 14 -12 -6 -24 -3 -41 10 -13 11 -21 23 -17 26 4 4 11 1 16 -7 8 -13
11 -13 26 2 14 14 21 14 48 3 17 -7 48 -15 69 -18 45 -7 47 4 12 55 l-25 37
20 33 c11 18 25 59 31 91 7 32 16 56 22 54 5 -1 18 -26 29 -54 13 -37 35 -67
76 -104 l57 -52 3 46 c4 54 -25 118 -63 143 -30 19 -33 38 -6 31 11 -3 22 1
25 8 4 10 13 9 43 -5 47 -22 113 -33 113 -18 0 42 -125 148 -174 148 -9 0 -16
5 -16 11 0 5 -4 7 -10 4 -5 -3 -10 -1 -10 5 0 7 7 9 16 6 20 -8 54 11 54 29 0
14 -12 20 -34 16 -4 -1 -14 6 -21 15 -7 10 -19 15 -28 11 -9 -3 -19 -2 -22 3
-3 5 -13 6 -22 3 -13 -5 -15 -3 -8 13 4 10 13 40 19 66 6 25 14 50 18 54 4 4
17 -15 28 -42 19 -44 113 -154 132 -154 14 0 8 81 -8 116 -9 19 -29 45 -45 58
-34 29 -36 36 -9 36 11 0 20 5 20 10 0 6 13 4 30 -5 38 -20 120 -36 120 -23 0
16 -27 62 -46 80 -11 9 -50 33 -89 53 -38 20 -63 35 -54 32 17 -6 59 18 59 32
0 5 -9 11 -20 14 -12 3 -20 14 -20 27 0 27 -35 86 -55 94 -8 3 -15 9 -15 15 0
17 42 20 82 5 44 -15 88 -19 88 -6 0 19 -63 79 -106 102 -27 14 -51 26 -53 27
-2 1 7 12 20 23 20 16 22 21 9 29 -8 5 -18 7 -23 4 -5 -3 -13 1 -18 8 -4 8
-14 14 -21 15 -7 0 -21 2 -30 2 -10 1 -18 9 -18 17 0 9 -9 15 -22 15 -24 1
-58 21 -58 35 0 4 6 5 14 2 8 -3 16 -1 18 5 3 8 10 8 25 0 36 -20 103 -31 103
-18 0 31 -100 116 -136 116 -21 0 -17 17 6 23 11 3 20 13 20 22 0 12 -6 16
-19 12 -12 -3 -22 1 -25 10 -3 7 -11 13 -18 12 -31 -4 -48 2 -48 16 0 8 -8 15
-18 15 -10 0 -30 12 -45 28 -14 15 -43 36 -64 47 -21 10 -40 21 -42 22 -3 2 4
9 14 17 20 15 12 38 -10 29 -8 -3 -15 0 -15 6 0 6 -8 11 -18 11 -11 0 -27 9
-37 20 -10 11 -22 17 -27 14 -5 -3 -15 -1 -22 5 -14 11 -60 -14 -52 -28 10
-15 -61 -5 -87 12 -14 9 -31 17 -37 17 -15 0 -12 20 5 26 22 9 18 24 -5 24
-11 0 -20 5 -20 10 0 6 -11 10 -25 10 -14 0 -25 5 -25 10 0 6 -12 15 -27 21
-36 13 -75 -3 -66 -27 5 -14 3 -15 -14 -6 -26 14 -57 -16 -72 -72 -9 -35 -8
-41 17 -65 26 -27 27 -28 12 -69 -19 -56 -5 -64 36 -19 19 20 36 37 38 37 2 0
1 -22 -2 -50 -3 -33 -1 -50 6 -50 18 0 43 46 49 90 7 51 19 51 39 0 16 -39 65
-90 86 -90 6 0 8 11 4 26 l-7 26 29 -23 c26 -22 27 -26 15 -49 -7 -14 -13 -38
-13 -53 l0 -28 30 23 c16 12 32 30 36 40 11 37 21 16 16 -37 -4 -44 -2 -55 11
-55 17 0 46 56 54 106 7 44 15 43 35 -3 11 -26 15 -53 11 -84 -5 -46 4 -65 45
-88 12 -7 13 -12 4 -23 -15 -19 -27 -98 -14 -98 5 0 26 18 46 40 20 22 37 40
39 40 1 0 1 -40 0 -88 -3 -83 -1 -91 21 -115 14 -15 30 -27 36 -27 24 0 -23
-48 -69 -70 l-49 -23 -44 35 c-24 19 -82 63 -130 97 -48 34 -124 96 -170 138
-143 131 -170 147 -308 188 -155 46 -173 49 -196 37 -11 -6 -67 -46 -125 -90
-149 -111 -193 -134 -369 -191 -113 -37 -183 -67 -259 -111 -57 -33 -107 -57
-112 -54 -12 7 -11 24 1 24 6 0 20 9 32 20 23 21 34 85 18 95 -16 10 -12 25 5
19 19 -8 29 34 20 84 l-6 37 31 -38 c17 -20 41 -42 52 -48 20 -11 21 -9 14 32
-4 24 -12 49 -17 56 -8 9 -3 19 21 40 30 24 32 30 27 72 -5 44 11 121 24 121
4 0 12 -21 18 -47 13 -52 36 -93 51 -93 6 0 10 26 10 57 l0 57 36 -42 c20 -23
39 -40 44 -37 8 5 -2 63 -14 83 -3 5 8 24 24 42 l30 32 -7 -32 -6 -33 32 24
c36 26 71 77 71 103 0 34 18 14 30 -31 22 -93 68 -113 56 -25 l-6 45 37 -39
38 -38 3 26 c2 15 -2 36 -8 48 -10 18 -7 24 14 41 29 23 33 53 13 102 -18 42
-44 64 -59 49 -9 -9 -14 -6 -22 11 -13 25 -31 30 -63 17z m34 -26 c-3 -3 -12
-4 -19 -1 -8 3 -5 6 6 6 11 1 17 -2 13 -5z m720 0 c-3 -3 -12 -4 -19 -1 -8 3
-5 6 6 6 11 1 17 -2 13 -5z m-704 -25 c-6 -6 -9 -18 -5 -27 5 -14 3 -14 -17 0
-20 14 -26 14 -52 1 -33 -17 -35 -21 -13 -51 15 -21 42 -32 29 -12 -4 6 -1 19
7 28 12 15 11 16 -5 3 -14 -11 -21 -11 -29 -3 -9 9 -8 12 5 12 9 0 17 5 17 10
0 12 10 13 29 1 12 -8 12 -12 2 -25 -10 -11 -10 -16 -2 -16 6 0 14 7 17 15 8
19 24 19 24 0 0 -8 -13 -21 -29 -30 -16 -8 -31 -20 -34 -27 -3 -10 -10 -8 -26
7 -17 15 -24 16 -30 7 -6 -10 -11 -10 -21 2 -7 9 -16 13 -21 10 -5 -3 -9 -1
-9 4 0 6 7 12 15 16 8 3 15 1 15 -4 0 -6 5 -10 11 -10 6 0 8 8 4 18 -9 29 42
75 77 70 18 -3 29 1 33 10 3 8 8 12 12 8 4 -3 2 -11 -4 -17z m672 11 c3 -5 1
-10 -4 -10 -6 0 -11 5 -11 10 0 6 2 10 4 10 3 0 8 -4 11 -10z m-645 -20 c0 -5
-5 -10 -11 -10 -5 0 -7 5 -4 10 3 6 8 10 11 10 2 0 4 -4 4 -10z m652 -2 c18
18 42 14 72 -9 18 -14 26 -28 23 -40 -6 -21 12 -37 22 -21 4 7 12 8 21 2 13
-8 13 -10 -2 -10 -9 0 -19 -6 -21 -12 -4 -10 -8 -9 -16 2 -8 12 -14 11 -35
-10 -15 -13 -26 -18 -26 -12 0 6 -13 19 -30 29 -16 9 -30 23 -30 30 0 18 10
16 27 -4 13 -17 14 -16 8 4 -7 24 10 39 28 25 18 -13 47 -22 47 -14 0 4 -13
14 -29 24 -26 14 -32 14 -50 1 -12 -8 -21 -11 -21 -6 0 4 -7 0 -15 -10 -7 -11
-11 -25 -9 -32 3 -7 0 -16 -6 -20 -14 -9 -40 13 -40 32 0 13 2 13 17 2 15 -12
16 -12 10 4 -5 13 0 20 16 27 12 5 16 9 10 9 -7 1 -13 6 -13 12 0 8 5 7 15 -1
12 -10 19 -10 27 -2z m-637 -38 c-22 -24 -9 -27 17 -3 18 16 18 16 11 -3 -15
-42 -43 -54 -49 -21 -1 7 -6 21 -10 31 -6 16 -4 18 14 14 16 -5 19 -2 15 11
-5 13 -3 14 7 4 11 -10 10 -16 -5 -33z m583 28 c-2 -6 -10 -14 -16 -16 -7 -2
-10 2 -6 12 7 18 28 22 22 4z m355 -65 c-34 -7 -18 -30 17 -25 23 3 36 -3 61
-28 21 -20 28 -34 21 -39 -8 -4 -8 -11 -1 -21 8 -11 12 -12 16 -2 6 14 33 16
33 2 0 -5 -4 -10 -10 -10 -18 0 -48 -33 -43 -46 3 -8 0 -14 -6 -14 -6 0 -11 9
-11 20 0 11 5 20 10 20 6 0 10 5 10 10 0 16 -14 12 -38 -10 -25 -24 -32 -25
-32 -6 0 8 -8 17 -17 20 -14 6 -15 9 -4 15 10 6 10 13 2 29 -15 28 12 37 45
16 13 -9 27 -14 30 -11 4 3 -9 15 -27 26 -31 19 -35 19 -58 4 -21 -13 -23 -13
-18 0 3 8 1 19 -5 25 -15 15 -1 32 25 31 l22 -2 -22 -4z m-1276 -22 c3 -12 11
-17 19 -14 8 3 14 0 14 -6 0 -19 -32 -12 -37 8 -3 11 -15 22 -27 24 -20 4 -20
4 2 6 16 1 26 -6 29 -18z m338 3 c17 4 24 3 20 -4 -3 -5 -13 -10 -20 -10 -9 0
-12 -6 -9 -15 9 -23 -23 -18 -36 5 -12 23 -3 50 10 30 5 -8 18 -10 35 -6z
m626 -17 c-5 -12 -18 -24 -31 -25 -15 -3 -20 0 -15 8 4 6 -1 17 -11 24 -15 11
-13 12 14 8 21 -3 32 0 32 7 0 7 4 10 10 6 5 -3 6 -15 1 -28z m-680 -15 c12
-31 -3 -28 -18 4 -8 17 -8 24 -1 22 6 -2 15 -14 19 -26z m709 20 c0 -5 -7 -17
-16 -28 -14 -17 -15 -17 -10 -1 3 10 6 23 6 28 0 5 5 9 10 9 6 0 10 -4 10 -8z
m182 -17 c-2 -14 -6 -25 -8 -25 -2 0 -4 11 -4 25 0 14 4 25 9 25 4 0 6 -11 3
-25z m64 14 c4 -7 1 -10 -7 -7 -8 3 -19 -2 -26 -11 -6 -9 -15 -12 -20 -8 -4 5
1 15 11 23 24 17 33 18 42 3z m-1252 -14 c11 -8 17 -18 13 -21 -4 -4 -13 -1
-21 5 -16 14 -71 6 -82 -10 -10 -17 1 -19 27 -5 35 18 50 10 43 -22 l-6 -27
20 24 c16 20 20 21 25 8 4 -11 -5 -23 -28 -37 -18 -11 -35 -26 -37 -32 -3 -8
-13 -4 -28 10 -13 12 -27 22 -30 22 -16 0 -2 54 19 76 26 27 57 30 85 9z m100
-2 c4 -9 1 -21 -5 -27 -9 -8 -10 -8 -5 2 4 7 2 19 -4 27 -7 9 -8 15 -2 15 5 0
13 -8 16 -17z m86 -4 c0 -6 -7 -12 -16 -16 -8 -3 -20 -17 -26 -32 l-11 -26 -8
35 c-6 26 -4 38 7 46 16 13 54 7 54 -7z m30 12 c0 -6 -4 -13 -10 -16 -5 -3
-10 1 -10 9 0 9 5 16 10 16 6 0 10 -4 10 -9z m937 -37 c-1 -37 -12 -45 -22
-15 -3 11 -12 22 -20 25 -20 7 -19 24 3 28 30 7 40 -2 39 -38z m-1086 7 c-11
-7 -10 -11 5 -19 18 -11 18 -12 -2 -32 -18 -19 -22 -19 -34 -6 -11 14 -9 16 9
16 11 0 21 5 21 10 0 6 -8 10 -17 8 -10 -2 -19 4 -21 15 -2 10 3 17 12 17 9 0
16 5 16 12 0 9 3 9 12 0 10 -10 10 -15 -1 -21z m1189 12 c0 -5 -5 -15 -10 -23
-7 -11 -12 -12 -21 -3 -6 6 -8 16 -5 22 8 12 36 15 36 4z m26 -51 c-10 -10
-29 15 -21 28 6 9 10 8 17 -4 6 -10 7 -20 4 -24z m-60 13 c28 -15 29 -15 7
-21 -13 -4 -23 -10 -23 -15 0 -13 34 -11 48 3 17 17 24 4 13 -26 -7 -17 -18
-26 -32 -26 -15 0 -19 5 -15 15 3 9 0 15 -8 15 -18 0 -28 27 -13 34 9 5 9 7 0
12 -12 5 -19 24 -9 24 2 0 17 -7 32 -15z m-1346 -25 c0 -5 10 -18 22 -30 17
-16 19 -23 10 -32 -9 -9 -12 -9 -12 3 0 16 -34 49 -51 49 -5 0 -7 5 -4 10 8
13 35 13 35 0z m190 -22 c14 8 20 9 20 1 0 -6 -9 -13 -19 -16 -12 -3 -17 -11
-14 -19 3 -9 -2 -14 -16 -14 -12 0 -21 6 -21 14 0 8 -5 18 -11 22 -8 4 -9 -4
-5 -27 l7 -34 -16 28 c-15 27 -15 30 1 42 14 9 22 10 36 1 14 -8 23 -8 38 2z
m1227 -23 c-7 -14 -15 -25 -19 -25 -11 0 -10 8 2 31 16 28 30 23 17 -6z m180
-12 c7 -18 -2 -27 -19 -17 -7 5 -22 8 -32 9 -25 0 -32 22 -9 27 27 6 54 -3 60
-19z m-1588 1 c10 -8 -13 -24 -29 -19 -10 3 -21 1 -25 -5 -9 -15 -25 -12 -25
5 0 27 55 40 79 19z m1626 6 c3 -5 16 -10 28 -11 21 0 21 -1 -3 -12 -14 -6
-33 -20 -42 -30 -9 -10 -22 -16 -27 -12 -17 10 -13 25 4 19 14 -6 19 6 18 44
-1 14 13 16 22 2z m-1715 -9 c0 -19 -27 -31 -51 -22 l-24 10 23 0 c12 1 22 6
22 11 0 6 7 10 15 10 8 0 15 -4 15 -9z m-9 -45 c-7 -8 -10 -19 -7 -24 3 -5 -3
-17 -14 -27 -11 -10 -20 -25 -20 -34 0 -12 5 -10 18 7 18 23 32 21 32 -5 0 -7
-6 -13 -12 -13 -17 -1 -58 -35 -58 -49 0 -6 -4 -11 -10 -11 -5 0 -10 4 -10 8
0 4 -14 16 -31 26 -23 14 -27 21 -19 31 8 9 8 14 -1 17 -9 3 -8 9 1 25 20 31
68 56 95 49 16 -4 25 -1 29 11 4 9 9 13 13 10 3 -4 0 -13 -6 -21z m1639 5 c0
-6 -5 -13 -11 -16 -6 -4 -8 -13 -5 -21 3 -8 1 -14 -4 -14 -11 0 -14 43 -3 53
9 10 23 8 23 -2z m195 -2 c3 -4 -5 -5 -17 -2 -21 4 -22 3 -5 -10 30 -25 19
-38 -15 -18 -33 18 -57 17 -70 -3 -4 -6 -10 -7 -14 -3 -4 4 1 15 10 26 12 14
30 19 62 18 25 0 47 -4 49 -8z m-1935 -3 c0 -2 -7 -7 -16 -10 -8 -3 -12 -2 -9
4 6 10 25 14 25 6z m140 -6 c0 -5 -7 -10 -16 -10 -8 0 -12 5 -9 10 3 6 10 10
16 10 5 0 9 -4 9 -10z m58 -23 c2 -15 -1 -27 -5 -27 -17 0 -48 28 -40 36 4 4
14 -1 22 -12 17 -22 20 -11 4 18 -9 16 -8 19 3 16 7 -3 14 -17 16 -31z m1559
4 c-4 -17 -2 -18 14 -8 24 15 34 4 20 -22 -11 -19 -12 -20 -31 -4 -22 19 -27
53 -9 53 6 0 9 -9 6 -19z m-1611 -37 c-4 -14 -2 -24 4 -24 5 0 10 5 10 10 0 6
8 10 17 10 14 0 12 -4 -7 -25 -27 -29 -44 -28 -46 2 -1 11 -4 25 -8 32 -10 16
2 31 20 24 11 -4 14 -13 10 -29z m1736 24 c2 -6 18 -11 34 -11 27 0 31 -4 31
-29 0 -15 -5 -28 -12 -28 -6 0 -21 -9 -33 -20 -25 -23 -32 -25 -32 -7 0 7 -15
21 -34 31 -28 15 -37 16 -54 5 -18 -11 -24 -10 -42 6 -13 12 -17 22 -11 28 6
6 16 4 26 -7 21 -20 20 -20 44 5 l19 21 16 -29 c8 -15 15 -21 15 -13 1 8 -4
22 -9 30 -7 11 -5 17 8 22 25 10 30 9 34 -4z m-902 -13 c11 -13 10 -14 -4 -9
-9 3 -16 1 -16 -5 0 -8 -6 -8 -19 1 -21 13 -50 -3 -131 -71 -36 -30 -80 -49
-80 -34 1 8 57 53 133 106 44 30 97 36 117 12z m60 -15 c12 -8 11 -10 -7 -10
-12 0 -25 5 -28 10 -8 13 15 13 35 0z m697 -40 c7 0 13 -4 13 -10 0 -16 38
-12 48 6 8 14 10 14 21 0 8 -9 19 -16 27 -16 10 0 9 -7 -4 -29 -19 -35 -35
-31 -22 4 12 31 -2 33 -15 3 -12 -27 -41 -31 -39 -5 1 9 -4 17 -11 17 -15 0
-55 47 -54 64 0 6 5 1 11 -11 6 -13 17 -23 25 -23z m-1536 3 c-8 -15 -10 -15
-11 -2 0 17 10 32 18 25 2 -3 -1 -13 -7 -23z m742 12 c9 -8 17 -20 19 -26 3
-8 26 -12 61 -12 l56 0 -19 -25 c-11 -14 -20 -31 -20 -38 0 -8 -5 -14 -10 -14
-7 0 -7 7 1 21 17 34 -2 45 -50 29 -59 -19 -68 -59 -13 -61 21 -1 18 -4 -18
-14 -25 -8 -58 -17 -74 -22 -34 -10 -56 -38 -41 -52 6 -6 54 -4 129 6 97 13
120 20 123 34 3 10 11 15 18 13 16 -6 85 34 85 50 0 7 -4 16 -9 22 -6 5 7 9
36 9 41 -1 53 -7 115 -59 l70 -58 -38 -24 c-22 -13 -46 -26 -54 -29 -52 -21
-65 -33 -73 -69 -13 -51 1 -64 44 -40 24 14 33 16 36 7 7 -20 23 -15 49 12 13
14 32 25 44 25 24 0 28 31 6 49 -8 7 -12 21 -9 31 5 18 9 17 52 -18 54 -45
204 -153 232 -167 10 -5 19 -12 19 -16 0 -3 -28 -17 -62 -31 -35 -14 -85 -35
-113 -47 -27 -11 -68 -25 -91 -31 -23 -6 -61 -27 -87 -50 -40 -35 -51 -40 -95
-40 -40 0 -57 -6 -82 -26 -17 -15 -29 -32 -27 -38 3 -7 -13 -11 -45 -11 -32 0
-52 -5 -58 -15 -7 -12 -22 -2 -72 52 -96 103 -154 118 -241 61 -53 -34 -40
-40 19 -9 53 28 83 32 117 15 29 -15 127 -110 127 -124 0 -5 -14 -18 -30 -27
-17 -9 -30 -22 -30 -28 0 -6 14 -2 31 11 66 47 163 58 249 29 85 -29 147 -28
247 3 79 25 108 29 183 24 30 -2 36 2 49 28 8 17 24 42 37 58 13 15 21 34 18
42 -4 10 0 15 13 15 11 0 28 9 37 19 10 11 25 17 37 14 15 -4 18 -2 13 11 -7
19 15 47 61 79 17 11 27 17 22 12 -4 -5 3 -19 15 -32 19 -21 20 -23 3 -23 -10
0 -24 8 -31 18 -13 16 -15 15 -35 -7 -11 -14 -18 -33 -16 -42 3 -10 -1 -20 -8
-23 -11 -4 -11 -11 -3 -34 7 -17 17 -28 24 -25 6 2 14 -2 17 -9 2 -8 18 -13
33 -12 27 1 29 4 29 40 0 29 4 39 18 42 9 2 17 -1 17 -5 0 -5 7 -18 16 -29 15
-19 15 -19 11 1 -3 11 -8 27 -12 37 -11 26 28 32 69 9 22 -13 38 -16 42 -10 4
6 11 6 20 -2 15 -12 9 -33 -7 -24 -13 9 -11 -9 3 -23 9 -9 7 -13 -8 -19 -10
-4 -25 -13 -32 -19 -14 -15 -65 -2 -95 24 -21 19 -35 8 -17 -13 8 -10 9 -15 1
-15 -6 0 -11 -8 -11 -19 0 -25 -25 -45 -50 -38 -13 3 -20 0 -20 -8 0 -7 -3
-22 -6 -32 -5 -15 -3 -15 13 3 20 23 53 38 53 25 0 -5 -18 -27 -40 -49 -47
-47 -52 -62 -10 -30 17 12 30 28 30 35 0 7 5 13 10 13 6 0 10 -6 9 -12 -1 -7
-1 -24 0 -37 1 -23 2 -24 21 -6 21 19 19 21 35 -30 5 -15 -11 -22 -17 -7 -1 5
-20 7 -40 4 -21 -2 -35 -8 -32 -13 3 -5 -1 -16 -10 -24 -16 -17 -46 -10 -46
10 0 20 -39 6 -52 -19 -7 -11 -11 -27 -9 -35 1 -8 -3 -18 -11 -22 -11 -7 -11
-12 0 -29 7 -11 10 -26 6 -32 -5 -7 -2 -9 9 -5 8 3 20 0 26 -6 15 -19 63 -13
71 7 6 17 7 17 20 0 12 -13 12 -18 3 -21 -7 -3 -13 -12 -13 -22 0 -23 -20 -41
-45 -41 -31 0 -37 11 -18 32 20 23 6 24 -19 1 -15 -13 -21 -14 -31 -4 -9 9 -9
14 3 21 8 5 11 12 7 16 -3 4 -13 1 -22 -6 -12 -10 -16 -8 -25 16 -8 21 -8 29
2 36 10 6 10 10 -2 18 -13 9 -13 12 3 24 12 9 14 16 7 21 -6 4 0 20 17 45 32
45 64 52 87 18 9 -12 19 -18 23 -14 5 4 -4 18 -19 29 -23 19 -26 28 -22 57 3
19 16 54 30 78 13 24 18 42 11 40 -16 -6 -57 -87 -57 -115 0 -13 -19 -41 -45
-67 -25 -25 -45 -54 -45 -65 0 -11 -4 -22 -9 -26 -5 -3 -8 -18 -6 -33 2 -15 4
-33 4 -40 1 -16 58 -72 73 -72 9 0 9 -3 1 -11 -7 -7 -17 -8 -25 -3 -13 8 -18
10 -50 12 -10 1 -18 9 -18 17 0 8 -6 16 -12 17 -7 0 -17 2 -23 2 -22 3 -35 18
-35 41 0 17 -8 26 -31 34 -41 14 -66 14 -71 0 -6 -17 -87 -22 -117 -9 -14 7
-40 19 -58 27 -32 16 -89 11 -78 -7 3 -5 1 -11 -5 -15 -5 -3 -10 0 -10 8 0 20
-27 29 -50 17 -14 -7 -23 -4 -41 14 -21 21 -30 23 -70 17 l-47 -7 2 30 c1 30
0 31 -44 29 -24 -1 -47 1 -50 5 -3 4 -18 14 -34 22 -16 8 -38 32 -49 53 -25
49 -54 63 -99 48 -31 -11 -34 -10 -64 24 -18 21 -46 40 -68 46 -21 6 -60 26
-86 45 -26 19 -52 34 -58 34 -5 0 -15 13 -20 29 -9 25 -17 31 -54 36 -79 12
-128 -5 -128 -44 -1 -25 -1 -25 -15 -7 -14 18 -9 24 80 89 52 38 95 76 95 84
0 31 -34 22 -129 -36 -55 -34 -104 -61 -107 -61 -13 0 -146 -92 -140 -97 3 -3
11 -1 18 4 7 6 49 30 93 53 44 24 110 62 146 85 93 60 110 69 103 53 -5 -13
-160 -125 -195 -142 -21 -10 -25 -26 -6 -26 6 0 20 -15 30 -32 18 -31 19 -32
33 -13 8 10 14 32 14 48 0 23 3 27 19 22 11 -3 22 -1 26 5 3 6 12 7 18 3 7 -5
19 -8 27 -9 8 -1 23 -2 32 -3 10 0 19 -13 23 -31 4 -16 13 -30 21 -30 18 0 51
-19 84 -46 14 -12 41 -25 60 -29 32 -6 99 -66 100 -87 0 -11 30 -10 30 1 0 12
41 21 68 14 13 -3 22 -13 22 -24 0 -11 4 -19 10 -19 5 0 7 -7 4 -15 -4 -10 0
-15 10 -15 9 0 19 -7 22 -15 3 -8 15 -17 27 -21 12 -4 27 -13 35 -20 18 -18
27 -18 47 2 24 24 40 4 27 -33 l-10 -29 54 0 c30 1 54 4 54 9 0 4 5 7 10 7 6
0 10 -7 10 -15 0 -8 4 -15 10 -15 5 0 16 -13 25 -30 19 -36 40 -40 31 -6 -4
15 0 28 9 36 12 10 15 9 15 -8 0 -26 39 -50 50 -31 5 7 6 18 3 26 -6 15 32 19
42 4 3 -5 19 -12 36 -16 17 -4 33 -13 36 -21 3 -9 13 -12 25 -8 11 3 36 6 56
6 20 0 41 6 47 13 6 8 22 11 43 8 29 -5 33 -9 27 -27 -3 -11 -10 -45 -14 -75
-7 -48 -5 -58 16 -90 15 -21 22 -43 19 -56 -3 -11 -6 -27 -6 -35 0 -8 -4 -21
-9 -29 -8 -12 -13 -12 -24 -3 -11 9 -22 10 -42 2 -15 -6 -31 -7 -36 -4 -11 6
-39 -13 -39 -28 0 -5 10 -6 21 -3 20 7 21 4 15 -21 -4 -16 -10 -51 -13 -78
l-6 -49 31 22 c17 12 34 26 37 31 9 15 25 12 19 -3 -2 -7 -22 -23 -43 -36 -23
-15 -54 -49 -77 -87 -21 -35 -47 -66 -56 -69 -10 -4 -18 -10 -18 -14 0 -13
132 -22 165 -12 50 15 105 41 105 49 0 11 -127 14 -166 3 -45 -12 -43 -6 5 18
38 20 90 86 77 98 -3 4 -7 4 -9 2 -34 -49 -62 -81 -77 -89 -36 -19 -22 9 31
62 47 47 51 49 64 32 21 -28 18 -61 -7 -78 -12 -9 -20 -16 -18 -17 70 -11 93
-8 140 17 27 15 57 35 66 45 16 18 15 19 -27 19 -25 0 -61 -9 -82 -19 -43 -22
-45 -20 -13 12 27 27 46 84 46 140 0 45 -15 50 -18 4 -3 -52 -13 -90 -30 -120
-34 -58 -43 -22 -13 51 11 26 22 58 25 72 9 38 21 51 39 44 9 -3 14 -10 11
-15 -3 -5 -2 -15 2 -21 5 -7 7 -28 5 -47 -3 -31 -1 -34 13 -22 23 20 20 -3 -4
-24 -29 -26 -25 -35 12 -24 29 8 36 5 65 -23 18 -18 33 -36 33 -41 0 -5 9 -22
21 -39 12 -16 20 -30 18 -32 -2 -1 -49 -23 -104 -48 -441 -202 -966 -234
-1439 -88 -74 23 -275 106 -290 120 -4 4 4 25 18 47 22 32 24 40 12 48 -11 9
-9 16 16 44 20 22 33 30 41 23 15 -12 77 -24 77 -15 0 4 -16 24 -36 44 -23 24
-33 42 -29 50 6 9 11 6 17 -11 5 -12 11 -20 14 -17 3 3 -2 19 -10 36 -9 16
-16 35 -16 42 0 6 -12 22 -26 34 -17 15 -25 29 -21 39 4 10 1 16 -8 16 -8 0
-15 5 -15 11 0 5 -4 7 -10 4 -5 -3 -10 -2 -10 3 0 5 22 9 50 9 33 -1 55 5 69
17 16 15 22 15 40 5 12 -8 17 -17 12 -24 -14 -17 -23 -55 -13 -55 5 0 15 14
22 30 7 16 16 30 21 30 8 0 33 -40 27 -44 -59 -43 -131 -65 -112 -35 3 5 9 7
14 4 4 -3 7 5 7 18 -1 12 3 33 7 46 6 16 5 21 -3 17 -6 -4 -15 -25 -22 -48 -8
-30 -13 -38 -19 -28 -5 8 -12 11 -17 7 -4 -4 5 -18 19 -31 23 -19 26 -29 24
-73 -1 -29 1 -50 6 -47 4 3 15 -10 24 -28 9 -18 26 -43 37 -55 20 -22 11 -33
-9 -13 -14 14 -114 26 -114 14 0 -6 25 -26 56 -47 48 -31 65 -37 110 -37 30 0
54 5 54 10 0 12 1 11 -65 13 -45 2 -115 31 -103 43 7 6 108 -20 108 -28 0 -5
5 -8 11 -8 12 0 9 34 -7 109 -5 23 -4 32 3 28 6 -4 14 -22 17 -41 9 -47 59
-112 105 -135 21 -11 41 -28 45 -37 6 -15 -1 -16 -65 -12 -39 3 -76 11 -82 18
-10 10 3 11 63 6 73 -5 74 -5 37 9 -28 11 -57 12 -110 7 l-72 -8 49 -22 c27
-12 66 -25 87 -28 47 -8 149 4 149 17 0 5 -6 9 -14 9 -8 0 -30 26 -49 58 -20
31 -47 68 -61 81 -29 28 -37 77 -10 67 34 -13 92 -18 98 -8 4 6 -18 14 -55 19
-56 7 -62 10 -75 41 -12 31 -12 33 4 30 24 -4 72 49 72 80 0 16 4 22 14 19 7
-3 34 -9 60 -12 25 -4 46 -11 46 -16 0 -5 -4 -9 -9 -9 -13 0 -41 -87 -41 -126
0 -51 28 -77 83 -76 25 1 49 -3 52 -8 10 -17 32 -11 66 17 21 18 34 24 37 15
2 -6 8 -12 13 -12 6 0 7 5 4 10 -8 13 4 32 16 24 12 -7 -20 -62 -43 -75 -10
-6 -19 -5 -23 1 -3 5 -11 10 -17 10 -7 0 -6 -6 2 -15 7 -8 19 -15 26 -15 8 0
14 -5 14 -11 0 -6 -7 -8 -16 -5 -9 3 -25 6 -37 6 -18 0 -19 2 -7 11 11 8 6 9
-20 4 -19 -3 -43 -7 -52 -8 -41 -4 2 -15 67 -18 39 -2 76 -7 83 -12 7 -6 15
-7 19 -3 3 3 13 0 22 -7 9 -7 33 -19 54 -26 33 -11 41 -10 63 4 17 11 35 14
58 10 20 -4 36 -2 40 4 4 6 20 11 36 11 16 0 32 5 36 11 3 6 19 9 34 5 19 -3
36 1 52 13 13 10 41 21 63 25 57 11 78 24 72 46 -5 20 23 26 142 33 25 1 46 7
48 12 5 15 -131 7 -189 -11 -51 -15 -112 -17 -143 -4 -18 8 -18 9 -2 9 24 1
91 30 85 36 -3 3 -33 -1 -67 -9 l-62 -14 -65 49 c-36 27 -69 49 -74 49 -5 0
-23 -15 -39 -32 -23 -24 -31 -28 -31 -16 0 9 -5 18 -12 20 -8 3 -7 14 5 38 21
40 21 41 3 34 -8 -3 -17 -17 -21 -31 -3 -14 -16 -38 -27 -54 -20 -27 -21 -31
-6 -45 14 -14 18 -14 46 0 17 9 39 27 50 41 11 14 24 25 30 25 5 0 31 -17 58
-39 95 -75 131 -88 248 -91 16 0 17 -3 8 -12 -8 -8 -40 -13 -80 -13 -52 0 -80
6 -126 28 -32 15 -61 25 -64 23 -7 -8 58 -44 105 -58 48 -14 52 -34 6 -31 -24
2 -76 22 -155 61 -5 2 -8 -1 -8 -6 0 -5 28 -22 62 -37 51 -23 58 -29 43 -37
-13 -8 -33 -2 -81 21 -35 17 -66 31 -70 31 -17 0 22 -30 52 -40 37 -13 46 -30
14 -30 -29 0 -70 21 -70 37 0 7 -7 16 -15 19 -8 4 -15 11 -15 18 -1 17 -57 69
-69 62 -6 -4 -19 -1 -31 6 -16 10 -24 10 -40 0 -11 -6 -38 -12 -61 -12 l-42 0
6 45 c4 24 13 60 21 80 14 33 17 35 64 35 26 0 71 7 98 15 28 8 60 13 73 10
13 -2 43 1 67 7 40 11 48 10 93 -14 34 -19 51 -24 59 -16 7 7 24 4 57 -12 33
-16 50 -19 57 -12 8 8 17 8 30 1 10 -5 22 -8 27 -5 5 3 29 -2 54 -11 43 -16
47 -16 65 0 17 16 21 16 32 2 14 -17 40 -20 40 -5 0 6 -7 10 -15 10 -7 0 -18
8 -24 17 -9 17 -11 16 -30 -1 -19 -17 -25 -18 -64 -6 -23 8 -52 14 -64 15 -12
0 -25 4 -29 8 -4 4 -15 0 -25 -9 -18 -16 -23 -14 -53 30 -12 18 -14 18 -40 1
-24 -16 -28 -16 -44 -3 -9 9 -22 14 -28 11 -6 -2 -17 3 -24 12 -7 8 -25 15
-40 15 -25 0 -28 3 -26 32 1 28 -2 32 -27 35 -16 1 -39 8 -50 16 -22 14 -51 7
-68 -17 -4 -4 -16 -3 -27 3 -30 16 -62 14 -62 -4 0 -8 -7 -15 -15 -15 -8 0
-15 4 -15 9 0 5 -21 12 -46 16 -34 5 -48 12 -52 27 -3 14 -10 18 -26 14 -14
-3 -36 4 -61 21 -28 19 -42 23 -54 16 -12 -7 -27 -2 -61 22 -25 17 -50 30 -56
28 -7 -2 -14 8 -18 22 -4 15 -13 25 -24 25 -10 0 -36 13 -58 30 -45 34 -51 36
-56 14 -3 -13 -6 -13 -24 4 -11 11 -30 25 -43 31 -18 10 -21 18 -16 39 4 15
13 35 22 44 9 10 12 25 8 38 -4 14 -1 28 10 40 9 10 14 23 11 29 -4 6 14 31
40 55 40 38 45 48 34 61 -11 13 -15 13 -39 0 -31 -17 -133 -47 -139 -40 -13
12 15 40 93 91 47 31 85 58 85 60 0 12 -24 -1 -98 -50 -47 -32 -84 -51 -88
-45 -7 13 -12 9 64 50 34 18 62 37 62 41 0 11 0 11 -69 -23 -79 -40 -81 -38
-81 76 0 3 1 5 3 5 1 0 55 29 121 64 65 35 157 76 205 91 132 40 213 73 274
109 30 18 71 36 91 40 21 4 62 28 102 61 37 30 70 55 75 55 4 0 14 -7 22 -15z
m1057 5 c13 -8 11 -11 -7 -16 -13 -4 -23 -10 -23 -15 0 -5 -7 -9 -15 -9 -8 0
-15 -9 -15 -20 0 -20 -14 -27 -24 -12 -5 8 53 81 64 82 3 0 12 -5 20 -10z
m-2050 -9 c0 -5 11 -19 24 -32 13 -13 22 -29 19 -36 -8 -20 -23 -15 -23 7 0
11 -7 20 -15 20 -8 0 -15 7 -15 16 0 10 -6 14 -15 11 -8 -4 -17 -2 -20 3 -3 4
1 11 7 13 21 9 38 8 38 -2z m1048 -10 c3 -8 -1 -12 -9 -9 -7 2 -15 10 -17 17
-3 8 1 12 9 9 7 -2 15 -10 17 -17z m99 -7 c-9 -9 -28 6 -21 18 4 6 10 6 17 -1
6 -6 8 -13 4 -17z m-37 6 c0 -5 -7 -10 -15 -10 -8 0 -15 5 -15 10 0 6 7 10 15
10 8 0 15 -4 15 -10z m76 -7 c3 -10 10 -26 15 -35 7 -14 5 -18 -6 -18 -14 0
-35 37 -35 61 0 16 20 10 26 -8z m-1026 -4 c0 -8 12 -10 34 -6 28 4 34 3 29
-9 -3 -8 -12 -13 -20 -10 -11 4 -13 1 -8 -14 10 -32 -33 -27 -45 6 -13 32 -13
44 0 44 6 0 10 -5 10 -11z m-17 -49 c6 -25 -9 -36 -16 -12 -2 9 -8 26 -13 37
-7 17 -6 18 8 7 9 -7 18 -22 21 -32z m1131 24 c19 -19 20 -25 4 -20 -7 3 -25
7 -40 10 -16 4 -28 11 -28 16 0 16 47 12 64 -6z m-80 -44 c37 0 38 -12 3 -29
-23 -12 -39 -15 -59 -8 -32 10 -35 27 -11 63 l16 26 14 -26 c9 -17 22 -26 37
-26z m-133 6 c-12 -15 -60 -30 -68 -22 -3 2 12 13 34 24 41 22 53 21 34 -2z
m897 -8 c11 -40 11 -39 -17 -31 -14 4 -20 11 -17 20 3 8 6 21 6 29 0 27 19 14
28 -18z m-1867 -28 c18 -57 14 -69 -11 -37 -15 18 -20 19 -34 8 -22 -19 -33
-6 -14 16 9 10 19 28 22 41 11 33 19 27 37 -28z m1919 20 c0 -5 9 -10 20 -10
11 0 20 -4 20 -10 0 -5 -13 -10 -30 -10 -24 0 -28 -3 -23 -17 5 -15 3 -16 -7
-6 -11 10 -11 15 0 28 8 10 9 15 1 15 -6 0 -11 5 -11 10 0 6 7 10 15 10 8 0
15 -4 15 -10z m-110 -20 c-6 -11 -12 -20 -14 -20 -2 0 -2 9 1 20 3 11 9 20 15
20 5 0 4 -9 -2 -20z m-1890 -24 c0 -13 -7 -29 -15 -36 -17 -14 -21 0 -4 17 7
7 -1 10 -30 8 -22 -1 -38 2 -35 6 3 5 13 9 23 9 10 0 24 7 31 15 16 19 30 10
30 -19z m1093 0 c9 -7 17 -16 17 -18 0 -3 -28 -9 -62 -12 -35 -4 -76 -10 -93
-13 -47 -9 -18 14 46 36 67 23 70 23 92 7z m804 -24 c-8 -9 -12 -22 -10 -29 2
-6 -1 -14 -6 -18 -16 -10 -13 -21 13 -49 27 -30 76 -36 76 -10 0 13 3 14 14 4
13 -10 12 -16 -4 -45 -10 -18 -16 -36 -13 -39 3 -3 -6 0 -20 7 -21 9 -23 15
-15 30 8 16 7 18 -10 13 -14 -5 -21 -1 -25 15 -3 11 -10 18 -15 15 -14 -8 -21
29 -15 72 6 39 35 82 41 62 2 -6 -3 -19 -11 -28z m219 13 c10 -8 15 -14 9 -14
-5 0 -19 6 -29 14 -11 8 -15 15 -10 15 6 0 19 -7 30 -15z m-151 -5 c3 -5 -1
-10 -9 -10 -9 0 -16 5 -16 10 0 6 4 10 9 10 6 0 13 -4 16 -10z m120 -6 c14 -9
25 -21 25 -26 0 -11 -43 1 -48 13 -6 14 -39 10 -52 -6 -9 -11 -16 -13 -24 -5
-7 7 -4 14 10 25 25 19 59 19 89 -1z m-155 -8 c0 -7 -7 -19 -15 -26 -16 -13
-20 -3 -9 24 8 20 24 21 24 2z m-2055 -6 c-28 -12 -37 -12 -30 0 3 6 16 10 28
9 21 0 21 -1 2 -9z m87 -7 c17 -15 19 -15 36 0 21 19 32 22 32 7 0 -6 -8 -14
-17 -17 -10 -4 -21 -11 -25 -16 -4 -7 -16 -4 -31 6 -23 15 -28 15 -56 1 -41
-20 -44 -29 -28 -60 10 -20 16 -23 22 -14 5 8 2 18 -9 26 -15 11 -14 13 14 27
36 19 64 12 55 -12 -4 -9 -9 -22 -12 -28 -3 -7 0 -13 5 -13 6 0 14 9 17 20 7
22 20 26 31 8 4 -6 -4 -19 -19 -30 -26 -19 -26 -21 -12 -48 8 -16 15 -39 14
-52 0 -18 -4 -15 -18 17 -10 22 -16 43 -14 48 2 4 -3 7 -11 7 -9 0 -16 -7 -16
-15 0 -8 -5 -15 -11 -15 -5 0 -7 5 -4 10 3 6 -3 10 -14 10 -12 0 -21 5 -21 10
0 6 -7 10 -16 10 -11 0 -14 5 -10 17 4 9 2 20 -5 23 -14 9 17 60 36 60 7 0 18
7 25 15 16 20 39 19 62 -2z m956 5 c-3 -7 -13 -15 -24 -17 -16 -3 -17 -1 -5
13 16 19 34 21 29 4z m1041 -39 c-7 -15 -14 -19 -17 -11 -4 14 -22 16 -22 3 0
-5 9 -13 21 -16 16 -5 18 -9 8 -21 -10 -13 -15 -12 -36 7 -26 25 -30 39 -10
39 7 0 21 10 31 21 24 28 43 11 25 -22z m98 28 c10 -17 53 -29 53 -15 0 6 7 5
15 -2 11 -9 12 -15 5 -20 -6 -4 -8 -14 -4 -23 4 -11 1 -17 -9 -17 -8 0 -17 -7
-21 -15 -3 -8 -13 -15 -21 -15 -9 0 -13 -4 -10 -10 3 -5 -1 -10 -9 -10 -9 0
-13 6 -10 13 3 8 -12 22 -36 36 -25 14 -40 29 -38 39 4 20 28 28 28 9 0 -8 7
-20 15 -27 18 -15 19 -7 5 21 -17 30 19 65 37 36z m-1993 -13 c4 -9 4 -19 2
-21 -8 -8 -26 8 -26 23 0 19 16 18 24 -2z m36 4 c0 -7 -5 -20 -10 -28 -8 -12
-10 -9 -10 13 0 15 5 27 10 27 6 0 10 -6 10 -12z m-65 -32 c0 -11 -6 -21 -14
-24 -10 -3 -12 0 -8 12 4 9 2 16 -3 16 -6 0 -10 5 -10 11 0 6 8 9 18 7 9 -2
17 -12 17 -22z m1380 -12 c-28 -23 -29 -26 -12 -38 21 -16 22 -27 1 -19 -10 4
-17 -2 -21 -17 -6 -22 -7 -22 -20 -5 -12 18 -14 18 -44 -4 -17 -13 -32 -21
-33 -19 -2 1 3 18 10 36 9 20 21 32 33 32 10 0 35 14 56 30 45 36 73 40 30 4z
m-1350 -34 c-22 -24 -38 -25 -55 -5 -11 13 -9 15 13 15 14 0 28 7 31 17 5 12
10 13 18 5 9 -9 7 -17 -7 -32z m2126 30 c6 0 7 -4 4 -10 -10 -16 -45 -12 -45
6 0 11 5 14 16 10 9 -3 20 -6 25 -6z m-2371 -32 c0 -6 14 -22 31 -37 27 -24
29 -29 15 -40 -16 -13 -21 -6 -17 22 0 4 -6 7 -14 7 -9 0 -18 6 -21 14 -3 8
-15 17 -27 20 -21 5 -21 6 -2 20 21 15 35 12 35 -6z m259 -32 c-13 -14 -29
-21 -38 -18 -14 5 -14 3 -2 -11 11 -14 11 -18 -3 -23 -24 -9 -46 3 -46 25 0
11 -6 21 -12 24 -10 4 -10 7 0 18 9 9 15 10 20 3 12 -19 41 -23 65 -11 23 12
26 16 28 40 1 6 3 4 6 -6 3 -10 -5 -28 -18 -41z m1367 40 c10 -8 15 -18 11
-22 -4 -4 -17 2 -29 14 -25 25 -13 30 18 8z m709 -7 c4 -6 -3 -13 -15 -16 -15
-4 -20 -11 -17 -24 3 -12 0 -19 -8 -19 -23 0 -23 24 -1 47 24 25 32 27 41 12z
m-127 -16 c-3 -5 -10 -23 -17 -40 -7 -18 -17 -33 -22 -33 -5 0 -9 -9 -9 -19 0
-11 -15 -28 -35 -41 -19 -12 -49 -38 -67 -59 -46 -52 -79 -73 -98 -60 -11 8
-12 12 -2 16 19 8 14 23 -8 23 -24 0 -26 -20 -5 -59 13 -26 13 -30 -1 -42 -9
-7 -24 -30 -35 -51 -13 -25 -26 -38 -36 -36 -23 4 -24 35 -3 76 23 42 18 55
-15 40 -32 -14 -38 -8 -25 26 8 21 7 27 -2 24 -6 -2 -18 -23 -25 -45 -9 -26
-21 -43 -35 -46 -17 -5 -20 -11 -15 -35 6 -29 4 -31 -56 -53 -81 -31 -202 -33
-265 -5 -23 10 -42 22 -42 25 0 3 12 14 26 25 20 14 35 17 69 12 42 -7 46 -5
98 42 40 37 66 52 97 57 23 4 68 18 99 32 31 14 94 41 141 60 47 19 95 41 107
49 30 19 33 18 33 -11 0 -14 4 -25 8 -25 9 0 102 95 102 103 0 18 21 57 31 57
6 0 9 -3 7 -7z m-2258 -17 c0 -2 -7 -7 -16 -10 -8 -3 -12 -2 -9 4 6 10 25 14
25 6z m2261 -50 c-6 -14 -16 -26 -23 -26 -9 0 -10 3 -2 8 6 4 15 17 19 30 4
13 9 22 11 19 3 -2 0 -16 -5 -31z m61 -1 c15 -34 15 -35 -8 -35 -29 0 -36 12
-28 45 8 34 17 32 36 -10z m-2173 -42 c1 -6 -9 -13 -21 -15 -13 -2 -24 -11
-26 -22 -3 -11 0 -16 7 -12 6 4 11 2 11 -3 0 -13 -10 -14 -29 -2 -13 8 -12 15
4 48 33 64 39 69 46 42 4 -13 7 -29 8 -36z m31 14 c0 -5 -4 -5 -10 -2 -5 3
-10 14 -10 23 0 15 2 15 10 2 5 -8 10 -19 10 -23z m1977 -5 c-15 -15 -27 -21
-27 -13 0 14 42 52 49 45 3 -3 -7 -17 -22 -32z m213 6 c20 -33 29 -67 10 -38
-8 13 -10 12 -10 -2 0 -13 8 -18 25 -18 15 0 25 -6 25 -14 0 -8 6 -17 13 -19
6 -3 2 -6 -9 -6 -25 -1 -75 23 -75 35 1 5 -21 9 -49 9 -45 0 -49 -2 -44 -20 6
-19 5 -19 -16 1 -26 26 -20 64 11 64 11 0 17 -4 14 -10 -6 -10 8 -13 59 -12
36 1 39 4 27 36 -14 36 -5 33 19 -6z m-2130 -24 c0 -8 5 -14 11 -14 6 0 9 -7
5 -15 -3 -10 1 -15 13 -15 24 0 46 -35 54 -85 4 -22 10 -55 13 -74 7 -33 7
-34 -21 -27 -25 6 -27 5 -15 -9 18 -21 4 -32 -21 -16 -25 15 -37 7 -20 -13 16
-19 38 -11 79 31 18 18 41 33 50 33 9 1 40 9 68 18 l51 18 -39 -40 c-24 -25
-36 -46 -33 -57 3 -9 -2 -22 -10 -29 -10 -9 -14 -22 -11 -36 4 -13 0 -29 -9
-38 -8 -8 -15 -22 -15 -32 0 -16 -2 -15 -22 3 -21 20 -26 20 -56 8 -18 -8 -35
-21 -38 -30 -3 -8 -11 -15 -16 -15 -6 0 -8 6 -5 14 4 9 0 14 -11 14 -9 -1 -27
2 -39 6 -14 5 -23 3 -23 -3 0 -6 -4 -11 -10 -11 -15 0 -12 48 3 53 6 2 20 -2
30 -11 15 -14 17 -13 17 6 0 12 4 22 10 22 17 0 60 -23 60 -33 0 -5 6 -4 14 2
16 13 6 65 -15 85 -12 11 -11 5 7 -55 6 -19 5 -20 -13 -9 -13 9 -19 22 -18 42
2 24 -2 29 -16 25 -23 -6 -62 21 -55 38 3 8 0 16 -7 18 -8 3 -7 10 6 23 16 17
17 17 17 1 0 -12 8 -17 29 -17 17 0 33 5 36 11 4 6 14 8 22 5 8 -3 11 -2 8 4
-3 5 0 19 7 30 11 17 11 22 -1 29 -7 5 -10 14 -7 20 10 15 -25 60 -46 61 -11
0 -21 13 -27 38 -13 46 -14 55 -1 47 6 -3 10 -13 10 -21z m47 9 c-4 11 -3 16
3 12 13 -8 13 -55 0 -55 -5 0 -17 15 -26 33 l-17 32 23 -20 c21 -18 23 -18 17
-2z m-220 -18 c-7 -14 -16 -25 -20 -25 -8 0 -2 14 16 38 15 19 16 14 4 -13z
m138 -5 c16 -18 17 -23 5 -45 -16 -29 -34 -34 -25 -6 3 12 1 19 -7 18 -31 -1
-48 4 -48 13 0 6 11 10 25 10 18 0 23 4 19 15 -9 21 10 19 31 -5z m-117 -51
c2 -5 17 -6 33 -2 21 4 35 0 49 -12 19 -17 21 -17 38 -2 23 21 32 21 32 2 0
-8 -9 -15 -19 -15 -10 0 -22 -7 -25 -16 -5 -14 -8 -14 -28 0 -25 18 -58 21
-58 6 0 -5 -8 -10 -18 -10 -10 0 -23 -5 -30 -12 -9 -9 -12 -8 -12 6 0 10 9 20
20 23 11 3 20 9 20 14 0 12 -17 11 -39 -3 -10 -6 -26 -8 -35 -5 -15 6 -15 8 1
26 12 15 24 19 42 14 15 -3 27 -10 29 -14z m2285 -11 c15 -11 24 -24 21 -30
-4 -6 -10 -6 -17 1 -6 6 -19 11 -29 11 -10 0 -18 5 -18 10 0 17 -29 11 -49 -9
-14 -14 -22 -16 -30 -8 -8 8 -11 8 -11 -1 0 -7 -10 -13 -22 -13 -18 -1 -19 -2
-5 -6 14 -4 16 -8 7 -19 -10 -11 -14 -11 -27 2 -14 13 -13 17 2 34 9 10 22 17
28 14 7 -2 25 6 41 19 33 27 65 25 109 -5z m-180 4 c3 -4 -3 -18 -14 -31 -13
-16 -19 -19 -19 -8 0 35 21 60 33 39z m-1913 -32 c6 -11 8 -25 5 -30 -3 -6 -1
-10 4 -10 19 0 12 -26 -14 -50 -24 -22 -26 -23 -44 -6 -18 16 -22 17 -48 2
-15 -8 -36 -18 -46 -22 -12 -4 -16 -12 -11 -23 30 -71 43 -111 35 -111 -5 0
-14 20 -21 45 -9 33 -18 45 -31 45 -21 0 -26 16 -6 23 6 3 2 6 -11 6 -12 1
-25 8 -28 16 -4 8 -12 15 -20 15 -17 0 -18 12 -2 28 9 9 8 12 -6 12 -34 0 -9
24 26 25 20 1 44 9 53 18 13 13 20 14 34 5 18 -11 18 -14 3 -45 -18 -39 -36
-45 -22 -7 14 37 12 52 -5 30 -8 -11 -15 -30 -15 -43 0 -13 -4 -23 -9 -23 -5
0 -7 8 -4 19 3 10 0 22 -7 26 -17 11 -24 -3 -10 -20 7 -8 9 -15 4 -15 -4 0 -3
-5 2 -10 18 -18 71 8 84 41 14 34 26 37 35 10 8 -27 35 -34 56 -15 17 15 17
19 4 45 -18 33 -18 39 -5 39 5 0 14 -9 20 -20z m-30 -15 c6 -8 9 -23 5 -35 -5
-17 -9 -19 -21 -9 -12 10 -12 14 -2 20 10 7 9 9 -4 9 -18 0 -23 11 -11 23 10
11 19 8 33 -8z m1934 -30 c3 -8 15 -15 27 -15 18 0 19 -2 9 -15 -7 -8 -17 -15
-23 -15 -13 0 -57 40 -57 52 0 14 38 9 44 -7z m302 -30 c-2 -5 -13 -9 -26 -7
-17 2 -21 -2 -16 -14 4 -11 -1 -18 -14 -21 -11 -3 -20 -14 -20 -24 0 -25 -15
-32 -31 -13 -11 14 -8 20 19 44 18 15 32 35 32 43 0 8 6 17 13 20 16 5 48 -15
43 -28z m-2476 -7 c0 -6 14 -23 32 -38 20 -18 29 -33 25 -44 -9 -23 -36 -21
-30 3 3 12 -2 20 -16 24 -12 3 -21 13 -21 22 0 9 -6 15 -12 12 -7 -2 -12 -9
-11 -14 1 -5 -6 -9 -15 -9 -9 -1 -26 -4 -37 -8 -11 -4 -5 1 14 12 23 13 30 21
22 27 -9 5 -6 11 11 20 25 13 38 10 38 -7z m1886 -27 c-10 -10 -16 -27 -14
-38 2 -14 -3 -18 -27 -18 -23 0 -31 5 -33 23 -2 14 2 22 12 22 8 0 19 6 23 14
7 13 43 26 52 19 2 -1 -4 -11 -13 -22z m639 19 c3 -6 -1 -7 -9 -4 -18 7 -21
14 -7 14 6 0 13 -4 16 -10z m-2595 -5 c0 -2 -10 -9 -22 -15 -22 -11 -22 -10
-4 4 21 17 26 19 26 11z m2575 -12 l20 -16 -20 8 c-11 4 -29 7 -40 7 -16 -1
-17 1 -5 8 20 13 21 12 45 -7z m-223 -25 c-14 -17 -32 -98 -23 -98 4 0 13 17
20 38 18 55 38 79 53 64 9 -9 8 -12 -4 -12 -11 0 -22 -17 -33 -49 -11 -33 -23
-51 -37 -54 -19 -5 -20 -2 -16 41 8 76 24 109 42 92 5 -6 5 -15 -2 -22z
m-2103 -53 c6 -25 16 -45 21 -45 14 0 13 13 -2 28 -18 18 4 14 32 -5 l24 -17
-24 -7 c-51 -14 -57 -11 -69 35 -6 25 -16 48 -21 51 -6 4 -8 11 -4 16 10 18
31 -10 43 -56z m2245 -47 c17 -29 18 -31 2 -19 -9 8 -24 28 -33 45 -22 42 5
20 31 -26z m-2413 -20 c-17 -23 -31 -39 -31 -35 0 12 53 88 58 83 2 -3 -10
-24 -27 -48z m2449 8 c0 -6 -7 -1 -15 10 -8 10 -15 23 -15 28 0 6 7 1 15 -10
8 -10 15 -23 15 -28z m-2480 -6 c-6 -11 -13 -20 -16 -20 -2 0 0 9 6 20 6 11
13 20 16 20 2 0 0 -9 -6 -20z m386 -75 c10 -19 23 -35 28 -35 6 0 5 -5 -2 -12
-9 -9 -7 -14 6 -24 15 -12 15 -15 2 -24 -13 -9 -13 -11 -1 -19 12 -8 13 -14 3
-36 -10 -23 -15 -25 -27 -15 -9 7 -19 10 -22 6 -4 -4 -1 -11 7 -16 12 -7 12
-12 3 -21 -10 -10 -16 -9 -31 4 -25 23 -39 22 -19 -1 19 -21 13 -32 -18 -32
-25 0 -45 18 -45 41 0 10 -6 19 -12 22 -10 3 -10 8 2 21 13 17 14 17 20 0 8
-20 56 -26 71 -7 6 6 18 9 26 6 11 -4 14 -2 9 5 -4 6 -1 21 6 32 11 17 11 22
0 29 -8 4 -12 14 -11 22 2 8 -2 24 -9 35 -13 25 -52 39 -52 19 0 -13 -29 -29
-37 -21 -3 2 6 16 18 30 32 37 62 34 85 -9z m-226 11 c0 -3 -13 -11 -30 -20
-24 -12 -30 -12 -30 -1 0 7 6 16 13 18 15 7 47 8 47 3z m2204 -2 c9 -3 16 -12
16 -19 0 -11 -6 -10 -30 1 -16 9 -30 17 -30 20 0 6 26 5 44 -2z m-2118 -18 c7
-8 19 -17 26 -19 10 -4 10 -8 -1 -15 -11 -8 -22 -5 -39 8 -24 19 -25 19 -68
-5 -30 -17 -45 -21 -50 -13 -4 7 -2 14 4 16 6 2 22 12 34 22 27 23 74 26 94 6z
m2088 -8 c59 -38 40 -54 -23 -20 -27 15 -39 16 -58 8 -12 -6 -23 -14 -23 -18
0 -5 -4 -8 -10 -8 -15 0 -12 21 7 42 22 24 64 23 107 -4z m-1975 -10 c12 -32
2 -44 -16 -19 -8 12 -11 26 -8 31 9 15 15 12 24 -12z m1778 -18 c-18 -26 -28
-14 -16 19 7 18 13 21 20 14 8 -8 7 -17 -4 -33z m-1808 -42 c-9 -16 -13 -17
-26 -7 -13 12 -13 14 4 20 16 7 15 8 -4 8 -26 1 -29 11 -10 30 19 19 50 -24
36 -51z m1871 32 c0 -4 -8 -17 -17 -29 -18 -21 -18 -21 -30 -3 -16 27 11 69
33 51 8 -6 14 -15 14 -19z m-1976 -31 c-8 -16 -10 -30 -5 -33 5 -4 15 7 23 24
16 36 19 37 46 5 26 -30 38 -31 52 -5 12 22 40 27 40 7 0 -8 -11 -24 -25 -37
-23 -22 -25 -22 -50 -6 -24 16 -27 16 -69 -9 l-44 -26 25 -54 c13 -30 23 -63
21 -73 -3 -10 -12 7 -23 41 -15 44 -23 57 -39 58 -12 0 -15 3 -8 6 17 7 15 23
-3 23 -30 0 -66 31 -60 51 5 14 1 19 -11 19 -34 0 4 24 41 27 20 1 42 9 51 17
12 12 19 13 34 4 17 -11 17 -14 4 -39z m2074 36 c5 -9 24 -17 45 -18 38 -3 78
-27 43 -27 -12 0 -16 -5 -11 -19 6 -20 -30 -51 -60 -51 -18 0 -20 -16 -2 -23
6 -3 2 -6 -10 -6 -15 -1 -23 -7 -23 -18 0 -23 -39 -108 -45 -101 -3 3 8 37 24
76 l29 71 -44 26 c-42 25 -45 25 -69 9 -25 -16 -27 -16 -50 6 -14 13 -25 29
-25 37 0 20 28 15 40 -7 14 -26 26 -25 52 5 24 27 38 32 38 13 1 -18 28 -53
36 -46 3 4 -2 20 -10 37 -15 28 -15 31 2 40 23 14 30 13 40 -4z m-1799 -31
c33 -2 117 -48 124 -68 8 -20 126 -78 145 -71 8 3 33 -6 54 -20 22 -15 46 -24
54 -21 7 3 18 -3 24 -13 6 -12 26 -22 52 -26 23 -4 50 -12 60 -18 13 -9 21 -7
37 7 18 16 24 17 51 6 26 -11 33 -10 48 3 16 14 22 14 63 1 38 -13 47 -20 47
-39 0 -27 -19 -38 -53 -29 -13 3 -53 -1 -89 -10 -58 -15 -68 -15 -88 -2 -27
17 -126 24 -151 10 -30 -17 -124 7 -144 36 -10 14 -17 26 -15 28 7 8 -1 24
-27 52 -20 22 -36 31 -52 28 -16 -2 -27 4 -34 17 -13 24 -56 41 -81 30 -11 -4
-26 -9 -35 -10 -8 -1 -26 -12 -38 -24 -17 -17 -31 -22 -57 -19 -26 3 -33 1
-30 -9 3 -7 -1 -13 -9 -13 -23 0 -18 28 6 35 23 8 79 62 80 79 0 6 2 23 4 38
2 15 -1 30 -6 33 -5 4 -9 11 -9 17 0 6 9 3 20 -7 12 -11 34 -20 49 -21z m-420
-38 c5 -13 22 -32 36 -43 21 -15 26 -25 20 -42 -8 -27 -29 -23 -33 7 -2 14
-11 22 -23 22 -16 0 -19 4 -14 21 5 16 3 20 -12 18 -10 -2 -24 0 -31 5 -11 6
-8 11 10 21 33 19 37 18 47 -9z m2366 10 c20 -10 23 -16 13 -22 -7 -5 -21 -7
-31 -5 -15 2 -17 -2 -12 -18 5 -17 2 -21 -14 -21 -14 0 -21 -6 -21 -19 0 -28
-19 -36 -35 -15 -13 17 -10 22 19 49 19 17 36 38 40 48 7 21 7 21 41 3z
m-2460 -36 c-10 -11 -21 -18 -23 -15 -3 3 3 12 14 20 27 20 30 18 9 -5z m2525
-5 c13 -14 21 -25 18 -25 -2 0 -15 11 -28 25 -13 14 -21 25 -18 25 2 0 15 -11
28 -25z m-2470 -5 c12 -7 11 -9 -5 -8 -11 0 -29 -3 -40 -6 -20 -8 -20 -7 -1 8
23 19 26 19 46 6z m2446 -6 c19 -15 19 -16 -1 -8 -11 3 -29 6 -40 6 -16 -1
-17 1 -5 8 20 13 23 13 46 -6z m-2229 -63 l2 -46 -14 39 c-8 21 -20 45 -25 51
-8 9 -7 14 2 17 21 7 33 -13 35 -61z m2003 44 c-5 -7 -17 -30 -25 -51 l-15
-39 3 45 c2 49 14 70 35 63 9 -4 9 -9 2 -18z m-305 -15 c-3 -5 -1 -11 4 -14 5
-3 11 1 15 9 6 16 32 10 39 -9 3 -7 1 -19 -4 -27 -7 -11 -11 -11 -17 -1 -7 9
-15 10 -35 3 -29 -11 -32 -6 -21 36 4 13 10 20 15 17 5 -3 7 -9 4 -14z m-1366
-15 c12 -12 12 -17 -3 -39 -9 -14 -21 -26 -27 -26 -8 0 -8 4 0 14 10 11 4 15
-29 18 -23 2 -44 0 -47 -5 -8 -13 -22 14 -16 30 6 17 43 17 44 1 0 -7 4 -3 10
10 7 18 14 22 31 17 13 -4 29 -13 37 -20z m1484 -27 c9 2 17 -3 17 -11 0 -9
10 -14 30 -13 16 1 30 4 30 9 0 4 6 7 13 7 13 -1 -61 -70 -75 -70 -13 0 -9 20
5 20 6 1 -7 10 -30 21 -24 11 -43 23 -43 28 0 14 12 21 24 13 6 -3 19 -5 29
-4z m67 2 c0 -5 -7 -10 -16 -10 -8 0 -12 5 -9 10 3 6 10 10 16 10 5 0 9 -4 9
-10z m-2039 -43 c-11 -18 -30 -42 -43 -53 -13 -11 -6 3 18 38 41 60 60 72 25
15z m229 22 c0 -6 -4 -7 -10 -4 -5 3 -10 11 -10 16 0 6 5 7 10 4 6 -3 10 -11
10 -16z m124 6 c4 -11 -6 -20 -34 -32 -30 -13 -36 -20 -28 -30 16 -19 -4 -15
-29 6 -31 26 -30 43 2 35 19 -5 25 -3 23 7 -2 9 6 14 19 14 12 0 25 4 29 8 10
10 11 9 18 -8z m232 -22 c31 -35 32 -39 16 -54 -20 -19 -34 -15 -25 7 6 17
-20 50 -45 56 -13 4 -18 -2 -19 -24 -1 -15 2 -28 6 -28 16 0 19 -26 6 -44 -13
-17 -14 -16 -30 8 -14 20 -15 29 -6 40 9 11 9 15 -1 19 -17 6 29 57 51 57 8 0
30 -17 47 -37z m1718 -19 c42 -63 31 -64 -15 -2 -26 37 -35 58 -25 58 2 0 20
-25 40 -56z m-2090 -1 l35 -38 -27 -22 c-15 -12 -31 -22 -37 -23 -6 0 -10 26
-10 60 0 33 1 60 2 60 2 0 18 -17 37 -37z m1706 22 c7 -8 18 -15 26 -15 16 0
27 -17 19 -30 -3 -5 -24 1 -49 15 -32 18 -46 21 -55 12 -14 -14 -37 5 -27 22
10 16 72 13 86 -4z m185 -40 c0 -30 -2 -55 -5 -55 -5 0 -42 23 -59 36 -4 4 51
72 59 73 3 1 5 -24 5 -54z m-2150 15 c-9 -16 -18 -30 -21 -30 -2 0 2 14 11 30
9 17 18 30 21 30 2 0 -2 -13 -11 -30z m493 10 c33 -27 18 -46 -16 -21 -26 18
-28 18 -62 0 -19 -11 -40 -19 -47 -19 -22 0 -14 20 11 30 13 5 27 14 31 19 10
17 58 12 83 -9z m1882 0 c6 -11 8 -20 6 -20 -3 0 -10 9 -16 20 -6 11 -8 20 -6
20 3 0 10 -9 16 -20z m-1772 -29 c4 -27 -12 -21 -29 10 -9 18 -8 20 8 17 10
-2 19 -14 21 -27z m1344 2 c13 -11 35 -17 68 -16 28 0 50 -4 50 -9 0 -5 -4 -6
-10 -3 -5 3 -10 1 -10 -4 0 -6 -7 -11 -15 -11 -8 0 -15 -4 -15 -10 0 -5 5 -10
10 -10 6 0 10 -4 10 -10 0 -5 -7 -10 -16 -10 -9 0 -23 -9 -32 -20 -15 -18 -21
-19 -50 -9 -28 10 -33 15 -28 35 3 12 2 34 -3 47 -6 16 -6 28 2 36 14 14 17
14 39 -6z m-1276 -35 c4 -6 2 -14 -4 -16 -7 -2 -12 -14 -12 -26 0 -27 -18 -46
-36 -39 -10 4 -12 0 -7 -12 5 -15 2 -17 -21 -11 -25 6 -26 5 -20 -20 6 -24 4
-25 -22 -22 -23 2 -30 9 -32 31 -2 15 -9 27 -18 27 -12 0 -12 -5 1 -36 13 -32
13 -35 0 -24 -18 15 -20 -1 -3 -18 11 -11 37 -92 38 -120 0 -25 -22 0 -41 46
-11 24 -21 61 -22 81 -1 20 -6 42 -11 49 -4 7 -6 14 -5 15 2 1 18 12 36 24 27
20 32 20 35 6 4 -21 57 -27 65 -7 3 8 13 12 22 9 11 -3 17 1 18 13 1 13 7 42
12 60 2 7 21 0 27 -10z m-51 -9 c8 -12 -32 -59 -51 -59 -6 0 -17 7 -24 15 -10
12 -10 15 4 15 9 0 24 9 33 20 20 23 29 25 38 9z m1459 -8 c3 -4 -3 -19 -14
-31 -11 -13 -20 -30 -20 -39 0 -11 -3 -12 -12 -3 -9 9 -8 18 3 39 12 23 28 42
36 43 1 0 4 -4 7 -9z m-1733 -76 c12 -27 19 -33 19 -20 1 19 1 19 11 2 8 -14
8 -22 -1 -30 -9 -9 -17 -5 -36 18 -31 39 -54 87 -47 99 7 11 29 -17 54 -69z
m1745 6 c-32 -32 -34 -12 -3 38 21 34 22 35 25 12 3 -15 -5 -33 -22 -50z
m-1118 44 c3 -3 -11 -5 -31 -5 -33 0 -39 -4 -58 -41 -21 -43 -40 -157 -23
-146 5 3 18 -2 29 -10 19 -15 18 -15 -10 -8 -39 9 -39 7 -37 66 1 33 9 65 26
95 13 24 21 44 17 44 -20 0 -53 -84 -54 -140 -1 -32 -6 -56 -10 -53 -16 10 -2
108 21 152 13 23 18 40 12 36 -5 -3 -10 -1 -10 6 0 8 -4 8 -15 -1 -11 -9 -12
-15 -5 -20 7 -4 6 -18 -5 -43 -8 -20 -15 -59 -15 -87 0 -32 -4 -49 -10 -45
-15 9 -12 76 5 125 8 23 12 46 9 52 -15 24 17 35 88 32 39 -2 73 -6 76 -9z
m-690 -13 c2 -7 -2 -10 -12 -6 -9 3 -16 11 -16 16 0 13 23 5 28 -10z m1882 2
c0 -9 -5 -14 -12 -12 -18 6 -21 28 -4 28 9 0 16 -7 16 -16z m-1925 -4 c-3 -5
-15 -15 -26 -21 -18 -9 -19 -9 -7 10 7 12 19 21 26 21 7 0 10 -4 7 -10z m25
-31 c-42 -12 -56 -9 -31 5 14 8 32 11 40 8 12 -5 10 -8 -9 -13z m1745 -26 c-9
-61 -25 -80 -25 -29 0 35 14 76 26 76 4 0 3 -21 -1 -47z m130 37 c3 -5 1 -10
-4 -10 -6 0 -11 5 -11 10 0 6 2 10 4 10 3 0 8 -4 11 -10z m-2213 -92 c-49 -87
-51 -88 -97 -68 l-40 17 50 15 c57 17 66 37 41 87 -22 42 -21 42 28 18 l45
-22 -27 -47z m1981 80 c-6 -7 -18 -37 -28 -66 -18 -55 -41 -62 -29 -9 7 33 42
85 58 86 5 1 4 -5 -1 -11z m624 -26 c-14 -52 -5 -70 37 -78 45 -8 45 -16 3
-36 l-34 -16 -36 67 -37 68 33 16 c45 22 45 22 34 -21z m-679 -4 c-5 -16 -58
-24 -58 -9 0 8 13 13 53 20 5 0 7 -5 5 -11z m636 -73 c20 -33 36 -65 36 -72 0
-26 -59 -73 -135 -107 -90 -39 -88 -40 -129 39 -16 30 -26 42 -26 30 0 -11 13
-41 28 -67 38 -65 33 -110 -15 -143 l-35 -24 -24 47 c-13 26 -24 53 -24 60 0
6 -8 12 -19 12 -28 0 -15 43 20 64 37 22 54 53 39 70 -8 11 -4 15 17 21 16 3
69 26 119 50 l92 43 22 -27 22 -26 -16 27 c-9 15 -16 37 -16 49 0 27 0 28 44
-46z m-2520 33 c-3 -13 -15 -40 -25 -60 -25 -48 -18 -49 10 -2 16 27 25 33 34
26 17 -15 208 -82 231 -82 17 0 18 -2 4 -17 -19 -22 -10 -49 26 -81 15 -12 24
-27 21 -31 -3 -5 44 -31 105 -57 60 -26 107 -51 104 -55 -5 -8 -95 30 -149 63
-66 40 -95 21 -95 -66 0 -43 -8 -43 -66 -3 -29 19 -32 26 -30 66 2 30 12 61
30 89 15 24 25 46 22 50 -8 7 -8 6 -42 -54 l-29 -52 -90 42 c-134 61 -131 59
-117 93 11 25 11 26 -2 10 -9 -12 -16 -15 -21 -7 -4 6 9 38 29 71 20 33 36 65
36 70 0 5 5 9 11 9 6 0 8 -9 3 -22z m1163 -12 c-8 -19 -37 -21 -37 -3 0 7 5
18 12 25 15 15 33 -1 25 -22z m668 2 l-6 -23 17 23 c20 27 34 29 27 3 -2 -10
-18 -29 -35 -41 l-30 -22 7 33 c8 37 13 49 21 49 3 0 3 -10 -1 -22z m-1419
-24 c22 -20 31 -33 21 -30 -53 17 -67 18 -67 4 0 -8 -9 -23 -20 -33 -11 -10
-20 -23 -20 -28 0 -13 -30 -47 -42 -47 -4 0 -8 8 -8 18 1 19 24 54 32 47 3 -3
17 10 32 29 15 20 22 37 16 41 -15 9 -12 35 4 35 8 0 31 -16 52 -36z m180 25
c5 -8 9 -8 14 1 4 7 10 -1 14 -21 3 -18 4 -34 2 -36 -4 -4 -66 56 -66 63 0 9
30 3 36 -7z m1524 -7 c0 -15 -33 -39 -62 -46 -35 -8 -36 6 -2 33 27 21 64 28
64 13z m-1792 -47 c-6 -14 -13 -23 -15 -21 -5 5 15 46 22 46 3 0 -1 -11 -7
-25z m1832 -87 c0 -16 -19 -7 -25 11 -3 10 -14 26 -25 36 -11 10 -20 23 -20
29 1 12 70 -64 70 -76z m-1525 52 c3 -11 10 -20 15 -20 12 0 73 -80 66 -87
-11 -12 -106 94 -106 119 0 16 19 8 25 -12z m469 -2 c-7 -25 -44 -78 -53 -78
-3 0 -12 4 -20 9 -16 10 -13 17 33 69 26 29 50 30 40 0z m40 -33 c-4 -8 -11
-12 -17 -8 -5 3 -7 2 -4 -3 3 -5 -3 -21 -13 -34 -14 -19 -22 -22 -30 -14 -9 9
-3 21 20 48 31 35 55 41 44 11z m876 -10 c0 -10 -84 -45 -109 -45 -31 0 -20
11 32 32 42 17 77 23 77 13z m185 -25 c-28 -29 -45 -31 -45 -5 0 17 28 34 54
35 17 0 16 -4 -9 -30z m-1037 -5 c-5 -22 -2 -25 16 -20 21 6 21 6 2 -9 -22
-18 -35 -20 -54 -8 -16 11 -4 45 14 38 8 -3 11 0 7 10 -3 7 0 14 7 14 8 0 11
-9 8 -25z m-847 -14 c-7 -12 -17 -18 -26 -15 -21 8 -19 18 8 30 28 13 31 10
18 -15z m1557 -62 c-26 -15 -148 -24 -148 -11 0 12 37 18 115 20 38 1 46 -1
33 -9z m302 -43 c-5 -5 1 -22 17 -43 14 -18 23 -36 19 -40 -7 -7 -4 -11 -45
50 -18 26 -37 47 -43 45 -14 -5 -5 -23 11 -20 8 2 10 -1 6 -8 -4 -7 2 -25 14
-41 13 -17 21 -35 18 -42 -2 -7 -8 -3 -15 10 -8 14 -18 20 -32 16 -23 -6 -27
-23 -6 -23 16 0 31 -18 23 -26 -3 -3 -19 2 -37 11 -37 19 -46 15 -30 -15 13
-24 4 -43 -10 -20 -7 11 -12 11 -23 2 -23 -19 -50 -4 -43 24 4 16 2 24 -7 24
-25 0 -26 -12 -6 -51 11 -22 15 -39 9 -39 -6 0 -20 22 -32 49 -20 49 -42 69
-53 50 -4 -5 2 -13 12 -17 19 -7 30 -52 13 -52 -6 0 -10 7 -10 15 0 17 -18 19
-40 5 -12 -8 -12 -14 3 -45 20 -42 21 -48 5 -43 -6 2 -17 19 -23 38 -6 19 -17
36 -23 38 -9 3 -10 -3 -3 -21 5 -14 7 -28 4 -31 -10 -10 -32 15 -26 30 3 9 -1
14 -13 14 -29 0 -4 16 47 29 38 11 46 16 42 32 -7 25 21 35 51 20 19 -11 32
-8 89 20 57 27 65 34 55 46 -10 12 -9 18 5 28 20 14 93 -3 77 -19z m-1722 -76
c55 -24 68 -26 75 -14 17 29 47 12 62 -35 5 -16 4 -21 -4 -17 -6 4 -17 -9 -27
-33 -9 -23 -20 -41 -25 -41 -12 0 -11 11 6 40 17 30 19 50 5 50 -6 0 -17 -18
-26 -40 -9 -22 -21 -40 -26 -40 -6 0 -7 7 -4 15 3 8 9 22 13 31 5 14 2 16 -20
10 -21 -5 -27 -3 -27 10 0 13 6 15 30 11 43 -9 46 8 4 21 -36 11 -36 11 -52
-29 -8 -21 -19 -39 -24 -39 -11 0 -10 27 2 35 18 11 10 26 -12 23 -16 -2 -24
3 -26 16 -3 13 0 17 9 14 40 -15 59 -18 59 -10 0 9 -43 32 -59 32 -4 0 -16
-16 -27 -35 -10 -19 -22 -35 -26 -35 -12 0 -10 8 8 35 18 28 8 35 -11 8 -18
-25 -45 -9 -45 27 0 16 5 30 10 30 6 0 10 -11 10 -25 0 -14 5 -25 10 -25 6 0
10 7 10 16 0 11 6 14 20 9 33 -11 22 10 -15 28 -19 9 -35 22 -35 28 0 6 20 -1
45 -15 25 -15 75 -40 113 -56z m1612 70 c0 -14 -78 -52 -98 -47 -11 2 3 13 38
29 30 15 56 27 58 27 1 1 2 -3 2 -9z m-192 -82 c-6 -16 -109 -48 -127 -39 -9
6 6 15 50 29 78 24 82 25 77 10z m-1143 -33 c55 -13 132 -30 170 -37 39 -7 60
-14 48 -16 -49 -8 -340 56 -348 77 -4 9 0 11 12 6 10 -3 63 -17 118 -30z m991
-20 c10 -8 28 -15 39 -15 14 0 16 -3 8 -11 -7 -7 -8 -21 -2 -42 11 -40 11 -47
-1 -47 -5 0 -10 6 -10 13 0 8 -10 13 -22 13 -15 -1 -27 7 -33 22 -11 26 -30
30 -20 5 14 -36 17 -73 7 -73 -6 0 -13 18 -17 40 -7 41 -19 51 -29 25 -3 -8
-15 -15 -26 -15 -11 0 -20 -5 -20 -10 0 -17 31 -24 40 -9 10 16 15 12 24 -18
7 -23 -7 -32 -19 -13 -4 6 -10 8 -15 5 -4 -3 -18 3 -31 13 -25 21 -19 42 12
42 10 0 19 5 19 11 0 6 -7 8 -16 5 -9 -3 -23 -6 -31 -6 -12 0 -14 -8 -9 -45 4
-26 3 -45 -2 -45 -5 0 -13 20 -17 45 -4 27 -10 43 -17 39 -6 -4 -7 -24 -3 -50
3 -26 2 -44 -3 -44 -5 0 -13 20 -16 45 -4 25 -12 45 -18 45 -6 0 -8 -10 -4
-25 5 -19 2 -25 -9 -25 -10 0 -15 7 -13 18 2 11 -1 18 -7 18 -6 -1 -9 -21 -7
-46 2 -38 1 -43 -10 -29 -7 9 -18 14 -24 12 -6 -2 -17 3 -24 12 -12 15 -60 22
-60 8 0 -3 7 -15 17 -25 9 -10 12 -18 7 -18 -9 0 -64 57 -64 67 0 2 10 1 21
-2 16 -5 20 -3 17 6 -3 8 -12 13 -21 11 -8 -1 -18 2 -21 7 -3 5 33 12 82 15
146 11 170 16 168 34 0 9 8 18 19 20 17 4 18 2 6 -12 -8 -9 -12 -18 -10 -20 7
-6 90 9 87 15 -4 10 33 49 47 49 6 0 20 -7 31 -15z m-1336 -16 c0 -11 -4 -17
-10 -14 -5 3 -10 13 -10 21 0 8 5 14 10 14 6 0 10 -9 10 -21z m280 11 c34 -10
174 -40 215 -46 11 -1 20 -3 20 -4 0 -1 16 -3 35 -5 25 -2 38 2 48 16 19 27
39 24 79 -11 27 -24 38 -28 48 -20 8 7 19 9 25 5 14 -9 13 -62 -2 -68 -10 -4
-9 -8 2 -16 8 -5 11 -13 7 -17 -7 -8 -47 24 -47 37 0 5 7 6 15 3 21 -8 19 2
-4 25 -24 24 -31 18 -31 -31 0 -21 -5 -38 -11 -38 -7 0 -9 10 -5 26 6 23 4 25
-21 22 -23 -2 -28 1 -28 19 0 41 -14 34 -20 -11 -4 -25 -11 -44 -15 -41 -5 3
-6 23 -3 45 7 51 -12 54 -20 3 -5 -30 -2 -42 15 -60 12 -13 17 -23 11 -23 -6
0 -16 7 -23 15 -7 8 -17 15 -22 15 -6 0 -5 -7 2 -15 10 -12 10 -15 -3 -15 -24
0 -30 18 -13 42 22 32 20 41 -8 34 -25 -6 -44 8 -26 19 5 3 10 14 9 23 0 11
-2 13 -6 4 -4 -10 -8 -10 -19 -1 -11 9 -14 7 -14 -14 0 -32 -9 -57 -21 -57 -5
0 -6 12 -3 27 6 23 5 26 -16 20 -13 -3 -28 0 -37 9 -17 16 -33 18 -33 4 0 -5
-4 -10 -10 -10 -5 0 -10 7 -10 16 0 13 8 15 35 12 44 -5 41 14 -4 23 -34 7
-51 -9 -51 -50 0 -12 -7 -21 -15 -21 -13 0 -14 4 -5 21 6 11 10 25 7 32 -2 7
-9 2 -16 -11 -16 -29 -39 -28 -51 4 -12 31 -12 34 -1 34 5 0 11 -9 14 -20 7
-25 27 -26 27 -1 0 15 5 18 22 13 13 -3 19 -1 15 5 -4 6 -25 13 -47 17 -22 3
-40 11 -40 16 0 13 7 12 50 0z m1460 6 c0 -3 -4 -8 -10 -11 -5 -3 -10 -1 -10
4 0 6 5 11 10 11 6 0 10 -2 10 -4z m-495 -16 c-3 -5 -13 -10 -21 -10 -8 0 -14
5 -14 10 0 6 9 10 21 10 11 0 17 -4 14 -10z m334 -27 c2 -2 2 -6 -1 -9 -9 -8
-68 24 -68 37 0 8 26 -2 69 -28z m-452 11 c-18 -18 -422 -31 -432 -14 -2 3 72
6 163 7 92 1 190 6 217 11 51 8 64 7 52 -4z m-895 -71 c6 -7 19 -13 29 -13 11
0 19 -5 19 -11 0 -6 -6 -9 -14 -6 -8 3 -32 11 -54 17 l-39 12 15 41 16 40 9
-34 c5 -19 13 -40 19 -46z m-148 53 c-3 -8 -12 -12 -20 -9 -17 6 -9 23 11 23
8 0 12 -6 9 -14z m1364 -28 c38 -5 37 -23 -3 -35 -27 -9 -35 -8 -35 2 0 7 -2
28 -5 46 -5 30 -4 32 6 12 6 -12 23 -23 37 -25z m209 36 c-3 -3 -12 -4 -19 -1
-8 3 -5 6 6 6 11 1 17 -2 13 -5z m-785 -46 c-7 -7 -12 -29 -12 -50 0 -21 -4
-38 -10 -38 -5 0 -10 5 -10 11 0 6 -6 9 -13 6 -20 -8 -32 4 -44 46 l-11 37 56
0 c44 0 53 -3 44 -12z m-452 -60 c0 -21 -3 -22 -70 -6 l-51 12 37 16 c41 20
84 8 84 -22z m502 -20 l19 -28 -30 0 c-30 0 -31 1 -31 48 1 40 2 44 12 27 6
-11 20 -32 30 -47z m432 43 c3 -5 -1 -11 -9 -15 -9 -3 -15 0 -15 9 0 16 16 20
24 6z m-856 -42 c-2 -10 -13 -12 -38 -8 -30 6 -31 7 -7 8 18 1 27 6 27 18 0
12 3 14 11 6 6 -6 9 -17 7 -24z m612 7 c0 -8 -4 -18 -10 -21 -5 -3 -10 3 -10
14 0 12 5 21 10 21 6 0 10 -6 10 -14z m125 4 c3 -5 -1 -10 -9 -10 -9 0 -16 5
-16 10 0 6 4 10 9 10 6 0 13 -4 16 -10z m-582 -20 c4 -16 0 -20 -18 -20 -18 0
-22 4 -18 20 3 11 11 20 18 20 7 0 15 -9 18 -20z m387 -6 c0 -2 -12 -4 -26 -4
-14 0 -23 4 -20 9 6 8 46 4 46 -5z m-320 -4 c0 -5 -5 -10 -11 -10 -5 0 -7 5
-4 10 3 6 8 10 11 10 2 0 4 -4 4 -10z m100 -6 c0 -2 -9 -4 -20 -4 -11 0 -20 4
-20 9 0 5 9 7 20 4 11 -3 20 -7 20 -9z"/>
<path d="M1870 2340 c-6 -11 -7 -20 -2 -20 10 0 32 21 32 32 0 16 -19 8 -30
-12z"/>
<path d="M2151 2238 c14 -32 21 -34 40 -12 12 14 11 16 -6 12 -11 -2 -26 3
-33 12 -10 12 -10 10 -1 -12z"/>
<path d="M787 2236 c-4 -9 -13 -13 -22 -10 -8 3 -15 3 -15 -1 0 -9 30 -38 31
-31 1 3 2 9 3 14 1 4 5 13 10 20 4 7 6 15 3 18 -2 3 -7 -2 -10 -10z"/>
<path d="M528 2072 c-27 -17 -37 -32 -19 -32 4 0 19 9 33 20 19 14 28 16 36 8
7 -7 15 -8 19 -4 8 8 -16 26 -32 25 -5 0 -22 -8 -37 -17z"/>
<path d="M556 2044 c-4 -9 -4 -19 -1 -22 2 -3 7 3 11 12 4 9 4 19 1 22 -2 3
-7 -3 -11 -12z"/>
<path d="M516 2015 c4 -8 10 -12 15 -9 14 8 10 24 -6 24 -9 0 -12 -6 -9 -15z"/>
<path d="M545 2000 c-3 -5 -1 -10 4 -10 6 0 11 5 11 10 0 6 -2 10 -4 10 -3 0
-8 -4 -11 -10z"/>
<path d="M2380 2046 c0 -8 5 -18 10 -21 6 -3 10 1 10 9 0 8 -4 18 -10 21 -5 3
-10 -1 -10 -9z"/>
<path d="M2401 2020 c-13 -12 -18 -20 -10 -20 16 1 49 24 49 34 0 11 -14 6
-39 -14z"/>
<path d="M1386 1975 c-13 -34 -7 -46 22 -43 21 2 27 8 27 28 0 30 -38 41 -49
15z m34 -15 c0 -5 -4 -10 -10 -10 -5 0 -10 5 -10 10 0 6 5 10 10 10 6 0 10 -4
10 -10z"/>
<path d="M1307 1744 c-26 -14 -53 -24 -60 -23 -32 4 -39 -2 -35 -26 6 -29 -14
-38 -71 -33 -35 3 -35 3 -46 -54 -7 -31 -18 -70 -25 -88 -19 -46 -3 -58 56
-42 25 7 49 10 54 7 11 -7 21 21 14 40 -8 20 20 20 36 0 20 -24 50 -19 50 9 0
24 21 36 68 36 12 0 25 7 28 15 4 8 17 15 29 15 13 0 27 5 31 11 7 11 -24 79
-42 91 -5 4 -9 21 -8 37 3 39 -13 39 -79 5z m67 -1 c4 -4 -20 -19 -54 -34 -33
-15 -60 -33 -60 -39 0 -7 6 -10 13 -7 6 2 25 -7 40 -19 16 -13 35 -24 44 -24
21 0 10 -25 -13 -27 -71 -9 -84 -15 -84 -39 0 -13 -4 -24 -10 -24 -5 0 -10 4
-10 10 0 5 -9 14 -21 20 -16 9 -25 8 -40 -6 -13 -12 -16 -21 -9 -28 14 -14 12
-26 -4 -20 -7 3 -30 -2 -50 -10 -40 -17 -43 -12 -21 30 8 16 15 41 15 57 0 21
5 27 23 27 20 1 20 2 5 11 -27 15 -22 30 7 23 14 -3 41 -3 61 0 33 7 35 9 29
37 -5 23 -4 28 8 23 8 -3 37 6 64 20 54 28 57 29 67 19z m-27 -59 c-21 -19
-32 -23 -40 -15 -7 7 -1 15 24 25 47 21 48 20 16 -10z m43 -6 c0 -6 10 -22 22
-35 l21 -23 -26 0 c-18 0 -27 5 -27 16 0 8 -4 12 -10 9 -21 -13 -31 7 -14 26
19 22 34 25 34 7z"/>
<path d="M1695 1585 c-16 -8 -40 -14 -51 -15 -27 0 -39 -27 -20 -46 8 -8 18
-14 22 -14 4 0 22 -12 41 -26 42 -32 65 -28 73 11 4 17 12 40 19 53 26 49 -17
67 -84 37z m70 -5 c3 -5 -1 -20 -9 -32 -9 -12 -16 -19 -16 -15 0 5 -5 5 -11 2
-7 -5 -4 -13 7 -26 16 -17 16 -19 0 -25 -11 -4 -27 2 -44 18 -15 14 -36 28
-47 33 -16 6 -11 9 28 20 27 7 53 17 60 24 14 14 24 14 32 1z"/>
<path d="M1464 1565 c-6 -14 55 -117 76 -130 6 -4 5 -13 -2 -24 -18 -29 -3
-51 34 -51 18 0 51 -2 74 -6 29 -4 43 -2 52 9 10 12 -6 32 -97 116 -60 55
-114 101 -120 101 -6 0 -14 -7 -17 -15z m52 -33 c21 -20 70 -65 108 -100 64
-57 67 -62 42 -62 -35 0 -66 17 -66 35 0 8 -4 15 -10 15 -5 0 -10 -9 -10 -19
0 -25 -15 -34 -29 -18 -8 10 -5 18 10 30 21 19 18 37 -7 37 -8 0 -21 15 -29
34 -8 19 -19 37 -25 41 -10 6 -34 45 -27 45 2 0 21 -17 43 -38z"/>
<path d="M590 1534 c0 -8 5 -12 10 -9 6 4 8 11 5 16 -9 14 -15 11 -15 -7z"/>
<path d="M2563 1444 c2 -30 6 -40 19 -41 13 -1 15 2 9 15 -5 9 -14 28 -19 42
-10 23 -10 21 -9 -16z"/>
<path d="M2339 1470 c-10 -51 -1 -81 32 -112 20 -20 34 -24 24 -8 -4 6 -1 17
5 25 14 17 -1 20 -17 4 -14 -14 -37 24 -29 49 3 9 1 24 -4 32 -5 8 -10 13 -11
10z"/>
<path d="M2601 1446 c-9 -10 -7 -17 6 -27 14 -12 15 -12 9 0 -5 8 -4 16 4 21
7 5 8 10 2 14 -5 3 -15 0 -21 -8z"/>
<path d="M2274 1356 c-18 -8 -35 -20 -39 -27 -6 -9 -3 -10 11 -4 10 4 38 13
62 19 23 7 39 15 36 19 -11 10 -35 8 -70 -7z"/>
<path d="M2460 1349 c0 -5 5 -7 10 -4 6 3 10 8 10 11 0 2 -4 4 -10 4 -5 0 -10
-5 -10 -11z"/>
<path d="M2405 970 c-3 -5 -2 -10 4 -10 5 0 13 5 16 10 3 6 2 10 -4 10 -5 0
-13 -4 -16 -10z"/>
<path d="M680 795 c7 -8 17 -15 22 -15 6 0 5 7 -2 15 -7 8 -17 15 -22 15 -6 0
-5 -7 2 -15z"/>
<path d="M1503 757 c-39 -15 -58 -33 -23 -22 14 4 40 9 58 12 17 3 32 9 32 14
0 12 -28 10 -67 -4z"/>
<path d="M991 739 c0 -13 3 -18 6 -11 2 6 10 12 17 12 9 0 10 -10 2 -45 -10
-41 -13 -45 -41 -45 -17 0 -36 5 -43 12 -9 9 -12 9 -12 0 0 -14 10 -18 63 -26
31 -4 37 -2 37 13 0 10 7 37 15 60 12 34 12 41 0 41 -7 0 -20 3 -29 6 -12 5
-16 0 -15 -17z"/>
<path d="M1370 740 c-14 -4 -50 -8 -81 -9 -56 -1 -56 -1 -67 -38 -21 -70 -20
-78 13 -80 28 -3 29 -2 7 7 -16 7 -22 16 -18 27 2 10 7 27 10 39 5 17 19 22
82 31 42 6 81 16 87 22 12 12 3 13 -33 1z"/>
<path d="M1670 720 c8 -5 26 -9 40 -9 23 0 23 1 5 9 -11 5 -29 9 -40 9 -17 1
-17 -1 -5 -9z"/>
<path d="M1446 703 c-6 -14 -5 -15 5 -6 7 7 10 15 7 18 -3 3 -9 -2 -12 -12z"/>
<path d="M950 690 c0 -5 5 -10 10 -10 6 0 10 5 10 10 0 6 -4 10 -10 10 -5 0
-10 -4 -10 -10z"/>
<path d="M2020 661 c0 -4 -37 -11 -82 -14 -51 -3 -100 -14 -128 -26 -25 -11
-39 -21 -32 -21 7 0 25 6 40 14 15 7 71 17 125 21 73 5 97 10 97 21 0 8 -4 14
-10 14 -5 0 -10 -4 -10 -9z"/>
<path d="M1340 635 c0 -8 4 -15 10 -15 5 0 7 7 4 15 -4 8 -8 15 -10 15 -2 0
-4 -7 -4 -15z"/>
<path d="M1570 606 c0 -2 7 -7 16 -10 8 -3 12 -2 9 4 -6 10 -25 14 -25 6z"/>
<path d="M1411 584 c0 -11 3 -14 6 -6 3 7 2 16 -1 19 -3 4 -6 -2 -5 -13z"/>
<path d="M930 582 c0 -15 24 -32 45 -32 11 0 43 -10 70 -23 38 -17 60 -21 90
-16 49 8 45 11 -17 14 -27 1 -55 9 -64 16 -18 14 -20 15 -71 17 -22 1 -33 7
-33 17 0 8 -4 15 -10 15 -5 0 -10 -4 -10 -8z"/>
<path d="M1010 570 c0 -5 5 -10 10 -10 6 0 10 5 10 10 0 6 -4 10 -10 10 -5 0
-10 -4 -10 -10z"/>
<path d="M2010 573 c0 -5 -15 -14 -33 -21 -18 -6 -42 -19 -52 -27 -13 -10 -4
-8 25 5 25 11 53 20 63 20 19 0 23 15 7 25 -5 3 -10 2 -10 -2z"/>
<path d="M645 524 c3 -13 -3 -37 -16 -58 l-21 -36 58 -26 c109 -48 189 -75
322 -110 145 -37 152 -38 152 -25 0 5 -17 12 -37 15 -108 19 -181 40 -176 51
2 8 -10 15 -34 20 -20 4 -50 13 -65 21 -15 8 -33 14 -40 14 -7 0 5 -9 27 -20
23 -11 29 -17 15 -14 -24 6 -192 73 -198 79 -2 2 4 15 13 29 l17 25 41 -27
c23 -15 44 -30 45 -35 2 -4 8 -5 13 -1 5 3 -15 22 -45 41 -30 20 -59 46 -65
57 l-11 21 5 -21z"/>
<path d="M2010 530 c-8 -4 -34 -16 -56 -25 -39 -16 -143 -109 -133 -119 9 -9
92 15 120 35 28 19 95 107 87 114 -1 1 -10 -1 -18 -5z m-46 -61 c-30 -32 -74
-59 -95 -59 -19 0 31 49 71 71 51 26 58 23 24 -12z"/>
<path d="M970 523 c0 -15 82 -103 109 -117 30 -15 101 -30 101 -21 0 16 -88
97 -124 114 -54 25 -86 34 -86 24z m124 -70 c42 -30 59 -53 38 -53 -16 0 -103
62 -112 81 -9 16 -8 17 9 11 11 -4 40 -22 65 -39z"/>
<path d="M2310 489 c-19 -15 -29 -29 -22 -29 6 0 12 4 12 9 0 5 10 11 22 14
21 6 38 -6 38 -28 0 -14 -125 -68 -142 -62 -7 2 -29 -4 -48 -13 -19 -9 -48
-20 -64 -24 -17 -4 -35 -13 -40 -20 -13 -16 -132 -46 -183 -46 -29 0 -34 -3
-25 -12 24 -24 294 57 468 139 l61 29 -18 33 c-10 18 -19 34 -21 36 -2 2 -19
-10 -38 -26z"/>
<path d="M1815 499 c-66 -6 -92 -14 -147 -46 -37 -21 -68 -41 -68 -45 0 -4 21
6 48 23 58 37 131 59 193 59 26 0 51 5 54 10 3 6 5 9 3 9 -2 -1 -39 -5 -83
-10z"/>
<path d="M1825 463 c-16 -2 -49 -6 -72 -9 -37 -4 -153 -68 -153 -84 0 -3 23
-7 51 -8 37 -1 66 5 103 22 48 22 133 86 111 84 -5 -1 -23 -3 -40 -5z m-32
-38 c-31 -22 -101 -45 -132 -44 -21 0 -15 6 34 30 33 16 73 29 90 29 29 0 29
0 8 -15z"/>
<path d="M1160 435 c41 -43 117 -75 182 -75 32 0 58 4 58 8 0 12 -102 71 -141
82 -19 6 -54 10 -78 10 l-44 0 23 -25z m124 -15 c30 -12 60 -28 67 -36 11 -14
8 -15 -27 -8 -42 7 -121 41 -130 55 -9 15 33 10 90 -11z"/>
<path d="M2244 445 c-10 -8 -14 -15 -8 -15 6 0 17 7 24 15 16 19 9 19 -16 0z"/>
<path d="M1370 416 c0 -2 7 -7 16 -10 8 -3 12 -2 9 4 -6 10 -25 14 -25 6z"/>
<path d="M1540 390 l-35 -7 43 -2 c23 0 42 4 42 9 0 6 -3 9 -7 9 -5 -1 -24 -5
-43 -9z"/>
<path d="M1428 383 c12 -2 32 -2 45 0 12 2 2 4 -23 4 -25 0 -35 -2 -22 -4z"/>
<path d="M1825 370 c-33 -5 -71 -13 -85 -18 -23 -8 -21 -10 32 -26 72 -21 125
-20 218 3 76 19 77 25 5 35 -22 3 -56 7 -75 10 -19 2 -62 1 -95 -4z m135 -19
c38 -12 -100 -25 -147 -15 l-38 8 40 6 c54 10 115 10 145 1z"/>
<path d="M995 356 l-60 -12 72 -18 c70 -17 162 -18 241 -1 44 10 40 20 -12 32
-61 14 -169 13 -241 -1z m210 -16 c8 -12 -141 -12 -170 0 -13 6 11 9 72 9 51
1 95 -3 98 -9z"/>
<path d="M1397 349 c-74 -8 -237 -63 -237 -80 0 -4 17 -5 38 -3 20 2 66 5 101
8 46 3 82 13 127 37 35 17 64 36 64 40 0 5 -3 8 -7 8 -5 -1 -43 -5 -86 -10z
m26 -20 c-14 -14 -111 -39 -153 -38 -34 0 -34 1 -10 11 26 10 134 36 160 37
10 1 11 -2 3 -10z"/>
<path d="M1525 344 c55 -44 128 -67 224 -72 105 -5 111 3 26 33 -27 10 -54 22
-60 25 -14 10 -134 30 -176 30 -33 -1 -33 -1 -14 -16z m131 -15 c32 -6 70 -17
84 -25 l25 -13 -25 -1 c-30 0 -135 26 -159 40 -14 8 -14 9 0 10 8 0 42 -5 75
-11z"/>
<path d="M1428 288 c-34 -18 -80 -33 -115 -37 -56 -7 -54 -7 54 -15 61 -4 169
-5 240 -1 l128 8 -61 13 c-34 7 -76 20 -93 28 -17 9 -31 14 -31 11 0 -3 18
-14 40 -24 l41 -18 -77 -6 c-43 -3 -99 -3 -125 0 l-48 6 60 29 c39 19 67 27
81 23 14 -5 18 -3 14 4 -12 18 -47 11 -108 -21z"/>
<path d="M400 1777 c0 -1 -4 -17 -9 -35 -8 -26 -7 -32 5 -32 8 0 13 4 10 9 -4
5 -2 21 4 35 6 17 6 26 0 26 -6 0 -10 -1 -10 -3z"/>
<path d="M2523 1773 c2 -41 17 -47 40 -17 10 13 13 24 7 24 -6 0 -13 -7 -17
-16 -5 -13 -9 -10 -19 12 l-12 29 1 -32z"/>
<path d="M1980 1433 c-38 -7 -51 -22 -44 -52 10 -39 21 -46 34 -20 7 13 24 36
38 52 26 27 24 29 -28 20z m0 -27 c0 -3 -4 -8 -10 -11 -5 -3 -10 -1 -10 4 0 6
5 11 10 11 6 0 10 -2 10 -4z"/>
<path d="M537 969 c7 -7 15 -10 18 -7 3 3 -2 9 -12 12 -14 6 -15 5 -6 -5z"/>
<path d="M2405 1100 c-3 -5 -1 -10 4 -10 6 0 11 5 11 10 0 6 -2 10 -4 10 -3 0
-8 -4 -11 -10z"/>
<path d="M430 1091 c-5 -11 -10 -29 -10 -40 0 -12 -5 -21 -11 -21 -6 0 -8 8
-4 19 3 11 1 22 -5 26 -16 10 -19 4 -13 -27 4 -22 10 -27 32 -25 23 2 26 6 28
45 2 47 -1 51 -17 23z"/>
<path d="M2514 1069 c1 -40 3 -44 26 -45 14 -1 19 1 13 3 -7 3 -13 15 -13 27
0 12 -6 30 -13 41 -13 16 -14 13 -13 -26z"/>
<path d="M2555 1070 c-11 -18 5 -31 21 -16 8 8 14 17 14 20 0 10 -28 7 -35 -4z"/>
<path d="M655 960 c-3 -5 -1 -10 4 -10 6 0 11 5 11 10 0 6 -2 10 -4 10 -3 0
-8 -4 -11 -10z"/>
<path d="M837 829 c7 -7 15 -10 18 -7 3 3 -2 9 -12 12 -14 6 -15 5 -6 -5z"/>
<path d="M2210 847 c0 -1 4 -18 10 -37 7 -24 6 -36 -1 -41 -6 -3 1 -6 15 -6
18 0 24 3 17 11 -5 6 -12 26 -16 44 -3 17 -11 32 -16 32 -5 0 -9 -1 -9 -3z"/>
<path d="M2257 805 c-9 -22 8 -26 21 -4 10 15 10 19 -2 19 -8 0 -16 -7 -19
-15z"/>
<path d="M2780 572 c6 -12 8 -27 5 -32 -3 -6 -1 -10 4 -10 16 0 13 23 -5 46
-14 18 -15 18 -4 -4z"/>
<path d="M2465 430 c3 -5 8 -10 11 -10 2 0 4 5 4 10 0 6 -5 10 -11 10 -5 0 -7
-4 -4 -10z"/>
<path d="M2492 413 c-9 -3 -7 -11 7 -31 10 -15 21 -34 24 -42 3 -10 6 -11 6
-2 1 7 -6 24 -15 37 -9 13 -13 29 -9 35 7 11 6 11 -13 3z"/>
<path d="M475 379 c-4 -6 -5 -12 -2 -15 2 -3 7 2 10 11 7 17 1 20 -8 4z"/>
<path d="M476 325 c-9 -26 -7 -32 5 -12 6 10 9 21 6 23 -2 3 -7 -2 -11 -11z"/>
<path d="M1335 550 c3 -5 8 -10 11 -10 2 0 4 5 4 10 0 6 -5 10 -11 10 -5 0 -7
-4 -4 -10z"/>
<path d="M2367 324 c-11 -11 3 -24 18 -18 8 4 12 10 9 15 -6 11 -18 12 -27 3z"/>
<path d="M2320 300 c-12 -7 -12 -12 -2 -22 9 -9 12 -9 12 0 0 6 7 9 16 5 11
-4 15 -2 12 7 -6 18 -20 22 -38 10z"/>
<path d="M2275 281 c-3 -5 -1 -12 4 -16 6 -3 8 -12 4 -20 -6 -17 12 -21 22 -5
8 13 -3 50 -15 50 -5 0 -11 -4 -15 -9z"/>
<path d="M806 272 c-3 -6 -1 -14 5 -17 15 -10 25 3 12 16 -7 7 -13 7 -17 1z"/>
<path d="M1935 209 c-10 -15 -4 -18 27 -12 15 3 25 9 22 14 -7 12 -41 11 -49
-2z"/>
<path d="M1982 168 c2 -13 8 -23 13 -23 6 0 11 10 13 23 2 15 -2 22 -13 22
-11 0 -15 -7 -13 -22z"/>
<path d="M1615 130 c-9 -15 24 -25 38 -11 6 6 18 11 26 11 11 0 11 -3 -4 -13
-12 -10 -14 -16 -7 -21 17 -10 32 2 32 25 0 16 -7 19 -39 19 -22 0 -43 -5 -46
-10z"/>
<path d="M1260 172 c0 -5 11 -12 25 -15 16 -3 24 0 22 7 -4 14 -47 21 -47 8z"/>
<path d="M1075 160 c-3 -6 1 -13 10 -16 19 -8 30 0 20 15 -8 14 -22 14 -30 1z"/>
<path d="M1177 146 c-6 -15 1 -26 15 -26 11 0 10 27 -1 34 -5 3 -11 0 -14 -8z"/>
<path d="M1302 129 c2 -6 8 -10 13 -10 5 0 11 4 13 10 2 6 -4 11 -13 11 -9 0
-15 -5 -13 -11z"/>
<path d="M1380 130 c0 -5 5 -10 10 -10 6 0 10 5 10 10 0 6 -4 10 -10 10 -5 0
-10 -4 -10 -10z"/>
<path d="M1440 131 c0 -6 10 -11 22 -11 21 0 21 -1 3 -13 -13 -11 -15 -16 -6
-22 17 -10 34 8 29 31 -3 20 -48 33 -48 15z"/>
</g>
</svg>
