<?xml version="1.0" standalone="no"?>
<!DOCTYPE svg PUBLIC "-//W3C//DTD SVG 20010904//EN"
 "http://www.w3.org/TR/2001/REC-SVG-20010904/DTD/svg10.dtd">
<svg version="1.0" xmlns="http://www.w3.org/2000/svg"
 width="192.000000pt" height="192.000000pt" viewBox="0 0 192.000000 192.000000"
 preserveAspectRatio="xMidYMid meet">
<metadata>
Created by potrace 1.16, written by Peter Selinger 2001-2019
</metadata>
<g transform="translate(0.000000,192.000000) scale(0.100000,-0.100000)"
fill="#000000" stroke="none">
<path d="M240 1670 c0 -5 7 -7 15 -4 8 4 15 8 15 10 0 2 -7 4 -15 4 -8 0 -15
-4 -15 -10z"/>
<path d="M1105 1670 c-3 -5 -1 -10 4 -10 6 0 11 5 11 10 0 6 -2 10 -4 10 -3 0
-8 -4 -11 -10z"/>
<path d="M1410 1676 c0 -2 9 -6 20 -9 11 -3 18 -1 14 4 -5 9 -34 13 -34 5z"/>
<path d="M1470 1670 c0 -5 5 -10 11 -10 5 0 7 5 4 10 -3 6 -8 10 -11 10 -2 0
-4 -4 -4 -10z"/>
<path d="M458 1663 c6 -2 18 -2 25 0 6 3 1 5 -13 5 -14 0 -19 -2 -12 -5z"/>
<path d="M666 1655 c4 -8 8 -15 10 -15 2 0 4 7 4 15 0 8 -4 15 -10 15 -5 0 -7
-7 -4 -15z"/>
<path d="M701 1665 c1 -19 18 -51 18 -35 0 8 -4 22 -9 30 -5 8 -9 11 -9 5z"/>
<path d="M890 1660 c0 -5 5 -10 10 -10 6 0 10 5 10 10 0 6 -4 10 -10 10 -5 0
-10 -4 -10 -10z"/>
<path d="M988 1663 c7 -3 16 -2 19 1 4 3 -2 6 -13 5 -11 0 -14 -3 -6 -6z"/>
<path d="M1140 1660 c0 -5 5 -10 10 -10 6 0 10 5 10 10 0 6 -4 10 -10 10 -5 0
-10 -4 -10 -10z"/>
<path d="M1391 1654 c0 -11 3 -14 6 -6 3 7 2 16 -1 19 -3 4 -6 -2 -5 -13z"/>
<path d="M500 1649 c0 -5 5 -7 10 -4 6 3 10 8 10 11 0 2 -4 4 -10 4 -5 0 -10
-5 -10 -11z"/>
<path d="M935 1649 c-11 -17 1 -21 15 -4 8 9 8 15 2 15 -6 0 -14 -5 -17 -11z"/>
<path d="M1501 1644 c0 -11 3 -14 6 -6 3 7 2 16 -1 19 -3 4 -6 -2 -5 -13z"/>
<path d="M315 1626 c-31 -31 -31 -33 1 -96 20 -39 32 -52 55 -57 36 -7 37 -19
2 -28 -30 -7 -82 -61 -83 -85 0 -9 7 -26 16 -39 14 -20 22 -22 68 -17 59 6
136 40 136 61 0 12 -4 12 -27 0 -59 -29 -79 -34 -118 -32 -50 3 -56 23 -18 64
19 20 43 33 71 38 40 6 60 25 27 25 -8 0 -23 9 -32 20 -10 11 -25 20 -35 20
-11 0 -26 17 -39 46 -19 39 -20 47 -8 60 31 30 128 -23 166 -90 9 -16 12 -13
27 26 14 36 26 48 57 62 21 10 44 14 50 10 17 -10 2 -85 -21 -107 -11 -10 -20
-22 -20 -27 0 -5 -9 -12 -20 -15 -11 -4 -18 -11 -15 -16 11 -16 26 -10 65 30
30 30 40 50 46 87 6 42 4 50 -16 66 -29 24 -37 23 -92 -12 -31 -20 -48 -37
-48 -50 0 -18 -2 -19 -20 -8 -11 7 -20 18 -20 24 0 17 -25 35 -62 44 -18 4
-41 11 -50 15 -12 4 -25 -2 -43 -19z"/>
<path d="M999 1634 c-27 -11 -43 -29 -67 -74 -36 -66 -38 -74 -17 -67 17 7 30
-9 15 -18 -23 -14 -7 -22 39 -17 26 2 51 0 54 -5 3 -5 11 -41 17 -79 14 -86
41 -141 96 -195 56 -55 68 -43 16 16 -52 60 -70 99 -86 192 -15 86 -33 108
-80 99 -22 -5 -27 -3 -22 9 3 9 0 15 -10 15 -9 0 -14 3 -12 8 33 67 45 83 74
92 43 14 63 4 135 -69 30 -31 83 -82 117 -114 34 -32 92 -104 129 -160 65 -98
207 -367 198 -375 -7 -8 -161 108 -238 178 -80 74 -161 185 -208 283 -27 56
-29 59 -25 26 14 -111 141 -278 313 -413 58 -45 64 -54 88 -125 30 -91 30 -91
7 -91 -14 0 -23 15 -37 60 -10 34 -22 63 -27 66 -10 6 -1 -56 13 -94 9 -24 -4
-62 -21 -62 -4 0 -13 23 -19 51 -31 146 -43 189 -52 189 -6 0 -8 -8 -5 -17 2
-10 12 -63 22 -118 26 -153 34 -165 75 -124 12 12 37 23 56 25 20 2 38 6 42 9
5 5 -15 72 -45 148 -5 14 5 10 39 -14 26 -18 50 -29 54 -25 36 36 -203 474
-322 589 -24 23 -81 79 -128 125 -46 45 -91 82 -100 82 -8 0 -21 2 -29 5 -7 2
-29 -3 -49 -11z"/>
<path d="M256 1601 c4 -28 3 -41 -4 -37 -6 4 -8 -2 -4 -16 5 -21 6 -21 15 6 6
18 6 39 -1 59 -11 30 -11 29 -6 -12z"/>
<path d="M900 1610 c0 -5 5 -10 10 -10 6 0 10 5 10 10 0 6 -4 10 -10 10 -5 0
-10 -4 -10 -10z"/>
<path d="M1430 1610 c0 -6 -22 -44 -50 -85 -33 -49 -46 -76 -39 -81 12 -7 44
28 55 60 6 17 7 16 18 -5 7 -16 22 -25 41 -27 41 -4 139 31 143 51 3 14 -4 14
-54 -4 -31 -11 -68 -19 -83 -17 -21 2 -25 7 -23 28 2 14 10 38 18 54 18 37 18
36 -6 36 -11 0 -20 -5 -20 -10z"/>
<path d="M1491 1601 c-1 -20 1 -21 14 -11 16 14 21 25 6 16 -5 -4 -12 0 -14 6
-3 7 -6 2 -6 -11z"/>
<path d="M1365 1600 c-3 -5 -1 -10 4 -10 6 0 11 5 11 10 0 6 -2 10 -4 10 -3 0
-8 -4 -11 -10z"/>
<path d="M840 1596 c0 -2 7 -9 15 -16 9 -7 15 -8 15 -2 0 5 -7 12 -15 16 -8 3
-15 4 -15 2z"/>
<path d="M1577 1587 c3 -5 11 -6 18 -3 7 2 17 0 22 -5 6 -6 10 -4 10 5 0 10
-9 14 -28 13 -15 -1 -25 -6 -22 -10z"/>
<path d="M1650 1590 c0 -5 5 -10 10 -10 6 0 10 5 10 10 0 6 -4 10 -10 10 -5 0
-10 -4 -10 -10z"/>
<path d="M815 1580 c-3 -5 -1 -10 4 -10 6 0 11 5 11 10 0 6 -2 10 -4 10 -3 0
-8 -4 -11 -10z"/>
<path d="M880 1581 c0 -6 4 -13 10 -16 6 -3 7 1 4 9 -7 18 -14 21 -14 7z"/>
<path d="M1265 1580 c3 -5 8 -10 11 -10 2 0 4 5 4 10 0 6 -5 10 -11 10 -5 0
-7 -4 -4 -10z"/>
<path d="M1514 1578 c-3 -5 -3 -12 0 -15 3 -4 6 -2 6 4 0 6 9 9 20 6 11 -3 20
-3 20 0 0 10 -40 15 -46 5z"/>
<path d="M994 1565 c-4 -9 -4 -18 -1 -21 10 -10 48 7 44 19 -6 19 -36 20 -43
2z"/>
<path d="M1216 1571 c-3 -5 1 -11 9 -15 8 -3 15 -1 15 4 0 13 -18 22 -24 11z"/>
<path d="M405 1535 c22 -19 47 -35 55 -34 9 0 -1 14 -24 34 -22 19 -46 35 -55
35 -10 -1 -1 -13 24 -35z"/>
<path d="M556 1530 c-29 -43 -31 -50 -16 -50 10 0 60 69 60 82 0 19 -19 5 -44
-32z"/>
<path d="M1065 1550 c3 -5 11 -10 16 -10 6 0 7 5 4 10 -3 6 -11 10 -16 10 -6
0 -7 -4 -4 -10z"/>
<path d="M713 1542 c-7 -5 -24 -36 -38 -71 -13 -34 -40 -80 -59 -101 -30 -33
-86 -128 -86 -145 0 -3 7 -5 15 -5 8 0 26 21 39 48 13 26 42 70 65 97 22 27
48 71 56 96 21 61 35 73 77 63 18 -4 36 -7 40 -6 15 4 3 -44 -15 -65 -27 -30
-13 -42 16 -15 13 12 31 22 40 22 22 0 22 9 0 25 -17 13 -17 14 0 33 17 19 16
19 -44 26 -78 8 -91 8 -106 -2z"/>
<path d="M1640 1526 c0 -14 4 -27 9 -30 5 -3 9 6 9 19 0 14 -4 28 -9 31 -5 3
-9 -6 -9 -20z"/>
<path d="M1095 1521 c-3 -5 -1 -12 4 -15 5 -3 11 1 15 9 6 16 -9 21 -19 6z"/>
<path d="M1309 1503 c-13 -16 -12 -17 4 -4 9 7 17 15 17 17 0 8 -8 3 -21 -13z"/>
<path d="M763 1503 c-18 -6 -16 -33 1 -33 19 0 31 19 20 30 -5 4 -15 5 -21 3z"/>
<path d="M1125 1470 c-3 -5 -1 -10 4 -10 6 0 11 5 11 10 0 6 -2 10 -4 10 -3 0
-8 -4 -11 -10z"/>
<path d="M1525 1439 c-49 -22 -98 -43 -107 -46 -10 -3 -18 -12 -18 -20 0 -12
7 -14 33 -8 17 4 63 10 101 14 40 3 71 11 73 18 3 9 -9 11 -46 6 -28 -3 -51
-4 -51 -1 0 3 27 15 60 27 36 13 60 28 60 37 0 19 -2 19 -105 -27z"/>
<path d="M1657 1460 c-3 -11 -3 -20 -1 -20 2 0 8 9 14 20 6 11 7 20 2 20 -6 0
-12 -9 -15 -20z"/>
<path d="M500 1451 c0 -19 52 -101 61 -95 15 9 11 24 -18 65 -27 37 -43 49
-43 30z"/>
<path d="M1144 1449 c-5 -9 -2 -10 11 -5 11 4 22 1 27 -6 7 -10 9 -9 5 2 -5
19 -33 25 -43 9z"/>
<path d="M265 1420 c3 -5 11 -10 16 -10 6 0 7 5 4 10 -3 6 -11 10 -16 10 -6 0
-7 -4 -4 -10z"/>
<path d="M1380 1426 c0 -2 7 -7 16 -10 8 -3 12 -2 9 4 -6 10 -25 14 -25 6z"/>
<path d="M1635 1420 c-3 -5 -2 -10 4 -10 5 0 13 5 16 10 3 6 2 10 -4 10 -5 0
-13 -4 -16 -10z"/>
<path d="M425 1403 c-45 -15 -68 -33 -43 -33 19 0 80 20 91 30 17 15 -9 17
-48 3z"/>
<path d="M242 1390 c0 -14 2 -19 5 -12 2 6 2 18 0 25 -3 6 -5 1 -5 -13z"/>
<path d="M776 1397 c-26 -9 -46 -45 -46 -84 0 -14 -16 -48 -36 -76 -21 -30
-32 -53 -26 -55 6 -2 14 -4 17 -5 11 -4 75 109 75 133 0 46 26 70 75 70 35 0
43 -3 39 -15 -4 -8 -1 -15 5 -15 6 0 -1 -16 -14 -36 -18 -27 -25 -50 -25 -85
0 -27 5 -49 10 -49 6 0 10 16 10 35 0 41 32 109 57 124 17 10 16 11 -4 17 -24
7 -30 19 -13 29 22 14 7 20 -45 20 -30 0 -66 -4 -79 -8z"/>
<path d="M972 1380 c0 -14 2 -19 5 -12 2 6 2 18 0 25 -3 6 -5 1 -5 -13z"/>
<path d="M1220 1392 c0 -5 7 -15 15 -22 8 -7 15 -8 15 -2 0 5 -7 15 -15 22 -8
7 -15 8 -15 2z"/>
<path d="M1630 1380 c0 -5 7 -10 16 -10 8 0 12 5 9 10 -3 6 -10 10 -16 10 -5
0 -9 -4 -9 -10z"/>
<path d="M261 1354 c0 -11 3 -14 6 -6 3 7 2 16 -1 19 -3 4 -6 -2 -5 -13z"/>
<path d="M1190 1360 c-8 -5 -12 -12 -9 -15 4 -3 12 1 19 10 14 17 11 19 -10 5z"/>
<path d="M810 1340 c0 -11 4 -20 9 -20 13 0 32 26 24 33 -13 14 -33 6 -33 -13z"/>
<path d="M262 1298 c2 -6 10 -14 16 -16 7 -2 10 2 6 12 -7 18 -28 22 -22 4z"/>
<path d="M1310 1301 c0 -6 4 -13 10 -16 6 -3 7 1 4 9 -7 18 -14 21 -14 7z"/>
<path d="M806 1285 c-9 -26 -7 -32 5 -12 6 10 9 21 6 23 -2 3 -7 -2 -11 -11z"/>
<path d="M417 1265 c-21 -7 -41 -16 -45 -20 -11 -10 -10 -79 1 -100 6 -11 12
-37 13 -58 1 -26 11 -48 28 -66 14 -15 26 -30 26 -33 0 -3 -26 -15 -59 -27
-70 -25 -81 -37 -88 -91 -5 -33 -3 -40 11 -40 12 0 16 9 16 35 0 40 15 53 110
90 85 33 117 32 163 -6 40 -33 71 -31 40 3 -31 34 -93 61 -128 55 -27 -4 -38
0 -64 27 -17 17 -31 40 -31 49 0 16 2 16 23 3 36 -23 67 -29 67 -14 0 7 -18
20 -39 29 -36 15 -80 63 -69 74 3 3 19 -2 37 -11 24 -12 46 -14 89 -9 40 4 70
2 101 -9 53 -19 51 -19 51 -3 0 24 -95 50 -155 42 -54 -6 -115 12 -115 35 0
14 32 28 79 36 22 4 41 10 41 15 0 13 -60 10 -103 -6z"/>
<path d="M647 1263 c5 -12 3 -14 -8 -8 -8 5 -11 4 -6 0 4 -5 14 -10 22 -11 12
-2 12 2 5 17 -13 23 -22 25 -13 2z"/>
<path d="M910 1266 c0 -11 15 -14 60 -15 46 0 60 3 60 15 0 11 -14 14 -60 14
-45 0 -60 -4 -60 -14z"/>
<path d="M1340 1259 c0 -5 5 -7 10 -4 6 3 10 8 10 11 0 2 -4 4 -10 4 -5 0 -10
-5 -10 -11z"/>
<path d="M1265 1250 c3 -5 8 -10 11 -10 2 0 4 5 4 10 0 6 -5 10 -11 10 -5 0
-7 -4 -4 -10z"/>
<path d="M1506 1244 c-4 -9 -4 -19 -1 -22 2 -3 7 3 11 12 4 9 4 19 1 22 -2 3
-7 -3 -11 -12z"/>
<path d="M1300 1241 c0 -35 171 -211 204 -211 6 0 -14 24 -44 53 -30 28 -79
79 -107 111 -29 33 -53 54 -53 47z"/>
<path d="M1360 1247 c0 -16 21 -47 33 -47 8 0 9 3 1 8 -6 4 -16 16 -22 27 -6
11 -12 16 -12 12z"/>
<path d="M1045 1229 c-4 -6 -5 -12 -2 -15 2 -3 7 2 10 11 7 17 1 20 -8 4z"/>
<path d="M461 1217 c-1 -21 21 -18 27 4 3 12 2 12 -6 0 -8 -11 -10 -11 -15 0
-4 10 -6 8 -6 -4z"/>
<path d="M775 1220 c3 -5 8 -10 11 -10 2 0 4 5 4 10 0 6 -5 10 -11 10 -5 0 -7
-4 -4 -10z"/>
<path d="M320 1191 c0 -11 4 -22 9 -25 5 -3 8 5 7 19 -1 29 -16 34 -16 6z"/>
<path d="M990 1200 c0 -5 7 -10 16 -10 8 0 12 5 9 10 -3 6 -10 10 -16 10 -5 0
-9 -4 -9 -10z"/>
<path d="M1511 1194 c0 -11 3 -14 6 -6 3 7 2 16 -1 19 -3 4 -6 -2 -5 -13z"/>
<path d="M1050 1168 c-14 -5 -54 -7 -90 -4 -62 5 -140 -7 -140 -22 0 -10 218
-8 253 2 15 5 26 13 24 19 -5 16 -19 17 -47 5z"/>
<path d="M717 1130 c-77 -49 -59 -102 30 -85 42 8 103 35 103 47 0 12 -13 10
-53 -7 -39 -16 -97 -20 -97 -7 0 15 34 41 68 53 18 6 29 15 26 20 -9 15 -28
10 -77 -21z"/>
<path d="M522 1128 c-19 -5 -30 -13 -26 -19 3 -6 17 -8 31 -4 17 4 32 0 44
-11 28 -25 23 -34 -17 -34 -24 0 -34 -4 -31 -12 2 -8 18 -12 41 -10 29 2 43
-3 63 -22 14 -14 40 -28 58 -32 50 -9 142 22 123 41 -2 3 -27 -3 -55 -12 -48
-15 -52 -15 -84 3 -19 11 -42 38 -53 61 -24 50 -49 63 -94 51z"/>
<path d="M1071 1090 c-48 -56 -68 -63 -73 -22 -3 24 -6 27 -38 24 -49 -5 -130
-42 -130 -59 0 -8 3 -13 8 -11 30 16 81 36 103 42 23 5 27 2 33 -24 4 -25 10
-30 34 -30 23 0 40 13 80 59 45 52 54 71 32 71 -4 0 -26 -22 -49 -50z"/>
<path d="M325 1120 c3 -5 8 -10 11 -10 2 0 4 5 4 10 0 6 -5 10 -11 10 -5 0 -7
-4 -4 -10z"/>
<path d="M885 1110 c-3 -6 1 -7 9 -4 18 7 21 14 7 14 -6 0 -13 -4 -16 -10z"/>
<path d="M1568 1113 c7 -3 16 -2 19 1 4 3 -2 6 -13 5 -11 0 -14 -3 -6 -6z"/>
<path d="M1139 1078 c-13 -13 -41 -44 -62 -70 -48 -58 -117 -86 -117 -46 0 15
-40 48 -59 48 -28 0 -151 -55 -151 -67 0 -18 9 -16 68 12 64 31 98 32 112 4 7
-11 10 -22 8 -24 -2 -3 -28 -6 -58 -8 -32 -3 -56 -9 -58 -17 -6 -18 129 -7
190 15 24 9 61 18 82 20 45 5 86 29 86 50 0 12 -6 11 -32 -5 -18 -11 -41 -20
-51 -20 -16 0 -13 7 14 42 19 23 46 49 61 57 15 9 28 19 28 24 0 15 -38 6 -61
-15z"/>
<path d="M1236 1016 c-14 -24 -41 -57 -61 -74 -65 -57 -89 -65 -240 -72 -78
-3 -146 -10 -153 -14 -14 -9 -82 11 -82 24 0 5 5 12 10 15 6 3 10 10 10 16 0
19 -23 8 -72 -33 -40 -33 -52 -39 -59 -27 -5 8 -9 22 -9 31 0 22 -51 50 -69
38 -10 -6 -6 -11 15 -21 24 -12 30 -21 32 -55 3 -35 0 -42 -23 -52 -14 -7 -34
-12 -45 -12 -22 0 -35 -16 -20 -25 20 -12 81 14 139 60 l59 46 33 -16 c36 -19
95 -21 149 -5 19 5 79 10 133 10 108 0 137 9 201 62 40 33 96 112 96 135 0 25
-18 12 -44 -31z"/>
<path d="M358 1013 c7 -3 16 -2 19 1 4 3 -2 6 -13 5 -11 0 -14 -3 -6 -6z"/>
<path d="M328 988 c5 -5 16 -8 23 -6 8 3 3 7 -10 11 -17 4 -21 3 -13 -5z"/>
<path d="M1300 973 c-13 -15 -12 -16 4 -10 10 4 20 7 22 7 2 0 4 5 4 10 0 15
-13 12 -30 -7z"/>
<path d="M265 950 c-3 -6 1 -7 9 -4 18 7 21 14 7 14 -6 0 -13 -4 -16 -10z"/>
<path d="M241 934 c0 -11 3 -14 6 -6 3 7 2 16 -1 19 -3 4 -6 -2 -5 -13z"/>
<path d="M460 915 c-8 -9 -8 -15 -2 -15 12 0 26 19 19 26 -2 2 -10 -2 -17 -11z"/>
<path d="M1250 921 c0 -5 6 -14 14 -20 12 -10 13 -8 9 8 -5 21 -23 30 -23 12z"/>
<path d="M1671 914 c0 -11 3 -14 6 -6 3 7 2 16 -1 19 -3 4 -6 -2 -5 -13z"/>
<path d="M250 900 c0 -5 5 -10 10 -10 6 0 10 5 10 10 0 6 -4 10 -10 10 -5 0
-10 -4 -10 -10z"/>
<path d="M1446 893 c-6 -14 -5 -15 5 -6 7 7 10 15 7 18 -3 3 -9 -2 -12 -12z"/>
<path d="M770 890 c-8 -5 -10 -10 -5 -10 6 0 17 5 25 10 8 5 11 10 5 10 -5 0
-17 -5 -25 -10z"/>
<path d="M1667 869 c4 -13 8 -18 11 -10 2 7 -1 18 -6 23 -8 8 -9 4 -5 -13z"/>
<path d="M369 840 c-7 -35 -4 -48 7 -38 3 4 4 21 2 40 l-3 33 -6 -35z"/>
<path d="M520 860 c0 -5 5 -10 11 -10 5 0 7 5 4 10 -3 6 -8 10 -11 10 -2 0 -4
-4 -4 -10z"/>
<path d="M1178 863 c7 -3 16 -2 19 1 4 3 -2 6 -13 5 -11 0 -14 -3 -6 -6z"/>
<path d="M1361 844 c0 -11 3 -14 6 -6 3 7 2 16 -1 19 -3 4 -6 -2 -5 -13z"/>
<path d="M663 823 c-15 -5 -17 -23 -4 -23 5 0 11 7 15 15 3 8 4 15 3 14 -1 0
-8 -3 -14 -6z"/>
<path d="M1170 820 c0 -6 7 -10 15 -10 8 0 15 2 15 4 0 2 -7 6 -15 10 -8 3
-15 1 -15 -4z"/>
<path d="M1667 823 c-4 -3 -7 -11 -7 -17 0 -6 5 -5 12 2 6 6 9 14 7 17 -3 3
-9 2 -12 -2z"/>
<path d="M1130 810 c0 -5 5 -10 11 -10 5 0 7 5 4 10 -3 6 -8 10 -11 10 -2 0
-4 -4 -4 -10z"/>
<path d="M1360 799 c0 -5 5 -7 10 -4 6 3 10 8 10 11 0 2 -4 4 -10 4 -5 0 -10
-5 -10 -11z"/>
<path d="M619 763 c-13 -16 -12 -17 4 -4 9 7 17 15 17 17 0 8 -8 3 -21 -13z"/>
<path d="M1368 745 c-2 -19 0 -35 4 -35 4 0 8 16 8 35 0 19 -2 35 -4 35 -2 0
-6 -16 -8 -35z"/>
<path d="M586 747 c3 -10 9 -15 12 -12 3 3 0 11 -7 18 -10 9 -11 8 -5 -6z"/>
<path d="M405 740 c-3 -5 -1 -10 4 -10 6 0 11 5 11 10 0 6 -2 10 -4 10 -3 0
-8 -4 -11 -10z"/>
<path d="M622 734 c-7 -8 -8 -14 -3 -14 10 0 25 19 20 25 -2 1 -10 -3 -17 -11z"/>
<path d="M1360 680 c0 -5 5 -10 10 -10 6 0 10 5 10 10 0 6 -4 10 -10 10 -5 0
-10 -4 -10 -10z"/>
<path d="M410 631 c0 -6 5 -13 10 -16 6 -3 10 1 10 9 0 9 -4 16 -10 16 -5 0
-10 -4 -10 -9z"/>
<path d="M1378 633 c7 -3 16 -2 19 1 4 3 -2 6 -13 5 -11 0 -14 -3 -6 -6z"/>
<path d="M1640 631 c0 -5 5 -13 10 -16 6 -3 10 -2 10 4 0 5 -4 13 -10 16 -5 3
-10 2 -10 -4z"/>
<path d="M485 620 c3 -5 8 -10 11 -10 2 0 4 5 4 10 0 6 -5 10 -11 10 -5 0 -7
-4 -4 -10z"/>
<path d="M1242 605 c0 -16 2 -22 5 -12 2 9 2 23 0 30 -3 6 -5 -1 -5 -18z"/>
<path d="M1550 620 c-30 -5 -77 -10 -105 -12 -40 -3 -50 -7 -50 -22 0 -16 11
-18 112 -20 68 -1 114 2 116 8 5 15 -4 56 -12 55 -3 -1 -31 -5 -61 -9z"/>
<path d="M295 608 c-3 -8 -4 -86 -3 -173 l3 -160 32 -3 32 -3 3 128 3 128 18
-39 c9 -22 40 -79 68 -128 l51 -89 42 3 41 3 0 148 0 148 255 -2 255 -2 3 27
3 26 -290 0 -291 0 0 -127 0 -127 -39 74 c-83 163 -93 175 -139 178 -28 2 -44
-1 -47 -10z m71 -48 c3 -34 -11 -40 -21 -10 -4 11 -11 18 -16 15 -5 -4 -9 1
-9 10 0 11 5 15 15 11 8 -3 15 0 15 6 0 24 14 -4 16 -32z m207 23 c-8 -3 -13
-24 -13 -54 0 -27 -4 -49 -9 -49 -5 0 -8 24 -7 53 1 46 4 53 21 54 11 1 14 -1
8 -4z m-183 -43 c0 -11 -2 -20 -4 -20 -2 0 -6 9 -9 20 -3 11 -1 20 4 20 5 0 9
-9 9 -20z m-51 -36 c-5 -6 -7 -14 -4 -17 3 -4 2 -4 -2 -1 -4 3 -8 19 -9 35 -2
27 0 28 11 12 8 -11 10 -22 4 -29z m105 -53 c-6 -6 -24 19 -24 34 1 6 7 1 15
-9 8 -11 12 -22 9 -25z m-104 -55 c0 -41 -5 -78 -10 -81 -7 -4 -10 21 -9 74 3
102 19 107 19 7z m222 40 c3 -14 1 -31 -3 -38 -6 -9 -9 -7 -9 9 0 12 -3 28 -6
37 -3 9 -2 16 4 16 5 0 12 -11 14 -24z m-46 -85 c21 -9 24 -8 24 11 0 30 18
10 20 -22 3 -39 1 -50 -11 -50 -8 0 -8 5 1 15 9 11 9 15 1 15 -6 0 -14 -7 -17
-15 -4 -8 -10 -12 -16 -9 -5 3 -4 12 4 22 9 11 9 14 1 9 -13 -8 -64 62 -62 85
0 7 7 -1 16 -19 9 -17 26 -36 39 -42z"/>
<path d="M1140 571 c0 -39 -4 -51 -15 -51 -9 0 -15 -10 -15 -26 0 -19 4 -25
15 -20 13 4 15 -8 15 -78 0 -73 3 -85 23 -104 15 -14 36 -22 60 -22 33 0 37 3
37 25 0 18 -5 25 -20 25 -25 0 -28 7 -32 88 l-4 62 28 0 c23 0 28 4 28 25 0
21 -5 25 -28 25 -27 0 -28 2 -28 48 1 46 0 47 -31 50 l-33 3 0 -50z m40 -41
c0 -22 5 -30 18 -31 15 0 15 -1 -2 -8 -17 -7 -19 -17 -17 -82 1 -40 8 -81 14
-89 7 -9 4 -8 -8 2 -16 15 -19 34 -21 128 -1 62 2 110 7 110 5 0 9 -13 9 -30z
m57 -236 c-3 -3 -12 -4 -19 -1 -8 3 -5 6 6 6 11 1 17 -2 13 -5z"/>
<path d="M1284 607 c-2 -7 -3 -85 -2 -172 l3 -160 33 -3 32 -3 0 175 0 176
-30 0 c-17 0 -33 -6 -36 -13z m41 -166 c0 -82 -3 -144 -7 -138 -14 21 -8 287
6 287 0 0 1 -67 1 -149z"/>
<path d="M460 586 c0 -14 4 -27 8 -30 5 -3 6 8 4 25 -5 35 -12 38 -12 5z"/>
<path d="M1672 590 c0 -14 2 -19 5 -12 2 6 2 18 0 25 -3 6 -5 1 -5 -13z"/>
<path d="M1650 550 c0 -5 5 -10 10 -10 6 0 10 5 10 10 0 6 -4 10 -10 10 -5 0
-10 -4 -10 -10z"/>
<path d="M888 533 c7 -3 16 -2 19 1 4 3 -2 6 -13 5 -11 0 -14 -3 -6 -6z"/>
<path d="M1608 533 c7 -3 16 -2 19 1 4 3 -2 6 -13 5 -11 0 -14 -3 -6 -6z"/>
<path d="M672 510 c-35 -21 -62 -72 -62 -115 0 -43 36 -101 74 -119 36 -17 90
-15 125 4 20 10 51 48 51 62 0 14 -67 8 -80 -7 -17 -21 -63 -19 -83 3 -33 36
-22 42 78 42 l96 0 -7 38 c-9 52 -21 70 -57 92 -41 26 -93 25 -135 0z m106
-46 c40 -28 27 -41 -38 -40 -39 1 -60 5 -60 13 0 15 39 43 60 43 9 0 26 -7 38
-16z m-110 -65 c-6 -4 -9 -23 -6 -44 3 -31 2 -34 -8 -21 -6 9 -10 31 -9 49 2
18 3 38 4 46 1 11 5 10 15 -5 9 -12 11 -21 4 -25z m168 4 c-11 -11 -19 6 -11
24 8 17 8 17 12 0 3 -10 2 -21 -1 -24z m-59 -109 c-3 -3 -12 -4 -19 -1 -8 3
-5 6 6 6 11 1 17 -2 13 -5z"/>
<path d="M930 517 c-38 -19 -54 -60 -38 -94 11 -23 27 -32 81 -47 50 -15 67
-24 65 -35 -4 -22 -71 -27 -88 -7 -18 23 -70 21 -70 -2 0 -75 179 -92 216 -21
30 59 1 93 -104 119 -32 8 -42 15 -40 28 4 23 60 28 81 8 18 -18 67 -22 67 -5
0 6 -13 24 -29 40 -24 23 -38 29 -73 29 -24 0 -54 -6 -68 -13z m-2 -62 c-6
-14 -13 -23 -15 -21 -5 5 15 46 22 46 3 0 -1 -11 -7 -25z m145 -115 c3 -11 2
-22 -2 -24 -4 -3 -8 6 -9 20 -2 29 4 31 11 4z m-36 -46 c-3 -3 -12 -4 -19 -1
-8 3 -5 6 6 6 11 1 17 -2 13 -5z"/>
<path d="M1442 513 c-42 -21 -62 -59 -62 -122 0 -38 6 -56 25 -80 31 -36 82
-54 129 -46 39 8 86 45 86 70 0 20 -56 20 -76 0 -21 -21 -60 -19 -84 5 -29 29
-25 42 13 40 17 -1 60 -2 95 -1 60 1 62 2 62 27 0 94 -99 151 -188 107z m92
-43 c15 -5 26 -17 26 -27 0 -15 -9 -18 -60 -19 -33 0 -60 2 -60 6 0 11 25 38
40 43 22 8 26 8 54 -3z m-110 -35 c-4 -17 -2 -25 7 -25 11 0 11 -2 0 -9 -12
-8 -13 -16 -4 -45 13 -40 -2 -39 -18 1 -6 17 -6 30 1 38 8 9 8 15 0 20 -7 4
-7 12 0 26 15 27 22 24 14 -6z m176 -5 c12 -23 12 -24 -3 -11 -10 7 -17 20
-17 29 0 18 3 16 20 -18z m-103 -136 c-3 -3 -12 -4 -19 -1 -8 3 -5 6 6 6 11 1
17 -2 13 -5z"/>
<path d="M1640 503 c0 -4 5 -15 10 -23 8 -13 10 -13 10 2 0 9 -4 20 -10 23 -5
3 -10 3 -10 -2z"/>
<path d="M1661 444 c0 -11 3 -14 6 -6 3 7 2 16 -1 19 -3 4 -6 -2 -5 -13z"/>
<path d="M1665 410 c-3 -5 -1 -10 4 -10 6 0 11 5 11 10 0 6 -2 10 -4 10 -3 0
-8 -4 -11 -10z"/>
<path d="M1242 396 c7 -8 15 -12 17 -11 5 6 -10 25 -20 25 -5 0 -4 -6 3 -14z"/>
<path d="M1666 358 c-8 -30 -7 -38 2 -38 4 0 8 14 9 30 3 36 -2 39 -11 8z"/>
<path d="M430 306 c0 -8 4 -17 9 -20 5 -4 7 3 4 14 -6 23 -13 26 -13 6z"/>
<path d="M395 300 c-3 -5 -1 -10 4 -10 6 0 11 5 11 10 0 6 -2 10 -4 10 -3 0
-8 -4 -11 -10z"/>
<path d="M1640 258 c0 -19 2 -20 10 -8 13 19 13 30 0 30 -5 0 -10 -10 -10 -22z"/>
<path d="M420 255 c7 -8 17 -15 22 -15 6 0 5 7 -2 15 -7 8 -17 15 -22 15 -6 0
-5 -7 2 -15z"/>
<path d="M1110 250 c-12 -8 -10 -10 8 -10 13 0 20 4 17 10 -7 12 -6 12 -25 0z"/>
<path d="M1395 250 c3 -5 14 -10 23 -10 15 0 15 2 2 10 -20 13 -33 13 -25 0z"/>
<path d="M598 243 c7 -3 16 -2 19 1 4 3 -2 6 -13 5 -11 0 -14 -3 -6 -6z"/>
<path d="M1578 243 c7 -3 16 -2 19 1 4 3 -2 6 -13 5 -11 0 -14 -3 -6 -6z"/>
</g>
</svg>
