<?xml version="1.0" standalone="no"?>
<!DOCTYPE svg PUBLIC "-//W3C//DTD SVG 20010904//EN"
 "http://www.w3.org/TR/2001/REC-SVG-20010904/DTD/svg10.dtd">
<svg version="1.0" xmlns="http://www.w3.org/2000/svg"
 width="192.000000pt" height="192.000000pt" viewBox="0 0 192.000000 192.000000"
 preserveAspectRatio="xMidYMid meet">
<metadata>
Created by potrace 1.16, written by Peter Selinger 2001-2019
</metadata>
<g transform="translate(0.000000,192.000000) scale(0.100000,-0.100000)"
fill="#000000" stroke="none">
<path d="M935 1903 c-22 -8 -44 -18 -49 -24 -16 -15 -26 -11 -26 11 0 20 -7
20 -305 20 l-305 0 0 -540 c0 -618 -7 -576 89 -523 l56 31 3 441 2 441 155 0
154 0 3 -107 3 -108 32 -3 c27 -3 34 2 49 29 25 48 137 153 191 179 101 48
214 60 331 35 178 -37 293 -134 348 -292 24 -68 24 -69 24 -545 l0 -478 -165
0 -165 0 0 430 c0 315 -3 442 -12 473 -18 60 -90 130 -150 145 -60 15 -172 15
-237 0 -63 -14 -136 -69 -173 -129 -35 -57 -60 -154 -56 -216 3 -44 5 -48 31
-51 20 -3 55 13 124 55 153 93 160 93 276 26 l57 -34 0 -423 0 -424 38 -22
c200 -120 161 -110 426 -110 142 0 236 4 236 9 0 6 -97 11 -240 13 -146 2
-244 7 -248 13 -4 6 -27 21 -52 34 -25 14 -65 37 -90 51 l-45 26 -3 426 -2
426 -53 27 c-28 15 -54 30 -57 34 -3 3 -22 12 -44 20 -31 10 -46 11 -82 1 -24
-7 -44 -17 -44 -21 0 -5 -4 -9 -9 -9 -12 0 -114 -62 -123 -75 -5 -7 -8 -7 -8
0 0 6 -4 5 -8 -2 -4 -6 -20 -15 -35 -18 -25 -7 -27 -5 -27 27 0 40 25 138 46
184 22 45 82 102 132 126 58 26 166 34 242 18 33 -7 60 -17 60 -21 0 -5 6 -9
14 -9 18 0 76 -78 76 -101 0 -10 5 -21 10 -24 6 -4 10 -12 9 -18 -1 -7 -1
-208 0 -447 l1 -435 191 0 191 0 -4 500 c-5 544 -2 510 -63 638 -22 48 -129
155 -161 163 -13 3 -24 9 -24 13 0 8 -84 40 -126 47 -16 2 -54 9 -84 14 -38 7
-75 7 -115 -1 -33 -6 -70 -12 -81 -14 -12 -1 -52 -17 -88 -35 -72 -36 -146
-103 -186 -169 -14 -22 -33 -41 -42 -41 -16 0 -18 12 -18 110 l0 110 -175 0
-175 0 0 -440 0 -440 -41 -25 c-22 -15 -47 -29 -55 -32 -12 -4 -14 70 -14 521
l0 526 286 0 287 0 -6 -46 -5 -47 22 26 c26 31 51 44 141 73 l70 23 -45 -1
c-25 0 -63 -7 -85 -15z"/>
<path d="M1108 1913 c7 -3 16 -2 19 1 4 3 -2 6 -13 5 -11 0 -14 -3 -6 -6z"/>
<path d="M1178 1913 c18 -2 45 -2 60 0 15 2 0 4 -33 4 -33 0 -45 -2 -27 -4z"/>
<path d="M1288 1913 c7 -3 16 -2 19 1 4 3 -2 6 -13 5 -11 0 -14 -3 -6 -6z"/>
<path d="M1395 1904 c28 -7 64 -17 80 -21 99 -22 248 -163 334 -316 11 -21 21
-44 21 -52 0 -8 4 -15 8 -15 7 0 62 -158 75 -215 3 -11 5 0 6 25 1 57 -17 118
-70 227 -112 233 -293 384 -459 382 l-45 0 50 -15z"/>
<path d="M939 1152 c-75 -40 -103 -56 -109 -63 -3 -4 -27 -20 -55 -37 -27 -16
-129 -78 -225 -137 -96 -59 -187 -115 -202 -124 -249 -151 -348 -216 -348
-227 0 -15 29 -1 127 62 29 19 57 34 62 34 5 0 11 4 13 8 3 7 236 154 306 192
15 8 29 18 30 23 2 4 8 7 14 7 5 0 33 16 62 35 29 19 58 35 65 35 6 0 11 5 11
10 0 6 6 10 13 10 7 0 23 9 35 20 12 11 24 20 27 20 3 0 24 12 48 27 72 47 81
52 100 59 9 3 17 9 17 13 0 14 96 40 132 37 21 -2 52 -13 70 -23 31 -18 33
-23 36 -81 2 -34 1 -62 -2 -62 -13 0 -96 45 -96 52 0 15 -40 8 -68 -10 -76
-52 -109 -72 -120 -72 -7 0 -12 -4 -12 -10 0 -5 -5 -10 -10 -10 -6 0 -43 -22
-83 -48 -40 -27 -79 -52 -87 -56 -21 -10 -45 -24 -135 -82 -44 -28 -100 -62
-125 -75 -25 -13 -47 -26 -50 -29 -11 -11 -70 -50 -75 -50 -4 0 -30 -15 -58
-34 -29 -19 -64 -40 -80 -47 -15 -7 -27 -16 -27 -20 0 -4 -12 -12 -27 -18 -16
-6 -41 -20 -58 -31 -16 -11 -36 -23 -42 -26 -16 -8 -17 -24 -2 -24 10 0 203
114 379 224 36 23 74 46 85 53 11 6 68 41 127 77 59 36 109 66 112 66 3 0 15
8 26 18 11 9 36 26 54 37 19 11 83 49 142 85 l107 64 49 -27 c54 -30 93 -35
102 -11 8 21 8 108 0 129 -4 9 -28 27 -55 40 -67 35 -131 33 -200 -3z"/>
<path d="M1915 715 c0 -259 1 -366 2 -238 2 127 2 339 0 470 -1 131 -2 27 -2
-232z"/>
<path d="M935 877 c-33 -17 -62 -34 -65 -38 -3 -3 -68 -43 -144 -90 -77 -46
-154 -93 -171 -104 -18 -11 -92 -56 -164 -100 -72 -44 -150 -92 -173 -107 -24
-15 -50 -31 -58 -35 -53 -26 -159 -100 -160 -110 0 -7 2 -13 5 -13 7 0 48 23
55 31 3 3 23 16 45 29 22 13 42 26 45 29 5 6 15 12 89 53 20 11 42 25 49 30
19 16 75 48 95 54 9 4 17 10 17 15 0 5 5 9 10 9 6 0 16 5 23 10 7 6 66 43 132
82 66 40 126 78 133 85 7 7 20 13 28 13 8 0 14 5 14 10 0 6 6 10 14 10 8 0 21
6 28 13 13 11 24 18 81 50 12 6 24 14 27 17 43 43 159 78 200 60 70 -31 75
-37 78 -91 4 -71 0 -81 -32 -66 -14 7 -26 15 -26 20 0 4 -5 7 -12 7 -6 0 -20
8 -30 17 -18 16 -21 16 -54 -2 -18 -10 -34 -22 -34 -27 0 -4 -3 -7 -7 -6 -8 2
-41 -17 -95 -53 -15 -11 -30 -19 -33 -19 -3 0 -33 -18 -65 -40 -32 -22 -62
-40 -66 -40 -4 0 -15 -6 -23 -14 -9 -7 -36 -24 -61 -37 -25 -13 -47 -26 -50
-29 -8 -8 -181 -116 -210 -130 -14 -7 -27 -16 -30 -19 -3 -3 -15 -12 -27 -18
-55 -31 -68 -39 -79 -48 -6 -5 -61 -39 -122 -75 -61 -36 -111 -68 -111 -72 -2
-18 34 -5 106 41 43 26 143 88 223 136 80 49 168 103 195 120 63 41 408 251
455 277 19 11 40 24 47 30 8 6 28 1 60 -16 54 -30 98 -34 107 -10 8 20 8 92 0
121 -3 12 -26 32 -56 47 -70 36 -126 34 -203 -7z"/>
<path d="M994 631 c-18 -4 -101 -51 -185 -104 -85 -52 -216 -133 -291 -179
-474 -289 -518 -317 -518 -334 0 -8 8 -14 17 -14 9 0 14 3 10 6 -7 7 58 54 73
54 6 0 10 5 10 10 0 6 5 10 10 10 6 0 36 16 66 35 30 19 57 35 60 35 2 0 10 5
17 11 11 9 241 152 307 190 14 8 27 17 30 20 3 3 10 8 15 10 6 2 71 41 145 87
74 46 144 89 155 95 11 7 31 19 45 28 40 25 122 24 170 -3 39 -23 40 -24 40
-80 0 -65 -14 -74 -60 -38 -14 11 -31 20 -37 20 -7 0 -13 4 -13 9 0 16 -24 7
-80 -29 -59 -38 -69 -44 -126 -78 -22 -12 -59 -36 -84 -52 -25 -16 -54 -34
-65 -39 -11 -5 -42 -24 -70 -43 -27 -19 -57 -37 -65 -41 -8 -4 -31 -17 -51
-30 -19 -12 -95 -58 -168 -102 -89 -54 -125 -81 -112 -83 11 -2 38 8 60 22 22
14 43 26 46 26 4 0 25 13 48 29 23 16 106 68 185 115 79 48 174 106 211 129
189 118 239 147 255 147 9 0 30 -9 48 -20 40 -24 93 -26 102 -4 8 20 8 92 0
120 -11 43 -132 82 -200 65z"/>
<path d="M98 3 c17 -2 47 -2 65 0 17 2 3 4 -33 4 -36 0 -50 -2 -32 -4z"/>
</g>
</svg>
