<?xml version="1.0" standalone="no"?>
<!DOCTYPE svg PUBLIC "-//W3C//DTD SVG 20010904//EN"
 "http://www.w3.org/TR/2001/REC-SVG-20010904/DTD/svg10.dtd">
<svg version="1.0" xmlns="http://www.w3.org/2000/svg"
 width="100.000000pt" height="100.000000pt" viewBox="0 0 100.000000 100.000000"
 preserveAspectRatio="xMidYMid meet">
<metadata>
Created by potrace 1.16, written by Peter Selinger 2001-2019
</metadata>
<g transform="translate(0.000000,100.000000) scale(0.100000,-0.100000)"
fill="#000000" stroke="none">
<path d="M270 990 c0 -5 -9 -10 -20 -10 -11 0 -20 -4 -20 -10 0 -5 -7 -10 -16
-10 -9 0 -29 -13 -44 -30 -15 -16 -37 -30 -49 -30 -15 0 -21 -6 -21 -21 0 -12
-13 -34 -30 -49 -16 -15 -30 -34 -30 -42 0 -7 -9 -20 -20 -28 -21 -15 -28 -70
-10 -70 6 0 10 8 10 18 0 10 9 24 20 32 11 8 20 21 20 28 0 8 14 27 30 42 17
15 30 37 30 49 0 15 6 21 21 21 12 0 34 14 49 30 15 17 35 30 44 30 9 0 16 5
16 10 0 6 9 10 20 10 11 0 20 5 20 10 0 6 9 10 20 10 11 0 20 5 20 10 0 6 -13
10 -30 10 -16 0 -30 -4 -30 -10z"/>
<path d="M350 985 c0 -8 2 -15 4 -15 2 0 6 7 10 15 3 8 1 15 -4 15 -6 0 -10
-7 -10 -15z"/>
<path d="M630 991 c0 -6 5 -13 10 -16 6 -3 10 1 10 9 0 9 -4 16 -10 16 -5 0
-10 -4 -10 -9z"/>
<path d="M670 990 c0 -5 9 -10 20 -10 11 0 20 -4 20 -10 0 -5 9 -10 20 -10 11
0 20 -4 20 -10 0 -5 7 -10 16 -10 9 0 29 -13 44 -30 15 -16 37 -30 49 -30 15
0 21 -6 21 -21 0 -12 14 -34 30 -49 17 -15 30 -35 30 -44 0 -9 5 -16 10 -16 6
0 10 -9 10 -20 0 -11 5 -20 10 -20 6 0 10 -9 10 -20 0 -11 5 -20 10 -20 6 0
10 14 10 30 0 17 -4 30 -10 30 -5 0 -10 9 -10 20 0 11 -4 20 -10 20 -5 0 -10
7 -10 16 0 9 -14 29 -30 44 -16 15 -30 37 -30 49 0 15 -6 21 -21 21 -12 0 -34
14 -49 30 -15 17 -35 30 -44 30 -9 0 -16 5 -16 10 0 6 -9 10 -20 10 -11 0 -20
5 -20 10 0 6 -13 10 -30 10 -16 0 -30 -4 -30 -10z"/>
<path d="M836 863 c-3 -4 -6 -12 -6 -20 0 -14 26 -18 33 -5 6 9 -19 33 -27 25z"/>
<path d="M13 673 c-20 -8 -15 -23 7 -23 11 0 20 7 20 15 0 15 -6 17 -27 8z"/>
<path d="M980 616 c0 -9 5 -16 10 -16 6 0 10 4 10 9 0 6 -4 13 -10 16 -5 3
-10 -1 -10 -9z"/>
<path d="M112 558 c-64 -31 -73 -59 -70 -214 l3 -129 45 0 45 0 3 115 c2 102
5 117 22 128 41 26 50 8 50 -107 1 -72 5 -112 14 -123 15 -21 81 -25 90 -5 5
9 7 9 12 0 8 -18 177 -18 204 0 17 10 22 9 29 -2 11 -18 140 -19 151 -1 5 9 9
9 14 1 9 -14 146 -15 146 -1 0 6 5 10 11 10 6 0 16 6 22 13 32 34 37 60 37
176 0 96 -3 121 -16 132 -16 13 -80 16 -92 5 -3 -4 -8 -50 -10 -104 -4 -125
-8 -142 -32 -142 -18 0 -20 9 -22 123 l-3 122 -45 0 -45 0 -5 -120 c-5 -117
-6 -120 -29 -123 -13 -2 -28 2 -32 10 -5 7 -9 63 -9 124 l0 111 -94 7 c-102 8
-158 2 -193 -20 -17 -11 -25 -11 -35 -1 -16 15 -78 37 -104 37 -10 -1 -38 -10
-62 -22z m128 -38 c10 -14 16 -16 22 -7 4 7 8 -7 9 -33 1 -38 2 -41 9 -20 5
16 8 -23 9 -102 1 -122 0 -128 -19 -128 -19 0 -20 7 -20 121 0 91 -3 124 -14
135 -16 16 -86 19 -86 4 0 -5 -7 -10 -15 -10 -13 0 -15 -21 -15 -125 0 -118
-1 -125 -20 -125 -19 0 -20 7 -20 130 0 122 2 132 23 155 30 32 115 36 137 5z
m260 0 c0 -18 -7 -20 -77 -20 -54 0 -73 -3 -63 -10 10 -6 11 -10 3 -10 -8 0
-13 -15 -13 -40 l0 -40 63 2 62 1 -55 7 -55 7 58 1 c51 2 57 0 57 -18 0 -18
-7 -20 -75 -20 -46 0 -75 -4 -75 -11 0 -5 5 -7 10 -4 6 4 10 -8 10 -30 0 -52
18 -65 89 -65 54 0 61 -2 61 -20 0 -18 -6 -20 -67 -18 l-68 1 60 7 60 7 -73 1
c-48 1 -78 7 -88 16 -20 21 -20 221 0 242 10 9 40 15 88 16 l73 2 -70 6 -70 6
78 2 c71 2 77 0 77 -18z m80 -101 c0 -131 6 -149 55 -149 49 0 55 18 55 149 0
114 1 121 20 121 19 0 20 -7 20 -127 0 -71 4 -123 8 -117 5 9 10 8 19 -1 10
-11 10 -15 0 -18 -7 -3 5 -6 26 -6 61 -1 67 11 67 148 l0 121 25 0 25 0 0
-137 c0 -93 -3 -133 -10 -123 -8 12 -10 11 -10 -7 0 -18 -6 -23 -25 -23 -14 0
-25 -4 -25 -10 0 -5 -19 -10 -42 -10 -32 0 -39 3 -28 10 12 8 11 10 -7 10 -12
0 -24 6 -27 13 -5 10 -7 10 -12 0 -3 -7 -15 -13 -27 -13 -18 0 -19 -2 -7 -10
11 -7 -3 -10 -45 -10 -42 0 -56 3 -45 10 13 8 12 10 -3 10 -41 0 -47 22 -47
159 0 124 1 131 20 131 19 0 20 -7 20 -121z m167 -32 c-2 -23 -3 -1 -3 48 0
50 1 68 3 42 2 -26 2 -67 0 -90z m-220 -34 c-2 -27 -3 -5 -3 47 0 52 1 74 3
48 2 -27 2 -69 0 -95z m-27 97 c0 -6 -27 -10 -61 -10 -37 0 -58 4 -54 10 3 6
31 10 61 10 30 0 54 -4 54 -10z m0 -96 c0 -2 -33 -3 -72 -2 l-73 1 60 6 c56 6
85 4 85 -5z m0 -34 c0 -5 -24 -10 -54 -10 -30 0 -58 5 -61 10 -4 6 17 10 54
10 34 0 61 -4 61 -10z"/>
<path d="M104 350 c0 -63 1 -89 3 -57 2 31 2 83 0 115 -2 31 -3 5 -3 -58z"/>
<path d="M332 440 c0 -14 2 -19 5 -12 2 6 2 18 0 25 -3 6 -5 1 -5 -13z"/>
<path d="M332 330 c0 -14 2 -19 5 -12 2 6 2 18 0 25 -3 6 -5 1 -5 -13z"/>
<path d="M704 420 c0 -63 1 -89 3 -57 2 31 2 83 0 115 -2 31 -3 5 -3 -58z"/>
<path d="M564 410 c0 -58 1 -81 3 -52 2 28 2 76 0 105 -2 28 -3 5 -3 -53z"/>
<path d="M874 410 c0 -58 1 -81 3 -52 2 28 2 76 0 105 -2 28 -3 5 -3 -53z"/>
<path d="M980 570 c0 -5 5 -10 10 -10 6 0 10 5 10 10 0 6 -4 10 -10 10 -5 0
-10 -4 -10 -10z"/>
<path d="M960 335 c0 -17 2 -18 24 -9 23 9 20 24 -4 24 -11 0 -20 -7 -20 -15z"/>
<path d="M980 292 c0 -10 -9 -24 -20 -32 -11 -8 -20 -22 -20 -32 0 -10 -4 -18
-10 -18 -5 0 -10 -8 -10 -18 0 -10 -9 -24 -20 -32 -11 -8 -20 -20 -20 -27 0
-7 -5 -13 -11 -13 -6 0 -24 -13 -39 -30 -15 -16 -35 -30 -44 -30 -9 0 -16 -4
-16 -10 0 -5 -9 -10 -20 -10 -11 0 -20 -4 -20 -10 0 -5 -9 -10 -20 -10 -11 0
-20 -4 -20 -10 0 -5 14 -10 30 -10 17 0 30 5 30 10 0 6 9 10 20 10 11 0 20 5
20 10 0 6 7 10 16 10 9 0 29 14 44 30 15 17 33 30 39 30 6 0 11 5 11 10 0 6
14 24 30 42 17 17 30 41 30 52 0 12 9 28 20 36 21 15 28 70 10 70 -5 0 -10 -8
-10 -18z"/>
<path d="M730 70 c0 -5 7 -10 15 -10 8 0 15 5 15 10 0 6 -7 10 -15 10 -8 0
-15 -4 -15 -10z"/>
</g>
</svg>
