<?xml version="1.0" standalone="no"?>
<!DOCTYPE svg PUBLIC "-//W3C//DTD SVG 20010904//EN"
 "http://www.w3.org/TR/2001/REC-SVG-20010904/DTD/svg10.dtd">
<svg version="1.0" xmlns="http://www.w3.org/2000/svg"
 width="256.000000pt" height="256.000000pt" viewBox="0 0 256.000000 256.000000"
 preserveAspectRatio="xMidYMid meet">
<metadata>
Created by potrace 1.16, written by Peter Selinger 2001-2019
</metadata>
<g transform="translate(0.000000,256.000000) scale(0.100000,-0.100000)"
fill="#000000" stroke="none">
<path d="M387 2013 c-106 -482 -376 -1693 -382 -1720 l-5 -23 1045 0 1045 0 5
23 c30 127 455 2051 455 2058 0 5 -439 9 -1043 9 l-1043 0 -77 -347z m2129
300 c-3 -10 -102 -457 -221 -993 -119 -536 -219 -985 -222 -997 l-5 -23 -1017
0 -1017 0 225 1015 226 1015 1018 0 c965 0 1018 -1 1013 -17z"/>
<path d="M576 2231 c-16 -6 -49 -142 -217 -902 -110 -492 -199 -901 -199 -910
0 -9 10 -19 22 -23 28 -7 1765 -8 1793 0 18 5 41 99 218 897 109 491 198 902
197 913 0 14 -8 24 -22 28 -33 8 -1769 6 -1792 -3z m1794 -23 c-1 -2 -90 -403
-199 -893 l-198 -890 -895 -3 -895 -2 182 817 c100 450 190 853 199 896 l17
77 895 0 c492 0 894 -1 894 -2z"/>
<path d="M964 1836 c168 -172 306 -315 306 -317 0 -2 -125 -3 -277 -1 l-278 3
37 -31 c21 -17 160 -137 310 -268 150 -130 356 -308 458 -396 102 -88 235
-204 296 -258 62 -54 115 -98 119 -98 5 0 -19 28 -51 63 -33 34 -186 211 -341
393 -155 182 -289 336 -297 344 -9 7 -16 16 -16 21 0 5 126 10 280 11 l280 3
-327 422 -328 422 -239 0 -238 1 306 -314z m469 -121 l304 -390 -263 -3 -264
-2 0 -26 c0 -18 55 -90 203 -262 251 -294 249 -292 152 -206 -44 39 -234 204
-423 367 l-343 297 246 0 246 0 -3 30 c-2 23 -61 89 -281 314 l-278 286 188 2
c115 2 193 -1 200 -7 6 -5 149 -185 316 -400z"/>
</g>
</svg>
