<?xml version="1.0" standalone="no"?>
<!DOCTYPE svg PUBLIC "-//W3C//DTD SVG 20010904//EN"
 "http://www.w3.org/TR/2001/REC-SVG-20010904/DTD/svg10.dtd">
<svg version="1.0" xmlns="http://www.w3.org/2000/svg"
 width="256.000000pt" height="256.000000pt" viewBox="0 0 256.000000 256.000000"
 preserveAspectRatio="xMidYMid meet">
<metadata>
Created by potrace 1.16, written by Peter Selinger 2001-2019
</metadata>
<g transform="translate(0.000000,256.000000) scale(0.100000,-0.100000)"
fill="#000000" stroke="none">
<path d="M1767 2079 c-165 -21 -477 -167 -477 -223 0 -17 128 -170 148 -177 9
-4 19 -3 22 0 3 4 41 28 85 53 95 55 182 86 268 95 111 11 107 6 107 131 0 71
-4 112 -12 120 -13 13 -41 14 -141 1z m131 -116 l3 -102 -33 -5 c-18 -3 -55
-8 -83 -11 -77 -10 -162 -42 -258 -97 -48 -28 -89 -49 -91 -47 -1 2 -28 34
-59 72 -32 37 -57 74 -57 82 0 32 206 140 343 180 61 17 167 34 207 31 25 -1
25 -2 28 -103z"/>
<path d="M67 1952 c-43 -47 -5 -296 66 -442 l35 -70 -33 -50 c-61 -90 -80
-167 -80 -315 1 -117 4 -137 28 -198 32 -83 115 -205 174 -256 49 -44 152
-100 233 -127 78 -26 261 -25 347 3 141 46 238 123 323 254 74 115 104 270 88
463 -15 183 -111 405 -232 534 -42 45 -150 124 -213 156 -115 58 -174 66 -459
66 -240 0 -262 -1 -277 -18z m603 -23 c249 -69 429 -257 526 -549 26 -79 28
-97 28 -250 1 -192 -15 -262 -83 -368 -84 -129 -174 -199 -314 -245 -85 -27
-250 -29 -327 -3 -76 26 -181 81 -227 121 -54 46 -138 171 -170 252 -24 60
-27 82 -28 188 0 138 21 217 81 306 19 28 34 54 34 58 0 4 -16 40 -36 80 -66
135 -109 382 -72 419 9 9 81 12 263 12 222 0 259 -2 325 -21z"/>
<path d="M299 1229 c-19 -19 -21 -30 -17 -138 3 -101 7 -124 31 -176 34 -72
106 -143 185 -182 49 -24 68 -28 147 -28 78 0 98 4 146 28 127 62 210 178 213
294 l1 58 -165 7 c-228 9 -332 37 -444 122 -54 42 -68 44 -97 15z m87 -35
c113 -85 217 -114 443 -121 l163 -6 -6 -46 c-9 -67 -60 -164 -109 -206 -75
-64 -139 -89 -231 -89 -94 0 -142 18 -223 82 -37 30 -60 60 -85 109 -30 61
-33 77 -36 173 -4 90 -1 109 13 123 9 9 18 17 21 17 2 0 25 -16 50 -36z"/>
<path d="M1842 1678 c-235 -26 -436 -194 -508 -425 -23 -74 -26 -94 -21 -195
2 -63 11 -135 20 -163 22 -69 81 -163 150 -240 47 -53 75 -73 156 -113 194
-97 367 -94 562 9 82 44 136 94 198 183 76 110 103 188 108 316 8 161 -29 273
-131 405 -129 165 -324 247 -534 223z m203 -33 c134 -35 231 -98 313 -203 98
-126 137 -244 129 -392 -6 -117 -35 -200 -108 -306 -61 -87 -106 -129 -189
-173 -193 -103 -358 -104 -550 -5 -101 52 -164 113 -233 226 -52 86 -69 146
-74 266 -5 90 -2 112 21 185 61 197 220 350 416 401 73 19 202 20 275 1z"/>
<path d="M1798 1437 c-107 -40 -192 -119 -230 -216 -34 -87 -32 -215 6 -298
35 -77 113 -154 193 -191 48 -22 72 -26 144 -26 77 0 93 3 151 32 139 68 211
186 211 342 -1 156 -62 257 -204 335 -46 25 -67 30 -144 32 -59 2 -103 -2
-127 -10z m261 -42 c89 -49 136 -97 166 -172 74 -185 2 -379 -172 -465 -56
-27 -76 -32 -142 -32 -94 0 -166 30 -239 98 -72 68 -106 148 -106 251 0 164
84 283 242 342 24 8 66 12 117 10 66 -3 90 -8 134 -32z"/>
</g>
</svg>
