<?xml version="1.0" standalone="no"?>
<!DOCTYPE svg PUBLIC "-//W3C//DTD SVG 20010904//EN"
 "http://www.w3.org/TR/2001/REC-SVG-20010904/DTD/svg10.dtd">
<svg version="1.0" xmlns="http://www.w3.org/2000/svg"
 width="100.000000pt" height="100.000000pt" viewBox="0 0 100.000000 100.000000"
 preserveAspectRatio="xMidYMid meet">
<metadata>
Created by potrace 1.16, written by Peter Selinger 2001-2019
</metadata>
<g transform="translate(0.000000,100.000000) scale(0.100000,-0.100000)"
fill="#000000" stroke="none">
<path d="M444 982 c-10 -10 -28 -24 -39 -30 -19 -11 -18 -11 8 -12 17 0 27 5
27 15 0 10 10 15 30 15 20 0 30 5 30 15 0 8 -4 15 -10 15 -5 0 -10 -6 -10 -12
0 -10 -2 -10 -8 0 -6 9 -13 8 -28 -6z"/>
<path d="M520 976 c0 -15 -7 -26 -17 -29 -14 -4 -12 -5 5 -6 18 -1 22 4 22 29
0 17 -2 30 -5 30 -3 0 -5 -11 -5 -24z"/>
<path d="M562 985 c-11 -13 -9 -15 8 -15 11 0 20 -7 20 -15 0 -10 11 -15 35
-15 24 0 35 -5 35 -15 0 -10 -11 -15 -35 -15 -19 0 -35 5 -35 11 0 5 -5 7 -11
3 -6 -3 -15 -1 -19 6 -5 8 -14 5 -32 -12 -13 -12 -37 -31 -53 -40 -34 -19 -44
-38 -21 -38 9 0 16 7 16 15 0 10 10 15 30 15 20 0 30 -5 30 -15 0 -8 -6 -15
-14 -15 -7 0 -19 -7 -26 -15 -11 -13 -8 -15 14 -15 17 0 26 5 26 16 0 14 8 16
42 11 24 -3 44 -11 46 -16 2 -6 26 -11 53 -11 29 0 49 -4 49 -11 0 -6 7 -9 15
-5 8 3 15 1 15 -3 0 -5 22 -11 49 -13 27 -1 47 0 44 5 -2 4 -11 7 -19 7 -8 0
-14 5 -14 10 0 6 -20 10 -44 10 -25 0 -46 5 -48 12 -2 6 -31 13 -66 16 -44 3
-62 8 -62 18 0 9 12 14 35 14 28 0 35 4 35 20 0 16 7 20 30 20 19 0 30 5 30
14 0 19 20 25 46 15 19 -6 21 -5 16 13 -4 18 -1 20 30 16 29 -3 34 -1 31 13
-6 21 -63 23 -63 2 0 -8 -12 -13 -30 -13 -20 0 -30 -5 -30 -15 0 -10 -10 -15
-30 -15 -20 0 -30 5 -30 15 0 8 7 15 15 15 8 0 15 7 15 15 0 8 -7 15 -15 15
-8 0 -15 -6 -15 -13 0 -7 -9 -18 -20 -25 -12 -7 -20 -8 -20 -2 0 5 -7 10 -15
10 -8 0 -15 7 -15 15 0 19 -11 19 -28 0z m28 -95 c0 -16 -7 -20 -30 -20 -23 0
-30 4 -30 20 0 16 7 20 30 20 23 0 30 -4 30 -20z"/>
<path d="M940 985 c0 -10 -11 -15 -35 -15 -47 0 -47 -24 0 -27 25 -1 35 3 35
13 0 9 12 14 33 15 23 1 26 3 10 6 -13 2 -23 9 -23 14 0 5 -4 9 -10 9 -5 0
-10 -7 -10 -15z"/>
<path d="M810 926 c0 -9 6 -16 13 -15 45 6 86 -2 90 -18 3 -13 5 -14 6 -3 2
28 -15 40 -62 46 -40 6 -47 4 -47 -10z"/>
<path d="M355 920 c-3 -5 -1 -10 4 -10 6 0 11 5 11 10 0 6 -2 10 -4 10 -3 0
-8 -4 -11 -10z"/>
<path d="M385 920 c-3 -5 1 -10 9 -10 9 0 16 5 16 10 0 6 -4 10 -9 10 -6 0
-13 -4 -16 -10z"/>
<path d="M455 920 c-3 -5 -1 -10 4 -10 6 0 11 5 11 10 0 6 -2 10 -4 10 -3 0
-8 -4 -11 -10z"/>
<path d="M428 900 c-7 -24 -3 -38 8 -28 3 4 4 17 2 30 l-3 23 -7 -25z"/>
<path d="M750 890 c0 -17 7 -20 39 -20 22 0 48 -3 58 -7 17 -7 17 -6 1 11 -10
9 -22 14 -28 11 -5 -3 -10 1 -10 9 0 11 -9 16 -30 16 -23 0 -30 -4 -30 -20z"/>
<path d="M940 890 c0 -16 -7 -20 -35 -20 -24 0 -35 -5 -35 -15 0 -11 11 -15
41 -15 24 0 38 4 34 10 -10 16 13 48 37 53 17 3 14 5 -9 6 -27 1 -33 -3 -33
-19z"/>
<path d="M356 891 c-4 -7 -5 -15 -2 -18 9 -9 19 4 14 18 -4 11 -6 11 -12 0z"/>
<path d="M325 880 c-3 -5 -1 -10 4 -10 6 0 11 5 11 10 0 6 -2 10 -4 10 -3 0
-8 -4 -11 -10z"/>
<path d="M390 880 c0 -5 5 -10 10 -10 6 0 10 5 10 10 0 6 -4 10 -10 10 -5 0
-10 -4 -10 -10z"/>
<path d="M690 855 c0 -18 16 -20 23 -2 4 10 6 10 6 0 1 -7 14 -13 30 -13 16 0
31 -5 33 -12 3 -9 6 -9 12 0 4 7 -3 14 -19 18 -14 3 -25 10 -25 15 0 5 -13 9
-30 9 -20 0 -30 -5 -30 -15z"/>
<path d="M300 845 c0 -9 -10 -20 -22 -25 -22 -8 -22 -9 5 -9 22 -1 27 3 27 24
0 14 -2 25 -5 25 -3 0 -5 -7 -5 -15z"/>
<path d="M325 850 c-3 -5 -1 -10 4 -10 6 0 11 5 11 10 0 6 -2 10 -4 10 -3 0
-8 -4 -11 -10z"/>
<path d="M355 850 c-3 -5 -1 -10 4 -10 6 0 11 5 11 10 0 6 -2 10 -4 10 -3 0
-8 -4 -11 -10z"/>
<path d="M395 850 c-3 -5 -1 -10 4 -10 6 0 11 5 11 10 0 6 -2 10 -4 10 -3 0
-8 -4 -11 -10z"/>
<path d="M810 825 c0 -12 12 -15 58 -14 31 1 45 4 30 6 -16 2 -28 9 -28 14 0
5 -13 9 -30 9 -20 0 -30 -5 -30 -15z"/>
<path d="M385 820 c-3 -5 1 -10 9 -10 9 0 16 5 16 10 0 6 -4 10 -9 10 -6 0
-13 -4 -16 -10z"/>
<path d="M427 807 c-4 -10 -23 -25 -42 -33 -43 -18 -44 -24 -5 -24 20 0 30 5
30 15 0 10 10 15 30 15 21 0 30 5 30 16 0 13 -3 14 -14 5 -11 -10 -15 -8 -18
6 -3 17 -4 17 -11 0z"/>
<path d="M560 795 c0 -10 -10 -15 -30 -15 -20 0 -30 -5 -30 -15 0 -10 -10 -15
-30 -15 -20 0 -30 -5 -30 -15 0 -8 -3 -15 -7 -16 -5 0 -20 -2 -35 -3 -15 -1
-33 -7 -40 -14 -9 -9 -2 -12 35 -12 35 0 47 -4 47 -15 0 -10 -11 -15 -35 -15
-19 0 -35 5 -35 11 0 5 -5 7 -10 4 -6 -4 -5 -12 4 -21 19 -18 106 -31 106 -16
0 6 -7 9 -15 6 -8 -4 -15 -2 -15 4 0 14 27 35 32 24 1 -5 26 -11 55 -14 44 -4
49 -3 37 9 -8 8 -18 11 -24 8 -5 -3 -10 -1 -10 4 0 6 -20 11 -45 11 -33 0 -45
4 -45 15 0 10 10 15 30 15 17 0 30 -5 30 -11 0 -5 5 -7 11 -3 6 3 14 2 18 -3
3 -6 29 -12 58 -15 46 -4 50 -3 36 10 -8 9 -39 18 -69 20 -37 3 -54 9 -54 18
0 9 11 14 30 14 20 0 30 5 30 15 0 11 12 15 50 15 38 0 50 -4 50 -15 0 -10
-11 -15 -35 -15 -19 0 -35 -5 -35 -11 0 -6 7 -9 15 -5 8 3 15 1 15 -3 0 -5 17
-11 39 -13 31 -3 38 0 33 12 -3 8 -10 18 -15 21 -5 4 -5 9 2 13 6 4 11 2 11
-3 0 -6 14 -11 30 -11 19 0 30 5 30 14 0 9 -19 15 -62 19 -34 3 -64 10 -66 16
-6 17 -62 14 -62 -4z"/>
<path d="M940 795 c0 -10 -11 -15 -35 -15 -24 0 -35 -5 -35 -15 0 -10 -10 -15
-30 -15 -20 0 -30 -5 -30 -15 0 -10 -10 -15 -30 -15 -20 0 -30 -5 -30 -15 0
-11 12 -15 45 -15 25 0 45 5 45 10 0 6 -5 10 -11 10 -5 0 -8 4 -5 9 3 5 14 7
25 4 12 -3 20 2 23 15 3 11 17 21 36 25 29 6 66 47 42 47 -5 0 -10 -7 -10 -15z"/>
<path d="M238 780 c-7 -24 -3 -38 8 -28 3 4 4 17 2 30 l-3 23 -7 -25z"/>
<path d="M325 790 c-3 -5 -1 -10 4 -10 6 0 11 5 11 10 0 6 -2 10 -4 10 -3 0
-8 -4 -11 -10z"/>
<path d="M265 760 c-3 -5 -1 -10 4 -10 6 0 11 5 11 10 0 6 -2 10 -4 10 -3 0
-8 -4 -11 -10z"/>
<path d="M295 760 c-3 -5 -1 -10 4 -10 6 0 11 5 11 10 0 6 -2 10 -4 10 -3 0
-8 -4 -11 -10z"/>
<path d="M770 750 c8 -5 20 -10 25 -10 6 0 3 5 -5 10 -8 5 -19 10 -25 10 -5 0
-3 -5 5 -10z"/>
<path d="M313 738 c-16 -21 -23 -48 -13 -48 6 0 10 7 10 15 0 8 7 15 15 15 8
0 15 7 15 15 0 18 -14 20 -27 3z"/>
<path d="M205 730 c-3 -5 -1 -10 4 -10 6 0 11 5 11 10 0 6 -2 10 -4 10 -3 0
-8 -4 -11 -10z"/>
<path d="M235 730 c-3 -5 -1 -10 4 -10 6 0 11 5 11 10 0 6 -2 10 -4 10 -3 0
-8 -4 -11 -10z"/>
<path d="M266 714 c-3 -8 -10 -13 -15 -9 -5 3 -12 1 -16 -5 -4 -6 5 -10 19
-10 19 0 26 5 26 20 0 24 -6 26 -14 4z"/>
<path d="M720 709 c0 -5 5 -7 10 -4 6 3 10 8 10 11 0 2 -4 4 -10 4 -5 0 -10
-5 -10 -11z"/>
<path d="M175 700 c-3 -5 -1 -10 4 -10 6 0 11 5 11 10 0 6 -2 10 -4 10 -3 0
-8 -4 -11 -10z"/>
<path d="M209 705 c-1 -3 -2 -11 -3 -17 0 -7 -6 -13 -13 -13 -6 0 -15 -3 -19
-7 -4 -5 5 -8 19 -8 22 0 27 5 27 25 0 22 -8 35 -11 20z"/>
<path d="M304 675 c-18 -14 -18 -14 9 -15 17 0 27 5 27 15 0 19 -11 19 -36 0z"/>
<path d="M660 675 c0 -10 -11 -15 -35 -15 -24 0 -35 -5 -35 -15 0 -11 12 -15
50 -15 38 0 50 4 50 15 0 8 -5 15 -12 15 -6 0 -9 2 -7 4 2 2 30 0 61 -3 31 -4
54 -3 52 1 -3 4 -12 8 -20 8 -8 0 -14 5 -14 10 0 6 -20 10 -45 10 -33 0 -45
-4 -45 -15z"/>
<path d="M150 665 c0 -9 -10 -20 -22 -25 -22 -8 -22 -9 5 -9 22 -1 27 3 27 24
0 14 -2 25 -5 25 -3 0 -5 -7 -5 -15z"/>
<path d="M244 663 c3 -4 1 -12 -5 -20 -9 -10 -6 -13 15 -13 31 0 35 25 5 33
-12 3 -18 3 -15 0z"/>
<path d="M810 649 c0 -5 5 -7 10 -4 6 3 10 8 10 11 0 2 -4 4 -10 4 -5 0 -10
-5 -10 -11z"/>
<path d="M840 650 c0 -12 8 -12 35 0 18 8 17 9 -7 9 -16 1 -28 -3 -28 -9z"/>
<path d="M188 628 c8 -8 7 -15 -6 -24 -15 -12 -14 -13 11 -14 34 0 39 35 6 43
-16 4 -19 3 -11 -5z"/>
<path d="M307 623 c3 -6 11 -9 19 -6 8 3 14 1 14 -5 0 -21 -85 -30 -93 -9 -3
6 -6 -2 -6 -20 -1 -17 -5 -35 -11 -38 -5 -3 -10 -2 -10 3 0 17 -38 21 -44 5
-9 -23 -9 -23 34 -23 29 0 40 4 40 15 0 10 10 15 30 15 20 0 30 5 30 15 0 10
10 15 30 15 23 0 30 5 30 19 0 14 -9 20 -34 23 -24 3 -32 0 -29 -9z"/>
<path d="M500 614 c0 -14 3 -14 15 -4 12 10 15 10 15 -4 0 -12 10 -16 39 -16
22 0 48 -3 58 -7 17 -7 17 -6 1 11 -10 9 -22 14 -28 11 -5 -3 -10 1 -10 9 0
12 -11 16 -45 16 -35 0 -45 -4 -45 -16z"/>
<path d="M720 619 c0 -5 5 -7 10 -4 6 3 10 8 10 11 0 2 -4 4 -10 4 -5 0 -10
-5 -10 -11z"/>
<path d="M750 614 c0 -9 5 -12 12 -8 7 4 23 9 36 10 42 5 37 14 -6 14 -31 0
-42 -4 -42 -16z"/>
<path d="M75 600 c-3 -5 -1 -10 4 -10 6 0 11 5 11 10 0 6 -2 10 -4 10 -3 0 -8
-4 -11 -10z"/>
<path d="M121 599 c-2 -21 -59 -63 -63 -46 -2 8 -15 -1 -31 -20 -22 -25 -25
-33 -13 -33 9 0 16 7 16 15 0 10 10 15 30 15 20 0 30 5 30 15 0 10 11 15 35
15 26 0 35 4 35 16 0 13 -3 14 -14 5 -12 -10 -15 -8 -19 11 -2 13 -5 16 -6 7z"/>
<path d="M390 604 c0 -12 26 -30 38 -26 6 2 12 -1 12 -7 0 -6 19 -11 45 -11
33 0 45 4 45 15 0 12 -13 15 -60 15 -33 0 -60 4 -60 10 0 6 -4 10 -10 10 -5 0
-10 -3 -10 -6z"/>
<path d="M660 579 c0 -5 5 -7 10 -4 6 3 10 8 10 11 0 2 -4 4 -10 4 -5 0 -10
-5 -10 -11z"/>
<path d="M690 575 c0 -12 13 -15 60 -15 60 0 80 12 38 24 -45 12 -98 7 -98 -9z"/>
<path d="M338 548 c4 -15 15 -18 68 -18 104 0 79 22 -37 32 -30 3 -35 1 -31
-14z"/>
<path d="M553 555 c6 -6 22 -11 36 -10 14 0 28 -2 31 -6 4 -6 150 -18 150 -13
0 1 -21 9 -47 17 -60 19 -184 28 -170 12z"/>
<path d="M100 515 c-7 -8 -22 -15 -34 -15 -13 0 -32 -11 -44 -25 -26 -30 -27
-35 -7 -35 8 0 15 7 15 15 0 10 10 15 30 15 20 0 30 5 30 15 0 10 11 15 35 15
24 0 35 5 35 15 0 9 -9 15 -24 15 -13 0 -29 -7 -36 -15z"/>
<path d="M280 515 c0 -10 10 -15 30 -15 20 0 30 5 30 15 0 10 -10 15 -30 15
-20 0 -30 -5 -30 -15z"/>
<path d="M500 520 c0 -5 7 -7 15 -4 8 4 15 1 15 -5 0 -7 24 -11 68 -10 37 1
57 4 45 6 -13 2 -23 9 -23 14 0 5 -27 9 -60 9 -33 0 -60 -4 -60 -10z"/>
<path d="M780 515 c0 -11 -12 -15 -45 -15 -51 0 -62 -14 -13 -17 18 -2 44 5
58 15 14 9 32 20 40 24 10 4 6 7 -12 7 -19 1 -28 -4 -28 -14z"/>
<path d="M175 510 c-3 -5 -1 -10 4 -10 6 0 11 5 11 10 0 6 -2 10 -4 10 -3 0
-8 -4 -11 -10z"/>
<path d="M220 485 c0 -8 -6 -15 -12 -16 -33 -3 -74 4 -79 13 -4 7 -9 6 -13 -1
-4 -6 -2 -11 3 -11 6 0 11 -7 11 -15 0 -11 12 -15 45 -15 33 0 45 4 45 15 0
10 10 15 30 15 20 0 30 5 30 15 0 10 -10 15 -30 15 -20 0 -30 -5 -30 -15z"/>
<path d="M423 493 c9 -2 17 -8 17 -12 0 -4 25 -9 56 -10 31 -1 61 -4 67 -8 6
-3 7 -1 3 5 -4 7 -14 12 -22 12 -8 0 -14 5 -14 10 0 6 -27 10 -62 9 -35 -1
-55 -3 -45 -6z"/>
<path d="M307 463 c3 -6 11 -9 19 -6 8 3 14 1 14 -4 0 -6 29 -11 65 -12 43 -1
65 2 65 10 0 6 -7 9 -15 5 -8 -3 -15 -1 -15 3 0 5 -31 11 -69 13 -50 2 -67 0
-64 -9z"/>
<path d="M590 462 c0 -4 8 -8 18 -9 9 -1 49 -5 87 -8 65 -6 68 -5 51 9 -21 17
-156 24 -156 8z"/>
<path d="M499 437 c5 -5 21 -10 35 -10 14 -1 26 -5 26 -8 0 -4 34 -7 77 -8 42
-1 81 -5 86 -8 6 -3 7 -1 3 5 -4 7 -20 12 -37 12 -16 0 -29 4 -29 9 0 5 -38
11 -85 13 -46 2 -80 -1 -76 -5z"/>
<path d="M47 433 c-16 -16 -3 -22 57 -25 43 -2 62 0 59 8 -2 6 -20 10 -39 8
-18 -1 -34 2 -34 7 0 10 -33 12 -43 2z"/>
<path d="M250 425 c0 -12 13 -15 60 -15 60 0 80 12 38 24 -45 12 -98 7 -98 -9z"/>
<path d="M388 413 c7 -3 16 -2 19 1 4 3 -2 6 -13 5 -11 0 -14 -3 -6 -6z"/>
<path d="M0 395 c0 -8 7 -15 15 -15 8 0 15 7 15 15 0 8 -7 15 -15 15 -8 0 -15
-7 -15 -15z"/>
<path d="M190 395 c0 -11 -13 -15 -54 -15 -49 0 -54 -2 -49 -20 5 -18 0 -20
-41 -20 -32 0 -46 -4 -46 -14 0 -16 170 -34 245 -25 38 4 24 6 -52 7 -84 2
-103 5 -103 17 0 11 12 15 50 15 43 0 50 3 50 20 0 18 7 20 59 20 38 0 61 -4
64 -12 4 -10 6 -10 6 0 1 15 -38 32 -56 25 -7 -3 -13 0 -13 6 0 6 -13 11 -30
11 -20 0 -30 -5 -30 -15z"/>
<path d="M440 399 c0 -6 7 -9 15 -5 8 3 15 1 15 -4 0 -6 34 -10 78 -9 75 1 76
1 42 14 -43 17 -150 20 -150 4z"/>
<path d="M750 399 c0 -5 5 -7 10 -4 6 3 10 8 10 11 0 2 -4 4 -10 4 -5 0 -10
-5 -10 -11z"/>
<path d="M45 390 c-3 -5 -1 -10 4 -10 6 0 11 5 11 10 0 6 -2 10 -4 10 -3 0 -8
-4 -11 -10z"/>
<path d="M340 369 c0 -6 7 -9 15 -5 9 3 15 0 15 -9 0 -12 16 -15 74 -15 41 0
82 -3 92 -7 16 -6 16 -5 5 8 -8 8 -25 15 -39 16 -15 0 -28 6 -30 12 -5 15
-132 15 -132 0z"/>
<path d="M660 363 c0 -13 3 -14 11 -6 6 6 17 9 25 6 7 -2 21 0 31 6 15 8 10
10 -24 11 -34 0 -43 -4 -43 -17z"/>
<path d="M210 351 c0 -6 4 -13 10 -16 6 -3 7 1 4 9 -7 18 -14 21 -14 7z"/>
<path d="M253 333 c8 -7 98 -5 105 2 3 3 -21 5 -53 5 -32 0 -55 -3 -52 -7z"/>
<path d="M560 332 c0 -10 106 -10 116 1 4 4 -20 7 -54 7 -34 0 -62 -4 -62 -8z"/>
<path d="M310 306 c0 -2 14 -6 30 -8 17 -3 30 -1 30 4 0 4 -13 8 -30 8 -16 0
-30 -2 -30 -4z"/>
<path d="M468 303 c44 -3 62 -8 59 -16 -3 -9 23 -12 99 -12 57 0 100 3 96 7
-14 13 -138 28 -227 26 -76 -2 -80 -2 -27 -5z"/>
<path d="M0 290 c0 -5 7 -10 15 -10 8 0 15 5 15 10 0 6 -7 10 -15 10 -8 0 -15
-4 -15 -10z"/>
<path d="M60 185 c0 -52 -4 -95 -8 -95 -5 0 -7 12 -6 28 1 15 -2 45 -6 67 -6
31 -8 18 -9 -57 l-1 -98 30 0 c29 0 30 1 30 50 l0 50 35 0 35 0 0 -50 0 -50
140 0 140 0 0 30 c0 20 5 30 15 30 10 0 15 -10 15 -30 l0 -30 125 0 c85 0 125
4 125 11 0 6 -7 9 -15 5 -8 -3 -15 -1 -15 4 0 6 14 10 30 10 20 0 30 -5 30
-15 0 -12 13 -15 56 -15 36 0 53 4 49 10 -4 6 -15 8 -26 5 -17 -6 -19 -1 -17
42 1 43 2 44 5 11 6 -56 23 -46 23 12 l0 50 35 0 c33 0 35 -2 35 -35 0 -19 -4
-35 -10 -35 -5 0 -10 11 -10 24 0 14 -4 28 -10 31 -6 4 -10 -17 -10 -54 l0
-61 35 0 35 0 0 92 c0 112 11 110 16 -3 5 -115 14 -112 14 4 l0 97 -95 0 -94
0 -3 -87 c-3 -82 -4 -86 -20 -69 -10 9 -22 14 -28 11 -5 -3 -10 -1 -10 4 0 6
7 11 15 11 12 0 15 14 15 65 l0 65 -125 0 c-104 0 -125 -2 -125 -15 0 -8 -7
-15 -15 -15 -11 0 -15 11 -14 43 0 23 3 36 6 30 7 -18 23 -16 23 2 0 12 -13
15 -61 15 -38 0 -58 -4 -54 -10 4 -6 11 -8 16 -5 5 4 9 -23 9 -64 0 -59 -3
-71 -16 -71 -14 0 -14 3 -4 15 10 12 10 15 -4 15 -19 0 -21 16 -3 23 9 4 9 6
0 6 -9 1 -13 17 -13 46 l0 45 -75 0 -75 0 0 -45 c0 -43 -1 -45 -30 -45 -29 0
-30 2 -30 45 l0 45 -50 0 -50 0 0 -95z m29 43 l-2 -43 -6 35 c-7 33 -5 50 5
50 2 0 3 -19 3 -42z m220 -30 c-1 -40 -3 -66 -6 -56 -2 9 -10 18 -16 21 -9 3
-11 -13 -9 -58 l4 -62 -31 0 c-17 0 -31 4 -31 9 0 4 7 8 16 8 13 0 15 15 12
100 -2 55 0 100 5 100 4 0 7 -16 7 -35 0 -19 5 -35 10 -35 6 0 10 18 10 40 0
29 4 40 15 40 12 0 15 -14 14 -72z m131 62 c0 -5 -5 -10 -11 -10 -5 0 -7 5 -4
10 3 6 8 10 11 10 2 0 4 -4 4 -10z m-303 -6 c-3 -3 -12 -4 -19 -1 -8 3 -5 6 6
6 11 1 17 -2 13 -5z m208 -14 c-3 -4 2 -27 10 -50 8 -23 15 -66 15 -95 0 -52
0 -52 -30 -51 -31 1 -43 16 -14 16 15 0 16 12 12 100 -3 54 -1 97 4 94 4 -3 6
-9 3 -14z m-205 -35 c0 -16 -6 -25 -15 -25 -9 0 -15 9 -15 25 0 16 6 25 15 25
9 0 15 -9 15 -25z m330 -41 c0 -2 -7 -4 -15 -4 -10 0 -15 10 -15 33 l0 32 15
-29 c8 -15 15 -30 15 -32z m150 30 l35 -14 -32 6 c-26 4 -33 2 -33 -10 0 -9
-5 -16 -11 -16 -6 0 -9 7 -5 15 3 8 1 15 -4 15 -6 0 -10 5 -10 10 0 13 17 12
60 -6z m115 6 c3 -5 1 -10 -4 -10 -6 0 -11 5 -11 10 0 6 2 10 4 10 3 0 8 -4
11 -10z m75 0 c0 -5 -5 -10 -11 -10 -5 0 -7 5 -4 10 3 6 8 10 11 10 2 0 4 -4
4 -10z m-260 -15 c0 -12 -19 -12 -23 0 -4 9 -1 12 9 8 7 -3 14 -7 14 -8z m348
8 c-10 -2 -28 -2 -40 0 -13 2 -5 4 17 4 22 1 32 -1 23 -4z m-208 -53 l0 -50
-35 0 c-33 0 -35 2 -35 35 0 33 2 35 33 36 17 0 26 3 20 6 -18 7 -16 23 2 23
11 0 15 -12 15 -50z m120 30 c0 -5 -5 -10 -11 -10 -5 0 -7 5 -4 10 3 6 8 10
11 10 2 0 4 -4 4 -10z m-630 -11 c-25 -5 -55 -11 -67 -14 -13 -3 -23 -1 -23 4
0 10 44 17 105 18 20 1 15 -2 -15 -8z m550 -19 c0 -16 -4 -30 -10 -30 -5 0
-10 14 -10 30 0 17 5 30 10 30 6 0 10 -13 10 -30z m-214 -15 c-1 -46 -16 -46
-16 0 0 19 4 35 8 35 5 0 8 -16 8 -35z m44 -15 c0 -38 4 -50 15 -50 29 0 15
-17 -15 -18 l-30 -1 0 60 c0 46 3 59 15 59 11 0 15 -12 15 -50z m-349 -9 c-28
-28 -31 -27 -31 8 0 23 5 30 23 33 29 4 33 -16 8 -41z m389 9 c0 -16 -4 -30
-10 -30 -5 0 -10 14 -10 30 0 17 5 30 10 30 6 0 10 -13 10 -30z m-130 10 c0
-5 -7 -10 -15 -10 -8 0 -15 5 -15 10 0 6 7 10 15 10 8 0 15 -4 15 -10z m-40
-34 c0 -3 -4 -8 -10 -11 -5 -3 -10 -1 -10 4 0 6 5 11 10 11 6 0 10 -2 10 -4z
m-366 -22 c3 -8 2 -12 -4 -9 -6 3 -10 10 -10 16 0 14 7 11 14 -7z m596 5 c0
-4 -11 -9 -24 -11 -17 -3 -23 -1 -19 8 5 13 43 16 43 3z m257 -15 c-3 -3 -12
-4 -19 -1 -8 3 -5 6 6 6 11 1 17 -2 13 -5z"/>
<path d="M652 126 c7 -8 15 -12 17 -11 5 6 -10 25 -20 25 -5 0 -4 -6 3 -14z"/>
<path d="M0 236 c0 -9 7 -12 20 -9 26 7 26 23 0 23 -11 0 -20 -6 -20 -14z"/>
<path d="M538 243 c7 -3 16 -2 19 1 4 3 -2 6 -13 5 -11 0 -14 -3 -6 -6z"/>
<path d="M578 243 c7 -3 16 -2 19 1 4 3 -2 6 -13 5 -11 0 -14 -3 -6 -6z"/>
<path d="M643 243 c15 -2 39 -2 55 0 15 2 2 4 -28 4 -30 0 -43 -2 -27 -4z"/>
<path d="M818 243 c23 -2 61 -2 85 0 23 2 4 4 -43 4 -47 0 -66 -2 -42 -4z"/>
<path d="M175 210 c4 -6 11 -8 16 -5 14 9 11 15 -7 15 -8 0 -12 -5 -9 -10z"/>
<path d="M991 174 c0 -11 3 -14 6 -6 3 7 2 16 -1 19 -3 4 -6 -2 -5 -13z"/>
<path d="M105 100 c-3 -5 3 -10 14 -10 12 0 21 5 21 10 0 6 -6 10 -14 10 -8 0
-18 -4 -21 -10z"/>
<path d="M110 70 c0 -5 5 -10 10 -10 6 0 10 5 10 10 0 6 -4 10 -10 10 -5 0
-10 -4 -10 -10z"/>
<path d="M115 40 c-3 -5 -1 -10 4 -10 6 0 11 5 11 10 0 6 -2 10 -4 10 -3 0 -8
-4 -11 -10z"/>
<path d="M198 3 c7 -3 16 -2 19 1 4 3 -2 6 -13 5 -11 0 -14 -3 -6 -6z"/>
<path d="M288 3 c7 -3 16 -2 19 1 4 3 -2 6 -13 5 -11 0 -14 -3 -6 -6z"/>
<path d="M378 3 c6 -2 18 -2 25 0 6 3 1 5 -13 5 -14 0 -19 -2 -12 -5z"/>
<path d="M508 3 c7 -3 16 -2 19 1 4 3 -2 6 -13 5 -11 0 -14 -3 -6 -6z"/>
<path d="M628 3 c6 -2 18 -2 25 0 6 3 1 5 -13 5 -14 0 -19 -2 -12 -5z"/>
<path d="M788 3 c7 -3 16 -2 19 1 4 3 -2 6 -13 5 -11 0 -14 -3 -6 -6z"/>
<path d="M878 3 c6 -2 18 -2 25 0 6 3 1 5 -13 5 -14 0 -19 -2 -12 -5z"/>
</g>
</svg>
