<?xml version="1.0" standalone="no"?>
<!DOCTYPE svg PUBLIC "-//W3C//DTD SVG 20010904//EN"
 "http://www.w3.org/TR/2001/REC-SVG-20010904/DTD/svg10.dtd">
<svg version="1.0" xmlns="http://www.w3.org/2000/svg"
 width="100.000000pt" height="100.000000pt" viewBox="0 0 100.000000 100.000000"
 preserveAspectRatio="xMidYMid meet">
<metadata>
Created by potrace 1.16, written by Peter Selinger 2001-2019
</metadata>
<g transform="translate(0.000000,100.000000) scale(0.100000,-0.100000)"
fill="#000000" stroke="none">
<path d="M0 980 c0 -7 173 -10 500 -10 327 0 500 3 500 10 0 7 -173 10 -500
10 -327 0 -500 -3 -500 -10z"/>
<path d="M558 928 c5 -21 -24 -25 -31 -5 -2 6 -2 2 0 -10 2 -13 -1 -23 -7 -23
-6 0 -16 -5 -23 -10 -7 -6 -21 -17 -32 -25 -19 -14 -19 -14 8 -15 17 0 27 -5
27 -15 0 -8 -9 -15 -19 -15 -11 0 -27 -7 -36 -16 -9 -9 -23 -13 -32 -9 -10 3
-14 3 -10 -1 4 -4 -1 -13 -11 -20 -15 -12 -14 -13 16 -14 22 0 32 5 32 15 0
10 10 15 30 15 20 0 30 5 30 15 0 10 10 15 30 15 20 0 30 5 30 15 0 10 10 15
30 15 20 0 30 5 30 15 0 10 11 15 35 15 28 0 35 4 35 20 0 15 7 20 29 20 16 0
32 -6 35 -12 3 -7 2 0 -1 16 l-6 29 44 -6 c32 -4 39 -3 26 4 -25 15 -127 1
-127 -17 0 -9 -12 -14 -35 -14 -40 0 -50 26 -12 33 12 2 -3 3 -34 3 -48 -1
-55 -3 -51 -18z m62 -38 c0 -16 -7 -20 -30 -20 -20 0 -30 -5 -30 -15 0 -10
-10 -15 -30 -15 -20 0 -30 5 -30 15 0 10 10 15 30 15 23 0 30 4 30 20 0 16 7
20 30 20 23 0 30 -4 30 -20z"/>
<path d="M5 485 l0 -455 44 0 43 0 -4 62 c-3 35 -3 57 0 50 2 -6 10 -12 18
-12 9 0 12 -5 9 -11 -13 -20 -11 -89 3 -89 8 0 12 17 12 50 0 38 4 50 15 50
11 0 15 -12 15 -50 l0 -50 46 0 46 0 -4 88 c-2 66 0 85 8 78 7 -6 10 -14 8
-17 -2 -4 3 -24 11 -45 9 -22 13 -28 10 -14 -2 14 -5 55 -5 93 l0 67 -30 0
-30 0 0 -60 c0 -47 -3 -60 -15 -60 -9 0 -15 6 -14 12 4 31 -2 78 -9 78 -5 0
-8 -13 -7 -30 1 -16 -2 -30 -7 -30 -4 0 -8 13 -8 29 0 26 -4 30 -32 34 l-33 4
33 1 c43 3 41 22 -3 22 l-35 0 -1 -62 c0 -40 -3 -56 -8 -44 -4 11 -7 32 -6 48
1 15 -2 28 -7 28 -4 0 -8 -47 -8 -105 0 -87 -3 -105 -15 -105 -13 0 -15 57
-15 450 0 353 -3 450 -12 450 -10 0 -13 -98 -13 -455z m265 -231 c0 -2 -9 -4
-21 -4 -11 0 -18 4 -14 10 5 8 35 3 35 -6z m-130 -49 c0 -16 -6 -25 -15 -25
-9 0 -15 9 -15 25 0 16 6 25 15 25 9 0 15 -9 15 -25z m23 -46 c-6 -6 -21 -9
-34 -6 -22 4 -22 4 4 6 15 0 27 6 27 13 0 6 3 8 7 5 4 -4 2 -12 -4 -18z m67
-40 c0 -15 -4 -19 -16 -15 -9 3 -20 6 -25 6 -5 0 -9 7 -9 15 0 9 9 15 25 15
19 0 25 -5 25 -21z m-40 -55 c0 -14 -4 -23 -9 -20 -5 3 -7 15 -4 26 7 28 13
25 13 -6z"/>
<path d="M60 735 l0 -205 35 0 c24 0 35 5 35 15 0 10 10 15 30 15 20 0 30 5
30 15 0 10 10 15 30 15 23 0 30 5 30 19 0 10 -9 21 -20 24 -11 3 -20 1 -20 -4
0 -5 6 -9 13 -9 16 0 -42 -31 -68 -36 -11 -2 -26 -13 -34 -24 -18 -26 -25 -25
-39 5 -6 14 -8 25 -4 25 4 0 6 75 4 166 l-3 166 166 -4 c127 -2 165 0 165 10
0 9 -42 12 -175 12 l-175 0 0 -205z"/>
<path d="M420 925 c0 -8 5 -15 10 -15 6 0 10 7 10 15 0 8 -4 15 -10 15 -5 0
-10 -7 -10 -15z"/>
<path d="M480 929 c0 -5 -4 -7 -10 -4 -5 3 -10 1 -10 -4 0 -6 9 -11 20 -11 11
0 20 7 20 15 0 8 -4 15 -10 15 -5 0 -10 -5 -10 -11z"/>
<path d="M840 925 c0 -11 12 -15 50 -15 39 0 50 -3 50 -16 0 -13 3 -14 14 -5
7 6 21 9 30 5 9 -3 16 -1 16 5 0 6 -13 11 -30 11 -20 0 -30 5 -30 15 0 11 -12
15 -50 15 -38 0 -50 -4 -50 -15z"/>
<path d="M780 890 c0 -17 7 -20 44 -20 24 0 46 -4 48 -10 2 -6 8 -6 18 0 13 8
12 10 -2 10 -10 0 -18 7 -18 16 0 14 -3 14 -15 4 -12 -10 -15 -10 -15 4 0 11
-9 16 -30 16 -23 0 -30 -4 -30 -20z"/>
<path d="M426 891 c-4 -7 -5 -15 -2 -18 9 -9 19 4 14 18 -4 11 -6 11 -12 0z"/>
<path d="M456 885 c-3 -8 -1 -15 4 -15 6 0 10 7 10 15 0 8 -2 15 -4 15 -2 0
-6 -7 -10 -15z"/>
<path d="M358 870 c-7 -24 -3 -38 8 -28 3 4 4 17 2 30 l-3 23 -7 -25z"/>
<path d="M390 880 c0 -5 5 -10 10 -10 6 0 10 5 10 10 0 6 -4 10 -10 10 -5 0
-10 -4 -10 -10z"/>
<path d="M720 855 c0 -11 12 -15 45 -15 25 0 45 -4 45 -10 0 -5 7 -7 15 -4 8
4 15 1 15 -5 0 -7 20 -11 50 -11 52 0 67 13 28 24 -13 3 -42 6 -65 6 -25 0
-43 5 -43 11 0 6 -7 9 -15 5 -8 -3 -15 -1 -15 4 0 6 -13 10 -30 10 -20 0 -30
-5 -30 -15z"/>
<path d="M910 857 c0 -9 12 -14 30 -15 20 0 30 4 30 14 0 9 -11 14 -30 14 -18
0 -30 -5 -30 -13z"/>
<path d="M329 855 c-1 -3 -2 -11 -3 -17 0 -7 -6 -13 -13 -13 -6 0 -15 -3 -19
-7 -4 -5 5 -8 19 -8 22 0 27 5 27 25 0 22 -8 35 -11 20z"/>
<path d="M395 850 c-3 -5 -1 -10 4 -10 6 0 11 5 11 10 0 6 -2 10 -4 10 -3 0
-8 -4 -11 -10z"/>
<path d="M406 825 c-19 -14 -19 -15 7 -15 17 0 27 5 27 15 0 19 -9 19 -34 0z"/>
<path d="M660 825 c0 -11 12 -15 45 -15 26 0 45 -5 45 -11 0 -6 6 -9 14 -6 8
3 16 2 18 -2 2 -5 26 -10 55 -13 45 -4 49 -3 37 10 -8 8 -45 18 -82 22 -36 5
-68 13 -70 19 -6 17 -62 13 -62 -4z"/>
<path d="M955 820 c-3 -5 -1 -10 4 -10 6 0 11 5 11 10 0 6 -2 10 -4 10 -3 0
-8 -4 -11 -10z"/>
<path d="M348 799 c-17 -18 -17 -19 2 -19 13 0 20 7 20 20 0 24 0 24 -22 -1z"/>
<path d="M590 795 c0 -10 -10 -15 -30 -15 -21 0 -30 -5 -30 -16 0 -12 -8 -15
-33 -12 -29 3 -33 1 -29 -14 4 -18 -5 -22 -40 -19 -10 1 -18 -4 -18 -12 0 -28
-54 -30 -72 -4 -3 6 -5 -2 -5 -16 2 -24 6 -27 40 -27 24 0 37 -5 37 -13 0 -9
15 -14 45 -15 34 -2 45 1 45 13 0 11 -12 15 -45 15 -33 0 -45 4 -45 15 0 10
10 15 30 15 17 0 30 -4 30 -10 0 -5 7 -7 15 -4 8 4 15 1 15 -5 0 -6 19 -11 45
-11 25 0 45 -4 45 -10 0 -5 7 -7 15 -4 8 4 15 1 15 -5 0 -7 24 -11 65 -11 52
0 65 -3 65 -16 0 -8 5 -12 10 -9 17 11 11 24 -15 31 -14 3 -25 10 -25 15 0 5
-29 9 -65 9 -36 0 -65 4 -65 10 0 5 -7 7 -15 4 -8 -4 -15 -1 -15 5 0 6 -19 11
-45 11 -35 0 -45 4 -45 16 0 14 8 16 43 11 23 -2 36 -3 30 0 -26 10 -13 33 17
33 20 0 30 5 30 15 0 10 11 15 35 15 24 0 35 5 35 15 0 10 -11 15 -35 15 -24
0 -35 -5 -35 -15z"/>
<path d="M296 774 c-3 -8 -10 -13 -15 -9 -5 3 -12 1 -16 -5 -4 -6 5 -10 19
-10 19 0 26 5 26 20 0 24 -6 26 -14 4z"/>
<path d="M688 768 c3 -15 -2 -18 -32 -18 -58 0 -46 -25 14 -28 37 -1 50 2 50
12 0 8 -6 16 -12 19 -7 2 12 2 42 -1 30 -3 58 -9 61 -14 4 -7 9 -6 13 1 4 6
-4 13 -19 17 -14 3 -25 10 -25 14 0 4 -22 10 -48 12 -43 3 -48 1 -44 -14z"/>
<path d="M910 765 c0 -10 -11 -15 -35 -15 -24 0 -35 -5 -35 -15 0 -11 -12 -15
-45 -15 -26 0 -45 -5 -45 -11 0 -6 7 -9 15 -5 8 3 15 1 15 -4 0 -6 28 -10 63
-9 45 0 56 3 41 9 -38 15 -38 30 0 30 24 0 36 5 36 14 0 18 30 29 35 13 2 -6
3 -120 2 -252 l-2 -240 -62 3 c-34 2 -70 -1 -80 -7 -14 -8 3 -10 70 -11 l87 0
0 265 0 265 -30 0 c-20 0 -30 -5 -30 -15z"/>
<path d="M336 754 c1 -6 -3 -17 -9 -23 -8 -8 -4 -11 16 -11 17 0 27 5 27 15 0
8 -6 15 -14 15 -8 0 -16 3 -19 8 -2 4 -3 2 -1 -4z"/>
<path d="M228 739 c-17 -18 -17 -19 2 -19 13 0 20 7 20 20 0 24 0 24 -22 -1z"/>
<path d="M274 705 c-18 -14 -18 -14 9 -15 17 0 27 5 27 15 0 19 -11 19 -36 0z"/>
<path d="M560 706 c0 -12 10 -16 44 -16 24 0 53 -3 63 -7 17 -6 17 -6 1 10 -9
10 -37 20 -62 23 -38 6 -46 4 -46 -10z"/>
<path d="M235 680 c-3 -5 -12 -7 -20 -3 -8 3 -15 0 -15 -6 0 -6 11 -11 25 -11
16 0 25 6 25 15 0 17 -6 19 -15 5z"/>
<path d="M690 681 c0 -12 36 -21 83 -21 41 0 50 14 15 24 -35 9 -98 7 -98 -3z"/>
<path d="M176 655 c-3 -8 -12 -12 -20 -9 -8 3 -17 1 -21 -5 -4 -7 5 -11 24
-11 24 0 31 4 31 20 0 24 -6 26 -14 5z"/>
<path d="M274 663 c3 -4 1 -12 -5 -20 -9 -10 -6 -13 15 -13 31 0 35 25 5 33
-12 3 -18 3 -15 0z"/>
<path d="M840 650 c0 -6 19 -7 47 -4 65 8 67 14 5 14 -29 0 -52 -4 -52 -10z"/>
<path d="M326 642 c-4 -7 -2 -12 3 -12 6 0 11 -9 11 -20 0 -17 7 -20 44 -20
24 0 50 -2 58 -3 7 -2 10 -2 6 0 -5 3 -8 14 -8 26 0 20 0 20 -15 1 -13 -17
-14 -17 -15 -1 0 13 -8 17 -34 17 -19 0 -36 5 -38 12 -3 9 -6 9 -12 0z"/>
<path d="M530 614 c0 -14 3 -14 15 -4 12 10 15 10 15 -4 0 -13 11 -16 50 -16
36 0 50 4 50 14 0 9 -7 12 -20 9 -11 -3 -20 0 -20 6 0 6 -19 11 -45 11 -35 0
-45 -4 -45 -16z"/>
<path d="M780 616 c0 -11 8 -12 36 -6 51 12 54 20 6 20 -29 0 -42 -4 -42 -14z"/>
<path d="M268 608 c-4 -10 -3 -18 2 -18 6 0 10 -7 10 -15 0 -10 -10 -15 -30
-15 -19 0 -30 -5 -30 -14 0 -7 -7 -19 -15 -26 -11 -9 -15 -9 -15 -1 0 16 -52
10 -58 -6 -2 -9 10 -13 42 -13 27 0 46 -5 46 -11 0 -6 6 -9 14 -6 8 3 16 2 18
-2 2 -5 26 -10 54 -13 41 -4 49 -2 40 7 -6 7 -17 10 -23 8 -7 -3 -13 0 -13 6
0 6 -19 11 -45 11 -33 0 -45 4 -45 15 0 10 10 15 30 15 20 0 30 5 30 15 0 10
10 15 30 15 20 0 30 5 30 15 0 10 -10 15 -29 15 -20 0 -31 6 -33 18 -3 16 -4
16 -10 0z"/>
<path d="M105 600 c-3 -5 1 -10 9 -10 9 0 16 5 16 10 0 6 -4 10 -9 10 -6 0
-13 -4 -16 -10z"/>
<path d="M470 575 c0 -11 13 -15 54 -15 30 0 67 -5 83 -11 26 -10 183 -29 183
-21 0 2 -14 8 -31 14 -42 15 -28 22 39 20 l57 -2 -34 15 c-39 18 -131 20 -131
4 0 -6 7 -9 15 -5 8 3 15 1 15 -5 0 -16 -152 -7 -158 9 -6 19 -92 16 -92 -3z"/>
<path d="M366 552 c8 -8 21 -11 29 -8 8 3 15 1 15 -4 0 -6 20 -10 45 -10 26 0
45 5 45 11 0 6 -6 9 -14 6 -8 -3 -16 -2 -18 2 -2 5 -28 10 -59 13 -49 4 -55 3
-43 -10z"/>
<path d="M310 515 c0 -11 12 -15 50 -15 38 0 50 4 50 15 0 11 -12 15 -50 15
-38 0 -50 -4 -50 -15z"/>
<path d="M530 519 c0 -6 7 -9 15 -5 8 3 15 1 15 -3 0 -5 31 -11 69 -13 50 -2
67 0 64 9 -3 6 -11 9 -19 6 -8 -3 -14 0 -14 6 0 7 -24 11 -65 11 -41 0 -65 -4
-65 -11z"/>
<path d="M810 522 c0 -10 36 -9 46 1 4 4 -5 7 -19 7 -15 0 -27 -4 -27 -8z"/>
<path d="M437 493 c3 -6 11 -9 19 -6 8 3 14 0 14 -6 0 -7 23 -11 60 -11 33 0
60 4 60 10 0 12 9 10 -81 18 -58 6 -75 4 -72 -5z"/>
<path d="M60 485 c0 -10 11 -15 35 -15 24 0 35 5 35 15 0 10 -11 15 -35 15
-24 0 -35 -5 -35 -15z"/>
<path d="M720 489 c0 -6 7 -9 15 -5 8 3 15 1 15 -4 0 -5 13 -5 31 0 49 14 47
20 -9 20 -31 0 -52 -4 -52 -11z"/>
<path d="M146 481 c-4 -6 -2 -11 3 -11 6 0 11 -7 11 -15 0 -11 12 -15 45 -15
60 0 63 26 3 28 -23 1 -45 7 -49 13 -5 8 -8 8 -13 0z"/>
<path d="M370 458 c0 -9 24 -14 76 -16 43 -2 88 -8 101 -13 14 -5 29 -7 34 -3
5 3 9 0 9 -5 0 -7 30 -11 83 -10 77 1 80 2 45 13 -63 19 -56 28 17 24 39 -3
58 -3 43 -1 -16 2 -28 8 -28 14 0 5 -29 9 -65 9 -39 0 -65 -4 -65 -11 0 -6 9
-8 20 -4 11 4 20 2 20 -4 0 -16 -111 -13 -160 4 -53 19 -130 20 -130 3z"/>
<path d="M51 458 c-1 -4 3 -18 9 -33 7 -17 7 -24 0 -20 -6 3 -10 -1 -10 -9 0
-10 9 -16 21 -16 18 0 20 4 15 28 -4 15 -3 22 1 16 4 -6 35 -13 67 -16 33 -3
62 -10 64 -16 2 -7 27 -12 62 -12 37 0 60 -5 63 -12 4 -10 6 -10 6 0 1 8 -8
16 -19 19 -11 3 -20 9 -20 14 0 5 -27 9 -60 9 -33 0 -60 4 -60 10 0 5 -7 7
-15 4 -8 -4 -15 -1 -15 5 0 7 -20 11 -49 11 -30 0 -51 5 -54 13 -3 6 -6 9 -6
5z"/>
<path d="M280 430 c0 -12 -9 -10 87 -18 88 -8 99 -1 29 17 -56 14 -116 14
-116 1z"/>
<path d="M470 401 c0 -6 7 -8 15 -5 8 4 15 1 15 -5 0 -7 28 -11 80 -11 44 0
80 4 80 9 0 5 -10 9 -22 10 -13 0 -56 3 -95 7 -50 4 -73 3 -73 -5z"/>
<path d="M130 360 c0 -18 7 -20 60 -20 49 0 60 3 60 16 0 14 -3 14 -15 4 -12
-10 -15 -10 -15 4 0 12 -10 16 -45 16 -38 0 -45 -3 -45 -20z"/>
<path d="M370 365 c0 -13 4 -14 20 -5 16 9 20 8 20 -5 0 -12 14 -15 75 -15 48
0 75 4 75 11 0 6 -7 9 -15 5 -8 -3 -15 -1 -15 4 0 5 -7 7 -15 4 -8 -4 -15 -1
-15 5 0 7 -24 11 -65 11 -52 0 -65 -3 -65 -15z"/>
<path d="M690 364 c0 -14 3 -14 15 -4 8 7 15 8 15 3 0 -12 48 -5 56 8 3 5 -15
9 -40 9 -36 0 -46 -4 -46 -16z"/>
<path d="M56 325 c7 -18 104 -22 104 -4 0 6 -7 9 -15 5 -8 -3 -15 -1 -15 4 0
6 -18 10 -40 10 -31 0 -38 -3 -34 -15z"/>
<path d="M280 330 c0 -5 7 -7 15 -4 8 4 15 1 15 -5 0 -7 -23 -11 -60 -11 -33
0 -60 -4 -60 -8 0 -4 33 -5 73 -1 39 4 104 8 142 9 70 2 70 2 35 15 -41 16
-160 20 -160 5z"/>
<path d="M590 331 c0 -12 117 -13 125 -1 4 6 -17 10 -59 10 -36 0 -66 -4 -66
-9z"/>
<path d="M520 299 c35 -15 218 -25 205 -10 -6 6 -60 13 -120 16 -85 4 -104 3
-85 -6z"/>
<path d="M50 295 c0 -5 5 -17 10 -25 5 -8 10 -10 10 -5 0 6 -5 17 -10 25 -5 8
-10 11 -10 5z"/>
<path d="M175 270 c4 -6 11 -8 16 -5 14 9 11 15 -7 15 -8 0 -12 -5 -9 -10z"/>
<path d="M305 270 c4 -6 11 -8 16 -5 14 9 11 15 -7 15 -8 0 -12 -5 -9 -10z"/>
<path d="M343 235 c5 -36 4 -45 -8 -45 -11 0 -14 8 -10 30 3 17 1 30 -5 30 -6
0 -10 -37 -10 -95 0 -55 -4 -95 -10 -95 -5 0 -7 7 -4 15 4 8 1 15 -5 15 -6 0
-11 -13 -11 -30 0 -27 3 -30 30 -30 l30 0 0 65 c0 38 4 65 10 65 6 0 10 -6 9
-12 -1 -7 1 -37 6 -65 7 -52 8 -53 41 -53 31 0 34 3 34 30 0 20 5 30 15 30 10
0 15 -10 15 -30 0 -27 3 -30 30 -30 l30 0 0 65 c0 51 3 65 15 65 11 0 15 -12
15 -50 0 -27 5 -50 10 -50 13 0 13 44 -2 91 -9 33 -15 39 -40 39 -18 0 -28 -5
-28 -15 0 -8 -7 -15 -15 -15 -11 0 -15 12 -15 45 0 33 -4 45 -15 45 -16 0 -19
-27 -9 -79 5 -24 12 -31 30 -31 12 0 25 -4 29 -9 7 -12 -5 -94 -13 -86 -9 9
-9 45 0 45 4 0 8 9 8 20 0 11 -7 20 -15 20 -8 0 -15 -4 -15 -10 0 -5 -6 -10
-14 -10 -10 0 -17 18 -23 58 -4 31 -7 63 -6 70 1 17 -39 12 -45 -5 -2 -7 3
-13 12 -13 13 0 16 -14 16 -86 0 -54 -4 -83 -10 -79 -5 3 -10 12 -10 20 0 7
-6 16 -12 18 -10 4 -9 8 2 17 11 9 12 13 3 17 -9 3 -13 28 -13 75 0 61 2 69
18 64 9 -3 24 -1 32 4 11 7 1 10 -34 10 l-49 0 6 -45z"/>
<path d="M440 270 c0 -5 11 -10 24 -10 19 0 23 -4 19 -20 -3 -11 0 -20 6 -20
6 0 11 14 11 30 0 27 -3 30 -30 30 -16 0 -30 -4 -30 -10z"/>
<path d="M520 266 c0 -13 14 -16 82 -16 77 0 103 11 36 16 -17 1 -51 5 -75 9
-35 5 -43 3 -43 -9z"/>
<path d="M750 255 c0 -8 4 -15 10 -15 5 0 7 7 4 15 -4 8 -8 15 -10 15 -2 0 -4
-7 -4 -15z"/>
<path d="M521 210 c10 -6 31 -8 48 -6 54 6 47 16 -10 16 -39 -1 -50 -3 -38
-10z"/>
<path d="M620 211 c0 -4 29 -8 65 -8 36 1 65 4 65 9 0 4 -29 8 -65 8 -36 0
-65 -4 -65 -9z"/>
<path d="M810 155 c0 -63 -14 -89 -23 -42 -2 12 -5 -2 -6 -30 -1 -52 -1 -53
29 -53 l30 0 0 65 0 65 35 0 35 0 0 -55 c0 -44 -3 -53 -15 -49 -8 4 -12 10 -9
15 3 5 -3 17 -12 27 -17 16 -18 16 -11 -1 4 -10 7 -30 7 -43 0 -21 5 -24 35
-24 l35 0 1 53 c1 38 3 45 8 27 4 -14 7 -37 6 -52 -1 -16 2 -28 7 -28 4 0 8
43 8 95 l0 95 -80 0 -80 0 0 -65z m147 42 c3 -4 -27 -7 -68 -7 -53 0 -70 3
-59 10 16 11 115 8 127 -3z m-143 -133 c3 -8 2 -12 -4 -9 -6 3 -10 10 -10 16
0 14 7 11 14 -7z"/>
<path d="M590 110 l0 -80 65 0 c51 0 65 3 65 15 0 8 7 15 15 15 12 0 15 14 15
65 l0 65 -80 0 -80 0 0 -80z m46 34 c-3 -8 -2 -14 3 -14 4 0 6 -11 3 -25 -3
-17 0 -25 10 -25 10 0 13 11 10 40 -3 32 -1 40 12 40 13 0 16 -11 16 -50 l0
-50 -34 0 -34 0 -4 54 c-2 41 0 52 10 48 7 -2 11 -11 8 -18z m86 -23 c2 -22 0
-37 -3 -35 -9 5 -17 74 -8 74 4 0 9 -18 11 -39z"/>
<path d="M775 180 c3 -5 8 -10 11 -10 2 0 4 5 4 10 0 6 -5 10 -11 10 -5 0 -7
-4 -4 -10z"/>
<path d="M991 174 c0 -11 3 -14 6 -6 3 7 2 16 -1 19 -3 4 -6 -2 -5 -13z"/>
<path d="M770 149 c0 -5 5 -7 10 -4 6 3 10 8 10 11 0 2 -4 4 -10 4 -5 0 -10
-5 -10 -11z"/>
<path d="M855 140 c-4 -6 3 -10 14 -10 25 0 27 6 6 13 -8 4 -17 2 -20 -3z"/>
<path d="M545 40 c-3 -5 3 -10 15 -10 12 0 18 5 15 10 -3 6 -10 10 -15 10 -5
0 -12 -4 -15 -10z"/>
<path d="M735 40 c-3 -5 1 -10 10 -10 9 0 13 5 10 10 -3 6 -8 10 -10 10 -2 0
-7 -4 -10 -10z"/>
<path d="M870 10 c0 -5 5 -10 11 -10 5 0 7 5 4 10 -3 6 -8 10 -11 10 -2 0 -4
-4 -4 -10z"/>
<path d="M68 3 c7 -3 16 -2 19 1 4 3 -2 6 -13 5 -11 0 -14 -3 -6 -6z"/>
<path d="M198 3 c7 -3 16 -2 19 1 4 3 -2 6 -13 5 -11 0 -14 -3 -6 -6z"/>
<path d="M288 3 c7 -3 16 -2 19 1 4 3 -2 6 -13 5 -11 0 -14 -3 -6 -6z"/>
<path d="M508 3 c7 -3 16 -2 19 1 4 3 -2 6 -13 5 -11 0 -14 -3 -6 -6z"/>
<path d="M788 3 c7 -3 16 -2 19 1 4 3 -2 6 -13 5 -11 0 -14 -3 -6 -6z"/>
<path d="M918 3 c7 -3 16 -2 19 1 4 3 -2 6 -13 5 -11 0 -14 -3 -6 -6z"/>
</g>
</svg>
