<?xml version="1.0" standalone="no"?>
<!DOCTYPE svg PUBLIC "-//W3C//DTD SVG 20010904//EN"
 "http://www.w3.org/TR/2001/REC-SVG-20010904/DTD/svg10.dtd">
<svg version="1.0" xmlns="http://www.w3.org/2000/svg"
 width="73.000000pt" height="73.000000pt" viewBox="0 0 73.000000 73.000000"
 preserveAspectRatio="xMidYMid meet">
<metadata>
Created by potrace 1.16, written by Peter Selinger 2001-2019
</metadata>
<g transform="translate(0.000000,73.000000) scale(0.100000,-0.100000)"
fill="#000000" stroke="none">
<path d="M90 662 c-69 -38 -74 -54 -80 -243 l-5 -170 73 -84 c82 -95 116 -113
186 -94 66 18 120 89 102 135 -5 14 -7 14 -22 -1 -34 -33 -59 -15 -189 140
-98 117 -125 156 -123 175 2 20 9 26 33 28 28 3 43 -13 223 -227 126 -149 204
-234 224 -242 46 -19 114 -16 145 7 62 47 65 56 65 243 l0 171 -66 79 c-37 43
-78 83 -92 90 -84 38 -194 -27 -194 -116 0 -37 15 -52 23 -22 4 16 12 20 33
17 39 -4 276 -281 272 -317 -3 -28 -28 -47 -50 -38 -9 3 -100 105 -203 227
-103 121 -197 227 -209 235 -39 26 -106 29 -146 7z m116 -24 c15 -7 107 -108
205 -224 98 -116 185 -219 194 -228 9 -9 32 -16 51 -16 32 0 34 -2 24 -21 -32
-59 -127 -74 -177 -27 -14 13 -108 121 -210 241 -164 193 -187 217 -214 217
-24 0 -28 3 -21 16 14 25 65 54 94 54 15 0 39 -6 54 -12z m404 -55 c92 -100
91 -99 88 -193 l-3 -82 -108 128 c-93 111 -114 130 -149 140 l-40 10 36 32
c28 24 46 32 75 32 36 0 45 -6 101 -67z m-446 -296 c95 -112 101 -117 138
-117 l39 0 -21 -30 c-28 -39 -87 -58 -129 -41 -16 7 -59 48 -95 91 l-66 78 0
88 c1 85 1 88 18 69 9 -12 62 -73 116 -138z"/>
</g>
</svg>
