<?xml version="1.0" standalone="no"?>
<!DOCTYPE svg PUBLIC "-//W3C//DTD SVG 20010904//EN"
 "http://www.w3.org/TR/2001/REC-SVG-20010904/DTD/svg10.dtd">
<svg version="1.0" xmlns="http://www.w3.org/2000/svg"
 width="100.000000pt" height="100.000000pt" viewBox="0 0 100.000000 100.000000"
 preserveAspectRatio="xMidYMid meet">
<metadata>
Created by potrace 1.16, written by Peter Selinger 2001-2019
</metadata>
<g transform="translate(0.000000,100.000000) scale(0.100000,-0.100000)"
fill="#000000" stroke="none">
<path d="M370 859 c0 -6 8 -8 19 -4 11 3 21 0 24 -7 3 -10 -9 -12 -49 -10 -37
3 -54 0 -54 -8 0 -7 7 -10 15 -6 8 3 15 1 15 -4 0 -6 63 -10 160 -10 136 0
160 -2 160 -15 0 -10 10 -15 30 -15 17 0 30 4 30 10 0 5 7 7 15 4 8 -4 15 -1
15 6 0 8 -12 11 -33 8 -29 -3 -33 -1 -29 15 5 18 1 19 -59 12 -124 -13 -187
-14 -192 -2 -3 9 12 11 55 9 68 -4 128 4 128 18 0 6 -52 10 -125 10 -82 0
-125 -4 -125 -11z"/>
<path d="M638 863 c7 -3 16 -2 19 1 4 3 -2 6 -13 5 -11 0 -14 -3 -6 -6z"/>
<path d="M280 796 c0 -8 6 -17 13 -20 6 -3 0 -3 -15 0 -21 5 -28 2 -28 -9 0
-8 5 -17 12 -19 9 -3 9 -6 0 -12 -7 -4 -12 -2 -12 3 0 6 -7 11 -16 11 -12 0
-15 -7 -10 -27 3 -16 3 -22 0 -15 -11 24 -34 13 -34 -18 0 -16 5 -30 11 -30 6
0 9 -7 5 -15 -3 -8 -1 -15 4 -15 6 0 10 14 10 30 0 20 5 30 15 30 8 0 15 7 15
15 0 8 7 15 15 15 8 0 15 7 15 15 0 8 7 15 15 15 8 0 15 7 15 15 0 10 10 15
30 15 17 0 30 4 30 10 0 5 -7 7 -15 4 -8 -4 -15 -1 -15 5 0 6 -13 11 -30 11
-19 0 -30 -5 -30 -14z"/>
<path d="M628 783 c7 -3 16 -2 19 1 4 3 -2 6 -13 5 -11 0 -14 -3 -6 -6z"/>
<path d="M220 769 c0 -5 5 -7 10 -4 6 3 10 8 10 11 0 2 -4 4 -10 4 -5 0 -10
-5 -10 -11z"/>
<path d="M720 764 c0 -11 6 -15 19 -11 14 3 17 0 14 -14 -6 -21 22 -28 29 -7
3 9 6 9 12 0 4 -7 2 -12 -3 -12 -6 0 -11 -7 -11 -15 0 -8 7 -15 15 -15 10 0
15 10 15 30 0 20 -5 30 -15 30 -8 0 -15 7 -15 15 0 10 -10 15 -30 15 -21 0
-30 -5 -30 -16z"/>
<path d="M825 710 c3 -5 8 -10 11 -10 2 0 4 5 4 10 0 6 -5 10 -11 10 -5 0 -7
-4 -4 -10z"/>
<path d="M160 679 c0 -5 5 -7 10 -4 6 3 10 8 10 11 0 2 -4 4 -10 4 -5 0 -10
-5 -10 -11z"/>
<path d="M810 659 c0 -26 3 -30 19 -26 14 3 17 0 14 -14 -4 -15 -8 -17 -19 -8
-11 9 -14 8 -14 -5 0 -13 12 -16 65 -16 58 0 65 2 65 20 0 16 -7 20 -35 20
-24 0 -35 5 -35 15 0 8 -7 15 -15 15 -8 0 -15 7 -15 15 0 8 -7 15 -15 15 -10
0 -15 -10 -15 -31z"/>
<path d="M780 670 c0 -5 5 -10 11 -10 5 0 7 5 4 10 -3 6 -8 10 -11 10 -2 0 -4
-4 -4 -10z"/>
<path d="M90 652 c0 -9 47 -8 57 1 3 4 -8 7 -25 7 -18 0 -32 -4 -32 -8z"/>
<path d="M163 640 c3 -11 1 -23 -4 -26 -5 -3 -9 0 -9 5 0 6 -13 11 -30 11 -23
0 -30 -4 -30 -20 0 -17 7 -20 50 -20 l50 0 0 35 c0 26 -4 35 -16 35 -11 0 -15
-6 -11 -20z"/>
<path d="M880 656 c0 -2 14 -6 30 -8 17 -3 30 -1 30 4 0 4 -13 8 -30 8 -16 0
-30 -2 -30 -4z"/>
<path d="M60 610 c0 -11 4 -20 8 -20 4 0 8 9 8 20 0 11 -4 20 -8 20 -4 0 -8
-9 -8 -20z"/>
<path d="M60 500 c0 -49 3 -60 16 -60 12 0 15 7 12 30 -4 26 -1 30 19 30 14 0
23 6 23 15 0 8 -9 15 -20 15 -11 0 -20 7 -20 15 0 8 -7 15 -15 15 -12 0 -15
-13 -15 -60z"/>
<path d="M160 530 c0 -20 -5 -30 -15 -30 -8 0 -15 -7 -15 -15 0 -8 7 -15 15
-15 8 0 15 -5 15 -11 0 -6 -7 -9 -15 -5 -8 3 -15 1 -15 -4 0 -6 14 -10 30 -10
l30 0 0 60 c0 47 -3 60 -15 60 -10 0 -15 -10 -15 -30z"/>
<path d="M220 500 l0 -60 30 0 30 0 0 60 0 60 -30 0 -30 0 0 -60z m45 40 c3
-6 -4 -10 -17 -10 -18 0 -20 2 -8 10 19 12 18 12 25 0z m-3 -50 c3 -19 0 -30
-7 -30 -7 0 -10 11 -7 30 2 17 5 30 7 30 2 0 5 -13 7 -30z"/>
<path d="M310 500 l0 -60 65 0 65 0 0 60 0 60 -65 0 -65 0 0 -60z m88 33 c-16
-2 -40 -2 -55 0 -16 2 -3 4 27 4 30 0 43 -2 28 -4z m15 -45 c-5 -25 -10 -28
-43 -28 -29 0 -39 4 -43 20 -5 18 0 20 39 20 27 0 44 5 44 12 0 6 2 9 4 7 2
-2 2 -16 -1 -31z"/>
<path d="M348 473 c7 -3 16 -2 19 1 4 3 -2 6 -13 5 -11 0 -14 -3 -6 -6z"/>
<path d="M470 549 c0 -5 5 -7 10 -4 6 3 10 8 10 11 0 2 -4 4 -10 4 -5 0 -10
-5 -10 -11z"/>
<path d="M500 551 c0 -5 16 -9 36 -9 19 0 38 -3 41 -6 4 -3 -19 -6 -50 -6 -44
0 -57 -3 -57 -15 0 -8 7 -15 15 -15 10 0 15 -9 14 -27 0 -16 -3 -22 -6 -15 -7
17 -23 15 -23 -3 0 -12 15 -15 75 -15 l75 0 0 30 c0 20 -5 30 -15 30 -9 0 -15
9 -15 25 0 31 8 32 20 3 8 -22 9 -22 9 5 1 27 0 27 -59 27 -33 0 -60 -4 -60
-9z m64 -66 c-5 -11 1 -15 21 -15 14 0 24 -4 21 -8 -2 -4 -24 -6 -48 -3 -34 3
-39 6 -23 12 16 6 17 8 3 8 -31 2 -30 21 1 21 23 0 29 -4 25 -15z"/>
<path d="M690 529 c0 -26 3 -31 20 -26 11 3 23 0 27 -5 4 -8 -7 -9 -35 -4 -41
6 -42 6 -42 -24 0 -29 2 -30 43 -29 29 2 34 3 15 6 -37 6 -36 23 2 23 20 0 30
-5 30 -15 0 -8 7 -15 15 -15 10 0 15 10 15 30 0 20 -5 30 -15 30 -10 0 -15 10
-15 30 0 27 -3 30 -30 30 -27 0 -30 -3 -30 -31z m43 4 c-7 -2 -19 -2 -25 0 -7
3 -2 5 12 5 14 0 19 -2 13 -5z"/>
<path d="M810 500 c0 -47 3 -60 15 -60 10 0 15 10 15 29 0 21 6 30 22 34 12 4
24 4 27 2 2 -3 -1 -5 -7 -5 -7 0 -12 -7 -12 -15 0 -8 9 -15 20 -15 11 0 20 -7
20 -15 0 -8 7 -15 15 -15 10 0 15 10 15 30 0 20 -5 30 -15 30 -8 0 -15 7 -15
15 0 8 -9 15 -20 15 -11 0 -20 7 -20 15 0 10 -10 15 -30 15 l-30 0 0 -60z m35
40 c3 -5 -1 -10 -10 -10 -9 0 -13 5 -10 10 3 6 8 10 10 10 2 0 7 -4 10 -10z"/>
<path d="M333 413 c15 -2 39 -2 55 0 15 2 2 4 -28 4 -30 0 -43 -2 -27 -4z"/>
<path d="M513 413 c9 -2 25 -2 35 0 9 3 1 5 -18 5 -19 0 -27 -2 -17 -5z"/>
<path d="M628 413 c6 -2 18 -2 25 0 6 3 1 5 -13 5 -14 0 -19 -2 -12 -5z"/>
<path d="M60 375 c0 -46 15 -46 16 0 0 19 -3 35 -8 35 -4 0 -8 -16 -8 -35z"/>
<path d="M90 375 c0 -32 2 -35 30 -35 27 0 30 2 24 25 -6 25 1 30 34 26 6 -1
12 3 12 9 0 5 -22 10 -50 10 l-50 0 0 -35z m40 -6 c0 -11 -4 -17 -10 -14 -5 3
-10 13 -10 21 0 8 5 14 10 14 6 0 10 -9 10 -21z"/>
<path d="M810 399 c0 -5 5 -7 10 -4 6 3 10 8 10 11 0 2 -4 4 -10 4 -5 0 -10
-5 -10 -11z"/>
<path d="M840 401 c0 -5 12 -11 28 -13 27 -3 38 -28 15 -35 -7 -3 -13 2 -13
11 0 11 -9 16 -30 16 -28 0 -30 -3 -30 -35 0 -19 4 -35 10 -35 5 0 7 -7 4 -15
-4 -8 -1 -15 5 -15 6 0 11 14 11 30 0 29 1 30 50 30 l50 0 0 35 0 35 -50 0
c-27 0 -50 -4 -50 -9z m85 -20 c3 -5 1 -12 -5 -16 -5 -3 -10 1 -10 9 0 18 6
21 15 7z"/>
<path d="M160 345 c0 -24 5 -35 15 -35 8 0 15 -7 15 -15 0 -8 7 -15 15 -15 10
0 15 10 15 30 0 30 -24 43 -32 18 -3 -9 -6 -9 -12 0 -4 7 -2 12 3 12 6 0 11 9
11 20 0 11 -7 20 -15 20 -10 0 -15 -11 -15 -35z"/>
<path d="M206 365 c4 -8 8 -15 10 -15 2 0 4 7 4 15 0 8 -4 15 -10 15 -5 0 -7
-7 -4 -15z"/>
<path d="M235 300 c3 -5 8 -10 11 -10 2 0 4 5 4 10 0 6 -5 10 -11 10 -5 0 -7
-4 -4 -10z"/>
<path d="M780 295 c0 -8 -7 -15 -15 -15 -8 0 -15 -7 -15 -15 0 -8 -7 -15 -15
-15 -8 0 -15 -7 -15 -15 0 -10 -10 -15 -30 -15 -16 0 -30 -4 -30 -10 0 -5 7
-7 15 -4 8 4 15 1 15 -5 0 -6 14 -11 30 -11 20 0 30 5 30 15 0 8 7 15 15 15 8
0 15 7 15 15 0 8 7 15 15 15 10 0 15 10 15 30 0 20 -5 30 -15 30 -8 0 -15 -7
-15 -15z"/>
<path d="M220 250 c0 -16 5 -30 11 -30 6 0 9 7 5 15 -3 8 -1 15 4 15 6 0 10 7
10 15 0 8 -7 15 -15 15 -10 0 -15 -10 -15 -30z"/>
<path d="M265 270 c3 -5 8 -10 11 -10 2 0 4 5 4 10 0 6 -5 10 -11 10 -5 0 -7
-4 -4 -10z"/>
<path d="M190 260 c0 -5 5 -10 11 -10 5 0 7 5 4 10 -3 6 -8 10 -11 10 -2 0 -4
-4 -4 -10z"/>
<path d="M250 235 c0 -8 7 -15 15 -15 8 0 15 7 15 15 0 8 -7 15 -15 15 -8 0
-15 -7 -15 -15z"/>
<path d="M295 240 c3 -5 8 -10 11 -10 2 0 4 5 4 10 0 6 -5 10 -11 10 -5 0 -7
-4 -4 -10z"/>
<path d="M280 205 c0 -8 7 -15 15 -15 8 0 15 -7 15 -15 0 -10 10 -15 30 -15
20 0 30 -5 30 -15 0 -13 23 -15 145 -15 96 0 145 4 145 11 0 6 -9 8 -20 4 -12
-4 -20 -2 -20 5 0 9 -33 11 -122 9 -67 -2 -114 -3 -105 -1 9 2 17 7 17 12 0
10 148 6 248 -5 46 -6 62 -4 62 5 0 7 -7 10 -15 6 -8 -3 -15 -1 -15 4 0 6 -69
10 -175 10 -149 0 -175 2 -175 15 0 10 -10 15 -30 15 -20 0 -30 -5 -30 -15z"/>
<path d="M888 213 c12 -2 30 -2 40 0 9 3 -1 5 -23 4 -22 0 -30 -2 -17 -4z"/>
<path d="M250 200 c0 -5 5 -10 11 -10 5 0 7 5 4 10 -3 6 -8 10 -11 10 -2 0 -4
-4 -4 -10z"/>
<path d="M870 160 c0 -28 3 -30 35 -30 19 0 35 5 35 11 0 5 -4 8 -9 5 -5 -4
-20 -2 -33 3 -21 9 -21 10 10 10 47 1 44 31 -3 31 -32 0 -35 -2 -35 -30z"/>
</g>
</svg>
