<?xml version="1.0" standalone="no"?>
<!DOCTYPE svg PUBLIC "-//W3C//DTD SVG 20010904//EN"
 "http://www.w3.org/TR/2001/REC-SVG-20010904/DTD/svg10.dtd">
<svg version="1.0" xmlns="http://www.w3.org/2000/svg"
 width="67.000000pt" height="67.000000pt" viewBox="0 0 67.000000 67.000000"
 preserveAspectRatio="xMidYMid meet">
<metadata>
Created by potrace 1.16, written by Peter Selinger 2001-2019
</metadata>
<g transform="translate(0.000000,67.000000) scale(0.100000,-0.100000)"
fill="#000000" stroke="none">
<path d="M261 604 c-75 -20 -139 -70 -173 -134 -17 -32 -28 -40 -56 -40 -13 0
-21 -4 -18 -8 2 -4 23 -6 45 -4 30 3 42 9 47 24 10 32 74 98 117 119 50 26
121 34 173 20 52 -14 121 -63 142 -102 28 -50 35 -56 75 -62 42 -7 51 8 10 16
-19 4 -34 18 -47 42 -57 105 -195 162 -315 129z"/>
<path d="M0 340 c0 -23 5 -40 11 -40 7 0 9 10 5 25 -4 14 -3 25 2 25 5 0 19
-11 32 -25 35 -37 50 -32 50 15 0 22 -4 40 -10 40 -5 0 -10 -15 -10 -32 l-1
-33 -29 33 c-39 42 -50 40 -50 -8z"/>
<path d="M130 341 c0 -22 5 -43 10 -46 6 -4 10 12 10 39 0 25 -4 46 -10 46 -5
0 -10 -18 -10 -39z"/>
<path d="M190 365 c-17 -21 -3 -35 36 -35 19 0 34 -5 34 -11 0 -6 -15 -9 -34
-8 -19 2 -38 0 -42 -4 -4 -4 16 -7 44 -7 28 0 54 5 57 10 12 19 -13 37 -44 32
-16 -2 -32 1 -35 7 -5 7 7 11 33 11 23 0 41 5 41 10 0 16 -76 12 -90 -5z"/>
<path d="M314 365 c-9 -23 5 -35 42 -35 19 0 34 -5 34 -11 0 -6 -15 -9 -34 -8
-19 2 -38 0 -42 -4 -4 -4 16 -7 45 -7 49 0 52 2 49 23 -2 18 -8 21 -35 19 -17
-2 -34 1 -38 7 -4 7 8 11 34 11 23 0 41 5 41 10 0 16 -90 12 -96 -5z"/>
<path d="M456 340 c-14 -22 -26 -42 -26 -44 0 -2 14 1 30 7 22 8 38 8 60 0 17
-6 30 -9 30 -7 0 10 -53 84 -60 84 -4 0 -19 -18 -34 -40z m49 0 c3 -5 -3 -10
-15 -10 -12 0 -18 5 -15 10 3 6 10 10 15 10 5 0 12 -4 15 -10z"/>
<path d="M570 335 c0 -25 5 -45 10 -45 6 0 10 14 10 32 l0 32 28 -27 c38 -37
47 -34 49 13 1 22 -2 40 -8 40 -5 0 -9 -15 -9 -32 l-1 -33 -27 33 c-38 45 -52
42 -52 -13z"/>
<path d="M10 250 c0 -5 13 -10 30 -10 24 0 33 -7 49 -38 41 -81 124 -133 222
-140 112 -8 197 33 255 123 27 42 40 55 59 55 14 0 25 5 25 10 0 6 -18 10 -39
10 -30 0 -41 -5 -46 -19 -13 -41 -64 -97 -114 -124 -69 -38 -157 -40 -226 -6
-50 25 -112 89 -121 125 -4 17 -14 21 -50 22 -24 1 -44 -2 -44 -8z"/>
<path d="M596 95 c7 -18 54 -20 54 -2 0 7 -13 14 -30 15 -23 2 -28 -1 -24 -13z"/>
</g>
</svg>
