<?xml version="1.0" standalone="no"?>
<!DOCTYPE svg PUBLIC "-//W3C//DTD SVG 20010904//EN"
 "http://www.w3.org/TR/2001/REC-SVG-20010904/DTD/svg10.dtd">
<svg version="1.0" xmlns="http://www.w3.org/2000/svg"
 width="256.000000pt" height="256.000000pt" viewBox="0 0 256.000000 256.000000"
 preserveAspectRatio="xMidYMid meet">
<metadata>
Created by potrace 1.16, written by Peter Selinger 2001-2019
</metadata>
<g transform="translate(0.000000,256.000000) scale(0.100000,-0.100000)"
fill="#000000" stroke="none">
<path d="M960 2175 c0 -10 7 -15 18 -13 21 4 19 22 -2 26 -10 2 -16 -3 -16
-13z"/>
<path d="M1010 2177 c0 -22 11 -27 33 -16 14 8 22 8 27 -1 6 -9 13 -9 29 -1
18 10 21 9 21 -9 0 -19 -6 -20 -135 -20 -113 0 -135 -2 -135 -15 0 -17 25 -20
35 -5 8 13 25 3 25 -16 0 -10 -14 -14 -55 -14 -53 0 -55 -1 -55 -28 0 -27 -1
-27 -56 -25 l-56 3 6 -31 c6 -30 5 -31 -24 -27 -27 4 -30 2 -30 -24 0 -24 -4
-28 -28 -28 -24 0 -28 -4 -27 -27 0 -25 -3 -28 -27 -25 -28 3 -28 3 -28 -52 0
-49 -2 -56 -20 -56 -13 0 -18 5 -14 15 4 8 10 15 15 15 17 0 9 18 -11 23 -18
5 -20 0 -20 -54 0 -58 0 -59 -25 -53 -23 6 -25 3 -26 -27 -1 -19 0 -44 1 -56
1 -23 -1 -23 -109 -23 l-111 0 0 -24 0 -25 135 -3 135 -3 0 53 c0 46 2 52 21
52 20 0 21 -1 5 -25 -16 -24 -16 -25 4 -25 18 0 20 6 20 56 l0 57 30 -6 30 -6
-3 57 c-1 37 -6 57 -14 58 -24 3 -25 4 -13 19 17 20 32 19 28 -2 -2 -11 6 -19
21 -23 22 -5 23 -7 8 -22 -22 -22 -21 -28 3 -28 18 0 20 7 20 54 l0 54 51 0
c58 1 64 4 55 28 -6 15 -8 16 -24 0 -24 -21 -32 -20 -32 4 0 18 7 20 55 20 53
0 55 1 55 28 0 27 1 27 55 25 49 -3 55 -1 55 17 0 21 -15 27 -25 10 -11 -18
-35 -11 -35 10 0 19 7 20 110 20 91 0 110 3 110 15 0 18 -21 20 -38 3 -9 -9
-13 -7 -18 5 -5 15 -8 15 -30 0 -23 -14 -24 -14 -24 6 0 21 1 21 320 21 319 0
320 0 320 -21 0 -20 -1 -20 -24 -6 -22 15 -25 15 -30 0 -5 -12 -9 -14 -18 -5
-17 17 -38 15 -38 -3 0 -12 19 -15 110 -15 91 0 110 3 110 15 0 8 6 15 14 15
8 0 16 -7 20 -15 4 -10 -1 -15 -14 -15 -14 0 -20 -7 -20 -21 0 -15 -4 -19 -15
-15 -8 3 -22 9 -30 12 -11 4 -15 0 -15 -15 0 -19 5 -21 55 -18 54 2 55 2 55
-25 0 -27 2 -28 55 -28 41 0 55 -4 55 -14 0 -22 -16 -28 -30 -11 -14 17 -30
11 -30 -11 0 -9 11 -14 30 -14 27 0 30 -3 30 -30 0 -19 5 -30 14 -30 22 0 28
16 11 30 -21 17 -19 30 5 30 18 0 20 -7 20 -55 0 -54 1 -55 28 -55 26 0 28 -3
24 -30 -4 -29 -3 -30 27 -24 l31 7 0 -82 c0 -76 1 -81 22 -81 20 0 20 1 5 18
-22 24 -21 32 3 32 15 0 20 -7 20 -25 l0 -25 135 0 135 0 0 25 0 25 -109 0
-109 0 0 51 c-1 58 -4 64 -28 55 -15 -6 -16 -8 0 -25 17 -18 12 -31 -11 -31
-10 0 -13 21 -13 84 0 80 -1 84 -20 79 -19 -5 -19 -7 -5 -23 21 -23 19 -30 -8
-30 -21 0 -22 4 -20 56 3 55 3 55 -25 52 -24 -3 -27 0 -27 25 1 23 -3 27 -27
27 -24 0 -28 4 -28 28 0 25 -3 27 -37 25 -21 -1 -46 -2 -55 -2 -10 -1 -18 -8
-18 -16 0 -8 -7 -15 -15 -15 -8 0 -15 7 -15 15 0 8 7 15 15 15 8 0 15 9 15 20
0 21 24 28 35 10 10 -17 25 -11 25 10 0 18 -6 20 -55 17 -54 -2 -55 -2 -55 25
l0 28 -80 0 c-75 0 -80 1 -80 21 0 20 1 20 24 6 22 -15 25 -15 30 0 5 12 9 14
18 5 17 -17 38 -15 38 3 0 13 -24 15 -160 15 -136 0 -160 2 -160 15 0 18 21
20 38 3 9 -9 12 -8 12 5 0 13 5 15 24 7 17 -6 26 -5 28 2 3 8 10 8 25 0 22
-12 33 -7 33 15 0 10 -52 13 -270 13 -218 0 -270 -3 -270 -13z m160 -27 c0 -5
-7 -10 -15 -10 -8 0 -15 5 -15 10 0 6 7 10 15 10 8 0 15 -4 15 -10z m204 -16
c9 -3 16 -12 16 -18 0 -9 -30 -13 -110 -13 -87 -1 -110 2 -110 13 0 10 22 14
93 17 50 1 93 4 94 5 1 1 8 -1 17 -4z m-224 -19 c0 -8 -7 -15 -15 -15 -8 0
-15 7 -15 15 0 8 7 15 15 15 8 0 15 -7 15 -15z m290 -5 c0 -5 -7 -10 -16 -10
-8 0 -12 5 -9 10 3 6 10 10 16 10 5 0 9 -4 9 -10z m-480 -15 c0 -8 -9 -15 -20
-15 -13 0 -18 5 -14 15 4 8 12 15 20 15 8 0 14 -7 14 -15z m113 8 c-18 -2 -48
-2 -65 0 -18 2 -4 4 32 4 36 0 50 -2 33 -4z m480 0 c-18 -2 -48 -2 -65 0 -18
2 -4 4 32 4 36 0 50 -2 33 -4z m-703 -58 c0 -8 -7 -15 -15 -15 -8 0 -15 7 -15
15 0 8 7 15 15 15 8 0 15 -7 15 -15z m87 9 c-3 -3 -12 -4 -19 -1 -8 3 -5 6 6
6 11 1 17 -2 13 -5z m731 -1 c-10 -2 -26 -2 -35 0 -10 3 -2 5 17 5 19 0 27 -2
18 -5z m-918 -63 c0 -13 7 -20 20 -20 13 0 18 -5 14 -15 -4 -8 -12 -15 -20
-15 -8 0 -14 7 -14 15 0 8 -9 15 -20 15 -23 0 -26 10 -8 28 18 18 28 15 28 -8z
m77 14 c-3 -3 -12 -4 -19 -1 -8 3 -5 6 6 6 11 1 17 -2 13 -5z m1077 -70 c3 -9
-1 -14 -14 -14 -13 0 -20 7 -20 20 0 22 25 18 34 -6z m-1214 1 c0 -8 -7 -15
-15 -15 -8 0 -15 7 -15 15 0 8 7 15 15 15 8 0 15 -7 15 -15z m1264 -51 c3 -9
-1 -14 -14 -14 -13 0 -20 7 -20 20 0 22 25 18 34 -6z m-1314 1 c0 -8 -7 -15
-15 -15 -8 0 -15 7 -15 15 0 8 7 15 15 15 8 0 15 -7 15 -15z m1358 -47 c17
-17 15 -28 -7 -28 -13 0 -21 -8 -23 -22 -3 -22 -3 -22 -22 -2 -20 19 -20 19 2
22 14 2 22 10 22 23 0 22 11 24 28 7z m-1428 -87 c0 -13 -26 -32 -33 -24 -14
13 -6 33 13 33 11 0 20 -4 20 -9z m1450 -6 c10 -12 10 -15 -3 -15 -8 0 -17 7
-21 15 -3 8 -2 15 3 15 5 0 14 -7 21 -15z m-1513 -52 c-3 -10 -5 -2 -5 17 0
19 2 27 5 18 2 -10 2 -26 0 -35z m1553 31 c0 -8 -4 -12 -10 -9 -5 3 -10 10
-10 16 0 5 5 9 10 9 6 0 10 -7 10 -16z m-1580 -54 c0 -11 -7 -20 -15 -20 -15
0 -21 21 -8 33 12 13 23 7 23 -13z m1600 -40 c0 -13 -5 -18 -15 -14 -8 4 -15
12 -15 20 0 8 7 14 15 14 8 0 15 -9 15 -20z m-1620 -30 c0 -27 -3 -30 -32 -29
-31 2 -31 2 -5 6 21 3 27 10 27 29 0 13 2 24 5 24 3 0 5 -13 5 -30z m1678 -23
c24 -4 24 -4 -5 -6 -31 -1 -33 1 -32 32 2 29 2 29 6 5 3 -20 11 -28 31 -31z
m176 -8 c-3 -5 -10 -7 -15 -3 -5 3 -7 10 -3 15 3 5 10 7 15 3 5 -3 7 -10 3
-15z m-2047 5 c-3 -3 -12 -4 -19 -1 -8 3 -5 6 6 6 11 1 17 -2 13 -5z m50 0
c-3 -3 -12 -4 -19 -1 -8 3 -5 6 6 6 11 1 17 -2 13 -5z m50 0 c-3 -3 -12 -4
-19 -1 -8 3 -5 6 6 6 11 1 17 -2 13 -5z m1850 0 c-3 -3 -12 -4 -19 -1 -8 3 -5
6 6 6 11 1 17 -2 13 -5z m50 0 c-3 -3 -12 -4 -19 -1 -8 3 -5 6 6 6 11 1 17 -2
13 -5z"/>
<path d="M1577 2183 c-12 -11 -8 -23 8 -23 8 0 15 7 15 15 0 16 -12 20 -23 8z"/>
<path d="M800 2119 c0 -5 5 -7 10 -4 6 3 10 8 10 11 0 2 -4 4 -10 4 -5 0 -10
-5 -10 -11z"/>
<path d="M747 2060 c5 -20 7 -20 24 -4 24 22 24 24 -5 24 -19 0 -23 -4 -19
-20z"/>
<path d="M1782 2064 c9 -9 21 -13 27 -10 20 13 11 26 -16 26 -25 0 -26 -1 -11
-16z"/>
<path d="M1097 2053 c-12 -11 -8 -23 8 -23 8 0 15 7 15 15 0 16 -12 20 -23 8z"/>
<path d="M1440 2045 c0 -9 9 -15 21 -15 18 0 19 2 9 15 -7 8 -16 15 -21 15 -5
0 -9 -7 -9 -15z"/>
<path d="M640 2015 c0 -9 5 -15 11 -13 6 2 11 8 11 13 0 5 -5 11 -11 13 -6 2
-11 -4 -11 -13z"/>
<path d="M1905 2010 c3 -5 8 -10 11 -10 2 0 4 5 4 10 0 6 -5 10 -11 10 -5 0
-7 -4 -4 -10z"/>
<path d="M937 1994 c-8 -8 1 -24 14 -24 5 0 9 7 9 15 0 15 -12 20 -23 9z"/>
<path d="M1600 1984 c0 -9 5 -14 12 -12 18 6 21 28 4 28 -9 0 -16 -7 -16 -16z"/>
<path d="M590 1954 c0 -17 22 -14 28 4 2 7 -3 12 -12 12 -9 0 -16 -7 -16 -16z"/>
<path d="M1940 1966 c0 -2 7 -9 15 -16 12 -10 15 -10 15 4 0 9 -7 16 -15 16
-8 0 -15 -2 -15 -4z"/>
<path d="M827 1943 c-12 -11 -8 -23 8 -23 8 0 15 7 15 15 0 16 -12 20 -23 8z"/>
<path d="M1707 1935 c-5 -10 0 -15 14 -15 12 0 19 5 17 12 -6 18 -25 20 -31 3z"/>
<path d="M530 1904 c0 -17 22 -14 28 4 2 7 -3 12 -12 12 -9 0 -16 -7 -16 -16z"/>
<path d="M2000 1911 c0 -6 5 -13 10 -16 6 -3 10 1 10 9 0 9 -4 16 -10 16 -5 0
-10 -4 -10 -9z"/>
<path d="M1760 1885 c0 -8 7 -15 16 -15 14 0 14 3 4 15 -7 8 -14 15 -16 15 -2
0 -4 -7 -4 -15z"/>
<path d="M480 1850 c0 -5 4 -10 9 -10 6 0 13 5 16 10 3 6 -1 10 -9 10 -9 0
-16 -4 -16 -10z"/>
<path d="M667 1843 c-13 -12 -7 -33 8 -33 8 0 15 9 15 20 0 20 -11 26 -23 13z"/>
<path d="M1870 1770 c0 -5 5 -10 11 -10 5 0 7 5 4 10 -3 6 -8 10 -11 10 -2 0
-4 -4 -4 -10z"/>
<path d="M424 1744 c3 -9 6 -18 6 -21 0 -3 7 0 15 7 21 18 19 30 -6 30 -15 0
-19 -4 -15 -16z"/>
<path d="M2102 1748 c6 -18 28 -21 28 -4 0 9 -7 16 -16 16 -9 0 -14 -5 -12
-12z"/>
<path d="M1920 1726 c0 -9 7 -16 16 -16 17 0 14 22 -4 28 -7 2 -12 -3 -12 -12z"/>
<path d="M625 1720 c-3 -5 -1 -10 4 -10 6 0 11 5 11 10 0 6 -2 10 -4 10 -3 0
-8 -4 -11 -10z"/>
<path d="M566 1683 c-12 -12 -6 -33 9 -33 8 0 15 6 15 14 0 17 -14 28 -24 19z"/>
<path d="M1970 1670 c0 -19 20 -27 33 -13 8 7 -11 33 -24 33 -5 0 -9 -9 -9
-20z"/>
<path d="M370 1634 c0 -9 7 -14 17 -12 25 5 28 28 4 28 -12 0 -21 -6 -21 -16z"/>
<path d="M2156 1635 c4 -8 12 -15 20 -15 8 0 14 7 14 15 0 8 -9 15 -20 15 -13
0 -18 -5 -14 -15z"/>
<path d="M507 1573 c-12 -11 -8 -23 8 -23 8 0 15 7 15 15 0 16 -12 20 -23 8z"/>
<path d="M160 1280 l0 -160 29 0 c24 0 28 3 24 20 -4 15 -9 18 -18 10 -6 -5
-15 -7 -18 -3 -13 12 -7 23 13 23 18 0 20 7 20 78 0 43 2 81 5 84 3 3 17 3 31
0 21 -4 24 -9 20 -28 -6 -21 -3 -24 24 -24 26 0 30 -3 30 -29 0 -25 3 -28 25
-23 22 4 25 1 25 -27 0 -31 0 -31 55 -31 l55 0 0 135 0 135 -29 0 c-24 0 -28
-3 -24 -20 4 -15 9 -18 18 -10 9 8 14 6 19 -5 4 -10 -1 -15 -14 -15 -18 0 -20
-7 -20 -78 0 -43 -2 -81 -5 -84 -3 -3 -17 -3 -31 0 -28 5 -30 39 -1 34 9 -2
17 2 17 8 0 5 -20 10 -45 10 -43 0 -45 1 -45 29 0 25 -3 28 -25 23 -22 -4 -25
-1 -25 27 0 31 -1 31 -50 31 -40 0 -48 3 -44 15 4 8 10 12 15 9 6 -3 16 -1 24
6 9 7 15 8 20 0 9 -15 35 -12 35 5 0 12 -13 15 -55 15 l-55 0 0 -160z m27 -42
c-2 -24 -4 -5 -4 42 0 47 2 66 4 43 2 -24 2 -62 0 -85z m270 0 c-2 -24 -4 -5
-4 42 0 47 2 66 4 43 2 -24 2 -62 0 -85z"/>
<path d="M380 1429 c0 -5 5 -7 10 -4 6 3 10 8 10 11 0 2 -4 4 -10 4 -5 0 -10
-5 -10 -11z"/>
<path d="M515 1430 c3 -5 8 -10 11 -10 2 0 4 5 4 10 0 6 -5 10 -11 10 -5 0 -7
-4 -4 -10z"/>
<path d="M580 1433 c1 -18 18 -35 24 -24 9 15 59 14 74 -1 9 -9 12 -7 12 10 0
20 -5 22 -55 22 -30 0 -55 -3 -55 -7z"/>
<path d="M800 1425 c0 -18 5 -18 31 -5 10 6 19 7 19 2 0 -4 41 -6 90 -4 60 3
95 1 104 -7 11 -10 16 -9 24 4 8 16 10 15 26 0 12 -13 14 -21 7 -28 -17 -17
-13 -57 4 -57 12 0 15 13 15 55 l0 55 -160 0 c-136 0 -160 -2 -160 -15z"/>
<path d="M1226 1425 c4 -8 10 -15 14 -15 4 0 13 7 20 15 11 13 8 15 -13 15
-19 0 -25 -4 -21 -15z"/>
<path d="M1280 1418 c0 -17 3 -19 12 -10 15 15 174 16 183 1 5 -6 11 -4 19 6
11 15 13 15 25 1 8 -10 10 -21 5 -28 -15 -21 -10 -53 8 -56 15 -3 17 5 17 52
l-1 56 -134 0 c-131 0 -134 0 -134 -22z"/>
<path d="M1760 1419 c0 -17 3 -19 13 -10 8 6 17 8 20 4 4 -3 13 0 21 6 10 8
16 9 21 1 9 -15 35 -12 35 5 0 12 -13 15 -55 15 -49 0 -55 -2 -55 -21z"/>
<path d="M2030 1419 c0 -18 2 -19 15 -9 8 7 15 16 15 21 0 5 -7 9 -15 9 -9 0
-15 -9 -15 -21z"/>
<path d="M2080 1419 c0 -14 4 -18 13 -12 6 4 18 8 26 8 8 0 16 6 18 13 3 8 -6
12 -26 12 -25 0 -31 -4 -31 -21z"/>
<path d="M2152 1428 c7 -19 38 -22 38 -4 0 10 -9 16 -21 16 -12 0 -19 -5 -17
-12z"/>
<path d="M2290 1418 c0 -20 1 -21 20 -3 11 10 20 20 20 22 0 1 -9 3 -20 3 -14
0 -20 -7 -20 -22z"/>
<path d="M2340 1433 c1 -18 18 -35 24 -24 4 6 12 9 17 6 16 -10 10 -23 -13
-27 -20 -3 -21 -8 -19 -80 l2 -78 -31 0 c-29 0 -32 2 -26 25 6 23 3 25 -24 25
-26 0 -30 3 -30 29 0 25 -3 28 -25 23 -22 -4 -25 -1 -25 27 0 31 0 31 -55 31
l-55 0 0 -110 0 -110 25 0 c24 0 25 3 25 55 l0 55 55 0 55 0 0 -55 c0 -41 4
-55 14 -55 22 0 28 16 11 30 -17 14 -11 30 11 30 9 0 14 -11 14 -30 0 -30 1
-30 55 -30 l55 0 0 135 0 135 -30 0 c-16 0 -30 -3 -30 -7z m28 -234 c-8 -5
-15 -4 -17 3 -2 7 1 14 8 16 6 2 12 32 13 75 l2 72 3 -79 c3 -57 0 -82 -9 -87z
m-180 113 c-2 -8 -15 -16 -30 -18 -21 -2 -28 2 -28 15 0 25 7 29 36 23 15 -3
24 -10 22 -20z m-76 -29 c-5 -83 -9 -90 -11 -20 0 37 2 67 7 67 4 0 6 -21 4
-47z"/>
<path d="M287 1383 c-8 -7 11 -33 24 -33 5 0 9 9 9 20 0 19 -20 27 -33 13z"/>
<path d="M515 1382 c-15 -11 -13 -201 3 -207 9 -3 12 22 12 105 0 61 -1 110
-2 110 -2 0 -7 -4 -13 -8z"/>
<path d="M590 1280 l0 -110 50 0 50 0 0 110 0 110 -50 0 -50 0 0 -110z m80 0
c0 -60 -3 -79 -15 -84 -13 -4 -15 9 -15 84 0 75 2 88 15 84 12 -5 15 -24 15
-84z m-53 -42 c-2 -24 -4 -5 -4 42 0 47 2 66 4 43 2 -24 2 -62 0 -85z"/>
<path d="M748 1335 c-2 -45 0 -55 13 -55 12 0 15 12 15 55 0 75 -23 75 -28 0z"/>
<path d="M800 1334 l0 -54 104 0 c101 0 105 -1 108 -22 5 -32 -3 -68 -14 -68
-5 0 -8 8 -6 18 3 15 -8 17 -94 20 l-98 3 0 -56 0 -55 135 0 c104 0 135 3 135
13 0 10 -27 12 -124 9 -106 -4 -124 -2 -129 12 -6 14 9 16 126 17 73 1 142 0
155 -1 20 -1 22 3 22 54 l0 56 -55 0 c-49 0 -55 2 -55 21 0 16 -3 19 -13 11
-6 -6 -41 -12 -77 -13 l-65 -3 -3 37 c-2 28 1 37 12 37 9 0 16 -7 16 -15 0
-11 14 -15 58 -16 71 -2 107 -10 107 -26 0 -7 4 -14 10 -15 5 -2 11 18 13 45
l3 47 -136 -1 -135 -1 0 -54z m27 -21 c-3 -10 -5 -2 -5 17 0 19 2 27 5 18 2
-10 2 -26 0 -35z m264 -67 c-9 -11 -9 -15 0 -18 15 -5 5 -38 -11 -38 -5 0 -10
9 -10 20 0 13 -7 20 -20 20 -11 0 -20 5 -20 11 0 6 7 9 15 5 8 -3 15 -1 15 4
0 6 10 10 21 10 17 0 19 -3 10 -14z"/>
<path d="M1170 1335 c0 -42 4 -55 15 -55 12 0 14 12 12 55 -1 36 -6 55 -14 55
-9 0 -13 -18 -13 -55z"/>
<path d="M1228 1335 c-3 -54 -3 -55 25 -55 26 0 27 2 27 51 0 40 3 49 13 41 6
-6 26 -12 42 -15 l30 -4 -32 -2 c-18 0 -33 -6 -33 -11 0 -7 18 -8 49 -4 75 10
118 -1 123 -31 4 -19 1 -25 -13 -25 -13 0 -19 7 -19 22 0 17 -3 19 -12 10 -7
-7 -38 -12 -69 -12 -32 0 -61 -4 -64 -10 -4 -6 22 -10 69 -10 l76 0 0 -45 c0
-25 -5 -45 -10 -45 -6 0 -10 8 -8 18 3 15 -8 17 -94 20 l-96 3 -4 -56 -3 -55
137 0 c132 0 136 1 131 20 -4 14 -9 17 -17 11 -17 -15 -228 -9 -233 7 -4 9 31
12 151 12 l156 0 0 55 c0 55 0 55 -30 55 -31 0 -31 0 -28 53 l3 52 -132 3
-131 3 -4 -56z m29 -22 c-3 -10 -5 -2 -5 17 0 19 2 27 5 18 2 -10 2 -26 0 -35z
m243 -68 c0 -8 5 -15 10 -15 13 0 13 -27 -1 -35 -6 -4 -13 2 -16 14 -3 12 -13
21 -24 21 -12 0 -16 5 -13 15 4 8 15 15 25 15 10 0 19 -7 19 -15z"/>
<path d="M1710 1335 c0 -54 -1 -55 -29 -55 -28 0 -29 -1 -30 -54 l0 -55 159 0
160 -1 0 30 c0 24 -4 30 -21 30 -12 0 -23 -8 -26 -19 -4 -16 -9 -18 -29 -11
-13 5 -26 6 -28 1 -3 -4 -19 -6 -36 -3 l-30 4 21 19 c12 11 19 25 15 34 -9 23
-26 18 -26 -9 0 -17 -5 -23 -17 -22 -10 0 -17 -5 -15 -11 1 -7 -7 -13 -17 -13
-11 0 -26 -3 -35 -6 -12 -4 -16 0 -16 16 0 18 4 21 25 18 24 -5 25 -3 25 48 0
53 1 54 29 54 25 0 28 -3 23 -25 -4 -21 -1 -25 20 -25 16 0 28 8 34 21 10 21
10 21 29 3 18 -19 18 -19 -3 -22 -16 -3 -22 -10 -22 -30 0 -22 5 -27 25 -28
24 -2 25 1 25 56 0 56 -1 57 -25 52 -22 -4 -25 -1 -25 27 0 31 0 31 -55 31
-54 0 -55 0 -55 -30 0 -19 -5 -30 -14 -30 -22 0 -28 16 -11 30 17 14 11 30
-11 30 -10 0 -14 -14 -14 -55z m127 19 c-3 -3 -12 -4 -19 -1 -8 3 -5 6 6 6 11
1 17 -2 13 -5z m-97 -89 c0 -8 -2 -15 -4 -15 -2 0 -6 7 -10 15 -3 8 -1 15 4
15 6 0 10 -7 10 -15z m-30 -20 c0 -8 -9 -15 -20 -15 -13 0 -18 5 -14 15 4 8
12 15 20 15 8 0 14 -7 14 -15z"/>
<path d="M2030 1280 c0 -81 3 -110 13 -110 9 0 12 29 12 110 0 81 -3 110 -12
110 -10 0 -13 -29 -13 -110z"/>
<path d="M2210 1376 c0 -8 7 -16 15 -20 10 -4 15 1 15 14 0 11 -7 20 -15 20
-8 0 -15 -6 -15 -14z"/>
<path d="M2290 1344 c0 -56 22 -56 31 -1 6 39 3 47 -18 47 -9 0 -13 -14 -13
-46z"/>
<path d="M380 1369 c0 -5 5 -7 10 -4 6 3 10 8 10 11 0 2 -4 4 -10 4 -5 0 -10
-5 -10 -11z"/>
<path d="M1895 1370 c3 -5 10 -10 16 -10 5 0 9 5 9 10 0 6 -7 10 -16 10 -8 0
-12 -4 -9 -10z"/>
<path d="M1656 1333 c-12 -12 -6 -33 9 -33 8 0 15 6 15 14 0 17 -14 28 -24 19z"/>
<path d="M342 1318 c6 -18 28 -21 28 -4 0 9 -7 16 -16 16 -9 0 -14 -5 -12 -12z"/>
<path d="M2260 1319 c0 -5 5 -7 10 -4 6 3 10 8 10 11 0 2 -4 4 -10 4 -5 0 -10
-5 -10 -11z"/>
<path d="M235 1290 c-3 -5 -1 -10 4 -10 6 0 11 5 11 10 0 6 -2 10 -4 10 -3 0
-8 -4 -11 -10z"/>
<path d="M1780 1269 c0 -5 5 -7 10 -4 6 3 10 8 10 11 0 2 -4 4 -10 4 -5 0 -10
-5 -10 -11z"/>
<path d="M1940 1271 c0 -5 7 -14 15 -21 13 -10 15 -9 15 9 0 12 -6 21 -15 21
-8 0 -15 -4 -15 -9z"/>
<path d="M2310 1270 c0 -5 5 -10 10 -10 6 0 10 5 10 10 0 6 -4 10 -10 10 -5 0
-10 -4 -10 -10z"/>
<path d="M1280 1256 c0 -9 5 -16 10 -16 6 0 10 4 10 9 0 6 -4 13 -10 16 -5 3
-10 -1 -10 -9z"/>
<path d="M2187 1250 c-6 -24 1 -30 26 -21 17 6 17 8 -1 24 -19 17 -20 17 -25
-3z"/>
<path d="M270 1246 c0 -9 7 -16 16 -16 17 0 14 22 -4 28 -7 2 -12 -3 -12 -12z"/>
<path d="M800 1249 c0 -5 5 -7 10 -4 6 3 10 8 10 11 0 2 -4 4 -10 4 -5 0 -10
-5 -10 -11z"/>
<path d="M855 1250 c4 -6 11 -8 16 -5 14 9 11 15 -7 15 -8 0 -12 -5 -9 -10z"/>
<path d="M1230 1249 c0 -5 5 -7 10 -4 6 3 10 8 10 11 0 2 -4 4 -10 4 -5 0 -10
-5 -10 -11z"/>
<path d="M750 1175 c0 -42 3 -55 15 -55 18 0 19 12 3 28 -9 9 -9 15 -2 20 17
12 16 62 -1 62 -11 0 -15 -13 -15 -55z"/>
<path d="M1173 1200 c0 -19 5 -30 14 -30 10 0 13 9 11 27 -4 37 -25 40 -25 3z"/>
<path d="M1600 1176 l0 -56 55 0 c41 0 55 4 55 14 0 11 -11 14 -46 12 l-45 -4
7 32 c3 17 7 35 8 40 0 6 -7 12 -16 14 -16 3 -18 -4 -18 -52z"/>
<path d="M246 1205 c-3 -10 -2 -23 4 -29 15 -15 24 1 13 26 -9 20 -10 20 -17
3z"/>
<path d="M320 1191 c0 -12 6 -21 16 -21 9 0 14 7 12 17 -5 25 -28 28 -28 4z"/>
<path d="M465 1150 c-4 -6 -11 -8 -16 -4 -5 3 -16 1 -24 -6 -9 -7 -15 -8 -20
0 -9 15 -35 12 -35 -5 0 -12 13 -15 55 -15 48 0 55 2 55 20 0 22 -5 26 -15 10z"/>
<path d="M586 1144 c-3 -8 -6 -18 -6 -20 0 -2 25 -4 55 -4 49 0 55 2 55 21 0
16 -3 19 -13 11 -15 -13 -57 -12 -73 0 -7 5 -14 2 -18 -8z"/>
<path d="M1176 1144 c-8 -20 -3 -27 18 -22 12 2 13 6 2 21 -13 16 -14 16 -20
1z"/>
<path d="M1920 1142 c0 -18 6 -22 29 -22 24 0 28 3 24 20 -4 15 -9 18 -17 10
-9 -6 -16 -6 -24 2 -9 9 -12 7 -12 -10z"/>
<path d="M2080 1142 c0 -18 6 -22 29 -22 24 0 28 3 24 20 -4 15 -9 18 -17 10
-9 -6 -16 -6 -24 2 -9 9 -12 7 -12 -10z"/>
<path d="M2385 1150 c-4 -6 -25 -8 -51 -5 -35 4 -44 2 -44 -10 0 -12 13 -15
55 -15 48 0 55 2 55 20 0 22 -5 25 -15 10z"/>
<path d="M246 1141 c-4 -7 -5 -15 -2 -18 9 -9 19 4 14 18 -4 11 -6 11 -12 0z"/>
<path d="M1526 1141 c-4 -7 -5 -15 -2 -18 9 -9 19 4 14 18 -4 11 -6 11 -12 0z"/>
<path d="M1870 1135 c0 -8 7 -15 16 -15 14 0 14 3 4 15 -7 8 -14 15 -16 15 -2
0 -4 -7 -4 -15z"/>
<path d="M515 1130 c-3 -5 -1 -10 4 -10 6 0 11 5 11 10 0 6 -2 10 -4 10 -3 0
-8 -4 -11 -10z"/>
<path d="M1105 1130 c-3 -5 -1 -10 4 -10 6 0 11 5 11 10 0 6 -2 10 -4 10 -3 0
-8 -4 -11 -10z"/>
<path d="M1995 1130 c-4 -6 10 -10 35 -10 25 0 39 4 35 10 -3 6 -19 10 -35 10
-16 0 -32 -4 -35 -10z"/>
<path d="M465 1060 c3 -5 8 -10 11 -10 2 0 4 5 4 10 0 6 -5 10 -11 10 -5 0 -7
-4 -4 -10z"/>
<path d="M2080 1059 c0 -5 5 -7 10 -4 6 3 10 8 10 11 0 2 -4 4 -10 4 -5 0 -10
-5 -10 -11z"/>
<path d="M343 1012 l-133 -3 0 -24 0 -25 109 0 109 0 0 -51 c1 -58 4 -64 28
-55 13 5 15 9 6 18 -17 17 -15 38 3 38 12 0 15 -16 15 -84 0 -79 1 -84 20 -79
24 6 25 10 3 31 -16 16 -15 17 1 20 25 5 27 1 28 -58 l0 -52 30 6 c29 6 30 5
26 -24 -4 -27 -2 -30 24 -30 24 0 28 -4 28 -28 0 -26 3 -28 30 -24 29 4 30 3
24 -28 -6 -29 -5 -32 17 -30 13 1 39 2 57 1 27 -1 32 -5 32 -26 0 -25 1 -25
80 -25 75 0 80 -1 80 -21 0 -20 -1 -20 -24 -6 -22 15 -25 15 -30 0 -5 -12 -9
-14 -18 -5 -17 17 -38 15 -38 -3 0 -13 24 -15 160 -15 136 0 160 -2 160 -15 0
-18 -21 -20 -38 -3 -9 9 -12 8 -12 -5 0 -19 -8 -21 -30 -7 -9 5 -19 5 -27 -2
-9 -7 -17 -7 -26 1 -15 12 -27 5 -27 -16 0 -10 52 -13 270 -13 218 0 270 3
270 13 0 22 -11 27 -33 16 -13 -8 -22 -8 -26 -1 -4 7 -12 8 -21 2 -22 -14 -30
-12 -30 7 0 13 -3 14 -12 5 -17 -17 -38 -15 -38 3 0 13 22 15 134 15 128 0
134 1 129 20 -5 18 -7 18 -29 3 -23 -14 -24 -14 -24 6 0 20 5 21 80 21 l80 0
0 28 c0 27 1 27 55 25 49 -3 55 -1 55 17 0 21 -15 27 -25 10 -11 -18 -35 -11
-35 10 0 11 -7 20 -15 20 -8 0 -15 7 -15 15 0 8 7 15 15 15 8 0 15 -7 15 -15
0 -8 8 -15 18 -16 9 0 34 -1 55 -2 34 -2 37 0 37 26 0 23 4 27 28 27 26 0 28
3 24 30 -4 29 -3 30 27 24 l31 -6 -3 56 c-2 55 -2 56 25 56 27 0 28 2 28 55 0
41 4 55 14 55 22 0 28 -16 11 -30 -17 -14 -11 -30 11 -30 10 0 14 14 14 55 l0
55 110 0 110 0 0 25 0 25 -135 0 -135 0 0 -25 c0 -18 -5 -25 -20 -25 -24 0
-25 8 -3 32 15 17 15 18 -5 18 -21 0 -22 -5 -22 -81 l0 -81 -31 6 c-30 6 -31
5 -27 -24 4 -27 2 -30 -24 -30 -27 0 -28 -1 -28 -55 0 -41 -4 -55 -14 -55 -22
0 -28 16 -11 30 17 14 11 30 -11 30 -9 0 -14 -11 -14 -30 0 -27 -3 -30 -30
-30 -19 0 -30 -5 -30 -14 0 -22 16 -28 30 -11 14 17 30 11 30 -11 0 -10 -14
-14 -55 -14 -53 0 -55 -1 -55 -28 0 -27 -1 -27 -55 -25 -50 3 -55 1 -55 -18 0
-15 4 -19 15 -15 8 3 22 9 30 12 11 4 15 0 15 -15 0 -14 6 -21 20 -21 13 0 18
-5 14 -15 -8 -19 -34 -20 -34 -1 0 19 -24 22 -132 18 -68 -3 -88 -7 -88 -18 0
-17 22 -18 38 -2 9 9 13 7 18 -5 5 -15 8 -15 30 0 23 14 24 14 24 -6 0 -21 -1
-21 -320 -21 -315 0 -320 0 -320 20 0 18 3 19 21 10 15 -8 24 -8 34 0 9 7 15
8 20 0 9 -15 35 -12 35 5 0 12 -19 15 -110 15 -103 0 -110 1 -110 20 0 21 24
28 35 10 8 -13 25 -3 25 16 0 11 -13 13 -55 11 -54 -2 -55 -2 -55 25 0 27 -2
28 -55 28 -39 0 -55 4 -55 13 0 23 13 28 31 11 17 -16 19 -15 25 0 9 24 3 27
-55 28 l-51 0 0 54 c0 52 -1 54 -28 54 -24 0 -28 4 -27 28 0 24 -3 27 -27 24
-28 -3 -28 -3 -28 52 0 50 -2 56 -20 56 -20 0 -20 -1 -4 -25 16 -24 15 -25 -4
-25 -18 0 -21 7 -24 53 l-3 52 -132 -3z m-78 -22 c3 -5 -1 -10 -10 -10 -9 0
-13 5 -10 10 3 6 8 10 10 10 2 0 7 -4 10 -10z m2050 0 c3 -5 -1 -10 -10 -10
-9 0 -13 5 -10 10 3 6 8 10 10 10 2 0 7 -4 10 -10z m-1998 -6 c-3 -3 -12 -4
-19 -1 -8 3 -5 6 6 6 11 1 17 -2 13 -5z m50 0 c-3 -3 -12 -4 -19 -1 -8 3 -5 6
6 6 11 1 17 -2 13 -5z m92 -26 c-2 -30 -2 -30 -6 -6 -3 20 -11 28 -31 31 -24
4 -24 4 6 6 30 1 32 -1 31 -31z m1679 25 c-20 -3 -28 -11 -31 -31 -4 -24 -4
-24 -6 6 -1 30 1 32 32 31 29 -2 29 -2 5 -6z m79 1 c-3 -3 -12 -4 -19 -1 -8 3
-5 6 6 6 11 1 17 -2 13 -5z m50 0 c-3 -3 -12 -4 -19 -1 -8 3 -5 6 6 6 11 1 17
-2 13 -5z m-187 -54 c0 -11 -7 -20 -15 -20 -27 0 -18 30 13 39 1 1 2 -8 2 -19z
m-1573 -97 c-3 -10 -5 -2 -5 17 0 19 2 27 5 18 2 -10 2 -26 0 -35z m1549 -10
c-10 -10 -19 5 -10 18 6 11 8 11 12 0 2 -7 1 -15 -2 -18z m-1486 -14 c0 -12
-27 -11 -35 1 -11 17 5 32 21 19 8 -6 14 -15 14 -20z m1454 14 c-5 -5 -12 -12
-16 -18 -4 -6 -8 -2 -8 8 0 9 7 17 17 17 9 0 12 -3 7 -7z m-1400 -59 c3 -9 -1
-14 -14 -14 -13 0 -20 -7 -20 -20 0 -23 -10 -26 -28 -8 -18 18 -15 28 8 28 13
0 20 7 20 20 0 22 25 18 34 -6z m1367 -14 c22 0 24 -11 7 -28 -18 -18 -28 -15
-28 8 0 11 -7 20 -15 20 -18 0 -20 27 -2 33 6 2 13 -4 15 -15 2 -10 12 -18 23
-18z m-1351 -75 c0 -8 -7 -15 -15 -15 -8 0 -15 7 -15 15 0 8 7 15 15 15 8 0
15 -7 15 -15z m1314 1 c-9 -24 -34 -28 -34 -6 0 13 7 20 20 20 13 0 17 -5 14
-14z m-1264 -51 c0 -8 -7 -15 -15 -15 -8 0 -15 7 -15 15 0 8 7 15 15 15 8 0
15 -7 15 -15z m1214 1 c-9 -24 -34 -28 -34 -6 0 13 7 20 20 20 13 0 17 -5 14
-14z m-1120 -21 c4 -10 -1 -15 -14 -15 -13 0 -20 -7 -20 -20 0 -23 -10 -26
-28 -8 -18 18 -15 28 8 28 11 0 20 7 20 15 0 8 6 15 14 15 8 0 16 -7 20 -15z
m43 -51 c-3 -3 -12 -4 -19 -1 -8 3 -5 6 6 6 11 1 17 -2 13 -5z m23 -39 c0 -8
-7 -15 -15 -15 -8 0 -15 7 -15 15 0 8 7 15 15 15 8 0 15 -7 15 -15z m87 -11
c-3 -3 -12 -4 -19 -1 -8 3 -5 6 6 6 11 1 17 -2 13 -5z m731 -1 c-10 -2 -26 -2
-35 0 -10 3 -2 5 17 5 19 0 27 -2 18 -5z m-595 -50 c-18 -2 -48 -2 -65 0 -18
2 -4 4 32 4 36 0 50 -2 33 -4z m72 -3 c-3 -5 -10 -10 -16 -10 -5 0 -9 5 -9 10
0 6 7 10 16 10 8 0 12 -4 9 -10z m245 -6 c0 -16 -33 -20 -137 -16 -59 3 -83 7
-83 16 0 10 27 13 110 13 84 0 110 -3 110 -13z m50 6 c0 -5 -4 -10 -9 -10 -6
0 -13 5 -16 10 -3 6 1 10 9 10 9 0 16 -4 16 -10z m113 3 c-18 -2 -48 -2 -65 0
-18 2 -4 4 32 4 36 0 50 -2 33 -4z"/>
<path d="M511 1010 c-14 -8 -7 -30 9 -30 11 0 21 28 12 34 -5 3 -14 1 -21 -4z"/>
<path d="M370 926 c0 -10 9 -16 21 -16 24 0 21 23 -4 28 -10 2 -17 -3 -17 -12z"/>
<path d="M2156 925 c-4 -10 1 -15 14 -15 11 0 20 7 20 15 0 8 -6 15 -14 15 -8
0 -16 -7 -20 -15z"/>
<path d="M562 894 c4 -21 22 -23 26 -1 2 10 -3 17 -13 17 -10 0 -15 -6 -13
-16z"/>
<path d="M1970 890 c0 -23 10 -26 28 -8 18 18 15 28 -8 28 -13 0 -20 -7 -20
-20z"/>
<path d="M625 840 c3 -5 8 -10 11 -10 2 0 4 5 4 10 0 6 -5 10 -11 10 -5 0 -7
-4 -4 -10z"/>
<path d="M1920 834 c0 -17 22 -14 28 4 2 7 -3 12 -12 12 -9 0 -16 -7 -16 -16z"/>
<path d="M426 824 c-9 -23 -8 -24 14 -24 23 0 26 13 6 29 -11 9 -15 8 -20 -5z"/>
<path d="M2107 823 c-12 -11 -8 -23 8 -23 8 0 15 7 15 15 0 16 -12 20 -23 8z"/>
<path d="M1870 789 c0 -5 5 -7 10 -4 6 3 10 8 10 11 0 2 -4 4 -10 4 -5 0 -10
-5 -10 -11z"/>
<path d="M2056 771 c-16 -17 -16 -19 4 -24 16 -4 20 0 20 19 0 29 -2 29 -24 5z"/>
<path d="M662 733 c5 -25 28 -28 28 -4 0 12 -6 21 -16 21 -9 0 -14 -7 -12 -17z"/>
<path d="M480 700 c0 -5 5 -10 11 -10 5 0 7 5 4 10 -3 6 -8 10 -11 10 -2 0 -4
-4 -4 -10z"/>
<path d="M1760 674 c0 -14 3 -14 15 -4 8 7 15 14 15 16 0 2 -7 4 -15 4 -8 0
-15 -7 -15 -16z"/>
<path d="M537 663 c-13 -12 -7 -23 13 -23 13 0 18 5 14 15 -7 16 -17 19 -27 8z"/>
<path d="M2006 661 c-4 -7 -5 -15 -2 -18 9 -9 19 4 14 18 -4 11 -6 11 -12 0z"/>
<path d="M822 628 c6 -18 28 -21 28 -4 0 9 -7 16 -16 16 -9 0 -14 -5 -12 -12z"/>
<path d="M1710 624 c0 -9 5 -14 12 -12 18 6 21 28 4 28 -9 0 -16 -7 -16 -16z"/>
<path d="M590 606 c0 -9 7 -16 16 -16 17 0 14 22 -4 28 -7 2 -12 -3 -12 -12z"/>
<path d="M937 584 c-8 -8 1 -24 14 -24 5 0 9 7 9 15 0 15 -12 20 -23 9z"/>
<path d="M1600 574 c0 -9 5 -14 12 -12 18 6 21 28 4 28 -9 0 -16 -7 -16 -16z"/>
<path d="M640 545 c0 -8 7 -15 16 -15 14 0 14 3 4 15 -7 8 -14 15 -16 15 -2 0
-4 -7 -4 -15z"/>
<path d="M1090 515 c7 -8 16 -15 21 -15 5 0 9 7 9 15 0 9 -9 15 -21 15 -18 0
-19 -2 -9 -15z"/>
<path d="M1440 515 c0 -8 4 -15 9 -15 5 0 14 7 21 15 10 13 9 15 -9 15 -12 0
-21 -6 -21 -15z"/>
<path d="M746 495 c-4 -11 2 -15 21 -15 21 0 24 2 13 15 -7 8 -16 15 -20 15
-4 0 -10 -7 -14 -15z"/>
<path d="M1787 503 c-12 -11 -8 -23 8 -23 8 0 15 7 15 15 0 16 -12 20 -23 8z"/>
<path d="M1677 453 c-13 -12 -7 -23 13 -23 11 0 20 7 20 15 0 15 -21 21 -33 8z"/>
<path d="M800 440 c0 -5 5 -10 11 -10 5 0 7 5 4 10 -3 6 -8 10 -11 10 -2 0 -4
-4 -4 -10z"/>
<path d="M960 385 c0 -8 7 -15 15 -15 8 0 15 7 15 15 0 8 -7 15 -15 15 -8 0
-15 -7 -15 -15z"/>
<path d="M1572 388 c6 -18 28 -21 28 -4 0 9 -7 16 -16 16 -9 0 -14 -5 -12 -12z"/>
</g>
</svg>
