<?xml version="1.0" standalone="no"?>
<!DOCTYPE svg PUBLIC "-//W3C//DTD SVG 20010904//EN"
 "http://www.w3.org/TR/2001/REC-SVG-20010904/DTD/svg10.dtd">
<svg version="1.0" xmlns="http://www.w3.org/2000/svg"
 width="128.000000pt" height="128.000000pt" viewBox="0 0 128.000000 128.000000"
 preserveAspectRatio="xMidYMid meet">
<metadata>
Created by potrace 1.16, written by Peter Selinger 2001-2019
</metadata>
<g transform="translate(0.000000,128.000000) scale(0.100000,-0.100000)"
fill="#000000" stroke="none">
<path d="M362 1133 c-6 -10 -13 -38 -16 -63 -4 -25 -13 -79 -21 -120 -22 -115
-36 -199 -45 -260 -5 -30 -27 -165 -50 -300 -31 -186 -39 -250 -31 -267 10
-22 16 -23 115 -23 74 0 107 4 115 13 6 8 27 115 48 240 l37 226 76 -227 c42
-125 79 -233 83 -240 6 -8 40 -12 112 -12 98 0 105 1 118 22 19 31 169 921
165 978 l-3 45 -106 3 c-84 2 -109 0 -118 -12 -7 -8 -29 -112 -49 -231 -20
-118 -39 -212 -43 -208 -3 5 -39 105 -78 225 -45 134 -78 219 -87 222 -9 3
-60 6 -114 6 -84 0 -101 -3 -108 -17z m206 -11 c9 -6 192 -529 192 -549 0 -2
-4 -3 -9 -3 -5 0 -49 118 -96 263 -77 231 -105 303 -105 272 0 -12 203 -625
206 -622 1 1 5 36 8 77 7 108 83 539 97 556 9 11 32 14 98 12 82 -3 86 -4 89
-27 6 -36 -149 -933 -165 -958 -12 -21 -21 -23 -98 -23 -70 0 -86 3 -94 18
-20 37 -171 507 -167 518 4 10 -6 52 -31 134 -4 13 -37 -164 -103 -557 l-12
-73 -74 0 c-48 0 -73 -4 -69 -10 9 -15 155 -13 160 3 3 6 25 131 50 276 25
146 47 266 49 268 2 2 9 -3 15 -11 9 -10 9 -19 2 -33 -6 -10 -29 -128 -52
-263 -22 -134 -45 -250 -51 -257 -16 -20 -174 -18 -186 3 -9 16 1 86 54 384
14 80 27 159 30 175 2 17 6 40 8 52 3 11 8 43 12 70 3 26 8 57 10 68 3 11 11
61 19 110 24 140 20 135 117 135 46 0 89 -4 96 -8z"/>
<path d="M936 648 c-44 -255 -81 -469 -84 -475 -3 -9 -28 -13 -79 -13 -47 0
-72 -4 -68 -10 3 -5 40 -10 81 -10 68 0 75 2 84 22 9 23 160 899 160 931 0 9
-4 17 -8 17 -4 0 -43 -208 -86 -462z"/>
</g>
</svg>
