<?xml version="1.0" standalone="no"?>
<!DOCTYPE svg PUBLIC "-//W3C//DTD SVG 20010904//EN"
 "http://www.w3.org/TR/2001/REC-SVG-20010904/DTD/svg10.dtd">
<svg version="1.0" xmlns="http://www.w3.org/2000/svg"
 width="256.000000pt" height="256.000000pt" viewBox="0 0 256.000000 256.000000"
 preserveAspectRatio="xMidYMid meet">
<metadata>
Created by potrace 1.16, written by Peter Selinger 2001-2019
</metadata>
<g transform="translate(0.000000,256.000000) scale(0.100000,-0.100000)"
fill="#000000" stroke="none">
<path d="M893 2533 c213 -2 561 -2 775 0 213 1 38 2 -388 2 -426 0 -601 -1
-387 -2z"/>
<path d="M507 2504 c-1 -1 -18 -4 -37 -7 -76 -12 -85 -15 -179 -61 -49 -23
-201 -166 -201 -189 0 -8 -9 -24 -20 -37 -11 -13 -20 -30 -20 -40 0 -9 -5 -21
-12 -28 -7 -7 -8 -12 -4 -12 5 0 3 -7 -4 -15 -7 -8 -10 -15 -7 -15 3 0 1 -15
-4 -32 -5 -19 -9 -352 -9 -799 0 -633 2 -773 14 -812 8 -26 15 -51 16 -55 25
-84 104 -186 203 -263 47 -36 117 -68 182 -85 82 -20 210 -24 850 -24 796 1
842 4 960 60 104 49 208 150 253 243 61 127 57 64 57 937 l0 805 -24 60 c-37
90 -79 155 -138 210 -70 67 -69 66 -141 103 -61 31 -83 38 -147 48 -26 4
-1584 11 -1588 8z m1611 -38 c199 -53 344 -200 397 -402 23 -87 23 -1501 0
-1588 -52 -197 -204 -349 -403 -400 -90 -24 -1574 -24 -1664 0 -194 50 -340
190 -400 384 l-23 75 0 740 0 740 27 81 c31 96 63 151 127 218 61 64 131 108
211 134 36 11 72 23 80 26 8 2 371 5 805 5 648 1 799 -2 843 -13z"/>
<path d="M1175 2296 c-255 -55 -462 -171 -639 -356 -216 -226 -327 -513 -326
-843 1 -187 37 -328 120 -467 52 -87 100 -142 187 -211 281 -223 737 -261
1119 -92 256 113 472 321 594 572 74 153 108 289 117 467 9 207 -22 363 -104
514 -85 154 -202 264 -371 346 -136 65 -234 86 -427 90 -140 3 -174 1 -270
-20z m451 -20 c373 -66 646 -348 689 -711 18 -154 3 -338 -41 -476 -113 -359
-383 -645 -728 -769 -148 -53 -223 -65 -411 -65 -157 0 -191 3 -264 23 -439
120 -669 460 -630 932 35 410 259 746 634 950 114 62 260 104 470 134 46 7
194 -3 281 -18z"/>
<path d="M1335 1893 c-247 -26 -416 -131 -532 -330 -51 -88 -58 -107 -83 -204
-57 -224 -23 -428 93 -555 91 -100 191 -144 347 -151 194 -10 354 51 491 187
91 90 147 188 184 319 38 136 43 254 16 364 -13 48 -32 107 -44 130 -33 63
-134 160 -197 189 -71 34 -205 58 -275 51z m143 -39 c149 -30 264 -123 323
-261 33 -76 34 -82 34 -213 0 -114 -4 -147 -24 -210 -97 -308 -328 -490 -620
-490 -236 0 -393 115 -456 334 -40 139 1 380 92 535 73 125 206 235 336 281
114 40 203 47 315 24z"/>
<path d="M956 1633 c-3 -10 -15 -88 -26 -173 -12 -85 -32 -225 -45 -310 -14
-85 -26 -180 -27 -210 l-3 -55 105 0 105 0 23 140 c12 77 26 169 30 204 l7 64
128 -192 c104 -157 134 -195 162 -207 39 -16 181 -19 190 -5 3 6 15 79 26 163
11 84 31 223 44 308 14 85 27 186 31 223 l7 68 -108 -3 -109 -3 -17 -110 c-10
-60 -23 -152 -30 -203 l-11 -92 -70 107 c-143 220 -181 274 -201 288 -15 11
-48 15 -114 15 -79 0 -92 -2 -97 -17z m216 -44 c15 -19 28 -38 28 -42 0 -4 49
-81 109 -171 61 -89 115 -175 122 -189 17 -38 29 -34 30 11 0 20 2 45 4 54 2
9 6 34 9 55 3 21 14 100 26 176 11 76 20 140 20 143 0 2 39 4 86 4 77 0 85 -2
80 -17 -3 -10 -8 -38 -11 -63 -3 -25 -8 -52 -10 -60 -2 -8 -6 -40 -10 -71 -3
-31 -7 -66 -10 -77 -3 -18 -17 -113 -40 -279 -3 -18 -8 -57 -11 -85 -4 -29 -8
-56 -11 -60 -7 -13 -148 -9 -165 5 -17 12 -292 423 -301 449 -8 24 -14 4 -21
-72 -4 -41 -8 -86 -11 -100 -2 -14 -6 -47 -10 -75 -3 -27 -8 -61 -11 -75 -2
-14 -7 -51 -11 -82 l-6 -58 -78 0 c-84 0 -95 1 -92 11 4 12 12 60 28 174 3 22
14 96 25 165 10 69 22 149 25 179 4 30 9 63 11 75 3 12 7 43 11 70 l6 48 80
-5 c77 -4 82 -6 109 -38z"/>
<path d="M458 13 c7 -3 16 -2 19 1 4 3 -2 6 -13 5 -11 0 -14 -3 -6 -6z"/>
<path d="M2088 13 c7 -3 16 -2 19 1 4 3 -2 6 -13 5 -11 0 -14 -3 -6 -6z"/>
<path d="M898 3 c210 -2 554 -2 765 0 210 1 38 2 -383 2 -421 0 -593 -1 -382
-2z"/>
</g>
</svg>
