<?xml version="1.0" standalone="no"?>
<!DOCTYPE svg PUBLIC "-//W3C//DTD SVG 20010904//EN"
 "http://www.w3.org/TR/2001/REC-SVG-20010904/DTD/svg10.dtd">
<svg version="1.0" xmlns="http://www.w3.org/2000/svg"
 width="256.000000pt" height="256.000000pt" viewBox="0 0 256.000000 256.000000"
 preserveAspectRatio="xMidYMid meet">
<metadata>
Created by potrace 1.16, written by Peter Selinger 2001-2019
</metadata>
<g transform="translate(0.000000,256.000000) scale(0.100000,-0.100000)"
fill="#000000" stroke="none">
<path d="M483 1675 c-189 -41 -355 -193 -420 -384 -34 -101 -31 -296 7 -391 9
-22 16 -25 61 -25 40 0 49 3 45 15 -3 8 -14 41 -26 74 -46 128 -36 248 31 384
50 102 118 173 215 224 203 107 421 84 604 -64 79 -63 77 -45 -2 27 -144 130
-330 180 -515 140z m60 -22 c-7 -2 -19 -2 -25 0 -7 3 -2 5 12 5 14 0 19 -2 13
-5z m-46 -9 c-3 -3 -12 -4 -19 -1 -8 3 -5 6 6 6 11 1 17 -2 13 -5z m-107 -41
c-131 -63 -237 -194 -275 -338 -26 -102 -17 -261 20 -347 12 -29 -30 -22 -43
7 -20 44 -35 157 -29 229 14 187 145 373 322 457 33 16 65 29 70 29 6 0 -24
-17 -65 -37z"/>
<path d="M270 1057 c0 -168 2 -188 16 -183 9 3 26 6 39 6 24 0 24 2 27 106 l3
105 76 -108 c75 -105 78 -108 113 -107 l37 1 0 183 0 183 -37 0 -36 0 1 -119
c1 -65 0 -116 -2 -114 -3 3 -39 56 -81 119 -75 111 -77 113 -116 115 l-40 2 0
-189z m136 48 c62 -91 82 -115 101 -115 23 0 23 1 23 115 0 96 3 115 15 115
13 0 15 -24 15 -160 0 -201 -5 -203 -108 -55 -57 81 -79 105 -96 105 -21 0
-24 -6 -29 -67 -4 -38 -7 -85 -7 -105 0 -27 -4 -38 -15 -38 -13 0 -15 24 -15
160 0 206 6 208 116 45z"/>
<path d="M1300 1063 l0 -183 43 0 43 0 -4 70 c-4 66 -3 70 17 70 15 0 31 -18
60 -73 l40 -72 46 3 c25 2 45 5 45 7 0 2 -20 38 -45 79 -50 85 -50 86 -32 86
29 0 57 45 57 92 0 38 -5 50 -26 67 -30 23 -58 29 -166 33 l-78 3 0 -182z
m214 132 c47 -31 44 -90 -7 -116 -18 -9 -20 -9 -9 2 14 15 16 77 3 98 -6 10
-33 16 -75 19 l-66 4 0 -72 0 -72 60 4 c58 3 60 2 60 -21 0 -13 14 -48 31 -78
17 -30 28 -57 25 -60 -10 -10 -27 11 -60 74 -30 55 -33 58 -73 61 l-43 3 0
-70 c0 -64 -2 -71 -20 -71 -19 0 -20 7 -20 161 l0 162 84 -5 c55 -4 92 -12
110 -23z m-46 -31 c25 -17 29 -46 9 -62 -7 -6 -32 -14 -55 -18 l-42 -7 0 52
c0 51 0 51 33 51 18 0 43 -7 55 -16z"/>
<path d="M1840 1228 c-62 -32 -91 -87 -92 -171 0 -75 17 -115 66 -152 41 -31
114 -42 174 -26 39 11 42 14 36 39 -10 40 -10 40 -54 28 -114 -30 -186 120
-99 207 25 24 36 28 67 25 20 -3 44 -8 53 -12 12 -5 18 2 26 29 14 43 9 46
-71 52 -50 4 -69 0 -106 -19z m150 -18 c0 -6 -27 -10 -60 -10 -47 0 -64 -4
-80 -20 -29 -29 -40 -63 -40 -121 0 -95 43 -139 137 -139 41 0 54 -3 43 -10
-8 -5 -37 -10 -64 -10 -120 0 -190 123 -135 236 28 59 70 84 142 84 31 0 57
-4 57 -10z"/>
<path d="M2274 1174 c-33 -71 -79 -215 -85 -268 -4 -27 -2 -28 38 -30 l42 -2
6 48 7 48 68 0 69 0 6 -37 c4 -21 8 -42 9 -47 1 -5 22 -9 47 -9 l44 0 -3 34
c-5 46 -67 233 -96 288 -22 42 -25 44 -71 45 l-49 1 -32 -71z m119 34 c38 -87
81 -205 92 -250 13 -55 12 -58 -6 -58 -18 0 -23 11 -31 65 -3 18 -12 20 -95
23 l-92 3 -6 -46 c-6 -34 -12 -45 -25 -45 -20 0 -20 5 11 109 20 66 65 176 82
199 5 6 22 12 37 12 15 0 30 -6 33 -12z"/>
<path d="M2301 1131 c-11 -32 -21 -72 -21 -90 l0 -31 76 0 77 0 -6 33 c-3 17
-15 58 -27 90 -19 51 -25 57 -49 57 -25 0 -31 -6 -50 -59z m81 -31 l26 -70
-54 0 c-30 0 -54 3 -54 8 0 14 44 132 50 132 3 0 17 -31 32 -70z"/>
<path d="M628 1108 c1 -73 8 -145 14 -160 18 -48 69 -70 167 -74 142 -5 131
-22 131 187 l0 179 -40 0 -40 0 0 -153 0 -154 -47 3 c-57 3 -89 19 -97 48 -3
11 -6 74 -6 139 l0 117 -42 0 -43 0 3 -132z m56 81 c3 -17 6 -73 6 -124 0 -52
3 -101 6 -110 11 -27 60 -45 124 -45 l60 0 0 155 c0 148 1 155 20 155 19 0 20
-7 20 -160 l0 -160 -93 0 c-92 0 -94 1 -133 34 l-39 34 -3 126 c-3 105 -1 126
11 126 8 0 17 -13 21 -31z"/>
<path d="M964 1224 c3 -9 6 -24 6 -35 0 -16 7 -19 55 -19 l55 0 0 -151 c0
-134 2 -150 16 -145 9 3 27 6 40 6 l24 0 0 145 0 145 54 0 54 0 4 35 4 35
-159 0 c-141 0 -158 -2 -153 -16z m286 -13 c0 -5 -25 -13 -55 -16 l-55 -7 0
-144 c0 -137 -1 -144 -20 -144 -19 0 -20 7 -20 144 l0 145 -55 6 c-97 13 -59
25 75 25 73 0 130 -4 130 -9z"/>
<path d="M1627 1063 c1 -98 5 -179 8 -180 3 -2 21 -3 40 -3 l35 0 0 180 0 180
-42 0 -43 0 2 -177z m59 126 c-3 -17 -6 -89 -6 -160 0 -108 -2 -129 -15 -129
-13 0 -15 24 -15 160 0 156 0 160 21 160 19 0 21 -4 15 -31z"/>
<path d="M2067 1059 l2 -181 41 -2 40 -2 0 183 0 183 -42 0 -43 0 2 -181z m63
1 c0 -153 -1 -160 -20 -160 -19 0 -20 7 -20 160 0 153 1 160 20 160 19 0 20
-7 20 -160z"/>
</g>
</svg>
