<?xml version="1.0" standalone="no"?>
<!DOCTYPE svg PUBLIC "-//W3C//DTD SVG 20010904//EN"
 "http://www.w3.org/TR/2001/REC-SVG-20010904/DTD/svg10.dtd">
<svg version="1.0" xmlns="http://www.w3.org/2000/svg"
 width="100.000000pt" height="100.000000pt" viewBox="0 0 100.000000 100.000000"
 preserveAspectRatio="xMidYMid meet">
<metadata>
Created by potrace 1.16, written by Peter Selinger 2001-2019
</metadata>
<g transform="translate(0.000000,100.000000) scale(0.100000,-0.100000)"
fill="#000000" stroke="none">
<path d="M390 785 c0 -11 -12 -15 -50 -15 -38 0 -50 -4 -50 -15 0 -10 -10 -15
-30 -15 -20 0 -30 -5 -30 -15 0 -8 -7 -15 -15 -15 -8 0 -15 -7 -15 -15 0 -10
-10 -15 -30 -15 -20 0 -30 -5 -30 -15 0 -8 -7 -15 -15 -15 -8 0 -15 -9 -15
-20 0 -13 -7 -20 -20 -20 -16 0 -20 -7 -20 -30 0 -20 -5 -30 -15 -30 -8 0 -15
-7 -15 -15 0 -8 -7 -15 -15 -15 -11 0 -15 -11 -15 -39 0 -22 -3 -46 -6 -55 -4
-11 -1 -16 10 -16 12 0 16 10 16 45 0 33 4 45 15 45 8 0 15 7 15 15 0 8 7 15
15 15 10 0 15 10 15 30 0 23 4 30 20 30 13 0 20 7 20 20 0 11 7 20 15 20 8 0
15 7 15 15 0 10 10 15 30 15 20 0 30 5 30 15 0 8 7 15 15 15 8 0 15 7 15 15 0
10 10 15 30 15 20 0 30 5 30 15 0 11 12 15 50 15 38 0 50 4 50 15 0 13 21 15
125 15 104 0 125 -2 125 -15 0 -11 12 -15 45 -15 33 0 45 -4 45 -15 0 -10 10
-15 30 -15 20 0 30 -5 30 -15 0 -10 10 -15 30 -15 20 0 30 -5 30 -15 0 -8 9
-15 20 -15 11 0 20 -7 20 -15 0 -8 7 -15 15 -15 8 0 15 -9 15 -20 0 -11 7 -20
15 -20 8 0 15 -7 15 -15 0 -8 7 -15 16 -15 11 0 14 5 10 16 -3 9 -6 20 -6 25
0 5 -7 9 -15 9 -8 0 -15 9 -15 20 0 11 -7 20 -15 20 -8 0 -15 7 -15 15 0 8 -9
15 -20 15 -11 0 -20 7 -20 15 0 10 -10 15 -30 15 -20 0 -30 5 -30 15 0 10 -10
15 -30 15 -20 0 -30 5 -30 15 0 11 -12 15 -45 15 -33 0 -45 4 -45 15 0 13 -23
15 -145 15 -122 0 -145 -2 -145 -15z"/>
<path d="M440 675 c0 -11 -12 -15 -50 -15 -38 0 -50 -4 -50 -15 0 -8 -7 -15
-15 -15 -8 0 -15 -9 -15 -20 0 -16 -7 -20 -30 -20 -20 0 -30 -5 -30 -15 0 -8
-7 -15 -15 -15 -8 0 -15 -7 -15 -15 0 -8 -7 -15 -15 -15 -10 0 -15 -10 -15
-30 0 -20 -5 -30 -15 -30 -10 0 -15 -10 -15 -30 0 -20 -5 -30 -15 -30 -10 0
-15 -11 -15 -35 0 -28 -4 -35 -20 -35 -19 0 -20 -7 -20 -105 0 -98 1 -105 20
-105 17 0 20 -7 20 -50 0 -38 4 -50 15 -50 8 0 15 -7 15 -15 0 -8 5 -15 10
-15 6 0 10 11 10 25 0 16 -6 25 -15 25 -11 0 -15 12 -15 50 0 43 -3 50 -20 50
-18 0 -20 7 -20 85 0 78 2 85 20 85 16 0 20 7 20 35 0 24 5 35 15 35 10 0 15
10 15 30 0 20 5 30 15 30 10 0 15 10 15 30 0 20 5 30 15 30 8 0 15 7 15 15 0
8 7 15 15 15 8 0 15 7 15 15 0 10 10 15 30 15 23 0 30 4 30 20 0 11 7 20 15
20 8 0 15 7 15 15 0 11 12 15 50 15 38 0 50 4 50 15 0 13 20 15 120 15 100 0
120 -2 120 -15 0 -11 12 -15 45 -15 33 0 45 -4 45 -15 0 -8 7 -15 15 -15 8 0
15 -9 15 -20 0 -16 7 -20 35 -20 24 0 35 -5 35 -15 0 -8 7 -15 15 -15 8 0 15
-7 15 -15 0 -8 7 -15 15 -15 10 0 15 -10 15 -30 0 -25 4 -30 25 -30 14 0 25 5
25 10 0 6 -7 10 -15 10 -10 0 -15 10 -15 30 0 20 -5 30 -15 30 -8 0 -15 7 -15
15 0 8 -7 15 -15 15 -8 0 -15 7 -15 15 0 10 -11 15 -35 15 -28 0 -35 4 -35 20
0 11 -7 20 -15 20 -8 0 -15 7 -15 15 0 11 -12 15 -45 15 -33 0 -45 4 -45 15 0
13 -22 15 -140 15 -118 0 -140 -2 -140 -15z"/>
</g>
</svg>
