<?xml version="1.0" standalone="no"?>
<!DOCTYPE svg PUBLIC "-//W3C//DTD SVG 20010904//EN"
 "http://www.w3.org/TR/2001/REC-SVG-20010904/DTD/svg10.dtd">
<svg version="1.0" xmlns="http://www.w3.org/2000/svg"
 width="100.000000pt" height="100.000000pt" viewBox="0 0 100.000000 100.000000"
 preserveAspectRatio="xMidYMid meet">
<metadata>
Created by potrace 1.16, written by Peter Selinger 2001-2019
</metadata>
<g transform="translate(0.000000,100.000000) scale(0.100000,-0.100000)"
fill="#000000" stroke="none">
<path d="M270 910 c0 -5 -13 -10 -30 -10 -20 0 -30 -5 -30 -15 0 -8 -7 -15
-16 -15 -9 0 -29 -13 -44 -30 -15 -16 -31 -30 -34 -30 -13 0 -56 -50 -56 -65
0 -8 -4 -15 -10 -15 -5 0 -10 -13 -10 -30 0 -16 -4 -30 -10 -30 -6 0 -10 -45
-10 -115 0 -70 4 -115 10 -115 6 0 10 -13 10 -30 0 -16 5 -30 10 -30 6 0 10
-11 10 -25 0 -14 5 -25 10 -25 6 0 10 -7 10 -16 0 -15 23 -44 35 -44 3 0 33
-27 65 -60 32 -33 66 -60 74 -60 9 0 16 -4 16 -10 0 -5 9 -10 20 -10 11 0 20
-7 20 -15 0 -10 11 -15 35 -15 19 0 35 -4 35 -10 0 -6 62 -10 165 -10 103 0
165 4 165 10 0 6 14 10 30 10 20 0 30 5 30 15 0 8 7 15 16 15 8 0 33 18 54 40
21 22 41 40 45 40 12 0 55 50 55 65 0 8 5 15 10 15 6 0 10 9 10 20 0 11 5 20
10 20 6 0 10 20 10 45 0 25 5 45 10 45 6 0 10 27 10 60 0 33 -4 60 -10 60 -5
0 -10 18 -10 40 0 22 -4 40 -10 40 -5 0 -10 9 -10 20 0 27 -63 90 -90 90 -11
0 -20 5 -20 10 0 6 -13 10 -30 10 -16 0 -30 5 -30 10 0 6 -30 10 -71 10 l-70
0 -49 50 c-27 28 -56 50 -64 50 -9 0 -16 7 -16 15 0 10 -10 15 -30 15 -16 0
-30 5 -30 10 0 6 -38 10 -95 10 -57 0 -95 -4 -95 -10z m170 -20 c0 -5 14 -10
30 -10 20 0 30 -5 30 -15 0 -8 7 -15 16 -15 8 0 37 -22 64 -50 27 -27 53 -50
59 -50 5 0 12 -6 15 -12 5 -10 7 -10 12 0 7 14 104 17 104 2 0 -5 14 -10 30
-10 17 0 30 -4 30 -10 0 -5 9 -10 20 -10 27 0 90 -63 90 -90 0 -11 5 -20 10
-20 6 0 10 -18 10 -40 0 -22 5 -40 10 -40 6 0 10 -18 10 -40 0 -22 -4 -40 -10
-40 -5 0 -10 -20 -10 -45 0 -25 -4 -45 -10 -45 -5 0 -10 -9 -10 -20 0 -11 -4
-20 -10 -20 -5 0 -10 -7 -10 -15 0 -15 -43 -65 -55 -65 -4 0 -24 -18 -45 -40
-21 -22 -46 -40 -54 -40 -9 0 -16 -7 -16 -15 0 -10 -10 -15 -30 -15 -16 0 -30
-4 -30 -10 0 -6 -55 -10 -145 -10 -90 0 -145 4 -145 10 0 6 -16 10 -35 10 -24
0 -35 5 -35 15 0 8 -9 15 -20 15 -11 0 -20 5 -20 10 0 6 -7 10 -16 10 -8 0
-42 27 -74 60 -32 33 -62 60 -65 60 -12 0 -35 29 -35 44 0 9 -4 16 -10 16 -5
0 -10 11 -10 25 0 14 -4 25 -10 25 -5 0 -10 14 -10 30 0 17 -4 30 -10 30 -6 0
-10 38 -10 95 0 57 4 95 10 95 6 0 10 14 10 30 0 17 5 30 10 30 6 0 10 7 10
15 0 15 43 65 56 65 3 0 19 14 34 30 15 17 35 30 44 30 9 0 16 7 16 15 0 10
10 15 30 15 17 0 30 5 30 10 0 6 32 10 75 10 43 0 75 -4 75 -10z"/>
<path d="M280 820 c11 -7 6 -10 -20 -10 -26 0 -31 -3 -20 -10 13 -8 12 -10 -3
-10 -28 0 -87 -65 -87 -97 l-1 -28 -14 25 c-14 24 -14 22 -16 -35 -1 -49 -3
-54 -9 -30 -5 20 -8 -3 -9 -70 0 -68 2 -95 9 -85 7 11 10 -1 10 -40 0 -37 3
-50 9 -40 6 8 7 18 5 22 -3 4 0 8 5 8 6 0 11 -14 11 -30 0 -24 15 -45 75 -105
41 -41 82 -75 90 -75 8 0 15 -4 15 -10 0 -5 16 -10 35 -10 19 0 35 5 35 10 0
6 -11 10 -25 10 -14 0 -25 5 -25 10 0 6 -7 10 -15 10 -23 0 -125 106 -125 130
0 11 -4 20 -10 20 -5 0 -10 10 -10 23 0 18 -2 19 -10 7 -7 -10 -10 30 -10 123
0 85 4 137 10 137 6 0 10 7 10 15 0 20 65 85 85 85 8 0 15 5 15 10 0 6 42 10
108 10 73 0 102 -3 92 -10 -11 -7 -7 -10 18 -10 17 0 32 3 32 6 0 15 -32 34
-57 34 -22 0 -25 2 -13 10 10 7 -20 10 -95 10 -75 0 -105 -3 -95 -10z m138
-17 c-15 -2 -42 -2 -60 0 -18 2 -6 4 27 4 33 0 48 -2 33 -4z m-261 -310 c-2
-21 -4 -4 -4 37 0 41 2 58 4 38 2 -21 2 -55 0 -75z"/>
<path d="M530 759 c-12 -8 -9 -10 12 -6 20 3 25 0 20 -11 -4 -11 -1 -14 12 -9
11 4 15 3 10 -4 -4 -6 -1 -15 6 -19 11 -7 10 -11 -3 -24 -8 -9 -21 -16 -27
-16 -19 0 -60 -48 -60 -70 0 -11 3 -20 6 -20 8 0 34 27 34 35 0 12 29 35 44
35 9 0 16 5 16 10 0 6 6 10 13 10 9 0 12 -11 9 -35 -3 -23 0 -35 8 -35 7 0 10
7 6 15 -3 8 -1 15 4 15 6 0 10 9 10 20 0 18 7 20 63 20 44 0 58 -3 47 -10 -13
-8 -12 -10 3 -10 20 0 47 -23 47 -39 0 -6 5 -11 10 -11 6 0 10 -10 10 -22 0
-19 2 -20 10 -8 7 10 10 -18 10 -87 0 -62 -4 -103 -10 -103 -5 0 -10 -11 -10
-25 0 -14 -4 -25 -10 -25 -5 0 -10 -7 -10 -15 0 -20 -85 -105 -105 -105 -8 0
-15 -4 -15 -10 0 -5 -9 -10 -20 -10 -11 0 -20 -4 -20 -10 0 -5 -16 -10 -35
-10 -19 0 -35 -4 -35 -10 0 -5 20 -10 45 -10 25 0 45 5 45 10 0 6 9 10 21 10
14 0 19 5 16 14 -4 9 0 12 13 9 21 -6 130 96 130 122 0 8 5 15 11 15 5 0 7 -5
4 -10 -3 -6 -1 -10 4 -10 6 0 11 16 11 35 0 19 5 35 10 35 6 0 10 40 10 100 0
60 -4 100 -10 100 -5 0 -10 11 -10 25 0 14 -5 25 -11 25 -6 0 -9 -7 -5 -15 3
-8 1 -15 -4 -15 -6 0 -10 9 -10 21 0 24 -22 49 -44 49 -9 0 -16 5 -16 10 0 6
-15 10 -32 10 -25 0 -29 3 -18 10 11 7 -4 10 -50 10 -46 0 -61 -3 -50 -10 11
-7 12 -10 2 -10 -16 0 -42 24 -42 40 0 16 -26 40 -42 40 -7 0 -20 -5 -28 -11z
m347 -311 c-2 -18 -4 -4 -4 32 0 36 2 50 4 33 2 -18 2 -48 0 -65z"/>
<path d="M293 685 c-17 -18 -23 -36 -23 -67 0 -31 3 -39 10 -28 8 12 10 11 10
-7 0 -13 5 -23 10 -23 6 0 10 -19 10 -42 0 -32 -3 -39 -10 -28 -7 10 -10 -14
-10 -78 0 -85 2 -95 25 -117 13 -14 31 -25 40 -25 8 0 15 -4 15 -10 0 -5 11
-10 25 -10 17 0 25 5 25 18 0 10 9 24 20 32 28 20 25 30 -10 30 -25 0 -30 4
-30 25 0 21 5 25 30 25 20 0 30 -5 30 -15 0 -8 -6 -15 -12 -15 -9 0 -8 -4 2
-10 26 -17 30 -11 30 38 0 34 -3 43 -10 32 -8 -13 -10 -12 -10 3 0 11 -13 32
-30 47 -16 15 -30 35 -30 44 0 9 -5 16 -11 16 -5 0 -7 -4 -4 -10 3 -5 1 -10
-4 -10 -6 0 -11 14 -11 30 0 25 4 30 25 30 19 0 25 5 25 23 0 18 2 19 10 7 7
-11 10 -3 10 28 0 32 -6 49 -25 67 -33 34 -91 33 -122 0z m95 -59 c-2 -34 -7
-42 -26 -44 -29 -4 -52 20 -52 55 0 27 3 29 41 30 l40 1 -3 -42z m-31 -98 c-3
-7 -5 -2 -5 12 0 14 2 19 5 13 2 -7 2 -19 0 -25z m13 -52 c0 9 3 14 7 10 9 -8
11 -196 3 -196 -3 0 -12 9 -20 19 -7 11 -17 18 -22 15 -4 -3 -8 37 -8 88 l1
93 19 -24 c17 -20 20 -20 20 -5z m43 -61 c-7 -21 -13 -19 -13 6 0 11 4 18 10
14 5 -3 7 -12 3 -20z"/>
<path d="M656 634 c-10 -25 -7 -94 4 -94 6 0 10 25 10 55 0 57 -3 66 -14 39z"/>
<path d="M690 619 c0 -19 28 -39 54 -39 14 0 28 -4 31 -10 3 -5 13 -10 21 -10
8 0 14 5 14 10 0 6 -7 10 -16 10 -18 0 -44 23 -44 39 0 6 -13 11 -30 11 -16 0
-30 -5 -30 -11z"/>
<path d="M480 583 c0 -13 5 -23 10 -23 13 0 13 11 0 30 -8 12 -10 11 -10 -7z"/>
<path d="M723 545 c-19 -21 -17 -85 3 -85 26 0 44 26 44 64 0 28 -4 36 -17 36
-10 -1 -24 -7 -30 -15z"/>
<path d="M913 480 c0 -25 2 -35 4 -22 2 12 2 32 0 45 -2 12 -4 2 -4 -23z"/>
<path d="M533 485 c-15 -17 -17 -65 -3 -65 6 0 10 -38 10 -95 l0 -95 33 0 c24
0 28 3 17 10 -10 6 -11 10 -2 10 8 0 12 20 12 65 0 59 2 65 21 65 11 0 27 6
35 14 16 17 19 46 4 46 -5 0 -10 -4 -10 -10 0 -5 -7 -10 -16 -10 -9 0 -14 -6
-11 -13 4 -10 -2 -13 -19 -9 -23 4 -34 22 -14 22 6 0 10 7 10 16 0 8 5 12 10
9 15 -10 12 25 -4 41 -18 18 -57 18 -73 -1z m47 -35 c0 -5 -4 -10 -10 -10 -5
0 -10 5 -10 10 0 6 5 10 10 10 6 0 10 -4 10 -10z m-23 -62 c-3 -7 -5 -2 -5 12
0 14 2 19 5 13 2 -7 2 -19 0 -25z m20 -105 c-3 -10 -5 -2 -5 17 0 19 2 27 5
18 2 -10 2 -26 0 -35z"/>
<path d="M613 310 c0 -36 2 -50 4 -32 2 17 2 47 0 65 -2 17 -4 3 -4 -33z"/>
<path d="M385 180 c-15 -6 -8 -9 28 -9 26 -1 47 4 47 9 0 12 -47 12 -75 0z"/>
<path d="M580 129 c0 -5 9 -9 20 -9 11 0 20 2 20 4 0 2 -9 6 -20 9 -11 3 -20
1 -20 -4z"/>
</g>
</svg>
