<?xml version="1.0" standalone="no"?>
<!DOCTYPE svg PUBLIC "-//W3C//DTD SVG 20010904//EN"
 "http://www.w3.org/TR/2001/REC-SVG-20010904/DTD/svg10.dtd">
<svg version="1.0" xmlns="http://www.w3.org/2000/svg"
 width="192.000000pt" height="192.000000pt" viewBox="0 0 192.000000 192.000000"
 preserveAspectRatio="xMidYMid meet">
<metadata>
Created by potrace 1.16, written by Peter Selinger 2001-2019
</metadata>
<g transform="translate(0.000000,192.000000) scale(0.100000,-0.100000)"
fill="#000000" stroke="none">
<path d="M35 1878 c247 -190 372 -379 445 -673 9 -40 10 -41 59 -43 74 -3 174
-38 230 -81 82 -61 141 -137 247 -321 54 -93 74 -117 74 -89 0 14 -88 172
-145 259 -97 149 -210 229 -358 252 l-77 12 -10 40 c-58 233 -139 377 -304
540 l-100 99 145 -6 c79 -3 169 -10 199 -17 88 -19 212 -84 278 -145 124 -114
183 -238 261 -545 157 -618 254 -866 421 -1082 12 -16 20 -28 17 -28 -2 0 -44
7 -93 15 -218 38 -374 118 -492 252 -115 131 -167 218 -247 413 -51 127 -116
256 -143 286 -9 11 -26 30 -37 43 l-20 23 105 -4 c97 -3 111 -6 184 -41 95
-45 199 -144 295 -282 68 -96 86 -115 110 -114 12 0 12 2 3 6 -7 3 -43 51 -79
107 -85 129 -215 261 -297 299 -91 43 -150 54 -291 56 l-130 2 47 -31 c78 -52
146 -155 213 -325 82 -211 159 -342 274 -467 139 -152 331 -234 611 -263 l64
-7 -42 46 c-65 70 -151 209 -203 326 -84 188 -137 357 -240 758 -33 128 -68
255 -79 282 -85 215 -203 341 -389 416 -74 30 -163 42 -373 49 l-163 6 30 -23z"/>
<path d="M1491 1428 c-68 -260 -148 -569 -179 -686 -64 -247 -67 -218 35 -422
64 -130 156 -251 166 -220 3 8 15 53 26 100 12 47 37 146 57 220 19 74 52 203
74 285 21 83 84 323 140 534 55 212 100 403 100 425 -1 117 -104 210 -256 231
l-40 5 -123 -472z m266 406 c62 -30 107 -81 121 -137 12 -45 28 23 -233 -980
-144 -552 -149 -567 -167 -550 -48 43 -188 312 -188 361 0 9 77 315 172 680
l173 663 35 -6 c19 -3 59 -17 87 -31z"/>
<path d="M270 1033 c0 -10 -58 -236 -128 -503 l-127 -485 184 2 185 2 22 83
c12 46 45 175 74 288 l53 205 -22 65 c-42 118 -104 230 -164 296 -61 67 -77
76 -77 47z m110 -140 c27 -40 65 -116 86 -169 l39 -97 -71 -276 -71 -276 -157
-3 c-125 -2 -157 0 -154 10 3 7 58 217 123 465 136 518 115 484 205 346z"/>
</g>
</svg>
