<?xml version="1.0" standalone="no"?>
<!DOCTYPE svg PUBLIC "-//W3C//DTD SVG 20010904//EN"
 "http://www.w3.org/TR/2001/REC-SVG-20010904/DTD/svg10.dtd">
<svg version="1.0" xmlns="http://www.w3.org/2000/svg"
 width="100.000000pt" height="100.000000pt" viewBox="0 0 100.000000 100.000000"
 preserveAspectRatio="xMidYMid meet">
<metadata>
Created by potrace 1.16, written by Peter Selinger 2001-2019
</metadata>
<g transform="translate(0.000000,100.000000) scale(0.100000,-0.100000)"
fill="#000000" stroke="none">
<path d="M859 325 c-1 -3 -3 -9 -4 -15 -1 -5 -3 -17 -4 -25 -1 -18 -37 -20
-44 -2 -4 10 -6 10 -6 0 -1 -10 -84 -13 -378 -14 -208 -1 -389 -5 -403 -9 -24
-8 -24 -8 -2 -9 29 -1 32 -41 2 -41 -11 0 -20 -4 -20 -10 0 -5 10 -10 23 -10
18 0 22 -6 22 -30 0 -24 -4 -30 -22 -30 -13 0 -23 -4 -23 -10 0 -5 9 -10 20
-10 31 0 28 -50 -2 -51 -22 -1 -22 -1 2 -9 14 -4 138 -8 277 -9 l252 -1 4 -22
4 -23 2 23 c1 29 41 32 41 2 0 -11 5 -20 10 -20 6 0 10 13 10 30 l0 30 -280 0
-280 0 0 95 0 95 405 0 405 0 0 -95 0 -95 -115 0 c-78 0 -115 -4 -115 -11 0
-7 10 -9 25 -7 21 4 25 1 25 -18 0 -13 5 -24 10 -24 6 0 10 8 10 19 0 10 9 21
20 24 16 4 20 0 20 -19 0 -13 5 -24 10 -24 6 0 10 9 10 20 0 18 7 20 58 21 60
1 130 16 85 18 -17 1 -23 7 -23 25 0 16 8 26 23 31 l22 8 -22 4 c-28 5 -32 49
-5 56 16 4 16 5 0 6 -13 1 -18 10 -18 31 0 17 -4 30 -10 30 -5 0 -10 14 -10
30 l0 30 65 0 c37 0 65 4 65 10 0 10 -139 15 -141 5z"/>
<path d="M941 245 c-1 -36 2 -46 10 -38 8 8 8 22 1 50 l-10 38 -1 -50z"/>
<path d="M560 218 c0 -24 4 -28 30 -28 23 0 30 4 30 20 0 22 -16 27 -23 8 -3
-9 -10 -7 -21 7 -15 20 -15 19 -16 -7z"/>
<path d="M131 217 c-1 -13 -7 -16 -26 -11 -15 4 -25 2 -25 -5 0 -7 29 -11 85
-11 l85 0 0 -30 0 -30 -85 0 c-47 0 -85 -4 -85 -10 0 -5 25 -8 55 -6 48 3 55
1 55 -15 0 -11 5 -19 10 -19 6 0 10 6 10 14 0 7 9 16 20 19 15 4 20 0 20 -14
0 -10 5 -19 10 -19 6 0 10 7 10 15 0 23 17 18 26 -7 6 -17 9 -7 11 40 l4 62
94 0 c88 0 95 1 95 20 0 11 -4 20 -10 20 -5 0 -10 -4 -10 -10 0 -14 -27 -12
-33 3 -4 10 -6 10 -6 0 -1 -9 -21 -13 -65 -13 -71 0 -91 -13 -84 -55 4 -19 1
-25 -12 -25 -13 0 -16 6 -12 25 7 39 -14 55 -73 55 -33 0 -55 5 -58 13 -3 7
-6 5 -6 -6z"/>
<path d="M751 223 c-1 -6 -18 -13 -38 -15 -33 -3 -38 -7 -41 -30 -3 -29 -32
-40 -32 -13 0 8 -4 15 -10 15 -5 0 -10 -11 -10 -25 l0 -25 -145 0 c-96 0 -145
-4 -145 -11 0 -6 9 -8 20 -4 16 5 20 2 21 -17 1 -15 3 -17 6 -7 2 10 17 19 34
21 23 4 29 1 29 -14 0 -10 5 -18 10 -18 6 0 10 7 10 15 0 8 9 15 20 15 11 0
20 -7 20 -15 0 -8 5 -15 10 -15 6 0 10 7 10 15 0 8 5 15 10 15 6 0 10 -7 10
-15 0 -8 5 -15 10 -15 6 0 10 9 10 19 0 26 36 16 46 -12 6 -19 8 -18 11 11 4
29 7 32 39 32 31 0 34 2 34 30 l0 30 80 0 c52 0 80 4 80 11 0 6 -9 9 -20 6
-13 -3 -20 0 -20 9 0 8 -4 14 -10 14 -5 0 -10 -4 -10 -10 0 -14 -27 -12 -33 3
-4 8 -6 9 -6 0z"/>
<path d="M941 128 l1 -63 10 53 c8 41 13 52 29 52 10 0 19 5 19 10 0 6 -13 10
-30 10 l-30 0 1 -62z"/>
<path d="M174 169 c-3 -6 -1 -16 5 -22 8 -8 11 -5 11 11 0 24 -5 28 -16 11z"/>
<path d="M500 166 c0 -9 5 -16 10 -16 6 0 10 4 10 9 0 6 -4 13 -10 16 -5 3
-10 -1 -10 -9z"/>
<path d="M540 166 c0 -8 5 -18 10 -21 6 -3 10 3 10 14 0 12 -4 21 -10 21 -5 0
-10 -6 -10 -14z"/>
<path d="M350 160 c0 -5 5 -10 10 -10 6 0 10 5 10 10 0 6 -4 10 -10 10 -5 0
-10 -4 -10 -10z"/>
<path d="M440 160 c0 -5 5 -10 10 -10 6 0 10 5 10 10 0 6 -4 10 -10 10 -5 0
-10 -4 -10 -10z"/>
<path d="M730 161 c0 -6 5 -13 10 -16 6 -3 10 1 10 9 0 9 -4 16 -10 16 -5 0
-10 -4 -10 -9z"/>
<path d="M810 160 c0 -5 5 -10 10 -10 6 0 10 5 10 10 0 6 -4 10 -10 10 -5 0
-10 -4 -10 -10z"/>
<path d="M750 99 c0 -17 4 -28 10 -24 6 3 10 13 10 21 0 20 28 18 33 -3 4 -17
5 -17 6 0 1 10 9 17 21 17 11 0 20 5 20 10 0 6 -22 10 -50 10 -49 0 -50 -1
-50 -31z"/>
<path d="M681 94 c0 -11 3 -14 6 -6 3 7 2 16 -1 19 -3 4 -6 -2 -5 -13z"/>
</g>
</svg>
