<?xml version="1.0" standalone="no"?>
<!DOCTYPE svg PUBLIC "-//W3C//DTD SVG 20010904//EN"
 "http://www.w3.org/TR/2001/REC-SVG-20010904/DTD/svg10.dtd">
<svg version="1.0" xmlns="http://www.w3.org/2000/svg"
 width="180.000000pt" height="180.000000pt" viewBox="0 0 180.000000 180.000000"
 preserveAspectRatio="xMidYMid meet">
<metadata>
Created by potrace 1.16, written by Peter Selinger 2001-2019
</metadata>
<g transform="translate(0.000000,180.000000) scale(0.100000,-0.100000)"
fill="#000000" stroke="none">
<path d="M187 1063 c1 -236 4 -444 7 -464 8 -49 40 -87 94 -110 80 -34 251
-89 437 -140 l179 -49 166 45 c91 24 219 62 285 84 221 73 244 89 264 182 7
31 11 207 11 464 l0 415 -722 0 -723 0 2 -427z m1403 135 l0 -253 -330 0 -330
0 0 253 0 252 330 0 330 0 0 -252z m-710 -5 l0 -248 -330 3 -330 3 0 244 0
245 330 0 330 0 0 -247z m5 -568 c0 -157 -4 -285 -8 -285 -15 0 -290 81 -427
126 -227 74 -230 78 -230 299 l0 145 333 0 332 0 0 -285z m705 153 c0 -139 -9
-192 -38 -227 -20 -26 -152 -73 -402 -147 -102 -30 -193 -57 -202 -60 -17 -5
-18 13 -18 280 l0 286 330 0 330 0 0 -132z"/>
<path d="M1564 1195 c0 -126 2 -177 3 -112 2 65 2 168 0 230 -1 62 -3 9 -3
-118z"/>
<path d="M242 763 l2 -128 3 122 4 123 307 3 307 2 -312 3 -313 2 2 -127z"/>
</g>
</svg>
