<?xml version="1.0" standalone="no"?>
<!DOCTYPE svg PUBLIC "-//W3C//DTD SVG 20010904//EN"
 "http://www.w3.org/TR/2001/REC-SVG-20010904/DTD/svg10.dtd">
<svg version="1.0" xmlns="http://www.w3.org/2000/svg"
 width="64.000000pt" height="64.000000pt" viewBox="0 0 64.000000 64.000000"
 preserveAspectRatio="xMidYMid meet">
<metadata>
Created by potrace 1.16, written by Peter Selinger 2001-2019
</metadata>
<g transform="translate(0.000000,64.000000) scale(0.100000,-0.100000)"
fill="#000000" stroke="none">
<path d="M40 320 l0 -320 22 0 c17 0 19 3 10 12 -7 7 -12 41 -12 85 0 80 10
93 69 93 43 0 60 -9 76 -41 23 -44 19 -96 -10 -125 l-25 -25 27 3 c22 2 30 11
39 36 l11 34 9 -34 c5 -18 17 -34 26 -36 14 -3 12 7 -8 65 -13 37 -29 76 -34
85 -17 30 -11 38 30 38 28 0 40 -4 40 -14 0 -8 -5 -16 -10 -18 -7 -2 -4 -23 8
-56 l18 -53 17 53 c10 32 13 54 7 56 -6 2 -10 10 -10 18 0 10 12 14 40 14 28
0 40 -4 40 -14 0 -8 -5 -16 -11 -18 -6 -2 -24 -38 -39 -81 -22 -58 -25 -77
-15 -77 11 0 28 36 60 128 2 6 9 12 15 12 13 0 13 -87 0 -95 -11 -7 -14 -45
-4 -45 4 0 13 8 20 17 16 21 19 143 4 143 -5 0 -10 7 -10 15 0 13 11 15 63 13
l62 -3 3 -92 c1 -51 7 -93 12 -93 6 0 10 122 10 320 0 207 -4 320 -10 320 -6
0 -10 -73 -10 -200 l0 -200 -70 0 -70 0 0 163 0 162 68 35 c47 24 61 36 48 38
-25 5 -136 -48 -136 -65 0 -7 -10 -13 -23 -13 -21 0 -119 -35 -165 -60 -9 -4
-48 -17 -87 -28 l-70 -19 -3 93 c-1 52 -7 94 -12 94 -6 0 -10 -121 -10 -320z
m350 70 l0 -150 -75 0 -76 0 3 122 3 122 65 27 c36 15 68 28 73 28 4 1 7 -66
7 -149z m-190 -35 l0 -115 -70 0 -70 0 0 93 0 93 68 21 c37 11 68 21 70 22 1
0 2 -51 2 -114z m360 -141 c-30 -8 -500 -9 -500 -1 0 4 116 6 258 6 141 -1
250 -3 242 -5z"/>
<path d="M90 141 c-14 -27 -13 -84 2 -99 31 -31 88 3 88 53 0 54 -67 88 -90
46z m57 -65 c-27 -40 -59 -6 -38 41 l13 28 19 -24 c17 -21 18 -26 6 -45z"/>
<path d="M500 135 c0 -26 18 -33 37 -14 16 16 5 39 -18 39 -14 0 -19 -7 -19
-25z"/>
<path d="M500 54 c0 -21 4 -25 23 -22 14 2 23 11 25 26 3 18 -1 22 -22 22 -21
0 -26 -5 -26 -26z"/>
</g>
</svg>
