<?xml version="1.0" standalone="no"?>
<!DOCTYPE svg PUBLIC "-//W3C//DTD SVG 20010904//EN"
 "http://www.w3.org/TR/2001/REC-SVG-20010904/DTD/svg10.dtd">
<svg version="1.0" xmlns="http://www.w3.org/2000/svg"
 width="100.000000pt" height="100.000000pt" viewBox="0 0 100.000000 100.000000"
 preserveAspectRatio="xMidYMid meet">
<metadata>
Created by potrace 1.16, written by Peter Selinger 2001-2019
</metadata>
<g transform="translate(0.000000,100.000000) scale(0.100000,-0.100000)"
fill="#000000" stroke="none">
<path d="M95 700 c-3 -5 -19 -10 -36 -10 -38 0 -38 -15 1 -16 17 -1 30 3 30 9
0 5 13 7 31 3 27 -5 30 -4 19 9 -14 17 -36 20 -45 5z"/>
<path d="M362 697 c-8 -10 -2 -12 28 -12 30 0 36 2 28 12 -6 7 -18 13 -28 13
-10 0 -22 -6 -28 -13z"/>
<path d="M565 700 c-3 -5 -19 -10 -36 -10 -16 0 -29 -4 -29 -8 0 -5 14 -9 30
-9 17 0 30 5 30 10 0 5 12 6 27 2 23 -5 25 -4 14 9 -15 18 -27 20 -36 6z"/>
<path d="M650 695 c-12 -14 -10 -15 13 -10 17 5 27 3 27 -4 0 -6 7 -11 15 -11
21 0 19 16 -2 24 -10 3 -23 8 -29 11 -6 3 -17 -2 -24 -10z"/>
<path d="M745 702 c-11 -11 -4 -21 10 -16 8 4 22 0 31 -7 13 -10 17 -10 24 0
5 9 16 11 31 6 20 -6 22 -5 11 6 -13 14 -96 22 -107 11z"/>
<path d="M929 694 c-11 -13 -9 -14 14 -9 21 6 27 4 27 -9 0 -11 -9 -16 -30
-16 -38 0 -39 -17 -2 -23 15 -2 -21 -5 -80 -6 -65 0 -108 -5 -108 -11 0 -5
-16 -10 -36 -10 -24 0 -34 4 -31 13 2 6 11 11 21 9 9 -2 16 1 16 6 0 5 34 8
75 7 41 -1 75 2 75 6 0 5 -47 9 -105 9 l-105 0 0 -35 0 -35 155 0 155 0 0 33
c0 18 5 38 12 45 8 8 8 15 -2 27 -16 19 -34 19 -51 -1z"/>
<path d="M190 682 c0 -5 10 -8 22 -8 13 1 23 -4 23 -11 0 -6 3 -15 8 -19 4 -4
7 5 7 19 0 23 -4 27 -30 27 -16 0 -30 -4 -30 -8z"/>
<path d="M1 644 c0 -11 3 -14 6 -6 3 7 2 16 -1 19 -3 4 -6 -2 -5 -13z"/>
<path d="M30 625 l0 -35 220 0 c213 0 220 1 220 20 0 19 -7 20 -119 20 -86 0
-121 -3 -124 -12 -4 -10 -7 -10 -18 0 -9 9 -10 12 -1 12 7 0 12 7 12 15 0 8
-7 15 -15 15 -10 0 -15 -10 -15 -30 0 -21 -5 -30 -16 -30 -10 0 -14 6 -10 15
3 9 0 15 -10 15 -8 0 -13 -4 -9 -9 3 -5 1 -12 -5 -16 -6 -4 -10 6 -10 24 0 30
-1 31 -50 31 l-50 0 0 -35z m68 9 c31 -9 27 -24 -7 -24 -16 0 -31 6 -35 15 -6
16 5 18 42 9z m177 -24 c-3 -5 -10 -10 -16 -10 -5 0 -9 5 -9 10 0 6 7 10 16
10 8 0 12 -4 9 -10z"/>
<path d="M280 650 c0 -5 7 -10 15 -10 8 0 15 5 15 10 0 6 -7 10 -15 10 -8 0
-15 -4 -15 -10z"/>
<path d="M340 651 c0 -4 23 -8 50 -8 28 0 50 4 50 8 0 5 -22 9 -50 9 -27 0
-50 -4 -50 -9z"/>
<path d="M465 650 c4 -6 11 -8 16 -5 14 9 11 15 -7 15 -8 0 -12 -5 -9 -10z"/>
<path d="M500 617 l0 -43 -65 4 c-87 6 -232 -9 -190 -19 26 -6 24 -7 -17 -8
-38 -1 -46 2 -42 14 9 21 -88 21 -110 0 -8 -8 -22 -15 -32 -15 -16 0 -43 -26
-44 -42 0 -5 13 -8 29 -8 16 0 31 -5 33 -12 6 -17 188 -25 188 -8 0 7 -7 10
-15 6 -8 -3 -15 -1 -15 4 0 6 15 10 34 10 29 0 33 -3 29 -20 -4 -14 0 -20 11
-20 9 0 16 8 16 20 0 11 7 20 15 20 8 0 15 -9 15 -19 0 -13 11 -22 38 -29 30
-9 16 -10 -79 -9 -90 2 -115 -1 -112 -11 3 -7 16 -10 31 -7 16 3 30 -2 38 -13
12 -14 15 -15 23 -3 6 9 31 16 65 18 30 2 67 8 81 13 15 6 53 10 85 10 l58 0
-5 40 c-5 33 -3 40 11 40 12 0 16 -10 16 -45 0 -33 4 -45 15 -45 22 0 21 86
-1 94 -9 3 -71 6 -139 6 -100 0 -124 -3 -129 -15 -8 -23 -26 -18 -26 7 0 12
-3 18 -7 14 -5 -4 -8 -13 -8 -19 0 -7 -20 -15 -45 -19 -61 -11 -184 -9 -188 2
-2 5 -10 6 -18 3 -8 -3 -14 0 -14 6 0 6 14 11 30 11 20 0 30 5 30 15 0 10 11
15 35 15 47 0 50 -30 3 -31 l-33 -1 30 -10 c21 -8 30 -8 33 1 2 6 27 11 63 11
46 0 59 3 59 15 0 13 31 15 220 15 189 0 220 -2 220 -15 0 -12 13 -15 60 -15
35 0 60 -4 60 -10 0 -7 6 -7 19 0 26 14 111 13 111 -1 0 -6 -7 -9 -15 -5 -8 3
-15 1 -15 -4 0 -6 -22 -10 -49 -10 -30 0 -51 -5 -54 -12 -4 -10 -6 -10 -6 0
-1 8 -9 10 -26 6 -15 -4 -25 -2 -25 4 0 6 -17 12 -37 14 -21 2 -38 8 -38 15 0
6 -3 15 -7 19 -5 4 -8 -2 -8 -14 0 -26 -30 -30 -30 -4 -1 15 -2 15 -15 -2 -8
-11 -12 -22 -7 -25 4 -3 7 -13 7 -21 0 -19 38 -25 62 -10 15 9 12 10 -14 5
-26 -5 -33 -3 -33 9 0 12 11 16 45 16 35 0 45 -4 45 -16 0 -14 12 -16 92 -12
58 3 93 9 96 16 2 7 17 12 33 12 48 0 30 33 -28 50 -28 8 -28 8 -3 10 16 2 9
5 -20 11 -25 4 -74 5 -110 1 -62 -6 -63 -7 -25 -13 l40 -6 -42 -2 c-25 0 -47
5 -57 14 -11 12 -34 14 -103 11 -107 -5 -124 3 -108 55 5 15 11 16 31 9 35
-14 44 -12 44 5 0 11 -12 15 -45 15 l-45 0 0 -43z m410 -68 c0 -6 -9 -8 -20
-4 -11 4 -20 2 -20 -4 0 -6 -7 -11 -15 -11 -8 0 -15 7 -15 15 0 10 11 15 35
15 19 0 35 -5 35 -11z m-436 -41 c9 -36 8 -38 -26 -37 -18 0 -27 3 -20 6 6 2
12 13 12 24 0 17 -5 19 -35 13 -23 -4 -35 -2 -35 5 0 7 20 11 49 11 42 0 49
-3 55 -22z m56 12 c0 -5 -7 -10 -15 -10 -8 0 -15 5 -15 10 0 6 7 10 15 10 8 0
15 -4 15 -10z m-120 -35 c0 -8 -9 -15 -20 -15 -11 0 -20 7 -20 15 0 8 9 15 20
15 11 0 20 -7 20 -15z m120 0 c0 -8 -7 -15 -15 -15 -8 0 -15 7 -15 15 0 8 7
15 15 15 8 0 15 -7 15 -15z"/>
<path d="M608 653 c6 -2 18 -2 25 0 6 3 1 5 -13 5 -14 0 -19 -2 -12 -5z"/>
<path d="M530 610 c0 -17 7 -20 45 -20 38 0 45 3 45 20 0 11 -7 20 -15 20 -8
0 -15 -4 -15 -10 0 -5 -7 -10 -15 -10 -8 0 -15 5 -15 10 0 6 -7 10 -15 10 -8
0 -15 -9 -15 -20z"/>
<path d="M977 583 c-12 -11 -8 -23 8 -23 8 0 15 7 15 15 0 16 -12 20 -23 8z"/>
<path d="M956 472 c-5 -8 -4 -18 3 -25 17 -17 14 -67 -4 -67 -8 0 -15 -9 -15
-20 0 -18 -7 -20 -80 -20 -73 0 -80 2 -80 20 0 18 -7 20 -60 20 -47 0 -60 3
-60 15 0 13 -26 15 -175 15 -149 0 -175 -2 -175 -15 0 -11 -12 -15 -45 -15
-38 0 -45 -3 -45 -20 0 -17 -7 -20 -45 -20 -38 0 -45 3 -45 20 0 13 -7 20 -20
20 -13 0 -20 -7 -20 -20 0 -11 -7 -20 -15 -20 -18 0 -20 26 -2 33 6 3 0 6 -15
6 -24 1 -28 5 -28 30 0 17 5 33 10 36 13 8 13 25 0 25 -5 0 -10 -7 -10 -15 0
-8 -7 -15 -16 -15 -11 0 -14 -5 -10 -16 3 -9 6 -27 6 -40 0 -13 5 -24 11 -24
6 0 19 -10 29 -22 16 -20 22 -21 39 -11 13 8 22 9 26 3 3 -6 33 -10 66 -10 52
0 59 2 59 20 0 17 7 20 45 20 33 0 45 4 45 15 0 8 4 15 9 15 5 0 14 -7 21 -15
7 -8 27 -15 45 -15 18 0 38 7 45 15 16 20 84 20 100 0 15 -18 61 -20 78 -3 9
9 15 9 24 0 7 -7 34 -12 60 -12 41 0 48 -3 48 -20 0 -17 7 -20 44 -20 26 0 48
-6 56 -15 7 -8 20 -15 30 -15 10 0 23 7 30 15 7 8 19 15 26 15 8 0 14 9 14 20
0 11 7 20 15 20 9 0 15 9 15 24 0 13 3 31 6 40 4 10 1 16 -9 16 -9 0 -17 10
-19 23 -2 16 -5 19 -12 9z m-516 -82 c0 -5 -16 -10 -35 -10 -19 0 -35 5 -35
10 0 6 16 10 35 10 19 0 35 -4 35 -10z m180 0 c0 -5 -13 -10 -30 -10 -16 0
-30 5 -30 10 0 6 14 10 30 10 17 0 30 -4 30 -10z m290 -72 c0 -4 -9 -8 -20 -8
-11 0 -20 4 -20 8 0 4 9 8 20 8 11 0 20 -4 20 -8z"/>
<path d="M60 440 c0 -27 3 -30 30 -30 20 0 39 -9 54 -25 23 -24 46 -33 46 -17
0 4 12 15 28 24 l27 17 -27 1 c-18 0 -28 -5 -28 -15 0 -8 -7 -15 -15 -15 -8 0
-15 7 -15 15 0 8 -7 15 -15 15 -9 0 -15 9 -15 22 0 20 -1 21 -20 3 -20 -18
-20 -17 -20 8 0 17 -5 27 -15 27 -10 0 -15 -10 -15 -30z"/>
<path d="M910 450 c0 -23 -10 -26 -28 -8 -9 9 -12 7 -12 -10 0 -19 6 -22 38
-22 37 0 38 1 34 30 -5 33 -32 42 -32 10z"/>
<path d="M145 451 c-3 -5 -1 -12 5 -16 5 -3 10 1 10 9 0 18 -6 21 -15 7z"/>
<path d="M810 451 c-23 -4 -31 -9 -22 -14 20 -13 14 -27 -13 -27 -16 0 -25 6
-25 15 0 12 -13 15 -62 14 -55 0 -59 -2 -35 -11 15 -5 25 -14 22 -18 -3 -5 -1
-11 5 -15 5 -3 10 3 10 14 0 24 18 28 26 6 4 -8 18 -15 33 -15 15 0 37 -9 49
-20 23 -22 42 -26 42 -10 0 6 -7 10 -15 10 -8 0 -15 5 -15 10 0 21 27 9 40
-17 l14 -28 4 29 c2 16 -2 32 -9 36 -6 5 -9 15 -6 24 8 20 0 23 -43 17z m30
-26 c0 -8 -7 -15 -15 -15 -8 0 -15 7 -15 15 0 8 7 15 15 15 8 0 15 -7 15 -15z"/>
<path d="M538 433 c6 -2 18 -2 25 0 6 3 1 5 -13 5 -14 0 -19 -2 -12 -5z"/>
<path d="M895 390 c-17 -7 -17 -9 -2 -9 9 -1 17 -9 18 -18 0 -15 2 -15 9 2 16
37 12 41 -25 25z"/>
</g>
</svg>
