<?xml version="1.0" standalone="no"?>
<!DOCTYPE svg PUBLIC "-//W3C//DTD SVG 20010904//EN"
 "http://www.w3.org/TR/2001/REC-SVG-20010904/DTD/svg10.dtd">
<svg version="1.0" xmlns="http://www.w3.org/2000/svg"
 width="192.000000pt" height="192.000000pt" viewBox="0 0 192.000000 192.000000"
 preserveAspectRatio="xMidYMid meet">
<metadata>
Created by potrace 1.16, written by Peter Selinger 2001-2019
</metadata>
<g transform="translate(0.000000,192.000000) scale(0.100000,-0.100000)"
fill="#000000" stroke="none">
<path d="M716 1684 c-9 -8 -16 -22 -16 -30 0 -10 -15 -14 -57 -15 -54 0 -124
-17 -80 -18 25 -1 23 -41 -2 -41 -11 0 -22 8 -24 18 -4 15 -5 15 -6 0 -1 -11
-12 -18 -33 -20 -28 -2 -34 -8 -36 -30 -3 -24 -8 -28 -33 -28 -26 0 -29 -3
-29 -30 0 -27 -3 -30 -30 -30 -27 0 -30 -3 -30 -30 0 -27 -3 -30 -30 -30 -27
0 -30 -3 -30 -30 0 -19 -5 -30 -14 -30 -29 0 -46 -30 -46 -80 0 -38 -4 -50
-18 -53 -16 -4 -16 -5 1 -6 24 -1 22 -37 -3 -44 -15 -4 -20 0 -21 16 0 21 -1
21 -9 2 -11 -26 -11 -404 0 -430 8 -19 9 -19 9 2 1 16 6 20 21 16 25 -7 26
-40 2 -46 -16 -4 -16 -5 1 -6 14 -1 17 -10 17 -50 0 -51 17 -81 46 -81 9 0 14
-11 14 -30 0 -27 3 -30 30 -30 27 0 30 -3 30 -30 0 -27 3 -30 30 -30 27 0 30
-3 30 -30 0 -27 3 -30 29 -30 25 0 30 -4 33 -28 3 -25 6 -27 60 -30 53 -3 57
-5 60 -30 3 -26 6 -27 65 -30 48 -2 63 -7 66 -20 4 -16 5 -16 6 1 1 24 37 22
44 -3 4 -15 0 -20 -16 -21 -21 0 -21 -1 -2 -9 26 -11 404 -11 430 0 12 5 -62
9 -187 9 -201 1 -208 2 -208 21 0 23 34 28 44 8 5 -10 7 -10 12 0 3 6 14 12
24 12 10 0 21 -6 24 -12 5 -10 7 -10 12 0 8 16 120 16 128 0 5 -10 7 -10 12 0
9 19 44 15 44 -5 1 -17 1 -17 14 -1 17 23 46 23 46 1 1 -17 1 -17 14 -1 7 10
20 18 29 18 8 0 18 -8 20 -18 4 -15 5 -15 6 0 1 14 13 18 64 20 59 3 62 4 65
30 3 26 7 28 47 28 44 0 75 19 75 45 0 8 12 15 28 17 21 2 28 9 30 31 3 23 8
27 33 27 25 0 29 4 29 29 0 25 4 30 28 33 22 2 28 8 30 35 2 20 10 33 20 36
15 4 15 5 0 6 -26 2 -24 41 2 41 12 0 20 -7 21 -17 1 -44 18 26 18 80 1 48 4
57 19 57 39 0 42 17 41 209 0 103 -4 195 -9 206 -8 19 -9 19 -9 -2 -1 -16 -6
-20 -21 -16 -25 7 -26 40 -2 46 16 4 16 5 0 6 -15 1 -18 11 -18 54 0 55 -12
77 -42 77 -13 0 -18 8 -18 30 0 27 -3 30 -30 30 -27 0 -30 3 -30 30 0 27 -3
30 -30 30 -27 0 -30 3 -30 30 0 27 -3 30 -30 30 -27 0 -30 3 -30 30 0 27 -3
30 -34 30 -24 0 -36 5 -39 18 -4 16 -5 16 -6 0 -2 -26 -41 -24 -41 2 0 12 7
20 18 21 43 1 -27 18 -80 18 -43 1 -58 5 -58 15 0 8 -7 22 -16 30 -13 14 -50
16 -244 16 -194 0 -231 -2 -244 -16z m484 -24 c0 -25 -28 -26 -46 -2 -13 16
-13 16 -14 0 0 -21 -35 -25 -44 -5 -5 10 -7 10 -12 0 -4 -9 -39 -13 -124 -13
-85 0 -120 4 -124 13 -5 10 -7 10 -12 0 -9 -20 -44 -16 -44 5 -1 16 -1 16 -14
0 -18 -24 -46 -23 -46 2 0 19 7 20 240 20 233 0 240 -1 240 -20z m120 -60 c0
-25 -28 -26 -46 -2 -12 16 -13 15 -14 -5 0 -16 -5 -20 -20 -16 -11 3 -20 9
-20 14 0 5 -4 9 -10 9 -5 0 -10 -7 -10 -15 0 -8 -4 -15 -9 -15 -5 0 -16 7 -25
15 -20 20 -26 19 -26 -5 0 -19 7 -20 120 -20 l120 0 0 -25 c0 -28 -12 -32 -34
-10 -20 20 -26 19 -26 -5 0 -19 7 -20 90 -20 88 0 90 0 90 -24 0 -19 -4 -23
-20 -19 -11 3 -20 12 -20 19 0 8 -4 14 -10 14 -5 0 -10 -11 -10 -25 0 -21 5
-25 30 -25 27 0 30 -3 30 -30 0 -25 4 -30 25 -30 14 0 25 5 25 10 0 6 -6 10
-14 10 -7 0 -16 9 -19 20 -4 16 0 20 19 20 23 0 24 -3 24 -60 l0 -60 30 0 30
0 0 -90 c0 -83 1 -90 20 -90 24 0 25 6 5 26 -21 22 -19 34 8 34 20 1 21 2 5
14 -24 18 -23 46 2 46 20 0 20 -7 20 -300 0 -293 0 -300 -20 -300 -25 0 -26
28 -2 46 16 12 15 13 -5 14 -16 0 -20 5 -16 20 3 11 9 20 14 20 5 0 9 5 9 10
0 6 -7 10 -15 10 -8 0 -15 4 -15 9 0 5 7 16 15 25 20 20 19 26 -5 26 -19 0
-20 -7 -20 -120 l0 -120 -25 0 c-31 0 -32 13 -3 40 l22 20 -27 0 c-26 0 -27
-2 -27 -60 l0 -60 -30 0 c-27 0 -30 -3 -30 -30 0 -27 -3 -30 -30 -30 -27 0
-30 -3 -30 -30 l0 -30 -60 0 c-59 0 -60 -1 -60 -27 1 -24 2 -26 13 -12 7 8 20
18 30 22 13 5 17 1 17 -18 l0 -25 -150 0 c-143 0 -150 -1 -150 -20 0 -24 6
-25 26 -5 20 19 34 19 34 0 0 -8 5 -15 10 -15 6 0 10 4 10 9 0 5 9 11 20 14
15 4 20 0 20 -16 1 -20 2 -21 14 -5 18 24 46 23 46 -2 0 -20 -7 -20 -300 -20
l-300 0 0 24 c0 19 4 23 20 19 11 -3 20 -9 20 -14 0 -5 5 -9 10 -9 6 0 10 6
10 14 0 9 7 12 20 9 11 -3 20 -9 20 -14 0 -5 5 -9 10 -9 6 0 10 7 10 15 0 19
14 19 34 0 19 -19 26 -19 26 1 0 11 6 14 23 8 12 -4 25 -12 29 -18 5 -6 8 -2
8 12 l0 22 -180 0 -180 0 0 25 c0 19 4 23 18 18 9 -4 22 -14 29 -22 11 -14 12
-12 13 12 0 26 -1 27 -60 27 l-60 0 0 30 c0 27 -3 30 -30 30 -27 0 -30 3 -30
30 0 27 -3 30 -30 30 -27 0 -30 3 -30 30 0 27 -3 30 -30 30 l-30 0 0 90 c0 83
-1 90 -20 90 -24 0 -25 -6 -5 -26 21 -22 19 -34 -7 -34 -20 -1 -21 -2 -7 -13
8 -7 18 -20 22 -29 5 -14 1 -18 -18 -18 l-25 0 0 300 0 300 25 0 c19 0 23 -4
18 -17 -4 -10 -14 -23 -22 -30 -14 -11 -13 -12 7 -13 26 0 28 -12 7 -34 -20
-20 -19 -26 5 -26 19 0 20 7 20 90 l0 90 30 0 c27 0 30 3 30 30 0 27 3 30 30
30 27 0 30 3 30 30 0 27 3 30 30 30 27 0 30 3 30 30 l0 30 60 0 c53 0 60 2 60
20 0 24 -6 25 -26 5 -22 -22 -34 -18 -34 10 l0 25 120 0 c113 0 120 1 120 20
0 24 -6 25 -26 5 -9 -8 -20 -15 -25 -15 -5 0 -9 7 -9 15 0 8 -4 15 -10 15 -5
0 -10 -4 -10 -9 0 -5 -9 -11 -20 -14 -15 -4 -20 0 -20 16 -1 20 -2 21 -14 5
-18 -24 -46 -23 -46 2 0 20 7 20 360 20 353 0 360 0 360 -20z m-797 -60 c-3
-11 -14 -20 -24 -20 -12 0 -19 7 -19 20 0 14 7 20 24 20 19 0 23 -4 19 -20z
m917 0 c0 -13 -7 -20 -19 -20 -10 0 -21 9 -24 20 -4 16 0 20 19 20 17 0 24 -6
24 -20z m-977 -59 c-3 -11 -13 -21 -24 -24 -15 -4 -19 0 -19 19 0 19 5 24 24
24 19 0 23 -4 19 -19z m-60 -60 c-3 -11 -13 -21 -24 -24 -15 -4 -19 0 -19 19
0 19 5 24 24 24 19 0 23 -4 19 -19z m-60 -60 c-3 -11 -13 -21 -24 -24 -15 -4
-19 0 -19 19 0 19 5 24 24 24 19 0 23 -4 19 -19z m1277 -5 c0 -19 -4 -23 -19
-19 -11 3 -21 13 -24 24 -4 15 0 19 19 19 19 0 24 -5 24 -24z m-1340 -56 c0
-13 -7 -20 -20 -20 -13 0 -20 7 -20 20 0 13 7 20 20 20 13 0 20 -7 20 -20z
m1400 -4 c0 -19 -4 -23 -20 -19 -11 3 -20 14 -20 24 0 12 7 19 20 19 14 0 20
-7 20 -24z m-1460 -175 c0 -11 -6 -22 -12 -25 -10 -5 -10 -7 0 -12 6 -3 12
-17 12 -30 0 -13 -6 -24 -12 -25 -10 0 -10 -2 0 -6 8 -3 12 -26 12 -64 0 -40
-4 -59 -12 -60 -10 0 -10 -2 0 -6 19 -8 15 -53 -5 -53 -17 -1 -17 -1 0 -14 23
-18 22 -46 -3 -46 -19 0 -20 7 -20 180 0 173 1 180 20 180 13 0 20 -7 20 -19z
m1520 -161 c0 -173 -1 -180 -20 -180 -25 0 -26 28 -2 46 16 13 16 13 0 14 -21
0 -25 35 -5 44 10 5 10 7 0 12 -7 3 -13 17 -13 30 0 13 6 24 13 25 10 0 10 2
0 6 -7 2 -13 17 -13 33 0 16 6 31 13 34 10 5 10 7 0 12 -20 9 -16 44 5 44 16
1 16 1 0 14 -24 18 -23 46 2 46 19 0 20 -7 20 -180z m-1460 -340 c0 -13 -7
-20 -20 -20 -13 0 -20 7 -20 20 0 13 7 20 20 20 13 0 20 -7 20 -20z m60 -61
c0 -12 -7 -19 -20 -19 -14 0 -20 7 -20 24 0 19 4 23 20 19 11 -3 20 -14 20
-24z m1280 6 c0 -18 -5 -25 -20 -25 -25 0 -27 37 -2 43 9 3 18 5 20 6 1 0 2
-10 2 -24z m-1217 -66 c4 -15 0 -19 -19 -19 -19 0 -24 5 -24 24 0 19 4 23 19
19 11 -3 21 -13 24 -24z m1157 6 c0 -20 -5 -25 -24 -25 -19 0 -23 4 -19 19 3
11 12 22 22 24 9 3 17 5 19 6 1 0 2 -10 2 -24z m-1097 -66 c4 -15 0 -19 -19
-19 -19 0 -24 5 -24 24 0 19 4 23 19 19 11 -3 21 -13 24 -24z m1037 1 c0 -14
-7 -20 -24 -20 -19 0 -23 4 -19 20 3 11 14 20 24 20 12 0 19 -7 19 -20z m-977
-60 c4 -16 0 -20 -19 -20 -17 0 -24 6 -24 20 0 13 7 20 19 20 10 0 21 -9 24
-20z m917 0 c0 -13 -7 -20 -20 -20 -13 0 -20 7 -20 20 0 13 7 20 20 20 13 0
20 -7 20 -20z m-797 -60 c4 -16 0 -20 -19 -20 -17 0 -24 6 -24 20 0 13 7 20
19 20 10 0 21 -9 24 -20z m677 0 c0 -14 -7 -20 -24 -20 -19 0 -23 4 -19 20 3
11 14 20 24 20 12 0 19 -7 19 -20z"/>
<path d="M806 1579 c-19 -19 -19 -19 7 -19 20 0 27 5 27 20 0 25 -9 25 -34 -1z"/>
<path d="M1080 1580 c0 -15 7 -20 27 -20 l27 0 -22 20 c-12 11 -24 20 -27 20
-3 0 -5 -9 -5 -20z"/>
<path d="M908 1563 c28 -2 76 -2 105 0 28 2 5 3 -53 3 -58 0 -81 -1 -52 -3z"/>
<path d="M633 1525 c-18 -20 -16 -25 7 -25 13 0 20 7 20 20 0 23 -10 25 -27 5z"/>
<path d="M1260 1520 c0 -13 7 -20 20 -20 24 0 25 6 6 26 -20 19 -26 18 -26 -6z"/>
<path d="M513 1465 c-18 -20 -16 -25 7 -25 13 0 20 7 20 20 0 23 -10 25 -27 5z"/>
<path d="M1380 1460 c0 -13 7 -20 20 -20 24 0 25 6 6 26 -20 19 -26 18 -26 -6z"/>
<path d="M780 1420 c0 -24 6 -25 26 -5 9 8 20 15 25 15 5 0 9 -7 9 -15 0 -8 5
-15 10 -15 6 0 10 5 10 10 0 14 37 12 44 -2 5 -10 7 -10 12 0 3 6 23 12 44 12
21 0 41 -6 44 -12 5 -10 7 -10 12 0 7 14 44 16 44 2 0 -5 5 -10 10 -10 6 0 10
9 10 20 0 19 -7 20 -150 20 -143 0 -150 -1 -150 -20z"/>
<path d="M1108 1420 c12 -11 24 -20 27 -20 3 0 5 9 5 20 0 15 -7 20 -27 20
l-27 0 22 -20z"/>
<path d="M453 1405 c-18 -20 -16 -25 7 -25 13 0 20 7 20 20 0 23 -10 25 -27 5z"/>
<path d="M1440 1400 c0 -13 7 -20 20 -20 24 0 25 6 6 26 -20 19 -26 18 -26 -6z"/>
<path d="M660 1360 c0 -11 2 -20 5 -20 3 0 15 9 27 20 l22 20 -27 0 c-20 0
-27 -5 -27 -20z"/>
<path d="M720 1353 c1 -24 2 -26 13 -12 21 26 47 31 47 9 0 -11 5 -20 10 -20
6 0 10 7 10 15 0 8 9 15 20 15 13 0 20 -7 20 -20 0 -19 -7 -20 -90 -20 l-90 0
0 -30 c0 -27 -3 -30 -30 -30 -27 0 -30 -3 -30 -30 0 -27 -3 -30 -30 -30 l-30
0 0 -240 0 -240 30 0 c27 0 30 -3 30 -30 0 -27 3 -30 30 -30 27 0 30 -3 30
-30 l0 -30 300 0 300 0 0 30 c0 27 3 30 30 30 27 0 30 3 30 30 0 27 3 30 30
30 l30 0 0 240 0 240 -30 0 c-27 0 -30 3 -30 30 0 27 -3 30 -30 30 -27 0 -30
3 -30 30 l0 30 -60 0 c-57 0 -60 1 -60 25 0 19 4 23 18 18 9 -4 22 -14 29 -22
11 -14 12 -12 13 12 l0 27 -240 0 -240 0 0 -27z m181 -10 c1 -17 2 -17 6 0 2
9 13 17 24 17 11 0 19 -7 20 -17 1 -17 2 -17 6 0 5 20 53 24 54 5 0 -10 2 -10
6 0 7 18 34 15 49 -5 13 -17 13 -17 14 0 0 24 36 22 43 -3 5 -19 0 -20 -76
-21 -107 -1 -64 -17 51 -18 l82 -1 0 -30 c0 -27 3 -30 29 -30 25 0 30 -4 33
-27 2 -22 9 -29 31 -31 22 -3 27 -9 28 -30 1 -33 17 -77 18 -49 1 10 9 17 21
17 26 0 28 -39 3 -41 -17 -1 -17 -2 0 -6 15 -4 17 -19 17 -139 l0 -134 -30 0
c-27 0 -30 -3 -30 -29 0 -25 -4 -30 -27 -33 -22 -2 -29 -9 -31 -30 -3 -24 -8
-28 -33 -28 -26 0 -29 -3 -29 -30 l0 -30 -219 0 -220 0 -3 28 c-2 21 -9 28
-30 30 -19 2 -28 9 -28 21 0 22 -19 41 -41 41 -12 0 -19 9 -21 28 -2 21 -9 28
-30 30 l-28 3 0 159 0 159 28 3 c21 2 28 9 30 31 2 18 9 27 21 27 22 0 41 19
41 41 0 12 9 19 28 21 21 2 28 9 30 31 3 26 6 27 60 28 57 0 123 17 75 18 -16
1 -20 6 -16 21 7 25 43 27 44 3z m-181 -63 c0 -13 -7 -20 -20 -20 -13 0 -20 7
-20 20 0 13 7 20 20 20 13 0 20 -7 20 -20z m523 0 c4 -16 0 -20 -19 -20 -17 0
-24 6 -24 20 0 13 7 20 19 20 10 0 21 -9 24 -20z m-583 -60 c0 -13 -7 -20 -20
-20 -13 0 -20 7 -20 20 0 13 7 20 20 20 13 0 20 -7 20 -20z m640 0 c0 -13 -7
-20 -20 -20 -13 0 -20 7 -20 20 0 13 7 20 20 20 13 0 20 -7 20 -20z m-700 -55
c0 -18 -5 -25 -20 -25 -25 0 -27 37 -2 43 9 3 18 5 20 6 1 0 2 -10 2 -24z
m760 -6 c0 -12 -7 -19 -20 -19 -14 0 -20 7 -20 24 0 19 4 23 20 19 11 -3 20
-14 20 -24z m-760 -403 c0 -19 -4 -23 -20 -19 -11 3 -20 14 -20 24 0 12 7 19
20 19 14 0 20 -7 20 -24z m760 5 c0 -10 -9 -21 -20 -24 -16 -4 -20 0 -20 19 0
17 6 24 20 24 13 0 20 -7 20 -19z m-700 -61 c0 -13 -7 -20 -20 -20 -13 0 -20
7 -20 20 0 13 7 20 20 20 13 0 20 -7 20 -20z m640 0 c0 -13 -7 -20 -20 -20
-13 0 -20 7 -20 20 0 13 7 20 20 20 13 0 20 -7 20 -20z m-580 -60 c0 -13 -7
-20 -19 -20 -10 0 -21 9 -24 20 -4 16 0 20 19 20 17 0 24 -6 24 -20z m523 0
c-3 -11 -14 -20 -24 -20 -12 0 -19 7 -19 20 0 14 7 20 24 20 19 0 23 -4 19
-20z"/>
<path d="M1220 1374 c0 -7 27 -34 34 -34 3 0 6 9 6 20 0 13 -7 20 -20 20 -11
0 -20 -3 -20 -6z"/>
<path d="M393 1345 c-18 -20 -16 -25 7 -25 13 0 20 7 20 20 0 23 -10 25 -27 5z"/>
<path d="M1500 1340 c0 -13 7 -20 20 -20 24 0 25 6 6 26 -20 19 -26 18 -26 -6z"/>
<path d="M600 1293 c1 -24 3 -26 13 -13 7 8 19 21 27 28 12 10 9 12 -13 12
-23 0 -27 -4 -27 -27z"/>
<path d="M1288 1300 c12 -11 24 -20 27 -20 3 0 5 9 5 20 0 15 -7 20 -27 20
l-27 0 22 -20z"/>
<path d="M337 1290 c-22 -26 -21 -30 3 -30 15 0 20 7 20 25 0 30 -1 30 -23 5z"/>
<path d="M1560 1287 c0 -20 5 -27 20 -27 11 0 20 2 20 5 0 3 -9 15 -20 27
l-20 22 0 -27z"/>
<path d="M540 1233 c1 -24 3 -26 13 -13 7 8 19 21 27 28 12 10 9 12 -13 12
-23 0 -27 -4 -27 -27z"/>
<path d="M1340 1255 c0 -3 9 -15 20 -27 l20 -22 0 27 c0 20 -5 27 -20 27 -11
0 -20 -2 -20 -5z"/>
<path d="M480 1173 l0 -27 20 22 c11 12 20 24 20 27 0 3 -9 5 -20 5 -15 0 -20
-7 -20 -27z"/>
<path d="M1400 1194 c0 -7 27 -34 34 -34 3 0 6 9 6 20 0 13 -7 20 -20 20 -11
0 -20 -3 -20 -6z"/>
<path d="M480 960 l0 -180 28 0 c23 1 25 2 11 13 -8 7 -18 20 -22 30 -5 13 -1
17 16 17 20 1 21 2 5 14 -21 15 -24 42 -5 50 10 5 10 7 0 12 -7 3 -13 23 -13
44 0 21 6 41 13 44 10 5 10 7 0 12 -19 8 -16 35 5 50 16 12 15 13 -5 14 -16 0
-20 5 -16 20 3 11 9 20 14 20 5 0 9 5 9 10 0 6 -9 10 -20 10 -19 0 -20 -7 -20
-180z"/>
<path d="M1400 1130 c0 -5 4 -10 9 -10 5 0 11 -9 14 -20 4 -15 0 -20 -16 -20
-20 -1 -21 -2 -4 -14 20 -15 23 -42 5 -50 -10 -5 -10 -7 0 -12 6 -3 12 -23 12
-44 0 -21 -6 -41 -12 -44 -10 -5 -10 -7 0 -12 18 -8 15 -35 -5 -50 -17 -12
-16 -13 4 -14 16 0 20 -5 16 -20 -3 -11 -9 -20 -14 -20 -5 0 -9 -4 -9 -10 0
-5 9 -10 20 -10 19 0 20 7 20 180 0 173 -1 180 -20 180 -11 0 -20 -4 -20 -10z"/>
<path d="M277 1110 c-22 -26 -21 -30 3 -30 15 0 20 7 20 25 0 30 -1 30 -23 5z"/>
<path d="M1620 1107 c0 -20 5 -27 20 -27 11 0 20 2 20 5 0 3 -9 15 -20 27
l-20 22 0 -27z"/>
<path d="M420 1058 c0 -17 3 -19 9 -9 5 7 15 17 22 22 10 6 8 9 -8 9 -17 0
-23 -6 -23 -22z"/>
<path d="M1620 1043 c0 -17 6 -23 23 -23 16 0 18 3 8 9 -7 5 -17 15 -22 22 -6
10 -9 8 -9 -8z"/>
<path d="M420 960 c0 -53 2 -60 20 -60 11 0 20 5 20 10 0 6 -4 10 -10 10 -5 0
-10 18 -10 40 0 22 5 40 10 40 6 0 10 5 10 10 0 6 -9 10 -20 10 -18 0 -20 -7
-20 -60z"/>
<path d="M1473 1009 c11 -7 17 -22 17 -49 0 -27 -6 -42 -17 -49 -16 -9 -16
-10 5 -11 20 0 22 4 22 60 0 56 -2 60 -22 60 -21 -1 -21 -2 -5 -11z"/>
<path d="M269 891 c7 -5 17 -15 22 -22 6 -10 9 -8 9 9 0 16 -6 22 -22 22 -17
0 -19 -3 -9 -9z"/>
<path d="M1620 873 l0 -27 20 22 c11 12 20 24 20 27 0 3 -9 5 -20 5 -15 0 -20
-7 -20 -27z"/>
<path d="M420 863 c0 -17 6 -23 23 -23 16 0 18 3 8 9 -7 5 -17 15 -22 22 -6
10 -9 8 -9 -8z"/>
<path d="M260 835 c0 -3 9 -15 20 -27 l20 -22 0 27 c0 20 -5 27 -20 27 -11 0
-20 -2 -20 -5z"/>
<path d="M480 740 c0 -13 7 -20 20 -20 24 0 25 6 6 26 -20 19 -26 18 -26 -6z"/>
<path d="M1413 745 c-18 -20 -16 -25 7 -25 13 0 20 7 20 20 0 23 -10 25 -27 5z"/>
<path d="M1560 700 c0 -24 6 -25 26 -6 19 20 18 26 -6 26 -13 0 -20 -7 -20
-20z"/>
<path d="M540 688 c0 -24 4 -28 27 -28 22 0 25 2 13 13 -8 6 -20 19 -27 27
-10 13 -12 11 -13 -12z"/>
<path d="M1357 690 c-22 -26 -21 -30 3 -30 15 0 20 7 20 25 0 30 -1 30 -23 5z"/>
<path d="M320 655 c0 -3 9 -15 20 -27 l20 -22 0 27 c0 20 -5 27 -20 27 -11 0
-20 -2 -20 -5z"/>
<path d="M600 628 c0 -24 4 -28 27 -28 22 0 25 2 13 13 -8 6 -20 19 -27 27
-10 13 -12 11 -13 -12z"/>
<path d="M1286 619 c-19 -19 -19 -19 7 -19 20 0 27 5 27 20 0 25 -9 25 -34 -1z"/>
<path d="M380 594 c0 -3 6 -12 14 -20 20 -19 26 -18 26 6 0 13 -7 20 -20 20
-11 0 -20 -3 -20 -6z"/>
<path d="M1500 580 c0 -24 6 -25 26 -6 19 20 18 26 -6 26 -13 0 -20 -7 -20
-20z"/>
<path d="M720 568 l0 -28 240 0 240 0 0 28 c-1 23 -2 25 -13 11 -7 -8 -20 -18
-29 -22 -14 -5 -18 -1 -18 16 -1 20 -2 21 -14 5 -7 -10 -21 -18 -30 -18 -9 0
-16 8 -16 18 -1 16 -1 16 -14 0 -15 -21 -42 -24 -50 -5 -5 10 -7 10 -12 0 -3
-7 -23 -13 -44 -13 -21 0 -41 6 -44 13 -5 10 -7 10 -12 0 -8 -19 -35 -16 -50
5 -13 16 -13 16 -14 0 0 -10 -7 -18 -16 -18 -9 0 -23 8 -30 18 -13 16 -13 16
-14 0 0 -10 -7 -18 -16 -18 -9 0 -23 8 -30 18 -12 15 -13 14 -14 -10z"/>
<path d="M660 560 c0 -13 7 -20 20 -20 24 0 25 6 6 26 -20 19 -26 18 -26 -6z"/>
<path d="M1233 565 c-18 -20 -16 -25 7 -25 13 0 20 7 20 20 0 23 -10 25 -27 5z"/>
<path d="M440 534 c0 -3 6 -12 14 -20 20 -19 26 -18 26 6 0 13 -7 20 -20 20
-11 0 -20 -3 -20 -6z"/>
<path d="M1440 520 c0 -24 6 -25 26 -6 19 20 18 26 -6 26 -13 0 -20 -7 -20
-20z"/>
<path d="M780 503 c0 -17 6 -23 23 -23 16 0 18 3 8 9 -7 5 -17 15 -22 22 -6
10 -9 8 -9 -8z"/>
<path d="M840 500 c0 -19 7 -20 120 -20 113 0 120 1 120 20 0 11 -4 20 -10 20
-5 0 -10 -4 -10 -9 0 -5 -9 -11 -20 -14 -13 -3 -20 0 -20 9 0 8 -4 14 -10 14
-5 0 -10 -4 -10 -10 0 -5 -18 -10 -40 -10 -22 0 -40 5 -40 10 0 6 -4 10 -10
10 -5 0 -10 -6 -10 -14 0 -9 -7 -12 -20 -9 -11 3 -20 9 -20 14 0 5 -4 9 -10 9
-5 0 -10 -9 -10 -20z"/>
<path d="M1118 499 c-17 -18 -17 -19 2 -19 13 0 20 7 20 20 0 24 0 24 -22 -1z"/>
<path d="M500 474 c0 -3 6 -12 14 -20 20 -19 26 -18 26 6 0 13 -7 20 -20 20
-11 0 -20 -3 -20 -6z"/>
<path d="M1380 460 c0 -11 2 -20 5 -20 3 0 15 9 27 20 l22 20 -27 0 c-20 0
-27 -5 -27 -20z"/>
<path d="M620 414 c0 -7 27 -34 34 -34 3 0 6 9 6 20 0 13 -7 20 -20 20 -11 0
-20 -3 -20 -6z"/>
<path d="M1260 400 c0 -11 2 -20 5 -20 3 0 15 9 27 20 l22 20 -27 0 c-20 0
-27 -5 -27 -20z"/>
<path d="M933 353 c15 -2 39 -2 55 0 15 2 2 4 -28 4 -30 0 -43 -2 -27 -4z"/>
<path d="M1021 338 c0 -13 3 -17 6 -10 2 6 11 12 18 12 8 0 17 5 20 10 4 6 -5
10 -19 10 -21 0 -26 -5 -25 -22z"/>
</g>
</svg>
