<?xml version="1.0" standalone="no"?>
<!DOCTYPE svg PUBLIC "-//W3C//DTD SVG 20010904//EN"
 "http://www.w3.org/TR/2001/REC-SVG-20010904/DTD/svg10.dtd">
<svg version="1.0" xmlns="http://www.w3.org/2000/svg"
 width="100.000000pt" height="100.000000pt" viewBox="0 0 100.000000 100.000000"
 preserveAspectRatio="xMidYMid meet">
<metadata>
Created by potrace 1.16, written by Peter Selinger 2001-2019
</metadata>
<g transform="translate(0.000000,100.000000) scale(0.100000,-0.100000)"
fill="#000000" stroke="none">
<path d="M540 980 c0 -18 -7 -20 -60 -20 l-60 0 0 -35 0 -35 -65 0 -65 0 0
-30 0 -30 -60 0 -60 0 0 -30 0 -30 -65 0 -65 0 0 -30 c0 -23 -4 -30 -20 -30
-11 0 -20 -4 -20 -10 0 -5 13 -10 30 -10 27 0 30 3 30 30 l0 30 65 0 65 0 0
30 0 30 60 0 60 0 0 30 0 30 65 0 65 0 0 35 0 35 60 0 60 0 0 30 c0 17 -4 30
-10 30 -5 0 -10 -9 -10 -20z"/>
<path d="M620 970 c0 -28 3 -30 35 -30 l35 0 0 -65 0 -65 -35 0 c-32 0 -35 2
-35 30 0 27 -3 30 -30 30 l-30 0 0 -60 0 -60 -30 0 c-27 0 -30 3 -30 30 0 27
-3 30 -30 30 -27 0 -30 -3 -30 -30 l0 -30 -65 0 -65 0 0 -30 0 -30 -60 0 -60
0 0 -30 c0 -27 -3 -30 -30 -30 l-30 0 0 -95 0 -95 -35 0 -35 0 0 60 0 60 -30
0 c-17 0 -30 -4 -30 -10 0 -5 9 -10 20 -10 18 0 20 -7 20 -60 l0 -60 35 0 35
0 0 -65 0 -65 30 0 30 0 0 -60 0 -60 30 0 c27 0 30 -3 30 -30 l0 -30 80 0 80
0 0 30 c0 28 3 30 35 30 32 0 35 2 35 30 0 17 5 30 10 30 6 0 10 -13 10 -30 0
-27 3 -30 30 -30 l30 0 0 -65 0 -65 30 0 c23 0 30 -4 30 -20 0 -11 5 -20 10
-20 6 0 10 13 10 30 0 27 -3 30 -30 30 l-30 0 0 65 0 65 30 0 c25 0 30 -4 30
-24 0 -19 -4 -23 -19 -19 -10 3 -22 0 -25 -6 -5 -8 12 -11 53 -11 l61 0 0 30
0 30 60 0 60 0 0 30 0 30 65 0 65 0 0 30 c0 27 3 30 30 30 17 0 30 5 30 10 0
6 -18 10 -40 10 -38 0 -40 -2 -40 -30 l0 -30 -65 0 -65 0 0 -30 0 -30 -60 0
-60 0 0 -30 c0 -20 -5 -30 -15 -30 -10 0 -15 10 -15 30 0 27 -3 30 -30 30
l-30 0 0 60 0 60 -30 0 c-29 0 -30 1 -30 49 0 39 4 51 18 54 16 4 16 5 0 6
-25 1 -24 41 1 41 11 0 22 -8 24 -17 4 -17 5 -17 6 0 1 12 10 17 34 18 17 1
43 5 57 9 24 8 24 8 3 9 -16 1 -23 7 -23 21 0 26 46 28 53 3 4 -17 5 -17 6 0
1 14 11 17 66 17 l65 0 0 35 0 35 65 0 65 0 0 30 c0 23 4 30 20 30 11 0 20 5
20 10 0 6 -13 10 -30 10 l-30 0 0 60 0 60 30 0 c17 0 30 5 30 10 0 7 -27 10
-72 8 -71 -3 -73 -4 -76 -30 -3 -25 -7 -28 -43 -28 -37 0 -39 2 -39 30 0 27
-3 30 -30 30 l-30 0 0 85 c0 50 -4 85 -10 85 -5 0 -10 -9 -10 -20 0 -15 -7
-20 -25 -20 -18 0 -25 5 -25 20 0 11 -4 20 -10 20 -5 0 -10 -13 -10 -30z m-20
-140 c0 -11 -4 -20 -10 -20 -5 0 -10 9 -10 20 0 11 5 20 10 20 6 0 10 -9 10
-20z m150 -50 l0 -30 60 0 60 0 0 -30 c0 -28 3 -30 35 -30 32 0 35 -2 35 -30
l0 -30 -95 0 -95 0 0 -35 0 -35 -65 0 -65 0 0 -30 0 -30 -60 0 -60 0 0 -95 0
-95 30 0 30 0 0 -60 0 -60 -30 0 c-27 0 -30 3 -30 30 0 27 -3 30 -30 30 -27 0
-30 -3 -30 -30 0 -28 -3 -30 -35 -30 -32 0 -35 -2 -35 -30 l0 -30 -60 0 -60 0
0 30 c0 27 -3 30 -30 30 l-30 0 0 60 0 60 125 0 125 0 0 65 0 65 -35 0 -35 0
0 95 0 95 29 0 c25 0 28 -3 23 -25 -2 -14 -10 -25 -18 -25 -7 0 -16 -4 -19
-10 -4 -6 7 -10 24 -10 l31 0 0 65 0 65 30 0 c27 0 30 -3 30 -30 l0 -30 60 0
60 0 0 30 c0 28 3 30 35 30 l35 0 0 60 0 60 30 0 c27 0 30 -3 30 -30z m170 -1
c0 -26 -3 -30 -22 -27 -17 2 -24 11 -26 31 -3 23 0 27 22 27 22 0 26 -4 26
-31z m-440 1 c0 -5 -4 -10 -10 -10 -5 0 -10 5 -10 10 0 6 5 10 10 10 6 0 10
-4 10 -10z m190 -30 c0 -39 -1 -40 -35 -40 -32 0 -35 -2 -35 -30 0 -28 -2 -30
-40 -30 -29 0 -40 4 -40 15 0 8 8 16 18 16 16 1 16 2 0 6 -10 2 -18 13 -18 24
0 25 40 27 41 2 1 -29 17 16 18 50 1 25 4 27 46 27 l45 0 0 -40z m-172 -22 c3
-14 -3 -18 -27 -18 -29 0 -41 17 -24 34 13 13 48 1 51 -16z m-127 -15 c1 -17
2 -17 6 0 2 9 13 17 24 17 16 0 19 -7 19 -40 0 -39 -1 -40 -35 -40 l-35 0 0
-115 0 -115 35 0 c40 0 51 -29 13 -31 l-23 -2 23 -4 c33 -7 31 -53 -3 -53 -19
0 -25 6 -26 23 l-2 22 -4 -22 c-4 -21 -10 -23 -79 -23 l-74 0 0 65 0 65 -30 0
-30 0 0 75 0 74 58 3 c54 3 57 4 60 31 3 22 9 27 30 28 33 1 77 17 50 18 -11
1 -18 9 -18 21 0 26 39 28 41 3z m549 7 c0 -5 -7 -10 -15 -10 -8 0 -15 5 -15
10 0 6 7 10 15 10 8 0 15 -4 15 -10z m-670 -70 c0 -13 -7 -20 -20 -20 -13 0
-20 7 -20 20 0 13 7 20 20 20 13 0 20 -7 20 -20z m560 -65 c0 -20 -5 -25 -24
-25 -19 0 -22 4 -18 25 3 16 11 25 23 25 14 0 19 -7 19 -25z m-620 -210 l0
-65 -30 0 -30 0 0 65 0 65 30 0 30 0 0 -65z"/>
<path d="M501 588 c-1 -25 3 -28 29 -28 26 0 30 3 29 28 -2 23 -2 24 -6 5 -3
-14 -12 -23 -23 -23 -11 0 -20 9 -23 23 -4 19 -4 18 -6 -5z"/>
<path d="M407 493 c12 -2 24 -12 26 -21 3 -12 5 -10 6 6 1 18 -4 22 -26 21
-23 -1 -24 -2 -6 -6z"/>
<path d="M311 273 c-1 -19 4 -23 29 -23 25 0 30 4 29 23 -1 16 -2 18 -6 5 -2
-10 -13 -18 -23 -18 -10 0 -21 8 -23 18 -4 13 -5 11 -6 -5z"/>
<path d="M561 904 c0 -11 3 -14 6 -6 3 7 2 16 -1 19 -3 4 -6 -2 -5 -13z"/>
<path d="M611 904 c0 -11 3 -14 6 -6 3 7 2 16 -1 19 -3 4 -6 -2 -5 -13z"/>
<path d="M131 668 c1 -16 3 -18 6 -6 2 9 12 19 21 21 12 3 10 5 -5 6 -18 1
-23 -4 -22 -21z"/>
<path d="M80 550 c0 -5 7 -10 15 -10 8 0 15 5 15 10 0 6 -7 10 -15 10 -8 0
-15 -4 -15 -10z"/>
<path d="M80 510 c0 -5 7 -10 15 -10 8 0 15 5 15 10 0 6 -7 10 -15 10 -8 0
-15 -4 -15 -10z"/>
<path d="M843 215 c-18 -20 -16 -25 7 -25 13 0 20 7 20 20 0 23 -10 25 -27 5z"/>
<path d="M740 156 c0 -8 -8 -17 -17 -19 -14 -4 -12 -5 5 -6 16 -1 22 5 22 19
0 11 -2 20 -5 20 -3 0 -5 -6 -5 -14z"/>
<path d="M810 95 l0 -35 -60 0 -60 0 0 -30 c0 -17 5 -30 10 -30 6 0 10 9 10
20 0 13 7 20 20 20 13 0 20 -7 20 -20 0 -11 5 -20 10 -20 6 0 10 9 10 20 0 16
8 19 58 22 56 3 57 3 60 36 3 32 4 32 58 32 30 0 54 5 54 10 0 6 -38 10 -95
10 l-95 0 0 -35z m60 -10 c0 -18 -5 -25 -20 -25 -15 0 -20 7 -20 25 0 18 5 25
20 25 15 0 20 -7 20 -25z"/>
</g>
</svg>
