<?xml version="1.0" standalone="no"?>
<!DOCTYPE svg PUBLIC "-//W3C//DTD SVG 20010904//EN"
 "http://www.w3.org/TR/2001/REC-SVG-20010904/DTD/svg10.dtd">
<svg version="1.0" xmlns="http://www.w3.org/2000/svg"
 width="192.000000pt" height="192.000000pt" viewBox="0 0 192.000000 192.000000"
 preserveAspectRatio="xMidYMid meet">
<metadata>
Created by potrace 1.16, written by Peter Selinger 2001-2019
</metadata>
<g transform="translate(0.000000,192.000000) scale(0.100000,-0.100000)"
fill="#000000" stroke="none">
<path d="M10 1250 c0 -29 4 -40 15 -40 8 0 15 -4 15 -10 0 -5 -4 -10 -10 -10
-5 0 -10 -13 -10 -29 l0 -28 138 -6 c105 -4 140 -2 152 8 12 11 18 11 32 1 13
-10 118 -12 460 -10 244 1 451 5 461 9 9 4 24 2 31 -5 11 -8 42 -9 110 -4 83
6 96 5 96 -9 0 -33 100 -39 122 -8 13 18 26 19 153 18 l140 -2 3 43 c3 37 1
42 -17 42 -18 0 -21 6 -21 40 l0 40 -45 0 c-33 0 -45 -4 -45 -15 0 -12 -13
-15 -60 -15 -47 0 -60 3 -60 15 0 11 -11 15 -40 15 -29 0 -40 -4 -40 -15 0 -9
-9 -15 -25 -15 -16 0 -25 6 -25 15 0 11 -11 15 -40 15 -29 0 -40 -4 -40 -15 0
-17 -27 -20 -32 -4 -5 14 -97 24 -132 15 -15 -3 -26 -12 -26 -19 0 -8 -17 -11
-60 -9 -43 3 -60 8 -60 18 0 11 -21 14 -100 14 l-100 0 0 -40 c0 -42 -16 -56
-22 -17 -3 20 -9 22 -80 25 -60 2 -78 6 -78 17 0 11 -12 15 -45 15 -33 0 -45
-4 -45 -15 0 -12 -18 -15 -105 -15 -87 0 -105 3 -105 15 0 12 -14 15 -64 15
-44 0 -69 -5 -80 -15 -21 -21 -126 -21 -126 0 0 12 -17 15 -95 15 l-95 0 0
-40z m170 5 c0 -15 6 -16 80 -19 33 -1 35 -3 38 -37 2 -21 -2 -40 -10 -46 -7
-5 -45 -8 -85 -5 l-73 4 0 38 c0 24 -5 40 -15 44 -11 4 -15 -2 -15 -24 0 -16
5 -32 10 -35 22 -13 8 -25 -30 -25 -22 0 -40 5 -40 10 0 6 5 10 10 10 6 0 10
16 10 35 0 26 -3 33 -15 29 -10 -4 -15 0 -15 15 0 19 5 21 75 21 60 0 75 -3
75 -15z m270 -10 c0 -14 -4 -25 -10 -25 -5 0 -10 5 -10 10 0 6 -11 10 -25 10
-21 0 -25 -5 -25 -29 0 -17 6 -31 16 -35 12 -4 14 -1 9 14 -5 17 -2 20 20 20
15 0 33 7 41 15 12 12 41 15 125 15 90 0 109 3 109 15 0 9 9 15 25 15 16 0 25
-6 25 -15 0 -11 11 -15 40 -15 38 0 40 -1 41 -32 l1 -33 7 30 c5 25 11 30 36
30 23 0 31 -5 33 -22 2 -15 10 -23 22 -23 23 0 32 -13 24 -34 -7 -18 -44 -22
-44 -5 0 5 -5 7 -11 4 -8 -6 -355 -10 -426 -6 -7 1 -14 11 -14 24 l-2 22 -4
-22 c-6 -32 -48 -40 -90 -18 -27 15 -33 24 -33 51 0 45 22 64 76 64 40 0 44
-2 44 -25z m680 10 c0 -15 5 -16 75 -19 38 -1 40 -2 43 -37 4 -50 -10 -58 -94
-52 l-72 6 5 37 c4 32 2 38 -16 43 -18 4 -21 1 -21 -29 0 -19 5 -34 10 -34 6
0 10 -4 10 -10 0 -5 -18 -10 -40 -10 -22 0 -40 5 -40 10 0 6 5 10 10 10 6 0
10 15 10 34 0 29 -3 33 -20 29 -15 -4 -20 0 -20 16 0 20 5 21 80 21 64 0 80
-3 80 -15z m278 -4 c6 -18 72 -14 72 4 0 8 9 15 20 15 14 0 20 -7 20 -21 0
-15 4 -19 16 -15 9 3 29 6 45 6 19 0 29 5 29 15 0 8 9 15 20 15 11 0 20 -7 20
-15 0 -11 12 -15 43 -16 23 -1 61 -2 84 -3 37 -1 42 2 37 17 -4 13 0 17 20 17
24 0 26 -4 26 -40 0 -34 3 -40 21 -40 15 0 20 -5 17 -22 -3 -23 -5 -23 -142
-21 -129 3 -140 1 -153 -17 -20 -29 -83 -24 -83 6 0 8 -10 14 -25 14 -22 0
-24 3 -18 30 3 19 1 30 -6 30 -6 0 -11 -14 -11 -30 0 -29 -2 -31 -37 -30 -21
0 -51 -2 -68 -5 -44 -8 -68 15 -68 66 0 24 6 45 14 51 18 12 102 3 107 -11z
m-418 -51 c0 -5 -2 -10 -4 -10 -3 0 -8 5 -11 10 -3 6 -1 10 4 10 6 0 11 -4 11
-10z"/>
<path d="M531 1194 c0 -11 3 -14 6 -6 3 7 2 16 -1 19 -3 4 -6 -2 -5 -13z"/>
<path d="M572 1190 c0 -14 2 -19 5 -12 2 6 2 18 0 25 -3 6 -5 1 -5 -13z"/>
<path d="M701 1194 c0 -11 3 -14 6 -6 3 7 2 16 -1 19 -3 4 -6 -2 -5 -13z"/>
<path d="M792 1190 c0 -14 2 -19 5 -12 2 6 2 18 0 25 -3 6 -5 1 -5 -13z"/>
<path d="M1335 1230 c-8 -25 3 -62 16 -55 5 4 9 19 9 35 0 35 -16 48 -25 20z"/>
<path d="M1597 1190 c-3 -11 -1 -20 4 -20 5 0 9 9 9 20 0 11 -2 20 -4 20 -2 0
-6 -9 -9 -20z"/>
<path d="M710 1090 c-19 -4 -73 -15 -120 -24 -124 -24 -247 -61 -260 -78 -3
-4 -15 15 -25 42 -18 46 -22 50 -52 50 -33 0 -146 -43 -174 -67 -8 -7 -21 -13
-27 -13 -7 0 -12 -4 -12 -9 0 -5 -9 -11 -20 -14 -11 -3 -20 -13 -20 -22 0 -10
5 -14 13 -11 6 3 20 9 29 12 10 4 18 10 18 15 0 5 5 9 12 9 6 0 19 6 27 13 19
16 137 67 154 67 7 0 21 -22 32 -50 15 -40 24 -50 42 -50 13 0 23 5 23 10 0 6
7 10 15 10 8 0 29 6 47 14 44 19 130 40 260 65 152 29 423 29 576 1 104 -20
186 -40 247 -62 17 -5 40 -12 53 -15 12 -3 22 -9 22 -14 0 -5 10 -9 23 -9 18
0 27 10 42 50 11 28 25 50 32 50 17 0 135 -51 154 -67 8 -7 21 -13 27 -13 7 0
12 -4 12 -9 0 -5 8 -11 18 -15 9 -3 23 -9 30 -12 7 -3 12 1 12 11 0 9 -9 19
-20 22 -11 3 -20 9 -20 14 0 5 -5 9 -12 9 -6 0 -19 6 -27 13 -28 24 -141 67
-174 67 -30 0 -34 -4 -52 -50 -10 -27 -22 -46 -25 -41 -3 4 -14 10 -25 14 -11
3 -33 10 -50 16 -63 21 -144 41 -247 61 -89 16 -145 20 -315 19 -115 -1 -224
-5 -243 -9z"/>
<path d="M785 1054 c-117 -18 -262 -50 -349 -78 -100 -33 -273 -113 -264 -122
3 -2 40 12 82 31 112 51 263 102 374 126 152 33 439 38 599 11 139 -24 305
-75 430 -133 47 -22 88 -37 90 -35 10 9 -163 89 -262 121 -173 57 -298 77
-495 80 -96 2 -188 1 -205 -1z"/>
<path d="M130 979 c-52 -27 -99 -54 -104 -59 -15 -15 2 -24 18 -11 31 26 196
108 196 98 0 -6 -14 -35 -31 -65 -17 -30 -29 -55 -27 -56 2 -1 26 10 54 25
l51 26 -15 39 c-14 35 -28 54 -42 54 -3 0 -48 -23 -100 -51z"/>
<path d="M789 1019 c-169 -18 -403 -86 -551 -160 l-56 -28 30 -65 31 -65 66
34 c392 197 910 197 1301 0 l66 -33 32 64 32 65 -92 43 c-263 123 -574 175
-859 145z m121 -31 c0 -17 -3 -19 -12 -10 -16 16 -28 15 -28 -1 0 -7 10 -17
23 -22 12 -6 22 -19 22 -30 0 -16 -8 -21 -37 -23 l-37 -3 6 35 c3 21 1 42 -6
49 -15 19 -4 27 36 27 27 0 33 -4 33 -22z m103 -13 c5 -16 16 -37 23 -46 16
-18 9 -29 -19 -29 -13 0 -17 5 -14 15 4 8 2 17 -4 21 -6 3 -13 -3 -16 -15 -6
-24 -43 -29 -43 -6 0 8 4 15 10 15 11 0 26 47 21 68 -5 27 33 6 42 -23z m135
12 c15 -12 16 -59 0 -75 -14 -14 -88 -16 -88 -2 0 6 4 10 9 10 12 0 20 59 9
66 -5 3 -6 9 -3 13 6 10 55 2 73 -12z m-355 -23 c-4 -25 -2 -39 8 -45 20 -13
-2 -25 -51 -27 -39 -2 -39 -2 -33 32 3 19 1 36 -6 40 -20 13 -11 25 22 29 69
8 66 10 60 -29z m427 -4 c0 -24 -21 -71 -29 -65 -13 7 1 85 15 85 8 0 14 -9
14 -20z m90 0 c26 -26 25 -45 -1 -71 -14 -14 -28 -19 -42 -15 -12 3 -28 6 -35
6 -9 0 -8 7 4 25 10 16 14 34 10 50 -6 22 -3 25 19 25 14 0 34 -9 45 -20z
m-652 -23 c2 -16 10 -31 18 -34 8 -3 14 -9 14 -14 0 -16 -32 -10 -46 8 -7 10
-16 14 -20 10 -5 -4 -2 -12 6 -18 13 -8 13 -10 0 -19 -25 -16 -35 -6 -32 32 2
25 -1 37 -13 42 -28 10 -5 27 33 24 32 -3 37 -7 40 -31z m-114 -3 c8 -22 0
-30 -17 -16 -8 7 -17 9 -20 5 -12 -11 -8 -23 8 -23 8 0 15 -4 15 -10 0 -5 -4
-10 -10 -10 -5 0 -10 -4 -10 -10 0 -5 7 -10 15 -10 8 0 15 7 15 15 0 21 17 19
23 -4 3 -14 -4 -21 -31 -29 -43 -13 -51 -10 -45 21 3 14 -2 31 -12 41 -20 19
-19 21 15 35 36 14 47 13 54 -5z m898 -7 c23 -36 -4 -87 -47 -87 -47 0 -65 67
-26 98 18 14 61 8 73 -11z m-1010 -64 c-2 -32 -6 -60 -8 -62 -2 -2 -22 15 -44
39 -22 24 -39 45 -37 46 3 3 77 31 88 33 3 0 4 -25 1 -56z m1113 35 c22 -10
26 -17 23 -46 -4 -44 -27 -60 -65 -46 -34 11 -44 62 -18 88 20 19 26 20 60 4z
m106 -47 c23 -19 24 -20 7 -49 -13 -22 -14 -32 -6 -40 15 -15 4 -26 -18 -18
-12 4 -14 13 -10 32 5 19 3 25 -6 21 -7 -2 -12 -11 -10 -21 3 -19 -2 -20 -29
-5 -20 10 -19 10 2 28 12 10 22 29 22 44 0 32 16 34 48 8z m-1313 -3 c7 -7 12
-24 12 -38 0 -34 -17 -50 -52 -50 -18 0 -33 8 -44 25 -15 23 -15 27 0 50 18
27 63 34 84 13z"/>
<path d="M870 934 c0 -17 22 -14 28 4 2 7 -3 12 -12 12 -9 0 -16 -7 -16 -16z"/>
<path d="M985 960 c-3 -5 -1 -10 4 -10 6 0 11 5 11 10 0 6 -2 10 -4 10 -3 0
-8 -4 -11 -10z"/>
<path d="M1100 950 c0 -25 4 -31 18 -28 11 2 17 12 17 28 0 16 -6 26 -17 28
-14 3 -18 -3 -18 -28z"/>
<path d="M737 974 c-9 -10 2 -24 19 -24 8 0 14 7 14 15 0 15 -21 21 -33 9z"/>
<path d="M750 930 c-11 -7 -12 -12 -4 -20 8 -8 14 -7 23 4 14 17 1 28 -19 16z"/>
<path d="M1268 930 c-6 -37 2 -44 28 -25 15 11 17 18 8 31 -17 29 -31 27 -36
-6z"/>
<path d="M616 953 c-11 -11 -6 -23 9 -23 8 0 15 4 15 9 0 13 -16 22 -24 14z"/>
<path d="M1383 923 c-18 -7 -16 -52 3 -60 23 -9 51 23 38 44 -12 19 -23 24
-41 16z"/>
<path d="M386 882 c-2 -4 2 -16 10 -27 13 -18 14 -18 14 8 0 25 -13 36 -24 19z"/>
<path d="M1494 866 c-10 -26 4 -48 28 -44 17 2 23 10 23 28 0 18 -6 26 -23 28
-13 2 -25 -3 -28 -12z"/>
<path d="M1622 831 c2 -7 7 -12 11 -12 12 1 9 15 -3 20 -7 2 -11 -2 -8 -8z"/>
<path d="M274 826 c-10 -26 4 -48 28 -44 17 2 23 10 23 28 0 18 -6 26 -23 28
-13 2 -25 -3 -28 -12z"/>
<path d="M1674 1022 c-6 -4 -17 -25 -26 -46 l-15 -39 51 -26 c28 -15 52 -26
54 -25 2 1 -10 26 -27 56 -17 30 -31 59 -31 65 0 10 165 -72 196 -98 8 -6 18
-9 22 -5 10 10 -17 28 -119 81 -97 50 -90 47 -105 37z"/>
<path d="M115 932 l-80 -47 33 -68 33 -67 29 20 c15 11 33 20 40 20 6 0 10 3
8 8 -2 4 -10 20 -18 36 -14 27 -12 32 17 87 18 33 29 59 25 59 -4 0 -43 -22
-87 -48z m19 -74 c-2 -63 -18 -72 -41 -23 -17 37 -17 37 6 56 13 10 26 19 30
19 3 0 5 -23 5 -52z"/>
<path d="M1743 921 c29 -55 31 -60 17 -87 -8 -16 -16 -32 -18 -36 -2 -5 2 -8
8 -8 7 0 25 -9 40 -20 l28 -20 34 68 34 69 -82 46 c-45 26 -84 47 -88 47 -3 0
9 -26 27 -59z m78 -30 c23 -19 23 -19 6 -56 -10 -20 -22 -35 -28 -33 -12 4
-19 108 -8 108 4 0 17 -9 30 -19z"/>
<path d="M0 858 c0 -12 19 -59 41 -105 39 -77 44 -83 72 -83 18 0 41 9 54 22
22 20 23 21 23 2 0 -10 9 -30 19 -43 24 -32 70 -26 171 22 41 19 100 43 130
53 30 10 79 26 108 36 63 22 250 48 342 48 92 0 279 -26 342 -48 29 -10 78
-26 108 -36 30 -10 89 -34 130 -54 69 -34 81 -37 155 -35 58 2 83 6 91 18 6 8
20 15 31 15 15 0 30 21 62 85 24 47 41 95 39 107 -3 17 -16 -2 -52 -75 -40
-80 -53 -98 -68 -94 -11 3 -22 -2 -28 -14 -11 -19 -54 -26 -64 -10 -6 10 22
25 40 22 21 -3 24 28 4 39 -31 16 -37 12 -52 -32 -17 -54 -34 -54 -139 -5 -41
20 -99 43 -129 53 -30 10 -79 26 -108 36 -68 23 -252 48 -362 48 -110 0 -294
-25 -362 -48 -29 -10 -78 -26 -108 -36 -30 -10 -87 -33 -126 -51 -104 -49
-118 -51 -137 -21 -10 14 -17 32 -17 41 0 22 -43 19 -65 -5 -10 -11 -24 -20
-30 -20 -7 0 -33 43 -59 95 -26 52 -49 95 -52 95 -2 0 -4 -10 -4 -22z"/>
<path d="M825 864 c-130 -19 -235 -41 -320 -69 -115 -38 -257 -103 -250 -115
3 -4 40 9 82 30 97 47 240 95 352 117 120 25 422 25 542 0 109 -22 253 -69
352 -117 43 -20 80 -33 83 -28 14 22 -268 128 -425 159 -92 19 -349 33 -416
23z"/>
<path d="M143 759 c-18 -12 -33 -25 -33 -31 0 -11 3 -10 47 17 31 19 43 35 26
35 -5 0 -23 -10 -40 -21z"/>
<path d="M1730 773 c0 -5 15 -17 33 -28 44 -27 47 -28 47 -17 0 6 -15 20 -34
31 -36 22 -46 25 -46 14z"/>
</g>
</svg>
