<?xml version="1.0" standalone="no"?>
<!DOCTYPE svg PUBLIC "-//W3C//DTD SVG 20010904//EN"
 "http://www.w3.org/TR/2001/REC-SVG-20010904/DTD/svg10.dtd">
<svg version="1.0" xmlns="http://www.w3.org/2000/svg"
 width="70.000000pt" height="70.000000pt" viewBox="0 0 70.000000 70.000000"
 preserveAspectRatio="xMidYMid meet">
<metadata>
Created by potrace 1.16, written by Peter Selinger 2001-2019
</metadata>
<g transform="translate(0.000000,70.000000) scale(0.100000,-0.100000)"
fill="#000000" stroke="none">
<path d="M60 691 c0 -6 5 -13 10 -16 6 -3 10 1 10 9 0 9 -4 16 -10 16 -5 0
-10 -4 -10 -9z"/>
<path d="M248 683 c7 -3 16 -2 19 1 4 3 -2 6 -13 5 -11 0 -14 -3 -6 -6z"/>
<path d="M398 683 c18 -2 45 -2 60 0 15 2 0 4 -33 4 -33 0 -45 -2 -27 -4z"/>
<path d="M270 650 c0 -5 23 -10 50 -10 28 0 50 5 50 10 0 6 -22 10 -50 10 -27
0 -50 -4 -50 -10z"/>
<path d="M51 626 c2 -2 21 -6 42 -10 27 -5 37 -4 32 3 -3 6 -22 11 -42 11 -20
0 -34 -2 -32 -4z"/>
<path d="M466 623 c-2 -2 -75 -4 -162 -4 -87 -1 -152 -4 -144 -7 8 -3 18 -9
21 -15 4 -5 55 -9 115 -9 191 2 190 1 174 12 -8 5 -13 10 -10 11 42 9 74 8 80
-1 5 -8 9 -7 13 5 6 13 0 16 -38 14 -25 -2 -47 -4 -49 -6z"/>
<path d="M583 623 c9 -2 23 -2 30 0 6 3 -1 5 -18 5 -16 0 -22 -2 -12 -5z"/>
<path d="M2 586 c1 -10 8 -17 13 -17 15 1 12 24 -3 29 -9 3 -13 -2 -10 -12z"/>
<path d="M622 570 c-1 -16 2 -32 8 -35 7 -4 7 -12 0 -25 -12 -23 -13 -30 -2
-30 12 0 28 60 24 87 -5 33 -28 35 -30 3z"/>
<path d="M130 555 c0 -16 -7 -25 -25 -29 -21 -5 -25 -12 -25 -44 0 -36 14 -71
24 -61 3 2 7 23 9 44 4 35 7 40 26 37 18 -3 22 1 19 19 -2 17 2 23 19 24 51 4
43 25 -11 30 -32 3 -36 0 -36 -20z"/>
<path d="M443 566 c-14 -16 2 -26 42 -26 18 0 22 -4 18 -20 -4 -16 0 -20 19
-20 22 0 24 -4 20 -30 -3 -22 0 -30 11 -30 23 0 26 11 20 59 -5 34 -9 42 -23
38 -13 -3 -16 0 -13 14 4 15 0 19 -18 19 -13 0 -33 2 -44 5 -11 3 -25 -1 -32
-9z"/>
<path d="M80 560 c0 -5 5 -10 10 -10 6 0 10 5 10 10 0 6 -4 10 -10 10 -5 0
-10 -4 -10 -10z"/>
<path d="M10 536 c0 -3 5 -17 11 -33 6 -16 11 -76 10 -136 -2 -79 2 -112 12
-127 13 -18 15 -19 21 -5 3 9 6 64 6 121 0 85 -3 104 -15 104 -10 0 -17 14
-21 40 -4 22 -10 40 -15 40 -5 0 -9 -2 -9 -4z"/>
<path d="M320 500 c0 -19 3 -21 12 -12 9 9 9 15 0 24 -9 9 -12 7 -12 -12z"/>
<path d="M240 444 c0 -12 -7 -27 -15 -34 -10 -9 -15 -9 -15 -1 0 6 -8 11 -17
11 -10 0 -14 -4 -8 -8 12 -8 14 -112 3 -112 -5 0 -8 -5 -8 -11 0 -6 12 -9 28
-7 23 3 27 -1 27 -22 0 -21 5 -25 29 -25 32 0 47 -22 25 -37 -10 -6 -5 -8 16
-6 17 1 36 -2 44 -6 21 -13 34 16 14 31 -11 9 -21 9 -36 2 -15 -9 -18 -8 -15
3 3 9 23 13 59 13 52 0 54 1 51 26 -2 21 2 25 20 25 20 -1 22 4 22 64 1 51 -2
65 -14 66 -34 2 -37 5 -33 27 4 22 3 22 -86 23 -87 0 -91 -1 -91 -22z m131
-19 c11 -4 18 -14 17 -23 -2 -9 6 -18 17 -21 15 -5 21 -16 22 -43 3 -43 -3
-48 -17 -15 -8 21 -9 20 -11 -8 -1 -16 -1 -33 0 -37 0 -5 -28 -8 -63 -8 -63 0
-65 0 -71 30 -7 31 -20 39 -28 18 -2 -7 -6 6 -8 30 -4 38 -3 41 9 25 11 -15
14 -16 22 -3 10 16 13 28 11 45 -1 12 72 19 100 10z"/>
<path d="M310 400 c0 -5 5 -10 11 -10 5 0 7 5 4 10 -3 6 -8 10 -11 10 -2 0 -4
-4 -4 -10z"/>
<path d="M311 344 c0 -11 3 -14 6 -6 3 7 2 16 -1 19 -3 4 -6 -2 -5 -13z"/>
<path d="M330 310 c0 -5 5 -10 10 -10 6 0 10 5 10 10 0 6 -4 10 -10 10 -5 0
-10 -4 -10 -10z"/>
<path d="M597 463 c-5 -8 -10 -143 -8 -211 1 -25 5 -32 19 -30 9 2 16 -3 15
-9 -2 -7 2 -13 7 -13 12 0 13 17 1 24 -5 3 -7 16 -3 28 4 16 2 19 -8 13 -9 -6
-11 -4 -5 5 10 16 6 182 -4 193 -5 5 -11 5 -14 0z"/>
<path d="M1 414 c0 -11 3 -14 6 -6 3 7 2 16 -1 19 -3 4 -6 -2 -5 -13z"/>
<path d="M85 250 c-8 -27 2 -90 15 -90 11 0 12 3 14 46 1 18 -3 39 -10 49 -11
15 -13 14 -19 -5z"/>
<path d="M540 204 c0 -38 3 -45 18 -42 21 4 29 53 11 74 -20 25 -29 15 -29
-32z"/>
<path d="M20 207 c0 -19 -3 -42 -6 -51 -4 -10 -1 -16 9 -16 11 0 13 10 9 48
-6 58 -12 68 -12 19z"/>
<path d="M126 168 c-8 -39 3 -51 40 -46 33 3 41 33 9 33 -13 0 -21 8 -23 23
-5 32 -18 27 -26 -10z"/>
<path d="M500 190 c0 -5 5 -10 11 -10 5 0 7 5 4 10 -3 6 -8 10 -11 10 -2 0 -4
-4 -4 -10z"/>
<path d="M492 155 c-15 -11 -21 -12 -24 -3 -3 9 -6 9 -12 0 -4 -8 2 -16 19
-22 36 -14 50 -13 64 4 19 23 -19 40 -47 21z"/>
<path d="M615 150 c-3 -5 -1 -10 4 -10 6 0 11 5 11 10 0 6 -2 10 -4 10 -3 0
-8 -4 -11 -10z"/>
<path d="M65 140 c-16 -7 -17 -9 -3 -9 9 -1 20 4 23 9 7 11 7 11 -20 0z"/>
<path d="M0 105 c0 -8 5 -15 10 -15 6 0 10 7 10 15 0 8 -4 15 -10 15 -5 0 -10
-7 -10 -15z"/>
<path d="M200 109 c-25 -3 -38 -7 -30 -8 12 -1 12 -3 2 -10 -8 -5 58 -8 152
-8 157 0 166 1 166 19 0 11 -4 17 -8 14 -11 -7 -214 -12 -227 -5 -5 2 -30 2
-55 -2z"/>
<path d="M550 75 c-10 -13 -9 -15 9 -15 11 0 21 4 21 9 0 18 -18 21 -30 6z"/>
<path d="M626 81 c-4 -7 -5 -15 -2 -18 9 -9 19 4 14 18 -4 11 -6 11 -12 0z"/>
<path d="M52 71 c-10 -6 -6 -10 15 -14 33 -6 44 0 23 13 -18 12 -22 12 -38 1z"/>
<path d="M260 56 c-22 -9 -15 -11 49 -14 84 -3 120 5 84 19 -31 11 -102 9
-133 -5z"/>
</g>
</svg>
