<?xml version="1.0" standalone="no"?>
<!DOCTYPE svg PUBLIC "-//W3C//DTD SVG 20010904//EN"
 "http://www.w3.org/TR/2001/REC-SVG-20010904/DTD/svg10.dtd">
<svg version="1.0" xmlns="http://www.w3.org/2000/svg"
 width="73.000000pt" height="70.000000pt" viewBox="0 0 73.000000 70.000000"
 preserveAspectRatio="xMidYMid meet">
<metadata>
Created by potrace 1.16, written by Peter Selinger 2001-2019
</metadata>
<g transform="translate(0.000000,70.000000) scale(0.100000,-0.100000)"
fill="#000000" stroke="none">
<path d="M255 686 c-37 -13 -95 -26 -172 -41 -45 -9 -83 -41 -83 -72 l0 -25
28 30 c31 33 40 36 247 86 135 33 138 34 80 34 -33 0 -78 -5 -100 -12z"/>
<path d="M528 687 c43 -24 47 -36 121 -349 26 -109 26 -127 -2 -169 -25 -37
-55 -49 -227 -88 -52 -12 -126 -29 -164 -38 -67 -16 -69 -16 -110 5 -47 25
-57 45 -82 152 -10 41 -28 116 -40 165 -22 88 -22 89 -23 40 -1 -53 39 -240
67 -314 26 -68 99 -97 192 -76 56 12 86 18 103 19 9 0 17 3 17 6 0 4 6 7 13 7
6 0 26 4 42 8 17 4 39 8 50 10 11 2 20 4 20 5 0 1 7 3 15 5 8 2 25 6 38 9 12
3 32 8 44 11 33 7 73 40 72 59 -1 9 2 14 6 11 22 -13 13 114 -14 215 -8 30
-27 107 -41 170 -15 63 -34 123 -42 133 -9 9 -30 17 -47 17 -30 -1 -30 -1 -8
-13z"/>
<path d="M303 628 l-123 -30 0 -54 c0 -70 29 -155 90 -270 27 -50 52 -110 56
-132 6 -37 8 -40 28 -32 11 5 64 18 116 30 52 12 103 23 113 26 27 8 46 60 37
100 -4 18 -5 35 -2 38 15 16 -12 3 -50 -23 -24 -17 -67 -37 -95 -45 -53 -15
-53 -15 -53 8 0 18 10 25 55 40 30 9 70 31 89 49 l34 33 -24 104 c-14 58 -27
115 -30 128 -8 38 -40 62 -81 61 -21 0 -93 -14 -160 -31z m199 2 c24 -18 27
-28 44 -135 2 -16 7 -38 10 -48 5 -17 1 -19 -40 -16 -25 2 -46 2 -46 -1 0 -3
-56 -6 -125 -6 l-125 -1 -10 36 c-5 20 -10 57 -10 82 l0 47 78 17 c42 9 100
23 127 30 68 18 69 18 97 -5z m-66 -222 c4 -6 3 -8 -3 -5 -10 7 -12 -31 -1
-48 3 -5 4 -18 3 -27 -2 -10 1 -18 7 -18 6 0 8 6 5 14 -3 8 -3 17 1 20 8 9 12
36 4 33 -4 -1 -7 3 -7 8 0 6 3 9 7 8 4 -2 5 3 2 10 -3 10 9 14 49 16 49 2 55
0 60 -21 8 -27 -11 -50 -61 -74 -36 -18 -45 -21 -79 -27 -14 -3 -18 -14 -18
-48 0 -42 1 -44 30 -45 17 0 35 2 40 5 6 3 15 6 21 7 5 1 30 11 54 23 24 11
45 19 48 16 11 -11 -11 -57 -32 -64 -40 -16 -96 -22 -96 -10 0 5 5 7 12 3 7
-4 8 -3 4 5 -9 14 -26 5 -26 -13 0 -8 -21 -19 -47 -25 -42 -11 -49 -10 -60 5
-12 16 -17 37 -14 57 0 4 -3 7 -8 7 -6 0 -8 9 -6 20 2 11 0 18 -4 16 -7 -5
-53 66 -57 87 -1 4 -2 8 -4 10 -1 1 -3 14 -4 29 l-2 27 78 -1 c43 -1 81 2 85
5 9 9 11 9 19 -5z"/>
<path d="M451 554 c0 -11 3 -14 6 -6 3 7 2 16 -1 19 -3 4 -6 -2 -5 -13z"/>
<path d="M500 550 c0 -5 5 -10 11 -10 5 0 7 5 4 10 -3 6 -8 10 -11 10 -2 0 -4
-4 -4 -10z"/>
<path d="M414 482 c-25 -11 -25 -12 -4 -7 41 10 74 11 92 3 10 -5 18 -3 21 5
6 17 -71 17 -109 -1z"/>
<path d="M327 469 c7 -7 15 -10 18 -7 3 3 -2 9 -12 12 -14 6 -15 5 -6 -5z"/>
<path d="M468 463 c7 -3 16 -2 19 1 4 3 -2 6 -13 5 -11 0 -14 -3 -6 -6z"/>
<path d="M272 396 c4 -5 3 -15 -3 -22 -6 -7 -6 -14 -1 -18 6 -3 15 0 21 8 9
10 7 17 -6 27 -10 7 -15 9 -11 5z"/>
<path d="M280 340 c-8 -6 -10 -10 -4 -10 6 0 18 -15 28 -32 9 -18 14 -24 10
-13 -4 11 -7 28 -8 37 -3 24 -9 28 -26 18z"/>
<path d="M90 572 c-58 -29 -59 -46 -5 -266 56 -229 58 -233 150 -221 l54 6 -5
32 c-3 18 -27 75 -54 127 -65 128 -90 206 -90 280 0 33 -3 60 -7 60 -5 0 -24
-8 -43 -18z m33 -69 c4 -38 9 -77 12 -89 5 -15 0 -23 -19 -32 -24 -11 -26 -9
-36 26 -24 85 -24 118 1 141 12 11 26 21 29 21 4 0 10 -30 13 -67z m47 -191
c13 -49 50 -199 50 -205 0 -6 -19 -3 -42 7 -10 5 -14 14 -11 23 4 10 2 14 -4
10 -7 -4 -19 28 -32 86 -12 50 -24 100 -28 111 -3 12 -1 16 6 12 6 -4 11 -2
11 4 0 26 40 -13 50 -48z m56 -113 c3 -13 7 -35 10 -48 3 -14 7 -28 10 -33 3
-4 1 -8 -5 -8 -9 0 -19 28 -37 105 -5 22 -4 27 5 19 6 -6 14 -21 17 -35z"/>
<path d="M95 430 c-3 -5 -1 -10 4 -10 6 0 11 5 11 10 0 6 -2 10 -4 10 -3 0 -8
-4 -11 -10z"/>
<path d="M141 334 c0 -11 3 -14 6 -6 3 7 2 16 -1 19 -3 4 -6 -2 -5 -13z"/>
<path d="M147 290 c3 -11 7 -20 9 -20 2 0 4 9 4 20 0 11 -4 20 -9 20 -5 0 -7
-9 -4 -20z"/>
<path d="M161 244 c0 -11 3 -14 6 -6 3 7 2 16 -1 19 -3 4 -6 -2 -5 -13z"/>
<path d="M171 204 c0 -11 3 -14 6 -6 3 7 2 16 -1 19 -3 4 -6 -2 -5 -13z"/>
<path d="M182 165 c0 -11 3 -29 8 -40 11 -25 11 1 0 35 -6 20 -8 21 -8 5z"/>
</g>
</svg>
