<?xml version="1.0" standalone="no"?>
<!DOCTYPE svg PUBLIC "-//W3C//DTD SVG 20010904//EN"
 "http://www.w3.org/TR/2001/REC-SVG-20010904/DTD/svg10.dtd">
<svg version="1.0" xmlns="http://www.w3.org/2000/svg"
 width="192.000000pt" height="192.000000pt" viewBox="0 0 192.000000 192.000000"
 preserveAspectRatio="xMidYMid meet">
<metadata>
Created by potrace 1.16, written by Peter Selinger 2001-2019
</metadata>
<g transform="translate(0.000000,192.000000) scale(0.100000,-0.100000)"
fill="#000000" stroke="none">
<path d="M613 1913 c-55 -3 -63 -7 -63 -23 0 -17 -7 -20 -40 -20 -33 0 -40 -3
-40 -20 0 -13 -7 -20 -20 -20 -13 0 -20 -7 -20 -20 0 -16 -7 -20 -35 -20 -28
0 -35 -4 -35 -20 0 -11 -7 -20 -15 -20 -9 0 -18 -7 -21 -15 -4 -8 -15 -15 -25
-15 -12 0 -19 -7 -19 -20 0 -13 -7 -20 -20 -20 -13 0 -20 -7 -20 -20 0 -13 -7
-20 -20 -20 -13 0 -20 -7 -20 -20 0 -11 -7 -20 -15 -20 -8 0 -15 -9 -15 -20 0
-13 -7 -20 -20 -20 -16 0 -20 -7 -20 -35 0 -28 -4 -35 -20 -35 -13 0 -20 -7
-20 -20 0 -13 -7 -20 -20 -20 -18 0 -20 -7 -20 -60 0 -53 -2 -60 -20 -60 -16
0 -20 -7 -20 -34 0 -19 -3 -41 -6 -50 -4 -11 -1 -16 10 -16 12 0 16 10 16 40
0 27 4 40 14 40 15 0 17 -45 3 -67 -6 -9 -2 -13 10 -13 17 0 18 8 15 100 -4
96 -3 100 17 100 14 0 21 6 21 20 0 11 7 20 15 20 18 0 19 -12 3 -28 -10 -10
-10 -15 2 -22 13 -9 13 -11 0 -20 -13 -8 -12 -10 3 -10 15 0 17 10 17 75 0 68
2 75 20 75 13 0 20 7 20 20 0 15 7 20 29 20 16 0 36 -6 43 -13 7 -8 19 -12 25
-10 7 3 20 0 30 -6 15 -9 13 -10 -14 -11 -26 0 -33 -4 -33 -20 0 -13 -7 -20
-20 -20 -17 0 -20 -7 -20 -39 0 -22 5 -41 13 -44 6 -2 9 -8 5 -12 -11 -12 -39
22 -32 39 4 11 1 16 -10 16 -12 0 -16 10 -16 36 0 41 -16 38 -22 -6 -3 -20 0
-30 9 -30 9 0 13 -13 13 -40 0 -33 -3 -40 -20 -40 -17 0 -20 -7 -20 -40 l0
-40 40 3 c40 2 40 2 40 44 0 36 3 41 18 36 9 -4 20 -11 23 -16 4 -5 9 -5 13 2
4 6 2 11 -3 11 -6 0 -11 18 -11 40 0 33 3 40 20 40 13 0 20 7 20 20 0 13 7 20
20 20 16 0 20 6 18 28 -3 40 8 52 42 45 26 -5 30 -2 30 16 0 14 6 21 20 21 13
0 20 7 20 20 0 17 7 20 39 20 22 0 41 -5 43 -12 3 -9 6 -9 12 0 4 7 2 12 -3
12 -6 0 -11 7 -11 16 0 11 -6 14 -20 9 -11 -4 -20 -2 -20 4 0 6 -18 11 -40 11
-33 0 -40 -3 -40 -20 0 -13 -7 -20 -20 -20 -16 0 -20 -7 -20 -32 -1 -28 -2
-30 -11 -15 -6 10 -8 24 -5 32 2 7 -2 16 -10 19 -24 9 -17 36 10 36 19 0 23 4
19 20 -5 18 0 20 36 20 31 0 41 -4 41 -16 0 -11 6 -14 20 -9 11 4 20 2 20 -4
0 -7 24 -11 60 -11 33 0 60 -4 60 -10 0 -5 7 -10 15 -10 22 0 18 17 -6 23 -17
5 -19 10 -13 41 l6 36 -41 0 c-34 0 -41 -3 -41 -20 0 -17 -7 -20 -40 -20 -29
0 -40 4 -40 15 0 13 -4 14 -20 5 -14 -8 -20 -8 -20 0 0 8 -6 8 -20 0 -16 -9
-20 -8 -20 5 0 12 13 15 60 15 47 0 60 3 60 15 0 18 -5 18 -31 5 -15 -8 -19
-7 -19 5 0 8 9 15 20 15 14 0 20 7 20 21 0 19 5 20 86 18 47 -1 103 -8 125
-16 22 -7 45 -11 50 -8 5 4 12 0 15 -8 4 -11 41 -14 194 -14 105 0 190 3 190
7 0 13 95 32 188 37 88 5 92 4 92 -16 0 -17 6 -21 35 -21 33 0 35 -2 35 -35 0
-37 -8 -43 -28 -23 -9 9 -12 8 -12 -5 0 -13 -9 -17 -40 -17 -33 0 -40 3 -40
19 0 16 -7 20 -41 19 l-41 0 7 -35 c5 -29 3 -35 -14 -40 -24 -6 -28 -23 -6
-23 8 0 15 5 15 10 0 6 7 10 16 10 10 0 13 6 10 18 -3 9 -1 24 4 32 9 13 10
13 11 0 1 -8 1 -23 0 -32 -2 -15 6 -18 38 -18 22 0 41 5 44 13 4 10 7 10 18 0
11 -11 10 -13 -4 -13 -9 0 -17 -7 -17 -16 0 -12 -3 -14 -13 -6 -10 9 -17 6
-30 -8 -9 -11 -12 -22 -7 -25 6 -4 10 -1 10 4 0 6 18 11 40 11 33 0 40 -3 40
-20 0 -13 7 -20 20 -20 13 0 20 -7 20 -20 0 -16 7 -20 35 -20 34 0 35 1 35 40
0 39 -1 40 -35 40 -28 0 -35 4 -35 20 0 13 -7 20 -20 20 -13 0 -20 7 -20 20 0
17 7 20 40 20 33 0 40 -3 40 -20 0 -13 7 -20 20 -20 14 0 20 -7 20 -21 0 -19
4 -20 41 -14 l42 7 -7 -32 c-3 -18 -6 -39 -6 -46 0 -9 -12 -14 -34 -14 -26 0
-35 -5 -40 -22 -10 -38 -7 -48 14 -48 13 0 20 -7 20 -20 0 -13 7 -20 20 -20
17 0 20 -7 20 -40 0 -22 -5 -40 -10 -40 -6 0 -10 -7 -8 -16 2 -10 -3 -19 -9
-21 -9 -3 -13 8 -13 36 0 35 -3 41 -21 41 -16 0 -19 4 -14 20 6 18 2 20 -34
20 l-41 0 0 -40 0 -40 -40 0 -40 0 0 -41 c0 -36 2 -40 20 -34 18 6 20 2 20
-34 l0 -41 40 0 40 0 0 41 c0 36 -2 41 -20 36 -17 -4 -20 0 -20 34 0 21 5 39
11 39 6 0 8 9 4 20 -4 14 -2 20 8 20 10 0 14 -11 13 -37 -1 -32 2 -38 19 -38
24 0 27 -33 7 -82 -11 -29 -10 -33 4 -33 11 0 14 6 9 20 -6 18 -2 20 34 20
l41 0 0 54 c0 40 4 55 16 60 13 5 14 9 4 21 -10 12 -10 15 3 15 8 0 17 6 20
13 2 7 8 8 13 3 5 -5 4 -11 -3 -13 -8 -3 -13 -22 -13 -45 0 -35 2 -39 20 -33
14 5 20 2 20 -10 0 -12 -6 -15 -20 -10 -11 3 -20 2 -20 -3 0 -8 45 -22 71 -22
5 0 9 18 9 40 0 33 -3 40 -20 40 -17 0 -20 7 -20 40 0 33 3 40 20 40 13 0 20
-7 20 -20 0 -11 -4 -20 -10 -20 -5 0 -10 -5 -10 -10 0 -6 8 -5 20 2 29 18 25
52 -7 67 -19 9 -23 15 -15 20 10 6 9 11 -3 21 -13 11 -15 8 -15 -24 0 -29 -4
-36 -20 -36 -13 0 -20 7 -20 20 0 13 -7 20 -20 20 -14 0 -20 7 -20 21 0 16 -5
20 -25 17 -13 -2 -24 2 -24 7 0 6 10 10 22 9 12 -1 27 5 35 12 20 21 72 18 72
-3 0 -13 -3 -14 -12 -5 -16 16 -28 15 -28 -3 0 -11 11 -15 40 -15 33 0 40 -3
40 -20 0 -13 7 -20 20 -20 16 0 20 -7 20 -35 0 -28 4 -35 20 -35 17 0 20 -7
20 -40 0 -34 3 -40 21 -40 22 0 22 -1 15 -136 -4 -74 -9 -143 -12 -152 -5 -15
-4 -15 6 1 6 9 19 17 28 17 15 0 15 2 2 10 -13 9 -13 11 -1 19 12 8 12 12 2
25 -8 9 -9 16 -3 16 13 0 11 53 -3 63 -7 5 -7 9 0 15 6 4 9 37 7 75 -3 58 -6
67 -23 67 -16 0 -19 7 -19 40 0 33 -3 40 -20 40 -16 0 -20 7 -20 35 0 28 -4
35 -20 35 -13 0 -20 7 -20 20 0 13 -7 20 -20 20 -13 0 -20 7 -20 20 0 11 -7
20 -15 20 -8 0 -15 9 -15 20 0 13 -7 20 -20 20 -13 0 -20 7 -20 20 0 13 -7 20
-20 20 -13 0 -20 7 -20 20 0 13 -7 20 -20 20 -11 0 -20 7 -20 15 0 8 -9 15
-20 15 -12 0 -20 7 -20 16 0 9 -9 18 -20 21 -11 3 -20 14 -20 24 0 15 -7 19
-35 19 -28 0 -35 4 -35 20 0 17 -7 20 -40 20 -33 0 -40 3 -40 19 0 17 -9 20
-67 23 -38 2 -71 -1 -74 -6 -4 -5 -12 -6 -17 -2 -20 12 -97 14 -105 2 -6 -8
-10 -8 -14 2 -4 10 -8 10 -19 1 -10 -8 -14 -8 -14 0 0 6 -4 11 -10 11 -5 0
-10 -9 -10 -20 0 -18 -7 -20 -80 -20 -73 0 -80 2 -80 20 0 22 -15 27 -24 8 -5
-10 -7 -10 -12 0 -5 10 -9 10 -20 1 -8 -7 -14 -7 -14 -1 0 13 -92 10 -103 -3
-6 -6 -10 -6 -14 3 -2 6 -8 11 -11 10 -4 -1 -35 -3 -69 -5z m255 -36 c89 -7
166 -9 170 -6 4 4 76 10 160 14 137 7 152 6 152 -9 0 -16 -17 -16 -67 -1 -6 2
-14 -1 -16 -8 -3 -9 -8 -8 -20 2 -15 12 -17 11 -17 -8 0 -21 -1 -21 -270 -21
-266 0 -270 0 -270 21 0 13 -4 18 -12 13 -21 -14 -108 -10 -108 4 0 15 77 15
298 -1z m672 -117 c0 -5 -4 -10 -10 -10 -5 0 -10 5 -10 10 0 6 5 10 10 10 6 0
10 -4 10 -10z m-1180 -40 c0 -5 -4 -10 -10 -10 -5 0 -10 5 -10 10 0 6 5 10 10
10 6 0 10 -4 10 -10z m240 1 c0 -17 -18 -21 -24 -6 -3 9 0 15 9 15 8 0 15 -4
15 -9z m980 -1 c0 -5 -4 -10 -9 -10 -6 0 -13 5 -16 10 -3 6 1 10 9 10 9 0 16
-4 16 -10z m-1252 -32 c-6 -18 -28 -21 -28 -4 0 9 7 16 16 16 9 0 14 -5 12
-12z m1292 -3 c0 -8 -4 -15 -9 -15 -5 0 -11 7 -15 15 -3 9 0 15 9 15 8 0 15
-7 15 -15z m-1301 -31 c28 -6 31 -10 31 -45 0 -39 0 -39 -40 -39 -27 0 -40 4
-40 14 0 7 -3 28 -6 45 -7 34 -2 36 55 25z m1234 -39 c-3 -8 -13 -15 -22 -14
-10 0 -11 2 -3 6 6 2 12 11 12 19 0 9 4 13 10 9 5 -3 7 -12 3 -20z m-1303 -4
c0 -5 -7 -11 -15 -15 -9 -3 -15 0 -15 9 0 8 7 15 15 15 8 0 15 -4 15 -9z
m1450 -6 c0 -9 -6 -12 -15 -9 -8 4 -15 10 -15 15 0 5 7 9 15 9 8 0 15 -7 15
-15z m-110 -211 c0 -3 -6 -12 -14 -19 -17 -18 -29 -8 -13 11 12 14 27 18 27 8z
m-110 -39 c0 -8 -4 -15 -10 -15 -5 0 -10 7 -10 15 0 8 5 15 10 15 6 0 10 -7
10 -15z m-1266 -26 c-8 -14 -24 -10 -24 6 0 9 6 12 15 9 8 -4 12 -10 9 -15z
m1396 -34 c0 -8 -4 -15 -10 -15 -5 0 -10 7 -10 15 0 8 5 15 10 15 6 0 10 -7
10 -15z m-110 -40 c0 -8 -4 -15 -9 -15 -13 0 -22 16 -14 24 11 11 23 6 23 -9z"/>
<path d="M281 1636 c-12 -14 -5 -26 16 -26 15 0 18 26 4 34 -5 3 -14 0 -20 -8z"/>
<path d="M540 1832 c-40 -6 -48 -22 -12 -23 44 -1 79 -1 100 0 16 2 16 2 -1
12 -10 6 -24 8 -31 6 -8 -3 -17 -2 -22 2 -5 4 -20 5 -34 3z"/>
<path d="M1295 1819 c-17 -7 -18 -8 -2 -9 9 -1 28 -2 42 -2 68 0 86 3 80 12
-7 12 -90 11 -120 -1z"/>
<path d="M650 1786 c0 -21 1 -21 310 -21 307 0 310 0 310 21 0 18 -5 20 -52
18 -29 -1 -67 -7 -83 -12 -39 -12 -310 -12 -350 0 -16 5 -54 11 -82 12 -48 3
-53 1 -53 -18z"/>
<path d="M1420 1786 c0 -11 9 -16 30 -16 17 0 30 5 30 10 0 6 -6 10 -14 10 -8
0 -21 3 -30 6 -11 4 -16 1 -16 -10z"/>
<path d="M515 1780 c-3 -5 -1 -10 4 -10 6 0 11 5 11 10 0 6 -2 10 -4 10 -3 0
-8 -4 -11 -10z"/>
<path d="M650 1741 c0 -6 17 -11 39 -11 22 0 41 -5 43 -11 2 -6 20 -11 41 -12
20 0 37 -5 37 -9 0 -13 294 -10 307 3 8 8 13 8 17 0 4 -6 0 -11 -8 -11 -9 0
-16 -4 -16 -9 0 -6 -63 -10 -150 -10 -87 0 -150 4 -150 10 0 5 -27 9 -60 9
-53 0 -60 -2 -60 -20 0 -20 7 -20 270 -20 263 0 270 0 270 20 0 17 -7 20 -40
20 -22 0 -40 5 -40 10 0 6 9 10 20 10 11 0 20 4 20 9 0 6 -102 11 -242 14
-134 2 -255 8 -270 12 -19 5 -28 4 -28 -4z"/>
<path d="M1230 1740 c0 -5 9 -10 20 -10 11 0 20 5 20 10 0 6 -9 10 -20 10 -11
0 -20 -4 -20 -10z"/>
<path d="M575 1630 c6 -18 2 -20 -34 -20 -35 0 -41 -3 -41 -21 0 -16 -4 -19
-20 -14 -16 5 -20 2 -20 -18 0 -20 -4 -24 -20 -20 -15 4 -20 0 -20 -16 0 -15
-6 -21 -21 -21 -16 0 -20 -5 -16 -20 4 -16 0 -20 -20 -20 -20 0 -23 -4 -18
-20 5 -16 2 -20 -14 -20 -18 0 -21 -6 -21 -41 0 -36 -2 -40 -20 -34 -18 6 -20
2 -20 -34 0 -41 0 -41 39 -41 39 0 39 0 38 37 -2 32 1 38 18 38 16 0 20 6 19
30 -1 17 -3 37 -6 45 -3 8 -3 12 -1 8 3 -5 12 -8 20 -8 10 0 13 -6 9 -16 -8
-22 21 -51 37 -35 8 8 7 11 -5 11 -13 0 -17 9 -16 40 0 28 5 40 15 40 10 0 12
-6 8 -20 -4 -11 -2 -20 4 -20 6 0 11 -18 11 -41 0 -36 -2 -40 -20 -34 -17 5
-20 2 -20 -20 0 -22 -3 -25 -20 -20 -18 6 -20 2 -20 -34 l0 -41 40 0 40 0 0
41 c0 36 2 40 20 34 17 -5 20 -2 20 20 0 22 3 25 20 20 16 -5 20 -2 20 18 0
21 4 24 21 20 18 -5 20 -3 14 16 -5 18 -2 21 20 21 22 0 25 3 20 20 -6 18 -2
20 34 20 l41 0 0 39 0 40 -40 -1 c-35 0 -40 -3 -35 -19 5 -15 1 -19 -20 -19
-22 0 -25 -3 -20 -20 6 -18 2 -20 -33 -20 -23 0 -42 5 -45 13 -4 10 -7 10 -18
0 -11 -11 -10 -13 4 -13 10 0 17 -8 17 -20 0 -13 -7 -20 -20 -20 -17 0 -20 7
-20 39 0 38 0 39 40 39 31 1 40 -3 40 -16 0 -12 3 -13 11 -5 16 16 -13 45 -35
37 -10 -4 -16 -1 -16 9 0 10 11 14 38 13 31 -1 37 2 37 19 0 17 6 20 38 18 37
-1 37 -1 37 38 0 39 0 39 -41 39 -36 0 -40 -2 -34 -20z m65 -24 c0 -11 -19
-15 -25 -6 -3 5 1 10 9 10 9 0 16 -2 16 -4z m-85 -44 c-7 -8 -45 20 -39 29 4
6 13 3 24 -8 9 -10 16 -19 15 -21z m118 -84 c-6 -11 -42 23 -36 34 2 4 12 0
23 -9 10 -9 17 -21 13 -25z m-124 -72 c0 -6 -3 -5 -6 2 -2 6 -11 12 -19 12
-15 0 -19 12 -7 24 8 8 33 -22 32 -38z m-189 -38 c0 -4 -9 0 -19 9 -11 9 -17
21 -14 26 6 10 33 -19 33 -35z m140 27 c0 -8 -4 -15 -10 -15 -5 0 -10 7 -10
15 0 8 5 15 10 15 6 0 10 -7 10 -15z m-175 -94 c3 -5 1 -12 -5 -16 -5 -3 -10
1 -10 9 0 18 6 21 15 7z m111 -49 c-4 -3 -11 0 -16 8 -15 24 -11 33 6 15 9 -9
13 -19 10 -23z"/>
<path d="M1270 1609 c0 -36 -2 -41 -20 -36 -13 3 -20 0 -20 -9 0 -12 5 -12 33
-2 49 20 82 17 82 -7 0 -17 6 -20 38 -19 30 1 37 -2 37 -17 0 -15 8 -19 40
-19 26 0 40 -5 40 -13 0 -9 11 -12 35 -9 41 5 37 22 -6 22 -22 0 -29 5 -29 20
0 25 -16 26 -29 3 -8 -15 -10 -11 -11 20 0 34 -2 38 -20 32 -16 -5 -20 -2 -20
14 0 18 -6 21 -41 21 -36 0 -40 2 -34 20 6 18 2 20 -34 20 l-41 0 0 -41z m40
-9 c0 -5 -7 -10 -15 -10 -8 0 -15 5 -15 10 0 6 7 10 15 10 8 0 15 -4 15 -10z
m90 -16 c0 -3 -6 -12 -14 -19 -17 -18 -29 -8 -13 11 12 14 27 18 27 8z"/>
<path d="M1617 1643 c-4 -3 -7 -12 -7 -20 0 -15 26 -18 34 -4 7 11 -18 33 -27
24z"/>
<path d="M1187 1633 c-46 -5 -39 -23 9 -23 24 0 34 5 34 15 0 8 -1 14 -2 13
-2 -1 -20 -3 -41 -5z"/>
<path d="M690 1620 c0 -5 18 -10 40 -10 22 0 40 -4 40 -8 0 -5 17 -9 37 -10
20 -1 40 -7 45 -14 6 -10 10 -10 18 2 5 8 10 10 10 5 0 -12 182 -15 191 -3 3
5 22 9 42 10 20 1 37 5 37 10 0 4 -85 8 -190 8 -120 0 -190 4 -190 10 0 6 -18
10 -40 10 -22 0 -40 -4 -40 -10z"/>
<path d="M672 1571 c-11 -7 -11 -9 2 -14 10 -4 16 -1 16 8 0 17 -1 17 -18 6z"/>
<path d="M730 1554 c0 -13 -5 -24 -11 -24 -5 0 -7 -5 -4 -11 5 -6 11 -5 18 5
10 13 45 15 235 13 221 -2 222 -2 222 19 0 21 -4 21 -57 16 -32 -3 -110 -6
-173 -6 -63 0 -141 3 -172 6 -56 6 -58 5 -58 -18z"/>
<path d="M206 1551 c-4 -5 0 -11 6 -14 10 -3 9 -8 -2 -22 -13 -16 -13 -18 0
-13 17 5 27 58 11 58 -5 0 -12 -4 -15 -9z"/>
<path d="M380 1530 c0 -5 5 -10 10 -10 6 0 10 5 10 10 0 6 -4 10 -10 10 -5 0
-10 -4 -10 -10z"/>
<path d="M1230 1500 c0 -40 0 -40 -39 -40 -29 0 -41 -5 -44 -17 -3 -16 -5 -16
-12 2 -11 26 -24 35 -52 35 -25 0 -31 15 -10 23 6 3 -44 5 -113 5 -69 0 -119
-2 -112 -5 21 -8 13 -23 -12 -23 -15 0 -32 -11 -45 -27 -16 -22 -20 -24 -21
-10 0 29 -80 20 -80 -9 0 -10 16 -14 61 -14 56 0 61 2 56 20 -4 17 0 20 34 20
32 0 39 3 39 20 0 17 7 20 51 20 41 0 50 -3 45 -15 -6 -18 2 -45 15 -45 5 0 9
14 9 30 0 23 4 30 20 30 13 0 20 -7 20 -20 0 -17 7 -20 41 -20 36 0 40 -2 34
-20 -6 -18 -2 -20 54 -20 54 0 61 2 61 20 0 17 7 20 41 20 36 0 40 -2 34 -20
-6 -18 -2 -20 37 -20 l44 0 -4 40 c-3 33 -1 40 14 40 15 0 16 2 5 13 -11 10
-14 10 -18 0 -3 -8 -21 -13 -43 -13 -33 0 -37 3 -33 20 5 18 0 20 -36 20 l-41
0 0 -40z m40 -8 c0 -13 -12 -22 -22 -16 -10 6 -1 24 13 24 5 0 9 -4 9 -8z
m100 -22 c0 -5 -7 -10 -15 -10 -8 0 -15 -5 -15 -12 0 -6 -2 -9 -5 -6 -3 3 -3
13 1 22 7 17 34 22 34 6z"/>
<path d="M770 1505 c0 -11 -8 -13 -30 -8 -19 3 -30 1 -30 -6 0 -15 42 -14 74
3 22 11 24 15 11 20 -23 9 -25 8 -25 -9z"/>
<path d="M1122 1511 c-10 -6 -9 -10 7 -14 14 -3 21 0 21 9 0 16 -9 18 -28 5z"/>
<path d="M1165 1490 c-4 -6 5 -10 19 -10 14 0 26 5 26 10 0 6 -9 10 -19 10
-11 0 -23 -4 -26 -10z"/>
<path d="M920 1460 c0 -13 7 -20 20 -20 24 0 25 6 6 26 -20 19 -26 18 -26 -6z"/>
<path d="M1413 1465 c-17 -18 -16 -33 1 -51 17 -16 46 -19 46 -4 0 6 -9 10
-20 10 -13 0 -20 7 -20 20 0 13 7 20 20 20 11 0 20 5 20 10 0 15 -33 11 -47
-5z"/>
<path d="M290 1429 c0 -5 5 -7 10 -4 6 3 10 8 10 11 0 2 -4 4 -10 4 -5 0 -10
-5 -10 -11z"/>
<path d="M630 1430 c0 -5 5 -10 10 -10 6 0 10 5 10 10 0 6 -4 10 -10 10 -5 0
-10 -4 -10 -10z"/>
<path d="M1270 1431 c0 -6 -9 -11 -20 -11 -11 0 -20 -4 -20 -10 0 -5 -9 -10
-20 -10 -11 0 -20 -4 -20 -10 0 -5 -19 -10 -42 -11 -35 0 -39 -2 -21 -9 13 -5
20 -16 19 -27 -2 -10 -1 -12 1 -5 3 6 13 12 24 12 10 0 19 7 19 15 0 11 12 15
50 15 47 0 66 12 38 23 -10 4 -10 8 1 15 9 7 10 12 2 16 -6 4 -11 2 -11 -3z"/>
<path d="M655 1410 c-3 -5 -17 -10 -31 -10 -20 0 -24 -5 -24 -28 0 -36 -16
-52 -52 -52 -15 0 -28 -4 -28 -9 0 -9 78 -6 87 3 4 3 6 19 7 36 1 16 4 30 9
30 4 0 30 0 57 0 39 0 50 -4 50 -16 0 -10 4 -12 13 -7 6 4 21 8 32 8 36 1 95
55 60 55 -9 0 -19 -9 -22 -20 -4 -16 -14 -20 -44 -20 -22 0 -39 5 -39 10 0 6
-9 10 -20 10 -11 0 -20 5 -20 10 0 6 -6 10 -14 10 -8 0 -18 -4 -21 -10z"/>
<path d="M880 1345 c0 -71 1 -75 23 -75 20 0 22 4 18 52 -1 29 -8 59 -13 66
-7 8 -7 12 1 12 6 0 11 -4 11 -10 0 -5 9 -10 20 -10 13 0 20 7 20 20 0 17 -7
20 -40 20 l-40 0 0 -75z"/>
<path d="M988 1403 c12 -8 22 -23 21 -32 0 -10 -2 -11 -6 -3 -8 20 -43 15 -43
-7 0 -16 7 -20 40 -19 40 0 40 1 40 39 0 38 -1 39 -37 38 -37 0 -38 0 -15 -16z"/>
<path d="M1057 1400 c3 -11 7 -20 9 -20 2 0 8 9 14 20 9 17 8 20 -9 20 -14 0
-18 -5 -14 -20z"/>
<path d="M1809 1391 c-3 -83 -1 -116 7 -109 10 11 14 127 4 133 -6 4 -10 -7
-11 -24z"/>
<path d="M1306 1403 c-13 -13 -5 -23 20 -23 14 0 35 -5 46 -11 14 -8 23 -8 31
0 8 8 6 11 -6 11 -9 0 -17 8 -17 17 0 13 -3 14 -11 6 -8 -8 -20 -8 -34 -3 -13
5 -26 6 -29 3z"/>
<path d="M97 1393 c-10 -16 -5 -108 6 -121 6 -8 12 -35 13 -60 0 -26 3 -54 6
-62 3 -8 3 -12 1 -7 -3 4 -11 7 -20 7 -10 0 -12 6 -8 20 4 11 2 20 -4 20 -8 0
-11 -79 -11 -250 0 -246 0 -250 -21 -250 -14 0 -18 -4 -12 -12 14 -23 12 -68
-3 -68 -10 0 -14 13 -14 40 0 30 -4 40 -16 40 -11 0 -14 -5 -10 -16 3 -9 6
-31 6 -50 0 -27 4 -34 20 -34 18 0 20 -7 20 -60 0 -53 2 -60 20 -60 13 0 20
-7 20 -20 0 -13 7 -20 20 -20 16 0 20 -7 20 -35 0 -28 4 -35 20 -35 13 0 20
-7 20 -20 0 -11 7 -20 15 -20 8 0 15 -9 15 -20 0 -13 7 -20 20 -20 13 0 20 -7
20 -20 0 -13 7 -20 20 -20 13 0 20 -7 20 -20 0 -13 7 -20 20 -20 11 0 20 -7
20 -15 0 -8 9 -15 20 -15 13 0 20 -7 20 -20 0 -13 7 -20 20 -20 13 0 20 -7 20
-20 0 -16 7 -20 35 -20 28 0 35 -4 35 -20 0 -17 7 -20 40 -20 33 0 40 -3 40
-19 0 -17 9 -20 68 -23 37 -1 69 0 70 5 2 4 9 4 15 0 19 -12 67 -12 67 0 0 7
4 7 12 -1 18 -18 25 -15 30 11 4 22 3 23 -46 16 -28 -4 -84 -8 -123 -8 -67 -1
-73 1 -73 19 0 17 -7 20 -40 20 -25 0 -40 5 -40 13 0 8 18 12 59 11 58 0 120
13 76 16 -11 1 -62 1 -112 0 l-93 -1 0 35 c0 38 8 44 28 24 9 -9 12 -8 12 5 0
13 9 17 40 17 33 0 40 -3 40 -20 0 -17 7 -20 41 -20 36 0 40 2 37 23 -2 17 -9
21 -26 19 -20 -3 -23 0 -17 17 6 19 2 21 -34 21 -29 0 -41 4 -41 14 0 9 7 12
20 9 11 -3 20 0 20 6 0 7 21 11 55 11 48 0 55 2 55 20 0 14 -7 20 -21 20 -16
0 -19 4 -14 21 6 17 3 20 -17 17 -17 -2 -23 2 -22 15 2 16 -16 22 -58 19 -12
-1 -18 5 -18 18 0 13 -7 20 -20 20 -17 0 -20 -7 -20 -41 0 -36 2 -40 20 -34
16 5 20 2 20 -14 0 -21 17 -26 64 -21 11 1 16 -3 14 -12 -3 -7 -12 -12 -22
-10 -9 2 -16 -2 -16 -8 0 -5 -18 -10 -40 -10 -33 0 -40 3 -40 20 0 13 -7 20
-20 20 -14 0 -20 7 -20 21 0 16 -4 19 -21 14 -17 -6 -20 -3 -17 17 2 19 -1 22
-20 20 -20 -3 -23 0 -17 17 5 17 2 21 -14 21 -14 0 -21 6 -21 20 0 13 -7 20
-20 20 -17 0 -20 7 -20 40 0 22 5 40 11 40 5 0 8 4 4 10 -3 5 -14 2 -25 -7
-14 -13 -17 -20 -8 -30 8 -10 6 -13 -6 -13 -9 0 -16 -8 -16 -17 0 -14 -2 -15
-12 -4 -10 11 -10 14 -1 18 8 3 13 22 13 44 0 37 -1 39 -32 39 -25 0 -29 3
-18 10 8 5 23 7 33 4 10 -3 17 0 17 8 0 8 -15 14 -39 15 l-39 2 0 -39 c-1 -33
3 -40 19 -40 16 0 19 -7 19 -40 0 -27 -4 -40 -14 -40 -10 0 -12 -9 -6 -40 6
-31 4 -40 -6 -40 -9 0 -14 12 -14 35 0 28 -4 35 -20 35 -13 0 -20 7 -20 20 0
14 -7 20 -21 20 -19 0 -20 5 -18 88 1 48 5 95 10 104 5 9 10 30 12 46 2 17 12
38 22 48 18 19 19 18 11 -1 -5 -11 -9 -44 -10 -72 l-2 -53 38 2 c37 1 38 2 38
40 0 21 5 38 10 38 6 0 10 9 10 20 0 11 5 20 10 20 6 0 10 -18 10 -40 0 -33 3
-40 20 -40 19 0 20 7 20 115 l0 115 -40 0 -40 0 0 -87 c0 -93 -15 -168 -31
-158 -12 8 -12 575 0 575 13 0 21 -27 15 -45 -4 -8 -1 -15 5 -15 7 0 11 -32
11 -95 l0 -95 40 0 40 0 0 115 c0 110 -1 115 -21 115 -20 0 -21 -4 -17 -68 2
-47 0 -65 -7 -58 -5 6 -11 27 -12 46 -2 19 -7 36 -13 38 -5 2 -10 21 -10 43 0
39 0 39 -39 39 l-39 0 0 60 c1 59 -5 80 -15 63z m39 -433 c-1 -90 -5 -149 -11
-148 -9 3 -16 283 -7 301 13 27 19 -22 18 -153z m114 91 c0 -17 -4 -33 -10
-36 -6 -4 -10 8 -10 29 0 20 5 36 10 36 6 0 10 -13 10 -29z m0 -182 c0 -16 -4
-29 -10 -29 -5 0 -10 16 -10 36 0 21 4 33 10 29 6 -3 10 -19 10 -36z m-8 -57
c-7 -2 -12 -11 -12 -20 0 -12 -3 -13 -11 -5 -13 13 10 45 26 35 5 -3 4 -7 -3
-10z m-12 -372 c0 -13 7 -20 20 -20 16 0 20 -7 20 -34 0 -36 -12 -46 -56 -46
-16 0 -24 6 -24 17 0 13 3 14 12 5 16 -16 28 -15 28 3 0 8 -9 15 -20 15 -17 0
-20 7 -20 40 0 33 3 40 20 40 13 0 20 -7 20 -20z m93 -47 c-7 -2 -13 -11 -13
-19 0 -15 -12 -19 -23 -7 -8 7 23 33 38 32 6 0 4 -3 -2 -6z m30 -53 c-9 -10
-21 -17 -25 -13 -11 6 23 42 34 36 4 -2 0 -12 -9 -23z m196 4 c-6 -8 -17 -14
-23 -13 -7 0 -6 2 2 6 6 2 12 11 12 19 0 9 5 12 10 9 8 -5 7 -11 -1 -21z
m-239 -14 c0 -11 -6 -20 -14 -20 -22 0 -28 -16 -10 -31 13 -10 16 -9 21 9 7
28 43 30 43 3 0 -14 -10 -20 -41 -25 -23 -4 -43 -5 -46 -3 -2 3 -1 23 3 46 5
31 11 41 25 41 12 0 19 -7 19 -20z m-62 -18 c2 -7 -3 -12 -12 -12 -9 0 -16 7
-16 16 0 17 22 14 28 -4z m157 8 c3 -5 1 -10 -4 -10 -6 0 -11 5 -11 10 0 6 2
10 4 10 3 0 8 -4 11 -10z m-25 -26 c0 -8 -4 -12 -10 -9 -5 3 -10 10 -10 16 0
5 5 9 10 9 6 0 10 -7 10 -16z m40 -44 c0 -13 7 -20 20 -20 13 0 20 -7 20 -20
0 -17 -7 -20 -40 -20 -34 0 -40 3 -40 21 0 19 -4 20 -40 14 -33 -6 -40 -4 -40
9 0 19 16 21 26 4 5 -7 10 -4 15 10 12 31 79 32 79 2z m-55 -50 c3 -5 -1 -10
-9 -10 -9 0 -16 5 -16 10 0 6 4 10 9 10 6 0 13 -4 16 -10z m35 -35 c10 -12 10
-15 -4 -15 -9 0 -16 7 -16 15 0 8 2 15 4 15 2 0 9 -7 16 -15z"/>
<path d="M846 1345 c1 -51 14 -56 14 -7 0 23 -3 42 -7 42 -5 0 -8 -16 -7 -35z"/>
<path d="M556 1362 c-3 -6 -1 -14 5 -17 15 -10 25 3 12 16 -7 7 -13 7 -17 1z"/>
<path d="M1310 1345 c1 -26 2 -28 11 -12 8 14 8 22 0 30 -8 8 -11 3 -11 -18z"/>
<path d="M1349 1363 c-1 -4 -2 -17 -3 -27 -1 -12 -14 -24 -36 -32 -19 -7 -27
-13 -17 -13 23 -1 41 -47 27 -69 -7 -14 -9 -10 -10 16 0 27 -4 32 -24 32 -19
0 -23 -4 -19 -20 4 -14 0 -20 -10 -20 -9 0 -18 8 -20 18 -3 9 -5 0 -6 -20 l-1
-38 58 0 58 0 -4 62 -5 61 32 -6 c28 -6 31 -4 31 18 0 14 -4 25 -10 25 -5 0
-10 -7 -10 -16 0 -8 -5 -12 -11 -9 -6 4 -8 13 -5 21 3 7 1 16 -4 19 -6 4 -11
3 -11 -2z"/>
<path d="M690 1346 c0 -9 5 -16 10 -16 6 0 10 4 10 9 0 6 -4 13 -10 16 -5 3
-10 -1 -10 -9z"/>
<path d="M635 1341 c-3 -5 -1 -12 5 -16 5 -3 10 1 10 9 0 18 -6 21 -15 7z"/>
<path d="M1230 1325 c0 -18 -4 -22 -20 -18 -15 4 -20 0 -20 -16 0 -19 5 -22
38 -19 33 3 37 6 40 34 2 25 -1 33 -17 37 -17 4 -21 0 -21 -18z"/>
<path d="M1082 1328 c3 -7 13 -15 24 -17 16 -3 17 -1 5 13 -16 19 -34 21 -29
4z"/>
<path d="M1190 1329 c0 -5 5 -7 10 -4 6 3 10 8 10 11 0 2 -4 4 -10 4 -5 0 -10
-5 -10 -11z"/>
<path d="M1846 1309 c-7 -36 -1 -50 19 -43 10 4 11 12 6 27 -5 12 -9 26 -9 30
-1 22 -10 14 -16 -14z"/>
<path d="M740 1318 c0 -4 16 -8 35 -8 19 0 35 2 35 4 0 2 -16 6 -35 8 -19 2
-35 0 -35 -4z"/>
<path d="M944 1318 c-3 -4 9 -8 25 -8 25 0 31 -4 31 -22 0 -20 5 -23 37 -22
30 1 39 5 41 22 3 17 -2 20 -34 20 -20 0 -40 5 -43 11 -7 11 -50 11 -57 -1z"/>
<path d="M611 1249 c2 -54 3 -59 24 -59 18 0 22 -4 18 -20 -5 -18 0 -20 56
-20 l61 0 0 -40 c0 -34 3 -40 21 -40 15 0 20 5 17 22 -3 21 1 23 40 21 30 -2
42 1 39 10 -2 7 -12 11 -21 11 -9 -1 -16 2 -16 7 0 5 -18 9 -40 9 -33 0 -40 3
-40 20 0 13 7 20 20 20 17 0 20 7 20 40 0 33 -3 40 -20 40 -16 0 -20 -7 -20
-35 0 -25 -5 -38 -17 -42 -10 -4 -21 -11 -24 -16 -4 -6 -19 -6 -35 -2 -16 4
-23 10 -16 12 8 3 12 25 12 62 l0 57 -40 1 -40 2 1 -60z m57 24 c-13 -3 -18
-15 -18 -39 0 -19 -4 -33 -9 -30 -9 6 -12 55 -4 69 2 4 14 6 26 6 17 -1 18 -2
5 -6z"/>
<path d="M1150 1271 c0 -40 1 -41 36 -41 21 0 33 4 29 10 -3 6 -15 10 -26 10
-16 0 -20 6 -17 27 2 15 -2 28 -9 30 -9 3 -13 -8 -13 -36z"/>
<path d="M236 1291 c-4 -7 -5 -15 -2 -18 9 -9 19 4 14 18 -4 11 -6 11 -12 0z"/>
<path d="M715 1290 c3 -5 8 -10 11 -10 2 0 4 5 4 10 0 6 -5 10 -11 10 -5 0 -7
-4 -4 -10z"/>
<path d="M1121 1284 c0 -11 3 -14 6 -6 3 7 2 16 -1 19 -3 4 -6 -2 -5 -13z"/>
<path d="M1670 1285 c0 -8 5 -15 10 -15 6 0 10 7 10 15 0 8 -4 15 -10 15 -5 0
-10 -7 -10 -15z"/>
<path d="M480 1280 c0 -5 5 -10 10 -10 6 0 10 -9 10 -20 0 -11 5 -20 11 -20 6
0 9 -9 6 -20 -3 -13 0 -20 10 -20 12 0 14 -10 11 -45 -4 -50 6 -60 16 -17 4
15 9 35 12 45 4 11 0 17 -10 17 -12 0 -16 10 -16 40 0 33 -3 40 -20 40 -11 0
-20 5 -20 10 0 6 -4 10 -10 10 -5 0 -10 -4 -10 -10z"/>
<path d="M947 1284 c-3 -5 1 -15 9 -22 16 -14 18 -5 5 17 -5 7 -11 9 -14 5z"/>
<path d="M1420 1279 c0 -6 -8 -9 -20 -6 -16 4 -20 0 -20 -19 0 -17 6 -24 20
-24 13 0 20 7 20 19 0 11 5 21 12 23 9 3 9 6 0 12 -7 4 -12 2 -12 -5z"/>
<path d="M583 1230 c0 -25 2 -35 4 -22 2 12 2 32 0 45 -2 12 -4 2 -4 -23z"/>
<path d="M710 1260 c0 -5 5 -10 10 -10 6 0 10 5 10 10 0 6 -4 10 -10 10 -5 0
-10 -4 -10 -10z"/>
<path d="M1730 1251 c0 -11 -6 -21 -12 -24 -7 -2 -10 -8 -6 -12 11 -12 38 14
38 36 0 11 -4 19 -10 19 -5 0 -10 -9 -10 -19z"/>
<path d="M1768 1144 c3 -89 0 -124 -7 -120 -6 4 -11 0 -11 -8 0 -9 7 -16 15
-16 11 0 15 12 16 40 1 22 2 56 3 75 0 21 6 35 14 35 6 0 12 5 12 12 0 6 3 9
6 5 3 -3 2 -12 -2 -19 -5 -7 -10 -43 -10 -80 l-1 -68 38 0 c39 0 39 0 39 -40
0 -40 0 -40 -38 -40 l-39 0 2 -67 c1 -38 4 -75 7 -83 3 -8 3 -12 1 -7 -3 4
-10 7 -17 7 -7 0 -11 13 -11 33 0 17 -2 46 -6 62 -4 18 -7 -14 -8 -77 0 -58
-4 -113 -7 -122 -5 -12 0 -16 19 -16 24 0 25 3 22 40 -3 31 0 40 12 40 10 0
13 -6 9 -16 -3 -8 0 -22 8 -30 17 -16 36 -19 36 -4 0 6 -7 10 -15 10 -13 0
-15 16 -13 108 2 67 7 105 13 102 6 -3 10 -15 10 -27 1 -39 15 -38 15 1 0 29
4 39 20 43 21 6 28 43 8 43 -9 0 -9 3 0 12 18 18 15 28 -8 28 -13 0 -20 7 -20
20 0 11 -4 20 -10 20 -5 0 -10 -7 -10 -16 0 -8 -4 -12 -10 -9 -6 3 -10 52 -10
111 0 86 3 104 15 104 8 0 15 5 15 10 0 6 -5 10 -10 10 -19 0 -37 -24 -32 -42
3 -12 -1 -18 -11 -18 -12 0 -15 9 -12 40 3 36 1 40 -18 40 -22 0 -22 -2 -19
-126z"/>
<path d="M346 1245 c-3 -8 -1 -15 4 -15 6 0 10 7 10 15 0 8 -2 15 -4 15 -2 0
-6 -7 -10 -15z"/>
<path d="M830 1245 c0 -8 4 -15 10 -15 5 0 7 7 4 15 -4 8 -8 15 -10 15 -2 0
-4 -7 -4 -15z"/>
<path d="M1000 1239 c0 -5 -18 -9 -40 -9 -33 0 -40 -3 -40 -20 0 -17 -7 -20
-41 -20 -33 0 -40 -3 -35 -16 3 -9 6 -18 6 -20 0 -2 50 -4 110 -4 61 0 110 2
110 4 0 2 3 11 6 20 5 13 -2 16 -35 16 -34 0 -41 3 -41 20 0 17 7 20 39 20 22
0 41 -5 44 -12 4 -10 7 -10 18 0 11 10 10 12 -4 12 -9 0 -17 4 -17 8 0 4 -18
8 -40 9 -22 1 -40 -2 -40 -8z m-10 -59 c0 -5 -11 -10 -24 -10 -14 0 -28 5 -31
10 -4 6 7 10 24 10 17 0 31 -4 31 -10z"/>
<path d="M878 1233 c7 -3 16 -2 19 1 4 3 -2 6 -13 5 -11 0 -14 -3 -6 -6z"/>
<path d="M288 1190 c2 -22 8 -40 13 -40 5 0 9 -35 9 -78 l0 -78 38 4 37 4 -3
54 c-2 30 -1 62 2 71 6 14 8 14 20 -2 12 -17 13 -17 19 4 4 17 1 21 -20 21
-39 0 -26 34 17 41 39 7 38 10 -2 15 -16 1 -28 -1 -28 -7 0 -5 -11 -9 -24 -9
-23 0 -24 -2 -20 -60 2 -34 -1 -60 -6 -60 -9 0 -12 11 -14 58 -1 9 -5 20 -9
23 -5 4 -9 23 -9 43 0 21 -5 36 -12 36 -7 0 -10 -14 -8 -40z m67 -140 c3 -5
-1 -10 -9 -10 -9 0 -16 5 -16 10 0 6 4 10 9 10 6 0 13 -4 16 -10z"/>
<path d="M466 1214 c-12 -30 -6 -62 12 -67 16 -4 16 -5 0 -6 -10 0 -18 -8 -18
-16 0 -8 -4 -15 -9 -15 -5 0 -11 -12 -13 -27 l-4 -28 -11 25 c-11 22 -12 20
-11 -25 0 -27 2 -42 5 -32 3 13 11 17 24 14 16 -4 19 0 19 34 0 32 3 39 20 39
18 0 20 7 20 60 0 45 -4 60 -14 60 -8 0 -17 -7 -20 -16z"/>
<path d="M710 1221 c0 -18 17 -20 36 -6 18 14 18 14 -8 15 -16 0 -28 -4 -28
-9z"/>
<path d="M1420 1191 c0 -35 3 -41 21 -41 17 0 20 5 17 37 -2 27 -8 39 -20 41
-15 3 -18 -4 -18 -37z"/>
<path d="M1610 1220 c0 -5 5 -10 10 -10 6 0 10 5 10 10 0 6 -4 10 -10 10 -5 0
-10 -4 -10 -10z"/>
<path d="M1650 1117 c0 -63 -3 -117 -7 -120 -11 -12 -14 -77 -3 -77 6 0 10
-43 10 -115 0 -108 1 -115 20 -115 17 0 20 7 20 40 0 23 5 40 11 40 6 0 9 -9
6 -20 -3 -13 0 -20 9 -20 11 0 14 20 14 95 l0 95 -40 0 -40 0 0 40 0 40 40 0
40 0 0 95 c0 75 -3 95 -14 95 -9 0 -12 -7 -9 -20 3 -11 0 -20 -6 -20 -6 0 -11
17 -11 40 0 33 -3 40 -20 40 -19 0 -20 -7 -20 -113z m42 -44 c-5 -75 -23 -85
-21 -13 1 28 6 50 11 50 4 0 8 8 8 17 0 9 2 14 4 12 2 -2 1 -32 -2 -66z m0
-222 c2 -42 0 -57 -8 -50 -13 11 -18 109 -5 109 5 0 11 -27 13 -59z"/>
<path d="M19 1215 c-14 -23 -19 -65 -8 -65 8 0 8 -4 0 -13 -7 -10 -7 -17 0
-24 8 -8 8 -13 0 -17 -7 -5 -7 -13 2 -27 8 -13 9 -22 2 -27 -20 -14 -17 -42 5
-42 17 0 20 -6 20 -40 0 -33 -3 -40 -20 -40 -11 0 -20 -4 -20 -10 0 -5 3 -10
8 -10 8 0 9 -86 0 -95 -7 -7 0 -83 9 -98 11 -17 22 53 22 141 1 39 5 72 11 72
10 0 7 66 -4 77 -3 3 -6 38 -7 77 0 80 -11 156 -20 141z"/>
<path d="M1370 1200 c0 -6 7 -10 15 -10 8 0 15 2 15 4 0 2 -7 6 -15 10 -8 3
-15 1 -15 -4z"/>
<path d="M1480 1186 c0 -13 6 -36 14 -50 11 -22 15 -24 20 -11 8 23 8 25 -7
25 -7 0 -13 9 -13 20 0 13 7 20 18 20 10 0 18 5 18 10 0 6 -11 10 -25 10 -20
0 -25 -5 -25 -24z"/>
<path d="M1153 1178 c2 -7 11 -12 21 -10 9 2 16 -2 16 -8 0 -6 30 -10 75 -10
43 0 75 4 75 10 0 6 -25 10 -55 10 -30 0 -55 5 -55 10 0 6 -18 10 -41 10 -28
0 -39 -4 -36 -12z"/>
<path d="M1540 1173 c0 -10 -2 -114 -3 -231 l-2 -212 23 0 c19 0 22 4 17 21
-6 19 -4 21 14 16 21 -5 21 -4 21 189 l0 194 -30 0 c-16 0 -30 5 -30 10 0 6 7
10 15 10 8 0 15 5 15 10 0 6 -9 10 -20 10 -12 0 -20 -7 -20 -17z m51 -56 c-13
-13 -26 -3 -16 12 3 6 11 8 17 5 6 -4 6 -10 -1 -17z m-9 -46 c-12 -7 -10 -206
3 -236 7 -19 7 -19 -10 -3 -15 14 -17 33 -16 129 1 68 7 119 14 127 8 11 12
11 15 2 3 -7 0 -15 -6 -19z m9 -274 c-1 -12 -15 -9 -19 4 -3 6 1 10 8 8 6 -3
11 -8 11 -12z"/>
<path d="M1591 1187 c2 -1 12 -9 22 -16 14 -12 17 -11 17 3 0 10 -8 16 -22 16
-12 0 -19 -1 -17 -3z"/>
<path d="M1362 1145 c-10 -21 -9 -25 3 -25 9 0 15 10 15 25 0 14 -2 25 -3 25
-2 0 -9 -11 -15 -25z"/>
<path d="M594 1139 c-3 -6 -1 -16 5 -22 8 -8 11 -5 11 11 0 24 -5 28 -16 11z"/>
<path d="M1070 1140 c0 -6 -7 -10 -16 -8 -10 2 -19 -2 -21 -9 -3 -9 9 -12 39
-10 37 2 43 -1 43 -18 0 -18 -6 -20 -57 -19 -38 1 -58 -2 -58 -10 0 -13 91
-14 128 -1 18 6 22 15 22 46 0 39 0 39 -40 39 -22 0 -40 -5 -40 -10z"/>
<path d="M650 1124 c0 -8 9 -14 20 -14 11 0 20 6 20 13 0 7 -9 13 -20 14 -11
1 -20 -4 -20 -13z"/>
<path d="M1176 1131 c-4 -7 -5 -15 -2 -18 9 -9 19 4 14 18 -4 11 -6 11 -12 0z"/>
<path d="M1420 1124 c0 -11 6 -14 20 -9 18 6 20 2 20 -33 0 -34 3 -40 25 -44
17 -4 25 -1 25 8 0 8 -7 14 -16 14 -12 0 -15 6 -10 25 5 20 1 27 -23 40 -37
19 -41 19 -41 -1z"/>
<path d="M900 1120 c0 -5 5 -10 10 -10 6 0 10 5 10 10 0 6 -4 10 -10 10 -5 0
-10 -4 -10 -10z"/>
<path d="M1000 1120 c0 -5 5 -10 10 -10 6 0 10 5 10 10 0 6 -4 10 -10 10 -5 0
-10 -4 -10 -10z"/>
<path d="M1205 1120 c3 -5 10 -10 16 -10 5 0 9 5 9 10 0 6 -7 10 -16 10 -8 0
-12 -4 -9 -10z"/>
<path d="M1274 1101 c35 -5 37 -8 23 -20 -10 -8 -27 -11 -42 -7 -23 6 -25 4
-24 -26 0 -31 1 -32 11 -10 7 13 20 22 34 22 13 0 26 5 29 10 3 6 18 10 32 10
21 0 24 2 13 15 -8 10 -29 15 -64 14 -50 -2 -50 -2 -12 -8z"/>
<path d="M826 1091 c-4 -5 -2 -12 3 -15 5 -4 12 -2 15 3 4 5 2 12 -3 15 -5 4
-12 2 -15 -3z"/>
<path d="M1410 1090 c0 -5 -7 -10 -15 -10 -8 0 -15 -4 -15 -10 0 -5 9 -10 20
-10 13 0 20 7 20 20 0 11 -2 20 -5 20 -3 0 -5 -4 -5 -10z"/>
<path d="M500 1068 c0 -27 2 -28 53 -27 36 0 46 3 32 8 -11 5 -29 7 -40 7 -11
-1 -25 8 -32 19 -12 19 -12 19 -13 -7z"/>
<path d="M628 1083 c6 -2 18 -2 25 0 6 3 1 5 -13 5 -14 0 -19 -2 -12 -5z"/>
<path d="M681 1068 c0 -16 2 -18 6 -8 3 8 11 18 17 22 7 5 4 8 -6 8 -12 0 -18
-7 -17 -22z"/>
<path d="M730 1040 c0 -35 -3 -40 -23 -40 -20 0 -22 -4 -19 -40 l4 -40 -40 0
c-23 0 -42 -5 -45 -12 -3 -10 -9 -10 -25 -1 -11 6 -30 10 -43 7 -13 -2 -18 -2
-11 2 6 3 12 12 12 19 0 8 7 11 20 8 11 -3 20 -9 20 -14 0 -5 7 -9 15 -9 8 0
15 9 15 20 0 18 -7 20 -55 20 l-55 0 0 -40 0 -40 75 1 c58 1 77 5 85 18 9 15
9 14 10 -1 0 -28 -4 -33 -25 -34 -37 -1 -30 -19 8 -20 37 -1 37 -1 37 37 0 32
3 39 20 39 16 0 20 7 20 36 0 21 4 33 10 29 6 -3 10 -19 10 -36 0 -16 -4 -29
-10 -29 -5 0 -10 -18 -10 -40 0 -22 5 -40 10 -40 6 0 10 9 10 19 0 11 5 23 10
26 6 3 10 46 10 95 0 71 -3 89 -16 94 -24 9 -24 9 -24 -34z"/>
<path d="M1165 1071 c-3 -5 -1 -12 4 -16 6 -3 8 -12 5 -19 -3 -8 -1 -17 5 -21
7 -4 11 7 11 29 0 34 -12 47 -25 27z"/>
<path d="M785 1051 c-6 -11 9 -23 19 -14 9 9 7 23 -3 23 -6 0 -12 -4 -16 -9z"/>
<path d="M612 1028 c5 -15 37 -18 41 -3 1 6 -9 12 -22 13 -16 3 -22 -1 -19
-10z"/>
<path d="M670 1031 c0 -6 5 -13 10 -16 6 -3 10 1 10 9 0 9 -4 16 -10 16 -5 0
-10 -4 -10 -9z"/>
<path d="M960 959 c0 -76 -1 -80 -20 -74 -16 5 -20 2 -20 -17 0 -22 -5 -24
-55 -26 -49 -2 -55 0 -55 18 0 13 -7 20 -20 20 -17 0 -20 -7 -20 -39 0 -35 2
-39 22 -33 18 4 20 2 16 -16 -6 -22 -5 -22 152 -22 157 0 158 0 152 22 -4 18
-2 20 16 16 21 -6 22 -3 22 83 0 53 4 89 10 89 5 0 10 -15 9 -32 -1 -66 3
-108 12 -108 5 0 9 36 9 80 0 73 -2 80 -20 80 -13 0 -20 7 -20 20 0 18 -7 20
-75 20 -68 0 -75 -2 -75 -20 0 -11 -7 -20 -16 -20 -11 0 -14 6 -9 20 4 11 2
20 -4 20 -7 0 -11 -30 -11 -81z m160 36 c-7 -9 -10 -27 -6 -45 5 -30 5 -30
-37 -30 -42 0 -42 0 -42 37 0 37 1 38 45 44 25 3 47 7 49 7 2 1 -2 -5 -9 -13z
m-120 -25 c0 -5 -4 -10 -10 -10 -5 0 -10 5 -10 10 0 6 5 10 10 10 6 0 10 -4
10 -10z m10 -50 c0 -18 7 -20 60 -20 47 0 60 -3 60 -15 0 -8 -7 -15 -16 -15
-9 0 -18 -9 -21 -19 -3 -11 -13 -21 -24 -24 -10 -3 -19 -12 -19 -21 0 -13 -14
-16 -90 -16 -73 0 -90 3 -90 15 0 11 11 15 36 15 27 0 37 5 41 20 3 11 12 20
19 20 10 0 14 13 14 40 0 29 4 40 15 40 8 0 15 -9 15 -20z m120 -86 c0 -8 -4
-12 -10 -9 -5 3 -10 10 -10 16 0 5 5 9 10 9 6 0 10 -7 10 -16z m-282 -35 c-2
-6 -8 -10 -13 -10 -5 0 -11 4 -13 10 -2 6 4 11 13 11 9 0 15 -5 13 -11z m252
1 c0 -5 -7 -10 -15 -10 -8 0 -15 5 -15 10 0 6 7 10 15 10 8 0 15 -4 15 -10z"/>
<path d="M1076 972 c-2 -4 -1 -14 5 -22 7 -12 9 -10 9 8 0 23 -5 28 -14 14z"/>
<path d="M1270 1028 c0 -9 16 -12 54 -10 30 2 63 -1 73 -7 16 -9 15 -10 -9
-11 -16 0 -28 -3 -28 -6 0 -10 28 -34 39 -34 6 0 11 -4 11 -10 0 -5 -16 -10
-36 -10 -35 0 -36 1 -30 30 5 26 3 30 -17 30 -20 0 -22 -5 -22 -40 0 -40 0
-40 37 -40 32 0 38 -3 38 -21 0 -18 5 -20 27 -16 42 8 53 -1 53 -45 0 -35 2
-39 20 -33 14 4 20 2 20 -9 0 -8 -4 -18 -10 -21 -14 -9 -13 -65 1 -65 7 0 9
11 6 30 -5 23 -3 30 9 30 11 0 14 5 9 18 -4 9 -10 25 -12 35 -3 9 -9 17 -14
17 -5 0 -9 7 -9 16 0 14 3 14 15 4 10 -9 15 -9 15 -1 0 21 -5 25 -27 23 -22
-3 -23 0 -23 57 0 48 -3 61 -15 61 -18 0 -19 -12 -3 -28 9 -9 8 -12 -5 -12
-13 0 -17 9 -17 40 l0 40 -75 0 c-53 0 -75 -4 -75 -12z m175 -118 c-3 -5 -10
-10 -16 -10 -5 0 -9 5 -9 10 0 6 7 10 16 10 8 0 12 -4 9 -10z"/>
<path d="M394 986 c-7 -7 -27 -11 -48 -10 -20 2 -36 -1 -36 -6 0 -6 18 -10 40
-10 33 0 40 -3 40 -20 0 -17 -7 -20 -40 -20 l-40 0 0 -75 c0 -41 -4 -75 -9
-75 -5 0 -11 -18 -13 -40 -2 -28 0 -40 9 -40 8 0 13 14 13 40 0 22 4 40 10 40
5 0 9 8 8 18 -3 35 2 62 12 62 5 0 8 -26 6 -60 -4 -57 -3 -60 18 -60 22 0 23
2 18 91 -4 85 -3 91 17 96 17 4 21 13 21 44 0 41 -7 47 -26 25z m-34 -95 c0
-5 -7 -12 -16 -15 -14 -5 -15 -4 -4 9 14 17 20 19 20 6z"/>
<path d="M460 960 c0 -22 5 -40 11 -40 6 0 9 12 7 28 -3 29 5 32 85 32 20 0
37 5 37 10 0 6 -30 10 -70 10 l-70 0 0 -40z"/>
<path d="M610 980 c0 -14 7 -20 24 -20 19 0 23 4 19 20 -3 11 -14 20 -24 20
-12 0 -19 -7 -19 -20z"/>
<path d="M810 960 c0 -22 4 -40 9 -40 6 0 9 18 8 40 -1 22 -5 40 -9 40 -4 0
-8 -18 -8 -40z"/>
<path d="M843 960 c-2 -34 1 -40 18 -40 16 0 19 7 19 40 0 32 -4 40 -18 40
-14 0 -18 -9 -19 -40z"/>
<path d="M1210 991 c0 -5 5 -11 11 -13 8 -3 8 -11 -2 -27 -11 -19 -11 -25 -1
-28 6 -3 12 -21 12 -42 0 -37 1 -38 38 -36 20 0 35 5 32 10 -3 5 -14 8 -26 7
-16 -2 -23 5 -32 36 -16 54 -15 62 8 62 17 0 20 -7 20 -39 l0 -39 45 0 c25 0
45 4 45 9 0 5 -11 9 -23 9 -36 0 -58 30 -51 68 6 32 6 32 -35 32 -22 0 -41 -4
-41 -9z"/>
<path d="M1499 963 c-2 -24 -1 -43 3 -43 12 0 14 14 8 50 l-6 35 -5 -42z"/>
<path d="M190 969 c0 -5 18 -9 40 -9 22 0 40 4 40 8 0 4 -18 8 -40 9 -22 1
-40 -2 -40 -8z"/>
<path d="M1690 970 c0 -5 9 -10 20 -10 11 0 20 5 20 10 0 6 -9 10 -20 10 -11
0 -20 -4 -20 -10z"/>
<path d="M1750 970 c0 -5 5 -10 10 -10 6 0 10 5 10 10 0 6 -4 10 -10 10 -5 0
-10 -4 -10 -10z"/>
<path d="M1800 970 c0 -5 15 -10 33 -10 24 0 28 3 17 10 -20 13 -50 13 -50 0z"/>
<path d="M920 910 c0 -5 5 -10 10 -10 6 0 10 5 10 10 0 6 -4 10 -10 10 -5 0
-10 -4 -10 -10z"/>
<path d="M1750 905 c0 -9 6 -12 15 -9 8 4 15 10 15 15 0 5 -7 9 -15 9 -8 0
-15 -7 -15 -15z"/>
<path d="M412 875 c0 -22 2 -34 5 -27 8 20 23 14 23 -10 1 -26 18 -52 40 -61
12 -4 11 -6 -3 -6 -26 -1 -20 -74 6 -79 15 -3 17 5 17 58 0 57 -1 61 -20 55
-18 -6 -20 -2 -20 34 0 34 -3 41 -19 41 -11 0 -22 8 -24 18 -3 9 -5 -1 -5 -23z"/>
<path d="M833 873 c9 -2 23 -2 30 0 6 3 -1 5 -18 5 -16 0 -22 -2 -12 -5z"/>
<path d="M880 870 c0 -5 4 -10 9 -10 6 0 13 5 16 10 3 6 -1 10 -9 10 -9 0 -16
-4 -16 -10z"/>
<path d="M500 854 c0 -8 16 -10 48 -6 63 6 63 9 3 13 -33 3 -51 0 -51 -7z"/>
<path d="M1380 855 c0 -10 -11 -15 -35 -15 -22 0 -35 -5 -35 -13 0 -7 12 -13
28 -12 21 0 28 -5 30 -22 2 -13 -1 -23 -7 -23 -6 0 -11 -9 -11 -20 0 -11 6
-20 14 -20 8 0 16 -6 19 -12 2 -8 8 -9 13 -4 5 5 4 11 -3 13 -8 3 -13 25 -13
59 0 47 2 54 20 54 11 0 20 7 20 15 0 8 -9 15 -20 15 -11 0 -20 -7 -20 -15z"/>
<path d="M690 820 c-9 -17 -17 -20 -40 -15 -16 3 -31 2 -35 -4 -4 -7 8 -11 34
-11 23 0 41 5 41 10 0 18 38 11 42 -7 2 -12 6 -14 10 -7 4 6 -3 21 -16 33
l-24 23 -12 -22z"/>
<path d="M1887 833 c-9 -8 -9 -80 -1 -110 3 -12 12 -19 18 -17 15 6 17 64 2
64 -6 0 -5 5 2 12 9 9 9 15 0 26 -9 10 -8 16 3 23 12 7 12 9 -2 9 -9 0 -19 -3
-22 -7z"/>
<path d="M405 797 c-8 -19 -2 -31 13 -26 5 2 6 13 2 24 -7 19 -8 19 -15 2z"/>
<path d="M540 770 c0 -22 -5 -40 -11 -40 -6 0 -8 -9 -4 -20 5 -14 2 -20 -9
-20 -9 0 -16 -8 -16 -19 0 -11 -3 -21 -7 -24 -5 -2 -2 -2 5 0 8 1 20 3 28 3
10 0 14 12 14 41 0 33 3 40 18 37 14 -3 17 -15 18 -73 1 -41 6 -71 13 -73 6
-2 11 -17 11 -33 0 -24 4 -29 24 -29 14 0 28 -4 31 -10 11 -18 35 -11 35 11 0
18 -5 20 -37 17 -33 -3 -38 0 -41 20 -4 23 -2 24 57 20 46 -2 61 0 61 10 0 8
-7 11 -17 8 -10 -3 -25 -1 -33 4 -9 6 -11 10 -3 10 7 0 10 7 7 18 -5 14 -4 15
5 2 5 -8 26 -15 46 -16 34 -1 35 0 35 37 0 32 -3 39 -20 39 -13 0 -20 7 -20
20 0 13 -7 20 -20 20 -13 0 -20 7 -20 20 0 14 -7 20 -21 20 -16 0 -20 -5 -16
-20 3 -13 0 -20 -10 -20 -10 0 -12 6 -8 20 4 13 2 20 -7 20 -10 0 -14 -21 -15
-80 -1 -68 1 -79 16 -77 21 3 27 -17 6 -21 -32 -7 -44 17 -40 79 3 46 1 59
-11 59 -12 0 -19 24 -15 56 1 7 -5 14 -14 18 -12 4 -15 -3 -15 -34z m121 -80
c5 0 9 7 9 15 0 8 5 15 10 15 6 0 10 -15 10 -34 0 -27 -4 -34 -24 -38 -19 -4
-22 -1 -18 15 3 10 -1 23 -8 27 -8 5 -9 13 -4 21 7 11 9 10 12 -3 2 -10 8 -18
13 -18z m81 -42 c-9 -9 -12 -7 -12 12 0 19 3 21 12 12 9 -9 9 -15 0 -24z"/>
<path d="M1175 801 c-3 -5 18 -11 45 -13 32 -2 50 1 50 8 0 13 -87 17 -95 5z"/>
<path d="M1289 808 c-7 -28 -5 -38 7 -38 16 0 19 26 4 35 -5 3 -10 5 -11 3z"/>
<path d="M1420 795 c0 -9 6 -12 15 -9 8 4 12 10 9 15 -8 14 -24 10 -24 -6z"/>
<path d="M770 781 c0 -6 -9 -11 -20 -11 -23 0 -25 -17 -6 -42 19 -25 26 -22
26 11 0 16 5 31 12 33 9 3 9 6 0 12 -7 4 -12 2 -12 -3z"/>
<path d="M1135 780 c-3 -5 -1 -10 4 -10 7 0 11 -24 11 -60 0 -60 0 -60 29 -60
39 0 46 14 16 30 -23 12 -30 32 -26 68 3 18 -26 45 -34 32z"/>
<path d="M1190 730 c0 -33 3 -40 20 -40 18 0 20 -7 20 -58 l0 -58 40 4 c32 3
40 1 40 -13 0 -9 5 -13 11 -9 14 8 -15 39 -36 39 -8 0 -15 5 -14 10 0 6 9 9
20 7 16 -3 20 1 15 15 -8 25 9 51 18 28 3 -9 4 -20 1 -25 -7 -11 22 -33 37
-27 8 3 6 6 -6 6 -15 1 -17 8 -14 41 l4 40 -43 0 c-36 0 -41 -3 -36 -17 4 -10
11 -21 17 -25 6 -4 7 -10 4 -13 -10 -10 -51 32 -43 44 3 6 1 11 -4 11 -6 0
-11 18 -11 40 0 33 -3 40 -20 40 -17 0 -20 -7 -20 -40z"/>
<path d="M1244 740 c2 -39 20 -39 23 0 2 20 -2 30 -11 30 -9 0 -13 -11 -12
-30z"/>
<path d="M1420 730 c0 -33 -3 -40 -20 -40 -16 0 -20 -7 -20 -30 0 -16 5 -30
10 -30 6 0 10 5 10 11 0 6 10 8 23 5 12 -3 16 -3 10 0 -21 10 -15 44 7 44 17
0 20 -7 20 -41 0 -36 -2 -40 -20 -34 -18 6 -20 2 -20 -37 l0 -44 40 4 c39 4
40 5 40 42 0 33 3 37 20 33 18 -5 20 0 20 36 l0 41 -40 0 -40 0 0 40 c0 33 -3
40 -20 40 -17 0 -20 -7 -20 -40z m80 -65 c0 -8 -7 -15 -15 -15 -16 0 -20 12
-8 23 11 12 23 8 23 -8z m-29 -108 c-8 -8 -11 -7 -11 6 0 9 -5 17 -11 17 -5 0
-7 5 -4 10 4 6 12 4 22 -6 12 -11 13 -18 4 -27z"/>
<path d="M884 748 c-3 -4 -11 -5 -18 -2 -8 3 -17 1 -21 -5 -4 -8 31 -11 114
-11 79 0 121 4 121 11 0 5 -8 9 -17 8 -10 -1 -20 0 -23 1 -14 6 -152 4 -156
-2z"/>
<path d="M420 730 c0 -11 5 -20 10 -20 6 0 10 9 10 20 0 11 -4 20 -10 20 -5 0
-10 -9 -10 -20z"/>
<path d="M780 740 c0 -5 7 -10 15 -10 8 0 15 -9 15 -20 0 -11 -4 -20 -10 -20
-5 0 -10 -18 -10 -40 0 -22 5 -40 10 -40 6 0 10 -7 10 -15 0 -8 7 -15 15 -15
8 0 15 7 15 15 0 8 -7 15 -15 15 -11 0 -15 11 -15 40 0 29 4 40 15 40 8 0 15
-4 15 -10 0 -5 9 -10 19 -10 11 0 23 5 26 10 4 6 -5 10 -19 10 -14 0 -26 4
-26 8 0 14 -36 52 -49 52 -6 0 -11 -4 -11 -10z"/>
<path d="M1595 740 c-3 -5 0 -10 8 -10 10 0 13 -7 10 -20 -3 -11 0 -20 6 -20
12 0 14 20 5 44 -7 18 -20 21 -29 6z"/>
<path d="M1111 670 c1 -51 4 -60 20 -60 24 0 33 16 13 24 -13 5 -15 16 -12 51
4 34 2 45 -8 45 -11 0 -14 -15 -13 -60z"/>
<path d="M1280 720 c0 -5 7 -10 15 -10 8 0 15 5 15 10 0 6 -7 10 -15 10 -8 0
-15 -4 -15 -10z"/>
<path d="M1325 720 c3 -5 8 -10 11 -10 2 0 4 5 4 10 0 6 -5 10 -11 10 -5 0 -7
-4 -4 -10z"/>
<path d="M1711 707 c-12 -15 -11 -17 3 -17 9 0 16 -8 16 -20 0 -11 5 -20 10
-20 6 0 10 9 10 20 0 11 -4 20 -9 20 -5 0 -11 7 -13 17 -3 15 -4 15 -17 0z"/>
<path d="M920 700 c0 -5 17 -10 38 -10 33 -1 35 -2 20 -14 -22 -16 -24 -40 -3
-33 8 4 17 2 21 -4 3 -6 18 -9 32 -7 23 3 27 -1 27 -22 0 -14 5 -26 10 -27 6
-2 10 13 10 32 0 34 -1 35 -37 35 -35 0 -38 2 -38 30 0 28 -2 30 -40 30 -22 0
-40 -4 -40 -10z"/>
<path d="M346 675 c4 -8 8 -15 10 -15 2 0 4 7 4 15 0 8 -4 15 -10 15 -5 0 -7
-7 -4 -15z"/>
<path d="M380 649 c0 -36 2 -41 20 -36 16 4 20 0 20 -20 0 -20 4 -23 20 -18
18 6 20 2 20 -34 0 -34 3 -41 20 -41 13 0 20 -7 20 -20 0 -13 7 -20 20 -20 13
0 20 -7 20 -20 0 -12 -7 -20 -17 -20 -14 0 -15 -2 -4 -12 11 -10 14 -10 18 0
3 7 21 12 43 12 33 0 37 -3 33 -20 -5 -18 0 -20 36 -20 l41 0 0 40 0 40 40 0
c33 0 40 3 40 20 0 17 -7 20 -40 20 -33 0 -40 -3 -40 -20 0 -17 -7 -20 -41
-20 -36 0 -40 2 -34 20 5 17 2 20 -20 20 -22 0 -25 3 -20 20 5 15 2 20 -10 20
-12 0 -15 -5 -11 -16 8 -22 -21 -51 -37 -35 -8 8 -7 11 5 11 13 0 17 9 16 40
0 35 -3 40 -19 35 -15 -5 -19 -1 -19 20 0 22 -3 25 -20 20 -18 -6 -20 -2 -20
34 l0 41 -40 0 -40 0 0 -41z m65 11 c-3 -5 -10 -10 -16 -10 -5 0 -9 5 -9 10 0
6 7 10 16 10 8 0 12 -4 9 -10z m60 -127 c-9 -8 -18 -13 -21 -10 -8 8 19 36 29
30 4 -2 0 -11 -8 -20z m81 -79 c-17 -16 -36 -19 -36 -4 0 6 7 10 15 10 8 0 15
5 15 11 0 5 5 7 10 4 6 -4 5 -12 -4 -21z m92 -22 c2 -7 -3 -12 -12 -12 -9 0
-16 7 -16 16 0 17 22 14 28 -4z"/>
<path d="M1040 680 c0 -5 4 -10 9 -10 6 0 13 5 16 10 3 6 -1 10 -9 10 -9 0
-16 -4 -16 -10z"/>
<path d="M1561 660 c7 -18 17 -29 27 -27 10 1 17 -2 17 -8 0 -5 -8 -9 -17 -8
-13 2 -16 -5 -16 -30 0 -17 5 -38 11 -45 5 -7 7 -15 3 -19 -3 -3 -6 -1 -6 5 0
7 -7 12 -16 12 -10 0 -14 6 -11 15 4 8 2 17 -3 20 -10 6 -15 -21 -12 -57 1
-12 -5 -18 -18 -18 -13 0 -20 -7 -20 -20 0 -13 -7 -20 -20 -20 -13 0 -20 -7
-20 -20 0 -13 -7 -20 -20 -20 -13 0 -20 -7 -20 -18 0 -14 -9 -18 -40 -19 -30
-2 -40 2 -40 13 0 8 -5 12 -11 9 -15 -10 19 -45 37 -38 8 3 14 -1 14 -9 0 -11
-11 -14 -41 -11 -36 3 -40 1 -34 -17 5 -16 2 -20 -14 -20 -14 0 -21 -6 -21
-20 0 -18 7 -20 54 -20 34 0 56 -5 59 -12 4 -10 7 -10 18 0 11 10 10 12 -4 12
-10 0 -17 8 -17 20 0 13 7 20 20 20 14 0 20 7 20 21 0 16 4 19 20 14 16 -5 20
-2 20 18 0 20 4 24 20 20 15 -4 20 0 20 16 0 15 6 21 21 21 16 0 20 5 16 20
-4 16 0 20 20 20 20 0 23 4 18 20 -5 16 -2 20 14 20 21 0 26 17 21 64 -1 11 3
16 12 14 7 -3 12 -12 10 -22 -2 -9 2 -16 8 -16 5 0 10 -18 10 -40 0 -33 -3
-40 -20 -40 -13 0 -20 -7 -20 -20 0 -20 -33 -29 -43 -12 -5 10 0 -9 8 -30 5
-14 2 -18 -14 -18 -15 0 -21 -6 -21 -21 0 -15 -4 -19 -15 -15 -20 8 -42 14
-32 9 16 -10 7 -43 -13 -43 -13 0 -20 -7 -20 -20 0 -13 -7 -20 -20 -20 -13 0
-20 -7 -20 -20 0 -17 -7 -20 -41 -20 -36 0 -40 -2 -34 -20 5 -16 2 -20 -19
-20 -19 0 -26 -5 -26 -20 0 -17 7 -20 39 -20 46 0 58 12 35 35 -9 9 -13 19 -9
23 4 4 10 1 12 -5 3 -8 22 -13 44 -13 32 0 39 3 39 20 0 13 7 20 20 20 13 0
20 7 20 20 0 11 -4 20 -10 20 -5 0 -10 5 -10 12 0 9 3 9 12 0 7 -7 27 -12 45
-12 26 0 33 4 33 20 0 13 7 20 19 20 10 0 21 -9 24 -20 4 -15 0 -20 -14 -20
-12 0 -19 -7 -19 -20 0 -14 5 -18 18 -13 41 16 62 62 32 70 -26 7 -27 43 -1
43 19 0 31 -39 31 -104 l0 -29 -60 6 c-55 6 -60 5 -60 -13 0 -13 -7 -20 -20
-20 -17 0 -20 -7 -20 -41 l0 -41 -99 4 c-55 1 -103 0 -107 -5 -8 -8 -6 -8 48
-11 21 -1 40 -5 44 -9 4 -3 15 -2 25 4 15 8 19 6 19 -7 0 -14 -10 -16 -80 -12
-70 4 -80 3 -80 -12 0 -15 6 -16 40 -10 32 6 40 4 40 -8 0 -13 -16 -14 -113
-9 -62 3 -119 8 -127 10 -8 2 -12 2 -7 0 4 -3 7 -13 7 -24 0 -22 11 -24 28 -7
8 8 12 8 12 1 0 -14 52 -12 63 2 5 7 9 7 15 0 4 -6 37 -9 75 -7 58 3 67 6 67
23 0 16 7 19 40 19 33 0 40 3 40 20 0 16 7 20 35 20 28 0 35 4 35 19 0 10 9
21 20 24 11 3 20 12 20 21 0 9 8 16 20 16 11 0 20 7 20 15 0 11 11 15 40 15
l40 0 0 40 c0 33 3 40 20 40 13 0 20 7 20 20 0 11 7 20 15 20 8 0 15 9 15 20
0 13 7 20 20 20 13 0 20 7 20 20 0 13 7 20 20 20 16 0 20 7 20 35 0 28 4 35
20 35 17 0 20 7 20 40 0 33 3 40 20 40 18 0 20 7 20 54 0 30 3 61 6 70 4 11 1
16 -10 16 -13 0 -16 -12 -16 -60 0 -53 -2 -60 -20 -60 -17 0 -20 -7 -20 -40 0
-29 -4 -40 -15 -40 -12 0 -13 4 -6 19 6 10 7 21 3 25 -6 7 -7 12 -10 75 -1 19
-5 31 -9 27 -4 -4 -6 -54 -5 -112 l3 -104 -35 0 c-20 0 -36 5 -36 10 0 6 5 10
10 10 6 0 10 5 10 10 0 6 -7 10 -15 10 -11 0 -15 11 -15 40 0 33 3 40 18 38
14 -2 17 5 19 41 l2 43 -31 -6 c-17 -3 -34 -6 -39 -6 -5 0 -9 -5 -9 -11 0 -5
5 -7 10 -4 6 3 20 3 31 0 17 -6 19 -9 8 -16 -8 -5 -22 -6 -31 -3 -15 4 -18 -1
-18 -35 0 -29 -4 -41 -14 -41 -9 0 -12 7 -9 20 3 11 0 20 -6 20 -7 0 -11 21
-11 55 l0 55 -41 0 c-36 0 -40 2 -34 20 4 14 2 20 -9 20 -12 0 -13 -5 -5 -30z
m169 -240 c0 -33 -3 -40 -20 -40 -11 0 -20 -7 -20 -15 0 -8 5 -15 10 -15 6 0
10 5 10 10 0 6 5 10 10 10 6 0 10 -7 10 -15 0 -8 -7 -15 -15 -15 -8 0 -15 -9
-15 -20 0 -11 -7 -20 -15 -20 -18 0 -20 16 -3 26 7 5 4 10 -10 15 -31 12 -32
79 -2 79 13 0 20 7 20 20 0 13 7 20 20 20 17 0 20 -7 20 -40z m-102 -40 c12 0
13 -3 4 -12 -9 -9 -15 -8 -26 7 -8 11 -11 24 -8 30 4 5 8 2 10 -7 2 -10 11
-18 20 -18z m142 15 c0 -8 -7 -15 -15 -15 -9 0 -12 6 -9 15 4 8 10 15 15 15 5
0 9 -7 9 -15z m-177 -67 c-6 -11 -42 23 -36 34 2 4 12 0 23 -9 10 -9 17 -21
13 -25z m-33 -30 c0 -4 -4 -10 -10 -13 -5 -3 -10 1 -10 9 0 9 -7 16 -16 16 -8
0 -12 4 -9 10 6 10 45 -9 45 -22z m-190 1 c0 -18 -20 -18 -29 0 -9 16 -8 18 9
14 11 -3 20 -9 20 -14z m210 -99 c0 -5 -7 -10 -16 -10 -8 0 -12 5 -9 10 3 6
10 10 16 10 5 0 9 -4 9 -10z m-40 -40 c0 -5 -4 -10 -10 -10 -5 0 -10 5 -10 10
0 6 5 10 10 10 6 0 10 -4 10 -10z"/>
<path d="M1675 400 c-3 -5 -1 -10 4 -10 6 0 11 5 11 10 0 6 -2 10 -4 10 -3 0
-8 -4 -11 -10z"/>
<path d="M844 646 c-4 -10 -2 -22 4 -28 8 -8 13 -7 18 6 4 10 2 22 -4 28 -8 8
-13 7 -18 -6z"/>
<path d="M230 639 c0 -5 5 -7 10 -4 6 3 10 8 10 11 0 2 -4 4 -10 4 -5 0 -10
-5 -10 -11z"/>
<path d="M270 609 c0 -36 2 -40 20 -34 18 6 20 2 20 -34 0 -35 3 -41 21 -41
16 0 19 -4 14 -20 -6 -18 -2 -20 32 -20 31 -1 35 -3 21 -11 -24 -13 -23 -29 2
-29 15 0 20 -7 20 -29 0 -43 17 -47 22 -6 3 24 0 35 -9 35 -8 0 -13 14 -13 40
0 32 -4 40 -19 40 -15 0 -18 7 -17 38 1 31 -2 37 -19 37 -17 0 -20 6 -18 38 1
37 1 37 -38 37 -39 0 -39 0 -39 -41z m54 10 c-3 -5 -10 -7 -15 -3 -5 3 -7 10
-3 15 3 5 10 7 15 3 5 -3 7 -10 3 -15z m31 -86 c-9 -8 -18 -13 -21 -10 -8 8
19 36 29 30 4 -2 0 -11 -8 -20z"/>
<path d="M880 630 c0 -13 7 -20 20 -20 13 0 20 7 20 20 0 13 -7 20 -20 20 -13
0 -20 -7 -20 -20z"/>
<path d="M1670 641 c0 -6 5 -13 10 -16 6 -3 10 1 10 9 0 9 -4 16 -10 16 -5 0
-10 -4 -10 -9z"/>
<path d="M1844 628 c3 -13 6 -29 6 -36 0 -26 16 -3 18 27 2 23 -2 31 -14 31
-12 0 -15 -6 -10 -22z"/>
<path d="M97 633 c-9 -16 -7 -123 3 -123 6 0 10 10 11 23 0 12 1 39 3 60 3 35
-7 57 -17 40z"/>
<path d="M1190 625 c0 -8 5 -15 10 -15 6 0 10 7 10 15 0 8 -4 15 -10 15 -5 0
-10 -7 -10 -15z"/>
<path d="M520 610 c0 -5 10 -10 23 -10 18 0 19 2 7 10 -19 13 -30 13 -30 0z"/>
<path d="M938 613 c-25 -6 -25 -63 0 -64 13 0 14 -2 2 -6 -8 -3 -18 -11 -22
-17 -7 -11 -9 -6 -12 33 -1 8 -7 16 -14 19 -8 2 -12 -9 -12 -37 l0 -41 40 0
40 0 0 60 c0 33 -1 59 -2 59 -2 -1 -11 -3 -20 -6z"/>
<path d="M985 610 c-17 -7 -17 -9 -2 -9 25 -1 25 -87 0 -94 -10 -3 -1 -5 20
-6 l37 -1 0 60 c0 64 -7 71 -55 50z"/>
<path d="M1380 605 c0 -8 5 -15 10 -15 6 0 10 7 10 15 0 8 -4 15 -10 15 -5 0
-10 -7 -10 -15z"/>
<path d="M1190 590 c0 -5 7 -10 16 -10 8 0 12 5 9 10 -3 6 -10 10 -16 10 -5 0
-9 -4 -9 -10z"/>
<path d="M555 571 c-6 -11 9 -23 19 -14 9 9 7 23 -3 23 -6 0 -12 -4 -16 -9z"/>
<path d="M1340 567 c1 -21 32 -54 37 -39 3 6 11 12 18 12 8 0 11 7 8 19 -5 20
-63 28 -63 8z"/>
<path d="M771 543 c0 -16 3 -22 6 -15 2 6 11 12 19 12 8 0 14 7 14 15 0 8 -9
15 -20 15 -15 0 -20 -6 -19 -27z"/>
<path d="M1117 553 c3 -7 9 -10 14 -7 5 3 9 -3 10 -13 0 -10 3 -13 6 -5 2 6
14 12 25 12 35 0 13 24 -24 25 -26 1 -35 -2 -31 -12z"/>
<path d="M411 544 c-10 -12 -10 -19 -2 -27 8 -8 11 -7 11 6 0 9 7 17 16 17 8
0 12 5 9 10 -8 14 -18 12 -34 -6z"/>
<path d="M1060 532 c0 -18 5 -32 10 -32 6 0 8 11 4 28 -10 39 -14 40 -14 4z"/>
<path d="M720 540 c-8 -5 -11 -12 -8 -16 4 -3 14 1 23 10 18 17 9 21 -15 6z"/>
<path d="M1230 520 c0 -17 -7 -20 -40 -20 -39 0 -40 -1 -40 -35 0 -23 -6 -38
-15 -42 -25 -9 -32 7 -11 23 18 13 15 14 -32 14 -29 0 -52 5 -52 10 0 6 -9 10
-20 10 -11 0 -20 -4 -20 -10 0 -5 -9 -10 -20 -10 -11 0 -20 5 -20 10 0 6 -9
10 -20 10 -13 0 -20 -7 -20 -20 0 -22 15 -27 24 -7 5 10 7 10 12 0 7 -15 44
-17 44 -3 0 6 10 10 21 10 17 0 20 -5 17 -25 -4 -19 -1 -25 13 -25 13 0 17 5
12 18 -5 14 -4 15 8 6 22 -17 79 -34 79 -23 0 5 14 9 30 9 17 0 30 5 30 10 0
6 -9 10 -19 10 -11 0 -23 5 -26 10 -4 6 8 10 29 10 19 0 36 -6 39 -12 2 -8 8
-9 13 -4 5 5 4 11 -3 13 -28 10 -6 58 26 58 8 0 16 6 19 13 2 8 -7 12 -27 12
-24 0 -31 -4 -31 -20z"/>
<path d="M1300 530 c0 -5 9 -10 20 -10 11 0 20 5 20 10 0 6 -9 10 -20 10 -11
0 -20 -4 -20 -10z"/>
<path d="M135 498 c-4 -11 -2 -25 4 -31 8 -8 11 -5 11 10 0 12 5 23 12 25 8 3
6 7 -4 11 -12 4 -19 -1 -23 -15z"/>
<path d="M830 510 c-12 -8 -11 -10 8 -10 12 0 22 5 22 10 0 13 -11 13 -30 0z"/>
<path d="M1413 505 c-7 -8 -13 -19 -13 -25 0 -17 30 -44 38 -35 4 4 1 10 -5
12 -22 8 -15 43 7 43 11 0 20 -5 20 -11 0 -5 5 -7 10 -4 12 8 -13 35 -32 35
-7 -1 -19 -7 -25 -15z"/>
<path d="M1745 510 c-3 -5 1 -10 9 -10 11 0 16 -9 16 -30 0 -16 5 -30 10 -30
15 0 12 49 -4 66 -17 17 -23 17 -31 4z"/>
<path d="M635 490 c3 -5 8 -10 11 -10 2 0 4 5 4 10 0 6 -5 10 -11 10 -5 0 -7
-4 -4 -10z"/>
<path d="M786 485 c4 -8 10 -12 15 -9 14 8 10 24 -6 24 -9 0 -12 -6 -9 -15z"/>
<path d="M1110 490 c0 -5 5 -10 10 -10 6 0 10 5 10 10 0 6 -4 10 -10 10 -5 0
-10 -4 -10 -10z"/>
<path d="M1305 480 c5 -16 2 -20 -18 -20 -21 0 -24 -4 -19 -22 4 -18 2 -20
-16 -16 -20 6 -22 2 -22 -38 0 -45 4 -50 29 -35 11 7 10 11 -5 20 -16 9 -13
10 20 11 33 0 38 3 33 20 -4 17 0 20 33 20 37 0 38 1 42 40 l4 40 -44 0 c-39
0 -43 -2 -37 -20z m35 -10 c0 -5 8 -10 17 -10 13 0 14 -3 6 -11 -9 -9 -16 -8
-27 4 -18 18 -20 27 -6 27 6 0 10 -4 10 -10z"/>
<path d="M446 481 c-4 -7 -5 -15 -2 -18 9 -9 19 4 14 18 -4 11 -6 11 -12 0z"/>
<path d="M798 448 c7 -7 12 -16 12 -20 0 -14 -29 -9 -37 6 -5 9 -18 12 -35 9
-37 -7 -36 -23 2 -23 17 0 30 -4 30 -9 0 -11 57 5 78 22 8 7 12 5 12 -7 0 -10
8 -16 23 -15 12 0 16 3 10 6 -7 2 -13 13 -13 24 0 16 -7 19 -47 19 -37 0 -44
-3 -35 -12z"/>
<path d="M953 423 c-37 -5 -45 -28 -13 -38 30 -9 60 4 60 26 0 10 -3 18 -7 17
-5 0 -23 -3 -40 -5z"/>
<path d="M710 400 c0 -5 5 -10 10 -10 6 0 10 -11 10 -25 0 -14 5 -25 10 -25 6
0 10 7 10 15 0 8 5 15 10 15 6 0 10 -13 10 -30 l0 -30 75 0 75 0 0 35 0 35
-67 2 c-38 0 -78 0 -91 -1 -12 -1 -25 5 -28 14 -7 17 -24 21 -24 5z m170 -50
c-27 -7 -43 -3 -35 9 2 5 17 6 32 3 l28 -6 -25 -6z m-70 -8 c0 -13 -12 -22
-22 -16 -10 6 -1 24 13 24 5 0 9 -4 9 -8z"/>
<path d="M1516 401 c-4 -5 -2 -12 3 -15 5 -4 12 -2 15 3 4 5 2 12 -3 15 -5 4
-12 2 -15 -3z"/>
<path d="M1073 382 l-73 -3 0 -34 0 -35 79 0 c76 0 79 1 74 21 -5 16 -2 20 8
17 8 -3 13 -11 11 -17 -1 -7 4 -19 12 -27 17 -16 46 -19 46 -4 0 6 -9 10 -20
10 -16 0 -20 7 -20 38 0 42 8 39 -117 34z m2 -31 c-2 -5 -17 -6 -32 -3 l-28 6
25 6 c27 7 43 3 35 -9z m50 -4 c10 -8 14 -17 8 -20 -5 -3 -17 3 -26 14 -19 22
-9 25 18 6z"/>
<path d="M646 351 c-11 -12 -14 -21 -7 -26 6 -3 11 1 11 10 0 12 6 15 20 10
14 -5 20 -2 20 9 0 22 -23 20 -44 -3z"/>
<path d="M940 362 c0 -15 11 -21 27 -15 12 5 12 7 1 14 -17 11 -28 11 -28 1z"/>
<path d="M1270 329 c0 -5 5 -7 10 -4 6 3 10 8 10 11 0 2 -4 4 -10 4 -5 0 -10
-5 -10 -11z"/>
<path d="M730 317 c0 -10 -7 -13 -20 -10 -11 3 -20 0 -20 -6 0 -16 47 -13 53
4 4 8 2 17 -3 20 -6 4 -10 0 -10 -8z"/>
<path d="M945 320 c-3 -5 -1 -10 4 -10 6 0 11 5 11 10 0 6 -2 10 -4 10 -3 0
-8 -4 -11 -10z"/>
<path d="M690 250 c0 -17 7 -20 40 -20 22 0 40 -5 40 -11 0 -6 -9 -8 -20 -4
-14 5 -20 2 -20 -9 0 -14 30 -16 250 -16 160 0 250 -4 250 -10 0 -5 9 -10 20
-10 11 0 20 5 20 10 0 6 -9 10 -20 10 -11 0 -20 7 -20 15 0 13 -4 14 -20 5
-15 -8 -20 -8 -20 1 0 6 -7 8 -16 5 -18 -7 -50 19 -34 29 5 3 10 1 10 -4 0 -6
18 -11 40 -11 33 0 40 3 40 20 0 20 -7 20 -270 20 -263 0 -270 0 -270 -20z
m430 -10 c0 -6 -60 -10 -161 -10 -104 0 -158 3 -154 10 4 6 68 10 161 10 96 0
154 -4 154 -10z"/>
<path d="M607 236 c-12 -9 -14 -16 -8 -21 6 -3 11 -1 11 4 0 6 9 11 20 11 11
0 20 5 20 10 0 14 -22 12 -43 -4z"/>
<path d="M1270 240 c0 -5 9 -10 20 -10 11 0 20 -5 20 -12 0 -6 2 -9 5 -6 3 3
3 13 -1 22 -7 17 -44 23 -44 6z"/>
<path d="M1515 240 c-3 -5 -1 -10 4 -10 6 0 11 5 11 10 0 6 -2 10 -4 10 -3 0
-8 -4 -11 -10z"/>
<path d="M690 206 c0 -9 -8 -16 -20 -16 -11 0 -20 -4 -20 -10 0 -13 1 -13 39
3 28 12 30 15 17 27 -13 10 -16 10 -16 -4z"/>
<path d="M1465 180 c-3 -5 -1 -10 4 -10 6 0 11 5 11 10 0 6 -2 10 -4 10 -3 0
-8 -4 -11 -10z"/>
<path d="M500 167 c0 -13 -9 -17 -36 -17 -41 0 -38 -16 6 -22 20 -3 30 0 30 8
0 7 6 14 13 17 10 4 10 7 0 18 -11 11 -13 10 -13 -4z"/>
<path d="M1407 172 c-5 -7 -2 -18 7 -27 17 -17 62 -20 71 -5 4 6 -8 10 -29 10
-25 0 -35 5 -38 18 -3 12 -6 14 -11 4z"/>
<path d="M871 153 c-12 -13 -11 -14 9 -8 29 9 145 9 159 0 7 -3 8 0 5 9 -9 23
-153 22 -173 -1z"/>
<path d="M650 136 c0 -25 2 -26 40 -22 31 4 40 2 40 -10 0 -10 -6 -13 -18 -10
-13 5 -22 -1 -30 -19 -7 -15 -8 -25 -2 -25 6 0 10 7 10 15 0 12 18 15 104 15
59 0 108 -4 111 -10 3 -5 -2 -11 -12 -12 -10 0 -23 -2 -30 -2 -31 -3 -22 -16
11 -16 28 0 39 -5 43 -18 3 -13 15 -18 44 -19 33 -2 39 1 39 18 0 16 7 19 42
19 36 0 48 13 15 16 -7 0 -20 2 -30 2 -10 1 -15 7 -12 12 3 6 52 10 111 10 67
0 104 4 104 11 0 6 -9 8 -20 4 -14 -4 -20 -2 -20 8 0 9 -3 17 -7 20 -5 2 -1 2
7 -1 8 -2 30 -6 48 -7 28 -3 32 -1 32 22 0 19 -4 24 -16 19 -9 -3 -54 -6 -101
-6 -48 0 -83 -3 -79 -7 4 -4 22 -8 39 -8 18 0 33 -4 34 -10 2 -6 -26 -9 -72
-9 l-75 2 0 -39 c0 -39 0 -39 -40 -39 -40 0 -40 0 -40 39 l0 39 -75 -2 c-51
-2 -75 1 -75 8 0 7 15 11 35 11 20 -1 38 2 41 7 3 4 -33 8 -80 8 -46 0 -91 3
-100 6 -12 5 -16 0 -16 -20z"/>
<path d="M943 104 c-3 -8 -1 -20 6 -27 8 -8 11 -4 11 16 0 30 -7 35 -17 11z"/>
<path d="M600 71 c-17 -5 -21 -9 -12 -15 6 -4 12 -5 12 -2 0 3 11 1 25 -4 21
-8 25 -7 25 10 0 21 -8 23 -50 11z"/>
</g>
</svg>
