<?xml version="1.0" standalone="no"?>
<!DOCTYPE svg PUBLIC "-//W3C//DTD SVG 20010904//EN"
 "http://www.w3.org/TR/2001/REC-SVG-20010904/DTD/svg10.dtd">
<svg version="1.0" xmlns="http://www.w3.org/2000/svg"
 width="144.000000pt" height="144.000000pt" viewBox="0 0 144.000000 144.000000"
 preserveAspectRatio="xMidYMid meet">
<metadata>
Created by potrace 1.16, written by Peter Selinger 2001-2019
</metadata>
<g transform="translate(0.000000,144.000000) scale(0.100000,-0.100000)"
fill="#000000" stroke="none">
<path d="M427 953 c13 -2 30 -14 38 -26 8 -11 17 -18 20 -16 10 11 -36 49 -58
48 l-22 -2 22 -4z"/>
<path d="M1330 956 c0 -2 7 -7 16 -10 8 -3 12 -2 9 4 -6 10 -25 14 -25 6z"/>
<path d="M72 790 l3 -155 55 0 55 0 -3 36 -3 36 90 5 c106 5 138 22 159 84 17
49 6 90 -31 118 -25 19 -46 22 -178 26 l-150 5 3 -155z m263 121 c-17 -7 -15
-9 14 -16 19 -4 40 -13 45 -19 11 -11 16 -87 6 -81 -3 2 -12 0 -20 -6 -10 -6
-11 -9 -2 -9 6 0 12 -4 12 -10 0 -14 -37 -13 -46 1 -3 6 -1 15 6 19 7 4 10 12
6 18 -3 6 -2 13 4 17 5 3 10 -1 10 -9 0 -9 4 -16 9 -16 5 0 7 9 4 20 -3 11
-10 20 -16 20 -7 0 -7 4 1 12 17 17 -48 38 -120 38 -82 0 -88 -4 -88 -60 0
-57 5 -60 105 -60 56 0 74 -4 79 -15 6 -17 -9 -21 -19 -5 -3 6 -27 9 -53 8
l-47 -1 50 -6 c38 -5 45 -8 30 -14 -11 -4 -48 -5 -83 -1 -58 6 -64 5 -62 -12
6 -55 1 -64 -35 -64 l-35 0 0 125 0 124 118 4 c64 1 124 3 132 4 8 1 6 -2 -5
-6z m-1 -63 c22 -35 -3 -51 -82 -55 l-72 -3 0 34 c0 18 3 36 7 40 4 4 36 6 72
4 48 -2 67 -7 75 -20z"/>
<path d="M530 935 c-5 -6 -29 -51 -53 -100 -25 -50 -59 -114 -76 -143 -17 -29
-31 -55 -31 -57 0 -7 82 -6 118 1 17 4 32 14 35 24 7 29 78 46 127 31 22 -7
40 -18 40 -26 0 -24 31 -31 115 -27 44 2 98 3 120 3 22 0 101 0 175 0 74 -1
140 -1 145 -1 6 0 35 -1 65 -2 l55 -3 3 105 c4 140 -2 166 -41 191 -43 27
-128 21 -165 -13 -17 -16 -26 -19 -29 -10 -6 17 -57 42 -86 42 -40 0 -86 -20
-92 -41 -4 -12 -16 -19 -33 -20 -27 -1 -27 -1 3 -8 33 -7 61 8 41 22 -6 5 5 5
24 2 26 -5 31 -4 20 4 -8 6 -13 11 -10 12 19 6 57 7 70 2 12 -4 11 -7 -5 -14
-14 -6 -10 -7 15 -3 19 4 32 3 28 -1 -4 -5 -3 -14 3 -22 10 -11 20 -9 57 13
50 30 122 38 144 16 10 -10 10 -15 -2 -23 -12 -8 -10 -9 6 -4 28 7 34 -14 34
-131 l0 -92 -45 -4 c-32 -2 -44 0 -41 9 4 9 -3 9 -25 1 -17 -6 -46 -8 -65 -5
-19 3 -34 2 -34 -3 0 -5 -7 -7 -15 -4 -8 3 -103 7 -212 7 -193 2 -198 3 -196
22 1 13 -4 21 -15 22 -9 1 -42 5 -72 11 -48 9 -58 7 -82 -10 -16 -10 -33 -16
-40 -12 -8 5 -9 2 -5 -9 3 -9 2 -19 -3 -22 -6 -4 -10 2 -10 11 0 16 -1 16 -15
-2 -10 -14 -14 -15 -15 -4 0 11 -3 11 -12 2 -21 -21 -25 -13 -14 23 12 38 21
44 30 19 3 -8 11 -12 17 -9 6 5 4 12 -8 20 -19 14 -18 18 39 118 16 26 28 54
28 62 0 8 5 15 11 15 5 0 8 -4 5 -8 -3 -5 20 -5 51 -1 64 9 74 3 92 -54 7 -20
17 -37 22 -37 5 0 7 -12 3 -27 -4 -21 -3 -24 5 -14 8 12 11 10 16 -10 9 -36
89 -62 140 -46 27 8 45 8 70 -2 33 -12 85 -6 85 9 0 10 -146 24 -160 15 -16
-10 -110 5 -110 17 0 5 -19 47 -42 93 l-42 84 -74 3 c-43 2 -77 -1 -82 -7z"/>
<path d="M848 933 l-38 -4 0 -85 c0 -49 4 -84 10 -84 6 0 10 9 10 20 0 11 5
20 11 20 5 0 7 -4 4 -10 -3 -5 -3 -10 2 -10 4 0 8 27 8 59 0 46 -3 57 -12 49
-8 -6 -13 -7 -13 -1 0 15 54 37 58 24 6 -19 39 -12 45 9 5 21 2 22 -85 13z"/>
<path d="M30 910 c0 -5 5 -10 10 -10 6 0 10 5 10 10 0 6 -4 10 -10 10 -5 0
-10 -4 -10 -10z"/>
<path d="M1270 910 c12 -8 10 -10 -10 -11 -14 0 -19 -3 -12 -6 6 -2 12 -13 12
-24 0 -16 -5 -18 -27 -13 -16 4 -33 12 -38 19 -13 16 -59 0 -52 -17 2 -7 -1
-24 -8 -38 -13 -27 -13 -96 0 -108 5 -4 5 -1 1 6 -9 15 -5 15 28 2 34 -12 86
-2 86 17 0 8 6 13 13 10 13 -5 15 35 2 66 -4 10 -1 35 8 57 15 39 13 50 -7 50
-6 0 -4 -5 4 -10z m-90 -44 c0 -11 -19 -15 -25 -6 -3 5 1 10 9 10 9 0 16 -2
16 -4z m61 -57 c4 -13 7 -31 8 -41 1 -22 -46 -38 -80 -26 -25 8 -26 12 -18 46
4 20 15 42 24 49 23 16 58 2 66 -28z"/>
<path d="M1207 780 c-3 -11 -1 -20 4 -20 5 0 9 9 9 20 0 11 -2 20 -4 20 -2 0
-6 -9 -9 -20z"/>
<path d="M870 891 c0 -6 4 -13 10 -16 6 -3 7 1 4 9 -7 18 -14 21 -14 7z"/>
<path d="M986 874 c-4 -11 -16 -15 -40 -13 -19 2 -38 0 -42 -4 -4 -4 0 -7 10
-7 13 0 16 -5 11 -22 -8 -25 -8 -25 -6 -51 2 -26 21 -10 21 17 0 32 29 54 60
47 21 -6 25 -14 28 -50 2 -27 7 -41 15 -38 31 10 12 92 -25 107 -13 5 -17 9
-10 9 7 1 10 6 7 11 -9 15 -22 12 -29 -6z"/>
<path d="M1200 882 c0 -4 10 -9 22 -9 18 -2 20 0 8 7 -18 12 -30 13 -30 2z"/>
<path d="M583 869 c-6 -6 -9 -18 -6 -27 4 -10 2 -13 -5 -8 -7 4 -12 1 -13 -6
0 -7 -2 -24 -4 -38 -1 -14 1 -32 6 -40 7 -13 8 -13 9 -1 0 12 3 12 12 3 9 -9
15 -9 27 1 12 10 14 9 8 -5 -8 -23 -1 -23 25 2 21 19 21 23 9 67 -15 60 -41
79 -68 52z m40 -36 c3 -16 8 -35 12 -44 4 -12 -2 -15 -30 -16 -33 -1 -46 9
-26 21 5 3 12 22 15 41 8 40 21 39 29 -2z"/>
<path d="M1393 840 c0 -25 2 -35 4 -22 2 12 2 32 0 45 -2 12 -4 2 -4 -23z"/>
<path d="M527 843 c-4 -3 -7 -16 -6 -27 0 -19 1 -19 10 3 10 24 8 36 -4 24z"/>
<path d="M1271 824 c0 -11 3 -14 6 -6 3 7 2 16 -1 19 -3 4 -6 -2 -5 -13z"/>
<path d="M875 800 c-3 -6 1 -7 9 -4 18 7 21 14 7 14 -6 0 -13 -4 -16 -10z"/>
<path d="M992 776 c7 -8 15 -12 17 -11 5 6 -10 25 -20 25 -5 0 -4 -6 3 -14z"/>
<path d="M725 750 c-8 -13 3 -30 18 -29 9 0 9 2 0 5 -7 3 -9 12 -6 20 6 16 -3
19 -12 4z"/>
<path d="M800 699 c0 -19 47 -28 84 -17 26 8 46 8 73 0 38 -11 83 -7 83 8 0
11 -136 21 -162 11 -12 -4 -35 -5 -50 0 -17 4 -28 4 -28 -2z"/>
<path d="M1190 700 c-35 -3 -50 -8 -42 -14 20 -12 80 -12 94 2 16 16 10 18
-52 12z"/>
<path d="M243 683 c15 -2 37 -2 50 0 12 2 0 4 -28 4 -27 0 -38 -2 -22 -4z"/>
<path d="M357 683 c-4 -3 -7 -11 -7 -17 0 -6 5 -5 12 2 6 6 9 14 7 17 -3 3 -9
2 -12 -2z"/>
<path d="M236 649 c2 -4 -2 -9 -8 -12 -8 -2 -9 -8 -4 -13 5 -5 11 -4 13 4 6
15 80 16 85 1 2 -7 10 -4 18 7 8 10 11 15 5 12 -5 -3 -33 -2 -62 1 -29 4 -50
4 -47 0z"/>
<path d="M558 653 c7 -3 16 -2 19 1 4 3 -2 6 -13 5 -11 0 -14 -3 -6 -6z"/>
<path d="M640 625 c0 -8 7 -15 16 -15 14 0 14 3 4 15 -7 8 -14 15 -16 15 -2 0
-4 -7 -4 -15z"/>
<path d="M0 610 c0 -5 7 -10 16 -10 8 0 12 5 9 10 -3 6 -10 10 -16 10 -5 0 -9
-4 -9 -10z"/>
<path d="M368 603 c6 -2 18 -2 25 0 6 3 1 5 -13 5 -14 0 -19 -2 -12 -5z"/>
<path d="M488 603 c7 -3 16 -2 19 1 4 3 -2 6 -13 5 -11 0 -14 -3 -6 -6z"/>
<path d="M1358 576 c-7 -39 -4 -55 8 -44 3 3 4 23 2 44 l-3 39 -7 -39z"/>
<path d="M760 586 c0 -8 5 -18 10 -21 17 -10 11 -25 -7 -18 -11 4 -14 3 -9 -6
8 -12 42 -11 65 3 8 5 16 4 22 -5 4 -7 10 -11 13 -8 7 7 -16 69 -26 69 -10 0
-10 -27 0 -33 4 -2 2 -2 -5 -1 -6 2 -14 -2 -17 -9 -3 -9 -5 -9 -5 1 -1 6 -8
12 -16 12 -8 0 -15 4 -15 10 0 5 7 7 15 4 8 -4 15 -1 15 5 0 6 -9 11 -20 11
-11 0 -20 -6 -20 -14z"/>
<path d="M867 568 c8 -46 13 -48 13 -5 0 21 -4 37 -10 37 -5 0 -7 -14 -3 -32z"/>
<path d="M891 563 c1 -33 2 -35 8 -13 l7 25 12 -22 c18 -32 32 -28 27 7 -2 21
1 30 11 30 9 0 15 -12 15 -32 l2 -33 4 30 c3 16 10 33 16 37 7 4 -5 8 -25 8
-29 0 -38 -4 -38 -17 -1 -17 -1 -17 -14 0 -20 26 -26 21 -25 -20z"/>
<path d="M1037 593 c-4 -3 -7 -17 -7 -30 0 -28 26 -41 51 -24 15 8 23 8 38 0
28 -18 53 -4 49 28 -2 22 -9 29 -30 31 -19 2 -28 -2 -32 -16 -5 -14 -13 -18
-26 -15 -16 4 -19 2 -14 -12 5 -13 3 -16 -7 -13 -8 3 -14 13 -14 24 0 14 6 18
23 17 12 -2 22 2 22 7 0 11 -43 14 -53 3z m120 -19 c7 -18 -17 -38 -31 -24
-11 11 -1 40 14 40 6 0 13 -7 17 -16z"/>
<path d="M1180 565 c0 -33 2 -35 30 -33 17 1 30 6 30 10 0 4 7 8 15 8 8 0 15
-4 15 -10 0 -5 9 -10 20 -10 16 0 20 7 20 35 0 44 -20 46 -21 3 l-1 -33 -10
33 c-12 37 -24 41 -33 12 -3 -11 -11 -20 -16 -20 -5 0 -9 9 -9 20 0 13 -7 20
-20 20 -16 0 -20 -7 -20 -35z m30 15 c0 -5 -4 -10 -10 -10 -5 0 -10 5 -10 10
0 6 5 10 10 10 6 0 10 -4 10 -10z m0 -30 c0 -5 -4 -10 -10 -10 -5 0 -10 5 -10
10 0 6 5 10 10 10 6 0 10 -4 10 -10z"/>
<path d="M1321 563 c1 -24 3 -30 6 -15 2 12 9 20 14 17 11 -7 11 -3 3 19 -11
29 -24 17 -23 -21z"/>
<path d="M1400 580 c0 -5 5 -10 11 -10 5 0 7 5 4 10 -3 6 -8 10 -11 10 -2 0
-4 -4 -4 -10z"/>
<path d="M378 573 c7 -3 16 -2 19 1 4 3 -2 6 -13 5 -11 0 -14 -3 -6 -6z"/>
<path d="M135 559 c-55 -3 50 -6 233 -7 182 -1 332 1 332 6 0 8 -418 10 -565
1z"/>
<path d="M995 560 c3 -5 10 -10 16 -10 5 0 9 5 9 10 0 6 -7 10 -16 10 -8 0
-12 -4 -9 -10z"/>
<path d="M5 550 c-3 -5 -2 -10 4 -10 5 0 13 5 16 10 3 6 2 10 -4 10 -5 0 -13
-4 -16 -10z"/>
<path d="M10 521 c0 -9 30 -24 36 -18 2 1 -6 8 -16 15 -11 7 -20 8 -20 3z"/>
<path d="M65 500 c8 -14 1332 -13 1340 0 4 7 -230 10 -670 10 -450 0 -674 -3
-670 -10z"/>
</g>
</svg>
