<?xml version="1.0" standalone="no"?>
<!DOCTYPE svg PUBLIC "-//W3C//DTD SVG 20010904//EN"
 "http://www.w3.org/TR/2001/REC-SVG-20010904/DTD/svg10.dtd">
<svg version="1.0" xmlns="http://www.w3.org/2000/svg"
 width="180.000000pt" height="180.000000pt" viewBox="0 0 180.000000 180.000000"
 preserveAspectRatio="xMidYMid meet">
<metadata>
Created by potrace 1.16, written by Peter Selinger 2001-2019
</metadata>
<g transform="translate(0.000000,180.000000) scale(0.100000,-0.100000)"
fill="#000000" stroke="none">
<path d="M874 1364 c-5 -19 -12 -24 -25 -21 -10 3 -26 -1 -36 -8 -17 -13 -16
-14 9 -24 30 -11 51 -42 42 -64 -3 -8 -1 -18 5 -22 18 -10 12 -25 -9 -25 -16
0 -20 7 -20 30 0 39 -30 68 -79 76 -28 4 -38 10 -34 20 7 18 -7 18 -35 -2 -24
-17 -30 -39 -8 -31 10 4 16 -7 21 -39 6 -41 25 -63 25 -28 0 22 27 46 48 42
24 -5 28 -49 6 -65 -10 -7 -31 -13 -46 -13 -52 0 -88 -27 -113 -85 -13 -29
-30 -57 -38 -62 -18 -10 -37 -46 -37 -70 0 -10 -7 -31 -15 -47 -19 -36 -19
-46 1 -46 14 0 16 -7 11 -37 -3 -21 -9 -48 -13 -61 -5 -18 -2 -24 15 -29 19
-5 22 -12 19 -42 -3 -32 0 -36 20 -35 21 1 22 -2 16 -43 -5 -37 -4 -43 11 -43
10 0 23 -7 29 -16 12 -15 46 -10 46 7 0 5 4 9 9 9 4 0 6 -11 3 -25 -3 -18 1
-27 14 -32 11 -5 19 -15 19 -23 0 -8 10 -19 22 -25 12 -5 24 -18 27 -28 3 -12
10 -17 20 -14 8 3 17 -1 20 -10 4 -8 13 -13 21 -9 8 3 17 1 20 -4 8 -13 62
-13 70 0 3 5 12 7 20 4 8 -4 17 1 21 9 3 9 12 13 20 10 10 -3 17 2 20 14 3 10
15 23 27 28 12 6 22 17 22 25 0 8 8 18 19 23 13 5 17 14 14 32 -3 14 -1 25 3
25 5 0 9 -4 9 -9 0 -17 34 -22 46 -7 6 9 19 16 29 16 15 0 16 6 11 43 -6 41
-5 44 16 43 20 -1 23 3 20 35 -3 30 0 37 19 42 17 5 20 11 15 29 -4 13 -10 40
-13 61 -5 30 -3 37 11 37 20 0 20 10 1 46 -8 16 -15 37 -15 47 0 24 -19 60
-37 70 -8 5 -25 33 -38 62 -25 58 -61 85 -113 85 -15 0 -36 6 -46 13 -22 16
-18 60 6 65 21 4 48 -20 48 -42 0 -35 19 -13 25 28 5 32 11 43 21 39 22 -8 16
14 -8 31 -28 20 -42 20 -35 2 4 -10 -6 -16 -34 -20 -49 -8 -79 -37 -79 -76 0
-23 -4 -30 -20 -30 -21 0 -27 15 -9 25 6 4 8 14 5 22 -9 22 12 53 42 64 25 10
26 11 9 24 -10 7 -26 11 -36 8 -13 -3 -20 2 -25 21 -4 17 -13 26 -26 26 -13 0
-22 -9 -26 -26z m41 -62 c-3 -8 -5 -25 -5 -38 0 -13 -4 -24 -9 -24 -11 0 -20
67 -13 94 5 18 5 18 19 0 7 -10 11 -25 8 -32z m-20 -128 c33 -1 68 2 77 7 10
5 19 5 22 0 3 -5 26 -12 50 -15 54 -8 89 -34 106 -78 7 -18 25 -46 39 -61 29
-32 54 -120 38 -136 -7 -7 -6 -27 0 -60 8 -40 7 -51 -3 -51 -14 0 -29 -54 -19
-70 3 -5 -3 -10 -14 -10 -18 0 -21 -6 -21 -39 0 -47 -11 -55 -62 -52 -35 2
-38 0 -38 -24 0 -14 -7 -28 -15 -31 -8 -4 -15 -15 -15 -25 0 -12 -7 -19 -20
-19 -11 0 -20 -7 -20 -15 0 -18 -63 -48 -100 -48 -37 0 -100 30 -100 48 0 8
-9 15 -20 15 -13 0 -20 7 -20 19 0 10 -7 21 -15 25 -8 3 -15 17 -15 31 0 24
-3 26 -38 24 -51 -3 -62 5 -62 52 0 33 -3 39 -21 39 -11 0 -17 5 -14 10 10 16
-5 70 -19 70 -10 0 -11 11 -3 51 6 33 7 53 0 60 -16 16 9 104 38 136 14 15 32
43 39 61 17 44 52 70 106 78 24 3 47 10 50 15 3 5 11 6 17 2 7 -4 39 -8 72 -9z"/>
</g>
</svg>
