<?xml version="1.0" standalone="no"?>
<!DOCTYPE svg PUBLIC "-//W3C//DTD SVG 20010904//EN"
 "http://www.w3.org/TR/2001/REC-SVG-20010904/DTD/svg10.dtd">
<svg version="1.0" xmlns="http://www.w3.org/2000/svg"
 width="230.000000pt" height="230.000000pt" viewBox="0 0 230.000000 230.000000"
 preserveAspectRatio="xMidYMid meet">
<metadata>
Created by potrace 1.16, written by Peter Selinger 2001-2019
</metadata>
<g transform="translate(0.000000,230.000000) scale(0.100000,-0.100000)"
fill="#000000" stroke="none">
<path d="M800 2276 c-158 -48 -267 -105 -392 -204 -138 -111 -239 -238 -317
-403 -61 -127 -91 -234 -90 -314 l1 -60 8 46 c26 152 109 353 195 474 172 241
419 404 706 464 l94 20 -65 0 c-40 0 -94 -9 -140 -23z"/>
<path d="M1389 2280 c290 -64 535 -224 706 -465 86 -121 169 -322 195 -474 l8
-46 1 60 c3 179 -152 483 -334 653 -177 166 -412 281 -590 288 l-80 4 94 -20z"/>
<path d="M780 1143 l0 -638 122 2 123 2 0 190 0 191 113 0 c101 0 118 3 164
26 210 106 301 420 188 649 -40 81 -83 131 -153 176 l-60 39 -249 0 -248 0 0
-637z m531 578 c129 -82 203 -218 202 -377 -1 -127 -45 -237 -132 -327 -75
-79 -121 -97 -245 -97 -57 0 -111 -3 -120 -6 -14 -5 -16 -32 -16 -195 l0 -189
-95 0 -95 0 0 610 0 610 228 0 228 0 45 -29z"/>
<path d="M1002 1333 l3 -248 99 -3 c96 -3 100 -2 127 24 46 44 71 110 77 200
6 97 -9 166 -49 228 l-29 46 -115 0 -115 0 2 -247z m232 187 c61 -92 69 -224
20 -326 -36 -76 -46 -82 -142 -85 l-82 -2 -3 227 -2 226 91 0 91 0 27 -40z"/>
<path d="M1 945 c-2 -126 92 -359 208 -512 180 -238 481 -419 716 -429 l80 -4
-94 20 c-357 78 -641 301 -797 625 -51 105 -87 216 -104 314 l-8 46 -1 -60z"/>
<path d="M2292 975 c-4 -64 -55 -224 -102 -324 -157 -329 -441 -552 -801 -631
l-94 -20 80 4 c179 8 430 131 598 294 182 177 335 483 324 649 -2 32 -4 45 -5
28z"/>
</g>
</svg>
