<?xml version="1.0" standalone="no"?>
<!DOCTYPE svg PUBLIC "-//W3C//DTD SVG 20010904//EN"
 "http://www.w3.org/TR/2001/REC-SVG-20010904/DTD/svg10.dtd">
<svg version="1.0" xmlns="http://www.w3.org/2000/svg"
 width="100.000000pt" height="100.000000pt" viewBox="0 0 100.000000 100.000000"
 preserveAspectRatio="xMidYMid meet">
<metadata>
Created by potrace 1.16, written by Peter Selinger 2001-2019
</metadata>
<g transform="translate(0.000000,100.000000) scale(0.100000,-0.100000)"
fill="#000000" stroke="none">
<path d="M240 990 c0 -5 -11 -10 -25 -10 -14 0 -25 -4 -25 -10 0 -5 -6 -10
-13 -10 -7 0 -19 -9 -27 -20 -8 -11 -18 -20 -23 -20 -12 0 -37 -27 -37 -39 0
-6 -7 -11 -15 -11 -8 0 -15 -9 -15 -20 0 -11 -7 -20 -15 -20 -8 0 -15 -9 -15
-19 0 -11 -4 -21 -9 -23 -4 -2 -10 -24 -13 -50 -4 -37 -2 -48 8 -48 10 0 14
13 14 40 0 22 5 40 10 40 6 0 10 9 10 20 0 11 7 20 15 20 8 0 15 9 15 20 0 11
7 20 15 20 8 0 15 5 15 11 0 12 25 39 37 39 5 0 15 9 23 20 8 11 20 20 27 20
7 0 13 5 13 10 0 6 11 10 25 10 14 0 25 5 25 10 0 6 14 10 30 10 17 0 30 5 30
10 0 6 -18 10 -40 10 -22 0 -40 -4 -40 -10z"/>
<path d="M500 645 c0 -309 -2 -355 -15 -355 -10 0 -15 -10 -15 -30 0 -16 -4
-30 -10 -30 -5 0 -10 -9 -10 -20 0 -11 -7 -20 -15 -20 -8 0 -15 -9 -15 -20 0
-11 -7 -20 -15 -20 -8 0 -15 -5 -15 -11 0 -12 -25 -39 -37 -39 -5 0 -15 -9
-23 -20 -8 -11 -20 -20 -27 -20 -7 0 -13 -4 -13 -10 0 -5 -11 -10 -25 -10 -14
0 -25 -4 -25 -10 0 -5 -13 -10 -30 -10 -16 0 -30 -4 -30 -10 0 -5 18 -10 40
-10 22 0 40 5 40 10 0 6 11 10 25 10 14 0 25 5 25 10 0 6 6 10 13 10 7 0 19 9
27 20 8 11 18 20 23 20 12 0 37 27 37 39 0 6 7 11 15 11 8 0 15 9 15 20 0 11
7 20 15 20 8 0 15 9 15 20 0 11 5 20 10 20 6 0 10 14 10 30 0 23 4 30 20 30
17 0 20 -7 20 -40 0 -29 4 -40 15 -40 8 0 15 -9 15 -20 0 -11 5 -20 11 -20 14
0 39 -25 39 -39 0 -6 6 -11 13 -11 7 0 19 -9 27 -20 8 -11 20 -20 27 -20 7 0
13 -4 13 -10 0 -5 7 -10 15 -10 8 0 15 -4 15 -10 0 -5 11 -10 25 -10 14 0 25
-4 25 -10 0 -5 16 -10 35 -10 19 0 35 5 35 10 0 6 -11 10 -25 10 -14 0 -25 5
-25 10 0 6 -11 10 -25 10 -14 0 -25 5 -25 10 0 6 -7 10 -15 10 -8 0 -15 5 -15
10 0 6 -6 10 -13 10 -7 0 -19 9 -27 20 -8 11 -20 20 -27 20 -7 0 -13 5 -13 11
0 14 -25 39 -39 39 -6 0 -11 9 -11 20 0 11 -7 20 -15 20 -11 0 -15 11 -15 40
0 22 -4 40 -10 40 -6 0 -10 125 -10 355 0 309 -2 355 -15 355 -13 0 -15 -46
-15 -355z"/>
<path d="M680 990 c0 -5 18 -10 40 -10 22 0 40 -4 40 -10 0 -5 13 -10 28 -10
16 0 34 -8 42 -20 8 -11 19 -20 25 -20 6 0 17 -9 25 -20 8 -11 20 -20 27 -20
7 0 13 -7 13 -15 0 -8 7 -15 15 -15 8 0 15 -9 15 -20 0 -11 5 -20 10 -20 6 0
10 -9 10 -20 0 -11 7 -20 15 -20 12 0 14 7 9 28 -4 15 -11 29 -16 30 -4 2 -8
12 -8 23 0 10 -7 19 -15 19 -8 0 -15 7 -15 15 0 8 -6 15 -13 15 -7 0 -19 9
-27 20 -8 11 -19 20 -25 20 -6 0 -17 9 -25 20 -8 12 -26 20 -42 20 -15 0 -28
5 -28 10 0 6 -22 10 -50 10 -27 0 -50 -4 -50 -10z"/>
</g>
</svg>
