<?xml version="1.0" standalone="no"?>
<!DOCTYPE svg PUBLIC "-//W3C//DTD SVG 20010904//EN"
 "http://www.w3.org/TR/2001/REC-SVG-20010904/DTD/svg10.dtd">
<svg version="1.0" xmlns="http://www.w3.org/2000/svg"
 width="256.000000pt" height="256.000000pt" viewBox="0 0 256.000000 256.000000"
 preserveAspectRatio="xMidYMid meet">
<metadata>
Created by potrace 1.16, written by Peter Selinger 2001-2019
</metadata>
<g transform="translate(0.000000,256.000000) scale(0.100000,-0.100000)"
fill="#000000" stroke="none">
<path d="M865 2490 c-3 -5 -1 -10 4 -10 6 0 11 5 11 10 0 6 -2 10 -4 10 -3 0
-8 -4 -11 -10z"/>
<path d="M1045 2470 c-27 -7 -28 -8 -5 -8 14 0 34 3 45 8 25 11 2 11 -40 0z"/>
<path d="M1548 2473 c7 -3 16 -2 19 1 4 3 -2 6 -13 5 -11 0 -14 -3 -6 -6z"/>
<path d="M1101 2457 c-5 -5 -33 -9 -62 -9 -38 1 -49 -2 -39 -9 12 -8 9 -9 -10
-7 -14 1 -36 -4 -49 -11 -12 -7 -32 -11 -42 -8 -13 3 -19 0 -19 -10 0 -11 -6
-14 -21 -10 -23 6 -59 -10 -72 -31 -6 -9 -18 -11 -34 -7 -16 4 -22 2 -18 -5 4
-6 -7 -16 -24 -23 -17 -7 -28 -17 -24 -22 5 -4 -4 -5 -19 -1 -20 5 -26 3 -22
-7 3 -8 -9 -18 -30 -27 -19 -7 -33 -17 -30 -22 3 -4 1 -8 -5 -8 -5 0 -11 4
-13 9 -1 5 -9 3 -16 -5 -11 -12 -10 -14 5 -14 13 0 10 -5 -12 -20 -16 -10 -31
-17 -34 -14 -3 3 1 9 9 14 8 5 11 12 7 16 -8 8 -42 -34 -42 -50 0 -13 -67 -77
-73 -71 -3 3 0 11 6 17 15 15 15 25 0 31 -9 3 -14 -9 -15 -37 -2 -27 -10 -47
-23 -58 -11 -9 -20 -22 -20 -29 0 -8 -6 -5 -16 7 -15 18 -15 18 -9 -9 7 -33
-9 -59 -31 -50 -10 4 -14 -2 -14 -21 0 -29 -16 -35 -23 -8 -4 13 -5 11 -6 -5
0 -13 3 -23 9 -23 5 0 7 -7 4 -15 -4 -8 -10 -12 -15 -9 -8 5 -13 -9 -10 -28 0
-4 -8 -10 -19 -13 -10 -3 -17 -12 -14 -19 7 -18 -23 -89 -34 -82 -5 3 -7 -7
-6 -22 l4 -27 -14 29 c-9 21 -11 39 -5 60 13 44 11 53 -6 30 -19 -25 -19 -53
0 -97 18 -44 18 -48 3 -44 -8 1 -12 -6 -10 -18 1 -11 -7 -47 -18 -79 -11 -33
-20 -78 -20 -100 0 -53 -10 -87 -22 -80 -6 4 -4 -4 2 -16 12 -22 10 -97 -5
-204 -4 -29 -4 -30 5 -6 8 20 9 17 5 -18 -4 -28 -2 -41 5 -37 5 3 8 0 5 -7 -3
-7 -1 -26 3 -43 8 -29 -12 -85 -30 -85 -4 0 -5 -7 -2 -15 4 -8 1 -15 -5 -15
-6 0 -11 -7 -11 -15 0 -8 5 -15 10 -15 6 0 11 -21 12 -47 1 -37 2 -40 5 -15 2
17 8 32 14 32 5 0 9 9 9 20 0 14 -5 18 -16 13 -14 -5 -16 -2 -10 23 4 16 12
31 17 32 5 2 9 13 9 25 0 39 17 3 30 -63 7 -36 21 -83 31 -105 17 -40 23 -125
8 -125 -4 0 -10 12 -12 28 -3 22 -4 21 -6 -10 -1 -32 2 -35 19 -31 14 4 20 14
21 37 l0 31 12 -25 c6 -14 15 -27 19 -30 4 -4 10 -20 14 -37 6 -28 4 -32 -25
-38 -36 -8 -42 -23 -8 -20 12 1 22 3 22 5 0 1 10 3 23 4 17 2 27 -5 39 -31 17
-36 37 -55 27 -26 -4 10 7 -2 23 -27 16 -25 30 -49 31 -53 0 -5 19 -23 41 -40
39 -30 51 -47 32 -47 -5 0 -14 7 -22 16 -12 14 -14 14 -20 -3 -10 -26 -10 -33
-1 -30 4 1 6 5 4 10 -3 11 17 8 48 -8 17 -9 33 -16 37 -17 15 -2 43 -23 43
-31 0 -4 -5 -5 -10 -2 -6 3 -17 -1 -26 -10 -9 -9 -19 -13 -23 -10 -3 4 3 13
13 21 11 7 17 17 13 20 -3 3 -17 -7 -31 -22 -24 -29 -24 -29 -3 -37 14 -5 23
-3 29 8 12 20 35 19 47 -2 6 -10 11 -12 11 -5 0 19 19 14 52 -13 16 -14 36
-25 43 -25 8 0 18 -6 22 -12 4 -7 31 -24 58 -37 41 -21 46 -26 28 -29 -13 -2
-23 -7 -23 -11 0 -9 62 -7 78 3 6 3 13 2 16 -3 4 -5 0 -12 -6 -15 -7 -3 -4 -4
7 -1 11 3 61 -8 111 -24 56 -18 127 -32 185 -37 52 -3 97 -12 101 -18 5 -8 13
-8 28 2 11 7 20 8 20 4 0 -5 23 -5 51 1 39 8 57 7 71 -2 11 -7 17 -8 14 -2 -9
14 31 24 72 17 28 -5 33 -4 22 4 -12 9 -10 10 8 5 13 -4 29 -2 35 4 7 5 24 12
37 14 14 3 45 12 69 20 25 9 49 13 54 10 5 -3 12 -1 16 4 8 13 150 83 168 83
8 0 12 4 8 9 -7 12 54 43 68 34 6 -4 8 0 4 9 -4 12 4 17 34 22 21 3 39 11 39
16 0 13 -17 13 -25 0 -3 -5 -13 -10 -22 -10 -9 0 6 16 33 35 27 19 58 35 69
35 16 0 17 2 5 10 -12 8 -10 14 14 39 16 17 34 29 40 28 6 -1 10 3 9 10 -2 8
4 10 14 6 12 -5 15 -2 11 9 -4 8 2 27 12 43 12 19 19 23 23 13 3 -7 6 -3 6 10
1 18 5 22 19 18 14 -5 18 0 17 21 0 14 5 28 12 30 7 3 9 -3 6 -16 -3 -12 -1
-21 6 -21 14 0 15 37 1 45 -5 3 -10 12 -9 18 0 9 2 9 6 0 8 -21 25 -14 18 7
-3 11 -2 20 3 20 5 0 15 19 22 43 l14 42 7 -30 c8 -36 10 -28 12 43 1 31 7 56
15 61 7 4 12 12 10 17 -1 5 7 38 19 74 27 83 34 118 35 170 0 29 3 38 10 29
11 -18 5 278 -7 305 -6 14 -5 17 3 12 9 -5 12 4 11 31 -1 37 -2 37 -8 8 -6
-27 -8 -25 -14 22 -4 29 -11 55 -16 57 -5 3 -12 27 -16 53 -4 27 -13 59 -21
73 -7 14 -27 54 -43 90 -66 145 -227 351 -327 416 -13 9 -22 20 -19 24 3 4 -2
10 -10 14 -8 3 -12 12 -9 20 7 17 -40 41 -63 32 -19 -8 -44 4 -36 17 4 6 0 8
-10 4 -12 -4 -20 5 -31 36 -15 38 -16 39 -11 10 5 -35 -5 -42 -24 -19 -6 7
-26 17 -44 20 -23 5 -28 9 -18 15 11 7 11 10 0 17 -7 4 -14 3 -17 -4 -2 -7 -8
-12 -13 -12 -6 0 -7 5 -3 12 5 8 0 9 -14 6 -12 -4 -22 -2 -22 2 0 5 -18 11
-40 15 -22 4 -40 10 -40 14 0 5 -12 6 -27 4 -27 -4 -27 -4 -9 11 19 16 19 16
-2 16 -12 0 -22 -4 -22 -10 0 -5 -10 -10 -22 -10 -21 0 -21 0 -2 15 17 13 15
13 -18 3 -21 -6 -44 -7 -55 -3 -24 11 -332 12 -342 2z m424 -41 c238 -59 416
-157 574 -316 167 -168 262 -343 318 -585 14 -61 18 -119 18 -240 -1 -165 -6
-202 -53 -355 -101 -333 -388 -623 -731 -740 -132 -45 -200 -55 -376 -55 -150
1 -182 4 -272 27 -209 54 -387 155 -540 307 -162 160 -262 342 -320 581 -25
105 -25 374 0 480 56 236 150 409 315 576 182 185 407 297 677 338 60 9 331
-4 390 -18z m445 -151 c0 -10 -5 -11 -25 -2 -32 15 -32 26 0 19 14 -2 25 -10
25 -17z m-1709 -1618 c-10 -9 -11 -8 -5 6 3 10 9 15 12 12 3 -3 0 -11 -7 -18z
m309 -311 c0 -11 -19 -15 -25 -6 -3 5 1 10 9 10 9 0 16 -2 16 -4z"/>
<path d="M1095 2386 c-213 -41 -369 -113 -526 -243 -97 -80 -157 -147 -224
-248 -67 -103 -86 -140 -124 -252 -111 -329 -65 -695 123 -980 48 -73 192
-227 261 -279 116 -88 250 -151 415 -195 73 -20 110 -23 260 -23 167 -1 180 1
286 31 209 60 360 148 504 293 90 90 123 132 179 226 163 276 195 632 85 941
-127 358 -420 620 -797 714 -106 27 -341 34 -442 15z m260 -27 c-3 -5 0 -7 7
-4 29 10 103 14 88 5 -13 -9 -13 -10 0 -10 10 -1 7 -5 -7 -13 -21 -12 -20 -12
18 -12 35 0 38 1 23 12 -16 12 -16 13 4 13 12 0 22 -4 22 -9 0 -4 11 -6 25 -3
14 2 32 -1 40 -8 8 -6 19 -9 24 -5 7 4 8 -1 4 -11 -5 -14 -2 -16 20 -11 31 8
57 0 57 -18 0 -17 17 -23 57 -19 18 1 31 -2 28 -7 -3 -4 10 -15 28 -23 19 -8
38 -19 41 -25 4 -5 12 -9 19 -7 7 1 9 1 5 -1 -18 -10 -6 -24 13 -18 12 4 19 3
16 -1 -3 -5 1 -15 9 -22 8 -7 14 -9 14 -5 0 4 4 3 8 -2 4 -6 20 -16 35 -23 24
-10 26 -14 14 -26 -7 -8 -22 -16 -33 -19 -17 -4 -17 -5 3 -6 12 0 25 4 28 9 9
14 28 12 51 -6 10 -8 13 -13 7 -9 -8 4 -13 0 -13 -10 0 -12 5 -15 16 -11 18 7
54 -19 54 -39 0 -7 11 -20 25 -29 14 -9 36 -33 50 -54 14 -20 36 -54 50 -75
14 -21 23 -42 20 -46 -2 -5 4 -11 14 -14 14 -3 18 -11 14 -26 -3 -12 -1 -21 6
-21 14 0 15 -37 1 -45 -5 -3 -10 -11 -10 -16 0 -6 7 -3 16 5 17 18 28 21 19 6
-3 -6 1 -17 9 -26 9 -8 19 -33 22 -55 4 -21 10 -39 15 -39 5 0 9 -8 9 -17 0
-15 -2 -16 -10 -3 -18 28 -11 -9 11 -55 11 -24 18 -49 14 -55 -3 -5 -1 -10 4
-10 7 0 11 -53 11 -156 0 -105 -3 -153 -10 -149 -7 4 -8 -3 -4 -21 5 -19 4
-25 -5 -20 -6 4 -11 2 -11 -3 0 -6 5 -11 10 -11 6 0 10 -5 10 -11 0 -5 -4 -7
-10 -4 -6 4 -10 -9 -10 -32 0 -21 -6 -50 -14 -64 -7 -14 -16 -38 -20 -53 -8
-33 -32 -60 -41 -47 -3 5 -1 12 5 16 6 4 8 11 4 16 -19 31 -40 -63 -24 -106 7
-17 7 -24 0 -20 -6 3 -10 -1 -10 -9 0 -9 -9 -25 -20 -36 -11 -11 -19 -23 -19
-28 3 -20 -2 -33 -13 -30 -16 6 -46 -26 -54 -57 -3 -14 -11 -28 -17 -32 -6 -4
-8 4 -3 21 5 19 3 26 -4 21 -7 -5 -9 -20 -5 -41 5 -32 4 -34 -20 -34 -16 0
-24 -4 -20 -11 10 -15 -26 -51 -43 -44 -10 4 -12 0 -8 -11 5 -12 2 -15 -11
-10 -10 4 -14 4 -10 0 9 -9 -32 -54 -50 -54 -7 0 -13 -4 -13 -8 0 -4 -16 -6
-36 -4 -39 5 -57 -10 -48 -40 8 -25 -51 -54 -74 -36 -13 11 -15 11 -9 -4 3
-10 2 -18 -4 -18 -6 0 -8 -4 -4 -9 3 -6 -14 -8 -40 -6 -25 2 -43 0 -40 -5 3
-5 12 -7 19 -4 8 3 17 1 20 -4 5 -8 -48 -26 -57 -19 -2 1 -15 -6 -30 -16 -26
-17 -27 -17 -28 0 0 14 -2 13 -9 -4 -5 -13 -17 -23 -25 -23 -9 0 -13 5 -10 10
7 12 3 12 -20 4 -13 -5 -14 -9 -4 -15 7 -4 -7 -6 -32 -3 -34 3 -38 2 -19 -5
18 -7 20 -9 7 -10 -10 -1 -26 3 -36 8 -10 6 -29 7 -42 3 -23 -6 -23 -6 6 -13
17 -4 -44 -7 -135 -7 -91 1 -154 4 -140 7 24 7 24 7 4 13 -12 3 -28 2 -35 -3
-8 -5 -21 -9 -29 -9 -13 0 -13 1 0 11 11 8 5 9 -25 6 -22 -3 -34 -3 -26 0 11
5 11 7 0 15 -9 6 -5 6 13 2 15 -3 33 -2 40 2 20 13 -45 23 -93 14 -42 -8 -109
6 -109 23 0 5 -7 6 -16 3 -9 -4 -22 -2 -28 3 -6 5 -20 11 -31 15 -11 3 0 4 25
2 25 -2 37 -2 27 1 -9 2 -15 8 -12 13 3 5 -8 6 -25 4 -20 -4 -30 -1 -30 8 0 9
-3 9 -10 -2 -6 -10 -13 -11 -17 -5 -11 15 -63 47 -63 39 0 -4 -7 -1 -15 6 -8
7 -13 16 -10 20 3 5 -4 11 -15 15 -11 4 -18 11 -15 16 3 5 -1 6 -9 3 -11 -4
-16 0 -16 12 0 15 -2 16 -9 5 -7 -11 -10 -11 -17 0 -4 7 -3 14 4 17 24 8 11
17 -23 16 -32 -2 -34 0 -24 18 13 24 5 35 -15 19 -10 -8 -16 -9 -21 -1 -3 5
-1 10 4 10 6 0 11 5 11 11 0 6 -9 8 -20 4 -21 -7 -28 10 -7 18 7 4 6 6 -5 6
-9 1 -19 7 -21 14 -3 7 -6 4 -6 -6 -1 -10 -6 -15 -11 -12 -6 4 -8 10 -6 14 3
4 -4 17 -14 29 -11 12 -20 28 -20 37 0 8 -6 15 -14 15 -15 0 -86 104 -86 127
0 8 -4 12 -9 9 -4 -3 -6 6 -3 19 2 15 0 25 -7 25 -7 0 -9 10 -5 28 6 26 6 27
-11 7 -12 -14 -15 -16 -12 -4 3 9 -3 29 -14 45 -10 16 -19 40 -19 54 -1 14 -7
36 -15 50 -7 14 -11 39 -9 55 4 25 3 26 -5 10 -8 -17 -10 -16 -10 12 -1 17 2
33 7 36 4 2 1 2 -5 1 -10 -3 -13 34 -13 157 0 104 3 158 10 154 6 -3 10 -1 10
4 0 6 -4 11 -9 11 -5 0 -7 9 -4 20 3 11 9 17 14 14 5 -3 9 11 9 32 0 44 37
174 49 174 5 0 7 9 4 20 -7 28 13 25 22 -2 4 -15 8 -19 12 -10 3 8 0 19 -6 25
-15 15 -14 40 1 31 8 -5 9 0 6 14 -4 12 -2 20 2 17 5 -3 11 9 15 26 4 17 13
33 20 36 8 2 11 12 8 21 -4 13 -2 13 9 -2 8 -10 19 -17 24 -13 5 3 9 -228 9
-564 0 -449 -3 -569 -12 -569 -7 0 -13 -5 -13 -11 0 -6 9 -8 20 -4 15 5 18 3
14 -9 -4 -10 -1 -16 7 -16 11 0 11 -3 -1 -10 -12 -7 -8 -10 15 -10 22 0 26 3
17 12 -7 7 -12 16 -12 20 0 4 77 8 170 8 l170 0 0 222 0 221 142 -6 c77 -4
143 -8 145 -10 2 -3 -1 -15 -6 -29 -5 -14 -6 -30 -2 -37 5 -8 11 2 15 27 7 45
-1 42 156 63 52 7 97 15 100 18 3 4 16 12 29 19 20 12 26 11 39 -2 9 -8 12
-19 8 -23 -4 -4 -14 1 -22 12 -14 19 -14 19 -12 -5 3 -21 -2 -26 -24 -28 -16
-2 -28 -7 -28 -12 0 -12 -54 -22 -117 -21 -31 0 -65 -5 -77 -11 -11 -7 -27
-11 -33 -10 -10 2 -13 -38 -11 -180 l2 -183 6 170 6 170 1 -179 c0 -104 5
-181 10 -185 6 -3 13 -13 16 -21 4 -12 6 -11 6 3 1 9 6 17 12 17 5 0 7 -4 4
-10 -4 -7 62 -9 192 -8 l198 2 -180 6 c-144 5 -114 6 150 6 315 0 333 1 393
22 35 13 68 19 74 16 7 -4 8 -3 4 4 -9 15 -1 15 27 0 20 -10 21 -10 8 6 -13
15 -12 16 13 6 34 -13 39 -13 31 1 -4 6 -17 14 -29 19 l-21 9 22 0 c12 1 25 6
28 12 4 6 13 8 21 5 13 -5 19 6 15 27 -1 5 4 5 11 1 6 -4 24 -8 39 -9 22 -1
26 2 24 20 -1 12 -6 28 -10 36 -5 8 -5 11 -1 7 10 -9 50 28 43 39 -3 4 1 16 8
26 12 17 14 17 30 -5 17 -22 16 -17 -1 26 -6 15 -4 17 6 11 10 -6 12 -4 7 8
-9 24 15 75 33 70 11 -3 12 -2 2 4 -13 10 -6 73 8 73 4 0 7 12 7 28 0 15 2 83
5 152 3 72 2 114 -3 100 -7 -21 -8 -20 -3 5 4 17 7 44 7 62 0 18 7 35 15 38
11 4 13 -1 8 -21 -4 -14 -3 -31 2 -37 6 -7 12 -19 15 -27 2 -8 3 -2 1 14 -2
16 -4 41 -4 57 0 22 -5 29 -19 29 -22 0 -35 -30 -26 -60 3 -11 2 -20 -3 -20
-12 0 -24 58 -15 73 3 5 1 7 -5 3 -13 -8 -36 59 -26 75 4 7 3 9 -3 6 -6 -4
-16 0 -23 8 -11 13 -9 20 9 38 11 13 21 32 20 43 0 18 -1 18 -9 -1 -9 -24 -38
-50 -46 -43 -3 3 2 13 11 22 19 19 12 21 -17 5 -13 -7 -18 -7 -14 -1 4 6 -2
15 -11 21 -10 6 -12 11 -5 11 10 0 10 4 0 20 -7 11 -17 20 -22 20 -4 0 -3 -7
4 -15 15 -18 -1 -20 -18 -3 -15 15 -15 25 1 31 6 2 -1 2 -17 -1 -28 -4 -29 -3
-22 29 3 19 3 29 -2 24 -13 -18 -60 -14 -65 5 -3 14 -11 17 -28 13 -20 -4 -21
-3 -9 7 13 10 12 11 -4 6 -24 -8 -88 12 -80 25 3 6 -5 7 -20 3 -14 -3 -26 -2
-26 2 0 11 -388 19 -418 9 -31 -9 -23 -39 24 -83 21 -20 37 -43 36 -51 -2 -9
2 -12 11 -8 11 4 19 -4 26 -24 5 -16 15 -29 20 -29 6 0 11 -5 11 -11 0 -5 -4
-7 -10 -4 -5 3 -10 2 -10 -4 0 -5 5 -11 12 -13 8 -3 8 -9 0 -24 -9 -17 -12
-14 -18 23 -3 24 -10 40 -14 38 -5 -3 -6 4 -3 14 3 14 0 19 -13 18 -11 -1 -20
7 -24 22 -3 14 -12 27 -19 29 -8 3 -11 0 -7 -7 11 -18 1 -13 -19 9 -18 20 -18
21 1 14 17 -7 17 -6 5 9 -9 12 -17 14 -25 8 -14 -12 -70 21 -59 34 5 4 0 5
-10 2 -10 -4 -52 0 -95 8 -42 8 -92 15 -110 15 -20 0 -31 5 -30 13 2 7 -10 13
-32 14 l-35 1 30 -8 c17 -4 -124 -7 -319 -5 -345 3 -350 3 -357 24 -5 12 -4
20 1 18 5 -1 21 16 34 38 20 32 25 36 26 19 0 -12 -7 -25 -16 -28 -9 -4 -14
-9 -11 -12 3 -3 15 -1 26 6 17 9 21 18 18 46 -3 19 0 37 6 41 6 3 7 1 3 -5 -4
-7 -3 -12 2 -12 6 0 8 -9 5 -20 -3 -11 -1 -20 5 -20 14 0 21 37 9 49 -7 7 -5
16 8 31 15 16 21 18 33 7 12 -9 16 -9 19 1 3 6 10 9 16 5 7 -3 8 -2 4 3 -5 5
-13 10 -18 10 -5 1 -12 2 -15 3 -12 2 55 51 70 51 9 0 16 7 16 16 0 13 3 14
14 5 12 -10 17 -8 26 8 6 12 8 21 4 21 -4 0 -5 2 -2 5 3 3 13 2 23 -2 18 -6
18 -7 -1 -14 -16 -6 -16 -8 -2 -8 24 -1 32 17 17 37 -7 9 -10 14 -5 10 8 -7
11 -5 59 37 15 14 39 25 52 25 13 0 25 3 27 8 4 10 99 42 126 42 13 0 21 4 18
9 -3 5 4 11 17 15 32 8 46 6 22 -4 -16 -6 -13 -8 15 -7 19 0 44 -3 54 -8 14
-6 17 -5 12 4 -5 7 -18 16 -30 21 -20 8 -19 9 6 9 15 1 30 -3 33 -9 3 -5 14
-10 23 -10 15 0 15 2 2 10 -11 7 -5 10 23 10 21 0 36 3 34 8 -3 4 33 6 79 4
48 -2 82 -7 79 -13z m365 -79 c0 -5 -4 -10 -9 -10 -6 0 -13 5 -16 10 -3 6 1
10 9 10 9 0 16 -4 16 -10z m-1330 -411 c0 -6 -4 -7 -10 -4 -5 3 -10 11 -10 16
0 6 5 7 10 4 6 -3 10 -11 10 -16z m798 -43 c239 -43 324 -127 324 -322 0 -160
-47 -242 -177 -304 -82 -40 -184 -52 -403 -48 l-182 3 0 -222 0 -223 -165 0
-165 0 0 568 0 567 346 -3 c236 -2 369 -7 422 -16z m682 -1 c102 -32 172 -75
246 -150 60 -61 76 -84 102 -153 87 -225 43 -500 -103 -647 -25 -26 -103 -84
-130 -98 -16 -8 -59 -25 -95 -38 -62 -22 -80 -23 -422 -27 l-358 -3 0 174 0
173 90 12 c108 15 173 35 218 69 17 13 32 20 33 16 1 -4 0 -43 -1 -87 l-2 -78
154 4 c177 6 219 18 272 80 42 49 61 113 60 203 -1 110 -19 167 -67 219 -46
49 -78 61 -194 72 l-72 6 -11 55 c-14 67 -82 169 -128 194 -19 9 -37 21 -40
24 -4 4 83 5 193 2 152 -3 213 -9 255 -22z m180 -45 c0 -5 -2 -10 -4 -10 -3 0
-8 5 -11 10 -3 6 -1 10 4 10 6 0 11 -4 11 -10z m-443 -247 c3 9 9 15 14 11 5
-3 7 -10 4 -15 -4 -5 -1 -9 4 -9 6 0 11 3 11 8 0 11 93 12 107 0 7 -5 18 -6
24 -2 8 4 9 3 5 -4 -4 -7 -1 -12 7 -12 29 0 77 -32 77 -51 0 -11 3 -18 8 -16
4 3 8 -10 9 -29 2 -19 -2 -34 -7 -34 -6 0 -10 13 -10 29 0 17 -4 32 -10 36 -5
3 -7 13 -4 23 5 14 3 14 -6 -2 -10 -14 -10 -20 0 -26 9 -5 11 -20 7 -46 -4
-27 -3 -34 3 -24 6 10 10 11 10 3 0 -21 16 -15 27 10 9 19 12 12 18 -45 4 -38
4 -94 0 -125 -7 -51 -9 -55 -18 -35 -5 12 -14 22 -20 22 -6 0 -6 -5 1 -12 16
-21 26 -62 13 -54 -7 5 -11 -1 -11 -14 0 -12 -4 -19 -8 -16 -5 3 -7 18 -4 35
2 16 0 36 -5 45 -6 10 -8 0 -7 -32 1 -79 5 -75 -98 -123 -22 -9 -34 -10 -53
-1 -31 14 -46 15 -25 2 10 -7 -11 -10 -68 -10 -53 0 -81 4 -77 10 8 13 -1 13
-26 0 -11 -6 -19 -7 -18 -3 1 4 1 38 0 75 -1 64 -2 67 -33 82 -34 17 -52 21
-28 6 8 -5 11 -12 7 -16 -4 -4 -14 -1 -23 8 -14 14 -12 17 18 36 43 27 76 64
70 81 -3 8 0 11 6 7 6 -3 13 7 17 24 4 16 10 30 15 30 4 0 8 10 8 23 -1 88 5
212 10 225 3 10 14 -3 30 -39 17 -37 26 -48 29 -36z m543 -703 c0 -11 -30 -21
-41 -15 -13 8 13 33 28 28 7 -3 13 -9 13 -13z m120 -6 c0 -8 -4 -12 -10 -9 -5
3 -10 13 -10 21 0 8 5 12 10 9 6 -3 10 -13 10 -21z m-360 -434 c12 -8 9 -10
-10 -8 -15 2 -24 -2 -23 -9 2 -7 -4 -10 -12 -7 -18 7 -19 21 -2 27 19 8 31 7
47 -3z m-900 -166 c0 -2 -7 -4 -15 -4 -8 0 -15 4 -15 10 0 5 7 7 15 4 8 -4 15
-8 15 -10z"/>
<path d="M1233 2353 c9 -2 23 -2 30 0 6 3 -1 5 -18 5 -16 0 -22 -2 -12 -5z"/>
<path d="M1290 2340 l-95 -6 105 -2 c58 -1 112 3 120 8 12 8 9 9 -10 8 -14 -1
-68 -5 -120 -8z"/>
<path d="M783 2252 c-7 -4 11 -9 39 -10 28 -1 50 0 47 2 -10 9 -75 15 -86 8z"/>
<path d="M1808 2163 c6 -2 18 -2 25 0 6 3 1 5 -13 5 -14 0 -19 -2 -12 -5z"/>
<path d="M605 2110 c-3 -5 -2 -10 4 -10 5 0 13 5 16 10 3 6 2 10 -4 10 -5 0
-13 -4 -16 -10z"/>
<path d="M505 2030 c-3 -5 -2 -10 4 -10 5 0 13 5 16 10 3 6 2 10 -4 10 -5 0
-13 -4 -16 -10z"/>
<path d="M2038 2020 c12 -11 24 -20 27 -20 3 0 1 9 -5 20 -6 11 -18 20 -27 20
-14 0 -13 -3 5 -20z"/>
<path d="M2008 2003 c7 -3 16 -2 19 1 4 3 -2 6 -13 5 -11 0 -14 -3 -6 -6z"/>
<path d="M2097 1960 c3 -11 9 -20 15 -20 5 0 4 9 -2 20 -6 11 -12 20 -14 20
-2 0 -2 -9 1 -20z"/>
<path d="M470 1933 c0 -5 -17 -15 -37 -21 l-38 -11 35 5 c36 5 58 19 47 31 -4
3 -7 2 -7 -4z"/>
<path d="M578 1913 c12 -2 32 -2 45 0 12 2 2 4 -23 4 -25 0 -35 -2 -22 -4z"/>
<path d="M748 1913 c12 -2 30 -2 40 0 9 3 -1 5 -23 4 -22 0 -30 -2 -17 -4z"/>
<path d="M1028 1913 c7 -3 16 -2 19 1 4 3 -2 6 -13 5 -11 0 -14 -3 -6 -6z"/>
<path d="M1375 1910 c3 -5 8 -10 11 -10 2 0 4 5 4 10 0 6 -5 10 -11 10 -5 0
-7 -4 -4 -10z"/>
<path d="M2110 1911 c0 -5 5 -13 10 -16 6 -3 10 -2 10 4 0 5 -4 13 -10 16 -5
3 -10 2 -10 -4z"/>
<path d="M1088 1903 c6 -2 18 -2 25 0 6 3 1 5 -13 5 -14 0 -19 -2 -12 -5z"/>
<path d="M1740 1901 c-24 -7 -24 -7 9 -14 19 -4 36 -5 39 -2 3 3 -3 6 -14 6
-12 1 -7 4 11 9 27 7 27 8 5 8 -14 0 -36 -3 -50 -7z"/>
<path d="M474 1892 c-7 -4 83 -7 200 -7 116 0 189 3 161 7 -69 9 -347 9 -361
0z"/>
<path d="M1448 1893 c7 -3 16 -2 19 1 4 3 -2 6 -13 5 -11 0 -14 -3 -6 -6z"/>
<path d="M1568 1893 c29 -2 74 -2 100 0 26 2 2 3 -53 3 -55 0 -76 -1 -47 -3z"/>
<path d="M973 1883 c9 -2 25 -2 35 0 9 3 1 5 -18 5 -19 0 -27 -2 -17 -5z"/>
<path d="M1373 1855 c-6 -11 -8 -26 -6 -32 6 -15 33 -17 33 -3 0 6 -8 10 -17
10 -14 0 -15 2 -4 9 7 5 11 15 9 22 -3 10 -8 8 -15 -6z"/>
<path d="M2028 1827 c15 -7 26 -7 33 0 6 6 -1 10 -23 10 -30 0 -30 -1 -10 -10z"/>
<path d="M2160 1830 c0 -5 5 -10 11 -10 5 0 7 5 4 10 -3 6 -8 10 -11 10 -2 0
-4 -4 -4 -10z"/>
<path d="M2220 1750 c0 -17 17 -47 23 -40 2 3 -2 16 -10 30 -7 14 -13 18 -13
10z"/>
<path d="M2220 1620 c0 -5 5 -10 11 -10 5 0 7 5 4 10 -3 6 -8 10 -11 10 -2 0
-4 -4 -4 -10z"/>
<path d="M232 1500 c1 -39 2 -42 11 -22 7 15 7 29 0 45 -10 19 -11 16 -11 -23z"/>
<path d="M2311 1405 c-1 -16 -4 -41 -6 -55 -4 -20 -4 -21 3 -5 6 12 9 -17 9
-80 0 -55 3 -111 8 -124 5 -16 4 -21 -4 -17 -6 4 -11 15 -11 24 -1 9 -7 -1
-15 -23 -19 -51 -18 -69 1 -30 l15 30 -4 -36 c-2 -24 2 -36 10 -36 15 0 14 -1
12 190 0 76 -5 150 -9 165 l-8 27 -1 -30z"/>
<path d="M2351 1398 c0 -14 -4 -35 -7 -45 -5 -17 -5 -17 6 0 6 10 9 30 7 45
l-4 27 -2 -27z"/>
<path d="M201 1348 c-1 -37 3 -69 7 -72 5 -3 6 23 4 57 -5 87 -10 94 -11 15z"/>
<path d="M233 1290 c0 -41 2 -58 4 -37 2 20 2 54 0 75 -2 20 -4 3 -4 -38z"/>
<path d="M2348 1180 c2 -16 6 -30 8 -30 2 0 4 14 4 30 0 17 -4 30 -8 30 -5 0
-7 -13 -4 -30z"/>
<path d="M1340 1150 c-13 -8 -12 -10 3 -10 9 0 17 5 17 10 0 12 -1 12 -20 0z"/>
<path d="M1268 1133 c6 -2 18 -2 25 0 6 3 1 5 -13 5 -14 0 -19 -2 -12 -5z"/>
<path d="M1170 1120 c-12 -8 -11 -10 8 -10 12 0 22 5 22 10 0 13 -11 13 -30 0z"/>
<path d="M1219 1119 c-10 -6 -4 -9 19 -9 17 0 32 2 32 4 0 9 -39 13 -51 5z"/>
<path d="M1105 1110 c-16 -7 -17 -9 -3 -9 9 -1 20 4 23 9 7 11 7 11 -20 0z"/>
<path d="M233 1060 c6 -58 17 -62 17 -7 0 27 -5 47 -11 47 -7 0 -9 -15 -6 -40z"/>
<path d="M2305 970 c-3 -5 -1 -10 4 -10 6 0 11 5 11 10 0 6 -2 10 -4 10 -3 0
-8 -4 -11 -10z"/>
<path d="M791 944 c0 -11 3 -14 6 -6 3 7 2 16 -1 19 -3 4 -6 -2 -5 -13z"/>
<path d="M2202 908 c1 -16 6 -28 10 -28 11 0 10 22 -2 40 -8 11 -9 9 -8 -12z"/>
<path d="M1043 800 c0 -36 2 -50 4 -32 2 17 2 47 0 65 -2 17 -4 3 -4 -33z"/>
<path d="M2170 730 c0 -17 17 -47 23 -40 2 3 -2 16 -10 30 -7 14 -13 18 -13
10z"/>
<path d="M792 690 c0 -19 2 -27 5 -17 2 9 2 25 0 35 -3 9 -5 1 -5 -18z"/>
<path d="M1048 709 c-3 -8 5 -22 18 -32 13 -10 24 -13 24 -7 0 5 -5 10 -10 10
-6 0 -14 10 -19 22 -5 15 -9 17 -13 7z"/>
<path d="M578 673 c12 -2 32 -2 45 0 12 2 2 4 -23 4 -25 0 -35 -2 -22 -4z"/>
<path d="M699 669 c24 -5 50 -5 57 -1 7 4 -13 8 -44 8 l-57 2 44 -9z"/>
<path d="M1642 671 c36 -4 29 -6 -42 -11 l-85 -5 86 -5 c73 -4 86 -3 84 10 -1
10 -15 15 -43 16 l-42 1 42 -6z"/>
<path d="M1773 673 c9 -2 23 -2 30 0 6 3 -1 5 -18 5 -16 0 -22 -2 -12 -5z"/>
<path d="M1820 670 c0 -5 -12 -10 -27 -11 -16 -1 -39 -5 -53 -10 -18 -6 -13
-7 20 -3 25 3 53 8 63 10 18 6 24 24 7 24 -5 0 -10 -4 -10 -10z"/>
<path d="M1040 662 c0 -12 19 -26 26 -19 2 2 -2 10 -11 17 -9 8 -15 8 -15 2z"/>
<path d="M1718 663 c6 -2 18 -2 25 0 6 3 1 5 -13 5 -14 0 -19 -2 -12 -5z"/>
<path d="M1138 653 c7 -3 16 -2 19 1 4 3 -2 6 -13 5 -11 0 -14 -3 -6 -6z"/>
<path d="M466 635 c7 -18 -7 -20 -24 -3 -20 20 -14 -1 7 -23 18 -20 18 -20 25
3 8 32 8 38 -4 38 -5 0 -7 -7 -4 -15z"/>
<path d="M748 643 c6 -2 18 -2 25 0 6 3 1 5 -13 5 -14 0 -19 -2 -12 -5z"/>
<path d="M1088 643 c7 -3 16 -2 19 1 4 3 -2 6 -13 5 -11 0 -14 -3 -6 -6z"/>
<path d="M528 553 c7 -3 16 -2 19 1 4 3 -2 6 -13 5 -11 0 -14 -3 -6 -6z"/>
<path d="M2009 543 c-13 -16 -12 -17 4 -4 16 13 21 21 13 21 -2 0 -10 -8 -17
-17z"/>
<path d="M2030 519 c0 -5 5 -7 10 -4 6 3 10 8 10 11 0 2 -4 4 -10 4 -5 0 -10
-5 -10 -11z"/>
<path d="M1935 450 c-3 -5 -2 -10 4 -10 5 0 13 5 16 10 3 6 2 10 -4 10 -5 0
-13 -4 -16 -10z"/>
<path d="M1175 290 c3 -5 11 -10 16 -10 6 0 7 5 4 10 -3 6 -11 10 -16 10 -6 0
-7 -4 -4 -10z"/>
<path d="M1467 254 c-2 -3 -24 -9 -48 -14 -42 -8 -16 -8 114 0 4 0 7 4 7 8 0
8 -65 13 -73 6z"/>
<path d="M1110 240 c0 -5 7 -7 15 -4 8 4 15 8 15 10 0 2 -7 4 -15 4 -8 0 -15
-4 -15 -10z"/>
<path d="M1154 233 c10 -10 56 -12 50 -1 -3 4 -17 8 -31 8 -15 0 -23 -3 -19
-7z"/>
<path d="M1288 223 c18 -2 45 -2 60 0 15 2 0 4 -33 4 -33 0 -45 -2 -27 -4z"/>
<path d="M454 1735 c0 -49 1 -71 3 -48 2 23 2 64 0 90 -2 26 -3 8 -3 -42z"/>
<path d="M1180 1790 c-24 -8 -23 -8 8 -9 20 -1 31 3 27 9 -3 6 -7 10 -8 9 -1
-1 -13 -5 -27 -9z"/>
<path d="M1000 1780 c-41 -6 -42 -7 -10 -8 19 0 53 3 75 7 33 7 35 9 10 8 -16
0 -50 -3 -75 -7z"/>
<path d="M1245 1780 c-3 -6 1 -7 9 -4 18 7 21 14 7 14 -6 0 -13 -4 -16 -10z"/>
<path d="M1088 1763 c7 -3 16 -2 19 1 4 3 -2 6 -13 5 -11 0 -14 -3 -6 -6z"/>
<path d="M1265 1760 c3 -5 8 -10 11 -10 2 0 4 5 4 10 0 6 -5 10 -11 10 -5 0
-7 -4 -4 -10z"/>
<path d="M1377 1721 c-17 -6 -17 -9 -4 -19 12 -10 16 -9 21 4 8 21 6 23 -17
15z"/>
<path d="M1410 1690 c0 -5 5 -10 10 -10 6 0 10 5 10 10 0 6 -4 10 -10 10 -5 0
-10 -4 -10 -10z"/>
<path d="M1090 1670 c0 -4 9 -10 20 -13 11 -3 20 -1 20 4 0 5 7 9 15 9 18 0
20 -16 3 -23 -9 -4 -9 -6 -2 -6 7 -1 22 7 33 17 22 17 21 17 -34 18 -30 0 -55
-2 -55 -6z"/>
<path d="M750 1496 l0 -161 117 3 c258 6 327 41 328 162 0 66 -15 89 -80 122
-39 20 -56 22 -282 31 l-83 4 0 -161z m40 123 c0 -6 5 -7 13 -2 6 4 52 8 101
8 83 0 86 -1 50 -12 -46 -14 -27 -16 36 -3 28 5 49 5 57 -2 7 -5 21 -7 33 -3
12 4 20 2 20 -5 0 -7 7 -10 14 -7 10 4 13 1 9 -9 -3 -8 -1 -20 5 -27 6 -6 15
-28 21 -47 8 -27 10 -29 7 -7 -2 15 1 27 5 27 5 0 9 -16 9 -36 0 -24 -4 -33
-12 -28 -7 5 -9 0 -6 -14 3 -12 0 -26 -8 -32 -10 -10 -12 -5 -10 22 2 18 1 24
-1 12 -3 -15 -11 -20 -26 -19 -14 1 -15 1 -4 -2 10 -3 16 -10 14 -16 -10 -31
-117 -57 -238 -57 l-79 0 -2 43 -1 42 -4 -42 c-2 -24 -8 -43 -13 -43 -6 0 -9
49 -8 114 2 63 6 112 10 110 11 -7 10 4 -2 27 -7 13 -7 19 0 19 5 0 10 -5 10
-11z m364 -55 c5 -14 4 -15 -9 -4 -17 14 -19 20 -6 20 5 0 12 -7 15 -16z"/>
<path d="M1121 1524 c0 -11 3 -14 6 -6 3 7 2 16 -1 19 -3 4 -6 -2 -5 -13z"/>
<path d="M918 1433 c23 -2 61 -2 85 0 23 2 4 4 -43 4 -47 0 -66 -2 -42 -4z"/>
<path d="M1185 1640 c-3 -5 -1 -10 4 -10 6 0 11 5 11 10 0 6 -2 10 -4 10 -3 0
-8 -4 -11 -10z"/>
<path d="M1452 1630 c0 -14 2 -19 5 -12 2 6 2 18 0 25 -3 6 -5 1 -5 -13z"/>
<path d="M456 1536 c2 -32 4 -97 4 -144 0 -47 2 -83 6 -80 3 3 6 70 7 149 2
79 0 124 -3 99 l-6 -45 -6 40 c-3 22 -4 14 -2 -19z"/>
<path d="M1220 1588 c0 -8 10 -23 22 -34 l21 -19 -18 30 c-26 41 -25 40 -25
23z"/>
<path d="M1455 1580 c-4 -12 -5 -24 -2 -27 3 -2 8 5 12 17 4 12 5 24 2 27 -3
2 -8 -5 -12 -17z"/>
<path d="M687 1563 c-9 -9 -9 -43 1 -43 4 0 8 11 8 25 2 27 1 29 -9 18z"/>
<path d="M1481 1554 c0 -11 3 -14 6 -6 3 7 2 16 -1 19 -3 4 -6 -2 -5 -13z"/>
<path d="M1460 1532 c0 -7 -3 -11 -7 -9 -5 3 -8 -19 -8 -48 0 -29 3 -48 7 -42
4 7 8 30 8 52 1 33 2 37 11 22 7 -13 7 -27 0 -49 -14 -39 -15 -71 -2 -48 17
31 20 85 6 110 -8 14 -14 19 -15 12z"/>
<path d="M1237 1500 c3 -11 7 -20 9 -20 2 0 4 9 4 20 0 11 -4 20 -9 20 -5 0
-7 -9 -4 -20z"/>
<path d="M1271 1504 c0 -11 3 -14 6 -6 3 7 2 16 -1 19 -3 4 -6 -2 -5 -13z"/>
<path d="M1440 1375 c0 -8 5 -15 10 -15 6 0 10 7 10 15 0 8 -4 15 -10 15 -5 0
-10 -7 -10 -15z"/>
<path d="M1198 1353 c7 -3 16 -2 19 1 4 3 -2 6 -13 5 -11 0 -14 -3 -6 -6z"/>
<path d="M1085 1330 c-8 -13 5 -13 25 0 13 8 13 10 -2 10 -9 0 -20 -4 -23 -10z"/>
<path d="M728 1313 c7 -3 16 -2 19 1 4 3 -2 6 -13 5 -11 0 -14 -3 -6 -6z"/>
<path d="M968 1313 c6 -2 18 -2 25 0 6 3 1 5 -13 5 -14 0 -19 -2 -12 -5z"/>
<path d="M1029 1309 c-9 -6 4 -9 40 -9 30 0 52 2 50 4 -11 9 -77 13 -90 5z"/>
<path d="M720 1289 c0 -5 5 -7 10 -4 6 3 10 8 10 11 0 2 -4 4 -10 4 -5 0 -10
-5 -10 -11z"/>
<path d="M750 1290 c0 -5 5 -10 10 -10 6 0 10 5 10 10 0 6 -4 10 -10 10 -5 0
-10 -4 -10 -10z"/>
<path d="M956 1293 c-4 -4 -41 -10 -84 -14 l-77 -6 83 -1 c45 -1 82 2 82 7 0
5 12 12 28 14 l27 4 -26 2 c-14 0 -29 -2 -33 -6z"/>
<path d="M1058 1283 c-47 -12 -6 -18 112 -16 72 0 130 -3 130 -8 0 -5 -4 -9
-10 -9 -5 0 -10 -7 -10 -15 0 -12 4 -11 20 5 20 20 56 27 62 11 2 -4 10 -1 20
8 15 15 4 16 -130 19 -81 2 -154 5 -162 6 -8 2 -23 1 -32 -1z"/>
<path d="M456 1200 c-4 -41 -6 -163 -4 -270 l3 -195 3 232 c1 156 6 233 13
235 7 2 8 14 1 38 -8 33 -10 30 -16 -40z"/>
<path d="M985 1200 c-23 -6 -15 -8 35 -8 46 0 58 2 40 8 -30 10 -37 10 -75 0z"/>
<path d="M725 1190 c-3 -5 -1 -10 4 -10 6 0 11 5 11 10 0 6 -2 10 -4 10 -3 0
-8 -4 -11 -10z"/>
<path d="M1218 1193 c7 -3 16 -2 19 1 4 3 -2 6 -13 5 -11 0 -14 -3 -6 -6z"/>
<path d="M1118 1183 c12 -2 30 -2 40 0 9 3 -1 5 -23 4 -22 0 -30 -2 -17 -4z"/>
<path d="M700 1161 c0 -17 18 -21 24 -6 3 9 0 15 -9 15 -8 0 -15 -4 -15 -9z"/>
<path d="M712 1015 c0 -16 2 -22 5 -12 2 9 2 23 0 30 -3 6 -5 -1 -5 -18z"/>
<path d="M485 749 c4 -5 16 -9 27 -9 26 0 19 9 -11 15 -12 2 -19 0 -16 -6z"/>
<path d="M1580 1802 c6 -13 14 -21 18 -18 3 4 -2 14 -12 24 -18 16 -18 16 -6
-6z"/>
<path d="M1545 1790 c10 -11 20 -18 23 -16 5 6 -23 36 -34 36 -4 0 1 -9 11
-20z"/>
<path d="M1852 1781 c-11 -6 -10 -10 4 -15 9 -3 19 -4 22 -1 3 3 -1 5 -9 5
-11 0 -11 2 1 10 8 5 11 10 5 10 -5 0 -16 -4 -23 -9z"/>
<path d="M1586 1762 c-2 -4 -1 -14 4 -22 7 -11 9 -9 7 8 -1 24 -3 26 -11 14z"/>
<path d="M1788 1763 c7 -3 16 -2 19 1 4 3 -2 6 -13 5 -11 0 -14 -3 -6 -6z"/>
<path d="M1916 1757 c2 -7 14 -13 25 -13 19 0 19 1 3 13 -10 7 -21 13 -26 13
-4 0 -5 -6 -2 -13z"/>
<path d="M2021 1706 c-9 -11 -7 -15 8 -19 14 -3 17 0 14 14 -6 23 -7 23 -22 5z"/>
<path d="M2085 1618 c1 -7 8 -12 15 -10 7 1 18 -2 24 -7 9 -8 13 -7 13 4 0 8
-4 12 -9 9 -4 -3 -8 0 -8 7 0 9 -3 9 -14 0 -10 -8 -16 -9 -19 -1 -3 6 -4 5 -2
-2z"/>
<path d="M1708 1593 c7 -3 16 -2 19 1 4 3 -2 6 -13 5 -11 0 -14 -3 -6 -6z"/>
<path d="M1790 1589 c0 -5 5 -7 10 -4 6 3 10 8 10 11 0 2 -4 4 -10 4 -5 0 -10
-5 -10 -11z"/>
<path d="M1878 1593 c7 -3 16 -2 19 1 4 3 -2 6 -13 5 -11 0 -14 -3 -6 -6z"/>
<path d="M1911 1574 c0 -11 3 -14 6 -6 3 7 2 16 -1 19 -3 4 -6 -2 -5 -13z"/>
<path d="M1855 1560 c3 -5 13 -10 21 -10 8 0 12 5 9 10 -3 6 -13 10 -21 10 -8
0 -12 -4 -9 -10z"/>
<path d="M2082 1540 c0 -14 2 -19 5 -12 2 6 2 18 0 25 -3 6 -5 1 -5 -13z"/>
<path d="M1890 1533 c0 -5 8 -17 17 -28 14 -18 15 -18 9 -2 -3 10 -6 23 -6 28
0 5 -4 9 -10 9 -5 0 -10 -3 -10 -7z"/>
<path d="M2180 1513 c0 -4 5 -15 10 -23 8 -13 10 -13 10 2 0 9 -4 20 -10 23
-5 3 -10 3 -10 -2z"/>
<path d="M2163 1474 c1 -20 3 -31 5 -24 4 10 6 9 13 -1 17 -28 16 -3 -1 29
l-18 33 1 -37z"/>
<path d="M1954 1426 c-3 -8 -4 -23 -2 -33 3 -11 6 -6 9 15 6 34 2 42 -7 18z"/>
<path d="M1990 1380 c-1 -22 -2 -23 -9 -6 -8 20 -8 20 -13 0 -3 -10 3 -27 13
-38 17 -18 18 -17 12 3 -4 17 -2 20 13 15 12 -3 15 -3 8 3 -7 4 -14 17 -17 28
-4 17 -5 16 -7 -5z"/>
<path d="M1960 1267 c0 -25 3 -59 7 -78 l6 -33 13 45 c8 24 13 60 13 79 -1 28
-3 24 -10 -19 -12 -72 -23 -80 -17 -13 3 29 1 55 -3 58 -5 3 -9 -15 -9 -39z"/>
<path d="M1952 1140 c0 -14 2 -19 5 -12 2 6 2 18 0 25 -3 6 -5 1 -5 -13z"/>
<path d="M2174 1106 c-3 -8 -4 -23 -2 -33 3 -11 6 -6 9 15 6 34 2 42 -7 18z"/>
<path d="M2202 1090 c0 -14 2 -19 5 -12 2 6 2 18 0 25 -3 6 -5 1 -5 -13z"/>
<path d="M1372 1082 c-8 -6 -2 -9 18 -9 20 0 26 3 18 9 -7 4 -15 8 -18 8 -3 0
-11 -4 -18 -8z"/>
<path d="M1910 1061 c0 -5 5 -13 10 -16 6 -3 10 -2 10 4 0 5 -4 13 -10 16 -5
3 -10 2 -10 -4z"/>
<path d="M1345 1050 c3 -5 11 -10 16 -10 6 0 7 5 4 10 -3 6 -11 10 -16 10 -6
0 -7 -4 -4 -10z"/>
<path d="M1390 1050 c8 -5 20 -10 25 -10 6 0 3 5 -5 10 -8 5 -19 10 -25 10 -5
0 -3 -5 5 -10z"/>
<path d="M2155 1040 c-3 -5 -1 -10 4 -10 6 0 11 5 11 10 0 6 -2 10 -4 10 -3 0
-8 -4 -11 -10z"/>
<path d="M1228 1033 c6 -2 18 -2 25 0 6 3 1 5 -13 5 -14 0 -19 -2 -12 -5z"/>
<path d="M1885 1030 c4 -6 11 -8 16 -5 14 9 11 15 -7 15 -8 0 -12 -5 -9 -10z"/>
<path d="M1840 994 l-25 -15 25 5 c14 3 34 6 45 6 17 0 17 2 5 10 -19 12 -20
12 -50 -6z"/>
<path d="M2081 984 c0 -11 3 -14 6 -6 3 7 2 16 -1 19 -3 4 -6 -2 -5 -13z"/>
<path d="M2128 983 c7 -3 16 -2 19 1 4 3 -2 6 -13 5 -11 0 -14 -3 -6 -6z"/>
<path d="M1765 970 c-15 -6 -11 -7 17 -7 23 1 33 4 25 9 -14 9 -16 9 -42 -2z"/>
<path d="M1168 963 c6 -2 18 -2 25 0 6 3 1 5 -13 5 -14 0 -19 -2 -12 -5z"/>
<path d="M1898 963 c6 -2 18 -2 25 0 6 3 1 5 -13 5 -14 0 -19 -2 -12 -5z"/>
<path d="M2090 944 c0 -3 7 -12 15 -20 16 -17 18 -14 9 10 -6 15 -24 23 -24
10z"/>
<path d="M2086 907 c3 -10 9 -15 12 -12 3 3 0 11 -7 18 -10 9 -11 8 -5 -6z"/>
<path d="M2014 859 c15 -9 16 -13 5 -20 -9 -6 -10 -9 -2 -9 19 0 27 21 12 31
-8 5 -18 9 -24 9 -5 -1 -2 -5 9 -11z"/>
<path d="M1828 793 c7 -3 16 -2 19 1 4 3 -2 6 -13 5 -11 0 -14 -3 -6 -6z"/>
<path d="M1870 790 c-8 -5 -12 -12 -9 -15 4 -3 12 1 19 10 14 17 11 19 -10 5z"/>
<path d="M1895 780 c-8 -13 5 -13 25 0 13 8 13 10 -2 10 -9 0 -20 -4 -23 -10z"/>
<path d="M1783 773 c9 -2 23 -2 30 0 6 3 -1 5 -18 5 -16 0 -22 -2 -12 -5z"/>
<path d="M1552 1570 c0 -19 2 -27 5 -17 2 9 2 25 0 35 -3 9 -5 1 -5 -18z"/>
<path d="M1800 1486 c0 -9 5 -16 10 -16 6 0 10 4 10 9 0 6 -4 13 -10 16 -5 3
-10 -1 -10 -9z"/>
<path d="M1480 1230 c0 -5 5 -10 10 -10 6 0 10 5 10 10 0 6 -4 10 -10 10 -5 0
-10 -4 -10 -10z"/>
<path d="M1448 1203 c6 -2 18 -2 25 0 6 3 1 5 -13 5 -14 0 -19 -2 -12 -5z"/>
<path d="M1501 1151 c-6 -11 -7 -22 -2 -25 5 -3 11 4 14 16 8 30 1 35 -12 9z"/>
<path d="M1548 1093 c6 -2 18 -2 25 0 6 3 1 5 -13 5 -14 0 -19 -2 -12 -5z"/>
<path d="M1520 1058 c0 -5 18 -8 40 -8 22 0 40 2 40 4 0 2 -18 6 -40 8 -22 2
-40 0 -40 -4z"/>
<path d="M1448 2463 c6 -2 18 -2 25 0 6 3 1 5 -13 5 -14 0 -19 -2 -12 -5z"/>
<path d="M540 2410 c0 -5 5 -10 10 -10 6 0 10 5 10 10 0 6 -4 10 -10 10 -5 0
-10 -4 -10 -10z"/>
<path d="M790 2400 c0 -5 5 -10 11 -10 5 0 7 5 4 10 -3 6 -8 10 -11 10 -2 0
-4 -4 -4 -10z"/>
<path d="M756 2391 c-4 -7 -5 -15 -2 -18 9 -9 19 4 14 18 -4 11 -6 11 -12 0z"/>
<path d="M1935 2320 c-17 -7 -16 -9 11 -9 16 -1 35 -6 42 -13 7 -7 12 -9 12
-4 0 10 -27 36 -37 35 -4 0 -17 -4 -28 -9z"/>
<path d="M560 2290 c0 -6 7 -10 15 -10 8 0 15 2 15 4 0 2 -7 6 -15 10 -8 3
-15 1 -15 -4z"/>
<path d="M2071 2274 c0 -11 3 -14 6 -6 3 7 2 16 -1 19 -3 4 -6 -2 -5 -13z"/>
<path d="M2071 2223 c-9 -16 -12 -16 -20 -3 -6 8 -13 11 -17 8 -3 -4 1 -15 10
-24 9 -9 18 -15 19 -13 1 2 11 14 21 27 11 12 14 22 8 22 -6 0 -16 -8 -21 -17z"/>
<path d="M2106 2213 c-11 -11 -6 -23 9 -23 8 0 15 4 15 9 0 13 -16 22 -24 14z"/>
<path d="M2157 2166 c-4 -9 -14 -16 -24 -16 -13 0 -14 -3 -5 -12 10 -10 15
-10 21 1 5 8 15 12 22 9 8 -3 23 -2 34 3 20 8 20 8 0 8 -12 1 -26 6 -32 12 -7
7 -12 6 -16 -5z"/>
<path d="M2311 2084 c0 -11 3 -14 6 -6 3 7 2 16 -1 19 -3 4 -6 -2 -5 -13z"/>
<path d="M161 2064 c0 -11 3 -14 6 -6 3 7 2 16 -1 19 -3 4 -6 -2 -5 -13z"/>
<path d="M2200 2070 c-12 -7 -11 -12 7 -27 11 -10 23 -27 26 -38 4 -19 5 -18
6 2 0 12 -6 28 -14 37 -20 20 -19 29 4 21 11 -3 22 -1 26 5 8 13 -34 13 -55 0z"/>
<path d="M273 2002 c-7 -4 -9 -13 -4 -21 6 -9 10 -7 14 8 3 12 4 21 4 21 -1 0
-7 -4 -14 -8z"/>
<path d="M305 2000 c-3 -5 1 -10 10 -10 9 0 13 5 10 10 -3 6 -8 10 -10 10 -2
0 -7 -4 -10 -10z"/>
<path d="M240 1988 c0 -9 -6 -18 -12 -21 -10 -3 -10 -7 -1 -17 9 -10 13 -7 19
14 3 15 4 30 0 33 -3 4 -6 -1 -6 -9z"/>
<path d="M2263 1979 c9 -13 24 -39 32 -58 21 -48 29 -32 9 18 -9 23 -26 47
-37 53 -21 11 -21 11 -4 -13z"/>
<path d="M2298 1993 c7 -3 16 -2 19 1 4 3 -2 6 -13 5 -11 0 -14 -3 -6 -6z"/>
<path d="M2337 1968 c-4 -15 -1 -37 7 -53 20 -38 27 -16 12 35 -12 41 -13 42
-19 18z"/>
<path d="M190 1931 c0 -5 10 -11 23 -15 38 -10 43 -7 13 9 -33 17 -36 18 -36
6z"/>
<path d="M160 1879 c0 -11 4 -18 10 -14 5 3 7 12 3 20 -7 21 -13 19 -13 -6z"/>
<path d="M191 1834 c0 -11 3 -14 6 -6 3 7 2 16 -1 19 -3 4 -6 -2 -5 -13z"/>
<path d="M2355 1830 c3 -5 8 -10 11 -10 2 0 4 5 4 10 0 6 -5 10 -11 10 -5 0
-7 -4 -4 -10z"/>
<path d="M2400 1833 c8 -3 18 -11 22 -17 5 -7 8 -4 8 7 0 11 -7 17 -22 16 -16
0 -18 -2 -8 -6z"/>
<path d="M181 1794 c0 -11 3 -14 6 -6 3 7 2 16 -1 19 -3 4 -6 -2 -5 -13z"/>
<path d="M2370 1791 c0 -11 5 -23 10 -26 6 -4 10 5 10 19 0 14 -4 26 -10 26
-5 0 -10 -9 -10 -19z"/>
<path d="M2420 1771 c0 -35 13 -46 30 -26 10 12 10 15 -3 15 -10 0 -13 6 -10
20 3 11 0 20 -6 20 -6 0 -11 -13 -11 -29z"/>
<path d="M103 1721 c-3 -12 -9 -21 -14 -21 -5 0 -9 -10 -9 -21 0 -21 1 -21 25
5 27 30 31 41 14 51 -6 4 -13 -2 -16 -14z"/>
<path d="M2460 1711 c0 -6 5 -13 10 -16 6 -3 10 1 10 9 0 9 -4 16 -10 16 -5 0
-10 -4 -10 -9z"/>
<path d="M2460 1670 c0 -5 5 -10 10 -10 6 0 10 5 10 10 0 6 -4 10 -10 10 -5 0
-10 -4 -10 -10z"/>
<path d="M2466 1622 c-4 -7 -12 -10 -17 -7 -5 4 -9 -3 -9 -14 0 -12 3 -21 6
-21 12 0 35 31 32 42 -3 9 -6 9 -12 0z"/>
<path d="M0 1610 c0 -5 5 -10 11 -10 5 0 7 5 4 10 -3 6 -8 10 -11 10 -2 0 -4
-4 -4 -10z"/>
<path d="M53 1586 c0 -8 6 -12 14 -9 16 6 18 -48 2 -64 -8 -8 -8 -13 0 -17 6
-4 11 -2 11 4 0 6 5 8 10 5 7 -4 9 3 5 19 -3 14 -7 37 -10 51 -6 26 -32 35
-32 11z"/>
<path d="M2474 1558 c3 -13 6 -27 6 -33 0 -5 4 -4 9 4 10 16 3 51 -11 51 -6 0
-8 -10 -4 -22z"/>
<path d="M47 1545 c-4 -8 -2 -17 3 -20 6 -4 10 3 10 14 0 25 -6 27 -13 6z"/>
<path d="M2510 1510 c0 -5 7 -7 15 -4 8 4 15 8 15 10 0 2 -7 4 -15 4 -8 0 -15
-4 -15 -10z"/>
<path d="M39 1478 c-1 -2 -3 -25 -5 -53 -14 -206 -15 -225 -5 -225 7 0 9 -14
5 -40 -4 -22 -3 -40 2 -40 5 0 9 81 9 180 0 158 -1 188 -6 178z"/>
<path d="M2520 1400 c0 -22 2 -40 4 -40 2 0 6 18 8 40 2 22 0 40 -4 40 -5 0
-8 -18 -8 -40z"/>
<path d="M73 1305 c-3 -9 -3 -18 -1 -21 3 -3 8 4 11 16 6 23 -1 27 -10 5z"/>
<path d="M80 1050 c0 -5 5 -10 10 -10 6 0 10 5 10 10 0 6 -4 10 -10 10 -5 0
-10 -4 -10 -10z"/>
<path d="M2455 1039 c-4 -6 -5 -12 -2 -15 2 -3 7 2 10 11 7 17 1 20 -8 4z"/>
<path d="M2472 990 c0 -14 2 -19 5 -12 2 6 2 18 0 25 -3 6 -5 1 -5 -13z"/>
<path d="M2440 976 c0 -9 5 -16 10 -16 6 0 10 4 10 9 0 6 -4 13 -10 16 -5 3
-10 -1 -10 -9z"/>
<path d="M116 834 c-9 -23 -2 -28 13 -10 7 8 8 17 3 20 -6 3 -13 -1 -16 -10z"/>
<path d="M156 803 c-6 -14 -5 -15 5 -6 7 7 10 15 7 18 -3 3 -9 -2 -12 -12z"/>
<path d="M120 788 c0 -7 5 -20 10 -28 8 -12 10 -9 10 13 0 15 -4 27 -10 27 -5
0 -10 -6 -10 -12z"/>
<path d="M2391 734 c0 -11 3 -14 6 -6 3 7 2 16 -1 19 -3 4 -6 -2 -5 -13z"/>
<path d="M130 730 c0 -5 5 -10 11 -10 5 0 7 5 4 10 -3 6 -8 10 -11 10 -2 0 -4
-4 -4 -10z"/>
<path d="M160 670 c0 -5 5 -10 10 -10 6 0 10 5 10 10 0 6 -4 10 -10 10 -5 0
-10 -4 -10 -10z"/>
<path d="M253 593 c9 -9 19 -14 23 -11 10 10 -6 28 -24 28 -15 0 -15 -1 1 -17z"/>
<path d="M240 570 c0 -5 5 -10 11 -10 5 0 7 5 4 10 -3 6 -8 10 -11 10 -2 0 -4
-4 -4 -10z"/>
<path d="M270 536 c0 -8 5 -18 10 -21 6 -3 10 1 10 9 0 8 -4 18 -10 21 -5 3
-10 -1 -10 -9z"/>
<path d="M325 531 c4 -13 0 -23 -12 -30 -10 -5 -14 -13 -10 -18 5 -4 15 1 23
12 13 17 16 18 24 5 5 -8 12 -12 15 -8 3 3 -6 18 -20 32 -22 22 -25 23 -20 7z"/>
<path d="M2215 531 c-4 -8 -2 -17 6 -22 12 -8 12 -11 -1 -19 -9 -6 -10 -10 -3
-10 18 0 24 16 15 41 -6 16 -11 19 -17 10z"/>
<path d="M2305 470 c3 -5 8 -10 11 -10 2 0 4 5 4 10 0 6 -5 10 -11 10 -5 0 -7
-4 -4 -10z"/>
<path d="M342 449 c1 -12 9 -24 16 -27 9 -3 13 3 10 19 -1 12 -9 24 -16 27 -9
3 -13 -3 -10 -19z"/>
<path d="M2142 438 c-15 -15 -15 -25 1 -31 7 -3 12 4 12 19 0 13 0 24 0 24 -1
0 -6 -5 -13 -12z"/>
<path d="M2050 364 c0 -3 7 -12 15 -20 16 -17 18 -14 9 10 -6 15 -24 23 -24
10z"/>
<path d="M2160 330 c0 -5 5 -10 10 -10 6 0 10 5 10 10 0 6 -4 10 -10 10 -5 0
-10 -4 -10 -10z"/>
<path d="M572 288 c-7 -7 -12 -18 -12 -25 0 -7 -6 -13 -12 -13 -7 0 14 -14 46
-30 33 -17 66 -29 75 -27 11 3 7 8 -14 18 -44 20 -56 34 -42 48 8 8 7 11 -6
11 -9 0 -17 -7 -17 -15 0 -8 -4 -15 -10 -15 -14 0 -12 38 3 43 6 2 9 7 6 10
-3 4 -11 1 -17 -5z"/>
<path d="M1985 270 c3 -5 8 -10 11 -10 2 0 4 5 4 10 0 6 -5 10 -11 10 -5 0 -7
-4 -4 -10z"/>
<path d="M458 263 c7 -3 16 -2 19 1 4 3 -2 6 -13 5 -11 0 -14 -3 -6 -6z"/>
<path d="M1940 266 c0 -13 35 -36 53 -35 20 1 20 2 -3 8 -14 4 -24 13 -22 19
1 7 -5 12 -13 12 -8 0 -15 -2 -15 -4z"/>
<path d="M630 250 c0 -6 7 -10 15 -10 8 0 15 2 15 4 0 2 -7 6 -15 10 -8 3 -15
1 -15 -4z"/>
<path d="M1825 210 c-3 -5 -1 -10 4 -10 6 0 11 5 11 10 0 6 -2 10 -4 10 -3 0
-8 -4 -11 -10z"/>
<path d="M720 199 c0 -5 5 -7 10 -4 6 3 10 8 10 11 0 2 -4 4 -10 4 -5 0 -10
-5 -10 -11z"/>
<path d="M560 179 c0 -5 5 -7 10 -4 6 3 10 8 10 11 0 2 -4 4 -10 4 -5 0 -10
-5 -10 -11z"/>
<path d="M1795 180 c3 -5 13 -10 21 -10 8 0 12 5 9 10 -3 6 -13 10 -21 10 -8
0 -12 -4 -9 -10z"/>
<path d="M705 170 c-3 -5 -1 -10 4 -10 6 0 11 5 11 10 0 6 -2 10 -4 10 -3 0
-8 -4 -11 -10z"/>
<path d="M1748 163 c6 -2 18 -2 25 0 6 3 1 5 -13 5 -14 0 -19 -2 -12 -5z"/>
<path d="M720 140 c0 -5 5 -10 10 -10 6 0 10 5 10 10 0 6 -4 10 -10 10 -5 0
-10 -4 -10 -10z"/>
<path d="M772 142 c-9 -6 -6 -12 12 -20 28 -12 41 -5 25 15 -13 15 -19 16 -37
5z"/>
<path d="M863 135 c-9 -10 -9 -16 -2 -20 14 -9 22 0 17 18 -2 13 -5 13 -15 2z"/>
<path d="M978 103 c17 -7 15 -23 -3 -23 -8 0 -15 -5 -15 -11 0 -5 5 -7 11 -3
6 4 35 13 63 20 35 9 39 12 14 8 -20 -2 -39 0 -43 6 -3 5 -14 10 -23 9 -11 0
-12 -3 -4 -6z"/>
<path d="M1448 93 c6 -2 18 -2 25 0 6 3 1 5 -13 5 -14 0 -19 -2 -12 -5z"/>
<path d="M1106 81 c-4 -7 -5 -15 -2 -18 9 -9 19 4 14 18 -4 11 -6 11 -12 0z"/>
<path d="M1120 33 c0 -5 72 -8 160 -9 88 0 160 3 160 8 0 4 -72 8 -160 8 -88
0 -160 -3 -160 -7z"/>
</g>
</svg>
