<?xml version="1.0" standalone="no"?>
<!DOCTYPE svg PUBLIC "-//W3C//DTD SVG 20010904//EN"
 "http://www.w3.org/TR/2001/REC-SVG-20010904/DTD/svg10.dtd">
<svg version="1.0" xmlns="http://www.w3.org/2000/svg"
 width="100.000000pt" height="100.000000pt" viewBox="0 0 100.000000 100.000000"
 preserveAspectRatio="xMidYMid meet">
<metadata>
Created by potrace 1.16, written by Peter Selinger 2001-2019
</metadata>
<g transform="translate(0.000000,100.000000) scale(0.100000,-0.100000)"
fill="#000000" stroke="none">
<path d="M60 980 c0 -11 5 -20 10 -20 6 0 10 9 10 20 0 11 -4 20 -10 20 -5 0
-10 -9 -10 -20z"/>
<path d="M130 980 c0 -11 5 -20 10 -20 6 0 10 9 10 20 0 11 -4 20 -10 20 -5 0
-10 -9 -10 -20z"/>
<path d="M190 980 c0 -11 5 -20 10 -20 6 0 10 9 10 20 0 11 -4 20 -10 20 -5 0
-10 -9 -10 -20z"/>
<path d="M250 980 c0 -11 5 -20 10 -20 6 0 10 9 10 20 0 11 -4 20 -10 20 -5 0
-10 -9 -10 -20z"/>
<path d="M310 980 c0 -11 5 -20 10 -20 6 0 10 9 10 20 0 11 -4 20 -10 20 -5 0
-10 -9 -10 -20z"/>
<path d="M370 980 c0 -11 5 -20 10 -20 6 0 10 9 10 20 0 11 -4 20 -10 20 -5 0
-10 -9 -10 -20z"/>
<path d="M440 980 c0 -11 5 -20 10 -20 6 0 10 9 10 20 0 11 -4 20 -10 20 -5 0
-10 -9 -10 -20z"/>
<path d="M500 980 c0 -11 5 -20 10 -20 6 0 10 9 10 20 0 11 -4 20 -10 20 -5 0
-10 -9 -10 -20z"/>
<path d="M560 980 c0 -11 5 -20 10 -20 6 0 10 9 10 20 0 11 -4 20 -10 20 -5 0
-10 -9 -10 -20z"/>
<path d="M620 980 c0 -11 5 -20 10 -20 6 0 10 9 10 20 0 11 -4 20 -10 20 -5 0
-10 -9 -10 -20z"/>
<path d="M692 980 c0 -14 2 -19 5 -12 2 6 2 18 0 25 -3 6 -5 1 -5 -13z"/>
<path d="M732 970 l5 -30 -339 0 -338 0 0 -440 0 -440 440 0 440 0 0 440 0
440 -95 0 -95 0 0 30 c0 17 -5 30 -11 30 -7 0 -10 -12 -7 -30z m-602 -100 c0
-57 -1 -60 -25 -60 -33 0 -34 35 -2 45 l22 8 -22 4 c-16 3 -23 11 -23 28 0 17
7 25 23 28 12 2 23 5 25 6 1 0 2 -26 2 -59z m40 35 c0 -8 -4 -15 -10 -15 -5 0
-10 7 -10 15 0 8 5 15 10 15 6 0 10 -7 10 -15z m440 0 c0 -16 11 -16 -252 -16
-83 0 -150 -4 -153 -9 -4 -6 73 -10 204 -10 l211 0 0 25 c0 24 2 25 65 25 63
0 65 -1 65 -25 0 -24 3 -25 60 -25 57 0 60 1 60 25 0 20 5 25 25 25 20 0 25
-5 25 -25 0 -17 -6 -25 -17 -26 -17 -1 -17 -2 0 -6 10 -3 17 -14 17 -29 0 -19
-5 -24 -25 -24 l-25 0 0 -125 0 -125 25 0 c21 0 25 -5 25 -30 0 -30 -22 -42
-36 -19 -3 6 -22 9 -40 7 l-34 -4 0 117 0 118 -27 3 c-22 2 -29 9 -31 31 -3
26 -5 27 -68 27 -62 0 -64 -1 -64 -25 0 -20 -6 -27 -30 -31 -22 -5 -30 -12
-30 -28 1 -19 2 -19 11 -3 14 25 29 21 29 -8 0 -18 -5 -25 -20 -25 -13 0 -20
-7 -20 -20 0 -16 -7 -20 -30 -20 -23 0 -30 4 -30 20 0 18 -6 20 -62 18 l-63
-1 54 -6 c69 -8 77 -27 15 -34 -58 -6 -74 -1 -74 24 0 14 -7 19 -30 19 -23 0
-30 -4 -30 -20 0 -16 -7 -20 -30 -20 -23 0 -30 4 -30 20 0 16 -7 20 -30 20
-23 0 -30 -4 -30 -20 0 -16 -7 -20 -30 -20 -29 0 -30 1 -30 50 0 47 -2 50 -25
50 -18 0 -25 5 -25 20 0 15 7 20 24 20 14 0 28 5 31 10 3 6 17 10 31 10 18 0
24 5 24 23 -1 20 -2 20 -11 5 -14 -26 -29 -22 -29 7 0 18 5 25 20 25 15 0 20
7 20 25 l0 25 210 0 c180 0 210 -2 210 -15z m240 1 c0 -7 -10 -15 -22 -18 -37
-6 -68 2 -68 18 0 10 13 14 45 14 32 0 45 -4 45 -14z m-120 -127 c0 -5 -20 -9
-45 -9 -49 0 -62 17 -17 22 34 4 62 -2 62 -13z m190 -94 c0 -96 -3 -115 -15
-115 -12 0 -15 19 -15 115 0 96 3 115 15 115 12 0 15 -19 15 -115z m-170 -90
l0 -155 55 0 c30 0 55 5 55 10 0 6 -11 10 -25 10 -17 0 -25 6 -25 18 -1 16 -1
16 -14 0 -17 -23 -26 -23 -26 2 0 17 7 20 50 20 l50 0 0 -60 0 -60 -125 0
-125 0 0 185 0 185 65 0 65 0 0 -155z m-640 85 c0 -38 -4 -50 -15 -50 -11 0
-15 12 -15 50 0 38 4 50 15 50 11 0 15 -12 15 -50z m684 34 c9 -22 8 -24 -9
-24 -8 0 -15 9 -15 20 0 24 15 27 24 4z m-554 -54 c0 -5 -7 -10 -15 -10 -8 0
-15 5 -15 10 0 6 7 10 15 10 8 0 15 -4 15 -10z m120 0 c0 -5 -9 -10 -20 -10
-11 0 -20 5 -20 10 0 6 9 10 20 10 11 0 20 -4 20 -10z m240 0 c0 -5 -4 -10
-10 -10 -5 0 -10 5 -10 10 0 6 5 10 10 10 6 0 10 -4 10 -10z m190 -45 c0 -30
-4 -55 -10 -55 -5 0 -10 25 -10 55 0 30 5 55 10 55 6 0 10 -25 10 -55z m-420
-20 l0 -35 65 0 65 0 0 -60 0 -60 30 0 c27 0 30 -3 30 -30 l0 -30 -60 0 -60 0
0 30 0 30 -65 0 -65 0 0 85 c0 56 -4 85 -11 85 -7 0 -9 -10 -5 -25 6 -22 3
-25 -19 -25 l-25 0 0 -155 0 -155 -60 0 -60 0 0 190 0 190 120 0 120 0 0 -35z
m50 10 c0 -16 -6 -25 -15 -25 -9 0 -15 9 -15 25 0 16 6 25 15 25 9 0 15 -9 15
-25z m186 9 c-3 -9 -6 -24 -6 -35 0 -16 -7 -19 -49 -19 -49 0 -50 1 -54 33 -3
28 -5 29 -11 10 -5 -11 -16 -23 -27 -26 -15 -4 -19 0 -19 24 l0 29 86 0 c74 0
85 -2 80 -16z m-496 -119 c0 -96 -3 -115 -15 -115 -12 0 -15 19 -15 115 0 96
3 115 15 115 12 0 15 -19 15 -115z m680 40 c0 -8 -4 -15 -10 -15 -5 0 -10 7
-10 15 0 8 5 15 10 15 6 0 10 -7 10 -15z m-500 -15 c0 -11 -4 -20 -10 -20 -5
0 -10 9 -10 20 0 11 5 20 10 20 6 0 10 -9 10 -20z m256 3 c13 -17 13 -17 14 0
0 25 40 23 40 -3 0 -13 -7 -20 -20 -20 -13 0 -20 -7 -20 -20 0 -13 -7 -20 -20
-20 -21 0 -29 29 -7 31 10 0 10 2 0 6 -13 5 -18 43 -7 43 4 0 13 -8 20 -17z
m374 -58 c0 -16 -6 -25 -15 -25 -9 0 -15 9 -15 25 0 16 6 25 15 25 9 0 15 -9
15 -25z m-630 5 c0 -5 -4 -10 -10 -10 -5 0 -10 5 -10 10 0 6 5 10 10 10 6 0
10 -4 10 -10z m310 0 c0 -5 -4 -10 -10 -10 -5 0 -10 5 -10 10 0 6 5 10 10 10
6 0 10 -4 10 -10z m-305 -50 c-4 -11 -2 -20 4 -20 6 0 11 6 11 13 0 6 13 12
30 13 25 1 30 -3 30 -22 0 -22 -4 -24 -52 -24 -52 0 -53 0 -53 30 0 22 5 30
18 30 14 0 17 -5 12 -20z m305 -10 c0 -16 -4 -30 -10 -30 -5 0 -10 14 -10 30
0 17 5 30 10 30 6 0 10 -13 10 -30z m-180 -10 c0 -11 -7 -20 -15 -20 -8 0 -15
9 -15 20 0 11 7 20 15 20 8 0 15 -9 15 -20z m500 10 c0 -5 -7 -10 -15 -10 -8
0 -15 5 -15 10 0 6 7 10 15 10 8 0 15 -4 15 -10z m0 -85 c0 -42 -3 -55 -15
-55 -16 0 -16 0 -20 45 -4 42 4 65 21 65 10 0 14 -14 14 -55z m-810 20 c0 -16
-6 -25 -15 -25 -9 0 -15 9 -15 25 0 16 6 25 15 25 9 0 15 -9 15 -25z m314 19
c9 -3 16 -17 16 -30 0 -20 5 -24 30 -24 25 0 30 4 30 25 0 21 5 25 30 25 25 0
30 -4 30 -25 0 -21 5 -25 30 -25 25 0 30 4 30 25 0 24 2 25 65 25 63 0 65 -1
65 -25 0 -24 3 -25 53 -23 l52 2 -47 3 c-40 3 -48 8 -48 24 0 16 7 19 55 19
l55 0 0 -55 c0 -54 0 -55 -30 -55 -25 0 -30 -4 -30 -22 1 -21 2 -21 11 -5 14
25 29 21 29 -8 0 -18 -5 -25 -20 -25 -15 0 -20 -7 -20 -26 0 -14 4 -23 10 -19
6 3 10 13 10 21 0 8 5 14 10 14 6 0 10 -11 10 -25 0 -18 -5 -25 -20 -25 -15 0
-20 -7 -20 -25 0 -21 -5 -25 -30 -25 -25 0 -30 4 -30 25 l0 25 -190 0 -190 0
0 -25 c0 -24 -3 -25 -60 -25 -57 0 -60 1 -60 25 0 24 -2 25 -66 25 -44 0 -63
-4 -59 -11 4 -6 21 -10 39 -9 59 4 76 0 76 -15 0 -12 -16 -15 -80 -15 l-80 0
0 85 c0 66 3 85 14 85 18 0 24 -17 21 -63 -2 -20 1 -39 6 -43 5 -3 9 15 9 40
0 44 1 46 30 46 23 0 30 -4 30 -20 0 -16 7 -20 30 -20 23 0 30 4 30 20 0 11 5
20 10 20 6 0 10 28 10 65 0 58 2 65 20 65 15 0 20 -7 20 -25 0 -21 5 -25 30
-25 25 0 30 4 30 24 0 30 22 42 54 30z m-64 -19 c0 -8 -7 -15 -15 -15 -8 0
-15 7 -15 15 0 8 7 15 15 15 8 0 15 -7 15 -15z m120 0 c0 -8 -7 -15 -15 -15
-8 0 -15 7 -15 15 0 8 7 15 15 15 8 0 15 -7 15 -15z m128 -2 c-2 -10 -10 -18
-18 -18 -8 0 -16 8 -18 18 -2 12 3 17 18 17 15 0 20 -5 18 -17z m-498 -53 c0
-11 -7 -20 -15 -20 -8 0 -15 9 -15 20 0 11 7 20 15 20 8 0 15 -9 15 -20z m810
-59 c0 -10 -10 -22 -22 -26 l-23 -8 23 -4 c13 -3 22 -12 22 -23 0 -10 -10 -21
-22 -25 l-23 -8 23 -4 c32 -6 31 -49 -3 -55 l-25 -5 0 88 c0 88 0 89 25 89 18
0 25 -5 25 -19z m-690 -11 c0 -5 -7 -10 -15 -10 -8 0 -15 5 -15 10 0 6 7 10
15 10 8 0 15 -4 15 -10z m510 -125 c0 -13 -27 -15 -180 -15 -153 0 -180 2
-180 15 0 13 27 15 180 15 153 0 180 -2 180 -15z m110 0 c0 -8 -4 -15 -10 -15
-5 0 -10 7 -10 15 0 8 5 15 10 15 6 0 10 -7 10 -15z"/>
<path d="M658 873 c18 -2 45 -2 60 0 15 2 0 4 -33 4 -33 0 -45 -2 -27 -4z"/>
<path d="M872 840 c0 -14 2 -19 5 -12 2 6 2 18 0 25 -3 6 -5 1 -5 -13z"/>
<path d="M838 553 c7 -3 16 -2 19 1 4 3 -2 6 -13 5 -11 0 -14 -3 -6 -6z"/>
<path d="M690 720 c0 -5 -11 -10 -24 -10 -14 0 -28 -4 -31 -10 -4 -6 16 -10
51 -10 l58 0 -22 20 c-24 22 -32 25 -32 10z"/>
<path d="M690 534 l0 -148 22 24 c15 16 18 25 10 28 -16 5 -15 39 1 46 10 5
10 7 0 12 -9 4 -13 28 -13 69 0 41 4 65 13 68 10 4 10 6 0 6 -7 1 -13 7 -13
15 0 8 -4 18 -10 21 -6 4 -10 -46 -10 -141z"/>
<path d="M640 620 c0 -5 7 -10 15 -10 8 0 15 5 15 10 0 6 -7 10 -15 10 -8 0
-15 -4 -15 -10z"/>
<path d="M640 570 c0 -5 7 -10 15 -10 8 0 15 5 15 10 0 6 -7 10 -15 10 -8 0
-15 -4 -15 -10z"/>
<path d="M640 510 c0 -5 7 -10 15 -10 8 0 15 5 15 10 0 6 -7 10 -15 10 -8 0
-15 -4 -15 -10z"/>
<path d="M640 430 c0 -5 7 -10 15 -10 8 0 15 5 15 10 0 6 -7 10 -15 10 -8 0
-15 -4 -15 -10z"/>
<path d="M796 421 c-4 -7 -5 -15 -2 -18 9 -9 19 4 14 18 -4 11 -6 11 -12 0z"/>
<path d="M176 605 c-5 -11 -14 -24 -20 -28 -8 -6 -7 -10 2 -14 17 -7 17 -250
0 -255 -8 -3 -5 -12 10 -28 21 -23 22 -23 22 -3 0 16 5 20 19 16 10 -3 22 0
25 6 5 7 -2 11 -18 11 l-25 0 -3 158 c-2 106 -6 151 -12 137z"/>
<path d="M250 589 c0 -11 5 -17 10 -14 6 3 10 13 10 21 0 8 -4 14 -10 14 -5 0
-10 -9 -10 -21z"/>
<path d="M210 570 c0 -5 7 -10 16 -10 8 0 12 5 9 10 -3 6 -10 10 -16 10 -5 0
-9 -4 -9 -10z"/>
<path d="M325 570 c-3 -5 1 -10 9 -10 9 0 16 5 16 10 0 6 -4 10 -9 10 -6 0
-13 -4 -16 -10z"/>
<path d="M370 500 c0 -32 4 -49 10 -45 6 3 10 24 10 45 0 21 -4 42 -10 45 -6
4 -10 -13 -10 -45z"/>
<path d="M440 525 c0 -8 -4 -15 -10 -15 -5 0 -10 -11 -10 -24 0 -14 5 -28 10
-31 6 -4 10 5 10 19 0 22 5 26 27 26 l27 0 -22 20 c-25 24 -32 25 -32 5z"/>
<path d="M330 490 c0 -5 5 -10 10 -10 6 0 10 5 10 10 0 6 -4 10 -10 10 -5 0
-10 -4 -10 -10z"/>
<path d="M460 430 c0 -5 5 -10 10 -10 6 0 10 5 10 10 0 6 -4 10 -10 10 -5 0
-10 -4 -10 -10z"/>
<path d="M500 410 c0 -5 5 -10 10 -10 6 0 10 5 10 10 0 6 -4 10 -10 10 -5 0
-10 -4 -10 -10z"/>
<path d="M210 390 c0 -5 5 -10 10 -10 6 0 10 5 10 10 0 6 -4 10 -10 10 -5 0
-10 -4 -10 -10z"/>
<path d="M560 589 c0 -11 5 -17 10 -14 6 3 10 13 10 21 0 8 -4 14 -10 14 -5 0
-10 -9 -10 -21z"/>
<path d="M393 313 c9 -2 23 -2 30 0 6 3 -1 5 -18 5 -16 0 -22 -2 -12 -5z"/>
<path d="M158 193 c7 -3 16 -2 19 1 4 3 -2 6 -13 5 -11 0 -14 -3 -6 -6z"/>
<path d="M283 123 c15 -2 39 -2 55 0 15 2 2 4 -28 4 -30 0 -43 -2 -27 -4z"/>
<path d="M768 123 c7 -3 16 -2 19 1 4 3 -2 6 -13 5 -11 0 -14 -3 -6 -6z"/>
<path d="M790 981 c0 -11 5 -23 10 -26 6 -4 10 5 10 19 0 14 -4 26 -10 26 -5
0 -10 -9 -10 -19z"/>
<path d="M850 980 c0 -11 5 -20 10 -20 6 0 10 9 10 20 0 11 -4 20 -10 20 -5 0
-10 -9 -10 -20z"/>
<path d="M920 981 c0 -11 5 -23 10 -26 6 -4 10 5 10 19 0 14 -4 26 -10 26 -5
0 -10 -9 -10 -19z"/>
<path d="M960 930 c0 -5 9 -10 20 -10 11 0 20 5 20 10 0 6 -9 10 -20 10 -11 0
-20 -4 -20 -10z"/>
<path d="M0 860 c0 -5 9 -10 20 -10 11 0 20 5 20 10 0 6 -9 10 -20 10 -11 0
-20 -4 -20 -10z"/>
<path d="M960 860 c0 -5 9 -10 20 -10 11 0 20 5 20 10 0 6 -9 10 -20 10 -11 0
-20 -4 -20 -10z"/>
<path d="M0 800 c0 -5 9 -10 20 -10 11 0 20 5 20 10 0 6 -9 10 -20 10 -11 0
-20 -4 -20 -10z"/>
<path d="M960 800 c0 -5 9 -10 20 -10 11 0 20 5 20 10 0 6 -9 10 -20 10 -11 0
-20 -4 -20 -10z"/>
<path d="M0 740 c0 -5 9 -10 20 -10 11 0 20 5 20 10 0 6 -9 10 -20 10 -11 0
-20 -4 -20 -10z"/>
<path d="M960 740 c0 -5 9 -10 20 -10 11 0 20 5 20 10 0 6 -9 10 -20 10 -11 0
-20 -4 -20 -10z"/>
<path d="M0 680 c0 -5 9 -10 20 -10 11 0 20 5 20 10 0 6 -9 10 -20 10 -11 0
-20 -4 -20 -10z"/>
<path d="M960 680 c0 -5 9 -10 20 -10 11 0 20 5 20 10 0 6 -9 10 -20 10 -11 0
-20 -4 -20 -10z"/>
<path d="M0 620 c0 -5 9 -10 19 -10 11 0 23 5 26 10 4 6 -5 10 -19 10 -14 0
-26 -4 -26 -10z"/>
<path d="M960 620 c0 -5 9 -10 20 -10 11 0 20 5 20 10 0 6 -9 10 -20 10 -11 0
-20 -4 -20 -10z"/>
<path d="M0 550 c0 -5 9 -10 20 -10 11 0 20 5 20 10 0 6 -9 10 -20 10 -11 0
-20 -4 -20 -10z"/>
<path d="M960 550 c0 -5 9 -10 20 -10 11 0 20 5 20 10 0 6 -9 10 -20 10 -11 0
-20 -4 -20 -10z"/>
<path d="M0 510 c0 -5 9 -10 20 -10 11 0 20 5 20 10 0 6 -9 10 -20 10 -11 0
-20 -4 -20 -10z"/>
<path d="M960 490 c0 -5 9 -10 20 -10 11 0 20 5 20 10 0 6 -9 10 -20 10 -11 0
-20 -4 -20 -10z"/>
<path d="M0 450 c0 -5 9 -10 20 -10 11 0 20 5 20 10 0 6 -9 10 -20 10 -11 0
-20 -4 -20 -10z"/>
<path d="M955 450 c-4 -6 5 -10 19 -10 14 0 26 5 26 10 0 6 -9 10 -19 10 -11
0 -23 -4 -26 -10z"/>
<path d="M0 390 c0 -5 9 -10 20 -10 11 0 20 5 20 10 0 6 -9 10 -20 10 -11 0
-20 -4 -20 -10z"/>
<path d="M960 390 c0 -5 9 -10 20 -10 11 0 20 5 20 10 0 6 -9 10 -20 10 -11 0
-20 -4 -20 -10z"/>
<path d="M0 320 c0 -5 9 -10 20 -10 11 0 20 5 20 10 0 6 -9 10 -20 10 -11 0
-20 -4 -20 -10z"/>
<path d="M960 320 c0 -5 9 -10 20 -10 11 0 20 5 20 10 0 6 -9 10 -20 10 -11 0
-20 -4 -20 -10z"/>
<path d="M0 260 c0 -5 9 -10 20 -10 11 0 20 5 20 10 0 6 -9 10 -20 10 -11 0
-20 -4 -20 -10z"/>
<path d="M960 260 c0 -5 9 -10 20 -10 11 0 20 5 20 10 0 6 -9 10 -20 10 -11 0
-20 -4 -20 -10z"/>
<path d="M0 200 c0 -5 9 -10 20 -10 11 0 20 5 20 10 0 6 -9 10 -20 10 -11 0
-20 -4 -20 -10z"/>
<path d="M960 200 c0 -5 9 -10 20 -10 11 0 20 5 20 10 0 6 -9 10 -20 10 -11 0
-20 -4 -20 -10z"/>
<path d="M0 140 c0 -5 9 -10 20 -10 11 0 20 5 20 10 0 6 -9 10 -20 10 -11 0
-20 -4 -20 -10z"/>
<path d="M0 70 c0 -5 9 -10 20 -10 11 0 20 5 20 10 0 6 -9 10 -20 10 -11 0
-20 -4 -20 -10z"/>
<path d="M190 26 c0 -14 5 -26 10 -26 6 0 10 9 10 19 0 11 -4 23 -10 26 -6 4
-10 -5 -10 -19z"/>
<path d="M250 26 c0 -14 5 -26 10 -26 6 0 10 9 10 19 0 11 -4 23 -10 26 -6 4
-10 -5 -10 -19z"/>
<path d="M60 20 c0 -11 5 -20 10 -20 6 0 10 9 10 20 0 11 -4 20 -10 20 -5 0
-10 -9 -10 -20z"/>
<path d="M130 20 c0 -11 5 -20 10 -20 6 0 10 9 10 20 0 11 -4 20 -10 20 -5 0
-10 -9 -10 -20z"/>
<path d="M302 20 c0 -14 2 -19 5 -12 2 6 2 18 0 25 -3 6 -5 1 -5 -13z"/>
<path d="M350 20 c0 -11 5 -20 10 -20 6 0 10 9 10 20 0 11 -4 20 -10 20 -5 0
-10 -9 -10 -20z"/>
<path d="M420 20 c0 -11 5 -20 10 -20 6 0 10 9 10 20 0 11 -4 20 -10 20 -5 0
-10 -9 -10 -20z"/>
<path d="M480 20 c0 -11 5 -20 10 -20 6 0 10 9 10 20 0 11 -4 20 -10 20 -5 0
-10 -9 -10 -20z"/>
<path d="M540 20 c0 -11 5 -20 10 -20 6 0 10 9 10 20 0 11 -4 20 -10 20 -5 0
-10 -9 -10 -20z"/>
<path d="M600 20 c0 -11 5 -20 10 -20 6 0 10 9 10 20 0 11 -4 20 -10 20 -5 0
-10 -9 -10 -20z"/>
<path d="M670 20 c0 -11 5 -20 10 -20 6 0 10 9 10 20 0 11 -4 20 -10 20 -5 0
-10 -9 -10 -20z"/>
<path d="M730 20 c0 -11 5 -20 10 -20 6 0 10 9 10 20 0 11 -4 20 -10 20 -5 0
-10 -9 -10 -20z"/>
<path d="M790 20 c0 -11 5 -20 10 -20 6 0 10 9 10 20 0 11 -4 20 -10 20 -5 0
-10 -9 -10 -20z"/>
<path d="M850 20 c0 -11 5 -20 10 -20 6 0 10 9 10 20 0 11 -4 20 -10 20 -5 0
-10 -9 -10 -20z"/>
<path d="M920 20 c0 -11 5 -20 10 -20 6 0 10 9 10 20 0 11 -4 20 -10 20 -5 0
-10 -9 -10 -20z"/>
</g>
</svg>
