<?xml version="1.0" standalone="no"?>
<!DOCTYPE svg PUBLIC "-//W3C//DTD SVG 20010904//EN"
 "http://www.w3.org/TR/2001/REC-SVG-20010904/DTD/svg10.dtd">
<svg version="1.0" xmlns="http://www.w3.org/2000/svg"
 width="128.000000pt" height="128.000000pt" viewBox="0 0 128.000000 128.000000"
 preserveAspectRatio="xMidYMid meet">
<metadata>
Created by potrace 1.16, written by Peter Selinger 2001-2019
</metadata>
<g transform="translate(0.000000,128.000000) scale(0.100000,-0.100000)"
fill="#000000" stroke="none">
<path d="M405 1265 c-50 -15 -145 -66 -145 -77 0 -4 -6 -8 -12 -8 -16 -1 -99
-79 -129 -122 -13 -18 -26 -35 -30 -38 -5 -3 -25 -39 -45 -80 -26 -52 -38 -92
-41 -130 l-3 -55 18 55 c20 58 78 181 91 190 4 3 17 20 30 38 30 43 113 121
129 122 6 0 12 4 12 8 0 13 79 53 165 83 74 25 77 27 40 27 -22 0 -58 -6 -80
-13z"/>
<path d="M895 1251 c130 -46 196 -87 274 -174 31 -35 83 -130 101 -187 7 -22
8 -21 9 12 1 45 -45 145 -90 195 -96 106 -240 183 -339 182 -30 0 -23 -4 45
-28z"/>
<path d="M555 1074 c-150 -32 -245 -80 -325 -167 -28 -30 -35 -73 -16 -102 26
-39 77 -34 140 14 73 56 123 79 207 97 162 34 317 -27 344 -138 8 -30 -21
-103 -51 -130 -28 -24 -95 -57 -132 -64 l-33 -7 3 121 c1 85 -2 124 -11 135
-29 35 -160 28 -189 -10 -11 -14 -13 -64 -10 -240 3 -211 5 -223 25 -245 21
-23 21 -23 2 -47 -47 -58 -5 -131 76 -131 59 0 85 25 85 81 0 30 -6 46 -23 61
l-23 20 28 28 c16 16 28 39 28 53 0 28 16 37 65 37 18 0 60 8 94 19 177 55
266 178 246 340 -17 133 -111 224 -274 263 -69 16 -203 22 -256 12z m256 -40
c158 -47 249 -145 249 -270 0 -83 -24 -137 -89 -197 -66 -60 -143 -92 -255
-103 l-66 -7 0 -38 c0 -48 -30 -72 -87 -67 -36 3 -38 5 -45 43 -4 22 -7 124
-7 226 l-1 186 25 11 c14 7 46 12 70 12 64 0 69 -15 60 -168 -6 -117 -6 -124
12 -119 10 3 34 9 53 12 75 15 157 71 186 127 18 35 18 111 0 147 -45 86 -146
126 -295 118 -114 -5 -185 -29 -268 -91 -80 -58 -80 -58 -103 -46 -33 18 -24
50 29 101 57 55 107 83 206 115 88 29 243 33 326 8z m-181 -754 c41 -41 14
-90 -49 -90 -20 0 -42 5 -49 12 -32 32 4 98 53 98 14 0 34 -9 45 -20z"/>
<path d="M1267 576 c-11 -51 -56 -153 -113 -255 -22 -40 -66 -93 -108 -130
-16 -14 -38 -36 -49 -48 -12 -13 -26 -23 -32 -23 -7 0 -20 -9 -30 -20 -10 -11
-26 -20 -35 -20 -9 0 -27 -9 -40 -20 -13 -11 -30 -20 -39 -20 -9 0 -38 -9 -66
-20 l-50 -20 45 4 c64 6 117 21 135 40 9 9 24 16 34 16 10 0 26 9 36 20 10 11
23 20 30 20 6 0 20 10 32 23 11 12 33 34 49 48 75 67 118 134 189 293 19 42
25 72 23 105 l-3 46 -8 -39z"/>
<path d="M1 440 c0 -25 6 -61 14 -80 7 -19 21 -55 30 -79 9 -25 29 -61 46 -82
16 -20 29 -42 29 -48 0 -6 3 -11 8 -11 4 0 22 -15 41 -33 33 -31 67 -52 121
-78 14 -6 33 -15 42 -20 10 -5 35 -9 55 -8 21 0 31 3 23 6 -100 36 -176 77
-221 120 -19 18 -37 33 -41 33 -5 0 -8 5 -8 11 0 5 -16 31 -35 56 -19 25 -35
52 -35 60 0 8 -7 28 -16 46 -9 17 -25 59 -35 92 l-17 60 -1 -45z"/>
</g>
</svg>
