<?xml version="1.0" standalone="no"?>
<!DOCTYPE svg PUBLIC "-//W3C//DTD SVG 20010904//EN"
 "http://www.w3.org/TR/2001/REC-SVG-20010904/DTD/svg10.dtd">
<svg version="1.0" xmlns="http://www.w3.org/2000/svg"
 width="256.000000pt" height="256.000000pt" viewBox="0 0 256.000000 256.000000"
 preserveAspectRatio="xMidYMid meet">
<metadata>
Created by potrace 1.16, written by Peter Selinger 2001-2019
</metadata>
<g transform="translate(0.000000,256.000000) scale(0.100000,-0.100000)"
fill="#000000" stroke="none">
<path d="M1160 2124 c-151 -23 -257 -54 -386 -114 -105 -49 -191 -109 -265
-186 -60 -64 -85 -118 -75 -167 11 -52 32 -67 96 -67 56 0 60 2 146 68 119 91
201 138 304 172 157 53 417 64 550 25 129 -39 237 -121 288 -219 32 -63 35
-145 8 -226 -44 -130 -237 -258 -435 -289 l-51 -8 5 51 c10 109 15 422 7 450
-15 53 -51 70 -150 71 -127 0 -200 -31 -215 -94 -6 -25 9 -679 19 -798 8 -106
21 -118 121 -118 89 0 152 22 178 62 9 13 19 55 22 92 l6 67 116 11 c240 24
413 94 535 217 115 115 166 236 166 391 0 168 -50 286 -166 394 -161 150 -390
223 -689 220 -60 -1 -121 -3 -135 -5z m398 -40 c169 -29 338 -117 440 -229
167 -182 172 -464 13 -662 -120 -149 -314 -237 -583 -264 l-116 -12 -7 -68
c-8 -76 -27 -109 -78 -136 -44 -23 -151 -24 -173 -1 -23 23 -31 130 -40 543
-7 335 -6 340 14 358 34 31 92 46 174 47 66 0 81 -3 103 -23 26 -22 26 -24 26
-157 0 -74 -4 -192 -7 -262 l-7 -128 35 0 c57 0 187 38 273 79 97 48 172 117
212 198 24 51 28 70 28 148 0 109 -23 164 -98 238 -104 101 -245 147 -452 147
-286 0 -451 -56 -665 -225 -89 -70 -124 -80 -168 -49 -33 23 -30 80 6 130 123
168 413 312 691 344 94 10 268 3 379 -16z"/>
<path d="M1093 611 c-57 -27 -77 -61 -78 -131 0 -44 5 -63 20 -80 58 -66 201
-67 259 -2 27 30 32 101 11 145 -34 72 -134 104 -212 68z m137 -27 c58 -35 78
-118 40 -167 -65 -83 -230 -42 -230 58 0 47 23 91 58 109 36 20 97 20 132 0z"/>
</g>
</svg>
