<?xml version="1.0" standalone="no"?>
<!DOCTYPE svg PUBLIC "-//W3C//DTD SVG 20010904//EN"
 "http://www.w3.org/TR/2001/REC-SVG-20010904/DTD/svg10.dtd">
<svg version="1.0" xmlns="http://www.w3.org/2000/svg"
 width="100.000000pt" height="100.000000pt" viewBox="0 0 100.000000 100.000000"
 preserveAspectRatio="xMidYMid meet">
<metadata>
Created by potrace 1.16, written by Peter Selinger 2001-2019
</metadata>
<g transform="translate(0.000000,100.000000) scale(0.100000,-0.100000)"
fill="#000000" stroke="none">
<path d="M170 980 c0 -16 -7 -20 -30 -20 -28 0 -30 -3 -30 -35 0 -33 -2 -35
-35 -35 l-35 0 0 -60 c0 -53 -2 -60 -20 -60 -11 0 -20 -4 -20 -10 0 -5 13 -10
30 -10 l30 0 0 60 0 60 35 0 c33 0 35 2 35 35 0 32 2 35 30 35 27 0 30 3 30
30 0 17 -4 30 -10 30 -5 0 -10 -9 -10 -20z"/>
<path d="M870 970 c0 -28 3 -30 35 -30 l35 0 0 -190 0 -190 -35 0 -35 0 0 -60
0 -60 -30 0 c-27 0 -30 -3 -30 -30 l0 -30 95 0 c57 0 95 4 95 10 0 6 -35 10
-85 10 -50 0 -85 4 -85 10 0 6 14 10 30 10 l30 0 0 60 0 60 35 0 35 0 0 210 0
210 -35 0 c-28 0 -35 4 -35 20 0 11 -4 20 -10 20 -5 0 -10 -13 -10 -30z"/>
<path d="M131 834 c0 -11 3 -14 6 -6 3 7 2 16 -1 19 -3 4 -6 -2 -5 -13z"/>
<path d="M88 803 c6 -2 18 -2 25 0 6 3 1 5 -13 5 -14 0 -19 -2 -12 -5z"/>
<path d="M622 780 c0 -19 2 -27 5 -17 2 9 2 25 0 35 -3 9 -5 1 -5 -18z"/>
<path d="M60 710 c0 -11 4 -20 9 -20 5 0 7 9 4 20 -3 11 -7 20 -9 20 -2 0 -4
-9 -4 -20z"/>
<path d="M810 595 c0 -29 4 -35 22 -35 21 0 21 1 3 14 -11 8 -16 19 -12 30 9
23 26 20 37 -6 8 -22 9 -22 9 5 1 24 -3 27 -29 27 -28 0 -30 -3 -30 -35z"/>
<path d="M398 563 c7 -3 16 -2 19 1 4 3 -2 6 -13 5 -11 0 -14 -3 -6 -6z"/>
<path d="M442 525 c0 -16 2 -22 5 -12 2 9 2 23 0 30 -3 6 -5 -1 -5 -18z"/>
<path d="M56 504 c-18 -17 -21 -44 -6 -44 6 0 10 9 10 20 0 16 7 20 35 20 32
0 35 -2 35 -30 0 -25 -4 -30 -25 -30 -14 0 -25 -4 -25 -10 0 -16 37 -12 54 6
9 8 16 26 16 39 0 41 -63 60 -94 29z"/>
<path d="M398 493 c7 -3 16 -2 19 1 4 3 -2 6 -13 5 -11 0 -14 -3 -6 -6z"/>
<path d="M0 430 c0 -5 9 -10 20 -10 16 0 20 -7 20 -30 0 -28 3 -30 35 -30 24
0 35 -5 35 -15 0 -12 -13 -15 -55 -15 -30 0 -55 -4 -55 -10 0 -6 28 -10 65
-10 l65 0 0 35 c0 33 -2 35 -35 35 -32 0 -35 2 -35 30 0 27 -3 30 -30 30 -17
0 -30 -4 -30 -10z"/>
<path d="M940 155 l0 -95 -35 0 c-32 0 -35 -2 -35 -30 0 -17 5 -30 10 -30 6 0
10 9 10 20 0 16 7 20 35 20 l35 0 0 95 c0 88 1 95 20 95 11 0 20 5 20 10 0 6
-13 10 -30 10 l-30 0 0 -95z"/>
<path d="M818 63 c6 -2 18 -2 25 0 6 3 1 5 -13 5 -14 0 -19 -2 -12 -5z"/>
<path d="M0 50 c0 -5 9 -10 20 -10 13 0 20 -7 20 -20 0 -11 5 -20 10 -20 6 0
10 13 10 30 0 27 -3 30 -30 30 -17 0 -30 -4 -30 -10z"/>
</g>
</svg>
