<?xml version="1.0" standalone="no"?>
<!DOCTYPE svg PUBLIC "-//W3C//DTD SVG 20010904//EN"
 "http://www.w3.org/TR/2001/REC-SVG-20010904/DTD/svg10.dtd">
<svg version="1.0" xmlns="http://www.w3.org/2000/svg"
 width="100.000000pt" height="100.000000pt" viewBox="0 0 100.000000 100.000000"
 preserveAspectRatio="xMidYMid meet">
<metadata>
Created by potrace 1.16, written by Peter Selinger 2001-2019
</metadata>
<g transform="translate(0.000000,100.000000) scale(0.100000,-0.100000)"
fill="#000000" stroke="none">
<path d="M170 925 c0 -32 -2 -35 -30 -35 -27 0 -30 -3 -30 -30 0 -19 -5 -31
-15 -31 -8 -1 -21 -2 -27 -3 -21 -2 -28 -19 -28 -71 0 -59 6 -71 42 -80 l27
-7 3 -152 3 -151 28 -3 c26 -3 27 -5 27 -68 l0 -64 30 0 c27 0 30 -3 30 -30 0
-27 3 -30 30 -30 27 0 30 -3 30 -30 0 -27 3 -30 30 -30 20 0 30 -5 30 -15 0
-8 9 -24 20 -35 18 -18 33 -20 145 -20 l125 0 0 35 c0 33 2 35 35 35 32 0 35
2 35 30 0 27 3 30 30 30 27 0 30 3 30 30 0 27 3 30 30 30 l30 0 0 65 0 65 30
0 30 0 0 60 c0 56 2 60 23 60 44 0 47 13 47 217 l0 193 -39 0 c-33 0 -40 4
-44 23 l-4 22 -2 -22 c-1 -16 -7 -23 -21 -23 -27 0 -29 50 -2 51 14 0 14 2 -3
9 -11 5 -167 9 -347 9 l-328 1 0 -35z m640 -15 c0 -16 -2 -30 -4 -30 -16 0
-36 14 -36 26 0 8 -4 14 -10 14 -5 0 -10 -11 -10 -25 l0 -25 -249 0 -250 0 -4
33 c-3 28 -5 29 -11 10 -5 -11 -16 -23 -27 -26 -15 -4 -19 0 -19 24 l0 29 310
0 310 0 0 -30z m-560 -70 c0 -25 -4 -30 -24 -30 -19 0 -23 4 -19 19 3 10 0 22
-6 25 -8 5 -11 -54 -11 -203 l0 -211 -30 0 -30 0 0 215 0 215 60 0 60 0 0 -30z
m690 -125 l0 -155 -35 0 -35 0 0 -90 0 -90 -30 0 c-26 0 -30 4 -30 26 l0 26
-25 -23 -24 -24 24 -3 c24 -3 25 -7 25 -68 l0 -64 -30 0 c-27 0 -30 -3 -30
-30 0 -27 -3 -30 -30 -30 -27 0 -30 -3 -30 -30 l0 -30 -65 0 -65 0 0 30 c0 27
3 30 30 30 27 0 30 3 30 30 0 28 3 30 35 30 32 0 35 2 35 30 0 27 3 30 30 30
l30 0 0 65 0 65 30 0 30 0 0 155 0 155 -304 0 c-299 0 -304 0 -299 20 6 23 23
27 23 5 0 -8 5 -15 10 -15 6 0 10 11 10 25 l0 25 250 0 250 0 0 -26 c0 -14 4
-23 10 -19 6 3 10 15 10 26 0 21 1 22 24 13 9 -3 16 -12 16 -20 0 -8 5 -14 10
-14 6 0 10 5 10 10 0 6 5 10 10 10 15 0 13 -90 -2 -91 -10 0 -10 -2 0 -6 14
-6 16 -43 2 -43 -5 0 -10 -4 -10 -10 0 -5 9 -10 20 -10 15 0 20 -7 20 -25 0
-14 5 -25 10 -25 6 0 10 7 10 15 0 8 7 15 15 15 8 0 15 5 15 10 0 6 -11 10
-25 10 -25 0 -25 1 -25 90 l0 90 -30 0 c-25 0 -30 4 -30 25 0 14 -4 25 -10 25
-5 0 -10 -9 -10 -20 0 -13 -7 -20 -20 -20 -15 0 -20 7 -20 25 0 25 0 25 95 25
l95 0 0 -155z m-630 130 c0 -8 -9 -15 -20 -15 -25 0 -26 17 -2 23 9 3 18 5 20
6 1 0 2 -6 2 -14z m60 -5 c0 -5 -9 -10 -20 -10 -11 0 -20 5 -20 10 0 6 9 10
20 10 11 0 20 -4 20 -10z m70 0 c0 -5 -11 -10 -25 -10 -14 0 -25 5 -25 10 0 6
11 10 25 10 14 0 25 -4 25 -10z m110 0 c0 -5 -20 -10 -45 -10 -25 0 -45 5 -45
10 0 6 20 10 45 10 25 0 45 -4 45 -10z m50 0 c0 -5 -9 -10 -20 -10 -11 0 -20
5 -20 10 0 6 9 10 20 10 11 0 20 -4 20 -10z m70 0 c0 -5 -11 -10 -25 -10 -14
0 -25 5 -25 10 0 6 11 10 25 10 14 0 25 -4 25 -10z m60 0 c0 -5 -9 -10 -20
-10 -11 0 -20 5 -20 10 0 6 9 10 20 10 11 0 20 -4 20 -10z m-620 -90 c0 -57
-1 -60 -25 -60 -24 0 -25 3 -25 60 0 57 1 60 25 60 24 0 25 -3 25 -60z m631
-32 c0 -10 2 -10 6 0 2 6 13 12 24 12 29 0 25 -40 -3 -41 l-23 -2 23 -4 c21
-4 22 -9 22 -84 0 -69 -2 -79 -18 -79 -30 0 -42 -21 -42 -72 0 -40 -3 -48 -18
-48 -30 0 -42 -21 -42 -76 l0 -51 -50 -6 c-61 -7 -70 -12 -70 -38 0 -16 -7
-19 -44 -19 -41 0 -45 2 -48 28 -2 22 -9 28 -34 30 -21 2 -35 11 -42 27 -6 13
-20 26 -31 30 -16 5 -21 15 -21 41 0 31 -2 34 -30 34 l-30 0 0 70 c0 57 -4 74
-20 90 -11 11 -24 20 -30 20 -5 0 -10 23 -10 50 0 48 1 50 28 51 l27 2 -27 4
c-20 3 -28 10 -28 24 0 18 10 19 265 19 205 0 265 -3 266 -12z m-491 -178 c0
-13 -7 -20 -20 -20 -13 0 -20 7 -20 20 0 13 7 20 20 20 13 0 20 -7 20 -20z
m690 -20 c0 -15 -7 -20 -25 -20 -18 0 -25 5 -25 20 0 15 7 20 25 20 18 0 25
-5 25 -20z m-690 -115 l0 -95 -27 0 c-24 -1 -26 -2 -12 -13 8 -7 18 -20 22
-29 5 -14 1 -18 -18 -18 -25 0 -25 1 -25 95 l0 95 28 0 c23 1 25 2 11 13 -8 7
-18 20 -22 30 -5 13 -1 17 18 17 25 0 25 -1 25 -95z m540 75 c0 -13 -7 -20
-20 -20 -13 0 -20 7 -20 20 0 13 7 20 20 20 13 0 20 -7 20 -20z m-620 -80 c0
-13 -7 -20 -20 -20 -13 0 -20 7 -20 20 0 13 7 20 20 20 13 0 20 -7 20 -20z
m140 -49 c0 -24 -3 -28 -20 -24 -13 3 -20 14 -20 29 0 17 6 24 20 24 15 0 20
-7 20 -29z m420 4 c0 -18 -5 -25 -20 -25 -15 0 -20 7 -20 25 0 18 5 25 20 25
15 0 20 -7 20 -25z m-420 -74 c0 -24 -5 -30 -25 -33 l-24 -3 24 -24 25 -23 0
26 c0 22 4 26 30 26 27 0 30 -3 30 -30 0 -26 -4 -30 -27 -30 l-27 0 22 -20
c12 -11 24 -20 27 -20 3 0 5 9 5 20 0 16 7 20 35 20 32 0 35 -2 35 -30 l0 -30
-65 0 -65 0 0 30 c0 27 -3 30 -30 30 l-30 0 0 60 0 60 30 0 c27 0 30 -3 30
-29z m60 9 c0 -13 -7 -20 -20 -20 -13 0 -20 7 -20 20 0 13 7 20 20 20 13 0 20
-7 20 -20z m70 -60 c0 -15 -7 -20 -25 -20 -18 0 -25 5 -25 20 0 15 7 20 25 20
18 0 25 -5 25 -20z m160 0 c0 -13 -7 -20 -20 -20 -13 0 -20 7 -20 20 0 13 7
20 20 20 13 0 20 -7 20 -20z m-57 -60 c-7 -25 -12 -25 -29 -2 -13 16 -13 16
-14 0 0 -25 -36 -23 -43 2 -5 18 0 20 43 20 43 0 48 -2 43 -20z m17 -75 l0
-35 -60 0 -60 0 0 35 0 35 60 0 60 0 0 -35z m-140 -10 c0 -20 -5 -25 -25 -25
-20 0 -25 5 -25 25 0 20 5 25 25 25 20 0 25 -5 25 -25z m200 0 c0 -20 -5 -25
-24 -25 -19 0 -22 4 -18 25 3 16 11 25 23 25 14 0 19 -7 19 -25z"/>
<path d="M290 906 c0 -8 5 -18 10 -21 6 -3 10 3 10 14 0 12 -4 21 -10 21 -5 0
-10 -6 -10 -14z"/>
<path d="M350 905 c0 -8 5 -15 10 -15 6 0 10 7 10 15 0 8 -4 15 -10 15 -5 0
-10 -7 -10 -15z"/>
<path d="M420 905 c0 -8 5 -15 10 -15 6 0 10 7 10 15 0 8 -4 15 -10 15 -5 0
-10 -7 -10 -15z"/>
<path d="M561 904 c0 -11 3 -14 6 -6 3 7 2 16 -1 19 -3 4 -6 -2 -5 -13z"/>
<path d="M620 905 c0 -8 5 -15 10 -15 6 0 10 7 10 15 0 8 -4 15 -10 15 -5 0
-10 -7 -10 -15z"/>
<path d="M690 905 c0 -8 5 -15 10 -15 6 0 10 7 10 15 0 8 -4 15 -10 15 -5 0
-10 -7 -10 -15z"/>
<path d="M150 800 c0 -5 5 -10 10 -10 6 0 10 5 10 10 0 6 -4 10 -10 10 -5 0
-10 -4 -10 -10z"/>
<path d="M150 700 c0 -5 5 -10 10 -10 6 0 10 5 10 10 0 6 -4 10 -10 10 -5 0
-10 -4 -10 -10z"/>
<path d="M150 640 c0 -5 5 -10 10 -10 6 0 10 5 10 10 0 6 -4 10 -10 10 -5 0
-10 -4 -10 -10z"/>
<path d="M150 570 c0 -5 5 -10 10 -10 6 0 10 5 10 10 0 6 -4 10 -10 10 -5 0
-10 -4 -10 -10z"/>
<path d="M150 490 c0 -5 5 -10 10 -10 6 0 10 5 10 10 0 6 -4 10 -10 10 -5 0
-10 -4 -10 -10z"/>
<path d="M880 820 c0 -5 9 -10 20 -10 11 0 20 5 20 10 0 6 -9 10 -20 10 -11 0
-20 -4 -20 -10z"/>
<path d="M670 780 c0 -5 5 -10 10 -10 6 0 10 5 10 10 0 6 -4 10 -10 10 -5 0
-10 -4 -10 -10z"/>
<path d="M890 680 c0 -5 7 -10 15 -10 8 0 15 5 15 10 0 6 -7 10 -15 10 -8 0
-15 -4 -15 -10z"/>
<path d="M830 570 c0 -5 5 -10 10 -10 6 0 10 5 10 10 0 6 -4 10 -10 10 -5 0
-10 -4 -10 -10z"/>
<path d="M830 510 c0 -5 5 -10 10 -10 6 0 10 5 10 10 0 6 -4 10 -10 10 -5 0
-10 -4 -10 -10z"/>
<path d="M820 430 c0 -5 6 -10 14 -10 8 0 18 5 21 10 3 6 -3 10 -14 10 -12 0
-21 -4 -21 -10z"/>
<path d="M756 294 c-9 -24 0 -29 19 -11 19 19 19 27 1 27 -8 0 -17 -7 -20 -16z"/>
<path d="M670 220 c0 -5 5 -10 10 -10 6 0 10 5 10 10 0 6 -4 10 -10 10 -5 0
-10 -4 -10 -10z"/>
<path d="M648 193 c7 -3 16 -2 19 1 4 3 -2 6 -13 5 -11 0 -14 -3 -6 -6z"/>
<path d="M620 160 c0 -5 5 -10 10 -10 6 0 10 5 10 10 0 6 -4 10 -10 10 -5 0
-10 -4 -10 -10z"/>
<path d="M210 390 c0 -5 5 -10 10 -10 6 0 10 5 10 10 0 6 -4 10 -10 10 -5 0
-10 -4 -10 -10z"/>
<path d="M480 95 c0 -8 5 -15 10 -15 6 0 10 7 10 15 0 8 -4 15 -10 15 -5 0
-10 -7 -10 -15z"/>
</g>
</svg>
