<?xml version="1.0" standalone="no"?>
<!DOCTYPE svg PUBLIC "-//W3C//DTD SVG 20010904//EN"
 "http://www.w3.org/TR/2001/REC-SVG-20010904/DTD/svg10.dtd">
<svg version="1.0" xmlns="http://www.w3.org/2000/svg"
 width="100.000000pt" height="100.000000pt" viewBox="0 0 100.000000 100.000000"
 preserveAspectRatio="xMidYMid meet">
<metadata>
Created by potrace 1.16, written by Peter Selinger 2001-2019
</metadata>
<g transform="translate(0.000000,100.000000) scale(0.100000,-0.100000)"
fill="#000000" stroke="none">
<path d="M78 993 c-25 -3 -38 -9 -38 -19 0 -8 -7 -14 -15 -14 -8 0 -15 -4 -15
-9 0 -5 -3 -16 -6 -25 -4 -11 -1 -16 10 -16 9 0 16 7 16 15 0 8 7 15 15 15 8
0 15 7 15 15 0 10 11 15 35 15 24 0 35 5 35 15 0 8 -3 14 -7 13 -5 -1 -25 -3
-45 -5z"/>
<path d="M870 986 c0 -12 10 -16 35 -16 24 0 35 -5 35 -15 0 -8 7 -15 15 -15
8 0 15 -7 15 -15 0 -8 7 -15 16 -15 11 0 14 5 10 16 -3 9 -6 20 -6 25 0 5 -7
9 -15 9 -8 0 -15 7 -15 15 0 10 -10 15 -29 15 -16 0 -36 3 -45 6 -11 4 -16 1
-16 -10z"/>
<path d="M450 945 c0 -8 -7 -15 -15 -15 -8 0 -15 -9 -15 -20 0 -11 -7 -20 -15
-20 -8 0 -15 -7 -15 -15 0 -8 -9 -15 -20 -15 -11 0 -20 -7 -20 -15 0 -8 -7
-15 -15 -15 -8 0 -15 -5 -15 -10 0 -6 -20 -30 -45 -53 -25 -24 -45 -47 -45
-51 0 -4 -14 -21 -30 -38 -17 -16 -30 -38 -30 -49 0 -10 -7 -19 -15 -19 -8 0
-15 -7 -15 -15 0 -8 -7 -15 -15 -15 -8 0 -15 -6 -15 -13 0 -7 -9 -20 -20 -30
-12 -10 -20 -29 -20 -47 0 -20 -5 -30 -15 -30 -12 0 -15 -18 -15 -99 0 -75 4
-103 15 -115 8 -8 15 -28 15 -45 0 -24 4 -31 20 -31 11 0 20 -7 20 -15 0 -8 7
-15 15 -15 8 0 15 -7 15 -15 0 -8 7 -15 15 -15 8 0 15 -9 15 -20 0 -11 6 -20
14 -20 8 0 16 -7 20 -15 4 -12 30 -15 140 -15 118 0 136 2 146 18 10 16 10 16
20 0 10 -16 28 -18 146 -18 110 0 136 3 140 15 4 8 12 15 20 15 8 0 14 9 14
20 0 11 7 20 15 20 8 0 15 7 15 15 0 8 7 15 15 15 8 0 15 7 15 15 0 8 9 15 20
15 16 0 20 7 20 31 0 17 7 37 15 45 22 22 22 214 0 214 -10 0 -15 10 -15 30 0
18 -8 37 -20 47 -11 10 -20 23 -20 30 0 7 -7 13 -15 13 -8 0 -15 7 -15 15 0 8
-7 15 -15 15 -8 0 -15 9 -15 19 0 11 -13 33 -30 49 -16 17 -30 34 -30 38 0 4
-20 27 -45 51 -25 23 -45 47 -45 53 0 5 -9 10 -20 10 -11 0 -20 7 -20 15 0 8
-7 15 -15 15 -8 0 -15 7 -15 15 0 8 -7 15 -15 15 -8 0 -15 9 -15 20 0 11 -7
20 -15 20 -8 0 -15 7 -15 15 0 11 -12 15 -50 15 -38 0 -50 -4 -50 -15z m80
-20 c0 -8 7 -15 15 -15 10 0 15 -11 15 -35 0 -25 -4 -35 -16 -35 -12 0 -15 7
-10 28 3 15 3 21 0 15 -3 -7 -18 -13 -34 -13 -16 0 -31 6 -34 13 -3 6 -3 0 0
-15 5 -21 2 -28 -10 -28 -12 0 -16 10 -16 35 0 24 5 35 15 35 8 0 15 7 15 15
0 10 10 15 30 15 20 0 30 -5 30 -15z m-100 -59 c0 -3 -4 -8 -10 -11 -5 -3 -10
-1 -10 4 0 6 5 11 10 11 6 0 10 -2 10 -4z m160 -6 c0 -5 -2 -10 -4 -10 -3 0
-8 5 -11 10 -3 6 -1 10 4 10 6 0 11 -4 11 -10z m-195 -30 c-3 -5 -10 -10 -16
-10 -5 0 -9 5 -9 10 0 6 7 10 16 10 8 0 12 -4 9 -10z m45 -5 c0 -8 -7 -15 -15
-15 -8 0 -15 7 -15 15 0 8 7 15 15 15 8 0 15 -7 15 -15z m150 0 c0 -8 -7 -15
-15 -15 -8 0 -15 7 -15 15 0 8 7 15 15 15 8 0 15 -7 15 -15z m30 5 c0 -5 -2
-10 -4 -10 -3 0 -8 5 -11 10 -3 6 -1 10 4 10 6 0 11 -4 11 -10z m-150 -10 c0
-5 -5 -10 -11 -10 -5 0 -7 5 -4 10 3 6 8 10 11 10 2 0 4 -4 4 -10z m40 -2 c0
-6 20 -31 45 -55 25 -23 45 -47 45 -53 0 -5 9 -10 20 -10 11 0 20 -7 20 -15 0
-8 7 -15 15 -15 8 0 15 -7 15 -15 0 -8 7 -15 15 -15 8 0 15 -7 15 -15 0 -8 7
-15 15 -15 8 0 15 -9 15 -20 0 -11 7 -20 15 -20 8 0 15 -7 15 -15 0 -8 7 -15
15 -15 9 0 15 -9 15 -25 0 -14 7 -28 15 -31 8 -4 15 -17 15 -30 0 -14 7 -27
15 -30 11 -5 15 -24 15 -80 0 -59 -3 -74 -15 -74 -8 0 -15 -6 -15 -14 0 -7 -7
-19 -15 -26 -8 -7 -15 -21 -15 -31 0 -13 -7 -19 -25 -19 -13 0 -28 -6 -32 -14
-11 -20 -153 -26 -153 -6 0 6 7 10 15 10 10 0 15 11 15 35 0 26 3 33 15 29 13
-5 15 12 15 120 0 103 -3 128 -15 132 -9 4 -15 19 -15 35 0 19 -5 29 -15 29
-9 0 -15 9 -15 25 0 14 -7 28 -15 31 -8 4 -15 15 -15 25 0 16 -8 19 -50 19
-42 0 -50 -3 -50 -19 0 -10 -7 -21 -15 -25 -8 -3 -15 -17 -15 -31 0 -16 -6
-25 -15 -25 -10 0 -15 -10 -15 -29 0 -20 -6 -30 -20 -34 -19 -5 -20 -14 -20
-132 0 -114 2 -126 17 -123 17 3 19 -1 22 -42 0 -11 8 -20 16 -20 8 0 15 -4
15 -10 0 -6 -31 -10 -74 -10 -56 0 -75 4 -80 15 -3 8 -17 15 -31 15 -18 0 -25
5 -25 19 0 10 -7 24 -15 31 -8 7 -15 19 -15 26 0 8 -7 14 -15 14 -22 0 -22
145 0 154 8 3 15 16 15 30 0 13 7 26 15 30 8 3 15 17 15 31 0 16 6 25 15 25 8
0 15 7 15 15 0 8 7 15 15 15 8 0 15 9 15 20 0 11 7 20 15 20 8 0 15 7 15 15 0
8 7 15 15 15 8 0 15 7 15 15 0 8 7 15 15 15 8 0 15 7 15 15 0 8 7 15 15 15 8
0 15 7 15 15 0 8 5 15 11 15 15 0 89 74 89 89 0 6 5 11 10 11 6 0 10 -5 10
-12z m35 2 c3 -5 1 -10 -4 -10 -6 0 -11 5 -11 10 0 6 2 10 4 10 3 0 8 -4 11
-10z m-185 -14 c0 -3 -4 -8 -10 -11 -5 -3 -10 -1 -10 4 0 6 5 11 10 11 6 0 10
-2 10 -4z m50 -11 c0 -8 -9 -15 -20 -15 -11 0 -20 7 -20 15 0 8 9 15 20 15 11
0 20 -7 20 -15z m210 0 c0 -8 -7 -15 -15 -15 -8 0 -15 7 -15 15 0 8 7 15 15
15 8 0 15 -7 15 -15z m40 5 c0 -5 -4 -10 -9 -10 -6 0 -13 5 -16 10 -3 6 1 10
9 10 9 0 16 -4 16 -10z m-290 -35 c0 -8 -7 -15 -15 -15 -8 0 -15 7 -15 15 0 8
7 15 15 15 8 0 15 -7 15 -15z m290 0 c0 -8 -9 -15 -20 -15 -11 0 -20 7 -20 15
0 8 9 15 20 15 11 0 20 -7 20 -15z m-250 -5 c0 -5 -7 -10 -16 -10 -8 0 -12 5
-9 10 3 6 10 10 16 10 5 0 9 -4 9 -10z m195 0 c3 -5 1 -10 -4 -10 -6 0 -11 5
-11 10 0 6 2 10 4 10 3 0 8 -4 11 -10z m-305 -14 c0 -3 -4 -8 -10 -11 -5 -3
-10 -1 -10 4 0 6 5 11 10 11 6 0 10 -2 10 -4z m40 -11 c0 -8 -7 -15 -15 -15
-8 0 -15 7 -15 15 0 8 7 15 15 15 8 0 15 -7 15 -15z m350 0 c0 -8 -7 -15 -15
-15 -8 0 -15 7 -15 15 0 8 7 15 15 15 8 0 15 -7 15 -15z m30 5 c0 -5 -2 -10
-4 -10 -3 0 -8 5 -11 10 -3 6 -1 10 4 10 6 0 11 -4 11 -10z m-350 -10 c0 -5
-4 -10 -10 -10 -5 0 -10 5 -10 10 0 6 5 10 10 10 6 0 10 -4 10 -10z m275 0 c3
-5 -1 -10 -9 -10 -9 0 -16 5 -16 10 0 6 4 10 9 10 6 0 13 -4 16 -10z m-375
-14 c0 -3 -4 -8 -10 -11 -5 -3 -10 -1 -10 4 0 6 5 11 10 11 6 0 10 -2 10 -4z
m40 -26 c0 -20 -5 -30 -15 -30 -8 0 -15 -7 -15 -15 0 -8 -7 -15 -15 -15 -8 0
-15 -9 -15 -20 0 -11 -7 -20 -15 -20 -8 0 -15 -7 -15 -15 0 -18 -26 -20 -34
-2 -3 6 -3 0 0 -15 5 -21 2 -28 -10 -28 -11 0 -16 9 -16 30 0 20 5 30 15 30 8
0 15 9 15 20 0 11 7 20 15 20 8 0 15 7 15 15 0 8 7 15 15 15 8 0 15 7 15 15 0
8 7 15 15 15 8 0 15 7 15 15 0 8 7 15 15 15 10 0 15 -10 15 -30z m410 15 c0
-8 7 -15 15 -15 8 0 15 -7 15 -15 0 -8 7 -15 15 -15 8 0 15 -7 15 -15 0 -8 7
-15 15 -15 8 0 15 -9 15 -20 0 -11 7 -20 15 -20 10 0 15 -10 15 -30 0 -21 -5
-30 -16 -30 -12 0 -15 7 -10 28 3 15 3 21 0 15 -8 -18 -34 -16 -34 2 0 8 -7
15 -15 15 -8 0 -15 9 -15 20 0 11 -7 20 -15 20 -8 0 -15 7 -15 15 0 8 -7 15
-15 15 -10 0 -15 10 -15 30 0 20 5 30 15 30 8 0 15 -7 15 -15z m30 5 c0 -5 -2
-10 -4 -10 -3 0 -8 5 -11 10 -3 6 -1 10 4 10 6 0 11 -4 11 -10z m-410 -10 c0
-5 -4 -10 -10 -10 -5 0 -10 5 -10 10 0 6 5 10 10 10 6 0 10 -4 10 -10z m340 0
c0 -5 -4 -10 -10 -10 -5 0 -10 5 -10 10 0 6 5 10 10 10 6 0 10 -4 10 -10z
m-150 -105 c0 -32 -2 -35 -30 -35 -28 0 -30 3 -30 35 0 32 2 35 30 35 28 0 30
-3 30 -35z m-70 -9 c0 -3 -4 -8 -10 -11 -5 -3 -10 -1 -10 4 0 6 5 11 10 11 6
0 10 -2 10 -4z m100 -6 c0 -5 -2 -10 -4 -10 -3 0 -8 5 -11 10 -3 6 -1 10 4 10
6 0 11 -4 11 -10z m-414 -35 c-3 -8 -1 -15 4 -15 6 0 10 -13 10 -30 0 -30 -24
-43 -33 -17 -2 7 -8 8 -13 3 -5 -5 -4 -11 4 -13 8 -3 12 -35 12 -113 0 -77 -4
-110 -12 -114 -7 -3 -1 -3 15 0 25 6 27 4 27 -25 0 -17 -5 -31 -11 -31 -5 0
-7 -5 -3 -12 6 -9 9 -9 12 0 7 21 35 14 29 -7 -3 -14 0 -17 14 -14 22 6 27
-22 7 -30 -10 -4 -10 -7 0 -18 10 -11 12 -10 12 4 0 14 11 17 71 17 45 0 68
-4 64 -10 -4 -6 -22 -9 -41 -7 -24 3 -34 0 -34 -9 0 -10 -14 -14 -45 -14 -38
0 -45 3 -45 20 0 11 -7 20 -15 20 -8 0 -15 7 -15 15 0 8 -7 15 -15 15 -10 0
-15 10 -15 30 0 20 -5 30 -15 30 -9 0 -12 -6 -9 -15 4 -8 1 -15 -5 -15 -8 0
-11 48 -11 155 0 148 1 155 20 155 16 0 20 7 20 30 0 17 5 30 11 30 6 0 9 -7
5 -15z m324 -15 c0 -29 -24 -44 -32 -20 -1 6 -2 -56 0 -136 3 -105 0 -149 -8
-154 -9 -5 -9 -9 -1 -14 6 -4 11 -2 11 3 0 6 7 11 15 11 8 0 15 -7 15 -15 0
-10 10 -15 30 -15 20 0 30 5 30 15 0 8 7 15 15 15 8 0 15 -5 15 -11 0 -5 5 -7
11 -3 8 5 8 9 -1 14 -8 5 -11 49 -8 154 2 80 2 142 0 136 -8 -24 -32 -9 -32
20 0 20 5 30 15 30 8 0 15 -7 15 -15 0 -8 7 -15 16 -15 14 0 15 -8 9 -57 -11
-88 -13 -193 -4 -193 5 0 9 -20 9 -45 0 -33 -4 -45 -15 -45 -8 0 -15 -7 -15
-15 0 -8 -7 -15 -15 -15 -8 0 -15 3 -15 8 0 4 -14 7 -30 8 -17 1 -30 -3 -30
-7 0 -5 -7 -9 -15 -9 -8 0 -15 7 -15 15 0 8 -7 15 -15 15 -11 0 -15 12 -15 45
0 25 4 45 9 45 9 0 7 105 -4 193 -6 49 -5 57 9 57 9 0 16 7 16 15 0 8 7 15 15
15 10 0 15 -10 15 -30z m400 0 c0 -23 4 -30 20 -30 19 0 20 -7 20 -155 0 -107
-3 -155 -11 -155 -6 0 -9 7 -5 15 3 9 0 15 -9 15 -10 0 -15 -10 -15 -30 0 -20
-5 -30 -15 -30 -8 0 -15 -7 -15 -15 0 -8 -7 -15 -15 -15 -8 0 -15 -9 -15 -20
0 -17 -7 -20 -45 -20 -31 0 -45 4 -45 13 0 10 -11 13 -39 10 -22 -2 -42 1 -46
7 -4 6 20 10 69 10 65 0 76 -2 76 -17 0 -14 2 -15 13 -4 10 11 10 14 0 18 -21
8 -16 36 6 30 14 -3 17 0 14 14 -4 13 0 19 11 19 9 0 16 -5 16 -11 0 -5 5 -7
12 -3 9 6 9 9 0 12 -7 2 -12 17 -12 34 0 28 2 30 28 24 15 -3 21 -3 15 0 -9 4
-13 37 -13 114 0 78 4 110 13 113 7 2 8 8 3 13 -5 5 -11 4 -13 -3 -9 -26 -33
-13 -33 17 0 17 4 30 10 30 5 0 7 7 4 15 -4 8 -1 15 5 15 6 0 11 -13 11 -30z
m-357 3 c-7 -2 -19 -2 -25 0 -7 3 -2 5 12 5 14 0 19 -2 13 -5z m-323 -23 c0
-5 -5 -10 -11 -10 -5 0 -7 5 -4 10 3 6 8 10 11 10 2 0 4 -4 4 -10z m635 0 c3
-5 1 -10 -4 -10 -6 0 -11 5 -11 10 0 6 2 10 4 10 3 0 8 -4 11 -10z m-315 -25
c0 -13 8 -29 18 -34 13 -8 7 -10 -28 -10 -35 0 -41 2 -27 10 9 5 17 21 17 34
0 14 5 25 10 25 6 0 10 -11 10 -25z m-40 -5 c0 -5 -5 -10 -11 -10 -5 0 -7 5
-4 10 3 6 8 10 11 10 2 0 4 -4 4 -10z m75 0 c3 -5 1 -10 -4 -10 -6 0 -11 5
-11 10 0 6 2 10 4 10 3 0 8 -4 11 -10z m-155 -25 c-10 -12 -10 -15 4 -15 13 0
16 -13 16 -80 0 -52 -4 -80 -11 -80 -6 0 -9 -7 -5 -15 3 -9 0 -15 -9 -15 -12
0 -15 20 -15 110 0 95 2 110 16 110 14 0 14 -3 4 -15z m230 -95 c0 -103 -10
-139 -24 -87 -10 40 -7 167 5 167 6 0 9 7 5 15 -3 8 -1 15 4 15 6 0 10 -46 10
-110z m-543 18 c2 -29 0 -64 -6 -78 -8 -20 -10 -8 -10 59 -1 92 8 103 16 19z
m862 -20 c0 -66 -2 -78 -10 -58 -8 19 -7 88 1 138 0 1 2 2 5 2 3 0 5 -37 4
-82z m-399 47 c0 -22 -4 -25 -40 -25 -36 0 -40 3 -40 25 0 23 4 25 40 25 36 0
40 -2 40 -25z m0 -50 c0 -11 -11 -15 -40 -15 -29 0 -40 4 -40 15 0 11 11 15
40 15 29 0 40 -4 40 -15z m0 -35 c0 -5 -18 -10 -40 -10 -22 0 -40 5 -40 10 0
6 18 10 40 10 22 0 40 -4 40 -10z m0 -30 c0 -5 -18 -10 -40 -10 -22 0 -40 5
-40 10 0 6 18 10 40 10 22 0 40 -4 40 -10z m-25 -30 c3 -5 -3 -10 -15 -10 -12
0 -18 5 -15 10 3 6 10 10 15 10 5 0 12 -4 15 -10z m-5 -40 c0 -5 -4 -10 -10
-10 -5 0 -10 5 -10 10 0 6 5 10 10 10 6 0 10 -4 10 -10z m20 -75 c0 -10 -10
-15 -30 -15 -20 0 -30 5 -30 15 0 10 10 15 30 15 20 0 30 -5 30 -15z m-60 -25
c0 -5 14 -10 30 -10 17 0 30 5 30 10 0 6 20 10 45 10 26 0 45 -5 45 -11 0 -6
-7 -9 -15 -5 -9 3 -15 0 -15 -9 0 -12 -18 -15 -90 -15 -71 0 -90 3 -90 14 0 9
-7 12 -20 9 -11 -3 -20 0 -20 6 0 7 20 11 50 11 28 0 50 -4 50 -10z m-52 -36
c49 -14 17 -24 -73 -24 -52 0 -95 4 -95 9 0 5 8 12 18 14 26 7 124 7 150 1z
m310 0 c49 -14 17 -24 -73 -24 -52 0 -95 4 -95 9 0 5 8 12 18 14 26 7 124 7
150 1z"/>
<path d="M488 913 c6 -2 18 -2 25 0 6 3 1 5 -13 5 -14 0 -19 -2 -12 -5z"/>
<path d="M485 600 c-3 -5 3 -10 15 -10 12 0 18 5 15 10 -3 6 -10 10 -15 10 -5
0 -12 -4 -15 -10z"/>
<path d="M4 74 c3 -9 6 -20 6 -25 0 -5 13 -9 30 -9 20 0 30 -5 30 -15 0 -10
10 -15 29 -15 16 0 36 -3 45 -6 11 -4 16 -1 16 10 0 12 -10 16 -35 16 -24 0
-35 5 -35 15 0 10 -10 15 -30 15 -20 0 -30 5 -30 15 0 8 -7 15 -16 15 -11 0
-14 -5 -10 -16z"/>
<path d="M970 75 c0 -8 -7 -15 -15 -15 -8 0 -15 -7 -15 -15 0 -11 -12 -15 -50
-15 -39 0 -50 -3 -50 -16 0 -11 5 -14 16 -10 9 3 36 6 60 6 32 0 44 4 44 15 0
8 7 15 15 15 8 0 15 4 15 9 0 5 3 16 6 25 4 11 1 16 -10 16 -9 0 -16 -7 -16
-15z"/>
</g>
</svg>
