<?xml version="1.0" standalone="no"?>
<!DOCTYPE svg PUBLIC "-//W3C//DTD SVG 20010904//EN"
 "http://www.w3.org/TR/2001/REC-SVG-20010904/DTD/svg10.dtd">
<svg version="1.0" xmlns="http://www.w3.org/2000/svg"
 width="192.000000pt" height="192.000000pt" viewBox="0 0 192.000000 192.000000"
 preserveAspectRatio="xMidYMid meet">
<metadata>
Created by potrace 1.16, written by Peter Selinger 2001-2019
</metadata>
<g transform="translate(0.000000,192.000000) scale(0.100000,-0.100000)"
fill="#000000" stroke="none">
<path d="M1672 1864 c-19 -27 -20 -27 -45 -11 -28 18 -72 23 -81 9 -3 -5 -18
-7 -34 -4 -16 2 -33 -1 -36 -7 -4 -6 -23 -11 -43 -11 -25 0 -36 -5 -39 -17 -4
-14 -15 -18 -50 -17 -25 1 -48 4 -51 8 -3 3 -20 6 -36 6 -20 0 -30 -6 -34 -20
-3 -11 -12 -20 -19 -20 -8 0 -18 -8 -22 -17 -5 -13 -18 -18 -47 -18 -39 0 -40
-1 -43 -37 -2 -29 -8 -37 -25 -40 -15 -2 -23 -11 -25 -30 -3 -21 -9 -27 -30
-30 -45 -5 -40 -47 23 -187 43 -96 53 -127 44 -137 -15 -18 -7 -80 16 -128 24
-49 60 -73 147 -95 40 -10 90 -28 111 -41 32 -19 37 -27 37 -59 0 -45 42 -134
77 -161 19 -15 41 -20 83 -20 60 0 81 12 94 57 6 19 11 21 32 13 45 -17 112
-12 134 10 28 28 28 166 1 227 l-19 41 24 33 c13 18 33 60 44 94 11 34 27 71
35 81 10 13 14 46 15 102 0 69 -3 85 -20 102 -11 11 -20 24 -20 29 0 5 -12 24
-27 42 -21 24 -36 65 -58 153 -31 120 -31 121 -62 124 -24 2 -35 -3 -51 -24z
m92 -111 c22 -90 36 -126 57 -151 16 -18 29 -38 29 -45 0 -7 9 -20 20 -30 17
-14 20 -29 20 -89 -1 -51 -5 -79 -17 -93 -15 -19 -15 -19 -8 5 14 46 17 118 6
139 -7 13 -22 21 -36 21 -19 0 -25 5 -25 21 0 33 -19 60 -55 75 -30 12 -48 11
-172 -11 -76 -13 -176 -29 -223 -34 l-85 -9 -62 -67 c-67 -74 -77 -98 -89
-232 -5 -64 -3 -76 16 -103 12 -16 17 -30 12 -30 -14 0 -38 41 -53 88 -10 35
-10 47 1 67 12 23 8 36 -43 152 -68 153 -70 167 -23 161 34 -4 34 -3 28 31 -5
33 -4 34 24 28 29 -6 29 -5 25 40 -3 45 -3 46 25 41 16 -3 37 -9 47 -13 14 -6
17 -2 17 19 0 19 5 26 20 26 13 0 20 7 20 20 0 29 27 25 55 -7 24 -27 24 -27
25 -5 0 27 34 30 62 5 17 -15 18 -14 24 15 6 32 35 44 49 22 9 -15 25 -12 25
5 0 26 29 29 49 4 l18 -22 7 26 c8 32 23 34 70 6 l35 -20 22 30 c41 55 52 43
83 -86z m0 -195 c9 -12 16 -37 16 -56 0 -36 21 -52 45 -32 43 36 47 -46 5
-110 -37 -56 -40 -83 -5 -50 32 30 33 13 4 -65 -20 -54 -39 -72 -39 -37 0 11
-7 6 -21 -16 -24 -37 -113 -100 -177 -125 -50 -20 -142 -21 -194 -3 -21 7 -48
11 -61 9 -27 -5 -147 23 -161 37 -7 7 -6 10 2 10 20 0 13 25 -13 50 -30 29
-32 46 -4 53 17 5 18 8 8 25 -8 12 -9 37 -5 76 6 48 15 66 57 116 65 78 84 90
144 91 27 0 106 10 175 23 169 31 205 32 224 4z m16 -408 c-6 -11 -13 -20 -16
-20 -2 0 0 9 6 20 6 11 13 20 16 20 2 0 0 -9 -6 -20z m10 -82 c27 -60 27 -161
0 -188 -24 -24 -64 -26 -104 -5 -40 21 -53 19 -61 -12 -11 -45 -34 -63 -78
-63 -32 0 -46 6 -72 35 -44 46 -71 118 -59 153 8 24 15 27 64 30 79 3 136 21
193 59 68 46 93 44 117 -9z m-385 -39 c15 -14 -7 -10 -35 7 l-25 15 25 -7 c14
-3 29 -10 35 -15z"/>
<path d="M1510 1420 c-35 -35 -20 -83 32 -95 19 -5 32 -1 47 14 26 26 27 55 1
81 -11 11 -29 20 -40 20 -11 0 -29 -9 -40 -20z m44 -35 c3 -9 -1 -18 -10 -22
-19 -7 -39 11 -30 26 10 16 33 13 40 -4z"/>
<path d="M1344 1365 c-35 -53 27 -106 81 -71 26 17 32 45 15 77 -16 30 -75 26
-96 -6z m51 -15 c4 -6 1 -18 -6 -26 -11 -13 -14 -13 -27 0 -8 8 -11 19 -8 25
9 14 33 14 41 1z"/>
<path d="M1510 1214 c-25 -7 -47 -13 -50 -14 -13 -2 44 -40 62 -40 20 0 68 42
68 60 0 13 -22 11 -80 -6z"/>
<path d="M1681 1044 c-12 -15 -21 -41 -21 -60 0 -26 7 -36 34 -53 53 -33 66
-28 66 24 0 54 -23 115 -44 115 -8 0 -24 -12 -35 -26z m45 -49 c9 -35 2 -46
-19 -30 -13 9 -17 20 -12 34 9 28 23 26 31 -4z"/>
<path d="M1587 994 c-3 -4 0 -19 8 -35 19 -36 45 -29 45 12 0 24 -4 29 -23 29
-13 0 -26 -3 -30 -6z"/>
<path d="M1464 977 c-11 -31 54 -127 87 -127 21 0 29 20 29 68 0 52 -11 63
-64 69 -35 4 -47 2 -52 -10z m77 -27 c5 0 9 -11 9 -25 0 -32 -13 -32 -34 0
-20 31 -20 39 0 31 9 -3 20 -6 25 -6z"/>
<path d="M670 1116 c-63 -18 -104 -41 -145 -81 -35 -36 -75 -103 -75 -127 0
-10 -16 -12 -58 -10 -52 3 -62 0 -91 -24 -49 -41 -83 -117 -79 -174 l3 -48
-52 -27 c-68 -35 -137 -96 -153 -135 -30 -72 10 -200 82 -265 64 -58 178 -71
237 -28 21 16 27 30 29 70 2 42 -1 55 -24 82 -14 17 -39 38 -55 47 -16 8 -29
18 -29 22 0 4 28 25 61 46 56 36 66 39 122 37 34 -1 64 -7 66 -14 10 -27 87
-98 129 -119 40 -19 63 -23 147 -23 88 0 106 3 154 27 l53 26 52 -24 c28 -13
70 -24 93 -24 40 0 42 -1 56 -45 l16 -45 -72 0 c-54 0 -80 -5 -104 -20 -30
-18 -33 -24 -33 -70 0 -97 61 -145 180 -144 145 1 250 86 250 202 0 56 -26
140 -66 211 -26 46 -27 50 -11 66 41 40 4 170 -60 210 -32 20 -32 22 -33 95
-1 127 -56 212 -176 267 -106 48 -311 67 -414 39z m275 -21 c201 -38 295 -131
295 -292 0 -71 0 -72 -27 -75 -19 -2 -35 -15 -52 -40 -24 -38 -41 -41 -41 -9
0 26 -21 41 -59 41 -19 0 -53 9 -75 20 -23 10 -79 24 -126 29 -82 10 -86 12
-123 52 -20 23 -40 53 -42 65 -3 13 -7 35 -10 49 -4 18 -12 25 -29 25 -36 0
-59 -34 -64 -95 -5 -56 -17 -73 -69 -89 -22 -7 -23 -4 -23 38 0 55 -14 67 -29
24 -13 -38 -14 -78 -2 -97 8 -12 16 -13 51 -2 23 7 56 21 73 31 29 18 31 23
32 80 1 43 6 65 18 77 16 16 17 15 17 -22 0 -40 11 -61 65 -128 28 -34 34 -37
85 -37 75 -1 138 -16 184 -46 27 -19 41 -23 49 -15 6 6 19 11 29 11 14 0 18
-8 18 -40 0 -23 -7 -54 -15 -70 -37 -72 53 -8 101 72 41 67 64 73 113 33 36
-31 66 -104 57 -139 -8 -31 -47 -44 -88 -28 -32 12 -57 7 -60 -12 -1 -6 -2
-38 -2 -71 l-1 -60 -40 -3 c-59 -4 -148 43 -155 82 -4 25 -7 27 -18 14 -35
-43 -186 -79 -265 -64 -20 4 -60 23 -88 42 -29 19 -58 33 -66 30 -7 -3 -19 7
-28 24 -15 29 -17 30 -68 24 -66 -8 -75 2 -79 81 l-3 60 -58 -3 c-92 -6 -109
26 -62 117 31 62 77 101 119 101 27 0 35 -6 48 -32 l16 -33 11 45 c35 134 98
202 221 236 62 17 174 17 265 -1z m-581 -477 c3 -13 6 -39 6 -59 0 -33 -5 -39
-82 -91 -116 -79 -144 -133 -94 -183 16 -16 31 -22 45 -18 29 7 26 26 -9 61
-55 55 -31 88 38 53 55 -28 82 -65 82 -112 0 -44 -24 -66 -82 -75 -81 -14
-164 36 -208 122 -49 100 -35 179 43 238 76 58 139 86 198 86 50 0 57 -3 63
-22z m976 -182 c64 -112 85 -218 56 -274 -36 -68 -123 -115 -217 -116 -100 0
-158 44 -159 121 0 37 4 44 30 58 29 15 124 21 154 9 9 -3 16 -14 16 -24 0
-13 -11 -19 -42 -24 -59 -9 -76 -21 -62 -43 17 -28 60 -28 88 0 38 38 42 71
18 146 -16 48 -19 68 -10 78 6 7 11 38 11 68 l0 55 43 0 c41 0 44 -2 74 -54z
m-610 -60 c55 -7 147 6 207 30 35 13 36 13 18 -1 -85 -67 -301 -52 -371 26
-12 13 1 8 39 -14 34 -21 77 -37 107 -41z m-506 -72 c4 -10 1 -14 -6 -12 -15
5 -23 28 -10 28 5 0 13 -7 16 -16z m962 -149 c-22 -17 -46 -20 -46 -6 0 8 21
16 55 19 6 1 1 -5 -9 -13z"/>
<path d="M345 824 c-20 -20 -55 -89 -55 -108 0 -20 24 -26 64 -15 56 16 73 65
40 117 -17 26 -27 28 -49 6z m35 -59 c0 -15 -38 -40 -47 -32 -2 3 3 17 12 31
17 26 35 27 35 1z"/>
<path d="M417 722 c-31 -34 -14 -63 23 -40 23 15 26 31 7 47 -11 8 -18 7 -30
-7z"/>
<path d="M646 684 c-33 -33 -7 -94 41 -94 23 0 53 30 53 53 0 23 -36 57 -59
57 -11 0 -27 -7 -35 -16z m41 -38 c-4 -9 -11 -16 -17 -16 -17 0 -24 31 -9 41
18 11 34 -5 26 -25z"/>
<path d="M456 669 c-21 -17 -26 -29 -26 -65 0 -56 20 -58 82 -11 53 41 62 74
21 82 -15 4 -33 8 -40 10 -6 2 -23 -5 -37 -16z m39 -44 c-33 -27 -40 -26 -30
4 4 15 15 21 33 21 l27 -1 -30 -24z"/>
<path d="M812 654 c-43 -30 -16 -104 39 -104 23 0 49 33 49 63 0 25 -31 57
-55 57 -6 0 -21 -7 -33 -16z m36 -31 c-2 -10 -10 -18 -18 -18 -8 0 -16 8 -18
18 -2 12 3 17 18 17 15 0 20 -5 18 -17z"/>
<path d="M1195 640 c-19 -38 -19 -53 3 -72 19 -17 69 -29 89 -21 21 8 15 45
-12 86 -31 45 -59 48 -80 7z m51 -27 c19 -25 17 -33 -5 -33 -24 0 -33 13 -25
34 8 20 14 20 30 -1z"/>
<path d="M1140 565 c-10 -12 -10 -18 0 -30 26 -31 59 -11 40 25 -13 24 -23 25
-40 5z"/>
<path d="M680 526 c0 -40 54 -57 105 -34 32 15 28 30 -10 34 -17 2 -45 6 -62
9 -25 4 -33 2 -33 -9z"/>
<path d="M1058 518 c-17 -6 -28 -17 -28 -29 0 -23 62 -66 108 -75 30 -6 32 -5
32 20 0 34 -24 82 -45 90 -21 8 -34 7 -67 -6z m69 -43 c9 -25 -2 -27 -28 -6
l-24 20 23 1 c12 0 25 -7 29 -15z"/>
</g>
</svg>
