<?xml version="1.0" standalone="no"?>
<!DOCTYPE svg PUBLIC "-//W3C//DTD SVG 20010904//EN"
 "http://www.w3.org/TR/2001/REC-SVG-20010904/DTD/svg10.dtd">
<svg version="1.0" xmlns="http://www.w3.org/2000/svg"
 width="192.000000pt" height="192.000000pt" viewBox="0 0 192.000000 192.000000"
 preserveAspectRatio="xMidYMid meet">
<metadata>
Created by potrace 1.16, written by Peter Selinger 2001-2019
</metadata>
<g transform="translate(0.000000,192.000000) scale(0.100000,-0.100000)"
fill="#000000" stroke="none">
<path d="M1380 1910 c0 -5 -16 -10 -35 -10 -19 0 -35 -4 -35 -10 0 -5 -13 -10
-30 -10 -16 0 -30 -4 -30 -10 0 -5 -13 -10 -30 -10 -16 0 -30 -4 -30 -10 0 -5
-9 -10 -20 -10 -11 0 -20 -4 -20 -10 0 -5 -18 -13 -40 -16 -24 -4 -40 -12 -40
-20 0 -8 -5 -14 -11 -14 -6 0 -17 -7 -25 -15 -9 -8 -24 -15 -35 -15 -10 0 -19
-4 -19 -10 0 -5 -8 -10 -18 -10 -10 0 -24 -9 -32 -20 -8 -11 -21 -20 -29 -20
-14 0 -51 -37 -51 -52 0 -4 -7 -8 -16 -8 -9 0 -29 -13 -44 -30 -15 -16 -33
-30 -39 -30 -18 0 -92 -67 -121 -109 -8 -11 -20 -21 -27 -21 -8 0 -38 -25 -68
-55 -31 -30 -60 -55 -65 -55 -6 0 -10 -5 -10 -11 0 -13 -38 -49 -52 -49 -4 0
-8 -7 -8 -15 0 -18 -7 -28 -77 -100 -29 -30 -53 -61 -53 -70 0 -8 -4 -15 -9
-15 -14 0 -71 -56 -71 -70 0 -6 -6 -18 -12 -25 -32 -35 -38 -45 -38 -60 0 -8
-6 -15 -14 -15 -8 0 -18 -9 -21 -20 -3 -11 -11 -20 -16 -20 -5 0 -9 -8 -9 -18
0 -10 -9 -24 -20 -32 -11 -8 -20 -20 -20 -27 0 -7 -4 -13 -10 -13 -5 0 -10 -9
-10 -20 0 -11 -4 -20 -10 -20 -5 0 -10 -13 -10 -30 0 -16 5 -30 10 -30 6 0 10
9 10 20 0 11 5 20 10 20 6 0 10 9 10 20 0 11 5 20 10 20 6 0 10 6 10 13 0 7 9
19 20 27 11 8 20 22 20 32 0 10 4 18 9 18 5 0 13 9 16 20 3 11 13 20 21 20 8
0 14 7 14 16 0 8 6 22 12 29 31 34 38 45 38 56 0 13 58 69 71 69 5 0 9 7 9 15
0 9 24 40 53 70 70 72 77 82 77 100 0 8 4 15 8 15 14 0 52 36 52 49 0 6 4 11
10 11 5 0 34 25 65 55 30 30 60 55 68 55 7 0 19 10 27 21 29 42 103 109 121
109 6 0 24 14 39 30 15 17 35 30 44 30 9 0 16 4 16 8 0 15 37 52 51 52 8 0 21
9 29 20 8 11 22 20 32 20 10 0 18 5 18 10 0 6 9 10 19 10 11 0 26 7 35 15 8 8
19 15 25 15 6 0 11 6 11 14 0 8 16 16 40 20 22 3 40 11 40 16 0 6 9 10 20 10
11 0 20 5 20 10 0 6 14 10 30 10 17 0 30 5 30 10 0 6 14 10 30 10 17 0 30 5
30 10 0 6 16 10 35 10 19 0 35 5 35 10 0 6 62 10 165 10 103 0 165 -4 165 -10
0 -5 7 -10 15 -10 8 0 15 -4 15 -10 0 -5 9 -10 20 -10 11 0 20 -4 20 -10 0 -5
7 -10 15 -10 18 0 65 -44 65 -60 0 -12 24 -40 34 -40 3 0 6 9 6 20 0 11 -4 20
-10 20 -5 0 -10 7 -10 15 0 20 -45 65 -65 65 -8 0 -15 5 -15 10 0 6 -9 10 -20
10 -11 0 -20 5 -20 10 0 6 -7 10 -15 10 -8 0 -15 5 -15 10 0 6 -68 10 -185 10
-117 0 -185 -4 -185 -10z"/>
<path d="M1360 1490 c0 -5 -22 -10 -50 -10 -27 0 -50 -4 -50 -10 0 -5 -16 -10
-35 -10 -19 0 -35 -4 -35 -10 0 -5 -13 -10 -30 -10 -16 0 -30 -4 -30 -10 0 -5
-9 -10 -20 -10 -11 0 -20 -4 -20 -10 0 -5 -11 -10 -25 -10 -14 0 -25 -4 -25
-10 0 -5 -9 -10 -20 -10 -11 0 -20 -4 -20 -9 0 -5 -17 -12 -38 -16 -21 -3 -45
-15 -52 -26 -8 -10 -22 -19 -32 -19 -10 0 -18 -4 -18 -10 0 -5 -7 -10 -15 -10
-8 0 -15 -4 -15 -10 0 -5 -7 -10 -15 -10 -8 0 -15 -4 -15 -10 0 -5 -6 -10 -13
-10 -7 0 -19 -9 -27 -20 -8 -11 -21 -20 -30 -20 -9 0 -22 -9 -30 -20 -8 -11
-20 -20 -28 -20 -7 0 -20 -6 -27 -12 -35 -32 -45 -38 -60 -38 -8 0 -15 -5 -15
-11 0 -14 -76 -89 -91 -89 -12 0 -129 -117 -129 -129 0 -5 -11 -12 -25 -15
-14 -4 -25 -11 -25 -16 0 -5 -43 -52 -95 -105 -52 -52 -95 -99 -95 -105 0 -5
-4 -10 -10 -10 -5 0 -10 -5 -10 -11 0 -17 -57 -69 -75 -69 -8 0 -15 -4 -15
-10 0 -5 11 -10 25 -10 26 0 85 48 85 69 0 6 5 11 10 11 6 0 10 5 10 10 0 6
43 53 95 105 52 53 95 100 95 105 0 5 11 12 25 16 14 3 25 10 25 15 0 12 117
129 129 129 15 0 91 75 91 89 0 6 7 11 16 11 8 0 22 6 29 13 34 30 45 37 57
37 8 0 20 9 28 20 8 11 21 20 30 20 9 0 22 9 30 20 8 11 20 20 27 20 7 0 13 5
13 10 0 6 7 10 15 10 8 0 15 5 15 10 0 6 7 10 15 10 8 0 15 5 15 10 0 6 8 10
18 10 10 0 24 9 32 19 7 11 31 23 52 26 21 4 38 11 38 16 0 5 9 9 20 9 11 0
20 5 20 10 0 6 11 10 25 10 14 0 25 5 25 10 0 6 9 10 20 10 11 0 20 5 20 10 0
6 14 10 30 10 17 0 30 5 30 10 0 6 16 10 35 10 19 0 35 5 35 10 0 6 23 10 50
10 28 0 50 5 50 10 0 6 27 10 60 10 33 0 60 -4 60 -10 0 -5 17 -10 38 -10 26
0 42 -6 52 -20 8 -11 18 -20 23 -20 14 0 37 -27 37 -44 0 -9 5 -16 10 -16 6 0
10 -7 10 -15 0 -8 5 -15 10 -15 6 0 10 -22 10 -50 0 -27 -4 -50 -10 -50 -6 0
-10 -33 -10 -80 l0 -80 45 0 c25 0 45 5 45 11 0 13 20 33 43 42 9 3 17 15 17
24 0 10 9 25 20 33 11 8 20 22 20 32 0 10 5 18 10 18 6 0 10 9 10 20 0 11 5
20 10 20 6 0 10 9 10 20 0 11 5 20 10 20 6 0 10 11 10 25 0 14 -4 25 -10 25
-5 0 -10 -7 -10 -15 0 -8 -4 -15 -10 -15 -5 0 -10 -9 -10 -20 0 -11 -4 -20
-10 -20 -5 0 -10 -9 -10 -20 0 -11 -4 -20 -10 -20 -5 0 -10 -8 -10 -18 0 -10
-9 -24 -20 -32 -11 -8 -20 -23 -20 -33 0 -9 -8 -21 -17 -24 -23 -9 -43 -29
-43 -42 0 -6 -11 -11 -25 -11 -24 0 -25 3 -25 60 0 33 4 60 10 60 6 0 10 30
10 70 0 40 -4 70 -10 70 -5 0 -10 7 -10 15 0 8 -4 15 -10 15 -5 0 -10 7 -10
16 0 17 -23 44 -37 44 -5 0 -15 9 -23 20 -10 14 -26 20 -52 20 -21 0 -38 5
-38 10 0 6 -33 10 -80 10 -47 0 -80 -4 -80 -10z"/>
<path d="M900 1140 c0 -5 -16 -10 -35 -10 -19 0 -35 -4 -35 -10 0 -5 -13 -10
-30 -10 -16 0 -30 -4 -30 -10 0 -5 -9 -10 -20 -10 -11 0 -20 -4 -20 -9 0 -5
-18 -12 -40 -16 -22 -4 -40 -11 -40 -16 0 -5 -7 -9 -15 -9 -8 0 -15 -4 -15
-10 0 -5 -8 -10 -18 -10 -10 0 -24 -9 -32 -20 -8 -11 -22 -20 -32 -20 -10 0
-18 -4 -18 -10 0 -5 -7 -10 -16 -10 -44 0 -44 -3 -44 -494 l0 -466 540 0 540
0 0 385 0 385 -46 0 c-42 0 -49 -4 -102 -59 -31 -32 -64 -68 -72 -80 -8 -11
-22 -21 -32 -21 -22 0 -24 28 -3 36 8 4 15 15 15 25 0 10 7 19 15 19 10 0 16
16 21 50 4 28 10 50 15 50 5 0 9 56 9 125 0 69 -4 125 -9 125 -5 0 -12 11 -15
25 -4 14 -12 25 -19 25 -7 0 -19 9 -27 20 -8 11 -20 20 -27 20 -7 0 -13 5 -13
10 0 6 -65 10 -175 10 -110 0 -175 -4 -175 -10z m330 -20 c0 -5 6 -10 13 -10
7 0 19 -9 27 -20 8 -11 20 -20 27 -20 7 0 15 -11 19 -25 3 -14 10 -25 15 -25
5 0 9 -47 9 -105 0 -58 -4 -105 -9 -105 -5 0 -11 -22 -15 -50 -5 -34 -11 -50
-21 -50 -8 0 -15 -9 -15 -19 0 -10 -7 -21 -15 -25 -8 -3 -15 -16 -15 -30 0
-16 -7 -27 -20 -31 -11 -3 -20 -13 -20 -21 0 -8 -36 -50 -80 -94 -44 -44 -80
-82 -80 -85 0 -15 30 -2 35 15 4 13 15 20 31 20 13 0 24 4 24 8 0 14 36 52 49
52 6 0 27 15 46 33 51 48 63 57 77 57 8 0 20 10 28 21 8 12 41 48 72 80 40 42
64 59 82 59 l26 0 0 -365 0 -365 -520 0 -520 0 0 446 c0 469 0 474 44 474 9 0
16 5 16 10 0 6 8 10 18 10 10 0 24 9 32 20 8 11 22 20 32 20 10 0 18 5 18 10
0 6 7 10 15 10 8 0 15 4 15 9 0 5 18 12 40 16 22 4 40 11 40 16 0 5 9 9 20 9
11 0 20 5 20 10 0 6 14 10 30 10 17 0 30 5 30 10 0 6 16 10 35 10 19 0 35 5
35 10 0 6 58 10 155 10 97 0 155 -4 155 -10z"/>
<path d="M988 363 c6 -2 18 -2 25 0 6 3 1 5 -13 5 -14 0 -19 -2 -12 -5z"/>
</g>
</svg>
