<?xml version="1.0" standalone="no"?>
<!DOCTYPE svg PUBLIC "-//W3C//DTD SVG 20010904//EN"
 "http://www.w3.org/TR/2001/REC-SVG-20010904/DTD/svg10.dtd">
<svg version="1.0" xmlns="http://www.w3.org/2000/svg"
 width="192.000000pt" height="192.000000pt" viewBox="0 0 192.000000 192.000000"
 preserveAspectRatio="xMidYMid meet">
<metadata>
Created by potrace 1.16, written by Peter Selinger 2001-2019
</metadata>
<g transform="translate(0.000000,192.000000) scale(0.100000,-0.100000)"
fill="#000000" stroke="none">
<path d="M125 1908 c-28 -16 -100 -88 -114 -115 -6 -12 -11 -37 -11 -55 l0
-33 20 44 c26 56 95 125 151 151 l44 20 -35 -1 c-19 0 -44 -5 -55 -11z"/>
<path d="M1749 1900 c24 -11 63 -40 87 -64 24 -24 53 -63 64 -87 l20 -44 0 33
c0 43 -13 67 -64 118 -51 51 -75 64 -118 64 l-33 0 44 -20z"/>
<path d="M1304 1726 c-212 -49 -464 -216 -715 -474 -135 -138 -228 -250 -318
-382 -68 -100 -139 -224 -124 -219 6 2 39 40 74 84 35 44 108 125 164 181 311
312 638 503 891 521 216 15 311 -82 270 -276 l-13 -64 28 34 c81 100 140 242
141 343 1 104 -48 188 -134 232 -64 32 -174 40 -264 20z m242 -39 c52 -27 103
-88 121 -144 22 -69 8 -147 -43 -252 l-38 -76 -7 55 c-9 70 -20 99 -54 132
-49 49 -100 61 -237 56 -104 -4 -137 -9 -215 -36 -206 -70 -416 -207 -648
-423 l-79 -74 49 63 c129 167 320 358 475 479 133 103 276 182 400 220 89 27
224 28 276 0z"/>
<path d="M900 1079 c-87 -22 -166 -58 -268 -120 l-72 -45 -3 -322 c-1 -177 -1
-322 1 -322 14 0 229 121 288 162 335 231 475 549 284 646 -55 28 -127 28
-230 1z m221 -24 c79 -41 90 -131 29 -251 -67 -135 -178 -251 -344 -362 -70
-47 -206 -122 -221 -122 -3 0 -5 128 -5 285 l0 284 58 37 c75 49 208 112 269
129 68 19 177 19 214 0z"/>
<path d="M1268 685 c-185 -177 -395 -313 -650 -420 -49 -20 -68 -33 -68 -47 0
-17 18 -18 405 -18 l405 0 0 285 c0 157 -1 285 -2 285 -2 -1 -42 -39 -90 -85z
m59 -452 c-2 -2 -162 -2 -356 -1 l-352 3 98 42 c187 81 392 217 538 355 l70
66 3 -230 c1 -127 1 -233 -1 -235z"/>
<path d="M0 182 c0 -43 13 -67 64 -118 51 -51 75 -64 118 -64 l33 0 -44 20
c-24 11 -63 40 -87 64 -24 24 -53 63 -64 87 l-20 44 0 -33z"/>
<path d="M1901 176 c-18 -51 -95 -130 -151 -155 l-45 -21 33 0 c44 0 68 13
124 71 48 49 62 79 56 120 -2 19 -5 17 -17 -15z"/>
</g>
</svg>
