<?xml version="1.0" standalone="no"?>
<!DOCTYPE svg PUBLIC "-//W3C//DTD SVG 20010904//EN"
 "http://www.w3.org/TR/2001/REC-SVG-20010904/DTD/svg10.dtd">
<svg version="1.0" xmlns="http://www.w3.org/2000/svg"
 width="192.000000pt" height="192.000000pt" viewBox="0 0 192.000000 192.000000"
 preserveAspectRatio="xMidYMid meet">
<metadata>
Created by potrace 1.16, written by Peter Selinger 2001-2019
</metadata>
<g transform="translate(0.000000,192.000000) scale(0.100000,-0.100000)"
fill="#000000" stroke="none">
<path d="M590 1910 c0 -5 -13 -10 -30 -10 -20 0 -30 -5 -30 -15 0 -10 -10 -15
-30 -15 -20 0 -30 -5 -30 -15 0 -10 -10 -15 -30 -15 -20 0 -30 -5 -30 -15 0
-8 -7 -15 -15 -15 -8 0 -15 -7 -15 -15 0 -10 -10 -15 -30 -15 -20 0 -30 -5
-30 -15 0 -8 -7 -15 -15 -15 -8 0 -15 -7 -15 -15 0 -8 -7 -15 -15 -15 -8 0
-15 -7 -15 -15 0 -8 -7 -15 -15 -15 -8 0 -15 -7 -15 -15 0 -8 -7 -15 -15 -15
-8 0 -15 -7 -15 -15 0 -8 -7 -15 -15 -15 -8 0 -15 -7 -15 -15 0 -8 -7 -15 -15
-15 -8 0 -15 -7 -15 -15 0 -8 -7 -15 -15 -15 -10 0 -15 -10 -15 -30 0 -20 -5
-30 -15 -30 -10 0 -15 -10 -15 -30 0 -20 -5 -30 -15 -30 -10 0 -15 -10 -15
-30 0 -20 -5 -30 -15 -30 -10 0 -15 -10 -15 -30 0 -16 -4 -30 -10 -30 -6 0 -9
-25 -8 -57 2 -57 2 -57 5 -10 3 33 8 47 19 47 9 0 14 11 14 30 0 20 5 30 15
30 10 0 15 10 15 30 0 20 5 30 15 30 10 0 15 10 15 30 0 20 5 30 15 30 10 0
15 10 15 30 0 20 5 30 15 30 8 0 15 7 15 15 0 8 7 15 15 15 8 0 15 7 15 15 0
8 7 15 15 15 8 0 15 7 15 15 0 8 7 15 15 15 8 0 15 7 15 15 0 8 7 15 15 15 8
0 15 7 15 15 0 8 7 15 15 15 8 0 15 7 15 15 0 8 7 15 15 15 8 0 15 7 15 15 0
10 10 15 30 15 20 0 30 5 30 15 0 8 7 15 15 15 8 0 15 7 15 15 0 10 10 15 30
15 20 0 30 5 30 15 0 10 10 15 30 15 20 0 30 5 30 15 0 10 10 15 30 15 19 0
30 5 30 14 0 11 14 16 48 19 46 3 46 3 -10 5 -33 1 -58 -2 -58 -8z"/>
<path d="M844 1905 c-7 -17 -89 -21 -99 -5 -10 16 -32 12 -39 -7 -4 -9 -1 -20
6 -25 18 -12 172 -2 176 11 2 7 32 11 73 11 39 0 68 -4 65 -9 -12 -18 155 -29
183 -12 26 17 -24 32 -84 25 -47 -6 -55 -4 -55 10 0 14 -15 16 -110 16 -89 0
-112 -3 -116 -15z"/>
<path d="M1233 1913 c33 -3 47 -8 47 -19 0 -10 12 -14 45 -14 33 0 45 -4 45
-15 0 -10 10 -15 30 -15 20 0 30 -5 30 -15 0 -10 10 -15 30 -15 20 0 30 -5 30
-15 0 -8 7 -15 15 -15 8 0 15 -7 15 -15 0 -10 10 -15 30 -15 20 0 30 -5 30
-15 0 -8 7 -15 15 -15 8 0 15 -7 15 -15 0 -8 7 -15 15 -15 8 0 15 -7 15 -15 0
-8 7 -15 15 -15 8 0 15 -7 15 -15 0 -8 7 -15 15 -15 8 0 15 -7 15 -15 0 -8 7
-15 15 -15 8 0 15 -7 15 -15 0 -8 7 -15 15 -15 10 0 15 -10 15 -30 0 -20 5
-30 15 -30 8 0 15 -7 15 -15 0 -8 7 -15 15 -15 10 0 15 -10 15 -30 0 -20 5
-30 15 -30 10 0 15 -10 15 -30 0 -20 5 -30 15 -30 10 0 15 -10 15 -30 0 -20 5
-30 15 -30 10 0 15 -16 18 -62 l3 -63 2 73 c1 42 -2 72 -8 72 -5 0 -10 14 -10
30 0 20 -5 30 -15 30 -10 0 -15 10 -15 30 0 20 -5 30 -15 30 -10 0 -15 10 -15
30 0 20 -5 30 -15 30 -8 0 -15 7 -15 15 0 8 -7 15 -15 15 -10 0 -15 10 -15 30
0 20 -5 30 -15 30 -8 0 -15 7 -15 15 0 8 -7 15 -15 15 -8 0 -15 7 -15 15 0 8
-7 15 -15 15 -8 0 -15 7 -15 15 0 8 -7 15 -15 15 -8 0 -15 7 -15 15 0 8 -7 15
-15 15 -8 0 -15 7 -15 15 0 8 -7 15 -15 15 -8 0 -15 7 -15 15 0 10 -10 15 -30
15 -20 0 -30 5 -30 15 0 8 -7 15 -15 15 -8 0 -15 7 -15 15 0 10 -10 15 -30 15
-20 0 -30 5 -30 15 0 10 -10 15 -30 15 -20 0 -30 5 -30 15 0 11 -12 15 -45 15
-25 0 -45 5 -45 10 0 6 -25 9 -57 8 -57 -2 -57 -2 -10 -5z"/>
<path d="M614 1861 c-11 -10 -32 -21 -47 -25 -15 -3 -27 -11 -27 -16 0 -5 -16
-12 -35 -16 -19 -3 -32 -10 -29 -15 3 -5 -1 -9 -8 -9 -8 0 -21 -9 -31 -20 -9
-11 -26 -20 -37 -20 -11 0 -20 -4 -20 -10 0 -5 -7 -10 -15 -10 -8 0 -15 -4
-15 -9 0 -13 -154 -166 -174 -174 -8 -3 -19 -22 -25 -41 -5 -20 -16 -42 -24
-51 -8 -8 -13 -24 -10 -35 4 -14 0 -20 -11 -20 -16 0 -20 -8 -18 -47 1 -14 -5
-23 -13 -23 -31 0 -33 -82 -2 -88 14 -3 17 4 17 38 0 23 4 39 9 36 11 -7 21
17 21 49 0 12 7 25 15 29 8 3 15 14 15 25 0 10 7 21 15 25 8 3 15 12 15 20 0
7 7 16 15 20 8 3 15 14 15 25 0 10 7 21 15 25 8 3 15 12 15 21 0 8 7 15 15 15
8 0 15 7 15 15 0 8 7 15 15 15 8 0 15 7 15 15 0 8 7 15 15 15 8 0 15 7 15 15
0 8 7 15 15 15 8 0 15 6 15 14 0 7 8 17 18 20 34 13 72 37 72 47 0 5 9 9 20 9
11 0 23 6 26 14 3 8 19 16 35 20 17 3 28 10 24 15 -3 5 12 11 32 13 26 2 38 8
38 18 0 10 9 14 25 12 14 -1 36 0 49 3 23 6 23 7 5 19 -35 24 -69 27 -90 7z"/>
<path d="M1215 1856 c-19 -14 -19 -15 -2 -21 9 -4 29 -5 43 -2 20 3 28 0 31
-14 4 -14 14 -19 38 -19 20 0 35 -6 39 -15 3 -8 17 -15 31 -15 16 0 25 -6 25
-15 0 -9 9 -15 25 -15 14 0 25 -5 25 -10 0 -6 7 -13 16 -17 9 -3 30 -19 47
-34 17 -16 37 -29 44 -29 7 0 13 -7 13 -15 0 -8 7 -15 15 -15 8 0 15 -7 15
-15 0 -8 7 -15 15 -15 8 0 15 -7 15 -15 0 -9 7 -18 15 -21 8 -4 15 -13 15 -20
0 -8 7 -17 15 -20 8 -4 15 -13 15 -20 0 -8 7 -17 15 -20 8 -4 15 -15 15 -25 0
-11 7 -22 15 -25 8 -4 15 -15 15 -25 0 -11 7 -22 15 -25 9 -4 15 -19 15 -40 0
-24 5 -34 15 -34 10 0 15 -10 15 -34 0 -19 7 -42 16 -51 12 -11 17 -36 18 -83
1 -48 5 -66 14 -65 20 5 17 -213 -3 -221 -11 -4 -15 -22 -15 -76 0 -39 -4 -69
-9 -66 -12 8 -21 -18 -21 -60 0 -20 -4 -33 -9 -30 -11 7 -21 -17 -21 -50 0
-26 29 -35 32 -9 0 8 1 21 2 28 1 6 9 15 20 20 15 6 17 14 12 48 -4 25 -3 38
3 35 16 -11 41 35 31 55 -15 27 -12 75 5 89 22 18 21 221 -1 254 -8 13 -14 39
-13 58 5 61 0 88 -16 88 -18 0 -18 2 -3 34 10 22 8 28 -10 45 -12 10 -22 25
-22 34 0 9 -6 22 -14 29 -7 8 -17 29 -21 46 -3 18 -11 30 -16 26 -5 -3 -9 4
-9 15 0 12 -7 21 -15 21 -9 0 -18 12 -21 30 -4 17 -10 30 -15 30 -5 0 -9 7 -9
15 0 8 -4 15 -9 15 -13 0 -141 128 -141 141 0 5 -7 9 -15 9 -8 0 -15 4 -15 9
0 5 -13 11 -30 15 -18 3 -30 12 -30 21 0 8 -9 15 -21 15 -11 0 -18 4 -14 9 3
6 -10 13 -30 17 -19 3 -32 10 -29 15 3 5 -13 12 -35 15 -23 4 -38 10 -35 15 3
5 -5 9 -18 9 -13 0 -32 3 -43 6 -11 3 -29 -2 -40 -10z"/>
<path d="M804 1815 c-5 -11 -21 -15 -60 -15 -39 0 -56 -4 -60 -15 -4 -8 -18
-15 -34 -15 -16 0 -35 -7 -44 -15 -8 -8 -24 -15 -36 -15 -11 0 -23 -7 -26 -15
-4 -8 -15 -15 -25 -15 -11 0 -22 -7 -25 -15 -4 -8 -15 -15 -25 -15 -10 0 -19
-7 -19 -15 0 -8 -6 -15 -14 -15 -18 0 -166 -139 -166 -156 0 -6 -7 -14 -15
-18 -8 -3 -15 -12 -15 -20 0 -7 -7 -16 -15 -20 -8 -3 -15 -17 -15 -31 0 -16
-6 -25 -15 -25 -9 0 -15 -9 -15 -24 0 -13 -7 -26 -15 -30 -9 -3 -15 -19 -15
-41 0 -20 -4 -34 -9 -31 -12 8 -21 -18 -21 -64 0 -24 -5 -40 -15 -44 -22 -8
-22 -374 0 -382 10 -4 15 -20 15 -50 0 -30 5 -46 15 -50 9 -4 15 -19 15 -35 0
-17 6 -32 15 -35 8 -4 15 -16 15 -29 0 -12 7 -28 15 -35 8 -7 15 -21 15 -31 0
-11 6 -19 14 -19 7 0 16 -8 20 -17 8 -25 27 -52 59 -84 15 -16 27 -33 27 -39
0 -5 7 -10 15 -10 19 0 56 -31 49 -42 -3 -4 -1 -8 4 -8 4 0 26 -16 48 -35 60
-54 64 -49 64 64 0 79 3 100 15 105 11 4 15 20 15 56 0 38 4 50 15 50 11 0 15
11 15 40 0 29 4 40 15 40 9 0 15 9 15 25 0 14 5 25 10 25 6 0 14 8 17 17 11
27 98 113 115 113 9 0 18 7 22 15 3 9 19 15 41 15 24 0 35 4 35 15 0 22 155
22 164 0 3 -9 19 -15 41 -15 19 0 35 -4 35 -9 0 -5 14 -14 30 -20 17 -5 30
-15 30 -20 0 -6 7 -11 15 -11 8 0 15 -7 15 -15 0 -8 7 -15 15 -15 8 0 15 -7
15 -15 0 -9 7 -18 15 -21 8 -4 15 -15 15 -25 0 -11 7 -22 15 -25 8 -4 15 -15
15 -25 0 -11 7 -22 15 -25 10 -4 15 -20 15 -45 0 -26 5 -42 15 -45 11 -5 15
-24 15 -80 0 -57 4 -76 15 -80 11 -5 15 -22 15 -65 0 -44 -4 -61 -15 -65 -8
-4 -15 -11 -15 -17 0 -6 3 -7 6 -4 4 3 15 2 25 -4 14 -7 23 -5 36 11 10 11 23
20 31 20 7 0 15 7 18 15 4 8 11 15 17 15 6 0 20 9 32 20 20 18 21 28 17 98 -2
45 -10 83 -18 93 -8 8 -14 34 -14 58 0 28 -5 44 -15 47 -8 4 -15 17 -15 30 0
14 -7 27 -15 30 -8 4 -15 14 -15 23 0 10 -13 30 -30 46 -16 16 -30 37 -30 47
0 10 -7 18 -15 18 -8 0 -15 7 -15 15 0 8 -7 15 -15 15 -8 0 -15 6 -15 14 0 7
-8 16 -17 20 -10 3 -36 17 -58 30 -22 14 -50 25 -62 26 -26 0 -32 30 -7 30 31
0 114 57 114 79 0 5 7 11 15 15 12 4 15 24 15 86 0 62 -3 82 -15 86 -8 4 -15
14 -15 23 0 19 -70 101 -87 101 -6 0 -13 7 -17 15 -3 8 -16 15 -30 15 -13 0
-26 7 -30 15 -3 10 -19 15 -46 15 -29 0 -40 4 -40 16 0 12 -10 14 -50 12 -32
-2 -50 -8 -50 -15 0 -8 -14 -13 -39 -13 -25 0 -41 -5 -45 -15 -3 -8 -17 -15
-31 -15 -14 0 -25 -5 -25 -10 0 -6 -7 -13 -16 -17 -22 -8 -64 -48 -64 -60 0
-6 -7 -16 -15 -23 -8 -7 -15 -20 -15 -30 0 -10 -7 -20 -15 -24 -11 -4 -15 -23
-15 -81 0 -60 3 -75 15 -75 8 0 15 -9 15 -20 0 -11 7 -20 15 -20 8 0 15 -6 15
-13 0 -11 68 -47 90 -47 6 0 10 -7 10 -15 0 -9 -9 -15 -24 -15 -14 0 -31 -7
-40 -15 -8 -8 -18 -15 -22 -15 -6 0 -52 -36 -116 -90 -10 -8 -18 -25 -18 -37
0 -13 -6 -23 -13 -23 -18 0 -47 -37 -47 -59 0 -10 -7 -21 -15 -25 -8 -3 -15
-17 -15 -31 0 -14 -7 -28 -15 -31 -11 -5 -15 -22 -15 -64 0 -42 -4 -59 -15
-64 -10 -4 -15 -20 -15 -51 0 -25 -4 -45 -10 -45 -12 0 -50 41 -50 54 0 6 -20
34 -45 61 -24 28 -45 55 -45 62 0 6 -3 13 -7 15 -18 7 -53 69 -53 93 0 16 -6
25 -15 25 -10 0 -15 10 -15 30 l0 30 60 0 c47 0 60 -3 60 -15 0 -8 -7 -15 -15
-15 -12 0 -15 -13 -15 -60 0 -45 4 -60 14 -60 8 0 16 -7 20 -15 3 -9 18 -15
38 -15 38 0 78 39 78 77 0 12 5 23 10 23 6 0 10 6 10 14 0 18 -56 66 -77 66
-13 0 -13 3 -3 15 7 8 23 15 36 15 13 0 24 5 24 10 0 6 7 10 15 10 13 0 20
-19 16 -43 -1 -5 11 -7 26 -5 32 3 46 44 19 54 -10 4 -16 18 -16 35 0 17 -6
32 -15 35 -22 9 -22 258 0 280 8 9 15 29 15 45 0 16 4 29 9 29 10 0 34 38 47
73 3 9 13 17 20 17 8 0 14 6 14 13 0 16 93 107 110 107 6 0 13 7 16 15 4 8 16
15 29 15 12 0 28 7 35 15 7 8 25 15 41 15 15 0 34 7 43 15 19 20 227 22 224 3
-2 -9 13 -14 42 -16 26 -2 48 -10 53 -18 4 -8 19 -14 31 -14 13 0 26 -7 30
-15 3 -8 10 -15 16 -15 13 0 110 -95 110 -108 0 -6 7 -12 15 -16 8 -3 15 -12
15 -20 0 -7 7 -16 15 -20 8 -3 15 -15 15 -26 0 -11 7 -23 15 -26 9 -4 15 -19
15 -40 0 -22 6 -37 15 -40 22 -9 22 -249 0 -258 -9 -3 -15 -19 -15 -41 0 -24
-4 -35 -15 -35 -16 0 -20 -27 -7 -46 10 -14 40 -25 44 -15 2 5 18 6 36 4 26
-4 30 -8 21 -19 -6 -8 -18 -14 -25 -14 -9 0 -14 -11 -14 -30 0 -16 5 -30 10
-30 6 0 10 -11 10 -25 0 -14 7 -28 15 -31 8 -3 17 -14 20 -24 5 -15 11 -16 45
-8 22 6 38 14 35 18 -3 4 4 10 15 13 16 4 20 14 20 44 0 21 -4 52 -9 68 -8 28
-7 30 22 31 17 1 35 8 41 15 6 8 21 22 33 32 l21 18 -15 -60 c-9 -34 -19 -61
-24 -61 -5 0 -9 -11 -9 -24 0 -14 -5 -28 -11 -31 -5 -4 -15 -17 -20 -28 -26
-57 -80 -127 -98 -127 -5 0 -12 -14 -16 -31 -4 -17 -13 -33 -21 -36 -17 -6 -8
-23 13 -23 19 0 63 40 63 58 0 6 5 12 10 12 6 0 15 11 20 25 5 14 14 25 20 25
5 0 10 6 10 14 0 8 7 16 15 20 8 3 15 17 15 31 0 16 6 25 15 25 10 0 15 10 15
30 0 20 5 30 15 30 10 0 15 11 15 35 0 24 5 35 15 35 11 0 15 12 15 44 0 27 6
48 16 57 13 11 15 37 12 180 -2 117 -7 172 -15 181 -7 6 -13 34 -13 60 0 34
-5 50 -15 54 -9 4 -15 19 -15 40 0 24 -5 34 -15 34 -9 0 -15 9 -15 25 0 14 -7
28 -15 31 -8 4 -15 16 -15 29 0 13 -7 25 -15 29 -8 3 -15 12 -15 21 0 8 -7 15
-15 15 -8 0 -15 5 -15 12 0 12 -5 18 -77 91 -73 72 -79 77 -91 77 -7 0 -12 7
-12 15 0 8 -9 15 -19 15 -10 0 -21 7 -25 15 -3 8 -14 15 -25 15 -10 0 -21 7
-25 15 -3 8 -16 15 -29 15 -14 0 -30 7 -37 15 -7 8 -20 15 -30 15 -10 0 -23 7
-30 15 -8 10 -30 15 -65 15 -35 0 -57 5 -65 15 -10 12 -41 15 -162 15 -123 0
-150 -3 -154 -15z m196 -30 c-5 -7 2 -10 23 -10 31 0 32 -2 29 -35 -2 -19 -10
-49 -18 -65 -8 -17 -15 -62 -17 -100 l-2 -70 -44 -3 c-43 -3 -81 15 -53 25 16
6 16 97 0 123 -10 15 -10 22 -1 31 14 14 4 40 -30 77 l-20 22 39 0 c21 0 44 4
51 8 19 12 53 10 43 -3z m196 -30 c4 -9 19 -15 38 -15 40 0 55 -10 58 -40 3
-23 0 -24 -32 -21 -19 1 -39 9 -43 17 -4 8 -23 14 -42 14 -31 0 -35 -3 -35
-25 0 -19 5 -25 23 -25 32 0 77 -22 77 -39 0 -10 -3 -11 -14 -2 -8 7 -17 8
-20 3 -3 -5 -26 -7 -51 -4 -37 4 -45 2 -45 -12 0 -9 7 -16 15 -16 8 0 15 -7
15 -15 0 -11 12 -15 45 -15 49 0 55 -10 25 -40 -22 -22 -56 -27 -62 -8 -2 6
-26 14 -54 17 -48 6 -49 7 -46 36 2 17 10 37 18 46 8 9 14 36 14 63 0 29 4 45
10 41 6 -3 11 0 12 7 0 7 2 18 3 23 2 6 3 13 4 18 2 14 81 8 87 -8z m-323 -36
c4 -15 11 -20 21 -16 9 4 16 1 16 -6 0 -13 -18 -17 -87 -16 -32 0 -43 -4 -43
-16 0 -11 10 -15 39 -15 25 0 41 -5 45 -15 3 -8 12 -15 21 -15 21 0 20 -44 -2
-70 -10 -11 -23 -20 -31 -20 -7 0 -15 -7 -18 -15 -4 -8 -10 -15 -16 -15 -5 0
-6 4 -3 10 3 5 -12 12 -35 16 -30 5 -40 11 -40 25 0 11 -5 18 -11 17 -6 -2
-13 2 -16 8 -2 6 11 11 31 12 22 1 36 -4 40 -13 7 -19 56 -20 56 -1 0 19 -44
46 -75 46 -16 0 -25 6 -25 15 0 8 -4 15 -10 15 -5 0 -10 4 -10 10 0 16 42 60
57 60 8 0 11 5 8 10 -4 6 11 10 38 10 37 0 46 -4 50 -21z m-185 -36 c-2 -30
-7 -37 -26 -38 -17 -1 -26 6 -33 23 -14 36 -4 52 31 52 30 0 31 -2 28 -37z
m652 7 c0 -5 -4 -10 -10 -10 -5 0 -10 5 -10 10 0 6 5 10 10 10 6 0 10 -4 10
-10z m-770 -50 c0 -11 7 -20 15 -20 9 0 15 -9 15 -25 0 -14 7 -28 15 -31 8 -4
15 -11 15 -18 0 -6 9 -19 20 -29 11 -9 20 -24 20 -33 0 -9 -9 -18 -20 -21 -11
-3 -20 -9 -20 -14 0 -5 -7 -9 -15 -9 -8 0 -15 -7 -15 -15 0 -11 -12 -15 -45
-15 -33 0 -45 4 -45 15 0 8 -7 15 -15 15 -8 0 -15 7 -15 15 0 8 -6 15 -14 15
-7 0 -16 14 -19 30 -4 18 -13 30 -22 30 -8 0 -15 7 -15 15 0 8 9 15 20 15 13
0 20 7 20 20 0 25 18 26 27 3 4 -10 12 -22 20 -26 7 -4 13 -21 13 -37 0 -36
34 -64 61 -49 15 8 16 14 7 42 -6 17 -17 36 -25 40 -7 4 -13 15 -13 22 0 8 -7
15 -15 15 -8 0 -15 6 -15 14 0 8 7 16 15 20 8 3 15 12 15 21 0 8 7 15 15 15 8
0 15 -9 15 -20z m803 -6 c4 -8 12 -14 17 -14 12 0 50 -37 50 -49 0 -5 9 -11
19 -14 14 -3 18 -11 14 -26 -3 -11 -9 -18 -14 -15 -5 2 -11 -7 -15 -21 -3 -14
-12 -25 -20 -25 -8 0 -14 -8 -14 -18 0 -28 -34 -54 -66 -50 -40 4 -40 21 0 61
20 19 36 41 36 51 0 9 7 16 15 16 24 0 17 27 -8 32 -39 7 -67 -8 -67 -37 0
-16 -6 -25 -15 -25 -8 0 -15 -6 -15 -14 0 -20 -12 -26 -38 -19 -26 6 -31 48
-7 57 8 3 15 12 15 21 0 8 5 15 10 15 6 0 14 8 17 18 4 9 13 23 20 30 7 7 13
22 13 33 0 16 4 19 23 13 12 -3 26 -13 30 -20z m-93 12 c0 -3 -4 -8 -10 -11
-5 -3 -10 -1 -10 4 0 6 5 11 10 11 6 0 10 -2 10 -4z m-575 -36 c3 -5 1 -18 -5
-29 -11 -22 -3 -54 11 -45 5 3 8 0 7 -7 -2 -7 9 -19 25 -26 31 -16 36 -33 9
-33 -10 0 -24 -6 -31 -12 -7 -7 -12 -8 -11 -3 5 26 -1 46 -12 39 -7 -5 -9 -2
-5 9 3 9 -2 26 -11 39 -10 13 -26 35 -35 51 l-17 27 34 0 c19 0 38 -4 41 -10z
m815 -40 c36 -36 37 -40 5 -40 -18 0 -25 5 -25 19 0 11 -4 23 -10 26 -10 6
-14 25 -5 25 2 0 18 -13 35 -30z m-1127 -40 c3 -11 2 -22 -3 -25 -11 -7 -33
22 -25 35 10 16 22 12 28 -10z m-38 -30 c-8 -14 35 -60 56 -60 9 0 19 -7 23
-15 3 -8 15 -15 26 -15 11 0 20 -7 20 -15 0 -8 6 -15 13 -15 7 0 23 -9 34 -20
27 -24 20 -53 -21 -97 -36 -39 -73 -43 -85 -10 -12 29 5 48 35 41 21 -6 24 -3
24 25 0 20 -5 31 -15 31 -7 0 -19 8 -24 18 -9 14 -11 12 -17 -15 -3 -18 -13
-33 -20 -33 -8 0 -14 -7 -14 -15 0 -11 -11 -15 -39 -15 -25 0 -41 5 -45 15 -3
8 -12 15 -21 15 -24 0 -23 79 1 93 8 4 14 19 14 32 0 13 3 31 6 39 5 14 9 14
22 4 10 -8 13 -9 9 -1 -4 6 -1 14 5 16 19 8 20 8 13 -3z m1227 -30 c15 -16 37
-30 47 -30 20 0 38 -52 20 -58 -5 -2 -16 -10 -23 -18 -8 -8 -19 -14 -25 -14
-6 0 -11 -7 -11 -15 0 -8 -7 -15 -15 -15 -9 0 -18 -7 -21 -15 -4 -8 -11 -15
-18 -15 -6 0 -26 -13 -44 -30 -18 -16 -38 -30 -44 -30 -17 0 -67 59 -68 83 -5
58 -1 67 31 67 30 0 30 -1 28 -42 -4 -49 10 -58 44 -27 26 21 26 49 2 49 -17
0 -28 49 -19 84 3 14 13 26 20 26 8 0 17 7 20 15 10 24 45 17 76 -15z m-885
-22 c-3 -8 -6 -5 -6 6 -1 11 2 17 5 13 3 -3 4 -12 1 -19z m593 -22 c0 -17 -25
-15 -42 2 -9 9 -6 12 15 12 17 0 27 -5 27 -14z m-1050 -106 c9 -17 6 -24 -17
-44 -32 -28 -57 -18 -30 12 9 10 17 26 17 35 0 23 17 21 30 -3z m1500 -48 c0
-18 -43 -42 -74 -42 -18 0 -39 -7 -46 -15 -7 -8 -25 -15 -41 -15 -19 0 -29 -5
-29 -15 0 -10 -10 -15 -29 -15 -26 0 -29 3 -27 28 2 17 10 28 22 31 10 2 23 9
27 17 4 8 17 14 27 14 10 0 23 6 27 14 4 8 21 16 36 18 15 1 27 7 27 13 -3 22
36 21 58 -2 12 -13 22 -27 22 -31z m-704 33 c10 -8 31 -15 46 -15 35 0 45 -18
16 -29 -33 -13 -76 -62 -80 -91 -3 -23 -8 -25 -60 -28 -57 -3 -58 -3 -58 25 0
29 -53 93 -77 93 -7 0 -13 7 -13 15 0 10 10 15 28 15 15 0 36 7 46 15 12 9 42
15 76 15 34 0 64 -6 76 -15z m-706 -60 c0 -11 12 -15 45 -15 38 0 45 -3 47
-20 0 -11 1 -26 2 -32 1 -18 -87 -10 -97 8 -9 15 -54 19 -75 5 -25 -16 -9 -46
26 -49 17 -2 32 -7 32 -12 0 -5 21 -12 46 -16 34 -5 44 -10 40 -21 -3 -8 -6
-20 -6 -27 0 -17 -49 -18 -66 -1 -10 10 -35 15 -70 15 -35 0 -54 4 -54 12 0 6
-6 4 -12 -5 -11 -15 -13 -13 -12 14 0 18 8 35 17 41 11 6 17 22 17 48 0 29 4
40 15 40 8 0 15 7 15 15 0 11 12 15 45 15 33 0 45 -4 45 -15z m510 -62 c0 -7
7 -13 15 -13 10 0 15 -10 15 -30 0 -20 -5 -30 -15 -30 -8 0 -15 -4 -15 -10 0
-5 -9 -19 -20 -30 -24 -24 -70 -27 -70 -5 0 9 -7 18 -15 21 -29 12 -18 69 22
112 l37 40 23 -21 c12 -12 23 -28 23 -34z m360 -59 c0 -22 -6 -37 -15 -40 -8
-4 -15 -12 -15 -20 0 -21 -47 -17 -70 6 -11 11 -20 25 -20 30 0 6 -7 10 -15
10 -9 0 -15 9 -15 25 0 14 5 25 10 25 6 0 14 8 17 18 4 9 16 27 27 39 l21 21
37 -39 c29 -31 38 -48 38 -75z m570 40 l0 -34 -40 6 c-33 5 -40 4 -40 -10 0
-13 -10 -16 -50 -16 -38 0 -50 -4 -50 -15 0 -10 -11 -15 -35 -15 -32 0 -35 2
-35 30 0 30 7 34 43 30 10 -1 27 6 37 15 13 11 32 16 61 14 35 -3 43 0 50 18
6 16 14 19 33 16 22 -5 26 -11 26 -39z m-750 -69 c0 -8 4 -15 10 -15 5 0 28
-17 51 -39 l42 -39 -26 -26 c-14 -14 -33 -26 -42 -26 -9 0 -13 -4 -10 -10 4
-6 -25 -10 -78 -10 -66 0 -86 3 -91 15 -3 8 -11 15 -18 15 -7 0 -24 12 -37 26
l-24 25 21 6 c12 3 22 9 22 14 0 12 38 49 50 49 6 0 10 7 10 15 0 12 13 15 60
15 47 0 60 -3 60 -15z m-852 -44 c-12 -4 -28 17 -28 39 0 10 7 7 20 -10 11
-15 15 -26 8 -29z m1614 1 c6 -15 13 -36 14 -47 l4 -20 -12 20 c-7 11 -13 26
-14 34 -2 8 -10 18 -19 23 -8 5 -13 14 -10 19 9 14 25 1 37 -29z m-42 -87 l0
-65 -30 0 c-27 0 -30 3 -30 30 0 16 7 33 16 38 22 12 11 29 -18 27 -18 -1 -24
-8 -26 -32 -2 -21 -10 -33 -24 -36 -11 -3 -17 -10 -13 -16 3 -6 -1 -11 -9 -11
-9 0 -16 4 -16 9 0 5 -13 14 -30 21 -26 11 -30 17 -30 53 0 67 59 97 97 48 11
-14 13 -14 19 7 4 13 14 22 25 22 11 0 19 4 19 10 0 5 11 -2 25 -16 22 -21 25
-34 25 -89z m-980 55 c13 0 20 -7 20 -19 0 -11 5 -23 10 -26 20 -12 9 -22 -17
-17 -51 9 -83 42 -83 81 l1 36 24 -27 c13 -16 33 -28 45 -28z m443 -36 c-38
-32 -63 -31 -63 1 0 17 7 28 23 34 12 5 31 19 42 31 l20 22 3 -32 c3 -26 -2
-38 -25 -56z m-835 3 c-2 -18 -8 -32 -15 -31 -7 1 -43 2 -79 3 -57 1 -67 4
-71 22 -5 20 -6 19 -17 -3 -7 -14 -22 -24 -39 -26 -25 -3 -27 0 -27 31 0 18 2
36 4 38 2 2 59 3 126 1 l121 -3 -3 -32z m1423 -27 c5 0 9 -16 9 -35 0 -24 -5
-35 -14 -35 -11 0 -15 13 -13 53 0 28 3 44 5 35 2 -10 8 -18 13 -18z m-952
-41 c28 -17 50 -21 120 -20 47 1 96 3 109 6 12 2 20 0 17 -4 -2 -5 13 -27 35
-50 l39 -40 -42 21 c-23 12 -45 26 -48 31 -3 4 -61 10 -128 11 -67 2 -123 5
-124 7 -12 17 -25 59 -19 59 4 0 22 -9 41 -21z m-563 -1 c40 -34 54 -54 54
-80 0 -30 24 -39 34 -13 3 8 17 15 31 15 23 0 25 -4 25 -45 l0 -45 -85 0 c-67
0 -87 -3 -91 -15 -4 -10 -20 -15 -50 -15 l-44 0 0 90 c0 70 3 90 14 90 7 0 19
7 26 15 15 18 65 20 86 3z m131 1 c17 -17 3 -49 -22 -49 -18 0 -24 7 -27 30
-4 25 -1 30 17 30 11 0 26 -5 32 -11z m723 1 c-20 -13 -33 -13 -25 0 3 6 14
10 23 10 15 0 15 -2 2 -10z m436 -29 c-9 -14 20 -21 90 -21 36 0 64 -4 64 -10
0 -5 10 -10 23 -10 12 0 31 -7 41 -15 11 -8 14 -15 8 -15 -7 0 -12 -6 -12 -14
0 -7 -6 -19 -14 -26 -12 -9 -17 -7 -28 9 -15 25 -28 27 -28 6 0 -9 -7 -29 -15
-45 l-16 -30 -95 0 c-61 0 -93 4 -89 10 3 6 -1 13 -9 16 -20 8 -21 34 -1 34 8
0 15 7 15 15 0 19 19 19 34 1 10 -14 42 -19 94 -17 24 1 32 31 8 31 -8 0 -16
7 -20 15 -4 10 -20 15 -51 15 -25 0 -45 3 -45 8 1 28 15 52 32 52 10 0 17 -4
14 -9z m-309 -140 c71 -72 93 -98 93 -111 0 -5 7 -10 15 -10 10 0 15 -10 15
-30 0 -20 5 -30 15 -30 10 0 15 -10 15 -34 0 -18 6 -39 14 -45 8 -7 15 -40 18
-82 4 -45 11 -75 19 -80 12 -8 11 -12 -3 -23 -10 -7 -18 -18 -18 -23 0 -12
-48 -24 -54 -14 -2 3 -4 46 -5 96 -2 62 -7 95 -17 106 -8 8 -14 28 -14 43 0
15 -7 34 -15 42 -8 9 -15 26 -15 40 0 14 -7 27 -15 30 -8 4 -15 14 -15 24 0
10 -7 23 -15 30 -8 7 -15 19 -15 26 0 8 -7 14 -15 14 -8 0 -15 7 -15 15 0 8
-7 15 -15 15 -8 0 -15 7 -15 15 0 8 -7 15 -15 15 -8 0 -15 7 -15 15 0 29 29
14 87 -44z m-878 -111 c6 0 11 -17 11 -40 0 -34 -3 -40 -21 -40 -11 0 -18 -4
-14 -9 3 -5 0 -13 -6 -16 -6 -4 -13 2 -16 13 -2 11 -13 22 -22 25 -12 3 -17
12 -15 28 1 13 3 27 3 32 1 4 7 7 15 7 8 0 17 8 21 18 6 16 7 16 19 0 7 -10
18 -18 25 -18z m1241 -44 c0 -16 -7 -26 -21 -29 -12 -3 -18 -10 -14 -16 3 -6
-1 -11 -10 -11 -9 0 -13 5 -10 10 3 6 -3 10 -14 10 -12 0 -21 3 -22 8 0 4 -2
16 -5 27 -5 26 14 63 35 68 22 4 61 -39 61 -67z"/>
<path d="M330 1380 c0 -23 4 -30 20 -30 18 0 40 26 40 49 0 6 -13 11 -30 11
-27 0 -30 -3 -30 -30z"/>
<path d="M1529 1438 c-17 -52 1 -75 42 -53 21 12 22 14 7 20 -10 4 -18 13 -18
21 0 11 -28 21 -31 12z"/>
<path d="M773 1145 c-9 -21 -8 -27 6 -35 24 -12 39 4 33 36 -6 31 -24 31 -39
-1z"/>
<path d="M1108 1145 c-6 -28 11 -48 30 -36 16 10 5 61 -13 61 -7 0 -15 -11
-17 -25z"/>
<path d="M880 1010 c0 -5 5 -10 11 -10 5 0 7 5 4 10 -3 6 -8 10 -11 10 -2 0
-4 -4 -4 -10z"/>
<path d="M1015 1010 c-3 -5 1 -10 9 -10 9 0 16 5 16 10 0 6 -4 10 -9 10 -6 0
-13 -4 -16 -10z"/>
<path d="M1593 1018 c-14 -20 -10 -53 7 -53 10 0 16 12 18 33 3 33 -8 42 -25
20z"/>
<path d="M210 855 c0 -7 -8 -18 -17 -24 -17 -9 -17 -10 0 -16 9 -4 17 -14 17
-22 0 -11 7 -14 27 -8 38 9 53 32 39 61 -13 27 -66 35 -66 9z"/>
<path d="M755 1370 c-3 -5 1 -10 9 -10 9 0 16 5 16 10 0 6 -4 10 -9 10 -6 0
-13 -4 -16 -10z"/>
<path d="M1145 1370 c-3 -5 -1 -10 4 -10 6 0 11 5 11 10 0 6 -2 10 -4 10 -3 0
-8 -4 -11 -10z"/>
<path d="M704 1335 c-4 -8 -13 -15 -20 -15 -8 0 -17 -7 -20 -15 -4 -8 -12 -15
-20 -15 -8 0 -14 -6 -14 -14 0 -8 -7 -16 -15 -20 -8 -3 -15 -12 -15 -20 0 -7
-7 -16 -15 -20 -8 -3 -15 -14 -15 -25 0 -10 -7 -21 -15 -25 -9 -3 -15 -18 -15
-35 0 -16 -6 -31 -12 -33 -20 -7 -25 -268 -6 -283 8 -5 17 -18 21 -28 8 -22
27 -13 27 14 0 10 6 19 13 19 8 0 9 3 1 8 -40 26 -62 173 -29 186 11 4 15 21
15 61 0 37 5 62 15 71 8 9 15 24 15 35 0 10 4 19 9 19 5 0 12 8 16 19 7 22 91
111 105 111 6 0 10 5 10 10 0 16 -30 12 -36 -5z"/>
<path d="M1180 1336 c0 -9 30 -14 35 -6 4 6 -3 10 -14 10 -12 0 -21 -2 -21 -4z"/>
<path d="M1225 1311 c-3 -6 1 -13 9 -18 25 -14 86 -101 86 -122 0 -11 6 -24
14 -28 8 -5 16 -28 18 -55 2 -25 10 -53 17 -61 19 -24 12 -156 -9 -177 -12
-12 -16 -27 -13 -44 6 -31 33 -35 33 -5 0 11 7 27 15 35 12 12 15 41 15 125 0
88 -3 111 -15 115 -9 4 -15 19 -15 40 0 22 -6 37 -15 40 -8 4 -15 14 -15 24 0
10 -7 23 -15 30 -8 7 -15 19 -15 27 0 7 -7 16 -15 19 -8 4 -15 12 -15 20 0 8
-6 14 -14 14 -8 0 -16 7 -20 15 -6 17 -22 20 -31 6z"/>
<path d="M27 1218 c-4 -12 -3 -41 0 -65 5 -35 3 -43 -8 -41 -11 2 -15 -26 -17
-154 -2 -140 -1 -158 14 -158 13 0 15 -8 10 -47 -7 -50 4 -81 23 -69 17 11 14
112 -4 130 -12 11 -15 43 -15 151 0 77 4 134 9 131 11 -7 21 28 21 76 0 62
-21 92 -33 46z"/>
<path d="M605 940 c3 -5 8 -10 11 -10 2 0 4 5 4 10 0 6 -5 10 -11 10 -5 0 -7
-4 -4 -10z"/>
<path d="M633 901 c4 -28 13 -34 30 -24 12 7 11 11 -9 26 -23 17 -24 17 -21
-2z"/>
<path d="M1255 890 c-3 -5 3 -10 14 -10 12 0 21 5 21 10 0 6 -6 10 -14 10 -8
0 -18 -4 -21 -10z"/>
<path d="M605 860 c-3 -5 1 -10 10 -10 9 0 13 5 10 10 -3 6 -8 10 -10 10 -2 0
-7 -4 -10 -10z"/>
<path d="M1300 860 c0 -5 5 -10 11 -10 5 0 7 5 4 10 -3 6 -8 10 -11 10 -2 0
-4 -4 -4 -10z"/>
<path d="M1110 700 c0 -5 5 -10 10 -10 6 0 10 5 10 10 0 6 -4 10 -10 10 -5 0
-10 -4 -10 -10z"/>
<path d="M2 648 c-1 -33 2 -58 8 -58 6 0 10 -20 10 -45 0 -33 4 -45 15 -45 9
0 15 -9 15 -25 0 -14 7 -28 15 -31 8 -4 15 -12 15 -20 0 -8 7 -14 15 -14 10 0
15 -10 15 -30 0 -20 5 -30 15 -30 8 0 15 -7 15 -15 0 -8 7 -15 15 -15 8 0 15
-7 15 -15 0 -8 7 -15 15 -15 8 0 15 -7 15 -15 0 -8 7 -15 15 -15 8 0 15 -7 15
-15 0 -8 7 -15 15 -15 8 0 15 -7 15 -15 0 -8 7 -15 15 -15 8 0 15 -7 15 -15 0
-8 7 -15 15 -15 8 0 15 -7 15 -15 0 -8 7 -15 15 -15 8 0 15 -7 15 -15 0 -10
10 -15 30 -15 20 0 30 -5 30 -15 0 -8 7 -15 15 -15 8 0 15 -7 15 -15 0 -10 10
-15 30 -15 20 0 30 -5 30 -15 0 -11 12 -15 45 -15 25 0 45 -4 45 -10 0 -6 25
-9 58 -8 56 2 56 2 10 5 -34 3 -48 8 -48 19 0 10 -12 14 -45 14 -33 0 -45 4
-45 15 0 10 -10 15 -30 15 -20 0 -30 5 -30 15 0 8 -7 15 -15 15 -8 0 -15 7
-15 15 0 10 -10 15 -30 15 -20 0 -30 5 -30 15 0 8 -7 15 -15 15 -8 0 -15 7
-15 15 0 8 -7 15 -15 15 -8 0 -15 7 -15 15 0 8 -7 15 -15 15 -8 0 -15 7 -15
15 0 8 -7 15 -15 15 -8 0 -15 7 -15 15 0 8 -7 15 -15 15 -8 0 -15 7 -15 15 0
8 -7 15 -15 15 -8 0 -15 7 -15 15 0 8 -7 15 -15 15 -8 0 -15 7 -15 15 0 8 -7
15 -15 15 -10 0 -15 10 -15 30 0 20 -5 30 -15 30 -8 0 -15 6 -15 14 0 8 -7 16
-15 20 -8 3 -15 17 -15 31 0 16 -6 25 -15 25 -11 0 -15 12 -15 45 0 33 -4 45
-14 45 -11 0 -16 14 -19 48 -3 46 -3 46 -5 -10z"/>
<path d="M1912 658 c-2 -35 -6 -48 -17 -48 -10 0 -15 -10 -15 -30 0 -20 -5
-30 -15 -30 -10 0 -15 -10 -15 -30 0 -20 -5 -30 -15 -30 -10 0 -15 -10 -15
-30 0 -20 -5 -30 -15 -30 -9 0 -15 -9 -15 -25 0 -14 -7 -28 -15 -31 -8 -4 -15
-12 -15 -20 0 -8 -7 -14 -15 -14 -8 0 -15 -7 -15 -15 0 -8 -7 -15 -15 -15 -8
0 -15 -7 -15 -15 0 -8 -7 -15 -15 -15 -8 0 -15 -7 -15 -15 0 -8 -7 -15 -15
-15 -8 0 -15 -7 -15 -15 0 -8 -7 -15 -15 -15 -8 0 -15 -7 -15 -15 0 -8 -7 -15
-15 -15 -8 0 -15 -7 -15 -15 0 -8 -7 -15 -15 -15 -8 0 -15 -7 -15 -15 0 -10
-10 -15 -30 -15 -20 0 -30 -5 -30 -15 0 -10 -10 -15 -30 -15 -20 0 -30 -5 -30
-15 0 -10 -10 -15 -30 -15 -20 0 -30 -5 -30 -15 0 -10 -10 -15 -30 -15 -19 0
-30 -5 -30 -14 0 -11 -14 -16 -47 -19 -47 -3 -47 -3 10 -5 32 -1 57 2 57 8 0
6 14 10 30 10 20 0 30 5 30 15 0 10 10 15 30 15 20 0 30 5 30 15 0 10 10 15
30 15 20 0 30 5 30 15 0 10 10 15 30 15 20 0 30 5 30 15 0 8 7 15 15 15 8 0
15 7 15 15 0 8 7 15 15 15 8 0 15 7 15 15 0 8 7 15 15 15 8 0 15 7 15 15 0 8
7 15 15 15 8 0 15 7 15 15 0 8 7 15 15 15 8 0 15 7 15 15 0 8 7 15 15 15 8 0
15 7 15 15 0 8 7 15 15 15 8 0 15 6 15 14 0 8 7 16 15 20 8 3 15 17 15 31 0
16 6 25 15 25 10 0 15 10 15 30 0 20 5 30 15 30 10 0 15 10 15 30 0 20 5 30
15 30 10 0 15 10 15 29 0 16 5 31 11 33 6 2 9 25 6 58 l-3 55 -2 -47z"/>
<path d="M62 678 c-17 -17 -15 -49 4 -76 8 -12 14 -32 12 -45 -2 -16 2 -22 17
-22 16 0 20 7 20 35 0 23 -4 34 -12 33 -9 -2 -13 11 -13 42 0 46 -7 54 -28 33z"/>
<path d="M1140 670 c0 -5 5 -10 10 -10 6 0 10 5 10 10 0 6 -4 10 -10 10 -5 0
-10 -4 -10 -10z"/>
<path d="M1182 620 c0 -14 2 -19 5 -12 2 6 2 18 0 25 -3 6 -5 1 -5 -13z"/>
<path d="M1211 574 c0 -11 3 -14 6 -6 3 7 2 16 -1 19 -3 4 -6 -2 -5 -13z"/>
<path d="M1777 543 c-4 -3 -7 -16 -7 -29 0 -12 -7 -24 -15 -28 -8 -3 -15 -15
-15 -26 0 -11 -5 -19 -12 -18 -6 2 -14 -6 -16 -17 -2 -11 -10 -24 -18 -28 -8
-4 -14 -15 -14 -22 0 -8 -7 -15 -15 -15 -8 0 -15 -4 -15 -10 0 -13 -37 -50
-50 -50 -5 0 -10 -7 -10 -15 0 -8 -7 -15 -15 -15 -8 0 -15 -7 -15 -15 0 -8 -7
-15 -15 -15 -9 0 -18 -7 -21 -15 -4 -8 -13 -15 -20 -15 -8 0 -17 -7 -20 -15
-4 -8 -15 -15 -25 -15 -10 0 -19 -6 -19 -14 0 -7 -13 -16 -30 -19 -16 -4 -30
-11 -30 -16 0 -16 50 -19 66 -4 8 8 30 19 50 24 19 6 38 17 41 25 9 24 193
204 208 204 8 0 17 15 21 35 3 20 13 42 21 50 20 21 25 61 10 74 -8 6 -17 8
-20 4z"/>
<path d="M113 513 c-18 -37 -16 -43 10 -43 17 0 23 -6 25 -27 1 -16 7 -29 12
-31 6 -2 10 -10 10 -18 0 -8 6 -14 13 -14 6 -1 21 -12 32 -27 11 -14 28 -33
38 -41 9 -9 17 -22 17 -29 0 -7 6 -13 13 -13 7 0 20 -8 29 -17 8 -10 27 -27
41 -38 15 -11 26 -26 27 -32 0 -7 7 -13 15 -13 8 0 15 -4 15 -9 0 -5 14 -11
30 -14 17 -4 30 -13 30 -21 0 -22 17 -28 40 -16 17 9 20 8 20 -9 0 -27 9 -31
49 -17 51 16 52 36 2 36 -27 0 -40 4 -39 12 2 7 -11 15 -30 18 -18 3 -31 9
-30 15 2 5 -6 11 -16 13 -11 2 -26 10 -34 18 -7 8 -20 14 -28 14 -8 0 -14 7
-14 15 0 8 -7 15 -15 15 -8 0 -15 7 -15 15 0 8 -4 15 -10 15 -5 0 -25 16 -45
35 -19 20 -35 40 -35 45 0 6 -7 10 -15 10 -8 0 -15 7 -15 15 0 8 -7 15 -15 15
-8 0 -15 9 -15 20 0 11 -7 23 -15 26 -8 4 -15 15 -15 25 0 10 -6 19 -14 19 -8
0 -16 12 -18 27 -4 36 -20 39 -35 6z"/>
<path d="M712 533 c-6 -2 -10 -9 -6 -14 3 -5 -15 -9 -40 -9 -37 0 -48 -4 -62
-25 -8 -13 -13 -29 -9 -35 3 -5 1 -10 -6 -10 -8 0 -7 -4 3 -12 9 -7 18 -22 20
-32 1 -11 10 -21 18 -23 11 -3 11 -2 3 4 -17 12 -10 61 13 84 19 18 51 25 86
17 33 -7 30 -17 -6 -23 -21 -4 -36 -13 -36 -21 0 -8 -7 -17 -15 -20 -20 -8
-19 -24 1 -24 8 0 12 -4 9 -10 -3 -5 3 -10 13 -10 11 0 27 -11 36 -25 9 -14
23 -25 30 -25 8 0 17 -12 20 -26 5 -17 12 -24 21 -20 10 3 15 -1 15 -13 0 -22
33 -34 49 -18 17 17 13 27 -10 27 -24 0 -49 22 -49 44 0 9 -4 16 -10 16 -5 0
-10 9 -10 20 0 11 4 20 9 20 6 0 11 15 13 33 2 24 -2 35 -17 42 -28 15 -25 40
5 41 49 1 55 3 43 15 -6 6 -30 10 -52 7 -23 -2 -41 0 -41 4 0 5 6 8 13 9 6 0
3 4 -8 9 -23 10 -26 10 -43 3z m71 -140 c-4 -9 -13 -13 -27 -9 -11 3 -24 6
-28 6 -19 0 -6 29 15 32 28 5 48 -9 40 -29z"/>
<path d="M872 503 c-19 -7 -4 -23 24 -23 15 0 24 6 24 15 0 15 -22 19 -48 8z"/>
<path d="M1230 498 c0 -7 5 -20 10 -28 8 -12 10 -9 10 13 0 15 -4 27 -10 27
-5 0 -10 -6 -10 -12z"/>
<path d="M1541 474 c0 -11 3 -14 6 -6 3 7 2 16 -1 19 -3 4 -6 -2 -5 -13z"/>
<path d="M840 455 c-10 -12 -10 -18 0 -29 7 -10 8 -21 2 -31 -12 -23 -3 -65
14 -65 8 0 14 6 14 14 0 7 9 16 21 19 12 3 18 10 14 16 -3 6 -2 11 4 11 5 0
13 -9 16 -20 3 -11 11 -20 17 -20 5 0 12 9 15 20 6 24 31 26 40 4 5 -13 7 -13
14 -2 12 18 11 78 -1 78 -5 0 -10 -4 -10 -8 0 -15 -58 -29 -96 -23 -29 5 -38
11 -36 23 4 23 -13 31 -28 13z"/>
<path d="M1060 406 c0 -18 27 -21 50 -6 13 8 13 10 -2 10 -9 0 -23 3 -32 6
-11 4 -16 1 -16 -10z"/>
<path d="M655 370 c-3 -5 -1 -10 4 -10 6 0 11 5 11 10 0 6 -2 10 -4 10 -3 0
-8 -4 -11 -10z"/>
<path d="M1025 351 c-3 -2 -5 -17 -5 -33 0 -33 -25 -39 -35 -7 -4 11 -9 18
-12 15 -4 -3 -13 0 -21 7 -11 8 -9 2 4 -18 10 -16 25 -35 32 -40 13 -11 7 -45
-8 -45 -5 0 -15 7 -24 15 -16 17 -50 24 -53 13 -9 -25 0 -39 27 -45 17 -3 30
-12 30 -19 0 -21 258 -20 266 1 4 8 12 15 20 15 15 0 20 55 6 63 -4 3 -23 -10
-42 -29 -33 -33 -36 -34 -117 -34 -68 0 -83 3 -83 15 0 9 6 18 14 21 12 5 31
57 27 77 -1 7 18 11 47 10 6 -1 12 6 12 14 0 10 -11 13 -40 11 -22 -1 -43 -4
-45 -7z"/>
<path d="M1126 329 c-9 -18 -16 -38 -16 -45 0 -7 -8 -18 -17 -23 -18 -10 -14
-12 35 -11 4 0 7 9 7 20 1 23 3 26 38 34 23 5 29 2 37 -16 8 -22 9 -22 9 5 1
18 -4 27 -14 27 -10 0 -15 7 -13 18 2 12 -5 18 -23 20 -22 3 -30 -3 -43 -29z"/>
<path d="M1525 320 c-3 -5 1 -10 10 -10 9 0 13 5 10 10 -3 6 -8 10 -10 10 -2
0 -7 -4 -10 -10z"/>
<path d="M1284 169 c-9 -16 2 -22 21 -11 15 8 16 10 1 15 -8 3 -18 2 -22 -4z"/>
<path d="M1300 105 c0 -11 -11 -15 -41 -15 -33 0 -40 -3 -37 -17 6 -30 98 -29
98 1 0 8 12 13 31 14 35 1 44 6 34 21 -10 18 -85 14 -85 -4z"/>
<path d="M604 79 c-8 -13 13 -29 39 -29 26 0 59 19 52 31 -8 13 -82 11 -91 -2z"/>
<path d="M690 50 c-25 -16 -1 -25 60 -23 43 2 60 -1 64 -12 4 -12 32 -15 151
-15 127 0 145 2 145 16 0 14 8 16 48 10 53 -7 88 7 62 24 -20 15 -152 8 -158
-8 -2 -8 -37 -12 -113 -12 -62 0 -108 4 -105 9 3 5 -1 12 -10 15 -24 9 -127 7
-144 -4z"/>
</g>
</svg>
