<?xml version="1.0" standalone="no"?>
<!DOCTYPE svg PUBLIC "-//W3C//DTD SVG 20010904//EN"
 "http://www.w3.org/TR/2001/REC-SVG-20010904/DTD/svg10.dtd">
<svg version="1.0" xmlns="http://www.w3.org/2000/svg"
 width="250.000000pt" height="250.000000pt" viewBox="0 0 250.000000 250.000000"
 preserveAspectRatio="xMidYMid meet">
<metadata>
Created by potrace 1.16, written by Peter Selinger 2001-2019
</metadata>
<g transform="translate(0.000000,250.000000) scale(0.100000,-0.100000)"
fill="#000000" stroke="none">
<path d="M794 2485 c-4 -8 -16 -15 -28 -15 -37 0 -66 -12 -66 -26 0 -8 -10
-14 -24 -14 -35 0 -56 -10 -56 -26 0 -9 -11 -14 -29 -14 -17 0 -35 -8 -43 -18
-7 -10 -21 -21 -30 -25 -10 -3 -18 -13 -18 -22 0 -10 -10 -15 -30 -15 -19 0
-34 -7 -42 -20 -7 -11 -18 -20 -25 -20 -7 0 -13 -7 -13 -16 0 -9 -9 -18 -20
-21 -11 -3 -20 -10 -20 -15 0 -12 -96 -108 -109 -108 -5 0 -13 -9 -16 -20 -3
-11 -11 -20 -16 -20 -5 0 -14 -11 -19 -25 -5 -14 -14 -25 -19 -25 -5 0 -12
-11 -15 -25 -3 -13 -15 -29 -26 -35 -14 -8 -20 -21 -20 -45 0 -24 -5 -35 -14
-35 -8 0 -20 -17 -27 -37 -6 -21 -18 -44 -26 -51 -7 -7 -13 -27 -13 -43 0 -19
-5 -29 -15 -29 -12 0 -15 -14 -14 -72 1 -76 4 -75 14 5 4 31 11 47 21 47 8 0
14 10 14 24 0 35 10 56 27 56 7 0 13 6 11 13 -5 24 13 67 27 67 10 0 15 11 15
35 0 24 6 37 20 45 11 6 23 22 26 35 3 14 10 25 15 25 5 0 14 11 19 25 5 14
16 25 25 25 8 0 14 3 14 8 -3 18 2 32 11 32 13 0 110 96 110 108 0 5 9 12 20
15 11 3 20 12 20 21 0 10 9 16 22 16 12 0 18 3 15 7 -13 12 15 33 44 33 19 0
29 5 29 15 0 9 8 19 18 22 9 4 23 15 30 25 8 10 26 18 43 18 18 0 29 5 29 14
0 16 21 26 56 26 14 0 24 6 24 14 0 14 29 26 64 26 10 0 24 7 30 15 6 8 36 19
66 24 l55 9 -68 1 c-52 1 -69 -3 -73 -14z"/>
<path d="M1067 2479 c-16 -18 -27 -19 -106 -14 -57 4 -91 2 -96 -4 -4 -7 5 -9
25 -5 19 4 30 2 30 -5 0 -6 -3 -10 -7 -10 -24 4 -36 -2 -27 -11 7 -7 19 -7 35
-2 14 6 34 6 49 0 13 -5 49 -6 80 -2 30 4 65 7 77 6 13 -1 27 6 33 17 8 17 18
19 64 14 33 -3 56 -1 60 5 4 7 15 8 29 3 27 -10 50 -3 41 11 -4 7 -2 8 5 4 6
-4 9 -12 6 -17 -4 -5 -2 -9 3 -9 11 0 25 30 17 38 -3 3 -5 0 -5 -8 0 -9 -4 -9
-12 -2 -19 15 -246 12 -258 -3 -8 -9 -6 -14 5 -19 8 -3 15 -1 15 4 0 5 7 7 15
3 9 -3 13 -8 10 -12 -10 -9 -94 -8 -89 1 3 5 10 6 15 3 5 -4 9 3 9 14 0 25 0
25 -23 0z"/>
<path d="M1411 2484 c0 -11 3 -14 6 -6 3 7 2 16 -1 19 -3 4 -6 -2 -5 -13z"/>
<path d="M1494 2491 c10 -15 -22 -33 -45 -26 -12 4 -19 3 -16 -1 3 -5 -15 -9
-39 -9 -24 0 -44 -5 -44 -10 0 -6 7 -10 14 -10 8 0 17 -3 20 -6 3 -3 48 -5
100 -3 51 1 99 -2 107 -7 11 -6 8 -9 -8 -9 -13 0 -23 -4 -23 -9 0 -11 59 -20
65 -10 3 4 14 5 25 2 12 -3 28 2 38 10 11 10 27 14 42 11 20 -5 22 -4 10 5 -8
7 -37 11 -65 10 -27 -1 -61 2 -75 8 -14 6 -28 9 -32 6 -4 -2 -5 3 -2 11 5 13
-1 16 -30 16 -27 0 -34 3 -30 15 4 8 1 15 -6 15 -6 0 -9 -4 -6 -9z"/>
<path d="M1570 2493 c81 -12 90 -15 90 -28 0 -11 11 -15 38 -15 50 0 82 -10
82 -25 0 -7 18 -15 40 -19 26 -4 40 -11 40 -21 0 -9 10 -15 25 -15 14 0 33 -8
43 -18 10 -10 26 -21 35 -25 9 -3 17 -13 17 -22 0 -8 9 -15 19 -15 30 0 51
-11 51 -26 0 -8 9 -14 20 -14 13 0 20 -7 20 -20 0 -13 7 -20 19 -20 10 0 21
-9 24 -20 3 -11 12 -20 20 -20 8 0 17 -9 20 -20 3 -11 12 -20 21 -20 9 0 16
-8 16 -20 0 -13 7 -20 20 -20 13 0 20 -7 20 -20 0 -11 6 -20 14 -20 15 0 26
-21 26 -51 0 -10 7 -19 15 -19 9 0 19 -8 22 -17 4 -10 15 -24 25 -31 10 -8 18
-26 18 -43 0 -18 5 -29 14 -29 16 0 26 -21 26 -56 0 -14 6 -24 14 -24 16 0 26
-21 26 -57 0 -14 7 -31 15 -37 9 -7 19 -38 24 -76 l8 -65 2 78 c1 61 -2 79
-14 83 -8 4 -15 18 -15 34 0 39 -9 60 -26 60 -8 0 -14 10 -14 24 0 35 -10 56
-26 56 -9 0 -14 11 -14 29 0 17 -8 35 -18 43 -10 7 -21 21 -25 31 -3 9 -13 17
-22 17 -8 0 -15 9 -15 19 0 30 -11 51 -26 51 -8 0 -14 9 -14 20 0 13 -7 20
-20 20 -13 0 -20 7 -20 19 0 10 -9 21 -20 24 -11 3 -20 12 -20 21 0 9 -7 16
-16 16 -9 0 -18 9 -21 20 -3 11 -14 20 -24 20 -12 0 -19 7 -19 20 0 13 -7 20
-20 20 -11 0 -20 6 -20 14 0 15 -21 26 -51 26 -10 0 -19 7 -19 15 0 9 -8 19
-17 22 -9 4 -25 15 -35 25 -10 10 -29 18 -43 18 -15 0 -25 6 -25 15 0 10 -14
17 -40 21 -22 4 -40 12 -40 19 0 15 -32 25 -82 25 -27 0 -38 4 -38 15 0 12
-14 15 -67 14 -38 -1 -57 -3 -43 -6z"/>
<path d="M1580 2463 c0 -5 15 -9 33 -10 23 -2 28 0 17 7 -18 12 -50 13 -50 3z"/>
<path d="M849 2436 c-2 -3 -24 -7 -48 -10 -23 -2 -46 -8 -49 -12 -4 -4 0 -5 9
-1 9 3 26 -1 38 -9 27 -20 59 -26 94 -18 35 7 35 20 0 29 -15 3 -30 11 -34 16
-3 5 -7 7 -10 5z"/>
<path d="M722 2392 c-16 -2 -22 -8 -18 -19 3 -8 6 -17 6 -19 0 -2 25 -4 55 -4
30 0 55 2 55 5 0 3 -10 16 -21 28 -12 12 -19 16 -15 10 8 -14 -14 -18 -29 -5
-6 4 -20 6 -33 4z"/>
<path d="M1694 2386 c-27 -21 -7 -37 50 -41 26 -1 45 0 42 3 -4 3 1 13 9 22
13 14 11 16 -14 18 -16 1 -42 -3 -57 -8 -24 -9 -25 -9 -14 5 16 19 10 19 -16
1z"/>
<path d="M670 2380 c-9 -6 -10 -10 -3 -10 6 0 15 5 18 10 8 12 4 12 -15 0z"/>
<path d="M1045 2371 c-3 -6 2 -14 12 -19 11 -7 -10 -10 -71 -11 -49 -1 -92 -4
-97 -7 -14 -8 0 -24 21 -24 10 0 22 -5 25 -10 4 -7 -2 -9 -17 -5 -42 11 -83
11 -111 2 -24 -8 -26 -11 -15 -25 11 -14 10 -15 -6 -9 -10 4 -34 5 -53 1 -25
-5 -32 -10 -28 -23 4 -13 -2 -17 -27 -19 -30 -2 -66 -21 -42 -22 5 -1 -6 -7
-25 -15 -30 -13 -32 -17 -20 -32 13 -15 11 -16 -10 -10 -26 6 -75 -19 -65 -34
3 -5 -4 -9 -15 -9 -12 0 -21 -7 -21 -15 0 -8 -4 -15 -9 -15 -11 0 -71 -58 -71
-69 0 -5 -11 -16 -25 -25 -15 -10 -25 -26 -25 -41 0 -18 -4 -23 -15 -19 -14 6
-20 -10 -16 -43 1 -7 -7 -9 -19 -6 -20 5 -23 -1 -23 -49 0 -11 -7 -18 -18 -18
-19 0 -24 -16 -19 -70 1 -20 -1 -23 -11 -12 -23 22 -29 13 -29 -50 -1 -54 -2
-61 -14 -46 -20 27 -26 11 -26 -76 0 -55 -3 -76 -10 -66 -24 39 -31 -11 -30
-231 1 -123 1 -232 1 -241 0 -22 3 -22 24 -1 16 15 17 15 15 -3 -1 -10 -2 -47
-1 -81 1 -56 3 -63 21 -63 17 0 20 -7 20 -46 0 -41 2 -45 21 -39 14 5 20 3 18
-7 -1 -7 -1 -28 0 -46 1 -25 5 -32 18 -30 10 2 18 -4 19 -12 0 -8 2 -22 2 -31
1 -9 11 -19 23 -22 12 -3 18 -10 15 -15 -8 -14 4 -42 18 -42 6 0 17 -13 23
-30 6 -16 18 -30 27 -30 10 0 13 -6 9 -16 -4 -10 1 -17 16 -21 11 -3 21 -12
21 -20 0 -8 9 -17 20 -20 11 -3 20 -12 20 -20 0 -10 8 -13 25 -11 20 2 28 -2
24 -14 -7 -24 -5 -36 6 -32 7 3 24 -5 37 -18 66 -61 85 -76 95 -70 6 4 10 30
10 59 -1 28 -5 49 -9 46 -5 -2 -8 0 -8 6 0 5 4 12 8 15 5 3 8 40 6 83 -2 43 0
72 4 66 12 -19 35 2 37 31 0 14 -3 26 -8 26 -5 0 -5 6 1 13 6 7 9 23 5 36 -4
17 -1 23 16 28 13 3 20 11 17 18 -2 7 -2 16 2 19 10 11 8 60 -3 68 -5 4 0 6
12 6 11 -1 19 -7 16 -14 -2 -7 0 -15 6 -19 7 -4 8 0 4 11 -4 10 -2 15 3 11 5
-3 9 11 7 34 -2 38 10 59 22 39 3 -5 11 -10 16 -10 6 0 7 6 3 12 -15 24 -11
48 8 48 12 0 18 7 18 24 0 19 4 22 25 18 27 -5 32 7 13 27 -11 10 -9 11 6 5
15 -6 17 -4 11 6 -6 10 -4 12 8 7 18 -7 33 8 17 18 -20 12 -9 20 30 20 22 1
45 6 51 12 7 7 3 9 -15 6 -14 -3 -26 -1 -26 4 0 6 25 10 55 9 31 -1 55 3 56 9
0 5 4 1 9 -10 7 -17 9 -16 9 10 l1 30 110 0 c70 0 106 -3 100 -9 -16 -16 -12
-26 7 -19 9 4 14 2 10 -3 -4 -6 6 -9 24 -6 18 3 39 -3 57 -14 41 -29 56 -33
71 -20 12 9 12 8 3 -11 -16 -29 -16 -30 12 -37 13 -3 26 -15 29 -27 3 -12 10
-18 15 -15 13 8 35 -21 27 -35 -5 -8 -1 -9 15 -4 18 6 22 4 17 -8 -3 -8 0 -20
6 -27 9 -10 9 -11 0 -6 -7 4 -9 0 -6 -12 5 -21 33 -25 46 -8 5 6 6 1 3 -13 -3
-14 4 -43 15 -68 11 -24 21 -57 22 -73 2 -30 11 -38 22 -20 4 6 11 8 16 5 15
-10 -20 -38 -39 -30 -14 5 -15 4 -4 -7 9 -9 17 -10 31 -1 14 9 18 8 18 -3 0
-8 -3 -14 -7 -14 -3 0 -6 -9 -6 -20 0 -11 3 -20 6 -20 3 0 6 -11 6 -25 0 -14
-4 -25 -8 -25 -5 0 -3 -10 3 -22 9 -17 9 -23 0 -26 -9 -3 -9 -7 0 -18 9 -11 9
-17 -1 -29 -6 -8 -9 -23 -5 -35 6 -18 8 -18 21 -5 20 20 27 19 21 -4 -2 -10 0
-25 4 -34 11 -19 -11 -92 -29 -92 -26 0 -11 -18 18 -22 36 -3 71 12 67 30 -1
7 10 12 30 12 27 0 30 2 21 18 -5 10 -7 21 -4 25 3 3 6 0 6 -8 0 -10 3 -10 15
0 8 7 15 9 15 4 0 -4 18 9 39 30 30 29 37 43 31 55 -14 24 -29 111 -19 105 13
-8 11 10 -3 24 -7 7 -8 12 -2 12 5 0 10 9 10 20 0 29 -28 21 -33 -9 -5 -37
-12 -38 -11 -2 1 17 6 31 12 31 6 0 4 5 -4 10 -13 9 -13 10 0 10 13 0 13 1 0
10 -13 9 -13 10 0 10 13 0 13 1 0 10 -13 9 -13 10 0 10 9 0 11 3 5 8 -6 4 -11
16 -10 27 0 11 -11 29 -23 39 -18 14 -23 26 -19 45 3 15 1 33 -4 41 -7 12 -10
10 -16 -9 -6 -23 -7 -24 -14 -5 -4 10 -8 32 -8 47 -1 25 -4 27 -23 22 -23 -7
-23 -7 -3 8 11 8 23 13 27 11 5 -3 8 0 8 5 0 6 -9 11 -19 11 -28 0 -66 35 -66
62 0 16 -6 23 -20 23 -15 0 -19 6 -17 21 2 18 -1 21 -22 17 -21 -4 -24 -2 -19
16 4 15 1 21 -12 21 -10 0 -28 11 -40 25 -17 17 -30 23 -49 19 -15 -2 -35 0
-44 6 -14 9 -14 10 6 5 16 -5 22 -2 22 9 0 12 -10 16 -39 16 -22 0 -43 5 -46
10 -7 12 -25 4 -25 -11 0 -6 4 -7 10 -4 6 3 7 -1 4 -9 -6 -14 5 -21 29 -17 4
0 7 -4 7 -10 0 -5 5 -7 10 -4 6 4 9 1 8 -7 -2 -8 8 -14 25 -16 15 -2 27 -7 27
-12 0 -5 16 -18 35 -30 19 -12 35 -28 35 -36 0 -8 3 -13 8 -12 13 4 70 -56 81
-85 6 -16 15 -25 21 -22 8 5 14 -14 12 -36 -1 -4 8 -5 18 -2 17 4 20 0 20 -25
0 -18 8 -39 19 -49 11 -10 20 -34 22 -53 4 -47 8 -53 25 -39 8 6 17 9 21 5 3
-3 1 -6 -6 -6 -8 0 -10 -11 -6 -32 2 -18 7 -60 9 -92 3 -32 9 -62 14 -65 5 -3
12 -23 15 -44 4 -28 2 -37 -8 -37 -8 0 -19 -9 -25 -20 -6 -11 -17 -20 -24 -20
-7 0 -21 -9 -31 -20 -25 -27 -34 -17 -24 27 14 63 0 224 -22 255 -10 15 -19
40 -19 56 0 37 -21 57 -40 39 -10 -10 -11 -9 -5 3 17 29 4 81 -35 138 -22 31
-40 61 -40 65 0 12 -57 67 -69 67 -6 0 -11 9 -11 20 0 13 -7 20 -20 20 -11 0
-20 7 -20 15 0 8 -3 14 -7 14 -20 -3 -34 2 -28 11 3 5 -11 18 -32 27 -21 9
-45 23 -54 31 -9 7 -29 15 -45 18 -15 3 -31 7 -36 10 -4 3 -8 0 -8 -5 0 -7
-40 -11 -114 -11 -117 0 -146 4 -146 22 0 6 6 8 13 5 8 -3 14 1 14 8 0 7 -5
11 -11 9 -6 -2 -16 8 -23 22 -16 34 0 68 27 59 15 -5 18 -1 17 15 -1 14 -8 20
-24 20 -23 0 -29 15 -15 36 4 6 17 10 29 9 15 -1 20 3 18 15 -2 10 11 26 34
41 21 14 36 32 36 44 0 17 7 19 83 20 l84 0 -4 -26 c-3 -16 1 -26 9 -26 6 0 9
5 6 11 -4 5 8 -1 26 -13 18 -13 35 -30 38 -37 3 -8 11 -14 19 -14 8 0 14 -8
14 -17 0 -15 2 -16 10 -3 8 12 10 9 10 -13 0 -20 -4 -26 -12 -21 -8 5 -7 0 2
-11 15 -19 15 -22 -1 -42 -11 -13 25 -38 40 -28 5 3 8 -6 7 -20 -3 -20 0 -23
14 -15 10 5 20 7 23 3 3 -3 13 2 22 11 9 9 23 16 31 16 8 0 14 7 14 15 0 15
33 38 42 29 3 -2 3 7 1 21 -4 20 -1 25 14 25 16 0 19 7 18 36 0 19 3 38 8 41
4 2 2 12 -5 21 -8 10 -9 17 -3 19 7 2 9 22 5 51 -4 35 -9 46 -21 44 -16 -2
-18 3 -21 58 -1 17 -4 26 -8 20 -8 -12 -22 3 -33 33 -4 10 -15 17 -24 15 -12
-2 -17 3 -15 14 2 12 -6 20 -23 24 -14 3 -25 10 -25 16 0 11 -62 38 -72 32
-16 -10 -48 -13 -43 -3 4 5 10 7 15 4 14 -9 21 12 7 23 -18 14 -77 20 -77 8 0
-6 -5 -3 -11 7 -6 9 -15 15 -20 11 -6 -3 -17 2 -25 12 -9 11 -13 13 -9 7 4 -9
-2 -13 -19 -13 -14 0 -26 5 -26 11 0 5 -4 8 -10 4 -5 -3 -7 -12 -4 -19 7 -19
-15 -31 -29 -17 -9 9 -8 11 6 6 18 -8 22 2 9 23 -6 9 -12 6 -22 -12 -7 -14
-17 -23 -22 -20 -5 3 -27 2 -50 -1 l-41 -7 24 -18 c21 -17 22 -18 4 -17 -11 1
-23 7 -27 12 -5 6 -8 5 -8 -3 0 -9 -7 -11 -20 -7 -13 4 -20 2 -20 -6 0 -7 -3
-9 -7 -6 -3 4 -13 -2 -20 -13 -8 -11 -19 -18 -24 -14 -6 3 -13 -3 -16 -15 -4
-14 -13 -21 -30 -21 -14 0 -22 -4 -18 -10 4 -6 2 -16 -3 -23 -5 -7 -8 -20 -7
-29 3 -15 0 -16 -16 -8 -17 10 -19 7 -20 -22 -1 -18 -1 -37 0 -42 1 -5 -5 -6
-13 -3 -9 4 -17 -1 -21 -14 -8 -23 -3 -188 4 -187 23 2 31 -5 31 -28 0 -20 4
-25 23 -22 18 2 21 -1 19 -19 -2 -17 2 -23 15 -23 11 0 24 -5 31 -12 9 -9 13
-7 18 5 3 9 10 14 16 11 5 -3 1 -12 -9 -20 -10 -7 -16 -14 -13 -15 36 -8 47
-4 44 17 -1 14 2 21 9 18 16 -6 15 -70 0 -85 -8 -8 -13 -9 -13 -3 0 6 -13 9
-30 6 -16 -2 -29 -7 -28 -11 3 -25 -4 -33 -26 -29 -21 4 -24 2 -20 -20 4 -20
2 -23 -8 -14 -15 12 -53 -10 -53 -31 0 -7 -10 -13 -22 -15 -13 -2 -23 -9 -23
-17 0 -15 -27 -28 -41 -20 -5 4 -6 -1 -3 -9 3 -8 1 -23 -5 -34 -8 -15 -8 -22
2 -25 6 -3 0 -6 -14 -6 -15 -1 -30 -8 -33 -17 -5 -14 -9 -14 -23 -3 -15 12
-16 12 -9 -6 5 -11 8 -26 7 -32 0 -7 -2 -26 -3 -43 -1 -25 -3 -27 -13 -13 -11
15 -14 14 -24 -6 -7 -12 -10 -30 -6 -38 3 -9 0 -20 -7 -25 -9 -5 -10 -11 -3
-15 13 -10 13 -28 1 -40 -5 -4 -7 -3 -3 2 3 6 2 17 -3 25 -7 12 -12 12 -22 2
-9 -9 -9 -12 1 -12 7 0 9 -5 4 -12 -11 -18 -11 -49 -1 -71 7 -12 4 -19 -8 -24
-16 -6 -16 -7 2 -14 18 -7 18 -8 -1 -8 -12 -1 -27 5 -35 11 -12 11 -12 10 0
-5 11 -15 11 -20 1 -27 -10 -5 -10 -9 -2 -15 9 -5 9 -10 0 -21 -9 -11 -9 -14
1 -14 10 0 10 -3 1 -14 -9 -11 -9 -15 1 -19 9 -4 10 -6 1 -6 -7 -1 -10 -8 -6
-18 5 -13 2 -15 -11 -10 -10 4 -20 7 -22 7 -3 0 -2 6 2 13 5 8 2 8 -9 -2 -15
-12 -17 -11 -17 3 0 17 -7 28 -42 67 -10 10 -18 22 -18 25 0 4 -10 17 -22 30
-48 49 -58 61 -58 72 0 7 -9 17 -20 24 -11 7 -20 23 -20 35 0 12 -9 28 -19 35
-11 8 -21 28 -23 48 -2 21 -8 34 -15 33 -12 -3 -17 10 -26 70 -4 27 -4 27 57
29 57 2 95 4 140 7 19 1 19 1 0 23 -11 13 -13 18 -4 13 8 -5 25 -9 37 -8 13 1
34 1 48 2 14 1 37 12 50 25 l24 24 21 -44 c28 -57 60 -62 60 -8 0 31 -3 36
-20 31 -18 -5 -20 0 -20 49 0 30 -4 54 -10 54 -5 0 -10 -7 -10 -17 0 -9 -3
-13 -7 -9 -11 10 -12 417 -2 410 4 -2 6 -11 2 -19 -3 -8 0 -15 6 -15 13 0 23
36 24 90 1 22 4 34 8 28 4 -7 5 -17 1 -23 -3 -5 2 -4 11 4 9 7 17 20 17 28 0
14 29 56 65 94 8 9 15 21 15 28 0 6 7 14 15 17 8 3 17 14 20 25 4 10 13 19 21
19 8 0 14 7 14 15 0 8 5 16 10 16 6 1 16 2 23 3 6 0 12 7 12 14 0 6 5 12 10
13 22 2 44 20 39 32 -3 9 8 14 38 16 47 2 56 7 42 21 -11 11 -55 14 -104 6
-33 -5 -34 -4 -15 10 11 9 19 20 17 25 -1 6 6 9 15 7 13 -2 19 4 20 22 l2 25
-7 -24 c-7 -21 -9 -22 -21 -7 -8 9 -9 16 -3 16 17 0 6 49 -17 74 -11 12 -21
30 -21 39 0 9 -7 17 -16 17 -10 0 -14 7 -12 21 2 17 11 22 42 25 22 2 46 -2
53 -8 8 -6 13 -7 12 -2 -1 5 -1 26 0 47 1 30 5 37 18 35 11 -2 19 6 23 22 4
16 13 25 25 25 12 0 20 7 19 17 -1 14 11 17 67 20 38 2 69 -1 69 -5 0 -5 4 -6
9 -2 14 8 21 -9 23 -50 2 -44 18 -46 18 -2 0 46 -36 78 -94 84 -55 7 -138 -5
-131 -18 4 -5 11 -7 16 -4 5 4 9 1 9 -4 0 -14 -22 -14 -38 -1 -6 6 -10 7 -7 4
3 -4 0 -13 -6 -21 -9 -10 -15 -10 -25 -2 -8 6 -20 9 -29 6 -8 -4 -17 -2 -20 4
-4 5 -3 8 2 7 12 -3 56 13 73 27 8 6 36 13 62 14 45 2 117 18 91 20 -7 1 -13
5 -13 10 0 5 11 8 25 7 14 0 25 -5 25 -9 0 -4 10 -3 21 4 15 8 19 8 15 0 -5
-8 11 -11 49 -11 31 0 54 4 51 8 -2 4 5 9 17 9 18 2 19 0 7 -8 -11 -7 -6 -8
19 -4 23 5 31 4 27 -4 -4 -6 -2 -11 3 -11 6 0 11 6 11 13 0 7 9 13 20 13 23 0
26 -11 8 -23 -13 -8 -14 -14 -19 -115 -2 -32 -6 -52 -10 -46 -12 19 -24 -40
-24 -115 0 -72 9 -87 52 -87 12 0 24 -3 26 -7 3 -5 -59 -6 -136 -4 -78 2 -133
6 -122 8 39 8 67 103 49 169 -4 16 -12 20 -27 17 -18 -4 -19 -3 -7 6 12 8 13
14 3 30 -7 11 -11 26 -8 33 7 18 -11 42 -24 33 -9 -5 -9 -10 -1 -20 23 -28 1
-43 -61 -42 -32 0 -62 -2 -65 -6 -16 -15 13 -27 68 -27 51 0 59 -2 49 -14 -15
-18 1 -30 28 -21 18 5 20 1 18 -55 -1 -34 -3 -57 -5 -51 -6 17 -32 13 -32 -4
0 -8 -9 -15 -19 -15 -11 0 -27 -3 -36 -6 -13 -5 -14 -9 -4 -15 18 -11 8 -18
-32 -23 -19 -2 -38 -4 -44 -5 -5 -1 -4 -5 4 -10 11 -7 3 -12 -28 -22 -28 -8
-38 -16 -32 -22 13 -13 142 -10 155 3 7 7 4 10 -6 10 -9 0 -19 4 -22 9 -3 5
68 9 164 9 101 0 170 -4 170 -10 0 -5 -4 -7 -9 -4 -5 3 -11 0 -14 -7 -5 -14 7
-16 96 -17 29 0 46 -4 42 -10 -4 -6 -11 -8 -16 -5 -5 3 -6 -1 -3 -9 3 -9 9
-15 12 -14 4 0 23 0 44 -1 32 -1 35 -4 31 -22 -5 -19 -3 -21 25 -17 27 4 31 1
29 -16 -1 -15 4 -21 18 -21 13 0 19 -7 19 -18 -1 -10 5 -17 17 -17 14 0 19 -7
19 -25 0 -18 5 -25 19 -25 10 0 21 -9 24 -20 3 -11 12 -20 21 -20 9 0 13 -6
10 -14 -3 -8 6 -25 20 -37 14 -13 26 -33 26 -45 0 -28 19 -42 31 -23 6 9 9 -4
10 -38 1 -29 3 -57 4 -63 1 -5 3 -13 4 -17 1 -5 8 6 15 22 11 26 13 2 13 -175
-1 -113 -3 -197 -5 -187 -7 34 -27 11 -30 -35 -2 -36 -7 -47 -23 -51 -13 -4
-19 -14 -19 -35 0 -41 10 -45 48 -22 29 18 31 23 26 56 -5 30 -2 36 15 41 12
3 21 14 21 24 0 13 7 19 24 19 19 0 23 -4 19 -20 -5 -18 0 -20 38 -22 24 0 58
-2 74 -3 32 -3 58 11 49 26 -3 5 -16 9 -28 9 -15 0 -26 7 -29 19 -4 16 -15 20
-58 23 l-54 3 0 38 c0 22 3 41 7 43 12 7 38 -8 38 -22 0 -14 12 -16 148 -18
37 -1 57 -6 65 -17 7 -9 20 -15 30 -13 10 1 27 -6 36 -15 16 -16 19 -17 29 -2
9 13 10 7 8 -26 -3 -30 0 -43 12 -48 8 -3 17 -4 19 -2 3 4 4 353 0 430 -1 30
-4 35 -13 22 -6 -8 -13 -15 -16 -15 -3 0 -6 39 -7 87 0 48 -3 89 -6 91 -2 3
-12 -1 -20 -8 -9 -7 -15 -9 -14 -4 1 5 1 31 0 58 -1 43 -3 48 -21 43 -10 -3
-19 -2 -18 2 0 3 0 21 -1 39 -1 25 -5 32 -21 32 -17 0 -20 7 -20 40 0 28 -4
40 -14 40 -8 0 -17 11 -20 25 -4 16 -11 22 -21 19 -13 -5 -20 6 -16 28 0 4 -8
10 -19 13 -11 4 -18 10 -15 14 5 9 -32 51 -45 51 -6 0 -10 9 -10 20 0 11 -5
20 -11 20 -6 0 -20 11 -31 25 -11 14 -24 23 -28 20 -5 -3 -17 6 -26 20 -11 17
-24 25 -35 22 -10 -3 -18 -2 -17 2 3 29 -4 38 -27 33 -18 -3 -25 0 -25 12 0
18 -37 36 -57 29 -8 -3 -13 3 -13 15 0 14 -9 21 -31 26 -17 3 -35 3 -40 0 -5
-3 -9 2 -9 11 0 17 -38 35 -58 27 -8 -2 -16 4 -19 17 -5 19 -13 21 -82 22 -42
1 -81 1 -87 0 -7 -1 -14 8 -17 19 -5 19 -13 20 -200 20 -111 0 -198 -4 -202
-9z m172 -27 c-3 -3 -12 -4 -19 -1 -8 3 -5 6 6 6 11 1 17 -2 13 -5z m40 0 c-3
-3 -12 -4 -19 -1 -8 3 -5 6 6 6 11 1 17 -2 13 -5z m145 -56 c-7 -7 -12 -8 -12
-2 0 6 3 14 7 17 3 4 9 5 12 2 2 -3 -1 -11 -7 -17z m161 -1 c8 -12 30 -17 69
-19 32 -1 52 -6 45 -10 -9 -6 -9 -10 1 -16 13 -9 14 -90 0 -98 -4 -3 -6 -10
-3 -15 3 -5 -1 -6 -9 -3 -15 6 -17 3 -20 -46 -1 -9 -13 -15 -35 -15 l-33 -1
26 23 c14 12 26 31 26 42 0 13 9 23 24 27 38 9 22 34 -19 27 -18 -3 -41 0 -51
6 -14 7 -15 10 -4 11 10 0 8 5 -7 15 -19 13 -76 15 -89 2 -3 -2 -2 -16 2 -31
5 -22 12 -26 39 -26 19 0 37 -5 41 -11 3 -6 16 -8 29 -5 19 5 22 2 17 -19 -2
-14 -9 -25 -14 -25 -5 0 -6 5 -3 10 3 6 -1 10 -9 10 -8 0 -18 -5 -22 -11 -3
-6 -19 -9 -35 -5 -33 6 -89 -3 -89 -14 0 -4 11 -11 24 -14 15 -4 23 -13 22
-23 -1 -16 7 -18 60 -15 l60 4 0 -29 c-1 -39 27 -37 34 2 3 17 9 29 13 28 21
-8 27 0 28 35 0 27 2 32 8 18 7 -19 8 -19 16 0 5 10 9 28 9 39 1 16 8 20 36
19 23 -1 34 -5 32 -14 -4 -16 16 -30 45 -30 16 0 21 -4 17 -15 -6 -14 4 -19
23 -12 4 1 10 -11 13 -28 4 -21 11 -29 23 -27 14 2 17 -5 17 -38 0 -22 -4 -40
-10 -40 -5 0 -10 9 -10 20 0 11 -4 20 -9 20 -5 0 -9 -6 -8 -12 1 -43 -5 -60
-23 -65 -16 -4 -20 -14 -20 -45 0 -24 -4 -37 -10 -33 -6 4 -8 11 -5 16 4 5 1
9 -4 9 -6 0 -11 -6 -11 -14 0 -8 -7 -16 -15 -20 -32 -12 -13 -26 35 -26 l50 0
0 -44 c0 -25 -5 -48 -10 -51 -15 -9 -2 -25 21 -25 13 0 19 7 19 21 0 11 4 18
9 15 14 -9 41 4 41 20 0 8 -11 19 -24 25 -28 13 -39 53 -30 109 5 32 12 41 36
49 26 9 29 13 18 26 -11 13 -6 15 33 15 40 0 45 -2 40 -20 -4 -16 0 -20 17
-20 13 0 24 -8 27 -20 5 -18 25 -25 61 -21 6 1 12 -6 12 -16 0 -10 3 -28 6
-40 5 -18 1 -25 -21 -33 -18 -7 -25 -15 -21 -25 4 -10 -1 -14 -17 -12 -15 1
-22 -3 -21 -15 1 -10 -9 -18 -27 -22 -20 -4 -27 -10 -23 -20 4 -11 -4 -17 -29
-21 -23 -5 -37 -14 -40 -26 -3 -11 -14 -19 -26 -19 -13 0 -19 -5 -15 -14 3 -8
-4 -16 -18 -19 -13 -4 -24 -2 -26 3 -2 6 -11 6 -23 0 -11 -7 -19 -7 -19 -1 0
5 6 11 13 14 8 3 1 16 -20 38 -32 34 -46 90 -30 116 4 6 -1 18 -11 25 -11 7
-20 18 -21 23 -1 10 -5 11 -36 14 -10 1 -15 12 -15 31 0 22 4 28 15 24 9 -4
19 3 26 20 7 14 18 26 24 26 7 0 16 16 19 35 5 25 12 35 23 33 31 -6 23 18
-11 33 -29 13 -36 14 -40 3 -3 -8 -12 -11 -21 -8 -8 3 -15 2 -16 -2 0 -5 -3
-18 -5 -29 -3 -11 -6 -26 -6 -33 -1 -7 -7 -11 -14 -8 -7 3 -16 -6 -21 -21 -7
-21 -16 -26 -50 -27 l-41 -2 2 45 c1 27 -4 46 -11 48 -8 3 -13 -5 -13 -21 0
-14 -3 -26 -7 -27 -5 0 -34 -1 -66 -2 -56 -2 -57 -2 -27 11 49 20 26 34 -50
30 -68 -4 -72 -2 -60 32 1 3 2 24 2 46 -1 37 1 41 19 37 17 -5 19 0 20 43 1
27 1 61 0 77 0 15 3 27 9 27 5 0 10 -4 10 -10 0 -5 5 -10 10 -10 6 0 10 18 10
41 l0 40 55 -4 c36 -2 60 -10 68 -20z m-713 -23 c0 -8 -19 -13 -24 -6 -3 5 1
9 9 9 8 0 15 -2 15 -3z m49 -38 c4 -6 6 -28 3 -49 -4 -38 -5 -38 -46 -35 -39
3 -41 4 -43 38 -1 19 3 40 8 47 13 14 66 14 78 -1z m858 -11 c5 -4 2 -5 -4 -1
-7 4 -13 4 -13 1 0 -3 15 -12 33 -20 l32 -13 -47 0 c-51 0 -62 7 -52 32 6 16
37 17 51 1z m-971 -18 c-1 -12 -9 -23 -16 -25 -7 -3 -10 -1 -7 4 3 5 -13 8
-36 7 -41 -3 -42 -3 -14 10 15 7 26 15 23 18 -2 2 9 4 25 5 23 1 28 -3 25 -19z
m-107 -63 c-15 -18 -5 -29 17 -20 10 4 14 13 11 26 -4 17 0 20 33 20 22 0 42
-5 46 -11 4 -7 0 -9 -12 -5 -20 6 -53 -9 -42 -19 5 -6 28 -12 51 -14 4 -1 5
-13 3 -27 -6 -32 2 -54 20 -54 8 0 14 -9 14 -20 0 -18 9 -24 35 -21 6 0 11
-17 12 -39 2 -35 -1 -41 -23 -46 -21 -5 -23 -9 -12 -22 11 -13 10 -14 -10 -8
-14 5 -29 3 -38 -5 -13 -10 -13 -14 0 -28 13 -15 9 -16 -54 -13 -61 3 -67 5
-63 23 4 15 0 19 -20 19 -19 0 -26 6 -29 23 -2 14 -9 21 -21 21 -14 -2 -17 6
-17 42 0 48 -15 58 -30 20 -8 -22 -14 -24 -50 -21 -34 4 -40 1 -40 -14 0 -20
25 -35 41 -25 5 3 9 -4 9 -15 0 -16 6 -21 25 -21 18 0 25 -5 25 -20 0 -11 3
-19 8 -19 36 6 62 -3 62 -21 0 -11 7 -20 14 -20 8 0 26 -11 40 -24 34 -30 37
-95 6 -103 -11 -3 -20 -11 -20 -17 0 -6 -8 -19 -19 -28 -10 -8 -20 -21 -22
-27 -3 -9 -12 -9 -33 -1 -37 14 -49 2 -50 -47 -1 -24 -6 -38 -13 -37 -7 1 -38
2 -69 3 -46 1 -54 3 -45 14 16 20 3 27 -50 27 -44 0 -47 -2 -51 -30 -4 -28 -2
-31 34 -41 21 -5 43 -7 48 -4 6 3 10 -3 10 -14 0 -17 7 -21 38 -22 68 -2 67
-1 70 -48 3 -41 2 -43 -14 -30 -13 11 -18 11 -21 2 -5 -15 -73 -18 -73 -3 0 6
6 10 13 10 6 1 -1 6 -16 13 -26 11 -131 15 -167 6 -9 -3 -15 3 -14 14 4 88 3
85 25 80 19 -5 20 -2 18 52 -3 54 -1 59 19 60 30 2 37 12 22 30 -11 14 -6 15
46 9 32 -4 68 -6 79 -6 16 1 17 -1 5 -8 -23 -15 2 -26 52 -24 24 1 46 2 49 3
4 1 6 18 5 39 -1 37 -1 37 38 37 39 0 40 1 40 35 1 28 -3 35 -24 40 -14 3 -25
11 -25 17 0 6 -3 15 -7 19 -8 8 -16 -9 -21 -44 -2 -12 -12 -28 -23 -36 -10 -8
-19 -20 -19 -28 0 -12 -12 -14 -90 -9 -16 1 -23 6 -19 15 3 9 -5 17 -23 24
-27 9 -29 14 -27 53 2 68 3 69 24 69 17 0 20 7 21 48 1 26 1 50 0 55 0 4 12 7
28 7 16 0 34 7 41 15 10 12 10 15 -1 15 -7 0 0 13 16 30 31 32 45 27 45 -17 0
-42 18 -24 22 22 3 40 -5 60 -14 36 -1 -5 -9 -2 -17 6 -12 14 -12 15 0 11 8
-3 22 -1 31 3 14 8 16 5 12 -16 -5 -29 16 -34 36 -10 10 12 9 15 -6 15 -18 1
-18 1 -1 11 23 13 48 4 41 -15 -8 -20 14 -30 34 -14 15 12 16 11 3 -4 -7 -10
-9 -18 -4 -18 5 0 10 -12 11 -27 4 -51 9 -68 18 -69 5 0 16 -4 25 -8 8 -4 28
0 43 7 23 12 24 15 9 19 -12 3 -19 16 -21 34 -1 16 -12 37 -24 48 -13 10 -23
25 -23 35 0 9 -7 15 -17 15 -19 -2 -21 4 -19 46 l2 25 -20 -22 c-19 -23 -61
-32 -61 -13 0 6 7 10 15 10 9 0 18 6 21 14 3 8 12 12 19 10 7 -3 16 -1 19 5 4
6 13 8 22 4 11 -4 12 -8 3 -19z m1185 17 c11 -4 15 -10 10 -13 -10 -6 -54 8
-54 17 0 7 21 5 44 -4z m70 -64 c16 -15 35 -27 43 -27 8 0 12 -4 8 -9 -3 -5 9
-21 26 -34 l32 -25 -47 -3 c-42 -4 -46 -2 -46 18 0 12 -11 35 -26 52 -14 16
-26 34 -27 38 -1 4 -7 7 -14 5 -7 -2 -13 1 -13 6 0 18 35 6 64 -21z m-359
-183 c9 -9 36 -19 61 -22 35 -4 44 -8 44 -24 0 -11 5 -28 10 -38 6 -11 6 -21
1 -24 -5 -3 -11 3 -14 14 -3 11 -14 20 -25 20 -11 0 -26 8 -33 17 -12 14 -12
16 0 8 9 -5 12 -4 8 2 -4 6 -23 14 -43 18 -20 3 -33 9 -29 13 3 4 -13 12 -37
18 l-43 12 42 1 c26 1 48 -5 58 -15z m315 -44 c0 -5 -4 -10 -10 -10 -5 0 -10
5 -10 10 0 6 5 10 10 10 6 0 10 -4 10 -10z m-1030 -20 c0 -5 -12 -10 -27 -9
l-28 1 25 8 c14 4 26 8 28 9 1 1 2 -3 2 -9z m883 -43 c-2 -4 -5 -7 -8 -7 -3 0
-9 0 -15 0 -5 0 -10 4 -10 9 0 5 8 8 18 7 9 -2 16 -6 15 -9z m-970 -22 c-23
-31 -30 -31 -35 0 -5 22 -2 25 24 25 l29 0 -18 -25z m-457 -10 c-6 -18 10 -67
27 -77 6 -4 -1 -10 -18 -14 -16 -4 -39 -18 -50 -30 -12 -13 -25 -20 -29 -16
-5 4 -7 0 -6 -8 1 -8 2 -37 1 -65 -1 -37 -4 -46 -11 -35 -11 17 -4 135 10 159
5 9 12 14 16 11 9 -6 25 60 18 72 -3 4 5 5 16 3 11 -2 20 0 20 6 0 5 3 9 6 9
3 0 4 -7 0 -15z m1884 -6 c0 -5 -7 -9 -15 -9 -9 0 -12 6 -9 15 6 15 24 11 24
-6z m-885 1 c-3 -5 -14 -10 -23 -9 -14 0 -13 2 3 9 27 11 27 11 20 0z m415 0
c0 -5 -2 -10 -4 -10 -3 0 -8 5 -11 10 -3 6 -1 10 4 10 6 0 11 -4 11 -10z m500
-55 c5 -14 16 -25 25 -25 9 0 15 -9 15 -25 0 -15 -5 -25 -12 -24 -27 3 -37 -2
-32 -16 5 -12 -4 -15 -49 -15 -56 0 -79 -11 -55 -27 8 -5 -11 -10 -47 -13 -49
-4 -59 -8 -57 -22 2 -13 -5 -16 -35 -15 -35 2 -37 4 -39 40 -2 23 2 37 9 38
33 2 50 9 63 28 8 11 22 18 34 16 10 -2 24 3 31 11 8 10 8 14 0 14 -6 0 -11 3
-11 8 0 4 19 7 42 7 32 0 43 4 43 15 0 19 8 25 40 28 19 1 28 -4 35 -23z
m-858 -3 c2 -9 10 -17 18 -18 8 -1 27 -2 43 -2 37 -3 38 -37 0 -47 -15 -3 -45
-24 -65 -46 -29 -30 -38 -48 -38 -75 0 -31 -3 -34 -27 -34 -16 0 -36 0 -45 0
-81 -2 -88 1 -88 35 0 19 -6 40 -13 47 -7 7 -16 21 -20 31 -3 9 -13 17 -22 17
-8 0 -15 4 -15 9 0 10 -47 25 -75 23 -14 -1 -15 0 -5 4 8 4 20 12 26 20 9 12
39 20 88 23 4 1 6 7 3 15 -5 12 16 14 113 15 104 0 119 -2 122 -17z m-322
-112 c0 -15 7 -20 25 -20 21 0 25 -5 25 -29 0 -25 3 -28 21 -24 18 5 20 2 17
-33 -2 -31 -7 -39 -21 -37 -14 1 -17 -4 -14 -18 3 -10 1 -17 -3 -14 -5 3 -12
0 -15 -6 -4 -5 -13 -8 -21 -5 -11 4 -12 2 -4 -14 8 -15 6 -20 -8 -23 -29 -9
-87 -7 -73 2 10 6 9 12 -4 25 -9 9 -13 16 -9 16 4 0 4 3 1 7 -4 3 -13 -1 -20
-10 -10 -15 -12 -6 -13 53 -1 64 0 70 17 65 14 -5 19 -1 19 15 0 13 9 24 25
30 14 5 25 16 25 25 0 8 7 15 15 15 8 0 15 -9 15 -20z m430 0 c0 -13 7 -20 20
-20 10 0 25 -10 31 -22 7 -13 17 -26 23 -30 6 -4 12 -33 12 -64 1 -36 -2 -51
-8 -42 -7 10 -13 8 -29 -11 -15 -19 -17 -26 -7 -32 10 -7 8 -9 -4 -9 -10 0
-18 6 -19 13 0 10 -2 10 -6 0 -2 -7 -15 -13 -28 -13 -18 0 -23 5 -21 23 3 20
-1 23 -22 19 -17 -3 -23 -1 -18 6 4 6 -4 22 -16 34 -14 14 -23 35 -23 54 0 25
3 30 21 26 18 -3 21 0 19 22 -3 22 1 26 21 26 17 0 24 6 24 20 0 11 7 20 15
20 8 0 15 -9 15 -20z m-1274 -86 c-1 -95 -1 -96 29 -119 l29 -24 -49 5 c-28 3
-51 7 -52 8 -8 8 -8 78 0 83 6 3 8 2 5 -3 -3 -5 -2 -18 2 -29 7 -20 8 -14 25
120 2 17 4 36 4 43 1 6 3 12 5 12 2 0 3 -43 2 -96z m2096 52 c12 -17 9 -71 -4
-84 -9 -9 -9 -12 0 -12 7 0 12 -6 12 -14 0 -10 -9 -13 -32 -9 -40 6 -50 13
-19 13 34 0 20 23 -20 31 -39 9 -50 4 -43 -16 4 -8 11 -12 17 -8 6 3 7 1 3 -5
-4 -8 -36 -12 -82 -12 -43 0 -74 -4 -74 -10 0 -5 5 -10 11 -10 5 0 8 -4 4 -9
-3 -6 -24 -9 -48 -8 -39 2 -42 4 -43 32 -1 41 12 55 52 55 22 0 34 5 34 13 0
8 6 14 13 15 81 12 99 13 111 3 16 -14 26 -4 26 26 0 21 4 23 38 21 20 -1 40
-7 44 -12z m-1707 -19 c-4 -13 -7 -32 -9 -43 -2 -10 -9 -19 -16 -19 -16 0 -17
-15 -20 -212 -1 -84 -6 -155 -11 -159 -5 -3 -8 0 -7 8 2 8 -9 14 -30 16 -27 3
-34 8 -39 34 -3 17 -15 33 -27 38 -22 9 -22 9 32 14 9 1 27 7 39 14 20 11 22
10 25 -16 2 -15 5 32 5 103 1 72 -1 137 -3 145 -2 9 -16 17 -31 18 -14 1 -29
5 -32 8 -3 4 6 4 22 2 15 -3 27 -2 27 2 0 4 7 7 15 7 8 0 12 -4 9 -9 -3 -4 0
-8 6 -8 12 0 41 61 34 72 -3 5 0 8 6 8 6 0 8 -10 5 -23z m1329 -2 c3 -8 1 -15
-4 -15 -6 0 -10 7 -10 15 0 8 2 15 4 15 2 0 6 -7 10 -15z m6 -51 c0 -8 -4 -12
-10 -9 -5 3 -10 13 -10 21 0 8 5 12 10 9 6 -3 10 -13 10 -21z m-1495 -4 c3 -5
1 -10 -4 -10 -6 0 -11 5 -11 10 0 6 2 10 4 10 3 0 8 -4 11 -10z m1523 -49 c0
-28 -2 -32 -9 -16 -11 28 -11 84 0 66 5 -8 9 -30 9 -50z m-1063 -1 c-3 -5 10
-26 29 -46 20 -21 36 -41 36 -46 0 -4 14 -8 30 -8 17 0 30 -3 31 -7 0 -5 2
-25 5 -45 5 -41 2 -43 -54 -32 -18 4 -32 14 -35 25 -3 10 -12 19 -21 19 -9 0
-16 3 -16 8 0 4 -4 34 -10 66 -9 54 -7 76 6 76 3 0 2 -4 -1 -10z m715 -64 c-5
-32 -7 -62 -5 -67 3 -4 -5 -9 -17 -11 -15 -2 -22 -9 -22 -21 1 -11 -6 -17 -20
-18 -11 -1 -33 -3 -48 -5 -24 -2 -27 0 -24 19 3 12 5 32 5 45 1 16 7 22 25 22
29 0 83 51 92 87 12 48 24 7 14 -51z m704 32 c6 -21 8 -21 19 -6 11 13 13 -4
12 -100 -2 -149 -2 -149 -22 -157 -31 -12 -72 -14 -78 -4 -4 5 12 9 37 9 35 1
40 3 25 11 -14 8 -17 17 -11 42 4 18 7 58 6 90 -1 37 3 57 11 57 6 0 -5 15
-25 34 -38 36 -39 46 -2 46 14 0 24 -8 28 -22z m-1434 -14 c0 -8 -4 -12 -10
-9 -5 3 -10 13 -10 21 0 8 5 12 10 9 6 -3 10 -13 10 -21z m1336 9 c-2 -23 32
-42 43 -24 10 15 15 -166 6 -190 -4 -12 -33 -16 -74 -10 -6 0 -9 20 -8 44 2
35 6 43 25 45 21 3 32 31 12 33 -62 6 -65 5 -68 -38 -3 -34 -7 -42 -28 -47
-16 -4 -24 -13 -22 -24 2 -12 -3 -16 -15 -14 -10 2 -25 -2 -32 -8 -10 -9 -13
-7 -11 7 2 10 11 17 20 17 9 -1 16 2 16 7 0 5 -8 9 -19 9 -10 0 -24 7 -31 15
-10 12 -16 13 -26 4 -15 -12 -16 -6 -16 71 0 45 1 50 11 48 4 -2 17 7 27 20
17 20 22 21 57 10 20 -6 37 -17 37 -25 0 -23 18 -14 24 12 5 19 13 25 34 26
15 0 21 3 15 6 -19 7 -16 19 6 20 11 1 18 -5 17 -14z m-254 -28 c-2 -14 -6
-25 -8 -25 -2 0 -4 11 -4 25 0 14 4 25 9 25 4 0 6 -11 3 -25z m-1601 -35 l116
1 1 -47 0 -47 -51 7 c-29 3 -75 6 -104 6 -46 0 -52 2 -55 23 -2 12 -6 21 -10
20 -5 -2 -7 -4 -6 -5 1 -2 -4 -13 -11 -25 -7 -14 -21 -23 -35 -23 -29 0 -39
-10 -25 -26 8 -10 6 -13 -8 -11 -15 1 -19 11 -21 55 -3 67 8 82 56 76 20 -2
89 -4 153 -4z m155 -40 c0 -39 -3 -50 -15 -49 -9 0 -11 3 -5 5 6 2 9 18 6 34
-4 27 2 60 11 60 2 0 3 -22 3 -50z m1441 -2 c-3 -8 -6 -5 -6 6 -1 11 2 17 5
13 3 -3 4 -12 1 -19z m-887 -12 c0 -2 -7 -6 -15 -10 -8 -3 -15 -1 -15 4 0 6 7
10 15 10 8 0 15 -2 15 -4z m891 -96 c0 -40 -3 -75 -6 -78 -3 -3 -5 32 -5 78 0
46 3 81 6 78 3 -4 5 -39 5 -78z m-1716 30 c3 -5 1 -10 -4 -10 -6 0 -11 5 -11
10 0 6 2 10 4 10 3 0 8 -4 11 -10z m105 -16 c0 -8 9 -14 21 -14 12 0 23 -8 26
-20 3 -11 12 -20 19 -20 12 0 21 -48 15 -82 0 -5 5 -8 13 -8 17 0 40 26 33 37
-9 14 36 13 54 0 10 -7 18 -33 21 -64 5 -55 2 -67 -15 -56 -5 3 -56 5 -113 4
-89 -1 -107 -4 -124 -21 -15 -15 -31 -19 -62 -17 l-43 2 -2 118 c-1 96 1 118
12 113 7 -2 25 6 39 19 13 12 30 25 37 27 23 8 69 -4 69 -18z m90 -24 c0 -5
-5 -10 -11 -10 -5 0 -7 5 -4 10 3 6 8 10 11 10 2 0 4 -4 4 -10z m-283 -32 c-3
-8 -6 -5 -6 6 -1 11 2 17 5 13 3 -3 4 -12 1 -19z m0 -80 c-3 -8 -6 -5 -6 6 -1
11 2 17 5 13 3 -3 4 -12 1 -19z m173 -118 c0 -5 -4 -10 -10 -10 -5 0 -10 5
-10 10 0 6 5 10 10 10 6 0 10 -4 10 -10z m1440 -34 c0 -3 -4 -8 -10 -11 -5 -3
-10 -1 -10 4 0 6 5 11 10 11 6 0 10 -2 10 -4z m-1573 -28 c-3 -8 -6 -5 -6 6
-1 11 2 17 5 13 3 -3 4 -12 1 -19z m513 -28 c0 -5 -2 -10 -4 -10 -3 0 -8 5
-11 10 -3 6 -1 10 4 10 6 0 11 -4 11 -10z m-42 -155 c-1 -20 -5 -38 -10 -41
-10 -6 -10 3 -2 45 9 41 14 39 12 -4z m1209 -7 c-3 -8 -6 -5 -6 6 -1 11 2 17
5 13 3 -3 4 -12 1 -19z m-1246 -95 c-12 -20 -14 -14 -5 12 4 9 9 14 11 11 3
-2 0 -13 -6 -23z m-4 -70 c-3 -10 -5 -4 -5 12 0 17 2 24 5 18 2 -7 2 -21 0
-30z m1139 13 c0 -14 -5 -21 -9 -17 -4 4 -5 15 -1 24 9 24 12 21 10 -7z
m-1176 -6 c0 -5 -2 -10 -4 -10 -3 0 -8 5 -11 10 -3 6 -1 10 4 10 6 0 11 -4 11
-10z m-8 -52 c-8 -8 -9 -4 -5 13 4 13 8 18 11 10 2 -7 -1 -18 -6 -23z m1178
12 c0 -5 -5 -10 -11 -10 -5 0 -7 5 -4 10 3 6 8 10 11 10 2 0 4 -4 4 -10z m170
6 c0 -3 -4 -8 -10 -11 -5 -3 -10 -1 -10 4 0 6 5 11 10 11 6 0 10 -2 10 -4z
m-169 -50 c-7 -8 -7 -16 0 -23 6 -6 1 -13 -16 -21 -21 -10 -25 -9 -25 3 0 8 6
15 14 15 8 0 13 8 11 18 -3 22 4 34 16 26 7 -4 6 -10 0 -18z m-1167 -4 c3 -5
-1 -9 -9 -9 -8 0 -12 4 -9 9 3 4 7 8 9 8 2 0 6 -4 9 -8z m1 -32 c3 -5 1 -10
-4 -10 -6 0 -11 5 -11 10 0 6 2 10 4 10 3 0 8 -4 11 -10z m35 -47 c0 -19 -13
-9 -16 12 -1 8 2 13 7 9 5 -3 9 -12 9 -21z"/>
<path d="M1655 2220 c3 -5 8 -10 11 -10 2 0 4 5 4 10 0 6 -5 10 -11 10 -5 0
-7 -4 -4 -10z"/>
<path d="M1997 1873 c-3 -4 -8 -22 -11 -39 -8 -38 9 -48 54 -33 26 10 44 31
23 28 -22 -4 -32 3 -35 23 -3 22 -22 35 -31 21z"/>
<path d="M434 1828 c-24 -39 2 -92 33 -67 9 8 18 12 21 9 3 -3 10 8 15 23 11
33 11 32 -30 40 -20 4 -35 2 -39 -5z"/>
<path d="M253 1433 c-15 -5 -17 -23 -4 -23 5 0 11 7 15 15 3 8 4 15 3 14 -1 0
-8 -3 -14 -6z"/>
<path d="M1020 1500 c0 -11 -4 -20 -10 -20 -17 0 -11 -29 8 -39 27 -15 41 0
39 42 -2 28 -6 37 -19 37 -11 0 -18 -8 -18 -20z"/>
<path d="M1444 1488 c1 -49 17 -65 40 -39 11 12 14 21 7 26 -6 3 -11 16 -11
28 0 15 -6 23 -18 23 -14 0 -18 -8 -18 -38z"/>
<path d="M2323 1285 c0 -22 2 -30 4 -17 2 12 2 30 0 40 -3 9 -5 -1 -4 -23z"/>
<path d="M2072 1327 c-13 -15 -2 -69 16 -75 12 -4 26 37 20 64 -4 23 -22 28
-36 11z"/>
<path d="M274 1115 c-4 -15 -16 -30 -28 -35 -21 -8 -21 -8 2 -17 13 -5 23 -12
23 -16 -3 -23 2 -27 27 -27 34 0 81 45 64 62 -7 7 -12 20 -12 30 0 11 -7 18
-19 18 -11 0 -26 3 -35 6 -11 4 -17 -2 -22 -21z m56 -75 c0 -5 -4 -10 -10 -10
-5 0 -10 5 -10 10 0 6 5 10 10 10 6 0 10 -4 10 -10z"/>
<path d="M641 2349 c-35 -14 -9 -39 39 -39 33 0 37 3 33 20 -3 11 -9 17 -15
14 -5 -3 -14 -1 -21 4 -7 6 -21 6 -36 1z"/>
<path d="M1801 2339 c-17 -10 -31 -20 -31 -22 0 -1 14 -4 31 -5 40 -3 49 -9
43 -27 -4 -10 5 -15 33 -17 26 -2 38 -8 38 -18 0 -10 10 -15 28 -15 22 1 26
-3 21 -17 -6 -21 34 -42 53 -26 7 6 14 5 19 -3 5 -8 3 -9 -5 -4 -9 5 -12 2 -9
-11 5 -27 44 -30 58 -5 9 18 7 21 -15 27 -14 3 -25 12 -25 20 0 8 -4 14 -9 14
-4 0 -21 12 -36 26 -19 18 -34 24 -50 20 -19 -5 -22 -3 -18 14 4 14 -1 21 -20
25 -14 4 -28 13 -30 20 -9 21 -44 23 -76 4z"/>
<path d="M573 2312 c-13 -2 -23 -7 -23 -12 0 -5 -20 -23 -45 -41 -44 -32 -55
-52 -34 -64 14 -9 59 3 59 15 0 6 -4 9 -9 8 -5 -2 -8 1 -7 6 0 6 12 10 26 10
42 1 55 16 31 33 -12 8 -18 19 -15 25 4 7 10 5 16 -6 6 -10 22 -16 43 -16 36
0 47 16 20 26 -8 4 -13 9 -11 13 5 7 -14 8 -51 3z"/>
<path d="M2055 2220 c3 -5 8 -10 11 -10 2 0 4 5 4 10 0 6 -5 10 -11 10 -5 0
-7 -4 -4 -10z"/>
<path d="M417 2194 c-11 -12 13 -44 34 -44 15 0 20 5 17 23 -3 21 -36 36 -51
21z"/>
<path d="M386 2163 c-3 -3 -6 -15 -6 -25 0 -12 -7 -18 -21 -18 -15 0 -20 -5
-17 -22 4 -30 43 -32 43 -3 0 13 7 20 20 20 26 0 31 31 7 44 -11 6 -22 7 -26
4z"/>
<path d="M2073 2144 c-3 -8 -1 -20 5 -26 16 -16 42 -2 42 22 0 24 -38 28 -47
4z"/>
<path d="M945 2140 c-3 -5 -3 -10 0 -10 3 0 -3 -17 -15 -38 -25 -45 -24 -88 2
-84 12 2 16 -3 13 -17 -5 -27 49 -50 77 -32 10 6 23 9 28 6 6 -4 10 0 10 7 0
8 -15 14 -42 15 -47 3 -50 5 -52 33 0 11 -5 19 -11 18 -5 -2 -9 -6 -7 -10 1
-5 -2 -8 -7 -8 -11 0 -19 30 -13 48 3 10 7 10 19 1 11 -10 16 -10 23 0 11 18
50 4 50 -17 0 -14 9 -18 37 -17 20 0 38 5 40 12 5 14 -68 65 -89 62 -37 -5
-49 1 -43 21 6 20 -9 28 -20 10z"/>
<path d="M2135 2140 c3 -5 8 -10 11 -10 2 0 4 5 4 10 0 6 -5 10 -11 10 -5 0
-7 -4 -4 -10z"/>
<path d="M2113 2104 c-3 -8 -1 -20 5 -26 16 -16 42 -2 42 22 0 24 -38 28 -47
4z"/>
<path d="M305 2080 c-4 -6 -2 -17 4 -24 6 -7 8 -16 4 -19 -3 -4 3 -7 15 -7 15
0 22 6 22 20 0 23 -35 46 -45 30z"/>
<path d="M2166 2077 c-22 -16 -17 -53 7 -51 9 1 15 -2 12 -6 -3 -5 -1 -20 4
-33 8 -19 15 -24 31 -20 15 4 19 2 14 -10 -3 -9 -2 -23 3 -32 9 -15 12 -14 33
3 l24 20 -34 45 c-19 26 -43 47 -53 47 -10 0 -15 4 -12 10 3 5 2 17 -2 25 -8
13 -12 13 -27 2z"/>
<path d="M2215 2060 c3 -5 8 -10 11 -10 2 0 4 5 4 10 0 6 -5 10 -11 10 -5 0
-7 -4 -4 -10z"/>
<path d="M264 2023 c-5 -20 -9 -22 -22 -11 -9 7 -13 8 -9 2 4 -6 -6 -31 -22
-54 -18 -27 -26 -50 -23 -63 4 -16 2 -19 -12 -14 -21 8 -44 -42 -25 -54 6 -4
8 -12 4 -19 -5 -8 -1 -11 11 -8 10 2 20 12 22 23 3 10 15 27 28 37 19 16 22
23 14 44 -12 32 -12 34 1 34 5 0 7 -4 4 -10 -3 -5 3 -10 13 -10 22 0 34 29 21
53 -6 10 -5 18 2 23 8 4 9 3 5 -4 -8 -14 3 -15 22 -4 6 5 11 19 10 33 -3 33
-36 34 -44 2z m-54 -153 c0 -5 -5 -10 -11 -10 -5 0 -7 5 -4 10 3 6 8 10 11 10
2 0 4 -4 4 -10z"/>
<path d="M2276 1919 c-11 -17 -12 -27 -4 -45 10 -21 32 -36 26 -16 -2 4 2 8 7
9 6 0 8 -4 6 -10 -5 -16 -2 -68 5 -79 3 -5 11 -4 19 2 15 13 27 0 16 -18 -4
-6 -5 -27 -3 -46 4 -30 6 -33 22 -24 9 6 15 19 13 28 -3 10 0 21 5 24 13 8 3
46 -12 46 -24 0 -40 18 -28 32 8 10 7 20 -3 38 -8 14 -20 37 -27 53 -15 33
-22 34 -42 6z"/>
<path d="M116 1823 c-6 -14 -5 -15 5 -6 7 7 10 15 7 18 -3 3 -9 -2 -12 -12z"/>
<path d="M2370 1821 c0 -5 5 -13 10 -16 6 -3 10 -2 10 4 0 5 -4 13 -10 16 -5
3 -10 2 -10 -4z"/>
<path d="M107 1781 c-2 -10 0 -24 6 -30 19 -19 16 -38 -7 -37 -16 1 -20 7 -19
26 2 19 0 21 -6 10 -9 -14 -9 -69 0 -100 2 -8 -2 -14 -8 -12 -7 1 -13 -5 -13
-13 0 -8 -5 -15 -11 -15 -7 0 -8 7 -4 18 12 30 14 52 5 52 -8 0 -23 -48 -19
-66 1 -5 1 -23 0 -41 -1 -24 -5 -31 -16 -27 -8 4 -15 1 -15 -6 0 -6 3 -9 8 -6
17 10 37 -22 39 -63 3 -41 2 -43 -12 -25 -8 10 -15 14 -15 7 0 -12 17 -26 37
-29 6 -1 12 5 12 14 -1 10 1 40 4 67 2 28 1 57 -4 66 -4 8 -3 22 2 30 8 12 10
12 18 -1 6 -8 13 -11 17 -8 8 8 8 84 -1 97 -3 5 -1 12 4 15 5 4 12 2 16 -4 13
-21 22 1 21 47 -1 35 -5 49 -17 51 -10 2 -19 -5 -22 -17z"/>
<path d="M980 1781 c0 -5 9 -11 20 -14 13 -3 20 0 20 9 0 8 -9 14 -20 14 -11
0 -20 -4 -20 -9z"/>
<path d="M1495 1780 c-3 -5 1 -10 9 -10 9 0 16 5 16 10 0 6 -4 10 -9 10 -6 0
-13 -4 -16 -10z"/>
<path d="M910 1737 c-10 -17 -10 -19 5 -13 9 3 25 6 36 6 27 0 24 17 -5 22
-16 3 -27 -2 -36 -15z"/>
<path d="M1560 1746 c0 -8 7 -16 15 -20 9 -3 15 0 15 8 0 8 -7 16 -15 20 -9 3
-15 0 -15 -8z"/>
<path d="M2414 1738 c5 -20 2 -30 -12 -37 -17 -9 -18 -14 -13 -118 1 -20 21
-15 21 5 0 12 4 11 14 -8 7 -14 11 -29 8 -34 -8 -15 -8 -147 0 -159 14 -21 29
15 26 60 -2 23 -1 41 2 41 25 -2 40 4 40 17 0 13 -3 13 -20 3 -10 -7 -23 -9
-27 -5 -4 5 -1 12 6 16 13 9 10 105 -4 119 -4 4 -6 0 -5 -8 4 -26 0 -40 -10
-40 -5 0 -10 7 -10 15 0 8 -6 15 -12 15 -9 1 -8 4 2 13 11 9 14 25 10 64 -3
28 -9 55 -14 60 -5 4 -6 -4 -2 -19z"/>
<path d="M1535 1740 c-3 -5 -1 -10 4 -10 6 0 11 5 11 10 0 6 -2 10 -4 10 -3 0
-8 -4 -11 -10z"/>
<path d="M1604 1711 c4 -5 1 -11 -5 -13 -7 -2 -4 -10 7 -18 11 -9 15 -10 10
-2 -4 6 -2 12 4 12 6 0 15 -11 20 -25 5 -14 16 -25 25 -25 8 0 15 -5 15 -11 0
-5 -6 -7 -12 -3 -12 7 7 -19 40 -54 6 -7 12 -37 12 -65 0 -37 3 -48 10 -37 16
26 29 -2 32 -73 3 -69 13 -86 24 -42 3 14 10 25 15 25 6 0 5 -9 -1 -20 -6 -11
-7 -20 -3 -20 9 0 7 -179 -1 -188 -3 -2 0 -14 5 -25 10 -17 9 -19 -10 -14 -17
4 -22 -1 -29 -26 -10 -39 -4 -67 14 -67 13 0 19 23 14 63 -1 9 2 17 7 16 37
-6 38 -2 38 146 0 80 -4 145 -8 145 -5 0 -5 5 -1 11 4 8 0 8 -15 0 -16 -9 -21
-9 -21 2 0 7 6 19 13 26 10 11 9 12 -1 7 -10 -6 -12 1 -9 29 4 30 1 38 -18 45
-14 5 -25 20 -28 40 -4 17 -11 29 -17 25 -6 -3 -7 0 -4 9 3 9 1 16 -5 16 -6 0
-11 5 -11 10 0 6 -17 27 -37 48 -21 20 -36 43 -35 50 2 6 -7 12 -18 12 -12 0
-19 -4 -16 -9z"/>
<path d="M865 1700 c-8 -13 20 -24 36 -15 8 6 7 10 -2 16 -18 11 -26 11 -34
-1z"/>
<path d="M821 1661 c-6 -10 -7 -21 -3 -25 3 -4 -1 -4 -10 -1 -16 6 -33 -19
-23 -35 3 -4 -2 -11 -11 -14 -10 -4 -13 -2 -8 6 4 6 3 8 -3 5 -5 -3 -10 -23
-11 -43 -2 -44 -7 -51 -26 -35 -11 9 -14 8 -18 -6 -7 -32 0 -117 15 -168 l14
-50 1 79 c0 43 3 80 6 83 3 3 1 14 -5 24 -8 17 -7 18 13 10 21 -8 23 -6 25 32
2 24 9 45 18 50 8 4 15 14 15 21 0 7 14 25 30 41 22 21 27 31 18 37 -19 12
-26 10 -37 -11z"/>
<path d="M5 1253 c2 -231 2 -223 16 -223 5 0 7 5 4 10 -3 6 -3 10 2 10 4 0 7
84 7 186 -1 147 -4 189 -16 200 -12 13 -14 -11 -13 -183z"/>
<path d="M674 1421 c4 -6 2 -11 -5 -11 -9 0 -9 -3 0 -14 8 -10 9 -16 1 -21 -5
-3 -10 -11 -10 -16 0 -6 5 -7 12 -3 7 4 8 3 4 -4 -9 -15 -11 -230 -3 -239 4
-3 2 -12 -4 -20 -8 -9 -8 -13 -1 -13 7 0 9 -7 5 -17 -6 -15 -5 -16 9 -3 9 9
14 26 12 42 -1 15 1 30 7 33 5 4 6 11 3 17 -9 14 -8 174 1 188 3 5 3 16 -2 23
-4 6 -8 23 -8 36 0 13 -6 26 -14 29 -8 3 -11 0 -7 -7z"/>
<path d="M2475 1396 c-6 -6 -10 -69 -10 -143 0 -82 -4 -133 -10 -134 -21 -1
-29 -37 -30 -121 -1 -78 1 -89 18 -94 15 -5 17 -12 12 -32 -5 -21 -4 -24 6
-15 9 9 10 40 3 128 -9 114 -9 116 12 111 20 -5 20 -2 20 148 -1 85 -3 157 -6
159 -3 3 -9 0 -15 -7z"/>
<path d="M1179 1343 c-11 -15 -11 -16 1 -5 17 15 124 16 151 2 34 -19 23 -39
-23 -43 l-43 -4 47 -1 c57 -2 67 10 34 43 -22 21 -34 25 -89 25 -50 0 -68 -4
-78 -17z"/>
<path d="M1142 1307 c-8 -10 -6 -13 9 -13 10 0 19 6 19 13 0 7 -4 13 -9 13 -5
0 -13 -6 -19 -13z"/>
<path d="M1732 1280 c0 -14 2 -19 5 -12 2 6 2 18 0 25 -3 6 -5 1 -5 -13z"/>
<path d="M1415 1260 c-13 -14 -21 -17 -31 -9 -13 10 -26 -2 -30 -28 -2 -13 22
-13 43 0 6 4 14 3 17 -2 9 -13 -9 -22 -45 -23 -39 -1 -54 20 -31 46 16 18 16
18 -6 5 -12 -8 -20 -20 -17 -26 3 -8 -5 -13 -20 -14 -62 -3 -124 1 -108 8 10
3 10 8 -1 19 -8 8 -18 14 -22 14 -5 0 -3 -5 3 -11 12 -12 7 -39 -7 -39 -5 0
-11 8 -13 18 -2 10 -3 8 -2 -5 2 -17 -3 -21 -23 -19 -13 2 -29 11 -35 21 -7
14 -7 16 4 9 25 -15 37 -12 42 12 3 15 0 21 -7 16 -11 -7 -16 -8 -48 -10 -23
-2 -23 -13 1 -38 12 -14 33 -21 67 -23 27 -1 53 -6 57 -10 5 -5 -5 -8 -22 -6
-18 1 -31 -2 -31 -9 0 -6 -5 -4 -10 4 -8 13 -10 12 -10 -4 0 -13 4 -16 18 -11
9 4 35 7 57 6 30 -1 36 1 25 9 -8 5 -10 10 -4 10 5 0 15 -5 20 -10 14 -14 56
-22 49 -9 -4 5 -10 7 -14 5 -4 -3 -13 -1 -21 5 -12 7 -9 9 10 10 38 2 92 8
128 14 31 6 38 17 33 53 -1 8 3 20 10 28 18 22 -6 17 -26 -6z m-35 -20 c0 -5
-5 -10 -11 -10 -5 0 -7 5 -4 10 3 6 8 10 11 10 2 0 4 -4 4 -10z"/>
<path d="M741 1254 c0 -11 3 -14 6 -6 3 7 2 16 -1 19 -3 4 -6 -2 -5 -13z"/>
<path d="M1704 1228 l-19 -23 23 19 c12 11 22 21 22 23 0 8 -8 2 -26 -19z"/>
<path d="M798 1225 c11 -21 52 -59 52 -49 0 3 -14 20 -32 37 -18 18 -27 23
-20 12z"/>
<path d="M1741 1224 c0 -11 3 -14 6 -6 3 7 2 16 -1 19 -3 4 -6 -2 -5 -13z"/>
<path d="M1457 1202 c8 -5 2 -12 -18 -21 -31 -13 -38 -35 -15 -44 18 -7 26 1
27 27 0 12 3 15 6 9 2 -7 9 -13 14 -13 6 0 8 4 4 9 -3 5 0 13 6 17 12 7 -6 24
-26 24 -5 0 -5 -4 2 -8z"/>
<path d="M1658 1181 c-12 -17 -18 -21 -34 -21 -4 0 -1 -7 6 -15 7 -8 16 -12
22 -9 11 7 40 -15 33 -26 -2 -4 5 -7 17 -6 21 1 34 31 18 41 -5 3 -7 -4 -5
-15 2 -11 1 -20 -3 -20 -13 0 -41 38 -34 46 4 4 1 4 -5 0 -17 -9 -17 16 -1 32
7 7 9 12 6 12 -4 0 -13 -8 -20 -19z"/>
<path d="M1710 1176 c0 -2 8 -10 18 -17 15 -13 16 -12 3 4 -13 16 -21 21 -21
13z"/>
<path d="M815 1161 c-4 -7 -1 -10 7 -9 7 2 12 -3 10 -10 -2 -10 2 -10 17 -3
10 6 21 7 25 4 3 -3 6 1 6 11 0 13 -4 15 -18 7 -13 -7 -22 -7 -29 0 -8 8 -13
7 -18 0z"/>
<path d="M1105 1150 c-3 -5 -1 -10 4 -10 6 0 11 5 11 10 0 6 -2 10 -4 10 -3 0
-8 -4 -11 -10z"/>
<path d="M721 1112 c-1 -18 -5 -31 -9 -28 -10 6 -9 -45 2 -62 4 -7 12 -12 18
-12 6 0 8 3 5 6 -3 4 -3 14 2 23 4 9 2 36 -5 61 -12 43 -12 44 -13 12z"/>
<path d="M789 1133 c-1 -5 -1 -12 0 -17 1 -4 -4 -15 -11 -24 -9 -11 -4 -10 16
4 24 15 26 20 13 22 -10 2 -15 8 -12 13 4 5 4 9 1 9 -3 0 -7 -3 -7 -7z"/>
<path d="M46 1030 c-3 -23 -3 -46 0 -52 4 -6 2 -8 -4 -4 -6 3 -13 2 -17 -4 -4
-6 -11 -8 -16 -5 -5 4 -9 1 -9 -5 0 -7 7 -10 15 -6 11 4 15 -2 15 -24 0 -30
30 -70 52 -70 9 0 9 -3 0 -12 -14 -14 -16 -64 -3 -73 5 -3 16 3 23 14 17 25
12 108 -7 108 -8 0 -11 -5 -8 -10 3 -5 0 -7 -8 -5 -8 3 -12 12 -10 19 8 26 2
152 -7 161 -6 6 -12 -6 -16 -32z"/>
<path d="M1270 1060 c-9 -6 -10 -10 -3 -10 6 0 15 5 18 10 8 12 4 12 -15 0z"/>
<path d="M2311 1053 c1 -5 1 -16 0 -25 -2 -26 -48 -24 -56 2 -7 22 -20 26 -30
10 -3 -5 -1 -10 6 -10 8 0 8 -4 1 -13 -6 -7 -8 -24 -5 -38 6 -21 4 -22 -9 -11
-13 10 -17 10 -22 -4 -3 -9 -4 -19 -1 -24 2 -4 -46 -7 -108 -6 -61 1 -122 -2
-134 -6 -15 -5 -23 -4 -23 4 0 6 -3 8 -7 4 -14 -14 31 -36 76 -37 30 -1 36 -3
19 -6 -15 -2 -36 -15 -47 -29 -10 -13 -26 -24 -36 -24 -12 0 -15 -5 -9 -22 12
-40 26 -56 21 -25 -2 15 0 30 6 34 6 4 8 -12 5 -45 -4 -40 -1 -55 12 -67 9 -8
19 -12 23 -9 3 3 3 -3 0 -14 -5 -19 -1 -20 41 -18 35 2 54 9 76 31 26 25 30
36 30 82 0 47 -3 54 -27 67 -23 12 -24 15 -8 16 23 0 10 16 -20 23 -11 3 8 5
43 6 66 1 107 15 96 32 -3 6 3 13 15 16 12 3 21 12 21 19 0 8 10 14 25 14 27
0 35 -24 10 -34 -8 -3 -15 -11 -14 -18 0 -10 2 -10 6 0 7 19 22 14 20 -7 0
-10 -7 -17 -13 -14 -11 4 -27 -42 -25 -69 1 -5 -8 -17 -19 -28 -11 -11 -20
-33 -20 -50 0 -20 -5 -30 -15 -30 -15 0 -31 -42 -21 -58 3 -5 -2 -9 -11 -8
-10 0 -23 -11 -31 -26 -7 -16 -17 -28 -22 -28 -8 0 -25 -40 -21 -49 1 -2 -8
-9 -21 -16 -13 -6 -22 -18 -20 -25 2 -10 0 -11 -11 -2 -18 15 -27 5 -27 -30 0
-16 -6 -31 -15 -34 -8 -4 -15 -12 -15 -19 0 -7 -6 -15 -12 -18 -9 -3 -7 -7 6
-12 18 -8 40 11 30 26 -2 5 5 6 16 4 18 -3 25 5 21 28 0 4 6 7 14 7 9 0 21 11
27 25 6 14 17 25 23 25 7 0 15 14 19 30 3 17 12 30 20 30 16 0 29 27 20 41 -3
5 4 9 15 9 20 0 24 8 24 53 0 10 7 17 18 17 16 0 19 8 19 53 0 33 3 47 9 38
15 -23 31 -2 31 40 0 21 3 38 8 38 27 -5 32 4 32 61 0 33 4 60 10 60 6 0 10 5
10 11 0 5 -5 7 -10 4 -6 -4 -13 7 -16 24 -4 17 -10 31 -15 31 -5 0 -8 -3 -8
-7z m-238 -195 c-2 -5 -2 -16 1 -25 5 -13 9 -13 22 -2 8 7 14 8 13 3 -1 -5 0
-11 1 -14 1 -3 3 -23 5 -46 3 -38 1 -41 -20 -36 -28 5 -41 -13 -25 -34 11 -12
9 -14 -11 -10 -13 3 -31 5 -39 6 -9 1 -5 6 10 13 l25 11 -30 4 c-35 4 -45 16
-45 55 0 30 22 61 35 49 5 -4 5 -1 1 6 -4 6 -14 12 -22 12 -8 0 -13 4 -9 9 3
5 25 9 49 8 25 0 42 -5 39 -9z"/>
<path d="M1407 949 c6 -23 9 -24 16 -5 3 8 0 17 -7 19 -10 4 -12 -1 -9 -14z"/>
<path d="M1925 960 c3 -5 8 -10 11 -10 2 0 4 5 4 10 0 6 -5 10 -11 10 -5 0 -7
-4 -4 -10z"/>
<path d="M0 856 c0 -44 5 -72 14 -81 7 -8 17 -35 20 -60 4 -26 14 -49 22 -52
8 -3 14 -11 14 -18 0 -7 9 -24 20 -38 11 -14 20 -33 20 -42 0 -9 9 -19 20 -22
14 -4 20 -14 20 -35 0 -21 6 -31 20 -35 11 -3 20 -14 20 -23 0 -10 9 -22 20
-25 11 -3 20 -12 20 -20 0 -7 9 -15 20 -18 11 -3 20 -12 20 -20 0 -8 9 -17 20
-20 11 -3 20 -12 20 -21 0 -9 5 -16 12 -16 12 0 68 -59 68 -72 0 -4 6 -8 14
-8 7 0 16 -9 19 -20 3 -11 12 -20 21 -20 9 0 16 -6 16 -14 0 -16 21 -26 55
-26 14 0 25 -7 28 -20 3 -12 14 -20 26 -20 12 0 21 -4 21 -10 0 -5 16 -16 35
-25 20 -8 43 -21 51 -30 9 -8 31 -15 50 -15 22 0 37 -6 40 -15 5 -11 23 -15
71 -15 35 0 62 4 59 9 -3 4 -23 7 -44 5 -21 -1 -45 2 -53 7 -8 5 -9 9 -4 9 25
1 -24 20 -51 20 -28 0 -80 31 -70 41 3 2 -7 5 -22 6 -14 0 -31 8 -38 17 -6 9
-19 16 -29 16 -9 0 -19 9 -22 20 -3 13 -14 20 -28 20 -35 0 -54 10 -49 25 4 8
-3 15 -18 17 -13 2 -22 9 -20 17 1 7 -7 15 -18 18 -11 3 -20 8 -20 12 0 13
-56 71 -68 71 -7 0 -12 7 -12 16 0 9 -9 18 -20 21 -11 3 -20 12 -20 20 0 8 -9
17 -20 20 -11 3 -20 11 -20 18 0 8 -9 17 -20 20 -11 3 -20 15 -20 25 0 9 -9
20 -20 23 -14 4 -20 14 -20 35 0 21 -6 31 -20 35 -11 3 -20 14 -20 25 0 11 -7
25 -15 32 -8 6 -17 22 -21 33 -4 12 -13 26 -20 32 -11 9 -25 61 -27 103 0 6
-8 12 -17 12 -13 0 -17 11 -19 57 -3 81 -11 80 -11 -1z"/>
<path d="M1470 911 c0 -10 19 -25 25 -20 1 2 -3 10 -11 17 -8 7 -14 8 -14 3z"/>
<path d="M2488 870 c-4 -30 -14 -60 -23 -66 -8 -6 -15 -20 -15 -32 0 -31 -11
-52 -26 -52 -8 0 -14 -10 -14 -24 0 -35 -10 -56 -26 -56 -9 0 -14 -11 -14 -29
0 -17 -8 -36 -18 -43 -9 -7 -23 -24 -30 -38 -34 -66 -44 -80 -58 -80 -7 0 -14
-8 -14 -19 0 -10 -9 -21 -20 -24 -11 -3 -20 -12 -20 -20 0 -8 -9 -17 -20 -20
-11 -3 -20 -12 -20 -20 0 -8 -9 -17 -20 -20 -11 -3 -20 -12 -20 -21 0 -9 -7
-16 -16 -16 -9 0 -18 -9 -21 -20 -3 -11 -11 -20 -19 -20 -7 0 -18 -9 -24 -20
-6 -11 -16 -20 -22 -20 -6 0 -16 -7 -22 -16 -10 -13 -26 -19 -57 -23 -4 -1 -9
-10 -12 -21 -4 -15 -14 -20 -41 -20 -24 0 -36 -5 -36 -14 0 -16 -54 -41 -69
-31 -6 3 -11 0 -11 -8 0 -17 -21 -27 -56 -27 -14 0 -24 -6 -24 -14 0 -15 -63
-31 -80 -21 -5 3 -18 1 -27 -4 -14 -8 0 -10 55 -11 57 0 72 3 72 15 0 10 10
15 29 15 16 0 36 7 45 15 8 8 19 15 25 15 21 0 61 24 61 37 0 8 13 13 36 13
27 0 37 5 41 20 3 11 14 20 24 20 11 0 28 9 39 20 11 11 24 20 30 20 5 0 14 9
20 20 6 11 17 20 24 20 8 0 16 9 19 20 3 11 12 20 21 20 9 0 16 7 16 16 0 9 9
18 20 21 11 3 20 12 20 20 0 8 9 17 20 20 11 3 20 12 20 20 0 8 9 17 20 20 11
3 20 14 20 24 0 11 7 19 14 19 14 0 24 14 58 80 7 14 21 31 30 38 10 7 18 26
18 43 0 18 5 29 14 29 16 0 26 21 26 56 0 14 6 24 14 24 15 0 26 21 26 52 0
12 7 26 16 32 11 9 14 27 12 76 l-3 65 -7 -55z"/>
<path d="M1515 901 c-3 -5 -2 -12 3 -15 5 -3 9 1 9 9 0 17 -3 19 -12 6z"/>
<path d="M2388 885 c-3 -13 0 -26 6 -29 8 -3 7 -5 -1 -5 -6 -1 -9 -9 -6 -20 3
-12 -2 -20 -16 -24 -16 -4 -20 -15 -23 -53 -2 -38 -7 -49 -20 -48 -9 1 -19 -7
-21 -17 -3 -11 0 -19 6 -19 7 0 3 -7 -7 -15 -11 -8 -14 -15 -7 -15 7 0 9 -5 6
-10 -5 -8 -12 -7 -22 1 -13 11 -14 7 -12 -31 2 -29 -1 -44 -9 -46 -7 -1 -8 0
-2 3 13 6 3 23 -14 23 -18 0 -27 -35 -13 -49 8 -8 7 -15 -2 -23 -11 -11 -12
-10 -6 0 5 10 2 13 -11 10 -26 -5 -26 -51 -1 -56 12 -3 20 4 24 17 3 12 12 21
19 21 8 0 14 5 14 11 0 6 11 24 24 40 15 18 22 36 19 49 -4 15 0 20 15 20 23
0 37 37 20 57 -8 10 -8 17 0 25 16 16 34 -1 26 -25 -3 -12 -3 -19 1 -15 11 10
24 88 15 88 -4 0 -10 11 -12 25 -6 28 4 32 26 10 8 -9 12 -23 9 -33 -3 -9 -2
-13 2 -9 14 12 23 117 10 110 -5 -3 -4 0 3 8 17 18 15 40 -3 33 -8 -4 -15 -1
-15 5 0 21 -18 11 -22 -14z"/>
<path d="M440 892 c-45 -6 -56 -12 -41 -21 7 -5 10 -14 7 -20 -11 -17 -26 -13
-26 7 -1 16 -1 16 -10 0 -6 -9 -11 -42 -12 -72 -2 -48 1 -60 22 -81 31 -30
100 -48 118 -29 7 7 12 17 12 23 0 5 6 11 14 14 8 3 17 24 21 46 4 25 11 39
17 34 7 -3 8 -1 4 5 -4 7 -2 12 3 12 6 0 11 5 11 11 0 8 -5 8 -15 -1 -12 -10
-16 -8 -24 11 -16 44 -56 68 -101 61z m45 -32 c3 -5 1 -10 -4 -10 -6 0 -11 -4
-11 -10 0 -5 10 -10 23 -10 23 0 22 1 18 -89 -1 -8 -8 -11 -21 -8 -24 6 -38
-12 -19 -24 8 -5 10 -9 4 -10 -57 -7 -76 -5 -87 10 -11 14 -11 14 3 4 12 -10
19 -10 35 1 18 14 18 15 2 21 -10 4 -25 5 -33 2 -11 -5 -14 3 -12 41 2 40 5
47 23 50 16 2 20 8 17 23 -4 16 0 19 25 19 17 0 34 -4 37 -10z m30 0 c3 -5 1
-10 -4 -10 -6 0 -11 5 -11 10 0 6 2 10 4 10 3 0 8 -4 11 -10z"/>
<path d="M1895 880 c10 -11 20 -20 23 -20 3 0 -3 9 -13 20 -10 11 -20 20 -23
20 -3 0 3 -9 13 -20z"/>
<path d="M594 868 l-19 -23 23 19 c21 18 27 26 19 26 -2 0 -12 -10 -23 -22z"/>
<path d="M30 863 c0 -10 5 -25 10 -33 8 -11 10 -7 8 18 -2 33 -18 46 -18 15z"/>
<path d="M1528 848 c-9 -5 -6 -7 9 -5 12 2 25 6 28 8 8 9 -23 6 -37 -3z"/>
<path d="M1528 813 c7 -3 16 -2 19 1 4 3 -2 6 -13 5 -11 0 -14 -3 -6 -6z"/>
<path d="M121 781 c-7 -5 -11 -13 -7 -19 3 -6 2 -13 -2 -16 -14 -8 -2 -56 14
-56 15 0 33 56 26 83 -5 19 -11 21 -31 8z"/>
<path d="M1568 743 c7 -3 16 -2 19 1 4 3 -2 6 -13 5 -11 0 -14 -3 -6 -6z"/>
<path d="M164 685 c-4 -8 -12 -15 -19 -15 -8 0 -17 -5 -20 -10 -4 -6 -1 -9 7
-8 7 2 14 -7 16 -19 4 -26 6 -27 33 -13 22 12 24 7 8 -21 -9 -17 -6 -28 17
-60 29 -42 48 -49 62 -22 11 19 -3 59 -24 67 -10 4 -11 -1 -3 -21 8 -22 8 -24
-5 -14 -8 7 -13 23 -10 36 3 16 -3 32 -16 45 -11 11 -20 31 -20 45 0 27 -17
34 -26 10z"/>
<path d="M900 685 c0 -7 16 -12 35 -12 19 0 35 4 35 8 0 4 -16 9 -35 11 -22 2
-35 0 -35 -7z"/>
<path d="M985 680 c-3 -6 1 -7 9 -4 18 7 21 14 7 14 -6 0 -13 -4 -16 -10z"/>
<path d="M1069 683 c-1 -5 -1 -12 0 -17 1 -5 -9 -6 -23 -4 -14 3 -23 1 -20 -4
4 -6 -7 -7 -25 -5 -17 3 -31 1 -31 -4 0 -5 8 -9 18 -9 14 0 14 -2 3 -9 -8 -5
-20 -7 -28 -4 -9 3 -13 -3 -13 -20 0 -20 -4 -24 -20 -20 -16 4 -23 -2 -31 -26
-9 -26 -15 -30 -33 -25 -18 6 -19 5 -8 -9 8 -9 19 -14 26 -11 7 3 13 -2 13
-10 0 -12 -7 -14 -26 -9 -14 3 -23 3 -20 -1 4 -4 19 -9 35 -11 42 -6 92 -23
72 -24 -21 -1 -25 -21 -4 -21 7 0 19 -7 26 -15 10 -12 16 -13 26 -4 20 16 17
42 -6 62 -11 9 -20 12 -20 6 0 -5 -5 -7 -10 -4 -6 4 -7 12 -3 18 4 8 2 8 -9
-1 -13 -10 -17 -10 -22 3 -9 24 5 47 25 42 11 -3 22 -1 25 4 3 5 11 9 19 9 9
0 12 -12 11 -39 -2 -34 0 -38 21 -38 13 0 26 4 30 10 4 6 1 7 -7 2 -10 -6 -12
-3 -8 13 4 13 1 22 -5 22 -8 0 -7 3 1 9 8 4 13 12 12 17 -1 5 4 10 11 13 7 2
9 -1 5 -8 -5 -7 -1 -9 10 -4 11 4 15 2 11 -4 -4 -6 0 -13 8 -17 21 -8 19 -23
-4 -29 -17 -4 -18 -8 -7 -41 10 -33 39 -60 35 -33 -4 36 1 48 21 42 28 -9 42
2 30 25 -8 15 -6 17 9 13 11 -3 18 -10 15 -17 -3 -7 4 -20 14 -30 19 -16 20
-16 26 7 9 38 52 43 48 5 -2 -12 27 -17 34 -6 4 7 3 8 -4 4 -15 -9 -15 -6 3
37 13 31 13 36 -1 41 -25 10 -36 7 -28 -6 6 -9 3 -9 -9 0 -14 12 -19 12 -32
-2 -18 -18 -55 -22 -55 -5 0 5 5 7 12 3 6 -4 8 -3 5 3 -5 7 -20 8 -44 3 -44
-10 -45 -9 -50 31 -2 21 1 28 9 23 7 -5 8 -3 3 6 -6 10 -12 7 -25 -10 -12 -16
-24 -21 -38 -18 -13 4 -23 0 -26 -9 -5 -12 -11 -10 -27 11 -29 37 -20 54 30
50 22 -1 46 -6 52 -10 7 -4 10 -1 7 7 -3 8 -11 14 -19 14 -8 0 -14 9 -13 23 1
20 -4 32 -7 15z m-84 -71 c-3 -3 0 -11 6 -18 8 -9 5 -11 -10 -7 -24 6 -28 30
-6 30 8 0 13 -3 10 -5z"/>
<path d="M720 666 c0 -2 7 -7 16 -10 8 -3 12 -2 9 4 -6 10 -25 14 -25 6z"/>
<path d="M804 659 c-22 -8 -38 -55 -23 -65 5 -3 6 -17 3 -31 -6 -21 -4 -24 12
-21 13 2 18 10 16 26 -2 14 2 22 12 22 8 0 19 7 23 15 5 8 17 16 28 18 60 13
85 20 85 27 0 3 -6 7 -12 8 -84 8 -127 8 -144 1z"/>
<path d="M1125 650 c-3 -5 -1 -11 5 -15 5 -3 10 -3 10 1 0 3 6 1 13 -5 10 -8
19 -7 33 4 10 8 15 15 9 16 -47 7 -65 7 -70 -1z"/>
<path d="M1608 643 c7 -3 16 -2 19 1 4 3 -2 6 -13 5 -11 0 -14 -3 -6 -6z"/>
<path d="M2000 634 c0 -10 5 -26 10 -34 7 -11 8 -8 6 13 -3 32 -16 49 -16 21z"/>
<path d="M482 585 c0 -16 2 -22 5 -12 2 9 2 23 0 30 -3 6 -5 -1 -5 -18z"/>
<path d="M1174 588 c-4 -6 -3 -8 4 -4 5 3 12 1 14 -6 3 -8 6 -9 11 -1 4 6 0
13 -8 17 -8 3 -17 0 -21 -6z"/>
<path d="M1670 589 c0 -5 5 -7 10 -4 6 3 10 8 10 11 0 2 -4 4 -10 4 -5 0 -10
-5 -10 -11z"/>
<path d="M1255 580 c3 -5 8 -10 11 -10 2 0 4 5 4 10 0 6 -5 10 -11 10 -5 0 -7
-4 -4 -10z"/>
<path d="M1304 582 c4 -3 14 -7 22 -8 9 -1 13 0 10 4 -4 3 -14 7 -22 8 -9 1
-13 0 -10 -4z"/>
<path d="M746 562 c-3 -5 1 -9 9 -9 8 0 15 4 15 9 0 4 -4 8 -9 8 -6 0 -12 -4
-15 -8z"/>
<path d="M1382 539 c-16 -25 -6 -45 15 -28 12 10 16 10 24 -2 7 -11 9 -9 9 9
0 13 -4 21 -9 17 -6 -3 -14 1 -18 10 -7 12 -10 11 -21 -6z"/>
<path d="M1441 533 c0 -4 4 -17 9 -28 8 -19 9 -19 9 2 1 12 -3 25 -9 28 -5 3
-10 3 -9 -2z"/>
<path d="M800 520 c11 -7 11 -10 2 -10 -7 0 -10 -4 -7 -10 3 -5 11 -10 17 -10
6 0 8 3 5 7 -4 3 -3 11 3 17 6 8 2 12 -13 13 -17 2 -19 0 -7 -7z"/>
<path d="M676 508 c3 -5 10 -6 15 -3 13 9 11 12 -6 12 -8 0 -12 -4 -9 -9z"/>
<path d="M1640 510 c0 -6 7 -10 15 -10 8 0 15 2 15 4 0 2 -7 6 -15 10 -8 3
-15 1 -15 -4z"/>
<path d="M267 503 c-13 -12 -7 -41 9 -47 22 -9 34 1 34 30 0 17 -6 24 -18 24
-10 0 -22 -3 -25 -7z"/>
<path d="M826 475 c-3 -8 -1 -15 4 -15 6 0 10 7 10 15 0 8 -2 15 -4 15 -2 0
-6 -7 -10 -15z"/>
<path d="M1380 470 c0 -5 -3 -9 -7 -9 -35 6 -44 -2 -38 -30 4 -21 2 -30 -10
-35 -9 -3 -13 -11 -9 -17 4 -8 0 -9 -15 -4 -12 4 -21 2 -21 -4 0 -6 5 -11 10
-11 6 0 10 -12 10 -26 0 -14 4 -34 10 -44 8 -15 5 -19 -15 -23 -14 -2 -28 0
-32 6 -3 5 -1 7 4 4 6 -4 16 0 23 8 13 15 8 19 -21 16 -9 -1 -19 6 -23 15 -5
14 -9 14 -23 3 -15 -12 -16 -12 -10 4 3 9 2 17 -3 17 -6 0 -10 -10 -10 -22 -1
-21 -2 -21 -11 -5 -12 21 -4 37 19 37 14 0 14 2 3 9 -20 13 -74 -38 -60 -55 6
-7 16 -11 23 -8 7 3 19 -2 26 -10 7 -9 16 -13 21 -10 5 3 9 -1 9 -8 0 -9 3 -9
10 2 8 12 10 11 10 -7 0 -15 8 -23 28 -26 40 -8 62 -5 62 7 0 6 5 4 11 -4 8
-12 12 -12 16 -2 4 10 9 9 20 -5 8 -10 12 -12 8 -5 -5 9 17 11 99 7 58 -2 105
-1 105 3 -5 29 3 42 26 42 26 0 33 14 14 26 -8 4 -8 9 0 17 14 14 14 30 1 22
-5 -3 -10 -1 -10 5 0 7 -5 10 -11 8 -6 -2 -10 -8 -10 -13 0 -6 -15 -18 -34
-28 -19 -9 -35 -25 -36 -35 0 -10 -3 -12 -6 -4 -2 6 -10 9 -16 5 -17 -10 -32
-12 -111 -15 -57 -2 -71 1 -82 17 -12 16 -12 22 1 41 16 25 19 38 7 30 -4 -2
-8 4 -8 14 0 10 6 16 16 15 8 -2 17 -4 20 -4 3 -1 -2 -6 -10 -11 -11 -7 -11
-10 -2 -10 10 0 10 -5 2 -22 -11 -22 -10 -22 4 -4 9 10 13 24 9 29 -4 6 0 8 9
5 8 -4 21 -2 29 2 8 5 19 4 26 -2 9 -7 13 -7 13 0 0 17 -32 23 -48 10 -13 -11
-15 -10 -9 6 6 15 5 17 -6 7 -12 -9 -14 -5 -13 21 1 36 13 50 37 43 8 -3 24 2
35 11 19 15 19 15 -1 5 -13 -6 -27 -6 -38 0 -11 7 -17 6 -17 -1z m-206 -161
c-3 -5 -10 -7 -15 -3 -5 3 -7 10 -3 15 3 5 10 7 15 3 5 -3 7 -10 3 -15z"/>
<path d="M312 454 c-12 -8 -28 -12 -35 -8 -6 4 8 -15 33 -42 51 -56 147 -145
136 -127 -4 7 0 23 9 37 18 27 4 46 -19 27 -17 -14 -29 -2 -14 16 16 20 -5 41
-25 25 -18 -15 -30 -3 -15 15 16 20 -5 41 -25 25 -8 -7 -17 -9 -20 -5 -4 3 -2
12 5 20 18 22 -4 35 -30 17z"/>
<path d="M1490 445 c0 -18 -5 -25 -19 -25 -14 0 -20 -9 -23 -35 -2 -19 0 -39
6 -45 5 -5 7 -13 3 -16 -3 -4 -13 1 -22 10 -19 19 -38 21 -33 4 7 -20 60 -36
66 -20 2 6 8 10 13 6 13 -8 11 10 -3 24 -9 9 -9 12 3 12 12 0 12 2 0 9 -21 14
15 28 67 26 23 0 42 3 42 7 0 4 -5 8 -11 8 -5 0 -7 5 -3 12 5 7 3 8 -7 2 -21
-13 -49 -15 -49 -3 0 5 4 8 9 4 6 -3 15 4 21 15 9 16 8 20 -5 20 -10 0 -14 -5
-10 -12 4 -7 0 -5 -8 5 -20 24 -37 21 -37 -8z m-10 -45 c0 -5 -4 -10 -10 -10
-5 0 -10 5 -10 10 0 6 5 10 10 10 6 0 10 -4 10 -10z"/>
<path d="M2156 462 c-8 -14 1 -47 13 -44 6 1 11 -2 11 -8 0 -13 -7 -13 -33 4
-20 13 -24 12 -49 -14 -24 -25 -25 -30 -13 -46 17 -23 19 -34 5 -34 -5 0 -9 5
-7 12 1 7 -9 12 -23 12 -16 1 -26 -5 -28 -18 -3 -13 0 -16 9 -11 7 5 10 4 6
-2 -4 -6 0 -14 9 -17 11 -4 38 16 86 64 68 68 70 71 52 86 -10 9 -13 12 -5 8
9 -5 12 -3 7 4 -8 14 -32 16 -40 4z"/>
<path d="M695 440 c-3 -5 -1 -10 4 -10 6 0 11 5 11 10 0 6 -2 10 -4 10 -3 0
-8 -4 -11 -10z"/>
<path d="M850 442 c0 -4 9 -8 20 -8 11 0 20 4 20 8 0 4 -9 8 -20 8 -11 0 -20
-4 -20 -8z"/>
<path d="M1374 438 c-4 -7 -3 -8 4 -4 8 4 12 0 12 -10 0 -13 3 -15 11 -7 12
12 4 33 -11 33 -5 0 -12 -5 -16 -12z"/>
<path d="M1425 440 c3 -5 10 -10 16 -10 5 0 9 5 9 10 0 6 -7 10 -16 10 -8 0
-12 -4 -9 -10z"/>
<path d="M1220 433 c1 -5 11 -21 24 -36 l23 -28 1 32 c0 22 -2 28 -7 20 -5 -8
-14 -10 -21 -6 -9 6 -9 9 1 16 11 7 10 9 -3 9 -10 0 -18 -3 -18 -7z"/>
<path d="M1015 414 c-18 -19 -19 -25 -2 -21 7 1 12 -8 11 -25 -1 -23 1 -25 17
-15 13 8 15 15 8 23 -7 8 -6 14 1 19 14 9 12 22 -5 29 -8 3 -21 -2 -30 -10z"/>
<path d="M880 407 c0 -5 6 -7 14 -4 9 4 16 -1 18 -11 3 -13 5 -12 10 5 5 19 2
22 -18 21 -13 -1 -24 -6 -24 -11z"/>
<path d="M1068 347 c-15 -32 -15 -33 7 -33 14 0 21 4 18 11 -4 5 3 2 14 -8 20
-17 21 -17 26 2 4 16 -1 21 -22 23 -18 2 -25 8 -23 21 4 26 -3 21 -20 -16z"/>
<path d="M1567 367 c-3 -8 1 -14 9 -14 8 0 14 6 14 14 0 7 -4 13 -9 13 -5 0
-11 -6 -14 -13z"/>
<path d="M456 301 c-4 -5 -3 -17 0 -26 10 -24 48 -15 52 13 3 18 -1 22 -22 22
-14 0 -27 -4 -30 -9z"/>
<path d="M1985 299 c-4 -6 1 -17 11 -24 34 -26 60 -15 43 16 -11 21 -44 25
-54 8z"/>
<path d="M512 268 c-20 -20 -14 -34 27 -62 32 -22 42 -25 65 -17 14 6 26 15
26 20 0 12 -25 21 -49 16 -11 -2 -24 1 -27 7 -4 7 -2 8 4 4 7 -4 12 -1 12 8 0
8 -9 20 -19 26 -24 13 -24 13 -39 -2z"/>
<path d="M1942 273 c-15 -3 -22 -10 -19 -21 2 -9 9 -16 16 -14 7 1 10 -1 8 -5
-3 -5 -21 -8 -41 -7 -42 2 -49 -17 -13 -33 20 -9 31 -6 67 18 23 16 47 26 52
23 5 -3 4 3 -3 14 -7 12 -17 18 -21 16 -4 -3 -8 0 -8 5 0 6 -3 10 -7 10 -5 -1
-18 -4 -31 -6z"/>
<path d="M1665 230 c3 -5 8 -10 11 -10 2 0 4 5 4 10 0 6 -5 10 -11 10 -5 0 -7
-4 -4 -10z"/>
<path d="M1700 222 c0 -4 8 -12 18 -18 14 -9 18 -8 18 5 0 10 -8 18 -18 18
-10 1 -18 -1 -18 -5z"/>
<path d="M625 180 c-20 -22 -19 -30 5 -30 10 0 24 -8 30 -17 10 -17 10 -16 8
2 -2 11 3 20 10 21 6 1 15 3 20 4 4 1 10 2 14 1 4 0 5 5 2 13 -8 21 -72 25
-89 6z"/>
<path d="M1825 191 c-11 -5 -24 -6 -29 -3 -5 3 -5 -1 0 -9 5 -8 9 -17 9 -21 0
-3 4 -10 9 -15 5 -5 6 -3 2 5 -4 6 -2 12 3 12 6 0 11 -5 11 -11 0 -6 9 -8 23
-3 12 4 30 7 39 6 10 0 21 4 24 10 5 7 2 9 -8 5 -9 -3 -24 3 -34 14 -19 21
-20 21 -49 10z"/>
<path d="M1695 148 c-7 -5 -11 -17 -8 -28 4 -14 1 -19 -8 -16 -30 10 -79 14
-84 6 -8 -13 5 -38 22 -44 12 -5 13 -4 5 7 -9 11 -8 13 6 12 9 -1 24 -5 33 -9
19 -8 87 -2 97 9 4 5 -1 5 -12 1 -22 -8 -46 10 -45 33 0 11 2 12 6 3 3 -9 9
-10 18 -2 9 7 16 6 24 -4 9 -11 19 -12 36 -6 13 5 26 7 29 5 4 -3 -2 5 -13 17
-20 21 -79 30 -106 16z"/>
<path d="M697 130 c-6 -23 12 -27 78 -17 6 1 9 -9 7 -22 -2 -21 1 -23 30 -19
18 3 41 8 51 13 13 6 16 4 11 -9 -5 -12 -2 -15 10 -10 9 3 13 10 10 15 -3 5 3
9 13 9 17 1 17 1 -1 15 -18 13 -54 14 -87 0 -10 -4 -19 0 -22 9 -4 9 -2 16 3
16 6 0 10 5 10 10 0 6 -24 10 -54 10 -45 0 -54 -3 -59 -20z"/>
<path d="M730 79 c0 -5 9 -9 20 -9 11 0 20 4 20 8 0 4 -9 8 -20 9 -11 1 -20
-2 -20 -8z"/>
<path d="M900 60 c-12 -22 -4 -30 31 -30 21 0 27 -4 23 -15 -4 -8 -1 -15 6
-15 6 0 9 4 6 9 -11 17 21 31 62 28 43 -3 83 15 61 29 -7 4 -50 8 -96 9 -70 2
-85 -1 -93 -15z"/>
<path d="M1425 72 c-2 -2 -11 -5 -21 -6 -10 -2 -20 -8 -22 -15 -3 -9 2 -11 17
-6 15 4 21 2 21 -9 0 -12 -5 -14 -22 -7 -13 4 -77 7 -143 6 -75 -1 -125 2
-134 9 -11 8 -13 8 -7 -1 7 -13 -3 -16 -47 -16 -14 0 -16 -2 -7 -11 15 -15
360 -17 360 -2 0 6 5 4 10 -4 8 -12 11 -13 19 -1 7 11 10 11 15 0 3 -8 3 -4 0
9 -5 19 -1 22 24 22 29 0 58 -21 45 -33 -3 -4 -1 -7 6 -7 8 0 11 7 7 15 -4 11
2 15 25 15 24 0 30 4 25 16 -3 9 -6 19 -6 23 0 7 -158 10 -165 3z m25 -42 c0
-5 -4 -10 -10 -10 -5 0 -10 5 -10 10 0 6 5 10 10 10 6 0 10 -4 10 -10z"/>
<path d="M820 46 c0 -9 30 -14 35 -6 4 6 -3 10 -14 10 -12 0 -21 -2 -21 -4z"/>
<path d="M1635 40 c4 -6 11 -8 16 -5 14 9 11 15 -7 15 -8 0 -12 -5 -9 -10z"/>
</g>
</svg>
