<?xml version="1.0" standalone="no"?>
<!DOCTYPE svg PUBLIC "-//W3C//DTD SVG 20010904//EN"
 "http://www.w3.org/TR/2001/REC-SVG-20010904/DTD/svg10.dtd">
<svg version="1.0" xmlns="http://www.w3.org/2000/svg"
 width="250.000000pt" height="250.000000pt" viewBox="0 0 250.000000 250.000000"
 preserveAspectRatio="xMidYMid meet">
<metadata>
Created by potrace 1.16, written by Peter Selinger 2001-2019
</metadata>
<g transform="translate(0.000000,250.000000) scale(0.100000,-0.100000)"
fill="#000000" stroke="none">
<path d="M803 2420 c0 -47 2 -66 4 -42 2 23 2 61 0 85 -2 23 -4 4 -4 -43z"/>
<path d="M880 2376 l0 -124 83 -204 c46 -111 87 -211 90 -222 6 -15 13 -17 40
-11 119 25 274 23 327 -5 24 -13 30 -13 30 0 0 11 43 120 129 328 l51 122 0
120 c0 102 -2 120 -16 120 -13 0 -15 -18 -13 -125 1 -99 -2 -130 -15 -149 -8
-13 -17 -35 -20 -48 -5 -31 -68 -171 -79 -179 -5 -4 -6 -13 -1 -20 6 -12 5
-12 -9 0 -13 10 -15 17 -6 27 7 9 8 14 1 14 -5 0 -18 -12 -27 -27 -15 -22 -15
-25 -2 -20 9 3 18 -1 21 -9 8 -21 7 -26 -3 -20 -5 3 -11 -3 -14 -14 -3 -11 -1
-18 4 -14 5 3 9 -2 9 -11 0 -9 -4 -14 -9 -11 -5 4 -12 -8 -16 -25 -5 -24 -11
-29 -23 -23 -28 12 -303 14 -296 2 4 -6 -3 -5 -16 2 -12 6 -24 9 -28 6 -3 -3
0 -6 6 -6 7 0 12 -5 12 -11 0 -8 -5 -8 -15 1 -8 7 -13 16 -10 20 3 5 -4 28
-14 53 -14 33 -18 61 -15 108 2 44 0 59 -6 49 -6 -8 -8 -26 -5 -40 3 -14 0
-32 -6 -40 -9 -13 -10 -12 -5 2 3 10 0 20 -5 24 -6 3 -9 15 -6 25 3 11 1 19
-4 19 -5 0 -9 7 -9 15 0 18 17 20 22 3 3 -8 7 -6 10 4 5 13 1 15 -18 13 -16
-1 -28 4 -32 14 -3 9 -12 22 -19 29 -7 7 -13 19 -13 25 0 7 4 6 10 -3 8 -13
10 -13 10 1 0 9 -7 22 -15 29 -17 14 -21 45 -5 35 6 -3 10 -1 10 4 0 6 -9 11
-20 11 -19 0 -20 7 -20 130 0 109 -2 130 -15 130 -13 0 -15 -20 -15 -124z"/>
<path d="M563 2405 c0 -11 4 -12 14 -4 7 6 13 13 13 15 0 2 -6 4 -13 4 -8 0
-14 -7 -14 -15z"/>
<path d="M1672 2390 c0 -19 2 -27 5 -17 2 9 2 25 0 35 -3 9 -5 1 -5 -18z"/>
<path d="M1760 2395 c0 -14 2 -25 4 -25 2 0 6 11 8 25 3 14 1 25 -3 25 -5 0
-9 -11 -9 -25z"/>
<path d="M1797 2413 c-11 -11 -8 -20 9 -27 9 -4 13 -2 8 5 -4 6 0 15 7 20 11
7 11 9 -2 9 -9 0 -19 -3 -22 -7z"/>
<path d="M1913 2410 c2 -8 14 -16 28 -17 19 -1 20 -1 4 4 -11 3 -24 10 -28 17
-6 7 -7 6 -4 -4z"/>
<path d="M372 2137 c-144 -144 -262 -265 -262 -268 0 -4 37 -44 82 -89 85 -86
100 -94 293 -172 55 -22 131 -53 170 -70 65 -29 70 -29 80 -13 58 99 159 201
229 230 l36 15 -19 38 c-10 20 -53 123 -96 227 l-77 190 -87 87 -86 88 -263
-263z m252 201 c-5 -7 -1 -9 13 -6 15 4 20 1 19 -11 -1 -10 7 -16 21 -15 12 0
23 -7 26 -16 3 -13 -3 -17 -24 -17 -21 0 -31 7 -38 26 -8 21 -10 22 -10 6 0
-11 3 -25 7 -31 7 -13 60 -13 78 -1 8 4 11 -6 10 -35 -1 -29 3 -42 14 -45 13
-4 13 -3 0 7 -11 8 -12 13 -3 16 7 3 9 12 6 20 -8 21 10 17 25 -6 10 -16 10
-20 0 -20 -7 -1 -3 -6 9 -13 12 -7 21 -16 21 -20 0 -4 13 -36 28 -70 16 -34
29 -66 30 -72 0 -5 9 -28 19 -50 20 -46 29 -119 12 -108 -6 3 -7 1 -3 -5 14
-23 28 -12 23 16 -4 19 0 15 14 -15 27 -59 36 -107 18 -101 -8 3 -20 -2 -27
-11 -9 -12 -12 -12 -10 -2 2 7 -3 16 -10 18 -7 3 -10 -1 -7 -10 4 -8 -8 -26
-29 -45 -19 -16 -32 -34 -28 -38 4 -5 -2 -2 -12 6 -11 8 -17 10 -13 4 6 -11
-28 -65 -45 -72 -5 -2 -8 -11 -8 -20 -1 -24 -22 -47 -45 -49 -29 -2 -78 26
-71 42 4 11 0 12 -17 4 -18 -8 -33 -5 -74 15 -28 15 -65 29 -81 32 -21 4 -29
11 -25 20 3 9 -1 14 -12 14 -9 0 -13 -4 -10 -10 9 -15 -7 -11 -30 7 -11 9 -14
14 -5 11 8 -3 24 -2 35 3 14 6 8 7 -20 5 -40 -4 -95 16 -95 34 0 6 4 10 8 10
4 0 8 8 8 18 0 10 -8 18 -18 18 -12 0 -14 -4 -8 -10 16 -16 12 -26 -9 -23 -25
4 -52 27 -45 38 3 5 -1 9 -9 9 -8 0 -20 7 -27 15 -8 9 -8 15 -2 15 6 0 12 -3
15 -7 2 -5 2 -2 1 5 -2 6 1 12 5 12 5 0 12 -6 14 -12 3 -7 6 -8 6 -3 1 18 -19
41 -26 30 -13 -17 -33 -16 -51 2 -16 15 -16 16 0 11 9 -4 29 -3 45 2 24 7 22
8 -22 9 l-49 1 34 30 c38 32 52 37 44 16 -3 -7 2 -16 10 -19 12 -5 14 1 11 24
-2 16 1 27 6 24 5 -4 9 -1 9 4 0 6 7 11 15 11 8 0 15 5 15 10 0 6 -5 10 -11
10 -5 0 -8 4 -4 10 3 5 12 7 20 3 18 -6 20 13 3 21 -7 3 -2 4 12 3 19 -1 24 2
22 15 -1 10 6 23 18 30 11 7 20 19 20 26 0 8 7 11 18 8 9 -3 24 -1 32 5 12 8
10 9 -7 4 -13 -3 -23 -3 -23 2 1 12 80 69 92 65 5 -1 7 2 4 7 -4 5 -2 12 4 16
6 4 9 9 6 13 -2 4 10 17 25 30 20 16 27 19 23 8 -3 -9 -1 -16 5 -16 6 0 11 14
11 31 0 18 4 28 10 24 6 -4 8 -11 5 -16 -4 -5 -1 -9 4 -9 6 0 11 10 11 22 0
12 10 32 22 45 23 25 34 30 22 11z"/>
<path d="M600 2280 c0 -11 4 -20 8 -20 4 0 8 9 8 20 0 11 -4 20 -8 20 -4 0 -8
-9 -8 -20z"/>
<path d="M508 2183 c7 -3 16 -2 19 1 4 3 -2 6 -13 5 -11 0 -14 -3 -6 -6z"/>
<path d="M461 2146 c-7 -8 -8 -17 -3 -20 6 -3 13 1 16 10 9 23 2 28 -13 10z"/>
<path d="M816 2081 c-4 -7 -5 -15 -2 -18 9 -9 19 4 14 18 -4 11 -6 11 -12 0z"/>
<path d="M380 2060 c-13 -8 -12 -10 3 -10 9 0 17 5 17 10 0 12 -1 12 -20 0z"/>
<path d="M830 2039 c0 -5 -4 -7 -10 -4 -5 3 -10 1 -10 -4 0 -6 7 -11 15 -11 8
0 15 7 15 15 0 8 -2 15 -5 15 -3 0 -5 -5 -5 -11z"/>
<path d="M358 2023 c7 -3 16 -2 19 1 4 3 -2 6 -13 5 -11 0 -14 -3 -6 -6z"/>
<path d="M300 1950 c0 -5 5 -10 11 -10 5 0 7 5 4 10 -3 6 -8 10 -11 10 -2 0
-4 -4 -4 -10z"/>
<path d="M185 1890 c-3 -5 -1 -10 4 -10 6 0 11 5 11 10 0 6 -2 10 -4 10 -3 0
-8 -4 -11 -10z"/>
<path d="M459 1682 c11 -8 11 -10 0 -15 -10 -4 -8 -6 4 -6 21 -1 18 21 -4 27
-12 3 -12 2 0 -6z"/>
<path d="M723 1592 c-1 -22 0 -24 9 -8 6 10 6 22 2 26 -5 5 -10 -3 -11 -18z"/>
<path d="M706 2383 c-6 -14 -5 -15 5 -6 7 7 10 15 7 18 -3 3 -9 -2 -12 -12z"/>
<path d="M1781 2310 c-88 -93 -89 -94 -191 -350 -21 -52 -47 -115 -58 -140
l-21 -44 52 -30 c65 -37 182 -155 198 -201 15 -40 15 -40 55 -21 16 8 67 30
114 49 329 137 298 120 390 212 l85 85 -265 265 c-146 146 -267 264 -270 264
-3 -1 -43 -41 -89 -89z m107 42 c-4 -11 115 -128 127 -124 5 2 7 0 3 -4 -4 -4
-2 -14 5 -22 10 -13 9 -15 -6 -9 -11 4 -16 3 -12 -4 4 -6 14 -8 22 -4 10 3 22
-3 30 -15 8 -11 21 -20 29 -20 10 0 13 -7 8 -25 -4 -16 -2 -25 6 -25 6 0 8 5
5 10 -3 6 -2 10 4 10 6 0 15 -9 21 -19 5 -11 24 -28 40 -38 30 -18 42 -37 16
-27 -8 3 -16 1 -20 -4 -3 -5 8 -8 24 -7 16 1 27 -2 24 -6 -3 -5 11 -19 30 -31
19 -13 37 -31 40 -41 2 -10 14 -21 25 -24 12 -3 17 -11 14 -19 -3 -8 2 -17 11
-20 16 -6 22 -30 9 -36 -5 -1 -26 -23 -48 -48 -22 -25 -45 -44 -52 -42 -7 2
-13 -4 -13 -12 0 -13 -101 -69 -145 -80 -5 -2 -26 -10 -45 -18 -46 -20 -74
-30 -79 -28 -2 1 -8 -4 -12 -12 -5 -7 -9 -8 -9 -2 0 5 -17 10 -37 11 -27 0
-32 -1 -18 -7 19 -7 19 -7 -3 -14 -12 -4 -20 -12 -17 -17 4 -5 2 -9 -4 -9 -16
0 -25 22 -11 30 9 5 9 9 1 14 -6 4 -11 1 -11 -6 0 -9 -3 -9 -10 2 -9 13 -11
13 -20 0 -5 -8 -10 -28 -10 -45 l0 -30 -16 32 c-9 18 -20 30 -25 27 -5 -3 -9
-1 -9 5 0 5 -12 23 -26 40 -14 17 -22 31 -17 31 4 1 -4 7 -19 16 -17 9 -25 20
-22 29 6 15 -11 22 -19 8 -2 -5 -2 -3 -1 4 2 6 -2 14 -9 17 -9 3 -9 7 1 14 11
7 10 11 -4 16 -9 3 -19 4 -22 1 -3 -3 1 -5 8 -5 11 0 11 -3 2 -12 -9 -9 -15
-8 -25 7 -8 10 -19 15 -25 11 -17 -11 -22 8 -11 48 6 23 14 34 21 30 7 -5 9
-1 5 9 -4 10 -2 17 4 17 6 0 9 7 6 15 -4 8 -2 17 3 20 6 4 10 15 10 26 0 10 4
19 9 19 5 0 12 12 17 28 4 15 8 29 9 32 1 3 5 17 9 33 5 15 12 27 17 27 5 0 8
3 7 8 -1 4 6 24 15 46 9 21 17 43 17 48 0 32 69 91 96 81 6 -2 17 3 24 12 11
13 11 18 0 28 -10 10 -11 9 -5 -2 5 -10 4 -12 -4 -7 -13 9 -5 26 12 26 7 0 20
9 30 20 17 20 29 26 25 12z m-68 -72 c0 -5 -4 -10 -10 -10 -5 0 -10 5 -10 10
0 6 5 10 10 10 6 0 10 -4 10 -10z m10 -705 c0 -8 -4 -15 -10 -15 -5 0 -10 7
-10 15 0 8 5 15 10 15 6 0 10 -7 10 -15z"/>
<path d="M1923 2277 c0 -8 6 -14 14 -14 9 0 10 4 2 14 -6 7 -12 13 -14 13 -1
0 -2 -6 -2 -13z"/>
<path d="M1742 2218 c-16 -16 -15 -35 2 -35 8 0 13 10 12 24 0 12 -1 23 -1 23
-1 0 -6 -5 -13 -12z"/>
<path d="M1664 2036 c-3 -14 -2 -31 3 -40 6 -11 9 -3 9 24 2 46 -3 51 -12 16z"/>
<path d="M2246 1967 c3 -10 9 -15 12 -12 3 3 0 11 -7 18 -10 9 -11 8 -5 -6z"/>
<path d="M1646 1957 c3 -10 9 -15 12 -12 3 3 0 11 -7 18 -10 9 -11 8 -5 -6z"/>
<path d="M1566 1804 c-4 -9 -4 -19 -1 -22 3 -3 5 0 5 7 0 7 5 9 10 6 6 -3 10
1 10 9 0 21 -16 20 -24 0z"/>
<path d="M1665 1750 c-3 -5 -1 -10 4 -10 6 0 11 5 11 10 0 6 -2 10 -4 10 -3 0
-8 -4 -11 -10z"/>
<path d="M1713 1685 c21 -20 43 -24 43 -6 0 11 -9 16 -27 17 -21 1 -25 -2 -16
-11z"/>
<path d="M2060 1685 c0 -8 29 -12 39 -5 9 5 4 8 -13 8 -14 0 -26 -2 -26 -3z"/>
<path d="M2010 1670 c20 -13 43 -13 35 0 -3 6 -16 10 -28 10 -18 0 -19 -2 -7
-10z"/>
<path d="M1730 1652 c0 -12 19 -26 26 -19 2 2 -2 10 -11 17 -9 8 -15 8 -15 2z"/>
<path d="M1981 2369 c0 -15 5 -31 12 -37 15 -13 87 -11 87 2 0 4 -15 6 -32 2
-40 -7 -55 1 -61 34 l-4 25 -2 -26z"/>
<path d="M928 2309 c-1 -28 0 -53 5 -56 4 -2 7 21 7 51 0 70 -7 73 -12 5z"/>
<path d="M484 2320 c0 -13 4 -16 10 -10 7 7 7 13 0 20 -6 6 -10 3 -10 -10z"/>
<path d="M765 2330 c-3 -5 -1 -10 4 -10 6 0 11 5 11 10 0 6 -2 10 -4 10 -3 0
-8 -4 -11 -10z"/>
<path d="M1680 2331 c0 -5 9 -7 20 -4 11 3 20 7 20 9 0 2 -9 4 -20 4 -11 0
-20 -4 -20 -9z"/>
<path d="M1738 2333 c7 -3 16 -2 19 1 4 3 -2 6 -13 5 -11 0 -14 -3 -6 -6z"/>
<path d="M1700 2301 c0 -5 5 -13 10 -16 6 -3 10 -2 10 4 0 5 -4 13 -10 16 -5
3 -10 2 -10 -4z"/>
<path d="M2045 2300 c-3 -5 -1 -10 4 -10 6 0 11 5 11 10 0 6 -2 10 -4 10 -3 0
-8 -4 -11 -10z"/>
<path d="M1680 2281 c0 -6 4 -13 10 -16 6 -3 7 1 4 9 -7 18 -14 21 -14 7z"/>
<path d="M2072 2265 c0 -16 2 -22 5 -12 2 9 2 23 0 30 -3 6 -5 -1 -5 -18z"/>
<path d="M404 2240 c0 -13 4 -16 10 -10 7 7 7 13 0 20 -6 6 -10 3 -10 -10z"/>
<path d="M2146 2245 c4 -8 8 -15 10 -15 2 0 4 7 4 15 0 8 -4 15 -10 15 -5 0
-7 -7 -4 -15z"/>
<path d="M2110 2240 c0 -5 5 -10 11 -10 5 0 7 5 4 10 -3 6 -8 10 -11 10 -2 0
-4 -4 -4 -10z"/>
<path d="M2130 2210 c0 -5 5 -10 10 -10 6 0 10 5 10 10 0 6 -4 10 -10 10 -5 0
-10 -4 -10 -10z"/>
<path d="M860 2175 c0 -8 2 -15 4 -15 2 0 6 7 10 15 3 8 1 15 -4 15 -6 0 -10
-7 -10 -15z"/>
<path d="M1526 2183 c6 -4 14 -15 17 -23 5 -11 6 -9 4 4 -1 11 -9 21 -17 23
-10 3 -11 2 -4 -4z"/>
<path d="M326 2168 c3 -4 11 -5 19 -1 21 7 19 12 -4 10 -11 0 -18 -5 -15 -9z"/>
<path d="M2185 2170 c-3 -5 -1 -10 4 -10 6 0 11 5 11 10 0 6 -2 10 -4 10 -3 0
-8 -4 -11 -10z"/>
<path d="M2220 2169 c0 -5 5 -7 10 -4 6 3 10 8 10 11 0 2 -4 4 -10 4 -5 0 -10
-5 -10 -11z"/>
<path d="M1523 2130 c0 -23 3 -28 9 -16 5 9 5 23 0 32 -6 12 -9 7 -9 -16z"/>
<path d="M2221 2140 c0 -8 4 -24 9 -35 5 -13 9 -14 9 -5 0 8 -4 24 -9 35 -5
13 -9 14 -9 5z"/>
<path d="M1615 2130 c-3 -5 -1 -10 4 -10 6 0 11 5 11 10 0 6 -2 10 -4 10 -3 0
-8 -4 -11 -10z"/>
<path d="M246 2088 c3 -4 11 -5 19 -1 21 7 19 12 -4 10 -11 0 -18 -5 -15 -9z"/>
<path d="M1586 2063 c-6 -14 -5 -15 5 -6 7 7 10 15 7 18 -3 3 -9 -2 -12 -12z"/>
<path d="M2302 2040 c0 -14 2 -19 5 -12 2 6 2 18 0 25 -3 6 -5 1 -5 -13z"/>
<path d="M164 2000 c0 -13 4 -16 10 -10 7 7 7 13 0 20 -6 6 -10 3 -10 -10z"/>
<path d="M2337 2008 c-7 -4 3 -6 21 -4 18 2 36 6 39 10 9 9 -45 3 -60 -6z"/>
<path d="M65 1981 c-3 -5 -1 -12 5 -16 5 -3 10 1 10 9 0 18 -6 21 -15 7z"/>
<path d="M2355 1970 c-3 -5 -1 -10 4 -10 6 0 11 5 11 10 0 6 -2 10 -4 10 -3 0
-8 -4 -11 -10z"/>
<path d="M960 1950 c0 -5 5 -10 11 -10 5 0 7 5 4 10 -3 6 -8 10 -11 10 -2 0
-4 -4 -4 -10z"/>
<path d="M2382 1948 c2 -6 10 -14 16 -16 7 -2 10 2 6 12 -7 18 -28 22 -22 4z"/>
<path d="M90 1926 c7 -7 14 -6 21 1 9 9 7 12 -9 10 -14 -1 -18 -5 -12 -11z"/>
<path d="M1523 1905 c0 -8 4 -12 9 -9 5 3 6 10 3 15 -9 13 -12 11 -12 -6z"/>
<path d="M2431 1903 c0 -5 4 -17 9 -28 8 -18 9 -17 9 8 1 15 -3 27 -9 27 -5 0
-10 -3 -9 -7z"/>
<path d="M2471 1894 c0 -11 3 -14 6 -6 3 7 2 16 -1 19 -3 4 -6 -2 -5 -13z"/>
<path d="M89 1838 c-1 -2 -3 -16 -5 -31 -2 -22 0 -27 12 -23 9 3 21 6 27 7 7
0 1 5 -12 10 -15 6 -21 15 -17 24 4 12 0 23 -5 13z"/>
<path d="M2386 1793 c-6 -14 -5 -15 5 -6 7 7 10 15 7 18 -3 3 -9 -2 -12 -12z"/>
<path d="M1125 1791 c-14 -6 -8 -8 22 -7 23 0 36 4 30 8 -15 9 -26 9 -52 -1z"/>
<path d="M1265 1790 c11 -5 29 -8 40 -8 16 0 15 2 -5 8 -34 11 -60 11 -35 0z"/>
<path d="M1470 1770 c0 -11 4 -20 8 -20 4 0 8 9 8 20 0 11 -4 20 -8 20 -4 0
-8 -9 -8 -20z"/>
<path d="M1010 1766 c0 -2 7 -9 15 -16 9 -7 15 -8 15 -2 0 5 -7 12 -15 16 -8
3 -15 4 -15 2z"/>
<path d="M1010 1734 c0 -3 7 -12 15 -20 13 -13 15 -13 15 -1 0 8 -7 17 -15 21
-8 3 -15 3 -15 0z"/>
<path d="M1440 1729 c0 -5 9 -9 20 -9 11 0 20 2 20 4 0 2 -9 6 -20 9 -11 3
-20 1 -20 -4z"/>
<path d="M161 1714 c0 -11 3 -14 6 -6 3 7 2 16 -1 19 -3 4 -6 -2 -5 -13z"/>
<path d="M190 1716 c0 -2 7 -7 16 -10 8 -3 12 -2 9 4 -6 10 -25 14 -25 6z"/>
<path d="M968 1713 c7 -3 16 -2 19 1 4 3 -2 6 -13 5 -11 0 -14 -3 -6 -6z"/>
<path d="M1540 1710 c-13 -8 -12 -10 3 -10 9 0 17 5 17 10 0 12 -1 12 -20 0z"/>
<path d="M93 1683 c9 -2 25 -2 35 0 9 3 1 5 -18 5 -19 0 -27 -2 -17 -5z"/>
<path d="M178 1683 c12 -2 32 -2 45 0 12 2 2 4 -23 4 -25 0 -35 -2 -22 -4z"/>
<path d="M2283 1673 c9 -2 23 -2 30 0 6 3 -1 5 -18 5 -16 0 -22 -2 -12 -5z"/>
<path d="M2373 1673 c20 -2 54 -2 75 0 20 2 3 4 -38 4 -41 0 -58 -2 -37 -4z"/>
<path d="M2233 1655 c0 -8 4 -12 9 -9 5 3 6 10 3 15 -9 13 -12 11 -12 -6z"/>
<path d="M1601 1634 c0 -11 3 -14 6 -6 3 7 2 16 -1 19 -3 4 -6 -2 -5 -13z"/>
<path d="M1625 1630 c-3 -5 -2 -10 4 -10 5 0 13 5 16 10 3 6 2 10 -4 10 -5 0
-13 -4 -16 -10z"/>
<path d="M0 1610 c0 -6 48 -10 123 -10 67 0 129 -5 137 -10 13 -8 13 -10 0
-10 -11 0 -11 -3 -2 -12 10 -10 15 -10 21 1 5 8 14 10 21 6 9 -6 9 -10 -1 -16
-9 -6 -2 -7 19 -4 19 3 31 2 28 -4 -3 -5 10 -12 30 -16 32 -6 35 -9 30 -31 -4
-14 -2 -24 4 -24 5 0 10 9 10 20 0 11 5 20 10 20 6 0 10 -5 10 -11 0 -5 4 -8
9 -4 5 3 26 -2 45 -12 26 -12 33 -19 24 -26 -9 -6 -8 -7 5 -3 21 7 97 -21 113
-41 10 -11 13 -11 17 -1 4 8 6 7 6 -4 1 -10 -3 -18 -7 -18 -8 0 -7 -234 1
-310 1 -13 -2 -25 -8 -26 -38 -5 -74 -18 -69 -25 3 -5 -6 -5 -20 1 -17 6 -26
6 -26 0 0 -6 6 -10 13 -11 10 0 -93 -43 -128 -53 -24 -7 -71 -31 -77 -41 -8
-10 -9 -8 -12 24 -1 15 -57 23 -76 11 -7 -5 5 -7 28 -6 34 2 40 -1 39 -16 -1
-13 -12 -20 -39 -25 -21 -3 -38 -9 -38 -14 0 -5 -54 -9 -120 -9 -73 0 -120 -4
-120 -10 0 -6 49 -10 128 -10 142 0 115 -7 385 104 75 31 148 61 162 66 24 9
24 10 9 52 -20 57 -20 230 0 288 8 25 14 45 13 46 -1 1 -65 27 -142 59 -77 32
-175 73 -218 91 -75 33 -82 34 -207 34 -80 0 -130 -4 -130 -10z"/>
<path d="M2180 1591 c-36 -15 -134 -56 -218 -91 -123 -51 -152 -66 -146 -79
27 -66 33 -249 9 -315 -14 -40 -12 -56 7 -56 6 0 36 -11 67 -25 31 -13 127
-54 215 -90 l158 -65 114 0 c95 0 114 3 114 15 0 12 -19 15 -114 15 -109 0
-132 4 -211 40 -104 47 -143 62 -183 73 -28 7 -47 19 -50 29 -2 10 -9 18 -14
18 -5 0 -7 -4 -3 -10 3 -5 -7 -3 -22 5 -15 8 -33 15 -38 15 -7 0 -10 55 -10
153 0 141 1 153 20 165 19 13 19 13 -2 9 -29 -6 -38 7 -19 26 19 19 114 50
132 43 8 -3 28 -3 45 1 27 5 29 7 13 16 -13 7 -19 7 -22 -1 -2 -7 -11 -12 -20
-12 -30 0 2 19 92 54 58 23 99 34 120 31 27 -4 28 -4 6 3 l-25 8 24 13 c25 14
62 18 194 20 50 0 87 5 87 11 0 6 -49 10 -127 9 -117 0 -134 -3 -193 -28z"/>
<path d="M2238 1573 c7 -3 16 -2 19 1 4 3 -2 6 -13 5 -11 0 -14 -3 -6 -6z"/>
<path d="M37 1563 c24 -2 62 -2 85 0 24 2 5 4 -42 4 -47 0 -66 -2 -43 -4z"/>
<path d="M220 1566 c0 -2 7 -7 16 -10 8 -3 12 -2 9 4 -6 10 -25 14 -25 6z"/>
<path d="M2006 1561 c-4 -5 3 -7 14 -4 23 6 26 13 6 13 -8 0 -17 -4 -20 -9z"/>
<path d="M1700 1550 c0 -5 5 -10 11 -10 5 0 7 5 4 10 -3 6 -8 10 -11 10 -2 0
-4 -4 -4 -10z"/>
<path d="M2265 1550 c27 -12 43 -12 25 0 -8 5 -22 9 -30 9 -10 0 -8 -3 5 -9z"/>
<path d="M775 1542 c3 -3 0 -11 -7 -19 -8 -11 -7 -12 5 -7 21 7 29 31 11 31
-8 0 -12 -3 -9 -5z"/>
<path d="M646 1497 c3 -10 9 -15 12 -12 3 3 0 11 -7 18 -10 9 -11 8 -5 -6z"/>
<path d="M786 1487 c3 -10 9 -15 12 -12 3 3 0 11 -7 18 -10 9 -11 8 -5 -6z"/>
<path d="M483 1475 c0 -8 4 -12 9 -9 5 3 6 10 3 15 -9 13 -12 11 -12 -6z"/>
<path d="M732 1474 c-7 -8 -8 -14 -3 -14 10 0 25 19 20 25 -2 1 -10 -3 -17
-11z"/>
<path d="M1761 1487 c2 -1 12 -9 22 -16 15 -12 17 -12 11 3 -3 9 -13 16 -22
16 -8 0 -13 -1 -11 -3z"/>
<path d="M430 1472 c0 -4 9 -8 20 -8 11 0 20 4 20 8 0 4 -9 8 -20 8 -11 0 -20
-4 -20 -8z"/>
<path d="M1761 1434 c0 -11 3 -14 6 -6 3 7 2 16 -1 19 -3 4 -6 -2 -5 -13z"/>
<path d="M1882 1358 c-1 -14 -5 -35 -8 -45 -5 -14 -4 -15 5 -7 7 7 11 26 8 45
-3 28 -4 29 -5 7z"/>
<path d="M1771 1354 c0 -11 3 -14 6 -6 3 7 2 16 -1 19 -3 4 -6 -2 -5 -13z"/>
<path d="M1793 1335 c0 -22 2 -30 4 -17 2 12 2 30 0 40 -3 9 -5 -1 -4 -23z"/>
<path d="M1763 1275 c0 -22 2 -30 4 -17 2 12 2 30 0 40 -3 9 -5 -1 -4 -23z"/>
<path d="M1913 1260 c0 -25 2 -35 4 -22 2 12 2 32 0 45 -2 12 -4 2 -4 -23z"/>
<path d="M1802 1255 c0 -16 2 -22 5 -12 2 9 2 23 0 30 -3 6 -5 -1 -5 -18z"/>
<path d="M703 1215 c1 -19 5 -35 9 -35 4 0 7 16 5 35 -3 46 -15 46 -14 0z"/>
<path d="M1760 1209 c0 -5 5 -7 10 -4 6 3 10 8 10 11 0 2 -4 4 -10 4 -5 0 -10
-5 -10 -11z"/>
<path d="M1883 1180 c0 -25 2 -35 4 -22 2 12 2 32 0 45 -2 12 -4 2 -4 -23z"/>
<path d="M632 1160 c0 -14 2 -19 5 -12 2 6 2 18 0 25 -3 6 -5 1 -5 -13z"/>
<path d="M1772 1126 c7 -8 15 -12 17 -11 5 6 -10 25 -20 25 -5 0 -4 -6 3 -14z"/>
<path d="M1770 1060 c-9 -6 -10 -10 -3 -10 6 0 15 5 18 10 8 12 4 12 -15 0z"/>
<path d="M728 1053 c6 -2 18 -2 25 0 6 3 1 5 -13 5 -14 0 -19 -2 -12 -5z"/>
<path d="M1960 1045 c0 -8 4 -15 10 -15 5 0 7 7 4 15 -4 8 -8 15 -10 15 -2 0
-4 -7 -4 -15z"/>
<path d="M483 1040 c2 -8 12 -16 23 -17 13 -2 15 -1 4 4 -8 3 -19 11 -23 17
-6 7 -7 6 -4 -4z"/>
<path d="M785 1041 c3 -5 -4 -16 -15 -24 -11 -7 -17 -16 -14 -20 8 -8 44 25
44 40 0 7 -5 13 -11 13 -5 0 -8 -4 -4 -9z"/>
<path d="M738 1033 c7 -3 16 -2 19 1 4 3 -2 6 -13 5 -11 0 -14 -3 -6 -6z"/>
<path d="M708 1013 c7 -3 16 -2 19 1 4 3 -2 6 -13 5 -11 0 -14 -3 -6 -6z"/>
<path d="M1847 1009 c7 -7 15 -10 18 -7 3 3 -2 9 -12 12 -14 6 -15 5 -6 -5z"/>
<path d="M515 901 c-116 -48 -218 -91 -227 -97 -9 -5 -55 -46 -101 -91 l-84
-82 266 -265 266 -266 83 83 c78 77 101 112 137 207 8 19 43 103 78 187 l65
152 -37 12 c-46 16 -194 164 -212 213 -7 20 -15 36 -19 35 -3 0 -99 -40 -215
-88z m210 39 c3 -5 0 -10 -8 -10 -17 0 -12 -36 6 -47 6 -4 8 0 4 10 -3 9 -2
19 2 22 11 6 23 -23 15 -36 -3 -5 2 -19 11 -31 16 -23 16 -23 9 7 -8 37 0 30
27 -21 11 -21 18 -31 15 -21 -6 21 9 23 18 2 3 -8 0 -20 -7 -27 -16 -17 -18
-50 -3 -45 6 2 12 14 12 26 2 29 12 37 26 23 9 -9 9 -12 -1 -12 -22 0 -4 -15
52 -44 l55 -27 -17 -39 c-12 -28 -18 -35 -24 -24 -4 8 -13 14 -19 14 -7 0 -6
-5 2 -15 10 -12 10 -15 -4 -15 -9 0 -16 -5 -16 -11 0 -6 9 -9 20 -6 25 6 25 9
-5 -57 -14 -30 -25 -61 -25 -70 0 -22 -18 -29 -23 -9 -2 10 -2 2 0 -18 3 -25
-1 -42 -12 -53 -9 -9 -13 -21 -9 -27 4 -8 3 -9 -4 -5 -7 4 -12 1 -12 -9 0 -8
-6 -18 -14 -21 -8 -3 -12 -13 -9 -25 7 -25 -16 -52 -39 -46 -11 3 -18 0 -18
-8 0 -8 -6 -18 -14 -22 -8 -4 -16 -17 -18 -28 -2 -12 -10 -19 -21 -17 -9 2
-17 -2 -17 -8 0 -5 6 -10 13 -11 6 0 2 -4 -10 -9 -13 -5 -23 -14 -23 -20 0 -6
-5 -8 -11 -5 -6 4 -8 14 -5 22 3 8 1 11 -5 8 -13 -9 -68 55 -62 72 6 16 -13
17 -23 1 -5 -7 -3 -8 6 -3 9 5 11 4 6 -4 -9 -14 -26 -5 -26 14 0 8 -13 21 -29
30 -36 18 -45 31 -30 41 8 4 9 3 5 -4 -4 -7 -2 -12 3 -12 6 0 11 7 11 16 0 11
-5 14 -17 10 -22 -9 -75 42 -68 65 3 9 -1 19 -8 22 -8 3 -14 -1 -14 -9 0 -7 5
-10 10 -7 6 3 7 1 3 -6 -11 -17 -37 6 -29 25 3 8 -1 14 -11 14 -9 0 -16 5 -16
11 0 5 -4 8 -9 5 -4 -3 -16 3 -25 13 -13 15 -14 18 -1 18 8 0 11 -5 8 -10 -3
-6 -1 -7 5 -3 18 11 14 29 -3 22 -10 -3 -31 10 -58 36 -23 22 -34 38 -24 34
11 -3 16 -2 12 5 -4 5 -15 7 -26 4 -10 -4 -19 -2 -19 3 0 6 -10 20 -23 32
l-24 23 21 22 c16 16 26 19 40 12 12 -6 22 -5 30 3 8 8 7 10 -5 5 -10 -4 -20
-1 -24 5 -11 18 51 70 77 65 12 -3 27 0 35 6 15 13 18 33 4 24 -5 -3 -12 -1
-16 5 -3 5 1 10 10 10 9 0 30 8 48 17 18 9 49 15 71 14 30 -1 37 1 33 12 -6
15 68 61 83 52 5 -3 11 -1 15 5 3 5 17 10 31 10 16 0 23 4 18 11 -3 6 1 10 12
9 11 -1 26 -2 34 -1 13 1 13 2 0 12 -12 8 -10 9 9 4 16 -5 21 -4 17 4 -4 7 1
11 13 11 11 0 23 -4 26 -10z m-278 -106 c-3 -3 -12 -4 -19 -1 -8 3 -5 6 6 6
11 1 17 -2 13 -5z m-137 -74 c0 -5 -9 -6 -20 -3 -11 3 -17 9 -15 14 7 10 35 1
35 -11z"/>
<path d="M685 911 c3 -5 -7 -12 -22 -14 -26 -4 -26 -4 5 -6 22 -1 32 3 32 14
0 8 -5 15 -11 15 -5 0 -8 -4 -4 -9z"/>
<path d="M493 853 c-7 -2 -13 -8 -13 -13 0 -14 28 -19 57 -9 28 9 28 9 -4 4
-32 -4 -46 8 -20 18 6 3 8 5 2 5 -5 0 -16 -2 -22 -5z"/>
<path d="M220 700 c-13 -8 -12 -10 3 -10 9 0 17 5 17 10 0 12 -1 12 -20 0z"/>
<path d="M881 584 c0 -11 3 -14 6 -6 3 7 2 16 -1 19 -3 4 -6 -2 -5 -13z"/>
<path d="M809 468 c0 -18 -2 -43 -5 -56 l-4 -23 22 20 c17 17 19 23 8 36 -7 8
-10 24 -7 35 3 11 1 20 -4 20 -5 0 -9 -15 -10 -32z m21 -38 c0 -5 -5 -10 -11
-10 -5 0 -7 5 -4 10 3 6 8 10 11 10 2 0 4 -4 4 -10z"/>
<path d="M721 314 c0 -11 3 -14 6 -6 3 7 2 16 -1 19 -3 4 -6 -2 -5 -13z"/>
<path d="M750 304 c0 -8 5 -12 10 -9 6 4 8 11 5 16 -9 14 -15 11 -15 -7z"/>
<path d="M642 235 c0 -16 2 -22 5 -12 2 9 2 23 0 30 -3 6 -5 -1 -5 -18z"/>
<path d="M670 245 c0 -8 2 -15 4 -15 2 0 6 7 10 15 3 8 1 15 -4 15 -6 0 -10
-7 -10 -15z"/>
<path d="M1757 950 c-27 -58 -180 -210 -214 -210 -28 -1 -32 -17 -13 -57 10
-22 44 -101 74 -174 90 -224 95 -232 185 -324 l85 -86 265 265 266 266 -87 87
-87 87 -213 88 c-117 49 -220 91 -228 94 -10 3 -21 -9 -33 -36z m65 -8 c-6 -2
-12 -10 -12 -18 0 -17 -17 -19 -23 -1 -7 22 4 35 26 29 12 -3 16 -7 9 -10z
m45 -18 c13 -4 20 -11 16 -17 -4 -6 2 -8 15 -5 17 5 22 2 23 -15 1 -17 2 -18
6 -4 6 21 17 22 33 2 7 -8 18 -15 25 -15 7 0 15 -7 19 -15 3 -8 11 -15 18 -14
10 0 10 2 1 6 -27 10 -11 21 16 10 27 -10 28 -12 13 -24 -15 -12 -12 -13 20
-10 20 3 40 1 45 -4 4 -4 20 -10 35 -13 35 -6 70 -25 48 -26 -9 0 -22 6 -29
13 -11 10 -13 9 -7 -6 3 -10 6 -25 6 -33 0 -9 5 -12 10 -9 6 4 8 11 5 16 -4 5
5 9 19 9 18 0 26 -6 27 -17 0 -10 3 -13 5 -6 3 7 17 -1 37 -20 19 -19 27 -32
19 -35 -7 -2 -10 -8 -6 -13 9 -15 -12 -10 -25 5 -9 11 -9 15 0 18 8 3 7 7 -2
15 -11 9 -14 6 -15 -12 -2 -25 15 -38 52 -40 15 -1 20 4 18 15 -3 8 1 5 7 -7
7 -13 16 -23 21 -23 4 0 8 -10 8 -22 -1 -23 -1 -23 -17 -3 -15 20 -15 20 -10
-3 7 -30 -1 -52 -18 -52 -7 0 -22 -16 -34 -35 -11 -19 -24 -34 -28 -33 -4 2
-28 -17 -52 -41 -24 -24 -38 -40 -31 -36 8 5 11 4 7 -2 -3 -5 -24 -8 -46 -7
-22 1 -38 -2 -35 -7 2 -4 11 -6 18 -3 7 3 16 -2 20 -11 3 -9 2 -14 -3 -11 -5
3 -12 -1 -15 -10 -3 -8 -10 -12 -16 -9 -9 5 -14 -7 -11 -27 0 -3 -18 -4 -40
-2 -26 3 -39 1 -35 -5 4 -6 13 -8 20 -5 7 3 16 -2 19 -10 4 -10 1 -13 -7 -10
-8 3 -16 -4 -19 -15 -3 -13 -13 -21 -26 -21 -13 0 -19 -5 -15 -14 6 -15 -29
-40 -40 -29 -11 11 -6 23 9 23 8 0 15 5 15 10 0 7 -6 7 -19 0 -13 -7 -19 -20
-19 -41 1 -21 4 -26 10 -17 8 10 9 10 6 -1 -2 -8 -12 -15 -22 -17 -10 -1 -24
-8 -30 -15 -8 -9 -7 -10 4 -4 13 8 13 6 1 -8 -15 -19 -35 -12 -27 9 3 8 0 11
-10 7 -7 -3 -14 -1 -14 4 0 6 -12 15 -26 21 -22 11 -24 14 -10 27 20 21 29 19
23 -5 -3 -11 -1 -18 4 -14 12 7 11 31 -2 40 -6 3 -16 1 -22 -5 -16 -16 -37
-14 -37 5 0 8 -5 12 -11 8 -8 -4 -9 1 -4 17 7 21 6 22 -8 11 -14 -12 -17 -10
-23 12 -3 14 -11 26 -17 26 -6 0 -8 3 -4 6 3 4 0 19 -8 35 -8 15 -15 37 -15
49 0 11 -3 20 -8 20 -4 0 -13 15 -21 33 -7 17 -20 46 -28 63 -15 34 -33 134
-24 134 3 1 -6 8 -21 16 -16 8 -28 20 -28 26 0 7 5 6 15 -2 9 -7 19 -9 23 -5
4 4 1 10 -5 12 -7 3 -13 9 -13 14 0 6 5 7 10 4 6 -3 13 1 16 9 3 9 12 16 19
16 7 0 16 7 19 16 4 10 14 14 26 11 11 -3 18 -1 15 4 -3 4 3 17 15 29 11 11
17 20 13 20 -3 0 2 9 12 20 17 19 19 19 32 2 14 -16 14 -16 9 1 -7 23 14 68
28 59 17 -10 66 -11 66 0 0 5 -4 6 -10 3 -5 -3 -10 -1 -10 4 0 12 6 13 37 5z
m-279 -295 c-3 -8 -7 -3 -11 10 -4 17 -3 21 5 13 5 -5 8 -16 6 -23z"/>
<path d="M1937 846 c-6 -15 1 -26 15 -26 11 0 10 27 -1 34 -5 3 -11 0 -14 -8z"/>
<path d="M1720 834 c0 -8 5 -12 10 -9 6 3 10 10 10 16 0 5 -4 9 -10 9 -5 0
-10 -7 -10 -16z"/>
<path d="M1648 743 c6 -2 18 -2 25 0 6 3 1 5 -13 5 -14 0 -19 -2 -12 -5z"/>
<path d="M1622 560 c0 -14 2 -19 5 -12 2 6 2 18 0 25 -3 6 -5 1 -5 -13z"/>
<path d="M2240 543 c1 -31 3 -35 11 -20 5 9 7 22 3 28 -3 6 0 15 7 20 11 7 10
9 -3 9 -14 0 -18 -8 -18 -37z"/>
<path d="M1651 530 c-12 -7 -12 -13 -1 -39 14 -35 26 -40 26 -12 0 11 -4 18
-7 15 -4 -2 -11 1 -15 7 -3 6 0 15 7 20 7 4 11 10 8 13 -2 3 -11 1 -18 -4z"/>
<path d="M2180 489 c0 -5 5 -7 10 -4 6 3 10 8 10 11 0 2 -4 4 -10 4 -5 0 -10
-5 -10 -11z"/>
<path d="M1720 330 c0 -3 8 -10 18 -16 14 -9 18 -8 18 5 0 9 -8 17 -18 17 -10
0 -18 -3 -18 -6z"/>
<path d="M340 970 c0 -5 5 -10 11 -10 5 0 7 5 4 10 -3 6 -8 10 -11 10 -2 0 -4
-4 -4 -10z"/>
<path d="M1680 956 c0 -31 6 -34 13 -6 3 11 1 23 -4 26 -5 3 -9 -6 -9 -20z"/>
<path d="M2138 973 c6 -2 18 -2 25 0 6 3 1 5 -13 5 -14 0 -19 -2 -12 -5z"/>
<path d="M2191 961 c-23 -15 2 -19 29 -5 22 12 22 14 5 14 -11 0 -26 -4 -34
-9z"/>
<path d="M479 948 c-5 -18 -6 -38 -1 -34 7 8 12 36 6 36 -2 0 -4 -1 -5 -2z"/>
<path d="M2220 940 c-9 -6 -10 -10 -3 -10 6 0 15 5 18 10 8 12 4 12 -15 0z"/>
<path d="M428 903 c7 -3 16 -2 19 1 4 3 -2 6 -13 5 -11 0 -14 -3 -6 -6z"/>
<path d="M1652 890 c-40 -25 -46 -25 -37 -2 5 13 3 14 -6 5 -13 -13 -4 -33 14
-33 11 1 78 50 67 50 -3 0 -20 -9 -38 -20z"/>
<path d="M348 873 c7 -3 16 -2 19 1 4 3 -2 6 -13 5 -11 0 -14 -3 -6 -6z"/>
<path d="M278 843 c7 -3 16 -2 19 1 4 3 -2 6 -13 5 -11 0 -14 -3 -6 -6z"/>
<path d="M936 804 c-5 -14 -4 -15 9 -4 17 14 19 20 6 20 -5 0 -12 -7 -15 -16z"/>
<path d="M1558 813 c7 -3 16 -2 19 1 4 3 -2 6 -13 5 -11 0 -14 -3 -6 -6z"/>
<path d="M2285 810 c-4 -6 1 -7 11 -3 14 5 16 3 10 -13 -5 -14 -4 -16 5 -7 12
12 5 33 -11 33 -5 0 -12 -4 -15 -10z"/>
<path d="M165 770 c3 -5 8 -10 11 -10 2 0 4 5 4 10 0 6 -5 10 -11 10 -5 0 -7
-4 -4 -10z"/>
<path d="M125 730 c-3 -5 -2 -10 4 -10 5 0 13 5 16 10 3 6 2 10 -4 10 -5 0
-13 -4 -16 -10z"/>
<path d="M1025 730 c-3 -5 -2 -10 4 -10 5 0 13 5 16 10 3 6 2 10 -4 10 -5 0
-13 -4 -16 -10z"/>
<path d="M1075 730 c-13 -5 -5 -7 25 -7 25 -1 51 3 59 7 18 9 -57 10 -84 0z"/>
<path d="M1401 724 c0 -11 3 -14 6 -6 3 7 2 16 -1 19 -3 4 -6 -2 -5 -13z"/>
<path d="M2385 730 c3 -5 8 -10 11 -10 2 0 4 5 4 10 0 6 -5 10 -11 10 -5 0 -7
-4 -4 -10z"/>
<path d="M85 699 c-4 -6 -5 -12 -2 -15 2 -3 7 2 10 11 7 17 1 20 -8 4z"/>
<path d="M1158 703 c7 -3 16 -2 19 1 4 3 -2 6 -13 5 -11 0 -14 -3 -6 -6z"/>
<path d="M1032 613 c-17 -43 -58 -143 -91 -223 l-61 -145 0 -122 c0 -75 4
-123 10 -123 6 0 10 42 10 105 0 85 3 107 15 111 8 4 15 11 15 16 0 6 -6 5
-15 -2 -16 -13 -20 -3 -7 18 5 7 16 10 24 7 13 -5 14 -13 6 -41 -5 -19 -7 -54
-5 -77 3 -38 4 -37 5 13 2 32 6 50 10 42 5 -7 8 6 8 30 -1 26 -6 43 -13 43
-23 0 -26 15 -2 16 18 1 19 2 6 6 -11 3 -16 10 -13 20 3 8 6 20 7 26 0 7 5 3
10 -8 8 -17 9 -16 6 8 -3 15 6 47 19 74 13 25 24 56 24 67 1 21 1 21 15 2 18
-24 20 -50 3 -40 -7 5 -8 3 -4 -5 12 -19 21 -3 21 39 0 29 -3 36 -15 32 -11
-4 -9 2 5 18 11 13 14 20 6 15 -11 -6 -10 -2 2 16 9 13 17 31 17 41 0 10 4 18
9 18 5 0 12 11 15 25 4 14 11 25 17 25 6 0 6 -6 -1 -19 -12 -24 -13 -31 -1
-31 5 0 11 8 14 19 4 16 13 18 103 14 55 -3 126 0 159 5 51 8 61 7 71 -7 7 -8
10 -19 8 -23 -2 -4 0 -9 6 -13 5 -3 10 -13 10 -21 0 -8 -3 -13 -7 -11 -5 3 -8
-7 -9 -22 -1 -16 4 -28 11 -28 7 0 10 8 7 19 -2 10 -2 18 2 18 7 0 31 -56 56
-134 11 -32 25 -65 31 -72 6 -8 8 -14 3 -14 -5 0 -2 -4 6 -10 8 -5 11 -12 8
-16 -10 -9 -39 22 -30 31 4 5 2 5 -5 1 -13 -7 -7 -36 8 -36 5 0 7 -11 3 -25
-4 -15 -2 -25 5 -25 6 0 8 7 5 15 -4 8 -1 15 5 15 6 0 11 -8 11 -17 0 -14 2
-15 9 -5 14 22 21 -23 21 -135 l0 -102 -324 -1 -325 0 -4 27 c-4 26 -4 26 -6
-4 l-1 -33 330 0 c213 0 330 -4 330 -10 0 -5 7 -10 15 -10 13 0 15 20 15 123
l0 122 -53 125 c-30 69 -71 169 -93 223 -34 86 -41 97 -59 92 -11 -3 -55 -11
-97 -17 -74 -11 -174 -4 -244 17 -18 6 -24 -3 -52 -72z"/>
<path d="M2436 635 c-3 -9 0 -15 9 -15 16 0 20 16 6 24 -5 3 -11 -1 -15 -9z"/>
<path d="M2471 604 c0 -11 3 -14 6 -6 3 7 2 16 -1 19 -3 4 -6 -2 -5 -13z"/>
<path d="M1233 603 c20 -2 54 -2 75 0 20 2 3 4 -38 4 -41 0 -58 -2 -37 -4z"/>
<path d="M1060 592 c0 -4 9 -8 20 -8 11 0 20 4 20 8 0 4 -9 8 -20 8 -11 0 -20
-4 -20 -8z"/>
<path d="M80 551 c0 -25 6 -27 13 -6 4 8 2 17 -3 20 -6 4 -10 -3 -10 -14z"/>
<path d="M2380 525 c10 -12 10 -15 -3 -15 -9 0 -19 5 -22 10 -4 6 -11 8 -16 5
-18 -12 -8 -20 26 -22 19 -2 35 -1 35 1 0 14 -14 36 -22 36 -6 0 -5 -6 2 -15z"/>
<path d="M130 520 c0 -5 5 -10 11 -10 5 0 7 5 4 10 -3 6 -8 10 -11 10 -2 0 -4
-4 -4 -10z"/>
<path d="M95 510 c-3 -5 1 -10 10 -10 9 0 13 5 10 10 -3 6 -8 10 -10 10 -2 0
-7 -4 -10 -10z"/>
<path d="M162 490 c0 -14 2 -19 5 -12 2 6 2 18 0 25 -3 6 -5 1 -5 -13z"/>
<path d="M1570 461 c0 -6 4 -13 10 -16 6 -3 7 1 4 9 -7 18 -14 21 -14 7z"/>
<path d="M2290 450 c0 -5 -6 -10 -14 -10 -25 0 -25 -15 0 -16 13 -1 21 2 18 7
-3 5 0 9 5 9 6 0 11 5 11 10 0 6 -4 10 -10 10 -5 0 -10 -4 -10 -10z"/>
<path d="M176 441 c-4 -7 -5 -15 -2 -18 9 -9 19 4 14 18 -4 11 -6 11 -12 0z"/>
<path d="M220 430 c0 -5 5 -10 10 -10 6 0 10 -8 11 -17 0 -15 2 -15 8 2 5 11
7 23 4 28 -6 11 -33 9 -33 -3z"/>
<path d="M2380 430 c-13 -8 -12 -10 3 -10 9 0 17 5 17 10 0 12 -1 12 -20 0z"/>
<path d="M2227 388 c-2 -7 -5 -17 -5 -22 0 -5 -6 -13 -14 -17 -7 -5 -8 -9 -3
-9 18 0 30 14 32 38 3 24 -2 29 -10 10z"/>
<path d="M240 350 c0 -5 5 -10 11 -10 5 0 7 5 4 10 -3 6 -8 10 -11 10 -2 0 -4
-4 -4 -10z"/>
<path d="M305 350 c-16 -7 -17 -9 -3 -9 9 -1 19 -9 21 -18 3 -10 4 -6 4 10 -1
15 -2 27 -2 26 0 0 -9 -4 -20 -9z"/>
<path d="M863 315 c-3 -9 -3 -18 -1 -21 3 -3 8 4 11 16 6 23 -1 27 -10 5z"/>
<path d="M345 310 c3 -5 8 -10 11 -10 2 0 4 5 4 10 0 6 -5 10 -11 10 -5 0 -7
-4 -4 -10z"/>
<path d="M2130 290 c0 -5 -6 -10 -14 -10 -25 0 -25 -15 0 -16 13 -1 21 2 18 7
-3 5 0 9 5 9 6 0 11 5 11 10 0 6 -4 10 -10 10 -5 0 -10 -4 -10 -10z"/>
<path d="M366 275 c-3 -9 0 -15 9 -15 8 0 15 7 15 15 0 8 -4 15 -9 15 -5 0
-11 -7 -15 -15z"/>
<path d="M841 254 c0 -11 3 -14 6 -6 3 7 2 16 -1 19 -3 4 -6 -2 -5 -13z"/>
<path d="M1657 264 c-9 -9 11 -44 25 -44 6 0 4 8 -5 18 -10 10 -14 22 -10 25
3 4 4 7 1 7 -2 0 -8 -3 -11 -6z"/>
<path d="M400 230 c0 -5 5 -10 10 -10 6 0 10 5 10 10 0 6 -4 10 -10 10 -5 0
-10 -4 -10 -10z"/>
<path d="M2061 226 c-8 -10 -8 -16 1 -24 10 -8 13 -4 13 14 0 28 1 28 -14 10z"/>
<path d="M835 211 c-3 -5 -1 -12 5 -16 5 -3 10 1 10 9 0 18 -6 21 -15 7z"/>
<path d="M450 195 c0 -8 4 -15 10 -15 5 0 7 7 4 15 -4 8 -8 15 -10 15 -2 0 -4
-7 -4 -15z"/>
<path d="M480 156 c0 -10 8 -16 22 -16 12 0 19 1 17 3 -2 1 -12 9 -21 16 -15
12 -18 11 -18 -3z"/>
<path d="M1773 133 c-3 -10 -8 -21 -10 -25 -2 -3 5 -5 14 -3 10 2 21 4 26 4 4
1 7 6 7 12 0 8 -6 7 -17 -2 -15 -13 -16 -12 -11 9 7 26 0 30 -9 5z"/>
<path d="M530 121 c0 -12 5 -21 10 -21 6 0 10 6 10 14 0 8 -4 18 -10 21 -5 3
-10 -3 -10 -14z"/>
<path d="M1970 130 c0 -5 -8 -10 -17 -10 -15 0 -16 -2 -3 -10 20 -13 33 -13
25 0 -3 6 -1 10 4 10 6 0 11 -5 11 -12 0 -6 2 -9 5 -6 8 7 -5 38 -16 38 -5 0
-9 -4 -9 -10z"/>
<path d="M705 121 c-3 -5 -2 -12 3 -15 5 -3 9 1 9 9 0 17 -3 19 -12 6z"/>
<path d="M912 25 c0 -17 2 -22 5 -12 2 9 2 23 0 30 -3 6 -5 -1 -5 -18z"/>
</g>
</svg>
