<?xml version="1.0" standalone="no"?>
<!DOCTYPE svg PUBLIC "-//W3C//DTD SVG 20010904//EN"
 "http://www.w3.org/TR/2001/REC-SVG-20010904/DTD/svg10.dtd">
<svg version="1.0" xmlns="http://www.w3.org/2000/svg"
 width="256.000000pt" height="256.000000pt" viewBox="0 0 256.000000 256.000000"
 preserveAspectRatio="xMidYMid meet">
<metadata>
Created by potrace 1.16, written by Peter Selinger 2001-2019
</metadata>
<g transform="translate(0.000000,256.000000) scale(0.100000,-0.100000)"
fill="#000000" stroke="none">
<path d="M495 2545 c-6 -9 -53 -31 -105 -49 -73 -25 -98 -38 -107 -57 -6 -13
-20 -42 -31 -64 -16 -34 -28 -44 -83 -66 -63 -25 -64 -26 -85 -85 -11 -32 -36
-74 -53 -92 -35 -35 -36 -51 -3 -33 29 16 57 58 76 117 16 50 19 52 77 73 63
23 83 44 109 115 14 38 19 41 105 71 105 36 111 39 125 66 13 24 -10 27 -25 4z"/>
<path d="M539 2532 c-12 -21 -37 -37 -100 -62 -102 -40 -103 -41 -144 -106
-24 -37 -50 -62 -92 -86 -47 -27 -64 -45 -88 -90 -34 -64 -69 -105 -97 -114
-24 -7 -23 -24 1 -24 28 0 93 69 120 126 17 37 33 56 57 68 43 20 121 91 130
118 8 26 35 58 50 58 26 0 160 62 177 81 17 21 24 59 10 59 -5 0 -15 -13 -24
-28z"/>
<path d="M1020 2536 c0 -14 -4 -28 -10 -31 -5 -3 -10 -17 -10 -31 0 -14 -7
-27 -17 -31 -25 -9 -34 -26 -20 -36 7 -5 1 -5 -13 -1 -36 11 -130 12 -136 2
-3 -4 -9 -6 -14 -3 -5 3 -11 1 -15 -5 -4 -6 -11 -8 -16 -5 -5 4 -9 1 -9 -5 0
-6 -4 -9 -9 -5 -5 3 -12 1 -16 -5 -4 -6 -10 -8 -14 -6 -4 3 -8 -1 -8 -9 0 -18
-5 -19 48 7 44 22 135 28 214 15 16 -3 35 -1 42 4 7 6 18 8 25 4 7 -4 3 2 -9
12 -13 11 -21 26 -18 38 2 11 4 24 4 28 1 5 6 5 13 1 7 -4 8 -3 4 5 -4 6 -3
18 3 24 11 14 4 57 -10 57 -5 0 -9 -11 -9 -24z m-19 -100 c-9 -11 -8 -15 5
-20 14 -5 15 -9 5 -19 -10 -9 -15 -8 -26 7 -13 17 -12 21 3 32 22 17 27 17 13
0z"/>
<path d="M1060 2553 c1 -30 29 -36 54 -10 17 16 16 17 -18 17 -20 0 -36 -3
-36 -7z"/>
<path d="M1142 2535 c-20 -23 -38 -30 -69 -26 -7 1 -13 -3 -13 -9 0 -5 16 -10
34 -10 35 0 86 35 86 59 0 18 -15 13 -38 -14z"/>
<path d="M1290 2547 c0 -8 41 -29 98 -50 106 -39 123 -43 227 -53 92 -8 134
-23 158 -56 18 -24 20 -41 19 -135 -3 -113 -13 -146 -52 -158 -11 -3 -20 -11
-20 -16 0 -15 15 -11 51 14 l34 23 0 140 c0 181 -7 189 -161 199 -140 9 -171
17 -256 66 -32 19 -48 24 -52 16 -2 -7 -5 -4 -5 7 -1 16 -3 17 -18 5 -11 -10
-14 -10 -9 -1 4 6 2 12 -3 12 -6 0 -11 -6 -11 -13z"/>
<path d="M1392 2547 c38 -38 110 -58 245 -68 147 -12 198 -23 173 -39 -13 -8
-13 -10 1 -10 17 0 19 -21 22 -207 2 -82 -1 -114 -10 -118 -7 -2 -13 -13 -13
-24 0 -11 -5 -23 -10 -26 -6 -4 -7 -11 -4 -17 4 -7 2 -8 -5 -4 -8 6 -9 12 -2
20 21 25 -1 24 -49 -1 -54 -28 -80 -74 -80 -142 0 -56 23 -48 72 23 23 34 44
63 48 66 20 16 50 72 44 82 -4 7 -4 10 1 6 4 -4 23 9 41 30 18 20 34 33 34 29
0 -5 7 -1 16 7 8 9 20 14 25 11 5 -4 9 2 10 12 0 10 3 13 6 6 6 -17 23 -16 23
1 0 8 10 14 25 14 15 0 25 -6 25 -15 0 -10 6 -12 19 -8 11 3 22 1 25 -4 4 -6
14 -7 23 -4 11 4 14 3 9 -5 -4 -7 -3 -12 3 -12 5 0 12 6 14 13 3 7 6 4 6 -7 1
-16 3 -17 18 -5 15 12 16 12 10 -3 -7 -19 7 -25 18 -8 3 6 11 10 17 10 7 0 7
-4 -1 -13 -8 -11 -3 -17 23 -29 23 -11 41 -32 58 -65 16 -33 29 -48 39 -45 12
5 12 3 0 -12 -12 -14 -12 -19 -2 -26 8 -4 11 -16 6 -29 -4 -13 -2 -21 5 -21 7
0 10 -7 6 -15 -3 -8 0 -15 6 -15 6 0 9 -2 6 -6 -3 -3 6 -17 21 -32 18 -19 31
-25 41 -19 9 5 26 4 42 -2 27 -10 30 -29 13 -91 -5 -17 -4 -21 3 -12 7 11 10
11 15 -2 4 -9 2 -16 -2 -16 -9 0 -6 -101 5 -195 3 -27 6 -62 7 -77 0 -16 4
-28 10 -28 6 0 7 -15 4 -37 -5 -27 -2 -39 11 -49 9 -8 12 -14 6 -14 -8 0 -11
-21 -10 -60 2 -33 -1 -60 -5 -60 -5 0 -6 -7 -3 -15 4 -8 2 -15 -3 -15 -5 0
-10 -6 -11 -12 -1 -7 -5 -39 -8 -71 -6 -51 -10 -60 -32 -68 -15 -6 -38 -7 -52
-4 -14 4 -39 9 -57 11 -17 2 -44 9 -59 14 -20 8 -30 8 -38 -1 -8 -9 -7 -10 5
-6 9 3 20 2 25 -3 8 -8 99 -28 146 -33 9 -1 19 -13 22 -29 6 -32 22 -38 22 -9
0 11 -4 17 -8 15 -4 -3 -8 2 -8 10 0 8 5 18 12 22 6 4 8 3 5 -3 -3 -5 0 -10 7
-10 8 0 12 7 9 14 -4 11 5 9 33 -6 43 -23 54 -26 54 -11 0 6 -7 10 -15 10 -21
0 -19 18 3 23 9 3 2 5 -15 6 -32 1 -33 2 -33 45 0 24 9 65 20 91 25 58 25 111
1 261 -11 66 -22 181 -25 256 -3 76 -10 147 -16 157 -6 12 -26 23 -48 27 -47
8 -69 28 -77 68 -22 107 -50 203 -64 217 -15 16 -150 59 -254 82 -41 10 -53 8
-100 -12 -94 -41 -86 -49 -85 91 1 141 -12 182 -59 192 -16 3 -86 10 -156 16
-104 8 -138 15 -179 35 -55 28 -89 34 -66 12z m884 -430 c17 -17 26 -65 14
-72 -5 -3 -10 -3 -11 2 -3 37 -9 66 -15 72 -4 3 -4 -4 -1 -17 3 -12 1 -20 -4
-16 -5 3 -9 12 -9 20 0 8 -4 13 -9 10 -14 -9 -42 5 -35 16 7 12 54 1 70 -15z
m-552 -141 c-41 -62 -52 -66 -34 -12 10 32 57 82 67 73 2 -2 -13 -30 -33 -61z"/>
<path d="M889 2449 c-10 -6 -7 -9 12 -9 14 0 31 -6 38 -12 11 -11 13 -10 9 1
-6 19 -41 31 -59 20z"/>
<path d="M742 2432 c-4 -11 -6 -11 -13 0 -7 10 -9 11 -9 0 0 -7 -4 -10 -10 -7
-5 3 -10 1 -10 -5 0 -6 -3 -9 -8 -6 -4 2 -16 -2 -27 -10 -18 -14 -18 -14 2
-14 12 0 25 5 28 10 4 6 11 8 16 5 5 -4 9 -1 9 5 0 6 5 8 10 5 6 -3 13 1 16
10 4 9 10 12 13 7 6 -10 81 -4 81 7 0 13 -93 6 -98 -7z"/>
<path d="M850 2440 c0 -5 5 -10 10 -10 6 0 10 5 10 10 0 6 -4 10 -10 10 -5 0
-10 -4 -10 -10z"/>
<path d="M1147 2443 c-10 -9 -9 -23 1 -23 5 0 9 7 9 15 0 17 -1 18 -10 8z"/>
<path d="M872 2379 c-40 -8 -48 -15 -27 -23 9 -3 13 -2 10 4 -3 6 5 10 19 10
14 0 28 -5 31 -10 4 -6 11 -8 16 -5 7 5 13 -9 7 -17 -1 -2 4 -13 10 -25 10
-17 9 -22 -4 -27 -13 -5 -15 -2 -11 14 3 11 1 18 -4 14 -5 -3 -9 0 -9 5 0 6 6
11 13 12 6 0 3 4 -8 8 -30 12 -50 2 -28 -14 10 -8 14 -17 10 -21 -4 -5 -12 -2
-16 5 -6 9 -11 10 -15 2 -8 -13 18 -26 34 -16 13 8 13 -5 0 -25 -9 -13 -11
-13 -20 0 -8 13 -10 13 -10 -2 0 -27 17 -30 34 -6 13 18 16 19 16 6 0 -9 -7
-21 -15 -26 -13 -7 -14 -14 -5 -37 6 -16 14 -64 17 -107 4 -46 10 -78 17 -78
6 0 4 -5 -4 -10 -9 -6 -11 -10 -3 -10 7 0 10 -6 7 -13 -3 -8 1 -27 7 -43 7
-16 11 -32 11 -37 -1 -4 8 -26 19 -50 12 -23 21 -44 20 -46 -2 -2 2 -7 7 -10
31 -20 56 -185 30 -194 -10 -3 -9 -8 2 -22 14 -17 13 -18 -5 -11 -16 6 -18 5
-7 -5 9 -10 15 -10 24 -1 20 20 25 131 6 143 -7 4 -6 8 3 12 9 4 10 6 2 6 -7
1 -10 7 -7 15 3 8 0 17 -5 21 -6 3 -8 11 -5 17 5 7 2 8 -6 3 -10 -6 -12 -4 -7
8 4 10 2 17 -4 17 -6 0 -9 6 -6 14 3 8 -1 20 -8 26 -8 7 -13 16 -10 20 3 5 0
12 -6 16 -8 5 -9 3 -4 -6 5 -9 4 -11 -4 -6 -9 6 -9 11 1 24 11 13 11 14 -1 8
-9 -6 -12 -5 -9 5 3 8 -2 20 -11 27 -10 8 -10 11 -2 6 9 -5 12 -3 7 5 -8 12
-16 50 -21 91 -2 14 -4 25 -5 25 -2 0 -4 18 -6 40 -1 22 -3 40 -4 40 -2 0 -8
25 -15 63 -4 18 -2 32 4 32 5 0 12 -18 16 -40 4 -22 11 -40 17 -40 5 0 7 9 3
19 -3 11 -8 28 -10 38 -2 10 -7 28 -11 41 -3 12 -2 22 4 22 5 0 20 -42 32 -92
13 -51 40 -145 60 -208 21 -63 44 -141 51 -172 7 -32 16 -58 21 -58 5 0 7 4 4
8 -3 5 -8 22 -11 38 -3 16 -8 40 -11 54 -3 14 -7 34 -8 45 -1 12 -6 26 -10 33
-4 7 -5 16 -1 21 3 6 -3 14 -12 20 -13 8 -14 10 -4 11 11 0 10 4 -5 16 -10 8
-12 12 -4 8 13 -7 13 -5 1 9 -7 9 -10 17 -5 17 5 0 0 7 -10 15 -14 11 -16 15
-5 15 12 0 12 2 -1 10 -8 5 -11 12 -7 16 4 4 2 13 -3 20 -6 6 -13 21 -15 33
-10 45 -13 57 -24 96 -5 22 -13 55 -16 74 -3 19 -8 38 -11 43 -3 5 -2 7 3 6 4
-2 9 2 10 7 1 6 -5 9 -14 7 -8 -2 -13 0 -10 5 7 10 -17 11 -61 2z m129 -536
c13 -16 12 -17 -3 -4 -10 7 -18 15 -18 17 0 8 8 3 21 -13z"/>
<path d="M631 2366 c-19 -23 4 -28 24 -6 15 17 16 20 3 20 -9 0 -21 -6 -27
-14z"/>
<path d="M1007 2373 c-12 -3 -17 -13 -15 -35 2 -30 18 -51 18 -24 0 9 6 16 13
16 8 0 7 4 -3 10 -12 8 -12 10 5 11 11 0 14 3 7 6 -6 2 -10 9 -6 14 3 5 4 8 2
8 -2 -1 -11 -3 -21 -6z"/>
<path d="M800 2360 c-9 -6 -10 -10 -3 -10 6 0 15 5 18 10 8 12 4 12 -15 0z"/>
<path d="M685 2349 c-4 -6 -5 -12 -2 -15 2 -3 7 2 10 11 7 17 1 20 -8 4z"/>
<path d="M1190 2343 c-54 -10 -38 -20 24 -16 36 3 73 2 83 -2 28 -12 43 -14
43 -5 0 20 -89 34 -150 23z"/>
<path d="M701 2317 c-13 -21 -12 -21 5 -5 10 10 16 20 13 22 -3 3 -11 -5 -18
-17z"/>
<path d="M1043 2316 c0 -14 4 -29 8 -32 5 -3 7 -10 4 -15 -4 -5 -1 -9 4 -9 14
0 14 17 1 25 -6 4 -8 11 -5 16 4 5 2 16 -3 25 -8 14 -9 12 -9 -10z"/>
<path d="M739 2313 c-13 -16 -12 -17 4 -4 16 13 21 21 13 21 -2 0 -10 -8 -17
-17z"/>
<path d="M804 2298 l-19 -23 23 19 c21 18 27 26 19 26 -2 0 -12 -10 -23 -22z"/>
<path d="M976 2289 c3 -19 28 -100 55 -180 26 -80 51 -165 55 -187 4 -23 10
-42 15 -42 5 0 6 6 4 13 -2 6 -7 23 -9 37 -5 25 -11 49 -22 93 -3 12 -6 28 -6
35 -1 6 -5 12 -10 12 -5 0 -6 4 -3 10 3 5 -1 20 -10 33 -8 13 -12 27 -8 30 3
4 0 7 -7 7 -7 0 -10 3 -7 6 3 4 2 15 -4 26 -6 11 -12 27 -14 36 -17 71 -24 94
-29 100 -4 3 -3 -10 0 -29z"/>
<path d="M1088 2314 c-7 -7 15 -54 25 -54 5 0 5 -4 2 -10 -3 -5 0 -20 6 -32
12 -22 20 -62 20 -100 0 -10 4 -18 9 -18 5 0 6 12 3 28 -3 15 -6 41 -7 59 0
17 -4 29 -9 26 -5 -3 -6 4 -3 15 4 11 2 23 -4 27 -6 3 -7 11 -4 17 5 7 2 8 -6
3 -10 -6 -12 -4 -7 8 6 15 -15 42 -25 31z"/>
<path d="M531 2284 c0 -11 3 -14 6 -6 3 7 2 16 -1 19 -3 4 -6 -2 -5 -13z"/>
<path d="M471 2274 c-10 -7 -22 -10 -26 -6 -5 4 -4 1 0 -7 6 -11 4 -13 -11 -7
-10 4 -15 4 -11 0 4 -4 2 -13 -4 -21 -6 -7 -8 -13 -4 -13 4 0 2 -6 -4 -13 -8
-10 -7 -14 4 -14 8 0 15 8 15 17 0 16 50 60 69 60 5 0 12 4 15 8 8 13 -22 10
-43 -4z"/>
<path d="M1010 2281 c0 -31 25 -81 40 -80 10 0 11 2 2 6 -6 2 -10 9 -6 14 3 5
0 9 -6 9 -6 0 -8 5 -5 10 3 6 1 10 -5 10 -6 0 -9 4 -6 8 2 4 1 14 -5 22 -7 13
-9 13 -9 1z"/>
<path d="M485 2239 c-4 -6 -5 -12 -2 -15 2 -3 7 2 10 11 7 17 1 20 -8 4z"/>
<path d="M1060 2245 c0 -3 8 -22 19 -43 10 -20 22 -52 26 -69 3 -18 11 -33 16
-33 6 0 7 4 4 10 -7 11 -16 47 -17 68 -1 6 -5 12 -10 12 -5 0 -6 5 -3 10 3 6
1 10 -5 10 -6 0 -8 5 -5 10 3 6 1 10 -5 10 -6 0 -8 5 -5 10 3 6 1 10 -4 10 -6
0 -11 -2 -11 -5z"/>
<path d="M830 2233 c0 -6 -9 -10 -19 -8 -15 3 -18 -1 -14 -12 4 -11 2 -14 -5
-9 -7 4 -12 2 -12 -4 0 -8 6 -9 18 -5 38 17 66 11 80 -18 18 -37 26 -29 11 9
-7 16 -12 32 -11 36 1 3 -6 5 -16 3 -9 -1 -20 3 -24 9 -6 8 -8 8 -8 -1z"/>
<path d="M505 2189 c-3 -4 2 -6 10 -5 21 3 28 13 10 13 -9 0 -18 -4 -20 -8z"/>
<path d="M745 2180 c-10 -11 -22 -17 -27 -14 -4 3 -7 0 -6 -7 2 -6 -3 -14 -11
-17 -9 -3 -11 0 -6 8 5 8 4 11 -3 6 -6 -4 -8 -14 -5 -24 6 -15 5 -15 -10 -3
-15 12 -17 12 -11 -4 6 -14 4 -16 -7 -10 -11 6 -12 5 -2 -5 10 -11 10 -17 0
-29 -11 -14 -10 -15 7 -1 18 14 19 13 13 -2 -3 -10 -3 -19 1 -22 4 -3 9 5 9
17 1 12 -2 24 -7 27 -5 3 -1 11 9 17 17 11 18 9 14 -25 -2 -20 -6 -43 -8 -49
-2 -7 1 -12 8 -10 7 1 11 -4 9 -10 -1 -7 3 -12 9 -10 6 1 14 -4 17 -12 3 -9 0
-11 -9 -6 -8 5 -6 0 4 -12 9 -11 15 -22 12 -25 -3 -2 2 -5 10 -5 11 0 12 4 4
14 -6 7 -8 13 -5 13 4 0 1 10 -6 23 -7 12 -13 27 -13 32 -1 6 -6 9 -12 8 -7
-1 -10 15 -9 45 1 38 7 52 30 74 17 15 27 30 25 33 -3 3 -14 -4 -24 -15z"/>
<path d="M1050 2165 c27 -68 31 -80 32 -82 0 -2 8 -40 19 -85 10 -46 19 -95
19 -110 0 -16 4 -28 9 -28 4 0 2 35 -6 78 -7 42 -16 93 -19 112 -3 19 -10 42
-15 51 -4 9 -5 19 -2 23 3 3 2 6 -4 6 -5 0 -10 7 -11 15 -1 8 -3 22 -4 30 -1
8 -7 15 -14 15 -10 0 -11 -6 -4 -25z"/>
<path d="M396 2163 c-6 -14 -5 -15 5 -6 7 7 10 15 7 18 -3 3 -9 -2 -12 -12z"/>
<path d="M583 2137 c-8 -16 -8 -29 -1 -38 8 -12 9 -12 5 1 -2 8 0 23 5 33 5
10 8 21 5 23 -2 2 -9 -6 -14 -19z"/>
<path d="M950 2120 c0 -16 3 -30 8 -30 4 0 8 -15 9 -33 1 -17 9 -52 18 -77 66
-179 88 -252 92 -314 5 -55 3 -67 -7 -61 -9 5 -11 4 -6 -3 4 -7 13 -12 20 -12
15 0 27 -35 20 -55 -8 -19 -67 -46 -75 -34 -4 6 -9 4 -13 -6 -9 -24 -8 -25 12
-19 39 13 68 30 90 54 20 23 21 26 5 38 -16 11 -15 12 3 12 18 1 18 1 1 11
-13 8 -15 14 -8 23 7 8 7 22 1 42 -9 27 -10 27 -7 3 2 -15 -1 -33 -8 -42 -9
-12 -11 -7 -12 26 -2 47 -7 75 -29 160 -3 12 -7 30 -8 40 -1 10 -9 23 -17 28
-12 7 -12 9 1 9 13 0 13 1 0 10 -8 5 -11 10 -6 10 5 0 3 7 -4 15 -7 8 -9 15
-4 15 5 0 0 7 -10 15 -13 10 -15 15 -6 15 9 0 8 5 -6 16 -10 8 -12 12 -4 8 12
-6 13 -5 4 7 -6 8 -10 22 -9 32 2 10 -1 14 -8 10 -6 -4 -8 0 -4 9 3 9 3 19 -1
22 -7 8 -13 33 -15 64 -2 33 -17 27 -17 -8z"/>
<path d="M893 2045 c6 -105 8 -123 20 -142 4 -6 4 -18 1 -26 -3 -8 -1 -18 5
-22 6 -3 11 -11 11 -16 0 -6 -4 -8 -8 -5 -5 3 -8 -18 -7 -47 1 -37 5 -51 15
-49 7 2 10 -3 7 -12 -7 -18 18 -42 28 -26 4 6 2 17 -5 25 -7 8 -7 15 -1 19 6
4 8 14 5 24 -5 14 -4 14 4 2 6 -8 8 -18 5 -23 -3 -6 5 -18 18 -29 13 -10 17
-16 7 -12 -11 4 -21 -2 -29 -18 -11 -21 -11 -22 5 -9 15 12 16 12 9 -5 -6 -17
-5 -17 10 -5 15 12 17 12 12 -2 -4 -8 -2 -18 4 -22 7 -4 8 0 4 11 -5 13 -3 15
7 9 9 -5 11 -4 6 3 -4 7 -9 20 -11 31 -2 10 -16 39 -31 62 -36 55 -64 116 -57
123 3 2 1 11 -3 18 -13 20 -15 37 -19 136 -1 51 -6 96 -10 100 -4 4 -5 -38 -2
-93z m61 -254 c9 -12 8 -13 -3 -7 -10 7 -12 3 -6 -15 4 -13 4 -21 0 -17 -4 4
-9 24 -11 45 -2 21 0 31 3 23 3 -8 11 -21 17 -29z"/>
<path d="M395 2100 c6 -30 16 -40 12 -12 -2 12 -6 24 -10 28 -3 4 -4 -4 -2
-16z"/>
<path d="M491 2074 c0 -11 3 -14 6 -6 3 7 2 16 -1 19 -3 4 -6 -2 -5 -13z"/>
<path d="M1120 2065 c0 -14 4 -25 9 -25 4 0 6 11 3 25 -2 14 -6 25 -8 25 -2 0
-4 -11 -4 -25z"/>
<path d="M1152 2050 c0 -14 2 -19 5 -12 2 6 2 18 0 25 -3 6 -5 1 -5 -13z"/>
<path d="M1132 2005 c0 -16 2 -22 5 -12 2 9 2 23 0 30 -3 6 -5 -1 -5 -18z"/>
<path d="M600 2006 c0 -2 8 -10 18 -17 15 -13 16 -12 3 4 -13 16 -21 21 -21
13z"/>
<path d="M540 1996 c0 -2 8 -10 18 -17 15 -13 16 -12 3 4 -13 16 -21 21 -21
13z"/>
<path d="M640 1996 c0 -2 7 -7 16 -10 8 -3 12 -2 9 4 -6 10 -25 14 -25 6z"/>
<path d="M1162 1970 c0 -19 2 -27 5 -17 2 9 2 25 0 35 -3 9 -5 1 -5 -18z"/>
<path d="M520 1986 c0 -2 8 -10 18 -17 15 -13 16 -12 3 4 -13 16 -21 21 -21
13z"/>
<path d="M421 1960 c14 -31 19 -36 19 -24 0 6 -7 19 -16 30 -14 18 -14 18 -3
-6z"/>
<path d="M500 1976 c0 -2 8 -10 18 -17 15 -13 16 -12 3 4 -13 16 -21 21 -21
13z"/>
<path d="M600 1976 c0 -2 8 -10 18 -17 15 -13 16 -12 3 4 -13 16 -21 21 -21
13z"/>
<path d="M1141 1934 c0 -11 3 -14 6 -6 3 7 2 16 -1 19 -3 4 -6 -2 -5 -13z"/>
<path d="M655 1920 c10 -11 20 -20 23 -20 3 0 -3 9 -13 20 -10 11 -20 20 -23
20 -3 0 3 -9 13 -20z"/>
<path d="M775 1917 c8 -13 12 -27 8 -32 -5 -4 -3 -6 2 -3 11 6 31 -11 32 -27
0 -5 10 -15 22 -21 11 -6 18 -14 14 -17 -3 -4 -1 -7 5 -7 7 0 11 -6 10 -12 -2
-7 3 -12 10 -10 6 1 12 -2 12 -8 0 -5 4 -10 9 -10 5 0 8 8 7 18 -2 9 -8 17
-14 17 -6 0 -18 9 -26 20 -8 11 -20 20 -28 20 -7 0 -13 5 -13 10 -1 14 -48 85
-58 85 -4 0 -1 -10 8 -23z"/>
<path d="M620 1905 c13 -14 26 -25 28 -25 3 0 -5 11 -18 25 -13 14 -26 25 -28
25 -3 0 5 -11 18 -25z"/>
<path d="M1623 1881 c5 -37 3 -40 -23 -46 -42 -9 -66 -35 -82 -85 -7 -25 -20
-55 -28 -66 -16 -22 -60 -50 -73 -46 -5 1 -6 -2 -2 -8 5 -9 -1 -12 -22 -9 -3
0 -10 -6 -15 -15 -5 -9 -14 -13 -20 -10 -7 5 -9 -2 -6 -19 4 -19 1 -24 -10
-19 -12 4 -14 -1 -10 -26 2 -18 1 -32 -4 -32 -12 0 -9 -42 5 -69 17 -35 44
-36 41 -2 -1 14 -3 27 -4 29 -1 1 -3 10 -4 20 -1 9 -5 23 -10 31 -6 10 -5 12
2 7 7 -4 12 -3 12 3 0 5 -6 12 -12 15 -7 4 -2 4 10 2 13 -3 21 -2 18 1 -3 4 0
13 7 22 10 14 10 14 -4 4 -13 -10 -16 -10 -16 2 0 7 3 14 6 13 22 -2 31 4 25
15 -5 7 0 6 11 -3 10 -8 16 -10 12 -3 -10 17 23 45 45 39 11 -2 18 -2 15 1 -3
3 5 17 19 31 13 15 24 35 24 44 0 10 5 18 11 18 6 0 9 7 6 15 -4 8 -2 17 4 20
5 4 7 11 3 16 -3 5 0 8 8 7 7 -2 12 3 10 10 -1 8 2 11 9 7 7 -5 3 -16 -13 -34
l-23 -26 28 25 c17 14 25 30 22 39 -3 9 -3 12 1 8 4 -4 14 -1 23 6 14 11 15
10 1 -8 l-15 -20 25 20 c42 34 50 43 50 56 0 9 -3 9 -14 0 -15 -13 -26 4 -26
40 0 10 -5 19 -11 19 -8 0 -10 -14 -6 -39z m-256 -446 c0 -8 -4 -12 -9 -9 -5
3 -6 10 -3 15 9 13 12 11 12 -6z"/>
<path d="M725 1840 c21 -22 41 -40 44 -40 3 0 -13 18 -34 40 -21 22 -41 40
-44 40 -3 0 13 -18 34 -40z"/>
<path d="M720 1877 c0 -2 15 -16 33 -33 l32 -29 -29 33 c-28 30 -36 37 -36 29z"/>
<path d="M1151 1864 c0 -11 3 -14 6 -6 3 7 2 16 -1 19 -3 4 -6 -2 -5 -13z"/>
<path d="M1100 1850 c0 -11 4 -20 9 -20 5 0 7 9 4 20 -3 11 -7 20 -9 20 -2 0
-4 -9 -4 -20z"/>
<path d="M1132 1830 c0 -14 2 -19 5 -12 2 6 2 18 0 25 -3 6 -5 1 -5 -13z"/>
<path d="M2340 1846 c0 -2 8 -10 18 -17 15 -13 16 -12 3 4 -13 16 -21 21 -21
13z"/>
<path d="M695 1810 c10 -11 20 -20 23 -20 3 0 -3 9 -13 20 -10 11 -20 20 -23
20 -3 0 3 -9 13 -20z"/>
<path d="M1162 1810 c0 -14 2 -19 5 -12 2 6 2 18 0 25 -3 6 -5 1 -5 -13z"/>
<path d="M1110 1800 c0 -11 4 -20 9 -20 5 0 7 9 4 20 -3 11 -7 20 -9 20 -2 0
-4 -9 -4 -20z"/>
<path d="M2407 1814 c-8 -9 1 -24 14 -24 6 0 7 5 3 12 -4 7 -3 8 4 4 6 -4 9
-13 5 -21 -3 -10 1 -15 12 -15 16 0 16 2 3 22 -16 24 -31 32 -41 22z"/>
<path d="M1140 1776 c0 -14 4 -27 8 -30 5 -3 6 8 4 25 -5 35 -12 38 -12 5z"/>
<path d="M1191 1789 c-1 -9 2 -19 6 -23 4 -3 8 -16 10 -29 2 -12 8 -26 13 -31
6 -6 6 -14 -1 -22 -7 -9 -6 -12 7 -10 10 2 18 10 20 19 1 10 -2 15 -7 11 -9
-5 -17 9 -23 38 -6 27 -25 63 -25 47z"/>
<path d="M730 1786 c0 -2 8 -10 18 -17 15 -13 16 -12 3 4 -13 16 -21 21 -21
13z"/>
<path d="M1120 1745 c0 -14 4 -25 9 -25 4 0 6 11 3 25 -2 14 -6 25 -8 25 -2 0
-4 -11 -4 -25z"/>
<path d="M1171 1754 c0 -11 3 -14 6 -6 3 7 2 16 -1 19 -3 4 -6 -2 -5 -13z"/>
<path d="M796 1732 c-3 -5 1 -9 9 -9 8 0 12 4 9 9 -3 4 -7 8 -9 8 -2 0 -6 -4
-9 -8z"/>
<path d="M1100 1715 c0 -14 4 -25 9 -25 4 0 6 11 3 25 -2 14 -6 25 -8 25 -2 0
-4 -11 -4 -25z"/>
<path d="M1150 1710 c0 -11 4 -20 9 -20 5 0 7 9 4 20 -3 11 -7 20 -9 20 -2 0
-4 -9 -4 -20z"/>
<path d="M1180 1711 c0 -11 4 -22 9 -25 4 -3 6 6 3 19 -5 30 -12 33 -12 6z"/>
<path d="M860 1716 c0 -2 8 -10 18 -17 15 -13 16 -12 3 4 -13 16 -21 21 -21
13z"/>
<path d="M1131 1689 c-1 -15 5 -29 12 -32 7 -2 13 -17 15 -32 3 -34 11 -47 24
-39 7 5 8 2 3 -7 -11 -17 -13 -79 -3 -85 10 -7 10 -25 0 -21 -7 2 -12 -6 -12
-24 0 -6 7 -4 15 5 8 8 15 20 15 26 0 14 22 37 34 36 5 -1 15 10 23 24 14 22
14 23 0 7 -11 -14 -16 -15 -20 -5 -4 10 -6 10 -6 1 -1 -7 -6 -13 -12 -13 -5 0
-7 6 -4 13 4 6 -1 3 -10 -8 -16 -19 -17 -19 -12 16 5 43 15 62 27 54 5 -3 12
0 16 6 4 7 3 9 -3 6 -12 -8 -36 16 -27 26 3 3 3 11 -1 17 -5 8 -11 8 -21 -1
-11 -9 -14 -8 -14 7 0 16 -2 16 -10 4 -8 -13 -9 -13 -14 0 -2 8 -7 22 -9 30
-3 8 -6 3 -6 -11z m66 -43 c-3 -7 -1 -18 4 -23 7 -7 5 -12 -5 -16 -11 -4 -13
-1 -9 10 4 10 2 14 -5 9 -6 -3 -14 -1 -18 5 -4 7 -3 9 3 6 6 -4 13 0 17 8 3 8
8 15 12 15 3 0 4 -6 1 -14z"/>
<path d="M870 1675 c13 -14 26 -25 28 -25 3 0 -5 11 -18 25 -13 14 -26 25 -28
25 -3 0 5 -11 18 -25z"/>
<path d="M826 1668 c3 -5 9 -7 12 -4 8 8 33 -15 27 -24 -3 -5 -1 -11 4 -14 13
-8 7 22 -7 36 -15 15 -44 20 -36 6z"/>
<path d="M914 1656 c1 -8 5 -18 8 -22 4 -3 5 1 4 10 -1 8 -5 18 -8 22 -4 3 -5
-1 -4 -10z"/>
<path d="M820 1646 c0 -2 8 -10 18 -17 15 -13 16 -12 3 4 -13 16 -21 21 -21
13z"/>
<path d="M950 1636 c0 -2 8 -10 18 -17 15 -13 16 -12 3 4 -13 16 -21 21 -21
13z"/>
<path d="M784 1588 c9 -14 13 -28 9 -33 -5 -4 -2 -5 5 -1 13 8 2 39 -19 52 -6
3 -4 -5 5 -18z"/>
<path d="M1440 1570 c-26 -33 -29 -41 -16 -46 15 -6 60 35 50 46 -3 2 -9 -2
-14 -10 -7 -11 -10 -11 -10 -2 0 7 11 17 25 22 27 10 34 30 11 30 -8 0 -29
-18 -46 -40z"/>
<path d="M980 1574 c20 -33 50 -48 64 -33 8 9 8 10 -2 4 -9 -4 -25 4 -44 21
-22 21 -27 23 -18 8z"/>
<path d="M1074 1572 c3 -5 0 -13 -6 -15 -9 -4 -10 -6 -1 -6 17 -1 25 16 12 25
-7 4 -9 3 -5 -4z"/>
<path d="M1144 1542 c-4 -17 -13 -37 -20 -43 -8 -6 -14 -17 -14 -24 0 -20 -70
-41 -80 -25 -6 9 -9 9 -15 1 -5 -9 -11 -9 -23 1 -12 10 -14 10 -8 1 13 -22
-32 -15 -47 8 -9 13 -17 16 -22 10 -3 -6 -1 -11 4 -11 6 0 10 -5 8 -12 -2 -12
4 -14 46 -17 17 -1 19 -3 7 -10 -8 -6 -18 -7 -24 -4 -5 3 -6 1 -3 -4 4 -6 19
-8 33 -5 15 3 24 1 21 -4 -3 -5 14 -9 36 -9 28 0 41 -4 40 -12 -2 -8 4 -10 14
-6 12 5 14 3 8 -8 -4 -8 -5 -11 0 -7 4 4 15 3 25 -2 12 -6 23 -5 36 5 17 13
17 14 1 9 -9 -3 -34 2 -54 11 l-36 18 24 12 c13 7 27 11 31 9 5 -3 8 0 8 6 0
6 4 8 10 5 6 -3 9 4 8 19 -2 21 -5 23 -23 14 -15 -8 -14 -4 7 19 19 20 26 36
23 52 -7 36 -14 37 -21 3z m-60 -113 c-8 -13 -44 -17 -53 -5 -7 8 0 11 24 11
18 0 31 -3 29 -6z"/>
<path d="M840 1553 c0 -13 17 -26 38 -29 6 -1 10 2 6 7 -3 5 -9 7 -14 4 -5 -3
-13 3 -19 12 -6 10 -11 13 -11 6z"/>
<path d="M33 1543 c33 -5 26 -23 -9 -23 -40 0 -27 -17 19 -24 23 -4 92 -31
152 -61 l110 -55 -152 0 c-95 0 -153 -4 -153 -10 0 -6 70 -10 191 -10 124 0
188 -3 184 -10 -7 -11 8 -14 17 -4 10 9 131 12 161 3 16 -4 38 -4 50 2 19 8
18 9 -6 4 -16 -3 -26 -2 -23 3 7 12 -42 22 -104 22 -84 0 -150 19 -264 75 -62
30 -120 55 -129 55 -10 0 -17 4 -17 9 0 15 70 -8 137 -46 35 -19 68 -31 74
-27 7 4 9 3 6 -3 -4 -6 11 -15 36 -21 109 -29 117 -30 123 -21 4 6 10 6 17 0
7 -5 32 -10 57 -10 25 -1 56 -2 69 -2 18 -1 21 -3 10 -10 -11 -7 -11 -9 3 -9
21 0 52 30 41 40 -19 16 -119 40 -169 40 -29 0 -77 5 -106 12 -29 6 -56 11
-60 10 -5 -1 -8 3 -8 10 0 6 -7 3 -15 -8 -14 -17 -14 -17 -9 -1 5 15 2 18 -12
15 -11 -1 -46 9 -79 24 -33 14 -85 28 -115 31 -30 2 -43 2 -27 0z m404 -119
c-3 -3 -12 -4 -19 -1 -8 3 -5 6 6 6 11 1 17 -2 13 -5z m73 0 c0 -8 -19 -13
-24 -6 -3 5 1 9 9 9 8 0 15 -2 15 -3z"/>
<path d="M990 1498 c0 -23 3 -29 9 -19 8 12 4 51 -5 51 -2 0 -4 -15 -4 -32z"/>
<path d="M1404 1495 c1 -22 2 -23 13 -9 12 17 9 34 -7 34 -4 0 -7 -11 -6 -25z"/>
<path d="M905 1499 c-4 -6 -5 -12 -2 -15 2 -3 7 2 10 11 7 17 1 20 -8 4z"/>
<path d="M946 1501 c-4 -5 -2 -12 4 -16 6 -4 8 -11 5 -16 -3 -5 1 -6 10 -3 13
5 13 9 3 23 -7 9 -13 17 -14 19 -1 2 -5 -1 -8 -7z"/>
<path d="M1379 1502 c9 -7 10 -11 2 -15 -7 -4 -8 -5 0 -3 15 2 13 20 -3 24
-10 3 -10 2 1 -6z"/>
<path d="M1513 1395 c0 -22 2 -30 4 -17 2 12 2 30 0 40 -3 9 -5 -1 -4 -23z"/>
<path d="M1132 1394 c10 -10 20 -16 22 -13 3 3 -5 11 -17 18 -21 13 -21 12 -5
-5z"/>
<path d="M1300 1402 c-8 -2 -48 -17 -88 -33 -41 -16 -79 -26 -84 -23 -7 5 -8
2 -3 -6 6 -10 4 -12 -9 -7 -11 5 -15 3 -10 -5 5 -8 2 -9 -9 -5 -10 4 -16 2
-14 -5 1 -6 -4 -13 -12 -16 -9 -3 -11 0 -6 9 6 11 5 12 -5 2 -8 -7 -15 -30
-17 -52 -3 -31 1 -45 18 -62 18 -18 30 -21 81 -17 53 4 61 2 78 -19 19 -25 58
-30 91 -12 30 15 13 29 -21 16 -26 -10 -33 -8 -57 15 -26 25 -33 27 -84 21
-44 -4 -59 -2 -72 12 -36 36 -14 64 88 110 38 18 88 38 109 45 37 12 41 11 57
-9 28 -34 34 -102 14 -144 -9 -20 -14 -40 -11 -46 6 -9 -34 -42 -65 -54 -9 -3
-22 0 -29 6 -10 9 -11 9 -5 -1 6 -11 3 -11 -13 -1 -12 7 -18 17 -15 23 3 5 1
6 -5 2 -5 -3 -12 -2 -14 2 -3 9 -98 25 -98 17 0 -2 17 -9 38 -15 22 -5 49 -19
62 -30 13 -11 27 -20 32 -20 4 0 17 -9 28 -20 17 -17 20 -18 20 -3 0 9 3 14 6
10 3 -3 15 2 26 11 11 9 32 26 45 37 17 14 26 33 29 60 6 67 3 140 -6 165 -1
3 -2 7 -2 10 1 11 -54 36 -68 32z"/>
<path d="M934 1392 c7 -12 -5 -16 -31 -13 -7 1 -13 -3 -13 -9 0 -6 5 -8 12 -4
7 5 8 3 3 -6 -6 -10 -11 -9 -22 5 -9 14 -13 15 -13 4 0 -12 -2 -12 -10 1 -9
13 -10 13 -10 0 0 -9 -3 -11 -8 -5 -10 15 -35 18 -26 4 5 -9 2 -10 -12 -5 -31
12 -38 12 -41 -4 -3 -12 11 -15 79 -15 62 1 82 4 80 14 -1 7 2 10 7 7 5 -3 11
1 15 9 3 8 0 17 -6 21 -7 4 -8 3 -4 -4z"/>
<path d="M1541 1384 c0 -11 3 -14 6 -6 3 7 2 16 -1 19 -3 4 -6 -2 -5 -13z"/>
<path d="M675 1362 c-11 -2 -36 -11 -55 -20 -36 -16 -43 -16 -347 -8 -51 1
-96 6 -100 9 -3 4 -45 6 -92 5 l-86 -2 90 -6 c83 -6 85 -6 30 -9 -33 -2 -71
-4 -84 -4 -13 -1 -26 -8 -29 -16 -3 -9 2 -11 17 -6 26 8 467 9 480 0 16 -9
145 15 157 30 9 12 13 11 24 -6 8 -10 20 -19 27 -19 7 0 13 -4 13 -9 0 -5 8
-8 18 -7 9 0 16 -5 15 -11 -2 -7 3 -13 11 -13 8 0 16 -5 18 -10 2 -6 17 -13
33 -15 17 -2 31 -4 33 -6 1 -1 5 -2 10 -4 4 -1 15 -5 25 -9 17 -8 22 -7 67 19
23 13 25 12 40 -19 23 -50 39 -65 102 -97 33 -16 61 -36 64 -43 3 -8 19 -20
35 -26 16 -7 29 -18 29 -25 0 -8 4 -15 10 -17 5 -1 12 -23 15 -48 3 -25 2 -38
-2 -29 -5 9 -16 15 -25 13 -10 -1 -18 1 -18 5 0 4 -10 7 -22 8 -22 1 -73 10
-73 13 0 1 -9 3 -20 5 -19 4 -19 3 -2 -10 10 -7 14 -16 9 -19 -5 -3 -12 -2
-16 1 -4 4 -13 8 -22 9 -12 2 -13 -1 -3 -12 6 -7 15 -11 20 -8 8 5 14 -18 10
-39 -1 -5 3 -6 9 -2 6 4 17 1 25 -5 12 -10 15 -9 15 4 0 9 -8 16 -20 16 -24 0
-27 15 -4 24 24 9 61 7 89 -6 25 -11 34 -28 15 -28 -7 0 -7 -6 -1 -19 6 -10 8
-31 5 -46 -4 -23 -3 -25 9 -14 22 23 28 49 12 49 -8 0 -15 5 -15 11 0 6 7 9
15 5 15 -5 39 26 28 38 -3 3 0 6 7 6 10 0 11 3 3 11 -16 16 -5 39 15 31 14 -5
15 -3 5 10 -7 8 -9 19 -5 24 4 4 0 3 -8 -3 -13 -10 -16 -9 -16 6 0 11 9 18 23
19 22 2 29 -11 23 -47 -1 -9 4 -12 14 -8 11 5 16 0 16 -15 0 -17 2 -18 15 -8
8 7 15 10 15 6 0 -4 14 1 30 9 17 9 28 20 25 25 -4 6 1 10 9 10 9 0 15 -6 14
-12 -2 -7 5 -12 15 -10 9 2 17 -1 17 -6 0 -6 6 -12 13 -15 8 -3 14 1 14 9 0 7
-4 11 -9 8 -4 -3 -8 2 -8 11 0 10 5 13 12 9 6 -4 8 -3 5 4 -4 5 -17 8 -29 4
-14 -3 -19 -2 -14 6 7 11 -5 16 -31 13 -7 -1 -9 7 -6 19 4 15 2 19 -9 15 -9
-4 -14 -18 -14 -38 1 -24 -5 -34 -24 -44 -32 -16 -42 -5 -12 14 12 9 22 20 22
25 0 5 -7 2 -16 -6 -8 -9 -20 -13 -26 -10 -7 5 -8 2 -3 -6 5 -9 4 -11 -3 -6
-18 11 -14 20 11 31 13 6 23 20 24 35 1 14 5 36 9 50 7 22 3 20 -25 -12 -32
-37 -52 -48 -96 -53 -16 -1 -22 2 -18 11 3 8 0 15 -6 15 -6 1 -14 3 -18 4 -5
2 -18 6 -30 10 -13 4 -21 11 -18 15 3 4 -20 20 -49 36 -30 16 -52 32 -50 36 3
4 -1 5 -9 3 -7 -3 -20 2 -28 12 -21 25 -40 73 -30 73 5 0 11 -8 14 -17 2 -10
4 -1 3 20 -1 29 -3 34 -12 22 -6 -8 -14 -12 -18 -8 -3 3 1 14 9 23 14 15 14
19 -2 31 -16 13 -17 12 -5 -3 9 -11 10 -18 2 -23 -15 -9 -29 3 -25 23 3 20
-14 44 -26 36 -5 -3 -14 -15 -20 -27 -7 -12 -8 -19 -4 -15 11 11 47 -11 39
-24 -5 -7 -2 -8 7 -3 12 7 12 6 1 -7 -7 -9 -22 -15 -33 -13 -11 2 -18 1 -15
-3 2 -4 -2 -16 -10 -27 -11 -15 -17 -17 -23 -7 -7 12 -39 21 -82 25 -9 0 -22
10 -29 20 -6 11 -7 16 -2 13 5 -3 12 3 15 13 3 13 0 18 -12 16 -9 -1 -21 7
-27 18 -12 21 -38 27 -79 19z m69 -18 c3 -8 2 -12 -4 -9 -6 3 -10 10 -10 16 0
14 7 11 14 -7z m626 -290 c0 -8 -19 -13 -24 -6 -3 5 1 9 9 9 8 0 15 -2 15 -3z"/>
<path d="M1402 1330 c0 -14 2 -19 5 -12 2 6 2 18 0 25 -3 6 -5 1 -5 -13z"/>
<path d="M866 1331 c-4 -5 -17 -8 -31 -7 -13 2 -26 -2 -28 -8 -3 -7 11 -11 37
-11 22 0 51 -4 64 -8 14 -6 22 -5 22 3 0 6 -4 9 -9 6 -5 -3 -11 1 -15 9 -3 9
-12 12 -22 8 -12 -4 -15 -3 -10 5 4 7 5 12 2 12 -3 0 -7 -4 -10 -9z"/>
<path d="M1805 1301 c3 -2 30 -5 60 -6 30 0 52 2 49 5 -3 3 -30 5 -60 6 -30 0
-52 -2 -49 -5z"/>
<path d="M834 1288 c-5 -7 0 -9 14 -6 13 4 22 1 22 -5 0 -6 3 -7 7 -4 3 4 13
1 22 -5 15 -11 15 -10 0 5 -19 21 -56 30 -65 15z"/>
<path d="M1753 1282 c-4 -10 -8 -10 -13 -2 -5 8 -9 7 -13 -5 -4 -9 -3 -13 2
-10 5 3 12 1 16 -5 3 -5 1 -10 -6 -10 -7 0 -4 -7 7 -15 10 -8 24 -14 29 -14 6
0 3 4 -7 9 -9 6 -15 18 -13 28 2 9 4 21 4 25 1 5 5 6 10 2 5 -3 12 -2 15 3 3
5 -2 9 -10 9 -9 0 -18 -7 -21 -15z"/>
<path d="M1970 1295 c0 -2 6 -8 13 -14 10 -8 14 -7 14 2 0 8 -6 14 -14 14 -7
0 -13 -1 -13 -2z"/>
<path d="M798 1283 c7 -3 16 -2 19 1 4 3 -2 6 -13 5 -11 0 -14 -3 -6 -6z"/>
<path d="M2025 1277 c19 -11 24 -13 43 -16 4 0 7 -12 7 -26 0 -14 -5 -23 -11
-21 -6 2 -11 -2 -11 -10 0 -8 2 -14 5 -14 7 0 53 39 53 46 1 10 -54 44 -62 38
-4 -2 -10 0 -14 6 -3 5 -12 10 -18 10 -7 0 -3 -6 8 -13z m62 -49 c-3 -8 -6 -5
-6 6 -1 11 2 17 5 13 3 -3 4 -12 1 -19z"/>
<path d="M1503 1233 c-13 -2 -23 -8 -23 -13 0 -4 -10 -11 -22 -15 -13 -4 -25
-8 -28 -9 -40 -14 -73 -56 -44 -56 8 0 13 4 9 9 -7 12 12 24 25 16 8 -5 7 -11
0 -21 -7 -7 -10 -19 -7 -26 2 -7 0 -22 -6 -33 -7 -13 0 -9 20 10 29 29 59 75
49 75 -3 0 -14 -9 -24 -21 l-19 -20 0 25 c0 21 4 26 24 26 14 0 21 4 18 10 -4
6 5 10 20 10 14 0 24 4 20 9 -3 5 -1 12 5 16 5 3 10 3 10 -2 0 -4 16 -13 35
-19 28 -9 37 -8 50 5 15 15 16 14 9 -1 -3 -11 -1 -18 5 -18 12 0 15 23 5 33
-3 3 -17 1 -31 -4 -22 -8 -24 -7 -19 7 5 14 4 15 -8 5 -10 -8 -16 -9 -21 -1
-6 10 -13 11 -52 3z"/>
<path d="M1655 1210 c-3 -6 1 -7 9 -4 18 7 21 14 7 14 -6 0 -13 -4 -16 -10z"/>
<path d="M2027 1213 c-10 -9 -9 -23 1 -23 5 0 9 7 9 15 0 17 -1 18 -10 8z"/>
<path d="M1502 1182 c-6 -2 -12 -11 -12 -20 0 -15 2 -15 10 -2 5 8 10 11 10 6
0 -5 -17 -23 -37 -41 -33 -28 -36 -34 -24 -49 11 -13 11 -16 0 -16 -11 0 -11
-2 1 -10 14 -9 46 7 35 18 -11 12 27 40 47 34 20 -5 20 -5 -2 -17 -19 -10 -17
-12 24 -11 24 0 45 2 44 5 0 3 1 8 2 11 9 24 6 46 -8 57 -15 13 -13 14 20 8
21 -3 39 -1 43 5 4 6 -1 7 -11 3 -10 -4 -15 -2 -11 3 6 11 -33 11 -50 1 -6 -4
-13 -2 -15 5 -4 12 -42 18 -66 10z m58 -14 c0 -4 8 -14 17 -24 22 -22 25 -40
8 -54 -10 -9 -16 -6 -25 9 -11 22 -44 28 -55 11 -3 -5 -12 -7 -20 -4 -22 9 -8
24 21 24 26 0 28 3 15 28 -7 14 -4 17 15 17 13 0 24 -3 24 -7z m-80 -72 c0 -3
-4 -8 -10 -11 -5 -3 -10 -1 -10 4 0 6 5 11 10 11 6 0 10 -2 10 -4z"/>
<path d="M1530 1155 c0 0 11 -16 24 -34 20 -27 25 -30 23 -13 0 11 -6 20 -12
19 -5 -1 -9 5 -9 14 1 9 -5 16 -12 16 -8 0 -14 -1 -14 -2z"/>
<path d="M1878 1163 c7 -3 16 -2 19 1 4 3 -2 6 -13 5 -11 0 -14 -3 -6 -6z"/>
<path d="M1754 1144 c-18 -14 -18 -14 6 -3 31 14 36 19 24 19 -6 0 -19 -7 -30
-16z"/>
<path d="M1948 1153 c6 -2 18 -2 25 0 6 3 1 5 -13 5 -14 0 -19 -2 -12 -5z"/>
<path d="M1998 1148 c5 -5 16 -8 23 -6 8 3 3 7 -10 11 -17 4 -21 3 -13 -5z"/>
<path d="M1640 1135 c-14 -8 -20 -14 -15 -14 6 0 21 6 35 14 14 8 21 14 15 14
-5 0 -21 -6 -35 -14z"/>
<path d="M1863 1135 c0 -7 6 -11 14 -8 7 3 13 6 13 8 0 2 -6 5 -13 8 -8 3 -14
-1 -14 -8z"/>
<path d="M2049 1138 c15 -21 31 -23 31 -6 0 6 -3 8 -7 5 -3 -4 -13 -1 -22 6
-14 11 -14 10 -2 -5z"/>
<path d="M2352 1125 c0 -16 2 -22 5 -12 2 9 2 23 0 30 -3 6 -5 -1 -5 -18z"/>
<path d="M1698 1133 c-10 -2 -18 -9 -18 -14 0 -6 10 -5 23 2 37 20 36 23 -5
12z"/>
<path d="M1775 1130 c-13 -6 -15 -9 -5 -9 8 0 22 4 30 9 18 12 2 12 -25 0z"/>
<path d="M2272 1130 c2 -10 -4 -14 -17 -12 -16 2 -17 1 -5 -7 14 -10 7 -15
-13 -12 -5 1 -6 -3 -2 -9 3 -6 10 -8 15 -5 4 3 11 -2 14 -11 6 -16 26 -11 26
7 0 6 -4 8 -9 4 -5 -3 -13 0 -17 6 -4 7 -3 9 2 6 6 -3 16 -2 24 3 13 8 12 12
-3 27 -14 14 -18 15 -15 3z"/>
<path d="M1948 1118 c5 -5 16 -8 23 -6 8 3 3 7 -10 11 -17 4 -21 3 -13 -5z"/>
<path d="M2095 1118 c7 -16 55 -52 54 -41 0 4 -13 18 -30 31 -16 13 -27 18
-24 10z"/>
<path d="M2442 1105 c0 -16 2 -22 5 -12 2 9 2 23 0 30 -3 6 -5 -1 -5 -18z"/>
<path d="M1635 1110 c-13 -6 -15 -9 -5 -9 8 0 22 4 30 9 18 12 2 12 -25 0z"/>
<path d="M1715 1110 c-13 -6 -15 -9 -5 -9 8 0 22 4 30 9 18 12 2 12 -25 0z"/>
<path d="M2321 1104 c0 -11 3 -14 6 -6 3 7 2 16 -1 19 -3 4 -6 -2 -5 -13z"/>
<path d="M1321 1089 c-13 -10 -19 -19 -15 -19 13 1 48 29 43 34 -2 2 -15 -4
-28 -15z"/>
<path d="M1778 1103 c7 -3 16 -2 19 1 4 3 -2 6 -13 5 -11 0 -14 -3 -6 -6z"/>
<path d="M1845 1101 c-6 -10 33 -36 42 -28 2 3 -5 8 -18 12 -17 6 -19 9 -8 16
9 6 10 9 2 9 -6 0 -14 -4 -18 -9z"/>
<path d="M1990 1106 c0 -2 7 -7 16 -10 8 -3 12 -2 9 4 -6 10 -25 14 -25 6z"/>
<path d="M1645 1089 c-16 -8 -15 -8 8 -4 19 4 26 2 22 -5 -3 -5 -1 -10 5 -10
13 0 8 23 -6 26 -5 1 -18 -2 -29 -7z"/>
<path d="M1706 1082 c-5 -9 154 -96 161 -88 5 4 -78 52 -108 61 -17 6 -19 9
-8 16 9 7 4 8 -16 3 -23 -4 -26 -3 -15 5 9 7 10 11 3 11 -6 0 -14 -4 -17 -8z"/>
<path d="M1950 1065 c25 -13 41 -24 36 -25 -12 0 14 -30 27 -30 6 0 2 7 -9 16
-18 15 -18 15 4 9 40 -11 23 4 -33 30 -70 32 -84 32 -25 0z"/>
<path d="M1971 1086 c10 -9 109 -56 109 -51 0 5 -95 55 -106 55 -4 0 -5 -2 -3
-4z"/>
<path d="M2030 1086 c0 -2 7 -7 16 -10 8 -3 12 -2 9 4 -6 10 -25 14 -25 6z"/>
<path d="M1830 1068 c14 -6 50 -23 80 -38 30 -15 66 -30 80 -34 14 -4 -11 11
-55 32 -44 22 -91 42 -105 46 l-25 6 25 -12z"/>
<path d="M1652 1056 c26 -8 68 -26 93 -40 25 -15 45 -24 45 -20 0 5 7 -1 15
-12 8 -10 15 -14 15 -9 0 6 4 4 9 -3 4 -7 18 -14 29 -15 12 -1 22 -5 22 -9 0
-4 9 -8 20 -8 11 0 20 -6 20 -13 0 -8 -7 -14 -15 -14 -8 0 -15 5 -15 10 0 5
-6 4 -14 -2 -11 -9 -16 -9 -22 0 -5 8 -3 9 6 4 9 -5 11 -4 6 4 -6 9 -11 9 -21
1 -10 -8 -15 -8 -21 1 -5 8 -3 10 7 4 8 -5 11 -4 6 1 -5 5 -12 9 -15 9 -22 2
-51 18 -47 26 3 5 -1 6 -9 3 -11 -4 -19 2 -25 17 -5 13 -10 18 -10 10 -1 -8
-9 -4 -21 10 -10 13 -19 21 -20 17 0 -4 -17 -1 -37 7 -50 20 -103 25 -103 11
0 -6 -5 -4 -10 4 -7 11 -10 11 -10 2 0 -7 -5 -10 -11 -6 -7 4 -7 -1 1 -16 9
-18 14 -20 21 -9 4 7 11 10 14 7 4 -4 18 -3 31 2 17 7 24 6 24 -3 0 -8 4 -7
10 3 8 13 14 8 12 -11 -1 -3 9 -6 21 -5 13 1 36 -14 57 -35 47 -49 111 -82 79
-41 -13 15 -12 16 4 3 11 -9 14 -18 8 -25 -7 -8 7 -11 50 -11 32 0 59 -2 59
-5 0 -3 9 -6 20 -7 12 -1 20 4 20 13 0 8 -4 12 -10 9 -5 -3 -10 0 -10 9 0 8 8
13 18 12 12 -2 16 -10 14 -27 -2 -20 2 -24 26 -25 18 -1 29 3 29 12 0 17 -24
19 -29 2 -3 -7 -7 -6 -11 5 -5 14 0 17 35 17 50 0 47 8 -6 12 -38 2 -63 18
-29 18 15 0 16 2 3 10 -12 8 -12 10 5 11 13 0 8 5 -15 13 -19 7 -68 30 -107
50 -40 20 -78 36 -85 36 -7 0 33 -22 88 -48 84 -40 100 -51 93 -65 -8 -13 -15
-14 -42 -5 -17 5 -38 10 -44 11 -7 0 -13 5 -13 10 0 6 -3 7 -6 4 -4 -4 -19 2
-34 13 -16 11 -33 20 -39 20 -6 0 -11 5 -11 11 0 5 -4 7 -10 4 -5 -3 -10 -1
-10 5 0 6 -4 8 -10 5 -5 -3 -10 -2 -10 3 0 10 -43 22 -95 28 -18 2 -11 -2 17
-10z"/>
<path d="M1901 1066 c10 -9 69 -36 69 -32 0 6 -55 36 -66 36 -4 0 -5 -2 -3 -4z"/>
<path d="M2077 1059 c7 -7 15 -10 18 -7 3 3 -2 9 -12 12 -14 6 -15 5 -6 -5z"/>
<path d="M2160 1066 c0 -2 9 -6 20 -9 11 -3 18 -1 14 4 -5 9 -34 13 -34 5z"/>
<path d="M2336 1043 c-6 -14 -5 -15 5 -6 7 7 10 15 7 18 -3 3 -9 -2 -12 -12z"/>
<path d="M2050 1020 c8 -5 20 -10 25 -10 6 0 3 5 -5 10 -8 5 -19 10 -25 10 -5
0 -3 -5 5 -10z"/>
<path d="M2098 988 c5 -5 16 -8 23 -6 8 3 3 7 -10 11 -17 4 -21 3 -13 -5z"/>
<path d="M1890 980 c8 -5 20 -10 25 -10 6 0 3 5 -5 10 -8 5 -19 10 -25 10 -5
0 -3 -5 5 -10z"/>
<path d="M2028 983 c7 -3 16 -2 19 1 4 3 -2 6 -13 5 -11 0 -14 -3 -6 -6z"/>
<path d="M2163 980 c-34 -14 -28 -21 7 -9 17 6 30 13 30 15 0 6 -12 4 -37 -6z"/>
<path d="M2273 980 c2 -8 17 -17 33 -18 32 -4 31 4 -1 10 -11 1 -24 8 -28 13
-5 6 -7 4 -4 -5z"/>
<path d="M2059 978 c-8 -28 -5 -35 15 -30 19 6 19 7 2 10 -15 3 -16 6 -5 13
10 6 10 9 2 9 -7 0 -13 -1 -14 -2z"/>
<path d="M2217 973 c-20 -5 -18 -25 4 -31 12 -3 12 -2 0 6 -10 7 -7 12 15 20
29 10 15 14 -19 5z"/>
<path d="M1296 948 c4 -14 2 -18 -5 -14 -7 5 -12 -2 -12 -16 -1 -13 -3 -30 -4
-38 -1 -8 -3 -24 -4 -35 -1 -15 -3 -17 -10 -7 -6 10 -10 9 -14 -7 -3 -12 -1
-21 3 -21 17 0 40 45 40 77 0 17 5 35 11 38 6 4 8 14 5 22 -3 8 -1 11 4 8 6
-3 10 -13 10 -21 0 -8 6 -13 13 -11 6 1 11 -3 10 -9 -1 -6 5 -11 12 -11 12 0
12 3 2 16 -6 9 -18 20 -25 24 -7 5 -10 12 -8 16 3 4 -4 8 -15 8 -16 2 -19 -2
-13 -19z"/>
<path d="M1448 964 c-5 -5 -28 -11 -50 -13 -5 -1 -8 -6 -8 -12 0 -13 40 -2 60
17 8 8 12 14 9 14 -3 0 -8 -3 -11 -6z"/>
<path d="M2006 961 c-4 -5 3 -7 14 -4 23 6 26 13 6 13 -8 0 -17 -4 -20 -9z"/>
<path d="M2105 960 c-3 -6 1 -7 9 -4 18 7 21 14 7 14 -6 0 -13 -4 -16 -10z"/>
<path d="M2322 942 c-12 -15 -21 -20 -20 -12 2 8 -3 14 -11 12 -7 -1 -19 2
-26 8 -10 8 -15 8 -21 -1 -4 -8 -3 -9 4 -5 7 4 12 1 12 -8 0 -10 6 -13 15 -10
8 4 15 1 15 -4 0 -19 78 -36 96 -22 8 7 13 6 18 -5 3 -8 0 -15 -7 -15 -8 0 -6
-4 3 -10 13 -9 13 -10 0 -10 -9 0 -11 -3 -5 -8 18 -13 17 -35 0 -28 -9 3 -19
6 -21 6 -3 0 -3 3 -1 8 3 4 -4 16 -14 26 -18 18 -18 18 -14 -3 5 -29 14 -41
28 -41 7 0 12 -16 12 -40 1 -22 -2 -34 -6 -28 -5 7 -10 10 -14 7 -3 -3 4 -14
15 -24 19 -18 20 -17 21 1 0 10 2 27 4 37 2 9 -1 17 -6 17 -6 0 -7 5 -3 12 5
7 11 5 21 -7 14 -20 17 -14 15 34 -1 23 -1 23 21 5 20 -18 21 -18 7 -1 -12 16
-12 20 1 28 10 6 11 9 1 9 -7 0 -11 4 -8 9 4 5 0 12 -6 14 -10 4 -10 6 0 6 8
1 2 11 -12 24 -14 13 -23 27 -19 31 4 4 0 4 -10 0 -11 -4 -17 -1 -17 7 0 11
-2 11 -9 -1 -6 -8 -8 -17 -5 -21 2 -4 -4 -13 -13 -20 -15 -12 -16 -12 -10 4 4
11 3 16 -3 12 -17 -11 -11 7 8 21 14 11 14 13 2 13 -8 0 -25 -12 -38 -27z m95
-28 c0 -9 -4 -11 -10 -5 -5 5 -17 7 -26 3 -14 -5 -14 -3 -3 11 15 18 39 13 39
-9z m-74 2 c4 -10 1 -13 -8 -9 -8 3 -12 9 -9 14 7 12 11 11 17 -5z"/>
<path d="M997 954 c-4 -4 -7 -12 -7 -18 0 -6 5 -4 10 4 8 13 10 12 11 -5 1
-11 1 -24 0 -30 -1 -5 6 -1 14 9 8 11 15 25 14 30 0 6 -3 5 -6 -2 -4 -10 -8
-9 -17 3 -6 9 -15 13 -19 9z"/>
<path d="M1470 955 c0 -2 10 -10 23 -16 20 -11 21 -11 8 4 -13 16 -31 23 -31
12z"/>
<path d="M2165 950 c-3 -6 1 -7 9 -4 18 7 21 14 7 14 -6 0 -13 -4 -16 -10z"/>
<path d="M2120 940 c0 -5 7 -7 15 -4 8 4 15 8 15 10 0 2 -7 4 -15 4 -8 0 -15
-4 -15 -10z"/>
<path d="M2088 933 c7 -3 16 -2 19 1 4 3 -2 6 -13 5 -11 0 -14 -3 -6 -6z"/>
<path d="M2165 930 c-13 -6 -15 -9 -5 -9 8 0 22 4 30 9 18 12 2 12 -25 0z"/>
<path d="M1413 923 c-14 -5 -18 -45 -6 -56 3 -4 8 -19 9 -34 2 -15 7 -29 13
-31 5 -2 7 -12 4 -22 -3 -11 -1 -20 4 -20 11 0 11 29 0 46 -3 6 -5 27 -4 47 2
20 0 34 -4 31 -4 -2 -10 0 -14 6 -6 9 7 14 28 11 4 0 7 3 7 8 0 11 -21 19 -37
14z"/>
<path d="M2060 919 c0 -5 11 -9 25 -9 14 0 25 2 25 4 0 2 -11 6 -25 8 -14 3
-25 1 -25 -3z"/>
<path d="M2195 916 c-12 -9 -28 -11 -45 -6 -18 5 -27 4 -27 -4 0 -8 10 -11 25
-8 14 3 22 1 19 -4 -3 -5 8 -9 24 -10 16 -1 29 3 29 8 0 5 -4 7 -9 3 -5 -3
-12 -1 -15 4 -4 5 3 13 15 16 20 7 25 4 87 -52 31 -29 42 -29 34 -1 -3 12 -7
17 -10 10 -2 -8 -11 -3 -24 13 -11 14 -23 23 -28 20 -4 -3 -13 2 -20 10 -15
19 -31 19 -55 1z"/>
<path d="M947 913 c-2 -5 0 -21 4 -38 7 -29 7 -28 6 8 -1 38 -3 43 -10 30z"/>
<path d="M1316 894 c-3 -9 -4 -19 -1 -22 3 -3 5 1 5 9 0 11 2 11 10 -1 5 -8
10 -10 10 -5 0 6 -4 16 -9 23 -6 11 -10 10 -15 -4z"/>
<path d="M2025 900 c-8 -13 3 -17 65 -25 30 -4 65 -13 78 -21 12 -8 22 -12 22
-9 0 3 9 1 20 -5 24 -13 26 -5 5 16 -8 9 -15 12 -15 8 0 -3 -7 -1 -15 6 -8 7
-15 9 -15 5 0 -4 -7 -2 -15 5 -8 6 -19 9 -24 6 -5 -4 -12 -2 -15 3 -4 5 -14 8
-24 6 -9 -1 -27 1 -39 6 -12 5 -25 4 -28 -1z"/>
<path d="M1040 892 c0 -6 -10 -20 -22 -32 -12 -11 -18 -20 -14 -20 4 0 -2 -15
-14 -32 l-22 -33 26 28 c15 16 24 33 21 38 -4 5 -2 9 4 9 13 0 35 39 27 48 -3
3 -6 0 -6 -6z"/>
<path d="M2227 888 c-3 -10 3 -23 16 -33 12 -9 16 -13 10 -10 -14 7 -17 -4 -5
-20 15 -21 32 -16 23 8 -5 12 -9 25 -10 30 0 4 -4 7 -8 6 -4 0 -10 7 -13 17
-6 16 -7 16 -13 2z"/>
<path d="M1192 870 c0 -14 2 -19 5 -12 2 6 2 18 0 25 -3 6 -5 1 -5 -13z"/>
<path d="M1360 881 c0 -6 4 -12 8 -15 5 -3 9 1 9 9 0 8 -4 15 -9 15 -4 0 -8
-4 -8 -9z"/>
<path d="M1656 871 c-4 -5 -2 -12 3 -15 5 -4 12 -2 15 3 4 5 2 12 -3 15 -5 4
-12 2 -15 -3z"/>
<path d="M1289 824 c-9 -19 -13 -34 -9 -34 9 0 35 59 29 64 -2 2 -11 -12 -20
-30z"/>
<path d="M934 830 c0 -13 4 -16 10 -10 7 7 7 13 0 20 -6 6 -10 3 -10 -10z"/>
<path d="M1067 839 c7 -7 15 -10 18 -7 3 3 -2 9 -12 12 -14 6 -15 5 -6 -5z"/>
<path d="M1370 843 c1 -11 49 -100 50 -91 0 4 -5 19 -12 35 -6 15 -11 31 -10
36 1 4 -3 7 -9 7 -5 0 -7 5 -4 10 3 6 1 10 -4 10 -6 0 -11 -3 -11 -7z"/>
<path d="M2280 843 c1 -4 7 -19 15 -33 12 -22 14 -23 12 -4 -1 19 -27 55 -27
37z"/>
<path d="M0 830 c0 -5 7 -10 15 -10 30 0 74 -60 86 -118 16 -81 31 -112 77
-159 22 -22 63 -74 90 -115 57 -84 94 -118 204 -188 47 -30 83 -60 93 -79 8
-17 11 -31 6 -31 -5 0 -12 9 -16 20 -7 22 -55 63 -63 55 -3 -3 4 -12 16 -21
21 -14 67 -92 60 -99 -2 -2 -14 15 -26 39 -13 24 -40 53 -62 67 -41 25 -56 48
-19 29 11 -7 23 -9 26 -7 7 7 -34 28 -50 26 -19 -3 -67 12 -67 22 0 13 14 11
28 -3 6 -6 14 -9 17 -6 3 3 -15 18 -40 32 -25 15 -57 45 -72 67 -26 40 -40 51
-29 24 12 -31 -10 -13 -36 31 -15 24 -41 52 -58 62 -16 9 -30 23 -30 31 0 11
3 11 18 0 9 -8 25 -23 35 -33 9 -11 20 -16 24 -12 4 4 -18 31 -49 61 -41 38
-61 67 -73 102 -8 26 -14 36 -12 21 3 -18 0 -28 -8 -28 -21 0 -25 -27 -14 -81
8 -36 15 -49 24 -45 9 3 12 0 8 -10 -4 -10 3 -14 27 -14 48 0 96 -55 137 -160
6 -14 21 -30 34 -37 46 -21 97 -43 103 -43 3 0 14 -7 24 -15 9 -9 32 -27 50
-42 34 -26 72 -89 72 -118 0 -9 5 -13 10 -10 6 4 8 10 5 15 -3 5 -1 11 5 15 6
4 10 -6 10 -24 0 -16 5 -33 11 -37 8 -4 9 16 4 71 -5 54 -4 76 3 71 7 -4 9 3
6 21 -5 27 -5 27 10 8 9 -12 15 -15 16 -7 0 7 5 10 11 6 6 -3 15 0 20 7 13 20
11 31 -3 23 -10 -5 -10 -4 -1 6 10 11 17 10 38 -4 26 -17 26 -17 16 2 -8 14
-7 19 5 19 7 0 14 -4 14 -8 0 -4 8 -6 18 -4 9 1 22 -1 27 -5 14 -11 82 -16 91
-7 4 4 15 7 25 7 9 0 19 7 23 15 7 19 1 19 -36 -2 -23 -14 -32 -15 -35 -6 -3
9 -10 10 -22 4 -10 -6 -23 -6 -32 0 -9 6 -10 9 -2 9 8 0 6 11 -7 32 -10 18
-20 45 -22 60 -2 15 -7 30 -11 33 -4 3 -5 2 -2 -2 3 -3 -1 -13 -7 -22 -7 -9
-8 -13 -3 -8 4 4 14 -7 20 -25 7 -18 16 -42 20 -52 7 -16 5 -18 -11 -12 -34
14 -77 16 -91 5 -11 -9 -12 -8 -7 5 4 11 1 16 -10 16 -9 0 -15 -5 -13 -12 1
-6 -11 -18 -28 -26 -16 -8 -33 -19 -36 -25 -4 -5 -10 -4 -14 3 -4 7 -39 33
-79 58 -115 73 -144 100 -198 181 -28 42 -72 99 -98 127 -42 44 -50 61 -65
126 -19 87 -61 148 -101 148 -13 0 -24 -4 -24 -10z m133 -302 c14 -14 14 -17
1 -34 -9 -11 -13 -13 -9 -6 6 11 -7 17 -30 12 -5 -1 -1 8 10 20 16 18 16 20 2
14 -11 -4 -17 -1 -18 10 -1 9 -2 22 -3 29 -5 27 7 28 19 0 7 -16 19 -36 28
-45z m172 -207 c11 -17 29 -33 40 -36 20 -7 20 -7 0 -12 -10 -3 -21 0 -23 6
-2 6 -10 11 -17 11 -7 0 -18 14 -24 30 -13 38 -2 38 24 1z"/>
<path d="M1155 804 c1 -13 -1 -24 -5 -24 -4 0 -10 -16 -12 -35 -4 -39 8 -35
14 4 1 14 9 26 17 29 8 3 11 0 7 -7 -4 -6 -2 -11 3 -11 17 0 6 63 -12 66 -10
1 -14 -5 -12 -22z m18 1 c-3 -9 -8 -14 -10 -11 -3 3 -2 9 2 15 9 16 15 13 8
-4z"/>
<path d="M1350 827 c0 -4 11 -30 25 -57 14 -27 25 -56 25 -64 0 -8 4 -17 9
-21 9 -5 3 26 -15 70 -11 27 -44 82 -44 72z"/>
<path d="M1306 805 c-9 -26 -7 -32 5 -12 6 10 9 21 6 23 -2 3 -7 -2 -11 -11z"/>
<path d="M2 784 c-2 -21 2 -25 21 -23 12 2 29 -1 37 -6 9 -5 6 1 -5 14 -33 38
-50 43 -53 15z m33 -4 c3 -6 -1 -7 -9 -4 -18 7 -21 14 -7 14 6 0 13 -4 16 -10z"/>
<path d="M1226 784 c-11 -28 -6 -38 9 -18 8 10 15 22 15 27 0 13 -18 7 -24 -9z"/>
<path d="M1316 775 c-9 -26 -7 -32 5 -12 6 10 9 21 6 23 -2 3 -7 -2 -11 -11z"/>
<path d="M1343 780 c22 -57 57 -133 57 -123 0 18 -31 95 -48 118 -8 11 -12 13
-9 5z"/>
<path d="M1560 786 c0 -2 8 -10 18 -17 15 -13 16 -12 3 4 -13 16 -21 21 -21
13z"/>
<path d="M1256 764 c-5 -14 -4 -15 9 -4 17 14 19 20 6 20 -5 0 -12 -7 -15 -16z"/>
<path d="M916 753 c-6 -14 -5 -15 5 -6 7 7 10 15 7 18 -3 3 -9 -2 -12 -12z"/>
<path d="M1282 750 c-7 -11 -8 -20 -3 -20 9 0 24 30 18 36 -1 2 -8 -6 -15 -16z"/>
<path d="M1184 696 c0 -29 -4 -60 -7 -70 -11 -28 -35 -2 -40 42 -3 29 -4 27
-4 -11 1 -27 5 -51 9 -53 5 -3 4 -12 -2 -19 -8 -9 -8 -15 0 -20 10 -6 11 -5
14 13 0 5 9 16 18 25 19 19 35 124 22 137 -5 5 -9 -14 -10 -44z"/>
<path d="M1441 734 c1 -10 5 -30 10 -44 7 -21 8 -18 5 13 -4 39 -17 66 -15 31z"/>
<path d="M50 714 c6 -14 10 -37 10 -51 0 -15 3 -24 6 -20 3 3 6 9 6 14 0 4 5
14 11 22 9 11 9 13 1 8 -7 -4 -14 3 -16 18 -3 13 0 26 6 29 6 2 1 5 -11 5 -20
1 -21 -2 -13 -25z"/>
<path d="M1237 719 c-4 -16 -3 -18 9 -8 16 13 19 29 5 29 -5 0 -11 -9 -14 -21z"/>
<path d="M1291 709 c-6 -18 -11 -37 -10 -43 0 -6 7 7 15 28 8 22 12 41 10 43
-2 2 -9 -10 -15 -28z"/>
<path d="M1340 735 c0 -5 5 -17 10 -25 5 -8 10 -10 10 -5 0 6 -5 17 -10 25 -5
8 -10 11 -10 5z"/>
<path d="M1029 713 c-13 -16 -12 -17 4 -4 16 13 21 21 13 21 -2 0 -10 -8 -17
-17z"/>
<path d="M943 695 c0 -8 4 -12 9 -9 5 3 6 10 3 15 -9 13 -12 11 -12 -6z"/>
<path d="M2366 694 c-5 -12 -10 -14 -19 -5 -10 8 -14 7 -14 -4 0 -8 4 -12 9
-9 4 3 8 -3 9 -13 0 -14 2 -15 6 -3 3 8 12 20 20 27 8 6 10 14 5 17 -6 3 -13
-1 -16 -10z"/>
<path d="M1261 690 c-1 -8 -4 -26 -7 -40 -5 -22 -4 -23 6 -7 6 10 9 28 7 40
-2 12 -5 15 -6 7z"/>
<path d="M1231 674 c0 -11 3 -14 6 -6 3 7 2 16 -1 19 -3 4 -6 -2 -5 -13z"/>
<path d="M1371 655 c1 -19 18 -51 18 -35 0 8 -4 22 -9 30 -5 8 -9 11 -9 5z"/>
<path d="M1460 641 c0 -11 4 -22 9 -25 4 -3 6 6 3 19 -5 30 -12 33 -12 6z"/>
<path d="M1040 630 c-6 -11 -8 -20 -6 -20 3 0 10 9 16 20 6 11 8 20 6 20 -3 0
-10 -9 -16 -20z"/>
<path d="M1350 645 c0 -5 5 -17 10 -25 5 -8 10 -10 10 -5 0 6 -5 17 -10 25 -5
8 -10 11 -10 5z"/>
<path d="M1421 634 c0 -11 3 -14 6 -6 3 7 2 16 -1 19 -3 4 -6 -2 -5 -13z"/>
<path d="M860 625 c-7 -8 -9 -15 -4 -16 5 0 0 -5 -11 -10 l-20 -9 20 3 c11 1
20 7 20 12 0 6 4 16 8 23 11 17 2 15 -13 -3z"/>
<path d="M995 629 c-4 -6 -5 -12 -2 -15 2 -3 7 2 10 11 7 17 1 20 -8 4z"/>
<path d="M1330 635 c0 -5 5 -17 10 -25 5 -8 10 -10 10 -5 0 6 -5 17 -10 25 -5
8 -10 11 -10 5z"/>
<path d="M1401 624 c0 -11 3 -14 6 -6 3 7 2 16 -1 19 -3 4 -6 -2 -5 -13z"/>
<path d="M1268 602 c-4 -12 -3 -20 2 -17 4 3 11 -11 14 -30 4 -19 11 -35 15
-35 5 0 3 17 -4 38 -7 20 -14 44 -17 52 -3 10 -6 8 -10 -8z"/>
<path d="M1232 590 c0 -14 2 -19 5 -12 2 6 2 18 0 25 -3 6 -5 1 -5 -13z"/>
<path d="M1432 590 c0 -14 2 -19 5 -12 2 6 2 18 0 25 -3 6 -5 1 -5 -13z"/>
<path d="M2510 593 c-19 -9 -37 -16 -40 -15 -3 0 -6 -12 -6 -26 -3 -60 -25
-110 -65 -148 -22 -22 -56 -61 -76 -89 -59 -82 -176 -188 -246 -223 -55 -28
-87 -60 -87 -87 0 -15 30 -2 35 15 4 14 36 35 90 60 81 39 114 67 180 155 16
22 60 69 97 105 62 61 67 69 77 125 l10 60 -3 -66 c-2 -36 -9 -76 -17 -90 -7
-13 -12 -28 -11 -32 1 -5 -2 -6 -7 -2 -17 10 -68 -23 -104 -67 -43 -54 -92
-131 -89 -141 1 -4 -1 -6 -5 -5 -5 1 -26 -7 -48 -19 -22 -11 -61 -28 -87 -38
-48 -18 -87 -50 -75 -62 4 -3 15 1 24 10 10 8 42 25 71 36 103 41 129 59 162
113 53 87 98 136 135 148 45 15 66 55 73 140 5 75 15 98 45 110 17 7 18 9 5 9
-22 1 -24 21 -3 21 8 0 15 5 15 10 0 13 -9 12 -50 -7z m-7 -37 c-10 -13 -20
-22 -22 -20 -4 4 29 44 36 44 2 0 -4 -11 -14 -24z"/>
<path d="M1467 581 c-4 -17 -3 -21 5 -13 5 5 8 16 6 23 -3 8 -7 3 -11 -10z"/>
<path d="M806 563 c-6 -14 -5 -15 5 -6 7 7 10 15 7 18 -3 3 -9 -2 -12 -12z"/>
<path d="M973 565 c0 -8 4 -12 9 -9 5 3 6 10 3 15 -9 13 -12 11 -12 -6z"/>
<path d="M864 523 c-53 -67 -57 -73 -52 -73 3 0 26 27 52 60 26 33 45 60 43
60 -3 0 -22 -21 -43 -47z"/>
<path d="M1316 550 c3 -14 11 -32 16 -40 6 -10 7 -7 2 10 -3 14 -11 32 -16 40
-6 10 -7 7 -2 -10z"/>
<path d="M1401 554 c0 -11 3 -14 6 -6 3 7 2 16 -1 19 -3 4 -6 -2 -5 -13z"/>
<path d="M2260 555 c-9 -10 -9 -15 -1 -15 6 0 11 -5 11 -11 0 -5 -6 -7 -12 -3
-7 4 -10 4 -6 -1 4 -4 3 -16 -2 -26 -7 -12 -6 -20 2 -25 6 -4 8 -3 5 3 -4 6 0
16 8 23 8 6 13 25 12 41 -2 34 -1 33 -17 14z"/>
<path d="M1421 544 c0 -11 3 -14 6 -6 3 7 2 16 -1 19 -3 4 -6 -2 -5 -13z"/>
<path d="M1442 540 c0 -14 2 -19 5 -12 2 6 2 18 0 25 -3 6 -5 1 -5 -13z"/>
<path d="M1641 544 c0 -11 3 -14 6 -6 3 7 2 16 -1 19 -3 4 -6 -2 -5 -13z"/>
<path d="M1009 523 c-2 -74 -5 -88 -15 -86 -8 2 -10 -6 -6 -20 5 -18 7 -19 10
-4 2 9 7 15 11 13 4 -3 8 24 9 60 1 35 -1 64 -3 64 -3 0 -5 -12 -6 -27z"/>
<path d="M1482 525 c0 -16 2 -22 5 -12 2 9 2 23 0 30 -3 6 -5 -1 -5 -18z"/>
<path d="M2063 535 c0 -8 4 -12 9 -9 5 3 6 10 3 15 -9 13 -12 11 -12 -6z"/>
<path d="M782 525 c2 -13 -2 -19 -12 -17 -8 2 -12 0 -8 -3 4 -4 1 -20 -8 -36
-8 -16 -12 -29 -9 -29 3 0 1 -9 -5 -19 -5 -11 -6 -22 -2 -25 5 -3 9 0 10 7 2
31 13 64 31 88 13 18 16 30 10 40 -8 11 -9 10 -7 -6z"/>
<path d="M1391 514 c0 -11 3 -14 6 -6 3 7 2 16 -1 19 -3 4 -6 -2 -5 -13z"/>
<path d="M953 505 c0 -8 4 -12 9 -9 5 3 6 10 3 15 -9 13 -12 11 -12 -6z"/>
<path d="M1077 503 c7 -20 33 -60 33 -52 0 9 -31 69 -35 69 -3 0 -2 -8 2 -17z"/>
<path d="M1411 504 c0 -11 3 -14 6 -6 3 7 2 16 -1 19 -3 4 -6 -2 -5 -13z"/>
<path d="M1630 509 c0 -5 5 -7 10 -4 6 3 10 8 10 11 0 2 -4 4 -10 4 -5 0 -10
-5 -10 -11z"/>
<path d="M1291 497 c23 -17 61 -96 53 -110 -5 -9 -4 -9 5 -1 16 15 -31 117
-56 120 -16 2 -16 2 -2 -9z"/>
<path d="M1431 496 c-2 -41 -25 -96 -52 -125 -21 -24 -24 -31 -12 -31 14 0 14
-2 -2 -14 -17 -12 -22 -12 -39 0 -11 8 -36 13 -56 13 -34 -1 -33 -2 9 -9 47
-7 71 -30 71 -66 0 -37 -24 -49 -78 -36 -60 13 -66 8 -10 -10 45 -14 88 -13
88 3 0 5 7 9 15 9 12 0 13 -3 3 -19 -7 -11 -17 -17 -23 -13 -5 3 -4 -1 2 -10
7 -8 10 -17 7 -21 -3 -3 1 -5 9 -3 21 3 48 27 41 37 -3 5 0 9 5 9 6 0 11 -4
11 -10 0 -5 6 -10 13 -10 6 1 2 9 -10 19 -13 11 -23 24 -23 29 0 6 -8 8 -18 5
-13 -3 -18 2 -20 22 -1 20 2 26 15 23 26 -5 84 58 83 89 -1 4 -8 -4 -16 -19
-15 -29 -94 -77 -94 -57 0 6 9 13 20 16 14 4 19 11 15 23 -3 9 4 27 15 40 23
26 43 93 37 118 -4 14 -5 14 -6 -2z m-35 -288 c-3 -22 -17 -39 -27 -32 -6 4
-3 14 7 25 20 22 23 23 20 7z"/>
<path d="M1452 475 c0 -16 2 -22 5 -12 2 9 2 23 0 30 -3 6 -5 -1 -5 -18z"/>
<path d="M1568 478 c15 -16 19 -28 12 -31 -6 -3 -5 -4 2 -3 15 3 18 41 3 41
-5 0 -17 4 -25 9 -8 5 -5 -2 8 -16z"/>
<path d="M1340 485 c0 -5 5 -17 10 -25 5 -8 10 -10 10 -5 0 6 -5 17 -10 25 -5
8 -10 11 -10 5z"/>
<path d="M1371 459 c-6 -18 -9 -34 -7 -36 2 -2 9 10 15 28 6 18 9 34 7 36 -2
2 -9 -10 -15 -28z"/>
<path d="M1401 470 c-1 -8 -8 -28 -16 -44 -9 -16 -13 -31 -10 -34 7 -8 37 68
31 81 -2 7 -5 6 -5 -3z"/>
<path d="M1492 455 c0 -16 2 -22 5 -12 2 9 2 23 0 30 -3 6 -5 -1 -5 -18z"/>
<path d="M1684 463 c4 -8 2 -13 -4 -13 -6 0 -8 -4 -5 -10 6 -10 -9 -15 -30
-10 -5 1 -4 -4 3 -11 14 -15 16 -33 2 -24 -6 4 -7 -1 -3 -11 4 -12 3 -15 -5
-10 -7 4 -15 0 -18 -9 -5 -13 -9 -13 -23 -3 -14 12 -14 11 -2 -4 7 -10 17 -16
21 -13 14 9 27 -19 24 -53 -2 -37 -2 -37 16 -3 8 15 8 21 1 17 -7 -5 -10 1 -7
16 2 13 9 22 15 21 6 -2 8 4 4 14 -4 10 -2 14 4 10 6 -4 11 -1 10 6 -1 35 4
48 16 40 20 -12 35 -12 47 2 8 9 5 12 -11 11 -12 0 -24 5 -27 13 -3 8 0 11 6
7 6 -3 13 -2 16 3 4 5 -2 8 -11 6 -10 -1 -24 3 -32 9 -11 8 -13 8 -7 -1z m26
-38 c14 -18 14 -19 -2 -7 -15 12 -19 8 -37 -33 -18 -42 -41 -54 -41 -22 0 9 3
8 8 -1 6 -9 12 -5 21 14 6 15 10 29 7 31 -2 3 3 13 12 22 10 10 17 17 17 17 1
-1 7 -10 15 -21z"/>
<path d="M1756 462 c-3 -5 1 -15 8 -21 11 -10 14 -9 12 3 -3 21 -13 29 -20 18z"/>
<path d="M2220 455 c-15 -18 -35 -20 -24 -3 4 7 3 8 -5 4 -8 -6 -9 -12 -2 -20
6 -7 7 -17 3 -22 -4 -4 1 -2 11 6 17 13 42 50 34 50 -3 0 -10 -7 -17 -15z"/>
<path d="M916 449 c2 -4 -2 -10 -8 -12 -8 -4 -9 -6 -2 -6 6 -1 17 5 23 12 8
10 7 14 -4 14 -8 0 -12 -4 -9 -8z"/>
<path d="M230 445 c0 -5 9 -21 20 -35 11 -14 20 -20 20 -15 0 6 -9 21 -20 35
-11 14 -20 21 -20 15z"/>
<path d="M1120 445 c0 -5 5 -17 10 -25 5 -8 10 -10 10 -5 0 6 -5 17 -10 25 -5
8 -10 11 -10 5z"/>
<path d="M1163 438 c-9 -16 -16 -54 -7 -46 3 3 6 12 8 20 1 7 5 19 9 26 5 6 6
12 3 12 -3 0 -8 -6 -13 -12z"/>
<path d="M1276 425 c9 -14 21 -25 26 -25 5 0 2 7 -6 16 -9 8 -16 20 -16 25 0
5 -5 9 -10 9 -6 0 -3 -11 6 -25z"/>
<path d="M1437 414 c-3 -18 -13 -39 -22 -47 -17 -17 -19 -27 -7 -27 13 0 45
76 40 91 -3 8 -7 0 -11 -17z"/>
<path d="M1462 410 c0 -14 2 -19 5 -12 2 6 2 18 0 25 -3 6 -5 1 -5 -13z"/>
<path d="M888 413 c7 -3 16 -2 19 1 4 3 -2 6 -13 5 -11 0 -14 -3 -6 -6z"/>
<path d="M1106 403 c-6 -14 -5 -15 5 -6 7 7 10 15 7 18 -3 3 -9 -2 -12 -12z"/>
<path d="M1501 404 c0 -11 3 -14 6 -6 3 7 2 16 -1 19 -3 4 -6 -2 -5 -13z"/>
<path d="M1175 401 c-3 -5 -2 -12 3 -15 5 -3 9 1 9 9 0 17 -3 19 -12 6z"/>
<path d="M866 388 c3 -4 1 -8 -4 -8 -6 0 -13 -8 -16 -17 -5 -13 0 -11 18 6 30
29 30 28 11 28 -8 0 -12 -4 -9 -9z"/>
<path d="M955 389 c-11 -16 -1 -19 13 -3 7 8 8 14 3 14 -5 0 -13 -5 -16 -11z"/>
<path d="M1310 386 c0 -2 8 -10 18 -17 15 -13 16 -12 3 4 -13 16 -21 21 -21
13z"/>
<path d="M2321 357 c-13 -21 -12 -21 5 -5 10 10 16 20 13 22 -3 3 -11 -5 -18
-17z"/>
<path d="M2040 355 c0 -2 6 -8 13 -14 10 -8 14 -7 14 2 0 8 -6 14 -14 14 -7 0
-13 -1 -13 -2z"/>
<path d="M1525 335 c31 -81 36 -104 31 -141 -3 -25 -1 -45 7 -53 9 -10 8 -11
-5 -6 -13 5 -18 -1 -24 -32 -11 -54 -11 -56 0 -72 8 -11 8 -13 -1 -7 -8 4 -13
2 -13 -8 0 -10 8 -14 28 -12 22 3 27 8 27 32 0 16 3 34 7 39 4 6 -3 12 -15 12
-17 2 -19 0 -7 -7 13 -9 13 -10 0 -10 -13 0 -13 -1 0 -10 13 -9 13 -10 0 -10
-12 0 -12 -2 -1 -9 8 -5 9 -11 3 -15 -13 -8 -18 10 -18 53 1 22 7 36 16 38 13
4 13 3 0 -6 -12 -8 -11 -10 7 -8 17 1 19 4 11 14 -6 7 -8 13 -4 13 3 0 1 12
-4 26 -6 15 -6 23 -1 19 5 -3 13 0 17 6 4 8 3 9 -4 5 -7 -4 -12 -2 -12 3 0 6
6 11 13 11 8 0 8 3 2 8 -6 4 -10 16 -10 27 0 11 -4 25 -8 32 -5 7 -5 18 -1 24
4 8 3 9 -4 5 -7 -4 -12 -1 -12 6 0 7 -8 22 -17 33 l-16 20 8 -20z"/>
<path d="M1831 344 c3 -20 -2 -26 -14 -15 -13 10 -15 0 -8 -54 1 -5 10 0 21
13 10 13 22 24 27 25 4 1 8 8 10 15 1 8 -1 11 -4 8 -4 -3 -12 -1 -20 6 -8 6
-13 7 -12 2z m25 -26 c4 -7 3 -10 -1 -5 -5 4 -16 0 -25 -8 -14 -13 -17 -13
-17 0 0 8 4 12 8 9 4 -2 10 0 14 6 8 13 12 13 21 -2z"/>
<path d="M2084 335 c-9 -22 1 -29 15 -11 8 10 9 16 1 21 -5 3 -13 -1 -16 -10z"/>
<path d="M1140 329 c0 -5 10 -9 22 -9 12 0 18 3 14 7 -10 11 -36 12 -36 2z"/>
<path d="M1447 305 c-9 -20 -17 -43 -18 -53 -1 -11 -4 -8 -9 8 -6 18 -8 20 -9
6 -1 -10 11 -32 26 -50 17 -19 24 -24 19 -11 -17 42 -17 53 -2 90 21 49 15 56
-7 10z"/>
<path d="M831 314 c0 -11 3 -14 6 -6 3 7 2 16 -1 19 -3 4 -6 -2 -5 -13z"/>
<path d="M1034 317 c-8 -4 -14 -5 -14 -1 0 3 -6 2 -12 -3 -7 -6 -20 -9 -28 -8
-10 2 -17 -5 -17 -17 -2 -17 0 -18 14 -6 12 9 15 10 9 1 -4 -7 -4 -13 1 -14 4
0 16 -2 26 -4 9 -2 15 1 11 6 -3 5 -10 6 -16 3 -6 -4 -8 1 -6 11 3 18 18 24
70 28 15 1 29 5 32 8 8 8 -54 5 -70 -4z"/>
<path d="M889 303 c-13 -16 -12 -17 4 -4 16 13 21 21 13 21 -2 0 -10 -8 -17
-17z"/>
<path d="M1465 270 c-4 -23 -5 -43 -2 -46 2 -3 7 14 11 37 4 23 5 44 2 46 -2
2 -7 -14 -11 -37z"/>
<path d="M1510 301 c0 -6 4 -13 10 -16 6 -3 7 1 4 9 -7 18 -14 21 -14 7z"/>
<path d="M935 291 c-3 -5 -2 -12 3 -15 5 -3 9 1 9 9 0 17 -3 19 -12 6z"/>
<path d="M1490 281 c0 -11 4 -22 9 -25 4 -3 6 6 3 19 -5 30 -12 33 -12 6z"/>
<path d="M2240 255 c-24 -25 -42 -45 -39 -45 3 0 25 20 49 45 24 25 42 45 39
45 -3 0 -25 -20 -49 -45z"/>
<path d="M856 266 c3 -8 13 -17 22 -21 13 -5 13 -2 -3 15 -21 24 -26 25 -19 6z"/>
<path d="M1789 268 c0 -7 -2 -21 -4 -30 -2 -10 0 -20 3 -22 4 -2 8 11 9 30 1
19 0 34 -3 34 -2 0 -4 -6 -5 -12z"/>
<path d="M1522 226 c0 -25 3 -46 7 -46 9 0 7 77 -2 86 -3 3 -5 -15 -5 -40z"/>
<path d="M1085 252 c3 -3 21 -5 40 -5 19 0 37 2 40 5 3 3 -15 5 -40 5 -25 0
-43 -2 -40 -5z"/>
<path d="M938 243 c7 -3 16 -2 19 1 4 3 -2 6 -13 5 -11 0 -14 -3 -6 -6z"/>
<path d="M1641 234 c0 -11 3 -14 6 -6 3 7 2 16 -1 19 -3 4 -6 -2 -5 -13z"/>
<path d="M963 225 c-17 -7 -35 -10 -39 -7 -4 4 -4 1 0 -5 4 -8 1 -13 -8 -13
-9 0 -16 -4 -16 -8 0 -7 -16 -11 -57 -14 -7 -1 -13 -5 -13 -10 0 -5 9 -6 20
-3 14 5 20 2 20 -9 0 -9 -7 -17 -15 -17 -8 -1 -19 -3 -25 -4 -5 -1 -17 -3 -26
-4 -8 0 -13 -5 -9 -10 3 -5 1 -12 -4 -15 -5 -4 -12 -2 -16 4 -3 5 -14 10 -23
9 -11 0 -12 -2 -4 -6 6 -2 9 -10 5 -16 -4 -6 0 -8 10 -4 11 4 21 -1 29 -16 6
-12 10 -23 9 -25 -2 -2 1 -7 5 -10 4 -4 4 -2 0 5 -3 6 -2 14 4 18 5 3 10 1 10
-4 0 -6 3 -10 8 -10 4 1 14 1 22 0 13 -1 13 -2 0 -11 -9 -6 -10 -10 -3 -10 17
0 23 14 12 30 -5 8 -9 11 -9 6 0 -5 -7 -3 -15 4 -8 6 -18 9 -24 6 -5 -3 -12 1
-15 9 -4 10 2 19 17 24 26 10 40 4 31 -12 -4 -7 -4 -9 1 -5 4 4 14 3 21 -2 17
-15 56 -22 48 -9 -3 6 -8 8 -11 5 -3 -3 -19 4 -36 16 l-30 21 24 10 c13 6 30
11 37 13 22 4 29 16 8 12 -10 -1 -21 3 -23 10 -3 7 -1 12 4 11 15 -2 53 13 53
22 0 5 7 6 15 2 9 -3 21 1 28 10 7 9 23 18 37 20 l25 4 -25 1 c-14 1 -39 -5
-57 -13z"/>
<path d="M1190 230 c-9 -6 -10 -10 -3 -10 6 0 15 5 18 10 8 12 4 12 -15 0z"/>
<path d="M1108 224 c-4 -3 -19 -6 -35 -8 -34 -2 -53 -13 -53 -29 0 -8 3 -8 9
1 7 11 9 11 14 -2 3 -8 2 -17 -4 -20 -5 -2 -4 -3 3 -2 7 2 12 8 11 14 -1 5 11
15 28 22 16 7 32 17 35 21 6 10 0 12 -8 3z"/>
<path d="M1130 219 c0 -5 5 -7 10 -4 6 3 10 8 10 11 0 2 -4 4 -10 4 -5 0 -10
-5 -10 -11z"/>
<path d="M1475 209 c-4 -6 -5 -12 -2 -15 2 -3 7 2 10 11 7 17 1 20 -8 4z"/>
<path d="M1807 202 c-16 -8 -27 -15 -25 -18 6 -6 48 8 48 16 0 4 11 5 25 2 14
-2 25 0 25 5 0 13 -41 11 -73 -5z"/>
<path d="M1898 213 c6 -2 18 -2 25 0 6 3 1 5 -13 5 -14 0 -19 -2 -12 -5z"/>
<path d="M760 199 c0 -6 -7 -8 -16 -5 -14 5 -15 4 -5 -8 6 -8 23 -17 37 -20
16 -4 22 -11 18 -19 -5 -9 -4 -9 6 0 25 23 20 40 -11 35 -24 -3 -28 -1 -23 12
3 9 3 16 0 16 -3 0 -6 -5 -6 -11z"/>
<path d="M1613 190 c-2 -23 13 -35 23 -19 5 8 3 9 -6 4 -10 -6 -12 -4 -7 8 3
9 3 18 -1 21 -4 3 -8 -4 -9 -14z"/>
<path d="M1640 200 c0 -5 5 -10 11 -10 5 0 7 5 4 10 -3 6 -8 10 -11 10 -2 0
-4 -4 -4 -10z"/>
<path d="M990 190 c-13 -8 -12 -10 3 -10 9 0 17 5 17 10 0 12 -1 12 -20 0z"/>
<path d="M1223 187 c-4 -7 -21 -13 -37 -12 -18 0 -31 -6 -33 -15 -4 -13 -3
-13 6 0 10 13 11 13 11 0 0 -13 1 -13 10 0 9 13 10 13 10 0 0 -12 2 -12 9 -1
6 9 11 10 15 3 4 -6 14 -8 23 -5 12 5 14 3 8 -7 -5 -9 -4 -11 3 -6 17 10 15
26 -3 26 -8 0 -15 4 -15 9 0 6 9 8 20 6 11 -2 18 0 15 6 -9 13 -33 11 -42 -4z"/>
<path d="M2170 189 c0 -5 5 -7 10 -4 6 3 10 8 10 11 0 2 -4 4 -10 4 -5 0 -10
-5 -10 -11z"/>
<path d="M945 168 c-17 -17 -17 -18 -2 -12 12 4 23 0 32 -12 7 -11 17 -16 21
-11 4 4 2 7 -5 7 -7 0 -9 5 -6 10 3 6 2 10 -4 10 -5 0 -11 6 -13 13 -2 11 -8
9 -23 -5z"/>
<path d="M1286 178 c3 -4 0 -8 -5 -8 -6 0 -10 -11 -9 -25 1 -14 6 -25 11 -25
4 0 5 -4 2 -10 -9 -15 -25 -12 -25 5 0 10 -10 15 -34 15 -18 0 -62 3 -97 6
-35 4 -61 4 -58 0 7 -7 64 -14 133 -15 38 -1 47 -4 42 -16 -4 -11 1 -15 18
-15 13 0 27 8 31 18 6 16 8 16 22 -3 11 -14 14 -15 10 -4 -4 12 2 18 21 22 15
3 31 0 35 -6 6 -8 7 -6 4 5 -6 18 25 52 38 41 4 -5 5 -2 1 5 -6 11 -13 9 -31
-8 -14 -13 -29 -19 -36 -15 -7 5 -10 4 -6 -2 4 -7 -7 -12 -28 -15 -31 -3 -45
5 -45 28 0 7 25 -1 32 -11 4 -6 8 -2 8 8 0 9 -5 17 -11 17 -5 0 -8 4 -5 8 3 5
-1 9 -9 9 -8 0 -12 -4 -9 -9z"/>
<path d="M692 163 c6 -8 17 -12 24 -9 7 3 12 0 10 -7 -1 -7 -1 -9 1 -4 3 4 11
7 19 7 9 0 12 -4 9 -10 -3 -6 1 -7 9 -4 28 11 17 21 -34 31 -43 9 -48 8 -38
-4z"/>
<path d="M1066 165 c-4 -12 -2 -13 14 -2 15 9 24 9 38 0 15 -9 19 -8 19 3 0
19 -63 19 -71 -1z"/>
<path d="M638 138 c-10 -10 -18 -22 -18 -28 0 -15 20 -12 20 3 0 6 7 3 16 -8
15 -19 15 -19 10 8 -2 15 -1 27 4 27 13 0 31 -36 22 -45 -4 -5 -2 -5 5 -2 6 4
10 15 8 25 -2 9 -4 20 -4 23 -2 16 -47 13 -63 -3z"/>
<path d="M1630 150 c-9 -6 -10 -10 -3 -10 6 0 15 5 18 10 8 12 4 12 -15 0z"/>
<path d="M1018 143 c7 -3 16 -2 19 1 4 3 -2 6 -13 5 -11 0 -14 -3 -6 -6z"/>
<path d="M910 130 c-9 -6 -10 -10 -3 -10 6 0 15 5 18 10 8 12 4 12 -15 0z"/>
<path d="M943 125 c0 -8 4 -15 9 -15 4 0 8 4 8 9 0 6 -4 12 -8 15 -5 3 -9 -1
-9 -9z"/>
<path d="M1404 116 c1 -13 -4 -20 -12 -18 -8 1 -11 -2 -7 -8 5 -8 11 -7 21 1
8 6 12 14 9 17 -3 3 0 10 5 17 7 8 5 12 -4 12 -7 0 -13 -10 -12 -21z"/>
<path d="M1441 112 c-6 -11 -7 -22 -4 -26 3 -3 2 -6 -4 -6 -17 0 -36 -52 -22
-60 8 -6 8 -9 0 -13 -7 -4 -8 -5 0 -4 6 2 11 7 11 12 0 6 5 16 11 24 9 12 9
13 0 7 -18 -10 -16 9 2 24 9 7 13 15 10 18 -3 3 0 11 7 19 6 7 8 16 5 19 -3 3
-10 -3 -16 -14z"/>
<path d="M1484 114 c3 -8 1 -14 -4 -14 -9 0 -24 -35 -25 -60 0 -8 -3 -20 -7
-26 -4 -6 -1 -11 7 -11 14 0 19 19 16 62 -2 17 0 17 8 5 7 -10 11 -11 11 -2 0
23 1 27 15 42 12 14 12 16 -6 17 -14 1 -19 -3 -15 -13z"/>
<path d="M1635 109 c2 -28 11 -31 26 -12 12 14 12 16 0 8 -11 -6 -13 -4 -9 7
4 8 1 15 -6 15 -7 0 -12 -8 -11 -18z"/>
<path d="M2080 120 c-8 -5 -10 -10 -5 -10 6 0 17 5 25 10 8 5 11 10 5 10 -5 0
-17 -5 -25 -10z"/>
<path d="M720 100 c0 -5 5 -10 11 -10 5 0 7 5 4 10 -3 6 -8 10 -11 10 -2 0 -4
-4 -4 -10z"/>
<path d="M956 82 c-3 -5 1 -9 9 -9 8 0 12 4 9 9 -3 4 -7 8 -9 8 -2 0 -6 -4 -9
-8z"/>
<path d="M1105 80 c11 -5 27 -9 35 -9 9 0 8 4 -5 9 -11 5 -27 9 -35 9 -9 0 -8
-4 5 -9z"/>
<path d="M1991 64 c-12 -15 -21 -34 -20 -43 0 -10 4 -6 10 9 6 13 17 33 26 42
9 10 13 18 10 18 -3 0 -15 -12 -26 -26z"/>
<path d="M990 66 c0 -11 5 -14 12 -10 7 5 9 2 6 -8 -8 -19 6 -41 26 -44 14 -2
14 1 1 25 -7 15 -21 33 -29 40 -13 11 -16 11 -16 -3z m38 -51 c-3 -3 -9 2 -12
12 -6 14 -5 15 5 6 7 -7 10 -15 7 -18z"/>
<path d="M1055 68 c1 -7 8 -12 15 -10 7 2 10 -3 7 -12 -4 -10 0 -14 14 -11 12
2 19 -2 19 -11 0 -9 -5 -12 -12 -8 -7 4 -10 3 -6 -1 13 -14 60 -15 55 -2 -5
16 -68 58 -77 52 -5 -3 -11 0 -13 5 -3 6 -4 5 -2 -2z"/>
<path d="M1318 73 c-10 -2 -18 -8 -18 -11 0 -4 -18 -6 -40 -6 -45 2 -46 2 -23
-17 13 -11 15 -11 9 -1 -6 10 -1 13 20 11 28 -2 84 15 84 26 0 5 -6 5 -32 -2z"/>
<path d="M920 60 c-12 -7 -10 -9 7 -7 12 0 19 5 17 9 -6 10 -6 10 -24 -2z"/>
<path d="M1154 58 c-2 -4 7 -5 22 -2 18 3 23 1 18 -7 -4 -8 -3 -9 4 -5 21 13
13 26 -14 24 -14 -2 -28 -6 -30 -10z"/>
<path d="M1366 49 c-14 -11 -26 -27 -26 -35 0 -21 18 -17 30 6 6 11 7 20 3 20
-4 0 2 7 13 15 10 8 16 15 13 15 -4 0 -18 -9 -33 -21z m-3 -24 c-3 -9 -8 -14
-10 -11 -3 3 -2 9 2 15 9 16 15 13 8 -4z"/>
<path d="M945 41 c-11 -5 -24 -6 -29 -3 -5 3 -6 0 -2 -7 4 -6 12 -9 17 -6 5 4
9 0 9 -7 0 -8 9 -14 20 -15 11 -1 20 4 20 12 0 10 -6 12 -17 8 -16 -6 -16 -5
-4 10 15 19 15 19 -14 8z"/>
<path d="M865 21 c-6 -11 9 -23 19 -14 9 9 7 23 -3 23 -6 0 -12 -4 -16 -9z"/>
<path d="M820 16 c0 -2 7 -6 15 -10 8 -3 15 -1 15 4 0 6 -7 10 -15 10 -8 0
-15 -2 -15 -4z"/>
</g>
</svg>
