<?xml version="1.0" standalone="no"?>
<!DOCTYPE svg PUBLIC "-//W3C//DTD SVG 20010904//EN"
 "http://www.w3.org/TR/2001/REC-SVG-20010904/DTD/svg10.dtd">
<svg version="1.0" xmlns="http://www.w3.org/2000/svg"
 width="100.000000pt" height="100.000000pt" viewBox="0 0 100.000000 100.000000"
 preserveAspectRatio="xMidYMid meet">
<metadata>
Created by potrace 1.16, written by Peter Selinger 2001-2019
</metadata>
<g transform="translate(0.000000,100.000000) scale(0.100000,-0.100000)"
fill="#000000" stroke="none">
<path d="M115 990 c3 -5 -1 -10 -10 -10 -11 0 -15 -5 -11 -15 3 -8 0 -15 -7
-15 -7 0 -13 -10 -14 -22 -1 -11 -8 -25 -15 -29 -7 -5 -8 -9 -3 -9 6 0 4 -4
-4 -9 -7 -5 -15 -19 -17 -32 -2 -13 -10 -58 -17 -99 -9 -49 -11 -77 -4 -81 5
-4 6 -12 3 -18 -4 -6 0 -11 9 -11 9 0 13 -4 10 -10 -3 -5 3 -10 14 -10 12 0
21 -4 21 -10 0 -5 7 -10 16 -10 14 0 14 -3 4 -15 -10 -13 -9 -15 9 -15 12 0
19 -4 16 -10 -3 -5 -1 -10 4 -10 11 0 13 5 15 33 1 15 21 37 33 37 10 0 62
251 60 288 -1 16 -7 22 -25 22 -13 0 -20 4 -17 10 3 6 -5 10 -19 10 -31 0 -29
-33 2 -38 30 -5 34 -30 17 -111 -8 -40 -15 -92 -15 -116 0 -24 -4 -46 -9 -49
-10 -6 -31 191 -31 292 0 44 -4 72 -11 72 -5 0 -7 -4 -4 -10z m5 -70 c0 -6
-11 -22 -25 -36 -33 -33 -32 -72 5 -159 45 -104 39 -143 -14 -90 -14 14 -29
25 -34 25 -31 0 -15 136 24 218 23 48 44 67 44 42z m-7 -115 l6 -50 -15 33
c-8 19 -12 43 -8 54 8 26 10 22 17 -37z"/>
<path d="M71 714 c0 -11 3 -14 6 -6 3 7 2 16 -1 19 -3 4 -6 -2 -5 -13z"/>
<path d="M254 808 c-4 -13 -8 -27 -9 -33 -2 -22 -18 -73 -37 -122 -15 -40 -18
-63 -13 -107 9 -69 27 -63 24 7 -2 31 4 67 14 91 9 21 17 49 17 62 0 50 19 21
29 -43 17 -111 19 -263 2 -263 -8 0 -11 6 -7 15 3 9 0 15 -10 15 -18 0 -44 23
-44 39 0 6 -7 11 -15 11 -20 0 -19 -36 4 -85 10 -22 21 -58 25 -80 9 -50 27
-98 40 -107 6 -4 4 -9 -6 -13 -9 -4 -14 -14 -11 -23 2 -9 -5 -27 -16 -39 -12
-12 -21 -27 -21 -32 0 -6 -12 -22 -27 -35 l-27 -26 -28 27 c-28 27 -37 53 -17
53 5 0 7 -4 4 -10 -4 -6 10 -10 35 -10 36 0 41 2 35 18 -4 9 -9 77 -12 149 -4
97 -9 133 -18 133 -18 0 -23 -17 -30 -101 -4 -41 -15 -105 -25 -144 -22 -87
-22 -105 1 -105 12 0 16 -5 13 -15 -5 -12 4 -15 46 -15 46 0 51 2 40 15 -9 11
-10 15 -1 15 17 0 44 28 37 38 -3 5 4 15 15 22 10 8 19 23 19 33 0 10 7 32 16
49 9 17 19 66 21 110 5 70 4 78 -12 78 -15 0 -16 2 -4 17 21 25 15 226 -9 335
-11 48 -17 89 -14 92 3 3 0 6 -6 6 -6 0 -14 -10 -18 -22z m-4 -413 c0 -8 4
-15 9 -15 15 0 21 -28 12 -52 -10 -25 -10 -24 -29 45 -6 21 -6 37 -1 37 5 0 9
-7 9 -15z m48 -106 c-6 -35 -13 -58 -16 -50 -5 15 17 125 24 119 2 -3 -1 -33
-8 -69z m-133 -168 c-2 -2 -11 3 -19 12 -12 11 -13 22 -6 48 6 19 11 54 11 79
1 26 5 8 10 -45 4 -49 6 -91 4 -94z"/>
<path d="M416 814 c-3 -9 -6 -153 -6 -320 0 -269 2 -304 16 -304 8 0 13 4 10
9 -4 5 -1 11 5 13 7 2 11 41 11 111 l0 107 49 0 c31 0 48 4 44 10 -3 6 -2 10
3 10 6 0 16 23 22 52 15 60 7 281 -10 286 -5 2 -8 8 -4 13 3 5 -5 9 -18 9 -18
0 -20 2 -8 10 11 7 -3 10 -46 10 -47 0 -63 -4 -68 -16z m74 -14 c0 -5 9 -10
19 -10 10 0 21 -7 25 -15 4 -12 -5 -15 -48 -15 -51 0 -53 1 -48 25 3 18 11 25
28 25 13 0 24 -4 24 -10z m30 -70 c0 -5 -12 -11 -27 -11 l-28 -2 26 -4 c45 -7
64 -86 37 -160 -10 -28 -17 -33 -45 -33 l-34 0 2 110 1 110 34 0 c19 0 34 -4
34 -10z m10 -250 c-18 -25 -28 -30 -61 -30 -35 0 -39 3 -39 25 0 22 4 24 58
28 31 2 58 4 60 5 2 1 -6 -11 -18 -28z"/>
<path d="M616 799 c-3 -17 -6 -161 -6 -320 0 -241 2 -289 14 -289 24 0 36 58
37 179 l1 116 13 -55 c7 -30 21 -77 30 -105 10 -27 25 -69 33 -92 13 -37 19
-43 43 -43 16 0 29 2 29 5 0 2 -9 27 -20 55 -11 28 -20 61 -20 74 0 13 -12 50
-26 82 -36 79 -36 149 -2 234 37 94 48 132 42 141 -3 5 0 9 6 9 6 0 8 5 5 10
-3 6 -1 10 4 10 6 0 11 5 11 10 0 6 -15 10 -34 10 -37 0 -45 -11 -52 -70 -2
-19 -14 -57 -26 -85 -12 -27 -25 -68 -29 -90 -4 -25 -7 13 -8 103 -1 132 -2
142 -20 142 -13 0 -20 -10 -25 -31z m74 -284 c0 -9 -9 -15 -25 -15 -16 0 -25
6 -25 15 0 9 9 15 25 15 16 0 25 -6 25 -15z m7 -57 c-3 -8 -6 -5 -6 6 -1 11 2
17 5 13 3 -3 4 -12 1 -19z"/>
<path d="M836 814 c-3 -9 -6 -153 -6 -320 0 -285 1 -304 18 -304 22 0 27 29
27 178 l0 112 44 0 c49 0 46 -16 -4 -23 -24 -3 -21 -4 13 -6 l42 -1 0 60 0 60
-47 0 -48 0 0 70 0 70 60 0 60 0 0 60 0 60 -76 0 c-61 0 -78 -3 -83 -16z m134
-29 c0 -24 -3 -25 -55 -25 -55 0 -61 4 -49 34 4 12 20 16 55 16 46 0 49 -2 49
-25z m9 -49 c-7 -8 -98 -10 -105 -3 -4 4 19 7 51 7 32 0 56 -2 54 -4z m-29
-211 c0 -23 -3 -25 -50 -25 -47 0 -50 2 -50 25 0 23 3 25 50 25 47 0 50 -2 50
-25z"/>
<path d="M20 423 c0 -93 4 -115 38 -213 9 -25 15 -51 14 -57 -2 -7 4 -13 11
-13 19 0 27 32 25 95 0 29 -3 38 -5 23 -2 -16 -8 -28 -12 -28 -15 0 -43 99
-48 173 l-6 77 37 0 c35 0 36 -1 38 -37 1 -21 0 -57 -1 -80 -2 -24 0 -43 3
-43 3 0 10 19 17 43 6 23 16 45 22 49 7 4 4 12 -6 23 -10 9 -17 32 -17 51 l0
34 -55 0 -55 0 0 -97z m73 80 c-13 -2 -33 -2 -45 0 -13 2 -3 4 22 4 25 0 35
-2 23 -4z"/>
<path d="M175 420 c3 -5 8 -10 11 -10 2 0 4 5 4 10 0 6 -5 10 -11 10 -5 0 -7
-4 -4 -10z"/>
<path d="M485 410 c-18 -8 -17 -9 8 -9 15 -1 27 4 27 9 0 12 -8 12 -35 0z"/>
<path d="M158 73 c7 -3 16 -2 19 1 4 3 -2 6 -13 5 -11 0 -14 -3 -6 -6z"/>
</g>
</svg>
