<?xml version="1.0" standalone="no"?>
<!DOCTYPE svg PUBLIC "-//W3C//DTD SVG 20010904//EN"
 "http://www.w3.org/TR/2001/REC-SVG-20010904/DTD/svg10.dtd">
<svg version="1.0" xmlns="http://www.w3.org/2000/svg"
 width="192.000000pt" height="192.000000pt" viewBox="0 0 192.000000 192.000000"
 preserveAspectRatio="xMidYMid meet">
<metadata>
Created by potrace 1.16, written by Peter Selinger 2001-2019
</metadata>
<g transform="translate(0.000000,192.000000) scale(0.100000,-0.100000)"
fill="#000000" stroke="none">
<path d="M433 1881 c-81 -45 -110 -67 -208 -166 -85 -84 -119 -127 -166 -209
-43 -75 -59 -119 -58 -160 0 -17 3 -24 6 -16 10 30 35 86 60 135 23 45 41 72
93 140 23 31 150 157 195 193 22 18 80 53 128 78 79 39 85 44 56 44 -20 0 -63
-16 -106 -39z"/>
<path d="M751 1908 c0 -7 4 -22 8 -33 7 -18 19 -19 187 -20 189 -1 251 -11
351 -60 l42 -20 -39 -80 c-21 -44 -48 -102 -60 -130 -40 -93 -52 -120 -90
-200 -21 -44 -48 -102 -59 -130 -38 -88 -29 -83 -113 -69 -24 4 -53 0 -83 -11
-46 -18 -115 -83 -115 -110 0 -24 -33 -18 -204 39 -88 30 -195 64 -236 76 -80
24 -294 93 -322 105 -13 5 -18 2 -18 -8 0 -15 107 -54 320 -117 41 -12 148
-46 236 -76 165 -55 244 -68 244 -39 0 27 69 92 116 110 36 14 51 15 70 6 14
-6 36 -11 49 -11 14 0 25 -5 25 -11 0 -5 14 -27 30 -48 33 -40 47 -93 36 -136
-8 -32 -70 -101 -107 -121 -45 -23 -95 -18 -144 16 -47 32 -85 85 -85 118 0
54 17 52 -376 52 l-364 0 0 -67 c0 -71 13 -156 37 -238 17 -60 111 -255 123
-255 5 0 11 -8 15 -19 4 -15 95 -109 169 -176 6 -6 40 -28 76 -50 36 -21 66
-39 68 -41 2 -1 -4 -19 -12 -39 -9 -21 -16 -50 -16 -66 0 -24 5 -30 38 -38 20
-6 51 -10 67 -10 21 1 24 3 10 6 -11 3 -24 9 -30 13 -5 4 -22 10 -37 14 -34 8
-34 11 -3 82 28 62 19 61 120 24 126 -46 268 -60 410 -39 62 10 75 14 70 28
-2 9 -36 151 -75 316 -39 165 -73 307 -75 316 -4 11 4 20 24 29 38 15 108 91
117 125 3 14 4 50 2 80 -4 43 -12 64 -37 95 l-31 39 37 43 c21 23 49 54 63 68
31 33 92 101 145 161 124 140 209 229 220 229 16 0 116 -106 145 -155 13 -22
26 -42 30 -45 10 -9 57 -114 78 -175 44 -126 55 -297 30 -451 l-14 -80 53 -16
c43 -12 53 -13 53 -2 0 7 -18 19 -40 25 -37 11 -40 15 -36 38 34 168 25 357
-26 506 -21 60 -68 166 -78 175 -4 3 -17 23 -30 45 -13 22 -49 66 -79 98 -44
46 -61 57 -86 57 -32 0 -64 -30 -240 -229 -128 -145 -209 -230 -196 -206 14
27 94 198 121 260 42 97 53 121 91 202 22 44 39 90 39 100 0 14 -15 26 -47 40
-111 49 -160 57 -348 59 -171 3 -179 4 -187 23 -8 23 -28 29 -27 9z m13 -944
c3 -9 6 -25 6 -37 0 -61 102 -147 178 -150 34 -1 39 -4 39 -27 0 -14 31 -157
68 -317 38 -161 66 -296 62 -300 -13 -13 -236 -16 -300 -4 -84 16 -187 50
-187 62 0 6 56 134 125 285 110 244 144 330 117 299 -5 -6 -67 -138 -137 -295
-71 -157 -136 -290 -144 -296 -9 -7 -24 -9 -37 -4 -24 9 -123 69 -140 85 -70
63 -165 161 -169 176 -4 11 -10 19 -15 19 -12 0 -106 195 -123 255 -22 74 -37
165 -37 218 l0 47 344 0 c304 0 345 -2 350 -16z"/>
<path d="M690 1811 c-30 -9 -84 -32 -120 -49 -68 -34 -200 -126 -200 -140 0
-10 437 -486 450 -490 32 -11 -12 44 -199 246 -115 125 -210 232 -212 237 -4
13 80 76 153 115 62 33 168 73 176 66 2 -3 36 -141 74 -308 67 -288 79 -330
94 -315 5 4 -88 423 -137 620 -11 42 -7 41 -79 18z"/>
<path d="M1160 898 c0 -10 63 -33 188 -72 380 -117 412 -127 412 -139 0 -47
-168 -307 -204 -315 -7 -1 -107 101 -222 228 -115 126 -212 230 -216 230 -5 0
-8 -5 -8 -11 0 -8 275 -317 421 -474 18 -19 19 -19 50 10 56 54 121 149 161
235 22 47 44 93 50 103 5 11 8 20 6 22 -2 2 -415 129 -620 191 -11 3 -18 0
-18 -8z"/>
<path d="M1902 599 c-15 -51 -84 -179 -127 -235 -33 -43 -153 -165 -200 -204
-55 -44 -156 -101 -250 -140 l-50 -21 45 4 c51 4 95 23 185 77 75 45 102 67
190 155 98 98 127 137 180 240 37 71 46 98 43 129 l-3 39 -13 -44z"/>
</g>
</svg>
