<?xml version="1.0" standalone="no"?>
<!DOCTYPE svg PUBLIC "-//W3C//DTD SVG 20010904//EN"
 "http://www.w3.org/TR/2001/REC-SVG-20010904/DTD/svg10.dtd">
<svg version="1.0" xmlns="http://www.w3.org/2000/svg"
 width="64.000000pt" height="64.000000pt" viewBox="0 0 64.000000 64.000000"
 preserveAspectRatio="xMidYMid meet">
<metadata>
Created by potrace 1.16, written by Peter Selinger 2001-2019
</metadata>
<g transform="translate(0.000000,64.000000) scale(0.100000,-0.100000)"
fill="#000000" stroke="none">
<path d="M175 613 c-39 -20 -113 -91 -131 -125 -8 -15 -14 -44 -14 -66 0 -37
2 -39 48 -54 l47 -16 -44 -1 -44 -1 6 -59 c7 -76 30 -125 89 -183 26 -26 48
-56 48 -67 0 -27 40 -34 176 -29 105 3 111 4 157 36 73 51 116 116 117 175 0
26 -4 47 -10 47 -5 0 -7 13 -4 29 9 45 -15 137 -49 188 -29 43 -36 48 -70 48
-33 0 -37 3 -37 26 0 23 -6 28 -44 38 -25 6 -63 11 -85 11 -23 0 -41 5 -41 10
0 16 -82 11 -115 -7z m95 -17 c0 -11 9 -13 34 -9 47 7 136 -15 136 -34 0 -8
-16 -49 -35 -91 l-35 -77 65 69 c73 77 76 77 120 2 32 -55 46 -122 36 -169 -7
-29 -6 -37 5 -37 26 0 15 -54 -21 -102 -19 -25 -56 -61 -82 -80 -44 -30 -55
-33 -136 -37 -48 -1 -104 0 -123 4 -31 5 -35 9 -30 28 4 17 -3 27 -29 44 -41
27 -89 95 -104 148 -21 77 -23 75 92 76 l102 1 -108 36 c-115 39 -121 46 -93
100 18 34 92 105 131 125 38 20 75 22 75 3z"/>
<path d="M205 580 c-72 -32 -168 -152 -132 -165 80 -30 192 -64 196 -59 9 9
-20 22 -97 45 -40 12 -75 25 -77 29 -2 4 11 29 30 57 24 36 49 58 85 76 59 29
54 45 -5 17z"/>
<path d="M209 547 c-24 -13 -44 -29 -44 -35 0 -6 26 -41 58 -76 51 -57 61 -64
78 -55 11 5 17 15 13 21 -4 6 -14 45 -24 86 -9 42 -21 77 -26 79 -6 2 -30 -7
-55 -20z m60 -72 c7 -31 11 -58 9 -59 -1 -1 -22 19 -46 45 l-43 48 28 14 c15
8 31 14 34 12 3 -2 11 -29 18 -60z"/>
<path d="M290 560 c0 -5 18 -10 39 -10 70 0 74 -5 45 -62 -37 -72 -45 -96 -34
-103 9 -6 65 105 76 151 5 18 0 22 -27 28 -47 9 -99 7 -99 -4z"/>
<path d="M490 476 c0 -7 -21 -33 -48 -58 -41 -39 -46 -48 -41 -74 l7 -29 1 30
c1 22 14 43 47 75 l45 45 20 -23 c23 -30 42 -97 37 -134 -3 -15 -1 -28 4 -28
4 0 8 21 8 46 0 34 -9 63 -32 105 -32 58 -48 73 -48 45z"/>
<path d="M286 349 c-24 -35 0 -79 43 -79 34 0 51 17 51 50 0 14 -5 31 -12 38
-19 19 -65 14 -82 -9z m64 -15 c11 -12 10 -18 -3 -32 -16 -15 -18 -15 -34 0
-13 14 -14 20 -3 32 7 9 16 16 20 16 4 0 13 -7 20 -16z"/>
<path d="M77 313 c-2 -5 3 -33 11 -63 18 -62 81 -133 145 -164 33 -15 141 -26
151 -15 2 2 -7 44 -19 94 -20 79 -26 90 -46 93 -32 5 -49 20 -49 43 0 17 -9
19 -94 19 -52 0 -97 -3 -99 -7z m188 -49 l26 -26 -27 -63 -28 -64 -28 20 c-40
29 -83 85 -96 124 l-10 35 68 0 c61 0 72 -3 95 -26z m76 -105 l16 -69 -36 1
c-70 1 -72 6 -38 82 16 37 32 65 36 62 3 -4 13 -37 22 -76z"/>
<path d="M384 285 c-4 -9 18 -41 56 -85 35 -38 64 -70 65 -70 6 0 65 98 65
107 0 9 -151 63 -174 63 -4 0 -9 -7 -12 -15z m104 -40 c29 -9 52 -19 52 -23
-1 -11 -38 -57 -42 -52 -2 3 -21 24 -43 48 -43 47 -41 49 33 27z"/>
<path d="M578 225 c-3 -11 -9 -29 -13 -40 -7 -19 -7 -19 9 -4 10 9 16 27 14
40 -3 22 -4 22 -10 4z"/>
<path d="M533 147 c-4 -8 -39 -33 -77 -55 -54 -32 -64 -42 -45 -42 29 0 124
61 139 90 12 23 -4 29 -17 7z"/>
<path d="M220 60 c0 -5 10 -10 23 -10 18 0 19 2 7 10 -19 13 -30 13 -30 0z"/>
</g>
</svg>
