<?xml version="1.0" standalone="no"?>
<!DOCTYPE svg PUBLIC "-//W3C//DTD SVG 20010904//EN"
 "http://www.w3.org/TR/2001/REC-SVG-20010904/DTD/svg10.dtd">
<svg version="1.0" xmlns="http://www.w3.org/2000/svg"
 width="100.000000pt" height="100.000000pt" viewBox="0 0 100.000000 100.000000"
 preserveAspectRatio="xMidYMid meet">
<metadata>
Created by potrace 1.16, written by Peter Selinger 2001-2019
</metadata>
<g transform="translate(0.000000,100.000000) scale(0.100000,-0.100000)"
fill="#000000" stroke="none">
<path d="M350 981 c0 -11 5 -23 10 -26 6 -4 10 5 10 19 0 14 -4 26 -10 26 -5
0 -10 -9 -10 -19z"/>
<path d="M422 935 c3 -57 2 -65 -14 -65 -10 0 -18 -4 -18 -10 0 -5 6 -10 14
-10 7 0 16 -9 19 -20 4 -15 0 -20 -14 -20 -10 0 -19 -4 -19 -10 0 -5 7 -10 15
-10 25 0 18 -38 -7 -43 l-23 -4 23 -8 c31 -10 30 -45 -3 -45 l-25 0 0 125 0
125 -60 0 c-57 0 -60 -1 -60 -25 0 -14 5 -25 10 -25 6 0 10 6 10 14 0 11 20
26 35 26 2 0 6 -12 8 -27 4 -27 4 -27 12 -5 10 30 25 28 25 -3 0 -25 -1 -25
-80 -25 l-80 0 0 -60 0 -60 30 0 c27 0 30 -3 30 -30 0 -27 3 -30 30 -30 27 0
30 -3 30 -30 0 -27 3 -30 30 -30 28 0 30 -3 30 -35 0 -32 3 -35 29 -35 24 0
28 -4 24 -19 -3 -10 0 -22 6 -25 8 -5 11 64 11 238 0 175 -3 246 -11 246 -8 0
-10 -21 -7 -65z m-172 -129 c0 -39 -2 -44 -20 -39 -22 6 -28 42 -7 44 10 0 10
2 0 6 -21 8 -15 33 7 33 17 0 20 -7 20 -44z m100 -26 c0 -68 -15 -98 -22 -42
-2 15 -9 28 -15 28 -7 1 -20 2 -28 3 -11 1 -15 13 -15 41 l0 40 40 0 40 0 0
-70z m-40 -55 c0 -35 -29 -30 -43 8 -5 13 -1 17 18 17 20 0 25 -5 25 -25z m60
-59 c0 -19 -4 -23 -19 -19 -11 3 -21 13 -24 24 -4 15 0 19 19 19 19 0 24 -5
24 -24z m50 -11 c0 -8 -7 -15 -15 -15 -8 0 -15 7 -15 15 0 8 7 15 15 15 8 0
15 -7 15 -15z m0 -50 c0 -16 -6 -25 -15 -25 -9 0 -15 9 -15 25 0 16 6 25 15
25 9 0 15 -9 15 -25z"/>
<path d="M730 945 c0 -48 -3 -55 -19 -55 -11 0 -23 -4 -26 -10 -3 -5 -19 -10
-36 -10 -26 0 -29 -3 -29 -30 0 -16 -4 -30 -10 -30 -5 0 -10 -22 -10 -49 0
-47 -2 -50 -27 -53 -21 -2 -29 -9 -31 -28 -2 -13 -11 -30 -20 -37 -15 -11 -15
-12 5 -13 17 0 20 -4 15 -22 -3 -13 -13 -28 -21 -35 -14 -11 -12 -12 12 -13
27 0 27 1 27 65 0 63 1 65 25 65 31 0 32 -13 3 -40 l-22 -20 27 0 c26 0 27 2
27 60 l0 60 35 0 35 0 0 60 c0 57 1 60 25 60 19 0 23 -4 18 -17 -4 -10 -14
-23 -22 -30 -14 -11 -12 -12 12 -13 l27 0 0 95 c0 57 -4 95 -10 95 -5 0 -10
-25 -10 -55z m-60 -100 c0 -8 -9 -15 -20 -15 -11 0 -20 7 -20 15 0 8 9 15 20
15 11 0 20 -7 20 -15z m0 -54 c0 -12 -9 -20 -25 -23 -21 -4 -25 -1 -25 18 0
19 5 24 25 24 18 0 25 -5 25 -19z"/>
<path d="M790 976 c0 -13 -6 -27 -12 -29 -10 -4 -10 -6 0 -6 14 -1 17 -51 2
-51 -5 0 -10 -4 -10 -10 0 -5 9 -10 20 -10 18 0 20 7 20 65 0 37 -4 65 -10 65
-5 0 -10 -11 -10 -24z"/>
<path d="M503 815 c0 -27 2 -38 4 -22 2 15 2 37 0 50 -2 12 -4 0 -4 -28z"/>
<path d="M718 753 c6 -2 18 -2 25 0 6 3 1 5 -13 5 -14 0 -19 -2 -12 -5z"/>
<path d="M674 725 c-4 -8 -12 -15 -20 -15 -8 0 -14 -4 -14 -10 0 -5 11 -10 25
-10 20 0 25 5 25 25 0 28 -8 33 -16 10z"/>
<path d="M460 684 c0 -3 7 -12 15 -20 8 -9 15 -20 15 -25 0 -5 -7 -9 -15 -9
-8 0 -15 -4 -15 -10 0 -5 5 -10 10 -10 6 0 10 -9 10 -20 0 -11 -6 -20 -12 -20
-9 0 -10 -3 -2 -8 6 -4 13 -19 16 -34 l5 -28 -243 0 c-156 0 -244 -4 -244 -10
0 -6 75 -10 206 -10 185 0 208 -2 220 -17 13 -17 13 -17 14 0 0 25 40 23 40
-3 0 -13 -7 -20 -20 -20 -19 0 -20 -7 -20 -125 0 -69 3 -125 8 -125 4 0 8 23
9 51 2 48 8 68 17 58 2 -2 6 -41 8 -86 l3 -83 -57 0 c-55 0 -58 -1 -58 -25 0
-18 -5 -25 -20 -25 -17 0 -20 7 -20 41 0 28 6 46 18 55 15 12 14 13 -10 14
-27 0 -28 -2 -28 -55 0 -54 0 -55 -30 -55 -25 0 -30 4 -30 25 0 18 5 25 20 25
11 0 20 5 20 10 0 13 -6 13 -31 0 -11 -6 -19 -21 -19 -35 0 -20 -5 -25 -25
-25 -20 0 -25 5 -25 25 0 22 -4 25 -32 24 -31 -2 -31 -2 -6 -6 20 -3 28 -10
28 -24 0 -17 -8 -19 -67 -20 -68 -1 -146 -16 -95 -18 18 -1 22 -7 22 -31 0
-17 5 -30 10 -30 6 0 10 13 10 30 l0 30 250 0 250 0 0 160 0 160 30 0 c28 0
30 -3 30 -35 0 -33 2 -35 35 -35 32 0 35 -2 35 -30 0 -27 3 -30 30 -30 27 0
30 -3 30 -30 l0 -30 60 0 60 0 0 85 0 85 29 0 c20 0 31 -6 34 -17 4 -17 5 -17
6 0 1 12 10 17 31 17 17 0 30 5 30 10 0 6 -58 10 -155 10 -148 0 -155 1 -155
20 0 25 28 26 46 3 12 -17 13 -16 14 4 0 16 5 20 20 16 11 -3 20 -9 20 -14 0
-5 5 -9 10 -9 6 0 10 9 10 20 0 19 -7 20 -151 20 -97 0 -148 -4 -144 -10 3 -5
15 -10 27 -10 17 0 19 -4 13 -22 -4 -13 -8 -38 -8 -55 0 -21 -6 -33 -14 -33
-7 0 -13 -4 -13 -10 0 -5 5 -10 10 -10 14 0 12 -37 -2 -44 -10 -5 -10 -7 0
-12 19 -9 15 -44 -5 -44 -17 -1 -17 -1 0 -14 23 -18 22 -46 -3 -46 -20 0 -20
7 -20 280 0 273 0 280 -20 280 -11 0 -20 -3 -20 -6z m20 -284 c0 -11 -7 -20
-15 -20 -17 0 -18 2 -9 24 9 23 24 20 24 -4z m130 10 c0 -5 -7 -10 -15 -10 -8
0 -15 5 -15 10 0 6 7 10 15 10 8 0 15 -4 15 -10z m63 -10 c4 -17 0 -20 -24
-20 -22 0 -29 5 -29 20 0 14 7 20 24 20 15 0 26 -7 29 -20z m-193 -60 c0 -18
-5 -30 -13 -30 -9 0 -12 10 -9 30 2 17 8 30 13 30 5 0 9 -13 9 -30z m321 -2
l2 -23 4 23 c6 32 43 30 43 -3 0 -17 -6 -25 -17 -26 -17 -1 -17 -2 0 -6 23 -6
22 -33 -1 -33 -23 0 -42 -19 -42 -42 0 -29 -18 -21 -22 10 -2 21 -9 28 -30 30
-24 3 -28 8 -28 33 0 27 -3 29 -35 29 -24 0 -35 5 -35 15 0 12 16 15 80 15 76
0 80 -1 81 -22z m52 -105 c-14 -38 -43 -43 -43 -8 0 20 5 25 25 25 19 0 23 -4
18 -17z m-350 -119 c22 -4 37 -12 37 -20 0 -11 -19 -14 -80 -14 -60 0 -80 3
-80 13 0 8 3 17 7 20 8 9 66 9 116 1z"/>
<path d="M258 633 c6 -2 18 -2 25 0 6 3 1 5 -13 5 -14 0 -19 -2 -12 -5z"/>
<path d="M311 594 c0 -11 3 -14 6 -6 3 7 2 16 -1 19 -3 4 -6 -2 -5 -13z"/>
<path d="M580 570 c0 -5 9 -10 21 -10 11 0 17 5 14 10 -3 6 -13 10 -21 10 -8
0 -14 -4 -14 -10z"/>
<path d="M0 550 c0 -5 11 -10 24 -10 13 0 27 -6 29 -12 4 -10 6 -10 6 0 1 6
12 12 25 12 13 0 27 -6 30 -12 5 -10 7 -10 12 0 3 6 14 12 24 12 10 0 21 -6
24 -12 5 -10 7 -10 12 0 7 14 44 16 44 2 0 -5 5 -10 10 -10 6 0 10 6 10 14 0
9 7 12 20 9 11 -3 20 -9 20 -14 0 -5 5 -9 10 -9 6 0 10 7 10 16 0 11 6 14 20
9 11 -4 20 -2 20 4 0 7 -58 11 -175 11 -110 0 -175 -4 -175 -10z"/>
<path d="M546 541 c-4 -7 -5 -15 -2 -18 9 -9 19 4 14 18 -4 11 -6 11 -12 0z"/>
<path d="M621 534 c0 -11 3 -14 6 -6 3 7 2 16 -1 19 -3 4 -6 -2 -5 -13z"/>
<path d="M738 503 c18 -2 45 -2 60 0 15 2 0 4 -33 4 -33 0 -45 -2 -27 -4z"/>
<path d="M520 494 c0 -3 8 -13 17 -22 12 -12 18 -13 21 -4 4 14 42 16 42 2 0
-5 5 -10 10 -10 6 0 10 9 10 20 0 17 -7 20 -50 20 -27 0 -50 -3 -50 -6z"/>
<path d="M640 490 c0 -5 7 -10 15 -10 8 0 15 -4 15 -10 0 -5 5 -10 10 -10 6 0
10 9 10 20 0 15 -7 20 -25 20 -14 0 -25 -4 -25 -10z"/>
<path d="M370 431 c0 -4 11 -6 25 -3 14 2 25 6 25 8 0 2 -11 4 -25 4 -14 0
-25 -4 -25 -9z"/>
<path d="M838 420 c12 -11 24 -20 27 -20 3 0 5 9 5 20 0 15 -7 20 -27 20 l-27
0 22 -20z"/>
<path d="M940 420 c0 -11 5 -20 10 -20 6 0 10 5 10 10 0 6 9 10 20 10 11 0 20
5 20 10 0 6 -13 10 -30 10 -23 0 -30 -4 -30 -20z"/>
<path d="M370 348 c0 -36 4 -35 14 5 4 16 2 27 -4 27 -5 0 -10 -14 -10 -32z"/>
<path d="M580 320 c0 -5 5 -10 10 -10 6 0 10 5 10 10 0 6 -4 10 -10 10 -5 0
-10 -4 -10 -10z"/>
<path d="M371 228 c0 -56 3 -76 9 -63 5 11 9 32 9 47 1 16 8 28 19 31 14 4 13
5 -4 6 -17 1 -20 6 -17 25 3 14 13 27 22 29 9 3 4 5 -11 6 l-28 1 1 -82z"/>
<path d="M890 300 c0 -5 7 -10 15 -10 8 0 15 -4 15 -10 0 -5 -7 -10 -15 -10
-8 0 -15 -4 -15 -10 0 -5 11 -10 25 -10 21 0 25 5 25 30 0 25 -4 30 -25 30
-14 0 -25 -4 -25 -10z"/>
<path d="M968 303 c6 -2 18 -2 25 0 6 3 1 5 -13 5 -14 0 -19 -2 -12 -5z"/>
<path d="M620 278 c0 -23 4 -28 25 -28 14 0 25 5 25 10 0 6 -5 10 -11 10 -7 0
-18 8 -25 18 -12 15 -13 14 -14 -10z"/>
<path d="M310 228 c0 -17 3 -19 9 -9 5 7 15 17 22 22 10 6 8 9 -8 9 -17 0 -23
-6 -23 -22z"/>
<path d="M690 218 c0 -24 4 -28 27 -28 22 0 25 2 13 13 -8 6 -20 19 -27 27
-10 13 -12 11 -13 -12z"/>
<path d="M580 180 c0 -5 6 -10 14 -10 8 0 17 -6 19 -12 3 -7 6 -3 6 10 1 16
-5 22 -19 22 -11 0 -20 -4 -20 -10z"/>
<path d="M750 150 c0 -16 7 -20 30 -20 23 0 30 4 30 20 0 22 -15 27 -24 8 -5
-10 -7 -10 -12 0 -9 19 -24 14 -24 -8z"/>
<path d="M580 120 c0 -5 5 -10 10 -10 6 0 10 -7 10 -15 0 -8 -4 -15 -10 -15
-5 0 -10 -4 -10 -10 0 -5 7 -10 15 -10 11 0 13 -8 9 -30 -4 -19 -2 -30 5 -30
7 0 11 24 11 65 0 58 -2 65 -20 65 -11 0 -20 -4 -20 -10z"/>
<path d="M691 94 c0 -11 3 -14 6 -6 3 7 2 16 -1 19 -3 4 -6 -2 -5 -13z"/>
<path d="M547 43 c-11 -10 -8 -43 3 -43 6 0 10 11 10 25 0 26 -2 29 -13 18z"/>
<path d="M122 20 c0 -14 2 -19 5 -12 2 6 2 18 0 25 -3 6 -5 1 -5 -13z"/>
<path d="M170 20 c0 -11 5 -20 10 -20 6 0 10 9 10 20 0 11 -4 20 -10 20 -5 0
-10 -9 -10 -20z"/>
<path d="M230 20 c0 -11 5 -20 10 -20 6 0 10 9 10 20 0 11 -4 20 -10 20 -5 0
-10 -9 -10 -20z"/>
<path d="M310 20 c0 -11 5 -20 10 -20 6 0 10 9 10 20 0 11 -4 20 -10 20 -5 0
-10 -9 -10 -20z"/>
<path d="M370 20 c0 -11 5 -20 10 -20 6 0 10 9 10 20 0 11 -4 20 -10 20 -5 0
-10 -9 -10 -20z"/>
<path d="M440 20 c0 -11 5 -20 10 -20 6 0 10 9 10 20 0 11 -4 20 -10 20 -5 0
-10 -9 -10 -20z"/>
<path d="M492 20 c0 -14 2 -19 5 -12 2 6 2 18 0 25 -3 6 -5 1 -5 -13z"/>
</g>
</svg>
