<?xml version="1.0" standalone="no"?>
<!DOCTYPE svg PUBLIC "-//W3C//DTD SVG 20010904//EN"
 "http://www.w3.org/TR/2001/REC-SVG-20010904/DTD/svg10.dtd">
<svg version="1.0" xmlns="http://www.w3.org/2000/svg"
 width="228.000000pt" height="228.000000pt" viewBox="0 0 228.000000 228.000000"
 preserveAspectRatio="xMidYMid meet">
<metadata>
Created by potrace 1.16, written by Peter Selinger 2001-2019
</metadata>
<g transform="translate(0.000000,228.000000) scale(0.100000,-0.100000)"
fill="#000000" stroke="none">
<path d="M190 1135 l0 -415 950 0 950 0 0 415 0 415 -950 0 -950 0 0 -415z
m80 392 c0 -2 -13 -16 -30 -32 l-30 -29 0 32 c0 29 3 32 30 32 17 0 30 -1 30
-3z m358 -11 c39 -20 68 -55 91 -107 64 -145 15 -307 -113 -368 -34 -17 -62
-21 -144 -21 l-102 0 0 -73 0 -72 -61 -68 c-33 -37 -67 -67 -75 -67 -12 0 -14
53 -14 338 l0 337 48 58 47 57 148 0 c108 0 155 -4 175 -14z m232 8 c0 -3 -20
-29 -45 -56 -37 -42 -45 -57 -46 -92 l-1 -41 -9 38 c-12 50 -35 96 -67 130
l-26 27 97 0 c53 0 97 -3 97 -6z m100 -129 l0 -136 118 135 117 136 119 0
c112 0 118 -1 104 -17 -8 -10 -74 -86 -146 -170 -73 -84 -132 -156 -132 -162
0 -5 67 -82 149 -172 l149 -162 -46 -53 c-40 -46 -52 -54 -82 -54 -33 0 -44
11 -190 180 l-155 180 -3 -108 -3 -109 -60 -71 c-44 -52 -68 -72 -85 -72 l-24
0 0 328 0 328 57 67 c45 53 64 67 85 67 l28 0 0 -135z m190 129 c0 -5 -58 -73
-157 -184 -11 -12 -13 3 -13 88 l0 102 85 0 c47 0 85 -3 85 -6z m351 -63 l-61
-68 -2 -250 -3 -250 -133 144 -132 144 151 174 151 175 45 0 45 0 -61 -69z
m569 63 c0 -3 -26 -37 -57 -75 l-58 -69 -157 0 -158 0 0 -55 0 -55 115 0 c63
0 115 -3 115 -6 0 -3 -33 -43 -72 -89 -70 -81 -75 -84 -115 -85 l-43 0 0 -104
0 -105 -61 -70 c-50 -57 -68 -71 -90 -71 l-29 0 0 316 0 316 68 78 67 79 238
0 c130 1 237 -2 237 -5z m-3 -781 c-2 -2 -118 -2 -256 -1 l-253 3 51 58 51 58
0 105 0 104 43 0 c40 1 45 4 115 85 49 57 72 92 72 109 l0 26 -115 0 -115 0 0
35 0 35 158 0 157 0 45 55 45 55 3 -362 c1 -198 1 -363 -1 -365z m-1297 232
l0 -235 -246 0 -245 0 50 58 51 59 0 71 0 72 102 0 c82 0 110 4 144 21 57 27
111 89 126 144 7 25 13 45 15 45 2 0 3 -106 3 -235z m340 -86 c67 -77 120
-142 117 -145 -2 -2 -81 -3 -176 -2 l-172 3 51 60 50 59 0 83 c0 46 2 83 4 83
2 0 59 -63 126 -141z m330 -119 c0 -25 -4 -30 -25 -30 -31 0 -31 7 -3 37 27
29 28 29 28 -7z"/>
<path d="M360 1285 l0 -95 79 0 c60 0 84 4 100 18 45 36 35 143 -16 163 -13 5
-56 9 -94 9 l-69 0 0 -95z m143 66 c32 -12 51 -59 38 -94 -14 -35 -40 -47
-105 -47 l-56 0 0 75 0 75 49 0 c27 0 61 -4 74 -9z"/>
</g>
</svg>
