<?xml version="1.0" standalone="no"?>
<!DOCTYPE svg PUBLIC "-//W3C//DTD SVG 20010904//EN"
 "http://www.w3.org/TR/2001/REC-SVG-20010904/DTD/svg10.dtd">
<svg version="1.0" xmlns="http://www.w3.org/2000/svg"
 width="160.000000pt" height="160.000000pt" viewBox="0 0 160.000000 160.000000"
 preserveAspectRatio="xMidYMid meet">
<metadata>
Created by potrace 1.16, written by Peter Selinger 2001-2019
</metadata>
<g transform="translate(0.000000,160.000000) scale(0.100000,-0.100000)"
fill="#000000" stroke="none">
<path d="M592 1510 c-239 -63 -434 -262 -499 -510 -24 -91 -23 -301 1 -390 68
-248 258 -438 506 -506 90 -25 309 -25 400 0 250 68 439 260 507 516 26 99 23
291 -6 395 -69 245 -258 434 -497 495 -105 27 -308 27 -412 0z m392 -20 c239
-61 429 -250 497 -495 28 -102 30 -259 5 -355 -66 -255 -257 -449 -506 -516
-89 -24 -272 -24 -360 0 -247 67 -439 259 -506 506 -23 87 -24 262 -1 350 64
248 260 447 499 510 102 26 269 27 372 0z"/>
<path d="M587 1386 c-151 -62 -276 -177 -341 -312 -21 -42 -36 -77 -34 -79 2
-2 97 -33 213 -69 116 -36 220 -71 232 -76 20 -8 25 -5 38 20 21 40 68 63 119
58 l41 -5 77 171 c43 94 80 179 84 188 9 27 -109 59 -218 60 -48 0 -92 -3 -98
-7 -24 -15 4 -22 64 -18 72 6 216 -21 216 -40 0 -7 -32 -83 -72 -170 -51 -110
-76 -156 -86 -152 -7 3 -22 0 -32 -5 -15 -8 -20 -6 -24 8 -13 43 -89 371 -95
406 -3 22 -10 41 -16 42 -5 2 -36 -7 -68 -20z m63 -36 c9 -16 7 -22 -7 -27
-56 -20 -124 -55 -165 -85 l-46 -33 133 -145 c130 -142 133 -145 114 -163 -19
-17 -26 -16 -224 48 -113 36 -205 68 -205 71 0 4 14 34 32 68 46 88 165 203
257 249 85 43 96 44 111 17z m14 -67 c3 -10 21 -87 41 -172 26 -114 33 -157
24 -165 -8 -8 -43 23 -130 114 -65 69 -119 130 -119 137 0 15 45 47 112 78 63
30 65 30 72 8z"/>
<path d="M1016 1053 c-76 -85 -135 -158 -129 -161 17 -12 34 -52 35 -83 1 -16
5 -29 10 -29 18 0 21 35 5 79 l-16 45 44 51 c24 27 77 86 119 130 l76 80 36
-40 c80 -90 120 -220 111 -362 -4 -51 -3 -93 2 -93 24 0 29 195 7 275 -20 74
-69 165 -118 218 l-43 46 -139 -156z"/>
<path d="M265 754 c25 -215 162 -387 364 -456 52 -18 88 -23 173 -23 58 0 109
3 113 6 5 6 -57 298 -82 382 -4 16 -1 18 17 12 15 -5 25 -1 34 10 10 14 28 -2
145 -129 l133 -146 44 53 c25 28 57 78 72 109 22 47 31 56 47 51 11 -3 22 -7
25 -10 2 -2 -12 -37 -33 -78 -28 -54 -59 -94 -116 -148 -121 -115 -247 -167
-406 -167 -100 0 -222 30 -209 51 3 5 1 16 -4 26 -8 14 -12 12 -27 -16 -9 -18
-15 -34 -13 -36 2 -2 35 -13 73 -25 304 -95 639 65 755 360 l20 50 -58 16
c-31 9 -136 40 -232 69 l-175 54 -28 -34 c-36 -44 -93 -63 -137 -45 -39 16
-80 65 -80 96 l0 24 -211 0 -211 0 7 -56z m390 6 c8 -36 41 -80 61 -80 8 0 14
-6 14 -12 0 -7 -32 -83 -71 -169 l-72 -157 -34 21 c-58 34 -144 119 -185 181
-40 62 -78 168 -78 217 l0 29 179 0 179 0 7 -30z m458 -76 c83 -26 155 -49
159 -53 10 -9 -37 -100 -76 -145 l-32 -39 -50 54 c-198 212 -210 229 -168 229
8 0 83 -21 167 -46z m-303 -29 c0 -2 18 -82 40 -176 22 -95 38 -174 35 -177
-2 -3 -39 -5 -82 -5 -77 0 -193 25 -193 42 0 5 32 79 71 165 68 148 73 156
100 156 16 0 29 -2 29 -5z"/>
</g>
</svg>
