<?xml version="1.0" standalone="no"?>
<!DOCTYPE svg PUBLIC "-//W3C//DTD SVG 20010904//EN"
 "http://www.w3.org/TR/2001/REC-SVG-20010904/DTD/svg10.dtd">
<svg version="1.0" xmlns="http://www.w3.org/2000/svg"
 width="164.000000pt" height="157.000000pt" viewBox="0 0 164.000000 157.000000"
 preserveAspectRatio="xMidYMid meet">
<metadata>
Created by potrace 1.16, written by Peter Selinger 2001-2019
</metadata>
<g transform="translate(0.000000,157.000000) scale(0.100000,-0.100000)"
fill="#000000" stroke="none">
<path d="M150 775 l0 -695 745 0 c490 0 745 3 745 10 0 6 -5 10 -11 10 -10 0
-8 158 5 325 2 33 2 49 0 35 -3 -14 -13 -47 -22 -75 -11 -35 -17 -85 -17 -167
0 -159 -18 -155 -25 4 l-6 123 -2 -122 -2 -123 -630 0 -630 0 0 25 c0 23 3 24
68 28 l67 3 -72 2 -72 2 -3 -32 c-5 -53 -23 -33 -26 29 -3 52 -1 56 12 43 13
-13 34 -14 118 -9 57 4 119 13 138 21 31 13 39 12 100 -11 56 -22 82 -25 192
-25 69 -1 129 2 133 6 4 4 -19 116 -50 249 -40 168 -56 254 -52 281 5 35 2 41
-29 66 -32 26 -34 30 -34 90 0 36 -14 123 -35 210 -80 335 -75 303 -51 339
l21 33 234 0 233 0 -4 -55 c-3 -37 -11 -63 -25 -78 -12 -12 -56 -74 -99 -137
-42 -63 -104 -152 -136 -198 -32 -45 -58 -89 -58 -98 0 -24 -19 -54 -35 -54
-8 0 -15 -7 -15 -15 0 -8 6 -15 13 -15 22 0 57 44 57 73 0 14 4 28 10 32 5 3
62 83 126 178 65 95 132 192 151 216 29 38 33 51 33 104 0 73 17 67 23 -8 l3
-50 2 53 2 52 140 0 140 0 0 -128 c0 -84 5 -146 15 -182 39 -138 55 -239 55
-342 l0 -107 -47 -3 -48 -3 54 -5 54 -5 -6 150 c-4 111 -11 171 -27 230 -39
141 -42 163 -38 290 l3 125 -692 0 -693 0 0 -695z m538 653 c-7 -13 -11 -26
-10 -30 3 -10 -20 -23 -81 -46 -59 -22 -155 -80 -177 -107 -10 -12 10 -39 117
-152 151 -161 243 -269 243 -285 0 -15 -79 -7 -345 37 -121 20 -230 33 -242
30 l-23 -5 0 290 0 290 265 0 266 0 -13 -22z m-18 -82 c0 -2 23 -100 50 -217
28 -117 50 -224 49 -238 0 -24 -1 -25 -12 -7 -7 11 -73 85 -147 166 -74 80
-143 155 -153 167 -18 20 -17 21 45 60 81 51 168 86 168 69z m-192 -531 c122
-19 239 -35 260 -35 20 0 44 -5 52 -10 12 -8 11 -13 -9 -34 -15 -16 -22 -34
-20 -54 3 -20 -25 -92 -90 -234 l-93 -205 -90 -18 c-65 -13 -111 -16 -168 -12
l-80 6 0 -59 0 -60 -35 0 -35 0 0 374 0 375 23 4 c12 2 31 2 42 0 11 -2 120
-19 243 -38z m352 -112 c0 -27 23 -148 51 -270 29 -123 50 -225 47 -228 -3 -3
-37 -8 -74 -11 -67 -6 -172 10 -235 34 l-27 11 33 68 c18 37 43 91 55 118 12
28 40 88 61 134 22 47 39 99 39 119 0 33 22 72 42 72 4 0 8 -21 8 -47z"/>
<path d="M698 833 c6 -2 18 -2 25 0 6 3 1 5 -13 5 -14 0 -19 -2 -12 -5z"/>
<path d="M1562 1313 c3 -137 8 -171 32 -258 25 -88 29 -119 31 -263 2 -90 6
-166 9 -169 3 -4 6 75 6 174 0 165 -2 189 -27 279 -22 80 -28 126 -31 237 l-3
137 30 0 c17 0 31 5 31 10 0 6 -18 10 -40 10 l-41 0 3 -157z"/>
<path d="M721 1334 c0 -11 3 -14 6 -6 3 7 2 16 -1 19 -3 4 -6 -2 -5 -13z"/>
<path d="M731 1294 c0 -11 3 -14 6 -6 3 7 2 16 -1 19 -3 4 -6 -2 -5 -13z"/>
<path d="M741 1254 c0 -11 3 -14 6 -6 3 7 2 16 -1 19 -3 4 -6 -2 -5 -13z"/>
<path d="M751 1214 c0 -11 3 -14 6 -6 3 7 2 16 -1 19 -3 4 -6 -2 -5 -13z"/>
<path d="M761 1164 c0 -11 3 -14 6 -6 3 7 2 16 -1 19 -3 4 -6 -2 -5 -13z"/>
<path d="M771 1124 c0 -11 3 -14 6 -6 3 7 2 16 -1 19 -3 4 -6 -2 -5 -13z"/>
<path d="M781 1084 c0 -11 3 -14 6 -6 3 7 2 16 -1 19 -3 4 -6 -2 -5 -13z"/>
<path d="M791 1044 c0 -11 3 -14 6 -6 3 7 2 16 -1 19 -3 4 -6 -2 -5 -13z"/>
<path d="M801 994 c0 -11 3 -14 6 -6 3 7 2 16 -1 19 -3 4 -6 -2 -5 -13z"/>
<path d="M811 954 c0 -11 3 -14 6 -6 3 7 2 16 -1 19 -3 4 -6 -2 -5 -13z"/>
<path d="M823 880 c0 -25 2 -35 4 -22 2 12 2 32 0 45 -2 12 -4 2 -4 -23z"/>
<path d="M870 778 c0 -4 24 -7 53 -7 54 1 49 5 -15 11 -21 2 -38 0 -38 -4z"/>
<path d="M1025 750 c28 -10 57 -18 65 -18 8 0 -7 8 -35 18 -27 10 -57 18 -65
18 -8 0 8 -8 35 -18z"/>
<path d="M890 716 c14 -12 30 -30 35 -38 13 -21 309 -346 315 -347 22 -1 159
210 160 247 0 6 7 12 15 12 9 0 33 9 55 20 24 12 59 20 90 20 27 0 50 5 50 10
0 6 -27 10 -60 10 -46 0 -69 -6 -98 -23 l-37 -24 -220 68 c-156 48 -236 68
-275 68 l-55 0 25 -23z m271 -61 c117 -36 215 -67 217 -70 14 -14 -113 -215
-136 -215 -7 0 -267 278 -305 327 -15 19 -16 23 -4 23 9 0 111 -29 228 -65z"/>
<path d="M1140 715 c19 -7 42 -13 50 -13 8 0 -1 6 -20 13 -19 7 -42 13 -50 13
-8 0 1 -6 20 -13z"/>
<path d="M881 669 c1 -19 5 -45 9 -59 6 -16 7 -6 3 30 -7 63 -13 80 -12 29z"/>
<path d="M1270 675 c19 -7 42 -13 50 -13 8 0 -1 6 -20 13 -19 7 -42 13 -50 13
-8 0 1 -6 20 -13z"/>
<path d="M1355 650 c11 -5 29 -8 40 -8 16 0 15 2 -5 8 -34 11 -60 11 -35 0z"/>
<path d="M1620 595 c0 -8 4 -15 10 -15 5 0 7 7 4 15 -4 8 -8 15 -10 15 -2 0
-4 -7 -4 -15z"/>
<path d="M901 564 c0 -11 3 -14 6 -6 3 7 2 16 -1 19 -3 4 -6 -2 -5 -13z"/>
<path d="M911 530 c0 -8 6 -37 13 -65 8 -27 15 -43 15 -35 0 8 -6 38 -13 65
-8 28 -15 43 -15 35z"/>
<path d="M1617 533 c-11 -10 -8 -43 3 -43 6 0 10 11 10 25 0 26 -2 29 -13 18z"/>
<path d="M1601 464 c0 -11 3 -14 6 -6 3 7 2 16 -1 19 -3 4 -6 -2 -5 -13z"/>
<path d="M941 394 c0 -11 3 -14 6 -6 3 7 2 16 -1 19 -3 4 -6 -2 -5 -13z"/>
<path d="M951 360 c0 -8 6 -37 13 -65 8 -27 15 -43 15 -35 0 8 -6 38 -13 65
-8 28 -15 43 -15 35z"/>
<path d="M981 224 c0 -11 3 -14 6 -6 3 7 2 16 -1 19 -3 4 -6 -2 -5 -13z"/>
<path d="M458 163 c6 -2 18 -2 25 0 6 3 1 5 -13 5 -14 0 -19 -2 -12 -5z"/>
<path d="M680 150 c25 -8 97 -13 89 -6 -2 2 -29 6 -59 9 -36 4 -46 3 -30 -3z"/>
<path d="M888 143 c12 -2 30 -2 40 0 9 3 -1 5 -23 4 -22 0 -30 -2 -17 -4z"/>
<path d="M803 133 c9 -2 25 -2 35 0 9 3 1 5 -18 5 -19 0 -27 -2 -17 -5z"/>
</g>
</svg>
