<?xml version="1.0" standalone="no"?>
<!DOCTYPE svg PUBLIC "-//W3C//DTD SVG 20010904//EN"
 "http://www.w3.org/TR/2001/REC-SVG-20010904/DTD/svg10.dtd">
<svg version="1.0" xmlns="http://www.w3.org/2000/svg"
 width="192.000000pt" height="192.000000pt" viewBox="0 0 192.000000 192.000000"
 preserveAspectRatio="xMidYMid meet">
<metadata>
Created by potrace 1.16, written by Peter Selinger 2001-2019
</metadata>
<g transform="translate(0.000000,192.000000) scale(0.100000,-0.100000)"
fill="#000000" stroke="none">
<path d="M515 1903 c-22 -9 -52 -25 -67 -35 -14 -10 -31 -18 -37 -18 -6 0 -11
-4 -11 -9 0 -5 -11 -12 -25 -15 -14 -4 -25 -11 -25 -16 0 -5 -15 -17 -32 -26
-32 -16 -178 -155 -178 -168 0 -4 -11 -18 -25 -32 -14 -14 -25 -31 -25 -38 0
-8 -6 -16 -13 -19 -7 -3 -28 -34 -45 -69 -24 -49 -31 -76 -30 -111 2 -47 13
-61 25 -31 3 9 0 19 -6 23 -9 6 -5 23 15 67 33 73 63 116 75 109 5 -4 6 0 3 8
-9 24 121 169 211 236 76 57 148 97 152 84 5 -13 43 -5 43 9 0 5 -10 6 -22 2
-45 -13 -5 11 60 38 62 25 64 27 32 27 -19 0 -53 -7 -75 -16z"/>
<path d="M635 1910 c-3 -5 1 -10 9 -10 8 0 18 5 21 10 3 6 -1 10 -9 10 -8 0
-18 -4 -21 -10z"/>
<path d="M700 1911 c0 -6 4 -13 10 -16 6 -3 7 1 4 9 -7 18 -14 21 -14 7z"/>
<path d="M734 1896 c4 -16 2 -26 -5 -26 -6 0 -9 -15 -7 -36 3 -35 1 -37 -42
-51 -53 -17 -104 -38 -145 -60 -44 -23 -163 -103 -174 -117 -7 -8 11 -33 57
-81 37 -39 113 -120 168 -180 200 -216 214 -230 221 -219 7 10 46 27 65 29 17
1 16 17 -6 100 -13 50 -32 126 -41 170 -10 44 -28 121 -41 170 -26 101 -31
127 -43 205 -9 56 -5 82 6 41 4 -15 11 -20 22 -16 9 4 63 9 121 12 82 4 126 1
200 -15 118 -25 210 -59 210 -78 0 -8 -16 -49 -36 -91 -20 -43 -69 -150 -109
-238 -40 -88 -85 -185 -99 -215 l-26 -55 -84 0 c-79 0 -86 -2 -122 -31 -21
-16 -45 -44 -53 -62 -23 -45 -4 -49 -342 59 -85 28 -162 52 -170 53 -8 2 -21
6 -29 9 -32 14 -204 67 -217 67 -7 0 -13 -4 -13 -9 0 -8 82 -37 172 -61 27 -7
48 -17 48 -21 0 -5 9 -9 20 -9 18 0 153 -40 205 -61 11 -4 45 -15 75 -24 30
-8 69 -20 85 -25 38 -12 165 -33 168 -29 1 2 12 22 24 44 32 58 93 88 166 79
32 -4 57 -12 57 -18 0 -6 13 -26 29 -45 37 -43 44 -81 28 -149 -12 -49 -16
-55 -56 -73 -24 -10 -53 -19 -65 -19 -20 0 -19 -1 4 -13 21 -11 31 -9 70 11
26 13 52 33 59 44 7 11 8 17 2 14 -6 -4 -9 -1 -5 7 5 15 20 17 39 5 6 -3 80
-27 165 -53 85 -26 196 -59 245 -75 50 -15 109 -33 133 -39 23 -7 42 -17 42
-24 0 -6 -18 -48 -40 -92 -45 -91 -144 -218 -165 -213 -8 2 -76 71 -151 153
-202 221 -268 288 -272 276 -2 -6 7 -21 20 -34 33 -34 129 -137 228 -246 47
-52 105 -116 130 -143 l46 -50 44 49 c66 73 79 90 113 152 16 31 33 61 37 66
4 6 10 22 14 37 7 31 60 90 71 80 4 -4 11 -8 16 -8 5 -1 12 -3 17 -4 11 -3 26
-7 38 -8 22 -3 23 -46 2 -91 -12 -26 -22 -48 -22 -51 -3 -18 -40 -90 -46 -90
-5 0 -10 -10 -14 -23 -3 -12 -17 -34 -31 -49 -14 -15 -25 -32 -25 -37 0 -6
-11 -18 -25 -27 -14 -9 -25 -22 -25 -28 0 -15 -62 -76 -78 -76 -6 0 -19 -11
-28 -25 -9 -14 -22 -25 -29 -25 -7 0 -15 -7 -19 -15 -3 -8 -12 -15 -21 -15 -8
0 -15 -4 -15 -9 0 -5 -40 -30 -90 -55 -49 -26 -90 -44 -90 -40 0 3 -7 1 -15
-6 -8 -7 -15 -9 -15 -5 0 4 -6 2 -13 -4 -8 -6 -22 -12 -33 -14 -10 -1 -25 -6
-31 -10 -7 -5 -17 -6 -22 -2 -5 3 -12 1 -16 -5 -9 -15 46 -12 106 6 59 18 202
84 207 97 2 4 10 7 18 7 8 0 14 5 14 10 0 6 6 10 14 10 8 0 16 7 20 15 3 8 10
15 17 15 6 0 20 11 31 25 11 14 25 25 32 25 15 0 76 62 76 77 0 6 11 20 25 31
14 11 25 24 25 29 0 4 11 20 25 35 14 15 25 32 25 37 0 5 6 16 13 23 12 12 23
33 79 156 14 30 18 54 14 77 -8 39 -20 50 -65 60 -33 7 -33 8 -27 49 47 317
-33 597 -229 794 -41 40 -59 52 -83 52 -17 0 -35 -6 -39 -14 -8 -14 -111 -131
-168 -191 -42 -44 -85 -92 -133 -148 -23 -27 -42 -45 -42 -42 0 6 95 218 174
388 20 42 36 92 36 111 0 33 -3 36 -57 56 -114 43 -237 62 -371 58 l-122 -5
-8 30 c-4 17 -14 33 -21 35 -10 3 -12 -2 -7 -22z m26 -308 c101 -431 95 -397
74 -413 -11 -8 -24 -15 -30 -15 -7 0 -69 62 -140 138 -70 75 -162 172 -203
214 -87 89 -88 84 25 154 61 38 201 102 225 104 3 0 25 -82 49 -182z m796 -23
c154 -163 237 -369 236 -590 0 -90 -16 -205 -33 -236 -10 -19 6 -22 -203 42
-55 17 -159 49 -231 71 -71 22 -142 44 -156 49 -14 6 -34 11 -45 11 -18 2 -20
8 -16 53 4 54 -18 113 -54 139 -15 12 -7 24 87 127 57 62 111 120 119 129 8 9
41 46 74 83 32 36 71 80 86 96 16 16 36 41 45 55 10 14 22 26 28 26 6 0 35
-25 63 -55z"/>
<path d="M540 1870 c-9 -6 -10 -10 -3 -10 6 0 15 5 18 10 8 12 4 12 -15 0z"/>
<path d="M305 1730 c-3 -6 1 -7 9 -4 18 7 21 14 7 14 -6 0 -13 -4 -16 -10z"/>
<path d="M272 1703 c-7 -2 -17 -14 -23 -25 -9 -16 -8 -19 3 -12 7 5 17 9 22 9
5 0 10 8 12 18 1 9 2 17 1 16 -1 0 -8 -3 -15 -6z"/>
<path d="M184 1608 l-19 -23 23 19 c21 18 27 26 19 26 -2 0 -12 -10 -23 -22z"/>
<path d="M80 1469 c-6 -11 -10 -25 -7 -32 2 -6 11 3 19 21 18 35 6 45 -12 11z"/>
<path d="M0 1266 c0 -2 7 -7 16 -10 8 -3 12 -2 9 4 -6 10 -25 14 -25 6z"/>
<path d="M105 1230 c28 -12 37 -12 30 0 -3 6 -16 10 -28 9 -21 0 -21 -1 -2 -9z"/>
<path d="M240 1186 c0 -2 11 -6 25 -8 14 -3 25 -1 25 3 0 5 -11 9 -25 9 -14 0
-25 -2 -25 -4z"/>
<path d="M340 1160 c0 -5 5 -10 11 -10 5 0 7 5 4 10 -3 6 -8 10 -11 10 -2 0
-4 -4 -4 -10z"/>
<path d="M400 1136 c0 -2 11 -6 25 -8 13 -3 22 -1 19 3 -5 9 -44 13 -44 5z"/>
<path d="M475 1110 c28 -12 47 -12 40 0 -3 6 -18 10 -33 9 -24 0 -25 -1 -7 -9z"/>
<path d="M530 1099 c0 -5 1 -9 3 -9 1 0 17 -4 35 -9 44 -13 41 3 -3 16 -20 6
-35 7 -35 2z"/>
<path d="M40 995 c0 -8 2 -15 4 -15 2 0 6 7 10 15 3 8 1 15 -4 15 -6 0 -10 -7
-10 -15z"/>
<path d="M74 978 c-12 -19 -4 -118 16 -206 38 -159 120 -302 242 -418 69 -67
177 -141 218 -151 14 -3 63 -18 110 -34 124 -41 240 -54 358 -40 53 7 98 14
100 16 4 3 -134 602 -145 631 -2 6 -23 11 -47 11 -53 1 -117 33 -144 70 -11
16 -27 51 -35 78 l-14 50 -326 3 c-242 2 -328 -1 -333 -10z m646 -20 c0 -57
71 -168 106 -168 15 0 19 -26 5 -34 -5 -3 -11 -17 -15 -30 -3 -13 -28 -70 -55
-127 -27 -57 -69 -149 -94 -204 -71 -159 -79 -175 -98 -175 -42 0 -222 141
-299 235 -101 122 -179 324 -180 463 l0 52 315 0 c245 0 315 -3 315 -12z m231
-217 c7 -7 128 -513 132 -551 2 -21 -3 -25 -38 -31 -66 -13 -179 -10 -261 6
-93 18 -174 43 -174 55 0 4 25 60 55 124 30 63 55 117 55 120 0 2 24 55 53
117 29 63 59 129 67 147 12 32 14 33 59 26 25 -3 49 -9 52 -13z"/>
<path d="M776 905 c4 -8 8 -15 10 -15 2 0 4 7 4 15 0 8 -4 15 -10 15 -5 0 -7
-7 -4 -15z"/>
<path d="M42 885 c0 -16 2 -22 5 -12 2 9 2 23 0 30 -3 6 -5 -1 -5 -18z"/>
<path d="M51 804 c0 -11 3 -14 6 -6 3 7 2 16 -1 19 -3 4 -6 -2 -5 -13z"/>
<path d="M898 813 c7 -3 16 -2 19 1 4 3 -2 6 -13 5 -11 0 -14 -3 -6 -6z"/>
<path d="M61 760 c1 -8 5 -26 9 -40 l8 -25 1 25 c0 14 -4 32 -9 40 -9 13 -10
13 -9 0z"/>
<path d="M235 400 c3 -5 8 -10 11 -10 2 0 4 5 4 10 0 6 -5 10 -11 10 -5 0 -7
-4 -4 -10z"/>
<path d="M385 260 c3 -5 8 -10 11 -10 2 0 4 5 4 10 0 6 -5 10 -11 10 -5 0 -7
-4 -4 -10z"/>
<path d="M495 189 c11 -7 22 -13 24 -15 2 -2 -4 -10 -13 -19 -9 -9 -16 -33
-16 -55 0 -45 23 -64 106 -86 65 -17 104 -18 104 -4 0 6 -6 10 -12 9 -20 -3
-78 13 -84 22 -2 4 -11 6 -19 2 -8 -3 -15 0 -15 6 0 6 -3 10 -7 9 -5 -1 -18 1
-30 6 -16 5 -22 14 -21 32 1 13 6 24 11 24 4 0 5 5 2 10 -3 6 -2 10 3 10 11 0
23 49 13 51 -3 0 -19 3 -36 5 -27 4 -28 3 -10 -7z"/>
</g>
</svg>
