<?xml version="1.0" standalone="no"?>
<!DOCTYPE svg PUBLIC "-//W3C//DTD SVG 20010904//EN"
 "http://www.w3.org/TR/2001/REC-SVG-20010904/DTD/svg10.dtd">
<svg version="1.0" xmlns="http://www.w3.org/2000/svg"
 width="200.000000pt" height="175.000000pt" viewBox="0 0 200.000000 175.000000"
 preserveAspectRatio="xMidYMid meet">
<metadata>
Created by potrace 1.16, written by Peter Selinger 2001-2019
</metadata>
<g transform="translate(0.000000,175.000000) scale(0.100000,-0.100000)"
fill="#000000" stroke="none">
<path d="M150 1243 c0 -23 46 -99 65 -107 12 -4 15 -28 15 -131 l0 -126 48 3
c45 3 47 4 53 38 4 19 7 26 8 16 0 -11 22 -52 47 -93 l45 -73 568 0 568 0 27
40 c14 22 26 46 26 55 0 10 9 15 26 15 43 0 91 29 108 65 18 38 21 97 6 126
-6 11 -7 19 -1 19 5 0 12 -7 15 -16 4 -10 16 -14 38 -12 31 3 33 5 33 43 0 33
-4 41 -22 43 l-22 3 25 36 c13 20 24 44 24 54 0 18 -28 19 -850 19 -786 0
-850 -1 -850 -17z m1680 -7 c0 -2 -15 -27 -34 -55 -19 -27 -36 -56 -39 -63 -3
-10 -7 -10 -17 -1 -11 10 -8 20 14 53 l26 40 -781 0 -780 0 21 -30 c21 -29 21
-30 2 -30 -17 0 -50 39 -70 83 -2 4 370 7 827 7 457 0 831 -2 831 -4z m-103
-64 c-10 -10 -17 -24 -17 -31 0 -9 -5 -9 -22 0 -34 18 -129 5 -150 -22 -14
-16 -18 -17 -18 -6 0 23 -65 40 -124 34 -38 -5 -57 -13 -73 -32 l-23 -26 0 31
0 31 -92 -3 -93 -3 1 -85 c0 -51 -2 -75 -7 -60 -4 14 -8 48 -8 75 -2 68 -9 77
-61 73 -38 -3 -44 -6 -53 -33 -5 -16 -11 -37 -14 -45 -3 -9 -11 2 -22 30 -16
44 -18 45 -63 48 l-46 3 -7 -68 c-8 -85 -13 -101 -14 -45 -2 90 -44 122 -143
109 -60 -8 -79 -33 -85 -109 -5 -64 -6 -64 -34 -60 -28 4 -28 5 -31 86 l-3 81
-47 3 c-39 3 -48 0 -48 -14 0 -13 -3 -14 -15 -4 -8 7 -44 15 -80 18 -55 4 -65
8 -65 23 0 18 25 19 737 19 712 0 736 -1 720 -18z m-1328 -66 c26 -23 28 -82
4 -108 -11 -12 -30 -18 -60 -18 l-45 0 4 -36 c2 -34 0 -37 -25 -40 l-27 -3 0
116 0 115 64 -4 c45 -3 71 -10 85 -22z m103 -67 l-5 -92 47 5 c44 5 46 5 46
-21 0 -26 -1 -26 -70 -26 l-70 0 0 113 0 112 28 0 28 0 -4 -91z m273 66 c23
-22 25 -32 25 -114 l0 -90 -27 3 c-25 3 -28 7 -25 35 3 30 2 31 -37 31 -40 0
-41 -1 -41 -34 0 -32 -2 -34 -27 -32 l-27 3 2 89 c3 81 5 91 28 112 35 31 97
30 129 -3z m164 -40 c13 -36 26 -65 30 -65 3 0 15 28 26 63 18 53 24 62 47 65
29 4 32 -3 43 -113 3 -33 8 -72 11 -87 5 -24 3 -27 -23 -24 -27 3 -28 5 -31
65 -2 33 -6 61 -11 61 -4 0 -16 -28 -27 -62 -27 -85 -47 -88 -70 -11 -21 70
-34 88 -34 47 0 -16 -3 -46 -6 -66 -6 -32 -9 -36 -33 -33 -15 1 -25 8 -24 16
6 36 23 185 23 196 0 8 12 13 28 13 26 0 30 -6 51 -65z m341 40 c0 -23 -4 -25
-45 -25 -38 0 -45 -3 -45 -20 0 -17 7 -20 38 -20 34 0 38 -3 37 -22 -2 -19 -8
-23 -38 -23 -32 0 -37 -3 -37 -24 0 -22 3 -23 45 -19 43 5 45 4 45 -21 0 -26
0 -26 -72 -24 -40 1 -72 4 -70 7 1 3 2 53 2 111 l0 105 70 0 c68 0 70 -1 70
-25z m195 13 c29 -13 30 -17 12 -43 -10 -12 -16 -14 -21 -7 -11 18 -67 14 -88
-5 -22 -20 -23 -70 -1 -95 18 -20 54 -23 83 -8 15 8 21 6 30 -11 13 -23 13
-22 -17 -38 -55 -28 -133 4 -159 66 -18 41 -13 68 17 107 35 44 92 58 144 34z
m215 -3 c34 -17 60 -62 60 -100 0 -95 -127 -149 -196 -84 -49 46 -51 112 -6
163 34 37 93 46 142 21z m143 1 c3 -8 -1 -20 -9 -26 -11 -10 -14 -10 -14 1 0
12 -2 12 -9 0 -11 -17 -25 3 -17 24 7 19 42 19 49 1z m-388 -66 c3 -5 15 -10
26 -10 14 0 19 -7 19 -25 0 -18 -5 -25 -19 -25 -11 0 -23 -4 -26 -10 -14 -23
-65 4 -65 35 0 31 51 58 65 35z m-1015 -92 c-1 -28 -2 -30 -11 -15 -6 10 -8
25 -5 33 9 24 16 16 16 -18z m-5 -73 l40 -65 535 0 536 0 17 30 c10 16 25 30
33 30 19 0 18 -4 -11 -50 l-25 -40 -552 2 -551 3 -49 78 c-39 63 -45 77 -30
77 11 0 32 -24 57 -65z m297 33 l3 -33 93 -3 92 -3 1 28 1 28 11 -28 c10 -24
16 -28 47 -25 29 2 36 8 39 28 l4 25 6 -25 c7 -25 7 -25 144 -28 l137 -3 0 33
c1 28 2 30 11 15 14 -24 69 -47 112 -47 42 0 97 18 97 32 0 6 6 5 15 -2 13
-11 13 -15 -1 -41 l-15 -29 -519 0 c-509 0 -520 0 -530 20 -10 19 -8 20 105
20 l115 0 0 35 c0 46 27 49 32 3z"/>
<path d="M300 1051 c0 -26 4 -31 23 -31 57 1 66 53 9 58 -30 3 -32 1 -32 -27z"/>
<path d="M686 1078 c-9 -5 -16 -21 -16 -36 0 -24 3 -27 35 -26 43 1 49 6 41
37 -6 27 -35 39 -60 25z m34 -28 c0 -5 -7 -10 -15 -10 -8 0 -15 5 -15 10 0 6
7 10 15 10 8 0 15 -4 15 -10z"/>
<path d="M1587 1062 c-38 -42 -9 -112 46 -112 35 0 70 45 62 80 -12 49 -76 68
-108 32z m71 -14 c34 -34 -6 -90 -48 -68 -25 13 -26 55 -2 69 23 14 36 13 50
-1z"/>
<path d="M503 738 c-5 -7 -9 -35 -9 -63 l1 -50 72 -3 c62 -2 72 0 76 15 4 16
5 16 6 1 1 -16 32 -17 416 -17 l415 0 0 64 0 64 -365 -2 c-321 -1 -365 -3
-365 -17 0 -13 -1 -13 -10 0 -10 16 -38 20 -57 7 -6 -4 -14 -3 -18 3 -9 15
-150 13 -162 -2z m61 -14 c26 -10 18 -25 -9 -18 -33 8 -32 -4 1 -16 16 -7 24
-16 22 -28 -4 -20 -46 -29 -62 -12 -8 10 -5 11 17 6 34 -8 36 11 2 24 -28 11
-31 20 -13 38 14 14 20 14 42 6z m80 0 c23 -9 20 -45 -4 -51 -11 -3 -20 -12
-20 -19 0 -8 -4 -14 -10 -14 -5 0 -10 20 -10 45 0 46 8 53 44 39z m101 -83
c-4 -3 -10 1 -15 9 -8 13 -13 13 -31 2 -30 -19 -32 -11 -8 38 l21 43 19 -43
c11 -24 17 -46 14 -49z m80 39 c3 0 5 11 5 25 0 14 5 25 10 25 6 0 9 -20 8
-45 -2 -52 -8 -55 -37 -19 l-21 27 0 -27 c0 -14 -4 -26 -10 -26 -5 0 -10 21
-10 48 l1 47 24 -27 c13 -16 27 -28 30 -28z m96 0 c6 0 9 9 7 20 -2 10 1 18 7
17 11 -2 14 -77 3 -77 -4 0 -15 11 -26 25 -11 14 -22 25 -25 25 -2 0 -2 -11 1
-25 2 -15 0 -25 -7 -25 -7 0 -11 19 -11 48 l1 47 20 -27 c11 -16 25 -28 30
-28z m100 40 c21 -12 25 -50 7 -68 -7 -7 -22 -12 -35 -12 -21 0 -23 5 -23 45
0 48 11 56 51 35z m89 0 c0 -5 -7 -10 -15 -10 -8 0 -15 -4 -15 -10 0 -5 7 -10
15 -10 8 0 15 -5 15 -11 0 -6 -7 -9 -15 -5 -9 3 -15 0 -15 -9 0 -8 6 -12 14
-9 8 3 17 1 21 -5 4 -7 -5 -11 -24 -11 -30 0 -31 1 -31 45 0 41 2 45 25 45 14
0 25 -4 25 -10z m84 4 c26 -10 18 -23 -11 -21 -22 2 -29 -3 -31 -20 -3 -23 4
-27 42 -23 11 1 15 -3 12 -9 -9 -15 -49 -14 -64 1 -17 17 -15 38 5 60 18 20
23 21 47 12z m67 -8 c10 9 22 14 25 11 4 -4 -3 -15 -15 -24 l-23 -18 21 -19
c12 -11 21 -24 21 -29 0 -6 -11 0 -25 13 -21 19 -25 21 -25 7 0 -9 -4 -17 -8
-17 -4 0 -7 19 -6 43 2 51 5 58 11 34 5 -18 6 -18 24 -1z m99 4 c0 -5 -7 -10
-15 -10 -8 0 -15 -4 -15 -10 0 -5 7 -10 15 -10 8 0 15 -5 15 -10 0 -6 -6 -10
-13 -8 -7 2 -13 -1 -14 -7 -1 -5 5 -9 13 -7 8 2 14 -2 14 -8 0 -5 -11 -10 -25
-10 -23 0 -25 4 -25 45 0 41 2 45 25 45 14 0 25 -4 25 -10z m80 -17 c0 15 5
27 10 27 6 0 10 -21 10 -47 l0 -47 -30 29 -30 29 0 -27 c0 -15 -4 -27 -10 -27
-5 0 -9 20 -8 45 l2 45 28 -27 28 -27 0 27z"/>
<path d="M620 695 c0 -9 5 -15 11 -13 6 2 11 8 11 13 0 5 -5 11 -11 13 -6 2
-11 -4 -11 -13z"/>
<path d="M700 680 c0 -5 5 -10 10 -10 6 0 10 5 10 10 0 6 -4 10 -10 10 -5 0
-10 -4 -10 -10z"/>
<path d="M988 685 c-3 -14 -2 -27 1 -30 13 -8 33 13 29 30 -5 29 -25 29 -30 0z"/>
</g>
</svg>
