<?xml version="1.0" standalone="no"?>
<!DOCTYPE svg PUBLIC "-//W3C//DTD SVG 20010904//EN"
 "http://www.w3.org/TR/2001/REC-SVG-20010904/DTD/svg10.dtd">
<svg version="1.0" xmlns="http://www.w3.org/2000/svg"
 width="120.000000pt" height="120.000000pt" viewBox="0 0 120.000000 120.000000"
 preserveAspectRatio="xMidYMid meet">
<metadata>
Created by potrace 1.16, written by Peter Selinger 2001-2019
</metadata>
<g transform="translate(0.000000,120.000000) scale(0.100000,-0.100000)"
fill="#000000" stroke="none">
<path d="M5 600 c0 -457 2 -519 15 -515 46 14 560 125 578 125 17 0 472 -99
572 -125 l25 -6 0 521 0 520 -595 0 -595 0 0 -520z m1165 9 l0 -491 -22 5
c-13 3 -33 8 -45 11 -35 9 -63 15 -128 27 -33 6 -114 24 -180 39 -198 47 -184
47 -440 -10 -126 -28 -240 -52 -253 -54 -12 -1 -25 -6 -29 -9 -3 -4 -16 -7
-29 -7 l-22 0 -1 490 0 490 575 0 574 0 0 -491z"/>
<path d="M388 944 c-5 -4 -8 -128 -8 -276 l0 -269 83 3 82 3 3 80 c2 54 6 75
12 65 7 -10 10 -11 10 -2 0 8 18 12 55 12 31 0 70 6 88 14 71 29 114 117 103
209 -7 66 -34 107 -86 137 -40 22 -59 24 -190 28 -80 2 -148 1 -152 -4z m293
-35 c99 -34 140 -149 86 -243 -33 -60 -76 -80 -169 -81 l-78 0 0 -80 0 -80
-57 1 -58 2 -3 246 -2 246 123 0 c68 0 139 -5 158 -11z"/>
<path d="M525 811 c-3 -2 -5 -31 -5 -63 l0 -58 53 0 c68 0 97 19 97 65 0 19
-6 37 -12 42 -15 9 -127 21 -133 14z m101 -35 c28 -22 7 -50 -40 -54 -35 -3
-36 -2 -36 32 0 33 3 36 28 36 16 0 37 -6 48 -14z"/>
</g>
</svg>
