<?xml version="1.0" standalone="no"?>
<!DOCTYPE svg PUBLIC "-//W3C//DTD SVG 20010904//EN"
 "http://www.w3.org/TR/2001/REC-SVG-20010904/DTD/svg10.dtd">
<svg version="1.0" xmlns="http://www.w3.org/2000/svg"
 width="96.000000pt" height="96.000000pt" viewBox="0 0 96.000000 96.000000"
 preserveAspectRatio="xMidYMid meet">
<metadata>
Created by potrace 1.16, written by Peter Selinger 2001-2019
</metadata>
<g transform="translate(0.000000,96.000000) scale(0.100000,-0.100000)"
fill="#000000" stroke="none">
<path d="M431 944 c0 -11 3 -14 6 -6 3 7 2 16 -1 19 -3 4 -6 -2 -5 -13z"/>
<path d="M474 933 c3 -16 7 -82 11 -148 14 -305 11 -294 83 -310 26 -5 32 -4
32 10 0 13 -6 16 -25 13 -19 -4 -25 -1 -25 13 0 14 7 19 28 18 l27 -1 -25 -8
-25 -8 26 -1 26 -1 7 118 c4 64 9 165 13 224 l6 108 -48 -15 c-42 -12 -52 -12
-76 1 -38 19 -41 18 -35 -13z m47 -33 c1 -16 2 -38 2 -47 1 -10 6 -21 12 -25
6 -5 5 -8 -3 -8 -10 0 -12 -24 -10 -110 2 -60 0 -110 -4 -110 -4 0 -8 24 -9
53 0 28 -2 103 -4 165 -2 65 0 112 6 112 5 0 10 -13 10 -30z m87 23 c-10 -2
-26 -2 -35 0 -10 3 -2 5 17 5 19 0 27 -2 18 -5z m2 -23 c0 -5 -12 -10 -27 -9
l-28 1 25 8 c14 4 26 8 28 9 1 1 2 -3 2 -9z m0 -39 c0 -4 -11 -6 -25 -3 -14 2
-25 6 -25 8 0 2 11 4 25 4 14 0 25 -4 25 -9z m-7 -28 c-7 -2 -21 -2 -30 0 -10
3 -4 5 12 5 17 0 24 -2 18 -5z m7 -29 c0 -2 -11 -4 -25 -4 -14 0 -25 4 -25 9
0 4 11 6 25 3 14 -2 25 -6 25 -8z m-7 -31 c-7 -2 -21 -2 -30 0 -10 3 -4 5 12
5 17 0 24 -2 18 -5z m7 -29 c0 -2 -11 -4 -25 -4 -14 0 -25 4 -25 9 0 4 11 6
25 3 14 -2 25 -6 25 -8z m-5 -24 c-3 -5 -12 -7 -20 -3 -8 3 -15 0 -15 -5 0 -6
8 -13 18 -15 13 -4 11 -5 -5 -6 -17 -1 -23 5 -23 19 0 15 7 20 26 20 14 0 23
-4 19 -10z m-17 -47 c-10 -2 -18 -9 -18 -15 0 -5 7 -8 15 -4 8 3 15 1 15 -4 0
-6 -11 -10 -25 -10 -14 0 -25 6 -25 13 0 19 10 27 34 26 17 -1 18 -2 4 -6z
m-3 -53 c-17 -7 -17 -9 -2 -9 25 -1 21 -21 -5 -22 -22 -1 -22 -1 2 -9 l25 -8
-27 -1 c-25 -1 -28 3 -28 29 0 26 3 30 28 29 24 0 25 -1 7 -9z m-55 -45 c0 -8
-4 -15 -10 -15 -5 0 -10 7 -10 15 0 8 5 15 10 15 6 0 10 -7 10 -15z m70 -27
c0 -4 -11 -8 -25 -8 -14 0 -25 4 -25 10 0 5 11 9 25 8 14 -1 25 -6 25 -10z
m-70 -23 c0 -14 -4 -25 -8 -25 -4 0 -9 11 -10 25 -1 14 3 25 8 25 6 0 10 -11
10 -25z"/>
<path d="M165 869 c-4 -6 -4 -13 -1 -16 3 -4 6 -1 6 6 0 8 8 11 20 8 11 -3 20
-1 20 4 0 13 -37 11 -45 -2z"/>
<path d="M235 870 c-8 -13 9 -20 24 -11 10 6 9 10 -3 14 -8 3 -18 2 -21 -3z"/>
<path d="M317 855 c-88 -22 -138 -96 -118 -172 16 -60 65 -127 123 -171 186
-141 425 -160 498 -40 26 44 25 82 -5 147 -31 65 -43 62 -19 -6 16 -46 16 -50
0 -85 -45 -94 -198 -103 -360 -21 -98 50 -186 157 -186 227 0 54 46 106 95
106 13 0 31 18 24 24 -2 2 -26 -2 -52 -9z m-90 -157 c-3 -8 -6 -5 -6 6 -1 11
2 17 5 13 3 -3 4 -12 1 -19z m548 -248 c-3 -5 -12 -10 -18 -10 -7 0 -6 4 3 10
19 12 23 12 15 0z m-50 -20 c-11 -5 -27 -9 -35 -9 -9 0 -8 4 5 9 11 5 27 9 35
9 9 0 8 -4 -5 -9z m-117 -7 c-10 -2 -26 -2 -35 0 -10 3 -2 5 17 5 19 0 27 -2
18 -5z m57 -3 c-3 -5 -12 -7 -20 -3 -21 7 -19 13 6 13 11 0 18 -4 14 -10z"/>
<path d="M410 860 c-12 -8 -11 -10 8 -10 12 0 22 5 22 10 0 13 -11 13 -30 0z"/>
<path d="M175 840 c-3 -6 1 -7 9 -4 18 7 21 14 7 14 -6 0 -13 -4 -16 -10z"/>
<path d="M169 808 c-3 -16 -7 -59 -5 -57 16 18 25 49 16 54 -5 3 -10 5 -11 3z"/>
<path d="M330 804 c0 -5 7 -41 15 -79 9 -39 19 -89 24 -113 5 -24 10 -44 12
-46 19 -14 78 -46 85 -46 6 0 4 44 -3 103 -6 56 -12 121 -12 145 -1 41 -2 42
-28 35 -34 -8 -53 -8 -75 2 -10 4 -18 3 -18 -1z m46 -97 c6 -56 -11 -28 -20
33 -5 35 -4 41 4 27 6 -9 13 -36 16 -60z m66 -34 c16 -120 10 -165 -8 -63 -21
112 -26 170 -16 170 5 0 16 -48 24 -107z m-52 -15 c14 -90 10 -104 -8 -35 -6
22 -7 37 -1 37 5 0 9 -1 9 -2z"/>
<path d="M690 789 c0 -5 5 -7 10 -4 6 3 10 8 10 11 0 2 -4 4 -10 4 -5 0 -10
-5 -10 -11z"/>
<path d="M291 764 c0 -11 3 -14 6 -6 3 7 2 16 -1 19 -3 4 -6 -2 -5 -13z"/>
<path d="M645 678 c-4 -51 -5 -106 -3 -123 2 -16 7 21 12 83 5 62 11 110 15
107 5 -6 3 -116 -4 -153 -2 -9 -4 -32 -4 -50 -1 -19 -5 -31 -11 -27 -5 3 -10
1 -10 -4 0 -6 5 -11 12 -11 6 0 3 -7 -8 -15 -18 -13 -16 -14 21 -14 22 1 32 3
22 6 -15 4 -17 12 -12 51 4 26 9 61 12 77 4 17 6 38 4 47 -1 11 8 23 23 30 14
6 26 15 26 20 0 12 -14 10 -28 -4 -9 -9 -12 -7 -12 11 0 18 4 22 19 18 12 -3
22 1 26 11 13 36 14 0 1 -64 -8 -38 -17 -86 -20 -108 -7 -45 -14 -58 -27 -51
-5 4 -9 -1 -9 -10 0 -28 33 -12 42 20 15 50 49 237 45 241 -2 2 -18 -1 -36 -7
-24 -9 -39 -9 -57 0 -14 6 -27 11 -29 11 -2 0 -6 -42 -10 -92z"/>
<path d="M161 714 c0 -11 3 -14 6 -6 3 7 2 16 -1 19 -3 4 -6 -2 -5 -13z"/>
<path d="M810 694 c0 -6 8 -18 18 -27 14 -13 20 -13 35 -3 16 13 16 14 0 27
-15 12 -16 12 -10 -3 4 -12 2 -18 -8 -18 -8 0 -19 8 -24 18 -6 9 -11 12 -11 6z"/>
<path d="M710 660 c0 -5 5 -10 10 -10 6 0 10 5 10 10 0 6 -4 10 -10 10 -5 0
-10 -4 -10 -10z"/>
<path d="M857 620 c-3 -11 -1 -20 4 -20 5 0 9 9 9 20 0 11 -2 20 -4 20 -2 0
-6 -9 -9 -20z"/>
<path d="M167 623 c-4 -3 -7 -13 -7 -22 1 -13 3 -13 11 2 11 19 8 33 -4 20z"/>
<path d="M700 620 c0 -5 5 -10 10 -10 6 0 10 5 10 10 0 6 -4 10 -10 10 -5 0
-10 -4 -10 -10z"/>
<path d="M177 580 c-3 -11 -3 -20 -1 -20 2 0 8 9 14 20 6 11 7 20 2 20 -6 0
-12 -9 -15 -20z"/>
<path d="M695 580 c-3 -5 1 -10 9 -10 9 0 16 5 16 10 0 6 -4 10 -9 10 -6 0
-13 -4 -16 -10z"/>
<path d="M696 551 c-4 -7 -5 -15 -2 -18 9 -9 19 4 14 18 -4 11 -6 11 -12 0z"/>
<path d="M860 499 c0 -5 5 -7 10 -4 6 3 10 8 10 11 0 2 -4 4 -10 4 -5 0 -10
-5 -10 -11z"/>
<path d="M240 490 c0 -5 5 -10 10 -10 6 0 10 5 10 10 0 6 -4 10 -10 10 -5 0
-10 -4 -10 -10z"/>
<path d="M320 450 c0 -5 5 -10 11 -10 5 0 7 5 4 10 -3 6 -8 10 -11 10 -2 0 -4
-4 -4 -10z"/>
<path d="M344 426 c-9 -10 -4 -12 22 -12 37 2 51 10 33 22 -8 4 -10 3 -5 -4 9
-14 1 -15 -22 -3 -11 6 -21 5 -28 -3z"/>
<path d="M855 415 c7 -31 12 -41 19 -34 2 2 -3 18 -11 34 l-14 30 6 -30z"/>
<path d="M238 413 c7 -3 16 -2 19 1 4 3 -2 6 -13 5 -11 0 -14 -3 -6 -6z"/>
<path d="M105 380 c-3 -5 -2 -10 4 -10 5 0 13 5 16 10 3 6 2 10 -4 10 -5 0
-13 -4 -16 -10z"/>
<path d="M320 375 c-11 -13 -10 -14 4 -9 9 3 16 10 16 15 0 13 -6 11 -20 -6z"/>
<path d="M142 314 c-7 -36 -10 -70 -7 -75 11 -17 25 -9 25 15 0 19 6 25 27 28
21 2 29 10 36 35 13 46 4 63 -35 63 -33 0 -34 -1 -46 -66z m68 22 c0 -20 -26
-40 -35 -26 -10 16 2 40 20 40 8 0 15 -6 15 -14z"/>
<path d="M241 314 c-15 -72 -9 -86 32 -78 33 6 40 28 11 32 -28 4 -28 8 -8 86
4 19 2 26 -8 26 -10 0 -19 -22 -27 -66z"/>
<path d="M361 362 c-17 -32 -51 -126 -46 -130 2 -2 12 6 22 17 22 27 39 27 46
0 11 -41 24 -9 26 61 2 64 0 70 -18 70 -11 0 -25 -8 -30 -18z m29 -41 c0 -19
-17 -38 -25 -29 -7 7 7 48 16 48 5 0 9 -9 9 -19z"/>
<path d="M433 313 c-6 -37 -7 -72 -2 -77 9 -10 13 -2 26 64 l9 45 8 -56 c6
-48 10 -56 25 -52 13 3 20 18 25 49 3 24 8 55 12 69 5 19 2 25 -10 25 -12 0
-16 -9 -16 -34 0 -48 -18 -55 -22 -9 -2 30 -8 39 -24 41 -18 3 -22 -5 -31 -65z"/>
<path d="M549 310 c-9 -39 -12 -73 -7 -76 17 -10 28 8 28 46 0 21 5 42 10 45
6 4 10 -11 10 -39 0 -47 8 -60 29 -47 12 8 44 131 36 139 -8 9 -25 -10 -25
-28 0 -10 -3 -27 -7 -37 -6 -13 -9 -8 -13 22 -4 30 -10 41 -25 43 -17 2 -22
-7 -36 -68z"/>
<path d="M681 366 c-19 -23 -27 -116 -10 -127 26 -17 59 -11 59 11 0 13 -7 20
-20 20 -21 0 -25 16 -14 56 4 15 12 20 28 17 17 -4 25 1 29 16 4 18 1 21 -28
21 -18 0 -38 -6 -44 -14z"/>
<path d="M770 365 c-18 -21 -26 -115 -11 -124 6 -4 25 -6 41 -3 26 4 30 9 40
59 7 30 9 61 6 69 -7 19 -60 18 -76 -1z m44 -52 c-3 -21 -10 -42 -14 -47 -14
-15 -27 3 -23 31 7 45 12 53 28 53 13 0 15 -7 9 -37z"/>
<path d="M86 315 c4 -8 8 -15 10 -15 2 0 4 7 4 15 0 8 -4 15 -10 15 -5 0 -7
-7 -4 -15z"/>
<path d="M81 254 c0 -11 3 -14 6 -6 3 7 2 16 -1 19 -3 4 -6 -2 -5 -13z"/>
<path d="M856 242 c-3 -5 1 -9 9 -9 8 0 12 4 9 9 -3 4 -7 8 -9 8 -2 0 -6 -4
-9 -8z"/>
<path d="M15 176 c-13 -19 -14 -28 -4 -50 l12 -26 459 0 458 0 0 50 0 50 -455
0 -455 0 -15 -24z m45 -6 c0 -7 6 -8 16 -2 17 10 51 5 70 -9 5 -5 20 -6 32 -2
16 4 22 1 22 -10 0 -22 -16 -30 -38 -18 -13 7 -22 7 -30 -1 -9 -9 -12 -6 -13
13 l0 24 -11 -25 c-11 -24 -12 -24 -15 -3 -3 14 -11 21 -24 20 -21 -1 -25 -13
-6 -20 7 -2 8 -8 3 -13 -5 -5 -11 -4 -13 4 -3 6 -9 9 -15 6 -6 -4 -6 1 1 13 6
11 7 23 4 27 -3 3 -1 6 5 6 7 0 12 -5 12 -10z m248 -11 c39 10 57 7 54 -9 -2
-10 0 -11 10 -3 7 6 20 10 28 10 8 1 23 4 33 8 14 6 17 2 17 -19 0 -26 -22
-36 -35 -16 -4 6 -12 7 -18 3 -7 -4 -24 -8 -39 -9 -20 -2 -28 2 -28 14 0 14
-2 15 -10 2 -5 -9 -27 -15 -54 -16 -42 -2 -46 0 -46 21 0 18 6 24 28 27 15 2
28 -2 30 -9 2 -7 13 -9 30 -4z m323 -2 c15 4 19 0 19 -17 0 -16 -4 -20 -16
-16 -9 3 -20 6 -25 6 -5 0 -8 12 -8 28 1 15 3 20 6 11 3 -11 11 -15 24 -12z
m223 1 c-5 -8 -1 -9 10 -5 23 9 37 0 30 -18 -4 -10 -15 -12 -35 -8 -17 3 -35
0 -44 -7 -12 -10 -15 -9 -15 6 0 15 -2 16 -9 5 -8 -12 -12 -12 -24 -2 -11 9
-17 9 -22 1 -5 -8 -11 -8 -17 -2 -19 19 2 30 57 28 40 -1 55 2 55 12 0 7 5 10
10 7 6 -4 7 -11 4 -17z m-348 -5 c8 -11 13 -13 14 -5 0 6 7 12 15 12 8 0 15
-8 14 -17 0 -13 -2 -14 -6 -4 -5 11 -7 11 -14 0 -4 -8 -21 -14 -38 -15 -28 -1
-29 0 -19 22 13 29 17 29 34 7z m208 9 c3 -5 -4 -16 -15 -25 -10 -9 -19 -16
-20 -14 -10 33 -7 47 10 47 11 0 22 -4 25 -8z m-126 -24 c-2 -13 -7 -23 -13
-23 -5 0 -11 10 -13 23 -2 15 2 22 13 22 11 0 15 -7 13 -22z"/>
<path d="M255 150 c3 -5 8 -10 11 -10 2 0 4 5 4 10 0 6 -5 10 -11 10 -5 0 -7
-4 -4 -10z"/>
<path d="M85 50 c-3 -5 -3 -15 1 -22 4 -6 3 -8 -3 -5 -6 4 -16 1 -22 -7 -9
-10 -5 -13 19 -12 24 1 30 5 30 23 0 24 -15 39 -25 23z"/>
<path d="M127 40 c-10 -36 -8 -47 3 -30 9 13 11 13 19 0 12 -18 18 -13 26 25
6 26 5 28 -7 13 -13 -15 -15 -15 -24 0 -9 14 -11 13 -17 -8z"/>
<path d="M206 35 c-8 -29 -7 -35 4 -35 6 0 10 9 10 19 0 10 6 19 13 18 31 -1
48 4 42 13 -11 17 -64 6 -69 -15z"/>
<path d="M290 40 c-13 -25 -5 -40 20 -40 25 0 43 33 28 48 -18 18 -36 14 -48
-8z m38 -12 c-6 -18 -28 -21 -28 -4 0 9 7 16 16 16 9 0 14 -5 12 -12z"/>
<path d="M383 53 c-7 -3 -13 -11 -13 -19 0 -8 6 -14 13 -14 8 0 7 -4 -3 -11
-12 -8 -12 -10 5 -7 21 3 33 35 18 48 -4 4 -14 5 -20 3z"/>
<path d="M427 53 c-13 -13 -7 -53 8 -53 8 0 15 5 15 12 0 9 3 9 12 0 17 -17
26 -15 37 6 14 26 -2 50 -22 33 -10 -8 -17 -9 -22 -1 -7 12 -19 13 -28 3z m17
-28 c-4 -8 -8 -15 -10 -15 -2 0 -4 7 -4 15 0 8 4 15 10 15 5 0 7 -7 4 -15z
m42 -12 c-10 -10 -19 5 -10 18 6 11 8 11 12 0 2 -7 1 -15 -2 -18z"/>
<path d="M529 58 c-7 -15 -6 -58 2 -58 5 0 9 6 9 14 0 8 3 21 6 30 3 9 1 16
-5 16 -6 0 -12 -1 -12 -2z"/>
<path d="M595 50 c-3 -5 -1 -10 6 -10 7 0 5 -8 -6 -20 -18 -19 -17 -20 1 -20
14 0 20 8 22 25 2 26 -12 42 -23 25z"/>
<path d="M643 49 c-7 -7 -13 -21 -13 -30 0 -14 8 -17 37 -16 42 3 65 29 45 49
-11 11 -16 10 -26 -4 -10 -14 -13 -15 -22 -2 -7 12 -11 13 -21 3z m17 -18 c0
-6 -4 -13 -10 -16 -5 -3 -10 1 -10 9 0 9 5 16 10 16 6 0 10 -4 10 -9z m37 -13
c-3 -8 -6 -5 -6 6 -1 11 2 17 5 13 3 -3 4 -12 1 -19z"/>
<path d="M730 34 c-13 -33 -13 -34 5 -34 16 0 36 39 28 53 -9 15 -24 6 -33
-19z"/>
<path d="M800 45 c-7 -8 -10 -22 -6 -30 6 -17 32 -20 41 -5 3 6 -1 7 -9 4 -11
-4 -16 0 -16 10 0 9 8 16 21 16 11 0 17 4 14 10 -9 15 -31 12 -45 -5z"/>
<path d="M5 39 c-4 -6 -5 -12 -2 -15 2 -3 7 2 10 11 7 17 1 20 -8 4z"/>
<path d="M857 33 c-14 -13 -6 -33 12 -33 16 0 31 18 31 36 0 7 -36 5 -43 -3z
m23 -13 c0 -5 -5 -10 -11 -10 -5 0 -7 5 -4 10 3 6 8 10 11 10 2 0 4 -4 4 -10z"/>
<path d="M256 18 c5 -8 2 -9 -9 -5 -10 3 -17 2 -17 -3 0 -6 9 -10 20 -10 11 0
20 7 20 15 0 8 -5 15 -11 15 -5 0 -7 -5 -3 -12z"/>
<path d="M15 10 c-3 -6 1 -7 9 -4 18 7 21 14 7 14 -6 0 -13 -4 -16 -10z"/>
</g>
</svg>
