<?xml version="1.0" standalone="no"?>
<!DOCTYPE svg PUBLIC "-//W3C//DTD SVG 20010904//EN"
 "http://www.w3.org/TR/2001/REC-SVG-20010904/DTD/svg10.dtd">
<svg version="1.0" xmlns="http://www.w3.org/2000/svg"
 width="192.000000pt" height="192.000000pt" viewBox="0 0 192.000000 192.000000"
 preserveAspectRatio="xMidYMid meet">
<metadata>
Created by potrace 1.16, written by Peter Selinger 2001-2019
</metadata>
<g transform="translate(0.000000,192.000000) scale(0.100000,-0.100000)"
fill="#000000" stroke="none">
<path d="M401 1728 l-51 -92 0 -183 0 -183 200 0 200 0 18 38 c10 21 61 116
113 212 l94 173 5 -64 c4 -55 16 -85 80 -211 l75 -148 318 0 317 0 0 27 c0 15
-18 57 -40 95 -23 37 -55 94 -73 126 -18 32 -63 113 -102 180 l-70 122 -207
-2 -207 -3 -29 -28 -29 -27 5 30 4 30 -285 0 -285 0 -51 -92z m548 -25 c-29
-54 -74 -138 -101 -186 -27 -48 -64 -119 -84 -157 l-35 -70 -180 0 -179 0 0
163 0 163 51 92 51 92 265 0 264 0 -52 -97z m586 -26 c39 -67 84 -147 102
-179 18 -32 50 -89 73 -126 22 -38 40 -71 40 -75 0 -4 -134 -7 -297 -7 l-298
0 -77 153 c-80 159 -90 194 -67 254 12 33 56 82 84 93 11 5 99 9 195 9 l175 0
70 -122z"/>
<path d="M174 1333 c-31 -54 -83 -144 -116 -200 -35 -59 -58 -111 -56 -123 2
-16 21 10 69 92 37 62 93 158 125 213 l59 100 3 -227 c1 -126 1 -330 0 -455
l-3 -228 -62 103 c-35 57 -63 105 -63 108 0 3 -28 53 -62 110 -46 77 -64 99
-66 84 -2 -13 20 -60 52 -115 31 -51 56 -96 56 -99 0 -3 27 -50 61 -106 50
-83 65 -100 85 -100 l24 0 0 470 0 470 -25 0 c-20 0 -34 -16 -81 -97z"/>
<path d="M350 960 l0 -250 743 0 742 0 43 75 c24 41 42 84 40 96 -2 15 -16 -1
-53 -65 l-50 -86 -722 0 -723 0 0 230 0 230 723 0 722 0 50 -86 c37 -64 51
-80 53 -65 2 12 -16 55 -40 96 l-43 75 -742 0 -743 0 0 -250z"/>
<path d="M350 467 l0 -183 51 -92 51 -92 285 0 285 0 -4 30 -5 30 29 -27 29
-28 207 -3 207 -2 41 72 c22 40 86 152 142 249 59 101 102 188 102 203 l0 26
-318 0 -317 0 -75 -147 c-63 -125 -75 -158 -80 -212 l-5 -64 -94 173 c-52 96
-103 191 -113 212 l-18 38 -200 0 -200 0 0 -183z m414 93 c20 -38 57 -109 84
-157 27 -48 72 -132 101 -186 l52 -97 -264 0 -265 0 -51 92 -51 92 0 163 0
163 179 0 180 0 35 -70z m983 56 c-3 -7 -49 -89 -103 -182 -54 -93 -116 -202
-138 -242 l-41 -73 -187 3 -187 3 -31 30 c-38 36 -60 85 -60 131 0 22 27 88
77 189 l78 155 298 0 c249 0 298 -2 294 -14z m-753 -412 c3 -8 2 -12 -4 -9 -6
3 -10 10 -10 16 0 14 7 11 14 -7z"/>
</g>
</svg>
