<?xml version="1.0" standalone="no"?>
<!DOCTYPE svg PUBLIC "-//W3C//DTD SVG 20010904//EN"
 "http://www.w3.org/TR/2001/REC-SVG-20010904/DTD/svg10.dtd">
<svg version="1.0" xmlns="http://www.w3.org/2000/svg"
 width="192.000000pt" height="192.000000pt" viewBox="0 0 192.000000 192.000000"
 preserveAspectRatio="xMidYMid meet">
<metadata>
Created by potrace 1.16, written by Peter Selinger 2001-2019
</metadata>
<g transform="translate(0.000000,192.000000) scale(0.100000,-0.100000)"
fill="#000000" stroke="none">
<path d="M333 1913 c-7 -2 -13 -11 -13 -19 0 -8 -7 -14 -15 -14 -9 0 -15 -9
-15 -25 0 -14 -4 -25 -10 -25 -5 0 -10 -11 -10 -25 0 -16 -6 -25 -15 -25 -13
0 -15 -35 -15 -255 l0 -255 245 0 c240 0 245 0 245 20 0 11 7 23 15 26 8 4 15
17 15 30 0 13 5 24 10 24 6 0 10 11 10 25 0 16 6 25 15 25 9 0 15 9 15 21 0
12 11 32 25 45 14 13 25 32 25 42 0 11 7 22 15 26 8 3 15 15 15 26 0 11 5 20
10 20 6 0 10 11 10 25 0 14 2 25 5 25 13 0 45 -42 45 -60 0 -11 5 -20 10 -20
6 0 10 -11 10 -25 0 -16 6 -25 15 -25 9 0 15 -9 15 -25 0 -14 5 -25 10 -25 6
0 10 -11 10 -25 0 -16 6 -25 15 -25 9 0 15 -9 15 -25 0 -16 6 -25 15 -25 9 0
15 -9 15 -24 0 -14 5 -28 10 -31 6 -3 10 -15 10 -26 0 -18 11 -19 385 -19
l385 0 0 65 c0 37 -4 65 -10 65 -5 0 -10 11 -10 25 0 16 -6 25 -15 25 -9 0
-15 9 -15 21 0 22 -22 49 -39 49 -6 0 -11 14 -11 30 0 17 -4 30 -10 30 -5 0
-10 6 -10 13 0 18 -34 57 -49 57 -6 0 -11 11 -11 25 0 14 -4 25 -10 25 -5 0
-10 11 -10 25 0 14 -7 28 -15 31 -8 4 -15 15 -15 26 0 21 -22 48 -39 48 -6 0
-11 11 -11 25 0 14 -4 25 -10 25 -5 0 -10 9 -10 20 0 15 -6 20 -27 19 -17 -1
-21 -3 -10 -6 10 -3 17 -14 17 -29 0 -13 5 -24 10 -24 6 0 10 -11 10 -25 0
-14 5 -25 11 -25 17 0 39 -27 39 -48 0 -11 7 -22 15 -26 8 -3 15 -17 15 -31 0
-14 5 -25 10 -25 6 0 10 -11 10 -25 0 -14 5 -25 11 -25 15 0 49 -39 49 -57 0
-7 5 -13 10 -13 6 0 10 -13 10 -30 0 -16 5 -30 11 -30 17 0 39 -27 39 -49 0
-12 6 -21 15 -21 9 0 15 -9 15 -25 0 -14 5 -25 10 -25 6 0 10 -20 10 -45 l0
-45 -365 0 c-355 0 -365 1 -365 19 0 11 -4 23 -10 26 -5 3 -10 17 -10 31 0 15
-6 24 -15 24 -9 0 -15 9 -15 25 0 16 -6 25 -15 25 -9 0 -15 9 -15 25 0 14 -4
25 -10 25 -5 0 -10 11 -10 25 0 16 -6 25 -15 25 -9 0 -15 9 -15 25 0 14 -4 25
-10 25 -5 0 -10 11 -10 24 0 13 -7 27 -16 30 -20 8 -16 111 5 111 7 0 20 18
29 40 9 22 22 46 29 53 6 7 10 19 7 27 -4 8 -2 15 4 15 5 0 12 7 16 15 3 10
-1 15 -13 15 -14 0 -21 -10 -25 -35 -4 -19 -11 -35 -16 -35 -5 0 -14 -16 -20
-36 -7 -19 -18 -38 -26 -41 -8 -3 -14 -16 -14 -29 0 -13 -4 -24 -10 -24 -5 0
-10 -11 -10 -25 0 -16 -6 -25 -15 -25 -9 0 -15 -9 -15 -25 0 -14 -4 -25 -10
-25 -5 0 -10 -9 -10 -20 0 -11 -7 -23 -15 -26 -8 -4 -15 -15 -15 -26 0 -10
-11 -29 -25 -42 -14 -13 -25 -33 -25 -45 0 -12 -6 -21 -15 -21 -9 0 -15 -9
-15 -25 0 -14 -4 -25 -10 -25 -5 0 -10 -11 -10 -24 0 -13 -7 -26 -15 -30 -8
-3 -15 -15 -15 -26 0 -20 -6 -20 -225 -20 l-225 0 0 235 c0 202 2 235 15 235
9 0 15 9 15 25 0 14 5 25 10 25 6 0 10 11 10 25 0 16 6 25 15 25 8 0 15 7 15
15 0 8 5 15 10 15 6 0 10 7 10 15 0 15 -6 17 -27 8z"/>
<path d="M78 1481 c-10 -10 -18 -27 -18 -39 0 -12 -4 -22 -10 -22 -5 0 -10
-11 -10 -25 0 -15 -6 -25 -14 -25 -13 0 -26 -28 -26 -58 0 -10 3 -10 15 2 8 8
15 19 15 25 0 6 7 11 15 11 9 0 15 9 15 25 0 14 5 25 10 25 6 0 10 10 10 23 0
28 33 57 65 57 l25 0 0 -530 0 -530 -30 0 c-20 0 -30 5 -30 15 0 9 -11 26 -25
39 -14 13 -25 33 -25 45 0 12 -6 21 -15 21 -9 0 -15 9 -15 24 0 23 -16 44 -25
34 -10 -10 9 -78 21 -78 8 0 14 -10 14 -21 0 -12 11 -32 25 -45 14 -13 25 -30
25 -39 0 -11 12 -15 50 -15 l50 0 0 550 0 550 -47 -1 c-32 0 -54 -6 -65 -18z"/>
<path d="M240 945 l0 -295 840 0 c553 0 840 3 840 10 0 7 -283 10 -830 10
l-830 0 0 275 0 275 830 0 c547 0 830 3 830 10 0 7 -287 10 -840 10 l-840 0 0
-295z"/>
<path d="M240 376 l0 -253 25 -19 c14 -10 25 -29 25 -41 0 -14 6 -23 15 -23 8
0 15 -9 15 -20 0 -14 6 -20 23 -19 12 0 16 3 10 6 -7 2 -13 16 -13 29 0 15 -6
24 -15 24 -9 0 -15 9 -15 23 0 12 -11 31 -25 41 l-25 19 0 233 0 234 225 0
c193 0 225 -2 225 -15 0 -8 7 -15 15 -15 9 0 15 -9 15 -25 0 -14 5 -25 10 -25
6 0 10 -11 10 -25 0 -16 6 -25 15 -25 9 0 15 -9 15 -25 0 -14 5 -25 10 -25 6
0 10 -11 10 -25 0 -16 6 -25 15 -25 9 0 15 -9 15 -24 0 -13 7 -26 15 -30 8 -3
15 -15 15 -26 0 -11 5 -20 10 -20 6 0 10 -6 10 -14 0 -8 7 -16 15 -20 8 -3 15
-15 15 -26 0 -11 5 -20 10 -20 6 0 10 -11 10 -24 0 -13 7 -26 15 -30 8 -3 15
-12 15 -21 0 -14 10 -37 32 -75 5 -8 11 -23 14 -33 4 -9 14 -17 23 -16 10 0
11 2 4 6 -7 2 -13 16 -13 29 0 13 -4 24 -10 24 -5 0 -10 7 -10 16 0 8 -7 22
-15 31 -9 8 -13 23 -10 33 4 12 -1 19 -15 23 -16 4 -20 13 -20 46 0 30 4 41
15 41 11 0 15 11 15 40 0 22 5 40 10 40 6 0 10 11 10 25 0 16 6 25 15 25 9 0
15 9 15 25 0 14 4 25 10 25 5 0 12 11 16 25 3 14 10 25 15 25 5 0 9 11 9 25 0
16 6 25 15 25 9 0 15 9 15 25 0 14 5 25 10 25 6 0 10 7 10 15 0 13 47 15 365
15 l365 0 0 -35 c0 -19 -4 -35 -10 -35 -5 0 -10 -11 -10 -25 0 -16 -6 -25 -15
-25 -9 0 -15 -9 -15 -25 0 -14 -4 -25 -10 -25 -5 0 -10 -11 -10 -25 0 -16 -6
-25 -15 -25 -8 0 -15 -7 -15 -15 0 -8 -4 -15 -10 -15 -5 0 -10 -9 -10 -20 0
-11 -7 -23 -15 -26 -8 -4 -15 -17 -15 -30 0 -15 -6 -24 -15 -24 -9 0 -15 -9
-15 -25 0 -14 -4 -25 -10 -25 -5 0 -10 -7 -10 -15 0 -8 -7 -15 -15 -15 -9 0
-15 -9 -15 -25 0 -14 -4 -25 -10 -25 -5 0 -10 -9 -10 -20 0 -11 -7 -23 -15
-26 -8 -4 -15 -15 -15 -26 0 -11 -7 -26 -15 -35 -20 -19 -13 -27 14 -18 13 4
21 15 21 30 0 12 7 25 15 29 8 3 15 15 15 26 0 11 5 20 10 20 6 0 10 11 10 25
0 16 6 25 15 25 8 0 15 7 15 15 0 8 5 15 10 15 6 0 10 11 10 25 0 16 6 25 15
25 9 0 15 9 15 24 0 13 7 26 15 30 8 3 15 15 15 26 0 11 5 20 10 20 6 0 10 7
10 15 0 8 7 15 15 15 9 0 15 9 15 25 0 14 5 25 10 25 6 0 10 11 10 25 0 16 6
25 15 25 9 0 15 9 15 25 0 14 5 25 10 25 6 0 10 25 10 55 l0 55 -385 0 c-336
0 -385 -2 -385 -15 0 -8 -4 -15 -10 -15 -5 0 -10 -11 -10 -25 0 -16 -6 -25
-15 -25 -9 0 -15 -9 -15 -25 0 -14 -4 -25 -9 -25 -5 0 -12 -11 -15 -25 -4 -14
-11 -25 -16 -25 -6 0 -10 -11 -10 -25 0 -16 -6 -25 -15 -25 -9 0 -15 -9 -15
-25 0 -14 -4 -25 -10 -25 -5 0 -10 -18 -10 -40 0 -36 -2 -40 -25 -40 -16 0
-25 6 -25 15 0 8 -4 15 -10 15 -5 0 -10 9 -10 20 0 11 -7 23 -15 26 -8 4 -15
17 -15 30 0 15 -6 24 -15 24 -9 0 -15 9 -15 25 0 14 -4 25 -10 25 -5 0 -10 11
-10 25 0 16 -6 25 -15 25 -9 0 -15 9 -15 25 0 14 -4 25 -10 25 -5 0 -10 11
-10 25 0 16 -6 25 -15 25 -8 0 -15 7 -15 15 0 13 -34 15 -245 15 l-245 0 0
-254z"/>
</g>
</svg>
