<?xml version="1.0" standalone="no"?>
<!DOCTYPE svg PUBLIC "-//W3C//DTD SVG 20010904//EN"
 "http://www.w3.org/TR/2001/REC-SVG-20010904/DTD/svg10.dtd">
<svg version="1.0" xmlns="http://www.w3.org/2000/svg"
 width="100.000000pt" height="100.000000pt" viewBox="0 0 100.000000 100.000000"
 preserveAspectRatio="xMidYMid meet">
<metadata>
Created by potrace 1.16, written by Peter Selinger 2001-2019
</metadata>
<g transform="translate(0.000000,100.000000) scale(0.100000,-0.100000)"
fill="#000000" stroke="none">
<path d="M30 833 c1 -119 -3 -182 -13 -217 -8 -29 -13 -84 -12 -131 2 -81 28
-185 46 -185 5 0 9 -7 9 -15 0 -8 -7 -15 -15 -15 -8 0 -15 7 -15 15 0 8 -5 15
-11 15 -5 0 -7 4 -4 10 3 6 1 10 -6 10 -20 0 -1 -63 26 -87 14 -12 25 -29 25
-38 0 -9 8 -35 19 -58 10 -23 22 -63 25 -89 5 -33 12 -48 22 -48 12 0 13 8 8
38 -4 20 -11 48 -15 60 -5 13 -7 28 -3 33 3 5 0 9 -5 9 -6 0 -11 11 -11 25 0
14 -4 25 -9 25 -11 0 -21 63 -14 91 6 22 7 22 14 3 4 -10 8 -36 8 -56 1 -21 6
-38 11 -38 6 0 10 -7 10 -15 0 -9 9 -15 23 -15 18 0 19 -2 7 -10 -13 -8 -13
-10 2 -10 15 0 17 -8 14 -48 -5 -53 2 -92 15 -92 5 0 9 18 9 40 0 28 4 40 14
40 11 0 13 -10 9 -40 -4 -28 -2 -40 7 -40 10 0 11 16 6 66 -5 45 -3 71 5 80 9
11 7 14 -10 14 -12 0 -21 6 -21 15 0 8 -9 15 -20 15 -11 0 -20 4 -20 9 0 6 9
8 20 6 13 -3 20 2 21 13 0 9 5 2 10 -17 6 -18 13 -31 16 -27 3 3 12 -2 20 -12
12 -15 13 -9 9 46 -3 40 -1 62 6 62 10 0 8 23 -7 90 l-6 25 12 -25 c14 -30 22
-250 9 -250 -5 0 -7 7 -4 15 4 11 0 15 -16 15 -18 0 -21 -4 -16 -22 3 -13 6
-33 6 -45 0 -14 6 -23 16 -23 8 0 13 4 10 9 -10 16 4 37 25 38 16 2 19 -2 13
-19 -4 -12 -1 -24 7 -30 10 -6 7 -7 -9 -3 -13 4 -22 2 -22 -4 0 -7 34 -11 95
-11 52 0 95 -4 95 -9 0 -5 12 -7 28 -4 15 2 69 7 121 10 83 4 93 3 88 -11 -4
-9 -2 -16 3 -16 18 0 11 38 -7 43 -10 3 3 5 30 6 26 0 47 -3 47 -9 0 -5 -4
-10 -10 -10 -5 0 -7 -7 -4 -15 11 -27 24 -16 24 19 0 30 -3 33 -25 31 -14 -2
-27 1 -31 6 -3 5 15 9 39 9 l45 0 -5 -40 c-5 -33 -3 -40 11 -40 12 0 16 10 16
46 0 25 -4 43 -9 40 -4 -3 -17 1 -27 9 -18 14 -18 14 9 15 17 0 27 5 27 15 0
8 7 15 16 15 11 0 14 6 8 23 -9 29 -8 29 -41 25 l-28 -4 25 -11 c24 -11 24
-12 3 -12 -13 -1 -23 -5 -23 -11 0 -5 -6 -10 -14 -10 -21 0 -13 59 12 75 17
12 19 20 12 50 -7 32 -6 35 14 35 17 0 18 2 6 10 -12 8 -11 10 8 10 12 0 22
-3 22 -7 0 -12 -20 -39 -20 -28 0 14 -20 -17 -20 -32 0 -20 20 -15 21 5 0 14
2 14 9 -3 13 -29 12 -35 -5 -35 -8 0 -15 -5 -15 -10 0 -6 8 -10 18 -8 11 2 18
-4 20 -19 2 -13 8 -23 13 -23 6 0 9 12 6 28 -2 15 -2 21 0 14 9 -26 20 -10 20
28 0 27 -4 40 -13 40 -8 0 -11 -6 -8 -15 4 -9 0 -15 -8 -15 -14 0 -11 58 7
153 7 34 25 53 25 25 0 -23 11 1 15 33 3 18 9 35 15 39 7 4 8 15 2 31 -5 13
-7 30 -5 37 3 6 -2 12 -11 12 -18 0 -21 -17 -7 -39 12 -18 3 -41 -15 -41 -9 0
-14 -11 -14 -27 0 -16 -5 -35 -10 -43 -7 -11 -10 -4 -10 28 0 23 4 42 8 42 13
0 12 72 -1 103 -18 42 -53 37 -60 -9 -3 -19 -2 -45 3 -57 7 -18 9 -14 9 21 1
43 22 59 35 26 10 -25 7 -34 -9 -34 -8 0 -15 -7 -15 -15 0 -8 5 -15 10 -15 6
0 10 -4 10 -10 0 -5 -11 -10 -25 -10 -20 0 -25 5 -27 28 -4 69 3 97 34 127 18
16 29 23 26 14 -3 -9 -2 -22 3 -30 5 -8 9 -9 10 -4 5 56 3 74 -10 103 -8 17
-20 32 -27 32 -14 0 -25 -71 -13 -85 14 -14 11 -25 -6 -25 -9 0 -15 6 -14 13
5 41 -2 130 -10 122 -6 -6 -13 -81 -17 -167 -6 -125 -4 -158 6 -158 10 0 10
-3 0 -15 -9 -11 -9 -15 -1 -15 7 0 11 -8 9 -17 -2 -10 3 -17 10 -16 6 2 12 -2
12 -7 0 -6 -8 -10 -18 -10 -17 0 -18 -7 -15 -80 3 -56 1 -80 -7 -80 -6 0 -11
12 -10 28 3 43 1 52 -13 52 -8 0 -17 26 -25 70 -15 85 -15 90 -2 90 6 0 10
-15 10 -32 0 -18 7 -53 15 -78 15 -45 15 -44 9 45 -3 50 -10 92 -15 93 -5 2
-8 47 -7 100 l2 97 5 -75 6 -75 7 82 c8 85 1 186 -12 178 -9 -6 -20 19 -20 46
0 14 7 19 30 19 17 0 30 -4 30 -10 0 -5 10 -10 22 -10 21 0 21 0 2 -15 -18
-14 -18 -14 5 -15 16 0 21 -4 17 -15 -3 -9 0 -15 10 -15 21 0 42 -22 50 -54 3
-14 9 -26 13 -26 4 0 8 -10 8 -22 1 -13 7 -24 13 -26 5 -2 10 -17 10 -33 0
-16 5 -29 10 -29 6 0 10 -37 10 -90 0 -53 -4 -90 -10 -90 -5 0 -10 -11 -10
-24 0 -32 -20 -86 -32 -86 -6 0 -7 9 -3 22 14 47 18 81 7 74 -17 -10 -25 -82
-11 -108 12 -22 12 -22 19 -3 7 19 7 18 19 -4 7 -12 10 -25 7 -29 -3 -3 -6 0
-6 6 0 21 -17 13 -23 -10 -8 -27 1 -38 13 -18 6 10 10 -28 10 -107 0 -75 4
-123 10 -123 6 0 10 54 10 143 0 115 4 152 19 192 22 59 29 253 10 301 -16 42
-18 174 -2 174 19 0 16 18 -4 23 -17 4 -17 5 0 6 38 2 14 21 -27 21 -51 0 -56
7 -56 86 0 30 -4 54 -10 54 -17 0 -12 -136 5 -154 8 -8 15 -19 15 -25 0 -6 11
-11 25 -11 23 0 25 -4 25 -40 0 -22 -4 -40 -10 -40 -5 0 -10 -7 -10 -15 0 -8
4 -15 9 -15 29 0 53 -222 33 -302 -6 -24 -13 -55 -17 -70 -3 -16 -11 -28 -19
-28 -9 0 -12 8 -8 25 2 14 8 25 12 25 12 0 30 93 30 153 -1 57 -17 138 -29
147 -11 7 -51 117 -51 140 0 11 -4 20 -10 20 -5 0 -10 7 -10 15 0 8 -5 15 -11
15 -5 0 -7 5 -4 10 3 6 -5 10 -19 10 -18 0 -24 4 -20 15 5 11 -1 15 -21 15
-23 0 -26 2 -15 15 10 13 9 15 -9 15 -11 0 -21 5 -21 10 0 6 7 10 15 10 11 0
15 10 14 33 -2 30 -2 30 -6 5 -3 -22 -10 -28 -29 -28 -14 0 -23 -4 -20 -9 9
-14 -4 -39 -17 -37 -21 3 -37 17 -37 32 0 8 5 14 10 14 6 0 10 -7 10 -15 0
-18 19 -20 21 -2 5 45 4 67 -3 67 -4 0 -8 -7 -8 -15 0 -21 -38 -19 -43 3 -4
16 -5 16 -6 0 0 -10 -5 -18 -10 -18 -5 0 -11 -9 -14 -21 -4 -16 -10 -19 -28
-14 -17 6 -21 4 -16 -8 3 -8 2 -40 -2 -71 -6 -42 -5 -56 5 -56 12 0 25 -23 23
-43 0 -7 -4 -3 -9 8 -5 11 -9 14 -9 8 -1 -7 -7 -13 -14 -13 -10 0 -13 24 -12
95 l0 95 29 0 c22 0 27 4 22 16 -3 9 -6 20 -6 25 0 5 -5 9 -11 9 -6 0 -9 -9
-6 -19 3 -13 1 -18 -9 -14 -7 2 -15 12 -17 21 -3 12 -5 10 -6 -5 -1 -29 -31
-31 -31 -3 0 11 -7 20 -15 20 -9 0 -12 -6 -9 -15 4 -9 0 -15 -9 -15 -9 0 -18
8 -20 18 -4 16 -5 16 -6 0 -1 -15 -11 -18 -71 -18 -60 0 -70 3 -70 18 -1 11
-6 6 -15 -13 -7 -16 -14 -24 -14 -17 -2 23 -21 12 -21 -13 0 -24 3 -25 56 -25
l56 0 -7 -30 c-4 -19 -3 -30 4 -30 6 0 11 14 11 30 0 17 1 33 3 37 1 3 -8 7
-20 8 -13 1 -26 5 -30 8 -3 4 25 7 64 7 l69 0 -6 -50 c-7 -53 -6 -68 9 -115 8
-24 9 -18 7 35 -2 36 -1 49 1 30 2 -19 9 -39 14 -45 5 -5 9 -17 9 -27 0 -10 7
-18 15 -18 8 0 15 -7 15 -15 0 -8 -4 -15 -10 -15 -6 0 -10 -33 -10 -80 0 -47
-4 -80 -10 -80 -5 0 -10 -13 -10 -30 0 -16 5 -30 10 -30 6 0 10 -47 10 -121 0
-68 -4 -118 -9 -115 -5 3 -8 -5 -7 -18 0 -13 4 -22 9 -19 4 2 7 -6 7 -18 0
-17 -3 -19 -13 -10 -8 6 -16 8 -19 6 -3 -3 -4 13 -3 35 3 51 -12 53 -18 3 -2
-21 -4 -6 -5 32 0 58 1 65 10 43 5 -16 14 -28 20 -28 6 0 7 8 3 18 -10 26 -16
92 -7 92 4 0 7 72 6 160 0 88 4 160 8 160 4 0 8 7 8 16 0 10 -5 14 -16 10 -26
-10 -47 58 -40 126 5 38 3 58 -4 58 -5 0 -10 -8 -10 -17 0 -15 -2 -15 -14 2
-12 17 -14 14 -21 -33 -8 -62 -9 -160 -2 -222 3 -25 9 -117 13 -205 3 -88 10
-162 15 -165 11 -7 14 -134 5 -187 -5 -29 -4 -43 3 -43 6 0 12 15 12 33 1 17
5 46 9 62 5 21 7 8 6 -42 l-1 -73 -63 0 c-41 0 -61 4 -57 10 4 6 14 9 23 8 14
-2 16 4 13 32 -4 45 -11 52 -11 12 0 -30 -2 -32 -35 -32 -19 0 -35 5 -35 10 0
6 9 10 20 10 13 0 20 7 20 20 0 11 -4 20 -10 20 -5 0 -10 -7 -10 -15 0 -9 -9
-15 -24 -15 -24 0 -24 0 -22 103 2 56 -1 113 -6 126 -5 14 -5 37 1 55 5 17 12
106 15 199 6 158 5 167 -13 167 -14 0 -20 10 -25 40 -3 22 -11 40 -16 40 -6 0
-10 5 -10 10 0 6 9 10 20 10 19 0 24 -10 21 -37 -1 -7 3 -13 10 -13 6 0 9 -7
5 -15 -3 -9 0 -15 10 -15 10 0 14 6 10 15 -3 8 -1 15 4 15 6 0 10 6 10 14 0 8
5 16 10 18 6 2 1 9 -10 16 -17 10 -20 10 -20 -5 0 -9 -3 -13 -7 -9 -5 4 -8 13
-8 19 0 7 -13 12 -28 12 -15 -1 -27 3 -27 7 0 4 -5 8 -11 8 -6 0 -9 -8 -6 -19
3 -14 0 -17 -13 -14 -21 6 -33 43 -25 76 3 12 2 34 -4 47 -8 20 -10 11 -10
-47 -1 -45 -5 -73 -12 -73 -16 0 -41 -29 -34 -40 3 -5 -1 -10 -9 -10 -9 0 -16
-7 -16 -15 0 -8 -4 -15 -10 -15 -5 0 -11 47 -13 108 l-3 107 -1 -120 c-1 -66
-4 -132 -8 -147 -4 -17 -3 -28 3 -28 6 0 8 -9 5 -20 -3 -11 -9 -20 -14 -20 -5
0 -6 -7 -2 -16 3 -9 0 -20 -8 -25 -19 -11 -20 -222 -1 -241 14 -14 16 -28 3
-28 -4 0 -14 20 -21 44 -18 65 -1 286 22 286 6 0 7 8 3 18 -4 9 -6 81 -5 160
1 100 -2 142 -10 142 -8 0 -11 -49 -10 -167z m644 97 c4 -22 3 -30 -3 -21 -6
9 -9 -25 -9 -92 0 -96 -2 -108 -22 -129 l-23 -23 9 30 c12 44 10 108 -4 113
-7 2 -12 25 -12 58 0 51 1 54 25 54 20 0 25 5 25 27 0 34 5 27 14 -17z m-144
-10 c0 -23 4 -30 20 -30 11 0 20 -5 20 -11 0 -6 -7 -9 -15 -5 -8 3 -15 1 -15
-4 0 -6 7 -10 16 -10 11 0 14 -5 10 -16 -3 -9 -6 -20 -6 -25 0 -5 -6 -9 -14
-9 -8 0 -16 15 -20 35 -3 19 -9 51 -12 70 -4 23 -2 35 5 35 6 0 11 -13 11 -30z
m30 5 c0 -14 -2 -25 -4 -25 -2 0 -6 11 -8 25 -3 14 -1 25 3 25 5 0 9 -11 9
-25z m-102 -80 c-2 -25 1 -46 5 -48 10 -3 -2 -37 -14 -37 -5 0 -9 29 -9 65 0
41 4 65 11 65 7 0 10 -17 7 -45z m219 13 c-3 -7 -5 -2 -5 12 0 14 2 19 5 13 2
-7 2 -19 0 -25z m41 -35 c0 -38 -2 -62 -4 -55 -8 17 -21 15 -21 -3 0 -20 22
-19 43 3 17 16 18 16 11 -1 -4 -10 -7 -30 -7 -43 0 -13 -5 -24 -11 -24 -6 0
-9 7 -5 15 4 11 -1 15 -19 15 -24 0 -25 3 -24 58 1 43 3 51 9 32 9 -29 13 -19
10 33 -1 20 3 37 8 37 5 0 9 -30 10 -67z m42 57 c0 -5 -7 -10 -15 -10 -8 0
-15 5 -15 10 0 6 7 10 15 10 8 0 15 -4 15 -10z m-570 -30 c0 -5 11 -10 25 -10
22 0 25 -4 25 -34 0 -19 6 -37 13 -39 7 -3 5 -6 -5 -6 -15 -1 -18 -15 -20 -98
-2 -68 -7 -97 -16 -99 -7 -1 -8 0 -2 3 15 7 12 23 -5 23 -8 0 -15 7 -15 15 0
8 5 15 11 15 9 0 10 23 6 80 -4 49 -3 80 3 80 6 0 10 11 10 24 0 18 -6 26 -22
28 -22 3 -39 28 -19 28 6 0 11 -4 11 -10z m767 -16 c-3 -3 -12 -4 -19 -1 -8 3
-5 6 6 6 11 1 17 -2 13 -5z m-757 -39 c-9 -11 -11 -34 -6 -80 5 -50 4 -65 -6
-65 -10 0 -13 -23 -13 -88 1 -48 4 -92 8 -98 4 -7 -2 -9 -19 -6 -20 3 -23 7
-12 14 10 7 10 11 1 15 -8 3 -13 24 -13 55 0 44 -2 49 -17 43 -15 -5 -16 -4
-5 6 18 19 15 29 -9 29 -19 0 -20 -4 -14 -52 4 -29 11 -60 15 -68 10 -20 21
-180 13 -208 -8 -33 -24 -27 -18 8 3 16 1 47 -4 69 -6 28 -5 42 3 46 8 4 8 7
-1 11 -7 3 -9 12 -6 20 3 9 -1 14 -11 14 -14 0 -16 -7 -11 -37 4 -21 9 -46 12
-55 2 -10 0 -18 -5 -18 -12 0 -35 97 -26 111 3 5 0 9 -5 9 -6 0 -11 5 -11 10
0 14 28 12 33 -2 2 -7 8 -10 12 -6 9 8 -18 38 -34 38 -6 0 -11 5 -11 11 0 5 4
8 9 5 5 -3 12 24 16 60 6 60 8 64 28 59 20 -6 21 -5 5 8 -15 12 -16 18 -6 45
7 18 15 32 19 32 4 0 10 11 13 25 4 17 13 25 27 25 15 0 19 5 15 15 -4 11 2
15 21 15 22 0 24 -2 13 -15z m82 -64 c-10 -6 -12 -41 -10 -139 2 -73 0 -132
-3 -132 -10 0 -21 87 -23 181 -1 77 1 87 19 96 23 10 36 6 17 -6z m180 -96
c-2 -52 -8 -95 -13 -95 -5 0 -7 17 -3 38 3 20 1 63 -4 95 -8 49 -7 57 7 57 14
0 16 -13 13 -95z m36 -56 c-1 -83 -6 -156 -10 -162 -4 -7 -8 61 -8 151 0 108
4 162 11 162 7 0 9 -49 7 -151z m112 127 c0 -37 10 -56 31 -56 17 0 19 -8 19
-95 0 -57 -4 -95 -10 -95 -5 0 -10 -7 -10 -15 0 -10 -6 -12 -17 -8 -17 6 -17
6 -1 -10 9 -9 21 -17 27 -17 7 0 12 -36 13 -97 0 -54 2 -102 3 -108 2 -5 3
-33 4 -62 1 -45 3 -51 20 -46 10 3 22 0 25 -6 5 -7 -10 -11 -43 -11 -42 0 -51
3 -51 18 0 9 -3 34 -6 54 -5 25 -3 38 5 38 6 0 11 -17 11 -40 0 -22 4 -40 9
-40 14 0 25 21 15 29 -14 10 -18 31 -17 99 0 34 -4 62 -8 62 -4 0 -7 10 -7 23
3 55 -3 87 -16 87 -9 0 -13 10 -12 25 1 17 7 25 19 25 13 0 17 9 18 38 1 20 0
42 -1 47 -1 6 -4 26 -6 45 l-5 35 16 -30 c8 -16 13 -22 10 -12 -3 10 -5 28 -5
39 0 17 -3 18 -15 8 -8 -7 -15 -20 -16 -29 -1 -9 -5 4 -10 29 -5 25 -7 55 -4
68 3 12 3 22 0 22 -3 0 -10 -10 -15 -22 -8 -22 -9 -22 -9 5 -1 21 4 27 19 27
14 0 20 -7 20 -24z m250 15 c0 -5 3 -16 6 -25 4 -11 1 -16 -10 -16 -10 0 -16
9 -16 25 0 14 5 25 10 25 6 0 10 -4 10 -9z m-171 -53 c0 -27 -2 -29 -8 -13 -5
11 -6 26 -4 33 8 21 13 13 12 -20z m27 -83 c-1 -66 -5 -95 -13 -95 -16 0 -29
43 -14 48 7 2 11 30 11 73 0 38 4 69 9 69 5 0 8 -43 7 -95z m-429 -17 c-2 -18
-4 -6 -4 27 0 33 2 48 4 33 2 -15 2 -42 0 -60z m306 -5 c-4 -17 -1 -23 11 -23
18 0 23 -45 6 -55 -6 -3 -7 1 -4 9 4 10 1 16 -9 16 -17 0 -25 32 -25 100 l-1
45 14 -35 c7 -19 11 -45 8 -57z m94 20 c-3 -10 -5 -4 -5 12 0 17 2 24 5 18 2
-7 2 -21 0 -30z m-457 -153 l0 -110 -30 0 c-16 0 -30 -4 -30 -10 0 -5 -7 -10
-15 -10 -18 0 -20 16 -2 23 9 4 8 8 -3 16 -13 9 -13 11 0 11 12 0 15 9 12 40
-3 31 -1 40 11 40 12 0 14 -9 11 -40 -2 -28 0 -40 9 -40 9 0 14 14 14 38 1
120 4 152 13 152 6 0 10 -43 10 -110z m235 90 c3 -5 1 -10 -4 -10 -6 0 -11 5
-11 10 0 6 2 10 4 10 3 0 8 -4 11 -10z m375 -50 c5 9 9 9 14 1 4 -6 2 -11 -3
-11 -6 0 -11 -11 -11 -25 0 -16 -6 -25 -15 -25 -8 0 -15 5 -15 10 0 6 5 10 11
10 7 0 9 11 5 28 -3 15 -3 21 1 13 4 -10 7 -10 13 -1z m-255 -123 c3 -69 2
-107 -5 -107 -6 0 -10 43 -10 112 0 61 2 109 5 106 3 -2 7 -53 10 -111z m125
109 c0 -11 -19 -15 -25 -6 -3 5 1 10 9 10 9 0 16 -2 16 -4z m-560 -36 c0 -5
-2 -10 -4 -10 -3 0 -8 5 -11 10 -3 6 -1 10 4 10 6 0 11 -4 11 -10z m564 -27
c15 -90 19 -203 7 -203 -6 0 -11 -7 -11 -15 0 -8 -5 -15 -11 -15 -6 0 -10 15
-8 33 1 17 -2 40 -6 49 -4 10 -5 23 -2 30 3 7 6 3 6 -9 1 -13 6 -23 11 -23 7
0 9 13 6 33 -13 81 -16 157 -8 157 5 0 12 -17 16 -37z m-234 -9 c0 -8 -5 -12
-10 -9 -6 4 -8 11 -5 16 9 14 15 11 15 -7z m130 6 c0 -5 -5 -10 -11 -10 -5 0
-7 5 -4 10 3 6 8 10 11 10 2 0 4 -4 4 -10z m250 -4 c0 -3 -4 -8 -10 -11 -5 -3
-10 -1 -10 4 0 6 5 11 10 11 6 0 10 -2 10 -4z m-244 -91 c0 -30 -3 -55 -7 -55
-10 0 -17 74 -7 78 4 2 8 10 8 18 0 8 1 14 3 14 1 0 3 -25 3 -55z m244 51 c0
-3 -4 -8 -10 -11 -5 -3 -10 -1 -10 4 0 6 5 11 10 11 6 0 10 -2 10 -4z m-173
-38 c-3 -8 -6 -5 -6 6 -1 11 2 17 5 13 3 -3 4 -12 1 -19z m-498 -43 c-3 -42
-4 -45 -31 -45 -17 0 -27 4 -23 10 3 6 2 10 -3 10 -6 0 -8 9 -5 20 8 29 21 25
25 -7 4 -30 11 -20 22 30 10 42 17 32 15 -18z m41 25 c0 -5 -4 -10 -9 -10 -6
0 -13 5 -16 10 -3 6 1 10 9 10 9 0 16 -4 16 -10z m12 -60 c4 -44 -6 -54 -16
-15 -4 14 -11 25 -16 25 -6 0 -10 7 -10 15 0 8 9 15 19 15 15 0 20 -9 23 -40z
m-187 20 c3 -5 1 -10 -4 -10 -6 0 -11 5 -11 10 0 6 2 10 4 10 3 0 8 -4 11 -10z
m705 -20 c0 -5 -2 -10 -4 -10 -3 0 -8 5 -11 10 -3 6 -1 10 4 10 6 0 11 -4 11
-10z m-200 -51 c0 -5 -4 -8 -8 -5 -13 8 -28 -7 -40 -39 -10 -30 -10 -30 -11
13 -1 40 0 42 29 42 17 0 30 -5 30 -11z m37 -16 c4 -84 9 -97 39 -100 54 -8
37 -13 -39 -13 -85 0 -83 -2 -71 73 4 22 12 37 20 37 8 0 14 -4 14 -10 0 -5
-4 -10 -10 -10 -5 0 -10 -18 -10 -41 0 -26 4 -38 11 -33 6 3 9 17 6 30 -2 13
0 24 4 24 5 0 9 -13 9 -30 0 -16 5 -30 10 -30 12 0 12 17 1 83 -5 32 -4 47 3
47 6 0 12 -12 13 -27z m163 2 c0 -16 -6 -25 -15 -25 -9 0 -15 9 -15 25 0 16 6
25 15 25 9 0 15 -9 15 -25z m-566 -21 c9 -22 7 -44 -2 -44 -5 0 -9 6 -9 13 0
6 -4 20 -8 30 -4 9 -3 17 3 17 5 0 13 -7 16 -16z m535 -10 c44 -9 39 -24 -9
-24 -29 0 -40 4 -40 15 0 17 4 18 49 9z m-222 -76 c-3 -8 -6 -5 -6 6 -1 11 2
17 5 13 3 -3 4 -12 1 -19z"/>
<path d="M632 885 c0 -16 2 -22 5 -12 2 9 2 23 0 30 -3 6 -5 -1 -5 -18z"/>
<path d="M160 747 c0 -9 -4 -17 -9 -17 -5 0 -14 -21 -19 -46 -8 -35 -7 -52 4
-72 8 -15 14 -44 14 -64 0 -21 3 -38 8 -38 4 0 7 25 8 55 0 39 -4 55 -13 55
-7 0 -13 4 -13 8 0 14 36 43 43 35 4 -3 7 3 7 15 0 12 -4 22 -10 22 -5 0 -10
-4 -10 -10 0 -5 -7 -10 -15 -10 -8 0 -15 5 -15 10 0 6 4 10 9 10 10 0 25 50
16 58 -3 3 -5 -2 -5 -11z"/>
<path d="M90 915 c0 -50 4 -85 10 -85 6 0 10 35 10 85 0 50 -4 85 -10 85 -6 0
-10 -35 -10 -85z"/>
<path d="M141 948 c0 -33 3 -58 9 -58 12 0 12 20 1 75 -9 40 -9 39 -10 -17z"/>
<path d="M213 961 c3 -29 1 -41 -9 -43 -9 -2 -10 -8 -5 -17 12 -18 31 -5 31
22 0 16 3 19 9 8 5 -7 14 -10 20 -7 18 11 13 26 -9 26 -15 0 -20 7 -20 25 0
14 -5 25 -11 25 -8 0 -10 -14 -6 -39z"/>
<path d="M240 985 c0 -8 7 -15 15 -15 8 0 15 7 15 15 0 8 -7 15 -15 15 -8 0
-15 -7 -15 -15z"/>
<path d="M290 990 c0 -5 5 -10 10 -10 6 0 10 5 10 10 0 6 -4 10 -10 10 -5 0
-10 -4 -10 -10z"/>
<path d="M631 984 c0 -11 3 -14 6 -6 3 7 2 16 -1 19 -3 4 -6 -2 -5 -13z"/>
<path d="M740 986 c0 -8 5 -18 10 -21 6 -3 10 3 10 14 0 12 -4 21 -10 21 -5 0
-10 -6 -10 -14z"/>
<path d="M822 958 c-2 -37 1 -46 12 -42 9 4 16 -3 19 -18 2 -13 4 6 4 42 0 36
-2 48 -4 28 -2 -21 -8 -38 -13 -38 -5 0 -11 17 -13 38 -3 34 -4 33 -5 -10z"/>
<path d="M260 905 c-11 -13 -7 -15 29 -15 27 0 40 4 36 11 -4 6 -14 8 -23 4
-8 -3 -18 -1 -22 5 -5 7 -11 6 -20 -5z"/>
<path d="M365 805 c-5 -71 -11 -103 -16 -90 -5 14 -8 3 -8 -35 -1 -30 -5 -92
-11 -138 -9 -83 -23 -284 -22 -331 1 -92 1 -93 18 -76 9 9 24 13 35 10 15 -5
19 -1 19 19 0 14 -4 26 -10 26 -5 0 -7 -7 -4 -15 4 -9 0 -15 -10 -15 -12 0
-16 10 -16 40 0 22 5 40 10 40 6 0 10 11 10 25 0 33 -16 32 -28 -2 l-10 -28
-1 33 c-1 30 1 32 34 32 34 0 35 -1 37 -42 0 -24 1 -49 1 -55 -1 -7 5 -13 13
-13 11 0 14 -16 14 -65 0 -37 4 -65 10 -65 14 0 13 157 -1 162 -7 2 -12 37
-12 96 0 51 -4 92 -9 92 -4 0 -8 19 -7 43 0 28 3 36 8 23 8 -21 3 165 -6 204
-4 21 -8 16 -20 -30 -10 -40 -12 -79 -8 -141 5 -64 3 -92 -6 -108 -16 -25 -29
-27 -29 -6 0 8 6 15 13 15 8 0 13 13 13 37 0 20 -2 31 -4 25 -9 -27 -22 -9
-22 28 0 22 3 40 8 40 4 0 8 24 10 52 2 29 8 56 14 59 6 4 9 31 6 70 -4 60 -4
62 9 34 12 -28 12 -25 7 33 -13 129 -20 133 -29 17z m32 -272 c-2 -16 -4 -5
-4 22 0 28 2 40 4 28 2 -13 2 -35 0 -50z m-7 -168 c0 -9 -9 -15 -25 -15 -14 0
-25 5 -25 11 0 5 5 7 10 4 6 -3 10 -1 10 4 0 6 7 11 15 11 8 0 15 -7 15 -15z
m-63 -192 c-3 -10 -5 -2 -5 17 0 19 2 27 5 18 2 -10 2 -26 0 -35z"/>
<path d="M340 880 c0 -11 5 -20 10 -20 6 0 10 9 10 20 0 11 -4 20 -10 20 -5 0
-10 -9 -10 -20z"/>
<path d="M765 813 c8 -31 13 -39 20 -31 9 9 -6 58 -17 58 -6 0 -7 -11 -3 -27z"/>
<path d="M917 784 c-8 -14 3 -54 14 -54 11 0 11 17 0 44 -4 11 -10 15 -14 10z"/>
<path d="M898 623 c-23 -6 -23 -33 0 -33 11 0 18 7 18 20 0 11 0 19 -1 19 0
-1 -8 -3 -17 -6z"/>
<path d="M994 150 c0 -85 2 -120 3 -78 2 43 2 113 0 156 -1 42 -3 7 -3 -78z"/>
<path d="M906 164 c-10 -26 -7 -164 4 -164 6 0 10 37 10 90 0 90 -3 104 -14
74z"/>
<path d="M861 53 c1 -62 6 -56 11 15 2 23 0 42 -4 42 -5 0 -7 -26 -7 -57z"/>
<path d="M240 15 c0 -8 5 -15 10 -15 6 0 10 7 10 15 0 8 -4 15 -10 15 -5 0
-10 -7 -10 -15z"/>
<path d="M731 14 c0 -11 3 -14 6 -6 3 7 2 16 -1 19 -3 4 -6 -2 -5 -13z"/>
<path d="M280 10 c0 -5 5 -10 11 -10 5 0 7 5 4 10 -3 6 -8 10 -11 10 -2 0 -4
-4 -4 -10z"/>
<path d="M385 10 c-3 -5 -1 -10 4 -10 6 0 11 5 11 10 0 6 -2 10 -4 10 -3 0 -8
-4 -11 -10z"/>
<path d="M560 10 c0 -5 5 -10 11 -10 5 0 7 5 4 10 -3 6 -8 10 -11 10 -2 0 -4
-4 -4 -10z"/>
</g>
</svg>
