<?xml version="1.0" standalone="no"?>
<!DOCTYPE svg PUBLIC "-//W3C//DTD SVG 20010904//EN"
 "http://www.w3.org/TR/2001/REC-SVG-20010904/DTD/svg10.dtd">
<svg version="1.0" xmlns="http://www.w3.org/2000/svg"
 width="52.000000pt" height="52.000000pt" viewBox="0 0 52.000000 52.000000"
 preserveAspectRatio="xMidYMid meet">
<metadata>
Created by potrace 1.16, written by Peter Selinger 2001-2019
</metadata>
<g transform="translate(0.000000,52.000000) scale(0.100000,-0.100000)"
fill="#000000" stroke="none">
<path d="M240 480 l0 -40 -80 0 -80 0 0 -175 0 -175 80 0 80 0 0 -45 c0 -38 3
-45 20 -45 17 0 20 7 20 45 l0 45 80 0 80 0 0 175 0 175 -80 0 -80 0 0 40 c0
33 -3 40 -20 40 -17 0 -20 -7 -20 -40z m180 -215 l0 -155 -160 0 -160 0 0 155
0 155 160 0 160 0 0 -155z"/>
<path d="M156 392 c-2 -4 -1 -66 2 -137 l7 -130 50 0 c49 0 50 1 53 32 3 27 8
33 35 38 55 12 77 41 77 102 0 44 -5 58 -25 78 -22 23 -32 25 -109 25 -47 0
-87 -4 -90 -8z m184 -32 c14 -14 20 -33 20 -63 0 -52 -18 -72 -72 -82 -35 -7
-38 -10 -38 -41 0 -32 -2 -34 -35 -34 l-35 0 0 83 c0 45 -3 99 -6 120 l-7 37
77 0 c63 0 79 -3 96 -20z"/>
<path d="M250 299 c0 -24 4 -30 17 -27 22 4 30 38 11 49 -22 15 -28 10 -28
-22z"/>
</g>
</svg>
