<?xml version="1.0" standalone="no"?>
<!DOCTYPE svg PUBLIC "-//W3C//DTD SVG 20010904//EN"
 "http://www.w3.org/TR/2001/REC-SVG-20010904/DTD/svg10.dtd">
<svg version="1.0" xmlns="http://www.w3.org/2000/svg"
 width="100.000000pt" height="100.000000pt" viewBox="0 0 100.000000 100.000000"
 preserveAspectRatio="xMidYMid meet">
<metadata>
Created by potrace 1.16, written by Peter Selinger 2001-2019
</metadata>
<g transform="translate(0.000000,100.000000) scale(0.100000,-0.100000)"
fill="#000000" stroke="none">
<path d="M490 901 c0 -55 -4 -111 -10 -125 -5 -14 -6 -26 -2 -26 11 0 3 -193
-10 -217 -11 -21 -18 -23 -104 -23 -69 0 -96 4 -108 15 -11 12 -41 15 -135 15
-114 0 -121 -1 -121 -20 0 -19 7 -20 125 -20 l125 0 0 -125 0 -125 148 1 c81
1 137 4 125 6 -22 4 -23 9 -25 121 l-2 117 -3 -102 c-4 -121 2 -116 -133 -111
l-85 3 -5 108 -5 107 118 0 117 0 0 250 c0 138 -2 250 -5 250 -3 0 -5 -45 -5
-99z"/>
<path d="M520 885 l0 -115 125 0 125 0 0 -270 0 -270 -125 0 -125 0 0 -115 c0
-70 4 -115 10 -115 6 0 10 42 10 105 l0 105 125 0 125 0 0 290 0 290 -125 0
-125 0 0 105 c0 63 -4 105 -10 105 -6 0 -10 -45 -10 -115z"/>
</g>
</svg>
