<?xml version="1.0" standalone="no"?>
<!DOCTYPE svg PUBLIC "-//W3C//DTD SVG 20010904//EN"
 "http://www.w3.org/TR/2001/REC-SVG-20010904/DTD/svg10.dtd">
<svg version="1.0" xmlns="http://www.w3.org/2000/svg"
 width="100.000000pt" height="100.000000pt" viewBox="0 0 100.000000 100.000000"
 preserveAspectRatio="xMidYMid meet">
<metadata>
Created by potrace 1.16, written by Peter Selinger 2001-2019
</metadata>
<g transform="translate(0.000000,100.000000) scale(0.100000,-0.100000)"
fill="#000000" stroke="none">
<path d="M0 650 c0 -7 173 -10 500 -10 327 0 500 3 500 10 0 7 -173 10 -500
10 -327 0 -500 -3 -500 -10z"/>
<path d="M30 485 l0 -145 48 0 c38 0 50 4 62 23 8 12 14 29 15 37 0 8 10 16
23 18 19 3 22 -1 22 -26 0 -17 6 -33 13 -36 6 -4 -2 -4 -18 -2 -17 3 -37 1
-45 -5 -10 -5 58 -9 183 -9 125 0 197 4 197 10 0 6 7 10 15 10 8 0 15 -4 15
-10 0 -6 74 -10 203 -10 l203 0 2 145 1 145 -470 0 -469 0 0 -145z m840 120
c0 -8 9 -15 20 -15 11 0 20 7 20 15 0 8 8 15 19 15 13 0 20 -9 23 -30 5 -32
-17 -51 -25 -21 -3 13 -14 16 -47 14 -24 -1 -47 -8 -51 -15 -12 -20 -578 -22
-586 -2 -3 8 -11 14 -19 14 -8 0 -14 6 -14 14 0 8 -6 17 -12 19 -7 3 141 6
330 6 298 1 342 -1 342 -14z m-680 -30 c0 -8 7 -15 15 -15 8 0 15 -7 15 -15 0
-11 12 -15 45 -15 33 0 45 -4 45 -15 0 -8 -7 -15 -15 -15 -12 0 -15 -13 -15
-60 l0 -60 -30 0 -30 0 0 60 c0 47 -3 60 -15 60 -8 0 -15 -7 -15 -15 0 -10
-10 -15 -30 -15 -16 0 -30 -4 -30 -10 0 -5 14 -8 30 -6 17 2 30 -1 30 -5 0 -5
-13 -9 -30 -9 -27 0 -30 -3 -30 -30 0 -28 -3 -30 -35 -30 l-35 0 0 105 0 105
65 0 c51 0 65 -3 65 -15z m670 -19 c0 -3 -4 -8 -10 -11 -5 -3 -10 -1 -10 4 0
6 5 11 10 11 6 0 10 -2 10 -4z m50 -11 c0 -8 7 -15 15 -15 8 0 15 -7 15 -15 0
-8 -7 -15 -15 -15 -11 0 -15 -12 -15 -45 0 -35 -4 -45 -17 -45 -9 0 -14 -3
-10 -6 11 -11 46 7 40 22 -3 7 0 14 6 14 6 0 11 -13 11 -30 0 -28 -3 -30 -35
-30 l-35 0 0 60 c0 47 -3 60 -15 60 -12 0 -15 -13 -15 -60 l0 -60 -60 0 -60 0
0 45 c0 43 1 45 30 45 20 0 30 5 30 15 0 10 -10 15 -30 15 -20 0 -30 5 -30 15
0 11 12 15 45 15 33 0 45 -4 45 -15 0 -8 7 -15 15 -15 8 0 15 7 15 15 0 8 7
15 15 15 8 0 15 7 15 15 0 8 9 15 20 15 11 0 20 -7 20 -15z m-472 -90 l0 -75
-49 0 c-37 0 -49 4 -49 15 0 8 -7 15 -15 15 -11 0 -15 12 -15 46 0 40 2 46 19
41 14 -3 17 0 14 14 -5 17 1 19 45 19 l50 0 0 -75z m252 0 c0 -60 -3 -75 -15
-75 -12 0 -15 13 -15 60 0 36 4 60 11 60 5 0 7 5 3 12 -6 9 -9 9 -12 0 -2 -7
-12 -12 -23 -12 -21 0 -26 -16 -6 -23 6 -3 1 -6 -12 -6 -16 -1 -21 3 -18 13 7
18 -17 28 -49 20 -22 -6 -24 -11 -24 -65 0 -59 0 -59 -30 -59 -29 0 -36 10
-31 48 1 6 -5 12 -14 12 -8 0 -15 7 -15 15 0 8 7 15 15 15 18 0 20 20 3 21
-10 0 -10 2 0 6 6 2 12 11 12 19 0 11 22 14 110 14 l110 0 0 -75z m-100 -11
c0 -32 4 -53 10 -49 5 3 7 12 4 20 -3 7 -1 22 5 32 8 15 10 10 11 -24 0 -41
-1 -43 -30 -43 l-30 0 0 60 c0 47 3 60 15 60 12 0 15 -13 15 -56z m350 36 c0
-5 -5 -10 -11 -10 -5 0 -7 5 -4 10 3 6 8 10 11 10 2 0 4 -4 4 -10z m-627 -110
c-3 -11 -12 -20 -21 -20 -13 0 -12 3 3 20 10 11 19 20 21 20 1 0 0 -9 -3 -20z
m154 -16 c-3 -3 -12 -4 -19 -1 -8 3 -5 6 6 6 11 1 17 -2 13 -5z m186 -1 c-7
-2 -19 -2 -25 0 -7 3 -2 5 12 5 14 0 19 -2 13 -5z m64 1 c-3 -3 -12 -4 -19 -1
-8 3 -5 6 6 6 11 1 17 -2 13 -5z m150 0 c-3 -3 -12 -4 -19 -1 -8 3 -5 6 6 6
11 1 17 -2 13 -5z"/>
<path d="M370 570 c0 -5 9 -10 20 -10 11 0 20 5 20 10 0 6 -9 10 -20 10 -11 0
-20 -4 -20 -10z"/>
<path d="M620 570 c0 -5 9 -10 20 -10 11 0 20 5 20 10 0 6 -9 10 -20 10 -11 0
-20 -4 -20 -10z"/>
<path d="M750 570 c0 -5 7 -10 15 -10 8 0 15 5 15 10 0 6 -7 10 -15 10 -8 0
-15 -4 -15 -10z"/>
<path d="M87 554 c2 -7 11 -10 19 -7 19 7 18 10 -5 16 -13 3 -18 1 -14 -9z"/>
<path d="M147 563 c-10 -3 -16 -10 -14 -17 3 -7 1 -19 -4 -27 -6 -10 -9 -10
-9 -1 0 6 -7 12 -15 12 -8 0 -15 -7 -15 -15 0 -10 11 -15 35 -15 32 0 35 3 35
29 0 16 6 32 13 34 15 7 -2 6 -26 0z"/>
<path d="M190 540 c0 -5 5 -10 11 -10 5 0 7 5 4 10 -3 6 -8 10 -11 10 -2 0 -4
-4 -4 -10z"/>
<path d="M230 506 c0 -2 7 -7 16 -10 8 -3 12 -2 9 4 -6 10 -25 14 -25 6z"/>
<path d="M90 459 c0 -5 5 -7 10 -4 6 3 10 8 10 11 0 2 -4 4 -10 4 -5 0 -10 -5
-10 -11z"/>
<path d="M250 428 c0 -23 3 -38 6 -35 11 11 14 77 4 77 -6 0 -10 -19 -10 -42z"/>
<path d="M90 414 c0 -14 4 -23 10 -19 6 3 10 15 10 26 0 10 -4 19 -10 19 -5 0
-10 -12 -10 -26z"/>
<path d="M808 457 c-3 -19 -2 -25 4 -19 6 6 8 18 6 28 -3 14 -5 12 -10 -9z"/>
<path d="M750 425 c0 -8 -5 -15 -12 -15 -6 0 -9 -2 -7 -5 3 -2 15 -2 27 2 25
6 30 33 7 33 -8 0 -15 -7 -15 -15z"/>
<path d="M370 480 c0 -13 -5 -18 -15 -14 -9 4 -15 0 -15 -10 0 -11 10 -16 33
-17 17 -1 24 -3 15 -6 -21 -5 -24 -23 -4 -23 8 0 20 -2 28 -3 7 -2 10 -2 6 0
-5 3 -8 25 -8 49 0 37 -3 44 -20 44 -13 0 -20 -7 -20 -20z"/>
<path d="M491 483 c-1 -17 4 -35 9 -38 11 -7 11 9 0 45 -8 24 -8 24 -9 -7z"/>
<path d="M970 515 c0 -8 7 -15 15 -15 8 0 15 7 15 15 0 8 -7 15 -15 15 -8 0
-15 -7 -15 -15z"/>
<path d="M970 395 c0 -8 7 -15 15 -15 8 0 15 7 15 15 0 8 -7 15 -15 15 -8 0
-15 -7 -15 -15z"/>
<path d="M0 320 c0 -7 173 -10 500 -10 327 0 500 3 500 10 0 7 -173 10 -500
10 -327 0 -500 -3 -500 -10z"/>
</g>
</svg>
