<?xml version="1.0" standalone="no"?>
<!DOCTYPE svg PUBLIC "-//W3C//DTD SVG 20010904//EN"
 "http://www.w3.org/TR/2001/REC-SVG-20010904/DTD/svg10.dtd">
<svg version="1.0" xmlns="http://www.w3.org/2000/svg"
 width="180.000000pt" height="180.000000pt" viewBox="0 0 180.000000 180.000000"
 preserveAspectRatio="xMidYMid meet">
<metadata>
Created by potrace 1.16, written by Peter Selinger 2001-2019
</metadata>
<g transform="translate(0.000000,180.000000) scale(0.100000,-0.100000)"
fill="#000000" stroke="none">
<path d="M850 1593 c-193 -22 -353 -174 -394 -374 l-13 -64 36 -8 c136 -29
209 -65 282 -140 78 -79 139 -206 139 -289 0 -38 19 -44 93 -30 116 22 246
111 304 209 59 102 81 259 49 364 -46 151 -158 266 -303 312 -54 17 -140 26
-193 20z m172 -41 c163 -54 279 -185 310 -350 33 -175 -74 -373 -244 -452 -61
-29 -158 -54 -158 -41 0 3 -7 36 -15 74 -39 187 -198 345 -381 379 l-61 11 9
46 c19 105 110 232 207 289 106 62 229 78 333 44z"/>
<path d="M445 450 l0 -230 30 0 c94 0 230 64 301 142 75 81 124 191 124 275
l0 43 -227 0 -228 0 0 -230z m435 194 c0 -26 -35 -130 -57 -170 -60 -109 -186
-200 -306 -223 l-47 -8 0 203 0 204 205 0 c113 0 205 -3 205 -6z"/>
</g>
</svg>
