<?xml version="1.0" standalone="no"?>
<!DOCTYPE svg PUBLIC "-//W3C//DTD SVG 20010904//EN"
 "http://www.w3.org/TR/2001/REC-SVG-20010904/DTD/svg10.dtd">
<svg version="1.0" xmlns="http://www.w3.org/2000/svg"
 width="192.000000pt" height="192.000000pt" viewBox="0 0 192.000000 192.000000"
 preserveAspectRatio="xMidYMid meet">
<metadata>
Created by potrace 1.16, written by Peter Selinger 2001-2019
</metadata>
<g transform="translate(0.000000,192.000000) scale(0.100000,-0.100000)"
fill="#000000" stroke="none">
<path d="M0 1870 c0 -7 327 -10 960 -10 633 0 960 3 960 10 0 7 -327 10 -960
10 -633 0 -960 -3 -960 -10z"/>
<path d="M0 1840 c0 -7 327 -10 960 -10 633 0 960 3 960 10 0 7 -327 10 -960
10 -633 0 -960 -3 -960 -10z"/>
<path d="M1270 1796 c0 -9 -4 -16 -10 -16 -5 0 -10 -11 -10 -25 0 -18 5 -25
19 -25 15 0 19 7 19 35 0 19 -4 38 -9 41 -5 3 -9 -2 -9 -10z"/>
<path d="M1 1737 c0 -54 5 -65 109 -239 60 -101 125 -208 144 -239 20 -31 189
-312 376 -625 188 -313 347 -572 353 -576 32 -20 31 -21 190 262 36 63 120
212 187 330 67 118 141 249 164 290 23 41 122 215 219 385 122 214 177 320
177 340 -1 29 -2 28 -22 -15 -12 -25 -21 -48 -20 -52 1 -5 -2 -8 -6 -8 -8 0
-35 -46 -36 -63 -1 -4 -8 -12 -16 -17 -8 -5 -10 -10 -5 -10 6 0 5 -4 -2 -8 -6
-4 -13 -14 -15 -22 -2 -8 -11 -23 -20 -34 -10 -10 -15 -23 -12 -28 3 -4 0 -8
-5 -8 -6 0 -11 -9 -11 -19 0 -10 -7 -21 -15 -25 -8 -3 -15 -12 -15 -19 0 -8
-9 -26 -21 -41 -11 -14 -18 -26 -14 -26 3 0 -9 -24 -28 -53 -30 -47 -48 -83
-48 -97 0 -3 -7 -9 -15 -13 -8 -4 -14 -15 -14 -23 0 -9 -7 -22 -15 -31 -8 -8
-13 -19 -10 -24 4 -5 1 -9 -4 -9 -6 0 -21 -21 -33 -47 -12 -27 -25 -50 -28
-53 -4 -3 -20 -30 -36 -60 -16 -30 -31 -57 -34 -60 -5 -5 -43 -75 -64 -117 -6
-13 -14 -23 -18 -23 -5 0 -8 -6 -8 -13 0 -7 -11 -29 -25 -50 -14 -20 -23 -37
-20 -37 4 0 -4 -15 -17 -32 -13 -18 -23 -36 -23 -40 0 -4 -7 -16 -16 -26 -17
-20 -33 -53 -31 -64 1 -5 -3 -8 -8 -8 -9 0 -34 -49 -30 -59 1 -2 -5 -8 -14
-13 -9 -5 -14 -13 -11 -17 2 -5 -2 -14 -10 -21 -8 -7 -12 -16 -9 -21 3 -5 1
-9 -4 -9 -5 0 -12 -8 -16 -17 -3 -10 -11 -27 -18 -37 -43 -65 -67 -110 -62
-117 8 -14 -16 -10 -29 4 -7 7 -13 19 -15 27 -2 8 -8 20 -15 25 -7 6 -13 17
-15 25 -2 8 -8 20 -15 25 -7 6 -13 17 -15 25 -2 8 -8 20 -15 25 -7 6 -13 17
-15 25 -2 8 -10 20 -17 26 -8 6 -12 14 -8 17 3 4 1 7 -6 7 -7 0 -10 4 -7 8 3
5 -4 16 -15 25 -10 9 -19 24 -19 32 0 9 -9 25 -20 37 -11 12 -20 28 -20 35 0
7 -5 13 -11 13 -5 0 -7 4 -4 10 3 5 -3 17 -15 27 -11 10 -20 25 -20 35 0 10
-5 18 -10 18 -6 0 -14 8 -17 17 -6 15 -155 269 -183 313 -6 8 -14 25 -20 38
-5 12 -14 22 -20 22 -5 0 -10 9 -10 20 0 10 -7 23 -16 28 -8 5 -16 15 -17 23
-2 8 -17 39 -35 69 -81 135 -107 176 -119 188 -7 7 -13 20 -13 28 0 8 -3 14
-8 14 -4 0 -19 21 -32 47 -14 27 -32 53 -40 60 -8 7 -11 13 -6 13 5 0 -1 11
-14 25 -13 14 -20 25 -15 25 5 0 -2 11 -15 25 -13 14 -20 25 -16 25 5 0 2 7
-5 16 -14 17 -33 48 -45 74 -4 8 -18 32 -31 53 -13 21 -23 43 -21 48 2 5 219
-351 483 -791 264 -440 486 -802 494 -805 23 -9 36 10 127 173 48 87 249 440
446 786 236 414 358 637 356 652 -2 15 -55 -70 -173 -279 -93 -166 -204 -363
-246 -437 -346 -609 -489 -864 -489 -871 0 -5 -3 -9 -8 -9 -4 0 -207 334 -452
742 -245 408 -468 780 -497 826 l-52 85 0 -56z"/>
<path d="M462 1715 c-68 -18 -126 -35 -128 -37 -5 -5 167 -661 176 -671 6 -7
115 15 126 25 2 2 -12 62 -31 134 -19 71 -35 132 -35 135 0 4 26 12 59 19 89
19 130 46 163 109 30 56 38 135 19 184 -16 40 -73 99 -116 118 -55 25 -90 23
-233 -16z m252 -14 c85 -53 114 -172 65 -262 -30 -55 -71 -82 -145 -98 -33 -7
-66 -14 -75 -17 -14 -4 -11 -22 21 -142 l37 -137 -46 -12 c-25 -7 -46 -11 -48
-10 -1 2 -38 139 -82 306 -44 167 -83 311 -86 320 -4 13 17 22 113 48 134 37
191 38 246 4z"/>
<path d="M542 1611 c-35 -9 -63 -21 -63 -26 0 -22 34 -151 42 -159 13 -15 148
24 164 47 26 37 19 94 -14 128 -33 33 -41 34 -129 10z m118 -21 c20 -20 27
-83 12 -107 -7 -10 -131 -48 -137 -41 -7 7 -36 131 -31 135 6 6 97 31 119 32
9 1 26 -8 37 -19z"/>
<path d="M1139 1605 l-26 -115 28 0 c22 0 31 8 49 46 27 54 70 84 124 84 37 0
38 -1 33 -27 -2 -16 -22 -122 -43 -237 -21 -116 -44 -214 -52 -222 -7 -8 -29
-14 -48 -14 -30 0 -34 -3 -34 -25 0 -14 1 -25 3 -25 1 0 63 -11 137 -24 135
-23 149 -22 150 11 0 7 -16 19 -35 27 -28 12 -35 21 -35 42 0 27 79 466 85
472 8 8 86 -41 100 -62 9 -14 19 -50 22 -80 5 -53 7 -56 33 -56 27 0 27 1 43
112 8 62 15 113 14 114 -3 2 -511 94 -518 94 -3 0 -17 -52 -30 -115z m301 49
c118 -21 218 -40 221 -43 4 -3 1 -46 -7 -96 -7 -49 -14 -93 -14 -97 0 -5 -4
-8 -9 -8 -5 0 -11 22 -15 49 -3 27 -16 64 -29 82 -33 49 -123 95 -131 67 -2
-7 -23 -118 -47 -246 -45 -253 -45 -273 6 -292 28 -11 35 -34 8 -26 -10 2 -66
12 -125 22 -73 11 -108 21 -108 30 0 8 15 14 37 16 29 2 41 9 49 28 10 21 94
459 94 489 0 21 -95 13 -131 -12 -28 -19 -67 -72 -82 -112 -3 -5 -8 -7 -12 -3
-4 4 0 45 9 90 23 112 23 111 49 105 12 -3 119 -22 237 -43z"/>
<path d="M1272 1582 c-1 -7 -6 -11 -11 -7 -6 3 -11 -35 -13 -92 -4 -119 1
-193 13 -193 14 0 20 61 17 185 -2 66 -5 114 -6 107z m-5 -74 c-3 -8 -6 -5 -6
6 -1 11 2 17 5 13 3 -3 4 -12 1 -19z"/>
<path d="M873 1319 c-29 -15 -57 -70 -51 -102 7 -37 0 -34 -18 9 -12 27 -12
39 -3 50 30 37 -32 62 -64 26 -32 -35 -24 -61 65 -209 l49 -82 -21 -21 c-54
-54 42 -154 130 -135 66 14 116 104 93 166 -9 23 -7 33 11 61 93 138 112 204
65 228 -33 18 -52 5 -45 -31 5 -24 -3 -45 -38 -104 l-43 -74 -56 50 c-81 72
-87 129 -15 129 25 0 28 -3 26 -27 -2 -20 2 -28 15 -31 44 -9 63 50 27 83 -23
21 -96 29 -127 14z m96 -14 c34 -17 46 -42 30 -61 -18 -22 -32 -16 -25 10 7
29 -3 37 -46 38 -38 1 -72 -34 -63 -66 4 -12 40 -53 81 -93 77 -74 110 -129
100 -169 -4 -13 -20 -39 -37 -59 -27 -30 -37 -35 -76 -35 -36 0 -50 6 -74 30
-33 33 -37 82 -8 88 13 2 15 -3 11 -23 -3 -18 2 -33 18 -51 48 -50 130 -15
130 56 0 40 -28 77 -105 140 -47 38 -65 71 -65 115 0 30 6 47 23 62 38 35 65
40 106 18z m-184 -21 c-16 -12 -17 -17 -6 -41 14 -31 122 -206 147 -238 15
-20 15 -20 34 5 18 23 19 24 26 6 8 -21 -24 -87 -44 -94 -17 -5 -212 306 -212
338 0 19 39 50 56 43 15 -6 15 -7 -1 -19z m343 4 c20 -20 14 -42 -40 -138 -44
-80 -53 -91 -63 -76 -11 14 -5 30 36 99 49 82 58 107 39 107 -5 0 -10 5 -10
10 0 14 23 13 38 -2z m-170 -257 c-6 -28 -24 -19 -53 27 -43 68 -43 69 9 26
26 -21 45 -45 44 -53z m-18 -121 c9 0 24 14 34 31 10 17 21 28 24 25 3 -4 -3
-19 -15 -34 -28 -38 -65 -40 -92 -6 -31 39 -25 55 7 16 15 -18 34 -32 42 -32z"/>
<path d="M1241 1014 c0 -11 3 -14 6 -6 3 7 2 16 -1 19 -3 4 -6 -2 -5 -13z"/>
<path d="M1258 963 l-1 -68 -7 50 c-6 47 -7 45 -8 -28 -2 -70 0 -78 16 -75 14
3 17 17 19 96 2 55 -1 92 -7 92 -6 0 -11 -30 -12 -67z"/>
<path d="M752 698 c3 -106 4 -111 26 -114 20 -4 22 0 22 50 0 53 0 53 30 52
29 -1 30 -2 30 -54 0 -50 2 -53 23 -50 21 3 22 7 25 116 l3 112 -26 0 c-23 0
-25 -3 -25 -50 0 -49 -1 -50 -30 -50 -29 0 -30 1 -30 50 0 47 -2 50 -25 50
l-26 0 3 -112z"/>
<path d="M965 794 c-12 -13 -16 -34 -14 -97 2 -101 15 -118 86 -110 26 2 54 9
61 15 8 7 12 39 12 93 0 67 -3 85 -18 98 -25 22 -105 23 -127 1z m95 -99 l0
-85 -30 0 -30 0 0 85 0 85 30 0 30 0 0 -85z"/>
<path d="M1152 698 c3 -109 4 -113 26 -116 21 -3 22 0 22 52 l0 56 30 -6 c23
-5 30 -3 30 10 0 11 -9 16 -30 16 -28 0 -30 3 -30 35 0 34 1 35 40 35 29 0 40
4 40 15 0 12 -14 15 -65 15 l-66 0 3 -112z"/>
<path d="M1261 744 c0 -11 3 -14 6 -6 3 7 2 16 -1 19 -3 4 -6 -2 -5 -13z"/>
<path d="M920 433 c2 -31 70 -199 82 -201 16 -3 19 3 63 122 27 74 29 86 16
86 -4 0 -23 -41 -41 -91 -18 -49 -35 -88 -38 -84 -3 3 -18 42 -32 87 -15 45
-32 84 -38 86 -7 2 -12 0 -12 -5z"/>
<path d="M980 395 c0 -41 2 -45 25 -45 14 0 25 5 25 10 0 6 -9 10 -20 10 -27
0 -25 18 3 23 l22 4 -22 2 c-32 2 -29 21 3 21 14 0 23 4 19 10 -3 6 -17 10
-31 10 -22 0 -24 -4 -24 -45z"/>
</g>
</svg>
