<?xml version="1.0" standalone="no"?>
<!DOCTYPE svg PUBLIC "-//W3C//DTD SVG 20010904//EN"
 "http://www.w3.org/TR/2001/REC-SVG-20010904/DTD/svg10.dtd">
<svg version="1.0" xmlns="http://www.w3.org/2000/svg"
 width="100.000000pt" height="100.000000pt" viewBox="0 0 100.000000 100.000000"
 preserveAspectRatio="xMidYMid meet">
<metadata>
Created by potrace 1.16, written by Peter Selinger 2001-2019
</metadata>
<g transform="translate(0.000000,100.000000) scale(0.100000,-0.100000)"
fill="#000000" stroke="none">
<path d="M263 993 c-20 -3 -33 -10 -33 -19 0 -9 -11 -14 -30 -14 -20 0 -30 -5
-30 -15 0 -8 -7 -15 -15 -15 -8 0 -15 -9 -15 -20 0 -11 -7 -20 -15 -20 -8 0
-15 -7 -15 -15 0 -8 -9 -15 -20 -15 -11 0 -20 -7 -20 -15 0 -8 -7 -15 -15 -15
-10 0 -15 -10 -15 -30 0 -20 -5 -30 -15 -30 -9 0 -15 -9 -15 -24 0 -13 -3 -31
-6 -40 -4 -11 -1 -16 10 -16 11 0 16 9 16 30 0 20 5 30 15 30 10 0 15 10 15
30 0 20 5 30 15 30 8 0 15 7 15 15 0 8 9 15 20 15 11 0 20 7 20 15 0 8 7 15
15 15 8 0 15 9 15 20 0 11 7 20 15 20 8 0 15 7 15 15 0 10 10 15 30 15 20 0
30 5 30 15 0 10 10 15 30 15 20 0 30 5 30 15 0 8 -3 14 -7 13 -5 0 -23 -3 -40
-5z"/>
<path d="M690 986 c0 -11 9 -16 30 -16 20 0 30 -5 30 -15 0 -10 10 -15 30 -15
20 0 30 -5 30 -15 0 -8 7 -15 15 -15 8 0 15 -9 15 -20 0 -11 7 -20 15 -20 8 0
15 -7 15 -15 0 -8 9 -15 20 -15 11 0 20 -7 20 -15 0 -8 7 -15 15 -15 10 0 15
-10 15 -30 0 -20 5 -30 15 -30 10 0 15 -10 15 -30 0 -21 5 -30 16 -30 11 0 14
5 10 16 -3 9 -6 27 -6 40 0 15 -6 24 -15 24 -10 0 -15 10 -15 30 0 20 -5 30
-15 30 -8 0 -15 7 -15 15 0 8 -9 15 -20 15 -11 0 -20 7 -20 15 0 8 -7 15 -15
15 -8 0 -15 9 -15 20 0 11 -7 20 -15 20 -8 0 -15 7 -15 15 0 10 -10 15 -30 15
-20 0 -30 5 -30 15 0 9 -9 15 -24 15 -13 0 -31 3 -40 6 -11 4 -16 1 -16 -10z"/>
<path d="M260 755 c0 -8 -7 -15 -15 -15 -8 0 -15 -6 -15 -14 0 -8 -7 -16 -15
-20 -12 -4 -15 -23 -15 -85 0 -70 10 -106 23 -84 2 5 3 4 2 -2 -6 -26 15 -55
40 -55 15 0 33 -7 41 -15 9 -8 25 -15 37 -15 12 0 29 -5 37 -11 12 -9 12 -10
-3 -5 -13 4 -20 0 -24 -14 -3 -11 -12 -20 -19 -20 -12 0 -20 -34 -15 -63 1 -5
-3 -6 -9 -2 -5 3 -15 -4 -20 -17 -5 -13 -15 -30 -22 -40 -9 -13 -9 -20 1 -32
18 -22 161 -23 161 -2 0 8 7 16 15 20 8 3 15 17 15 31 0 16 6 25 15 25 8 0 15
9 15 19 0 11 5 23 10 26 6 4 10 -15 10 -49 0 -41 4 -56 14 -56 8 0 16 -7 20
-15 8 -22 196 -22 196 0 0 8 7 15 15 15 8 0 15 6 15 14 0 8 7 16 15 20 20 7
22 158 2 178 -7 7 -16 21 -20 31 -4 10 -17 17 -32 17 -15 0 -33 7 -41 15 -9 8
-28 15 -44 15 -16 0 -32 5 -35 10 -4 6 -1 9 7 8 7 -2 14 7 16 20 2 12 10 22
18 22 16 0 35 39 26 54 -3 5 0 6 6 2 7 -4 16 2 22 16 5 13 15 30 22 40 9 13 9
20 -1 32 -18 22 -161 23 -161 2 0 -8 -7 -16 -15 -20 -8 -3 -15 -17 -15 -31 0
-15 -6 -25 -14 -25 -7 0 -17 -10 -22 -22 -6 -18 -8 -11 -11 30 -3 37 -8 52
-19 52 -7 0 -14 7 -14 15 0 12 -18 15 -100 15 -82 0 -100 -3 -100 -15z m180
-15 c0 -5 -7 -7 -15 -4 -8 4 -15 1 -15 -5 0 -6 7 -11 15 -11 8 0 15 -7 15 -15
0 -8 5 -15 11 -15 6 0 9 7 5 15 -3 8 -1 15 4 15 5 0 10 -38 12 -83 3 -76 1
-83 -14 -79 -12 3 -18 -1 -18 -12 0 -9 -7 -16 -15 -16 -8 0 -15 -5 -15 -11 0
-6 7 -9 15 -5 8 3 15 1 15 -4 0 -6 7 -10 15 -10 8 0 15 7 15 15 0 8 7 15 15
15 10 0 15 10 15 30 0 20 5 30 15 30 10 0 15 11 15 35 0 19 4 35 10 35 5 0 7
-7 4 -15 -4 -8 -1 -15 5 -15 6 0 11 14 11 30 0 20 5 30 15 30 10 0 15 10 15
30 0 29 1 30 50 30 49 0 50 -1 50 -30 0 -16 -4 -30 -10 -30 -5 0 -10 8 -10 19
0 13 -9 20 -30 23 -17 3 -33 1 -36 -4 -3 -4 9 -8 25 -8 28 0 31 -3 31 -30 0
-23 -4 -30 -20 -30 -16 0 -20 -7 -20 -35 0 -24 -5 -35 -15 -35 -8 0 -15 -7
-15 -15 0 -8 -7 -15 -15 -15 -10 0 -15 -10 -15 -30 l0 -30 80 0 c64 0 80 -3
80 -15 0 -8 7 -15 15 -15 12 0 15 -17 15 -95 l0 -95 -30 0 c-16 0 -30 -4 -30
-10 0 -5 7 -7 15 -4 8 4 15 1 15 -5 0 -7 -28 -11 -80 -11 -45 0 -80 4 -80 10
0 5 7 7 15 4 8 -4 15 -1 15 5 0 6 -7 11 -15 11 -8 0 -15 7 -15 15 0 8 -5 15
-11 15 -6 0 -9 -7 -5 -15 3 -8 1 -15 -4 -15 -5 0 -10 38 -12 83 -3 76 -1 83
15 79 11 -3 17 1 17 12 0 9 7 16 15 16 8 0 15 5 15 11 0 6 -7 9 -15 5 -8 -3
-15 -1 -15 4 0 6 -7 10 -15 10 -8 0 -15 -7 -15 -15 0 -8 -7 -15 -15 -15 -10 0
-15 -10 -15 -30 0 -20 -5 -30 -15 -30 -10 0 -15 -11 -15 -35 0 -19 -5 -35 -11
-35 -6 0 -8 9 -4 20 4 11 2 20 -4 20 -6 0 -11 -16 -11 -35 0 -24 -5 -35 -15
-35 -10 0 -15 -10 -15 -30 0 -29 -1 -30 -50 -30 -49 0 -50 1 -50 30 0 17 5 30
10 30 6 0 10 -8 10 -19 0 -21 48 -36 65 -20 5 5 -3 9 -23 9 -29 0 -32 3 -32
30 0 20 5 30 15 30 10 0 15 11 15 35 0 28 4 35 20 35 16 0 20 7 20 30 0 17 4
30 10 30 5 0 7 -7 4 -15 -4 -8 -1 -15 5 -15 6 0 11 14 11 30 l0 30 -80 0 c-64
0 -80 3 -80 15 0 8 -7 15 -15 15 -12 0 -15 17 -15 95 l0 95 30 0 c17 0 30 4
30 10 0 5 -7 7 -15 4 -8 -4 -15 -1 -15 5 0 7 28 11 80 11 45 0 80 -4 80 -10z
m277 -12 c-3 -8 -6 -5 -6 6 -1 11 2 17 5 13 3 -3 4 -12 1 -19z m-481 -108 c2
-33 -1 -60 -6 -60 -6 0 -10 30 -10 67 0 81 12 76 16 -7z m424 20 c0 -5 -4 -10
-10 -10 -5 0 -10 5 -10 10 0 6 5 10 10 10 6 0 10 -4 10 -10z m-70 -100 c0 -5
-5 -10 -11 -10 -5 0 -7 5 -4 10 3 6 8 10 11 10 2 0 4 -4 4 -10z m88 -17 c-10
-2 -28 -2 -40 0 -13 2 -5 4 17 4 22 1 32 -1 23 -4z m-413 -13 c3 -5 1 -10 -4
-10 -6 0 -11 5 -11 10 0 6 2 10 4 10 3 0 8 -4 11 -10z m485 -20 c0 -5 -2 -10
-4 -10 -3 0 -8 5 -11 10 -3 6 -1 10 4 10 6 0 11 -4 11 -10z m-392 -17 c-10 -2
-26 -2 -35 0 -10 3 -2 5 17 5 19 0 27 -2 18 -5z m422 -100 c0 -36 -3 -63 -7
-60 -10 11 -13 127 -2 127 5 0 9 -30 9 -67z m-426 -8 c-4 -8 -8 -15 -10 -15
-2 0 -4 7 -4 15 0 8 4 15 10 15 5 0 7 -7 4 -15z m-67 -107 c-3 -8 -6 -5 -6 6
-1 11 2 17 5 13 3 -3 4 -12 1 -19z"/>
<path d="M338 723 c12 -2 32 -2 45 0 12 2 2 4 -23 4 -25 0 -35 -2 -22 -4z"/>
<path d="M265 700 c-3 -5 -1 -10 4 -10 6 0 11 5 11 10 0 6 -2 10 -4 10 -3 0
-8 -4 -11 -10z"/>
<path d="M310 625 l0 -65 30 0 30 0 0 65 0 65 -30 0 -30 0 0 -65z m30 45 c0
-5 -5 -10 -11 -10 -5 0 -7 5 -4 10 3 6 8 10 11 10 2 0 4 -4 4 -10z m10 -51 c0
-11 -4 -17 -10 -14 -5 3 -10 13 -10 21 0 8 5 14 10 14 6 0 10 -9 10 -21z"/>
<path d="M385 680 c3 -5 10 -10 16 -10 5 0 9 5 9 10 0 6 -7 10 -16 10 -8 0
-12 -4 -9 -10z"/>
<path d="M283 625 c0 -22 2 -30 4 -17 2 12 2 30 0 40 -3 9 -5 -1 -4 -23z"/>
<path d="M385 625 c0 -19 4 -35 9 -35 5 0 3 -7 -4 -15 -10 -12 -10 -15 4 -15
13 0 16 11 16 50 0 33 -4 50 -12 50 -8 0 -13 -14 -13 -35z"/>
<path d="M590 615 c0 -8 2 -15 4 -15 2 0 6 7 10 15 3 8 1 15 -4 15 -6 0 -10
-7 -10 -15z"/>
<path d="M355 530 c27 -12 43 -12 25 0 -8 5 -22 9 -30 9 -10 0 -8 -3 5 -9z"/>
<path d="M530 519 c0 -5 5 -7 10 -4 6 3 10 8 10 11 0 2 -4 4 -10 4 -5 0 -10
-5 -10 -11z"/>
<path d="M455 480 c-3 -5 -1 -10 4 -10 6 0 11 5 11 10 0 6 -2 10 -4 10 -3 0
-8 -4 -11 -10z"/>
<path d="M618 468 c6 -6 18 -8 28 -6 14 3 12 5 -9 10 -19 3 -25 2 -19 -4z"/>
<path d="M590 390 c0 -28 5 -50 11 -50 6 0 9 20 7 50 -4 65 -18 65 -18 0z"/>
<path d="M620 375 l0 -65 35 0 35 0 0 65 0 65 -35 0 -35 0 0 -65z m50 -1 c0
-8 -7 -14 -15 -14 -10 0 -15 10 -15 26 0 22 2 25 15 14 8 -7 15 -19 15 -26z
m3 -41 c-7 -2 -19 -2 -25 0 -7 3 -2 5 12 5 14 0 19 -2 13 -5z"/>
<path d="M713 375 c0 -22 2 -30 4 -17 2 12 2 30 0 40 -3 9 -5 -1 -4 -23z"/>
<path d="M390 390 c0 -5 5 -10 10 -10 6 0 10 5 10 10 0 6 -4 10 -10 10 -5 0
-10 -4 -10 -10z"/>
<path d="M590 320 c0 -5 5 -10 11 -10 5 0 7 5 4 10 -3 6 -8 10 -11 10 -2 0 -4
-4 -4 -10z"/>
<path d="M720 299 c0 -5 5 -7 10 -4 6 3 10 8 10 11 0 2 -4 4 -10 4 -5 0 -10
-5 -10 -11z"/>
<path d="M618 273 c12 -2 32 -2 45 0 12 2 2 4 -23 4 -25 0 -35 -2 -22 -4z"/>
<path d="M4 294 c3 -9 6 -27 6 -40 0 -15 6 -24 15 -24 10 0 15 -10 15 -30 0
-20 5 -30 15 -30 8 0 15 -7 15 -15 0 -8 9 -15 20 -15 11 0 20 -7 20 -15 0 -8
7 -15 15 -15 8 0 15 -9 15 -20 0 -11 7 -20 15 -20 8 0 15 -7 15 -15 0 -10 10
-15 30 -15 20 0 30 -5 30 -15 0 -9 9 -15 24 -15 13 0 31 -3 40 -6 11 -4 16 -1
16 10 0 11 -9 16 -30 16 -20 0 -30 5 -30 15 0 10 -10 15 -30 15 -20 0 -30 5
-30 15 0 8 -7 15 -15 15 -8 0 -15 9 -15 20 0 11 -7 20 -15 20 -8 0 -15 7 -15
15 0 8 -9 15 -20 15 -11 0 -20 7 -20 15 0 8 -7 15 -15 15 -10 0 -15 10 -15 30
0 20 -5 30 -15 30 -10 0 -15 10 -15 30 0 21 -5 30 -16 30 -11 0 -14 -5 -10
-16z"/>
<path d="M970 280 c0 -20 -5 -30 -15 -30 -10 0 -15 -10 -15 -30 0 -20 -5 -30
-15 -30 -8 0 -15 -7 -15 -15 0 -8 -9 -15 -20 -15 -11 0 -20 -7 -20 -15 0 -8
-7 -15 -15 -15 -8 0 -15 -9 -15 -20 0 -11 -7 -20 -15 -20 -8 0 -15 -7 -15 -15
0 -10 -10 -15 -30 -15 -20 0 -30 -5 -30 -15 0 -10 -10 -15 -30 -15 -21 0 -30
-5 -30 -16 0 -11 5 -14 16 -10 9 3 27 6 40 6 15 0 24 6 24 15 0 10 10 15 30
15 20 0 30 5 30 15 0 8 7 15 15 15 8 0 15 9 15 20 0 11 7 20 15 20 8 0 15 7
15 15 0 8 9 15 20 15 11 0 20 7 20 15 0 8 7 15 15 15 10 0 15 10 15 30 0 20 5
30 15 30 9 0 15 9 15 24 0 13 3 31 6 40 4 11 1 16 -10 16 -11 0 -16 -9 -16
-30z"/>
</g>
</svg>
