<?xml version="1.0" standalone="no"?>
<!DOCTYPE svg PUBLIC "-//W3C//DTD SVG 20010904//EN"
 "http://www.w3.org/TR/2001/REC-SVG-20010904/DTD/svg10.dtd">
<svg version="1.0" xmlns="http://www.w3.org/2000/svg"
 width="114.000000pt" height="132.000000pt" viewBox="0 0 114.000000 132.000000"
 preserveAspectRatio="xMidYMid meet">
<metadata>
Created by potrace 1.16, written by Peter Selinger 2001-2019
</metadata>
<g transform="translate(0.000000,132.000000) scale(0.100000,-0.100000)"
fill="#000000" stroke="none">
<path d="M405 1291 c0 -15 5 -28 11 -28 6 0 11 7 10 16 -1 9 6 15 15 13 9 -1
23 6 30 15 13 17 12 17 -4 4 -16 -13 -20 -13 -28 0 -7 11 -9 11 -9 0 0 -10 -3
-11 -13 -3 -10 9 -13 5 -12 -17z"/>
<path d="M660 1316 c0 -2 7 -7 16 -10 8 -3 12 -2 9 4 -6 10 -25 14 -25 6z"/>
<path d="M850 1316 c0 -2 11 -6 25 -8 13 -3 22 -1 19 3 -5 9 -44 13 -44 5z"/>
<path d="M493 1275 c-65 -44 -117 -96 -158 -160 -49 -77 -56 -105 -33 -138 11
-15 18 -34 15 -41 -3 -8 1 -22 8 -33 20 -25 18 -53 -2 -59 -10 -3 -32 -12 -50
-21 l-31 -15 26 -23 c15 -13 24 -26 21 -30 -4 -3 -21 6 -38 21 -29 24 -35 25
-56 14 -13 -7 -26 -20 -28 -29 -4 -14 -5 -14 -6 1 -1 9 24 33 60 58 47 32 67
40 88 36 25 -6 25 -6 7 9 -24 18 -49 12 -94 -24 -87 -69 -82 -56 -83 -203 -1
-73 -2 -167 -2 -208 l1 -75 71 -3 72 -3 -3 196 c-2 107 0 195 4 195 3 0 8 -71
10 -157 3 -145 5 -163 29 -213 l26 -55 -106 3 c-91 3 -109 7 -135 27 -62 47
-120 45 -87 -3 11 -15 22 -44 26 -65 9 -56 31 -65 175 -71 158 -6 168 -9 162
-47 -4 -27 -5 -28 -18 -12 -17 23 -18 36 -1 27 9 -5 9 -4 0 6 -10 11 -16 10
-35 -6 -19 -16 -20 -16 -9 -1 8 9 11 20 8 23 -3 3 -13 -5 -21 -19 -16 -23 -15
-28 16 -90 20 -39 41 -68 53 -71 11 -3 106 -6 212 -6 l192 0 32 66 c28 57 31
70 22 95 l-11 29 112 0 c129 0 136 4 160 84 8 26 22 56 31 66 38 42 -36 36
-94 -7 -30 -23 -41 -26 -115 -24 -45 1 -92 -2 -106 -8 -19 -7 -2 -10 75 -11
55 -1 117 -3 138 -4 38 -3 40 9 3 16 -14 2 -4 11 35 31 48 25 50 20 3 -9 -18
-10 -18 -12 -1 -28 19 -19 23 -31 7 -21 -6 3 -10 -4 -10 -18 0 -42 -19 -48
-169 -50 -117 -3 -144 -6 -158 -20 -14 -14 -15 -22 -6 -46 l11 -29 -164 -2
c-153 -1 -187 5 -153 26 7 4 9 22 6 46 -5 36 -4 38 11 24 10 -8 41 -26 71 -39
49 -23 56 -24 91 -12 44 16 120 64 120 76 0 13 -2 12 -40 -16 -19 -14 -38 -25
-42 -25 -4 0 -8 31 -8 70 0 67 1 70 26 76 32 8 52 -10 57 -52 2 -16 7 -35 11
-42 4 -7 0 -22 -8 -34 -18 -26 -20 -56 -6 -78 7 -11 9 -7 5 15 -4 22 3 44 24
80 53 91 83 158 89 197 7 57 21 46 24 -19 l3 -58 63 -1 c34 -1 65 3 69 9 10
16 3 348 -8 394 -9 35 -17 44 -48 56 -20 8 -45 24 -55 36 -21 23 -65 28 -84 9
-16 -16 -15 -3 2 35 8 18 16 41 19 52 3 11 11 34 18 51 11 27 9 36 -12 79 -45
92 -201 235 -256 235 -10 0 -42 -16 -70 -35z m87 -5 c0 -5 7 -10 15 -10 12 0
14 -23 12 -140 l-2 -139 45 -11 c82 -19 139 -36 146 -43 4 -4 3 -7 -3 -7 -6 0
-14 -16 -17 -35 -4 -19 -11 -37 -16 -40 -9 -6 -8 6 5 58 4 16 3 27 -3 27 -5 0
-12 -18 -16 -40 -6 -40 -7 -40 -30 -25 -13 9 -31 12 -41 9 -10 -4 -20 -1 -25
7 -6 9 -32 13 -92 12 -97 0 -138 -7 -149 -25 -10 -16 -23 15 -17 40 4 12 -1
18 -14 19 -14 1 -18 -3 -13 -17 12 -38 15 -70 7 -70 -4 0 -15 23 -23 50 -15
46 -14 50 1 50 10 0 34 7 54 15 20 9 55 17 77 18 l41 2 -3 145 -4 144 25 7
c36 10 40 10 40 -1z m-82 -152 l3 -113 -79 -25 c-78 -26 -93 -25 -100 8 -5 26
63 143 112 192 27 27 52 50 56 50 3 0 7 -51 8 -112z m221 32 c28 -30 31 -31
17 -7 -23 39 -13 34 20 -10 15 -21 20 -32 11 -24 -23 18 -22 5 3 -29 35 -49
42 -78 24 -105 l-15 -23 -75 25 -74 25 0 116 0 115 28 -24 c15 -13 42 -39 61
-59z m-386 -85 c-9 -19 -18 -33 -21 -31 -4 5 26 66 33 66 3 0 -3 -16 -12 -35z
m217 -204 c0 -4 -21 -11 -46 -15 -67 -9 -96 -8 -89 4 4 6 10 8 14 6 4 -3 29
-1 57 3 27 5 52 9 57 10 4 0 7 -3 7 -8z m144 -12 c6 -5 -4 -9 -25 -9 -53 0
-112 12 -99 20 15 9 112 0 124 -11z m181 -19 c21 -16 43 -30 50 -30 6 0 20
-10 31 -22 19 -23 19 -23 -2 -5 -27 23 -57 22 -79 -3 -28 -30 -37 -24 -33 23
2 38 0 42 -21 45 -19 3 -21 6 -10 13 20 13 22 12 64 -21z m-61 -9 c-11 -11
-143 -19 -147 -9 -4 13 -47 -4 -47 -18 0 -8 -4 -14 -10 -14 -5 0 -10 6 -10 14
0 8 -5 18 -12 22 -8 5 -9 -2 -5 -23 8 -39 -2 -73 -20 -73 -11 0 -13 6 -8 23 7
22 9 57 3 62 -4 5 -73 7 -160 6 l-78 -1 0 -37 c0 -31 12 -40 16 -12 1 5 2 13
3 18 0 5 10 11 20 14 14 3 20 -2 24 -19 2 -12 0 -27 -6 -33 -6 -6 6 -19 34
-36 24 -15 46 -29 47 -31 2 -1 0 -10 -5 -19 -8 -13 -17 -8 -57 35 -39 42 -45
54 -36 65 8 9 8 15 2 15 -19 0 -22 -33 -6 -58 11 -17 12 -22 3 -17 -8 4 -3 -3
11 -14 14 -11 21 -21 15 -21 -19 0 -38 18 -51 47 -12 28 -12 28 -14 -17 -1
-25 -2 -53 -1 -62 1 -10 -3 -18 -8 -18 -12 0 -16 202 -4 213 3 4 121 7 262 7
155 0 251 -4 245 -9z m-530 -16 c-4 -8 -10 -12 -15 -9 -11 6 -2 24 11 24 5 0
7 -7 4 -15z m188 -35 c3 -16 1 -30 -4 -30 -4 0 -8 7 -8 15 0 15 -30 35 -52 34
-7 0 -3 -5 10 -11 12 -6 22 -15 22 -20 0 -5 12 -20 27 -34 14 -13 24 -27 21
-29 -9 -9 -58 17 -58 31 0 7 -9 22 -21 33 -27 25 -17 41 25 41 30 0 34 -4 38
-30z m37 -9 c19 -36 19 -51 0 -51 -4 0 -10 12 -13 28 -4 15 -9 35 -12 45 -9
30 5 18 25 -22z m31 19 c8 -16 8 -20 -4 -20 -10 0 -13 6 -9 17 4 11 3 14 -5 9
-7 -4 -12 -2 -12 3 0 18 19 12 30 -9z m95 -30 c-10 -22 -21 -40 -25 -40 -19 0
-16 16 7 51 32 49 42 43 18 -11z m69 38 c-5 -8 0 -9 14 -6 27 7 27 4 5 -22
-45 -52 -66 -68 -79 -63 -23 8 -16 23 15 34 27 10 48 36 37 46 -8 8 -27 -8
-21 -17 3 -4 -2 -10 -10 -14 -21 -8 -19 10 5 34 21 21 46 28 34 8z m107 -1
c-6 -6 -6 -19 0 -34 5 -14 6 -30 2 -36 -4 -6 -6 -23 -5 -38 2 -21 -5 -29 -37
-43 -39 -18 -88 -19 -84 -1 1 6 25 12 52 15 27 3 53 9 58 14 4 5 -7 6 -27 3
l-35 -7 29 26 c43 38 26 38 -31 -1 -37 -25 -53 -31 -62 -22 -8 8 -11 8 -11 -2
0 -11 -3 -11 -17 0 -15 11 -16 11 -5 -1 13 -15 17 -50 5 -50 -5 1 -28 5 -53
10 -32 6 -57 4 -88 -7 -24 -8 -46 -13 -48 -10 -12 11 22 69 51 87 36 22 91 28
79 8 -5 -8 -2 -9 10 -5 10 4 27 1 38 -7 18 -13 27 -11 84 15 35 15 71 26 79
23 8 -4 15 -1 15 5 0 13 -57 10 -79 -3 -25 -16 -20 2 9 33 17 17 35 29 40 26
6 -4 10 -2 10 3 0 5 7 9 15 9 10 0 12 -4 6 -10z m-601 -38 c0 -5 -4 -9 -10 -9
-5 0 -10 7 -10 16 0 8 5 12 10 9 6 -3 10 -10 10 -16z m699 9 c-3 -28 2 -38 21
-38 20 0 47 -46 35 -58 -3 -3 -5 1 -5 8 0 9 -11 11 -40 7 -42 -5 -50 2 -25 23
9 8 12 17 6 24 -11 14 -10 46 1 46 5 0 8 -6 7 -12z m-499 -23 c0 -8 -4 -15 -9
-15 -13 0 -22 16 -14 24 11 11 23 6 23 -9z m470 5 c0 -5 -5 -10 -11 -10 -5 0
-7 5 -4 10 3 6 8 10 11 10 2 0 4 -4 4 -10z m-620 -28 c0 -15 -6 -18 -30 -14
-17 2 -37 -1 -45 -8 -9 -7 -19 -10 -23 -6 -12 13 38 46 69 46 21 0 29 -5 29
-18z m590 -107 c0 -69 -3 -125 -7 -125 -5 0 -7 56 -5 125 2 69 5 125 8 125 2
0 4 -56 4 -125z m30 105 c0 -5 -2 -10 -4 -10 -3 0 -8 5 -11 10 -3 6 -1 10 4
10 6 0 11 -4 11 -10z m-620 -104 c0 -70 -1 -74 -24 -80 -14 -3 -36 -2 -50 3
-18 7 -26 7 -29 -2 -2 -7 -3 1 -1 17 2 16 4 46 4 67 l0 39 48 2 47 2 -50 4
c-38 3 -45 6 -30 12 11 5 35 9 53 9 l32 1 0 -74z m140 40 c25 -1 36 -6 38 -19
3 -15 -1 -17 -25 -12 -47 11 -83 27 -83 37 0 6 7 7 18 2 9 -4 33 -8 52 -8z
m280 -36 c0 -13 -1 -13 -10 0 -5 8 -10 22 -10 30 0 13 1 13 10 0 5 -8 10 -22
10 -30z m279 26 c7 -8 11 -30 9 -48 -3 -32 -5 -33 -51 -36 l-48 -3 3 48 c3 47
3 48 39 51 22 1 41 -3 48 -12z m-144 -16 c-3 -5 -10 -10 -16 -10 -5 0 -9 5 -9
10 0 6 7 10 16 10 8 0 12 -4 9 -10z m-403 -26 c29 -15 36 -15 89 1 37 12 67
15 86 10 28 -8 87 -9 162 -3 26 2 46 -3 58 -14 19 -17 30 -63 12 -53 -5 4 -9
1 -9 -6 0 -8 -4 -8 -12 -1 -7 5 -35 8 -63 7 -36 -3 -43 -1 -24 4 14 5 43 7 64
5 26 -2 34 1 27 8 -12 12 -40 13 -113 1 -43 -7 -58 -6 -65 4 -12 17 -57 18
-131 3 -49 -11 -69 -11 -102 -1 -29 8 -47 9 -60 1 -27 -14 -31 -13 -31 10 0
37 61 50 112 24z m183 -44 c-19 -8 -19 -9 -1 -9 11 -1 17 -4 13 -7 -3 -4 -20
-2 -36 4 -25 9 -43 7 -93 -10 -41 -14 -63 -18 -66 -10 -2 6 -10 8 -18 5 -8 -3
-14 0 -14 6 0 6 -15 11 -32 11 -20 0 -28 -3 -21 -8 9 -6 7 -11 -7 -20 -16 -10
-20 -10 -20 1 0 35 43 46 109 27 27 -8 47 -7 81 4 50 16 140 21 105 6z m85
-19 c0 -17 -17 -21 -42 -11 -21 10 -21 10 5 5 19 -4 26 -2 22 5 -3 5 -1 10 4
10 6 0 11 -4 11 -9z m290 -8 c0 -14 -56 -18 -84 -7 -30 11 -16 19 34 19 33 0
50 -4 50 -12z m-356 -19 c42 -14 56 -15 102 -4 47 11 56 11 79 -4 14 -9 25
-23 25 -31 0 -26 -46 -142 -67 -169 l-20 -26 0 25 c0 16 5 25 16 25 14 0 14 2
1 9 -8 6 -19 7 -25 3 -5 -3 -3 3 5 13 11 14 12 17 1 11 -9 -6 -12 -5 -9 4 7
21 28 24 28 4 0 -15 2 -16 13 -5 10 11 10 14 0 18 -7 3 -13 12 -13 20 0 13 -3
13 -15 3 -10 -9 -15 -9 -15 -1 0 6 -5 11 -11 11 -5 0 -7 -4 -4 -10 4 -6 -9
-11 -32 -12 l-38 -1 38 -4 c24 -3 37 -9 37 -19 0 -12 -4 -13 -21 -3 -12 6 -30
9 -40 6 -14 -4 -19 0 -19 14 0 24 -38 59 -66 59 -28 0 -69 -22 -70 -37 -1 -7
-2 -17 -2 -23 -1 -5 -17 -10 -36 -10 -19 0 -41 -6 -49 -14 -7 -8 -19 -11 -26
-7 -7 5 -3 12 13 21 14 7 23 17 20 22 -3 4 0 8 6 8 6 0 8 5 5 10 -12 19 -35
11 -32 -11 2 -25 -18 -37 -26 -15 -4 11 -1 13 11 9 14 -5 15 -3 5 8 -25 26
-16 38 21 28 38 -10 78 -8 87 5 10 13 109 21 109 8 0 -6 36 -9 100 -8 55 1
100 7 100 12 0 5 -42 10 -93 10 -50 1 -108 4 -127 8 -21 5 -57 2 -91 -7 -43
-12 -65 -13 -96 -4 -69 18 -76 8 -48 -64 14 -33 29 -67 36 -75 6 -7 9 -19 7
-26 -7 -19 -67 111 -74 160 -7 48 -14 45 96 47 41 1 91 6 110 12 19 6 38 11
41 12 3 1 27 -6 53 -15z m-348 -40 c-3 -9 -7 -37 -7 -62 -2 -46 -2 -46 -9 -12
-5 25 -9 31 -14 19 -4 -9 -6 -22 -4 -30 2 -9 -9 -13 -39 -14 l-43 0 0 43 c0
43 19 61 21 20 1 -22 1 -22 9 2 6 17 8 19 9 7 1 -15 4 -16 24 -6 12 7 24 10
27 8 3 -2 6 4 8 15 3 16 -2 18 -47 15 -28 -2 -51 -1 -51 4 0 4 27 7 61 7 52 0
60 -2 55 -16z m713 -39 c-1 -30 -5 -55 -10 -55 -5 0 -9 9 -9 20 0 11 -5 20
-10 20 -6 0 -10 -8 -8 -17 2 -14 -5 -19 -34 -21 l-38 -3 0 40 c0 24 5 41 11
41 6 0 9 -9 6 -20 -3 -11 -1 -20 4 -20 5 0 9 9 9 21 0 11 4 18 10 14 5 -3 7
-12 4 -20 -5 -12 -1 -12 20 -2 14 7 26 19 26 28 0 14 -8 16 -44 12 -26 -3 -46
-1 -50 6 -5 8 11 11 53 11 l60 0 0 -55z m-622 -7 c-3 -8 -6 -5 -6 6 -1 11 2
17 5 13 3 -3 4 -12 1 -19z m243 -18 c6 -11 11 -64 12 -117 l1 -97 -27 -7 c-15
-4 -39 -4 -52 1 -23 9 -24 13 -24 105 0 53 5 105 10 116 15 26 66 26 80 -1z
m-516 -69 c-2 -3 -12 3 -22 13 -16 17 -16 18 5 5 12 -7 20 -15 17 -18z m-24
-17 c0 -18 9 -18 32 3 10 9 18 11 18 5 0 -6 -5 -12 -10 -14 -5 -1 46 -3 114
-3 118 0 126 -1 150 -24 25 -24 36 -48 16 -36 -5 3 -10 1 -10 -5 0 -7 7 -10
15 -6 15 5 42 -30 31 -42 -3 -3 -6 -1 -6 5 0 17 -36 22 -178 24 -120 1 -133 3
-143 20 -5 11 -7 30 -4 42 6 20 5 21 -8 5 -13 -16 -15 -14 -30 23 -13 34 -14
39 -2 29 8 -7 15 -19 15 -26z m414 30 c12 -5 16 -21 16 -75 l0 -69 -40 26
c-35 23 -40 32 -40 63 0 52 22 71 64 55z m329 -192 c-20 -35 -33 -41 -33 -16
0 21 33 64 43 55 4 -4 0 -22 -10 -39z m-457 -32 c27 -11 430 -15 455 -5 13 5
12 -4 -9 -44 l-25 -51 -133 0 c-125 0 -133 1 -139 21 -9 27 4 39 16 16 16 -27
29 -20 28 16 -1 30 -2 30 -8 7 l-7 -25 -12 23 c-22 39 -40 28 -32 -19 l8 -41
-37 6 c-20 3 -46 6 -58 6 -15 0 -23 6 -23 17 0 9 -3 14 -6 10 -6 -6 -55 77
-53 91 0 4 3 1 6 -6 3 -7 16 -17 29 -22z m4 20 c0 -5 -2 -10 -4 -10 -3 0 -8 5
-11 10 -3 6 -1 10 4 10 6 0 11 -4 11 -10z"/>
<path d="M530 1238 c0 -4 12 -8 26 -8 14 0 23 4 19 9 -6 11 -45 10 -45 -1z"/>
<path d="M530 1202 c0 -5 6 -9 13 -9 6 0 20 -4 30 -8 10 -4 17 -3 17 4 0 6 -3
11 -7 12 -5 0 -18 2 -30 5 -13 2 -23 0 -23 -4z"/>
<path d="M538 1173 c7 -3 16 -2 19 1 4 3 -2 6 -13 5 -11 0 -14 -3 -6 -6z"/>
<path d="M558 1163 c-10 -2 -18 -8 -18 -13 0 -12 33 -5 38 8 2 7 2 11 0 11 -1
-1 -11 -3 -20 -6z"/>
<path d="M545 1100 c-4 -6 -8 -38 -9 -72 -1 -36 1 -54 5 -42 4 10 8 36 8 56 1
20 6 40 11 43 13 8 13 25 1 25 -6 0 -13 -5 -16 -10z"/>
<path d="M572 955 c-11 -13 -9 -15 8 -15 11 0 20 -4 20 -10 0 -5 8 -10 17 -10
14 0 13 3 -5 16 -12 8 -20 20 -17 25 10 14 -9 10 -23 -6z"/>
<path d="M450 937 c0 -15 4 -27 10 -27 5 0 9 9 7 20 -5 31 -17 36 -17 7z"/>
<path d="M513 940 c-2 -22 5 -25 27 -10 13 9 13 11 0 20 -21 14 -26 12 -27
-10z"/>
<path d="M610 955 c0 0 9 -8 20 -18 19 -16 20 -16 20 1 0 11 -8 18 -20 18 -11
0 -20 -1 -20 -1z"/>
<path d="M424 942 c-6 -4 -8 -16 -4 -26 6 -18 7 -18 13 4 7 28 6 32 -9 22z"/>
<path d="M694 915 c1 -22 2 -23 13 -9 12 17 9 34 -7 34 -4 0 -7 -11 -6 -25z"/>
<path d="M726 915 c-9 -26 -7 -32 5 -12 6 10 9 21 6 23 -2 3 -7 -2 -11 -11z"/>
<path d="M438 1120 c-14 -13 -15 -17 -3 -17 8 0 17 7 20 15 8 21 3 22 -17 2z"/>
<path d="M379 1063 c-10 -11 -10 -14 -1 -9 13 8 16 -3 6 -28 -3 -9 -11 -13
-17 -9 -6 4 -7 1 -2 -6 11 -19 28 3 31 39 2 35 1 36 -17 13z"/>
<path d="M650 1145 c0 -18 19 -40 26 -32 4 4 0 15 -9 24 -9 10 -17 13 -17 8z"/>
<path d="M695 1110 c3 -5 8 -10 11 -10 2 0 4 5 4 10 0 6 -5 10 -11 10 -5 0 -7
-4 -4 -10z"/>
<path d="M710 1090 c-9 -6 -10 -10 -3 -10 6 0 15 5 18 10 8 12 4 12 -15 0z"/>
<path d="M658 1083 c7 -3 16 -2 19 1 4 3 -2 6 -13 5 -11 0 -14 -3 -6 -6z"/>
<path d="M726 1055 c-3 -9 -6 -26 -5 -38 1 -14 4 -9 9 13 9 37 7 52 -4 25z"/>
<path d="M756 1013 c-6 -14 -5 -15 5 -6 7 7 10 15 7 18 -3 3 -9 -2 -12 -12z"/>
<path d="M860 805 c7 -8 17 -15 22 -15 6 0 5 7 -2 15 -7 8 -17 15 -22 15 -6 0
-5 -7 2 -15z"/>
<path d="M500 659 c-13 -23 -8 -35 9 -24 6 3 9 11 6 16 -4 5 -1 9 4 9 6 0 11
-4 11 -9 0 -5 9 -7 20 -4 11 3 20 10 20 15 0 6 -7 8 -15 4 -8 -3 -15 -1 -15 4
0 18 -29 10 -40 -11z"/>
<path d="M173 602 c-8 -20 5 -27 22 -12 9 7 19 10 22 6 4 -4 1 -11 -7 -16 -12
-8 -10 -10 9 -10 13 0 21 3 18 7 -4 3 -2 12 4 20 12 14 9 15 -35 17 -15 1 -31
-4 -33 -12z"/>
<path d="M899 629 c-10 -6 -4 -9 19 -9 17 0 32 2 32 4 0 9 -39 13 -51 5z"/>
<path d="M898 568 c16 -8 28 -8 45 0 19 9 17 11 -23 11 -40 0 -42 -2 -22 -11z"/>
<path d="M469 420 c0 -3 -2 -13 -4 -22 -4 -20 10 -24 21 -7 3 6 1 16 -5 22 -6
6 -11 9 -12 7z"/>
<path d="M635 410 c-3 -5 -1 -10 4 -10 6 0 11 5 11 10 0 6 -2 10 -4 10 -3 0
-8 -4 -11 -10z"/>
<path d="M770 404 c0 -8 5 -12 10 -9 6 3 10 10 10 16 0 5 -4 9 -10 9 -5 0 -10
-7 -10 -16z"/>
<path d="M193 400 c-29 -12 -29 -15 2 -16 15 -1 25 3 25 12 0 8 -1 14 -2 13
-2 0 -13 -4 -25 -9z"/>
<path d="M535 340 c-3 -5 -1 -10 4 -10 6 0 11 5 11 10 0 6 -2 10 -4 10 -3 0
-8 -4 -11 -10z"/>
<path d="M592 330 c0 -14 2 -19 5 -12 2 6 2 18 0 25 -3 6 -5 1 -5 -13z"/>
<path d="M536 227 c3 -10 9 -15 12 -12 3 3 0 11 -7 18 -10 9 -11 8 -5 -6z"/>
<path d="M141 286 c5 -6 9 -18 9 -27 0 -23 60 -33 61 -10 0 11 2 12 6 4 9 -23
19 -14 17 15 -2 37 -4 40 -14 17 -6 -15 -9 -16 -9 -4 -1 12 -11 16 -40 15 -25
-1 -36 -5 -30 -10z m39 -21 c0 -8 -4 -15 -10 -15 -5 0 -10 7 -10 15 0 8 5 15
10 15 6 0 10 -7 10 -15z"/>
<path d="M270 267 c0 -30 4 -37 20 -37 11 0 20 5 20 10 0 5 -3 9 -7 9 -18 -3
-27 2 -16 9 8 5 8 12 -3 26 -13 18 -14 17 -14 -17z"/>
<path d="M107 283 c-10 -16 3 -43 20 -43 11 0 13 4 6 13 -6 6 -12 19 -15 27
-3 9 -7 10 -11 3z"/>
<path d="M303 283 c10 -3 17 -14 17 -29 0 -13 4 -24 8 -24 5 0 8 10 7 23 -1
12 3 25 9 29 6 4 -5 7 -24 7 -19 -1 -27 -3 -17 -6z"/>
<path d="M454 279 c-3 -6 -2 -15 3 -20 5 -5 9 -1 9 11 0 23 -2 24 -12 9z"/>
<path d="M350 90 c0 -5 5 -10 11 -10 5 0 7 5 4 10 -3 6 -8 10 -11 10 -2 0 -4
-4 -4 -10z"/>
<path d="M424 84 c3 -8 2 -13 -3 -10 -5 3 -12 -1 -15 -10 -9 -25 -7 -27 10
-13 14 11 18 11 29 -4 19 -27 25 -8 7 24 -18 30 -39 40 -28 13z"/>
<path d="M558 70 c-3 -17 -1 -33 3 -35 4 -3 9 11 11 30 5 43 -8 47 -14 5z"/>
<path d="M602 83 c0 -10 -3 -26 -7 -35 -4 -11 -3 -18 4 -18 6 0 12 10 12 23 1
16 2 18 6 5 6 -22 19 -23 27 -2 3 8 2 12 -3 9 -5 -3 -12 4 -16 15 -8 25 -24
26 -23 3z"/>
<path d="M657 94 c-3 -3 -2 -16 3 -29 5 -13 6 -26 3 -29 -4 -3 1 -6 11 -6 13
0 15 6 10 28 -8 31 -18 45 -27 36z"/>
<path d="M776 83 c-6 -14 -5 -15 5 -6 7 7 10 15 7 18 -3 3 -9 -2 -12 -12z"/>
<path d="M722 83 c1 -5 -3 -18 -10 -30 -8 -15 -9 -23 -2 -23 5 0 10 7 10 15 0
8 5 15 10 15 6 0 10 -7 10 -15 0 -8 5 -15 10 -15 13 0 13 16 0 41 -10 18 -32
28 -28 12z"/>
<path d="M932 1299 c-24 -9 -52 -33 -52 -44 0 -4 -7 -13 -15 -21 -16 -16 -20
-44 -7 -44 4 0 13 13 19 30 6 16 25 38 42 47 17 10 33 24 36 31 2 6 3 12 2 11
-1 0 -12 -4 -25 -10z"/>
<path d="M967 1296 c-4 -10 -1 -13 8 -9 8 3 12 9 9 14 -7 12 -11 11 -17 -5z"/>
<path d="M1015 1290 c5 -14 2 -20 -9 -20 -9 0 -16 -5 -16 -11 0 -6 9 -9 20 -6
15 4 20 0 20 -15 0 -15 -5 -18 -20 -13 -28 9 -25 -6 5 -29 l26 -19 -28 -29
c-15 -15 -22 -28 -15 -28 6 0 14 5 17 10 11 17 23 11 18 -9 -4 -16 -14 -18
-74 -16 -38 1 -69 -3 -69 -8 0 -5 15 -7 33 -4 17 2 42 1 55 -4 13 -5 22 -5 22
1 0 6 8 5 20 -2 16 -10 22 -10 32 1 10 11 10 12 1 7 -17 -9 -16 4 3 60 10 29
12 49 6 53 -19 12 -17 50 3 66 19 16 19 16 -7 10 -21 -4 -28 -2 -28 10 0 8 -5
15 -11 15 -6 0 -8 -9 -4 -20z"/>
<path d="M705 1290 c-3 -5 -13 -7 -23 -4 -14 5 -14 4 -3 -4 15 -11 41 -5 41 9
0 12 -7 11 -15 -1z"/>
<path d="M819 1278 c0 -7 -2 -23 -3 -35 -2 -13 1 -23 6 -23 4 0 8 9 8 19 0 11
3 26 6 35 3 9 1 16 -5 16 -6 0 -11 -6 -12 -12z"/>
<path d="M1100 1242 c0 -5 7 -9 15 -9 8 0 12 4 9 9 -3 4 -9 8 -15 8 -5 0 -9
-4 -9 -8z"/>
<path d="M332 1220 c-16 -26 -15 -37 4 -44 14 -5 15 -4 5 8 -15 18 -5 40 15
32 7 -3 16 0 20 7 4 7 4 9 -1 5 -4 -4 -13 -4 -19 2 -8 6 -16 3 -24 -10z"/>
<path d="M730 1235 c0 -2 6 -8 13 -14 10 -8 14 -7 14 2 0 8 -6 14 -14 14 -7 0
-13 -1 -13 -2z"/>
<path d="M776 1232 c-3 -5 1 -9 9 -9 8 0 12 4 9 9 -3 4 -7 8 -9 8 -2 0 -6 -4
-9 -8z"/>
<path d="M926 1228 c3 -5 10 -6 15 -3 13 9 11 12 -6 12 -8 0 -12 -4 -9 -9z"/>
<path d="M970 1211 c0 -10 19 -25 25 -20 1 2 -3 10 -11 17 -8 7 -14 8 -14 3z"/>
<path d="M1114 1212 c4 -7 3 -12 -3 -12 -5 0 -8 -12 -6 -27 1 -16 -4 -41 -11
-56 -17 -32 -10 -54 12 -36 11 9 11 15 3 25 -9 11 -8 14 5 14 13 0 16 9 14 45
-1 25 -6 49 -11 52 -6 3 -7 1 -3 -5z"/>
<path d="M775 1201 c-3 -5 -2 -12 3 -15 5 -3 9 1 9 9 0 17 -3 19 -12 6z"/>
<path d="M910 1186 c0 -13 -7 -27 -16 -30 -26 -10 -8 -20 41 -21 24 0 42 1 40
4 -3 2 -1 9 4 15 5 7 -1 20 -17 36 -17 18 -23 20 -18 8 3 -10 9 -26 12 -35 5
-15 4 -14 -9 2 -9 11 -17 26 -17 33 0 23 -20 12 -20 -12z"/>
<path d="M806 1187 c3 -10 9 -15 12 -12 3 3 0 11 -7 18 -10 9 -11 8 -5 -6z"/>
<path d="M247 1153 c-12 -12 -7 -22 8 -17 8 4 15 10 15 15 0 11 -14 12 -23 2z"/>
<path d="M297 1133 c-4 -3 -7 -11 -7 -17 0 -6 5 -5 12 2 6 6 9 14 7 17 -3 3
-9 2 -12 -2z"/>
<path d="M840 1121 c0 -6 5 -13 10 -16 6 -3 10 1 10 9 0 9 -4 16 -10 16 -5 0
-10 -4 -10 -9z"/>
<path d="M257 1113 c-4 -3 -7 -13 -7 -22 1 -13 3 -13 11 2 11 19 8 33 -4 20z"/>
<path d="M866 1065 c4 -8 11 -15 16 -15 6 0 5 6 -2 15 -7 8 -14 15 -16 15 -2
0 -1 -7 2 -15z"/>
<path d="M1045 1064 c-10 -8 -27 -14 -37 -14 -10 0 -18 -6 -18 -12 0 -8 -3 -9
-8 -3 -11 16 -61 39 -69 32 -3 -4 1 -7 10 -7 10 0 17 -6 17 -14 0 -23 47 -28
100 -9 28 10 50 21 50 24 0 14 -27 16 -45 3z"/>
<path d="M1103 1052 c10 -16 -3 -41 -18 -36 -7 3 -15 2 -18 -3 -3 -4 7 -8 22
-8 21 -1 27 4 29 22 1 12 -3 25 -10 29 -6 4 -8 3 -5 -4z"/>
<path d="M245 1030 c-3 -6 1 -7 9 -4 18 7 21 14 7 14 -6 0 -13 -4 -16 -10z"/>
<path d="M910 1030 c0 -5 -7 -6 -17 -3 -11 4 -14 3 -9 -5 10 -17 36 -15 36 3
0 8 -2 15 -5 15 -3 0 -5 -4 -5 -10z"/>
<path d="M240 985 c0 -5 5 -17 10 -25 5 -8 10 -10 10 -5 0 6 -5 17 -10 25 -5
8 -10 11 -10 5z"/>
<path d="M856 934 c1 -17 -2 -24 -10 -21 -7 3 -13 -1 -13 -9 0 -12 3 -12 21 0
12 7 20 16 19 20 -2 3 -3 13 -3 21 0 8 -4 15 -9 15 -4 0 -7 -12 -5 -26z"/>
<path d="M241 910 c-13 -11 -19 -20 -14 -20 6 0 18 9 28 20 23 25 17 25 -14 0z"/>
<path d="M276 913 c-6 -14 -5 -15 5 -6 7 7 10 15 7 18 -3 3 -9 -2 -12 -12z"/>
<path d="M190 910 c-8 -5 -10 -10 -5 -10 6 0 17 5 25 10 8 5 11 10 5 10 -5 0
-17 -5 -25 -10z"/>
<path d="M180 875 c-8 -9 -8 -15 -2 -15 12 0 26 19 19 26 -2 2 -10 -2 -17 -11z"/>
<path d="M94 824 c9 -8 16 -20 16 -26 0 -6 3 -9 6 -6 8 9 -14 48 -27 48 -6 0
-3 -7 5 -16z"/>
<path d="M955 830 c3 -5 8 -10 11 -10 2 0 4 5 4 10 0 6 -5 10 -11 10 -5 0 -7
-4 -4 -10z"/>
<path d="M986 828 c3 -5 10 -6 15 -3 13 9 11 12 -6 12 -8 0 -12 -4 -9 -9z"/>
<path d="M1013 814 c-18 -19 -16 -29 2 -14 17 15 19 7 5 -21 -6 -10 -8 -19 -6
-19 12 0 26 41 19 54 -7 12 -10 12 -20 0z"/>
<path d="M92 700 c0 -19 2 -27 5 -17 2 9 2 25 0 35 -3 9 -5 1 -5 -18z"/>
<path d="M1032 700 c0 -14 2 -19 5 -12 2 6 2 18 0 25 -3 6 -5 1 -5 -13z"/>
<path d="M1014 603 c0 -43 2 -68 4 -55 2 12 7 20 12 17 5 -3 6 12 3 32 -13 80
-18 81 -19 6z"/>
<path d="M98 616 c-3 -14 -1 -31 3 -38 6 -8 9 1 9 25 0 42 -6 48 -12 13z"/>
<path d="M1029 518 c-5 -13 -5 -68 0 -68 4 0 7 16 7 35 -1 30 -3 42 -7 33z"/>
<path d="M80 488 c0 -22 17 -42 24 -29 4 6 2 11 -4 11 -6 0 -9 4 -5 9 3 5 1
12 -5 16 -5 3 -10 0 -10 -7z"/>
<path d="M40 426 c-6 -8 -18 -12 -26 -9 -8 3 -14 3 -14 0 0 -15 32 -13 51 4
12 10 17 19 12 19 -6 0 -16 -6 -23 -14z"/>
<path d="M1075 430 c-3 -5 -19 -8 -35 -6 -21 2 -27 0 -23 -11 4 -9 9 -10 18
-3 6 5 14 7 18 4 3 -3 18 1 34 10 18 10 22 15 11 16 -9 0 -20 -4 -23 -10z"/>
<path d="M60 410 c0 -5 5 -10 11 -10 5 0 7 5 4 10 -3 6 -8 10 -11 10 -2 0 -4
-4 -4 -10z"/>
<path d="M1030 390 c-8 -5 -12 -12 -9 -15 4 -3 12 1 19 10 14 17 11 19 -10 5z"/>
<path d="M0 295 c0 -8 4 -15 10 -15 5 0 7 7 4 15 -8 19 -14 19 -14 0z"/>
<path d="M653 293 c0 -9 4 -10 13 -2 7 6 19 7 25 3 7 -4 9 -3 5 4 -9 15 -43
11 -43 -5z"/>
<path d="M822 263 c2 -22 9 -29 31 -31 24 -3 27 0 27 27 0 17 -4 31 -10 31 -5
0 -10 -11 -10 -25 0 -14 -4 -25 -10 -25 -10 0 -14 14 -11 38 1 6 -3 12 -9 12
-6 0 -10 -12 -8 -27z"/>
<path d="M910 263 c21 -27 60 -42 60 -23 0 14 28 12 33 -2 2 -7 8 -10 12 -6
10 10 -14 40 -26 32 -5 -3 -6 2 -3 10 3 9 1 16 -4 16 -6 0 -12 -10 -14 -22 -2
-13 -7 -22 -13 -20 -5 2 -9 12 -7 22 2 11 -1 20 -7 20 -6 0 -8 -8 -4 -17 6
-17 5 -17 -14 0 -30 26 -37 21 -13 -10z"/>
<path d="M760 251 c-12 -24 -13 -34 -1 -27 9 6 22 46 15 46 -2 0 -8 -9 -14
-19z"/>
<path d="M895 240 c-3 -5 -1 -10 4 -10 6 0 11 5 11 10 0 6 -2 10 -4 10 -3 0
-8 -4 -11 -10z"/>
<path d="M1100 241 c0 -6 4 -13 10 -16 6 -3 7 1 4 9 -7 18 -14 21 -14 7z"/>
<path d="M17 226 c-16 -13 -16 -14 -1 -20 9 -4 19 -4 22 -1 3 3 0 5 -8 5 -10
0 -10 3 0 15 15 18 11 19 -13 1z"/>
<path d="M245 160 c-3 -6 1 -7 9 -4 18 7 21 14 7 14 -6 0 -13 -4 -16 -10z"/>
<path d="M260 140 c-9 -6 -10 -10 -3 -10 6 0 15 5 18 10 8 12 4 12 -15 0z"/>
<path d="M860 123 c-7 -16 -12 -34 -11 -42 1 -7 -2 -10 -7 -7 -6 3 -13 -1 -16
-10 -9 -23 -7 -31 3 -15 7 10 13 11 32 1 20 -9 21 -9 9 2 -18 15 -23 51 -7 45
7 -3 12 7 13 24 1 16 0 29 -1 29 -1 0 -8 -12 -15 -27z"/>
<path d="M261 109 c-1 -9 8 -27 19 -40 10 -13 19 -19 20 -12 0 6 -5 15 -11 18
-6 4 -14 17 -19 29 -6 15 -9 16 -9 5z"/>
<path d="M245 80 c8 -26 22 -47 28 -39 3 2 -4 18 -15 34 -18 27 -19 28 -13 5z"/>
</g>
</svg>
