<?xml version="1.0" standalone="no"?>
<!DOCTYPE svg PUBLIC "-//W3C//DTD SVG 20010904//EN"
 "http://www.w3.org/TR/2001/REC-SVG-20010904/DTD/svg10.dtd">
<svg version="1.0" xmlns="http://www.w3.org/2000/svg"
 width="100.000000pt" height="100.000000pt" viewBox="0 0 100.000000 100.000000"
 preserveAspectRatio="xMidYMid meet">
<metadata>
Created by potrace 1.16, written by Peter Selinger 2001-2019
</metadata>
<g transform="translate(0.000000,100.000000) scale(0.100000,-0.100000)"
fill="#000000" stroke="none">
<path d="M380 980 c0 -15 -7 -20 -25 -20 -18 0 -25 -5 -25 -20 0 -17 -7 -20
-45 -20 -38 0 -45 -3 -45 -20 0 -17 -7 -20 -50 -20 -47 0 -50 -2 -50 -25 0
-23 -4 -25 -45 -25 -38 0 -45 -3 -45 -20 0 -15 -7 -20 -25 -20 -14 0 -25 -4
-25 -10 0 -5 16 -10 35 -10 28 0 35 4 35 20 0 17 7 20 45 20 41 0 45 2 45 25
0 23 3 25 50 25 43 0 50 3 50 20 0 17 7 20 45 20 38 0 45 3 45 20 0 15 7 20
25 20 21 0 25 5 25 30 0 17 -4 30 -10 30 -5 0 -10 -9 -10 -20z"/>
<path d="M600 970 c0 -25 4 -30 25 -30 18 0 25 -5 25 -20 0 -17 7 -20 45 -20
38 0 45 -3 45 -20 0 -17 7 -20 50 -20 47 0 50 -2 50 -25 0 -23 4 -25 45 -25
38 0 45 -3 45 -20 0 -16 7 -20 35 -20 19 0 35 5 35 10 0 6 -11 10 -25 10 -18
0 -25 5 -25 20 0 17 -7 20 -45 20 -41 0 -45 2 -45 25 0 23 -3 25 -50 25 -43 0
-50 3 -50 20 0 17 -7 20 -45 20 -38 0 -45 3 -45 20 0 15 -7 20 -25 20 -18 0
-25 5 -25 20 0 11 -4 20 -10 20 -5 0 -10 -13 -10 -30z"/>
<path d="M460 920 c0 -17 -7 -20 -50 -20 -47 0 -50 -2 -50 -25 0 -20 -5 -25
-25 -25 -18 0 -25 -5 -25 -20 0 -17 -7 -20 -45 -20 -38 0 -45 -3 -45 -20 0
-17 -7 -20 -50 -20 -43 0 -50 -3 -50 -20 0 -13 -7 -20 -20 -20 -19 0 -20 -7
-20 -230 0 -223 1 -230 20 -230 13 0 20 -7 20 -20 0 -17 7 -20 50 -20 43 0 50
-3 50 -20 0 -17 7 -20 45 -20 38 0 45 -3 45 -20 0 -15 7 -20 25 -20 20 0 25
-5 25 -25 0 -23 3 -25 50 -25 43 0 50 -3 50 -20 0 -17 7 -20 40 -20 33 0 40 3
40 20 0 17 7 20 50 20 47 0 50 2 50 25 0 20 5 25 25 25 18 0 25 5 25 20 0 17
7 20 45 20 38 0 45 3 45 20 0 17 7 20 50 20 43 0 50 3 50 20 0 13 7 20 20 20
19 0 20 7 20 230 0 223 -1 230 -20 230 -13 0 -20 7 -20 20 0 17 -7 20 -50 20
-43 0 -50 3 -50 20 0 17 -7 20 -45 20 -38 0 -45 3 -45 20 0 15 -7 20 -25 20
-20 0 -25 5 -25 25 0 23 -3 25 -50 25 -43 0 -50 3 -50 20 0 17 -7 20 -40 20
-33 0 -40 -3 -40 -20z m60 -20 c0 -17 7 -20 50 -20 47 0 50 -2 50 -25 0 -20 5
-25 25 -25 18 0 25 -5 25 -20 0 -17 7 -20 45 -20 38 0 45 -3 45 -20 0 -17 7
-20 50 -20 43 0 50 -3 50 -20 0 -13 7 -20 20 -20 19 0 20 -7 20 -210 0 -203
-1 -210 -20 -210 -13 0 -20 -7 -20 -20 0 -17 -7 -20 -50 -20 -43 0 -50 -3 -50
-20 0 -17 -7 -20 -45 -20 -38 0 -45 -3 -45 -20 0 -15 -7 -20 -25 -20 -20 0
-25 -5 -25 -25 0 -23 -3 -25 -50 -25 -43 0 -50 -3 -50 -20 0 -13 -7 -20 -20
-20 -13 0 -20 7 -20 20 0 17 -7 20 -50 20 -47 0 -50 2 -50 25 0 20 -5 25 -25
25 -18 0 -25 5 -25 20 0 17 -7 20 -45 20 -38 0 -45 3 -45 20 0 17 -7 20 -50
20 -43 0 -50 3 -50 20 0 13 -7 20 -20 20 -19 0 -20 7 -20 210 0 203 1 210 20
210 13 0 20 7 20 20 0 17 7 20 50 20 43 0 50 3 50 20 0 17 7 20 45 20 38 0 45
3 45 20 0 15 7 20 25 20 20 0 25 5 25 25 0 23 3 25 50 25 43 0 50 3 50 20 0
13 7 20 20 20 13 0 20 -7 20 -20z"/>
<path d="M330 730 c0 -13 -7 -20 -20 -20 -13 0 -20 -7 -20 -20 0 -15 -7 -20
-25 -20 l-25 0 0 -145 0 -145 25 0 c23 0 25 -4 25 -45 0 -38 3 -45 20 -45 13
0 20 -7 20 -20 0 -19 7 -20 145 -20 l145 0 0 40 0 40 45 0 45 0 0 45 c0 41 2
45 25 45 24 0 25 3 25 60 l0 60 -45 0 c-38 0 -45 3 -45 20 0 15 -7 20 -25 20
-24 0 -25 2 -25 65 0 63 -1 65 -25 65 -18 0 -25 5 -25 20 0 19 -7 20 -120 20
-113 0 -120 -1 -120 -20z m220 -20 c0 -15 7 -20 25 -20 24 0 25 -2 25 -65 0
-63 1 -65 25 -65 18 0 25 -5 25 -20 0 -17 7 -20 45 -20 l45 0 0 -40 c0 -36 -2
-40 -25 -40 -23 0 -25 -4 -25 -45 0 -41 -2 -45 -25 -45 -20 0 -25 5 -25 25 0
25 -1 25 -90 25 l-90 0 0 -45 0 -45 70 0 c63 0 70 -2 70 -20 0 -19 -7 -20
-125 -20 -118 0 -125 1 -125 20 0 13 -7 20 -20 20 -17 0 -20 7 -20 45 0 41 -2
45 -25 45 l-25 0 0 125 0 125 25 0 c18 0 25 5 25 20 0 13 7 20 20 20 13 0 20
7 20 20 0 19 7 20 100 20 93 0 100 -1 100 -20z m70 -355 c0 -24 -2 -25 -70
-25 -68 0 -70 1 -70 25 0 24 2 25 70 25 68 0 70 -1 70 -25z"/>
<path d="M0 220 c0 -5 11 -10 25 -10 18 0 25 -5 25 -20 0 -17 7 -20 45 -20 41
0 45 -2 45 -25 0 -23 3 -25 50 -25 43 0 50 -3 50 -20 0 -17 7 -20 45 -20 38 0
45 -3 45 -20 0 -15 7 -20 25 -20 18 0 25 -5 25 -20 0 -11 5 -20 10 -20 6 0 10
13 10 30 0 25 -4 30 -25 30 -18 0 -25 5 -25 20 0 17 -7 20 -45 20 -38 0 -45 3
-45 20 0 17 -7 20 -50 20 -47 0 -50 2 -50 25 0 23 -4 25 -45 25 -38 0 -45 3
-45 20 0 16 -7 20 -35 20 -19 0 -35 -4 -35 -10z"/>
<path d="M930 210 c0 -17 -7 -20 -45 -20 -41 0 -45 -2 -45 -25 0 -23 -3 -25
-50 -25 -43 0 -50 -3 -50 -20 0 -17 -7 -20 -45 -20 -38 0 -45 -3 -45 -20 0
-15 -7 -20 -25 -20 -21 0 -25 -5 -25 -30 0 -17 5 -30 10 -30 6 0 10 9 10 20 0
15 7 20 25 20 18 0 25 5 25 20 0 17 7 20 45 20 38 0 45 3 45 20 0 17 7 20 50
20 47 0 50 2 50 25 0 23 4 25 45 25 38 0 45 3 45 20 0 15 7 20 25 20 14 0 25
5 25 10 0 6 -16 10 -35 10 -28 0 -35 -4 -35 -20z"/>
</g>
</svg>
