<?xml version="1.0" standalone="no"?>
<!DOCTYPE svg PUBLIC "-//W3C//DTD SVG 20010904//EN"
 "http://www.w3.org/TR/2001/REC-SVG-20010904/DTD/svg10.dtd">
<svg version="1.0" xmlns="http://www.w3.org/2000/svg"
 width="256.000000pt" height="256.000000pt" viewBox="0 0 256.000000 256.000000"
 preserveAspectRatio="xMidYMid meet">
<metadata>
Created by potrace 1.16, written by Peter Selinger 2001-2019
</metadata>
<g transform="translate(0.000000,256.000000) scale(0.100000,-0.100000)"
fill="#000000" stroke="none">
<path d="M900 1551 l0 -491 140 0 140 0 0 178 0 177 40 -75 c22 -41 64 -121
92 -177 l53 -103 147 0 c146 0 148 0 148 22 0 12 -43 101 -97 197 -53 97 -98
179 -100 183 -2 4 13 15 34 23 48 20 98 68 126 120 18 33 22 57 22 135 0 82
-3 102 -25 144 -31 61 -78 100 -155 128 -54 20 -83 22 -312 26 l-253 4 0 -491z
m574 429 c177 -87 210 -310 64 -434 -23 -20 -59 -42 -80 -48 -22 -6 -37 -16
-35 -22 3 -6 52 -96 110 -201 l106 -190 -116 -3 c-64 -1 -122 -1 -128 2 -7 2
-56 90 -111 195 -54 105 -105 191 -111 191 -10 0 -13 -46 -13 -195 l0 -195
-120 0 -120 0 0 468 0 467 252 -5 c243 -5 255 -6 302 -30z"/>
<path d="M1160 1743 l0 -103 89 0 c80 0 93 3 117 23 23 20 27 32 28 76 0 42
-5 56 -25 77 -22 22 -34 25 -117 27 l-92 2 0 -102z m185 52 c16 -15 25 -36 25
-55 0 -19 -9 -40 -25 -55 -21 -22 -33 -25 -95 -25 l-70 0 0 80 0 80 70 0 c62
0 74 -3 95 -25z"/>
<path d="M690 868 c-19 -13 -45 -39 -58 -58 -21 -31 -23 -44 -20 -110 2 -58 8
-82 25 -106 64 -90 242 -90 306 0 18 26 22 44 22 113 0 67 -4 87 -21 109 -39
54 -70 68 -147 72 -63 3 -77 1 -107 -20z m196 -33 c120 -92 56 -285 -95 -285
-148 0 -217 176 -109 277 55 52 142 55 204 8z"/>
<path d="M1195 876 c-64 -29 -95 -84 -95 -172 0 -110 62 -175 168 -177 78 -1
127 17 160 61 23 30 28 47 30 111 3 67 1 80 -20 111 -39 58 -82 80 -152 80
-34 -1 -74 -7 -91 -14z m173 -33 c53 -39 74 -82 70 -144 -5 -65 -32 -109 -82
-133 -136 -64 -280 70 -222 207 37 88 160 125 234 70z"/>
<path d="M1685 876 c-37 -16 -70 -52 -84 -89 -28 -73 0 -196 53 -230 93 -61
229 -36 280 52 27 47 27 143 0 196 -38 73 -163 109 -249 71z m173 -33 c48 -35
72 -81 72 -136 0 -161 -196 -216 -294 -84 -32 44 -29 132 6 179 15 19 42 42
60 52 42 21 120 16 156 -11z"/>
</g>
</svg>
