<?xml version="1.0" standalone="no"?>
<!DOCTYPE svg PUBLIC "-//W3C//DTD SVG 20010904//EN"
 "http://www.w3.org/TR/2001/REC-SVG-20010904/DTD/svg10.dtd">
<svg version="1.0" xmlns="http://www.w3.org/2000/svg"
 width="192.000000pt" height="192.000000pt" viewBox="0 0 192.000000 192.000000"
 preserveAspectRatio="xMidYMid meet">
<metadata>
Created by potrace 1.16, written by Peter Selinger 2001-2019
</metadata>
<g transform="translate(0.000000,192.000000) scale(0.100000,-0.100000)"
fill="#000000" stroke="none">
<path d="M892 1876 c-23 -30 -86 -35 -202 -18 -45 7 -99 9 -135 5 -58 -8 -60
-9 -63 -40 -3 -25 3 -36 27 -54 37 -27 38 -35 9 -45 -43 -13 -155 -95 -223
-162 -124 -123 -194 -250 -239 -430 -22 -87 -22 -341 0 -426 60 -236 182 -414
372 -539 172 -113 292 -147 522 -147 230 0 350 34 522 147 190 125 312 303
372 539 22 85 22 339 0 426 -45 180 -115 307 -239 430 -68 67 -180 149 -222
162 -30 10 -29 18 8 45 24 18 30 29 27 54 -3 31 -5 32 -63 40 -36 4 -90 2
-135 -5 -116 -17 -179 -12 -202 18 -16 19 -28 24 -68 24 -40 0 -52 -5 -68 -24z
m119 -25 c18 -25 27 -29 52 -24 21 4 33 1 42 -10 11 -15 15 -15 42 -2 59 29
232 39 258 13 7 -6 -7 -24 -39 -51 l-48 -43 62 -32 c231 -122 389 -326 454
-590 21 -85 22 -302 0 -386 -60 -236 -182 -414 -372 -539 -167 -110 -294 -147
-502 -147 -208 0 -335 37 -502 147 -190 125 -312 303 -372 539 -22 84 -21 301
0 386 65 264 223 468 454 590 l62 32 -48 43 c-32 27 -46 45 -39 51 26 26 199
16 258 -13 27 -13 31 -13 42 2 9 11 21 14 42 10 25 -5 34 -1 52 24 15 21 30
29 51 29 21 0 36 -8 51 -29z"/>
<path d="M950 1830 c0 -5 5 -10 10 -10 6 0 10 5 10 10 0 6 -4 10 -10 10 -5 0
-10 -4 -10 -10z"/>
<path d="M946 1726 c-20 -31 -20 -35 0 -58 16 -17 18 -17 30 0 17 22 17 42 0
65 -13 16 -14 16 -30 -7z"/>
<path d="M851 1688 c-11 -17 -10 -23 2 -35 13 -14 16 -13 25 3 7 14 7 24 -2
36 -11 15 -13 15 -25 -4z"/>
<path d="M1043 1690 c-9 -13 -9 -22 0 -34 11 -15 13 -15 23 2 9 13 9 22 0 34
-11 15 -13 15 -23 -2z"/>
<path d="M585 1659 c-218 -113 -376 -307 -436 -537 -115 -435 151 -881 597
-1004 113 -31 315 -31 428 0 446 123 712 569 597 1004 -49 189 -174 368 -330
472 -67 44 -143 86 -159 86 -10 0 -52 -85 -52 -106 0 -8 4 -13 9 -10 17 11 42
-6 36 -24 -3 -9 3 -24 15 -35 26 -23 26 -67 0 -90 -23 -21 -79 -17 -130 9 -18
8 -70 21 -116 27 -95 14 -228 1 -284 -27 -51 -26 -107 -30 -130 -9 -26 23 -26
67 0 90 12 11 18 26 15 35 -6 18 19 35 36 24 16 -9 10 24 -13 71 -12 25 -27
45 -32 45 -6 -1 -29 -10 -51 -21z m60 -38 c14 -28 14 -30 -5 -36 -12 -4 -20
-15 -20 -29 0 -13 -7 -29 -15 -36 -10 -8 -15 -30 -15 -60 0 -40 4 -52 26 -69
15 -12 23 -21 18 -21 -5 0 -33 -20 -61 -45 -28 -25 -53 -41 -55 -37 -6 15
-148 94 -180 101 l-32 7 63 66 c57 61 151 132 226 171 17 9 31 16 32 17 1 0 9
-13 18 -29z m778 -48 c37 -25 97 -78 133 -117 l67 -71 -50 -5 c-56 -6 -83 -23
-83 -51 0 -12 -7 -19 -20 -19 -17 0 -20 7 -20 41 0 53 -18 69 -74 69 l-46 0 0
44 c0 26 -6 48 -15 56 -8 7 -15 23 -15 36 0 14 -8 25 -20 29 -19 6 -19 8 -5
36 16 29 16 29 48 13 18 -9 62 -36 100 -61z m-313 -149 c141 -42 271 -146 327
-265 48 -100 57 -137 56 -239 -1 -144 -45 -251 -144 -350 -65 -65 -100 -82
-168 -83 -81 0 -152 40 -189 108 -7 12 -12 14 -12 6 0 -26 41 -86 75 -110 30
-20 44 -23 100 -19 36 2 65 1 65 -2 0 -3 -7 -16 -16 -28 -12 -18 -25 -22 -71
-22 -63 0 -113 20 -147 61 l-24 28 -28 -31 c-43 -44 -76 -58 -143 -58 -49 0
-62 4 -71 19 -17 33 -12 36 51 33 79 -5 127 24 161 98 13 27 27 50 33 50 6 0
10 111 10 318 0 284 2 320 18 349 45 84 145 29 192 -105 41 -116 72 -179 102
-213 l34 -37 -38 -12 c-21 -7 -53 -21 -71 -32 -35 -22 -77 -91 -68 -114 7 -17
-8 -18 -34 -2 -17 11 -23 9 -40 -8 -23 -23 -36 -80 -26 -118 5 -20 13 -26 34
-26 23 0 31 8 51 50 38 79 114 140 177 140 30 0 30 -7 0 -31 -41 -32 -46 -109
-9 -123 28 -11 51 4 82 54 134 218 39 513 -203 630 -101 49 -190 64 -283 50
-65 -10 -92 -19 -173 -58 -51 -25 -163 -139 -189 -195 -70 -145 -66 -304 10
-427 31 -51 50 -64 80 -55 39 13 35 94 -7 121 -31 21 -31 34 0 34 63 0 139
-61 177 -140 20 -42 28 -50 51 -50 21 0 29 6 34 26 10 38 -3 95 -26 118 -17
17 -23 19 -40 8 -26 -16 -41 -15 -34 2 9 23 -33 92 -68 114 -18 11 -50 25 -71
32 l-38 12 34 37 c30 34 61 97 102 213 47 134 147 189 192 105 16 -28 18 -68
21 -327 2 -195 0 -308 -8 -332 -25 -84 -105 -140 -200 -140 -70 0 -108 19
-172 84 -56 58 -90 112 -119 194 -29 81 -30 234 -2 316 57 163 174 277 343
335 81 28 238 31 320 7z m306 -38 c31 -32 8 -86 -38 -86 -31 0 -48 18 -48 50
0 14 5 31 12 38 16 16 56 15 74 -2z m-106 -11 c0 -9 -6 -12 -16 -8 -13 5 -13
7 -2 14 17 11 18 11 18 -6z m-255 -15 c30 -8 30 -8 -7 -9 -37 -1 -67 -21 -82
-52 -5 -12 -7 -12 -12 0 -17 37 -46 53 -89 49 -63 -5 -41 9 30 20 61 9 105 6
160 -8z m-638 -37 c46 -27 83 -54 83 -60 0 -28 -62 -113 -87 -119 -41 -11 -77
7 -87 42 -9 30 -11 31 -53 26 -44 -5 -44 -5 -32 21 8 18 22 26 49 31 33 5 77
35 54 36 -5 0 -17 7 -27 15 -20 14 -16 55 6 55 6 0 48 -21 94 -47z m1204 24
c20 -15 49 -71 49 -95 0 -10 -6 -27 -14 -37 -12 -17 -16 -17 -31 -5 -10 8 -14
22 -11 36 7 27 -27 74 -43 59 -7 -7 -6 -23 4 -51 17 -50 11 -77 -20 -94 -52
-28 -119 29 -113 95 4 44 40 42 49 -3 8 -39 23 -57 38 -48 8 5 6 18 -4 43 -8
19 -15 46 -15 59 0 43 73 70 111 41z m-1328 -47 c19 0 -16 -20 -36 -20 -17 0
-17 1 0 33 16 30 18 30 21 10 2 -13 9 -23 15 -23z m473 -4 c-19 -25 -42 -66
-51 -93 -41 -117 -71 -180 -102 -214 -45 -49 -43 -74 5 -89 57 -19 101 -49
117 -80 21 -41 19 -44 -17 -19 -21 16 -51 24 -90 27 l-58 4 0 -30 c0 -21 7
-35 21 -42 22 -12 39 -48 32 -67 -25 -64 -123 128 -123 238 0 100 54 214 139
299 51 50 135 109 158 110 2 0 -12 -20 -31 -44z m528 -77 c75 -81 126 -196
126 -288 0 -110 -98 -302 -123 -238 -7 19 10 55 33 69 12 8 20 23 20 42 l0 28
-58 -4 c-39 -3 -69 -11 -90 -27 -36 -25 -38 -22 -17 19 16 31 60 61 118 80 47
15 49 40 4 89 -31 34 -61 97 -102 214 -9 27 -33 69 -52 94 l-34 45 61 -33 c34
-18 84 -57 114 -90z m126 45 c0 -8 -4 -12 -10 -9 -5 3 -10 10 -10 16 0 5 5 9
10 9 6 0 10 -7 10 -16z m313 -98 c20 -59 21 -64 5 -48 -15 15 -158 17 -158 2
0 -5 -13 -10 -29 -10 -23 0 -31 -6 -38 -26 l-9 -27 -11 37 -11 36 41 0 c42 1
77 18 77 38 0 6 17 12 38 14 32 3 38 7 46 35 9 28 11 30 21 15 7 -9 19 -39 28
-66z m-1477 24 c32 0 44 -4 44 -15 0 -30 38 -55 85 -55 27 0 45 -5 45 -11 0
-8 -12 -9 -37 -5 -102 17 -188 27 -203 23 -16 -4 -16 -1 -1 46 9 28 17 43 19
34 3 -13 14 -17 48 -17z m82 -101 c67 -11 73 -14 68 -33 -4 -12 -9 -47 -13
-79 -5 -52 -8 -58 -27 -55 -18 3 -21 10 -21 57 0 72 -22 80 -31 12 -6 -46 -9
-51 -31 -51 -25 0 -25 1 -18 55 5 45 4 55 -9 55 -10 0 -17 -16 -21 -56 -7 -49
-10 -55 -29 -52 -19 3 -21 8 -18 73 3 93 5 97 44 91 18 -3 66 -11 106 -17z
m1387 -3 c11 -16 15 -41 13 -77 -3 -48 -6 -56 -37 -76 -39 -27 -80 -29 -121
-8 -38 20 -50 43 -50 97 0 55 11 74 36 60 14 -8 18 -20 16 -49 -5 -70 59 -98
99 -43 12 16 16 33 13 48 -9 30 -34 28 -34 -3 0 -20 -5 -25 -25 -25 -18 0 -25
5 -25 19 0 10 -3 33 -6 50 l-6 31 56 0 c48 0 58 -3 71 -24z m-1558 -78 l-2
-83 75 -3 c41 -2 79 -7 84 -12 6 -6 25 -10 43 -10 27 0 33 -4 33 -22 0 -17 -3
-19 -12 -10 -19 19 -149 15 -174 -6 -29 -23 -44 -54 -45 -94 -2 -49 -28 84
-29 146 0 43 19 176 26 176 1 0 2 -37 1 -82z m1611 -83 c1 -57 -14 -163 -17
-119 -1 18 -15 25 -96 48 -52 14 -106 26 -120 26 -20 0 -25 5 -25 25 l0 25 33
-20 c46 -28 124 -27 168 3 31 20 34 28 38 77 3 48 5 51 11 25 4 -16 8 -57 8
-90z m-1395 -91 c31 -31 42 -78 28 -117 -10 -24 -13 -26 -32 -17 -16 9 -19 18
-14 37 16 65 -75 103 -111 48 -14 -21 -15 -31 -6 -50 16 -34 38 -32 37 3 0 20
5 28 21 30 16 2 23 -4 27 -25 4 -15 9 -38 13 -50 5 -19 1 -22 -39 -28 -61 -9
-80 -1 -100 40 -41 86 3 154 99 155 42 0 56 -5 77 -26z m1262 0 c122 -34 126
-50 24 -90 l-71 -28 53 -15 c66 -17 62 -15 54 -41 -8 -25 -11 -24 -130 7 -58
15 -71 22 -73 41 -2 14 3 24 15 28 10 4 38 16 63 26 l45 20 -47 14 c-49 15
-53 20 -42 48 8 20 -3 21 109 -10z m-105 -54 c9 -6 10 -10 3 -10 -6 0 -18 -3
-27 -6 -11 -4 -16 -1 -16 10 0 18 17 21 40 6z m-689 -68 c10 -27 5 -72 -9 -72
-5 0 -17 19 -28 42 -10 24 -20 46 -22 50 -4 8 30 16 41 10 5 -2 13 -16 18 -30z
m277 19 c-2 -3 -12 -25 -22 -49 -22 -47 -32 -52 -41 -22 -7 21 1 57 17 76 9
12 51 7 46 -5z m622 -12 c-11 -37 -20 -49 -20 -26 0 10 -8 17 -20 17 -29 0
-25 14 8 27 40 16 41 16 32 -18z m-1287 -54 l26 -45 -22 0 c-41 0 -209 -46
-217 -60 -6 -9 -14 -2 -28 26 -11 21 -23 50 -27 64 -7 23 -7 23 11 6 15 -15
29 -18 88 -13 39 2 72 10 74 16 2 6 15 11 29 11 16 0 27 7 30 20 3 11 7 20 8
20 2 0 15 -20 28 -45z m1015 -4 c-15 -5 -19 4 -11 24 6 18 7 18 13 -1 4 -10 3
-21 -2 -23z m127 -27 c22 -8 55 -14 73 -14 17 0 32 -2 32 -5 0 -3 -11 -27 -25
-53 -16 -30 -25 -40 -25 -27 0 14 -25 36 -83 72 -71 45 -77 52 -47 46 19 -3
53 -12 75 -19z m-49 -46 c46 -29 84 -56 84 -59 0 -3 -6 -13 -13 -23 -12 -16
-19 -14 -100 34 -48 29 -87 58 -87 64 0 11 19 36 28 36 2 0 42 -24 88 -52z
m-1050 -12 c4 -17 -8 -50 -42 -115 -26 -50 -51 -91 -57 -91 -20 0 -35 33 -24
51 15 24 -34 89 -67 89 -25 0 -54 26 -42 37 9 9 173 51 203 52 16 1 24 -6 29
-23z m932 -13 c13 -11 10 -13 -22 -13 -38 0 -39 4 -12 39 9 11 11 11 14 0 2
-8 11 -20 20 -26z m-844 -71 c-21 -4 -110 -151 -116 -192 l-3 -25 -40 37 c-34
32 -37 37 -19 38 16 0 32 20 68 89 25 49 46 97 46 106 0 12 10 8 41 -17 33
-27 38 -34 23 -36z m860 25 c10 -8 21 -31 25 -53 6 -37 9 -39 44 -42 42 -4 45
-10 17 -35 -15 -13 -30 -15 -64 -11 -51 7 -63 -4 -35 -35 20 -22 20 -23 3 -36
-11 -8 -22 -15 -25 -15 -11 0 -129 138 -129 151 0 6 19 29 43 50 45 42 88 50
121 26z m121 -39 c5 -4 19 -8 32 -8 l24 0 -23 -31 c-17 -23 -24 -27 -26 -15
-2 11 -14 16 -38 16 -36 0 -38 3 -48 58 l-6 34 38 -23 c20 -12 41 -26 47 -31z
m-1237 -13 c13 -16 18 -33 14 -47 -5 -21 -6 -20 -29 8 -13 16 -28 37 -34 47
-16 28 26 22 49 -8z m286 -1 c23 -9 20 -22 -19 -87 -19 -32 -35 -61 -35 -65 0
-4 18 -17 40 -30 43 -25 48 -33 25 -52 -11 -9 -24 -6 -65 16 -78 43 -78 42
-23 138 50 89 51 90 77 80z m71 -26 l10 -33 75 -3 c91 -4 110 1 149 34 l31 25
33 -25 c19 -14 48 -29 66 -32 27 -6 30 -9 17 -16 -24 -14 -20 -48 23 -157 l38
-99 -79 -12 c-92 -15 -181 -9 -290 19 -87 22 -175 60 -142 61 52 1 62 68 14
97 -36 21 -36 27 -5 78 14 22 25 52 25 68 0 38 24 34 35 -5z m575 2 c0 -31 -6
-35 -27 -22 -16 10 -5 52 13 52 9 0 14 -11 14 -30z m-15 -65 c14 -13 25 -35
25 -48 0 -34 -35 -74 -70 -82 -26 -6 -28 -9 -19 -32 5 -14 8 -27 7 -28 -2 -1
-13 -7 -24 -13 -20 -11 -24 -6 -58 85 -20 53 -33 100 -28 105 13 13 85 37 115
37 17 1 37 -9 52 -24z m160 -105 c22 0 -65 -56 -140 -90 -56 -25 -55 -26 -55
10 0 23 6 33 24 40 39 14 59 53 54 105 l-3 46 50 -56 c30 -33 58 -55 70 -55z
m105 77 c0 -2 -9 -12 -20 -22 -19 -18 -20 -17 -20 3 0 15 6 22 20 22 11 0 20
-2 20 -3z"/>
<path d="M836 1261 c-3 -5 1 -8 10 -7 21 1 39 -27 31 -48 -8 -21 -35 -20 -61
2 -20 17 -20 17 -5 -8 9 -14 26 -26 38 -28 25 -4 25 -2 6 -72 -23 -86 -18
-152 20 -242 13 -31 -12 -19 -32 15 -32 55 -53 120 -63 198 l-9 74 3 -90 c4
-104 27 -164 85 -223 l36 -37 3 210 c3 220 -4 265 -39 265 -10 0 -20 -4 -23
-9z m43 -258 c-1 -69 -2 -74 -11 -43 -9 31 -3 120 8 120 2 0 4 -35 3 -77z"/>
<path d="M1031 1242 c-8 -18 -11 -97 -9 -237 l3 -210 36 37 c58 59 81 119 85
223 l3 90 -8 -80 c-8 -81 -48 -191 -77 -216 -18 -15 -18 -2 1 51 19 54 19 153
0 216 -8 27 -15 50 -15 52 0 1 8 2 18 2 19 0 52 29 52 46 0 5 -7 1 -15 -9 -18
-25 -59 -19 -63 10 -3 23 29 48 43 35 5 -4 5 -1 1 6 -13 22 -43 13 -55 -16z
m27 -237 c0 -27 -3 -59 -8 -70 -6 -13 -8 13 -8 75 0 62 3 86 8 70 4 -14 8 -47
8 -75z"/>
<path d="M380 1239 c-10 -24 -10 -33 -1 -42 10 -9 17 -7 32 12 23 28 24 47 3
55 -22 8 -20 9 -34 -25z"/>
<path d="M407 533 c-14 -4 -16 -8 -6 -19 15 -19 22 -18 37 6 13 21 8 23 -31
13z"/>
<path d="M1375 460 c-17 -19 -17 -22 -3 -36 14 -15 18 -14 37 5 21 21 19 51
-4 51 -6 0 -20 -9 -30 -20z"/>
<path d="M868 369 c-23 -13 -33 -71 -20 -109 9 -24 8 -30 -4 -30 -21 0 -18
-53 5 -81 17 -21 27 -24 96 -24 70 0 79 2 97 25 16 19 18 33 14 70 -4 25 -6
64 -6 87 1 56 -24 73 -105 73 -33 0 -68 -5 -77 -11z m142 -27 c36 -29 18 -44
-42 -36 -65 9 -63 -14 2 -30 116 -28 75 -148 -45 -132 -36 4 -75 34 -75 56 0
16 45 19 61 4 21 -19 64 -15 64 6 0 8 -17 18 -45 25 -66 16 -88 76 -42 113 24
18 96 15 122 -6z"/>
<path d="M1171 339 c-15 -6 -21 -14 -17 -25 3 -9 6 -20 6 -24 0 -14 61 11 67
27 3 8 0 19 -8 24 -17 10 -17 10 -48 -2z"/>
<path d="M766 1665 c-6 -17 2 -45 14 -45 12 0 20 28 14 45 -4 8 -10 15 -14 15
-4 0 -10 -7 -14 -15z"/>
<path d="M1131 1666 c-11 -14 -5 -46 9 -46 19 0 28 25 15 43 -10 14 -14 15
-24 3z"/>
</g>
</svg>
