<?xml version="1.0" standalone="no"?>
<!DOCTYPE svg PUBLIC "-//W3C//DTD SVG 20010904//EN"
 "http://www.w3.org/TR/2001/REC-SVG-20010904/DTD/svg10.dtd">
<svg version="1.0" xmlns="http://www.w3.org/2000/svg"
 width="256.000000pt" height="256.000000pt" viewBox="0 0 256.000000 256.000000"
 preserveAspectRatio="xMidYMid meet">
<metadata>
Created by potrace 1.16, written by Peter Selinger 2001-2019
</metadata>
<g transform="translate(0.000000,256.000000) scale(0.100000,-0.100000)"
fill="#000000" stroke="none">
<path d="M970 2549 c-90 -8 -174 -36 -232 -78 -24 -16 -67 -42 -97 -57 -65
-32 -187 -146 -247 -231 -52 -72 -114 -202 -140 -293 -15 -54 -18 -100 -17
-280 0 -200 2 -222 27 -315 15 -55 45 -136 66 -180 74 -149 278 -395 607 -733
93 -96 165 -176 161 -178 -13 -8 -8 -68 7 -87 7 -10 19 -41 25 -68 10 -42 15
-48 36 -47 13 1 24 5 23 8 -5 36 -47 134 -57 132 -17 -3 -27 27 -14 40 8 8 10
4 6 -13 -4 -20 -3 -20 7 4 l11 27 133 0 c117 0 135 -2 144 -17 6 -12 5 -25 -4
-43 -18 -32 -47 -132 -40 -138 3 -3 5 1 5 9 0 12 2 12 9 0 8 -12 12 -12 24 -2
10 7 18 8 21 2 4 -5 47 -9 96 -9 106 1 121 11 127 85 5 58 -10 89 -57 121 -36
24 -88 27 -135 7 -11 -5 61 75 160 176 317 326 529 581 599 724 20 38 47 113
62 165 24 85 27 116 31 300 4 184 3 214 -16 295 -43 180 -173 385 -308 484
-55 42 -85 60 -218 137 -59 34 -145 53 -269 58 -60 3 -107 4 -105 2 2 -2 19
-8 37 -14 24 -8 31 -8 26 0 -5 8 -3 8 7 2 8 -5 43 -12 79 -15 l65 -7 -67 2
c-36 0 -64 -2 -61 -6 2 -5 30 -8 61 -8 65 0 139 -18 197 -47 22 -11 45 -18 52
-16 6 2 15 -1 19 -8 4 -8 3 -9 -4 -5 -18 11 -14 0 5 -15 14 -12 16 -12 9 0 -6
9 -4 12 5 9 8 -3 14 -10 14 -16 0 -5 4 -14 9 -19 5 -5 6 -3 2 5 -10 17 -2 15
45 -8 22 -12 37 -25 34 -30 -3 -5 0 -12 6 -16 8 -4 9 -3 5 4 -13 21 10 13 30
-10 19 -22 19 -23 -1 -8 -20 15 -20 14 -1 -8 20 -23 32 -30 21 -12 -15 24 14
7 46 -27 60 -66 76 -91 20 -33 l-53 55 49 -60 c112 -136 172 -251 204 -390 11
-50 24 -109 29 -133 13 -54 13 -154 1 -201 -5 -20 -15 -70 -21 -111 -17 -106
-63 -245 -105 -315 -92 -153 -283 -378 -570 -673 l-177 -182 -136 0 -136 0
-35 33 c-27 24 -30 25 -12 5 14 -16 20 -28 15 -28 -13 0 -86 75 -80 81 3 3
-67 81 -155 174 -477 503 -571 657 -609 1006 -18 157 7 343 61 469 12 27 18
55 13 62 -4 7 -4 10 1 6 5 -5 30 27 57 69 28 42 80 108 116 147 l66 71 -62
-60 c-35 -33 -86 -94 -114 -135 -27 -41 -52 -77 -55 -80 -11 -10 20 46 50 90
52 77 229 251 191 188 -5 -9 -2 -9 9 1 19 15 23 26 5 15 -7 -4 -8 -3 -4 5 4 6
13 10 19 9 19 -4 92 29 107 49 14 17 14 17 -6 1 -11 -10 -24 -18 -28 -18 -4 0
6 11 22 25 32 27 48 33 36 13 -4 -7 -3 -8 5 -4 6 4 9 12 5 17 -3 6 0 9 7 8 8
-2 41 7 74 20 33 13 92 26 130 31 l70 7 -55 3 -55 3 65 7 c36 3 74 10 85 14
11 4 8 0 -7 -9 -39 -22 -35 -29 4 -9 18 9 44 20 58 24 33 9 -72 9 -170 -1z
m-43 -35 c-3 -3 -12 -4 -19 -1 -8 3 -5 6 6 6 11 1 17 -2 13 -5z m726 -1 c-7
-2 -19 -2 -25 0 -7 3 -2 5 12 5 14 0 19 -2 13 -5z m-778 -13 c-27 -12 -43 -12
-25 0 8 5 22 9 30 9 10 0 8 -3 -5 -9z m875 -20 c22 -11 40 -23 40 -25 0 -5
-79 32 -89 41 -11 10 14 2 49 -16z m-921 6 c-2 -2 -15 -9 -29 -15 -24 -11 -24
-11 -6 3 16 13 49 24 35 12z m-150 -90 c-2 -2 -15 -9 -29 -15 -24 -11 -24 -11
-6 3 16 13 49 24 35 12z m1526 -337 c19 -37 35 -71 35 -75 0 -5 -17 23 -38 61
-20 39 -47 86 -60 105 l-24 35 26 -30 c14 -16 42 -60 61 -96z m-1884 -76 c-12
-20 -14 -14 -5 12 4 9 9 14 11 11 3 -2 0 -13 -6 -23z m1948 -83 c0 -8 -7 1
-14 20 -18 46 -17 64 0 25 8 -16 14 -37 14 -45z m-1968 29 c-5 -13 -10 -19
-10 -12 -1 15 10 45 15 40 3 -2 0 -15 -5 -28z m1976 -71 c-3 -8 -6 -5 -6 6 -1
11 2 17 5 13 3 -3 4 -12 1 -19z m-2000 -10 c-3 -8 -6 -5 -6 6 -1 11 2 17 5 13
3 -3 4 -12 1 -19z m2010 -30 c-3 -8 -6 -5 -6 6 -1 11 2 17 5 13 3 -3 4 -12 1
-19z m-2020 -25 c-3 -10 -5 -4 -5 12 0 17 2 24 5 18 2 -7 2 -21 0 -30z m2030
-40 c-3 -10 -5 -4 -5 12 0 17 2 24 5 18 2 -7 2 -21 0 -30z m-2040 -35 c-2 -13
-4 -5 -4 17 -1 22 1 32 4 23 2 -10 2 -28 0 -40z m0 -230 c-2 -13 -4 -5 -4 17
-1 22 1 32 4 23 2 -10 2 -28 0 -40z m2040 -35 c-3 -10 -5 -2 -5 17 0 19 2 27
5 18 2 -10 2 -26 0 -35z m-2030 -40 c-3 -10 -5 -4 -5 12 0 17 2 24 5 18 2 -7
2 -21 0 -30z m2020 -25 c-3 -7 -5 -2 -5 12 0 14 2 19 5 13 2 -7 2 -19 0 -25z
m-2010 -30 c-3 -7 -5 -2 -5 12 0 14 2 19 5 13 2 -7 2 -19 0 -25z m2000 -10
c-3 -8 -6 -5 -6 6 -1 11 2 17 5 13 3 -3 4 -12 1 -19z m-1990 -30 c-3 -8 -6 -5
-6 6 -1 11 2 17 5 13 3 -3 4 -12 1 -19z m1980 -10 c-3 -8 -6 -5 -6 6 -1 11 2
17 5 13 3 -3 4 -12 1 -19z m-22 -78 c-9 -28 -19 -50 -21 -48 -2 2 4 27 13 56
9 28 19 50 21 47 2 -2 -4 -27 -13 -55z m-1917 -35 c0 -5 -6 4 -13 20 -8 17
-14 37 -14 45 0 8 7 -1 14 -20 7 -19 13 -39 13 -45z m31 -62 c12 -24 19 -43
16 -43 -5 0 -45 75 -45 86 0 11 6 2 29 -43z m1846 -2 c-21 -43 -29 -39 -8 4 9
19 18 33 21 31 2 -2 -4 -18 -13 -35z m-42 -71 c-9 -17 -28 -43 -41 -58 -13
-15 -6 -1 14 31 38 59 58 79 27 27z m-1748 -22 c16 -24 22 -38 14 -31 -15 12
-53 73 -46 73 2 0 17 -19 32 -42z m61 -85 c15 -20 23 -33 16 -29 -13 8 -56 66
-49 66 3 0 17 -17 33 -37z m1594 -23 c-17 -22 -34 -40 -37 -40 -2 0 10 18 27
40 17 22 34 40 37 40 2 0 -10 -18 -27 -40z m-1444 -159 c49 -58 143 -161 209
-230 65 -70 135 -144 155 -167 19 -22 -14 9 -73 70 -125 129 -339 365 -387
428 -47 61 -8 20 96 -101z m1362 57 c-93 -112 -240 -271 -407 -440 l-174 -178
-127 0 c-119 0 -128 1 -146 23 -10 12 -12 16 -4 10 10 -9 56 -13 151 -13 l137
0 183 187 c100 104 236 250 303 326 118 135 170 187 84 85z m-465 -629 c-18
-5 -33 -11 -33 -12 0 -1 18 -2 39 -2 22 0 37 4 34 9 -8 13 17 -3 45 -27 12
-11 22 -25 22 -31 0 -7 -3 -7 -8 1 -4 6 -7 -11 -7 -37 0 -26 3 -43 7 -37 5 8
8 8 8 1 0 -6 -9 -19 -21 -30 -27 -24 -131 -30 -150 -8 -16 19 -21 82 -8 106 6
11 8 22 5 25 -3 3 -10 -5 -15 -18 -6 -14 -10 -18 -10 -8 -1 28 67 79 104 78
12 -1 7 -4 -12 -10z m-375 -100 c-3 -8 -7 -3 -11 10 -4 17 -3 21 5 13 5 -5 8
-16 6 -23z m282 -2 c0 -18 -2 -19 -10 -7 -13 20 -13 43 0 35 6 -3 10 -16 10
-28z m207 -9 c-3 -7 -5 -2 -5 12 0 14 2 19 5 13 2 -7 2 -19 0 -25z m-230 -20
c-3 -8 -6 -5 -6 6 -1 11 2 17 5 13 3 -3 4 -12 1 -19z m-238 -38 c0 -9 -4 -8
-9 5 -5 11 -9 27 -9 35 0 9 4 8 9 -5 5 -11 9 -27 9 -35z"/>
<path d="M1580 176 c0 -2 8 -10 18 -17 15 -13 16 -12 3 4 -13 16 -21 21 -21
13z"/>
<path d="M1480 150 c-24 -24 -26 -67 -4 -98 20 -28 83 -31 107 -4 23 25 22 85
-1 105 -25 23 -78 21 -102 -3z m90 -10 c24 -24 25 -48 4 -78 -31 -44 -97 -19
-97 38 0 56 54 79 93 40z"/>
<path d="M1500 101 c0 -23 5 -41 10 -41 6 0 10 7 10 15 0 8 5 15 10 15 6 0 10
-7 10 -15 0 -8 4 -15 10 -15 5 0 8 17 7 38 -2 32 -5 37 -29 40 -27 3 -28 1
-28 -37z m42 14 c0 -5 -5 -11 -11 -13 -6 -2 -11 4 -11 13 0 9 5 15 11 13 6 -2
11 -8 11 -13z"/>
<path d="M1450 46 c0 -2 8 -10 18 -17 15 -13 16 -12 3 4 -13 16 -21 21 -21 13z"/>
<path d="M1589 33 c-13 -16 -12 -17 4 -4 16 13 21 21 13 21 -2 0 -10 -8 -17
-17z"/>
<path d="M1171 2520 c-24 -5 -59 -18 -78 -30 -24 -14 -52 -20 -93 -20 -78 0
-175 -33 -237 -79 -27 -21 -60 -41 -74 -44 -38 -10 -133 -90 -194 -164 -50
-60 -155 -249 -155 -278 0 -6 24 12 54 41 59 57 124 84 202 84 31 0 55 9 94
35 72 48 138 66 240 64 72 -1 93 3 141 25 88 41 198 53 298 34 45 -9 101 -26
124 -37 34 -17 63 -21 135 -21 107 0 184 -22 243 -70 31 -24 47 -30 88 -30 77
0 157 -35 213 -92 26 -27 48 -47 48 -44 0 20 -87 189 -124 240 -59 83 -168
183 -230 213 -28 13 -69 37 -91 53 -56 42 -143 70 -216 70 -47 0 -75 7 -116
26 -42 21 -71 27 -141 30 -48 2 -107 -1 -131 -6z m260 -48 c20 -12 43 -22 50
-22 11 0 19 -34 32 -132 22 -169 22 -162 -7 -143 -34 23 -150 45 -236 45 -77
0 -209 -28 -235 -50 -18 -15 -19 -23 5 140 11 74 20 136 20 138 0 1 8 2 17 2
9 0 24 6 32 14 32 27 78 35 181 33 89 -2 111 -6 141 -25z m-404 -149 c-10 -71
-20 -137 -22 -148 -4 -18 -12 -20 -92 -21 -96 0 -184 -21 -226 -54 -14 -11
-27 -20 -30 -20 -5 0 22 132 43 209 6 23 15 41 20 41 6 0 31 15 57 34 87 61
145 83 229 85 l40 1 -19 -127z m606 112 c32 -8 83 -32 114 -52 31 -21 66 -43
78 -50 17 -10 27 -37 48 -126 15 -63 27 -117 27 -121 0 -4 -19 4 -43 18 -58
35 -168 59 -244 54 -40 -3 -63 0 -63 7 0 5 -9 69 -20 140 -11 72 -20 133 -20
138 0 12 62 8 123 -8z m-969 -227 c-13 -57 -26 -113 -29 -124 -4 -18 -15 -23
-62 -29 -32 -4 -79 -15 -105 -25 -27 -10 -48 -16 -48 -14 0 10 69 112 108 159
39 46 139 135 153 135 4 0 -4 -46 -17 -102z m1317 13 c59 -59 149 -181 149
-202 0 -4 -13 -1 -29 7 -16 8 -62 20 -103 26 l-75 12 -27 116 c-14 63 -26 119
-26 123 0 16 48 -19 111 -82z"/>
<path d="M1871 2386 c2 -2 15 -9 29 -15 24 -11 24 -11 6 3 -16 13 -49 24 -35
12z"/>
<path d="M1165 1932 c-28 -4 -35 -15 -98 -144 -37 -77 -66 -142 -65 -143 2 -1
18 0 36 2 31 5 37 13 103 144 71 143 74 150 62 147 -5 0 -21 -3 -38 -6z"/>
<path d="M1238 1875 c-24 -46 -28 -67 -28 -135 l0 -80 31 0 31 0 -3 85 c-2 47
-2 85 1 85 3 0 16 -18 30 -40 14 -22 28 -40 32 -40 4 0 20 19 35 42 l28 42 3
-87 3 -87 29 0 30 0 0 135 0 135 -34 0 c-28 0 -38 -7 -61 -40 -15 -22 -29 -40
-31 -40 -2 0 -16 18 -30 40 -15 22 -29 40 -33 40 -3 0 -18 -25 -33 -55z m190
-87 c-2 -111 -2 -111 -5 -25 -3 72 -7 88 -18 83 -22 -8 -26 8 -9 32 28 41 34
24 32 -90z m-144 77 c3 -9 0 -15 -9 -15 -9 0 -12 6 -9 15 4 8 7 15 9 15 2 0 5
-7 9 -15z m66 -50 c-10 -12 -16 -13 -26 -4 -20 16 -18 19 12 19 22 0 25 -2 14
-15z m-113 -97 c-2 -18 -4 -6 -4 27 0 33 2 48 4 33 2 -15 2 -42 0 -60z"/>
<path d="M916 1899 c-49 -10 -90 -20 -90 -21 -1 -2 0 -63 2 -136 3 -119 5
-133 20 -127 9 3 35 9 58 12 26 3 45 12 48 22 3 9 9 22 12 30 5 10 -2 12 -35
6 -40 -7 -41 -6 -41 23 0 29 2 30 55 37 48 6 55 9 55 29 0 33 -6 35 -61 21
-27 -7 -49 -12 -50 -12 0 1 -2 14 -3 29 -2 29 -3 28 87 44 33 5 37 10 37 35 0
16 -1 29 -2 28 -2 -1 -43 -10 -92 -20z m-53 -116 c4 -40 3 -73 -2 -73 -4 0 -9
35 -10 77 -3 96 5 93 12 -4z m4 -130 c-3 -10 -5 -2 -5 17 0 19 2 27 5 18 2
-10 2 -26 0 -35z"/>
<path d="M1601 1889 c-5 -13 -30 -72 -54 -131 l-46 -108 34 0 c29 0 36 4 41
25 6 24 9 25 53 19 48 -7 61 -17 61 -47 0 -10 12 -22 26 -27 37 -14 47 -12 39
8 -4 9 -24 73 -46 141 -21 68 -40 125 -41 127 -2 1 -15 5 -30 9 -23 6 -29 3
-37 -16z m52 -29 c4 -15 0 -20 -14 -20 -18 0 -26 20 -12 33 11 12 21 8 26 -13z
m2 -118 c-2 -2 -15 -2 -29 2 -24 6 -24 7 -10 34 7 15 14 34 15 42 1 8 7 -5 15
-29 8 -25 12 -47 9 -49z m-69 -2 c0 -11 -6 -20 -13 -20 -11 0 -11 5 -3 20 6
11 12 20 13 20 2 0 3 -9 3 -20z m107 -27 c-7 -2 -19 -2 -25 0 -7 3 -2 5 12 5
14 0 19 -2 13 -5z"/>
<path d="M2204 1865 c31 -83 32 -379 1 -505 -23 -90 -28 -129 -17 -110 5 8 20
58 33 110 19 78 23 123 24 250 0 155 -16 270 -37 270 -5 0 -8 -7 -4 -15z"/>
<path d="M1839 1793 l39 -78 -44 -56 -44 -57 32 -11 c17 -6 32 -11 34 -11 2 0
14 19 28 42 l25 42 11 -29 c26 -72 33 -83 66 -98 19 -9 34 -15 34 -13 0 2 -16
37 -35 79 -19 42 -35 82 -35 89 0 7 18 31 40 53 45 46 47 51 23 58 -10 2 -25
8 -34 11 -12 5 -23 -3 -40 -30 l-23 -38 -22 51 c-17 39 -30 53 -55 62 -17 6
-34 11 -36 11 -2 0 14 -35 36 -77z m83 -93 c-2 -17 -9 -29 -14 -28 -5 2 -9 7
-9 11 1 4 1 16 1 27 0 11 6 20 13 20 9 0 12 -10 9 -30z"/>
<path d="M327 1840 c-21 -81 -29 -222 -19 -323 13 -116 49 -277 63 -277 12 0
11 7 -7 65 -39 129 -54 343 -32 480 9 61 6 97 -5 55z"/>
<path d="M612 1817 l-63 -21 7 -131 c4 -71 8 -131 9 -133 2 -2 14 0 29 4 23 6
26 11 26 54 0 65 21 73 56 21 24 -37 26 -38 57 -28 18 7 34 13 36 14 2 1 -11
19 -28 38 l-31 36 20 26 c29 37 28 107 -2 127 -28 20 -38 19 -116 -7z m106
-19 c7 -7 12 -21 11 -32 -1 -18 -2 -17 -8 4 -5 17 -16 27 -36 31 -28 6 -28 7
-4 8 14 0 30 -4 37 -11z m-129 -173 c-4 -18 -7 9 -6 65 0 90 0 92 6 30 4 -36
4 -78 0 -95z m105 139 c9 -24 -16 -57 -53 -71 l-31 -11 0 43 c0 33 4 45 18 48
36 10 60 6 66 -9z m-4 -100 c0 -8 -4 -12 -10 -9 -5 3 -10 10 -10 16 0 5 5 9
10 9 6 0 10 -7 10 -16z"/>
<path d="M1193 1469 c-39 -5 -98 -18 -130 -30 -34 -12 -99 -24 -158 -29 -106
-8 -164 -26 -231 -70 -23 -15 -63 -30 -90 -34 -55 -8 -134 -44 -179 -81 l-30
-25 33 -63 c75 -140 261 -364 547 -655 l200 -204 124 0 124 1 54 53 c108 106
404 426 493 533 101 121 194 255 211 304 9 26 8 35 -5 50 -28 31 -113 71 -178
85 -35 7 -81 25 -102 40 -55 37 -157 66 -232 66 -41 0 -90 9 -136 24 -40 14
-102 27 -138 31 -36 3 -74 7 -85 9 -11 2 -52 -1 -92 -5z m177 -29 c50 -8 142
-34 197 -55 6 -2 -21 -290 -38 -410 -32 -226 -87 -429 -174 -650 -5 -14 -5
-17 2 -10 6 6 27 53 46 105 93 250 142 504 173 893 l6 77 32 0 c82 0 167 -28
288 -95 24 -13 18 -39 -38 -174 -108 -258 -355 -694 -438 -773 l-49 -48 -101
0 -102 0 -51 53 c-105 108 -391 632 -469 859 l-22 67 48 31 c76 49 145 71 239
77 47 3 111 14 141 25 103 36 201 45 310 28z m-721 -253 c44 -121 179 -393
291 -587 l89 -155 -100 105 c-231 241 -431 484 -488 592 -30 56 -26 64 62 108
99 49 106 46 146 -63z m1396 64 c103 -51 102 -51 66 -115 -69 -120 -250 -339
-460 -556 l-120 -125 75 130 c105 181 276 528 305 619 28 90 39 93 134 47z"/>
<path d="M985 1264 c8 -201 48 -454 106 -661 32 -112 99 -296 106 -289 3 2
-11 44 -30 93 -89 225 -148 515 -177 868 l-9 110 4 -121z"/>
<path d="M1160 168 c0 -4 4 -9 9 -12 5 -3 12 -18 15 -33 4 -16 12 -45 17 -65
l10 -38 68 0 69 0 12 52 c7 29 19 63 26 76 8 12 13 22 12 22 -53 5 -238 3
-238 -2z m183 -65 c-19 -57 -13 -49 -40 -57 -22 -7 -23 -5 -23 48 l0 56 39 0
40 0 -16 -47z m-85 -10 c4 -56 -22 -60 -37 -5 -15 51 -14 54 12 50 18 -2 23
-10 25 -45z"/>
</g>
</svg>
