<?xml version="1.0" standalone="no"?>
<!DOCTYPE svg PUBLIC "-//W3C//DTD SVG 20010904//EN"
 "http://www.w3.org/TR/2001/REC-SVG-20010904/DTD/svg10.dtd">
<svg version="1.0" xmlns="http://www.w3.org/2000/svg"
 width="152.000000pt" height="152.000000pt" viewBox="0 0 152.000000 152.000000"
 preserveAspectRatio="xMidYMid meet">
<metadata>
Created by potrace 1.16, written by Peter Selinger 2001-2019
</metadata>
<g transform="translate(0.000000,152.000000) scale(0.100000,-0.100000)"
fill="#000000" stroke="none">
<path d="M1165 1019 c-22 -12 -49 -30 -61 -40 -15 -14 -35 -19 -77 -19 -46 0
-58 -4 -67 -20 -6 -11 -16 -20 -23 -20 -7 0 -18 9 -25 20 -11 18 -23 20 -126
20 l-114 0 -31 -42 -31 -42 0 42 c0 40 -1 42 -30 42 -16 0 -30 5 -30 10 0 6
-23 10 -51 10 -44 0 -55 -4 -75 -27 -13 -16 -24 -32 -25 -38 -1 -5 -4 1 -8 15
l-7 25 -182 2 -182 3 0 -133 c0 -72 3 -169 7 -214 l6 -83 523 0 524 0 0 94 c0
54 -4 98 -10 101 -12 7 -4 25 11 25 5 0 9 -5 9 -11 0 -11 42 -70 78 -109 30
-32 54 -77 62 -115 5 -27 10 -30 51 -33 l46 -3 6 46 c6 38 17 58 62 108 84 93
105 136 105 218 0 39 -4 69 -10 69 -5 0 -10 9 -10 20 0 11 -4 20 -10 20 -5 0
-10 6 -10 13 0 8 -22 26 -49 40 -65 36 -184 39 -246 6z m226 -26 c27 -14 49
-32 49 -40 0 -7 5 -13 10 -13 6 0 10 -9 10 -20 0 -11 5 -20 10 -20 6 0 10 -22
10 -49 0 -60 -28 -114 -105 -198 -45 -50 -56 -70 -62 -108 -5 -42 -8 -46 -32
-43 -19 2 -27 10 -31 33 -8 38 -32 83 -62 115 -70 76 -98 132 -98 199 0 62 23
106 68 135 52 32 60 34 126 35 45 1 69 -5 107 -26z m-861 -47 c0 -7 -13 -29
-30 -47 -31 -36 -37 -49 -20 -49 6 0 10 7 10 15 0 8 4 15 8 15 4 0 16 14 25
30 12 20 26 30 43 30 23 0 24 -2 24 -72 l0 -71 50 71 50 72 95 -1 94 0 27 -35
c15 -19 31 -34 35 -34 4 0 17 16 29 35 19 30 27 35 61 35 47 0 49 -12 8 -60
l-29 -35 25 -8 c22 -8 26 -14 23 -41 -2 -23 -8 -32 -25 -34 -29 -4 -29 -7 2
-40 14 -15 25 -34 25 -43 0 -15 -21 -17 -195 -18 l-194 -1 -3 61 -3 61 -40
-58 c-34 -50 -45 -59 -70 -59 -29 0 -30 1 -35 59 l-5 59 -43 -61 c-43 -62 -43
-62 -93 -62 -27 0 -49 -4 -49 -10 0 -5 -16 -10 -35 -10 -19 0 -35 5 -35 10 0
6 -19 10 -43 10 -33 0 -49 6 -67 25 -13 14 -20 28 -16 32 3 4 13 -3 22 -15 10
-14 26 -22 45 -22 l30 0 -32 39 -31 40 28 24 c22 19 28 32 27 62 -2 54 -31 74
-105 75 l-58 0 0 -124 c0 -119 1 -124 20 -119 16 4 20 14 20 46 0 36 2 39 14
27 9 -10 12 -29 9 -52 -5 -37 -7 -38 -44 -38 l-39 0 0 140 0 140 63 0 c44 0
71 -6 94 -20 l33 -20 0 21 c0 18 5 20 68 17 l67 -3 3 -32 c3 -32 2 -33 -32
-33 -29 0 -36 -4 -36 -20 0 -16 7 -20 36 -20 37 0 49 8 74 52 35 61 54 78 87
78 21 0 33 -5 33 -14z m-353 -83 c13 -19 12 -24 -6 -42 -12 -12 -32 -21 -46
-21 -23 0 -25 4 -25 46 0 45 0 45 31 42 19 -2 38 -12 46 -25z m-46 -83 c11 0
19 -7 19 -17 0 -13 -3 -14 -12 -5 -7 7 -22 12 -35 12 -13 0 -23 5 -23 11 0 6
7 8 16 5 9 -3 24 -6 35 -6z m369 -99 c0 -22 -5 -30 -24 -33 l-24 -5 21 33 c12
19 23 34 25 34 1 0 2 -13 2 -29z m147 -37 c-2 -3 -11 -2 -20 2 -15 5 -15 8 1
32 l17 26 3 -28 c2 -15 2 -30 -1 -32z m-447 -29 c6 -3 10 -19 10 -36 l0 -29
-80 0 -80 0 0 41 0 42 70 -6 c39 -3 75 -9 80 -12z m410 6 c0 -4 19 -6 43 -4
23 1 124 4 225 6 l182 3 0 -38 c0 -31 -3 -38 -20 -38 -14 0 -20 7 -21 23 l-2
22 -4 -22 -4 -23 -390 0 -389 0 0 38 0 37 190 1 c105 1 190 -2 190 -5z"/>
<path d="M1180 977 c-24 -13 -45 -28 -48 -35 -2 -8 13 -4 39 9 51 27 155 29
214 5 44 -19 48 -19 40 -6 -4 6 -24 19 -45 30 -56 28 -144 27 -200 -3z"/>
<path d="M1244 938 c-6 -7 -16 -25 -23 -40 -13 -26 -47 -43 -56 -28 -7 11 6
20 27 20 10 0 18 5 18 10 0 6 -5 10 -12 10 -6 0 -3 7 8 15 15 12 16 14 3 15
-9 0 -19 -3 -23 -7 -4 -4 -15 -8 -24 -8 -13 0 -18 -11 -20 -44 -3 -37 -1 -43
13 -37 9 3 25 6 35 6 11 0 26 12 35 28 l15 27 -6 -30 c-5 -20 -3 -27 4 -20 15
15 27 59 13 51 -15 -9 -14 7 1 22 6 6 9 14 6 17 -3 3 -9 0 -14 -7z m-74 -32
c0 -3 -4 -8 -10 -11 -5 -3 -10 -1 -10 4 0 6 5 11 10 11 6 0 10 -2 10 -4z"/>
<path d="M1264 929 c-3 -6 -1 -15 6 -19 7 -4 9 -16 5 -29 -9 -29 5 -26 33 7
l23 27 -6 -27 c-4 -23 -2 -28 15 -28 11 0 20 5 20 10 0 6 4 10 10 10 5 0 7 -6
4 -14 -3 -8 4 -15 19 -18 22 -4 24 -2 23 33 0 20 -4 35 -8 33 -5 -3 -15 2 -24
10 -24 24 -32 19 -37 -21 l-4 -38 -1 38 c-2 43 -7 45 -33 15 l-18 -23 -1 23
c0 23 -14 30 -26 11z m126 -35 c0 -2 -7 -4 -15 -4 -8 0 -15 4 -15 10 0 5 7 7
15 4 8 -4 15 -8 15 -10z"/>
<path d="M1113 855 c0 -22 2 -30 4 -17 2 12 2 30 0 40 -3 9 -5 -1 -4 -23z"/>
<path d="M1438 844 c-4 -34 3 -50 16 -37 9 10 7 73 -3 73 -5 0 -11 -16 -13
-36z"/>
<path d="M1172 799 c-59 -17 -51 -47 40 -148 27 -29 46 -41 65 -41 20 0 24 -3
14 -9 -7 -5 -10 -14 -7 -20 4 -6 0 -11 -9 -11 -12 0 -14 -4 -6 -19 6 -10 7
-21 4 -25 -3 -3 -2 -6 3 -6 15 0 44 99 32 106 -13 8 -2 130 13 153 10 15 7
-24 -7 -99 -2 -14 6 3 18 37 13 34 27 65 32 70 14 13 -3 -44 -29 -100 -14 -28
-22 -53 -19 -56 3 -3 31 21 60 54 64 69 67 94 14 112 -42 14 -171 15 -218 2z
m59 -76 l19 -58 -6 49 c-3 27 -8 55 -11 62 -3 8 -1 14 5 14 5 0 13 -21 16 -47
4 -27 10 -63 13 -80 3 -19 1 -33 -5 -33 -11 0 -62 121 -62 147 0 27 10 9 31
-54z m59 -15 c0 -45 -2 -79 -4 -77 -2 2 -7 39 -11 82 -5 53 -3 77 4 77 7 0 11
-30 11 -82z m-91 19 c11 -26 18 -47 16 -47 -7 0 -45 78 -45 91 0 18 7 8 29
-44z m180 4 c-29 -53 -37 -46 -9 9 12 23 24 40 27 37 3 -3 -5 -24 -18 -46z"/>
<path d="M483 939 c-13 -4 -37 -30 -55 -57 -39 -58 -139 -205 -145 -211 -8
-10 -14 9 -7 21 5 7 9 31 9 53 0 36 2 40 24 37 24 -2 51 13 51 30 0 5 -9 6
-20 3 -11 -3 -29 -3 -41 0 -16 5 -19 14 -17 38 3 28 7 32 36 35 20 2 32 9 32
18 0 10 -14 14 -55 14 l-55 0 2 -121 c2 -106 4 -122 20 -130 39 -21 61 -6 114
76 29 44 71 106 94 138 23 33 40 60 38 62 -2 1 -13 -1 -25 -6z"/>
<path d="M832 904 c1 -12 5 -21 9 -18 13 8 22 -17 11 -28 -8 -8 -17 0 -32 26
-16 25 -29 36 -46 36 l-24 0 0 -120 c0 -118 0 -120 23 -120 18 0 22 5 22 33 0
26 4 33 23 35 13 2 30 1 38 -2 13 -5 12 -9 -2 -31 -19 -30 -40 -34 -24 -5 9
16 8 20 -5 20 -17 0 -20 -31 -4 -47 7 -7 21 -8 39 -3 16 5 45 5 64 0 37 -8 45
-3 24 18 -9 9 -9 15 -1 23 8 8 14 6 22 -9 6 -10 8 -22 6 -26 -3 -3 -2 -4 1 -2
3 2 19 0 35 -4 33 -10 41 8 13 31 -8 7 -24 29 -35 50 l-19 37 26 45 c13 25 31
51 39 57 23 19 18 27 -15 22 -16 -2 -32 -12 -35 -22 -3 -9 -16 -27 -28 -38
l-23 -22 -30 39 c-35 47 -75 61 -72 25z m-33 -36 c12 -15 11 -18 -3 -18 -10 0
-16 8 -16 22 0 12 1 19 3 17 1 -2 9 -12 16 -21z m84 -51 c-3 -6 -1 -7 5 -3 15
9 25 -11 14 -30 -7 -13 -13 -10 -31 21 -22 39 -18 72 5 40 7 -10 11 -22 7 -28z
m-53 -30 c0 -5 -7 -7 -17 -5 -10 2 -18 15 -20 33 l-3 30 20 -25 c11 -14 20
-29 20 -33z m120 14 c0 -11 -4 -23 -10 -26 -6 -4 -10 5 -10 19 0 14 5 26 10
26 6 0 10 -9 10 -19z m-50 -66 c0 -14 -4 -25 -10 -25 -5 0 -10 11 -10 25 0 14
5 25 10 25 6 0 10 -11 10 -25z m45 -5 c-5 -8 -11 -8 -17 -2 -6 6 -7 16 -3 22
5 8 11 8 17 2 6 -6 7 -16 3 -22z"/>
<path d="M540 911 c0 -5 -38 -58 -84 -119 -46 -61 -82 -113 -80 -115 3 -2 14
-2 27 1 21 4 117 122 117 143 0 5 4 9 9 9 6 0 9 -10 9 -22 -1 -13 -1 -47 0
-75 2 -44 5 -53 21 -53 16 0 74 72 106 131 18 35 25 19 25 -59 0 -71 2 -78 20
-78 19 0 20 7 20 123 0 154 -10 159 -90 43 l-55 -79 -8 37 c-5 20 -7 56 -5 80
3 35 0 42 -14 42 -10 0 -18 -4 -18 -9z m20 -46 c0 -16 -6 -25 -15 -25 -18 0
-18 5 -5 31 14 26 20 24 20 -6z m150 0 c0 -16 -6 -25 -15 -25 -18 0 -18 5 -5
31 14 26 20 24 20 -6z m-120 -124 c0 -3 -7 -15 -15 -25 -14 -19 -15 -18 -15
12 0 24 4 30 15 26 8 -4 15 -9 15 -13z"/>
<path d="M434 807 c-11 -17 -29 -44 -38 -59 -10 -16 -16 -28 -13 -28 3 0 18
20 34 45 15 25 31 45 34 45 4 0 9 7 13 15 10 27 -8 16 -30 -18z"/>
<path d="M1010 801 c0 -5 7 -11 14 -14 10 -4 13 -1 9 9 -6 15 -23 19 -23 5z"/>
<path d="M204 766 c-8 -9 -8 -17 1 -29 18 -25 25 -21 25 13 0 32 -8 37 -26 16z"/>
<path d="M300 748 c0 -12 1 -19 3 -17 1 2 9 12 16 22 12 14 11 17 -3 17 -10 0
-16 -8 -16 -22z"/>
<path d="M120 845 c0 -26 14 -31 39 -16 19 12 6 41 -19 41 -15 0 -20 -7 -20
-25z"/>
<path d="M80 594 c0 -8 5 -12 10 -9 6 4 8 11 5 16 -9 14 -15 11 -15 -7z"/>
</g>
</svg>
