<?xml version="1.0" standalone="no"?>
<!DOCTYPE svg PUBLIC "-//W3C//DTD SVG 20010904//EN"
 "http://www.w3.org/TR/2001/REC-SVG-20010904/DTD/svg10.dtd">
<svg version="1.0" xmlns="http://www.w3.org/2000/svg"
 width="192.000000pt" height="192.000000pt" viewBox="0 0 192.000000 192.000000"
 preserveAspectRatio="xMidYMid meet">
<metadata>
Created by potrace 1.16, written by Peter Selinger 2001-2019
</metadata>
<g transform="translate(0.000000,192.000000) scale(0.100000,-0.100000)"
fill="#000000" stroke="none">
<path d="M784 1891 c-129 -21 -301 -101 -421 -195 -139 -111 -257 -288 -315
-476 -21 -67 -23 -95 -23 -260 0 -212 11 -263 91 -425 114 -233 322 -406 584
-487 67 -21 95 -23 260 -23 165 0 193 2 260 23 262 81 470 254 584 487 80 162
91 213 91 425 0 165 -2 193 -23 260 -81 262 -255 470 -486 584 -152 74 -208
87 -391 91 -88 2 -183 0 -211 -4z m453 -40 c313 -103 527 -322 624 -641 20
-66 23 -96 23 -250 0 -154 -3 -184 -23 -250 -81 -265 -247 -467 -476 -579
-169 -84 -221 -95 -425 -95 -204 0 -256 11 -425 95 -229 112 -395 314 -476
579 -20 66 -23 96 -23 250 0 154 3 184 23 250 95 313 307 534 607 636 108 37
166 43 334 39 129 -3 155 -7 237 -34z"/>
<path d="M753 1768 c-6 -7 -33 -56 -60 -108 -28 -52 -121 -226 -207 -386 -86
-161 -156 -302 -156 -314 0 -18 394 -771 423 -808 6 -8 37 -12 88 -12 l78 0
35 63 c172 310 396 745 394 763 -2 11 -64 134 -138 273 -97 181 -140 251 -152
251 -17 0 -17 2 -1 35 9 19 20 35 23 35 9 0 320 -584 320 -601 0 -8 -90 -182
-200 -388 -130 -242 -200 -383 -200 -402 l0 -30 82 3 82 3 41 75 c211 387 385
723 385 742 -1 13 -96 201 -213 418 l-212 395 -84 0 -84 0 -214 -399 c-117
-219 -213 -407 -213 -416 0 -10 62 -133 137 -274 101 -188 142 -256 155 -256
17 0 17 -2 1 -35 -9 -19 -20 -35 -23 -35 -10 0 -320 583 -320 601 0 8 90 182
200 388 128 239 200 383 200 402 l0 29 -79 0 c-51 0 -82 -4 -88 -12z m113 -80
c-129 -238 -386 -722 -386 -728 0 -4 79 -155 175 -335 96 -180 175 -332 175
-338 0 -22 20 13 195 340 l177 333 -106 197 -105 197 27 57 c25 53 42 73 42
49 0 -5 59 -118 130 -252 72 -133 130 -244 130 -248 0 -3 -92 -178 -205 -389
-113 -211 -205 -388 -205 -392 0 -5 -30 -9 -67 -9 l-68 1 -205 385 c-113 212
-205 394 -205 404 0 10 92 192 205 404 l205 385 62 1 63 0 -34 -62z m484 -324
c113 -212 205 -394 205 -404 0 -11 -92 -192 -205 -404 l-205 -385 -62 -1 -63
0 34 63 c121 220 386 720 386 726 0 4 -79 154 -175 334 -96 181 -175 332 -175
337 0 6 -4 10 -10 10 -5 0 -10 -5 -10 -11 0 -6 -79 -159 -176 -340 l-176 -329
106 -198 105 -197 -27 -57 c-25 -52 -42 -72 -42 -49 0 5 -58 118 -130 252 -71
134 -130 246 -130 249 0 3 92 178 205 389 113 211 205 387 205 392 0 5 30 9
68 9 l67 -1 205 -385z m-262 -261 c40 -73 72 -137 72 -143 0 -6 -46 -96 -102
-201 l-101 -189 -18 39 c-9 22 -54 107 -98 189 -45 82 -81 155 -81 161 0 7 46
97 101 201 l102 189 27 -57 c15 -31 59 -117 98 -189z"/>
</g>
</svg>
