<?xml version="1.0" standalone="no"?>
<!DOCTYPE svg PUBLIC "-//W3C//DTD SVG 20010904//EN"
 "http://www.w3.org/TR/2001/REC-SVG-20010904/DTD/svg10.dtd">
<svg version="1.0" xmlns="http://www.w3.org/2000/svg"
 width="192.000000pt" height="192.000000pt" viewBox="0 0 192.000000 192.000000"
 preserveAspectRatio="xMidYMid meet">
<metadata>
Created by potrace 1.16, written by Peter Selinger 2001-2019
</metadata>
<g transform="translate(0.000000,192.000000) scale(0.100000,-0.100000)"
fill="#000000" stroke="none">
<path d="M682 1242 c-78 -147 -132 -259 -132 -276 0 -16 54 -129 133 -276
l132 -249 61 -1 c56 0 62 2 74 28 l14 27 4 -28 c3 -27 4 -28 64 -25 l60 3 134
250 c74 138 134 260 134 272 0 12 -60 133 -133 270 l-133 248 -61 3 c-54 3
-63 0 -77 -20 l-16 -22 0 22 c0 20 -5 22 -63 22 l-62 0 -133 -248z m221 201
c-11 -16 -37 -62 -58 -103 -21 -41 -74 -140 -117 -219 -43 -80 -78 -149 -78
-154 0 -6 15 -38 34 -71 18 -34 59 -110 91 -171 32 -60 68 -127 80 -148 l22
-38 53 98 c29 54 77 145 108 203 30 58 59 109 63 114 7 8 -13 50 -107 222 -22
40 -22 43 -6 78 9 19 19 35 22 35 3 0 14 -18 26 -42 11 -23 49 -96 84 -161
l63 -119 -24 -46 c-13 -25 -45 -84 -70 -131 -25 -47 -72 -134 -104 -195 -73
-139 -71 -137 -112 -133 -39 3 -22 -23 -202 313 l-102 190 18 35 c10 19 70
133 133 252 l115 217 43 1 43 0 -18 -27z m218 -70 c72 -136 108 -203 167 -313
l51 -96 -18 -29 c-9 -17 -46 -84 -81 -150 -35 -66 -82 -154 -104 -195 -23 -41
-47 -87 -55 -103 -12 -22 -21 -27 -53 -27 l-39 0 44 83 c24 45 86 159 136 253
l91 172 -29 53 c-67 124 -138 258 -166 311 -17 32 -32 58 -35 58 -3 0 -18 -24
-32 -52 -26 -50 -88 -166 -164 -306 l-34 -64 66 -125 67 -126 -19 -39 -19 -38
-42 82 c-24 46 -63 119 -87 163 l-44 80 60 115 c34 63 68 129 78 145 15 26 81
150 119 223 9 17 20 22 51 22 l39 0 52 -97z m-211 7 c-17 -33 -33 -60 -35 -60
-3 0 8 27 25 60 17 33 33 60 35 60 3 0 -8 -27 -25 -60z m160 -120 c17 -33 28
-60 25 -60 -2 0 -17 24 -31 53 -15 28 -32 55 -38 59 -8 6 -7 8 1 8 7 0 26 -27
43 -60z m-235 -20 c-14 -27 -28 -50 -30 -50 -3 0 6 23 20 50 14 28 28 50 30
50 3 0 -6 -22 -20 -50z m189 -364 c-26 -50 -53 -99 -60 -109 -13 -20 -10 -25
-106 154 l-25 46 60 112 60 113 59 -112 60 -112 -48 -92z m116 254 c17 -33 28
-60 25 -60 -2 0 -18 27 -35 60 -17 33 -28 60 -25 60 2 0 18 -27 35 -60z m-380
-30 c-17 -33 -33 -60 -35 -60 -3 0 8 27 25 60 17 33 33 60 35 60 3 0 -8 -27
-25 -60z m450 -99 c12 -25 16 -42 10 -46 -6 -3 -10 1 -10 10 0 9 -7 29 -15 45
-9 17 -13 30 -10 30 2 0 14 -18 25 -39z m-508 -20 c-2 -17 6 -47 22 -80 15
-28 24 -51 21 -51 -2 0 -18 27 -35 60 -24 48 -28 64 -20 80 15 27 17 25 12 -9z
m468 -121 c-17 -33 -33 -60 -35 -60 -3 0 8 27 25 60 17 33 33 60 35 60 3 0 -8
-27 -25 -60z m-370 -100 c17 -33 28 -60 25 -60 -2 0 -18 27 -35 60 -17 33 -28
60 -25 60 2 0 18 -27 35 -60z m300 -30 c-17 -33 -33 -60 -35 -60 -3 0 8 27 25
60 17 33 33 60 35 60 3 0 -8 -27 -25 -60z m-235 -91 c9 -17 15 -33 13 -35 -3
-2 -12 12 -21 31 -21 43 -13 47 8 4z m155 -59 c-17 -33 -33 -60 -35 -60 -3 0
8 27 25 60 17 33 33 60 35 60 3 0 -8 -27 -25 -60z"/>
</g>
</svg>
