<?xml version="1.0" standalone="no"?>
<!DOCTYPE svg PUBLIC "-//W3C//DTD SVG 20010904//EN"
 "http://www.w3.org/TR/2001/REC-SVG-20010904/DTD/svg10.dtd">
<svg version="1.0" xmlns="http://www.w3.org/2000/svg"
 width="192.000000pt" height="192.000000pt" viewBox="0 0 192.000000 192.000000"
 preserveAspectRatio="xMidYMid meet">
<metadata>
Created by potrace 1.16, written by Peter Selinger 2001-2019
</metadata>
<g transform="translate(0.000000,192.000000) scale(0.100000,-0.100000)"
fill="#000000" stroke="none">
<path d="M723 1196 c-66 -125 -113 -225 -113 -241 0 -17 47 -117 113 -242
l112 -213 57 0 c44 0 59 4 67 18 10 16 10 16 11 0 0 -15 9 -18 58 -18 l57 0
113 214 c65 125 112 225 112 241 0 17 -47 117 -112 242 l-113 213 -57 0 c-44
0 -59 -4 -67 -17 -10 -17 -10 -17 -11 0 0 14 -9 17 -57 17 l-58 0 -112 -214z
m89 -23 l-116 -216 38 -71 c20 -39 64 -124 98 -188 l61 -117 100 187 100 187
-58 108 c-53 100 -56 110 -45 138 7 16 15 29 19 29 3 0 38 -62 78 -138 l71
-137 -115 -218 -115 -218 -35 3 c-33 3 -37 8 -104 133 -39 72 -90 169 -115
216 l-44 85 66 125 c173 327 162 309 198 309 l34 0 -116 -217z m319 82 c39
-71 90 -168 115 -215 l44 -86 -114 -214 c-113 -213 -114 -215 -149 -218 l-35
-3 116 217 116 217 -38 71 c-20 39 -64 124 -98 188 l-61 118 -99 -188 -100
-187 57 -108 c53 -100 56 -110 45 -138 -7 -16 -15 -29 -19 -29 -3 0 -38 62
-78 138 l-71 137 115 218 115 218 35 -3 c33 -3 37 -8 104 -133z m-120 -213
l47 -87 -47 -87 c-25 -48 -48 -88 -51 -88 -3 0 -26 40 -51 88 l-47 87 47 87
c25 48 48 88 51 88 3 0 26 -40 51 -88z"/>
</g>
</svg>
