<?xml version="1.0" standalone="no"?>
<!DOCTYPE svg PUBLIC "-//W3C//DTD SVG 20010904//EN"
 "http://www.w3.org/TR/2001/REC-SVG-20010904/DTD/svg10.dtd">
<svg version="1.0" xmlns="http://www.w3.org/2000/svg"
 width="192.000000pt" height="192.000000pt" viewBox="0 0 192.000000 192.000000"
 preserveAspectRatio="xMidYMid meet">
<metadata>
Created by potrace 1.16, written by Peter Selinger 2001-2019
</metadata>
<g transform="translate(0.000000,192.000000) scale(0.100000,-0.100000)"
fill="#000000" stroke="none">
<path d="M791 1737 c-22 -11 -59 -78 -336 -604 -41 -77 -75 -151 -75 -164 0
-12 49 -115 109 -228 60 -113 146 -276 191 -361 45 -85 91 -163 102 -172 26
-23 124 -25 155 -3 11 8 89 144 173 302 239 448 241 453 234 477 -6 18 -42 88
-206 396 -23 41 -45 78 -51 81 -5 4 -7 15 -3 24 3 10 8 16 10 14 16 -19 276
-516 276 -529 0 -7 -81 -166 -180 -352 -99 -187 -183 -350 -186 -363 -10 -39
26 -65 89 -65 30 0 61 6 74 15 12 8 70 106 129 217 59 112 117 221 129 243
110 202 145 275 145 304 0 31 -32 95 -215 436 -18 33 -60 114 -95 180 -34 66
-71 129 -81 139 -23 25 -122 33 -157 14 -16 -9 -68 -97 -154 -258 -71 -135
-158 -300 -194 -367 -35 -67 -64 -131 -64 -143 0 -22 219 -449 246 -481 8 -8
14 -24 14 -35 -1 -18 -1 -18 -16 1 -8 11 -47 81 -86 155 -39 74 -83 158 -98
185 -15 28 -42 78 -60 112 l-32 63 115 217 c110 209 130 246 218 410 45 83 49
115 17 137 -27 19 -103 21 -137 3z m125 -38 c3 -6 2 -14 -4 -18 -11 -7 -93
-157 -159 -291 -20 -41 -39 -77 -42 -80 -3 -3 -21 -34 -40 -70 -18 -36 -58
-111 -87 -167 -51 -95 -58 -124 -34 -143 3 -3 21 -36 39 -75 19 -38 36 -72 40
-75 3 -3 31 -54 62 -115 88 -172 130 -249 140 -260 5 -5 9 -17 9 -26 0 -9 7
-22 15 -29 12 -10 16 -7 25 16 6 16 21 49 34 74 13 25 43 83 67 130 24 47 46
87 49 90 3 3 19 32 36 65 47 93 116 219 127 233 7 9 7 16 1 20 -5 4 -20 30
-34 57 -14 28 -27 52 -30 55 -3 3 -23 39 -43 80 -21 41 -49 95 -63 118 l-25
44 27 54 c14 30 30 54 35 54 5 0 12 -12 15 -27 4 -16 10 -30 13 -33 4 -3 25
-41 47 -85 85 -166 146 -280 155 -289 15 -16 10 -52 -13 -98 -13 -23 -25 -45
-28 -48 -3 -3 -18 -30 -33 -60 -15 -30 -43 -84 -63 -120 -41 -73 -141 -263
-189 -357 -45 -88 -45 -88 -108 -85 l-54 4 -35 66 c-19 37 -52 99 -73 137 -21
39 -52 97 -69 130 -17 33 -33 62 -36 65 -3 3 -26 46 -51 95 -25 50 -62 121
-83 158 -35 66 -44 102 -28 109 4 2 18 26 32 53 14 28 27 52 30 55 3 3 19 32
36 65 17 33 57 107 88 165 31 58 73 139 93 180 20 41 40 77 43 80 3 3 16 26
28 52 20 44 24 47 64 51 24 2 48 4 55 5 6 1 15 -3 19 -9z m274 -72 c18 -40 37
-74 40 -77 3 -3 21 -36 39 -75 19 -38 37 -72 40 -75 3 -3 25 -41 47 -85 57
-112 163 -314 177 -337 8 -12 9 -21 2 -26 -6 -4 -21 -29 -35 -57 -14 -27 -27
-52 -30 -55 -3 -3 -19 -32 -36 -65 -17 -33 -51 -96 -74 -140 -88 -163 -150
-282 -177 -337 l-28 -56 -55 -4 c-30 -2 -57 -3 -59 -1 -5 3 40 95 50 103 3 3
21 37 40 75 18 39 35 72 38 75 3 3 21 34 40 70 18 36 58 110 87 165 29 55 70
132 91 172 l37 72 -41 78 c-68 132 -159 306 -185 353 -45 80 -78 144 -88 173
-5 15 -13 27 -17 26 -5 0 -39 -62 -76 -137 -94 -187 -161 -316 -167 -322 -3
-3 -18 -30 -33 -60 -15 -30 -35 -67 -44 -82 -17 -27 -17 -29 0 -55 9 -16 29
-53 44 -83 15 -30 30 -57 33 -60 3 -3 25 -45 49 -93 25 -49 48 -90 51 -92 11
-7 -44 -115 -57 -115 -7 0 -13 6 -13 14 0 12 -59 135 -70 146 -3 3 -21 37 -40
75 -19 39 -37 72 -40 75 -3 3 -21 37 -40 75 -19 39 -39 73 -45 78 -7 4 -7 10
0 15 6 4 21 27 34 52 13 25 43 81 66 125 23 44 64 121 90 170 27 50 67 126 89
170 22 44 43 82 46 85 11 11 50 93 50 105 0 18 11 21 77 17 l58 -4 35 -71z
m-115 -523 l70 -135 -70 -132 c-38 -73 -74 -142 -80 -154 -5 -13 -14 -22 -18
-20 -5 1 -30 43 -56 92 -26 50 -62 118 -80 153 l-34 62 28 53 c15 28 40 75 55
102 15 28 40 74 55 104 27 54 27 55 44 33 9 -13 48 -83 86 -158z"/>
</g>
</svg>
