<?xml version="1.0" standalone="no"?>
<!DOCTYPE svg PUBLIC "-//W3C//DTD SVG 20010904//EN"
 "http://www.w3.org/TR/2001/REC-SVG-20010904/DTD/svg10.dtd">
<svg version="1.0" xmlns="http://www.w3.org/2000/svg"
 width="100.000000pt" height="100.000000pt" viewBox="0 0 100.000000 100.000000"
 preserveAspectRatio="xMidYMid meet">
<metadata>
Created by potrace 1.16, written by Peter Selinger 2001-2019
</metadata>
<g transform="translate(0.000000,100.000000) scale(0.100000,-0.100000)"
fill="#000000" stroke="none">
<path d="M310 980 c0 -11 5 -20 10 -20 6 0 10 9 10 20 0 11 -4 20 -10 20 -5 0
-10 -9 -10 -20z"/>
<path d="M370 935 c0 -62 -1 -65 -24 -65 -19 0 -22 4 -18 25 2 14 11 25 18 25
8 0 14 5 14 10 0 6 -11 10 -25 10 -24 0 -25 -2 -25 -65 l0 -65 -30 0 -30 0 0
-60 0 -60 -30 0 -30 0 0 -65 0 -65 -30 0 -30 0 0 -60 0 -60 30 0 30 0 0 -65 0
-65 30 0 30 0 0 -60 0 -60 30 0 30 0 0 -65 c0 -63 1 -65 25 -65 14 0 25 5 25
10 0 6 -6 10 -14 10 -7 0 -16 11 -18 25 -4 21 -1 25 18 25 23 0 24 -3 24 -65
0 -37 4 -65 10 -65 6 0 10 9 10 20 0 11 7 20 15 20 8 0 15 -9 15 -20 0 -11 5
-20 10 -20 6 0 10 13 10 30 0 23 4 30 20 30 16 0 20 -7 20 -30 0 -17 5 -30 10
-30 6 0 10 28 10 65 l0 65 29 0 c26 0 30 -4 34 -32 4 -30 5 -31 12 -10 4 12
14 22 21 22 8 0 14 5 14 10 0 6 -11 10 -25 10 -24 0 -25 3 -25 60 0 57 1 60
25 60 14 0 34 -5 44 -12 11 -7 26 -8 37 -3 16 8 14 10 -13 13 l-33 3 0 65 0
64 35 0 35 0 0 155 0 155 30 0 30 0 0 -65 c0 -63 -1 -65 -25 -65 -14 0 -25 -4
-25 -10 0 -5 7 -10 15 -10 11 0 15 -11 15 -40 0 -29 -4 -40 -15 -40 -8 0 -15
-4 -15 -10 0 -5 11 -10 25 -10 24 0 25 -2 25 -65 0 -63 -1 -65 -25 -65 -14 0
-34 5 -44 12 -11 7 -26 8 -37 3 -16 -8 -14 -10 14 -13 l32 -3 0 -60 c0 -59 0
-59 -30 -59 -17 0 -39 6 -50 12 -15 10 -22 10 -32 0 -9 -9 -6 -12 15 -12 27 0
27 -1 27 -65 l0 -65 -30 0 c-27 0 -30 -3 -30 -30 0 -17 5 -30 10 -30 6 0 10 9
10 20 0 11 5 20 10 20 6 0 10 -9 10 -20 0 -11 5 -20 10 -20 6 0 10 13 10 30 0
28 3 30 35 30 l35 0 0 65 0 65 30 0 30 0 0 60 c0 57 1 60 25 60 31 0 32 -13 3
-40 l-22 -20 27 0 27 0 0 95 c0 95 0 95 25 95 31 0 32 -13 3 -40 l-22 -20 27
0 27 0 0 125 0 125 -27 0 c-24 -1 -26 -2 -12 -13 9 -7 19 -22 23 -35 6 -19 4
-22 -18 -22 l-26 0 0 95 0 95 -27 0 -27 0 22 -20 c29 -27 28 -40 -3 -40 -24 0
-25 3 -25 60 l0 60 -30 0 -30 0 0 65 0 65 -35 0 c-32 0 -35 2 -35 30 0 17 -4
30 -10 30 -5 0 -10 -9 -10 -20 0 -11 -4 -20 -10 -20 -5 0 -10 9 -10 20 0 11
-4 20 -10 20 -5 0 -10 -13 -10 -30 0 -25 -4 -30 -23 -30 -20 0 -23 4 -19 30 3
18 0 30 -7 30 -7 0 -11 -24 -11 -65 l0 -65 -30 0 -30 0 0 65 c0 37 -4 65 -10
65 -5 0 -10 -9 -10 -20 0 -11 -7 -20 -15 -20 -8 0 -15 9 -15 20 0 11 -4 20
-10 20 -6 0 -10 -28 -10 -65z m50 -20 c0 -16 -6 -25 -15 -25 -8 0 -15 4 -15 9
0 5 -3 16 -6 25 -4 12 0 16 15 16 16 0 21 -6 21 -25z m200 -2 c0 -24 -4 -28
-30 -28 -26 0 -30 4 -30 28 0 23 4 27 30 27 26 0 30 -4 30 -27z m-80 -8 c0 -8
-4 -15 -10 -15 -5 0 -10 7 -10 15 0 8 5 15 10 15 6 0 10 -7 10 -15z m130 -10
c0 -16 -6 -25 -15 -25 -9 0 -15 9 -15 25 0 16 6 25 15 25 9 0 15 -9 15 -25z
m-230 -85 l0 -60 -35 0 -35 0 0 60 0 60 35 0 35 0 0 -60z m103 43 c-4 -10 -14
-23 -22 -30 -14 -11 -14 -12 2 -13 9 0 17 -7 17 -16 0 -9 -8 -23 -17 -30 -16
-12 -15 -13 10 -14 26 0 27 -1 27 -60 l0 -60 30 0 30 0 0 -125 0 -125 -30 0
-30 0 0 -65 0 -65 -30 0 -30 0 0 -60 0 -60 -65 0 -65 0 0 60 0 60 35 0 35 0 0
-50 c0 -27 5 -50 10 -50 6 0 10 9 10 19 0 11 6 22 13 25 10 5 10 7 0 12 -7 3
-13 14 -13 25 0 10 -4 19 -10 19 -6 0 -10 38 -10 95 l0 95 -30 0 c-16 0 -30
-4 -30 -10 0 -5 8 -10 19 -10 10 0 21 -9 24 -20 4 -17 0 -20 -24 -20 l-29 0 0
125 0 125 29 0 c25 0 28 -3 23 -25 -3 -16 -11 -25 -23 -25 -11 0 -19 -4 -19
-10 0 -5 14 -10 30 -10 l30 0 0 95 0 95 30 0 c27 0 30 3 30 30 0 25 -4 30 -24
30 -19 0 -23 4 -19 20 3 11 14 20 24 20 11 0 19 5 19 10 0 6 11 10 25 10 19 0
23 -4 18 -17z m77 -13 c0 -28 3 -30 35 -30 l35 0 0 -60 0 -60 -30 0 c-16 0
-30 -4 -30 -10 0 -5 9 -10 20 -10 11 0 20 -2 20 -4 0 -2 3 -11 6 -20 5 -13 -1
-16 -25 -16 l-31 0 0 59 0 60 33 4 c29 4 30 5 10 12 -13 4 -23 11 -23 16 0 5
-4 9 -10 9 -5 0 -10 -9 -10 -20 0 -16 -7 -20 -30 -20 l-30 0 0 60 0 60 30 0
c27 0 30 -3 30 -30z m-270 0 c0 -5 -4 -10 -10 -10 -5 0 -10 5 -10 10 0 6 5 10
10 10 6 0 10 -4 10 -10z m320 0 c0 -5 -7 -10 -15 -10 -8 0 -15 5 -15 10 0 6 7
10 15 10 8 0 15 -4 15 -10z m-317 -50 c-3 -11 -14 -20 -24 -20 -11 0 -19 -4
-19 -10 0 -5 -11 -10 -24 -10 -19 0 -23 4 -19 20 3 11 14 20 24 20 11 0 19 5
19 10 0 6 11 10 24 10 19 0 23 -4 19 -20z m127 -10 c0 -5 -4 -10 -10 -10 -5 0
-10 5 -10 10 0 6 5 10 10 10 6 0 10 -4 10 -10z m250 -10 c0 -11 -4 -20 -10
-20 -5 0 -10 9 -10 20 0 11 5 20 10 20 6 0 10 -9 10 -20z m-360 -80 l0 -60
-30 0 -30 0 0 60 0 60 30 0 30 0 0 -60z m-80 30 c0 -5 -4 -10 -10 -10 -5 0
-10 5 -10 10 0 6 5 10 10 10 6 0 10 -4 10 -10z m130 6 c0 -2 3 -11 6 -20 4
-12 0 -16 -15 -16 -14 0 -21 6 -21 20 0 11 7 20 15 20 8 0 15 -2 15 -4z m180
-6 c0 -5 -4 -10 -10 -10 -5 0 -10 5 -10 10 0 6 5 10 10 10 6 0 10 -4 10 -10z
m130 0 c0 -5 -4 -10 -10 -10 -5 0 -10 5 -10 10 0 6 5 10 10 10 6 0 10 -4 10
-10z m-437 -50 c-3 -13 -14 -20 -29 -20 -13 0 -24 -4 -24 -10 0 -5 -7 -10 -15
-10 -8 0 -15 9 -15 20 0 13 7 20 20 20 11 0 20 5 20 10 0 6 11 10 24 10 19 0
23 -4 19 -20z m307 0 c0 -11 -4 -20 -10 -20 -5 0 -10 9 -10 20 0 11 5 20 10
20 6 0 10 -9 10 -20z m-180 -10 c0 -5 -7 -10 -15 -10 -8 0 -15 5 -15 10 0 6 7
10 15 10 8 0 15 -4 15 -10z m370 0 c0 -5 -4 -10 -10 -10 -5 0 -10 5 -10 10 0
6 5 10 10 10 6 0 10 -4 10 -10z m-480 -155 l0 -125 -25 0 c-14 0 -25 -4 -25
-10 0 -5 7 -10 15 -10 8 0 15 -4 15 -9 0 -5 3 -16 6 -25 5 -12 0 -16 -20 -16
l-26 0 0 121 c0 86 -3 118 -11 113 -7 -4 -9 -25 -7 -55 5 -46 4 -49 -18 -49
-23 0 -24 4 -24 60 l0 60 30 0 c28 0 30 3 30 35 0 32 2 35 30 35 l30 0 0 -125z
m480 100 c0 -14 -4 -25 -10 -25 -5 0 -10 11 -10 25 0 14 5 25 10 25 6 0 10
-11 10 -25z m-560 -10 c0 -8 -4 -15 -10 -15 -5 0 -10 7 -10 15 0 8 5 15 10 15
6 0 10 -7 10 -15z m120 -10 c0 -14 -4 -25 -10 -25 -5 0 -10 11 -10 25 0 14 5
25 10 25 6 0 10 -11 10 -25z m320 10 c0 -8 -7 -15 -15 -15 -8 0 -15 7 -15 15
0 8 7 15 15 15 8 0 15 -7 15 -15z m0 -55 c0 -11 -7 -20 -15 -20 -8 0 -15 9
-15 20 0 11 7 20 15 20 8 0 15 -9 15 -20z m140 -40 l0 -60 -30 0 -30 0 0 60 0
60 30 0 30 0 0 -60z m-640 0 c0 -22 -4 -40 -10 -40 -5 0 -10 18 -10 40 0 22 5
40 10 40 6 0 10 -18 10 -40z m180 20 c0 -11 -4 -20 -10 -20 -5 0 -10 9 -10 20
0 11 5 20 10 20 6 0 10 -9 10 -20z m500 10 c0 -5 -4 -10 -10 -10 -5 0 -10 5
-10 10 0 6 5 10 10 10 6 0 10 -4 10 -10z m-173 -60 c0 -22 -5 -30 -19 -30 -13
0 -18 8 -18 30 0 22 5 30 18 30 14 0 19 -8 19 -30z m173 10 c0 -11 -4 -20 -10
-20 -5 0 -10 9 -10 20 0 11 5 20 10 20 6 0 10 -9 10 -20z m-500 -10 c0 -5 -4
-10 -10 -10 -5 0 -10 5 -10 10 0 6 5 10 10 10 6 0 10 -4 10 -10z m0 -50 c0
-11 -4 -20 -10 -20 -5 0 -10 9 -10 20 0 11 5 20 10 20 6 0 10 -9 10 -20z
m-120 -10 c0 -5 -4 -10 -10 -10 -5 0 -10 5 -10 10 0 6 5 10 10 10 6 0 10 -4
10 -10z m440 0 c0 -5 -7 -10 -15 -10 -8 0 -15 5 -15 10 0 6 7 10 15 10 8 0 15
-4 15 -10z m120 -35 c0 -25 -4 -45 -10 -45 -5 0 -10 20 -10 45 0 25 5 45 10
45 6 0 10 -20 10 -45z m-560 -20 c0 -14 -4 -25 -10 -25 -5 0 -10 11 -10 25 0
14 5 25 10 25 6 0 10 -11 10 -25z m140 -40 l0 -65 -30 0 -30 0 0 65 0 65 30 0
30 0 0 -65z m50 30 c0 -8 -7 -15 -15 -15 -8 0 -15 7 -15 15 0 8 7 15 15 15 8
0 15 -7 15 -15z m180 -30 c0 -25 -4 -45 -10 -45 -5 0 -10 20 -10 45 0 25 5 45
10 45 6 0 10 -20 10 -45z m-180 -25 c0 -11 -7 -20 -15 -20 -8 0 -15 9 -15 20
0 11 7 20 15 20 8 0 15 -9 15 -20z m-130 -10 c0 -5 -4 -10 -10 -10 -5 0 -10 5
-10 10 0 6 5 10 10 10 6 0 10 -4 10 -10z m440 -30 c0 -22 -4 -40 -10 -40 -5 0
-10 18 -10 40 0 22 5 40 10 40 6 0 10 -18 10 -40z m-420 -20 c0 -13 -7 -20
-19 -20 -10 0 -21 9 -24 20 -4 16 0 20 19 20 17 0 24 -6 24 -20z m43 -20 c4
-15 0 -20 -14 -20 -21 0 -22 1 -13 24 8 22 21 20 27 -4z m187 -20 c0 -22 -4
-40 -10 -40 -5 0 -10 18 -10 40 0 22 5 40 10 40 6 0 10 -18 10 -40z m-190 -30
c0 -5 -4 -10 -10 -10 -5 0 -10 5 -10 10 0 6 5 10 10 10 6 0 10 -4 10 -10z
m320 0 c0 -5 -7 -10 -15 -10 -8 0 -15 5 -15 10 0 6 7 10 15 10 8 0 15 -4 15
-10z m0 -55 c0 -16 -6 -25 -15 -25 -9 0 -15 9 -15 25 0 16 6 25 15 25 9 0 15
-9 15 -25z m-230 -20 c0 -20 -5 -25 -25 -25 -20 0 -25 5 -25 25 0 20 5 25 25
25 20 0 25 -5 25 -25z m40 10 c0 -8 -4 -15 -10 -15 -5 0 -10 7 -10 15 0 8 5
15 10 15 6 0 10 -7 10 -15z"/>
<path d="M486 728 c-5 -10 -14 -18 -22 -18 -8 0 -14 -4 -14 -10 0 -5 20 -10
45 -10 25 0 45 5 45 11 0 6 -8 8 -19 4 -15 -4 -20 0 -23 17 -4 20 -5 21 -12 6z"/>
<path d="M473 655 c-18 -20 -16 -25 7 -25 13 0 20 7 20 20 0 23 -10 25 -27 5z"/>
<path d="M560 591 c0 -24 4 -31 20 -31 11 0 20 5 20 10 0 6 -4 10 -10 10 -5 0
-10 6 -10 14 0 8 -4 18 -10 21 -6 4 -10 -7 -10 -24z"/>
<path d="M390 490 c0 -5 7 -10 15 -10 8 0 15 -4 15 -10 0 -5 5 -10 10 -10 6 0
10 9 10 20 0 15 -7 20 -25 20 -14 0 -25 -4 -25 -10z"/>
<path d="M560 413 l0 -27 20 22 c11 12 20 24 20 27 0 3 -9 5 -20 5 -15 0 -20
-7 -20 -27z"/>
<path d="M460 370 c0 -5 5 -10 10 -10 6 0 10 -7 10 -15 0 -8 5 -15 10 -15 6 0
10 11 10 25 0 18 -5 25 -20 25 -11 0 -20 -4 -20 -10z"/>
<path d="M450 300 c0 -5 5 -10 11 -10 7 0 18 -8 25 -17 13 -17 13 -17 14 0 0
10 8 17 19 17 11 0 23 5 26 10 4 6 -13 10 -44 10 -28 0 -51 -4 -51 -10z"/>
<path d="M390 180 c0 -5 7 -10 15 -10 8 0 15 5 15 10 0 6 -7 10 -15 10 -8 0
-15 -4 -15 -10z"/>
<path d="M570 800 c0 -5 9 -10 20 -10 11 0 20 5 20 10 0 6 -9 10 -20 10 -11 0
-20 -4 -20 -10z"/>
<path d="M265 550 c3 -5 10 -10 16 -10 5 0 9 5 9 10 0 6 -7 10 -16 10 -8 0
-12 -4 -9 -10z"/>
<path d="M265 510 c-3 -5 1 -10 9 -10 9 0 16 5 16 10 0 6 -4 10 -9 10 -6 0
-13 -4 -16 -10z"/>
<path d="M270 450 c0 -5 5 -10 10 -10 6 0 10 5 10 10 0 6 -4 10 -10 10 -5 0
-10 -4 -10 -10z"/>
<path d="M770 490 c0 -5 5 -10 10 -10 6 0 10 5 10 10 0 6 -4 10 -10 10 -5 0
-10 -4 -10 -10z"/>
<path d="M330 320 c0 -5 5 -10 10 -10 6 0 10 5 10 10 0 6 -4 10 -10 10 -5 0
-10 -4 -10 -10z"/>
<path d="M670 981 c0 -11 5 -23 10 -26 6 -4 10 5 10 19 0 14 -4 26 -10 26 -5
0 -10 -9 -10 -19z"/>
<path d="M460 950 c0 -5 5 -10 10 -10 6 0 10 5 10 10 0 6 -4 10 -10 10 -5 0
-10 -4 -10 -10z"/>
<path d="M250 850 c0 -24 6 -25 26 -6 19 20 18 26 -6 26 -13 0 -20 -7 -20 -20z"/>
<path d="M710 865 c0 -3 9 -15 20 -27 l20 -22 0 27 c0 20 -5 27 -20 27 -11 0
-20 -2 -20 -5z"/>
<path d="M190 730 c0 -24 6 -25 26 -6 19 20 18 26 -6 26 -13 0 -20 -7 -20 -20z"/>
<path d="M705 640 c-3 -5 1 -10 9 -10 9 0 16 5 16 10 0 6 -4 10 -9 10 -6 0
-13 -4 -16 -10z"/>
<path d="M130 605 c0 -14 5 -25 10 -25 6 0 10 7 10 15 0 8 5 15 10 15 6 0 10
5 10 10 0 6 -9 10 -20 10 -15 0 -20 -7 -20 -25z"/>
<path d="M890 550 c0 -5 7 -10 15 -10 8 0 15 -4 15 -10 0 -5 -7 -10 -15 -10
-8 0 -15 -4 -15 -10 0 -5 11 -10 25 -10 21 0 25 5 25 30 0 25 -4 30 -25 30
-14 0 -25 -4 -25 -10z"/>
<path d="M130 407 c0 -20 5 -27 20 -27 11 0 20 2 20 5 0 3 -9 15 -20 27 l-20
22 0 -27z"/>
<path d="M700 370 c0 -5 7 -10 15 -10 8 0 15 5 15 10 0 6 -7 10 -15 10 -8 0
-15 -4 -15 -10z"/>
<path d="M190 270 c0 -13 7 -20 20 -20 24 0 25 6 6 26 -20 19 -26 18 -26 -6z"/>
<path d="M727 160 c-22 -26 -21 -30 3 -30 15 0 20 7 20 25 0 30 -1 30 -23 5z"/>
<path d="M250 150 c0 -13 7 -20 20 -20 24 0 25 6 6 26 -20 19 -26 18 -26 -6z"/>
<path d="M520 70 c0 -5 7 -10 16 -10 8 0 12 5 9 10 -3 6 -10 10 -16 10 -5 0
-9 -4 -9 -10z"/>
<path d="M310 20 c0 -11 5 -20 10 -20 6 0 10 9 10 20 0 11 -4 20 -10 20 -5 0
-10 -9 -10 -20z"/>
<path d="M670 20 c0 -11 5 -20 10 -20 6 0 10 9 10 20 0 11 -4 20 -10 20 -5 0
-10 -9 -10 -20z"/>
</g>
</svg>
