<?xml version="1.0" standalone="no"?>
<!DOCTYPE svg PUBLIC "-//W3C//DTD SVG 20010904//EN"
 "http://www.w3.org/TR/2001/REC-SVG-20010904/DTD/svg10.dtd">
<svg version="1.0" xmlns="http://www.w3.org/2000/svg"
 width="180.000000pt" height="180.000000pt" viewBox="0 0 180.000000 180.000000"
 preserveAspectRatio="xMidYMid meet">
<metadata>
Created by potrace 1.16, written by Peter Selinger 2001-2019
</metadata>
<g transform="translate(0.000000,180.000000) scale(0.100000,-0.100000)"
fill="#000000" stroke="none">
<path d="M732 1608 c-32 -40 -362 -681 -362 -703 0 -22 330 -663 363 -703 7
-9 32 -12 79 -10 l69 3 185 347 c101 191 184 355 184 363 0 23 -232 456 -247
462 -10 4 -9 12 4 34 l17 28 94 -177 c51 -97 113 -215 138 -262 l45 -85 -176
-331 c-100 -189 -175 -342 -175 -357 0 -27 1 -27 69 -27 43 0 72 5 79 13 31
39 362 680 362 702 0 22 -331 663 -363 703 -7 9 -32 12 -79 10 l-69 -3 -185
-347 c-101 -191 -184 -354 -184 -363 0 -21 227 -447 245 -460 12 -8 11 -13 -2
-36 l-17 -28 -139 262 -139 262 25 45 c171 316 327 622 327 643 0 27 -1 27
-69 27 -43 0 -72 -5 -79 -12z m-29 -310 c-86 -161 -167 -316 -181 -344 l-25
-52 154 -291 c84 -160 157 -287 160 -283 5 6 238 443 292 548 16 30 15 31 -74
200 l-90 169 22 47 c12 27 25 48 28 48 7 -1 231 -424 231 -436 0 -5 -81 -160
-179 -344 l-178 -335 -55 -3 -54 -3 -182 344 -182 343 93 174 c51 96 133 250
181 343 l89 167 52 0 53 0 -155 -292z m552 -45 c98 -185 178 -342 178 -348 0
-6 -80 -163 -178 -348 l-179 -337 -53 0 -52 0 39 73 c21 39 103 194 182 342
l143 270 -133 250 c-73 138 -143 270 -156 294 l-23 44 -90 -169 c-50 -93 -120
-225 -156 -294 l-66 -125 90 -170 90 -170 -22 -47 c-12 -27 -25 -48 -28 -48
-7 1 -231 423 -231 435 0 8 270 522 332 633 l29 52 53 0 52 0 179 -337z m-249
-198 l78 -149 -80 -154 c-43 -84 -82 -155 -86 -158 -9 -6 -163 287 -163 311 0
28 155 319 165 308 4 -4 43 -75 86 -158z"/>
</g>
</svg>
