<?xml version="1.0" standalone="no"?>
<!DOCTYPE svg PUBLIC "-//W3C//DTD SVG 20010904//EN"
 "http://www.w3.org/TR/2001/REC-SVG-20010904/DTD/svg10.dtd">
<svg version="1.0" xmlns="http://www.w3.org/2000/svg"
 width="192.000000pt" height="192.000000pt" viewBox="0 0 192.000000 192.000000"
 preserveAspectRatio="xMidYMid meet">
<metadata>
Created by potrace 1.16, written by Peter Selinger 2001-2019
</metadata>
<g transform="translate(0.000000,192.000000) scale(0.100000,-0.100000)"
fill="#000000" stroke="none">
<path d="M590 1364 c-107 -202 -196 -376 -198 -389 -2 -13 73 -164 195 -394
l197 -372 79 3 79 3 194 365 c107 201 194 376 194 389 0 28 -235 477 -257 489
-13 8 -13 13 2 42 l17 32 149 -281 149 -281 -191 -360 c-105 -197 -189 -367
-187 -377 3 -15 14 -18 82 -18 l78 0 194 365 c107 200 194 376 194 390 0 14
-88 189 -194 390 l-194 365 -75 3 c-51 2 -77 -1 -85 -10 -23 -28 -392 -733
-392 -749 0 -26 246 -482 263 -489 13 -4 13 -9 -2 -39 l-18 -34 -98 184 c-54
101 -120 225 -146 275 -27 50 -49 96 -49 103 0 7 83 169 185 361 103 194 185
359 185 374 0 26 -1 26 -78 26 l-77 0 -195 -366z m291 268 c-21 -37 -109 -201
-195 -365 l-158 -297 168 -316 167 -316 29 59 c17 32 90 171 164 310 74 138
134 257 134 263 0 6 -43 91 -95 189 l-95 178 28 52 29 52 125 -236 125 -236
-192 -362 -193 -362 -57 -5 -57 -5 -33 60 c-125 227 -355 671 -353 680 2 7 88
173 192 368 l190 356 50 3 c28 2 54 2 58 0 4 -1 -10 -33 -31 -70z m323 -34
c30 -57 117 -221 194 -366 l140 -262 -193 -363 -192 -362 -54 -6 c-62 -7 -67
-5 -53 19 34 55 374 703 374 712 0 7 -60 125 -134 263 -74 139 -147 278 -163
310 l-30 58 -167 -316 -167 -316 96 -181 96 -180 -23 -54 c-13 -29 -25 -54
-28 -54 -9 0 -245 453 -245 470 0 8 85 176 190 373 l189 357 58 0 57 0 55
-102z m-130 -466 l86 -163 -86 -162 c-48 -89 -89 -165 -93 -169 -7 -8 -181
312 -181 332 0 20 175 340 181 332 4 -4 45 -80 93 -170z"/>
</g>
</svg>
