<?xml version="1.0" standalone="no"?>
<!DOCTYPE svg PUBLIC "-//W3C//DTD SVG 20010904//EN"
 "http://www.w3.org/TR/2001/REC-SVG-20010904/DTD/svg10.dtd">
<svg version="1.0" xmlns="http://www.w3.org/2000/svg"
 width="180.000000pt" height="180.000000pt" viewBox="0 0 180.000000 180.000000"
 preserveAspectRatio="xMidYMid meet">
<metadata>
Created by potrace 1.16, written by Peter Selinger 2001-2019
</metadata>
<g transform="translate(0.000000,180.000000) scale(0.100000,-0.100000)"
fill="#000000" stroke="none">
<path d="M712 1468 c-122 -218 -292 -549 -292 -569 0 -13 71 -157 158 -319
l158 -295 70 -3 71 -3 159 298 c87 163 160 307 162 318 3 21 -188 391 -212
410 -13 11 -10 35 4 35 5 0 61 -99 126 -221 l117 -221 -20 -36 c-156 -285
-283 -534 -283 -556 0 -27 0 -27 66 -24 l67 3 158 295 c87 162 159 306 159
320 0 14 -71 158 -158 320 l-158 295 -71 3 -70 3 -159 -298 c-87 -164 -160
-307 -162 -319 -4 -26 199 -404 217 -404 8 0 11 -6 7 -16 -3 -9 -6 -18 -6 -20
0 -2 -4 -4 -9 -4 -5 0 -62 100 -126 221 -114 215 -117 222 -103 248 93 162
288 544 288 565 0 25 -1 26 -64 26 l-65 0 -29 -52z m138 27 c0 -2 -11 -24 -24
-47 -104 -190 -286 -538 -286 -548 0 -11 22 -54 157 -305 24 -44 58 -108 75
-142 29 -57 48 -78 48 -54 0 5 59 118 130 252 72 134 130 246 130 249 0 3 -35
71 -78 150 l-78 145 20 43 c11 23 23 42 26 42 3 0 22 -33 42 -72 21 -40 64
-124 98 -186 33 -62 60 -117 60 -123 0 -5 -71 -142 -157 -305 l-158 -294 -48
2 -48 3 -159 297 -159 298 65 122 c37 68 81 150 99 183 17 33 60 113 94 178
l63 117 44 0 c24 0 44 -2 44 -5z m350 -297 l159 -298 -160 -300 -161 -300 -44
0 c-24 0 -44 2 -44 4 0 2 72 138 159 302 91 171 156 303 152 309 -12 15 -250
462 -260 488 l-9 22 -10 -25 c-6 -14 -67 -130 -136 -259 -69 -129 -126 -239
-126 -244 0 -5 9 -24 19 -41 10 -17 46 -82 79 -144 l60 -112 -21 -40 c-12 -22
-24 -40 -27 -40 -6 1 -194 355 -198 374 -2 8 68 147 155 310 l158 296 48 -2
48 -3 159 -297z m-222 -164 l72 -135 -72 -134 c-40 -74 -75 -135 -78 -135 -3
0 -38 61 -77 136 l-72 135 72 134 c39 74 74 135 77 135 3 0 38 -61 78 -136z"/>
</g>
</svg>
