<?xml version="1.0" standalone="no"?>
<!DOCTYPE svg PUBLIC "-//W3C//DTD SVG 20010904//EN"
 "http://www.w3.org/TR/2001/REC-SVG-20010904/DTD/svg10.dtd">
<svg version="1.0" xmlns="http://www.w3.org/2000/svg"
 width="100.000000pt" height="100.000000pt" viewBox="0 0 100.000000 100.000000"
 preserveAspectRatio="xMidYMid meet">
<metadata>
Created by potrace 1.16, written by Peter Selinger 2001-2019
</metadata>
<g transform="translate(0.000000,100.000000) scale(0.100000,-0.100000)"
fill="#000000" stroke="none">
<path d="M298 707 c-54 -101 -98 -195 -98 -209 0 -27 181 -376 203 -390 6 -5
30 -6 52 -3 51 6 53 6 95 -1 22 -3 42 0 52 8 22 16 208 362 208 386 0 9 -45
100 -99 202 l-98 185 -109 2 -109 3 -97 -183z m116 46 c-35 -65 -80 -149 -100
-188 l-35 -70 83 -156 84 -157 82 154 c45 84 82 157 82 163 0 5 -20 47 -45 92
-50 93 -51 97 -32 123 12 17 20 7 76 -98 l62 -118 -98 -184 c-96 -180 -99
-184 -130 -184 -18 0 -33 4 -33 8 0 5 -43 87 -95 184 l-94 176 60 114 c141
263 138 258 168 258 l29 0 -64 -117z m266 -60 c52 -98 96 -182 98 -188 1 -6
-41 -93 -94 -193 -91 -173 -98 -182 -126 -182 l-29 0 44 82 c25 46 70 129 100
185 l54 101 -78 147 c-44 81 -79 151 -79 156 0 23 -18 4 -45 -49 -16 -31 -54
-101 -83 -155 l-53 -98 50 -92 c47 -87 49 -93 35 -119 l-14 -28 -56 108 c-31
59 -60 112 -64 117 -5 6 36 93 92 198 132 248 121 247 248 10z m-138 -265
l-39 -70 -37 65 c-20 36 -36 69 -36 74 0 5 16 39 36 77 l36 68 39 -72 39 -72
-38 -70z"/>
</g>
</svg>
