<?xml version="1.0" standalone="no"?>
<!DOCTYPE svg PUBLIC "-//W3C//DTD SVG 20010904//EN"
 "http://www.w3.org/TR/2001/REC-SVG-20010904/DTD/svg10.dtd">
<svg version="1.0" xmlns="http://www.w3.org/2000/svg"
 width="192.000000pt" height="192.000000pt" viewBox="0 0 192.000000 192.000000"
 preserveAspectRatio="xMidYMid meet">
<metadata>
Created by potrace 1.16, written by Peter Selinger 2001-2019
</metadata>
<g transform="translate(0.000000,192.000000) scale(0.100000,-0.100000)"
fill="#000000" stroke="none">
<path d="M769 1703 c-8 -16 -32 -62 -55 -103 -41 -76 -109 -204 -192 -360 -24
-47 -64 -122 -88 -167 -24 -45 -44 -91 -44 -103 0 -12 23 -65 51 -118 29 -53
69 -128 89 -167 99 -186 158 -298 201 -380 47 -89 48 -90 93 -99 72 -13 116 2
141 49 11 22 46 87 77 145 30 58 79 150 108 205 29 55 67 127 85 160 18 33 47
86 64 118 38 72 39 99 2 168 -72 134 -134 250 -173 327 -24 45 -49 82 -55 82
-18 0 -16 14 5 40 18 22 18 22 66 -72 27 -51 52 -97 56 -103 4 -5 35 -64 70
-130 34 -66 76 -144 92 -172 l28 -53 -33 -62 c-19 -35 -54 -101 -79 -148 -143
-268 -209 -393 -245 -459 -34 -61 -28 -84 24 -95 23 -5 57 -5 79 0 41 10 35 2
134 189 34 66 77 147 95 180 18 33 58 110 90 170 32 61 69 130 82 154 28 53
29 85 5 131 -147 279 -235 445 -335 630 l-35 65 -78 3 c-91 3 -70 25 -175
-176 -34 -64 -79 -148 -99 -187 -21 -38 -59 -110 -85 -160 -26 -49 -63 -118
-81 -153 -41 -75 -42 -93 -8 -152 14 -25 60 -110 101 -190 93 -178 112 -212
130 -226 10 -9 11 -18 3 -38 -5 -15 -14 -25 -19 -21 -5 3 -40 63 -77 133 -38
70 -87 163 -111 207 -23 44 -57 108 -75 143 l-33 63 30 56 c17 31 48 91 71
132 60 112 134 252 199 376 32 61 62 114 66 120 5 5 9 24 9 42 l0 33 -78 0
c-76 0 -79 -1 -93 -27z m112 -71 c-21 -37 -66 -121 -101 -187 -35 -66 -75
-142 -90 -170 -15 -27 -57 -108 -94 -178 l-68 -128 37 -72 c21 -40 41 -76 45
-82 4 -5 38 -68 75 -140 37 -71 80 -152 95 -180 15 -27 40 -75 55 -104 l27
-55 17 35 c19 38 91 175 222 420 49 91 89 172 89 179 0 7 -19 47 -42 89 -40
75 -68 126 -122 226 l-27 50 30 54 29 53 24 -48 c48 -95 211 -399 221 -411 6
-9 6 -17 0 -25 -6 -7 -43 -76 -84 -153 -40 -77 -107 -203 -148 -280 -42 -77
-92 -173 -111 -212 l-35 -72 -61 -1 -60 0 -23 43 c-13 23 -52 98 -88 167 -36
69 -73 139 -83 155 -16 28 -40 72 -150 282 l-43 82 48 93 c26 51 51 98 55 103
4 6 40 73 80 150 40 77 81 154 90 170 9 17 38 71 65 122 l48 92 51 3 c28 2 54
2 58 0 4 -1 -10 -33 -31 -70z m308 -7 c42 -79 208 -392 284 -535 27 -52 54
-100 59 -106 6 -8 -10 -47 -45 -110 -30 -55 -86 -160 -125 -234 -39 -74 -102
-193 -140 -265 l-69 -130 -54 -6 c-30 -3 -56 -5 -58 -3 -2 2 25 56 59 121 35
65 85 161 113 213 27 52 58 109 67 125 10 17 43 80 75 140 32 61 62 114 66
119 5 6 -16 56 -48 115 -31 58 -71 133 -88 166 -92 171 -141 265 -166 313
l-26 53 -23 -43 c-72 -140 -154 -294 -160 -303 -4 -5 -40 -72 -79 -148 l-72
-138 68 -127 c37 -70 80 -152 96 -183 l28 -57 -26 -52 -27 -53 -80 149 c-99
186 -168 319 -168 327 0 3 24 50 53 104 30 54 87 161 127 238 40 77 76 145 80
150 4 6 34 61 66 123 l58 113 59 -3 58 -3 38 -70z m-124 -480 c37 -71 71 -134
76 -140 5 -5 9 -18 9 -30 0 -19 -169 -351 -174 -343 -4 5 -87 161 -137 256
l-43 83 49 92 c26 51 60 115 75 142 15 28 33 61 40 74 16 32 23 23 105 -134z"/>
</g>
</svg>
