<?xml version="1.0" standalone="no"?>
<!DOCTYPE svg PUBLIC "-//W3C//DTD SVG 20010904//EN"
 "http://www.w3.org/TR/2001/REC-SVG-20010904/DTD/svg10.dtd">
<svg version="1.0" xmlns="http://www.w3.org/2000/svg"
 width="100.000000pt" height="100.000000pt" viewBox="0 0 100.000000 100.000000"
 preserveAspectRatio="xMidYMid meet">
<metadata>
Created by potrace 1.16, written by Peter Selinger 2001-2019
</metadata>
<g transform="translate(0.000000,100.000000) scale(0.100000,-0.100000)"
fill="#000000" stroke="none">
<path d="M350 925 l0 -35 -60 0 -60 0 0 -30 c0 -27 -3 -30 -30 -30 -27 0 -30
-3 -30 -30 l0 -30 -85 0 c-50 0 -85 -4 -85 -10 0 -6 38 -10 95 -10 l95 0 0 30
c0 27 3 30 30 30 27 0 30 3 30 30 l0 30 60 0 60 0 0 35 0 35 190 0 190 0 0
-35 0 -35 60 0 60 0 0 -30 c0 -28 3 -30 35 -30 l35 0 0 -90 0 -90 30 0 c17 0
30 5 30 10 0 6 -9 10 -20 10 -19 0 -20 7 -20 90 l0 90 -35 0 c-32 0 -35 2 -35
30 l0 30 -60 0 -60 0 0 35 0 35 -210 0 -210 0 0 -35z"/>
<path d="M503 875 c0 -27 2 -38 4 -22 2 15 2 37 0 50 -2 12 -4 0 -4 -28z"/>
<path d="M403 873 c9 -2 23 -2 30 0 6 3 -1 5 -18 5 -16 0 -22 -2 -12 -5z"/>
<path d="M561 843 c0 -16 3 -21 6 -13 3 8 12 21 21 28 14 10 13 12 -6 12 -18
0 -22 -6 -21 -27z"/>
<path d="M620 848 c1 -21 1 -22 11 -5 9 16 19 18 55 12 29 -4 44 -2 44 4 0 7
-23 11 -55 11 -50 0 -55 -2 -55 -22z"/>
<path d="M443 815 c0 -27 2 -38 4 -22 2 15 2 37 0 50 -2 12 -4 0 -4 -28z"/>
<path d="M371 810 c1 -42 1 -43 9 -16 6 17 5 36 0 45 -7 11 -9 3 -9 -29z"/>
<path d="M751 834 c0 -11 3 -14 6 -6 3 7 2 16 -1 19 -3 4 -6 -2 -5 -13z"/>
<path d="M803 810 c0 -25 2 -35 4 -22 2 12 2 32 0 45 -2 12 -4 2 -4 -23z"/>
<path d="M270 820 c0 -5 9 -10 20 -10 11 0 20 5 20 10 0 6 -9 10 -20 10 -11 0
-20 -4 -20 -10z"/>
<path d="M500 784 c0 -14 4 -23 10 -19 6 3 10 12 10 20 0 7 6 16 13 18 6 3 2
6 -10 6 -18 1 -23 -4 -23 -25z"/>
<path d="M561 783 c0 -24 1 -25 8 -8 5 12 21 22 42 26 34 6 33 6 -8 8 -41 1
-43 -1 -42 -26z"/>
<path d="M311 784 c0 -11 3 -14 6 -6 3 7 2 16 -1 19 -3 4 -6 -2 -5 -13z"/>
<path d="M870 780 c0 -5 5 -10 10 -10 6 0 10 5 10 10 0 6 -4 10 -10 10 -5 0
-10 -4 -10 -10z"/>
<path d="M210 745 c0 -3 9 -15 20 -27 l20 -22 0 27 c0 20 -5 27 -20 27 -11 0
-20 -2 -20 -5z"/>
<path d="M264 741 c7 -10 73 -8 83 3 3 3 -15 6 -41 6 -26 0 -45 -4 -42 -9z"/>
<path d="M370 728 c0 -19 2 -20 13 -6 6 9 19 18 27 21 8 3 3 6 -12 6 -22 1
-28 -3 -28 -21z"/>
<path d="M440 728 c0 -17 3 -19 9 -9 5 7 15 17 22 22 10 6 8 9 -8 9 -17 0 -23
-6 -23 -22z"/>
<path d="M500 720 l0 -30 -155 0 -155 0 0 -65 0 -65 -95 0 c-63 0 -95 -4 -95
-11 0 -7 12 -10 30 -7 20 3 30 0 30 -9 0 -7 5 -13 10 -13 6 0 10 5 10 10 0 6
20 10 45 10 49 0 55 -6 28 -26 -17 -12 -17 -13 3 -14 17 0 20 -5 16 -25 -7
-40 13 -55 78 -55 37 0 60 -5 63 -12 4 -10 6 -10 6 0 1 16 48 16 54 0 4 -10 6
-10 6 0 1 16 58 16 64 0 4 -10 6 -10 6 0 1 6 12 12 25 12 13 0 27 -6 29 -12 4
-10 6 -10 6 0 1 15 221 18 221 2 0 -5 5 -10 10 -10 6 0 10 6 10 13 0 8 14 11
46 8 25 -2 51 2 57 8 8 8 -79 11 -326 11 l-337 0 0 60 0 60 340 0 340 0 1
-117 c0 -65 4 -109 8 -99 4 11 16 23 27 27 18 7 18 8 -3 8 -16 1 -20 6 -16 21
3 11 12 20 19 20 8 0 14 5 14 10 0 6 -9 10 -19 10 -14 0 -18 5 -14 20 3 11 12
20 19 20 8 0 14 5 14 10 0 6 -9 10 -20 10 -34 0 -20 33 18 42 21 6 22 4 22
-78 l0 -84 33 1 c23 1 26 3 10 6 -14 3 -23 12 -23 23 0 11 9 20 23 23 l22 4
-22 2 c-17 1 -23 7 -23 25 0 18 7 26 23 29 19 4 19 4 -5 6 -21 1 -25 5 -21 21
3 11 14 20 24 20 11 0 19 5 19 10 0 6 -9 10 -20 10 -15 0 -20 7 -20 25 0 14
-4 25 -10 25 -5 0 -10 -11 -10 -25 0 -22 -4 -25 -35 -25 -33 0 -35 2 -35 35 0
32 2 35 31 35 17 0 28 4 24 10 -3 6 -22 10 -41 10 -19 0 -34 -4 -34 -10 0 -5
-22 -10 -50 -10 -47 0 -50 -2 -50 -25 0 -20 -5 -25 -25 -25 -29 0 -34 24 -7
39 15 9 15 10 -5 11 -18 0 -23 -6 -23 -25 0 -21 -5 -25 -31 -25 -28 0 -31 3
-27 25 3 14 1 25 -3 25 -5 0 -9 -11 -9 -25 l0 -25 -210 0 -209 0 3 40 c2 23 5
43 7 45 3 2 72 5 154 7 125 2 150 6 151 18 3 42 5 49 22 53 10 3 6 5 -10 6
-25 1 -28 -3 -28 -29z m350 -122 c0 -14 -8 -18 -40 -18 -28 0 -40 4 -40 14 0
17 14 23 53 23 20 0 27 -5 27 -19z"/>
<path d="M560 739 c0 -5 5 -7 10 -4 6 3 10 8 10 11 0 2 -4 4 -10 4 -5 0 -10
-5 -10 -11z"/>
<path d="M690 741 c0 -5 9 -7 20 -4 11 3 20 7 20 9 0 2 -9 4 -20 4 -11 0 -20
-4 -20 -9z"/>
<path d="M750 742 c0 -5 14 -7 30 -4 24 3 30 1 30 -14 0 -12 3 -15 8 -8 4 6
30 16 57 21 50 11 49 11 -37 12 -49 0 -88 -3 -88 -7z"/>
<path d="M60 710 c0 -16 -7 -20 -30 -20 -17 0 -30 -4 -30 -10 0 -5 13 -10 30
-10 17 0 30 -5 30 -12 0 -7 5 -6 13 4 6 9 19 18 27 21 12 4 11 6 -2 6 -11 1
-18 9 -18 21 0 11 -4 20 -10 20 -5 0 -10 -9 -10 -20z"/>
<path d="M130 684 c0 -27 4 -43 10 -39 6 3 10 12 10 20 0 7 6 16 13 18 7 3 4
6 -6 6 -14 1 -17 6 -12 21 4 11 2 20 -4 20 -6 0 -11 -20 -11 -46z"/>
<path d="M620 679 c0 -5 5 -7 10 -4 6 3 10 8 10 11 0 2 -4 4 -10 4 -5 0 -10
-5 -10 -11z"/>
<path d="M690 668 c0 -17 3 -19 9 -9 5 7 15 17 22 22 10 6 8 9 -8 9 -17 0 -23
-6 -23 -22z"/>
<path d="M751 668 c0 -13 3 -17 6 -10 2 6 11 12 18 12 8 0 17 5 20 10 4 6 -5
10 -19 10 -21 0 -26 -5 -25 -22z"/>
<path d="M810 668 c0 -17 3 -19 9 -10 5 8 27 14 55 14 25 1 46 5 46 10 0 4
-25 8 -55 8 -50 0 -55 -2 -55 -22z"/>
<path d="M7 623 c7 -2 19 -2 26 0 6 3 1 5 -13 5 -14 0 -19 -2 -13 -5z"/>
<path d="M60 605 c0 -14 5 -25 10 -25 6 0 10 7 10 15 0 8 6 15 14 15 8 0 18 5
21 10 4 6 -7 10 -24 10 -26 0 -31 -4 -31 -25z"/>
<path d="M130 605 c0 -14 5 -25 10 -25 6 0 10 5 10 11 0 7 8 18 18 25 15 12
14 13 -10 14 -23 0 -28 -4 -28 -25z"/>
<path d="M263 623 c9 -2 25 -2 35 0 9 3 1 5 -18 5 -19 0 -27 -2 -17 -5z"/>
<path d="M230 539 c0 -7 -8 -18 -17 -25 -17 -12 -16 -13 5 -14 18 0 22 -4 17
-19 -3 -11 -1 -22 5 -26 6 -4 10 12 10 44 0 28 -4 51 -10 51 -5 0 -10 -5 -10
-11z"/>
<path d="M276 519 c-19 -19 -17 -19 257 -19 l277 0 0 -27 c0 -19 3 -24 11 -16
19 19 6 56 -21 60 -14 2 -26 8 -28 13 -5 15 -22 12 -22 -4 0 -16 -40 -10 -52
8 -5 8 -8 7 -8 -1 0 -19 -320 -19 -320 0 0 8 -3 9 -8 1 -12 -18 -52 -24 -52
-8 0 19 -11 17 -34 -7z"/>
<path d="M0 490 c0 -5 25 -10 55 -10 30 0 55 -4 55 -10 0 -5 -7 -10 -15 -10
-8 0 -15 -4 -15 -10 0 -5 11 -10 25 -10 21 0 25 5 25 30 l0 30 -65 0 c-37 0
-65 -4 -65 -10z"/>
<path d="M750 476 c0 -9 5 -16 10 -16 6 0 10 4 10 9 0 6 -4 13 -10 16 -5 3
-10 -1 -10 -9z"/>
<path d="M290 470 c0 -5 5 -10 10 -10 6 0 10 5 10 10 0 6 -4 10 -10 10 -5 0
-10 -4 -10 -10z"/>
<path d="M0 430 c0 -5 9 -10 20 -10 19 0 20 -7 20 -95 l0 -95 35 0 c32 0 35
-2 35 -30 l0 -30 60 0 60 0 0 -30 0 -30 205 0 205 0 0 30 0 30 65 0 65 0 0 30
c0 27 3 30 30 30 27 0 30 3 30 30 l0 30 85 0 c50 0 85 4 85 10 0 6 -48 10
-125 10 l-125 0 0 35 0 35 -341 0 c-224 0 -338 -3 -334 -10 3 -5 15 -10 27
-10 19 0 20 -5 16 -45 -3 -25 -2 -45 3 -45 5 0 9 20 9 45 0 43 1 45 30 45 25
0 30 -4 30 -25 l0 -25 115 0 c68 0 115 4 115 10 0 5 -39 9 -92 9 -119 -1 -118
-2 -118 16 0 12 19 15 115 15 l115 0 0 -67 c1 -53 3 -64 11 -50 6 10 8 29 5
43 -5 20 -3 24 16 24 21 1 22 2 6 14 -24 18 -23 36 2 36 15 0 20 -7 20 -25 l0
-25 115 0 c70 0 115 -4 115 -10 0 -5 18 -10 40 -10 33 0 40 -3 40 -20 0 -16
-7 -20 -30 -20 -27 0 -30 -3 -30 -30 l0 -30 -65 0 -65 0 0 -30 0 -30 -185 0
-185 0 0 30 0 30 -60 0 -60 0 0 30 c0 28 -3 30 -35 30 l-35 0 0 95 0 95 -30 0
c-17 0 -30 -4 -30 -10z m730 -88 c0 -16 -8 -18 -67 -16 -38 1 -87 3 -110 3
-31 1 -43 5 -43 16 0 12 19 15 110 15 99 0 110 -2 110 -18z"/>
<path d="M773 366 c9 -7 17 -18 17 -25 0 -6 5 -11 10 -11 6 0 10 11 10 25 0
21 -5 25 -27 25 -25 -1 -26 -2 -10 -14z"/>
<path d="M830 370 c0 -5 4 -10 9 -10 6 0 13 5 16 10 3 6 -1 10 -9 10 -9 0 -16
-4 -16 -10z"/>
<path d="M690 273 c0 -17 6 -23 23 -23 16 0 18 3 8 9 -7 5 -17 15 -22 22 -6
10 -9 8 -9 -8z"/>
<path d="M190 260 c0 -5 -10 -10 -22 -11 -13 0 -17 -3 -10 -6 6 -2 12 -11 12
-19 0 -8 5 -14 10 -14 6 0 10 9 10 20 0 15 7 20 26 20 14 0 23 4 19 10 -3 6
-15 10 -26 10 -10 0 -19 -4 -19 -10z"/>
<path d="M250 230 c0 -11 5 -20 10 -20 6 0 10 6 10 14 0 8 8 17 18 19 10 3 6
5 -10 6 -22 1 -28 -4 -28 -19z"/>
<path d="M310 228 c0 -14 3 -18 8 -12 4 6 17 14 30 18 17 6 22 3 23 -11 0 -10
3 -13 6 -5 2 6 13 12 23 12 10 0 22 5 25 10 4 6 -17 10 -54 10 -57 0 -61 -2
-61 -22z"/>
<path d="M270 180 c0 -12 24 -12 60 0 21 7 19 8 -17 9 -24 1 -43 -3 -43 -9z"/>
</g>
</svg>
