<?xml version="1.0" standalone="no"?>
<!DOCTYPE svg PUBLIC "-//W3C//DTD SVG 20010904//EN"
 "http://www.w3.org/TR/2001/REC-SVG-20010904/DTD/svg10.dtd">
<svg version="1.0" xmlns="http://www.w3.org/2000/svg"
 width="192.000000pt" height="192.000000pt" viewBox="0 0 192.000000 192.000000"
 preserveAspectRatio="xMidYMid meet">
<metadata>
Created by potrace 1.16, written by Peter Selinger 2001-2019
</metadata>
<g transform="translate(0.000000,192.000000) scale(0.100000,-0.100000)"
fill="#000000" stroke="none">
<path d="M538 1673 c7 -3 16 -2 19 1 4 3 -2 6 -13 5 -11 0 -14 -3 -6 -6z"/>
<path d="M585 1665 c-22 -8 -31 -13 -20 -13 11 0 36 6 55 13 45 17 18 17 -35
0z"/>
<path d="M910 1670 c-245 -19 -509 -86 -726 -185 -59 -27 -79 -32 -85 -23 -5
8 0 17 14 25 14 8 17 12 7 13 -13 0 -13 1 0 10 8 5 11 10 5 10 -22 0 -40 -21
-41 -48 -1 -38 7 -37 146 8 237 78 433 104 723 97 325 -7 568 -65 840 -200
113 -56 127 -60 127 -42 -1 14 -14 26 -43 40 -23 11 -41 25 -40 31 1 7 -8 9
-24 6 -14 -3 -28 -1 -32 5 -6 8 -52 29 -130 58 -23 8 -29 15 -20 19 8 3 5 5
-7 2 -12 -2 -29 1 -38 6 -9 5 -28 11 -43 13 -60 10 -127 32 -113 38 8 3 -2 6
-22 6 -21 1 -38 6 -38 11 0 6 -8 10 -17 10 -16 0 -16 -2 -3 -11 12 -9 11 -10
-5 -4 -38 13 -130 26 -210 31 -44 3 -84 10 -90 16 -7 7 9 9 55 5 50 -4 58 -3
35 4 -17 5 -59 7 -95 3 -36 -4 -105 -8 -155 -9 -49 -1 -112 -5 -140 -9 -42 -5
-46 -5 -25 5 31 15 78 21 148 21 28 0 50 4 47 8 -5 8 259 7 365 -1 34 -2 34
-2 -10 -9 -39 -7 -36 -7 17 -4 34 2 65 -1 68 -6 4 -6 1 -10 -6 -10 -7 0 -9 -3
-6 -7 4 -3 18 -1 31 7 15 7 36 10 53 6 15 -4 46 -11 68 -15 91 -18 129 -32
114 -43 -10 -7 -8 -8 11 -4 25 6 140 -29 214 -65 22 -10 46 -19 53 -19 7 0 13
-4 13 -10 0 -5 5 -10 10 -10 6 0 10 8 10 18 0 12 -23 27 -78 50 -201 84 -405
134 -626 152 -139 11 -162 11 -306 0z m-227 -67 c-7 -2 -19 -2 -25 0 -7 3 -2
5 12 5 14 0 19 -2 13 -5z m-46 -9 c-3 -3 -12 -4 -19 -1 -8 3 -5 6 6 6 11 1 17
-2 13 -5z"/>
<path d="M1517 1666 c-4 -10 -1 -13 8 -9 8 3 12 9 9 14 -7 12 -11 11 -17 -5z"/>
<path d="M1575 1670 c-16 -7 -17 -9 -3 -9 9 -1 20 4 23 9 7 11 7 11 -20 0z"/>
<path d="M1665 1650 c-3 -5 -1 -10 4 -10 6 0 11 5 11 10 0 6 -2 10 -4 10 -3 0
-8 -4 -11 -10z"/>
<path d="M1235 1600 c11 -5 27 -9 35 -9 9 0 8 4 -5 9 -11 5 -27 9 -35 9 -9 0
-8 -4 5 -9z"/>
<path d="M1395 1600 c-16 -7 -14 -8 12 -7 18 1 33 5 33 10 0 9 -19 8 -45 -3z"/>
<path d="M210 1596 c0 -9 40 -13 46 -5 3 5 -6 9 -20 9 -14 0 -26 -2 -26 -4z"/>
<path d="M313 1586 c0 -8 6 -12 14 -9 7 3 10 9 7 14 -8 14 -21 11 -21 -5z"/>
<path d="M1305 1590 c3 -5 8 -10 11 -10 2 0 4 5 4 10 0 6 -5 10 -11 10 -5 0
-7 -4 -4 -10z"/>
<path d="M1740 1596 c0 -2 7 -7 16 -10 8 -3 12 -2 9 4 -6 10 -25 14 -25 6z"/>
<path d="M1408 1573 c6 -2 18 -2 25 0 6 3 1 5 -13 5 -14 0 -19 -2 -12 -5z"/>
<path d="M250 1560 c-18 -12 -2 -12 25 0 13 6 15 9 5 9 -8 0 -22 -4 -30 -9z"/>
<path d="M583 1543 c-18 -2 -33 -7 -33 -11 0 -4 -24 -8 -53 -10 -28 -1 -76 -8
-106 -15 -49 -11 -35 -12 145 -12 240 0 345 -15 575 -83 218 -65 549 -245 735
-401 34 -28 64 -51 66 -51 3 0 5 18 5 41 0 36 -2 40 -22 35 -28 -7 -66 19 -59
42 5 13 4 14 -4 3 -8 -11 -15 -10 -40 5 -17 10 -29 20 -27 23 2 4 -17 15 -41
26 -27 12 -43 25 -41 35 1 10 -5 14 -20 12 -13 -2 -23 1 -23 6 0 6 -12 13 -26
16 -17 5 -24 12 -20 21 3 9 0 12 -8 9 -14 -5 -136 63 -149 83 -5 8 -17 11 -33
7 -33 -8 -31 12 2 23 l27 9 -37 11 c-20 6 -34 7 -30 2 3 -5 13 -9 22 -9 15 0
15 -2 2 -10 -8 -5 -24 -10 -35 -10 -17 0 -18 2 -5 11 13 9 12 10 -3 5 -10 -3
-30 2 -45 12 -14 9 -29 16 -32 16 -3 -1 -9 0 -15 1 -34 11 -38 13 -17 14 14 1
20 5 17 12 -4 5 -19 8 -33 5 -15 -4 -40 -2 -57 4 l-30 10 35 -5 c27 -4 31 -2
18 6 -10 5 -28 9 -40 8 -13 -1 -36 -1 -53 0 -23 1 -27 3 -15 11 11 7 4 10 -27
10 -23 0 -45 5 -48 10 -4 6 -11 7 -17 4 -6 -4 -8 -2 -5 3 5 7 -7 11 -31 11
-20 0 -64 5 -97 11 -33 6 -87 14 -120 19 -59 9 -58 9 37 9 54 0 96 -3 93 -6
-2 -4 17 -7 42 -6 25 1 62 -1 82 -6 20 -4 53 -11 74 -14 21 -3 35 -10 32 -16
-4 -5 3 -9 15 -9 12 0 19 4 15 10 -7 11 88 -16 128 -36 15 -8 27 -12 27 -10 0
3 11 1 25 -4 14 -5 36 -12 48 -14 31 -6 109 -38 104 -43 -3 -2 -23 4 -46 13
-23 9 -44 14 -47 11 -7 -7 87 -38 97 -31 5 3 21 -3 37 -14 15 -11 33 -17 41
-14 10 3 12 0 8 -12 -4 -9 -2 -16 3 -16 6 0 10 4 10 9 0 5 15 1 34 -8 21 -10
29 -19 22 -24 -6 -5 -2 -6 10 -2 13 3 26 -1 34 -10 7 -8 16 -12 21 -9 5 3 9 1
9 -4 0 -6 12 -13 28 -17 23 -6 24 -8 9 -14 -17 -6 -16 -8 6 -18 18 -9 27 -9
29 -1 3 7 9 5 19 -4 8 -9 29 -23 46 -32 35 -17 58 -44 30 -33 -11 4 -17 1 -17
-9 0 -11 4 -12 19 -4 25 13 34 13 25 -1 -4 -7 1 -10 11 -7 34 6 24 23 -38 63
-251 161 -512 275 -752 326 -149 32 -399 47 -522 32z m20 -20 c-7 -2 -21 -2
-30 0 -10 3 -4 5 12 5 17 0 24 -2 18 -5z m1304 -513 c1 -11 -2 -20 -7 -20 -10
0 -20 26 -13 34 12 11 19 6 20 -14z"/>
<path d="M1618 1543 c-11 -3 -18 -13 -17 -26 1 -16 3 -17 6 -5 2 9 16 21 31
27 27 9 12 13 -20 4z"/>
<path d="M1148 1533 c7 -3 16 -2 19 1 4 3 -2 6 -13 5 -11 0 -14 -3 -6 -6z"/>
<path d="M1655 1530 c-17 -8 -17 -9 7 -7 15 1 24 5 22 9 -3 4 -6 8 -7 7 -1 0
-11 -4 -22 -9z"/>
<path d="M1238 1503 c7 -3 16 -2 19 1 4 3 -2 6 -13 5 -11 0 -14 -3 -6 -6z"/>
<path d="M1301 1506 c2 -2 18 -6 34 -10 22 -5 26 -4 15 4 -14 9 -59 15 -49 6z"/>
<path d="M1658 1503 c7 -3 16 -2 19 1 4 3 -2 6 -13 5 -11 0 -14 -3 -6 -6z"/>
<path d="M1385 1470 c3 -5 8 -10 11 -10 2 0 4 5 4 10 0 6 -5 10 -11 10 -5 0
-7 -4 -4 -10z"/>
<path d="M1431 1470 c-7 -4 1 -7 18 -8 17 0 31 1 31 3 0 7 -39 12 -49 5z"/>
<path d="M1170 1455 c46 -18 64 -17 25 0 -16 8 -37 14 -45 14 -8 0 1 -7 20
-14z"/>
<path d="M1513 1455 c0 -8 4 -12 9 -9 5 3 6 10 3 15 -9 13 -12 11 -12 -6z"/>
<path d="M1843 1456 c0 -6 10 -11 23 -11 25 0 23 10 -4 17 -10 3 -19 0 -19 -6z"/>
<path d="M458 1453 c7 -3 16 -2 19 1 4 3 -2 6 -13 5 -11 0 -14 -3 -6 -6z"/>
<path d="M624 1449 c-11 -4 37 -7 106 -7 69 0 118 2 110 4 -34 7 -199 9 -216
3z"/>
<path d="M393 1443 c9 -2 25 -2 35 0 9 3 1 5 -18 5 -19 0 -27 -2 -17 -5z"/>
<path d="M1445 1440 c-3 -6 1 -7 9 -4 18 7 21 14 7 14 -6 0 -13 -4 -16 -10z"/>
<path d="M1795 1430 c3 -5 11 -10 16 -10 6 0 7 5 4 10 -3 6 -11 10 -16 10 -6
0 -7 -4 -4 -10z"/>
<path d="M960 1406 c0 -9 5 -16 10 -16 6 0 10 4 10 9 0 6 -4 13 -10 16 -5 3
-10 -1 -10 -9z"/>
<path d="M1620 1396 c14 -8 33 -15 43 -16 10 0 16 -4 13 -8 -3 -5 9 -6 27 -3
32 5 32 6 5 9 -16 2 -28 6 -28 10 0 4 -10 7 -22 8 -13 0 -32 4 -43 8 -13 5
-11 2 5 -8z"/>
<path d="M990 1376 c0 -2 11 -6 25 -8 13 -3 22 -1 19 3 -5 9 -44 13 -44 5z"/>
<path d="M1750 1330 c0 -5 7 -10 16 -10 8 0 12 5 9 10 -3 6 -10 10 -16 10 -5
0 -9 -4 -9 -10z"/>
<path d="M1688 1323 c6 -2 18 -2 25 0 6 3 1 5 -13 5 -14 0 -19 -2 -12 -5z"/>
<path d="M1200 1309 c0 -5 5 -7 10 -4 6 3 10 8 10 11 0 2 -4 4 -10 4 -5 0 -10
-5 -10 -11z"/>
<path d="M1845 1311 c-3 -5 -2 -12 3 -15 5 -3 9 1 9 9 0 17 -3 19 -12 6z"/>
<path d="M1128 1283 c7 -3 16 -2 19 1 4 3 -2 6 -13 5 -11 0 -14 -3 -6 -6z"/>
<path d="M1223 1283 c9 -2 23 -2 30 0 6 3 -1 5 -18 5 -16 0 -22 -2 -12 -5z"/>
<path d="M1318 1283 c6 -2 18 -2 25 0 6 3 1 5 -13 5 -14 0 -19 -2 -12 -5z"/>
<path d="M1758 1283 c6 -2 18 -2 25 0 6 3 1 5 -13 5 -14 0 -19 -2 -12 -5z"/>
<path d="M1558 1273 c6 -2 18 -2 25 0 6 3 1 5 -13 5 -14 0 -19 -2 -12 -5z"/>
<path d="M1360 1210 c0 -6 7 -10 15 -10 8 0 15 2 15 4 0 2 -7 6 -15 10 -8 3
-15 1 -15 -4z"/>
<path d="M1450 1210 c8 -5 22 -10 30 -10 13 0 13 1 0 10 -8 5 -22 10 -30 10
-13 0 -13 -1 0 -10z"/>
<path d="M1720 1173 c0 -14 19 -38 25 -32 8 8 -5 39 -16 39 -5 0 -9 -3 -9 -7z"/>
<path d="M1520 1144 c0 -8 5 -12 10 -9 6 4 8 11 5 16 -9 14 -15 11 -15 -7z"/>
<path d="M1575 1135 c-25 -12 -26 -14 -5 -9 14 4 29 10 35 15 12 12 5 11 -30
-6z"/>
<path d="M1800 1100 c0 -5 5 -10 10 -10 6 0 10 5 10 10 0 6 -4 10 -10 10 -5 0
-10 -4 -10 -10z"/>
<path d="M1710 1050 c8 -5 20 -10 25 -10 6 0 3 5 -5 10 -8 5 -19 10 -25 10 -5
0 -3 -5 5 -10z"/>
<path d="M1790 1000 c0 -5 5 -10 11 -10 5 0 7 5 4 10 -3 6 -8 10 -11 10 -2 0
-4 -4 -4 -10z"/>
<path d="M1840 970 c-9 -6 -10 -10 -3 -10 6 0 15 5 18 10 8 12 4 12 -15 0z"/>
<path d="M1788 963 c7 -3 16 -2 19 1 4 3 -2 6 -13 5 -11 0 -14 -3 -6 -6z"/>
<path d="M1840 890 c0 -5 5 -10 10 -10 6 0 10 5 10 10 0 6 -4 10 -10 10 -5 0
-10 -4 -10 -10z"/>
</g>
</svg>
