<?xml version="1.0" standalone="no"?>
<!DOCTYPE svg PUBLIC "-//W3C//DTD SVG 20010904//EN"
 "http://www.w3.org/TR/2001/REC-SVG-20010904/DTD/svg10.dtd">
<svg version="1.0" xmlns="http://www.w3.org/2000/svg"
 width="180.000000pt" height="180.000000pt" viewBox="0 0 180.000000 180.000000"
 preserveAspectRatio="xMidYMid meet">
<metadata>
Created by potrace 1.16, written by Peter Selinger 2001-2019
</metadata>
<g transform="translate(0.000000,180.000000) scale(0.100000,-0.100000)"
fill="#000000" stroke="none">
<path d="M575 1250 c-103 -13 -249 -38 -335 -58 l-75 -17 -3 -242 -2 -242 37
-11 c67 -18 275 -59 373 -72 124 -16 546 -16 670 0 98 13 306 54 373 72 l37
11 -2 242 -3 242 -100 22 c-217 48 -297 56 -605 59 -162 1 -326 -2 -365 -6z
m709 -36 c103 -14 278 -47 319 -60 15 -5 17 -24 17 -223 l0 -219 -67 -17
c-231 -58 -452 -80 -731 -72 -217 6 -346 21 -525 63 l-107 26 0 218 0 219 38
10 c117 31 306 60 452 72 146 11 470 2 604 -17z"/>
<path d="M1436 1133 c-3 -4 -69 -5 -147 -4 -96 1 -145 -2 -155 -10 -10 -8 -14
-8 -14 0 0 7 -56 11 -184 10 -158 0 -189 -3 -220 -18 -35 -18 -36 -18 -36 0 0
17 -8 19 -94 19 -52 0 -97 -4 -101 -10 -4 -6 -15 -6 -31 0 -14 6 -75 10 -135
10 l-109 0 0 -35 c0 -24 5 -35 15 -35 13 0 15 -21 15 -130 0 -109 -2 -130 -15
-130 -10 0 -15 -11 -15 -35 l0 -35 95 0 95 0 0 30 0 29 52 -27 c67 -35 204
-45 224 -17 11 15 15 15 43 1 35 -18 136 -21 178 -5 19 7 29 7 31 0 5 -16 192
-15 192 1 0 9 3 9 12 0 8 -8 45 -12 100 -12 82 0 89 2 97 22 8 21 8 21 13 1 5
-19 13 -21 102 -22 92 -1 97 0 128 28 30 27 33 34 33 90 0 52 -4 64 -28 89
-27 28 -27 30 -8 35 19 5 21 13 21 76 0 49 -4 73 -12 75 -27 9 -136 15 -142 9z
m-980 -46 c35 -18 44 -34 44 -78 0 -42 -14 -64 -49 -79 l-30 -12 29 -43 c27
-39 78 -85 94 -85 3 0 6 65 6 144 0 142 0 145 -22 148 -13 2 -23 8 -23 13 0 6
34 11 78 13 64 2 77 0 77 -13 0 -9 -9 -15 -25 -15 l-26 0 3 -147 c3 -146 3
-148 26 -151 13 -2 21 -9 19 -15 -5 -15 -123 -9 -167 9 -54 23 -118 90 -134
142 -6 18 -3 22 12 22 35 0 65 33 64 70 -1 40 -17 57 -59 66 l-31 6 -4 -78
c-2 -44 -2 -112 0 -151 3 -65 5 -73 22 -73 11 0 20 -6 20 -12 0 -9 -22 -13
-75 -13 -53 0 -75 4 -75 13 0 6 9 12 20 12 19 0 20 7 20 150 0 143 -1 150 -20
150 -12 0 -20 7 -20 16 0 15 12 16 98 12 62 -3 108 -11 128 -21z m417 12 c24
-6 43 -7 50 -1 7 5 49 10 95 11 68 2 82 0 82 -13 0 -9 -9 -16 -20 -16 -18 0
-20 -7 -20 -65 l0 -65 70 0 70 0 0 64 c0 59 -2 65 -22 68 -13 2 -21 8 -18 13
3 6 47 10 100 10 95 0 95 0 98 -26 3 -27 -31 -79 -44 -67 -4 4 -1 14 5 22 15
18 -7 59 -27 51 -8 -3 -18 -5 -23 -5 -6 0 -8 -60 -7 -147 3 -146 3 -148 26
-151 13 -2 22 -8 20 -14 -5 -14 -151 -13 -156 1 -2 6 8 11 22 11 25 0 26 1 26
70 l0 70 -70 0 -70 0 0 -70 c0 -63 2 -70 20 -70 11 0 20 -6 20 -12 0 -9 -22
-13 -75 -13 -53 0 -75 4 -75 13 0 6 9 12 20 12 19 0 20 7 20 150 0 83 -2 150
-4 150 -2 0 -12 3 -21 6 -14 6 -16 0 -14 -44 3 -64 -5 -75 -25 -29 -24 58 -92
82 -151 55 -61 -27 -86 -158 -45 -226 28 -45 82 -68 130 -53 20 6 45 20 57 31
12 11 27 20 33 20 37 0 -36 -64 -91 -81 -93 -26 -200 40 -214 132 -14 92 32
176 110 204 49 17 69 18 118 4z m633 1 c20 -8 29 -8 35 2 13 21 20 3 24 -56 4
-62 -7 -73 -24 -25 -14 41 -38 58 -79 59 -25 0 -35 -6 -44 -25 -14 -32 5 -55
80 -97 63 -36 82 -61 82 -108 0 -73 -63 -112 -148 -90 -33 8 -48 8 -50 1 -2
-6 -8 -9 -13 -5 -12 7 -12 134 1 134 6 0 10 -12 10 -26 0 -31 50 -84 80 -84
28 0 56 15 64 35 10 27 -14 61 -69 93 -88 53 -111 96 -81 151 25 45 78 61 132
41z m-336 -82 c0 -38 0 -38 -40 -38 l-40 0 0 40 c0 29 4 40 15 40 8 0 15 4 15
9 0 5 11 4 25 -2 20 -10 25 -19 25 -49z m-775 12 c17 -19 17 -21 0 -40 -27
-29 -35 -25 -35 20 0 45 8 49 35 20z m473 4 c12 -8 29 -28 37 -45 11 -20 23
-29 40 -29 23 0 25 -3 25 -50 0 -40 -3 -48 -15 -44 -8 3 -36 -8 -62 -25 -59
-39 -77 -39 -119 3 -29 29 -34 41 -34 81 0 99 64 154 128 109z m638 -9 c9 -13
14 -29 12 -34 -4 -14 -68 28 -68 45 0 23 38 16 56 -11z m-154 -73 c25 -39 25
-39 4 -48 -16 -7 -22 -20 -24 -57 -3 -39 -6 -48 -20 -45 -14 3 -17 18 -20 96
-3 84 -1 92 16 92 10 0 29 -17 44 -38z m-832 -59 l0 -48 -27 27 -27 27 25 20
c13 11 25 20 27 21 1 0 2 -21 2 -47z m930 -18 c39 -25 50 -47 30 -60 -20 -12
-52 8 -66 41 -22 54 -20 55 36 19z m-280 -27 c0 -36 -4 -45 -25 -55 -14 -6
-25 -7 -25 -2 0 5 -7 9 -15 9 -11 0 -15 12 -15 45 l0 45 40 0 40 0 0 -42z
m-784 -45 c-7 -7 -26 7 -26 19 0 6 6 6 15 -2 9 -7 13 -15 11 -17z"/>
<path d="M1556 624 c-19 -18 -21 -65 -4 -82 20 -20 76 -15 88 7 32 61 -37 123
-84 75z m69 -14 c10 -11 15 -26 11 -35 -8 -23 -25 -9 -19 15 3 12 0 20 -6 20
-7 0 -9 -4 -6 -10 3 -5 -1 -10 -9 -10 -10 0 -13 6 -9 17 4 11 3 14 -5 9 -7 -4
-12 -22 -12 -39 0 -24 -3 -28 -10 -17 -14 21 -12 36 6 54 21 21 37 20 59 -4z
m-15 -61 c0 -5 -7 -9 -15 -9 -15 0 -20 12 -9 23 8 8 24 -1 24 -14z"/>
</g>
</svg>
