<?xml version="1.0" standalone="no"?>
<!DOCTYPE svg PUBLIC "-//W3C//DTD SVG 20010904//EN"
 "http://www.w3.org/TR/2001/REC-SVG-20010904/DTD/svg10.dtd">
<svg version="1.0" xmlns="http://www.w3.org/2000/svg"
 width="64.000000pt" height="64.000000pt" viewBox="0 0 64.000000 64.000000"
 preserveAspectRatio="xMidYMid meet">
<metadata>
Created by potrace 1.16, written by Peter Selinger 2001-2019
</metadata>
<g transform="translate(0.000000,64.000000) scale(0.100000,-0.100000)"
fill="#000000" stroke="none">
<path d="M215 509 c-99 -16 -176 -64 -201 -126 -21 -49 -17 -60 9 -22 29 43
114 95 179 108 63 14 173 14 236 0 65 -14 150 -65 180 -109 l25 -35 -7 30
c-29 121 -214 189 -421 154z"/>
<path d="M220 325 c0 -68 2 -75 20 -75 18 0 20 7 20 75 0 68 -2 75 -20 75 -18
0 -20 -7 -20 -75z"/>
<path d="M289 396 c0 -1 -1 -34 -2 -74 -2 -68 -1 -73 18 -70 17 3 19 9 17 41
-2 20 -1 37 2 37 3 0 15 -18 26 -40 13 -26 27 -40 40 -40 18 0 20 7 20 73 0
67 -2 73 -21 74 -19 2 -21 -2 -16 -38 6 -49 -2 -49 -30 -1 -12 21 -29 39 -37
39 -9 0 -16 -1 -17 -1z m28 -48 c-3 -8 -6 -5 -6 6 -1 11 2 17 5 13 3 -3 4 -12
1 -19z m73 -54 c0 -8 -4 -12 -10 -9 -5 3 -10 10 -10 16 0 5 5 9 10 9 6 0 10
-7 10 -16z"/>
<path d="M470 393 c-26 -9 -40 -35 -40 -73 0 -51 24 -70 83 -68 l47 2 0 38 c0
37 -1 38 -35 38 -26 0 -35 -4 -35 -16 0 -12 6 -15 21 -11 13 3 19 1 16 -6 -6
-20 -40 -20 -54 -1 -17 24 -16 39 3 59 15 14 18 14 40 0 29 -19 44 -19 44 -1
0 30 -52 53 -90 39z"/>
<path d="M76 323 c2 -62 4 -68 24 -71 18 -3 21 0 15 17 -8 28 1 40 25 34 13
-3 20 -14 20 -29 0 -19 5 -24 24 -24 22 0 23 3 16 35 -4 20 -6 44 -3 55 9 34
-15 50 -71 50 l-51 0 1 -67z m83 38 c19 -12 4 -31 -25 -31 -17 0 -24 5 -24 20
0 21 24 27 49 11z"/>
<path d="M4 285 c27 -113 202 -183 389 -156 136 19 223 75 243 156 6 29 5 28
-24 -12 -21 -28 -52 -52 -99 -75 -66 -32 -71 -33 -193 -33 -122 0 -127 1 -193
33 -47 23 -78 47 -99 75 -29 40 -30 41 -24 12z"/>
</g>
</svg>
