<?xml version="1.0" standalone="no"?>
<!DOCTYPE svg PUBLIC "-//W3C//DTD SVG 20010904//EN"
 "http://www.w3.org/TR/2001/REC-SVG-20010904/DTD/svg10.dtd">
<svg version="1.0" xmlns="http://www.w3.org/2000/svg"
 width="100.000000pt" height="100.000000pt" viewBox="0 0 100.000000 100.000000"
 preserveAspectRatio="xMidYMid meet">
<metadata>
Created by potrace 1.16, written by Peter Selinger 2001-2019
</metadata>
<g transform="translate(0.000000,100.000000) scale(0.100000,-0.100000)"
fill="#000000" stroke="none">
<path d="M110 500 l0 -390 140 0 140 0 0 155 c0 131 2 155 15 155 10 0 15 -10
15 -30 0 -27 3 -30 30 -30 l30 0 0 -65 0 -65 30 0 30 0 0 -60 0 -60 175 0 175
0 0 80 0 80 -30 0 -30 0 0 65 0 65 -30 0 c-28 0 -30 2 -30 40 0 38 2 40 30 40
27 0 30 3 30 30 0 27 3 30 30 30 l30 0 0 145 0 145 -30 0 c-27 0 -30 3 -30 30
l0 30 -360 0 -360 0 0 -390z m640 345 c0 -28 -12 -32 -34 -10 -19 19 -26 19
-26 -1 0 -11 -6 -14 -22 -8 -13 3 -24 11 -26 15 -7 17 -22 9 -22 -11 0 -19 7
-20 95 -20 l95 0 0 -155 0 -155 -60 0 -60 0 0 -30 c0 -26 4 -30 28 -30 24 1
25 2 10 14 -23 17 -23 22 2 29 19 5 20 0 20 -84 l0 -89 28 0 c23 1 25 2 11 13
-8 7 -18 22 -21 35 -5 18 -2 22 18 22 24 0 24 0 24 -115 0 -75 4 -115 11 -115
6 0 8 9 4 20 -5 14 -2 20 9 20 20 0 20 7 1 26 -22 22 -18 34 10 34 24 0 25 -3
25 -60 l0 -60 -125 0 -125 0 0 30 c0 27 -3 30 -30 30 l-30 0 0 60 0 60 -30 0
-30 0 0 65 0 65 -65 0 -65 0 0 -155 0 -155 -120 0 -120 0 0 370 0 370 310 0
310 0 0 -25z m60 5 c0 -13 -7 -20 -19 -20 -10 0 -21 9 -24 20 -4 16 0 20 19
20 17 0 24 -6 24 -20z m60 -64 c0 -19 -4 -23 -20 -19 -11 3 -20 14 -20 24 0
12 7 19 20 19 14 0 20 -7 20 -24z m0 -131 c0 -88 -1 -95 -20 -95 -26 0 -27 37
-2 56 16 13 16 13 -3 14 -18 0 -20 7 -20 60 0 56 2 60 23 60 21 0 22 -3 22
-95z m-390 -255 c0 -13 -7 -20 -20 -20 -13 0 -20 7 -20 20 0 13 7 20 20 20 13
0 20 -7 20 -20z m60 -131 c0 -12 -7 -19 -20 -19 -14 0 -20 7 -20 24 0 19 4 23
20 19 11 -3 20 -14 20 -24z m60 -119 c0 -13 -7 -20 -20 -20 -13 0 -20 7 -20
20 0 13 7 20 20 20 13 0 20 -7 20 -20z"/>
<path d="M170 521 c0 -253 -3 -330 -12 -333 -9 -3 -8 -9 4 -21 9 -9 19 -17 22
-17 3 0 6 158 6 350 0 227 -4 350 -10 350 -6 0 -10 -116 -10 -329z"/>
<path d="M370 790 c0 -11 5 -20 10 -20 6 0 10 5 10 10 0 6 32 10 75 10 43 0
75 -4 75 -10 0 -5 5 -10 10 -10 6 0 10 9 10 20 0 19 -7 20 -95 20 -88 0 -95
-1 -95 -20z"/>
<path d="M750 770 c0 -13 7 -20 20 -20 24 0 25 6 6 26 -20 19 -26 18 -26 -6z"/>
<path d="M370 655 l0 -95 95 0 95 0 0 35 c0 32 2 35 30 35 l30 0 0 60 0 60
-125 0 -125 0 0 -95z m170 35 c0 -38 -2 -40 -30 -40 -28 0 -30 -3 -30 -35 0
-35 0 -35 -45 -35 l-45 0 0 75 0 75 75 0 75 0 0 -40z m60 20 c0 -12 -7 -20
-17 -20 -17 -1 -17 -1 0 -14 22 -17 22 -26 -3 -26 -17 0 -20 7 -20 40 0 33 3
40 20 40 13 0 20 -7 20 -20z m-58 -105 c-3 -16 -11 -25 -23 -25 -14 0 -19 7
-19 25 0 20 5 25 24 25 19 0 22 -4 18 -25z"/>
<path d="M603 603 c-4 -10 -14 -23 -22 -30 -14 -11 -12 -12 12 -13 23 0 27 4
27 30 0 34 -7 39 -17 13z"/>
<path d="M750 533 c1 -24 3 -26 13 -13 7 8 19 21 27 28 12 10 9 12 -13 12 -23
0 -27 -4 -27 -27z"/>
<path d="M370 520 c0 -18 7 -20 65 -20 58 0 65 2 65 20 0 11 -4 20 -10 20 -5
0 -10 -4 -10 -10 0 -14 -37 -12 -44 3 -5 10 -7 10 -12 0 -7 -15 -34 -17 -34
-3 0 6 -4 10 -10 10 -5 0 -10 -9 -10 -20z"/>
<path d="M690 407 c0 -20 5 -27 20 -27 11 0 20 2 20 5 0 3 -9 15 -20 27 l-20
22 0 -27z"/>
<path d="M520 370 c0 -5 5 -10 10 -10 6 0 10 -6 10 -14 0 -8 5 -18 10 -21 6
-4 10 7 10 24 0 24 -4 31 -20 31 -11 0 -20 -4 -20 -10z"/>
<path d="M750 270 c0 -13 7 -20 20 -20 24 0 25 6 6 26 -20 19 -26 18 -26 -6z"/>
<path d="M580 245 c0 -3 9 -15 20 -27 l20 -22 0 27 c0 20 -5 27 -20 27 -11 0
-20 -2 -20 -5z"/>
<path d="M205 180 c3 -5 37 -10 76 -10 39 0 69 4 69 10 0 6 -32 10 -76 10 -47
0 -73 -4 -69 -10z"/>
<path d="M640 180 c0 -6 31 -10 74 -10 41 0 78 5 81 10 4 6 -23 10 -74 10 -47
0 -81 -4 -81 -10z"/>
</g>
</svg>
