<?xml version="1.0" standalone="no"?>
<!DOCTYPE svg PUBLIC "-//W3C//DTD SVG 20010904//EN"
 "http://www.w3.org/TR/2001/REC-SVG-20010904/DTD/svg10.dtd">
<svg version="1.0" xmlns="http://www.w3.org/2000/svg"
 width="64.000000pt" height="64.000000pt" viewBox="0 0 64.000000 64.000000"
 preserveAspectRatio="xMidYMid meet">
<metadata>
Created by potrace 1.16, written by Peter Selinger 2001-2019
</metadata>
<g transform="translate(0.000000,64.000000) scale(0.100000,-0.100000)"
fill="#000000" stroke="none">
<path d="M218 623 c0 -10 -1 -24 -1 -30 1 -17 -7 -16 -27 2 -28 25 -52 9 -44
-29 5 -25 4 -29 -7 -18 -33 31 -71 3 -50 -37 11 -19 9 -20 -17 -15 -35 7 -51
-19 -27 -46 22 -24 19 -30 -15 -30 -40 0 -41 -33 -2 -54 l27 -15 -27 -1 c-16
0 -28 -4 -28 -10 0 -5 11 -10 25 -10 14 0 25 -5 25 -11 0 -7 -10 -9 -26 -5
-19 5 -25 3 -22 -6 3 -7 15 -15 28 -18 l23 -5 -27 -12 c-38 -18 -36 -53 4 -53
34 0 37 -6 15 -30 -24 -27 -9 -52 27 -45 28 7 29 6 18 -15 -6 -12 -9 -28 -6
-36 6 -16 42 -19 51 -4 13 21 24 10 15 -14 -14 -37 11 -54 46 -31 15 9 24 13
21 9 -8 -14 11 -54 26 -54 8 0 20 12 27 27 l13 28 9 -28 c13 -36 49 -34 59 3
l6 25 13 -27 c23 -48 60 -30 51 25 -2 12 11 8 29 -8 27 -24 52 -9 45 26 -6 29
-6 29 19 17 37 -16 54 1 38 38 -12 25 -12 25 17 19 35 -7 50 18 26 45 -22 24
-19 30 15 30 17 0 30 5 30 10 0 6 -18 10 -41 10 -41 0 -41 0 -37 -35 3 -31 1
-35 -19 -35 -19 0 -21 -4 -18 -30 3 -26 1 -29 -21 -28 -13 1 -24 8 -24 16 0
10 -3 10 -14 0 -8 -7 -10 -14 -5 -16 5 -2 9 -12 9 -22 0 -13 -5 -17 -19 -13
-12 3 -17 11 -14 19 3 8 0 14 -6 14 -6 0 -11 -5 -11 -12 0 -6 -3 -8 -6 -5 -4
4 -1 13 5 21 10 12 8 15 -11 18 -22 4 -22 5 -3 12 55 20 70 33 67 57 -3 31 -9
36 -71 58 -34 12 -47 20 -37 24 15 6 16 53 1 77 -3 5 -1 10 5 10 6 0 30 9 52
20 44 21 68 25 68 12 0 -4 -19 -14 -42 -22 -48 -18 -63 -37 -54 -73 6 -25 53
-57 83 -57 8 0 13 -12 13 -31 0 -24 4 -30 15 -25 8 3 15 1 15 -4 0 -5 7 -7 15
-4 9 4 15 19 15 35 0 30 5 32 65 30 29 -2 29 -1 11 14 -11 8 -25 15 -30 16 -6
1 0 4 14 8 18 5 25 14 25 31 0 17 -7 26 -25 31 -14 4 -20 7 -14 8 5 1 19 8 30
17 18 14 17 15 -13 11 -18 -2 -33 0 -33 5 0 4 14 8 30 8 17 0 30 5 30 10 0 6
-13 10 -30 10 -34 0 -37 6 -15 30 24 27 9 52 -26 45 -29 -6 -29 -6 -17 19 16
37 -1 54 -38 38 -25 -12 -25 -12 -19 17 7 35 -18 50 -45 26 -22 -20 -32 -19
-29 3 3 33 -1 42 -20 42 -11 0 -23 -9 -26 -20 -3 -11 -10 -20 -15 -20 -4 0
-10 9 -13 20 -3 11 -11 20 -17 20 -8 0 -10 -9 -6 -25 4 -14 2 -25 -4 -25 -5 0
-10 11 -10 25 0 14 -4 25 -10 25 -5 0 -10 -9 -10 -20 0 -11 -4 -20 -9 -20 -5
0 -11 9 -14 20 -7 25 -46 27 -49 3z m60 -44 c24 -2 25 -2 4 -6 -14 -3 -22 -11
-21 -21 3 -39 -1 -54 -15 -49 -8 3 -17 1 -19 -6 -2 -7 -7 -9 -11 -6 -4 4 0 14
9 22 9 10 11 18 5 22 -16 10 -12 25 5 19 8 -4 15 -2 15 4 0 6 -4 12 -10 14 -5
2 -6 14 -2 28 6 24 7 25 10 3 2 -17 11 -23 30 -24z m158 -17 c25 3 34 0 34
-10 0 -10 -7 -12 -22 -8 -13 3 -31 6 -40 6 -13 0 -18 8 -17 28 2 25 2 25 6 4
4 -21 9 -23 39 -20z m-236 -13 c0 -5 -7 -9 -15 -9 -8 0 -15 7 -15 15 0 9 6 12
15 9 8 -4 15 -10 15 -15z m87 -21 c-3 -8 -6 -5 -6 6 -1 11 2 17 5 13 3 -3 4
-12 1 -19z m30 0 c-3 -8 -6 -5 -6 6 -1 11 2 17 5 13 3 -3 4 -12 1 -19z m-167
-19 c0 -14 -27 -10 -33 5 -4 10 0 12 14 9 10 -3 19 -9 19 -14z m44 -18 c-9
-10 -26 18 -18 30 5 9 9 8 14 -7 4 -10 6 -21 4 -23z m196 22 c0 -10 -7 -12
-22 -8 -38 12 -43 24 -9 23 20 -1 31 -6 31 -15z m140 2 c0 -8 -7 -15 -15 -15
-26 0 -18 20 13 29 1 1 2 -6 2 -14z m-60 -10 c-13 -16 -40 -20 -40 -7 0 14 12
22 33 22 16 0 17 -3 7 -15z m-132 -73 c3 -57 1 -62 -18 -62 -16 0 -20 6 -20
34 0 52 12 97 24 93 6 -2 12 -31 14 -65z m-56 11 c-2 -27 -5 -49 -6 -49 0 -1
-20 7 -44 18 -35 17 -40 23 -30 35 10 13 62 40 79 42 4 1 4 -20 1 -46z m110
33 c19 -8 40 -21 46 -29 10 -12 6 -18 -25 -32 -21 -10 -41 -19 -45 -21 -3 -2
-8 19 -10 46 -1 28 -2 50 -2 50 1 0 17 -6 36 -14z m-302 -11 c0 -12 -19 -12
-23 0 -4 9 -1 12 9 8 7 -3 14 -7 14 -8z m66 1 c3 -8 -4 -28 -16 -44 -14 -19
-24 -50 -27 -91 -4 -39 -10 -61 -18 -61 -28 0 -32 49 -9 117 27 81 56 114 70
79z m374 -18 c41 -67 50 -178 15 -178 -11 0 -15 12 -15 49 0 32 -8 64 -25 95
-24 45 -25 66 -4 66 5 0 18 -14 29 -32z m-330 -46 c0 -5 18 -15 40 -22 23 -7
37 -17 33 -23 -11 -17 -11 -61 0 -74 6 -9 6 -13 -2 -13 -6 0 -32 -10 -57 -21
-31 -15 -43 -26 -40 -36 8 -21 -4 -38 -15 -22 -18 28 -8 68 14 58 1 -1 18 7
37 18 53 30 52 103 -1 103 -11 0 -19 4 -19 9 0 6 -9 8 -20 6 -13 -2 -20 2 -20
11 0 8 10 14 25 14 14 0 25 -4 25 -8z m-140 -12 c0 -5 -4 -10 -9 -10 -6 0 -13
5 -16 10 -3 6 1 10 9 10 9 0 16 -4 16 -10z m165 -70 c0 -15 -55 -50 -67 -43
-9 5 -11 77 -2 86 9 9 69 -28 69 -43z m265 0 c0 -27 -3 -50 -7 -49 -16 1 -67
35 -71 47 -3 10 53 52 71 52 4 0 7 -22 7 -50z m-145 0 c0 -18 -6 -26 -23 -28
-13 -2 -25 3 -28 12 -10 26 4 48 28 44 17 -2 23 -10 23 -28z m265 0 c0 -5 -4
-10 -10 -10 -5 0 -10 5 -10 10 0 6 5 10 10 10 6 0 10 -4 10 -10z m-270 -109
c0 -33 -5 -63 -11 -66 -15 -10 -17 -6 -25 63 -6 59 -5 62 15 62 19 0 21 -5 21
-59z m-255 30 c-2 -4 -19 -5 -37 -3 -27 4 -29 6 -13 12 22 8 57 1 50 -9z m202
-87 c-7 -7 -73 24 -86 39 -9 12 -4 18 31 35 l43 20 8 -45 c4 -25 6 -47 4 -49z
m127 72 c33 -14 37 -18 26 -32 -10 -11 -72 -44 -84 -44 0 0 1 22 2 50 2 27 7
48 10 46 4 -2 24 -11 46 -20z m-284 5 c0 -5 -7 -11 -15 -15 -15 -5 -20 5 -8
17 9 10 23 9 23 -2z m400 -7 c0 -8 -4 -12 -10 -9 -5 3 -10 10 -10 16 0 5 5 9
10 9 6 0 10 -7 10 -16z m-410 -34 c0 5 7 10 15 10 18 0 20 -16 3 -23 -7 -3 4
-6 25 -6 20 -1 37 -5 37 -11 0 -5 7 -10 16 -10 8 0 12 -5 9 -10 -5 -7 -11 -8
-19 -1 -6 5 -24 8 -38 7 -15 -2 -25 1 -22 5 3 5 0 9 -5 9 -15 0 -14 -27 1 -32
7 -3 2 -7 -10 -10 -21 -6 -23 -4 -17 23 6 26 4 29 -19 29 -18 0 -24 4 -20 15
5 11 11 12 25 4 13 -6 19 -6 19 1z m170 -81 c0 -12 7 -19 20 -19 16 0 20 -7
20 -31 0 -17 -4 -28 -10 -24 -5 3 -10 13 -10 21 0 18 -48 14 -59 -5 -6 -10
-10 -9 -15 4 -5 13 -14 16 -34 12 -23 -5 -28 -2 -28 14 0 10 4 19 8 19 4 0 8
-5 8 -12 0 -6 3 -8 6 -5 4 3 15 2 25 -4 16 -8 19 -6 20 13 1 13 1 28 0 34 -1
7 9 9 24 6 16 -3 25 -11 25 -23z m100 -20 c0 -6 -4 -7 -10 -4 -5 3 -10 11 -10
16 0 6 5 7 10 4 6 -3 10 -11 10 -16z m-33 -11 c-3 -8 -6 -5 -6 6 -1 11 2 17 5
13 3 -3 4 -12 1 -19z m43 -24 c0 -8 -4 -12 -10 -9 -5 3 -10 10 -10 16 0 5 5 9
10 9 6 0 10 -7 10 -16z"/>
<path d="M257 101 c-4 -17 -3 -21 5 -13 5 5 8 16 6 23 -3 8 -7 3 -11 -10z"/>
</g>
</svg>
