<?xml version="1.0" standalone="no"?>
<!DOCTYPE svg PUBLIC "-//W3C//DTD SVG 20010904//EN"
 "http://www.w3.org/TR/2001/REC-SVG-20010904/DTD/svg10.dtd">
<svg version="1.0" xmlns="http://www.w3.org/2000/svg"
 width="256.000000pt" height="256.000000pt" viewBox="0 0 256.000000 256.000000"
 preserveAspectRatio="xMidYMid meet">
<metadata>
Created by potrace 1.16, written by Peter Selinger 2001-2019
</metadata>
<g transform="translate(0.000000,256.000000) scale(0.100000,-0.100000)"
fill="#000000" stroke="none">
<path d="M900 2547 c-31 -15 -38 -42 -39 -144 -1 -95 -13 -105 -56 -49 -36 48
-95 86 -132 86 -18 0 -48 -9 -67 -21 -35 -20 -36 -23 -36 -78 0 -32 7 -81 16
-110 8 -29 13 -55 10 -58 -3 -3 -18 4 -34 16 -43 30 -119 61 -152 61 -44 0
-90 -49 -90 -97 0 -38 39 -135 59 -147 13 -8 15 -46 2 -46 -5 0 -28 7 -51 15
-23 8 -70 15 -104 15 -61 0 -61 0 -84 -40 -12 -21 -22 -52 -22 -67 0 -31 57
-108 102 -139 16 -11 26 -23 25 -29 -2 -5 -49 -12 -105 -15 -55 -3 -105 -9
-110 -15 -15 -16 -32 -76 -32 -112 0 -30 6 -37 63 -73 34 -22 72 -43 85 -46
12 -4 22 -14 22 -24 0 -13 -11 -19 -47 -23 -62 -7 -123 -33 -123 -52 0 -12 9
-11 48 6 26 11 68 23 95 26 26 3 47 11 47 17 0 6 3 20 6 32 4 17 -5 26 -58 53
-35 17 -77 42 -93 55 -28 23 -28 23 -15 70 17 60 38 69 147 64 l82 -4 11 30
c9 26 8 33 -7 44 -31 22 -73 64 -100 99 l-27 35 24 44 c24 42 27 44 70 44 25
0 71 -11 103 -24 l57 -24 21 29 21 30 -27 35 c-39 50 -68 122 -61 149 3 13 20
33 36 45 l31 22 53 -22 c29 -11 68 -34 87 -49 l34 -29 27 19 27 19 -21 47
c-11 25 -22 71 -25 103 l-5 57 36 21 c21 12 43 22 50 22 21 0 92 -58 120 -99
27 -39 28 -39 59 -26 l31 13 1 96 c0 74 4 99 16 111 18 18 88 30 105 18 16
-12 69 -94 83 -130 11 -26 19 -33 40 -33 36 0 46 10 50 50 3 32 15 74 36 123
5 12 3 17 -7 17 -18 0 -36 -37 -44 -93 -7 -47 -20 -77 -33 -77 -5 0 -14 15
-22 33 -14 36 -67 118 -83 129 -17 12 -99 9 -126 -5z"/>
<path d="M1360 2518 c10 -24 22 -67 26 -95 6 -52 7 -53 39 -53 29 0 35 5 65
64 45 89 69 110 117 103 62 -10 75 -36 72 -140 l-3 -89 28 -12 c27 -11 31 -9
96 56 37 38 76 68 85 68 10 0 33 -10 53 -22 34 -21 34 -21 30 -82 -3 -34 -15
-80 -27 -103 l-21 -42 30 -21 30 -22 40 32 c23 18 63 41 91 51 l51 20 34 -36
c19 -20 34 -40 34 -45 0 -18 -50 -116 -74 -145 l-25 -31 22 -27 22 -28 48 21
c27 12 72 24 100 27 51 4 53 4 75 -31 12 -20 22 -45 22 -56 0 -12 -28 -49 -68
-89 -64 -63 -68 -70 -57 -91 12 -22 19 -23 109 -24 108 -1 120 -7 132 -73 8
-44 -14 -69 -104 -115 -62 -32 -67 -36 -64 -64 3 -28 7 -30 62 -41 32 -6 73
-18 91 -27 34 -17 45 -15 36 7 -5 14 -106 47 -145 47 -39 0 -23 24 35 55 90
47 113 70 113 116 0 22 -6 55 -14 73 -16 39 -40 46 -152 46 -41 0 -74 3 -74 8
0 4 27 36 60 70 53 56 60 68 60 103 0 24 -9 53 -22 74 -22 33 -26 35 -78 35
-30 -1 -79 -9 -108 -19 -45 -16 -54 -16 -59 -4 -3 8 4 24 15 36 27 29 62 111
62 147 0 19 -12 41 -35 66 -31 32 -39 36 -69 31 -35 -6 -99 -34 -148 -64 -37
-24 -42 -13 -24 41 9 26 16 75 16 111 0 61 -1 64 -34 84 -18 12 -50 21 -69 21
-30 0 -47 -10 -100 -60 -36 -33 -70 -60 -76 -60 -7 0 -11 31 -11 94 0 120 -11
137 -94 144 -70 6 -88 -8 -136 -104 -18 -35 -38 -64 -45 -64 -7 0 -15 21 -19
52 -9 66 -31 118 -50 118 -13 0 -12 -6 4 -42z"/>
<path d="M1070 2221 c-195 -47 -340 -130 -481 -277 -132 -139 -215 -303 -245
-484 -53 -321 43 -627 264 -843 118 -117 236 -188 402 -243 81 -26 95 -28 270
-28 184 -1 185 -1 285 33 154 52 233 96 347 194 151 129 273 343 309 542 16
90 16 261 0 350 -68 374 -369 682 -744 759 -104 22 -308 20 -407 -3z m387 -17
c369 -76 668 -375 739 -739 18 -90 18 -260 0 -350 -54 -274 -249 -531 -501
-657 -27 -14 -95 -41 -150 -59 -98 -33 -103 -34 -265 -33 -153 0 -171 2 -250
28 -314 104 -529 314 -634 616 -89 258 -44 562 117 800 41 60 149 173 217 225
58 44 165 103 241 131 141 53 340 68 486 38z"/>
<path d="M1150 2159 c-122 -14 -283 -78 -383 -150 -107 -77 -215 -204 -275
-324 -56 -112 -74 -195 -79 -366 -5 -137 -3 -165 17 -245 44 -177 119 -305
255 -432 102 -95 238 -169 375 -204 115 -29 310 -31 425 -4 302 70 540 286
632 576 68 214 50 488 -44 674 -173 343 -525 524 -923 475z m236 -19 c282 -35
536 -217 667 -476 66 -131 99 -337 78 -484 -61 -434 -417 -744 -851 -743 -220
0 -417 77 -575 225 -136 127 -211 255 -255 433 -20 78 -22 107 -17 225 4 98
11 156 27 210 67 226 227 418 437 523 159 80 318 108 489 87z"/>
<path d="M1390 1963 c1 -67 29 -404 35 -413 4 -6 10 -10 16 -10 17 0 399 189
399 197 0 14 -102 110 -155 145 -71 47 -242 118 -287 118 -5 0 -8 -17 -8 -37z
m153 -37 c91 -40 171 -92 221 -145 l39 -40 -177 -86 c-98 -48 -180 -84 -182
-82 -4 3 -33 341 -34 385 0 19 42 8 133 -32z"/>
<path d="M1105 1983 c-44 -9 -173 -69 -225 -104 -30 -20 -80 -60 -110 -89
l-55 -52 24 -16 c40 -28 365 -182 383 -182 12 0 19 11 22 33 7 42 26 313 26
371 0 49 -6 52 -65 39z m36 -184 c-6 -82 -11 -162 -11 -177 -1 -62 -7 -61
-182 23 -90 43 -169 84 -176 90 -25 22 133 140 258 193 83 34 113 42 118 30 2
-5 -1 -76 -7 -159z"/>
<path d="M595 1506 c-26 -61 -39 -218 -26 -314 15 -114 28 -162 47 -162 13 0
304 192 347 228 9 8 17 21 17 27 0 11 -351 255 -366 255 -3 0 -11 -15 -19 -34z
m198 -116 c120 -80 154 -107 144 -116 -21 -19 -297 -204 -309 -207 -14 -3 -25
36 -38 135 -15 108 11 307 38 296 5 -2 79 -50 165 -108z"/>
<path d="M1895 1512 c-22 -15 -102 -70 -177 -121 -76 -51 -138 -99 -138 -107
0 -11 298 -221 352 -248 28 -14 36 0 54 94 27 141 4 401 -37 407 -8 2 -32 -10
-54 -25z m81 -187 c4 -63 1 -115 -10 -174 -9 -47 -18 -86 -20 -88 -2 -2 -321
208 -333 221 -1 1 19 16 45 33 26 17 101 68 167 113 l120 81 13 -48 c7 -26 15
-88 18 -138z"/>
<path d="M1136 1458 c-38 -29 -76 -112 -76 -168 0 -52 35 -134 71 -167 58 -53
168 -69 244 -34 89 40 144 148 124 241 -18 84 -91 163 -134 147 -31 -13 -27
-36 14 -83 66 -75 65 -152 -4 -213 -85 -74 -202 -36 -236 78 -10 32 -8 45 9
84 11 25 32 53 46 62 28 19 33 44 14 63 -17 17 -39 14 -72 -10z m54 -16 c0 -4
-9 -13 -21 -20 -27 -17 -59 -88 -59 -132 0 -45 37 -118 73 -144 41 -30 154
-30 193 0 43 31 65 67 71 112 8 62 -4 105 -43 150 -24 28 -31 42 -21 42 19 0
66 -55 84 -97 37 -91 -18 -205 -119 -247 -66 -28 -142 -13 -197 37 -29 27 -71
113 -71 147 0 36 44 125 71 144 25 17 39 20 39 8z"/>
<path d="M1426 1021 c-9 -13 -39 -420 -33 -436 11 -28 180 31 288 102 68 44
154 125 154 144 0 14 -19 24 -217 119 -173 82 -183 86 -192 71z m180 -96 c85
-41 159 -75 163 -75 5 0 14 -6 20 -13 26 -32 -139 -153 -281 -207 -49 -18 -90
-31 -93 -28 -3 2 2 90 10 194 8 104 15 192 15 197 0 12 5 10 166 -68z"/>
<path d="M1020 977 c-47 -23 -132 -64 -188 -91 -56 -27 -102 -55 -102 -62 0
-14 104 -107 170 -151 56 -37 181 -89 238 -98 41 -7 42 -6 42 22 -2 77 -28
402 -34 412 -12 18 -37 12 -126 -32z m114 -29 c3 -24 8 -92 11 -153 3 -60 8
-129 12 -152 5 -39 3 -43 -17 -43 -31 0 -167 58 -220 93 -57 39 -150 117 -150
127 0 4 42 27 92 51 51 24 126 61 168 81 41 20 80 37 87 38 6 0 14 -19 17 -42z"/>
<path d="M2 1212 c3 -16 71 -43 141 -57 43 -8 32 -27 -38 -65 -90 -47 -109
-69 -102 -118 9 -68 27 -95 72 -105 22 -5 68 -7 102 -5 76 5 87 -10 37 -49
-44 -33 -94 -104 -94 -133 0 -12 12 -42 27 -67 l26 -45 61 5 c34 2 81 12 106
20 60 22 67 7 24 -58 -23 -35 -37 -68 -41 -103 -5 -48 -4 -53 26 -83 29 -29
36 -31 82 -27 31 3 67 16 100 37 57 35 85 40 74 13 -16 -41 -35 -157 -30 -183
8 -35 63 -69 110 -69 29 0 45 10 99 63 35 34 68 61 73 60 4 -2 7 -24 5 -49 -2
-25 -1 -70 3 -101 6 -52 8 -56 48 -74 88 -40 121 -23 182 94 39 75 60 76 68 3
6 -62 31 -116 52 -116 13 0 12 7 -6 41 -11 23 -23 65 -26 94 -5 51 -6 53 -41
59 -20 3 -36 4 -36 3 -6 -22 -76 -143 -93 -159 l-23 -22 -47 20 c-55 23 -64
46 -58 155 4 62 3 67 -20 77 -23 11 -30 6 -95 -58 -38 -39 -76 -70 -84 -70
-24 0 -83 39 -88 58 -6 22 19 143 32 156 17 17 11 43 -15 60 -23 15 -27 15
-85 -23 -75 -49 -112 -58 -145 -37 -57 38 -53 95 13 182 l39 50 -23 29 -23 29
-38 -17 c-47 -20 -111 -37 -140 -37 -15 0 -29 14 -47 45 l-27 45 30 43 c16 24
47 56 68 72 21 16 40 30 42 31 2 2 -2 16 -8 32 l-12 29 -93 -1 c-106 -1 -117
4 -135 65 -11 38 -11 43 9 64 12 12 53 38 91 56 66 32 69 35 64 64 -6 33 -20
45 -55 45 -14 0 -51 11 -83 24 -50 21 -58 22 -55 8z"/>
<path d="M2520 1205 c-14 -7 -53 -19 -87 -26 -61 -12 -63 -14 -62 -43 0 -28 7
-34 59 -60 32 -16 71 -41 86 -57 26 -27 26 -30 14 -74 -15 -55 -30 -60 -147
-58 -79 2 -82 1 -90 -24 -8 -22 -1 -33 59 -93 37 -37 68 -76 68 -87 0 -10 -11
-35 -25 -55 -21 -32 -29 -36 -57 -33 -55 7 -128 27 -134 36 -11 19 -44 8 -58
-18 -13 -26 -12 -31 18 -73 18 -25 41 -65 50 -89 l17 -44 -35 -35 c-35 -35
-35 -35 -78 -23 -24 7 -64 28 -89 47 -54 39 -56 40 -88 15 l-23 -18 21 -41
c12 -23 24 -68 27 -100 6 -56 5 -60 -22 -79 -56 -39 -66 -38 -132 22 -33 31
-64 64 -67 75 -6 18 -8 18 -38 4 l-32 -15 0 -100 c0 -110 0 -111 -69 -130 -37
-10 -40 -9 -67 23 -15 18 -40 59 -56 91 -23 48 -31 57 -48 53 -11 -3 -25 -6
-31 -6 -6 0 -14 -22 -17 -50 -3 -27 -15 -70 -26 -95 -17 -38 -17 -45 -5 -45
19 0 44 58 51 121 7 63 25 63 57 -1 14 -28 38 -66 53 -86 26 -33 31 -35 73
-30 61 6 97 24 104 50 3 11 6 58 6 103 0 45 4 84 8 87 5 3 39 -25 77 -61 64
-61 71 -65 106 -60 21 3 52 15 70 28 l32 22 -6 77 c-3 42 -12 91 -21 107 -22
44 1 50 50 14 46 -33 95 -51 139 -51 37 0 95 53 95 88 0 31 -29 101 -57 139
-28 38 -31 68 -5 58 35 -13 138 -35 169 -35 26 0 37 7 58 37 16 24 25 51 25
76 0 33 -8 46 -63 103 -35 35 -61 68 -58 72 4 4 42 7 86 7 113 1 129 7 143 53
27 91 4 131 -106 183 -28 13 -51 29 -52 34 0 6 27 17 61 24 75 15 109 30 109
48 0 16 -8 16 -40 -2z"/>
</g>
</svg>
