<?xml version="1.0" standalone="no"?>
<!DOCTYPE svg PUBLIC "-//W3C//DTD SVG 20010904//EN"
 "http://www.w3.org/TR/2001/REC-SVG-20010904/DTD/svg10.dtd">
<svg version="1.0" xmlns="http://www.w3.org/2000/svg"
 width="100.000000pt" height="100.000000pt" viewBox="0 0 100.000000 100.000000"
 preserveAspectRatio="xMidYMid meet">
<metadata>
Created by potrace 1.16, written by Peter Selinger 2001-2019
</metadata>
<g transform="translate(0.000000,100.000000) scale(0.100000,-0.100000)"
fill="#000000" stroke="none">
<path d="M60 970 c0 -20 -5 -30 -15 -30 -8 0 -15 7 -15 15 0 8 -7 15 -15 15
-18 0 -20 -16 -2 -23 9 -4 9 -6 0 -6 -18 -1 -16 -31 2 -31 8 0 15 5 15 12 0 9
3 9 12 0 7 -7 44 -12 95 -12 l83 0 1 28 c1 24 2 23 8 -8 7 -38 -5 -56 -26 -38
-10 8 -13 4 -13 -21 0 -21 5 -31 15 -31 8 0 15 7 15 15 0 9 10 15 26 15 14 0
23 4 19 9 -3 5 -1 12 5 16 6 4 10 -5 10 -20 0 -20 -4 -26 -15 -21 -11 4 -15
-1 -15 -19 0 -23 -3 -25 -54 -25 l-53 0 1 -87 c1 -49 5 -95 9 -103 6 -13 -1
-14 -43 -12 -52 4 -60 22 -9 22 l29 0 0 90 0 89 -65 0 c-49 -1 -65 -4 -65 -15
0 -9 11 -14 30 -14 l30 0 0 -75 0 -75 -30 0 c-23 0 -30 -4 -30 -20 0 -11 7
-20 15 -20 8 0 15 7 15 15 0 8 4 15 8 15 5 0 8 -30 8 -67 l-1 -68 40 0 c22 0
43 -4 46 -9 4 -4 16 -3 29 4 20 11 22 18 18 71 -2 32 0 59 4 59 4 0 8 -4 8 -9
0 -5 12 -12 28 -14 l27 -4 -26 -2 c-23 -1 -26 -5 -26 -38 -1 -77 -2 -83 -23
-83 -26 0 -33 -32 -26 -114 3 -37 1 -68 -4 -71 -6 -4 -10 28 -10 79 l0 86 -31
0 c-19 0 -28 4 -23 11 3 6 17 9 30 6 13 -2 24 0 24 6 0 6 -19 7 -50 4 -45 -5
-50 -4 -50 13 0 11 -7 20 -15 20 -18 0 -20 -26 -2 -33 9 -4 9 -6 0 -6 -27 -2
-11 -21 17 -21 l30 0 0 -80 0 -80 -30 0 c-20 0 -30 -5 -30 -15 0 -12 19 -15
110 -15 91 0 110 3 110 15 0 10 -10 15 -30 15 l-30 0 0 80 0 80 45 0 c25 0 45
-5 45 -11 0 -5 -4 -8 -9 -5 -5 4 -20 2 -33 -3 -18 -8 -8 -10 45 -10 47 -1 66
-4 61 -12 -3 -6 0 -15 7 -20 12 -8 12 -11 -1 -19 -11 -7 -16 -5 -18 8 -7 33
-22 36 -22 4 0 -22 -5 -32 -15 -32 -8 0 -15 -7 -15 -15 0 -10 10 -15 30 -15
20 0 30 5 30 15 0 8 7 15 15 15 8 0 15 -7 15 -15 0 -8 -7 -15 -15 -15 -8 0
-15 -5 -15 -11 0 -6 -7 -9 -15 -5 -8 3 -15 1 -15 -4 0 -6 14 -10 30 -10 21 0
30 -5 30 -16 0 -10 6 -14 15 -10 9 3 15 0 15 -10 0 -11 -4 -12 -19 -4 -32 17
-43 12 -38 -17 2 -16 2 -22 0 -15 -6 18 -63 16 -63 -3 0 -18 16 -20 23 -2 3 6
6 2 6 -10 1 -14 -5 -23 -14 -23 -8 0 -15 5 -15 10 0 6 -27 10 -60 10 -51 0
-60 3 -60 18 0 15 -6 18 -30 14 l-30 -4 43 -29 c24 -16 49 -26 60 -23 14 4 17
-1 17 -35 0 -39 2 -41 30 -41 28 0 30 3 30 35 0 35 1 35 43 35 33 -1 38 -3 24
-11 -9 -5 -22 -7 -27 -4 -6 3 -10 1 -10 -4 0 -6 14 -11 30 -11 29 0 30 2 30
45 l0 45 50 0 c49 0 50 1 50 30 0 27 3 30 30 30 29 0 30 1 30 49 0 36 4 51 15
54 11 4 10 4 -2 3 -10 -1 -19 -11 -21 -24 -5 -32 -22 -27 -22 7 0 16 -6 32
-12 34 -7 3 13 6 45 6 44 1 57 4 57 16 0 18 -16 20 -23 3 -3 -7 -6 -1 -6 15
-1 17 -6 27 -16 27 -8 0 -15 7 -15 15 0 10 10 15 30 15 27 0 30 3 30 30 0 27
-3 30 -33 30 -32 0 -33 1 -29 35 3 21 10 35 18 35 9 0 14 11 14 30 0 27 -3 30
-30 30 -20 0 -30 5 -30 15 0 8 7 15 15 15 10 0 15 10 15 30 0 29 -2 30 -45 30
-25 0 -45 -5 -45 -11 0 -6 -9 -8 -20 -4 -11 4 -20 2 -20 -4 0 -6 9 -11 20 -11
16 0 20 -7 20 -30 0 -16 4 -30 10 -30 5 0 7 7 4 15 -4 8 -1 15 5 15 7 0 11
-39 11 -122 0 -67 2 -119 4 -117 3 2 6 45 8 94 l4 90 34 1 c28 2 29 1 7 -3
l-28 -4 3 -95 3 -94 -57 0 -57 0 6 110 c4 82 2 110 -7 110 -7 0 -10 -7 -6 -15
3 -8 1 -15 -4 -15 -6 0 -10 14 -10 30 0 21 -5 30 -16 30 -10 0 -14 -6 -10 -15
4 -12 -4 -15 -44 -15 -28 0 -50 -4 -50 -8 0 -5 13 -8 30 -7 17 1 30 -2 30 -7
0 -4 -26 -8 -57 -8 -55 0 -68 -10 -19 -15 37 -4 66 -15 66 -26 0 -5 -4 -9 -10
-9 -5 0 -10 5 -10 10 0 6 -20 10 -45 10 l-45 0 0 75 0 75 30 0 c21 0 30 -5 30
-16 0 -14 8 -16 43 -11 23 2 36 3 29 0 -6 -3 -12 -16 -12 -30 0 -21 2 -24 15
-13 8 7 15 19 15 26 0 8 7 14 15 14 17 0 18 2 6 53 -5 21 -5 37 0 37 5 0 9 23
9 50 0 49 -1 50 -30 50 -16 0 -30 -5 -30 -10 0 -6 8 -10 18 -8 13 2 18 -5 20
-34 3 -33 1 -37 -14 -31 -11 4 -13 8 -6 11 7 2 12 12 12 23 0 14 -7 19 -30 19
-29 0 -30 2 -30 45 0 25 -4 45 -10 45 -5 0 -7 -7 -4 -15 5 -11 -1 -15 -20 -15
-15 0 -26 -6 -26 -14 0 -8 -13 -16 -30 -18 -28 -4 -30 -3 -30 29 0 26 -4 33
-20 33 -16 0 -20 -7 -20 -36 0 -19 -4 -33 -8 -30 -5 3 -8 19 -7 36 1 16 -2 30
-7 30 -4 0 -8 -13 -8 -30z m250 -160 c0 -27 -3 -30 -30 -30 -20 0 -30 5 -30
15 0 8 7 15 16 15 10 0 14 6 10 15 -4 10 1 15 14 15 16 0 20 -7 20 -30z m-202
-153 c12 -3 11 -5 -5 -6 -22 -1 -23 2 -21 72 l2 72 3 -67 c3 -53 7 -68 21 -71z
m371 86 c0 -11 -3 -13 -6 -5 -2 6 -11 12 -18 12 -7 0 -16 -6 -18 -12 -3 -8 -6
-6 -6 5 -1 12 7 17 24 17 17 0 25 -5 24 -17z m-159 -83 c8 -5 11 -10 5 -10 -5
0 -17 5 -25 10 -8 5 -10 10 -5 10 6 0 17 -5 25 -10z m20 -110 l0 -80 -30 0
c-20 0 -30 5 -30 15 0 10 -10 15 -30 15 -27 0 -30 3 -30 30 0 20 5 30 15 30 8
0 15 7 15 15 0 10 10 15 30 15 21 0 30 5 30 16 0 14 -3 14 -15 4 -12 -10 -15
-10 -15 4 0 11 9 16 30 16 l30 0 0 -80z m-210 25 c0 -8 5 -15 11 -15 6 0 9 7
5 15 -3 8 -1 15 4 15 6 0 10 -20 10 -45 l0 -45 -50 0 -50 0 0 45 c0 45 0 45
35 45 24 0 35 -5 35 -15z m390 -51 c0 -2 -7 -4 -15 -4 -8 0 -15 4 -15 10 0 5
7 7 15 4 8 -4 15 -8 15 -10z m25 7 c3 -5 1 -12 -5 -16 -5 -3 -10 1 -10 9 0 18
6 21 15 7z m-320 -61 c-3 -5 -11 -10 -16 -10 -6 0 -7 5 -4 10 3 6 11 10 16 10
6 0 7 -4 4 -10z m119 -23 c7 -7 11 -18 8 -25 -2 -6 1 -12 7 -12 6 0 11 6 11
14 0 12 16 18 83 32 9 2 17 -1 17 -6 0 -6 -7 -10 -15 -10 -10 0 -15 -10 -15
-30 0 -28 -3 -30 -35 -30 -20 0 -35 5 -35 12 0 6 -2 9 -5 6 -12 -12 9 -39 26
-35 15 4 19 -1 19 -24 0 -22 -5 -29 -20 -29 -11 0 -20 7 -20 15 0 8 -7 15 -15
15 -11 0 -15 12 -15 50 0 38 -4 50 -15 50 -8 0 -15 5 -15 10 0 14 19 12 34 -3z
m171 3 c3 -5 -1 -10 -10 -10 -9 0 -13 5 -10 10 3 6 8 10 10 10 2 0 7 -4 10
-10z m-215 -4 c0 -2 -7 -7 -16 -10 -8 -3 -12 -2 -9 4 6 10 25 14 25 6z m-193
-166 c9 0 14 -3 10 -6 -3 -3 -14 -3 -24 0 -16 5 -17 14 -13 83 l5 78 3 -77 c2
-64 6 -78 19 -78z m343 72 c0 -13 -12 -22 -22 -16 -10 6 -1 24 13 24 5 0 9 -4
9 -8z m-80 -51 c0 -5 8 -12 18 -14 9 -3 2 -5 -15 -6 -23 -1 -33 4 -33 14 0 8
7 15 15 15 8 0 15 -4 15 -9z m110 -1 c-8 -5 -23 -10 -32 -10 -11 0 -18 -8 -18
-20 0 -11 -4 -20 -10 -20 -5 0 -10 14 -10 30 0 29 2 30 43 30 31 0 38 -3 27
-10z m-250 -160 c0 -16 -4 -30 -9 -30 -4 0 -8 13 -7 30 1 39 16 39 16 0z"/>
<path d="M265 570 c-3 -5 -1 -10 4 -10 6 0 11 5 11 10 0 6 -2 10 -4 10 -3 0
-8 -4 -11 -10z"/>
<path d="M235 531 c-3 -5 -1 -12 5 -16 5 -3 10 1 10 9 0 18 -6 21 -15 7z"/>
<path d="M295 490 c3 -5 8 -10 11 -10 2 0 4 5 4 10 0 6 -5 10 -11 10 -5 0 -7
-4 -4 -10z"/>
<path d="M75 570 c-3 -5 -1 -10 4 -10 6 0 11 5 11 10 0 6 -2 10 -4 10 -3 0 -8
-4 -11 -10z"/>
<path d="M410 419 c0 -11 4 -18 10 -14 5 3 7 12 3 20 -7 21 -13 19 -13 -6z"/>
<path d="M190 990 c0 -5 7 -7 15 -4 8 4 15 8 15 10 0 2 -7 4 -15 4 -8 0 -15
-4 -15 -10z"/>
<path d="M752 533 l-2 -473 30 0 30 0 0 470 c0 414 -2 470 -15 470 -14 0 -15
-55 -15 -460 1 -253 -3 -461 -7 -462 -4 -2 -10 206 -13 462 l-5 465 -3 -472z"/>
<path d="M145 960 c4 -6 11 -8 16 -5 14 9 11 15 -7 15 -8 0 -12 -5 -9 -10z"/>
<path d="M318 963 c7 -3 16 -2 19 1 4 3 -2 6 -13 5 -11 0 -14 -3 -6 -6z"/>
<path d="M361 924 c0 -11 3 -14 6 -6 3 7 2 16 -1 19 -3 4 -6 -2 -5 -13z"/>
<path d="M405 900 c27 -12 35 -12 35 0 0 6 -12 10 -27 9 -25 0 -26 -1 -8 -9z"/>
<path d="M60 889 c0 -7 -11 -8 -30 -4 -19 4 -30 3 -30 -4 0 -6 19 -11 45 -11
33 0 45 4 45 15 0 8 -7 15 -15 15 -8 0 -15 -5 -15 -11z"/>
<path d="M130 870 c0 -20 5 -30 15 -30 9 0 15 9 15 24 0 13 -7 26 -15 30 -11
4 -15 -2 -15 -24z"/>
<path d="M370 860 c0 -5 11 -10 25 -10 18 0 25 -5 25 -20 0 -11 5 -20 10 -20
6 0 10 14 10 30 0 28 -3 30 -35 30 -19 0 -35 -4 -35 -10z"/>
<path d="M462 850 c0 -14 2 -19 5 -12 2 6 2 18 0 25 -3 6 -5 1 -5 -13z"/>
<path d="M8 833 c7 -3 16 -2 19 1 4 3 -2 6 -13 5 -11 0 -14 -3 -6 -6z"/>
<path d="M73 833 c9 -2 25 -2 35 0 9 3 1 5 -18 5 -19 0 -27 -2 -17 -5z"/>
<path d="M340 810 c0 -28 3 -30 35 -30 32 0 35 2 35 30 0 28 -3 30 -35 30 -32
0 -35 -2 -35 -30z m50 -6 c0 -2 -9 -4 -21 -4 -11 0 -18 4 -14 10 5 8 35 3 35
-6z"/>
<path d="M468 803 c6 -2 18 -2 25 0 6 3 1 5 -13 5 -14 0 -19 -2 -12 -5z"/>
<path d="M521 764 c0 -11 3 -14 6 -6 3 7 2 16 -1 19 -3 4 -6 -2 -5 -13z"/>
<path d="M12 754 c11 -3 18 -19 21 -42 l4 -37 -1 40 c-1 32 -5 40 -21 42 -15
1 -15 0 -3 -3z"/>
<path d="M250 730 c0 -5 5 -10 11 -10 5 0 7 5 4 10 -3 6 -8 10 -11 10 -2 0 -4
-4 -4 -10z"/>
<path d="M365 720 c-3 -6 1 -7 9 -4 18 7 21 14 7 14 -6 0 -13 -4 -16 -10z"/>
<path d="M543 660 c-1 -17 2 -30 7 -30 6 0 10 14 10 30 0 39 -14 39 -17 0z"/>
<path d="M401 661 c-8 -5 -9 -11 -3 -15 5 -3 12 1 16 9 6 17 6 18 -13 6z"/>
<path d="M0 650 c0 -5 6 -10 14 -10 8 0 18 5 21 10 3 6 -3 10 -14 10 -12 0
-21 -4 -21 -10z"/>
<path d="M393 610 c3 -11 2 -20 -1 -20 -12 0 -5 -91 7 -103 8 -8 11 9 11 66 0
50 -4 77 -11 77 -6 0 -9 -9 -6 -20z"/>
<path d="M522 600 c0 -14 2 -19 5 -12 2 6 2 18 0 25 -3 6 -5 1 -5 -13z"/>
<path d="M10 570 c-13 -8 -12 -10 3 -10 9 0 17 5 17 10 0 12 -1 12 -20 0z"/>
<path d="M581 544 c0 -11 3 -14 6 -6 3 7 2 16 -1 19 -3 4 -6 -2 -5 -13z"/>
<path d="M545 460 c3 -5 8 -10 11 -10 2 0 4 5 4 10 0 6 -5 10 -11 10 -5 0 -7
-4 -4 -10z"/>
<path d="M7 413 c7 -2 19 -2 26 0 6 3 1 5 -13 5 -14 0 -19 -2 -13 -5z"/>
<path d="M31 354 c0 -11 3 -14 6 -6 3 7 2 16 -1 19 -3 4 -6 -2 -5 -13z"/>
<path d="M521 324 c0 -11 3 -14 6 -6 3 7 2 16 -1 19 -3 4 -6 -2 -5 -13z"/>
<path d="M0 300 c0 -5 6 -10 14 -10 8 0 18 5 21 10 3 6 -3 10 -14 10 -12 0
-21 -4 -21 -10z"/>
<path d="M186 301 c5 -5 21 -13 37 -16 21 -6 27 -4 27 9 0 12 -10 16 -37 16
-23 0 -33 -4 -27 -9z"/>
<path d="M248 248 c6 -6 18 -8 28 -6 14 3 12 5 -9 10 -19 3 -25 2 -19 -4z"/>
<path d="M165 230 c-3 -5 1 -10 9 -10 9 0 16 5 16 10 0 6 -4 10 -9 10 -6 0
-13 -4 -16 -10z"/>
<path d="M30 214 c0 -9 5 -14 12 -12 18 6 21 28 4 28 -9 0 -16 -7 -16 -16z"/>
<path d="M470 205 c22 -13 23 -14 5 -14 -11 0 -39 4 -62 8 -24 5 -43 4 -43 0
0 -5 16 -9 35 -9 32 0 35 -2 35 -30 0 -27 3 -30 30 -30 29 0 30 2 30 45 0 43
-2 45 -27 45 l-28 -1 25 -14z"/>
<path d="M0 181 c0 -5 6 -12 13 -14 10 -4 10 -6 0 -6 -17 -1 -17 -31 -1 -31 9
0 9 -3 0 -12 -16 -16 -15 -28 3 -28 10 0 15 11 15 35 0 24 5 35 15 35 10 0 15
-11 15 -35 0 -33 2 -35 33 -36 17 -1 24 -3 15 -6 -24 -6 -23 -23 2 -23 17 0
20 7 20 50 0 43 -3 50 -20 50 -16 0 -20 -7 -20 -31 0 -16 -4 -28 -9 -25 -10 6
-8 57 3 74 5 9 -6 12 -38 12 -25 0 -46 -4 -46 -9z"/>
<path d="M513 160 c3 -39 17 -39 17 0 0 17 -4 30 -10 30 -5 0 -8 -13 -7 -30z"/>
<path d="M145 140 c-4 -6 3 -10 14 -10 25 0 27 6 6 13 -8 4 -17 2 -20 -3z"/>
<path d="M146 105 c-3 -8 -1 -15 4 -15 6 0 10 7 10 15 0 8 -2 15 -4 15 -2 0
-6 -7 -10 -15z"/>
<path d="M440 98 c0 -4 14 -8 30 -8 17 0 30 4 30 9 0 5 -13 9 -30 9 -16 -1
-30 -5 -30 -10z"/>
<path d="M60 70 c0 -5 5 -10 11 -10 5 0 7 5 4 10 -3 6 -8 10 -11 10 -2 0 -4
-4 -4 -10z"/>
<path d="M8 63 c7 -3 16 -2 19 1 4 3 -2 6 -13 5 -11 0 -14 -3 -6 -6z"/>
<path d="M198 63 c7 -3 16 -2 19 1 4 3 -2 6 -13 5 -11 0 -14 -3 -6 -6z"/>
</g>
</svg>
