<?xml version="1.0" standalone="no"?>
<!DOCTYPE svg PUBLIC "-//W3C//DTD SVG 20010904//EN"
 "http://www.w3.org/TR/2001/REC-SVG-20010904/DTD/svg10.dtd">
<svg version="1.0" xmlns="http://www.w3.org/2000/svg"
 width="192.000000pt" height="192.000000pt" viewBox="0 0 192.000000 192.000000"
 preserveAspectRatio="xMidYMid meet">
<metadata>
Created by potrace 1.16, written by Peter Selinger 2001-2019
</metadata>
<g transform="translate(0.000000,192.000000) scale(0.100000,-0.100000)"
fill="#000000" stroke="none">
<path d="M677 1913 c-25 -6 -37 -43 -37 -116 -1 -60 -1 -61 -18 -42 -62 72
-114 90 -174 59 -30 -16 -31 -17 -25 -78 3 -33 9 -69 13 -80 6 -15 0 -15 -44
8 -66 33 -102 33 -136 0 -33 -34 -33 -66 -1 -130 14 -27 25 -49 25 -50 0 0
-37 2 -83 4 -82 4 -83 4 -95 -22 -24 -53 -15 -92 31 -140 l42 -44 -72 -4 c-40
-2 -78 -9 -84 -15 -7 -7 -14 -34 -17 -61 -5 -57 12 -80 88 -115 40 -18 42 -21
20 -24 -58 -8 -110 -26 -110 -39 0 -17 -2 -17 50 1 23 8 55 15 71 15 24 0 29
4 29 25 0 21 -9 29 -42 44 -66 29 -91 57 -84 94 9 46 20 52 98 53 98 1 105 17
38 83 -53 53 -57 65 -38 106 9 21 18 25 55 25 24 0 60 -7 80 -15 20 -8 37 -14
37 -13 1 2 7 10 14 19 10 14 8 25 -17 65 -44 73 -46 87 -15 117 15 15 31 27
36 27 13 0 90 -40 110 -57 13 -12 20 -12 36 -2 18 11 18 15 7 43 -7 17 -16 52
-20 78 -7 45 -6 47 24 63 41 21 58 15 113 -41 38 -37 50 -44 64 -36 14 8 17
21 15 64 -3 69 10 104 44 112 43 11 61 -1 94 -64 26 -48 37 -60 57 -60 20 0
24 5 24 30 0 17 7 47 15 67 17 41 19 53 5 53 -15 0 -31 -38 -39 -89 l-7 -46
-27 51 c-14 29 -33 59 -42 68 -16 15 -67 20 -108 9z"/>
<path d="M1010 1916 c0 -2 7 -23 15 -46 8 -23 15 -55 15 -71 0 -24 4 -29 25
-29 21 0 29 9 44 43 29 65 57 90 94 83 46 -9 52 -20 53 -98 2 -99 18 -107 85
-39 27 28 56 51 64 51 23 0 63 -21 69 -36 7 -17 -10 -107 -24 -134 -8 -15 -6
-21 11 -30 16 -9 26 -8 47 7 15 10 45 26 66 36 l39 18 29 -28 c15 -15 28 -31
28 -35 0 -12 -32 -76 -53 -109 -14 -22 -15 -28 -3 -44 12 -17 15 -18 55 -2 62
25 107 22 127 -8 23 -35 12 -65 -41 -114 -39 -36 -44 -44 -35 -62 9 -17 18
-19 53 -15 23 4 58 2 77 -2 29 -7 36 -13 43 -45 11 -46 4 -56 -68 -93 -43 -21
-55 -32 -55 -51 0 -18 5 -23 25 -23 14 0 47 -9 75 -19 41 -16 50 -17 50 -5 0
16 -36 32 -95 43 l-40 6 40 19 c22 10 53 28 69 39 27 19 28 23 23 75 -3 30
-10 59 -16 65 -5 5 -43 10 -84 11 l-75 1 44 47 c36 39 44 54 44 85 0 21 -7 49
-16 62 -15 21 -22 23 -83 19 -36 -3 -75 -9 -85 -13 -20 -8 -20 -8 0 21 29 42
44 81 44 113 0 33 -46 81 -78 81 -25 0 -88 -27 -116 -50 -18 -14 -19 -13 -13
10 13 55 19 119 13 137 -8 25 -47 43 -91 43 -27 0 -43 -9 -78 -45 l-45 -45 -4
75 c-2 41 -9 80 -15 86 -7 7 -34 14 -61 17 -57 5 -80 -12 -115 -88 -18 -40
-21 -42 -24 -20 -8 58 -26 110 -39 110 -8 0 -14 -2 -14 -4z"/>
<path d="M933 1713 c21 -5 23 -43 2 -43 -11 0 -15 -12 -15 -50 0 -43 -3 -50
-20 -50 -17 0 -20 7 -20 51 0 44 -2 50 -17 45 -15 -6 -32 8 -33 27 0 4 15 8
33 8 25 2 27 3 7 6 -14 1 -47 -3 -75 -11 -35 -10 -42 -14 -24 -15 35 -1 62
-34 61 -73 -1 -38 -24 -58 -64 -58 -59 0 -89 69 -47 111 l21 21 -23 -7 c-12
-4 -38 -14 -56 -22 l-35 -14 26 -20 c14 -11 26 -29 26 -39 0 -11 10 -24 21
-31 19 -10 20 -12 5 -27 -14 -14 -17 -14 -36 3 -23 21 -39 13 -20 -11 12 -13
11 -17 -1 -25 -23 -14 -26 -12 -58 43 -24 42 -27 56 -18 68 8 10 3 9 -18 -4
-55 -35 -74 -51 -74 -61 0 -5 20 -32 45 -58 l46 -48 52 33 c120 80 207 102
366 96 129 -6 184 -22 291 -87 l64 -40 50 50 50 50 -40 34 c-30 26 -42 31 -47
21 -4 -7 -21 -19 -36 -25 -16 -7 -35 -24 -41 -37 -14 -31 -48 -29 -42 1 2 11
4 45 5 75 1 51 -1 56 -28 68 -38 16 -45 15 -18 -4 26 -18 28 -46 7 -68 -10
-10 -13 -24 -9 -41 10 -42 -28 -28 -41 15 -8 24 -8 24 -16 3 -6 -15 -14 -20
-28 -16 -12 3 -21 6 -21 7 0 0 9 30 20 65 11 36 18 66 16 68 -1 2 -25 6 -52 9
-27 3 -44 2 -38 -3 11 -8 44 -104 44 -129 0 -7 -8 -10 -20 -7 -11 3 -20 9 -20
14 0 5 -11 9 -25 9 -14 0 -25 -4 -25 -10 0 -5 -9 -10 -21 -10 -24 0 -21 16 17
91 l23 47 -22 6 c-12 3 -33 5 -47 5 -17 -1 -19 -3 -7 -6z m167 -37 c0 -3 -4
-8 -10 -11 -5 -3 -10 -1 -10 4 0 6 5 11 10 11 6 0 10 -2 10 -4z m-514 -204
c-4 -3 -21 8 -38 25 -27 27 -30 34 -18 48 11 14 16 11 37 -25 14 -23 22 -44
19 -48z m810 67 c3 -6 -7 -25 -23 -41 -26 -26 -33 -28 -52 -19 -11 7 -21 15
-21 19 1 34 79 68 96 41z"/>
<path d="M1148 1683 c7 -3 16 -2 19 1 4 3 -2 6 -13 5 -11 0 -14 -3 -6 -6z"/>
<path d="M752 1638 c-16 -16 -15 -33 4 -48 22 -19 54 12 38 37 -14 22 -27 26
-42 11z"/>
<path d="M1155 1630 c3 -5 10 -10 16 -10 5 0 9 5 9 10 0 6 -7 10 -16 10 -8 0
-12 -4 -9 -10z"/>
<path d="M1286 1618 c9 -32 12 -34 30 -17 13 14 12 17 -11 27 -25 12 -26 11
-19 -10z"/>
<path d="M595 1620 c-3 -6 1 -7 9 -4 18 7 21 14 7 14 -6 0 -13 -4 -16 -10z"/>
<path d="M620 1579 c0 -5 5 -7 10 -4 6 3 10 8 10 11 0 2 -4 4 -10 4 -5 0 -10
-5 -10 -11z"/>
<path d="M1493 1493 c9 -2 23 -2 30 0 6 3 -1 5 -18 5 -16 0 -22 -2 -12 -5z"/>
<path d="M790 1467 c-78 -28 -161 -80 -213 -134 l-37 -39 151 -73 c111 -54
154 -70 159 -61 4 7 11 56 14 109 4 53 9 124 12 159 7 73 9 72 -86 39z m65
-34 c-2 -16 -7 -76 -11 -135 -4 -74 -10 -108 -18 -108 -7 0 -63 25 -125 56
l-114 55 24 26 c32 34 116 88 176 112 66 27 73 26 68 -6z"/>
<path d="M1046 1389 c13 -203 17 -224 40 -224 21 0 294 126 293 135 0 3 -28
29 -61 58 -66 57 -180 117 -241 128 l-38 6 7 -103z m122 36 c39 -20 92 -55
118 -78 l46 -42 -116 -58 c-65 -31 -121 -57 -126 -57 -4 0 -11 44 -14 98 -4
53 -9 114 -11 135 -7 48 9 49 103 2z"/>
<path d="M355 1408 c-57 -76 -101 -168 -126 -267 -32 -124 -22 -362 14 -361 7
0 37 9 67 19 l55 18 -3 119 c-5 180 33 295 137 413 l22 25 -48 48 c-26 26 -53
48 -59 48 -7 0 -33 -28 -59 -62z m118 -42 c-4 -6 -21 -31 -38 -56 -72 -104
-96 -193 -94 -355 l1 -120 -43 -12 c-29 -9 -46 -10 -53 -3 -6 6 -12 57 -14
114 -6 162 42 319 139 449 l43 57 32 -31 c18 -18 30 -37 27 -43z"/>
<path d="M1452 1427 c-23 -23 -42 -46 -42 -49 0 -4 21 -36 46 -72 25 -36 57
-94 72 -128 24 -58 26 -76 28 -213 l1 -149 62 -20 c42 -13 65 -16 72 -9 28 28
28 251 -1 368 -26 106 -141 305 -181 313 -8 1 -33 -17 -57 -41z m109 -59 c95
-139 133 -271 127 -437 -2 -60 -6 -112 -9 -116 -4 -3 -27 -1 -52 5 l-45 12 -4
151 c-6 172 -20 222 -96 334 l-41 60 32 31 c17 17 34 29 39 26 4 -3 27 -32 49
-66z"/>
<path d="M1365 1350 c10 -11 20 -20 23 -20 3 0 -3 9 -13 20 -10 11 -20 20 -23
20 -3 0 3 -9 13 -20z"/>
<path d="M439 1093 c-7 -32 -13 -92 -13 -133 -1 -79 19 -190 34 -190 11 0 227
145 254 170 10 10 16 22 13 27 -10 15 -256 183 -269 183 -3 0 -12 -26 -19 -57z
m171 -73 c44 -30 79 -58 77 -62 -4 -13 -209 -148 -217 -143 -3 2 -12 35 -19
73 -11 64 -5 153 14 210 6 16 17 10 145 -78z"/>
<path d="M1317 1062 c-72 -50 -126 -93 -125 -101 2 -7 32 -34 68 -59 110 -77
193 -132 201 -132 14 0 42 180 35 233 -13 91 -27 147 -39 146 -7 0 -69 -39
-140 -87z m151 -28 c10 -54 10 -83 1 -134 -17 -97 -17 -97 -85 -50 -32 23 -80
55 -107 73 -26 17 -46 35 -44 40 4 13 201 146 212 143 6 -1 16 -34 23 -72z"/>
<path d="M898 1103 c7 -3 16 -2 19 1 4 3 -2 6 -13 5 -11 0 -14 -3 -6 -6z"/>
<path d="M903 1045 c-36 -37 -43 -51 -43 -84 0 -59 43 -106 97 -106 53 0 90
26 104 74 14 48 -2 86 -48 116 -18 11 -32 26 -33 33 0 25 -36 10 -77 -33z
m105 -31 c40 -32 43 -74 7 -109 -35 -35 -76 -33 -109 6 -14 17 -26 40 -26 51
0 24 71 97 85 86 6 -4 25 -19 43 -34z"/>
<path d="M1090 1076 c0 -2 7 -9 15 -16 13 -11 14 -10 9 4 -5 14 -24 23 -24 12z"/>
<path d="M1129 913 c-1 -10 -1 -21 0 -25 0 -4 -5 -5 -13 -2 -8 3 -16 -3 -19
-15 -3 -14 1 -22 15 -27 11 -3 22 -3 25 0 4 3 -1 6 -10 6 -9 0 -17 4 -17 9 0
5 9 7 20 4 20 -5 28 11 11 21 -5 3 -7 15 -4 26 3 11 3 20 -1 20 -3 0 -7 -8 -7
-17z"/>
<path d="M0 900 c0 -13 40 -29 95 -39 l40 -7 -46 -23 c-26 -12 -57 -33 -69
-46 -20 -21 -22 -31 -16 -72 3 -26 11 -52 16 -57 6 -6 44 -12 84 -14 l73 -4
-43 -44 c-37 -36 -44 -50 -44 -82 0 -63 21 -82 90 -82 32 0 70 4 83 9 l25 10
-29 -57 c-36 -71 -36 -98 -2 -134 35 -36 73 -36 139 1 l52 28 -9 -31 c-5 -17
-9 -56 -9 -87 0 -54 1 -56 35 -72 53 -25 68 -22 123 28 l49 44 5 -70 c3 -39
10 -75 15 -80 5 -5 32 -12 60 -15 44 -6 53 -4 73 17 12 13 31 44 43 69 l20 45
8 -40 c11 -60 27 -95 43 -95 12 0 11 9 -5 50 -10 28 -19 61 -19 75 0 20 -5 25
-25 25 -21 0 -29 -9 -44 -42 -29 -67 -57 -91 -94 -83 -47 10 -52 19 -53 97 -2
98 -15 103 -87 33 l-56 -55 -37 17 -36 18 5 59 c3 32 10 63 16 69 17 17 13 35
-8 47 -16 8 -27 5 -54 -13 -19 -13 -49 -30 -67 -37 -30 -12 -33 -11 -61 16
l-30 30 17 40 c9 21 25 51 36 66 15 22 17 32 8 48 -13 24 -9 24 -53 5 -55 -23
-113 -20 -131 7 -26 36 -19 56 34 108 42 41 49 53 41 68 -8 16 -19 18 -63 14
-72 -5 -104 8 -112 49 -8 40 15 68 80 99 35 16 44 25 44 45 0 20 -5 25 -24 25
-13 0 -43 7 -66 15 -50 18 -60 18 -60 5z"/>
<path d="M1870 895 c-19 -7 -50 -14 -67 -14 -28 -1 -33 -5 -33 -26 0 -21 9
-29 43 -44 66 -29 90 -57 82 -94 -10 -47 -19 -52 -97 -53 -96 -2 -102 -15 -38
-82 53 -55 59 -74 34 -110 -18 -26 -67 -29 -129 -7 -35 13 -41 12 -56 -3 -15
-16 -14 -19 7 -48 13 -16 31 -47 39 -69 16 -38 16 -38 -13 -67 -29 -29 -29
-29 -67 -13 -22 8 -53 26 -69 39 -29 22 -32 22 -49 6 -16 -16 -16 -20 -2 -53
23 -55 20 -113 -7 -131 -36 -26 -56 -19 -108 35 -65 68 -82 60 -84 -39 -1 -78
-6 -87 -53 -97 -37 -8 -65 16 -94 82 -15 34 -23 43 -44 43 -21 0 -25 -5 -25
-29 0 -16 -7 -48 -15 -71 -18 -52 -18 -50 -1 -50 13 0 31 52 39 110 3 22 6 20
24 -20 11 -25 31 -56 43 -69 20 -21 29 -23 73 -17 28 3 55 10 61 16 6 6 12 44
14 85 l4 75 44 -45 c36 -38 49 -45 81 -45 64 0 83 21 83 90 0 32 -4 70 -9 84
l-10 24 56 -29 c70 -37 102 -37 136 -1 35 36 34 67 -2 135 l-29 55 31 -9 c18
-5 55 -9 84 -9 61 0 83 21 83 81 0 28 -9 46 -40 81 l-39 45 70 5 c39 3 75 10
80 15 5 5 12 32 15 60 6 44 4 53 -17 73 -13 12 -44 32 -69 43 -40 18 -42 21
-20 24 58 8 110 26 110 39 0 17 -4 17 -50 -1z"/>
<path d="M1066 753 c-6 -22 -28 -314 -24 -319 2 -1 23 1 46 7 72 16 170 70
234 129 l60 55 -133 66 c-166 82 -176 85 -183 62z m257 -132 c20 -20 -155
-136 -237 -157 -26 -6 -27 -5 -22 27 3 19 8 79 11 134 4 55 9 103 11 107 4 7
220 -94 237 -111z"/>
<path d="M685 693 c-71 -36 -132 -67 -134 -69 -8 -8 63 -74 115 -109 54 -36
126 -68 183 -80 l34 -7 -7 123 c-10 189 -14 209 -40 208 -11 0 -79 -30 -151
-66z m169 -127 l7 -108 -28 7 c-51 12 -147 65 -197 107 l-49 42 124 61 124 62
6 -31 c4 -17 10 -80 13 -140z"/>
<path d="M316 721 c-28 -9 -51 -22 -53 -28 -3 -7 5 -33 17 -58 18 -39 23 -44
33 -33 21 26 87 60 106 55 16 -4 16 -1 -3 39 -23 48 -30 50 -100 25z m67 -23
c6 -19 -65 -59 -80 -46 -22 18 -14 35 20 46 44 14 55 14 60 0z"/>
<path d="M1502 695 c-17 -35 -19 -45 -7 -45 7 0 30 -9 49 -21 l36 -21 11 26
c9 20 17 24 35 20 17 -4 24 0 29 16 4 12 3 25 -2 30 -9 9 -101 40 -118 40 -6
0 -21 -20 -33 -45z m98 0 c30 -11 31 -14 11 -14 -13 -1 -29 -8 -36 -17 -10
-14 -15 -14 -33 -3 -16 10 -18 17 -11 31 11 21 21 21 69 3z"/>
<path d="M389 604 c-30 -18 -58 -35 -64 -38 -6 -2 -5 -9 3 -17 7 -8 12 -9 12
-2 0 16 99 75 112 67 5 -4 7 -20 4 -36 -5 -27 -4 -29 10 -18 12 11 18 11 30
-2 14 -14 10 -20 -40 -61 l-56 -45 62 -56 c34 -31 64 -56 67 -56 3 1 22 25 41
55 19 30 37 55 41 55 5 0 24 -10 44 -21 52 -31 38 -54 -20 -34 -19 6 -19 6 -1
-9 24 -20 11 -39 -23 -32 l-26 6 27 -21 c22 -16 26 -24 18 -39 -10 -18 -10
-18 86 -57 7 -2 9 7 6 27 -5 32 -16 39 -26 15 -7 -18 -36 -20 -36 -3 0 17 42
118 49 118 3 -1 22 -9 41 -18 39 -19 50 -51 25 -72 -8 -7 -15 -25 -15 -40 0
-16 -6 -31 -12 -33 -8 -4 -7 -6 4 -6 9 -1 24 -4 32 -7 12 -5 15 -2 10 11 -4 9
-1 41 6 71 10 40 18 54 31 54 10 0 21 -9 24 -20 7 -23 25 -27 25 -5 0 8 9 15
21 15 15 0 19 -5 16 -17 -3 -10 -8 -40 -12 -67 -7 -55 1 -66 50 -66 37 0 56
12 47 27 -6 9 -16 8 -40 -4 -18 -9 -35 -13 -39 -9 -10 10 29 128 45 133 19 8
36 -13 57 -71 15 -40 15 -50 4 -57 -10 -6 -2 -9 22 -9 l37 0 -12 52 c-8 35
-17 52 -26 50 -12 -3 -30 14 -30 31 0 4 10 8 23 9 12 0 -34 4 -103 8 -137 8
-193 24 -293 84 -32 19 -55 31 -53 27 3 -4 1 -13 -3 -20 -6 -10 -14 -11 -27
-3 -15 8 -24 4 -50 -26 -28 -32 -33 -35 -48 -23 -16 13 -14 17 19 51 29 30 33
38 21 43 -20 8 -21 26 0 34 9 3 28 -6 47 -23 18 -16 9 -4 -19 26 -28 30 -60
67 -71 82 l-19 26 -55 -34z"/>
<path d="M1455 613 c-10 -15 -41 -52 -68 -80 -32 -34 -44 -53 -34 -53 8 0 23
-3 32 -6 15 -6 15 -4 4 14 -11 17 -11 24 -1 34 9 9 22 1 57 -37 39 -43 43 -51
31 -63 -11 -12 -21 -12 -45 -4 l-32 11 18 -29 17 -30 39 38 c21 20 52 54 69
75 28 34 28 37 9 37 -15 0 -23 -9 -29 -32 -4 -17 -13 -33 -19 -35 -10 -4 -73
85 -73 103 1 32 17 34 88 10 40 -13 74 -20 77 -17 2 4 -21 20 -50 35 -30 15
-59 34 -63 42 -7 13 -12 10 -27 -13z"/>
<path d="M1648 623 c7 -3 16 -2 19 1 4 3 -2 6 -13 5 -11 0 -14 -3 -6 -6z"/>
<path d="M285 560 c3 -5 8 -10 11 -10 2 0 4 5 4 10 0 6 -5 10 -11 10 -5 0 -7
-4 -4 -10z"/>
<path d="M368 527 c-15 -12 -15 -14 0 -33 10 -10 16 -18 15 -16 0 2 3 17 7 33
9 31 4 35 -22 16z"/>
<path d="M1292 456 c-45 -32 -46 -34 -17 -29 39 8 75 -21 75 -61 0 -41 -26
-66 -68 -66 -54 0 -79 50 -51 102 9 16 8 19 -3 14 -7 -3 -20 -9 -30 -12 -15
-5 -14 -12 7 -72 17 -49 20 -69 12 -74 -25 -16 5 -7 60 18 63 29 177 106 133
90 -16 -6 -87 84 -82 104 3 13 3 13 -36 -14z"/>
<path d="M1110 374 c-43 -13 -43 -13 -10 -11 26 1 36 -2 38 -15 2 -12 -3 -18
-16 -18 -18 0 -19 -4 -11 -46 5 -25 6 -51 3 -56 -4 -6 1 -8 12 -5 11 4 31 9
47 13 19 4 25 10 19 18 -5 6 -17 35 -27 65 -15 45 -15 55 -4 62 18 11 4 9 -51
-7z m39 -86 c5 -13 6 -27 3 -32 -6 -10 -20 19 -21 42 -1 20 9 14 18 -10z"/>
<path d="M1257 378 c-6 -18 11 -48 27 -48 20 0 37 25 30 44 -7 19 -50 22 -57
4z"/>
<path d="M720 346 c0 -2 7 -6 15 -10 8 -3 15 -1 15 4 0 6 -7 10 -15 10 -8 0
-15 -2 -15 -4z"/>
<path d="M555 329 c-4 -6 -5 -12 -2 -15 2 -3 7 2 10 11 7 17 1 20 -8 4z"/>
<path d="M828 249 c-3 -20 0 -33 8 -36 25 -9 29 2 13 35 l-17 32 -4 -31z"/>
</g>
</svg>
