<?xml version="1.0" standalone="no"?>
<!DOCTYPE svg PUBLIC "-//W3C//DTD SVG 20010904//EN"
 "http://www.w3.org/TR/2001/REC-SVG-20010904/DTD/svg10.dtd">
<svg version="1.0" xmlns="http://www.w3.org/2000/svg"
 width="152.000000pt" height="152.000000pt" viewBox="0 0 152.000000 152.000000"
 preserveAspectRatio="xMidYMid meet">
<metadata>
Created by potrace 1.16, written by Peter Selinger 2001-2019
</metadata>
<g transform="translate(0.000000,152.000000) scale(0.100000,-0.100000)"
fill="#000000" stroke="none">
<path d="M500 1468 l0 -52 -33 32 c-39 38 -82 42 -121 11 -22 -17 -26 -28 -26
-72 0 -40 -3 -48 -12 -39 -7 7 -31 12 -53 12 -31 0 -47 -6 -65 -25 -20 -21
-22 -31 -17 -77 l5 -53 -41 4 c-33 3 -43 -1 -58 -20 -24 -31 -26 -115 -2 -141
15 -17 14 -18 -30 -18 l-47 0 0 -80 c0 -47 4 -80 10 -80 6 0 5 -8 -2 -20 -18
-28 -6 -32 35 -12 l36 17 -35 24 c-35 24 -43 53 -28 109 6 20 12 22 77 22 71
0 71 0 47 17 -61 43 -77 96 -41 142 19 25 21 25 119 -5 l23 -7 -26 48 c-31 59
-32 85 -2 113 30 28 48 28 98 -4 23 -14 42 -24 44 -22 1 2 -2 27 -8 56 -13 60
-6 78 36 102 26 14 28 13 71 -29 24 -24 49 -40 55 -37 6 4 11 34 11 66 0 47 3
59 18 63 10 3 6 5 -10 6 -27 1 -28 -1 -28 -51z"/>
<path d="M610 1511 c0 -5 3 -11 8 -13 4 -1 15 -16 24 -33 22 -40 44 -43 52 -8
4 15 9 36 12 46 4 11 0 17 -10 17 -9 0 -16 -9 -16 -20 0 -11 -5 -20 -11 -20
-6 0 -13 9 -16 20 -5 20 -43 29 -43 11z"/>
<path d="M822 1478 c12 -56 28 -64 50 -27 10 16 18 34 18 39 0 6 5 10 10 10 6
0 10 5 10 10 0 19 -38 10 -43 -10 -3 -11 -10 -20 -16 -20 -6 0 -11 9 -11 20 0
11 -6 20 -14 20 -11 0 -12 -8 -4 -42z"/>
<path d="M935 1510 c-3 -5 -1 -10 4 -10 6 0 11 5 11 10 0 6 -2 10 -4 10 -3 0
-8 -4 -11 -10z"/>
<path d="M983 1509 c13 -8 17 -23 17 -69 0 -33 5 -60 11 -62 6 -2 28 13 50 34
43 41 63 46 93 23 25 -19 30 -49 16 -104 -12 -50 -8 -60 17 -40 53 42 91 49
123 22 26 -23 26 -67 -1 -110 -26 -41 -20 -49 22 -34 71 25 108 6 109 -56 0
-22 -10 -43 -31 -68 l-31 -35 56 0 c44 0 57 -4 66 -19 15 -29 13 -101 -3 -101
-8 0 -24 -11 -36 -24 l-22 -23 23 -5 c13 -3 31 -9 41 -13 12 -5 17 -3 17 8 0
8 -6 18 -12 20 -10 4 -10 7 0 15 9 6 12 31 10 83 l-3 74 -37 5 c-30 4 -36 8
-28 20 14 22 11 112 -4 133 -9 11 -27 17 -57 17 l-44 0 3 56 c3 46 0 59 -17
75 -23 22 -100 26 -119 7 -9 -9 -12 0 -12 44 0 48 -3 58 -25 72 -37 24 -91 21
-123 -9 l-27 -25 -3 50 c-3 47 -5 50 -30 50 -23 -1 -25 -2 -9 -11z"/>
<path d="M718 1383 c7 -3 16 -2 19 1 4 3 -2 6 -13 5 -11 0 -14 -3 -6 -6z"/>
<path d="M682 1348 c2 -5 8 -9 13 -9 5 0 11 4 13 9 1 5 -4 9 -13 9 -9 0 -14
-4 -13 -9z"/>
<path d="M653 1334 c-4 -11 -8 -12 -13 -4 -4 7 -15 10 -24 8 -12 -2 -10 -6 9
-15 22 -10 27 -8 35 8 6 10 8 19 5 19 -3 0 -8 -7 -12 -16z"/>
<path d="M756 1332 c4 -13 1 -21 -10 -24 -10 -2 -13 -8 -8 -16 6 -9 12 -5 22
13 10 19 11 28 2 37 -8 8 -9 6 -6 -10z"/>
<path d="M960 1346 c0 -2 7 -7 16 -10 8 -3 12 -2 9 4 -6 10 -25 14 -25 6z"/>
<path d="M844 1314 c3 -9 6 -23 7 -32 0 -12 3 -10 10 6 10 25 5 42 -13 42 -5
0 -7 -7 -4 -16z"/>
<path d="M1008 1323 c7 -3 16 -2 19 1 4 3 -2 6 -13 5 -11 0 -14 -3 -6 -6z"/>
<path d="M801 1304 c0 -11 3 -14 6 -6 3 7 2 16 -1 19 -3 4 -6 -2 -5 -13z"/>
<path d="M963 1294 c-3 -8 -1 -20 5 -26 7 -7 10 -2 9 16 -2 30 -5 32 -14 10z"/>
<path d="M540 1276 c0 -14 4 -27 8 -30 5 -3 6 8 4 25 -5 35 -12 38 -12 5z"/>
<path d="M670 1276 c0 -14 5 -26 10 -26 6 0 10 9 10 19 0 11 -4 23 -10 26 -6
4 -10 -5 -10 -19z"/>
<path d="M910 1290 c0 -5 5 -10 11 -10 5 0 7 5 4 10 -3 6 -8 10 -11 10 -2 0
-4 -4 -4 -10z"/>
<path d="M1010 1269 c0 -11 4 -18 10 -14 5 3 7 12 3 20 -7 21 -13 19 -13 -6z"/>
<path d="M384 1258 l-19 -23 23 19 c21 18 27 26 19 26 -2 0 -12 -10 -23 -22z"/>
<path d="M735 1260 c-3 -5 -1 -10 4 -10 6 0 11 5 11 10 0 6 -2 10 -4 10 -3 0
-8 -4 -11 -10z"/>
<path d="M1110 1265 c0 -2 10 -10 23 -16 20 -11 21 -11 8 4 -13 16 -31 23 -31
12z"/>
<path d="M485 1250 c-3 -5 -2 -10 4 -10 5 0 13 5 16 10 3 6 2 10 -4 10 -5 0
-13 -4 -16 -10z"/>
<path d="M769 1243 c-12 -16 -12 -17 1 -7 8 7 24 14 35 17 19 4 19 5 -1 6 -12
0 -28 -7 -35 -16z"/>
<path d="M897 1253 c-10 -10 -8 -35 2 -29 5 4 12 0 15 -6 2 -7 4 -3 2 9 -3 26
-10 36 -19 26z"/>
<path d="M953 1233 c-3 -10 -8 -21 -10 -25 -10 -19 6 -5 21 17 9 14 12 25 6
25 -6 0 -13 -8 -17 -17z"/>
<path d="M818 1233 c7 -3 16 -2 19 1 4 3 -2 6 -13 5 -11 0 -14 -3 -6 -6z"/>
<path d="M405 1220 c-9 -14 47 -71 62 -62 9 6 6 16 -9 40 -20 32 -41 41 -53
22z"/>
<path d="M575 1220 c27 -12 43 -12 25 0 -8 5 -22 9 -30 9 -10 0 -8 -3 5 -9z"/>
<path d="M1038 1214 c-33 -17 -34 -22 -10 -40 25 -20 45 -16 65 11 31 43 -1
59 -55 29z"/>
<path d="M505 1210 c-3 -5 1 -10 10 -10 9 0 13 5 10 10 -3 6 -8 10 -10 10 -2
0 -7 -4 -10 -10z"/>
<path d="M554 1164 c-19 -15 -19 -15 1 -6 11 5 27 12 35 15 13 5 13 6 -1 6 -8
1 -24 -6 -35 -15z"/>
<path d="M615 1137 c-58 -26 -125 -68 -143 -90 -10 -12 -10 -17 -1 -23 33 -20
191 -96 193 -93 8 9 17 229 10 229 -5 -1 -31 -11 -59 -23z m39 -84 c-4 -43 -8
-79 -9 -81 -2 -2 -35 12 -75 32 l-72 35 44 28 c35 22 102 58 116 62 2 1 0 -34
-4 -76z"/>
<path d="M834 1063 c11 -146 4 -139 99 -92 45 23 92 46 104 51 21 10 19 13
-30 52 -48 39 -140 86 -168 86 -8 0 -10 -25 -5 -97z m67 47 c52 -24 121 -79
99 -80 -9 0 -42 -14 -74 -30 -32 -17 -60 -29 -61 -28 -4 5 -15 158 -11 158 2
0 23 -9 47 -20z"/>
<path d="M1230 1151 c0 -5 7 -12 16 -15 14 -5 15 -4 4 9 -14 17 -20 19 -20 6z"/>
<path d="M312 1145 c4 -4 -5 -24 -21 -44 -76 -96 -116 -211 -116 -336 0 -124
2 -128 60 -108 l46 15 -6 53 c-10 78 10 186 49 264 19 37 42 73 50 81 15 12
15 15 -6 37 -13 14 -32 30 -43 35 -11 6 -17 7 -13 3z m29 -58 c-1 -4 -17 -38
-36 -76 -38 -77 -59 -179 -53 -267 3 -51 1 -54 -24 -63 -26 -9 -27 -8 -34 35
-14 94 28 238 100 342 26 37 49 51 47 29z"/>
<path d="M493 1129 c-35 -22 -46 -37 -15 -20 22 13 58 40 52 41 -3 0 -20 -10
-37 -21z"/>
<path d="M1170 1130 c-41 -44 -41 -45 -12 -86 57 -79 77 -148 77 -266 l0 -108
44 -15 c25 -8 46 -15 47 -15 7 0 15 62 15 120 1 133 -55 278 -141 371 -14 14
-16 14 -30 -1z m61 -88 c46 -74 55 -95 74 -168 16 -65 20 -171 7 -190 -4 -7
-15 -8 -28 -4 -19 8 -22 18 -27 122 -5 116 -26 190 -69 247 -10 13 -18 30 -18
37 0 30 27 10 61 -44z"/>
<path d="M1037 1109 c7 -7 15 -10 18 -7 3 3 -2 9 -12 12 -14 6 -15 5 -6 -5z"/>
<path d="M1320 1015 c0 -5 5 -17 10 -25 5 -8 10 -10 10 -5 0 6 -5 17 -10 25
-5 8 -10 11 -10 5z"/>
<path d="M738 903 c6 -2 18 -2 25 0 6 3 1 5 -13 5 -14 0 -19 -2 -12 -5z"/>
<path d="M1137 891 c3 -5 -83 -71 -92 -71 -4 0 -22 -12 -40 -26 -20 -15 -39
-23 -46 -18 -8 4 -9 3 -5 -5 4 -6 45 -36 92 -67 46 -30 82 -59 79 -64 -3 -4 3
-7 12 -6 10 2 18 7 19 12 0 5 4 35 8 67 9 66 0 149 -17 169 -7 7 -11 11 -10 9z
m6 -166 l-8 -47 -63 42 -62 42 24 19 c13 10 28 19 33 19 4 1 22 12 38 25 l30
25 8 -39 c4 -22 4 -60 0 -86z"/>
<path d="M352 825 c-8 -46 -8 -84 0 -130 l11 -65 48 35 c27 19 52 35 57 35 4
1 24 16 46 34 l38 33 -38 24 c-22 13 -43 26 -49 28 -5 2 -14 8 -20 12 -5 5
-24 20 -41 34 -18 14 -34 25 -36 25 -3 0 -10 -29 -16 -65z m78 -17 c0 -4 5 -8
11 -8 6 0 22 -8 35 -19 l23 -18 -23 -22 c-12 -11 -26 -21 -30 -21 -4 0 -19 -9
-34 -20 -33 -26 -42 -14 -42 57 0 73 6 84 36 71 13 -6 24 -15 24 -20z"/>
<path d="M679 850 l-24 -20 33 16 c32 15 40 24 23 24 -5 0 -19 -9 -32 -20z"/>
<path d="M819 845 c16 -14 33 -35 36 -46 4 -11 9 -18 12 -16 8 9 -26 66 -46
77 -33 17 -34 11 -2 -15z"/>
<path d="M751 853 c4 -21 -2 -33 -15 -33 -8 0 -24 -13 -36 -30 l-21 -29 22
-31 c17 -23 31 -30 55 -30 36 0 74 31 74 60 0 18 -35 60 -50 60 -6 0 -10 6
-10 14 0 8 -5 18 -10 21 -6 4 -10 3 -9 -2z m33 -69 c9 -8 16 -19 16 -24 0 -14
-30 -40 -46 -40 -23 0 -40 46 -24 65 16 19 34 19 54 -1z"/>
<path d="M1400 844 c0 -8 5 -12 10 -9 6 4 8 11 5 16 -9 14 -15 11 -15 -7z"/>
<path d="M1371 834 c0 -11 3 -14 6 -6 3 7 2 16 -1 19 -3 4 -6 -2 -5 -13z"/>
<path d="M616 804 c-8 -22 -7 -76 2 -91 4 -6 7 15 7 48 0 32 -1 59 -1 59 -1 0
-5 -7 -8 -16z"/>
<path d="M647 803 c-4 -3 -7 -24 -7 -46 0 -31 7 -46 34 -73 19 -19 40 -34 48
-34 7 0 -2 9 -20 20 -38 23 -56 62 -48 108 5 33 4 37 -7 25z"/>
<path d="M892 765 c0 -16 2 -22 5 -12 2 9 2 23 0 30 -3 6 -5 -1 -5 -18z"/>
<path d="M860 732 c0 -6 -12 -25 -27 -44 -22 -27 -23 -29 -4 -13 27 23 45 54
37 63 -3 3 -6 0 -6 -6z"/>
<path d="M0 690 c0 -6 7 -13 16 -17 16 -6 15 -7 0 -19 -14 -10 -16 -26 -14
-85 l3 -74 38 -3 c36 -3 47 -14 27 -27 -16 -10 -12 -98 6 -123 12 -18 25 -22
65 -22 46 0 49 -1 39 -19 -20 -38 -12 -88 17 -116 32 -29 61 -32 103 -10 l30
16 0 -57 c0 -42 4 -60 18 -70 26 -20 90 -17 123 7 l29 20 0 -45 c0 -44 1 -46
28 -46 23 1 24 2 10 11 -14 8 -18 23 -18 69 0 35 -4 60 -10 60 -6 0 -26 -16
-46 -35 -37 -37 -67 -43 -98 -20 -17 13 -18 23 -12 86 6 63 5 70 -8 60 -8 -7
-21 -9 -27 -5 -7 4 -9 3 -6 -3 3 -5 -10 -17 -29 -26 -33 -16 -36 -16 -59 0
-38 27 -40 55 -11 113 l26 52 -22 -6 c-13 -4 -42 -10 -64 -13 -35 -4 -44 -2
-58 18 -27 39 -20 74 23 116 l40 38 -64 -3 c-62 -4 -65 -3 -75 23 -15 39 -13
95 3 95 8 0 22 9 32 20 10 11 28 20 39 21 12 0 -1 7 -29 14 -61 17 -65 18 -65
5z"/>
<path d="M1391 678 c0 -16 2 -18 6 -8 3 8 11 18 17 22 7 5 4 8 -6 8 -12 0 -18
-7 -17 -22z"/>
<path d="M1473 688 c-18 -6 -33 -14 -33 -17 0 -3 16 -17 35 -30 38 -25 43 -46
24 -100 -11 -30 -13 -31 -71 -31 l-60 0 37 -41 c31 -35 36 -46 31 -72 -3 -16
-11 -36 -17 -44 -14 -16 -69 -17 -104 -1 -35 16 -41 5 -16 -35 11 -19 21 -48
21 -66 0 -31 -29 -71 -51 -71 -13 0 -67 29 -92 49 -17 14 -17 11 -11 -58 6
-63 5 -73 -12 -86 -31 -23 -61 -17 -98 20 -20 19 -40 35 -46 35 -6 0 -10 -24
-10 -54 0 -38 -5 -60 -17 -71 -15 -16 -15 -17 8 -13 20 3 24 9 27 46 l3 43 29
-21 c32 -23 96 -26 123 -6 12 10 17 27 17 66 0 46 2 51 18 44 43 -18 90 -16
112 6 18 18 21 31 18 81 l-3 59 46 0 c56 0 70 14 77 75 3 31 0 52 -12 70 l-16
25 39 0 c46 0 51 8 51 92 0 46 -4 64 -17 74 -17 13 -17 13 0 14 9 0 17 7 17
15 0 17 -2 17 -47 3z"/>
<path d="M1411 664 c0 -11 3 -14 6 -6 3 7 2 16 -1 19 -3 4 -6 -2 -5 -13z"/>
<path d="M250 613 c-14 -3 -29 -9 -35 -15 -11 -11 40 -1 65 13 16 9 11 9 -30
2z"/>
<path d="M1245 605 c34 -16 72 -21 45 -6 -8 5 -28 11 -45 14 l-30 6 30 -14z"/>
<path d="M700 589 c0 -5 5 -7 10 -4 6 3 10 8 10 11 0 2 -4 4 -10 4 -5 0 -10
-5 -10 -11z"/>
<path d="M620 570 c-14 -11 -32 -20 -40 -20 -8 0 -26 -9 -40 -20 -14 -11 -32
-20 -41 -20 -8 0 -20 -5 -26 -11 -9 -9 2 -23 42 -55 30 -24 59 -44 65 -44 6 0
28 -9 50 -20 56 -28 63 -26 56 18 -3 20 -8 72 -12 115 -7 83 -13 89 -54 57z
m34 -66 c6 -47 8 -104 4 -104 -20 1 -81 31 -111 54 -37 29 -37 29 -15 41 13 6
34 17 48 25 49 26 55 29 61 29 4 1 9 -20 13 -45z"/>
<path d="M847 583 c-3 -5 -8 -56 -12 -116 l-7 -107 24 9 c79 31 150 70 183
101 l24 23 -97 48 c-103 51 -108 53 -115 42z m126 -79 c40 -22 40 -22 -8 -51
-30 -18 -107 -54 -110 -51 -2 2 0 38 2 80 l6 76 36 -16 c20 -9 53 -27 74 -38z"/>
<path d="M255 557 c-16 -6 -31 -12 -33 -13 -9 -5 13 -34 27 -34 19 1 61 34 61
49 0 13 -15 13 -55 -2z"/>
<path d="M1196 555 c-6 -17 37 -50 53 -41 13 8 7 36 -10 47 -21 13 -36 11 -43
-6z"/>
<path d="M1270 546 c0 -2 7 -7 16 -10 8 -3 12 -2 9 4 -6 10 -25 14 -25 6z"/>
<path d="M1157 504 c-6 -7 12 -45 28 -56 5 -4 14 -3 21 2 6 6 15 6 20 2 5 -4
0 3 -10 16 -11 12 -28 22 -38 22 -11 0 -16 5 -13 10 7 11 2 14 -8 4z m53 -40
c0 -8 -19 -13 -24 -6 -3 5 1 9 9 9 8 0 15 -2 15 -3z"/>
<path d="M1095 492 c4 -9 -10 -29 -41 -59 -28 -26 -36 -37 -19 -25 17 11 41
32 54 46 20 22 22 28 11 39 -10 10 -11 9 -5 -1z"/>
<path d="M290 470 c-18 -14 -28 -16 -38 -8 -9 8 -11 7 -6 -6 8 -21 8 -21 52 9
20 14 32 25 27 25 -6 0 -21 -9 -35 -20z"/>
<path d="M354 454 c-9 -27 -8 -32 1 -24 15 13 26 48 16 54 -4 3 -11 -11 -17
-30z"/>
<path d="M410 473 c0 -5 10 -18 23 -29 l22 -19 -20 25 c-11 14 -21 27 -22 29
-2 2 -3 0 -3 -6z"/>
<path d="M391 427 c-6 -6 -11 -16 -11 -21 0 -6 5 -4 10 4 8 13 13 13 31 2 29
-18 32 -11 4 10 -17 13 -25 14 -34 5z"/>
<path d="M290 420 c-8 -5 -12 -11 -9 -14 2 -3 11 -1 19 4 8 5 12 11 9 14 -2 3
-11 1 -19 -4z"/>
<path d="M1100 426 c0 -2 7 -6 15 -10 8 -3 15 -1 15 4 0 6 -7 10 -15 10 -8 0
-15 -2 -15 -4z"/>
<path d="M1170 419 c0 -5 5 -7 10 -4 6 3 10 8 10 11 0 2 -4 4 -10 4 -5 0 -10
-5 -10 -11z"/>
<path d="M475 407 c48 -33 75 -49 75 -44 0 6 -77 57 -87 57 -4 0 1 -6 12 -13z"/>
<path d="M1069 403 c-7 -10 -9 -15 -5 -11 5 4 15 3 22 -3 9 -8 11 -5 7 10 -6
25 -7 25 -24 4z"/>
<path d="M1202 398 c-7 -7 -12 -18 -12 -25 0 -19 -14 -16 -28 8 -7 12 -16 18
-19 16 -3 -3 4 -17 15 -31 21 -27 27 -25 51 22 13 25 11 28 -7 10z"/>
<path d="M1240 385 c-7 -9 -11 -17 -9 -20 3 -2 10 5 17 15 14 24 10 26 -8 5z"/>
<path d="M360 375 c-8 -9 -8 -15 -2 -15 12 0 26 19 19 26 -2 2 -10 -2 -17 -11z"/>
<path d="M965 370 c-16 -11 -25 -20 -20 -20 10 0 64 39 55 40 -3 0 -18 -9 -35
-20z"/>
<path d="M1040 365 c0 -15 -2 -17 -9 -6 -6 9 -11 10 -15 2 -6 -10 -1 -13 20
-10 3 0 14 -10 25 -22 10 -12 19 -17 19 -11 0 6 -5 14 -11 17 -6 4 -14 17 -19
29 -8 20 -9 20 -10 1z"/>
<path d="M465 360 c-3 -6 1 -7 9 -4 18 7 21 14 7 14 -6 0 -13 -4 -16 -10z"/>
<path d="M420 325 c-7 -9 -11 -18 -8 -20 3 -3 11 1 18 10 7 9 11 18 8 20 -3 3
-11 -1 -18 -10z"/>
<path d="M1110 335 c1 -26 15 -33 35 -18 14 11 15 14 4 10 -9 -3 -22 0 -28 6
-6 6 -11 7 -11 2z"/>
<path d="M527 316 c-22 -17 -22 -22 3 -22 11 0 22 6 24 13 7 18 -7 23 -27 9z"/>
<path d="M808 313 c7 -3 16 -2 19 1 4 3 -2 6 -13 5 -11 0 -14 -3 -6 -6z"/>
<path d="M895 300 c-3 -5 -1 -10 4 -10 6 0 11 5 11 10 0 6 -2 10 -4 10 -3 0
-8 -4 -11 -10z"/>
<path d="M944 294 c3 -9 9 -27 12 -40 3 -13 10 -24 15 -24 12 0 11 17 -1 25
-5 3 -10 17 -10 31 0 13 -5 24 -11 24 -6 0 -8 -7 -5 -16z"/>
<path d="M460 291 c0 -5 7 -12 16 -15 14 -5 15 -4 4 9 -14 17 -20 19 -20 6z"/>
<path d="M618 273 c5 -25 6 -25 13 -8 11 29 10 35 -5 35 -9 0 -12 -8 -8 -27z"/>
<path d="M805 290 c-27 -4 -42 -8 -33 -8 9 -1 19 -10 21 -19 4 -17 5 -17 6 0
1 10 9 17 24 18 12 0 31 4 42 9 23 10 12 10 -60 0z"/>
<path d="M570 280 c0 -13 18 -22 24 -11 3 5 -1 11 -9 15 -8 3 -15 1 -15 -4z"/>
<path d="M671 266 c9 -19 15 -23 21 -14 4 7 7 20 7 28 0 11 -2 11 -6 2 -4 -10
-8 -10 -20 -1 -12 11 -12 9 -2 -15z"/>
<path d="M506 267 c3 -10 9 -15 12 -12 3 3 0 11 -7 18 -10 9 -11 8 -5 -6z"/>
<path d="M1119 263 c-13 -16 -12 -17 4 -4 16 13 21 21 13 21 -2 0 -10 -8 -17
-17z"/>
<path d="M895 256 c-14 -15 -7 -46 11 -46 11 0 13 7 8 28 -8 34 -7 32 -19 18z"/>
<path d="M547 230 c-3 -11 -1 -18 3 -15 5 3 11 -1 13 -7 3 -7 6 -1 6 15 1 31
-14 36 -22 7z"/>
<path d="M763 235 c0 -8 4 -15 9 -15 4 0 8 4 8 9 0 6 -4 12 -8 15 -5 3 -9 -1
-9 -9z"/>
<path d="M824 236 c-3 -8 -1 -23 5 -33 9 -15 10 -13 9 15 -2 35 -6 39 -14 18z"/>
<path d="M600 230 c0 -5 5 -10 11 -10 5 0 7 5 4 10 -3 6 -8 10 -11 10 -2 0 -4
-4 -4 -10z"/>
<path d="M725 229 c-4 -6 -5 -12 -2 -15 2 -3 7 2 10 11 7 17 1 20 -8 4z"/>
<path d="M998 233 c6 -2 18 -2 25 0 6 3 1 5 -13 5 -14 0 -19 -2 -12 -5z"/>
<path d="M655 210 c3 -5 8 -10 11 -10 2 0 4 5 4 10 0 6 -5 10 -11 10 -5 0 -7
-4 -4 -10z"/>
<path d="M590 196 c0 -2 9 -6 20 -9 11 -3 20 -1 20 4 0 5 -9 9 -20 9 -11 0
-20 -2 -20 -4z"/>
<path d="M980 190 c-18 -12 -2 -12 25 0 13 6 15 9 5 9 -8 0 -22 -4 -30 -9z"/>
<path d="M537 179 c7 -7 15 -10 18 -7 3 3 -2 9 -12 12 -14 6 -15 5 -6 -5z"/>
<path d="M710 180 c0 -5 5 -10 11 -10 5 0 7 5 4 10 -3 6 -8 10 -11 10 -2 0 -4
-4 -4 -10z"/>
<path d="M756 182 c-2 -4 6 -8 19 -8 13 0 21 4 19 8 -3 4 -11 8 -19 8 -8 0
-16 -4 -19 -8z"/>
<path d="M642 60 c-9 -22 -20 -40 -24 -40 -5 0 -8 -4 -8 -10 0 -19 38 -10 43
10 3 11 10 20 16 20 6 0 11 -9 11 -20 0 -11 7 -20 16 -20 10 0 14 6 10 18 -3
9 -8 29 -11 44 -11 43 -33 43 -53 -2z"/>
<path d="M844 92 c-6 -4 -15 -18 -18 -32 -4 -14 -10 -33 -12 -42 -4 -12 0 -18
10 -18 9 0 16 9 16 20 0 26 17 26 25 0 3 -11 15 -20 26 -20 19 0 27 15 10 22
-4 2 -17 20 -27 40 -12 22 -23 34 -30 30z"/>
<path d="M940 50 c-9 -6 -10 -10 -3 -10 6 0 15 5 18 10 8 12 4 12 -15 0z"/>
</g>
</svg>
