<?xml version="1.0" standalone="no"?>
<!DOCTYPE svg PUBLIC "-//W3C//DTD SVG 20010904//EN"
 "http://www.w3.org/TR/2001/REC-SVG-20010904/DTD/svg10.dtd">
<svg version="1.0" xmlns="http://www.w3.org/2000/svg"
 width="100.000000pt" height="100.000000pt" viewBox="0 0 100.000000 100.000000"
 preserveAspectRatio="xMidYMid meet">
<metadata>
Created by potrace 1.16, written by Peter Selinger 2001-2019
</metadata>
<g transform="translate(0.000000,100.000000) scale(0.100000,-0.100000)"
fill="#000000" stroke="none">
<path d="M290 980 c0 -16 -7 -20 -30 -20 -28 0 -30 -3 -30 -35 l0 -35 -60 0
-60 0 0 -60 0 -60 -35 0 c-32 0 -35 -2 -35 -30 0 -23 -4 -30 -20 -30 -11 0
-20 -4 -20 -10 0 -5 13 -10 30 -10 27 0 30 -3 30 -30 0 -28 3 -30 35 -30 l35
0 0 -95 0 -95 30 0 30 0 0 60 0 60 30 0 30 0 0 -60 0 -60 30 0 30 0 0 60 0 60
-30 0 -30 0 0 95 0 95 -30 0 -30 0 0 -60 0 -60 -30 0 c-27 0 -30 3 -30 30 0
28 -3 30 -35 30 -32 0 -35 2 -35 30 0 28 3 30 35 30 l35 0 0 60 0 60 60 0 60
0 0 35 0 35 60 0 60 0 0 30 c0 17 -4 30 -10 30 -5 0 -10 -8 -10 -19 0 -10 -9
-21 -20 -24 -16 -4 -20 0 -20 19 0 13 -4 24 -10 24 -5 0 -10 -9 -10 -20z m-57
-270 c4 -15 0 -20 -13 -20 -13 0 -17 5 -13 20 3 11 9 20 13 20 4 0 10 -9 13
-20z m-123 -50 c0 -5 -7 -10 -15 -10 -8 0 -15 5 -15 10 0 6 7 10 15 10 8 0 15
-4 15 -10z m120 0 c0 -5 -4 -10 -10 -10 -5 0 -10 5 -10 10 0 6 5 10 10 10 6 0
10 -4 10 -10z m2 -55 c-3 -20 -10 -25 -33 -25 -29 0 -29 -1 -29 -60 0 -33 -4
-60 -10 -60 -6 0 -10 32 -10 75 0 68 2 75 20 75 11 0 20 5 20 10 0 6 11 10 24
10 19 0 22 -4 18 -25z m58 -105 c0 -22 -4 -40 -10 -40 -5 0 -10 18 -10 40 0
22 5 40 10 40 6 0 10 -18 10 -40z"/>
<path d="M440 970 c0 -27 3 -30 30 -30 27 0 30 3 30 30 0 17 -4 30 -10 30 -5
0 -10 -9 -10 -20 0 -11 -4 -20 -10 -20 -5 0 -10 9 -10 20 0 11 -4 20 -10 20
-5 0 -10 -13 -10 -30z"/>
<path d="M690 970 l0 -30 60 0 c60 0 60 0 60 -29 0 -24 -3 -28 -20 -24 -11 3
-20 11 -20 19 0 7 -4 16 -10 19 -6 4 -10 -7 -10 -24 l0 -31 60 0 60 0 0 -60 0
-60 31 0 c17 0 28 4 24 10 -3 6 -12 10 -19 10 -8 0 -16 9 -19 20 -4 17 0 20
24 20 l29 0 0 -90 0 -90 30 0 c17 0 30 5 30 10 0 6 -8 10 -19 10 -10 0 -21 9
-24 20 -4 16 0 20 19 20 13 0 24 5 24 10 0 6 -9 10 -20 10 -18 0 -20 7 -20 60
l0 60 -35 0 c-32 0 -35 2 -35 30 0 27 -3 30 -30 30 -28 0 -30 3 -30 35 l0 35
-60 0 c-53 0 -60 2 -60 20 0 11 -4 20 -10 20 -5 0 -10 -13 -10 -30z"/>
<path d="M161 835 l-23 -25 26 0 c21 0 26 5 26 25 0 30 1 30 -29 0z"/>
<path d="M690 780 l0 -30 -65 0 -65 0 0 -60 0 -60 65 0 65 0 0 60 0 60 30 0
c27 0 30 -3 30 -30 0 -27 3 -30 30 -30 l30 0 0 -65 0 -65 -60 0 -60 0 0 -60 0
-60 90 0 90 0 0 125 0 125 -30 0 c-27 0 -30 3 -30 30 0 27 -3 30 -30 30 -27 0
-30 3 -30 30 0 27 -3 30 -30 30 -27 0 -30 -3 -30 -30z m40 0 c0 -5 -4 -10 -10
-10 -5 0 -10 5 -10 10 0 6 5 10 10 10 6 0 10 -4 10 -10z m-60 -90 c0 -32 -4
-38 -25 -42 -24 -5 -25 -3 -25 42 0 45 1 47 25 42 21 -4 25 -10 25 -42z m-70
0 c0 -22 -4 -40 -10 -40 -5 0 -10 18 -10 40 0 22 5 40 10 40 6 0 10 -18 10
-40z m190 30 c0 -5 -4 -10 -10 -10 -5 0 -10 5 -10 10 0 6 5 10 10 10 6 0 10
-4 10 -10z m63 -70 c4 -15 0 -20 -13 -20 -13 0 -17 5 -13 20 3 11 9 20 13 20
4 0 10 -9 13 -20z m-3 -55 c0 -8 -4 -15 -10 -15 -5 0 -10 7 -10 15 0 8 5 15
10 15 6 0 10 -7 10 -15z m2 -84 l-4 -49 -49 -4 -49 -3 0 46 c0 45 0 45 30 41
18 -3 30 0 30 7 0 6 10 11 23 11 20 0 22 -4 19 -49z m-122 -11 c0 -22 -4 -40
-10 -40 -5 0 -10 18 -10 40 0 22 5 40 10 40 6 0 10 -18 10 -40z"/>
<path d="M370 690 l0 -60 35 0 35 0 0 54 c0 49 2 54 20 49 25 -7 25 -12 3 -29
-16 -12 -15 -13 10 -14 23 0 27 4 27 30 l0 30 -65 0 -65 0 0 -60z m50 0 c0
-29 -4 -40 -15 -40 -11 0 -15 11 -15 40 0 29 4 40 15 40 11 0 15 -11 15 -40z"/>
<path d="M60 505 c0 -75 4 -114 10 -110 13 8 13 212 0 220 -6 4 -10 -35 -10
-110z"/>
<path d="M500 500 l0 -60 30 0 30 0 0 60 0 60 -30 0 -30 0 0 -60z m40 0 c0
-22 -4 -40 -10 -40 -5 0 -10 18 -10 40 0 22 5 40 10 40 6 0 10 -18 10 -40z"/>
<path d="M60 345 c0 -32 -2 -35 -30 -35 -17 0 -30 -4 -30 -10 0 -5 9 -10 20
-10 16 0 20 -7 20 -30 0 -28 3 -30 35 -30 l35 0 0 -60 0 -60 60 0 60 0 0 -35
c0 -32 2 -35 30 -35 23 0 30 -4 30 -20 0 -11 5 -20 10 -20 6 0 10 11 10 24 0
19 4 23 20 19 11 -3 20 -14 20 -24 0 -11 5 -19 10 -19 6 0 10 13 10 30 l0 30
-60 0 -60 0 0 35 0 35 -60 0 -60 0 0 60 0 60 -35 0 c-32 0 -35 2 -35 30 0 28
3 30 35 30 33 0 35 2 35 35 0 33 -2 35 -35 35 -33 0 -35 -2 -35 -35z m50 0 c0
-8 -7 -15 -15 -15 -8 0 -15 7 -15 15 0 8 7 15 15 15 8 0 15 -7 15 -15z"/>
<path d="M370 315 l0 -65 65 0 65 0 0 65 0 65 -65 0 -65 0 0 -65z m110 0 c0
-34 -4 -44 -20 -48 -18 -5 -20 0 -20 48 0 48 2 53 20 48 16 -4 20 -14 20 -48z
m-60 0 c0 -33 -4 -45 -15 -45 -11 0 -15 12 -15 45 0 33 4 45 15 45 11 0 15
-12 15 -45z"/>
<path d="M560 315 l0 -65 65 0 65 0 0 65 0 65 -65 0 -65 0 0 -65z m110 0 c0
-38 -3 -43 -25 -47 -24 -5 -25 -3 -25 47 0 50 1 52 25 47 22 -4 25 -9 25 -47z
m-70 0 c0 -25 -4 -45 -10 -45 -5 0 -10 20 -10 45 0 25 5 45 10 45 6 0 10 -20
10 -45z"/>
<path d="M940 285 l0 -95 -29 0 c-24 0 -28 3 -24 20 3 11 11 20 19 20 7 0 16
5 19 10 4 6 -7 10 -24 10 l-31 0 0 -60 0 -60 -60 0 -60 0 0 -31 c0 -17 4 -28
10 -24 6 3 10 12 10 19 0 8 9 16 20 19 17 4 20 0 20 -24 0 -29 0 -29 -60 -29
l-60 0 0 -30 c0 -17 5 -30 10 -30 6 0 10 9 10 20 0 18 7 20 60 20 l60 0 0 35
c0 32 2 35 30 35 27 0 30 3 30 30 0 28 3 30 35 30 l35 0 0 60 c0 53 2 60 20
60 11 0 20 5 20 10 0 6 -11 10 -24 10 -19 0 -22 4 -18 25 3 16 11 25 23 25 11
0 19 5 19 10 0 6 -13 10 -30 10 l-30 0 0 -95z"/>
<path d="M150 177 c8 -7 21 -19 28 -27 10 -12 12 -9 12 13 0 23 -4 27 -27 27
-24 -1 -26 -3 -13 -13z"/>
</g>
</svg>
