<?xml version="1.0" standalone="no"?>
<!DOCTYPE svg PUBLIC "-//W3C//DTD SVG 20010904//EN"
 "http://www.w3.org/TR/2001/REC-SVG-20010904/DTD/svg10.dtd">
<svg version="1.0" xmlns="http://www.w3.org/2000/svg"
 width="192.000000pt" height="192.000000pt" viewBox="0 0 192.000000 192.000000"
 preserveAspectRatio="xMidYMid meet">
<metadata>
Created by potrace 1.16, written by Peter Selinger 2001-2019
</metadata>
<g transform="translate(0.000000,192.000000) scale(0.100000,-0.100000)"
fill="#000000" stroke="none">
<path d="M680 1913 c-27 -10 -40 -36 -40 -84 0 -81 -6 -85 -56 -39 -49 45 -84
51 -135 24 -30 -15 -31 -17 -27 -77 2 -34 8 -70 12 -80 8 -16 2 -15 -42 7 -63
32 -99 32 -134 1 -36 -31 -40 -103 -7 -138 11 -12 25 -30 30 -39 8 -16 7 -17
-16 -8 -15 6 -53 10 -86 10 -56 0 -60 -2 -79 -32 -26 -43 -25 -63 5 -102 14
-18 25 -38 25 -44 0 -7 7 -12 15 -12 8 0 15 -4 15 -10 0 -5 -20 -10 -44 -10
-24 0 -57 -3 -74 -6 -28 -6 -31 -11 -37 -56 -8 -60 5 -92 47 -110 15 -7 28
-16 28 -20 0 -5 9 -8 19 -8 11 0 23 -4 26 -10 4 -6 -5 -10 -21 -10 -42 0 -104
-22 -104 -37 0 -16 -2 -16 50 2 23 8 55 15 71 15 24 0 29 4 29 25 0 24 -31 51
-44 38 -3 -3 -6 -1 -6 5 0 7 -6 12 -14 12 -22 0 -78 62 -66 74 5 5 10 20 10
32 0 19 7 24 45 29 25 4 60 5 79 3 46 -5 64 21 33 48 -12 10 -26 17 -32 15 -5
-1 -7 1 -3 5 4 4 -6 23 -22 44 l-29 37 19 31 c17 28 25 32 60 32 22 0 57 -7
77 -15 44 -19 40 -19 53 6 9 17 7 27 -16 57 -15 20 -30 39 -33 42 -4 3 -7 19
-8 35 -1 22 6 36 28 54 27 21 33 22 60 10 17 -7 47 -23 66 -36 27 -18 38 -21
54 -12 14 7 17 14 11 22 -12 15 -24 62 -29 109 -3 33 0 39 26 53 17 8 35 15
41 15 6 0 35 -23 65 -51 49 -46 55 -49 77 -38 12 7 18 14 13 16 -11 3 -5 120
8 140 4 6 21 14 38 18 38 8 61 -11 95 -77 19 -38 30 -48 49 -48 21 0 25 5 25
29 0 16 7 48 15 71 18 52 18 50 1 50 -13 0 -32 -54 -39 -110 -2 -23 -5 -21
-26 20 -36 70 -59 90 -100 89 -20 0 -43 -3 -51 -6z"/>
<path d="M1010 1910 c0 -6 7 -27 15 -47 8 -19 15 -48 15 -64 0 -24 4 -29 25
-29 19 0 28 9 43 43 29 63 61 89 101 81 41 -8 54 -40 49 -112 -4 -45 -2 -55
15 -63 16 -9 26 -4 62 34 51 54 77 64 110 43 20 -13 25 -25 25 -60 0 -24 -7
-60 -15 -79 -14 -34 -14 -37 5 -47 16 -9 26 -7 48 8 15 11 45 27 66 36 l40 17
30 -31 30 -30 -27 -52 c-15 -29 -32 -61 -39 -70 -10 -14 -10 -21 3 -33 14 -14
20 -14 58 0 65 23 106 20 125 -10 13 -19 21 -83 9 -71 -2 2 -24 -17 -48 -42
-33 -32 -44 -50 -39 -64 4 -15 12 -17 40 -12 19 3 54 3 78 0 38 -6 46 -11 55
-38 6 -17 11 -34 11 -38 0 -9 -58 -70 -65 -69 -3 1 -19 -4 -35 -11 -40 -16
-43 -60 -5 -60 14 0 48 -9 75 -19 45 -17 51 -18 48 -4 -3 18 -58 41 -103 43
l-30 1 25 14 c14 8 31 14 37 15 7 0 26 14 43 31 32 34 37 65 19 116 -11 34
-36 43 -118 43 l-46 1 43 40 c37 35 42 45 42 82 0 25 -8 52 -19 66 -16 21 -24
23 -82 19 -35 -3 -72 -8 -81 -12 -13 -6 -11 4 12 46 38 68 39 106 2 141 -36
34 -63 34 -134 -2 -49 -25 -56 -27 -48 -11 6 10 10 48 10 84 0 56 -3 67 -22
80 -46 32 -101 17 -154 -42 l-32 -34 -4 75 c-2 42 -8 81 -14 87 -5 5 -31 13
-57 16 -41 6 -51 4 -74 -17 -14 -13 -35 -44 -46 -69 l-21 -45 -7 40 c-8 52
-26 95 -39 95 -5 0 -10 -5 -10 -10z"/>
<path d="M897 1674 c-4 -4 -27 -9 -52 -11 -50 -4 -113 -23 -185 -55 -169 -76
-314 -244 -377 -433 -23 -70 -26 -96 -26 -210 0 -112 4 -141 26 -208 61 -186
195 -343 365 -427 182 -90 409 -95 597 -13 22 10 42 20 45 23 3 3 23 14 45 25
53 27 187 159 213 212 12 23 26 45 32 48 6 4 8 11 5 16 -4 5 -2 9 4 9 8 0 18
19 26 50 1 3 5 13 9 22 4 9 8 22 10 30 1 7 4 18 8 23 20 33 30 293 12 334 -4
9 -9 27 -11 41 -2 14 -8 27 -14 28 -5 2 -7 7 -4 12 7 11 -15 70 -27 70 -5 0
-7 4 -3 9 3 5 -2 17 -11 25 -8 9 -12 16 -7 16 4 0 4 4 -2 8 -5 4 -18 23 -29
42 -10 19 -28 45 -40 56 -11 12 -28 30 -37 40 -8 11 -30 30 -48 44 -19 14 -43
33 -54 43 -11 9 -24 17 -29 17 -4 0 -17 9 -28 20 -11 11 -29 20 -39 20 -11 0
-21 4 -23 9 -6 15 -127 51 -172 51 -25 0 -48 5 -51 10 -7 11 -118 14 -128 4z
m108 -24 c3 -5 26 -10 51 -10 40 0 162 -34 174 -49 3 -3 18 -11 34 -16 16 -6
31 -15 33 -22 3 -7 -23 0 -59 16 -93 43 -168 54 -315 49 -169 -6 -257 -36
-373 -127 -51 -39 -87 -75 -117 -117 -12 -16 -24 -26 -28 -23 -10 11 114 138
175 179 95 65 213 110 285 110 24 0 47 5 50 10 3 6 24 10 45 10 21 0 42 -4 45
-10z m97 -61 c77 -15 225 -92 284 -147 248 -230 283 -601 81 -865 -21 -26 -37
-52 -37 -57 0 -6 -6 -9 -12 -7 -7 1 -12 -5 -10 -13 2 -8 0 -12 -3 -8 -4 4 -26
-8 -48 -28 -38 -32 -197 -120 -197 -108 0 3 -6 2 -12 -3 -24 -14 -43 -16 -199
-17 -111 -1 -160 3 -171 11 -8 7 -17 10 -20 7 -8 -7 -129 61 -187 105 -43 32
-70 61 -154 162 -12 14 -23 33 -25 42 -1 9 -9 29 -17 44 -8 15 -15 34 -15 41
0 6 -3 12 -7 12 -5 0 -9 11 -9 25 -1 14 -5 33 -9 43 -12 30 -22 186 -13 212 3
8 13 47 22 85 34 143 106 253 226 346 76 60 153 96 245 118 56 13 224 13 287
0z m238 -59 c8 -5 12 -11 9 -14 -3 -3 -14 1 -25 9 -21 16 -8 20 16 5z m74 -60
c10 -8 26 -23 35 -34 9 -10 25 -28 37 -40 25 -26 57 -76 51 -82 -2 -2 -19 17
-37 44 -19 26 -59 71 -90 101 -50 50 -49 52 4 11z m-1022 -147 c-5 -10 -18
-39 -30 -64 -12 -26 -29 -78 -38 -115 -9 -38 -21 -77 -25 -87 -11 -21 0 -235
13 -243 4 -3 8 -21 8 -40 0 -19 5 -34 10 -34 6 0 10 -5 10 -11 0 -6 7 -26 16
-45 23 -48 10 -55 -14 -7 -72 140 -87 331 -39 478 15 44 40 104 57 133 29 50
48 70 32 35z m1178 -58 c0 -8 -2 -15 -4 -15 -2 0 -6 7 -10 15 -3 8 -1 15 4 15
6 0 10 -7 10 -15z m24 -41 c3 -9 6 -25 6 -37 -1 -17 -2 -19 -9 -7 -16 27 -22
60 -13 60 6 0 13 -7 16 -16z m26 -92 c0 -15 4 -32 9 -37 21 -23 12 -287 -10
-301 -5 -3 -9 -16 -9 -29 0 -13 -4 -27 -10 -30 -5 -3 -10 -15 -10 -25 0 -10
-6 -25 -12 -32 -7 -7 -24 -33 -37 -58 -28 -52 -81 -123 -88 -116 -2 2 12 26
33 53 60 78 111 196 125 292 11 79 8 217 -7 284 -4 17 -2 27 5 27 6 0 11 -13
11 -28z m-1156 -612 c48 -55 114 -106 201 -154 85 -47 181 -61 357 -53 122 5
131 7 210 45 46 21 105 56 131 76 27 21 51 35 54 32 7 -7 -116 -96 -133 -96
-8 0 -14 -3 -14 -7 0 -11 -70 -39 -155 -63 -213 -61 -482 21 -646 196 -45 49
-89 108 -89 120 0 5 11 -4 23 -21 12 -16 39 -50 61 -75z"/>
<path d="M845 1483 c-11 -2 -27 -7 -35 -10 -8 -3 -21 -7 -29 -9 -8 -1 -18 -9
-22 -16 -5 -7 -9 -9 -9 -4 0 5 -7 3 -15 -4 -8 -7 -15 -10 -15 -6 0 3 -18 -6
-40 -20 -22 -15 -40 -31 -40 -37 0 -6 -3 -7 -7 -3 -4 3 -26 -13 -50 -36 l-44
-43 148 -72 c167 -81 174 -81 173 1 0 28 4 96 9 151 6 55 7 103 3 106 -4 3
-16 4 -27 2z m2 -105 c-5 -46 -9 -107 -9 -135 -1 -31 -6 -53 -12 -53 -6 0 -62
25 -125 56 l-113 55 23 25 c12 13 26 24 30 24 4 0 20 11 35 25 15 14 44 30 66
37 21 6 38 15 38 20 0 4 9 8 19 8 11 0 23 5 26 10 3 6 12 10 18 10 9 0 10 -21
4 -82z"/>
<path d="M1043 1419 c4 -41 9 -114 13 -162 5 -61 11 -90 20 -94 14 -5 294 125
294 137 0 8 -79 81 -117 108 -18 12 -41 22 -51 22 -10 0 -29 9 -41 19 -13 11
-37 23 -54 26 -18 4 -41 9 -51 12 -18 5 -19 1 -13 -68z m62 31 c15 -6 33 -17
41 -25 9 -8 24 -15 34 -15 22 0 94 -47 127 -82 l23 -24 -118 -57 c-64 -32
-120 -57 -123 -57 -4 0 -10 44 -13 98 -4 53 -9 114 -12 135 -6 40 -1 43 41 27z"/>
<path d="M451 1128 c-5 -13 -14 -57 -21 -99 -10 -63 -10 -88 4 -159 8 -46 19
-87 24 -92 4 -4 42 15 83 43 40 28 100 67 131 87 31 20 57 42 58 49 0 7 -20
26 -45 43 -25 17 -45 28 -45 25 0 -4 -6 0 -14 7 -26 25 -90 73 -128 96 l-38
23 -9 -23z m101 -70 c47 -41 63 -53 101 -72 20 -11 37 -22 37 -25 0 -3 -22
-20 -48 -38 -26 -17 -74 -50 -106 -73 -68 -47 -68 -47 -84 48 -8 44 -8 80 -1
120 17 95 16 94 47 78 15 -8 39 -25 54 -38z"/>
<path d="M1365 1094 c-44 -30 -85 -61 -92 -70 -6 -8 -14 -15 -17 -14 -16 2
-66 -32 -66 -45 0 -17 261 -198 271 -188 5 5 15 48 24 97 14 85 10 180 -12
236 -4 8 -7 19 -7 24 -2 21 -25 12 -101 -40z m101 -68 c7 -46 7 -81 -2 -135
-7 -40 -14 -74 -16 -77 -2 -2 -55 31 -117 74 l-112 77 33 15 c18 8 38 21 43
28 23 28 140 100 150 91 6 -6 15 -38 21 -73z"/>
<path d="M856 1089 c-83 -65 -74 -195 17 -263 21 -16 43 -21 87 -21 50 0 63 4
96 30 20 17 36 34 35 38 -1 4 5 15 13 23 17 16 19 124 3 124 -4 0 -6 4 -3 9 4
5 -10 26 -30 46 -28 30 -38 34 -50 25 -18 -16 -18 -39 1 -47 21 -7 45 -55 45
-88 0 -42 -28 -85 -65 -101 -50 -21 -77 -17 -114 14 -28 23 -34 36 -38 79 -5
48 -3 55 26 83 35 35 37 43 17 59 -10 8 -19 6 -40 -10z m-29 -141 c-2 -13 -4
-5 -4 17 -1 22 1 32 4 23 2 -10 2 -28 0 -40z m146 -125 c-7 -2 -19 -2 -25 0
-7 3 -2 5 12 5 14 0 19 -2 13 -5z"/>
<path d="M1067 763 c-2 -4 -7 -51 -11 -103 -4 -52 -9 -124 -13 -159 l-6 -64
41 6 c61 8 178 70 245 129 l58 51 -114 56 c-62 31 -129 62 -148 70 -19 8 -37
16 -41 18 -3 2 -8 0 -11 -4z m162 -96 l103 -51 -43 -38 c-42 -35 -156 -98
-208 -113 -21 -6 -23 -5 -18 22 3 15 9 77 12 136 8 127 -5 123 154 44z"/>
<path d="M690 694 c-74 -36 -137 -68 -140 -71 -3 -3 20 -27 50 -54 58 -52 191
-123 248 -133 l34 -6 -6 73 c-5 74 -11 153 -14 220 -2 28 -6 37 -20 37 -9 0
-78 -30 -152 -66z m151 4 c2 -66 8 -144 14 -190 6 -37 4 -48 -7 -48 -27 0
-154 68 -207 111 l-54 43 114 57 c63 32 120 58 127 58 7 1 12 -12 13 -31z"/>
<path d="M0 902 c0 -27 12 -34 79 -41 l56 -7 -45 -23 c-72 -37 -90 -59 -90
-105 1 -66 18 -80 108 -86 70 -5 75 -7 52 -18 -58 -30 -92 -138 -55 -175 21
-21 101 -31 136 -16 16 6 32 10 34 7 3 -2 -9 -31 -25 -63 -17 -32 -30 -65 -30
-72 0 -22 63 -72 91 -73 14 0 48 11 75 25 27 14 50 25 50 25 1 0 -2 -19 -7
-42 -15 -78 -11 -98 23 -130 45 -42 92 -34 147 25 l40 42 1 -77 c0 -63 3 -78
15 -78 8 0 15 -4 15 -10 0 -5 22 -10 49 -10 42 0 53 4 73 29 14 15 30 43 38
60 15 36 30 26 30 -21 0 -16 5 -28 10 -28 6 0 10 -9 10 -20 0 -14 7 -20 22
-20 17 0 19 3 10 12 -7 7 -12 20 -12 30 0 10 -3 18 -7 18 -5 0 -9 10 -10 23
-5 51 -10 62 -32 63 -16 1 -27 -9 -43 -40 -30 -60 -57 -86 -90 -86 -15 0 -28
5 -28 10 0 6 -7 10 -14 10 -12 0 -15 16 -13 80 2 70 0 81 -16 86 -10 3 -19 4
-20 2 -7 -11 -87 -97 -87 -92 0 2 -9 0 -19 -6 -15 -8 -25 -4 -50 19 -25 23
-29 34 -24 57 3 16 6 37 7 47 0 9 4 17 9 17 4 0 6 4 2 9 -3 5 -1 12 5 16 16
10 12 23 -10 35 -16 9 -26 7 -50 -10 -16 -11 -45 -27 -65 -36 -35 -14 -37 -14
-68 13 l-32 28 30 60 c16 33 36 65 43 70 11 9 10 14 -6 28 -18 17 -21 17 -66
-2 -25 -11 -52 -19 -59 -17 -6 3 -25 7 -40 10 -15 4 -25 11 -22 16 3 6 1 10
-4 10 -35 0 12 95 61 123 29 17 37 41 16 53 -6 4 -40 6 -74 5 -53 -2 -66 1
-80 18 -41 47 -24 86 59 127 37 19 47 30 47 49 0 21 -5 25 -32 26 -18 1 -39 1
-46 0 -6 -1 -12 3 -12 9 0 7 -6 10 -12 7 -7 -2 -21 2 -30 11 -16 14 -18 13
-18 -6z"/>
<path d="M1900 901 c0 -6 -8 -10 -17 -10 -10 0 -39 -3 -65 -7 -42 -6 -48 -10
-48 -31 0 -18 9 -28 43 -42 23 -10 52 -29 64 -43 20 -21 21 -28 13 -60 -9 -30
-16 -37 -48 -44 -43 -9 -46 -9 -89 0 -26 6 -32 4 -38 -13 -4 -15 3 -29 32 -55
58 -52 69 -76 49 -115 -9 -17 -22 -32 -29 -32 -44 -5 -67 -4 -67 3 0 4 -10 8
-23 8 -13 0 -28 5 -35 12 -9 9 -16 7 -31 -6 -20 -18 -20 -19 4 -50 13 -18 32
-49 40 -71 16 -38 16 -38 -12 -67 l-29 -28 -44 17 c-25 10 -56 28 -70 40 -24
22 -25 22 -43 5 -16 -17 -16 -21 -2 -55 8 -20 15 -54 15 -76 0 -35 -4 -43 -30
-56 -16 -8 -34 -15 -39 -15 -6 0 -33 23 -60 51 -38 39 -54 49 -70 44 -18 -5
-20 -12 -14 -50 3 -24 3 -59 -1 -79 -6 -29 -13 -37 -42 -46 -32 -11 -38 -10
-61 11 -14 13 -34 43 -44 66 -15 34 -23 43 -44 43 -21 0 -25 -5 -25 -29 0 -16
-7 -48 -15 -71 -18 -52 -18 -50 -1 -50 12 0 31 51 39 110 3 23 5 22 21 -15 38
-85 82 -109 154 -84 35 12 42 30 42 113 l0 58 45 -46 c51 -51 83 -58 135 -31
28 15 30 19 30 75 0 32 -4 70 -10 84 -11 29 -8 32 12 13 17 -16 97 -47 124
-47 28 0 74 51 74 81 0 14 -11 48 -25 75 -14 27 -25 50 -25 52 0 1 9 2 20 2
11 0 20 -4 20 -10 0 -11 62 -13 98 -4 12 4 29 19 37 35 26 48 19 82 -26 133
-39 44 -40 47 -16 41 15 -4 49 -1 77 6 45 11 51 16 60 48 5 20 10 45 10 57 0
26 -43 67 -95 90 l-40 17 68 10 c56 8 67 13 67 28 0 11 -4 19 -10 19 -5 0 -10
-4 -10 -9z"/>
</g>
</svg>
