<?xml version="1.0" standalone="no"?>
<!DOCTYPE svg PUBLIC "-//W3C//DTD SVG 20010904//EN"
 "http://www.w3.org/TR/2001/REC-SVG-20010904/DTD/svg10.dtd">
<svg version="1.0" xmlns="http://www.w3.org/2000/svg"
 width="100.000000pt" height="100.000000pt" viewBox="0 0 100.000000 100.000000"
 preserveAspectRatio="xMidYMid meet">
<metadata>
Created by potrace 1.16, written by Peter Selinger 2001-2019
</metadata>
<g transform="translate(0.000000,100.000000) scale(0.100000,-0.100000)"
fill="#000000" stroke="none">
<path d="M278 993 c-10 -2 -18 -11 -18 -19 0 -10 -13 -14 -45 -14 -45 0 -45 0
-45 -35 l0 -35 -50 0 -50 0 0 -45 c0 -43 -1 -45 -30 -45 -30 0 -30 -1 -30 -54
0 -30 -3 -61 -6 -70 -4 -11 -1 -16 10 -16 13 0 16 12 16 60 l0 60 30 0 c29 0
30 2 30 45 l0 45 50 0 50 0 0 35 c0 35 0 35 45 35 33 0 45 4 45 15 0 8 7 15
15 15 8 0 15 7 15 15 0 15 -2 16 -32 8z"/>
<path d="M690 986 c0 -9 7 -16 15 -16 8 0 15 -7 15 -15 0 -11 12 -15 45 -15
45 0 45 0 45 -35 l0 -35 50 0 50 0 0 -45 c0 -43 1 -45 30 -45 l30 0 0 -60 c0
-48 3 -60 16 -60 11 0 14 5 10 16 -3 9 -6 40 -6 70 0 53 0 54 -30 54 -29 0
-30 2 -30 45 l0 45 -50 0 -50 0 0 35 c0 35 0 35 -45 35 -33 0 -45 4 -45 15 0
8 -4 15 -9 15 -5 0 -16 3 -25 6 -11 4 -16 1 -16 -10z"/>
<path d="M370 675 c0 -8 9 -15 20 -15 11 0 20 7 20 15 0 8 -9 15 -20 15 -11 0
-20 -7 -20 -15z"/>
<path d="M590 675 c0 -8 7 -15 15 -15 8 0 15 7 15 15 0 8 -7 15 -15 15 -8 0
-15 -7 -15 -15z"/>
<path d="M370 325 c0 -8 9 -15 20 -15 11 0 20 7 20 15 0 8 -9 15 -20 15 -11 0
-20 -7 -20 -15z"/>
<path d="M590 325 c0 -8 7 -15 15 -15 8 0 15 7 15 15 0 8 -7 15 -15 15 -8 0
-15 -7 -15 -15z"/>
<path d="M4 294 c3 -9 6 -33 6 -55 0 -37 2 -39 30 -39 29 0 30 -2 30 -45 l0
-45 50 0 50 0 0 -35 c0 -35 0 -35 45 -35 33 0 45 -4 45 -15 0 -8 4 -15 9 -15
5 0 16 -3 25 -6 11 -4 16 -1 16 10 0 9 -7 16 -15 16 -8 0 -15 7 -15 15 0 11
-12 15 -45 15 -45 0 -45 0 -45 35 l0 35 -50 0 -50 0 0 45 c0 43 -1 45 -30 45
-29 0 -30 2 -30 45 0 35 -4 45 -16 45 -11 0 -14 -5 -10 -16z"/>
<path d="M970 265 c0 -43 -1 -45 -30 -45 -29 0 -30 -2 -30 -45 l0 -45 -50 0
-50 0 0 -35 c0 -35 0 -35 -45 -35 -33 0 -45 -4 -45 -15 0 -8 -7 -15 -15 -15
-8 0 -15 -7 -15 -16 0 -11 5 -14 16 -10 9 3 20 6 25 6 5 0 9 7 9 15 0 11 12
15 45 15 45 0 45 0 45 35 l0 35 50 0 50 0 0 45 c0 43 1 45 30 45 28 0 30 2 30
39 0 22 3 46 6 55 4 11 1 16 -10 16 -12 0 -16 -10 -16 -45z"/>
</g>
</svg>
