<?xml version="1.0" standalone="no"?>
<!DOCTYPE svg PUBLIC "-//W3C//DTD SVG 20010904//EN"
 "http://www.w3.org/TR/2001/REC-SVG-20010904/DTD/svg10.dtd">
<svg version="1.0" xmlns="http://www.w3.org/2000/svg"
 width="256.000000pt" height="256.000000pt" viewBox="0 0 256.000000 256.000000"
 preserveAspectRatio="xMidYMid meet">
<metadata>
Created by potrace 1.16, written by Peter Selinger 2001-2019
</metadata>
<g transform="translate(0.000000,256.000000) scale(0.100000,-0.100000)"
fill="#000000" stroke="none">
<path d="M190 1280 c0 -1131 2 -1280 15 -1280 13 0 15 149 15 1280 0 1131 -2
1280 -15 1280 -13 0 -15 -149 -15 -1280z"/>
<path d="M310 1280 c0 -1131 2 -1280 15 -1280 13 0 15 149 15 1280 0 1131 -2
1280 -15 1280 -13 0 -15 -149 -15 -1280z"/>
<path d="M810 1280 c0 -847 3 -1280 10 -1280 9 0 11 406 11 2395 0 69 0 134
-1 145 0 11 -4 20 -10 20 -7 0 -10 -433 -10 -1280z"/>
<path d="M930 1280 c0 -847 3 -1280 10 -1280 7 0 10 433 10 1280 0 847 -3
1280 -10 1280 -7 0 -10 -433 -10 -1280z"/>
<path d="M881 2454 c0 -11 3 -14 6 -6 3 7 2 16 -1 19 -3 4 -6 -2 -5 -13z"/>
<path d="M257 2405 c-4 -8 -2 -17 3 -20 6 -4 10 3 10 14 0 25 -6 27 -13 6z"/>
<path d="M871 2344 c0 -11 3 -14 6 -6 3 7 2 16 -1 19 -3 4 -6 -2 -5 -13z"/>
<path d="M257 2314 c-4 -4 -7 -14 -7 -23 0 -11 3 -12 11 -4 6 6 10 16 7 23 -2
6 -7 8 -11 4z"/>
</g>
</svg>
