<?xml version="1.0" standalone="no"?>
<!DOCTYPE svg PUBLIC "-//W3C//DTD SVG 20010904//EN"
 "http://www.w3.org/TR/2001/REC-SVG-20010904/DTD/svg10.dtd">
<svg version="1.0" xmlns="http://www.w3.org/2000/svg"
 width="64.000000pt" height="64.000000pt" viewBox="0 0 64.000000 64.000000"
 preserveAspectRatio="xMidYMid meet">
<metadata>
Created by potrace 1.16, written by Peter Selinger 2001-2019
</metadata>
<g transform="translate(0.000000,64.000000) scale(0.100000,-0.100000)"
fill="#000000" stroke="none">
<path d="M0 613 c1 -24 3 -26 13 -13 7 8 19 21 27 28 12 10 9 12 -13 12 -23 0
-27 -4 -27 -27z"/>
<path d="M600 627 c8 -7 21 -19 28 -27 10 -12 12 -9 12 13 0 23 -4 27 -27 27
-24 -1 -26 -3 -13 -13z"/>
<path d="M140 458 c-62 -42 -64 -108 -3 -108 27 0 73 41 73 65 0 25 -15 17
-27 -15 -9 -24 -17 -30 -42 -30 -26 0 -31 4 -31 24 0 48 86 88 142 67 41 -15
53 -46 28 -71 -32 -32 -44 -23 -20 15 12 19 17 35 11 35 -5 0 -29 -32 -51 -71
-55 -94 -133 -141 -147 -89 -7 27 -25 25 -21 -2 2 -19 10 -24 44 -26 47 -3 93
27 120 80 21 40 38 24 23 -20 -18 -53 -11 -58 82 -56 118 2 133 3 126 10 -3 4
-1 16 5 27 8 16 7 23 -5 32 -13 9 -10 14 19 34 49 34 63 97 16 72 -17 -9 -51
-56 -108 -148 -7 -10 -15 -15 -19 -11 -3 3 1 18 10 32 10 15 13 26 6 26 -6 0
-17 -13 -25 -29 -9 -16 -22 -31 -31 -34 -19 -8 -19 3 1 31 27 39 8 36 -30 -5
l-36 -38 3 52 c1 30 7 53 13 53 21 0 47 39 42 64 -4 22 0 27 29 37 24 8 42 8
65 0 37 -13 49 -7 18 9 -13 7 -41 9 -69 6 -56 -7 -63 -7 -126 0 -42 5 -56 2
-85 -18z m349 -55 c-6 -10 -23 -27 -37 -38 -27 -19 -27 -19 -12 0 29 40 43 55
52 55 4 0 3 -8 -3 -17z m-49 -97 c0 -17 -26 -39 -40 -34 -6 2 -4 12 5 26 18
25 35 29 35 8z"/>
<path d="M567 393 c-12 -11 -8 -23 8 -23 8 0 15 7 15 15 0 16 -12 20 -23 8z"/>
<path d="M505 350 c3 -5 8 -10 11 -10 2 0 4 5 4 10 0 6 -5 10 -11 10 -5 0 -7
-4 -4 -10z"/>
<path d="M479 308 c-7 -13 -16 -25 -20 -28 -4 -3 -4 -11 0 -19 7 -10 13 -10
29 -2 14 7 23 8 27 1 10 -16 24 -12 50 15 32 31 32 55 1 55 -16 0 -34 -12 -50
-32 -29 -37 -46 -32 -21 6 10 15 13 26 7 26 -6 0 -17 -10 -23 -22z m91 -2 c0
-17 -26 -39 -40 -34 -6 2 -4 12 5 26 18 25 35 29 35 8z"/>
<path d="M50 200 c0 -22 4 -40 9 -40 10 0 23 58 15 71 -13 21 -24 6 -24 -31z"/>
<path d="M106 231 c-8 -13 5 -71 15 -71 12 0 11 67 0 75 -5 3 -12 1 -15 -4z"/>
<path d="M150 226 c-6 -8 -10 -25 -8 -38 2 -17 10 -23 28 -23 18 0 26 6 28 23
3 22 -13 52 -28 52 -4 0 -13 -7 -20 -14z m30 -26 c0 -11 -4 -20 -10 -20 -5 0
-10 9 -10 20 0 11 5 20 10 20 6 0 10 -9 10 -20z"/>
<path d="M210 200 c0 -22 4 -40 9 -40 10 0 23 58 15 71 -13 21 -24 6 -24 -31z"/>
<path d="M246 209 c-9 -45 -8 -49 9 -49 11 0 15 11 15 40 0 48 -15 53 -24 9z"/>
<path d="M290 226 c-6 -8 -10 -25 -8 -38 2 -17 10 -23 28 -23 20 0 26 6 28 29
5 40 -25 59 -48 32z m30 -33 c0 -20 -3 -24 -11 -16 -7 7 -9 19 -6 27 10 24 17
19 17 -11z"/>
<path d="M365 227 c-13 -10 -16 -21 -11 -40 6 -25 10 -27 59 -24 50 2 52 3 55
33 3 35 -20 53 -43 34 -9 -8 -15 -8 -20 0 -8 13 -17 13 -40 -3z m45 -31 c0
-19 -4 -23 -20 -19 -30 8 -25 43 7 43 7 0 13 -11 13 -24z m40 -10 c-14 -14
-24 0 -16 21 6 15 8 15 16 3 6 -9 5 -19 0 -24z"/>
<path d="M491 203 c-11 -39 -6 -57 10 -33 8 13 10 13 18 0 17 -25 24 -3 11 34
-15 46 -26 46 -39 -1z"/>
<path d="M540 231 c0 -6 5 -13 11 -17 6 -3 8 -17 5 -30 -5 -18 -2 -24 10 -24
12 0 15 7 12 25 -3 14 -1 28 3 31 18 10 8 24 -16 24 -14 0 -25 -4 -25 -9z"/>
<path d="M80 180 c0 -11 5 -20 10 -20 6 0 10 9 10 20 0 11 -4 20 -10 20 -5 0
-10 -9 -10 -20z"/>
<path d="M0 28 c0 -24 4 -28 27 -28 22 0 25 2 13 13 -8 6 -20 19 -27 27 -10
13 -12 11 -13 -12z"/>
<path d="M611 25 l-23 -25 26 0 c21 0 26 5 26 25 0 30 1 30 -29 0z"/>
</g>
</svg>
