<?xml version="1.0" standalone="no"?>
<!DOCTYPE svg PUBLIC "-//W3C//DTD SVG 20010904//EN"
 "http://www.w3.org/TR/2001/REC-SVG-20010904/DTD/svg10.dtd">
<svg version="1.0" xmlns="http://www.w3.org/2000/svg"
 width="64.000000pt" height="64.000000pt" viewBox="0 0 64.000000 64.000000"
 preserveAspectRatio="xMidYMid meet">
<metadata>
Created by potrace 1.16, written by Peter Selinger 2001-2019
</metadata>
<g transform="translate(0.000000,64.000000) scale(0.100000,-0.100000)"
fill="#000000" stroke="none">
<path d="M91 523 c-42 -21 -71 -67 -71 -115 0 -44 27 -68 80 -68 l35 -1 -28
-24 c-32 -28 -57 -32 -57 -10 0 9 -9 15 -25 15 -14 0 -25 -4 -25 -10 0 -5 7
-10 15 -10 8 0 12 -6 9 -14 -8 -22 30 -29 68 -13 19 8 45 27 57 43 23 29 111
164 111 170 0 2 -16 7 -35 13 -45 12 -90 0 -127 -36 -31 -30 -36 -54 -13 -73
22 -18 55 -2 71 36 17 41 39 46 30 7 -13 -55 -78 -87 -121 -59 -30 20 -31 40
-6 82 28 47 80 67 154 60 76 -7 78 -7 152 0 44 4 65 1 80 -10 25 -18 14 -32
-13 -17 -23 12 -65 14 -99 5 -19 -5 -23 -13 -23 -44 0 -36 -23 -70 -48 -70 -7
0 -12 -13 -12 -29 0 -16 -4 -41 -10 -55 -14 -37 1 -32 46 13 45 47 64 44 34
-5 -28 -45 -7 -44 22 1 13 19 29 35 36 35 16 0 15 -12 -3 -36 -8 -10 -15 -23
-15 -27 0 -18 21 7 51 60 42 73 96 133 120 133 33 0 22 -40 -22 -82 -33 -32
-39 -42 -29 -53 7 -8 9 -23 6 -32 -5 -15 -3 -14 10 2 8 11 19 27 24 35 18 31
23 -2 6 -38 l-18 -37 42 43 c33 34 48 43 66 39 20 -3 24 0 24 19 0 17 -6 24
-20 24 -12 0 -20 7 -20 16 0 9 9 18 20 21 30 8 24 25 -7 21 -20 -2 -29 -9 -31
-25 -6 -43 -17 -23 -13 23 l3 46 -46 -3 c-38 -4 -46 -1 -46 13 0 31 -34 37
-196 37 -127 0 -166 -3 -193 -16z m328 -55 l38 -12 -28 -39 c-15 -21 -29 -43
-31 -49 -3 -7 -19 -8 -47 -3 -31 5 -40 10 -32 18 6 6 11 28 11 48 0 36 6 42
43 48 4 0 25 -4 46 -11z m-289 -37 c-10 -20 -30 -29 -30 -14 0 10 33 44 37 39
3 -2 0 -14 -7 -25z m430 -61 c0 -5 -4 -10 -10 -10 -5 0 -10 5 -10 10 0 6 5 10
10 10 6 0 10 -4 10 -10z m-270 -14 c0 -3 -4 -8 -10 -11 -5 -3 -10 -1 -10 4 0
6 5 11 10 11 6 0 10 -2 10 -4z"/>
<path d="M263 448 c-21 -27 -34 -58 -23 -58 15 0 50 38 50 55 0 18 -14 20 -27
3z"/>
<path d="M500 425 c-13 -14 -19 -25 -13 -25 6 0 18 11 27 25 9 14 15 25 13 25
-2 0 -14 -11 -27 -25z"/>
<path d="M190 330 c-33 -64 -108 -103 -162 -82 -22 8 -28 7 -28 -4 0 -8 9 -14
19 -14 11 0 22 -8 24 -17 4 -17 5 -17 6 0 1 20 51 25 51 5 0 -10 2 -10 9 0 5
8 21 12 37 10 26 -3 29 -6 29 -42 0 -47 -24 -68 -55 -48 -12 7 -20 8 -20 2 0
-17 -28 -11 -33 7 -4 17 -5 17 -6 1 -1 -13 -10 -18 -31 -18 -17 0 -30 -4 -30
-10 0 -6 115 -10 320 -10 l320 0 -2 53 c-1 50 -2 50 -5 10 -6 -58 -33 -60 -33
-3 0 22 -4 40 -10 40 -5 0 -10 5 -10 10 0 6 14 10 30 10 28 0 30 3 30 35 l0
34 -23 -23 c-22 -22 -29 -23 -216 -23 l-193 -1 6 31 c3 18 9 44 12 60 10 41
-12 33 -36 -13z m0 -70 c0 -5 -5 -10 -11 -10 -5 0 -7 5 -4 10 3 6 8 10 11 10
2 0 4 -4 4 -10z m39 -47 c10 -17 10 -17 11 0 0 9 5 17 10 17 6 0 10 -22 10
-50 0 -55 -18 -68 -38 -27 l-11 22 0 -22 c-2 -47 -21 -21 -21 27 0 53 18 68
39 33z m117 6 c4 -8 9 -8 17 0 17 17 57 13 57 -6 0 -9 -3 -13 -7 -10 -3 4 -12
2 -19 -4 -15 -13 -7 -39 12 -39 8 0 14 -7 14 -15 0 -19 -34 -19 -53 0 -13 13
-16 13 -27 0 -15 -18 -42 -19 -58 -3 -13 13 -17 70 -5 81 10 11 61 8 69 -4z
m157 -9 l14 -21 6 21 c7 28 36 25 47 -5 21 -56 23 -75 6 -75 -9 0 -16 5 -16
10 0 6 -7 10 -15 10 -8 0 -15 -4 -15 -9 0 -15 -91 -6 -101 10 -34 53 38 110
74 59z"/>
<path d="M300 180 c0 -11 5 -20 10 -20 6 0 10 9 10 20 0 11 -4 20 -10 20 -5 0
-10 -9 -10 -20z"/>
<path d="M457 198 c-3 -8 -2 -21 3 -27 11 -19 23 5 12 25 -8 14 -10 14 -15 2z"/>
<path d="M424 305 c-9 -14 -14 -28 -10 -32 8 -9 46 27 46 44 0 21 -18 15 -36
-12z"/>
<path d="M582 310 c-23 -25 -28 -40 -14 -40 15 0 44 38 40 51 -3 8 -12 4 -26
-11z"/>
<path d="M130 180 c0 -11 5 -20 10 -20 6 0 10 9 10 20 0 11 -4 20 -10 20 -5 0
-10 -9 -10 -20z"/>
</g>
</svg>
