<?xml version="1.0" standalone="no"?>
<!DOCTYPE svg PUBLIC "-//W3C//DTD SVG 20010904//EN"
 "http://www.w3.org/TR/2001/REC-SVG-20010904/DTD/svg10.dtd">
<svg version="1.0" xmlns="http://www.w3.org/2000/svg"
 width="96.000000pt" height="96.000000pt" viewBox="0 0 96.000000 96.000000"
 preserveAspectRatio="xMidYMid meet">
<metadata>
Created by potrace 1.16, written by Peter Selinger 2001-2019
</metadata>
<g transform="translate(0.000000,96.000000) scale(0.100000,-0.100000)"
fill="#000000" stroke="none">
<path d="M920 906 c8 -10 10 -41 6 -103 -13 -191 -18 -643 -7 -643 6 0 11 -21
11 -48 0 -85 14 -82 -383 -82 -271 0 -347 -3 -347 -12 0 -10 73 -12 337 -11
186 2 348 5 360 8 39 9 51 43 57 160 5 108 5 109 -8 55 -13 -51 -14 -39 -15
180 0 131 4 255 10 280 6 25 11 87 12 138 2 91 2 92 -22 92 -19 0 -21 -3 -11
-14z"/>
<path d="M320 880 c-93 -20 -130 -72 -137 -193 -7 -103 7 -157 52 -202 44 -44
79 -52 249 -63 169 -12 182 -19 180 -110 -1 -69 -15 -99 -52 -109 -15 -5 -78
-8 -139 -8 -139 0 -154 10 -161 105 l-4 60 -64 0 -64 0 0 -71 c0 -135 29 -182
127 -205 71 -17 253 -18 342 -3 85 15 123 50 140 127 23 109 7 247 -34 288
-31 31 -79 43 -230 55 -180 14 -187 16 -204 66 -12 34 -13 49 -3 82 18 58 38
66 169 66 133 0 152 -10 160 -89 l6 -46 63 0 64 0 0 67 c0 92 -26 145 -83 169
-49 20 -300 29 -377 14z m285 -20 c38 -6 80 -17 92 -25 32 -21 54 -69 60 -131
l6 -54 -45 0 -45 0 -5 51 c-8 81 -15 84 -184 84 l-146 0 -24 -28 c-20 -24 -24
-39 -24 -98 0 -97 18 -115 126 -123 160 -13 255 -27 289 -43 51 -24 68 -76 63
-195 -6 -155 -33 -183 -198 -200 -113 -12 -248 0 -300 27 -41 21 -60 63 -67
146 l-6 69 47 0 46 0 0 -49 c0 -110 27 -125 223 -120 113 4 129 6 148 25 23
24 36 116 25 179 -10 50 -42 62 -191 70 -144 8 -184 17 -225 51 -49 42 -63 79
-63 166 1 91 22 143 69 170 58 34 202 46 329 28z"/>
</g>
</svg>
