<?xml version="1.0" standalone="no"?>
<!DOCTYPE svg PUBLIC "-//W3C//DTD SVG 20010904//EN"
 "http://www.w3.org/TR/2001/REC-SVG-20010904/DTD/svg10.dtd">
<svg version="1.0" xmlns="http://www.w3.org/2000/svg"
 width="256.000000pt" height="256.000000pt" viewBox="0 0 256.000000 256.000000"
 preserveAspectRatio="xMidYMid meet">
<metadata>
Created by potrace 1.16, written by Peter Selinger 2001-2019
</metadata>
<g transform="translate(0.000000,256.000000) scale(0.100000,-0.100000)"
fill="#000000" stroke="none">
<path d="M1566 1688 c-32 -32 -56 -62 -52 -65 3 -3 2 -11 -3 -17 -6 -7 -2 -15
13 -22 16 -7 23 -7 23 0 4 53 14 81 38 106 15 16 31 27 36 25 4 -3 10 1 12 7
4 10 8 9 16 -2 7 -10 11 -154 11 -430 l0 -416 23 0 22 0 -3 262 c-3 262 -3
263 19 275 21 11 94 7 106 -5 3 -3 0 -14 -8 -23 -13 -16 -12 -17 3 -5 15 12
25 6 82 -51 l66 -64 0 -191 0 -192 23 0 c21 0 22 3 22 87 0 72 3 86 16 88 9 2
55 -36 105 -86 l89 -89 98 0 c102 0 135 -11 117 -40 -6 -10 -38 -14 -117 -16
-59 0 -110 2 -113 5 -3 3 -37 36 -75 73 l-70 68 3 -54 c2 -30 -1 -64 -8 -75
-10 -19 -18 -22 -73 -19 l-62 3 -3 206 -2 207 -48 43 c-26 24 -51 52 -57 63
-6 11 -21 20 -35 20 l-25 1 3 -245 c3 -252 0 -296 -20 -284 -7 4 -8 3 -4 -4 4
-7 2 -12 -3 -12 -6 0 -11 6 -11 13 0 9 -2 9 -8 0 -9 -15 -48 -10 -45 6 2 6 -2
11 -8 11 -6 0 -9 -7 -5 -15 3 -9 0 -15 -9 -15 -8 0 -15 5 -15 11 0 5 -4 8 -10
4 -5 -3 -7 -12 -3 -20 4 -11 22 -15 67 -15 94 0 96 8 96 308 l0 237 25 -25
c13 -14 40 -41 60 -60 l35 -35 0 -200 c0 -143 3 -204 12 -213 7 -7 40 -12 79
-12 59 0 70 3 83 22 9 12 16 35 16 51 l0 29 57 -51 56 -50 108 0 c117 1 149
12 149 53 0 39 -18 46 -121 46 l-98 0 -83 84 c-89 88 -115 104 -147 87 -18
-10 -19 -6 -23 99 l-3 110 -75 75 c-72 72 -76 75 -122 75 -26 0 -59 -5 -73
-12 l-25 -11 0 -259 c0 -165 -4 -258 -10 -258 -7 0 -10 145 -10 414 0 228 -3
421 -6 430 -11 28 -37 15 -98 -46z m-23 -58 c-6 -23 -22 -37 -19 -18 2 14 15
38 21 38 2 0 1 -9 -2 -20z"/>
<path d="M1568 1643 c-8 -41 -3 -63 13 -63 18 0 19 -18 22 -367 l2 -368 0 393
c0 215 3 394 8 396 4 3 2 3 -5 2 -7 -2 -13 -9 -13 -16 0 -7 -6 -15 -14 -18
-10 -3 -12 2 -7 22 3 14 4 26 1 26 -3 0 -6 -3 -7 -7z"/>
<path d="M1410 1513 c-19 -18 -30 -33 -23 -33 6 0 15 5 18 10 11 18 26 10 20
-10 -4 -11 -2 -20 4 -20 6 0 11 3 12 8 1 14 7 37 14 53 12 30 -9 26 -45 -8z"/>
<path d="M1491 1526 c-9 -11 -9 -16 1 -22 7 -4 10 -4 6 1 -4 4 -3 14 3 22 6 7
9 13 6 13 -2 0 -10 -6 -16 -14z"/>
<path d="M1456 1505 c-3 -8 -1 -15 4 -15 6 0 10 7 10 15 0 8 -2 15 -4 15 -2 0
-6 -7 -10 -15z"/>
<path d="M1368 1375 c-2 -47 0 -85 4 -85 3 0 8 38 10 85 2 47 0 85 -4 85 -3 0
-8 -38 -10 -85z"/>
<path d="M1420 1345 c0 -58 4 -105 8 -105 5 0 8 -10 8 -22 -1 -13 4 -22 11
-21 7 2 11 -3 9 -10 -1 -6 -1 -9 1 -4 3 4 9 5 14 2 5 -4 6 2 2 11 -5 13 -3 15
8 9 8 -5 11 -4 6 1 -5 5 -16 9 -25 9 -20 0 -19 -4 -21 130 0 63 -5 105 -11
105 -6 0 -10 -42 -10 -105z"/>
<path d="M1237 1338 c-16 -11 -45 -36 -65 -56 -20 -19 -47 -41 -59 -49 -13 -9
-20 -20 -16 -26 3 -5 2 -7 -4 -4 -5 3 -21 -5 -36 -19 -27 -25 -27 -26 -27
-163 l0 -139 -24 2 c-24 1 -25 4 -28 84 -2 45 0 82 5 82 4 0 7 -34 7 -75 0
-43 4 -75 10 -75 13 0 13 126 -1 151 -6 11 -17 18 -24 15 -7 -2 -21 4 -31 15
-15 17 -12 21 14 18 4 -1 6 -5 5 -10 -2 -5 2 -9 7 -9 17 0 11 28 -12 53 -70
74 -207 16 -209 -89 0 -21 -3 -32 -6 -24 -3 8 -17 27 -31 43 -21 22 -34 27
-73 27 -40 0 -51 -4 -73 -31 -14 -17 -26 -39 -26 -50 0 -24 -6 -24 -37 1 -42
33 -118 23 -150 -19 -7 -9 -13 -33 -13 -53 l0 -38 -110 0 c-98 0 -110 -2 -120
-19 -14 -27 -13 -50 4 -67 11 -11 47 -14 159 -14 125 0 146 2 151 16 6 16 8
16 24 0 23 -20 151 -23 170 -4 7 7 12 43 12 89 0 43 5 81 10 84 6 4 10 -22 10
-72 1 -107 8 -115 101 -111 67 3 75 5 86 28 8 15 13 64 13 121 0 116 12 137
55 92 26 -27 27 -31 22 -119 -5 -116 0 -124 79 -123 l59 2 -60 12 c-66 13 -48
25 22 14 23 -3 40 -2 37 2 -2 4 0 10 6 14 6 4 10 65 10 156 l0 149 43 30 c23
17 53 38 66 48 13 9 27 19 32 22 4 3 6 14 5 25 -4 26 23 57 44 50 11 -3 16 1
17 15 2 26 -15 25 -50 -2z m-37 -78 c0 -5 -2 -10 -4 -10 -3 0 -8 5 -11 10 -3
6 -1 10 4 10 6 0 11 -4 11 -10z m-100 -74 c0 -3 -4 -8 -10 -11 -5 -3 -10 -1
-10 4 0 6 5 11 10 11 6 0 10 -2 10 -4z m-51 -330 c-9 -8 -10 -5 -5 14 3 14 7
86 8 160 l2 135 3 -149 c3 -104 0 -153 -8 -160z m-116 275 c4 -4 -11 -7 -35
-5 l-43 3 24 -20 c12 -10 27 -16 32 -13 5 3 9 -2 9 -10 0 -9 7 -16 15 -16 21
0 27 -35 23 -128 -2 -47 1 -77 6 -72 5 5 18 5 31 0 13 -5 26 -6 30 -2 3 3 3
-2 -1 -12 -5 -14 -9 -15 -15 -4 -5 7 -9 9 -9 3 0 -5 -15 -11 -33 -12 l-32 -1
3 93 c3 74 0 99 -13 119 -21 31 -48 41 -75 26 -18 -10 -20 -20 -20 -120 0
-130 -6 -140 -84 -140 -28 0 -57 5 -64 12 -7 7 -12 42 -12 88 0 89 -8 107 -39
91 -19 -11 -21 -20 -21 -95 0 -67 -3 -85 -16 -90 -22 -8 -107 -7 -121 2 -6 4
-13 34 -15 67 -2 45 -7 60 -18 60 -11 0 -16 -14 -18 -55 -2 -30 -8 -60 -14
-67 -7 -9 -46 -13 -135 -13 -129 0 -154 7 -145 42 4 16 18 18 122 18 l118 0
-4 41 c-3 33 1 44 23 65 30 28 63 31 98 8 21 -14 25 -24 25 -65 0 -47 1 -49
28 -49 28 0 28 0 22 54 -10 89 18 136 81 136 30 0 43 -6 64 -32 24 -28 26 -38
23 -95 -3 -60 -2 -63 20 -63 21 0 22 3 22 95 0 107 12 138 65 161 30 14 82 11
98 -5z"/>
<path d="M484 863 c2 -14 14 -19 47 -21 47 -3 51 4 5 12 -15 3 -34 10 -41 16
-10 9 -13 7 -11 -7z"/>
<path d="M723 843 c15 -2 37 -2 50 0 12 2 0 4 -28 4 -27 0 -38 -2 -22 -4z"/>
<path d="M1294 1324 c1 -15 -15 -23 -51 -26 -6 -1 -9 -7 -6 -15 4 -10 9 -11
19 -2 13 11 53 -10 93 -49 19 -18 25 -8 9 17 -7 12 -20 21 -29 21 -20 0 -44
26 -31 34 6 3 15 -1 22 -9 22 -27 32 -16 13 15 -19 32 -42 40 -39 14z"/>
<path d="M1377 1213 c-10 -9 -9 -373 1 -371 4 0 15 -2 24 -6 10 -5 38 -6 63
-4 25 2 45 -1 45 -6 0 -4 -29 -6 -64 -4 -49 3 -63 1 -59 -9 4 -9 26 -13 68
-13 56 0 63 2 68 21 8 30 8 363 0 355 -3 -3 -13 0 -22 6 -12 10 -12 8 2 -8 14
-18 17 -42 17 -172 l0 -152 -25 0 c-14 0 -25 6 -25 13 0 9 -2 9 -9 -1 -5 -8
-22 -12 -42 -10 l-34 3 0 183 c0 100 0 182 -1 182 0 0 -4 -3 -7 -7z"/>
<path d="M1427 1173 c-11 -18 -7 -307 4 -296 5 5 8 75 7 159 -2 82 -7 144 -11
137z"/>
<path d="M1468 1000 c-2 -66 0 -120 5 -120 4 0 7 54 7 120 0 66 -2 120 -4 120
-3 0 -6 -54 -8 -120z"/>
<path d="M1956 852 c-3 -5 1 -9 9 -9 8 0 15 4 15 9 0 4 -4 8 -9 8 -6 0 -12 -4
-15 -8z"/>
<path d="M1990 852 c0 -5 7 -9 15 -9 8 0 12 4 9 9 -3 4 -9 8 -15 8 -5 0 -9 -4
-9 -8z"/>
</g>
</svg>
