<?xml version="1.0" standalone="no"?>
<!DOCTYPE svg PUBLIC "-//W3C//DTD SVG 20010904//EN"
 "http://www.w3.org/TR/2001/REC-SVG-20010904/DTD/svg10.dtd">
<svg version="1.0" xmlns="http://www.w3.org/2000/svg"
 width="100.000000pt" height="100.000000pt" viewBox="0 0 100.000000 100.000000"
 preserveAspectRatio="xMidYMid meet">
<metadata>
Created by potrace 1.16, written by Peter Selinger 2001-2019
</metadata>
<g transform="translate(0.000000,100.000000) scale(0.100000,-0.100000)"
fill="#000000" stroke="none">
<path d="M583 895 c-13 -13 -23 -27 -23 -30 0 -3 -36 -41 -80 -85 l-80 -79 0
-91 c0 -85 -1 -90 -21 -90 -12 0 -34 14 -49 30 -39 42 -63 38 -120 -20 -27
-27 -56 -50 -65 -50 -8 0 -31 -16 -50 -35 l-35 -34 0 -131 c0 -85 -4 -130 -11
-130 -5 0 -7 5 -4 10 3 6 -1 10 -9 10 -12 0 -16 -10 -16 -35 0 -34 1 -35 40
-35 l40 0 0 146 c0 146 6 174 39 174 6 0 11 5 11 10 0 6 10 10 23 10 18 0 19
2 7 10 -13 8 -12 10 3 10 10 0 36 18 57 40 36 37 59 53 45 30 -3 -5 1 -10 9
-10 9 0 16 -4 16 -10 0 -5 7 -10 16 -10 39 0 44 -22 44 -204 0 -107 4 -176 10
-176 6 0 9 69 9 176 -1 96 2 178 5 181 3 4 6 -80 6 -185 l0 -192 46 0 c71 0
74 7 74 170 0 136 -1 142 -25 165 -13 14 -31 25 -40 25 -13 0 -15 18 -15 111
l0 110 60 59 c33 32 60 66 60 74 0 9 9 16 20 16 20 0 20 -6 18 -352 l-3 -353
-5 340 -5 340 -3 -338 c-2 -282 0 -341 12 -353 10 -9 36 -14 78 -14 44 0 59 3
48 10 -10 6 -11 10 -2 10 9 0 12 55 12 240 l0 240 23 0 c18 0 19 -2 7 -10 -12
-8 -10 -10 10 -10 20 0 22 -2 10 -10 -13 -8 -12 -10 3 -10 11 0 32 -13 47 -30
15 -16 33 -30 39 -30 8 0 11 -61 11 -200 l0 -200 40 0 c39 0 40 1 40 35 0 25
-4 35 -16 35 -8 0 -12 -4 -9 -10 3 -5 1 -10 -4 -10 -7 0 -11 60 -11 180 0 179
0 181 -25 205 -13 14 -28 25 -32 25 -5 0 -15 9 -23 20 -8 11 -22 20 -32 20
-10 0 -18 5 -18 11 0 5 5 7 10 4 6 -3 10 -1 10 4 0 6 -25 12 -57 13 l-58 1 50
7 50 7 -52 1 -53 2 0 -250 c0 -243 -1 -250 -20 -250 -20 0 -20 7 -20 385 0
251 -3 385 -10 385 -7 0 -9 -133 -8 -385 2 -212 0 -385 -4 -385 -5 0 -8 173
-8 385 0 212 -3 385 -7 384 -5 0 -18 -11 -30 -24z m17 -41 c0 -8 -5 -12 -10
-9 -6 4 -8 11 -5 16 9 14 15 11 15 -7z m-173 -326 c-2 -29 -3 -8 -3 47 0 55 1
79 3 53 2 -26 2 -71 0 -100z m8 -98 c-3 -5 -1 -10 5 -10 32 0 40 -28 40 -149
l0 -121 -30 0 -30 0 0 145 c0 95 4 145 11 145 5 0 7 -4 4 -10z m-352 -317 c-7
-2 -21 -2 -30 0 -10 3 -4 5 12 5 17 0 24 -2 18 -5z m385 0 c-10 -2 -28 -2 -40
0 -13 2 -5 4 17 4 22 1 32 -1 23 -4z m215 0 c-13 -2 -35 -2 -50 0 -16 2 -5 4
22 4 28 0 40 -2 28 -4z m250 0 c-7 -2 -21 -2 -30 0 -10 3 -4 5 12 5 17 0 24
-2 18 -5z"/>
<path d="M434 290 c0 -63 1 -89 3 -57 2 31 2 83 0 115 -2 31 -3 5 -3 -58z"/>
<path d="M371 619 c0 -73 3 -88 10 -69 11 26 7 145 -4 157 -4 3 -7 -36 -6 -88z"/>
<path d="M20 250 c0 -33 4 -60 10 -60 6 0 10 27 10 60 0 33 -4 60 -10 60 -6 0
-10 -27 -10 -60z"/>
</g>
</svg>
