<?xml version="1.0" standalone="no"?>
<!DOCTYPE svg PUBLIC "-//W3C//DTD SVG 20010904//EN"
 "http://www.w3.org/TR/2001/REC-SVG-20010904/DTD/svg10.dtd">
<svg version="1.0" xmlns="http://www.w3.org/2000/svg"
 width="58.000000pt" height="58.000000pt" viewBox="0 0 58.000000 58.000000"
 preserveAspectRatio="xMidYMid meet">
<metadata>
Created by potrace 1.16, written by Peter Selinger 2001-2019
</metadata>
<g transform="translate(0.000000,58.000000) scale(0.100000,-0.100000)"
fill="#000000" stroke="none">
<path d="M0 550 c0 -6 67 -10 182 -10 l182 0 -47 -48 c-36 -37 -47 -55 -47
-80 0 -30 -2 -32 -34 -32 -25 0 -49 -12 -97 -51 -35 -28 -65 -55 -67 -60 -2
-5 -19 -9 -38 -9 -19 0 -34 -4 -34 -10 0 -5 11 -10 24 -10 34 0 48 -22 56 -88
l7 -57 2 80 1 80 60 48 c75 60 83 62 114 42 l26 -17 0 49 c0 46 3 52 58 105
32 31 69 58 85 60 l27 5 0 -223 c0 -143 4 -224 10 -224 6 0 10 55 10 145 l0
145 32 0 c17 0 40 -8 51 -17 18 -17 19 -17 16 7 -4 22 -9 25 -51 28 l-48 3 0
65 0 64 50 0 c28 0 50 5 50 10 0 6 -103 10 -290 10 -187 0 -290 -4 -290 -10z"/>
<path d="M373 448 c-40 -41 -43 -47 -43 -100 0 -48 3 -58 25 -72 24 -16 25
-22 25 -106 l0 -90 -45 0 -45 0 0 97 c0 94 -1 98 -27 119 l-27 21 -53 -41 -53
-41 0 -77 0 -78 -45 0 -45 0 0 55 c0 41 -4 57 -15 62 -21 7 -32 -4 -17 -19 15
-15 16 -98 2 -98 -5 0 -10 -4 -10 -10 0 -6 103 -10 290 -10 187 0 290 4 290
10 0 6 -11 10 -25 10 l-25 0 0 115 c0 112 1 115 20 103 35 -22 36 3 0 33 l-35
30 -5 -143 -5 -143 -40 0 -40 0 -5 208 -5 208 -42 -43z m27 -93 l0 -75 -25 16
c-33 21 -35 78 -3 111 12 13 23 23 25 23 2 0 3 -34 3 -75z m-130 -185 l0 -90
-60 0 -60 0 0 68 0 68 43 31 c65 47 77 35 77 -77z"/>
<path d="M333 170 c0 -41 2 -58 4 -37 2 20 2 54 0 75 -2 20 -4 3 -4 -38z"/>
</g>
</svg>
