<?xml version="1.0" standalone="no"?>
<!DOCTYPE svg PUBLIC "-//W3C//DTD SVG 20010904//EN"
 "http://www.w3.org/TR/2001/REC-SVG-20010904/DTD/svg10.dtd">
<svg version="1.0" xmlns="http://www.w3.org/2000/svg"
 width="152.000000pt" height="180.000000pt" viewBox="0 0 152.000000 180.000000"
 preserveAspectRatio="xMidYMid meet">
<metadata>
Created by potrace 1.16, written by Peter Selinger 2001-2019
</metadata>
<g transform="translate(0.000000,180.000000) scale(0.100000,-0.100000)"
fill="#000000" stroke="none">
<path d="M660 1768 c-53 -46 -152 -89 -219 -95 -45 -4 -85 1 -179 26 -144 37
-199 39 -236 10 -27 -21 -36 -59 -13 -55 6 1 23 9 37 19 33 23 52 22 192 -14
99 -26 134 -31 198 -27 96 6 182 44 259 114 53 49 53 50 25 51 -20 2 -40 -8
-64 -29z m30 -20 c-25 -22 -74 -55 -110 -71 -54 -26 -78 -31 -150 -33 l-85 -2
86 7 c99 9 188 46 254 104 22 20 42 36 45 36 3 0 -15 -18 -40 -41z m-587 -47
c-23 -4 -51 -14 -61 -22 -10 -8 -7 -4 6 9 16 15 34 22 60 21 l37 -2 -42 -6z
m132 -22 c14 -6 9 -7 -15 -3 -19 4 -44 11 -55 15 -14 6 -9 7 15 3 19 -4 44
-11 55 -15z m104 -25 c9 -8 -45 -2 -64 6 -14 7 -8 8 20 3 22 -3 42 -7 44 -9z"/>
<path d="M821 1746 c30 -27 83 -63 119 -80 60 -29 72 -31 170 -30 84 1 122 6
189 27 99 31 137 34 171 10 14 -10 31 -18 37 -19 23 -4 14 34 -13 55 -37 29
-110 27 -215 -5 -121 -38 -233 -39 -312 -2 -32 15 -77 43 -101 63 -30 24 -52
34 -71 33 -27 -3 -27 -3 26 -52z m131 -67 c35 -16 52 -27 38 -23 -48 13 -115
52 -160 94 l-45 42 52 -41 c28 -23 80 -55 115 -72z m520 9 c13 -13 16 -16 5
-8 -10 8 -39 17 -65 21 l-47 6 42 2 c31 1 48 -5 65 -21z m-142 -3 c-19 -7 -42
-13 -50 -13 -8 0 1 6 20 13 19 7 42 13 50 13 8 0 -1 -6 -20 -13z m-85 -25
c-11 -5 -31 -8 -45 -8 -23 0 -22 1 5 8 42 11 65 11 40 0z m-139 -18 c-38 -2
-73 1 -77 5 -4 4 27 6 69 3 l77 -5 -69 -3z"/>
<path d="M725 1730 c-16 -16 -35 -30 -42 -30 -7 0 -13 -4 -13 -10 0 -12 -90
-55 -145 -69 -73 -19 -183 -14 -285 12 -157 41 -155 41 -184 6 -30 -35 -30
-34 -10 -119 50 -218 49 -336 -2 -567 -9 -40 -21 -73 -28 -73 -12 0 -13 -52
-2 -135 4 -27 3 -72 -2 -98 -8 -37 -7 -50 3 -53 7 -3 16 -17 20 -32 23 -96 88
-189 185 -267 33 -27 158 -82 303 -135 65 -23 147 -62 183 -86 l66 -43 33 33
c17 18 47 38 66 45 47 18 69 27 109 44 19 8 55 20 79 27 24 6 51 15 60 19 9 5
48 24 86 42 39 19 72 37 73 42 2 4 10 7 18 7 8 0 14 4 14 10 0 5 4 9 8 7 13
-3 101 103 126 153 13 25 29 63 36 85 7 22 19 44 27 48 9 6 11 13 5 20 -6 7
-12 56 -14 109 -2 75 0 99 10 103 16 6 10 31 -6 28 -6 -1 -13 17 -17 40 -4 23
-15 86 -26 139 -11 54 -18 101 -17 105 1 4 -1 33 -5 63 -7 55 6 165 38 320 17
84 14 101 -21 129 -26 20 -88 20 -125 0 -67 -36 -245 -52 -329 -29 -57 15
-150 58 -150 69 0 9 -29 20 -68 26 -14 2 -22 -1 -20 -7 2 -6 11 -12 20 -14 9
-1 32 -13 50 -27 90 -67 212 -103 310 -91 29 3 103 19 164 35 62 16 119 27
127 23 27 -10 28 -38 5 -135 -32 -135 -31 -370 1 -519 27 -126 38 -302 22
-383 -17 -95 -57 -170 -120 -231 -66 -62 -142 -103 -291 -157 -143 -51 -193
-73 -245 -109 l-45 -31 -42 29 c-62 42 -89 55 -223 102 -66 24 -151 58 -189
77 -133 67 -222 180 -247 318 -15 81 -5 268 21 380 13 56 23 144 26 230 6 126
3 153 -21 269 -26 128 -26 129 -7 148 19 19 20 19 138 -13 148 -40 258 -43
347 -11 68 25 187 106 187 129 0 10 6 13 16 9 10 -4 14 -1 12 6 -8 22 -24 18
-53 -12z"/>
<path d="M739 1693 c-1 -4 -1 -11 0 -15 1 -12 -69 -59 -135 -90 -53 -25 -83
-32 -152 -35 -87 -5 -140 3 -284 43 -37 10 -70 15 -74 11 -4 -4 3 -60 17 -125
32 -156 32 -320 0 -482 -48 -242 -45 -390 9 -507 53 -115 152 -185 368 -263
145 -52 180 -67 230 -101 l42 -28 43 28 c49 34 84 49 229 101 216 78 315 148
369 263 55 118 57 268 8 507 -32 154 -31 329 0 482 14 65 21 121 17 125 -3 4
-35 -1 -69 -10 -212 -60 -328 -62 -443 -8 -37 18 -86 47 -108 65 -51 41 -66
49 -67 39z m77 -82 c133 -89 288 -107 477 -57 114 30 107 30 107 12 0 -30 -34
-160 -38 -143 -3 14 -12 17 -40 15 l-37 -3 2 -75 c1 -46 -1 -65 -5 -50 -7 20
-14 25 -42 25 -33 0 -35 -2 -40 -40 -4 -29 -7 -35 -12 -22 -5 12 -18 17 -43
17 -46 0 -71 -13 -89 -48 -9 -15 -15 -21 -16 -14 0 6 -9 12 -20 12 -24 0 -70
-21 -70 -32 0 -4 -8 -8 -19 -8 -22 0 -135 -50 -139 -62 -2 -4 -17 -8 -34 -8
-21 0 -31 -6 -35 -20 -4 -14 -14 -20 -32 -20 -42 0 -54 -14 -57 -70 -4 -67
-14 -78 -14 -17 0 40 -3 47 -20 47 -24 0 -70 -21 -70 -32 0 -4 -9 -8 -20 -8
-10 0 -31 -5 -45 -12 -24 -11 -25 -13 -26 -122 -1 -61 -3 -102 -6 -91 -2 11
-11 53 -20 93 l-15 73 -32 -3 -31 -3 -19 -115 c-11 -63 -21 -117 -23 -119 -3
-4 -13 7 -53 60 l-20 27 38 -2 c34 -1 37 1 34 25 -2 14 1 44 6 67 l10 42 -74
0 c-83 0 -113 -17 -115 -67 -1 -17 -3 -21 -6 -11 -2 10 6 66 19 125 30 142 32
384 5 511 -10 46 -17 86 -14 88 2 3 49 -7 103 -22 216 -57 364 -30 530 95 1 1
28 -17 60 -38z m524 -344 c0 -83 4 -167 9 -185 5 -17 6 -32 2 -32 -9 0 -72
103 -88 144 -11 27 -12 17 -10 -77 1 -59 -1 -107 -5 -107 -3 0 -14 -3 -23 -7
-15 -5 -16 -3 -5 16 7 15 11 69 9 159 -1 80 2 137 7 139 6 2 23 -29 38 -69 16
-40 31 -76 35 -80 6 -7 8 207 2 227 -6 17 -1 25 14 25 13 0 15 -24 15 -153z
m-164 -32 c27 -65 14 -203 -24 -254 -22 -30 -63 -39 -81 -17 -19 23 -25 133
-11 200 21 100 86 141 116 71z m-155 -29 c-9 -10 -12 -59 -10 -156 2 -113 -1
-144 -12 -151 -8 -5 -16 -9 -19 -9 -3 0 -5 70 -5 155 0 144 1 155 20 164 29
14 39 13 26 -3z m-71 -40 c0 -8 3 -23 7 -33 6 -17 6 -17 -14 0 -41 35 -44 25
-42 -130 1 -145 1 -147 -23 -159 l-24 -12 3 61 c1 34 4 102 6 151 l4 89 -24
-27 c-13 -15 -23 -34 -23 -42 0 -8 -3 -14 -8 -14 -4 0 -6 17 -4 38 3 36 8 40
60 64 67 31 82 33 82 14z m-157 -183 c14 -71 28 -135 32 -144 4 -10 -3 -19
-21 -28 -23 -10 -26 -10 -20 4 3 9 3 27 0 41 -6 22 -7 23 -35 8 -24 -12 -29
-21 -29 -52 0 -27 -6 -41 -21 -51 -20 -12 -21 -11 -15 11 4 12 18 88 32 168
14 80 27 151 29 158 11 33 24 1 48 -115z m157 5 l0 -118 26 0 c42 0 64 17 64
52 0 29 1 30 18 16 27 -25 81 -16 111 18 13 16 29 28 35 26 6 -2 25 -1 44 3
l34 6 -7 62 -6 62 28 -42 c21 -32 35 -43 54 -43 24 0 27 -5 43 -77 24 -106 32
-285 16 -354 -28 -119 -98 -208 -208 -267 -33 -18 -127 -57 -208 -87 -81 -30
-167 -66 -190 -80 l-44 -26 -44 26 c-23 14 -109 50 -190 80 -81 30 -174 69
-206 86 -63 33 -142 105 -164 148 l-14 26 49 -3 c43 -4 52 0 78 26 17 16 42
32 56 36 20 5 25 12 25 39 0 17 5 39 10 47 8 12 10 9 10 -12 0 -25 4 -28 33
-28 18 0 41 6 52 13 11 8 46 24 78 36 44 18 57 28 58 45 0 11 3 15 6 9 8 -21
54 -16 60 7 3 13 14 20 28 20 44 0 55 10 55 50 0 22 5 42 10 45 6 4 10 -7 10
-24 0 -24 4 -31 20 -31 24 0 70 21 70 32 0 4 9 8 21 8 11 0 28 4 38 9 16 9 17
23 13 144 -4 119 -3 134 12 134 14 0 16 -16 16 -119z m-253 77 c-4 -8 -18 -83
-33 -167 -14 -84 -28 -159 -30 -167 -9 -30 -24 8 -49 129 -15 69 -31 130 -35
135 -6 7 1 15 18 21 27 10 27 9 29 -25 1 -20 8 -70 16 -111 16 -85 17 -82 39
80 8 61 18 99 28 107 20 16 23 16 17 -2z m142 -104 l-1 -76 -13 60 c-18 79
-18 92 0 92 12 0 15 -15 14 -76z m-327 17 c-8 -8 -12 -55 -12 -146 0 -148 6
-159 49 -83 13 23 24 41 25 39 2 -2 1 -21 -1 -43 -4 -37 -9 -42 -56 -65 l-52
-25 0 157 c0 147 1 158 20 167 28 14 41 13 27 -1z m52 -143 c5 -24 4 -35 -3
-31 -5 4 -14 -2 -20 -11 -8 -13 -10 9 -10 82 l1 100 13 -51 c7 -29 15 -69 19
-89z m-159 -34 c15 -74 29 -139 31 -145 2 -6 -7 -16 -20 -22 -23 -11 -24 -10
-19 21 6 39 -7 49 -41 34 -22 -10 -26 -19 -26 -56 0 -23 -2 -43 -4 -43 -2 0
-12 -3 -22 -7 -10 -4 -15 -2 -11 3 3 6 18 82 33 169 23 137 39 194 49 183 2
-2 15 -63 30 -137z m-166 97 c11 -10 14 -10 18 0 3 6 12 12 20 12 13 0 13 -3
3 -15 -7 -8 -10 -31 -8 -50 3 -27 1 -34 -10 -30 -7 3 -17 5 -21 5 -5 0 -6 11
-4 24 7 37 -30 53 -57 26 -26 -26 -20 -50 29 -108 59 -71 71 -95 71 -140 0
-97 -118 -141 -150 -56 -12 30 0 58 31 75 26 14 38 3 15 -14 -12 -9 -17 -23
-14 -42 2 -24 8 -31 31 -33 39 -5 57 14 57 58 0 31 -10 50 -55 105 -48 58 -55
72 -55 111 0 31 6 50 20 64 23 23 60 26 79 8z m-29 -65 c0 -20 -3 -24 -11 -16
-7 7 -9 19 -6 27 10 24 17 19 17 -11z m-50 -123 c28 -36 30 -40 12 -40 -11 0
-31 -9 -46 -21 l-26 -20 1 103 c1 102 1 102 14 60 8 -24 28 -61 45 -82z m63
-82 c6 -23 -8 -58 -23 -58 -17 0 -22 22 -7 38 8 9 12 23 10 30 -3 6 0 12 5 12
5 0 12 -10 15 -22z"/>
<path d="M725 1528 c-22 -11 -41 -25 -43 -29 -2 -5 -13 -9 -23 -9 -11 0 -29
-5 -40 -11 -18 -9 -19 -17 -13 -70 5 -41 3 -59 -5 -59 -7 0 -11 19 -11 49 l0
50 -62 -5 c-38 -4 -87 -17 -124 -34 l-61 -28 -7 -51 c-4 -28 -4 -56 -1 -62 8
-12 37 -8 47 6 4 6 8 -42 8 -106 0 -127 -3 -122 62 -105 l26 8 -5 134 c-4 77
-2 134 3 134 33 -1 37 -18 32 -124 -6 -103 -5 -106 16 -106 60 1 66 8 66 81 0
40 5 71 11 75 9 5 10 -10 5 -55 l-7 -62 38 5 c21 4 43 13 49 21 6 8 17 15 25
15 8 0 42 12 77 26 l62 27 0 54 c0 43 -3 53 -17 53 -15 0 -15 1 0 18 10 10 17
31 17 46 0 28 -1 28 -46 21 -41 -6 -45 -5 -42 12 3 14 11 17 41 15 40 -4 42 0
31 57 -6 27 -11 31 -38 31 -17 -1 -49 -10 -71 -22z m85 -12 c0 -8 3 -22 7 -32
6 -16 5 -16 -16 -2 -12 9 -31 14 -42 11 -16 -5 -19 -14 -19 -60 0 -43 3 -53
13 -46 6 6 27 15 45 21 49 17 37 -8 -16 -33 -42 -19 -42 -20 -42 -72 0 -31 4
-53 11 -53 11 0 56 43 77 75 11 18 12 18 7 2 -3 -10 -5 -29 -5 -41 0 -23 -2
-24 -115 -72 -6 -3 -10 46 -10 136 l0 140 45 19 c54 24 60 25 60 7z m-140 -57
c-7 -13 -10 -66 -8 -144 3 -108 1 -125 -14 -134 -10 -6 -19 -11 -21 -11 -1 0
-1 31 1 69 l4 70 -37 -17 -37 -17 4 -65 c5 -60 3 -67 -16 -76 -21 -10 -21 -9
-21 131 0 129 2 141 20 152 29 18 37 16 25 -6 -5 -11 -10 -40 -10 -65 l0 -46
36 17 c35 17 35 18 33 76 -2 54 0 61 22 73 31 17 32 17 19 -7z m-166 -61 c3
-13 6 -32 6 -43 0 -17 -2 -17 -13 5 -7 14 -19 25 -27 25 -13 0 -15 -24 -15
-147 0 -122 -3 -148 -15 -153 -8 -3 -21 -8 -28 -11 -11 -5 -12 -2 -3 14 14 25
15 272 2 272 -14 0 -41 -41 -41 -62 0 -10 -5 -18 -11 -18 -7 0 -9 9 -5 23 3
12 6 30 6 40 0 13 20 27 63 47 76 35 73 35 81 8z m284 -80 c-18 -27 -23 -29
-26 -15 -4 21 15 47 35 47 11 0 9 -8 -9 -32z"/>
<path d="M1100 1214 c-15 -38 -13 -207 3 -228 12 -17 14 -17 28 0 15 18 26
184 15 229 -8 33 -34 32 -46 -1z m21 -175 c-8 -19 -10 -12 -10 41 -1 93 13
134 17 49 2 -36 -2 -76 -7 -90z"/>
<path d="M747 1000 c-3 -8 -8 -39 -12 -68 -6 -51 -5 -52 15 -40 22 14 23 22
11 83 -5 24 -10 34 -14 25z"/>
<path d="M1232 890 c1 -35 -3 -65 -10 -72 -9 -9 -12 -5 -12 20 0 28 -3 32 -26
32 -14 0 -49 -11 -79 -25 -46 -21 -55 -30 -64 -62 -6 -21 -11 -44 -11 -50 0
-23 -19 -14 -26 12 -5 19 -13 25 -34 25 -46 0 -60 -10 -60 -41 0 -16 5 -29 10
-29 6 0 10 -15 9 -32 l-1 -33 -9 32 c-6 19 -18 35 -32 39 -30 10 -86 5 -117
-11 l-26 -13 3 -124 3 -123 -25 110 c-13 60 -26 114 -29 121 -5 13 -53 7 -63
-9 -5 -9 -53 -260 -70 -369 -5 -36 -4 -38 20 -38 44 0 57 10 57 45 0 18 3 40
6 49 10 26 24 18 24 -14 0 -39 24 -40 108 -3 l62 28 -6 50 -6 50 30 -42 c33
-44 69 -59 116 -47 28 7 31 19 26 117 -2 44 0 47 22 47 22 0 24 -4 20 -30 -4
-27 -1 -30 21 -30 15 0 37 5 50 11 23 10 23 12 20 152 l-3 142 19 -45 c14 -32
20 -68 20 -126 1 -88 0 -87 64 -69 26 7 27 9 27 84 0 52 6 93 21 130 26 69 39
139 32 174 -5 24 -10 27 -44 27 l-39 0 2 -60z m55 -14 c-3 -29 -17 -84 -32
-121 -22 -55 -26 -79 -23 -130 3 -51 1 -65 -12 -69 -8 -3 -21 -9 -28 -12 -11
-5 -12 -2 -3 14 19 36 13 115 -15 183 -14 35 -30 69 -35 75 -6 7 0 15 17 22
14 7 26 12 27 12 1 0 3 -10 4 -22 1 -28 26 -98 34 -98 12 0 41 139 34 169 -6
27 -4 31 16 31 20 0 21 -3 16 -54z m-172 -208 c0 -142 -1 -154 -20 -165 -11
-7 -22 -12 -25 -13 -3 0 -2 51 1 113 4 61 6 114 4 116 -2 1 -9 -17 -15 -40 -6
-24 -17 -64 -24 -89 -13 -44 -13 -44 -23 -20 -43 104 -41 104 -42 0 -1 -54 4
-101 9 -106 7 -7 3 -14 -12 -21 l-23 -10 3 140 c3 126 2 141 -14 150 -17 10
-17 11 1 18 27 11 45 11 45 0 0 -5 10 -32 23 -61 l23 -53 24 87 c20 74 37 104
60 106 3 0 5 -69 5 -152z m-233 5 c27 -25 24 -95 -6 -124 l-23 -22 44 -59 c34
-45 50 -58 71 -58 18 0 23 -3 15 -11 -6 -6 -26 -9 -44 -7 -28 3 -39 12 -72 61
-20 31 -42 57 -48 57 -8 0 -10 -24 -7 -69 3 -56 1 -71 -12 -75 -8 -3 -19 -8
-25 -11 -6 -3 -9 50 -8 152 l2 158 28 12 c39 17 63 16 85 -4z m-176 -168 c13
-66 29 -128 35 -138 12 -21 12 -20 -18 -36 -30 -15 -29 -16 -25 29 5 45 -3 48
-48 25 -26 -14 -30 -21 -30 -60 0 -25 -2 -45 -4 -45 -2 0 -12 -3 -22 -7 -14
-5 -16 -3 -11 11 4 9 20 92 37 184 30 158 51 222 58 176 2 -10 14 -73 28 -139z
m224 33 c-1 -58 -2 -61 -16 -43 -8 11 -11 26 -8 35 4 8 9 27 12 43 7 45 12 31
12 -35z"/>
<path d="M815 658 c-8 -24 -10 -128 -2 -128 4 0 16 9 28 21 26 26 24 112 -4
117 -9 2 -19 -2 -22 -10z m22 -55 c-3 -10 -5 -4 -5 12 0 17 2 24 5 18 2 -7 2
-21 0 -30z"/>
<path d="M650 517 c0 -17 -4 -48 -10 -66 -12 -42 -10 -45 23 -30 22 10 24 15
16 43 -5 17 -9 43 -9 58 0 16 -4 28 -10 28 -5 0 -10 -15 -10 -33z"/>
<path d="M356 795 c-4 -27 -10 -58 -13 -67 -5 -21 7 -23 28 -5 13 10 13 21 3
67 l-11 55 -7 -50z"/>
<path d="M6 1631 c-3 -4 -3 -80 1 -167 7 -198 7 -243 0 -427 -3 -82 -4 -147
-2 -145 1 1 13 53 26 113 25 122 31 336 11 410 -10 37 -10 34 -6 -30 l4 -70
-15 85 c-16 95 -17 117 -4 80 5 -16 6 -10 1 20 -4 25 -7 66 -7 93 0 49 -1 52
-9 38z m41 -418 c-2 -21 -4 -6 -4 32 0 39 2 55 4 38 2 -18 2 -50 0 -70z m-10
-105 c-2 -13 -4 -3 -4 22 0 25 2 35 4 23 2 -13 2 -33 0 -45z m-10 -65 c-3 -10
-5 -4 -5 12 0 17 2 24 5 18 2 -7 2 -21 0 -30z m-10 -55 c-3 -7 -5 -2 -5 12 0
14 2 19 5 13 2 -7 2 -19 0 -25z"/>
<path d="M1508 1611 c2 -15 -7 -77 -19 -137 -32 -148 -30 -330 4 -494 l24
-115 -5 155 c-6 203 -6 254 1 447 4 89 3 164 -1 167 -5 3 -7 -8 -4 -23z m-1
-143 c-3 -7 -5 -2 -5 12 0 14 2 19 5 13 2 -7 2 -19 0 -25z m-16 -93 c-5 -33
-9 -46 -10 -30 -1 36 11 114 16 100 1 -6 -1 -37 -6 -70z m-14 -162 c-2 -21 -4
-6 -4 32 0 39 2 55 4 38 2 -18 2 -50 0 -70z m27 -191 c4 -29 4 -32 -4 -14 -5
12 -12 53 -14 90 -6 72 -6 74 18 -76z"/>
<path d="M2 516 c-1 -89 20 -130 107 -216 80 -78 145 -114 339 -186 81 -30
169 -68 195 -84 51 -31 77 -38 77 -19 0 7 5 8 13 3 7 -5 1 1 -13 14 -46 42
-104 71 -252 126 -174 64 -245 101 -319 162 l-54 46 55 -52 c49 -46 98 -74
260 -149 l25 -11 -25 6 c-64 15 -209 96 -267 149 -35 31 -63 61 -63 66 0 6 6
7 13 3 8 -5 8 -3 -2 9 -7 9 -17 14 -22 12 -9 -6 -59 86 -59 107 0 7 9 -6 20
-29 10 -24 22 -43 25 -43 3 0 0 10 -6 23 -7 12 -20 47 -30 77 l-17 55 0 -69z
m529 -396 c82 -30 163 -72 174 -90 4 -6 -15 3 -41 19 -26 17 -87 45 -136 62
-48 17 -88 33 -88 35 0 7 8 4 91 -26z"/>
<path d="M1510 563 c0 -10 -11 -44 -24 -75 -28 -67 -24 -78 4 -15 11 23 20 36
20 29 0 -21 -50 -113 -59 -107 -5 2 -15 -3 -22 -12 -10 -12 -10 -14 -1 -9 27
16 9 -12 -36 -57 -43 -43 -72 -62 -57 -38 3 6 -19 -5 -50 -24 -61 -36 -126
-64 -290 -125 -117 -43 -187 -84 -191 -112 -3 -24 21 -23 56 2 35 25 88 47
221 95 162 58 255 110 330 185 87 86 109 129 107 214 0 36 -3 66 -4 66 -2 0
-4 -8 -4 -17z m-195 -310 c-26 -20 -192 -99 -225 -107 -14 -3 -7 2 15 11 22 9
81 38 130 64 100 52 109 56 80 32z m-346 -152 c-53 -21 -112 -48 -130 -60
l-34 -23 30 26 c30 26 186 95 215 95 8 0 -28 -17 -81 -38z"/>
<path d="M1379 323 l-34 -38 38 34 c20 19 37 36 37 38 0 8 -8 0 -41 -34z"/>
<path d="M775 10 c-3 -5 -1 -10 4 -10 6 0 11 5 11 10 0 6 -2 10 -4 10 -3 0 -8
-4 -11 -10z"/>
</g>
</svg>
