<?xml version="1.0" standalone="no"?>
<!DOCTYPE svg PUBLIC "-//W3C//DTD SVG 20010904//EN"
 "http://www.w3.org/TR/2001/REC-SVG-20010904/DTD/svg10.dtd">
<svg version="1.0" xmlns="http://www.w3.org/2000/svg"
 width="180.000000pt" height="180.000000pt" viewBox="0 0 180.000000 180.000000"
 preserveAspectRatio="xMidYMid meet">
<metadata>
Created by potrace 1.16, written by Peter Selinger 2001-2019
</metadata>
<g transform="translate(0.000000,180.000000) scale(0.100000,-0.100000)"
fill="#000000" stroke="none">
<path d="M854 1659 c-16 -16 -58 -44 -94 -62 -87 -43 -199 -49 -317 -17 -44
12 -96 20 -114 18 -56 -5 -60 -28 -42 -207 16 -152 16 -155 -7 -265 -38 -182
-49 -257 -49 -332 -2 -153 37 -264 122 -348 64 -64 137 -103 273 -145 95 -29
201 -86 233 -124 8 -10 28 -17 47 -17 23 0 34 -5 34 -14 0 -21 40 -46 72 -46
60 0 90 78 47 121 -11 11 -19 22 -17 24 14 12 79 37 166 65 148 47 234 101
292 186 85 122 97 290 40 566 l-34 166 14 149 c7 81 12 159 12 172 -4 57 -45
64 -168 30 -154 -42 -295 -16 -402 74 -24 21 -52 37 -61 37 -10 0 -30 -14 -47
-31z m192 -91 c95 -45 179 -48 322 -13 150 37 150 38 134 -112 -18 -165 -15
-250 14 -381 35 -156 43 -332 20 -422 -40 -156 -155 -257 -353 -311 -90 -24
-175 -67 -232 -115 -46 -40 -52 -41 -77 -13 -34 38 -147 97 -239 124 -235 71
-347 182 -376 374 -13 89 -7 161 32 350 32 161 34 202 17 379 -10 111 -10 125
5 139 16 16 23 15 104 -6 134 -35 216 -38 295 -12 70 23 141 64 172 99 l19 22
40 -36 c22 -20 68 -50 103 -66z m-2 -1364 c21 -20 20 -43 -1 -66 -18 -21 -53
-24 -71 -6 -15 15 -15 61 0 76 17 17 54 15 72 -4z"/>
<path d="M830 1594 c-126 -75 -213 -90 -355 -58 -38 9 -89 18 -112 21 -38 5
-43 3 -48 -19 -4 -14 -2 -60 4 -102 19 -134 14 -241 -20 -408 -26 -130 -30
-169 -27 -263 6 -137 29 -202 98 -278 59 -64 129 -103 271 -151 107 -35 151
-57 223 -108 21 -15 41 -26 45 -24 3 3 37 25 75 50 46 30 108 58 180 81 138
45 198 77 261 140 120 118 143 285 80 570 -28 129 -34 277 -15 405 5 36 6 76
3 89 -5 21 -10 23 -47 18 -22 -3 -75 -13 -116 -22 -114 -25 -200 -17 -292 28
-40 21 -87 46 -103 57 l-30 19 -75 -45z m105 5 c148 -100 266 -119 455 -70 41
11 79 16 83 11 5 -4 4 -48 -2 -96 -19 -153 -14 -256 20 -420 26 -127 30 -165
27 -259 -3 -95 -8 -119 -32 -172 -51 -111 -143 -180 -317 -236 -120 -39 -155
-56 -221 -104 l-47 -34 -47 36 c-63 48 -82 57 -209 100 -127 42 -181 71 -247
133 -120 112 -140 267 -73 576 28 127 31 217 14 362 -6 51 -9 100 -6 108 5 11
19 10 84 -6 47 -12 115 -21 173 -21 107 -2 172 18 257 78 27 18 50 33 53 34 3
0 19 -8 35 -20z"/>
<path d="M847 1555 c-27 -18 -80 -43 -118 -55 -60 -20 -83 -22 -162 -17 -51 4
-118 13 -151 22 -32 9 -60 14 -63 12 -2 -3 1 -42 7 -88 18 -144 13 -243 -21
-405 -26 -127 -30 -165 -27 -259 3 -93 8 -119 30 -167 48 -102 156 -180 322
-229 79 -24 155 -59 203 -95 17 -13 34 -24 36 -24 3 0 31 18 64 39 33 23 106
56 168 77 142 47 197 75 256 131 76 71 102 134 107 262 3 91 -1 128 -28 260
-34 166 -40 274 -21 421 5 41 8 76 6 78 -1 2 -29 -4 -61 -13 -33 -9 -100 -18
-151 -22 -79 -5 -102 -3 -162 17 -38 12 -93 37 -121 56 -29 19 -55 34 -58 33
-4 -1 -29 -16 -55 -34z m136 -44 c103 -52 189 -67 300 -52 46 6 98 15 116 21
31 9 33 8 28 -13 -3 -12 -9 -78 -12 -147 -7 -118 -5 -134 30 -305 40 -197 43
-284 10 -376 -37 -106 -144 -188 -318 -244 -104 -34 -209 -83 -223 -106 -4 -6
-11 -6 -19 1 -8 7 -41 26 -75 44 l-60 32 26 14 c22 12 25 20 21 46 -3 17 -2
37 3 44 6 9 9 6 12 -11 4 -31 48 -38 76 -12 10 10 32 25 48 33 26 14 32 14 55
1 16 -9 36 -12 52 -7 22 5 27 12 27 36 0 22 -5 30 -17 30 -10 1 -3 7 15 15 34
15 34 15 27 65 -5 34 -3 50 4 50 6 0 11 -13 11 -30 0 -26 4 -30 26 -30 59 0
63 9 58 137 l-5 118 21 -38 c16 -29 20 -52 18 -95 -3 -56 -2 -57 22 -54 14 2
36 8 48 15 22 10 23 16 18 58 -5 39 -1 61 24 123 48 121 38 171 -32 164 l-33
-3 2 -55 c2 -42 0 -50 -7 -32 -5 12 -16 22 -25 22 -21 0 -75 -28 -75 -39 0 -5
-13 -11 -29 -14 -22 -5 -32 -14 -40 -40 -10 -29 -15 -33 -36 -29 -42 8 -75 -6
-75 -31 0 -19 -5 -23 -33 -23 -18 0 -48 -6 -66 -14 l-33 -13 6 -71 5 -71 -17
65 c-14 51 -22 66 -38 68 -33 5 -44 -20 -70 -155 -33 -172 -44 -213 -59 -213
-22 0 -125 39 -175 66 -26 14 -63 41 -81 60 -31 32 -32 34 -10 34 27 0 81 27
81 40 0 5 16 16 35 24 19 8 38 22 41 31 3 8 16 15 29 15 12 0 33 8 46 18 13
10 41 27 63 37 21 11 43 28 50 38 6 9 21 17 33 17 13 0 23 5 23 10 0 6 18 17
40 26 22 9 45 25 51 35 5 11 20 19 33 19 13 0 29 6 35 14 6 8 25 19 41 26 18
8 30 20 30 31 0 15 7 19 33 19 36 0 57 15 57 41 0 14 7 16 38 12 34 -5 42 -1
65 26 14 17 33 31 41 31 9 0 24 8 34 18 10 10 31 18 47 18 l28 -1 1 150 c2
185 -1 197 -51 193 -36 -3 -38 -5 -38 -35 0 -25 -4 -33 -18 -33 -30 0 -57 -19
-57 -40 0 -16 -7 -20 -38 -20 -26 0 -45 -7 -57 -20 -10 -11 -26 -20 -35 -20
-9 0 -26 -9 -38 -20 -12 -11 -24 -20 -27 -20 -3 0 -24 -12 -48 -27 -23 -14
-55 -29 -72 -33 -17 -3 -35 -16 -42 -30 -6 -13 -22 -25 -35 -27 -13 -2 -30
-12 -40 -23 -9 -11 -25 -20 -36 -20 -10 0 -31 -11 -46 -25 -15 -14 -34 -25
-42 -25 -8 0 -26 -11 -39 -24 -15 -15 -31 -22 -44 -19 -23 6 -61 -29 -61 -57
0 -18 -7 -20 -71 -20 -85 0 -104 -9 -119 -55 -15 -46 -6 -82 32 -121 l30 -32
-36 -4 c-34 -4 -36 -2 -42 30 -10 54 3 176 32 307 29 126 36 271 20 402 l-7
62 33 -9 c18 -6 69 -15 115 -21 111 -15 197 0 294 51 41 21 76 38 79 39 3 0
41 -17 83 -38z m389 -216 c-2 -68 1 -132 7 -147 7 -18 7 -29 0 -33 -8 -6 -38
51 -63 119 -12 35 -15 11 -7 -63 6 -64 5 -73 -11 -82 -17 -9 -18 -3 -18 104 0
69 -4 117 -11 124 -8 8 -5 14 10 23 19 10 23 7 36 -24 8 -20 15 -40 15 -45 0
-5 5 -13 11 -17 9 -5 10 17 7 80 -4 75 -2 86 11 84 14 -3 16 -21 13 -123z
m-128 -27 c23 -32 21 -152 -2 -198 -22 -44 -62 -53 -86 -18 -21 30 -22 158 -1
198 23 45 65 53 89 18z m-121 -149 c-1 -115 -3 -132 -20 -144 -17 -12 -18 -7
-18 119 0 104 3 133 15 143 8 7 17 13 20 13 3 0 4 -59 3 -131z m-54 29 c1 -33
-16 -38 -21 -5 -2 12 -7 21 -13 19 -12 -3 -16 -200 -4 -208 16 -9 10 -21 -17
-33 l-26 -11 4 115 c2 74 -1 114 -7 112 -5 -2 -11 -16 -13 -30 -4 -37 -22 -34
-22 3 0 25 9 35 53 63 57 37 65 34 66 -25z m-138 -35 c0 -21 10 -78 23 -126
21 -83 21 -89 5 -98 -27 -14 -29 -12 -22 21 4 23 2 30 -10 30 -26 0 -56 -63
-36 -76 5 -3 -2 -15 -16 -26 -31 -24 -40 -20 -26 13 6 13 17 65 26 114 23 132
36 185 46 185 5 0 9 -17 10 -37z m-70 -54 c-5 -19 -16 -77 -25 -129 -24 -135
-25 -140 -36 -140 -6 0 -10 9 -10 21 0 29 -40 182 -51 195 -6 8 -1 17 15 28
31 20 37 20 30 2 -3 -8 0 -41 6 -73 11 -49 14 -54 21 -35 5 12 10 49 12 82 2
45 8 63 23 74 24 18 25 17 15 -25z m196 -56 c-2 -21 -4 -6 -4 32 0 39 2 55 4
38 2 -18 2 -50 0 -70z m288 3 c19 -13 18 -16 -14 -101 -25 -65 -32 -99 -29
-135 3 -43 0 -50 -23 -64 l-26 -15 5 54 c5 66 0 91 -32 138 l-25 36 24 15 c31
20 39 20 31 0 -6 -16 13 -84 24 -84 8 0 40 94 40 118 0 12 -5 24 -10 27 -11 7
-4 25 9 25 4 0 16 -6 26 -14z m-643 -128 c-3 -105 -1 -120 11 -109 8 6 18 27
21 46 4 19 12 35 18 35 6 0 8 -12 4 -31 -3 -17 -6 -37 -6 -44 0 -11 -61 -55
-76 -55 -2 0 -4 52 -4 115 0 95 -3 117 -16 122 -12 4 -9 9 13 24 15 9 30 18
33 18 3 1 4 -54 2 -121z m-80 -53 c11 -49 25 -95 30 -101 5 -7 0 -17 -16 -28
-33 -21 -33 -21 -28 13 4 31 -7 44 -31 35 -20 -7 -31 -52 -17 -69 8 -9 4 -17
-14 -29 -32 -21 -40 -20 -31 2 3 9 17 77 30 150 23 131 47 194 53 141 1 -13
12 -64 24 -114z m17 80 c-1 -29 -1 -29 -9 -5 -4 14 -8 34 -9 45 -1 16 1 17 9
5 5 -8 9 -28 9 -45z m105 -1 c5 -24 3 -33 -8 -37 -13 -5 -16 3 -16 46 1 54 12
50 24 -9z m429 -56 c-2 -29 -1 -86 4 -126 9 -65 8 -74 -8 -83 -10 -5 -19 -9
-21 -9 -2 0 -2 34 0 75 4 83 -12 104 -24 30 -3 -25 -9 -45 -13 -45 -4 0 -13
15 -21 33 l-14 32 -4 -69 c-1 -38 2 -74 7 -79 7 -7 5 -15 -7 -23 -9 -8 -19
-13 -22 -14 -3 0 -6 50 -7 110 -1 64 -6 116 -12 124 -9 10 -8 15 5 20 26 10
29 8 49 -31 l18 -38 20 65 c17 59 30 79 49 80 4 0 4 -24 1 -52z m-673 11 c-6
-9 -7 -32 -3 -49 6 -30 5 -31 -15 -19 -12 7 -20 22 -19 34 2 16 -4 20 -28 20
-51 0 -45 -35 16 -85 l51 -44 -4 -53 c-3 -37 -10 -58 -24 -68 -26 -19 -79 -19
-99 1 -32 32 0 86 41 70 18 -7 18 -8 2 -17 -22 -12 -23 -35 -2 -43 22 -8 66
38 58 61 -4 10 -29 39 -55 64 -39 36 -49 53 -49 77 0 49 29 71 89 70 44 -1 49
-3 41 -19z m502 -106 c24 -22 23 -74 -3 -107 -18 -23 -19 -31 -10 -58 15 -41
39 -68 63 -68 11 0 16 -4 13 -10 -10 -16 -51 -12 -68 8 -9 9 -25 37 -36 62
l-20 45 1 -58 c1 -41 -3 -61 -13 -68 -23 -14 -24 -12 -25 49 0 31 -2 89 -4
127 -3 66 -2 71 21 82 33 17 59 16 81 -4z m-140 -189 c22 -87 23 -93 6 -103
-24 -15 -25 -15 -25 19 0 40 -8 46 -36 27 -26 -17 -41 -65 -26 -83 5 -6 -3
-17 -23 -29 -31 -18 -31 -18 -23 1 4 10 20 83 36 161 15 78 33 152 40 165 13
22 13 21 20 -22 4 -25 18 -86 31 -136z"/>
<path d="M857 1474 c-26 -14 -50 -31 -54 -39 -3 -8 -13 -15 -23 -15 -29 0 -50
-11 -50 -26 0 -8 -10 -14 -24 -14 -14 0 -28 -4 -31 -10 -3 -5 -18 -7 -33 -4
-19 3 -43 -5 -82 -29 l-55 -33 -3 -72 -3 -72 27 0 26 0 -7 -65 c-7 -65 -6 -65
19 -65 14 0 37 5 51 12 26 12 26 12 19 100 -5 63 -3 88 5 88 7 0 11 -25 11
-70 l0 -70 30 0 c20 0 40 9 56 25 14 14 33 25 44 25 19 0 50 25 50 41 0 5 10
9 23 9 21 0 121 52 130 67 2 5 8 45 11 91 6 69 5 82 -8 82 -9 0 -16 12 -18 33
-3 28 -7 32 -33 34 -17 2 -51 -9 -78 -23z m87 -20 c8 -32 3 -40 -14 -19 -9 11
-17 12 -30 5 -16 -8 -19 -23 -19 -95 0 -62 3 -85 12 -85 21 0 57 39 57 60 0
11 5 20 10 20 11 0 12 -15 4 -47 -5 -18 -95 -83 -115 -83 -2 0 -2 45 -1 100 3
86 2 100 -12 100 -29 0 -16 15 37 42 65 34 63 34 71 2z m20 -81 c-10 -7 -32
-13 -48 -13 -29 1 -30 1 -12 15 11 8 28 15 38 15 10 0 22 8 26 18 6 16 7 15
10 -2 2 -11 -4 -26 -14 -33z m-170 -82 c-1 -60 -5 -114 -8 -120 -16 -25 -26
-8 -26 44 0 58 -4 63 -32 41 -21 -15 -25 -100 -7 -112 8 -4 3 -12 -12 -20 -13
-7 -26 -13 -29 -14 -3 0 -3 43 -2 95 3 61 0 101 -7 109 -9 10 -6 17 13 30 14
9 27 16 29 16 3 0 2 -20 -1 -45 l-5 -46 28 13 c25 11 27 16 23 60 -5 45 0 55
27 57 6 1 10 -41 9 -108z m-151 7 c7 -51 1 -61 -12 -24 -6 14 -15 26 -22 26
-10 0 -6 -146 6 -205 3 -14 -4 -25 -23 -36 l-27 -15 3 119 c4 124 -6 146 -27
62 -15 -61 -28 -57 -21 8 5 50 6 53 55 79 28 15 53 28 56 28 4 0 9 -19 12 -42z
m279 20 c-7 -7 -12 -8 -12 -2 0 14 12 26 19 19 2 -3 -1 -11 -7 -17z"/>
<path d="M1189 1254 c-18 -22 -19 -178 -1 -195 24 -25 37 8 40 99 3 68 1 91
-11 100 -11 10 -17 9 -28 -4z m18 -96 c-3 -7 -5 -2 -5 12 0 14 2 19 5 13 2 -7
2 -19 0 -25z"/>
<path d="M907 1027 c-10 -26 -9 -67 2 -67 15 0 18 12 11 50 -4 27 -7 31 -13
17z"/>
<path d="M577 840 c-10 -36 -9 -70 2 -70 16 0 19 13 12 55 -6 36 -7 38 -14 15z"/>
<path d="M946 743 c-3 -4 -6 -30 -6 -60 0 -49 1 -53 19 -44 20 11 32 51 24 81
-5 20 -27 33 -37 23z"/>
<path d="M800 603 c0 -16 -3 -38 -6 -50 -6 -23 2 -29 23 -15 8 5 10 22 6 50
-6 47 -23 57 -23 15z"/>
<path d="M973 184 c-3 -8 -1 -20 6 -27 8 -8 11 -4 11 16 0 30 -7 35 -17 11z"/>
<path d="M1027 175 c-4 -8 -2 -17 3 -20 6 -4 10 3 10 14 0 25 -6 27 -13 6z"/>
<path d="M1000 150 c0 -5 5 -10 11 -10 5 0 7 5 4 10 -3 6 -8 10 -11 10 -2 0
-4 -4 -4 -10z"/>
</g>
</svg>
