<?xml version="1.0" standalone="no"?>
<!DOCTYPE svg PUBLIC "-//W3C//DTD SVG 20010904//EN"
 "http://www.w3.org/TR/2001/REC-SVG-20010904/DTD/svg10.dtd">
<svg version="1.0" xmlns="http://www.w3.org/2000/svg"
 width="256.000000pt" height="256.000000pt" viewBox="0 0 256.000000 256.000000"
 preserveAspectRatio="xMidYMid meet">
<metadata>
Created by potrace 1.16, written by Peter Selinger 2001-2019
</metadata>
<g transform="translate(0.000000,256.000000) scale(0.100000,-0.100000)"
fill="#000000" stroke="none">
<path d="M218 2553 c123 -2 321 -2 440 0 119 1 19 2 -223 2 -242 0 -340 -1
-217 -2z"/>
<path d="M885 2550 c-3 -6 1 -7 9 -4 18 7 21 14 7 14 -6 0 -13 -4 -16 -10z"/>
<path d="M940 2553 c8 -3 24 -10 35 -16 18 -9 19 -9 6 6 -7 10 -23 17 -35 16
-14 0 -16 -2 -6 -6z"/>
<path d="M1005 2550 c4 -6 11 -8 16 -5 14 9 11 15 -7 15 -8 0 -12 -5 -9 -10z"/>
<path d="M1080 2550 c-8 -5 -10 -10 -5 -10 6 0 17 5 25 10 8 5 11 10 5 10 -5
0 -17 -5 -25 -10z"/>
<path d="M1143 2553 c9 -2 23 -2 30 0 6 3 -1 5 -18 5 -16 0 -22 -2 -12 -5z"/>
<path d="M1220 2550 c0 -5 5 -10 11 -10 5 0 7 5 4 10 -3 6 -8 10 -11 10 -2 0
-4 -4 -4 -10z"/>
<path d="M1300 2550 c0 -5 5 -10 11 -10 5 0 7 5 4 10 -3 6 -8 10 -11 10 -2 0
-4 -4 -4 -10z"/>
<path d="M1500 2550 c0 -5 5 -10 11 -10 5 0 7 5 4 10 -3 6 -8 10 -11 10 -2 0
-4 -4 -4 -10z"/>
<path d="M1568 2553 c7 -3 16 -2 19 1 4 3 -2 6 -13 5 -11 0 -14 -3 -6 -6z"/>
<path d="M1913 2553 c119 -2 315 -2 435 0 119 1 21 2 -218 2 -239 0 -337 -1
-217 -2z"/>
<path d="M1258 2533 c7 -3 16 -2 19 1 4 3 -2 6 -13 5 -11 0 -14 -3 -6 -6z"/>
<path d="M1456 2526 c21 -15 30 -14 19 3 -3 6 -14 11 -23 11 -13 0 -13 -2 4
-14z"/>
<path d="M955 2520 c3 -5 8 -10 11 -10 2 0 4 5 4 10 0 6 -5 10 -11 10 -5 0 -7
-4 -4 -10z"/>
<path d="M1200 2523 c0 -4 9 -19 19 -33 19 -24 19 -25 -1 -53 -22 -31 -18 -48
7 -27 9 7 18 11 20 8 3 -3 -8 -71 -25 -153 -16 -81 -30 -159 -30 -172 0 -38
-13 -26 -39 35 -14 31 -48 106 -77 166 l-52 108 29 -6 c36 -7 37 6 3 29 -16
10 -23 22 -20 32 3 8 9 26 13 41 l6 25 -35 -27 c-30 -22 -40 -25 -62 -16 -45
17 -51 12 -23 -18 24 -25 26 -32 17 -57 -13 -35 -6 -43 19 -21 19 17 19 14 23
-161 2 -98 2 -180 0 -183 -2 -3 -8 3 -13 12 -8 15 -159 204 -208 262 -15 18
-15 19 21 13 49 -7 56 4 16 23 -28 13 -34 21 -38 58 l-5 42 -27 -34 c-25 -31
-32 -34 -63 -29 -43 7 -45 -1 -4 -22 25 -13 30 -22 29 -48 -3 -51 -1 -54 20
-27 l19 25 9 -25 c6 -14 40 -101 76 -195 36 -93 64 -176 61 -183 -3 -8 4 -25
15 -39 31 -40 16 -39 -33 1 -24 20 -46 36 -49 36 -3 0 8 -36 23 -80 16 -44 25
-80 21 -80 -4 0 -40 20 -79 44 -40 24 -74 42 -77 39 -3 -3 3 -18 13 -32 25
-36 63 -112 58 -117 -2 -2 -21 5 -43 15 -22 11 -52 23 -67 26 -15 4 -30 11
-33 16 -3 5 -12 9 -20 9 -15 0 17 -48 75 -112 30 -34 28 -34 -81 -5 -79 22
-111 21 -74 0 19 -11 118 -104 114 -108 -3 -3 -109 10 -160 19 -44 8 -33 -6
42 -54 38 -25 69 -48 70 -52 0 -4 -39 -7 -87 -7 -49 1 -92 0 -98 0 -5 -1 31
-21 80 -45 54 -26 84 -46 75 -49 -14 -5 -35 -8 -149 -24 l-45 -6 100 -33 c54
-18 92 -35 84 -37 -93 -31 -147 -47 -162 -47 -10 0 -18 -5 -18 -10 0 -6 6 -10
12 -9 22 5 188 -24 188 -32 0 -4 -11 -9 -23 -13 -13 -3 -55 -20 -93 -38 l-69
-33 103 -3 c56 -1 102 -6 102 -10 -1 -6 -78 -57 -140 -92 -27 -16 -5 -18 89
-9 51 6 95 8 97 7 2 -2 -28 -31 -66 -63 -38 -33 -65 -61 -61 -63 5 -1 49 8
100 22 50 13 91 22 91 19 0 -2 -25 -35 -55 -73 -30 -38 -55 -71 -55 -74 0 -2
36 11 81 30 44 19 84 34 89 34 4 0 -11 -36 -35 -80 -24 -44 -39 -80 -35 -80 5
0 11 4 14 9 5 7 118 75 148 89 4 2 -6 -33 -21 -77 -16 -45 -26 -81 -23 -81 5
0 72 48 82 59 3 4 18 17 34 31 l29 25 -7 -47 c-3 -27 -9 -69 -12 -95 l-6 -48
18 25 c9 14 39 48 66 77 l48 52 0 -37 c0 -20 3 -61 6 -90 l7 -52 43 67 c24 38
46 73 48 78 6 17 11 3 33 -85 15 -62 22 -80 27 -65 4 11 14 36 22 55 7 19 19
49 25 65 l11 30 27 -60 c15 -33 31 -74 36 -90 6 -26 10 -19 26 59 10 49 20 91
22 93 5 4 67 -92 89 -137 l17 -35 0 98 c1 53 4 97 9 96 4 0 32 -29 62 -64 30
-34 56 -62 57 -61 1 1 -3 39 -11 84 -7 45 -10 82 -7 82 3 0 36 -25 74 -55 37
-30 67 -52 67 -47 0 4 -11 38 -24 77 -14 38 -23 71 -21 73 2 3 39 -16 82 -41
43 -25 79 -44 81 -42 2 1 -17 37 -42 79 -25 42 -41 76 -37 76 4 0 21 -6 37
-14 60 -30 134 -55 134 -46 0 5 -5 12 -10 15 -11 7 -90 111 -90 118 0 8 165
-35 186 -48 17 -11 21 -11 21 0 0 8 -4 13 -8 12 -8 -2 -149 116 -145 121 2 1
45 -2 96 -8 90 -10 123 -8 84 6 -10 4 -39 21 -64 39 -25 18 -54 36 -65 41 -14
6 11 10 85 14 l105 5 -79 38 c-43 20 -82 37 -87 37 -5 0 -9 4 -9 9 0 4 33 14
73 20 98 17 111 19 117 21 5 2 -70 25 -137 42 -24 6 -43 14 -43 17 0 7 142 51
164 51 9 0 16 4 16 8 0 5 -43 14 -95 21 -52 8 -95 17 -95 22 0 5 4 9 9 9 5 0
44 17 87 38 l79 37 -104 5 -104 5 76 50 c42 28 76 53 77 57 0 4 -12 5 -27 2
-57 -10 -163 -20 -161 -15 7 15 126 121 136 121 6 0 13 4 16 9 3 4 -43 -4
-102 -20 -59 -16 -111 -29 -116 -29 -6 0 1 12 15 28 14 15 38 44 53 65 16 21
38 42 50 47 13 6 15 9 6 9 -9 1 -53 -15 -99 -34 -46 -20 -86 -34 -88 -31 -2 2
16 36 41 75 27 41 40 71 33 71 -7 0 -17 -4 -22 -9 -16 -15 -145 -78 -145 -71
0 4 14 40 30 80 17 40 30 75 30 77 0 2 -25 -15 -56 -38 -61 -45 -76 -47 -43
-5 12 15 18 33 15 43 -4 9 23 95 62 197 38 100 72 190 76 201 7 20 8 20 26 -2
25 -32 34 -29 26 9 -7 33 14 68 41 68 7 0 13 5 13 11 0 8 -14 9 -44 5 -41 -6
-45 -5 -66 24 -27 38 -42 39 -27 1 14 -37 4 -60 -33 -72 -35 -13 -30 -32 6
-23 13 3 24 4 24 1 0 -5 -147 -203 -184 -247 -7 -9 -16 -25 -22 -35 -6 -14
-11 38 -14 160 -3 99 -4 182 -3 184 2 2 12 -4 23 -14 26 -24 32 -16 18 23 -11
29 -10 34 17 62 32 33 28 36 -22 18 -29 -11 -36 -9 -64 11 -17 12 -32 21 -35
19 -2 -3 2 -19 9 -37 11 -31 10 -34 -16 -55 -30 -24 -26 -42 5 -25 29 15 34 3
15 -34 -41 -80 -117 -249 -117 -263 0 -23 -19 -16 -25 9 -2 12 -20 87 -39 167
-19 80 -33 146 -31 148 2 2 13 -2 25 -8 31 -17 37 -4 11 24 -22 23 -22 25 -6
56 21 40 16 45 -23 23 -27 -15 -33 -16 -58 -3 -16 8 -32 16 -36 18 -5 2 -8 0
-8 -5z m-195 -73 c-3 -5 -12 -10 -18 -10 -7 0 -6 4 3 10 19 12 23 12 15 0z
m278 3 c-7 -2 -19 -2 -25 0 -7 3 -2 5 12 5 14 0 19 -2 13 -5z m-538 -113 c3
-5 2 -10 -4 -10 -5 0 -13 5 -16 10 -3 6 -2 10 4 10 5 0 13 -4 16 -10z m574
-176 c24 -96 47 -172 50 -167 4 4 41 81 82 170 41 90 76 163 79 163 3 0 4 -87
2 -192 -2 -117 0 -189 6 -183 18 20 179 231 197 259 22 32 33 19 14 -16 -7
-13 -50 -73 -96 -135 -45 -62 -83 -116 -83 -121 0 -5 18 -14 40 -21 22 -6 40
-16 40 -21 0 -15 -24 -12 -83 10 -171 64 -404 66 -579 5 -83 -29 -78 -28 -78
-14 0 5 17 17 38 26 20 8 39 17 40 18 2 2 -33 49 -77 106 -91 113 -116 155
-101 164 6 3 10 2 10 -4 0 -5 41 -61 91 -123 50 -62 94 -120 98 -128 3 -8 8
73 11 180 3 124 8 188 14 175 5 -11 35 -76 68 -145 33 -69 67 -141 75 -160
l16 -35 24 115 c13 63 29 145 36 183 6 37 14 67 17 67 4 0 26 -79 49 -176z
m346 -173 c-3 -12 -14 -21 -23 -21 -14 0 -15 -2 -2 -10 8 -5 11 -12 8 -15 -8
-8 -28 3 -28 14 0 12 42 63 47 57 3 -2 2 -14 -2 -25z m-721 -26 c3 -8 1 -15
-4 -15 -6 0 -10 7 -10 15 0 8 2 15 4 15 2 0 6 -7 10 -15z m266 -29 c0 -11 -19
-15 -25 -6 -3 5 1 10 9 10 9 0 16 -2 16 -4z m-50 -46 c0 -23 -36 -36 -55 -20
-20 17 -19 37 2 49 23 12 53 -4 53 -29z m185 25 c11 -1 24 3 28 9 6 7 7 7 5
-2 -2 -8 -7 -13 -11 -13 -4 0 -24 -6 -46 -14 -31 -11 -47 -11 -77 -2 l-37 11
29 13 c16 7 43 10 59 7 17 -3 39 -7 50 -9z m115 -14 c0 -24 -18 -40 -40 -34
-25 7 -32 29 -15 47 18 18 55 9 55 -13z m-391 -30 c-2 -6 -10 2 -17 17 -11 25
-11 25 4 10 9 -9 15 -21 13 -27z m127 30 c-4 -5 -1 -11 6 -13 8 -3 7 -6 -3
-10 -10 -4 -15 1 -16 13 -1 10 3 19 8 19 6 0 8 -4 5 -9z m291 -23 c-3 -7 -5
-2 -5 12 0 14 2 19 5 13 2 -7 2 -19 0 -25z m-452 -4 c23 -9 -36 -44 -75 -44
-36 0 -38 12 -7 33 23 17 55 21 82 11z m342 0 c-3 -3 -12 -4 -19 -1 -8 3 -5 6
6 6 11 1 17 -2 13 -5z m218 -6 c36 -16 32 -35 -7 -31 -38 5 -78 23 -78 35 0
12 55 10 85 -4z m-168 -28 c90 -16 163 -40 163 -56 0 -16 -11 -18 -25 -5 -6 4
-39 16 -75 27 -51 15 -98 19 -220 19 -142 -1 -161 -3 -230 -27 -44 -15 -79
-23 -84 -18 -10 10 12 20 96 44 105 31 252 37 375 16z m-496 -64 c6 -20 3 -29
-11 -36 -27 -14 -27 -14 -39 34 -6 24 -14 52 -18 62 -6 16 -1 15 27 -7 19 -14
37 -38 41 -53z m761 10 c-23 -58 -27 -63 -44 -53 -30 20 -22 59 20 89 20 14
40 27 43 27 3 1 -5 -28 -19 -63z m-274 9 c28 -5 39 -11 31 -16 -7 -4 -21 -3
-30 2 -25 13 -69 11 -70 -3 0 -10 -2 -10 -6 0 -2 6 -9 12 -14 12 -6 0 -6 -8 1
-19 13 -25 13 -31 -1 -31 -5 0 -8 4 -5 8 3 5 -4 19 -16 31 -16 18 -27 22 -51
17 -17 -3 -31 -7 -32 -9 -16 -26 -42 -117 -33 -117 7 0 6 -6 -2 -15 -7 -9 -19
-14 -26 -11 -7 3 -16 1 -19 -4 -8 -13 -35 -13 -35 1 0 5 6 7 13 3 9 -6 9 -5 0
7 -7 9 -9 20 -3 29 7 11 3 18 -13 27 -16 9 -17 12 -6 13 9 0 16 7 16 14 0 11
-5 13 -19 5 -12 -6 -18 -6 -18 1 0 5 5 10 12 10 6 0 8 3 5 6 -4 4 -13 1 -21
-5 -8 -7 -19 -10 -24 -7 -6 3 -30 0 -54 -8 -37 -11 -45 -11 -45 0 0 7 4 11 7
9 4 -3 40 7 79 20 39 14 95 29 124 34 58 9 190 7 255 -4z m-610 -38 c20 -13
46 -27 57 -31 18 -6 17 -9 -10 -31 -17 -13 -33 -24 -37 -25 -4 0 -17 21 -30
48 -12 26 -24 50 -26 55 -6 12 7 8 46 -16z m501 -28 c26 -64 26 -69 1 -69 -11
0 -20 7 -20 15 0 8 -7 15 -15 15 -9 0 -18 -7 -21 -15 -4 -8 -15 -15 -26 -15
-15 0 -18 4 -13 18 3 9 11 36 18 60 9 33 16 42 33 42 16 0 26 -12 43 -51z
m202 40 c19 -10 18 -29 -2 -29 -6 0 -7 5 -4 10 3 6 -4 14 -17 19 -13 6 -17 10
-10 10 7 1 22 -4 33 -10z m309 2 c0 -5 -6 -14 -13 -20 -8 -6 -22 -29 -32 -51
l-18 -40 -22 20 c-12 11 -27 20 -34 20 -25 0 -5 20 49 48 62 33 70 36 70 23z
m-404 -28 c11 -52 18 -59 22 -20 3 30 7 37 24 37 16 0 19 -4 14 -22 -3 -13 -9
-40 -12 -61 -6 -31 -10 -37 -28 -35 -14 2 -24 15 -32 43 l-12 40 -7 -33 c-4
-18 -11 -35 -16 -37 -16 -11 -20 18 -9 65 9 38 17 50 31 50 12 0 21 -9 25 -27z
m-338 -39 c7 -8 12 -28 10 -46 -2 -26 -10 -36 -38 -50 l-35 -16 -22 43 c-13
24 -28 47 -34 51 -16 9 62 43 86 37 10 -3 25 -12 33 -19z m488 16 c58 -20 62
-71 9 -106 -25 -16 -28 -16 -65 2 l-39 19 31 48 c17 26 32 47 33 47 1 0 15 -5
31 -10z m-626 -24 c0 -20 -6 -25 -35 -28 -22 -2 -34 0 -32 6 2 6 13 11 25 10
11 0 21 2 20 5 -2 18 3 31 12 31 6 0 10 -11 10 -24z m705 12 c14 -6 25 -15 25
-19 0 -4 8 -10 18 -14 9 -3 37 -24 62 -47 37 -33 40 -39 20 -33 -33 10 -61 35
-53 48 3 6 1 7 -5 3 -7 -4 -12 -14 -12 -22 0 -13 -12 -18 -32 -15 -5 0 -8 -3
-8 -9 0 -14 38 -12 43 3 2 6 8 9 12 5 14 -13 -6 -28 -38 -29 -18 0 -26 -3 -19
-6 20 -8 13 -25 -8 -18 -15 5 -18 3 -14 -9 9 -22 -12 -20 -28 3 -13 18 -18 21
-40 21 -10 0 -9 3 1 9 7 5 26 7 41 4 16 -2 31 1 35 7 3 5 2 10 -3 10 -5 0 -9
23 -9 51 1 34 -4 53 -14 60 -20 12 -5 11 26 -3z m-892 -36 l47 -18 -30 -29
c-33 -32 -30 -33 -67 28 -10 15 -21 27 -25 27 -4 0 -8 5 -8 11 0 11 9 9 83
-19z m1147 20 c0 -5 -9 -17 -21 -28 -12 -10 -28 -32 -36 -47 l-14 -28 -25 25
c-14 13 -24 28 -23 33 3 7 92 49 112 52 4 0 7 -3 7 -7z m-1058 -55 c-12 -13
-22 -31 -22 -40 0 -9 -3 -16 -7 -16 -20 3 -26 -2 -13 -12 12 -8 11 -9 -5 -7
-11 2 -25 -3 -32 -12 -11 -13 -12 -13 -13 0 0 9 23 37 51 63 53 49 79 64 41
24z m113 -12 c29 -28 31 -42 9 -73 -19 -28 -63 -29 -98 -1 -32 25 -33 51 -4
79 29 27 64 25 93 -5z m476 -16 c122 -40 217 -121 267 -229 21 -45 26 -70 26
-135 -1 -112 -28 -179 -108 -259 -92 -95 -193 -135 -331 -136 -219 0 -395 134
-437 333 -38 179 102 374 312 433 73 20 197 17 271 -7z m-791 -4 c23 -8 53
-15 66 -15 29 0 30 -7 1 -43 l-23 -27 -49 50 c-27 27 -47 50 -43 50 3 0 25 -7
48 -15z m1295 -44 l-50 -49 -22 27 c-12 14 -22 28 -23 31 0 6 102 36 130 39 8
0 -8 -21 -35 -48z m-165 11 c0 -5 10 -18 21 -31 16 -17 19 -25 10 -34 -9 -9
-17 -6 -31 13 -10 14 -22 21 -26 17 -4 -4 1 -15 10 -26 23 -25 2 -39 -24 -16
-15 14 -22 15 -41 4 -17 -8 -24 -9 -27 -1 -2 6 -4 14 -5 16 -3 8 86 64 101 65
6 1 12 -3 12 -7z m50 -18 c0 -8 -5 -12 -10 -9 -6 4 -8 11 -5 16 9 14 15 11 15
-7z m-969 -30 c25 -13 30 -20 27 -47 -4 -45 -43 -66 -87 -47 -41 17 -56 43
-40 73 22 41 50 47 100 21z m1014 -44 c18 -36 21 -48 10 -44 -8 4 -18 18 -21
33 -4 14 -14 34 -22 44 -9 10 -11 17 -4 17 7 0 23 -22 37 -50z m-1237 28 c23
-1 42 -5 42 -10 0 -9 -18 -48 -26 -57 -4 -4 -114 70 -114 76 0 3 12 2 28 -1
15 -4 46 -7 70 -8z m97 -22 c-4 -20 -2 -36 4 -40 6 -4 11 -16 11 -28 0 -15 5
-19 20 -15 12 3 20 0 20 -8 0 -10 -9 -11 -42 -4 -23 6 -45 12 -49 15 -4 2 -10
-5 -14 -16 -8 -25 -15 -90 -8 -72 2 6 9 9 15 6 5 -3 0 -13 -12 -21 -18 -12
-20 -23 -18 -66 l3 -52 82 -3 82 -3 6 -30 c4 -17 13 -42 21 -57 8 -15 14 -32
14 -39 0 -7 6 -16 13 -20 25 -16 36 -57 21 -78 -20 -27 -17 -37 6 -23 12 8 15
15 9 19 -8 4 -7 9 1 14 7 4 15 4 19 -1 22 -30 127 -95 186 -115 56 -18 90 -23
170 -22 55 1 107 3 115 6 8 2 30 8 48 12 18 4 35 12 38 16 3 5 14 9 25 9 10 0
19 4 19 9 0 5 9 13 20 16 30 10 112 83 135 122 12 19 23 32 26 29 3 -3 5 3 6
12 1 9 10 40 20 68 19 54 35 59 61 22 7 -10 18 -18 24 -18 6 0 3 9 -6 19 -13
14 -14 21 -6 26 7 4 16 1 21 -6 6 -9 9 -10 9 -2 0 6 17 13 38 15 l37 3 0 60
c1 33 -2 62 -5 65 -12 9 -20 100 -9 100 6 0 7 -4 4 -10 -3 -5 -1 -18 4 -29 37
-69 22 -299 -23 -343 -7 -7 -11 -19 -8 -26 2 -6 0 -12 -5 -12 -4 0 -14 -13
-21 -30 -7 -16 -27 -44 -43 -61 -16 -17 -29 -34 -30 -38 -1 -13 -119 -102
-129 -96 -5 3 -10 2 -10 -3 0 -12 -96 -62 -119 -62 -9 0 -21 -4 -27 -8 -39
-36 -364 -45 -364 -11 0 5 -5 9 -11 9 -5 0 -7 -6 -3 -12 6 -10 5 -10 -8 -1 -8
7 -18 10 -21 6 -4 -3 -13 -1 -20 5 -8 7 -17 9 -20 5 -4 -3 -7 -1 -7 5 0 7 -9
12 -19 12 -27 0 -117 48 -153 82 -17 15 -33 28 -37 28 -9 0 -36 43 -33 53 1 5
-2 5 -8 2 -13 -8 -50 22 -50 41 0 7 -3 14 -7 16 -5 2 -17 21 -28 43 -11 22
-23 43 -28 46 -13 9 -37 112 -41 177 -5 80 17 192 51 265 30 64 47 75 38 23z
m195 20 c0 -3 -4 -8 -10 -11 -5 -3 -10 -1 -10 4 0 6 5 11 10 11 6 0 10 -2 10
-4z m1115 -4 c-6 -5 -33 -25 -62 -45 l-51 -36 -13 32 c-7 18 -14 35 -17 39 -2
4 25 9 60 11 35 2 70 4 78 5 8 1 10 -1 5 -6z m-200 -23 c9 -14 8 -14 -57 -43
l-56 -25 -18 21 c-11 12 -14 18 -7 15 6 -4 35 4 65 17 63 29 65 29 73 15z
m-140 -9 c3 -5 1 -10 -4 -10 -6 0 -11 5 -11 10 0 6 2 10 4 10 3 0 8 -4 11 -10z
m178 -84 c11 -42 2 -56 -34 -59 -13 -1 -35 -7 -48 -14 -27 -13 -41 -9 -41 12
0 7 10 15 23 17 34 5 28 33 -7 33 -50 0 -39 20 21 37 32 9 62 15 68 14 5 -2
14 -19 18 -40z m-1233 28 c0 -3 -22 -55 -26 -62 -3 -5 -114 52 -114 58 0 3 32
6 70 7 39 0 70 -1 70 -3z m1383 -14 l62 -1 -63 -29 c-34 -16 -65 -30 -69 -32
-3 -2 -7 4 -8 13 -2 9 -6 27 -10 39 -6 19 -4 22 10 17 9 -4 44 -7 78 -7z
m-1197 -41 c-14 -46 -9 -44 -82 -28 -59 13 -67 18 -55 37 5 8 18 8 54 -3 46
-14 47 -14 53 10 4 15 13 25 24 25 16 0 17 -4 6 -41z m-216 -69 c0 -22 -1 -40
-2 -40 -2 0 -34 11 -72 24 -56 20 -65 26 -45 29 13 3 42 9 64 15 22 5 43 10
48 11 4 0 7 -17 7 -39z m1445 5 l50 -8 -69 -23 c-38 -13 -71 -23 -72 -21 -2 2
-7 58 -5 69 1 4 11 4 24 -1 12 -4 45 -12 72 -16z m-1255 -15 c6 -10 10 -32 10
-49 l0 -31 -70 0 -70 0 0 38 c0 50 10 58 70 59 39 1 53 -3 60 -17z m1100 -35
c0 -37 -3 -45 -18 -45 -15 0 -18 6 -14 29 2 16 -1 32 -7 35 -7 5 -11 -5 -11
-27 0 -23 -5 -34 -15 -34 -10 0 -15 10 -15 29 0 19 -5 28 -16 28 -12 0 -14 -7
-9 -30 6 -25 3 -30 -12 -30 -16 0 -19 8 -19 45 l0 45 68 0 68 0 0 -45z m-1292
-54 l2 -39 -53 13 c-28 7 -61 15 -72 17 -13 2 1 11 40 24 82 29 82 29 83 -15z
m1417 9 c22 -7 47 -15 55 -18 13 -4 -82 -30 -115 -32 -7 0 -9 15 -7 35 3 22 9
34 16 31 6 -3 29 -10 51 -16z m-1401 -102 c3 -17 5 -32 4 -33 -2 -1 -37 0 -78
3 l-74 4 59 28 c77 36 81 36 89 -2z m1384 -38 c-40 -3 -74 -5 -75 -5 -1 1 2
17 8 37 l10 37 64 -32 65 -32 -72 -5z m-1354 -52 c9 -17 15 -32 14 -33 -2 -1
-37 -6 -78 -9 l-75 -7 60 39 c33 22 61 41 62 41 1 1 9 -13 17 -31z m1337 -14
l54 -37 -49 7 c-27 3 -61 6 -76 6 l-27 0 16 34 c9 18 19 32 22 30 3 -2 30 -20
60 -40z m-1296 -64 c3 -11 11 -20 16 -20 5 0 9 -6 9 -14 0 -8 -16 -16 -42 -20
-24 -3 -54 -9 -68 -12 -22 -6 -19 -1 20 39 25 26 48 47 52 47 4 0 10 -9 13
-20z m1245 -26 c25 -26 38 -45 30 -42 -9 3 -41 11 -73 17 l-57 12 22 30 c12
16 24 29 28 29 3 0 26 -21 50 -46z m-100 -33 c0 -5 16 -31 36 -57 25 -33 31
-45 18 -39 -11 4 -39 14 -64 23 -25 8 -47 16 -49 18 -5 4 42 63 52 63 4 1 7
-3 7 -8z m-1075 -27 c14 -14 24 -29 21 -31 -5 -5 -117 -53 -124 -53 -2 0 13
21 33 46 19 26 35 51 35 55 0 14 8 11 35 -17z m80 -69 c16 -13 27 -26 25 -27
-15 -11 -112 -68 -115 -68 -2 0 8 27 23 60 15 32 29 59 32 59 3 0 18 -11 35
-24z m940 -12 c10 -21 26 -46 35 -57 13 -16 13 -18 0 -15 -20 5 -120 63 -120
69 0 5 50 37 60 39 3 1 14 -16 25 -36z m-84 -75 c10 -29 18 -57 19 -61 0 -5
-24 11 -54 34 -52 40 -62 59 -32 59 8 0 19 7 26 15 16 20 19 16 41 -47z m-769
33 l37 -18 -58 -46 -59 -45 21 64 c12 35 21 64 22 64 0 0 17 -8 37 -19z m664
-63 c2 -18 6 -45 9 -60 2 -16 3 -28 0 -28 -2 0 -24 21 -49 48 l-45 47 37 16
c20 9 38 15 40 14 2 -2 5 -18 8 -37z m-581 22 c3 -5 15 -10 26 -10 28 0 24 -9
-28 -65 l-46 -50 6 34 c4 18 7 49 7 67 0 33 21 47 35 24z m153 -49 c-11 -21
-64 -100 -68 -101 -3 0 -6 29 -7 64 l-3 64 41 -10 c22 -6 38 -13 37 -17z m324
-37 c-2 -36 -5 -64 -7 -62 -7 7 -75 110 -75 113 0 2 15 6 33 8 17 2 37 5 42 5
6 1 9 -24 7 -64z m-215 32 c4 -3 -42 -116 -48 -116 -4 0 -9 19 -13 43 -3 23
-9 52 -12 64 -6 21 -4 22 32 16 22 -3 40 -6 41 -7z m108 -3 c-3 -10 -11 -40
-17 -68 l-11 -49 -27 59 -26 60 25 6 c50 12 64 10 56 -8z"/>
<path d="M1251 2143 c-13 -65 -26 -127 -28 -139 -4 -19 0 -21 57 -23 55 -1 61
0 56 16 -6 20 -40 165 -53 226 -7 36 -9 31 -32 -80z m32 -43 c3 -11 1 -18 -4
-14 -5 3 -9 12 -9 20 0 20 7 17 13 -6z m-11 -52 c-9 -9 -12 -7 -12 12 0 19 3
21 12 12 9 -9 9 -15 0 -24z m28 -13 c0 -16 -6 -25 -15 -25 -8 0 -15 5 -15 11
0 5 5 7 12 3 7 -4 8 -3 4 4 -4 7 -4 17 -1 22 10 16 15 12 15 -15z"/>
<path d="M1502 2230 c-1 -8 -27 -68 -57 -133 -35 -77 -50 -119 -42 -122 34
-10 102 -24 104 -21 2 2 2 68 0 147 -1 79 -4 137 -5 129z m-30 -208 c-9 -24
-24 5 -17 29 8 23 8 23 15 4 4 -11 5 -26 2 -33z m-28 -17 c3 -8 1 -15 -4 -15
-6 0 -10 7 -10 15 0 8 2 15 4 15 2 0 6 -7 10 -15z m36 -15 c0 -5 -4 -10 -10
-10 -5 0 -10 5 -10 10 0 6 5 10 10 10 6 0 10 -4 10 -10z"/>
<path d="M1042 2096 l3 -136 50 6 c28 3 55 7 61 9 6 2 -12 49 -43 111 -29 59
-53 114 -53 120 0 7 -5 16 -10 19 -7 4 -9 -39 -8 -129z m48 -43 c0 -7 -4 -13
-10 -13 -5 0 -10 12 -10 28 0 21 2 24 10 12 5 -8 10 -21 10 -27z m14 -56 c-8
-4 -19 -5 -24 -2 -14 8 -13 35 1 35 6 0 9 -7 5 -15 -3 -8 -1 -15 4 -15 6 0 10
10 11 23 0 21 1 21 8 2 6 -13 4 -23 -5 -28z"/>
<path d="M1190 1759 c0 -5 5 -7 10 -4 6 3 10 8 10 11 0 2 -4 4 -10 4 -5 0 -10
-5 -10 -11z"/>
<path d="M1127 1673 c-3 -5 5 -8 18 -8 13 0 21 3 18 8 -2 4 -10 7 -18 7 -8 0
-16 -3 -18 -7z"/>
<path d="M1260 1726 c0 -9 5 -16 10 -16 6 0 10 4 10 9 0 6 -4 13 -10 16 -5 3
-10 -1 -10 -9z"/>
<path d="M1007 1694 c-8 -9 21 -64 34 -64 16 0 21 27 9 49 -10 21 -30 27 -43
15z"/>
<path d="M1532 1665 c-10 -21 -9 -27 4 -32 20 -8 49 21 41 41 -9 24 -32 19
-45 -9z"/>
<path d="M1651 1674 c0 -11 3 -14 6 -6 3 7 2 16 -1 19 -3 4 -6 -2 -5 -13z"/>
<path d="M1670 1651 c0 -5 5 -13 10 -16 6 -3 10 -2 10 4 0 5 -4 13 -10 16 -5
3 -10 2 -10 -4z"/>
<path d="M1651 1634 c0 -11 3 -14 6 -6 3 7 2 16 -1 19 -3 4 -6 -2 -5 -13z"/>
<path d="M882 1608 c-15 -15 12 -48 39 -48 26 0 30 14 13 38 -17 25 -34 28
-52 10z"/>
<path d="M1342 1593 c-13 -5 -7 -23 9 -23 6 0 8 4 5 9 -4 5 0 12 6 14 7 3 9 5
3 5 -5 0 -16 -2 -23 -5z"/>
<path d="M1236 1565 c4 -10 0 -15 -12 -15 -9 0 -36 -11 -59 -25 -38 -22 -50
-39 -68 -96 -4 -11 -14 -15 -36 -11 -30 4 -31 3 -31 -32 0 -34 2 -36 34 -36
26 0 43 -9 74 -40 22 -22 54 -43 71 -46 28 -6 31 -10 31 -45 l0 -39 -150 100
c-82 55 -150 97 -150 93 0 -5 -5 -1 -10 7 -6 9 -10 10 -10 3 0 -11 208 -164
282 -206 21 -12 38 -27 38 -34 0 -9 -62 -53 -76 -53 -2 0 -4 7 -4 15 0 11 -11
15 -41 15 -37 0 -40 -2 -33 -22 3 -13 11 -29 17 -36 7 -9 7 -16 -2 -25 -9 -9
-16 -7 -29 10 -15 20 -19 20 -36 8 -17 -13 -17 -15 -3 -21 20 -7 23 -34 3 -34
-22 0 -41 -29 -28 -42 9 -9 19 -6 41 10 28 20 31 21 40 5 7 -14 14 -15 32 -7
l24 11 -24 12 c-21 12 -21 14 -6 25 14 10 24 9 53 -6 20 -10 44 -18 54 -18 15
0 18 -9 18 -55 l0 -55 36 0 35 0 -2 52 c-3 52 -3 52 31 61 19 5 43 15 52 24
13 12 21 12 38 3 21 -11 21 -13 4 -31 -16 -18 -16 -19 1 -25 11 -5 22 -1 29 8
10 14 14 14 35 -3 13 -11 29 -19 37 -19 26 0 14 29 -18 46 -31 16 -31 16 -9
28 22 12 22 12 2 30 -18 17 -19 17 -26 -3 -7 -24 -13 -25 -38 -7 -16 12 -16
16 -2 42 19 36 19 75 1 119 -11 27 -12 34 -2 38 28 11 188 131 179 134 -6 2
-54 -25 -108 -61 l-97 -64 -36 24 c-19 13 -43 24 -53 24 -17 0 -25 24 -16 46
1 4 49 7 106 8 l105 1 0 30 0 30 -109 1 -108 1 -1 36 c-1 45 16 48 55 11 27
-26 28 -26 53 -8 14 11 26 22 26 25 0 13 -70 60 -100 65 -16 4 -30 13 -30 20
0 10 -13 14 -40 14 -31 0 -38 -3 -34 -15z m53 -27 c7 -16 5 -26 -5 -34 -7 -6
-11 -14 -8 -17 9 -9 12 -57 3 -51 -17 10 -9 -10 14 -35 14 -16 15 -20 4 -11
-16 12 -18 12 -16 -1 1 -7 0 -21 -4 -29 -3 -8 -8 -22 -11 -30 -4 -8 -4 2 -2
23 4 31 2 38 -9 33 -8 -3 -15 -1 -15 4 0 6 6 10 14 10 10 0 14 9 12 28 -2 15
1 30 6 33 5 3 3 13 -6 22 -13 12 -13 17 -2 26 7 6 17 7 21 3 5 -4 5 -1 1 6 -5
8 -13 9 -26 2 -10 -5 -25 -10 -32 -9 -7 0 -2 5 11 10 15 6 21 15 17 24 -3 9 0
15 10 15 8 0 19 -10 23 -22z m-98 -38 c-26 -22 -50 -27 -29 -7 12 13 35 25 48
26 3 0 -6 -9 -19 -19z m174 5 c39 -17 21 -18 -25 0 -19 7 -28 14 -20 14 8 0
29 -6 45 -14z m-125 -53 c0 -39 0 -39 -37 -36 -42 3 -45 15 -11 52 32 34 48
28 48 -16z m-87 -39 c4 -41 2 -53 -9 -53 -8 0 -14 5 -14 10 0 6 -17 10 -37 11
-37 1 -37 1 -10 9 16 5 35 6 43 3 11 -4 14 5 14 38 0 56 7 47 13 -18z m200
-30 c-7 -2 -19 -2 -25 0 -7 3 -2 5 12 5 14 0 19 -2 13 -5z m125 0 c-15 -2 -42
-2 -60 0 -18 2 -6 4 27 4 33 0 48 -2 33 -4z m-238 -45 c0 -21 -1 -22 -35 -6
-34 15 -32 27 5 26 22 -1 30 -6 30 -20z m-73 -3 c9 -24 -1 -27 -15 -5 -8 13
-8 20 -2 20 6 0 13 -7 17 -15z m134 -49 c14 -15 11 -26 -7 -26 -9 0 -12 -5 -8
-12 4 -7 3 -8 -4 -4 -7 4 -12 1 -13 -6 0 -7 -5 -1 -11 15 -5 15 -16 27 -24 27
-8 0 -14 4 -14 10 0 5 14 8 30 6 25 -3 30 0 31 18 1 20 2 20 6 1 3 -11 9 -24
14 -29z m-96 25 c3 -5 2 -12 -3 -15 -5 -3 -9 1 -9 9 0 17 3 19 12 6z m155 -87
c5 -5 -40 -43 -51 -44 -3 0 -6 14 -6 31 0 28 3 30 26 24 14 -4 28 -9 31 -11z
m53 -3 c3 -14 0 -17 -14 -14 -11 3 -22 9 -25 14 -3 5 2 6 10 3 9 -3 16 -1 16
5 0 17 7 13 13 -8z m-126 -7 c-3 -3 -12 -4 -19 -1 -8 3 -5 6 6 6 11 1 17 -2
13 -5z m-2 -59 c0 -40 -19 -66 -29 -40 -3 9 -2 14 3 11 5 -3 12 1 15 10 8 21
8 26 -1 21 -5 -3 -8 5 -8 18 0 12 5 21 10 18 6 -2 11 -19 10 -38z m105 -3 c0
-56 -13 -70 -41 -43 -12 11 -29 21 -37 21 -7 0 -12 4 -10 9 5 14 72 59 81 54
4 -2 7 -21 7 -41z m38 11 c0 -21 -2 -23 -10 -9 -5 9 -6 21 -3 26 10 16 13 12
13 -17z m-2 -60 c-10 -10 -19 5 -10 18 6 11 8 11 12 0 2 -7 1 -15 -2 -18z
m-186 -26 c0 -22 -4 -23 -50 -23 -51 1 -72 16 -22 16 15 0 36 7 46 15 26 19
26 19 26 -8z m95 7 c17 -13 18 -16 5 -24 -21 -13 -33 -8 -37 18 -3 26 4 27 32
6z m-198 0 c-3 -3 -12 -4 -19 -1 -8 3 -5 6 6 6 11 1 17 -2 13 -5z m148 -15 c2
-9 -4 -16 -11 -16 -8 0 -14 9 -14 20 0 22 22 18 25 -4z m135 12 c0 -5 -7 -14
-15 -21 -12 -10 -19 -10 -27 -2 -9 9 -8 12 5 12 9 0 17 5 17 10 0 6 5 10 10
10 6 0 10 -4 10 -9z m-215 -59 c-7 -8 -45 10 -40 19 4 5 14 3 25 -3 11 -7 17
-14 15 -16z m158 13 c-3 -9 -8 -14 -10 -11 -3 3 -2 9 2 15 9 16 15 13 8 -4z
m-68 -4 c3 -6 -3 -9 -12 -9 -10 0 -26 -3 -35 -7 -11 -4 -18 -3 -18 3 0 17 55
28 65 13z m-9 -44 c-8 -12 -12 -37 -11 -54 2 -18 0 -33 -5 -33 -12 0 -17 95
-5 107 6 6 15 8 22 6 9 -4 9 -10 -1 -26z"/>
<path d="M1280 1281 c0 -7 -4 -9 -10 -6 -5 3 -10 1 -10 -4 0 -6 4 -11 9 -11
13 0 25 20 17 27 -3 4 -6 1 -6 -6z"/>
<path d="M1417 1566 c17 -13 28 -14 40 -7 17 9 16 10 -2 9 -11 0 -29 3 -40 7
-17 6 -17 5 2 -9z"/>
<path d="M1113 1555 c0 -8 4 -12 9 -9 5 3 6 10 3 15 -9 13 -12 11 -12 -6z"/>
<path d="M1390 1556 c0 -3 9 -10 20 -16 11 -6 20 -8 20 -6 0 3 -9 10 -20 16
-11 6 -20 8 -20 6z"/>
<path d="M1047 1519 c6 -23 9 -24 16 -5 3 8 0 17 -7 19 -10 4 -12 -1 -9 -14z"/>
<path d="M1500 1536 c0 -2 7 -7 16 -10 8 -3 12 -2 9 4 -6 10 -25 14 -25 6z"/>
<path d="M1021 1508 c0 -18 -7 -28 -16 -28 -8 0 -15 -4 -15 -10 0 -15 16 -12
30 4 6 8 10 25 7 38 -4 20 -4 20 -6 -4z"/>
<path d="M1525 1470 c-3 -5 -2 -10 4 -10 5 0 13 5 16 10 3 6 2 10 -4 10 -5 0
-13 -4 -16 -10z"/>
<path d="M971 1444 c0 -11 3 -14 6 -6 3 7 2 16 -1 19 -3 4 -6 -2 -5 -13z"/>
<path d="M1591 1443 c12 -14 12 -15 0 -9 -8 5 -17 3 -22 -5 -6 -10 -9 -11 -9
-1 0 6 -4 12 -9 12 -5 0 -4 -11 2 -25 14 -28 29 -33 25 -8 -2 10 3 18 10 19 6
1 15 3 20 4 4 1 11 2 16 1 5 -1 4 5 -4 13 -7 9 -19 16 -27 16 -13 0 -13 -2 -2
-17z"/>
<path d="M1005 1440 c3 -5 8 -10 11 -10 2 0 4 5 4 10 0 6 -5 10 -11 10 -5 0
-7 -4 -4 -10z"/>
<path d="M915 1410 c-3 -6 1 -7 9 -4 18 7 21 14 7 14 -6 0 -13 -4 -16 -10z"/>
<path d="M1633 1344 c-9 -19 -8 -24 2 -24 14 0 28 37 16 44 -3 2 -11 -7 -18
-20z"/>
<path d="M1677 1343 c-4 -3 -7 -11 -7 -17 0 -6 5 -5 12 2 6 6 9 14 7 17 -3 3
-9 2 -12 -2z"/>
<path d="M890 1330 c0 -5 9 -14 20 -20 11 -6 20 -9 20 -8 0 2 -9 11 -20 21
-11 9 -20 13 -20 7z"/>
<path d="M1373 1323 c9 -2 17 -9 17 -14 0 -5 5 -9 11 -9 8 0 8 5 -1 15 -7 8
-20 14 -29 14 -13 -1 -13 -2 2 -6z"/>
<path d="M1586 1293 c-6 -14 -5 -15 5 -6 7 7 10 15 7 18 -3 3 -9 -2 -12 -12z"/>
<path d="M876 1292 c-3 -4 4 -9 15 -9 23 -2 25 3 4 10 -8 4 -16 3 -19 -1z"/>
<path d="M958 1278 c2 -10 6 -18 7 -18 1 0 5 8 7 18 3 11 0 19 -7 19 -7 0 -10
-8 -7 -19z"/>
<path d="M1006 1231 c-4 -7 -5 -15 -2 -18 9 -9 19 4 14 18 -4 11 -6 11 -12 0z"/>
<path d="M1502 1225 c-7 -8 -8 -15 -3 -15 5 0 11 -8 14 -17 2 -10 4 -3 4 15 0
17 0 32 -1 32 -1 -1 -7 -7 -14 -15z"/>
<path d="M1070 1226 c0 -2 7 -7 16 -10 8 -3 12 -2 9 4 -6 10 -25 14 -25 6z"/>
<path d="M1493 1165 c0 -22 -2 -46 -6 -52 -4 -6 -2 -15 5 -19 7 -4 10 -4 6 1
-4 4 -4 13 1 19 5 6 5 29 1 51 l-9 40 2 -40z"/>
<path d="M918 1102 c5 -9 7 -24 5 -32 -4 -13 -3 -13 6 0 9 12 11 13 11 1 0 -8
2 -12 5 -10 8 9 -7 48 -21 53 -11 4 -12 1 -6 -12z"/>
<path d="M954 1109 c-3 -6 -2 -15 3 -20 5 -5 9 -1 9 11 0 23 -2 24 -12 9z"/>
<path d="M1015 1110 c3 -5 8 -10 11 -10 2 0 4 5 4 10 0 6 -5 10 -11 10 -5 0
-7 -4 -4 -10z"/>
<path d="M1535 1110 c3 -5 8 -10 11 -10 2 0 4 5 4 10 0 6 -5 10 -11 10 -5 0
-7 -4 -4 -10z"/>
<path d="M1647 1102 c1 -8 3 -19 3 -25 0 -7 4 -6 10 3 12 19 13 33 1 26 -5 -4
-11 -3 -14 1 -2 5 -2 2 0 -5z"/>
<path d="M1565 1100 c4 -6 11 -8 16 -5 14 9 11 15 -7 15 -8 0 -12 -5 -9 -10z"/>
<path d="M1558 1061 c31 -29 60 -42 47 -21 -3 6 -13 10 -21 10 -8 0 -14 4 -14
10 0 5 -10 14 -22 20 -17 8 -14 3 10 -19z"/>
<path d="M1622 1065 c0 -16 2 -22 5 -12 2 9 2 23 0 30 -3 6 -5 -1 -5 -18z"/>
<path d="M1558 1023 c7 -3 16 -2 19 1 4 3 -2 6 -13 5 -11 0 -14 -3 -6 -6z"/>
<path d="M1340 938 c0 -21 2 -38 4 -38 9 0 12 50 5 62 -6 8 -9 -1 -9 -24z"/>
<path d="M1090 926 c0 -2 7 -7 16 -10 8 -3 12 -2 9 4 -6 10 -25 14 -25 6z"/>
<path d="M783 1494 c-7 -18 20 -44 44 -44 23 0 28 32 8 46 -25 19 -44 18 -52
-2z"/>
<path d="M673 1163 c9 -2 23 -2 30 0 6 3 -1 5 -18 5 -16 0 -22 -2 -12 -5z"/>
<path d="M768 1158 c-6 -16 1 -38 12 -38 4 0 8 11 8 25 0 26 -13 34 -20 13z"/>
<path d="M1850 1161 c0 -6 5 -13 10 -16 6 -3 10 1 10 9 0 9 -4 16 -10 16 -5 0
-10 -4 -10 -9z"/>
<path d="M1891 1154 c0 -11 3 -14 6 -6 3 7 2 16 -1 19 -3 4 -6 -2 -5 -13z"/>
<path d="M704 1126 c-3 -7 -1 -29 4 -47 9 -33 9 -33 8 13 -1 51 -3 57 -12 34z"/>
<path d="M671 1104 c0 -11 3 -14 6 -6 3 7 2 16 -1 19 -3 4 -6 -2 -5 -13z"/>
<path d="M810 1095 c0 -24 16 -51 22 -39 3 5 -1 20 -8 34 -12 22 -14 22 -14 5z"/>
<path d="M1842 1080 c0 -14 2 -19 5 -12 2 6 2 18 0 25 -3 6 -5 1 -5 -13z"/>
<path d="M1871 1084 c0 -11 3 -14 6 -6 3 7 2 16 -1 19 -3 4 -6 -2 -5 -13z"/>
<path d="M1736 1074 c-4 -9 -2 -22 3 -28 5 -6 11 -24 14 -41 l4 -30 2 32 c0
17 -4 35 -9 38 -6 4 -8 15 -5 26 8 23 0 26 -9 3z"/>
<path d="M680 1050 c0 -5 5 -10 10 -10 6 0 10 5 10 10 0 6 -4 10 -10 10 -5 0
-10 -4 -10 -10z"/>
<path d="M816 1031 c-11 -17 12 -41 38 -40 20 0 20 1 2 8 -11 4 -22 16 -26 26
-5 13 -9 15 -14 6z"/>
<path d="M1845 1030 c-3 -5 -1 -10 4 -10 6 0 11 5 11 10 0 6 -2 10 -4 10 -3 0
-8 -4 -11 -10z"/>
<path d="M1696 991 c-4 -7 -5 -15 -2 -18 9 -9 19 4 14 18 -4 11 -6 11 -12 0z"/>
<path d="M865 970 c-16 -7 -17 -9 -3 -9 9 -1 20 4 23 9 7 11 7 11 -20 0z"/>
<path d="M755 950 c3 -5 8 -10 11 -10 2 0 4 5 4 10 0 6 -5 10 -11 10 -5 0 -7
-4 -4 -10z"/>
<path d="M1625 918 c-22 -18 -35 -26 -30 -18 8 13 6 13 -8 1 -9 -7 -14 -18
-10 -24 4 -6 -2 -8 -15 -5 -12 4 -22 2 -22 -2 0 -5 -8 -11 -17 -14 -10 -2 0
-3 22 0 22 2 34 1 27 -2 -6 -3 -10 -9 -8 -12 2 -4 -16 -6 -40 -5 -32 1 -44 -3
-44 -13 0 -8 -5 -14 -11 -14 -5 0 -8 4 -5 8 7 12 -96 -8 -109 -21 -7 -7 -5 -8
5 -3 12 6 11 4 -1 -6 -9 -7 -17 -17 -18 -23 -2 -5 -5 -12 -8 -15 -4 -3 -3 1 1
8 4 6 2 12 -3 12 -6 0 -11 6 -11 13 0 12 -76 14 -106 3 -8 -3 -11 2 -9 13 3
15 -4 17 -42 15 -25 -2 -61 3 -81 11 -19 8 -44 15 -56 15 -22 0 -46 17 -46 33
0 4 5 5 10 2 6 -3 10 -1 10 4 0 11 -15 15 -34 12 -5 -1 -4 5 3 13 11 13 9 14
-16 10 -15 -3 -37 -6 -48 -7 -25 -2 -44 -25 -45 -54 0 -28 37 -63 67 -63 13 0
23 -4 23 -10 0 -5 6 -10 14 -10 8 0 19 -12 24 -27 6 -16 11 -23 11 -17 1 7 12
9 26 6 16 -3 33 2 47 14 19 17 21 17 15 2 -4 -10 -2 -18 3 -18 6 0 10 -4 10
-9 0 -5 -10 -7 -22 -4 -16 3 -19 2 -10 -5 7 -5 34 -10 59 -11 25 0 49 -4 54
-7 5 -3 33 -7 62 -10 28 -3 61 -7 72 -10 16 -4 17 -3 5 5 -12 9 -11 11 8 11
12 0 22 4 22 10 0 6 10 6 27 -1 37 -14 83 -2 83 22 0 21 8 22 62 10 22 -5 36
-5 32 0 -3 5 2 9 10 9 9 0 16 5 16 10 0 6 3 9 8 9 19 -3 25 2 12 11 -12 8 -10
10 8 10 13 0 21 4 18 8 -3 5 9 6 26 4 21 -3 29 -1 24 7 -4 6 -2 11 3 11 6 0
11 7 11 16 0 8 5 12 10 9 17 -11 11 20 -8 41 -10 11 -17 26 -15 34 4 12 3 13
-5 1 -7 -10 -14 -11 -28 -2 -11 6 -14 11 -8 11 14 0 52 29 39 30 -6 0 -28 -15
-50 -32z m-666 -56 c12 -23 -3 -42 -34 -42 -12 0 -26 5 -33 12 -17 17 4 48 33
48 13 0 29 -8 34 -18z m709 -13 c3 -29 -18 -44 -48 -34 -44 14 -27 68 19 63
20 -2 27 -9 29 -29z m-600 -56 c4 -29 -30 -48 -58 -33 -11 6 -20 16 -20 23 0
40 73 49 78 10z m496 5 c16 -26 -14 -53 -48 -44 -19 5 -26 13 -26 30 0 38 53
48 74 14z m-597 -10 c-3 -8 -6 -5 -6 6 -1 11 2 17 5 13 3 -3 4 -12 1 -19z
m143 15 c0 -5 -5 -15 -10 -23 -7 -12 -9 -10 -7 8 1 19 17 33 17 15z m355 -2
c3 -5 1 -12 -4 -15 -5 -3 -11 1 -15 9 -6 16 9 21 19 6z m-282 -32 c23 -37 -29
-69 -61 -37 -16 16 -15 23 4 43 19 19 43 16 57 -6z m45 -3 c-7 -8 -15 -12 -17
-11 -5 6 10 25 20 25 5 0 4 -6 -3 -14z m211 0 c24 -29 -14 -65 -50 -46 -19 10
-26 40 -12 53 11 12 50 8 62 -7z m-128 -12 c9 -11 10 -20 2 -32 -24 -39 -82
-15 -68 28 8 24 47 27 66 4z m-87 -40 c8 -21 8 -24 -3 -24 -5 0 -11 9 -14 20
-6 24 8 27 17 4z m119 1 c-3 -9 -8 -14 -10 -11 -3 3 -2 9 2 15 9 16 15 13 8
-4z"/>
<path d="M772 918 c5 -15 28 -23 28 -10 0 5 -7 13 -16 16 -10 4 -14 1 -12 -6z"/>
<path d="M918 923 c7 -3 16 -2 19 1 4 3 -2 6 -13 5 -11 0 -14 -3 -6 -6z"/>
<path d="M830 870 c0 -5 5 -10 10 -10 6 0 10 5 10 10 0 6 -4 10 -10 10 -5 0
-10 -4 -10 -10z"/>
<path d="M1724 865 c8 -8 18 -15 22 -15 3 0 1 7 -6 15 -7 8 -17 15 -22 15 -5
0 -3 -7 6 -15z"/>
<path d="M1017 859 c7 -7 15 -10 18 -7 3 3 -2 9 -12 12 -14 6 -15 5 -6 -5z"/>
<path d="M1080 840 c0 -5 5 -10 11 -10 5 0 7 5 4 10 -3 6 -8 10 -11 10 -2 0
-4 -4 -4 -10z"/>
<path d="M1475 720 c-3 -5 -2 -10 4 -10 5 0 13 5 16 10 3 6 2 10 -4 10 -5 0
-13 -4 -16 -10z"/>
<path d="M1820 1370 c0 -13 5 -20 13 -17 6 2 12 10 12 17 0 7 -6 15 -12 18 -8
2 -13 -5 -13 -18z"/>
<path d="M700 1250 c0 -11 5 -20 10 -20 6 0 10 9 10 20 0 11 -4 20 -10 20 -5
0 -10 -9 -10 -20z"/>
<path d="M750 1250 c0 -19 11 -26 23 -14 8 8 -3 34 -14 34 -5 0 -9 -9 -9 -20z"/>
<path d="M1001 644 c0 -11 3 -14 6 -6 3 7 2 16 -1 19 -3 4 -6 -2 -5 -13z"/>
<path d="M1447 2497 c-3 -8 -1 -20 4 -28 5 -8 9 -21 9 -29 0 -13 -1 -13 -11 0
-7 10 -9 11 -7 2 5 -20 21 -16 30 8 5 13 4 19 -2 15 -10 -6 -14 7 -11 33 2 16
-6 15 -12 -1z"/>
<path d="M881 2484 c0 -11 3 -14 6 -6 3 7 2 16 -1 19 -3 4 -6 -2 -5 -13z"/>
<path d="M1073 2473 c0 -9 4 -10 14 -2 7 6 13 12 13 14 0 1 -6 2 -13 2 -8 0
-14 -6 -14 -14z"/>
<path d="M1660 2475 c0 -8 2 -15 4 -15 2 0 6 7 10 15 3 8 1 15 -4 15 -6 0 -10
-7 -10 -15z"/>
<path d="M1766 2472 c-2 -4 4 -8 14 -8 10 0 16 4 14 8 -3 4 -9 8 -14 8 -5 0
-11 -4 -14 -8z"/>
<path d="M890 2455 c0 -5 5 -17 10 -25 5 -8 10 -10 10 -5 0 6 -5 17 -10 25 -5
8 -10 11 -10 5z"/>
<path d="M1106 2443 c-4 -9 -3 -20 1 -24 4 -4 9 3 9 17 2 28 -1 31 -10 7z"/>
<path d="M1646 2423 c-6 -14 -5 -15 5 -6 7 7 10 15 7 18 -3 3 -9 -2 -12 -12z"/>
<path d="M908 2406 c-19 -14 -23 -26 -10 -26 4 0 13 9 20 20 14 23 13 24 -10
6z"/>
<path d="M858 2373 c7 -3 16 -2 19 1 4 3 -2 6 -13 5 -11 0 -14 -3 -6 -6z"/>
<path d="M1630 2371 c0 -6 4 -11 9 -11 5 0 12 -10 14 -22 4 -22 4 -22 6 -2 0
12 -6 27 -14 34 -10 9 -15 9 -15 1z"/>
<path d="M1956 2371 c-4 -7 -5 -15 -2 -18 9 -9 19 4 14 18 -4 11 -6 11 -12 0z"/>
<path d="M1675 2359 c-4 -6 -5 -12 -2 -15 2 -3 7 2 10 11 7 17 1 20 -8 4z"/>
<path d="M900 2349 c0 -5 5 -7 10 -4 6 3 10 8 10 11 0 2 -4 4 -10 4 -5 0 -10
-5 -10 -11z"/>
<path d="M1917 2339 c-4 -16 -3 -18 9 -8 7 6 11 15 8 20 -8 13 -11 11 -17 -12z"/>
<path d="M940 2339 c0 -5 -4 -8 -9 -4 -5 3 -12 2 -15 -3 -2 -4 6 -8 19 -8 15
0 21 5 18 13 -6 16 -13 17 -13 2z"/>
<path d="M1604 2329 c-19 -22 -19 -22 4 -8 12 8 22 17 22 21 0 12 -6 9 -26
-13z"/>
<path d="M1991 2334 c0 -11 3 -14 6 -6 3 7 2 16 -1 19 -3 4 -6 -2 -5 -13z"/>
<path d="M859 2326 c6 -7 8 -22 4 -31 -4 -13 -3 -16 5 -11 16 10 11 56 -6 56
-11 0 -12 -3 -3 -14z"/>
<path d="M1100 2329 c0 -5 5 -7 10 -4 6 3 10 8 10 11 0 2 -4 4 -10 4 -5 0 -10
-5 -10 -11z"/>
<path d="M1116 2311 c-4 -7 -5 -15 -2 -18 9 -9 19 4 14 18 -4 11 -6 11 -12 0z"/>
<path d="M830 2291 c0 -6 4 -13 10 -16 6 -3 7 1 4 9 -7 18 -14 21 -14 7z"/>
<path d="M1690 2270 c-6 -11 -8 -20 -6 -20 3 0 10 9 16 20 6 11 8 20 6 20 -3
0 -10 -9 -16 -20z"/>
<path d="M640 2261 c0 -6 4 -13 10 -16 6 -3 7 1 4 9 -7 18 -14 21 -14 7z"/>
<path d="M866 2253 c-6 -14 -5 -15 5 -6 7 7 10 15 7 18 -3 3 -9 -2 -12 -12z"/>
<path d="M1886 2253 c-6 -14 -5 -15 5 -6 7 7 10 15 7 18 -3 3 -9 -2 -12 -12z"/>
<path d="M1820 2240 c0 -7 24 -20 36 -20 13 0 1 19 -16 23 -11 3 -20 2 -20 -3z"/>
<path d="M1370 2221 c0 -25 6 -27 13 -6 4 8 2 17 -3 20 -6 4 -10 -3 -10 -14z"/>
<path d="M1636 2224 c-5 -14 -4 -15 9 -4 17 14 19 20 6 20 -5 0 -12 -7 -15
-16z"/>
<path d="M907 2210 c-3 -11 -1 -20 4 -20 5 0 9 2 9 4 0 2 3 11 6 20 3 9 2 16
-4 16 -5 0 -12 -9 -15 -20z"/>
<path d="M1810 2216 c0 -2 7 -7 16 -10 8 -3 12 -2 9 4 -6 10 -25 14 -25 6z"/>
<path d="M940 2191 c-6 -11 -6 -22 -1 -25 5 -3 11 5 13 19 6 30 2 32 -12 6z"/>
<path d="M736 2178 c-8 -31 -8 -43 1 -34 8 8 16 56 10 56 -3 0 -7 -10 -11 -22z"/>
<path d="M1386 2185 c-9 -26 -7 -32 5 -12 6 10 9 21 6 23 -2 3 -7 -2 -11 -11z"/>
<path d="M1600 2185 c0 -5 5 -17 10 -25 5 -8 10 -10 10 -5 0 6 -5 17 -10 25
-5 8 -10 11 -10 5z"/>
<path d="M1810 2180 c0 -5 5 -10 10 -10 6 0 10 5 10 10 0 6 -4 10 -10 10 -5 0
-10 -4 -10 -10z"/>
<path d="M763 2115 c0 -22 2 -30 4 -17 2 12 2 30 0 40 -3 9 -5 -1 -4 -23z"/>
<path d="M731 2104 c0 -11 3 -14 6 -6 3 7 2 16 -1 19 -3 4 -6 -2 -5 -13z"/>
<path d="M1818 2083 c7 -3 16 -2 19 1 4 3 -2 6 -13 5 -11 0 -14 -3 -6 -6z"/>
<path d="M1721 1950 c-5 -17 -6 -28 -1 -25 4 3 10 -1 13 -7 2 -7 4 4 4 25 -1
20 -2 37 -3 37 -1 0 -7 -14 -13 -30z"/>
<path d="M827 1953 c-4 -3 -7 -11 -7 -16 0 -6 3 -7 7 -4 3 4 13 1 22 -6 14
-11 15 -10 1 8 -8 11 -15 21 -16 23 0 1 -4 -1 -7 -5z"/>
<path d="M1781 1831 c-8 -6 -9 -11 -3 -15 6 -3 14 -1 17 5 9 14 2 20 -14 10z"/>
<path d="M652 1794 c10 -10 20 -16 22 -13 3 3 -5 11 -17 18 -21 13 -21 12 -5
-5z"/>
<path d="M565 1741 c0 -16 3 -27 7 -24 11 6 10 53 0 53 -4 0 -8 -13 -7 -29z"/>
<path d="M660 1759 c0 -5 5 -7 10 -4 6 3 10 8 10 11 0 2 -4 4 -10 4 -5 0 -10
-5 -10 -11z"/>
<path d="M690 1756 c0 -2 7 -7 16 -10 8 -3 12 -2 9 4 -6 10 -25 14 -25 6z"/>
<path d="M570 1690 c-6 -11 -8 -20 -6 -20 3 0 10 9 16 20 6 11 8 20 6 20 -3 0
-10 -9 -16 -20z"/>
<path d="M1977 1703 c-3 -4 7 -17 22 -27 l26 -20 -20 25 c-11 13 -21 25 -21
27 -1 2 -4 0 -7 -5z"/>
<path d="M486 1667 c3 -10 9 -15 12 -12 3 3 0 11 -7 18 -10 9 -11 8 -5 -6z"/>
<path d="M2055 1670 c-3 -6 1 -7 9 -4 18 7 21 14 7 14 -6 0 -13 -4 -16 -10z"/>
<path d="M483 1615 c0 -7 6 -11 14 -8 7 3 13 6 13 8 0 2 -6 5 -13 8 -8 3 -14
-1 -14 -8z"/>
<path d="M2066 1615 c4 -8 8 -15 10 -15 2 0 4 7 4 15 0 8 -4 15 -10 15 -5 0
-7 -7 -4 -15z"/>
<path d="M440 1590 c8 -5 22 -9 30 -9 10 0 8 3 -5 9 -27 12 -43 12 -25 0z"/>
<path d="M518 1563 c7 -3 16 -2 19 1 4 3 -2 6 -13 5 -11 0 -14 -3 -6 -6z"/>
<path d="M420 1541 c0 -6 4 -12 8 -15 5 -3 9 1 9 9 0 8 -4 15 -9 15 -4 0 -8
-4 -8 -9z"/>
<path d="M2136 1523 c6 -4 14 -15 17 -23 5 -11 6 -9 4 4 -1 11 -9 21 -17 23
-10 3 -11 2 -4 -4z"/>
<path d="M2065 1460 c-3 -5 -1 -10 4 -10 6 0 11 5 11 10 0 6 -2 10 -4 10 -3 0
-8 -4 -11 -10z"/>
<path d="M430 1370 c19 -13 30 -13 30 0 0 6 -10 10 -22 10 -19 0 -20 -2 -8
-10z"/>
<path d="M2127 1364 c-8 -8 1 -24 12 -24 4 0 8 7 8 15 0 16 -9 20 -20 9z"/>
<path d="M2210 1330 c8 -5 20 -10 25 -10 6 0 3 5 -5 10 -8 5 -19 10 -25 10 -5
0 -3 -5 5 -10z"/>
<path d="M346 1317 c3 -10 9 -15 12 -12 3 3 0 11 -7 18 -10 9 -11 8 -5 -6z"/>
<path d="M410 1230 c-9 -6 -10 -10 -3 -10 6 0 15 5 18 10 8 12 4 12 -15 0z"/>
<path d="M2115 1230 c11 -5 27 -9 35 -9 9 0 8 4 -5 9 -11 5 -27 9 -35 9 -9 0
-8 -4 5 -9z"/>
<path d="M2178 1203 c6 -2 18 -2 25 0 6 3 1 5 -13 5 -14 0 -19 -2 -12 -5z"/>
<path d="M345 1170 c3 -5 8 -10 11 -10 2 0 4 5 4 10 0 6 -5 10 -11 10 -5 0 -7
-4 -4 -10z"/>
<path d="M2210 1155 c14 -17 13 -18 -15 -11 l-30 7 24 -17 c19 -14 25 -14 32
-3 11 18 7 31 -12 38 -12 3 -12 1 1 -14z"/>
<path d="M470 1130 c-9 -6 -10 -10 -3 -10 6 0 15 5 18 10 8 12 4 12 -15 0z"/>
<path d="M2141 1131 c-9 -6 -10 -11 -2 -15 6 -4 11 -2 11 4 0 6 5 8 12 4 7 -4
8 -3 4 4 -8 14 -7 14 -25 3z"/>
<path d="M390 1095 c-7 -9 -11 -17 -9 -20 3 -2 10 5 17 15 14 24 10 26 -8 5z"/>
<path d="M2120 1096 c0 -2 9 -6 20 -9 11 -3 18 -1 14 4 -5 9 -34 13 -34 5z"/>
<path d="M245 1004 c0 -18 4 -30 8 -27 5 3 6 11 3 18 -5 14 16 38 27 30 4 -3
5 -2 2 2 -3 4 -13 7 -23 8 -13 1 -17 -7 -17 -31z"/>
<path d="M366 1028 c3 -4 9 -8 15 -8 5 0 9 4 9 8 0 5 -7 9 -15 9 -8 0 -12 -4
-9 -9z"/>
<path d="M2195 1029 c-4 -6 -4 -13 -1 -16 3 -4 6 -1 6 6 0 7 5 9 12 5 7 -4 8
-3 4 4 -9 15 -13 15 -21 1z"/>
<path d="M2280 1034 c0 -1 6 -7 14 -13 10 -9 15 -8 19 2 3 8 -3 13 -14 13 -11
0 -19 -1 -19 -2z"/>
<path d="M404 990 c-16 -22 -32 -40 -36 -40 -4 0 -12 15 -19 34 l-12 33 -66
-71 c-178 -191 -165 -174 -153 -200 22 -50 123 -193 169 -242 37 -38 149 -138
182 -161 2 -2 -4 -12 -15 -24 -18 -20 -18 -21 6 -40 49 -38 287 -148 385 -178
162 -49 271 -65 450 -64 229 0 395 33 596 118 76 32 188 94 233 130 19 14 19
15 0 36 -14 17 -16 23 -6 27 25 8 126 98 187 164 58 64 155 212 159 241 0 8
-39 58 -89 112 -49 54 -100 109 -112 124 -19 22 -24 24 -33 11 -5 -8 -10 -23
-10 -32 0 -31 -18 -28 -52 10 -32 35 -57 49 -49 27 2 -5 13 -44 25 -86 l23
-75 -37 -58 c-45 -70 -150 -171 -240 -231 -62 -41 -66 -46 -62 -77 3 -33 2
-33 -75 -66 -287 -121 -643 -121 -918 1 -78 35 -80 36 -83 74 -3 33 -8 40 -43
57 -66 32 -171 129 -231 213 -63 87 -64 91 -44 201 7 39 9 72 6 72 -3 0 -19
-18 -36 -40z m-67 -37 c-4 -3 -2 -12 4 -20 6 -7 8 -13 5 -13 -4 0 2 -13 13
-29 12 -16 21 -34 21 -40 0 -6 4 -11 8 -11 5 0 16 -17 25 -37 9 -21 22 -47 29
-58 17 -25 168 -175 168 -167 0 4 4 2 8 -4 4 -6 22 -19 40 -28 37 -19 43 -39
10 -34 -17 2 -37 -12 -78 -54 -30 -32 -57 -58 -61 -58 -5 0 -91 70 -139 113
-40 36 -95 104 -155 191 l-65 96 63 64 c35 35 67 71 70 80 4 9 14 16 23 16 10
0 14 -3 11 -7z m1949 -30 c16 -21 43 -51 62 -67 18 -16 30 -31 27 -34 -2 -3 2
-10 11 -16 9 -7 12 -18 8 -29 -8 -23 -27 -22 -20 1 4 12 -4 28 -26 49 -18 16
-43 42 -55 57 -12 14 -25 26 -30 26 -13 0 -105 -164 -97 -173 3 -3 -4 -8 -16
-12 -12 -4 -25 -18 -30 -31 -5 -13 -17 -24 -25 -24 -9 0 -13 -4 -10 -10 3 -5
1 -10 -4 -10 -17 0 -14 7 37 74 46 60 67 97 108 194 10 23 21 42 25 42 4 0 19
-17 35 -37z m-1885 -9 c-7 -24 -10 -26 -16 -11 -4 10 -2 24 5 32 18 21 21 14
11 -21z m1799 2 c0 -6 -4 -17 -9 -24 -7 -11 -10 -10 -15 3 -11 29 -7 45 9 39
8 -4 15 -11 15 -18z m94 -67 c10 -17 29 -35 42 -41 13 -6 24 -18 24 -26 0 -10
-5 -12 -17 -6 -10 4 -44 10 -76 12 -38 2 -57 8 -54 15 2 7 17 13 33 14 16 0
33 2 38 2 4 1 -2 9 -14 19 -13 11 -20 24 -16 30 11 19 20 14 40 -19z m-2065
-183 c29 -44 67 -96 85 -115 38 -41 157 -145 183 -159 14 -8 15 -13 6 -23 -9
-9 -17 -8 -35 9 -13 11 -50 44 -83 73 -82 72 -111 104 -158 174 -22 33 -43 62
-47 65 -4 3 -14 20 -23 39 -18 36 -11 68 7 37 6 -10 35 -55 65 -100z m2038 73
c37 -21 51 -35 45 -41 -7 -7 -20 -4 -39 9 -51 35 -59 35 -20 -1 48 -43 42 -60
-15 -40 -58 20 -71 16 -20 -6 23 -11 42 -24 42 -30 0 -17 -17 -12 -76 21 -49
28 -54 33 -41 47 13 13 21 13 64 -2 l48 -15 -38 32 c-30 26 -35 35 -25 45 16
16 12 17 75 -19z m63 15 c0 -2 -7 -4 -15 -4 -8 0 -15 4 -15 10 0 5 7 7 15 4 8
-4 15 -8 15 -10z m100 -10 c-22 -57 -105 -170 -178 -242 -133 -131 -159 -152
-171 -139 -7 9 13 32 77 87 86 73 182 178 182 199 0 6 4 11 8 11 4 0 21 25 37
55 31 57 63 78 45 29z m-66 -6 c-3 -13 -11 -24 -15 -26 -5 -2 -9 -9 -9 -15 0
-7 -10 -25 -23 -42 -34 -46 -224 -235 -236 -235 -6 0 -11 -4 -11 -10 0 -5 -6
-10 -13 -10 -10 0 -37 61 -64 143 -8 25 20 22 84 -10 54 -28 71 -50 31 -40
-30 8 -53 -12 -54 -45 -2 -34 3 -35 27 -4 10 13 31 27 45 30 15 4 24 9 21 12
-3 3 14 25 39 48 24 23 44 48 44 54 0 7 6 12 14 12 16 0 86 98 86 121 0 16 19
39 33 39 4 0 5 -10 1 -22z m-304 -96 c0 -5 -25 -31 -55 -57 -30 -27 -55 -54
-55 -59 0 -6 4 -4 10 4 7 12 10 11 15 -5 4 -11 11 -28 16 -37 17 -33 9 -32
-25 1 -25 25 -39 31 -55 26 -27 -8 -28 13 -2 23 19 7 101 72 125 99 13 14 26
17 26 5z m94 -10 c3 -10 20 -23 38 -30 26 -9 30 -14 20 -24 -10 -10 -17 -10
-32 0 -15 9 -26 10 -41 2 -20 -11 -20 -11 2 -29 14 -11 19 -23 14 -30 -5 -9
-14 -6 -34 12 -14 13 -39 32 -54 42 l-28 18 31 29 c36 32 76 37 84 10z m-1424
-148 c0 -16 -9 -18 -30 -4 -13 9 -13 11 0 19 17 12 30 5 30 -15z m1165 7 c3
-5 -4 -13 -16 -16 -23 -8 -34 -1 -24 14 8 13 32 14 40 2z m-1217 -21 c7 -11
16 -20 22 -20 5 0 31 -13 57 -28 66 -39 210 -88 318 -108 166 -31 429 -14 593
37 68 22 133 48 142 58 3 4 22 15 43 25 21 11 47 28 58 37 19 17 22 16 62 -29
23 -26 54 -58 70 -72 34 -31 34 -35 0 -52 -39 -20 -77 -42 -83 -48 -13 -14
-174 -80 -250 -103 -295 -89 -665 -78 -915 28 -16 7 -47 19 -67 26 -21 7 -38
16 -38 20 0 4 -12 10 -26 13 -32 9 -144 78 -144 90 0 9 130 145 140 146 3 0
11 -9 18 -20z m-123 -186 c329 -210 818 -260 1213 -125 88 31 272 120 303 147
20 18 29 18 29 1 0 -12 -97 -71 -195 -120 -54 -27 -238 -85 -325 -104 -105
-22 -450 -25 -545 -5 -132 28 -189 44 -258 73 -40 17 -85 34 -101 39 -16 5
-38 16 -50 23 -11 8 -48 29 -81 47 -72 40 -68 36 -60 49 9 15 8 15 70 -25z"/>
<path d="M297 899 c-10 -11 -16 -24 -12 -27 3 -4 9 -2 13 3 4 6 13 11 20 13
10 2 11 -4 7 -19 -6 -19 -5 -20 8 -8 18 17 10 42 -10 34 -11 -3 -13 -1 -9 10
7 20 4 19 -17 -6z"/>
<path d="M304 815 c6 -22 3 -25 -19 -25 -15 0 -25 -6 -25 -14 0 -8 -5 -18 -10
-21 -6 -4 -10 -3 -9 2 3 11 -19 63 -26 63 -4 0 -3 -4 0 -10 3 -5 1 -10 -5 -10
-7 0 -5 -6 3 -15 9 -8 21 -31 27 -50 6 -19 18 -35 26 -35 8 0 14 -6 14 -12 0
-9 4 -8 11 2 8 12 10 12 8 -5 -3 -40 1 -55 16 -55 8 0 15 -6 15 -14 0 -8 16
-26 35 -42 19 -15 35 -33 35 -40 0 -7 14 -21 30 -31 17 -9 30 -21 30 -26 0 -5
7 -7 15 -3 8 3 15 0 15 -7 0 -20 36 -39 48 -24 16 21 25 43 9 25 -15 -19 -37
-24 -37 -10 0 5 11 15 25 22 14 7 23 15 21 17 -2 3 -14 0 -25 -7 -14 -7 -21
-7 -21 0 0 5 4 10 9 10 5 0 13 9 16 20 3 11 10 20 15 20 5 0 7 -8 3 -17 -4
-12 0 -11 11 5 10 12 16 32 14 45 -3 22 -63 76 -85 77 -7 0 -13 6 -13 14 0 8
-8 21 -18 28 -10 7 -22 20 -26 28 -12 26 -31 57 -45 74 -7 9 -10 16 -7 16 4 0
1 7 -8 15 -8 8 -29 15 -46 15 -29 0 -32 -2 -26 -25z m56 -6 c0 -6 9 -23 21
-37 22 -28 10 -44 -16 -22 -12 10 -22 8 -50 -9 -41 -24 -55 -26 -55 -8 0 6 19
20 41 29 33 14 39 21 34 38 -5 14 -2 20 9 20 9 0 16 -5 16 -11z m70 -97 c0 -5
-9 -13 -20 -18 -18 -8 -19 -11 -7 -28 14 -19 14 -19 35 2 18 18 21 18 26 5 4
-9 5 -17 4 -18 -60 -42 -100 -65 -108 -60 -16 10 -11 21 15 31 21 8 23 11 10
27 -12 17 -15 17 -38 2 -20 -12 -27 -13 -33 -4 -4 7 -3 14 2 16 6 2 26 14 45
28 34 24 69 32 69 17z m104 -112 c34 -35 29 -49 -8 -24 -34 22 -48 8 -17 -15
17 -13 20 -20 12 -26 -7 -4 -20 0 -30 9 -10 9 -23 16 -29 16 -19 0 -14 -18 8
-30 19 -10 28 -40 12 -40 -4 0 -23 16 -42 35 -19 19 -30 35 -24 35 5 0 25 16
44 35 19 18 37 34 40 34 3 0 18 -13 34 -29z"/>
<path d="M234 813 c3 -8 6 -17 6 -19 0 -10 18 -3 23 10 3 8 -2 16 -14 19 -15
4 -19 2 -15 -10z"/>
<path d="M585 529 c-11 -17 1 -21 15 -4 8 9 8 15 2 15 -6 0 -14 -5 -17 -11z"/>
<path d="M2031 509 c8 -16 14 -18 22 -10 9 9 8 14 -3 21 -24 16 -31 11 -19
-11z"/>
<path d="M2100 615 c-10 -13 -11 -18 -1 -28 10 -9 15 -8 26 7 23 31 -1 50 -25
21z"/>
<path d="M1880 422 c-25 -13 -44 -29 -44 -38 2 -12 -1 -12 -12 -3 -11 9 -20 9
-39 -1 -14 -7 -25 -19 -25 -25 0 -6 -13 -10 -29 -9 -49 3 -78 -7 -111 -39 -17
-17 -30 -26 -28 -21 5 15 -9 17 -85 10 -108 -11 -147 -18 -142 -26 3 -4 -2
-11 -11 -14 -11 -4 -15 -2 -11 7 7 19 -69 22 -88 3 -11 -11 -12 -16 -2 -19 9
-4 9 -6 0 -6 -7 -1 -13 -10 -13 -20 0 -11 -4 -22 -9 -25 -14 -9 -19 -55 -7
-65 16 -13 149 -8 153 6 3 8 14 8 39 1 35 -9 74 -3 74 12 0 4 23 6 51 3 55 -4
79 7 79 38 0 24 12 24 29 0 11 -15 20 -17 48 -11 48 11 93 31 94 41 1 5 2 13
3 18 0 5 5 13 9 18 5 4 7 1 5 -7 -5 -23 38 -24 62 0 11 11 25 18 30 15 16 -10
50 15 50 37 0 12 -12 41 -26 66 -21 35 -24 46 -13 53 9 5 22 1 36 -13 13 -12
23 -17 23 -12 0 6 -10 19 -22 30 -23 19 -23 19 -68 -4z m24 -75 c37 -61 27
-75 -31 -42 -25 14 -48 24 -50 21 -2 -2 8 -18 22 -35 23 -27 25 -32 10 -37 -9
-4 -17 -5 -19 -3 -1 2 -15 26 -30 52 -36 63 -24 79 33 41 48 -31 60 -28 31 9
-11 14 -20 30 -20 37 0 23 25 3 54 -43z m-166 -34 c47 -40 34 -97 -24 -109
-62 -12 -103 75 -52 110 29 21 51 20 76 -1z m-221 -45 c-3 -8 -6 -5 -6 6 -1
11 2 17 5 13 3 -3 4 -12 1 -19z m66 -35 c11 -42 13 -60 4 -65 -17 -10 -24 -2
-31 39 -3 21 -9 48 -12 61 -5 15 -2 22 8 22 9 0 21 -21 31 -57z m-83 27 c0 -5
-10 -10 -21 -10 -20 0 -21 -4 -15 -50 5 -40 4 -50 -8 -50 -9 0 -16 16 -20 45
-6 39 -10 45 -32 45 -28 0 -33 16 -6 23 33 9 102 7 102 -3z m-164 -52 c10 -29
21 -56 22 -60 2 -4 -3 -8 -12 -8 -9 0 -16 5 -16 10 0 6 -13 10 -30 10 -16 0
-30 -4 -30 -10 0 -5 -7 -10 -15 -10 -18 0 -19 -5 5 60 11 30 20 56 20 57 0 2
8 3 18 3 13 0 24 -16 38 -52z m278 36 c3 -8 2 -12 -4 -9 -6 3 -10 10 -10 16 0
14 7 11 14 -7z m-216 -37 c6 3 12 0 12 -6 0 -6 -4 -11 -10 -11 -5 0 -10 -8
-10 -17 -1 -15 -2 -16 -9 -3 -5 8 -12 26 -15 40 -6 22 -5 23 6 9 7 -9 19 -14
26 -12z m132 4 c0 -3 3 -16 6 -28 4 -15 2 -23 -6 -23 -18 0 -40 26 -40 48 0
15 5 19 20 15 11 -3 20 -8 20 -12z m-110 -51 c0 -5 -2 -10 -4 -10 -3 0 -8 5
-11 10 -3 6 -1 10 4 10 6 0 11 -4 11 -10z"/>
<path d="M1664 286 c-10 -27 15 -57 44 -54 50 6 36 68 -15 68 -13 0 -26 -6
-29 -14z"/>
<path d="M1286 204 c-9 -22 -8 -24 9 -24 8 0 15 9 15 20 0 24 -15 27 -24 4z"/>
<path d="M636 432 c-3 -6 2 -8 13 -5 10 3 22 0 25 -6 4 -6 1 -11 -7 -11 -26 0
-38 -25 -27 -54 11 -30 -3 -36 -19 -8 -9 15 -10 15 -11 -5 0 -13 5 -23 12 -23
6 0 9 -3 5 -6 -15 -16 63 -64 103 -64 11 0 20 -4 20 -8 0 -10 33 -27 69 -37
18 -6 22 -4 16 6 -4 8 2 4 14 -8 24 -26 47 -29 64 -10 13 13 17 131 4 143 -14
14 -74 8 -91 -9 -10 -9 -19 -17 -22 -17 -9 0 -3 10 19 31 17 17 18 21 5 16
-10 -4 -18 -3 -18 1 0 15 -41 52 -51 47 -5 -4 -9 -2 -9 3 0 5 -15 12 -32 15
-18 4 -43 9 -54 12 -12 4 -25 2 -28 -3z m33 -65 c-1 -17 -2 -18 -6 -4 -2 9 -9
17 -14 17 -6 0 -7 5 -4 10 10 16 25 1 24 -23z m102 13 c10 -6 19 -20 19 -30 0
-26 -16 -26 -30 0 -6 11 -17 20 -25 20 -21 0 -19 -8 10 -42 20 -24 23 -33 14
-44 -16 -19 -58 -18 -81 3 -22 20 -25 55 -3 47 8 -4 15 -12 15 -19 0 -15 38
-31 48 -20 4 4 -5 16 -21 27 -26 19 -35 47 -20 61 10 10 52 8 74 -3z m127
-115 c3 -65 -11 -94 -27 -53 -9 24 -51 46 -51 27 0 -5 -9 -9 -20 -9 -11 0 -20
3 -20 6 0 12 95 94 105 90 6 -1 11 -29 13 -61z"/>
<path d="M851 276 c-9 -10 -8 -15 4 -20 8 -3 15 -4 15 -2 0 3 3 11 6 20 8 20
-9 21 -25 2z"/>
<path d="M1921 394 c0 -11 3 -14 6 -6 3 7 2 16 -1 19 -3 4 -6 -2 -5 -13z"/>
<path d="M597 393 c-4 -3 -7 -11 -7 -17 0 -6 5 -5 12 2 6 6 9 14 7 17 -3 3 -9
2 -12 -2z"/>
<path d="M1972 360 c0 -14 2 -19 5 -12 2 6 2 18 0 25 -3 6 -5 1 -5 -13z"/>
<path d="M1965 320 c-3 -5 -1 -10 4 -10 6 0 11 5 11 10 0 6 -2 10 -4 10 -3 0
-8 -4 -11 -10z"/>
<path d="M954 312 c17 -7 17 -9 2 -24 -9 -9 -17 -38 -20 -68 -3 -48 -2 -52 23
-62 14 -5 51 -11 81 -12 30 -2 63 -6 73 -10 9 -5 33 -5 51 -2 30 6 36 12 50
54 25 75 19 86 -50 94 -82 10 -114 3 -109 -24 3 -12 10 -25 16 -28 7 -5 5 -9
-5 -13 -9 -4 -16 -1 -16 6 0 8 -3 8 -9 -2 -5 -8 -7 5 -5 33 4 51 4 51 -61 60
-23 3 -32 2 -21 -2z m51 -59 c-3 -19 -9 -41 -11 -48 -4 -9 5 -15 28 -17 18 -2
31 -7 28 -13 -5 -9 -80 -9 -89 1 -3 3 10 63 25 112 9 29 26 -2 19 -35z m72 -5
c-3 -8 -6 -5 -6 6 -1 11 2 17 5 13 3 -3 4 -12 1 -19z m54 -5 c0 -16 4 -36 8
-47 6 -15 10 -11 23 23 10 25 23 41 33 41 9 0 15 -3 13 -7 -59 -124 -78 -132
-100 -43 -14 57 -14 60 4 60 13 0 18 -8 19 -27z m-45 -60 c-10 -10 -19 5 -10
18 6 11 8 11 12 0 2 -7 1 -15 -2 -18z m105 -26 c-10 -9 -11 -8 -5 6 3 10 9 15
12 12 3 -3 0 -11 -7 -18z"/>
<path d="M500 1020 c-9 -6 -10 -10 -3 -10 6 0 15 5 18 10 8 12 4 12 -15 0z"/>
<path d="M2080 1011 c0 -6 4 -13 10 -16 6 -3 7 1 4 9 -7 18 -14 21 -14 7z"/>
<path d="M166 951 c-4 -5 -2 -19 2 -32 7 -19 10 -20 15 -6 4 10 2 17 -4 17 -6
0 -9 7 -5 15 6 16 1 20 -8 6z"/>
<path d="M198 943 c7 -3 16 -2 19 1 4 3 -2 6 -13 5 -11 0 -14 -3 -6 -6z"/>
<path d="M2380 916 c0 -9 5 -16 10 -16 6 0 10 4 10 9 0 6 -4 13 -10 16 -5 3
-10 -1 -10 -9z"/>
<path d="M2018 903 c7 -3 16 -2 19 1 4 3 -2 6 -13 5 -11 0 -14 -3 -6 -6z"/>
<path d="M2070 900 c-27 -9 -25 -9 32 -14 6 -1 12 5 14 12 1 7 0 8 -3 2 -2 -5
-9 -10 -14 -10 -6 0 -7 5 -4 10 3 6 5 10 3 9 -2 -1 -14 -5 -28 -9z"/>
<path d="M463 871 c-1 -26 -1 -26 11 -3 11 21 13 21 36 5 l25 -17 -18 22 c-25
28 -52 25 -54 -7z"/>
<path d="M85 870 c-3 -6 1 -7 9 -4 18 7 21 14 7 14 -6 0 -13 -4 -16 -10z"/>
<path d="M120 872 c0 -4 9 -8 20 -8 11 0 20 4 20 8 0 4 -9 8 -20 8 -11 0 -20
-4 -20 -8z"/>
<path d="M2063 865 c0 -8 4 -12 9 -9 5 3 6 10 3 15 -9 13 -12 11 -12 -6z"/>
<path d="M2415 870 c-3 -6 1 -7 9 -4 9 3 16 1 16 -6 0 -6 5 -8 11 -4 8 4 7 9
-2 15 -18 11 -26 11 -34 -1z"/>
<path d="M90 839 c0 -5 5 -7 10 -4 6 3 10 8 10 11 0 2 -4 4 -10 4 -5 0 -10 -5
-10 -11z"/>
<path d="M2101 824 c0 -11 3 -14 6 -6 3 7 2 16 -1 19 -3 4 -6 -2 -5 -13z"/>
<path d="M89 812 c-20 -14 -24 -22 -18 -42 7 -25 7 -25 8 -2 1 13 11 32 24 43
27 23 21 23 -14 1z"/>
<path d="M595 800 c-3 -5 -1 -10 4 -10 6 0 11 5 11 10 0 6 -2 10 -4 10 -3 0
-8 -4 -11 -10z"/>
<path d="M1956 791 c8 -8 43 -8 38 0 -2 4 -13 7 -24 6 -10 -1 -17 -3 -14 -6z"/>
<path d="M520 781 c0 -6 5 -13 11 -16 6 -4 8 -13 5 -21 -3 -8 -1 -14 5 -14 6
0 8 -8 4 -17 -4 -13 -3 -15 5 -7 8 8 7 21 -4 48 -14 35 -26 46 -26 27z"/>
<path d="M562 770 c7 -10 14 -18 15 -16 6 6 -9 36 -18 36 -5 0 -4 -9 3 -20z"/>
<path d="M490 776 c0 -2 8 -10 18 -17 15 -13 16 -12 3 4 -13 16 -21 21 -21 13z"/>
<path d="M1994 753 c10 -13 23 -20 29 -16 7 4 6 8 -3 11 -8 3 -22 10 -30 16
-8 6 -7 1 4 -11z"/>
<path d="M2050 759 c0 -5 5 -7 10 -4 6 3 10 8 10 11 0 2 -4 4 -10 4 -5 0 -10
-5 -10 -11z"/>
<path d="M1876 708 c3 -4 9 -8 15 -8 5 0 9 4 9 8 0 5 -7 9 -15 9 -8 0 -12 -4
-9 -9z"/>
<path d="M607 674 c6 -15 23 -19 23 -5 0 5 -7 11 -14 14 -10 4 -13 1 -9 -9z"/>
<path d="M1896 673 c-8 -20 9 -40 19 -22 6 8 4 10 -5 4 -9 -5 -10 -2 -5 14 8
25 0 29 -9 4z"/>
<path d="M2471 674 c0 -11 3 -14 6 -6 3 7 2 16 -1 19 -3 4 -6 -2 -5 -13z"/>
<path d="M81 675 c0 -5 3 -16 8 -23 7 -11 9 -10 14 3 4 9 3 14 -2 10 -5 -3
-12 1 -14 7 -3 7 -6 9 -6 3z"/>
<path d="M660 650 c0 -11 4 -20 9 -20 5 0 7 9 4 20 -3 11 -7 20 -9 20 -2 0 -4
-9 -4 -20z"/>
<path d="M1940 650 c0 -5 5 -10 10 -10 6 0 10 5 10 10 0 6 -4 10 -10 10 -5 0
-10 -4 -10 -10z"/>
<path d="M2445 619 c-10 -15 3 -25 16 -12 7 7 7 13 1 17 -6 3 -14 1 -17 -5z"/>
<path d="M1847 609 c7 -7 15 -10 18 -7 3 3 -2 9 -12 12 -14 6 -15 5 -6 -5z"/>
<path d="M747 604 c-8 -8 1 -24 14 -24 5 0 9 7 9 15 0 15 -12 20 -23 9z"/>
<path d="M685 590 c3 -5 8 -10 11 -10 2 0 4 5 4 10 0 6 -5 10 -11 10 -5 0 -7
-4 -4 -10z"/>
<path d="M1837 589 c7 -7 15 -10 18 -7 3 3 -2 9 -12 12 -14 6 -15 5 -6 -5z"/>
<path d="M1650 586 c0 -2 7 -7 16 -10 8 -3 12 -2 9 4 -6 10 -25 14 -25 6z"/>
<path d="M1034 553 c-10 -23 -12 -63 -4 -68 4 -2 7 1 8 8 1 7 4 27 6 45 6 35
2 41 -10 15z"/>
<path d="M2386 546 c-3 -14 -3 -32 0 -40 7 -17 -11 -22 -19 -6 -3 6 -4 5 -3
-2 2 -7 9 -13 16 -13 9 0 14 15 16 43 2 47 -1 54 -10 18z"/>
<path d="M881 550 c0 -8 4 -22 9 -30 12 -18 12 -2 0 25 -6 13 -9 15 -9 5z"/>
<path d="M1530 549 c0 -5 5 -7 10 -4 6 3 10 8 10 11 0 2 -4 4 -10 4 -5 0 -10
-5 -10 -11z"/>
<path d="M1770 524 c0 -8 5 -12 10 -9 6 3 10 10 10 16 0 5 -4 9 -10 9 -5 0
-10 -7 -10 -16z"/>
<path d="M987 502 c-15 -16 -15 -18 1 -18 10 0 18 8 18 18 0 10 -1 18 -2 18 0
0 -8 -8 -17 -18z"/>
<path d="M1666 503 c-6 -14 -5 -15 5 -6 7 7 10 15 7 18 -3 3 -9 -2 -12 -12z"/>
<path d="M200 495 c0 -8 5 -15 10 -15 6 0 10 7 10 15 0 8 -4 15 -10 15 -5 0
-10 -7 -10 -15z"/>
<path d="M1155 499 c-4 -6 -5 -12 -2 -15 2 -3 7 2 10 11 7 17 1 20 -8 4z"/>
<path d="M1561 496 c-10 -12 -8 -13 8 -9 12 3 21 9 21 14 0 14 -16 11 -29 -5z"/>
<path d="M885 490 c3 -5 8 -10 11 -10 2 0 4 5 4 10 0 6 -5 10 -11 10 -5 0 -7
-4 -4 -10z"/>
<path d="M1437 487 c-3 -8 1 -14 8 -14 7 0 11 6 8 14 -3 7 -6 13 -8 13 -2 0
-5 -6 -8 -13z"/>
<path d="M1770 486 c0 -8 5 -18 12 -22 7 -5 9 -2 5 9 -3 9 -1 18 6 21 7 2 4 5
-5 5 -10 1 -18 -5 -18 -13z"/>
<path d="M2330 490 c0 -5 5 -10 10 -10 6 0 10 5 10 10 0 6 -4 10 -10 10 -5 0
-10 -4 -10 -10z"/>
<path d="M814 466 c11 -9 24 -16 30 -16 12 0 7 5 -24 19 -24 11 -24 11 -6 -3z"/>
<path d="M850 470 c8 -5 20 -10 25 -10 6 0 3 5 -5 10 -8 5 -19 10 -25 10 -5 0
-3 -5 5 -10z"/>
<path d="M275 460 c3 -5 8 -10 11 -10 2 0 4 5 4 10 0 6 -5 10 -11 10 -5 0 -7
-4 -4 -10z"/>
<path d="M1266 453 c-4 -9 -2 -21 4 -27 8 -8 9 -6 5 7 -4 10 -2 17 4 17 6 0
11 5 11 10 0 16 -17 11 -24 -7z"/>
<path d="M1302 450 c0 -14 2 -19 5 -12 2 6 2 18 0 25 -3 6 -5 1 -5 -13z"/>
<path d="M1410 450 c0 -11 4 -20 9 -20 5 0 7 9 4 20 -3 11 -7 20 -9 20 -2 0
-4 -9 -4 -20z"/>
<path d="M1738 453 c7 -3 16 -2 19 1 4 3 -2 6 -13 5 -11 0 -14 -3 -6 -6z"/>
<path d="M2302 440 c-7 -11 -8 -20 -3 -20 9 0 24 30 18 36 -1 2 -8 -6 -15 -16z"/>
<path d="M247 429 c-4 -16 -3 -18 9 -8 7 6 11 15 8 20 -8 13 -11 11 -17 -12z"/>
<path d="M283 428 c3 -9 1 -19 -6 -22 -9 -3 -9 -5 0 -5 18 -1 27 19 13 32 -10
9 -12 8 -7 -5z"/>
<path d="M1080 429 c0 -5 5 -7 10 -4 6 3 10 8 10 11 0 2 -4 4 -10 4 -5 0 -10
-5 -10 -11z"/>
<path d="M1480 426 c0 -8 4 -17 9 -20 5 -4 7 3 4 14 -6 23 -13 26 -13 6z"/>
<path d="M1700 430 c0 -5 7 -7 15 -4 8 4 15 8 15 10 0 2 -7 4 -15 4 -8 0 -15
-4 -15 -10z"/>
<path d="M908 423 c12 -2 30 -2 40 0 9 3 -1 5 -23 4 -22 0 -30 -2 -17 -4z"/>
<path d="M310 412 c0 -4 10 -9 22 -9 18 -2 20 0 8 7 -18 12 -30 13 -30 2z"/>
<path d="M1206 411 c9 -9 34 -9 34 -1 0 5 -9 8 -20 7 -10 -1 -17 -3 -14 -6z"/>
<path d="M2250 409 c0 -5 5 -7 10 -4 6 3 10 8 10 11 0 2 -4 4 -10 4 -5 0 -10
-5 -10 -11z"/>
<path d="M1445 400 c-3 -6 1 -7 9 -4 18 7 21 14 7 14 -6 0 -13 -4 -16 -10z"/>
<path d="M1005 390 c-13 -5 -14 -9 -5 -9 8 0 24 4 35 9 13 5 14 9 5 9 -8 0
-24 -4 -35 -9z"/>
<path d="M1068 383 c7 -3 16 -2 19 1 4 3 -2 6 -13 5 -11 0 -14 -3 -6 -6z"/>
<path d="M1345 380 c-3 -5 -1 -10 4 -10 6 0 11 5 11 10 0 6 -2 10 -4 10 -3 0
-8 -4 -11 -10z"/>
<path d="M1407 370 c-3 -11 -3 -20 -1 -20 2 0 8 9 14 20 6 11 7 20 2 20 -6 0
-12 -9 -15 -20z"/>
<path d="M1478 383 c7 -3 16 -2 19 1 4 3 -2 6 -13 5 -11 0 -14 -3 -6 -6z"/>
<path d="M2229 383 c-2 -5 -17 -18 -33 -31 -16 -12 -24 -22 -18 -22 16 0 68
47 61 55 -4 3 -9 3 -10 -2z"/>
<path d="M1095 370 c-16 -7 -17 -9 -3 -9 9 -1 20 4 23 9 7 11 7 11 -20 0z"/>
<path d="M1130 370 c0 -5 10 -10 23 -10 18 0 19 2 7 10 -19 13 -30 13 -30 0z"/>
<path d="M1208 373 c17 -2 47 -2 65 0 17 2 3 4 -33 4 -36 0 -50 -2 -32 -4z"/>
<path d="M1448 363 c6 -2 18 -2 25 0 6 3 1 5 -13 5 -14 0 -19 -2 -12 -5z"/>
<path d="M1208 353 c7 -3 16 -2 19 1 4 3 -2 6 -13 5 -11 0 -14 -3 -6 -6z"/>
<path d="M1318 353 c7 -3 16 -2 19 1 4 3 -2 6 -13 5 -11 0 -14 -3 -6 -6z"/>
<path d="M2230 342 c0 -6 -8 -13 -17 -15 -16 -4 -16 -5 -1 -6 18 -1 34 16 24
26 -3 4 -6 1 -6 -5z"/>
<path d="M411 304 c0 -11 3 -14 6 -6 3 7 2 16 -1 19 -3 4 -6 -2 -5 -13z"/>
<path d="M404 260 c0 -13 4 -16 10 -10 7 7 7 13 0 20 -6 6 -10 3 -10 -10z"/>
<path d="M2120 220 c0 -5 6 -10 14 -10 8 0 18 5 21 10 3 6 -3 10 -14 10 -12 0
-21 -4 -21 -10z"/>
<path d="M485 190 c-3 -5 -2 -10 4 -10 5 0 13 5 16 10 3 6 2 10 -4 10 -5 0
-13 -4 -16 -10z"/>
<path d="M532 185 c3 -3 16 -8 28 -10 12 -2 20 -1 16 2 -4 4 -16 8 -28 10 -12
2 -19 1 -16 -2z"/>
<path d="M2037 179 c7 -7 15 -10 18 -7 3 3 -2 9 -12 12 -14 6 -15 5 -6 -5z"/>
<path d="M2125 180 c-3 -5 -1 -10 4 -10 6 0 11 5 11 10 0 6 -2 10 -4 10 -3 0
-8 -4 -11 -10z"/>
<path d="M2008 163 c7 -3 16 -2 19 1 4 3 -2 6 -13 5 -11 0 -14 -3 -6 -6z"/>
<path d="M648 133 c7 -3 16 -2 19 1 4 3 -2 6 -13 5 -11 0 -14 -3 -6 -6z"/>
<path d="M888 53 c7 -3 16 -2 19 1 4 3 -2 6 -13 5 -11 0 -14 -3 -6 -6z"/>
<path d="M918 33 c7 -3 16 -2 19 1 4 3 -2 6 -13 5 -11 0 -14 -3 -6 -6z"/>
<path d="M890 10 c8 -5 20 -10 25 -10 6 0 3 5 -5 10 -8 5 -19 10 -25 10 -5 0
-3 -5 5 -10z"/>
<path d="M980 10 c-8 -5 -10 -10 -5 -10 6 0 17 5 25 10 8 5 11 10 5 10 -5 0
-17 -5 -25 -10z"/>
<path d="M1035 10 c-3 -6 1 -7 9 -4 18 7 21 14 7 14 -6 0 -13 -4 -16 -10z"/>
<path d="M1468 13 c7 -3 16 -2 19 1 4 3 -2 6 -13 5 -11 0 -14 -3 -6 -6z"/>
</g>
</svg>
