<?xml version="1.0" standalone="no"?>
<!DOCTYPE svg PUBLIC "-//W3C//DTD SVG 20010904//EN"
 "http://www.w3.org/TR/2001/REC-SVG-20010904/DTD/svg10.dtd">
<svg version="1.0" xmlns="http://www.w3.org/2000/svg"
 width="192.000000pt" height="192.000000pt" viewBox="0 0 192.000000 192.000000"
 preserveAspectRatio="xMidYMid meet">
<metadata>
Created by potrace 1.16, written by Peter Selinger 2001-2019
</metadata>
<g transform="translate(0.000000,192.000000) scale(0.100000,-0.100000)"
fill="#000000" stroke="none">
<path d="M75 1900 c-4 -11 -4 -33 -1 -48 11 -51 36 -314 36 -377 0 -35 -18
-149 -42 -261 -41 -192 -42 -205 -43 -384 0 -168 2 -192 23 -254 48 -143 111
-226 234 -310 68 -46 110 -65 233 -105 184 -60 235 -82 296 -127 34 -25 57
-34 76 -32 27 3 26 5 -27 39 -68 45 -178 102 -205 106 -27 4 -200 62 -254 85
-72 31 -177 105 -219 156 -48 57 -105 169 -122 237 -7 29 -12 118 -12 210 1
166 5 199 67 455 30 129 31 210 5 432 -11 92 -17 174 -14 183 4 9 1 15 -9 15
-9 0 -19 -9 -22 -20z"/>
<path d="M145 1906 c-18 -13 -19 -19 -6 -137 7 -68 16 -180 18 -249 4 -113 2
-139 -26 -265 -52 -240 -63 -327 -58 -470 3 -106 9 -143 29 -202 32 -90 100
-187 170 -240 70 -54 201 -116 313 -148 115 -32 257 -102 314 -155 24 -22 50
-40 57 -40 8 0 40 21 71 47 71 57 190 115 308 148 173 49 336 145 401 237 128
178 145 380 64 768 -45 220 -49 302 -25 505 20 167 20 192 -6 206 -22 12 -85
4 -106 -13 -21 -17 -196 -48 -273 -48 -85 0 -178 21 -227 51 -20 13 -45 19
-65 17 -29 -3 -21 -8 66 -43 99 -40 101 -40 230 -40 111 1 148 5 244 29 82 21
116 26 124 18 8 -8 7 -32 -2 -89 -6 -43 -14 -152 -17 -243 -5 -163 -5 -167 37
-375 66 -333 64 -485 -12 -644 -64 -134 -218 -244 -438 -311 -132 -41 -237
-91 -316 -151 l-62 -47 -33 34 c-45 47 -202 125 -329 164 -288 88 -436 225
-486 447 -25 115 -15 270 36 517 46 229 51 340 24 559 -11 90 -12 133 -5 140
7 7 45 2 123 -18 80 -20 147 -30 228 -33 122 -4 166 5 285 60 l50 23 -32 3
c-21 2 -42 -4 -60 -17 -90 -66 -321 -66 -505 -1 -68 24 -78 24 -103 6z"/>
<path d="M330 1900 c125 -39 298 -37 385 6 28 13 26 14 -40 7 -90 -9 -196 -9
-315 0 l-95 7 65 -20z"/>
<path d="M852 1894 c-24 -14 -80 -40 -125 -57 -74 -28 -92 -31 -192 -30 -107
1 -224 19 -310 49 -22 7 -43 10 -47 6 -3 -4 -3 -27 2 -52 16 -88 32 -325 26
-390 -3 -36 -22 -141 -41 -235 -53 -259 -62 -360 -41 -480 23 -136 58 -206
146 -288 80 -76 204 -142 335 -177 103 -28 209 -77 291 -135 l66 -45 40 31
c58 46 195 114 280 139 403 117 550 311 516 684 -5 54 -25 175 -46 270 -35
162 -37 180 -35 331 1 88 8 202 16 253 7 51 10 95 6 97 -4 3 -25 -1 -46 -9
-83 -29 -210 -49 -313 -49 -94 -1 -114 3 -189 31 -46 17 -103 43 -126 57 -52
30 -70 32 -56 7 13 -24 132 -82 215 -104 89 -23 220 -23 351 1 55 10 108 22
118 26 16 7 18 3 13 -36 -3 -24 -8 -129 -12 -234 l-6 -190 43 -205 c37 -180
43 -221 43 -335 0 -135 -7 -167 -57 -273 -27 -60 -119 -151 -196 -196 -36 -20
-128 -59 -205 -85 -153 -52 -234 -88 -309 -138 l-49 -33 -46 32 c-26 18 -81
49 -122 70 -41 20 -67 37 -57 38 11 0 32 10 49 21 28 20 29 25 23 65 -5 36 -3
46 16 65 13 13 24 19 25 13 1 -5 5 -21 8 -37 5 -22 12 -27 37 -27 18 0 39 9
52 23 25 24 30 27 52 27 8 0 25 10 37 22 17 17 24 19 37 9 32 -23 67 -32 98
-26 29 5 33 10 33 39 0 30 -4 34 -32 40 -29 6 -32 20 -5 21 23 1 65 28 70 44
2 9 0 25 -4 36 -4 11 -8 37 -8 58 -1 33 2 37 23 37 22 0 25 -5 28 -42 3 -37 6
-43 27 -44 13 -1 36 5 50 14 l27 15 -4 156 c-6 215 -4 222 37 139 28 -58 32
-78 31 -135 -2 -103 -3 -102 23 -98 12 1 36 10 52 19 30 16 30 17 31 103 0 78
5 98 37 175 59 140 47 202 -37 196 -34 -3 -42 -7 -44 -27 -2 -13 1 -28 7 -34
14 -14 14 -46 0 -85 -14 -40 -29 -32 -29 14 0 30 -3 34 -26 34 -28 0 -94 -36
-94 -51 0 -5 -7 -9 -16 -9 -41 0 -72 -33 -89 -94 l-17 -60 -20 27 c-21 29 -43
33 -83 15 -18 -8 -25 -19 -25 -39 0 -15 5 -31 10 -34 6 -3 10 -13 10 -22 0
-15 -2 -14 -18 0 -28 25 -108 22 -157 -6 -43 -24 -59 -62 -31 -73 13 -5 16
-26 15 -128 l-1 -121 -23 90 c-13 50 -28 116 -35 148 -10 50 -14 57 -35 57
-40 0 -57 -42 -92 -229 -35 -191 -62 -291 -79 -291 -13 0 -166 52 -218 75 -58
25 -146 87 -188 133 -21 23 -38 43 -38 46 0 2 14 2 30 -1 43 -6 95 13 123 46
13 15 34 31 48 34 14 4 38 16 53 28 24 19 26 25 20 69 -4 30 -2 50 5 54 7 5
11 -6 11 -33 0 -37 2 -41 25 -41 29 0 85 26 85 39 0 5 10 11 23 15 12 3 43 19
70 35 40 26 47 35 47 63 1 27 2 30 11 16 15 -27 54 -23 67 7 9 18 19 25 41 25
18 0 40 11 60 29 28 26 29 31 18 60 -9 24 -9 33 2 43 11 11 13 8 9 -14 -3 -16
0 -32 7 -38 17 -14 70 -2 91 21 9 11 23 19 29 19 7 0 23 9 37 19 25 20 25 21
20 150 -4 116 -3 131 11 131 24 0 31 -41 23 -136 l-6 -84 25 0 c14 0 40 7 57
16 28 14 30 19 25 55 -5 38 -5 38 16 24 44 -31 118 -12 139 37 9 20 20 28 38
28 14 0 36 7 49 16 20 15 22 22 17 63 l-6 46 20 -38 c19 -34 25 -38 53 -35 30
3 32 5 29 38 -5 70 -6 217 -2 301 6 102 -3 119 -61 119 -32 0 -40 -4 -45 -24
-3 -13 -1 -33 5 -44 6 -12 11 -31 11 -44 -1 -20 -2 -21 -11 -5 -6 11 -22 17
-42 17 -59 -1 -91 -46 -58 -84 16 -19 15 -19 -11 -1 -37 23 -88 13 -132 -25
-19 -17 -41 -30 -51 -30 -9 0 -30 -9 -45 -20 -16 -11 -60 -37 -99 -57 -39 -19
-78 -43 -88 -52 -10 -10 -28 -15 -43 -13 -23 3 -28 -1 -38 -36 -9 -30 -16 -39
-30 -36 -22 6 -92 -23 -93 -39 -1 -6 -1 -18 0 -24 1 -9 -7 -11 -27 -7 -30 6
-96 -25 -106 -51 -3 -8 -16 -15 -30 -15 -13 0 -38 -14 -56 -30 -31 -29 -32
-31 -16 -55 12 -18 16 -48 15 -117 l0 -93 -20 70 c-11 39 -23 91 -26 118 -5
40 -9 47 -28 47 -46 0 -56 -25 -96 -245 -18 -99 -16 -96 -47 -66 -15 14 -45
41 -65 59 -37 33 -43 52 -19 60 7 2 12 -7 12 -21 0 -29 42 -63 75 -63 18 1 21
10 27 76 4 41 5 81 3 88 -6 15 -129 16 -174 1 -38 -13 -61 -54 -61 -108 0 -57
14 -81 81 -140 40 -36 59 -60 59 -75 0 -24 -26 -54 -37 -42 -3 3 -1 6 5 6 16
0 15 53 0 68 -20 20 -65 14 -96 -13 l-30 -25 -11 50 c-22 102 -14 209 35 453
l46 232 -6 180 c-3 99 -9 201 -12 226 l-6 46 88 -20 c66 -15 126 -21 229 -21
122 -1 149 2 210 23 82 28 175 80 175 98 0 18 -9 16 -58 -13z m768 -199 c9
-11 9 -41 -1 -140 -10 -99 -10 -139 0 -191 12 -65 9 -87 -8 -68 -5 5 -26 49
-47 99 l-39 89 -3 -93 c-2 -55 2 -98 8 -106 8 -9 4 -17 -14 -29 -14 -9 -27
-16 -28 -16 -2 0 -2 72 0 160 3 138 1 161 -12 166 -9 3 -16 9 -16 13 0 7 43
31 54 31 2 0 17 -29 32 -65 16 -36 31 -65 34 -65 11 0 10 183 -1 196 -12 15
-4 34 15 34 8 0 19 -7 26 -15z m-176 -209 c36 -73 18 -244 -31 -298 -20 -22
-66 -23 -87 -3 -34 34 -48 176 -26 256 15 53 56 91 94 87 25 -2 35 -11 50 -42z
m-175 -37 c-12 -23 -8 -292 5 -320 5 -11 -1 -19 -21 -29 -15 -8 -30 -16 -33
-17 -3 -2 -4 72 -2 163 3 130 0 169 -10 176 -9 7 -9 11 -2 14 6 3 20 11 30 19
30 23 47 19 33 -6z m-85 -61 c10 -37 7 -100 -4 -93 -5 3 -10 17 -10 29 0 25
-22 51 -33 39 -12 -11 -8 -298 4 -310 7 -7 2 -17 -20 -32 -17 -13 -31 -19 -31
-14 -1 4 -1 79 0 166 1 154 -5 183 -30 138 -5 -11 -10 -31 -10 -45 0 -14 -4
-26 -10 -26 -5 0 -10 21 -10 48 l0 47 68 37 c37 21 70 38 73 38 4 0 9 -10 13
-22z m-194 -90 c0 -33 17 -114 50 -243 17 -64 17 -70 2 -82 -24 -18 -45 -16
-38 3 8 22 -4 64 -18 64 -26 0 -56 -41 -56 -75 0 -19 5 -35 10 -35 19 0 10
-15 -18 -28 -53 -26 -55 -27 -44 -6 6 11 22 82 36 159 35 189 56 275 67 275 5
0 9 -15 9 -32z m-85 -55 c-4 -10 -22 -99 -41 -198 -19 -99 -37 -188 -40 -197
-9 -30 -24 -20 -24 15 0 46 -57 248 -74 266 -14 13 -11 17 19 38 41 28 48 29
40 3 -6 -20 24 -180 35 -180 9 0 32 185 25 211 -4 19 0 28 22 41 37 21 47 22
38 1z m154 -75 c-1 -57 -3 -56 -18 10 -7 34 -6 42 5 42 10 0 14 -14 13 -52z
m-237 -18 c-6 -41 -12 -38 -12 6 0 19 4 33 8 30 5 -3 7 -19 4 -36z m745 -6
c41 -11 35 -51 -36 -232 -23 -57 -28 -141 -9 -160 6 -6 10 -13 7 -14 -2 -2
-18 -13 -35 -24 l-30 -22 4 83 c4 82 4 84 -38 160 -23 42 -40 77 -39 79 24 16
59 36 64 36 3 0 3 -10 0 -23 -5 -20 31 -124 40 -115 2 2 15 34 29 72 30 78 34
131 10 140 -8 3 -12 10 -9 16 7 11 12 12 42 4z m-897 -66 c-5 -24 -7 -72 -6
-108 2 -36 3 -91 4 -122 1 -32 5 -58 10 -58 20 1 34 21 45 65 7 27 18 50 26
53 9 3 11 -1 7 -14 -3 -11 -6 -36 -8 -57 -2 -35 -7 -41 -59 -73 -31 -18 -58
-34 -60 -34 -2 0 -3 74 -2 165 3 161 2 166 -19 174 -20 7 -19 9 13 28 51 32
58 29 49 -19z m64 -47 c9 -38 18 -76 22 -85 4 -11 1 -16 -14 -16 -11 0 -27
-10 -36 -22 -15 -22 -15 -17 -12 82 3 58 5 109 5 113 1 5 5 6 10 2 5 -3 16
-36 25 -74z m-209 7 c-4 -19 56 -256 79 -309 6 -14 -4 -23 -58 -48 -5 -2 -6 4
-2 14 9 24 -4 85 -18 85 -38 -1 -74 -91 -48 -123 8 -9 1 -18 -30 -36 l-41 -23
7 23 c4 13 22 105 41 204 18 99 38 192 44 208 13 32 34 37 26 5z m817 -213
c-3 -109 0 -170 7 -179 8 -10 5 -16 -15 -24 -14 -7 -27 -12 -30 -12 -3 0 -4
47 -2 105 3 118 -8 132 -30 37 -8 -34 -18 -62 -22 -62 -4 0 -15 18 -25 40 -10
23 -23 44 -28 47 -11 6 -4 -190 7 -217 4 -10 -3 -20 -21 -31 l-28 -15 3 160
c3 138 2 162 -12 172 -15 10 -14 13 8 27 28 19 32 16 66 -52 26 -52 29 -49 56
57 13 52 26 80 43 93 13 10 24 19 25 19 0 0 -1 -74 -2 -165z m-942 126 c0 -6
-5 -13 -11 -17 -7 -4 -10 -27 -7 -60 4 -50 3 -53 -12 -39 -9 8 -22 15 -29 15
-8 0 -9 5 -2 18 14 25 -5 52 -36 52 -30 0 -63 -25 -63 -48 0 -8 34 -47 75 -87
73 -69 75 -73 75 -119 0 -58 -21 -101 -60 -121 -55 -28 -111 -10 -131 42 -14
37 13 75 48 71 29 -3 45 -28 19 -28 -22 0 -31 -27 -16 -45 33 -40 100 0 100
59 0 35 -12 50 -97 129 -45 41 -59 79 -44 120 16 41 54 60 106 54 25 -2 48 -1
51 4 7 12 34 11 34 0z m694 -172 c37 -29 37 -104 1 -147 -30 -35 -31 -63 -6
-117 22 -49 55 -79 76 -72 9 4 15 1 15 -8 0 -20 -49 -20 -77 0 -28 20 -64 79
-72 118 -4 17 -12 32 -19 35 -12 4 -11 -9 3 -124 3 -26 -1 -34 -21 -43 -33
-15 -32 -15 -31 17 1 15 0 89 -1 165 -2 123 -4 137 -19 137 -16 1 -16 2 2 16
28 23 76 43 101 44 12 0 33 -9 48 -21z m-244 -48 c0 -18 66 -308 76 -335 5
-12 -22 -36 -39 -36 -3 0 -8 20 -11 45 -4 25 -9 45 -12 45 -3 0 -22 -9 -43
-20 -34 -17 -39 -24 -43 -62 -3 -24 -1 -48 4 -55 6 -8 -3 -20 -28 -37 -21 -14
-40 -24 -42 -22 -2 2 3 17 11 33 8 15 29 102 46 193 37 191 58 270 71 270 6 0
10 -8 10 -19z m279 -168 l0 -58 -16 32 c-14 28 -15 36 -3 58 7 14 15 25 17 25
2 0 3 -26 2 -57z"/>
<path d="M1361 1486 c-22 -26 -34 -157 -21 -220 25 -121 70 -83 78 67 2 51 0
108 -5 127 -10 38 -33 49 -52 26z m29 -175 c-5 -35 -11 -65 -13 -68 -18 -18
-17 182 2 212 11 19 19 -81 11 -144z"/>
<path d="M967 1180 c-10 -27 -18 -120 -10 -120 29 1 35 19 26 76 -5 33 -12 52
-16 44z"/>
<path d="M496 869 c-8 -68 -7 -72 18 -63 12 5 16 13 12 28 -3 11 -6 38 -6 59
0 59 -17 43 -24 -24z"/>
<path d="M1010 685 c0 -56 3 -75 13 -75 34 0 61 67 50 123 -4 22 -11 27 -34
27 l-29 0 0 -75z m37 14 c2 -16 -1 -19 -9 -11 -5 5 -7 15 -4 21 10 15 12 14
13 -10z"/>
<path d="M817 594 c-3 -10 -8 -45 -12 -76 -5 -47 -4 -58 8 -58 28 0 39 27 31
77 -8 61 -19 84 -27 57z"/>
<path d="M1205 1906 c87 -43 260 -45 385 -6 l65 20 -95 -7 c-119 -9 -225 -9
-315 0 -66 7 -68 6 -40 -7z"/>
<path d="M1814 1872 c-1 -26 -9 -108 -18 -182 -22 -188 -20 -275 9 -400 62
-260 66 -288 66 -460 0 -111 -5 -182 -15 -217 -22 -82 -77 -181 -131 -237 -50
-51 -164 -134 -194 -141 -9 -3 -47 -16 -86 -31 -80 -30 -195 -65 -195 -58 0 7
-127 -63 -188 -103 -38 -26 -51 -39 -39 -41 9 -2 27 4 39 12 28 20 58 20 84 1
24 -18 34 -19 34 -1 0 7 -10 20 -21 28 l-22 14 26 17 c14 9 108 44 209 77 155
51 196 69 266 117 123 83 186 166 234 309 21 62 23 86 23 254 -1 179 -2 191
-44 390 -42 196 -43 210 -37 320 4 63 13 166 20 229 14 117 12 151 -8 151 -6
0 -12 -20 -12 -48z"/>
<path d="M925 1799 c-62 -33 -95 -59 -95 -75 0 -9 -11 -14 -34 -14 -38 0 -88
-34 -80 -54 3 -9 -2 -13 -18 -11 -13 1 -38 -5 -57 -12 -18 -7 -43 -10 -55 -7
-24 6 -54 -5 -101 -36 -16 -11 -40 -24 -52 -29 -29 -13 -30 -16 -38 -108 -7
-90 1 -106 44 -83 21 11 21 9 21 -95 0 -100 1 -105 21 -105 12 0 39 10 61 22
37 21 39 25 34 58 -9 60 -19 220 -13 220 3 0 18 -5 32 -10 27 -10 27 -10 24
-103 -4 -92 -4 -92 21 -95 30 -3 90 32 90 53 0 10 10 15 28 15 15 0 38 6 52
13 l25 13 -4 167 c-2 117 0 167 8 167 11 0 17 -112 12 -232 -2 -57 -2 -58 24
-58 27 0 119 44 165 80 23 17 25 26 24 89 0 39 3 71 7 71 11 0 19 43 12 68 -3
13 -13 22 -24 22 -14 0 -19 7 -19 29 0 16 -3 36 -6 45 -9 23 -61 20 -109 -5z
m88 -31 c6 -42 2 -46 -23 -23 -18 17 -21 17 -45 1 -21 -14 -25 -24 -25 -61 0
-48 4 -52 34 -30 11 8 30 15 43 15 13 0 32 9 43 20 20 20 20 20 20 0 0 -24
-33 -46 -81 -54 -50 -9 -61 -25 -57 -88 2 -41 7 -54 21 -56 23 -5 87 60 87 87
0 12 5 21 11 21 7 0 9 -9 5 -22 -3 -13 -6 -33 -6 -45 0 -17 -18 -32 -81 -67
-45 -25 -83 -46 -84 -46 -2 0 0 13 5 29 4 16 6 78 3 137 -4 84 -9 112 -22 123
-9 7 -11 15 -6 17 6 3 37 20 70 38 33 19 65 34 71 35 7 0 14 -14 17 -31z m-18
-57 c17 -7 16 -9 -9 -15 -31 -8 -42 -3 -31 13 7 12 12 13 40 2z m-193 -162
c-2 -90 0 -145 7 -152 7 -7 2 -16 -19 -29 -17 -10 -31 -18 -33 -18 -1 0 -1 36
1 81 2 45 0 79 -5 77 -59 -28 -63 -32 -64 -67 -2 -65 3 -106 13 -112 7 -5 -52
-49 -65 -49 -1 0 -1 63 1 141 2 95 0 145 -8 154 -9 11 -5 17 19 29 16 9 32 16
34 16 1 0 2 -23 1 -52 -2 -29 -1 -55 2 -59 2 -5 20 1 39 12 32 19 35 25 35 69
0 27 -5 52 -11 56 -12 7 26 43 46 44 6 0 9 -51 7 -141z m-72 47 c0 -19 -4 -38
-10 -41 -6 -4 -10 10 -10 34 0 23 5 41 10 41 6 0 10 -15 10 -34z m-141 -50 c6
-33 9 -61 6 -64 -2 -2 -12 12 -21 32 -10 20 -24 36 -32 36 -13 0 -14 -21 -8
-147 3 -80 10 -151 15 -157 7 -8 -3 -18 -27 -33 l-37 -21 3 165 c3 133 1 164
-10 161 -13 -5 -20 -22 -38 -95 -12 -47 -35 -60 -26 -15 2 15 7 47 11 72 6 44
8 46 78 86 40 22 73 40 74 40 0 -1 6 -28 12 -60z m421 53 c0 -15 -39 -69 -51
-69 -13 0 -11 54 3 68 15 15 48 16 48 1z m-270 -171 c0 -45 -10 -79 -21 -72
-10 6 -12 87 -2 97 14 15 23 5 23 -25z"/>
<path d="M1098 3 c7 -3 16 -2 19 1 4 3 -2 6 -13 5 -11 0 -14 -3 -6 -6z"/>
</g>
</svg>
