<?xml version="1.0" standalone="no"?>
<!DOCTYPE svg PUBLIC "-//W3C//DTD SVG 20010904//EN"
 "http://www.w3.org/TR/2001/REC-SVG-20010904/DTD/svg10.dtd">
<svg version="1.0" xmlns="http://www.w3.org/2000/svg"
 width="192.000000pt" height="192.000000pt" viewBox="0 0 192.000000 192.000000"
 preserveAspectRatio="xMidYMid meet">
<metadata>
Created by potrace 1.16, written by Peter Selinger 2001-2019
</metadata>
<g transform="translate(0.000000,192.000000) scale(0.100000,-0.100000)"
fill="#000000" stroke="none">
<path d="M763 1673 c-216 -217 -221 -227 -115 -236 129 -11 227 -59 279 -138
18 -27 33 -39 49 -39 23 0 24 3 24 80 l0 80 125 0 125 0 0 -360 0 -360 183 0
182 0 123 123 c91 91 122 129 122 147 0 38 -854 890 -890 889 -18 -1 -73 -49
-207 -186z m647 -268 l435 -435 -125 -125 -125 -125 -162 0 -163 0 0 360 0
360 -145 0 -144 0 -3 -82 -3 -82 -27 41 c-53 81 -150 129 -280 140 -37 3 -68
7 -68 9 0 5 364 372 370 373 3 1 201 -195 440 -434z"/>
<path d="M498 1262 c-25 -15 -28 -23 -28 -68 0 -76 12 -84 209 -135 132 -34
179 -51 238 -91 23 -15 51 -28 62 -28 20 0 21 5 21 120 l0 120 -124 0 -123 0
-6 29 c-10 47 -60 71 -148 71 -52 0 -82 -6 -101 -18z m189 -23 c22 -14 36 -32
40 -50 l6 -29 123 0 124 0 0 -100 0 -101 -42 29 c-60 40 -106 57 -239 91 -184
48 -209 62 -209 115 0 43 38 65 109 66 37 0 64 -6 88 -21z"/>
<path d="M126 1035 c-43 -42 -66 -73 -66 -88 0 -15 25 -47 73 -95 l72 -72 117
0 117 0 11 -40 c20 -75 84 -106 199 -97 94 7 115 27 119 109 4 81 0 84 -170
133 -154 45 -204 63 -249 91 -40 25 -84 74 -94 104 -4 14 -15 20 -34 20 -22 0
-45 -16 -95 -65z m109 25 c10 -30 54 -79 94 -104 45 -28 95 -46 249 -91 162
-47 174 -55 170 -113 -2 -34 -9 -49 -28 -63 -53 -39 -170 -33 -218 11 -11 11
-26 38 -32 60 l-11 40 -117 0 -118 0 -73 74 -73 74 67 66 c37 36 71 66 76 66
4 0 11 -9 14 -20z"/>
<path d="M922 587 c-47 -50 -160 -89 -294 -102 -65 -6 -68 -8 -68 -33 0 -38
353 -392 390 -392 34 0 420 384 420 418 0 22 0 22 -185 22 l-185 0 0 55 c0 54
-1 55 -28 55 -17 0 -37 -10 -50 -23z m58 -52 l0 -55 187 0 188 0 -202 -202
-203 -203 -185 185 c-102 102 -185 188 -185 192 0 3 30 9 68 13 134 13 247 52
294 102 12 13 25 23 30 23 4 0 8 -25 8 -55z"/>
</g>
</svg>
