<?xml version="1.0" standalone="no"?>
<!DOCTYPE svg PUBLIC "-//W3C//DTD SVG 20010904//EN"
 "http://www.w3.org/TR/2001/REC-SVG-20010904/DTD/svg10.dtd">
<svg version="1.0" xmlns="http://www.w3.org/2000/svg"
 width="192.000000pt" height="192.000000pt" viewBox="0 0 192.000000 192.000000"
 preserveAspectRatio="xMidYMid meet">
<metadata>
Created by potrace 1.16, written by Peter Selinger 2001-2019
</metadata>
<g transform="translate(0.000000,192.000000) scale(0.100000,-0.100000)"
fill="#000000" stroke="none">
<path d="M822 1693 c-12 -2 -20 -8 -17 -13 3 -5 12 -7 19 -4 7 3 16 -1 19 -9
5 -12 0 -13 -26 -7 -18 5 -48 8 -67 7 -28 -2 -36 -7 -38 -25 -2 -12 -10 -22
-17 -22 -8 0 -24 -10 -36 -22 -17 -18 -21 -19 -16 -5 4 11 1 17 -8 17 -8 0
-14 -3 -14 -7 4 -23 -4 -30 -30 -28 -20 1 -28 -2 -24 -11 2 -7 10 -12 16 -10
7 1 9 1 4 -1 -4 -3 -4 -9 -1 -15 5 -7 1 -7 -11 -1 -23 13 -55 5 -55 -14 0 -8
-4 -12 -9 -9 -16 10 -30 -19 -26 -53 3 -21 -1 -39 -10 -48 -8 -8 -15 -23 -15
-33 0 -10 -4 -21 -9 -24 -5 -3 -7 -15 -4 -26 3 -11 2 -28 -2 -37 -11 -27 -13
-106 -2 -126 7 -16 6 -18 -11 -13 -11 4 -23 2 -27 -4 -3 -5 1 -10 10 -10 12 0
15 -6 10 -22 -6 -22 -5 -22 8 1 14 23 14 23 27 -25 7 -27 12 -61 11 -76 -2
-16 3 -28 9 -28 6 0 9 -4 6 -8 -3 -5 10 -16 29 -25 26 -12 35 -23 35 -41 0
-14 5 -28 11 -31 15 -10 61 4 53 16 -4 8 -10 7 -17 0 -6 -6 -16 -11 -23 -11
-15 0 -12 32 4 38 16 5 62 -28 62 -44 0 -8 9 -14 20 -14 11 0 20 5 20 10 0 6
13 4 30 -5 16 -8 38 -15 49 -15 11 0 25 -9 31 -20 6 -11 16 -20 23 -20 8 0 8
3 -1 9 -9 5 -4 8 16 7 17 -1 28 -4 25 -9 -2 -4 3 -10 11 -13 9 -3 13 -10 10
-15 -3 -5 10 -9 28 -9 24 0 29 3 18 9 -8 6 -17 8 -21 5 -4 -2 -10 3 -13 11 -4
12 -2 13 12 7 9 -5 23 -7 29 -5 7 3 16 -3 19 -11 5 -14 9 -14 22 -4 12 10 14
10 8 1 -5 -9 2 -13 23 -13 23 0 31 -5 31 -18 0 -19 18 -42 33 -42 4 0 5 4 2
10 -3 5 -2 10 4 10 5 0 18 3 28 6 17 5 17 5 1 -6 -20 -12 -24 -40 -7 -40 5 0
8 4 4 9 -3 6 4 15 15 21 18 10 22 8 27 -8 3 -11 13 -22 23 -25 11 -3 26 -22
35 -43 15 -36 15 -41 -1 -76 -9 -21 -21 -38 -26 -38 -5 0 -7 -4 -4 -9 3 -5 -2
-8 -12 -7 -10 0 -16 -5 -14 -14 2 -8 0 -11 -5 -7 -4 5 -9 13 -9 18 -4 30 -7
31 -13 4 -5 -25 -12 -31 -46 -37 -74 -13 -162 -9 -179 8 -9 8 -16 11 -16 5 0
-6 -5 -11 -10 -11 -6 0 -8 11 -4 27 7 26 7 27 -10 10 -11 -11 -31 -16 -54 -16
-22 1 -28 3 -15 6 12 2 26 10 32 17 8 9 -2 11 -47 5 -31 -3 -61 -2 -66 2 -6 5
-1 9 13 9 12 0 20 4 17 8 -3 5 -19 7 -36 4 -27 -4 -31 -1 -36 27 -7 32 -14 35
-79 33 -16 0 -22 2 -12 4 31 9 10 20 -35 18 -23 -1 -44 -7 -46 -13 -2 -6 -8
-8 -14 -5 -6 4 -8 -2 -3 -16 6 -19 4 -22 -10 -17 -9 4 -18 7 -21 7 -2 0 0 8 3
17 4 11 -1 9 -17 -7 -20 -20 -25 -38 -30 -110 -4 -47 -5 -90 -3 -96 2 -6 22
-18 44 -27 26 -10 39 -22 39 -34 0 -25 19 -43 44 -42 20 0 20 1 -1 9 -27 11
-28 16 -7 24 8 3 12 2 9 -4 -3 -6 3 -10 15 -10 12 0 19 -4 16 -9 -4 -5 8 -12
26 -16 56 -11 68 -16 63 -25 -3 -5 11 -14 32 -19 48 -14 66 -14 58 -1 -3 6 1
7 9 4 28 -11 6 -25 -35 -22 -21 1 -42 -1 -45 -5 -4 -4 18 -7 49 -7 31 0 57 4
57 8 0 10 30 9 47 -1 6 -4 14 -1 16 5 4 10 8 10 14 1 11 -15 63 -28 63 -16 0
5 39 10 88 10 48 0 96 4 106 9 14 5 17 4 12 -4 -9 -15 -5 -15 28 -2 17 6 26 6
26 0 0 -14 42 -12 62 4 14 10 15 15 5 26 -9 10 -9 11 0 6 7 -4 22 -2 33 4 16
9 20 8 20 -4 0 -10 -6 -13 -17 -10 -15 5 -15 4 -3 -4 18 -13 30 -6 30 18 0 19
19 30 51 30 11 0 30 5 42 12 l22 12 -25 8 c-18 5 -15 6 13 2 22 -3 37 -1 37 6
0 5 -4 10 -10 10 -5 0 -10 12 -10 28 0 20 3 23 9 12 6 -8 7 -18 5 -22 -3 -4 0
-8 7 -8 7 0 10 11 7 30 -3 16 -1 30 3 30 4 0 10 8 14 18 3 11 17 24 30 30 14
6 25 19 25 28 0 13 -4 11 -20 -7 -10 -13 -19 -19 -20 -13 0 6 7 17 15 24 12
10 15 28 12 77 -3 40 0 63 6 63 7 0 7 4 -1 12 -15 15 -16 31 0 22 8 -5 9 -2 5
9 -4 10 -10 24 -14 34 -4 10 -3 14 5 9 6 -3 13 -2 17 4 3 5 -1 10 -9 10 -9 0
-16 4 -16 9 0 5 -3 16 -6 25 -4 11 0 16 12 17 13 0 10 4 -9 11 -19 7 -30 19
-34 39 -3 16 -10 29 -15 29 -5 0 -6 -6 -2 -12 4 -7 -2 -4 -13 7 -10 11 -20 29
-20 40 -1 18 0 18 9 -2 6 -13 15 -23 20 -23 11 0 10 17 -2 25 -5 3 -10 11 -10
16 0 6 5 7 11 4 6 -4 5 2 -3 14 -14 23 -43 28 -54 10 -3 -6 -1 -15 6 -19 8 -5
9 -10 1 -14 -6 -4 -13 4 -17 19 -4 16 -13 25 -26 25 -10 0 -38 11 -61 23 -23
13 -48 22 -54 20 -7 -3 -13 0 -13 6 0 6 -12 11 -27 12 -25 0 -26 1 -8 9 15 7
9 9 -26 9 -26 1 -66 8 -90 16 -24 9 -50 13 -59 10 -8 -3 -4 4 10 15 l25 20
-35 -10 c-46 -13 -49 -12 -26 5 19 15 19 15 -2 15 -12 0 -22 -4 -22 -10 0 -5
-9 -10 -21 -10 -12 0 -18 4 -13 11 5 8 -3 10 -24 7 -17 -2 -29 -1 -26 4 3 4 0
9 -5 9 -6 1 -15 3 -21 4 -5 1 -14 3 -20 4 -5 0 -10 17 -10 36 0 33 -2 35 -32
35 -57 0 -63 10 -47 76 11 47 18 58 32 56 10 -2 17 3 17 13 0 8 5 15 11 15 5
0 8 4 5 9 -10 16 82 20 149 6 37 -7 69 -16 72 -19 7 -7 32 17 26 27 -2 4 -9 7
-14 7 -6 0 -7 -4 -4 -10 7 -11 0 -12 -32 -4 -36 10 -27 21 15 18 20 -1 38 -3
40 -4 1 -1 5 -3 10 -5 4 -1 14 -5 23 -9 10 -4 23 -6 30 -5 22 4 49 -12 42 -25
-3 -6 -3 -8 2 -4 13 12 35 -12 35 -39 0 -14 4 -21 10 -18 6 3 8 17 6 31 -3 14
-1 22 5 19 5 -4 6 -11 3 -17 -5 -8 -1 -9 11 -4 16 6 16 4 4 -10 -12 -15 -12
-16 6 -11 11 4 27 2 35 -4 12 -8 11 -9 -5 -5 -23 6 -53 -9 -42 -21 5 -4 11 -2
16 5 5 9 16 9 41 2 46 -13 81 -13 60 0 -12 8 -12 10 3 16 9 3 17 12 17 19 0
24 47 64 70 60 21 -4 22 -1 17 30 -3 19 -2 47 2 62 11 42 3 63 -25 63 -13 0
-34 10 -46 22 -13 13 -29 22 -35 20 -7 -2 -13 2 -13 8 0 6 -10 10 -22 8 -14
-2 -22 2 -20 10 1 6 -1 11 -5 10 -5 -1 -30 4 -56 11 -33 10 -44 17 -35 22 20
13 -8 12 -35 -2 -20 -9 -20 -9 -4 4 9 8 17 20 17 28 0 11 -2 11 -10 -1 -5 -8
-10 -11 -10 -6 0 5 -6 4 -12 -1 -7 -6 -31 -9 -53 -7 -22 2 -81 4 -132 3 -59 0
-94 4 -98 11 -5 9 -1 10 14 5 12 -4 21 -2 21 4 0 6 -4 11 -9 11 -5 0 -15 2
-23 4 -7 2 -23 1 -36 -1z m-22 -44 c0 -5 -8 -9 -17 -9 -10 0 -27 -3 -39 -6
-13 -3 -21 -1 -21 8 0 8 14 14 39 15 21 0 38 -3 38 -8z m325 -35 c63 -13 221
-81 269 -117 18 -13 17 -17 -30 -104 l-48 -91 -31 26 c-83 70 -248 118 -375
109 -146 -10 -221 -75 -216 -190 4 -91 54 -127 252 -182 217 -61 267 -77 327
-107 79 -39 131 -89 164 -156 24 -49 28 -69 28 -142 -1 -102 -14 -152 -58
-217 -48 -69 -119 -119 -212 -150 -72 -23 -95 -26 -225 -26 -123 0 -160 4
-241 26 -124 32 -308 124 -309 153 0 7 21 50 46 97 l45 86 47 -33 c65 -46 134
-80 222 -108 62 -19 96 -23 195 -22 137 0 173 11 224 69 26 30 31 44 31 89 0
112 -53 147 -337 230 -208 60 -265 84 -331 141 -72 62 -87 102 -87 230 0 98 3
116 27 167 93 199 324 281 623 222z m-583 -101 c-6 -2 -9 -10 -6 -15 4 -7 2
-8 -4 -4 -7 4 -12 3 -12 -1 0 -5 -6 -17 -13 -28 -13 -17 -14 -16 -11 6 1 13 3
28 3 32 1 5 5 6 10 2 5 -3 12 -1 16 5 3 5 12 10 18 9 9 0 8 -2 -1 -6z m895
-10 c0 -9 -4 -10 -14 -2 -7 6 -13 12 -13 14 0 1 6 2 13 2 8 0 14 -6 14 -14z
m-4 -104 c-8 -8 -13 -8 -17 0 -4 6 -2 11 4 11 6 0 8 6 4 13 -6 10 -4 10 7 0 9
-10 10 -16 2 -24z m-486 15 c-3 -3 -12 -4 -19 -1 -8 3 -5 6 6 6 11 1 17 -2 13
-5z m-151 -241 c5 -31 -9 -36 -35 -12 -25 23 -21 37 10 35 15 -1 23 -9 25 -23z
m-283 -190 c-5 -13 -8 -12 -17 3 -18 33 -16 48 4 29 10 -9 16 -24 13 -32z
m902 -33 c8 -13 -5 -13 -25 0 -13 8 -13 10 2 10 9 0 20 -4 23 -10z m-745 -54
c0 -3 -4 -8 -10 -11 -5 -3 -10 -1 -10 4 0 6 5 11 10 11 6 0 10 -2 10 -4z m398
-125 c11 -6 9 -9 -5 -13 -12 -3 -20 0 -20 8 0 16 6 17 25 5z m-449 -150 c17
-11 24 -41 9 -41 -6 0 -7 7 -4 15 3 9 1 15 -7 14 -25 -3 -38 1 -32 11 8 12 16
12 34 1z m-198 -49 c-7 -13 -7 -22 1 -30 9 -9 9 -12 -1 -12 -7 0 -10 -4 -7 -8
2 -4 0 -14 -5 -22 -12 -17 -3 85 8 103 12 19 15 -10 4 -31z m21 -14 c-8 -8 -9
-4 -5 13 4 13 8 18 11 10 2 -7 -1 -18 -6 -23z m913 -228 c3 -5 -1 -10 -10 -10
-9 0 -13 5 -10 10 3 6 8 10 10 10 2 0 7 -4 10 -10z m-678 -56 c-3 -3 -12 -4
-19 -1 -8 3 -5 6 6 6 11 1 17 -2 13 -5z m538 -14 c3 -5 1 -10 -4 -10 -6 0 -11
5 -11 10 0 6 2 10 4 10 3 0 8 -4 11 -10z"/>
<path d="M735 1570 c-3 -5 -1 -10 4 -10 6 0 11 5 11 10 0 6 -2 10 -4 10 -3 0
-8 -4 -11 -10z"/>
<path d="M773 1567 c-4 -8 -15 -17 -23 -20 -13 -5 -12 -6 1 -6 18 -1 45 26 36
35 -3 3 -9 -1 -14 -9z"/>
<path d="M1135 1570 c-8 -13 5 -13 25 0 13 8 13 10 -2 10 -9 0 -20 -4 -23 -10z"/>
<path d="M1168 1543 c7 -3 16 -2 19 1 4 3 -2 6 -13 5 -11 0 -14 -3 -6 -6z"/>
<path d="M1198 1538 c-4 -9 3 -14 21 -15 14 -1 19 1 11 4 -8 3 -18 10 -21 15
-3 5 -9 3 -11 -4z"/>
<path d="M695 1530 c3 -5 8 -10 11 -10 2 0 4 5 4 10 0 6 -5 10 -11 10 -5 0 -7
-4 -4 -10z"/>
<path d="M775 1530 c-16 -7 -17 -9 -3 -9 9 -1 20 4 23 9 7 11 7 11 -20 0z"/>
<path d="M1120 1529 c0 -5 9 -9 20 -9 11 0 20 2 20 4 0 2 -9 6 -20 9 -11 3
-20 1 -20 -4z"/>
<path d="M613 1487 l-22 -24 21 2 c14 1 22 9 23 23 1 12 1 22 1 22 -1 0 -11
-11 -23 -23z"/>
<path d="M888 1493 c6 -2 18 -2 25 0 6 3 1 5 -13 5 -14 0 -19 -2 -12 -5z"/>
<path d="M1280 1443 c0 -6 -8 -10 -17 -8 -10 1 -12 0 -4 -3 11 -3 8 -8 -10
-17 -23 -13 -23 -14 -4 -21 11 -4 23 -12 28 -18 4 -6 5 0 3 14 -2 14 1 31 7
38 5 7 7 15 3 19 -3 3 -6 2 -6 -4z"/>
<path d="M725 1429 c-3 -4 2 -6 10 -5 21 3 28 13 10 13 -9 0 -18 -4 -20 -8z"/>
<path d="M540 1410 c-6 -11 -8 -20 -6 -20 3 0 10 9 16 20 6 11 8 20 6 20 -3 0
-10 -9 -16 -20z"/>
<path d="M1311 1414 c0 -11 3 -14 6 -6 3 7 2 16 -1 19 -3 4 -6 -2 -5 -13z"/>
<path d="M542 1378 c-15 -15 -15 -45 -1 -54 8 -4 9 1 4 16 -5 15 -2 25 6 31 7
4 11 10 8 13 -3 3 -11 0 -17 -6z"/>
<path d="M655 1350 c-3 -5 -1 -10 4 -10 6 0 11 5 11 10 0 6 -2 10 -4 10 -3 0
-8 -4 -11 -10z"/>
<path d="M650 1310 c0 -5 5 -10 10 -10 6 0 10 5 10 10 0 6 -4 10 -10 10 -5 0
-10 -4 -10 -10z"/>
<path d="M511 1294 c0 -11 3 -14 6 -6 3 7 2 16 -1 19 -3 4 -6 -2 -5 -13z"/>
<path d="M653 1183 c0 -12 5 -19 10 -16 5 3 6 -4 3 -15 -4 -11 -3 -23 2 -25
12 -8 8 35 -5 58 -12 20 -12 20 -10 -2z"/>
<path d="M725 1090 c3 -5 11 -10 16 -10 6 0 7 5 4 10 -3 6 -11 10 -16 10 -6 0
-7 -4 -4 -10z"/>
<path d="M537 1063 c3 -7 9 -10 14 -7 14 8 11 21 -5 21 -8 0 -12 -6 -9 -14z"/>
<path d="M786 1063 c5 -5 12 -12 15 -16 3 -5 9 -2 12 7 5 12 0 16 -15 16 -12
0 -17 -3 -12 -7z"/>
<path d="M736 1052 c-3 -5 9 -9 27 -9 26 -1 28 1 12 7 -27 11 -33 12 -39 2z"/>
<path d="M578 1033 c6 -3 10 -8 8 -11 -2 -4 6 -8 19 -8 14 -1 22 3 19 10 -2 6
-17 12 -32 12 -15 1 -21 -1 -14 -3z"/>
<path d="M616 988 c3 -5 10 -6 15 -3 13 9 11 12 -6 12 -8 0 -12 -4 -9 -9z"/>
<path d="M1055 970 c11 -5 27 -9 35 -9 9 0 8 4 -5 9 -11 5 -27 9 -35 9 -9 0
-8 -4 5 -9z"/>
<path d="M1124 973 c10 -11 36 -12 36 -2 0 5 -10 9 -22 9 -12 0 -18 -3 -14 -7z"/>
<path d="M968 963 c6 -2 18 -2 25 0 6 3 1 5 -13 5 -14 0 -19 -2 -12 -5z"/>
<path d="M720 946 c0 -2 7 -7 16 -10 8 -3 12 -2 9 4 -6 10 -25 14 -25 6z"/>
<path d="M766 941 c-3 -5 0 -11 7 -14 8 -3 14 1 14 9 0 16 -13 19 -21 5z"/>
<path d="M1210 930 c0 -5 4 -10 9 -10 6 0 13 5 16 10 3 6 -1 10 -9 10 -9 0
-16 -4 -16 -10z"/>
<path d="M1245 900 c-10 -11 -13 -20 -8 -20 13 0 38 29 31 35 -3 3 -13 -4 -23
-15z"/>
<path d="M1300 890 c-9 -6 -10 -10 -3 -10 6 0 15 5 18 10 8 12 4 12 -15 0z"/>
<path d="M980 873 c0 -1 10 -7 21 -14 13 -6 19 -7 15 -1 -3 6 0 13 6 15 7 3 1
5 -14 4 -16 -1 -28 -2 -28 -4z"/>
<path d="M1040 870 c0 -5 5 -10 11 -10 5 0 7 5 4 10 -3 6 -8 10 -11 10 -2 0
-4 -4 -4 -10z"/>
<path d="M1090 870 c20 -13 33 -13 25 0 -3 6 -14 10 -23 10 -15 0 -15 -2 -2
-10z"/>
<path d="M1098 843 c7 -3 16 -2 19 1 4 3 -2 6 -13 5 -11 0 -14 -3 -6 -6z"/>
<path d="M1362 824 c-1 -13 0 -24 2 -24 7 0 14 40 7 44 -4 3 -8 -6 -9 -20z"/>
<path d="M1387 809 c7 -7 15 -10 18 -7 3 3 -2 9 -12 12 -14 6 -15 5 -6 -5z"/>
<path d="M1182 793 c-6 -2 -10 -9 -6 -14 8 -14 21 -11 21 6 0 8 -1 15 -1 14
-1 0 -7 -3 -14 -6z"/>
<path d="M1261 670 c0 -8 4 -22 9 -30 12 -18 12 -2 0 25 -6 13 -9 15 -9 5z"/>
<path d="M1260 610 c0 -5 5 -10 11 -10 5 0 7 5 4 10 -3 6 -8 10 -11 10 -2 0
-4 -4 -4 -10z"/>
<path d="M1265 570 c-3 -5 -1 -10 4 -10 6 0 11 5 11 10 0 6 -2 10 -4 10 -3 0
-8 -4 -11 -10z"/>
<path d="M1250 534 c6 -14 7 -31 4 -37 -5 -9 -4 -9 5 -1 8 8 9 18 2 37 -6 15
-13 27 -16 27 -2 0 0 -12 5 -26z"/>
<path d="M1380 550 c0 -5 7 -7 15 -4 8 4 15 8 15 10 0 2 -7 4 -15 4 -8 0 -15
-4 -15 -10z"/>
<path d="M1368 508 c15 -15 16 -31 0 -22 -7 5 -8 3 -3 -5 10 -18 27 2 19 22
-3 9 -11 17 -17 17 -7 0 -7 -4 1 -12z"/>
<path d="M590 501 c0 -5 7 -12 16 -15 24 -9 27 -7 10 9 -17 17 -26 19 -26 6z"/>
<path d="M656 491 c-4 -5 3 -7 14 -4 23 6 26 13 6 13 -8 0 -17 -4 -20 -9z"/>
<path d="M465 451 c-3 -5 -2 -12 3 -15 5 -3 9 1 9 9 0 17 -3 19 -12 6z"/>
<path d="M1360 450 c0 -5 5 -10 11 -10 5 0 7 5 4 10 -3 6 -8 10 -11 10 -2 0
-4 -4 -4 -10z"/>
<path d="M843 425 c-3 -9 -3 -19 1 -22 3 -4 6 2 6 11 0 13 6 17 20 13 11 -3
18 -1 14 4 -9 14 -34 10 -41 -6z"/>
<path d="M1032 435 c4 -4 3 -14 -3 -22 -7 -8 -8 -13 -1 -13 15 0 23 28 9 36
-7 4 -9 4 -5 -1z"/>
<path d="M968 423 c6 -2 18 -2 25 0 6 3 1 5 -13 5 -14 0 -19 -2 -12 -5z"/>
<path d="M1056 411 c-4 -5 3 -7 14 -4 23 6 26 13 6 13 -8 0 -17 -4 -20 -9z"/>
<path d="M1219 386 c9 -11 9 -15 -1 -19 -7 -2 -9 -8 -5 -13 4 -5 11 -4 15 2 4
6 14 14 22 17 12 4 11 6 -2 6 -10 1 -18 6 -18 11 0 6 -5 10 -11 10 -8 0 -8 -4
0 -14z"/>
<path d="M1280 379 c0 -5 5 -7 10 -4 6 3 10 8 10 11 0 2 -4 4 -10 4 -5 0 -10
-5 -10 -11z"/>
<path d="M598 373 c6 -2 18 -2 25 0 6 3 1 5 -13 5 -14 0 -19 -2 -12 -5z"/>
<path d="M1250 350 c-9 -6 -10 -10 -3 -10 6 0 15 5 18 10 8 12 4 12 -15 0z"/>
<path d="M830 310 c-13 -8 -12 -10 3 -10 9 0 17 5 17 10 0 12 -1 12 -20 0z"/>
<path d="M876 307 c3 -10 9 -15 12 -12 3 3 0 11 -7 18 -10 9 -11 8 -5 -6z"/>
<path d="M908 313 c7 -3 16 -2 19 1 4 3 -2 6 -13 5 -11 0 -14 -3 -6 -6z"/>
<path d="M958 313 c6 -2 18 -2 25 0 6 3 1 5 -13 5 -14 0 -19 -2 -12 -5z"/>
<path d="M1045 310 c-3 -5 -2 -10 4 -10 5 0 13 5 16 10 3 6 2 10 -4 10 -5 0
-13 -4 -16 -10z"/>
<path d="M750 1184 c0 -1 6 -7 14 -13 10 -9 15 -8 19 2 3 8 -3 13 -14 13 -11
0 -19 -1 -19 -2z"/>
<path d="M735 1680 c3 -5 12 -7 20 -3 21 7 19 13 -6 13 -11 0 -18 -4 -14 -10z"/>
<path d="M1066 1681 c-4 -7 -5 -15 -2 -18 9 -9 19 4 14 18 -4 11 -6 11 -12 0z"/>
<path d="M1090 1680 c0 -5 5 -10 10 -10 6 0 10 5 10 10 0 6 -4 10 -10 10 -5 0
-10 -4 -10 -10z"/>
<path d="M576 1602 c-2 -4 4 -9 15 -9 10 -1 19 2 19 8 0 11 -27 12 -34 1z"/>
<path d="M860 1381 c-8 -6 -18 -7 -24 -4 -5 3 -6 1 -2 -5 5 -8 13 -9 25 -2 10
5 21 7 24 4 3 -3 8 -1 12 5 8 13 -15 14 -35 2z"/>
<path d="M1050 1370 c0 -8 35 -20 63 -20 9 0 17 6 17 13 0 7 -16 13 -40 14
-22 0 -40 -3 -40 -7z"/>
<path d="M1405 1360 c-4 -6 3 -10 14 -10 25 0 27 6 6 13 -8 4 -17 2 -20 -3z"/>
<path d="M410 1350 c0 -5 5 -10 10 -10 6 0 10 5 10 10 0 6 -4 10 -10 10 -5 0
-10 -4 -10 -10z"/>
<path d="M412 1311 c4 -13 18 -16 19 -4 0 4 -5 9 -11 12 -7 2 -11 -2 -8 -8z"/>
<path d="M406 1277 c3 -10 9 -15 12 -12 3 3 0 11 -7 18 -10 9 -11 8 -5 -6z"/>
<path d="M405 1189 c-4 -6 -5 -12 -2 -15 2 -3 7 2 10 11 7 17 1 20 -8 4z"/>
<path d="M1205 1042 c6 -5 24 -13 40 -16 19 -5 26 -4 20 2 -5 5 -23 13 -40 16
-19 5 -26 4 -20 -2z"/>
<path d="M578 913 c7 -3 16 -2 19 1 4 3 -2 6 -13 5 -11 0 -14 -3 -6 -6z"/>
<path d="M818 803 c7 -3 16 -2 19 1 4 3 -2 6 -13 5 -11 0 -14 -3 -6 -6z"/>
<path d="M1500 780 c0 -5 5 -10 11 -10 5 0 7 5 4 10 -3 6 -8 10 -11 10 -2 0
-4 -4 -4 -10z"/>
<path d="M1116 731 c-4 -7 -5 -15 -2 -18 9 -9 19 4 14 18 -4 11 -6 11 -12 0z"/>
<path d="M1512 600 c0 -14 2 -19 5 -12 2 6 2 18 0 25 -3 6 -5 1 -5 -13z"/>
<path d="M1137 556 c-4 -10 -1 -13 9 -9 7 3 14 9 14 14 0 14 -17 10 -23 -5z"/>
<path d="M1515 530 c3 -5 8 -10 11 -10 2 0 4 5 4 10 0 6 -5 10 -11 10 -5 0 -7
-4 -4 -10z"/>
</g>
</svg>
