<?xml version="1.0" standalone="no"?>
<!DOCTYPE svg PUBLIC "-//W3C//DTD SVG 20010904//EN"
 "http://www.w3.org/TR/2001/REC-SVG-20010904/DTD/svg10.dtd">
<svg version="1.0" xmlns="http://www.w3.org/2000/svg"
 width="100.000000pt" height="100.000000pt" viewBox="0 0 100.000000 100.000000"
 preserveAspectRatio="xMidYMid meet">
<metadata>
Created by potrace 1.16, written by Peter Selinger 2001-2019
</metadata>
<g transform="translate(0.000000,100.000000) scale(0.100000,-0.100000)"
fill="#000000" stroke="none">
<path d="M440 970 c0 -23 -4 -30 -20 -30 -18 0 -20 -7 -20 -65 l0 -65 -31 0
c-36 0 -59 -20 -59 -52 0 -13 -9 -30 -20 -38 -16 -11 -20 -26 -20 -67 0 -51
-1 -53 -28 -53 -16 0 -34 -8 -42 -20 -8 -12 -26 -20 -42 -20 -15 0 -28 -4 -28
-10 0 -5 -16 -10 -35 -10 -28 0 -35 -4 -35 -20 0 -12 -7 -20 -16 -20 -8 0 -22
-6 -30 -14 -16 -17 -19 -66 -4 -66 6 0 10 7 10 16 0 20 24 44 44 44 9 0 16 8
16 20 0 16 7 20 35 20 19 0 35 5 35 10 0 6 13 10 28 10 16 0 34 8 42 20 8 12
26 20 42 20 27 0 28 2 28 53 0 41 4 56 20 67 11 8 20 25 20 38 0 32 23 52 59
52 27 0 31 -3 31 -28 0 -16 8 -34 20 -42 11 -8 20 -22 20 -32 0 -10 5 -18 10
-18 6 0 10 -16 10 -35 0 -28 4 -35 20 -35 13 0 20 -7 20 -20 0 -11 5 -20 10
-20 6 0 10 -13 10 -30 0 -23 4 -30 20 -30 13 0 20 7 20 18 0 10 -9 24 -20 32
-11 8 -20 22 -20 32 0 10 -4 18 -10 18 -5 0 -10 10 -10 23 0 12 -9 29 -20 37
-11 8 -20 22 -20 32 0 10 -4 18 -10 18 -5 0 -10 13 -10 28 0 16 -8 34 -20 42
-16 12 -20 26 -20 77 0 56 2 63 20 63 17 0 20 7 20 40 0 22 -4 40 -10 40 -5 0
-10 -13 -10 -30z"/>
<path d="M540 974 c0 -16 12 -37 30 -54 19 -18 30 -38 30 -55 0 -27 20 -55 39
-55 6 0 11 -9 11 -20 0 -11 5 -20 10 -20 6 0 10 -15 11 -32 0 -18 3 -27 6 -21
6 17 33 -9 33 -31 0 -9 5 -16 10 -16 6 0 10 -20 10 -45 0 -40 3 -45 23 -45 18
0 19 -2 7 -10 -12 -8 -11 -10 8 -10 12 0 22 -4 22 -10 0 -5 14 -10 30 -10 17
0 30 -4 30 -10 0 -5 10 -10 23 -10 12 0 29 -9 37 -20 8 -11 20 -20 28 -20 18
0 42 -25 42 -44 0 -9 5 -16 10 -16 15 0 12 49 -4 66 -8 8 -21 14 -28 14 -8 0
-20 9 -28 20 -8 11 -25 20 -37 20 -13 0 -23 5 -23 10 0 6 -13 10 -28 10 -16 0
-34 8 -42 20 -8 11 -22 20 -32 20 -15 0 -18 9 -18 45 0 25 -4 45 -10 45 -5 0
-10 8 -10 18 0 10 -9 24 -20 32 -11 8 -20 22 -20 32 0 10 -4 18 -10 18 -5 0
-10 9 -10 20 0 11 -5 20 -11 20 -19 0 -39 28 -39 55 0 17 -11 37 -30 55 -16
15 -30 35 -30 44 0 9 -4 16 -10 16 -5 0 -10 -12 -10 -26z"/>
<path d="M440 846 c0 -19 4 -37 9 -40 5 -3 8 12 7 34 -1 49 -16 54 -16 6z"/>
<path d="M370 760 c0 -5 7 -10 15 -10 8 0 15 5 15 10 0 6 -7 10 -15 10 -8 0
-15 -4 -15 -10z"/>
<path d="M310 660 c0 -5 5 -10 10 -10 6 0 10 5 10 10 0 6 -4 10 -10 10 -5 0
-10 -4 -10 -10z"/>
<path d="M310 615 c0 -8 5 -15 10 -15 6 0 10 -10 10 -22 0 -17 3 -19 9 -10 5
8 4 24 -3 38 -12 27 -26 32 -26 9z"/>
<path d="M560 590 c0 -5 5 -10 11 -10 5 0 7 5 4 10 -3 6 -8 10 -11 10 -2 0 -4
-4 -4 -10z"/>
<path d="M270 549 c0 -5 4 -8 9 -4 5 3 17 -2 26 -11 9 -9 19 -14 22 -11 8 9
-23 37 -41 37 -9 0 -16 -5 -16 -11z"/>
<path d="M100 490 c0 -5 5 -10 10 -10 6 0 10 5 10 10 0 6 -4 10 -10 10 -5 0
-10 -4 -10 -10z"/>
<path d="M330 480 c0 -11 5 -20 10 -20 6 0 10 -13 10 -30 0 -25 4 -30 25 -30
20 0 25 -5 25 -25 0 -14 5 -25 10 -25 6 0 10 -13 10 -30 0 -23 4 -30 20 -30
13 0 20 7 20 18 0 10 -9 24 -20 32 -11 8 -20 25 -20 37 0 13 -4 23 -10 23 -5
0 -10 9 -10 20 0 11 -5 20 -11 20 -16 0 -39 26 -39 44 0 9 -4 16 -10 16 -5 0
-10 -9 -10 -20z"/>
<path d="M580 470 c0 -5 5 -10 10 -10 6 0 10 5 10 10 0 6 -4 10 -10 10 -5 0
-10 -4 -10 -10z"/>
<path d="M585 430 c3 -5 8 -10 11 -10 2 0 4 5 4 10 0 6 -5 10 -11 10 -5 0 -7
-4 -4 -10z"/>
<path d="M600 390 c0 -5 5 -10 10 -10 6 0 10 5 10 10 0 6 -4 10 -10 10 -5 0
-10 -4 -10 -10z"/>
<path d="M425 260 c3 -5 8 -10 11 -10 2 0 4 5 4 10 0 6 -5 10 -11 10 -5 0 -7
-4 -4 -10z"/>
<path d="M460 250 c0 -11 5 -20 10 -20 6 0 10 9 10 20 0 11 -4 20 -10 20 -5 0
-10 -9 -10 -20z"/>
<path d="M480 199 c0 -5 5 -7 10 -4 6 3 10 8 10 11 0 2 -4 4 -10 4 -5 0 -10
-5 -10 -11z"/>
<path d="M0 150 c0 -11 5 -20 10 -20 6 0 10 -11 10 -25 0 -18 5 -25 20 -25 11
0 20 -4 20 -10 0 -5 16 -10 35 -10 28 0 35 -4 35 -20 0 -16 7 -20 30 -20 17 0
30 -4 30 -10 0 -6 30 -10 70 -10 40 0 70 4 70 10 0 6 -27 10 -60 10 -33 0 -60
4 -60 10 0 6 -13 10 -30 10 -23 0 -30 4 -30 20 0 16 -7 20 -35 20 -19 0 -35 5
-35 10 0 6 -9 10 -20 10 -14 0 -20 7 -20 21 0 19 -21 49 -34 49 -3 0 -6 -9 -6
-20z"/>
<path d="M973 155 c-7 -8 -13 -23 -13 -35 0 -13 -7 -20 -20 -20 -11 0 -20 -4
-20 -10 0 -5 -16 -10 -35 -10 -28 0 -35 -4 -35 -20 0 -16 -7 -20 -30 -20 -16
0 -30 -4 -30 -10 0 -6 -27 -10 -60 -10 -33 0 -60 -4 -60 -10 0 -6 30 -10 70
-10 40 0 70 4 70 10 0 6 14 10 30 10 23 0 30 4 30 20 0 16 7 20 35 20 19 0 35
5 35 10 0 6 9 10 20 10 15 0 20 7 20 25 0 14 5 25 10 25 6 0 10 9 10 20 0 23
-10 25 -27 5z"/>
<path d="M925 130 c-3 -5 -1 -10 4 -10 6 0 11 5 11 10 0 6 -2 10 -4 10 -3 0
-8 -4 -11 -10z"/>
<path d="M808 63 c7 -3 16 -2 19 1 4 3 -2 6 -13 5 -11 0 -14 -3 -6 -6z"/>
</g>
</svg>
