<?xml version="1.0" standalone="no"?>
<!DOCTYPE svg PUBLIC "-//W3C//DTD SVG 20010904//EN"
 "http://www.w3.org/TR/2001/REC-SVG-20010904/DTD/svg10.dtd">
<svg version="1.0" xmlns="http://www.w3.org/2000/svg"
 width="192.000000pt" height="192.000000pt" viewBox="0 0 192.000000 192.000000"
 preserveAspectRatio="xMidYMid meet">
<metadata>
Created by potrace 1.16, written by Peter Selinger 2001-2019
</metadata>
<g transform="translate(0.000000,192.000000) scale(0.100000,-0.100000)"
fill="#000000" stroke="none">
<path d="M700 1820 l0 -40 -160 0 -160 0 0 -40 0 -40 -80 0 -80 0 0 -40 0 -40
-40 0 -40 0 0 -40 0 -40 -40 0 -40 0 0 -40 c0 -38 -2 -40 -30 -40 -17 0 -30
-4 -30 -10 0 -5 18 -10 40 -10 37 0 40 -2 41 -27 1 -18 3 -22 6 -10 3 10 15
29 29 44 25 27 32 57 12 51 -7 -3 -15 -15 -18 -28 -10 -42 -30 -36 -30 9 0 41
0 41 39 41 22 0 41 -5 44 -12 2 -7 2 11 -1 40 l-5 52 42 0 41 0 0 40 0 40 80
0 80 0 0 40 0 40 160 0 160 0 0 40 0 40 240 0 240 0 0 -40 0 -40 200 0 200 0
0 -40 0 -40 80 0 80 0 0 -80 0 -80 -239 0 -239 0 -3 -42 -4 -43 243 3 242 3 0
-41 c0 -37 -2 -40 -27 -41 l-28 0 25 -10 c17 -7 26 -7 28 0 2 7 36 11 83 11
46 0 79 4 79 10 0 6 -30 10 -70 10 l-70 0 0 40 0 40 -240 0 c-233 0 -240 1
-240 20 0 19 7 20 240 20 l240 0 0 100 0 100 -80 0 -80 0 0 40 0 40 -200 0
-200 0 0 40 0 40 -260 0 -260 0 0 -40z"/>
<path d="M800 1800 c0 -11 6 -20 14 -20 9 0 12 7 9 20 -3 11 -9 20 -14 20 -5
0 -9 -9 -9 -20z"/>
<path d="M865 1810 c-2 -3 0 -12 6 -20 5 -8 9 -10 9 -5 0 11 130 12 148 1 8
-4 12 0 12 11 0 16 -10 18 -86 18 -47 0 -87 -2 -89 -5z"/>
<path d="M1096 1804 c-9 -22 -8 -24 9 -24 8 0 15 9 15 20 0 24 -15 27 -24 4z"/>
<path d="M735 1750 c4 -6 -9 -10 -32 -10 -65 0 -143 -12 -137 -21 3 -5 -8 -9
-25 -9 -16 0 -33 -5 -36 -11 -4 -6 -13 -8 -21 -5 -8 3 -14 1 -14 -4 0 -6 -11
-10 -25 -10 -14 0 -25 -4 -25 -10 0 -5 -7 -10 -15 -10 -8 0 -15 -4 -15 -10 0
-5 -7 -7 -15 -4 -8 4 -15 1 -15 -5 0 -6 -9 -11 -20 -11 -11 0 -20 -5 -20 -11
0 -6 -6 -9 -12 -6 -7 2 -12 11 -10 21 4 24 -25 20 -33 -5 -4 -11 -4 -23 -1
-26 3 -4 6 -1 6 5 0 7 5 12 10 12 19 0 10 -24 -17 -47 -14 -13 -30 -23 -35
-23 -5 0 -7 -4 -3 -9 3 -5 -4 -12 -14 -16 -11 -3 -23 -15 -26 -26 -4 -10 -11
-19 -16 -19 -5 0 -9 -7 -9 -16 0 -8 -4 -13 -9 -10 -5 4 -12 -8 -16 -25 -5 -23
-9 -28 -16 -18 -6 10 -9 7 -9 -12 0 -14 -7 -34 -15 -45 -8 -10 -15 -29 -15
-41 0 -12 -4 -23 -10 -25 -5 -1 -12 -36 -16 -76 -4 -45 -10 -68 -15 -60 -5 7
-9 -32 -9 -92 0 -71 3 -100 10 -90 7 11 10 7 10 -18 0 -20 6 -35 15 -38 8 -4
15 -11 15 -18 0 -14 69 -80 93 -89 10 -4 15 -11 12 -17 -4 -6 5 -10 19 -10 14
0 26 -4 26 -9 0 -5 13 -12 30 -16 16 -4 30 -10 30 -14 0 -13 102 -33 190 -38
47 -3 89 -8 95 -13 5 -4 29 -11 53 -15 23 -4 42 -11 42 -16 0 -5 13 -9 28 -9
15 0 33 -5 40 -12 8 -8 15 -8 26 1 8 6 27 9 43 6 15 -3 22 -2 16 1 -21 9 -15
26 7 19 11 -4 20 -2 20 4 0 6 18 11 41 11 27 0 38 4 33 11 -4 8 8 10 40 8 30
-3 46 0 46 7 0 8 20 10 65 6 45 -3 65 -1 65 7 0 7 21 11 56 11 37 0 53 4 48
11 -3 6 1 10 12 9 11 -1 24 -2 31 -1 17 1 53 42 53 58 0 19 -43 60 -58 55 -7
-2 -12 1 -12 7 0 6 -7 11 -15 11 -8 0 -15 5 -15 10 0 6 -9 10 -20 10 -11 0
-20 4 -20 9 0 5 -10 7 -22 3 -14 -3 -19 -2 -14 6 5 8 -5 12 -33 12 -24 0 -41
5 -41 11 0 7 -12 10 -30 7 -16 -3 -30 -1 -30 4 0 4 -26 8 -57 8 -75 0 -58 18
25 26 51 6 62 4 62 -8 0 -11 17 -17 64 -22 36 -3 77 -13 93 -21 15 -8 33 -15
40 -15 6 0 14 -6 16 -12 3 -7 6 9 6 35 1 30 5 46 11 42 6 -4 8 -11 5 -16 -4
-5 6 -9 20 -9 20 0 26 4 22 14 -4 10 -1 13 9 9 7 -3 14 0 14 7 0 7 8 9 20 5
12 -4 20 -2 20 5 0 9 -22 10 -82 6 -133 -11 -178 -17 -178 -27 0 -14 -23 -11
-61 8 -37 18 -26 27 26 21 19 -2 36 0 38 6 2 5 43 9 92 8 62 0 81 2 60 8 -21
5 3 8 80 10 78 1 103 5 85 11 -17 6 -1 7 48 4 48 -4 72 -2 72 6 0 7 29 9 88 6
48 -2 67 -2 42 0 -58 5 -78 23 -26 23 25 0 35 4 30 11 -4 8 3 9 26 4 23 -5 30
-4 26 4 -5 7 3 11 20 11 15 0 34 8 43 18 9 11 26 24 39 31 16 9 22 21 22 47 0
19 -4 33 -9 30 -5 -3 -11 1 -15 9 -3 8 -13 15 -21 15 -9 0 -14 4 -10 9 3 6
-10 13 -30 17 -19 3 -38 10 -41 15 -3 5 -16 9 -30 9 -14 0 -23 4 -20 9 7 10
-41 21 -98 21 -31 0 -37 3 -26 11 11 7 -2 9 -48 7 -34 -2 -62 0 -62 5 0 4 8 8
18 9 30 2 -159 16 -244 17 -44 1 -84 4 -87 8 -12 12 -87 15 -87 4 0 -7 -37
-11 -100 -11 -55 0 -100 -4 -100 -9 0 -4 -36 -12 -80 -15 -44 -4 -80 -11 -80
-16 0 -4 -19 -10 -42 -13 -50 -6 -118 -29 -118 -39 0 -5 -7 -8 -15 -8 -18 0
-149 -62 -153 -72 -2 -5 -10 -8 -18 -8 -8 0 -14 -4 -14 -10 0 -5 -9 -10 -20
-10 -11 0 -23 -7 -26 -15 -10 -26 -43 -16 -81 25 -21 22 -44 40 -50 40 -21 0
-15 19 16 48 49 45 59 52 75 52 8 0 16 3 18 8 4 9 66 42 80 42 5 0 16 7 24 15
9 8 24 15 35 15 11 0 18 4 15 9 -3 5 12 11 34 15 22 3 40 11 40 16 0 6 16 10
36 10 19 0 33 4 30 9 -3 4 17 11 45 14 28 4 57 12 65 18 9 7 36 10 69 7 31 -3
50 -1 43 3 -8 5 9 9 40 9 33 0 51 4 47 10 -4 6 37 10 117 10 86 0 118 3 108
10 -10 7 82 10 288 8 166 -2 302 1 302 5 0 15 -30 38 -40 32 -5 -3 -10 -1 -10
4 0 6 -11 11 -25 11 -14 0 -25 5 -25 11 0 6 -7 9 -15 5 -8 -3 -15 -1 -15 4 0
6 -11 10 -25 10 -14 0 -25 4 -25 9 0 5 -22 12 -50 16 -27 4 -50 11 -50 16 0 5
-18 9 -41 9 -24 0 -38 4 -34 10 8 12 70 13 93 1 9 -4 29 -11 45 -15 22 -5 27
-3 27 12 0 17 -9 18 -114 16 -63 -1 -119 -5 -125 -8 -6 -4 -11 -2 -11 3 0 6
-22 11 -51 11 -31 0 -48 4 -44 10 4 7 -72 10 -220 10 -148 0 -224 -3 -220 -10z
m152 -17 c-3 -5 69 -9 160 -9 100 -1 168 -5 172 -11 3 -6 43 -14 88 -18 46 -4
80 -11 77 -16 -3 -5 6 -9 20 -9 14 0 28 -4 31 -10 3 -5 21 -10 38 -10 18 0 46
-7 62 -16 17 -9 41 -20 55 -24 14 -5 -102 -9 -260 -9 -266 -1 -425 -12 -590
-40 -72 -12 -81 -15 -107 -29 -12 -7 -34 -12 -48 -12 -14 0 -48 -10 -76 -21
-40 -18 -52 -19 -64 -9 -9 7 -18 10 -22 6 -3 -3 -1 -6 5 -6 7 0 12 -4 12 -8 0
-5 -35 -7 -77 -5 -50 2 -71 0 -58 -6 11 -4 26 -6 33 -4 6 3 12 -2 12 -11 0 -9
-12 -21 -26 -26 -32 -13 -34 -13 -30 3 1 6 1 10 -1 7 -2 -3 -19 -4 -38 -2 -27
3 -39 -1 -60 -23 l-25 -28 0 31 c0 24 7 35 30 49 17 10 28 23 26 30 -3 6 5 15
17 19 12 4 36 18 53 33 64 54 76 62 101 72 13 5 28 7 33 4 4 -3 10 4 13 14 3
14 17 21 51 26 25 4 46 11 46 15 0 4 12 6 27 4 15 -1 30 1 33 6 6 10 94 26
205 38 44 5 81 10 83 10 2 1 1 -1 -1 -5z m-497 -273 c-19 -13 -30 -13 -30 0 0
6 10 10 23 10 18 0 19 -2 7 -10z m-107 -36 c8 -8 -3 -34 -15 -34 -5 0 -24 -11
-42 -25 -29 -22 -35 -23 -46 -10 -10 12 -9 18 4 30 9 9 16 20 16 25 0 5 15 11
33 13 17 2 35 5 38 5 3 1 8 -1 12 -4z m687 -54 c0 -5 7 -10 15 -10 8 0 15 5
15 10 0 6 14 10 30 10 26 0 30 -4 30 -27 0 -21 3 -24 9 -14 5 8 7 21 4 29 -5
12 3 13 48 8 97 -12 109 -16 109 -36 0 -22 -53 -36 -95 -26 -18 5 -25 2 -25
-9 0 -21 -40 -19 -41 3 -1 16 -2 16 -6 0 -5 -21 -23 -24 -23 -5 0 9 -2 9 -9
-1 -4 -7 -32 -15 -61 -17 -30 -3 -62 -7 -72 -11 -15 -4 -18 1 -18 31 0 20 -4
34 -9 31 -5 -3 -7 -15 -4 -27 3 -12 0 -25 -7 -29 -11 -7 -10 -12 3 -25 10 -9
17 -12 17 -7 0 4 15 9 33 9 17 0 43 3 57 8 14 4 53 8 87 9 34 1 66 5 69 9 4 4
22 7 40 7 18 0 36 5 39 10 3 6 19 10 35 10 27 0 44 13 45 34 0 11 37 25 48 19
5 -3 27 -5 50 -5 22 1 48 -3 56 -7 15 -8 131 -23 180 -23 17 0 20 -2 11 -8
-13 -8 71 -27 98 -21 7 1 11 -4 10 -11 -2 -8 5 -12 20 -10 12 2 22 -1 22 -5 0
-5 15 -14 34 -21 45 -17 55 -56 17 -71 -14 -6 -33 -15 -41 -19 -45 -26 -63
-32 -95 -32 -19 0 -35 -4 -35 -9 0 -9 -171 -6 -232 4 -16 2 -28 0 -28 -5 0
-10 71 -15 136 -11 18 1 35 -2 39 -8 7 -13 -28 -16 -129 -12 -43 2 -66 0 -62
-7 3 -5 -6 -8 -24 -7 -17 1 -30 -1 -30 -5 0 -4 -20 -10 -45 -12 -27 -2 -45 1
-45 7 0 7 14 9 34 7 18 -2 37 1 40 7 5 8 -27 11 -108 11 -71 0 -116 -4 -116
-10 0 -10 40 -14 110 -12 58 2 13 -15 -60 -22 -92 -9 -160 -25 -198 -47 -18
-10 -52 -21 -75 -24 -23 -2 -66 -8 -95 -13 -31 -6 -55 -5 -58 0 -3 5 -13 7
-22 5 -10 -2 -34 5 -54 15 -21 10 -44 18 -52 18 -8 0 -20 8 -25 18 -6 9 -10
13 -11 7 0 -27 37 -47 147 -80 42 -13 78 -18 85 -14 7 5 26 9 41 9 16 0 38 5
49 11 14 8 23 8 31 0 6 -6 28 -11 49 -11 21 0 38 -5 38 -10 0 -6 3 -9 8 -8 9
2 121 -22 147 -32 102 -40 135 -57 135 -67 0 -7 5 -13 11 -13 6 0 9 -5 7 -12
-5 -13 -84 -37 -143 -43 -115 -12 -243 -33 -270 -45 -25 -10 -125 -32 -151
-33 -37 -1 -73 14 -67 29 3 8 0 14 -6 14 -6 0 -11 -6 -11 -12 -1 -8 -6 -6 -14
5 -8 10 -17 14 -20 9 -3 -5 -37 -4 -83 5 -43 7 -101 15 -129 17 -66 5 -193 66
-242 116 -83 86 -94 116 -89 238 2 53 9 115 16 137 7 22 18 62 25 89 l12 50
17 -24 c10 -15 17 -44 17 -72 0 -27 3 -48 8 -48 12 0 72 -57 72 -69 0 -6 17
-11 38 -11 20 0 46 -7 56 -15 22 -17 66 -20 66 -5 0 6 14 10 30 10 17 0 30 4
30 9 0 5 10 11 23 14 12 3 65 17 117 31 52 14 110 26 128 26 21 0 31 4 26 11
-3 6 1 10 12 9 33 -4 58 0 51 7 -11 10 -71 11 -84 1 -7 -5 -33 -10 -58 -10
-30 -1 -44 -5 -42 -12 6 -15 -62 -13 -71 1 -4 6 -16 12 -27 14 -11 3 -18 9
-15 14 8 19 122 54 180 55 29 1 31 3 15 10 -15 6 -6 9 32 9 28 1 53 6 55 12 2
6 34 13 71 16 37 3 70 10 73 14 7 12 24 11 24 -1z m295 -30 c0 -7 -6 -15 -12
-17 -8 -3 -13 4 -13 17 0 13 5 20 13 18 6 -3 12 -11 12 -18z m-745 -105 c39
-20 38 -31 -5 -39 -19 -4 -35 -11 -35 -16 0 -4 -18 -11 -41 -15 -22 -4 -43
-13 -45 -20 -6 -13 -54 -8 -54 6 0 5 11 7 25 3 21 -5 24 -3 19 10 -3 9 -1 23
6 31 11 14 15 14 36 0 13 -9 24 -11 24 -5 0 5 -4 10 -10 10 -5 0 -10 7 -10 15
0 8 9 15 20 15 11 0 20 5 20 10 0 14 16 12 50 -5z m905 -173 c-3 -3 -11 0 -18
7 -9 10 -8 11 6 5 10 -3 15 -9 12 -12z m-165 -98 c0 -11 -8 -14 -27 -12 -39 4
-42 28 -4 28 21 0 31 -5 31 -16z"/>
<path d="M1000 1620 c0 -5 18 -10 40 -10 22 0 40 5 40 10 0 6 -18 10 -40 10
-22 0 -40 -4 -40 -10z"/>
<path d="M1025 1360 c-3 -5 -1 -10 4 -10 6 0 11 5 11 10 0 6 -2 10 -4 10 -3 0
-8 -4 -11 -10z"/>
<path d="M1400 1320 c0 -5 9 -10 20 -10 11 0 20 5 20 10 0 6 -9 10 -20 10 -11
0 -20 -4 -20 -10z"/>
<path d="M1510 1301 c0 -9 35 -17 115 -27 38 -4 37 -4 -15 15 -59 22 -100 27
-100 12z"/>
<path d="M605 1270 c3 -5 12 -7 20 -3 21 7 19 13 -6 13 -11 0 -18 -4 -14 -10z"/>
<path d="M1280 1260 c0 -5 9 -10 20 -10 11 0 20 5 20 10 0 6 -9 10 -20 10 -11
0 -20 -4 -20 -10z"/>
<path d="M1360 1260 c0 -5 9 -10 20 -10 11 0 20 5 20 10 0 6 -9 10 -20 10 -11
0 -20 -4 -20 -10z"/>
<path d="M1520 1260 c0 -5 12 -10 26 -10 14 0 23 4 19 10 -3 6 -15 10 -26 10
-10 0 -19 -4 -19 -10z"/>
<path d="M1670 1260 c-11 -7 -7 -10 17 -10 17 0 35 5 38 10 8 13 -35 13 -55 0z"/>
<path d="M1588 1243 c6 -2 18 -2 25 0 6 3 1 5 -13 5 -14 0 -19 -2 -12 -5z"/>
<path d="M1098 1228 c9 -9 15 -9 24 0 9 9 7 12 -12 12 -19 0 -21 -3 -12 -12z"/>
<path d="M1810 1220 c0 -11 7 -20 15 -20 8 0 15 6 15 14 0 8 -7 16 -15 20 -10
4 -15 -1 -15 -14z"/>
<path d="M842 1180 c0 -14 2 -19 5 -12 2 6 2 18 0 25 -3 6 -5 1 -5 -13z"/>
<path d="M870 1190 c0 -5 7 -7 15 -4 8 4 15 8 15 10 0 2 -7 4 -15 4 -8 0 -15
-4 -15 -10z"/>
<path d="M675 1160 c-3 -6 1 -7 9 -4 18 7 21 14 7 14 -6 0 -13 -4 -16 -10z"/>
<path d="M1071 1144 c0 -11 3 -14 6 -6 3 7 2 16 -1 19 -3 4 -6 -2 -5 -13z"/>
<path d="M462 1122 c-22 -3 -23 -4 -5 -17 11 -8 24 -10 34 -4 9 4 19 5 23 2 3
-3 6 0 6 8 0 15 -14 17 -58 11z"/>
<path d="M958 1123 c7 -3 16 -2 19 1 4 3 -2 6 -13 5 -11 0 -14 -3 -6 -6z"/>
<path d="M663 1108 c-16 -24 -16 -68 1 -68 12 0 16 10 16 40 0 43 -2 47 -17
28z"/>
<path d="M720 1105 c0 -9 6 -12 17 -8 13 5 15 2 11 -15 -4 -12 -2 -22 2 -22
12 0 18 22 12 43 -5 21 -42 23 -42 2z"/>
<path d="M866 1104 c-8 -21 -8 -24 5 -24 5 0 7 5 4 10 -3 6 3 10 14 10 12 0
21 5 21 10 0 16 -37 11 -44 -6z"/>
<path d="M600 1103 c0 -9 -17 -13 -52 -13 -63 -1 -47 -15 25 -22 48 -6 57 2
37 32 -6 10 -10 11 -10 3z"/>
<path d="M832 1071 c2 -8 -8 -20 -22 -28 -19 -10 -21 -13 -7 -13 10 0 21 -8
24 -17 5 -14 9 -9 14 17 5 20 3 39 -2 45 -7 7 -9 5 -7 -4z"/>
<path d="M496 1041 c-3 -5 1 -11 9 -15 8 -3 15 -1 15 4 0 13 -18 22 -24 11z"/>
<path d="M898 1043 c7 -3 16 -2 19 1 4 3 -2 6 -13 5 -11 0 -14 -3 -6 -6z"/>
<path d="M968 1043 c7 -3 16 -2 19 1 4 3 -2 6 -13 5 -11 0 -14 -3 -6 -6z"/>
<path d="M670 1022 c0 -5 15 -12 33 -15 54 -8 53 8 -1 19 -19 4 -32 2 -32 -4z"/>
<path d="M870 912 c-10 -5 -15 -23 -15 -59 -1 -28 3 -49 7 -47 4 3 8 12 8 20
0 8 4 14 8 14 5 0 6 14 4 31 -3 20 0 34 9 40 16 10 1 11 -21 1z"/>
<path d="M270 870 c0 -5 10 -15 23 -21 22 -12 22 -12 3 10 -21 23 -26 26 -26
11z"/>
<path d="M827 819 c4 -13 8 -18 11 -10 2 7 -1 18 -6 23 -8 8 -9 4 -5 -13z"/>
<path d="M785 770 c-4 -6 -9 -8 -13 -6 -9 5 -26 -15 -30 -36 -1 -9 2 -19 8
-23 5 -3 10 3 10 14 0 12 4 21 8 21 18 0 45 27 34 34 -6 3 -13 2 -17 -4z"/>
<path d="M480 1725 c0 -8 5 -15 10 -15 6 0 10 4 10 9 0 5 12 12 28 14 22 3 20
4 -10 6 -28 1 -38 -3 -38 -14z"/>
<path d="M425 1719 c-4 -6 -4 -13 -1 -16 8 -8 36 5 36 17 0 13 -27 13 -35 -1z"/>
<path d="M320 1658 c0 -4 7 -8 15 -8 8 0 15 4 15 8 0 5 -7 9 -15 9 -8 0 -15
-4 -15 -9z"/>
<path d="M1645 1654 c11 -3 26 -7 33 -9 7 -3 15 -4 19 -4 4 0 10 -7 13 -17 4
-10 9 -13 13 -8 11 19 -9 33 -53 38 -25 3 -36 3 -25 0z"/>
<path d="M1730 1589 c0 -7 -8 -18 -17 -25 -21 -15 -13 -27 11 -18 14 5 24 54
11 54 -3 0 -5 -5 -5 -11z"/>
<path d="M184 1565 c-11 -27 1 -32 24 -8 22 23 22 23 2 23 -11 0 -23 -7 -26
-15z"/>
<path d="M1135 1550 c-3 -6 -54 -11 -113 -11 -59 -1 -120 -5 -137 -9 -17 -4
63 -8 183 -9 135 -1 212 3 212 9 0 6 73 10 200 10 127 0 200 4 200 10 0 6 -96
10 -269 10 -169 0 -272 -4 -276 -10z"/>
<path d="M710 1490 c-19 -4 -51 -15 -70 -24 l-35 -17 32 4 c18 2 30 0 27 -5
-3 -4 0 -8 5 -8 6 0 11 8 11 18 0 15 6 17 34 14 28 -3 33 -7 28 -25 -3 -14 -1
-18 6 -13 7 4 12 13 12 20 0 15 43 13 155 -4 105 -17 160 -20 175 -10 11 7 7
10 -18 10 -18 0 -31 4 -28 9 3 5 -15 9 -42 10 -88 1 -169 13 -147 22 26 10
-97 10 -145 -1z"/>
<path d="M1070 1485 c32 -18 50 -19 50 -2 0 9 -13 14 -37 15 -38 1 -38 1 -13
-13z"/>
<path d="M585 1440 c3 -5 8 -10 11 -10 2 0 4 5 4 10 0 6 -5 10 -11 10 -5 0 -7
-4 -4 -10z"/>
<path d="M695 1430 c3 -5 12 -7 20 -3 21 7 19 13 -6 13 -11 0 -18 -4 -14 -10z"/>
<path d="M480 1410 c0 -5 5 -10 11 -10 5 0 7 5 4 10 -3 6 -8 10 -11 10 -2 0
-4 -4 -4 -10z"/>
<path d="M610 1410 c0 -5 5 -10 11 -10 5 0 7 5 4 10 -3 6 -8 10 -11 10 -2 0
-4 -4 -4 -10z"/>
<path d="M1193 1413 c9 -2 23 -2 30 0 6 3 -1 5 -18 5 -16 0 -22 -2 -12 -5z"/>
<path d="M1415 1410 c72 -12 105 -11 105 0 0 6 -32 9 -77 9 -76 -2 -76 -2 -28
-9z"/>
<path d="M1565 1413 c-36 -9 -36 -19 0 -21 26 -2 35 1 35 13 0 16 -2 16 -35 8z"/>
<path d="M1663 1406 c4 -9 -1 -17 -11 -19 -12 -3 -11 -5 6 -6 16 -1 22 5 22
19 0 11 -5 20 -11 20 -6 0 -9 -6 -6 -14z"/>
<path d="M435 1390 c-3 -5 -1 -10 4 -10 6 0 11 5 11 10 0 6 -2 10 -4 10 -3 0
-8 -4 -11 -10z"/>
<path d="M674 1391 c3 -5 15 -7 26 -4 28 7 25 13 -6 13 -14 0 -23 -4 -20 -9z"/>
<path d="M0 1350 c0 -5 9 -10 20 -10 17 0 19 -3 10 -19 -6 -13 -6 -22 -1 -26
6 -3 15 4 21 15 6 11 8 20 4 20 -3 0 -1 7 6 15 11 13 7 15 -24 15 -20 0 -36
-4 -36 -10z"/>
<path d="M346 1323 c-6 -14 -5 -15 5 -6 7 7 10 15 7 18 -3 3 -9 -2 -12 -12z"/>
<path d="M1780 1331 c0 -5 14 -11 30 -13 20 -3 30 0 30 9 0 8 -12 13 -30 13
-16 0 -30 -4 -30 -9z"/>
<path d="M0 1266 c0 -8 6 -16 13 -19 10 -4 10 -7 0 -18 -9 -9 -12 -51 -11
-148 l2 -136 3 110 c2 60 7 112 12 115 4 3 11 29 15 58 6 48 5 52 -14 52 -11
0 -20 -6 -20 -14z"/>
<path d="M1890 1270 c0 -5 7 -10 15 -10 8 0 15 5 15 10 0 6 -7 10 -15 10 -8 0
-15 -4 -15 -10z"/>
<path d="M225 1260 c3 -5 8 -10 11 -10 2 0 4 5 4 10 0 6 -5 10 -11 10 -5 0 -7
-4 -4 -10z"/>
<path d="M265 1240 c-19 -8 -19 -9 3 -9 12 -1 22 4 22 9 0 6 -1 10 -2 9 -2 0
-12 -4 -23 -9z"/>
<path d="M1895 1164 c-19 -19 -15 -27 9 -18 9 3 16 12 16 20 0 18 -5 18 -25
-2z"/>
<path d="M1840 1079 l0 -40 -122 3 -123 3 4 -42 3 -43 -121 0 -121 0 0 -39 c0
-31 -4 -40 -19 -43 -19 -3 -19 -3 0 -27 l19 -23 0 26 c0 24 4 26 40 26 l40 0
0 -81 0 -80 -82 3 -83 3 4 -42 3 -43 -81 0 -81 0 0 -120 0 -120 -80 0 -80 0 0
-80 0 -80 -40 0 -40 0 0 40 0 40 -40 0 -40 0 0 -42 0 -43 61 -2 c34 -1 67 -7
75 -14 22 -18 18 -79 -8 -100 l-21 -19 26 0 c27 0 27 1 27 70 l0 70 40 0 40 0
0 -80 0 -80 -280 0 -280 0 0 40 0 40 -80 0 -80 0 0 40 0 40 -80 0 -80 0 0 80
0 80 -40 0 -40 0 0 74 c0 77 19 151 28 111 2 -11 8 -22 12 -25 10 -6 24 -70
15 -70 -3 0 -12 15 -20 33 l-14 32 -1 -37 c0 -30 4 -38 18 -38 10 0 23 5 30
12 9 9 12 6 12 -14 0 -17 7 -29 19 -33 12 -4 17 -12 14 -24 -3 -13 2 -21 16
-26 12 -3 19 -11 15 -16 -3 -6 4 -18 15 -28 12 -10 21 -22 21 -25 0 -9 26 -36
34 -36 4 0 21 -15 39 -33 18 -19 38 -32 45 -29 6 2 12 -1 12 -7 0 -6 6 -11 14
-11 8 0 16 -5 18 -12 5 -14 159 -24 212 -14 38 7 47 27 24 50 -7 6 -41 22 -75
35 -35 13 -63 27 -63 32 0 5 -8 9 -17 9 -10 0 -27 7 -37 15 -11 8 -31 15 -45
15 -19 0 -22 3 -12 9 10 7 5 11 -18 16 -17 3 -31 11 -31 16 0 5 -7 9 -15 9
-14 0 -63 26 -75 41 -3 3 -20 14 -38 24 -17 11 -35 28 -38 40 -4 11 -16 26
-26 34 -12 8 -18 21 -15 32 3 11 1 17 -4 13 -5 -3 -9 0 -9 7 0 6 -8 18 -18 25
-13 11 -14 13 -2 13 28 -1 74 -35 81 -60 6 -22 13 -10 10 18 -1 6 7 9 18 6 12
-3 17 -11 14 -19 -4 -10 3 -14 20 -14 14 0 29 -5 33 -11 4 -8 0 -9 -15 -4 -40
12 -21 -13 24 -32 25 -10 45 -21 45 -25 0 -5 11 -8 25 -8 14 0 42 -9 62 -20
45 -24 63 -25 63 -4 0 8 5 12 10 9 6 -4 8 -11 5 -16 -4 -5 -5 -9 -3 -10 2 0
26 -3 53 -6 28 -3 75 -11 105 -19 30 -8 63 -14 73 -14 10 0 25 -7 34 -15 13
-14 11 -16 -16 -21 -17 -4 -31 -10 -31 -14 0 -10 -60 -21 -72 -14 -11 7 -148
14 -148 8 0 -2 20 -13 44 -24 46 -20 173 -29 162 -11 -4 5 3 7 14 4 11 -3 20
0 20 6 0 6 7 11 15 11 8 0 15 5 15 10 0 6 7 10 16 10 8 0 12 4 9 10 -3 5 0 7
8 4 9 -3 16 3 19 14 4 15 -4 22 -41 36 -25 9 -58 16 -73 16 -15 0 -29 4 -32 9
-3 5 -20 11 -38 14 -59 10 -128 31 -128 39 0 5 -9 8 -20 8 -19 0 -90 29 -100
41 -3 3 -17 9 -32 13 -16 3 -28 11 -28 16 0 6 -14 10 -31 10 -17 0 -28 4 -24
10 3 5 -9 16 -27 23 -18 8 -62 42 -96 76 -55 53 -67 71 -87 134 l-24 72 0 -46
c-1 -71 10 -143 20 -127 6 8 9 -2 9 -27 0 -30 3 -36 10 -25 14 22 13 -25 -2
-67 -11 -29 -16 -33 -50 -33 -21 0 -38 -4 -38 -10 0 -5 13 -10 30 -10 l30 0 0
-80 0 -80 40 0 40 0 0 -80 0 -80 80 0 80 0 0 -40 0 -40 80 0 80 0 0 -40 0 -40
300 0 300 0 0 100 0 100 -40 0 -40 0 0 60 0 60 80 0 80 0 0 120 0 120 80 0 80
0 0 40 0 40 80 0 80 0 0 100 0 100 -40 0 c-33 0 -40 3 -40 20 0 19 7 20 120
20 l120 0 0 40 0 40 120 0 120 0 0 40 c0 38 2 40 30 40 17 0 30 5 30 10 0 6
-18 10 -40 10 l-40 0 0 -41z m-1709 -426 c13 -16 12 -17 -3 -4 -10 7 -18 15
-18 17 0 8 8 3 21 -13z m293 -168 c29 -22 15 -25 -19 -4 -16 11 -23 19 -15 19
8 -1 24 -7 34 -15z m-140 -116 c-8 -14 -24 -10 -24 6 0 9 6 12 15 9 8 -4 12
-10 9 -15z m31 -18 c3 -5 18 -12 34 -16 16 -3 35 -13 41 -20 6 -8 36 -19 67
-26 30 -7 57 -19 60 -26 3 -7 11 -13 19 -13 7 0 29 -8 49 -17 24 -12 31 -19
23 -25 -20 -12 -89 -9 -128 6 -19 7 -50 19 -67 25 -18 7 -33 17 -33 22 0 5
-12 15 -27 23 -34 17 -73 53 -73 66 0 13 27 13 35 1z m545 -71 c0 -13 -7 -20
-20 -20 -13 0 -20 7 -20 20 0 13 7 20 20 20 13 0 20 -7 20 -20z"/>
<path d="M1776 1081 c-4 -5 -2 -12 3 -15 5 -4 12 -2 15 3 4 5 2 12 -3 15 -5 4
-12 2 -15 -3z"/>
<path d="M4 793 c1 -51 5 -73 14 -73 6 0 12 -6 12 -14 0 -8 3 -21 6 -30 4 -12
0 -16 -15 -16 -12 0 -21 -4 -21 -10 0 -5 13 -10 30 -10 34 0 39 18 15 60 -8
14 -14 44 -15 68 0 23 -4 42 -9 42 -5 0 -12 12 -14 28 -2 15 -4 -6 -3 -45z"/>
<path d="M1340 750 c0 -5 5 -10 10 -10 6 0 10 5 10 10 0 6 -4 10 -10 10 -5 0
-10 -4 -10 -10z"/>
<path d="M1180 685 c0 -14 5 -25 10 -25 6 0 10 11 10 25 0 14 -4 25 -10 25 -5
0 -10 -11 -10 -25z"/>
<path d="M210 696 c0 -2 7 -6 15 -10 8 -3 15 -1 15 4 0 6 -7 10 -15 10 -8 0
-15 -2 -15 -4z"/>
<path d="M1060 684 c-251 -31 -277 -44 -92 -44 115 0 153 7 125 23 -5 2 -3 2
4 1 18 -4 73 16 73 27 0 5 -1 8 -2 8 -2 -1 -50 -8 -108 -15z m0 -18 c0 -3 -4
-8 -10 -11 -5 -3 -10 -1 -10 4 0 6 5 11 10 11 6 0 10 -2 10 -4z"/>
<path d="M1228 683 c7 -3 16 -2 19 1 4 3 -2 6 -13 5 -11 0 -14 -3 -6 -6z"/>
<path d="M767 613 c-15 -15 -4 -21 48 -28 30 -3 57 -11 61 -16 3 -5 14 -7 25
-4 11 4 19 2 19 -4 0 -6 21 -11 50 -11 56 0 63 -11 30 -53 -14 -17 -26 -23
-40 -20 -11 3 -20 0 -20 -6 0 -7 -23 -11 -63 -11 -38 0 -71 -6 -82 -14 -16
-12 -10 -13 51 -10 142 6 164 9 160 21 -3 6 5 13 17 15 17 2 21 9 19 27 -2 13
0 21 5 18 5 -3 9 6 8 21 0 22 -5 28 -28 30 -15 2 -25 6 -23 10 2 4 -16 6 -40
5 -24 0 -44 3 -44 8 0 5 -18 9 -40 9 -22 0 -40 5 -40 10 0 11 -63 14 -73 3z"/>
<path d="M1060 600 c0 -5 5 -10 11 -10 5 0 7 5 4 10 -3 6 -8 10 -11 10 -2 0
-4 -4 -4 -10z"/>
<path d="M1088 525 c-2 -25 0 -45 4 -45 5 0 8 20 8 45 0 25 -2 45 -4 45 -2 0
-6 -20 -8 -45z"/>
<path d="M908 523 c6 -2 18 -2 25 0 6 3 1 5 -13 5 -14 0 -19 -2 -12 -5z"/>
<path d="M306 445 c-4 -11 2 -15 19 -15 30 0 32 6 6 19 -14 8 -20 7 -25 -4z"/>
<path d="M360 416 c0 -16 58 -27 67 -13 3 6 2 7 -4 4 -6 -4 -19 0 -29 8 -24
18 -34 19 -34 1z"/>
<path d="M930 410 c0 -5 5 -10 10 -10 6 0 10 5 10 10 0 6 -4 10 -10 10 -5 0
-10 -4 -10 -10z"/>
<path d="M182 355 c1 -27 5 -35 20 -35 15 0 18 5 12 22 -3 12 -13 28 -20 35
-11 12 -13 8 -12 -22z"/>
<path d="M862 378 c-17 -17 -15 -38 3 -38 9 0 15 9 15 25 0 29 -1 30 -18 13z"/>
<path d="M480 369 c0 -5 5 -7 10 -4 6 3 10 8 10 11 0 2 -4 4 -10 4 -5 0 -10
-5 -10 -11z"/>
<path d="M610 372 c0 -7 -15 -12 -32 -13 -32 0 -32 -1 -10 -11 18 -9 26 -8 39
5 9 9 14 20 10 23 -4 4 -7 2 -7 -4z"/>
<path d="M636 371 c-3 -5 0 -11 7 -14 8 -3 14 1 14 9 0 16 -13 19 -21 5z"/>
<path d="M695 359 c-4 -6 -4 -13 -1 -16 3 -4 6 -1 6 6 0 7 5 9 10 6 6 -3 10
-1 10 4 0 14 -17 14 -25 0z"/>
<path d="M252 280 c7 -11 19 -20 27 -20 9 0 6 7 -9 20 -13 11 -25 20 -27 20
-2 0 2 -9 9 -20z"/>
<path d="M737 271 c-10 -12 -9 -14 6 -8 10 4 23 7 28 7 5 0 9 4 9 8 0 14 -30
10 -43 -7z"/>
<path d="M660 261 c0 -5 7 -11 15 -15 23 -8 18 -46 -10 -72 -25 -23 -35 -74
-15 -74 6 0 10 11 10 25 0 15 7 28 18 32 25 9 32 24 27 56 -3 15 -1 27 5 27 5
0 10 7 10 15 0 10 -10 15 -30 15 -16 0 -30 -4 -30 -9z"/>
<path d="M720 209 l0 -32 23 25 c13 14 30 28 38 31 8 3 -3 6 -23 6 -36 1 -38
-1 -38 -30z"/>
<path d="M340 203 c0 -16 8 -22 34 -25 19 -2 32 0 30 4 -3 4 -10 8 -16 8 -6 0
-20 7 -30 17 -17 15 -18 15 -18 -4z"/>
<path d="M828 208 c-7 -4 -26 -8 -41 -8 -16 0 -26 -4 -22 -10 3 -5 0 -10 -7
-10 -8 0 -22 -9 -31 -21 -18 -20 -17 -21 5 -41 20 -17 31 -19 83 -13 33 4 62
10 65 14 3 5 15 11 28 15 16 5 22 15 22 34 0 24 -5 29 -45 38 -25 6 -50 7 -57
2z m45 -55 c-13 -13 -33 -18 -71 -18 -83 -1 -59 29 28 34 25 2 47 5 49 7 2 2
6 2 9 0 2 -2 -5 -13 -15 -23z"/>
<path d="M990 170 c-12 -8 -11 -10 8 -10 12 0 22 5 22 10 0 13 -11 13 -30 0z"/>
<path d="M533 163 c9 -2 25 -2 35 0 9 3 1 5 -18 5 -19 0 -27 -2 -17 -5z"/>
<path d="M670 124 c0 -14 4 -23 10 -19 6 3 10 15 10 26 0 10 -4 19 -10 19 -5
0 -10 -12 -10 -26z"/>
</g>
</svg>
