<?xml version="1.0" standalone="no"?>
<!DOCTYPE svg PUBLIC "-//W3C//DTD SVG 20010904//EN"
 "http://www.w3.org/TR/2001/REC-SVG-20010904/DTD/svg10.dtd">
<svg version="1.0" xmlns="http://www.w3.org/2000/svg"
 width="180.000000pt" height="180.000000pt" viewBox="0 0 180.000000 180.000000"
 preserveAspectRatio="xMidYMid meet">
<metadata>
Created by potrace 1.16, written by Peter Selinger 2001-2019
</metadata>
<g transform="translate(0.000000,180.000000) scale(0.100000,-0.100000)"
fill="#000000" stroke="none">
<path d="M880 1514 c-22 -72 -25 -130 -10 -184 5 -19 51 -107 101 -195 128
-224 138 -245 145 -308 5 -44 2 -71 -16 -127 -22 -70 -40 -91 -40 -47 0 12
-61 128 -136 257 -153 264 -184 323 -184 345 0 30 -16 14 -33 -32 -46 -135
-36 -180 99 -415 58 -101 112 -205 121 -231 19 -60 13 -153 -15 -217 l-19 -45
-11 37 c-5 21 -65 131 -131 246 -139 241 -151 266 -151 322 0 41 0 42 -31 35
-50 -11 -149 -55 -204 -90 -111 -71 -165 -152 -165 -248 0 -149 142 -273 392
-343 114 -32 364 -44 500 -25 181 26 356 106 442 202 53 59 82 139 71 197 -23
121 -145 231 -327 294 -60 20 -68 26 -73 53 -11 54 -28 88 -136 275 -128 223
-149 263 -149 290 0 41 -20 18 -40 -46z m296 -521 c7 -47 15 -57 59 -67 17 -4
68 -26 115 -48 107 -52 202 -141 220 -208 72 -269 -452 -486 -921 -381 -176
40 -318 119 -385 217 -32 47 -38 63 -38 107 1 111 92 209 263 283 l75 33 16
-62 c11 -42 53 -127 134 -266 65 -112 127 -224 138 -248 15 -34 24 -43 44 -43
50 0 87 144 65 252 -8 39 -43 110 -118 239 -117 204 -133 242 -132 303 3 109
5 106 158 -159 79 -137 152 -268 163 -292 44 -100 108 -14 108 145 -1 42 -7
93 -14 113 -7 20 -61 120 -120 222 -114 197 -129 241 -112 332 7 37 8 36 141
-196 91 -158 136 -246 141 -276z"/>
</g>
</svg>
