<?xml version="1.0" standalone="no"?>
<!DOCTYPE svg PUBLIC "-//W3C//DTD SVG 20010904//EN"
 "http://www.w3.org/TR/2001/REC-SVG-20010904/DTD/svg10.dtd">
<svg version="1.0" xmlns="http://www.w3.org/2000/svg"
 width="256.000000pt" height="256.000000pt" viewBox="0 0 256.000000 256.000000"
 preserveAspectRatio="xMidYMid meet">
<metadata>
Created by potrace 1.16, written by Peter Selinger 2001-2019
</metadata>
<g transform="translate(0.000000,256.000000) scale(0.100000,-0.100000)"
fill="#000000" stroke="none">
<path d="M1150 2400 c0 -6 -41 -10 -105 -10 -63 0 -105 -4 -105 -10 0 -6 -27
-10 -60 -10 -33 0 -60 -4 -60 -10 0 -5 -25 -10 -55 -10 -30 0 -55 -4 -55 -10
0 -5 -11 -10 -24 -10 -14 0 -28 -4 -31 -10 -3 -5 -13 -10 -21 -10 -20 0 -94
-33 -94 -42 0 -5 -16 -8 -35 -8 -19 0 -35 -4 -35 -8 0 -5 -25 -22 -56 -38 -30
-16 -63 -37 -71 -46 -9 -10 -20 -18 -25 -18 -12 0 -108 -97 -108 -109 0 -6
-13 -24 -30 -39 -16 -16 -30 -36 -30 -45 0 -9 -11 -19 -25 -23 -19 -5 -25 -13
-25 -35 0 -16 -4 -29 -10 -29 -5 0 -10 -11 -10 -25 0 -14 -4 -25 -10 -25 -5 0
-10 -13 -10 -30 0 -16 -4 -30 -10 -30 -5 0 -10 -13 -10 -30 0 -23 -4 -30 -20
-30 -11 0 -20 -7 -20 -15 0 -8 5 -14 12 -12 16 3 19 -41 3 -47 -10 -3 -12 -49
-12 -183 1 -151 1 -158 4 -43 2 74 8 144 14 155 11 23 17 49 18 83 1 13 5 20
11 17 5 -3 10 -36 9 -73 0 -48 -3 -61 -9 -47 -6 13 -9 -32 -9 -122 1 -78 -2
-147 -7 -154 -4 -8 -3 -9 4 -5 7 4 12 13 12 21 0 8 4 16 9 19 4 3 8 -2 8 -12
0 -43 3 -51 18 -46 11 4 13 2 9 -9 -3 -10 2 -20 15 -27 12 -6 21 -21 21 -34 0
-30 58 -76 95 -76 9 0 14 -4 11 -8 -2 -4 -1 -14 5 -22 7 -13 9 -13 9 0 1 12 3
11 11 -3 6 -9 14 -15 20 -12 5 4 9 0 9 -8 0 -16 27 -31 32 -18 5 15 48 -8 48
-25 0 -13 3 -14 15 -4 12 10 15 10 15 -2 0 -11 11 -14 43 -12 23 1 36 0 29 -3
-6 -2 -9 -9 -6 -14 3 -6 11 -5 20 2 11 9 14 9 14 0 0 -8 14 -10 43 -7 36 4 40
3 24 -8 -14 -11 -5 -13 65 -14 46 0 94 -1 108 -2 23 -1 23 -2 5 -10 -14 -6 -4
-9 37 -9 31 -1 60 -5 63 -11 3 -5 17 -10 31 -10 14 0 22 -4 19 -10 -4 -6 8
-10 29 -10 19 0 36 -5 38 -11 5 -16 58 -19 58 -3 0 9 11 14 31 14 17 0 28 4
24 10 -4 6 7 10 24 10 17 0 31 5 31 10 0 6 26 10 58 10 40 0 53 3 42 10 -11 7
5 10 53 10 49 0 67 4 67 13 0 11 18 13 81 9 56 -3 83 -1 89 7 7 13 95 17 129
6 26 -8 27 3 4 22 -16 12 -13 13 29 10 40 -3 50 0 65 19 9 13 20 21 25 18 4
-3 8 4 8 16 0 12 5 18 10 15 6 -4 8 -11 5 -16 -4 -5 -1 -9 4 -9 16 0 13 16 -4
30 -8 7 -15 17 -15 22 0 17 -49 58 -69 58 -14 0 -23 9 -27 26 -6 25 -10 26
-50 20 -48 -6 -57 -1 -21 14 l22 9 -22 0 c-13 1 -23 6 -23 11 0 6 -10 10 -22
9 l-23 0 23 -9 c29 -12 28 -20 -3 -18 -14 1 -25 9 -25 16 0 10 -11 13 -37 11
-21 -1 -45 -1 -53 0 -13 1 -13 2 0 11 11 7 0 10 -38 10 -33 0 -51 4 -47 10 4
6 -15 10 -49 10 -31 0 -56 2 -56 4 0 14 43 75 56 80 17 6 15 27 -1 28 -6 0
-16 5 -23 11 -11 8 -12 5 -6 -17 5 -22 2 -33 -19 -51 -14 -13 -33 -24 -43 -24
-11 0 -28 -2 -39 -5 -11 -2 -47 -5 -80 -6 -43 -1 -54 -4 -40 -10 20 -9 20 -9
0 -9 -15 -1 -11 -6 15 -20 25 -13 37 -15 42 -7 4 6 0 14 -10 18 -15 7 -14 7 2
5 16 -2 20 -10 20 -44 0 -23 4 -39 9 -36 4 3 7 -15 5 -39 -2 -29 -7 -42 -16
-40 -8 1 -11 -2 -7 -8 8 -13 -42 -63 -55 -55 -6 4 -9 1 -8 -7 2 -7 -5 -12 -14
-12 -10 1 -16 -2 -13 -6 7 -11 -24 -22 -37 -13 -7 4 -8 1 -3 -7 6 -10 4 -12
-9 -7 -9 4 -15 3 -12 -2 3 -5 -16 -18 -42 -30 -37 -17 -41 -21 -18 -18 17 3
41 1 54 -4 14 -6 21 -5 17 1 -3 5 4 14 15 20 11 6 18 15 15 20 -3 6 1 7 10 4
10 -4 28 7 50 31 19 20 35 33 35 29 0 -3 7 -1 15 6 8 7 12 16 9 21 -3 5 2 12
10 15 9 3 13 10 10 15 -3 5 -1 9 3 9 5 0 8 20 8 45 0 25 -4 45 -8 45 -5 0 -6
4 -3 9 4 5 0 11 -6 14 -9 3 -4 12 13 28 26 25 66 39 54 20 -3 -6 -2 -11 4 -11
5 0 12 6 15 13 3 8 8 7 16 -5 6 -10 23 -18 38 -18 16 0 32 -4 38 -9 5 -6 26
-12 46 -14 21 -2 41 -7 45 -12 5 -4 2 -5 -6 0 -9 5 -12 4 -8 -2 4 -6 28 -10
54 -10 27 0 46 -4 43 -9 -3 -5 -9 -8 -13 -6 -5 1 -6 -2 -3 -7 3 -5 18 -8 34
-6 30 4 104 -24 96 -36 -2 -5 11 -6 31 -5 19 2 33 0 30 -4 -3 -5 1 -10 7 -13
7 -3 -4 -3 -24 -2 -58 5 -54 -12 5 -18 28 -4 53 -11 55 -17 2 -5 11 -10 20
-10 13 0 11 -5 -8 -24 -14 -13 -28 -22 -32 -20 -4 3 -9 0 -12 -4 -3 -5 -19 -8
-36 -7 -17 1 -33 -2 -36 -7 -3 -5 -13 -3 -22 4 -10 7 -14 8 -10 4 13 -15 -24
-35 -47 -26 -12 4 -28 4 -36 -1 -19 -10 -59 -1 -59 14 0 6 -3 7 -6 4 -4 -4 -1
-13 5 -21 11 -13 5 -14 -42 -12 -32 2 -63 -2 -78 -10 -13 -7 -18 -13 -10 -14
8 0 12 -3 8 -6 -3 -3 -12 -2 -19 2 -19 12 -79 5 -105 -12 -14 -8 -23 -10 -23
-4 0 12 -46 3 -75 -15 -17 -10 -23 -10 -35 3 -13 14 -12 15 4 9 13 -5 19 -2
23 11 4 15 12 18 41 16 27 -2 32 -1 17 5 l-20 8 20 6 20 6 -20 -1 c-37 -1 -46
2 -40 11 3 5 1 12 -5 16 -5 3 -10 -1 -10 -9 0 -9 -11 -23 -24 -31 -20 -13 -23
-22 -19 -53 3 -29 2 -34 -7 -22 -9 11 -13 12 -17 3 -8 -20 -62 -15 -96 9 -17
12 -27 16 -22 8 6 -10 4 -12 -9 -7 -10 4 -22 7 -27 7 -6 0 -8 4 -5 9 3 4 -4 8
-16 7 -24 -1 -36 20 -16 27 7 2 2 2 -11 0 -14 -2 -28 3 -36 14 -11 15 -12 14
-10 -10 2 -15 -1 -27 -6 -27 -5 0 -9 3 -9 8 0 4 -12 8 -27 9 -72 4 -133 15
-127 24 3 6 -5 7 -21 3 -15 -4 -52 -1 -84 6 -62 13 -241 96 -241 111 0 5 -6 9
-12 9 -17 0 -138 119 -130 127 6 7 1 23 -13 37 -8 8 -16 26 -17 40 -1 14 -5
26 -9 26 -4 0 -9 25 -11 55 -2 46 -1 53 10 38 14 -20 15 -13 3 20 -6 16 -4 45
6 88 8 35 17 81 20 102 3 20 9 40 14 43 5 3 9 15 9 28 0 12 5 27 11 33 16 16
17 72 2 85 -13 10 -18 -5 -14 -39 1 -7 -5 -13 -13 -13 -12 0 -14 -7 -9 -32 5
-27 4 -30 -12 -24 -16 6 -17 2 -11 -51 5 -44 4 -55 -5 -46 -16 16 -25 113 -10
113 6 0 11 14 11 31 0 17 4 28 10 24 6 -4 10 7 10 24 0 17 5 31 10 31 6 0 10
13 10 29 0 24 5 31 29 36 21 4 28 11 24 21 -3 9 8 27 26 44 17 17 31 35 31 41
0 11 95 109 107 109 4 0 16 9 27 19 12 11 47 33 78 49 32 16 54 32 51 36 -3 3
10 6 30 6 21 0 37 3 37 8 0 9 74 42 94 42 8 0 18 5 21 10 3 6 17 10 31 10 13
0 24 5 24 10 0 6 3 9 8 9 33 -5 112 3 107 11 -7 11 102 14 129 4 34 -13 13
-21 -60 -20 -41 0 -79 -5 -82 -11 -4 -5 -20 -10 -37 -10 -16 0 -39 -1 -50 -2
l-20 -2 20 -9 c15 -6 6 -9 -32 -9 -29 -1 -53 -4 -53 -9 0 -4 -15 -13 -32 -20
-18 -8 -44 -19 -58 -26 -14 -8 -31 -11 -37 -9 -7 3 -13 -2 -13 -11 0 -10 -7
-13 -26 -10 -21 4 -25 2 -21 -11 5 -11 0 -15 -19 -15 -14 0 -22 -4 -19 -10 3
-6 -4 -10 -17 -10 -13 0 -29 -9 -36 -20 -7 -11 -18 -20 -25 -20 -7 0 -19 -9
-27 -19 -7 -11 -18 -17 -23 -14 -6 3 -7 1 -3 -5 7 -11 -66 -92 -83 -92 -6 0
-11 -7 -11 -15 0 -8 -5 -15 -11 -15 -5 0 -8 -4 -5 -9 3 -5 -7 -22 -23 -39 -20
-21 -28 -37 -24 -51 3 -11 9 -18 14 -15 5 3 9 1 9 -5 0 -6 8 -8 17 -5 17 5 17
5 1 -6 -10 -6 -18 -16 -18 -22 0 -7 5 -6 15 2 15 12 20 4 16 -22 0 -5 3 -8 8
-8 13 0 24 34 12 38 -6 2 -11 15 -11 28 0 17 -4 23 -12 18 -8 -4 -10 -3 -5 2
5 5 12 9 15 9 4 1 17 6 28 13 12 6 24 9 27 5 4 -3 12 -1 19 5 21 16 87 32 94
21 8 -14 24 0 18 16 -4 8 -11 12 -16 9 -6 -4 -27 -9 -47 -11 -20 -3 -38 -8
-41 -12 -5 -7 -25 -12 -52 -14 -9 -1 -14 -5 -11 -11 4 -5 1 -6 -6 -1 -9 5 -7
13 10 31 12 13 26 21 30 18 5 -3 9 0 9 5 0 6 -5 11 -10 11 -6 0 -5 6 2 14 7 8
16 12 20 10 4 -2 10 1 14 7 4 8 3 9 -4 5 -7 -4 -12 -3 -12 2 0 10 55 52 70 52
5 0 10 6 10 14 0 15 57 52 95 62 14 3 25 12 25 20 0 8 5 14 11 14 5 0 7 4 4
10 -3 5 0 7 8 4 8 -3 22 2 30 11 9 9 19 15 22 14 6 -1 54 16 90 32 11 5 29 10
40 12 11 1 25 5 30 8 11 7 105 30 118 29 4 0 6 -3 5 -7 -2 -5 -7 -7 -13 -5 -5
2 -6 0 -2 -4 4 -5 20 -9 35 -11 18 -1 22 0 10 5 -12 5 -15 11 -8 22 9 13 10
13 10 0 0 -11 2 -12 8 -3 8 12 72 28 157 38 22 2 52 6 68 8 15 2 27 0 27 -4 0
-5 12 -4 26 1 14 6 29 8 32 6 4 -2 90 -7 192 -10 102 -3 204 -9 226 -12 29 -4
51 -1 74 11 41 21 24 36 -29 24 -52 -12 -131 -11 -131 2 0 6 7 9 15 5 8 -3 15
-1 15 4 0 6 40 10 95 10 57 0 95 -4 95 -10 0 -5 13 -10 29 -10 17 0 33 -4 36
-10 3 -5 28 -10 56 -10 27 0 49 -4 49 -10 0 -5 15 -10 34 -10 19 0 41 -7 50
-15 8 -8 26 -15 40 -15 14 0 28 -4 31 -10 3 -5 19 -10 36 -10 16 0 29 -4 29
-10 0 -5 9 -10 20 -10 11 0 20 -4 20 -10 0 -5 15 -10 34 -10 21 0 36 -6 40
-15 3 -8 12 -15 21 -15 8 0 15 -6 15 -14 0 -8 7 -16 15 -20 22 -8 18 -29 -7
-45 -18 -11 -96 -15 -383 -18 -399 -4 -405 -4 -405 -14 0 -4 -8 -8 -17 -8
-167 -1 -271 -4 -286 -10 -18 -7 -17 -8 7 -24 17 -12 47 -17 93 -18 47 0 62
-3 48 -9 -15 -6 -6 -9 32 -9 28 -1 55 -5 58 -11 3 -5 28 -10 56 -10 27 0 49
-4 49 -10 0 -5 13 -10 28 -10 15 0 32 -4 38 -9 9 -9 41 -15 163 -29 36 -4 66
-13 69 -20 2 -8 34 -12 102 -12 54 0 100 -4 102 -9 2 -6 31 -11 66 -12 34 -1
62 -6 62 -11 0 -4 20 -8 45 -8 25 0 45 -4 45 -10 0 -5 11 -10 25 -10 14 0 25
-4 25 -10 0 -5 13 -10 29 -10 16 0 31 -5 33 -11 2 -6 16 -12 31 -12 15 -1 29
-8 32 -14 2 -7 12 -13 21 -13 9 0 29 -13 44 -30 24 -26 60 -41 60 -25 0 13
-71 75 -85 75 -9 0 -18 7 -21 15 -4 9 -19 15 -35 15 -16 0 -29 5 -29 10 0 6
-13 10 -30 10 -16 0 -30 5 -30 10 0 6 -11 10 -25 10 -14 0 -25 5 -25 10 0 6
-20 10 -45 10 -25 0 -45 5 -45 10 0 6 -28 10 -65 10 -37 0 -65 4 -65 10 0 6
-40 10 -99 10 -69 0 -101 4 -103 12 -3 7 -33 16 -69 20 -122 14 -154 20 -163
29 -6 5 -23 9 -38 9 -15 0 -28 5 -28 10 0 6 -22 10 -49 10 -28 0 -53 5 -56 10
-3 6 -21 10 -40 10 -18 0 -35 6 -38 13 -3 9 11 12 52 13 31 0 79 6 106 13 32
7 173 12 400 14 390 2 395 3 395 65 0 20 -6 35 -15 38 -8 4 -15 12 -15 20 0 8
-7 14 -15 14 -9 0 -18 7 -21 15 -4 9 -19 15 -40 15 -19 0 -34 5 -34 10 0 6 -9
10 -20 10 -11 0 -20 5 -20 10 0 6 -13 10 -29 10 -17 0 -33 5 -36 10 -3 6 -17
10 -31 10 -14 0 -32 7 -40 15 -9 8 -31 15 -50 15 -19 0 -34 5 -34 10 0 6 -22
10 -49 10 -28 0 -53 5 -56 10 -3 6 -19 10 -36 10 -16 0 -29 5 -29 10 0 6 -38
10 -95 10 -57 0 -95 4 -95 10 0 6 -40 10 -100 10 -55 0 -100 4 -100 9 0 5 -49
10 -110 10 -68 1 -110 -3 -110 -9z m200 -22 c0 -5 46 -8 102 -8 62 0 98 -4 93
-9 -14 -13 -215 -19 -207 -6 3 6 -2 4 -11 -3 -13 -11 -50 -12 -179 -7 -190 8
-246 24 -85 25 67 0 107 4 107 10 0 7 32 10 90 8 49 -2 90 -6 90 -10z m-42
-355 c-10 -2 -26 -2 -35 0 -10 3 -2 5 17 5 19 0 27 -2 18 -5z m362 -843 c0 -5
-7 -10 -16 -10 -8 0 -12 5 -9 10 3 6 10 10 16 10 5 0 9 -4 9 -10z m-1500 -47
c0 -10 -4 -14 -8 -8 -4 6 -11 13 -16 18 -5 4 -2 7 7 7 10 0 17 -8 17 -17z
m1560 -9 c0 -8 -19 -13 -24 -6 -3 5 1 9 9 9 8 0 15 -2 15 -3z m-730 -139 c0
-2 -10 -9 -22 -15 -22 -11 -22 -10 -4 4 21 17 26 19 26 11z m120 -12 c0 -3 -7
-2 -15 1 -10 4 -19 -2 -25 -17 -5 -13 -9 -16 -9 -6 -1 21 18 39 35 32 8 -3 14
-7 14 -10z"/>
<path d="M1217 2363 c18 -2 50 -2 70 0 21 2 7 4 -32 4 -38 0 -55 -2 -38 -4z"/>
<path d="M1682 2293 c-15 -6 -21 -12 -14 -13 6 -2 15 -3 20 -4 4 -1 39 -8 77
-14 76 -14 139 -30 170 -43 11 -4 40 -13 65 -20 25 -7 69 -23 99 -37 30 -14
63 -27 73 -27 10 -1 21 -5 25 -8 6 -7 -58 -3 -174 8 -28 3 -70 1 -92 -4 -25
-5 -43 -5 -47 0 -6 11 -159 9 -191 -2 -12 -5 -25 -4 -28 0 -3 5 -13 8 -23 6
-9 -2 -19 -4 -22 -4 -3 -1 -66 -3 -140 -5 -74 -2 -143 -5 -153 -5 -10 -1 -15
-6 -12 -12 4 -6 -3 -5 -14 3 -18 11 -23 11 -30 -1 -6 -9 -10 -10 -12 -2 -3 8
-18 8 -54 1 -56 -12 -70 -14 -170 -26 -38 -4 -73 -7 -78 -6 -4 1 -25 -7 -47
-18 -49 -25 -68 -26 -49 -3 10 11 10 14 2 9 -17 -9 -17 6 0 24 10 12 9 12 -5
1 -22 -16 -23 -3 -3 23 8 11 15 25 15 30 -1 6 -7 0 -16 -14 -14 -23 -14 -23
-9 -2 4 12 2 22 -3 22 -15 0 -33 -26 -38 -55 -4 -24 -2 -27 15 -22 25 6 34
-15 16 -40 -8 -10 -15 -13 -15 -8 0 12 -140 14 -140 3 0 -5 16 -8 35 -8 27 0
33 -3 28 -16 -3 -9 -9 -12 -12 -7 -7 11 -76 11 -87 1 -4 -5 -1 -8 7 -8 12 0
12 -2 1 -9 -8 -5 -27 -7 -42 -6 -19 2 -27 -2 -24 -10 6 -16 -28 -25 -49 -14
-10 6 -18 5 -23 -2 -4 -7 -3 -9 4 -5 6 3 13 3 16 -2 4 -6 -80 -52 -106 -58 -5
-1 -11 -2 -14 -3 -4 0 0 -9 7 -18 11 -15 11 -16 -1 -6 -16 14 -23 46 -9 37 5
-3 9 -2 8 3 -1 4 -1 15 0 23 1 13 2 13 11 0 6 -10 10 -11 10 -2 0 6 5 12 11
12 5 0 7 -6 3 -12 -5 -9 -3 -9 9 1 24 19 12 31 -22 21 -16 -4 -33 -5 -37 -2
-4 4 -4 -1 -1 -10 7 -21 -10 -34 -46 -32 -15 0 -33 -6 -40 -14 -10 -13 -9 -14
3 -7 8 5 22 10 31 10 26 2 11 -40 -22 -59 -16 -9 -29 -22 -29 -27 0 -6 -4 -8
-9 -5 -5 3 -14 -1 -21 -9 -10 -12 -16 -13 -28 -3 -13 11 -15 10 -10 -10 4 -14
2 -25 -6 -28 -14 -5 -19 -44 -5 -44 5 0 9 -4 9 -10 0 -5 -7 -10 -15 -10 -12 0
-12 -4 3 -22 35 -44 123 -112 147 -113 23 -2 65 -25 65 -36 0 -7 3 -9 7 -6 3
4 13 2 20 -5 17 -14 55 -19 47 -6 -3 4 -2 8 3 9 4 0 19 2 32 3 14 2 27 8 29
14 2 6 10 8 18 5 7 -3 16 2 20 10 6 16 20 17 44 2 13 -8 13 -7 1 8 -12 15 -11
17 7 17 34 0 53 11 63 37 7 20 12 23 23 14 10 -8 16 -9 21 -1 3 6 10 8 15 5 5
-3 12 -1 15 5 4 6 3 9 -2 8 -7 -3 -15 7 -12 15 6 16 4 55 -4 54 -5 -1 -11 3
-14 9 -2 7 8 11 27 10 16 0 30 -5 30 -10 0 -5 2 -7 5 -4 10 9 -7 38 -18 31 -6
-3 -7 -1 -3 5 5 8 13 9 25 2 10 -5 20 -7 23 -5 3 3 5 -2 5 -10 0 -8 -4 -12 -9
-9 -4 3 -8 0 -8 -5 0 -10 20 -15 41 -13 4 1 5 -9 2 -21 -5 -22 -5 -22 10 -2 8
11 14 22 12 25 -2 3 5 6 15 6 10 0 16 -4 14 -8 -3 -4 3 -5 13 -2 14 4 15 4 4
-4 -11 -8 -11 -10 0 -15 11 -4 11 -6 1 -6 -7 -1 -11 -5 -8 -9 3 -5 -1 -9 -9
-9 -8 0 -12 8 -10 19 3 12 -1 18 -8 15 -7 -2 -12 -13 -11 -23 0 -24 -40 -31
-65 -12 -14 12 -14 11 -2 -5 13 -16 12 -19 -7 -24 -12 -3 -22 -11 -22 -17 0
-6 -8 -12 -17 -13 -42 -3 -63 -8 -63 -14 0 -4 -14 -12 -30 -19 -17 -7 -29 -17
-27 -23 4 -14 35 -17 33 -3 0 6 3 12 7 13 4 1 19 9 33 18 13 9 29 13 34 10 6
-3 10 -2 10 4 0 6 7 8 15 5 8 -4 15 -2 15 4 0 5 11 13 25 16 14 4 24 10 21 14
-2 4 4 8 15 8 12 0 18 -5 15 -13 -3 -7 -1 -13 4 -13 6 0 10 8 10 19 0 28 47
34 54 7 6 -20 7 -20 20 -3 8 11 17 14 20 8 4 -5 2 -12 -4 -16 -7 -4 -7 -12 0
-25 14 -26 13 -29 -10 -25 -11 2 -18 0 -16 -4 3 -4 -1 -8 -9 -8 -19 0 -19 2 1
21 8 9 12 16 7 16 -12 0 -35 -16 -34 -24 3 -18 0 -20 -10 -6 -9 13 -10 13 -6
0 2 -8 10 -15 18 -15 8 0 13 -8 11 -18 -2 -9 2 -17 8 -17 6 0 9 4 5 9 -3 5 -2
12 3 15 18 11 8 -29 -12 -46 -14 -12 -16 -17 -6 -16 9 2 14 -3 12 -14 -3 -16
13 -23 41 -19 4 0 7 -6 7 -14 0 -8 5 -15 11 -15 5 0 8 -4 5 -9 -3 -5 -15 -7
-26 -4 -12 3 -20 0 -20 -6 0 -7 4 -9 10 -6 5 3 17 -13 27 -36 9 -24 18 -38 20
-33 2 5 22 8 46 6 31 -2 38 -1 27 7 -9 7 -10 11 -3 11 6 0 11 9 10 20 -1 18
-2 18 -19 3 -10 -9 -19 -12 -19 -7 -4 32 -2 40 11 47 9 4 5 5 -11 2 -14 -2
-34 2 -44 9 -16 12 -17 18 -8 38 12 28 4 51 -18 46 -9 -2 -15 8 -17 32 -3 32
-2 33 11 16 11 -15 16 -16 22 -6 6 9 4 11 -5 5 -10 -6 -12 -4 -7 9 4 10 2 26
-3 37 -8 13 -7 19 0 19 7 0 9 8 5 19 -5 17 1 20 57 25 35 3 92 8 128 12 36 3
70 10 75 15 7 7 3 8 -10 3 -18 -7 -19 -6 -6 10 13 15 17 16 25 4 8 -10 19 -12
39 -7 24 6 26 5 17 -7 -7 -7 -16 -12 -20 -9 -5 3 -6 -4 -3 -15 7 -26 19 -34
29 -19 4 8 3 9 -4 5 -7 -4 -12 -1 -12 9 0 10 5 13 12 9 7 -4 8 -3 4 4 -10 16
28 34 42 20 8 -8 12 -9 12 -1 0 10 32 23 54 22 5 -1 13 5 17 13 7 10 9 9 9 -4
0 -20 30 -24 47 -7 5 5 29 11 51 12 22 1 44 6 48 10 14 13 14 47 1 47 -8 0 -7
4 3 10 8 5 10 10 4 10 -6 0 -11 7 -11 15 0 8 5 15 11 16 6 0 21 2 34 5 12 2
22 -1 22 -6 0 -6 17 -1 37 10 41 22 78 26 88 10 4 -6 -12 -10 -42 -10 -71 -1
-32 -18 47 -21 36 -1 74 -5 86 -10 46 -16 131 -19 159 -5 15 8 33 12 41 9 7
-2 21 0 31 7 14 9 -3 10 -75 6 -62 -3 -90 -1 -86 6 3 5 15 8 25 5 11 -3 19 -1
19 4 0 6 -41 8 -95 7 -73 -2 -96 0 -100 11 -4 10 -30 12 -128 8 -127 -4 -151
-2 -141 15 4 6 -4 8 -17 6 -13 -2 -30 4 -37 12 -8 8 -11 9 -7 3 12 -24 -32
-13 -60 15 -20 19 -27 22 -22 9 4 -10 7 -21 7 -23 0 -2 5 -4 11 -4 20 0 38
-26 28 -41 -13 -21 -11 -33 4 -22 15 13 97 16 97 4 0 -5 -6 -14 -14 -20 -11
-9 -16 -9 -22 0 -5 8 -3 10 7 4 8 -5 11 -5 7 0 -10 11 -69 15 -62 4 3 -5 11
-9 18 -9 7 0 22 -10 34 -23 17 -18 19 -26 10 -35 -7 -7 -8 -12 -4 -12 5 0 15
8 23 18 14 16 14 16 8 -3 -5 -15 -3 -17 6 -8 13 13 5 48 -9 39 -5 -3 -9 1 -9
9 0 10 4 12 12 5 7 -5 16 -6 20 -2 5 4 5 2 1 -5 -3 -6 -2 -14 4 -18 5 -3 10 1
10 10 0 9 4 14 8 11 5 -3 8 -17 8 -32 -2 -24 -8 -29 -51 -40 -28 -7 -51 -13
-52 -14 -2 0 -2 10 0 23 1 14 -3 22 -13 22 -8 0 -19 5 -23 10 -4 6 -7 2 -5 -9
2 -12 -8 -24 -31 -37 -29 -16 -35 -16 -48 -3 -8 8 -19 12 -24 8 -5 -3 -13 5
-18 18 -6 13 -10 16 -11 8 0 -13 -2 -13 -9 0 -6 8 -8 17 -6 20 2 4 -2 7 -10 7
-11 0 -12 -4 -4 -14 6 -7 9 -13 5 -13 -3 0 2 -9 11 -19 9 -11 21 -17 27 -14 8
4 8 2 1 -5 -15 -16 -58 -21 -72 -10 -7 6 -13 7 -13 4 0 -4 -7 0 -15 8 -9 9
-15 24 -13 33 2 10 -2 17 -9 15 -7 -1 -13 3 -13 10 0 6 -3 8 -6 5 -4 -3 -16
-1 -28 5 -11 7 -30 13 -40 15 -33 6 -31 13 2 14 18 1 39 2 47 3 24 2 76 -37
70 -53 -4 -11 -3 -11 9 -1 14 11 14 14 0 27 -12 12 -12 18 -2 31 11 13 10 14
-2 10 -8 -3 -14 -12 -14 -21 1 -9 -2 -14 -6 -12 -5 3 -8 14 -7 25 1 16 8 20
37 20 26 0 31 -3 20 -10 -8 -5 -10 -10 -5 -10 6 0 16 5 22 11 8 8 14 6 22 -9
6 -11 20 -23 30 -27 10 -3 22 -18 26 -32 5 -20 8 -24 15 -13 5 8 5 21 0 30 -6
12 -5 17 5 17 8 0 12 -4 10 -8 -9 -13 7 -39 22 -39 11 0 13 5 8 18 -4 9 -8 22
-8 28 0 7 -7 11 -16 9 -9 -1 -24 2 -35 7 -14 7 -16 7 -11 -2 6 -9 2 -9 -14 -1
-30 17 -27 19 24 18 28 -1 47 3 50 11 3 8 -8 12 -35 12 -43 0 -63 16 -28 23
15 3 12 4 -9 4 -17 -1 -29 -5 -27 -9 3 -4 -18 -8 -45 -8 -28 0 -54 -1 -58 -2
-5 -1 -22 -4 -40 -8 -21 -5 -34 -4 -37 4 -2 6 -5 4 -5 -4 -1 -11 -16 -16 -58
-18 -51 -3 -72 -13 -73 -33 0 -6 21 -9 64 -9 38 1 96 -19 96 -32 0 -6 7 -8 15
-5 8 4 17 2 20 -3 4 -6 0 -10 -7 -10 -9 0 -9 -3 2 -10 8 -5 11 -10 5 -10 -5 0
-2 -5 8 -11 25 -14 11 -30 -24 -27 -27 2 -34 10 -30 32 1 5 -4 4 -12 -3 -13
-10 -15 -7 -13 18 1 16 -1 28 -5 25 -4 -2 -10 2 -12 8 -4 9 -6 8 -6 -2 0 -8 3
-21 8 -29 12 -18 3 -41 -15 -41 -8 0 -14 -5 -14 -10 0 -7 6 -7 20 0 14 8 20 8
20 0 0 -14 -36 -27 -64 -24 -11 1 -25 3 -31 3 -5 1 1 8 13 17 17 11 20 19 13
28 -7 9 -7 16 2 25 8 9 8 11 0 9 -6 -2 -11 2 -11 7 0 6 4 9 10 7 5 -1 7 2 3 7
-9 16 -34 1 -32 -19 1 -10 4 -17 7 -15 3 2 6 -7 6 -20 0 -13 -4 -21 -8 -19 -5
3 -6 9 -3 14 3 5 1 11 -4 14 -5 4 -8 17 -6 31 1 14 -5 31 -13 37 -13 11 -15
10 -9 -7 7 -18 6 -19 -6 -3 -8 10 -18 14 -22 10 -5 -4 -5 -1 -1 6 4 7 11 10
16 7 9 -6 23 25 15 33 -3 3 -5 0 -5 -6 0 -7 -15 -12 -36 -12 -26 0 -33 -3 -27
-12 11 -19 13 -39 2 -32 -5 3 -7 10 -4 15 4 5 -4 9 -17 9 -18 0 -20 -2 -8 -10
9 -6 10 -10 3 -10 -6 0 -15 5 -18 10 -8 13 -55 13 -55 0 0 -5 -7 -10 -15 -10
-8 0 -15 -6 -15 -12 0 -8 -3 -9 -8 -3 -11 15 -32 17 -26 2 3 -9 -6 -12 -30
-11 -25 1 -33 -2 -30 -11 4 -9 -2 -13 -20 -11 -18 2 -26 -2 -26 -11 0 -9 -6
-13 -14 -10 -8 3 -20 -1 -27 -9 -7 -8 -18 -13 -26 -10 -7 3 -13 -1 -13 -9 0
-13 -31 -21 -62 -16 -4 0 -5 -9 -3 -20 4 -18 2 -19 -12 -7 -14 11 -16 11 -11
-3 5 -12 1 -15 -17 -13 -14 1 -26 -4 -30 -14 -5 -14 -7 -15 -16 -2 -9 12 -10
11 -6 -5 3 -16 -1 -21 -21 -23 -14 -1 -31 -7 -38 -13 -17 -14 -57 -1 -50 16 3
8 -3 19 -12 27 -11 9 -14 10 -8 1 10 -18 -9 -16 -24 2 -7 8 -9 15 -5 15 4 0 2
7 -5 15 -7 8 -16 13 -20 10 -10 -6 -26 14 -33 43 -4 17 -2 22 8 18 10 -3 12 0
8 11 -5 12 -2 15 8 11 9 -4 21 2 28 13 6 11 17 17 23 13 7 -4 8 -3 4 4 -5 8 1
12 16 13 22 0 22 1 3 9 -17 7 -15 9 13 9 21 1 32 6 32 15 0 8 4 17 9 20 5 4 7
-4 5 -16 l-5 -23 12 23 c7 12 18 22 26 22 7 0 13 8 13 17 0 15 2 14 15 -3 8
-10 15 -14 15 -7 0 7 18 21 40 31 22 10 37 21 34 25 -4 4 5 7 20 7 19 0 25 4
20 13 -5 7 -2 7 10 -2 15 -12 17 -12 14 0 -2 10 5 13 25 11 18 -2 27 1 25 9
-2 8 7 13 22 13 15 1 24 6 22 14 -2 9 4 11 18 7 11 -3 33 0 48 8 16 7 40 13
55 13 16 -1 27 4 27 11 0 7 5 13 11 13 5 0 8 -4 4 -9 -3 -5 -1 -13 5 -16 6 -4
9 -1 8 7 -2 9 10 14 36 16 36 3 38 2 26 -13 -7 -9 -19 -14 -26 -11 -8 3 -13 0
-11 -6 1 -5 -6 -12 -16 -13 -26 -5 -34 -15 -12 -15 38 0 2 -14 -42 -17 -25 -2
-51 -8 -58 -13 -6 -5 -16 -6 -20 -2 -5 4 -5 1 -1 -6 4 -7 10 -10 14 -8 4 2 29
7 56 10 27 4 53 9 57 11 10 7 33 -24 25 -33 -11 -10 -30 -9 -38 3 -5 6 -8 5
-8 -3 0 -9 -6 -10 -17 -4 -10 4 -24 7 -30 6 -7 -1 -20 -2 -29 -3 -8 0 -12 -5
-9 -11 8 -13 45 -13 45 0 0 7 6 7 20 0 11 -6 20 -7 20 -3 0 4 5 1 10 -7 5 -8
7 -23 4 -33 -5 -15 -2 -16 21 -7 20 8 24 7 19 -3 -6 -8 -3 -8 9 1 13 11 14 17
4 27 -9 10 -15 10 -26 1 -12 -9 -12 -8 -2 12 7 12 16 20 21 17 5 -3 14 3 19
14 8 13 8 20 0 23 -6 2 -7 12 -1 27 5 15 11 20 15 13 5 -7 17 -8 37 -2 19 5
28 5 25 -1 -4 -5 9 -9 27 -9 24 0 29 -3 18 -10 -10 -6 1 -8 37 -7 28 1 49 5
47 8 -2 4 3 9 11 13 8 3 17 0 21 -6 4 -7 3 -8 -4 -4 -7 4 -12 2 -12 -3 0 -6 7
-11 16 -11 10 0 14 -6 11 -14 -3 -8 0 -17 8 -20 9 -3 12 1 10 16 -4 20 -4 20
17 2 12 -11 18 -13 14 -7 -4 8 3 23 18 38 22 22 23 25 6 25 -11 0 -23 -11 -29
-27 -7 -18 -10 -21 -7 -7 4 25 -20 33 -91 29 -48 -2 -59 11 -15 18 21 3 19 4
-11 6 -26 1 -39 -4 -44 -15 -3 -10 -8 -12 -12 -5 -4 6 -27 12 -51 14 -27 2
-45 9 -45 16 0 6 -7 16 -15 21 -10 7 10 10 63 10 43 0 76 4 73 9 -3 4 14 8 37
8 93 -2 133 3 117 14 -12 8 -10 10 10 8 88 -5 283 2 270 11 -8 5 -33 7 -54 3
-24 -4 -37 -2 -33 4 9 15 137 15 134 0 -1 -7 5 -10 13 -7 8 3 171 6 363 8 298
2 347 5 347 17 0 8 -8 15 -18 15 -10 0 -24 9 -32 20 -8 11 -22 20 -30 20 -9 0
-22 6 -29 13 -11 10 -13 10 -7 0 4 -7 3 -13 -2 -13 -6 0 -12 6 -15 14 -4 9
-17 12 -38 10 -31 -4 -32 -3 -13 11 18 15 17 15 -14 13 -20 -2 -36 3 -41 11
-6 8 -19 12 -35 9 -18 -4 -26 -1 -26 9 0 11 -9 14 -35 11 -24 -3 -35 0 -35 9
0 9 -17 13 -55 13 -42 0 -55 3 -55 15 0 12 -10 15 -46 13 -25 -2 -58 -8 -72
-15z m525 -139 c-3 -3 -12 -4 -19 -1 -8 3 -5 6 6 6 11 1 17 -2 13 -5z m-1372
-34 c-1 -11 -7 -26 -13 -32 -9 -9 -11 -6 -7 10 7 39 23 56 20 22z m-42 -107
c-7 -2 -19 -2 -25 0 -7 3 -2 5 12 5 14 0 19 -2 13 -5z m133 -80 c1 -21 -1 -30
-3 -20 -3 9 -8 17 -13 17 -6 0 -7 17 -1 38 1 1 5 2 9 2 4 0 8 -17 8 -37z
m-539 -68 c0 -8 -4 -12 -9 -9 -5 3 -6 10 -3 15 9 13 12 11 12 -6z m1240 -26
c-9 -6 -15 -14 -13 -18 3 -4 -6 -7 -19 -7 -28 2 -30 19 -3 21 10 1 21 5 25 8
3 4 11 7 17 7 6 0 3 -5 -7 -11z m-530 -15 c-3 -3 -12 -4 -19 -1 -8 3 -5 6 6 6
11 1 17 -2 13 -5z m347 -40 c3 -8 2 -12 -4 -9 -6 3 -10 10 -10 16 0 14 7 11
14 -7z m-554 -4 c0 -5 -2 -10 -4 -10 -3 0 -8 5 -11 10 -3 6 -1 10 4 10 6 0 11
-4 11 -10z m112 -20 c-2 -7 3 -10 11 -7 7 3 14 -1 14 -9 0 -7 -4 -11 -9 -8 -4
3 -5 -2 -2 -10 3 -9 10 -14 14 -11 11 7 18 -17 11 -36 -3 -9 -16 -15 -28 -14
-12 1 -20 -1 -18 -4 2 -4 -3 -15 -11 -26 -15 -21 -16 -20 -18 52 -1 23 -6 46
-11 50 -4 4 -5 0 -2 -9 7 -21 -21 -20 -47 1 -15 12 -20 8 -17 -12 1 -5 -3 -6
-9 -2 -8 5 -8 11 0 20 8 10 7 14 -2 18 -7 2 14 5 47 5 81 1 82 1 65 13 -13 9
-13 10 0 6 8 -2 14 -10 12 -17z m508 -10 c0 -5 -2 -10 -4 -10 -3 0 -8 5 -11
10 -3 6 -1 10 4 10 6 0 11 -4 11 -10z m-5 -30 c3 -5 1 -10 -4 -10 -6 0 -11 5
-11 10 0 6 2 10 4 10 3 0 8 -4 11 -10z m-730 -58 c-2 -9 -4 -18 -5 -19 -2 -2
-3 -7 -4 -12 0 -5 -4 -13 -8 -16 -4 -4 -5 5 -2 20 3 15 0 33 -7 41 -6 8 -8 14
-4 14 4 0 1 8 -6 18 -7 9 -2 7 13 -6 14 -13 25 -31 23 -40z m615 50 c0 -5 -7
-9 -15 -9 -8 0 -12 4 -9 9 3 4 9 8 15 8 5 0 9 -4 9 -8z m-650 -37 c7 -9 10
-18 6 -22 -3 -3 -6 0 -6 8 0 11 -2 11 -10 -1 -6 -10 -10 -11 -10 -2 0 6 -3 11
-7 11 -22 -4 -43 2 -43 11 0 16 56 12 70 -5z m-85 -5 c-3 -5 0 -10 8 -10 18 0
67 -39 50 -40 -6 0 -10 -9 -8 -20 2 -11 0 -18 -4 -16 -4 3 -24 -3 -43 -12 -38
-20 -69 -19 -46 2 7 6 11 10 9 9 -2 -2 -14 8 -26 22 -13 13 -25 21 -28 18 -3
-3 -5 4 -4 15 0 11 6 18 11 14 15 -9 46 -10 40 -1 -2 4 0 10 6 14 5 3 10 0 10
-7 0 -8 5 -6 11 5 5 9 12 17 15 17 3 0 2 -4 -1 -10z m-370 -30 c3 -5 1 -10 -4
-10 -6 0 -11 5 -11 10 0 6 2 10 4 10 3 0 8 -4 11 -10z m285 -47 c0 -9 6 -13
15 -9 19 7 19 4 -2 -21 -17 -19 -47 -34 -67 -32 -5 0 -12 -5 -17 -13 -7 -11
-13 -10 -36 4 -26 15 -34 33 -15 33 4 0 18 10 32 23 13 12 34 22 47 22 14 0
21 4 18 10 -3 6 1 7 9 4 9 -3 16 -13 16 -21z m-151 -46 c0 -9 -2 -8 -6 1 -2 6
-10 9 -15 6 -7 -4 -8 -2 -4 5 9 13 26 5 25 -12z m589 -90 c10 -3 7 -5 -9 -6
-24 -1 -26 2 -20 27 5 24 6 25 9 5 2 -12 11 -24 20 -26z m62 -76 c0 -9 -41
-23 -48 -16 -2 2 -1 8 3 14 8 13 45 15 45 2z m11 -38 c13 -13 -7 -13 -28 0 -8
5 -13 3 -13 -4 0 -7 -3 -10 -6 -6 -10 9 5 25 21 23 8 -1 20 -7 26 -13z"/>
<path d="M916 1728 c3 -5 10 -6 15 -3 13 9 11 12 -6 12 -8 0 -12 -4 -9 -9z"/>
<path d="M635 1629 c-4 -6 -5 -12 -2 -15 2 -3 7 2 10 11 7 17 1 20 -8 4z"/>
<path d="M944 2247 c3 -10 6 -22 6 -25 0 -4 11 -7 24 -7 13 0 22 3 19 8 -2 4
-10 7 -18 7 -8 0 -19 8 -25 18 -11 16 -11 16 -6 -1z"/>
<path d="M805 2206 c2 -12 4 -26 4 -31 1 -6 12 -11 25 -11 14 0 22 4 20 8 -3
5 -9 6 -14 3 -4 -3 -11 2 -14 11 -4 10 -2 13 7 8 9 -6 9 -5 0 8 -7 8 -11 17
-8 20 3 2 -2 5 -10 5 -9 0 -13 -8 -10 -21z"/>
<path d="M925 2211 c-3 -5 -1 -12 4 -15 5 -4 8 -17 6 -31 -1 -14 4 -30 11 -36
8 -6 14 -8 14 -3 0 5 7 1 14 -9 12 -16 14 -14 13 17 -1 19 -6 34 -12 33 -5 -1
-9 5 -7 13 2 8 0 12 -4 8 -9 -10 -35 12 -28 23 3 5 3 9 0 9 -3 0 -7 -4 -11 -9z
m55 -75 c0 -6 -5 -4 -10 4 -8 12 -10 12 -10 1 0 -21 -13 -4 -15 19 -2 19 -1
19 17 3 10 -9 18 -21 18 -27z"/>
<path d="M573 2150 c-1 -11 2 -22 8 -25 5 -4 8 3 6 14 -4 28 -12 34 -14 11z"/>
<path d="M625 2161 c11 -5 23 -7 28 -4 4 2 7 -2 8 -9 1 -7 2 -22 3 -33 0 -11
-3 -23 -9 -27 -6 -4 -2 -8 8 -8 9 0 17 4 17 9 0 6 9 8 19 6 11 -2 27 6 38 18
17 21 17 21 -1 7 -32 -25 -44 -21 -41 14 3 30 2 31 -43 33 -33 1 -41 -1 -27
-6z m58 -43 c-10 -21 -10 -21 -9 9 1 19 5 28 10 23 6 -6 5 -18 -1 -32z"/>
<path d="M710 2135 c0 -8 2 -15 4 -15 2 0 6 7 10 15 3 8 1 15 -4 15 -6 0 -10
-7 -10 -15z"/>
<path d="M479 2103 c-13 -16 -12 -17 4 -4 9 7 17 15 17 17 0 8 -8 3 -21 -13z"/>
<path d="M451 2094 c0 -11 3 -14 6 -6 3 7 2 16 -1 19 -3 4 -6 -2 -5 -13z"/>
<path d="M565 2099 c-12 -18 3 -22 20 -5 14 14 14 16 1 16 -8 0 -18 -5 -21
-11z"/>
<path d="M515 2064 c-6 -8 -18 -16 -27 -18 -26 -3 -30 -12 -13 -26 9 -7 15 -9
14 -4 -4 21 2 28 11 14 8 -13 10 -13 10 2 0 12 5 16 18 12 14 -5 15 -4 2 5
-13 9 -12 11 3 11 10 0 15 5 12 10 -9 14 -19 12 -30 -6z"/>
<path d="M622 2068 c-7 -7 -12 -17 -12 -22 0 -6 5 -3 11 7 8 13 14 15 29 7 13
-7 21 -7 26 2 4 7 4 10 -1 6 -4 -4 -15 -3 -25 2 -11 6 -21 5 -28 -2z"/>
<path d="M641 2034 c0 -11 3 -14 6 -6 3 7 2 16 -1 19 -3 4 -6 -2 -5 -13z"/>
<path d="M415 1960 c-19 -8 -19 -9 3 -9 12 -1 22 4 22 9 0 6 -1 10 -2 9 -2 0
-12 -4 -23 -9z"/>
<path d="M1255 1951 c-12 -12 -3 -23 15 -18 11 3 27 -1 34 -9 8 -8 24 -14 36
-14 17 0 20 4 15 20 -4 13 -2 20 6 20 7 0 10 2 7 5 -3 3 -17 1 -31 -4 -15 -6
-29 -6 -32 -1 -5 9 -42 10 -50 1z m89 -19 c3 -5 -1 -9 -9 -9 -8 0 -12 4 -9 9
3 4 7 8 9 8 2 0 6 -4 9 -8z"/>
<path d="M313 1943 c9 -2 25 -2 35 0 9 3 1 5 -18 5 -19 0 -27 -2 -17 -5z"/>
<path d="M1010 1930 c-9 -6 -10 -10 -3 -10 6 0 15 5 18 10 8 12 4 12 -15 0z"/>
<path d="M1370 1925 c0 -16 16 -20 24 -6 3 5 -1 11 -9 15 -9 3 -15 0 -15 -9z"/>
<path d="M711 1923 c-1 -7 -11 -13 -24 -13 -18 0 -23 -5 -22 -22 1 -13 -4 -32
-12 -44 -7 -11 -10 -24 -6 -27 10 -11 45 -8 38 2 -3 5 -1 12 5 16 5 3 10 11
10 17 0 6 -10 3 -22 -8 l-23 -19 22 26 c18 20 20 28 10 38 -6 7 -7 12 -2 11 6
-2 13 -1 18 0 4 1 12 3 19 4 6 0 13 8 15 16 4 12 3 12 -5 1 -8 -11 -10 -11
-15 0 -4 10 -6 10 -6 2z"/>
<path d="M1468 1923 c7 -3 16 -2 19 1 4 3 -2 6 -13 5 -11 0 -14 -3 -6 -6z"/>
<path d="M1558 1913 c7 -3 16 -2 19 1 4 3 -2 6 -13 5 -11 0 -14 -3 -6 -6z"/>
<path d="M990 1901 c0 -14 23 -27 49 -29 29 -1 19 10 -12 14 -12 1 -24 3 -27
3 -3 1 2 6 10 11 13 8 12 10 -2 10 -10 0 -18 -4 -18 -9z"/>
<path d="M1658 1893 c6 -2 18 -2 25 0 6 3 1 5 -13 5 -14 0 -19 -2 -12 -5z"/>
<path d="M556 1861 c-4 -5 -2 -12 3 -15 5 -4 12 -2 15 3 4 5 2 12 -3 15 -5 4
-12 2 -15 -3z"/>
<path d="M631 1849 c-7 -12 -10 -23 -8 -26 3 -3 11 5 17 17 15 28 8 35 -9 9z"/>
<path d="M705 1863 c3 -7 3 -19 -2 -25 -4 -7 -9 -21 -10 -31 -2 -14 2 -18 19
-15 18 2 22 8 20 27 -2 15 0 21 7 17 6 -4 11 -2 11 4 0 7 -6 10 -12 7 -7 -2
-19 3 -26 12 -8 9 -11 10 -7 4z m7 -55 c-8 -8 -9 -4 -5 13 4 13 8 18 11 10 2
-7 -1 -18 -6 -23z"/>
<path d="M533 1848 c4 -11 1 -18 -6 -18 -8 0 -6 -4 3 -10 9 -6 10 -10 3 -10
-7 0 -16 7 -21 16 -8 14 -10 14 -15 1 -3 -9 1 -21 10 -29 18 -15 22 -15 35 4
8 10 9 10 5 -2 -2 -8 -9 -15 -14 -15 -6 0 -15 -3 -19 -7 -4 -5 0 -8 8 -8 9 0
18 -9 21 -20 5 -21 26 -23 39 -5 5 6 8 5 8 -2 0 -19 27 -16 34 3 5 14 4 15 -8
5 -24 -20 -42 20 -22 49 6 8 1 6 -12 -4 -22 -19 -30 -32 -14 -22 5 3 9 -1 9
-8 0 -7 -6 -13 -13 -13 -14 0 -10 32 6 52 8 10 8 15 -1 21 -8 5 -9 3 -4 -6 5
-8 3 -11 -5 -8 -7 2 -14 12 -16 22 -1 10 -6 21 -10 24 -4 4 -4 -1 -1 -10z"/>
<path d="M783 1843 c4 -32 12 -36 28 -16 8 9 9 14 2 10 -7 -4 -16 0 -22 10
-10 16 -10 16 -8 -4z"/>
<path d="M1645 1819 c-3 -4 2 -6 10 -5 21 3 28 13 10 13 -9 0 -18 -4 -20 -8z"/>
<path d="M1714 1822 c-7 -4 -10 -22 -8 -39 2 -18 0 -33 -4 -34 -4 0 -15 -2
-24 -4 -10 -2 -18 -1 -18 2 0 3 8 12 18 19 16 13 16 14 -3 7 l-20 -6 20 24
c11 13 13 18 4 11 -9 -6 -18 -11 -20 -9 -2 1 -3 0 -2 -2 1 -2 -2 -11 -6 -20
-6 -10 -4 -23 4 -34 13 -18 15 -18 39 -2 14 10 26 22 27 29 0 6 3 23 5 39 5
29 5 30 -12 19z"/>
<path d="M743 1801 c-1 -14 4 -17 18 -14 11 3 18 6 17 7 -2 1 -10 7 -18 13
-13 10 -16 8 -17 -6z"/>
<path d="M427 1791 c-39 -26 -39 -26 -24 -62 7 -19 12 -40 10 -46 -3 -7 0 -13
7 -13 6 0 9 11 6 28 -2 15 -5 27 -6 27 -1 0 -3 8 -5 19 -3 14 -1 16 8 7 17
-17 26 -13 22 11 -3 12 0 27 6 35 14 17 10 16 -24 -6z"/>
<path d="M2123 1802 c-35 -2 -63 -7 -63 -11 0 -12 37 -21 82 -21 20 0 39 -4
42 -9 5 -7 46 -18 81 -22 30 -4 119 -40 118 -48 -2 -6 3 -8 10 -5 8 3 24 -4
38 -14 22 -18 24 -18 37 -3 9 10 11 11 6 1 -4 -8 -7 -28 -6 -44 3 -30 -21 -66
-43 -66 -7 0 -18 -7 -25 -15 -7 -8 -16 -12 -21 -9 -5 3 -9 0 -9 -5 0 -6 -8
-11 -18 -11 -9 0 -42 -9 -72 -20 -30 -11 -66 -22 -80 -25 -14 -2 -59 -9 -100
-16 -41 -6 -78 -17 -82 -23 -5 -7 -8 -7 -8 3 0 9 -4 10 -12 4 -13 -11 -109
-21 -253 -29 -66 -4 -77 -2 -62 8 28 21 6 33 -48 27 -41 -5 -34 -13 11 -12 6
0 11 -5 11 -11 0 -7 -14 -11 -31 -11 -17 0 -38 -5 -46 -12 -8 -6 -47 -13 -87
-15 -42 -2 -79 -10 -90 -18 -16 -13 -17 -13 -6 1 10 13 10 16 -2 16 -8 0 -15
-4 -15 -9 0 -5 -4 -6 -10 -3 -5 3 -15 -3 -21 -13 -7 -12 -19 -17 -31 -14 -10
2 -18 0 -19 -4 0 -5 -2 -17 -4 -26 -3 -15 0 -16 17 -7 10 6 32 11 49 11 16 1
29 6 29 13 0 8 26 11 88 9 86 -2 87 -2 42 11 -41 12 -33 13 88 8 122 -6 132
-5 126 11 -6 15 5 16 132 12 128 -4 135 -3 89 9 l-50 13 99 0 c54 0 101 5 105
10 3 6 23 10 45 10 21 0 43 5 49 11 6 6 28 11 48 11 21 0 39 5 41 12 3 8 20
12 44 11 27 -2 33 0 20 5 -17 7 -17 9 -4 15 9 3 26 3 37 0 15 -4 21 -1 19 8
-2 10 6 13 24 12 17 -1 27 3 25 10 -1 7 4 11 12 9 9 -2 11 3 7 14 -5 12 -2 15
10 10 12 -4 15 -2 10 9 -3 9 0 15 9 15 11 0 15 12 15 46 0 25 -4 43 -9 39 -5
-3 -16 3 -23 13 -7 11 -17 21 -23 23 -5 2 -9 7 -8 11 2 5 -2 8 -7 8 -5 0 -10
-6 -10 -12 0 -9 -3 -10 -8 -2 -4 6 -16 10 -27 8 -20 -3 -20 -3 -1 12 19 13 18
14 -15 15 -19 1 -37 1 -41 0 -5 0 -8 4 -8 9 0 5 -17 10 -39 10 -37 0 -68 19
-54 33 3 4 1 7 -5 7 -7 0 -12 -4 -12 -10 0 -5 -5 -10 -11 -10 -5 0 -8 4 -5 9
8 12 -20 16 -91 13z m-493 -414 c0 -4 -9 -8 -20 -8 -11 0 -20 4 -20 8 0 4 9 8
20 8 11 0 20 -4 20 -8z m78 3 c6 -1 12 -5 12 -10 0 -5 -8 -8 -17 -6 -10 2 -24
4 -30 4 -7 1 -13 5 -13 10 0 5 8 8 18 6 9 -2 23 -4 30 -4z"/>
<path d="M1863 1778 c2 -7 11 -12 21 -10 9 2 16 -4 16 -13 0 -12 7 -14 31 -10
18 3 28 2 25 -4 -4 -5 -2 -13 4 -16 6 -4 9 -1 8 7 -2 7 3 11 12 9 8 -2 25 -4
38 -4 12 -1 22 -6 22 -12 0 -7 16 -11 40 -10 22 1 40 -2 40 -7 0 -5 4 -7 9 -3
5 3 12 1 16 -5 9 -14 45 -13 45 2 0 6 -3 8 -6 5 -4 -3 -16 -1 -28 5 -11 7 -24
13 -28 14 -5 1 -9 2 -10 4 -2 1 -16 3 -33 5 -16 2 -41 6 -55 10 -14 4 -44 8
-67 10 -24 1 -48 7 -55 12 -23 18 -50 24 -45 11z"/>
<path d="M2265 1780 c3 -5 14 -10 23 -10 15 0 15 2 2 10 -20 13 -33 13 -25 0z"/>
<path d="M1850 1752 c0 -15 28 -23 36 -9 4 7 4 9 -1 5 -4 -4 -14 -3 -22 3 -8
7 -13 8 -13 1z"/>
<path d="M427 1729 c7 -7 15 -10 18 -7 3 3 -2 9 -12 12 -14 6 -15 5 -6 -5z"/>
<path d="M1980 1719 c0 -5 11 -9 25 -9 14 0 25 2 25 4 0 2 -11 6 -25 8 -14 3
-25 1 -25 -3z"/>
<path d="M450 1711 c-20 -8 -19 -57 1 -52 8 2 19 4 25 4 11 0 7 44 -5 51 -3 2
-13 1 -21 -3z m12 -33 c-7 -7 -10 -5 -7 8 5 29 6 30 12 16 3 -8 1 -18 -5 -24z"/>
<path d="M501 1707 c-8 -10 -7 -14 2 -14 8 0 14 6 14 14 0 7 -1 13 -2 13 -2 0
-8 -6 -14 -13z"/>
<path d="M1819 1693 c-11 -15 -11 -16 1 -6 11 10 16 9 27 -5 13 -15 13 -15 3
6 -13 27 -14 27 -31 5z"/>
<path d="M2295 1697 c-16 -7 -40 -12 -52 -11 -28 2 -60 -30 -42 -42 7 -4 10
-3 5 4 -3 6 -2 13 3 16 5 4 13 2 16 -4 4 -7 11 -7 18 -2 7 5 24 9 40 8 15 -1
27 2 27 6 0 4 5 8 11 8 5 0 8 -4 5 -8 -3 -5 1 -9 8 -9 8 0 12 6 9 14 -3 7 -9
13 -15 13 -5 0 -6 5 -3 10 8 12 7 12 -30 -3z"/>
<path d="M803 1685 c0 -8 4 -12 9 -9 5 3 6 10 3 15 -9 13 -12 11 -12 -6z"/>
<path d="M1545 1690 c-11 -5 -15 -9 -10 -10 6 0 1 -7 -9 -15 -11 -8 -14 -15
-7 -15 7 0 10 -3 8 -7 -3 -5 -1 -17 4 -28 7 -18 8 -17 10 8 3 47 5 52 17 50 7
-2 12 4 12 12 0 8 -1 15 -2 14 -2 0 -12 -4 -23 -9z"/>
<path d="M343 1674 c0 -17 25 -26 33 -12 5 7 2 8 -6 3 -9 -6 -12 -4 -8 7 4 8
1 15 -6 15 -7 0 -13 -6 -13 -13z"/>
<path d="M1581 1675 c0 -5 3 -16 8 -23 7 -11 9 -10 14 3 4 9 3 14 -2 10 -5 -3
-12 1 -14 7 -3 7 -6 9 -6 3z"/>
<path d="M2050 1676 c0 -2 9 -6 20 -9 11 -3 18 -1 14 4 -5 9 -34 13 -34 5z"/>
<path d="M1485 1660 c3 -5 8 -10 11 -10 2 0 4 5 4 10 0 6 -5 10 -11 10 -5 0
-7 -4 -4 -10z"/>
<path d="M1265 1650 c-3 -5 -2 -10 2 -12 14 -7 36 -3 40 7 4 13 -34 17 -42 5z"/>
<path d="M1620 1652 c0 -7 0 -15 0 -19 0 -5 5 -8 10 -8 6 0 10 -4 9 -9 -1 -9
20 -26 34 -26 4 0 8 8 8 18 1 9 4 4 8 -13 3 -17 13 -30 21 -30 10 0 15 -12 16
-37 1 -21 -2 -35 -7 -32 -5 3 -9 3 -9 0 0 -3 10 -10 21 -17 17 -8 20 -8 14 1
-4 7 -8 34 -8 61 0 33 -5 53 -16 61 -13 10 -14 10 -3 -2 17 -19 15 -35 -2 -21
-8 7 -17 24 -21 39 l-7 27 -13 -25 c-8 -14 -14 -20 -15 -14 0 15 -40 60 -40
46z"/>
<path d="M2537 1653 c-3 -5 -1 -17 4 -28 6 -17 7 -16 6 8 -1 28 -3 32 -10 20z"/>
<path d="M1237 1636 c-3 -8 -3 -17 1 -21 4 -4 7 -16 7 -28 0 -12 6 -23 13 -23
6 -1 17 -2 23 -3 5 0 8 -5 5 -10 -3 -5 4 -11 15 -14 12 -3 18 -10 14 -16 -3
-6 -1 -11 5 -11 7 0 10 6 7 13 -2 6 0 22 4 34 5 13 4 25 -2 28 -5 4 -9 3 -8
-2 4 -22 -2 -44 -10 -38 -6 3 -8 14 -6 25 2 11 -1 22 -6 25 -5 4 -7 10 -4 15
3 5 1 11 -4 14 -5 4 -13 1 -17 -5 -5 -8 -3 -9 7 -4 12 8 12 6 0 -8 -12 -16 -8
-22 12 -18 5 1 6 -3 2 -8 -11 -19 -35 0 -31 24 5 28 -18 54 -27 31z"/>
<path d="M1379 1633 c-13 -16 -12 -17 4 -4 9 7 17 15 17 17 0 8 -8 3 -21 -13z"/>
<path d="M355 1620 c21 -24 26 -25 19 -6 -3 8 -13 17 -22 21 -13 5 -13 2 3
-15z"/>
<path d="M388 1633 c6 -3 10 -9 6 -14 -8 -14 2 -11 14 4 8 10 6 13 -11 14 -12
0 -16 -1 -9 -4z"/>
<path d="M1104 1629 c-2 -4 12 -7 31 -7 19 0 37 3 39 7 2 3 -12 6 -31 6 -19 1
-36 -2 -39 -6z"/>
<path d="M1405 1630 c-6 -10 -5 -11 14 -14 5 0 12 -4 16 -8 4 -4 14 -4 22 -1
9 4 22 -2 29 -12 13 -18 15 -16 18 16 1 7 -15 13 -36 14 -20 2 -41 6 -47 9 -5
4 -12 2 -16 -4z"/>
<path d="M1559 1628 c-9 -30 -6 -56 8 -77 21 -30 25 -59 10 -68 -6 -3 -7 -1
-3 5 3 6 2 13 -3 16 -5 3 -11 -1 -15 -9 -3 -8 -1 -16 4 -16 37 -5 60 -3 59 6
-1 6 -5 9 -9 8 -5 -1 -6 11 -3 28 2 17 1 29 -4 26 -5 -3 -8 7 -7 24 1 16 -2
27 -6 24 -10 -6 -32 20 -23 28 3 4 3 7 0 7 -4 0 -7 -1 -8 -2z m21 -70 c-8 -7
-12 -9 -8 -4 4 5 2 18 -4 30 -10 20 -10 20 8 4 16 -15 16 -20 4 -30z"/>
<path d="M2434 1609 c0 -10 4 -19 8 -19 4 0 8 6 8 14 0 8 -4 17 -8 20 -4 2 -8
-4 -8 -15z"/>
<path d="M1320 1610 c-9 -6 -10 -10 -3 -10 6 0 15 5 18 10 8 12 4 12 -15 0z"/>
<path d="M1093 1590 c-7 -10 -8 -22 -2 -31 7 -11 9 -11 9 -1 0 7 5 10 10 7 6
-3 10 3 10 15 0 14 4 19 13 14 6 -4 8 -3 4 1 -13 15 -33 13 -44 -5z"/>
<path d="M1172 1598 c2 -6 10 -13 16 -14 7 -1 8 0 2 3 -5 2 -8 9 -4 14 3 5 0
9 -6 9 -7 0 -10 -5 -8 -12z"/>
<path d="M1453 1592 c-10 -6 -11 -28 -3 -52 1 -3 2 -20 2 -37 0 -18 5 -33 10
-33 6 0 8 9 5 20 -3 11 -1 23 4 26 5 3 9 2 8 -3 -3 -19 1 -46 7 -40 11 11 11
96 0 94 -5 -1 -10 3 -11 10 0 17 -9 23 -22 15z m14 -8 c-3 -4 0 -16 8 -28 19
-26 19 -33 1 -33 -8 0 -12 6 -9 14 3 7 1 13 -5 13 -6 0 -9 8 -7 18 5 23 4 22
12 22 3 0 3 -3 0 -6z"/>
<path d="M1034 1572 c4 -3 14 -7 22 -8 9 -1 13 0 10 4 -4 3 -14 7 -22 8 -9 1
-13 0 -10 -4z"/>
<path d="M2533 1565 c-7 -8 -13 -19 -13 -25 0 -5 -4 -10 -10 -10 -5 0 -10 -9
-10 -20 0 -16 -7 -20 -37 -20 -20 0 -33 -3 -30 -7 11 -10 -26 -32 -54 -33 -15
0 -29 -6 -32 -13 -3 -9 -25 -15 -63 -16 -32 -1 -63 -6 -68 -11 -6 -6 -29 -10
-52 -10 -24 0 -46 -4 -49 -10 -3 -5 -17 -10 -31 -10 -13 0 -24 -4 -24 -10 0
-6 -38 -10 -94 -10 -52 0 -97 -4 -100 -8 -3 -5 -65 -10 -138 -11 -73 -1 -137
-6 -143 -12 -5 -5 -22 -9 -37 -9 -15 0 -28 -4 -28 -10 0 -5 -16 -10 -36 -10
-21 0 -33 4 -29 10 4 6 -5 10 -19 10 -15 0 -26 -6 -26 -14 0 -15 51 -29 75
-20 8 4 21 1 28 -4 7 -6 32 -14 55 -18 23 -4 45 -11 48 -15 3 -5 14 -9 25 -9
10 0 19 -4 19 -10 0 -5 9 -10 20 -10 11 0 20 -4 20 -10 0 -5 7 -10 16 -10 18
0 44 -23 44 -39 0 -6 5 -10 10 -9 6 2 18 -10 28 -27 9 -16 20 -31 25 -33 4 -2
7 -17 7 -32 0 -23 -9 -35 -44 -60 -25 -16 -56 -30 -69 -30 -14 0 -27 -4 -29
-9 -3 -10 -51 -17 -188 -28 -49 -3 -90 -12 -98 -20 -11 -11 -74 -19 -105 -14
-4 1 -16 -3 -26 -8 -9 -6 -43 -11 -75 -12 -35 -2 -55 -6 -53 -13 3 -6 10 -10
16 -8 6 1 14 -5 17 -13 5 -12 25 -15 95 -15 92 0 106 -5 148 -54 9 -10 22 -24
29 -31 14 -16 16 -75 2 -75 -5 0 -10 -8 -10 -18 0 -23 -50 -72 -74 -72 -9 0
-14 -5 -11 -10 6 -9 -40 -15 -92 -10 -13 1 -23 -3 -23 -8 0 -9 -49 -34 -67
-34 -11 -1 -39 -41 -35 -51 1 -5 -7 -11 -18 -14 -11 -3 -20 -9 -20 -14 0 -5
-6 -9 -13 -9 -7 0 -21 -11 -31 -25 -12 -16 -29 -25 -47 -25 -16 0 -29 -4 -29
-10 0 -6 -27 -10 -61 -10 -54 0 -60 -2 -49 -15 7 -8 18 -15 25 -15 14 0 25
-22 25 -49 0 -10 -14 -30 -32 -46 -25 -23 -40 -28 -75 -26 -23 0 -43 -3 -43
-9 0 -5 -18 -10 -40 -10 -22 0 -40 4 -40 9 0 6 -19 9 -42 9 -23 0 -44 5 -46
11 -2 6 -17 11 -33 11 -16 0 -29 5 -29 10 0 6 -11 10 -25 10 -14 0 -25 5 -25
11 0 5 -5 7 -10 4 -6 -4 -10 -3 -9 2 4 22 -3 33 -19 33 -10 0 -24 9 -32 20 -8
11 -18 20 -23 20 -9 0 -57 46 -57 55 0 3 -10 17 -23 29 -12 13 -32 37 -44 52
-12 16 -31 39 -42 51 -12 12 -21 34 -21 48 0 14 -4 25 -10 25 -5 0 -10 11 -10
25 0 14 -5 25 -11 25 -7 0 -9 10 -7 24 3 16 1 23 -7 20 -9 -4 -34 31 -40 56
-8 32 -19 50 -33 50 -12 0 -13 3 -4 12 7 7 12 21 12 33 1 11 7 31 15 45 14 24
14 23 15 -28 0 -29 4 -60 9 -70 5 -9 26 -52 47 -94 21 -42 41 -75 44 -73 3 2
7 -6 7 -17 1 -12 8 -25 15 -29 11 -7 10 -9 -1 -9 -7 0 1 -13 18 -29 17 -16 31
-36 31 -45 0 -9 5 -16 10 -16 6 0 10 -5 10 -11 0 -6 14 -22 30 -36 17 -13 27
-29 24 -34 -3 -5 -2 -9 3 -8 21 4 33 -2 33 -16 0 -8 6 -15 14 -15 8 0 17 -8
20 -17 7 -21 54 -45 69 -36 6 4 8 0 4 -10 -5 -13 -1 -17 18 -17 14 0 25 -4 25
-10 0 -5 11 -10 24 -10 13 0 26 -4 28 -10 2 -5 57 -10 126 -11 116 -1 124 0
142 22 11 12 20 26 20 31 0 8 -35 25 -53 26 -5 0 -15 8 -21 18 -8 10 -20 15
-30 11 -10 -4 -16 -1 -16 8 0 8 -13 15 -32 17 -23 2 -32 7 -30 18 2 8 1 12 -3
8 -4 -4 -28 7 -55 23 -26 16 -53 29 -61 29 -8 -1 0 -8 16 -16 17 -8 22 -12 12
-9 -10 3 -25 5 -33 5 -8 0 -14 6 -14 14 0 7 -7 19 -15 26 -12 10 -18 10 -30 0
-13 -11 -14 -10 -9 4 5 12 2 15 -12 9 -12 -4 -15 -3 -10 5 4 7 2 12 -3 12 -6
0 -11 -4 -11 -9 0 -5 -18 0 -40 12 -22 12 -40 27 -40 34 0 6 -5 15 -12 19 -7
5 -9 2 -4 -7 4 -8 0 -5 -8 5 -9 11 -23 21 -32 22 -9 2 -22 8 -28 14 -8 8 -6 9
7 4 12 -4 8 4 -12 27 -17 18 -31 37 -31 41 0 5 -7 8 -16 8 -9 0 -14 6 -11 14
4 9 -2 12 -18 10 -13 -1 -26 4 -29 13 -3 8 -10 12 -15 9 -5 -3 -7 3 -4 13 6
24 -34 84 -50 75 -7 -3 -4 1 7 10 10 8 15 20 11 27 -13 19 -24 79 -14 73 5 -3
9 -16 9 -30 0 -14 7 -27 16 -31 8 -3 13 -12 10 -19 -3 -7 -1 -16 5 -19 5 -4 9
-3 8 2 -7 39 45 -13 63 -63 7 -19 18 -35 25 -35 7 -1 21 -2 31 -3 9 -1 35 -14
57 -29 33 -23 41 -25 43 -12 3 13 7 14 18 4 12 -10 12 -14 2 -20 -8 -5 -4 -11
15 -20 14 -6 24 -16 20 -22 -3 -6 -1 -7 6 -3 13 9 53 -2 47 -13 -3 -4 3 -7 12
-8 9 -1 31 -4 49 -8 26 -5 32 -2 38 15 3 11 10 20 14 20 19 0 101 -33 101 -41
0 -4 -7 -6 -15 -3 -8 4 -21 2 -28 -3 -6 -5 -24 -9 -39 -8 -15 0 -25 -2 -23 -5
2 -3 37 -5 78 -4 40 1 98 -3 128 -8 30 -5 69 -9 86 -9 43 -1 116 -23 120 -36
5 -15 -54 -56 -68 -47 -8 4 -9 3 -5 -4 5 -8 -5 -12 -31 -14 -57 -2 -59 -2 -76
-17 -13 -10 -27 -11 -67 -2 -63 14 -90 14 -90 1 0 -6 3 -9 8 -9 4 1 16 1 27 0
16 -1 17 -3 6 -10 -9 -6 26 -9 92 -10 62 -1 108 3 112 9 3 5 17 10 30 10 17 0
23 4 19 14 -4 11 0 13 14 9 11 -2 23 0 26 6 4 6 17 12 29 12 17 1 18 2 4 6 -9
2 -15 8 -12 13 3 4 13 6 23 3 13 -3 18 2 20 21 1 17 -3 26 -13 26 -8 0 -15 6
-15 13 0 8 -6 14 -12 14 -7 0 -21 4 -31 8 -10 4 -17 3 -17 -4 0 -6 -9 -11 -21
-11 -11 0 -17 5 -14 10 3 6 -5 10 -19 10 -13 0 -27 6 -29 13 -4 10 -6 10 -6 0
-1 -7 -6 -13 -12 -13 -6 0 -9 6 -6 13 3 9 -8 12 -40 11 -26 -1 -46 3 -49 10
-6 16 -45 18 -63 3 -12 -10 -13 -9 -2 11 6 12 7 22 2 22 -5 0 -12 -6 -14 -12
-4 -10 -6 -10 -6 0 -1 6 -10 12 -21 12 -11 0 -23 7 -26 15 -4 8 -11 12 -17 8
-14 -9 -77 -10 -77 0 0 4 9 7 21 7 11 0 18 4 15 8 -3 5 -19 7 -35 6 -23 -1
-31 2 -31 14 0 13 -3 12 -15 -4 -13 -18 -14 -18 -9 6 5 20 3 22 -5 10 -9 -13
-11 -12 -11 4 0 20 0 20 -15 0 -12 -15 -14 -16 -9 -2 5 14 1 17 -25 13 -18 -2
-29 0 -25 6 3 5 9 7 14 4 5 -3 12 0 16 6 4 8 3 9 -4 5 -7 -4 -12 -1 -12 8 0
11 -9 16 -30 16 -16 0 -30 4 -30 10 0 5 -9 14 -20 20 -16 9 -18 8 -14 -5 4 -8
9 -15 13 -15 4 0 8 -6 8 -14 0 -8 -6 -12 -13 -9 -8 3 -13 8 -12 11 4 15 -14
52 -22 47 -5 -3 -12 -1 -15 5 -5 8 -12 7 -23 -2 -9 -8 -13 -8 -9 -1 10 16 -2
43 -19 43 -7 0 -18 8 -23 18 -6 9 -11 12 -11 5 0 -13 -25 -12 -37 2 -4 4 -2 5
5 1 18 -11 15 -1 -14 41 -24 35 -25 36 -20 10 3 -16 1 -25 -5 -22 -5 4 -7 10
-4 15 3 5 -6 19 -19 32 -15 13 -26 36 -28 55 -1 17 -6 29 -10 27 -8 -5 -11 9
-11 48 0 9 -9 19 -20 22 -18 4 -19 1 -13 -52 4 -31 7 -72 7 -89 -1 -39 6 -42
19 -10 7 16 8 10 5 -26 -6 -61 -24 -98 -25 -49 0 17 -4 32 -10 32 -5 0 -10 14
-10 31 0 17 -4 28 -10 24 -6 -4 -11 8 -11 29 -3 67 -4 75 -17 87 -6 7 -13 27
-13 44 -1 20 -3 24 -6 11 -7 -26 19 -196 29 -196 4 0 8 -11 8 -25 0 -14 5 -25
10 -25 6 0 10 -25 10 -55 0 -41 4 -55 14 -55 8 0 18 -10 21 -23 10 -33 39 -87
47 -87 5 0 8 -9 8 -20 0 -11 5 -20 10 -20 6 0 10 -11 10 -25 0 -14 5 -25 10
-25 6 0 10 -11 10 -25 0 -22 20 -52 70 -103 8 -9 17 -41 20 -71 l5 -56 49 -3
c34 -2 55 -9 67 -23 9 -10 24 -19 33 -19 9 0 16 -8 16 -19 0 -20 18 -31 51
-31 10 0 19 -4 19 -10 0 -5 14 -10 30 -10 17 0 30 -4 30 -9 0 -4 26 -13 57
-20 64 -13 153 -15 153 -3 0 4 20 7 45 7 27 0 49 5 54 13 5 9 10 1 14 -26 4
-23 18 -50 33 -66 23 -22 35 -26 88 -26 55 0 179 20 220 36 9 3 16 12 16 20 0
8 7 14 15 14 8 0 15 4 15 9 0 5 12 11 28 13 24 3 27 7 30 46 3 41 2 42 -27 42
-23 0 -31 5 -31 17 0 10 -11 27 -24 38 -13 12 -26 34 -28 50 -3 27 -7 30 -45
33 l-43 3 0 -35 0 -36 -75 0 c-70 0 -77 -2 -104 -30 l-29 -31 -4 36 c-4 34 -3
35 29 35 18 0 33 5 33 10 0 6 13 10 29 10 18 0 35 9 47 25 10 14 24 25 31 25
7 0 13 5 13 10 0 6 7 10 15 10 9 0 20 11 25 25 12 32 94 73 164 81 31 4 56 11
56 15 0 5 6 9 13 9 19 0 67 53 67 73 0 9 5 17 10 17 6 0 10 22 10 50 0 50 -11
72 -54 109 -10 9 -24 22 -31 29 -9 7 -47 12 -107 13 -100 2 -100 2 72 27 35 5
66 14 68 21 2 6 24 11 50 11 72 0 227 21 230 31 2 5 15 9 29 9 13 0 44 14 69
30 42 30 44 33 44 80 0 28 -4 50 -10 50 -5 0 -10 6 -10 14 0 19 -75 96 -94 96
-9 0 -16 5 -16 10 0 6 -9 10 -20 10 -11 0 -20 5 -20 10 0 6 -8 10 -18 10 -10
0 -22 3 -26 8 -4 4 -29 12 -54 18 -42 10 -44 12 -15 13 17 0 35 6 38 11 4 6
62 10 140 10 78 0 136 4 140 10 3 6 48 10 101 10 56 0 94 4 94 10 0 6 11 10
24 10 14 0 28 5 31 10 3 6 26 10 50 10 24 0 47 5 50 10 3 6 33 10 66 10 44 0
61 4 65 15 4 8 18 15 33 15 15 0 37 9 49 20 12 11 33 20 47 20 18 0 25 5 25
20 0 11 5 20 10 20 6 0 10 7 10 15 0 8 5 15 10 15 6 0 10 9 10 20 0 23 -10 25
-27 5z m-2238 -737 c4 -3 2 -9 -3 -12 -5 -3 -15 1 -21 8 -10 11 -9 14 3 12 9
-1 18 -5 21 -8z m49 -66 c4 -8 23 -20 41 -28 19 -8 32 -20 31 -28 -3 -20 -16
-33 -16 -16 0 7 -3 11 -6 8 -3 -4 -22 5 -42 18 -27 19 -37 22 -44 12 -6 -10
-8 -10 -8 0 0 7 -5 10 -12 6 -6 -4 -8 -3 -5 3 4 6 0 19 -8 29 -27 35 -18 45
23 26 20 -9 41 -23 46 -30z m-164 -12 c0 -5 -2 -10 -4 -10 -3 0 -8 5 -11 10
-3 6 -1 10 4 10 6 0 11 -4 11 -10z m270 -16 c-15 -17 -17 -17 -23 -1 -3 8 3
14 15 14 16 2 17 -1 8 -13z m47 -54 c37 -17 73 -28 80 -26 7 3 12 2 12 -2 -4
-26 2 -32 21 -22 18 9 19 8 11 -12 -8 -22 -25 -25 -61 -11 -8 3 -19 7 -25 8
-30 7 -87 36 -81 42 3 4 -4 17 -16 30 -28 30 -21 29 59 -7z m-232 -18 c11 -10
28 -27 38 -39 17 -20 17 -21 0 -27 -9 -4 -14 -4 -10 0 4 4 -9 25 -30 46 -37
38 -36 53 2 20z m535 -72 c0 -5 -4 -10 -10 -10 -5 0 -10 5 -10 10 0 6 5 10 10
10 6 0 10 -4 10 -10z m-400 -76 c0 -9 -37 15 -51 33 -10 12 -5 11 19 -6 17
-12 32 -24 32 -27z m-66 14 c9 -12 16 -19 16 -15 0 4 13 1 29 -7 16 -9 31 -13
34 -10 10 10 48 -17 41 -28 -5 -7 0 -9 14 -6 19 5 20 4 10 -15 -11 -22 -11
-22 11 -3 21 19 30 10 11 -12 -7 -9 -7 -9 2 -2 15 13 38 13 38 1 0 -5 -6 -12
-12 -14 -7 -2 0 -3 16 -1 22 3 26 1 18 -9 -8 -9 -8 -17 0 -27 8 -12 9 -12 4 2
-4 13 2 20 20 24 14 4 28 4 31 0 4 -3 -1 -6 -10 -6 -9 0 -18 -4 -21 -8 -3 -5
15 -6 39 -2 34 5 45 4 45 -7 0 -7 7 -13 16 -13 8 0 13 -4 10 -8 -3 -5 -20 -7
-38 -6 l-33 3 30 -7 c17 -4 44 -7 62 -7 18 0 29 -4 26 -9 -4 -5 1 -7 12 -2 15
5 16 4 5 -9 -11 -13 -8 -15 16 -15 22 0 26 3 14 10 -8 5 -10 10 -5 10 18 0 45
-39 39 -55 -5 -11 -23 -15 -78 -15 -40 0 -76 4 -82 10 -5 5 -28 10 -51 12 -22
2 -39 6 -37 10 2 4 -5 9 -16 13 -11 3 -20 11 -20 16 0 5 -7 9 -15 9 -8 0 -15
5 -15 12 0 6 -3 8 -6 5 -8 -7 -44 31 -44 45 0 5 -5 6 -12 2 -7 -4 -8 -3 -4 4
4 7 2 12 -4 12 -6 0 -8 5 -4 13 5 7 0 6 -11 -3 -11 -9 -16 -10 -11 -2 4 7 0
15 -11 19 -24 9 -71 54 -75 73 -2 8 -10 20 -18 27 -10 8 -11 12 -3 13 6 0 19
-10 27 -22z m726 2 c8 -5 11 -10 5 -10 -5 0 -17 5 -25 10 -8 5 -10 10 -5 10 6
0 17 -5 25 -10z m-495 -70 c3 -5 2 -10 -4 -10 -5 0 -13 5 -16 10 -3 6 -2 10 4
10 5 0 13 -4 16 -10z m-230 -80 c14 -15 16 -23 7 -32 -17 -17 -42 -1 -42 27 0
30 11 32 35 5z m880 -20 c0 -22 -39 -19 -43 3 -3 15 1 18 20 15 12 -2 23 -10
23 -18z m35 -67 c26 -22 30 -123 5 -123 -8 0 -15 -6 -15 -14 0 -17 -52 -36
-104 -38 -20 -1 -39 -5 -42 -10 -3 -4 -29 -8 -58 -8 -44 0 -58 5 -80 26 -14
15 -27 33 -27 40 -1 8 -2 20 -3 28 0 8 19 37 44 64 l45 50 107 1 c88 1 111 -2
128 -16z m-365 -2 c3 -5 1 -12 -5 -16 -5 -3 -10 1 -10 9 0 18 6 21 15 7z m445
-70 c0 -25 -20 -38 -31 -20 -15 23 -10 39 11 39 13 0 20 -7 20 -19z"/>
<path d="M488 643 c7 -3 16 -2 19 1 4 3 -2 6 -13 5 -11 0 -14 -3 -6 -6z"/>
<path d="M407 476 c-4 -11 -1 -13 10 -9 12 5 14 3 8 -8 -8 -12 -6 -12 9 0 13
11 14 16 4 22 -19 12 -25 11 -31 -5z"/>
<path d="M466 407 c3 -10 9 -15 12 -12 3 3 0 11 -7 18 -10 9 -11 8 -5 -6z"/>
<path d="M495 380 c-4 -6 5 -10 19 -10 14 0 26 5 26 10 0 6 -9 10 -19 10 -11
0 -23 -4 -26 -10z"/>
<path d="M1068 283 c51 -7 37 -23 -20 -24 -42 -1 -48 -3 -28 -9 23 -7 23 -8
-9 -9 -30 -1 -32 -3 -20 -18 8 -9 9 -14 4 -11 -6 4 -18 0 -29 -7 -23 -17 -13
-55 15 -55 11 0 17 -4 14 -10 -4 -6 13 -10 45 -10 32 0 49 4 45 10 -4 6 12 10
39 10 37 0 46 3 46 18 1 15 2 16 13 1 10 -14 14 -14 25 -3 7 8 10 19 7 24 -3
6 1 7 9 4 13 -5 16 1 16 30 0 35 -1 36 -41 36 -26 0 -38 4 -33 11 3 6 17 9 30
6 13 -2 24 0 24 4 0 5 -42 8 -92 7 -51 0 -78 -3 -60 -5z m75 -20 c-7 -2 -19
-2 -25 0 -7 3 -2 5 12 5 14 0 19 -2 13 -5z m47 -36 c0 -8 -11 -20 -25 -27 -14
-7 -25 -16 -25 -20 0 -8 -71 -4 -100 5 -16 5 -19 3 -14 -12 5 -17 5 -17 -6 0
-6 10 -10 23 -8 29 11 31 178 54 178 25z m-137 -84 c-7 -2 -19 -2 -25 0 -7 3
-2 5 12 5 14 0 19 -2 13 -5z"/>
<path d="M790 1552 c-16 -11 -26 -26 -25 -41 0 -29 30 -38 32 -9 2 17 0 18
-15 6 -15 -11 -15 -11 -5 3 7 9 9 20 5 24 -4 5 -1 5 6 1 7 -4 12 -2 12 6 0 7
7 2 16 -10 8 -12 20 -19 26 -16 7 4 8 2 4 -5 -6 -9 -11 -9 -23 1 -14 11 -15
10 -8 -12 11 -36 30 -55 40 -39 5 8 4 10 -3 5 -8 -5 -11 0 -8 16 2 13 10 22
17 20 9 -2 7 4 -5 17 -10 11 -23 18 -27 15 -8 -5 -13 10 -10 29 1 9 1 9 -29
-11z"/>
<path d="M1610 1565 c0 -2 6 -8 13 -14 10 -8 14 -7 14 2 0 8 -6 14 -14 14 -7
0 -13 -1 -13 -2z"/>
<path d="M1130 1534 c15 -17 41 -19 34 -1 -2 7 -14 13 -25 14 -17 2 -18 -1 -9
-13z"/>
<path d="M1205 1529 c4 -5 10 -7 14 -5 4 3 11 2 16 -2 14 -10 39 -55 26 -48
-5 4 -12 2 -16 -4 -4 -6 -11 -8 -16 -4 -5 3 -6 10 -3 16 4 6 2 8 -4 4 -6 -3
-13 -2 -17 4 -9 14 -61 12 -72 -2 -6 -7 -13 -24 -16 -38 -6 -24 -5 -24 8 -6 8
11 15 25 15 32 0 7 8 10 21 7 12 -4 16 -8 10 -13 -6 -3 -16 -21 -21 -39 -8
-29 -7 -31 11 -26 18 6 19 4 11 -12 -13 -25 -5 -43 19 -43 11 0 18 -4 15 -8
-3 -5 1 -9 8 -9 8 0 12 7 8 15 -4 11 -2 13 9 7 12 -8 12 -6 0 8 -7 9 -10 25
-7 34 5 15 4 15 -9 -1 -8 -11 -15 -24 -15 -29 0 -4 -4 -5 -10 -2 -5 3 -10 11
-10 16 0 6 4 7 10 4 6 -4 7 6 3 26 -4 23 -3 30 6 25 6 -4 8 -12 5 -18 -4 -7
-2 -8 5 -4 9 6 9 11 1 21 -15 18 -3 40 13 27 19 -15 70 -3 92 20 14 15 15 18
3 9 -15 -11 -18 -11 -18 2 0 8 -8 21 -17 28 -11 10 -14 10 -9 2 4 -7 3 -13 -3
-13 -5 0 -11 4 -13 9 -1 6 -15 12 -31 15 -16 3 -25 1 -22 -5z m-8 -69 c-6 -11
-15 -20 -20 -20 -4 0 -5 -4 -2 -10 3 -5 1 -10 -4 -10 -17 0 -13 19 8 37 11 9
17 21 14 26 -3 6 -1 7 5 3 9 -5 8 -12 -1 -26z"/>
<path d="M1343 1508 c1 -21 4 -38 7 -38 16 0 5 -33 -12 -38 -10 -2 -18 -9 -18
-14 0 -6 10 -4 23 4 21 15 36 78 17 78 -5 0 -11 10 -13 23 -3 12 -4 5 -4 -15z"/>
<path d="M1615 1519 c-3 -3 2 -12 10 -19 7 -6 11 -18 8 -26 -8 -22 5 -17 18 7
9 17 8 20 -2 14 -9 -6 -11 -2 -7 12 5 19 -17 29 -27 12z"/>
<path d="M665 1498 c9 -34 -19 -45 -42 -18 -10 11 -27 20 -38 20 -17 -1 -16
-3 8 -16 32 -17 36 -28 7 -19 -12 4 -20 2 -20 -5 0 -6 5 -8 10 -5 6 3 10 1 10
-6 0 -10 3 -10 11 -2 13 13 67 7 83 -8 6 -5 20 -9 33 -9 13 0 23 -4 23 -10 0
-15 68 -12 73 3 11 29 -11 44 -55 38 -24 -4 -49 -6 -55 -5 -7 1 -17 2 -22 3
-11 1 -9 20 3 41 5 8 6 12 1 8 -4 -4 -14 -3 -22 4 -12 9 -13 7 -8 -14z m135
-62 c0 -2 -9 -6 -20 -9 -11 -3 -20 -1 -20 4 0 5 9 9 20 9 11 0 20 -2 20 -4z"/>
<path d="M87 1491 c-3 -13 -1 -18 9 -14 7 2 10 11 7 19 -7 19 -10 18 -16 -5z"/>
<path d="M1985 1490 c3 -5 8 -10 11 -10 2 0 4 5 4 10 0 6 -5 10 -11 10 -5 0
-7 -4 -4 -10z"/>
<path d="M2010 1489 c0 -5 9 -9 20 -9 11 0 20 4 20 8 0 4 -9 8 -20 9 -11 1
-20 -2 -20 -8z"/>
<path d="M1523 1471 c10 -12 9 -14 -5 -8 -12 4 -15 2 -12 -8 3 -8 12 -11 19
-9 17 7 15 41 -2 41 -10 0 -10 -3 0 -16z"/>
<path d="M1665 1479 c-4 -6 -4 -13 -1 -16 3 -4 6 -1 6 6 0 7 5 9 12 5 7 -4 8
-3 4 4 -9 15 -13 15 -21 1z"/>
<path d="M886 1464 c-3 -9 -4 -19 -1 -22 3 -3 5 1 5 9 0 11 2 11 10 -1 5 -8
10 -10 10 -5 0 6 -4 16 -9 23 -6 11 -10 10 -15 -4z"/>
<path d="M480 1461 c0 -8 60 -41 74 -41 3 0 6 5 6 10 0 6 -3 9 -7 8 -14 -4
-53 13 -53 23 0 5 -4 9 -10 9 -5 0 -10 -4 -10 -9z"/>
<path d="M1055 1460 c-2 -4 3 -14 13 -21 9 -7 14 -9 10 -5 -4 5 -1 14 8 20 13
10 13 12 -5 13 -11 1 -23 -2 -26 -7z"/>
<path d="M1773 1463 c23 -6 22 -23 -3 -23 -11 0 -20 -4 -20 -8 0 -4 15 -7 33
-6 42 2 41 2 28 17 -6 8 -9 16 -6 18 2 3 -8 5 -23 6 -15 0 -19 -1 -9 -4z"/>
<path d="M1703 1442 c1 -13 7 -18 19 -14 10 2 18 9 18 15 0 6 -3 7 -7 4 -3 -4
-12 -2 -19 4 -10 8 -13 6 -11 -9z"/>
<path d="M1430 1443 c0 -6 -9 -10 -20 -8 -12 2 -18 0 -15 -6 4 -5 10 -7 15 -4
4 3 13 -1 19 -9 12 -15 28 -16 48 -3 6 4 14 1 17 -5 2 -7 3 -2 2 12 -2 18 -9
25 -25 26 -15 1 -20 -3 -17 -12 3 -7 0 -16 -6 -20 -6 -4 -8 -3 -5 2 3 6 2 16
-4 24 -5 10 -9 10 -9 3z m60 -7 c0 -2 -7 -9 -15 -16 -13 -11 -14 -10 -9 4 5
14 24 23 24 12z"/>
<path d="M570 1420 c0 -6 16 -16 35 -24 19 -8 35 -19 35 -24 0 -5 28 -19 63
-31 72 -24 77 -25 77 -11 0 5 -7 7 -15 4 -8 -4 -15 -1 -15 5 0 6 -3 10 -7 10
-20 -3 -44 2 -40 9 3 4 -7 8 -21 9 -14 0 -31 7 -37 15 -15 19 -75 49 -75 38z"/>
<path d="M667 1423 c-3 -5 9 -9 26 -10 24 -2 28 0 17 7 -18 12 -37 13 -43 3z"/>
<path d="M820 1393 c8 -3 20 -10 26 -15 7 -5 14 -4 17 4 3 9 -6 14 -27 15 -17
0 -24 -1 -16 -4z"/>
<path d="M879 1370 c-6 -4 0 -9 15 -12 16 -3 26 -1 26 7 0 13 -23 16 -41 5z"/>
<path d="M940 1340 c0 -6 7 -10 15 -10 8 0 15 2 15 4 0 2 -7 6 -15 10 -8 3
-15 1 -15 -4z"/>
<path d="M980 1331 c0 -10 30 -24 37 -17 3 2 -5 9 -16 16 -12 6 -21 7 -21 1z"/>
<path d="M790 1319 c0 -5 5 -7 10 -4 6 3 10 -3 10 -15 0 -12 5 -18 10 -15 7 4
7 13 0 26 -11 20 -30 26 -30 8z"/>
<path d="M840 1320 c0 -5 4 -10 9 -10 6 0 13 5 16 10 3 6 -1 10 -9 10 -9 0
-16 -4 -16 -10z"/>
<path d="M873 1309 c-40 -25 -40 -28 -8 -24 14 1 25 -1 25 -6 0 -9 65 -29 90
-29 8 1 0 7 -19 15 -18 8 -37 13 -41 10 -4 -3 -13 2 -20 10 -10 12 -10 18 0
30 17 20 11 19 -27 -6z"/>
<path d="M1024 1274 c24 -24 19 -26 -11 -7 l-28 18 15 -24 c10 -15 27 -25 46
-26 l30 -2 -27 28 c-15 16 -30 29 -34 29 -3 0 1 -7 9 -16z"/>
<path d="M1190 1244 c0 -8 -4 -13 -9 -10 -5 4 -7 -3 -4 -13 3 -11 15 -22 26
-25 22 -5 22 -5 2 10 -17 13 -18 16 -5 24 8 5 11 10 5 10 -5 0 -3 5 5 10 13 8
12 10 -2 10 -10 0 -18 -7 -18 -16z"/>
<path d="M1226 1243 c-6 -14 -5 -15 5 -6 7 7 10 15 7 18 -3 3 -9 -2 -12 -12z"/>
<path d="M8 1222 c-3 -9 -1 -26 3 -37 6 -15 8 -11 8 18 1 40 -4 48 -11 19z"/>
<path d="M1054 1211 c21 -23 26 -26 26 -11 0 5 -10 15 -22 21 -23 12 -23 12
-4 -10z"/>
<path d="M1310 1211 c0 -5 9 -7 20 -4 11 3 20 7 20 9 0 2 -9 4 -20 4 -11 0
-20 -4 -20 -9z"/>
<path d="M1091 1177 c-2 -30 -77 -103 -121 -117 -22 -7 -40 -17 -40 -22 0 -12
6 -10 58 16 65 33 115 87 109 117 -3 15 -5 17 -6 6z"/>
<path d="M1280 1185 c0 -5 5 -17 10 -25 5 -8 10 -10 10 -5 0 6 -5 17 -10 25
-5 8 -10 11 -10 5z"/>
<path d="M1375 1179 c-4 -6 -4 -13 -1 -16 3 -4 6 -1 6 6 0 7 5 9 12 5 7 -4 8
-3 4 4 -9 15 -13 15 -21 1z"/>
<path d="M41 1164 c0 -11 3 -14 6 -6 3 7 2 16 -1 19 -3 4 -6 -2 -5 -13z"/>
<path d="M1121 1164 c0 -11 3 -14 6 -6 3 7 2 16 -1 19 -3 4 -6 -2 -5 -13z"/>
<path d="M1690 1176 c0 -2 7 -6 15 -10 8 -3 15 -1 15 4 0 6 -7 10 -15 10 -8 0
-15 -2 -15 -4z"/>
<path d="M69 1147 c6 -8 8 -17 4 -20 -3 -4 -2 -7 4 -7 6 0 14 7 17 16 3 8 2
12 -4 9 -6 -3 -10 -1 -10 4 0 6 -5 11 -11 11 -8 0 -9 -4 0 -13z"/>
<path d="M346 1151 c-3 -5 1 -14 8 -20 10 -9 16 -9 21 -1 4 6 1 9 -7 8 -7 -2
-12 3 -10 10 2 14 -4 16 -12 3z"/>
<path d="M1206 1151 c-4 -5 -2 -12 4 -16 5 -3 10 -11 10 -16 0 -6 -5 -7 -12
-3 -7 5 -8 3 -3 -7 5 -7 10 -22 10 -33 1 -11 11 -27 23 -36 12 -10 18 -21 14
-25 -4 -5 -2 -5 5 -2 6 4 14 1 16 -5 3 -8 6 -6 6 5 1 9 -3 17 -9 17 -5 0 -10
5 -10 11 0 5 4 8 9 4 5 -3 13 0 17 6 4 8 3 9 -4 5 -7 -4 -12 -1 -12 6 0 8 -5
6 -11 -5 -6 -9 -15 -15 -21 -11 -6 4 -5 10 3 15 11 7 10 9 -4 9 -14 0 -16 6
-12 28 4 15 7 33 8 41 2 17 -19 26 -27 12z"/>
<path d="M1403 1142 c0 -9 4 -23 9 -29 12 -14 32 -7 22 8 -3 5 -10 6 -16 3 -7
-5 -9 -1 -5 9 3 9 3 19 -2 21 -4 3 -8 -3 -8 -12z"/>
<path d="M1431 1154 c-1 -6 5 -17 12 -23 10 -8 14 -7 14 4 0 8 -4 12 -8 9 -4
-2 -10 2 -12 8 -4 8 -6 9 -6 2z"/>
<path d="M31 1124 c0 -11 3 -14 6 -6 3 7 2 16 -1 19 -3 4 -6 -2 -5 -13z"/>
<path d="M1079 1093 c-13 -16 -12 -17 4 -4 9 7 17 15 17 17 0 8 -8 3 -21 -13z"/>
<path d="M1459 1098 c-5 -18 -6 -38 -1 -34 7 8 12 36 6 36 -2 0 -4 -1 -5 -2z"/>
<path d="M1330 1083 c8 -3 24 -13 35 -22 17 -14 18 -14 7 0 -6 9 -9 19 -5 22
3 4 -7 7 -23 6 -16 0 -22 -3 -14 -6z"/>
<path d="M1487 1068 c7 -8 9 -19 5 -24 -4 -4 0 -3 10 4 11 9 18 10 23 2 3 -5
12 -10 18 -10 11 1 -21 24 -33 25 -3 0 -12 4 -20 10 -12 7 -13 6 -3 -7z"/>
<path d="M1149 1058 c-5 -18 -6 -38 -1 -34 7 8 12 36 6 36 -2 0 -4 -1 -5 -2z"/>
<path d="M1391 1044 c0 -11 3 -14 6 -6 3 7 2 16 -1 19 -3 4 -6 -2 -5 -13z"/>
<path d="M1411 1024 c0 -11 3 -14 6 -6 3 7 2 16 -1 19 -3 4 -6 -2 -5 -13z"/>
<path d="M895 1010 c-3 -5 -21 -10 -40 -10 -19 0 -37 -5 -41 -12 -5 -8 -2 -9
10 -5 10 4 28 7 40 7 23 0 71 29 49 30 -6 0 -15 -4 -18 -10z"/>
<path d="M330 1006 c0 -2 7 -6 15 -10 8 -3 15 -1 15 4 0 6 -7 10 -15 10 -8 0
-15 -2 -15 -4z"/>
<path d="M740 980 c0 -5 5 -10 10 -10 6 0 10 5 10 10 0 6 -4 10 -10 10 -5 0
-10 -4 -10 -10z"/>
<path d="M146 968 c3 -4 9 -8 15 -8 5 0 9 4 9 8 0 5 -7 9 -15 9 -8 0 -12 -4
-9 -9z"/>
<path d="M273 969 c-6 -6 -9 -17 -6 -24 2 -7 -4 -15 -14 -18 -14 -4 15 -7 62
-7 3 0 4 3 3 8 -2 4 -11 7 -20 6 -13 0 -17 5 -14 23 5 26 4 27 -11 12z"/>
<path d="M978 913 c6 -2 18 -2 25 0 6 3 1 5 -13 5 -14 0 -19 -2 -12 -5z"/>
<path d="M1098 834 c-4 -3 -31 -8 -79 -13 -3 -1 -6 -7 -6 -15 0 -7 11 -13 26
-14 76 0 80 -2 75 -19 -5 -15 -4 -15 5 -3 9 12 16 13 58 1 26 -8 63 -15 81
-17 57 -4 102 -15 103 -24 1 -6 2 -17 2 -25 0 -46 -4 -49 -98 -86 -36 -14 -70
-17 -90 -9 -11 4 -28 3 -39 -2 -14 -7 -16 -7 -11 2 6 9 3 9 -12 1 -11 -6 -23
-8 -25 -5 -3 3 -8 -4 -11 -15 -5 -21 -14 -21 126 -7 26 3 52 8 57 11 6 3 10 1
10 -4 0 -6 7 -11 15 -11 9 0 12 6 8 16 -5 14 -3 15 17 4 18 -10 21 -9 15 1 -6
9 -3 11 9 6 9 -4 15 -3 11 2 -3 5 7 19 22 31 21 16 27 30 29 65 1 25 -1 44 -4
43 -13 -2 -42 14 -37 22 2 4 -24 7 -59 6 -36 0 -62 3 -59 8 4 5 -6 6 -21 2
-20 -5 -26 -3 -26 9 0 13 -8 15 -40 11 -39 -4 -67 9 -33 16 16 3 16 4 1 10 -9
4 -18 5 -20 2z"/>
<path d="M900 814 c0 -1 8 -8 17 -15 11 -10 14 -10 9 -1 -4 7 -1 12 9 12 10 0
13 -5 9 -12 -4 -7 -4 -10 1 -6 4 4 16 3 25 -2 14 -7 18 -6 16 5 -1 8 -6 18
-11 22 -4 4 -5 2 -1 -4 4 -7 2 -13 -3 -13 -6 0 -11 5 -11 10 0 6 -13 9 -30 8
-16 -1 -30 -3 -30 -4z"/>
<path d="M220 780 c6 -11 13 -20 16 -20 2 0 0 9 -6 20 -6 11 -13 20 -16 20 -2
0 0 -9 6 -20z"/>
<path d="M1350 796 c0 -2 7 -7 16 -10 8 -3 12 -2 9 4 -6 10 -25 14 -25 6z"/>
<path d="M1063 745 c0 -8 4 -12 9 -9 5 3 6 10 3 15 -9 13 -12 11 -12 -6z"/>
<path d="M1016 638 c3 -5 10 -6 15 -3 13 9 11 12 -6 12 -8 0 -12 -4 -9 -9z"/>
<path d="M1370 635 c0 -7 30 -13 34 -7 3 4 -4 9 -15 9 -10 1 -19 0 -19 -2z"/>
<path d="M417 593 c-13 -12 -7 -33 9 -33 13 0 14 3 5 13 -6 8 -8 17 -4 20 3 4
4 7 1 7 -2 0 -8 -3 -11 -7z"/>
<path d="M635 590 c-3 -5 -1 -10 4 -10 6 0 11 5 11 10 0 6 -2 10 -4 10 -3 0
-8 -4 -11 -10z"/>
<path d="M474 541 c17 -11 34 -17 39 -14 13 8 -4 21 -38 28 l-30 7 29 -21z"/>
<path d="M421 537 c28 -21 59 -36 59 -29 0 5 -11 14 -25 20 -24 11 -44 16 -34
9z"/>
<path d="M733 503 c4 -5 -3 -20 -14 -31 -11 -12 -18 -22 -17 -23 28 -7 36 -5
31 7 -3 8 0 21 6 28 9 11 9 16 0 22 -7 4 -9 3 -6 -3z"/>
<path d="M796 498 c3 -4 9 -8 15 -8 5 0 9 4 9 8 0 5 -7 9 -15 9 -8 0 -12 -4
-9 -9z"/>
<path d="M914 478 c-3 -4 2 -8 10 -8 8 0 17 4 20 8 3 5 -2 9 -10 9 -8 0 -17
-4 -20 -9z"/>
<path d="M800 470 c-12 -7 -10 -9 8 -7 12 0 22 5 22 9 0 11 -12 10 -30 -2z"/>
<path d="M723 213 c9 -2 23 -2 30 0 6 3 -1 5 -18 5 -16 0 -22 -2 -12 -5z"/>
</g>
</svg>
