<?xml version="1.0" standalone="no"?>
<!DOCTYPE svg PUBLIC "-//W3C//DTD SVG 20010904//EN"
 "http://www.w3.org/TR/2001/REC-SVG-20010904/DTD/svg10.dtd">
<svg version="1.0" xmlns="http://www.w3.org/2000/svg"
 width="180.000000pt" height="180.000000pt" viewBox="0 0 180.000000 180.000000"
 preserveAspectRatio="xMidYMid meet">
<metadata>
Created by potrace 1.16, written by Peter Selinger 2001-2019
</metadata>
<g transform="translate(0.000000,180.000000) scale(0.100000,-0.100000)"
fill="#000000" stroke="none">
<path d="M851 1772 c-22 -45 -33 -102 -38 -196 -3 -56 0 -93 6 -99 6 -6 11
-21 11 -34 0 -34 86 -204 229 -452 61 -107 81 -166 81 -242 0 -63 -19 -130
-28 -95 -2 11 -14 36 -26 55 -12 20 -30 52 -40 71 -9 19 -31 60 -48 90 -17 30
-46 82 -63 115 -18 33 -70 128 -116 210 -45 83 -85 166 -88 185 -6 32 -10 35
-43 38 -32 3 -39 -1 -52 -27 -9 -16 -16 -39 -16 -51 0 -11 -4 -20 -10 -20 -5
0 -10 -24 -10 -54 0 -30 -4 -58 -10 -61 -5 -3 -10 -21 -10 -40 0 -19 5 -37 10
-40 6 -3 10 -28 10 -56 0 -27 4 -57 9 -67 62 -127 98 -197 127 -247 19 -33 40
-71 46 -85 7 -14 15 -27 18 -30 3 -3 15 -25 28 -49 12 -24 28 -55 36 -70 22
-41 33 -73 46 -123 12 -46 11 -64 -7 -138 l-9 -34 -14 34 c-8 19 -16 37 -19
40 -3 3 -16 23 -27 45 -42 78 -87 161 -117 215 -131 233 -158 292 -170 378
-11 71 -11 72 -41 72 -35 0 -184 -54 -263 -95 -122 -64 -244 -194 -243 -259
l1 -31 22 42 c45 86 137 173 242 229 51 27 222 94 241 94 5 0 15 -33 21 -72
12 -86 39 -145 170 -378 30 -54 75 -137 117 -215 11 -22 24 -42 27 -45 3 -3
16 -31 29 -62 l23 -57 14 26 c15 29 22 61 30 136 6 62 -12 140 -53 218 -8 15
-24 46 -36 70 -13 24 -25 46 -28 49 -3 3 -11 16 -18 30 -6 14 -27 52 -46 85
-29 50 -65 120 -127 247 -5 10 -9 38 -9 63 0 25 -6 54 -12 65 -10 15 -10 22 0
32 6 6 12 36 12 65 0 29 5 53 10 53 6 0 10 9 10 20 0 12 7 35 16 51 20 40 47
35 55 -11 3 -19 43 -102 88 -185 46 -82 98 -177 116 -210 17 -33 46 -85 63
-115 17 -30 45 -84 64 -120 18 -36 36 -66 41 -68 4 -2 7 -12 7 -23 0 -10 4
-19 9 -19 5 0 11 -12 13 -28 4 -27 5 -26 23 13 28 58 32 198 9 267 -15 45 -62
143 -84 173 -8 11 -41 70 -103 185 -72 133 -107 209 -107 233 0 13 -5 28 -11
34 -19 19 3 213 28 245 6 7 13 23 16 36 7 31 -15 28 -32 -6z"/>
<path d="M934 1784 c3 -9 9 -27 13 -42 3 -14 19 -48 34 -76 16 -28 36 -68 46
-88 10 -21 21 -38 25 -38 5 0 8 -9 8 -19 0 -11 4 -21 8 -23 8 -3 35 -49 74
-128 13 -25 25 -47 28 -50 6 -6 52 -91 92 -170 16 -31 31 -79 35 -108 l6 -51
71 -26 c207 -76 336 -172 403 -298 l22 -42 1 31 c1 71 -126 200 -263 268 -40
19 -104 47 -143 61 l-71 26 -6 51 c-4 29 -19 77 -35 108 -40 79 -86 164 -92
170 -3 3 -18 30 -34 60 -63 122 -81 155 -86 160 -3 3 -14 21 -24 40 -9 19 -30
58 -46 87 -15 28 -31 65 -35 82 -4 18 -13 31 -22 31 -10 0 -13 -6 -9 -16z"/>
<path d="M0 377 c0 -80 117 -199 272 -277 55 -28 108 -50 119 -50 10 0 19 -4
19 -10 0 -5 15 -10 34 -10 19 0 36 -5 38 -11 2 -7 36 -13 83 -15 l80 -3 -70
15 c-38 9 -71 20 -73 25 -2 5 -19 9 -38 9 -19 0 -34 5 -34 10 0 6 -9 10 -19
10 -11 0 -65 23 -119 50 -120 60 -223 151 -264 231 -24 47 -28 50 -28 26z"/>
<path d="M1770 348 c-38 -77 -143 -168 -262 -228 -54 -27 -108 -50 -119 -50
-10 0 -19 -4 -19 -10 0 -5 -15 -10 -34 -10 -19 0 -36 -4 -38 -9 -1 -5 -34 -16
-73 -25 l-70 -15 80 3 c47 2 81 8 83 15 2 6 19 11 38 11 19 0 34 5 34 10 0 6
9 10 19 10 11 0 64 22 119 50 155 78 279 205 270 275 -3 20 -7 16 -28 -27z"/>
</g>
</svg>
