<?xml version="1.0" standalone="no"?>
<!DOCTYPE svg PUBLIC "-//W3C//DTD SVG 20010904//EN"
 "http://www.w3.org/TR/2001/REC-SVG-20010904/DTD/svg10.dtd">
<svg version="1.0" xmlns="http://www.w3.org/2000/svg"
 width="192.000000pt" height="192.000000pt" viewBox="0 0 192.000000 192.000000"
 preserveAspectRatio="xMidYMid meet">
<metadata>
Created by potrace 1.16, written by Peter Selinger 2001-2019
</metadata>
<g transform="translate(0.000000,192.000000) scale(0.100000,-0.100000)"
fill="#000000" stroke="none">
<path d="M835 1811 c-11 -5 -65 -11 -120 -15 -55 -4 -101 -11 -103 -16 -2 -6
-24 -10 -48 -10 -24 0 -44 -4 -44 -10 0 -5 -3 -9 -7 -8 -17 3 -83 -15 -83 -23
0 -5 -9 -9 -20 -9 -11 0 -20 -4 -20 -10 0 -5 -11 -10 -25 -10 -14 0 -28 -6
-31 -14 -3 -8 -20 -17 -39 -20 -18 -4 -36 -13 -39 -21 -3 -8 -10 -15 -16 -15
-11 0 -90 -74 -90 -85 0 -6 -10 -19 -37 -50 -7 -7 -13 -18 -13 -24 0 -6 -7
-11 -15 -11 -9 0 -15 -9 -15 -25 0 -14 -4 -25 -10 -25 -5 0 -12 -16 -16 -35
-3 -19 -10 -38 -15 -41 -5 -3 -9 -16 -9 -30 0 -13 -4 -24 -10 -24 -18 0 -10
-18 10 -23 17 -4 20 0 20 24 0 16 4 29 9 29 5 0 11 18 15 40 3 22 11 40 16 40
6 0 10 11 10 25 0 16 6 25 15 25 8 0 15 5 15 11 0 6 6 17 13 24 27 31 37 44
37 50 0 11 79 85 90 85 6 0 13 7 16 15 3 8 21 17 39 21 19 3 36 12 39 20 3 8
17 14 31 14 14 0 25 5 25 10 0 6 9 10 20 10 11 0 20 4 20 9 0 6 20 13 45 17
25 3 45 10 45 15 0 5 20 9 44 9 24 0 46 5 48 10 2 6 55 13 121 17 64 3 117 10
117 15 0 4 34 8 75 8 41 0 75 -4 75 -9 0 -5 65 -12 145 -16 80 -4 145 -11 145
-16 0 -5 14 -9 30 -9 17 0 30 -4 30 -9 0 -5 32 -12 70 -16 39 -4 70 -11 70
-16 0 -5 9 -9 20 -9 11 0 20 -4 20 -9 0 -4 19 -11 41 -14 23 -3 45 -10 48 -15
3 -6 23 -13 43 -17 39 -7 55 -37 43 -76 -6 -18 -19 -19 -233 -19 -351 0 -572
-10 -572 -27 0 -9 15 -13 49 -13 28 0 53 -4 56 -10 3 -5 17 -10 31 -10 13 0
24 -4 24 -9 0 -4 28 -11 62 -15 34 -3 64 -10 67 -15 4 -5 43 -12 89 -16 45 -4
85 -12 88 -16 3 -5 39 -9 80 -9 41 0 74 -4 74 -9 0 -4 35 -11 78 -15 42 -3 79
-11 80 -16 2 -6 15 -10 28 -10 13 0 24 -4 24 -10 0 -5 18 -13 40 -16 22 -4 40
-10 40 -15 0 -5 5 -9 11 -9 6 0 17 -6 24 -12 49 -45 55 -46 55 -19 0 11 -9 23
-20 26 -11 3 -20 11 -20 16 0 5 -7 9 -15 9 -8 0 -15 4 -15 9 0 5 -18 12 -40
16 -22 4 -40 11 -40 16 0 5 -11 9 -24 9 -13 0 -26 4 -28 10 -1 5 -38 13 -80
16 -43 4 -78 10 -78 15 0 4 -33 10 -72 12 -113 8 -252 29 -259 38 -3 5 -33 12
-67 15 -34 4 -62 11 -62 15 0 5 -10 10 -22 10 -75 5 167 16 392 18 192 2 267
5 272 14 9 14 10 63 2 94 -4 15 -17 23 -42 28 -21 4 -40 11 -43 17 -3 5 -25
12 -48 15 -22 3 -41 10 -41 14 0 5 -9 9 -20 9 -11 0 -20 4 -20 9 0 7 -67 21
-122 24 -10 1 -18 5 -18 9 0 4 -13 8 -29 8 -16 0 -31 4 -33 10 -1 5 -67 13
-145 16 -79 4 -143 11 -143 16 0 10 -178 10 -205 -1z"/>
<path d="M918 1773 c18 -2 45 -2 60 0 15 2 0 4 -33 4 -33 0 -45 -2 -27 -4z"/>
<path d="M730 1749 c0 -8 -15 -9 -45 -5 -29 5 -45 4 -45 -3 0 -6 -20 -11 -46
-11 -25 0 -43 -4 -40 -9 3 -5 -14 -12 -39 -15 -25 -4 -45 -11 -45 -17 0 -5
-11 -9 -25 -9 -14 0 -25 -4 -25 -9 0 -5 -13 -12 -30 -16 -17 -4 -30 -10 -30
-15 0 -9 -39 -23 -59 -20 -7 1 -10 -3 -7 -9 4 -6 -6 -18 -21 -28 -25 -16 -60
-50 -100 -98 -7 -8 -13 -19 -13 -25 0 -5 -4 -10 -10 -10 -5 0 -13 -12 -16 -26
-5 -19 -9 -22 -15 -12 -6 9 -9 5 -9 -14 0 -16 -5 -28 -11 -28 -5 0 -8 -4 -4
-9 3 -5 1 -12 -5 -16 -5 -3 -10 -17 -10 -31 0 -13 -4 -24 -10 -24 -5 0 -10
-14 -10 -31 0 -20 -4 -28 -11 -23 -8 5 -10 -12 -5 -57 3 -42 2 -55 -3 -39 -6
17 -9 -6 -10 -78 -1 -67 3 -101 9 -97 6 4 10 -5 10 -20 0 -15 4 -24 10 -20 6
3 10 -1 10 -9 0 -8 22 -37 49 -63 68 -66 71 -68 161 -107 70 -29 97 -35 200
-42 41 -3 84 -9 95 -13 80 -32 181 -59 190 -51 6 5 22 6 35 3 16 -4 21 -3 16
5 -5 8 2 12 19 12 15 0 24 4 20 10 -4 6 10 10 35 10 27 0 39 4 35 11 -5 7 7 8
39 4 37 -6 46 -4 46 8 0 12 13 13 71 9 53 -4 70 -2 65 7 -5 8 8 11 43 11 28 0
51 4 51 9 0 6 17 8 38 5 20 -2 31 -1 24 2 -10 5 -7 10 10 18 16 8 24 22 26 46
2 19 0 32 -4 28 -4 -5 -13 1 -21 12 -8 11 -20 17 -28 14 -8 -4 -15 -1 -15 5 0
6 -7 11 -15 11 -8 0 -15 5 -15 10 0 6 -9 10 -21 10 -11 0 -17 4 -14 10 4 7 -2
9 -19 4 -16 -4 -26 -2 -26 5 0 6 -17 11 -37 11 -26 0 -33 3 -24 9 8 6 -20 11
-78 16 -50 4 -91 11 -91 15 0 21 118 28 138 8 9 -9 12 -9 12 0 0 7 -5 12 -11
12 -5 0 -8 4 -4 9 3 5 23 8 45 7 22 -2 40 1 40 5 0 5 48 10 108 11 81 1 96 3
62 8 -35 6 -23 8 60 9 76 2 98 5 80 12 -17 6 -1 7 48 4 45 -3 72 -1 72 5 0 5
18 10 40 10 23 0 40 5 40 11 0 7 12 9 35 5 29 -6 34 -4 29 9 -5 12 0 14 27 9
26 -4 30 -3 19 5 -12 9 -10 11 12 11 15 0 30 5 34 11 3 6 15 9 25 6 11 -3 17
-1 14 4 -3 5 3 16 15 26 13 11 20 30 20 51 0 27 -5 35 -30 46 -17 7 -27 15
-23 19 3 4 -1 7 -10 7 -10 0 -17 6 -17 13 0 8 -4 7 -10 -3 -6 -9 -10 -10 -10
-3 0 7 -16 15 -35 19 -19 3 -32 10 -29 15 3 5 -7 9 -23 8 -25 0 -26 -1 -8 -9
23 -10 5 -13 -19 -4 -14 5 -14 9 -4 22 11 13 7 14 -36 8 -36 -6 -46 -5 -41 5
6 9 -7 11 -54 7 -56 -4 -60 -3 -39 9 20 13 11 14 -82 10 -58 -2 -95 -2 -82 0
12 3 22 8 22 13 0 5 -31 6 -70 3 -39 -3 -97 0 -131 6 -44 9 -65 9 -72 2 -6 -6
-52 -11 -108 -11 -54 0 -100 -4 -103 -9 -3 -4 -33 -11 -67 -15 -33 -4 -72 -11
-85 -17 -14 -5 -39 -11 -57 -14 -18 -3 -48 -11 -67 -17 -55 -18 -240 -109
-240 -118 0 -5 -10 -10 -22 -12 -13 -2 -22 -9 -20 -16 5 -27 -47 -11 -85 28
-23 22 -48 38 -60 37 -19 -1 -19 -3 6 -27 63 -60 90 -74 143 -72 11 0 15 -5
11 -14 -4 -10 4 -14 31 -14 20 0 36 4 36 9 0 5 12 11 28 14 67 14 88 21 98 35
6 9 29 17 50 18 22 1 49 2 62 3 13 0 20 6 17 11 -4 6 8 10 29 10 20 0 36 5 36
10 0 6 5 10 11 10 5 0 7 -4 4 -10 -3 -5 1 -10 9 -10 9 0 16 5 16 11 0 6 9 8
20 4 14 -4 20 -2 20 8 0 14 -49 17 -80 4 -8 -4 -33 -8 -55 -9 -27 -2 -39 -7
-37 -16 2 -9 -4 -12 -18 -8 -11 3 -28 8 -39 11 -11 4 -21 0 -25 -10 -3 -8 -15
-15 -27 -15 -13 0 -19 -5 -16 -13 3 -9 -5 -13 -24 -12 -19 0 -29 5 -30 15 0 9
-4 7 -11 -7 -7 -14 -20 -23 -34 -23 -12 0 -24 -6 -26 -12 -3 -7 -7 -2 -10 10
-4 12 -2 22 3 22 5 0 11 0 14 0 3 0 14 9 25 20 11 11 31 22 45 26 14 3 25 10
25 14 0 4 21 13 48 20 26 7 53 18 61 24 12 10 22 13 66 19 11 2 34 9 50 16 20
8 56 11 105 7 l75 -5 -38 18 -39 18 74 6 c40 3 92 5 116 4 23 -1 42 0 42 3 0
10 136 3 158 -9 14 -8 22 -8 22 -1 0 5 5 10 11 10 14 0 39 -25 39 -39 0 -6 8
-3 18 7 10 9 17 24 14 32 -3 13 -2 13 10 0 8 -9 33 -16 63 -17 52 -1 195 -25
255 -42 19 -5 49 -12 65 -14 42 -5 85 -24 85 -37 0 -6 4 -9 9 -6 19 12 58 -13
63 -38 4 -20 1 -26 -13 -26 -9 0 -19 -3 -21 -7 -11 -25 -165 -78 -197 -68 -12
3 -21 2 -21 -4 0 -11 -78 -28 -168 -34 -40 -3 -60 -2 -56 5 4 6 0 6 -13 0 -12
-7 -25 -7 -34 -1 -24 15 -122 10 -144 -8 -19 -15 -19 -15 5 -8 56 15 71 17 97
9 24 -6 18 -9 -37 -15 -206 -21 -313 -44 -331 -71 -3 -4 -31 -9 -62 -10 -31
-2 -57 -6 -57 -9 0 -11 -36 -17 -52 -8 -17 9 -58 1 -58 -12 0 -5 16 -9 35 -9
19 0 35 -5 35 -10 0 -7 7 -7 21 0 11 6 30 10 42 9 12 -2 32 3 45 9 15 9 28 10
40 3 15 -8 114 -33 194 -48 15 -3 25 -10 22 -15 -4 -6 5 -8 25 -3 17 4 31 3
31 -2 0 -8 55 -35 75 -37 6 -1 18 -10 27 -21 15 -18 15 -22 1 -37 -9 -11 -30
-18 -50 -18 -19 0 -32 -4 -29 -8 2 -4 -20 -7 -50 -5 -30 1 -54 -2 -54 -7 0 -4
-28 -10 -62 -13 -67 -5 -111 -13 -143 -27 -25 -11 -73 -19 -150 -26 -50 -5
-63 -3 -75 12 -14 16 -13 17 13 12 15 -3 30 -1 34 4 3 6 -17 9 -53 7 -60 -4
-215 15 -270 32 -17 5 -38 9 -48 9 -30 0 -87 30 -159 84 -96 71 -119 120 -116
248 2 86 7 121 29 173 4 11 12 39 17 62 6 31 11 40 21 34 10 -6 17 -35 21 -94
1 -4 22 13 47 38 26 25 55 45 65 45 9 0 19 3 21 8 5 11 126 72 143 72 8 0 15
5 15 10 0 6 9 10 19 10 11 0 23 5 26 10 4 6 10 8 15 5 5 -3 11 -1 15 5 3 5 16
10 29 10 12 0 26 3 29 7 15 14 152 43 237 49 49 4 87 11 84 15 -3 5 48 10 113
10 72 1 106 4 88 9 -16 4 110 5 281 2 253 -4 312 -3 319 8 5 9 4 15 -3 18 -7
2 -10 7 -7 12 3 5 -13 11 -35 15 -22 4 -40 11 -40 15 0 5 -20 12 -45 16 -25 3
-45 10 -45 15 0 5 -12 9 -26 9 -16 0 -23 4 -18 11 5 8 -3 10 -25 7 -18 -3 -34
-1 -37 4 -3 4 -21 8 -40 8 -21 0 -33 4 -29 10 4 6 -12 10 -42 10 -36 0 -44 3
-33 11 11 7 -6 8 -57 4 -51 -5 -73 -4 -73 4 0 8 -64 11 -210 11 -148 0 -210
-3 -210 -11z m209 -23 c44 -2 81 -1 81 4 0 4 18 4 41 -1 22 -5 44 -7 48 -4 5
2 23 0 42 -6 19 -5 70 -14 114 -19 87 -10 195 -39 195 -52 0 -4 16 -8 35 -8
19 0 49 -9 67 -20 l33 -20 -280 -1 c-154 -1 -290 -1 -302 -2 -13 0 -23 -4 -23
-8 0 -5 -23 -9 -51 -9 -65 0 -238 -19 -264 -30 -11 -4 -32 -12 -46 -18 -15 -6
-48 -14 -75 -18 -27 -4 -51 -11 -54 -15 -3 -5 -24 -11 -45 -15 -22 -3 -41 -10
-43 -15 -2 -5 -14 -9 -26 -9 -12 0 -27 -5 -33 -11 -6 -6 -17 -11 -25 -12 -8
-2 -24 -12 -37 -24 -13 -12 -28 -20 -35 -19 -6 2 -8 1 -3 -1 12 -8 8 -23 -7
-23 -7 0 -19 -7 -26 -15 -20 -24 -50 -19 -50 8 0 40 21 58 72 60 26 1 44 5 42
9 -7 12 -72 10 -96 -3 -38 -21 -29 -1 16 34 25 19 43 37 40 40 -7 7 55 53 84
62 12 3 20 10 17 15 -3 5 19 21 50 35 30 15 55 30 55 34 0 5 28 14 63 20 34 7
70 17 79 22 10 5 31 9 47 9 17 0 33 5 36 10 3 6 34 10 68 11 34 0 71 4 82 8
11 5 23 7 26 5 3 -2 43 -5 88 -8z"/>
<path d="M748 1495 c-3 -3 -22 -6 -42 -7 -20 -1 -35 -6 -33 -11 3 -11 28 -13
150 -16 40 0 66 -5 62 -10 -3 -6 21 -10 57 -10 35 0 80 -3 101 -6 23 -4 37 -2
37 4 0 6 -17 11 -37 12 -31 0 -34 2 -18 9 13 6 -3 7 -44 4 -45 -4 -61 -3 -57
5 4 6 12 8 18 5 6 -4 8 -3 5 3 -4 6 -28 8 -58 5 -37 -3 -50 -2 -45 7 5 8 -8
11 -42 11 -27 0 -51 -2 -54 -5z"/>
<path d="M480 1410 c0 -5 5 -10 10 -10 6 0 10 5 10 10 0 6 -4 10 -10 10 -5 0
-10 -4 -10 -10z"/>
<path d="M440 1390 c0 -5 5 -10 10 -10 6 0 10 5 10 10 0 6 -4 10 -10 10 -5 0
-10 -4 -10 -10z"/>
<path d="M938 1323 c7 -3 16 -2 19 1 4 3 -2 6 -13 5 -11 0 -14 -3 -6 -6z"/>
<path d="M1235 1323 c-11 -3 -24 -11 -28 -19 -11 -19 -27 -18 -27 1 0 20 -39
19 -47 -1 -4 -12 -19 -15 -67 -13 -33 1 -72 -2 -86 -7 -14 -6 -51 -9 -82 -8
-32 2 -58 -2 -58 -7 0 -5 17 -9 38 -10 20 -1 56 -2 79 -3 28 -1 43 3 43 11 0
9 15 12 43 12 122 -3 208 2 202 11 -4 6 -1 17 5 25 7 8 11 14 9 14 -2 -1 -13
-4 -24 -6z m-65 -17 c0 -2 -7 -6 -15 -10 -8 -3 -15 -1 -15 4 0 6 7 10 15 10 8
0 15 -2 15 -4z"/>
<path d="M1408 1313 c6 -2 18 -2 25 0 6 3 1 5 -13 5 -14 0 -19 -2 -12 -5z"/>
<path d="M1554 1295 c11 -8 36 -17 55 -20 20 -4 44 -10 53 -16 23 -12 58 -12
58 1 0 6 -12 10 -27 10 -16 1 -53 9 -83 20 -66 23 -82 24 -56 5z"/>
<path d="M1528 1253 c6 -2 18 -2 25 0 6 3 1 5 -13 5 -14 0 -19 -2 -12 -5z"/>
<path d="M1613 1243 c9 -2 25 -2 35 0 9 3 1 5 -18 5 -19 0 -27 -2 -17 -5z"/>
<path d="M1026 1213 c10 -40 15 -42 12 -5 -1 18 -6 32 -10 32 -5 0 -5 -12 -2
-27z"/>
<path d="M1 1078 c2 -153 7 -144 11 20 2 61 0 112 -4 112 -5 0 -7 -60 -7 -132z"/>
<path d="M912 1190 c0 -14 2 -19 5 -12 2 6 2 18 0 25 -3 6 -5 1 -5 -13z"/>
<path d="M1898 1158 c-10 -10 -18 -25 -18 -33 0 -9 -9 -15 -25 -15 -14 0 -28
-7 -31 -15 -4 -8 -17 -15 -30 -15 -13 0 -24 -4 -24 -9 0 -4 -37 -11 -82 -15
-45 -4 -85 -12 -89 -18 -4 -6 -48 -13 -98 -16 -50 -2 -91 -9 -91 -13 0 -5 -47
-9 -104 -9 -59 0 -108 -4 -111 -10 -3 -5 -15 -10 -26 -10 -10 0 -19 -6 -19
-14 0 -9 18 -16 50 -20 28 -4 50 -11 50 -16 0 -6 7 -10 15 -10 8 0 15 -4 15
-10 0 -5 6 -10 14 -10 19 0 66 -46 66 -65 0 -8 5 -15 10 -15 21 0 9 -47 -19
-71 -32 -28 -98 -45 -208 -55 -40 -4 -73 -10 -73 -14 0 -4 -45 -11 -100 -15
-85 -6 -97 -9 -85 -21 9 -9 36 -14 80 -14 69 0 68 1 125 -67 13 -16 13 -73 0
-73 -5 0 -10 -5 -10 -12 0 -28 -62 -65 -118 -71 -31 -3 -58 -11 -60 -17 -2 -5
-10 -10 -18 -10 -7 0 -16 -11 -20 -25 -3 -13 -14 -27 -23 -30 -10 -3 -27 -14
-39 -25 -14 -14 -42 -22 -83 -27 -43 -4 -56 -9 -45 -15 22 -13 20 -60 -4 -88
-19 -22 -29 -24 -117 -24 -68 -1 -98 3 -101 12 -2 6 -15 12 -28 12 -13 0 -24
5 -24 10 0 6 -11 10 -25 10 -16 0 -25 6 -25 15 0 8 -7 15 -15 15 -9 0 -27 12
-40 26 -14 15 -25 22 -25 15 0 -6 -11 -11 -25 -11 -20 0 -25 5 -25 25 0 14 5
25 12 25 6 0 1 8 -10 19 -12 10 -22 23 -22 29 0 6 -11 22 -24 35 -12 13 -26
40 -30 60 -4 20 -11 37 -16 37 -6 0 -10 7 -10 15 0 8 -4 15 -10 15 -5 0 -12
15 -16 34 -3 19 -12 37 -20 40 -9 3 -14 20 -14 46 0 22 -4 40 -10 40 -5 0 -10
9 -10 19 0 11 -4 23 -10 26 -5 3 -10 25 -11 48 -2 83 -17 96 -18 15 -1 -42 4
-80 9 -83 6 -3 10 -15 10 -26 0 -10 5 -19 10 -19 6 0 10 -18 10 -40 0 -26 5
-43 14 -46 8 -3 17 -21 20 -40 4 -19 11 -34 16 -34 6 0 10 -7 10 -15 0 -8 4
-15 10 -15 5 0 12 -17 16 -37 4 -20 18 -47 30 -60 13 -13 24 -30 24 -38 0 -8
5 -15 10 -15 6 0 10 -18 10 -40 l0 -40 40 0 c27 0 43 -5 46 -15 4 -8 14 -15
24 -15 10 0 20 -9 23 -20 3 -13 11 -18 26 -15 12 2 21 0 21 -6 0 -5 11 -9 24
-9 13 0 26 -6 28 -12 3 -9 38 -13 119 -14 104 -1 114 -2 118 -20 7 -41 36 -54
116 -54 43 0 75 4 75 10 0 6 18 10 39 10 37 0 71 19 71 41 0 5 11 9 25 9 23 0
25 4 25 45 0 41 -2 45 -24 45 -17 0 -26 7 -30 25 -4 14 -11 25 -16 25 -6 0
-10 11 -10 25 0 21 -5 25 -30 25 -16 0 -30 4 -30 9 0 20 13 41 25 41 7 0 15 5
17 10 2 6 28 13 58 16 58 7 120 43 120 70 0 7 5 14 10 14 14 0 12 98 -2 116
-7 9 -21 24 -31 36 -10 11 -17 21 -15 22 14 11 72 26 118 31 165 19 220 49
220 122 0 24 -4 43 -10 43 -5 0 -10 7 -10 15 0 17 -46 65 -62 65 -5 0 -18 9
-30 20 -12 11 -30 20 -39 20 -10 0 -21 5 -24 10 -4 6 32 10 99 10 58 0 106 4
106 9 0 4 41 11 91 13 50 3 94 10 98 14 8 12 22 14 103 21 38 3 68 10 68 14 0
5 11 9 24 9 13 0 26 7 30 15 3 8 17 15 31 15 18 0 25 5 25 19 0 11 5 21 11 23
6 2 9 13 7 24 -3 19 -4 19 -20 2z m-1054 -883 c-4 -8 -12 -15 -20 -15 -17 0
-18 17 -1 23 22 9 27 7 21 -8z m76 -5 c0 -15 -7 -20 -25 -20 -18 0 -25 5 -25
20 0 15 7 20 25 20 18 0 25 -5 25 -20z m-180 -24 c0 -2 -7 -6 -15 -10 -8 -3
-15 -1 -15 4 0 6 7 10 15 10 8 0 15 -2 15 -4z m204 -22 c12 -31 6 -102 -10
-118 -9 -9 -32 -16 -55 -16 -21 0 -39 -4 -39 -10 0 -18 -108 -12 -130 7 -24
21 -27 77 -4 95 8 7 25 23 37 35 19 19 33 22 108 22 70 1 88 -2 93 -15z m56
-59 c0 -16 -6 -25 -15 -25 -9 0 -15 9 -15 25 0 16 6 25 15 25 9 0 15 -9 15
-25z"/>
<path d="M820 210 c11 -7 7 -10 -18 -10 -24 0 -42 -9 -63 -29 -34 -35 -35 -41
-9 -64 22 -18 106 -25 95 -7 -4 6 7 10 24 10 17 0 31 5 31 11 0 6 6 9 12 7 19
-7 38 17 38 46 0 23 -4 26 -37 27 -34 1 -35 2 -13 9 20 6 15 8 -25 9 -36 0
-46 -2 -35 -9z m56 -49 c-21 -23 -116 -34 -116 -14 0 7 15 14 33 17 28 5 62
10 91 15 5 0 1 -8 -8 -18z"/>
<path d="M940 1150 c0 -5 5 -10 10 -10 6 0 10 5 10 10 0 6 -4 10 -10 10 -5 0
-10 -4 -10 -10z"/>
<path d="M1065 1150 c3 -5 8 -10 11 -10 2 0 4 5 4 10 0 6 -5 10 -11 10 -5 0
-7 -4 -4 -10z"/>
<path d="M515 1130 c-3 -5 -21 -10 -38 -10 -26 -1 -29 -3 -15 -10 19 -11 68 3
68 20 0 13 -7 13 -15 0z"/>
<path d="M730 1110 c0 -5 4 -10 9 -10 5 0 16 -3 25 -6 11 -4 16 -1 16 10 0 10
-9 16 -25 16 -14 0 -25 -4 -25 -10z"/>
<path d="M880 1112 c0 -5 7 -9 15 -9 8 0 15 4 15 9 0 4 -7 8 -15 8 -8 0 -15
-4 -15 -8z"/>
<path d="M1485 1110 c-4 -7 3 -8 22 -4 38 9 42 14 10 14 -14 0 -29 -5 -32 -10z"/>
<path d="M493 1089 c-25 -8 34 -21 111 -22 54 -2 59 -4 63 -27 7 -47 21 -42
16 7 -7 57 -6 57 -30 45 -10 -5 -46 -6 -80 -3 -34 4 -70 4 -80 0z"/>
<path d="M1090 1069 c0 -5 16 -9 35 -9 19 0 35 4 35 8 0 4 -16 8 -35 9 -19 1
-35 -3 -35 -8z"/>
<path d="M817 1050 c-13 -16 -14 -20 -3 -20 8 0 16 -8 18 -17 3 -10 6 -1 9 20
6 42 1 46 -24 17z"/>
<path d="M450 1053 c0 -8 62 -38 167 -81 59 -25 63 -26 63 -12 0 5 -12 13 -27
16 -15 4 -38 13 -52 20 -14 8 -33 14 -41 14 -8 0 -35 11 -59 25 -47 27 -51 29
-51 18z"/>
<path d="M720 1010 c0 -5 5 -10 11 -10 5 0 7 5 4 10 -3 6 -8 10 -11 10 -2 0
-4 -4 -4 -10z"/>
<path d="M859 878 c9 -45 30 -48 28 -4 -1 26 -7 36 -18 36 -13 0 -15 -6 -10
-32z"/>
<path d="M31 874 c0 -11 3 -14 6 -6 3 7 2 16 -1 19 -3 4 -6 -2 -5 -13z"/>
<path d="M275 870 c-3 -5 -1 -10 4 -10 6 0 11 5 11 10 0 6 -2 10 -4 10 -3 0
-8 -4 -11 -10z"/>
<path d="M44 803 c-5 -25 -3 -38 5 -41 6 -2 11 -18 11 -35 0 -24 3 -28 10 -17
7 11 10 7 10 -17 0 -18 5 -33 11 -33 7 0 10 -12 7 -30 -3 -16 -1 -30 4 -30 4
0 8 -8 8 -17 1 -26 35 -95 43 -86 4 3 7 -3 7 -15 0 -11 7 -27 15 -36 8 -8 15
-20 15 -26 0 -16 26 -41 34 -32 4 3 4 -1 1 -10 -5 -11 2 -26 19 -43 14 -14 26
-30 26 -35 0 -6 5 -10 11 -10 6 0 27 -14 46 -30 18 -17 40 -30 48 -30 8 0 15
-4 15 -10 0 -5 7 -10 15 -10 8 0 15 -4 15 -10 0 -5 11 -10 25 -10 14 0 25 -3
25 -7 0 -15 164 -9 183 7 18 15 24 46 7 35 -5 -3 -10 1 -10 10 0 11 -5 15 -15
11 -8 -3 -15 -2 -15 3 0 5 -21 15 -46 22 -26 8 -49 20 -51 27 -3 6 -9 12 -14
12 -8 0 -91 36 -157 69 -19 9 -45 26 -58 39 -14 12 -29 22 -35 22 -5 0 -12 6
-15 14 -3 8 -12 12 -20 9 -10 -4 -19 5 -27 26 -6 17 -17 31 -24 31 -10 0 -33
56 -33 82 0 9 41 -3 68 -20 12 -8 22 -11 22 -6 0 4 15 -9 33 -29 32 -36 119
-83 136 -73 4 3 17 -3 28 -14 12 -10 24 -16 27 -13 3 4 6 1 6 -6 0 -7 4 -10 8
-7 13 8 156 -16 163 -26 3 -5 9 -9 13 -8 10 2 120 -12 129 -17 14 -8 -22 -33
-39 -26 -11 4 -15 3 -11 -4 14 -22 -100 -40 -156 -25 -22 6 -39 7 -43 1 -3 -5
4 -9 15 -9 10 0 21 -5 23 -12 3 -8 33 -14 84 -16 59 -2 75 0 64 8 -12 8 -9 9
13 4 17 -4 27 -2 27 5 0 6 6 11 14 11 7 0 19 7 26 15 7 8 21 15 31 15 11 0 19
7 19 18 0 21 -66 52 -109 52 -17 0 -33 4 -36 10 -3 6 -18 10 -33 10 -34 0
-142 32 -142 42 0 4 -10 8 -22 8 -21 0 -206 85 -218 100 -3 4 -20 13 -37 21
-18 8 -33 20 -33 26 0 7 -5 13 -11 13 -15 0 -60 36 -53 43 3 2 -6 14 -20 25
-28 21 -46 60 -46 98 0 39 -28 29 -36 -13z m111 -173 c3 -5 1 -10 -4 -10 -6 0
-11 5 -11 10 0 6 2 10 4 10 3 0 8 -4 11 -10z m-25 -20 c0 -5 -2 -10 -4 -10 -3
0 -8 5 -11 10 -3 6 -1 10 4 10 6 0 11 -4 11 -10z m170 -248 c11 -10 36 -24 57
-31 21 -7 57 -21 80 -32 24 -10 49 -19 57 -19 8 0 18 -4 21 -10 3 -5 29 -21
58 -34 60 -29 48 -41 -36 -34 -59 6 -177 56 -177 75 0 7 -4 13 -8 13 -14 0
-92 76 -85 83 9 10 12 9 33 -11z"/>
<path d="M850 819 c0 -11 5 -17 10 -14 6 3 10 13 10 21 0 8 -4 14 -10 14 -5 0
-10 -9 -10 -21z"/>
<path d="M771 613 c-18 -7 42 -33 76 -33 13 0 34 -5 46 -12 12 -6 42 -13 67
-14 25 -1 48 -3 53 -3 15 -2 7 -51 -9 -51 -8 0 -12 -4 -9 -10 6 -10 -6 -14
-37 -11 -10 1 -18 -2 -18 -8 0 -6 -30 -11 -67 -13 -89 -4 -95 -24 -6 -22 102
2 110 3 125 18 8 8 23 16 34 18 14 2 20 14 25 46 5 39 3 44 -21 56 -15 7 -40
12 -55 10 -36 -4 -55 7 -29 17 16 6 14 8 -9 8 -19 1 -26 -3 -21 -11 5 -7 3 -8
-6 -3 -7 4 -28 8 -47 7 -20 -1 -31 3 -28 8 7 11 -40 12 -64 3z"/>
<path d="M190 561 c0 -9 24 -21 43 -21 6 0 2 7 -9 15 -22 17 -34 19 -34 6z"/>
<path d="M210 490 c0 -5 5 -10 10 -10 6 0 10 5 10 10 0 6 -4 10 -10 10 -5 0
-10 -4 -10 -10z"/>
<path d="M310 453 c0 -13 5 -23 10 -23 13 0 13 11 0 30 -8 12 -10 11 -10 -7z"/>
<path d="M345 420 c-3 -4 7 -11 21 -14 35 -9 39 -4 8 11 -13 6 -26 8 -29 3z"/>
<path d="M560 370 l-35 -6 37 -8 c39 -8 89 7 52 15 -11 3 -35 2 -54 -1z"/>
</g>
</svg>
