<?xml version="1.0" standalone="no"?>
<!DOCTYPE svg PUBLIC "-//W3C//DTD SVG 20010904//EN"
 "http://www.w3.org/TR/2001/REC-SVG-20010904/DTD/svg10.dtd">
<svg version="1.0" xmlns="http://www.w3.org/2000/svg"
 width="100.000000pt" height="100.000000pt" viewBox="0 0 100.000000 100.000000"
 preserveAspectRatio="xMidYMid meet">
<metadata>
Created by potrace 1.16, written by Peter Selinger 2001-2019
</metadata>
<g transform="translate(0.000000,100.000000) scale(0.100000,-0.100000)"
fill="#000000" stroke="none">
<path d="M420 865 l0 -95 -35 0 c-32 0 -35 -2 -35 -30 0 -27 -3 -30 -30 -30
-29 0 -30 -1 -30 -50 0 -49 1 -50 30 -50 29 0 30 -2 30 -45 0 -25 -4 -45 -10
-45 -5 0 -10 14 -10 30 0 29 -1 30 -50 30 -49 0 -50 -1 -50 -30 l0 -30 -60 0
-60 0 0 -30 c0 -28 -3 -30 -35 -30 -32 0 -35 -2 -35 -30 0 -23 -4 -30 -20 -30
-11 0 -20 -4 -20 -10 0 -5 13 -10 30 -10 l30 0 0 -65 0 -65 -30 0 c-17 0 -30
-4 -30 -10 0 -5 9 -10 20 -10 16 0 20 -7 20 -30 0 -28 3 -30 35 -30 32 0 35
-2 35 -30 l0 -30 60 0 60 0 0 -35 0 -35 270 0 270 0 0 35 0 35 60 0 60 0 0 30
c0 28 3 30 35 30 32 0 35 2 35 30 0 23 4 30 20 30 11 0 20 5 20 10 0 6 -13 10
-30 10 -27 0 -30 -3 -30 -30 0 -28 -3 -30 -35 -30 -32 0 -35 -2 -35 -30 l0
-30 -60 0 -60 0 0 30 0 30 -65 0 c-40 0 -65 -4 -65 -11 0 -6 15 -10 33 -8 54
3 87 -1 87 -11 0 -6 -85 -10 -235 -10 -150 0 -235 4 -235 10 0 6 23 10 50 10
28 0 50 5 50 10 0 6 -27 10 -60 10 l-60 0 0 -30 0 -30 -60 0 -60 0 0 30 c0 27
3 30 30 30 23 0 30 -4 30 -20 0 -11 5 -20 10 -20 6 0 10 9 10 19 0 11 6 22 13
24 6 3 2 6 -10 6 -18 1 -23 7 -23 26 0 21 -5 25 -30 25 l-30 0 0 65 0 65 30 0
c23 0 30 4 30 20 0 16 7 20 30 20 17 0 30 5 30 10 0 6 9 10 20 10 11 0 20 -4
20 -10 0 -5 14 -10 30 -10 17 0 30 5 30 10 0 6 -9 10 -20 10 -16 0 -20 7 -20
30 0 27 3 30 30 30 l30 0 0 -60 0 -60 35 0 c33 0 35 -2 35 -35 0 -33 -2 -35
-35 -35 -31 0 -35 3 -35 25 0 14 -4 25 -10 25 -5 0 -10 -9 -10 -20 0 -24 -18
-27 -27 -4 -4 11 1 22 12 30 18 13 18 14 -3 14 -18 0 -22 -6 -22 -35 0 -32 2
-35 30 -35 27 0 30 -3 30 -30 0 -25 4 -30 25 -30 18 0 25 -5 25 -20 0 -11 5
-20 10 -20 6 0 10 5 10 10 0 16 32 11 46 -7 12 -16 13 -16 14 -2 0 11 11 18
30 21 26 4 30 1 30 -19 0 -22 -3 -23 -92 -24 -77 -1 -86 -3 -53 -10 48 -10
127 -11 149 -3 10 4 16 18 16 40 0 27 4 34 20 34 18 0 20 7 20 55 l0 55 34 0
c19 0 38 5 41 10 3 6 17 10 31 10 13 0 24 4 24 9 0 5 -9 7 -20 4 -16 -4 -20 0
-20 21 0 19 5 26 20 26 16 0 20 7 20 30 l0 30 60 0 60 0 0 -30 c0 -28 3 -30
35 -30 32 0 35 -2 35 -30 0 -27 3 -30 30 -30 17 0 30 5 30 10 0 6 -9 10 -20
10 -16 0 -20 7 -20 30 0 28 -3 30 -35 30 -32 0 -35 2 -35 30 l0 30 -60 0 -60
0 0 30 c0 27 -3 30 -30 30 l-30 0 0 65 0 65 -35 0 -35 0 0 60 0 60 -30 0 -30
0 0 65 0 65 -80 0 -80 0 0 -95z m140 10 l0 -65 -30 0 c-27 0 -30 -3 -30 -30 0
-27 -3 -30 -30 -30 l-30 0 0 95 0 95 60 0 60 0 0 -65z m60 -125 c0 -57 -1 -60
-25 -60 -14 0 -25 5 -25 10 0 6 -11 10 -25 10 -14 0 -25 -4 -25 -10 0 -5 9
-10 20 -10 16 0 20 -7 20 -30 0 -27 -3 -30 -30 -30 l-30 0 0 60 c0 53 2 60 19
60 11 0 23 -4 26 -10 3 -5 17 -10 30 -10 13 0 27 5 30 10 4 6 -5 10 -19 10
-22 0 -26 4 -26 30 0 27 3 30 30 30 l30 0 0 -60z m-80 30 c0 -5 -4 -10 -10
-10 -5 0 -10 5 -10 10 0 6 5 10 10 10 6 0 10 -4 10 -10z m-100 -90 l0 -60 30
0 c28 0 30 -3 30 -35 0 -32 -2 -35 -30 -35 -26 0 -30 3 -30 29 0 17 -6 31 -16
35 -23 9 -34 7 -34 -4 0 -5 7 -10 15 -10 8 0 15 -7 15 -15 0 -8 -7 -15 -15
-15 -8 0 -15 -4 -15 -10 0 -5 11 -10 25 -10 21 0 25 -5 25 -30 0 -28 -3 -30
-35 -30 l-35 0 0 65 0 65 -30 0 c-27 0 -30 3 -30 30 0 27 3 30 30 30 25 0 30
-4 30 -25 0 -14 5 -25 10 -25 6 0 10 7 10 15 0 8 7 15 15 15 8 0 15 5 15 10 0
6 -11 10 -25 10 -21 0 -25 5 -25 30 0 28 3 30 35 30 l35 0 0 -60z m40 0 c0
-22 -4 -40 -10 -40 -5 0 -10 18 -10 40 0 22 5 40 10 40 6 0 10 -18 10 -40z
m210 -65 l0 -65 30 0 c27 0 30 -3 30 -30 0 -27 -3 -30 -30 -30 -23 0 -30 4
-30 20 0 11 -4 20 -10 20 -5 0 -10 -4 -10 -9 0 -5 -10 -12 -22 -16 -21 -7 -20
-8 10 -12 l32 -4 0 -60 0 -59 -65 0 -65 0 0 60 0 60 30 0 c27 0 30 3 30 30 0
25 4 30 25 30 14 0 25 5 25 10 0 6 -7 10 -15 10 -8 0 -15 7 -15 15 0 8 7 15
15 15 8 0 15 5 15 10 0 6 -11 10 -25 10 -21 0 -25 5 -25 30 0 28 3 30 35 30
l35 0 0 -65z m-90 35 c0 -5 -4 -10 -10 -10 -5 0 -10 5 -10 10 0 6 5 10 10 10
6 0 10 -4 10 -10z m20 -65 c0 -32 -2 -35 -30 -35 -28 0 -30 3 -30 35 0 32 2
35 30 35 28 0 30 -3 30 -35z m-80 0 c0 -8 -4 -15 -10 -15 -5 0 -10 7 -10 15 0
8 5 15 10 15 6 0 10 -7 10 -15z m-230 -65 c0 -27 -3 -30 -30 -30 -27 0 -30 3
-30 30 0 27 3 30 30 30 27 0 30 -3 30 -30z m250 0 c0 -27 -3 -30 -30 -30 -27
0 -30 3 -30 30 0 27 3 30 30 30 27 0 30 -3 30 -30z m-80 0 c0 -5 -4 -10 -10
-10 -5 0 -10 5 -10 10 0 6 5 10 10 10 6 0 10 -4 10 -10z m120 0 c0 -5 -4 -10
-10 -10 -5 0 -10 5 -10 10 0 6 5 10 10 10 6 0 10 -4 10 -10z m-350 -60 c0 -25
-4 -30 -24 -30 -19 0 -23 4 -19 20 3 11 0 20 -6 20 -6 0 -11 -9 -11 -20 0 -16
-7 -20 -30 -20 -27 0 -30 3 -30 30 l0 30 60 0 60 0 0 -30z m250 4 c0 -17 6
-28 20 -31 20 -5 29 -43 10 -43 -5 0 -10 -4 -10 -10 0 -5 9 -10 20 -10 18 0
20 -7 20 -65 l0 -65 -60 0 -60 0 0 30 c0 27 3 30 30 30 l30 0 0 65 0 65 -30 0
c-27 0 -30 3 -30 30 0 27 3 30 30 30 26 0 30 -4 30 -26z m-210 -4 c0 -5 -4
-10 -10 -10 -5 0 -10 5 -10 10 0 6 5 10 10 10 6 0 10 -4 10 -10z m130 -20 c0
-27 3 -30 30 -30 29 0 30 -2 30 -45 0 -25 -4 -45 -10 -45 -5 0 -10 16 -10 35
0 33 -2 35 -35 35 -34 0 -35 1 -35 40 0 29 4 40 15 40 10 0 15 -10 15 -30z
m120 20 c0 -5 -4 -10 -10 -10 -5 0 -10 5 -10 10 0 6 5 10 10 10 6 0 10 -4 10
-10z m190 0 c0 -5 -4 -10 -10 -10 -5 0 -10 5 -10 10 0 6 5 10 10 10 6 0 10 -4
10 -10z m-600 -60 c0 -28 -3 -30 -35 -30 -32 0 -35 2 -35 30 0 28 3 30 35 30
32 0 35 -2 35 -30z m50 0 c0 -5 -7 -10 -15 -10 -8 0 -15 5 -15 10 0 6 7 10 15
10 8 0 15 -4 15 -10z m-70 -95 c0 -33 -4 -45 -15 -45 -11 0 -15 12 -15 45 0
33 4 45 15 45 11 0 15 -12 15 -45z m500 33 c0 -34 -14 -88 -21 -88 -5 0 -9 23
-9 50 0 38 4 50 15 50 8 0 15 -6 15 -12z m-190 -68 c0 -5 -7 -10 -15 -10 -8 0
-15 5 -15 10 0 6 7 10 15 10 8 0 15 -4 15 -10z m-290 -60 c0 -28 -3 -30 -35
-30 -32 0 -35 2 -35 30 0 28 3 30 35 30 32 0 35 -2 35 -30z m40 0 c0 -5 -4
-10 -10 -10 -5 0 -10 5 -10 10 0 6 5 10 10 10 6 0 10 -4 10 -10z m580 -125 l0
-35 -250 0 -250 0 0 35 0 35 250 0 250 0 0 -35z"/>
<path d="M500 905 c0 -8 5 -15 10 -15 6 0 10 7 10 15 0 8 -4 15 -10 15 -5 0
-10 -7 -10 -15z"/>
<path d="M460 859 c0 -6 9 -9 20 -6 15 4 20 0 20 -16 l0 -21 20 22 c27 29 26
32 -20 32 -23 0 -40 -5 -40 -11z"/>
<path d="M460 820 c0 -5 5 -10 10 -10 6 0 10 5 10 10 0 6 -4 10 -10 10 -5 0
-10 -4 -10 -10z"/>
<path d="M620 460 c0 -15 -7 -20 -25 -20 -14 0 -25 -4 -25 -10 0 -5 11 -10 24
-10 13 0 27 -6 30 -12 5 -10 7 -10 12 0 3 6 12 12 20 12 8 0 14 5 14 10 0 6
-9 10 -19 10 -14 0 -18 5 -14 20 3 11 0 20 -6 20 -6 0 -11 -9 -11 -20z"/>
<path d="M520 320 c0 -5 5 -10 10 -10 6 0 10 5 10 10 0 6 -4 10 -10 10 -5 0
-10 -4 -10 -10z"/>
<path d="M480 280 c0 -5 5 -10 10 -10 6 0 10 5 10 10 0 6 -4 10 -10 10 -5 0
-10 -4 -10 -10z"/>
<path d="M310 95 c0 -8 5 -15 10 -15 6 0 10 7 10 15 0 8 -4 15 -10 15 -5 0
-10 -7 -10 -15z"/>
<path d="M370 95 c0 -8 5 -15 10 -15 6 0 10 7 10 15 0 8 -4 15 -10 15 -5 0
-10 -7 -10 -15z"/>
<path d="M441 94 c0 -11 3 -14 6 -6 3 7 2 16 -1 19 -3 4 -6 -2 -5 -13z"/>
<path d="M551 94 c0 -11 3 -14 6 -6 3 7 2 16 -1 19 -3 4 -6 -2 -5 -13z"/>
<path d="M600 95 c0 -8 5 -15 10 -15 6 0 10 7 10 15 0 8 -4 15 -10 15 -5 0
-10 -7 -10 -15z"/>
<path d="M670 95 c0 -8 5 -15 10 -15 6 0 10 7 10 15 0 8 -4 15 -10 15 -5 0
-10 -7 -10 -15z"/>
<path d="M790 461 c0 -11 -6 -22 -12 -24 -7 -3 -3 -6 10 -6 17 -1 22 -7 22
-26 0 -21 5 -25 30 -25 l30 0 0 -65 0 -65 -30 0 c-25 0 -30 -4 -30 -24 0 -14
-4 -28 -10 -31 -5 -3 -10 -15 -10 -26 0 -10 5 -19 10 -19 6 0 10 9 10 20 0 15
7 20 25 20 20 0 27 6 32 30 3 20 12 30 23 30 42 0 50 11 50 65 0 55 -8 65 -50
65 -13 0 -20 9 -22 28 -2 21 -9 28 -30 30 -20 2 -28 9 -28 23 0 10 -4 19 -10
19 -5 0 -10 -9 -10 -19z m60 -51 c0 -5 -4 -10 -10 -10 -5 0 -10 5 -10 10 0 6
5 10 10 10 6 0 10 -4 10 -10z m70 -95 c0 -32 -4 -45 -14 -45 -17 0 -23 23 -18
63 7 47 32 33 32 -18z m-70 -95 c0 -5 -4 -10 -10 -10 -5 0 -10 5 -10 10 0 6 5
10 10 10 6 0 10 -4 10 -10z"/>
<path d="M215 390 c-18 -8 -17 -9 8 -9 15 -1 27 4 27 9 0 12 -8 12 -35 0z"/>
<path d="M0 300 c0 -5 9 -10 20 -10 11 0 20 5 20 10 0 6 -9 10 -20 10 -11 0
-20 -4 -20 -10z"/>
</g>
</svg>
