<?xml version="1.0" standalone="no"?>
<!DOCTYPE svg PUBLIC "-//W3C//DTD SVG 20010904//EN"
 "http://www.w3.org/TR/2001/REC-SVG-20010904/DTD/svg10.dtd">
<svg version="1.0" xmlns="http://www.w3.org/2000/svg"
 width="100.000000pt" height="100.000000pt" viewBox="0 0 100.000000 100.000000"
 preserveAspectRatio="xMidYMid meet">
<metadata>
Created by potrace 1.16, written by Peter Selinger 2001-2019
</metadata>
<g transform="translate(0.000000,100.000000) scale(0.100000,-0.100000)"
fill="#000000" stroke="none">
<path d="M410 930 c0 -5 -7 -10 -15 -10 -8 0 -15 -4 -15 -10 0 -5 -9 -10 -20
-10 -11 0 -20 -4 -20 -10 0 -5 -9 -10 -20 -10 -11 0 -20 -4 -20 -10 0 -5 -8
-10 -18 -10 -10 0 -24 -9 -32 -20 -8 -11 -19 -20 -25 -20 -6 0 -17 -9 -25 -20
-10 -14 -26 -20 -52 -20 l-38 0 0 -50 c0 -27 -4 -50 -10 -50 -5 0 -10 -13 -10
-30 0 -16 -4 -30 -10 -30 -6 0 -10 -57 -10 -150 0 -93 4 -150 10 -150 6 0 10
-13 10 -30 0 -16 5 -30 10 -30 6 0 10 -7 10 -15 0 -23 106 -125 130 -125 11 0
20 -4 20 -10 0 -5 9 -10 20 -10 11 0 20 -4 20 -10 0 -5 9 -10 20 -10 11 0 20
-4 20 -10 0 -6 67 -10 180 -10 113 0 180 4 180 10 0 6 9 10 20 10 11 0 20 5
20 10 0 6 9 10 21 10 33 0 49 25 49 74 0 43 2 46 26 46 29 0 54 21 54 44 0 9
5 16 10 16 6 0 10 9 10 20 0 11 5 20 10 20 6 0 10 14 10 30 0 20 5 30 15 30
13 0 15 20 15 120 0 100 -2 120 -15 120 -10 0 -15 10 -15 30 0 17 -4 30 -10
30 -5 0 -10 9 -10 20 0 11 5 20 10 20 6 0 10 27 10 60 l0 60 -70 0 c-40 0 -70
4 -70 10 0 6 -11 10 -25 10 -14 0 -25 5 -25 10 0 6 -9 10 -20 10 -11 0 -20 5
-20 10 0 6 -18 10 -40 10 -22 0 -40 5 -40 10 0 6 -7 10 -15 10 -8 0 -15 5 -15
10 0 6 -37 10 -90 10 -53 0 -90 -4 -90 -10z m160 -20 c0 -5 7 -10 15 -10 8 0
15 -4 15 -10 0 -5 18 -10 40 -10 22 0 40 -4 40 -10 0 -5 9 -10 20 -10 11 0 20
-4 20 -10 0 -5 10 -10 23 -10 12 0 29 -9 37 -20 15 -21 50 -28 50 -10 0 6 18
10 40 10 39 0 40 -1 40 -36 0 -25 -7 -43 -22 -57 -16 -13 -19 -21 -10 -24 6
-3 12 -13 12 -24 0 -10 5 -19 10 -19 6 0 10 -13 10 -30 0 -20 5 -30 15 -30 12
0 15 -18 15 -100 0 -82 -3 -100 -15 -100 -10 0 -15 -10 -15 -30 0 -16 -4 -30
-10 -30 -5 0 -10 -9 -10 -20 0 -11 -4 -20 -10 -20 -5 0 -10 -7 -10 -16 0 -20
-24 -44 -44 -44 -11 0 -16 9 -16 30 0 17 5 30 10 30 6 0 10 9 10 20 0 11 5 20
10 20 6 0 10 14 10 30 0 17 5 30 10 30 6 0 10 30 10 70 0 40 -4 70 -10 70 -5
0 -10 14 -10 30 0 17 -4 30 -10 30 -5 0 -10 9 -10 20 0 11 -3 20 -6 20 -10 0
-34 -28 -34 -40 0 -14 -25 -40 -39 -40 -6 0 -11 -13 -11 -30 0 -16 -4 -30 -10
-30 -6 0 -10 -37 -10 -90 0 -53 4 -90 10 -90 6 0 10 -18 10 -40 0 -29 4 -40
15 -40 8 0 15 -9 15 -20 0 -11 5 -20 10 -20 15 0 12 -49 -4 -66 -8 -8 -24 -14
-35 -14 -12 0 -21 -4 -21 -10 0 -5 -9 -10 -20 -10 -11 0 -20 -4 -20 -10 0 -6
-60 -10 -160 -10 -100 0 -160 4 -160 10 0 6 -9 10 -20 10 -11 0 -20 5 -20 10
0 6 -9 10 -20 10 -11 0 -20 5 -20 10 0 6 -9 10 -20 10 -24 0 -130 102 -130
125 0 8 -4 15 -10 15 -5 0 -10 14 -10 30 0 17 -4 30 -10 30 -6 0 -10 50 -10
130 0 80 4 130 10 130 6 0 10 14 10 30 0 17 5 30 10 30 6 0 10 23 10 50 l0 50
38 0 c26 0 42 6 52 20 8 11 19 20 25 20 6 0 17 9 25 20 8 11 22 20 32 20 10 0
18 5 18 10 0 6 9 10 20 10 11 0 20 5 20 10 0 6 9 10 20 10 11 0 20 5 20 10 0
6 7 10 15 10 8 0 15 5 15 10 0 6 30 10 70 10 40 0 70 -4 70 -10z m260 -360 c0
-16 5 -30 10 -30 6 0 10 -22 10 -50 0 -27 -4 -50 -10 -50 -5 0 -10 -13 -10
-30 0 -16 -4 -30 -10 -30 -5 0 -10 -9 -10 -20 0 -11 -4 -20 -10 -20 -5 0 -10
-13 -10 -30 0 -20 -5 -30 -15 -30 -11 0 -15 11 -15 40 0 22 -4 40 -10 40 -6 0
-10 30 -10 70 0 40 4 70 10 70 6 0 10 14 10 30 0 18 5 30 13 30 7 0 19 9 27
20 20 28 30 25 30 -10z"/>
<path d="M310 780 c-8 -11 -22 -20 -32 -20 -10 0 -18 -7 -18 -15 0 -20 65 -85
85 -85 8 0 15 -4 15 -10 0 -5 9 -10 20 -10 11 0 20 -4 20 -10 0 -5 11 -10 25
-10 14 0 25 3 25 6 0 8 -27 34 -35 34 -12 0 -35 29 -35 44 0 9 -4 16 -10 16
-5 0 -10 18 -10 40 0 32 -4 40 -18 40 -10 0 -24 -9 -32 -20z m30 -49 c0 -16 6
-31 13 -34 6 -2 9 -8 5 -12 -4 -4 -19 5 -33 19 -22 22 -24 28 -13 41 20 22 28
18 28 -14z"/>
<path d="M640 745 c0 -46 -4 -60 -25 -80 -13 -14 -29 -25 -35 -25 -5 0 -10 -4
-10 -10 0 -5 7 -10 15 -10 8 0 15 5 15 10 0 6 9 10 20 10 11 0 20 5 20 10 0 6
7 10 15 10 9 0 31 16 51 35 l35 35 -25 25 c-14 14 -32 25 -41 25 -8 0 -15 5
-15 10 0 6 -4 10 -10 10 -5 0 -10 -25 -10 -55z m46 0 c14 -13 14 -17 0 -30
-21 -22 -26 -19 -26 15 0 34 5 37 26 15z"/>
<path d="M170 620 c0 -11 -4 -20 -10 -20 -6 0 -10 -40 -10 -100 0 -60 4 -100
10 -100 6 0 10 -13 10 -28 0 -16 8 -34 20 -42 11 -8 20 -20 20 -28 0 -14 24
-42 35 -42 4 0 20 -13 35 -30 52 -56 60 -45 60 89 0 86 4 121 13 125 10 5 10
7 0 12 -7 3 -13 12 -13 20 0 14 -83 104 -96 104 -3 0 -19 14 -34 30 -33 35
-40 37 -40 10z m40 -50 c0 -5 5 -10 10 -10 6 0 31 -20 55 -45 l45 -44 0 -116
c0 -63 -4 -115 -8 -115 -4 0 -14 9 -22 20 -8 11 -18 20 -23 20 -13 0 -37 27
-37 42 0 8 -9 20 -20 28 -12 8 -20 26 -20 42 0 15 -4 28 -10 28 -6 0 -10 33
-10 80 0 73 2 80 20 80 11 0 20 -4 20 -10z"/>
<path d="M470 610 c0 -5 18 -10 40 -10 22 0 40 5 40 10 0 6 -18 10 -40 10 -22
0 -40 -4 -40 -10z"/>
</g>
</svg>
