<?xml version="1.0" standalone="no"?>
<!DOCTYPE svg PUBLIC "-//W3C//DTD SVG 20010904//EN"
 "http://www.w3.org/TR/2001/REC-SVG-20010904/DTD/svg10.dtd">
<svg version="1.0" xmlns="http://www.w3.org/2000/svg"
 width="192.000000pt" height="192.000000pt" viewBox="0 0 192.000000 192.000000"
 preserveAspectRatio="xMidYMid meet">
<metadata>
Created by potrace 1.16, written by Peter Selinger 2001-2019
</metadata>
<g transform="translate(0.000000,192.000000) scale(0.100000,-0.100000)"
fill="#000000" stroke="none">
<path d="M848 1791 c-18 -15 -44 -32 -57 -36 -31 -9 -67 -32 -115 -70 -21 -16
-52 -35 -69 -41 -29 -10 -33 -16 -38 -60 -3 -27 -14 -69 -24 -94 -27 -67 -26
-256 2 -326 45 -114 129 -196 240 -235 116 -41 313 -34 413 14 44 22 45 23 48
75 3 49 5 52 30 52 30 0 64 47 98 135 25 67 26 258 0 324 -15 40 -15 47 -1 67
41 62 3 118 -77 113 -31 -2 -55 4 -88 23 -25 14 -63 31 -85 38 -51 16 -55 18
-85 35 -15 9 -52 15 -92 15 -60 0 -71 -3 -100 -29z m172 -6 c30 -17 34 -19 85
-34 22 -7 66 -28 97 -47 49 -30 60 -33 77 -22 24 14 68 2 84 -23 8 -12 5 -24
-12 -48 l-22 -31 22 -58 c30 -77 32 -224 5 -297 -28 -74 -68 -135 -89 -135
-23 0 -34 28 -18 49 24 32 51 101 61 149 10 53 -5 141 -33 195 l-14 28 -31
-48 c-73 -114 -81 -196 -31 -343 16 -50 29 -101 27 -113 -4 -31 -82 -65 -178
-79 -150 -22 -294 19 -388 110 -114 112 -150 291 -89 452 12 30 21 70 22 89 0
29 5 36 32 45 17 6 48 25 69 41 48 38 84 61 115 70 13 4 39 21 57 36 26 23 42
29 80 29 26 0 58 -7 72 -15z m259 -379 c6 -25 11 -61 11 -80 0 -42 -32 -130
-56 -158 -18 -18 -18 -18 -31 24 -21 72 -16 128 18 196 17 34 34 62 39 62 4 0
13 -20 19 -44z"/>
<path d="M784 1653 c-69 -40 -70 -41 -58 -60 17 -27 114 -90 166 -108 26 -8
62 -14 80 -14 l33 2 -30 4 c-85 11 -137 63 -153 153 l-7 40 -31 -17z m26 -75
l9 -28 -30 22 c-34 25 -36 33 -11 47 12 7 18 6 20 -2 2 -7 7 -24 12 -39z"/>
<path d="M1100 1630 c0 -41 -26 -101 -53 -123 l-22 -18 25 7 c26 7 109 63 129
88 10 11 6 19 -21 39 -56 41 -58 41 -58 7z m44 -29 c3 -5 -1 -14 -9 -21 -13
-10 -15 -9 -15 9 0 21 14 28 24 12z"/>
<path d="M620 1443 c-27 -127 10 -243 107 -339 l58 -57 2 54 c1 30 8 91 14
136 10 71 10 85 -3 105 -23 34 -146 158 -157 158 -5 0 -15 -26 -21 -57z m91
-45 c77 -80 81 -88 70 -139 -6 -24 -11 -71 -11 -103 l0 -59 -41 44 c-42 45
-81 119 -94 177 -8 39 3 132 16 132 5 0 32 -24 60 -52z"/>
</g>
</svg>
