<?xml version="1.0" standalone="no"?>
<!DOCTYPE svg PUBLIC "-//W3C//DTD SVG 20010904//EN"
 "http://www.w3.org/TR/2001/REC-SVG-20010904/DTD/svg10.dtd">
<svg version="1.0" xmlns="http://www.w3.org/2000/svg"
 width="180.000000pt" height="180.000000pt" viewBox="0 0 180.000000 180.000000"
 preserveAspectRatio="xMidYMid meet">
<metadata>
Created by potrace 1.16, written by Peter Selinger 2001-2019
</metadata>
<g transform="translate(0.000000,180.000000) scale(0.100000,-0.100000)"
fill="#000000" stroke="none">
<path d="M891 1446 c-19 -19 -59 -44 -90 -56 -31 -12 -65 -25 -76 -29 -16 -7
-13 -9 18 -15 20 -4 37 -9 37 -12 0 -2 -12 -23 -26 -45 -14 -23 -23 -43 -21
-45 2 -3 34 14 71 37 63 39 69 41 131 37 l65 -4 0 49 0 48 56 25 c31 14 55 27
52 29 -2 2 -34 -1 -70 -7 -59 -11 -69 -10 -86 5 -24 22 -23 23 -61 -17z m79
-66 l0 -35 -55 3 c-38 3 -61 -1 -77 -12 -29 -21 -38 -20 -38 3 0 12 12 23 33
32 17 7 47 25 65 41 28 24 35 26 52 16 14 -9 20 -24 20 -48z"/>
<path d="M1253 1412 c-26 -42 -37 -50 -107 -77 -43 -16 -74 -31 -69 -32 4 -2
35 -7 68 -11 l60 -7 0 -68 c0 -37 2 -67 3 -67 2 0 34 25 70 56 l67 55 95 -6
95 -7 -30 33 c-16 19 -34 37 -40 42 -6 4 9 26 39 53 l49 45 -79 -7 c-43 -4
-81 -8 -83 -10 -2 -2 -28 9 -57 25 l-52 30 -29 -47z m87 -17 c14 -8 47 -14 75
-15 38 0 46 -3 37 -12 -16 -16 -15 -60 1 -77 10 -11 1 -12 -54 -7 -66 6 -67 6
-109 -29 -23 -19 -46 -35 -50 -35 -5 0 -10 19 -12 42 -3 36 -7 43 -28 48 -24
6 -23 7 13 20 23 9 45 27 57 47 21 36 33 39 70 18z"/>
<path d="M496 1194 c-45 -51 -67 -66 -145 -95 -22 -9 -23 -11 -7 -28 21 -24
21 -24 -20 -88 -19 -30 -33 -57 -31 -59 2 -2 21 10 43 27 63 50 69 52 113 30
l38 -20 18 64 c16 59 22 68 73 107 83 61 83 61 25 53 l-52 -7 -3 36 -3 35 -49
-55z m37 -38 c3 -8 -3 -22 -13 -31 -11 -10 -27 -40 -36 -67 -12 -36 -20 -48
-31 -44 -8 3 -26 6 -39 6 -20 0 -24 5 -24 31 0 24 6 33 33 44 17 7 45 27 61
44 33 35 41 37 49 17z"/>
<path d="M1190 1025 l0 -72 -86 -59 -86 -59 90 -14 91 -14 20 -66 c11 -36 23
-78 26 -93 4 -16 10 -28 14 -27 3 0 33 35 66 78 l60 78 65 6 c36 4 86 7 113 7
26 0 47 2 47 4 0 2 -28 31 -62 64 l-63 61 32 77 c18 43 31 79 29 81 -1 2 -47
-10 -101 -26 l-97 -30 -79 38 -79 37 0 -71z m95 -2 l55 -27 68 18 c37 10 75
21 85 23 16 5 16 2 -3 -42 -30 -70 -26 -93 22 -142 l42 -43 -78 0 c-42 0 -85
-4 -95 -9 -9 -5 -37 -35 -61 -65 -25 -31 -47 -56 -51 -56 -3 0 -14 28 -24 63
-24 79 -28 84 -78 92 -83 13 -83 14 -18 58 l61 42 0 58 c0 31 4 57 10 57 5 0
34 -12 65 -27z"/>
<path d="M407 839 l-49 -59 -62 0 -62 0 10 -61 c10 -60 9 -62 -27 -129 -20
-37 -37 -71 -37 -74 0 -4 18 3 40 14 21 11 44 20 50 20 6 0 25 -20 42 -45 18
-25 34 -45 38 -45 3 0 14 33 24 73 10 39 22 79 27 88 4 9 40 35 79 59 38 23
70 44 70 45 0 2 -24 11 -52 21 -29 9 -54 18 -56 19 -2 2 2 31 9 64 6 34 10 63
8 65 -2 2 -26 -23 -52 -55z m46 -109 l32 -11 -53 -32 c-48 -29 -54 -37 -68
-87 -21 -71 -28 -78 -49 -46 -11 16 -26 26 -41 26 -28 0 -30 7 -8 39 13 17 15
36 10 76 l-6 52 52 6 c28 4 59 13 67 22 14 14 17 13 24 -9 5 -15 21 -29 40
-36z"/>
<path d="M848 724 l-77 -55 -60 16 c-33 8 -67 18 -76 21 -13 5 -15 -7 -15 -81
l0 -87 -67 -80 c-43 -52 -60 -79 -47 -75 10 3 51 8 89 11 l70 6 40 -86 40 -86
42 99 41 98 106 29 105 29 -75 56 c-72 54 -74 57 -69 91 2 20 13 61 23 93 11
31 17 57 13 56 -3 0 -41 -25 -83 -55z m28 -46 c-4 -13 -10 -39 -13 -58 -5 -34
-2 -38 52 -80 l58 -44 -79 -21 -79 -21 -36 -74 -36 -75 -32 63 -32 63 -54 -6
c-30 -4 -55 -5 -55 -2 0 3 18 27 40 53 39 47 40 51 40 122 0 72 1 74 23 67 12
-4 45 -9 72 -12 42 -4 56 0 85 21 44 31 54 32 46 4z"/>
</g>
</svg>
