<?xml version="1.0" standalone="no"?>
<!DOCTYPE svg PUBLIC "-//W3C//DTD SVG 20010904//EN"
 "http://www.w3.org/TR/2001/REC-SVG-20010904/DTD/svg10.dtd">
<svg version="1.0" xmlns="http://www.w3.org/2000/svg"
 width="192.000000pt" height="192.000000pt" viewBox="0 0 192.000000 192.000000"
 preserveAspectRatio="xMidYMid meet">
<metadata>
Created by potrace 1.16, written by Peter Selinger 2001-2019
</metadata>
<g transform="translate(0.000000,192.000000) scale(0.100000,-0.100000)"
fill="#000000" stroke="none">
<path d="M224 1533 c-6 -4 -14 -20 -17 -34 -9 -35 9 -173 22 -177 6 -2 11 -18
11 -35 0 -42 19 -107 30 -107 6 0 10 -24 10 -52 0 -36 7 -63 20 -83 11 -16 20
-40 20 -53 0 -12 7 -25 15 -28 8 -4 15 -11 15 -18 0 -6 16 -26 35 -43 19 -18
35 -37 35 -43 0 -5 9 -10 20 -10 11 0 23 -6 26 -14 3 -8 18 -18 34 -21 16 -3
34 -13 41 -21 7 -9 31 -14 69 -14 l58 0 3 -166 c4 -144 6 -167 21 -178 10 -7
18 -21 18 -30 0 -9 8 -16 20 -16 11 0 20 -7 20 -15 0 -8 9 -33 21 -55 l21 -40
125 0 c110 0 128 2 150 20 14 11 41 20 60 20 20 0 36 6 39 14 3 8 20 17 39 20
18 4 36 13 39 21 3 8 12 15 21 15 8 0 15 5 15 10 0 6 12 16 28 22 15 7 42 27
59 45 18 18 37 33 43 33 5 0 10 7 10 15 0 8 7 15 15 15 8 0 21 15 30 34 9 18
27 38 40 44 15 7 25 20 25 33 0 11 13 35 30 52 74 80 101 114 106 135 4 13 14
22 25 22 11 0 19 7 19 16 0 9 9 27 20 41 11 14 20 31 20 38 0 7 7 18 15 25 8
7 15 27 15 46 0 18 4 36 10 39 5 3 22 32 37 63 25 53 27 66 27 197 1 77 -2
148 -6 158 -6 15 -22 17 -130 17 -68 -1 -143 -5 -168 -10 -25 -5 -94 -12 -153
-16 -75 -5 -110 -11 -114 -20 -3 -7 -25 -16 -50 -20 -24 -3 -47 -13 -50 -20
-3 -8 -13 -14 -23 -14 -9 0 -29 -9 -43 -20 -14 -11 -34 -20 -44 -20 -11 0 -36
-16 -57 -35 -21 -19 -41 -35 -43 -35 -11 0 -53 -46 -53 -57 0 -7 -6 -13 -14
-13 -8 0 -17 -7 -20 -16 -9 -23 -26 -7 -26 26 0 38 -9 60 -26 60 -8 0 -14 10
-14 25 0 13 -12 41 -26 62 -28 42 -123 133 -137 133 -6 0 -16 8 -23 18 -11 15
-35 17 -206 20 -106 1 -198 -1 -204 -5z m390 -35 c7 -10 17 -18 23 -18 14 0
109 -91 137 -133 14 -21 26 -49 26 -62 0 -15 6 -25 14 -25 16 0 26 -21 26 -56
0 -14 8 -36 17 -48 l18 -23 17 20 c10 11 18 24 18 29 0 4 7 8 15 8 8 0 15 6
15 13 0 11 42 57 53 57 2 0 22 16 43 35 21 19 46 35 57 35 10 0 30 9 44 20 14
11 34 20 43 20 10 0 20 6 23 14 3 7 26 17 50 20 25 4 47 13 50 20 5 12 182 31
259 27 15 -1 29 3 33 9 4 6 53 10 116 10 95 0 111 -2 117 -17 4 -10 7 -72 6
-139 -1 -109 -4 -126 -28 -177 -14 -31 -31 -59 -36 -62 -6 -3 -10 -21 -10 -39
0 -19 -7 -39 -15 -46 -8 -7 -15 -18 -15 -25 0 -7 -9 -24 -20 -38 -11 -14 -20
-32 -20 -41 0 -9 -8 -16 -19 -16 -11 0 -21 -9 -25 -22 -5 -21 -32 -55 -106
-135 -17 -17 -30 -41 -30 -52 0 -13 -10 -26 -25 -33 -13 -6 -31 -26 -40 -44
-9 -19 -22 -34 -30 -34 -8 0 -15 -7 -15 -15 0 -8 -5 -15 -10 -15 -6 0 -25 -15
-43 -33 -17 -18 -44 -38 -59 -45 -16 -6 -28 -16 -28 -22 0 -5 -7 -10 -15 -10
-9 0 -18 -7 -21 -15 -3 -8 -21 -17 -39 -21 -19 -3 -36 -12 -39 -20 -3 -8 -19
-14 -39 -14 -19 0 -46 -9 -60 -20 -21 -17 -40 -20 -130 -20 l-105 0 -21 40
c-12 22 -21 47 -21 55 0 8 -9 15 -20 15 -12 0 -20 7 -20 16 0 9 -8 23 -17 30
-16 11 -18 34 -22 178 l-3 166 -58 0 c-38 0 -62 5 -69 14 -7 8 -25 18 -41 21
-16 3 -31 13 -34 21 -3 8 -15 14 -26 14 -11 0 -20 5 -20 10 0 6 -16 25 -35 43
-19 17 -35 37 -35 43 0 7 -7 14 -15 18 -8 3 -15 16 -15 28 0 13 -9 37 -20 53
-13 20 -20 47 -20 83 0 28 -4 52 -10 52 -12 0 -30 65 -30 108 0 17 -4 32 -9
32 -23 0 -32 157 -10 171 8 6 92 8 187 7 152 -3 175 -5 186 -20z"/>
<path d="M288 1502 c-11 -2 -15 -15 -14 -48 1 -29 5 -43 13 -40 15 6 30 -14
27 -39 -4 -34 -7 -109 -5 -132 2 -40 16 -25 15 17 0 21 3 37 7 34 4 -2 10 0
14 6 3 5 -2 10 -12 11 -10 0 -13 3 -6 5 7 3 9 12 6 20 -3 9 -1 25 5 37 19 39
19 52 1 84 l-18 32 29 -6 c31 -6 145 5 137 14 -6 5 -175 10 -199 5z m36 -82
c-8 -8 -15 -6 -24 5 -11 13 -10 14 5 9 14 -6 16 -4 10 7 -6 11 -5 12 6 2 9 -9
10 -16 3 -23z"/>
<path d="M550 1490 c9 -6 11 -13 5 -17 -5 -5 -11 -18 -12 -30 -2 -17 2 -23 18
-23 11 0 18 -4 14 -10 -3 -5 -13 -6 -23 -3 -13 4 -13 2 3 -10 11 -8 23 -13 27
-11 5 3 8 0 8 -6 0 -6 5 -8 10 -5 6 4 10 3 9 -2 -1 -4 3 -19 9 -33 10 -24 11
-24 11 -2 1 12 6 22 11 22 6 0 10 9 10 20 0 16 -5 19 -23 15 -17 -5 -28 1 -44
24 -13 16 -19 31 -14 33 13 5 -6 48 -21 48 -9 0 -9 -3 2 -10z"/>
<path d="M587 1465 c3 -14 9 -25 14 -25 5 0 5 -8 2 -17 -5 -13 -2 -15 11 -10
10 4 21 7 26 7 10 0 7 26 -4 37 -4 4 -6 3 -4 -2 6 -20 -17 -17 -28 4 -17 32
-22 34 -17 6z"/>
<path d="M440 1459 c0 -11 42 -39 51 -33 4 2 10 0 14 -6 3 -5 11 -10 17 -10 6
0 8 3 5 7 -4 3 -2 12 4 19 7 8 7 14 -1 19 -16 10 -90 13 -90 4z"/>
<path d="M430 1442 c6 -13 14 -21 18 -18 3 4 -2 14 -12 24 -18 16 -18 16 -6
-6z"/>
<path d="M1718 1443 c12 -2 30 -2 40 0 9 3 -1 5 -23 4 -22 0 -30 -2 -17 -4z"/>
<path d="M1438 1423 c-23 -6 -29 -28 -13 -50 13 -17 14 -16 9 10 -4 26 -3 27
36 27 22 0 40 -4 40 -10 0 -5 -14 -10 -31 -10 -19 0 -29 -4 -27 -12 6 -16 28
-19 144 -18 138 1 155 -4 153 -44 -2 -34 18 -92 28 -82 12 11 14 76 3 96 -8
15 -6 21 9 30 14 7 21 6 24 -3 3 -6 5 -1 4 13 l-1 25 -145 0 c-133 0 -146 2
-145 18 1 13 -6 17 -35 16 -20 -1 -43 -3 -53 -6z"/>
<path d="M1588 1423 c23 -2 59 -2 80 0 20 2 1 4 -43 4 -44 0 -61 -2 -37 -4z"/>
<path d="M1788 1423 c7 -3 16 -2 19 1 4 3 -2 6 -13 5 -11 0 -14 -3 -6 -6z"/>
<path d="M1374 1411 c5 -8 2 -11 -9 -9 -10 2 -20 -2 -22 -9 -3 -8 3 -11 16 -8
12 2 21 0 21 -4 0 -4 7 -8 14 -8 11 0 12 5 5 18 -5 10 -14 21 -21 25 -7 5 -8
3 -4 -5z"/>
<path d="M275 1390 c-3 -5 -1 -10 4 -10 6 0 11 5 11 10 0 6 -2 10 -4 10 -3 0
-8 -4 -11 -10z"/>
<path d="M369 1387 c-1 -7 -1 -16 0 -20 1 -5 -3 -6 -8 -3 -5 4 -12 2 -16 -4
-3 -5 1 -10 10 -10 12 0 15 -5 9 -22 -4 -13 -8 -34 -9 -48 -2 -14 -3 -25 -4
-25 -2 0 -3 -33 -4 -72 -1 -40 -5 -73 -10 -73 -4 0 -5 -5 -2 -10 10 -16 22 -3
29 30 3 19 10 29 17 25 6 -4 8 -13 5 -20 -5 -13 17 -15 29 -3 11 11 -27 46
-44 41 -13 -4 -13 -3 -2 5 10 7 14 34 14 96 0 48 4 89 8 92 14 8 11 21 -6 28
-8 3 -16 0 -16 -7z"/>
<path d="M669 1398 c0 -2 -2 -14 -3 -26 -2 -13 -8 -27 -15 -31 -9 -6 -8 -11 3
-20 14 -12 31 -58 27 -74 -1 -5 8 -11 20 -14 16 -4 17 -8 7 -14 -10 -7 -11 -9
0 -9 7 0 11 -4 7 -10 -3 -5 3 -18 13 -28 20 -20 25 -53 9 -63 -14 -9 2 -31 16
-23 8 5 8 2 -1 -7 -10 -11 -15 -9 -30 11 -9 14 -16 29 -14 34 4 13 -9 46 -18
46 -5 0 -7 -8 -3 -17 3 -10 3 -15 -2 -11 -4 4 -9 20 -11 35 -1 16 -3 35 -3 43
-1 12 -5 11 -16 -4 -20 -26 -19 -43 4 -67 11 -12 17 -32 16 -50 -2 -22 1 -29
11 -25 16 6 39 -30 25 -38 -12 -8 -2 -43 17 -58 13 -11 14 -11 7 1 -5 10 -4
12 3 7 13 -8 17 6 5 17 -3 4 -8 19 -9 33 -2 17 1 23 6 18 5 -5 10 -25 10 -44
2 -68 -5 -190 -10 -190 -3 0 -6 -8 -7 -17 0 -10 -2 -31 -3 -48 -2 -16 0 -70 3
-120 4 -57 3 -81 -2 -65 l-9 25 -1 -27 c-1 -16 4 -28 10 -28 7 0 10 -15 7 -39
-2 -22 0 -37 3 -35 4 2 9 -1 11 -7 7 -21 56 1 63 29 11 42 15 93 7 88 -4 -2
-8 4 -8 14 0 10 7 17 16 15 8 -1 14 -10 12 -19 -2 -9 2 -16 9 -16 7 0 10 13 7
34 -2 19 0 32 4 30 4 -3 8 0 8 5 0 6 -7 11 -15 11 -8 0 -15 6 -15 13 0 7 -7 4
-15 -7 -14 -18 -15 -9 -15 87 0 94 2 107 19 116 10 6 21 7 25 4 3 -3 6 -1 6 6
0 7 4 10 8 7 5 -3 9 1 9 9 0 12 -3 12 -20 0 -11 -7 -26 -11 -35 -8 -11 5 -13
3 -7 -7 6 -10 4 -12 -9 -7 -9 4 -14 3 -11 -2 3 -5 1 -12 -5 -16 -6 -4 -8 -11
-5 -16 4 -5 1 -9 -6 -9 -8 0 -8 -4 -1 -13 13 -15 11 -137 -2 -137 -4 0 -5 -8
-1 -17 10 -27 11 -93 1 -93 -5 0 -3 -6 3 -14 9 -11 9 -15 -1 -19 -10 -4 -10
-6 1 -6 11 -1 11 -4 1 -16 -10 -12 -9 -16 5 -21 13 -5 14 -9 3 -15 -19 -12
-30 -11 -22 3 4 6 3 8 -3 5 -7 -4 -11 7 -11 31 0 20 -1 94 -2 163 -1 89 2 134
11 150 7 13 12 28 11 32 -1 4 3 17 9 29 6 11 7 18 2 15 -8 -5 -7 73 1 246 4
71 -3 93 -20 66 -13 -21 -22 12 -11 42 13 32 4 47 -16 31 -20 -17 -26 -6 -17
34 4 19 4 37 -1 40 -5 3 -9 -4 -9 -14 0 -11 -9 -22 -19 -25 -30 -7 -33 3 -8
24 13 11 17 18 9 19 -9 0 -11 7 -7 20 4 11 2 20 -4 20 -6 0 -11 -1 -12 -2z
m96 -218 c-3 -5 -11 -10 -16 -10 -6 0 -7 5 -4 10 3 6 11 10 16 10 6 0 7 -4 4
-10z m-45 -101 c0 -6 -4 -7 -10 -4 -5 3 -10 11 -10 16 0 6 5 7 10 4 6 -3 10
-11 10 -16z"/>
<path d="M485 1367 c11 -6 25 -5 39 1 18 9 16 10 -17 10 -30 -1 -35 -3 -22
-11z"/>
<path d="M1250 1373 c0 -7 -7 -13 -15 -13 -8 0 -15 -4 -15 -10 0 -5 7 -7 15
-4 21 8 75 -15 75 -32 0 -8 -4 -14 -10 -14 -5 0 -10 4 -10 8 0 5 -6 9 -12 9
-7 1 -37 4 -65 6 -29 3 -55 1 -58 -4 -4 -5 2 -6 11 -2 12 4 15 3 10 -5 -5 -8
-1 -10 10 -5 11 4 15 2 12 -8 -5 -15 -95 -18 -119 -4 -8 5 -6 -1 4 -13 12 -12
25 -18 35 -15 10 4 14 3 11 -1 -12 -13 -60 -16 -80 -5 -15 8 -19 8 -15 0 4 -6
2 -11 -3 -11 -6 0 -11 -5 -11 -11 0 -8 4 -8 15 1 12 10 21 8 50 -10 36 -22 36
-22 42 -2 6 25 33 37 45 20 5 -9 8 -7 9 7 l0 20 9 -20 c8 -19 12 -16 14 15 1
8 10 15 21 16 11 0 39 1 62 2 41 2 42 3 33 28 -13 33 -13 34 5 28 8 -4 13 -10
10 -14 -3 -4 14 -7 37 -6 44 1 62 20 28 29 -11 3 -20 1 -20 -3 0 -4 -21 -2
-47 6 -34 10 -49 11 -54 3 -4 -8 -10 -5 -18 7 -6 11 -11 13 -11 7z"/>
<path d="M441 1306 c-1 -38 2 -47 13 -43 15 6 71 -31 62 -40 -3 -3 -18 2 -33
12 l-28 17 30 -29 c17 -16 38 -32 48 -36 10 -4 15 -11 12 -17 -4 -6 -12 -7
-18 -3 -7 4 -5 -3 3 -16 8 -12 19 -22 24 -21 13 2 26 -21 26 -47 0 -13 5 -23
11 -23 5 0 8 4 5 9 -4 5 -2 21 4 35 8 21 6 27 -9 35 -10 6 -22 7 -26 3 -5 -4
-5 -2 -1 5 9 16 -3 64 -15 58 -7 -5 -26 19 -28 38 -1 4 -4 7 -8 8 -5 0 -16 7
-25 16 -9 8 -22 12 -29 7 -8 -5 -10 0 -6 17 3 13 1 33 -3 44 -6 15 -9 7 -9
-29z"/>
<path d="M520 1340 c0 -5 5 -10 11 -10 5 0 7 5 4 10 -3 6 -8 10 -11 10 -2 0
-4 -4 -4 -10z"/>
<path d="M544 1319 c-10 -16 -15 -43 -7 -35 9 9 44 -25 37 -36 -3 -4 0 -7 8
-6 7 2 12 -2 11 -8 -3 -15 45 -25 54 -12 3 6 1 13 -4 17 -5 3 -13 15 -16 25
-4 10 -10 16 -14 13 -3 -4 -13 -1 -22 5 -9 7 -5 0 8 -15 14 -15 20 -27 14 -27
-14 0 -43 34 -43 51 0 8 -4 20 -9 28 -7 11 -10 11 -17 0z"/>
<path d="M1715 1245 c-9 -54 -13 -66 -22 -63 -4 2 -9 -1 -10 -6 -1 -5 -7 -13
-15 -17 -7 -5 -8 -9 -3 -9 14 0 14 -40 0 -40 -5 0 -3 -5 5 -10 12 -8 11 -11
-8 -16 -20 -6 -23 -12 -21 -48 2 -22 8 -44 14 -48 5 -4 10 -13 10 -19 0 -7 6
-14 13 -17 9 -3 11 3 8 20 -13 65 -16 98 -8 98 6 0 13 -8 16 -17 6 -15 8 -15
16 -3 5 8 7 24 3 35 -4 11 -6 30 -5 43 1 13 -2 20 -8 17 -6 -3 -10 -2 -10 4 0
19 23 24 32 7 5 -9 14 -16 19 -16 13 0 6 100 -9 126 -9 16 -11 13 -17 -21z"/>
<path d="M1390 1259 c0 -5 5 -7 10 -4 6 3 10 8 10 11 0 2 -4 4 -10 4 -5 0 -10
-5 -10 -11z"/>
<path d="M1140 1224 c0 -8 5 -12 10 -9 6 3 10 10 10 16 0 5 -4 9 -10 9 -5 0
-10 -7 -10 -16z"/>
<path d="M1049 1217 c-27 -20 -31 -52 -9 -72 20 -18 20 -18 20 13 0 25 3 29
20 25 11 -3 20 -1 20 3 0 13 -20 41 -20 29 0 -5 -4 -5 -8 2 -5 9 -11 8 -23 0z"/>
<path d="M1400 1215 c10 -13 9 -15 -9 -15 -12 0 -20 4 -17 9 4 5 -5 4 -19 -2
-26 -13 -35 -33 -10 -23 8 3 15 1 15 -3 0 -13 25 -8 44 8 20 17 20 27 0 35
-14 5 -15 4 -4 -9z"/>
<path d="M1501 1225 c1 -19 18 -51 18 -35 0 8 -4 22 -9 30 -5 8 -9 11 -9 5z"/>
<path d="M1466 1208 c3 -5 10 -6 15 -3 13 9 11 12 -6 12 -8 0 -12 -4 -9 -9z"/>
<path d="M1770 1210 c0 -5 5 -10 10 -10 6 0 10 5 10 10 0 6 -4 10 -10 10 -5 0
-10 -4 -10 -10z"/>
<path d="M980 1188 c0 -4 4 -18 10 -32 6 -17 6 -27 -2 -32 -6 -4 -9 -3 -5 2 3
5 -6 15 -20 21 -19 9 -22 9 -16 0 14 -18 10 -42 -7 -42 -8 0 -14 8 -14 17 1
10 -2 15 -7 12 -10 -6 -5 -46 7 -65 5 -8 3 -9 -6 -4 -9 5 -10 2 -5 -14 6 -21
-8 -30 -20 -11 -10 16 -25 12 -19 -5 3 -8 9 -14 12 -13 4 1 17 -3 28 -10 19
-10 23 -8 34 18 6 16 8 35 4 42 -6 11 -5 10 9 0 13 -12 18 -10 29 7 7 12 18
21 24 21 7 0 15 7 18 16 5 12 2 15 -10 10 -11 -4 -15 -2 -11 8 3 8 -3 25 -13
38 -11 13 -19 20 -20 16z"/>
<path d="M1780 1180 c-13 -8 -12 -10 3 -10 9 0 17 5 17 10 0 12 -1 12 -20 0z"/>
<path d="M1291 1171 c-6 -4 -11 -14 -9 -21 2 -9 -8 -15 -27 -16 -16 -2 -35
-10 -41 -19 -11 -15 -13 -14 -19 4 -3 12 -11 18 -17 15 -6 -4 -2 -14 10 -26
20 -21 48 -16 35 5 -4 7 0 7 10 -1 9 -8 21 -11 26 -8 5 4 13 1 16 -5 5 -6 18
2 36 23 22 26 30 30 37 19 5 -7 12 -9 15 -4 3 5 -3 14 -14 21 -15 10 -19 10
-19 0 -1 -8 -5 -7 -13 4 -8 10 -18 13 -26 9z"/>
<path d="M1474 1150 c0 -35 2 -37 15 -11 8 14 7 22 -2 30 -11 8 -13 4 -13 -19z"/>
<path d="M470 1150 c0 -5 5 -10 10 -10 6 0 10 5 10 10 0 6 -4 10 -10 10 -5 0
-10 -4 -10 -10z"/>
<path d="M1399 1140 c-5 -34 -10 -44 -20 -51 -7 -4 -17 -5 -23 -2 -5 3 -6 1
-3 -4 4 -6 0 -13 -7 -16 -8 -3 -17 -1 -19 6 -2 7 -8 8 -13 4 -5 -4 -3 -11 3
-15 17 -11 -15 -29 -48 -27 -22 1 -25 -2 -23 -22 1 -12 -2 -23 -8 -23 -5 0 -3
-7 6 -15 8 -8 19 -15 24 -15 14 0 44 49 37 60 -6 9 34 36 48 32 4 -1 21 10 38
25 17 16 35 29 40 29 5 1 14 2 20 3 5 0 7 6 4 12 -4 6 -13 8 -20 5 -7 -2 -18
1 -24 7 -6 6 -11 9 -12 7z m-104 -139 c-3 -6 -11 -11 -17 -11 -6 0 -6 6 2 15
14 17 26 13 15 -4z"/>
<path d="M812 1108 c0 -33 -6 -52 -17 -60 -7 -5 -7 -8 0 -8 6 0 9 -21 6 -51
-2 -31 1 -49 6 -46 5 4 10 21 11 40 1 19 6 46 11 60 9 22 8 25 -7 20 -14 -5
-15 -3 -4 8 14 15 17 59 3 59 -5 0 -9 -10 -9 -22z"/>
<path d="M398 1112 c-26 -5 -22 -21 7 -28 28 -7 30 -12 14 -34 -9 -13 -10 -13
-6 2 3 9 0 19 -8 21 -17 7 -25 -1 -25 -29 0 -21 4 -22 45 -19 26 3 45 0 45 -5
0 -6 -3 -10 -8 -10 -4 0 -8 -22 -8 -49 0 -28 3 -48 8 -45 5 3 6 10 2 15 -3 5
0 16 6 24 9 11 15 12 25 2 9 -8 10 -16 3 -24 -8 -10 -5 -13 11 -13 11 0 21 6
21 13 0 9 3 8 9 -2 5 -8 16 -11 30 -6 30 9 21 30 -12 30 -15 1 -26 4 -25 7 2
4 -8 18 -21 31 -13 15 -20 31 -16 38 5 8 4 10 -3 5 -6 -4 -20 2 -32 14 -12 12
-15 20 -7 20 6 1 1 7 -13 15 -14 7 -23 16 -22 20 5 10 -1 12 -20 7z"/>
<path d="M618 1098 c-15 -12 -15 -17 -3 -53 9 -25 11 -43 5 -51 -7 -7 -3 -19
10 -34 11 -13 20 -25 20 -26 0 -2 -14 -11 -31 -20 -17 -8 -28 -11 -25 -5 12
18 -6 12 -20 -6 -11 -16 -16 -16 -34 -5 -17 10 -20 10 -14 1 5 -9 2 -10 -9 -6
-11 4 -17 1 -17 -8 0 -10 9 -12 33 -9 17 2 41 6 52 7 11 1 26 6 33 10 8 6 12
2 12 -9 0 -16 1 -16 16 2 14 17 15 17 10 1 -3 -10 -6 -22 -6 -27 0 -4 -13 -6
-30 -4 -16 2 -30 -1 -30 -7 0 -6 5 -7 10 -4 6 3 10 0 10 -7 0 -9 3 -9 10 2 8
13 14 8 12 -10 0 -3 8 -6 18 -6 15 0 18 5 14 23 -5 17 -2 23 10 23 10 0 13 -6
10 -15 -4 -9 0 -15 7 -15 12 0 12 -2 1 -9 -11 -6 -9 -9 6 -13 17 -5 18 -1 12
31 -4 21 -6 46 -5 58 1 14 -3 19 -14 16 -12 -3 -17 4 -18 27 -1 17 -7 38 -13
48 -9 15 -10 14 -5 -5 5 -17 3 -22 -8 -17 -11 4 -13 14 -7 40 4 19 4 37 -1 40
-5 3 -7 16 -5 30 5 28 5 28 -16 12z"/>
<path d="M1180 1079 c0 -9 -13 -20 -32 -25 -30 -9 -33 -14 -33 -47 0 -20 -4
-37 -10 -36 -5 0 -10 9 -9 19 0 11 -1 20 -3 20 -8 0 -20 -45 -13 -50 4 -3 1
-12 -8 -20 -14 -13 -15 -12 -9 3 4 11 1 17 -8 17 -18 0 -28 -17 -15 -25 6 -4
8 -11 5 -16 -4 -5 -1 -9 5 -9 7 0 10 -7 6 -15 -3 -8 0 -15 5 -15 6 0 9 9 6 20
-5 19 3 24 31 21 6 -1 12 7 12 18 0 11 9 25 21 31 17 10 18 14 7 27 -12 15
-11 15 11 3 21 -11 23 -10 18 5 -4 9 -7 18 -7 21 0 2 -6 1 -14 -2 -8 -3 -17
-1 -20 4 -3 5 5 12 19 14 13 3 22 2 20 -3 -8 -12 11 -20 29 -13 9 3 16 13 16
20 0 8 7 17 15 20 8 4 15 11 15 17 0 6 -8 4 -17 -5 -15 -16 -17 -16 -29 0 -12
15 -13 15 -14 1z"/>
<path d="M1471 1074 c0 -11 3 -14 6 -6 3 7 2 16 -1 19 -3 4 -6 -2 -5 -13z"/>
<path d="M1056 1043 c-6 -14 -5 -15 5 -6 7 7 10 15 7 18 -3 3 -9 -2 -12 -12z"/>
<path d="M1451 1023 c-1 -12 -9 -24 -18 -26 -17 -4 -17 -5 0 -6 19 -1 32 21
24 41 -3 7 -6 3 -6 -9z"/>
<path d="M1700 1025 c0 -7 30 -13 34 -7 3 4 -4 9 -15 9 -10 1 -19 0 -19 -2z"/>
<path d="M1615 1010 c3 -5 8 -10 11 -10 2 0 4 5 4 10 0 6 -5 10 -11 10 -5 0
-7 -4 -4 -10z"/>
<path d="M896 999 c4 -8 0 -9 -15 -4 -14 4 -21 2 -22 -7 -5 -62 -3 -73 12 -76
13 -2 16 4 13 28 -2 16 1 30 6 30 6 0 10 -10 11 -22 1 -19 2 -18 10 7 10 33 5
55 -11 55 -6 0 -8 -5 -4 -11z"/>
<path d="M413 985 c0 -8 4 -15 9 -15 5 0 6 -6 2 -12 -4 -7 -3 -10 1 -5 13 12
13 47 0 47 -6 0 -12 -7 -12 -15z"/>
<path d="M1364 989 c-3 -6 -1 -16 5 -22 8 -8 11 -5 11 11 0 24 -5 28 -16 11z"/>
<path d="M1603 987 c4 -9 2 -28 -3 -42 -7 -18 -6 -24 2 -22 7 1 14 -7 16 -17
3 -14 0 -17 -12 -13 -8 3 -18 2 -21 -3 -4 -6 -2 -10 4 -10 15 0 1 -32 -26 -57
-28 -27 -42 -30 -22 -6 12 14 12 16 -1 11 -8 -2 -15 -16 -15 -30 -1 -33 -24
-61 -44 -53 -13 5 -14 4 -3 -6 16 -17 15 -29 -4 -29 -9 0 -12 5 -8 12 5 7 3 8
-5 3 -10 -6 -9 -11 4 -24 15 -15 19 -14 43 19 15 19 44 52 65 73 20 22 37 45
37 53 0 7 8 19 18 26 17 13 29 74 12 63 -4 -3 -6 3 -3 13 2 10 -5 26 -18 37
-20 18 -22 18 -16 2z"/>
<path d="M1197 955 c-2 -5 5 -18 16 -27 26 -23 52 -6 37 22 -11 20 -47 23 -53
5z"/>
<path d="M1017 931 c1 -2 -5 -10 -13 -18 -8 -8 -12 -19 -9 -24 4 -5 0 -9 -8
-9 -8 0 -20 -7 -27 -15 -11 -13 -10 -14 3 -9 12 4 14 1 10 -15 -4 -17 -8 -19
-19 -10 -9 8 -14 8 -14 1 0 -6 4 -13 9 -16 5 -3 7 -15 4 -26 -3 -11 -1 -20 4
-20 17 0 43 35 43 57 0 12 8 23 18 26 26 6 33 40 13 63 -9 11 -15 17 -14 15z"/>
<path d="M1156 932 c-6 -10 21 -32 30 -24 4 4 4 2 1 -4 -4 -6 -17 -9 -31 -7
-13 3 -27 0 -30 -6 -4 -6 0 -11 11 -11 17 -1 17 -1 0 -11 -9 -5 -21 -8 -26 -5
-10 7 -23 -19 -14 -28 4 -3 12 -1 20 5 7 7 23 12 36 13 13 1 21 7 19 16 -3 11
0 11 14 -1 10 -8 15 -9 11 -2 -4 6 -3 14 3 18 7 4 7 12 0 24 -10 21 -37 34
-44 23z"/>
<path d="M1670 929 c0 -5 5 -7 10 -4 6 3 10 8 10 11 0 2 -4 4 -10 4 -5 0 -10
-5 -10 -11z"/>
<path d="M1440 920 c-9 -6 -10 -10 -3 -10 6 0 15 5 18 10 8 12 4 12 -15 0z"/>
<path d="M1537 894 c-4 -4 -7 -14 -7 -23 0 -11 3 -12 11 -4 6 6 10 16 7 23 -2
6 -7 8 -11 4z"/>
<path d="M921 844 c0 -11 3 -14 6 -6 3 7 2 16 -1 19 -3 4 -6 -2 -5 -13z"/>
<path d="M1500 834 c0 -8 5 -12 10 -9 6 4 8 11 5 16 -9 14 -15 11 -15 -7z"/>
<path d="M1550 839 c0 -5 5 -7 10 -4 6 3 10 8 10 11 0 2 -4 4 -10 4 -5 0 -10
-5 -10 -11z"/>
<path d="M1116 825 c-14 -11 -24 -11 -38 -4 -17 9 -19 7 -16 -13 2 -12 -1 -23
-7 -23 -30 -1 -47 -45 -27 -71 4 -5 3 -6 -2 -1 -6 4 -16 7 -24 7 -21 0 -11
-64 11 -68 9 -2 17 2 17 8 0 7 9 24 19 39 11 15 19 35 18 45 -1 11 4 21 11 23
7 3 10 -1 6 -11 -3 -9 -2 -16 4 -16 14 0 25 34 13 38 -6 2 -8 8 -5 14 4 7 9 6
14 -1 5 -9 13 -7 29 6 19 16 21 21 9 30 -10 9 -18 8 -32 -2z"/>
<path d="M897 796 c-4 -10 -7 -24 -7 -32 0 -8 -11 -26 -24 -41 -28 -29 -25
-63 5 -56 15 4 18 2 13 -11 -3 -9 -2 -16 4 -16 10 0 10 40 0 70 -3 8 -3 12 -1
8 3 -5 11 -8 19 -8 8 0 14 -5 14 -11 0 -5 4 -8 9 -4 6 3 6 18 1 35 -5 17 -9
33 -10 36 0 2 6 12 15 21 19 19 12 31 -9 14 -11 -9 -15 -9 -18 1 -3 8 -7 6
-11 -6z"/>
<path d="M1450 766 c0 -2 11 -6 25 -8 13 -3 22 -1 19 3 -5 9 -44 13 -44 5z"/>
<path d="M1425 730 c-3 -6 1 -7 9 -4 18 7 21 14 7 14 -6 0 -13 -4 -16 -10z"/>
<path d="M1395 699 c-9 -14 -2 -20 14 -10 8 6 9 11 3 15 -6 3 -14 1 -17 -5z"/>
<path d="M1414 669 c-22 -24 -24 -29 -8 -21 24 13 49 40 42 47 -2 3 -18 -9
-34 -26z"/>
<path d="M1438 659 c-16 -15 -28 -32 -28 -37 0 -5 -9 -17 -20 -27 -16 -15 -22
-15 -35 -5 -13 10 -15 9 -15 -8 0 -21 22 -35 43 -26 10 4 67 74 90 110 15 25
-9 21 -35 -7z"/>
<path d="M1360 659 c0 -5 5 -7 10 -4 6 3 10 8 10 11 0 2 -4 4 -10 4 -5 0 -10
-5 -10 -11z"/>
<path d="M960 651 c0 -7 -5 -9 -10 -6 -12 7 -9 -17 2 -26 5 -3 9 -17 10 -33 2
-25 4 -25 15 -10 7 10 13 22 13 27 0 6 8 16 18 24 12 10 13 13 2 10 -8 -2 -23
2 -32 11 -13 10 -18 11 -18 3z"/>
<path d="M711 624 c0 -11 3 -14 6 -6 3 7 2 16 -1 19 -3 4 -6 -2 -5 -13z"/>
<path d="M918 618 c-4 -9 -4 -19 0 -23 3 -3 5 -22 3 -41 -2 -26 1 -34 14 -34
25 0 28 25 8 71 -14 32 -21 39 -25 27z"/>
<path d="M1300 626 c0 -10 28 -13 41 -5 10 6 7 9 -13 9 -16 0 -28 -2 -28 -4z"/>
<path d="M1363 613 c0 -15 19 -12 24 3 2 6 -3 11 -10 11 -8 0 -14 -6 -14 -14z"/>
<path d="M1190 606 c0 -2 8 -10 18 -17 15 -13 16 -12 3 4 -13 16 -21 21 -21
13z"/>
<path d="M1303 594 c-7 -3 -9 -12 -6 -20 3 -8 0 -15 -6 -15 -6 -1 -16 -2 -23
-3 -6 0 -13 -7 -16 -15 -3 -8 0 -11 6 -7 6 3 12 -1 14 -11 2 -12 10 -6 31 23
35 52 35 62 0 48z"/>
<path d="M1265 580 c3 -5 8 -10 11 -10 2 0 4 5 4 10 0 6 -5 10 -11 10 -5 0 -7
-4 -4 -10z"/>
<path d="M884 528 c4 -17 2 -28 -7 -31 -9 -4 -9 -6 1 -6 17 -1 15 -21 -3 -21
-8 0 -15 5 -15 10 0 6 -5 10 -11 10 -6 0 -8 -7 -5 -16 4 -9 4 -25 0 -36 -5
-18 -7 -18 -31 -3 -16 11 -23 12 -17 4 4 -7 7 -27 6 -44 -1 -17 4 -40 13 -50
8 -11 15 -15 15 -8 0 6 -4 15 -10 18 -5 3 -10 17 -10 31 0 15 4 23 11 19 6 -4
8 -12 6 -19 -3 -6 1 -20 8 -30 11 -14 21 -16 61 -10 36 5 45 4 39 -6 -6 -9 -3
-9 15 0 12 6 29 9 38 6 13 -5 13 -3 -2 9 -10 8 -23 12 -28 9 -13 -8 -45 5 -45
19 0 9 14 12 46 10 121 -9 142 -11 155 -16 8 -3 20 2 28 11 11 15 11 15 -3 5
-9 -7 -19 -10 -22 -7 -3 4 -28 7 -54 9 -33 1 -49 6 -51 16 -2 12 6 14 33 11
20 -2 42 1 51 9 12 10 15 10 12 -1 -2 -9 9 -14 35 -14 39 -1 48 7 20 18 -9 4
-21 1 -26 -6 -6 -10 -8 -9 -4 3 3 9 1 21 -5 27 -6 6 -6 12 1 17 6 3 14 0 16
-8 7 -18 105 -22 106 -4 0 7 2 20 4 29 2 10 -4 22 -12 26 -8 5 -14 13 -13 18
1 5 -3 10 -9 12 -6 2 -11 -3 -11 -12 0 -9 -8 -16 -17 -17 -16 0 -16 -1 1 -8
14 -5 16 -10 8 -15 -7 -4 -9 -13 -5 -19 3 -7 -2 -5 -13 4 -21 18 -53 17 -69
-3 -11 -15 -26 -19 -67 -20 -15 -1 -28 -6 -28 -11 0 -6 -3 -7 -6 -4 -4 3 -16
1 -28 -6 -11 -6 -36 -12 -53 -13 -18 0 -36 -4 -40 -9 -5 -4 -1 -5 7 0 8 5 4
-4 -9 -18 -23 -25 -23 -27 -5 -28 16 0 15 -2 -5 -10 -13 -5 -26 -7 -29 -4 -3
3 1 5 9 5 10 1 9 3 -3 11 -10 5 -18 17 -18 24 0 17 16 20 25 5 9 -15 25 -2 19
14 -3 8 0 17 5 21 6 3 9 11 6 16 -4 5 0 9 9 9 8 0 13 8 12 18 -2 9 1 20 6 23
4 3 -4 16 -18 30 l-27 24 7 -27z m347 -51 c-1 -12 -15 -9 -19 4 -3 6 1 10 8 8
6 -3 11 -8 11 -12z m-227 -52 c-4 -8 -11 -12 -16 -9 -6 4 -5 10 3 15 19 12 19
11 13 -6z"/>
<path d="M1305 541 c-6 -11 9 -23 19 -14 9 9 7 23 -3 23 -6 0 -12 -4 -16 -9z"/>
<path d="M1066 504 c-5 -14 -4 -15 9 -4 17 14 19 20 6 20 -5 0 -12 -7 -15 -16z"/>
<path d="M1270 490 c0 -5 5 -10 10 -10 6 0 10 5 10 10 0 6 -4 10 -10 10 -5 0
-10 -4 -10 -10z"/>
</g>
</svg>
