<?xml version="1.0" standalone="no"?>
<!DOCTYPE svg PUBLIC "-//W3C//DTD SVG 20010904//EN"
 "http://www.w3.org/TR/2001/REC-SVG-20010904/DTD/svg10.dtd">
<svg version="1.0" xmlns="http://www.w3.org/2000/svg"
 width="250.000000pt" height="229.000000pt" viewBox="0 0 250.000000 229.000000"
 preserveAspectRatio="xMidYMid meet">
<metadata>
Created by potrace 1.16, written by Peter Selinger 2001-2019
</metadata>
<g transform="translate(0.000000,229.000000) scale(0.100000,-0.100000)"
fill="#000000" stroke="none">
<path d="M723 2265 c-209 -54 -369 -140 -499 -270 -135 -135 -213 -279 -220
-410 l-4 -70 18 70 c25 95 63 182 108 252 54 83 186 211 276 266 136 85 335
153 510 175 l73 9 -85 1 c-59 1 -113 -6 -177 -23z"/>
<path d="M1355 2278 c44 -5 131 -20 194 -34 487 -109 829 -385 933 -752 l18
-67 -4 66 c-3 51 -13 85 -45 153 -96 206 -264 368 -508 490 -186 93 -426 157
-579 155 l-89 -2 80 -9z"/>
<path d="M726 2025 c-213 -37 -383 -143 -461 -287 -16 -29 -41 -86 -55 -127
-15 -42 -40 -105 -55 -141 -59 -138 -43 -309 44 -487 168 -339 485 -589 854
-669 40 -9 123 -16 187 -17 186 -1 290 27 525 145 202 101 304 169 397 262
133 135 184 248 176 395 -3 47 -1 114 4 149 14 88 -5 185 -53 281 -102 205
-356 361 -696 430 -89 19 -305 39 -278 27 6 -3 80 -16 166 -30 253 -42 428
-103 576 -204 118 -80 221 -215 252 -328 6 -23 12 -104 13 -180 1 -135 0 -141
-31 -218 -44 -110 -111 -219 -192 -314 -73 -86 -204 -202 -227 -202 -8 0 -40
-15 -71 -34 -163 -98 -320 -145 -512 -153 -143 -6 -217 4 -353 47 -180 58
-347 162 -491 307 -182 182 -304 426 -305 607 0 63 37 222 61 262 11 17 19 39
19 48 0 46 148 178 281 250 91 50 283 111 414 132 61 9 166 18 234 18 l125 0
-95 18 c-131 25 -353 31 -453 13z m262 -10 c-3 -3 -47 -12 -99 -20 -197 -32
-400 -111 -524 -205 -70 -53 -72 -41 -5 29 89 91 231 160 386 186 78 13 252
20 242 10z m1289 -1107 c-20 -40 -48 -86 -62 -103 -14 -17 -6 3 20 46 25 42
50 91 56 108 6 18 14 30 17 27 3 -3 -11 -38 -31 -78z"/>
<path d="M1027 1959 c-356 -36 -650 -180 -786 -385 -51 -75 -52 -79 -45 -128
44 -330 456 -898 747 -1031 80 -37 191 -55 336 -55 189 0 295 20 416 80 289
142 525 420 600 706 20 79 19 96 -11 157 -124 246 -447 494 -819 627 -81 29
-103 33 -220 36 -71 1 -170 -2 -218 -7z m418 -49 c371 -132 695 -381 819 -628
27 -53 27 -54 12 -113 -74 -287 -311 -567 -601 -709 -118 -58 -227 -80 -396
-80 -194 0 -310 35 -439 130 -68 50 -236 218 -279 278 l-22 32 95 0 96 0 0 40
c0 34 -3 40 -21 40 l-20 0 20 26 c26 34 28 94 3 124 -14 18 -32 24 -73 27 -73
5 -104 -12 -104 -56 0 -45 23 -60 67 -44 31 12 30 10 -19 -37 -38 -35 -53 -56
-53 -75 0 -14 -4 -23 -10 -20 -20 12 -143 208 -195 309 -56 111 -89 199 -104
279 -9 48 -8 50 41 124 164 244 561 401 983 388 93 -2 124 -8 200 -35z m-752
-881 c26 -32 21 -55 -24 -104 l-42 -45 42 0 c34 0 41 -3 41 -20 0 -18 -7 -20
-80 -20 -99 0 -101 9 -25 83 30 29 55 59 55 65 0 19 -30 26 -61 15 -22 -9 -31
-8 -39 3 -7 7 -9 18 -5 24 22 35 109 34 138 -1z"/>
<path d="M495 1501 c-56 -23 -83 -117 -52 -180 13 -26 13 -31 1 -31 -10 0 -14
-13 -14 -50 0 -103 35 -130 170 -130 95 0 139 13 159 47 9 15 10 14 11 -9 0
-16 -4 -28 -10 -28 -6 0 -10 -68 -10 -185 l0 -185 60 0 60 0 1 58 c1 31 3 49
6 40 4 -15 16 -18 72 -18 61 0 69 2 79 23 9 18 11 12 11 -40 l1 -63 60 0 60 0
3 183 2 182 3 -182 2 -183 290 0 290 0 0 55 0 55 -85 0 c-50 0 -85 4 -85 10 0
6 30 10 70 10 l70 0 0 55 0 54 -72 4 c-47 2 -28 4 55 5 l127 2 0 -125 0 -125
60 0 60 0 0 125 0 125 55 0 55 0 0 60 c0 58 -1 60 -27 60 l-26 0 24 26 c20 22
24 36 24 91 0 56 -3 67 -24 84 -23 19 -23 19 -2 19 19 0 21 6 21 50 0 41 -5
56 -29 82 -29 32 -32 33 -124 36 -73 3 -102 0 -126 -12 -27 -15 -31 -15 -31
-1 0 13 -25 15 -175 15 l-175 0 0 -60 0 -60 55 0 55 0 0 -135 c0 -128 -1 -135
-20 -135 -11 0 -20 6 -20 12 0 7 -26 95 -57 195 l-57 183 -87 0 -87 0 -35
-112 c-20 -62 -39 -125 -42 -140 -7 -28 -7 -28 -96 -28 -72 0 -89 3 -89 15 0
12 14 15 70 15 l70 0 0 55 0 55 -70 0 c-40 0 -70 4 -70 10 0 6 35 10 85 10
l85 0 0 60 0 60 -155 0 -155 0 -1 -42 c0 -36 -2 -39 -9 -21 -18 44 -67 63
-160 62 -47 0 -94 -4 -105 -8z m203 -31 c32 -20 52 -54 52 -91 0 -16 -7 -19
-45 -19 -28 0 -45 4 -45 12 0 36 -64 61 -98 39 -32 -20 -7 -44 66 -67 92 -28
122 -54 122 -106 0 -79 -40 -108 -150 -108 -105 0 -150 33 -150 110 0 29 2 30
45 30 41 0 45 -2 45 -25 0 -14 8 -29 19 -35 49 -25 119 1 91 34 -6 8 -36 20
-66 27 -100 22 -142 66 -130 135 6 30 37 66 66 77 8 3 44 6 80 6 48 1 73 -4
98 -19z m362 -20 l0 -40 -85 0 -85 0 0 -30 0 -30 70 0 70 0 0 -35 0 -35 -70 0
-70 0 0 -35 0 -35 85 0 85 0 0 -40 0 -40 -135 0 -135 0 0 180 0 180 135 0 135
0 0 -40z m298 -62 c18 -57 43 -138 56 -180 l24 -78 -47 0 c-46 0 -49 2 -57 33
-10 32 -11 32 -76 35 l-66 3 -12 -36 c-11 -33 -14 -35 -57 -35 -32 0 -44 4
-40 13 2 6 23 73 46 147 23 74 47 150 52 168 11 32 11 32 78 32 l68 0 31 -102z
m362 62 l0 -40 -55 0 -55 0 0 -140 0 -140 -45 0 -45 0 0 140 0 140 -55 0 -55
0 0 40 0 40 155 0 155 0 0 -40z m281 2 c18 -20 29 -43 29 -62 0 -29 -2 -30
-45 -30 -38 0 -45 3 -45 20 0 41 -92 53 -107 14 -7 -19 9 -31 62 -44 73 -19
125 -48 136 -77 14 -39 3 -85 -27 -114 -23 -22 -34 -24 -120 -24 -87 0 -95 2
-120 26 -16 16 -28 41 -31 67 l-6 42 47 0 c39 0 46 -3 46 -19 0 -28 27 -51 60
-51 41 0 60 10 60 30 0 19 -21 29 -112 54 -66 19 -88 43 -88 99 0 82 39 109
153 105 75 -3 80 -5 108 -36z m-1380 -69 c12 -15 12 -16 -4 -10 -10 4 -23 7
-28 7 -6 0 -7 5 -4 10 9 15 21 12 36 -7z m1296 -10 c-9 -8 -48 8 -42 18 4 5
14 5 26 -2 12 -6 18 -13 16 -16z m-197 -14 c0 -17 5 -39 10 -50 9 -15 7 -19
-6 -19 -27 0 -15 -112 16 -145 l23 -25 -66 0 -67 0 0 135 0 135 45 0 c44 0 45
-1 45 -31z m-950 -39 c0 -11 -2 -20 -3 -20 -2 0 -12 9 -22 20 -18 19 -17 20 3
20 15 0 22 -6 22 -20z m-172 -76 c24 -7 31 -24 9 -24 -15 0 -57 29 -42 30 6 0
20 -3 33 -6z m1292 -4 c8 -5 12 -12 8 -15 -9 -9 -48 4 -48 16 0 12 21 11 40
-1z m-580 -86 c6 -14 10 -27 10 -30 0 -2 -29 -4 -64 -4 l-65 0 10 30 c10 27
15 30 55 30 39 0 46 -3 54 -26z m-326 -66 c-3 -13 -12 -33 -18 -45 -11 -21
-12 -20 -27 22 l-17 45 35 0 c31 0 34 -2 27 -22z m476 -103 l0 -125 -80 0
c-47 0 -80 4 -80 10 0 6 28 10 65 10 l65 0 0 55 0 54 -67 4 -68 3 78 2 77 2 0
55 c0 30 2 55 5 55 3 0 5 -56 5 -125z m-542 63 c11 -29 23 -63 26 -76 10 -32
18 -23 46 57 l24 71 63 0 63 0 0 -165 0 -165 -40 0 -40 0 -1 118 c0 124 -1
124 -40 20 l-20 -58 -48 0 -47 0 -27 73 -26 72 0 -112 -1 -113 -40 0 -40 0 0
165 0 165 64 0 65 0 19 -52z m512 12 l0 -40 -75 0 c-73 0 -75 -1 -75 -25 0
-24 2 -25 65 -25 l65 0 0 -35 0 -35 -65 0 -65 0 0 -30 0 -30 80 0 80 0 0 -35
0 -35 -125 0 -125 0 0 165 0 165 120 0 120 0 0 -40z m290 0 l0 -40 -80 0 c-79
0 -80 0 -80 -25 0 -24 2 -25 70 -25 l70 0 0 -35 0 -35 -70 0 -70 0 0 -30 0
-30 85 0 85 0 0 -35 0 -35 -125 0 -125 0 0 165 0 165 120 0 120 0 0 -40z m320
0 l0 -40 -55 0 -55 0 0 -125 0 -125 -40 0 -40 0 0 125 0 125 -55 0 -55 0 0 40
0 40 150 0 150 0 0 -40z"/>
<path d="M1236 1346 c-9 -30 -16 -57 -16 -60 0 -3 18 -6 39 -6 l40 0 -21 60
c-11 33 -21 60 -23 60 -2 0 -11 -24 -19 -54z"/>
<path d="M1 1185 c-1 -45 9 -90 39 -179 95 -280 264 -540 470 -722 187 -165
428 -285 567 -283 l58 1 -65 14 c-182 39 -372 140 -540 288 -241 213 -437 544
-510 861 l-18 80 -1 -60z"/>
<path d="M2482 1110 c-105 -514 -554 -988 -1037 -1095 l-60 -13 57 -1 c40 -1
83 8 145 30 275 97 510 284 694 552 120 174 224 435 217 543 l-3 49 -13 -65z"/>
</g>
</svg>
