<?xml version="1.0" standalone="no"?>
<!DOCTYPE svg PUBLIC "-//W3C//DTD SVG 20010904//EN"
 "http://www.w3.org/TR/2001/REC-SVG-20010904/DTD/svg10.dtd">
<svg version="1.0" xmlns="http://www.w3.org/2000/svg"
 width="100.000000pt" height="100.000000pt" viewBox="0 0 100.000000 100.000000"
 preserveAspectRatio="xMidYMid meet">
<metadata>
Created by potrace 1.16, written by Peter Selinger 2001-2019
</metadata>
<g transform="translate(0.000000,100.000000) scale(0.100000,-0.100000)"
fill="#000000" stroke="none">
<path d="M60 697 l0 -304 -30 5 c-18 3 -30 0 -30 -7 0 -8 65 -11 220 -11 l220
0 0 30 0 30 -65 0 -65 0 0 30 0 30 155 0 155 0 0 -30 c0 -27 -3 -30 -30 -30
-27 0 -30 -3 -30 -30 l0 -30 220 0 c155 0 220 3 220 11 0 7 -12 10 -30 7 l-30
-5 0 304 c0 216 -3 303 -11 303 -7 0 -10 -12 -7 -30 l5 -30 -427 0 -427 0 5
30 c3 18 0 30 -7 30 -8 0 -11 -87 -11 -303z m860 -37 l0 -260 -170 0 c-107 0
-170 4 -170 10 0 6 14 10 30 10 29 0 30 1 30 50 l0 50 -172 -2 -173 -3 0 -45
0 -45 63 -3 c34 -2 62 -7 62 -12 0 -6 -69 -10 -170 -10 l-170 0 0 260 0 260
420 0 420 0 0 -260z"/>
<path d="M0 930 c0 -5 9 -10 20 -10 11 0 20 5 20 10 0 6 -9 10 -20 10 -11 0
-20 -4 -20 -10z"/>
<path d="M960 930 c0 -5 9 -10 20 -10 11 0 20 5 20 10 0 6 -9 10 -20 10 -11 0
-20 -4 -20 -10z"/>
<path d="M350 470 c0 -11 5 -20 10 -20 6 0 10 9 10 20 0 11 -4 20 -10 20 -5 0
-10 -9 -10 -20z"/>
<path d="M420 470 c0 -5 5 -10 10 -10 6 0 10 5 10 10 0 6 -4 10 -10 10 -5 0
-10 -4 -10 -10z"/>
<path d="M500 460 c0 -13 -7 -20 -20 -20 -20 0 -28 -16 -10 -22 5 -1 11 -14
13 -28 3 -18 11 -26 30 -28 15 -2 27 1 27 7 0 6 -9 11 -20 11 -16 0 -20 7 -20
30 0 23 4 30 20 30 24 0 25 6 6 26 -20 19 -26 18 -26 -6z"/>
<path d="M560 470 c0 -5 5 -10 10 -10 6 0 10 5 10 10 0 6 -4 10 -10 10 -5 0
-10 -4 -10 -10z"/>
<path d="M60 339 c0 -11 5 -17 10 -14 13 8 13 35 0 35 -5 0 -10 -9 -10 -21z"/>
<path d="M920 346 c0 -8 5 -18 10 -21 6 -3 10 3 10 14 0 12 -4 21 -10 21 -5 0
-10 -6 -10 -14z"/>
<path d="M0 320 c0 -5 12 -10 26 -10 14 0 23 4 19 10 -3 6 -15 10 -26 10 -10
0 -19 -4 -19 -10z"/>
<path d="M190 320 c0 -6 -28 -10 -65 -10 l-65 0 0 -118 0 -119 -30 5 c-18 3
-30 0 -30 -7 0 -8 139 -11 500 -11 361 0 500 3 500 11 0 7 -12 10 -30 7 -24
-4 -30 -1 -30 14 0 10 -4 18 -10 18 -5 0 -10 -7 -10 -15 0 -13 -53 -15 -420
-15 -248 0 -420 4 -420 9 0 5 -3 16 -6 25 -5 14 3 16 55 16 l61 0 0 90 0 90
30 0 30 0 0 -90 0 -90 95 0 95 0 0 90 0 90 -95 0 c-57 0 -95 4 -95 10 0 6 -13
10 -30 10 -16 0 -30 -4 -30 -10z m-20 -51 c0 -12 -7 -19 -20 -19 -14 0 -20 7
-20 24 0 19 4 23 20 19 11 -3 20 -14 20 -24z m-60 11 c0 -5 -7 -10 -15 -10 -8
0 -15 5 -15 10 0 6 7 10 15 10 8 0 15 -4 15 -10z m244 -2 c5 -10 7 -10 12 0 7
14 54 16 54 2 0 -5 -7 -10 -15 -10 -8 0 -15 -4 -15 -10 0 -5 7 -10 15 -10 10
0 15 -10 15 -30 0 -20 -5 -30 -15 -30 -8 0 -15 -4 -15 -10 0 -5 7 -10 15 -10
8 0 15 -4 15 -10 0 -15 -107 -13 -114 3 -5 10 -7 10 -12 0 -9 -20 -24 -15 -24
7 0 17 7 20 50 20 49 0 50 1 50 30 0 29 -1 30 -50 30 -43 0 -50 3 -50 20 0 17
7 20 39 20 22 0 42 -6 45 -12z m-224 -48 c0 -15 -7 -20 -25 -20 -18 0 -25 5
-25 20 0 15 7 20 25 20 18 0 25 -5 25 -20z m40 -10 c0 -5 -4 -10 -10 -10 -5 0
-10 5 -10 10 0 6 5 10 10 10 6 0 10 -4 10 -10z m180 0 c0 -5 -18 -10 -40 -10
-22 0 -40 5 -40 10 0 6 18 10 40 10 22 0 40 -4 40 -10z m-177 -50 c-4 -16 -14
-20 -49 -20 -37 0 -44 3 -44 20 0 17 7 20 49 20 44 0 49 -2 44 -20z"/>
<path d="M460 320 c0 -5 5 -10 10 -10 6 0 10 5 10 10 0 6 -4 10 -10 10 -5 0
-10 -4 -10 -10z"/>
<path d="M810 320 c0 -6 -27 -10 -60 -10 l-60 0 0 -90 0 -90 30 0 c27 0 30 3
30 30 l0 30 60 0 60 0 0 -30 c0 -28 3 -30 35 -30 l35 0 0 90 0 90 -35 0 c-19
0 -35 5 -35 10 0 6 -13 10 -30 10 -16 0 -30 -4 -30 -10z m60 -40 c0 -27 -3
-30 -30 -30 -27 0 -30 3 -30 30 0 27 3 30 30 30 27 0 30 -3 30 -30z m-80 0 c0
-5 -8 -10 -18 -10 -30 0 -42 -21 -42 -72 0 -26 -4 -48 -10 -48 -6 0 -10 30
-10 70 l0 70 40 0 c22 0 40 -4 40 -10z m130 -60 c0 -56 -3 -70 -15 -70 -10 0
-15 10 -15 30 0 27 -3 30 -30 30 -16 0 -30 5 -30 10 0 6 14 10 30 10 27 0 30
3 30 30 0 20 5 30 15 30 12 0 15 -14 15 -70z m-124 16 c21 -21 18 -26 -16 -26
-23 0 -30 4 -30 20 0 23 25 27 46 6z"/>
<path d="M955 320 c-4 -6 5 -10 19 -10 14 0 26 5 26 10 0 6 -9 10 -19 10 -11
0 -23 -4 -26 -10z"/>
<path d="M500 286 c0 -19 -4 -22 -25 -18 -15 2 -25 0 -25 -7 0 -7 37 -11 115
-11 78 0 115 4 115 11 0 7 -12 10 -30 7 -26 -4 -30 -1 -30 19 0 22 -4 23 -60
23 -56 0 -60 -1 -60 -24z m60 -1 c0 -8 -9 -15 -20 -15 -22 0 -27 15 -7 23 21
9 27 7 27 -8z m40 -5 c0 -5 -4 -10 -10 -10 -5 0 -10 5 -10 10 0 6 5 10 10 10
6 0 10 -4 10 -10z"/>
<path d="M635 300 c3 -5 12 -10 20 -10 8 0 17 5 20 10 4 6 -5 10 -20 10 -15 0
-24 -4 -20 -10z"/>
<path d="M210 240 c0 -5 5 -10 10 -10 6 0 10 5 10 10 0 6 -4 10 -10 10 -5 0
-10 -4 -10 -10z"/>
<path d="M500 220 c0 -19 3 -21 12 -12 9 9 9 15 0 24 -9 9 -12 7 -12 -12z"/>
<path d="M540 220 c0 -5 5 -10 10 -10 6 0 10 5 10 10 0 6 -4 10 -10 10 -5 0
-10 -4 -10 -10z"/>
<path d="M208 178 c9 -9 15 -9 24 0 9 9 7 12 -12 12 -19 0 -21 -3 -12 -12z"/>
<path d="M450 179 c0 -7 10 -9 25 -7 21 4 25 1 25 -18 0 -23 4 -24 60 -24 56
0 60 1 60 23 0 20 4 23 30 19 18 -3 30 0 30 7 0 7 -37 11 -115 11 -78 0 -115
-4 -115 -11z m110 -23 c0 -9 -7 -12 -20 -9 -11 3 -20 9 -20 14 0 5 9 9 20 9
11 0 20 -6 20 -14z m40 4 c0 -5 -4 -10 -10 -10 -5 0 -10 5 -10 10 0 6 5 10 10
10 6 0 10 -4 10 -10z"/>
<path d="M810 150 c0 -15 -7 -20 -25 -20 -14 0 -25 -4 -25 -10 0 -5 20 -10 45
-10 25 0 45 5 45 10 0 6 -4 10 -10 10 -5 0 -10 9 -10 20 0 11 -4 20 -10 20 -5
0 -10 -9 -10 -20z"/>
<path d="M205 140 c-3 -5 3 -10 15 -10 12 0 18 5 15 10 -3 6 -10 10 -15 10 -5
0 -12 -4 -15 -10z"/>
<path d="M635 140 c-4 -6 5 -10 20 -10 15 0 24 4 20 10 -3 6 -12 10 -20 10 -8
0 -17 -4 -20 -10z"/>
<path d="M0 120 c0 -5 9 -10 20 -10 11 0 20 5 20 10 0 6 -9 10 -20 10 -11 0
-20 -4 -20 -10z"/>
<path d="M960 120 c0 -5 9 -10 20 -10 11 0 20 5 20 10 0 6 -9 10 -20 10 -11 0
-20 -4 -20 -10z"/>
</g>
</svg>
