<?xml version="1.0" standalone="no"?>
<!DOCTYPE svg PUBLIC "-//W3C//DTD SVG 20010904//EN"
 "http://www.w3.org/TR/2001/REC-SVG-20010904/DTD/svg10.dtd">
<svg version="1.0" xmlns="http://www.w3.org/2000/svg"
 width="256.000000pt" height="256.000000pt" viewBox="0 0 256.000000 256.000000"
 preserveAspectRatio="xMidYMid meet">
<metadata>
Created by potrace 1.16, written by Peter Selinger 2001-2019
</metadata>
<g transform="translate(0.000000,256.000000) scale(0.100000,-0.100000)"
fill="#000000" stroke="none">
<path d="M430 1611 c-31 -5 -35 -10 -38 -38 -3 -29 -7 -33 -32 -33 -47 0 -60
-22 -60 -100 0 -67 -1 -69 -27 -73 l-28 -4 28 -2 27 -1 0 -79 c0 -79 0 -80
-27 -84 l-28 -4 28 -2 c27 -1 27 -2 27 -70 0 -79 13 -101 60 -101 25 0 29 -4
32 -32 3 -30 7 -33 43 -40 52 -9 278 -9 330 0 36 7 40 10 43 40 3 29 6 32 36
32 47 0 56 15 56 92 0 61 2 68 20 68 14 0 20 -7 21 -25 1 -14 2 -31 3 -37 1
-13 5 -14 51 -17 22 -1 25 -5 25 -41 l0 -40 40 0 c39 0 40 -1 40 -34 0 -22 6
-36 16 -40 20 -8 308 -8 328 0 10 4 16 18 16 40 0 33 1 34 40 34 l40 0 0 40
c0 36 3 40 25 41 55 3 51 -1 54 54 1 18 7 25 21 25 18 0 20 -7 20 -68 0 -77 9
-92 56 -92 30 0 33 -3 36 -32 3 -30 7 -33 43 -40 52 -9 278 -9 330 0 36 7 40
10 43 40 3 28 7 32 32 32 47 0 60 22 60 100 0 67 1 69 28 73 l27 4 -27 2 -28
1 0 79 c0 79 0 80 28 84 l27 4 -27 2 c-28 1 -28 2 -28 70 0 79 -13 101 -60
101 -25 0 -29 4 -32 32 -3 30 -7 33 -43 40 -22 4 -109 7 -192 7 -140 1 -155
-1 -173 -19 -11 -11 -20 -29 -20 -40 0 -15 -7 -20 -28 -20 -43 0 -52 -17 -52
-92 0 -61 -2 -68 -19 -68 -16 0 -20 8 -23 38 -3 35 -5 37 -40 40 -37 3 -38 4
-38 43 0 39 0 39 -40 39 -39 0 -40 1 -40 34 0 22 -6 36 -16 40 -20 8 -308 8
-328 0 -10 -4 -16 -18 -16 -40 0 -33 -1 -34 -40 -34 -40 0 -40 0 -40 -39 0
-39 -1 -40 -37 -43 -36 -3 -38 -5 -41 -40 -3 -30 -7 -38 -23 -38 -17 0 -19 7
-19 68 0 75 -9 92 -52 92 -21 0 -28 5 -28 20 0 11 -9 29 -20 40 -18 18 -32 20
-177 19 -87 -1 -174 -4 -193 -8z m32 -41 c-4 -25 -9 -30 -33 -30 -26 0 -29 4
-29 30 0 27 3 30 33 30 32 0 33 -2 29 -30z m258 -3 c0 -32 -2 -33 -30 -29 -21
3 -30 10 -30 23 0 11 -4 19 -10 19 -5 0 -10 -9 -10 -20 0 -17 -7 -20 -40 -20
-33 0 -40 3 -40 20 0 11 -4 20 -10 20 -5 0 -10 -8 -10 -19 0 -13 -9 -20 -30
-23 -28 -4 -30 -3 -30 29 l0 33 120 0 120 0 0 -33z m80 3 c0 -26 -3 -30 -29
-30 -24 0 -29 5 -33 30 -4 28 -3 30 29 30 30 0 33 -3 33 -30z m640 0 c0 -27
-3 -30 -30 -30 -23 0 -30 5 -30 19 0 11 -4 23 -10 26 -6 4 -10 -5 -10 -19 0
-26 -1 -26 -80 -26 -79 0 -80 0 -80 26 0 14 -4 23 -10 19 -5 -3 -10 -15 -10
-26 0 -14 -7 -19 -30 -19 -27 0 -30 3 -30 30 l0 30 160 0 160 0 0 -30z m382 0
c-4 -25 -9 -30 -33 -30 -26 0 -29 4 -29 30 0 27 3 30 33 30 32 0 33 -2 29 -30z
m258 -3 c0 -32 -2 -33 -30 -29 -21 3 -30 10 -30 23 0 11 -4 19 -10 19 -5 0
-10 -9 -10 -20 0 -17 -7 -20 -40 -20 -33 0 -40 3 -40 20 0 11 -4 20 -10 20 -5
0 -10 -8 -10 -19 0 -13 -9 -20 -30 -23 -28 -4 -30 -3 -30 29 l0 33 120 0 120
0 0 -33z m80 3 c0 -26 -3 -30 -29 -30 -24 0 -29 5 -33 30 -4 28 -3 30 29 30
30 0 33 -3 33 -30z m-1780 -79 c0 -24 -5 -29 -30 -33 -28 -4 -30 -3 -30 29 0
30 3 33 30 33 26 0 30 -3 30 -29z m420 -11 l0 -40 40 0 40 0 0 -160 0 -160
-40 0 -40 0 0 -40 0 -40 -200 0 -200 0 0 40 0 40 -40 0 -40 0 0 160 0 160 40
0 40 0 0 40 0 40 200 0 200 0 0 -40z m80 7 c0 -31 -2 -33 -29 -29 -23 3 -30
10 -33 33 -4 27 -2 29 29 29 31 0 33 -2 33 -33z m640 -207 l0 -240 -240 0
-240 0 0 240 0 240 240 0 240 0 0 -240z m222 211 c-3 -23 -10 -30 -33 -33 -27
-4 -29 -2 -29 29 0 31 2 33 33 33 31 0 33 -2 29 -29z m418 -11 l0 -40 40 0 40
0 0 -160 0 -160 -40 0 -40 0 0 -40 0 -40 -200 0 -200 0 0 40 0 40 -40 0 -40 0
0 160 0 160 40 0 40 0 0 40 0 40 200 0 200 0 0 -40z m80 7 c0 -32 -2 -33 -30
-29 -25 4 -30 9 -30 33 0 26 4 29 30 29 27 0 30 -3 30 -33z m-1220 -77 c0 -23
-5 -30 -19 -30 -11 0 -23 -4 -26 -10 -4 -6 5 -10 19 -10 26 0 26 -1 26 -80 0
-79 0 -80 -26 -80 -14 0 -23 -4 -19 -10 3 -5 15 -10 26 -10 14 0 19 -7 19 -30
0 -27 -3 -30 -30 -30 l-30 0 0 160 0 160 30 0 c27 0 30 -3 30 -30z m580 -130
l0 -160 -30 0 c-27 0 -30 3 -30 30 0 23 5 30 19 30 11 0 23 5 26 10 4 6 -5 10
-19 10 -26 0 -26 1 -26 80 0 79 0 80 26 80 14 0 23 4 19 10 -3 6 -15 10 -26
10 -14 0 -19 7 -19 30 0 27 3 30 30 30 l30 0 0 -160z m-660 0 c0 -73 -2 -80
-20 -80 -18 0 -20 7 -20 80 0 73 2 80 20 80 18 0 20 -7 20 -80z m720 0 c0 -73
-2 -80 -20 -80 -18 0 -20 7 -20 80 0 73 2 80 20 80 18 0 20 -7 20 -80z m-1280
-211 c0 -26 -4 -29 -30 -29 -27 0 -30 3 -30 33 0 32 2 33 30 29 25 -4 30 -9
30 -33z m500 6 c0 -33 -2 -35 -33 -35 -31 0 -33 2 -29 29 3 23 10 31 31 34 14
2 27 5 29 6 1 0 2 -15 2 -34z m862 -6 c4 -27 2 -29 -29 -29 -31 0 -33 2 -33
33 0 31 2 33 29 29 23 -3 30 -10 33 -33z m498 6 c0 -32 -2 -35 -30 -35 -27 0
-30 3 -30 29 0 25 5 30 28 34 15 2 28 5 30 6 1 0 2 -15 2 -34z m-1520 -80 l0
-35 -120 0 -120 0 0 30 c0 27 3 30 30 30 23 0 30 -4 30 -20 0 -11 5 -20 10
-20 6 0 10 9 10 20 0 17 7 20 40 20 33 0 40 -3 40 -20 0 -11 5 -20 10 -20 6 0
10 9 10 19 0 14 8 21 28 24 15 2 28 5 30 6 1 0 2 -15 2 -34z m1180 4 c0 -11 5
-19 10 -19 6 0 10 9 10 20 0 17 7 20 40 20 33 0 40 -3 40 -20 0 -11 5 -20 10
-20 6 0 10 9 10 20 0 16 7 20 30 20 27 0 30 -3 30 -30 l0 -30 -120 0 -120 0 0
33 c0 32 2 33 30 29 21 -3 30 -10 30 -23z m-1438 -9 c4 -28 3 -30 -29 -30 -30
0 -33 3 -33 30 0 26 3 30 29 30 24 0 29 -5 33 -30z m338 0 c0 -27 -3 -30 -33
-30 -32 0 -33 2 -29 30 4 25 9 30 33 30 26 0 29 -4 29 -30z m380 11 c0 -11 5
-23 10 -26 6 -4 10 5 10 19 0 26 1 26 80 26 79 0 80 0 80 -26 0 -14 4 -23 10
-19 6 3 10 15 10 26 0 14 7 19 30 19 27 0 30 -3 30 -30 l0 -30 -160 0 -160 0
0 30 c0 27 3 30 30 30 23 0 30 -5 30 -19z m642 -11 c4 -28 3 -30 -29 -30 -30
0 -33 3 -33 30 0 26 3 30 29 30 24 0 29 -5 33 -30z m338 0 c0 -27 -3 -30 -33
-30 -32 0 -33 2 -29 30 4 25 9 30 33 30 26 0 29 -4 29 -30z"/>
<path d="M460 1480 c0 -13 -7 -20 -20 -20 -11 0 -20 -4 -20 -10 0 -5 14 -10
30 -10 27 0 30 3 30 30 0 17 -4 30 -10 30 -5 0 -10 -9 -10 -20z"/>
<path d="M720 1470 c0 -27 3 -30 30 -30 17 0 30 5 30 10 0 6 -9 10 -20 10 -13
0 -20 7 -20 20 0 11 -4 20 -10 20 -5 0 -10 -13 -10 -30z"/>
<path d="M387 1423 c-4 -3 -7 -15 -7 -25 0 -11 -7 -18 -20 -18 -11 0 -20 -4
-20 -10 0 -5 14 -10 30 -10 28 0 30 3 30 35 0 36 -2 40 -13 28z"/>
<path d="M800 1396 c0 -33 2 -36 30 -36 17 0 30 5 30 10 0 6 -9 10 -20 10 -13
0 -20 7 -20 19 0 11 -4 23 -10 26 -6 4 -10 -8 -10 -29z"/>
<path d="M387 1343 c-11 -10 -8 -121 3 -128 6 -4 10 20 10 64 0 71 -1 77 -13
64z"/>
<path d="M800 1280 c0 -45 4 -69 10 -65 6 3 10 33 10 65 0 32 -4 62 -10 65 -6
4 -10 -20 -10 -65z"/>
<path d="M340 1190 c0 -5 9 -10 20 -10 13 0 20 -7 20 -19 0 -11 5 -23 10 -26
6 -4 10 8 10 29 0 33 -2 36 -30 36 -16 0 -30 -4 -30 -10z"/>
<path d="M800 1164 c0 -21 4 -33 10 -29 6 3 10 15 10 26 0 12 7 19 20 19 11 0
20 5 20 10 0 6 -13 10 -30 10 -28 0 -30 -3 -30 -36z"/>
<path d="M420 1110 c0 -5 9 -10 20 -10 13 0 20 -7 20 -20 0 -11 5 -20 10 -20
6 0 10 14 10 30 0 27 -3 30 -30 30 -16 0 -30 -4 -30 -10z"/>
<path d="M720 1090 c0 -16 5 -30 10 -30 6 0 10 9 10 20 0 13 7 20 20 20 11 0
20 5 20 10 0 6 -13 10 -30 10 -27 0 -30 -3 -30 -30z"/>
<path d="M1107 1503 c-4 -3 -7 -15 -7 -25 0 -11 -7 -18 -19 -18 -11 0 -23 -4
-26 -10 -4 -6 8 -10 29 -10 34 0 36 2 36 35 0 36 -2 40 -13 28z"/>
<path d="M1440 1476 c0 -35 1 -36 36 -36 21 0 33 4 29 10 -3 6 -15 10 -26 10
-12 0 -19 7 -19 19 0 11 -4 23 -10 26 -6 4 -10 -8 -10 -29z"/>
<path d="M1188 1478 c-2 -14 -13 -25 -28 -29 -23 -6 -22 -7 8 -8 29 -1 32 2
32 29 0 35 -7 40 -12 8z"/>
<path d="M1361 1473 c-1 -31 1 -33 32 -32 29 1 30 2 7 8 -14 4 -27 17 -31 31
-6 23 -7 22 -8 -7z"/>
<path d="M1108 1398 c-2 -14 -13 -25 -28 -29 -23 -6 -22 -7 8 -8 29 -1 32 2
32 29 0 35 -7 40 -12 8z"/>
<path d="M1441 1393 c-1 -31 1 -33 32 -32 29 1 30 2 7 8 -14 4 -27 17 -31 31
-6 23 -7 22 -8 -7z"/>
<path d="M1080 1191 c14 -4 27 -17 31 -31 6 -23 7 -22 8 8 1 30 -1 32 -31 31
-30 -1 -31 -2 -8 -8z"/>
<path d="M1441 1168 c1 -30 2 -31 8 -8 4 14 17 27 31 31 23 6 22 7 -7 8 -31 1
-33 -1 -32 -31z"/>
<path d="M1055 1110 c3 -5 15 -10 26 -10 12 0 19 -7 19 -19 0 -11 5 -23 10
-26 6 -4 10 8 10 29 0 35 -1 36 -36 36 -21 0 -33 -4 -29 -10z"/>
<path d="M1160 1111 c14 -4 27 -17 31 -31 6 -23 7 -22 8 8 1 30 -1 32 -31 31
-30 -1 -31 -2 -8 -8z"/>
<path d="M1361 1088 c1 -30 2 -31 8 -8 4 14 17 27 31 31 23 6 22 7 -7 8 -31 1
-33 -1 -32 -31z"/>
<path d="M1440 1084 c0 -21 4 -33 10 -29 6 3 10 15 10 26 0 12 7 19 19 19 11
0 23 5 26 10 4 6 -8 10 -29 10 -35 0 -36 -1 -36 -36z"/>
<path d="M1820 1480 c0 -13 -7 -20 -20 -20 -11 0 -20 -4 -20 -10 0 -5 14 -10
30 -10 27 0 30 3 30 30 0 17 -4 30 -10 30 -5 0 -10 -9 -10 -20z"/>
<path d="M2080 1470 c0 -27 3 -30 30 -30 17 0 30 5 30 10 0 6 -9 10 -20 10
-13 0 -20 7 -20 20 0 11 -4 20 -10 20 -5 0 -10 -13 -10 -30z"/>
<path d="M1747 1423 c-4 -3 -7 -15 -7 -25 0 -11 -7 -18 -20 -18 -11 0 -20 -4
-20 -10 0 -5 14 -10 30 -10 28 0 30 3 30 35 0 36 -2 40 -13 28z"/>
<path d="M2160 1396 c0 -33 2 -36 30 -36 17 0 30 5 30 10 0 6 -9 10 -20 10
-13 0 -20 7 -20 19 0 11 -4 23 -10 26 -6 4 -10 -8 -10 -29z"/>
<path d="M1747 1343 c-11 -10 -8 -121 3 -128 6 -4 10 20 10 64 0 71 -1 77 -13
64z"/>
<path d="M2160 1280 c0 -45 4 -69 10 -65 6 3 10 33 10 65 0 32 -4 62 -10 65
-6 4 -10 -20 -10 -65z"/>
<path d="M1700 1190 c0 -5 9 -10 20 -10 13 0 20 -7 20 -19 0 -11 5 -23 10 -26
6 -4 10 8 10 29 0 33 -2 36 -30 36 -16 0 -30 -4 -30 -10z"/>
<path d="M2160 1164 c0 -21 4 -33 10 -29 6 3 10 15 10 26 0 12 7 19 20 19 11
0 20 5 20 10 0 6 -13 10 -30 10 -28 0 -30 -3 -30 -36z"/>
<path d="M1780 1110 c0 -5 9 -10 20 -10 13 0 20 -7 20 -20 0 -11 5 -20 10 -20
6 0 10 14 10 30 0 27 -3 30 -30 30 -16 0 -30 -4 -30 -10z"/>
<path d="M2080 1090 c0 -16 5 -30 10 -30 6 0 10 9 10 20 0 13 7 20 20 20 11 0
20 5 20 10 0 6 -13 10 -30 10 -27 0 -30 -3 -30 -30z"/>
<path d="M233 1280 c0 -47 2 -66 4 -42 2 23 2 61 0 85 -2 23 -4 4 -4 -43z"/>
<path d="M2323 1280 c0 -47 2 -66 4 -42 2 23 2 61 0 85 -2 23 -4 4 -4 -43z"/>
</g>
</svg>
