<?xml version="1.0" standalone="no"?>
<!DOCTYPE svg PUBLIC "-//W3C//DTD SVG 20010904//EN"
 "http://www.w3.org/TR/2001/REC-SVG-20010904/DTD/svg10.dtd">
<svg version="1.0" xmlns="http://www.w3.org/2000/svg"
 width="100.000000pt" height="100.000000pt" viewBox="0 0 100.000000 100.000000"
 preserveAspectRatio="xMidYMid meet">
<metadata>
Created by potrace 1.16, written by Peter Selinger 2001-2019
</metadata>
<g transform="translate(0.000000,100.000000) scale(0.100000,-0.100000)"
fill="#000000" stroke="none">
<path d="M243 883 c-10 -4 -13 -90 -13 -383 0 -335 2 -379 16 -384 9 -3 54 -6
101 -6 109 0 113 4 113 110 0 60 3 81 12 78 7 -3 15 -15 19 -29 6 -21 7 -21 8
9 1 26 -3 32 -19 32 -15 0 -20 7 -20 25 0 29 26 35 33 8 4 -17 5 -17 6 0 1 12
10 17 30 17 20 0 31 -6 34 -17 4 -17 5 -17 6 0 1 11 9 17 26 17 20 0 25 -5 25
-25 0 -14 4 -25 9 -25 4 0 6 11 4 24 -5 22 -1 25 33 28 34 3 39 7 42 30 3 21
9 27 30 30 21 2 28 9 30 31 2 19 9 27 22 27 25 0 40 53 40 138 0 65 -13 92
-44 92 -12 0 -16 11 -16 43 0 57 -21 77 -83 77 -43 0 -47 2 -47 24 0 13 -7 27
-16 30 -19 7 -363 7 -381 -1z m377 -33 c0 -23 -34 -28 -44 -7 -5 10 -7 10 -12
0 -4 -10 -40 -13 -129 -13 -89 0 -125 3 -128 13 -4 8 -8 9 -14 1 -4 -6 -16
-13 -25 -17 -14 -5 -18 -1 -18 18 l0 25 185 0 c178 0 185 -1 185 -20z m70
-225 l0 -185 -160 0 -160 0 0 -27 c1 -24 2 -26 13 -12 17 22 57 31 57 13 0 -8
5 -14 10 -14 6 0 10 5 10 10 0 15 97 13 103 -2 4 -9 8 -10 14 -2 4 6 16 13 26
17 12 5 17 1 17 -13 0 -11 5 -20 10 -20 6 0 10 7 10 15 0 9 9 15 25 15 18 0
25 -5 25 -20 0 -19 -7 -20 -160 -20 l-160 0 0 -95 0 -95 -60 0 -60 0 0 310 0
310 220 0 220 0 0 -185z m60 165 c0 -13 -7 -20 -20 -20 -13 0 -20 7 -20 20 0
13 7 20 20 20 13 0 20 -7 20 -20z m0 -195 l0 -155 -24 0 c-19 0 -23 4 -19 20
3 11 12 20 19 20 8 0 14 5 14 10 0 6 -9 10 -20 10 -24 0 -26 13 -5 34 18 18
19 26 2 26 -8 0 -13 13 -13 35 0 22 5 35 13 35 17 0 16 8 -2 26 -21 22 -19 34
8 34 19 1 20 2 6 13 -8 7 -18 20 -22 30 -5 13 -1 17 18 17 l25 0 0 -155z m60
0 c0 -88 -1 -95 -20 -95 -25 0 -26 28 -2 46 16 13 16 13 0 14 -14 0 -18 8 -18
35 0 21 5 35 13 36 10 0 10 2 0 6 -7 2 -13 16 -13 29 0 17 6 24 20 24 19 0 20
-7 20 -95z m-370 -315 l0 -90 -29 0 c-25 0 -28 3 -23 25 2 14 12 26 21 26 14
1 13 2 -1 6 -11 3 -18 14 -18 29 0 16 6 24 18 25 16 1 16 2 0 6 -27 7 -23 51
5 56 12 2 23 5 25 6 1 0 2 -39 2 -89z m-147 -124 c6 -8 10 -7 14 2 8 20 63 15
63 -5 1 -16 2 -16 13 -2 7 8 22 18 35 21 18 5 22 2 22 -18 0 -24 -1 -24 -95
-24 -94 0 -95 0 -95 25 0 19 4 23 18 18 9 -4 21 -11 25 -17z"/>
<path d="M286 778 c-13 -14 -15 -23 -8 -26 17 -5 17 -499 0 -504 -8 -3 -5 -12
10 -28 l22 -24 0 302 c0 166 -1 302 -3 302 -1 0 -11 -10 -21 -22z"/>
<path d="M620 778 c0 -24 4 -28 30 -28 17 0 30 5 30 10 0 6 -7 10 -16 10 -9 0
-23 8 -30 18 -12 15 -13 14 -14 -10z"/>
<path d="M560 770 c0 -19 -7 -20 -95 -20 l-95 0 0 -27 c1 -24 2 -26 13 -12 18
24 57 34 57 15 0 -9 5 -16 10 -16 6 0 10 5 10 10 0 14 27 12 33 -2 4 -10 6
-10 6 0 1 14 41 17 41 2 0 -5 5 -10 10 -10 6 0 10 9 10 20 0 13 7 20 20 20 24
0 25 6 6 26 -20 19 -26 18 -26 -6z"/>
<path d="M330 760 c0 -5 7 -10 15 -10 8 0 15 5 15 10 0 6 -7 10 -15 10 -8 0
-15 -4 -15 -10z"/>
<path d="M370 595 l0 -95 125 0 c118 0 125 -1 125 -20 0 -11 5 -20 10 -20 6 0
10 5 10 10 0 6 7 10 15 10 8 0 15 5 15 10 0 6 -11 10 -25 10 -25 0 -25 0 -25
95 l0 95 -125 0 -125 0 0 -95z m70 1 l0 -83 -25 5 c-27 5 -36 42 -10 42 8 0
15 5 15 10 0 6 -7 10 -15 10 -22 0 -19 40 3 41 16 1 16 2 0 6 -26 7 -22 41 5
46 12 2 23 5 25 6 1 0 2 -37 2 -83z m160 53 c0 -11 -7 -19 -17 -19 -17 -1 -17
-1 0 -14 23 -17 22 -32 -3 -39 -18 -5 -20 0 -20 48 0 48 2 53 20 48 11 -3 20
-14 20 -24z m-109 9 c0 -10 2 -10 6 0 8 20 43 14 43 -8 0 -17 -7 -20 -40 -20
-33 0 -40 3 -40 20 0 21 29 29 31 8z m49 -63 c0 -11 -11 -15 -40 -15 -29 0
-40 4 -40 15 0 11 11 15 40 15 29 0 40 -4 40 -15z m63 -54 c-7 -27 -43 -35
-43 -10 0 10 -4 19 -10 19 -5 0 -10 -7 -10 -15 0 -18 -40 -20 -41 -2 0 10 -2
10 -6 0 -7 -20 -30 -15 -36 7 -5 19 0 20 73 20 72 0 78 -2 73 -19z"/>
<path d="M640 620 c0 -5 7 -10 15 -10 8 0 15 5 15 10 0 6 -7 10 -15 10 -8 0
-15 -4 -15 -10z"/>
<path d="M640 570 c0 -5 7 -10 15 -10 8 0 15 5 15 10 0 6 -7 10 -15 10 -8 0
-15 -4 -15 -10z"/>
<path d="M370 470 c0 -5 5 -10 10 -10 6 0 10 5 10 10 0 6 -4 10 -10 10 -5 0
-10 -4 -10 -10z"/>
<path d="M540 470 c0 -5 5 -10 10 -10 6 0 10 5 10 10 0 6 -4 10 -10 10 -5 0
-10 -4 -10 -10z"/>
<path d="M330 240 c0 -5 5 -10 10 -10 6 0 10 5 10 10 0 6 -4 10 -10 10 -5 0
-10 -4 -10 -10z"/>
<path d="M675 320 c-3 -5 -1 -10 4 -10 6 0 11 5 11 10 0 6 -2 10 -4 10 -3 0
-8 -4 -11 -10z"/>
<path d="M523 303 c9 -2 23 -2 30 0 6 3 -1 5 -18 5 -16 0 -22 -2 -12 -5z"/>
<path d="M487 210 c-3 -11 -1 -20 4 -20 5 0 9 9 9 20 0 11 -2 20 -4 20 -2 0
-6 -9 -9 -20z"/>
</g>
</svg>
