<?xml version="1.0" standalone="no"?>
<!DOCTYPE svg PUBLIC "-//W3C//DTD SVG 20010904//EN"
 "http://www.w3.org/TR/2001/REC-SVG-20010904/DTD/svg10.dtd">
<svg version="1.0" xmlns="http://www.w3.org/2000/svg"
 width="192.000000pt" height="192.000000pt" viewBox="0 0 192.000000 192.000000"
 preserveAspectRatio="xMidYMid meet">
<metadata>
Created by potrace 1.16, written by Peter Selinger 2001-2019
</metadata>
<g transform="translate(0.000000,192.000000) scale(0.100000,-0.100000)"
fill="#000000" stroke="none">
<path d="M460 1756 l0 -65 -47 -4 -48 -3 48 -2 47 -2 0 -119 0 -120 -47 -4
-48 -3 48 -2 47 -2 0 -109 0 -110 -47 -4 -48 -3 48 -2 47 -2 0 -54 0 -55 -42
-4 -43 -4 43 -1 42 -2 0 -120 0 -120 -50 0 -50 0 -2 178 c-1 137 -3 161 -8
107 -4 -38 -8 -114 -9 -167 -1 -116 11 -138 79 -138 l40 0 0 -100 0 -100 -40
0 c-68 0 -80 -22 -79 -137 1 -54 5 -129 9 -168 5 -54 7 -30 8 108 l2 177 50 0
50 0 0 -119 0 -120 -42 -4 -43 -4 43 -1 42 -2 0 -54 0 -55 -47 -4 -48 -3 48
-2 47 -2 0 -49 c0 -86 -31 -81 496 -81 451 0 465 1 484 20 20 20 20 33 19 860
l0 840 -500 0 -499 0 0 -64z m980 -196 l0 -240 -480 0 -480 0 0 240 0 240 480
0 480 0 0 -240z m-860 -301 l0 -39 -50 0 -50 0 0 43 0 42 50 -3 50 -4 0 -39z
m740 1 l0 -40 -360 0 -360 0 0 40 0 40 360 0 360 0 0 -40z m120 0 l0 -40 -50
0 -50 0 0 40 0 40 50 0 50 0 0 -40z m0 -540 l0 -480 -480 0 -480 0 0 480 0
480 480 0 480 0 0 -480z m-860 -540 c0 -22 5 -40 10 -40 6 0 10 18 10 40 l0
40 360 0 360 0 0 -40 c0 -22 5 -40 10 -40 6 0 10 18 10 40 l0 40 50 0 50 0 0
-50 0 -50 -480 0 -480 0 0 50 0 50 50 0 50 0 0 -40z"/>
<path d="M592 1743 l-2 -43 -45 0 c-25 0 -45 -4 -45 -10 0 -7 142 -10 407 -10
281 0 404 3 397 10 -7 7 -127 10 -357 8 l-346 -3 -4 45 -3 45 -2 -42z"/>
<path d="M1320 1730 l0 -50 50 0 c28 0 50 5 50 10 0 6 -18 10 -40 10 l-40 0 0
40 c0 22 -4 40 -10 40 -5 0 -10 -22 -10 -50z"/>
<path d="M500 1430 c0 -5 20 -10 44 -10 l45 0 4 -42 4 -43 1 45 2 45 347 -3
c230 -2 350 1 357 8 7 7 -116 10 -397 10 -265 0 -407 -3 -407 -10z"/>
<path d="M1320 1390 c0 -27 5 -50 10 -50 6 0 10 18 10 40 l0 40 40 0 c22 0 40
5 40 10 0 6 -22 10 -50 10 l-50 0 0 -50z"/>
<path d="M1320 1130 l0 -50 50 0 c28 0 50 5 50 10 0 6 -18 10 -40 10 l-40 0 0
40 c0 22 -4 40 -10 40 -5 0 -10 -22 -10 -50z"/>
<path d="M495 830 c3 -5 24 -10 46 -10 l39 0 0 -100 0 -100 -39 0 c-22 0 -43
-4 -46 -10 -4 -7 153 -10 464 -10 307 0 471 3 471 10 0 6 -20 10 -45 10 l-45
0 0 100 0 100 45 0 c25 0 45 5 45 10 0 7 -164 10 -471 10 -311 0 -468 -3 -464
-10z m825 -107 l0 -108 -360 3 -360 2 0 100 0 100 358 3 c196 1 358 3 360 5 1
1 2 -46 2 -105z"/>
<path d="M1322 308 l1 -53 6 45 c6 45 6 45 51 51 l45 6 -52 1 -53 2 2 -52z"/>
<path d="M346 1674 c-10 -25 -7 -218 4 -234 7 -10 10 28 10 118 0 72 -2 132
-4 132 -2 0 -7 -7 -10 -16z"/>
</g>
</svg>
