<?xml version="1.0" standalone="no"?>
<!DOCTYPE svg PUBLIC "-//W3C//DTD SVG 20010904//EN"
 "http://www.w3.org/TR/2001/REC-SVG-20010904/DTD/svg10.dtd">
<svg version="1.0" xmlns="http://www.w3.org/2000/svg"
 width="192.000000pt" height="192.000000pt" viewBox="0 0 192.000000 192.000000"
 preserveAspectRatio="xMidYMid meet">
<metadata>
Created by potrace 1.16, written by Peter Selinger 2001-2019
</metadata>
<g transform="translate(0.000000,192.000000) scale(0.100000,-0.100000)"
fill="#000000" stroke="none">
<path d="M1418 1713 c6 -2 18 -2 25 0 6 3 1 5 -13 5 -14 0 -19 -2 -12 -5z"/>
<path d="M7 1653 c7 -2 19 -2 26 0 6 3 1 5 -13 5 -14 0 -19 -2 -13 -5z"/>
<path d="M258 1653 c56 -2 148 -2 205 0 56 1 10 3 -103 3 -113 0 -159 -2 -102
-3z"/>
<path d="M1190 1650 c0 -7 80 -10 235 -10 144 1 233 5 230 11 -9 13 -465 12
-465 -1z"/>
<path d="M1115 1589 c-13 -5 -1 -8 37 -8 31 -1 59 3 62 8 7 10 -72 11 -99 0z"/>
<path d="M1614 1589 c-2 -4 23 -8 56 -8 33 0 60 4 60 10 0 11 -108 10 -116 -2z"/>
<path d="M1110 1550 c-8 -26 -7 -41 2 -32 6 6 8 16 5 24 -3 7 -6 11 -7 8z"/>
<path d="M1756 1543 c-11 -11 -6 -23 8 -23 8 0 17 4 20 9 7 10 -19 23 -28 14z"/>
<path d="M1042 1531 c4 -13 18 -16 19 -4 0 4 -5 9 -11 12 -7 2 -11 -2 -8 -8z"/>
<path d="M1825 1531 c-3 -5 -2 -12 3 -15 5 -3 9 1 9 9 0 17 -3 19 -12 6z"/>
<path d="M987 1483 c-12 -11 -8 -413 4 -413 7 0 10 65 8 210 -1 116 -3 210 -4
210 -1 0 -5 -3 -8 -7z"/>
<path d="M1037 1476 c-3 -8 0 -21 6 -30 10 -14 12 -12 14 14 2 31 -11 41 -20
16z"/>
<path d="M1823 1482 c-7 -5 -9 -13 -3 -21 4 -8 6 -20 3 -27 -2 -6 0 -14 5 -18
5 -3 9 13 10 34 1 22 1 40 -1 40 -1 0 -7 -4 -14 -8z"/>
<path d="M807 1473 c-7 -13 -5 -133 2 -138 4 -2 7 29 7 70 -1 76 -1 81 -9 68z"/>
<path d="M1882 1345 c0 -52 4 -95 8 -95 4 0 8 43 9 95 1 54 -2 95 -8 95 -5 0
-9 -42 -9 -95z"/>
<path d="M1826 1387 c3 -10 9 -15 12 -12 3 3 0 11 -7 18 -10 9 -11 8 -5 -6z"/>
<path d="M1400 1335 c0 -27 -4 -35 -18 -35 -10 0 -23 5 -30 12 -9 9 -12 9 -12
0 0 -7 -7 -12 -15 -12 -8 0 -15 -4 -15 -10 0 -10 8 -12 60 -14 37 -2 33 -31
-5 -31 -17 -1 -36 -5 -44 -10 -12 -7 -10 -10 7 -16 12 -5 29 -6 37 -3 22 9 44
-13 38 -36 -4 -16 0 -20 18 -20 13 0 47 0 74 -1 162 -3 285 2 285 11 0 6 -46
10 -118 10 -78 0 -122 4 -130 12 -8 8 -12 8 -12 1 0 -6 -21 -11 -50 -11 -27 0
-50 4 -50 9 0 5 0 12 0 17 0 4 28 7 63 7 56 0 62 2 59 20 -2 11 -4 31 -5 45
-2 21 -6 24 -29 22 -24 -3 -28 0 -28 22 0 14 -4 26 -10 26 -5 0 -9 -3 -9 -7 1
-5 1 -16 0 -26 -1 -25 -36 -18 -37 8 -1 11 -2 26 -3 33 -2 29 -21 9 -21 -23z
m116 -90 c-3 -8 -13 -11 -24 -8 -24 6 -19 40 7 45 17 4 26 -15 17 -37z m-57
26 c16 -10 6 -31 -14 -31 -17 0 -28 17 -20 30 8 12 16 12 34 1z"/>
<path d="M1755 1230 c3 -5 14 -10 23 -10 15 0 15 2 2 10 -20 13 -33 13 -25 0z"/>
<path d="M1810 1229 c0 -5 10 -9 22 -9 12 0 18 3 14 7 -10 11 -36 12 -36 2z"/>
<path d="M1880 1230 c0 -5 5 -10 11 -10 5 0 7 5 4 10 -3 6 -8 10 -11 10 -2 0
-4 -4 -4 -10z"/>
<path d="M920 1199 c0 -5 5 -7 10 -4 6 3 10 8 10 11 0 2 -4 4 -10 4 -5 0 -10
-5 -10 -11z"/>
<path d="M0 1169 c0 -5 149 -8 345 -8 228 0 344 3 340 10 -8 12 -685 11 -685
-2z"/>
<path d="M700 1170 c0 -6 11 -8 28 -4 39 10 40 14 4 14 -18 0 -32 -5 -32 -10z"/>
<path d="M1517 1118 c-23 -14 2 -19 103 -19 93 0 121 4 109 15 -8 8 -200 11
-212 4z"/>
<path d="M1042 1044 c1 -22 -2 -46 -5 -51 -4 -6 -1 -13 7 -16 10 -4 14 5 14
36 1 23 -3 49 -8 57 -7 11 -9 3 -8 -26z"/>
<path d="M985 1050 c3 -5 8 -10 11 -10 2 0 4 5 4 10 0 6 -5 10 -11 10 -5 0 -7
-4 -4 -10z"/>
<path d="M1630 1052 c0 -12 90 -20 96 -10 3 5 16 5 30 2 13 -3 24 -2 24 3 0 6
-34 11 -75 12 -42 1 -75 -2 -75 -7z"/>
<path d="M809 1025 c-6 -21 -2 -105 4 -105 4 0 7 25 6 55 -2 47 -6 68 -10 50z"/>
<path d="M1100 990 c0 -5 5 -10 10 -10 6 0 10 5 10 10 0 6 -4 10 -10 10 -5 0
-10 -4 -10 -10z"/>
<path d="M1746 991 c-3 -5 3 -11 13 -14 12 -3 22 1 25 9 6 16 -29 20 -38 5z"/>
<path d="M1825 990 c3 -5 8 -10 11 -10 2 0 4 5 4 10 0 6 -5 10 -11 10 -5 0 -7
-4 -4 -10z"/>
<path d="M1817 944 c-8 -8 3 -34 14 -34 5 0 9 9 9 20 0 19 -11 26 -23 14z"/>
<path d="M1100 930 c0 -5 10 -10 23 -10 18 0 19 2 7 10 -19 13 -30 13 -30 0z"/>
<path d="M1150 930 c0 -5 7 -10 15 -10 8 0 15 5 15 10 0 6 -7 10 -15 10 -8 0
-15 -4 -15 -10z"/>
<path d="M1882 924 c0 -10 0 -118 0 -239 -1 -263 -1 -258 11 -246 12 12 9 483
-3 495 -5 5 -9 2 -8 -10z"/>
<path d="M1155 880 c-4 -6 -11 -8 -16 -5 -5 4 -9 2 -9 -3 0 -11 84 -19 138
-14 57 6 35 23 -26 21 -33 -1 -64 1 -70 5 -6 3 -13 2 -17 -4z"/>
<path d="M1347 823 c-2 -1 -69 -3 -150 -4 -81 0 -145 -4 -142 -8 4 -7 139 -13
290 -13 83 0 87 1 81 11 -5 8 -73 21 -79 14z"/>
<path d="M1332 762 c-10 -3 -10 -7 -1 -18 6 -8 9 -24 6 -36 -3 -11 -2 -29 4
-39 6 -12 5 -20 -1 -24 -17 -11 0 -25 30 -25 15 0 31 -6 33 -12 4 -10 6 -10 6
0 1 6 12 12 26 12 19 0 25 -5 26 -22 l0 -23 11 23 c13 26 48 30 48 5 0 -15 1
-15 13 -1 6 9 21 18 32 21 17 3 16 6 -10 16 l-30 13 23 18 c27 22 27 26 4 32
-18 5 -27 38 -10 38 4 0 8 5 8 10 0 6 -9 10 -20 10 -21 0 -27 -15 -10 -25 14
-8 -6 -35 -26 -35 -22 0 -28 22 -9 36 10 8 16 16 13 19 -9 9 -98 13 -98 4 0
-4 -12 -4 -27 0 -16 4 -34 6 -41 3z m128 -43 c0 -19 -4 -21 -52 -21 -16 -1
-28 -5 -28 -9 0 -5 18 -9 40 -9 22 0 40 -4 40 -10 0 -5 0 -13 0 -17 0 -4 -23
-9 -51 -10 -50 -1 -51 -1 -44 24 3 14 1 31 -5 39 -19 22 -3 32 50 32 42 0 50
-3 50 -19z m60 -59 c0 -13 -7 -20 -20 -20 -13 0 -20 7 -20 20 0 13 7 20 20 20
13 0 20 -7 20 -20z"/>
<path d="M0 750 c0 -6 128 -10 365 -10 237 0 365 4 365 10 0 6 -128 10 -365
10 -237 0 -365 -4 -365 -10z"/>
<path d="M740 750 c0 -5 5 -10 10 -10 6 0 10 5 10 10 0 6 -4 10 -10 10 -5 0
-10 -4 -10 -10z"/>
<path d="M980 750 c0 -4 36 -7 80 -7 44 -1 80 3 80 8 0 5 -36 9 -80 8 -44 -1
-80 -5 -80 -9z"/>
<path d="M1280 750 c0 -5 4 -10 9 -10 6 0 13 5 16 10 3 6 -1 10 -9 10 -9 0
-16 -4 -16 -10z"/>
<path d="M921 685 c1 -19 18 -51 18 -35 0 8 -4 22 -9 30 -5 8 -9 11 -9 5z"/>
<path d="M923 609 c-1 -10 2 -19 8 -19 11 0 12 27 1 34 -4 2 -9 -4 -9 -15z"/>
<path d="M809 603 c-5 -56 -3 -135 3 -139 5 -3 8 28 7 70 -1 42 -3 76 -5 76
-2 0 -4 -3 -5 -7z"/>
<path d="M981 572 c2 -23 0 -44 -3 -48 -9 -8 2 -34 13 -34 13 0 11 108 -2 116
-7 4 -10 -7 -8 -34z"/>
<path d="M925 570 c-3 -5 -1 -10 4 -10 6 0 11 5 11 10 0 6 -2 10 -4 10 -3 0
-8 -4 -11 -10z"/>
<path d="M1040 510 c0 -11 4 -20 9 -20 6 0 9 9 8 20 -1 11 -5 20 -9 20 -4 0
-8 -9 -8 -20z"/>
<path d="M1042 444 c2 -31 4 -33 15 -18 8 11 9 21 3 29 -5 7 -7 15 -3 18 3 4
1 7 -6 7 -7 0 -11 -13 -9 -36z"/>
<path d="M1829 468 c-1 -2 -3 -25 -4 -53 -2 -39 -1 -45 7 -26 5 14 7 30 4 37
-2 6 0 16 6 22 6 6 6 12 -1 16 -6 4 -12 6 -12 4z"/>
<path d="M1095 400 c-9 -15 -1 -23 21 -18 15 3 16 4 1 16 -11 9 -17 10 -22 2z"/>
<path d="M1754 388 c-3 -4 4 -8 15 -8 12 0 21 4 21 8 0 5 -7 9 -15 9 -9 0 -18
-4 -21 -9z"/>
<path d="M1154 341 c-14 -14 2 -21 46 -21 28 0 50 4 50 9 0 9 -88 20 -96 12z"/>
<path d="M0 330 c0 -5 7 -10 15 -10 8 0 15 5 15 10 0 6 -7 10 -15 10 -8 0 -15
-4 -15 -10z"/>
<path d="M1646 331 c-3 -4 26 -9 63 -10 38 -1 72 2 75 8 3 5 -24 9 -64 10 -38
0 -71 -3 -74 -8z"/>
<path d="M248 273 c61 -2 163 -2 225 0 61 1 11 3 -113 3 -124 0 -174 -2 -112
-3z"/>
<path d="M1239 269 c-8 -5 77 -9 204 -9 141 0 216 4 212 10 -7 12 -397 11
-416 -1z"/>
</g>
</svg>
