<?xml version="1.0" standalone="no"?>
<!DOCTYPE svg PUBLIC "-//W3C//DTD SVG 20010904//EN"
 "http://www.w3.org/TR/2001/REC-SVG-20010904/DTD/svg10.dtd">
<svg version="1.0" xmlns="http://www.w3.org/2000/svg"
 width="100.000000pt" height="100.000000pt" viewBox="0 0 100.000000 100.000000"
 preserveAspectRatio="xMidYMid meet">
<metadata>
Created by potrace 1.16, written by Peter Selinger 2001-2019
</metadata>
<g transform="translate(0.000000,100.000000) scale(0.100000,-0.100000)"
fill="#000000" stroke="none">
<path d="M492 948 c-7 -7 -12 -36 -12 -65 0 -52 0 -53 -30 -53 l-30 0 0 -360
0 -360 50 0 c49 0 50 1 50 30 0 27 3 30 30 30 l30 0 0 383 c0 285 -3 386 -12
395 -15 15 -61 15 -76 0z m68 -383 l0 -375 -30 0 -30 0 0 155 c0 148 1 155 20
155 11 0 20 5 20 10 0 6 -4 10 -9 10 -5 0 -11 9 -14 20 -3 13 0 20 9 20 8 0
14 5 14 10 0 6 -4 10 -10 10 -5 0 -10 11 -10 25 0 17 6 25 18 25 16 1 16 1 0
14 -10 7 -18 21 -18 30 0 9 8 16 18 16 16 1 16 1 0 14 -13 9 -18 27 -18 59 0
25 -4 49 -10 52 -5 3 -10 33 -10 66 0 59 0 59 30 59 l30 0 0 -375z m-60 90 c0
-148 -1 -155 -20 -155 -24 0 -25 -6 -5 -26 8 -9 15 -20 15 -25 0 -5 -7 -9 -15
-9 -8 0 -15 -4 -15 -10 0 -5 5 -10 10 -10 18 0 11 -40 -7 -40 -17 -1 -17 -1 0
-14 9 -7 17 -23 17 -35 0 -13 -6 -21 -17 -21 -16 -1 -16 -2 2 -16 17 -13 18
-16 5 -25 -11 -8 -12 -12 -2 -16 6 -2 12 -18 12 -34 0 -16 5 -29 10 -29 6 0
10 -13 10 -30 0 -27 -3 -30 -30 -30 l-30 0 0 340 0 340 30 0 30 0 0 -155z"/>
<path d="M515 880 c-3 -5 3 -10 15 -10 12 0 18 5 15 10 -3 6 -10 10 -15 10 -5
0 -12 -4 -15 -10z"/>
<path d="M520 450 c0 -5 5 -10 10 -10 6 0 10 5 10 10 0 6 -4 10 -10 10 -5 0
-10 -4 -10 -10z"/>
<path d="M520 370 c0 -5 5 -10 10 -10 6 0 10 5 10 10 0 6 -4 10 -10 10 -5 0
-10 -4 -10 -10z"/>
<path d="M520 300 c0 -5 5 -10 10 -10 6 0 10 5 10 10 0 6 -4 10 -10 10 -5 0
-10 -4 -10 -10z"/>
<path d="M510 240 c0 -5 6 -10 14 -10 8 0 18 5 21 10 3 6 -3 10 -14 10 -12 0
-21 -4 -21 -10z"/>
<path d="M455 760 c-3 -5 3 -10 15 -10 12 0 18 5 15 10 -3 6 -10 10 -15 10 -5
0 -12 -4 -15 -10z"/>
<path d="M460 700 c0 -5 5 -10 10 -10 6 0 10 5 10 10 0 6 -4 10 -10 10 -5 0
-10 -4 -10 -10z"/>
<path d="M460 640 c0 -5 5 -10 10 -10 6 0 10 5 10 10 0 6 -4 10 -10 10 -5 0
-10 -4 -10 -10z"/>
</g>
</svg>
