<?xml version="1.0" standalone="no"?>
<!DOCTYPE svg PUBLIC "-//W3C//DTD SVG 20010904//EN"
 "http://www.w3.org/TR/2001/REC-SVG-20010904/DTD/svg10.dtd">
<svg version="1.0" xmlns="http://www.w3.org/2000/svg"
 width="100.000000pt" height="100.000000pt" viewBox="0 0 100.000000 100.000000"
 preserveAspectRatio="xMidYMid meet">
<metadata>
Created by potrace 1.16, written by Peter Selinger 2001-2019
</metadata>
<g transform="translate(0.000000,100.000000) scale(0.100000,-0.100000)"
fill="#000000" stroke="none">
<path d="M540 925 l0 -75 30 0 30 0 0 -70 0 -70 -30 0 c-29 0 -30 -1 -30 -50
l0 -50 85 0 85 0 0 120 0 120 30 0 c30 0 30 1 30 55 0 54 0 55 -30 55 -23 0
-30 4 -30 20 0 11 -4 20 -10 20 -5 0 -10 -13 -10 -30 0 -27 3 -30 30 -30 28 0
30 -3 30 -35 0 -32 -2 -35 -30 -35 l-30 0 0 -120 0 -120 -65 0 -65 0 0 30 c0
27 3 30 30 30 l30 0 0 90 0 90 -30 0 -30 0 0 65 c0 37 -4 65 -10 65 -6 0 -10
-32 -10 -75z"/>
<path d="M420 925 c0 -33 -2 -35 -35 -35 -32 0 -35 -2 -35 -30 0 -27 -3 -30
-30 -30 l-30 0 0 -125 0 -125 -60 0 -60 0 0 -30 c0 -27 -3 -30 -30 -30 l-30 0
0 -175 0 -175 30 0 c27 0 30 -3 30 -30 0 -29 1 -30 50 -30 l50 0 0 50 c0 49
-1 50 -30 50 l-30 0 0 135 0 135 60 0 60 0 0 30 0 30 65 0 65 0 0 55 0 55 -35
0 -35 0 0 70 0 70 35 0 c32 0 35 2 35 30 0 27 3 30 30 30 30 0 30 1 30 55 l0
55 -50 0 -50 0 0 -35z m80 -20 c0 -32 -2 -35 -30 -35 -27 0 -30 -3 -30 -30 0
-28 -3 -30 -35 -30 l-35 0 0 -90 0 -90 35 0 c33 0 35 -2 35 -35 l0 -35 -65 0
-65 0 0 -30 0 -30 -60 0 -60 0 0 -155 0 -155 30 0 c27 0 30 -3 30 -30 0 -27
-3 -30 -30 -30 -27 0 -30 3 -30 30 0 27 -3 30 -30 30 l-30 0 0 155 0 155 30 0
c27 0 30 3 30 30 l0 30 60 0 60 0 0 125 0 125 30 0 c27 0 30 3 30 30 0 28 3
30 35 30 33 0 35 2 35 35 0 32 2 35 30 35 28 0 30 -3 30 -35z"/>
<path d="M790 735 l0 -155 -30 0 c-27 0 -30 -3 -30 -30 l0 -30 -65 0 -65 0 0
-30 0 -30 -125 0 -125 0 0 -30 c0 -27 -3 -30 -30 -30 l-30 0 0 -115 0 -115 50
0 50 0 0 95 0 95 105 0 105 0 0 -75 0 -75 -30 0 c-29 0 -30 -1 -30 -50 l0 -50
50 0 c49 0 50 1 50 30 0 28 3 30 35 30 l35 0 0 125 0 125 30 0 c27 0 30 3 30
30 0 27 3 30 30 30 27 0 30 3 30 30 0 27 3 30 30 30 l30 0 0 175 0 175 -50 0
-50 0 0 -155z m80 -20 l0 -155 -30 0 c-27 0 -30 -3 -30 -30 0 -27 -3 -30 -30
-30 -27 0 -30 -3 -30 -30 0 -27 -3 -30 -30 -30 l-30 0 0 -125 0 -125 -35 0
c-32 0 -35 -2 -35 -30 0 -27 -3 -30 -30 -30 -27 0 -30 3 -30 30 0 27 3 30 30
30 l30 0 0 95 0 95 -125 0 -125 0 0 -95 0 -95 -30 0 -30 0 0 95 0 95 30 0 c27
0 30 3 30 30 l0 30 125 0 125 0 0 30 0 30 65 0 65 0 0 30 c0 27 3 30 30 30
l30 0 0 155 0 155 30 0 30 0 0 -155z"/>
<path d="M290 95 c0 -54 0 -55 30 -55 23 0 30 -4 30 -20 0 -11 5 -20 10 -20 6
0 10 13 10 30 0 27 -3 30 -30 30 -28 0 -30 3 -30 35 l0 35 95 0 95 0 0 -35 c0
-32 -2 -35 -30 -35 -27 0 -30 -3 -30 -30 0 -17 5 -30 10 -30 6 0 10 9 10 20 0
16 7 20 30 20 30 0 30 1 30 55 l0 55 -115 0 -115 0 0 -55z"/>
</g>
</svg>
