<?xml version="1.0" standalone="no"?>
<!DOCTYPE svg PUBLIC "-//W3C//DTD SVG 20010904//EN"
 "http://www.w3.org/TR/2001/REC-SVG-20010904/DTD/svg10.dtd">
<svg version="1.0" xmlns="http://www.w3.org/2000/svg"
 width="192.000000pt" height="192.000000pt" viewBox="0 0 192.000000 192.000000"
 preserveAspectRatio="xMidYMid meet">
<metadata>
Created by potrace 1.16, written by Peter Selinger 2001-2019
</metadata>
<g transform="translate(0.000000,192.000000) scale(0.100000,-0.100000)"
fill="#000000" stroke="none">
<path d="M1385 1765 c-8 -19 -22 -51 -30 -70 -8 -19 -20 -35 -25 -35 -5 0 -38
14 -74 32 -65 32 -96 32 -96 1 0 -10 9 -48 19 -85 11 -37 16 -69 13 -71 -4 -3
-40 -12 -79 -22 -68 -16 -73 -19 -73 -44 0 -21 12 -34 60 -65 33 -21 60 -41
60 -45 0 -4 -18 -32 -40 -61 -22 -29 -40 -65 -40 -78 l0 -25 90 6 90 6 0 -32
c0 -18 3 -56 6 -84 6 -50 9 -53 34 -53 21 0 40 13 75 52 l46 51 52 -51 c37
-37 60 -52 80 -52 24 0 27 4 27 33 0 17 3 55 6 84 l7 52 88 -6 c88 -6 89 -6
89 17 0 13 -18 47 -40 76 -22 29 -40 57 -40 62 0 6 27 27 60 48 49 32 60 44
60 66 0 26 -4 28 -80 44 -44 10 -80 20 -80 23 0 3 9 35 20 71 11 36 20 72 20
81 0 30 -32 30 -98 -1 -35 -16 -68 -30 -73 -30 -5 0 -23 32 -40 70 -26 58 -36
70 -55 70 -18 0 -28 -9 -39 -35z m63 -30 c11 -27 27 -66 36 -86 l15 -37 87 46
c69 35 86 41 80 26 -8 -18 -39 -121 -47 -153 -3 -11 20 -20 91 -36 l94 -21
-79 -49 c-44 -27 -82 -50 -84 -51 -2 -2 34 -53 103 -143 11 -14 -26 -13 -146
5 l-38 6 0 -96 c0 -53 -3 -96 -7 -95 -5 0 -35 32 -68 70 l-60 70 -67 -73 -67
-73 -2 85 c-1 47 -1 91 0 98 2 11 -7 13 -36 8 -121 -18 -158 -19 -147 -5 6 8
31 42 57 75 l46 62 -81 53 -81 54 91 19 c51 11 92 24 92 30 0 6 -11 47 -25 91
-14 44 -25 81 -25 83 0 2 38 -17 85 -41 l86 -45 13 32 c7 17 23 57 36 88 13
32 25 57 26 55 1 -1 11 -24 22 -52z"/>
<path d="M111 891 c-29 -19 17 -192 81 -299 48 -82 161 -196 242 -246 320
-197 743 -132 979 151 84 101 166 298 156 373 -4 25 -4 25 -129 28 -140 3
-170 -1 -170 -24 0 -36 -68 -151 -120 -204 -129 -129 -301 -170 -463 -110
-118 44 -227 155 -273 277 -10 27 -23 51 -28 55 -15 11 -258 9 -275 -1z m269
-38 c0 -35 60 -144 106 -193 145 -155 362 -198 551 -110 106 49 206 157 243
263 l18 52 126 3 126 3 -7 -33 c-23 -126 -103 -269 -202 -368 -132 -130 -280
-197 -462 -207 -362 -21 -661 210 -753 580 l-6 27 130 0 c117 0 130 -2 130
-17z"/>
</g>
</svg>
