<?xml version="1.0" standalone="no"?>
<!DOCTYPE svg PUBLIC "-//W3C//DTD SVG 20010904//EN"
 "http://www.w3.org/TR/2001/REC-SVG-20010904/DTD/svg10.dtd">
<svg version="1.0" xmlns="http://www.w3.org/2000/svg"
 width="100.000000pt" height="100.000000pt" viewBox="0 0 100.000000 100.000000"
 preserveAspectRatio="xMidYMid meet">
<metadata>
Created by potrace 1.16, written by Peter Selinger 2001-2019
</metadata>
<g transform="translate(0.000000,100.000000) scale(0.100000,-0.100000)"
fill="#000000" stroke="none">
<path d="M707 953 c-4 -3 -7 -18 -7 -33 0 -19 -5 -27 -17 -27 -73 1 -80 -2
-81 -34 -1 -49 -12 -47 -12 2 -1 34 -3 40 -11 27 -5 -10 -8 -33 -6 -53 3 -28
1 -35 -13 -35 -10 0 -23 -7 -30 -15 -13 -15 -11 -21 42 -119 l17 -31 1 58 c0
44 -3 57 -15 57 -8 0 -15 7 -15 15 0 10 10 15 30 15 29 0 30 2 30 45 l0 45 48
-1 c29 -1 36 -4 20 -6 -37 -6 -36 -23 2 -23 28 0 30 3 30 35 0 32 2 35 30 35
28 0 30 -3 30 -35 0 -29 4 -35 21 -35 18 0 19 2 9 15 -11 13 -7 15 24 15 35 0
36 -1 35 -37 -1 -22 -3 -29 -6 -18 -9 38 -23 40 -23 2 l0 -37 50 0 c38 0 50
-4 50 -15 0 -18 -16 -20 -23 -2 -3 6 -6 0 -6 -15 -1 -19 -6 -28 -17 -28 -14 0
-14 3 -4 15 10 12 10 15 -4 15 -12 0 -16 -10 -16 -45 0 -43 -1 -45 -30 -45
-29 0 -30 -1 -30 -50 0 -38 -4 -50 -15 -50 -8 0 -15 7 -15 15 0 11 -12 15 -45
15 -45 0 -45 0 -45 35 0 19 -4 35 -8 35 -5 0 -8 -10 -6 -22 1 -13 3 -31 3 -40
1 -11 9 -18 21 -18 11 0 20 -4 20 -10 0 -5 -13 -10 -30 -10 -29 0 -30 1 -30
50 0 47 -2 50 -25 50 -31 0 -32 -8 -2 -20 18 -7 13 -9 -25 -9 -47 -1 -48 -1
-48 31 0 23 -3 29 -11 21 -6 -6 -9 -23 -7 -39 3 -27 6 -29 51 -32 46 -3 47 -4
47 -36 0 -38 20 -60 47 -53 14 4 13 5 -4 6 -13 0 -23 5 -23 10 0 10 102 2 115
-10 5 -5 18 -9 30 -8 17 1 16 2 -5 9 l-25 8 28 1 c24 1 27 5 28 39 l2 37 7
-35 7 -35 8 33 c7 28 11 32 42 32 l34 0 -2 63 c-2 54 0 62 15 59 14 -3 17 3
14 30 -3 28 -8 34 -33 38 -27 4 -31 9 -34 45 -4 54 -17 75 -44 74 l-22 -2 23
-4 c38 -7 26 -30 -13 -25 -26 3 -35 9 -35 23 0 16 -6 18 -40 14 -24 -3 -40 -1
-40 5 0 5 11 10 25 10 14 0 25 5 25 10 0 11 -53 14 -63 3z m-163 -188 c-4 -8
-8 -15 -10 -15 -2 0 -4 7 -4 15 0 8 4 15 10 15 5 0 7 -7 4 -15z m31 -35 c3 -5
1 -10 -4 -10 -6 0 -11 5 -11 10 0 6 2 10 4 10 3 0 8 -4 11 -10z m335 -70 c0
-29 -1 -30 -47 -30 -42 0 -54 11 -17 16 32 5 46 15 40 29 -3 9 0 15 9 15 10 0
15 -10 15 -30z m-145 -90 c3 -5 1 -10 -4 -10 -6 0 -11 5 -11 10 0 6 2 10 4 10
3 0 8 -4 11 -10z"/>
<path d="M613 913 c9 -2 23 -2 30 0 6 3 -1 5 -18 5 -16 0 -22 -2 -12 -5z"/>
<path d="M750 886 c0 -9 5 -16 10 -16 6 0 10 4 10 9 0 6 -4 13 -10 16 -5 3
-10 -1 -10 -9z"/>
<path d="M750 850 c0 -5 5 -10 11 -10 5 0 7 5 4 10 -3 6 -8 10 -11 10 -2 0 -4
-4 -4 -10z"/>
<path d="M638 805 c-4 -17 -1 -25 8 -25 8 0 14 11 14 25 0 14 -4 25 -9 25 -5
0 -11 -11 -13 -25z"/>
<path d="M698 813 c7 -3 16 -2 19 1 4 3 -2 6 -13 5 -11 0 -14 -3 -6 -6z"/>
<path d="M811 794 c0 -11 3 -14 6 -6 3 7 2 16 -1 19 -3 4 -6 -2 -5 -13z"/>
<path d="M605 740 c3 -5 8 -10 11 -10 2 0 4 5 4 10 0 6 -5 10 -11 10 -5 0 -7
-4 -4 -10z"/>
<path d="M600 705 c0 -8 5 -15 10 -15 6 0 10 7 10 15 0 8 -4 15 -10 15 -5 0
-10 -7 -10 -15z"/>
<path d="M646 711 c-4 -7 -5 -15 -2 -18 9 -9 19 4 14 18 -4 11 -6 11 -12 0z"/>
<path d="M840 705 c0 -8 5 -15 10 -15 6 0 10 7 10 15 0 8 -4 15 -10 15 -5 0
-10 -7 -10 -15z"/>
<path d="M720 614 c0 -17 22 -14 28 4 2 7 -3 12 -12 12 -9 0 -16 -7 -16 -16z"/>
<path d="M765 620 c3 -5 8 -10 11 -10 2 0 4 5 4 10 0 6 -5 10 -11 10 -5 0 -7
-4 -4 -10z"/>
<path d="M32 478 c-7 -7 -11 -23 -11 -37 1 -25 2 -24 9 4 6 22 8 9 9 -49 1
-65 4 -77 16 -72 11 4 15 -2 15 -25 0 -22 5 -32 20 -36 11 -3 20 -12 20 -19 0
-8 7 -14 15 -14 8 0 15 -7 15 -15 0 -8 7 -15 15 -15 8 0 15 -7 15 -15 0 -8 6
-15 14 -15 7 0 19 -7 26 -15 7 -8 20 -15 30 -15 10 0 23 -7 30 -15 10 -12 41
-15 161 -15 81 0 150 4 153 9 4 5 0 11 -6 14 -7 2 1 4 18 5 33 1 114 38 114
53 0 5 7 9 15 9 8 0 15 4 15 9 0 6 14 25 30 43 17 18 30 40 30 49 0 9 7 19 15
23 12 4 15 24 15 86 l0 80 -95 0 c-92 0 -95 -1 -96 -22 -1 -13 -1 -26 0 -30 0
-5 -8 -8 -19 -8 -11 0 -20 -7 -20 -15 0 -8 -5 -15 -10 -15 -6 0 -14 -8 -17
-17 -9 -24 -41 -53 -57 -53 -7 0 -19 -7 -26 -15 -10 -12 -30 -15 -77 -14 -37
1 -59 5 -52 10 10 6 6 10 -11 17 -31 12 -80 60 -80 79 0 7 -7 16 -15 19 -9 4
-15 19 -15 35 l0 29 -98 0 c-63 0 -102 -4 -110 -12z m188 -73 c0 -39 4 -65 11
-65 6 0 8 9 4 20 -4 11 -2 20 4 20 6 0 11 -9 11 -20 0 -11 7 -20 15 -20 8 0
15 -7 15 -15 0 -8 7 -15 15 -15 8 0 15 -7 15 -15 0 -13 21 -15 125 -15 85 0
125 4 125 11 0 6 -7 9 -15 5 -8 -3 -15 -1 -15 4 0 6 14 10 30 10 20 0 30 5 30
15 0 8 7 15 15 15 8 0 15 9 15 20 0 13 7 20 20 20 17 0 20 7 20 45 l0 45 75 0
75 0 0 -45 c0 -25 -4 -45 -8 -45 -4 0 -8 16 -8 36 l0 36 -62 1 c-34 1 -62 -1
-62 -5 0 -5 25 -8 55 -8 l55 0 0 -65 c0 -36 -4 -65 -10 -65 -5 0 -7 7 -4 15 4
8 1 15 -5 15 -6 0 -11 -13 -11 -30 0 -20 -5 -30 -15 -30 -8 0 -15 -7 -15 -15
0 -8 -7 -15 -15 -15 -8 0 -15 -7 -15 -15 0 -8 -7 -15 -15 -15 -8 0 -15 -7 -15
-15 0 -11 -13 -15 -52 -16 -44 0 -49 -2 -30 -10 13 -5 28 -7 33 -3 5 3 9 0 9
-5 0 -7 -61 -11 -185 -11 -113 0 -185 4 -185 10 0 5 7 7 15 4 8 -4 15 -1 15 5
0 6 -13 11 -30 11 -20 0 -30 5 -30 15 0 8 -7 15 -15 15 -8 0 -15 7 -15 15 0 8
-7 15 -15 15 -8 0 -15 7 -15 15 0 8 -7 15 -15 15 -10 0 -15 10 -15 30 0 21 -5
30 -16 30 -14 0 -14 -3 -4 -15 10 -12 10 -15 -4 -15 -13 0 -16 12 -16 64 l0
65 48 4 47 3 -52 2 c-55 2 -58 0 -56 -55 1 -7 -3 -13 -8 -13 -5 0 -9 20 -9 45
l0 45 80 0 80 0 0 -65z m420 -5 c0 -5 -4 -10 -10 -10 -5 0 -10 5 -10 10 0 6 5
10 10 10 6 0 10 -4 10 -10z m-573 -52 c-3 -8 -6 -5 -6 6 -1 11 2 17 5 13 3 -3
4 -12 1 -19z m740 0 c-3 -8 -6 -5 -6 6 -1 11 2 17 5 13 3 -3 4 -12 1 -19z
m-702 -58 c3 -5 1 -10 -4 -10 -6 0 -11 5 -11 10 0 6 2 10 4 10 3 0 8 -4 11
-10z m40 -30 c3 -5 1 -10 -4 -10 -6 0 -11 5 -11 10 0 6 2 10 4 10 3 0 8 -4 11
-10z m30 -30 c3 -5 1 -10 -4 -10 -6 0 -11 5 -11 10 0 6 2 10 4 10 3 0 8 -4 11
-10z m545 0 c0 -5 -5 -10 -11 -10 -5 0 -7 5 -4 10 3 6 8 10 11 10 2 0 4 -4 4
-10z m-515 -30 c3 -5 1 -10 -4 -10 -6 0 -11 5 -11 10 0 6 2 10 4 10 3 0 8 -4
11 -10z m340 -61 c11 -4 -36 -8 -110 -8 -74 0 -121 4 -110 8 11 5 61 8 110 8
50 0 99 -3 110 -8z"/>
<path d="M190 435 c0 -33 15 -33 16 0 1 14 -2 25 -7 25 -5 0 -9 -11 -9 -25z"/>
<path d="M675 420 c-3 -5 -1 -10 4 -10 6 0 11 5 11 10 0 6 -2 10 -4 10 -3 0
-8 -4 -11 -10z"/>
<path d="M110 370 c0 -5 5 -10 10 -10 6 0 10 5 10 10 0 6 -4 10 -10 10 -5 0
-10 -4 -10 -10z"/>
<path d="M751 364 c0 -11 3 -14 6 -6 3 7 2 16 -1 19 -3 4 -6 -2 -5 -13z"/>
<path d="M646 361 c-4 -7 -5 -15 -2 -18 9 -9 19 4 14 18 -4 11 -6 11 -12 0z"/>
<path d="M250 320 c0 -5 5 -10 11 -10 5 0 7 5 4 10 -3 6 -8 10 -11 10 -2 0 -4
-4 -4 -10z"/>
<path d="M605 320 c-3 -5 -1 -10 4 -10 6 0 11 5 11 10 0 6 -2 10 -4 10 -3 0
-8 -4 -11 -10z"/>
<path d="M720 299 c0 -5 5 -7 10 -4 6 3 10 8 10 11 0 2 -4 4 -10 4 -5 0 -10
-5 -10 -11z"/>
<path d="M280 290 c0 -5 5 -10 11 -10 5 0 7 5 4 10 -3 6 -8 10 -11 10 -2 0 -4
-4 -4 -10z"/>
<path d="M575 290 c-3 -5 -1 -10 4 -10 6 0 11 5 11 10 0 6 -2 10 -4 10 -3 0
-8 -4 -11 -10z"/>
<path d="M354 259 c-11 -4 23 -8 80 -8 55 -1 96 2 92 6 -9 10 -148 11 -172 2z"/>
<path d="M235 210 c3 -5 8 -10 11 -10 2 0 4 5 4 10 0 6 -5 10 -11 10 -5 0 -7
-4 -4 -10z"/>
<path d="M620 210 c0 -5 7 -7 15 -4 8 4 15 8 15 10 0 2 -7 4 -15 4 -8 0 -15
-4 -15 -10z"/>
</g>
</svg>
