<?xml version="1.0" standalone="no"?>
<!DOCTYPE svg PUBLIC "-//W3C//DTD SVG 20010904//EN"
 "http://www.w3.org/TR/2001/REC-SVG-20010904/DTD/svg10.dtd">
<svg version="1.0" xmlns="http://www.w3.org/2000/svg"
 width="192.000000pt" height="192.000000pt" viewBox="0 0 192.000000 192.000000"
 preserveAspectRatio="xMidYMid meet">
<metadata>
Created by potrace 1.16, written by Peter Selinger 2001-2019
</metadata>
<g transform="translate(0.000000,192.000000) scale(0.100000,-0.100000)"
fill="#000000" stroke="none">
<path d="M1258 1473 c-11 -27 -22 -49 -23 -51 -2 -2 -21 6 -44 17 -22 12 -50
21 -62 21 -20 0 -21 -4 -16 -42 3 -24 9 -53 12 -65 6 -19 2 -23 -37 -33 -67
-17 -68 -18 -68 -42 0 -16 12 -31 40 -48 22 -14 40 -28 40 -33 0 -5 -11 -23
-25 -41 -14 -18 -25 -43 -25 -54 0 -20 5 -22 65 -22 l65 0 0 -44 c0 -24 3 -51
6 -60 11 -28 47 -18 81 21 l31 38 40 -38 c56 -55 76 -48 80 26 l3 57 64 0 c61
0 65 1 65 23 0 13 -11 38 -25 57 -14 19 -25 35 -25 37 0 1 18 15 40 29 28 19
40 34 40 51 0 25 -1 26 -68 43 -35 9 -42 15 -37 28 4 9 10 38 12 65 5 43 4 47
-16 47 -12 0 -40 -9 -62 -21 l-40 -20 -22 50 c-17 41 -26 51 -45 51 -18 0 -28
-10 -44 -47z m71 -33 c13 -33 25 -60 26 -60 1 0 26 13 56 30 30 16 57 30 61
30 4 0 -3 -27 -14 -61 -24 -70 -22 -73 51 -84 25 -4 50 -9 54 -12 5 -3 -17
-21 -47 -40 -31 -19 -56 -37 -56 -40 0 -3 13 -22 28 -42 51 -65 52 -64 -22
-56 l-66 7 0 -66 c0 -36 -2 -66 -4 -66 -3 0 -26 21 -51 48 l-45 47 -44 -48
-44 -47 -7 66 -7 65 -67 -7 c-55 -6 -64 -5 -55 7 6 8 24 32 41 54 l31 41 -54
34 c-58 37 -66 50 -33 50 11 0 40 5 64 11 l43 11 -19 56 c-10 30 -19 59 -19
64 0 4 27 -5 60 -22 l60 -30 15 37 c9 20 18 47 21 60 4 13 9 23 13 23 3 0 17
-27 30 -60z"/>
<path d="M353 813 c12 -119 112 -268 232 -345 157 -102 381 -111 556 -23 61
32 155 118 194 180 42 66 75 156 75 205 l0 40 -110 0 c-97 0 -111 -2 -116 -17
-31 -96 -81 -158 -165 -203 -57 -31 -72 -35 -139 -35 -62 0 -84 5 -128 28 -83
44 -144 116 -175 210 -6 15 -21 17 -118 17 l-112 0 6 -57z m216 -17 c77 -186
297 -265 472 -169 66 35 134 112 156 174 l18 49 88 0 89 0 -7 -32 c-33 -150
-136 -283 -272 -352 -290 -145 -633 6 -728 321 -8 26 -15 51 -15 56 0 4 40 7
88 7 l88 0 23 -54z"/>
</g>
</svg>
