<?xml version="1.0" standalone="no"?>
<!DOCTYPE svg PUBLIC "-//W3C//DTD SVG 20010904//EN"
 "http://www.w3.org/TR/2001/REC-SVG-20010904/DTD/svg10.dtd">
<svg version="1.0" xmlns="http://www.w3.org/2000/svg"
 width="100.000000pt" height="100.000000pt" viewBox="0 0 100.000000 100.000000"
 preserveAspectRatio="xMidYMid meet">
<metadata>
Created by potrace 1.16, written by Peter Selinger 2001-2019
</metadata>
<g transform="translate(0.000000,100.000000) scale(0.100000,-0.100000)"
fill="#000000" stroke="none">
<path d="M12 988 c-7 -7 -12 -21 -11 -32 0 -20 1 -20 11 2 6 12 15 22 20 22 4
0 8 5 8 10 0 14 -13 13 -28 -2z"/>
<path d="M184 984 c4 -9 1 -23 -5 -30 -9 -11 -8 -14 5 -14 11 0 16 9 16 30 0
17 -5 30 -11 30 -6 0 -8 -7 -5 -16z"/>
<path d="M223 980 c-1 -11 2 -20 8 -20 5 0 9 9 9 20 0 11 -4 20 -8 20 -4 0 -8
-9 -9 -20z"/>
<path d="M270 970 c0 -16 5 -30 10 -30 6 0 10 14 10 30 0 17 -4 30 -10 30 -5
0 -10 -13 -10 -30z"/>
<path d="M310 971 c0 -16 -3 -36 -6 -45 -4 -11 -1 -16 10 -16 12 0 16 10 16
45 0 25 -4 45 -10 45 -5 0 -10 -13 -10 -29z"/>
<path d="M350 945 c0 -30 5 -55 10 -55 6 0 10 25 10 55 0 30 -4 55 -10 55 -5
0 -10 -25 -10 -55z"/>
<path d="M402 953 c-1 -28 -5 -58 -8 -67 -4 -10 -1 -16 9 -16 8 0 17 -6 20
-12 10 -29 13 1 7 72 l-7 75 -3 -65 -3 -65 -7 65 -7 65 -1 -52z"/>
<path d="M451 915 c4 -76 2 -85 -13 -85 -10 0 -18 -4 -18 -10 0 -16 37 -11 44
6 11 28 7 174 -5 174 -7 0 -10 -28 -8 -85z"/>
<path d="M493 930 c0 -41 2 -58 4 -37 2 20 2 54 0 75 -2 20 -4 3 -4 -38z"/>
<path d="M513 930 c0 -41 2 -58 4 -37 2 20 2 54 0 75 -2 20 -4 3 -4 -38z"/>
<path d="M540 915 c0 -50 -4 -85 -10 -85 -5 0 -10 5 -10 10 0 6 -9 10 -20 10
-11 0 -20 -4 -20 -10 0 -5 7 -10 15 -10 8 0 15 -4 15 -10 0 -5 6 -10 14 -10 8
0 17 -6 19 -12 3 -7 6 35 6 95 1 59 -1 107 -4 107 -3 0 -5 -38 -5 -85z"/>
<path d="M582 905 c2 -57 -1 -96 -7 -98 -16 -6 22 -37 44 -37 20 0 21 5 19
118 l-2 117 -3 -107 c-3 -87 -7 -108 -18 -108 -12 0 -15 19 -15 105 0 68 -4
105 -11 105 -7 0 -9 -32 -7 -95z"/>
<path d="M664 895 c0 -60 1 -84 3 -52 2 32 2 81 0 110 -2 29 -3 3 -3 -58z"/>
<path d="M710 870 c0 -126 -1 -131 -22 -140 -22 -8 -22 -9 5 -9 l27 -1 0 140
c0 77 -2 140 -5 140 -3 0 -5 -59 -5 -130z"/>
<path d="M780 856 c0 -79 -3 -151 -6 -160 -4 -10 -1 -16 9 -16 13 0 15 24 16
160 1 104 -2 160 -9 160 -6 0 -10 -51 -10 -144z"/>
<path d="M814 855 c0 -82 2 -115 3 -72 2 43 2 110 0 150 -1 40 -3 5 -3 -78z"/>
<path d="M870 825 c-3 -99 -4 -182 -2 -184 10 -17 12 29 10 185 l-3 179 -5
-180z"/>
<path d="M920 820 c0 -113 -4 -180 -10 -180 -5 0 -10 -4 -10 -10 0 -5 7 -10
15 -10 13 0 15 28 15 190 0 105 -2 190 -5 190 -3 0 -5 -81 -5 -180z"/>
<path d="M981 788 c1 -117 6 -224 10 -238 4 -14 8 82 8 213 1 162 -2 237 -10
237 -7 0 -10 -67 -8 -212z"/>
<path d="M60 970 c0 -5 5 -10 10 -10 6 0 10 5 10 10 0 6 -4 10 -10 10 -5 0
-10 -4 -10 -10z"/>
<path d="M110 970 c0 -5 11 -10 25 -10 14 0 25 5 25 10 0 6 -11 10 -25 10 -14
0 -25 -4 -25 -10z"/>
<path d="M220 925 c0 -8 5 -15 10 -15 6 0 10 7 10 15 0 8 -4 15 -10 15 -5 0
-10 -7 -10 -15z"/>
<path d="M11 913 c-1 -6 -4 -20 -7 -30 -5 -17 -5 -17 6 0 6 10 9 23 6 30 -3 9
-5 9 -5 0z"/>
<path d="M250 900 c0 -5 7 -10 16 -10 8 0 12 5 9 10 -3 6 -10 10 -16 10 -5 0
-9 -4 -9 -10z"/>
<path d="M295 880 c-3 -5 3 -10 15 -10 12 0 18 5 15 10 -3 6 -10 10 -15 10 -5
0 -12 -4 -15 -10z"/>
<path d="M344 865 c-19 -14 -19 -14 2 -15 12 0 21 6 21 15 0 18 1 18 -23 0z"/>
<path d="M390 840 c0 -5 5 -10 10 -10 6 0 10 5 10 10 0 6 -4 10 -10 10 -5 0
-10 -4 -10 -10z"/>
<path d="M155 787 c-11 -23 -23 -44 -26 -47 -9 -7 -39 -122 -39 -148 0 -12
-12 -33 -27 -48 -25 -25 -26 -32 -27 -118 0 -97 26 -202 46 -190 7 4 8 2 4 -5
-4 -6 -1 -17 6 -25 7 -7 20 -23 28 -35 8 -11 22 -21 32 -21 10 0 18 -4 18 -10
0 -5 12 -10 26 -10 14 0 23 4 19 10 -3 6 3 10 14 10 12 0 21 4 21 9 0 5 8 11
18 14 15 4 15 5 -2 12 -13 6 -21 4 -24 -3 -5 -15 -42 -16 -42 -2 0 6 -5 10
-11 10 -5 0 -7 -4 -4 -10 3 -6 -4 -10 -16 -10 -25 0 -57 33 -65 67 -4 13 -10
23 -14 23 -8 0 -18 22 -28 60 -5 23 -3 202 3 208 10 10 14 -3 18 -56 3 -32 0
-49 -6 -45 -6 4 -8 -13 -5 -46 4 -38 13 -62 37 -91 17 -21 31 -46 31 -55 0
-24 21 -40 57 -42 28 -2 34 2 45 32 6 19 15 35 18 35 4 0 15 18 25 40 10 22
19 39 21 38 3 -4 -21 -107 -31 -131 -4 -10 -3 -17 4 -17 6 0 13 12 17 28 11
50 27 83 38 77 6 -3 19 -8 28 -11 13 -5 16 -13 11 -34 -5 -29 15 -49 45 -44 6
1 20 2 30 3 11 0 24 11 30 24 11 22 11 22 11 1 2 -43 61 -40 61 3 0 22 2 23
15 9 8 -8 15 -19 15 -25 0 -6 4 -11 9 -11 10 0 21 83 21 163 0 77 24 79 41 2
7 -30 16 -55 21 -55 4 0 8 5 8 10 0 6 5 10 10 10 15 0 12 -16 -6 -34 -14 -15
-14 -17 0 -32 20 -19 21 -64 2 -64 -9 0 -16 16 -20 45 -4 24 -11 47 -17 50 -5
4 -7 10 -4 15 3 5 -1 22 -10 37 l-15 28 5 -27 c3 -16 7 -39 10 -52 3 -15 -1
-31 -12 -42 -13 -12 -14 -19 -6 -21 9 -3 8 -9 -3 -21 -12 -12 -13 -17 -4 -20
7 -3 16 1 20 8 6 10 12 10 25 -3 15 -16 8 -17 -107 -17 -140 -1 -158 -8 -158
-61 1 -58 12 -64 132 -64 60 0 108 4 108 8 0 5 5 5 10 2 6 -4 10 10 10 34 0
22 -5 43 -11 47 -8 5 -10 -4 -7 -30 5 -45 -17 -50 -26 -5 -9 48 -9 49 33 49
l39 0 -5 -39 c-4 -30 -1 -44 12 -57 10 -10 20 -13 23 -8 4 6 43 7 90 4 96 -6
107 0 107 62 0 50 -13 58 -98 58 -50 0 -73 4 -85 16 -15 15 -14 16 6 10 16 -5
22 -3 22 7 0 17 50 20 50 3 1 -6 7 0 15 14 10 17 13 40 9 72 -4 33 -1 53 9 68
13 19 14 16 9 -30 -3 -33 -1 -50 7 -50 6 0 11 -18 11 -42 0 -37 4 -45 27 -55
33 -16 46 -16 38 -3 -3 5 0 10 8 10 21 0 47 79 36 108 -5 12 -6 29 -2 38 3 8
0 33 -7 55 -12 35 -17 39 -46 39 -24 0 -37 -6 -44 -21 -7 -11 -14 -18 -17 -15
-3 3 2 17 11 30 9 14 16 43 16 66 l0 40 -40 0 c-38 0 -40 -2 -40 -30 0 -23 -5
-30 -19 -30 -11 0 -22 -6 -24 -12 -4 -10 -6 -10 -6 0 -1 6 -8 12 -17 12 -10 0
-14 -6 -11 -14 4 -10 1 -13 -7 -10 -9 4 -15 -9 -20 -42 -3 -25 -3 -50 0 -55 3
-5 0 -9 -5 -9 -6 0 -16 20 -22 45 -8 33 -16 45 -30 45 -11 0 -19 6 -19 13 0 7
-8 20 -19 29 -17 14 -19 14 -32 -3 -13 -19 -45 -37 -34 -20 3 6 -6 21 -20 35
-32 32 -83 35 -111 6 -32 -32 -49 -53 -55 -68 -3 -8 -13 25 -23 74 -24 125
-35 164 -47 164 -6 0 -8 -8 -4 -18 11 -36 35 -174 34 -200 0 -25 -1 -24 -16
11 -12 30 -20 37 -35 34 -15 -4 -19 -1 -16 17 4 36 -20 74 -48 74 -13 0 -24
-3 -24 -7 0 -3 -11 -19 -25 -35 -14 -16 -25 -37 -25 -48 0 -10 -4 -18 -10 -18
-12 0 -12 0 0 80 12 78 32 150 41 150 3 0 14 20 23 45 19 47 46 61 46 23 0
-19 -2 -20 -10 -8 -7 11 -10 2 -10 -32 0 -27 4 -48 9 -48 5 0 15 -29 22 -65 8
-41 18 -65 26 -65 17 0 18 77 1 82 -8 3 -14 33 -16 84 -3 44 -9 82 -16 86 -28
19 -51 7 -71 -35z m69 -232 c8 -23 -4 -45 -25 -45 -10 0 -20 -4 -20 -10 -5
-37 -20 -70 -32 -70 -7 0 -13 -16 -14 -35 -2 -26 1 -35 12 -35 14 0 19 11 16
37 -4 29 18 19 23 -11 14 -74 -47 -121 -74 -56 -7 17 -16 30 -21 30 -13 0 -11
38 1 42 6 2 12 13 13 26 0 12 6 22 11 22 5 0 7 3 3 6 -3 4 1 13 9 21 8 8 12
19 9 24 -4 5 0 9 8 9 8 0 20 14 27 30 13 32 44 41 54 15z m636 -55 c0 -16 -4
-30 -8 -30 -5 0 -13 -17 -19 -37 -9 -35 -10 -33 -9 29 1 58 4 68 19 68 12 0
17 -8 17 -30z m-375 -10 c3 -11 10 -20 15 -20 5 0 8 -9 7 -20 -2 -29 -13 -25
-27 10 -7 17 -17 30 -22 30 -5 0 -6 -4 -3 -10 3 -5 -1 -10 -11 -10 -17 0 -54
-36 -54 -52 0 -5 -7 -16 -15 -24 -8 -9 -15 -24 -15 -35 0 -16 7 -19 48 -19 34
0 43 3 32 10 -12 8 -11 10 6 10 34 0 46 -41 26 -89 -14 -33 -22 -41 -43 -41
-21 0 -28 6 -31 25 -3 14 -1 25 3 25 5 0 9 -4 9 -10 0 -21 37 -9 48 15 16 36
17 35 -30 35 -32 0 -39 -3 -28 -10 11 -7 7 -10 -18 -10 -20 0 -31 4 -27 10 3
6 1 10 -4 10 -15 0 -14 17 4 78 10 32 21 52 30 52 8 0 15 4 15 8 0 4 8 18 18
30 22 28 59 29 67 2z m-202 -35 c9 -20 17 -47 17 -60 0 -27 -29 -95 -41 -95
-4 0 -15 -20 -25 -45 -13 -35 -22 -45 -39 -45 -13 0 -26 7 -29 16 -8 21 2 54
15 54 15 0 34 21 54 60 10 19 23 39 29 43 8 6 7 10 -1 14 -7 2 -13 11 -13 19
0 19 -20 18 -21 -1 -1 -8 -3 -19 -4 -25 -1 -5 -3 -15 -4 -22 -2 -17 -11 -4
-16 21 -2 13 -7 30 -10 40 -7 22 25 61 51 61 14 0 26 -12 37 -35z m313 -16
c-3 -17 -6 -65 -6 -105 0 -43 -4 -74 -10 -74 -5 0 -9 3 -9 8 4 26 -3 52 -15
52 -17 0 -24 -20 -28 -72 -1 -21 -6 -38 -10 -38 -5 0 -7 35 -4 78 2 42 5 96 5
120 1 23 5 42 10 42 6 0 7 -24 4 -55 -5 -50 -4 -55 14 -55 22 0 33 32 33 96 0
19 5 34 11 34 8 0 9 -11 5 -31z m210 0 c-3 -17 -6 -65 -6 -105 0 -43 -4 -74
-10 -74 -5 0 -10 14 -10 30 0 17 -5 30 -11 30 -20 0 -39 -29 -39 -59 0 -17 -4
-31 -10 -31 -6 0 -8 25 -6 63 2 34 4 83 5 110 1 35 5 47 16 47 8 0 15 -4 15
-10 0 -5 -4 -10 -10 -10 -5 0 -10 -20 -10 -45 0 -41 2 -45 25 -45 24 0 25 2
25 65 0 53 3 65 16 65 13 0 15 -7 10 -31z m-335 -11 c10 -13 18 -34 18 -48 0
-14 -3 -19 -6 -12 -6 16 -70 16 -76 0 -2 -7 -7 -10 -11 -7 -8 7 36 89 47 89 5
0 17 -10 28 -22z m467 -30 c6 -17 9 -34 5 -37 -3 -3 -8 0 -10 7 -3 6 -16 12
-29 12 -17 0 -24 -6 -24 -20 0 -14 7 -20 21 -20 11 0 27 -6 35 -14 16 -17 19
-66 4 -66 -5 0 -10 9 -10 20 0 14 -7 20 -21 20 -34 0 -51 25 -43 65 3 19 10
35 15 35 5 0 9 7 9 15 0 28 35 16 48 -17z m-781 -114 c-3 -3 -12 -4 -19 -1 -8
3 -5 6 6 6 11 1 17 -2 13 -5z m743 -13 c0 -5 9 -11 20 -14 31 -8 24 -27 -10
-27 -25 0 -30 4 -30 25 0 14 5 25 10 25 6 0 10 -4 10 -9z m-466 -113 c5 -10 7
-10 12 0 12 25 19 11 16 -29 -3 -30 -7 -38 -14 -28 -7 11 -11 11 -15 2 -10
-27 -23 -11 -23 27 0 39 12 53 24 28z m66 2 c-10 -6 -11 -10 -2 -10 7 0 12
-13 12 -30 0 -24 -4 -30 -22 -30 -17 0 -19 3 -10 12 7 7 12 17 12 23 0 5 -5 3
-10 -5 -8 -13 -10 -13 -10 2 0 28 11 48 29 48 14 0 14 -2 1 -10z m40 -32 c0
-32 -3 -39 -10 -28 -13 20 -13 70 0 70 6 0 10 -19 10 -42z m48 30 c1 -7 3 -25
6 -40 4 -25 1 -28 -22 -28 -25 0 -25 1 -6 14 10 8 16 18 11 22 -4 4 -7 2 -7
-4 0 -7 -4 -12 -10 -12 -5 0 -10 9 -10 20 0 11 5 20 11 20 5 0 7 5 4 10 -3 6
0 10 8 10 7 0 14 -6 15 -12z m132 -3 c-6 -8 -9 -18 -6 -24 8 -12 -3 -41 -15
-41 -5 0 -9 18 -9 40 0 34 3 40 21 40 18 0 19 -3 9 -15z m104 -1 c3 -9 6 -23
6 -32 0 -15 -2 -15 -10 -2 -5 8 -10 10 -10 5 0 -6 5 -16 12 -23 9 -9 8 -12 -5
-12 -9 0 -17 5 -17 10 0 6 -7 10 -15 10 -8 0 -15 -4 -15 -10 0 -5 -9 -10 -20
-10 -23 0 -28 42 -7 65 17 20 73 19 81 -1z m62 0 c-3 -9 -6 -27 -6 -40 0 -17
-6 -24 -20 -24 -37 0 -19 79 19 80 8 0 11 -6 7 -16z"/>
<path d="M772 144 c4 -21 22 -23 26 -1 2 10 -3 17 -13 17 -10 0 -15 -6 -13
-16z"/>
<path d="M746 113 c-6 -14 -5 -15 5 -6 7 7 10 15 7 18 -3 3 -9 -2 -12 -12z"/>
<path d="M470 799 c0 -5 5 -7 10 -4 6 3 10 8 10 11 0 2 -4 4 -10 4 -5 0 -10
-5 -10 -11z"/>
<path d="M551 754 c0 -11 3 -14 6 -6 3 7 2 16 -1 19 -3 4 -6 -2 -5 -13z"/>
<path d="M650 755 c0 -8 9 -15 20 -15 11 0 20 7 20 15 0 8 -9 15 -20 15 -11 0
-20 -7 -20 -15z"/>
<path d="M630 752 c0 -7 -7 -12 -15 -12 -8 0 -15 -4 -15 -10 0 -16 27 -11 34
6 4 9 4 19 1 22 -3 3 -5 0 -5 -6z"/>
<path d="M725 710 c-18 -8 -17 -9 8 -9 15 -1 27 4 27 9 0 12 -8 12 -35 0z"/>
<path d="M168 705 c-3 -5 -9 -26 -12 -45 l-7 -35 16 29 c14 27 18 75 3 51z"/>
<path d="M679 689 c-10 -6 -7 -9 14 -9 29 0 35 5 14 13 -8 3 -20 1 -28 -4z"/>
<path d="M725 670 c-3 -5 3 -10 14 -10 12 0 21 5 21 10 0 6 -6 10 -14 10 -8 0
-18 -4 -21 -10z"/>
<path d="M830 670 c0 -5 5 -10 10 -10 6 0 10 5 10 10 0 6 -4 10 -10 10 -5 0
-10 -4 -10 -10z"/>
<path d="M770 650 c0 -5 7 -10 15 -10 8 0 15 5 15 10 0 6 -7 10 -15 10 -8 0
-15 -4 -15 -10z"/>
<path d="M820 630 c0 -5 5 -10 10 -10 6 0 10 5 10 10 0 6 -4 10 -10 10 -5 0
-10 -4 -10 -10z"/>
<path d="M860 610 c0 -5 7 -10 16 -10 8 0 12 5 9 10 -3 6 -10 10 -16 10 -5 0
-9 -4 -9 -10z"/>
<path d="M940 610 c0 -5 7 -10 16 -10 8 0 12 5 9 10 -3 6 -10 10 -16 10 -5 0
-9 -4 -9 -10z"/>
<path d="M900 585 c0 -8 7 -15 15 -15 9 0 12 6 9 15 -4 8 -10 15 -15 15 -5 0
-9 -7 -9 -15z"/>
<path d="M953 573 c-15 -5 -17 -23 -4 -23 5 0 11 7 15 15 3 8 4 15 3 14 -1 0
-8 -3 -14 -6z"/>
<path d="M980 506 c0 -8 4 -17 9 -20 5 -4 7 3 4 14 -6 23 -13 26 -13 6z"/>
<path d="M1 185 c1 -19 18 -51 18 -35 0 8 -4 22 -9 30 -5 8 -9 11 -9 5z"/>
<path d="M2 68 c0 -38 3 -68 9 -68 11 0 10 74 -1 110 -5 18 -8 5 -8 -42z"/>
<path d="M986 95 c-3 -9 -6 -24 -5 -33 0 -9 5 -4 10 12 9 32 6 48 -5 21z"/>
<path d="M55 55 c4 -60 6 -63 16 -30 4 16 5 32 0 35 -4 3 -10 12 -13 20 -4 8
-5 -3 -3 -25z"/>
<path d="M97 42 c1 -8 3 -16 3 -18 0 -2 9 -4 20 -4 11 0 20 5 20 10 0 6 -9 10
-19 10 -11 0 -21 3 -24 8 -2 4 -2 1 0 -6z"/>
<path d="M946 24 c-9 -24 -7 -27 9 -10 17 17 19 26 6 26 -5 0 -12 -7 -15 -16z"/>
<path d="M987 26 c-4 -10 -5 -21 -2 -24 9 -9 17 6 13 25 -3 17 -4 17 -11 -1z"/>
</g>
</svg>
