<?xml version="1.0" standalone="no"?>
<!DOCTYPE svg PUBLIC "-//W3C//DTD SVG 20010904//EN"
 "http://www.w3.org/TR/2001/REC-SVG-20010904/DTD/svg10.dtd">
<svg version="1.0" xmlns="http://www.w3.org/2000/svg"
 width="192.000000pt" height="151.000000pt" viewBox="0 0 192.000000 151.000000"
 preserveAspectRatio="xMidYMid meet">
<metadata>
Created by potrace 1.16, written by Peter Selinger 2001-2019
</metadata>
<g transform="translate(0.000000,151.000000) scale(0.100000,-0.100000)"
fill="#000000" stroke="none">
<path d="M1843 1430 c0 -47 2 -66 4 -42 2 23 2 61 0 85 -2 23 -4 4 -4 -43z"/>
<path d="M1883 1430 c0 -47 2 -66 4 -42 2 23 2 61 0 85 -2 23 -4 4 -4 -43z"/>
<path d="M1915 765 c0 -412 1 -583 2 -378 2 204 2 542 0 750 -1 208 -2 41 -2
-372z"/>
<path d="M80 1419 c0 -5 5 -7 10 -4 6 3 10 8 10 11 0 2 -4 4 -10 4 -5 0 -10
-5 -10 -11z"/>
<path d="M215 1422 c6 -4 10 -16 10 -26 0 -11 5 -21 12 -23 8 -3 11 3 8 16 -2
12 1 21 8 21 7 0 6 4 -3 10 -17 11 -50 13 -35 2z"/>
<path d="M295 1420 c-3 -5 -2 -10 4 -10 6 0 8 -6 5 -14 -3 -8 -1 -17 5 -21 10
-6 16 8 12 29 -1 5 4 13 11 17 9 6 6 9 -9 9 -12 0 -25 -4 -28 -10z"/>
<path d="M382 1416 c-17 -9 -20 -14 -10 -24 9 -9 9 -12 -2 -12 -7 0 -11 -2 -8
-5 11 -11 38 8 38 27 0 15 4 18 18 13 9 -4 297 -6 639 -5 417 0 623 -3 628
-10 4 -7 -187 -11 -602 -13 l-608 -2 618 -3 c377 -1 616 2 612 7 -3 5 3 12 12
14 11 3 6 6 -12 7 l-30 2 30 9 c27 7 25 8 -10 4 -51 -5 -1208 -6 -1255 -1 -20
2 -46 -1 -58 -8z"/>
<path d="M425 1390 c-13 -6 -15 -9 -5 -9 8 0 22 4 30 9 18 12 2 12 -25 0z"/>
<path d="M140 1360 c-23 -7 -23 -8 -3 -9 12 -1 23 -8 25 -16 2 -10 7 -12 18
-5 24 15 -8 39 -40 30z"/>
<path d="M203 1334 c0 -32 13 -40 21 -11 5 20 10 22 46 19 24 -3 40 0 40 7 0
6 -22 10 -54 10 -50 -1 -53 -3 -53 -25z"/>
<path d="M320 1352 c0 -5 32 -10 70 -10 44 -1 69 2 65 8 -8 12 -135 13 -135 2z"/>
<path d="M475 1350 c4 -6 218 -10 611 -10 l604 0 0 -195 c0 -123 4 -195 10
-195 6 0 10 75 10 205 l0 205 -621 0 c-411 0 -618 -3 -614 -10z"/>
<path d="M1741 1343 c-16 -17 -11 -25 8 -14 7 5 12 13 10 19 -2 6 -10 4 -18
-5z"/>
<path d="M1863 1315 c0 -22 2 -30 4 -17 2 12 2 30 0 40 -3 9 -5 -1 -4 -23z"/>
<path d="M305 1317 c-4 -10 -5 -21 -1 -24 10 -10 18 4 13 24 -4 17 -4 17 -12
0z"/>
<path d="M345 1320 c-3 -5 -4 -10 0 -10 3 0 2 -8 -3 -17 -5 -10 -7 -26 -3 -36
5 -12 9 -4 17 28 9 41 4 59 -11 35z"/>
<path d="M409 1323 c-18 -4 -44 -53 -29 -53 6 0 10 7 10 15 0 9 6 12 17 8 11
-4 14 -3 9 5 -5 8 0 12 13 12 12 0 21 5 21 10 0 10 -12 11 -41 3z"/>
<path d="M250 1305 c0 -8 5 -15 10 -15 6 0 10 -7 10 -15 0 -8 5 -15 10 -15 7
0 7 7 0 20 -6 11 -8 25 -5 30 3 6 -1 10 -9 10 -9 0 -16 -7 -16 -15z"/>
<path d="M797 1303 c161 -2 425 -2 585 0 161 1 30 2 -292 2 -322 0 -453 -1
-293 -2z"/>
<path d="M100 1286 c0 -8 -6 -17 -12 -19 -7 -3 7 -6 33 -6 25 -1 51 -7 58 -13
11 -11 13 -10 7 5 -3 10 -6 21 -6 23 0 2 -9 4 -19 4 -11 0 -23 5 -26 10 -9 15
-35 12 -35 -4z"/>
<path d="M205 1280 c-8 -13 4 -32 16 -25 12 8 12 35 0 35 -6 0 -13 -4 -16 -10z"/>
<path d="M480 1280 c0 -5 11 -10 24 -10 14 0 28 5 31 10 4 6 -7 10 -24 10 -17
0 -31 -4 -31 -10z"/>
<path d="M832 1283 c153 -2 403 -2 555 0 153 1 28 2 -277 2 -305 0 -430 -1
-278 -2z"/>
<path d="M305 1270 c-3 -5 -1 -10 4 -10 6 0 11 5 11 10 0 6 -2 10 -4 10 -3 0
-8 -4 -11 -10z"/>
<path d="M423 1266 c-35 -17 -27 -29 15 -21 43 8 46 10 37 24 -8 13 -22 12
-52 -3z"/>
<path d="M540 1260 c0 -5 5 -10 10 -10 6 0 10 5 10 10 0 6 -4 10 -10 10 -5 0
-10 -4 -10 -10z"/>
<path d="M1872 1083 l-2 -193 -26 0 c-14 0 -37 -9 -51 -20 -15 -11 -27 -19
-29 -17 -2 2 2 20 8 40 9 29 8 42 -2 62 -11 20 -16 22 -34 13 -20 -11 -20 -11
3 -19 17 -7 21 -14 16 -29 -3 -11 -8 -32 -11 -46 -3 -15 -9 -35 -15 -45 -6
-12 -6 -20 1 -24 6 -3 13 1 16 9 3 9 11 16 18 16 6 0 22 9 36 20 29 23 66 26
73 6 4 -9 -13 -24 -51 -43 -31 -16 -57 -34 -59 -40 -2 -6 14 -14 36 -18 23 -4
41 -11 41 -16 0 -4 6 -6 14 -3 21 8 27 -10 14 -47 -6 -19 -12 -35 -12 -36 -1
-1 -26 4 -56 12 -74 20 -78 19 -72 -10 2 -14 9 -25 14 -25 6 0 7 7 4 16 -5 13
-2 15 11 9 10 -4 37 -12 60 -18 60 -15 74 3 72 89 -1 45 -6 67 -16 71 -11 4
-11 7 0 17 10 9 12 57 7 236 l-6 225 -2 -192z m8 -303 c0 -12 -21 -17 -47 -12
-21 4 -22 6 -7 17 18 13 54 9 54 -5z"/>
<path d="M215 1237 c-12 -9 -14 -16 -7 -21 6 -3 16 3 22 14 13 24 10 25 -15 7z"/>
<path d="M320 1219 c0 -5 5 -7 10 -4 6 3 10 8 10 11 0 2 -4 4 -10 4 -5 0 -10
-5 -10 -11z"/>
<path d="M80 1203 c0 -8 17 -12 55 -11 30 1 55 6 55 10 0 4 -3 8 -7 9 -82 5
-103 3 -103 -8z"/>
<path d="M425 1211 c-11 -5 -23 -7 -27 -4 -5 2 -8 -1 -8 -6 0 -7 31 -11 82
-11 48 0 78 4 72 9 -14 13 -96 21 -119 12z"/>
<path d="M217 1199 c-9 -6 -15 -14 -12 -20 10 -15 22 -10 28 11 3 11 4 20 4
20 -1 0 -10 -5 -20 -11z"/>
<path d="M335 1189 c-4 -6 -13 -8 -21 -5 -11 4 -12 2 -1 -14 8 -14 13 -16 16
-8 2 7 11 18 20 25 10 8 11 12 4 13 -6 0 -15 -5 -18 -11z"/>
<path d="M145 1152 c-43 -21 -65 -42 -65 -64 0 -11 4 -17 10 -13 5 3 7 12 3
20 -4 11 2 15 21 15 14 0 26 5 26 11 0 6 6 9 14 6 9 -4 16 3 20 16 7 27 7 26
-29 9z"/>
<path d="M350 1165 c0 -5 31 -42 73 -86 22 -23 31 -27 45 -20 12 8 13 10 3 11
-8 0 -35 23 -61 50 -42 45 -60 59 -60 45z"/>
<path d="M418 1150 c18 -11 39 -20 47 -20 7 0 15 -6 17 -13 2 -9 11 -11 28 -6
24 6 24 7 5 14 -11 5 -32 17 -47 27 -14 10 -39 18 -55 18 l-28 0 33 -20z"/>
<path d="M200 1148 c0 -8 5 -19 12 -26 8 -8 9 -12 1 -12 -8 0 -12 -124 -12
-455 l-1 -455 546 0 c361 0 543 3 539 10 -4 6 -193 10 -533 10 l-527 0 0 467
c0 364 -3 467 -12 471 -7 2 -13 -3 -13 -10z"/>
<path d="M294 1135 c5 -11 7 -51 7 -88 -2 -46 1 -67 8 -62 19 11 14 134 -6
153 -16 16 -16 16 -9 -3z"/>
<path d="M338 1115 c2 -14 8 -28 13 -31 5 -3 9 -17 9 -30 0 -16 5 -24 13 -21
15 5 10 43 -11 80 -20 34 -31 35 -24 2z"/>
<path d="M1400 1121 c0 -6 -7 -11 -15 -11 -20 0 -19 -7 5 -32 l20 -22 0 26 c0
23 4 27 29 26 27 -1 29 -4 24 -28 -4 -22 -1 -28 16 -33 22 -5 29 8 9 16 -10 4
-9 8 2 16 26 18 -1 46 -49 49 -24 2 -41 -1 -41 -7z"/>
<path d="M249 1088 c-1 -13 -3 -33 -4 -46 -1 -12 2 -25 6 -28 5 -3 9 8 9 25 0
16 5 33 10 36 15 10 12 35 -5 35 -9 0 -16 -10 -16 -22z"/>
<path d="M1345 1100 c-3 -5 -1 -10 4 -10 6 0 11 5 11 10 0 6 -2 10 -4 10 -3 0
-8 -4 -11 -10z"/>
<path d="M170 1087 c0 -9 -10 -25 -22 -37 -17 -16 -19 -20 -6 -20 9 0 19 -6
21 -12 3 -7 6 -2 6 13 1 14 6 30 13 37 9 9 9 15 0 24 -9 9 -12 8 -12 -5z"/>
<path d="M534 1088 c9 -5 23 -5 32 0 12 6 7 9 -16 9 -23 0 -28 -3 -16 -9z"/>
<path d="M740 1089 c-143 -18 -420 -92 -420 -112 0 -5 7 -7 14 -4 33 13 168
36 274 48 169 18 615 6 807 -21 239 -34 235 -33 235 -22 0 6 -8 18 -17 28 -10
10 -18 21 -18 25 0 4 -3 11 -7 15 -5 4 -8 16 -8 26 0 15 -5 17 -27 12 -27 -6
-53 -29 -53 -46 0 -13 17 -9 30 7 16 19 30 19 30 1 0 -8 15 -26 33 -41 l32
-26 -30 7 c-16 3 -68 17 -115 30 -265 74 -545 101 -760 73z m265 -19 c76 -9
64 -11 -90 -11 -165 0 -194 3 -115 11 89 9 135 9 205 0z m184 -16 c2 -2 -25
-3 -60 -3 -49 1 -57 3 -34 9 27 6 84 3 94 -6z m-472 0 c-3 -3 -12 -4 -19 -1
-8 3 -5 6 6 6 11 1 17 -2 13 -5z"/>
<path d="M488 1078 c6 -6 18 -8 28 -6 14 3 12 5 -9 10 -19 3 -25 2 -19 -4z"/>
<path d="M1630 1026 c0 -2 7 -6 15 -10 8 -3 15 -1 15 4 0 6 -7 10 -15 10 -8 0
-15 -2 -15 -4z"/>
<path d="M574 988 c-15 -4 -31 -5 -35 -2 -5 2 -20 2 -35 -2 -23 -6 -24 -8 -10
-16 11 -6 34 -6 64 1 26 5 62 10 81 10 18 0 35 2 38 4 8 9 -75 13 -103 5z"/>
<path d="M998 993 c23 -2 61 -2 85 0 23 2 4 4 -43 4 -47 0 -66 -2 -42 -4z"/>
<path d="M1169 991 c56 -10 49 -28 -8 -21 -28 3 -48 3 -45 -1 2 -4 -3 -10 -11
-13 -13 -5 -14 -10 -4 -28 l12 -22 8 22 c7 18 16 22 49 22 33 0 40 -3 40 -20
0 -27 10 -25 37 8 22 26 23 27 29 5 5 -19 42 -39 52 -28 2 2 -14 22 -36 45
l-39 41 -7 -25 c-3 -14 -10 -26 -15 -26 -5 0 -7 8 -4 19 5 20 -21 32 -67 30
-19 -1 -17 -3 9 -8z"/>
<path d="M165 981 c-3 -5 -1 -12 4 -15 5 -3 11 1 15 9 6 16 -9 21 -19 6z"/>
<path d="M795 985 c-5 -2 -37 -7 -70 -11 -33 -3 -55 -8 -50 -10 6 -2 55 2 110
10 55 7 82 14 60 14 -22 0 -44 -1 -50 -3z"/>
<path d="M1400 983 c0 -4 5 -15 10 -23 8 -13 10 -13 10 2 0 9 -4 20 -10 23 -5
3 -10 3 -10 -2z"/>
<path d="M456 964 c20 -16 21 -17 -33 2 -15 5 -16 4 -3 -5 13 -9 13 -11 -2
-11 -9 0 -19 6 -22 13 -3 6 -4 1 -3 -13 2 -21 -2 -25 -23 -26 -30 0 -50 -11
-50 -26 0 -6 6 -6 15 2 9 7 18 10 22 6 3 -3 16 1 29 9 16 11 30 12 55 5 18 -5
35 -8 37 -5 2 2 -7 7 -22 11 -14 3 -26 10 -26 15 0 11 3 11 34 -1 31 -11 36 5
9 26 -25 19 -41 17 -17 -2z"/>
<path d="M1328 973 c6 -2 18 -2 25 0 6 3 1 5 -13 5 -14 0 -19 -2 -12 -5z"/>
<path d="M1460 970 c0 -5 5 -10 10 -10 6 0 10 5 10 10 0 6 -4 10 -10 10 -5 0
-10 -4 -10 -10z"/>
<path d="M252 608 l-2 -368 453 2 452 3 -447 2 -448 3 -3 363 -2 362 -3 -367z"/>
<path d="M978 963 c12 -2 32 -2 45 0 12 2 2 4 -23 4 -25 0 -35 -2 -22 -4z"/>
<path d="M334 945 c-17 -13 -16 -14 14 -4 33 11 41 19 19 19 -7 0 -22 -7 -33
-15z"/>
<path d="M525 946 c-26 -11 -28 -14 -12 -22 26 -15 87 -5 80 12 -4 10 4 14 28
15 34 2 34 2 4 6 -18 3 -33 -1 -40 -9 -10 -15 -55 -31 -55 -21 0 3 8 12 18 19
21 17 15 17 -23 0z"/>
<path d="M785 940 c-38 -18 -38 -19 -12 -20 15 0 27 5 27 10 0 6 21 10 46 10
25 0 43 4 40 8 -9 15 -62 11 -101 -8z"/>
<path d="M1569 941 c-21 -16 -22 -22 -11 -45 13 -29 37 -33 63 -10 20 18 14
50 -11 64 -13 7 -24 5 -41 -9z m41 -10 c0 -5 -6 -12 -12 -14 -10 -4 -9 -8 2
-16 13 -9 13 -11 -2 -11 -13 0 -17 7 -16 25 2 23 28 37 28 16z"/>
<path d="M1650 927 c0 -18 -6 -42 -14 -53 -8 -11 -17 -37 -21 -57 -6 -33 -11
-37 -36 -37 -16 0 -29 -5 -29 -11 0 -5 4 -8 9 -5 5 3 11 -1 15 -9 3 -8 1 -17
-4 -20 -18 -11 -10 -23 10 -18 25 7 43 40 61 113 7 30 16 59 21 65 11 13 10
65 -2 65 -5 0 -10 -15 -10 -33z m-50 -167 c0 -5 -4 -10 -10 -10 -5 0 -10 5
-10 10 0 6 5 10 10 10 6 0 10 -4 10 -10z"/>
<path d="M174 830 c0 -69 1 -97 3 -62 2 34 2 90 0 125 -2 34 -3 6 -3 -63z"/>
<path d="M684 939 c-3 -5 -21 -7 -40 -3 -29 5 -34 3 -34 -12 0 -16 2 -17 10
-4 7 11 12 12 21 3 6 -6 17 -10 23 -8 6 2 23 6 39 9 15 4 27 10 27 14 0 11
-39 12 -46 1z"/>
<path d="M901 945 c-1 -21 14 -32 34 -24 19 7 19 8 -2 8 -12 1 -24 7 -26 14
-3 6 -6 8 -6 2z"/>
<path d="M1063 935 c0 -8 4 -15 9 -15 4 0 8 7 8 15 0 8 -4 15 -8 15 -5 0 -9
-7 -9 -15z"/>
<path d="M1347 939 c7 -7 15 -10 18 -7 3 3 -2 9 -12 12 -14 6 -15 5 -6 -5z"/>
<path d="M1020 932 c0 -5 7 -13 16 -16 10 -4 14 -1 12 6 -5 15 -28 23 -28 10z"/>
<path d="M968 923 c7 -3 16 -2 19 1 4 3 -2 6 -13 5 -11 0 -14 -3 -6 -6z"/>
<path d="M1845 910 c-3 -5 -1 -10 4 -10 6 0 11 5 11 10 0 6 -2 10 -4 10 -3 0
-8 -4 -11 -10z"/>
<path d="M1005 886 c0 -13 3 -22 8 -19 4 2 7 13 7 24 0 10 -3 19 -7 19 -5 0
-8 -11 -8 -24z"/>
<path d="M406 889 c-35 -10 -46 -24 -46 -60 0 -33 14 -45 63 -54 21 -4 37 -13
37 -21 0 -16 -36 -19 -45 -4 -9 15 -65 12 -65 -3 0 -46 111 -66 150 -27 23 23
26 62 6 79 -21 18 -118 41 -113 27 2 -6 18 -16 35 -21 43 -15 52 -27 11 -15
-47 14 -64 33 -50 56 6 11 11 15 11 9 0 -12 120 -19 120 -6 0 11 -38 36 -65
44 -11 3 -33 1 -49 -4z m77 -150 c-6 -6 -9 -1 -7 13 3 33 6 36 11 14 3 -10 1
-22 -4 -27z"/>
<path d="M550 896 c0 -1 -2 -45 -3 -99 l-2 -97 35 0 c35 0 36 1 32 34 -3 27 0
34 17 39 19 5 21 1 21 -34 0 -37 2 -39 30 -39 l30 0 0 98 0 99 -30 0 c-28 0
-30 -3 -30 -39 0 -31 -3 -38 -20 -38 -17 0 -20 7 -20 38 0 36 -2 39 -30 39
-16 0 -30 -1 -30 -1z m39 -48 c0 -7 -4 -22 -9 -33 -7 -17 -9 -15 -9 13 -1 17
4 32 9 32 6 0 10 -6 9 -12z m90 -49 c-19 -11 -20 -7 -6 30 l12 34 3 -28 c2
-15 -2 -31 -9 -36z m-97 -44 c2 -19 0 -35 -4 -35 -4 0 -8 16 -8 35 0 19 2 35
4 35 2 0 6 -16 8 -35z m105 -22 c-3 -10 -5 -2 -5 17 0 19 2 27 5 18 2 -10 2
-26 0 -35z"/>
<path d="M740 798 l0 -98 75 0 c74 0 75 0 75 26 0 24 -3 25 -42 22 -34 -2 -43
1 -46 14 -3 14 3 17 34 15 31 -2 37 1 40 21 3 20 0 22 -36 22 -30 0 -40 4 -40
16 0 14 8 16 45 12 43 -5 45 -4 45 21 0 26 -1 26 -75 26 l-75 0 0 -97z m37
-10 c-2 -18 -4 -6 -4 27 0 33 2 48 4 33 2 -15 2 -42 0 -60z m8 -48 c3 -5 1
-10 -4 -10 -6 0 -11 5 -11 10 0 6 2 10 4 10 3 0 8 -4 11 -10z"/>
<path d="M920 800 l0 -100 70 0 c68 0 70 1 70 25 0 22 -4 25 -40 25 l-39 0 -3
72 c-3 69 -4 71 -30 75 l-28 4 0 -101z m40 50 c0 -5 -4 -10 -10 -10 -5 0 -10
5 -10 10 0 6 5 10 10 10 6 0 10 -4 10 -10z m0 -40 c0 -5 -4 -10 -10 -10 -5 0
-10 5 -10 10 0 6 5 10 10 10 6 0 10 -4 10 -10z m0 -40 c0 -11 -2 -20 -4 -20
-2 0 -6 9 -9 20 -3 11 -1 20 4 20 5 0 9 -9 9 -20z m10 -34 c0 -11 -19 -15 -25
-6 -3 5 1 10 9 10 9 0 16 -2 16 -4z"/>
<path d="M1040 866 c0 -23 3 -27 20 -23 19 5 20 0 20 -69 l0 -74 30 0 30 0 0
76 c0 71 1 75 20 69 17 -5 20 -2 20 22 l0 28 -70 0 -70 0 0 -29z m70 -6 c0 -5
-7 -7 -15 -4 -8 4 -15 8 -15 10 0 2 7 4 15 4 8 0 15 -4 15 -10z m30 6 c0 -3
-4 -8 -10 -11 -5 -3 -10 -1 -10 4 0 6 5 11 10 11 6 0 10 -2 10 -4z"/>
<path d="M1204 891 c-2 -2 -4 -46 -4 -98 l0 -93 75 0 c74 0 75 0 75 26 0 24
-3 25 -42 22 -34 -2 -43 1 -46 14 -3 14 3 16 32 11 34 -5 36 -4 36 21 0 23 -4
26 -35 26 -26 0 -35 4 -35 16 0 14 7 16 45 11 44 -6 45 -6 45 21 0 27 0 27
-71 27 -39 0 -72 -2 -75 -4z m36 -41 c0 -5 -2 -10 -4 -10 -3 0 -8 5 -11 10 -3
6 -1 10 4 10 6 0 11 -4 11 -10z m0 -70 c0 -27 -3 -50 -7 -50 -5 0 -6 22 -5 50
5 65 12 65 12 0z"/>
<path d="M1379 895 c0 0 -1 -44 -2 -98 l-2 -97 33 0 c32 0 33 2 30 33 -4 44
15 47 26 4 8 -30 14 -36 43 -39 43 -5 47 1 26 42 -12 26 -13 37 -4 49 22 31
24 44 10 70 -13 23 -22 27 -87 31 -40 3 -72 5 -73 5z m44 -32 c-7 -2 -14 -17
-14 -31 -1 -18 -3 -21 -6 -9 -6 24 3 47 19 46 10 0 10 -2 1 -6z m100 -17 c3
-8 -2 -20 -11 -28 -15 -11 -15 -11 -5 3 10 12 10 18 1 27 -8 8 -9 12 -1 12 6
0 13 -6 16 -14z m-40 -11 c-1 -5 -8 -14 -17 -20 -18 -11 -42 7 -31 25 8 13 51
9 48 -5z m11 -50 c-4 -8 -8 -15 -10 -15 -2 0 -4 7 -4 15 0 8 4 15 10 15 5 0 7
-7 4 -15z m-87 -42 c-3 -10 -5 -4 -5 12 0 17 2 24 5 18 2 -7 2 -21 0 -30z
m103 -9 c0 -8 -4 -14 -10 -14 -5 0 -10 9 -10 21 0 11 5 17 10 14 6 -3 10 -13
10 -21z"/>
<path d="M1701 844 c0 -11 3 -14 6 -6 3 7 2 16 -1 19 -3 4 -6 -2 -5 -13z"/>
<path d="M1580 840 c11 -9 12 -13 3 -17 -17 -6 -16 -20 0 -26 9 -3 13 4 12 21
0 14 -7 27 -15 29 -13 4 -13 3 0 -7z"/>
<path d="M1006 832 c-2 -4 -1 -14 3 -22 7 -17 51 -22 51 -6 0 13 -48 37 -54
28z"/>
<path d="M320 811 c0 -6 4 -13 10 -16 6 -3 7 1 4 9 -7 18 -14 21 -14 7z"/>
<path d="M1670 808 c0 -9 -6 -19 -12 -21 -7 -3 -8 -6 -3 -6 6 0 17 4 25 9 12
7 12 12 2 22 -9 9 -12 9 -12 -4z"/>
<path d="M1795 720 c3 -5 11 -10 16 -10 6 0 7 5 4 10 -3 6 -11 10 -16 10 -6 0
-7 -4 -4 -10z"/>
<path d="M328 693 c7 -3 16 -2 19 1 4 3 -2 6 -13 5 -11 0 -14 -3 -6 -6z"/>
<path d="M1550 659 c-36 -21 -66 -43 -68 -48 -1 -4 12 -14 30 -22 18 -7 50
-24 72 -37 32 -20 46 -23 82 -17 l44 6 0 73 0 73 -37 7 c-52 8 -50 9 -123 -35z
m138 -47 l3 -60 -36 2 c-21 2 -44 12 -56 25 -21 23 -35 28 -23 10 4 -7 -7 -3
-25 7 -32 19 -32 19 -9 29 13 5 30 17 38 26 17 19 43 27 80 24 23 -2 25 -6 28
-63z"/>
<path d="M1597 646 c-4 -10 -1 -13 9 -9 7 3 14 9 14 14 0 14 -17 10 -23 -5z"/>
<path d="M1643 645 c0 -9 4 -14 9 -13 5 2 10 8 10 13 0 5 -5 11 -10 13 -5 1
-9 -4 -9 -13z"/>
<path d="M352 673 c-12 -12 -10 -13 13 -7 18 4 25 3 23 -6 -2 -7 3 -15 10 -17
11 -4 12 -1 3 15 -14 26 -33 33 -49 15z"/>
<path d="M490 680 c-8 -5 -28 -10 -45 -11 l-30 -2 28 -4 c17 -3 27 -11 28 -21
0 -14 2 -14 6 -2 3 8 12 23 21 33 17 19 14 21 -8 7z"/>
<path d="M1120 676 c-30 -7 -65 -16 -76 -20 -15 -4 -23 -2 -28 9 -10 26 -26
16 -26 -16 0 -28 2 -30 17 -18 11 10 14 10 9 2 -4 -7 -3 -13 1 -13 5 0 15 6
22 13 11 10 13 10 7 0 -4 -7 -3 -13 3 -13 5 0 11 6 13 12 3 9 9 8 22 -5 10 -9
20 -17 24 -17 3 0 1 5 -6 12 -17 17 -15 28 4 28 9 0 13 -5 9 -12 -4 -7 0 -5 8
4 18 23 146 30 132 8 -4 -7 2 -9 18 -5 26 7 71 -10 63 -24 -3 -4 11 -8 32 -9
l37 -1 -60 34 c-42 24 -73 35 -102 35 -23 0 -47 2 -55 4 -7 2 -38 -2 -68 -8z"/>
<path d="M1460 669 c0 -23 7 -24 25 -5 12 12 11 15 -5 19 -15 4 -20 0 -20 -14z"/>
<path d="M520 670 c0 -5 5 -10 10 -10 6 0 10 5 10 10 0 6 -4 10 -10 10 -5 0
-10 -4 -10 -10z"/>
<path d="M553 667 c2 -6 11 -11 21 -9 9 2 16 -2 16 -8 0 -5 5 -10 10 -10 22 0
8 19 -21 29 -23 8 -30 8 -26 -2z"/>
<path d="M664 669 c-3 -5 3 -9 13 -9 10 0 28 -3 41 -6 16 -5 21 -3 17 7 -6 15
-62 21 -71 8z"/>
<path d="M840 670 c-51 -8 -51 -10 2 -14 24 -2 39 2 42 11 3 7 4 12 3 11 -1 0
-22 -4 -47 -8z"/>
<path d="M942 659 c-7 -10 -8 -19 -3 -19 6 0 13 5 16 10 4 6 11 8 16 5 5 -4 9
-2 9 3 0 19 -27 20 -38 1z"/>
<path d="M1397 661 c18 -22 35 -19 26 4 -3 8 -14 15 -24 15 -18 0 -18 -1 -2
-19z"/>
<path d="M630 660 c-13 -8 -12 -10 3 -10 9 0 17 5 17 10 0 12 -1 12 -20 0z"/>
<path d="M757 663 c-3 -5 6 -16 19 -26 13 -10 24 -13 24 -7 0 5 -4 10 -10 10
-5 0 -7 7 -4 15 6 15 -21 22 -29 8z"/>
<path d="M901 661 c-21 -14 -8 -34 24 -37 24 -2 26 -1 13 7 -10 5 -15 16 -12
24 7 17 -4 19 -25 6z"/>
<path d="M328 643 c7 -3 16 -2 19 1 4 3 -2 6 -13 5 -11 0 -14 -3 -6 -6z"/>
<path d="M503 639 c9 -5 22 -7 27 -4 6 3 10 1 10 -4 0 -6 12 -11 28 -11 27 1
27 1 -7 15 -18 8 -43 15 -55 15 -19 -1 -19 -2 -3 -11z"/>
<path d="M1153 640 c-13 -5 -23 -12 -23 -16 0 -3 7 -3 16 0 9 4 22 2 28 -2 19
-15 64 -23 71 -12 3 5 16 11 28 11 17 1 18 2 5 6 -10 2 -25 0 -34 -5 -19 -11
-54 -4 -54 10 0 5 9 6 20 3 11 -4 20 -2 20 4 0 13 -46 13 -77 1z"/>
<path d="M679 629 c14 -5 30 -8 37 -5 7 3 15 0 18 -7 3 -7 5 -6 5 3 1 12 -10
16 -41 17 -37 1 -40 0 -19 -8z"/>
<path d="M170 436 c0 -107 -3 -201 -6 -210 -3 -9 -1 -16 4 -16 7 0 11 73 12
210 0 116 -2 210 -5 210 -3 0 -5 -87 -5 -194z"/>
<path d="M628 623 c7 -3 16 -2 19 1 4 3 -2 6 -13 5 -11 0 -14 -3 -6 -6z"/>
<path d="M1750 596 c0 -13 -7 -27 -16 -30 -36 -14 -3 -17 50 -5 64 14 76 34
16 26 -29 -4 -40 -2 -40 8 0 8 10 16 23 18 19 4 18 4 -5 6 -23 1 -28 -3 -28
-23z"/>
<path d="M1852 612 c-10 -7 -9 -14 2 -38 8 -16 17 -40 21 -54 6 -24 3 -26 -52
-39 -32 -7 -62 -15 -67 -18 -4 -3 21 -22 57 -42 65 -36 70 -45 41 -80 -1 -1
-12 6 -24 16 -11 11 -33 26 -48 34 -15 8 -31 20 -35 27 -5 7 -13 10 -18 7 -5
-4 -7 -11 -4 -16 4 -5 12 -33 20 -61 12 -46 12 -54 -1 -64 -19 -15 -18 -34 2
-34 8 0 13 4 10 9 -3 5 1 11 9 15 8 3 15 12 15 21 0 8 8 15 18 16 13 0 12 2
-5 9 -27 11 -30 25 -7 34 21 8 26 8 20 -3 -6 -9 35 -41 51 -41 10 0 33 49 33
70 0 18 -30 50 -47 50 -6 0 -16 7 -23 15 -10 12 -10 15 3 15 8 0 18 -6 20 -12
3 -8 6 -6 6 5 1 28 21 19 21 -10 0 -14 3 -23 6 -20 12 12 17 157 6 157 -6 0
-12 9 -14 20 -2 13 -7 17 -16 12z m-72 -242 c0 -5 -4 -10 -10 -10 -5 0 -10 5
-10 10 0 6 5 10 10 10 6 0 10 -4 10 -10z"/>
<path d="M506 574 c-34 -33 -15 -69 42 -80 53 -11 36 -25 -19 -18 -49 7 -51 6
-40 -13 31 -60 148 -36 139 29 -2 17 -14 26 -45 36 -24 8 -43 18 -43 23 0 12
24 11 36 -1 12 -12 44 -3 44 11 0 28 -89 39 -114 13z"/>
<path d="M640 570 c0 -12 7 -20 18 -20 15 0 17 -8 14 -60 -4 -59 -3 -60 22
-60 25 0 26 2 26 60 0 53 2 60 20 60 13 0 20 7 20 20 0 18 -7 20 -60 20 -53 0
-60 -2 -60 -20z"/>
<path d="M768 510 l-26 -80 24 0 c15 0 24 6 24 15 0 9 9 15 25 15 16 0 25 -6
25 -15 0 -10 10 -15 31 -15 26 0 30 3 24 18 -4 9 -16 45 -26 80 -18 56 -22 62
-47 62 -26 0 -30 -6 -54 -80z m59 14 c1 -25 -2 -34 -14 -34 -11 0 -14 6 -8 23
4 12 7 30 6 41 0 32 13 6 16 -30z"/>
<path d="M880 570 c0 -13 7 -20 20 -20 18 0 20 -7 20 -60 0 -58 1 -60 26 -60
25 0 26 1 22 60 -3 52 -1 60 15 60 10 0 17 8 17 20 0 18 -7 20 -60 20 -53 0
-60 -2 -60 -20z"/>
<path d="M1018 513 c-2 -43 -3 -79 -3 -80 0 0 11 -3 25 -5 25 -3 25 -2 28 80
3 81 3 82 -22 82 -24 0 -25 -3 -28 -77z"/>
<path d="M1110 570 c-28 -28 -27 -93 2 -120 28 -26 82 -26 108 0 24 24 27 86
4 118 -20 29 -85 31 -114 2z m75 -60 c0 -28 -4 -35 -20 -35 -13 0 -21 8 -23
23 -5 34 5 54 25 50 13 -2 18 -13 18 -38z m32 -2 c-3 -7 -5 -2 -5 12 0 14 2
19 5 13 2 -7 2 -19 0 -25z"/>
<path d="M1264 510 c0 -78 0 -80 24 -80 23 0 24 3 17 38 -3 20 -9 47 -12 60
-3 13 -1 22 6 22 6 0 11 -5 11 -11 0 -6 10 -33 21 -60 18 -41 26 -49 48 -49
26 0 26 0 26 80 0 76 -1 80 -22 80 -19 0 -23 -5 -23 -33 0 -17 4 -47 9 -65 6
-20 6 -30 0 -27 -5 4 -9 16 -9 28 0 18 -2 20 -11 7 -9 -13 -10 -12 -5 3 3 9
-2 33 -11 52 -13 27 -23 35 -43 35 -26 0 -26 0 -26 -80z"/>
<path d="M1458 491 l4 -89 76 -81 c43 -45 80 -81 85 -81 13 0 7 23 -10 35 -15
11 -16 17 -4 41 12 28 13 28 27 9 8 -10 14 -26 14 -36 0 -9 9 -19 20 -22 12
-3 20 -14 20 -26 0 -19 -6 -21 -50 -21 -36 0 -50 -4 -50 -14 0 -7 -6 -19 -14
-25 -11 -9 -18 -6 -34 14 -14 17 -30 25 -51 25 -41 0 -40 -18 1 -22 22 -2 34
-9 38 -23 3 -14 14 -20 33 -20 15 -1 27 3 27 7 0 4 10 9 23 9 16 1 18 2 5 6
-37 10 -16 23 37 23 l55 0 0 41 c0 33 -3 40 -15 35 -9 -3 -17 0 -19 7 -2 6
-16 53 -32 102 -15 50 -28 95 -29 100 0 6 -27 24 -60 42 -33 17 -65 36 -72 42
-24 22 -28 10 -25 -78z m40 4 c-1 -19 1 -37 5 -41 4 -4 7 9 7 29 0 41 1 42 32
25 60 -35 75 -73 55 -138 l-8 -25 15 25 c17 28 21 14 6 -24 -11 -31 -31 -33
-48 -6 -7 11 -19 20 -27 20 -26 0 -16 19 13 23 22 3 20 4 -6 3 -26 0 -37 5
-48 24 -16 30 -19 134 -3 125 6 -4 9 -22 7 -40z"/>
<path d="M1744 504 c-18 -14 -18 -14 6 -3 31 14 36 19 24 19 -6 0 -19 -7 -30
-16z"/>
<path d="M1676 491 c-4 -5 3 -7 14 -4 23 6 26 13 6 13 -8 0 -17 -4 -20 -9z"/>
<path d="M1690 450 c0 -5 5 -10 11 -10 5 0 7 5 4 10 -3 6 -8 10 -11 10 -2 0
-4 -4 -4 -10z"/>
<path d="M1661 424 c0 -11 3 -14 6 -6 3 7 2 16 -1 19 -3 4 -6 -2 -5 -13z"/>
<path d="M483 415 c0 -8 4 -15 9 -15 4 0 8 4 8 9 0 6 -4 12 -8 15 -5 3 -9 -1
-9 -9z"/>
<path d="M645 410 c3 -5 11 -10 16 -10 6 0 7 5 4 10 -3 6 -11 10 -16 10 -6 0
-7 -4 -4 -10z"/>
<path d="M1236 385 c-9 -20 -20 -54 -26 -76 -11 -39 -12 -40 -48 -33 -20 4
-38 8 -40 9 -1 1 4 30 12 64 10 41 11 61 3 61 -19 0 -97 -50 -97 -63 -1 -7
-10 -1 -21 12 l-20 25 23 12 23 13 -22 1 c-12 0 -27 -9 -33 -20 -22 -40 47
-95 88 -70 13 8 10 9 -13 3 -27 -6 -29 -5 -16 10 7 10 21 17 31 17 10 0 21 7
24 16 4 9 9 14 13 11 3 -4 0 -13 -6 -21 -7 -8 -11 -31 -9 -52 3 -37 4 -38 62
-51 33 -7 65 -11 70 -9 6 2 0 5 -13 5 -23 1 -23 2 -8 19 10 10 17 25 17 33 0
9 6 24 14 34 13 18 14 18 21 -5 7 -21 8 -21 17 -6 12 21 2 70 -17 86 -11 9
-17 4 -29 -25z m43 -40 l0 -20 -9 20 c-5 11 -9 29 -9 40 l0 20 9 -20 c5 -11 9
-29 9 -40z"/>
<path d="M1400 410 c-8 -5 -18 -6 -22 -4 -4 3 -8 -2 -8 -11 0 -8 -11 -20 -24
-25 -13 -5 -27 -18 -30 -28 -9 -27 -54 -74 -65 -68 -5 4 -7 -3 -4 -14 3 -11 8
-20 12 -20 9 0 81 74 81 83 0 3 19 24 42 46 40 37 50 61 18 41z"/>
<path d="M585 400 c-15 -6 -11 -8 16 -7 21 1 35 5 32 10 -5 9 -22 8 -48 -3z"/>
<path d="M750 400 c-8 -5 -10 -10 -5 -10 6 0 17 5 25 10 8 5 11 10 5 10 -5 0
-17 -5 -25 -10z"/>
<path d="M865 400 c3 -5 11 -10 16 -10 6 0 7 5 4 10 -3 6 -11 10 -16 10 -6 0
-7 -4 -4 -10z"/>
<path d="M955 400 c-16 -7 -17 -9 -3 -9 9 -1 20 4 23 9 7 11 7 11 -20 0z"/>
<path d="M693 393 c9 -2 23 -2 30 0 6 3 -1 5 -18 5 -16 0 -22 -2 -12 -5z"/>
<path d="M1318 393 c6 -2 18 -2 25 0 6 3 1 5 -13 5 -14 0 -19 -2 -12 -5z"/>
<path d="M964 340 c1 -16 7 -25 19 -26 11 -1 12 0 3 3 -8 2 -17 14 -19 26 -3
18 -4 18 -3 -3z"/>
<path d="M1431 344 c0 -11 3 -14 6 -6 3 7 2 16 -1 19 -3 4 -6 -2 -5 -13z"/>
<path d="M1692 330 c0 -14 2 -19 5 -12 2 6 2 18 0 25 -3 6 -5 1 -5 -13z"/>
<path d="M1380 325 c-7 -9 -8 -15 -2 -15 5 0 12 7 16 15 3 8 4 15 2 15 -2 0
-9 -7 -16 -15z"/>
<path d="M1415 310 c3 -5 14 -10 23 -10 15 0 15 2 2 10 -20 13 -33 13 -25 0z"/>
<path d="M1471 307 c9 -7 18 -19 22 -27 4 -10 6 -9 6 6 1 14 -7 24 -21 27 -20
5 -21 4 -7 -6z"/>
<path d="M1510 290 c0 -5 5 -10 10 -10 6 0 10 5 10 10 0 6 -4 10 -10 10 -5 0
-10 -4 -10 -10z"/>
<path d="M1336 271 c-3 -5 1 -11 9 -14 9 -4 12 -1 8 9 -6 16 -10 17 -17 5z"/>
<path d="M1455 269 c-9 -13 18 -43 33 -38 6 2 2 14 -8 27 -12 15 -21 19 -25
11z"/>
<path d="M1393 255 c-8 -9 -9 -16 -3 -20 14 -8 30 3 30 21 0 18 -11 17 -27 -1z"/>
<path d="M1743 223 c-20 -7 -15 -33 5 -32 12 0 13 2 3 6 -11 4 -11 7 0 14 16
9 10 18 -8 12z"/>
<path d="M1332 193 c-15 -19 -25 -24 -28 -15 -6 14 -30 16 -38 4 -3 -5 14 -13
38 -19 39 -9 43 -8 39 8 -5 18 28 34 56 27 8 -2 16 3 18 10 3 8 -6 12 -29 12
-25 0 -40 -7 -56 -27z"/>
<path d="M173 193 c9 -2 17 -13 17 -24 0 -10 5 -19 10 -19 14 0 13 23 -2 38
-7 7 -19 11 -27 11 -12 -1 -12 -2 2 -6z"/>
<path d="M1463 157 c6 -36 5 -37 -25 -37 -28 0 -30 2 -26 29 4 24 1 29 -19 29
-13 0 -23 -4 -23 -9 0 -5 5 -9 10 -9 6 0 10 -13 10 -29 0 -28 2 -29 56 -33 31
-1 61 0 67 4 8 5 6 8 -5 8 -10 0 -18 5 -18 10 0 6 8 10 18 11 13 0 12 2 -5 9
-13 5 -23 16 -23 24 0 8 -5 18 -12 22 -8 5 -9 -3 -5 -29z"/>
<path d="M227 173 c-5 -7 504 -7 843 0 74 1 -84 4 -352 5 -268 1 -489 -1 -491
-5z"/>
<path d="M1218 173 c7 -3 16 -2 19 1 4 3 -2 6 -13 5 -11 0 -14 -3 -6 -6z"/>
<path d="M1500 165 c0 -8 2 -15 4 -15 2 0 6 7 10 15 3 8 1 15 -4 15 -6 0 -10
-7 -10 -15z"/>
<path d="M1658 173 c7 -3 16 -2 19 1 4 3 -2 6 -13 5 -11 0 -14 -3 -6 -6z"/>
<path d="M1720 170 c0 -13 11 -13 30 0 12 8 11 10 -7 10 -13 0 -23 -4 -23 -10z"/>
<path d="M165 160 c3 -5 8 -10 11 -10 2 0 4 5 4 10 0 6 -5 10 -11 10 -5 0 -7
-4 -4 -10z"/>
<path d="M1218 153 c12 -2 30 -2 40 0 9 3 -1 5 -23 4 -22 0 -30 -2 -17 -4z"/>
<path d="M1608 153 c7 -3 16 -2 19 1 4 3 -2 6 -13 5 -11 0 -14 -3 -6 -6z"/>
<path d="M1658 153 c7 -3 16 -2 19 1 4 3 -2 6 -13 5 -11 0 -14 -3 -6 -6z"/>
<path d="M1362 115 c0 -16 2 -22 5 -12 2 9 2 23 0 30 -3 6 -5 -1 -5 -18z"/>
<path d="M1393 73 c9 -2 23 -2 30 0 6 3 -1 5 -18 5 -16 0 -22 -2 -12 -5z"/>
<path d="M1847 51 c-4 -17 -3 -21 5 -13 5 5 8 16 6 23 -3 8 -7 3 -11 -10z"/>
<path d="M478 3 c265 -2 699 -2 965 0 265 1 48 2 -483 2 -531 0 -748 -1 -482
-2z"/>
</g>
</svg>
