<?xml version="1.0" standalone="no"?>
<!DOCTYPE svg PUBLIC "-//W3C//DTD SVG 20010904//EN"
 "http://www.w3.org/TR/2001/REC-SVG-20010904/DTD/svg10.dtd">
<svg version="1.0" xmlns="http://www.w3.org/2000/svg"
 width="192.000000pt" height="192.000000pt" viewBox="0 0 192.000000 192.000000"
 preserveAspectRatio="xMidYMid meet">
<metadata>
Created by potrace 1.16, written by Peter Selinger 2001-2019
</metadata>
<g transform="translate(0.000000,192.000000) scale(0.100000,-0.100000)"
fill="#000000" stroke="none">
<path d="M15 1458 c0 -276 4 -448 9 -448 6 0 5 -5 -2 -12 -18 -18 -15 -38 6
-32 9 2 7 -1 -6 -7 -24 -13 -31 -66 -11 -86 7 -7 9 -142 7 -434 l-3 -424 945
0 945 0 -3 439 c-1 241 -5 442 -8 447 -3 5 0 9 7 9 6 0 9 8 6 20 -3 11 -1 20
3 20 5 0 6 24 3 53 -3 28 -6 243 -7 477 l-1 425 -945 0 -945 0 0 -447z m1872
15 l3 -409 -108 0 c-59 0 -138 -1 -177 -1 -38 -1 -113 -1 -165 -1 -295 1 -470
1 -510 2 -25 0 -111 -1 -192 -2 l-148 -2 -6 -25 c-5 -22 -12 -25 -49 -25 -38
0 -44 3 -47 23 -3 20 -9 22 -78 26 -127 7 -253 6 -297 -2 l-43 -7 -1 37 c-2
36 -2 36 -8 -9 -6 -43 -21 -78 -21 -49 0 7 -5 9 -12 5 -7 -4 -8 -3 -4 4 4 6 7
197 7 423 0 227 1 415 3 418 2 3 420 5 928 4 l923 -1 2 -409z m-1558 -439 c22
-5 31 -12 29 -23 -3 -14 -18 -16 -116 -12 -100 3 -112 2 -112 -13 0 -13 5 -16
21 -11 11 4 56 4 100 0 86 -8 93 -15 58 -59 l-21 -27 -131 3 c-124 3 -132 4
-132 23 0 17 5 19 35 15 72 -10 193 -5 197 8 4 9 -18 12 -85 12 -97 0 -122 5
-122 24 0 17 40 53 65 59 31 7 178 8 214 1z m141 -4 c0 -4 -7 -13 -15 -20 -16
-13 -21 -45 -7 -36 5 3 39 6 76 7 60 2 67 4 79 27 9 18 21 26 45 27 17 2 32 0
32 -3 0 -4 -15 -37 -32 -74 -32 -66 -34 -68 -70 -68 -42 0 -45 4 -23 26 27 28
16 34 -61 34 -75 0 -76 0 -87 -30 -10 -26 -16 -30 -49 -30 -40 0 -48 10 -23
30 8 7 15 16 15 20 0 4 9 28 20 53 19 43 22 46 60 45 22 0 40 -4 40 -8z m488
-10 c-3 -12 -24 -16 -106 -18 -85 -2 -102 -5 -102 -19 0 -13 12 -15 85 -11 65
3 85 1 85 -8 0 -10 -26 -14 -97 -16 -63 -2 -98 -7 -100 -15 -3 -8 25 -13 98
-15 l102 -3 26 55 c14 30 26 56 27 58 3 6 265 4 271 -1 11 -12 -9 -59 -27 -64
-11 -3 -19 -13 -18 -22 3 -45 -1 -51 -43 -51 -36 0 -40 2 -29 15 15 18 20 17
-63 19 -56 1 -70 -2 -78 -16 -8 -15 -30 -17 -179 -17 -143 -1 -170 1 -170 13
0 8 5 18 11 21 5 4 21 30 34 58 l23 52 126 0 c107 0 126 -2 124 -15z m607 8
c4 -4 4 -16 0 -27 -5 -16 -15 -21 -40 -21 -19 0 -37 5 -40 10 -9 14 -128 12
-148 -2 -9 -7 -18 -24 -19 -38 -3 -25 -2 -25 70 -25 51 0 75 4 81 14 6 10 20
12 44 8 33 -5 37 -3 63 38 26 42 29 44 90 50 102 11 211 3 231 -18 12 -12 15
-20 7 -25 -6 -4 -14 -17 -18 -29 -4 -12 -21 -34 -37 -48 -29 -24 -36 -25 -156
-25 -104 0 -130 3 -145 17 -17 15 -19 15 -36 0 -28 -25 -270 -25 -279 0 -11
29 39 106 78 120 35 12 242 13 254 1z m-1042 -128 c3 -11 1 -18 -4 -14 -5 3
-9 1 -9 -4 0 -19 34 -22 251 -22 212 0 268 7 254 31 -4 6 10 7 37 3 24 -4 47
-13 51 -21 6 -10 27 -14 75 -12 37 1 121 1 187 1 426 -2 495 0 495 12 0 7 6
13 14 13 12 0 14 -68 14 -421 0 -232 -2 -424 -5 -429 -2 -4 -8 -5 -13 -2 -11
7 -1809 7 -1820 0 -5 -3 -11 -1 -14 3 -3 5 -5 192 -5 415 0 351 2 407 14 407
10 0 16 -11 17 -32 l1 -33 4 33 4 32 107 1 c59 1 130 1 159 -1 55 -2 93 12 93
34 0 11 10 13 40 10 24 -3 40 -1 40 6 0 17 7 11 13 -10z"/>
<path d="M281 934 c0 -11 3 -14 6 -6 3 7 2 16 -1 19 -3 4 -6 -2 -5 -13z"/>
<path d="M625 989 c-4 -6 -5 -12 -2 -15 2 -3 7 2 10 11 7 17 1 20 -8 4z"/>
<path d="M596 933 c-6 -14 -5 -15 5 -6 7 7 10 15 7 18 -3 3 -9 -2 -12 -12z"/>
<path d="M1022 980 c-12 -19 -10 -20 62 -20 49 0 77 4 85 13 17 21 3 27 -68
27 -55 0 -68 -3 -79 -20z"/>
<path d="M680 929 c0 -5 5 -7 10 -4 6 3 10 8 10 11 0 2 -4 4 -10 4 -5 0 -10
-5 -10 -11z"/>
<path d="M1655 993 c-17 -13 -36 -53 -30 -63 3 -6 40 -9 81 -7 67 2 78 5 94
27 11 14 18 30 16 35 -3 12 -146 19 -161 8z m103 -30 c-15 -2 -42 -2 -60 0
-18 2 -6 4 27 4 33 0 48 -2 33 -4z"/>
<path d="M1580 940 c0 -5 5 -10 11 -10 5 0 7 5 4 10 -3 6 -8 10 -11 10 -2 0
-4 -4 -4 -10z"/>
<path d="M1270 930 c0 -5 5 -10 11 -10 5 0 7 5 4 10 -3 6 -8 10 -11 10 -2 0
-4 -4 -4 -10z"/>
<path d="M1853 770 c0 -30 2 -43 4 -27 2 15 2 39 0 55 -2 15 -4 2 -4 -28z"/>
<path d="M1853 520 c0 -25 2 -35 4 -22 2 12 2 32 0 45 -2 12 -4 2 -4 -23z"/>
<path d="M1853 280 c0 -25 2 -35 4 -22 2 12 2 32 0 45 -2 12 -4 2 -4 -23z"/>
<path d="M98 73 c12 -2 32 -2 45 0 12 2 2 4 -23 4 -25 0 -35 -2 -22 -4z"/>
<path d="M338 73 c12 -2 32 -2 45 0 12 2 2 4 -23 4 -25 0 -35 -2 -22 -4z"/>
<path d="M1778 73 c12 -2 32 -2 45 0 12 2 2 4 -23 4 -25 0 -35 -2 -22 -4z"/>
</g>
</svg>
