<?xml version="1.0" standalone="no"?>
<!DOCTYPE svg PUBLIC "-//W3C//DTD SVG 20010904//EN"
 "http://www.w3.org/TR/2001/REC-SVG-20010904/DTD/svg10.dtd">
<svg version="1.0" xmlns="http://www.w3.org/2000/svg"
 width="100.000000pt" height="100.000000pt" viewBox="0 0 100.000000 100.000000"
 preserveAspectRatio="xMidYMid meet">
<metadata>
Created by potrace 1.16, written by Peter Selinger 2001-2019
</metadata>
<g transform="translate(0.000000,100.000000) scale(0.100000,-0.100000)"
fill="#000000" stroke="none">
<path d="M60 500 c0 -327 3 -500 10 -500 6 0 10 13 10 30 l0 30 115 0 115 0 0
25 c0 18 5 25 20 25 13 0 20 -7 20 -20 0 -11 -5 -20 -12 -20 -6 0 -3 -7 8 -15
15 -11 53 -14 172 -15 95 0 152 4 152 10 0 6 -7 10 -15 10 -9 0 -15 9 -15 25
0 20 5 25 25 25 20 0 25 -5 25 -25 l0 -25 155 0 c97 0 155 4 155 10 0 6 -13
10 -30 10 l-30 0 0 114 c0 66 4 117 10 121 6 4 10 72 10 171 l0 164 -35 0
c-28 0 -35 4 -35 20 0 15 7 20 25 20 l25 0 0 115 0 115 30 0 c17 0 30 5 30 10
0 7 -162 10 -465 10 l-464 0 6 30 c3 19 1 30 -6 30 -8 0 -11 -136 -11 -500z
m500 408 c0 -15 -10 -18 -60 -18 -50 0 -60 3 -60 18 0 14 10 17 60 17 50 0 60
-3 60 -17z m60 2 c0 -13 -7 -20 -20 -20 -25 0 -27 27 -2 33 9 3 18 5 20 6 1 0
2 -8 2 -19z m-270 -5 c0 -10 -15 -15 -57 -17 -55 -3 -58 -4 -61 -30 -3 -24 -8
-28 -33 -28 -25 0 -29 -4 -29 -29 0 -25 -4 -30 -27 -33 -27 -3 -28 -6 -31 -60
-2 -43 -7 -58 -17 -58 -12 0 -15 24 -15 135 l0 135 135 0 c111 0 135 -3 135
-15z m70 0 c0 -9 -9 -15 -25 -15 -16 0 -25 6 -25 15 0 9 9 15 25 15 16 0 25
-6 25 -15z m500 -90 c0 -87 -3 -105 -15 -105 -10 0 -15 10 -15 30 0 27 -3 30
-30 30 -27 0 -30 3 -30 30 0 27 -3 30 -30 30 -27 0 -30 3 -30 30 l0 30 -65 0
c-51 0 -65 3 -65 15 0 13 22 15 140 15 l140 0 0 -105z m-627 35 c-3 -11 -14
-20 -24 -20 -12 0 -19 7 -19 20 0 14 7 20 24 20 19 0 23 -4 19 -20z m457 -5
c0 -19 -4 -23 -17 -18 -10 4 -23 14 -30 22 -11 14 -12 12 -13 -11 0 -27 1 -28
60 -28 l60 0 0 -60 c0 -59 1 -60 28 -60 23 1 25 2 11 13 -8 7 -18 20 -22 30
-5 13 -1 17 18 17 l25 0 0 -250 0 -250 -30 0 c-27 0 -30 -3 -30 -30 0 -27 -3
-30 -30 -30 -27 0 -30 -3 -30 -30 l0 -30 -250 0 -250 0 0 25 c0 31 13 32 40 3
l20 -22 0 27 c0 26 -2 27 -60 27 l-60 0 0 60 c0 59 -1 60 -27 60 -24 -1 -26
-2 -12 -13 8 -7 18 -20 22 -29 5 -14 1 -18 -18 -18 l-25 0 0 220 0 220 30 0
c27 0 30 3 30 30 0 27 3 30 30 30 27 0 30 3 30 30 l0 30 60 0 c53 0 60 -2 60
-20 0 -11 5 -20 10 -20 6 0 10 5 10 10 0 6 7 10 15 10 8 0 15 -4 15 -10 0 -5
5 -10 10 -10 6 0 10 9 10 20 0 16 -7 20 -35 20 -28 0 -35 4 -35 20 0 24 -6 25
-26 5 -22 -22 -34 -18 -34 10 l0 25 220 0 220 0 0 -25z m-517 -54 c-3 -11 -13
-21 -24 -24 -15 -4 -19 0 -19 19 0 19 5 24 24 24 19 0 23 -4 19 -19z m-63 -60
c0 -10 -9 -21 -20 -24 -16 -4 -20 0 -20 19 0 17 6 24 20 24 13 0 20 -7 20 -19z
m-60 -126 c0 -16 -6 -25 -15 -25 -9 0 -15 9 -15 25 0 16 6 25 15 25 9 0 15 -9
15 -25z m830 -100 l0 -125 -25 0 c-18 0 -25 5 -25 20 0 11 7 20 15 20 8 0 15
5 15 10 0 6 -7 10 -15 10 -23 0 -20 60 3 61 16 1 16 2 0 6 -22 6 -25 53 -3 53
8 0 15 5 15 10 0 6 -7 10 -15 10 -9 0 -15 9 -15 25 0 20 5 25 25 25 l25 0 0
-125z m-830 -5 c0 -45 -4 -60 -14 -60 -10 0 -15 17 -18 60 -3 52 -1 60 15 60
14 0 17 -10 17 -60z m0 -100 c0 -11 -7 -20 -15 -20 -8 0 -15 9 -15 20 0 11 7
20 15 20 8 0 15 -9 15 -20z m830 -60 c0 -25 -4 -30 -25 -30 -34 0 -36 46 -2
53 12 2 23 5 25 6 1 0 2 -12 2 -29z m-830 -5 c0 -16 -6 -25 -15 -25 -9 0 -15
9 -15 25 0 16 6 25 15 25 9 0 15 -9 15 -25z m0 -75 c0 -27 3 -30 30 -30 27 0
30 -3 30 -30 0 -27 3 -30 30 -30 27 0 30 -3 30 -30 0 -27 3 -30 30 -30 20 0
30 -5 30 -15 0 -12 -18 -15 -105 -15 l-105 0 0 105 c0 87 3 105 15 105 10 0
15 -10 15 -30z m810 -75 l0 -105 -105 0 c-87 0 -105 3 -105 15 0 11 12 15 48
15 51 0 72 12 72 42 0 11 7 18 18 18 30 0 42 21 42 72 0 36 4 48 15 48 12 0
15 -18 15 -105z m-50 25 c0 -13 -7 -20 -20 -20 -13 0 -20 7 -20 20 0 13 7 20
20 20 13 0 20 -7 20 -20z m-60 -60 c0 -13 -7 -20 -20 -20 -13 0 -20 7 -20 20
0 13 7 20 20 20 13 0 20 -7 20 -20z m-390 -55 c0 -8 5 -15 10 -15 6 0 10 7 10
15 0 22 50 20 51 -2 1 -17 2 -17 6 0 6 22 63 24 63 2 0 -8 5 -15 10 -15 6 0
10 7 10 15 0 8 9 15 20 15 15 0 20 -7 20 -25 l0 -25 -125 0 -125 0 0 25 c0 20
5 25 25 25 16 0 25 -6 25 -15z"/>
<path d="M420 841 c0 -6 5 -13 10 -16 6 -3 10 1 10 9 0 9 -4 16 -10 16 -5 0
-10 -4 -10 -9z"/>
<path d="M620 830 c0 -16 -7 -20 -30 -20 -23 0 -30 -4 -30 -20 0 -22 15 -27
24 -7 5 10 7 10 12 0 9 -20 24 -15 24 6 0 15 8 21 33 24 29 4 30 5 10 12 -13
4 -23 11 -23 16 0 5 -4 9 -10 9 -5 0 -10 -9 -10 -20z"/>
<path d="M468 790 c12 -11 24 -20 27 -20 3 0 5 9 5 20 0 15 -7 20 -27 20 l-27
0 22 -20z"/>
<path d="M750 776 c0 -19 -5 -26 -20 -26 -24 0 -25 -6 -6 -26 20 -19 26 -18
26 5 0 13 8 21 25 23 l24 3 -24 24 -25 23 0 -26z"/>
<path d="M281 774 c-18 -21 -6 -30 14 -11 8 9 15 18 15 21 0 11 -15 5 -29 -10z"/>
<path d="M310 720 c0 -27 -3 -30 -30 -30 l-30 0 0 -65 0 -65 95 0 95 0 0 95 0
95 -65 0 -65 0 0 -30z m60 -5 c0 -20 -5 -25 -24 -25 -19 0 -23 4 -19 19 3 11
12 22 22 24 9 3 17 5 19 6 1 0 2 -10 2 -24z m50 -5 c0 -11 -7 -20 -15 -20 -8
0 -15 9 -15 20 0 11 7 20 15 20 8 0 15 -9 15 -20z m-110 -55 c0 -20 -5 -25
-24 -25 -19 0 -23 4 -19 19 3 11 12 22 22 24 9 3 17 5 19 6 1 0 2 -10 2 -24z
m110 -30 l0 -45 -75 0 c-60 0 -75 3 -75 15 0 10 10 15 30 15 27 0 30 3 30 30
0 29 2 30 45 30 l45 0 0 -45z"/>
<path d="M460 740 c0 -5 5 -10 10 -10 6 0 10 -32 10 -75 0 -43 -4 -75 -10 -75
-5 0 -10 -4 -10 -10 0 -5 9 -10 20 -10 19 0 20 7 20 95 0 88 -1 95 -20 95 -11
0 -20 -4 -20 -10z"/>
<path d="M560 655 l0 -95 95 0 95 0 0 65 0 65 -30 0 c-27 0 -30 3 -30 30 l0
30 -65 0 -65 0 0 -95z m40 60 c0 -8 5 -15 10 -15 6 0 10 7 10 15 0 23 47 19
53 -5 4 -17 0 -20 -24 -20 -28 0 -29 -1 -29 -55 0 -48 -2 -55 -20 -55 -22 0
-29 39 -7 41 10 0 10 2 0 6 -16 6 -18 103 -3 103 6 0 10 -7 10 -15z m72 -72
c2 -22 9 -29 31 -31 48 -6 33 -32 -18 -32 l-45 0 0 45 c0 51 26 66 32 18z m58
7 c0 -13 -7 -20 -20 -20 -13 0 -20 7 -20 20 0 13 7 20 20 20 13 0 20 -7 20
-20z"/>
<path d="M221 714 c-18 -21 -6 -30 14 -11 8 9 15 18 15 21 0 11 -15 5 -29 -10z"/>
<path d="M770 680 c0 -5 5 -10 10 -10 6 0 10 5 10 10 0 6 -4 10 -10 10 -5 0
-10 -4 -10 -10z"/>
<path d="M168 660 c-23 -26 -22 -30 2 -30 16 0 20 -7 20 -35 0 -28 4 -35 20
-35 11 0 20 5 20 10 0 6 -4 10 -10 10 -5 0 -10 7 -10 15 0 8 5 15 10 15 6 0
10 5 10 10 0 6 -9 10 -19 10 -14 0 -21 8 -23 25 l-3 26 -17 -21z"/>
<path d="M830 640 c0 -5 5 -10 10 -10 6 0 10 5 10 10 0 6 -4 10 -10 10 -5 0
-10 -4 -10 -10z"/>
<path d="M773 616 c9 -7 17 -17 17 -21 0 -4 -8 -14 -17 -21 -16 -12 -15 -13
10 -14 24 0 27 3 27 35 0 32 -3 35 -27 35 -25 -1 -26 -2 -10 -14z"/>
<path d="M150 570 c0 -5 5 -10 10 -10 6 0 10 5 10 10 0 6 -4 10 -10 10 -5 0
-10 -4 -10 -10z"/>
<path d="M190 528 c0 -24 4 -28 27 -28 22 0 25 2 13 13 -8 6 -20 19 -27 27
-10 13 -12 11 -13 -12z"/>
<path d="M794 535 c-7 -18 -40 -20 -48 -2 -5 10 -7 10 -12 0 -8 -17 -101 -17
-107 0 -4 10 -6 10 -6 0 -1 -15 -41 -18 -41 -3 0 6 -4 10 -10 10 -5 0 -10 -9
-10 -20 0 -19 7 -20 125 -20 l125 0 0 25 c0 28 -8 33 -16 10z"/>
<path d="M250 520 c0 -19 7 -20 95 -20 88 0 95 1 95 20 0 11 -4 20 -10 20 -5
0 -10 -4 -10 -10 0 -6 -32 -10 -75 -10 -43 0 -75 4 -75 10 0 6 -4 10 -10 10
-5 0 -10 -9 -10 -20z"/>
<path d="M473 525 c-18 -20 -16 -25 7 -25 13 0 20 7 20 20 0 23 -10 25 -27 5z"/>
<path d="M190 410 c0 -23 -4 -30 -20 -30 -11 0 -20 -4 -20 -10 0 -5 5 -10 10
-10 6 0 10 -7 10 -15 0 -8 5 -15 10 -15 6 0 10 11 10 25 0 18 5 25 20 25 22 0
27 15 8 24 -10 5 -10 7 0 12 19 9 14 24 -8 24 -16 0 -20 -7 -20 -30z"/>
<path d="M250 375 l0 -65 30 0 c27 0 30 -3 30 -30 l0 -30 61 0 c52 0 60 -2 55
-16 -3 -9 -6 -18 -6 -20 0 -11 -24 -2 -36 14 -12 15 -13 14 -14 -10 0 -25 3
-28 35 -28 l35 0 0 125 0 125 -95 0 -95 0 0 -65z m170 25 c0 -18 -7 -20 -55
-20 -52 0 -55 -1 -55 -25 0 -18 -5 -25 -20 -25 -17 0 -20 7 -20 45 l0 45 75 0
c68 0 75 -2 75 -20z m0 -85 c0 -51 -26 -66 -32 -17 -2 21 -9 28 -30 30 -49 6
-34 32 17 32 l45 0 0 -45z m-50 -25 c0 -13 -7 -20 -20 -20 -13 0 -20 7 -20 20
0 13 7 20 20 20 13 0 20 -7 20 -20z"/>
<path d="M460 430 c0 -5 5 -10 10 -10 14 0 12 -37 -2 -44 -10 -5 -10 -7 0 -12
7 -3 12 -24 12 -49 0 -25 -5 -46 -12 -49 -10 -5 -10 -7 0 -12 18 -8 15 -35 -5
-50 -16 -12 -15 -13 10 -14 l27 0 0 125 c0 118 -1 125 -20 125 -11 0 -20 -4
-20 -10z"/>
<path d="M560 315 l0 -125 65 0 c58 0 65 -2 65 -20 0 -25 5 -25 32 0 l22 20
-27 0 c-20 0 -27 5 -27 20 0 20 -15 28 -22 11 -1 -4 -13 -12 -25 -15 -17 -6
-23 -3 -23 8 0 9 -4 16 -10 16 -5 0 -10 -4 -10 -10 0 -18 -18 -10 -23 10 -5
18 0 20 54 20 59 0 59 0 59 30 0 27 3 30 30 30 30 0 30 0 30 59 0 54 2 59 20
54 20 -5 28 -23 10 -23 -5 0 -10 -4 -10 -10 0 -5 7 -10 16 -10 11 0 14 -6 8
-22 -3 -13 -11 -24 -15 -26 -17 -7 -9 -22 11 -22 15 0 20 -7 20 -27 l0 -27 20
22 c11 12 20 24 20 27 0 3 -9 5 -20 5 -18 0 -20 7 -20 65 l0 65 -125 0 -125 0
0 -125z m60 88 c1 -17 1 -17 14 0 9 11 27 17 55 17 34 0 41 -3 41 -20 0 -18
-7 -20 -75 -20 -68 0 -75 2 -75 20 0 26 40 28 40 3z m0 -83 c0 -43 -3 -50 -20
-50 -22 0 -27 15 -7 24 10 5 10 7 0 12 -28 12 -13 60 20 63 4 1 7 -21 7 -49z
m110 25 c0 -10 -10 -15 -30 -15 -27 0 -30 -3 -30 -30 0 -20 -5 -30 -15 -30
-11 0 -15 12 -15 45 l0 45 45 0 c33 0 45 -4 45 -15z"/>
<path d="M210 320 c0 -5 5 -10 10 -10 6 0 10 5 10 10 0 6 -4 10 -10 10 -5 0
-10 -4 -10 -10z"/>
<path d="M721 275 l-23 -25 26 0 c19 0 26 -5 26 -20 0 -24 6 -25 26 -6 19 20
18 26 -5 26 -13 0 -21 8 -23 25 l-3 24 -24 -24z"/>
<path d="M250 270 c0 -15 -7 -20 -26 -20 l-26 0 23 -25 24 -24 3 24 c2 17 10
25 23 25 23 0 24 6 5 26 -20 19 -26 18 -26 -6z"/>
<path d="M310 220 c0 -5 5 -10 10 -10 6 0 10 5 10 10 0 6 -4 10 -10 10 -5 0
-10 -4 -10 -10z"/>
<path d="M350 160 c0 -5 5 -10 10 -10 6 0 10 5 10 10 0 6 -4 10 -10 10 -5 0
-10 -4 -10 -10z"/>
<path d="M122 980 c0 -14 2 -19 5 -12 2 6 2 18 0 25 -3 6 -5 1 -5 -13z"/>
<path d="M872 980 c0 -14 2 -19 5 -12 2 6 2 18 0 25 -3 6 -5 1 -5 -13z"/>
<path d="M920 980 c0 -11 5 -20 10 -20 6 0 10 9 10 20 0 11 -4 20 -10 20 -5 0
-10 -9 -10 -20z"/>
<path d="M0 930 c0 -5 9 -10 20 -10 11 0 20 5 20 10 0 6 -9 10 -20 10 -11 0
-20 -4 -20 -10z"/>
<path d="M960 880 c0 -5 9 -10 20 -10 11 0 20 5 20 10 0 6 -9 10 -20 10 -11 0
-20 -4 -20 -10z"/>
<path d="M7 873 c7 -2 19 -2 26 0 6 3 1 5 -13 5 -14 0 -19 -2 -13 -5z"/>
<path d="M7 123 c7 -2 19 -2 26 0 6 3 1 5 -13 5 -14 0 -19 -2 -13 -5z"/>
<path d="M960 120 c0 -5 9 -10 20 -10 11 0 20 5 20 10 0 6 -9 10 -20 10 -11 0
-20 -4 -20 -10z"/>
<path d="M0 70 c0 -5 9 -10 20 -10 11 0 20 5 20 10 0 6 -9 10 -20 10 -11 0
-20 -4 -20 -10z"/>
<path d="M920 20 c0 -11 5 -20 10 -20 6 0 10 9 10 20 0 11 -4 20 -10 20 -5 0
-10 -9 -10 -20z"/>
</g>
</svg>
