<?xml version="1.0" standalone="no"?>
<!DOCTYPE svg PUBLIC "-//W3C//DTD SVG 20010904//EN"
 "http://www.w3.org/TR/2001/REC-SVG-20010904/DTD/svg10.dtd">
<svg version="1.0" xmlns="http://www.w3.org/2000/svg"
 width="180.000000pt" height="180.000000pt" viewBox="0 0 180.000000 180.000000"
 preserveAspectRatio="xMidYMid meet">
<metadata>
Created by potrace 1.16, written by Peter Selinger 2001-2019
</metadata>
<g transform="translate(0.000000,180.000000) scale(0.100000,-0.100000)"
fill="#000000" stroke="none">
<path d="M809 1412 c-81 -42 -136 -127 -148 -227 -1 -6 -47 -9 -122 -7 l-122
3 7 -168 c3 -92 10 -251 15 -353 5 -102 10 -199 10 -215 1 -18 12 -42 26 -58
l26 -27 399 0 399 0 24 24 c20 20 25 38 31 107 11 130 34 673 29 682 -3 4 -57
7 -121 6 l-116 -1 -11 48 c-15 65 -36 102 -82 146 -76 73 -157 86 -244 40z
m147 -48 c22 -9 47 -23 58 -32 24 -22 53 -79 61 -122 l6 -35 -176 2 c-97 1
-179 3 -181 5 -7 8 29 95 52 126 27 35 87 71 120 72 12 0 39 -7 60 -16z m-238
-211 c24 -19 351 -18 377 1 16 11 21 11 33 0 10 -10 43 -14 124 -14 l110 0 -6
-67 c-4 -38 -12 -192 -19 -343 -13 -294 -16 -309 -67 -335 -45 -23 -697 -22
-743 1 -18 9 -35 22 -39 28 -4 6 -8 48 -8 94 0 46 -4 113 -9 150 -5 37 -12
158 -15 270 l-6 202 101 0 c105 0 138 9 140 38 0 14 2 14 6 2 3 -8 12 -21 21
-27z"/>
<path d="M792 1054 c-65 -33 -100 -110 -85 -184 10 -54 76 -111 162 -140 69
-23 131 -65 131 -87 0 -5 -12 -20 -26 -34 -37 -35 -113 -33 -171 4 -53 33 -78
34 -98 3 -29 -44 -16 -75 44 -109 43 -25 69 -31 131 -35 114 -7 180 21 214 90
21 42 21 129 -1 166 -19 34 -95 87 -138 98 -16 4 -40 13 -54 20 -14 8 -31 14
-37 14 -6 0 -19 9 -29 20 -16 17 -17 23 -5 45 7 13 26 27 42 30 33 8 105 -3
114 -16 3 -5 22 -9 43 -9 33 0 40 4 51 29 26 64 -31 102 -165 108 -71 3 -97 0
-123 -13z m173 -19 c91 -27 113 -47 81 -74 -11 -9 -22 -7 -50 9 -71 39 -186
19 -200 -35 -16 -61 9 -88 118 -129 69 -26 108 -49 141 -81 16 -16 20 -33 20
-82 0 -55 -3 -65 -29 -92 -17 -18 -50 -37 -80 -45 -44 -13 -58 -13 -121 1 -44
9 -83 25 -103 42 -31 25 -32 27 -16 49 16 23 16 23 38 4 80 -74 230 -66 256
14 20 59 -19 107 -110 135 -134 41 -188 102 -169 187 10 46 44 80 99 97 58 18
65 18 125 0z"/>
</g>
</svg>
