<?xml version="1.0" standalone="no"?>
<!DOCTYPE svg PUBLIC "-//W3C//DTD SVG 20010904//EN"
 "http://www.w3.org/TR/2001/REC-SVG-20010904/DTD/svg10.dtd">
<svg version="1.0" xmlns="http://www.w3.org/2000/svg"
 width="128.000000pt" height="128.000000pt" viewBox="0 0 128.000000 128.000000"
 preserveAspectRatio="xMidYMid meet">
<metadata>
Created by potrace 1.16, written by Peter Selinger 2001-2019
</metadata>
<g transform="translate(0.000000,128.000000) scale(0.100000,-0.100000)"
fill="#000000" stroke="none">
<path d="M281 996 c-185 -185 -282 -289 -280 -300 3 -11 99 78 304 284 207
207 294 300 280 300 -13 0 -121 -101 -304 -284z"/>
<path d="M975 980 c205 -206 301 -295 304 -284 4 23 -556 584 -584 584 -14 0
73 -93 280 -300z"/>
<path d="M455 986 c-44 -20 -83 -60 -105 -108 -52 -113 2 -210 143 -259 56
-20 77 -43 77 -88 0 -62 -24 -75 -141 -79 l-99 -4 0 -55 0 -55 108 4 c86 3
115 8 149 26 85 44 124 154 89 247 -20 52 -53 78 -132 105 -73 25 -94 45 -94
86 0 75 32 94 160 94 l90 0 0 50 0 50 -107 0 c-67 -1 -119 -6 -138 -14z m225
-36 l0 -30 -90 0 c-95 0 -142 -14 -154 -45 -3 -9 -6 -40 -6 -69 0 -64 13 -78
94 -106 78 -26 111 -52 131 -102 20 -51 14 -98 -21 -150 -36 -56 -92 -81 -196
-86 l-88 -4 0 35 0 35 99 4 c126 4 141 15 141 99 0 70 -12 84 -99 117 -70 27
-114 67 -131 118 -15 45 7 109 53 155 46 47 82 58 180 59 l87 0 0 -30z"/>
<path d="M540 810 l0 -50 95 0 95 0 0 -240 0 -240 50 0 50 0 0 240 0 240 90 0
90 0 0 50 0 50 -235 0 -235 0 0 -50z m450 0 l0 -30 -90 0 -90 0 0 -240 0 -240
-30 0 -30 0 0 240 0 240 -95 0 -95 0 0 30 0 30 215 0 215 0 0 -30z"/>
<path d="M0 585 c0 -28 561 -588 584 -584 11 3 -78 99 -284 304 -207 207 -300
294 -300 280z"/>
<path d="M975 300 c-207 -207 -294 -300 -280 -300 28 0 588 561 584 584 -3 11
-99 -78 -304 -284z"/>
</g>
</svg>
