<?xml version="1.0" standalone="no"?>
<!DOCTYPE svg PUBLIC "-//W3C//DTD SVG 20010904//EN"
 "http://www.w3.org/TR/2001/REC-SVG-20010904/DTD/svg10.dtd">
<svg version="1.0" xmlns="http://www.w3.org/2000/svg"
 width="192.000000pt" height="192.000000pt" viewBox="0 0 192.000000 192.000000"
 preserveAspectRatio="xMidYMid meet">
<metadata>
Created by potrace 1.16, written by Peter Selinger 2001-2019
</metadata>
<g transform="translate(0.000000,192.000000) scale(0.100000,-0.100000)"
fill="#000000" stroke="none">
<path d="M367 1914 c-4 -4 -7 -31 -7 -60 l0 -53 -57 -3 -58 -3 -3 -57 -3 -58
-48 0 c-50 0 -66 -10 -73 -45 -2 -11 -13 -21 -24 -23 -22 -3 -34 -35 -34 -90
0 -13 -11 -35 -24 -47 l-24 -22 -4 -579 c-1 -319 -1 -629 0 -691 l4 -112 51
-6 c29 -3 376 -5 772 -3 l720 3 3 57 3 57 57 3 c53 3 57 5 60 29 2 20 11 27
47 37 46 12 75 48 75 91 0 14 8 21 27 23 22 2 29 9 33 33 4 21 12 31 27 33 17
3 23 12 28 45 9 63 1 1424 -8 1434 -10 10 -1530 17 -1540 7z m1520 -27 c9 -10
17 -1331 8 -1394 -5 -33 -11 -42 -28 -45 -15 -2 -23 -12 -27 -33 -4 -24 -11
-31 -33 -33 -19 -2 -27 -9 -27 -23 0 -43 -29 -79 -75 -91 -36 -10 -45 -17 -47
-37 -3 -24 -7 -26 -60 -29 l-57 -3 -3 -57 -3 -57 -700 -3 c-385 -2 -723 0
-751 3 l-51 6 -4 122 c-2 67 -2 371 1 676 l5 554 22 15 c15 9 23 25 23 42 0
57 12 89 34 92 11 2 22 12 24 23 7 35 23 45 73 45 l48 0 3 58 3 57 58 3 57 3
0 53 c0 29 3 56 7 60 10 10 1490 3 1500 -7z"/>
<path d="M1802 1856 c3 -16 0 -33 -8 -40 -7 -8 -10 -17 -6 -21 4 -5 1 -5 -5
-1 -7 4 -18 4 -25 0 -13 -8 -312 -6 -340 2 -10 3 -18 1 -18 -4 0 -5 -26 -8
-59 -8 -33 1 -63 -4 -69 -11 -15 -15 55 -19 301 -18 l187 1 0 -608 c0 -335 2
-613 5 -618 3 -5 13 -6 22 -3 11 4 14 2 11 -8 -3 -8 -11 -13 -19 -12 -9 2 -14
-6 -14 -21 0 -15 5 -22 13 -19 7 3 19 0 27 -7 8 -7 15 -9 15 -4 1 5 1 326 1
714 0 532 -3 706 -12 709 -8 2 -10 -5 -7 -23z"/>
<path d="M556 1792 c-2 -1 -22 -4 -46 -7 -44 -4 -58 -10 -47 -22 7 -7 245 -9
365 -4 123 6 67 21 -107 29 -89 4 -164 6 -165 4z"/>
<path d="M381 1744 c0 -11 3 -14 6 -6 3 7 2 16 -1 19 -3 4 -6 -2 -5 -13z"/>
<path d="M1110 1710 c-9 -6 -10 -10 -3 -10 6 0 15 5 18 10 8 12 4 12 -15 0z"/>
<path d="M500 1687 c0 -23 -4 -27 -27 -27 -35 0 -18 -17 22 -22 20 -2 29 1 27
10 -1 7 -4 21 -5 32 -5 31 -17 36 -17 7z"/>
<path d="M1346 1691 c-4 -7 -5 -15 -2 -18 9 -9 19 4 14 18 -4 11 -6 11 -12 0z"/>
<path d="M380 1678 c0 -9 -6 -18 -12 -21 -10 -3 -10 -7 1 -20 9 -12 12 -33 9
-68 -4 -42 -3 -49 11 -47 11 2 15 12 13 28 -5 31 -5 29 -3 61 1 18 8 29 24 34
21 7 21 7 2 12 -11 3 -25 13 -32 22 -11 15 -12 15 -13 -1z"/>
<path d="M220 1590 c0 -27 5 -50 10 -50 6 0 10 7 10 15 0 8 3 15 8 16 31 3 58
11 67 21 7 8 5 9 -7 5 -14 -5 -18 -1 -18 18 0 22 -4 25 -35 25 l-35 0 0 -50z"/>
<path d="M1334 1623 c-9 -15 -41 -16 -313 -16 -190 0 -306 4 -313 11 -7 7 -17
6 -31 -2 -48 -25 -50 -28 -25 -40 17 -8 24 -21 26 -49 4 -46 22 -49 23 -4 1
17 1 35 1 38 -1 7 396 19 473 15 28 -2 74 -4 103 -5 l52 -1 0 -43 0 -43 -245
0 c-226 0 -269 -4 -252 -20 3 -4 115 -7 249 -8 221 -1 243 -3 246 -19 3 -16
-14 -17 -217 -17 -134 0 -221 -4 -221 -10 0 -5 85 -8 219 -7 246 2 231 7 231
-70 0 -64 18 -32 25 45 4 42 13 81 19 85 8 6 8 10 -1 14 -20 7 -17 90 3 101 9
5 14 15 10 21 -4 6 -11 9 -16 6 -5 -3 -11 4 -15 15 -8 24 -17 25 -31 3z"/>
<path d="M605 1590 c-3 -5 -1 -10 4 -10 6 0 11 5 11 10 0 6 -2 10 -4 10 -3 0
-8 -4 -11 -10z"/>
<path d="M1425 1590 c-4 -6 5 -10 19 -10 14 0 26 5 26 10 0 6 -9 10 -19 10
-11 0 -23 -4 -26 -10z"/>
<path d="M259 1566 c-8 -8 3 -106 12 -106 11 0 12 97 0 104 -4 3 -10 4 -12 2z"/>
<path d="M560 1550 c0 -5 5 -10 10 -10 6 0 10 5 10 10 0 6 -4 10 -10 10 -5 0
-10 -4 -10 -10z"/>
<path d="M100 1516 c0 -18 48 -27 79 -14 l26 11 -25 7 c-42 13 -80 11 -80 -4z"/>
<path d="M554 1505 c-3 -14 -10 -25 -15 -25 -6 0 -5 -8 1 -19 5 -11 13 -66 16
-123 l7 -103 -46 3 -45 4 -4 45 c-3 42 10 71 25 56 4 -3 7 -1 7 5 0 7 -7 12
-15 12 -14 0 -20 12 -16 34 1 4 -1 17 -5 28 -11 35 -25 4 -30 -68 -7 -108 -7
-136 1 -177 6 -29 4 -42 -10 -57 -16 -17 -16 -20 -2 -20 8 0 17 -5 19 -10 2
-7 13 -6 30 2 30 14 37 28 14 28 -26 0 -37 69 -13 88 6 5 28 12 47 14 33 3 35
1 37 -27 2 -46 -8 -75 -26 -75 -14 -1 -14 -2 2 -14 20 -15 24 -85 5 -104 -8
-8 -5 -16 13 -30 20 -17 25 -18 34 -5 7 10 24 13 50 11 39 -3 40 -4 46 -45 6
-45 19 -70 19 -37 0 18 9 19 153 20 174 2 217 5 217 16 0 7 -54 11 -192 12
-45 0 -58 4 -58 16 0 11 -2 12 -8 2 -5 -7 -25 -15 -45 -17 -20 -3 -42 -6 -49
-7 -7 -2 -14 7 -16 20 -2 16 2 22 14 22 16 0 16 1 -1 14 -13 9 -36 12 -72 9
-48 -4 -53 -3 -53 15 0 24 30 32 74 20 17 -4 35 -3 41 2 7 6 21 8 31 4 16 -5
16 -4 4 5 -8 6 -45 11 -81 11 l-67 0 -4 43 c-7 60 -4 335 4 342 3 3 21 8 39
10 54 7 60 25 7 25 -41 0 -47 3 -52 25 -4 14 -11 25 -16 25 -5 0 -12 -11 -16
-25z"/>
<path d="M97 1467 c-4 -10 -7 -320 -7 -687 0 -634 3 -701 26 -677 3 3 6 58 6
122 0 123 4 141 10 61 3 -28 10 -52 16 -54 9 -3 12 139 14 560 2 310 2 573 0
586 -4 28 -22 29 -22 0 0 -42 -22 -2 -29 53 -4 38 -9 48 -14 36z m38 -629 c2
-271 -1 -484 -6 -473 -9 24 -12 981 -2 972 3 -4 7 -228 8 -499z"/>
<path d="M797 1421 c-7 -28 -3 -249 5 -256 7 -7 48 -13 96 -14 16 -1 23 -7 21
-18 -3 -34 1 -63 9 -63 4 0 9 17 10 37 2 21 5 40 8 42 11 11 88 5 92 -7 5 -17
22 -15 22 3 0 8 9 15 20 15 11 0 20 4 20 9 0 10 -56 32 -63 24 -3 -2 -53 -6
-110 -7 l-106 -3 3 91 c4 99 -2 166 -14 166 -4 0 -10 -8 -13 -19z"/>
<path d="M202 1290 c0 -14 2 -19 5 -12 2 6 2 18 0 25 -3 6 -5 1 -5 -13z"/>
<path d="M1126 1172 c-3 -5 1 -9 9 -9 8 0 12 4 9 9 -3 4 -7 8 -9 8 -2 0 -6 -4
-9 -8z"/>
<path d="M1219 1076 c-2 -2 -60 -7 -128 -10 -69 -3 -129 -10 -133 -14 -9 -9
114 -22 210 -22 47 0 52 -2 52 -22 0 -13 5 -30 10 -38 7 -11 10 -6 10 21 0 33
3 37 31 43 61 12 69 9 69 -28 0 -56 -8 -66 -52 -66 -23 0 -37 -4 -33 -10 3 -5
21 -10 40 -10 37 0 45 -12 45 -68 1 -28 3 -33 10 -21 5 9 11 31 12 49 1 18 8
34 14 37 9 3 9 11 -2 31 -8 15 -14 47 -14 72 l0 45 -52 1 c-29 0 -60 4 -69 7
-8 4 -17 6 -20 3z"/>
<path d="M201 1024 c0 -11 3 -14 6 -6 3 7 2 16 -1 19 -3 4 -6 -2 -5 -13z"/>
<path d="M1465 950 c3 -5 8 -10 11 -10 2 0 4 5 4 10 0 6 -5 10 -11 10 -5 0 -7
-4 -4 -10z"/>
<path d="M1455 903 c-3 -15 -12 -31 -18 -35 -9 -6 -9 -8 1 -8 6 0 12 -9 12
-20 0 -16 -7 -20 -36 -20 -21 0 -33 -4 -29 -10 3 -5 19 -10 36 -10 l29 0 0
-110 0 -110 -27 -1 c-16 -1 -31 -1 -35 0 -5 0 -8 -4 -8 -10 0 -6 7 -9 15 -5
22 8 65 -11 65 -29 0 -24 13 -18 32 15 10 18 13 32 7 36 -6 3 -9 63 -8 147 1
123 -8 197 -25 197 -2 0 -7 -12 -11 -27z"/>
<path d="M1110 900 c-1 -3 -4 -15 -5 -27 -5 -47 -13 -54 -57 -51 -36 3 -43 7
-48 28 l-6 25 -15 -31 c-13 -26 -14 -34 -3 -49 10 -13 17 -15 26 -8 7 6 31 10
53 9 l40 -1 0 -134 0 -134 -252 -1 -252 -1 -6 23 c-6 26 3 72 16 72 4 0 12 -8
18 -17 9 -17 11 -17 25 2 19 26 3 47 -29 39 -16 -4 -26 0 -34 13 -10 17 -12
17 -21 1 -6 -10 -18 -18 -25 -18 -19 0 -19 -16 -1 -23 23 -9 29 -56 10 -84
-12 -19 -13 -27 -4 -33 23 -14 23 -67 0 -90 l-22 -22 21 -14 c13 -10 21 -26
21 -44 0 -16 5 -32 10 -35 6 -4 10 10 10 33 0 37 2 40 32 44 26 4 575 3 601
-1 4 0 7 -8 7 -16 0 -8 5 -15 10 -15 6 0 10 7 10 15 0 9 12 18 30 22 32 6 48
19 27 21 -38 3 -52 11 -58 33 l-6 24 -11 -26 -10 -26 -306 0 c-274 -1 -307 1
-314 16 -5 9 -8 23 -7 31 1 8 3 22 3 30 2 13 39 15 266 15 232 0 312 7 268 22
-6 3 -9 10 -5 16 4 7 7 68 8 137 l0 125 28 3 c22 3 26 6 17 17 -6 7 -19 11
-30 8 -16 -4 -19 2 -23 38 -2 24 -5 42 -7 39z"/>
<path d="M202 840 c0 -19 2 -27 5 -17 2 9 2 25 0 35 -3 9 -5 1 -5 -18z"/>
<path d="M1221 676 c-1 -56 2 -97 9 -101 7 -4 10 27 10 94 0 56 -4 101 -9 101
-5 0 -9 -42 -10 -94z"/>
<path d="M203 600 c0 -41 2 -58 4 -37 2 20 2 54 0 75 -2 20 -4 3 -4 -38z"/>
<path d="M1347 663 c-4 -3 -7 -30 -7 -59 0 -68 -7 -84 -35 -84 -13 0 -27 -5
-30 -10 -4 -6 -3 -10 2 -9 37 6 53 -2 53 -28 0 -38 10 -73 21 -73 5 0 9 6 9
14 0 7 10 21 23 29 21 15 21 16 2 16 -17 1 -20 9 -22 59 -3 64 -8 152 -9 152
0 0 -4 -3 -7 -7z"/>
<path d="M437 644 c-3 -4 -1 -16 5 -28 6 -11 10 -22 9 -24 -2 -2 0 -6 3 -9 3
-4 6 3 6 15 0 14 6 22 18 22 15 1 15 2 -2 15 -22 16 -30 18 -39 9z"/>
<path d="M437 539 c-3 -12 -3 -43 0 -70 4 -38 2 -54 -11 -68 -15 -16 -15 -19
-1 -24 8 -4 15 -13 15 -22 0 -22 17 -18 23 5 3 11 11 19 19 18 7 -2 13 4 13
12 0 8 -7 15 -15 15 -22 0 -27 83 -6 91 20 8 21 24 1 24 -8 0 -15 9 -15 20 0
27 -16 26 -23 -1z"/>
<path d="M1643 519 c-11 -11 -6 -56 8 -65 5 -3 9 6 9 20 0 13 5 26 11 28 7 2
6 8 -3 16 -10 8 -18 8 -25 1z"/>
<path d="M1145 510 c-3 -5 1 -10 9 -10 9 0 16 5 16 10 0 6 -4 10 -9 10 -6 0
-13 -4 -16 -10z"/>
<path d="M1430 450 c0 -5 7 -10 16 -10 8 0 12 5 9 10 -3 6 -10 10 -16 10 -5 0
-9 -4 -9 -10z"/>
<path d="M1640 426 c0 -7 -10 -21 -22 -29 -19 -13 -20 -16 -5 -16 10 -1 17 -9
17 -20 0 -13 10 -20 37 -24 20 -4 38 -5 39 -4 0 1 -1 19 -4 40 -3 29 -8 37
-19 33 -9 -4 -17 1 -20 14 -6 23 -23 27 -23 6z"/>
<path d="M1518 342 c-3 -57 -6 -67 -20 -64 -10 2 -18 -2 -18 -8 0 -5 9 -10 20
-10 18 0 25 -10 21 -32 0 -5 5 -8 12 -8 17 0 17 178 0 184 -9 4 -13 -15 -15
-62z"/>
<path d="M1725 340 c-3 -5 1 -10 9 -10 9 0 16 5 16 10 0 6 -4 10 -9 10 -6 0
-13 -4 -16 -10z"/>
<path d="M1626 293 c-4 -9 -2 -21 4 -27 7 -7 10 -2 10 17 0 31 -5 34 -14 10z"/>
<path d="M293 222 c-165 -4 -142 -22 30 -23 267 -1 320 2 306 15 -6 7 -208 11
-336 8z"/>
<path d="M1243 220 c-127 -5 -180 -20 -77 -21 198 -2 258 1 268 12 8 9 7 10
-7 6 -9 -4 -27 -3 -40 1 -12 4 -77 5 -144 2z"/>
<path d="M1345 140 c3 -5 8 -10 11 -10 2 0 4 5 4 10 0 6 -5 10 -11 10 -5 0 -7
-4 -4 -10z"/>
</g>
</svg>
