<?xml version="1.0" standalone="no"?>
<!DOCTYPE svg PUBLIC "-//W3C//DTD SVG 20010904//EN"
 "http://www.w3.org/TR/2001/REC-SVG-20010904/DTD/svg10.dtd">
<svg version="1.0" xmlns="http://www.w3.org/2000/svg"
 width="192.000000pt" height="192.000000pt" viewBox="0 0 192.000000 192.000000"
 preserveAspectRatio="xMidYMid meet">
<metadata>
Created by potrace 1.16, written by Peter Selinger 2001-2019
</metadata>
<g transform="translate(0.000000,192.000000) scale(0.100000,-0.100000)"
fill="#000000" stroke="none">
<path d="M770 1795 c0 -12 -13 -15 -60 -15 -47 0 -60 -3 -60 -15 0 -10 -10
-15 -30 -15 -20 0 -30 -5 -30 -15 0 -10 -10 -15 -30 -15 -20 0 -30 -5 -30 -15
0 -8 -7 -15 -15 -15 -8 0 -15 -7 -15 -15 0 -8 -7 -15 -15 -15 -8 0 -15 -7 -15
-15 0 -8 -7 -15 -15 -15 -8 0 -15 -7 -15 -15 0 -8 -7 -15 -15 -15 -10 0 -15
-10 -15 -30 0 -20 -5 -30 -15 -30 -12 0 -15 -13 -15 -60 0 -47 -3 -60 -15 -60
-13 0 -15 -23 -15 -145 0 -122 2 -145 15 -145 11 0 15 -12 15 -45 0 -33 4 -45
15 -45 10 0 15 -10 15 -30 0 -20 5 -30 15 -30 8 0 15 -7 15 -15 0 -8 7 -15 15
-15 8 0 15 -7 15 -15 0 -8 7 -15 15 -15 8 0 15 -7 15 -15 0 -8 7 -15 15 -15 8
0 15 -7 15 -15 0 -10 10 -15 30 -15 20 0 30 -5 30 -15 0 -10 10 -15 30 -15 20
0 30 -5 30 -15 0 -10 10 -15 30 -15 20 0 30 -5 30 -15 0 -11 12 -15 45 -15 33
0 45 -4 45 -15 0 -11 12 -15 45 -15 33 0 45 -4 45 -15 0 -10 10 -15 30 -15 20
0 30 -5 30 -15 0 -10 10 -15 30 -15 20 0 30 -5 30 -15 0 -8 7 -15 15 -15 10 0
15 -11 15 -35 0 -24 -5 -35 -15 -35 -8 0 -15 -7 -15 -15 0 -10 -10 -15 -30
-15 -20 0 -30 -5 -30 -15 0 -12 -17 -15 -95 -15 -78 0 -95 3 -95 15 0 12 -13
15 -60 15 -47 0 -60 3 -60 15 0 10 -10 15 -30 15 -20 0 -30 5 -30 15 0 12 -16
15 -85 15 l-85 0 0 -60 c0 -47 -3 -60 -15 -60 -13 0 -15 -24 -15 -160 0 -136
2 -160 15 -160 8 0 15 -7 15 -15 0 -12 13 -15 60 -15 47 0 60 -3 60 -15 0 -13
41 -15 310 -15 269 0 310 2 310 15 0 12 13 15 60 15 47 0 60 3 60 15 0 10 10
15 30 15 20 0 30 5 30 15 0 10 10 15 30 15 20 0 30 5 30 15 0 8 7 15 15 15 8
0 15 7 15 15 0 8 7 15 15 15 8 0 15 7 15 15 0 8 7 15 15 15 10 0 15 10 15 30
0 20 5 30 15 30 10 0 15 10 15 30 0 20 5 30 15 30 12 0 15 13 15 60 0 47 3 60
15 60 13 0 15 21 15 130 0 109 -2 130 -15 130 -12 0 -15 13 -15 60 0 47 -3 60
-15 60 -10 0 -15 10 -15 30 0 20 -5 30 -15 30 -8 0 -15 7 -15 15 0 8 -7 15
-15 15 -8 0 -15 7 -15 15 0 8 -7 15 -15 15 -8 0 -15 7 -15 15 0 8 -7 15 -15
15 -8 0 -15 7 -15 15 0 8 -7 15 -15 15 -8 0 -15 7 -15 15 0 10 -10 15 -30 15
-20 0 -30 5 -30 15 0 11 -12 15 -45 15 -33 0 -45 4 -45 15 0 11 -12 15 -45 15
-33 0 -45 4 -45 15 0 11 -12 15 -45 15 -33 0 -45 4 -45 15 0 11 -12 15 -45 15
-33 0 -45 4 -45 15 0 8 -7 15 -15 15 -8 0 -15 7 -15 15 0 8 -7 15 -15 15 -8 0
-15 9 -15 20 0 11 7 20 15 20 8 0 15 7 15 15 0 11 12 15 45 15 33 0 45 4 45
15 0 12 16 15 80 15 64 0 80 -3 80 -15 0 -12 13 -15 60 -15 47 0 60 -3 60 -15
0 -12 16 -15 85 -15 l85 0 0 45 c0 33 4 45 15 45 13 0 15 26 15 175 l0 175
-60 0 c-47 0 -60 3 -60 15 0 13 -39 15 -295 15 -256 0 -295 -2 -295 -15z m570
-20 c0 -12 13 -15 60 -15 l60 0 0 -155 c0 -131 -2 -155 -15 -155 -11 0 -15
-12 -15 -45 l0 -45 -65 0 c-51 0 -65 3 -65 15 0 12 -13 15 -60 15 -47 0 -60 3
-60 15 0 12 -18 15 -100 15 -82 0 -100 -3 -100 -15 0 -11 -12 -15 -45 -15 -33
0 -45 -4 -45 -15 0 -8 -7 -15 -15 -15 -11 0 -15 -11 -15 -40 0 -29 4 -40 15
-40 8 0 15 -7 15 -15 0 -8 7 -15 15 -15 8 0 15 -7 15 -15 0 -11 12 -15 45 -15
33 0 45 -4 45 -15 0 -11 12 -15 45 -15 33 0 45 -4 45 -15 0 -11 12 -15 45 -15
33 0 45 -4 45 -15 0 -11 12 -15 45 -15 33 0 45 -4 45 -15 0 -10 10 -15 30 -15
20 0 30 -5 30 -15 0 -8 7 -15 15 -15 8 0 15 -7 15 -15 0 -8 7 -15 15 -15 8 0
15 -7 15 -15 0 -8 7 -15 15 -15 8 0 15 -7 15 -15 0 -8 7 -15 15 -15 8 0 15 -7
15 -15 0 -8 7 -15 15 -15 10 0 15 -10 15 -30 0 -20 5 -30 15 -30 12 0 15 -13
15 -60 0 -47 3 -60 15 -60 12 0 15 -19 15 -110 0 -91 -3 -110 -15 -110 -12 0
-15 -13 -15 -60 0 -47 -3 -60 -15 -60 -10 0 -15 -10 -15 -30 0 -20 -5 -30 -15
-30 -10 0 -15 -10 -15 -30 0 -20 -5 -30 -15 -30 -8 0 -15 -7 -15 -15 0 -8 -7
-15 -15 -15 -8 0 -15 -7 -15 -15 0 -8 -7 -15 -15 -15 -8 0 -15 -7 -15 -15 0
-10 -10 -15 -30 -15 -20 0 -30 -5 -30 -15 0 -10 -10 -15 -30 -15 -20 0 -30 -5
-30 -15 0 -12 -13 -15 -60 -15 -47 0 -60 -3 -60 -15 0 -13 -39 -15 -290 -15
-251 0 -290 2 -290 15 0 12 -13 15 -60 15 -47 0 -60 3 -60 15 0 8 -7 15 -15
15 -13 0 -15 22 -15 140 0 118 2 140 15 140 12 0 15 13 15 60 l0 60 65 0 c51
0 65 -3 65 -15 0 -10 10 -15 30 -15 20 0 30 -5 30 -15 0 -12 13 -15 60 -15 47
0 60 -3 60 -15 0 -12 19 -15 115 -15 96 0 115 3 115 15 0 10 10 15 30 15 20 0
30 5 30 15 0 8 7 15 15 15 12 0 15 13 15 55 0 42 -3 55 -15 55 -8 0 -15 7 -15
15 0 10 -10 15 -30 15 -20 0 -30 5 -30 15 0 10 -10 15 -30 15 -20 0 -30 5 -30
15 0 11 -12 15 -45 15 -33 0 -45 4 -45 15 0 11 -12 15 -45 15 -33 0 -45 4 -45
15 0 10 -10 15 -30 15 -20 0 -30 5 -30 15 0 10 -10 15 -30 15 -20 0 -30 5 -30
15 0 10 -10 15 -30 15 -20 0 -30 5 -30 15 0 8 -7 15 -15 15 -8 0 -15 7 -15 15
0 8 -7 15 -15 15 -8 0 -15 7 -15 15 0 8 -7 15 -15 15 -8 0 -15 7 -15 15 0 8
-7 15 -15 15 -10 0 -15 10 -15 30 0 20 -5 30 -15 30 -11 0 -15 12 -15 45 0 33
-4 45 -15 45 -13 0 -15 21 -15 125 0 104 2 125 15 125 12 0 15 13 15 60 0 47
3 60 15 60 10 0 15 10 15 30 0 20 5 30 15 30 8 0 15 7 15 15 0 8 7 15 15 15 8
0 15 7 15 15 0 8 7 15 15 15 8 0 15 7 15 15 0 8 7 15 15 15 8 0 15 7 15 15 0
10 10 15 30 15 20 0 30 5 30 15 0 10 10 15 30 15 20 0 30 5 30 15 0 12 13 15
60 15 47 0 60 3 60 15 0 13 37 15 275 15 238 0 275 -2 275 -15z"/>
</g>
</svg>
