<?xml version="1.0" standalone="no"?>
<!DOCTYPE svg PUBLIC "-//W3C//DTD SVG 20010904//EN"
 "http://www.w3.org/TR/2001/REC-SVG-20010904/DTD/svg10.dtd">
<svg version="1.0" xmlns="http://www.w3.org/2000/svg"
 width="100.000000pt" height="100.000000pt" viewBox="0 0 100.000000 100.000000"
 preserveAspectRatio="xMidYMid meet">
<metadata>
Created by potrace 1.16, written by Peter Selinger 2001-2019
</metadata>
<g transform="translate(0.000000,100.000000) scale(0.100000,-0.100000)"
fill="#000000" stroke="none">
<path d="M230 980 c0 -18 -7 -20 -60 -20 l-60 0 0 -365 0 -365 30 0 c27 0 30
-3 30 -30 0 -27 3 -30 30 -30 27 0 30 -3 30 -30 0 -27 3 -30 30 -30 28 0 30
-3 30 -35 l0 -35 65 0 c58 0 65 -2 65 -20 0 -11 5 -20 10 -20 6 0 10 13 10 30
l0 30 60 0 60 0 0 -30 c0 -17 5 -30 10 -30 6 0 10 9 10 20 0 18 7 20 65 20
l65 0 0 35 c0 32 2 35 30 35 27 0 30 3 30 30 0 27 3 30 30 30 27 0 30 3 30 30
0 27 3 30 30 30 l30 0 0 365 0 365 -60 0 c-53 0 -60 2 -60 20 0 11 -4 20 -10
20 -5 0 -10 -13 -10 -30 l0 -30 60 0 60 0 0 -345 0 -345 -30 0 c-27 0 -30 -3
-30 -30 0 -27 -3 -30 -30 -30 -27 0 -30 -3 -30 -30 0 -27 -3 -30 -30 -30 -28
0 -30 -3 -30 -35 l0 -35 -65 0 -65 0 0 65 c0 62 1 65 24 65 19 0 23 -4 19 -20
-3 -11 -12 -20 -19 -20 -8 0 -14 -4 -14 -10 0 -5 11 -10 25 -10 21 0 25 5 25
30 0 28 3 30 35 30 32 0 35 2 35 30 0 27 3 30 30 30 27 0 30 3 30 30 0 27 3
30 30 30 l30 0 0 125 0 125 -151 0 c-97 0 -148 -4 -144 -10 3 -5 12 -10 20
-10 7 0 16 -6 18 -12 4 -10 6 -10 6 0 1 17 127 17 135 0 5 -10 7 -10 12 0 9
19 44 15 44 -5 1 -17 1 -17 14 -1 17 23 26 23 26 -2 0 -19 -7 -20 -175 -20
l-175 0 0 30 c0 27 -3 30 -31 30 -17 0 -28 -4 -24 -10 3 -5 13 -10 21 -10 8 0
14 -4 14 -10 0 -5 -11 -10 -25 -10 -24 0 -25 2 -25 75 0 73 1 75 25 75 14 0
25 -4 25 -10 0 -5 -7 -10 -15 -10 -8 0 -15 -4 -15 -10 0 -5 7 -10 15 -10 9 0
15 -9 15 -24 0 -14 5 -28 10 -31 6 -3 10 5 10 18 0 20 4 24 19 20 23 -6 35
-53 15 -53 -19 0 -18 -7 6 -32 l20 -22 0 52 c0 44 3 52 19 52 10 0 22 -10 26
-22 l8 -23 4 23 c5 25 43 32 43 7 0 -8 5 -15 10 -15 6 0 10 7 10 15 0 25 46
19 55 -7 l8 -23 4 23 c5 25 43 32 43 7 0 -8 5 -15 10 -15 6 0 10 11 10 25 l0
25 -155 0 -155 0 0 60 0 60 185 0 185 0 0 -90 c0 -53 4 -90 10 -90 6 0 10 13
10 29 0 16 6 32 13 35 10 5 10 7 0 12 -7 3 -13 14 -13 24 0 10 6 21 13 23 10
4 10 6 0 6 -7 1 -13 12 -13 26 0 14 6 25 13 26 6 0 2 5 -10 11 -19 9 -23 19
-23 54 0 37 2 42 20 37 11 -3 20 0 20 6 0 8 -70 11 -240 11 l-240 0 0 -27 c1
-25 2 -26 14 -10 19 24 56 23 56 -3 0 -19 -7 -20 -95 -20 l-95 0 0 -30 c0 -27
-3 -30 -30 -30 l-30 0 0 -95 0 -95 30 0 c25 0 30 -4 30 -24 0 -22 -3 -23 -50
-18 -33 3 -50 1 -50 -7 0 -6 5 -11 10 -11 15 0 12 -57 -2 -64 -10 -5 -10 -7 0
-12 16 -7 16 -41 0 -47 -10 -4 -10 -6 0 -6 14 -1 17 -41 2 -41 -5 0 -10 -4
-10 -10 0 -5 9 -10 20 -10 16 0 20 -7 20 -30 0 -27 -3 -30 -30 -30 l-30 0 0
345 0 345 60 0 60 0 0 30 c0 17 -4 30 -10 30 -5 0 -10 -9 -10 -20z m500 -140
c0 -6 -52 -10 -135 -10 -83 0 -135 4 -135 10 0 6 52 10 135 10 83 0 135 -4
135 -10z m60 0 c0 -5 -9 -10 -20 -10 -11 0 -20 5 -20 10 0 6 9 10 20 10 11 0
20 -4 20 -10z m-307 -50 c-3 -11 -14 -20 -24 -20 -12 0 -19 7 -19 20 0 14 7
20 24 20 19 0 23 -4 19 -20z m267 -5 c0 -28 -12 -32 -34 -10 -18 18 -26 19
-26 3 0 -9 -20 -13 -65 -13 -45 0 -65 4 -65 13 0 16 -8 15 -26 -3 -22 -22 -34
-18 -34 10 l0 25 125 0 125 0 0 -25z m50 21 c0 -12 -13 -36 -20 -36 -4 0 -10
9 -13 20 -4 15 0 20 14 20 10 0 19 -2 19 -4z m-490 -36 c0 -13 -7 -20 -20 -20
-13 0 -20 7 -20 20 0 13 7 20 20 20 13 0 20 -7 20 -20z m40 10 c0 -5 -4 -10
-10 -10 -5 0 -10 5 -10 10 0 6 5 10 10 10 6 0 10 -4 10 -10z m70 1 c0 -5 -11
-11 -25 -13 -17 -4 -25 -1 -25 8 0 8 11 14 25 14 14 0 25 -4 25 -9z m-70 -130
c0 -55 3 -106 6 -115 5 -13 -2 -16 -40 -16 -42 0 -46 2 -46 24 0 14 -4 28 -10
31 -5 3 -10 40 -10 81 0 73 0 74 26 74 21 0 25 -4 21 -20 -3 -11 -1 -20 4 -20
5 0 9 14 9 30 0 23 4 30 20 30 19 0 20 -7 20 -99z m75 69 c0 -26 -4 -30 -27
-30 -24 0 -28 4 -28 30 0 26 4 30 28 30 23 0 27 -4 27 -30z m-195 -5 c0 -8 -4
-15 -10 -15 -5 0 -10 7 -10 15 0 8 5 15 10 15 6 0 10 -7 10 -15z m6 -55 c1
-19 -4 -30 -12 -30 -9 0 -14 11 -14 30 0 40 25 40 26 0z m-6 -65 c0 -8 -4 -15
-10 -15 -5 0 -10 7 -10 15 0 8 5 15 10 15 6 0 10 -7 10 -15z m140 -119 c0 -19
-4 -23 -20 -19 -11 3 -20 9 -20 14 0 5 -4 9 -10 9 -5 0 -10 -9 -10 -20 0 -19
7 -20 125 -20 l125 0 0 -30 c0 -27 3 -30 30 -30 28 0 30 -3 30 -35 0 -32 -2
-35 -30 -35 -27 0 -30 -3 -30 -30 l0 -30 -155 0 -155 0 0 24 c0 19 4 23 20 19
11 -3 20 -9 20 -14 0 -5 5 -9 10 -9 6 0 10 6 10 14 0 9 7 12 20 9 11 -3 20 -9
20 -14 0 -5 5 -9 10 -9 6 0 10 6 10 13 0 8 20 12 65 12 45 0 65 -4 65 -12 0
-7 3 -13 6 -13 7 0 34 27 34 34 0 3 -79 6 -175 6 l-175 0 0 95 0 95 90 0 c88
0 90 0 90 -24z m70 4 c0 -14 -7 -20 -24 -20 -15 0 -26 7 -29 20 -4 17 0 20 24
20 22 0 29 -5 29 -20z m110 -11 c0 -5 -11 -9 -25 -9 -14 0 -25 6 -25 14 0 9 8
12 25 8 14 -2 25 -8 25 -13z m140 -4 c0 -22 -4 -25 -35 -25 -28 0 -35 -4 -35
-20 0 -13 -7 -20 -20 -20 -13 0 -20 7 -20 20 0 11 7 20 16 20 8 0 12 5 9 10
-3 6 -15 10 -26 10 -10 0 -19 4 -19 10 0 5 28 11 63 13 34 2 63 4 65 5 1 1 2
-9 2 -23z m60 -30 c0 -54 0 -55 -30 -55 -27 0 -30 -3 -30 -31 0 -17 4 -28 10
-24 6 3 10 12 10 19 0 8 9 16 20 19 13 3 20 0 20 -10 0 -19 -24 -43 -44 -43
-9 0 -16 -8 -16 -20 0 -15 -7 -20 -25 -20 -23 0 -25 3 -25 50 0 41 3 50 18 51
16 1 16 2 0 6 -26 7 -23 43 3 43 24 0 49 22 49 43 0 14 13 24 33 26 4 1 7 -24
7 -54z m-270 35 c0 -5 -4 -10 -10 -10 -5 0 -10 5 -10 10 0 6 5 10 10 10 6 0
10 -4 10 -10z m310 -40 c0 -33 -4 -50 -12 -50 -9 0 -12 15 -10 50 5 65 22 65
22 0z m0 -80 c0 -11 -7 -20 -15 -20 -15 0 -21 21 -8 33 12 13 23 7 23 -13z
m-170 -75 c0 -20 -5 -25 -24 -25 -19 0 -23 4 -19 19 3 11 12 22 22 24 9 3 17
5 19 6 1 0 2 -10 2 -24z m-390 5 c0 -5 -4 -10 -10 -10 -5 0 -10 5 -10 10 0 6
5 10 10 10 6 0 10 -4 10 -10z m500 0 c0 -5 -4 -10 -10 -10 -5 0 -10 5 -10 10
0 6 5 10 10 10 6 0 10 -4 10 -10z m-480 -60 c0 -27 -3 -30 -30 -30 -27 0 -30
3 -30 30 0 27 3 30 30 30 27 0 30 -3 30 -30z m420 10 c0 -15 -7 -20 -25 -20
-18 0 -25 5 -25 20 0 15 7 20 25 20 18 0 25 -5 25 -20z m-360 -14 c0 -9 -7
-12 -20 -9 -11 3 -20 9 -20 14 0 5 9 9 20 9 11 0 20 -6 20 -14z m121 2 c0 -10
2 -10 6 0 3 8 26 12 65 12 51 0 59 -2 56 -17 -2 -11 -14 -19 -31 -21 -23 -3
-27 -8 -27 -33 0 -27 -3 -30 -27 -27 -22 2 -29 9 -31 31 -3 24 -8 27 -38 27
-19 0 -34 5 -34 10 0 6 -9 10 -20 10 -11 0 -20 5 -20 10 0 15 100 13 101 -2z
m169 2 c0 -5 -4 -10 -10 -10 -5 0 -10 5 -10 10 0 6 5 10 10 10 6 0 10 -4 10
-10z m-290 -60 c0 -27 -3 -30 -30 -30 -27 0 -30 3 -30 30 0 27 3 30 30 30 27
0 30 -3 30 -30z m60 10 c0 -13 -7 -20 -20 -20 -13 0 -20 7 -20 20 0 13 7 20
20 20 13 0 20 -7 20 -20z m50 -10 c0 -5 -7 -10 -15 -10 -8 0 -15 5 -15 10 0 6
7 10 15 10 8 0 15 -4 15 -10z m120 0 c0 -5 -4 -10 -10 -10 -5 0 -10 5 -10 10
0 6 5 10 10 10 6 0 10 -4 10 -10z m-100 -65 l0 -35 -65 0 -65 0 0 35 0 35 65
0 65 0 0 -35z m100 10 c0 -18 -5 -25 -20 -25 -15 0 -20 7 -20 25 0 18 5 25 20
25 15 0 20 -7 20 -25z m-60 -10 c0 -8 -4 -15 -10 -15 -5 0 -10 7 -10 15 0 8 5
15 10 15 6 0 10 -7 10 -15z"/>
<path d="M219 431 c7 -5 17 -15 22 -22 6 -10 9 -8 9 9 0 16 -6 22 -22 22 -17
0 -19 -3 -9 -9z"/>
<path d="M440 400 c0 -13 7 -20 20 -20 24 0 25 6 6 26 -20 19 -26 18 -26 -6z"/>
<path d="M500 400 c0 -15 7 -20 27 -20 l27 0 -22 20 c-12 11 -24 20 -27 20 -3
0 -5 -9 -5 -20z"/>
<path d="M210 370 c0 -5 5 -10 10 -10 6 0 10 -7 10 -15 0 -8 5 -15 10 -15 6 0
10 11 10 25 0 18 -5 25 -20 25 -11 0 -20 -4 -20 -10z"/>
<path d="M560 345 c0 -8 5 -15 10 -15 6 0 10 7 10 15 0 8 -4 15 -10 15 -5 0
-10 -7 -10 -15z"/>
<path d="M370 101 c0 -12 5 -21 10 -21 6 0 10 6 10 14 0 8 -4 18 -10 21 -5 3
-10 -3 -10 -14z"/>
<path d="M310 980 c0 -11 5 -20 10 -20 6 0 10 9 10 20 0 11 -4 20 -10 20 -5 0
-10 -9 -10 -20z"/>
<path d="M370 980 c0 -11 5 -20 10 -20 6 0 10 9 10 20 0 11 -4 20 -10 20 -5 0
-10 -9 -10 -20z"/>
<path d="M440 980 c0 -11 5 -20 10 -20 6 0 10 9 10 20 0 11 -4 20 -10 20 -5 0
-10 -9 -10 -20z"/>
<path d="M540 980 c0 -11 5 -20 10 -20 6 0 10 9 10 20 0 11 -4 20 -10 20 -5 0
-10 -9 -10 -20z"/>
<path d="M600 980 c0 -11 5 -20 10 -20 6 0 10 9 10 20 0 11 -4 20 -10 20 -5 0
-10 -9 -10 -20z"/>
<path d="M682 980 c0 -14 2 -19 5 -12 2 6 2 18 0 25 -3 6 -5 1 -5 -13z"/>
<path d="M254 915 c-4 -14 -3 -29 0 -33 4 -3 9 4 13 16 7 29 40 29 46 0 l4
-23 8 23 c6 19 14 22 55 22 38 0 50 -4 53 -17 4 -17 5 -17 6 0 1 14 10 17 51
17 38 0 50 -4 50 -15 0 -8 5 -15 10 -15 6 0 10 8 10 18 0 15 8 17 65 14 48 -3
65 -7 65 -18 0 -8 5 -14 10 -14 6 0 10 7 10 15 0 8 5 15 10 15 6 0 10 -7 10
-15 0 -8 5 -15 10 -15 11 0 13 11 4 34 -5 14 -36 16 -245 16 l-239 0 -6 -25z"/>
<path d="M190 899 c0 -11 5 -17 10 -14 6 3 10 13 10 21 0 8 -4 14 -10 14 -5 0
-10 -9 -10 -21z"/>
<path d="M790 905 c0 -8 5 -15 10 -15 6 0 10 7 10 15 0 8 -4 15 -10 15 -5 0
-10 -7 -10 -15z"/>
<path d="M150 860 c0 -5 22 -10 49 -10 30 0 51 -5 54 -12 4 -10 6 -10 6 0 1 6
7 12 15 12 8 0 18 5 21 10 4 6 -22 10 -69 10 -44 0 -76 -4 -76 -10z"/>
<path d="M310 850 c0 -24 6 -25 26 -6 19 20 18 26 -6 26 -13 0 -20 -7 -20 -20z"/>
<path d="M190 790 c0 -24 6 -25 26 -6 19 20 18 26 -6 26 -13 0 -20 -7 -20 -20z"/>
<path d="M830 800 c0 -5 5 -10 10 -10 6 0 10 5 10 10 0 6 -4 10 -10 10 -5 0
-10 -4 -10 -10z"/>
<path d="M150 740 c0 -5 5 -10 10 -10 6 0 10 5 10 10 0 6 -4 10 -10 10 -5 0
-10 -4 -10 -10z"/>
<path d="M750 710 c0 -11 4 -20 9 -20 5 0 7 9 4 20 -3 11 -7 20 -9 20 -2 0 -4
-9 -4 -20z"/>
<path d="M150 680 c0 -5 5 -10 10 -10 6 0 10 5 10 10 0 6 -4 10 -10 10 -5 0
-10 -4 -10 -10z"/>
<path d="M460 677 c8 -7 21 -19 28 -27 10 -12 12 -9 12 13 0 23 -4 27 -27 27
-24 -1 -26 -3 -13 -13z"/>
<path d="M528 670 c12 -11 24 -20 27 -20 3 0 5 9 5 20 0 15 -7 20 -27 20 l-27
0 22 -20z"/>
<path d="M150 640 c0 -5 5 -10 10 -10 6 0 10 5 10 10 0 6 -4 10 -10 10 -5 0
-10 -4 -10 -10z"/>
<path d="M770 620 c0 -5 5 -10 10 -10 6 0 10 5 10 10 0 6 -4 10 -10 10 -5 0
-10 -4 -10 -10z"/>
<path d="M150 570 c0 -5 5 -10 10 -10 6 0 10 5 10 10 0 6 -4 10 -10 10 -5 0
-10 -4 -10 -10z"/>
<path d="M825 550 c3 -5 10 -10 16 -10 5 0 9 5 9 10 0 6 -7 10 -16 10 -8 0
-12 -4 -9 -10z"/>
<path d="M830 490 c0 -5 5 -10 10 -10 6 0 10 5 10 10 0 6 -4 10 -10 10 -5 0
-10 -4 -10 -10z"/>
<path d="M830 390 c0 -5 5 -10 10 -10 6 0 10 5 10 10 0 6 -4 10 -10 10 -5 0
-10 -4 -10 -10z"/>
<path d="M825 320 c-3 -5 1 -10 9 -10 9 0 16 5 16 10 0 6 -4 10 -9 10 -6 0
-13 -4 -16 -10z"/>
<path d="M775 268 l-20 -20 25 4 c14 2 26 11 28 21 4 22 -8 21 -33 -5z"/>
<path d="M710 200 c0 -5 5 -10 10 -10 6 0 10 5 10 10 0 6 -4 10 -10 10 -5 0
-10 -4 -10 -10z"/>
<path d="M605 107 c-4 -10 -5 -21 -1 -24 10 -10 18 4 13 24 -4 17 -4 17 -12 0z"/>
</g>
</svg>
