<?xml version="1.0" standalone="no"?>
<!DOCTYPE svg PUBLIC "-//W3C//DTD SVG 20010904//EN"
 "http://www.w3.org/TR/2001/REC-SVG-20010904/DTD/svg10.dtd">
<svg version="1.0" xmlns="http://www.w3.org/2000/svg"
 width="100.000000pt" height="100.000000pt" viewBox="0 0 100.000000 100.000000"
 preserveAspectRatio="xMidYMid meet">
<metadata>
Created by potrace 1.16, written by Peter Selinger 2001-2019
</metadata>
<g transform="translate(0.000000,100.000000) scale(0.100000,-0.100000)"
fill="#000000" stroke="none">
<path d="M110 500 c0 -327 3 -500 10 -500 7 0 10 173 10 500 0 327 -3 500 -10
500 -7 0 -10 -173 -10 -500z"/>
<path d="M870 500 c0 -327 3 -500 10 -500 7 0 10 173 10 500 0 327 -3 500 -10
500 -7 0 -10 -173 -10 -500z"/>
<path d="M370 905 c0 -32 -2 -35 -30 -35 -27 0 -30 -3 -30 -30 0 -27 -3 -30
-30 -30 l-30 0 0 -125 0 -125 30 0 c27 0 30 -3 30 -30 0 -27 3 -30 30 -30 27
0 30 -3 30 -30 l0 -30 125 0 125 0 0 -65 0 -65 -185 0 -185 0 0 -90 0 -90 220
0 220 0 0 30 c0 27 3 30 30 30 27 0 30 3 30 30 0 27 3 30 30 30 l30 0 0 125 0
125 -30 0 c-27 0 -30 3 -30 30 0 27 -3 30 -30 30 -28 0 -30 3 -30 35 l0 35
-125 0 -125 0 0 60 0 60 155 0 155 0 0 95 0 95 -190 0 -190 0 0 -35z m360 -60
l0 -75 -115 0 c-108 0 -115 1 -115 20 0 16 -7 20 -30 20 -23 0 -30 -4 -30 -20
0 -11 -4 -20 -10 -20 -6 0 -10 -33 -10 -80 l0 -80 125 0 125 0 0 -35 c0 -32 2
-35 30 -35 27 0 30 -3 30 -30 0 -27 3 -30 30 -30 l30 0 0 -105 0 -105 -30 0
c-27 0 -30 -3 -30 -30 0 -27 -3 -30 -30 -30 -27 0 -30 -3 -30 -30 0 -30 -1
-30 -55 -30 -48 0 -55 2 -55 20 0 19 -7 20 -95 20 -88 0 -95 -1 -95 -20 0 -17
-7 -20 -50 -20 l-50 0 0 70 0 70 185 0 185 0 0 85 0 85 -40 0 c-33 0 -40 3
-40 20 0 16 -7 20 -30 20 -23 0 -30 -4 -30 -20 0 -18 -7 -20 -55 -20 -54 0
-55 0 -55 30 0 27 -3 30 -30 30 -27 0 -30 3 -30 30 0 27 -3 30 -30 30 l-30 0
0 105 0 105 30 0 c27 0 30 3 30 30 0 27 3 30 30 30 28 0 30 3 30 35 l0 35 170
0 170 0 0 -75z m-240 -60 c0 -8 -9 -15 -20 -15 -11 0 -20 7 -20 15 0 8 9 15
20 15 11 0 20 -7 20 -15z m50 -315 c0 -5 -4 -10 -10 -10 -5 0 -10 5 -10 10 0
6 5 10 10 10 6 0 10 -4 10 -10z m-7 -299 c4 -1 7 -5 7 -11 0 -6 -33 -10 -80
-10 -44 0 -80 4 -80 9 0 14 84 20 153 12z"/>
<path d="M500 570 c0 -5 5 -10 11 -10 5 0 7 5 4 10 -3 6 -8 10 -11 10 -2 0 -4
-4 -4 -10z"/>
<path d="M310 179 c0 -5 5 -7 10 -4 6 3 10 8 10 11 0 2 -4 4 -10 4 -5 0 -10
-5 -10 -11z"/>
<path d="M782 928 c9 -7 18 -20 21 -28 3 -8 6 -3 6 13 1 21 -3 27 -21 27 -19
0 -20 -2 -6 -12z"/>
<path d="M770 861 c0 -5 6 -12 13 -15 10 -5 10 -7 0 -12 -18 -8 -16 -24 2 -24
8 0 15 -4 15 -9 0 -5 -7 -16 -15 -25 -20 -20 -19 -26 5 -26 18 0 20 7 20 60 0
53 -2 60 -20 60 -11 0 -20 -4 -20 -9z"/>
<path d="M500 679 c0 -5 5 -7 10 -4 6 3 10 8 10 11 0 2 -4 4 -10 4 -5 0 -10
-5 -10 -11z"/>
<path d="M545 680 c3 -5 8 -10 11 -10 2 0 4 5 4 10 0 6 -5 10 -11 10 -5 0 -7
-4 -4 -10z"/>
<path d="M788 209 c-17 -18 -17 -19 2 -19 13 0 20 7 20 20 0 24 0 24 -22 -1z"/>
</g>
</svg>
