<?xml version="1.0" standalone="no"?>
<!DOCTYPE svg PUBLIC "-//W3C//DTD SVG 20010904//EN"
 "http://www.w3.org/TR/2001/REC-SVG-20010904/DTD/svg10.dtd">
<svg version="1.0" xmlns="http://www.w3.org/2000/svg"
 width="64.000000pt" height="64.000000pt" viewBox="0 0 64.000000 64.000000"
 preserveAspectRatio="xMidYMid meet">
<metadata>
Created by potrace 1.16, written by Peter Selinger 2001-2019
</metadata>
<g transform="translate(0.000000,64.000000) scale(0.100000,-0.100000)"
fill="#000000" stroke="none">
<path d="M50 295 l0 -285 285 0 285 0 0 285 0 285 -285 0 -285 0 0 -285z m110
254 c0 -6 -7 -9 -14 -6 -9 4 -27 -8 -45 -31 l-30 -37 -1 43 0 42 45 0 c26 0
45 -5 45 -11z m300 1 c8 -5 11 -10 6 -10 -4 0 8 -18 28 -40 43 -48 44 -53 10
-38 -25 11 -29 10 -56 -22 -19 -22 -32 -30 -35 -22 -3 6 -9 12 -14 12 -6 0
-27 11 -47 25 -25 17 -50 25 -80 25 -36 0 -49 -6 -86 -40 -24 -22 -47 -40 -51
-40 -11 0 -33 -29 -50 -65 -14 -30 -14 -29 -15 32 0 56 3 66 37 109 63 84 62
83 208 84 72 0 137 -5 145 -10z m140 -167 c0 -119 -4 -173 -10 -163 -5 8 -10
51 -10 94 0 60 -5 90 -22 125 -26 54 -56 91 -74 91 -8 0 -11 6 -8 15 5 11 22
15 65 15 l59 0 0 -177z m-229 31 l27 -13 -13 -68 c-7 -37 -11 -70 -9 -72 10
-11 34 74 29 101 -6 27 -5 29 13 24 15 -5 22 -1 27 14 10 31 45 41 77 22 32
-19 44 -74 33 -148 -5 -36 -3 -50 11 -65 17 -18 16 -20 -7 -45 -51 -55 -172
-104 -256 -104 -82 0 -164 50 -209 126 l-26 45 17 46 c19 48 73 116 109 135
54 29 123 30 177 2z m-187 -353 c93 -45 258 -18 356 58 61 48 60 48 60 -23 l0
-66 -265 0 -265 0 0 65 0 65 36 -39 c19 -22 54 -49 78 -60z"/>
<path d="M310 376 c-10 -31 -16 -36 -55 -41 -23 -4 -52 -4 -64 0 -26 8 -64 -3
-55 -16 3 -5 20 -9 37 -8 36 2 88 -7 130 -23 23 -9 31 -8 43 4 13 13 14 22 3
59 -17 61 -25 66 -39 25z m27 -52 c-9 -9 -28 6 -21 18 4 6 10 6 17 -1 6 -6 8
-13 4 -17z"/>
<path d="M516 350 c-7 -43 -1 -64 15 -55 11 8 12 65 0 83 -5 9 -10 0 -15 -28z"/>
<path d="M434 337 c0 -26 -9 -47 -31 -74 -17 -21 -36 -37 -42 -35 -6 1 -10 -1
-9 -5 2 -14 -14 -43 -24 -43 -5 0 -23 9 -39 21 -41 29 -36 6 6 -28 19 -15 35
-33 35 -40 0 -21 31 -43 60 -43 l29 0 -17 29 c-16 28 -15 32 10 88 14 32 30
68 35 81 8 22 10 21 40 -22 29 -41 53 -59 53 -38 0 12 -36 65 -72 106 l-34 39
0 -36z m-67 -199 c-3 -7 -5 -2 -5 12 0 14 2 19 5 13 2 -7 2 -19 0 -25z"/>
<path d="M450 150 l-35 -7 40 -2 c22 0 47 4 55 9 12 8 11 9 -5 9 -11 -1 -36
-5 -55 -9z"/>
</g>
</svg>
