<?xml version="1.0" standalone="no"?>
<!DOCTYPE svg PUBLIC "-//W3C//DTD SVG 20010904//EN"
 "http://www.w3.org/TR/2001/REC-SVG-20010904/DTD/svg10.dtd">
<svg version="1.0" xmlns="http://www.w3.org/2000/svg"
 width="100.000000pt" height="100.000000pt" viewBox="0 0 100.000000 100.000000"
 preserveAspectRatio="xMidYMid meet">
<metadata>
Created by potrace 1.16, written by Peter Selinger 2001-2019
</metadata>
<g transform="translate(0.000000,100.000000) scale(0.100000,-0.100000)"
fill="#000000" stroke="none">
<path d="M263 993 c-20 -3 -33 -10 -33 -19 0 -9 -11 -14 -30 -14 -20 0 -30 -5
-30 -15 0 -8 -7 -15 -15 -15 -8 0 -15 -9 -15 -20 0 -11 -7 -20 -15 -20 -8 0
-15 -7 -15 -15 0 -8 -9 -15 -20 -15 -11 0 -20 -7 -20 -15 0 -8 -7 -15 -15 -15
-10 0 -15 -10 -15 -30 0 -20 -5 -30 -15 -30 -9 0 -15 -9 -15 -24 0 -13 -3 -31
-6 -40 -4 -11 -1 -16 10 -16 11 0 16 9 16 30 0 20 5 30 15 30 10 0 15 10 15
30 0 20 5 30 15 30 8 0 15 7 15 15 0 8 9 15 20 15 11 0 20 7 20 15 0 8 7 15
15 15 8 0 15 9 15 20 0 11 7 20 15 20 8 0 15 7 15 15 0 10 10 15 30 15 20 0
30 5 30 15 0 10 10 15 30 15 20 0 30 5 30 15 0 8 -3 14 -7 13 -5 0 -23 -3 -40
-5z"/>
<path d="M690 986 c0 -11 9 -16 30 -16 20 0 30 -5 30 -15 0 -10 10 -15 30 -15
20 0 30 -5 30 -15 0 -8 7 -15 15 -15 8 0 15 -9 15 -20 0 -11 7 -20 15 -20 8 0
15 -7 15 -15 0 -8 9 -15 20 -15 11 0 20 -7 20 -15 0 -8 7 -15 15 -15 10 0 15
-10 15 -30 0 -20 5 -30 15 -30 10 0 15 -10 15 -30 0 -21 5 -30 16 -30 11 0 14
5 10 16 -3 9 -6 27 -6 40 0 15 -6 24 -15 24 -10 0 -15 10 -15 30 0 20 -5 30
-15 30 -8 0 -15 7 -15 15 0 8 -9 15 -20 15 -11 0 -20 7 -20 15 0 8 -7 15 -15
15 -8 0 -15 9 -15 20 0 11 -7 20 -15 20 -8 0 -15 7 -15 15 0 10 -10 15 -30 15
-20 0 -30 5 -30 15 0 9 -9 15 -24 15 -13 0 -31 3 -40 6 -11 4 -16 1 -16 -10z"/>
<path d="M385 961 c63 -7 276 -3 284 5 2 2 -74 3 -170 2 -111 -1 -152 -4 -114
-7z"/>
<path d="M271 935 c9 -8 84 -18 187 -22 68 -3 102 -9 102 -16 0 -8 -25 -12
-75 -12 -41 0 -75 4 -75 8 0 5 -5 5 -11 1 -6 -3 -8 -17 -5 -30 5 -17 2 -24 -9
-24 -8 0 -15 -4 -15 -10 0 -5 -7 -7 -15 -4 -8 4 -15 1 -15 -5 0 -15 67 -14 72
1 3 9 6 9 12 0 4 -7 2 -12 -3 -12 -6 0 -11 -7 -11 -15 0 -18 26 -20 34 -2 3 6
3 0 0 -15 -5 -21 -2 -28 10 -28 11 0 16 9 16 30 0 20 -5 30 -15 30 -8 0 -15 7
-15 15 0 8 -7 15 -15 15 -8 0 -15 7 -15 15 0 12 17 15 90 15 l90 0 0 -30 c0
-16 4 -30 10 -30 5 0 7 7 4 15 -4 8 -1 15 5 15 6 0 11 -13 11 -30 0 -21 5 -30
16 -30 14 0 14 3 4 15 -10 12 -10 15 4 15 13 0 16 -12 17 -62 0 -50 2 -58 10
-40 5 13 7 28 3 33 -3 5 0 9 5 9 8 0 11 -67 11 -205 l0 -205 63 -1 62 -1 -40
-13 -40 -13 38 -1 c34 -1 37 -3 37 -31 0 -29 -2 -30 -42 -30 -29 0 -38 -3 -29
-9 8 -5 20 -7 28 -4 7 3 13 0 13 -6 0 -6 -19 -11 -45 -11 -25 0 -45 4 -45 10
0 5 7 7 15 4 8 -4 15 -1 15 5 0 8 -66 11 -220 11 -135 0 -220 -4 -220 -10 0
-5 7 -7 15 -4 8 4 15 2 15 -4 0 -6 -28 -12 -63 -14 l-62 -3 3 33 c3 20 0 32
-8 32 -7 0 -10 -6 -7 -13 2 -6 -1 -17 -8 -23 -9 -9 -11 -1 -8 40 1 28 0 45 -3
39 -11 -25 -24 -13 -24 22 l0 35 75 0 c43 0 75 -4 75 -10 0 -6 -30 -10 -70
-10 -40 0 -70 -4 -70 -10 0 -6 37 -10 91 -10 61 0 88 -3 84 -11 -4 -6 -13 -8
-21 -5 -8 3 -14 1 -14 -4 0 -6 20 -10 45 -10 l45 0 -1 53 c0 43 -2 48 -10 29
-5 -13 -7 -28 -3 -33 3 -5 0 -17 -5 -26 -8 -14 -10 -3 -11 45 0 38 -4 62 -11
62 -6 0 -9 -7 -5 -15 3 -8 1 -15 -4 -15 -6 0 -10 14 -10 30 0 27 -3 30 -30 30
-16 0 -30 4 -30 10 0 5 7 7 15 4 8 -4 15 -1 15 5 0 6 -19 11 -45 11 -25 0 -45
4 -45 8 0 5 14 8 30 7 17 -1 30 2 30 7 0 4 -35 8 -79 8 l-79 0 -6 63 c-3 34
-7 76 -9 94 -2 18 -6 35 -10 39 -4 4 -7 -98 -7 -226 0 -276 7 -294 26 -70 l7
76 44 0 c25 0 40 -2 34 -4 -6 -2 -11 -10 -11 -17 0 -10 11 -13 35 -11 28 2 34
-1 30 -13 -3 -12 3 -17 25 -18 17 -1 30 2 30 8 0 6 5 7 11 3 8 -5 8 -9 -1 -14
-6 -4 -10 -16 -8 -26 2 -13 -2 -18 -12 -14 -8 2 -52 5 -97 6 l-83 2 0 -79 c0
-66 3 -79 16 -79 13 0 14 3 5 14 -9 11 -7 15 7 18 15 4 17 0 14 -29 -3 -25 0
-33 12 -33 9 0 16 -7 16 -15 0 -8 7 -15 15 -15 8 0 15 -7 15 -15 0 -8 7 -15
15 -15 8 0 15 -7 15 -15 0 -10 10 -15 30 -15 21 0 30 -5 30 -16 0 -14 -3 -14
-15 -4 -12 10 -15 10 -15 -4 0 -13 13 -16 80 -16 73 0 80 2 80 20 0 17 -7 20
-49 20 -30 0 -51 -5 -53 -12 -3 -9 -6 -9 -12 0 -4 7 -2 12 3 12 6 0 11 7 11
16 0 10 -5 14 -15 10 -9 -3 -25 4 -36 15 -12 12 -27 18 -37 14 -9 -3 -13 -3
-10 1 4 3 126 7 273 8 230 1 265 -1 264 -14 0 -10 -2 -11 -6 -2 -7 18 -24 14
-21 -5 2 -12 -3 -17 -14 -15 -20 3 -25 -24 -6 -30 9 -3 9 -6 0 -12 -7 -4 -12
-2 -12 3 0 6 -21 11 -50 11 -43 0 -50 -3 -50 -20 0 -18 7 -20 80 -20 67 0 80
3 80 16 0 14 -3 14 -15 4 -12 -10 -15 -10 -15 4 0 11 9 16 30 16 20 0 30 5 30
15 0 8 7 15 15 15 8 0 15 7 15 15 0 8 7 15 15 15 8 0 15 7 15 15 0 8 7 15 15
15 10 0 15 10 15 30 0 21 5 30 16 30 14 0 14 -3 4 -15 -10 -12 -10 -15 4 -15
13 0 16 13 16 80 0 73 -2 80 -20 80 -17 0 -20 -7 -20 -50 0 -29 5 -50 11 -50
5 0 8 -4 5 -9 -7 -10 -76 52 -76 68 0 6 -7 11 -15 11 -8 0 -15 -4 -15 -8 0
-17 -58 -11 -65 6 -11 25 -14 273 -5 297 5 12 9 -46 9 -137 1 -125 4 -158 14
-158 11 0 14 35 14 170 -1 128 -4 170 -13 170 -7 0 -14 -6 -17 -12 -3 -7 -2 6
0 30 5 33 3 42 -10 42 -8 0 -18 -6 -21 -12 -3 -7 -3 -2 0 12 4 20 -2 32 -25
53 -17 15 -35 27 -41 27 -5 0 -7 7 -4 15 4 8 16 15 28 14 20 0 20 -1 1 -9 -17
-7 -15 -9 12 -9 17 -1 33 4 35 11 3 9 6 9 12 0 4 -7 2 -12 -3 -12 -6 0 -11 -7
-11 -15 0 -18 56 -21 62 -3 3 9 6 9 12 0 4 -7 2 -12 -3 -12 -6 0 -11 -7 -11
-16 0 -11 6 -15 19 -11 15 3 17 0 13 -16 -4 -16 -1 -19 15 -15 16 4 19 2 16
-13 -6 -21 22 -28 29 -7 3 9 6 9 12 0 4 -7 2 -12 -3 -12 -6 0 -11 -13 -11 -30
0 -30 24 -43 32 -18 3 9 6 9 12 0 4 -7 2 -12 -3 -12 -6 0 -11 -21 -11 -50 0
-43 3 -50 20 -50 18 0 20 7 20 80 0 67 -3 80 -16 80 -14 0 -14 -3 -4 -15 10
-12 10 -15 -4 -15 -11 0 -16 9 -16 30 0 20 -5 30 -15 30 -8 0 -15 7 -15 15 0
8 -7 15 -15 15 -8 0 -15 7 -15 15 0 8 -7 15 -15 15 -8 0 -15 7 -15 15 0 10
-10 15 -30 15 -21 0 -30 5 -30 16 0 14 3 14 15 4 12 -10 15 -10 15 4 0 13 -13
16 -79 16 -54 0 -81 -4 -84 -12 -4 -10 -6 -10 -6 0 -1 17 13 21 81 25 32 2 61
7 65 10 3 4 -99 7 -227 7 -128 0 -231 -2 -229 -5z m40 -562 c-8 -15 -10 -15
-11 -2 0 17 10 32 18 25 2 -3 -1 -13 -7 -23z m529 -93 c0 -16 5 -30 11 -30 5
0 7 -5 4 -10 -10 -16 -30 11 -33 43 -1 15 3 27 8 27 6 0 10 -13 10 -30z m-258
-57 c-51 -2 -132 -2 -180 0 -48 1 -6 3 93 3 99 0 138 -2 87 -3z m233 -4 c11
-16 1 -19 -13 -3 -7 8 -8 14 -3 14 5 0 13 -5 16 -11z m-25 -29 c8 -5 11 -10 5
-10 -5 0 -17 5 -25 10 -8 5 -10 10 -5 10 6 0 17 -5 25 -10z m-540 -40 c0 -5
-2 -10 -4 -10 -3 0 -8 5 -11 10 -3 6 -1 10 4 10 6 0 11 -4 11 -10z m520 6 c0
-3 -4 -8 -10 -11 -5 -3 -10 -1 -10 4 0 6 5 11 10 11 6 0 10 -2 10 -4z"/>
<path d="M215 900 c4 -6 11 -8 16 -5 14 9 11 15 -7 15 -8 0 -12 -5 -9 -10z"/>
<path d="M250 894 c0 -14 3 -14 15 -4 12 10 15 10 15 -4 0 -11 -9 -16 -30 -16
-20 0 -30 -5 -30 -15 0 -8 -7 -15 -15 -15 -8 0 -15 -7 -15 -15 0 -8 -7 -15
-15 -15 -8 0 -15 -7 -15 -15 0 -8 -7 -15 -15 -15 -10 0 -15 -10 -15 -30 0 -21
-5 -30 -16 -30 -14 0 -14 3 -4 15 10 12 10 15 -4 15 -13 0 -16 -11 -16 -60 0
-38 4 -60 11 -60 6 0 9 -9 6 -20 -3 -11 -1 -20 4 -20 5 0 9 -7 9 -15 0 -8 -5
-15 -11 -15 -5 0 -8 -4 -4 -10 3 -5 22 -7 42 -4 47 6 56 14 15 14 l-32 0 0 64
0 64 64 4 c46 2 62 0 59 -9 -3 -6 -12 -14 -21 -16 -10 -3 4 -5 30 -6 28 -1 48
4 50 11 3 9 6 9 12 0 4 -7 2 -12 -3 -12 -6 0 -11 -7 -11 -15 0 -10 10 -15 27
-15 21 0 24 -3 15 -12 -16 -16 -15 -28 3 -28 10 0 15 11 15 35 0 24 -5 35 -15
35 -8 0 -15 7 -15 15 0 10 -10 15 -30 15 -20 0 -30 5 -30 15 0 10 -10 15 -30
15 -26 0 -30 4 -30 28 -1 24 -2 25 -11 9 -6 -10 -8 -21 -5 -24 6 -6 -23 -32
-36 -33 -5 0 -8 5 -8 10 0 6 7 10 16 10 12 0 15 8 12 33 -3 30 -1 33 16 29 15
-4 18 -1 14 14 -4 17 -1 19 29 16 21 -3 33 0 33 8 0 7 -6 10 -13 7 -6 -2 -17
1 -23 7 -8 9 7 10 58 8 l68 -4 0 36 0 36 -60 0 c-49 0 -60 -3 -60 -16z m75
-24 c7 0 16 5 18 10 3 6 4 5 3 -2 -1 -7 -15 -14 -29 -16 -22 -3 -26 0 -20 14
4 11 8 13 11 6 2 -7 10 -12 17 -12z m-165 -110 c0 -5 -5 -10 -11 -10 -5 0 -7
5 -4 10 3 6 8 10 11 10 2 0 4 -4 4 -10z"/>
<path d="M765 900 c4 -6 11 -8 16 -5 14 9 11 15 -7 15 -8 0 -12 -5 -9 -10z"/>
<path d="M190 859 c0 -5 5 -7 10 -4 6 3 10 8 10 11 0 2 -4 4 -10 4 -5 0 -10
-5 -10 -11z"/>
<path d="M795 860 c3 -5 8 -10 11 -10 2 0 4 5 4 10 0 6 -5 10 -11 10 -5 0 -7
-4 -4 -10z"/>
<path d="M560 850 c0 -5 5 -10 11 -10 5 0 7 5 4 10 -3 6 -8 10 -11 10 -2 0 -4
-4 -4 -10z"/>
<path d="M160 829 c0 -5 5 -7 10 -4 6 3 10 8 10 11 0 2 -4 4 -10 4 -5 0 -10
-5 -10 -11z"/>
<path d="M500 825 c0 -8 7 -15 15 -15 8 0 15 -7 15 -15 0 -8 7 -15 15 -15 15
0 19 -10 15 -44 -1 -11 3 -17 12 -14 20 7 23 58 4 58 -9 0 -16 7 -16 15 0 8
-7 15 -15 15 -8 0 -15 7 -15 15 0 8 -7 15 -15 15 -8 0 -15 -7 -15 -15z"/>
<path d="M825 830 c3 -5 8 -10 11 -10 2 0 4 5 4 10 0 6 -5 10 -11 10 -5 0 -7
-4 -4 -10z"/>
<path d="M130 799 c0 -5 5 -7 10 -4 6 3 10 8 10 11 0 2 -4 4 -10 4 -5 0 -10
-5 -10 -11z"/>
<path d="M855 800 c3 -5 8 -10 11 -10 2 0 4 5 4 10 0 6 -5 10 -11 10 -5 0 -7
-4 -4 -10z"/>
<path d="M235 790 c-3 -5 -1 -10 4 -10 6 0 11 5 11 10 0 6 -2 10 -4 10 -3 0
-8 -4 -11 -10z"/>
<path d="M370 790 c0 -6 7 -10 15 -10 8 0 15 2 15 4 0 2 -7 6 -15 10 -8 3 -15
1 -15 -4z"/>
<path d="M90 774 c0 -8 5 -12 10 -9 6 4 8 11 5 16 -9 14 -15 11 -15 -7z"/>
<path d="M895 781 c-3 -5 -1 -12 5 -16 5 -3 10 1 10 9 0 18 -6 21 -15 7z"/>
<path d="M280 764 c0 -12 6 -15 23 -10 12 3 25 6 30 6 4 0 7 5 7 10 0 6 -13
10 -30 10 -21 0 -30 -5 -30 -16z"/>
<path d="M484 765 c3 -8 1 -15 -4 -15 -6 0 -10 -7 -10 -15 0 -8 7 -15 15 -15
10 0 15 10 15 30 0 17 -5 30 -11 30 -6 0 -9 -7 -5 -15z"/>
<path d="M620 760 c0 -5 5 -10 11 -10 5 0 7 5 4 10 -3 6 -8 10 -11 10 -2 0 -4
-4 -4 -10z"/>
<path d="M235 740 c3 -5 8 -10 11 -10 2 0 4 5 4 10 0 6 -5 10 -11 10 -5 0 -7
-4 -4 -10z"/>
<path d="M340 735 c0 -8 7 -15 15 -15 8 0 15 7 15 15 0 8 -7 15 -15 15 -8 0
-15 -7 -15 -15z"/>
<path d="M516 737 c6 -17 -21 -41 -36 -32 -5 3 -10 1 -10 -4 0 -6 14 -11 30
-11 27 0 30 3 30 30 0 17 -4 30 -10 30 -5 0 -7 -6 -4 -13z"/>
<path d="M440 730 c0 -5 5 -10 11 -10 5 0 7 5 4 10 -3 6 -8 10 -11 10 -2 0 -4
-4 -4 -10z"/>
<path d="M929 728 c-12 -36 -17 -280 -8 -385 11 -132 19 -67 19 155 0 128 -2
232 -5 232 -3 0 -5 -1 -6 -2z"/>
<path d="M370 705 c0 -8 9 -15 20 -15 11 0 20 7 20 15 0 8 -9 15 -20 15 -11 0
-20 -7 -20 -15z"/>
<path d="M607 683 c8 -52 13 -54 13 -5 0 23 -4 42 -9 42 -6 0 -7 -17 -4 -37z"/>
<path d="M145 670 c-3 -5 -1 -10 4 -10 6 0 11 5 11 10 0 6 -2 10 -4 10 -3 0
-8 -4 -11 -10z"/>
<path d="M30 500 c0 -95 3 -171 6 -167 8 8 8 327 0 335 -3 3 -6 -73 -6 -168z"/>
<path d="M959 618 c-4 -144 -4 -178 2 -233 3 -37 6 7 7 113 1 94 0 172 -3 172
-3 0 -6 -24 -6 -52z"/>
<path d="M190 610 c0 -23 15 -27 24 -5 3 8 12 12 21 9 8 -3 15 -1 15 5 0 6
-13 11 -30 11 -23 0 -30 -4 -30 -20z"/>
<path d="M393 610 c1 -11 5 -20 9 -20 4 0 8 9 8 20 0 11 -4 20 -9 20 -6 0 -9
-9 -8 -20z"/>
<path d="M645 550 c0 -44 3 -80 8 -80 4 0 7 36 7 80 0 44 -3 80 -7 80 -5 0 -8
-36 -8 -80z"/>
<path d="M310 603 c0 -6 -20 -14 -45 -17 -25 -4 -45 -11 -45 -17 0 -13 47 -11
55 2 4 6 13 8 20 5 13 -5 30 22 20 32 -3 3 -5 1 -5 -5z"/>
<path d="M338 553 c7 -3 16 -2 19 1 4 3 -2 6 -13 5 -11 0 -14 -3 -6 -6z"/>
<path d="M772 530 c0 -19 2 -27 5 -17 2 9 2 25 0 35 -3 9 -5 1 -5 -18z"/>
<path d="M280 540 c0 -5 5 -10 10 -10 6 0 10 5 10 10 0 6 -4 10 -10 10 -5 0
-10 -4 -10 -10z"/>
<path d="M530 462 c0 -5 14 -9 30 -10 17 0 30 4 30 9 0 5 -13 9 -30 9 -16 0
-30 -4 -30 -8z"/>
<path d="M605 460 c3 -5 8 -10 11 -10 2 0 4 5 4 10 0 6 -5 10 -11 10 -5 0 -7
-4 -4 -10z"/>
<path d="M370 450 c0 -5 5 -10 10 -10 6 0 10 5 10 10 0 6 -4 10 -10 10 -5 0
-10 -4 -10 -10z"/>
<path d="M502 410 c0 -19 2 -27 5 -17 2 9 2 25 0 35 -3 9 -5 1 -5 -18z"/>
<path d="M530 410 c0 -29 2 -30 45 -30 43 0 45 1 45 30 0 29 -2 30 -45 30 -43
0 -45 -1 -45 -30z m67 -12 c-3 -7 -5 -2 -5 12 0 14 2 19 5 13 2 -7 2 -19 0
-25z"/>
<path d="M462 410 c0 -14 2 -19 5 -12 2 6 2 18 0 25 -3 6 -5 1 -5 -13z"/>
<path d="M660 345 c0 -32 2 -35 30 -35 35 0 41 17 8 22 -17 2 -23 9 -22 26 0
12 -3 22 -8 22 -4 0 -8 -16 -8 -35z"/>
<path d="M530 357 c0 -12 8 -17 30 -17 20 0 30 5 30 15 0 12 -4 13 -18 6 -13
-7 -23 -6 -30 1 -9 9 -12 8 -12 -5z"/>
<path d="M605 350 c-3 -5 -1 -10 4 -10 6 0 11 5 11 10 0 6 -2 10 -4 10 -3 0
-8 -4 -11 -10z"/>
<path d="M485 330 c-4 -6 -15 -8 -26 -5 -11 4 -19 2 -19 -4 0 -6 14 -11 30
-11 20 0 30 5 30 15 0 17 -6 19 -15 5z"/>
<path d="M186 312 c-2 -4 12 -6 32 -4 56 5 62 10 15 11 -23 1 -44 -3 -47 -7z"/>
<path d="M4 294 c3 -9 6 -27 6 -40 0 -15 6 -24 15 -24 10 0 15 -10 15 -30 0
-20 5 -30 15 -30 8 0 15 -7 15 -15 0 -8 9 -15 20 -15 11 0 20 -7 20 -15 0 -8
7 -15 15 -15 8 0 15 -9 15 -20 0 -11 7 -20 15 -20 8 0 15 -7 15 -15 0 -10 10
-15 30 -15 20 0 30 -5 30 -15 0 -9 9 -15 24 -15 13 0 31 -3 40 -6 11 -4 16 -1
16 10 0 11 -9 16 -30 16 -20 0 -30 5 -30 15 0 10 -10 15 -30 15 -20 0 -30 5
-30 15 0 8 -7 15 -15 15 -8 0 -15 9 -15 20 0 11 -7 20 -15 20 -8 0 -15 7 -15
15 0 8 -9 15 -20 15 -11 0 -20 7 -20 15 0 8 -7 15 -15 15 -10 0 -15 10 -15 30
0 20 -5 30 -15 30 -10 0 -15 10 -15 30 0 21 -5 30 -16 30 -11 0 -14 -5 -10
-16z"/>
<path d="M970 280 c0 -20 -5 -30 -15 -30 -10 0 -15 -10 -15 -30 0 -20 -5 -30
-15 -30 -8 0 -15 -7 -15 -15 0 -8 -9 -15 -20 -15 -11 0 -20 -7 -20 -15 0 -8
-7 -15 -15 -15 -8 0 -15 -9 -15 -20 0 -11 -7 -20 -15 -20 -8 0 -15 -7 -15 -15
0 -10 -10 -15 -30 -15 -20 0 -30 -5 -30 -15 0 -10 -10 -15 -30 -15 -21 0 -30
-5 -30 -16 0 -11 5 -14 16 -10 9 3 27 6 40 6 15 0 24 6 24 15 0 10 10 15 30
15 20 0 30 5 30 15 0 8 7 15 15 15 8 0 15 9 15 20 0 11 7 20 15 20 8 0 15 7
15 15 0 8 9 15 20 15 11 0 20 7 20 15 0 8 7 15 15 15 10 0 15 10 15 30 0 20 5
30 15 30 9 0 15 9 15 24 0 13 3 31 6 40 4 11 1 16 -10 16 -11 0 -16 -9 -16
-30z"/>
<path d="M310 280 c0 -5 5 -10 11 -10 5 0 7 5 4 10 -3 6 -8 10 -11 10 -2 0 -4
-4 -4 -10z"/>
<path d="M422 273 c48 -2 129 -2 180 0 51 1 12 3 -87 3 -99 0 -141 -2 -93 -3z"/>
<path d="M205 240 c3 -5 8 -10 11 -10 2 0 4 5 4 10 0 6 -5 10 -11 10 -5 0 -7
-4 -4 -10z"/>
<path d="M238 243 c6 -2 18 -2 25 0 6 3 1 5 -13 5 -14 0 -19 -2 -12 -5z"/>
<path d="M90 224 c0 -8 5 -12 10 -9 6 4 8 11 5 16 -9 14 -15 11 -15 -7z"/>
<path d="M895 231 c-3 -5 -1 -12 5 -16 5 -3 10 1 10 9 0 18 -6 21 -15 7z"/>
<path d="M130 200 c0 -5 5 -10 11 -10 5 0 7 5 4 10 -3 6 -8 10 -11 10 -2 0 -4
-4 -4 -10z"/>
<path d="M855 200 c-3 -5 -1 -10 4 -10 6 0 11 5 11 10 0 6 -2 10 -4 10 -3 0
-8 -4 -11 -10z"/>
<path d="M260 180 c0 -5 5 -10 10 -10 6 0 10 5 10 10 0 6 -4 10 -10 10 -5 0
-10 -4 -10 -10z"/>
<path d="M160 170 c0 -5 5 -10 11 -10 5 0 7 5 4 10 -3 6 -8 10 -11 10 -2 0 -4
-4 -4 -10z"/>
<path d="M825 170 c-3 -5 -1 -10 4 -10 6 0 11 5 11 10 0 6 -2 10 -4 10 -3 0
-8 -4 -11 -10z"/>
<path d="M190 140 c0 -5 5 -10 11 -10 5 0 7 5 4 10 -3 6 -8 10 -11 10 -2 0 -4
-4 -4 -10z"/>
<path d="M795 140 c-3 -5 -1 -10 4 -10 6 0 11 5 11 10 0 6 -2 10 -4 10 -3 0
-8 -4 -11 -10z"/>
<path d="M215 100 c-3 -5 1 -10 10 -10 9 0 13 5 10 10 -3 6 -8 10 -10 10 -2 0
-7 -4 -10 -10z"/>
<path d="M765 100 c-3 -5 1 -10 10 -10 9 0 13 5 10 10 -3 6 -8 10 -10 10 -2 0
-7 -4 -10 -10z"/>
<path d="M409 86 c-2 -2 -33 -6 -68 -10 -123 -11 -72 -16 159 -16 128 0 230 3
226 7 -8 8 -37 11 -197 18 -63 3 -117 3 -120 1z"/>
<path d="M385 39 c-38 -3 3 -6 114 -7 96 -1 172 0 170 2 -8 8 -221 12 -284 5z"/>
</g>
</svg>
