<?xml version="1.0" standalone="no"?>
<!DOCTYPE svg PUBLIC "-//W3C//DTD SVG 20010904//EN"
 "http://www.w3.org/TR/2001/REC-SVG-20010904/DTD/svg10.dtd">
<svg version="1.0" xmlns="http://www.w3.org/2000/svg"
 width="96.000000pt" height="96.000000pt" viewBox="0 0 96.000000 96.000000"
 preserveAspectRatio="xMidYMid meet">
<metadata>
Created by potrace 1.16, written by Peter Selinger 2001-2019
</metadata>
<g transform="translate(0.000000,96.000000) scale(0.100000,-0.100000)"
fill="#000000" stroke="none">
<path d="M0 943 c0 -10 4 -14 8 -8 4 6 11 13 16 18 5 4 2 7 -7 7 -10 0 -17 -8
-17 -17z"/>
<path d="M936 953 c5 -5 12 -12 16 -18 4 -6 8 -2 8 8 0 9 -7 17 -17 17 -9 0
-12 -3 -7 -7z"/>
<path d="M547 843 c-74 -28 -170 -105 -216 -174 -35 -52 -41 -69 -41 -113 0
-43 4 -57 26 -77 23 -21 37 -25 126 -29 110 -5 127 -14 114 -63 -9 -36 -64
-106 -114 -144 -51 -39 -117 -62 -133 -46 -17 17 51 85 121 122 52 28 60 36
60 61 0 35 -27 46 -91 37 -117 -15 -206 -137 -185 -251 6 -31 13 -40 44 -53
85 -35 205 8 307 111 77 77 108 140 113 227 4 57 1 69 -19 93 -26 30 -78 45
-151 46 -56 0 -78 7 -78 26 0 22 79 103 122 125 47 24 51 24 38 0 -5 -11 -10
-40 -10 -65 0 -35 5 -48 19 -56 40 -21 59 -12 102 52 51 74 62 133 31 161 -30
27 -124 32 -185 10z m163 -33 c23 -23 20 -34 -29 -112 -37 -59 -48 -67 -69
-46 -18 18 -15 49 8 83 23 35 26 65 6 65 -52 0 -170 -78 -205 -134 -46 -73
-23 -97 100 -106 112 -8 134 -25 133 -99 -2 -143 -188 -331 -328 -331 -32 0
-56 6 -68 17 -45 41 1 175 75 217 56 32 110 41 127 21 10 -12 5 -18 -34 -34
-56 -24 -129 -91 -147 -133 -11 -27 -10 -32 7 -45 84 -63 328 149 300 261 -8
32 -33 40 -133 40 -92 1 -135 22 -141 69 -8 66 117 214 223 263 65 31 146 33
175 4z"/>
<path d="M0 17 c0 -10 8 -17 18 -17 9 0 13 4 7 8 -5 4 -13 11 -17 16 -5 5 -8
2 -8 -7z"/>
<path d="M942 15 c-11 -12 -10 -15 3 -15 8 0 15 7 15 15 0 18 -2 18 -18 0z"/>
</g>
</svg>
