<?xml version="1.0" standalone="no"?>
<!DOCTYPE svg PUBLIC "-//W3C//DTD SVG 20010904//EN"
 "http://www.w3.org/TR/2001/REC-SVG-20010904/DTD/svg10.dtd">
<svg version="1.0" xmlns="http://www.w3.org/2000/svg"
 width="100.000000pt" height="100.000000pt" viewBox="0 0 100.000000 100.000000"
 preserveAspectRatio="xMidYMid meet">
<metadata>
Created by potrace 1.16, written by Peter Selinger 2001-2019
</metadata>
<g transform="translate(0.000000,100.000000) scale(0.100000,-0.100000)"
fill="#000000" stroke="none">
<path d="M131 873 c1 -37 2 -37 8 -8 6 28 9 30 44 27 22 -2 37 1 37 7 0 6 -20
11 -45 11 l-45 0 1 -37z"/>
<path d="M160 855 c0 -8 7 -15 15 -15 8 0 15 -9 15 -21 0 -11 5 -17 10 -14 6
3 10 14 10 24 0 11 6 19 13 18 34 -1 57 4 57 13 0 6 -27 10 -60 10 -47 0 -60
-3 -60 -15z"/>
<path d="M284 818 c3 -13 6 -58 6 -100 l0 -78 30 0 c20 0 30 -5 30 -15 0 -10
11 -15 35 -15 19 0 35 -4 35 -10 0 -5 -11 -10 -25 -10 -16 0 -25 -6 -25 -15 0
-12 -13 -15 -56 -15 -49 0 -55 -2 -44 -15 16 -20 100 -21 100 -1 0 7 11 16 24
18 19 4 22 1 18 -14 -3 -12 1 -18 12 -18 10 0 16 9 16 23 1 20 2 20 11 4 6 -9
14 -15 19 -12 5 3 11 1 15 -5 4 -6 -5 -10 -19 -10 -17 0 -26 -5 -26 -16 0 -12
8 -15 33 -12 32 3 32 3 28 -31 -3 -33 -3 -33 33 -29 20 2 36 1 36 -4 0 -10
-36 -29 -43 -22 -3 3 -3 -3 0 -15 4 -15 1 -21 -11 -21 -9 0 -16 7 -16 15 0 12
-13 15 -61 15 -37 0 -58 -4 -54 -10 3 -5 15 -10 26 -10 11 0 19 -7 20 -17 0
-15 2 -15 8 2 7 18 8 17 13 -7 3 -15 1 -33 -3 -40 -7 -10 -9 -10 -9 0 0 7 -14
12 -35 12 -19 0 -35 -5 -35 -10 0 -6 11 -8 25 -4 15 4 25 2 25 -5 0 -6 -18
-11 -41 -11 l-40 0 5 -65 c6 -64 6 -65 -19 -65 -31 0 -33 25 -2 35 14 4 17 8
9 12 -10 4 -11 24 -6 87 5 68 4 84 -10 95 -17 14 -22 41 -7 41 5 0 11 -7 15
-15 6 -17 86 -22 86 -5 0 6 14 10 30 10 20 0 30 5 30 15 0 10 -10 15 -30 15
-20 0 -30 5 -30 15 0 10 -11 15 -35 15 -19 0 -35 -5 -35 -11 0 -6 7 -9 15 -5
8 3 15 1 15 -4 0 -6 9 -10 20 -10 11 0 20 -7 20 -15 0 -10 -11 -15 -35 -15
-24 0 -35 5 -35 15 0 8 -7 15 -15 15 -8 0 -15 7 -15 15 0 8 -7 15 -15 15 -8 0
-15 7 -15 15 0 8 -7 15 -15 15 -10 0 -15 10 -15 30 0 17 -4 30 -9 30 -5 0 -8
-11 -8 -25 0 -14 3 -28 8 -31 5 -3 9 -22 9 -42 -1 -30 -3 -34 -11 -19 -7 12
-22 17 -50 17 -26 0 -38 4 -34 11 4 6 13 8 19 6 10 -4 12 10 9 54 -3 38 0 59
6 59 6 0 11 -13 11 -30 0 -16 5 -30 10 -30 6 0 10 38 10 95 0 55 -4 95 -10 95
-5 0 -7 7 -4 15 4 8 1 15 -5 15 -6 0 -11 -19 -11 -45 0 -25 -4 -45 -10 -45 -5
0 -7 7 -4 15 4 8 1 15 -5 15 -7 0 -11 -32 -11 -95 0 -55 -4 -95 -10 -95 -5 0
-7 7 -4 15 4 8 1 15 -5 15 -6 0 -11 -7 -11 -15 0 -8 -9 -15 -20 -15 -17 0 -20
-7 -20 -45 0 -26 -5 -45 -11 -45 -6 0 -9 7 -5 15 3 8 1 15 -4 15 -6 0 -10 -20
-10 -45 0 -33 4 -45 15 -45 8 0 15 -9 15 -20 0 -16 7 -20 35 -20 28 0 35 4 35
20 0 11 7 20 15 20 11 0 15 11 15 43 -1 33 -3 38 -11 24 -5 -9 -8 -21 -4 -26
3 -5 1 -12 -5 -16 -6 -4 -10 8 -10 29 0 33 2 36 30 36 27 0 30 -3 30 -30 0
-20 5 -30 15 -30 8 0 15 -7 15 -15 0 -8 7 -15 15 -15 12 0 15 -17 15 -95 0
-55 -4 -95 -10 -95 -5 0 -7 7 -4 15 4 8 1 15 -5 15 -6 0 -11 -13 -11 -30 l0
-30 80 0 80 0 0 30 c0 20 -5 30 -15 30 -8 0 -12 -6 -9 -14 3 -8 1 -17 -5 -21
-7 -4 -11 7 -11 29 l0 36 50 0 c38 0 50 4 50 15 0 8 -7 15 -15 15 -8 0 -15 7
-15 15 0 10 10 15 30 15 20 0 30 5 30 15 0 8 -7 15 -15 15 -10 0 -15 10 -15
32 l0 31 24 -28 c13 -15 22 -34 19 -42 -3 -7 0 -13 6 -13 6 0 11 14 11 30 0
20 5 30 15 30 8 0 15 6 15 14 0 17 31 26 88 26 23 0 42 5 42 10 0 6 -22 10
-50 10 -38 0 -50 4 -50 15 0 8 -7 15 -15 15 -8 0 -15 7 -15 15 0 8 -7 15 -15
15 -8 0 -15 7 -15 15 0 8 -7 15 -15 15 -8 0 -15 7 -15 15 0 8 -7 15 -15 15 -8
0 -15 7 -15 15 0 8 -7 15 -15 15 -8 0 -15 9 -15 20 0 16 -7 20 -35 20 -19 0
-35 5 -35 11 0 6 9 8 20 4 11 -4 20 -2 20 4 0 6 -21 11 -50 11 l-50 0 0 90 c0
76 -2 90 -16 90 -12 0 -15 -6 -10 -22z m-81 -168 c3 -11 2 -20 -3 -20 -4 0
-10 9 -13 20 -3 11 -2 20 3 20 4 0 10 -9 13 -20z m-73 -140 c0 -5 -7 -10 -16
-10 -8 0 -12 5 -9 10 3 6 10 10 16 10 5 0 9 -4 9 -10z m1 -39 c6 9 9 -1 9 -28
0 -32 -4 -43 -15 -43 -11 0 -15 11 -14 43 0 23 3 36 6 28 5 -11 7 -11 14 0z
m162 2 c-7 -2 -13 -17 -14 -31 l-1 -27 -7 25 c-9 30 -5 40 17 39 11 0 12 -3 5
-6z m247 -3 c0 -5 -4 -10 -10 -10 -5 0 -10 5 -10 10 0 6 5 10 10 10 6 0 10 -4
10 -10z m-290 -40 c0 -5 -2 -10 -4 -10 -3 0 -8 5 -11 10 -3 6 -1 10 4 10 6 0
11 -4 11 -10z m-163 -22 c-3 -8 -6 -5 -6 6 -1 11 2 17 5 13 3 -3 4 -12 1 -19z
m223 -8 c0 -5 -2 -10 -4 -10 -3 0 -8 5 -11 10 -3 6 -1 10 4 10 6 0 11 -4 11
-10z m-165 -30 c-3 -5 -12 -10 -20 -10 -8 0 -17 5 -20 10 -4 6 5 10 20 10 15
0 24 -4 20 -10z m162 -12 c-3 -8 -6 -5 -6 6 -1 11 2 17 5 13 3 -3 4 -12 1 -19z
m3 -33 c0 -8 -4 -15 -10 -15 -5 0 -10 7 -10 15 0 8 5 15 10 15 6 0 10 -7 10
-15z m110 -45 c0 -5 -16 -9 -35 -8 -23 1 -31 4 -23 9 18 12 58 11 58 -1z
m-113 -52 c-3 -8 -6 -5 -6 6 -1 11 2 17 5 13 3 -3 4 -12 1 -19z"/>
<path d="M327 759 c2 -110 13 -114 13 -6 0 48 -3 87 -7 87 -5 0 -7 -36 -6 -81z"/>
<path d="M160 820 c0 -5 5 -10 11 -10 5 0 7 5 4 10 -3 6 -8 10 -11 10 -2 0 -4
-4 -4 -10z"/>
<path d="M220 780 c0 -20 5 -30 15 -30 8 0 15 7 15 15 0 8 -5 15 -11 15 -6 0
-9 7 -5 15 3 8 1 15 -4 15 -6 0 -10 -13 -10 -30z"/>
<path d="M250 795 c0 -8 7 -15 15 -15 8 0 15 7 15 15 0 8 -7 15 -15 15 -8 0
-15 -7 -15 -15z"/>
<path d="M230 730 c0 -5 5 -10 10 -10 6 0 10 5 10 10 0 6 -4 10 -10 10 -5 0
-10 -4 -10 -10z"/>
<path d="M133 615 c0 -27 2 -38 4 -22 2 15 2 37 0 50 -2 12 -4 0 -4 -28z"/>
<path d="M241 614 c0 -11 3 -14 6 -6 3 7 2 16 -1 19 -3 4 -6 -2 -5 -13z"/>
<path d="M450 621 c0 -6 5 -13 10 -16 6 -3 10 1 10 9 0 9 -4 16 -10 16 -5 0
-10 -4 -10 -9z"/>
<path d="M485 580 c3 -5 8 -10 11 -10 2 0 4 5 4 10 0 6 -5 10 -11 10 -5 0 -7
-4 -4 -10z"/>
<path d="M515 550 c3 -5 8 -10 11 -10 2 0 4 5 4 10 0 6 -5 10 -11 10 -5 0 -7
-4 -4 -10z"/>
<path d="M205 540 c-3 -5 -1 -10 4 -10 6 0 11 5 11 10 0 6 -2 10 -4 10 -3 0
-8 -4 -11 -10z"/>
<path d="M545 520 c3 -5 8 -10 11 -10 2 0 4 5 4 10 0 6 -5 10 -11 10 -5 0 -7
-4 -4 -10z"/>
<path d="M205 510 c-3 -5 -1 -10 4 -10 6 0 11 5 11 10 0 6 -2 10 -4 10 -3 0
-8 -4 -11 -10z"/>
<path d="M31 394 c0 -11 3 -14 6 -6 3 7 2 16 -1 19 -3 4 -6 -2 -5 -13z"/>
<path d="M590 395 c0 -8 -7 -15 -15 -15 -8 0 -15 -9 -15 -20 0 -11 7 -20 15
-20 8 0 15 -7 15 -15 0 -11 -12 -15 -45 -15 -33 0 -45 -4 -45 -15 0 -8 -4 -15
-9 -15 -5 0 -12 -12 -15 -26 -5 -17 -12 -24 -21 -20 -8 3 -15 1 -15 -5 0 -7
19 -10 49 -7 37 2 47 0 43 -10 -2 -7 -11 -11 -18 -8 -8 3 -14 1 -14 -5 0 -7
19 -10 49 -7 37 2 47 0 43 -10 -2 -7 -11 -11 -18 -8 -8 3 -14 1 -14 -5 0 -7
20 -10 54 -7 41 2 52 0 48 -10 -2 -8 -13 -11 -23 -9 -11 3 -19 1 -19 -4 0 -5
56 -9 125 -9 69 0 125 4 125 8 0 5 -13 8 -30 7 -16 -1 -30 2 -30 7 0 4 29 8
65 8 l65 0 0 75 0 75 -35 0 c-24 0 -35 5 -35 15 0 10 -10 15 -30 15 -23 0 -30
4 -30 20 0 17 -7 20 -44 20 -44 0 -44 0 -48 -38 -3 -37 -2 -38 27 -34 16 3 32
8 35 11 3 3 23 3 45 0 30 -5 33 -7 13 -8 -19 -1 -28 -7 -28 -17 0 -14 7 -16
40 -11 45 6 65 -9 25 -19 -14 -3 -25 -10 -25 -16 0 -5 -4 -7 -8 -4 -13 8 -96
-14 -104 -27 -6 -9 -10 -9 -17 2 -10 16 -31 6 -31 -15 0 -9 -11 -14 -35 -14
-24 0 -35 5 -35 15 0 10 11 15 35 15 24 0 35 5 35 15 0 10 -11 15 -35 15 -24
0 -35 -5 -35 -15 0 -10 -10 -15 -30 -15 -20 0 -30 5 -30 15 0 10 10 15 30 15
20 0 30 5 30 15 0 10 -10 15 -30 15 -20 0 -30 -5 -30 -15 0 -10 -10 -15 -30
-15 -20 0 -30 5 -30 15 0 9 9 15 23 15 12 0 40 9 61 19 25 13 48 18 72 14 27
-4 34 -2 34 11 0 13 -10 16 -50 16 -34 0 -50 4 -50 13 1 15 30 55 30 40 0 -6
21 -10 50 -10 28 0 50 5 50 9 0 5 4 7 9 4 5 -4 20 -2 33 3 17 7 -3 10 -74 10
-81 1 -98 -2 -98 -14z m210 -46 c0 -5 -4 -9 -10 -9 -5 0 -10 7 -10 16 0 8 5
12 10 9 6 -3 10 -10 10 -16z m-38 -21 c-9 -9 -15 -9 -24 0 -9 9 -7 12 12 12
19 0 21 -3 12 -12z m163 -38 c3 -5 1 -10 -4 -10 -6 0 -11 5 -11 10 0 6 2 10 4
10 3 0 8 -4 11 -10z m5 -55 c0 -10 -7 -14 -22 -12 -13 2 -18 2 -12 0 7 -2 14
-12 16 -21 4 -15 -3 -17 -64 -14 -50 3 -68 7 -68 18 0 10 13 14 45 14 33 0 45
4 45 15 0 10 10 15 30 15 20 0 30 -5 30 -15z m-150 -60 c0 -11 -12 -15 -45
-15 -33 0 -45 4 -45 15 0 11 12 15 45 15 33 0 45 -4 45 -15z"/>
<path d="M825 370 c3 -5 8 -10 11 -10 2 0 4 5 4 10 0 6 -5 10 -11 10 -5 0 -7
-4 -4 -10z"/>
<path d="M888 333 c7 -3 16 -2 19 1 4 3 -2 6 -13 5 -11 0 -14 -3 -6 -6z"/>
<path d="M252 280 c0 -19 2 -27 5 -17 2 9 2 25 0 35 -3 9 -5 1 -5 -18z"/>
<path d="M963 235 c0 -44 2 -61 4 -37 2 23 2 59 0 80 -2 20 -4 1 -4 -43z"/>
<path d="M640 286 c0 -8 5 -18 10 -21 6 -3 10 3 10 14 0 12 -4 21 -10 21 -5 0
-10 -6 -10 -14z"/>
<path d="M690 265 c0 -11 12 -15 45 -15 33 0 45 4 45 15 0 18 -16 20 -23 3 -4
-10 -6 -10 -6 0 -1 18 -61 16 -61 -3z"/>
<path d="M221 174 c0 -11 3 -14 6 -6 3 7 2 16 -1 19 -3 4 -6 -2 -5 -13z"/>
<path d="M295 140 c-17 -7 -15 -9 13 -9 17 -1 32 4 32 9 0 12 -17 12 -45 0z"/>
<path d="M373 133 c9 -2 23 -2 30 0 6 3 -1 5 -18 5 -16 0 -22 -2 -12 -5z"/>
<path d="M690 100 c0 -5 20 -10 45 -10 25 0 45 4 45 8 0 5 -20 10 -45 10 -25
1 -45 -2 -45 -8z"/>
</g>
</svg>
