<?xml version="1.0" standalone="no"?>
<!DOCTYPE svg PUBLIC "-//W3C//DTD SVG 20010904//EN"
 "http://www.w3.org/TR/2001/REC-SVG-20010904/DTD/svg10.dtd">
<svg version="1.0" xmlns="http://www.w3.org/2000/svg"
 width="192.000000pt" height="192.000000pt" viewBox="0 0 192.000000 192.000000"
 preserveAspectRatio="xMidYMid meet">
<metadata>
Created by potrace 1.16, written by Peter Selinger 2001-2019
</metadata>
<g transform="translate(0.000000,192.000000) scale(0.100000,-0.100000)"
fill="#000000" stroke="none">
<path d="M910 1720 l0 -151 73 3 72 3 3 125 c4 176 7 170 -78 170 l-70 0 0
-150z m125 108 c3 -13 5 -70 3 -128 l-3 -105 -52 -3 -53 -3 0 130 0 131 50 0
c43 0 50 -3 55 -22z"/>
<path d="M503 1755 c-7 -8 -13 -40 -13 -72 0 -47 4 -61 20 -73 11 -8 20 -25
20 -37 0 -13 5 -23 10 -23 6 0 10 -9 10 -20 0 -11 5 -20 10 -20 6 0 10 -9 10
-20 0 -17 7 -20 40 -20 38 0 39 -1 28 -20 -7 -11 -19 -20 -26 -20 -18 0 -122
-106 -122 -125 0 -8 -4 -15 -10 -15 -5 0 -10 18 -10 40 0 32 -4 40 -18 40 -10
0 -24 9 -32 20 -8 11 -22 20 -32 20 -10 0 -18 5 -18 10 0 6 -9 10 -20 10 -11
0 -20 4 -20 9 0 5 -11 12 -25 15 -14 4 -25 11 -25 16 0 6 -18 10 -40 10 -29 0
-40 -4 -40 -15 0 -8 -7 -15 -15 -15 -12 0 -15 -13 -15 -56 0 -50 4 -60 30 -85
16 -16 37 -29 45 -29 8 0 15 -4 15 -10 0 -5 9 -10 20 -10 11 0 20 -4 20 -10 0
-5 9 -10 20 -10 11 0 20 -4 20 -10 0 -11 86 -14 93 -2 2 4 2 1 0 -6 -1 -8 -3
-25 -3 -38 0 -15 -6 -24 -15 -24 -11 0 -15 -12 -15 -50 0 -27 -4 -50 -10 -50
-6 0 -10 -40 -10 -99 0 -56 4 -103 10 -106 6 -3 10 -26 10 -51 0 -32 4 -44 15
-44 8 0 15 -7 15 -15 0 -12 -13 -15 -55 -15 -42 0 -55 -3 -55 -15 0 -8 -8 -15
-18 -15 -10 0 -24 -9 -32 -20 -8 -11 -22 -20 -32 -20 -10 0 -18 -4 -18 -10 0
-5 -9 -10 -21 -10 -11 0 -27 -6 -35 -14 -16 -17 -19 -102 -4 -111 6 -3 10 -15
10 -26 0 -16 7 -19 55 -19 30 0 55 5 55 10 0 6 9 10 20 10 11 0 20 5 20 10 0
6 7 10 15 10 8 0 15 5 15 10 0 6 9 10 20 10 11 0 20 5 20 10 0 6 7 10 16 10
27 0 44 27 44 69 0 23 5 41 10 41 6 0 10 -9 10 -20 0 -11 5 -20 10 -20 6 0 10
-5 10 -10 0 -16 125 -137 146 -143 11 -3 -5 -5 -33 -6 -40 -1 -53 -5 -53 -16
0 -8 -4 -15 -10 -15 -5 0 -10 -9 -10 -20 0 -11 -4 -20 -10 -20 -5 0 -10 -9
-10 -20 0 -11 -4 -20 -10 -20 -5 0 -10 -9 -10 -20 0 -11 -4 -20 -10 -20 -5 0
-10 -7 -10 -15 0 -8 -4 -15 -10 -15 -15 0 -12 -70 4 -86 8 -8 22 -14 30 -14 9
0 16 -4 16 -10 0 -5 18 -10 41 -10 41 0 69 17 69 42 0 8 9 20 20 28 11 8 20
22 20 32 0 10 5 18 10 18 6 0 10 9 10 20 0 11 5 20 10 20 15 0 13 107 -2 113
-8 2 -9 8 -4 13 5 5 11 4 13 -3 3 -7 13 -13 24 -13 10 0 19 -4 19 -10 0 -5 15
-10 34 -10 21 0 36 -6 40 -15 8 -22 294 -22 302 0 4 9 19 15 35 15 16 0 29 5
29 10 0 6 9 10 20 10 18 0 20 -7 20 -65 0 -37 4 -65 10 -65 6 0 10 -9 10 -20
0 -11 5 -20 10 -20 6 0 10 -9 10 -20 0 -11 5 -20 10 -20 6 0 10 -9 10 -20 0
-11 4 -20 9 -20 5 0 13 -9 16 -20 5 -16 15 -20 46 -20 21 0 39 5 39 10 0 6 7
10 16 10 28 0 44 27 44 74 l0 46 60 0 c51 0 65 4 85 25 22 21 25 33 25 95 0
40 4 70 10 70 6 0 10 -4 10 -10 0 -5 25 -10 55 -10 48 0 55 2 55 20 0 11 5 20
10 20 6 0 10 21 10 48 0 49 -22 82 -55 82 -8 0 -15 5 -15 10 0 6 -8 10 -18 10
-10 0 -24 9 -32 20 -8 11 -22 20 -32 20 -10 0 -18 5 -18 10 0 6 -25 10 -55 10
-48 0 -55 2 -55 20 0 11 7 20 15 20 10 0 15 10 15 30 0 17 5 30 10 30 6 0 10
60 10 160 0 100 -4 160 -10 160 -5 0 -10 14 -10 30 0 20 -5 30 -15 30 -8 0
-15 9 -15 20 0 11 5 20 10 20 6 0 10 -4 10 -10 0 -5 25 -10 55 -10 30 0 55 5
55 10 0 6 8 10 18 10 10 0 24 9 32 20 8 11 22 20 32 20 10 0 18 5 18 10 0 6 8
10 18 10 33 1 52 25 52 69 0 22 -4 41 -10 41 -5 0 -10 9 -10 20 0 11 -7 20
-15 20 -8 0 -15 5 -15 10 0 6 -17 10 -38 10 -26 0 -42 -6 -52 -20 -8 -11 -25
-20 -37 -20 -13 0 -23 -4 -23 -10 0 -5 -9 -10 -20 -10 -11 0 -20 -4 -20 -10 0
-5 -7 -10 -16 -10 -29 0 -44 -27 -45 -82 -1 -29 -3 -45 -6 -35 -2 9 -11 17
-19 17 -8 0 -14 7 -14 16 0 9 -13 29 -30 44 -16 15 -30 35 -30 44 0 9 -7 16
-16 16 -9 0 -28 13 -42 28 -15 16 -36 32 -47 37 -15 8 -5 10 43 13 54 3 62 6
62 22 0 11 5 20 10 20 6 0 10 7 10 15 0 8 5 15 10 15 6 0 10 7 10 15 0 8 5 15
10 15 6 0 10 9 10 19 0 10 7 21 15 25 11 4 15 20 15 55 0 62 -7 81 -31 81 -10
0 -19 5 -19 10 0 6 -17 10 -37 10 -39 -1 -73 -19 -73 -39 0 -6 -4 -11 -10 -11
-5 0 -10 -9 -10 -20 0 -11 -4 -20 -10 -20 -5 0 -10 -8 -10 -18 0 -10 -9 -24
-20 -32 -16 -12 -20 -26 -20 -76 0 -41 4 -64 13 -67 6 -3 2 -6 -10 -6 -13 -1
-23 4 -23 9 0 6 -9 10 -20 10 -11 0 -20 5 -20 10 0 6 -18 10 -40 10 -22 0 -40
5 -40 10 0 6 -52 10 -135 10 -83 0 -135 -4 -135 -10 0 -5 -16 -10 -35 -10 -19
0 -35 -4 -35 -10 0 -5 -9 -10 -20 -10 -18 0 -20 7 -20 58 0 46 -4 60 -20 72
-11 8 -20 25 -20 37 0 13 -4 23 -10 23 -5 0 -10 9 -10 20 0 11 -4 20 -9 20 -5
0 -11 9 -14 20 -4 17 -13 20 -64 20 -37 -1 -62 -6 -70 -15z m114 -25 c3 -11 9
-20 14 -20 5 0 9 -9 9 -20 0 -11 5 -20 10 -20 6 0 10 -10 10 -23 0 -12 9 -29
20 -37 15 -11 20 -26 20 -57 0 -36 -3 -43 -20 -43 -11 0 -20 -4 -20 -10 0 -5
-16 -10 -35 -10 -28 0 -35 4 -35 20 0 11 -4 20 -10 20 -5 0 -10 9 -10 20 0 11
-4 20 -10 20 -5 0 -10 10 -10 23 0 12 -9 29 -20 37 -14 10 -20 26 -20 53 0 49
16 66 63 67 31 0 40 -4 44 -20z m793 10 c0 -5 9 -10 19 -10 10 0 22 -7 25 -16
11 -29 6 -75 -9 -80 -8 -4 -15 -15 -15 -25 0 -10 -4 -19 -10 -19 -5 0 -10 -7
-10 -15 0 -8 -4 -15 -10 -15 -5 0 -10 -7 -10 -15 0 -8 -4 -15 -10 -15 -5 0
-10 -9 -10 -20 0 -17 -7 -20 -41 -20 -22 0 -47 6 -55 14 -22 22 -18 89 6 106
11 8 20 22 20 32 0 10 5 18 10 18 6 0 10 9 10 20 0 11 5 20 10 20 6 0 10 5 10
11 0 16 31 38 53 39 9 0 17 -4 17 -10z m-330 -230 c0 -5 18 -10 40 -10 22 0
40 -4 40 -10 0 -5 9 -10 20 -10 11 0 20 -4 20 -10 0 -5 11 -10 25 -10 14 0 25
-5 25 -10 0 -6 8 -14 18 -17 9 -4 29 -19 44 -35 14 -15 33 -28 42 -28 9 0 16
-7 16 -16 0 -9 14 -29 30 -44 16 -15 30 -35 30 -44 0 -9 6 -16 14 -16 14 0 26
-29 26 -67 0 -14 6 -23 15 -23 10 0 15 -10 15 -30 0 -16 5 -30 10 -30 6 0 10
-53 10 -140 0 -87 -4 -140 -10 -140 -5 0 -10 -13 -10 -30 0 -20 -5 -30 -15
-30 -9 0 -15 -10 -15 -26 0 -30 -16 -63 -42 -85 -10 -9 -18 -24 -18 -33 0 -9
-4 -16 -8 -16 -5 0 -14 -11 -21 -24 -7 -13 -25 -30 -40 -37 -14 -8 -33 -22
-42 -31 -9 -10 -21 -18 -28 -18 -6 0 -11 -4 -11 -10 0 -5 -9 -10 -20 -10 -11
0 -20 -4 -20 -10 0 -5 -13 -10 -30 -10 -16 0 -30 -4 -30 -10 0 -5 -13 -10 -29
-10 -16 0 -31 -6 -35 -15 -8 -22 -254 -22 -262 0 -4 9 -19 15 -40 15 -19 0
-34 5 -34 10 0 6 -9 10 -20 10 -11 0 -20 5 -20 10 0 6 -11 10 -25 10 -14 0
-25 5 -25 10 0 6 -7 10 -15 10 -17 0 -145 124 -145 140 0 5 -4 10 -10 10 -5 0
-10 9 -10 20 0 11 -7 20 -15 20 -10 0 -16 16 -21 50 -4 32 -11 50 -20 50 -10
0 -14 13 -14 44 0 25 -4 48 -10 51 -13 8 -13 165 0 165 6 0 10 23 10 50 0 38
4 50 15 50 9 0 15 9 15 24 0 35 17 76 40 96 11 10 20 23 20 29 0 15 106 121
121 121 6 0 20 11 31 25 11 14 28 25 39 25 10 0 19 5 19 10 0 6 14 10 30 10
17 0 30 5 30 10 0 6 16 10 35 10 19 0 35 5 35 10 0 6 45 10 115 10 70 0 115
-4 115 -10z m-820 -60 c0 -5 11 -12 25 -16 14 -3 25 -10 25 -15 0 -5 9 -9 20
-9 11 0 20 -4 20 -10 0 -5 8 -10 18 -10 10 0 24 -9 32 -20 8 -11 22 -20 32
-20 13 0 18 -8 18 -25 0 -14 -4 -25 -10 -25 -5 0 -10 -7 -10 -16 0 -8 -6 -22
-14 -30 -17 -16 -56 -19 -56 -4 0 6 -9 10 -20 10 -11 0 -20 5 -20 10 0 6 -9
10 -20 10 -11 0 -20 5 -20 10 0 6 -7 10 -15 10 -8 0 -29 13 -45 29 -23 21 -30
37 -30 65 0 25 4 36 15 36 8 0 15 7 15 15 0 8 9 15 20 15 11 0 20 -4 20 -10z
m1460 -30 c0 -5 7 -10 15 -10 8 0 15 -9 15 -20 0 -11 5 -20 10 -20 6 0 10 -10
10 -21 0 -24 -26 -48 -52 -49 -10 0 -18 -4 -18 -10 0 -5 -8 -10 -18 -10 -10 0
-24 -9 -32 -20 -8 -11 -22 -20 -32 -20 -10 0 -18 -4 -18 -10 0 -15 -60 -12
-76 4 -8 8 -14 31 -14 51 0 38 18 65 44 65 9 0 16 5 16 10 0 6 9 10 20 10 11
0 20 5 20 10 0 6 10 10 23 10 12 0 29 9 37 20 15 21 50 28 50 10z m-1310 -735
c0 -14 5 -25 10 -25 15 0 12 -60 -4 -76 -8 -8 -22 -14 -30 -14 -9 0 -16 -4
-16 -10 0 -5 -9 -10 -20 -10 -11 0 -20 -4 -20 -10 0 -5 -7 -10 -15 -10 -8 0
-15 -4 -15 -10 0 -5 -9 -10 -20 -10 -11 0 -20 -4 -20 -10 0 -5 -16 -10 -35
-10 -28 0 -35 4 -35 19 0 11 -4 23 -10 26 -15 9 -12 54 4 71 8 8 24 14 35 14
12 0 21 5 21 10 0 6 8 10 18 10 10 0 24 9 32 20 8 11 22 20 32 20 10 0 18 7
18 15 0 10 11 15 35 15 31 0 35 -3 35 -25z m1170 -15 c0 -5 8 -10 18 -10 10 0
24 -9 32 -20 8 -11 22 -20 32 -20 10 0 18 -4 18 -10 0 -5 7 -10 15 -10 26 0
55 -33 55 -62 0 -16 -4 -28 -10 -28 -5 0 -10 -9 -10 -20 0 -16 -7 -20 -35 -20
-19 0 -35 5 -35 10 0 6 -9 10 -20 10 -11 0 -20 5 -20 10 0 6 -7 10 -15 10 -8
0 -15 5 -15 10 0 6 -9 10 -20 10 -11 0 -20 5 -20 10 0 6 -7 10 -16 10 -8 0
-22 6 -30 14 -16 16 -19 76 -4 76 6 0 10 9 10 20 0 16 7 20 35 20 19 0 35 -4
35 -10z m-110 -74 c0 -26 5 -46 13 -49 6 -3 -7 -6 -30 -6 -53 -1 -93 -37 -93
-84 -1 -27 -2 -29 -11 -14 -6 10 -23 17 -42 18 -18 0 -25 3 -17 6 8 4 22 13
30 22 8 9 27 22 41 30 15 7 33 24 40 37 7 13 16 24 21 24 4 0 8 7 8 15 0 17
20 44 33 45 4 0 7 -20 7 -44z m110 -98 c16 -17 20 -35 20 -85 0 -54 -4 -68
-25 -88 -21 -21 -33 -25 -89 -25 -56 0 -66 3 -71 20 -3 11 -13 20 -21 20 -11
0 -14 15 -14 65 0 55 3 68 25 90 22 22 35 25 90 25 53 0 68 -4 85 -22z m-320
-58 c0 -5 -4 -10 -10 -10 -5 0 -10 5 -10 10 0 6 5 10 10 10 6 0 10 -4 10 -10z
m-600 -15 c0 -8 5 -15 10 -15 6 0 10 -16 10 -35 0 -19 -4 -35 -10 -35 -5 0
-10 -9 -10 -20 0 -11 -4 -20 -10 -20 -5 0 -10 -8 -10 -18 0 -10 -9 -24 -20
-32 -11 -8 -20 -20 -20 -28 0 -7 -6 -20 -14 -28 -17 -16 -56 -19 -56 -4 0 6
-7 10 -16 10 -8 0 -22 6 -30 14 -16 17 -19 46 -4 46 6 0 10 7 10 15 0 8 5 15
10 15 6 0 10 9 10 20 0 11 5 20 10 20 6 0 10 9 10 20 0 11 5 20 10 20 6 0 10
9 10 20 0 11 5 20 10 20 6 0 10 7 10 15 0 11 12 15 45 15 33 0 45 -4 45 -15z
m673 -5 c9 -11 17 -27 17 -35 0 -8 5 -15 10 -15 6 0 10 -8 10 -18 0 -10 9 -24
20 -32 11 -8 20 -22 20 -32 0 -10 5 -18 10 -18 15 0 12 -60 -4 -76 -8 -8 -22
-14 -30 -14 -9 0 -16 -4 -16 -10 0 -19 -39 -10 -45 10 -3 11 -11 20 -16 20 -5
0 -9 9 -9 20 0 11 -4 20 -10 20 -5 0 -10 9 -10 20 0 11 -4 20 -10 20 -5 0 -10
9 -10 20 0 11 -4 20 -10 20 -5 0 -10 20 -10 45 0 37 3 45 19 45 10 0 21 7 25
15 8 21 28 19 49 -5z"/>
<path d="M745 1433 c-27 -8 -57 -21 -66 -29 -8 -8 -20 -14 -25 -14 -12 0 -100
-72 -101 -84 -1 -5 -7 -13 -15 -17 -7 -5 -8 -9 -2 -9 6 0 25 14 42 30 18 17
39 30 47 30 8 0 15 5 15 10 0 6 7 10 15 10 8 0 15 5 15 10 0 6 12 10 26 10 14
0 23 4 19 10 -4 6 7 10 24 10 17 0 31 5 31 10 0 6 16 10 35 10 19 0 35 -4 35
-10 0 -5 -11 -10 -25 -10 -14 0 -25 -4 -25 -10 0 -5 -13 -10 -30 -10 -16 0
-30 -4 -30 -10 0 -5 -9 -10 -20 -10 -11 0 -20 -4 -20 -10 0 -5 -7 -10 -15 -10
-8 0 -15 -4 -15 -10 0 -5 -6 -10 -12 -10 -12 0 -108 -86 -108 -96 0 -3 -15
-20 -32 -38 -54 -55 -69 -77 -66 -94 3 -18 13 -10 59 44 18 22 57 54 64 54 3
0 23 18 46 40 22 21 49 42 60 45 10 4 19 11 19 16 0 5 7 9 15 9 8 0 15 5 15
10 0 6 9 10 20 10 11 0 20 5 20 10 0 6 11 10 25 10 14 0 25 5 25 10 0 6 16 10
35 10 19 0 35 5 35 10 0 6 18 10 40 10 22 0 40 5 40 10 0 6 11 10 25 10 14 0
25 -4 25 -10 0 -5 -11 -10 -25 -10 -14 0 -25 -4 -25 -10 0 -5 -11 -10 -25 -10
-14 0 -25 -4 -25 -10 0 -5 -9 -10 -20 -10 -11 0 -20 -4 -20 -10 0 -5 -9 -10
-20 -10 -11 0 -20 -4 -20 -10 0 -5 -9 -10 -20 -10 -11 0 -20 -7 -20 -16 0 -8
-4 -13 -9 -10 -4 3 -21 -6 -37 -19 -16 -14 -34 -25 -39 -25 -6 0 -17 -9 -25
-20 -8 -11 -18 -20 -22 -20 -12 0 -118 -108 -118 -120 0 -5 -4 -10 -10 -10 -5
0 -10 -4 -10 -10 0 -9 -19 -35 -47 -65 -7 -8 -13 -21 -13 -29 0 -9 -6 -16 -14
-16 -8 0 -16 -13 -18 -30 -3 -21 0 -30 9 -30 18 0 43 24 43 42 0 8 9 20 20 28
11 8 20 20 20 27 0 7 5 13 10 13 6 0 10 5 10 11 0 14 94 109 109 109 6 0 11 5
11 10 0 6 6 10 13 10 7 0 19 9 27 20 8 11 22 20 32 20 10 0 18 5 18 10 0 6 9
10 20 10 11 0 20 5 20 10 0 6 9 10 20 10 11 0 20 5 20 10 0 6 11 10 25 10 14
0 25 5 25 10 0 6 10 10 23 10 12 0 30 7 40 15 11 7 25 11 32 9 7 -3 27 2 44
10 40 21 111 22 111 1 0 -10 -11 -15 -35 -15 -19 0 -35 -4 -35 -10 0 -5 -9
-10 -20 -10 -11 0 -20 -4 -20 -10 0 -5 -13 -10 -30 -10 -16 0 -30 -4 -30 -10
0 -5 -9 -10 -20 -10 -11 0 -20 -4 -20 -10 0 -5 -7 -10 -15 -10 -8 0 -15 -4
-15 -10 0 -5 -9 -10 -20 -10 -11 0 -20 -4 -20 -10 0 -5 -8 -10 -18 -10 -10 0
-24 -9 -32 -20 -8 -11 -20 -20 -28 -20 -13 0 -142 -126 -142 -139 0 -4 -16
-24 -35 -44 -19 -20 -35 -44 -35 -52 0 -8 -4 -15 -10 -15 -5 0 -10 -9 -10 -21
0 -11 -4 -17 -10 -14 -5 3 -10 -3 -10 -14 0 -12 -4 -21 -10 -21 -5 0 -10 -9
-10 -20 0 -11 -6 -20 -13 -20 -7 0 -13 -9 -14 -20 -1 -12 4 -20 13 -20 8 0 19
-10 24 -22 7 -20 9 -17 9 17 2 89 163 302 297 393 72 49 190 112 210 112 8 0
14 5 14 10 0 6 7 10 15 10 8 0 23 4 33 9 9 5 25 12 35 15 24 7 32 33 17 51
-14 17 -150 22 -150 5 0 -5 -15 -10 -34 -10 -19 0 -38 -4 -41 -10 -3 -5 -17
-10 -31 -10 -13 0 -24 -4 -24 -10 0 -5 -12 -9 -27 -9 -22 1 -23 2 -8 6 11 3
22 8 25 12 9 11 91 51 105 51 8 0 18 6 22 13 4 8 16 16 26 20 10 4 17 17 17
32 0 23 -4 25 -40 25 -22 0 -40 -4 -40 -8 0 -5 -20 -9 -45 -11 -39 -2 -45 1
-45 17 0 34 -29 39 -105 15z"/>
<path d="M70 965 l0 -75 150 0 150 0 0 75 0 75 -150 0 -150 0 0 -75z m280 0
l0 -55 -130 0 -130 0 0 55 0 55 130 0 130 0 0 -55z"/>
<path d="M1570 965 l0 -75 150 0 150 0 0 75 0 75 -150 0 -150 0 0 -75z m280 0
l0 -55 -130 0 -130 0 0 55 0 55 130 0 130 0 0 -55z"/>
<path d="M880 205 l0 -145 80 0 80 0 0 145 0 145 -80 0 -80 0 0 -145z m140 0
l0 -125 -60 0 -60 0 0 125 0 125 60 0 60 0 0 -125z"/>
</g>
</svg>
