<?xml version="1.0" standalone="no"?>
<!DOCTYPE svg PUBLIC "-//W3C//DTD SVG 20010904//EN"
 "http://www.w3.org/TR/2001/REC-SVG-20010904/DTD/svg10.dtd">
<svg version="1.0" xmlns="http://www.w3.org/2000/svg"
 width="180.000000pt" height="180.000000pt" viewBox="0 0 180.000000 180.000000"
 preserveAspectRatio="xMidYMid meet">
<metadata>
Created by potrace 1.16, written by Peter Selinger 2001-2019
</metadata>
<g transform="translate(0.000000,180.000000) scale(0.100000,-0.100000)"
fill="#000000" stroke="none">
<path d="M885 1401 c-50 -13 -102 -38 -150 -71 -49 -34 -115 -114 -114 -139 0
-13 2 -13 12 3 35 55 116 129 172 157 226 111 490 -4 569 -248 19 -60 24 -129
9 -126 -6 1 -13 -20 -17 -46 -6 -47 -85 -222 -86 -190 0 8 12 40 26 69 14 30
30 84 36 120 5 36 14 73 19 82 11 21 12 31 2 25 -5 -3 -9 15 -10 40 -4 90 -99
209 -208 260 -53 25 -71 28 -160 28 -89 0 -107 -3 -160 -28 -68 -32 -134 -92
-172 -156 -32 -55 -56 -152 -41 -166 7 -7 9 -6 5 1 -7 12 22 111 38 132 5 7
20 23 32 34 12 12 20 24 18 28 -7 11 22 20 43 14 14 -5 15 -4 2 5 -13 9 -12
12 5 26 11 8 49 30 85 47 57 29 74 33 145 33 66 -1 90 -5 140 -28 204 -95 272
-336 145 -522 -11 -16 -20 -37 -20 -45 0 -8 -21 -29 -47 -46 -136 -89 -301
-90 -431 -3 -24 16 -47 29 -52 29 -5 0 -14 8 -19 18 -8 13 -11 14 -11 2 -1
-30 -80 144 -86 191 -7 49 -24 59 -24 13 0 -16 -4 -23 -11 -18 -18 11 -5 153
20 209 12 27 20 50 17 52 -7 7 -101 -73 -129 -110 -16 -21 -40 -63 -55 -95
-24 -51 -27 -69 -27 -167 0 -102 2 -115 31 -175 39 -82 83 -133 156 -181 191
-123 442 -75 577 111 16 23 47 54 68 69 60 44 113 108 146 179 26 57 31 79 33
161 2 52 -1 100 -5 106 -5 5 -12 24 -16 42 -9 44 -73 141 -120 182 -22 19 -69
48 -105 65 -55 26 -78 31 -155 33 -49 1 -103 -2 -120 -6z m-344 -353 c-4 -26
-7 -58 -5 -70 1 -13 3 -30 3 -38 1 -8 12 -27 26 -42 14 -15 25 -33 25 -40 0
-44 106 -199 123 -181 4 3 0 15 -10 25 -26 29 -6 21 44 -17 140 -107 336 -107
477 1 57 44 61 30 4 -17 -22 -19 -54 -46 -69 -60 -19 -19 -47 -30 -94 -39 -60
-11 -97 -10 -190 5 -30 5 -30 5 5 -11 40 -19 132 -23 203 -10 57 10 65 -7 11
-24 -62 -21 -199 -9 -268 23 -113 52 -203 151 -241 268 -20 59 -37 57 -23 -3
13 -60 54 -136 96 -180 l36 -38 -106 0 c-99 0 -107 1 -120 23 -82 128 -63 320
43 442 18 20 33 34 34 33 2 -2 0 -24 -4 -50z m208 -487 c61 -39 126 -60 211
-67 64 -6 69 -8 50 -21 -41 -29 -133 -53 -202 -53 -107 0 -227 57 -296 142
l-24 28 108 0 c101 0 110 -2 153 -29z"/>
<path d="M732 654 c10 -10 20 -16 22 -13 3 3 -5 11 -17 18 -21 13 -21 12 -5
-5z"/>
<path d="M750 1188 c-104 -103 -134 -235 -78 -348 95 -191 321 -257 501 -144
51 32 55 37 61 83 8 60 -13 171 -44 232 -30 59 -110 140 -168 172 -52 28 -149
57 -193 57 -18 0 -42 -16 -79 -52z m187 0 c130 -48 224 -151 259 -283 20 -73
18 -145 -3 -162 -114 -90 -257 -105 -364 -37 -85 53 -159 164 -159 237 0 54
30 139 64 182 72 92 102 101 203 63z"/>
</g>
</svg>
