<?xml version="1.0" standalone="no"?>
<!DOCTYPE svg PUBLIC "-//W3C//DTD SVG 20010904//EN"
 "http://www.w3.org/TR/2001/REC-SVG-20010904/DTD/svg10.dtd">
<svg version="1.0" xmlns="http://www.w3.org/2000/svg"
 width="181.000000pt" height="181.000000pt" viewBox="0 0 181.000000 181.000000"
 preserveAspectRatio="xMidYMid meet">
<metadata>
Created by potrace 1.16, written by Peter Selinger 2001-2019
</metadata>
<g transform="translate(0.000000,181.000000) scale(0.100000,-0.100000)"
fill="#000000" stroke="none">
<path d="M1210 1535 c-30 -9 -93 -33 -139 -56 -89 -42 -241 -137 -241 -151 0
-14 163 -8 214 7 75 23 164 20 217 -8 54 -29 99 -107 99 -171 0 -111 -64 -258
-171 -390 -37 -47 -64 -88 -60 -91 5 -2 32 2 60 11 42 12 60 25 101 75 266
319 345 648 183 759 -29 20 -49 24 -121 27 -56 2 -107 -3 -142 -12z m244 -36
c43 -29 74 -83 82 -140 13 -98 -60 -289 -176 -459 -66 -95 -156 -198 -165
-188 -3 3 16 35 43 71 171 225 190 486 43 564 -36 19 -60 23 -126 23 -45 0
-104 -7 -131 -15 -27 -8 -69 -15 -94 -15 l-45 1 55 35 c77 50 225 121 290 139
79 21 180 14 224 -16z"/>
<path d="M755 1273 c-322 -27 -595 -146 -661 -287 -44 -94 -28 -156 61 -243
65 -64 100 -78 112 -45 3 9 23 55 44 101 22 46 39 96 39 110 1 102 141 220
315 266 189 49 388 40 568 -27 71 -26 82 -19 70 43 -8 42 -11 45 -56 56 -105
26 -344 39 -492 26z m318 -24 c59 -6 128 -16 154 -22 42 -11 48 -16 51 -41 3
-25 1 -28 -15 -21 -10 5 -57 18 -104 31 -208 55 -462 36 -634 -46 -112 -54
-194 -147 -195 -221 0 -14 -18 -65 -40 -112 -22 -47 -40 -90 -40 -96 0 -23
-25 -9 -81 47 -76 76 -89 120 -58 192 85 199 531 333 962 289z"/>
<path d="M612 1109 c-99 -49 -257 -281 -323 -474 -18 -53 -24 -91 -24 -161 0
-82 3 -94 28 -132 15 -23 46 -51 70 -64 85 -45 252 -21 410 58 67 34 207 126
207 136 0 14 -161 9 -239 -7 -100 -21 -166 -8 -220 43 -69 66 -78 171 -26 308
29 77 116 212 169 263 20 19 36 39 36 43 0 15 -45 8 -88 -13z m-37 -94 c-191
-267 -181 -533 22 -576 46 -9 73 -9 133 1 41 7 102 15 135 17 l60 4 -55 -36
c-133 -88 -285 -146 -384 -147 -78 -1 -136 27 -173 84 -24 36 -28 52 -28 112
1 121 72 292 193 459 46 65 134 157 148 157 2 0 -21 -34 -51 -75z"/>
<path d="M1521 1017 c-28 -57 -51 -112 -51 -123 -1 -66 -85 -161 -190 -214
-186 -94 -486 -104 -686 -24 -35 14 -68 22 -74 19 -13 -8 -13 -61 0 -85 19
-35 182 -60 392 -60 334 0 623 83 758 218 82 82 98 146 59 232 -23 50 -112
140 -139 140 -12 0 -33 -31 -69 -103z m117 38 c22 -20 53 -60 67 -89 37 -75
25 -118 -55 -198 -133 -132 -426 -218 -743 -218 -121 0 -314 22 -346 39 -18
10 -38 48 -29 57 2 2 28 -5 56 -16 95 -36 225 -53 367 -47 204 8 351 57 452
150 46 42 82 104 83 141 0 21 91 215 101 216 3 0 24 -16 47 -35z"/>
</g>
</svg>
