<?xml version="1.0" standalone="no"?>
<!DOCTYPE svg PUBLIC "-//W3C//DTD SVG 20010904//EN"
 "http://www.w3.org/TR/2001/REC-SVG-20010904/DTD/svg10.dtd">
<svg version="1.0" xmlns="http://www.w3.org/2000/svg"
 width="100.000000pt" height="100.000000pt" viewBox="0 0 100.000000 100.000000"
 preserveAspectRatio="xMidYMid meet">
<metadata>
Created by potrace 1.16, written by Peter Selinger 2001-2019
</metadata>
<g transform="translate(0.000000,100.000000) scale(0.100000,-0.100000)"
fill="#000000" stroke="none">
<path d="M122 993 c-18 -3 -36 -12 -39 -20 -8 -21 -35 -48 -56 -56 -10 -4 -17
-17 -17 -31 0 -13 -3 -31 -6 -40 -4 -11 -1 -16 10 -16 12 0 16 10 16 35 0 28
4 35 20 35 11 0 20 7 20 15 0 8 7 15 15 15 8 0 15 9 15 20 0 16 7 20 35 20 24
0 35 5 35 15 0 8 -3 14 -7 13 -5 0 -23 -3 -41 -5z"/>
<path d="M830 986 c0 -12 10 -16 35 -16 28 0 35 -4 35 -20 0 -11 7 -20 15 -20
8 0 15 -7 15 -15 0 -8 9 -15 20 -15 16 0 20 -7 20 -35 0 -25 4 -35 16 -35 11
0 14 5 10 16 -3 9 -6 27 -6 40 0 14 -7 27 -17 31 -21 8 -48 35 -56 56 -4 10
-17 17 -31 17 -13 0 -31 3 -40 6 -11 4 -16 1 -16 -10z"/>
<path d="M691 947 c-8 -16 -21 -22 -46 -23 -19 0 -33 4 -32 10 1 7 -30 12 -89
14 -72 2 -94 0 -104 -13 -7 -8 -23 -15 -37 -15 -13 0 -26 -7 -29 -15 -4 -8
-15 -15 -25 -15 -12 0 -19 -7 -19 -20 0 -11 -7 -20 -15 -20 -8 0 -15 -7 -15
-15 0 -9 -7 -18 -15 -21 -9 -4 -15 -19 -15 -39 0 -18 -6 -36 -12 -38 -10 -4
-10 -6 0 -6 17 -1 17 -98 0 -104 -10 -4 -10 -6 0 -6 7 -1 12 -15 12 -34 0 -51
66 -137 106 -137 13 0 24 -8 27 -20 5 -19 34 -26 92 -22 16 2 17 0 5 -7 -20
-14 -9 -21 34 -23 23 -1 36 -6 36 -15 0 -7 6 -13 14 -13 8 0 17 -6 19 -12 4
-10 8 -10 15 1 7 9 9 -12 9 -66 l-1 -79 -78 -3 c-65 -2 -78 0 -78 13 0 9 -4
16 -10 16 -15 0 -50 38 -50 55 0 9 -9 15 -22 15 -18 0 -20 2 -8 10 12 7 10 13
-12 33 -14 13 -28 33 -30 43 -2 15 -12 18 -43 18 -33 -1 -34 0 -7 3 17 2 32 9
32 14 0 12 -59 2 -78 -14 -10 -7 -12 -51 -12 -173 2 -172 2 -174 51 -174 11 0
17 -4 14 -10 -10 -16 13 -11 35 7 11 9 15 20 10 23 -5 3 9 5 30 5 23 0 42 -5
44 -12 6 -15 236 -19 236 -4 0 5 -5 11 -11 13 -6 2 7 4 30 5 42 2 101 36 101
60 0 7 7 13 15 13 17 0 39 36 30 50 -3 6 1 10 9 10 17 0 18 7 17 174 -1 70 -4
92 -16 98 -8 5 -15 16 -15 23 0 8 -9 15 -20 15 -11 0 -20 7 -20 15 0 8 -6 15
-13 15 -7 0 -18 9 -25 20 -7 11 -22 20 -34 20 -12 0 -29 7 -39 16 -10 9 -34
16 -53 17 -22 1 -36 6 -36 14 0 8 -12 13 -30 13 -23 0 -30 4 -30 20 0 18 -10
25 -32 21 -5 0 -8 26 -8 60 l0 60 65 -3 c44 -2 65 -7 65 -15 0 -7 7 -13 15
-13 8 0 15 -7 15 -15 0 -8 9 -15 20 -15 11 0 20 -4 20 -10 0 -5 -4 -10 -10
-10 -5 0 -10 -5 -10 -12 0 -6 3 -8 6 -5 9 9 44 -38 44 -58 0 -38 74 -61 99
-31 8 10 11 59 9 160 -2 92 1 146 7 147 19 1 -30 18 -60 20 l-30 2 35 7 35 7
-36 2 c-28 1 -38 -4 -48 -22z m-128 -24 c-23 -2 -64 -2 -90 0 -26 2 -7 3 42 3
50 0 71 -1 48 -3z m207 -123 l0 -130 -35 0 -35 0 0 50 c0 29 -5 50 -11 50 -6
0 -8 -9 -4 -20 4 -11 2 -20 -4 -20 -6 0 -11 16 -11 35 0 28 -4 35 -20 35 -11
0 -20 7 -20 15 0 12 -18 15 -100 15 -82 0 -100 -3 -100 -15 0 -8 -4 -15 -10
-15 -5 0 -7 7 -4 15 4 8 1 15 -5 15 -7 0 -11 -28 -11 -80 0 -64 3 -80 15 -80
8 0 15 -9 15 -20 0 -16 7 -20 35 -20 19 0 35 -5 35 -11 0 -6 -7 -9 -15 -5 -8
3 -15 1 -15 -4 0 -6 29 -10 65 -10 36 0 65 -4 65 -8 0 -5 -16 -8 -35 -7 -19 0
-35 -3 -35 -7 0 -4 32 -8 70 -8 56 0 70 -3 70 -15 0 -13 -4 -14 -20 -5 -16 9
-20 8 -20 -5 0 -11 10 -15 35 -15 24 0 35 -5 35 -15 0 -8 7 -15 15 -15 8 0 15
-7 15 -15 0 -8 9 -15 20 -15 19 0 20 -7 20 -135 0 -128 -1 -135 -20 -135 -11
0 -20 -7 -20 -15 0 -8 -7 -15 -15 -15 -8 0 -15 -9 -15 -20 0 -16 -7 -20 -35
-20 -26 0 -35 4 -35 17 0 9 -3 14 -6 10 -3 -3 -3 -15 1 -27 5 -15 12 -19 26
-15 11 4 19 2 19 -4 0 -8 -65 -11 -201 -11 l-200 0 2 122 c1 79 -2 123 -9 126
-14 4 -21 -255 -8 -269 6 -6 4 -9 -7 -9 -15 0 -17 15 -17 150 l0 150 35 0 35
0 0 -50 c0 -27 4 -50 10 -50 5 0 7 7 4 15 -4 8 -1 15 5 15 6 0 11 -16 11 -35
0 -28 4 -35 20 -35 11 0 20 -7 20 -15 0 -8 7 -15 15 -15 8 0 15 -7 15 -15 0
-12 19 -15 115 -15 96 0 115 3 115 15 0 8 7 15 16 15 14 0 14 -3 4 -15 -10
-12 -10 -15 4 -15 9 0 16 -5 16 -11 0 -5 5 -7 12 -3 9 6 9 9 0 12 -8 2 -12 35
-12 103 0 87 -2 99 -17 99 -13 0 -14 -3 -5 -12 16 -16 15 -28 -3 -28 -8 0 -15
9 -15 20 0 11 -7 20 -15 20 -8 0 -15 7 -15 15 0 11 -13 15 -52 16 -42 0 -48 2
-30 9 12 5 29 7 37 4 8 -4 15 -1 15 5 0 7 -25 11 -70 11 -45 0 -70 4 -70 11 0
6 9 9 20 6 11 -3 20 -1 20 4 0 4 7 6 15 3 8 -4 15 -1 15 5 0 7 -24 11 -65 11
-41 0 -65 4 -65 11 0 6 7 9 15 5 8 -3 15 -1 15 4 0 6 -16 10 -35 10 -24 0 -35
5 -35 15 0 8 -7 15 -15 15 -13 0 -15 22 -15 135 0 113 2 135 15 135 8 0 15 7
15 15 0 8 9 15 20 15 13 0 20 7 20 20 0 16 7 20 30 20 21 0 30 -5 30 -16 0
-14 3 -14 16 -3 9 7 18 9 22 3 9 -11 102 -12 102 0 0 5 7 3 15 -4 12 -10 15
-10 15 4 0 13 11 16 50 16 28 0 50 4 50 9 0 6 -19 8 -42 5 -113 -13 -228 -15
-228 -5 0 6 -7 8 -15 5 -8 -4 -15 -1 -15 5 0 8 51 11 165 11 l165 0 0 -99 c0
-68 -4 -101 -12 -103 -7 -3 -8 -7 -2 -11 25 -15 33 12 35 118 2 106 1 110 -20
111 -38 2 -36 14 2 14 l37 0 0 -130z m-410 66 c0 -2 -7 -9 -15 -16 -12 -10
-15 -10 -15 4 0 9 7 16 15 16 8 0 15 -2 15 -4z m-40 -40 c0 -3 -4 -8 -10 -11
-5 -3 -10 -1 -10 4 0 6 5 11 10 11 6 0 10 -2 10 -4z m295 -16 c3 -5 1 -10 -4
-10 -6 0 -11 5 -11 10 0 6 2 10 4 10 3 0 8 -4 11 -10z m-188 -82 c-2 -13 -4
-3 -4 22 0 25 2 35 4 23 2 -13 2 -33 0 -45z m228 52 c3 -5 -1 -10 -9 -10 -9 0
-16 5 -16 10 0 6 4 10 9 10 6 0 13 -4 16 -10z m-367 -110 c-1 -55 -5 -100 -9
-100 -5 0 -9 45 -9 100 0 55 4 100 9 100 5 0 9 -45 9 -100z m142 20 c0 -5 -2
-10 -4 -10 -3 0 -8 5 -11 10 -3 6 -1 10 4 10 6 0 11 -4 11 -10z m40 -36 c0
-14 -3 -14 -15 -4 -8 7 -15 14 -15 16 0 2 7 4 15 4 8 0 15 -7 15 -16z m300
-14 c0 -5 -16 -10 -35 -10 -19 0 -35 5 -35 10 0 6 16 10 35 10 19 0 35 -4 35
-10z m-70 -80 c0 -5 -2 -10 -4 -10 -3 0 -8 5 -11 10 -3 6 -1 10 4 10 6 0 11
-4 11 -10z m30 -40 c0 -5 -2 -10 -4 -10 -3 0 -8 5 -11 10 -3 6 -1 10 4 10 6 0
11 -4 11 -10z m40 -30 c0 -5 -4 -10 -9 -10 -6 0 -13 5 -16 10 -3 6 1 10 9 10
9 0 16 -4 16 -10z m27 -42 c-3 -8 -6 -5 -6 6 -1 11 2 17 5 13 3 -3 4 -12 1
-19z m-377 -8 c0 -5 -4 -10 -10 -10 -5 0 -10 5 -10 10 0 6 5 10 10 10 6 0 10
-4 10 -10z m379 -112 c0 -71 -3 -94 -9 -76 -11 36 -9 178 2 178 4 0 8 -46 7
-102z m-152 -68 c1 -27 -3 -50 -8 -50 -5 0 -9 25 -9 56 0 30 4 53 8 50 5 -3 9
-28 9 -56z m-277 -6 c0 -14 -3 -14 -15 -4 -8 7 -15 14 -15 16 0 2 7 4 15 4 8
0 15 -7 15 -16z m30 -34 c0 -5 -2 -10 -4 -10 -3 0 -8 5 -11 10 -3 6 -1 10 4
10 6 0 11 -4 11 -10z m30 -30 c0 -5 -2 -10 -4 -10 -3 0 -8 5 -11 10 -3 6 -1
10 4 10 6 0 11 -4 11 -10z m340 -10 c0 -5 -5 -10 -11 -10 -5 0 -7 5 -4 10 3 6
8 10 11 10 2 0 4 -4 4 -10z m-40 -40 c0 -5 -5 -10 -11 -10 -5 0 -7 5 -4 10 3
6 8 10 11 10 2 0 4 -4 4 -10z m-430 -60 c0 -5 -7 -10 -15 -10 -8 0 -15 5 -15
10 0 6 7 10 15 10 8 0 15 -4 15 -10z m253 -7 c-29 -2 -77 -2 -105 0 -29 2 -6
3 52 3 58 0 81 -1 53 -3z"/>
<path d="M357 803 c6 -5 14 -31 16 -58 l4 -50 -1 54 c-1 39 -5 56 -16 58 -10
3 -11 2 -3 -4z"/>
<path d="M310 561 c0 -6 5 -13 10 -16 6 -3 10 1 10 9 0 9 -4 16 -10 16 -5 0
-10 -4 -10 -9z"/>
<path d="M600 540 c0 -5 5 -10 10 -10 6 0 10 5 10 10 0 6 -4 10 -10 10 -5 0
-10 -4 -10 -10z"/>
<path d="M340 526 c0 -2 7 -6 15 -10 8 -3 15 -1 15 4 0 6 -7 10 -15 10 -8 0
-15 -2 -15 -4z"/>
<path d="M730 440 c0 -5 5 -10 10 -10 6 0 10 5 10 10 0 6 -4 10 -10 10 -5 0
-10 -4 -10 -10z"/>
<path d="M615 390 c3 -5 8 -10 11 -10 2 0 4 5 4 10 0 6 -5 10 -11 10 -5 0 -7
-4 -4 -10z"/>
<path d="M693 265 c0 -22 2 -30 4 -17 2 12 2 30 0 40 -3 9 -5 -1 -4 -23z"/>
<path d="M730 260 c0 -5 5 -10 10 -10 6 0 10 5 10 10 0 6 -4 10 -10 10 -5 0
-10 -4 -10 -10z"/>
<path d="M296 235 c-3 -9 -5 -33 -5 -53 2 -33 2 -32 9 13 8 53 6 66 -4 40z"/>
<path d="M730 220 c0 -5 5 -10 10 -10 6 0 10 5 10 10 0 6 -4 10 -10 10 -5 0
-10 -4 -10 -10z"/>
<path d="M330 210 c0 -5 5 -10 11 -10 5 0 7 5 4 10 -3 6 -8 10 -11 10 -2 0 -4
-4 -4 -10z"/>
<path d="M330 160 c0 -5 5 -10 10 -10 6 0 10 5 10 10 0 6 -4 10 -10 10 -5 0
-10 -4 -10 -10z"/>
<path d="M428 142 c-4 -15 4 -17 84 -14 59 2 88 7 88 15 0 8 -22 12 -65 12
-36 0 -65 -4 -65 -8 0 -4 -9 -3 -19 2 -15 8 -20 7 -23 -7z"/>
<path d="M300 122 c0 -4 23 -8 50 -8 28 0 50 4 50 8 0 4 -22 8 -50 8 -27 0
-50 -4 -50 -8z"/>
<path d="M223 675 c0 -22 2 -30 4 -17 2 12 2 30 0 40 -3 9 -5 -1 -4 -23z"/>
<path d="M831 344 c0 -11 3 -14 6 -6 3 7 2 16 -1 19 -3 4 -6 -2 -5 -13z"/>
<path d="M4 154 c3 -9 6 -27 6 -40 0 -14 7 -27 17 -31 21 -8 48 -35 56 -56 4
-10 17 -17 31 -17 13 0 31 -3 40 -6 11 -4 16 -1 16 10 0 12 -10 16 -35 16 -28
0 -35 4 -35 20 0 11 -7 20 -15 20 -8 0 -15 7 -15 15 0 8 -9 15 -20 15 -16 0
-20 7 -20 35 0 25 -4 35 -16 35 -11 0 -14 -5 -10 -16z"/>
<path d="M970 135 c0 -28 -4 -35 -20 -35 -11 0 -20 -7 -20 -15 0 -8 -7 -15
-15 -15 -8 0 -15 -9 -15 -20 0 -16 -7 -20 -35 -20 -25 0 -35 -4 -35 -16 0 -11
5 -14 16 -10 9 3 27 6 40 6 14 0 27 7 31 17 8 21 35 48 56 56 10 4 17 17 17
31 0 13 3 31 6 40 4 11 1 16 -10 16 -12 0 -16 -10 -16 -35z"/>
</g>
</svg>
