<?xml version="1.0" standalone="no"?>
<!DOCTYPE svg PUBLIC "-//W3C//DTD SVG 20010904//EN"
 "http://www.w3.org/TR/2001/REC-SVG-20010904/DTD/svg10.dtd">
<svg version="1.0" xmlns="http://www.w3.org/2000/svg"
 width="256.000000pt" height="256.000000pt" viewBox="0 0 256.000000 256.000000"
 preserveAspectRatio="xMidYMid meet">
<metadata>
Created by potrace 1.16, written by Peter Selinger 2001-2019
</metadata>
<g transform="translate(0.000000,256.000000) scale(0.100000,-0.100000)"
fill="#000000" stroke="none">
<path d="M480 2546 c0 -2 7 -7 16 -10 8 -3 12 -2 9 4 -6 10 -25 14 -25 6z"/>
<path d="M1920 2535 c0 0 13 -31 29 -70 16 -38 46 -108 66 -155 20 -47 43
-101 50 -120 7 -19 36 -87 65 -150 28 -63 65 -149 82 -190 16 -41 39 -95 50
-120 11 -25 40 -92 65 -150 24 -58 59 -139 77 -180 19 -41 46 -106 62 -145 15
-38 31 -74 35 -80 4 -5 10 -25 14 -42 3 -18 11 -33 17 -33 6 0 7 7 4 16 -3 9
-6 331 -6 717 l0 702 -305 0 c-168 0 -305 0 -305 0z m304 -35 c137 0 253 -3
257 -6 5 -3 9 0 9 5 0 6 4 11 10 11 6 0 9 -242 10 -647 0 -356 -2 -644 -5
-641 -3 3 -7 286 -8 629 l-2 624 -2 -597 c-2 -336 -7 -598 -12 -598 -11 0 -23
63 -15 83 6 16 -23 83 -32 74 -3 -3 2 -19 10 -36 18 -34 19 -41 8 -41 -17 0
-74 182 -65 208 4 13 2 12 -11 -3 -15 -19 -16 -19 -6 9 9 24 8 27 -3 18 -10
-9 -17 -1 -32 38 -11 28 -23 50 -27 50 -4 0 -3 11 2 25 10 27 3 85 -11 85 -12
0 -11 -17 2 -39 9 -13 9 -22 0 -37 -12 -18 -12 -18 -8 3 3 12 2 23 -2 25 -10
5 -42 80 -37 86 3 3 8 -3 12 -12 3 -9 10 -16 15 -16 15 0 -14 38 -32 43 -11 3
-20 19 -24 41 -4 20 -11 34 -15 31 -4 -3 -7 10 -6 29 1 25 -2 32 -13 28 -10
-4 -13 -1 -8 11 3 8 3 17 -2 19 -4 2 -17 22 -29 46 -12 24 -18 41 -13 38 14
-9 23 11 15 36 l-6 21 -15 -24 c-13 -23 -14 -23 -10 -2 3 12 2 23 -2 25 -23
11 -94 198 -80 213 15 15 10 28 -5 16 -11 -9 -16 -9 -21 0 -4 6 -1 15 6 20 11
7 10 9 -3 9 -11 0 -18 8 -18 20 0 11 -4 20 -10 20 -5 0 -10 7 -10 15 0 9 -8
28 -17 43 -13 20 -14 24 -3 15 11 -8 89 -12 264 -13z"/>
<path d="M2063 2343 c-7 -15 -9 -32 -4 -40 6 -11 10 -4 14 23 8 46 5 50 -10
17z"/>
<path d="M2220 1946 c0 -8 4 -17 9 -20 5 -4 7 3 4 14 -6 23 -13 26 -13 6z"/>
<path d="M2466 1427 c3 -10 9 -15 12 -12 3 3 0 11 -7 18 -10 9 -11 8 -5 -6z"/>
<path d="M505 2492 c-117 -89 -161 -192 -153 -357 5 -85 9 -104 42 -171 60
-120 177 -208 516 -387 l126 -66 124 282 c68 155 150 343 183 417 32 74 77
174 98 223 21 48 39 89 39 92 0 3 -208 5 -462 5 l-463 0 -50 -38z m939 3 c-4
-8 -12 -15 -19 -15 -17 0 -25 -23 -18 -51 4 -15 3 -20 -5 -15 -8 5 -12 -2 -12
-21 0 -21 -3 -24 -10 -13 -6 10 -9 6 -8 -16 1 -38 -8 -54 -30 -54 -14 0 -14
-2 -3 -9 15 -10 7 -31 -13 -31 -12 0 -49 -70 -41 -79 3 -2 11 10 17 27 7 18
16 32 20 32 11 0 11 -1 -11 -46 -38 -79 -81 -183 -81 -194 0 -6 -5 -8 -12 -4
-8 5 -9 0 -6 -14 4 -12 2 -20 -3 -16 -5 3 -9 -3 -9 -14 0 -10 -9 -29 -20 -42
-12 -14 -18 -32 -15 -44 3 -12 -2 -6 -11 13 -8 18 -17 31 -20 28 -3 -3 -1 -14
5 -25 12 -22 5 -52 -12 -52 -6 0 -7 -3 -4 -6 4 -4 13 -1 21 5 12 10 14 9 9 -8
-3 -12 -10 -18 -16 -14 -6 4 -8 -2 -5 -15 4 -12 2 -20 -3 -16 -5 3 -9 -1 -9
-8 -1 -7 -7 -26 -15 -43 -13 -26 -14 -27 -9 -5 l5 25 -15 -25 c-18 -30 -23
-65 -5 -40 12 16 11 14 -15 -46 -10 -24 -29 -47 -43 -53 -14 -7 -23 -14 -20
-18 4 -3 13 0 21 6 12 10 15 9 13 -7 -1 -19 -3 -19 -41 -6 -22 8 -43 18 -46
22 -3 4 -36 21 -73 39 -40 18 -63 33 -55 37 7 3 1 4 -14 2 -15 -1 -26 0 -23 4
2 3 -20 19 -50 35 -30 15 -52 32 -49 36 8 14 26 10 18 -3 -4 -7 -5 -11 -1 -8
16 14 9 25 -15 25 -15 1 -24 -3 -21 -8 3 -5 -3 -4 -14 2 -15 7 -20 19 -18 45
1 26 -2 33 -13 28 -9 -3 -13 -1 -9 4 3 5 -4 10 -15 10 -18 0 -17 -3 7 -22 l28
-22 -26 1 c-14 1 -23 5 -21 8 2 4 -3 12 -11 19 -8 7 -15 9 -15 5 0 -5 -9 0
-20 10 -11 10 -20 24 -20 32 0 7 -7 13 -16 13 -9 0 -23 8 -31 18 -8 9 -11 11
-7 3 5 -9 3 -12 -5 -7 -6 4 -9 11 -6 15 2 5 -5 19 -16 32 -29 34 -48 84 -42
111 4 18 3 20 -6 8 -9 -12 -11 -11 -12 10 0 14 -2 57 -5 95 -3 50 -2 66 6 55
8 -11 9 -4 5 25 -5 30 -1 47 14 70 12 17 21 26 21 21 0 -20 29 30 30 50 0 12
7 25 16 28 9 3 14 12 11 20 -4 9 2 12 18 9 17 -4 24 1 28 17 4 16 11 21 22 16
10 -4 14 -2 9 5 -4 6 0 15 7 20 8 5 211 9 451 9 385 0 437 -2 432 -15z m-22
-47 c-7 -7 -12 -8 -12 -2 0 6 3 14 7 17 3 4 9 5 12 2 2 -3 -1 -11 -7 -17z
m-988 -82 c-3 -9 -10 -16 -15 -16 -6 0 -5 9 1 21 13 24 24 20 14 -5z"/>
<path d="M1365 2440 c0 -22 3 -40 8 -40 9 0 9 52 -1 67 -5 7 -8 -4 -7 -27z"/>
<path d="M552 2440 c0 -14 2 -19 5 -12 2 6 2 18 0 25 -3 6 -5 1 -5 -13z"/>
<path d="M460 2372 c0 -17 3 -33 8 -35 9 -6 8 50 -1 60 -4 3 -7 -8 -7 -25z"/>
<path d="M391 2274 c0 -11 3 -14 6 -6 3 7 2 16 -1 19 -3 4 -6 -2 -5 -13z"/>
<path d="M1280 2279 c0 -5 5 -7 10 -4 6 3 10 8 10 11 0 2 -4 4 -10 4 -5 0 -10
-5 -10 -11z"/>
<path d="M1210 2051 c0 -5 5 -13 10 -16 6 -3 10 -2 10 4 0 5 -4 13 -10 16 -5
3 -10 2 -10 -4z"/>
<path d="M420 1985 c0 -8 4 -15 10 -15 5 0 7 7 4 15 -4 8 -8 15 -10 15 -2 0
-4 -7 -4 -15z"/>
<path d="M451 1985 c0 -11 4 -27 9 -35 9 -13 10 -13 9 0 0 8 -4 24 -9 35 l-9
20 0 -20z"/>
<path d="M552 1870 c0 -19 2 -27 5 -17 2 9 2 25 0 35 -3 9 -5 1 -5 -18z"/>
<path d="M1063 1748 c-17 -22 -21 -44 -12 -59 6 -11 9 -8 9 9 0 13 5 32 10 43
12 21 7 26 -7 7z"/>
<path d="M852 1671 c-10 -6 -10 -10 3 -21 8 -7 18 -10 22 -6 3 3 1 6 -5 6 -6
0 -9 7 -6 15 7 17 4 18 -14 6z"/>
<path d="M1046 1655 c-9 -26 -7 -32 5 -12 6 10 9 21 6 23 -2 3 -7 -2 -11 -11z"/>
<path d="M980 1590 c-9 -6 -10 -10 -3 -10 6 0 15 5 18 10 8 12 4 12 -15 0z"/>
<path d="M1505 2480 c-3 -5 -1 -10 4 -10 6 0 11 5 11 10 0 6 -2 10 -4 10 -3 0
-8 -4 -11 -10z"/>
<path d="M408 2458 c2 -10 6 -18 7 -18 1 0 5 8 7 18 3 11 0 19 -7 19 -7 0 -10
-8 -7 -19z"/>
<path d="M1922 2416 c1 -14 5 -23 9 -20 7 4 0 44 -7 44 -2 0 -3 -11 -2 -24z"/>
<path d="M340 2388 c0 -9 5 -20 10 -23 13 -8 13 5 0 25 -8 13 -10 13 -10 -2z"/>
<path d="M1937 2383 c-4 -3 -7 -11 -7 -17 0 -6 5 -5 12 2 6 6 9 14 7 17 -3 3
-9 2 -12 -2z"/>
<path d="M331 2344 c0 -11 3 -14 6 -6 3 7 2 16 -1 19 -3 4 -6 -2 -5 -13z"/>
<path d="M1952 2340 c-7 -11 -8 -20 -3 -20 9 0 24 30 18 36 -1 2 -8 -6 -15
-16z"/>
<path d="M1430 2291 c0 -7 -5 -9 -12 -5 -8 5 -9 2 -5 -10 4 -10 7 -23 8 -29 0
-7 5 1 10 17 4 17 6 32 4 35 -3 2 -5 -1 -5 -8z"/>
<path d="M1550 2268 c0 -6 -41 -104 -91 -217 -50 -113 -97 -219 -104 -236
-109 -249 -147 -334 -159 -356 l-14 -27 129 -86 c70 -48 161 -119 202 -159 71
-69 137 -154 137 -176 0 -8 72 -11 225 -11 124 0 225 2 225 4 0 2 -10 26 -21
53 -12 26 -59 136 -104 243 -45 107 -155 366 -244 574 -88 208 -161 385 -161
392 0 8 -4 14 -10 14 -5 0 -10 -5 -10 -12z m52 -155 c5 -7 6 -18 2 -24 -4 -8
-3 -9 4 -5 7 4 12 1 12 -9 0 -9 20 -60 45 -114 25 -54 45 -108 45 -120 0 -12
4 -20 9 -17 9 6 26 -43 17 -51 -2 -3 4 -13 15 -24 11 -11 17 -25 13 -30 -4 -6
-3 -14 2 -18 16 -11 34 -60 28 -76 -6 -14 -8 -13 -21 2 -13 16 -13 16 -3 -5 9
-18 15 -21 24 -13 11 9 23 -11 58 -91 66 -151 78 -185 71 -204 -5 -13 -3 -15
7 -9 10 6 12 1 7 -21 -3 -16 -4 -23 -1 -16 9 20 27 14 21 -8 -3 -11 -1 -20 4
-20 12 0 42 -71 40 -95 -2 -17 0 -17 8 -5 8 12 11 8 11 -17 0 -18 5 -33 11
-33 7 0 9 -10 7 -25 -3 -13 -2 -22 3 -20 4 3 11 1 14 -5 5 -7 -56 -10 -194
-10 -110 1 -203 5 -205 9 -3 4 2 20 10 35 17 33 17 39 4 31 -5 -3 -10 -1 -10
5 0 7 -7 10 -15 6 -9 -3 -24 3 -34 13 -10 10 -27 24 -37 31 -15 9 -16 10 -2 6
12 -4 15 -1 11 11 -5 12 -3 14 8 8 11 -6 12 -5 2 5 -9 10 -16 10 -25 2 -11 -8
-17 -6 -26 9 -7 11 -17 17 -23 14 -5 -4 -8 -1 -7 7 2 7 -2 12 -9 11 -7 -2 -10
3 -7 11 5 12 -28 30 -49 27 -5 -1 -6 3 -3 8 4 5 2 12 -3 15 -5 4 -8 17 -6 31
3 27 -8 40 -26 30 -7 -5 -4 -14 7 -26 9 -10 12 -19 6 -19 -6 0 -14 5 -17 10
-4 6 -11 8 -16 4 -5 -3 -8 0 -7 8 2 7 -3 12 -9 11 -7 -2 -13 2 -13 8 0 5 -4 8
-9 5 -5 -4 -7 2 -4 12 5 21 -66 66 -89 57 -8 -3 -20 1 -27 9 -10 12 -6 29 23
90 20 42 40 76 45 76 5 0 7 10 3 22 -3 13 -1 19 5 15 7 -4 16 13 24 45 12 45
14 48 21 27 6 -19 7 -17 4 10 -2 21 6 52 22 84 23 46 26 48 39 31 12 -16 13
-12 8 29 -3 37 1 57 24 101 16 30 32 52 35 49 3 -4 6 4 6 16 0 14 4 20 11 15
8 -4 9 1 4 16 -5 17 -4 21 5 15 8 -5 11 -4 7 2 -4 6 1 32 11 59 28 79 33 82
49 33 9 -24 20 -49 25 -56z m-182 -243 c0 -5 -2 -10 -4 -10 -3 0 -8 5 -11 10
-3 6 -1 10 4 10 6 0 11 -4 11 -10z m-140 -459 c0 -5 11 -12 25 -15 22 -6 36
-26 18 -26 -14 0 -68 49 -55 50 6 0 12 -4 12 -9z m380 -320 c0 -4 -6 -8 -14
-8 -8 0 -12 6 -9 14 5 13 23 9 23 -6z"/>
<path d="M1605 2039 c-4 -6 -5 -12 -2 -15 2 -3 7 2 10 11 7 17 1 20 -8 4z"/>
<path d="M1506 2013 c-6 -14 -5 -15 5 -6 7 7 10 15 7 18 -3 3 -9 -2 -12 -12z"/>
<path d="M1612 2010 c-7 -11 -8 -20 -3 -20 9 0 24 30 18 36 -1 2 -8 -6 -15
-16z"/>
<path d="M1437 1926 c-4 -10 -1 -13 8 -9 8 3 12 9 9 14 -7 12 -11 11 -17 -5z"/>
<path d="M1692 1800 c10 -39 28 -55 28 -25 0 8 -4 15 -10 15 -5 0 -10 11 -10
25 0 14 -4 25 -9 25 -5 0 -4 -17 1 -40z"/>
<path d="M1392 1798 c-16 -16 -15 -28 3 -28 8 0 15 9 15 20 0 23 -2 24 -18 8z"/>
<path d="M1431 1794 c0 -11 3 -14 6 -6 3 7 2 16 -1 19 -3 4 -6 -2 -5 -13z"/>
<path d="M1341 1658 c0 -14 -4 -35 -7 -45 -5 -17 -5 -17 6 0 6 10 9 30 7 45
l-4 27 -2 -27z"/>
<path d="M1770 1660 c6 -11 13 -20 16 -20 2 0 0 9 -6 20 -6 11 -13 20 -16 20
-2 0 0 -9 6 -20z"/>
<path d="M1267 1523 c-14 -23 -37 -86 -28 -78 12 12 43 85 37 85 -3 0 -7 -3
-9 -7z"/>
<path d="M1843 1477 c1 -25 7 -35 18 -34 14 1 14 4 1 31 -21 43 -21 43 -19 3z"/>
<path d="M1272 1460 c0 -14 2 -19 5 -12 2 6 2 18 0 25 -3 6 -5 1 -5 -13z"/>
<path d="M1335 1430 c-16 -7 -17 -9 -3 -9 9 -1 20 4 23 9 7 11 7 11 -20 0z"/>
<path d="M1481 1277 c2 -2 11 -8 20 -15 12 -9 16 -9 16 1 0 7 -9 14 -20 14
-11 1 -18 1 -16 0z"/>
<path d="M1932 1220 c0 -14 2 -19 5 -12 2 6 2 18 0 25 -3 6 -5 1 -5 -13z"/>
<path d="M2004 1078 c0 -21 5 -33 10 -28 4 4 4 21 -2 37 -10 28 -10 28 -8 -9z"/>
<path d="M1666 1053 c-6 -14 -5 -15 5 -6 7 7 10 15 7 18 -3 3 -9 -2 -12 -12z"/>
<path d="M1446 2225 c-3 -9 -6 -24 -5 -33 0 -9 5 -4 10 12 9 32 6 48 -5 21z"/>
<path d="M1650 2220 c-8 -5 -12 -11 -10 -14 3 -2 14 2 24 10 22 15 10 19 -14
4z"/>
<path d="M2011 2194 c0 -11 3 -14 6 -6 3 7 2 16 -1 19 -3 4 -6 -2 -5 -13z"/>
<path d="M1630 2176 c0 -8 4 -17 9 -20 5 -4 7 3 4 14 -6 23 -13 26 -13 6z"/>
<path d="M1665 2179 c-4 -6 -5 -12 -2 -15 2 -3 7 2 10 11 7 17 1 20 -8 4z"/>
<path d="M1457 2165 c-4 -8 -3 -16 1 -19 4 -3 9 4 9 15 2 23 -3 25 -10 4z"/>
<path d="M1340 2121 c0 -16 -4 -33 -10 -36 -5 -3 -10 -11 -10 -18 0 -16 26 24
33 50 3 13 1 26 -4 29 -5 3 -9 -8 -9 -25z"/>
<path d="M1330 2030 c0 -5 5 -10 10 -10 6 0 10 5 10 10 0 6 -4 10 -10 10 -5 0
-10 -4 -10 -10z"/>
<path d="M2096 2005 c-3 -9 -6 -26 -5 -38 1 -14 4 -9 9 13 9 37 7 52 -4 25z"/>
<path d="M347 1973 c-4 -3 -7 -13 -7 -22 1 -13 3 -13 11 2 11 19 8 33 -4 20z"/>
<path d="M1256 1953 c-4 -9 -3 -20 2 -25 6 -6 10 1 10 16 0 30 -3 32 -12 9z"/>
<path d="M1731 1954 c0 -11 3 -14 6 -6 3 7 2 16 -1 19 -3 4 -6 -2 -5 -13z"/>
<path d="M2110 1930 c0 -5 5 -10 11 -10 5 0 7 5 4 10 -3 6 -8 10 -11 10 -2 0
-4 -4 -4 -10z"/>
<path d="M1246 1855 c-3 -8 -1 -15 4 -15 6 0 10 7 10 15 0 8 -2 15 -4 15 -2 0
-6 -7 -10 -15z"/>
<path d="M28 1830 c-1 -5 -1 -326 2 -711 l5 -702 85 -43 c97 -49 318 -125 432
-148 178 -37 452 -1 587 76 234 134 269 465 71 667 -78 80 -256 196 -515 335
-363 196 -573 356 -638 486 -14 28 -27 46 -29 40z m41 -130 c2 24 2 25 17 5 8
-11 28 -35 45 -52 19 -20 27 -38 23 -45 -5 -8 -1 -7 11 2 17 14 17 13 11 -8
-8 -24 7 -52 27 -52 7 0 7 4 -1 12 -7 7 -12 18 -12 25 0 15 28 -11 46 -42 6
-10 17 -21 25 -23 8 -2 5 3 -6 12 -20 17 -20 17 1 7 11 -5 26 -17 34 -25 7 -9
17 -16 22 -16 16 0 68 -47 60 -54 -3 -4 2 -4 11 0 11 4 25 -1 38 -12 11 -9 36
-26 57 -36 20 -10 29 -16 19 -13 -10 2 -16 1 -12 -4 3 -5 -1 -12 -7 -15 -7 -3
-1 -3 13 0 18 4 49 -7 105 -37 43 -23 98 -52 121 -63 43 -22 54 -36 28 -36 -8
0 -15 -4 -15 -9 0 -5 14 -4 30 2 20 8 33 8 38 2 7 -9 31 -25 78 -49 11 -6 19
-17 16 -25 -3 -10 2 -11 18 -6 14 4 20 3 16 -3 -3 -5 1 -12 9 -16 8 -3 15 0
15 7 0 7 7 4 15 -6 7 -11 11 -25 8 -33 -3 -8 0 -14 7 -14 6 0 8 5 4 11 -13 21
26 4 80 -36 30 -22 57 -48 60 -58 2 -11 9 -16 15 -13 14 9 90 -69 116 -117 11
-20 23 -37 27 -37 4 0 6 -19 3 -42 -4 -30 -2 -38 4 -28 8 12 11 11 17 -5 5
-11 3 -20 -4 -23 -7 -2 -9 -9 -5 -15 10 -16 9 -146 -1 -140 -5 3 -7 -6 -4 -20
3 -15 1 -24 -3 -21 -5 3 -9 -7 -9 -22 0 -35 -57 -122 -78 -119 -10 1 -11 0 -4
-2 6 -3 12 -8 12 -11 -1 -11 -71 -43 -81 -37 -5 4 -9 2 -9 -4 0 -5 6 -11 13
-14 6 -2 -9 -8 -35 -12 -26 -4 -45 -11 -43 -16 3 -4 13 -5 23 -2 9 3 14 3 10
-2 -9 -9 -51 -17 -96 -18 -19 0 -31 -5 -29 -11 3 -6 -7 -11 -22 -12 -14 0 -69
-6 -121 -12 -52 -7 -127 -10 -165 -7 -77 6 -235 43 -195 45 21 1 18 4 -13 13
-22 7 -36 15 -33 18 3 3 -9 6 -26 6 l-33 0 40 -18 c72 -33 12 -20 -75 16 -46
19 -91 35 -99 35 -11 0 -10 4 5 16 21 17 20 17 -36 -3 -9 -3 -7 1 4 9 18 14
17 15 -22 13 -23 -1 -39 1 -37 5 3 5 -15 16 -40 26 -44 16 -55 38 -30 56 6 5
5 8 -2 8 -10 0 -13 133 -12 633 1 347 5 616 9 597 6 -28 8 -30 9 -10z"/>
<path d="M80 1680 c0 -5 5 -10 11 -10 5 0 7 5 4 10 -3 6 -8 10 -11 10 -2 0 -4
-4 -4 -10z"/>
<path d="M90 1651 c0 -6 5 -13 10 -16 6 -3 10 1 10 9 0 9 -4 16 -10 16 -5 0
-10 -4 -10 -9z"/>
<path d="M120 1620 c0 -5 5 -10 11 -10 5 0 7 5 4 10 -3 6 -8 10 -11 10 -2 0
-4 -4 -4 -10z"/>
<path d="M160 1541 c0 -9 30 -24 36 -18 2 1 -6 8 -16 15 -11 7 -20 8 -20 3z"/>
<path d="M320 1469 c0 -5 5 -7 10 -4 6 3 10 8 10 11 0 2 -4 4 -10 4 -5 0 -10
-5 -10 -11z"/>
<path d="M330 1450 c-8 -5 -10 -10 -5 -10 6 0 17 5 25 10 8 5 11 10 5 10 -5 0
-17 -5 -25 -10z"/>
<path d="M400 1423 c0 -13 5 -23 10 -23 13 0 13 11 0 30 -8 12 -10 11 -10 -7z"/>
<path d="M435 1390 c3 -5 13 -10 21 -10 8 0 12 5 9 10 -3 6 -13 10 -21 10 -8
0 -12 -4 -9 -10z"/>
<path d="M581 1317 c2 -2 18 -11 34 -21 l30 -17 -24 20 c-13 12 -28 21 -34 21
-6 0 -8 -1 -6 -3z"/>
<path d="M560 1301 c0 -9 30 -24 36 -18 2 1 -6 8 -16 15 -11 7 -20 8 -20 3z"/>
<path d="M888 1123 c7 -3 16 -2 19 1 4 3 -2 6 -13 5 -11 0 -14 -3 -6 -6z"/>
<path d="M1000 1070 c0 -5 7 -10 16 -10 8 0 12 5 9 10 -3 6 -10 10 -16 10 -5
0 -9 -4 -9 -10z"/>
<path d="M970 1050 c8 -5 22 -9 30 -9 10 0 8 3 -5 9 -27 12 -43 12 -25 0z"/>
<path d="M1036 1052 c-3 -4 4 -9 15 -9 23 -2 25 3 4 10 -8 4 -16 3 -19 -1z"/>
<path d="M1128 963 c7 -3 16 -2 19 1 4 3 -2 6 -13 5 -11 0 -14 -3 -6 -6z"/>
<path d="M1200 918 c0 -9 5 -20 11 -23 17 -11 18 -2 3 19 -12 17 -14 17 -14 4z"/>
<path d="M1125 370 c-8 -13 5 -13 25 0 13 8 13 10 -2 10 -9 0 -20 -4 -23 -10z"/>
<path d="M1005 290 c-13 -6 -15 -9 -5 -9 8 0 22 4 30 9 18 12 2 12 -25 0z"/>
<path d="M1301 1823 c11 -19 15 -20 22 -7 5 9 6 18 3 21 -3 4 -6 1 -6 -7 0
-10 -3 -10 -17 1 -15 13 -15 12 -2 -8z"/>
<path d="M1816 1824 c-3 -9 -2 -22 2 -31 6 -10 9 -5 9 16 0 35 -2 38 -11 15z"/>
<path d="M483 1792 c2 -12 6 -24 10 -28 3 -4 4 4 2 16 -6 30 -16 40 -12 12z"/>
<path d="M1183 1771 c0 -11 5 -18 9 -15 4 3 5 11 1 19 -7 21 -12 19 -10 -4z"/>
<path d="M1825 1759 c-4 -6 -5 -12 -2 -15 2 -3 7 2 10 11 7 17 1 20 -8 4z"/>
<path d="M130 1750 c-8 -5 -10 -10 -5 -10 6 0 17 5 25 10 8 5 11 10 5 10 -5 0
-17 -5 -25 -10z"/>
<path d="M569 1718 c-9 -32 -6 -36 17 -26 18 8 21 14 12 20 -13 7 -27 11 -29
6z"/>
<path d="M1165 1690 c-3 -5 -1 -10 4 -10 6 0 11 5 11 10 0 6 -2 10 -4 10 -3 0
-8 -4 -11 -10z"/>
<path d="M2242 1685 c0 -11 3 -29 8 -40 11 -25 11 1 0 35 -6 20 -8 21 -8 5z"/>
<path d="M1241 1664 c0 -11 3 -14 6 -6 3 7 2 16 -1 19 -3 4 -6 -2 -5 -13z"/>
<path d="M1896 1665 c-9 -26 -7 -32 5 -12 6 10 9 21 6 23 -2 3 -7 -2 -11 -11z"/>
<path d="M1865 1628 c4 -13 11 -27 16 -33 5 -5 4 5 -2 23 -12 36 -24 44 -14
10z"/>
<path d="M1902 1610 c0 -14 2 -19 5 -12 2 6 2 18 0 25 -3 6 -5 1 -5 -13z"/>
<path d="M310 1591 c0 -10 26 -9 36 2 4 4 -2 7 -14 7 -12 0 -22 -4 -22 -9z"/>
<path d="M390 1590 c0 -5 5 -10 10 -10 6 0 10 5 10 10 0 6 -4 10 -10 10 -5 0
-10 -4 -10 -10z"/>
<path d="M830 1581 c0 -9 30 -24 36 -18 2 1 -6 8 -16 15 -11 7 -20 8 -20 3z"/>
<path d="M895 1540 c-4 -6 -11 -7 -17 -4 -7 4 -8 2 -4 -5 6 -9 11 -9 22 0 14
11 18 19 10 19 -3 0 -8 -5 -11 -10z"/>
<path d="M838 1533 c7 -3 16 -2 19 1 4 3 -2 6 -13 5 -11 0 -14 -3 -6 -6z"/>
<path d="M1100 1529 c0 -5 5 -7 10 -4 6 3 10 8 10 11 0 2 -4 4 -10 4 -5 0 -10
-5 -10 -11z"/>
<path d="M1126 1503 c-6 -14 -5 -15 5 -6 7 7 10 15 7 18 -3 3 -9 -2 -12 -12z"/>
<path d="M1142 1475 c-6 -14 -8 -25 -3 -25 8 0 23 41 17 47 -1 2 -8 -8 -14
-22z"/>
<path d="M970 1460 c-8 -5 -10 -10 -5 -10 6 0 17 5 25 10 8 5 11 10 5 10 -5 0
-17 -5 -25 -10z"/>
<path d="M1018 1463 c7 -3 16 -2 19 1 4 3 -2 6 -13 5 -11 0 -14 -3 -6 -6z"/>
<path d="M1008 1443 c7 -3 16 -2 19 1 4 3 -2 6 -13 5 -11 0 -14 -3 -6 -6z"/>
<path d="M1132 1415 c0 -16 2 -22 5 -12 2 9 2 23 0 30 -3 6 -5 -1 -5 -18z"/>
<path d="M1950 1433 c0 -15 18 -35 23 -27 3 5 -1 15 -9 22 -8 7 -14 9 -14 5z"/>
<path d="M2331 1424 c0 -11 3 -14 6 -6 3 7 2 16 -1 19 -3 4 -6 -2 -5 -13z"/>
<path d="M568 1423 c7 -3 16 -2 19 1 4 3 -2 6 -13 5 -11 0 -14 -3 -6 -6z"/>
<path d="M2361 1404 c0 -11 3 -14 6 -6 3 7 2 16 -1 19 -3 4 -6 -2 -5 -13z"/>
<path d="M1160 1401 c0 -6 4 -11 9 -11 5 0 12 -8 14 -17 4 -15 5 -15 6 -2 0 9
-6 22 -14 29 -10 9 -15 9 -15 1z"/>
<path d="M776 1352 c-3 -5 -20 -7 -38 -6 l-33 3 32 -8 c18 -5 40 -14 48 -21 9
-7 15 -8 15 -2 0 6 -6 13 -12 15 -10 4 -9 8 2 16 9 7 10 11 3 11 -6 0 -14 -4
-17 -8z"/>
<path d="M1283 1310 c1 -10 5 -16 9 -14 4 3 18 0 30 -6 22 -11 22 -11 3 4 -11
8 -25 20 -32 25 -8 8 -11 5 -10 -9z"/>
<path d="M738 1313 c7 -3 16 -2 19 1 4 3 -2 6 -13 5 -11 0 -14 -3 -6 -6z"/>
<path d="M830 1270 c8 -5 20 -10 25 -10 6 0 3 5 -5 10 -8 5 -19 10 -25 10 -5
0 -3 -5 5 -10z"/>
<path d="M2048 1255 c-7 -35 2 -81 13 -64 4 7 5 18 1 24 -3 5 -5 22 -3 37 3
35 -5 37 -11 3z"/>
<path d="M2421 1244 c0 -11 3 -14 6 -6 3 7 2 16 -1 19 -3 4 -6 -2 -5 -13z"/>
<path d="M950 1189 c0 -5 5 -7 10 -4 6 3 10 8 10 11 0 2 -4 4 -10 4 -5 0 -10
-5 -10 -11z"/>
<path d="M1440 1141 c0 -10 19 -25 25 -20 1 2 -3 10 -11 17 -8 7 -14 8 -14 3z"/>
<path d="M2400 1140 c0 -5 5 -10 10 -10 6 0 10 5 10 10 0 6 -4 10 -10 10 -5 0
-10 -4 -10 -10z"/>
<path d="M1480 1136 c0 -2 7 -7 16 -10 8 -3 12 -2 9 4 -6 10 -25 14 -25 6z"/>
<path d="M1078 1113 c7 -3 16 -2 19 1 4 3 -2 6 -13 5 -11 0 -14 -3 -6 -6z"/>
<path d="M2130 1089 c0 -5 5 -7 10 -4 6 3 10 8 10 11 0 2 -4 4 -10 4 -5 0 -10
-5 -10 -11z"/>
<path d="M2120 1057 c0 -4 6 -16 13 -27 10 -17 9 -22 -2 -29 -8 -5 -9 -11 -3
-15 11 -7 38 61 28 71 -3 4 -6 -2 -6 -13 -1 -19 -1 -19 -15 0 -8 11 -15 17
-15 13z"/>
<path d="M1250 1030 c-9 -6 -10 -10 -3 -10 6 0 15 5 18 10 8 12 4 12 -15 0z"/>
<path d="M1624 979 c3 -15 45 -19 53 -6 4 6 -4 8 -20 5 -15 -3 -28 -1 -31 4
-2 5 -3 3 -2 -3z"/>
<path d="M2146 973 c-6 -14 -5 -15 5 -6 7 7 10 15 7 18 -3 3 -9 -2 -12 -12z"/>
<path d="M2088 973 c7 -3 16 -2 19 1 4 3 -2 6 -13 5 -11 0 -14 -3 -6 -6z"/>
<path d="M1722 813 c6 -22 8 -86 5 -153 -5 -128 -34 -235 -86 -326 -60 -104
-199 -230 -308 -281 -29 -14 -53 -25 -53 -26 0 -5 1225 4 1228 8 4 7 -27 89
-63 170 -15 33 -58 134 -96 224 -38 90 -76 178 -83 195 -8 17 -33 74 -54 126
l-40 95 -230 3 -230 2 10 -37z m446 -28 c12 -25 22 -53 22 -61 0 -9 9 -27 20
-41 11 -14 23 -48 26 -76 6 -39 9 -47 15 -32 7 19 8 19 8 -1 1 -12 3 -37 6
-55 5 -30 4 -31 -5 -10 -12 28 -22 24 -14 -6 5 -17 12 -21 35 -18 16 2 27 0
24 -5 -3 -5 1 -23 10 -39 8 -17 15 -49 16 -73 1 -35 2 -38 8 -18 l7 25 6 -30
c4 -20 1 -36 -9 -47 -10 -11 -12 -18 -5 -18 7 0 12 5 12 10 0 6 7 10 15 10 8
0 15 -7 15 -15 0 -8 -5 -15 -12 -15 -12 0 -5 -11 9 -12 4 -1 20 -26 35 -57 28
-57 35 -78 18 -51 -5 8 -10 10 -10 4 0 -6 9 -19 19 -28 11 -10 24 -31 30 -47
l10 -29 -545 0 c-299 0 -544 2 -544 5 0 11 72 34 88 28 13 -4 13 -2 -3 10 -24
20 -7 22 20 3 19 -13 20 -11 22 18 2 17 9 36 18 42 8 6 11 15 7 20 -4 4 1 2
11 -5 23 -18 51 3 43 33 -3 11 2 25 12 33 9 8 11 11 3 7 -10 -5 -12 -3 -7 5 6
9 11 9 22 0 12 -10 18 -8 29 7 14 19 14 19 15 0 0 -11 3 -17 6 -13 3 3 3 16
-1 28 l-8 23 -18 -23 c-11 -13 -19 -19 -19 -13 0 6 7 18 16 26 8 9 13 20 9 25
-3 5 0 13 6 17 7 4 9 3 5 -4 -3 -6 -2 -13 3 -17 6 -3 8 4 6 16 -2 11 2 31 9
42 8 12 22 48 32 79 9 31 21 55 25 52 5 -3 4 -16 -1 -30 -6 -14 -10 -31 -9
-37 0 -7 7 5 15 26 10 28 11 44 3 58 -7 14 -6 19 3 19 8 0 9 3 2 10 -6 6 -7
35 -3 72 3 35 5 94 3 133 -1 38 0 73 2 77 3 4 92 8 198 8 l192 0 22 -45z
m-578 -589 c0 -15 -18 -31 -26 -23 -7 7 7 37 17 37 5 0 9 -6 9 -14z m-85 -76
c3 -5 -1 -10 -9 -10 -9 0 -16 5 -16 10 0 6 4 10 9 10 6 0 13 -4 16 -10z"/>
<path d="M2168 715 c-6 -30 -3 -43 8 -33 3 4 4 19 2 35 l-3 28 -7 -30z"/>
<path d="M2170 650 c0 -5 5 -10 10 -10 6 0 10 5 10 10 0 6 -4 10 -10 10 -5 0
-10 -4 -10 -10z"/>
<path d="M2328 243 c7 -3 16 -2 19 1 4 3 -2 6 -13 5 -11 0 -14 -3 -6 -6z"/>
<path d="M2402 135 c0 -16 2 -22 5 -12 2 9 2 23 0 30 -3 6 -5 -1 -5 -18z"/>
<path d="M2410 90 c0 -5 5 -10 11 -10 5 0 7 5 4 10 -3 6 -8 10 -11 10 -2 0 -4
-4 -4 -10z"/>
<path d="M1381 754 c0 -11 3 -14 6 -6 3 7 2 16 -1 19 -3 4 -6 -2 -5 -13z"/>
<path d="M2348 543 c7 -3 16 -2 19 1 4 3 -2 6 -13 5 -11 0 -14 -3 -6 -6z"/>
<path d="M2356 495 c20 -30 24 -31 17 -6 -3 11 -11 22 -19 25 -11 4 -11 0 2
-19z"/>
<path d="M1627 441 c3 -12 9 -21 14 -21 14 0 11 16 -5 29 -12 10 -13 8 -9 -8z"/>
<path d="M0 330 c0 -5 5 -10 11 -10 5 0 7 5 4 10 -3 6 -8 10 -11 10 -2 0 -4
-4 -4 -10z"/>
<path d="M1525 310 c-3 -5 -2 -18 4 -27 7 -14 9 -12 8 10 -2 30 -3 31 -12 17z"/>
<path d="M2446 305 c-9 -26 -7 -32 5 -12 6 10 9 21 6 23 -2 3 -7 -2 -11 -11z"/>
<path d="M2466 284 c-4 -14 -5 -28 -3 -31 3 -2 8 8 11 23 4 14 5 28 3 31 -3 2
-8 -8 -11 -23z"/>
<path d="M250 250 c-9 -6 -10 -10 -3 -10 6 0 15 5 18 10 8 12 4 12 -15 0z"/>
<path d="M338 243 c7 -3 16 -2 19 1 4 3 -2 6 -13 5 -11 0 -14 -3 -6 -6z"/>
<path d="M1118 243 c7 -3 16 -2 19 1 4 3 -2 6 -13 5 -11 0 -14 -3 -6 -6z"/>
<path d="M1455 230 c-3 -5 -1 -10 4 -10 6 0 11 5 11 10 0 6 -2 10 -4 10 -3 0
-8 -4 -11 -10z"/>
<path d="M508 203 c7 -3 16 -2 19 1 4 3 -2 6 -13 5 -11 0 -14 -3 -6 -6z"/>
<path d="M1475 200 c-3 -5 -1 -10 4 -10 6 0 11 5 11 10 0 6 -2 10 -4 10 -3 0
-8 -4 -11 -10z"/>
<path d="M938 183 c7 -3 16 -2 19 1 4 3 -2 6 -13 5 -11 0 -14 -3 -6 -6z"/>
<path d="M518 173 c7 -3 16 -2 19 1 4 3 -2 6 -13 5 -11 0 -14 -3 -6 -6z"/>
<path d="M618 163 c12 -2 30 -2 40 0 9 3 -1 5 -23 4 -22 0 -30 -2 -17 -4z"/>
<path d="M778 163 c7 -3 16 -2 19 1 4 3 -2 6 -13 5 -11 0 -14 -3 -6 -6z"/>
<path d="M918 163 c7 -3 16 -2 19 1 4 3 -2 6 -13 5 -11 0 -14 -3 -6 -6z"/>
<path d="M1369 137 c4 -4 18 -3 32 2 23 9 22 9 -8 8 -18 -1 -28 -6 -24 -10z"/>
<path d="M2532 120 c0 -14 2 -19 5 -12 2 6 2 18 0 25 -3 6 -5 1 -5 -13z"/>
<path d="M2547 73 c-10 -9 -9 -33 1 -33 4 0 8 9 8 20 0 23 0 22 -9 13z"/>
</g>
</svg>
