<?xml version="1.0" standalone="no"?>
<!DOCTYPE svg PUBLIC "-//W3C//DTD SVG 20010904//EN"
 "http://www.w3.org/TR/2001/REC-SVG-20010904/DTD/svg10.dtd">
<svg version="1.0" xmlns="http://www.w3.org/2000/svg"
 width="196.000000pt" height="196.000000pt" viewBox="0 0 196.000000 196.000000"
 preserveAspectRatio="xMidYMid meet">
<metadata>
Created by potrace 1.16, written by Peter Selinger 2001-2019
</metadata>
<g transform="translate(0.000000,196.000000) scale(0.100000,-0.100000)"
fill="#000000" stroke="none">
<path d="M450 1930 c-17 -41 -6 -100 22 -124 l23 -19 -25 6 c-14 3 -53 9 -88
13 -57 6 -65 5 -87 -16 -15 -14 -25 -35 -25 -52 0 -23 4 -28 25 -28 35 0 31
-11 -13 -37 -62 -35 -142 -112 -142 -137 0 -30 20 -54 50 -59 19 -3 16 -5 -11
-6 -20 0 -51 -11 -70 -24 -19 -13 -41 -26 -50 -29 -28 -11 -59 -142 -58 -243
l2 -90 8 79 c9 82 46 223 61 232 5 3 6 -7 3 -23 -5 -25 -4 -24 15 9 20 37 64
68 95 68 31 0 55 -38 55 -87 0 -60 -28 -107 -74 -130 -32 -15 -37 -15 -60 0
-14 10 -30 32 -35 50 -8 25 -9 14 -8 -58 1 -49 -2 -112 -6 -140 l-6 -50 9 44
c5 25 13 48 17 52 5 4 62 16 128 28 66 11 127 23 136 26 13 5 17 -3 22 -37 3
-24 3 -46 -1 -50 -7 -7 -90 -26 -185 -42 -31 -6 -36 -10 -28 -24 15 -29 93
-102 155 -145 l58 -41 -6 -45 c-3 -24 -8 -46 -11 -49 -7 -7 -77 38 -138 90
l-57 50 35 -79 c20 -43 47 -97 61 -121 23 -38 24 -47 14 -73 -7 -16 -16 -29
-21 -29 -13 0 -48 55 -89 142 -45 94 -47 90 -21 -38 20 -96 69 -213 120 -288
32 -45 38 -66 22 -66 -14 0 -100 118 -131 180 -34 68 -80 211 -80 250 0 21 -4
28 -14 24 -11 -4 -16 14 -25 78 -6 46 -12 106 -14 133 -2 28 -4 3 -5 -55 -2
-125 5 -180 24 -180 8 0 14 -10 14 -24 0 -36 48 -182 80 -246 15 -30 49 -83
75 -118 39 -51 52 -62 76 -62 26 0 29 3 29 31 0 17 -12 49 -29 72 -32 47 -61
102 -85 162 l-16 40 21 -28 c28 -36 71 -37 87 -2 19 41 14 71 -20 132 l-32 56
55 -28 c30 -16 61 -32 69 -37 64 -36 143 -69 215 -89 47 -13 85 -27 85 -31 0
-3 -10 -10 -22 -14 -13 -3 -58 -22 -100 -42 -71 -32 -78 -37 -78 -64 0 -41 39
-98 69 -98 28 0 130 36 225 79 46 21 68 26 71 18 2 -7 6 -86 8 -175 5 -163 5
-164 -14 -143 -30 32 -111 30 -144 -4 -30 -29 -34 -97 -9 -133 13 -19 24 -22
84 -22 76 0 81 3 91 65 6 40 7 40 8 -12 l1 -53 38 1 c27 2 30 3 11 6 -26 4
-26 4 -37 151 -7 81 -12 188 -12 237 0 144 3 140 -93 95 -85 -40 -227 -94
-231 -88 -29 40 -46 68 -46 76 0 5 33 24 73 42 169 76 192 88 177 93 -8 2 -62
17 -120 33 -57 15 -131 41 -165 58 l-60 31 3 45 c2 25 5 46 7 48 2 2 52 -15
112 -37 85 -32 228 -71 259 -71 3 0 -28 29 -69 64 -71 62 -187 194 -187 213 0
5 14 22 31 39 l30 29 31 -35 c73 -85 170 -178 251 -242 48 -38 91 -77 96 -86
5 -10 10 -171 12 -359 l4 -343 25 0 26 0 2 212 c2 226 10 449 17 484 3 11 42
50 87 86 100 80 167 143 236 223 l51 60 30 -30 c17 -16 31 -33 31 -38 0 -18
-110 -146 -180 -208 -38 -34 -68 -64 -67 -65 7 -7 181 39 252 66 116 46 115
45 115 22 0 -11 3 -33 6 -49 6 -28 3 -31 -63 -61 -70 -32 -231 -82 -264 -82
-42 0 -24 -20 44 -48 40 -17 100 -44 133 -60 l62 -28 -23 -37 c-12 -21 -24
-40 -27 -43 -7 -7 -186 60 -260 97 l-57 29 -5 -33 c-3 -17 -7 -104 -10 -192
-3 -88 -9 -190 -12 -227 -6 -62 -9 -67 -33 -71 -20 -3 -17 -4 10 -6 l37 -1 7
83 c5 45 11 154 14 242 4 99 10 159 16 158 6 -2 61 -24 124 -49 62 -25 130
-48 151 -51 35 -5 38 -3 63 40 42 71 39 76 -68 125 -52 23 -99 42 -105 42 -5
0 -10 3 -10 8 0 4 37 17 83 30 89 25 217 80 217 93 0 5 7 9 17 9 9 0 36 12 60
26 l44 25 -30 -60 c-34 -67 -37 -84 -19 -124 10 -21 20 -27 44 -27 20 0 34 6
38 16 4 9 9 15 11 12 8 -8 -30 -90 -74 -161 -23 -35 -41 -76 -41 -91 0 -22 4
-26 30 -26 25 0 37 10 76 63 61 82 119 203 144 301 11 44 26 83 33 88 9 5 13
70 15 247 3 220 2 245 -18 320 -12 45 -27 81 -32 81 -6 0 -23 14 -38 30 -15
17 -37 30 -48 30 -17 0 -19 5 -15 43 5 43 5 44 -58 94 -35 27 -74 55 -86 62
-28 15 -30 31 -3 31 28 0 28 60 0 85 -17 15 -30 17 -91 11 -39 -4 -78 -10 -87
-14 -12 -4 -11 1 6 22 40 51 25 146 -23 146 l-24 0 24 -25 c30 -30 32 -64 4
-99 -15 -19 -30 -26 -54 -26 -69 0 -99 77 -50 125 l24 25 -24 0 c-27 0 -45
-25 -45 -64 l0 -26 -85 45 c-91 47 -152 58 -175 31 -21 -26 -8 -60 30 -78 l35
-17 -72 -1 -73 0 0 -49 c0 -55 8 -60 90 -61 25 -1 62 -4 83 -8 l39 -7 -66 -29
c-61 -27 -66 -32 -66 -61 0 -42 25 -75 57 -75 14 0 60 16 103 35 43 19 82 35
88 35 18 0 22 -31 22 -196 l0 -164 26 -10 c14 -6 36 -10 49 -10 13 0 25 -5 27
-11 2 -6 27 -14 56 -17 49 -4 52 -3 53 19 1 13 4 85 8 159 l6 135 59 -72 c32
-40 64 -73 72 -73 9 0 14 -12 14 -35 0 -45 21 -96 51 -124 17 -15 36 -21 71
-21 42 0 48 -3 48 -21 0 -20 -3 -21 -62 -15 -35 4 -94 14 -131 23 -37 8 -74
13 -81 10 -16 -6 -32 -115 -19 -128 4 -4 50 -16 101 -26 50 -10 92 -22 92 -27
0 -14 -78 -84 -137 -124 -29 -19 -53 -38 -53 -42 0 -4 -12 -10 -27 -13 -16 -3
-64 -19 -108 -36 -44 -17 -95 -35 -114 -41 l-35 -9 55 57 c134 138 153 181
102 234 -41 43 -73 38 -119 -19 -58 -71 -145 -154 -239 -229 -46 -36 -87 -74
-90 -83 -4 -9 -10 -158 -13 -331 -6 -275 -8 -299 -13 -185 -4 72 -7 212 -8
313 0 102 -5 192 -11 202 -6 11 -43 44 -83 75 -86 68 -170 147 -239 227 -60
68 -88 75 -131 30 -42 -43 -36 -74 29 -153 30 -37 74 -84 96 -105 47 -42 46
-42 -113 17 -59 21 -114 39 -123 39 -9 0 -16 4 -16 9 0 4 -26 26 -57 49 -59
41 -133 109 -133 121 0 3 41 14 91 23 51 9 96 21 102 27 5 5 6 34 2 70 -8 68
-13 71 -85 51 -19 -5 -74 -16 -122 -23 -88 -14 -88 -14 -88 7 0 19 5 21 34 18
74 -9 136 56 136 141 0 31 4 47 13 47 6 1 39 36 72 78 l60 77 6 -160 c3 -88 7
-162 7 -164 4 -7 95 7 101 16 3 5 29 13 56 19 l50 9 5 187 5 187 90 -39 c49
-22 99 -40 110 -40 29 0 65 40 65 73 0 23 -9 32 -66 60 l-66 32 39 7 c21 4 59
7 85 7 72 1 78 6 78 62 l0 49 -67 1 -68 0 33 16 c24 13 32 23 32 43 0 64 -59
66 -173 8 -45 -24 -85 -44 -89 -46 -4 -2 -8 16 -10 40 -3 40 -5 43 -33 46
l-30 3 23 -16 c31 -23 32 -97 0 -119 -45 -32 -110 -11 -122 39 -7 27 15 80 36
88 7 3 1 6 -13 6 -20 1 -29 -6 -39 -29z m420 -5 c7 -9 11 -17 9 -19 -2 -2 -46
-25 -97 -51 -51 -26 -91 -49 -90 -51 2 -1 21 1 43 6 22 5 79 12 128 16 l87 7
0 -30 c0 -36 -12 -43 -78 -44 -26 0 -83 -6 -127 -13 l-80 -12 40 -13 c56 -19
175 -80 175 -89 0 -5 -10 -18 -23 -30 l-23 -22 -90 39 c-49 22 -99 42 -111 46
l-23 6 -2 -192 -3 -193 -29 -7 c-17 -5 -32 -6 -35 -3 -9 9 -4 405 5 454 8 37
18 51 59 82 57 44 212 127 236 128 9 0 22 -7 29 -15z m368 -43 c47 -26 103
-63 125 -83 39 -34 41 -40 48 -110 11 -107 11 -407 0 -413 -5 -4 -21 -2 -34 3
l-25 10 -4 185 c-2 101 -6 187 -9 190 -6 6 -80 -22 -173 -64 l-50 -23 -18 23
c-33 41 -30 43 131 113 l54 24 -84 11 c-46 7 -100 12 -119 12 -62 0 -80 9 -80
41 0 28 2 29 48 28 26 0 84 -6 129 -13 46 -6 80 -9 75 -5 -4 3 -41 24 -82 46
-107 55 -103 52 -89 70 19 22 59 10 157 -45z m-777 -113 c58 -14 64 -28 48
-106 -9 -44 -13 -129 -12 -240 l2 -171 -26 -7 c-14 -3 -28 -3 -32 0 -3 4 -6
87 -6 185 l0 179 -29 -27 c-15 -15 -53 -58 -84 -97 -30 -38 -57 -72 -59 -74
-2 -3 -11 3 -20 12 -21 21 -12 40 65 133 61 73 50 72 -55 -7 -63 -48 -68 -50
-81 -33 -12 17 -8 24 38 67 29 26 81 64 116 85 35 20 64 39 64 43 0 4 -22 10
-50 14 -27 4 -50 10 -50 13 0 3 10 16 22 29 19 20 28 23 68 17 25 -3 61 -10
81 -15z m69 11 c0 -5 -7 -7 -15 -4 -8 4 -15 8 -15 10 0 2 7 4 15 4 8 0 15 -4
15 -10z m920 6 c0 -2 -7 -6 -15 -10 -8 -3 -15 -1 -15 4 0 6 7 10 15 10 8 0 15
-2 15 -4z m192 -13 c29 -26 21 -41 -24 -48 -64 -11 -64 -15 -6 -48 68 -38 178
-125 178 -140 0 -7 -4 -18 -9 -26 -10 -16 -18 -12 -81 39 -25 20 -63 47 -85
59 l-40 23 45 -48 c81 -87 103 -121 96 -149 -4 -14 -10 -25 -15 -25 -4 0 -45
45 -91 100 -45 55 -83 100 -84 100 0 0 -1 -81 -1 -179 0 -99 -3 -182 -7 -186
-4 -4 -20 -4 -36 0 l-29 6 0 187 c0 103 -4 209 -10 237 -7 31 -8 56 -2 67 11
21 77 40 163 47 11 0 28 -6 38 -16z m203 -338 c14 -13 25 -29 25 -34 0 -6 6
-8 14 -5 24 9 58 -143 64 -282 5 -125 -12 -314 -28 -324 -6 -3 -19 -42 -30
-86 -25 -98 -83 -219 -144 -301 -40 -55 -66 -77 -66 -57 0 4 20 38 44 78 66
106 106 219 120 341 l6 50 -15 -38 c-22 -58 -98 -187 -109 -187 -6 0 -16 12
-23 26 -11 23 -7 35 31 113 24 47 51 103 60 124 l16 38 -52 -46 c-53 -47 -135
-101 -143 -93 -3 3 -8 25 -11 49 l-6 45 56 37 c81 54 189 167 160 167 -20 0
-210 42 -216 48 -12 13 7 87 22 84 7 -2 59 -10 114 -18 145 -22 146 -23 154
-44 4 -10 8 34 9 98 1 116 0 122 -11 70 -20 -91 -127 -69 -157 32 -13 44 -5
102 17 125 23 23 71 19 99 -10z m-1055 -1297 c46 -49 13 -128 -54 -128 -40 0
-76 37 -76 77 0 60 88 95 130 51z"/>
<path d="M1901 1074 c0 -11 3 -14 6 -6 3 7 2 16 -1 19 -3 4 -6 -2 -5 -13z"/>
<path d="M692 85 c0 -16 2 -22 5 -12 2 9 2 23 0 30 -3 6 -5 -1 -5 -18z"/>
<path d="M765 70 c3 -5 8 -10 11 -10 2 0 4 5 4 10 0 6 -5 10 -11 10 -5 0 -7
-4 -4 -10z"/>
<path d="M730 55 c0 -8 4 -15 10 -15 5 0 7 7 4 15 -4 8 -8 15 -10 15 -2 0 -4
-7 -4 -15z"/>
<path d="M869 1177 c-52 -34 -71 -79 -67 -159 6 -110 63 -163 173 -163 111 1
167 54 173 165 4 76 -16 122 -68 158 -48 32 -162 32 -211 -1z m191 -19 c126
-86 66 -281 -86 -281 -80 0 -144 59 -151 140 -5 59 18 108 66 140 47 32 125
32 171 1z"/>
<path d="M43 920 c0 -47 2 -66 4 -42 2 23 2 61 0 85 -2 23 -4 4 -4 -43z"/>
</g>
</svg>
