<?xml version="1.0" standalone="no"?>
<!DOCTYPE svg PUBLIC "-//W3C//DTD SVG 20010904//EN"
 "http://www.w3.org/TR/2001/REC-SVG-20010904/DTD/svg10.dtd">
<svg version="1.0" xmlns="http://www.w3.org/2000/svg"
 width="192.000000pt" height="192.000000pt" viewBox="0 0 192.000000 192.000000"
 preserveAspectRatio="xMidYMid meet">
<metadata>
Created by potrace 1.16, written by Peter Selinger 2001-2019
</metadata>
<g transform="translate(0.000000,192.000000) scale(0.100000,-0.100000)"
fill="#000000" stroke="none">
<path d="M530 1384 c-11 -36 -20 -74 -20 -84 0 -17 -13 -19 -164 -22 l-165 -3
-31 -30 c-47 -45 -64 -80 -94 -190 -16 -55 -32 -108 -38 -119 -5 -10 -12 -44
-14 -75 l-4 -56 18 55 19 55 239 5 c131 3 238 8 237 13 -2 4 -3 12 -3 17 0 6
-83 10 -229 10 l-229 0 21 70 20 70 229 0 c272 0 292 -6 332 -93 l12 -27 18
57 c10 32 29 95 43 141 l26 82 78 0 c44 0 79 -2 79 -4 0 -2 -14 -47 -30 -101
-16 -54 -30 -99 -30 -101 0 -2 55 -4 123 -4 122 0 123 0 159 30 67 55 59 143
-17 190 -30 19 -51 20 -309 20 -152 0 -276 2 -276 4 0 2 9 34 20 70 l21 66
280 0 c280 0 280 0 334 -26 63 -29 111 -82 126 -139 21 -75 19 -72 37 -49 9
11 33 32 52 45 34 23 40 24 278 27 152 2 242 7 242 13 0 7 -89 9 -252 7 -247
-3 -254 -4 -286 -27 -38 -26 -35 -27 -54 19 -23 55 -64 97 -123 124 l-54 26
-300 0 -300 0 -21 -66z m562 -131 c16 -10 38 -32 49 -49 24 -40 14 -71 -34
-108 -31 -24 -42 -26 -132 -26 -78 0 -96 3 -92 14 17 43 47 151 47 167 0 17 8
19 66 19 45 0 75 -6 96 -17z m-377 -15 c-4 -13 -14 -44 -22 -70 l-15 -48 -289
0 c-159 0 -289 4 -289 8 0 24 79 114 110 125 8 3 127 6 263 6 l248 1 -6 -22z
m-42 -158 c-3 -11 -8 -20 -12 -20 -4 0 -14 9 -24 20 -16 19 -16 20 12 20 24 0
28 -3 24 -20z"/>
<path d="M1901 1203 l-15 -53 -192 0 -192 0 -31 -26 c-40 -34 -43 -94 -7 -139
24 -29 26 -30 117 -30 81 0 94 2 97 18 3 15 -5 17 -57 17 -69 0 -68 -1 -42 80
l18 55 143 3 c133 2 142 1 135 -15 -11 -28 -66 -202 -79 -253 l-12 -45 -155
-3 c-122 -2 -163 1 -196 13 -52 20 -104 77 -128 138 l-17 46 -40 -34 c-65 -55
-110 -65 -288 -65 l-156 0 -17 -53 c-9 -30 -17 -58 -17 -64 0 -7 84 -12 238
-16 262 -6 380 -24 479 -72 56 -28 76 -62 56 -94 -74 -117 -711 -161 -1057
-72 -119 30 -165 64 -153 112 10 39 110 84 230 104 20 3 37 9 37 13 0 4 3 17
6 30 l7 23 -39 -23 c-38 -22 -48 -23 -306 -26 -159 -2 -268 -7 -268 -13 0 -5
89 -9 218 -9 194 -1 213 -2 179 -14 -69 -25 -87 -46 -87 -102 0 -60 38 -87
164 -118 337 -83 953 -48 1079 62 23 20 23 94 0 118 -28 27 -98 54 -197 76
-69 15 -146 21 -323 25 -128 3 -233 8 -233 11 0 2 5 22 12 43 l11 39 157 0
c165 0 212 9 269 49 l28 20 18 -40 c23 -51 83 -105 132 -119 23 -7 103 -10
207 -8 l170 3 12 45 c6 25 26 90 44 145 49 153 61 204 58 238 -3 29 -4 28 -17
-20z m-331 -80 c0 -5 -7 -26 -15 -48 -8 -22 -14 -54 -15 -72 0 -26 -3 -30 -20
-26 -25 7 -60 54 -60 81 0 26 55 72 86 72 13 0 24 -3 24 -7z"/>
<path d="M667 760 c-32 -4 -59 -9 -61 -11 -3 -4 -21 -61 -41 -126 -6 -22 -4
-23 64 -23 39 0 71 3 71 8 0 4 11 42 24 85 16 51 20 77 13 76 -7 -1 -38 -5
-70 -9z m43 -27 c0 -3 -8 -30 -17 -60 l-17 -53 -44 0 c-31 0 -42 4 -38 13 2 6
10 31 16 54 7 23 19 44 29 46 26 7 71 8 71 0z"/>
</g>
</svg>
