<?xml version="1.0" standalone="no"?>
<!DOCTYPE svg PUBLIC "-//W3C//DTD SVG 20010904//EN"
 "http://www.w3.org/TR/2001/REC-SVG-20010904/DTD/svg10.dtd">
<svg version="1.0" xmlns="http://www.w3.org/2000/svg"
 width="100.000000pt" height="100.000000pt" viewBox="0 0 100.000000 100.000000"
 preserveAspectRatio="xMidYMid meet">
<metadata>
Created by potrace 1.16, written by Peter Selinger 2001-2019
</metadata>
<g transform="translate(0.000000,100.000000) scale(0.100000,-0.100000)"
fill="#000000" stroke="none">
<path d="M573 835 c-30 -32 -33 -40 -33 -100 0 -37 4 -65 10 -65 6 0 10 -9 10
-19 0 -11 6 -22 13 -24 6 -3 2 -6 -10 -6 -14 -1 -23 5 -23 14 0 12 -16 15 -80
15 -64 0 -80 -3 -80 -15 0 -10 -10 -15 -33 -15 -21 0 -38 -7 -47 -20 -8 -11
-18 -20 -22 -20 -4 0 -8 9 -8 20 0 16 -7 20 -30 20 -20 0 -30 5 -30 15 0 12
-15 15 -75 15 -60 0 -75 -3 -75 -15 0 -10 -10 -15 -30 -15 -23 0 -30 -4 -30
-20 0 -11 5 -20 10 -20 6 0 10 5 10 10 0 6 14 10 30 10 20 0 30 5 30 15 0 12
13 15 55 15 42 0 55 -3 55 -15 0 -10 10 -15 30 -15 23 0 30 -4 30 -20 0 -18
-7 -20 -75 -20 -43 0 -75 -4 -75 -10 0 -5 20 -10 45 -10 25 0 45 -4 45 -10 0
-5 14 -10 30 -10 17 0 30 -4 30 -10 0 -5 9 -10 20 -10 15 0 20 7 20 25 0 36
42 75 80 75 20 0 30 5 30 15 0 12 13 15 60 15 47 0 60 -3 60 -15 0 -8 7 -15
15 -15 23 0 65 -46 65 -70 0 -12 -11 -32 -25 -45 -21 -22 -33 -25 -100 -25
l-75 0 0 -30 c0 -20 -5 -30 -15 -30 -8 0 -15 -4 -15 -10 0 -15 -70 -12 -86 4
-8 8 -14 22 -14 30 0 22 -13 20 -30 -4 -11 -16 -26 -20 -67 -20 -29 0 -53 -4
-53 -10 0 -5 -13 -10 -30 -10 -16 0 -30 5 -30 10 0 6 -13 10 -30 10 -17 0 -30
-4 -30 -10 0 -5 9 -10 20 -10 11 0 20 -4 20 -10 0 -5 23 -10 50 -10 28 0 50 5
50 10 0 6 28 10 65 10 37 0 65 -4 65 -10 0 -6 27 -10 60 -10 33 0 60 4 60 10
0 6 7 10 15 10 10 0 15 10 15 30 l0 30 80 0 c47 0 80 4 80 10 0 6 5 10 10 10
6 0 10 -22 10 -50 l0 -50 63 0 c51 0 65 4 77 20 15 21 50 28 50 10 0 -6 42
-10 105 -10 63 0 105 4 105 10 0 6 -38 10 -95 10 -57 0 -95 4 -95 10 0 6 -9
10 -20 10 -13 0 -20 7 -20 20 0 11 -4 20 -10 20 -5 0 -10 20 -10 45 0 54 33
95 75 95 16 0 25 6 25 15 0 12 15 15 75 15 43 0 75 4 75 10 0 6 -35 10 -85 10
-69 0 -85 -3 -85 -15 0 -10 -10 -15 -30 -15 -16 0 -30 -4 -30 -10 0 -5 -4 -10
-10 -10 -19 0 -10 22 20 50 26 25 30 35 30 84 0 31 -4 56 -10 56 -5 0 -10 7
-10 15 0 9 -11 27 -25 40 -21 22 -33 25 -92 24 -64 0 -70 -2 -100 -34z m172
-10 c14 -13 25 -31 25 -40 0 -8 5 -15 10 -15 6 0 10 -16 10 -36 0 -27 -7 -43
-30 -64 l-30 -28 0 -117 c0 -133 -6 -145 -69 -145 l-41 0 0 123 c0 111 -2 124
-20 137 -11 8 -20 22 -20 32 0 10 -4 18 -10 18 -5 0 -10 20 -10 45 0 38 6 51
33 80 27 29 39 34 80 34 38 1 53 -4 72 -24z"/>
<path d="M650 774 c-27 -22 -47 -47 -51 -64 -5 -21 -3 -27 7 -23 8 3 14 14 14
24 0 10 5 19 11 19 6 0 8 -9 4 -20 -4 -11 -2 -20 4 -20 6 0 11 9 11 20 0 11 5
20 10 20 6 0 10 9 10 20 0 13 7 20 20 20 11 0 20 5 20 10 0 6 10 10 23 10 18
0 19 2 7 10 -25 16 -43 11 -90 -26z"/>
<path d="M678 683 c6 -2 18 -2 25 0 6 3 1 5 -13 5 -14 0 -19 -2 -12 -5z"/>
<path d="M620 660 c0 -5 22 -10 49 -10 28 0 53 5 56 10 4 6 -15 10 -49 10 -31
0 -56 -4 -56 -10z"/>
<path d="M634 622 c5 -8 76 -4 76 4 0 2 -18 4 -41 4 -22 0 -38 -4 -35 -8z"/>
<path d="M640 590 c0 -5 16 -10 35 -10 19 0 35 5 35 10 0 6 -16 10 -35 10 -19
0 -35 -4 -35 -10z"/>
<path d="M413 545 c-25 -27 -15 -45 23 -45 38 0 64 18 64 44 0 21 -70 21 -87
1z m47 -15 c0 -5 -4 -10 -10 -10 -5 0 -10 5 -10 10 0 6 5 10 10 10 6 0 10 -4
10 -10z"/>
<path d="M880 550 c0 -5 -7 -10 -15 -10 -8 0 -15 -4 -15 -10 0 -6 28 -10 65
-10 58 0 65 -2 65 -20 0 -17 -7 -20 -50 -20 -27 0 -50 -3 -50 -6 0 -18 34 -34
74 -34 l46 0 0 60 0 60 -60 0 c-33 0 -60 -4 -60 -10z"/>
<path d="M0 484 c0 -31 27 -44 89 -44 34 0 61 4 61 10 0 6 -16 10 -35 10 -19
0 -35 5 -35 10 0 6 -13 10 -30 10 -16 0 -30 5 -30 10 0 6 -4 10 -10 10 -5 0
-10 -7 -10 -16z"/>
</g>
</svg>
