<?xml version="1.0" standalone="no"?>
<!DOCTYPE svg PUBLIC "-//W3C//DTD SVG 20010904//EN"
 "http://www.w3.org/TR/2001/REC-SVG-20010904/DTD/svg10.dtd">
<svg version="1.0" xmlns="http://www.w3.org/2000/svg"
 width="100.000000pt" height="100.000000pt" viewBox="0 0 100.000000 100.000000"
 preserveAspectRatio="xMidYMid meet">
<metadata>
Created by potrace 1.16, written by Peter Selinger 2001-2019
</metadata>
<g transform="translate(0.000000,100.000000) scale(0.100000,-0.100000)"
fill="#000000" stroke="none">
<path d="M240 980 c-8 -11 -25 -20 -38 -20 -14 0 -36 -13 -52 -30 -15 -16 -33
-30 -39 -30 -6 0 -11 -5 -11 -11 0 -6 -13 -24 -30 -39 -17 -16 -30 -38 -30
-52 0 -13 -9 -30 -20 -38 -21 -15 -28 -70 -10 -70 6 0 10 8 10 18 0 10 9 24
20 32 12 8 20 26 20 42 0 21 5 28 20 28 13 0 20 7 20 20 0 11 5 20 10 20 6 0
10 7 10 15 0 8 7 15 15 15 8 0 15 5 15 10 0 6 9 10 20 10 13 0 20 7 20 20 0
15 7 20 28 20 16 0 34 8 42 20 8 11 22 20 32 20 10 0 18 5 18 10 0 18 -55 11
-70 -10z"/>
<path d="M330 980 c0 -11 4 -20 9 -20 6 0 9 9 8 20 -1 11 -5 20 -9 20 -4 0 -8
-9 -8 -20z"/>
<path d="M647 994 c7 -3 9 -12 6 -20 -3 -8 0 -14 6 -14 6 0 11 9 11 20 0 13
-6 20 -17 19 -10 0 -13 -3 -6 -5z"/>
<path d="M690 990 c0 -5 8 -10 18 -10 10 0 24 -9 32 -20 8 -12 26 -20 42 -20
21 0 28 -5 28 -20 0 -13 7 -20 20 -20 11 0 20 -4 20 -10 0 -5 7 -10 15 -10 8
0 15 -7 15 -15 0 -8 5 -15 10 -15 6 0 10 -9 10 -20 0 -13 7 -20 20 -20 15 0
20 -7 20 -28 0 -16 8 -34 20 -42 11 -8 20 -21 20 -30 -1 -19 -60 44 -60 63 0
8 -11 20 -25 27 -14 7 -25 17 -25 22 0 4 -16 8 -36 8 -27 0 -37 -5 -41 -20 -4
-15 -14 -20 -40 -20 -39 0 -66 -21 -57 -44 3 -9 1 -16 -6 -16 -6 0 -8 -6 -4
-12 6 -10 4 -10 -7 0 -15 14 -79 17 -79 3 0 -5 -9 -11 -20 -14 -28 -7 -38 -56
-15 -74 17 -11 12 -13 -39 -13 -52 0 -61 -3 -87 -32 -44 -47 -37 -79 21 -94
l45 -12 -60 -1 c-100 -2 -150 -27 -184 -93 -14 -28 -8 -64 9 -53 6 4 9 1 8 -7
-3 -13 1 -13 87 -1 69 9 64 23 -8 23 -53 0 -67 3 -67 15 0 8 5 15 10 15 6 0
10 10 10 23 0 18 2 19 10 7 8 -12 10 -11 10 8 0 22 1 22 148 22 98 0 142 -3
132 -10 -11 -7 3 -10 45 -10 42 0 56 -3 45 -10 -11 -7 -3 -10 30 -10 33 0 41
-3 30 -10 -11 -7 -7 -10 18 -10 17 0 32 -5 32 -11 0 -5 -4 -7 -10 -4 -5 3 -10
1 -10 -4 0 -6 15 -11 33 -11 24 0 28 -3 17 -10 -12 -8 -9 -10 13 -10 15 0 27
-4 27 -10 0 -5 7 -10 16 -10 9 0 25 -9 34 -20 15 -17 19 -18 24 -5 3 8 5 18 5
21 0 4 5 11 13 15 10 7 9 9 -5 9 -18 0 -47 22 -47 35 0 14 -30 35 -49 35 -12
0 -21 5 -21 10 0 6 -10 10 -22 10 -19 0 -20 2 -8 10 12 8 11 10 -7 10 -13 0
-23 5 -23 10 0 6 -15 10 -32 10 -25 0 -29 3 -18 10 11 7 3 10 -30 10 -33 0
-41 3 -30 10 11 7 1 10 -35 10 -36 0 -46 3 -35 10 10 7 -14 10 -77 10 -86 0
-93 1 -93 20 0 14 7 20 23 20 18 0 19 2 7 10 -10 7 8 10 60 10 52 0 70 -3 60
-10 -11 -7 -1 -10 35 -10 36 0 46 -3 35 -10 -11 -7 -3 -10 30 -10 33 0 41 -3
30 -10 -11 -7 -7 -10 18 -10 17 0 32 -4 32 -10 0 -5 10 -10 23 -10 18 0 19 -2
7 -10 -12 -8 -11 -10 8 -10 12 0 22 -4 22 -10 0 -5 9 -10 21 -10 12 0 34 -14
49 -30 15 -17 36 -30 47 -30 15 0 16 -2 3 -10 -12 -8 -11 -10 8 -10 12 0 22
-5 22 -11 0 -5 -4 -7 -10 -4 -5 3 -10 1 -10 -4 0 -6 9 -11 19 -11 14 0 19 6
18 23 0 12 -6 25 -12 29 -6 5 -4 8 5 8 13 0 13 1 0 10 -9 6 -11 13 -5 18 20
14 17 53 -5 72 -15 13 -21 27 -17 40 3 11 1 17 -4 14 -12 -7 -42 23 -34 36 3
6 -1 7 -9 4 -9 -3 -16 -1 -16 6 0 17 -26 40 -47 40 -10 0 -25 9 -33 20 -8 11
-24 20 -35 20 -16 0 -17 2 -5 10 11 7 6 10 -20 10 -26 0 -31 3 -20 10 12 8 11
10 -7 10 -13 0 -23 5 -23 10 0 6 16 10 36 10 28 0 43 -8 74 -40 21 -22 46 -40
55 -40 15 0 65 -42 65 -56 0 -4 10 -15 21 -25 13 -12 20 -26 16 -38 -3 -14 -1
-18 9 -14 16 6 19 63 4 63 -5 0 -10 5 -10 11 0 5 5 7 10 4 6 -3 10 -1 10 4 0
6 -10 11 -21 11 -17 0 -20 5 -17 24 4 19 1 23 -10 18 -11 -4 -14 -1 -9 12 4
10 3 15 -3 11 -6 -4 -23 7 -39 24 -16 17 -34 31 -40 31 -6 0 -11 5 -11 10 0 6
-9 10 -20 10 -13 0 -20 7 -20 20 0 13 7 20 20 20 11 0 20 -4 20 -10 0 -5 5
-10 11 -10 6 0 32 -22 59 -50 27 -27 56 -50 64 -50 24 0 20 52 -4 70 -11 8
-20 25 -20 38 0 14 -13 36 -30 52 -16 15 -30 33 -30 39 0 6 -5 11 -11 11 -6 0
-24 14 -39 30 -16 17 -38 30 -52 30 -13 0 -30 9 -38 20 -15 21 -70 28 -70 10z
m73 -227 c-7 -2 -19 -2 -25 0 -7 3 -2 5 12 5 14 0 19 -2 13 -5z m-116 -59 c-3
-3 -12 -4 -19 -1 -8 3 -5 6 6 6 11 1 17 -2 13 -5z m33 -24 c-11 -7 -6 -10 20
-10 26 0 31 -3 20 -10 -11 -7 -6 -10 20 -10 26 0 31 -3 20 -10 -11 -7 -6 -10
20 -11 19 0 29 -3 23 -6 -19 -7 -16 -23 5 -23 10 0 24 -9 32 -20 8 -11 20 -20
27 -20 7 0 13 -4 13 -10 0 -5 7 -10 15 -10 20 0 85 -65 85 -85 0 -8 -4 -15
-10 -15 -5 0 -10 5 -10 10 0 6 -10 10 -22 10 -19 0 -20 2 -8 10 12 8 11 10 -5
10 -11 0 -27 9 -35 20 -8 11 -20 20 -27 20 -7 0 -13 5 -13 10 0 6 -8 10 -18
10 -10 0 -24 9 -32 20 -8 11 -22 20 -32 20 -10 0 -18 5 -18 10 0 6 -13 10 -30
10 -16 0 -30 5 -30 11 0 5 5 7 10 4 6 -3 10 -1 10 4 0 6 -15 11 -32 11 -25 0
-29 3 -18 10 11 7 2 10 -32 10 -27 0 -48 2 -48 5 0 19 31 34 70 34 33 1 41 -2
30 -9z m-24 -78 c-5 -8 -76 -4 -76 4 0 2 18 4 41 4 22 0 38 -4 35 -8z m-21
-132 c4 -6 -8 -10 -29 -10 -19 0 -38 5 -41 10 -4 6 8 10 29 10 19 0 38 -4 41
-10z"/>
<path d="M483 533 c9 -2 23 -2 30 0 6 3 -1 5 -18 5 -16 0 -22 -2 -12 -5z"/>
<path d="M330 371 c0 -12 288 -13 345 -1 26 5 -27 8 -152 9 -115 1 -193 -3
-193 -8z"/>
<path d="M565 341 c3 -5 -27 -12 -67 -15 -110 -8 -172 -17 -183 -27 -5 -5 -19
-9 -31 -9 -13 0 -26 -4 -29 -10 -3 -5 -14 -10 -24 -10 -23 0 -61 -44 -61 -72
0 -12 -7 -30 -17 -40 -15 -17 -15 -18 10 -16 22 2 27 8 27 28 0 20 2 22 10 10
7 -11 10 -7 10 18 0 25 4 32 20 32 11 0 20 5 20 10 0 6 15 10 33 10 24 0 28 3
17 10 -10 7 9 10 65 11 66 2 73 3 40 9 -24 4 28 7 125 7 97 0 149 -3 125 -7
-35 -6 -31 -7 30 -9 49 -1 66 -4 55 -11 -11 -7 -7 -10 18 -10 17 0 32 -4 32
-10 0 -5 15 -10 33 -10 24 0 28 -3 17 -10 -11 -7 -5 -10 25 -10 30 0 36 -3 25
-10 -12 -8 -11 -10 8 -10 26 0 28 -6 8 -26 -17 -16 -56 -19 -56 -4 0 6 -10 10
-22 10 -19 0 -20 2 -8 10 11 7 7 10 -17 10 -18 0 -33 5 -33 10 0 6 -28 11 -62
11 -54 1 -58 3 -28 9 20 4 -31 7 -125 7 -94 0 -145 -3 -125 -7 29 -6 22 -8
-35 -9 -49 -1 -66 -4 -55 -11 11 -7 3 -10 -30 -10 -33 0 -41 -3 -30 -10 11 -7
6 -10 -20 -10 -26 0 -31 -3 -20 -10 12 -8 9 -10 -12 -10 -20 0 -26 -4 -22 -15
4 -10 0 -15 -12 -16 -16 0 -15 -2 5 -12 18 -9 26 -8 35 3 6 8 25 21 41 29 17
7 38 17 47 22 10 5 33 9 52 9 19 0 38 5 41 10 4 6 62 10 140 10 78 0 136 -4
140 -10 3 -5 19 -10 34 -10 35 0 81 -21 81 -38 0 -13 13 -11 58 5 6 3 12 0 12
-6 0 -6 -7 -11 -15 -11 -8 0 -15 -4 -15 -10 0 -5 -9 -10 -20 -10 -13 0 -20 -7
-20 -20 0 -15 -7 -20 -28 -20 -16 0 -34 -8 -42 -20 -8 -11 -22 -20 -32 -20
-10 0 -18 -4 -18 -10 0 -18 55 -11 70 10 8 11 25 20 38 20 14 0 36 13 52 30
15 16 33 30 39 30 6 0 11 5 11 11 0 6 14 24 30 39 17 16 30 38 30 52 0 13 9
30 20 38 21 15 28 70 10 70 -5 0 -10 -8 -10 -18 0 -10 -9 -24 -20 -32 -12 -9
-20 -26 -20 -45 -1 -26 -2 -27 -11 -12 -6 10 -8 25 -5 33 3 8 0 14 -7 14 -7 0
-19 9 -27 20 -8 11 -25 20 -37 20 -13 0 -23 5 -23 10 0 6 -9 10 -20 10 -11 0
-20 5 -20 10 0 6 -19 10 -42 11 -37 1 -39 2 -18 9 16 5 -9 8 -73 9 -58 1 -96
-3 -92 -8z m100 -21 c8 -13 -15 -13 -35 0 -12 8 -11 10 7 10 12 0 25 -4 28
-10z"/>
<path d="M0 282 c0 -16 8 -34 20 -42 11 -8 20 -25 20 -38 0 -14 13 -36 30 -52
16 -15 30 -33 30 -39 0 -6 5 -11 11 -11 6 0 24 -13 39 -30 16 -17 38 -30 52
-30 13 0 30 -9 38 -20 15 -21 70 -28 70 -10 0 6 -8 10 -18 10 -10 0 -24 9 -32
20 -8 12 -26 20 -42 20 -21 0 -28 5 -28 20 0 13 -7 20 -20 20 -11 0 -20 5 -20
10 0 6 -7 10 -15 10 -8 0 -15 7 -15 15 0 8 -4 15 -10 15 -5 0 -10 9 -10 20 0
13 -7 20 -20 20 -15 0 -20 7 -20 28 0 16 -8 34 -20 42 -11 8 -20 22 -20 32 0
10 -4 18 -10 18 -5 0 -10 -13 -10 -28z"/>
<path d="M653 26 c3 -8 1 -17 -6 -20 -7 -2 -4 -5 6 -5 11 -1 17 6 17 19 0 11
-5 20 -11 20 -6 0 -9 -6 -6 -14z"/>
</g>
</svg>
