<?xml version="1.0" standalone="no"?>
<!DOCTYPE svg PUBLIC "-//W3C//DTD SVG 20010904//EN"
 "http://www.w3.org/TR/2001/REC-SVG-20010904/DTD/svg10.dtd">
<svg version="1.0" xmlns="http://www.w3.org/2000/svg"
 width="180.000000pt" height="180.000000pt" viewBox="0 0 180.000000 180.000000"
 preserveAspectRatio="xMidYMid meet">
<metadata>
Created by potrace 1.16, written by Peter Selinger 2001-2019
</metadata>
<g transform="translate(0.000000,180.000000) scale(0.100000,-0.100000)"
fill="#000000" stroke="none">
<path d="M800 1306 c-211 -57 -348 -264 -313 -470 28 -162 130 -285 281 -337
74 -26 190 -28 263 -4 57 19 145 70 167 98 12 14 9 18 -23 31 -51 22 -175 46
-232 46 -68 0 -175 -25 -240 -55 -31 -14 -58 -23 -60 -21 -2 2 2 20 11 39 13
32 22 38 83 57 144 45 314 34 443 -28 l60 -28 15 22 c14 22 13 24 -30 50 -25
14 -78 38 -118 52 -63 23 -87 27 -197 27 -69 0 -137 -3 -152 -8 -34 -9 -35 -1
-4 37 24 29 25 29 128 28 140 -1 251 -35 364 -113 l42 -28 6 22 c19 66 -258
197 -417 197 l-32 0 27 26 26 26 74 -16 c115 -26 289 -119 321 -173 13 -22 27
-15 26 15 -1 53 -168 172 -297 212 l-54 17 26 17 c25 16 28 15 88 -15 85 -43
139 -81 198 -140 50 -50 50 -50 50 -22 0 36 -108 146 -193 197 -50 29 -56 36
-41 44 14 8 26 4 51 -13 43 -28 112 -93 152 -142 20 -25 31 -32 31 -21 0 37
-24 74 -92 144 -53 55 -66 74 -52 74 11 0 39 -25 68 -60 28 -33 51 -60 53 -60
6 0 -18 52 -43 91 -97 154 -293 232 -464 185z m199 -27 c55 -12 106 -39 151
-78 26 -22 31 -30 18 -31 -11 0 -18 -8 -18 -19 0 -14 -6 -17 -24 -14 -34 7
-66 -13 -66 -41 0 -19 -4 -22 -30 -18 -39 6 -80 -21 -80 -51 0 -19 9 -27 48
-40 26 -9 36 -14 22 -11 -14 3 -51 8 -83 11 -51 5 -60 3 -82 -17 -14 -13 -25
-34 -25 -46 0 -20 7 -24 48 -29 73 -8 185 -34 202 -46 13 -9 12 -10 -3 -5 -53
17 -159 28 -235 24 -80 -4 -87 -6 -109 -34 -12 -16 -23 -42 -23 -58 l0 -29 63
9 c102 15 225 8 292 -14 46 -16 51 -19 20 -14 -22 4 -103 7 -180 6 -121 0
-148 -3 -198 -23 -42 -17 -62 -31 -73 -54 l-16 -30 -20 24 c-11 13 -34 53 -51
89 -29 59 -32 74 -32 160 0 82 4 103 27 153 55 117 184 217 304 236 51 8 80 6
153 -10z m86 -655 c36 -9 65 -20 65 -25 0 -17 -77 -60 -144 -81 -92 -28 -176
-21 -266 24 l-65 32 42 18 c112 49 252 61 368 32z"/>
</g>
</svg>
