<?xml version="1.0" standalone="no"?>
<!DOCTYPE svg PUBLIC "-//W3C//DTD SVG 20010904//EN"
 "http://www.w3.org/TR/2001/REC-SVG-20010904/DTD/svg10.dtd">
<svg version="1.0" xmlns="http://www.w3.org/2000/svg"
 width="256.000000pt" height="256.000000pt" viewBox="0 0 256.000000 256.000000"
 preserveAspectRatio="xMidYMid meet">
<metadata>
Created by potrace 1.16, written by Peter Selinger 2001-2019
</metadata>
<g transform="translate(0.000000,256.000000) scale(0.100000,-0.100000)"
fill="#000000" stroke="none">
<path d="M1178 2553 c12 -2 30 -2 40 0 9 3 -1 5 -23 4 -22 0 -30 -2 -17 -4z"/>
<path d="M1348 2553 c12 -2 32 -2 45 0 12 2 2 4 -23 4 -25 0 -35 -2 -22 -4z"/>
<path d="M1083 2543 c9 -2 25 -2 35 0 9 3 1 5 -18 5 -19 0 -27 -2 -17 -5z"/>
<path d="M1448 2543 c7 -3 16 -2 19 1 4 3 -2 6 -13 5 -11 0 -14 -3 -6 -6z"/>
<path d="M1010 2531 c0 -4 11 -6 25 -3 14 2 25 6 25 8 0 2 -11 4 -25 4 -14 0
-25 -4 -25 -9z"/>
<path d="M1105 2519 c-405 -59 -760 -317 -944 -685 -82 -163 -120 -317 -128
-509 -22 -567 333 -1071 877 -1243 298 -94 647 -68 925 70 92 46 220 134 291
200 47 44 68 58 83 53 26 -8 82 59 79 95 -2 29 58 124 73 115 5 -4 7 -11 4
-16 -4 -5 -3 -9 2 -9 4 0 21 25 37 54 23 43 27 58 18 69 -17 20 24 116 48 110
25 -7 55 100 30 109 -7 2 -7 20 1 56 9 36 17 51 25 48 18 -7 21 0 28 69 7 57
6 59 -8 35 -8 -14 -15 -37 -16 -52 0 -15 -4 -29 -8 -32 -5 -3 -42 29 -83 70
-211 214 -495 390 -789 488 -74 25 -143 46 -152 46 -31 0 -19 14 49 59 l66 43
71 -27 c261 -101 531 -286 741 -508 l102 -108 6 73 c3 41 0 81 -5 92 -22 41
-194 220 -286 296 -111 93 -268 202 -370 258 l-71 38 56 28 56 27 66 -45 c104
-71 199 -150 295 -244 169 -166 266 -290 266 -341 0 -16 5 -33 10 -36 6 -4 10
13 10 44 0 31 -5 53 -13 58 -8 5 -19 44 -25 91 -8 55 -19 94 -34 115 -72 105
-284 328 -382 402 l-39 30 39 17 39 18 98 -101 c122 -126 253 -301 262 -348 4
-19 13 -44 21 -55 8 -11 14 -32 15 -46 0 -14 3 -19 6 -12 7 18 -26 162 -44
189 -8 13 -19 20 -24 17 -5 -3 -8 -2 -7 3 4 15 -113 236 -164 310 -230 332
-628 536 -1038 532 -58 -1 -132 -5 -165 -10z m355 -23 c332 -51 652 -252 837
-527 83 -123 79 -126 -27 -15 -110 114 -121 119 -185 89 -56 -27 -48 -50 49
-132 159 -135 350 -356 362 -419 4 -18 4 -35 2 -37 -3 -3 -44 40 -92 95 -142
162 -435 400 -494 400 -12 0 -45 -11 -72 -25 -40 -20 -50 -30 -50 -50 0 -20
11 -31 51 -53 78 -42 246 -154 324 -216 87 -70 240 -218 304 -296 40 -48 47
-62 43 -89 l-4 -32 -122 118 c-208 203 -422 344 -676 447 -86 35 -109 33 -185
-16 -53 -36 -65 -48 -65 -70 0 -18 5 -28 15 -28 34 0 269 -85 375 -136 207
-99 375 -216 544 -375 91 -86 97 -94 90 -123 -3 -17 -8 -33 -9 -34 -2 -2 -46
32 -98 76 -284 240 -594 386 -956 451 -174 32 -169 33 -256 -50 -49 -47 -75
-79 -75 -94 0 -21 5 -22 118 -28 423 -24 815 -172 1144 -435 l77 -61 -16 -39
-15 -40 -82 59 c-89 65 -311 182 -421 222 -231 86 -429 120 -690 120 -241 -1
-322 -12 -350 -49 -69 -94 -115 -170 -115 -192 0 -23 2 -24 48 -19 26 3 90 15
142 27 136 31 431 39 590 16 206 -30 399 -90 573 -178 97 -48 227 -125 227
-134 0 -10 -46 -74 -53 -74 -4 0 -42 17 -85 39 -450 226 -1017 255 -1497 76
-55 -20 -106 -43 -113 -49 -7 -7 -35 -68 -61 -135 l-47 -122 -70 73 c-599 630
-384 1636 423 1983 196 85 425 113 643 81z m12 -1032 c345 -71 665 -238 941
-488 74 -67 75 -69 65 -100 -6 -17 -12 -32 -14 -34 -1 -2 -34 23 -74 56 -212
178 -494 321 -775 392 -128 33 -324 60 -433 60 l-77 1 80 74 c92 85 73 83 287
39z m-10 -349 c314 -41 594 -155 870 -352 l77 -56 -21 -37 -21 -36 -86 54
c-422 266 -986 358 -1452 237 -34 -9 -63 -14 -65 -12 -3 3 61 100 117 176 12
15 33 24 75 30 96 14 390 12 506 -4z m76 -366 c130 -14 306 -54 421 -95 96
-35 261 -111 295 -137 19 -14 19 -16 -13 -56 -32 -40 -33 -41 -62 -25 -58 30
-205 81 -304 107 -176 45 -239 52 -465 52 -185 0 -231 -3 -330 -23 -157 -32
-342 -95 -478 -163 -62 -31 -111 -51 -109 -45 3 6 24 60 47 119 49 122 43 117
194 172 242 88 542 123 804 94z m95 -184 c63 -8 159 -26 212 -40 86 -23 267
-85 303 -105 10 -5 -9 -26 -62 -71 -236 -198 -506 -301 -796 -301 -202 -1
-378 41 -555 130 -71 35 -209 124 -219 141 -8 12 78 60 210 116 293 125 604
170 907 130z"/>
<path d="M1590 2516 c25 -7 47 -11 49 -9 9 7 -6 12 -49 17 l-45 6 45 -14z"/>
<path d="M860 2491 c0 -5 9 -7 20 -4 11 3 20 7 20 9 0 2 -9 4 -20 4 -11 0 -20
-4 -20 -9z"/>
<path d="M1720 2476 c0 -2 9 -6 20 -9 11 -3 20 -1 20 4 0 5 -9 9 -20 9 -11 0
-20 -2 -20 -4z"/>
<path d="M780 2460 c0 -13 11 -13 30 0 12 8 11 10 -7 10 -13 0 -23 -4 -23 -10z"/>
<path d="M1780 2451 c0 -12 39 -25 48 -16 7 7 -17 25 -35 25 -7 0 -13 -4 -13
-9z"/>
<path d="M1880 2401 c0 -5 11 -11 25 -13 28 -6 34 6 9 16 -22 8 -34 7 -34 -3z"/>
<path d="M620 2380 c0 -5 7 -7 15 -4 8 4 15 8 15 10 0 2 -7 4 -15 4 -8 0 -15
-4 -15 -10z"/>
<path d="M1962 2357 c18 -18 48 -28 48 -17 0 6 -7 10 -15 10 -8 0 -15 5 -15
10 0 6 -7 10 -16 10 -13 0 -13 -2 -2 -13z"/>
<path d="M570 2350 c0 -5 -7 -10 -15 -10 -8 0 -15 -4 -15 -10 0 -11 30 -1 48
17 11 11 11 13 -2 13 -9 0 -16 -4 -16 -10z"/>
<path d="M500 2299 c0 -5 5 -7 10 -4 6 3 10 8 10 11 0 2 -4 4 -10 4 -5 0 -10
-5 -10 -11z"/>
<path d="M455 2269 c-4 -6 -5 -13 -2 -16 7 -7 27 6 27 18 0 12 -17 12 -25 -2z"/>
<path d="M2122 2239 c2 -7 10 -15 17 -17 8 -3 12 1 9 9 -2 7 -10 15 -17 17 -8
3 -12 -1 -9 -9z"/>
<path d="M2225 2130 c3 -5 10 -10 16 -10 5 0 9 5 9 10 0 6 -7 10 -16 10 -8 0
-12 -4 -9 -10z"/>
<path d="M285 2099 c-4 -6 -5 -13 -2 -16 7 -7 27 6 27 18 0 12 -17 12 -25 -2z"/>
<path d="M2285 2070 c3 -5 8 -10 11 -10 2 0 4 5 4 10 0 6 -5 10 -11 10 -5 0
-7 -4 -4 -10z"/>
<path d="M250 2049 c0 -5 5 -7 10 -4 6 3 10 8 10 11 0 2 -4 4 -10 4 -5 0 -10
-5 -10 -11z"/>
<path d="M2315 2030 c3 -5 8 -10 11 -10 2 0 4 5 4 10 0 6 -5 10 -11 10 -5 0
-7 -4 -4 -10z"/>
<path d="M220 2005 c0 -8 -4 -15 -10 -15 -5 0 -10 -7 -10 -16 0 -13 2 -13 13
-2 18 18 28 48 17 48 -6 0 -10 -7 -10 -15z"/>
<path d="M2376 1935 c4 -8 8 -15 10 -15 2 0 4 7 4 15 0 8 -4 15 -10 15 -5 0
-7 -7 -4 -15z"/>
<path d="M170 1925 c0 -8 2 -15 4 -15 2 0 6 7 10 15 3 8 1 15 -4 15 -6 0 -10
-7 -10 -15z"/>
<path d="M90 1758 c0 -19 2 -20 10 -8 13 19 13 30 0 30 -5 0 -10 -10 -10 -22z"/>
<path d="M60 1680 c0 -11 2 -20 4 -20 2 0 6 9 9 20 3 11 1 20 -4 20 -5 0 -9
-9 -9 -20z"/>
<path d="M20 1525 c0 -14 2 -25 4 -25 2 0 6 11 8 25 3 14 1 25 -3 25 -5 0 -9
-11 -9 -25z"/>
<path d="M12 1460 c0 -19 2 -27 5 -17 2 9 2 25 0 35 -3 9 -5 1 -5 -18z"/>
<path d="M2552 1420 c0 -19 2 -27 5 -17 2 9 2 25 0 35 -3 9 -5 1 -5 -18z"/>
<path d="M3 1365 c0 -22 2 -30 4 -17 2 12 2 30 0 40 -3 9 -5 -1 -4 -23z"/>
<path d="M3 1190 c0 -25 2 -35 4 -22 2 12 2 32 0 45 -2 12 -4 2 -4 -23z"/>
<path d="M11 1104 c0 -11 3 -14 6 -6 3 7 2 16 -1 19 -3 4 -6 -2 -5 -13z"/>
<path d="M22 1040 c0 -14 4 -38 8 -55 7 -27 8 -27 8 -5 0 14 -4 39 -8 55 -7
27 -8 27 -8 5z"/>
<path d="M2517 960 c-3 -11 -1 -20 4 -20 5 0 9 9 9 20 0 11 -2 20 -4 20 -2 0
-6 -9 -9 -20z"/>
<path d="M80 823 c0 -13 5 -23 10 -23 13 0 13 11 0 30 -8 12 -10 11 -10 -7z"/>
<path d="M100 778 c0 -23 11 -48 21 -48 14 0 11 24 -6 46 -12 16 -14 17 -15 2z"/>
<path d="M2446 761 c-4 -7 -5 -15 -2 -18 9 -9 19 4 14 18 -4 11 -6 11 -12 0z"/>
<path d="M150 671 c0 -16 12 -41 20 -41 4 0 5 11 2 25 -4 23 -22 36 -22 16z"/>
<path d="M210 565 c0 -8 4 -15 10 -15 5 0 7 7 4 15 -4 8 -8 15 -10 15 -2 0 -4
-7 -4 -15z"/>
<path d="M2306 521 c-4 -7 -5 -15 -2 -18 9 -9 19 4 14 18 -4 11 -6 11 -12 0z"/>
<path d="M312 429 c2 -7 10 -15 17 -17 8 -3 12 1 9 9 -2 7 -10 15 -17 17 -8 3
-12 -1 -9 -9z"/>
<path d="M420 326 c0 -9 5 -16 10 -16 6 0 10 4 10 9 0 6 -4 13 -10 16 -5 3
-10 -1 -10 -9z"/>
<path d="M2095 290 c-3 -5 -1 -10 4 -10 6 0 11 5 11 10 0 6 -2 10 -4 10 -3 0
-8 -4 -11 -10z"/>
<path d="M480 270 c0 -5 5 -10 11 -10 5 0 7 5 4 10 -3 6 -8 10 -11 10 -2 0 -4
-4 -4 -10z"/>
<path d="M2035 250 c-3 -5 1 -10 9 -10 9 0 16 5 16 10 0 6 -4 10 -9 10 -6 0
-13 -4 -16 -10z"/>
<path d="M520 240 c0 -5 5 -10 11 -10 5 0 7 5 4 10 -3 6 -8 10 -11 10 -2 0 -4
-4 -4 -10z"/>
<path d="M1955 190 c-3 -5 -1 -10 4 -10 6 0 11 5 11 10 0 6 -2 10 -4 10 -3 0
-8 -4 -11 -10z"/>
<path d="M610 180 c0 -6 7 -10 15 -10 8 0 15 2 15 4 0 2 -7 6 -15 10 -8 3 -15
1 -15 -4z"/>
<path d="M1900 160 c-13 -8 -12 -10 3 -10 9 0 17 5 17 10 0 12 -1 12 -20 0z"/>
<path d="M1795 110 c-3 -5 1 -10 9 -10 9 0 16 5 16 10 0 6 -4 10 -9 10 -6 0
-13 -4 -16 -10z"/>
<path d="M1675 64 l-40 -14 39 5 c37 4 54 11 45 19 -2 2 -22 -3 -44 -10z"/>
<path d="M910 49 c0 -5 11 -9 25 -9 14 0 25 2 25 4 0 2 -11 6 -25 8 -14 3 -25
1 -25 -3z"/>
<path d="M1595 40 c-19 -8 -19 -9 3 -9 12 -1 22 4 22 9 0 6 -1 10 -2 9 -2 0
-12 -4 -23 -9z"/>
<path d="M990 29 c0 -7 89 -23 96 -17 2 2 -19 9 -46 14 -28 6 -50 7 -50 3z"/>
<path d="M1123 3 c9 -2 25 -2 35 0 9 3 1 5 -18 5 -19 0 -27 -2 -17 -5z"/>
<path d="M1413 3 c9 -2 25 -2 35 0 9 3 1 5 -18 5 -19 0 -27 -2 -17 -5z"/>
</g>
</svg>
