<?xml version="1.0" standalone="no"?>
<!DOCTYPE svg PUBLIC "-//W3C//DTD SVG 20010904//EN"
 "http://www.w3.org/TR/2001/REC-SVG-20010904/DTD/svg10.dtd">
<svg version="1.0" xmlns="http://www.w3.org/2000/svg"
 width="180.000000pt" height="180.000000pt" viewBox="0 0 180.000000 180.000000"
 preserveAspectRatio="xMidYMid meet">
<metadata>
Created by potrace 1.16, written by Peter Selinger 2001-2019
</metadata>
<g transform="translate(0.000000,180.000000) scale(0.100000,-0.100000)"
fill="#000000" stroke="none">
<path d="M1165 1405 c-396 -86 -845 -521 -872 -844 -5 -55 -2 -75 17 -120 l23
-53 51 6 c140 16 327 162 400 313 26 52 33 81 55 220 25 164 187 349 396 453
l80 40 -45 -1 c-25 0 -72 -6 -105 -14z m-30 -43 c-6 -4 -36 -28 -68 -52 -87
-65 -173 -164 -214 -247 -28 -57 -37 -90 -43 -155 -9 -97 -32 -163 -85 -242
-72 -109 -232 -226 -331 -241 -32 -5 -41 -3 -51 14 -79 129 37 385 278 616
107 103 189 165 304 226 99 54 243 109 210 81z"/>
<path d="M1310 1363 c-95 -53 -222 -183 -261 -268 -31 -66 -32 -71 -33 -219
-1 -146 -2 -154 -33 -223 -38 -89 -109 -191 -168 -240 -25 -20 -43 -39 -41
-41 9 -9 214 105 290 161 403 298 584 733 354 853 -36 19 -33 19 -108 -23z
m129 -32 c61 -61 70 -139 28 -257 -52 -144 -179 -315 -332 -443 -76 -65 -196
-151 -209 -151 -3 0 9 24 27 53 76 120 103 229 92 372 -5 74 -3 99 11 135 24
64 96 162 154 212 49 42 166 118 182 118 4 0 26 -18 47 -39z"/>
</g>
</svg>
