<?xml version="1.0" standalone="no"?>
<!DOCTYPE svg PUBLIC "-//W3C//DTD SVG 20010904//EN"
 "http://www.w3.org/TR/2001/REC-SVG-20010904/DTD/svg10.dtd">
<svg version="1.0" xmlns="http://www.w3.org/2000/svg"
 width="256.000000pt" height="256.000000pt" viewBox="0 0 256.000000 256.000000"
 preserveAspectRatio="xMidYMid meet">
<metadata>
Created by potrace 1.16, written by Peter Selinger 2001-2019
</metadata>
<g transform="translate(0.000000,256.000000) scale(0.100000,-0.100000)"
fill="#000000" stroke="none">
<path d="M1757 2320 c-416 -90 -915 -410 -1253 -803 -367 -427 -504 -861 -347
-1099 25 -37 28 -38 83 -38 166 0 415 135 598 324 186 193 271 374 292 622 11
125 36 219 86 314 82 158 270 361 454 492 52 37 157 99 234 138 l138 70 -98
-1 c-57 0 -137 -9 -187 -19z m94 -51 c-203 -109 -335 -215 -517 -412 -36 -40
-130 -187 -159 -251 -38 -82 -65 -191 -65 -264 0 -110 -48 -279 -112 -392 -74
-131 -220 -292 -348 -382 -131 -93 -316 -168 -411 -168 -39 0 -47 4 -66 34
-104 161 -64 444 106 734 36 62 160 241 185 268 6 6 31 36 55 65 55 66 197
209 270 269 29 25 67 57 85 73 48 42 262 189 346 237 224 130 531 237 685 239
39 1 38 0 -54 -50z"/>
<path d="M2111 2280 c-70 -34 -236 -139 -229 -145 3 -3 46 22 97 56 166 109
211 119 286 59 21 -17 41 -30 45 -30 14 0 71 -98 87 -147 9 -30 15 -89 15
-153 1 -91 -5 -132 -28 -212 -3 -10 -1 -18 4 -18 16 0 42 147 42 234 0 146
-51 259 -147 328 -39 27 -95 58 -106 58 -1 0 -31 -14 -66 -30z"/>
<path d="M1745 2015 c-64 -64 -114 -119 -110 -123 4 -4 19 8 33 26 15 19 52
59 84 90 31 32 71 69 90 84 18 14 30 29 26 33 -4 4 -59 -46 -123 -110z"/>
<path d="M1588 1828 c-50 -76 -73 -123 -98 -204 -24 -81 -27 -145 -15 -324 7
-116 0 -208 -22 -285 -3 -14 -2 -17 5 -10 27 26 43 252 26 380 -3 28 -6 64 -7
80 0 99 48 248 109 337 26 38 44 71 42 74 -3 3 -21 -19 -40 -48z"/>
<path d="M2365 1647 c-8 -20 -15 -39 -15 -43 0 -15 -103 -210 -145 -275 -25
-39 -44 -73 -42 -76 13 -13 164 256 207 368 22 60 18 81 -5 26z"/>
<path d="M2121 1209 c-13 -17 -21 -33 -18 -35 2 -3 16 11 31 31 15 19 23 35
18 35 -4 0 -18 -14 -31 -31z"/>
<path d="M2071 1144 c-7 -8 -11 -17 -9 -20 3 -2 13 5 23 16 10 11 14 20 9 20
-5 -1 -15 -8 -23 -16z"/>
<path d="M2012 1072 c-116 -129 -248 -252 -387 -363 -49 -39 -92 -76 -94 -82
-8 -22 205 151 317 257 86 82 218 226 206 225 -5 0 -24 -17 -42 -37z"/>
<path d="M1440 979 c0 -5 5 -7 10 -4 6 3 10 8 10 11 0 2 -4 4 -10 4 -5 0 -10
-5 -10 -11z"/>
<path d="M1430 949 c0 -5 5 -7 10 -4 6 3 10 8 10 11 0 2 -4 4 -10 4 -5 0 -10
-5 -10 -11z"/>
<path d="M1420 917 c0 -23 -85 -188 -133 -259 -25 -38 -42 -68 -37 -68 18 0
151 231 178 308 6 19 7 32 1 32 -5 0 -9 -6 -9 -13z"/>
<path d="M1458 587 c-26 -18 -48 -35 -48 -40 0 -4 25 9 55 29 30 20 55 38 55
40 0 9 -18 0 -62 -29z"/>
<path d="M1114 454 c-67 -68 -120 -124 -118 -124 2 0 49 20 105 44 112 50 303
155 295 163 -3 3 -22 -5 -43 -18 -68 -43 -97 -59 -163 -90 -36 -17 -78 -38
-94 -45 -55 -28 -40 -2 52 86 50 49 92 94 92 100 0 14 10 23 -126 -116z"/>
</g>
</svg>
