<?xml version="1.0" standalone="no"?>
<!DOCTYPE svg PUBLIC "-//W3C//DTD SVG 20010904//EN"
 "http://www.w3.org/TR/2001/REC-SVG-20010904/DTD/svg10.dtd">
<svg version="1.0" xmlns="http://www.w3.org/2000/svg"
 width="100.000000pt" height="100.000000pt" viewBox="0 0 100.000000 100.000000"
 preserveAspectRatio="xMidYMid meet">
<metadata>
Created by potrace 1.16, written by Peter Selinger 2001-2019
</metadata>
<g transform="translate(0.000000,100.000000) scale(0.100000,-0.100000)"
fill="#000000" stroke="none">
<path d="M690 990 c0 -5 -20 -10 -45 -10 -25 0 -45 -4 -45 -10 0 -5 -9 -10
-20 -10 -11 0 -20 -4 -20 -10 0 -5 -9 -10 -20 -10 -11 0 -20 -4 -20 -10 0 -5
-9 -10 -20 -10 -11 0 -20 -4 -20 -10 0 -5 -9 -10 -20 -10 -11 0 -20 -7 -20
-15 0 -8 -8 -15 -18 -15 -10 0 -24 -9 -32 -20 -8 -11 -23 -20 -33 -20 -11 0
-32 -13 -47 -30 -15 -16 -33 -30 -39 -30 -14 0 -141 -126 -141 -140 0 -5 -7
-10 -15 -10 -8 0 -15 -7 -15 -16 0 -9 -13 -29 -30 -44 -16 -15 -30 -34 -30
-42 0 -7 -9 -20 -20 -28 -21 -15 -28 -70 -10 -70 6 0 10 -9 10 -20 0 -11 -4
-20 -10 -20 -5 0 -10 -11 -10 -25 0 -14 5 -25 10 -25 6 0 10 11 10 25 0 14 5
25 10 25 6 0 10 9 10 20 0 11 5 20 10 20 6 0 10 8 10 18 0 10 9 24 20 32 11 8
20 20 20 28 0 14 23 42 35 42 13 0 37 31 30 38 -4 4 -10 1 -12 -5 -7 -21 -33
-15 -33 7 0 11 7 20 15 20 8 0 15 5 15 10 0 15 50 63 57 56 4 -3 -4 -14 -15
-25 -23 -19 -29 -41 -12 -41 6 0 10 5 10 11 0 7 10 20 22 31 18 15 20 21 9 28
-11 6 -5 16 22 44 20 20 43 36 52 36 21 0 19 -9 -7 -31 -11 -11 -19 -22 -15
-25 3 -3 22 11 43 31 27 28 33 39 24 45 -11 7 -10 11 3 24 17 18 57 22 57 6 0
-5 -7 -10 -15 -10 -8 0 -15 -4 -15 -10 0 -15 19 -12 37 6 13 13 14 17 3 24
-11 7 -10 11 3 24 17 17 47 22 47 7 0 -5 -6 -11 -12 -14 -7 -2 -10 -8 -6 -12
4 -4 15 1 25 11 13 12 14 19 5 22 -20 6 -14 32 8 32 11 0 20 -7 20 -15 0 -8 5
-15 10 -15 6 0 10 7 10 15 0 8 -4 15 -10 15 -5 0 -10 5 -10 10 0 6 9 10 20 10
11 0 20 -4 20 -10 0 -5 9 -10 20 -10 11 0 20 5 20 10 0 6 9 10 20 10 11 0 20
5 20 10 0 6 20 10 45 10 25 0 45 5 45 10 0 6 27 10 60 10 53 0 60 -2 60 -20 0
-11 5 -20 10 -20 6 0 10 14 10 30 0 28 2 30 41 30 46 0 83 -25 58 -40 -11 -7
-9 -13 9 -28 12 -11 22 -24 22 -31 0 -6 5 -11 10 -11 14 0 12 27 -2 34 -10 5
-10 7 0 12 19 9 14 33 -13 59 -19 20 -34 25 -75 25 -27 0 -50 5 -50 10 0 6
-33 10 -80 10 -47 0 -80 -4 -80 -10z m140 -20 c0 -6 -27 -10 -60 -10 -33 0
-60 -4 -60 -10 0 -5 -20 -10 -45 -10 -25 0 -45 -4 -45 -10 0 -5 -9 -10 -20
-10 -11 0 -20 -4 -20 -10 0 -5 -9 -10 -20 -10 -11 0 -20 5 -20 10 0 6 9 10 20
10 11 0 20 5 20 10 0 6 9 10 20 10 11 0 20 5 20 10 0 6 20 10 45 10 25 0 45 5
45 10 0 6 27 10 60 10 33 0 60 -4 60 -10z m150 -60 c0 -5 -4 -10 -10 -10 -5 0
-10 5 -10 10 0 6 5 10 10 10 6 0 10 -4 10 -10z m-650 -150 c0 -5 -4 -10 -10
-10 -5 0 -10 5 -10 10 0 6 5 10 10 10 6 0 10 -4 10 -10z m-210 -208 c0 -4 -9
-14 -20 -22 -11 -8 -20 -21 -20 -30 0 -9 -9 -22 -20 -30 -11 -8 -20 -22 -20
-32 0 -10 -4 -18 -10 -18 -18 0 -11 35 10 50 11 8 20 20 20 28 0 7 10 24 23
37 23 24 37 31 37 17z"/>
<path d="M870 930 c0 -5 11 -10 25 -10 14 0 25 5 25 10 0 6 -11 10 -25 10 -14
0 -25 -4 -25 -10z"/>
<path d="M770 890 c0 -5 -9 -10 -20 -10 -11 0 -20 -7 -20 -15 0 -8 -4 -15 -10
-15 -5 0 -10 -9 -10 -20 0 -22 -16 -27 -23 -7 -3 8 -11 5 -24 -10 -11 -13 -23
-23 -27 -23 -13 0 -136 -130 -136 -145 0 -8 -4 -15 -10 -15 -5 0 -10 -16 -10
-35 0 -19 -4 -35 -10 -35 -6 0 -10 -27 -10 -60 0 -33 -4 -60 -10 -60 -5 0 -10
-13 -10 -30 0 -16 -4 -30 -10 -30 -5 0 -10 -11 -10 -25 0 -14 -4 -25 -10 -25
-5 0 -10 -9 -10 -20 0 -11 -5 -20 -11 -20 -14 0 -39 -26 -39 -41 0 -6 -10 -20
-22 -31 -19 -16 -20 -21 -8 -28 12 -7 11 -12 -8 -28 -12 -11 -22 -24 -22 -31
0 -6 -9 -11 -20 -11 -26 0 -25 18 2 41 11 11 19 22 15 25 -7 7 -57 -41 -57
-55 0 -5 6 -11 12 -13 17 -6 -14 -38 -36 -38 -9 0 -16 -4 -16 -10 0 -5 -9 -10
-20 -10 -11 0 -20 -4 -20 -10 0 -6 -28 -10 -65 -10 -37 0 -65 4 -65 10 0 6 -4
10 -10 10 -5 0 -10 -9 -10 -20 0 -18 7 -20 85 -20 50 0 85 4 85 10 0 6 9 10
20 10 11 0 20 5 20 10 0 6 8 10 18 10 10 0 24 9 32 20 23 31 50 26 50 -10 0
-28 3 -30 35 -30 28 0 35 -4 35 -20 0 -16 7 -20 30 -20 17 0 30 5 30 10 0 6
14 10 30 10 17 0 30 5 30 10 0 6 8 10 18 10 10 0 24 9 32 20 8 11 20 20 28 20
16 0 42 24 42 39 0 6 9 11 21 11 12 0 34 14 49 30 15 17 33 30 39 30 7 0 43
31 81 70 38 38 74 70 80 70 5 0 10 9 10 21 0 12 14 34 30 49 17 15 30 34 30
42 0 7 9 20 20 28 21 15 28 70 10 70 -5 0 -10 9 -10 20 0 11 5 20 10 20 6 0
10 11 10 25 0 14 -4 25 -10 25 -5 0 -10 -11 -10 -25 0 -14 -4 -25 -10 -25 -5
0 -10 -9 -10 -20 0 -11 -4 -20 -10 -20 -5 0 -10 -8 -10 -18 0 -10 -9 -24 -20
-32 -11 -8 -20 -20 -20 -28 0 -14 -23 -42 -35 -42 -13 0 -37 -31 -30 -38 4 -4
10 -1 12 6 8 22 33 13 33 -13 0 -15 -6 -25 -14 -25 -8 0 -17 -6 -19 -12 -4
-10 -8 -10 -15 1 -8 11 -17 6 -47 -24 -28 -27 -34 -39 -25 -45 10 -6 6 -14
-13 -34 -14 -14 -33 -26 -42 -26 -21 0 -19 9 7 31 11 11 19 22 15 25 -3 3 -22
-11 -43 -31 -27 -28 -33 -39 -24 -45 18 -11 -11 -40 -39 -40 -23 0 -29 16 -8
23 6 2 9 8 5 12 -4 4 -15 -1 -25 -11 -13 -12 -14 -19 -5 -22 16 -5 15 -20 -2
-38 -17 -16 -46 -19 -46 -4 0 6 5 10 10 10 6 0 10 7 10 15 0 8 -4 15 -10 15
-5 0 -10 -6 -10 -14 0 -8 -6 -17 -12 -19 -10 -4 -10 -8 1 -15 12 -9 12 -13 -2
-26 -8 -9 -23 -16 -31 -16 -9 0 -16 -4 -16 -10 0 -5 -13 -10 -29 -10 -16 0
-31 -6 -34 -13 -2 -7 -8 -8 -13 -3 -5 5 -4 11 4 13 21 8 13 23 -12 23 -13 0
-27 6 -29 13 -4 9 -8 8 -16 -3 -5 -8 -13 -11 -17 -8 -7 8 40 58 56 58 5 0 10
-4 10 -10 0 -5 -7 -10 -15 -10 -8 0 -15 -4 -15 -10 0 -5 5 -10 10 -10 12 0 60
45 60 56 0 3 14 19 30 34 17 15 30 35 30 44 0 9 5 16 10 16 6 0 10 9 10 20 0
11 5 20 10 20 6 0 10 9 10 20 0 11 5 20 10 20 6 0 10 16 10 35 0 19 5 35 10
35 6 0 10 52 10 135 0 83 4 135 10 135 6 0 10 9 10 20 0 11 5 20 10 20 6 0 10
9 10 20 0 11 5 20 10 20 6 0 40 29 75 65 36 35 65 69 65 75 0 5 9 10 20 10 11
0 20 5 20 10 0 6 -9 10 -20 10 -11 0 -20 -4 -20 -10z m-80 -85 c0 -8 -48 -55
-55 -55 -12 0 -35 -29 -35 -44 0 -9 -4 -16 -10 -16 -5 0 -10 -9 -10 -20 0 -11
-4 -20 -10 -20 -6 0 -10 -52 -10 -135 0 -83 -4 -135 -10 -135 -5 0 -10 -16
-10 -35 0 -19 -4 -35 -10 -35 -5 0 -10 -9 -10 -20 0 -11 -4 -20 -10 -20 -5 0
-10 -9 -10 -20 0 -11 -4 -20 -10 -20 -5 0 -10 -7 -10 -16 0 -9 -13 -29 -30
-44 -16 -15 -30 -33 -30 -39 0 -6 -4 -11 -10 -11 -19 0 -10 22 20 50 17 15 30
35 30 44 0 9 5 16 10 16 6 0 10 9 10 20 0 11 5 20 10 20 6 0 10 9 10 20 0 11
5 20 10 20 6 0 10 16 10 35 0 19 5 35 10 35 6 0 10 48 10 125 0 77 -4 125 -10
125 -5 0 -10 -11 -10 -25 0 -14 -4 -25 -10 -25 -5 0 -10 11 -10 25 0 14 5 25
10 25 6 0 10 7 10 15 0 16 103 125 118 125 4 0 14 9 22 20 14 19 30 27 30 15z
m-190 -305 c0 -33 -4 -60 -10 -60 -5 0 -10 -13 -10 -30 0 -16 -4 -30 -10 -30
-5 0 -10 -11 -10 -25 0 -14 -4 -25 -10 -25 -5 0 -10 -8 -10 -18 0 -10 -9 -24
-20 -32 -11 -8 -20 -22 -20 -32 0 -10 -5 -18 -11 -18 -7 0 -20 -10 -30 -22
-11 -11 -22 -18 -26 -15 -3 4 4 15 15 26 12 10 22 26 22 35 0 9 5 16 11 16 16
0 39 26 39 44 0 9 5 16 10 16 6 0 10 11 10 25 0 14 5 25 10 25 6 0 10 14 10
30 0 17 5 30 10 30 6 0 10 27 10 60 0 33 4 60 10 60 6 0 10 -27 10 -60z m480
22 c0 -10 -9 -24 -20 -32 -11 -8 -20 -20 -20 -28 0 -16 -49 -66 -57 -58 -4 3
4 14 15 25 12 10 22 25 22 32 0 8 9 21 20 29 11 8 20 22 20 32 0 10 5 18 10
18 6 0 10 -8 10 -18z m-460 -112 c0 -5 -4 -10 -10 -10 -5 0 -10 5 -10 10 0 6
5 10 10 10 6 0 10 -4 10 -10z m-20 -65 c0 -8 -4 -15 -10 -15 -5 0 -10 7 -10
15 0 8 5 15 10 15 6 0 10 -7 10 -15z m330 -20 c0 -11 -51 -57 -57 -52 -3 3 6
17 18 31 23 24 39 32 39 21z m-350 -25 c0 -5 -4 -10 -10 -10 -5 0 -10 5 -10
10 0 6 5 10 10 10 6 0 10 -4 10 -10z m-20 -40 c0 -5 -4 -10 -10 -10 -5 0 -10
-7 -10 -16 0 -9 -13 -29 -30 -44 -16 -15 -30 -33 -30 -39 0 -6 -6 -11 -13 -11
-7 0 -19 -9 -27 -20 -16 -22 -30 -26 -30 -10 0 14 86 100 100 100 5 0 10 7 10
15 0 17 20 44 33 45 4 0 7 -4 7 -10z m230 -60 c0 -5 -4 -10 -10 -10 -5 0 -10
5 -10 10 0 6 5 10 10 10 6 0 10 -4 10 -10z"/>
<path d="M540 660 c0 -5 5 -10 10 -10 6 0 10 5 10 10 0 6 -4 10 -10 10 -5 0
-10 -4 -10 -10z"/>
<path d="M190 110 c0 -5 5 -10 10 -10 6 0 10 5 10 10 0 6 -4 10 -10 10 -5 0
-10 -4 -10 -10z"/>
<path d="M0 90 c0 -5 5 -10 10 -10 6 0 10 5 10 10 0 6 -4 10 -10 10 -5 0 -10
-4 -10 -10z"/>
<path d="M150 90 c0 -5 5 -10 10 -10 6 0 10 5 10 10 0 6 -4 10 -10 10 -5 0
-10 -4 -10 -10z"/>
<path d="M480 90 c0 -5 5 -10 10 -10 6 0 10 5 10 10 0 6 -4 10 -10 10 -5 0
-10 -4 -10 -10z"/>
<path d="M40 70 c0 -5 18 -10 40 -10 22 0 40 5 40 10 0 6 -18 10 -40 10 -22 0
-40 -4 -40 -10z"/>
<path d="M440 70 c0 -5 5 -10 10 -10 6 0 10 5 10 10 0 6 -4 10 -10 10 -5 0
-10 -4 -10 -10z"/>
</g>
</svg>
