<?xml version="1.0" standalone="no"?>
<!DOCTYPE svg PUBLIC "-//W3C//DTD SVG 20010904//EN"
 "http://www.w3.org/TR/2001/REC-SVG-20010904/DTD/svg10.dtd">
<svg version="1.0" xmlns="http://www.w3.org/2000/svg"
 width="100.000000pt" height="100.000000pt" viewBox="0 0 100.000000 100.000000"
 preserveAspectRatio="xMidYMid meet">
<metadata>
Created by potrace 1.16, written by Peter Selinger 2001-2019
</metadata>
<g transform="translate(0.000000,100.000000) scale(0.100000,-0.100000)"
fill="#000000" stroke="none">
<path d="M185 880 c-4 -7 112 -10 339 -10 308 0 346 -2 346 -16 0 -8 6 -22 14
-30 16 -16 71 -20 61 -4 -3 6 -17 10 -31 10 -15 0 -24 6 -24 16 0 43 -12 44
-364 44 -212 0 -337 -4 -341 -10z"/>
<path d="M176 851 c-4 -7 -5 -15 -2 -18 9 -9 19 4 14 18 -4 11 -6 11 -12 0z"/>
<path d="M54 805 c-3 -8 -4 -20 -1 -27 3 -7 6 -3 6 9 1 17 8 23 34 26 l32 4
-33 1 c-21 1 -35 -3 -38 -13z"/>
<path d="M130 790 c0 -24 6 -25 26 -6 19 20 18 26 -6 26 -13 0 -20 -7 -20 -20z"/>
<path d="M190 790 c0 -11 5 -20 10 -20 6 0 10 5 10 10 0 6 52 10 135 10 83 0
135 -4 135 -10 0 -5 5 -10 10 -10 6 0 10 6 10 14 0 16 51 10 62 -8 5 -8 8 -7
8 2 0 6 11 12 24 12 13 0 27 -6 30 -12 5 -10 7 -10 12 0 3 6 12 12 19 12 7 0
16 -6 19 -12 5 -10 7 -10 12 0 3 6 18 12 34 12 16 0 31 -6 33 -12 4 -10 6 -10
6 0 1 14 31 17 31 2 0 -5 5 -10 10 -10 6 0 10 6 10 14 0 9 7 12 20 9 11 -3 20
-9 20 -14 0 -5 5 -9 10 -9 6 0 10 9 10 20 0 20 -7 20 -340 20 -333 0 -340 0
-340 -20z"/>
<path d="M7 753 c7 -2 19 -2 26 0 6 3 1 5 -13 5 -14 0 -19 -2 -13 -5z"/>
<path d="M60 730 c0 -11 5 -20 10 -20 6 0 10 5 10 10 0 6 7 10 15 10 8 0 15 5
15 10 0 6 -11 10 -25 10 -18 0 -25 -5 -25 -20z"/>
<path d="M130 575 c0 -122 3 -175 11 -175 6 0 9 9 6 20 -4 15 0 20 16 20 20 1
21 2 5 14 -24 18 -23 46 2 46 18 0 20 -7 20 -60 l0 -60 -95 0 c-57 0 -95 -4
-95 -10 0 -5 13 -10 30 -10 29 0 30 -2 30 -45 0 -43 -1 -45 -30 -45 -17 0 -30
-4 -30 -10 0 -6 48 -10 125 -10 l125 0 0 30 c0 29 1 30 50 30 29 0 50 5 50 11
0 6 -9 8 -20 4 -18 -6 -20 -2 -20 54 l0 61 -30 0 -30 0 0 95 0 95 125 0 125 0
0 -35 0 -35 -95 0 -95 0 0 -30 c0 -26 -4 -30 -26 -30 -14 0 -23 -4 -19 -10 3
-5 24 -10 46 -10 21 0 39 5 39 10 0 6 -6 10 -14 10 -21 0 -8 37 15 43 18 5 19
-2 19 -140 0 -128 -2 -144 -16 -139 -9 3 -18 6 -20 6 -2 0 -4 7 -4 15 0 8 -4
15 -10 15 -5 0 -10 -11 -10 -25 0 -25 0 -25 95 -25 l95 0 0 95 0 95 60 0 60 0
0 -95 0 -95 31 0 c17 0 28 4 24 10 -3 6 -13 10 -21 10 -8 0 -14 9 -14 20 0 11
7 20 15 20 8 0 15 5 15 10 0 6 -7 10 -15 10 -19 0 -22 106 -2 113 6 2 2 2 -10
0 -19 -3 -23 1 -23 24 -1 24 -2 26 -13 12 -7 -8 -20 -18 -29 -22 -14 -5 -18
-1 -18 18 0 21 5 25 30 25 l30 0 0 95 0 95 95 0 c88 0 95 -1 95 -20 0 -17 -7
-20 -49 -20 -30 0 -52 5 -55 13 -5 10 -7 10 -12 0 -3 -7 -17 -13 -30 -13 -13
0 -24 -4 -24 -10 0 -5 7 -10 15 -10 10 0 15 -11 15 -35 0 -24 -5 -35 -15 -35
-8 0 -15 -4 -15 -10 0 -5 9 -10 20 -10 11 0 20 -4 20 -10 0 -5 -9 -10 -19 -10
-11 0 -23 -4 -26 -10 -4 -6 5 -10 20 -10 18 0 29 6 32 19 4 16 16 20 64 23 51
3 59 1 59 -14 0 -10 5 -18 10 -18 6 0 10 6 10 14 0 7 9 16 20 19 16 4 20 0 20
-19 0 -24 -2 -24 -90 -24 l-90 0 0 -125 0 -125 60 0 60 0 0 95 0 95 65 0 65 0
0 155 0 155 -405 0 -405 0 0 -175z m793 134 c4 -15 0 -19 -24 -19 -24 0 -29 4
-29 24 0 19 4 22 24 19 13 -3 26 -14 29 -24z m-733 1 c0 -13 -7 -20 -20 -20
-13 0 -20 7 -20 20 0 13 7 20 20 20 13 0 20 -7 20 -20z m350 10 c0 -6 -62 -10
-165 -10 -103 0 -165 4 -165 10 0 6 62 10 165 10 103 0 165 -4 165 -10z m80
-10 c0 -16 -7 -20 -30 -20 -23 0 -30 4 -30 20 0 16 7 20 30 20 23 0 30 -4 30
-20z m70 10 c0 -5 -11 -10 -25 -10 -14 0 -25 5 -25 10 0 6 11 10 25 10 14 0
25 -4 25 -10z m160 0 c0 -6 -30 -10 -70 -10 -40 0 -70 4 -70 10 0 6 30 10 70
10 40 0 70 -4 70 -10z m-617 -50 c-3 -11 -14 -20 -24 -20 -12 0 -19 7 -19 20
0 14 7 20 24 20 19 0 23 -4 19 -20z m267 0 c0 -19 -7 -20 -125 -20 -118 0
-125 1 -125 20 0 19 7 20 125 20 118 0 125 -1 125 -20z m58 -3 c2 -12 -3 -17
-17 -17 -15 0 -21 6 -21 21 0 25 33 22 38 -4z m312 3 c0 -13 -7 -20 -19 -20
-10 0 -21 9 -24 20 -4 16 0 20 19 20 17 0 24 -6 24 -20z m-700 -75 c0 -43 -4
-75 -10 -75 -6 0 -10 32 -10 75 0 43 4 75 10 75 6 0 10 -32 10 -75z m430 0 c0
-43 -4 -75 -10 -75 -6 0 -10 32 -10 75 0 43 4 75 10 75 6 0 10 -32 10 -75z
m320 0 c0 -60 -3 -75 -15 -75 -12 0 -15 15 -15 75 0 60 3 75 15 75 12 0 15
-15 15 -75z m-685 0 c0 -30 -3 -35 -22 -35 -20 0 -23 5 -23 35 0 30 3 35 23
35 19 0 22 -5 22 -35z m325 0 c0 -30 -3 -35 -22 -35 -20 0 -23 5 -23 35 0 30
3 35 23 35 19 0 22 -5 22 -35z m310 0 l0 -35 -90 0 -90 0 0 35 0 35 90 0 90 0
0 -35z m-640 -76 c0 -12 -7 -19 -20 -19 -14 0 -20 7 -20 24 0 19 4 23 20 19
11 -3 20 -14 20 -24z m270 6 c0 -24 -3 -25 -60 -25 -33 0 -60 2 -60 4 0 30 33
48 43 24 4 -10 8 -10 14 -2 4 7 19 14 33 17 14 2 26 5 28 6 1 0 2 -10 2 -24z
m60 0 c0 -18 -5 -25 -20 -25 -25 0 -27 37 -2 43 9 3 18 5 20 6 1 0 2 -10 2
-24z m360 -45 c0 -15 -7 -20 -25 -20 -18 0 -25 5 -25 20 0 15 7 20 25 20 18 0
25 -5 25 -20z m-690 -75 c0 -43 -4 -75 -10 -75 -6 0 -10 32 -10 75 0 43 4 75
10 75 6 0 10 -32 10 -75z m190 -30 c0 -87 -3 -105 -15 -105 -12 0 -15 18 -15
105 0 87 3 105 15 105 12 0 15 -18 15 -105z m80 95 c0 -5 -13 -10 -30 -10 -16
0 -30 5 -30 10 0 6 14 10 30 10 17 0 30 -4 30 -10z m40 0 c0 -5 -4 -10 -10
-10 -5 0 -10 5 -10 10 0 6 5 10 10 10 6 0 10 -4 10 -10z m310 0 c0 -5 -26 -10
-57 -12 l-58 -3 -3 -92 c-4 -129 -22 -118 -22 12 l0 105 70 0 c39 0 70 -4 70
-10z m-367 -47 c-4 -10 -14 -23 -22 -30 -14 -11 -14 -12 2 -13 20 0 24 -45 5
-54 -10 -5 -10 -7 0 -12 19 -9 14 -41 -8 -47 -19 -5 -20 0 -20 84 0 88 0 89
25 89 19 0 23 -4 18 -17z m310 0 c-4 -10 -11 -22 -17 -26 -8 -6 -7 -10 2 -14
6 -2 12 -15 12 -28 0 -13 -6 -26 -12 -29 -10 -5 -10 -7 0 -12 20 -10 15 -44
-8 -44 -18 0 -20 7 -20 85 0 84 0 85 25 85 19 0 23 -4 18 -17z m-503 -13 c0
-5 -6 -11 -12 -14 -10 -5 -10 -7 0 -12 20 -9 15 -51 -8 -57 -18 -5 -20 0 -20
48 0 48 2 53 20 48 11 -3 20 -9 20 -13z m-160 -75 c0 -23 3 -25 50 -25 43 0
50 -3 50 -20 0 -26 -40 -28 -40 -2 -1 16 -1 16 -14 0 -9 -12 -27 -18 -55 -18
l-41 0 0 45 c0 41 2 45 25 45 20 0 25 -5 25 -25z m60 6 c0 -14 -5 -18 -20 -14
-11 3 -20 12 -20 19 0 8 9 14 20 14 13 0 20 -7 20 -19z"/>
<path d="M810 596 c0 -14 5 -26 10 -26 6 0 10 9 10 19 0 11 -4 23 -10 26 -6 4
-10 -5 -10 -19z"/>
<path d="M7 693 c7 -2 19 -2 26 0 6 3 1 5 -13 5 -14 0 -19 -2 -13 -5z"/>
<path d="M60 595 l0 -95 31 0 c17 0 28 4 24 10 -3 6 -12 10 -19 10 -8 0 -16 9
-19 19 -4 15 1 21 22 24 25 4 26 4 4 12 -26 8 -31 35 -8 35 8 0 15 5 15 10 0
6 -7 10 -15 10 -8 0 -15 9 -15 20 0 11 6 20 14 20 8 0 18 5 21 10 4 6 -7 10
-24 10 l-31 0 0 -95z"/>
<path d="M955 680 c3 -5 15 -10 26 -10 10 0 19 5 19 10 0 6 -12 10 -26 10 -14
0 -23 -4 -19 -10z"/>
<path d="M955 620 c3 -5 15 -10 26 -10 10 0 19 5 19 10 0 6 -12 10 -26 10 -14
0 -23 -4 -19 -10z"/>
<path d="M310 595 c0 -8 5 -15 10 -15 6 0 10 7 10 15 0 8 -4 15 -10 15 -5 0
-10 -7 -10 -15z"/>
<path d="M350 595 c0 -8 5 -15 10 -15 6 0 10 7 10 15 0 8 -4 15 -10 15 -5 0
-10 -7 -10 -15z"/>
<path d="M431 594 c0 -11 3 -14 6 -6 3 7 2 16 -1 19 -3 4 -6 -2 -5 -13z"/>
<path d="M960 570 c0 -5 9 -10 20 -10 11 0 20 5 20 10 0 6 -9 10 -20 10 -11 0
-20 -4 -20 -10z"/>
<path d="M270 550 c0 -5 5 -10 10 -10 6 0 10 5 10 10 0 6 -4 10 -10 10 -5 0
-10 -4 -10 -10z"/>
<path d="M955 510 c-4 -6 5 -10 19 -10 14 0 26 5 26 10 0 6 -9 10 -19 10 -11
0 -23 -4 -26 -10z"/>
<path d="M0 490 c0 -5 9 -10 20 -10 11 0 20 5 20 10 0 6 -9 10 -20 10 -11 0
-20 -4 -20 -10z"/>
<path d="M960 450 c0 -5 9 -10 20 -10 11 0 20 5 20 10 0 6 -9 10 -20 10 -11 0
-20 -4 -20 -10z"/>
<path d="M0 430 c0 -5 9 -10 20 -10 11 0 20 -4 20 -10 0 -5 5 -10 10 -10 6 0
10 9 10 20 0 16 -7 20 -30 20 -17 0 -30 -4 -30 -10z"/>
<path d="M325 430 c3 -5 10 -10 16 -10 5 0 9 5 9 10 0 6 -7 10 -16 10 -8 0
-12 -4 -9 -10z"/>
<path d="M526 399 c-19 -19 -19 -19 7 -19 20 0 27 5 27 20 0 25 -9 25 -34 -1z"/>
<path d="M836 399 c-19 -19 -19 -19 7 -19 20 0 27 5 27 20 0 25 -9 25 -34 -1z"/>
<path d="M920 410 c0 -5 -7 -10 -15 -10 -8 0 -15 -4 -15 -10 0 -5 11 -10 25
-10 18 0 25 5 25 20 0 11 -4 20 -10 20 -5 0 -10 -4 -10 -10z"/>
<path d="M963 373 c9 -2 23 -2 30 0 6 3 -1 5 -18 5 -16 0 -22 -2 -12 -5z"/>
<path d="M560 335 c0 -18 -5 -25 -20 -25 -11 0 -20 -4 -20 -10 0 -18 39 -11
50 9 13 25 13 51 0 51 -5 0 -10 -11 -10 -25z"/>
<path d="M870 335 c0 -18 -5 -25 -20 -25 -11 0 -20 -4 -20 -9 0 -5 12 -8 26
-7 22 2 28 9 30 35 2 17 -1 31 -6 31 -6 0 -10 -11 -10 -25z"/>
<path d="M270 260 c0 -5 7 -10 16 -10 8 0 12 5 9 10 -3 6 -10 10 -16 10 -5 0
-9 -4 -9 -10z"/>
<path d="M538 243 c12 -2 32 -2 45 0 12 2 2 4 -23 4 -25 0 -35 -2 -22 -4z"/>
<path d="M180 215 c0 -11 -20 -15 -92 -18 l-93 -3 98 -2 c91 -2 97 -1 97 18 0
11 -2 20 -5 20 -3 0 -5 -7 -5 -15z"/>
<path d="M310 210 c0 -16 -7 -20 -30 -20 -16 0 -30 -4 -30 -10 0 -15 49 -12
66 4 16 17 19 46 4 46 -5 0 -10 -9 -10 -20z"/>
<path d="M690 210 c0 -16 7 -20 30 -20 23 0 30 4 30 20 0 22 -15 27 -24 8 -5
-10 -7 -10 -12 0 -9 19 -24 14 -24 -8z"/>
<path d="M485 200 c-3 -5 -1 -10 4 -10 6 0 11 5 11 10 0 6 -2 10 -4 10 -3 0
-8 -4 -11 -10z"/>
<path d="M620 199 c0 -5 11 -9 25 -9 14 0 25 2 25 4 0 2 -11 6 -25 8 -14 3
-25 1 -25 -3z"/>
<path d="M785 200 c-19 -8 -19 -9 3 -9 12 -1 22 4 22 9 0 6 -1 10 -2 9 -2 0
-12 -4 -23 -9z"/>
</g>
</svg>
