<?xml version="1.0" standalone="no"?>
<!DOCTYPE svg PUBLIC "-//W3C//DTD SVG 20010904//EN"
 "http://www.w3.org/TR/2001/REC-SVG-20010904/DTD/svg10.dtd">
<svg version="1.0" xmlns="http://www.w3.org/2000/svg"
 width="100.000000pt" height="100.000000pt" viewBox="0 0 100.000000 100.000000"
 preserveAspectRatio="xMidYMid meet">
<metadata>
Created by potrace 1.16, written by Peter Selinger 2001-2019
</metadata>
<g transform="translate(0.000000,100.000000) scale(0.100000,-0.100000)"
fill="#000000" stroke="none">
<path d="M230 860 l0 -30 -95 0 -95 0 0 -30 c0 -23 -4 -30 -20 -30 -11 0 -20
-4 -20 -10 0 -5 13 -10 30 -10 27 0 30 3 30 30 l0 30 95 0 95 0 0 30 0 30 220
0 220 0 0 -30 0 -30 125 0 125 0 0 -30 c0 -27 3 -30 30 -30 17 0 30 5 30 10 0
6 -9 10 -20 10 -16 0 -20 7 -20 30 l0 30 -125 0 -125 0 0 30 0 30 -240 0 -240
0 0 -30z"/>
<path d="M310 830 c0 -15 -7 -20 -25 -20 -14 0 -25 -4 -25 -10 0 -5 16 -10 35
-10 32 0 35 2 35 30 0 17 -4 30 -10 30 -5 0 -10 -9 -10 -20z"/>
<path d="M361 834 c0 -11 3 -14 6 -6 3 7 2 16 -1 19 -3 4 -6 -2 -5 -13z"/>
<path d="M540 841 c0 -6 5 -13 10 -16 6 -3 10 1 10 9 0 9 -4 16 -10 16 -5 0
-10 -4 -10 -9z"/>
<path d="M354 803 c10 -11 316 -13 316 -3 0 6 -66 10 -162 10 -89 0 -158 -3
-154 -7z"/>
<path d="M190 774 c0 -8 5 -12 10 -9 6 3 10 10 10 16 0 5 -4 9 -10 9 -5 0 -10
-7 -10 -16z"/>
<path d="M793 770 c5 -18 0 -20 -41 -21 l-47 -2 50 -7 c28 -5 75 -9 106 -9 50
-1 58 -4 64 -23 6 -20 8 -20 12 -6 8 30 -21 48 -76 48 -44 0 -51 3 -51 20 0
11 -5 20 -11 20 -6 0 -9 -9 -6 -20z"/>
<path d="M123 738 c31 -7 63 -7 95 0 44 9 40 10 -48 10 -88 0 -92 -1 -47 -10z"/>
<path d="M60 688 c0 -44 0 -44 -30 -40 -18 3 -30 0 -30 -7 0 -6 13 -11 30 -11
25 0 30 -4 30 -25 0 -14 5 -25 11 -25 7 0 9 23 5 72 -7 82 -16 103 -16 36z"/>
<path d="M963 683 c9 -2 23 -2 30 0 6 3 -1 5 -18 5 -16 0 -22 -2 -12 -5z"/>
<path d="M858 628 c-3 -51 -28 -83 -28 -36 -1 45 -22 58 -91 57 -113 -2 -134
-17 -26 -18 l97 -1 0 -115 c0 -77 4 -115 11 -115 8 0 10 26 7 80 -3 77 -2 80
19 80 21 0 23 4 23 60 0 74 -8 79 -12 8z"/>
<path d="M185 640 c-4 -6 25 -10 82 -9 59 1 80 4 63 9 -36 12 -138 12 -145 0z"/>
<path d="M173 600 c-3 -11 -9 -20 -14 -20 -5 0 -9 -4 -9 -10 0 -5 9 -10 20
-10 16 0 20 7 20 30 0 34 -9 40 -17 10z"/>
<path d="M311 594 c-1 -19 -6 -21 -51 -18 -27 1 -52 -2 -56 -7 -3 -5 95 -9
240 -9 l246 0 -1 28 c-1 15 -3 20 -6 11 -2 -10 -17 -19 -34 -21 -24 -4 -29 -1
-30 16 -1 17 -2 18 -6 4 -4 -16 -18 -18 -118 -18 -100 0 -114 2 -118 18 -4 16
-5 16 -6 0 -1 -24 -48 -24 -54 0 -4 14 -5 13 -6 -4z"/>
<path d="M725 570 c-27 -7 -25 -8 18 -9 26 0 47 4 47 9 0 11 -21 11 -65 0z"/>
<path d="M0 550 c0 -5 25 -10 55 -10 l55 0 0 -90 0 -90 60 0 60 0 0 -35 0 -35
270 0 270 0 0 35 c0 19 5 35 10 35 6 0 10 -20 10 -45 0 -43 -1 -45 -30 -45
l-30 0 0 -80 0 -80 135 0 c83 0 135 4 135 10 0 6 -48 10 -125 10 l-125 0 0 60
0 60 30 0 30 0 0 65 0 65 -30 0 c-28 0 -30 -3 -30 -35 l0 -35 -250 0 -250 0 0
35 0 35 -60 0 -60 0 0 90 0 90 -65 0 c-37 0 -65 -4 -65 -10z"/>
<path d="M441 523 c-1 -19 4 -23 29 -23 17 0 30 5 30 10 0 6 -11 10 -24 10
-13 0 -27 6 -29 13 -3 6 -6 2 -6 -10z"/>
<path d="M550 530 c0 -6 -10 -15 -22 -20 -22 -8 -22 -9 5 -9 21 -1 27 4 27 19
0 11 -2 20 -5 20 -3 0 -5 -5 -5 -10z"/>
<path d="M736 510 c-8 -18 -6 -70 3 -70 6 0 11 -10 11 -22 0 -13 4 -18 8 -12
4 6 16 14 27 19 18 8 18 9 -7 13 -23 3 -28 8 -28 33 0 24 4 29 26 29 14 0 22
4 19 10 -6 10 -55 10 -59 0z"/>
<path d="M251 488 c-1 -27 -3 -28 -51 -28 -27 0 -50 -4 -50 -10 0 -5 6 -10 14
-10 9 0 12 -7 9 -20 -3 -11 0 -20 6 -20 6 0 11 9 11 20 0 16 7 20 30 20 23 0
30 -4 30 -20 0 -11 5 -20 10 -20 11 0 11 40 0 85 l-8 30 -1 -27z"/>
<path d="M870 448 c0 -4 16 -8 35 -8 19 0 35 2 35 4 0 2 -16 6 -35 8 -19 2
-35 0 -35 -4z"/>
<path d="M968 443 c6 -2 18 -2 25 0 6 3 1 5 -13 5 -14 0 -19 -2 -12 -5z"/>
<path d="M310 390 c0 -6 24 -10 57 -10 68 0 66 7 -5 15 -33 4 -52 2 -52 -5z"/>
<path d="M575 390 c-21 -5 -2 -8 63 -9 55 -1 92 3 92 9 0 12 -110 12 -155 0z"/>
<path d="M453 383 c9 -2 25 -2 35 0 9 3 1 5 -18 5 -19 0 -27 -2 -17 -5z"/>
<path d="M830 376 c0 -2 9 -6 20 -9 11 -3 20 -1 20 4 0 5 -9 9 -20 9 -11 0
-20 -2 -20 -4z"/>
<path d="M953 373 c9 -2 25 -2 35 0 9 3 1 5 -18 5 -19 0 -27 -2 -17 -5z"/>
<path d="M605 357 c-4 -10 -5 -21 -1 -24 10 -10 18 4 13 24 -4 17 -4 17 -12 0z"/>
<path d="M301 344 c0 -11 3 -14 6 -6 3 7 2 16 -1 19 -3 4 -6 -2 -5 -13z"/>
<path d="M371 344 c0 -11 3 -14 6 -6 3 7 2 16 -1 19 -3 4 -6 -2 -5 -13z"/>
<path d="M691 344 c0 -11 3 -14 6 -6 3 7 2 16 -1 19 -3 4 -6 -2 -5 -13z"/>
<path d="M855 300 c3 -5 8 -10 11 -10 2 0 4 5 4 10 0 6 -5 10 -11 10 -5 0 -7
-4 -4 -10z"/>
<path d="M823 243 c-8 -3 -13 -23 -13 -49 0 -42 12 -58 24 -31 5 10 7 10 12 0
9 -20 24 -15 24 7 0 13 -7 20 -20 20 -13 0 -20 7 -20 20 0 11 5 20 10 20 6 0
10 -4 10 -10 0 -5 5 -10 10 -10 6 0 10 9 10 20 0 20 -19 25 -47 13z"/>
</g>
</svg>
