<?xml version="1.0" standalone="no"?>
<!DOCTYPE svg PUBLIC "-//W3C//DTD SVG 20010904//EN"
 "http://www.w3.org/TR/2001/REC-SVG-20010904/DTD/svg10.dtd">
<svg version="1.0" xmlns="http://www.w3.org/2000/svg"
 width="58.000000pt" height="58.000000pt" viewBox="0 0 58.000000 58.000000"
 preserveAspectRatio="xMidYMid meet">
<metadata>
Created by potrace 1.16, written by Peter Selinger 2001-2019
</metadata>
<g transform="translate(0.000000,58.000000) scale(0.100000,-0.100000)"
fill="#000000" stroke="none">
<path d="M106 565 c-10 -7 -15 -18 -12 -24 4 -5 1 -13 -5 -17 -8 -5 -9 -3 -4
7 6 11 5 11 -5 2 -9 -9 -11 -35 -6 -105 9 -127 10 -135 20 -145 5 -5 7 -1 3
10 -4 12 -3 16 4 11 6 -3 9 -17 6 -30 -4 -25 8 -33 16 -11 4 9 6 9 6 0 2 -22
-22 -26 -37 -7 -13 18 -14 18 -7 -5 5 -16 4 -21 -4 -17 -8 5 -11 -28 -11 -113
l0 -119 85 -1 c58 0 88 4 97 13 7 7 22 11 33 9 12 -3 16 -1 9 4 -7 5 -6 16 3
33 11 22 13 23 14 5 1 -11 1 -29 1 -40 -2 -14 0 -16 6 -7 7 10 11 10 22 -3 20
-24 111 -20 133 6 24 28 40 69 39 99 l-1 25 15 -25 c9 -14 13 -17 10 -7 -4 11
-9 31 -12 45 -4 21 -3 24 5 12 7 -9 11 -10 11 -3 0 6 -4 14 -8 17 -5 3 -7 20
-4 37 4 27 2 31 -12 26 -9 -4 -15 -3 -12 1 3 5 -10 8 -29 8 -29 -1 -34 -4 -33
-26 0 -36 -10 -132 -15 -137 -3 -2 -4 71 -4 162 1 95 5 165 10 165 5 0 7 -16
4 -35 -3 -21 -2 -33 4 -30 5 4 9 2 9 -3 0 -5 17 -6 38 -3 30 5 37 11 39 31 1
14 6 49 11 77 5 34 5 54 -2 56 -5 2 -6 11 -2 23 8 19 8 19 16 -1 7 -16 8 -13
7 12 -2 34 -11 43 -20 21 -4 -10 -8 -10 -14 -2 -5 7 -43 12 -95 13 -86 1 -94
-2 -89 -32 1 -5 -3 -6 -9 -2 -6 3 -14 -4 -18 -16 -7 -17 -11 -19 -17 -9 -5 9
-4 15 3 18 7 2 12 8 12 13 0 6 -5 7 -12 3 -7 -5 -9 -2 -6 7 8 21 -158 25 -186
4z m162 -90 c1 -52 -1 -95 -6 -95 -5 0 -15 26 -22 57 -7 32 -19 68 -27 80 -30
45 -73 16 -58 -39 3 -13 31 -77 63 -142 66 -140 79 -216 43 -273 -24 -38 -71
-52 -104 -30 -19 13 -25 12 -44 0 l-23 -15 0 101 c0 55 3 101 8 101 4 0 13
-27 19 -61 14 -75 37 -111 66 -107 19 3 22 10 25 50 3 41 -6 66 -54 170 -40
85 -59 138 -62 175 -4 48 -2 55 26 83 33 32 78 40 101 18 11 -11 15 -10 24 5
7 9 14 17 17 17 3 0 7 -43 8 -95z m222 -5 c0 -60 -4 -100 -10 -100 -5 0 -10
13 -10 28 0 62 -48 160 -65 133 -3 -6 -7 -117 -8 -246 -2 -217 -1 -235 15
-235 25 0 45 46 54 119 8 77 29 78 25 0 -5 -110 -54 -169 -116 -141 -47 22
-59 71 -60 252 0 168 9 224 43 263 19 22 71 22 87 0 11 -15 13 -15 24 5 6 12
14 22 16 22 3 0 5 -45 5 -100z m-193 -7 c-3 -10 -5 -4 -5 12 0 17 2 24 5 18 2
-7 2 -21 0 -30z m-96 -16 c-8 -8 -11 -7 -11 4 0 20 13 34 18 19 3 -7 -1 -17
-7 -23z m232 13 c3 -11 1 -20 -4 -20 -5 0 -9 9 -9 20 0 11 2 20 4 20 2 0 6 -9
9 -20z m-205 -75 c-3 -3 -9 2 -12 12 -6 14 -5 15 5 6 7 -7 10 -15 7 -18z m62
-31 c0 -9 -5 -12 -12 -8 -10 6 -10 4 0 -7 6 -7 12 -22 11 -33 0 -20 -1 -20 -9
2 -5 12 -12 22 -15 22 -4 0 -4 -10 0 -22 5 -21 5 -21 -5 -5 -7 10 -9 21 -6 24
3 4 0 13 -7 21 -8 11 -8 14 0 9 6 -4 14 -3 18 3 9 15 25 12 25 -6z m-138 -138
c7 5 8 2 3 -6 -4 -7 -2 -16 6 -21 11 -7 11 -9 1 -9 -7 0 -10 -5 -7 -10 4 -6
11 -7 17 -4 7 5 9 1 5 -9 -3 -9 -2 -29 3 -46 6 -23 5 -29 -6 -24 -7 3 -13 8
-12 11 1 4 -4 21 -11 37 -7 17 -14 48 -16 70 -2 22 -1 32 2 22 2 -9 9 -14 15
-11z"/>
<path d="M140 391 c0 -5 5 -13 10 -16 6 -3 10 -2 10 4 0 5 -4 13 -10 16 -5 3
-10 2 -10 -4z"/>
<path d="M157 339 c7 -7 15 -10 18 -7 3 3 -2 9 -12 12 -14 6 -15 5 -6 -5z"/>
<path d="M196 257 c3 -10 9 -15 12 -12 3 3 0 11 -7 18 -10 9 -11 8 -5 -6z"/>
<path d="M220 221 c0 -6 4 -13 10 -16 6 -3 7 1 4 9 -7 18 -14 21 -14 7z"/>
<path d="M249 142 c-3 -20 -2 -29 4 -23 5 5 7 19 5 32 -3 20 -5 19 -9 -9z"/>
<path d="M310 570 c0 -5 5 -10 10 -10 6 0 10 5 10 10 0 6 -4 10 -10 10 -5 0
-10 -4 -10 -10z"/>
<path d="M540 386 c0 -9 5 -16 10 -16 6 0 10 4 10 9 0 6 -4 13 -10 16 -5 3
-10 -1 -10 -9z"/>
</g>
</svg>
