<?xml version="1.0" standalone="no"?>
<!DOCTYPE svg PUBLIC "-//W3C//DTD SVG 20010904//EN"
 "http://www.w3.org/TR/2001/REC-SVG-20010904/DTD/svg10.dtd">
<svg version="1.0" xmlns="http://www.w3.org/2000/svg"
 width="100.000000pt" height="100.000000pt" viewBox="0 0 100.000000 100.000000"
 preserveAspectRatio="xMidYMid meet">
<metadata>
Created by potrace 1.16, written by Peter Selinger 2001-2019
</metadata>
<g transform="translate(0.000000,100.000000) scale(0.100000,-0.100000)"
fill="#000000" stroke="none">
<path d="M0 738 c0 -10 57 -12 262 -10 279 3 328 0 328 -23 0 -8 7 -15 15 -15
8 0 15 9 15 20 0 19 7 20 165 20 l165 0 0 -107 c0 -161 5 -153 -106 -153 -77
0 -94 3 -94 15 0 8 7 15 15 15 8 0 15 7 15 15 0 10 10 15 30 15 20 0 30 5 30
15 0 8 7 15 15 15 11 0 15 12 15 50 l0 50 -75 0 -75 0 0 -132 0 -133 -50 0
-50 0 0 53 c0 40 -4 52 -15 52 -8 0 -15 -7 -15 -15 0 -10 -10 -15 -30 -15 -20
0 -30 -5 -30 -15 0 -8 7 -15 15 -15 8 0 15 -7 15 -15 0 -8 7 -15 15 -15 8 0
15 -3 15 -7 0 -6 -297 -1 -307 6 -2 0 -3 8 -3 16 0 12 -19 15 -110 15 -91 0
-110 3 -110 15 0 8 -7 15 -15 15 -8 0 -15 7 -15 15 0 8 -7 15 -16 15 -11 0
-14 -5 -10 -16 3 -9 6 -20 6 -25 0 -5 7 -9 15 -9 8 0 15 -7 15 -15 0 -12 19
-15 110 -15 67 0 110 -4 110 -10 0 -6 -48 -10 -125 -10 l-125 0 0 -44 c0 -24
-3 -51 -6 -60 -5 -13 1 -16 25 -16 21 0 31 5 31 15 0 8 -7 15 -15 15 -10 0
-15 11 -15 35 l0 35 205 0 c198 0 205 -1 205 -20 0 -11 -7 -20 -15 -20 -8 0
-15 -7 -15 -15 0 -8 -9 -15 -20 -15 -11 0 -20 -7 -20 -15 0 -12 14 -15 65 -15
51 0 65 3 65 15 0 8 -7 15 -15 15 -10 0 -15 11 -15 35 l0 35 60 0 c53 0 60 -2
60 -20 0 -11 7 -20 15 -20 8 0 15 9 15 20 0 17 7 20 50 20 l50 0 0 -50 0 -50
125 0 125 0 0 235 0 235 -485 0 c-381 0 -485 -3 -485 -12z m850 -128 c0 -20
-5 -30 -15 -30 -8 0 -15 -7 -15 -15 0 -10 -10 -15 -30 -15 -20 0 -30 -5 -30
-15 0 -8 -4 -15 -10 -15 -6 0 -10 27 -10 60 l0 60 55 0 c54 0 55 0 55 -30z
m-250 -170 c0 -5 -4 -10 -10 -10 -5 0 -10 5 -10 10 0 6 5 10 10 10 6 0 10 -4
10 -10z m350 -65 l0 -75 -105 0 -105 0 0 75 0 75 105 0 105 0 0 -75z m-500
-65 c0 -5 -4 -10 -10 -10 -5 0 -10 5 -10 10 0 6 5 10 10 10 6 0 10 -4 10 -10z"/>
<path d="M130 645 c0 -8 -9 -15 -20 -15 -13 0 -20 -7 -20 -20 0 -13 7 -20 20
-20 11 0 20 -7 20 -15 0 -12 17 -15 90 -15 73 0 90 -3 90 -15 0 -8 7 -15 15
-15 8 0 15 7 15 15 0 12 16 15 80 15 l80 0 0 35 c0 24 -5 35 -15 35 -8 0 -15
7 -15 15 0 13 -26 15 -170 15 -144 0 -170 -2 -170 -15z m320 -20 c0 -8 7 -15
15 -15 8 0 15 -7 15 -15 0 -13 -25 -15 -165 -15 l-165 0 0 30 0 30 150 0 c127
0 150 -2 150 -15z"/>
<path d="M80 290 c0 -6 52 -10 135 -10 83 0 135 4 135 10 0 6 -52 10 -135 10
-83 0 -135 -4 -135 -10z"/>
<path d="M520 290 c0 -6 37 -10 90 -10 53 0 90 4 90 10 0 6 -37 10 -90 10 -53
0 -90 -4 -90 -10z"/>
</g>
</svg>
