<?xml version="1.0" standalone="no"?>
<!DOCTYPE svg PUBLIC "-//W3C//DTD SVG 20010904//EN"
 "http://www.w3.org/TR/2001/REC-SVG-20010904/DTD/svg10.dtd">
<svg version="1.0" xmlns="http://www.w3.org/2000/svg"
 width="256.000000pt" height="256.000000pt" viewBox="0 0 256.000000 256.000000"
 preserveAspectRatio="xMidYMid meet">
<metadata>
Created by potrace 1.16, written by Peter Selinger 2001-2019
</metadata>
<g transform="translate(0.000000,256.000000) scale(0.100000,-0.100000)"
fill="#000000" stroke="none">
<path d="M571 2484 c-143 -39 -288 -159 -355 -295 -32 -66 -46 -120 -121 -504
-46 -236 -81 -432 -77 -435 5 -3 88 -65 185 -139 l177 -134 198 113 c108 63
212 123 231 134 33 19 33 19 27 0 -3 -10 -38 -181 -76 -379 -62 -314 -71 -372
-68 -450 2 -71 8 -101 27 -140 35 -70 86 -122 155 -158 l61 -32 489 -3 c331
-2 507 1 543 8 147 31 306 158 377 300 33 67 45 120 121 505 46 236 83 430 82
431 -1 1 -80 61 -176 134 -96 72 -179 134 -186 136 -9 4 -407 -219 -443 -248
-7 -6 -14 -9 -16 -7 -2 2 30 173 71 379 66 334 74 385 71 465 -3 79 -8 97 -38
153 -37 70 -90 120 -166 154 -49 23 -53 23 -544 25 -409 2 -504 -1 -549 -13z
m173 -14 c32 -5 61 -11 63 -14 2 -2 -19 -26 -48 -52 -61 -58 -120 -145 -149
-220 -11 -30 -67 -298 -125 -597 -58 -298 -108 -552 -110 -564 -5 -21 -11 -19
-93 45 -48 37 -122 94 -165 126 -43 33 -80 63 -83 67 -3 5 32 196 77 426 68
353 86 429 114 488 60 126 176 232 306 280 70 26 123 30 213 15z m653 0 c184
1 207 -1 249 -20 116 -51 191 -155 201 -277 4 -60 -12 -157 -137 -788 -191
-971 -187 -947 -172 -1035 7 -39 23 -93 37 -120 30 -60 90 -120 127 -127 77
-15 20 -23 -167 -23 -118 0 -204 4 -201 9 3 5 -4 11 -17 15 -37 9 -136 105
-164 160 -46 88 -44 176 11 461 25 132 52 269 60 305 9 36 26 126 40 200 22
121 66 343 142 725 33 161 33 240 3 319 -23 63 -92 147 -141 172 -45 23 -44
16 3 -17 58 -41 85 -73 116 -138 28 -60 38 -160 23 -227 -5 -21 -27 -136 -50
-254 -23 -118 -42 -219 -44 -225 -4 -18 -14 -68 -40 -205 -25 -129 -73 -373
-81 -415 -102 -476 -112 -596 -61 -695 29 -57 104 -137 160 -171 l31 -19 -146
0 c-229 0 -303 21 -383 111 -83 91 -102 194 -68 369 11 58 84 429 162 825 126
641 141 727 136 788 -11 119 -57 209 -138 267 l-40 29 103 4 c57 2 136 2 174
0 39 -2 161 -3 272 -3z m-512 -58 c76 -57 108 -130 113 -252 3 -86 -5 -133
-77 -499 -44 -222 -81 -404 -83 -405 -27 -18 -449 -256 -453 -256 -3 0 -4 3
-2 8 3 4 51 241 106 527 118 602 121 618 163 703 28 56 158 212 176 212 4 0
29 -17 57 -38z m1215 -1234 c-157 -807 -157 -807 -226 -913 -18 -27 -55 -72
-83 -99 -42 -41 -53 -48 -76 -42 -41 11 -111 89 -136 154 -38 101 -32 169 55
607 90 453 82 422 104 429 9 3 109 60 222 125 113 66 206 116 208 111 2 -5
-29 -172 -68 -372z m413 132 c18 -16 15 -32 -63 -429 -44 -227 -90 -436 -100
-464 -43 -112 -164 -241 -275 -293 -85 -40 -147 -49 -238 -36 -44 6 -82 14
-84 16 -2 2 18 25 46 51 61 57 114 135 147 215 14 35 65 272 129 602 59 298
109 553 111 565 5 19 20 10 157 -94 84 -64 160 -123 170 -133z"/>
</g>
</svg>
