<?xml version="1.0" standalone="no"?>
<!DOCTYPE svg PUBLIC "-//W3C//DTD SVG 20010904//EN"
 "http://www.w3.org/TR/2001/REC-SVG-20010904/DTD/svg10.dtd">
<svg version="1.0" xmlns="http://www.w3.org/2000/svg"
 width="256.000000pt" height="256.000000pt" viewBox="0 0 256.000000 256.000000"
 preserveAspectRatio="xMidYMid meet">
<metadata>
Created by potrace 1.16, written by Peter Selinger 2001-2019
</metadata>
<g transform="translate(0.000000,256.000000) scale(0.100000,-0.100000)"
fill="#000000" stroke="none">
<path d="M430 1865 c0 0 -1 -264 -3 -588 l-2 -587 853 0 852 0 0 588 0 587
-850 0 c-467 0 -850 0 -850 0z m1670 -590 l0 -565 -825 0 -825 0 0 565 0 565
825 0 825 0 0 -565z"/>
<path d="M552 1543 l3 -198 30 0 30 0 3 168 2 167 660 0 659 0 3 -72 3 -73 30
0 30 0 0 100 0 100 -728 3 -727 2 2 -197z m1428 92 c0 -54 -4 -85 -11 -85 -7
0 -9 26 -7 75 l3 75 -687 0 -688 0 0 -170 c0 -107 -4 -170 -10 -170 -6 0 -10
67 -10 180 l0 180 705 0 705 0 0 -85z"/>
<path d="M1466 1571 c-3 -5 -15 -7 -25 -4 -23 6 -111 -12 -155 -31 -17 -8 -44
-17 -61 -21 -44 -10 -55 -23 -55 -68 l0 -41 -28 27 c-33 31 -49 33 -97 10 -28
-14 -35 -22 -36 -47 0 -17 -3 -25 -6 -18 -6 16 -88 16 -105 -1 -7 -7 -22 -16
-33 -20 -11 -3 -51 -17 -90 -31 -46 -16 -72 -21 -76 -14 -7 11 -91 4 -147 -13
-40 -13 -52 -35 -52 -93 0 -53 15 -72 73 -86 23 -6 55 -14 71 -18 44 -11 56
-37 29 -63 -30 -30 -66 -19 -100 32 -21 32 -32 39 -52 37 -31 -4 -35 -21 -26
-93 l6 -53 84 -7 c98 -8 123 -4 163 30 17 14 40 25 53 25 24 0 110 29 119 40
3 4 17 10 33 14 15 3 36 15 47 26 11 11 26 20 33 20 7 0 29 11 49 25 43 29 48
30 48 10 0 -8 9 -15 20 -15 18 0 20 -7 20 -66 0 -62 2 -68 35 -101 35 -35 38
-36 94 -30 32 2 70 13 85 22 23 16 26 16 26 1 0 -14 15 -16 100 -16 l100 0 0
29 c0 21 -6 32 -20 36 -14 4 -20 15 -20 34 0 27 3 29 51 35 38 5 59 15 80 36
26 25 29 35 29 92 0 42 -5 72 -17 88 -9 14 -10 19 -3 13 8 -7 31 -13 51 -13
37 0 38 1 53 54 9 30 16 60 16 67 0 9 4 8 13 -3 6 -9 20 -18 29 -20 14 -2 5
-24 -49 -123 -36 -66 -67 -134 -70 -152 -4 -22 -11 -33 -22 -33 -35 0 -61 -30
-61 -69 0 -47 24 -71 73 -71 45 0 72 34 65 80 -3 20 0 30 8 30 7 0 34 30 60
68 26 37 51 71 56 77 4 5 8 -64 8 -153 l0 -162 -659 0 -660 0 -3 23 c-2 17
-10 22 -33 22 -30 0 -30 -1 -30 -55 l0 -55 719 -3 c569 -2 721 0 728 10 9 15
11 359 2 382 -3 9 -17 16 -30 16 l-23 0 22 33 c12 17 37 52 55 76 46 63 44 99
-8 129 -21 12 -46 22 -54 22 -9 0 -16 6 -16 14 0 16 -120 56 -169 56 -25 0
-31 -4 -32 -22 -1 -20 -2 -20 -14 7 -8 20 -23 32 -41 36 -45 10 -222 10 -228
0z m134 -26 c0 -8 -9 -15 -20 -15 -18 0 -20 -7 -20 -80 l0 -80 34 0 c34 0 35
1 45 53 19 93 18 102 -7 105 -23 3 -26 28 -4 26 7 -1 25 -2 41 -2 26 -2 31 -9
60 -81 17 -44 31 -88 31 -97 0 -35 17 2 29 61 10 53 9 61 -6 72 -26 20 -9 25
41 12 50 -12 62 -29 21 -29 -16 0 -25 -6 -25 -16 0 -32 -43 -164 -54 -164 -23
0 -34 18 -61 100 l-29 85 -12 -60 c-17 -78 -17 -73 8 -77 12 -2 23 -9 26 -16
3 -10 -6 -11 -40 -5 -23 5 -73 8 -110 8 -49 -1 -68 3 -68 12 0 7 9 13 20 13
18 0 20 7 20 80 0 73 -2 80 -20 80 -11 0 -20 4 -20 9 0 6 24 12 53 14 28 2 55
4 60 5 4 1 7 -5 7 -13z m-143 -13 c6 -4 16 -19 22 -33 12 -34 -5 -68 -44 -89
-17 -8 -32 -16 -33 -17 -10 -5 11 -40 23 -39 32 3 13 -20 -22 -27 -51 -10 -51
-10 -109 -40 -53 -27 -75 -26 -50 2 13 14 12 23 -4 71 -22 62 -22 62 -20 -37
1 -43 -3 -73 -9 -73 -11 0 -101 100 -101 112 0 5 -4 8 -9 8 -8 0 23 -127 34
-138 2 -3 11 1 19 7 10 9 16 9 21 1 4 -6 5 -12 4 -14 -2 -1 -26 -15 -54 -31
-27 -15 -61 -36 -74 -46 -28 -22 -49 -14 -27 10 13 14 14 20 3 35 -10 14 -18
15 -40 7 -22 -9 -27 -17 -27 -45 0 -27 3 -34 15 -30 30 12 14 -13 -20 -31 -36
-20 -62 -12 -33 9 10 7 16 15 14 17 -2 2 -1 50 3 107 5 93 4 102 -11 102 -10
0 -18 7 -18 15 0 8 6 15 14 15 8 0 21 2 29 5 9 4 33 -23 73 -79 53 -77 84
-105 84 -76 0 6 -10 49 -21 96 -19 73 -24 85 -40 81 -35 -9 -20 21 17 33 35
12 37 11 75 -31 21 -24 39 -47 39 -51 0 -5 5 -8 10 -8 6 0 10 31 10 74 l0 74
32 11 c17 6 34 8 37 5 3 -4 0 -9 -6 -11 -18 -7 -16 -19 14 -95 27 -70 41 -80
76 -54 17 13 17 17 -5 90 -18 64 -25 75 -40 70 -34 -11 -18 13 20 29 40 16
110 21 129 9z m163 -51 c0 -43 -11 -91 -21 -91 -5 0 -9 27 -9 60 0 47 3 60 15
60 10 0 15 -10 15 -29z m310 -5 c0 -6 -12 -24 -26 -40 -34 -38 -51 -22 -28 26
12 26 21 34 35 31 11 -3 19 -10 19 -17z m-160 -1 c0 -8 -2 -15 -4 -15 -2 0 -6
7 -10 15 -3 8 -1 15 4 15 6 0 10 -7 10 -15z m-448 -60 c9 -31 12 -57 8 -60 -9
-5 -50 96 -43 108 10 17 21 3 35 -48z m707 5 c6 0 11 -5 11 -11 0 -19 -234
-339 -248 -339 -31 0 -17 40 73 209 l97 181 28 -20 c15 -11 33 -20 39 -20z
m-539 -24 c0 -2 -7 -7 -16 -10 -8 -3 -12 -2 -9 4 6 10 25 14 25 6z m-436 -62
c10 -37 3 -38 -23 -4 -21 29 -21 30 -2 30 12 0 21 -9 25 -26z m-164 -3 c0 -5
3 -23 6 -40 4 -20 3 -31 -5 -31 -6 0 -11 6 -11 14 0 20 -16 29 -39 21 -17 -5
-17 -8 0 -100 21 -109 24 -116 46 -108 10 4 14 2 12 -6 -6 -16 -97 -56 -106
-47 -4 3 1 12 10 19 15 11 14 20 -2 109 -9 54 -20 100 -23 103 -12 12 -38 -9
-38 -31 0 -13 -4 -24 -10 -24 -5 0 -10 6 -10 13 0 6 -3 21 -6 32 -4 18 5 23
70 44 42 12 79 27 82 32 7 12 24 12 24 0z m746 -32 c51 -13 74 -45 74 -103 0
-54 -33 -85 -108 -99 l-63 -12 3 -50 c3 -43 6 -50 26 -53 12 -2 22 -8 22 -13
0 -5 -36 -9 -80 -9 -44 0 -80 4 -80 9 0 5 10 11 23 13 21 3 22 6 25 146 l3
143 -28 -3 -28 -3 -5 -111 c-6 -119 -17 -148 -65 -180 -39 -25 -100 -23 -127
4 -19 18 -24 37 -28 100 -5 73 -6 77 -27 75 -13 -2 -23 1 -23 6 0 8 102 71
115 71 11 0 4 -22 -11 -38 -14 -13 -16 -30 -11 -100 7 -93 16 -112 58 -112 47
0 59 30 59 152 0 100 -1 108 -19 108 -11 0 -23 -5 -26 -10 -4 -6 -11 -7 -17
-4 -37 23 131 75 270 83 13 0 43 -4 68 -10z m-951 -39 c9 -51 9 -54 -4 -58 -6
-2 -11 3 -11 11 0 44 -99 68 -118 30 -16 -31 -3 -41 71 -54 58 -10 78 -19 105
-45 87 -86 -19 -208 -141 -160 -31 12 -43 13 -48 4 -11 -18 -15 -9 -22 44 -8
55 6 71 27 31 31 -60 86 -84 136 -58 30 15 47 52 37 79 -9 24 -50 45 -107 56
-29 6 -62 18 -72 27 -20 18 -23 54 -8 83 13 24 70 43 104 34 16 -4 26 -2 26 5
0 6 4 11 9 11 5 0 12 -18 16 -40z m225 -75 c0 -33 -5 -57 -14 -64 -12 -10 -16
-4 -21 36 -3 26 -8 57 -10 69 -4 18 -1 20 20 16 23 -4 25 -9 25 -57z m-279 38
c12 -15 12 -16 -4 -10 -10 4 -25 7 -33 7 -9 0 -12 5 -9 10 9 15 31 12 46 -7z
m829 -92 c0 -89 -3 -111 -17 -122 -15 -13 -16 -11 -10 20 4 18 7 73 7 122 0
53 4 89 10 89 6 0 10 -43 10 -109z m-690 58 c0 -28 -2 -30 -16 -18 -10 8 -12
15 -5 17 6 2 11 10 11 18 0 8 2 14 5 14 3 0 5 -14 5 -31z m570 -55 c0 -95 -25
-149 -57 -122 -18 14 -18 155 0 172 12 12 34 24 50 25 4 1 7 -33 7 -75z m640
-119 l0 -185 -702 2 -703 3 -3 29 c-2 16 1 33 7 39 8 8 11 2 11 -21 l0 -32
685 0 685 0 0 175 c0 110 4 175 10 175 6 0 10 -68 10 -185z m-202 -2 c4 -38
-25 -60 -57 -44 -47 25 -30 84 22 79 28 -3 32 -7 35 -35z"/>
<path d="M1370 1508 c0 -32 22 -88 35 -88 36 0 59 62 33 88 -16 16 -68 16 -68
0z m50 -34 c0 -8 -4 -14 -10 -14 -5 0 -10 9 -10 21 0 11 5 17 10 14 6 -3 10
-13 10 -21z"/>
<path d="M960 1255 c0 -43 1 -44 24 -34 l24 11 -20 34 c-11 19 -22 34 -24 34
-2 0 -4 -20 -4 -45z"/>
<path d="M1540 1202 c0 -43 2 -81 5 -84 11 -11 89 11 102 28 7 10 13 37 13 59
0 54 -23 75 -78 75 l-42 0 0 -78z m72 46 c30 -24 31 -56 4 -83 -41 -41 -56
-33 -56 28 0 69 15 84 52 55z"/>
</g>
</svg>
