<?xml version="1.0" standalone="no"?>
<!DOCTYPE svg PUBLIC "-//W3C//DTD SVG 20010904//EN"
 "http://www.w3.org/TR/2001/REC-SVG-20010904/DTD/svg10.dtd">
<svg version="1.0" xmlns="http://www.w3.org/2000/svg"
 width="256.000000pt" height="256.000000pt" viewBox="0 0 256.000000 256.000000"
 preserveAspectRatio="xMidYMid meet">
<metadata>
Created by potrace 1.16, written by Peter Selinger 2001-2019
</metadata>
<g transform="translate(0.000000,256.000000) scale(0.100000,-0.100000)"
fill="#000000" stroke="none">
<path d="M1000 2529 c-246 -18 -521 -64 -588 -98 -56 -28 -110 -86 -138 -146
-17 -37 -27 -88 -38 -200 -37 -359 -47 -843 -21 -1001 73 -452 395 -820 885
-1015 140 -56 207 -61 310 -24 118 41 368 170 445 227 269 203 438 475 501
804 14 76 16 135 11 409 -6 308 -26 627 -47 728 -13 61 -32 98 -77 148 -51 56
-112 84 -234 108 -323 62 -685 83 -1009 60z m505 -19 c273 -18 556 -65 635
-105 80 -41 141 -121 160 -212 20 -97 41 -416 47 -708 5 -256 3 -313 -11 -389
-63 -329 -232 -601 -501 -804 -77 -57 -327 -186 -445 -227 -94 -34 -132 -30
-271 25 -488 192 -811 563 -884 1014 -25 154 -15 605 21 961 17 169 36 224 98
288 52 52 103 76 215 97 309 60 630 80 936 60z"/>
<path d="M1050 2303 c-117 -9 -327 -35 -421 -53 -144 -28 -149 -34 -165 -188
-23 -231 -36 -530 -32 -737 5 -192 8 -218 32 -300 90 -299 297 -533 611 -688
50 -24 117 -54 151 -66 l61 -22 81 31 c45 17 82 33 82 35 0 2 -9 19 -19 37
-10 18 -175 339 -366 713 -214 420 -357 689 -373 704 -15 12 -37 32 -50 42
-22 19 -22 25 -20 147 3 110 5 127 20 130 9 2 60 -29 112 -68 101 -76 115 -98
101 -162 -6 -28 -5 -30 11 -23 80 34 139 48 224 52 90 4 100 2 195 -32 186
-68 245 -85 313 -91 86 -8 213 16 297 56 33 16 60 28 62 27 5 -6 23 -285 23
-369 l0 -98 -57 -37 c-68 -43 -176 -83 -247 -90 -42 -4 -72 2 -176 37 -151 51
-235 57 -312 22 -27 -11 -48 -23 -48 -26 0 -14 453 -896 460 -896 21 0 163
106 229 172 160 159 263 352 301 564 17 95 8 613 -15 859 -18 199 -26 221 -87
242 -56 19 -271 52 -442 68 -142 13 -412 17 -536 8z m405 -23 c172 -11 384
-37 509 -64 101 -21 106 -29 122 -188 17 -181 34 -509 34 -677 0 -310 -86
-531 -289 -744 -68 -71 -201 -177 -222 -177 -5 0 -72 127 -150 283 -78 155
-173 342 -211 415 -38 73 -68 139 -65 146 7 17 75 36 129 36 26 0 92 -17 159
-40 89 -31 129 -40 181 -40 87 0 205 37 288 91 l63 41 -6 226 c-4 125 -10 239
-13 255 -8 34 -30 35 -100 2 -137 -65 -295 -72 -434 -21 -251 93 -233 89 -364
83 -75 -2 -137 -10 -163 -20 l-43 -16 0 38 c0 47 -11 61 -118 140 -71 54 -87
62 -120 59 l-37 -3 -3 -148 c-2 -143 -2 -149 20 -167 13 -11 35 -29 49 -42 15
-13 83 -133 154 -273 70 -137 169 -331 220 -430 271 -529 367 -717 363 -719
-1 -1 -29 -13 -62 -26 -58 -23 -58 -23 -110 -5 -28 10 -81 33 -118 51 -407
196 -642 518 -665 909 -7 119 12 571 32 768 18 179 17 178 168 205 146 27 272
42 432 51 191 12 186 12 370 1z"/>
<path d="M1160 2164 c-76 -5 -267 -24 -312 -31 -31 -5 -38 -10 -38 -29 0 -17
17 -33 75 -69 l74 -47 90 13 c82 12 96 11 168 -8 43 -11 125 -37 182 -58 86
-31 122 -38 205 -42 113 -6 225 15 313 60 l48 24 -2 58 c-1 31 -4 59 -5 61 -8
7 -250 44 -348 53 -125 12 -373 20 -450 15z m400 -34 c58 -5 166 -19 242 -31
l136 -21 4 -41 4 -40 -63 -29 c-81 -38 -208 -61 -293 -53 -37 4 -134 30 -226
61 -141 47 -172 54 -241 54 -43 0 -93 -4 -111 -10 -30 -8 -40 -5 -97 30 -34
22 -67 40 -74 40 -6 0 -11 4 -11 9 0 5 53 14 118 21 64 6 126 13 137 14 49 7
380 4 475 -4z"/>
<path d="M576 1624 c-12 -88 -7 -399 8 -476 56 -291 241 -535 502 -663 102
-50 134 -56 134 -25 0 11 -133 286 -296 612 -250 501 -299 593 -319 596 -19 3
-23 -2 -29 -44z m620 -1161 c-4 -5 -181 92 -226 124 -114 79 -249 248 -305
382 -62 150 -84 324 -70 562 l7 126 298 -596 c164 -328 297 -597 296 -598z"/>
<path d="M1925 1224 c-47 -39 -136 -81 -201 -95 -51 -10 -74 -10 -145 3 -47 9
-115 28 -151 42 -35 14 -74 26 -86 26 -31 0 -28 -35 6 -74 15 -17 83 -140 152
-274 118 -228 127 -242 153 -242 72 0 238 215 305 395 20 52 42 158 42 203 0
37 -3 42 -22 42 -13 -1 -36 -12 -53 -26z m50 -41 c-18 -130 -85 -288 -169
-400 -44 -58 -140 -153 -155 -153 -3 0 -62 109 -131 242 -69 134 -138 257
-154 275 -32 38 -29 40 22 14 55 -28 207 -63 271 -63 31 0 77 5 101 12 56 15
172 75 196 101 25 28 27 24 19 -28z"/>
</g>
</svg>
