<?xml version="1.0" standalone="no"?>
<!DOCTYPE svg PUBLIC "-//W3C//DTD SVG 20010904//EN"
 "http://www.w3.org/TR/2001/REC-SVG-20010904/DTD/svg10.dtd">
<svg version="1.0" xmlns="http://www.w3.org/2000/svg"
 width="152.000000pt" height="152.000000pt" viewBox="0 0 152.000000 152.000000"
 preserveAspectRatio="xMidYMid meet">
<metadata>
Created by potrace 1.16, written by Peter Selinger 2001-2019
</metadata>
<g transform="translate(0.000000,152.000000) scale(0.100000,-0.100000)"
fill="#000000" stroke="none">
<path d="M488 1513 c7 -3 16 -2 19 1 4 3 -2 6 -13 5 -11 0 -14 -3 -6 -6z"/>
<path d="M540 1516 c0 -2 7 -7 16 -10 8 -3 12 -2 9 4 -6 10 -25 14 -25 6z"/>
<path d="M986 1511 c-4 -5 3 -7 14 -4 23 6 26 13 6 13 -8 0 -17 -4 -20 -9z"/>
<path d="M672 1489 c-169 -21 -308 -89 -433 -212 -120 -118 -191 -272 -212
-454 -5 -40 -4 -43 20 -43 13 0 55 14 93 30 39 17 86 30 109 30 23 0 41 5 41
11 0 5 4 8 9 4 12 -7 55 33 65 59 14 38 26 -1 29 -93 3 -67 7 -95 18 -102 11
-7 11 -9 0 -9 -8 0 -11 -6 -7 -16 3 -9 -4 -25 -19 -40 -13 -13 -24 -27 -24
-30 2 -8 -35 -78 -44 -85 -5 -3 -8 -10 -6 -15 1 -5 -12 -17 -30 -28 -32 -18
-32 -18 -38 3 -3 11 -9 21 -14 21 -5 0 -7 10 -4 22 3 13 8 41 10 63 2 22 7 61
11 88 4 32 3 47 -5 47 -6 0 -11 4 -11 10 0 5 6 7 14 4 9 -4 20 6 31 25 8 17
22 31 30 31 8 0 15 7 15 15 0 8 -5 15 -11 15 -5 0 -8 -4 -5 -9 4 -5 -3 -7 -14
-4 -14 4 -23 -2 -31 -21 -8 -16 -20 -26 -33 -26 -12 0 -50 -14 -84 -30 -35
-17 -77 -30 -94 -30 -23 0 -29 -4 -24 -16 3 -9 6 -22 6 -30 0 -18 36 -11 100
21 25 12 58 25 74 29 26 6 28 5 22 -16 -3 -13 -6 -26 -6 -30 0 -5 -5 -8 -12
-8 -6 0 -40 -14 -75 -31 -35 -17 -71 -28 -79 -25 -13 5 -15 2 -10 -16 3 -13 6
-29 6 -35 0 -20 20 -16 80 17 69 37 82 38 78 4 -2 -22 -13 -30 -68 -52 -36
-14 -66 -26 -68 -27 -7 -5 19 -55 28 -55 6 0 26 11 44 25 41 31 76 33 76 5 0
-11 -6 -20 -14 -20 -8 0 -27 -11 -43 -24 -15 -12 -33 -25 -40 -27 -8 -3 -7
-11 6 -28 l19 -24 27 21 c15 12 34 22 43 22 10 0 13 7 10 25 -4 18 -1 25 11
25 9 0 35 9 57 19 30 14 43 27 48 47 4 16 28 59 53 96 49 72 49 68 24 190 -14
69 -3 122 37 183 14 22 25 45 23 50 -1 6 2 6 9 -1 7 -8 4 -23 -15 -56 -34 -62
-41 -122 -21 -191 28 -96 23 -122 -41 -206 -37 -49 -43 -97 -18 -141 22 -38
18 -47 -28 -75 -49 -28 -102 -33 -111 -10 -8 21 -27 18 -59 -10 -28 -25 -28
-25 -10 -49 l19 -24 21 24 c22 25 53 32 53 14 0 -6 -12 -22 -27 -35 l-28 -24
24 -22 24 -22 18 24 c14 19 21 21 30 12 10 -10 9 -17 -6 -34 -19 -20 -19 -21
5 -40 30 -23 40 -24 40 -4 0 8 18 43 41 77 26 41 39 71 36 86 -2 12 -1 25 4
28 4 2 11 -11 15 -30 6 -36 5 -40 -50 -141 l-27 -49 23 -17 c22 -17 23 -17 34
19 6 20 23 62 38 92 14 30 26 63 26 74 0 10 -18 51 -40 91 -53 96 -52 124 5
206 52 74 54 90 23 193 -19 67 -20 80 -9 129 12 54 61 137 81 137 6 0 -1 -17
-14 -37 -48 -73 -51 -133 -12 -246 26 -77 21 -105 -30 -178 -40 -56 -45 -69
-41 -104 3 -22 21 -67 41 -99 46 -77 46 -111 1 -202 -42 -83 -44 -107 -10
-122 24 -11 25 -10 25 18 0 17 16 62 35 100 45 89 45 125 1 193 -65 103 -67
141 -5 218 52 66 54 86 20 185 -17 49 -31 105 -31 125 0 44 29 114 59 147 26
26 52 30 28 4 -54 -60 -60 -149 -16 -258 39 -96 36 -147 -9 -203 -33 -41 -48
-83 -43 -116 2 -11 22 -51 44 -89 51 -86 53 -119 9 -214 -18 -39 -36 -87 -39
-106 -5 -35 -5 -36 26 -36 29 0 31 2 31 36 0 20 16 72 36 116 43 95 41 115
-17 204 -58 90 -60 116 -10 189 23 33 41 67 41 75 0 12 15 15 80 15 65 0 80
-3 80 -15 0 -8 18 -42 41 -75 50 -73 48 -95 -10 -187 -58 -93 -60 -111 -17
-206 22 -49 36 -95 36 -120 0 -39 1 -40 28 -33 23 7 27 13 25 41 -1 18 -18 68
-38 112 -43 91 -42 117 7 194 65 102 66 138 1 222 -42 56 -43 99 -3 199 38 93
39 152 5 218 -13 27 -23 51 -21 53 7 7 46 -42 66 -83 28 -57 25 -106 -11 -209
-34 -99 -32 -119 20 -185 62 -77 60 -118 -6 -216 -44 -66 -43 -105 2 -195 19
-38 35 -83 35 -100 0 -28 1 -29 25 -18 34 15 32 42 -10 121 -46 87 -46 125 1
203 20 32 39 77 41 99 4 35 0 47 -30 87 -19 25 -40 55 -46 66 -16 29 -14 86 4
130 41 96 37 172 -11 245 -22 34 -23 37 -5 28 29 -16 60 -73 73 -133 10 -47 8
-63 -10 -125 -31 -101 -29 -119 23 -193 57 -82 58 -109 5 -205 -22 -40 -40
-81 -40 -91 0 -11 12 -44 26 -74 15 -30 32 -72 38 -92 11 -36 12 -36 34 -19
l23 17 -27 49 c-54 101 -56 105 -50 141 4 18 11 34 15 34 5 0 6 -11 4 -24 -5
-25 15 -72 53 -122 13 -17 24 -38 24 -47 0 -22 9 -21 40 2 24 19 24 20 5 40
-15 17 -16 24 -6 34 9 9 16 7 30 -12 l18 -24 24 22 24 22 -29 25 c-18 16 -25
29 -19 35 13 13 41 1 54 -23 10 -18 11 -18 30 6 l20 26 -27 25 c-31 28 -52 32
-60 10 -9 -23 -62 -18 -111 10 -46 28 -50 37 -28 75 25 44 19 92 -18 141 -63
83 -69 113 -42 203 22 73 19 116 -15 182 -16 32 -27 60 -25 62 2 2 17 -15 33
-37 41 -56 56 -122 42 -186 -26 -125 -27 -120 24 -194 26 -37 48 -78 49 -91 2
-26 45 -57 95 -66 34 -7 39 -13 20 -32 -8 -8 -4 -14 18 -22 16 -6 37 -19 47
-28 17 -15 20 -15 37 8 13 18 15 26 7 29 -7 2 -25 15 -40 27 -16 13 -35 24
-43 24 -8 0 -14 9 -14 20 0 28 35 26 76 -5 18 -14 37 -25 42 -25 9 0 36 50 30
56 -2 1 -32 13 -68 27 -55 20 -65 28 -68 50 -4 34 4 34 82 -5 36 -18 67 -30
70 -27 2 2 7 18 10 36 6 28 5 31 -12 26 -11 -2 -43 9 -74 26 -30 17 -62 31
-70 31 -13 0 -27 27 -28 53 0 11 48 -3 100 -28 64 -32 100 -39 100 -21 0 8 3
21 6 30 5 12 -1 16 -24 16 -17 0 -59 13 -94 30 -34 16 -72 30 -84 30 -12 0
-25 10 -32 25 -11 24 -23 31 -35 19 -10 -11 35 -75 49 -70 8 3 14 1 14 -4 0
-6 -5 -10 -11 -10 -8 0 -9 -15 -4 -47 4 -27 8 -73 8 -105 1 -31 5 -54 9 -52 5
3 16 0 25 -6 14 -8 14 -10 3 -9 -30 3 -40 -1 -40 -16 0 -8 -8 -15 -18 -15 -23
0 -64 29 -57 41 4 5 1 9 -6 9 -7 0 -9 3 -6 6 4 4 -2 19 -12 33 -29 42 -31 48
-16 48 8 0 12 -4 9 -9 -3 -4 2 -18 10 -29 l15 -22 -3 24 c-4 37 -13 48 -41 44
-14 -1 -23 0 -20 3 3 3 -2 13 -11 23 -12 13 -14 28 -9 56 3 21 9 66 12 101 4
45 9 62 20 62 8 0 11 5 8 11 -4 6 -14 8 -22 5 -8 -3 -11 -1 -8 4 3 5 1 18 -4
29 -10 17 -9 18 13 8 14 -7 22 -15 19 -20 -6 -9 33 -49 64 -66 12 -6 38 -11
58 -11 20 0 67 -13 105 -30 38 -16 80 -30 93 -30 24 0 25 3 20 43 -2 23 -13
78 -24 121 -85 352 -432 590 -797 545z m55 -41 c-16 -26 -49 -26 -94 -3 -25
13 -24 14 33 18 32 2 63 4 68 5 5 1 2 -8 -7 -20z m160 7 c37 -3 69 -9 71 -15
2 -5 10 -10 17 -10 25 0 65 -23 65 -37 0 -8 5 -11 10 -8 6 3 20 3 31 0 17 -6
19 -9 8 -16 -9 -7 -5 -7 14 -3 24 5 27 3 27 -20 0 -17 5 -26 16 -26 14 0 14 3
4 15 -10 12 -10 15 4 15 10 0 16 -9 16 -25 0 -24 9 -29 48 -28 7 1 11 -1 9 -3
-2 -3 14 -22 35 -44 22 -22 37 -44 33 -50 -3 -5 -1 -10 4 -10 6 0 11 5 11 12
0 6 3 8 7 5 3 -4 -2 -16 -12 -27 -19 -21 -7 -28 13 -8 7 7 12 8 12 3 0 -6 -20
-23 -45 -38 -33 -21 -45 -35 -45 -53 0 -25 -14 -32 -26 -13 -3 6 0 15 7 20 11
6 11 11 1 21 -9 9 -12 9 -12 -4 0 -10 -8 -14 -22 -13 -13 1 -15 0 -5 -2 9 -2
17 -11 17 -18 0 -10 -9 -12 -32 -9 -18 3 -52 1 -75 -4 -24 -6 -43 -7 -43 -4 0
23 27 71 42 75 12 3 18 14 18 32 0 14 3 24 8 22 4 -3 7 5 7 18 0 13 -3 21 -7
19 -13 -8 -20 18 -7 27 9 6 3 7 -16 3 -20 -3 -37 0 -50 11 -11 9 -14 13 -6 9
9 -4 12 -2 9 7 -3 10 -21 14 -56 14 -52 -1 -60 6 -43 35 6 8 7 18 4 24 -3 5
-14 -10 -23 -34 -10 -24 -23 -46 -30 -48 -7 -3 -10 0 -6 6 3 6 1 12 -6 14 -8
3 -4 12 10 26 38 38 29 59 -28 69 -28 4 -51 13 -51 18 0 6 -6 17 -13 25 -27
32 -30 42 -7 35 11 -3 51 -8 88 -10z m-247 -26 c3 -4 18 -9 33 -11 44 -6 32
-22 -23 -31 -57 -10 -66 -31 -29 -68 17 -17 19 -23 8 -30 -8 -5 -9 -9 -3 -9 5
0 14 4 20 10 6 6 10 2 11 -12 1 -13 -1 -18 -5 -13 -4 6 -15 10 -26 10 -13 0
-24 14 -36 44 -9 24 -20 40 -23 35 -3 -6 -2 -16 4 -24 17 -29 9 -36 -43 -35
-46 0 -53 -3 -53 -20 0 -17 -7 -20 -40 -19 -34 1 -37 0 -21 -11 16 -13 16 -13
0 -17 -10 -1 -18 -13 -19 -25 -1 -12 2 -20 7 -17 4 3 8 -7 8 -21 0 -17 6 -29
18 -31 9 -3 25 -23 34 -46 l17 -40 -27 8 c-15 5 -51 8 -79 8 -64 -1 -69 11
-10 24 31 8 35 10 15 11 -15 1 -39 -4 -53 -9 -24 -9 -26 -8 -20 11 5 15 4 19
-5 14 -7 -4 -9 -18 -5 -36 4 -18 3 -29 -4 -29 -6 0 -11 13 -11 29 0 24 -8 35
-45 58 -25 15 -45 32 -45 38 0 5 5 4 12 -3 21 -21 32 -13 13 8 -18 20 -18 21
0 14 13 -5 16 -4 11 5 -8 12 48 81 66 81 16 0 98 56 98 67 0 7 42 33 93 58 71
35 99 43 122 39 17 -4 32 -10 35 -15z m140 -21 c15 -42 16 -43 69 -48 l53 -5
-40 -33 -41 -32 16 -38 c20 -48 18 -47 48 -24 27 21 123 58 131 50 2 -3 -10
-31 -28 -63 -17 -32 -27 -56 -22 -53 51 24 90 40 115 45 l31 6 -25 -26 c-13
-15 -35 -47 -48 -72 -16 -31 -29 -44 -39 -41 -8 3 -42 15 -75 27 -48 18 -81
23 -165 23 -84 0 -117 -5 -165 -23 -33 -12 -67 -24 -75 -27 -10 -3 -23 10 -39
41 -13 25 -34 56 -47 70 -15 16 -18 25 -10 25 24 0 100 -30 118 -47 10 -9 18
-13 18 -9 0 12 -42 90 -59 109 -15 18 -14 18 24 12 43 -8 110 -39 120 -55 11
-19 22 -10 38 30 l15 40 -40 33 -40 32 53 5 c53 5 54 6 69 48 8 23 17 42 20
42 3 0 12 -19 20 -42z m-426 -82 c-10 -8 -23 -12 -27 -9 -5 3 2 11 15 17 29
16 38 10 12 -8z m851 -6 c3 -5 2 -10 -4 -10 -5 0 -13 5 -16 10 -3 6 -2 10 4
10 5 0 13 -4 16 -10z m-332 -51 c-9 -9 -12 -7 -10 9 1 14 5 18 11 12 7 -7 6
-14 -1 -21z m-388 -29 c-3 -5 -16 -10 -28 -9 -20 1 -20 2 3 9 14 4 26 8 28 9
2 1 0 -3 -3 -9z m575 1 c0 -6 -4 -13 -10 -16 -5 -3 -10 1 -10 9 0 9 5 16 10
16 6 0 10 -4 10 -9z m-831 -143 c17 -23 31 -52 31 -65 0 -27 6 -28 40 -8 28
16 117 20 139 6 11 -7 9 -10 -7 -15 -11 -4 -45 -33 -74 -65 -51 -54 -57 -58
-110 -64 -30 -3 -73 -14 -94 -25 -49 -25 -104 -37 -104 -23 0 5 16 27 35 48
47 51 86 136 92 200 3 29 9 53 14 53 4 0 21 -19 38 -42z m1114 -11 c6 -65 29
-115 84 -190 24 -31 43 -60 43 -63 0 -9 -46 4 -119 33 -46 18 -76 24 -103 20
-21 -3 -38 -1 -38 4 0 17 -93 110 -128 128 l-33 17 70 2 c48 2 80 -2 100 -13
39 -20 41 -19 41 8 0 23 55 107 69 107 5 0 11 -24 14 -53z m56 -32 c0 -5 -6 1
-14 15 -8 14 -14 30 -14 35 0 6 6 -1 14 -15 8 -14 14 -29 14 -35z m-557 19
c25 -13 58 -50 58 -66 0 -4 -16 -4 -35 -1 -53 8 -85 -17 -85 -67 0 -42 15 -62
24 -33 4 14 17 18 50 18 38 0 45 -3 49 -22 6 -31 -23 -107 -56 -143 -55 -61
-114 -62 -169 -4 -37 39 -67 113 -60 149 3 20 9 23 33 20 16 -3 43 -7 59 -10
28 -4 30 -3 30 30 0 45 -35 70 -85 62 -39 -6 -42 -2 -19 31 39 56 133 72 206
36z m-703 -28 c-5 -6 -9 -19 -9 -30 -1 -22 -37 -72 -46 -64 -2 3 5 21 16 41
11 19 20 39 18 43 -1 5 2 20 6 34 8 24 9 24 16 5 4 -11 4 -24 -1 -29z m1277
-43 c9 -21 19 -46 20 -56 3 -15 2 -16 -10 -5 -8 7 -12 16 -10 20 2 3 -3 13
-11 21 -14 14 -21 57 -10 57 3 0 12 -17 21 -37z m-737 -24 c44 -15 39 -24 -14
-24 -43 0 -62 17 -32 28 6 3 12 6 13 6 1 1 15 -4 33 -10z m205 5 c33 -13 16
-30 -26 -28 -24 2 -45 4 -48 4 -4 1 45 26 57 30 1 0 8 -3 17 -6z m-481 -39
c-3 -9 -8 -14 -10 -11 -3 3 -2 9 2 15 9 16 15 13 8 -4z m-183 -305 c0 -5 -5
-10 -11 -10 -5 0 -7 5 -4 10 3 6 8 10 11 10 2 0 4 -4 4 -10z m1095 0 c3 -5 1
-10 -4 -10 -6 0 -11 5 -11 10 0 6 2 10 4 10 3 0 8 -4 11 -10z m-897 -303 c-1
-14 -8 -23 -20 -23 -21 0 -20 -1 -12 21 5 13 8 14 15 3 7 -10 9 -9 9 5 0 9 2
17 5 17 3 0 4 -10 3 -23z m703 9 c5 3 9 1 9 -4 0 -8 41 -22 75 -26 6 -1 10 -8
10 -16 0 -8 5 -19 10 -23 6 -5 0 -7 -13 -4 -14 3 -27 -1 -35 -14 -13 -18 -15
-18 -40 10 -14 17 -21 31 -15 33 6 2 4 10 -6 20 -9 9 -16 23 -15 30 0 10 2 10
6 0 2 -6 9 -10 14 -6z m-743 -36 c10 -17 9 -26 -8 -57 -15 -29 -20 -33 -20
-17 0 12 -7 27 -15 34 -10 8 -15 9 -15 2 0 -6 -7 -9 -16 -5 -9 3 -12 9 -7 12
4 3 8 13 8 21 0 10 8 14 23 12 12 -2 22 2 22 7 0 17 14 13 28 -9z"/>
<path d="M888 1443 c7 -3 16 -2 19 1 4 3 -2 6 -13 5 -11 0 -14 -3 -6 -6z"/>
<path d="M843 1423 c9 -2 23 -2 30 0 6 3 -1 5 -18 5 -16 0 -22 -2 -12 -5z"/>
<path d="M1116 1284 c-5 -13 -3 -14 6 -7 7 6 20 13 28 16 10 4 8 6 -6 6 -12 1
-25 -6 -28 -15z"/>
<path d="M1128 1113 c7 -3 16 -2 19 1 4 3 -2 6 -13 5 -11 0 -14 -3 -6 -6z"/>
<path d="M383 1305 c-17 -19 -16 -22 8 -28 16 -4 19 -3 11 5 -6 6 -8 17 -5 24
7 18 2 17 -14 -1z"/>
<path d="M328 1113 c7 -3 16 -2 19 1 4 3 -2 6 -13 5 -11 0 -14 -3 -6 -6z"/>
<path d="M750 1270 c0 -5 5 -10 10 -10 6 0 10 5 10 10 0 6 -4 10 -10 10 -5 0
-10 -4 -10 -10z"/>
<path d="M710 1266 c0 -2 7 -7 16 -10 8 -3 12 -2 9 4 -6 10 -25 14 -25 6z"/>
<path d="M560 1236 c0 -3 9 -10 20 -16 11 -6 20 -8 20 -6 0 3 -9 10 -20 16
-11 6 -20 8 -20 6z"/>
<path d="M716 1211 l-39 -26 42 -3 c22 -2 60 -2 84 0 l42 3 -40 25 c-22 14
-42 25 -45 26 -3 1 -23 -10 -44 -25z"/>
<path d="M925 1221 c-3 -5 0 -13 6 -17 7 -4 9 -3 5 4 -3 5 0 13 6 15 9 4 10 6
1 6 -6 1 -14 -3 -18 -8z"/>
<path d="M646 1174 c-8 -21 -8 -21 10 -28 14 -5 15 -4 5 8 -9 11 -9 15 1 18 8
3 9 6 1 11 -6 4 -14 0 -17 -9z"/>
<path d="M856 1181 c-4 -6 -2 -11 5 -11 8 0 8 -4 -1 -15 -11 -13 -10 -14 4 -9
18 7 19 13 7 33 -6 9 -11 10 -15 2z"/>
<path d="M514 1136 c24 -19 32 -20 42 -4 4 7 3 8 -4 4 -6 -4 -22 -2 -34 4 -22
11 -22 10 -4 -4z"/>
<path d="M1005 1139 c-4 -6 -5 -12 -2 -15 2 -3 7 2 10 11 7 17 1 20 -8 4z"/>
<path d="M202 1045 c0 -11 3 -29 8 -40 11 -25 11 1 0 35 -6 20 -8 21 -8 5z"/>
<path d="M191 974 c0 -11 3 -14 6 -6 3 7 2 16 -1 19 -3 4 -6 -2 -5 -13z"/>
<path d="M295 960 c-3 -5 -1 -10 4 -10 6 0 11 5 11 10 0 6 -2 10 -4 10 -3 0
-8 -4 -11 -10z"/>
<path d="M230 940 c-8 -5 -10 -10 -5 -10 6 0 17 5 25 10 8 5 11 10 5 10 -5 0
-17 -5 -25 -10z"/>
<path d="M188 913 c7 -3 16 -2 19 1 4 3 -2 6 -13 5 -11 0 -14 -3 -6 -6z"/>
<path d="M1300 1004 c0 -8 5 -12 10 -9 6 3 10 10 10 16 0 5 -4 9 -10 9 -5 0
-10 -7 -10 -16z"/>
<path d="M1235 980 c-3 -5 -1 -10 4 -10 6 0 11 5 11 10 0 6 -2 10 -4 10 -3 0
-8 -4 -11 -10z"/>
<path d="M1318 968 c-5 -12 -1 -19 13 -23 11 -4 23 -4 26 -1 4 3 -1 6 -10 6
-8 0 -17 8 -19 18 -3 16 -4 16 -10 0z"/>
<path d="M1210 960 c0 -5 5 -10 11 -10 5 0 7 5 4 10 -3 6 -8 10 -11 10 -2 0
-4 -4 -4 -10z"/>
<path d="M1255 961 c-6 -11 26 -31 47 -30 7 0 1 5 -15 11 -15 5 -25 14 -21 19
3 5 3 9 0 9 -3 0 -7 -4 -11 -9z"/>
<path d="M1318 913 c7 -3 16 -2 19 1 4 3 -2 6 -13 5 -11 0 -14 -3 -6 -6z"/>
<path d="M750 1020 c0 -5 5 -10 10 -10 6 0 10 5 10 10 0 6 -4 10 -10 10 -5 0
-10 -4 -10 -10z"/>
<path d="M864 870 c0 -13 4 -16 10 -10 7 7 7 13 0 20 -6 6 -10 3 -10 -10z"/>
<path d="M682 866 c7 -8 17 -12 22 -9 4 3 2 9 -5 14 -22 13 -31 11 -17 -5z"/>
<path d="M815 860 c3 -5 8 -10 11 -10 2 0 4 5 4 10 0 6 -5 10 -11 10 -5 0 -7
-4 -4 -10z"/>
<path d="M725 850 c3 -5 19 -10 35 -10 16 0 32 5 35 10 4 6 -10 10 -35 10 -25
0 -39 -4 -35 -10z"/>
<path d="M665 840 c3 -5 8 -10 11 -10 2 0 4 5 4 10 0 6 -5 10 -11 10 -5 0 -7
-4 -4 -10z"/>
<path d="M704 808 c-6 -9 37 -38 57 -38 9 0 27 9 40 19 l24 19 -59 3 c-32 2
-60 1 -62 -3z"/>
<path d="M1195 300 c-3 -5 -1 -10 4 -10 6 0 11 5 11 10 0 6 -2 10 -4 10 -3 0
-8 -4 -11 -10z"/>
<path d="M1177 1419 c7 -7 15 -10 18 -7 3 3 -2 9 -12 12 -14 6 -15 5 -6 -5z"/>
<path d="M161 1264 c0 -11 3 -14 6 -6 3 7 2 16 -1 19 -3 4 -6 -2 -5 -13z"/>
<path d="M1345 1270 c3 -5 8 -10 11 -10 2 0 4 5 4 10 0 6 -5 10 -11 10 -5 0
-7 -4 -4 -10z"/>
<path d="M105 1180 c3 -5 8 -10 11 -10 2 0 4 5 4 10 0 6 -5 10 -11 10 -5 0 -7
-4 -4 -10z"/>
<path d="M1400 1179 c0 -5 5 -7 10 -4 6 3 10 8 10 11 0 2 -4 4 -10 4 -5 0 -10
-5 -10 -11z"/>
<path d="M1491 1004 c0 -11 3 -14 6 -6 3 7 2 16 -1 19 -3 4 -6 -2 -5 -13z"/>
<path d="M11 954 c0 -11 3 -14 6 -6 3 7 2 16 -1 19 -3 4 -6 -2 -5 -13z"/>
<path d="M1 884 c0 -11 3 -14 6 -6 3 7 2 16 -1 19 -3 4 -6 -2 -5 -13z"/>
<path d="M370 889 c0 -5 5 -7 10 -4 6 3 10 8 10 11 0 2 -4 4 -10 4 -5 0 -10
-5 -10 -11z"/>
<path d="M1201 794 c0 -11 3 -14 6 -6 3 7 2 16 -1 19 -3 4 -6 -2 -5 -13z"/>
<path d="M1225 770 c3 -19 10 -39 15 -44 15 -15 12 14 -6 49 l-14 30 5 -35z"/>
<path d="M284 773 c-3 -10 -10 -26 -15 -35 -7 -14 -5 -18 8 -18 13 0 18 9 20
35 2 38 -4 46 -13 18z"/>
<path d="M311 754 c0 -11 3 -14 6 -6 3 7 2 16 -1 19 -3 4 -6 -2 -5 -13z"/>
<path d="M5 750 c-3 -5 -2 -10 4 -10 5 0 13 5 16 10 3 6 2 10 -4 10 -5 0 -13
-4 -16 -10z"/>
<path d="M1495 750 c3 -5 11 -10 16 -10 6 0 7 5 4 10 -3 6 -11 10 -16 10 -6 0
-7 -4 -4 -10z"/>
<path d="M330 629 c0 -5 5 -7 10 -4 6 3 10 8 10 11 0 2 -4 4 -10 4 -5 0 -10
-5 -10 -11z"/>
<path d="M701 603 c7 -12 15 -20 18 -17 3 2 -3 12 -13 22 -17 16 -18 16 -5 -5z"/>
<path d="M806 604 c-9 -24 -2 -26 12 -4 7 11 8 20 3 20 -5 0 -12 -7 -15 -16z"/>
<path d="M322 585 c-6 -14 -10 -25 -8 -25 2 0 11 11 20 25 9 14 13 25 8 25 -5
0 -14 -11 -20 -25z"/>
<path d="M1506 595 c-3 -8 -1 -15 4 -15 6 0 10 7 10 15 0 8 -2 15 -4 15 -2 0
-6 -7 -10 -15z"/>
<path d="M674 580 c0 -13 4 -16 10 -10 7 7 7 13 0 20 -6 6 -10 3 -10 -10z"/>
<path d="M834 589 c-3 -6 -2 -15 3 -20 5 -5 9 -1 9 11 0 23 -2 24 -12 9z"/>
<path d="M7 570 c3 -11 7 -20 9 -20 2 0 4 9 4 20 0 11 -4 20 -9 20 -5 0 -7 -9
-4 -20z"/>
<path d="M1500 560 c0 -5 5 -10 11 -10 5 0 7 5 4 10 -3 6 -8 10 -11 10 -2 0
-4 -4 -4 -10z"/>
<path d="M21 513 c-1 -16 5 -23 17 -23 10 0 13 3 6 8 -6 4 -14 14 -17 22 -4
10 -6 8 -6 -7z"/>
<path d="M1486 505 c-3 -8 -1 -15 4 -15 6 0 10 7 10 15 0 8 -2 15 -4 15 -2 0
-6 -7 -10 -15z"/>
<path d="M650 466 c0 -7 7 -19 15 -26 8 -7 15 -19 15 -27 0 -10 6 -13 16 -9 9
3 18 6 20 6 2 0 4 4 4 10 0 5 -6 7 -13 4 -17 -6 -51 31 -42 45 3 6 1 11 -4 11
-6 0 -11 -6 -11 -14z"/>
<path d="M855 469 c9 -14 -25 -51 -42 -45 -20 8 -15 -8 7 -22 17 -11 20 -10
20 7 0 10 7 24 15 31 17 14 20 40 4 40 -5 0 -7 -5 -4 -11z"/>
<path d="M690 460 c0 -5 5 -10 10 -10 6 0 10 5 10 10 0 6 -4 10 -10 10 -5 0
-10 -4 -10 -10z"/>
<path d="M810 460 c0 -5 5 -10 10 -10 6 0 10 5 10 10 0 6 -4 10 -10 10 -5 0
-10 -4 -10 -10z"/>
<path d="M1167 453 c-4 -3 -7 -13 -7 -22 1 -13 3 -13 11 2 11 19 8 33 -4 20z"/>
<path d="M1208 433 c7 -3 16 -2 19 1 4 3 -2 6 -13 5 -11 0 -14 -3 -6 -6z"/>
<path d="M268 423 c7 -3 16 -2 19 1 4 3 -2 6 -13 5 -11 0 -14 -3 -6 -6z"/>
<path d="M270 381 c0 -6 4 -13 10 -16 6 -3 7 1 4 9 -7 18 -14 21 -14 7z"/>
<path d="M84 340 c0 -15 4 -16 18 -9 10 5 18 13 18 16 0 3 -3 3 -7 0 -3 -4
-11 -3 -17 3 -8 6 -12 3 -12 -10z"/>
<path d="M1424 349 c-3 -6 -2 -15 3 -20 5 -5 9 -1 9 11 0 23 -2 24 -12 9z"/>
<path d="M125 330 c-3 -5 -1 -10 4 -10 6 0 11 5 11 10 0 6 -2 10 -4 10 -3 0
-8 -4 -11 -10z"/>
<path d="M1380 330 c0 -5 5 -10 11 -10 5 0 7 5 4 10 -3 6 -8 10 -11 10 -2 0
-4 -4 -4 -10z"/>
<path d="M160 256 c0 -2 7 -7 16 -10 8 -3 12 -2 9 4 -6 10 -25 14 -25 6z"/>
<path d="M1336 252 c-3 -5 1 -9 9 -9 8 0 12 4 9 9 -3 4 -7 8 -9 8 -2 0 -6 -4
-9 -8z"/>
<path d="M711 174 c0 -11 3 -14 6 -6 3 7 2 16 -1 19 -3 4 -6 -2 -5 -13z"/>
<path d="M801 180 c0 -8 4 -22 9 -30 12 -18 12 -2 0 25 -6 13 -9 15 -9 5z"/>
<path d="M666 125 c-3 -8 -1 -15 4 -15 6 0 10 7 10 15 0 8 -2 15 -4 15 -2 0
-6 -7 -10 -15z"/>
<path d="M1185 130 c-3 -5 -1 -10 4 -10 6 0 11 5 11 10 0 6 -2 10 -4 10 -3 0
-8 -4 -11 -10z"/>
<path d="M701 114 c0 -11 3 -14 6 -6 3 7 2 16 -1 19 -3 4 -6 -2 -5 -13z"/>
<path d="M328 103 c7 -3 16 -2 19 1 4 3 -2 6 -13 5 -11 0 -14 -3 -6 -6z"/>
<path d="M1178 103 c7 -3 16 -2 19 1 4 3 -2 6 -13 5 -11 0 -14 -3 -6 -6z"/>
<path d="M670 90 c0 -5 5 -10 10 -10 6 0 10 5 10 10 0 6 -4 10 -10 10 -5 0
-10 -4 -10 -10z"/>
<path d="M805 90 c-3 -5 -1 -10 4 -10 6 0 11 5 11 10 0 6 -2 10 -4 10 -3 0 -8
-4 -11 -10z"/>
<path d="M500 26 c0 -2 7 -6 15 -10 8 -3 15 -1 15 4 0 6 -7 10 -15 10 -8 0
-15 -2 -15 -4z"/>
<path d="M990 20 c0 -5 7 -7 15 -4 8 4 15 8 15 10 0 2 -7 4 -15 4 -8 0 -15 -4
-15 -10z"/>
</g>
</svg>
