<?xml version="1.0" standalone="no"?>
<!DOCTYPE svg PUBLIC "-//W3C//DTD SVG 20010904//EN"
 "http://www.w3.org/TR/2001/REC-SVG-20010904/DTD/svg10.dtd">
<svg version="1.0" xmlns="http://www.w3.org/2000/svg"
 width="256.000000pt" height="256.000000pt" viewBox="0 0 256.000000 256.000000"
 preserveAspectRatio="xMidYMid meet">
<metadata>
Created by potrace 1.16, written by Peter Selinger 2001-2019
</metadata>
<g transform="translate(0.000000,256.000000) scale(0.100000,-0.100000)"
fill="#000000" stroke="none">
<path d="M1165 2180 l-240 -379 -462 -1 c-296 0 -463 -4 -463 -10 0 -6 171
-11 470 -12 l469 -3 188 295 c103 162 216 339 250 392 48 75 59 98 45 98 -11
0 -94 -122 -257 -380z"/>
<path d="M1450 2554 c0 -10 181 -768 184 -771 6 -6 918 -45 923 -39 4 3 4 8 2
10 -2 2 -206 14 -453 25 -247 12 -451 22 -452 24 -1 1 -42 171 -92 377 -49
206 -94 376 -101 378 -6 2 -11 0 -11 -4z"/>
<path d="M1209 1972 l-186 -317 -368 -5 -368 -5 255 -233 256 -232 -250 -438
c-137 -240 -254 -445 -259 -454 -9 -16 -6 -16 35 1 65 28 227 79 320 101 193
44 294 55 531 55 265 -1 381 -15 620 -75 206 -52 495 -164 495 -191 0 -7 -7
-8 -17 -4 -284 111 -774 187 -1093 170 -307 -16 -546 -65 -798 -161 -109 -42
-307 -138 -347 -168 -20 -15 -20 -15 1 -16 11 0 72 27 135 59 298 155 589 234
958 261 314 23 726 -32 1050 -140 116 -39 131 -39 131 0 0 28 -6 33 -67 62
-203 91 -467 169 -698 204 -170 26 -574 26 -730 1 -134 -22 -288 -59 -386 -92
-40 -14 -74 -23 -76 -21 -3 2 102 189 231 416 130 227 236 420 236 430 0 11
-94 104 -235 232 l-235 213 346 5 347 5 171 292 c94 160 172 290 173 290 1 -1
27 -126 58 -277 31 -151 59 -283 61 -292 5 -17 39 -18 530 -18 343 0 524 3
524 10 0 7 -178 10 -514 10 -482 0 -515 1 -520 18 -2 9 -32 152 -66 317 -34
165 -63 301 -63 302 -1 1 -86 -141 -188 -315z"/>
<path d="M0 1745 c-1 -13 100 -119 295 -310 l297 -290 -297 -542 c-195 -356
-295 -551 -293 -565 2 -16 99 154 310 540 170 310 308 566 308 570 0 4 -73 79
-162 167 -90 88 -229 225 -310 305 -107 105 -148 139 -148 125z"/>
</g>
</svg>
