<?xml version="1.0" standalone="no"?>
<!DOCTYPE svg PUBLIC "-//W3C//DTD SVG 20010904//EN"
 "http://www.w3.org/TR/2001/REC-SVG-20010904/DTD/svg10.dtd">
<svg version="1.0" xmlns="http://www.w3.org/2000/svg"
 width="152.000000pt" height="152.000000pt" viewBox="0 0 152.000000 152.000000"
 preserveAspectRatio="xMidYMid meet">
<metadata>
Created by potrace 1.16, written by Peter Selinger 2001-2019
</metadata>
<g transform="translate(0.000000,152.000000) scale(0.100000,-0.100000)"
fill="#000000" stroke="none">
<path d="M520 1350 c-10 -6 -2 -7 25 -3 49 7 58 13 19 13 -16 0 -36 -5 -44
-10z"/>
<path d="M671 1330 c-63 -10 -221 -61 -221 -72 0 -4 21 -4 48 0 82 12 340 8
354 -6 6 -6 17 -12 22 -12 6 0 4 4 -4 10 -27 17 -3 21 51 10 30 -6 66 -14 82
-17 41 -8 33 -22 -10 -18 -38 5 -31 -1 25 -20 15 -5 22 -16 23 -34 0 -23 1
-24 8 -6 5 11 4 28 -1 38 -8 16 -7 17 11 7 12 -6 21 -14 21 -19 0 -4 11 -14
25 -21 19 -10 24 -19 19 -34 -6 -18 -5 -19 9 -8 11 9 17 10 22 2 4 -7 -2 -14
-14 -17 -12 -3 -21 -13 -21 -22 0 -14 2 -14 10 -1 9 13 11 13 21 0 8 -11 12
-12 16 -2 2 6 10 12 16 12 13 -1 47 -68 47 -94 0 -9 12 -21 27 -27 21 -8 24
-12 14 -19 -8 -4 -11 -15 -8 -25 4 -9 11 -14 16 -10 14 8 17 -32 9 -95 -8 -53
-3 -164 8 -223 8 -37 -3 -34 -19 6 l-14 32 -1 -39 c-1 -22 -5 -42 -10 -45 -4
-3 -19 -33 -32 -66 -13 -33 -34 -72 -47 -86 -16 -18 -21 -32 -16 -45 6 -17 5
-17 -10 -5 -15 12 -20 10 -38 -13 -13 -16 -30 -26 -46 -26 -25 0 -26 -1 -8
-20 17 -19 17 -19 -17 -13 -20 3 -45 0 -57 -6 -11 -7 -21 -8 -21 -3 0 5 -7 9
-15 9 -14 0 -19 -10 -16 -29 1 -11 -46 -21 -64 -15 -8 4 -49 2 -92 -3 -45 -5
-84 -5 -93 1 -11 6 -11 8 -2 9 7 0 10 5 7 10 -8 14 18 13 32 -1 6 -6 19 -9 29
-6 17 3 16 5 -5 14 -22 9 -21 10 21 26 24 9 57 17 73 17 23 0 27 3 15 10 -26
17 -78 11 -165 -20 -47 -16 -113 -34 -145 -41 -33 -6 -60 -15 -60 -19 0 -5 18
-11 40 -15 22 -4 40 -10 40 -14 0 -10 85 -28 167 -37 151 -16 336 52 454 167
37 35 118 154 133 194 27 71 39 140 39 230 -1 88 -5 111 -33 188 -18 48 -37
93 -44 100 -6 7 -23 28 -36 47 -119 170 -352 264 -569 230z m636 -577 c-1 -72
-1 -75 -10 -36 -8 35 -3 113 7 113 2 0 3 -35 3 -77z m-37 -243 c0 -5 -4 -10
-10 -10 -5 0 -10 5 -10 10 0 6 5 10 10 10 6 0 10 -4 10 -10z m-626 -265 c-7
-17 -20 -20 -29 -6 -3 5 3 12 12 14 10 3 19 5 20 6 1 0 0 -6 -3 -14z m-44 -25
c0 -5 -2 -10 -4 -10 -3 0 -8 5 -11 10 -3 6 -1 10 4 10 6 0 11 -4 11 -10z m279
6 c-2 -2 -35 -6 -74 -9 -45 -3 -58 -3 -35 2 37 9 116 14 109 7z m58 -2 c-3 -3
-12 -4 -19 -1 -8 3 -5 6 6 6 11 1 17 -2 13 -5z m-217 -23 c0 -5 -9 -7 -20 -4
-11 3 -20 7 -20 9 0 2 9 4 20 4 11 0 20 -4 20 -9z"/>
<path d="M408 1273 c7 -3 16 -2 19 1 4 3 -2 6 -13 5 -11 0 -14 -3 -6 -6z"/>
<path d="M1148 1273 c12 -2 30 -2 40 0 9 3 -1 5 -23 4 -22 0 -30 -2 -17 -4z"/>
<path d="M610 1220 c-47 -11 -119 -22 -160 -25 -75 -7 -110 -24 -110 -52 0 -8
-4 -11 -10 -8 -5 3 -10 2 -10 -3 0 -4 -15 -23 -32 -42 l-33 -33 80 6 c44 3
121 13 170 22 100 18 288 21 350 5 22 -5 55 -10 73 -10 22 0 32 -5 32 -15 0
-13 -13 -14 -82 -9 -103 8 -218 -11 -383 -63 -100 -31 -133 -37 -201 -36 l-81
1 -15 -63 -15 -63 58 -7 c69 -8 116 -3 299 33 165 32 358 36 455 9 38 -10 63
-13 69 -7 7 7 6 10 -2 10 -7 0 -13 17 -14 43 l-1 42 -4 -37 c-4 -34 -6 -37
-31 -33 -15 2 -60 9 -99 16 -40 6 -73 15 -73 20 0 5 -12 9 -26 9 -14 0 -23 -4
-19 -10 4 -6 -11 -10 -37 -10 -46 0 -134 -13 -208 -30 -108 -25 -192 -34 -211
-22 -12 8 -19 8 -19 2 0 -5 -17 -9 -37 -9 -38 1 -38 1 -8 9 24 6 26 8 7 9 -12
0 -31 10 -42 21 -20 20 -20 20 3 16 12 -2 21 -9 19 -15 -5 -23 15 -10 25 17
l10 27 11 -27 c9 -22 18 -28 39 -27 l28 2 -27 4 c-43 7 -33 23 15 25 l42 1
-45 7 c-42 7 -43 7 -10 9 19 0 52 6 74 12 31 8 41 8 47 -3 7 -10 9 -9 9 5 0
10 8 17 19 17 11 0 21 4 23 9 3 11 48 23 90 25 14 0 24 5 21 10 -4 5 6 6 21 2
18 -4 34 -2 43 6 10 8 51 13 112 15 136 3 161 8 161 37 0 20 -6 25 -45 30 -27
4 -45 12 -45 20 0 18 -299 23 -310 6 -4 -7 -40 -12 -89 -13 -44 -1 -81 -5 -81
-9 0 -5 -4 -8 -10 -8 -5 0 -9 3 -9 8 4 21 -3 32 -18 32 -14 0 -14 3 -5 12 10
10 15 10 21 -1 11 -17 94 -33 102 -20 3 5 14 7 24 3 13 -5 16 -4 11 5 -5 8
-19 10 -37 6 -18 -4 -29 -3 -29 4 0 6 6 11 14 11 8 0 16 4 18 10 4 12 157 33
204 28 22 -3 33 0 30 7 -2 7 10 11 33 11 20 1 47 4 61 8 20 5 21 5 5 -3 -15
-7 -7 -9 33 -8 l53 2 -38 17 c-50 22 -145 21 -253 -2z m157 -6 c-3 -3 -12 -4
-19 -1 -8 3 -5 6 6 6 11 1 17 -2 13 -5z"/>
<path d="M1190 1200 c0 -5 5 -10 11 -10 5 0 7 5 4 10 -3 6 -8 10 -11 10 -2 0
-4 -4 -4 -10z"/>
<path d="M295 1180 c-3 -5 -1 -10 4 -10 6 0 11 5 11 10 0 6 -2 10 -4 10 -3 0
-8 -4 -11 -10z"/>
<path d="M525 1160 l-30 -8 33 -1 c17 0 32 4 32 9 0 6 -1 9 -2 9 -2 -1 -16 -5
-33 -9z"/>
<path d="M644 1148 c-3 -4 13 -8 35 -8 23 0 41 3 41 8 0 10 -70 11 -76 0z"/>
<path d="M1078 1123 c6 -2 18 -2 25 0 6 3 1 5 -13 5 -14 0 -19 -2 -12 -5z"/>
<path d="M908 1113 c6 -2 18 -2 25 0 6 3 1 5 -13 5 -14 0 -19 -2 -12 -5z"/>
<path d="M1150 1055 c-11 -13 -8 -15 16 -15 16 0 25 4 19 8 -5 4 -13 11 -16
15 -3 4 -12 1 -19 -8z"/>
<path d="M498 1053 c7 -3 16 -2 19 1 4 3 -2 6 -13 5 -11 0 -14 -3 -6 -6z"/>
<path d="M1202 1020 c0 -14 2 -19 5 -12 2 6 2 18 0 25 -3 6 -5 1 -5 -13z"/>
<path d="M363 1023 c9 -2 23 -2 30 0 6 3 -1 5 -18 5 -16 0 -22 -2 -12 -5z"/>
<path d="M1121 1014 c0 -11 3 -14 6 -6 3 7 2 16 -1 19 -3 4 -6 -2 -5 -13z"/>
<path d="M298 1003 c7 -3 16 -2 19 1 4 3 -2 6 -13 5 -11 0 -14 -3 -6 -6z"/>
<path d="M380 1000 l-25 -8 28 -1 c15 -1 27 4 27 9 0 6 -1 10 -2 9 -2 -1 -14
-5 -28 -9z"/>
<path d="M655 980 c-3 -5 3 -10 15 -10 12 0 18 5 15 10 -3 6 -10 10 -15 10 -5
0 -12 -4 -15 -10z"/>
<path d="M625 970 c-3 -5 -1 -10 4 -10 6 0 11 5 11 10 0 6 -2 10 -4 10 -3 0
-8 -4 -11 -10z"/>
<path d="M1351 964 c0 -11 3 -14 6 -6 3 7 2 16 -1 19 -3 4 -6 -2 -5 -13z"/>
<path d="M1208 963 c6 -2 18 -2 25 0 6 3 1 5 -13 5 -14 0 -19 -2 -12 -5z"/>
<path d="M551 928 c2 -30 2 -30 6 -6 2 15 12 29 21 31 12 3 10 5 -5 6 -20 1
-23 -4 -22 -31z"/>
<path d="M707 946 c-3 -8 -18 -16 -34 -19 -23 -3 -22 -4 10 -6 31 -1 37 2 37
19 0 23 -6 26 -13 6z"/>
<path d="M850 950 c19 -13 30 -13 30 0 0 6 -10 10 -22 10 -19 0 -20 -2 -8 -10z"/>
<path d="M648 943 c7 -3 16 -2 19 1 4 3 -2 6 -13 5 -11 0 -14 -3 -6 -6z"/>
<path d="M1202 910 c0 -19 2 -27 5 -17 2 9 2 25 0 35 -3 9 -5 1 -5 -18z"/>
<path d="M415 880 c3 -5 8 -10 11 -10 2 0 4 5 4 10 0 6 -5 10 -11 10 -5 0 -7
-4 -4 -10z"/>
<path d="M385 870 c3 -5 8 -10 11 -10 2 0 4 5 4 10 0 6 -5 10 -11 10 -5 0 -7
-4 -4 -10z"/>
<path d="M1260 865 c0 -8 2 -15 4 -15 2 0 6 7 10 15 3 8 1 15 -4 15 -6 0 -10
-7 -10 -15z"/>
<path d="M703 853 c9 -2 23 -2 30 0 6 3 -1 5 -18 5 -16 0 -22 -2 -12 -5z"/>
<path d="M648 843 c7 -3 16 -2 19 1 4 3 -2 6 -13 5 -11 0 -14 -3 -6 -6z"/>
<path d="M1080 840 c0 -5 5 -10 10 -10 6 0 10 5 10 10 0 6 -4 10 -10 10 -5 0
-10 -4 -10 -10z"/>
<path d="M510 820 c0 -5 5 -10 10 -10 6 0 10 5 10 10 0 6 -4 10 -10 10 -5 0
-10 -4 -10 -10z"/>
<path d="M637 819 c7 -7 15 -10 18 -7 3 3 -2 9 -12 12 -14 6 -15 5 -6 -5z"/>
<path d="M850 823 c-68 -10 -174 -39 -255 -69 -150 -55 -209 -66 -317 -62 -85
3 -97 2 -93 -12 3 -8 9 -37 14 -63 5 -26 12 -51 16 -55 3 -4 68 -7 143 -6 102
0 163 6 236 22 101 23 191 27 309 13 37 -4 64 -4 59 1 -9 9 -129 48 -148 48
-8 0 -14 11 -15 28 l-1 27 -7 -25 c-8 -26 -11 -27 -83 -14 -24 4 -38 3 -38 -4
0 -6 17 -12 38 -14 l37 -4 -50 -8 c-46 -8 -76 -4 -140 18 -13 5 -11 2 5 -7
l25 -15 -30 -4 c-17 -2 -38 1 -47 6 -20 12 -52 -10 -44 -31 4 -10 -10 -13 -65
-13 -50 0 -69 3 -68 13 5 31 -12 43 -54 40 -26 -2 -38 0 -32 6 14 14 184 20
218 8 15 -5 31 -7 34 -3 3 3 -8 9 -26 12 -17 4 -34 11 -38 17 -4 6 0 8 10 4 8
-3 33 -8 54 -11 36 -6 37 -6 9 5 l-28 11 48 18 c27 10 80 29 118 44 46 17 78
23 99 19 20 -4 28 -3 23 5 -8 13 15 21 69 24 22 1 43 7 47 12 5 7 8 7 8 -1 0
-7 7 -13 15 -13 8 0 15 5 15 10 0 6 32 10 76 10 47 0 73 4 69 10 -6 9 -161 12
-215 3z m-453 -159 c-3 -3 -12 -4 -19 -1 -8 3 -5 6 6 6 11 1 17 -2 13 -5z
m-165 -39 c3 -14 1 -25 -3 -25 -5 0 -9 4 -9 9 0 5 -3 16 -6 25 -3 9 -2 16 4
16 5 0 12 -11 14 -25z m88 -20 c0 -16 -12 -18 -49 -8 -23 6 -23 7 -5 14 31 12
54 10 54 -6z m186 6 c5 -5 18 -11 29 -13 13 -3 6 -6 -17 -9 -32 -4 -38 -2 -38
13 0 20 10 23 26 9z m81 -7 c-3 -3 -12 -4 -19 -1 -8 3 -5 6 6 6 11 1 17 -2 13
-5z"/>
<path d="M555 810 c-3 -6 1 -7 9 -4 18 7 21 14 7 14 -6 0 -13 -4 -16 -10z"/>
<path d="M1090 810 c-8 -5 -10 -10 -5 -10 6 0 17 5 25 10 8 5 11 10 5 10 -5 0
-17 -5 -25 -10z"/>
<path d="M508 783 c6 -2 18 -2 25 0 6 3 1 5 -13 5 -14 0 -19 -2 -12 -5z"/>
<path d="M566 781 c-4 -5 3 -7 14 -4 23 6 26 13 6 13 -8 0 -17 -4 -20 -9z"/>
<path d="M255 750 c-19 -7 -19 -7 1 -12 10 -3 28 -2 39 2 19 7 19 7 -1 12 -10
3 -28 2 -39 -2z"/>
<path d="M698 743 c7 -3 16 -2 19 1 4 3 -2 6 -13 5 -11 0 -14 -3 -6 -6z"/>
<path d="M871 734 c0 -11 3 -14 6 -6 3 7 2 16 -1 19 -3 4 -6 -2 -5 -13z"/>
<path d="M630 725 c-16 -19 0 -19 26 0 16 12 16 14 3 15 -9 0 -22 -7 -29 -15z"/>
<path d="M710 721 c-35 -6 -40 -8 -20 -12 14 -3 37 -1 53 4 15 5 34 6 42 3 8
-3 15 -1 15 4 0 11 -19 11 -90 1z"/>
<path d="M298 713 c7 -3 16 -2 19 1 4 3 -2 6 -13 5 -11 0 -14 -3 -6 -6z"/>
<path d="M546 691 c-4 -7 -5 -15 -2 -18 9 -9 19 4 14 18 -4 11 -6 11 -12 0z"/>
<path d="M635 640 c-3 -5 1 -10 9 -10 9 0 16 5 16 10 0 6 -4 10 -9 10 -6 0
-13 -4 -16 -10z"/>
<path d="M924 626 c16 -9 31 -14 34 -11 8 8 0 13 -33 20 l-30 7 29 -16z"/>
<path d="M385 620 c-4 -7 -2 -16 6 -21 18 -11 23 -4 11 17 -7 12 -11 13 -17 4z"/>
<path d="M1201 594 c0 -11 3 -14 6 -6 3 7 2 16 -1 19 -3 4 -6 -2 -5 -13z"/>
<path d="M845 563 c-11 -3 -94 -30 -184 -60 -181 -61 -285 -76 -355 -53 -51
16 -58 4 -18 -31 17 -16 32 -32 32 -36 0 -4 11 -17 25 -29 31 -27 131 -39 190
-23 22 5 102 12 179 15 76 2 146 9 155 15 13 8 13 9 -4 5 -11 -3 -27 -1 -35 4
-13 8 -12 10 4 10 11 0 16 3 13 6 -4 4 -20 1 -36 -6 -31 -12 -75 -5 -66 11 4
5 -3 9 -15 9 -12 0 -19 -4 -15 -9 3 -6 -22 -8 -65 -4 -49 4 -70 3 -70 -6 0 -6
8 -12 18 -12 45 -3 -52 -17 -118 -16 -41 0 -64 2 -51 4 13 3 31 12 39 20 11
10 27 14 54 10 31 -4 38 -2 37 11 0 10 -3 12 -5 7 -5 -12 -74 -7 -74 5 0 4 12
11 28 14 15 4 63 18 106 32 44 14 88 26 98 27 10 1 18 4 18 8 0 4 24 11 54 14
32 4 57 13 60 21 3 8 16 14 29 14 39 0 87 12 87 21 0 9 -79 10 -115 2z m-423
-155 c16 16 45 15 51 -2 4 -10 1 -13 -8 -9 -8 3 -28 0 -45 -6 -18 -6 -28 -6
-25 -1 4 6 1 10 -5 10 -6 0 -8 5 -4 11 4 8 9 7 15 -2 6 -11 11 -11 21 -1z
m-67 -7 c3 -5 1 -12 -4 -15 -5 -3 -11 1 -15 9 -6 16 9 21 19 6z m45 -35 c0 -2
-9 -6 -20 -9 -11 -3 -18 -1 -14 4 5 9 34 13 34 5z"/>
<path d="M602 545 c-11 -12 -10 -15 3 -15 8 0 15 7 15 15 0 18 -2 18 -18 0z"/>
<path d="M323 523 c32 -2 81 -2 110 0 29 2 3 3 -58 3 -60 0 -84 -1 -52 -3z"/>
<path d="M860 520 c0 -5 5 -10 10 -10 6 0 10 5 10 10 0 6 -4 10 -10 10 -5 0
-10 -4 -10 -10z"/>
<path d="M401 506 c10 -9 79 -14 79 -5 0 5 -19 9 -42 9 -23 0 -39 -2 -37 -4z"/>
<path d="M770 490 c-5 -3 11 -7 35 -8 25 -1 45 2 45 6 0 9 -66 11 -80 2z"/>
<path d="M1321 464 c0 -11 3 -14 6 -6 3 7 2 16 -1 19 -3 4 -6 -2 -5 -13z"/>
<path d="M1121 423 c-1 -18 -7 -23 -28 -23 -23 -1 -25 -2 -11 -10 9 -6 25 -7
35 -3 15 6 18 14 12 33 -7 24 -7 24 -8 3z"/>
<path d="M570 420 c0 -5 12 -10 28 -10 21 0 24 2 12 10 -20 13 -40 13 -40 0z"/>
<path d="M644 409 c-3 -5 6 -9 20 -9 31 0 34 6 6 13 -11 3 -23 1 -26 -4z"/>
<path d="M785 410 c-3 -5 -1 -10 4 -10 6 0 11 5 11 10 0 6 -2 10 -4 10 -3 0
-8 -4 -11 -10z"/>
<path d="M888 393 c6 -2 18 -2 25 0 6 3 1 5 -13 5 -14 0 -19 -2 -12 -5z"/>
<path d="M260 360 c0 -6 7 -13 15 -17 24 -9 27 1 5 15 -13 8 -20 8 -20 2z"/>
<path d="M488 363 c7 -3 16 -2 19 1 4 3 -2 6 -13 5 -11 0 -14 -3 -6 -6z"/>
<path d="M960 316 c0 -9 39 -13 51 -5 10 6 4 9 -18 9 -18 0 -33 -2 -33 -4z"/>
<path d="M578 303 c7 -3 16 -2 19 1 4 3 -2 6 -13 5 -11 0 -14 -3 -6 -6z"/>
<path d="M780 276 c0 -8 5 -18 10 -21 6 -3 10 3 10 14 0 12 -4 21 -10 21 -5 0
-10 -6 -10 -14z"/>
<path d="M882 281 c4 -13 18 -16 19 -4 0 4 -5 9 -11 12 -7 2 -11 -2 -8 -8z"/>
<path d="M450 250 c0 -5 5 -10 11 -10 5 0 7 5 4 10 -3 6 -8 10 -11 10 -2 0 -4
-4 -4 -10z"/>
<path d="M1088 209 c-10 -5 -18 -15 -18 -21 0 -6 8 -4 18 5 10 10 22 14 25 10
4 -3 7 -1 7 5 0 14 -9 15 -32 1z"/>
<path d="M523 163 c9 -2 23 -2 30 0 6 3 -1 5 -18 5 -16 0 -22 -2 -12 -5z"/>
<path d="M958 163 c7 -3 16 -2 19 1 4 3 -2 6 -13 5 -11 0 -14 -3 -6 -6z"/>
</g>
</svg>
