<?xml version="1.0" standalone="no"?>
<!DOCTYPE svg PUBLIC "-//W3C//DTD SVG 20010904//EN"
 "http://www.w3.org/TR/2001/REC-SVG-20010904/DTD/svg10.dtd">
<svg version="1.0" xmlns="http://www.w3.org/2000/svg"
 width="100.000000pt" height="100.000000pt" viewBox="0 0 100.000000 100.000000"
 preserveAspectRatio="xMidYMid meet">
<metadata>
Created by potrace 1.16, written by Peter Selinger 2001-2019
</metadata>
<g transform="translate(0.000000,100.000000) scale(0.100000,-0.100000)"
fill="#000000" stroke="none">
<path d="M440 915 c0 -14 5 -25 10 -25 6 0 10 7 10 15 0 8 5 15 10 15 6 0 10
5 10 10 0 6 -9 10 -20 10 -15 0 -20 -7 -20 -25z"/>
<path d="M500 909 c0 -17 4 -28 10 -24 6 3 10 13 10 21 0 25 37 16 44 -11 5
-18 13 -25 31 -25 22 0 25 4 25 35 l0 35 -60 0 -60 0 0 -31z m100 -4 c0 -8 -7
-15 -15 -15 -8 0 -15 7 -15 15 0 8 7 15 15 15 8 0 15 -7 15 -15z"/>
<path d="M310 850 c0 -24 6 -25 26 -6 19 20 18 26 -6 26 -13 0 -20 -7 -20 -20z"/>
<path d="M370 843 c1 -24 2 -26 13 -12 7 8 22 18 35 21 18 5 22 2 22 -18 0
-24 -1 -24 -95 -24 l-95 0 0 -27 0 -27 20 22 c27 29 40 28 40 -3 0 -24 -3 -25
-60 -25 l-60 0 0 -30 c0 -27 -3 -30 -30 -30 -27 0 -30 -3 -30 -30 0 -28 -3
-30 -35 -30 l-35 0 0 -160 0 -160 65 0 c62 0 65 -1 65 -25 0 -19 -4 -23 -18
-18 -9 4 -22 14 -29 22 -11 14 -12 12 -13 -11 l0 -28 90 0 90 0 0 125 c0 118
1 125 20 125 25 0 26 -28 3 -46 -17 -13 -17 -13 0 -14 20 0 24 -35 5 -44 -10
-5 -10 -7 0 -12 6 -3 12 -21 12 -39 0 -18 -6 -36 -12 -39 -10 -5 -10 -7 0 -12
19 -9 14 -42 -8 -49 -11 -3 -20 -13 -20 -21 0 -20 -30 -18 -46 4 -12 15 -13
14 -14 -10 0 -27 1 -28 60 -28 l60 0 0 220 0 220 25 0 c20 0 25 -5 25 -25 0
-18 -5 -25 -20 -25 -11 0 -20 -4 -20 -10 0 -5 12 -10 26 -10 20 0 25 -4 20
-16 -3 -9 -6 -18 -6 -20 0 -2 -7 -4 -15 -4 -8 0 -15 -4 -15 -10 0 -5 11 -10
25 -10 25 0 25 0 25 95 l0 95 30 0 30 0 0 60 c0 57 1 60 25 60 31 0 32 -13 3
-40 l-22 -20 27 0 c26 0 27 2 27 60 l0 60 -95 0 -95 0 0 -27z m128 -10 c-2
-10 -13 -19 -25 -21 -17 -3 -20 1 -16 17 7 26 46 29 41 4z m42 7 c0 -5 -4 -10
-10 -10 -5 0 -10 5 -10 10 0 6 5 10 10 10 6 0 10 -4 10 -10z m-170 -70 c0 -14
-7 -20 -24 -20 -19 0 -23 4 -19 20 3 11 14 20 24 20 12 0 19 -7 19 -20z m110
11 c0 -5 -12 -11 -27 -13 -27 -3 -28 -6 -31 -60 -3 -50 -6 -58 -22 -58 -22 0
-26 30 -14 103 6 36 8 37 50 37 24 0 44 -4 44 -9z m0 -50 c0 -10 -9 -21 -20
-24 -16 -4 -20 0 -20 19 0 17 6 24 20 24 13 0 20 -7 20 -19z m-230 -16 c0 -20
-5 -25 -24 -25 -19 0 -23 4 -19 19 3 11 12 22 22 24 9 3 17 5 19 6 1 0 2 -10
2 -24z m116 -71 c-3 -8 -17 -14 -31 -14 -24 0 -25 -2 -25 -65 0 -37 -4 -65
-10 -65 -5 0 -10 -13 -10 -30 0 -23 -4 -30 -20 -30 -18 0 -20 -6 -18 -62 l1
-63 6 54 c9 79 31 80 31 2 0 -54 -2 -61 -20 -61 -13 0 -20 -7 -20 -20 0 -13
-7 -20 -20 -20 -13 0 -20 7 -20 20 0 11 5 20 10 20 6 0 10 5 10 10 0 6 -9 10
-20 10 -15 0 -20 7 -20 24 0 19 -6 25 -27 28 -28 3 -28 3 -31 91 l-3 87 31 0
c28 0 30 3 30 35 0 32 2 35 29 35 25 0 30 4 33 28 2 21 9 28 31 30 19 2 27 9
27 22 0 13 8 20 28 22 25 3 27 0 30 -36 2 -21 1 -45 -2 -52z m-68 74 c-6 -18
-28 -21 -28 -4 0 9 7 16 16 16 9 0 14 -5 12 -12z m-108 -68 c0 -13 -7 -20 -20
-20 -13 0 -20 7 -20 20 0 13 7 20 20 20 13 0 20 -7 20 -20z m48 8 c-6 -18 -28
-21 -28 -4 0 9 7 16 16 16 9 0 14 -5 12 -12z m-108 -68 c0 -25 -4 -30 -25 -30
-34 0 -36 46 -2 53 12 2 23 5 25 6 1 0 2 -12 2 -29z m220 -20 c0 -38 -4 -50
-15 -50 -11 0 -15 11 -15 43 0 24 3 47 7 50 16 17 23 3 23 -43z m-172 23 c-5
-25 -28 -28 -28 -4 0 12 6 21 16 21 9 0 14 -7 12 -17z m-61 -123 c0 -61 -2
-70 -19 -70 -16 0 -18 9 -18 70 0 61 2 70 18 70 17 0 19 -9 19 -70z m13 -119
c0 -24 -3 -28 -24 -24 -16 3 -26 13 -29 29 -4 21 0 24 24 24 25 0 29 -4 29
-29z m48 -4 c2 -10 -3 -17 -12 -17 -10 0 -16 9 -16 21 0 24 23 21 28 -4z m112
-62 c0 -8 -4 -15 -10 -15 -5 0 -10 7 -10 15 0 8 5 15 10 15 6 0 10 -7 10 -15z
m60 -60 c0 -8 -4 -15 -10 -15 -5 0 -10 7 -10 15 0 8 5 15 10 15 6 0 10 -7 10
-15z"/>
<path d="M650 863 c8 -3 21 -12 28 -21 10 -14 12 -13 12 6 0 18 -6 22 -27 21
-16 0 -21 -3 -13 -6z"/>
<path d="M597 839 c-20 -23 -16 -35 8 -26 8 4 15 16 15 27 0 25 -1 25 -23 -1z"/>
<path d="M620 595 c0 -208 -1 -215 -20 -215 -13 0 -20 7 -20 20 0 11 7 20 15
20 8 0 15 5 15 10 0 6 -9 10 -20 10 -24 0 -26 13 -5 34 20 20 19 26 -5 26 -19
0 -20 -7 -20 -95 l0 -95 -30 0 -30 0 0 -60 c0 -57 -1 -60 -25 -60 -31 0 -32
13 -3 40 l22 20 -27 0 c-26 0 -27 -2 -27 -60 l0 -60 90 0 90 0 0 28 c-1 23 -2
25 -13 11 -7 -8 -20 -18 -29 -22 -14 -5 -18 -1 -18 18 0 24 3 25 65 25 l65 0
0 30 0 30 60 0 60 0 0 30 c0 27 3 30 30 30 28 0 30 3 30 35 0 33 2 35 35 35
l35 0 0 155 0 155 -65 0 c-62 0 -65 1 -65 25 0 19 4 23 18 18 9 -4 22 -14 29
-22 11 -14 12 -12 13 12 l0 27 -90 0 -90 0 0 -125 0 -125 -25 0 c-18 0 -25 5
-25 20 0 13 7 20 20 20 11 0 20 5 20 10 0 6 -9 10 -20 10 -15 0 -20 7 -20 25
0 16 6 25 15 25 8 0 15 5 15 10 0 6 -7 10 -15 10 -10 0 -15 10 -15 30 0 20 5
30 15 30 8 0 15 5 15 10 0 6 -7 10 -15 10 -8 0 -15 9 -15 20 0 14 7 20 21 20
12 0 23 8 26 20 7 25 31 26 49 3 12 -16 13 -15 14 10 0 27 -1 27 -65 27 l-65
0 0 -215z m50 185 c0 -5 -7 -10 -15 -10 -8 0 -15 5 -15 10 0 6 7 10 15 10 8 0
15 -4 15 -10z m60 -65 c0 -8 -4 -15 -10 -15 -5 0 -10 7 -10 15 0 8 5 15 10 15
6 0 10 -7 10 -15z m60 -9 c0 -14 5 -28 10 -31 6 -3 10 -15 10 -26 0 -14 7 -19
30 -19 l30 0 0 -95 0 -95 -30 0 c-27 0 -30 -3 -30 -30 0 -27 -3 -30 -29 -30
-26 0 -30 -4 -33 -32 -3 -32 -4 -33 -63 -39 l-60 -6 53 -1 c38 -2 52 -6 52
-17 0 -10 -16 -15 -62 -17 -60 -3 -63 -4 -66 -31 -3 -24 -7 -27 -43 -27 -44 0
-53 17 -11 22 26 3 27 6 30 66 2 46 7 62 17 62 9 0 16 -10 16 -22 1 -18 3 -16
8 7 5 25 12 31 39 33 l32 3 0 60 c0 33 4 59 10 59 6 0 10 14 10 30 0 23 4 30
20 30 18 0 20 6 18 58 l-1 57 -6 -49 c-9 -74 -31 -72 -31 3 0 54 2 61 20 61
13 0 20 7 20 20 0 13 7 20 20 20 15 0 20 -7 20 -24z m133 -57 c4 -15 0 -19
-24 -19 -24 0 -29 4 -29 24 0 19 4 22 24 19 13 -3 26 -14 29 -24z m-73 5 c0
-9 -5 -14 -12 -12 -18 6 -21 28 -4 28 9 0 16 -7 16 -16z m70 -119 c0 -66 -2
-75 -18 -75 -16 0 -19 9 -19 75 0 67 2 75 18 75 17 0 19 -8 19 -75z m-242 -97
c-2 -31 -8 -44 -20 -46 -15 -3 -18 4 -18 42 0 40 3 46 21 46 18 0 20 -5 17
-42z m242 -17 c0 -12 -9 -20 -25 -23 -21 -4 -25 -1 -25 18 0 19 5 24 25 24 18
0 25 -5 25 -19z m-70 -6 c0 -8 -7 -15 -15 -15 -16 0 -20 12 -8 23 11 12 23 8
23 -8z m0 -60 c0 -18 -5 -25 -20 -25 -15 0 -20 7 -20 25 0 18 5 25 20 25 15 0
20 -7 20 -25z m-60 -5 c0 -11 -7 -20 -15 -20 -15 0 -21 21 -8 33 12 13 23 7
23 -13z m3 -59 c-3 -11 -13 -21 -24 -24 -15 -4 -19 0 -19 19 0 19 5 24 24 24
19 0 23 -4 19 -19z m-233 -16 c0 -18 -5 -25 -20 -25 -25 0 -27 37 -2 43 9 3
18 5 20 6 1 0 2 -10 2 -24z m113 -45 c-3 -13 -14 -20 -29 -20 -17 0 -24 6 -24
20 0 15 7 20 29 20 24 0 28 -3 24 -20z m-130 -60 c-3 -11 -14 -20 -24 -20 -12
0 -19 7 -19 20 0 14 7 20 24 20 19 0 23 -4 19 -20z m-63 -10 c0 -5 -4 -10 -10
-10 -5 0 -10 5 -10 10 0 6 5 10 10 10 6 0 10 -4 10 -10z"/>
<path d="M778 790 c12 -11 24 -20 27 -20 3 0 5 9 5 20 0 15 -7 20 -27 20 l-27
0 22 -20z"/>
<path d="M130 730 c0 -24 6 -25 26 -6 19 20 18 26 -6 26 -13 0 -20 -7 -20 -20z"/>
<path d="M900 743 c8 -3 21 -12 28 -21 10 -14 12 -13 12 6 0 18 -6 22 -27 21
-16 0 -21 -3 -13 -6z"/>
<path d="M550 716 c0 -8 -8 -17 -17 -19 -14 -4 -12 -5 5 -6 16 -1 22 5 22 19
0 11 -2 20 -5 20 -3 0 -5 -6 -5 -14z"/>
<path d="M60 670 c0 -11 5 -20 10 -20 6 0 10 5 10 10 0 6 7 10 15 10 8 0 15 5
15 10 0 6 -11 10 -25 10 -18 0 -25 -5 -25 -20z"/>
<path d="M960 680 c0 -5 9 -10 20 -10 11 0 20 5 20 10 0 6 -9 10 -20 10 -11 0
-20 -4 -20 -10z"/>
<path d="M477 660 c-22 -26 -21 -30 3 -30 15 0 20 7 20 25 0 30 -1 30 -23 5z"/>
<path d="M0 620 c0 -5 9 -10 20 -10 11 0 20 5 20 10 0 6 -9 10 -20 10 -11 0
-20 -4 -20 -10z"/>
<path d="M955 620 c3 -5 15 -10 26 -10 10 0 19 5 19 10 0 6 -12 10 -26 10 -14
0 -23 -4 -19 -10z"/>
<path d="M0 550 c0 -5 9 -10 19 -10 11 0 23 5 26 10 4 6 -5 10 -19 10 -14 0
-26 -4 -26 -10z"/>
<path d="M560 538 c0 -17 3 -19 9 -9 5 7 15 17 22 22 10 6 8 9 -8 9 -17 0 -23
-6 -23 -22z"/>
<path d="M960 550 c0 -5 9 -10 20 -10 11 0 20 5 20 10 0 6 -9 10 -20 10 -11 0
-20 -4 -20 -10z"/>
<path d="M955 510 c-4 -6 5 -10 19 -10 14 0 26 5 26 10 0 6 -9 10 -19 10 -11
0 -23 -4 -26 -10z"/>
<path d="M0 490 c0 -5 9 -10 20 -10 11 0 20 5 20 10 0 6 -9 10 -20 10 -11 0
-20 -4 -20 -10z"/>
<path d="M430 470 c0 -6 -10 -15 -22 -20 -22 -8 -22 -9 5 -9 21 -1 27 4 27 19
0 11 -2 20 -5 20 -3 0 -5 -5 -5 -10z"/>
<path d="M0 450 c0 -5 9 -10 20 -10 11 0 20 5 20 10 0 6 -9 10 -20 10 -11 0
-20 -4 -20 -10z"/>
<path d="M955 450 c-4 -6 5 -10 19 -10 14 0 26 5 26 10 0 6 -9 10 -19 10 -11
0 -23 -4 -26 -10z"/>
<path d="M0 390 c0 -5 12 -10 26 -10 14 0 23 4 19 10 -3 6 -15 10 -26 10 -10
0 -19 -4 -19 -10z"/>
<path d="M960 390 c0 -5 9 -10 20 -10 11 0 20 5 20 10 0 6 -9 10 -20 10 -11 0
-20 -4 -20 -10z"/>
<path d="M500 349 c0 -17 4 -28 10 -24 6 3 10 13 10 21 0 8 5 14 10 14 6 0 10
5 10 10 0 6 -9 10 -20 10 -16 0 -20 -7 -20 -31z"/>
<path d="M920 345 c0 -8 -7 -15 -15 -15 -8 0 -15 -4 -15 -10 0 -5 11 -10 25
-10 20 0 25 5 25 25 0 14 -4 25 -10 25 -5 0 -10 -7 -10 -15z"/>
<path d="M7 313 c7 -2 19 -2 26 0 6 3 1 5 -13 5 -14 0 -19 -2 -13 -5z"/>
<path d="M441 288 c1 -16 3 -18 6 -6 2 9 12 19 21 21 12 3 10 5 -5 6 -18 1
-23 -4 -22 -21z"/>
<path d="M61 273 c-1 -19 4 -23 27 -22 22 1 23 2 5 6 -12 2 -24 12 -26 21 -3
12 -5 10 -6 -5z"/>
<path d="M843 275 c-18 -20 -16 -25 7 -25 13 0 20 7 20 20 0 23 -10 25 -27 5z"/>
<path d="M190 210 c0 -13 7 -20 20 -20 24 0 25 6 6 26 -20 19 -26 18 -26 -6z"/>
<path d="M716 209 c-19 -19 -19 -19 7 -19 20 0 27 5 27 20 0 25 -9 25 -34 -1z"/>
<path d="M377 183 c-4 -3 -7 -16 -7 -27 1 -20 2 -20 14 -3 7 9 18 17 25 17 6
0 11 5 11 10 0 11 -33 14 -43 3z"/>
<path d="M311 153 c-1 -18 4 -23 22 -22 15 1 17 3 5 6 -9 2 -19 12 -21 21 -3
12 -5 10 -6 -5z"/>
<path d="M680 160 c0 -6 -10 -15 -22 -20 -22 -8 -22 -9 5 -9 21 -1 27 4 27 19
0 11 -2 20 -5 20 -3 0 -5 -5 -5 -10z"/>
<path d="M370 95 l0 -35 65 0 c63 0 65 1 65 25 0 14 -4 25 -10 25 -5 0 -10 -7
-10 -15 0 -26 -37 -17 -44 10 -5 20 -13 25 -36 25 -28 0 -30 -3 -30 -35z m60
0 c0 -8 -9 -15 -20 -15 -11 0 -20 7 -20 15 0 8 9 15 20 15 11 0 20 -7 20 -15z"/>
<path d="M550 95 c0 -7 -8 -19 -17 -24 -16 -9 -16 -10 5 -11 17 0 22 6 22 25
0 14 -2 25 -5 25 -3 0 -5 -7 -5 -15z"/>
</g>
</svg>
