<?xml version="1.0" standalone="no"?>
<!DOCTYPE svg PUBLIC "-//W3C//DTD SVG 20010904//EN"
 "http://www.w3.org/TR/2001/REC-SVG-20010904/DTD/svg10.dtd">
<svg version="1.0" xmlns="http://www.w3.org/2000/svg"
 width="180.000000pt" height="180.000000pt" viewBox="0 0 180.000000 180.000000"
 preserveAspectRatio="xMidYMid meet">
<metadata>
Created by potrace 1.16, written by Peter Selinger 2001-2019
</metadata>
<g transform="translate(0.000000,180.000000) scale(0.100000,-0.100000)"
fill="#000000" stroke="none">
<path d="M1005 1471 c-51 -13 -65 -24 -226 -188 -168 -171 -187 -200 -175
-276 9 -55 33 -92 109 -164 l64 -61 -68 -72 c-73 -76 -119 -156 -119 -204 1
-104 112 -199 211 -180 65 13 105 43 255 196 120 121 154 161 163 193 23 86 6
127 -94 226 l-80 79 68 67 c42 42 80 91 98 129 28 56 29 64 19 109 -6 27 -22
64 -35 81 -39 51 -125 80 -190 65z m98 -35 c44 -18 95 -78 103 -120 9 -49 -22
-109 -99 -192 l-63 -67 -59 65 c-108 118 -125 181 -68 256 47 62 121 86 186
58z m-239 -155 c3 -46 34 -97 118 -193 34 -39 57 -72 53 -79 -5 -6 24 -43 68
-88 84 -86 97 -106 97 -153 0 -50 -25 -86 -137 -201 l-101 -104 0 43 c1 53
-33 112 -113 199 -43 46 -59 69 -55 83 5 13 -15 38 -74 96 -85 84 -99 112 -85
182 5 28 31 62 113 148 59 61 109 111 111 109 2 -1 4 -20 5 -42z m-27 -598
c80 -94 103 -133 103 -178 0 -54 -37 -107 -93 -134 -54 -26 -87 -26 -137 -1
-79 40 -109 124 -71 197 22 45 127 173 141 173 4 0 30 -26 57 -57z"/>
</g>
</svg>
