<?xml version="1.0" standalone="no"?>
<!DOCTYPE svg PUBLIC "-//W3C//DTD SVG 20010904//EN"
 "http://www.w3.org/TR/2001/REC-SVG-20010904/DTD/svg10.dtd">
<svg version="1.0" xmlns="http://www.w3.org/2000/svg"
 width="180.000000pt" height="180.000000pt" viewBox="0 0 180.000000 180.000000"
 preserveAspectRatio="xMidYMid meet">
<metadata>
Created by potrace 1.16, written by Peter Selinger 2001-2019
</metadata>
<g transform="translate(0.000000,180.000000) scale(0.100000,-0.100000)"
fill="#000000" stroke="none">
<path d="M390 1670 c-170 -14 -315 -32 -337 -43 -13 -6 -23 -18 -23 -28 0 -10
-4 -20 -9 -23 -4 -3 -11 -28 -15 -56 -5 -41 -3 -54 10 -68 16 -16 16 -17 1
-20 -18 -4 -24 -22 -7 -22 6 0 10 -9 10 -20 0 -11 5 -20 10 -20 6 0 10 -4 10
-10 0 -5 -7 -10 -15 -10 -10 0 -15 -10 -15 -30 0 -18 6 -33 15 -36 8 -4 15
-18 15 -34 0 -16 7 -35 15 -44 8 -8 15 -19 15 -25 0 -6 6 -11 14 -11 9 0 15
-24 19 -92 3 -51 15 -217 26 -368 11 -151 22 -323 26 -382 5 -85 10 -108 23
-113 87 -33 1347 -33 1434 0 23 9 24 12 48 480 23 458 25 475 45 475 11 0 15
12 15 40 0 36 3 40 25 40 21 0 25 5 25 30 0 20 -5 30 -15 30 -8 0 -15 7 -15
16 0 27 20 54 40 54 17 0 20 7 20 40 0 29 -4 40 -15 40 -8 0 -15 -4 -15 -10 0
-5 -7 -10 -15 -10 -8 0 -15 4 -15 9 0 13 -42 21 -55 11 -7 -6 -15 -7 -18 -3
-4 3 -7 -1 -7 -10 0 -22 28 -22 32 0 3 15 4 15 20 0 9 -10 31 -20 47 -23 17
-4 31 -11 31 -16 0 -6 -11 -8 -25 -6 -18 4 -26 0 -30 -13 -4 -12 -16 -19 -31
-19 -15 0 -24 -6 -24 -15 0 -8 9 -15 20 -15 11 0 20 -7 20 -15 0 -8 -8 -15
-19 -15 -10 0 -21 -9 -24 -20 -3 -12 -14 -20 -26 -20 -19 0 -21 -6 -21 -57 l0
-58 20 33 c12 19 18 42 15 52 -3 10 -1 21 5 25 16 10 20 3 27 -39 4 -29 2 -36
-10 -36 -22 0 -23 -11 -47 -475 -12 -226 -24 -425 -26 -442 -8 -52 -14 -53
-619 -60 -440 -5 -749 4 -797 22 -13 5 -17 27 -23 113 -4 59 -15 231 -26 382
-32 444 -33 460 -22 460 14 0 23 70 14 112 l-8 33 -7 -32 c-4 -18 -5 -37 -2
-42 4 -5 2 -12 -2 -15 -5 -3 -7 -17 -4 -31 3 -18 0 -25 -12 -25 -9 0 -16 5
-16 11 0 6 -7 17 -15 25 -21 22 -19 44 5 44 21 0 34 31 28 71 -2 16 2 24 12
24 9 0 18 16 24 42 11 48 28 58 117 69 65 7 130 -3 108 -17 -10 -6 -8 -9 9 -9
16 0 22 5 20 16 -2 10 2 19 9 21 7 3 10 -3 6 -16 -5 -18 8 -22 37 -11 3 1 10
1 15 -1 18 -5 215 -5 215 1 0 3 36 4 80 3 56 -2 80 1 80 9 0 9 3 9 12 0 17
-17 28 -15 21 4 -4 10 -13 14 -27 9 -44 -13 -51 -12 -64 1 -11 12 -5 14 35 15
160 3 542 -6 656 -16 15 -1 40 -3 55 -4 23 -1 28 -6 28 -23 -1 -13 5 -23 14
-24 10 0 10 1 2 3 -15 5 -11 25 5 30 6 2 17 -3 26 -11 8 -8 18 -12 22 -8 5 4
5 -1 2 -10 -3 -10 -2 -20 3 -23 6 -4 10 -24 10 -46 0 -24 4 -38 10 -34 6 3 10
15 10 25 0 10 5 20 11 22 5 2 7 11 4 20 -4 10 -13 14 -22 11 -13 -5 -15 -1
-10 17 3 13 2 29 -4 36 -7 8 -2 10 18 6 16 -2 25 -1 21 3 -29 30 -569 61 -898
51 -388 -13 -647 -34 -692 -58 -15 -7 -18 -4 -18 14 -1 21 -2 21 -11 5 -6 -10
-8 -30 -4 -45 l7 -27 17 21 c9 12 26 24 37 28 18 5 20 3 16 -24 -3 -24 -9 -30
-28 -30 -13 0 -24 -4 -24 -9 0 -6 -9 -9 -20 -8 -19 1 -24 17 -23 65 1 6 -5 12
-13 12 -8 0 -14 5 -14 10 0 6 7 10 16 10 12 0 14 7 9 29 -3 17 -2 32 4 36 6 3
11 14 11 24 0 20 35 42 65 39 11 0 54 4 95 10 41 7 136 16 210 22 170 13 861
12 1000 0 58 -5 152 -12 210 -15 58 -4 107 -10 108 -16 5 -12 62 -12 62 1 0 6
-9 10 -19 10 -11 0 -21 4 -23 9 -7 19 -321 34 -788 36 -267 2 -528 -1 -580 -5z
m370 -179 c0 -6 -19 -10 -42 -10 -24 0 -50 -1 -58 -2 -8 -1 -24 -1 -35 0 -18
3 -17 4 4 9 40 12 131 13 131 3z m-240 -13 c0 -10 -17 -9 -50 2 -21 7 -20 8
12 7 21 -1 38 -5 38 -9z m30 2 c0 -5 -5 -10 -11 -10 -5 0 -7 5 -4 10 3 6 8 10
11 10 2 0 4 -4 4 -10z m50 6 c0 -11 -19 -15 -25 -6 -3 5 1 10 9 10 9 0 16 -2
16 -4z m-492 -108 c-5 -16 -48 -24 -48 -9 0 8 17 16 43 20 5 0 7 -5 5 -11z
m-30 -66 c3 -9 -3 -13 -19 -10 -12 1 -24 9 -27 16 -3 9 3 13 19 10 12 -1 24
-9 27 -16z m1672 -32 c0 -5 -9 -10 -20 -10 -11 0 -20 5 -20 10 0 6 9 10 20 10
11 0 20 -4 20 -10z"/>
<path d="M1018 1623 c7 -3 16 -2 19 1 4 3 -2 6 -13 5 -11 0 -14 -3 -6 -6z"/>
<path d="M1058 1623 c7 -3 16 -2 19 1 4 3 -2 6 -13 5 -11 0 -14 -3 -6 -6z"/>
<path d="M1608 1614 c20 -9 14 -21 -18 -34 -28 -12 -29 -13 -13 -36 21 -33 34
-30 27 6 -6 28 -5 30 24 30 17 0 34 5 37 10 3 6 13 10 22 10 14 0 14 -3 -2
-20 -10 -11 -26 -20 -36 -20 -16 0 -16 -2 -3 -30 19 -37 28 -39 21 -4 -3 20 1
27 18 34 12 5 25 18 28 29 4 18 1 21 -31 21 -21 0 -48 3 -62 5 -14 3 -19 3
-12 -1z"/>
<path d="M260 1603 c-40 -4 -65 -12 -59 -17 2 -2 47 2 99 9 66 9 80 13 45 12
-27 0 -66 -2 -85 -4z"/>
<path d="M1428 1603 c7 -3 16 -2 19 1 4 3 -2 6 -13 5 -11 0 -14 -3 -6 -6z"/>
<path d="M83 1586 c-13 -6 -23 -18 -23 -28 0 -9 -3 -23 -6 -32 -4 -11 -1 -16
10 -16 10 0 16 9 16 24 0 15 7 26 20 29 11 3 20 12 20 21 0 18 -5 18 -37 2z"/>
<path d="M460 1589 c-145 -9 -306 -28 -335 -40 -24 -10 53 -4 135 11 62 11
943 34 978 25 12 -3 22 -1 22 5 0 12 -605 11 -800 -1z"/>
<path d="M1270 1589 c0 -5 41 -9 92 -9 50 0 89 2 87 4 -9 8 -179 13 -179 5z"/>
<path d="M1518 1593 c12 -2 32 -2 45 0 12 2 2 4 -23 4 -25 0 -35 -2 -22 -4z"/>
<path d="M168 1583 c7 -3 16 -2 19 1 4 3 -2 6 -13 5 -11 0 -14 -3 -6 -6z"/>
<path d="M1460 1580 c0 -5 10 -10 23 -10 18 0 19 2 7 10 -19 13 -30 13 -30 0z"/>
<path d="M1728 1582 c7 -2 10 -8 6 -13 -9 -14 29 -10 50 6 18 14 16 15 -24 13
-25 -1 -39 -3 -32 -6z"/>
<path d="M1518 1573 c6 -2 18 -2 25 0 6 3 1 5 -13 5 -14 0 -19 -2 -12 -5z"/>
<path d="M1790 1550 c0 -5 -11 -10 -25 -10 -27 0 -35 -26 -13 -48 9 -9 7 -12
-12 -12 -23 -1 -24 -1 -6 -12 15 -8 22 -7 31 6 7 9 17 16 24 16 18 0 13 18 -6
23 -17 4 -17 5 0 6 10 1 17 9 17 21 0 11 -2 20 -5 20 -3 0 -5 -4 -5 -10z"/>
<path d="M1690 1541 c0 -5 3 -17 6 -26 5 -13 8 -14 15 -3 13 20 11 38 -6 38
-8 0 -15 -4 -15 -9z"/>
<path d="M888 1471 c4 -10 17 -12 50 -7 25 3 51 6 59 6 8 0 11 4 8 10 -3 5
-32 9 -64 7 -44 -1 -57 -5 -53 -16z"/>
<path d="M1025 1482 c-10 -10 -5 -24 8 -20 6 3 49 2 94 -1 44 -3 79 -3 77 1
-3 5 1 8 10 8 8 0 16 -4 18 -8 2 -5 34 -6 71 -2 37 3 73 2 80 -2 13 -9 123
-11 115 -3 -3 3 -25 7 -49 9 -24 2 -62 7 -84 10 -51 8 -333 15 -340 8z"/>
<path d="M256 1461 c-3 -4 -18 -6 -34 -5 -23 1 -29 -2 -27 -15 1 -9 9 -14 16
-13 43 11 123 21 130 16 5 -3 9 1 9 8 0 14 -86 22 -94 9z"/>
<path d="M101 1434 c0 -11 3 -14 6 -6 3 7 2 16 -1 19 -3 4 -6 -2 -5 -13z"/>
<path d="M1683 1407 c5 -17 37 -21 37 -5 0 8 -9 14 -21 15 -12 1 -19 -3 -16
-10z"/>
<path d="M1661 1304 c0 -11 3 -14 6 -6 3 7 2 16 -1 19 -3 4 -6 -2 -5 -13z"/>
<path d="M895 1208 c-63 -16 -109 -87 -103 -162 l3 -41 -210 -5 c-233 -6 -249
-10 -279 -75 -22 -45 -20 -130 3 -182 30 -66 57 -77 190 -83 101 -4 116 -7
119 -23 8 -41 -13 -47 -164 -47 -93 0 -144 -4 -144 -10 0 -6 9 -29 20 -50 30
-59 60 -70 193 -70 102 0 118 2 147 23 51 34 72 81 68 152 -3 43 -10 70 -27
93 -39 56 -72 67 -201 67 l-115 0 -3 31 -3 31 143 6 c79 4 171 7 206 7 l62 0
0 -152 c0 -189 13 -227 85 -259 38 -17 51 -18 85 -9 l40 11 0 63 c0 61 -1 63
-23 59 -13 -3 -28 1 -34 9 -6 7 -13 70 -15 146 l-3 132 63 0 c34 0 62 -2 62
-3 0 -2 -8 -19 -17 -38 -26 -49 -24 -161 3 -219 74 -158 265 -209 375 -99 58
58 82 134 77 244 -5 96 -24 150 -70 191 -52 48 -75 53 -289 58 l-204 6 -5 103
-5 103 -30 -8z m13 -55 c-1 -16 -1 -60 0 -100 l2 -71 208 -4 c179 -3 212 -6
241 -22 141 -76 157 -316 29 -431 -21 -20 -43 -33 -48 -30 -5 3 -11 1 -15 -5
-9 -15 -77 -12 -118 5 -49 20 -97 63 -90 81 3 9 0 12 -9 9 -21 -8 -58 81 -58
140 0 25 7 62 15 82 34 80 17 97 -91 91 l-59 -3 -3 -145 c-2 -138 8 -208 28
-195 20 12 40 -9 40 -40 0 -40 -27 -51 -76 -30 -61 25 -74 62 -74 211 0 162
-5 191 -34 196 -13 3 -109 2 -215 0 -149 -4 -195 -8 -207 -19 -18 -18 -18 -77
0 -92 8 -7 59 -13 129 -14 134 -2 156 -13 195 -88 26 -50 23 -85 -11 -136 -31
-46 -55 -53 -176 -53 -105 0 -108 1 -134 28 -15 15 -27 31 -27 35 0 4 51 8
113 8 61 1 126 4 142 8 27 5 30 10 33 49 5 67 -4 72 -132 72 -110 0 -113 1
-138 28 -39 41 -48 65 -48 126 0 44 5 60 26 85 31 37 41 39 271 44 100 3 186
8 192 12 6 3 11 29 11 56 0 53 10 80 43 117 28 30 46 28 45 -5z"/>
<path d="M1213 874 c-73 -36 -103 -152 -61 -234 56 -109 209 -107 258 3 41 89
13 204 -55 233 -45 18 -102 17 -142 -2z m153 -48 c31 -31 34 -40 34 -90 0 -32
-7 -70 -14 -85 -54 -104 -210 -68 -223 52 -10 90 43 157 124 157 38 0 50 -5
79 -34z"/>
<path d="M1535 1200 c3 -5 8 -10 11 -10 2 0 4 5 4 10 0 6 -5 10 -11 10 -5 0
-7 -4 -4 -10z"/>
<path d="M141 1123 c0 -34 4 -65 9 -68 12 -7 12 21 1 85 l-8 45 -2 -62z"/>
<path d="M1627 1100 c-3 -25 -9 -99 -12 -165 -3 -66 -10 -178 -15 -250 -15
-209 -21 -422 -11 -400 4 11 11 83 14 160 4 77 13 256 22 399 15 247 16 353 2
256z"/>
<path d="M153 995 c0 -22 2 -30 4 -17 2 12 2 30 0 40 -3 9 -5 -1 -4 -23z"/>
<path d="M165 835 c3 -33 8 -113 11 -177 4 -65 11 -118 17 -118 5 0 7 18 3 43
-3 23 -8 87 -12 142 -3 55 -10 116 -15 135 -7 28 -8 23 -4 -25z"/>
<path d="M378 273 c7 -3 16 -2 19 1 4 3 -2 6 -13 5 -11 0 -14 -3 -6 -6z"/>
<path d="M418 273 c7 -3 16 -2 19 1 4 3 -2 6 -13 5 -11 0 -14 -3 -6 -6z"/>
</g>
</svg>
