<?xml version="1.0" standalone="no"?>
<!DOCTYPE svg PUBLIC "-//W3C//DTD SVG 20010904//EN"
 "http://www.w3.org/TR/2001/REC-SVG-20010904/DTD/svg10.dtd">
<svg version="1.0" xmlns="http://www.w3.org/2000/svg"
 width="192.000000pt" height="192.000000pt" viewBox="0 0 192.000000 192.000000"
 preserveAspectRatio="xMidYMid meet">
<metadata>
Created by potrace 1.16, written by Peter Selinger 2001-2019
</metadata>
<g transform="translate(0.000000,192.000000) scale(0.100000,-0.100000)"
fill="#000000" stroke="none">
<path d="M543 1700 l-23 -9 0 -325 c0 -249 3 -327 13 -333 6 -4 63 -9 126 -11
l114 -4 -6 -99 c-10 -160 -57 -236 -182 -296 l-60 -28 0 -170 0 -170 34 -3
c38 -4 124 25 198 65 79 44 194 166 237 253 77 157 79 171 83 672 l4 448 -26
10 c-33 12 -481 12 -512 0z m507 -437 c0 -227 -5 -436 -10 -465 -35 -184 -134
-345 -265 -433 -62 -41 -156 -82 -199 -87 l-28 -3 1 149 0 150 59 27 c69 31
127 86 153 145 21 47 38 157 39 246 l0 57 -125 3 -126 3 0 308 c0 169 1 309 1
312 0 3 113 4 250 3 l251 -3 -1 -412z"/>
<path d="M1255 1585 l-130 -53 0 -163 0 -163 130 -52 c141 -58 198 -67 215
-35 6 12 10 111 10 251 0 140 -4 239 -10 251 -17 31 -73 22 -215 -36z m193
-213 c2 -198 0 -243 -11 -248 -14 -5 -261 89 -284 108 -9 7 -13 48 -13 138 0
90 4 131 13 138 20 17 261 111 277 109 13 -2 15 -38 18 -245z"/>
</g>
</svg>
