<?xml version="1.0" standalone="no"?>
<!DOCTYPE svg PUBLIC "-//W3C//DTD SVG 20010904//EN"
 "http://www.w3.org/TR/2001/REC-SVG-20010904/DTD/svg10.dtd">
<svg version="1.0" xmlns="http://www.w3.org/2000/svg"
 width="180.000000pt" height="180.000000pt" viewBox="0 0 180.000000 180.000000"
 preserveAspectRatio="xMidYMid meet">
<metadata>
Created by potrace 1.16, written by Peter Selinger 2001-2019
</metadata>
<g transform="translate(0.000000,180.000000) scale(0.100000,-0.100000)"
fill="#000000" stroke="none">
<path d="M0 1490 c0 -7 307 -10 900 -10 593 0 900 3 900 10 0 7 -307 10 -900
10 -593 0 -900 -3 -900 -10z"/>
<path d="M89 1388 c0 -2 -1 -22 -2 -46 l-2 -42 815 0 815 0 -1 42 -1 43 -812
3 c-446 1 -811 1 -812 0z m1601 -43 c0 -13 -94 -15 -790 -15 -696 0 -790 2
-790 15 0 13 94 15 790 15 696 0 790 -2 790 -15z"/>
<path d="M1523 1229 c-60 -17 -105 -100 -89 -163 10 -41 55 -85 98 -96 91 -25
178 32 178 117 0 28 0 28 -70 28 l-70 0 0 -29 c0 -26 3 -28 30 -24 32 5 39 -9
18 -30 -18 -18 -73 -15 -91 6 -25 28 -30 67 -13 100 24 46 65 56 101 22 18
-17 25 -18 53 -8 18 7 32 15 32 18 0 15 -49 51 -81 60 -40 12 -53 11 -96 -1z
m75 -26 c-10 -2 -28 -2 -40 0 -13 2 -5 4 17 4 22 1 32 -1 23 -4z m-102 -35
c-18 -26 -21 -99 -5 -131 10 -21 9 -21 -10 2 -28 31 -28 90 0 125 25 32 36 35
15 4z m184 -97 c0 -10 -6 -24 -14 -30 -11 -9 -15 -6 -18 19 -4 24 -1 30 14 30
11 0 18 -7 18 -19z"/>
<path d="M112 1207 c-25 -26 -30 -88 -9 -105 7 -6 31 -17 52 -24 42 -14 58
-44 30 -54 -9 -4 -32 0 -50 9 -32 15 -33 15 -44 -10 -16 -36 -3 -46 67 -51 51
-4 62 -1 86 20 21 18 28 33 29 62 1 44 -15 60 -75 77 -23 6 -38 16 -38 25 0
21 27 29 54 16 20 -9 25 -7 35 15 16 34 2 43 -65 43 -40 0 -55 -5 -72 -23z
m81 -4 c-7 -2 -19 -2 -25 0 -7 3 -2 5 12 5 14 0 19 -2 13 -5z m-27 -89 c14 -4
23 -9 20 -12 -3 -2 -19 1 -36 8 -23 9 -30 19 -30 40 0 41 15 46 18 6 3 -29 8
-37 28 -42z m66 -31 c22 -19 23 -33 5 -58 -13 -16 -14 -15 -10 12 3 19 -1 36
-12 46 -21 22 -7 22 17 0z m-49 -90 c-7 -2 -19 -2 -25 0 -7 3 -2 5 12 5 14 0
19 -2 13 -5z"/>
<path d="M270 1200 c0 -27 3 -30 30 -30 l30 0 0 -100 0 -100 35 0 35 0 0 99 0
100 26 3 c21 2 28 9 30 31 l3 27 -95 0 -94 0 0 -30z m112 -12 c-7 -7 -13 -48
-14 -102 l-2 -91 -5 90 c-3 50 -10 96 -14 103 -6 8 0 12 19 12 22 0 25 -3 16
-12z"/>
<path d="M470 1101 l0 -131 36 0 37 0 -6 50 c-3 28 -3 50 1 50 4 0 20 -23 35
-50 l28 -50 73 0 c70 0 74 1 80 25 6 22 11 25 56 25 45 0 50 -3 56 -25 5 -21
12 -25 45 -25 l39 0 -26 68 c-14 37 -36 94 -49 127 -22 58 -24 60 -62 63 l-40
3 -43 -113 c-24 -62 -46 -116 -49 -120 -3 -4 -21 11 -39 33 l-33 39 27 23 c33
29 36 80 5 111 -17 16 -37 21 -96 24 l-75 4 0 -131z m43 42 c-1 -32 -2 -77 -2
-100 -1 -24 -5 -43 -11 -43 -6 0 -10 40 -10 100 0 73 3 100 13 100 8 0 11 -17
10 -57z m357 -45 c21 -54 34 -98 29 -98 -5 0 -9 7 -9 15 0 9 -7 18 -15 21 -9
4 -15 19 -15 35 0 47 -26 99 -49 99 -25 0 -54 -62 -48 -102 2 -19 -1 -28 -11
-28 -7 0 -16 -9 -19 -20 -3 -11 -9 -20 -13 -20 -5 0 10 45 32 101 54 132 66
132 118 -3z m-230 52 c0 -3 -6 -14 -12 -23 -11 -15 -13 -11 -14 24 0 36 2 39
13 23 7 -10 13 -21 13 -24z m-66 24 c34 -13 14 -64 -25 -64 -5 0 -9 16 -9 35
0 35 5 40 34 29z m249 -51 c3 -16 8 -35 12 -44 5 -13 0 -15 -23 -11 -28 4 -29
4 -18 43 12 46 21 50 29 12z m-233 -49 c0 -14 -3 -14 -15 -4 -8 7 -15 14 -15
16 0 2 7 4 15 4 8 0 15 -7 15 -16z"/>
<path d="M954 1214 c3 -9 6 -67 6 -131 l0 -115 81 4 c71 3 83 6 100 27 25 31
22 80 -6 95 -11 6 -22 12 -25 14 -2 2 1 6 7 10 6 4 14 19 18 34 5 21 1 33 -19
52 -22 23 -33 26 -97 26 -61 0 -70 -2 -65 -16z m51 -114 c0 -73 -3 -100 -12
-100 -10 0 -13 27 -13 100 0 73 3 100 13 100 9 0 12 -27 12 -100z m103 59 c-3
-8 -7 -3 -11 10 -4 17 -3 21 5 13 5 -5 8 -16 6 -23z m-40 -6 c3 -18 -1 -23
-20 -23 -18 0 -23 6 -24 26 -2 20 2 25 20 22 13 -2 22 -11 24 -25z m20 -97 c4
-21 -13 -36 -44 -36 -16 0 -21 6 -21 31 0 28 3 30 31 27 21 -2 32 -9 34 -22z
m31 -40 c-9 -8 -10 -7 -5 7 3 10 7 26 7 35 1 9 4 6 6 -7 3 -13 -1 -28 -8 -35z"/>
<path d="M1253 1213 c-5 -14 -54 -139 -90 -230 -4 -9 6 -13 31 -13 30 0 38 5
46 25 8 22 15 25 60 25 45 0 50 -2 56 -25 5 -21 12 -25 46 -25 22 0 38 3 36 8
-1 4 -25 62 -52 130 l-50 122 -38 0 c-28 0 -40 -5 -45 -17z m105 -113 c21 -55
36 -100 31 -100 -4 0 -11 9 -14 20 -3 11 -12 20 -19 20 -8 0 -12 9 -9 23 7 37
-21 102 -46 105 -16 3 -25 -5 -36 -32 -8 -19 -15 -47 -15 -60 0 -14 -11 -37
-26 -53 -28 -31 -30 -37 16 77 12 30 26 65 31 78 5 12 17 22 28 22 15 0 28
-22 59 -100z m-48 29 c0 -11 4 -29 10 -39 8 -15 5 -18 -21 -22 -27 -4 -30 -2
-24 16 4 12 9 31 12 44 7 28 23 29 23 1z"/>
<path d="M89 903 c0 -2 -1 -21 -1 -43 l-1 -40 813 0 813 0 0 40 0 40 -811 3
c-447 1 -812 1 -813 0z m1601 -43 c0 -20 -7 -20 -790 -20 -783 0 -790 0 -790
20 0 20 7 20 790 20 783 0 790 0 790 -20z"/>
<path d="M220 630 c0 -47 3 -60 15 -60 8 0 15 9 15 20 0 13 7 20 20 20 16 0
40 26 40 44 0 15 -35 36 -61 36 -29 0 -29 0 -29 -60z m58 18 c-6 -18 -28 -21
-28 -4 0 9 7 16 16 16 9 0 14 -5 12 -12z"/>
<path d="M330 630 c0 -47 3 -60 15 -60 10 0 15 10 15 28 l1 27 15 -27 c9 -17
23 -28 36 -28 l21 0 -22 23 c-19 21 -20 25 -6 37 8 7 15 16 15 21 0 17 -33 39
-61 39 -29 0 -29 0 -29 -60z m55 20 c0 -7 -6 -15 -12 -17 -8 -3 -13 4 -13 17
0 13 5 20 13 18 6 -3 12 -11 12 -18z"/>
<path d="M459 669 c-36 -36 -6 -99 48 -99 28 0 63 33 63 60 0 28 -35 60 -65
60 -14 0 -34 -9 -46 -21z m76 -19 c11 -17 -5 -50 -24 -50 -24 0 -43 23 -35 44
7 18 49 22 59 6z"/>
<path d="M599 685 c0 -3 -1 -29 -1 -57 -1 -43 3 -54 17 -57 14 -2 17 2 13 17
-5 17 -1 21 21 24 20 2 27 9 29 32 2 16 -2 32 -10 37 -14 9 -68 12 -69 4z m51
-41 c0 -16 -16 -19 -25 -4 -8 13 4 32 16 25 5 -4 9 -13 9 -21z"/>
<path d="M710 630 l0 -60 30 0 c20 0 30 5 30 15 0 8 -9 15 -20 15 -11 0 -20 5
-20 10 0 6 9 10 20 10 11 0 20 5 20 10 0 6 -9 10 -20 10 -11 0 -20 5 -20 10 0
6 9 10 20 10 11 0 20 7 20 15 0 10 -10 15 -30 15 l-30 0 0 -60z"/>
<path d="M810 631 c0 -48 3 -61 15 -61 12 0 14 7 10 28 -6 26 -6 26 9 8 9 -11
16 -23 16 -28 0 -4 9 -8 20 -8 24 0 26 13 5 30 -11 9 -12 16 -2 31 17 27 -2
53 -42 57 l-31 3 0 -60z m45 9 c-5 -8 -11 -8 -17 -2 -6 6 -7 16 -3 22 5 8 11
8 17 2 6 -6 7 -16 3 -22z"/>
<path d="M910 675 c0 -8 7 -15 16 -15 12 0 15 -9 12 -42 -2 -35 1 -43 16 -46
17 -4 18 1 14 42 -4 35 -2 46 8 46 8 0 14 7 14 15 0 11 -11 15 -40 15 -29 0
-40 -4 -40 -15z"/>
<path d="M1010 682 c0 -4 8 -19 17 -32 10 -14 16 -37 14 -53 -2 -23 1 -28 16
-25 12 2 17 11 15 26 -2 14 8 38 23 58 24 32 25 34 6 34 -11 0 -25 -8 -31 -17
-10 -17 -10 -17 -20 0 -11 17 -40 24 -40 9z"/>
<path d="M1233 673 c-3 -10 -12 -33 -19 -52 -18 -43 -17 -51 1 -51 8 0 15 5
15 10 0 6 11 10 25 10 14 0 25 -4 25 -10 0 -5 7 -10 15 -10 19 0 19 5 -4 65
-20 52 -46 70 -58 38z m37 -55 c0 -5 -7 -8 -15 -8 -17 0 -18 2 -9 25 5 13 8
14 15 3 5 -7 9 -16 9 -20z"/>
<path d="M1330 629 c0 -52 2 -60 18 -57 13 3 16 12 14 38 l-3 35 32 -37 c46
-55 59 -50 59 22 0 46 -3 60 -14 60 -10 0 -16 -13 -18 -37 l-3 -37 -25 37
c-14 20 -33 37 -42 37 -15 0 -18 -10 -18 -61z"/>
<path d="M1480 630 c0 -59 0 -60 28 -60 41 0 72 26 72 60 0 34 -31 60 -72 60
-28 0 -28 -1 -28 -60z m65 0 c0 -16 -6 -26 -17 -28 -14 -3 -18 3 -18 28 0 25
4 31 18 28 11 -2 17 -12 17 -28z"/>
<path d="M90 480 c0 -27 0 -53 -1 -57 0 -5 8 -10 17 -11 13 -3 15 1 10 22 -5
22 -3 26 14 26 11 0 20 5 20 10 0 6 -9 10 -20 10 -11 0 -20 5 -20 10 0 6 9 10
20 10 11 0 20 7 20 15 0 10 -10 15 -30 15 -29 0 -30 -1 -30 -50z"/>
<path d="M184 478 c-10 -29 -20 -56 -22 -60 -2 -4 4 -8 12 -8 9 0 19 6 22 14
7 18 42 17 48 -1 3 -7 13 -13 22 -13 11 0 14 5 9 18 -4 9 -14 36 -22 60 -21
59 -44 56 -69 -10z m46 -8 c0 -11 -4 -20 -10 -20 -5 0 -10 9 -10 20 0 11 5 20
10 20 6 0 10 -9 10 -20z"/>
<path d="M307 512 c-10 -10 -17 -30 -17 -45 0 -47 80 -78 88 -35 3 13 -3 16
-25 15 -24 -2 -28 2 -28 23 0 21 4 25 28 23 21 -1 27 3 27 18 0 25 -50 26 -73
1z"/>
<path d="M410 470 c0 -47 3 -60 15 -60 12 0 15 13 15 60 0 47 -3 60 -15 60
-12 0 -15 -13 -15 -60z"/>
<path d="M470 470 l0 -60 35 0 c24 0 35 5 35 15 0 8 -9 15 -20 15 -17 0 -20 7
-20 45 0 33 -4 45 -15 45 -12 0 -15 -13 -15 -60z"/>
<path d="M566 473 c0 -41 5 -58 14 -58 9 0 14 17 15 58 1 46 -2 57 -14 57 -13
0 -16 -12 -15 -57z"/>
<path d="M620 515 c0 -8 7 -15 15 -15 11 0 15 -12 15 -45 0 -35 4 -45 16 -45
13 0 15 9 12 45 -2 31 1 45 9 45 7 0 13 7 13 15 0 11 -11 15 -40 15 -29 0 -40
-4 -40 -15z"/>
<path d="M720 524 c0 -3 9 -19 20 -34 11 -16 19 -39 18 -52 -2 -15 2 -23 12
-23 10 0 14 8 12 24 -1 13 9 38 23 57 25 32 25 34 6 34 -11 0 -25 -8 -31 -17
-10 -17 -10 -17 -20 0 -10 16 -40 24 -40 11z"/>
<path d="M940 509 c-13 -23 2 -49 26 -49 8 0 14 -5 14 -11 0 -5 -10 -9 -22 -7
-25 4 -37 -19 -14 -28 9 -3 27 -3 41 0 20 5 25 13 25 35 0 23 -5 30 -22 33
-24 3 -23 23 1 23 8 0 16 6 19 13 7 22 -56 15 -68 -9z"/>
<path d="M1040 469 l0 -60 32 3 c39 4 51 28 14 28 -14 0 -26 5 -26 10 0 6 9
10 20 10 11 0 20 6 20 14 0 8 -6 13 -12 12 -7 0 -13 3 -13 9 0 5 6 10 14 10 8
0 16 6 18 13 3 8 -7 12 -31 12 l-36 0 0 -61z"/>
<path d="M1130 470 c0 -45 3 -60 14 -60 8 0 16 12 18 28 l4 27 12 -27 c8 -19
19 -28 33 -28 l22 0 -21 23 c-20 21 -20 24 -6 39 26 25 2 58 -41 58 l-35 0 0
-60z m57 23 c2 -6 -3 -13 -12 -16 -10 -5 -15 0 -15 14 0 21 21 22 27 2z"/>
<path d="M1230 526 c0 -15 50 -116 58 -116 5 0 20 27 35 60 24 57 25 60 6 60
-10 0 -19 -4 -19 -9 0 -5 -5 -22 -11 -38 l-11 -28 -13 35 c-6 19 -19 36 -28
38 -10 2 -17 1 -17 -2z"/>
<path d="M1370 470 c0 -47 3 -60 15 -60 12 0 15 13 15 60 0 47 -3 60 -15 60
-12 0 -15 -13 -15 -60z"/>
<path d="M1446 515 c-25 -25 -20 -72 9 -91 29 -19 59 -15 63 8 3 13 -3 16 -25
15 -24 -2 -28 2 -28 23 0 21 4 25 28 23 22 -1 28 2 25 15 -4 23 -51 27 -72 7z"/>
<path d="M1540 470 l0 -60 35 0 c24 0 35 5 35 15 0 8 -9 15 -20 15 -11 0 -20
5 -20 10 0 6 9 10 20 10 11 0 20 5 20 10 0 6 -9 10 -20 10 -11 0 -20 5 -20 10
0 6 9 10 20 10 11 0 20 7 20 15 0 10 -11 15 -35 15 l-35 0 0 -60z"/>
<path d="M1647 523 c-17 -16 -6 -54 18 -63 33 -12 32 -22 -2 -18 -32 4 -43
-18 -14 -27 41 -13 78 15 65 49 -3 8 -17 17 -30 20 -26 7 -23 28 3 24 9 -2 18
3 20 10 5 13 -48 18 -60 5z"/>
<path d="M0 310 c0 -7 307 -10 900 -10 593 0 900 3 900 10 0 7 -307 10 -900
10 -593 0 -900 -3 -900 -10z"/>
</g>
</svg>
