<?xml version="1.0" standalone="no"?>
<!DOCTYPE svg PUBLIC "-//W3C//DTD SVG 20010904//EN"
 "http://www.w3.org/TR/2001/REC-SVG-20010904/DTD/svg10.dtd">
<svg version="1.0" xmlns="http://www.w3.org/2000/svg"
 width="64.000000pt" height="64.000000pt" viewBox="0 0 64.000000 64.000000"
 preserveAspectRatio="xMidYMid meet">
<metadata>
Created by potrace 1.16, written by Peter Selinger 2001-2019
</metadata>
<g transform="translate(0.000000,64.000000) scale(0.100000,-0.100000)"
fill="#000000" stroke="none">
<path d="M228 443 c6 -2 18 -2 25 0 6 3 1 5 -13 5 -14 0 -19 -2 -12 -5z"/>
<path d="M400 437 c89 -27 123 -52 135 -98 10 -39 -36 -85 -105 -109 -30 -11
-46 -19 -35 -20 39 0 123 47 139 79 21 40 20 53 -5 85 -26 33 -83 63 -134 70
l-40 6 45 -13z"/>
<path d="M164 424 c-83 -41 -100 -103 -44 -157 18 -18 29 -25 26 -17 -6 13 -5
12 6 0 26 -31 231 -35 288 -6 53 28 80 57 80 86 0 58 -91 102 -210 102 -86 0
-150 -21 -180 -60 -21 -26 -26 -67 -10 -77 6 -3 10 -11 10 -18 0 -6 -7 -4 -17
5 -22 23 -21 75 3 98 10 11 37 28 59 39 22 11 36 20 30 20 -5 0 -24 -6 -41
-15z m175 -58 c53 -7 79 -6 92 3 12 7 19 7 19 1 0 -5 10 -11 23 -11 l22 -2
-22 -4 c-13 -2 -23 -9 -23 -16 0 -8 -3 -8 -12 1 -15 15 -132 16 -159 2 -27
-15 -27 -70 0 -70 11 0 22 6 25 13 5 10 7 10 12 0 7 -15 70 -17 79 -3 4 6 12
7 18 3 7 -4 15 -8 19 -8 3 0 10 -3 14 -8 9 -8 -14 -11 -75 -7 -28 1 -47 -3
-53 -11 -7 -11 -11 -11 -15 -1 -2 6 -13 12 -23 12 -21 0 -40 28 -40 59 0 16
-9 21 -47 26 -71 10 -73 12 -15 20 44 6 56 12 65 33 l12 25 5 -24 c5 -22 13
-25 79 -33z m59 30 c13 -14 -11 -18 -63 -11 -74 9 -74 30 1 22 31 -3 59 -8 62
-11z m33 -76 c68 4 73 2 55 -16 -9 -8 -21 -12 -27 -8 -19 11 -71 6 -80 -8 -7
-10 -9 -10 -9 0 0 6 -9 12 -19 12 -11 0 -23 5 -26 10 -4 6 5 10 19 10 14 0 26
6 26 13 0 9 3 8 9 -2 5 -8 24 -12 52 -11z m-242 -1 c17 -6 31 -15 31 -20 0 -8
-66 14 -79 26 -8 8 15 5 48 -6z"/>
</g>
</svg>
