<?xml version="1.0" standalone="no"?>
<!DOCTYPE svg PUBLIC "-//W3C//DTD SVG 20010904//EN"
 "http://www.w3.org/TR/2001/REC-SVG-20010904/DTD/svg10.dtd">
<svg version="1.0" xmlns="http://www.w3.org/2000/svg"
 width="100.000000pt" height="100.000000pt" viewBox="0 0 100.000000 100.000000"
 preserveAspectRatio="xMidYMid meet">
<metadata>
Created by potrace 1.16, written by Peter Selinger 2001-2019
</metadata>
<g transform="translate(0.000000,100.000000) scale(0.100000,-0.100000)"
fill="#000000" stroke="none">
<path d="M0 790 c0 -7 173 -10 500 -10 327 0 500 3 500 10 0 7 -173 10 -500
10 -327 0 -500 -3 -500 -10z"/>
<path d="M370 743 c0 -5 44 -7 97 -5 181 5 199 8 51 10 -82 1 -148 -1 -148 -5z"/>
<path d="M250 713 c0 -9 490 -6 498 2 3 3 -108 5 -246 5 -139 0 -252 -3 -252
-7z"/>
<path d="M190 681 c0 -4 11 -6 25 -3 14 2 25 6 25 8 0 2 -11 4 -25 4 -14 0
-25 -4 -25 -9z"/>
<path d="M268 679 c13 -5 28 -7 33 -3 5 3 9 0 9 -5 0 -6 -20 -11 -45 -11 -33
0 -45 -4 -45 -15 0 -10 -10 -15 -30 -15 -23 0 -30 -4 -30 -20 0 -11 -7 -20
-15 -20 -8 0 -15 -7 -15 -15 0 -10 -10 -15 -31 -15 -34 0 -31 16 7 30 13 5 24
16 24 24 0 9 12 22 28 30 l27 15 -27 1 c-18 0 -28 -5 -28 -15 0 -8 -9 -15 -20
-15 -13 0 -20 -7 -20 -20 0 -11 -7 -20 -15 -20 -12 0 -15 -17 -15 -90 l0 -90
28 0 c25 1 25 2 9 14 -18 14 -30 73 -16 82 5 3 9 -11 9 -30 0 -29 4 -36 20
-36 16 0 20 -7 20 -30 0 -27 3 -30 30 -30 23 0 30 -4 30 -20 0 -16 7 -20 30
-20 17 0 30 -5 30 -11 0 -6 -7 -9 -15 -5 -8 3 -15 1 -15 -5 0 -7 39 -10 115
-7 63 1 110 -1 106 -5 -4 -4 -62 -9 -129 -10 -67 -1 -122 -5 -122 -9 0 -5 139
-8 310 -8 171 0 310 3 310 8 0 4 -33 7 -72 6 -40 0 -84 3 -98 7 -16 4 5 7 58
8 66 1 82 4 82 16 0 10 10 15 30 15 21 0 30 5 30 16 0 14 -3 14 -15 4 -12 -10
-15 -10 -15 4 0 11 9 16 30 16 20 0 30 5 30 15 0 10 10 15 31 15 17 0 28 -4
24 -10 -3 -5 -13 -10 -21 -10 -8 0 -14 -7 -14 -15 0 -8 -6 -15 -14 -15 -8 0
-18 -4 -21 -10 -4 -6 7 -10 24 -10 24 0 31 4 31 20 0 11 7 20 15 20 10 0 15
10 15 30 0 17 5 30 11 30 6 0 9 -7 5 -15 -3 -8 -1 -15 4 -15 6 0 10 33 10 75
0 46 -4 75 -11 75 -5 0 -8 -3 -6 -7 2 -5 1 -30 -3 -58 -7 -49 -7 -49 -9 23 -1
57 -4 72 -16 72 -8 0 -15 9 -15 20 0 16 -7 20 -31 20 -17 0 -28 -4 -24 -10 3
-5 13 -10 21 -10 8 0 14 -7 14 -15 0 -7 8 -18 17 -24 13 -7 17 -25 19 -75 1
-37 -2 -69 -7 -72 -5 -3 -9 27 -9 65 0 64 -2 71 -20 71 -11 0 -20 7 -20 15 0
8 -7 15 -15 15 -8 0 -15 9 -15 20 0 16 -7 20 -30 20 -16 0 -30 4 -30 10 0 5
20 7 45 5 25 -2 45 1 45 6 0 5 -42 9 -92 10 -61 0 -86 3 -72 9 11 4 46 7 77 7
32 -1 57 1 57 5 0 5 -134 8 -297 7 -196 0 -290 -3 -275 -10z m399 -28 c-3 -12
1 -18 12 -17 11 1 16 -8 16 -26 l1 -28 -78 0 c-63 0 -78 3 -78 15 0 8 -3 14
-7 14 -5 -1 -29 -1 -55 0 -54 1 -66 20 -15 23 l32 1 -32 4 c-72 9 -27 23 85
26 64 1 119 4 121 5 2 1 1 -6 -2 -17z m-257 -41 l0 -50 155 0 c131 0 155 2
155 15 0 8 7 15 15 15 8 0 15 -7 15 -15 0 -10 10 -15 30 -15 20 0 30 -5 30
-15 0 -13 -16 -15 -97 -14 -54 0 -104 6 -110 11 -9 7 -13 7 -13 -1 0 -7 -30
-11 -90 -11 -49 0 -90 -4 -90 -9 0 -4 12 -7 26 -5 15 1 36 -1 48 -6 16 -7 10
-9 -26 -9 l-48 -1 0 -45 c0 -42 2 -45 26 -45 14 0 22 -4 19 -10 -3 -5 -1 -18
4 -27 9 -16 10 -14 11 10 0 23 4 27 30 27 27 0 30 -3 31 -32 1 -18 3 -25 6
-15 4 13 15 17 58 17 33 0 55 -5 58 -12 3 -7 6 -1 6 15 1 24 -2 27 -34 27 -19
0 -35 -4 -35 -8 0 -5 -9 -8 -20 -7 -37 3 -31 12 12 20 24 4 49 9 57 11 21 4
38 -17 33 -42 -2 -12 1 -25 7 -28 7 -5 11 4 11 23 0 44 30 42 31 -1 1 -18 3
-25 6 -15 6 23 23 22 23 -2 0 -11 5 -21 10 -23 6 -1 -105 -3 -245 -3 -140 0
-251 2 -245 3 6 2 10 10 10 18 0 16 13 17 58 5 25 -8 32 -7 32 5 0 19 -145 21
-154 2 -3 -7 -5 -4 -3 7 2 18 10 20 72 21 83 1 105 -4 105 -22 0 -7 5 -16 10
-19 6 -4 10 7 10 24 0 29 -3 31 -35 31 -35 0 -35 0 -35 45 l0 45 -47 1 c-33 0
-42 3 -29 8 11 4 32 7 48 6 15 -1 28 2 28 7 0 4 -61 8 -136 8 -74 0 -133 4
-130 9 3 4 16 6 30 4 13 -3 27 0 30 6 4 7 41 11 92 11 55 0 84 4 84 11 0 7
-12 10 -30 7 -16 -3 -30 -1 -30 4 0 4 20 8 45 8 45 0 45 0 45 35 0 33 2 35 35
35 l35 0 0 -50z m-90 9 c0 -5 -18 -9 -40 -9 -26 0 -40 5 -40 13 0 9 12 11 40
9 22 -2 40 -8 40 -13z m430 -4 c0 -8 -7 -15 -15 -15 -8 0 -15 7 -15 15 0 8 7
15 15 15 8 0 15 -7 15 -15z m-532 -26 c15 0 21 -3 14 -6 -21 -8 -64 6 -56 19
6 9 9 9 12 0 2 -7 16 -12 30 -13z m597 2 c-3 -6 -11 -11 -16 -11 -5 0 -4 6 3
14 14 16 24 13 13 -3z m-315 -5 c0 -8 -71 -12 -76 -4 -3 4 13 8 35 8 23 0 41
-2 41 -4z m340 -41 c0 -8 -4 -15 -10 -15 -5 0 -10 7 -10 15 0 8 5 15 10 15 6
0 10 -7 10 -15z m47 -11 c-3 -3 -12 -4 -19 -1 -8 3 -5 6 6 6 11 1 17 -2 13 -5z
m-137 -24 c0 -5 -7 -10 -15 -10 -8 0 -15 5 -15 10 0 6 7 10 15 10 8 0 15 -4
15 -10z m117 -12 c-3 -8 -6 -5 -6 6 -1 11 2 17 5 13 3 -3 4 -12 1 -19z m-641
3 c-18 -7 -18 -8 -2 -14 10 -4 36 -8 59 -8 l42 -2 -35 -7 -35 -7 33 -2 c30 -1
47 -20 20 -22 -10 0 -10 -2 0 -6 32 -13 6 -23 -59 -23 -61 0 -70 2 -65 16 5
12 2 15 -10 10 -11 -4 -18 1 -21 14 -6 21 -23 28 -23 9 0 -5 -5 -7 -12 -3 -9
6 -9 9 0 12 7 2 12 11 12 21 0 14 10 17 58 18 33 0 49 -2 38 -6z m338 1 c3 -5
-8 -6 -25 -4 -16 2 -29 6 -29 8 0 8 49 4 54 -4z m96 -27 l0 -35 -64 0 c-40 0
-66 -4 -68 -12 -3 -8 -12 -8 -33 0 l-30 10 33 1 c22 1 32 6 32 17 0 12 7 15
30 12 24 -4 30 -1 30 13 0 12 10 19 33 22 17 2 33 5 35 5 1 1 2 -14 2 -33z
m180 4 c0 -12 5 -16 15 -13 9 4 15 0 15 -10 0 -9 8 -16 18 -16 14 0 15 -2 2
-10 -9 -6 -17 -5 -21 2 -4 6 -40 9 -90 8 -107 -3 -109 -3 -109 15 0 12 13 15
56 15 49 0 56 2 52 18 -4 15 0 17 29 14 24 -3 33 -9 33 -23z m-335 -10 c-4 -6
-13 -8 -19 -6 -7 3 -18 -4 -24 -14 -15 -24 -32 -24 -32 -1 0 26 9 32 47 32 22
0 32 -4 28 -11z m342 -57 c7 -4 -8 -7 -32 -7 -23 0 -41 3 -38 8 6 9 54 9 70
-1z m-687 -12 c0 -5 -2 -10 -4 -10 -3 0 -8 5 -11 10 -3 6 -1 10 4 10 6 0 11
-4 11 -10z m620 -36 c0 -8 -4 -12 -10 -9 -5 3 -10 10 -10 16 0 5 5 9 10 9 6 0
10 -7 10 -16z m-250 -44 c0 -5 -7 -10 -15 -10 -8 0 -15 5 -15 10 0 6 7 10 15
10 8 0 15 -4 15 -10z m65 -10 c18 -8 17 -9 -7 -9 -15 -1 -30 4 -33 9 -7 12 12
12 40 0z"/>
<path d="M365 640 c-3 -5 1 -10 10 -10 9 0 13 5 10 10 -3 6 -8 10 -10 10 -2 0
-7 -4 -10 -10z"/>
<path d="M370 600 c0 -5 5 -10 10 -10 6 0 10 5 10 10 0 6 -4 10 -10 10 -5 0
-10 -4 -10 -10z"/>
<path d="M325 570 c-3 -5 -1 -10 4 -10 6 0 11 5 11 10 0 6 -2 10 -4 10 -3 0
-8 -4 -11 -10z"/>
<path d="M365 490 c3 -5 12 -7 20 -3 21 7 19 13 -6 13 -11 0 -18 -4 -14 -10z"/>
<path d="M363 459 c14 -8 22 -8 30 0 8 8 3 11 -18 11 -26 -1 -28 -2 -12 -11z"/>
<path d="M363 429 c14 -8 22 -8 30 0 8 8 3 11 -18 11 -26 -1 -28 -2 -12 -11z"/>
<path d="M421 393 c0 -5 4 -17 9 -28 8 -18 9 -17 9 8 1 15 -3 27 -9 27 -5 0
-10 -3 -9 -7z"/>
<path d="M490 373 c0 -10 4 -14 8 -8 4 6 11 13 16 18 5 4 2 7 -7 7 -10 0 -17
-8 -17 -17z"/>
<path d="M590 359 c0 -5 5 -7 10 -4 6 3 10 8 10 11 0 2 -4 4 -10 4 -5 0 -10
-5 -10 -11z"/>
<path d="M248 433 c6 -2 18 -2 25 0 6 3 1 5 -13 5 -14 0 -19 -2 -12 -5z"/>
<path d="M610 480 c-12 -8 -9 -10 13 -10 16 0 26 4 22 10 -8 12 -16 12 -35 0z"/>
<path d="M808 473 c7 -3 16 -2 19 1 4 3 -2 6 -13 5 -11 0 -14 -3 -6 -6z"/>
<path d="M190 649 c0 -5 5 -7 10 -4 6 3 10 8 10 11 0 2 -4 4 -10 4 -5 0 -10
-5 -10 -11z"/>
<path d="M30 485 c0 -25 4 -45 8 -45 4 0 8 20 8 45 1 25 -3 45 -7 45 -5 0 -9
-20 -9 -45z"/>
<path d="M60 390 c0 -5 5 -10 11 -10 5 0 7 5 4 10 -3 6 -8 10 -11 10 -2 0 -4
-4 -4 -10z"/>
<path d="M90 370 c0 -28 3 -30 35 -30 24 0 35 -5 35 -15 0 -10 9 -15 28 -14
23 0 24 1 7 8 -11 5 -20 14 -20 22 0 8 -12 14 -33 15 -35 1 -55 14 -34 21 13
5 7 23 -9 23 -5 0 -9 -13 -9 -30z"/>
<path d="M813 319 c-12 -5 -6 -8 20 -8 20 -1 37 3 37 7 0 10 -33 10 -57 1z"/>
<path d="M280 258 c0 -5 99 -8 220 -8 121 0 220 3 220 8 0 4 -99 7 -220 7
-121 0 -220 -3 -220 -7z"/>
<path d="M490 230 c-24 -8 -23 -8 8 -9 17 -1 32 4 32 9 0 11 -5 11 -40 0z"/>
<path d="M0 180 c0 -7 173 -10 500 -10 327 0 500 3 500 10 0 7 -173 10 -500
10 -327 0 -500 -3 -500 -10z"/>
</g>
</svg>
