<?xml version="1.0" standalone="no"?>
<!DOCTYPE svg PUBLIC "-//W3C//DTD SVG 20010904//EN"
 "http://www.w3.org/TR/2001/REC-SVG-20010904/DTD/svg10.dtd">
<svg version="1.0" xmlns="http://www.w3.org/2000/svg"
 width="256.000000pt" height="256.000000pt" viewBox="0 0 256.000000 256.000000"
 preserveAspectRatio="xMidYMid meet">
<metadata>
Created by potrace 1.16, written by Peter Selinger 2001-2019
</metadata>
<g transform="translate(0.000000,256.000000) scale(0.100000,-0.100000)"
fill="#000000" stroke="none">
<path d="M1010 1984 c-341 -40 -641 -152 -834 -310 -101 -83 -177 -201 -175
-271 1 -33 2 -35 8 -13 70 227 344 423 726 519 203 50 257 56 545 56 288 0
342 -6 545 -56 383 -97 656 -292 726 -519 6 -22 7 -20 8 13 2 70 -74 188 -175
271 -133 110 -317 198 -524 251 -196 51 -256 57 -540 60 -151 2 -291 1 -310
-1z"/>
<path d="M1045 1943 c-384 -47 -667 -160 -857 -341 -60 -57 -87 -93 -116 -151
-35 -71 -37 -80 -37 -175 0 -90 3 -108 28 -161 76 -163 232 -293 468 -390 46
-19 78 -35 71 -35 -35 0 -245 101 -335 162 -118 79 -226 212 -257 317 -8 24
-8 23 -9 -13 -2 -83 111 -233 245 -324 104 -70 243 -135 364 -171 41 -12 82
-26 91 -31 21 -11 169 -33 177 -26 3 3 -5 6 -17 6 -12 0 -20 4 -16 10 7 11 44
-1 42 -15 -1 -12 43 -22 93 -23 l35 0 -30 14 -30 14 40 -7 c22 -4 51 -7 65 -6
l25 1 -25 -14 -25 -13 33 -1 c18 0 31 3 29 8 -3 4 78 7 179 7 101 0 184 -3
184 -7 0 -5 14 -8 31 -8 16 0 28 4 25 9 -8 12 66 29 89 20 11 -4 31 -7 45 -7
16 0 19 2 8 5 -10 2 -18 8 -18 13 0 5 13 4 30 -1 16 -6 37 -9 47 -6 14 4 13 5
-5 6 -13 0 -21 5 -17 11 4 6 15 6 32 -1 37 -14 90 -1 96 23 4 12 10 17 17 13
9 -6 9 -10 -1 -16 -11 -7 -11 -9 1 -8 8 1 26 5 40 9 25 8 25 8 2 9 -13 1 -20
5 -17 11 4 6 10 8 15 5 5 -3 11 -1 15 5 4 6 10 8 15 5 5 -3 11 -1 15 5 4 6 10
8 15 5 5 -3 11 -1 15 5 4 6 12 6 24 -2 20 -12 71 -3 71 13 0 6 -4 8 -9 4 -5
-3 -12 -1 -16 5 -3 5 -1 11 4 11 21 3 26 4 38 12 9 6 11 3 7 -7 -3 -9 -1 -16
4 -16 19 0 62 23 62 32 0 5 -4 7 -9 3 -5 -3 -13 0 -17 6 -4 7 -3 9 4 5 5 -3
13 0 15 6 4 10 6 10 6 1 4 -57 261 111 343 223 53 73 78 129 77 171 -1 33 -2
35 -8 13 -40 -131 -155 -259 -320 -357 -103 -62 -100 -53 4 15 335 218 399
508 167 753 -174 186 -475 312 -852 359 -78 9 -435 12 -505 3z m575 -27 l75
-14 -75 4 -75 4 80 -15 c203 -38 413 -108 533 -177 61 -34 180 -123 199 -147
10 -14 11 -13 6 6 -7 28 -74 83 -176 145 -44 26 -76 48 -71 48 6 0 48 -23 94
-52 115 -70 227 -183 271 -273 32 -65 34 -76 34 -170 0 -91 -3 -106 -31 -166
-77 -162 -300 -326 -557 -410 -531 -173 -1215 -106 -1609 158 -88 59 -189 167
-230 246 -31 59 -33 68 -33 167 0 100 2 109 34 175 119 242 497 430 977 485
106 12 461 3 554 -14z m113 -23 c-7 -2 -19 -2 -25 0 -7 3 -2 5 12 5 14 0 19
-2 13 -5z m44 -9 c-3 -3 -12 -4 -19 -1 -8 3 -5 6 6 6 11 1 17 -2 13 -5z m109
-25 c79 -24 217 -80 211 -85 -2 -2 -35 10 -73 26 -38 16 -107 40 -154 54 -47
14 -78 25 -69 25 9 1 48 -8 85 -20z m124 -1153 c0 -3 -4 -8 -10 -11 -5 -3 -10
-1 -10 4 0 6 5 11 10 11 6 0 10 -2 10 -4z m-1355 -26 c13 -6 15 -9 5 -9 -8 0
-22 4 -30 9 -18 12 -2 12 25 0z m1150 -40 c3 -5 -1 -10 -10 -10 -9 0 -13 5
-10 10 3 6 8 10 10 10 2 0 7 -4 10 -10z m-998 -6 c-3 -3 -12 -4 -19 -1 -8 3
-5 6 6 6 11 1 17 -2 13 -5z m958 -4 c3 -5 -1 -10 -10 -10 -9 0 -13 5 -10 10 3
6 8 10 10 10 2 0 7 -4 10 -10z"/>
<path d="M1483 1913 c9 -2 25 -2 35 0 9 3 1 5 -18 5 -19 0 -27 -2 -17 -5z"/>
<path d="M1145 1903 c-33 -1 -89 -7 -125 -13 -36 -5 -78 -12 -95 -14 -59 -9
-101 -18 -136 -31 -20 -8 -39 -11 -43 -8 -3 4 -6 1 -6 -6 0 -12 46 -5 66 10 6
5 13 7 15 5 2 -3 33 2 69 9 156 34 494 39 693 11 187 -27 386 -85 516 -151 28
-14 51 -23 51 -20 0 9 -132 72 -208 99 -226 81 -520 121 -797 109z"/>
<path d="M1135 1859 c-459 -26 -844 -205 -957 -445 -51 -109 -36 -222 46 -341
105 -154 383 -296 693 -355 102 -20 151 -23 363 -23 268 0 346 10 550 66 203
57 449 201 522 306 121 177 80 379 -108 526 -175 138 -495 244 -788 262 -50 3
-113 7 -141 9 -27 1 -108 -1 -180 -5z m270 -14 c-5 -2 -86 -6 -180 -9 -557
-16 -988 -233 -1035 -521 -5 -31 -7 -62 -3 -70 3 -8 0 -15 -7 -15 -9 0 -11 17
-8 63 18 215 264 411 632 501 87 22 156 33 291 49 39 5 323 6 310 2z m70 -29
c107 -6 240 -30 305 -54 8 -3 23 -4 33 -3 9 1 17 -3 17 -9 0 -6 4 -9 9 -6 12
8 41 -4 41 -16 0 -5 -9 -7 -19 -3 -17 5 -19 2 -17 -22 2 -15 5 -30 6 -33 1 -3
3 -12 4 -20 0 -8 7 -14 14 -12 6 1 12 -2 12 -8 0 -5 -6 -10 -12 -11 -10 0 -10
-2 0 -6 13 -5 17 -33 4 -33 -9 0 -9 -56 0 -66 4 -4 3 -16 -3 -27 -9 -16 -18
-19 -55 -14 -24 2 -44 0 -44 -5 0 -11 -177 -9 -265 2 -33 5 -89 11 -124 15
-69 6 -196 22 -248 31 -63 10 -110 74 -133 179 -1 6 -5 15 -10 20 -4 6 -11 27
-15 48 -8 40 5 50 25 20 10 -16 11 -16 6 -1 -4 13 3 18 32 21 61 8 83 7 76 -5
-4 -6 -3 -8 3 -5 5 3 21 0 36 -8 15 -8 27 -11 27 -7 0 4 4 1 9 -7 6 -9 11 -10
15 -2 6 10 -6 15 -26 12 -5 0 -8 4 -8 9 0 6 -9 10 -20 10 -11 0 -20 4 -20 9 0
16 141 19 345 7z m-517 -99 c15 -102 38 -174 65 -205 24 -26 104 -52 156 -51
31 1 28 3 -24 15 -97 23 -105 26 -105 33 0 4 -8 16 -18 27 -20 21 -53 107 -51
133 0 9 8 -4 17 -29 35 -93 66 -123 147 -144 16 -4 210 -27 503 -60 47 -5 243
18 269 32 13 7 30 33 40 62 10 28 21 50 25 50 3 0 12 -17 19 -37 24 -75 30
-79 149 -98 61 -10 110 -21 110 -25 0 -4 -43 -13 -96 -21 -59 -8 -105 -20
-118 -30 -13 -10 -31 -44 -41 -78 -10 -34 -21 -61 -25 -61 -4 0 -12 25 -19 55
-7 30 -20 64 -29 75 -28 34 -143 50 -312 45 -196 -6 -519 -31 -551 -44 -15 -5
-36 -21 -47 -36 -21 -27 -58 -165 -49 -188 6 -17 -28 -183 -36 -170 -3 5 -16
52 -27 104 -40 181 -65 236 -120 259 -16 7 -80 20 -142 30 -62 10 -97 18 -78
19 54 1 211 -25 251 -41 31 -14 38 -24 57 -79 22 -67 31 -56 10 13 -24 82 -99
110 -303 113 -66 1 -120 3 -120 5 0 3 -52 9 -143 16 -45 4 -82 9 -82 13 0 3
116 22 258 42 305 43 327 51 365 131 14 29 36 88 49 130 12 43 25 78 28 78 4
0 11 -38 18 -83z m-48 59 c0 -2 -6 -19 -14 -37 -15 -36 -16 -40 -16 -64 0 -11
-8 -13 -30 -9 -35 7 -121 -12 -132 -29 -14 -22 -8 -27 12 -9 11 9 37 18 58 19
20 1 37 2 37 3 0 1 8 3 17 5 23 4 33 -12 19 -29 -6 -7 -8 -16 -4 -19 3 -4 1
-7 -5 -7 -7 0 -11 -3 -11 -7 3 -20 -2 -34 -11 -28 -5 3 -10 2 -10 -4 0 -15
-85 -50 -138 -56 -26 -3 -69 -9 -97 -15 -27 -5 -81 -12 -120 -16 -101 -9 -136
-14 -173 -20 l-34 -7 24 25 c12 13 27 22 32 20 5 -3 6 0 2 7 -4 7 2 20 16 31
24 20 43 26 33 11 -3 -5 -1 -12 4 -15 5 -4 8 2 6 11 -4 26 25 56 40 43 10 -8
13 -6 11 6 -1 20 178 118 201 110 8 -3 12 -2 9 3 -7 11 52 23 67 14 6 -3 7 -1
3 5 -4 7 13 17 46 27 34 10 54 12 56 5 5 -14 23 -13 20 2 -2 6 8 15 22 19 28
8 60 11 60 5z m1047 -68 c34 -7 81 -33 76 -41 -4 -6 0 -8 11 -4 11 5 15 3 10
-5 -5 -8 -1 -9 11 -4 18 7 18 6 0 -14 -10 -11 -13 -20 -7 -20 6 0 14 5 17 10
9 14 46 2 66 -21 9 -11 21 -19 26 -19 27 0 168 -173 157 -192 -3 -4 -1 -8 4
-8 6 0 15 -14 21 -31 14 -39 14 -50 0 -26 -17 29 -41 21 -48 -18 -2 -5 -9 -14
-17 -18 -10 -6 -13 -16 -8 -29 4 -14 2 -18 -5 -14 -6 4 -11 1 -11 -7 0 -9 -9
-12 -30 -9 -28 4 -45 21 -76 77 -6 11 -22 20 -36 21 -21 1 -28 -6 -39 -38 -11
-35 -41 -68 -60 -68 -10 0 22 93 38 112 13 15 32 20 128 34 65 9 81 15 92 33
18 29 -1 39 -103 56 -123 22 -119 19 -144 80 -19 48 -26 55 -50 55 -23 0 -29
-6 -38 -38 -11 -36 -50 -94 -53 -79 -1 4 -2 10 -3 15 -1 4 -4 12 -7 17 -7 11
-5 24 9 70 5 17 6 39 2 50 -4 11 -5 26 -2 34 3 8 1 12 -4 8 -6 -3 -16 -2 -22
2 -8 5 2 8 24 9 26 1 48 -6 71 -24 18 -14 33 -22 33 -18 0 3 8 -4 18 -16 16
-20 20 -21 25 -7 4 12 2 14 -10 10 -13 -5 -15 -2 -10 11 5 11 3 15 -5 10 -8
-5 -9 -1 -4 12 5 14 4 16 -4 7 -9 -8 -21 -5 -47 13 -20 13 -39 21 -44 18 -5
-3 -9 -3 -9 0 0 2 -3 12 -6 21 -6 16 -5 16 24 1 18 -9 35 -17 39 -18z m358
-215 c62 -81 79 -129 80 -218 0 -110 -30 -174 -128 -269 -60 -58 -137 -117
-137 -104 0 2 28 25 63 52 131 103 187 200 187 324 0 86 -38 169 -112 249 -41
44 -46 52 -20 34 18 -12 48 -43 67 -68z m-2000 -107 c89 -10 279 -35 346 -45
88 -15 128 -27 152 -48 19 -17 42 -61 39 -75 -1 -3 5 -29 13 -57 9 -27 15 -53
14 -58 -1 -4 1 -15 4 -23 3 -8 11 -41 17 -72 8 -38 16 -58 26 -58 8 0 14 -8
14 -18 0 -23 48 -39 146 -48 82 -8 106 -22 108 -63 1 -16 5 -27 9 -24 5 3 7
-1 6 -8 -2 -8 3 -25 10 -37 l13 -24 -116 4 c-64 1 -116 6 -116 11 0 4 -12 7
-27 7 -16 0 -75 11 -133 24 -58 13 -108 22 -112 19 -5 -2 -8 0 -8 5 0 5 -19
14 -42 21 -24 7 -55 20 -70 28 -16 8 -28 12 -28 9 0 -8 -52 16 -113 54 -32 19
-55 39 -53 45 2 5 9 9 15 7 7 -1 10 2 6 8 -3 5 -1 10 4 10 6 0 11 -9 11 -20 0
-13 6 -20 18 -19 10 0 12 3 5 6 -21 8 -15 22 7 18 12 -2 18 0 15 6 -4 5 -11 7
-16 4 -5 -4 -9 -1 -9 6 0 7 -3 10 -6 6 -3 -3 -16 -2 -29 3 -18 7 -22 5 -21 -8
0 -9 -7 -18 -17 -20 -23 -5 -91 63 -80 80 6 10 8 9 11 -3 1 -9 19 -21 38 -27
27 -8 34 -8 31 1 -3 7 -10 11 -16 10 -6 -2 -11 2 -11 8 0 5 -4 8 -9 4 -5 -3
-12 -1 -15 4 -12 19 11 20 40 2 31 -18 64 -33 64 -27 0 1 -38 26 -85 55 -60
37 -85 58 -85 71 0 11 5 20 10 20 6 0 10 -4 10 -9 0 -5 9 -11 20 -14 38 -10
19 8 -36 35 -31 14 -51 21 -45 15 6 -6 11 -15 11 -19 0 -11 -36 24 -37 37 -1
6 -4 23 -6 38 -5 37 9 125 23 142 6 8 17 12 23 10 7 -2 35 -6 62 -9z m1480
-11 c39 -4 80 -12 93 -16 23 -9 44 -48 57 -106 l7 -33 -54 0 c-80 0 -191 19
-206 34 -14 13 -8 58 6 53 4 -1 8 2 9 6 1 5 12 17 24 28 12 10 20 21 17 24 -3
3 -21 -12 -41 -34 -20 -22 -38 -37 -40 -33 -11 20 -16 42 -9 38 5 -3 16 4 25
15 18 20 9 27 -10 8 -7 -7 -17 -8 -29 -1 -31 15 -77 3 -105 -28 -14 -16 -29
-27 -33 -23 -3 3 -6 -2 -6 -13 0 -15 7 -12 35 19 34 36 55 47 55 27 0 -5 -8
-14 -17 -19 -10 -6 -13 -11 -6 -11 16 0 5 -35 -17 -55 -11 -10 -61 -23 -126
-34 -99 -16 -109 -19 -114 -41 -6 -26 -49 -43 -71 -29 -11 7 -9 9 6 9 20 1 68
30 49 30 -6 0 -14 -3 -18 -7 -4 -5 -11 -8 -14 -9 -35 -6 -72 -18 -72 -23 0 -4
-10 -8 -22 -8 -13 -1 -24 -7 -26 -12 -2 -5 -10 -7 -19 -4 -12 5 -14 3 -8 -7 6
-10 4 -11 -6 -4 -26 16 -39 14 -27 -5 7 -11 19 -16 33 -13 13 2 26 -1 29 -7 4
-6 15 -11 24 -10 11 0 9 4 -8 11 -15 6 -20 12 -12 15 6 3 9 10 5 16 -4 7 1 6
10 -2 12 -10 21 -10 30 -3 17 14 39 0 31 -21 -3 -9 -18 -20 -32 -26 -26 -9
-26 -9 -4 -10 14 -1 20 -5 17 -12 -4 -6 -13 -8 -21 -5 -8 3 -14 1 -14 -4 0 -6
6 -10 12 -10 7 0 4 -8 -7 -19 -14 -14 -44 -22 -105 -29 -46 -6 -89 -8 -94 -5
-18 11 41 32 98 34 31 1 65 9 74 16 15 13 15 13 -3 5 -11 -5 -47 -10 -80 -11
-33 -2 -66 -7 -72 -13 -9 -7 -13 -7 -13 0 0 6 10 18 23 28 15 11 16 15 5 11
-10 -4 -18 -2 -18 3 0 6 19 11 43 12 l42 1 -37 4 c-23 3 -38 10 -38 17 0 18
27 39 39 32 5 -4 13 -1 17 5 4 7 3 9 -3 6 -6 -4 -18 -1 -27 6 -15 11 -15 17
-5 42 7 17 13 37 14 45 5 40 42 89 79 103 15 6 122 21 231 32 28 3 64 7 80 10
17 2 71 7 120 11 50 3 91 7 92 8 4 3 90 -1 158 -9z m-458 -1 c-3 -3 -12 -4
-19 -1 -8 3 -5 6 6 6 11 1 17 -2 13 -5z m-77 -11 c-158 -24 -162 -26 -196 -55
-24 -21 -40 -49 -56 -99 -30 -93 -36 -80 -7 18 32 111 28 108 174 137 11 2 40
4 65 3 25 0 34 -1 20 -4z m370 -35 c0 -7 11 -35 24 -61 17 -35 20 -47 9 -43
-8 4 -11 1 -8 -5 4 -6 14 -8 22 -5 8 4 57 -1 109 -10 80 -14 108 -14 177 -4
99 14 122 28 138 80 7 22 15 40 19 40 4 0 16 -22 27 -48 22 -52 25 -53 166
-78 54 -9 45 -20 -23 -27 -33 -4 -75 -13 -94 -21 -30 -13 -37 -23 -51 -71 -9
-31 -19 -54 -23 -51 -3 3 -13 29 -24 58 -10 28 -23 55 -29 59 -6 3 -50 12 -97
19 -74 10 -102 9 -184 -4 -53 -9 -103 -14 -110 -13 -7 2 -9 2 -5 -1 4 -2 3 -9
-2 -16 -5 -6 -19 -43 -29 -81 -11 -39 -22 -63 -25 -55 -3 8 -13 40 -21 71 -9
31 -22 62 -30 68 -16 13 -152 41 -202 41 -71 0 -30 17 76 32 60 8 116 21 124
27 8 7 22 35 31 62 15 45 35 66 35 37z m727 -73 c2 -27 -1 -45 -7 -45 -5 0
-10 5 -10 11 0 5 -5 7 -11 4 -5 -4 -22 -4 -37 0 -20 5 -23 8 -11 16 7 5 19 9
24 9 6 0 3 -5 -5 -10 -9 -6 -10 -10 -3 -10 6 0 15 5 18 10 4 6 10 8 15 5 5 -3
11 -1 14 4 4 5 2 12 -3 15 -5 3 -7 16 -4 29 3 12 3 19 0 16 -4 -3 -9 -16 -11
-30 -7 -36 -7 -36 -15 -9 -9 30 -3 52 12 43 7 -4 8 1 4 13 -5 15 -3 14 10 -4
9 -12 18 -43 20 -67z m-63 19 c3 -8 2 -12 -4 -9 -6 3 -10 10 -10 16 0 14 7 11
14 -7z m-2069 -122 c14 -7 27 -7 34 -1 8 6 8 5 1 -3 -7 -9 0 -21 27 -45 20
-18 40 -33 45 -33 4 0 8 -4 8 -9 0 -5 -11 -8 -25 -5 -27 5 -57 30 -74 63 -6
11 -17 18 -25 15 -9 -3 -18 6 -25 27 -14 40 -13 63 2 27 5 -14 20 -31 32 -36z
m1000 -13 c-4 -6 -10 -8 -13 -5 -3 3 -11 1 -18 -5 -8 -7 -14 -6 -20 2 -4 7 -3
9 4 5 6 -3 13 -2 17 4 3 5 13 10 21 10 8 0 12 -5 9 -11z m205 0 c31 -2 105
-22 117 -32 7 -5 18 -28 24 -51 5 -22 12 -48 15 -57 7 -25 -29 -30 -140 -17
-74 8 -104 16 -118 30 -23 23 -19 43 8 44 20 0 84 31 84 40 0 2 -12 -2 -27 -9
-51 -26 -91 -29 -103 -7 -14 26 -13 30 8 30 14 0 15 -2 2 -10 -8 -5 -10 -10
-4 -10 6 0 14 3 18 8 4 4 11 7 14 8 39 4 81 18 77 25 -3 4 -18 4 -32 -2 -15
-5 -32 -8 -40 -5 -7 3 -13 1 -13 -5 0 -6 -6 -6 -18 0 -13 7 -22 7 -30 -1 -13
-13 -46 -2 -37 12 4 6 10 8 15 5 4 -3 19 -1 32 5 12 5 48 7 78 5 30 -3 62 -6
70 -6z m609 -18 c19 -10 51 -69 51 -92 0 -14 -30 -10 -31 4 0 8 -2 8 -6 -2 -5
-11 -7 -11 -14 0 -6 10 -9 8 -9 -8 0 -13 -5 -23 -11 -23 -5 0 -7 -6 -3 -12 5
-8 0 -7 -11 2 -13 11 -16 11 -11 2 7 -11 -3 -12 -50 -7 -78 10 -92 19 -115 71
-16 35 -25 44 -45 44 -15 0 -27 -7 -30 -17 -17 -55 -35 -85 -50 -79 -8 3 -12
2 -9 -4 3 -6 -5 -10 -18 -10 l-25 0 14 47 c20 65 39 82 109 92 75 12 236 7
264 -8z m281 13 c0 -30 -124 -152 -212 -208 -26 -17 -27 -17 -30 11 -2 20 -9
29 -25 31 -25 4 -31 27 -10 35 6 2 32 2 55 0 34 -3 47 0 57 14 7 10 11 21 9
25 -2 4 0 9 6 13 6 4 8 11 5 16 -4 5 -1 9 5 9 6 0 8 5 5 10 -3 6 3 10 14 10
12 0 21 4 21 10 0 5 -8 7 -17 3 -10 -3 -15 -3 -11 1 4 5 23 10 44 12 20 2 39
6 42 9 7 7 42 6 42 -1z m-1038 -95 c22 -50 24 -60 10 -54 -9 3 -13 3 -9 -2 5
-4 21 -8 35 -9 15 -1 61 -7 102 -14 84 -14 224 -8 286 12 32 11 41 20 54 55 8
23 18 45 22 48 8 8 50 -84 43 -95 -3 -5 0 -12 6 -16 8 -5 9 -3 4 6 -5 8 -2 11
11 7 11 -3 63 -11 117 -18 53 -6 99 -15 102 -19 5 -9 -131 -25 -185 -22 -22 1
-30 -2 -22 -7 11 -6 9 -9 -6 -13 -13 -4 -27 -23 -39 -57 -10 -28 -21 -51 -25
-51 -4 0 -13 18 -19 40 -7 22 -20 47 -29 55 -40 36 -248 45 -378 15 -57 -13
-68 -25 -87 -99 -10 -41 -35 -69 -35 -41 0 7 -7 36 -15 64 -18 63 -33 72 -143
87 -156 21 -158 30 -10 48 53 6 104 14 113 17 17 7 55 83 55 110 0 30 16 12
42 -47z m-1012 6 c14 -19 14 -19 -2 -6 -10 7 -18 18 -18 24 0 6 1 8 3 6 1 -2
9 -13 17 -24z m1800 -140 c0 -11 -103 -56 -117 -51 -8 3 -12 2 -9 -2 3 -5 -21
-18 -53 -29 l-58 -21 5 23 c9 47 26 54 225 84 4 0 7 -1 7 -4z m-408 -21 c50
-6 69 -22 86 -71 12 -37 14 -35 -83 -53 -33 -5 -71 -13 -85 -15 -14 -3 -80 -8
-148 -11 -67 -2 -126 -5 -130 -7 -8 -2 -12 7 -12 26 0 13 48 16 67 4 7 -5 16
0 22 12 15 27 14 29 -14 23 -14 -2 -33 2 -42 9 -12 10 -14 10 -9 2 4 -7 2 -13
-3 -13 -14 0 -14 6 4 39 8 16 22 31 30 35 31 12 63 6 68 -11 4 -14 5 -12 6 5
1 23 30 32 32 10 0 -10 2 -10 6 0 4 10 8 10 21 0 14 -11 15 -10 9 6 -6 16 -5
17 8 6 9 -7 18 -10 22 -6 3 3 1 6 -5 6 -7 0 -12 5 -12 11 0 11 18 10 162 -7z"/>
<path d="M1226 1798 c3 -5 10 -6 15 -3 13 9 11 12 -6 12 -8 0 -12 -4 -9 -9z"/>
<path d="M1350 1803 c0 -7 5 -13 11 -13 5 0 7 -5 3 -12 -4 -6 -3 -8 3 -5 6 4
13 0 17 -8 3 -8 12 -15 20 -15 8 0 17 -6 19 -12 4 -10 6 -10 6 0 1 7 -7 16
-16 19 -9 4 -27 18 -40 32 -12 14 -23 20 -23 14z"/>
<path d="M1256 1791 c-10 -15 18 -29 39 -20 17 6 17 8 3 8 -10 1 -18 6 -18 11
0 12 -17 13 -24 1z"/>
<path d="M1447 1780 c3 -10 11 -24 19 -31 10 -8 10 -3 -2 20 -18 35 -24 40
-17 11z"/>
<path d="M1516 1792 c-3 -6 -1 -14 6 -19 7 -4 27 -28 43 -53 17 -25 36 -51 43
-58 11 -13 16 -27 13 -44 0 -5 4 -8 9 -8 15 0 12 11 -13 51 -12 20 -31 50 -42
68 -35 57 -51 75 -59 63z"/>
<path d="M1046 1774 c-5 -14 -4 -15 8 -5 10 8 16 9 19 1 3 -6 4 -5 3 2 -4 19
-23 20 -30 2z"/>
<path d="M1476 1778 c3 -5 10 -6 15 -3 13 9 11 12 -6 12 -8 0 -12 -4 -9 -9z"/>
<path d="M1628 1783 c0 -5 -1 -15 -2 -23 -1 -8 -10 -16 -21 -18 -11 -2 -16 0
-10 5 15 12 16 30 1 30 -19 0 -12 -41 7 -45 9 -2 17 -9 17 -15 0 -6 7 -1 16
11 8 12 23 22 32 22 13 0 14 -2 4 -8 -10 -7 -8 -14 7 -34 11 -14 17 -29 13
-33 -4 -5 -1 -4 7 0 11 6 13 4 8 -8 -3 -8 0 -21 8 -27 8 -6 12 -17 9 -25 -3
-7 0 -16 5 -20 6 -3 9 -11 5 -16 -3 -5 -2 -8 3 -7 4 2 8 -2 8 -7 0 -5 -3 -9
-6 -8 -3 1 -5 -13 -4 -30 1 -18 -2 -37 -7 -44 -7 -9 -4 -9 16 0 22 10 29 23
28 47 -1 28 -12 74 -19 79 -4 3 -18 27 -30 54 -13 26 -27 47 -33 47 -6 0 -6 9
0 26 12 31 12 37 1 30 -5 -4 -12 0 -14 6 -4 10 -6 10 -6 1 -1 -7 -6 -13 -12
-13 -5 0 -7 6 -3 13 5 7 0 6 -11 -3 -17 -14 -18 -13 -12 3 3 9 4 17 2 17 -3 0
-6 -3 -7 -7z m22 -27 c0 -2 -8 -10 -17 -17 -16 -13 -17 -12 -4 4 13 16 21 21
21 13z m101 -163 c13 -16 12 -17 -3 -4 -10 7 -18 15 -18 17 0 8 8 3 21 -13z
m9 -68 c0 -14 -4 -25 -8 -25 -7 0 -8 31 -3 48 4 11 11 -3 11 -23z"/>
<path d="M1090 1771 c0 -6 4 -12 8 -15 5 -3 9 1 9 9 0 8 -4 15 -9 15 -4 0 -8
-4 -8 -9z"/>
<path d="M1124 1759 c3 -15 36 -21 36 -7 0 6 -6 8 -14 5 -8 -3 -17 -2 -20 4
-2 5 -3 4 -2 -2z"/>
<path d="M1216 1762 c-2 -4 4 -8 14 -8 10 0 16 4 14 8 -3 4 -9 8 -14 8 -5 0
-11 -4 -14 -8z"/>
<path d="M1310 1753 c8 -3 20 -10 27 -15 7 -6 14 -5 19 3 4 8 3 9 -4 5 -7 -4
-12 -2 -12 3 0 6 -10 11 -22 10 -15 0 -18 -2 -8 -6z"/>
<path d="M1265 1740 c3 -5 8 -10 11 -10 2 0 4 5 4 10 0 6 -5 10 -11 10 -5 0
-7 -4 -4 -10z"/>
<path d="M1754 1743 c-15 -5 -4 -64 13 -70 12 -5 12 -7 1 -14 -10 -7 -9 -9 5
-9 19 0 21 29 3 42 -11 7 -18 40 -8 34 4 -2 16 0 27 4 18 6 17 7 -6 12 -13 2
-29 3 -35 1z"/>
<path d="M1209 1728 c7 -10 17 -15 23 -12 5 3 20 -2 33 -10 14 -9 25 -13 25
-8 0 11 -51 35 -58 27 -3 -2 -12 1 -21 8 -14 11 -14 10 -2 -5z"/>
<path d="M1366 1731 c-4 -5 -2 -12 3 -15 5 -4 12 -2 15 3 4 5 2 12 -3 15 -5 4
-12 2 -15 -3z"/>
<path d="M1490 1730 c0 -5 5 -10 11 -10 5 0 7 5 4 10 -3 6 -8 10 -11 10 -2 0
-4 -4 -4 -10z"/>
<path d="M1436 1722 c-3 -4 4 -9 15 -9 23 -2 25 3 4 10 -8 4 -16 3 -19 -1z"/>
<path d="M1341 1699 c13 -12 33 -29 45 -38 11 -9 25 -25 32 -36 7 -12 12 -14
12 -6 0 14 -89 101 -104 101 -5 0 2 -9 15 -21z"/>
<path d="M1395 1709 c-5 -7 -4 -10 2 -6 13 8 36 -17 25 -28 -4 -5 -2 -5 5 -1
8 4 15 -2 19 -18 3 -14 12 -30 19 -36 26 -22 -8 49 -36 76 -20 19 -29 22 -34
13z"/>
<path d="M1515 1700 c3 -5 8 -10 11 -10 2 0 4 5 4 10 0 6 -5 10 -11 10 -5 0
-7 -4 -4 -10z"/>
<path d="M1487 1676 c10 -13 19 -23 21 -21 5 5 -22 45 -31 45 -4 0 0 -11 10
-24z"/>
<path d="M1632 1691 c2 -7 7 -12 11 -12 12 1 9 15 -3 20 -7 2 -11 -2 -8 -8z"/>
<path d="M1147 1684 c-3 -3 -3 -13 1 -22 5 -15 4 -16 -13 -2 -11 9 -16 10 -11
3 4 -7 16 -18 28 -24 18 -10 19 -8 13 11 -6 17 -4 21 6 14 12 -6 12 -5 0 9
-15 19 -15 19 -24 11z"/>
<path d="M1060 1675 c-1 -5 -3 -14 -5 -20 -1 -5 -3 -14 -4 -20 -1 -5 -6 -3
-11 5 -5 8 -10 11 -10 5 0 -5 4 -16 9 -24 7 -11 11 -9 21 8 6 12 9 30 7 39 -3
9 -6 13 -7 7z"/>
<path d="M1247 1669 c7 -7 15 -10 18 -7 3 3 -2 9 -12 12 -14 6 -15 5 -6 -5z"/>
<path d="M1546 1661 c-4 -6 -2 -11 4 -11 6 0 8 -4 5 -10 -3 -5 -1 -10 4 -10
13 0 14 10 2 29 -6 9 -11 10 -15 2z"/>
<path d="M1660 1662 c0 -8 -5 -10 -12 -6 -10 6 -10 5 -1 -8 7 -8 10 -18 6 -22
-4 -4 1 -4 11 0 15 6 17 4 10 -7 -5 -8 -9 -17 -9 -21 0 -12 -15 -22 -15 -10 0
7 -5 12 -11 12 -8 0 -8 -4 0 -14 8 -9 8 -21 2 -39 -10 -25 -6 -37 11 -37 5 0
8 6 7 13 -1 6 -1 23 0 37 1 18 4 21 13 12 16 -16 20 -65 5 -55 -7 4 -6 0 2
-10 9 -12 10 -17 2 -17 -7 0 -9 -5 -6 -11 11 -17 35 23 25 42 -5 9 -7 30 -5
48 3 21 -3 47 -15 70 -10 20 -19 30 -20 23z"/>
<path d="M1090 1640 c8 -5 22 -10 30 -10 13 0 13 1 0 10 -8 5 -22 10 -30 10
-13 0 -13 -1 0 -10z"/>
<path d="M1175 1630 c-3 -5 -13 -6 -22 -3 -13 5 -15 2 -10 -11 4 -10 7 -20 7
-22 0 -2 9 -4 19 -4 11 0 23 -5 27 -12 4 -6 3 -8 -4 -5 -6 5 -8 0 -5 -13 3
-11 1 -20 -4 -20 -13 0 -74 65 -68 73 3 4 2 5 -1 2 -4 -2 -15 0 -24 5 -13 7
-20 5 -24 -7 -4 -9 -4 -18 -1 -21 3 -3 5 0 5 7 0 7 5 9 10 6 8 -5 7 -12 -2
-23 -11 -15 -11 -15 3 -4 22 17 45 -7 26 -28 -10 -12 -9 -12 6 -1 15 12 17 11
18 -5 0 -18 1 -18 9 1 7 15 9 16 9 4 1 -15 12 -17 54 -10 5 0 5 7 1 14 -6 9
-4 9 8 -1 14 -11 18 -10 28 9 11 20 10 21 -9 16 -11 -3 -19 -1 -18 3 1 5 -7
16 -18 24 -11 9 -14 15 -6 14 7 -2 16 3 18 10 5 14 -23 17 -32 2z m-50 -50
c10 -11 16 -20 13 -20 -3 0 -13 9 -23 20 -10 11 -16 20 -13 20 3 0 13 -9 23
-20z"/>
<path d="M1250 1626 c0 -8 4 -17 9 -20 5 -4 7 3 4 14 -6 23 -13 26 -13 6z"/>
<path d="M1365 1630 c3 -5 8 -10 11 -10 2 0 4 5 4 10 0 6 -5 10 -11 10 -5 0
-7 -4 -4 -10z"/>
<path d="M1505 1630 c-4 -6 -1 -9 6 -8 8 2 13 -7 14 -20 0 -12 5 -26 10 -30
11 -8 13 -61 3 -78 -4 -6 -1 -11 6 -11 17 0 16 84 0 95 -6 4 -10 15 -9 24 4
22 -20 44 -30 28z"/>
<path d="M1775 1630 c4 -6 11 -8 16 -5 14 9 11 15 -7 15 -8 0 -12 -5 -9 -10z"/>
<path d="M1316 1609 c3 -5 9 -7 14 -4 4 3 10 -1 13 -7 4 -10 7 -10 18 0 8 7
10 13 4 12 -5 -2 -12 -1 -15 0 -19 7 -39 7 -34 -1z"/>
<path d="M1574 1607 c1 -8 10 -25 19 -38 l18 -24 -13 25 c-7 14 -12 28 -13 32
0 3 -3 9 -7 13 -3 4 -6 0 -4 -8z"/>
<path d="M1795 1611 c-3 -5 -1 -12 5 -16 7 -4 7 -12 0 -25 -7 -13 -7 -21 1
-25 6 -4 8 -13 5 -21 -3 -7 -2 -15 2 -18 4 -2 8 18 9 45 0 27 -4 49 -9 49 -5
0 -6 5 -3 10 3 6 4 10 1 10 -3 0 -7 -4 -11 -9z"/>
<path d="M1447 1589 c4 -13 8 -18 11 -10 2 7 -1 18 -6 23 -8 8 -9 4 -5 -13z"/>
<path d="M1487 1591 c-4 -17 -3 -21 5 -13 5 5 8 16 6 23 -3 8 -7 3 -11 -10z"/>
<path d="M1406 1570 c7 -51 9 -59 18 -67 9 -9 -2 51 -15 82 -6 14 -7 10 -3
-15z"/>
<path d="M1278 1569 c-22 -12 -23 -26 -3 -26 8 0 15 6 15 13 0 7 8 15 18 17
12 3 13 5 2 6 -8 0 -23 -4 -32 -10z"/>
<path d="M1358 1562 c5 -9 12 -24 15 -32 3 -8 5 -3 4 12 -1 15 -7 30 -14 33
-10 3 -11 0 -5 -13z"/>
<path d="M1495 1560 c-3 -5 -1 -10 4 -10 6 0 11 5 11 10 0 6 -2 10 -4 10 -3 0
-8 -4 -11 -10z"/>
<path d="M1296 1538 c-9 -12 -16 -18 -16 -12 0 6 -15 11 -34 10 -36 -1 -63
-16 -30 -16 10 0 36 -3 57 -7 33 -5 38 -3 35 12 -2 10 3 20 10 22 7 3 12 -4
12 -18 0 -12 3 -19 8 -15 10 11 9 30 -3 38 -16 12 -23 9 -39 -14z"/>
<path d="M1453 1545 c0 -8 4 -15 9 -15 4 0 8 4 8 9 0 6 -4 12 -8 15 -5 3 -9
-1 -9 -9z"/>
<path d="M1595 1530 c3 -5 8 -10 11 -10 2 0 4 5 4 10 0 6 -5 10 -11 10 -5 0
-7 -4 -4 -10z"/>
<path d="M1450 1505 c0 -8 4 -15 8 -15 5 0 9 7 9 15 0 8 -4 15 -9 15 -4 0 -8
-7 -8 -15z"/>
<path d="M1488 1513 c6 -2 9 -10 6 -15 -4 -7 -2 -8 4 -4 18 11 14 26 -5 25
-11 0 -13 -3 -5 -6z"/>
<path d="M1585 1490 c-3 -5 -1 -10 4 -10 6 0 11 5 11 10 0 6 -2 10 -4 10 -3 0
-8 -4 -11 -10z"/>
<path d="M1625 1490 c-3 -5 -5 -10 -3 -11 29 -7 36 -5 31 7 -6 16 -19 18 -28
4z"/>
<path d="M936 1647 c3 -10 9 -15 12 -12 3 3 0 11 -7 18 -10 9 -11 8 -5 -6z"/>
<path d="M891 1604 c0 -11 3 -14 6 -6 3 7 2 16 -1 19 -3 4 -6 -2 -5 -13z"/>
<path d="M930 1605 c5 -7 8 -14 5 -17 -3 -2 2 -5 10 -5 10 0 12 4 5 12 -5 7
-8 14 -5 17 3 2 -2 5 -10 5 -10 0 -12 -4 -5 -12z"/>
<path d="M876 1565 c-3 -9 -6 -22 -5 -28 0 -7 5 -1 10 12 5 13 8 26 5 28 -2 2
-6 -3 -10 -12z"/>
<path d="M895 1532 c17 -12 18 -68 1 -85 -16 -15 -63 -16 -101 -2 -16 6 -18 5
-8 -5 18 -19 106 -25 120 -8 28 33 21 108 -10 108 -8 0 -8 -3 -2 -8z"/>
<path d="M1941 1454 c-19 -19 -27 -32 -18 -28 10 3 25 0 34 -7 15 -12 16 -12
11 3 -4 9 -4 19 0 22 6 6 14 47 9 45 -1 0 -17 -16 -36 -35z"/>
<path d="M730 1470 c-33 -8 -33 -8 13 -7 26 0 47 4 47 9 0 9 -10 9 -60 -2z"/>
<path d="M1030 1454 c0 -6 7 -17 15 -24 8 -7 12 -17 9 -22 -4 -5 -15 3 -25 19
-10 15 -19 24 -19 20 0 -17 33 -57 47 -57 8 0 11 5 7 12 -5 7 -2 9 8 5 9 -3
27 1 41 8 14 7 28 11 31 7 3 -3 6 0 6 6 0 17 -48 26 -75 14 -20 -9 -26 -8 -34
6 -6 9 -11 12 -11 6z m95 -24 c-4 -6 -10 -8 -15 -5 -5 3 -11 1 -15 -4 -3 -6
-13 -7 -21 -4 -20 7 -4 18 31 21 15 1 24 -2 20 -8z"/>
<path d="M1258 1453 c7 -3 16 -2 19 1 4 3 -2 6 -13 5 -11 0 -14 -3 -6 -6z"/>
<path d="M744 1439 c-4 -7 -3 -10 3 -6 6 4 13 1 16 -7 8 -20 92 -39 183 -41
80 -1 82 -1 72 19 -10 19 -11 19 -24 1 -8 -10 -14 -14 -14 -7 0 6 -9 9 -22 6
-60 -14 -156 2 -188 31 -14 12 -20 13 -26 4z"/>
<path d="M695 1420 c10 -11 28 -20 39 -20 18 0 17 3 -9 20 -39 26 -53 26 -30
0z"/>
<path d="M610 1420 c18 -12 30 -13 30 -2 0 4 -10 9 -22 9 -18 2 -20 0 -8 -7z"/>
<path d="M1180 1414 c-17 -11 -19 -13 -5 -9 11 4 25 8 32 9 19 3 28 16 12 16
-8 -1 -25 -8 -39 -16z"/>
<path d="M1305 1420 c-2 -3 5 -7 16 -7 10 -1 19 2 19 6 0 9 -29 10 -35 1z"/>
<path d="M2036 1413 c-6 -14 -5 -15 5 -6 7 7 10 15 7 18 -3 3 -9 -2 -12 -12z"/>
<path d="M1993 1385 c-9 -25 4 -29 17 -6 7 15 7 21 0 21 -6 0 -13 -7 -17 -15z"/>
<path d="M870 1358 c0 -8 9 -10 78 -12 24 -1 45 1 48 5 2 4 -25 9 -61 11 -36
1 -65 0 -65 -4z"/>
<path d="M904 1318 c3 -17 76 -19 76 -2 0 8 -10 10 -35 4 -19 -4 -36 -4 -39 1
-2 5 -3 4 -2 -3z"/>
<path d="M923 1239 c1 -16 6 -25 13 -22 7 3 10 -5 8 -24 -3 -19 0 -16 9 12 14
41 13 60 -4 49 -5 -3 -7 -10 -4 -15 4 -5 2 -9 -4 -9 -5 0 -12 8 -14 18 -3 9
-4 5 -4 -9z"/>
<path d="M768 1733 c7 -3 16 -2 19 1 4 3 -2 6 -13 5 -11 0 -14 -3 -6 -6z"/>
<path d="M803 1693 c9 -2 23 -2 30 0 6 3 -1 5 -18 5 -16 0 -22 -2 -12 -5z"/>
<path d="M725 1680 c-3 -6 1 -7 9 -4 18 7 21 14 7 14 -6 0 -13 -4 -16 -10z"/>
<path d="M685 1670 c-3 -6 1 -7 9 -4 18 7 21 14 7 14 -6 0 -13 -4 -16 -10z"/>
<path d="M635 1602 c-33 -25 -49 -45 -47 -56 2 -10 -1 -15 -6 -12 -5 3 -17 -3
-27 -14 -18 -20 -18 -20 6 -17 13 2 29 14 35 26 19 37 64 82 76 75 7 -4 8 -3
4 4 -4 7 -1 12 8 12 9 0 16 5 16 10 0 17 -13 11 -65 -28z m-5 -15 c0 -2 -10
-12 -22 -23 l-23 -19 19 23 c18 21 26 27 26 19z"/>
<path d="M509 1613 c-13 -16 -12 -17 4 -4 9 7 17 15 17 17 0 8 -8 3 -21 -13z"/>
<path d="M536 1563 c-6 -14 -5 -15 5 -6 7 7 10 15 7 18 -3 3 -9 -2 -12 -12z"/>
<path d="M400 1555 c0 -8 4 -15 10 -15 5 0 7 7 4 15 -4 8 -8 15 -10 15 -2 0
-4 -7 -4 -15z"/>
<path d="M400 1511 c0 -11 4 -22 9 -25 4 -3 6 6 3 19 -5 30 -12 33 -12 6z"/>
<path d="M370 1495 c0 -8 4 -15 8 -15 5 0 9 7 9 15 0 8 -4 15 -9 15 -4 0 -8
-7 -8 -15z"/>
<path d="M2045 1600 c-3 -5 -1 -10 4 -10 6 0 11 5 11 10 0 6 -2 10 -4 10 -3 0
-8 -4 -11 -10z"/>
<path d="M2075 1582 c1 -24 15 -43 25 -37 8 5 -10 55 -21 55 -3 0 -5 -8 -4
-18z"/>
<path d="M2124 1570 c1 -15 4 -31 8 -35 4 -4 4 -14 1 -23 -4 -14 -3 -15 5 -2
7 9 7 19 2 25 -5 6 -8 21 -5 33 2 12 0 24 -4 26 -4 3 -7 -8 -7 -24z"/>
<path d="M1887 1535 c-4 -8 -2 -17 3 -20 6 -4 10 3 10 14 0 25 -6 27 -13 6z"/>
<path d="M2113 1500 c2 -8 12 -16 23 -17 13 -2 15 -1 4 4 -8 3 -19 11 -23 17
-6 7 -7 6 -4 -4z"/>
<path d="M2286 1402 c-3 -5 1 -17 8 -27 10 -14 15 -15 21 -5 6 9 4 11 -5 5
-10 -6 -12 -4 -7 8 7 17 -8 33 -17 19z"/>
<path d="M2281 1344 c0 -11 3 -14 6 -6 3 7 2 16 -1 19 -3 4 -6 -2 -5 -13z"/>
<path d="M2260 1309 c0 -5 5 -7 10 -4 6 3 10 8 10 11 0 2 -4 4 -10 4 -5 0 -10
-5 -10 -11z"/>
<path d="M277 1374 c-3 -4 -2 -11 3 -18 53 -65 59 -71 56 -52 -2 11 -8 22 -14
24 -7 2 -9 9 -6 14 4 7 2 8 -4 4 -7 -4 -12 -1 -12 8 0 17 -14 29 -23 20z"/>
<path d="M350 1360 c0 -5 5 -10 10 -10 6 0 10 5 10 10 0 6 -4 10 -10 10 -5 0
-10 -4 -10 -10z"/>
<path d="M415 1350 c3 -5 13 -10 21 -10 8 0 14 -5 14 -12 0 -6 3 -8 7 -4 5 4
-1 14 -11 22 -23 16 -40 19 -31 4z"/>
<path d="M235 1340 c3 -5 8 -10 11 -10 2 0 4 5 4 10 0 6 -5 10 -11 10 -5 0 -7
-4 -4 -10z"/>
<path d="M382 1339 c4 -12 48 -46 48 -37 0 2 -12 15 -26 27 -15 13 -24 17 -22
10z"/>
<path d="M495 1330 c10 -11 20 -20 23 -20 3 0 -3 9 -13 20 -10 11 -20 20 -23
20 -3 0 3 -9 13 -20z"/>
<path d="M546 1327 c3 -10 9 -15 12 -12 3 3 0 11 -7 18 -10 9 -11 8 -5 -6z"/>
<path d="M233 1300 c-1 -11 5 -21 13 -21 26 -3 29 -4 63 -36 19 -18 37 -30 41
-28 4 2 14 -5 23 -16 10 -11 22 -17 27 -14 6 3 10 2 10 -3 0 -5 11 -14 25 -20
15 -7 25 -8 25 -2 0 6 -6 10 -14 10 -7 0 -19 7 -26 15 -7 8 -16 13 -20 10 -4
-2 -15 4 -25 15 -10 11 -22 20 -27 20 -5 0 -23 13 -41 30 -18 16 -36 30 -40
30 -5 0 -5 6 -1 13 5 8 2 7 -9 -2 -15 -12 -17 -12 -11 3 3 9 2 16 -3 16 -5 0
-9 -9 -10 -20z"/>
<path d="M470 1316 c0 -2 14 -14 30 -26 17 -12 30 -19 30 -16 0 2 -13 14 -30
26 -16 12 -30 19 -30 16z"/>
<path d="M570 1306 c0 -2 11 -6 25 -8 13 -3 22 -1 19 3 -5 9 -44 13 -44 5z"/>
<path d="M440 1292 c0 -5 15 -17 34 -27 23 -13 32 -23 28 -34 -5 -14 -4 -14
10 -1 15 14 14 16 -10 29 -15 8 -32 20 -40 27 -15 16 -22 18 -22 6z"/>
<path d="M350 1280 c0 -5 9 -14 20 -20 11 -6 20 -9 20 -8 0 2 -9 11 -20 21
-11 9 -20 13 -20 7z"/>
<path d="M570 1280 c8 -5 20 -10 25 -10 6 0 3 5 -5 10 -8 5 -19 10 -25 10 -5
0 -3 -5 5 -10z"/>
<path d="M643 1283 c14 -4 16 -8 6 -19 -7 -8 -7 -14 -1 -14 12 0 23 26 15 34
-4 3 -13 5 -22 5 -12 -1 -12 -2 2 -6z"/>
<path d="M540 1270 c0 -5 5 -10 11 -10 5 0 7 5 4 10 -3 6 -8 10 -11 10 -2 0
-4 -4 -4 -10z"/>
<path d="M400 1253 c0 -13 19 -26 83 -55 56 -26 45 -12 -15 18 -29 15 -56 32
-60 38 -6 8 -8 8 -8 -1z"/>
<path d="M580 1252 c8 -5 26 -13 40 -16 17 -5 20 -4 10 2 -8 5 -26 13 -40 16
-17 5 -20 4 -10 -2z"/>
<path d="M677 1249 c7 -7 15 -10 18 -7 3 3 -2 9 -12 12 -14 6 -15 5 -6 -5z"/>
<path d="M753 1253 c9 -2 23 -2 30 0 6 3 -1 5 -18 5 -16 0 -22 -2 -12 -5z"/>
<path d="M805 1250 c3 -5 8 -10 11 -10 2 0 4 5 4 10 0 6 -5 10 -11 10 -5 0 -7
-4 -4 -10z"/>
<path d="M230 1240 c0 -7 77 -49 97 -53 4 -1 15 -7 23 -14 8 -7 18 -12 21 -11
4 2 16 -6 28 -16 12 -11 21 -14 21 -9 0 6 -16 18 -35 27 -19 9 -37 21 -40 26
-4 6 -10 8 -15 5 -4 -3 -10 2 -14 10 -3 9 -12 12 -22 8 -13 -5 -15 -3 -9 7 5
8 4 11 -3 6 -5 -3 -12 -1 -14 6 -5 13 -38 20 -38 8z"/>
<path d="M717 1239 c7 -7 15 -10 18 -7 3 3 -2 9 -12 12 -14 6 -15 5 -6 -5z"/>
<path d="M370 1236 c0 -3 9 -10 20 -16 11 -6 20 -8 20 -6 0 3 -9 10 -20 16
-11 6 -20 8 -20 6z"/>
<path d="M540 1236 c0 -2 7 -7 16 -10 8 -3 12 -2 9 4 -6 10 -25 14 -25 6z"/>
<path d="M779 1227 c5 -5 21 -7 37 -5 27 3 26 4 -8 9 -22 3 -34 1 -29 -4z"/>
<path d="M539 1211 c13 -12 28 -21 34 -21 12 0 11 0 -28 24 l-30 17 24 -20z"/>
<path d="M580 1221 c0 -13 50 -20 57 -7 3 6 3 8 -1 4 -5 -4 -19 -3 -32 2 -13
5 -24 6 -24 1z"/>
<path d="M658 1223 c6 -2 18 -2 25 0 6 3 1 5 -13 5 -14 0 -19 -2 -12 -5z"/>
<path d="M740 1209 c0 -5 11 -9 25 -9 14 0 25 2 25 4 0 2 -11 6 -25 8 -14 3
-25 1 -25 -3z"/>
<path d="M658 1198 c6 -6 18 -8 28 -6 14 3 12 5 -9 10 -19 3 -25 2 -19 -4z"/>
<path d="M530 1180 c0 -5 5 -10 11 -10 5 0 7 5 4 10 -3 6 -8 10 -11 10 -2 0
-4 -4 -4 -10z"/>
<path d="M627 1179 c7 -7 15 -10 18 -7 3 3 -2 9 -12 12 -14 6 -15 5 -6 -5z"/>
<path d="M758 1173 c12 -2 32 -2 45 0 12 2 2 4 -23 4 -25 0 -35 -2 -22 -4z"/>
<path d="M581 1147 c12 -15 30 -27 38 -26 9 0 5 5 -9 10 -20 8 -22 12 -10 19
9 6 10 10 3 10 -6 0 -19 3 -28 7 -14 5 -12 0 6 -20z"/>
<path d="M671 1166 c2 -2 20 -6 39 -10 25 -4 31 -3 20 4 -14 9 -69 15 -59 6z"/>
<path d="M470 1151 c0 -11 119 -55 127 -47 3 3 0 6 -8 6 -8 0 -38 11 -66 25
-29 13 -53 20 -53 16z"/>
<path d="M540 1150 c8 -5 20 -10 25 -10 6 0 3 5 -5 10 -8 5 -19 10 -25 10 -5
0 -3 -5 5 -10z"/>
<path d="M620 1150 c0 -6 6 -10 14 -10 8 0 18 -5 22 -12 4 -7 3 -8 -4 -4 -7 4
-12 2 -12 -4 0 -7 6 -10 13 -7 20 6 14 29 -10 38 -14 5 -23 5 -23 -1z"/>
<path d="M838 1143 c7 -3 16 -2 19 1 4 3 -2 6 -13 5 -11 0 -14 -3 -6 -6z"/>
<path d="M430 1131 c0 -5 9 -11 20 -14 24 -6 27 8 4 17 -21 8 -24 8 -24 -3z"/>
<path d="M675 1122 c-7 -20 -7 -20 55 -26 30 -3 46 -3 35 0 -11 3 -31 7 -45
11 l-25 6 25 7 c24 6 24 7 -7 11 -23 4 -34 1 -38 -9z"/>
<path d="M355 1122 c4 -4 10 -7 13 -7 4 -1 18 -7 32 -14 33 -19 90 -31 90 -20
0 8 -13 10 -45 9 -3 0 -20 7 -38 17 -34 18 -64 26 -52 15z"/>
<path d="M751 1126 c10 -10 59 -14 64 -5 4 5 -11 9 -31 9 -21 0 -35 -2 -33 -4z"/>
<path d="M844 1115 c-4 -8 -10 -12 -15 -9 -5 3 -9 1 -9 -4 0 -9 23 -22 39 -22
4 0 8 7 8 15 0 8 -5 11 -10 8 -6 -4 -8 0 -4 10 3 10 4 17 1 17 -2 0 -7 -7 -10
-15z"/>
<path d="M500 1100 c8 -5 11 -10 6 -10 -5 0 -3 -6 3 -14 14 -17 51 -28 51 -15
0 5 -9 9 -19 9 -11 0 -23 5 -26 10 -3 6 -1 10 5 10 6 0 8 5 5 10 -3 6 -14 10
-23 10 -15 0 -15 -2 -2 -10z"/>
<path d="M547 1089 c7 -7 15 -10 18 -7 3 3 -2 9 -12 12 -14 6 -15 5 -6 -5z"/>
<path d="M580 1079 c0 -5 3 -9 8 -9 4 0 34 -5 67 -10 73 -12 147 -19 120 -11
-13 3 0 8 35 12 52 7 52 7 -17 5 -40 -1 -73 2 -73 6 0 4 -5 8 -11 8 -5 0 -7
-4 -4 -10 6 -10 -28 -6 -92 10 -20 5 -33 5 -33 -1z"/>
<path d="M648 1083 c7 -3 16 -2 19 1 4 3 -2 6 -13 5 -11 0 -14 -3 -6 -6z"/>
<path d="M570 1056 c0 -3 9 -10 20 -16 11 -6 20 -8 20 -6 0 3 -9 10 -20 16
-11 6 -20 8 -20 6z"/>
<path d="M840 1039 c0 -5 9 -9 20 -9 11 0 20 2 20 4 0 2 -9 6 -20 9 -11 3 -20
1 -20 -4z"/>
<path d="M655 1030 c3 -5 16 -10 28 -9 21 0 21 1 2 9 -28 12 -37 12 -30 0z"/>
<path d="M716 1019 c3 -5 24 -9 46 -9 23 0 39 2 37 4 -9 8 -88 13 -83 5z"/>
<path d="M810 1008 c0 -5 15 -8 34 -8 19 0 37 3 39 8 3 4 -12 7 -34 7 -21 0
-39 -3 -39 -7z"/>
<path d="M508 983 c7 -3 16 -2 19 1 4 3 -2 6 -13 5 -11 0 -14 -3 -6 -6z"/>
<path d="M530 936 c0 -2 7 -7 16 -10 8 -3 12 -2 9 4 -6 10 -25 14 -25 6z"/>
<path d="M608 903 c6 -2 18 -2 25 0 6 3 1 5 -13 5 -14 0 -19 -2 -12 -5z"/>
<path d="M776 879 c2 -4 13 -7 24 -6 23 2 17 10 -10 12 -10 1 -17 -2 -14 -6z"/>
<path d="M1172 780 c4 -17 -21 -20 -42 -6 -13 9 -13 9 -2 -6 7 -9 21 -15 30
-13 9 1 23 -2 30 -8 23 -18 26 3 3 26 -14 14 -21 17 -19 7z"/>
<path d="M1046 769 c4 -8 30 -6 38 2 3 3 -5 5 -19 5 -13 0 -22 -3 -19 -7z"/>
<path d="M1474 1333 c-9 -15 -27 -36 -38 -46 -21 -18 -21 -18 5 -3 14 9 32 28
39 41 8 15 20 23 27 20 8 -2 11 0 8 5 -10 16 -22 11 -41 -17z"/>
<path d="M1810 1349 c0 -5 -4 -7 -10 -4 -5 3 -10 -1 -10 -9 0 -9 -3 -15 -7
-15 -5 1 -15 1 -23 0 -13 -1 -13 -2 0 -11 8 -5 10 -10 4 -10 -13 0 -57 -40
-50 -47 2 -3 31 20 63 51 32 31 52 56 46 56 -7 0 -13 -5 -13 -11z"/>
<path d="M1304 1331 c3 -5 15 -7 26 -4 28 7 25 13 -6 13 -14 0 -23 -4 -20 -9z"/>
<path d="M1366 1325 c-3 -8 -9 -14 -13 -14 -12 3 -93 -35 -93 -43 0 -10 30 2
65 26 17 12 32 20 35 20 3 -1 14 5 25 12 16 11 16 14 3 14 -9 0 -18 -7 -22
-15z"/>
<path d="M1400 1310 c-45 -39 -34 -39 15 0 21 17 34 30 29 30 -5 -1 -25 -14
-44 -30z"/>
<path d="M1185 1301 c-22 -11 -35 -19 -30 -19 14 -1 93 36 80 37 -5 0 -28 -8
-50 -18z"/>
<path d="M1477 1283 c-4 -3 -7 -11 -7 -17 0 -6 5 -5 12 2 6 6 9 14 7 17 -3 3
-9 2 -12 -2z"/>
<path d="M1518 1273 c-6 -7 -8 -16 -4 -20 3 -3 6 -1 6 6 0 7 4 10 9 7 5 -3 14
0 20 7 8 10 7 14 -4 14 -9 0 -20 -6 -27 -14z"/>
<path d="M1070 1259 c-7 -11 -9 -23 -7 -26 3 -2 8 5 12 16 3 12 11 18 17 15 7
-4 8 -2 4 4 -10 16 -14 15 -26 -9z"/>
<path d="M1329 1263 c-13 -15 -12 -15 9 -4 23 12 28 21 13 21 -5 0 -15 -7 -22
-17z"/>
<path d="M1395 1270 c-4 -6 -10 -8 -15 -5 -4 3 -13 -2 -20 -10 -7 -8 -18 -15
-26 -15 -7 0 -16 -4 -19 -10 -8 -13 25 -1 46 17 9 7 18 11 21 8 3 -3 11 1 18
10 7 8 10 15 7 15 -3 0 -9 -5 -12 -10z"/>
<path d="M1230 1260 c-9 -6 -10 -10 -3 -10 6 0 15 5 18 10 8 12 4 12 -15 0z"/>
<path d="M1450 1261 c0 -5 -9 -13 -21 -16 -31 -10 -19 -14 18 -7 26 6 29 9 17
20 -8 7 -14 8 -14 3z"/>
<path d="M1170 1243 l-35 -14 34 6 c34 5 49 12 40 18 -2 2 -20 -3 -39 -10z"/>
<path d="M1205 1219 c-22 -11 -32 -17 -22 -14 11 3 30 8 43 11 13 3 24 10 24
15 0 11 4 12 -45 -12z"/>
<path d="M1090 1220 c-9 -6 -10 -10 -3 -10 6 0 15 5 18 10 8 12 4 12 -15 0z"/>
<path d="M1050 1209 c0 -5 5 -7 10 -4 6 3 10 8 10 11 0 2 -4 4 -10 4 -5 0 -10
-5 -10 -11z"/>
<path d="M1270 1210 c-8 -5 -10 -10 -5 -10 6 0 17 5 25 10 8 5 11 10 5 10 -5
0 -17 -5 -25 -10z"/>
<path d="M1142 1203 c-10 -4 -7 -9 8 -20 15 -11 25 -12 32 -5 7 7 4 10 -8 9
-11 -1 -18 4 -16 11 1 6 1 12 0 11 -2 0 -9 -3 -16 -6z"/>
<path d="M1107 1194 c-3 -3 -22 -6 -41 -6 -20 0 -36 -5 -36 -10 0 -6 7 -8 15
-4 9 3 15 0 15 -9 0 -11 9 -15 31 -13 17 1 33 6 35 10 3 5 10 5 16 2 7 -4 8
-2 4 5 -4 6 -13 8 -19 4 -17 -11 -57 -12 -57 -1 0 4 11 8 25 8 14 0 25 5 25
10 0 11 -4 13 -13 4z"/>
<path d="M1058 1093 c7 -3 16 -2 19 1 4 3 -2 6 -13 5 -11 0 -14 -3 -6 -6z"/>
<path d="M1130 1060 c-23 -7 -23 -8 -3 -9 12 -1 25 4 28 9 3 6 5 10 3 9 -2 -1
-14 -5 -28 -9z"/>
<path d="M1065 1050 c-19 -8 -19 -9 2 -9 12 -1 25 4 28 9 7 12 -2 12 -30 0z"/>
<path d="M2102 1226 c-6 -15 -23 -27 -42 -31 -42 -9 -30 -19 14 -11 26 5 37
13 45 36 12 36 -1 40 -17 6z"/>
<path d="M1576 1205 c-19 -15 -19 -15 5 -16 18 -1 20 -2 6 -6 -16 -4 -15 -7 8
-19 22 -11 30 -12 46 -1 17 12 17 16 4 33 -13 18 -14 18 -9 -6 5 -20 3 -22 -5
-10 -7 10 -11 11 -11 3 0 -7 -4 -13 -9 -13 -5 0 -8 11 -6 25 3 29 -2 30 -29
10z"/>
<path d="M1425 1109 c5 -7 54 -3 63 6 3 3 -10 5 -30 3 -20 -1 -35 -5 -33 -9z"/>
<path d="M1956 1088 c3 -5 -2 -11 -10 -14 -9 -3 -16 -14 -15 -23 0 -10 2 -11
6 -3 2 6 9 10 14 6 12 -7 49 5 49 16 0 6 -12 5 -27 0 l-28 -10 25 19 c24 19
24 20 3 18 -12 0 -19 -5 -17 -9z"/>
<path d="M1890 1031 c0 -12 5 -21 10 -21 6 0 10 6 10 14 0 8 -4 18 -10 21 -5
3 -10 -3 -10 -14z"/>
<path d="M1786 1003 c5 -9 -31 -42 -55 -51 -17 -6 -20 -10 -10 -14 19 -7 87
49 73 61 -6 5 -10 6 -8 4z"/>
<path d="M1245 959 c-4 -5 -4 -13 -1 -16 3 -4 6 0 6 8 0 11 2 11 10 -1 6 -9
10 -10 10 -3 0 17 -17 25 -25 12z"/>
<path d="M1777 938 c-10 -11 -16 -22 -13 -26 6 -6 35 27 36 41 0 10 -2 8 -23
-15z"/>
<path d="M1795 920 c-3 -5 -3 -10 2 -10 4 0 3 -4 -4 -8 -8 -5 -9 -13 -3 -22 9
-13 10 -13 11 0 0 8 2 23 4 33 4 19 -1 22 -10 7z"/>
<path d="M1224 903 c10 -11 37 -12 30 -2 -3 5 -12 9 -21 9 -9 0 -13 -3 -9 -7z"/>
<path d="M1296 901 c-4 -5 3 -7 14 -4 23 6 26 13 6 13 -8 0 -17 -4 -20 -9z"/>
<path d="M1664 846 l-28 -23 24 2 c14 1 28 3 32 4 6 1 7 41 1 41 -1 0 -14 -11
-29 -24z m16 -6 c0 -5 -5 -10 -11 -10 -5 0 -7 5 -4 10 3 6 8 10 11 10 2 0 4
-4 4 -10z"/>
<path d="M1603 848 c9 -5 17 -14 17 -20 0 -7 -5 -6 -15 2 -9 7 -22 9 -32 5
-10 -5 -40 -10 -68 -12 -31 -3 -53 -10 -59 -20 -7 -13 -10 -13 -17 -2 -7 11
-9 11 -9 1 0 -7 -4 -11 -9 -8 -5 3 -11 -3 -14 -14 -3 -11 0 -23 5 -27 6 -3 8
-1 4 5 -3 6 -1 14 6 18 21 13 77 14 84 2 5 -7 2 -9 -9 -5 -9 3 -19 2 -22 -3
-3 -4 6 -7 20 -5 26 2 48 15 27 15 -7 0 -12 7 -12 15 0 12 3 12 19 -2 11 -9
17 -21 14 -26 -4 -6 -1 -7 6 -3 9 6 8 13 -5 27 -9 10 -12 19 -6 19 6 0 13 -4
16 -9 5 -8 27 -8 46 -1 3 1 8 2 12 1 4 0 16 12 26 27 l20 27 -31 2 c-24 1 -27
-1 -14 -9z m2 -28 c4 -6 3 -10 -2 -9 -4 1 -10 0 -13 -1 -20 -7 -41 -7 -47 2
-3 6 -1 8 5 4 6 -3 13 -2 17 4 8 13 32 13 40 0z"/>
<path d="M1714 840 c0 -13 4 -16 10 -10 7 7 7 13 0 20 -6 6 -10 3 -10 -10z"/>
<path d="M1426 758 c3 -5 10 -6 15 -3 13 9 11 12 -6 12 -8 0 -12 -4 -9 -9z"/>
<path d="M678 1818 c-21 -6 -38 -14 -38 -20 0 -5 4 -6 10 -3 5 3 19 8 30 10
22 4 61 25 45 24 -5 -1 -27 -6 -47 -11z"/>
<path d="M610 1789 c0 -5 5 -7 10 -4 6 3 10 8 10 11 0 2 -4 4 -10 4 -5 0 -10
-5 -10 -11z"/>
<path d="M570 1770 c-8 -5 -10 -10 -5 -10 6 0 17 5 25 10 8 5 11 10 5 10 -5 0
-17 -5 -25 -10z"/>
<path d="M492 1740 c-29 -15 -56 -31 -60 -35 -4 -5 -2 -6 3 -3 6 2 31 14 57
26 25 12 49 26 53 32 3 5 5 9 3 9 -2 -1 -27 -14 -56 -29z"/>
<path d="M410 1702 c0 -12 -56 -42 -65 -34 -5 4 -5 1 -1 -5 4 -8 2 -13 -5 -13
-7 0 -10 -3 -7 -6 8 -7 88 45 88 57 0 5 -2 9 -5 9 -3 0 -5 -4 -5 -8z"/>
<path d="M302 1628 c-7 -7 -12 -16 -12 -21 0 -5 7 -1 16 8 9 9 14 18 12 20 -2
3 -10 -1 -16 -7z"/>
<path d="M238 1578 c-21 -16 -35 -34 -32 -39 3 -5 -2 -9 -10 -9 -9 0 -16 -5
-16 -10 0 -16 30 3 69 44 44 45 37 53 -11 14z"/>
<path d="M2353 1525 c113 -148 126 -293 41 -440 -86 -149 -327 -293 -611 -364
-161 -40 -290 -55 -488 -55 -302 0 -507 39 -742 142 -50 22 -94 38 -97 36 -3
-2 -4 -1 -1 3 8 10 -55 44 -67 37 -6 -4 -8 -3 -5 3 6 10 -63 63 -81 63 -5 0
-22 16 -39 35 -17 19 -33 31 -37 28 -3 -4 -6 -2 -6 3 0 5 -11 22 -25 38 -14
16 -25 35 -25 42 0 7 -8 18 -18 23 -9 6 -13 11 -8 11 5 0 4 6 -2 13 -6 6 -10
15 -11 20 0 4 -3 22 -6 40 -10 59 -11 155 -1 150 5 -4 7 3 4 15 -3 12 -2 22 3
24 5 2 11 14 14 27 2 13 12 32 21 42 10 11 13 19 8 19 -5 0 -2 5 6 10 8 5 10
10 4 10 -13 0 -51 -40 -38 -40 5 0 1 -5 -8 -11 -36 -21 -61 -174 -43 -259 25
-118 143 -253 298 -344 236 -138 505 -204 857 -211 331 -6 564 37 805 150 130
61 222 124 299 206 91 96 119 157 123 271 1 48 -2 90 -7 93 -5 3 -7 12 -3 20
3 10 -1 15 -11 15 -9 0 -16 6 -15 13 4 33 -6 51 -67 114 l-66 68 45 -60z"/>
<path d="M1573 583 c9 -2 23 -2 30 0 6 3 -1 5 -18 5 -16 0 -22 -2 -12 -5z"/>
</g>
</svg>
