<?xml version="1.0" standalone="no"?>
<!DOCTYPE svg PUBLIC "-//W3C//DTD SVG 20010904//EN"
 "http://www.w3.org/TR/2001/REC-SVG-20010904/DTD/svg10.dtd">
<svg version="1.0" xmlns="http://www.w3.org/2000/svg"
 width="100.000000pt" height="100.000000pt" viewBox="0 0 100.000000 100.000000"
 preserveAspectRatio="xMidYMid meet">
<metadata>
Created by potrace 1.16, written by Peter Selinger 2001-2019
</metadata>
<g transform="translate(0.000000,100.000000) scale(0.100000,-0.100000)"
fill="#000000" stroke="none">
<path d="M0 720 c0 -6 38 -10 94 -10 66 0 96 -4 100 -12 5 -10 7 -10 12 0 7
14 104 17 104 2 0 -5 9 -10 20 -10 11 0 20 5 20 10 0 6 25 10 55 10 30 0 55
-4 55 -10 0 -5 14 -10 30 -10 17 0 30 5 30 10 0 6 27 10 60 10 51 0 65 -4 85
-25 22 -22 25 -32 25 -105 0 -47 4 -80 10 -80 6 0 10 14 10 30 0 23 4 30 20
30 13 0 20 7 20 20 0 11 -4 20 -10 20 -5 0 -10 20 -10 45 0 38 3 45 20 45 11
0 20 5 20 10 0 6 30 10 70 10 62 0 74 -3 95 -25 14 -13 25 -31 25 -40 0 -8 5
-15 10 -15 6 0 10 -28 10 -65 0 -37 4 -65 10 -65 6 0 10 32 10 75 0 43 -4 75
-10 75 -5 0 -10 7 -10 15 0 9 -11 27 -25 40 -22 23 -32 25 -115 25 -53 0 -90
-4 -90 -10 0 -5 -9 -10 -19 -10 -11 0 -21 -6 -24 -12 -3 -9 -11 -6 -24 10 -18
19 -30 22 -101 22 -54 0 -82 -4 -86 -12 -5 -10 -7 -10 -12 0 -7 15 -484 18
-484 2z"/>
<path d="M468 663 c6 -2 18 -2 25 0 6 3 1 5 -13 5 -14 0 -19 -2 -12 -5z"/>
<path d="M0 620 c0 -5 18 -10 40 -10 l40 0 0 -45 c0 -42 -2 -45 -26 -45 -29 0
-54 -21 -54 -44 0 -22 13 -20 30 4 8 12 26 20 42 20 28 0 28 1 28 65 l0 65
-50 0 c-27 0 -50 -4 -50 -10z"/>
<path d="M210 555 c0 -43 -4 -75 -10 -75 -5 0 -10 -12 -10 -26 0 -34 -22 -54
-59 -54 -17 0 -31 -4 -31 -10 0 -6 52 -10 135 -10 128 0 135 1 135 20 0 15 7
20 25 20 25 0 25 1 25 90 0 53 -4 90 -10 90 -5 0 -10 7 -10 15 0 8 -7 15 -15
15 -10 0 -15 -10 -15 -27 0 -22 -2 -25 -10 -13 -7 10 -10 -13 -10 -73 0 -101
-9 -117 -64 -117 l-36 0 0 115 c0 108 -1 115 -20 115 -18 0 -20 -7 -20 -75z
m190 -45 c0 -56 -3 -70 -15 -70 -28 0 -16 135 13 140 1 0 2 -31 2 -70z m-170
-80 c0 -16 -4 -30 -10 -30 -5 0 -10 14 -10 30 0 17 5 30 10 30 6 0 10 -13 10
-30z"/>
<path d="M550 620 c12 -7 11 -12 -8 -28 -19 -17 -22 -29 -22 -91 0 -84 -11
-101 -64 -101 -20 0 -36 -4 -36 -10 0 -6 58 -10 155 -10 l155 0 0 -65 0 -65
-32 0 c-25 0 -29 -3 -18 -10 12 -8 11 -10 -7 -10 -13 0 -23 5 -23 10 0 15 -87
12 -94 -2 -5 -10 -7 -10 -12 0 -4 8 -38 12 -119 12 -81 0 -115 4 -119 13 -5 9
-7 9 -12 0 -3 -7 -23 -13 -45 -13 -21 0 -39 -4 -39 -10 0 -5 -9 -10 -20 -10
-11 0 -20 5 -20 10 0 6 -16 10 -35 10 -19 0 -35 -4 -35 -10 0 -5 -10 -10 -22
-10 -19 0 -20 2 -8 10 11 7 7 10 -17 10 -18 0 -33 5 -33 10 0 6 -4 10 -10 10
-5 0 -10 -9 -10 -20 0 -13 7 -20 20 -20 11 0 20 -4 20 -10 0 -5 18 -10 40 -10
22 0 40 5 40 10 0 6 7 10 15 10 8 0 15 -4 15 -10 0 -5 18 -10 40 -10 22 0 40
5 40 10 0 6 55 10 145 10 90 0 145 -4 145 -10 0 -5 14 -10 30 -10 17 0 30 5
30 10 0 6 11 10 25 10 14 0 25 -4 25 -10 0 -5 18 -10 40 -10 22 0 40 5 40 10
0 6 9 10 20 10 18 0 20 7 20 75 l0 75 125 0 c77 0 125 4 125 10 0 6 -22 10
-49 10 -30 0 -52 5 -55 13 -5 10 -7 10 -12 0 -7 -16 -134 -18 -134 -3 0 6 -9
10 -20 10 -11 0 -20 -4 -20 -10 0 -16 -99 -12 -116 4 -10 11 -14 41 -14 115 0
98 -1 101 -22 101 -18 0 -20 -2 -8 -10z m10 -140 c0 -47 -4 -80 -10 -80 -6 0
-10 33 -10 80 0 47 4 80 10 80 6 0 10 -33 10 -80z"/>
<path d="M810 615 c0 -10 11 -15 35 -15 24 0 35 5 35 15 0 10 -11 15 -35 15
-24 0 -35 -5 -35 -15z"/>
<path d="M770 590 c0 -5 5 -10 10 -10 6 0 10 5 10 10 0 6 -4 10 -10 10 -5 0
-10 -4 -10 -10z"/>
<path d="M487 523 c-11 -10 -8 -83 3 -83 6 0 10 20 10 45 0 46 -2 50 -13 38z"/>
<path d="M810 500 c0 -24 6 -25 26 -6 19 20 18 26 -6 26 -13 0 -20 -7 -20 -20z"/>
<path d="M0 375 c0 -25 5 -45 10 -45 6 0 10 11 10 24 0 13 6 26 12 28 9 3 8 9
-4 21 -25 25 -28 22 -28 -28z"/>
<path d="M60 390 c0 -5 5 -10 10 -10 6 0 10 5 10 10 0 6 -4 10 -10 10 -5 0
-10 -4 -10 -10z"/>
<path d="M120 360 c0 -5 7 -10 15 -10 8 0 15 5 15 10 0 6 -7 10 -15 10 -8 0
-15 -4 -15 -10z"/>
<path d="M40 349 c0 -5 5 -7 10 -4 6 3 10 8 10 11 0 2 -4 4 -10 4 -5 0 -10 -5
-10 -11z"/>
<path d="M600 345 c0 -8 5 -15 10 -15 6 0 10 7 10 15 0 8 -4 15 -10 15 -5 0
-10 -7 -10 -15z"/>
<path d="M350 320 c0 -5 5 -10 10 -10 6 0 10 5 10 10 0 6 -4 10 -10 10 -5 0
-10 -4 -10 -10z"/>
<path d="M420 320 c0 -5 5 -10 10 -10 6 0 10 5 10 10 0 6 -4 10 -10 10 -5 0
-10 -4 -10 -10z"/>
<path d="M493 315 c-15 -17 -17 -45 -3 -45 6 0 10 9 10 20 0 11 5 20 10 20 6
0 10 5 10 10 0 14 -13 12 -27 -5z"/>
<path d="M60 300 c0 -5 14 -10 30 -10 17 0 30 5 30 10 0 6 -13 10 -30 10 -16
0 -30 -4 -30 -10z"/>
<path d="M290 300 c0 -5 5 -10 10 -10 6 0 10 5 10 10 0 6 -4 10 -10 10 -5 0
-10 -4 -10 -10z"/>
<path d="M620 300 c0 -5 7 -10 15 -10 8 0 15 5 15 10 0 6 -7 10 -15 10 -8 0
-15 -4 -15 -10z"/>
<path d="M230 280 c0 -5 5 -10 10 -10 6 0 10 5 10 10 0 6 -4 10 -10 10 -5 0
-10 -4 -10 -10z"/>
</g>
</svg>
