<?xml version="1.0" standalone="no"?>
<!DOCTYPE svg PUBLIC "-//W3C//DTD SVG 20010904//EN"
 "http://www.w3.org/TR/2001/REC-SVG-20010904/DTD/svg10.dtd">
<svg version="1.0" xmlns="http://www.w3.org/2000/svg"
 width="100.000000pt" height="100.000000pt" viewBox="0 0 100.000000 100.000000"
 preserveAspectRatio="xMidYMid meet">
<metadata>
Created by potrace 1.16, written by Peter Selinger 2001-2019
</metadata>
<g transform="translate(0.000000,100.000000) scale(0.100000,-0.100000)"
fill="#000000" stroke="none">
<path d="M190 728 c0 -17 3 -19 9 -9 5 7 15 17 22 22 10 6 8 9 -8 9 -17 0 -23
-6 -23 -22z"/>
<path d="M250 730 c0 -24 6 -25 26 -5 9 8 20 15 25 15 5 0 9 -7 9 -15 0 -8 5
-15 10 -15 6 0 10 5 10 10 0 14 37 12 44 -2 5 -10 7 -10 12 0 3 6 16 12 29 12
13 0 26 -6 29 -12 5 -10 7 -10 12 0 3 6 14 12 24 12 10 0 21 -6 24 -12 5 -10
7 -10 12 0 3 6 12 12 19 12 7 0 16 -6 18 -12 4 -10 6 -10 6 0 1 6 10 12 20 12
11 0 22 -6 25 -12 5 -10 7 -10 12 0 7 14 54 16 54 2 0 -5 5 -10 10 -10 6 0 10
6 10 14 0 9 7 12 20 9 11 -3 20 -9 20 -14 0 -5 5 -9 10 -9 6 0 10 9 10 20 0
19 -7 20 -250 20 -243 0 -250 -1 -250 -20z"/>
<path d="M770 744 c0 -3 6 -12 14 -20 20 -19 26 -18 26 6 0 13 -7 20 -20 20
-11 0 -20 -3 -20 -6z"/>
<path d="M60 668 c0 -19 2 -20 13 -6 6 9 19 18 27 21 8 3 3 6 -12 6 -22 1 -28
-3 -28 -21z"/>
<path d="M130 670 c0 -11 2 -20 5 -20 3 0 15 9 27 20 l22 20 -27 0 c-20 0 -27
-5 -27 -20z"/>
<path d="M190 663 c1 -25 2 -26 14 -10 18 23 46 22 46 -3 0 -18 -7 -20 -60
-20 l-60 0 0 -35 c0 -33 -2 -35 -35 -35 l-35 0 0 -90 0 -90 35 0 c33 0 35 -2
35 -35 l0 -35 90 0 c83 0 90 -1 90 -20 0 -13 -7 -20 -20 -20 -11 0 -20 7 -20
15 0 8 -4 15 -10 15 -5 0 -10 -7 -10 -15 0 -21 -30 -19 -46 2 -12 17 -13 16
-14 -4 0 -27 -12 -29 -34 -8 -20 20 -26 19 -26 -5 0 -20 7 -20 340 -20 l340 0
0 28 c-1 23 -2 25 -13 11 -7 -8 -20 -18 -29 -22 -14 -5 -18 -1 -18 18 0 24 3
25 60 25 l60 0 0 35 c0 33 2 35 35 35 l35 0 0 90 0 90 -31 0 c-17 0 -28 -4
-24 -10 3 -5 13 -10 21 -10 8 0 14 -9 14 -20 0 -12 -7 -20 -17 -20 -20 0 -53
-51 -53 -81 0 -10 -4 -19 -10 -19 -5 0 -10 15 -10 34 0 19 -3 41 -6 50 -5 12
0 16 20 16 25 0 26 2 26 65 l0 65 -60 0 c-53 0 -60 2 -60 20 0 25 28 26 46 3
12 -16 13 -15 14 10 l0 27 -310 0 -310 0 0 -27z m110 -3 c0 -5 -7 -10 -15 -10
-8 0 -15 5 -15 10 0 6 7 10 15 10 8 0 15 -4 15 -10z m70 0 c0 -5 -13 -10 -30
-10 -16 0 -30 5 -30 10 0 6 14 10 30 10 17 0 30 -4 30 -10z m70 0 c0 -5 -11
-10 -25 -10 -14 0 -25 5 -25 10 0 6 11 10 25 10 14 0 25 -4 25 -10z m60 0 c0
-5 -9 -10 -20 -10 -11 0 -20 5 -20 10 0 6 9 10 20 10 11 0 20 -4 20 -10z m60
-4 c0 -9 -7 -12 -20 -9 -11 3 -20 9 -20 14 0 5 9 9 20 9 11 0 20 -6 20 -14z
m60 0 c0 -9 -7 -12 -20 -9 -11 3 -20 9 -20 14 0 5 9 9 20 9 11 0 20 -6 20 -14z
m50 4 c0 -5 -7 -10 -15 -10 -8 0 -15 5 -15 10 0 6 7 10 15 10 8 0 15 -4 15
-10z m63 -10 c4 -16 0 -20 -19 -20 -17 0 -24 6 -24 20 0 13 7 20 19 20 10 0
21 -9 24 -20z m-443 -45 c0 -18 -5 -25 -20 -25 -15 0 -20 7 -20 25 0 18 5 25
20 25 15 0 20 -7 20 -25z m330 -40 l0 -65 35 0 35 0 0 -60 0 -60 30 0 c28 0
30 -3 30 -35 l0 -35 -65 0 -65 0 0 35 c0 32 -2 35 -30 35 l-30 0 0 60 c0 59 1
60 28 60 23 1 25 2 11 13 -8 7 -18 20 -22 30 -5 13 -1 17 16 17 19 1 20 2 6
13 -8 7 -19 21 -24 32 -8 18 -9 18 -12 -6 -3 -21 -8 -26 -24 -22 -10 3 -19 12
-19 19 0 8 -4 14 -10 14 -5 0 -10 -7 -10 -15 0 -24 -37 -18 -45 8 -8 22 -8 22
-12 -4 -3 -22 -8 -25 -29 -21 -13 2 -24 10 -24 18 0 7 -4 16 -10 19 -6 4 -10
-7 -10 -24 l0 -31 95 0 95 0 0 -30 0 -30 -121 0 c-84 0 -118 -3 -113 -11 3 -6
15 -9 25 -6 14 4 19 0 19 -16 1 -19 2 -20 13 -6 7 8 22 18 35 21 18 5 22 2 22
-18 0 -23 -3 -24 -60 -24 -38 0 -60 -4 -60 -11 0 -7 10 -9 25 -7 21 4 25 1 25
-18 0 -20 -5 -24 -30 -24 l-30 0 0 60 0 60 -60 0 -60 0 0 30 0 30 60 0 60 0 0
35 0 35 155 0 155 0 0 -65z m70 40 c0 -20 -5 -25 -24 -25 -17 0 -25 7 -28 25
-5 22 -2 25 23 25 24 0 29 -4 29 -25z m-510 -4 c0 -17 -12 -41 -21 -41 -5 0
-9 11 -9 25 0 16 6 25 15 25 8 0 15 -4 15 -9z m50 -6 c0 -8 -9 -15 -20 -15
-11 0 -20 7 -20 15 0 8 9 15 20 15 11 0 20 -7 20 -15z m520 0 c0 -8 -9 -15
-20 -15 -11 0 -20 7 -20 15 0 8 9 15 20 15 11 0 20 -7 20 -15z m40 0 c0 -8 -7
-15 -15 -15 -8 0 -15 7 -15 15 0 8 7 15 15 15 8 0 15 -7 15 -15z m60 -10 c0
-18 -5 -25 -20 -25 -15 0 -20 7 -20 25 0 18 5 25 20 25 15 0 20 -7 20 -25z
m-180 -45 c0 -11 -7 -20 -15 -20 -8 0 -15 9 -15 20 0 11 7 20 15 20 8 0 15 -9
15 -20z m140 -64 c0 -76 2 -85 20 -91 12 -4 20 -15 20 -30 0 -14 -7 -25 -20
-28 -17 -4 -20 0 -20 24 0 26 -4 29 -30 29 l-30 0 0 60 0 60 -30 0 c-27 0 -30
3 -30 30 l0 30 60 0 60 0 0 -84z m-638 49 c5 -24 3 -25 -43 -25 -42 0 -49 3
-49 20 0 15 7 20 25 20 14 0 25 -6 25 -12 0 -7 5 -5 11 5 14 24 26 21 31 -8z
m678 5 c0 -5 -4 -10 -10 -10 -5 0 -10 5 -10 10 0 6 5 10 10 10 6 0 10 -4 10
-10z m-674 -67 c13 -17 13 -17 14 0 0 14 9 17 50 17 43 0 50 -3 50 -20 0 -18
-7 -20 -80 -20 -77 0 -80 -1 -80 -24 0 -19 -4 -22 -25 -18 -31 5 -35 42 -5 42
11 0 20 5 20 10 0 6 -9 10 -20 10 -11 0 -20 5 -20 10 0 18 82 12 96 -7z m364
-3 c0 -13 -7 -20 -20 -20 -13 0 -20 -7 -20 -20 0 -13 -7 -20 -20 -20 -25 0
-25 9 -2 26 16 13 16 13 0 14 -11 0 -18 8 -18 20 0 17 7 20 40 20 33 0 40 -3
40 -20z m190 -20 c0 -22 -4 -40 -10 -40 -5 0 -10 18 -10 40 0 22 5 40 10 40 6
0 10 -18 10 -40z m190 30 c0 -5 -9 -10 -20 -10 -11 0 -20 5 -20 10 0 6 9 10
20 10 11 0 20 -4 20 -10z m0 -49 c0 -12 -9 -20 -25 -23 -21 -4 -25 -1 -25 18
0 19 5 24 25 24 18 0 25 -5 25 -19z m-668 -15 c5 -8 8 -7 8 2 0 20 27 14 33
-8 5 -18 0 -20 -49 -20 -51 0 -54 1 -54 25 0 23 3 25 28 19 15 -4 30 -12 34
-18z m-82 4 c0 -5 -4 -10 -10 -10 -5 0 -10 5 -10 10 0 6 5 10 10 10 6 0 10 -4
10 -10z m270 0 c0 -5 -5 -10 -11 -10 -7 0 -10 -17 -7 -45 3 -43 2 -45 -24 -45
-24 0 -28 4 -28 28 0 44 22 82 48 82 12 0 22 -4 22 -10z m100 0 c0 -5 -4 -10
-10 -10 -5 0 -10 5 -10 10 0 6 5 10 10 10 6 0 10 -4 10 -10z m-350 -55 c0 -18
-5 -25 -20 -25 -15 0 -20 7 -20 25 0 18 5 25 20 25 15 0 20 -7 20 -25z m370
-10 l0 -35 -60 0 -60 0 0 35 0 35 60 0 60 0 0 -35z m-320 0 c0 -8 -7 -15 -15
-15 -8 0 -15 7 -15 15 0 8 7 15 15 15 8 0 15 -7 15 -15z m60 0 c0 -9 -9 -15
-25 -15 -16 0 -25 6 -25 15 0 9 9 15 25 15 16 0 25 -6 25 -15z m50 -9 c0 -14
5 -28 10 -31 18 -11 11 -35 -10 -35 -13 0 -20 7 -20 19 0 11 -4 23 -10 26 -19
12 -11 45 10 45 15 0 20 -7 20 -24z m250 -1 c0 -14 -6 -25 -14 -25 -9 0 -12 8
-8 25 2 14 8 25 13 25 5 0 9 -11 9 -25z m190 10 c0 -8 -4 -15 -10 -15 -5 0
-10 7 -10 15 0 8 5 15 10 15 6 0 10 -7 10 -15z m-120 -66 c0 -5 -11 -9 -25 -9
-14 0 -25 6 -25 14 0 9 8 12 25 8 14 -2 25 -8 25 -13z m44 15 c23 -9 20 -24
-4 -24 -11 0 -20 7 -20 15 0 17 2 18 24 9z m-294 -14 c0 -5 -7 -10 -15 -10 -8
0 -15 5 -15 10 0 6 7 10 15 10 8 0 15 -4 15 -10z m80 0 c0 -5 -13 -10 -30 -10
-16 0 -30 5 -30 10 0 6 14 10 30 10 17 0 30 -4 30 -10z m60 0 c0 -5 -9 -10
-20 -10 -11 0 -20 5 -20 10 0 6 9 10 20 10 11 0 20 -4 20 -10z m40 0 c0 -5 -4
-10 -10 -10 -5 0 -10 5 -10 10 0 6 5 10 10 10 6 0 10 -4 10 -10z"/>
<path d="M330 570 c0 -5 7 -10 16 -10 8 0 12 5 9 10 -3 6 -10 10 -16 10 -5 0
-9 -4 -9 -10z"/>
<path d="M236 541 c-4 -7 -5 -15 -2 -18 9 -9 19 4 14 18 -4 11 -6 11 -12 0z"/>
<path d="M296 541 c-4 -7 -5 -15 -2 -18 9 -9 19 4 14 18 -4 11 -6 11 -12 0z"/>
<path d="M440 536 c0 -9 5 -16 10 -16 6 0 10 4 10 9 0 6 -4 13 -10 16 -5 3
-10 -1 -10 -9z"/>
<path d="M500 536 c0 -9 5 -16 10 -16 6 0 10 4 10 9 0 6 -4 13 -10 16 -5 3
-10 -1 -10 -9z"/>
<path d="M370 530 c0 -5 5 -10 10 -10 6 0 10 5 10 10 0 6 -4 10 -10 10 -5 0
-10 -4 -10 -10z"/>
<path d="M620 466 c0 -19 -5 -26 -20 -26 -11 0 -20 -4 -20 -10 0 -5 9 -10 20
-10 11 0 20 5 20 10 0 6 12 11 28 11 16 1 20 3 10 6 -10 2 -18 11 -18 18 0 8
-4 17 -10 20 -6 4 -10 -5 -10 -19z"/>
<path d="M640 390 c0 -5 7 -10 15 -10 8 0 15 5 15 10 0 6 -7 10 -15 10 -8 0
-15 -4 -15 -10z"/>
<path d="M730 530 c0 -5 5 -10 10 -10 6 0 10 5 10 10 0 6 -4 10 -10 10 -5 0
-10 -4 -10 -10z"/>
<path d="M765 490 c3 -5 10 -10 16 -10 5 0 9 5 9 10 0 6 -7 10 -16 10 -8 0
-12 -4 -9 -10z"/>
<path d="M770 430 c0 -5 4 -10 9 -10 6 0 13 5 16 10 3 6 -1 10 -9 10 -9 0 -16
-4 -16 -10z"/>
<path d="M500 345 c0 -15 4 -24 10 -20 6 3 10 12 10 20 0 8 -4 17 -10 20 -6 4
-10 -5 -10 -20z"/>
<path d="M838 670 c12 -11 24 -20 27 -20 3 0 5 9 5 20 0 15 -7 20 -27 20 l-27
0 22 -20z"/>
<path d="M900 683 c8 -3 21 -12 28 -21 10 -14 12 -13 12 6 0 18 -6 22 -27 21
-16 0 -21 -3 -13 -6z"/>
<path d="M7 623 c7 -2 19 -2 26 0 6 3 1 5 -13 5 -14 0 -19 -2 -13 -5z"/>
<path d="M60 599 c0 -17 4 -28 10 -24 6 3 10 13 10 21 0 8 6 14 14 14 8 0 18
5 21 10 4 6 -7 10 -24 10 -28 0 -31 -3 -31 -31z"/>
<path d="M890 620 c0 -5 7 -10 15 -10 8 0 15 -6 15 -14 0 -8 5 -18 10 -21 6
-4 10 7 10 24 0 26 -4 31 -25 31 -14 0 -25 -4 -25 -10z"/>
<path d="M968 623 c6 -2 18 -2 25 0 6 3 1 5 -13 5 -14 0 -19 -2 -12 -5z"/>
<path d="M0 550 c0 -5 9 -10 20 -10 11 0 20 5 20 10 0 6 -9 10 -20 10 -11 0
-20 -4 -20 -10z"/>
<path d="M960 550 c0 -5 9 -10 20 -10 11 0 20 5 20 10 0 6 -9 10 -20 10 -11 0
-20 -4 -20 -10z"/>
<path d="M0 490 c0 -5 9 -10 20 -10 11 0 20 5 20 10 0 6 -9 10 -20 10 -11 0
-20 -4 -20 -10z"/>
<path d="M960 490 c0 -5 9 -10 20 -10 11 0 20 5 20 10 0 6 -9 10 -20 10 -11 0
-20 -4 -20 -10z"/>
<path d="M0 450 c0 -5 9 -10 20 -10 11 0 20 5 20 10 0 6 -9 10 -20 10 -11 0
-20 -4 -20 -10z"/>
<path d="M960 450 c0 -5 9 -10 20 -10 11 0 20 5 20 10 0 6 -9 10 -20 10 -11 0
-20 -4 -20 -10z"/>
<path d="M0 390 c0 -5 9 -10 20 -10 11 0 20 5 20 10 0 6 -9 10 -20 10 -11 0
-20 -4 -20 -10z"/>
<path d="M960 390 c0 -5 9 -10 20 -10 11 0 20 5 20 10 0 6 -9 10 -20 10 -11 0
-20 -4 -20 -10z"/>
<path d="M60 341 c0 -28 3 -31 31 -31 17 0 28 4 24 10 -3 6 -13 10 -21 10 -8
0 -14 6 -14 14 0 8 -4 18 -10 21 -6 4 -10 -7 -10 -24z"/>
<path d="M923 350 c-3 -11 -12 -20 -19 -20 -8 0 -14 -4 -14 -10 0 -5 11 -10
25 -10 21 0 25 5 25 30 0 34 -9 40 -17 10z"/>
<path d="M836 269 c-19 -19 -19 -19 7 -19 20 0 27 5 27 20 0 25 -9 25 -34 -1z"/>
<path d="M250 210 c0 -15 7 -20 27 -20 l27 0 -22 20 c-12 11 -24 20 -27 20 -3
0 -5 -9 -5 -20z"/>
<path d="M310 210 c0 -19 7 -20 220 -20 213 0 220 1 220 20 0 24 -6 25 -26 5
-20 -19 -34 -19 -34 0 0 8 -4 15 -10 15 -5 0 -10 -4 -10 -10 0 -14 -47 -12
-54 3 -5 10 -7 10 -12 0 -3 -7 -14 -13 -24 -13 -10 0 -21 6 -24 13 -5 10 -7
10 -12 0 -3 -7 -14 -13 -24 -13 -10 0 -21 6 -23 13 -4 10 -6 10 -6 0 -1 -7 -7
-13 -15 -13 -8 0 -17 6 -20 13 -5 10 -7 10 -12 0 -3 -7 -16 -13 -29 -13 -13 0
-26 6 -29 13 -5 10 -7 10 -12 0 -7 -15 -44 -17 -44 -3 0 6 -4 10 -10 10 -5 0
-10 -9 -10 -20z"/>
</g>
</svg>
