<?xml version="1.0" standalone="no"?>
<!DOCTYPE svg PUBLIC "-//W3C//DTD SVG 20010904//EN"
 "http://www.w3.org/TR/2001/REC-SVG-20010904/DTD/svg10.dtd">
<svg version="1.0" xmlns="http://www.w3.org/2000/svg"
 width="100.000000pt" height="100.000000pt" viewBox="0 0 100.000000 100.000000"
 preserveAspectRatio="xMidYMid meet">
<metadata>
Created by potrace 1.16, written by Peter Selinger 2001-2019
</metadata>
<g transform="translate(0.000000,100.000000) scale(0.100000,-0.100000)"
fill="#000000" stroke="none">
<path d="M260 785 c0 -11 -12 -15 -45 -15 -33 0 -45 -4 -45 -15 0 -11 -12 -15
-50 -15 -38 0 -50 -4 -50 -15 0 -8 -7 -15 -15 -15 -8 0 -15 -7 -15 -15 0 -8
-7 -15 -15 -15 -8 0 -15 -4 -15 -9 0 -5 -3 -16 -6 -25 -4 -11 -1 -16 10 -16 9
0 16 7 16 15 0 8 7 15 15 15 8 0 15 7 15 15 0 8 7 15 15 15 8 0 15 7 15 15 0
11 12 15 50 15 38 0 50 4 50 15 0 11 12 15 45 15 33 0 45 4 45 15 0 13 31 15
220 15 189 0 220 -2 220 -15 0 -11 12 -15 45 -15 33 0 45 -4 45 -15 0 -11 12
-15 50 -15 38 0 50 -4 50 -15 0 -8 7 -15 15 -15 8 0 15 -7 15 -15 0 -8 7 -15
15 -15 8 0 15 -7 15 -15 0 -8 7 -15 16 -15 11 0 14 5 10 16 -3 9 -6 20 -6 25
0 5 -7 9 -15 9 -8 0 -15 7 -15 15 0 8 -7 15 -15 15 -8 0 -15 7 -15 15 0 11
-12 15 -50 15 -38 0 -50 4 -50 15 0 11 -12 15 -45 15 -33 0 -45 4 -45 15 0 13
-33 15 -240 15 -207 0 -240 -2 -240 -15z"/>
<path d="M300 743 c0 -5 90 -8 199 -8 110 0 203 3 207 8 4 4 -86 7 -199 7
-114 0 -207 -3 -207 -7z"/>
<path d="M216 705 c5 -12 -3 -15 -40 -15 -27 0 -46 -5 -46 -11 0 -6 7 -9 15
-5 8 3 15 1 15 -4 0 -6 -16 -10 -35 -10 -24 0 -35 -5 -35 -15 0 -8 -7 -15 -15
-15 -10 0 -15 -11 -15 -35 0 -24 -5 -35 -15 -35 -12 0 -15 -13 -15 -60 0 -47
-3 -60 -15 -60 -8 0 -15 -7 -15 -15 0 -10 10 -15 31 -15 29 0 31 -2 25 -27 -3
-16 -3 -22 0 -15 9 19 34 14 34 -8 0 -13 7 -20 20 -20 15 0 20 -7 20 -25 0
-16 6 -25 15 -25 8 0 15 5 15 10 0 6 57 10 152 10 83 0 149 -2 147 -4 -2 -2
-56 -7 -119 -11 -63 -4 -117 -9 -119 -11 -2 -2 -10 1 -17 7 -8 7 -14 7 -19 -1
-8 -12 -35 -11 260 -11 183 0 243 -2 225 -10 -15 -6 -92 -9 -197 -7 -94 1
-175 0 -179 -5 -4 -4 90 -7 208 -7 190 0 217 2 229 17 12 15 12 16 -5 10 -10
-4 -25 -2 -32 4 -8 6 -49 14 -92 16 -124 8 -102 18 29 15 l120 -4 -7 39 c-9
50 -24 66 -24 25 l0 -32 -199 0 c-110 0 -208 -3 -218 -7 -10 -3 -15 -3 -11 2
4 4 3 14 -2 20 -8 10 2 12 42 11 29 -1 59 -5 66 -9 7 -5 12 -3 12 7 0 13 -14
16 -80 16 -57 0 -80 -4 -80 -12 0 -9 -4 -8 -10 2 -9 13 -11 13 -19 0 -6 -8
-13 -11 -17 -8 -3 4 1 14 10 23 14 14 31 16 106 11 55 -3 90 -1 90 4 0 6 -16
10 -35 10 -35 0 -35 0 -35 45 l0 45 -87 0 c-86 0 -110 -13 -30 -16 90 -4 100
-8 37 -14 l-65 -7 57 -1 c90 -3 78 -20 -17 -24 -77 -3 -84 -1 -79 15 3 11 0
17 -10 17 -12 0 -16 -11 -16 -45 0 -43 1 -45 30 -45 21 0 30 -5 30 -16 0 -14
-3 -14 -15 -4 -12 10 -15 10 -15 -4 0 -13 11 -16 62 -16 71 0 73 -9 2 -15 -27
-2 -56 -5 -64 -7 -10 -2 -14 4 -13 19 2 15 -4 23 -19 25 -18 2 -22 10 -23 41
0 20 2 37 6 37 4 0 6 8 5 17 0 12 7 19 22 21 31 5 28 20 -5 25 -26 4 166 11
195 8 6 -1 12 3 12 9 0 6 -42 10 -115 10 -71 0 -115 4 -115 10 0 6 11 8 27 4
20 -5 25 -4 21 7 -5 11 9 13 73 11 48 -2 79 0 79 6 0 6 -20 9 -45 8 -43 -2
-45 -1 -44 23 1 17 3 20 6 9 4 -14 15 -18 59 -18 l54 0 0 35 c0 33 2 35 35 35
l35 0 0 -50 0 -50 183 0 c129 1 177 4 164 11 -9 5 -22 7 -27 4 -6 -3 -10 -1
-10 4 0 6 14 11 30 11 20 0 30 -5 30 -15 0 -10 10 -15 30 -15 20 0 30 -5 30
-15 0 -10 -10 -15 -30 -15 -20 0 -30 -5 -30 -15 0 -10 10 -15 30 -15 27 0 30
-3 30 -30 l0 -29 -160 -3 c-148 -3 -159 -2 -154 15 5 15 -2 17 -47 17 -64 0
-60 10 5 12 66 1 57 18 -10 18 -30 0 -53 3 -51 8 8 12 140 -2 145 -16 2 -8 -2
-10 -14 -5 -12 4 -15 2 -12 -8 3 -8 11 -13 18 -11 7 2 17 -3 21 -10 6 -9 9 -4
9 15 0 24 4 27 35 27 31 0 35 -3 35 -27 0 -20 3 -24 9 -14 6 9 21 12 45 9 28
-3 36 0 36 12 1 9 6 6 15 -10 l14 -25 1 28 c0 17 -5 27 -15 27 -18 0 -20 16
-2 23 6 3 -70 5 -170 6 l-183 1 0 -60 c0 -56 1 -60 24 -60 19 0 22 -4 19 -24
-3 -13 0 -27 6 -30 7 -5 11 4 11 23 0 28 3 31 30 31 27 0 30 -3 30 -31 0 -19
4 -28 11 -23 6 3 8 16 5 29 -5 19 -1 23 30 28 19 3 73 3 120 0 55 -4 84 -2 84
4 0 7 13 8 38 2 50 -12 52 -11 52 6 0 8 -4 15 -10 15 -5 0 -10 7 -10 15 0 9 9
15 23 14 12 0 16 -3 10 -6 -18 -7 -16 -23 3 -23 13 0 14 -3 5 -14 -9 -11 -8
-15 6 -18 16 -4 18 3 15 74 -3 69 -6 78 -23 78 -10 0 -19 7 -19 15 0 8 -7 15
-15 15 -8 0 -15 9 -15 20 0 16 -7 20 -30 20 -16 0 -30 5 -30 11 0 6 7 9 15 5
8 -3 15 -1 15 4 0 6 -33 10 -75 10 -57 0 -75 -3 -75 -14 0 -8 9 -12 27 -10 15
1 35 -2 45 -7 12 -6 18 -6 18 1 0 5 5 10 11 10 5 0 8 -4 5 -9 -4 -5 0 -12 6
-14 7 -3 -8 -6 -34 -6 -45 -1 -63 -13 -35 -24 6 -3 -7 -6 -31 -6 -24 -1 -41 3
-37 8 3 5 1 12 -5 16 -5 3 -10 -3 -10 -15 0 -12 -5 -18 -10 -15 -6 4 -8 10 -6
14 3 4 1 21 -4 37 -8 29 -8 29 -9 -8 -1 -34 -4 -38 -28 -39 -113 -4 -135 -3
-139 3 -3 5 32 8 77 8 45 0 79 3 75 8 -4 4 -13 7 -19 7 -7 0 -11 8 -11 18 1 9
-2 17 -7 17 -5 0 -9 -10 -9 -21 0 -18 -2 -19 -15 -9 -8 7 -15 8 -15 3 0 -5
-16 -7 -35 -5 -51 6 -43 22 11 22 25 0 43 4 40 9 -3 4 -23 6 -45 4 -22 -2 -42
1 -46 7 -4 6 21 10 72 11 43 0 89 2 103 4 14 2 53 4 88 6 34 2 62 7 62 11 0 5
-114 8 -252 7 -223 0 -249 -2 -218 -14 l35 -13 -62 -1 c-35 -1 -63 -5 -63 -11
0 -5 7 -7 15 -4 8 4 15 1 15 -5 0 -6 -13 -11 -30 -11 -23 0 -30 -4 -30 -20 0
-11 -7 -20 -15 -20 -8 0 -15 -7 -15 -15 0 -8 -9 -15 -20 -15 -18 0 -20 -7 -20
-87 0 -100 -10 -103 -20 -5 l-7 67 -2 -59 c0 -33 -4 -56 -8 -53 -4 4 -5 32 -4
63 3 57 22 93 51 95 8 1 4 4 -10 9 l-25 7 30 12 c23 10 26 14 15 21 -8 6 -10
10 -5 11 44 4 55 8 70 22 9 9 25 17 35 17 10 0 20 5 22 10 2 6 26 15 53 19
l50 9 -62 1 c-52 1 -61 -2 -57 -14z m80 -75 c44 0 36 -16 -11 -22 -23 -3 -35
0 -35 8 0 7 -3 14 -7 17 -5 2 -2 2 5 0 8 -1 29 -3 48 -3z m-93 -52 c-2 -4 -10
-2 -17 5 -8 6 -12 15 -9 19 2 4 10 2 17 -5 8 -6 12 -15 9 -19z m608 9 c-10 -9
-11 -8 -5 6 3 10 9 15 12 12 3 -3 0 -11 -7 -18z m74 -47 c3 -5 -1 -10 -10 -10
-9 0 -13 5 -10 10 3 6 8 10 10 10 2 0 7 -4 10 -10z m-170 -45 c-16 -7 -34 -10
-40 -7 -5 4 4 10 20 13 47 10 53 9 20 -6z m155 -5 c0 -5 -2 -10 -4 -10 -3 0
-8 5 -11 10 -3 6 -1 10 4 10 6 0 11 -4 11 -10z m-400 -40 c0 -5 8 -10 17 -10
14 0 15 -2 4 -12 -11 -10 -14 -10 -18 0 -3 6 -13 12 -24 12 -10 0 -19 5 -19
10 0 6 9 10 20 10 11 0 20 -4 20 -10z m-146 -29 c4 -5 -25 -11 -69 -13 -69 -3
-84 0 -70 14 10 9 133 9 139 -1z m-164 -21 c0 -5 -2 -10 -4 -10 -3 0 -8 5 -11
10 -3 6 -1 10 4 10 6 0 11 -4 11 -10z m340 -80 c0 -5 -7 -10 -15 -10 -8 0 -15
5 -15 10 0 6 7 10 15 10 8 0 15 -4 15 -10z"/>
<path d="M343 713 c10 -9 457 -11 457 -1 0 4 -104 8 -232 8 -127 0 -228 -3
-225 -7z"/>
<path d="M810 690 l-55 -6 49 -8 c27 -5 43 -12 36 -16 -8 -5 -5 -9 9 -13 12
-3 20 -11 18 -19 -2 -7 -2 -10 0 -5 3 4 13 7 23 7 10 0 20 7 24 15 4 11 -1 15
-19 15 -15 0 -25 7 -27 18 -3 14 -11 16 -58 12z"/>
<path d="M620 646 c0 -9 5 -16 10 -16 6 0 10 4 10 9 0 6 -4 13 -10 16 -5 3
-10 -1 -10 -9z"/>
<path d="M354 639 c-3 -5 6 -9 20 -9 31 0 34 6 6 13 -11 3 -23 1 -26 -4z"/>
<path d="M560 640 c0 -5 5 -10 11 -10 5 0 7 5 4 10 -3 6 -8 10 -11 10 -2 0 -4
-4 -4 -10z"/>
<path d="M928 633 c-10 -2 -18 -13 -18 -23 0 -10 -5 -20 -12 -22 -9 -3 -9 -6
0 -12 7 -4 12 -2 12 3 0 6 7 11 16 11 13 0 15 -10 11 -57 -2 -32 -2 -46 0 -30
6 38 33 36 33 -3 0 -18 5 -30 13 -30 9 0 14 12 15 30 0 20 -4 30 -14 30 -8 0
-14 7 -14 15 0 8 7 15 15 15 19 0 19 21 0 46 -13 17 -14 17 -15 2 0 -10 -7
-18 -16 -18 -12 0 -15 7 -12 25 3 14 5 24 4 24 0 -1 -9 -3 -18 -6z"/>
<path d="M660 605 c0 -8 4 -15 10 -15 5 0 7 7 4 15 -4 8 -8 15 -10 15 -2 0 -4
-7 -4 -15z"/>
<path d="M355 600 c-3 -5 3 -10 14 -10 12 0 21 5 21 10 0 6 -6 10 -14 10 -8 0
-18 -4 -21 -10z"/>
<path d="M0 575 c0 -8 6 -15 14 -15 7 0 19 7 26 15 11 13 8 15 -14 15 -16 0
-26 -5 -26 -15z"/>
<path d="M325 570 c-3 -5 -1 -10 4 -10 6 0 11 5 11 10 0 6 -2 10 -4 10 -3 0
-8 -4 -11 -10z"/>
<path d="M363 523 c9 -2 23 -2 30 0 6 3 -1 5 -18 5 -16 0 -22 -2 -12 -5z"/>
<path d="M1 484 c0 -11 3 -14 6 -6 3 7 2 16 -1 19 -3 4 -6 -2 -5 -13z"/>
<path d="M355 490 c3 -5 12 -7 20 -3 21 7 19 13 -6 13 -11 0 -18 -4 -14 -10z"/>
<path d="M618 473 c7 -3 16 -2 19 1 4 3 -2 6 -13 5 -11 0 -14 -3 -6 -6z"/>
<path d="M798 473 c6 -2 18 -2 25 0 6 3 1 5 -13 5 -14 0 -19 -2 -12 -5z"/>
<path d="M355 460 c3 -5 12 -7 20 -3 21 7 19 13 -6 13 -11 0 -18 -4 -14 -10z"/>
<path d="M956 452 c-4 -7 -12 -9 -18 -6 -6 4 -8 2 -5 -3 8 -13 67 -23 67 -11
0 4 -6 8 -14 8 -8 0 -16 5 -18 12 -3 9 -6 9 -12 0z"/>
<path d="M354 431 c3 -5 15 -7 26 -4 28 7 25 13 -6 13 -14 0 -23 -4 -20 -9z"/>
<path d="M600 401 c0 -5 -3 -16 -6 -25 -4 -11 -1 -16 10 -16 10 0 16 9 16 25
0 14 -4 25 -10 25 -5 0 -10 -4 -10 -9z"/>
<path d="M640 386 c0 -14 5 -28 10 -31 6 -4 10 7 10 24 0 17 -4 31 -10 31 -5
0 -10 -11 -10 -24z"/>
<path d="M780 395 c0 -8 5 -15 11 -15 5 0 7 -4 4 -10 -9 -15 -25 -12 -25 4 0
8 -4 18 -10 21 -6 4 -10 -7 -10 -24 0 -28 3 -31 30 -31 23 0 30 4 30 20 0 11
7 20 15 20 8 0 15 7 15 15 0 10 -10 15 -30 15 -20 0 -30 -5 -30 -15z"/>
<path d="M940 395 c0 -8 -7 -15 -15 -15 -8 0 -15 -9 -15 -20 0 -11 5 -20 11
-20 6 0 13 9 16 20 3 11 12 20 19 20 8 0 14 4 14 9 0 5 8 12 18 14 9 3 2 5
-15 6 -23 1 -33 -4 -33 -14z"/>
<path d="M432 380 c0 -14 2 -19 5 -12 2 6 2 18 0 25 -3 6 -5 1 -5 -13z"/>
<path d="M500 381 c0 -25 6 -27 13 -6 4 8 2 17 -3 20 -6 4 -10 -3 -10 -14z"/>
<path d="M560 380 c0 -11 4 -20 8 -20 4 0 8 9 9 20 1 11 -2 20 -8 20 -5 0 -9
-9 -9 -20z"/>
<path d="M857 393 c-3 -3 1 -12 9 -20 8 -9 18 -13 21 -10 3 3 -1 13 -10 21 -8
8 -17 12 -20 9z"/>
<path d="M681 374 c0 -11 3 -14 6 -6 3 7 2 16 -1 19 -3 4 -6 -2 -5 -13z"/>
<path d="M4 364 c3 -9 6 -22 6 -30 0 -8 7 -14 15 -14 8 0 15 -7 15 -15 0 -8 7
-15 15 -15 8 0 15 -7 15 -15 0 -10 11 -15 35 -15 24 0 35 -5 35 -15 0 -12 13
-15 60 -15 47 0 60 -3 60 -15 0 -13 33 -15 240 -15 207 0 240 2 240 15 0 11
12 15 45 15 33 0 45 4 45 15 0 10 10 15 30 15 20 0 30 5 30 15 0 10 11 15 35
15 24 0 35 5 35 15 0 8 7 15 15 15 8 0 15 6 15 14 0 8 3 21 6 30 4 11 1 16
-10 16 -9 0 -16 -8 -16 -20 0 -11 -7 -20 -15 -20 -8 0 -15 -7 -15 -15 0 -8 -7
-15 -15 -15 -8 0 -15 7 -15 15 0 8 -9 15 -20 15 -16 0 -20 -7 -20 -30 0 -27
-3 -30 -30 -30 -20 0 -30 -5 -30 -15 0 -11 -12 -15 -45 -15 -33 0 -45 -4 -45
-15 0 -13 -31 -15 -220 -15 -189 0 -220 2 -220 15 0 12 -13 15 -60 15 -47 0
-60 3 -60 15 0 10 -11 15 -35 15 -24 0 -35 5 -35 15 0 8 -7 15 -15 15 -8 0
-15 7 -15 15 0 8 -7 15 -15 15 -8 0 -15 9 -15 20 0 12 -7 20 -16 20 -11 0 -14
-5 -10 -16z"/>
<path d="M836 336 c5 -20 2 -26 -10 -26 -9 0 -16 -4 -16 -10 0 -19 27 -10 37
13 8 17 7 25 -4 35 -12 11 -13 10 -7 -12z"/>
<path d="M772 306 c7 -8 17 -12 22 -9 4 3 2 9 -5 14 -22 13 -31 11 -17 -5z"/>
<path d="M750 270 c0 -13 11 -13 30 0 12 8 11 10 -7 10 -13 0 -23 -4 -23 -10z"/>
</g>
</svg>
