<?xml version="1.0" standalone="no"?>
<!DOCTYPE svg PUBLIC "-//W3C//DTD SVG 20010904//EN"
 "http://www.w3.org/TR/2001/REC-SVG-20010904/DTD/svg10.dtd">
<svg version="1.0" xmlns="http://www.w3.org/2000/svg"
 width="100.000000pt" height="100.000000pt" viewBox="0 0 100.000000 100.000000"
 preserveAspectRatio="xMidYMid meet">
<metadata>
Created by potrace 1.16, written by Peter Selinger 2001-2019
</metadata>
<g transform="translate(0.000000,100.000000) scale(0.100000,-0.100000)"
fill="#000000" stroke="none">
<path d="M526 757 c-13 -10 -15 -16 -8 -21 7 -4 12 -2 12 3 0 15 57 14 64 -1
3 -7 5 -4 3 7 -3 25 -44 32 -71 12z"/>
<path d="M801 761 c-9 -6 -4 -10 18 -13 20 -3 30 -1 28 6 -5 14 -29 18 -46 7z"/>
<path d="M930 759 c0 -5 9 -9 19 -9 12 0 21 -8 23 -20 2 -14 7 -17 17 -11 12
8 12 12 3 24 -14 17 -62 29 -62 16z"/>
<path d="M310 735 c0 -11 12 -15 50 -15 38 0 50 4 50 15 0 18 -16 20 -24 3 -5
-10 -7 -10 -12 0 -8 18 -64 16 -64 -3z"/>
<path d="M620 746 c0 -2 9 -6 20 -9 11 -3 20 -1 20 4 0 5 -9 9 -20 9 -11 0
-20 -2 -20 -4z"/>
<path d="M720 736 c0 -10 9 -16 24 -16 13 0 33 -3 43 -7 17 -6 17 -6 2 10 -25
24 -69 33 -69 13z"/>
<path d="M870 732 c0 -15 -6 -18 -30 -14 -23 3 -30 0 -30 -12 0 -13 12 -16 65
-16 64 0 65 0 65 27 0 26 -1 26 -15 7 -14 -19 -14 -18 -15 4 0 15 -6 22 -20
22 -13 0 -20 -7 -20 -18z"/>
<path d="M0 705 c0 -13 21 -15 125 -15 104 0 125 2 125 15 0 13 -21 15 -125
15 -104 0 -125 -2 -125 -15z"/>
<path d="M500 705 c0 -12 17 -15 95 -15 78 0 95 3 95 15 0 12 -17 15 -95 15
-78 0 -95 -3 -95 -15z"/>
<path d="M128 682 c-74 -1 -128 -7 -128 -12 0 -6 123 -10 330 -10 l330 0 0
-62 c0 -46 -3 -59 -11 -51 -6 6 -11 30 -11 52 0 23 -3 41 -9 41 -5 0 -9 -25
-9 -55 l0 -55 -310 0 c-269 0 -310 -2 -310 -15 0 -13 33 -15 235 -15 181 0
235 -3 235 -12 0 -7 5 -5 11 5 6 10 22 17 40 17 25 0 28 -2 17 -14 -9 -10 -17
-11 -25 -4 -10 8 -13 6 -13 -6 0 -12 10 -16 41 -16 22 0 38 -4 35 -9 -3 -5
-25 -5 -48 0 -24 4 -152 8 -285 9 -210 0 -243 -2 -243 -15 0 -13 38 -15 280
-15 l280 0 0 -65 0 -65 -280 0 c-180 0 -280 -4 -280 -10 0 -10 80 -12 368 -12
104 0 112 -1 107 -18 -4 -12 1 -19 13 -22 15 -4 18 -1 14 18 -3 17 0 24 12 24
9 0 16 -8 16 -20 0 -11 7 -20 15 -20 8 0 15 7 15 15 0 8 -6 15 -12 15 -7 0 -3
7 9 15 17 12 21 25 21 70 0 31 1 57 3 58 2 1 27 0 54 -4 l50 -6 -47 -1 -48 -2
0 -50 c0 -50 0 -50 33 -50 18 0 38 -5 45 -12 7 -7 41 -11 92 -10 74 2 80 0 80
-18 0 -11 7 -20 15 -20 9 0 15 7 13 16 -2 10 3 19 11 22 10 3 12 -1 9 -16 -5
-19 -2 -21 38 -20 30 0 44 5 44 14 0 9 -11 14 -30 14 -16 0 -30 5 -30 11 0 7
10 9 25 5 14 -4 25 -2 25 4 0 6 -50 10 -135 10 l-135 0 0 62 c0 69 13 72 15 3
2 -69 15 -66 15 3 l0 62 -65 0 -65 0 1 43 c0 23 3 36 6 30 7 -18 23 -16 23 2
0 12 14 15 65 15 l65 0 0 -45 0 -45 80 0 80 0 0 -30 c0 -27 3 -30 30 -30 29 0
30 -1 30 -50 0 -33 4 -50 13 -50 8 0 12 20 12 65 l0 65 -32 -6 c-32 -6 -33 -5
-32 27 2 31 2 31 6 7 7 -45 33 -35 33 12 0 22 -5 40 -11 40 -6 0 -3 7 5 16 9
8 16 24 16 35 0 10 5 19 10 19 6 0 10 7 10 15 0 8 -5 15 -11 15 -8 0 -7 5 1
16 11 12 10 18 -3 32 -16 15 -17 12 -17 -46 l0 -62 -110 0 c-91 0 -110 3 -110
15 0 8 7 15 15 15 11 0 15 12 15 50 l0 50 110 0 c81 0 110 3 110 13 0 9 -32
12 -124 12 l-125 0 3 -40 c2 -22 1 -28 -1 -12 -2 15 -11 27 -19 27 -8 0 -14 6
-14 13 0 12 -265 16 -592 9z m562 -64 c0 -49 -5 -47 -14 5 -4 23 -3 37 4 37 5
0 10 -19 10 -42z m43 -2 c-1 -17 3 -26 13 -26 8 0 14 -4 14 -10 0 -5 -6 -9
-12 -7 -7 1 -12 -4 -10 -10 1 -9 -10 -13 -35 -12 -33 2 -34 3 -9 6 27 4 28 6
23 49 -3 31 -1 44 7 41 6 -2 10 -16 9 -31z m77 -112 c0 -2 -9 -4 -20 -4 -11 0
-20 4 -20 9 0 5 9 7 20 4 11 -3 20 -7 20 -9z m-243 -16 c-3 -8 -6 -5 -6 6 -1
11 2 17 5 13 3 -3 4 -12 1 -19z m276 2 c-4 -14 0 -20 11 -20 9 0 16 4 16 9 0
5 9 7 20 4 11 -3 20 -1 20 5 0 6 -10 13 -22 15 -13 2 -6 4 14 3 48 -1 54 -31
9 -41 -31 -7 -141 -3 -141 5 0 3 17 12 38 22 20 9 38 17 39 17 0 1 -1 -8 -4
-19z m-167 -146 c0 -19 -4 -34 -8 -34 -4 0 -8 14 -8 30 0 17 -4 30 -10 30 -5
0 -10 -9 -10 -19 0 -34 -18 -32 -22 2 -3 31 -2 32 27 29 28 -3 31 -7 31 -38z"/>
<path d="M800 647 c-3 -3 -4 -26 -2 -51 l4 -46 47 2 46 1 -42 4 -42 4 -3 45
c-2 25 -5 44 -8 41z"/>
<path d="M940 596 c0 -31 4 -55 8 -52 10 6 8 93 -2 103 -3 3 -6 -19 -6 -51z"/>
<path d="M538 633 c12 -2 32 -2 45 0 12 2 2 4 -23 4 -25 0 -35 -2 -22 -4z"/>
<path d="M843 633 c15 -2 39 -2 55 0 15 2 2 4 -28 4 -30 0 -43 -2 -27 -4z"/>
<path d="M0 610 c0 -19 7 -20 250 -20 243 0 250 1 250 20 0 19 -7 20 -250 20
-243 0 -250 -1 -250 -20z"/>
<path d="M853 583 c9 -2 23 -2 30 0 6 3 -1 5 -18 5 -16 0 -22 -2 -12 -5z"/>
<path d="M243 562 c-7 -4 20 -6 60 -4 108 5 122 9 32 10 -44 1 -85 -2 -92 -6z"/>
<path d="M472 558 c-9 -3 19 -6 63 -6 83 0 84 5 2 10 -26 2 -55 0 -65 -4z"/>
<path d="M13 553 c9 -2 25 -2 35 0 9 3 1 5 -18 5 -19 0 -27 -2 -17 -5z"/>
<path d="M673 463 c9 -2 23 -2 30 0 6 3 -1 5 -18 5 -16 0 -22 -2 -12 -5z"/>
<path d="M870 380 c0 -46 2 -50 23 -46 12 3 30 5 40 5 9 1 17 5 17 11 0 6 -3
9 -7 9 -41 -7 -53 2 -53 36 0 19 -4 35 -10 35 -5 0 -10 -22 -10 -50z"/>
<path d="M447 413 c18 -2 50 -2 70 0 21 2 7 4 -32 4 -38 0 -55 -2 -38 -4z"/>
<path d="M737 400 c-3 -11 -1 -20 4 -20 5 0 9 9 9 20 0 11 -2 20 -4 20 -2 0
-6 -9 -9 -20z"/>
<path d="M783 413 c9 -2 25 -2 35 0 9 3 1 5 -18 5 -19 0 -27 -2 -17 -5z"/>
<path d="M840 371 c0 -29 4 -50 8 -47 9 5 6 86 -3 94 -3 3 -5 -18 -5 -47z"/>
<path d="M0 400 c0 -6 66 -11 163 -13 l162 -3 -162 -2 c-156 -2 -163 -3 -163
-22 0 -19 7 -20 205 -20 l205 0 0 35 c0 19 -4 35 -10 35 -5 0 -10 -13 -10 -30
0 -16 -4 -30 -10 -30 -5 0 -10 14 -10 30 l0 30 -185 0 c-114 0 -185 -4 -185
-10z m347 -32 c-3 -8 -6 -5 -6 6 -1 11 2 17 5 13 3 -3 4 -12 1 -19z m-100 -4
c-3 -3 -12 -4 -19 -1 -8 3 -5 6 6 6 11 1 17 -2 13 -5z"/>
<path d="M432 370 c0 -14 2 -19 5 -12 2 6 2 18 0 25 -3 6 -5 1 -5 -13z"/>
<path d="M478 383 c7 -3 16 -2 19 1 4 3 -2 6 -13 5 -11 0 -14 -3 -6 -6z"/>
<path d="M532 370 c0 -14 2 -19 5 -12 2 6 2 18 0 25 -3 6 -5 1 -5 -13z"/>
<path d="M788 383 c7 -3 16 -2 19 1 4 3 -2 6 -13 5 -11 0 -14 -3 -6 -6z"/>
<path d="M443 333 c9 -2 25 -2 35 0 9 3 1 5 -18 5 -19 0 -27 -2 -17 -5z"/>
<path d="M530 329 c0 -5 5 -7 10 -4 6 3 10 8 10 11 0 2 -4 4 -10 4 -5 0 -10
-5 -10 -11z"/>
<path d="M763 333 c15 -2 37 -2 50 0 12 2 0 4 -28 4 -27 0 -38 -2 -22 -4z"/>
<path d="M579 285 c-3 -6 -3 -21 1 -35 3 -14 8 -20 11 -15 3 6 3 21 -1 35 -3
14 -8 20 -11 15z"/>
<path d="M310 270 c0 -5 14 -10 30 -10 17 0 30 5 30 10 0 6 -13 10 -30 10 -16
0 -30 -4 -30 -10z"/>
<path d="M620 265 c0 -10 11 -15 35 -15 24 0 35 5 35 15 0 10 -11 15 -35 15
-24 0 -35 -5 -35 -15z"/>
<path d="M750 265 c0 -10 9 -14 30 -12 39 3 39 27 0 27 -20 0 -30 -5 -30 -15z"/>
<path d="M8 253 c7 -3 16 -2 19 1 4 3 -2 6 -13 5 -11 0 -14 -3 -6 -6z"/>
<path d="M223 243 c15 -2 37 -2 50 0 12 2 0 4 -28 4 -27 0 -38 -2 -22 -4z"/>
<path d="M708 243 c6 -2 18 -2 25 0 6 3 1 5 -13 5 -14 0 -19 -2 -12 -5z"/>
<path d="M980 240 c0 -5 5 -10 10 -10 6 0 10 5 10 10 0 6 -4 10 -10 10 -5 0
-10 -4 -10 -10z"/>
</g>
</svg>
