<?xml version="1.0" standalone="no"?>
<!DOCTYPE svg PUBLIC "-//W3C//DTD SVG 20010904//EN"
 "http://www.w3.org/TR/2001/REC-SVG-20010904/DTD/svg10.dtd">
<svg version="1.0" xmlns="http://www.w3.org/2000/svg"
 width="100.000000pt" height="100.000000pt" viewBox="0 0 100.000000 100.000000"
 preserveAspectRatio="xMidYMid meet">
<metadata>
Created by potrace 1.16, written by Peter Selinger 2001-2019
</metadata>
<g transform="translate(0.000000,100.000000) scale(0.100000,-0.100000)"
fill="#000000" stroke="none">
<path d="M30 500 c0 -327 3 -500 10 -500 7 0 10 165 10 475 l0 475 275 0 275
0 0 -30 0 -30 -140 0 c-118 0 -140 -2 -140 -15 0 -10 -10 -15 -29 -15 -16 0
-36 -7 -45 -15 -8 -8 -18 -15 -23 -15 -16 -1 -53 -48 -53 -69 0 -12 -6 -21
-15 -21 -22 0 -22 -281 0 -304 8 -8 15 -18 15 -23 1 -18 49 -53 74 -53 18 0
24 -4 20 -15 -4 -8 -12 -15 -20 -15 -8 0 -14 -7 -14 -15 0 -8 -7 -15 -15 -15
-8 0 -15 -7 -15 -15 0 -8 -7 -15 -15 -15 -8 0 -15 -7 -15 -15 0 -8 -7 -15 -16
-15 -12 0 -14 -10 -12 -48 3 -43 5 -47 29 -50 17 -2 29 -11 32 -24 3 -11 10
-17 16 -13 7 3 11 -2 11 -14 0 -12 7 -21 15 -21 8 0 15 -7 15 -15 0 -8 5 -15
10 -15 6 0 19 -9 29 -19 12 -12 30 -18 48 -17 42 4 51 12 45 41 -2 15 0 25 7
25 6 0 11 -16 11 -35 0 -19 5 -35 10 -35 6 0 10 16 10 35 l0 35 136 0 c127 0
136 1 141 20 4 14 14 20 34 20 19 0 29 5 29 15 0 9 9 15 23 15 27 0 67 41 67
69 0 12 6 21 15 21 10 0 15 10 15 29 0 20 6 30 20 34 18 5 20 14 20 91 0 75
-3 87 -20 98 -11 7 -20 23 -20 36 0 12 -7 25 -15 28 -8 4 -15 12 -15 20 0 8
-6 14 -14 14 -8 0 -16 6 -19 14 -3 8 -20 16 -38 18 l-31 3 25 28 c15 15 31 27
37 27 5 0 10 7 10 15 0 8 7 15 15 15 8 0 15 7 15 15 0 8 7 15 15 15 11 0 15
12 15 50 0 36 -4 50 -14 50 -8 0 -16 7 -20 15 -3 8 -12 15 -21 15 -8 0 -15 4
-15 10 0 5 -11 12 -25 16 -16 4 -25 13 -25 25 0 10 -7 19 -15 19 -8 0 -15 5
-15 10 0 6 50 10 130 10 85 0 130 4 130 11 0 7 -58 10 -180 8 l-180 -2 0 -39
c0 -21 -4 -38 -10 -38 -5 0 -10 18 -10 40 l0 40 -290 0 c-253 0 -289 2 -284
15 4 8 1 15 -5 15 -8 0 -11 -141 -11 -500z m660 425 c0 -10 10 -15 30 -15 23
0 30 -4 30 -20 0 -11 7 -20 15 -20 8 0 15 -7 15 -15 0 -8 7 -15 15 -15 8 0 15
-7 15 -15 0 -8 7 -15 15 -15 8 0 15 -7 15 -15 0 -8 5 -15 11 -15 6 0 9 7 5 15
-3 8 -1 15 4 15 6 0 10 -13 10 -30 0 -20 -5 -30 -15 -30 -8 0 -15 -7 -15 -15
0 -10 -10 -15 -30 -15 -20 0 -30 -5 -30 -15 0 -8 -7 -15 -15 -15 -8 0 -15 -7
-15 -15 0 -8 -7 -15 -15 -15 -8 0 -15 -7 -15 -15 0 -8 -7 -15 -15 -15 -8 0
-15 -9 -15 -20 0 -17 7 -20 45 -20 33 0 45 -4 45 -15 0 -8 7 -15 15 -15 8 0
15 -7 15 -15 0 -8 7 -15 15 -15 8 0 15 -7 15 -15 0 -8 7 -15 15 -15 13 0 15
-21 15 -125 0 -85 -4 -125 -11 -125 -6 0 -9 7 -5 15 3 8 1 15 -4 15 -6 0 -10
-13 -10 -30 0 -20 -5 -30 -15 -30 -8 0 -15 -7 -15 -15 0 -8 -7 -15 -15 -15 -8
0 -15 -7 -15 -15 0 -10 -10 -15 -30 -15 -16 0 -30 -4 -30 -10 0 -5 7 -7 15 -4
8 4 15 1 15 -5 0 -8 -58 -11 -190 -11 -122 0 -190 -4 -190 -10 0 -7 53 -10
143 -11 78 0 150 0 160 0 9 0 17 -4 17 -10 0 -5 -67 -9 -160 -9 l-160 0 0 -30
c0 -20 -5 -30 -15 -30 -8 0 -15 7 -15 15 0 10 -10 15 -30 15 -16 0 -30 5 -30
11 0 6 7 9 15 5 8 -3 15 -1 15 4 0 6 -13 10 -30 10 -23 0 -30 4 -30 20 0 11
-7 20 -15 20 -8 0 -15 7 -15 15 0 8 -7 15 -15 15 -8 0 -15 7 -15 15 0 8 -7 15
-15 15 -8 0 -15 7 -15 15 0 8 7 15 15 15 8 0 15 7 15 15 0 10 10 15 30 15 17
0 30 4 30 10 0 5 -7 7 -15 4 -8 -4 -15 -1 -15 5 0 6 14 11 30 11 20 0 30 5 30
15 0 8 7 15 15 15 8 0 15 7 15 15 0 8 7 15 15 15 8 0 15 7 15 15 0 8 7 15 15
15 11 0 15 -12 15 -45 l0 -45 110 0 c61 0 110 4 110 9 0 6 -43 10 -97 9 l-97
0 -4 31 c-2 17 2 31 7 31 6 0 11 -11 11 -25 l0 -25 105 0 c87 0 105 3 105 15
0 8 7 15 16 15 14 0 14 -3 4 -15 -10 -12 -10 -15 4 -15 13 0 16 13 16 80 0 73
-2 80 -20 80 -11 0 -20 7 -20 15 0 10 -10 15 -30 15 -20 0 -30 5 -30 15 0 10
-10 15 -30 15 -20 0 -30 5 -30 15 0 8 -7 15 -15 15 -8 0 -15 7 -15 15 0 12 17
15 95 15 l95 0 0 50 0 50 -110 0 c-70 0 -110 -4 -110 -10 0 -6 6 -10 13 -9 6
1 50 1 97 0 l86 -1 2 -29 c1 -16 -2 -32 -8 -36 -6 -4 -10 6 -10 24 l0 31 -105
0 c-87 0 -105 -3 -105 -15 0 -8 -9 -15 -20 -15 -17 0 -20 -7 -20 -50 0 -43 3
-50 20 -50 11 0 20 -7 20 -15 0 -8 7 -15 15 -15 8 0 15 -7 15 -15 0 -10 10
-15 30 -15 17 0 30 -5 30 -11 0 -6 -7 -9 -15 -5 -8 3 -15 1 -15 -4 0 -6 20
-10 45 -10 43 0 45 -1 45 -30 l0 -30 -155 0 c-131 0 -155 2 -155 15 0 8 -7 15
-15 15 -8 0 -15 7 -15 15 0 8 -7 15 -15 15 -10 0 -15 10 -15 30 0 17 -4 30
-10 30 -5 0 -7 -7 -4 -15 4 -8 1 -15 -5 -15 -7 0 -11 40 -11 125 0 74 4 125
10 125 5 0 7 -7 4 -15 -4 -8 -1 -15 5 -15 6 0 11 14 11 30 0 20 5 30 15 30 8
0 15 7 15 15 0 8 7 15 15 15 8 0 15 7 15 15 0 10 10 15 30 15 17 0 30 4 30 10
0 5 -7 7 -15 4 -8 -4 -15 -1 -15 5 0 8 58 11 190 11 105 0 190 3 190 8 0 4
-72 7 -160 6 -88 0 -160 3 -160 8 0 4 72 8 160 8 l160 0 0 35 c0 24 5 35 15
35 8 0 15 -7 15 -15z m30 5 c0 -5 -2 -10 -4 -10 -3 0 -8 5 -11 10 -3 6 -1 10
4 10 6 0 11 -4 11 -10z m-480 -124 c0 -3 -4 -8 -10 -11 -5 -3 -10 -1 -10 4 0
6 5 11 10 11 6 0 10 -2 10 -4z m-30 -30 c0 -3 -4 -8 -10 -11 -5 -3 -10 -1 -10
4 0 6 5 11 10 11 6 0 10 -2 10 -4z m600 -76 c0 -5 -5 -10 -11 -10 -5 0 -7 5
-4 10 3 6 8 10 11 10 2 0 4 -4 4 -10z m-210 -75 c0 -12 -15 -15 -75 -15 l-75
0 0 -45 c0 -25 -4 -45 -10 -45 -14 0 -12 88 3 105 18 21 157 21 157 0z m-194
-32 c-10 -10 -19 5 -10 18 6 11 8 11 12 0 2 -7 1 -15 -2 -18z m404 -13 c0 -5
-2 -10 -4 -10 -3 0 -8 5 -11 10 -3 6 -1 10 4 10 6 0 11 -4 11 -10z m-400 -30
c0 -5 -2 -10 -4 -10 -3 0 -8 5 -11 10 -3 6 -1 10 4 10 6 0 11 -4 11 -10z m430
0 c0 -5 -2 -10 -4 -10 -3 0 -8 5 -11 10 -3 6 -1 10 4 10 6 0 11 -4 11 -10z
m-355 -10 c3 -5 1 -10 -4 -10 -6 0 -11 5 -11 10 0 6 2 10 4 10 3 0 8 -4 11
-10z m25 -40 c0 -5 -7 -10 -15 -10 -8 0 -15 5 -15 10 0 6 7 10 15 10 8 0 15
-4 15 -10z m95 -20 c3 -5 1 -10 -4 -10 -6 0 -11 5 -11 10 0 6 2 10 4 10 3 0 8
-4 11 -10z m-35 -10 c0 -5 -7 -10 -15 -10 -8 0 -15 5 -15 10 0 6 7 10 15 10 8
0 15 -4 15 -10z m340 -80 c0 -49 -4 -80 -10 -80 -7 0 -10 30 -9 80 1 44 6 80
10 80 5 0 9 -36 9 -80z m-275 60 c3 -5 1 -10 -4 -10 -6 0 -11 5 -11 10 0 6 2
10 4 10 3 0 8 -4 11 -10z m-31 -15 c3 -8 12 -15 20 -15 10 0 14 -10 14 -30 -1
-23 -5 -29 -15 -25 -9 3 -17 -3 -20 -15 -5 -18 -14 -20 -89 -20 -68 0 -84 3
-84 15 0 12 15 15 75 15 l75 0 0 45 c0 44 12 60 24 30z m-399 -15 c3 -5 1 -10
-4 -10 -6 0 -11 5 -11 10 0 6 2 10 4 10 3 0 8 -4 11 -10z m30 -30 c3 -5 1 -10
-4 -10 -6 0 -11 5 -11 10 0 6 2 10 4 10 3 0 8 -4 11 -10z m35 -84 c0 -3 -4 -8
-10 -11 -5 -3 -10 -1 -10 4 0 6 5 11 10 11 6 0 10 -2 10 -4z m570 -106 c0 -5
-5 -10 -11 -10 -5 0 -7 5 -4 10 3 6 8 10 11 10 2 0 4 -4 4 -10z m-665 -30 c3
-5 1 -10 -4 -10 -6 0 -11 5 -11 10 0 6 2 10 4 10 3 0 8 -4 11 -10z m635 0 c0
-5 -5 -10 -11 -10 -5 0 -7 5 -4 10 3 6 8 10 11 10 2 0 4 -4 4 -10z m-485 -130
c3 -5 1 -10 -4 -10 -6 0 -11 5 -11 10 0 6 2 10 4 10 3 0 8 -4 11 -10z"/>
<path d="M720 886 c0 -9 5 -16 10 -16 6 0 10 4 10 9 0 6 -4 13 -10 16 -5 3
-10 -1 -10 -9z"/>
<path d="M810 739 c0 -5 5 -7 10 -4 6 3 10 8 10 11 0 2 -4 4 -10 4 -5 0 -10
-5 -10 -11z"/>
<path d="M370 649 c0 -5 5 -7 10 -4 6 3 10 8 10 11 0 2 -4 4 -10 4 -5 0 -10
-5 -10 -11z"/>
<path d="M370 510 c0 -5 7 -10 16 -10 8 0 12 5 9 10 -3 6 -10 10 -16 10 -5 0
-9 -4 -9 -10z"/>
<path d="M410 480 c0 -5 5 -10 11 -10 5 0 7 5 4 10 -3 6 -8 10 -11 10 -2 0 -4
-4 -4 -10z"/>
<path d="M682 410 c0 -19 2 -27 5 -17 2 9 2 25 0 35 -3 9 -5 1 -5 -18z"/>
<path d="M530 420 c0 -5 5 -10 11 -10 5 0 7 5 4 10 -3 6 -8 10 -11 10 -2 0 -4
-4 -4 -10z"/>
<path d="M378 403 c6 -2 18 -2 25 0 6 3 1 5 -13 5 -14 0 -19 -2 -12 -5z"/>
<path d="M205 230 c-3 -5 -1 -10 4 -10 6 0 11 5 11 10 0 6 -2 10 -4 10 -3 0
-8 -4 -11 -10z"/>
<path d="M260 121 c0 -6 5 -13 10 -16 6 -3 10 1 10 9 0 9 -4 16 -10 16 -5 0
-10 -4 -10 -9z"/>
</g>
</svg>
