<?xml version="1.0" standalone="no"?>
<!DOCTYPE svg PUBLIC "-//W3C//DTD SVG 20010904//EN"
 "http://www.w3.org/TR/2001/REC-SVG-20010904/DTD/svg10.dtd">
<svg version="1.0" xmlns="http://www.w3.org/2000/svg"
 width="100.000000pt" height="100.000000pt" viewBox="0 0 100.000000 100.000000"
 preserveAspectRatio="xMidYMid meet">
<metadata>
Created by potrace 1.16, written by Peter Selinger 2001-2019
</metadata>
<g transform="translate(0.000000,100.000000) scale(0.100000,-0.100000)"
fill="#000000" stroke="none">
<path d="M600 965 l0 -35 -170 0 c-163 0 -170 -1 -170 -20 0 -16 -7 -20 -30
-20 -20 0 -30 -5 -30 -15 0 -8 -7 -15 -15 -15 -8 0 -15 -7 -15 -15 0 -8 -7
-15 -15 -15 -8 0 -15 -7 -15 -15 0 -8 -7 -15 -15 -15 -10 0 -15 -10 -15 -30 0
-23 -4 -30 -20 -30 -19 0 -20 -7 -20 -130 0 -123 1 -130 20 -130 16 0 20 -7
20 -30 0 -20 5 -30 15 -30 8 0 15 -7 15 -15 0 -8 7 -15 15 -15 8 0 15 -7 15
-15 0 -10 10 -15 30 -15 20 0 30 -5 30 -15 0 -8 -7 -15 -15 -15 -8 0 -15 -7
-15 -15 0 -10 -10 -15 -30 -15 -20 0 -30 -5 -30 -15 0 -8 -7 -15 -15 -15 -8 0
-15 -7 -15 -15 0 -8 -9 -15 -20 -15 -17 0 -20 -7 -20 -50 l0 -50 35 0 c24 0
35 -5 35 -15 0 -8 7 -15 15 -15 8 0 15 -9 15 -20 0 -11 7 -20 15 -20 8 0 15
-7 15 -15 0 -8 7 -15 15 -15 8 0 15 -7 15 -15 0 -9 9 -15 24 -15 13 0 31 -3
40 -6 11 -4 16 -1 16 10 0 11 -9 16 -30 16 -20 0 -30 5 -30 15 0 8 -7 15 -15
15 -8 0 -15 7 -15 15 0 8 -7 15 -15 15 -8 0 -15 9 -15 20 0 11 -7 20 -15 20
-8 0 -15 7 -15 15 0 10 -11 15 -35 15 -32 0 -35 2 -35 30 0 23 4 30 20 30 11
0 20 7 20 15 0 8 7 15 15 15 8 0 15 7 15 15 0 10 10 15 30 15 20 0 30 5 30 15
0 8 7 15 15 15 8 0 15 7 15 15 0 8 7 15 15 15 8 0 15 9 15 20 0 17 7 20 45 20
45 0 45 0 45 -35 l0 -35 110 0 c91 0 110 3 110 15 0 8 7 15 15 15 8 0 15 9 15
20 0 13 7 20 20 20 16 0 20 7 20 30 0 23 -4 30 -20 30 -11 0 -20 7 -20 15 0 8
-7 15 -15 15 -8 0 -15 7 -15 15 0 10 -10 15 -30 15 -20 0 -30 5 -30 15 0 8 -7
15 -15 15 -8 0 -15 7 -15 15 0 10 -10 15 -30 15 -28 0 -30 3 -30 35 l0 35 185
0 c178 0 185 -1 185 -20 0 -11 7 -20 15 -20 8 0 15 -7 15 -15 0 -8 7 -15 15
-15 10 0 15 -10 15 -30 0 -23 4 -30 20 -30 19 0 20 -7 20 -110 0 -103 -1 -110
-20 -110 -16 0 -20 -7 -20 -30 0 -20 -5 -30 -15 -30 -8 0 -15 -7 -15 -15 0 -8
-7 -15 -15 -15 -8 0 -15 -7 -15 -15 0 -8 -7 -15 -15 -15 -8 0 -15 -7 -15 -15
0 -10 -10 -15 -30 -15 -23 0 -30 -4 -30 -20 0 -19 -7 -20 -175 -20 l-175 0 0
-45 c0 -25 5 -45 10 -45 6 0 10 16 10 35 l0 35 175 0 c168 0 175 1 175 20 0
16 7 20 30 20 20 0 30 5 30 15 0 8 7 15 15 15 8 0 15 7 15 15 0 8 7 15 15 15
8 0 15 7 15 15 0 8 7 15 15 15 10 0 15 10 15 30 0 23 4 30 20 30 19 0 20 7 20
130 0 123 -1 130 -20 130 -16 0 -20 7 -20 30 0 20 -5 30 -15 30 -8 0 -15 7
-15 15 0 8 -7 15 -15 15 -8 0 -15 9 -15 20 0 16 -7 20 -30 20 -16 0 -30 5 -30
10 0 6 7 10 15 10 8 0 15 7 15 15 0 8 7 15 15 15 8 0 15 7 15 15 0 10 10 15
30 15 20 0 30 5 30 15 0 8 9 15 20 15 16 0 20 7 20 35 0 28 -4 35 -20 35 -11
0 -20 7 -20 15 0 8 -7 15 -15 15 -8 0 -15 7 -15 15 0 8 -7 15 -15 15 -8 0 -15
9 -15 20 0 11 -7 20 -15 20 -8 0 -15 7 -15 15 0 10 -10 15 -30 15 -20 0 -30 5
-30 15 0 8 -4 15 -9 15 -5 0 -16 3 -25 6 -11 4 -16 1 -16 -10 0 -9 7 -16 15
-16 8 0 15 -7 15 -15 0 -10 10 -15 30 -15 20 0 30 -5 30 -15 0 -8 7 -15 15
-15 8 0 15 -9 15 -20 0 -11 7 -20 15 -20 8 0 15 -7 15 -15 0 -8 7 -15 15 -15
8 0 15 -7 15 -15 0 -8 9 -15 20 -15 11 0 20 -7 20 -15 0 -8 -9 -15 -20 -15
-11 0 -20 -7 -20 -15 0 -10 -10 -15 -30 -15 -20 0 -30 -5 -30 -15 0 -8 -7 -15
-15 -15 -8 0 -15 -7 -15 -15 0 -8 -7 -15 -15 -15 -8 0 -15 -7 -15 -15 0 -8 -7
-15 -15 -15 -8 0 -15 -3 -15 -7 0 -5 -22 -8 -50 -8 -45 0 -50 2 -50 23 0 21
-3 22 -105 22 -87 0 -105 -3 -105 -15 0 -8 -9 -15 -20 -15 -11 0 -20 -7 -20
-15 0 -8 -7 -15 -15 -15 -10 0 -15 -11 -15 -35 0 -24 5 -35 15 -35 8 0 15 -7
15 -15 0 -8 9 -15 20 -15 11 0 20 -7 20 -15 0 -10 10 -15 30 -15 20 0 30 -5
30 -15 0 -8 7 -15 15 -15 8 0 15 -7 15 -15 0 -10 10 -15 30 -15 27 0 30 -3 30
-30 l0 -30 -94 0 c-53 0 -98 4 -101 10 -8 13 -85 13 -85 0 0 -5 -20 -10 -45
-10 -33 0 -45 4 -45 15 0 8 -7 15 -15 15 -8 0 -15 7 -15 15 0 8 -7 15 -15 15
-10 0 -15 10 -15 30 0 23 -4 30 -20 30 -19 0 -20 7 -20 110 0 103 1 110 20
110 16 0 20 7 20 30 0 20 5 30 15 30 8 0 15 7 15 15 0 8 7 15 15 15 8 0 15 7
15 15 0 8 7 15 15 15 8 0 15 7 15 15 0 10 10 15 30 15 23 0 30 4 30 20 0 19 7
20 170 20 l170 0 0 45 c0 25 -4 45 -10 45 -5 0 -10 -16 -10 -35z m0 -305 c0
-6 -35 -10 -85 -10 -50 0 -85 4 -85 10 0 6 35 10 85 10 50 0 85 -4 85 -10z
m-180 -65 c0 -33 -4 -45 -15 -45 -8 0 -15 7 -15 15 0 8 -7 15 -15 15 -8 0 -15
7 -15 15 0 8 7 15 15 15 8 0 15 7 15 15 0 8 7 15 15 15 11 0 15 -12 15 -45z
m60 -65 c0 -5 -11 -10 -25 -10 -14 0 -25 5 -25 10 0 6 11 10 25 10 14 0 25 -4
25 -10z m30 -30 c0 -5 -4 -10 -10 -10 -5 0 -10 5 -10 10 0 6 5 10 10 10 6 0
10 -4 10 -10z m60 -30 c0 -5 -11 -10 -25 -10 -14 0 -25 5 -25 10 0 6 11 10 25
10 14 0 25 -4 25 -10z m30 -35 c0 -8 9 -15 20 -15 11 0 20 -4 20 -10 0 -5 -9
-10 -20 -10 -13 0 -20 -7 -20 -20 0 -11 -4 -20 -10 -20 -5 0 -10 20 -10 45 0
25 5 45 10 45 6 0 10 -7 10 -15z m-30 -90 c0 -12 -17 -15 -90 -15 -73 0 -90 3
-90 15 0 12 17 15 90 15 73 0 90 -3 90 -15z"/>
</g>
</svg>
