<?xml version="1.0" standalone="no"?>
<!DOCTYPE svg PUBLIC "-//W3C//DTD SVG 20010904//EN"
 "http://www.w3.org/TR/2001/REC-SVG-20010904/DTD/svg10.dtd">
<svg version="1.0" xmlns="http://www.w3.org/2000/svg"
 width="100.000000pt" height="100.000000pt" viewBox="0 0 100.000000 100.000000"
 preserveAspectRatio="xMidYMid meet">
<metadata>
Created by potrace 1.16, written by Peter Selinger 2001-2019
</metadata>
<g transform="translate(0.000000,100.000000) scale(0.100000,-0.100000)"
fill="#000000" stroke="none">
<path d="M0 980 c0 -24 6 -25 26 -6 19 20 18 26 -6 26 -13 0 -20 -7 -20 -20z"/>
<path d="M600 960 l0 -40 -104 0 c-59 0 -108 -4 -111 -10 -3 -5 -26 -10 -51
-10 -32 0 -44 -4 -44 -15 0 -8 -9 -15 -20 -15 -11 0 -20 -4 -20 -10 0 -5 -7
-10 -15 -10 -20 0 -85 -65 -85 -85 0 -8 -4 -15 -10 -15 -5 0 -10 -9 -10 -19 0
-10 -7 -21 -15 -25 -12 -4 -15 -26 -15 -106 0 -82 3 -100 15 -100 8 0 15 -9
15 -20 0 -11 5 -20 10 -20 6 0 10 -7 10 -15 0 -28 72 -85 106 -85 19 0 7 -13
-46 -50 -61 -43 -83 -69 -77 -96 2 -13 0 -24 -4 -24 -5 0 -9 10 -9 22 0 16 -3
19 -11 11 -12 -12 4 -53 22 -53 12 0 59 -46 59 -57 0 -5 14 -17 31 -27 16 -10
45 -33 64 -52 52 -52 105 -43 105 18 l0 28 119 0 c69 0 122 4 126 10 3 5 20
10 36 10 17 0 45 11 65 26 l34 26 0 -24 c0 -35 18 -48 66 -48 48 0 67 17 62
57 -3 25 -7 28 -45 31 -24 2 -43 5 -43 8 0 3 9 14 20 26 11 12 20 28 20 35 0
7 5 13 10 13 6 0 10 9 10 19 0 10 7 21 15 25 12 4 15 25 15 97 0 77 -2 90 -15
85 -8 -3 -14 -2 -14 2 5 30 -7 55 -47 97 -42 45 -49 48 -92 48 -40 0 -42 0
-14 6 18 3 33 9 32 14 0 4 0 11 0 15 0 4 13 15 29 25 59 34 91 73 91 109 0 28
-6 37 -40 58 -22 14 -40 29 -40 33 0 12 -56 63 -91 84 -16 10 -29 21 -29 25 0
4 -16 8 -35 8 -34 0 -35 -1 -35 -40z m45 10 c-3 -5 -1 -10 5 -10 7 0 25 -13
40 -30 15 -16 36 -30 47 -30 15 0 16 -2 3 -10 -12 -8 -11 -10 8 -10 12 0 22
-5 22 -10 0 -18 68 -80 74 -67 2 7 5 2 5 -10 1 -15 -5 -23 -15 -23 -8 0 -37
-22 -64 -50 -27 -27 -55 -50 -62 -50 -8 0 -20 -9 -28 -20 -8 -11 -21 -20 -28
-20 -8 0 -12 -6 -10 -12 3 -8 29 -14 69 -16 44 -2 59 -6 49 -12 -13 -8 -12
-10 3 -10 22 0 67 -43 67 -65 0 -8 5 -15 10 -15 6 0 10 -46 10 -117 0 -80 -3
-113 -10 -103 -8 12 -10 11 -10 -7 0 -13 -4 -23 -10 -23 -5 0 -10 -7 -10 -16
0 -21 -24 -44 -47 -44 -15 0 -16 -2 -3 -10 12 -8 11 -10 -7 -10 -13 0 -23 -4
-23 -10 0 -5 -19 -10 -42 -10 -30 0 -39 -3 -28 -9 8 -6 18 -7 22 -5 4 3 8 0 8
-5 0 -7 -57 -11 -170 -11 l-170 0 0 -50 c0 -27 -3 -50 -6 -50 -3 0 -27 23 -54
50 -27 28 -56 50 -64 50 -9 0 -16 5 -16 11 0 5 5 7 10 4 5 -3 10 -1 10 4 0 6
-7 11 -15 11 -18 0 -65 44 -65 60 0 15 25 40 40 40 6 0 29 18 50 40 21 22 47
40 57 40 15 0 16 2 3 10 -12 8 -11 10 8 10 13 0 22 6 22 15 0 8 5 15 10 15 6
0 10 -20 10 -45 l0 -45 108 0 c73 0 102 3 92 10 -12 7 -8 10 15 10 19 0 36 8
45 20 8 11 20 20 27 20 9 0 13 19 13 68 -1 63 -2 66 -15 42 -11 -20 -14 -21
-15 -7 0 22 -44 67 -65 67 -8 0 -15 5 -15 10 0 6 -9 10 -20 10 -11 0 -20 5
-20 10 0 6 -9 10 -20 10 -13 0 -20 7 -20 20 0 18 7 20 80 20 l80 0 0 55 0 55
-82 -2 -83 -2 80 -6 80 -6 -107 -2 c-64 -1 -108 -6 -108 -12 0 -5 -5 -10 -11
-10 -26 0 -39 -30 -39 -92 0 -44 3 -59 10 -48 8 12 10 11 10 -7 0 -18 6 -23
25 -23 14 0 25 -4 25 -10 0 -5 10 -10 23 -10 18 0 19 -2 7 -10 -11 -7 -6 -10
20 -10 26 0 31 -3 20 -10 -13 -8 -12 -10 3 -10 17 0 47 -22 47 -34 0 -3 -68
-6 -150 -6 l-151 0 -34 35 c-19 19 -35 42 -35 52 0 15 -2 16 -10 3 -7 -10 -10
27 -10 115 0 88 3 125 10 115 8 -12 10 -11 10 8 0 12 5 22 10 22 6 0 10 10 11
23 0 12 3 16 6 9 3 -8 14 -2 33 18 15 16 36 30 47 30 15 0 16 2 3 10 -11 7 1
10 40 11 l55 1 -35 11 c-30 10 -13 12 123 15 l157 3 0 49 c0 39 4 50 16 50 8
0 12 -4 9 -10z m-507 -365 c0 -34 -4 -69 -9 -76 -5 -9 -9 21 -9 76 0 55 4 85
9 76 5 -7 9 -42 9 -76z m462 55 c0 -5 -24 -10 -54 -10 -89 0 -100 -14 -16 -21
l75 -5 -82 -2 -83 -2 0 -39 c0 -37 2 -39 68 -72 74 -37 85 -46 95 -71 3 -10
11 -18 17 -18 5 0 10 -7 10 -15 0 -8 -5 -14 -12 -12 -6 1 -14 -7 -16 -18 -8
-35 -33 -44 -124 -45 -71 0 -88 3 -88 15 0 11 18 15 83 17 l82 3 3 48 c3 42 1
47 -17 47 -12 0 -21 5 -21 10 0 6 -9 10 -20 10 -11 0 -20 5 -20 10 0 6 -6 10
-13 10 -7 0 -23 9 -35 20 -12 11 -25 20 -29 20 -5 0 -14 14 -22 31 -13 29 -12
32 14 52 15 12 33 27 39 34 14 15 166 18 166 3z m280 -277 c0 -81 -15 -87 -19
-7 -2 43 5 84 15 84 2 0 4 -35 4 -77z m-582 0 c-10 -2 -26 -2 -35 0 -10 3 -2
5 17 5 19 0 27 -2 18 -5z m190 0 c-21 -2 -57 -2 -80 0 -24 2 -7 4 37 4 44 0
63 -2 43 -4z m392 -258 c0 -14 -5 -25 -11 -25 -5 0 -8 4 -5 8 2 4 1 14 -5 22
-6 10 -9 11 -9 3 0 -8 -13 -13 -30 -13 -20 0 -30 5 -30 15 0 11 12 15 45 15
41 0 45 -2 45 -25z m-337 -22 c-35 -2 -91 -2 -125 0 -35 2 -7 3 62 3 69 0 97
-1 63 -3z m295 0 c-10 -2 -26 -2 -35 0 -10 3 -2 5 17 5 19 0 27 -2 18 -5z"/>
<path d="M638 910 c-3 -16 -1 -30 4 -30 4 0 8 14 8 30 0 17 -2 30 -4 30 -2 0
-6 -13 -8 -30z"/>
<path d="M637 678 c7 -46 13 -48 13 -5 0 21 -4 37 -9 37 -5 0 -7 -15 -4 -32z"/>
<path d="M960 994 c0 -3 6 -12 14 -20 20 -19 26 -18 26 6 0 13 -7 20 -20 20
-11 0 -20 -3 -20 -6z"/>
<path d="M0 20 c0 -13 7 -20 20 -20 24 0 25 6 6 26 -20 19 -26 18 -26 -6z"/>
<path d="M973 25 c-18 -20 -16 -25 7 -25 13 0 20 7 20 20 0 23 -10 25 -27 5z"/>
</g>
</svg>
