<?xml version="1.0" standalone="no"?>
<!DOCTYPE svg PUBLIC "-//W3C//DTD SVG 20010904//EN"
 "http://www.w3.org/TR/2001/REC-SVG-20010904/DTD/svg10.dtd">
<svg version="1.0" xmlns="http://www.w3.org/2000/svg"
 width="64.000000pt" height="64.000000pt" viewBox="0 0 64.000000 64.000000"
 preserveAspectRatio="xMidYMid meet">
<metadata>
Created by potrace 1.16, written by Peter Selinger 2001-2019
</metadata>
<g transform="translate(0.000000,64.000000) scale(0.100000,-0.100000)"
fill="#000000" stroke="none">
<path d="M60 315 l0 -255 260 0 260 0 0 255 0 255 -260 0 -260 0 0 -255z m500
0 l0 -235 -240 0 -240 0 0 235 0 235 240 0 240 0 0 -235z"/>
<path d="M431 503 c-36 -13 -71 -29 -78 -35 -8 -6 -13 -33 -13 -69 0 -55 2
-59 26 -65 38 -10 114 2 132 20 22 22 31 177 11 175 -8 -1 -43 -12 -78 -26z
m69 -11 c0 -4 -5 -13 -12 -20 -9 -9 -8 -12 6 -12 25 0 11 -17 -19 -22 -28 -6
-32 3 -10 22 8 7 15 19 15 26 0 8 5 14 10 14 6 0 10 -4 10 -8z m-62 -32 c-14
-22 -39 -23 -46 -1 -3 9 2 11 17 6 12 -4 21 -2 21 4 0 6 5 11 10 11 6 0 5 -8
-2 -20z m-58 -57 c-9 -20 -14 -24 -18 -13 -3 7 1 16 8 18 10 4 10 6 0 12 -7 4
-9 13 -5 20 5 8 10 9 18 1 7 -7 7 -19 -3 -38z m113 7 c-10 -9 -83 -21 -83 -13
0 3 7 11 16 18 17 12 81 8 67 -5z m-28 -40 c-32 -11 -105 -19 -105 -11 0 15
42 26 83 22 32 -3 37 -5 22 -11z"/>
<path d="M122 513 c-13 -2 -21 -10 -19 -16 64 -161 69 -167 137 -167 55 0 60
7 60 76 0 51 -4 68 -20 84 -11 11 -23 20 -27 20 -5 0 -30 2 -58 4 -27 2 -60 2
-73 -1z m70 -35 c2 -12 8 -23 15 -25 7 -3 9 3 6 16 -3 12 -1 21 6 21 6 0 11
-11 11 -24 0 -32 10 -56 22 -56 6 0 8 14 5 35 -3 19 -2 35 2 35 4 0 8 -6 9
-12 1 -7 4 -35 8 -61 l7 -48 -57 56 c-31 30 -66 55 -76 55 -11 0 -20 5 -20 11
0 6 9 9 20 6 11 -3 20 -1 20 4 0 19 19 8 22 -13z m23 -80 c19 -18 35 -37 35
-41 0 -5 -7 -1 -16 7 -18 19 -34 21 -34 4 0 -9 -3 -9 -11 -1 -14 14 -2 36 13
27 7 -4 8 -2 4 4 -5 8 -13 9 -25 3 -13 -7 -17 -5 -18 10 -2 27 11 24 52 -13z"/>
<path d="M105 309 c-4 -6 -5 -12 -2 -15 2 -3 7 2 10 11 7 17 1 20 -8 4z"/>
<path d="M520 299 c0 -5 5 -7 10 -4 6 3 10 8 10 11 0 2 -4 4 -10 4 -5 0 -10
-5 -10 -11z"/>
<path d="M163 290 c-12 -5 -27 -19 -34 -31 -12 -23 -17 -144 -7 -155 10 -9
152 45 166 63 6 9 12 40 12 69 l0 51 -37 7 c-49 8 -73 7 -100 -4z m117 -18 c0
-16 -44 -28 -75 -22 -33 8 -21 16 30 23 17 2 33 5 38 6 4 0 7 -3 7 -7z m-110
-16 c0 -3 -4 -8 -10 -11 -5 -3 -10 -1 -10 4 0 6 5 11 10 11 6 0 10 -2 10 -4z
m54 -30 c-7 -19 -23 -24 -59 -16 -32 7 -23 15 25 23 14 2 28 5 32 6 4 0 5 -5
2 -13z m56 -8 c0 -19 -2 -20 -10 -8 -13 19 -13 30 0 30 6 0 10 -10 10 -22z
m-15 -46 c-3 -3 -12 3 -21 14 -12 14 -14 15 -11 3 6 -18 -10 -39 -30 -39 -7 0
-13 5 -13 10 0 6 7 10 16 10 8 0 13 4 9 9 -3 5 5 17 17 25 21 15 23 15 30 -5
5 -12 6 -24 3 -27z m-88 0 c-10 -10 -17 -24 -17 -30 0 -7 -5 -12 -11 -12 -6 0
-8 9 -4 20 4 13 2 20 -6 20 -19 0 2 17 26 22 28 6 31 1 12 -20z"/>
<path d="M363 293 c-24 -5 -27 -14 -25 -93 2 -68 25 -85 116 -85 41 0 77 3 80
6 3 3 -9 41 -28 84 -38 91 -59 104 -143 88z m122 -133 c8 0 17 -5 21 -12 5 -8
0 -9 -14 -6 -12 4 -22 2 -22 -3 0 -19 -19 -8 -22 13 -2 12 -9 24 -17 26 -10 3
-12 0 -8 -11 3 -9 2 -19 -2 -22 -5 -2 -12 11 -15 30 -9 48 -26 54 -26 9 0 -21
-2 -35 -5 -32 -7 7 -23 106 -19 111 2 2 29 -21 60 -50 31 -29 62 -53 69 -53z
m-25 88 c8 -13 15 -25 15 -28 0 -3 4 -11 9 -18 4 -7 5 -16 2 -19 -3 -4 -6 -1
-6 6 0 7 -5 9 -10 6 -6 -3 -13 1 -16 9 -3 9 -11 13 -18 10 -6 -3 -2 2 9 11 19
16 19 16 -10 9 -28 -7 -29 -6 -15 11 14 16 13 17 -8 11 -13 -5 -22 -3 -22 3 0
21 55 12 70 -11z"/>
</g>
</svg>
