<?xml version="1.0" standalone="no"?>
<!DOCTYPE svg PUBLIC "-//W3C//DTD SVG 20010904//EN"
 "http://www.w3.org/TR/2001/REC-SVG-20010904/DTD/svg10.dtd">
<svg version="1.0" xmlns="http://www.w3.org/2000/svg"
 width="64.000000pt" height="64.000000pt" viewBox="0 0 64.000000 64.000000"
 preserveAspectRatio="xMidYMid meet">
<metadata>
Created by potrace 1.16, written by Peter Selinger 2001-2019
</metadata>
<g transform="translate(0.000000,64.000000) scale(0.100000,-0.100000)"
fill="#000000" stroke="none">
<path d="M0 590 c0 -6 51 -10 133 -11 102 0 127 -3 110 -11 -18 -9 -23 -20
-23 -50 0 -28 -4 -38 -16 -38 -8 0 -33 -10 -54 -22 -28 -17 -40 -30 -40 -46 0
-16 -19 -41 -55 -74 -48 -43 -55 -55 -55 -87 l1 -36 13 30 c14 32 104 120 113
111 3 -3 -12 -24 -35 -46 -157 -157 93 -243 360 -123 69 30 138 100 138 138 0
33 -41 71 -85 79 -19 4 -35 11 -35 17 0 11 36 4 98 -18 32 -11 48 -24 58 -47
l14 -31 -2 40 c-3 37 -6 41 -48 57 -25 9 -57 20 -72 23 -16 3 -28 12 -28 20 0
22 -50 19 -80 -5 -14 -11 -28 -20 -32 -20 -5 0 -8 32 -8 70 l0 70 135 0 c83 0
135 4 135 10 0 6 -113 10 -320 10 -207 0 -320 -4 -320 -10z m350 -219 c0 -194
-1 -210 -17 -209 -10 1 -33 -2 -50 -6 l-33 -8 0 99 c0 54 -3 141 -6 193 l-6
95 39 22 c75 43 73 49 73 -186z m-130 -66 l0 -155 -45 0 -45 0 0 84 c0 47 5
88 10 91 6 3 10 15 10 26 0 10 -4 19 -10 19 -5 0 -10 10 -10 23 0 15 12 29 38
44 20 12 40 22 45 23 4 0 7 -70 7 -155z m250 150 c0 -3 -6 -15 -12 -26 -10
-17 -10 -23 0 -26 8 -3 12 -33 12 -99 0 -84 -2 -94 -18 -94 -10 0 -27 -7 -38
-15 -10 -8 -22 -15 -26 -15 -5 0 -8 51 -8 114 l0 113 38 26 c37 25 52 32 52
22z m74 -100 c31 -28 27 -41 -23 -89 l-31 -30 0 72 c0 81 9 89 54 47z m-438
-173 c-10 -9 -36 20 -36 40 0 11 8 30 18 43 l17 23 3 -50 c2 -28 1 -53 -2 -56z"/>
<path d="M632 283 c-1 -12 -7 -25 -12 -28 -6 -4 -8 -15 -5 -24 13 -43 -163
-158 -258 -167 -42 -4 -42 -4 11 11 29 8 76 26 105 40 55 26 137 90 137 107 0
5 -19 -7 -42 -27 -87 -74 -212 -115 -350 -115 -116 0 -185 28 -209 85 -6 17
-8 15 -8 -12 -1 -22 6 -37 24 -51 32 -25 32 -42 0 -42 -14 0 -25 -4 -25 -10 0
-6 113 -10 320 -10 207 0 320 4 320 10 0 6 -38 10 -92 10 l-93 1 56 30 c31 17
73 48 93 68 35 36 37 41 33 92 -2 30 -4 44 -5 32z m-506 -221 c-6 -6 -56 10
-56 18 0 5 13 3 30 -3 16 -6 28 -13 26 -15z"/>
</g>
</svg>
