<?xml version="1.0" standalone="no"?>
<!DOCTYPE svg PUBLIC "-//W3C//DTD SVG 20010904//EN"
 "http://www.w3.org/TR/2001/REC-SVG-20010904/DTD/svg10.dtd">
<svg version="1.0" xmlns="http://www.w3.org/2000/svg"
 width="100.000000pt" height="100.000000pt" viewBox="0 0 100.000000 100.000000"
 preserveAspectRatio="xMidYMid meet">
<metadata>
Created by potrace 1.16, written by Peter Selinger 2001-2019
</metadata>
<g transform="translate(0.000000,100.000000) scale(0.100000,-0.100000)"
fill="#000000" stroke="none">
<path d="M330 820 c-11 -7 6 -10 58 -10 41 0 72 -4 72 -10 0 -6 -31 -10 -72
-10 -51 0 -68 -3 -58 -10 8 -5 27 -10 43 -10 27 0 36 -13 17 -25 -5 -3 -10
-16 -10 -29 0 -16 -9 -25 -37 -35 -58 -21 -87 -42 -71 -52 10 -7 9 -9 -3 -9
-10 0 -19 -11 -22 -28 -3 -15 -15 -38 -26 -51 -17 -20 -23 -22 -36 -11 -13 11
-15 7 -15 -29 0 -22 5 -41 10 -41 6 0 10 5 10 10 0 6 5 10 10 10 6 0 10 -9 10
-20 0 -11 -4 -20 -10 -20 -5 0 -10 -19 -10 -43 0 -31 5 -46 20 -57 14 -10 16
-16 7 -22 -7 -5 2 -8 23 -8 26 0 31 -3 20 -10 -11 -7 -8 -9 15 -9 17 1 41 5
55 9 24 8 23 8 -7 9 l-33 1 0 145 c0 138 1 145 20 145 11 0 20 5 20 11 0 5 -4
7 -10 4 -5 -3 -10 -1 -10 4 0 6 9 11 20 11 11 0 20 5 20 10 0 6 5 10 10 10 6
0 10 -67 10 -180 l0 -180 -29 0 c-17 0 -33 -5 -36 -10 -4 -6 23 -10 74 -10 48
0 81 4 81 10 0 6 -16 9 -37 6 -21 -2 -30 -1 -20 1 16 4 17 24 17 234 0 222 1
229 20 229 11 0 20 5 20 10 0 6 9 10 20 10 11 0 20 5 20 10 0 6 9 10 20 10 19
0 20 -7 20 -240 l0 -240 29 0 c17 0 33 5 36 10 3 6 19 10 36 10 16 0 29 5 29
10 0 6 -16 10 -35 10 -19 0 -35 -4 -35 -10 0 -5 -9 -10 -20 -10 -19 0 -20 6
-18 138 l2 137 6 -135 6 -135 2 132 c1 94 6 133 15 136 9 4 8 8 -3 16 -12 9
-11 11 8 11 12 0 22 5 22 10 0 6 11 10 25 10 l25 0 0 -150 c0 -93 4 -150 10
-150 6 0 10 5 10 11 0 14 26 39 40 39 6 0 22 11 35 25 21 20 25 34 25 80 0 30
-4 55 -10 55 -5 0 -10 5 -10 10 0 15 29 12 46 -4 9 -10 14 -37 14 -83 0 -48
-3 -63 -10 -53 -8 12 -10 11 -10 -7 0 -13 -4 -23 -10 -23 -5 0 -10 -4 -10 -10
0 -16 14 -12 38 10 l22 21 0 -66 c0 -42 4 -64 10 -60 6 4 10 58 10 131 l0 124
-34 36 c-30 32 -39 36 -73 32 -21 -3 -46 -8 -55 -12 -13 -6 -18 -4 -18 8 0 12
10 16 43 16 31 0 38 3 27 10 -8 5 -25 10 -37 10 -12 0 -27 9 -33 20 -11 21
-54 28 -65 10 -3 -5 -15 -10 -26 -10 -10 0 -19 -4 -19 -10 0 -5 -4 -10 -10
-10 -5 0 -11 39 -12 88 l-3 87 -105 3 c-58 1 -112 -2 -120 -8z m68 -347 c-2
-179 -6 -158 -10 60 -2 64 0 117 5 117 4 0 6 -80 5 -177z m382 117 c-20 -13
-70 -13 -70 0 0 6 19 10 43 10 31 0 38 -3 27 -10z m-30 -86 c0 -18 -8 -38 -20
-49 -20 -18 -20 -17 -20 44 0 59 1 61 20 49 13 -8 20 -24 20 -44z m-500 0 c0
-8 -6 -22 -14 -29 -12 -12 -15 -12 -20 1 -6 15 11 43 27 44 4 0 7 -7 7 -16z
m597 -31 c-3 -10 -5 -2 -5 17 0 19 2 27 5 18 2 -10 2 -26 0 -35z"/>
<path d="M522 543 l-2 -233 -47 -1 c-36 0 -43 -3 -28 -9 11 -5 36 -9 55 -9
l35 -1 -3 182 c-4 293 -8 321 -10 71z"/>
<path d="M138 534 c-5 -4 -8 -57 -8 -119 l0 -111 53 -56 c28 -30 67 -61 86
-67 74 -24 306 -9 337 22 4 4 18 7 30 7 13 0 26 4 29 10 3 6 15 10 26 10 10 0
19 5 19 10 0 6 6 10 13 10 10 0 28 12 84 60 8 6 13 5 16 -3 3 -7 6 7 6 31 1
23 -3 42 -9 42 -5 0 -10 -5 -10 -10 0 -17 -47 -60 -65 -60 -8 0 -15 5 -15 10
0 6 9 10 20 10 11 0 20 5 20 10 0 6 -9 10 -20 10 -11 0 -20 -4 -20 -10 0 -5
-9 -10 -21 -10 -11 0 -17 -4 -14 -10 3 -6 -1 -10 -9 -10 -9 0 -16 -4 -16 -10
0 -14 38 -12 43 3 2 6 8 9 12 5 10 -9 -19 -38 -39 -38 -9 0 -16 -4 -16 -10 0
-5 -16 -10 -35 -10 -19 0 -35 5 -35 10 0 6 11 10 25 10 14 0 25 5 25 10 0 6
-11 10 -25 10 -14 0 -25 -4 -25 -10 0 -5 -18 -10 -40 -10 -22 0 -40 -4 -40
-10 0 -6 -52 -10 -135 -10 -83 0 -135 4 -135 10 0 6 -9 10 -20 10 -11 0 -20 5
-20 10 0 6 -9 10 -20 10 -17 0 -20 7 -21 53 -2 48 -2 50 -9 17 -7 -33 -7 -32
-9 15 0 36 2 46 9 35 7 -11 10 -7 10 18 0 17 -4 32 -9 32 -6 0 -11 18 -13 41
-2 22 -6 37 -10 33z m255 -304 c78 0 149 -5 157 -10 10 -6 -36 -10 -138 -10
-157 0 -183 6 -182 42 0 8 4 7 11 -4 9 -16 27 -18 152 -18z m217 10 c11 -7 4
-10 -27 -10 -24 0 -43 5 -43 10 0 13 50 13 70 0z m-187 -47 c-13 -2 -35 -2
-50 0 -16 2 -5 4 22 4 28 0 40 -2 28 -4z"/>
<path d="M802 510 c0 -19 2 -27 5 -17 2 9 2 25 0 35 -3 9 -5 1 -5 -18z"/>
<path d="M608 373 c6 -2 18 -2 25 0 6 3 1 5 -13 5 -14 0 -19 -2 -12 -5z"/>
<path d="M750 369 c0 -5 5 -7 10 -4 6 3 10 1 10 -5 0 -6 5 -8 10 -5 17 10 11
25 -10 25 -11 0 -20 -5 -20 -11z"/>
</g>
</svg>
