<?xml version="1.0" standalone="no"?>
<!DOCTYPE svg PUBLIC "-//W3C//DTD SVG 20010904//EN"
 "http://www.w3.org/TR/2001/REC-SVG-20010904/DTD/svg10.dtd">
<svg version="1.0" xmlns="http://www.w3.org/2000/svg"
 width="100.000000pt" height="100.000000pt" viewBox="0 0 100.000000 100.000000"
 preserveAspectRatio="xMidYMid meet">
<metadata>
Created by potrace 1.16, written by Peter Selinger 2001-2019
</metadata>
<g transform="translate(0.000000,100.000000) scale(0.100000,-0.100000)"
fill="#000000" stroke="none">
<path d="M370 970 c0 -27 -3 -30 -30 -30 -28 0 -30 -3 -30 -35 0 -32 -2 -35
-30 -35 -27 0 -30 -3 -30 -30 0 -27 -3 -30 -30 -30 -27 0 -30 -3 -30 -30 0
-27 -3 -30 -30 -30 -27 0 -30 -3 -30 -30 0 -27 3 -30 30 -30 l30 0 0 -220 0
-220 185 0 c178 0 185 1 185 20 0 24 -6 25 -26 5 -22 -22 -34 -18 -34 10 0 25
0 25 95 25 l95 0 0 35 c0 32 2 35 30 35 27 0 30 3 30 30 0 27 -3 30 -30 30
-27 0 -30 3 -30 30 0 25 4 30 24 30 19 0 23 -4 19 -19 -3 -10 0 -22 6 -25 8
-5 11 29 11 113 l0 121 60 0 60 0 0 -30 c0 -28 3 -30 35 -30 33 0 35 -2 35
-35 0 -32 2 -35 30 -35 17 0 30 5 30 10 0 6 -9 10 -20 10 -16 0 -20 7 -20 35
0 33 -2 35 -34 35 -25 0 -35 5 -39 20 -5 18 0 20 54 20 33 0 59 4 59 10 0 6
-25 10 -55 10 -30 0 -55 5 -55 10 0 6 25 10 55 10 30 0 55 5 55 10 0 6 -26 10
-58 10 l-58 0 4 40 4 40 -61 0 c-34 0 -61 -4 -61 -10 0 -5 5 -10 10 -10 6 0
10 -13 10 -30 0 -16 -4 -30 -10 -30 -5 0 -10 -5 -10 -11 0 -7 18 -10 50 -7 39
2 50 0 50 -12 0 -12 -13 -15 -60 -15 -56 0 -60 2 -60 23 0 21 -4 22 -65 22
l-65 0 0 -30 c0 -27 -3 -30 -30 -30 l-30 0 0 125 0 125 30 0 c27 0 30 3 30 30
0 17 -4 30 -10 30 -5 0 -10 -9 -10 -20 0 -11 -4 -20 -10 -20 -5 0 -10 9 -10
20 0 11 -4 20 -10 20 -5 0 -10 -13 -10 -30 l0 -30 -60 0 -60 0 0 30 c0 17 -4
30 -10 30 -5 0 -10 -9 -10 -20 0 -11 -7 -20 -15 -20 -8 0 -15 9 -15 20 0 11
-4 20 -10 20 -5 0 -10 -13 -10 -30z m70 -65 c0 -33 -2 -35 -35 -35 -33 0 -35
2 -35 35 0 33 2 35 35 35 33 0 35 -2 35 -35z m-90 0 c0 -8 -4 -15 -10 -15 -5
0 -10 7 -10 15 0 8 5 15 10 15 6 0 10 -7 10 -15z m192 -112 c0 -71 1 -136 0
-145 -1 -10 3 -18 8 -18 6 0 10 9 10 20 0 16 7 20 30 20 23 0 30 -4 30 -20 0
-14 -7 -20 -22 -20 -21 -1 -21 -2 -5 -11 15 -9 17 -22 15 -85 l-2 -74 -47 0
-47 0 0 171 c0 98 -4 175 -10 181 -5 5 -22 8 -38 6 l-29 -3 -5 -185 c-3 -102
-2 -198 1 -215 4 -16 7 66 8 183 l1 212 30 0 30 0 0 -185 0 -185 95 0 95 0 0
-30 0 -30 -95 0 -95 0 0 -31 c0 -25 -3 -29 -19 -24 -11 3 -22 1 -26 -5 -3 -5
2 -10 13 -10 15 0 19 -5 15 -20 -7 -27 -43 -27 -43 0 0 16 -7 20 -31 20 -17 0
-28 -4 -24 -10 3 -5 13 -10 21 -10 8 0 14 -4 14 -10 0 -5 -11 -10 -25 -10 -18
0 -25 5 -25 20 0 16 -7 20 -30 20 -23 0 -30 -4 -30 -20 0 -13 -7 -20 -20 -20
-25 0 -25 9 -2 26 15 12 14 13 -10 14 -25 0 -28 4 -28 35 0 31 3 35 28 36 16
1 20 3 10 6 -21 5 -24 39 -5 46 6 3 2 6 -10 6 -19 1 -23 7 -23 31 0 27 3 30
30 30 27 0 30 -3 30 -30 0 -16 5 -30 10 -30 15 0 12 49 -4 66 -8 8 -22 14 -30
14 -22 0 -20 27 2 33 13 4 11 5 -6 6 -19 1 -21 5 -16 26 4 15 2 25 -5 25 -7 0
-11 -21 -11 -55 0 -48 -2 -55 -20 -55 -15 0 -20 7 -20 29 0 16 6 32 13 35 9 5
9 7 0 12 -7 3 -13 17 -13 30 0 17 6 24 20 24 13 0 20 7 20 19 0 11 4 23 10 26
6 3 10 17 10 31 0 23 3 24 60 24 l60 0 0 60 0 60 35 0 c33 0 35 2 35 35 0 34
1 35 40 35 l40 0 2 -127z m-172 17 l0 -60 -60 0 -60 0 0 30 c0 27 3 30 30 30
27 0 30 3 30 30 0 27 3 30 30 30 l30 0 0 -60z m-80 30 c0 -5 -4 -10 -10 -10
-5 0 -10 5 -10 10 0 6 5 10 10 10 6 0 10 -4 10 -10z m580 -60 c0 -27 -3 -30
-30 -30 -27 0 -30 3 -30 30 0 27 3 30 30 30 27 0 30 -3 30 -30z m-640 0 c0 -5
-4 -10 -10 -10 -5 0 -10 5 -10 10 0 6 5 10 10 10 6 0 10 -4 10 -10z m20 -60
c0 -27 -3 -30 -30 -30 -27 0 -30 3 -30 30 0 27 3 30 30 30 27 0 30 -3 30 -30z
m480 2 c0 -2 -8 -11 -17 -18 -16 -12 -16 -13 -2 -14 11 0 18 -11 21 -30 4 -26
1 -30 -19 -30 -21 0 -23 4 -23 54 0 49 2 54 20 49 11 -3 20 -8 20 -11z m-560
-2 c0 -5 -4 -10 -10 -10 -5 0 -10 5 -10 10 0 6 5 10 10 10 6 0 10 -4 10 -10z
m500 -30 c0 -29 -4 -40 -15 -40 -11 0 -15 11 -15 40 0 29 4 40 15 40 11 0 15
-11 15 -40z m-430 -30 c0 -5 -7 -10 -15 -10 -8 0 -15 5 -15 10 0 6 7 10 15 10
8 0 15 -4 15 -10z m441 -57 c1 -22 3 -24 6 -7 6 31 43 20 43 -12 0 -17 -6 -24
-20 -24 -15 0 -20 -7 -20 -24 0 -14 -4 -28 -10 -31 -5 -3 -10 -15 -10 -26 0
-10 -4 -19 -9 -19 -5 0 -16 -3 -25 -6 -14 -5 -16 6 -16 85 l0 91 30 0 c26 0
30 -4 31 -27z m49 -73 c0 -5 -7 -10 -15 -10 -8 0 -15 5 -15 10 0 6 7 10 15 10
8 0 15 -4 15 -10z m-500 -60 c0 -5 -4 -10 -10 -10 -5 0 -10 5 -10 10 0 6 5 10
10 10 6 0 10 -4 10 -10z m20 -60 c0 -23 -4 -30 -20 -30 -16 0 -20 7 -20 30 0
23 4 30 20 30 16 0 20 -7 20 -30z m480 0 c0 -5 -4 -10 -10 -10 -5 0 -10 5 -10
10 0 6 5 10 10 10 6 0 10 -4 10 -10z m-170 -60 c0 -13 -7 -20 -20 -20 -25 0
-27 27 -2 33 9 3 18 5 20 6 1 0 2 -8 2 -19z m101 10 c5 0 9 -7 9 -15 0 -9 -9
-15 -25 -15 -19 0 -25 5 -25 21 0 15 4 19 16 15 9 -3 20 -6 25 -6z m-431 -20
c0 -11 -4 -20 -10 -20 -5 0 -10 9 -10 20 0 11 5 20 10 20 6 0 10 -9 10 -20z
m370 5 c0 -8 -4 -15 -10 -15 -5 0 -10 7 -10 15 0 8 5 15 10 15 6 0 10 -7 10
-15z m-350 -55 c0 -13 -7 -20 -20 -20 -13 0 -20 7 -20 20 0 13 7 20 20 20 13
0 20 -7 20 -20z m100 -10 c0 -5 -4 -10 -10 -10 -5 0 -10 5 -10 10 0 6 5 10 10
10 6 0 10 -4 10 -10z"/>
<path d="M268 633 c7 -3 16 -2 19 1 4 3 -2 6 -13 5 -11 0 -14 -3 -6 -6z"/>
<path d="M312 590 c0 -14 2 -19 5 -12 2 6 2 18 0 25 -3 6 -5 1 -5 -13z"/>
<path d="M310 391 c0 -6 14 -11 30 -11 25 0 30 -4 30 -25 0 -14 5 -25 10 -25
6 0 10 11 10 24 0 17 -7 27 -22 31 -13 4 -31 9 -40 11 -10 3 -18 1 -18 -5z"/>
<path d="M425 370 c3 -5 8 -10 11 -10 2 0 4 5 4 10 0 6 -5 10 -11 10 -5 0 -7
-4 -4 -10z"/>
<path d="M458 373 c7 -3 16 -2 19 1 4 3 -2 6 -13 5 -11 0 -14 -3 -6 -6z"/>
<path d="M620 840 l0 -30 65 0 65 0 0 30 0 30 -65 0 -65 0 0 -30z m70 0 c0 -5
-11 -10 -25 -10 -14 0 -25 5 -25 10 0 6 11 10 25 10 14 0 25 -4 25 -10z m40 0
c0 -5 -4 -10 -10 -10 -5 0 -10 5 -10 10 0 6 5 10 10 10 6 0 10 -4 10 -10z"/>
<path d="M730 780 c0 -5 5 -10 10 -10 6 0 10 5 10 10 0 6 -4 10 -10 10 -5 0
-10 -4 -10 -10z"/>
<path d="M60 670 c0 -11 5 -20 10 -20 6 0 10 5 10 10 0 14 28 12 33 -2 2 -7 8
-10 12 -6 11 11 -21 38 -44 38 -14 0 -21 -6 -21 -20z"/>
<path d="M810 654 c0 -8 5 -12 10 -9 6 3 10 10 10 16 0 5 -4 9 -10 9 -5 0 -10
-7 -10 -16z"/>
<path d="M60 572 c0 -67 -17 -112 -42 -112 -10 0 -18 -4 -18 -10 0 -5 13 -10
30 -10 27 0 30 3 30 30 0 28 3 30 35 30 l35 0 0 65 0 65 -35 0 -35 0 0 -58z
m50 23 c0 -8 -7 -15 -15 -15 -8 0 -15 7 -15 15 0 8 7 15 15 15 8 0 15 -7 15
-15z m0 -55 c0 -11 -6 -20 -14 -20 -7 0 -16 9 -19 20 -4 15 0 20 14 20 12 0
19 -7 19 -20z"/>
<path d="M773 616 c10 -8 17 -26 17 -45 0 -28 3 -31 30 -31 38 0 40 -18 3 -22
-26 -3 -28 -6 -31 -57 -2 -37 -9 -59 -20 -68 -15 -11 -14 -12 11 -13 26 0 27
1 27 60 l0 60 30 0 c27 0 30 3 30 30 0 27 -3 30 -30 30 -28 0 -30 3 -30 35 0
32 -3 35 -27 35 -25 -1 -26 -2 -10 -14z"/>
<path d="M145 570 c-3 -5 3 -10 14 -10 12 0 21 5 21 10 0 6 -6 10 -14 10 -8 0
-18 -4 -21 -10z"/>
<path d="M150 510 c0 -5 5 -10 10 -10 6 0 10 5 10 10 0 6 -4 10 -10 10 -5 0
-10 -4 -10 -10z"/>
<path d="M118 484 c-12 -11 -10 -44 2 -44 6 0 10 -28 10 -65 0 -64 0 -65 28
-65 24 1 25 2 10 14 -23 17 -25 96 -3 96 8 0 15 5 15 10 0 6 -11 10 -24 10
-19 0 -25 6 -28 26 -2 14 -6 22 -10 18z"/>
<path d="M847 470 c-22 -26 -21 -30 3 -30 15 0 20 7 20 25 0 30 -1 30 -23 5z"/>
<path d="M940 415 c0 -14 5 -25 10 -25 6 0 10 7 10 15 0 8 9 15 20 15 11 0 20
5 20 10 0 6 -13 10 -30 10 -25 0 -30 -4 -30 -25z"/>
<path d="M817 373 c-11 -10 -8 -43 3 -43 6 0 10 7 10 15 0 8 5 15 10 15 6 0
10 5 10 10 0 11 -23 14 -33 3z"/>
<path d="M870 345 c0 -32 -2 -35 -30 -35 -27 0 -30 -3 -30 -30 l0 -30 -60 0
-60 0 0 -30 0 -30 -247 0 -247 0 24 -22 c16 -15 25 -18 28 -10 5 17 119 16
125 -1 4 -9 6 -9 6 1 1 16 58 16 64 0 4 -9 8 -10 14 -2 4 6 16 13 26 17 13 5
17 1 17 -18 l0 -25 -125 0 -125 0 0 -35 0 -35 125 0 125 0 0 35 c0 31 3 35 28
35 24 1 25 2 10 14 -23 17 -23 22 2 29 16 4 20 0 20 -19 0 -23 3 -24 65 -24
l65 0 0 30 0 30 60 0 60 0 0 -30 c0 -27 -3 -30 -30 -30 -28 0 -30 -3 -30 -35
0 -32 2 -35 30 -35 28 0 30 3 30 35 0 32 2 35 30 35 27 0 30 3 30 30 0 27 -3
30 -30 30 -27 0 -30 3 -30 30 0 27 3 30 30 30 27 0 30 3 30 30 0 28 3 30 35
30 33 0 35 2 35 35 0 33 -2 35 -35 35 -33 0 -35 -2 -35 -35z m50 0 c0 -8 -7
-15 -15 -15 -8 0 -15 7 -15 15 0 8 7 15 15 15 8 0 15 -7 15 -15z m-70 -65 c0
-5 -4 -10 -10 -10 -5 0 -10 5 -10 10 0 6 5 10 10 10 6 0 10 -4 10 -10z m-100
-64 c0 -9 -7 -12 -20 -9 -11 3 -20 9 -20 14 0 5 9 9 20 9 11 0 20 -6 20 -14z
m40 4 c0 -5 -4 -10 -10 -10 -5 0 -10 5 -10 10 0 6 5 10 10 10 6 0 10 -4 10
-10z m-120 -60 c0 -5 -20 -10 -45 -10 -25 0 -45 5 -45 10 0 6 20 10 45 10 25
0 45 -4 45 -10z m180 0 c0 -5 -4 -10 -10 -10 -5 0 -10 5 -10 10 0 6 5 10 10
10 6 0 10 -4 10 -10z m-370 -65 c0 -12 -18 -15 -105 -15 -87 0 -105 3 -105 15
0 12 18 15 105 15 87 0 105 -3 105 -15z m310 0 c0 -8 -4 -15 -10 -15 -5 0 -10
7 -10 15 0 8 5 15 10 15 6 0 10 -7 10 -15z"/>
<path d="M730 345 c0 -8 -4 -15 -10 -15 -5 0 -10 -4 -10 -10 0 -5 9 -10 20
-10 13 0 20 -7 20 -20 0 -24 6 -25 26 -6 19 20 18 26 -6 26 -15 0 -20 7 -20
25 0 14 -4 25 -10 25 -5 0 -10 -7 -10 -15z"/>
<path d="M0 240 c0 -5 9 -10 20 -10 11 0 20 -4 20 -10 0 -5 -9 -10 -20 -10
-11 0 -20 -4 -20 -10 0 -5 13 -10 30 -10 27 0 30 -3 30 -30 0 -27 -3 -30 -30
-30 -17 0 -30 -4 -30 -10 0 -5 18 -10 40 -10 37 0 40 2 40 29 0 21 6 31 23 36
20 7 19 8 -10 12 -29 4 -33 8 -33 34 0 26 -3 29 -30 29 -17 0 -30 -4 -30 -10z"/>
<path d="M620 230 c0 -11 5 -20 10 -20 6 0 10 5 10 10 0 6 6 10 14 10 8 0 18
5 21 10 4 6 -7 10 -24 10 -24 0 -31 -4 -31 -20z"/>
<path d="M130 160 c0 -27 3 -30 30 -30 27 0 30 3 30 30 0 27 -3 30 -30 30 -27
0 -30 -3 -30 -30z m40 0 c0 -5 -4 -10 -10 -10 -5 0 -10 5 -10 10 0 6 5 10 10
10 6 0 10 -4 10 -10z"/>
<path d="M697 123 c-4 -3 -7 -17 -7 -30 0 -24 25 -42 38 -28 4 4 1 10 -5 12
-15 5 -17 33 -3 33 6 0 10 5 10 10 0 11 -23 14 -33 3z"/>
<path d="M560 30 c0 -17 5 -30 10 -30 6 0 10 9 10 20 0 29 37 27 43 -2 l4 -23
2 23 c1 29 41 32 41 2 0 -11 5 -20 10 -20 6 0 10 13 10 30 l0 30 -65 0 -65 0
0 -30z"/>
</g>
</svg>
