<?xml version="1.0" standalone="no"?>
<!DOCTYPE svg PUBLIC "-//W3C//DTD SVG 20010904//EN"
 "http://www.w3.org/TR/2001/REC-SVG-20010904/DTD/svg10.dtd">
<svg version="1.0" xmlns="http://www.w3.org/2000/svg"
 width="192.000000pt" height="192.000000pt" viewBox="0 0 192.000000 192.000000"
 preserveAspectRatio="xMidYMid meet">
<metadata>
Created by potrace 1.16, written by Peter Selinger 2001-2019
</metadata>
<g transform="translate(0.000000,192.000000) scale(0.100000,-0.100000)"
fill="#000000" stroke="none">
<path d="M996 1812 c-3 -5 -42 -30 -88 -57 -46 -27 -109 -64 -140 -84 l-57
-36 -3 -620 -3 -620 -27 -3 -28 -3 0 505 0 506 -38 0 c-21 0 -42 -4 -48 -10
-5 -5 -56 -38 -114 -73 l-105 -63 -3 -80 -3 -79 -57 -37 c-141 -91 -282 -254
-282 -326 0 -34 1 -34 32 29 22 44 58 90 117 149 81 80 186 160 210 160 21 0
11 -30 -16 -53 -53 -43 -158 -152 -185 -192 -15 -22 -35 -69 -44 -105 -16 -61
-16 -69 -1 -121 57 -195 370 -273 800 -199 120 20 343 89 434 134 29 14 57 26
62 26 5 0 16 6 23 12 7 7 33 24 58 37 25 14 50 30 56 35 6 6 22 18 35 26 54
34 155 147 183 204 56 117 20 227 -95 292 -48 27 -93 41 -224 73 -16 4 -31 14
-33 24 -4 22 32 22 150 2 172 -30 303 -105 342 -196 l15 -34 1 37 c1 93 -165
189 -377 219 l-93 13 0 48 0 48 -44 0 c-25 0 -47 -4 -50 -8 -3 -5 -42 -30 -88
-56 -46 -27 -94 -56 -108 -66 l-25 -17 -5 -388 -5 -388 -22 -8 -23 -8 0 679 0
680 -39 0 c-22 0 -42 -4 -45 -8z m64 -691 l0 -678 -72 -12 c-40 -6 -115 -18
-165 -25 l-93 -13 0 611 0 611 58 36 c31 20 94 57 140 84 46 27 85 52 88 57 3
4 14 8 25 8 19 0 19 -14 19 -679z m-430 -237 l0 -497 -77 7 c-43 3 -104 9
-135 12 l-58 6 0 298 c0 256 2 299 15 304 9 3 15 18 15 40 0 28 -3 34 -15 29
-14 -5 -15 6 -13 73 l3 78 105 63 c58 35 109 68 114 73 6 6 18 10 28 10 17 0
18 -25 18 -496z m800 452 c0 -36 -3 -44 -17 -42 -14 1 -18 -7 -18 -34 0 -28 4
-34 18 -32 16 3 17 -16 15 -320 l-3 -322 -33 -7 c-19 -4 -39 -12 -45 -18 -6
-6 -19 -11 -28 -11 -9 0 -19 -6 -22 -13 -3 -8 -27 -19 -54 -26 -26 -7 -56 -17
-65 -22 -10 -5 -20 -9 -23 -9 -3 0 -5 169 -5 375 l0 374 23 16 c12 9 60 38
106 65 46 27 88 53 94 59 6 6 21 11 34 11 21 0 23 -5 23 -44z m104 -143 c133
-37 221 -113 233 -200 8 -58 -36 -142 -117 -223 -36 -36 -76 -72 -89 -80 -13
-8 -29 -20 -35 -26 -7 -6 -26 -19 -44 -28 l-32 -17 0 296 c0 221 3 295 12 295
6 0 39 -8 72 -17z m-1194 -493 c0 -305 8 -284 -85 -225 -72 46 -103 81 -120
137 -26 88 16 180 139 305 28 29 54 52 59 53 4 0 7 -121 7 -270z"/>
<path d="M1903 815 c-23 -75 -143 -215 -245 -287 -18 -13 -35 -25 -38 -29 -16
-18 -183 -105 -285 -150 -108 -47 -307 -101 -445 -120 -127 -18 -397 -16 -501
5 -86 16 -216 63 -244 88 -8 7 -35 29 -59 48 -24 19 -53 53 -64 75 -20 38 -21
38 -21 13 -1 -40 16 -69 65 -108 24 -19 53 -43 65 -53 12 -9 25 -17 28 -17 4
0 5 -17 3 -39 -4 -36 -2 -39 38 -60 23 -12 85 -33 138 -48 85 -23 121 -26 297
-30 195 -5 269 1 420 31 146 28 401 125 491 186 23 15 51 31 61 34 11 3 28 14
39 24 10 9 36 30 58 46 53 40 130 119 166 171 29 43 42 115 20 115 -5 0 0 15
11 34 13 23 19 48 17 73 l-3 38 -12 -40z m-23 -141 c0 -36 -111 -167 -196
-230 -22 -16 -48 -37 -58 -46 -11 -10 -28 -21 -39 -24 -10 -3 -38 -19 -61 -34
-90 -61 -345 -158 -491 -186 -150 -30 -225 -36 -400 -31 -153 4 -195 8 -277
31 -108 29 -178 61 -178 82 0 18 9 18 127 -6 134 -27 311 -42 413 -35 213 15
462 64 570 111 55 24 104 46 122 55 10 5 24 9 31 9 8 0 22 9 32 20 10 11 24
20 31 20 18 0 117 60 127 77 4 7 14 13 22 13 8 0 56 43 107 95 91 93 118 111
118 79z"/>
</g>
</svg>
