<?xml version="1.0" standalone="no"?>
<!DOCTYPE svg PUBLIC "-//W3C//DTD SVG 20010904//EN"
 "http://www.w3.org/TR/2001/REC-SVG-20010904/DTD/svg10.dtd">
<svg version="1.0" xmlns="http://www.w3.org/2000/svg"
 width="150.000000pt" height="150.000000pt" viewBox="0 0 150.000000 150.000000"
 preserveAspectRatio="xMidYMid meet">
<metadata>
Created by potrace 1.16, written by Peter Selinger 2001-2019
</metadata>
<g transform="translate(0.000000,150.000000) scale(0.100000,-0.100000)"
fill="#000000" stroke="none">
<path d="M675 1442 c-44 -32 -91 -65 -104 -72 l-24 -12 7 -559 c6 -556 6 -559
-14 -559 -20 0 -20 6 -20 455 l0 455 -29 0 c-19 0 -61 -23 -130 -72 l-101 -72
0 -70 c0 -69 -1 -72 -33 -94 -52 -35 -153 -142 -192 -202 -24 -37 -35 -65 -34
-90 l0 -35 18 40 c38 84 147 213 228 267 32 22 33 25 33 95 l0 71 68 48 c116
82 135 94 143 94 5 0 9 -201 9 -446 l0 -446 -94 4 c-58 2 -100 9 -110 17 -14
12 -16 47 -16 277 0 166 4 264 10 264 6 0 11 -97 13 -258 2 -215 3 -201 3 88
1 205 -2 316 -6 274 -8 -72 -8 -72 -72 -135 -36 -35 -82 -95 -103 -133 -33
-59 -39 -79 -41 -141 -3 -57 1 -80 18 -114 82 -166 370 -213 708 -116 330 95
571 289 587 473 13 142 -45 211 -217 257 -118 32 -99 57 23 31 135 -28 229
-82 278 -161 l19 -30 0 31 c0 69 -137 155 -292 184 l-67 12 -3 42 c-3 37 -6
41 -31 44 -21 3 -51 -13 -127 -68 l-100 -72 0 -348 c0 -300 -2 -349 -15 -354
-13 -5 -15 65 -15 594 0 393 -3 600 -10 600 -7 0 -10 -208 -10 -604 l0 -604
-47 -16 c-54 -17 -191 -41 -198 -34 -2 2 -7 249 -11 549 l-7 544 118 83 c89
62 112 82 94 82 -14 0 -59 -25 -104 -58z m443 -349 c-2 -21 -8 -38 -15 -38
-19 0 -26 -13 -19 -39 3 -14 12 -25 19 -23 17 3 23 -559 5 -580 -14 -17 -173
-93 -194 -93 -12 0 -14 52 -12 337 l3 337 95 68 c52 37 101 68 108 68 9 0 12
-12 10 -37z m135 -151 c67 -29 102 -66 118 -124 22 -82 -14 -177 -102 -268
-45 -46 -110 -100 -122 -100 -4 0 -7 119 -7 265 l0 265 28 -6 c15 -3 53 -18
85 -32z m-998 -660 c-10 -10 -90 54 -119 96 -26 36 -30 51 -29 106 0 55 6 74
36 128 19 35 53 83 74 108 l38 44 3 -238 c1 -132 0 -241 -3 -244z"/>
<path d="M1487 615 c-14 -49 -93 -159 -158 -219 -147 -136 -367 -245 -604
-297 -94 -21 -365 -18 -439 4 -129 40 -224 107 -268 189 l-18 33 0 -32 c0 -42
57 -111 124 -150 12 -7 15 -12 9 -13 -8 0 -13 -13 -13 -30 0 -27 7 -32 74 -65
60 -29 84 -35 132 -34 l59 1 -49 10 c-60 11 -196 72 -196 88 0 7 8 9 19 5 117
-37 355 -54 496 -36 176 23 393 105 555 209 47 30 123 92 169 139 45 46 85 82
88 79 11 -11 -53 -103 -116 -169 -135 -141 -377 -268 -591 -312 l-65 -13 61
-1 c103 -2 311 79 460 179 166 112 316 303 263 335 -7 5 -5 15 6 31 10 15 15
40 13 62 l-3 37 -8 -30z"/>
</g>
</svg>
