<?xml version="1.0" standalone="no"?>
<!DOCTYPE svg PUBLIC "-//W3C//DTD SVG 20010904//EN"
 "http://www.w3.org/TR/2001/REC-SVG-20010904/DTD/svg10.dtd">
<svg version="1.0" xmlns="http://www.w3.org/2000/svg"
 width="192.000000pt" height="192.000000pt" viewBox="0 0 192.000000 192.000000"
 preserveAspectRatio="xMidYMid meet">
<metadata>
Created by potrace 1.16, written by Peter Selinger 2001-2019
</metadata>
<g transform="translate(0.000000,192.000000) scale(0.100000,-0.100000)"
fill="#000000" stroke="none">
<path d="M953 1785 c-29 -19 -57 -35 -63 -35 -5 0 -10 -4 -10 -8 0 -5 -21 -20
-47 -33 -27 -13 -57 -32 -67 -41 -11 -10 -25 -18 -31 -18 -7 0 -19 -8 -28 -18
-15 -17 -17 -76 -19 -608 l-3 -589 -2 488 -3 487 -53 0 c-36 0 -60 -6 -77 -20
-14 -11 -30 -20 -36 -20 -5 0 -19 -8 -30 -18 -10 -10 -35 -25 -54 -34 -71 -33
-80 -48 -80 -126 l0 -70 -37 -23 c-65 -39 -223 -178 -223 -196 -1 -4 -14 -24
-30 -43 -17 -19 -30 -40 -30 -47 0 -7 -4 -13 -10 -13 -11 0 -24 -60 -18 -87 3
-12 9 -4 18 25 7 23 17 42 22 42 4 0 8 6 8 13 0 7 13 28 30 47 16 19 29 39 30
43 0 18 158 157 221 195 33 20 37 21 43 6 11 -27 -12 -78 -42 -96 -43 -25
-138 -132 -158 -178 -39 -87 -44 -134 -19 -193 18 -44 62 -97 81 -97 8 0 14
-3 14 -8 0 -4 15 -13 33 -20 17 -7 40 -18 49 -23 10 -5 46 -9 80 -10 40 0 56
-3 44 -8 -37 -14 1 -20 87 -14 l87 6 0 471 c0 308 -4 466 -10 456 -8 -12 -10
-12 -10 -1 0 11 -3 11 -15 1 -8 -7 -12 -16 -9 -21 3 -5 -4 -9 -16 -9 -12 0
-18 -4 -15 -10 3 -5 -3 -10 -14 -10 -12 0 -21 -4 -21 -10 0 -5 -9 -10 -21 -10
-11 0 -17 -4 -14 -10 3 -5 -1 -10 -9 -10 -9 0 -16 -6 -16 -14 0 -10 -7 -12
-22 -8 -14 3 -19 2 -14 -6 4 -7 1 -12 -8 -12 -13 0 -16 -14 -16 -82 0 -74 -1
-80 -15 -62 -16 22 -20 110 -5 119 6 3 10 12 10 18 0 7 -4 6 -10 -3 -8 -12
-10 -12 -10 -1 0 18 35 48 80 69 19 9 44 24 54 34 11 10 25 18 30 18 6 0 22 9
36 20 14 11 40 20 58 20 l32 0 0 -485 0 -485 28 0 27 0 -2 587 c-2 414 0 590
8 599 16 19 70 45 80 38 18 -11 8 -25 -13 -19 -17 6 -20 4 -15 -9 5 -11 1 -16
-13 -16 -19 0 -20 -12 -22 -580 -2 -319 -3 -580 -3 -581 0 -5 90 -9 102 -5 14
6 14 8 -2 20 -15 11 -8 11 45 5 70 -8 113 0 70 13 -17 5 -5 6 35 5 49 -2 59 1
55 13 -10 29 -11 1214 -1 1241 7 21 6 29 -6 33 -21 9 -23 8 -23 -10 0 -11 -6
-14 -20 -9 -14 5 -20 2 -20 -9 0 -9 -6 -16 -14 -16 -33 0 -23 20 25 51 90 57
83 104 89 -632 l5 -644 35 5 c23 3 31 8 23 13 -10 6 -13 90 -13 363 0 386 -3
364 60 400 19 10 41 25 48 31 7 7 30 20 50 30 20 10 46 26 57 36 13 12 32 17
55 15 32 -3 35 -6 38 -38 4 -45 25 -60 83 -60 26 0 51 -4 54 -10 3 -5 21 -10
40 -10 19 0 37 -4 40 -10 3 -5 13 -10 21 -10 29 0 125 -54 160 -89 63 -66 79
-106 79 -201 0 -76 -4 -91 -32 -146 -18 -34 -39 -69 -48 -78 -15 -15 -15 -16
4 -16 16 0 21 -6 21 -27 0 -31 -29 -71 -106 -150 -48 -50 -74 -65 -74 -43 0 6
4 10 9 10 13 0 111 96 111 109 0 6 5 11 11 11 6 0 9 6 6 14 -3 8 1 17 9 20 17
7 19 36 2 36 -14 0 -101 -81 -132 -123 -11 -14 -25 -23 -33 -20 -7 3 -13 -2
-13 -11 0 -9 -7 -16 -16 -16 -9 0 -12 -5 -8 -12 5 -8 0 -9 -15 -5 -18 4 -21 2
-17 -10 5 -12 1 -14 -18 -11 -18 4 -23 1 -19 -10 5 -11 1 -13 -17 -7 -19 6
-22 4 -16 -10 5 -15 2 -16 -21 -10 -24 6 -25 5 -12 -11 13 -16 11 -17 -18 -11
-26 5 -31 4 -26 -9 5 -13 0 -15 -26 -11 -27 5 -30 3 -20 -9 9 -12 6 -14 -20
-14 -22 0 -30 -4 -25 -11 5 -8 -3 -10 -25 -7 -24 3 -31 1 -27 -9 4 -9 -5 -13
-30 -13 -21 0 -33 -4 -29 -10 4 -6 -11 -10 -37 -10 -32 0 -39 -3 -28 -11 11
-7 5 -9 -25 -7 -26 2 -40 -1 -41 -10 -1 -6 -2 -14 -3 -16 0 -2 -17 0 -36 4
-20 4 -38 4 -41 -1 -3 -5 1 -9 8 -9 11 0 11 -2 0 -9 -7 -4 -33 -5 -58 -1 -24
4 -47 3 -50 -2 -3 -4 1 -8 8 -8 10 0 9 -3 -2 -9 -8 -6 -18 -8 -22 -5 -4 3
-126 5 -270 5 -157 0 -255 4 -243 9 14 6 -1 9 -48 9 -43 1 -66 5 -62 11 4 6
-8 10 -29 10 -44 0 -57 -18 -18 -26 31 -6 40 -34 10 -34 -10 0 -18 5 -18 10 0
6 -9 10 -20 10 -15 0 -20 7 -20 29 0 16 6 31 12 33 9 3 8 9 -4 21 -9 9 -21 17
-25 17 -18 0 -122 106 -147 150 -25 44 -26 44 -26 15 0 -16 8 -42 18 -57 25
-38 123 -128 139 -128 9 0 13 -15 13 -50 0 -43 3 -50 20 -50 11 0 20 -4 20
-10 0 -5 11 -10 24 -10 14 0 28 -4 31 -10 3 -5 15 -10 26 -10 10 0 27 -4 37
-9 36 -18 97 -33 149 -37 30 -2 72 -8 92 -13 46 -11 206 -7 296 8 39 6 103 17
143 23 39 7 72 16 72 20 0 4 18 8 39 8 22 0 43 5 46 10 3 6 17 10 30 10 13 0
27 5 30 10 3 6 17 10 30 10 13 0 27 5 30 10 3 6 15 10 25 10 11 0 35 9 55 20
20 11 42 20 50 20 8 0 15 5 15 10 0 6 9 10 20 10 11 0 20 5 20 10 0 6 9 10 20
10 11 0 20 5 20 10 0 6 9 10 20 10 11 0 20 5 20 10 0 6 6 10 13 10 7 0 23 9
35 20 12 11 25 20 29 20 19 0 166 136 215 200 22 28 28 46 28 88 0 36 8 68 25
102 22 44 25 62 25 160 0 123 -11 155 -74 221 -35 35 -131 89 -160 89 -8 0
-18 5 -21 10 -3 6 -21 10 -40 10 -19 0 -37 5 -40 10 -3 6 -28 10 -54 10 -58 0
-79 15 -83 60 -3 35 -3 35 -58 38 -43 2 -60 -1 -75 -15 -11 -10 -37 -26 -57
-36 -20 -10 -43 -23 -50 -30 -7 -6 -29 -21 -48 -31 -63 -35 -60 -14 -63 -413
-1 -232 -3 -132 -5 273 -1 482 -5 643 -14 652 -22 22 -72 13 -125 -23z m-15
-73 c3 -9 -2 -13 -14 -10 -9 1 -19 9 -22 16 -3 9 2 13 14 10 9 -1 19 -9 22
-16z m-30 -21 c3 -9 -2 -11 -18 -6 -19 6 -22 4 -17 -9 5 -11 1 -16 -13 -16
-31 0 -32 18 -3 33 32 17 45 16 51 -2z m87 -1169 c-7 -7 -85 -23 -147 -29
l-58 -5 0 68 c0 38 -5 89 -11 114 -7 30 -8 183 -3 471 l7 426 106 66 106 66 3
-586 c1 -322 0 -588 -3 -591z m-157 1130 c3 -9 -2 -13 -14 -10 -9 1 -19 9 -22
16 -3 9 2 13 14 10 9 -1 19 -9 22 -16z m-247 -1175 c-6 -6 -37 -5 -85 4 l-76
13 0 355 0 356 35 23 c19 12 38 22 42 22 5 1 26 14 48 29 l40 29 3 -411 c1
-251 -1 -414 -7 -420z m-196 16 c-2 -7 -10 -13 -17 -13 -10 0 -12 53 -7 262 8
365 23 387 27 38 1 -151 0 -280 -3 -287z m-45 243 c0 -143 -4 -227 -10 -231
-12 -7 -70 16 -70 27 0 5 -6 8 -14 8 -21 0 -71 65 -86 111 -11 33 -11 47 -1
77 14 43 32 82 46 101 25 33 119 131 127 131 4 0 8 -101 8 -224z m1315 -247
c9 -14 -46 -61 -67 -55 -10 2 -15 -1 -12 -9 3 -7 -8 -19 -25 -26 -17 -8 -31
-17 -31 -21 0 -15 -38 -8 -44 7 -4 11 2 15 20 15 14 0 22 4 19 10 -3 6 3 10
14 10 12 0 21 4 21 9 0 5 13 14 28 20 16 7 35 21 42 31 16 22 26 25 35 9z
m-177 -126 c2 -8 -5 -13 -17 -13 -12 0 -21 -4 -21 -10 0 -5 -9 -10 -20 -10
-11 0 -20 7 -20 16 0 10 7 14 23 12 14 -2 21 2 19 10 -3 17 30 12 36 -5z m-80
-40 c2 -7 -3 -13 -12 -13 -8 0 -31 -9 -51 -20 -43 -24 -58 -25 -76 -3 -13 15
-11 16 23 9 33 -6 37 -5 31 10 -5 14 -2 16 21 12 21 -4 26 -2 22 9 -4 10 0 13
16 11 12 -2 23 -9 26 -15z m-148 -53 c12 -8 12 -10 -3 -16 -20 -7 -47 1 -47
16 0 12 30 13 50 0z m-66 -16 c9 -3 13 -10 10 -15 -8 -14 -40 -11 -54 6 -10
12 -9 15 8 15 11 0 27 -3 36 -6z m-856 -26 c-2 -9 10 -12 41 -10 39 2 43 1 31
-13 -12 -15 -6 -15 63 -9 71 6 76 5 71 -12 -4 -16 -13 -19 -60 -17 -30 2 -64
7 -74 13 -10 5 -27 10 -38 10 -11 0 -25 6 -32 14 -6 8 -18 12 -25 10 -8 -3
-20 -2 -26 2 -9 5 -7 10 7 15 29 12 44 10 42 -3z m434 4 c-14 -10 -229 -8
-239 1 -3 4 52 7 123 7 71 0 123 -4 116 -8z m347 2 c39 -8 30 -24 -14 -24 -20
0 -35 6 -39 15 -6 17 5 18 53 9z m-81 -20 c38 -11 24 -20 -50 -32 -143 -23
-154 -23 -154 -1 0 19 5 20 83 15 86 -5 99 -2 61 14 -21 8 -21 9 7 9 17 1 40
-2 53 -5z m-225 -55 c-14 -14 -232 -14 -246 0 -8 8 26 11 123 11 94 0 131 -3
123 -11z"/>
<path d="M1362 1360 c-12 -11 -27 -19 -34 -18 -7 2 -12 -3 -10 -9 1 -7 -7 -13
-19 -13 -11 0 -17 -4 -14 -10 3 -5 -3 -10 -14 -10 -12 0 -21 -5 -21 -10 0 -6
-8 -10 -17 -8 -10 2 -17 -3 -15 -9 1 -7 -5 -13 -13 -13 -8 0 -15 -4 -15 -10 0
-5 -11 -10 -25 -10 l-25 0 0 -359 c0 -318 2 -360 16 -365 24 -9 27 -8 20 10
-5 12 0 15 27 13 21 -2 31 1 30 9 -2 7 9 12 28 12 20 0 28 4 23 11 -5 8 3 10
25 7 24 -4 31 -1 27 9 -4 10 1 13 17 11 13 -2 21 2 19 10 -1 6 5 12 13 12 13
0 15 41 16 308 1 379 0 435 -10 445 -4 4 -17 -2 -29 -13z m-2 -385 l0 -325
-57 -27 c-32 -14 -70 -29 -85 -34 l-28 -8 0 308 c0 257 2 311 14 321 22 17
140 89 149 90 4 0 7 -146 7 -325z"/>
<path d="M1426 1272 c-9 -14 9 -27 39 -29 50 -3 110 -15 115 -23 3 -5 14 -10
25 -12 11 -1 26 -9 33 -16 8 -7 18 -10 23 -7 5 4 9 1 9 -4 0 -6 6 -11 13 -11
6 0 21 -14 32 -30 11 -16 26 -30 34 -30 8 0 11 -7 8 -20 -3 -11 0 -20 6 -20 8
0 12 -25 12 -75 0 -57 -3 -75 -14 -75 -9 0 -12 -8 -9 -25 3 -13 1 -22 -3 -19
-5 3 -15 -7 -21 -23 -13 -28 -154 -177 -170 -179 -4 -1 -13 -2 -19 -3 -5 0 -7
-5 -4 -11 3 -5 -3 -10 -15 -10 -12 0 -18 -4 -15 -10 3 -6 -3 -10 -14 -10 -12
0 -21 -5 -21 -11 0 -6 -9 -8 -22 -4 -17 6 -20 4 -15 -9 5 -11 1 -16 -13 -16
-11 0 -20 -4 -20 -10 0 -5 -12 -10 -26 -10 -14 0 -23 -4 -19 -10 4 -6 -5 -10
-19 -10 -14 0 -26 -4 -26 -10 0 -5 -11 -10 -25 -10 -14 0 -25 -4 -25 -10 0 -5
-14 -10 -31 -10 -17 0 -28 -4 -24 -10 4 -6 -8 -10 -29 -10 -20 0 -36 -4 -36
-10 0 -5 -18 -10 -41 -10 -24 0 -38 -4 -34 -10 4 -6 -10 -10 -34 -10 -27 0
-41 -5 -41 -13 0 -9 -12 -11 -41 -9 -23 3 -51 -1 -63 -7 -12 -7 -53 -14 -92
-16 -80 -4 -94 -6 -94 -14 0 -13 -150 -6 -155 6 -3 9 -28 13 -75 13 -45 0 -69
4 -65 10 7 11 -4 13 -48 10 -15 -1 -27 3 -27 9 0 6 -11 11 -25 11 -14 0 -25 5
-25 10 0 6 -6 10 -14 10 -7 0 -19 7 -26 15 -7 8 -16 12 -21 9 -5 -3 -9 0 -9 5
0 6 -7 11 -16 11 -8 0 -12 4 -9 10 3 6 -1 10 -10 10 -9 0 -13 5 -10 10 3 6 -1
10 -9 10 -9 0 -13 7 -11 20 2 11 -1 19 -8 17 -7 -1 -11 9 -8 27 2 22 -1 27
-11 23 -12 -4 -15 8 -17 56 -1 43 2 57 8 47 9 -12 11 -12 17 3 3 9 4 26 1 37
-3 13 0 20 9 20 8 0 14 7 14 16 0 9 14 33 30 54 17 21 30 43 30 50 0 6 5 8 10
5 6 -4 9 -2 8 4 -3 10 88 91 102 91 4 0 10 7 14 15 9 24 -7 18 -52 -21 -23
-19 -42 -32 -42 -28 0 5 -27 -18 -60 -51 -33 -33 -60 -65 -60 -73 0 -7 -4 -10
-10 -7 -5 3 -10 1 -10 -5 0 -6 -7 -18 -15 -26 -8 -9 -15 -24 -15 -34 0 -10 -7
-20 -15 -24 -8 -3 -12 -11 -9 -19 3 -8 -2 -19 -10 -26 -7 -6 -12 -21 -9 -31 4
-14 0 -20 -11 -20 -17 0 -18 -2 -18 -55 0 -54 1 -55 19 -48 12 5 15 2 10 -10
-3 -9 0 -20 8 -24 7 -5 13 -17 12 -28 -1 -12 3 -19 12 -17 8 2 11 -3 8 -13 -4
-9 -1 -15 8 -15 8 0 15 -8 15 -17 0 -9 3 -13 7 -10 3 4 19 -7 35 -23 15 -17
35 -30 44 -30 8 0 12 -4 9 -10 -4 -6 5 -10 20 -10 22 0 24 -3 15 -19 -13 -25
-13 -42 1 -19 11 20 44 24 54 8 3 -5 19 -10 36 -10 17 0 28 -5 26 -12 -1 -8
16 -11 53 -9 39 1 51 -1 40 -8 -8 -5 -12 -11 -10 -13 3 -2 109 -1 235 0 137 2
222 7 210 12 -13 6 4 9 53 9 46 1 71 5 67 11 -4 6 12 10 40 10 28 0 44 4 40
10 -4 6 10 10 34 10 23 0 41 5 41 10 0 6 14 10 30 10 17 0 30 5 30 10 0 6 14
10 30 10 17 0 30 5 30 10 0 6 11 10 25 10 14 0 25 5 25 10 0 6 12 10 26 10 14
0 23 4 19 10 -4 6 5 10 19 10 14 0 26 5 26 10 0 6 9 10 20 10 11 0 20 5 20 10
0 6 9 10 21 10 11 0 17 4 14 10 -4 6 5 10 20 10 15 0 24 4 20 10 -3 6 3 10 14
10 13 0 21 7 21 16 0 10 5 14 16 10 8 -3 12 -2 9 4 -3 6 1 10 10 10 18 0 30
11 59 50 10 14 16 17 13 8 -5 -15 -4 -16 13 -6 10 7 16 16 14 20 -3 4 1 8 8 8
8 0 20 9 28 20 8 11 20 20 28 20 7 0 11 4 7 9 -3 6 4 15 15 21 11 6 20 15 20
21 0 6 -5 7 -11 4 -6 -4 -5 2 2 13 7 12 16 19 19 17 9 -6 42 54 36 64 -3 5 1
12 10 15 11 4 14 13 10 30 -4 16 -1 26 9 30 22 8 21 114 0 123 -9 3 -15 13
-14 22 3 30 -1 42 -11 36 -6 -3 -7 1 -4 9 4 11 0 16 -10 16 -9 0 -15 4 -13 8
4 14 -54 64 -68 58 -9 -3 -15 1 -15 9 0 8 -9 15 -20 15 -11 0 -20 5 -20 11 0
6 -9 9 -20 6 -11 -3 -23 1 -28 8 -4 7 -20 15 -37 18 -16 3 -48 10 -70 15 -65
17 -114 22 -119 14z m415 -256 c67 -247 -353 -570 -876 -675 -139 -28 -198
-33 -345 -28 -144 5 -184 10 -283 35 -62 16 -148 63 -193 104 -51 47 -100 153
-90 193 7 29 26 25 26 -6 0 -29 44 -110 77 -140 100 -93 315 -149 519 -135
184 12 241 21 419 68 315 83 584 250 676 420 31 58 34 70 34 151 0 73 2 85 13
70 7 -10 17 -35 23 -57z"/>
<path d="M1430 930 c0 -251 2 -290 15 -290 8 0 15 5 15 10 0 6 9 10 20 10 11
0 20 4 20 8 0 5 12 15 27 23 63 33 150 122 190 194 23 44 26 57 24 131 -1 42
-7 57 -36 91 -35 41 -123 93 -156 93 -10 0 -21 5 -24 10 -3 6 -26 10 -51 10
l-44 0 0 -290z m75 260 c3 -5 14 -10 24 -10 33 0 121 -52 156 -93 30 -34 35
-48 35 -90 0 -64 -37 -133 -107 -201 -45 -44 -79 -71 -106 -85 -15 -8 -27 -18
-27 -23 0 -4 -7 -8 -15 -8 -13 0 -15 36 -15 260 l0 260 24 0 c14 0 28 -4 31
-10z"/>
<path d="M1857 553 c-4 -3 -7 -28 -7 -55 l0 -48 35 0 35 0 0 55 c0 54 -1 55
-28 55 -16 0 -32 -3 -35 -7z m51 -51 c3 -27 0 -32 -17 -32 -16 0 -21 6 -21 28
0 53 33 56 38 4z"/>
<path d="M258 303 c6 -2 18 -2 25 0 6 3 1 5 -13 5 -14 0 -19 -2 -12 -5z"/>
</g>
</svg>
