<?xml version="1.0" standalone="no"?>
<!DOCTYPE svg PUBLIC "-//W3C//DTD SVG 20010904//EN"
 "http://www.w3.org/TR/2001/REC-SVG-20010904/DTD/svg10.dtd">
<svg version="1.0" xmlns="http://www.w3.org/2000/svg"
 width="192.000000pt" height="192.000000pt" viewBox="0 0 192.000000 192.000000"
 preserveAspectRatio="xMidYMid meet">
<metadata>
Created by potrace 1.16, written by Peter Selinger 2001-2019
</metadata>
<g transform="translate(0.000000,192.000000) scale(0.100000,-0.100000)"
fill="#000000" stroke="none">
<path d="M725 1750 c4 -6 9 -8 13 -6 4 2 7 -87 7 -197 0 -148 -3 -206 -12
-215 -7 -7 -13 -19 -13 -25 0 -7 7 -4 15 7 7 10 18 15 24 12 14 -9 386 -10
400 -2 6 4 14 0 17 -8 7 -17 24 -22 24 -7 0 5 -7 17 -16 25 -8 9 -13 20 -10
24 3 5 6 84 6 175 1 92 6 169 11 173 15 9 10 27 -6 20 -9 -3 -15 0 -15 10 0 8
5 12 10 9 6 -3 10 -2 10 3 0 6 -91 10 -235 11 -155 0 -234 -3 -230 -9z m425
-215 l0 -195 -190 0 -189 0 -3 195 -3 195 193 0 192 0 0 -195z"/>
<path d="M720 1719 c0 -5 5 -7 10 -4 6 3 10 8 10 11 0 2 -4 4 -10 4 -5 0 -10
-5 -10 -11z"/>
<path d="M750 1301 c0 -5 -8 -12 -17 -14 -17 -4 -17 -5 0 -6 10 0 25 6 33 14
14 13 14 15 0 15 -9 0 -16 -4 -16 -9z"/>
<path d="M790 1295 c0 -11 321 -8 332 3 4 4 -69 7 -162 7 -107 0 -170 -4 -170
-10z"/>
<path d="M1154 1295 c8 -8 20 -15 26 -15 7 0 6 6 -4 15 -8 8 -20 15 -26 15 -7
0 -6 -6 4 -15z"/>
<path d="M82 524 c-1 -23 2 -32 9 -28 8 4 7 0 0 -14 -12 -22 -13 -122 -2 -122
4 0 7 -9 7 -19 0 -11 -3 -18 -7 -15 -4 2 -10 -3 -13 -12 -10 -25 -7 -72 5 -79
6 -4 8 -14 5 -22 -3 -8 -1 -11 4 -8 6 3 10 2 10 -4 0 -5 -5 -13 -10 -16 -22
-13 -9 -23 20 -15 17 5 28 5 25 0 -3 -4 27 -8 65 -8 47 0 68 4 63 11 -4 6 0 8
9 4 10 -3 19 3 27 20 8 18 17 24 31 20 11 -3 20 -1 20 4 0 5 -3 9 -7 9 -5 0
-6 28 -5 61 3 41 0 59 -7 55 -6 -4 -20 3 -31 14 -19 19 -19 21 -3 18 10 -2 17
2 16 10 -2 6 2 12 8 12 6 0 8 -9 4 -21 -5 -14 -3 -19 3 -15 15 9 32 -52 33
-121 1 -74 23 -89 110 -74 4 1 7 33 8 73 2 91 10 102 13 17 l1 -64 6 65 c3 36
2 70 -2 77 -9 12 10 29 21 18 8 -8 9 -11 10 -111 l2 -80 59 0 c54 0 59 1 50
18 -8 15 -6 18 13 18 19 0 20 -2 8 -10 -10 -7 -11 -10 -2 -11 14 -2 30 -5 37
-9 3 -1 8 -3 13 -4 4 -1 13 -5 21 -10 9 -6 12 -5 8 1 -5 7 5 10 27 8 29 -3 34
0 30 13 -5 15 -4 15 8 2 10 -12 33 -16 100 -15 48 0 90 4 94 7 3 4 16 3 28 -1
26 -9 102 -8 112 2 11 10 26 9 19 -2 -3 -6 17 -9 50 -8 36 1 55 6 55 15 0 17
37 15 44 -3 3 -8 10 -15 16 -15 6 0 8 6 4 12 -6 10 -5 10 8 1 18 -15 158 -13
158 2 0 5 5 3 10 -5 9 -13 11 -13 20 0 5 8 10 10 10 5 0 -6 57 -10 150 -10 82
-1 150 3 150 8 0 4 5 5 11 2 7 -5 9 11 7 46 -3 47 -6 54 -28 60 l-25 7 25 2
c14 1 19 4 12 7 -8 3 -24 1 -35 -5 -43 -20 -57 -22 -57 -6 0 8 6 14 13 13 6
-1 19 1 27 4 8 3 24 7 35 9 17 3 20 11 19 46 -1 24 4 42 10 42 6 0 4 4 -4 10
-9 5 -19 5 -27 -2 -8 -6 -13 -6 -13 -1 0 5 10 14 23 20 24 11 36 66 18 78 -5
3 -8 14 -6 25 2 11 0 20 -6 20 -5 0 -9 -5 -9 -10 0 -7 -8 -7 -22 1 -22 12
-126 8 -160 -6 -13 -5 -18 -2 -18 9 0 9 -4 16 -10 16 -5 0 -7 -6 -4 -13 3 -8
-3 -13 -16 -13 -22 0 -27 12 -7 19 6 2 -3 4 -21 4 -20 0 -28 -3 -20 -8 7 -4 9
-11 5 -15 -3 -4 -14 -1 -23 7 -18 15 -94 21 -94 7 0 -4 -7 -8 -15 -8 -8 0 -15
4 -15 8 0 4 -20 8 -45 8 -25 -1 -41 -2 -35 -4 12 -4 13 -22 1 -22 -5 0 -17 7
-26 16 -9 9 -19 13 -23 10 -3 -4 0 -11 8 -16 10 -7 11 -10 3 -10 -7 0 -13 -8
-13 -17 1 -17 1 -17 11 0 5 9 15 17 22 17 7 0 -1 -12 -16 -25 -31 -28 -57 -35
-37 -10 10 13 9 15 -8 15 -15 0 -20 5 -16 15 4 8 2 15 -4 15 -6 0 -13 -6 -15
-12 -4 -8 -6 -7 -6 4 -1 9 5 19 12 21 6 3 -6 3 -28 1 -22 -3 -64 -4 -93 -4
-30 1 -52 -2 -49 -7 3 -4 -6 -8 -19 -8 -13 0 -24 4 -24 9 0 6 -5 5 -12 -2 -16
-16 -31 -15 -25 1 5 12 -50 11 -163 -5 -19 -3 -27 -3 -17 -1 26 7 21 21 -8 21
-15 0 -25 -6 -25 -15 0 -8 -5 -11 -10 -8 -6 4 -8 10 -6 14 3 4 -1 8 -9 8 -8 0
-12 -4 -9 -9 3 -4 -2 -8 -10 -8 -9 0 -16 6 -17 13 0 6 -4 3 -9 -8 -12 -28 -12
-37 0 -30 6 3 10 2 10 -3 0 -6 -6 -12 -14 -15 -17 -7 -28 37 -13 52 8 8 8 11
0 11 -6 0 -13 -6 -16 -14 -7 -18 -56 -17 -86 3 -23 15 -25 15 -19 -1 5 -12 2
-16 -13 -15 -11 1 -17 7 -15 14 7 18 -9 16 -24 -2 -7 -8 -20 -14 -29 -14 -12
1 -11 2 3 6 15 4 16 7 5 13 -15 10 -49 -6 -49 -23 0 -7 4 -6 10 3 16 25 10 -3
-6 -30 -8 -14 -13 -17 -10 -7 3 9 1 17 -5 17 -6 0 -9 7 -6 15 7 18 -9 30 -17
13 -3 -9 -9 -7 -20 6 -15 18 -16 18 -16 2 0 -9 -5 -14 -10 -11 -6 4 -8 11 -5
16 3 5 -1 6 -9 3 -9 -3 -13 -10 -10 -15 3 -5 -2 -6 -10 -3 -11 4 -16 0 -16
-12 0 -16 -2 -17 -10 -4 -5 8 -10 11 -10 5 0 -5 -4 -4 -9 4 -9 14 -101 19
-132 6 -9 -3 -23 0 -31 9 -13 12 -15 10 -16 -20z m1103 16 c3 -5 -1 -10 -9
-10 -9 0 -16 5 -16 10 0 6 4 10 9 10 6 0 13 -4 16 -10z m321 -12 c0 -10 -4
-18 -9 -18 -5 0 -4 -6 2 -14 7 -9 8 -17 3 -20 -12 -7 -24 22 -15 37 4 7 0 8
-11 4 -14 -6 -17 -3 -12 9 5 12 2 15 -9 10 -9 -3 -14 -2 -11 2 3 5 18 9 33 9
21 0 29 -5 29 -19z m-1391 -8 c3 -5 -1 -10 -9 -10 -9 0 -16 5 -16 10 0 6 4 10
9 10 6 0 13 -4 16 -10z m133 -11 c20 -7 34 -21 41 -41 16 -45 14 -48 -19 -48
-23 0 -33 6 -40 25 -11 28 -41 33 -60 10 -21 -25 2 -59 48 -73 49 -15 92 -57
92 -89 0 -38 -29 -90 -53 -97 -39 -10 -112 -6 -130 9 -10 7 -22 30 -27 49 -8
36 -8 36 25 36 27 0 34 -4 37 -21 8 -53 70 -49 76 5 3 24 -3 29 -51 51 -62 27
-87 56 -87 98 0 38 15 64 48 81 33 18 59 20 100 5z m242 -97 c-33 -77 -40
-104 -40 -158 l0 -64 -33 0 -34 0 5 55 c5 57 -11 108 -65 218 l-23 47 38 0
c36 0 39 -2 55 -47 9 -27 17 -57 17 -67 0 -30 14 -7 34 56 17 52 22 57 50 60
17 2 32 1 34 -2 1 -3 -16 -48 -38 -98z m280 -63 l0 -159 -39 0 -38 0 -32 102
c-48 154 -50 155 -45 21 l5 -123 -31 0 -30 0 0 144 c0 79 -3 151 -6 160 -5 13
2 16 37 16 l44 0 37 -113 37 -112 0 116 1 116 30 -5 30 -4 0 -159z m665 155
c31 -14 45 -37 45 -76 0 -29 -53 -18 -67 15 -16 35 -50 36 -63 1 -11 -28 -13
-125 -4 -172 12 -60 69 -50 76 13 3 26 0 30 -19 29 -18 0 -23 5 -23 25 0 25 3
26 51 25 l50 -2 2 -86 c2 -83 1 -86 -20 -86 -14 0 -23 6 -23 15 0 19 -16 19
-24 0 -8 -23 -88 -20 -110 4 -40 44 -40 238 0 282 27 30 82 36 129 13z m385
-14 c0 -30 0 -30 -58 -30 l-57 0 0 -41 0 -41 52 4 c50 3 52 2 56 -24 3 -28 3
-28 -53 -28 l-56 0 1 -42 1 -43 59 0 c56 0 58 -1 62 -27 l4 -28 -96 0 -95 0 0
160 0 159 88 4 c48 1 88 4 90 5 1 1 2 -11 2 -28z m-830 -7 c0 -28 -1 -28 -55
-25 l-55 4 0 -41 0 -41 55 0 c52 0 55 -1 53 -25 -2 -23 -6 -25 -54 -25 l-52 0
-4 -46 -3 -46 62 5 63 6 0 -29 0 -30 -95 0 -95 0 0 160 0 160 90 0 90 0 0 -27z
m214 6 c23 -18 27 -27 24 -68 -2 -37 -8 -48 -25 -56 -13 -5 -23 -12 -23 -15 0
-3 10 -10 23 -15 18 -8 23 -19 25 -65 2 -30 8 -60 14 -67 8 -10 2 -13 -30 -13
l-40 0 -4 61 c-5 64 -15 79 -55 79 -22 0 -23 -4 -23 -70 l0 -70 -30 0 -29 0
-3 160 -3 160 76 0 c62 0 81 -4 103 -21z m391 -139 l0 -160 -32 0 -33 0 0 160
0 160 33 0 32 0 0 -160z m-325 106 c0 -3 -4 -8 -10 -11 -5 -3 -10 -1 -10 4 0
6 5 11 10 11 6 0 10 -2 10 -4z m-297 -23 c-23 -9 -14 -20 12 -15 14 2 25 0 25
-5 0 -5 -12 -8 -27 -7 -16 1 -40 2 -55 3 -39 1 -35 19 5 24 48 6 53 6 40 0z
m821 -6 c-6 -16 -64 -21 -64 -5 0 6 3 9 6 6 4 -5 36 1 61 11 1 1 0 -5 -3 -12z
m-1577 -3 c-3 -3 -12 -4 -19 -1 -8 3 -5 6 6 6 11 1 17 -2 13 -5z m1176 -8 c4
-11 1 -13 -10 -9 -11 4 -14 2 -9 -5 4 -7 2 -12 -3 -12 -13 0 -13 3 -5 24 8 20
20 21 27 2z m-863 -20 c0 -3 -4 -8 -10 -11 -5 -3 -10 -1 -10 4 0 6 5 11 10 11
6 0 10 -2 10 -4z m711 -59 c-10 -9 -11 -8 -5 6 3 10 9 15 12 12 3 -3 0 -11 -7
-18z m-241 -49 c0 -20 -16 -25 -22 -7 -2 6 -22 15 -43 19 -39 8 -39 8 13 7 43
-1 52 -4 52 -19z m-801 -10 c11 -15 11 -18 -1 -18 -7 0 -14 10 -15 21 -1 12
-1 20 0 18 2 -2 9 -12 16 -21z m934 -15 c4 -18 3 -33 -1 -33 -4 0 -9 17 -10
37 -3 44 3 42 11 -4z m-168 17 c4 -6 -8 -10 -29 -10 -20 0 -36 5 -36 10 0 6
13 10 29 10 17 0 33 -4 36 -10z m309 -65 c3 -8 1 -15 -4 -15 -6 0 -10 7 -10
15 0 8 2 15 4 15 2 0 6 -7 10 -15z m-134 -5 c-13 -9 -13 -10 0 -10 13 0 13 -1
0 -10 -26 -17 -32 -9 -21 28 1 1 9 2 19 2 14 0 15 -2 2 -10z"/>
<path d="M136 387 c3 -10 9 -15 12 -12 3 3 0 11 -7 18 -10 9 -11 8 -5 -6z"/>
<path d="M271 274 c0 -11 3 -14 6 -6 3 7 2 16 -1 19 -3 4 -6 -2 -5 -13z"/>
<path d="M1300 311 c0 -5 5 -13 10 -16 6 -3 10 -2 10 4 0 5 -4 13 -10 16 -5 3
-10 2 -10 -4z"/>
<path d="M1688 353 c7 -3 16 -2 19 1 4 3 -2 6 -13 5 -11 0 -14 -3 -6 -6z"/>
<path d="M841 404 c0 -11 3 -14 6 -6 3 7 2 16 -1 19 -3 4 -6 -2 -5 -13z"/>
<path d="M1090 421 c0 -50 1 -51 30 -51 20 0 33 7 40 21 16 29 4 69 -19 69
-11 0 -26 3 -35 6 -13 5 -16 -2 -16 -45z m50 5 c0 -19 -17 -29 -25 -16 -3 5
-1 10 5 10 6 0 8 5 5 10 -3 6 -1 10 4 10 6 0 11 -6 11 -14z"/>
<path d="M1564 360 c0 -58 1 -81 3 -52 2 28 2 76 0 105 -2 28 -3 5 -3 -53z"/>
<path d="M270 546 c7 -7 14 -6 21 1 9 9 7 12 -9 10 -14 -1 -18 -5 -12 -11z"/>
<path d="M590 550 c0 -5 5 -10 11 -10 5 0 7 5 4 10 -3 6 -8 10 -11 10 -2 0 -4
-4 -4 -10z"/>
<path d="M1240 546 c0 -9 5 -16 10 -16 6 0 10 4 10 9 0 6 -4 13 -10 16 -5 3
-10 -1 -10 -9z"/>
<path d="M1648 553 c7 -3 16 -2 19 1 4 3 -2 6 -13 5 -11 0 -14 -3 -6 -6z"/>
<path d="M313 184 c0 -25 11 -32 22 -14 3 6 0 17 -8 25 -13 12 -14 11 -14 -11z"/>
<path d="M1275 170 c-3 -5 -1 -10 4 -10 6 0 11 5 11 10 0 6 -2 10 -4 10 -3 0
-8 -4 -11 -10z"/>
</g>
</svg>
