<?xml version="1.0" standalone="no"?>
<!DOCTYPE svg PUBLIC "-//W3C//DTD SVG 20010904//EN"
 "http://www.w3.org/TR/2001/REC-SVG-20010904/DTD/svg10.dtd">
<svg version="1.0" xmlns="http://www.w3.org/2000/svg"
 width="192.000000pt" height="192.000000pt" viewBox="0 0 192.000000 192.000000"
 preserveAspectRatio="xMidYMid meet">
<metadata>
Created by potrace 1.16, written by Peter Selinger 2001-2019
</metadata>
<g transform="translate(0.000000,192.000000) scale(0.100000,-0.100000)"
fill="#000000" stroke="none">
<path d="M753 1758 c-4 -7 -9 -100 -11 -205 -2 -118 -7 -193 -13 -193 -6 0 -7
-6 -2 -12 4 -7 8 -17 9 -23 0 -5 2 -16 2 -23 1 -7 6 -11 12 -7 5 3 7 12 3 20
-3 8 0 15 6 15 6 0 11 -12 12 -27 0 -16 3 -22 6 -15 3 9 50 12 183 12 133 0
180 -3 183 -12 3 -8 6 -6 6 4 1 16 -16 18 -186 21 l-188 2 198 3 c145 1 196
-1 191 -9 -4 -7 -1 -10 7 -7 8 3 12 12 11 19 -2 8 -3 99 -2 204 1 135 5 192
13 197 9 6 9 8 -1 8 -8 0 -10 5 -6 13 4 6 4 9 -1 5 -4 -4 -14 -3 -22 3 -10 9
-13 8 -13 -2 0 -10 -2 -11 -8 -2 -9 14 -362 24 -362 11 0 -5 -5 -8 -11 -8 -5
0 -7 5 -4 10 9 15 -2 12 -12 -2z m399 -223 l-3 -195 -189 0 -190 0 0 179 c0
99 -3 186 -6 195 -5 14 15 16 192 16 l199 0 -3 -195z"/>
<path d="M720 1715 c0 -8 2 -15 4 -15 2 0 6 7 10 15 3 8 1 15 -4 15 -6 0 -10
-7 -10 -15z"/>
<path d="M868 1283 c46 -2 118 -2 160 0 42 1 5 3 -83 3 -88 0 -123 -2 -77 -3z"/>
<path d="M167 549 c10 -4 12 -8 6 -8 -7 -1 -30 -9 -52 -18 l-38 -17 -2 -73
c-1 -45 2 -73 9 -73 16 0 12 -38 -6 -48 -13 -7 -15 -20 -9 -75 4 -37 11 -64
16 -62 4 3 6 13 3 23 -5 16 -5 16 6 -1 6 -9 20 -17 30 -17 10 0 22 -4 25 -10
3 -5 30 -9 60 -7 29 1 51 5 48 10 -2 4 3 7 11 7 8 0 23 12 31 28 9 15 14 20
11 11 -2 -9 1 -22 7 -29 8 -9 9 -11 1 -7 -7 4 -17 0 -24 -8 -11 -13 -9 -15 11
-12 23 4 24 6 20 81 -2 54 0 76 9 76 8 0 11 -15 8 -45 -3 -48 8 -48 15 0 2 17
2 -4 0 -45 -2 -52 0 -69 6 -55 7 14 10 16 10 5 1 -12 12 -16 49 -15 l48 0 2
74 c1 40 4 82 8 93 6 19 6 19 20 1 14 -16 14 -14 9 22 -4 27 -1 46 8 59 14 18
14 18 19 -2 4 -14 2 -19 -8 -15 -10 4 -11 -2 -4 -29 6 -18 10 -68 10 -110 0
-46 5 -80 11 -84 17 -10 90 -13 84 -4 -3 5 -1 11 5 15 5 3 10 15 10 26 0 10 5
19 11 19 6 0 9 -7 5 -15 -3 -8 -1 -15 4 -15 6 0 10 -7 10 -15 0 -18 -16 -20
-23 -2 -3 7 -6 5 -6 -5 -1 -14 7 -16 52 -13 28 2 64 6 80 10 15 4 27 3 27 -2
0 -12 43 -11 52 1 5 7 8 7 8 1 0 -6 68 -10 188 -9 229 2 212 0 212 24 0 21 15
27 25 10 3 -5 1 -10 -6 -10 -10 0 -10 -3 -1 -12 14 -14 185 -19 220 -7 12 5
22 5 22 0 0 -9 215 -5 230 4 6 3 10 2 10 -2 0 -12 63 -10 72 2 17 22 5 125
-14 125 -5 0 -6 -4 -3 -10 3 -6 -4 -10 -17 -10 -22 1 -22 1 -4 15 11 8 23 15
26 15 4 0 7 24 6 54 0 30 -4 52 -8 50 -5 -3 -8 2 -8 10 0 9 4 16 9 16 13 0 21
39 14 71 -3 17 -12 27 -22 27 -78 -2 -188 6 -198 14 -9 8 -13 6 -13 -4 0 -10
-10 -13 -36 -10 -22 3 -39 0 -44 -8 -6 -9 -10 -7 -15 9 -3 11 -11 21 -16 21
-12 0 -12 -17 1 -25 13 -8 13 -45 -1 -45 -6 0 -8 9 -4 21 6 18 4 20 -15 14
-19 -6 -21 -5 -11 13 10 20 9 21 -31 17 -63 -5 -82 -9 -91 -20 -4 -6 -11 -3
-18 8 -5 9 -15 17 -22 17 -7 0 -6 -4 3 -10 13 -9 13 -10 0 -10 -13 0 -13 -1 0
-10 13 -8 13 -10 -1 -10 -9 0 -19 -9 -22 -20 -3 -11 -11 -20 -19 -20 -10 0
-10 2 2 10 18 11 9 22 -23 24 -16 0 -23 6 -19 14 3 8 15 11 33 8 16 -2 29 0
29 6 0 6 -15 8 -37 4 -21 -3 -45 -6 -53 -6 -83 2 -144 0 -160 -5 -15 -5 -20
-2 -20 12 0 11 -3 14 -8 7 -4 -7 -41 -12 -90 -13 -46 -1 -87 -2 -90 -3 -4 -1
-17 3 -29 10 -19 10 -23 10 -23 -1 0 -10 -9 -12 -32 -8 l-33 5 30 7 c26 6 24
7 -12 6 -37 -2 -41 -5 -37 -22 2 -11 0 -33 -5 -50 l-9 -30 -1 38 c-1 21 -5 36
-10 32 -5 -3 -12 -1 -16 5 -4 6 -10 8 -14 6 -4 -3 -13 -1 -21 4 -8 5 -22 5
-32 -1 -11 -6 -18 -6 -18 0 0 5 6 11 13 14 6 3 2 4 -10 4 -13 -1 -23 -6 -23
-12 0 -7 -17 -11 -40 -11 -40 0 -52 9 -27 20 6 3 3 4 -8 3 -11 -2 -19 -9 -18
-15 2 -7 -4 -12 -12 -12 -9 0 -12 6 -8 17 4 11 3 14 -5 9 -16 -9 -15 -43 0
-48 7 -3 6 -7 -5 -11 -13 -5 -17 -1 -17 19 0 23 -4 26 -25 22 -14 -3 -30 1
-36 8 -12 15 -79 20 -79 6 0 -4 16 -6 36 -4 25 3 35 1 30 -6 -4 -6 -14 -8 -23
-5 -12 5 -14 3 -8 -7 6 -10 4 -11 -11 -5 -10 4 -32 10 -49 13 -30 5 -30 6 -5
12 16 4 3 6 -33 6 -34 0 -50 -3 -40 -7z m1283 -8 c0 -5 -9 -7 -20 -4 -11 3
-20 7 -20 9 0 2 9 4 20 4 11 0 20 -4 20 -9z m-1179 -48 c10 -10 21 -31 25 -46
6 -27 5 -28 -27 -25 -27 2 -35 8 -37 26 -3 19 -9 23 -30 20 -22 -2 -28 -9 -30
-33 -3 -29 1 -33 52 -54 69 -28 79 -41 80 -97 1 -39 -3 -50 -28 -71 -26 -22
-37 -25 -83 -21 -62 5 -90 27 -95 73 -3 27 0 30 28 33 28 3 32 0 38 -28 5 -28
9 -31 38 -28 26 2 34 8 36 26 5 31 -13 50 -59 62 -91 25 -108 145 -25 181 31
13 96 3 117 -18z m130 -45 l22 -72 20 66 c18 63 21 66 54 70 18 2 35 2 37 1 2
-2 -7 -27 -21 -55 -47 -98 -65 -157 -62 -209 3 -51 3 -52 -29 -54 l-32 -3 0
64 c0 52 -7 80 -40 155 -22 51 -40 94 -40 95 0 2 15 5 33 7 17 2 33 5 34 5 1
1 12 -30 24 -70z m272 -33 c46 -139 46 -139 46 -17 l1 112 30 0 30 0 0 -154 0
-154 -38 -4 -39 -3 -33 100 c-18 55 -37 109 -41 120 -4 11 -7 -33 -6 -99 l2
-120 -28 0 -28 0 0 157 c0 86 1 159 1 160 0 2 16 1 37 -2 36 -6 37 -7 66 -96z
m324 67 c-2 -25 -4 -26 -60 -23 l-58 3 3 -38 3 -38 53 3 52 2 0 -30 c0 -31 0
-31 -55 -31 l-55 0 0 -40 0 -40 60 0 c59 0 60 -1 60 -27 l0 -28 -87 1 c-49 1
-89 4 -90 8 -2 3 -3 75 -3 159 l0 152 89 -3 90 -3 -2 -27z m464 10 c9 -9 19
-29 23 -43 5 -25 3 -27 -29 -31 -30 -3 -34 -1 -37 21 -4 32 -36 40 -55 15 -17
-23 -18 -185 -1 -202 20 -20 48 -14 58 14 16 41 12 54 -15 54 -20 0 -25 5 -25
25 0 24 3 25 55 25 l55 0 0 -90 c0 -90 0 -90 -25 -88 -14 1 -25 9 -25 17 0 11
-3 11 -18 -2 -10 -10 -32 -17 -48 -17 -64 0 -94 51 -94 160 0 122 40 177 120
166 25 -4 52 -14 61 -24z m359 -2 c0 -28 -1 -29 -57 -32 l-57 -3 0 -34 0 -34
54 -1 c51 -1 54 -3 54 -26 0 -23 -3 -25 -53 -26 l-54 -1 -1 -41 -1 -42 60 0
c59 0 61 -1 60 -26 -2 -25 -2 -25 -93 -27 l-92 -2 0 157 0 157 88 4 c48 1 88
4 90 5 1 1 2 -11 2 -28z m-608 6 c38 -29 35 -115 -4 -134 l-23 -11 23 -7 c24
-7 29 -21 35 -100 l4 -51 -35 2 -35 1 -3 57 c-4 71 -8 77 -45 77 l-30 0 2 -66
2 -67 -31 -2 -32 -3 0 159 0 159 78 0 c48 -1 84 -6 94 -14z m386 -143 l-3
-157 -32 -2 -33 -2 0 159 0 159 35 0 36 0 -3 -157z m-1391 65 c-3 -8 -6 -5 -6
6 -1 11 2 17 5 13 3 -3 4 -12 1 -19z m805 0 c-2 -10 -8 -15 -13 -12 -5 3 -7 9
-4 14 3 4 -1 10 -7 13 -7 3 -4 5 8 4 15 -1 20 -6 16 -19z m384 -21 c-2 -7 -5
-3 -6 8 l-1 20 -9 -20 c-8 -20 -9 -20 -9 1 -1 11 2 24 6 28 9 9 26 -22 19 -37z
m392 36 c-10 -2 -26 -2 -35 0 -10 3 -2 5 17 5 19 0 27 -2 18 -5z m-863 -13 c3
-5 1 -10 -4 -10 -6 0 -11 5 -11 10 0 6 2 10 4 10 3 0 8 -4 11 -10z m45 0 c12
-8 11 -10 -7 -10 -13 0 -23 5 -23 10 0 13 11 13 30 0z m840 -10 c0 -5 -2 -10
-4 -10 -3 0 -8 5 -11 10 -3 6 -1 10 4 10 6 0 11 -4 11 -10z m-1485 -31 c-4
-11 -2 -19 4 -19 6 0 11 -7 11 -16 0 -13 -3 -14 -14 -5 -14 12 -27 57 -18 65
11 11 22 -7 17 -25z m1183 6 c-3 -3 -9 2 -12 12 -6 14 -5 15 5 6 7 -7 10 -15
7 -18z m-1215 1 c4 -10 1 -13 -8 -9 -8 3 -12 9 -9 14 7 12 11 11 17 -5z m-153
-62 c0 -2 -7 -4 -15 -4 -8 0 -15 4 -15 10 0 5 7 7 15 4 8 -4 15 -8 15 -10z
m840 -35 c0 -10 -7 -19 -15 -19 -8 0 -15 5 -15 11 0 5 -4 7 -10 4 -5 -3 -10 0
-10 7 0 7 11 14 25 14 18 2 25 -3 25 -17z m30 7 c0 -8 -4 -17 -9 -21 -6 -3 -9
4 -8 15 1 23 17 28 17 6z m767 -9 c-2 -6 -10 -11 -19 -13 -11 -1 -14 4 -11 16
3 11 11 16 19 13 8 -3 13 -10 11 -16z m-1574 -18 c-9 -9 -12 -7 -10 9 1 14 5
18 11 12 7 -7 6 -14 -1 -21z m1197 15 c0 -8 -4 -12 -10 -9 -5 3 -10 10 -10 16
0 5 5 9 10 9 6 0 10 -7 10 -16z m-247 -41 c4 -18 3 -33 -2 -33 -12 0 -21 38
-14 56 7 19 9 16 16 -23z m7 -58 c10 -12 10 -15 -3 -15 -8 0 -20 7 -27 15 -10
12 -10 15 3 15 8 0 20 -7 27 -15z"/>
<path d="M262 270 c0 -14 2 -19 5 -12 2 6 2 18 0 25 -3 6 -5 1 -5 -13z"/>
<path d="M594 436 c-3 -13 -4 -35 -1 -47 3 -17 5 -14 6 12 0 19 6 40 13 47 9
9 9 12 0 12 -6 0 -14 -11 -18 -24z"/>
<path d="M593 285 c0 -22 2 -30 4 -17 2 12 2 30 0 40 -3 9 -5 -1 -4 -23z"/>
<path d="M725 230 c-3 -5 -1 -10 4 -10 6 0 11 5 11 10 0 6 -2 10 -4 10 -3 0
-8 -4 -11 -10z"/>
<path d="M1313 360 c0 -25 2 -35 4 -22 2 12 2 32 0 45 -2 12 -4 2 -4 -23z"/>
<path d="M1672 450 c0 -14 2 -19 5 -12 2 6 2 18 0 25 -3 6 -5 1 -5 -13z"/>
<path d="M1670 364 c0 -14 4 -23 9 -20 5 3 7 15 4 26 -7 28 -13 25 -13 -6z"/>
<path d="M1101 420 c1 -44 4 -50 23 -50 30 0 43 11 50 40 8 33 -2 45 -41 53
l-33 6 1 -49z m59 -4 c0 -3 -4 -8 -10 -11 -5 -3 -10 -1 -10 4 0 6 5 11 10 11
6 0 10 -2 10 -4z"/>
<path d="M518 553 c7 -3 16 -2 19 1 4 3 -2 6 -13 5 -11 0 -14 -3 -6 -6z"/>
<path d="M828 553 c7 -3 16 -2 19 1 4 3 -2 6 -13 5 -11 0 -14 -3 -6 -6z"/>
<path d="M1088 553 c7 -3 16 -2 19 1 4 3 -2 6 -13 5 -11 0 -14 -3 -6 -6z"/>
<path d="M1180 556 c0 -2 7 -6 15 -10 8 -3 15 -1 15 4 0 6 -7 10 -15 10 -8 0
-15 -2 -15 -4z"/>
<path d="M1538 553 c6 -2 18 -2 25 0 6 3 1 5 -13 5 -14 0 -19 -2 -12 -5z"/>
<path d="M87 536 c-4 -10 -1 -13 9 -9 15 6 19 23 5 23 -5 0 -11 -7 -14 -14z"/>
</g>
</svg>
