<?xml version="1.0" standalone="no"?>
<!DOCTYPE svg PUBLIC "-//W3C//DTD SVG 20010904//EN"
 "http://www.w3.org/TR/2001/REC-SVG-20010904/DTD/svg10.dtd">
<svg version="1.0" xmlns="http://www.w3.org/2000/svg"
 width="100.000000pt" height="100.000000pt" viewBox="0 0 100.000000 100.000000"
 preserveAspectRatio="xMidYMid meet">
<metadata>
Created by potrace 1.16, written by Peter Selinger 2001-2019
</metadata>
<g transform="translate(0.000000,100.000000) scale(0.100000,-0.100000)"
fill="#000000" stroke="none">
<path d="M143 945 c-16 -18 -18 -275 -3 -275 6 0 10 -28 10 -65 0 -37 4 -65
10 -65 6 0 10 -13 10 -30 0 -16 5 -30 10 -30 6 0 10 -9 10 -20 0 -11 5 -20 10
-20 6 0 10 -8 10 -18 0 -10 9 -24 20 -32 11 -8 20 -24 20 -35 0 -11 9 -27 20
-35 11 -8 20 -21 20 -30 0 -9 9 -22 20 -30 12 -8 20 -26 20 -42 0 -15 5 -28
10 -28 6 0 10 -32 10 -75 l0 -75 55 0 55 0 0 190 c0 120 -4 190 -10 190 -5 0
-10 14 -10 30 0 17 -4 30 -10 30 -5 0 -10 9 -10 20 0 11 -7 20 -15 20 -8 0
-15 8 -15 18 0 10 -9 24 -20 32 -11 8 -20 22 -20 32 0 10 -4 18 -10 18 -5 0
-10 7 -10 15 0 8 -4 15 -10 15 -5 0 -10 8 -10 18 0 10 -9 24 -20 32 -11 8 -20
22 -20 32 0 10 -4 18 -10 18 -5 0 -10 14 -10 30 0 17 -4 30 -10 30 -6 0 -10
32 -10 75 l0 75 -37 0 c-21 -1 -44 -7 -50 -15z m67 -80 c0 -43 4 -75 10 -75 6
0 10 -13 10 -30 0 -16 5 -30 10 -30 6 0 10 -8 10 -18 0 -10 9 -24 20 -32 11
-8 20 -22 20 -32 0 -10 5 -18 10 -18 6 0 10 -7 10 -15 0 -8 5 -15 10 -15 6 0
10 -8 10 -18 0 -10 9 -24 20 -32 11 -8 20 -22 20 -32 0 -10 7 -18 15 -18 8 0
15 -9 15 -20 0 -11 5 -20 10 -20 6 0 10 -13 10 -30 0 -16 5 -30 10 -30 6 0 10
-63 10 -170 l0 -170 -35 0 -35 0 0 75 c0 43 -4 75 -10 75 -5 0 -10 13 -10 28
0 16 -8 34 -20 42 -11 8 -20 21 -20 30 0 9 -9 22 -20 30 -11 8 -20 24 -20 35
0 11 -9 27 -20 35 -11 8 -20 22 -20 32 0 10 -4 18 -10 18 -5 0 -10 9 -10 20 0
11 -4 20 -10 20 -5 0 -10 14 -10 30 0 17 -4 30 -10 30 -6 0 -10 28 -10 65 0
37 -4 65 -10 65 -6 0 -10 43 -10 110 0 115 7 139 43 140 15 0 17 -10 17 -75z"/>
<path d="M750 895 c0 -37 -4 -65 -10 -65 -5 0 -10 -13 -10 -30 0 -16 -4 -30
-10 -30 -5 0 -10 -9 -10 -20 0 -11 -4 -20 -10 -20 -5 0 -10 -9 -10 -20 0 -11
-4 -20 -10 -20 -5 0 -10 -9 -10 -20 0 -11 -4 -20 -10 -20 -5 0 -10 -7 -10 -15
0 -8 -4 -15 -10 -15 -5 0 -10 -9 -10 -20 0 -11 -5 -20 -11 -20 -16 0 -39 -26
-39 -44 0 -9 -4 -16 -10 -16 -5 0 -10 -9 -10 -20 0 -11 -4 -20 -10 -20 -5 0
-10 -9 -10 -20 0 -11 -4 -20 -10 -20 -6 0 -10 -73 -10 -200 l0 -200 50 0 50 0
0 75 c0 43 4 75 10 75 6 0 10 14 10 30 0 20 5 30 15 30 8 0 15 8 15 18 0 10 9
24 20 32 11 8 20 24 20 35 0 11 9 27 20 35 11 8 20 21 20 30 0 9 9 22 20 30
11 8 20 22 20 32 0 10 5 18 10 18 6 0 10 18 10 40 0 22 5 40 10 40 6 0 10 28
10 65 0 37 4 65 10 65 6 0 10 45 10 115 0 70 -4 115 -10 115 -5 0 -10 9 -10
20 0 17 -7 20 -40 20 l-40 0 0 -65z m60 25 c0 -11 5 -20 10 -20 6 0 10 -38 10
-95 0 -57 -4 -95 -10 -95 -6 0 -10 -28 -10 -65 0 -37 -4 -65 -10 -65 -5 0 -10
-18 -10 -40 0 -22 -4 -40 -10 -40 -5 0 -10 -8 -10 -18 0 -10 -9 -24 -20 -32
-11 -8 -20 -21 -20 -30 0 -9 -9 -22 -20 -30 -11 -8 -20 -24 -20 -35 0 -11 -9
-27 -20 -35 -11 -8 -20 -22 -20 -32 0 -10 -7 -18 -15 -18 -10 0 -15 -10 -15
-30 0 -16 -4 -30 -10 -30 -6 0 -10 -32 -10 -75 l0 -75 -30 0 -30 0 0 180 c0
113 4 180 10 180 6 0 10 9 10 20 0 11 5 20 10 20 6 0 10 9 10 20 0 11 5 20 10
20 6 0 10 7 10 16 0 18 23 44 39 44 6 0 11 9 11 20 0 11 5 20 10 20 6 0 10 7
10 15 0 8 5 15 10 15 6 0 10 9 10 20 0 11 5 20 10 20 6 0 10 9 10 20 0 11 5
20 10 20 6 0 10 9 10 20 0 11 5 20 10 20 6 0 10 14 10 30 0 17 5 30 10 30 6 0
10 28 10 65 0 58 2 65 20 65 13 0 20 -7 20 -20z"/>
</g>
</svg>
