<?xml version="1.0" standalone="no"?>
<!DOCTYPE svg PUBLIC "-//W3C//DTD SVG 20010904//EN"
 "http://www.w3.org/TR/2001/REC-SVG-20010904/DTD/svg10.dtd">
<svg version="1.0" xmlns="http://www.w3.org/2000/svg"
 width="180.000000pt" height="180.000000pt" viewBox="0 0 180.000000 180.000000"
 preserveAspectRatio="xMidYMid meet">
<metadata>
Created by potrace 1.16, written by Peter Selinger 2001-2019
</metadata>
<g transform="translate(0.000000,180.000000) scale(0.100000,-0.100000)"
fill="#000000" stroke="none">
<path d="M402 1543 c-4 -10 -7 -97 -6 -193 1 -293 36 -417 174 -621 45 -67
101 -161 124 -208 40 -84 41 -89 41 -188 0 -91 2 -103 17 -103 28 0 33 41 33
245 -1 271 -17 325 -165 535 -144 204 -200 348 -187 485 5 54 4 65 -9 65 -8 0
-18 -8 -22 -17z m94 -399 c15 -27 70 -110 120 -185 109 -161 130 -218 144
-388 13 -161 12 -176 -9 -111 -26 80 -63 149 -154 285 -119 177 -157 283 -172
480 l-6 80 24 -56 c14 -31 37 -78 53 -105z"/>
<path d="M1340 1558 c0 -2 -1 -52 -3 -113 -2 -100 -6 -117 -37 -190 -19 -44
-84 -154 -145 -245 -76 -114 -117 -185 -132 -231 -30 -91 -47 -261 -39 -391 7
-116 17 -158 39 -158 11 0 14 20 14 92 0 122 25 186 153 383 115 177 112 172
139 255 33 100 51 240 51 405 0 162 -5 195 -26 195 -8 0 -14 -1 -14 -2z m9
-348 c-10 -109 -36 -223 -70 -300 -11 -24 -58 -102 -105 -172 -81 -122 -146
-244 -158 -298 -3 -14 -3 30 -1 96 4 128 22 220 57 288 11 23 58 95 103 161
90 131 148 233 166 295 7 22 13 39 14 38 2 -2 -1 -50 -6 -108z"/>
</g>
</svg>
