<?xml version="1.0" standalone="no"?>
<!DOCTYPE svg PUBLIC "-//W3C//DTD SVG 20010904//EN"
 "http://www.w3.org/TR/2001/REC-SVG-20010904/DTD/svg10.dtd">
<svg version="1.0" xmlns="http://www.w3.org/2000/svg"
 width="250.000000pt" height="250.000000pt" viewBox="0 0 250.000000 250.000000"
 preserveAspectRatio="xMidYMid meet">
<metadata>
Created by potrace 1.16, written by Peter Selinger 2001-2019
</metadata>
<g transform="translate(0.000000,250.000000) scale(0.100000,-0.100000)"
fill="#000000" stroke="none">
<path d="M431 2446 c-35 -42 -39 -508 -6 -763 17 -139 62 -322 101 -415 38
-93 74 -152 223 -373 133 -198 212 -345 247 -460 15 -49 18 -89 17 -213 l-2
-153 52 3 c51 3 52 4 65 43 31 94 41 420 21 650 -24 282 -78 422 -261 678
-225 316 -320 503 -354 697 -13 77 -14 107 -4 182 7 49 9 100 6 114 -6 21 -12
24 -50 24 -24 0 -48 -6 -55 -14z m82 -20 c3 -8 1 -56 -5 -108 -29 -246 67
-484 360 -895 183 -256 237 -396 261 -678 20 -222 9 -517 -21 -610 -11 -34
-18 -40 -44 -43 l-31 -3 1 153 c1 123 -3 165 -17 213 -36 116 -115 262 -248
460 -149 221 -185 280 -223 373 -39 93 -84 276 -101 415 -32 255 -29 681 6
723 15 18 55 18 62 0z"/>
<path d="M2078 2453 c-1 -5 -2 -80 -2 -168 -1 -197 -14 -249 -105 -430 -58
-116 -123 -217 -319 -503 -154 -223 -203 -425 -203 -837 -1 -223 12 -369 37
-417 14 -27 19 -29 62 -26 l47 3 -3 125 c-6 237 43 367 266 699 172 255 220
346 266 508 59 203 70 314 71 668 0 233 -3 319 -13 348 -13 35 -16 37 -58 37
-24 0 -45 -3 -46 -7z m84 -50 c10 -28 13 -112 13 -328 -1 -332 -13 -448 -71
-648 -46 -162 -94 -253 -266 -508 -223 -333 -273 -462 -266 -699 l3 -125 -27
-3 c-21 -3 -30 3 -42 26 -24 46 -37 191 -37 397 1 391 52 598 203 817 196 286
261 387 319 503 91 181 103 233 105 430 1 88 2 163 3 168 0 4 12 7 25 7 19 0
27 -8 38 -37z"/>
</g>
</svg>
