<?xml version="1.0" standalone="no"?>
<!DOCTYPE svg PUBLIC "-//W3C//DTD SVG 20010904//EN"
 "http://www.w3.org/TR/2001/REC-SVG-20010904/DTD/svg10.dtd">
<svg version="1.0" xmlns="http://www.w3.org/2000/svg"
 width="100.000000pt" height="100.000000pt" viewBox="0 0 100.000000 100.000000"
 preserveAspectRatio="xMidYMid meet">
<metadata>
Created by potrace 1.16, written by Peter Selinger 2001-2019
</metadata>
<g transform="translate(0.000000,100.000000) scale(0.100000,-0.100000)"
fill="#000000" stroke="none">
<path d="M190 685 l0 -185 28 0 c23 1 25 2 11 13 -8 7 -18 20 -22 30 -5 13 -1
17 18 17 24 0 25 -3 25 -60 l0 -60 30 0 c27 0 30 -3 30 -30 0 -27 3 -30 30
-30 l30 0 0 -125 0 -125 35 0 35 0 0 185 0 185 -31 0 c-17 0 -28 -4 -24 -10 3
-5 12 -10 19 -10 8 0 16 -9 19 -20 4 -17 0 -20 -24 -20 -29 0 -29 0 -29 60 l0
60 -30 0 c-28 0 -30 3 -30 35 0 32 -2 35 -30 35 l-30 0 0 120 0 120 -30 0 -30
0 0 -185z m43 145 c4 -15 0 -20 -13 -20 -13 0 -17 5 -13 20 3 11 9 20 13 20 4
0 10 -9 13 -20z m-3 -60 c0 -11 -4 -20 -10 -20 -5 0 -10 9 -10 20 0 11 5 20
10 20 6 0 10 -9 10 -20z m0 -60 c0 -11 -4 -20 -10 -20 -5 0 -10 9 -10 20 0 11
5 20 10 20 6 0 10 -9 10 -20z m0 -50 c0 -5 -4 -10 -10 -10 -5 0 -10 5 -10 10
0 6 5 10 10 10 6 0 10 -4 10 -10z m18 -62 c3 -22 0 -26 -17 -21 -14 4 -21 14
-21 30 0 35 34 27 38 -9z m42 -13 c0 -16 -6 -25 -16 -25 -11 0 -14 5 -10 16 3
9 6 20 6 25 0 5 5 9 10 9 6 0 10 -11 10 -25z m63 -66 c4 -15 0 -19 -19 -19
-19 0 -24 5 -24 24 0 19 4 23 19 19 11 -3 21 -13 24 -24z m-63 11 c0 -5 -4
-10 -10 -10 -5 0 -10 5 -10 10 0 6 5 10 10 10 6 0 10 -4 10 -10z m20 -50 c0
-13 -7 -20 -20 -20 -13 0 -20 7 -20 20 0 13 7 20 20 20 13 0 20 -7 20 -20z
m40 -10 c0 -5 -4 -10 -10 -10 -5 0 -10 5 -10 10 0 6 5 10 10 10 6 0 10 -4 10
-10z m0 -50 c0 -11 -4 -20 -10 -20 -5 0 -10 9 -10 20 0 11 5 20 10 20 6 0 10
-9 10 -20z m70 -21 c0 -14 -7 -19 -25 -19 -20 0 -25 5 -25 24 0 19 4 22 25 18
16 -3 25 -11 25 -23z m0 -54 c0 -8 -7 -15 -15 -15 -8 0 -15 7 -15 15 0 8 7 15
15 15 8 0 15 -7 15 -15z m0 -55 c0 -11 -7 -20 -15 -20 -8 0 -15 9 -15 20 0 11
7 20 15 20 8 0 15 -9 15 -20z m3 -60 c-3 -11 -11 -20 -18 -20 -7 0 -15 9 -18
20 -4 16 0 20 18 20 18 0 22 -4 18 -20z m0 -60 c-3 -11 -11 -20 -18 -20 -7 0
-15 9 -18 20 -4 16 0 20 18 20 18 0 22 -4 18 -20z"/>
<path d="M750 780 l0 -90 -30 0 -30 0 0 -65 0 -65 -35 0 c-32 0 -35 -2 -35
-30 0 -27 -3 -30 -30 -30 l-30 0 0 -155 0 -155 25 0 c27 0 30 -6 15 -30 -8
-13 -11 -12 -24 5 -15 19 -15 19 -16 -7 0 -24 4 -28 30 -28 l30 0 0 125 0 125
35 0 35 0 0 60 c0 57 1 60 24 60 19 0 23 -4 19 -20 -3 -11 -12 -20 -19 -20 -8
0 -14 -4 -14 -10 0 -5 11 -10 25 -10 25 0 25 0 25 95 0 88 1 95 20 95 26 0 27
-37 3 -56 -16 -12 -15 -13 10 -14 l27 0 0 155 0 155 -30 0 -30 0 0 -90z m40
50 c0 -11 -4 -20 -10 -20 -5 0 -10 9 -10 20 0 11 5 20 10 20 6 0 10 -9 10 -20z
m0 -60 c0 -11 -4 -20 -10 -20 -5 0 -10 9 -10 20 0 11 5 20 10 20 6 0 10 -9 10
-20z m0 -80 c0 -22 -4 -40 -10 -40 -5 0 -10 18 -10 40 0 22 5 40 10 40 6 0 10
-18 10 -40z m-40 -35 c0 -20 -5 -25 -24 -25 -19 0 -23 4 -19 19 3 11 12 22 22
24 9 3 17 5 19 6 1 0 2 -10 2 -24z m-20 -90 c0 -25 -4 -45 -10 -45 -5 0 -10
20 -10 45 0 25 5 45 10 45 6 0 10 -20 10 -45z m-42 -42 c-2 -10 -13 -19 -26
-21 -17 -3 -22 2 -22 17 0 16 6 21 26 21 19 0 25 -5 22 -17z m-68 -58 c0 -18
-5 -25 -20 -25 -25 0 -27 37 -2 43 9 3 18 5 20 6 1 0 2 -10 2 -24z m50 5 c0
-5 -7 -10 -15 -10 -8 0 -15 5 -15 10 0 6 7 10 15 10 8 0 15 -4 15 -10z m0 -49
c0 -12 -9 -20 -25 -23 -21 -4 -25 -1 -25 18 0 19 5 24 25 24 18 0 25 -5 25
-19z m-70 -11 c0 -5 -4 -10 -10 -10 -5 0 -10 5 -10 10 0 6 5 10 10 10 6 0 10
-4 10 -10z m0 -55 c0 -14 -4 -25 -10 -25 -5 0 -10 11 -10 25 0 14 5 25 10 25
6 0 10 -11 10 -25z m3 -65 c-3 -11 -9 -20 -13 -20 -4 0 -10 9 -13 20 -4 15 0
20 13 20 13 0 17 -5 13 -20z m0 -60 c-3 -11 -9 -20 -13 -20 -4 0 -10 9 -13 20
-4 15 0 20 13 20 13 0 17 -5 13 -20z"/>
<path d="M691 728 c1 -16 3 -18 6 -6 2 9 12 19 21 21 12 3 10 5 -5 6 -18 1
-23 -4 -22 -21z"/>
<path d="M270 684 c0 -7 27 -34 34 -34 3 0 6 9 6 20 0 13 -7 20 -20 20 -11 0
-20 -3 -20 -6z"/>
<path d="M330 620 c0 -5 5 -10 10 -10 6 0 10 -7 10 -15 0 -8 5 -15 10 -15 6 0
10 11 10 25 0 18 -5 25 -20 25 -11 0 -20 -4 -20 -10z"/>
<path d="M620 599 c0 -17 4 -28 10 -24 6 3 10 13 10 21 0 8 7 14 15 14 8 0 15
5 15 10 0 6 -11 10 -25 10 -21 0 -25 -5 -25 -31z"/>
<path d="M560 540 c0 -24 6 -25 26 -6 19 20 18 26 -6 26 -13 0 -20 -7 -20 -20z"/>
<path d="M787 530 c-22 -26 -21 -30 3 -30 15 0 20 7 20 25 0 30 -1 30 -23 5z"/>
<path d="M190 460 c0 -13 7 -20 20 -20 24 0 25 6 6 26 -20 19 -26 18 -26 -6z"/>
<path d="M501 418 c1 -16 3 -18 6 -6 2 9 12 19 21 21 12 3 10 5 -5 6 -18 1
-23 -4 -22 -21z"/>
<path d="M250 400 c0 -13 7 -20 20 -20 24 0 25 6 6 26 -20 19 -26 18 -26 -6z"/>
<path d="M740 406 c0 -8 -8 -17 -17 -19 -14 -4 -12 -5 5 -6 16 -1 22 5 22 19
0 11 -2 20 -5 20 -3 0 -5 -6 -5 -14z"/>
<path d="M500 285 l0 -95 28 0 c24 1 25 2 10 14 -21 15 -24 42 -5 49 10 4 10
6 0 6 -7 1 -13 10 -13 20 0 11 6 22 13 24 10 4 10 6 0 6 -15 1 -18 51 -3 51 6
0 10 5 10 10 0 6 -9 10 -20 10 -19 0 -20 -7 -20 -95z"/>
<path d="M310 341 c0 -27 3 -31 28 -31 24 1 25 2 10 14 -10 7 -18 18 -18 24 0
6 -4 14 -10 17 -6 4 -10 -7 -10 -24z"/>
<path d="M670 345 c0 -8 -7 -15 -15 -15 -8 0 -15 -4 -15 -10 0 -5 11 -10 25
-10 20 0 25 5 25 25 0 14 -4 25 -10 25 -5 0 -10 -7 -10 -15z"/>
<path d="M460 300 c0 -5 5 -10 10 -10 6 0 10 5 10 10 0 6 -4 10 -10 10 -5 0
-10 -4 -10 -10z"/>
</g>
</svg>
