<?xml version="1.0" standalone="no"?>
<!DOCTYPE svg PUBLIC "-//W3C//DTD SVG 20010904//EN"
 "http://www.w3.org/TR/2001/REC-SVG-20010904/DTD/svg10.dtd">
<svg version="1.0" xmlns="http://www.w3.org/2000/svg"
 width="100.000000pt" height="100.000000pt" viewBox="0 0 100.000000 100.000000"
 preserveAspectRatio="xMidYMid meet">
<metadata>
Created by potrace 1.16, written by Peter Selinger 2001-2019
</metadata>
<g transform="translate(0.000000,100.000000) scale(0.100000,-0.100000)"
fill="#000000" stroke="none">
<path d="M90 985 c0 -10 -10 -15 -30 -15 -27 0 -30 -3 -30 -30 0 -20 -5 -30
-15 -30 -8 0 -15 -4 -15 -10 0 -5 7 -10 15 -10 22 0 19 -47 -2 -53 -17 -4 -17
-5 0 -6 21 -1 24 -41 2 -41 -8 0 -15 -4 -15 -10 0 -5 7 -10 15 -10 9 0 15 -9
15 -25 0 -21 5 -25 30 -25 27 0 30 -3 30 -30 0 -25 4 -30 25 -30 20 0 25 -5
25 -25 0 -20 5 -25 25 -25 20 0 25 -5 25 -25 0 -20 5 -25 25 -25 22 0 25 -4
25 -35 0 -19 -5 -35 -11 -35 -6 0 -9 9 -6 20 3 11 1 20 -4 20 -5 0 -9 -13 -9
-30 0 -25 -4 -30 -25 -30 -14 0 -25 -4 -25 -10 0 -5 7 -7 15 -4 8 4 15 1 15
-5 0 -6 -5 -11 -11 -11 -14 0 -39 -25 -39 -39 0 -6 -5 -11 -11 -11 -14 0 -39
-25 -39 -39 0 -6 -8 -11 -18 -11 -23 0 -42 -19 -42 -42 0 -10 -7 -18 -15 -18
-8 0 -15 -4 -15 -10 0 -5 7 -10 15 -10 8 0 15 -7 15 -15 0 -8 -7 -15 -15 -15
-8 0 -15 -4 -15 -10 0 -5 8 -10 19 -10 14 0 17 -6 13 -25 -2 -14 -11 -25 -18
-25 -8 0 -14 -4 -14 -10 0 -5 6 -10 14 -10 8 0 16 -7 20 -15 4 -10 -1 -15 -14
-15 -11 0 -20 -4 -20 -10 0 -5 7 -10 15 -10 10 0 15 -10 15 -30 l0 -30 100 0
100 0 0 30 c0 25 4 30 25 30 20 0 25 5 25 25 0 21 5 25 30 25 25 0 30 4 30 25
0 14 5 25 10 25 6 0 8 -15 4 -40 -4 -27 -3 -40 5 -40 6 0 11 17 11 39 0 22 6
44 15 51 13 11 15 6 15 -39 0 -31 -4 -51 -11 -51 -8 0 -8 -4 -1 -12 5 -7 12
-24 14 -38 3 -25 4 -25 112 -28 112 -3 136 4 136 38 0 10 9 20 21 23 11 3 23
15 26 26 3 11 15 21 27 23 11 2 25 13 31 25 5 12 18 24 28 27 10 2 21 14 24
25 3 12 10 21 15 21 6 0 8 -7 4 -15 -3 -8 -1 -15 4 -15 6 0 10 9 10 19 0 11 5
23 10 26 6 3 10 14 10 23 0 18 42 42 72 42 10 0 18 4 18 9 0 5 -9 7 -20 4 -11
-3 -20 -1 -20 5 0 6 10 12 23 14 12 2 26 13 32 25 5 13 15 23 22 23 7 0 13 5
13 10 0 6 -7 10 -15 10 -8 0 -15 7 -15 15 0 8 7 15 15 15 8 0 15 5 15 10 0 6
-7 10 -15 10 -10 0 -15 10 -15 30 0 20 5 30 15 30 8 0 15 5 15 10 0 6 -7 10
-15 10 -8 0 -15 7 -15 15 0 8 7 15 15 15 8 0 15 5 15 10 0 6 -6 10 -14 10 -8
0 -16 10 -18 23 -2 16 -11 23 -30 25 -22 3 -28 9 -28 28 0 19 -5 24 -25 24
-21 0 -25 5 -25 30 0 25 -4 30 -25 30 -20 0 -25 5 -25 25 0 20 -5 25 -25 25
-20 0 -25 5 -25 25 0 21 -5 25 -30 25 -25 0 -30 4 -30 25 0 20 -5 25 -25 25
-21 0 -25 5 -25 30 0 25 -4 30 -25 30 -16 0 -25 6 -25 15 0 8 -4 15 -10 15 -5
0 -10 -7 -10 -15 0 -22 -47 -19 -53 3 -4 16 -5 16 -6 0 -1 -23 -51 -25 -51 -3
0 8 -4 15 -10 15 -5 0 -10 -7 -10 -15 0 -9 -9 -15 -25 -15 -25 0 -25 -1 -25
-82 0 -80 -1 -82 -15 -54 -8 15 -15 35 -15 42 0 8 -4 14 -10 14 -5 0 -7 -7 -4
-15 4 -8 1 -15 -4 -15 -6 0 -12 10 -14 23 -2 15 -11 23 -30 25 -21 3 -27 9
-30 30 -2 19 -10 28 -25 30 -13 2 -23 10 -23 18 0 8 -4 14 -10 14 -5 0 -10 -7
-10 -15 0 -8 -7 -15 -15 -15 -8 0 -15 7 -15 15 0 8 -4 15 -10 15 -5 0 -10 -7
-10 -15 0 -9 -9 -15 -25 -15 -16 0 -25 6 -25 15 0 8 -4 15 -10 15 -5 0 -10 -7
-10 -15z m120 -65 c0 -25 4 -30 25 -30 20 0 25 -5 25 -25 0 -21 5 -25 30 -25
25 0 30 -4 30 -25 0 -20 5 -25 25 -25 20 0 25 -5 25 -25 0 -20 5 -25 25 -25
21 0 25 -5 25 -30 0 -25 4 -30 25 -30 20 0 25 -5 25 -25 0 -21 5 -25 30 -25
25 0 30 -4 30 -25 0 -20 5 -25 25 -25 25 0 25 -1 25 -80 0 -79 0 -80 -25 -80
-20 0 -25 -5 -25 -25 0 -21 -5 -25 -30 -25 -25 0 -30 -4 -30 -25 0 -20 -5 -25
-25 -25 -21 0 -25 -5 -25 -30 0 -25 -4 -30 -25 -30 -20 0 -25 -5 -25 -25 0
-20 -5 -25 -25 -25 -20 0 -25 -5 -25 -25 0 -21 -5 -25 -30 -25 -25 0 -30 -4
-30 -25 0 -24 -2 -25 -71 -25 -47 0 -68 -3 -64 -11 4 -6 13 -8 21 -5 8 3 14
-1 14 -9 0 -19 16 -19 24 0 9 24 26 17 26 -10 0 -25 -1 -25 -80 -25 -78 0 -80
0 -80 25 0 19 4 23 18 18 9 -4 22 -14 29 -22 11 -14 12 -12 13 12 0 23 -4 27
-30 27 l-30 0 0 75 0 75 30 0 c27 0 30 3 30 30 0 25 4 30 25 30 20 0 25 5 25
25 0 20 5 25 25 25 20 0 25 5 25 25 0 20 5 25 25 25 20 0 25 5 25 25 0 21 5
25 30 25 30 0 30 1 30 55 0 54 0 55 -30 55 -25 0 -30 4 -30 25 0 20 -5 25 -25
25 -20 0 -25 5 -25 25 0 20 -5 25 -25 25 -21 0 -25 5 -25 30 0 25 -4 30 -25
30 -20 0 -25 5 -25 25 0 20 -5 25 -27 25 l-27 0 22 -20 c28 -26 28 -30 -3 -30
l-25 0 0 105 0 105 80 0 80 0 0 -30z m50 5 c0 -29 -25 -25 -33 6 -4 14 0 19
14 19 14 0 19 -7 19 -25z m193 5 c-3 -11 -9 -20 -14 -20 -5 0 -9 -4 -9 -10 0
-5 9 -10 20 -10 16 0 20 7 20 30 l0 30 80 0 80 0 0 -30 c0 -25 4 -30 25 -30
20 0 25 -5 25 -25 0 -21 5 -25 30 -25 25 0 30 -4 30 -25 0 -20 5 -25 25 -25
20 0 25 -5 25 -25 0 -20 5 -25 25 -25 24 0 25 -3 25 -55 0 -52 1 -55 25 -55
20 0 25 -5 25 -25 0 -21 5 -25 30 -25 l30 0 0 -80 0 -80 -30 0 c-25 0 -30 -4
-30 -25 0 -20 -5 -25 -25 -25 -20 0 -25 -5 -25 -25 0 -20 -5 -25 -25 -25 -21
0 -25 -5 -25 -30 0 -25 -4 -30 -25 -30 -20 0 -25 -5 -25 -25 0 -21 -5 -25 -30
-25 -25 0 -30 -4 -30 -25 0 -20 -5 -25 -25 -25 -20 0 -25 -5 -25 -25 0 -20 -5
-25 -25 -25 -21 0 -25 -5 -25 -30 0 -30 -1 -30 -55 -30 -54 0 -55 0 -55 30 0
25 -4 30 -25 30 -24 0 -25 2 -25 75 0 73 1 75 25 75 21 0 25 5 25 30 0 27 3
30 30 30 25 0 30 4 30 25 0 20 5 25 25 25 20 0 25 5 25 25 0 20 5 25 25 25 20
0 25 5 25 25 0 20 5 25 25 25 24 0 25 3 25 55 0 52 -1 55 -25 55 -20 0 -25 5
-25 25 0 20 -5 25 -25 25 -20 0 -25 5 -25 25 0 20 -5 25 -25 25 -21 0 -25 5
-25 30 0 27 -3 30 -30 30 -25 0 -30 4 -30 25 0 20 -5 25 -25 25 -25 0 -25 1
-25 80 0 72 2 80 19 80 14 0 18 -5 14 -20z m-133 -59 c0 -14 -5 -18 -19 -14
-31 8 -35 33 -6 33 18 0 25 -5 25 -19z m50 -51 c0 -22 -25 -18 -34 6 -3 9 1
14 14 14 13 0 20 -7 20 -20z m50 -45 c0 -8 -6 -15 -14 -15 -8 0 -16 7 -20 15
-4 10 1 15 14 15 11 0 20 -7 20 -15z m50 -66 c0 -5 -7 -9 -15 -9 -9 0 -15 9
-15 21 0 18 2 19 15 9 8 -7 15 -16 15 -21z m-327 -10 c4 -14 0 -19 -14 -19
-14 0 -19 7 -19 25 0 29 25 25 33 -6z m367 1 c0 -11 -4 -20 -10 -20 -5 0 -10
2 -10 4 0 2 -3 11 -6 20 -4 11 -1 16 10 16 9 0 16 -8 16 -20z m380 -40 c0 -22
-25 -18 -34 6 -3 9 1 14 14 14 13 0 20 -7 20 -20z m-696 -16 c3 -9 -1 -14 -14
-14 -13 0 -20 7 -20 20 0 22 25 18 34 -6z m346 16 c12 0 19 -9 22 -30 3 -16 1
-30 -4 -30 -4 0 -8 11 -8 25 0 21 -5 25 -30 25 -16 0 -30 5 -30 11 0 6 7 8 16
5 9 -3 24 -6 34 -6z m410 -49 c0 -14 -5 -18 -19 -14 -31 8 -35 33 -6 33 18 0
25 -5 25 -19z m-706 -17 c3 -9 -1 -14 -14 -14 -13 0 -20 7 -20 20 0 22 25 18
34 -6z m366 0 c0 -9 -5 -14 -12 -12 -18 6 -21 28 -4 28 9 0 16 -7 16 -16z
m-306 -50 c4 -10 -2 -14 -19 -14 -18 0 -25 5 -25 19 0 14 5 18 19 14 11 -3 22
-11 25 -19z m356 1 c0 -8 -7 -15 -15 -15 -8 0 -15 7 -15 15 0 8 7 15 15 15 8
0 15 -7 15 -15z m-30 -45 c0 -20 -5 -30 -15 -30 -10 0 -15 10 -15 30 0 20 5
30 15 30 10 0 15 -10 15 -30z m-330 -1 c0 -5 -9 -9 -20 -9 -11 0 -20 6 -20 14
0 9 7 12 20 9 11 -3 20 -9 20 -14z m-60 -44 c0 -8 -7 -15 -15 -15 -8 0 -15 7
-15 15 0 8 7 15 15 15 8 0 15 -7 15 -15z m-50 -50 c0 -8 -7 -15 -15 -15 -8 0
-15 7 -15 15 0 8 7 15 15 15 8 0 15 -7 15 -15z m760 -15 c0 -15 -7 -20 -25
-20 -28 0 -25 26 3 33 10 3 18 5 20 6 1 0 2 -8 2 -19z m-810 -35 c0 -8 -7 -15
-15 -15 -8 0 -15 7 -15 15 0 8 7 15 15 15 8 0 15 -7 15 -15z m747 -32 c-3 -2
-13 -3 -23 -1 -16 3 -16 4 2 22 18 18 19 18 22 2 2 -10 1 -20 -1 -23z m-797
-23 c0 -13 -7 -20 -20 -20 -13 0 -20 7 -20 20 0 13 7 20 20 20 13 0 20 -7 20
-20z m750 -15 c0 -18 -5 -25 -20 -25 -14 0 -18 5 -13 18 6 14 22 31 31 32 1 0
2 -11 2 -25z m-53 -72 c-3 -2 -13 -3 -23 -1 -16 3 -16 4 2 22 18 18 19 18 22
2 2 -10 1 -20 -1 -23z m-47 -38 c0 -9 -9 -15 -25 -15 -18 0 -23 4 -19 15 4 8
15 15 25 15 10 0 19 -7 19 -15z m-60 -50 c0 -8 -7 -15 -15 -15 -8 0 -15 7 -15
15 0 8 7 15 15 15 8 0 15 -7 15 -15z m-227 -56 c4 -14 0 -19 -14 -19 -14 0
-19 7 -19 25 0 29 25 25 33 -6z m177 1 c0 -13 -7 -20 -19 -20 -14 0 -18 5 -14
20 3 11 12 20 19 20 8 0 14 -9 14 -20z"/>
<path d="M81 915 l-23 -25 26 0 c21 0 26 5 26 25 0 30 1 30 -29 0z"/>
<path d="M160 910 c0 -11 7 -20 15 -20 17 0 18 2 9 24 -9 23 -24 20 -24 -4z"/>
<path d="M204 836 c-9 -23 0 -51 16 -52 9 0 10 1 3 3 -20 7 -16 51 5 56 16 4
16 5 -1 6 -10 0 -20 -5 -23 -13z"/>
<path d="M70 831 c0 -5 7 -12 16 -15 22 -9 24 -8 24 9 0 8 -9 15 -20 15 -11 0
-20 -4 -20 -9z"/>
<path d="M160 829 c0 -5 5 -7 10 -4 6 3 10 8 10 11 0 2 -4 4 -10 4 -5 0 -10
-5 -10 -11z"/>
<path d="M260 806 c0 -10 8 -16 22 -16 12 0 19 1 17 3 -2 1 -12 9 -21 16 -15
12 -18 11 -18 -3z"/>
<path d="M320 756 c0 -9 7 -16 16 -16 17 0 14 22 -4 28 -7 2 -12 -3 -12 -12z"/>
<path d="M370 700 c0 -11 7 -20 15 -20 17 0 18 2 9 24 -9 23 -24 20 -24 -4z"/>
<path d="M260 690 c0 -5 5 -10 11 -10 5 0 7 5 4 10 -3 6 -8 10 -11 10 -2 0 -4
-4 -4 -10z"/>
<path d="M420 646 c0 -9 7 -16 16 -16 17 0 14 22 -4 28 -7 2 -12 -3 -12 -12z"/>
<path d="M320 640 c0 -5 5 -10 11 -10 5 0 7 5 4 10 -3 6 -8 10 -11 10 -2 0 -4
-4 -4 -10z"/>
<path d="M470 595 c0 -8 9 -15 20 -15 24 0 27 15 4 24 -22 9 -24 8 -24 -9z"/>
<path d="M340 576 c0 -2 7 -9 15 -16 12 -10 15 -10 15 4 0 9 -7 16 -15 16 -8
0 -15 -2 -15 -4z"/>
<path d="M530 546 c0 -9 7 -16 16 -16 17 0 14 22 -4 28 -7 2 -12 -3 -12 -12z"/>
<path d="M343 500 c0 -18 6 -30 14 -30 8 0 13 12 13 30 0 18 -5 30 -13 30 -8
0 -14 -12 -14 -30z"/>
<path d="M530 449 c0 -18 2 -19 15 -9 8 7 15 16 15 21 0 5 -7 9 -15 9 -9 0
-15 -9 -15 -21z"/>
<path d="M293 443 c-20 -8 -15 -23 7 -23 11 0 20 7 20 15 0 15 -6 17 -27 8z"/>
<path d="M470 400 c0 -20 1 -20 25 -4 14 9 25 18 25 20 0 2 -11 4 -25 4 -18 0
-25 -5 -25 -20z"/>
<path d="M237 393 c-12 -11 -8 -23 8 -23 8 0 15 7 15 15 0 16 -12 20 -23 8z"/>
<path d="M420 348 c0 -20 1 -21 20 -3 11 10 20 20 20 22 0 1 -9 3 -20 3 -14 0
-20 -7 -20 -22z"/>
<path d="M187 343 c-12 -11 -8 -23 8 -23 8 0 15 7 15 15 0 16 -12 20 -23 8z"/>
<path d="M370 295 c0 -14 2 -25 4 -25 2 0 11 11 20 25 16 24 16 25 -4 25 -15
0 -20 -7 -20 -25z"/>
<path d="M136 284 c-9 -22 -8 -24 9 -24 8 0 15 9 15 20 0 24 -15 27 -24 4z"/>
<path d="M320 244 c0 -17 22 -14 28 4 2 7 -3 12 -12 12 -9 0 -16 -7 -16 -16z"/>
<path d="M83 233 c-20 -8 -15 -23 7 -23 11 0 20 7 20 15 0 15 -6 17 -27 8z"/>
<path d="M260 195 c0 -17 2 -18 24 -9 23 9 20 24 -4 24 -11 0 -20 -7 -20 -15z"/>
<path d="M70 151 c0 -5 7 -12 16 -15 22 -9 24 -8 24 9 0 8 -9 15 -20 15 -11 0
-20 -4 -20 -9z"/>
<path d="M210 138 c0 -20 1 -21 20 -3 11 10 20 20 20 22 0 1 -9 3 -20 3 -14 0
-20 -7 -20 -22z"/>
<path d="M580 915 c0 -18 5 -25 20 -25 20 0 20 1 4 25 -9 14 -18 25 -20 25 -2
0 -4 -11 -4 -25z"/>
<path d="M520 920 c0 -5 -7 -10 -15 -10 -8 0 -15 -4 -15 -10 0 -5 9 -10 20
-10 13 0 20 7 20 20 0 11 -2 20 -5 20 -3 0 -5 -4 -5 -10z"/>
<path d="M630 860 c0 -14 7 -20 22 -20 20 0 21 1 3 20 -10 11 -20 20 -22 20
-1 0 -3 -9 -3 -20z"/>
<path d="M456 859 c3 -6 0 -15 -7 -20 -12 -7 -11 -11 4 -26 16 -16 17 -16 17
20 0 20 -5 37 -11 37 -5 0 -7 -5 -3 -11z"/>
<path d="M530 829 c0 -5 5 -7 10 -4 6 3 10 8 10 11 0 2 -4 4 -10 4 -5 0 -10
-5 -10 -11z"/>
<path d="M680 810 c0 -15 7 -20 25 -20 14 0 25 2 25 4 0 2 -11 11 -25 20 -24
16 -25 16 -25 -4z"/>
<path d="M490 781 c0 -5 7 -12 16 -15 22 -9 24 -8 24 9 0 8 -9 15 -20 15 -11
0 -20 -4 -20 -9z"/>
<path d="M740 760 c0 -14 7 -20 22 -20 20 0 21 1 3 20 -10 11 -20 20 -22 20
-1 0 -3 -9 -3 -20z"/>
<path d="M608 743 c7 -3 16 -2 19 1 4 3 -2 6 -13 5 -11 0 -14 -3 -6 -6z"/>
<path d="M554 724 c3 -9 6 -18 6 -20 0 -2 5 -4 10 -4 6 0 10 9 10 20 0 12 -7
20 -16 20 -11 0 -14 -5 -10 -16z"/>
<path d="M790 705 c0 -18 5 -25 20 -25 20 0 20 1 4 25 -9 14 -18 25 -20 25 -2
0 -4 -11 -4 -25z"/>
<path d="M602 668 c6 -18 28 -21 28 -4 0 9 -7 16 -16 16 -9 0 -14 -5 -12 -12z"/>
<path d="M681 658 c0 -16 -8 -28 -18 -30 -15 -3 -15 -4 0 -17 15 -12 17 -11
17 3 0 21 57 22 63 1 4 -11 4 -10 3 2 -1 12 -11 19 -28 21 -18 2 -28 10 -31
25 -4 19 -4 18 -6 -5z"/>
<path d="M700 572 c0 -4 9 -13 20 -20 18 -11 20 -10 20 8 0 13 -7 20 -20 20
-11 0 -20 -3 -20 -8z"/>
<path d="M826 565 c4 -8 8 -15 10 -15 2 0 4 7 4 15 0 8 -4 15 -10 15 -5 0 -7
-7 -4 -15z"/>
<path d="M700 521 c0 -5 6 -12 13 -15 10 -5 10 -7 0 -12 -20 -9 -15 -24 7 -24
16 0 20 7 20 30 0 23 -4 30 -20 30 -11 0 -20 -4 -20 -9z"/>
<path d="M860 526 c0 -2 7 -6 15 -10 8 -3 15 -1 15 4 0 6 -7 10 -15 10 -8 0
-15 -2 -15 -4z"/>
<path d="M890 455 c0 -17 2 -18 24 -9 23 9 20 24 -4 24 -11 0 -20 -7 -20 -15z"/>
<path d="M655 440 c-18 -19 -17 -20 3 -20 15 0 22 6 22 20 0 11 -2 20 -3 20
-2 0 -12 -9 -22 -20z"/>
<path d="M715 430 c-19 -8 -19 -9 3 -9 12 -1 22 4 22 9 0 6 -1 10 -2 9 -2 0
-12 -4 -23 -9z"/>
<path d="M840 404 c0 -17 22 -14 28 4 2 7 -3 12 -12 12 -9 0 -16 -7 -16 -16z"/>
<path d="M605 390 c-18 -19 -17 -20 3 -20 15 0 22 6 22 20 0 11 -2 20 -3 20
-2 0 -12 -9 -22 -20z"/>
<path d="M790 354 c0 -17 22 -14 28 4 2 7 -3 12 -12 12 -9 0 -16 -7 -16 -16z"/>
<path d="M555 340 c-18 -19 -17 -20 3 -20 15 0 22 6 22 20 0 11 -2 20 -3 20
-2 0 -12 -9 -22 -20z"/>
<path d="M672 300 c0 -14 2 -19 5 -12 2 6 2 18 0 25 -3 6 -5 1 -5 -13z"/>
<path d="M740 300 c0 -24 15 -27 24 -4 9 22 8 24 -9 24 -8 0 -15 -9 -15 -20z"/>
<path d="M501 285 l-23 -25 26 0 c21 0 26 5 26 25 0 30 1 30 -29 0z"/>
<path d="M680 245 c0 -17 2 -18 24 -9 23 9 20 24 -4 24 -11 0 -20 -7 -20 -15z"/>
<path d="M445 230 c-18 -19 -17 -20 3 -20 15 0 22 6 22 20 0 11 -2 20 -3 20
-2 0 -12 -9 -22 -20z"/>
<path d="M630 194 c0 -17 22 -14 28 4 2 7 -3 12 -12 12 -9 0 -16 -7 -16 -16z"/>
<path d="M442 148 c6 -18 28 -21 28 -4 0 9 -7 16 -16 16 -9 0 -14 -5 -12 -12z"/>
<path d="M580 144 c0 -17 22 -14 28 4 2 7 -3 12 -12 12 -9 0 -16 -7 -16 -16z"/>
<path d="M485 100 c3 -5 15 -10 26 -10 10 0 19 -4 19 -10 0 -17 14 -11 28 10
11 19 10 20 -34 20 -27 0 -43 -4 -39 -10z"/>
<path d="M305 940 c3 -5 8 -10 11 -10 2 0 4 5 4 10 0 6 -5 10 -11 10 -5 0 -7
-4 -4 -10z"/>
<path d="M110 409 c0 -5 5 -7 10 -4 6 3 10 8 10 11 0 2 -4 4 -10 4 -5 0 -10
-5 -10 -11z"/>
<path d="M50 359 c0 -5 5 -7 10 -4 6 3 10 8 10 11 0 2 -4 4 -10 4 -5 0 -10 -5
-10 -11z"/>
<path d="M775 170 c-3 -5 -1 -10 4 -10 6 0 11 5 11 10 0 6 -2 10 -4 10 -3 0
-8 -4 -11 -10z"/>
<path d="M725 120 c-3 -5 -1 -10 4 -10 6 0 11 5 11 10 0 6 -2 10 -4 10 -3 0
-8 -4 -11 -10z"/>
</g>
</svg>
