<?xml version="1.0" standalone="no"?>
<!DOCTYPE svg PUBLIC "-//W3C//DTD SVG 20010904//EN"
 "http://www.w3.org/TR/2001/REC-SVG-20010904/DTD/svg10.dtd">
<svg version="1.0" xmlns="http://www.w3.org/2000/svg"
 width="256.000000pt" height="256.000000pt" viewBox="0 0 256.000000 256.000000"
 preserveAspectRatio="xMidYMid meet">
<metadata>
Created by potrace 1.16, written by Peter Selinger 2001-2019
</metadata>
<g transform="translate(0.000000,256.000000) scale(0.100000,-0.100000)"
fill="#000000" stroke="none">
<path d="M1044 1346 c-280 -500 -524 -936 -541 -968 l-33 -58 143 0 142 0 213
390 214 390 160 2 160 3 54 93 c30 52 54 95 54 98 0 2 -71 5 -158 6 l-157 3
78 143 79 143 93 -168 c51 -92 135 -244 186 -338 l94 -170 133 0 c72 0 132 2
132 5 0 4 -4 10 -9 15 -5 6 -120 209 -255 452 l-245 442 120 211 c65 116 119
212 119 213 0 1 -60 2 -134 2 l-133 0 -509 -909z m726 879 c0 -3 -47 -89 -105
-190 -58 -102 -105 -194 -105 -206 0 -11 103 -205 229 -432 125 -227 233 -422
240 -434 l12 -23 -100 0 -99 0 -184 335 c-165 303 -185 335 -206 333 -19 -2
-39 -31 -103 -146 -43 -78 -79 -151 -79 -162 0 -18 9 -20 149 -22 l149 -3 -44
-75 -43 -75 -161 -5 -162 -5 -211 -387 -212 -387 -114 -1 c-89 0 -111 3 -103
12 5 7 243 429 527 938 285 509 519 928 522 933 5 8 203 10 203 2z"/>
</g>
</svg>
