<?xml version="1.0" standalone="no"?>
<!DOCTYPE svg PUBLIC "-//W3C//DTD SVG 20010904//EN"
 "http://www.w3.org/TR/2001/REC-SVG-20010904/DTD/svg10.dtd">
<svg version="1.0" xmlns="http://www.w3.org/2000/svg"
 width="64.000000pt" height="64.000000pt" viewBox="0 0 64.000000 64.000000"
 preserveAspectRatio="xMidYMid meet">
<metadata>
Created by potrace 1.16, written by Peter Selinger 2001-2019
</metadata>
<g transform="translate(0.000000,64.000000) scale(0.100000,-0.100000)"
fill="#000000" stroke="none">
<path d="M0 595 c0 -8 6 -12 13 -10 7 3 38 -37 75 -95 137 -215 279 -327 431
-338 75 -5 121 2 121 19 0 7 -12 9 -35 5 -25 -5 -35 -3 -35 6 0 7 -24 22 -52
33 -39 15 -61 32 -85 65 -58 77 -83 98 -154 125 -37 15 -79 35 -93 46 -13 10
-31 19 -39 19 -9 0 -35 31 -59 70 -33 53 -48 70 -65 70 -14 0 -23 -6 -23 -15z
m259 -210 c71 -27 96 -48 154 -125 24 -33 46 -50 85 -65 65 -25 67 -39 5 -30
-104 15 -224 91 -308 196 -58 72 -72 103 -30 70 14 -11 57 -31 94 -46z"/>
<path d="M237 354 c6 -15 23 -19 23 -5 0 5 -7 11 -14 14 -10 4 -13 1 -9 -9z"/>
<path d="M0 541 c0 -10 22 -51 49 -92 34 -52 50 -88 55 -122 12 -95 64 -164
159 -212 46 -23 62 -25 175 -25 129 0 202 13 202 37 0 16 2 16 -50 -2 -28 -10
-80 -15 -149 -15 -94 0 -113 3 -158 25 -95 48 -147 117 -159 212 -5 35 -21 70
-61 131 -30 45 -56 82 -59 82 -2 0 -4 -8 -4 -19z"/>
<path d="M150 338 c0 -9 5 -20 10 -23 13 -8 13 5 0 25 -8 13 -10 13 -10 -2z"/>
<path d="M360 140 c0 -5 14 -10 30 -10 17 0 30 5 30 10 0 6 -13 10 -30 10 -16
0 -30 -4 -30 -10z"/>
</g>
</svg>
