<?xml version="1.0" standalone="no"?>
<!DOCTYPE svg PUBLIC "-//W3C//DTD SVG 20010904//EN"
 "http://www.w3.org/TR/2001/REC-SVG-20010904/DTD/svg10.dtd">
<svg version="1.0" xmlns="http://www.w3.org/2000/svg"
 width="180.000000pt" height="180.000000pt" viewBox="0 0 180.000000 180.000000"
 preserveAspectRatio="xMidYMid meet">
<metadata>
Created by potrace 1.16, written by Peter Selinger 2001-2019
</metadata>
<g transform="translate(0.000000,180.000000) scale(0.100000,-0.100000)"
fill="#000000" stroke="none">
<path d="M621 1323 c32 -87 106 -288 164 -448 59 -159 129 -352 157 -427 l51
-138 123 0 122 0 -35 92 c-19 51 -54 147 -78 213 -37 102 -178 486 -287 783
l-31 82 -122 0 -122 0 58 -157z m169 133 c0 -2 54 -152 121 -332 66 -181 156
-426 199 -544 43 -118 82 -223 85 -233 7 -15 -1 -17 -87 -17 l-95 0 -201 548
c-111 301 -204 556 -208 565 -5 15 3 17 90 17 53 0 96 -2 96 -4z"/>
</g>
</svg>
