<?xml version="1.0" standalone="no"?>
<!DOCTYPE svg PUBLIC "-//W3C//DTD SVG 20010904//EN"
 "http://www.w3.org/TR/2001/REC-SVG-20010904/DTD/svg10.dtd">
<svg version="1.0" xmlns="http://www.w3.org/2000/svg"
 width="180.000000pt" height="180.000000pt" viewBox="0 0 180.000000 180.000000"
 preserveAspectRatio="xMidYMid meet">
<metadata>
Created by potrace 1.16, written by Peter Selinger 2001-2019
</metadata>
<g transform="translate(0.000000,180.000000) scale(0.100000,-0.100000)"
fill="#000000" stroke="none">
<path d="M494 1760 c-45 -21 -85 -43 -88 -49 -4 -6 -23 -18 -42 -26 -19 -8
-79 -60 -134 -115 -92 -93 -105 -112 -162 -227 -49 -98 -62 -137 -65 -181 l-4
-57 26 74 c14 41 49 119 77 174 43 82 68 115 150 198 54 55 113 106 132 114
19 8 38 20 42 26 8 13 139 75 199 95 l40 13 -45 0 c-31 0 -70 -12 -126 -39z"/>
<path d="M1175 1786 c60 -20 191 -82 199 -95 4 -6 23 -18 42 -26 19 -8 78 -59
132 -114 82 -83 107 -116 150 -198 28 -55 63 -133 77 -174 l26 -74 -4 57 c-3
44 -16 83 -65 181 -57 115 -70 134 -162 227 -55 55 -115 107 -134 115 -19 8
-38 20 -42 26 -14 24 -175 89 -217 88 l-42 0 40 -13z"/>
<path d="M600 1425 c0 -1 81 -221 181 -490 100 -270 186 -505 192 -522 l10
-33 110 0 c99 0 109 2 104 18 -3 9 -48 134 -102 277 -53 143 -137 370 -186
505 l-91 245 -109 0 c-60 0 -109 0 -109 0z m256 -192 c32 -87 113 -306 180
-488 l122 -330 -71 -3 c-38 -2 -74 1 -78 5 -4 4 -46 112 -92 238 -47 127 -126
341 -176 477 -50 135 -91 249 -91 252 0 3 33 6 74 6 l74 0 58 -157z"/>
<path d="M3 638 c3 -44 16 -83 65 -181 57 -115 70 -134 162 -227 55 -55 115
-107 134 -115 19 -8 38 -20 42 -26 14 -24 175 -89 217 -88 l42 0 -40 13 c-60
20 -191 82 -199 95 -4 6 -23 18 -42 26 -19 8 -78 59 -132 114 -82 83 -107 116
-150 198 -28 55 -63 133 -77 174 l-26 74 4 -57z"/>
<path d="M1782 645 c-7 -28 -40 -105 -72 -172 -55 -111 -69 -130 -160 -223
-55 -55 -115 -107 -134 -115 -19 -8 -38 -20 -42 -26 -8 -13 -139 -75 -199 -95
l-40 -13 42 0 c42 -1 203 64 217 88 4 6 23 18 42 26 19 8 78 59 132 114 82 83
107 116 149 198 67 130 85 182 81 229 l-3 39 -13 -50z"/>
</g>
</svg>
