<?xml version="1.0" standalone="no"?>
<!DOCTYPE svg PUBLIC "-//W3C//DTD SVG 20010904//EN"
 "http://www.w3.org/TR/2001/REC-SVG-20010904/DTD/svg10.dtd">
<svg version="1.0" xmlns="http://www.w3.org/2000/svg"
 width="114.000000pt" height="114.000000pt" viewBox="0 0 114.000000 114.000000"
 preserveAspectRatio="xMidYMid meet">
<metadata>
Created by potrace 1.16, written by Peter Selinger 2001-2019
</metadata>
<g transform="translate(0.000000,114.000000) scale(0.100000,-0.100000)"
fill="#000000" stroke="none">
<path d="M623 900 c-6 -22 -16 -26 -88 -36 -27 -3 -65 -12 -82 -20 -29 -11
-33 -17 -33 -51 0 -43 14 -63 44 -63 18 0 18 -1 3 -18 -50 -55 -62 -158 -22
-197 29 -30 98 -34 145 -10 35 18 76 70 85 108 6 22 16 29 51 38 25 7 58 24
74 39 26 24 30 35 30 79 0 42 -4 53 -24 66 -13 9 -42 17 -65 18 -34 1 -41 5
-41 22 0 28 -18 45 -48 45 -15 0 -26 -7 -29 -20z m47 -15 c27 -32 -7 -54 -113
-70 -24 -4 -37 -11 -34 -18 6 -16 56 -11 127 13 75 25 115 25 140 0 55 -55
-19 -140 -122 -140 -24 0 -55 -7 -70 -14 -26 -14 -41 -5 -18 9 12 7 13 45 2
45 -5 0 -15 -19 -22 -42 -7 -24 -21 -55 -31 -70 -19 -26 -25 -58 -11 -58 4 0
15 18 24 40 12 30 26 45 53 56 60 25 69 17 43 -35 -13 -25 -35 -54 -50 -64
-34 -25 -102 -28 -125 -4 -40 39 -4 150 58 182 35 19 103 22 123 6 32 -27 158
31 129 60 -13 13 -79 8 -191 -16 -94 -21 -135 -14 -140 22 -4 28 16 38 107 52
79 12 105 25 97 48 -7 18 9 17 24 -2z m45 -130 c-35 -16 -74 -20 -59 -6 9 9
43 18 74 19 8 0 2 -6 -15 -13z"/>
<path d="M475 790 c-3 -5 1 -10 9 -10 9 0 16 5 16 10 0 6 -4 10 -9 10 -6 0
-13 -4 -16 -10z"/>
<path d="M137 466 c-57 -21 -77 -43 -77 -86 0 -36 23 -70 47 -70 7 0 9 -17 5
-45 l-5 -45 46 0 c25 0 49 5 52 10 5 7 11 8 19 1 15 -12 175 -12 198 0 10 5
19 5 22 0 7 -12 163 -12 193 0 13 5 25 4 28 -1 10 -17 88 -11 121 9 30 18 31
18 42 0 9 -14 24 -19 56 -19 50 0 87 24 106 69 7 17 22 33 34 37 37 11 56 35
56 71 0 27 -4 33 -20 33 -12 0 -31 -7 -44 -15 -18 -12 -29 -13 -53 -5 -23 8
-40 7 -73 -4 -58 -20 -90 -8 -90 34 0 37 -19 47 -65 33 -22 -7 -37 -7 -43 -1
-6 6 -26 8 -47 4 -26 -5 -39 -14 -47 -34 -6 -15 -16 -38 -22 -51 -11 -24 -11
-24 -14 -3 -2 16 -10 22 -28 22 -20 0 -24 5 -24 29 0 37 -12 45 -57 36 -27 -5
-38 -13 -46 -36 -15 -39 -35 -37 -39 4 l-3 32 -95 2 c-61 2 -109 -2 -133 -11z
m213 -20 c0 -25 -17 -36 -54 -36 l-42 0 -33 -79 c-27 -66 -37 -80 -59 -84 -15
-3 -29 -3 -31 -1 -2 2 10 36 27 75 18 39 32 76 32 80 0 5 -14 9 -31 9 -28 0
-31 -3 -25 -23 3 -13 0 -32 -7 -41 -12 -16 -14 -16 -31 3 -24 27 -17 51 23 78
30 20 46 23 132 23 55 0 99 -2 99 -4z m140 -1 c0 -3 -9 -24 -20 -45 -11 -22
-19 -43 -18 -47 4 -12 -43 -103 -52 -103 -5 0 -16 -3 -26 -7 -15 -5 -16 -2
-10 23 7 28 7 28 -12 11 -23 -21 -78 -38 -97 -31 -35 14 -23 76 21 115 21 19
104 36 104 22 0 -15 -23 -33 -41 -33 -23 0 -49 -27 -49 -51 0 -23 12 -24 56
-3 31 15 55 50 83 127 8 20 17 27 36 27 14 0 25 -2 25 -5z m183 -11 c-6 -15
-52 -39 -60 -30 -3 2 0 14 7 25 13 26 63 30 53 5z m107 13 c0 -1 -13 -34 -30
-72 -31 -73 -37 -105 -20 -105 19 0 41 49 38 82 -3 28 0 32 17 29 31 -6 96 -4
133 4 20 5 37 3 47 -5 16 -13 51 -5 79 19 17 15 18 15 15 -4 -5 -22 -35 -39
-96 -52 -40 -10 -42 -9 -32 10 9 15 8 18 -3 15 -7 -3 -15 -13 -17 -24 -2 -10
-12 -31 -22 -46 -12 -16 -15 -29 -9 -33 5 -3 15 5 21 19 11 23 64 55 74 44 3
-3 -5 -20 -18 -39 -26 -39 -78 -59 -102 -39 -18 15 -20 71 -3 88 9 9 8 12 -8
12 -14 0 -24 -11 -32 -34 -13 -36 -40 -58 -81 -69 -29 -7 -61 8 -61 28 0 11
-10 8 -36 -10 -44 -30 -64 -32 -71 -6 -4 18 -6 18 -43 -3 -53 -29 -69 -15 -51
46 10 32 10 43 1 46 -19 7 20 42 47 42 28 0 31 -26 8 -70 -11 -21 -12 -31 -3
-36 12 -8 43 24 70 75 11 20 25 31 38 31 23 0 22 -17 -7 -73 -18 -37 -11 -44
22 -23 23 15 44 52 76 134 6 15 17 22 34 22 14 0 25 -1 25 -3z"/>
</g>
</svg>
