<?xml version="1.0" standalone="no"?>
<!DOCTYPE svg PUBLIC "-//W3C//DTD SVG 20010904//EN"
 "http://www.w3.org/TR/2001/REC-SVG-20010904/DTD/svg10.dtd">
<svg version="1.0" xmlns="http://www.w3.org/2000/svg"
 width="64.000000pt" height="64.000000pt" viewBox="0 0 64.000000 64.000000"
 preserveAspectRatio="xMidYMid meet">
<metadata>
Created by potrace 1.16, written by Peter Selinger 2001-2019
</metadata>
<g transform="translate(0.000000,64.000000) scale(0.100000,-0.100000)"
fill="#000000" stroke="none">
<path d="M533 605 c0 -22 2 -30 4 -17 2 12 2 30 0 40 -3 9 -5 -1 -4 -23z"/>
<path d="M78 543 c7 -3 16 -2 19 1 4 3 -2 6 -13 5 -11 0 -14 -3 -6 -6z"/>
<path d="M526 525 c-8 -30 -61 -92 -98 -115 l-28 -17 30 -28 c25 -24 32 -26
45 -15 31 26 63 95 67 148 5 54 -5 71 -16 27z m-36 -115 c-19 -27 -40 -40 -40
-25 0 6 52 54 58 55 2 0 -6 -13 -18 -30z"/>
<path d="M118 533 c6 -2 18 -2 25 0 6 3 1 5 -13 5 -14 0 -19 -2 -12 -5z"/>
<path d="M573 500 c0 -25 2 -35 4 -22 2 12 2 32 0 45 -2 12 -4 2 -4 -23z"/>
<path d="M168 523 c7 -3 16 -2 19 1 4 3 -2 6 -13 5 -11 0 -14 -3 -6 -6z"/>
<path d="M1 516 c2 -2 20 -6 39 -9 165 -21 206 -187 98 -387 l-30 -55 57 63
c75 83 120 105 197 100 46 -3 66 -11 95 -35 51 -41 83 -98 83 -150 0 -24 5
-43 10 -43 6 0 10 13 10 30 0 28 2 30 40 30 22 0 40 5 40 10 0 6 -17 10 -37
10 -50 0 -59 7 -67 55 -14 74 -57 148 -125 215 -76 75 -155 120 -261 149 -64
18 -162 29 -149 17z m244 -77 c74 -36 158 -107 209 -178 20 -27 36 -51 36 -55
0 -3 -16 5 -36 19 -62 42 -164 42 -219 1 -31 -24 -33 -20 -18 37 17 64 9 126
-23 172 -13 19 -21 35 -18 35 2 0 33 -14 69 -31z"/>
<path d="M561 434 c0 -11 3 -14 6 -6 3 7 2 16 -1 19 -3 4 -6 -2 -5 -13z"/>
<path d="M164 318 c0 -58 0 -60 9 -26 5 21 5 49 0 63 -6 20 -8 11 -9 -37z"/>
<path d="M303 200 c-34 -14 -28 -21 7 -8 17 6 45 8 63 4 23 -4 28 -3 17 4 -18
12 -57 12 -87 0z"/>
<path d="M551 184 c0 -11 3 -14 6 -6 3 7 2 16 -1 19 -3 4 -6 -2 -5 -13z"/>
<path d="M561 138 c-1 -27 1 -28 42 -26 l42 1 -37 4 c-28 3 -38 9 -41 26 -4
18 -5 17 -6 -5z"/>
<path d="M503 45 c0 -27 2 -38 4 -22 2 15 2 37 0 50 -2 12 -4 0 -4 -28z"/>
</g>
</svg>
