<?xml version="1.0" standalone="no"?>
<!DOCTYPE svg PUBLIC "-//W3C//DTD SVG 20010904//EN"
 "http://www.w3.org/TR/2001/REC-SVG-20010904/DTD/svg10.dtd">
<svg version="1.0" xmlns="http://www.w3.org/2000/svg"
 width="100.000000pt" height="100.000000pt" viewBox="0 0 100.000000 100.000000"
 preserveAspectRatio="xMidYMid meet">
<metadata>
Created by potrace 1.16, written by Peter Selinger 2001-2019
</metadata>
<g transform="translate(0.000000,100.000000) scale(0.100000,-0.100000)"
fill="#000000" stroke="none">
<path d="M180 853 l0 -73 315 0 315 0 20 44 c11 25 20 58 20 73 l0 28 -335 0
-335 0 0 -72z m650 44 c0 -4 -9 -28 -20 -53 l-20 -44 -295 0 -295 0 0 53 0 52
315 0 c173 0 315 -4 315 -8z"/>
<path d="M220 853 l0 -33 278 0 277 1 16 34 c11 23 13 35 5 35 -14 0 -38 -15
-37 -24 5 -37 10 -36 -259 -36 -253 0 -260 1 -260 20 0 19 7 20 253 22 271 2
242 6 -76 10 l-197 3 0 -32z"/>
<path d="M250 515 l0 -75 235 0 235 0 0 75 0 75 -235 0 -235 0 0 -75z m450 0
l0 -55 -215 0 -215 0 0 55 0 55 215 0 215 0 0 -55z"/>
<path d="M659 543 c-1 -5 -2 -15 -3 -23 -1 -13 -30 -15 -183 -18 -111 -1 -183
-6 -183 -12 0 -6 75 -10 195 -10 l195 0 0 35 c0 19 -4 35 -10 35 -5 0 -11 -3
-11 -7z"/>
<path d="M184 231 c-2 -2 -4 -35 -4 -73 l0 -68 336 0 337 0 -6 43 c-3 24 -13
56 -21 71 l-14 28 -312 2 c-171 0 -314 -1 -316 -3z m621 -44 c6 -13 15 -35 19
-50 l6 -27 -315 0 -315 0 0 48 c0 27 2 51 4 53 2 2 136 3 296 2 l292 -2 13
-24z"/>
<path d="M220 165 l0 -35 290 0 c177 0 290 4 290 10 0 20 -24 60 -37 60 -17 0
-16 -5 3 -35 l16 -25 -271 0 -271 0 0 24 c0 18 7 26 23 29 16 3 13 5 -10 6
-31 1 -33 -1 -33 -34z"/>
</g>
</svg>
