<?xml version="1.0" standalone="no"?>
<!DOCTYPE svg PUBLIC "-//W3C//DTD SVG 20010904//EN"
 "http://www.w3.org/TR/2001/REC-SVG-20010904/DTD/svg10.dtd">
<svg version="1.0" xmlns="http://www.w3.org/2000/svg"
 width="64.000000pt" height="64.000000pt" viewBox="0 0 64.000000 64.000000"
 preserveAspectRatio="xMidYMid meet">
<metadata>
Created by potrace 1.16, written by Peter Selinger 2001-2019
</metadata>
<g transform="translate(0.000000,64.000000) scale(0.100000,-0.100000)"
fill="#000000" stroke="none">
<path d="M235 581 l-120 -16 -17 -50 c-9 -27 -17 -65 -18 -84 l0 -34 68 6
c199 19 257 20 269 6 9 -12 -9 -14 -115 -16 -70 -1 -155 -5 -188 -8 l-61 -6
-18 -64 c-11 -41 -15 -78 -10 -103 6 -35 15 -45 98 -104 l92 -66 163 -8 c119
-5 162 -4 162 5 0 6 7 11 15 11 8 0 15 4 15 8 0 5 11 69 25 143 36 193 36 190
-40 294 -36 50 -73 93 -83 97 -27 11 -107 7 -237 -11z m195 -15 c0 -43 -25
-116 -39 -117 -9 0 -77 -6 -151 -13 -74 -7 -137 -11 -139 -10 -3 3 28 105 35
113 2 3 229 35 282 40 6 0 12 -5 12 -13z m108 -98 l62 -87 -27 -153 c-14 -84
-27 -154 -28 -156 -1 -1 -38 33 -82 75 l-81 78 17 74 17 75 23 -33 c18 -25 26
-30 32 -19 16 24 9 60 -16 90 -14 16 -23 33 -21 36 2 4 9 33 16 66 6 32 15 54
19 50 4 -5 35 -48 69 -96z m-153 -110 c-3 -13 -11 -45 -18 -73 l-12 -50 -159
-3 c-144 -2 -158 -1 -152 14 4 9 11 37 18 61 6 25 16 47 22 49 6 2 72 8 146
12 74 5 141 10 148 11 8 1 10 -7 7 -21z m57 -230 c43 -39 77 -72 76 -74 -2 -1
-66 1 -144 5 l-140 8 -92 64 c-50 35 -91 66 -92 69 0 3 70 4 157 2 l156 -3 79
-71z"/>
</g>
</svg>
