<?xml version="1.0" standalone="no"?>
<!DOCTYPE svg PUBLIC "-//W3C//DTD SVG 20010904//EN"
 "http://www.w3.org/TR/2001/REC-SVG-20010904/DTD/svg10.dtd">
<svg version="1.0" xmlns="http://www.w3.org/2000/svg"
 width="100.000000pt" height="100.000000pt" viewBox="0 0 100.000000 100.000000"
 preserveAspectRatio="xMidYMid meet">
<metadata>
Created by potrace 1.16, written by Peter Selinger 2001-2019
</metadata>
<g transform="translate(0.000000,100.000000) scale(0.100000,-0.100000)"
fill="#000000" stroke="none">
<path d="M80 840 c0 -5 -7 -10 -16 -10 -18 0 -44 -23 -44 -39 0 -6 -4 -11 -10
-11 -5 0 -10 -9 -10 -20 0 -11 3 -20 6 -20 8 0 34 27 34 35 0 12 29 35 44 35
9 0 16 5 16 10 0 6 30 10 70 10 40 0 70 -4 70 -10 0 -5 5 -10 11 -10 14 0 39
-25 39 -39 0 -6 5 -11 10 -11 6 0 10 -11 10 -25 0 -14 5 -25 10 -25 6 0 10 7
10 15 0 8 5 15 10 15 6 0 10 11 10 25 0 17 5 25 18 25 10 0 24 9 32 20 12 17
26 20 92 20 45 0 78 -4 78 -10 0 -5 7 -10 16 -10 18 0 44 -23 44 -39 0 -6 5
-11 10 -11 6 0 10 -11 10 -25 0 -14 5 -25 10 -25 6 0 10 7 10 15 0 8 5 15 10
15 6 0 10 9 10 21 0 24 22 49 44 49 9 0 16 5 16 10 0 6 31 10 73 10 61 0 75
-3 87 -20 8 -11 22 -20 32 -20 13 0 18 -8 18 -25 0 -14 5 -25 10 -25 6 0 10
-11 10 -25 0 -14 5 -25 10 -25 6 0 10 16 10 35 0 19 -4 35 -10 35 -5 0 -10 11
-10 25 0 17 -5 25 -18 25 -10 0 -24 9 -32 20 -13 18 -26 20 -107 20 -55 0 -93
-4 -93 -10 0 -5 -7 -10 -16 -10 -18 0 -44 -23 -44 -39 0 -6 -4 -11 -10 -11 -5
0 -10 5 -10 11 0 16 -26 39 -44 39 -9 0 -16 5 -16 10 0 6 -39 10 -98 10 -86 0
-99 -2 -112 -20 -8 -11 -22 -20 -32 -20 -10 0 -18 -7 -18 -15 0 -8 -4 -15 -10
-15 -5 0 -10 5 -10 11 0 14 -25 39 -39 39 -6 0 -11 5 -11 10 0 6 -37 10 -90
10 -53 0 -90 -4 -90 -10z"/>
<path d="M370 755 c0 -8 5 -15 10 -15 6 0 10 7 10 15 0 8 -4 15 -10 15 -5 0
-10 -7 -10 -15z"/>
<path d="M310 527 c0 -12 -9 -29 -20 -37 -11 -8 -20 -18 -20 -23 0 -16 -28
-37 -49 -37 -12 0 -21 -6 -21 -15 0 -11 -11 -15 -40 -15 -29 0 -40 4 -40 15 0
8 -9 15 -20 15 -11 0 -20 5 -20 10 0 6 -9 10 -20 10 -11 0 -20 7 -20 15 0 8
-4 15 -10 15 -5 0 -10 9 -10 20 0 11 -4 20 -10 20 -5 0 -10 -13 -10 -30 0 -16
5 -30 10 -30 6 0 10 -7 10 -15 0 -8 9 -15 20 -15 11 0 20 -4 20 -10 0 -5 9
-10 20 -10 11 0 20 -7 20 -15 0 -12 13 -15 60 -15 47 0 60 3 60 15 0 9 9 15
21 15 19 0 49 21 49 35 0 4 7 13 15 21 13 14 17 14 30 0 8 -8 15 -19 15 -25 0
-6 5 -11 12 -11 6 0 1 -8 -10 -19 -12 -10 -22 -28 -22 -40 0 -11 -4 -21 -10
-21 -5 0 -10 -9 -10 -20 0 -11 -4 -20 -10 -20 -6 0 -10 -33 -10 -80 0 -47 4
-80 10 -80 6 0 10 -16 10 -35 0 -19 5 -35 10 -35 6 0 10 -5 10 -11 0 -16 26
-39 44 -39 9 0 16 -7 16 -15 0 -11 11 -15 40 -15 22 0 40 5 40 10 0 6 -13 10
-30 10 -20 0 -30 5 -30 15 0 8 -7 15 -16 15 -18 0 -44 23 -44 39 0 6 -4 11
-10 11 -5 0 -10 16 -10 35 0 19 -4 35 -10 35 -6 0 -10 27 -10 60 0 33 4 60 10
60 6 0 10 9 10 20 0 11 5 20 10 20 6 0 10 9 10 21 0 24 22 49 44 49 22 0 20
23 -4 40 -11 8 -20 19 -20 25 0 6 -9 17 -20 25 -11 8 -20 25 -20 37 0 13 -4
23 -10 23 -5 0 -10 -10 -10 -23z"/>
<path d="M650 527 c0 -12 -9 -29 -20 -37 -11 -8 -20 -19 -20 -25 0 -6 -9 -17
-20 -25 -24 -17 -26 -40 -5 -40 23 0 65 -46 65 -70 0 -11 5 -20 10 -20 6 0 10
-35 10 -85 0 -50 -4 -85 -10 -85 -5 0 -10 -9 -10 -20 0 -11 -4 -20 -10 -20 -5
0 -10 -6 -10 -13 0 -7 -9 -19 -20 -27 -11 -8 -20 -20 -20 -27 0 -8 -14 -13
-40 -13 -22 0 -40 -4 -40 -10 0 -5 23 -10 50 -10 34 0 50 4 50 13 0 7 9 19 20
27 11 8 20 20 20 27 0 7 5 13 10 13 6 0 10 9 10 20 0 11 5 20 10 20 6 0 10 42
10 105 0 63 -4 105 -10 105 -5 0 -10 9 -10 21 0 12 -14 34 -31 50 -17 16 -26
29 -20 29 6 0 11 5 11 11 0 6 7 17 15 25 13 14 17 14 30 0 8 -8 15 -17 15 -21
0 -14 30 -35 49 -35 12 0 21 -6 21 -15 0 -12 13 -15 60 -15 47 0 60 3 60 15 0
9 10 15 26 15 25 0 54 20 54 37 0 5 9 15 20 23 21 15 29 80 10 80 -5 0 -10
-10 -10 -23 0 -12 -9 -29 -20 -37 -11 -8 -20 -18 -20 -23 0 -17 -29 -37 -54
-37 -16 0 -26 -6 -26 -15 0 -11 -11 -15 -40 -15 -29 0 -40 4 -40 15 0 9 -9 15
-21 15 -21 0 -49 21 -49 37 0 5 -9 15 -20 23 -11 8 -20 25 -20 37 0 13 -4 23
-10 23 -5 0 -10 -10 -10 -23z"/>
<path d="M140 429 c0 -5 5 -7 10 -4 6 3 10 8 10 11 0 2 -4 4 -10 4 -5 0 -10
-5 -10 -11z"/>
</g>
</svg>
