<?xml version="1.0" standalone="no"?>
<!DOCTYPE svg PUBLIC "-//W3C//DTD SVG 20010904//EN"
 "http://www.w3.org/TR/2001/REC-SVG-20010904/DTD/svg10.dtd">
<svg version="1.0" xmlns="http://www.w3.org/2000/svg"
 width="180.000000pt" height="180.000000pt" viewBox="0 0 180.000000 180.000000"
 preserveAspectRatio="xMidYMid meet">
<metadata>
Created by potrace 1.16, written by Peter Selinger 2001-2019
</metadata>
<g transform="translate(0.000000,180.000000) scale(0.100000,-0.100000)"
fill="#000000" stroke="none">
<path d="M588 1476 c-163 -95 -308 -181 -322 -190 l-26 -16 0 -373 c0 -204 4
-377 8 -382 12 -18 638 -375 656 -375 16 0 617 341 644 365 10 9 13 96 13 391
l1 379 -323 188 c-177 103 -330 187 -338 186 -9 0 -150 -78 -313 -173z m342
129 c25 -14 25 -14 3 -15 l-23 0 0 -215 c0 -118 -3 -215 -7 -215 -5 0 -7 97
-5 215 l3 215 -23 0 c-21 0 -21 0 -2 15 23 18 23 18 54 0z m-54 -51 c-3 -9 -6
-95 -6 -192 l0 -177 -68 -37 c-37 -21 -83 -47 -103 -59 l-36 -21 -159 91
c-145 84 -183 111 -156 111 11 0 491 276 507 291 15 14 28 10 21 -7z m92 -3
c44 -31 481 -281 492 -281 28 0 -4 -23 -147 -105 -86 -49 -160 -91 -164 -93
-4 -2 -55 25 -113 59 l-106 61 0 189 c0 104 2 189 5 189 3 0 18 -9 33 -19z
m-648 -295 c0 -15 -7 -26 -20 -29 -19 -5 -20 -14 -20 -336 0 -316 1 -331 19
-331 14 0 17 -6 13 -25 -3 -21 -7 -23 -23 -14 -18 9 -19 27 -19 373 l0 363 23
11 c12 6 23 11 25 11 1 1 2 -10 2 -23z m1218 -361 c2 -332 1 -359 -15 -371
-26 -19 -33 -17 -33 10 0 15 7 26 20 29 19 5 20 14 20 332 0 318 -1 327 -20
332 -13 4 -20 14 -20 30 0 24 1 25 23 11 l22 -15 3 -358z m-1067 214 l159 -92
0 -123 0 -122 -142 -83 c-79 -45 -153 -89 -165 -97 l-23 -14 0 311 c0 171 3
311 6 311 3 0 77 -41 165 -91z m1032 -216 c-2 -170 -3 -310 -3 -312 0 -2 -8 3
-17 11 -10 8 -84 53 -165 99 l-148 84 0 120 0 120 103 57 c56 32 127 73 157
92 30 19 60 35 65 35 7 1 9 -106 8 -306z m-393 1 l0 -123 -72 -42 c-40 -23
-87 -50 -103 -60 l-30 -18 -108 62 -107 61 0 121 0 120 108 60 107 60 102 -59
103 -59 0 -123z m-438 -52 c2 -63 -1 -102 -7 -102 -6 0 -8 54 -5 152 4 154 7
141 12 -50z m480 0 c2 -63 -1 -102 -7 -102 -6 0 -8 54 -5 152 4 154 7 141 12
-50z m-377 -187 l94 -56 3 -187 c2 -103 3 -188 2 -190 -2 -4 -533 303 -533
308 0 10 315 188 327 184 6 -2 55 -28 107 -59z m529 -27 c181 -103 175 -99
161 -104 -6 -2 -127 -72 -269 -154 -142 -83 -261 -150 -262 -150 -2 0 -4 85
-4 189 l0 189 73 41 c39 22 86 49 102 60 17 11 32 20 34 20 2 1 76 -40 165
-91z m-392 -212 l-3 -215 23 -3 23 -3 -24 -14 c-19 -11 -28 -11 -50 0 -26 13
-26 13 -3 17 l23 3 -3 215 c-2 138 1 214 7 214 6 0 9 -76 7 -214z"/>
</g>
</svg>
