<?xml version="1.0" standalone="no"?>
<!DOCTYPE svg PUBLIC "-//W3C//DTD SVG 20010904//EN"
 "http://www.w3.org/TR/2001/REC-SVG-20010904/DTD/svg10.dtd">
<svg version="1.0" xmlns="http://www.w3.org/2000/svg"
 width="180.000000pt" height="180.000000pt" viewBox="0 0 180.000000 180.000000"
 preserveAspectRatio="xMidYMid meet">
<metadata>
Created by potrace 1.16, written by Peter Selinger 2001-2019
</metadata>
<g transform="translate(0.000000,180.000000) scale(0.100000,-0.100000)"
fill="#000000" stroke="none">
<path d="M812 1649 c-90 -10 -222 -55 -300 -100 -31 -19 -98 -74 -147 -124
-69 -69 -101 -109 -132 -170 -69 -134 -88 -210 -88 -355 0 -150 15 -215 81
-349 83 -169 252 -314 435 -375 159 -53 337 -52 497 3 119 41 185 84 287 186
100 100 154 189 196 325 34 108 34 302 0 410 -85 274 -298 475 -565 535 -87
19 -180 24 -264 14z m230 -34 c348 -73 600 -376 600 -720 0 -296 -187 -566
-472 -682 -270 -109 -564 -46 -781 167 -296 291 -296 739 0 1030 181 178 424
254 653 205z"/>
<path d="M833 1521 c-89 -22 -116 -69 -111 -190 3 -75 8 -96 41 -166 84 -176
244 -333 424 -417 62 -30 76 -33 170 -33 99 0 102 1 132 29 17 16 36 45 42 64
16 48 6 154 -21 222 -74 188 -296 405 -481 469 -65 23 -153 33 -196 22z m166
-41 c274 -92 554 -444 510 -641 -19 -81 -78 -117 -177 -105 -253 30 -592 384
-592 619 0 125 108 178 259 127z"/>
<path d="M554 1017 c-27 -24 -29 -30 -29 -99 0 -64 5 -81 35 -138 47 -88 151
-189 237 -232 57 -28 79 -33 136 -33 63 0 71 2 93 28 20 23 24 39 24 91 0 92
-47 181 -144 273 -92 88 -167 126 -257 131 -58 4 -69 1 -95 -21z m204 -36
c116 -59 237 -198 262 -303 22 -90 -9 -138 -87 -138 -175 0 -430 281 -382 419
24 67 101 75 207 22z"/>
<path d="M396 688 c-38 -54 1 -167 82 -239 60 -53 98 -69 166 -69 64 0 76 13
76 81 0 58 -31 118 -91 174 -60 56 -102 75 -168 75 -40 0 -53 -4 -65 -22z
m130 -17 c84 -38 174 -151 174 -217 0 -83 -120 -66 -215 31 -50 52 -75 100
-75 147 0 61 39 74 116 39z"/>
</g>
</svg>
