<?xml version="1.0" standalone="no"?>
<!DOCTYPE svg PUBLIC "-//W3C//DTD SVG 20010904//EN"
 "http://www.w3.org/TR/2001/REC-SVG-20010904/DTD/svg10.dtd">
<svg version="1.0" xmlns="http://www.w3.org/2000/svg"
 width="180.000000pt" height="180.000000pt" viewBox="0 0 180.000000 180.000000"
 preserveAspectRatio="xMidYMid meet">
<metadata>
Created by potrace 1.16, written by Peter Selinger 2001-2019
</metadata>
<g transform="translate(0.000000,180.000000) scale(0.100000,-0.100000)"
fill="#000000" stroke="none">
<path d="M0 1480 c0 -7 307 -10 900 -10 593 0 900 3 900 10 0 7 -307 10 -900
10 -593 0 -900 -3 -900 -10z"/>
<path d="M90 1191 l0 -60 -42 -3 -43 -3 0 -75 0 -75 42 -3 41 -3 4 -124 c3
-134 10 -153 72 -199 24 -18 42 -21 138 -21 99 0 112 2 126 20 l16 20 44 -22
c37 -19 62 -23 132 -23 74 0 94 4 141 28 47 24 54 31 57 60 2 24 -4 43 -23 68
-31 40 -67 45 -117 14 -44 -26 -71 -25 -105 5 l-28 24 146 1 c131 0 148 -2
154 -17 3 -10 34 -55 68 -100 l62 -83 60 0 60 0 67 90 67 89 10 -32 c17 -49
66 -103 118 -128 48 -23 52 -23 288 -17 l90 3 3 253 2 253 -92 0 c-51 -1 -119
2 -151 5 -83 9 -140 -10 -199 -66 l-47 -45 -3 55 -3 55 -35 3 c-33 2 -39 -2
-93 -72 -31 -41 -62 -87 -69 -101 l-12 -26 -15 29 c-9 16 -41 61 -71 101 -52
67 -57 72 -90 69 l-35 -3 -3 -59 -3 -59 -24 36 c-15 22 -46 46 -80 62 -48 24
-64 27 -123 23 -75 -6 -139 -33 -170 -73 l-21 -26 -3 43 -3 43 -67 3 -68 3 0
59 0 60 -85 0 -85 0 0 -59z m150 -21 l0 -59 68 -3 67 -3 0 -55 0 -55 -67 -3
-68 -3 0 -92 c0 -122 12 -142 80 -134 47 6 49 5 75 -34 14 -23 24 -47 21 -55
-16 -40 -181 -46 -232 -8 -62 46 -69 65 -72 199 l-4 124 -41 3 -42 3 0 55 0
55 43 3 42 3 0 60 0 59 65 0 65 0 0 -60z m474 -84 c53 -31 95 -94 108 -164 15
-83 18 -82 -158 -82 l-155 0 16 -29 c33 -64 104 -79 177 -39 l40 23 29 -35
c16 -19 28 -42 27 -50 -2 -8 -27 -27 -57 -42 -64 -33 -158 -38 -219 -12 -104
43 -161 164 -132 283 36 152 193 224 324 147z m217 -39 c77 -99 92 -131 99
-212 l7 -70 2 60 c2 75 24 125 97 218 78 99 88 97 92 -23 2 -52 -2 -119 -8
-148 -20 -92 -177 -282 -181 -219 0 10 -2 10 -6 0 -11 -29 -42 -8 -101 71 -77
103 -92 148 -92 281 0 143 9 148 91 42z m627 51 c26 -13 32 -14 36 -2 4 10 23
14 66 14 l60 0 -2 -232 -3 -233 -52 -3 c-35 -2 -56 2 -65 11 -11 13 -17 13
-43 0 -16 -9 -53 -15 -82 -15 -216 2 -312 283 -144 423 21 18 54 39 72 46 42
16 115 11 157 -9z m-1193 -217 l0 -89 -35 -6 c-53 -9 -70 17 -70 110 l0 74 53
0 52 0 0 -89z"/>
<path d="M200 1200 c0 -5 5 -10 10 -10 6 0 10 5 10 10 0 6 -4 10 -10 10 -5 0
-10 -4 -10 -10z"/>
<path d="M575 1001 c-24 -10 -60 -49 -53 -56 3 -3 43 -5 88 -3 l83 3 -24 27
c-27 30 -64 42 -94 29z m60 -31 c4 -6 -8 -10 -30 -10 -22 0 -34 4 -30 10 3 6
17 10 30 10 13 0 27 -4 30 -10z"/>
<path d="M780 869 c0 -5 5 -7 10 -4 6 3 10 8 10 11 0 2 -4 4 -10 4 -5 0 -10
-5 -10 -11z"/>
<path d="M860 1058 c0 -20 5 -40 10 -43 13 -8 13 45 0 65 -7 11 -10 6 -10 -22z"/>
<path d="M1198 1077 c-12 -29 -10 -73 3 -60 6 6 9 26 7 44 -2 26 -5 30 -10 16z"/>
<path d="M940 950 c-3 -119 1 -204 11 -215 5 -5 9 6 9 30 l1 40 27 -33 c15
-18 36 -32 47 -32 11 0 32 14 47 32 l27 33 1 -40 c0 -24 4 -35 9 -30 10 11 14
96 11 215 -1 63 -3 70 -11 45 -5 -16 -8 -55 -7 -85 2 -50 -2 -60 -36 -107 -21
-29 -39 -53 -41 -53 -2 0 -20 24 -41 53 -34 47 -38 57 -36 107 1 30 -2 69 -7
85 -8 25 -10 18 -11 -45z"/>
<path d="M860 951 c10 -38 48 -83 61 -75 11 7 -1 29 -40 74 l-30 35 9 -34z"/>
<path d="M1176 934 c-41 -54 -37 -85 5 -35 22 27 45 81 33 81 -2 0 -19 -21
-38 -46z"/>
<path d="M1414 956 c-29 -29 -34 -41 -34 -80 0 -36 6 -52 29 -78 26 -29 35
-33 81 -33 46 0 55 4 81 33 23 26 29 42 29 78 0 39 -5 51 -34 80 -28 28 -42
34 -76 34 -34 0 -48 -6 -76 -34z m132 -20 c42 -42 44 -75 6 -118 -40 -43 -84
-43 -124 0 -38 43 -36 76 6 118 43 43 69 43 112 0z"/>
<path d="M0 280 c0 -7 307 -10 900 -10 593 0 900 3 900 10 0 7 -307 10 -900
10 -593 0 -900 -3 -900 -10z"/>
</g>
</svg>
