<?xml version="1.0" standalone="no"?>
<!DOCTYPE svg PUBLIC "-//W3C//DTD SVG 20010904//EN"
 "http://www.w3.org/TR/2001/REC-SVG-20010904/DTD/svg10.dtd">
<svg version="1.0" xmlns="http://www.w3.org/2000/svg"
 width="100.000000pt" height="100.000000pt" viewBox="0 0 100.000000 100.000000"
 preserveAspectRatio="xMidYMid meet">
<metadata>
Created by potrace 1.16, written by Peter Selinger 2001-2019
</metadata>
<g transform="translate(0.000000,100.000000) scale(0.100000,-0.100000)"
fill="#000000" stroke="none">
<path d="M230 980 c0 -18 -7 -20 -60 -20 l-60 0 0 -35 c0 -33 -2 -35 -35 -35
-32 0 -35 -2 -35 -30 0 -23 -4 -30 -20 -30 -11 0 -20 -4 -20 -10 0 -5 13 -10
30 -10 l30 0 0 -215 0 -215 35 0 c33 0 35 -2 35 -35 0 -33 -2 -35 -35 -35 -32
0 -35 -2 -35 -30 l0 -30 440 0 440 0 0 65 0 65 -65 0 -65 0 0 30 0 30 65 0 65
0 0 185 0 185 30 0 c17 0 30 5 30 10 0 6 -9 10 -20 10 -16 0 -20 7 -20 30 0
28 -3 30 -35 30 -33 0 -35 2 -35 35 0 32 -2 35 -30 35 -23 0 -30 4 -30 20 0
11 -4 20 -10 20 -5 0 -10 -13 -10 -30 l0 -30 -60 0 -60 0 0 30 c0 17 -4 30
-10 30 -5 0 -10 -9 -10 -20 0 -18 -7 -20 -65 -20 l-65 0 0 -35 c0 -19 -4 -35
-10 -35 -5 0 -10 16 -10 35 0 32 -2 35 -30 35 -23 0 -30 4 -30 20 0 11 -4 20
-10 20 -5 0 -10 -13 -10 -30 l0 -30 -95 0 -95 0 0 30 c0 17 -4 30 -10 30 -5 0
-10 -9 -10 -20z m20 -75 l0 -35 -60 0 -60 0 0 35 0 35 60 0 60 0 0 -35z m250
0 c0 -32 2 -35 30 -35 27 0 30 -3 30 -30 l0 -30 -60 0 -60 0 0 65 0 65 30 0
c28 0 30 -3 30 -35z m190 0 l0 -35 -65 0 -65 0 0 35 0 35 65 0 65 0 0 -35z
m180 0 c0 -32 -2 -35 -30 -35 -28 0 -30 3 -30 35 0 32 2 35 30 35 28 0 30 -3
30 -35z m-450 -50 l0 -65 80 0 80 0 0 30 0 30 65 0 65 0 0 35 c0 34 1 35 40
35 39 0 40 -1 40 -35 0 -32 2 -35 30 -35 27 0 30 -3 30 -30 0 -28 3 -30 35
-30 l35 0 0 -165 0 -165 -45 0 c-43 0 -45 1 -45 30 l0 30 -60 0 -60 0 0 30 0
30 -65 0 -65 0 0 35 0 35 -50 0 -50 0 0 -35 c0 -32 -2 -35 -30 -35 -27 0 -30
-3 -30 -30 0 -28 -3 -30 -35 -30 -32 0 -35 -2 -35 -30 0 -28 -2 -30 -40 -30
-38 0 -40 2 -40 30 0 29 -1 30 -50 30 -49 0 -50 -1 -50 -30 0 -27 -3 -30 -30
-30 -27 0 -30 -3 -30 -30 0 -20 -5 -30 -15 -30 -13 0 -15 28 -15 195 l0 195
35 0 c32 0 35 2 35 30 0 28 2 30 40 30 22 0 40 -4 40 -10 0 -5 -13 -10 -30
-10 -27 0 -30 -3 -30 -30 0 -27 -3 -30 -30 -30 -29 0 -30 -1 -30 -50 0 -49 1
-50 30 -50 27 0 30 -3 30 -30 0 -27 3 -30 30 -30 28 0 30 -3 30 -35 l0 -35 50
0 50 0 0 35 c0 32 2 35 30 35 27 0 30 3 30 30 0 28 3 30 35 30 l35 0 0 50 0
50 -35 0 c-32 0 -35 2 -35 30 0 27 -3 30 -30 30 -27 0 -30 3 -30 30 0 27 -3
30 -30 30 -20 0 -30 5 -30 15 0 12 15 15 75 15 l75 0 0 -65z m-290 -15 c0 -28
-3 -30 -35 -30 -32 0 -35 2 -35 30 0 28 3 30 35 30 32 0 35 -2 35 -30z m180 0
c0 -27 -3 -30 -30 -30 -27 0 -30 3 -30 30 0 27 3 30 30 30 27 0 30 -3 30 -30z
m630 0 c0 -28 -3 -30 -35 -30 -32 0 -35 2 -35 30 0 28 3 30 35 30 32 0 35 -2
35 -30z m-690 -60 c0 -27 -3 -30 -30 -30 -27 0 -30 3 -30 30 0 27 3 30 30 30
27 0 30 -3 30 -30z m120 0 c0 -27 -3 -30 -30 -30 -27 0 -30 3 -30 30 0 27 3
30 30 30 27 0 30 -3 30 -30z m-80 -20 c0 -27 3 -30 30 -30 17 0 30 -4 30 -10
0 -5 -13 -10 -30 -10 -27 0 -30 -3 -30 -30 0 -16 -4 -30 -10 -30 -5 0 -10 14
-10 30 0 27 -3 30 -30 30 -16 0 -30 5 -30 10 0 6 14 10 30 10 27 0 30 3 30 30
0 17 5 30 10 30 6 0 10 -13 10 -30z m-100 -40 c0 -27 3 -30 30 -30 27 0 30 -3
30 -30 0 -27 3 -30 30 -30 27 0 30 3 30 30 0 27 3 30 30 30 27 0 30 3 30 30 0
28 3 30 35 30 32 0 35 -2 35 -30 0 -28 -3 -30 -35 -30 -32 0 -35 -2 -35 -30 0
-27 -3 -30 -30 -30 -28 0 -30 -3 -30 -35 0 -32 -2 -35 -30 -35 -28 0 -30 3
-30 35 0 32 -2 35 -30 35 -27 0 -30 3 -30 30 0 27 -3 30 -30 30 -27 0 -30 3
-30 30 0 27 3 30 30 30 27 0 30 -3 30 -30z m370 -125 c0 -32 -2 -35 -30 -35
-28 0 -30 3 -30 35 0 32 2 35 30 35 28 0 30 -3 30 -35z m-60 -65 c0 -27 -3
-30 -30 -30 -27 0 -30 3 -30 30 0 27 3 30 30 30 27 0 30 -3 30 -30z m190 0 l0
-30 -65 0 -65 0 0 30 0 30 65 0 65 0 0 -30z m-150 -20 l0 -30 65 0 65 0 0 -30
0 -30 60 0 60 0 0 -30 0 -30 65 0 65 0 0 -45 0 -45 -420 0 c-273 0 -420 3
-420 10 0 6 16 10 35 10 33 0 35 2 35 35 0 32 2 35 30 35 27 0 30 3 30 30 0
17 5 30 10 30 6 0 10 -13 10 -30 l0 -30 80 0 80 0 0 30 c0 28 3 30 35 30 32 0
35 2 35 30 0 27 3 30 30 30 27 0 30 3 30 30 0 17 5 30 10 30 6 0 10 -13 10
-30z m-290 -40 l0 -30 60 0 60 0 0 30 c0 28 3 30 35 30 32 0 35 -2 35 -30 0
-28 -3 -30 -35 -30 -32 0 -35 -2 -35 -30 l0 -30 -60 0 -60 0 0 30 c0 27 -3 30
-30 30 -27 0 -30 -3 -30 -30 0 -27 -3 -30 -30 -30 -27 0 -30 3 -30 30 0 27 3
30 30 30 27 0 30 3 30 30 0 27 3 30 30 30 27 0 30 -3 30 -30z m560 0 l0 -30
-60 0 -60 0 0 30 0 30 60 0 60 0 0 -30z"/>
<path d="M60 125 l0 -65 440 0 440 0 0 65 0 65 -440 0 -440 0 0 -65z m860 0
l0 -45 -420 0 -420 0 0 45 0 45 420 0 420 0 0 -45z"/>
</g>
</svg>
