<?xml version="1.0" standalone="no"?>
<!DOCTYPE svg PUBLIC "-//W3C//DTD SVG 20010904//EN"
 "http://www.w3.org/TR/2001/REC-SVG-20010904/DTD/svg10.dtd">
<svg version="1.0" xmlns="http://www.w3.org/2000/svg"
 width="100.000000pt" height="100.000000pt" viewBox="0 0 100.000000 100.000000"
 preserveAspectRatio="xMidYMid meet">
<metadata>
Created by potrace 1.16, written by Peter Selinger 2001-2019
</metadata>
<g transform="translate(0.000000,100.000000) scale(0.100000,-0.100000)"
fill="#000000" stroke="none">
<path d="M241 993 c-34 -5 -61 -23 -61 -42 0 -6 -5 -11 -11 -11 -14 0 -39 -25
-39 -39 0 -6 -5 -11 -11 -11 -14 0 -39 -25 -39 -39 0 -6 -7 -11 -15 -11 -9 0
-15 -9 -15 -25 0 -14 -4 -25 -10 -25 -5 0 -10 -11 -10 -25 0 -16 -6 -25 -15
-25 -12 0 -15 -13 -15 -60 0 -33 4 -60 10 -60 6 0 10 23 10 50 0 38 4 50 15
50 9 0 15 9 15 25 0 14 5 25 10 25 6 0 10 11 10 25 0 16 6 25 15 25 8 0 15 5
15 11 0 14 25 39 39 39 6 0 11 5 11 11 0 14 25 39 39 39 6 0 11 5 11 11 0 20
29 39 59 39 21 0 31 5 31 15 0 8 -3 14 -7 13 -5 0 -23 -3 -42 -5z"/>
<path d="M340 986 c0 -9 5 -16 11 -16 17 0 39 -27 39 -49 0 -12 -4 -21 -10
-21 -5 0 -10 -7 -10 -15 0 -8 -7 -15 -15 -15 -8 0 -15 -4 -15 -10 0 -5 -11
-10 -25 -10 -16 0 -25 -6 -25 -15 0 -9 9 -15 25 -15 23 0 25 -3 25 -50 0 -27
-4 -50 -10 -50 -5 0 -10 -7 -10 -15 0 -9 -9 -15 -25 -15 -14 0 -25 -4 -25 -10
0 -5 5 -10 10 -10 6 0 10 -7 10 -15 0 -8 7 -15 15 -15 11 0 15 -11 15 -40 0
-29 -4 -40 -15 -40 -8 0 -15 -4 -15 -10 0 -5 -11 -10 -25 -10 -16 0 -25 -6
-25 -15 0 -8 -9 -15 -20 -15 -11 0 -20 -4 -20 -10 0 -5 -7 -10 -15 -10 -8 0
-15 -5 -15 -11 0 -14 -25 -39 -39 -39 -6 0 -11 -7 -11 -15 0 -8 -4 -15 -10
-15 -5 0 -10 -7 -10 -15 0 -8 -7 -15 -15 -15 -8 0 -15 -4 -15 -10 0 -5 7 -10
15 -10 9 0 15 -9 15 -25 0 -14 5 -25 10 -25 6 0 10 -11 10 -25 0 -16 6 -25 15
-25 8 0 15 -5 15 -11 0 -14 25 -39 39 -39 6 0 11 -7 11 -15 0 -8 5 -15 10 -15
6 0 10 -5 10 -11 0 -17 27 -39 49 -39 12 0 21 -6 21 -15 0 -9 9 -15 25 -15 14
0 25 -4 25 -10 0 -5 16 -10 35 -10 24 0 35 -5 35 -15 0 -12 17 -15 90 -15 73
0 90 3 90 15 0 10 11 15 35 15 19 0 35 5 35 10 0 6 11 10 25 10 16 0 25 6 25
15 0 9 9 15 21 15 22 0 49 22 49 39 0 6 5 11 10 11 6 0 10 7 10 15 0 8 5 15
11 15 14 0 39 25 39 39 0 6 7 11 15 11 9 0 15 9 15 25 0 14 5 25 10 25 6 0 10
11 10 25 0 16 6 25 15 25 8 0 15 5 15 10 0 6 -7 10 -15 10 -8 0 -15 7 -15 15
0 8 -4 15 -10 15 -5 0 -10 7 -10 15 0 8 -5 15 -11 15 -14 0 -39 25 -39 39 0 6
-7 11 -15 11 -8 0 -15 5 -15 10 0 6 -9 10 -20 10 -11 0 -20 7 -20 15 0 9 -9
15 -25 15 -14 0 -25 5 -25 10 0 6 -7 10 -15 10 -11 0 -15 11 -15 40 0 29 4 40
15 40 8 0 15 7 15 15 0 8 5 15 10 15 6 0 10 5 10 10 0 6 -11 10 -25 10 -16 0
-25 6 -25 15 0 8 -4 15 -10 15 -5 0 -10 23 -10 50 0 47 2 50 25 50 16 0 25 6
25 15 0 9 -9 15 -25 15 -14 0 -25 5 -25 10 0 6 -7 10 -15 10 -8 0 -15 7 -15
15 0 8 -4 15 -10 15 -5 0 -10 9 -10 21 0 22 22 49 39 49 6 0 11 7 11 16 0 18
-35 11 -57 -12 -15 -15 -18 -94 -3 -94 6 0 10 -7 10 -15 0 -8 7 -15 15 -15 12
0 15 -15 15 -75 0 -43 4 -75 10 -75 6 0 10 -6 10 -14 0 -8 8 -17 18 -19 16 -4
16 -5 0 -6 -15 -1 -18 -11 -18 -61 0 -47 3 -60 15 -60 8 0 15 -4 15 -10 0 -5
11 -10 25 -10 16 0 25 -6 25 -15 0 -8 9 -15 20 -15 11 0 20 -4 20 -10 0 -5 7
-10 15 -10 8 0 15 -5 15 -11 0 -14 25 -39 39 -39 6 0 11 -7 11 -15 0 -8 5 -15
10 -15 6 0 10 -13 10 -30 0 -16 -4 -30 -10 -30 -5 0 -10 -11 -10 -25 0 -16 -6
-25 -15 -25 -8 0 -15 -5 -15 -11 0 -14 -25 -39 -39 -39 -6 0 -11 -7 -11 -15 0
-8 -4 -15 -10 -15 -5 0 -10 -5 -10 -11 0 -17 -27 -39 -49 -39 -12 0 -21 -6
-21 -15 0 -9 -9 -15 -25 -15 -14 0 -25 -4 -25 -10 0 -5 -16 -10 -35 -10 -24 0
-35 -5 -35 -15 0 -12 -14 -15 -70 -15 -56 0 -70 3 -70 15 0 10 -11 15 -35 15
-19 0 -35 5 -35 10 0 6 -11 10 -25 10 -16 0 -25 6 -25 15 0 9 -9 15 -21 15
-22 0 -49 22 -49 39 0 6 -4 11 -10 11 -5 0 -10 7 -10 15 0 8 -5 15 -11 15 -14
0 -39 25 -39 39 0 6 -7 11 -15 11 -9 0 -15 9 -15 25 0 14 -4 25 -10 25 -5 0
-10 14 -10 30 0 17 5 30 10 30 6 0 10 7 10 15 0 8 5 15 11 15 14 0 39 25 39
39 0 6 7 11 15 11 8 0 15 5 15 10 0 6 9 10 20 10 11 0 20 7 20 15 0 9 9 15 25
15 14 0 25 5 25 10 0 6 7 10 15 10 24 0 21 117 -2 123 -17 4 -17 5 0 6 9 0 17
8 17 16 0 8 5 15 10 15 6 0 10 32 10 75 0 60 3 75 15 75 8 0 15 7 15 15 0 8 5
15 10 15 15 0 12 79 -3 94 -22 23 -57 30 -57 12z"/>
<path d="M710 984 c0 -9 11 -14 31 -14 30 0 59 -19 59 -39 0 -6 5 -11 11 -11
14 0 39 -25 39 -39 0 -6 5 -11 11 -11 6 0 17 -6 25 -14 8 -8 14 -19 14 -25 0
-6 7 -11 15 -11 9 0 15 -9 15 -25 0 -14 5 -25 10 -25 6 0 10 -11 10 -25 0 -16
6 -25 15 -25 11 0 15 -12 15 -50 0 -27 5 -50 10 -50 6 0 10 27 10 60 0 47 -3
60 -15 60 -9 0 -15 9 -15 25 0 14 -4 25 -10 25 -5 0 -10 11 -10 25 0 16 -6 25
-15 25 -8 0 -15 5 -15 11 0 6 -6 17 -14 25 -8 8 -19 14 -25 14 -6 0 -11 5 -11
11 0 6 -6 17 -14 25 -8 8 -19 14 -25 14 -6 0 -11 5 -11 11 0 20 -25 36 -68 41
-32 5 -42 3 -42 -8z"/>
<path d="M0 375 c0 -51 3 -65 15 -65 9 0 15 -9 15 -25 0 -14 5 -25 10 -25 6 0
10 -11 10 -25 0 -14 5 -25 11 -25 19 0 39 -28 39 -54 0 -16 6 -26 15 -26 8 0
15 -4 15 -10 0 -5 11 -10 25 -10 14 0 25 -5 25 -11 0 -17 27 -39 49 -39 12 0
21 -6 21 -15 0 -9 9 -15 24 -15 13 0 26 -4 28 -9 2 -4 22 -10 46 -14 32 -4 42
-2 42 9 0 9 -12 14 -35 14 -19 0 -35 5 -35 10 0 6 -11 10 -25 10 -16 0 -25 6
-25 15 0 9 -9 15 -21 15 -22 0 -49 22 -49 39 0 6 -11 11 -25 11 -14 0 -25 5
-25 10 0 6 -7 10 -15 10 -9 0 -15 10 -15 26 0 26 -20 54 -39 54 -6 0 -11 11
-11 25 0 14 -4 25 -10 25 -5 0 -10 11 -10 25 0 16 -6 25 -15 25 -12 0 -15 13
-15 55 0 30 -4 55 -10 55 -6 0 -10 -28 -10 -65z"/>
<path d="M980 385 c0 -42 -3 -55 -15 -55 -9 0 -15 -9 -15 -25 0 -14 -4 -25
-10 -25 -5 0 -10 -11 -10 -25 0 -14 -5 -25 -11 -25 -19 0 -39 -28 -39 -54 0
-16 -6 -26 -15 -26 -8 0 -15 -4 -15 -10 0 -5 -11 -10 -25 -10 -14 0 -25 -5
-25 -11 0 -17 -27 -39 -49 -39 -12 0 -21 -6 -21 -15 0 -9 -9 -15 -25 -15 -14
0 -25 -4 -25 -10 0 -5 -16 -10 -35 -10 -23 0 -35 -5 -35 -14 0 -11 10 -13 43
-9 23 4 44 10 45 14 2 5 15 9 28 9 15 0 24 6 24 15 0 9 9 15 21 15 22 0 49 22
49 39 0 6 11 11 25 11 14 0 25 5 25 10 0 6 7 10 15 10 9 0 15 10 15 26 0 26
20 54 39 54 6 0 11 11 11 25 0 14 5 25 10 25 6 0 10 11 10 25 0 16 6 25 15 25
12 0 15 14 15 65 0 37 -4 65 -10 65 -5 0 -10 -25 -10 -55z"/>
</g>
</svg>
