<?xml version="1.0" standalone="no"?>
<!DOCTYPE svg PUBLIC "-//W3C//DTD SVG 20010904//EN"
 "http://www.w3.org/TR/2001/REC-SVG-20010904/DTD/svg10.dtd">
<svg version="1.0" xmlns="http://www.w3.org/2000/svg"
 width="100.000000pt" height="100.000000pt" viewBox="0 0 100.000000 100.000000"
 preserveAspectRatio="xMidYMid meet">
<metadata>
Created by potrace 1.16, written by Peter Selinger 2001-2019
</metadata>
<g transform="translate(0.000000,100.000000) scale(0.100000,-0.100000)"
fill="#000000" stroke="none">
<path d="M203 993 c-20 -3 -33 -10 -33 -19 0 -8 -7 -14 -15 -14 -8 0 -15 -7
-15 -15 0 -10 -11 -15 -35 -15 -28 0 -35 -4 -35 -20 0 -11 -7 -20 -15 -20 -10
0 -15 -10 -15 -30 0 -20 -5 -30 -15 -30 -8 0 -15 -4 -15 -9 0 -5 -3 -16 -6
-25 -4 -11 -1 -16 10 -16 9 0 16 7 16 15 0 8 7 15 15 15 10 0 15 10 15 30 0
20 5 30 15 30 8 0 15 9 15 20 0 16 7 20 35 20 24 0 35 5 35 15 0 8 7 15 15 15
8 0 15 7 15 15 0 10 10 15 30 15 20 0 30 5 30 15 0 8 -3 14 -7 13 -5 0 -23 -3
-40 -5z"/>
<path d="M750 986 c0 -11 9 -16 30 -16 20 0 30 -5 30 -15 0 -8 7 -15 15 -15 8
0 15 -7 15 -15 0 -10 11 -15 35 -15 28 0 35 -4 35 -20 0 -11 7 -20 15 -20 10
0 15 -10 15 -30 0 -20 5 -30 15 -30 8 0 15 -7 15 -15 0 -8 7 -15 16 -15 11 0
14 5 10 16 -3 9 -6 20 -6 25 0 5 -7 9 -15 9 -10 0 -15 10 -15 30 0 20 -5 30
-15 30 -8 0 -15 9 -15 20 0 16 -7 20 -35 20 -24 0 -35 5 -35 15 0 8 -7 15 -15
15 -8 0 -15 7 -15 15 0 9 -9 15 -24 15 -13 0 -31 3 -40 6 -11 4 -16 1 -16 -10z"/>
<path d="M370 851 c0 -5 6 -11 13 -14 6 -2 3 -3 -9 -1 -24 4 -66 -36 -61 -57
2 -8 2 -11 0 -6 -12 21 -23 -11 -23 -67 0 -81 17 -99 91 -97 48 1 92 -20 70
-33 -5 -4 -11 -1 -13 5 -2 6 -20 9 -43 6 -36 -3 -37 -5 -16 -12 23 -8 23 -9 5
-23 -13 -10 -15 -16 -6 -19 6 -3 9 -9 6 -15 -4 -7 -9 -6 -14 2 -12 20 -32 1
-25 -23 5 -17 4 -19 -4 -7 -8 12 -11 11 -17 -5 -4 -11 -15 -30 -25 -43 -10
-13 -16 -29 -13 -36 3 -8 -2 -16 -10 -19 -13 -5 -16 -24 -16 -99 0 -86 2 -94
27 -120 24 -25 34 -28 88 -28 56 0 64 3 93 33 23 24 31 39 26 53 -5 15 -4 16
4 4 9 -12 13 -10 21 13 6 15 8 35 5 44 -5 15 -4 15 5 3 18 -26 23 -3 20 87 -2
48 -3 125 -3 171 1 45 -3 82 -7 82 -4 0 -9 10 -11 23 -2 12 -1 -60 0 -160 3
-138 1 -183 -8 -183 -7 0 -10 7 -6 15 3 8 1 15 -4 15 -6 0 -10 40 -10 95 0 78
-3 95 -15 95 -8 0 -15 -7 -15 -15 0 -8 -7 -15 -15 -15 -8 0 -15 -7 -15 -15 0
-8 -7 -15 -15 -15 -10 0 -15 -10 -15 -30 0 -21 -5 -30 -16 -30 -14 0 -14 3 -4
15 10 12 10 15 -3 15 -8 0 -17 5 -19 12 -3 9 -6 9 -12 0 -4 -7 -2 -12 3 -12 7
0 10 -21 10 -52 -1 -29 -4 -43 -6 -30 -10 50 -23 17 -23 -58 l0 -80 35 0 c24
0 35 5 35 15 0 8 7 15 15 15 10 0 15 10 15 30 0 17 4 30 10 30 5 0 7 -7 4 -15
-4 -8 -1 -15 5 -15 6 0 11 -13 11 -30 0 -20 -5 -30 -15 -30 -8 0 -15 -7 -15
-15 0 -8 -7 -15 -15 -15 -8 0 -15 -7 -15 -15 0 -11 -12 -15 -50 -15 -27 0 -50
4 -50 10 0 5 7 7 15 4 8 -4 15 -1 15 5 0 6 -7 11 -15 11 -8 0 -15 7 -15 15 0
8 -5 15 -11 15 -6 0 -9 -7 -5 -15 3 -8 1 -15 -4 -15 -6 0 -10 41 -9 98 l0 97
15 -45 c7 -25 14 -55 14 -67 0 -13 4 -23 9 -23 5 0 5 16 0 38 -12 50 -11 152
1 152 5 0 7 -7 4 -15 -4 -8 -1 -15 5 -15 6 0 11 14 11 30 0 20 5 30 15 30 8 0
15 7 15 15 0 8 9 15 20 15 11 0 20 7 20 15 0 18 27 20 32 3 3 -9 6 -9 12 0 4
7 2 12 -3 12 -6 0 -11 7 -11 15 0 8 7 15 15 15 8 0 15 -4 15 -10 0 -5 7 -10
15 -10 8 0 15 5 15 10 0 6 -7 10 -15 10 -8 0 -15 7 -15 15 0 8 7 15 15 15 11
0 15 12 15 50 0 38 -4 50 -15 50 -8 0 -15 -7 -15 -15 0 -8 -7 -15 -15 -15 -8
0 -15 -7 -15 -15 0 -11 -12 -15 -50 -15 l-50 0 0 76 0 76 28 -5 c15 -2 21 -2
15 0 -7 3 -13 11 -13 19 0 10 13 14 46 14 25 0 43 4 40 9 -3 5 -15 7 -26 4
-11 -3 -20 0 -20 6 0 6 14 11 30 11 27 0 30 -3 30 -30 0 -27 -3 -30 -30 -30
-20 0 -30 -5 -30 -15 0 -8 -9 -15 -19 -15 -16 0 -20 -9 -23 -48 -3 -45 -2 -48
20 -44 24 5 29 17 10 25 -7 3 -1 6 15 6 24 1 27 5 28 39 1 20 4 28 6 18 9 -34
53 -64 53 -36 0 6 -7 10 -15 10 -10 0 -15 10 -15 30 0 26 4 30 28 30 l27 1
-25 14 -25 14 28 1 c26 0 27 -1 27 -60 l0 -60 30 0 c20 0 30 -5 30 -15 0 -8
-7 -15 -15 -15 -13 0 -15 -22 -15 -140 0 -87 4 -140 10 -140 6 0 10 44 10 111
l0 112 36 33 c19 19 42 34 50 34 8 0 14 7 14 16 0 8 4 13 8 10 5 -3 18 2 30
10 16 11 22 26 22 54 0 38 0 38 -43 41 -24 2 -51 3 -60 1 -22 -5 -22 -22 1
-22 14 0 15 -2 2 -10 -9 -5 -17 -5 -21 1 -3 5 -13 7 -22 3 -11 -4 -17 -1 -17
9 0 9 -4 19 -10 22 -6 4 -10 -12 -10 -39 0 -44 1 -46 30 -46 17 0 30 -5 30
-11 0 -6 9 -8 20 -4 11 4 20 2 20 -4 0 -6 -16 -11 -35 -11 -19 0 -35 5 -35 10
0 6 -9 10 -20 10 -18 0 -20 7 -20 60 0 60 0 60 -29 60 -16 0 -31 6 -35 15 -4
11 -21 15 -61 15 -30 0 -55 -4 -55 -9z m-10 -45 c0 -3 -4 -8 -10 -11 -5 -3
-10 -1 -10 4 0 6 5 11 10 11 6 0 10 -2 10 -4z m360 -56 c0 -16 -4 -30 -10 -30
-5 0 -7 7 -4 15 4 8 1 15 -5 15 -6 0 -11 -7 -11 -15 0 -10 -11 -15 -35 -15
-24 0 -35 5 -35 15 0 8 9 15 20 15 11 0 20 7 20 15 0 10 10 15 30 15 27 0 30
-3 30 -30z m-392 -45 c1 -25 -2 -45 -8 -45 -5 0 -10 20 -10 45 0 25 4 45 8 45
5 0 10 -20 10 -45z m282 41 c0 -3 -4 -8 -10 -11 -5 -3 -10 -1 -10 4 0 6 5 11
10 11 6 0 10 -2 10 -4z m-197 -20 c4 -10 1 -13 -8 -9 -8 3 -12 9 -9 14 7 12
11 11 17 -5z m207 -56 c0 -5 -5 -10 -11 -10 -5 0 -7 5 -4 10 3 6 8 10 11 10 2
0 4 -4 4 -10z m-139 -63 c-8 -8 -11 -7 -11 6 0 9 -5 17 -11 17 -5 0 -7 5 -4
10 4 6 12 4 22 -6 12 -11 13 -18 4 -27z m109 33 c0 -5 -5 -10 -11 -10 -5 0 -7
5 -4 10 3 6 8 10 11 10 2 0 4 -4 4 -10z m-160 -84 c0 -3 -4 -8 -10 -11 -5 -3
-10 -1 -10 4 0 6 5 11 10 11 6 0 10 -2 10 -4z m54 -133 c3 -32 8 -84 12 -115
5 -43 3 -58 -6 -58 -7 0 -10 7 -6 15 3 8 1 15 -4 15 -5 0 -10 45 -12 100 -3
109 6 135 16 43z m-36 -45 c-1 -32 -5 -52 -10 -46 -10 17 -29 -36 -22 -59 5
-15 4 -16 -5 -3 -9 13 -12 12 -17 -7 -11 -40 -31 -26 -31 22 0 25 3 43 7 40 9
-6 20 19 20 46 0 10 6 19 13 19 18 0 38 36 31 57 -5 15 -4 16 5 3 6 -8 10 -41
9 -72z m22 -178 c0 -5 -5 -10 -11 -10 -5 0 -7 5 -4 10 3 6 8 10 11 10 2 0 4
-4 4 -10z m-30 -30 c0 -5 -5 -10 -11 -10 -5 0 -7 5 -4 10 3 6 8 10 11 10 2 0
4 -4 4 -10z"/>
<path d="M4 204 c3 -9 6 -20 6 -25 0 -5 7 -9 15 -9 10 0 15 -10 15 -30 0 -20
5 -30 15 -30 8 0 15 -9 15 -20 0 -16 7 -20 35 -20 24 0 35 -5 35 -15 0 -8 7
-15 15 -15 8 0 15 -7 15 -15 0 -9 9 -15 24 -15 13 0 31 -3 40 -6 11 -4 16 -1
16 10 0 11 -9 16 -30 16 -20 0 -30 5 -30 15 0 8 -7 15 -15 15 -8 0 -15 7 -15
15 0 10 -11 15 -35 15 -28 0 -35 4 -35 20 0 11 -7 20 -15 20 -10 0 -15 10 -15
30 0 20 -5 30 -15 30 -8 0 -15 7 -15 15 0 8 -7 15 -16 15 -11 0 -14 -5 -10
-16z"/>
<path d="M970 205 c0 -8 -7 -15 -15 -15 -10 0 -15 -10 -15 -30 0 -20 -5 -30
-15 -30 -8 0 -15 -9 -15 -20 0 -16 -7 -20 -35 -20 -24 0 -35 -5 -35 -15 0 -8
-7 -15 -15 -15 -8 0 -15 -7 -15 -15 0 -10 -10 -15 -30 -15 -21 0 -30 -5 -30
-16 0 -11 5 -14 16 -10 9 3 27 6 40 6 15 0 24 6 24 15 0 8 7 15 15 15 8 0 15
7 15 15 0 10 11 15 35 15 28 0 35 4 35 20 0 11 7 20 15 20 10 0 15 10 15 30 0
20 5 30 15 30 8 0 15 4 15 9 0 5 3 16 6 25 4 11 1 16 -10 16 -9 0 -16 -7 -16
-15z"/>
<path d="M368 183 c6 -2 18 -2 25 0 6 3 1 5 -13 5 -14 0 -19 -2 -12 -5z"/>
</g>
</svg>
