<?xml version="1.0" standalone="no"?>
<!DOCTYPE svg PUBLIC "-//W3C//DTD SVG 20010904//EN"
 "http://www.w3.org/TR/2001/REC-SVG-20010904/DTD/svg10.dtd">
<svg version="1.0" xmlns="http://www.w3.org/2000/svg"
 width="180.000000pt" height="180.000000pt" viewBox="0 0 180.000000 180.000000"
 preserveAspectRatio="xMidYMid meet">
<metadata>
Created by potrace 1.16, written by Peter Selinger 2001-2019
</metadata>
<g transform="translate(0.000000,180.000000) scale(0.100000,-0.100000)"
fill="#000000" stroke="none">
<path d="M920 1579 c-203 -34 -514 -302 -639 -550 -100 -198 -73 -379 82 -558
284 -328 563 -333 906 -15 153 142 266 308 296 435 44 188 -13 343 -192 516
-146 141 -296 198 -453 172z m175 -34 c76 -20 135 -53 213 -119 87 -74 165
-168 203 -246 44 -88 52 -205 21 -307 -51 -166 -259 -405 -472 -542 -145 -94
-295 -106 -437 -36 -63 31 -98 58 -185 144 -90 90 -113 120 -144 186 -74 155
-56 293 62 472 76 116 244 284 355 356 156 102 255 125 384 92z"/>
<path d="M667 1274 c-3 -3 -3 -64 0 -135 l6 -129 -73 0 c-145 0 -220 -73 -220
-213 0 -102 51 -189 128 -220 43 -17 268 -21 309 -6 l23 8 3 313 2 313 3 -313
2 -312 26 -10 c32 -13 85 -13 118 0 23 9 25 14 28 86 l3 76 65 -79 66 -78 79
0 80 0 3 33 c3 28 -7 44 -60 110 -35 42 -68 83 -72 90 -5 9 11 33 48 72 87 91
76 130 -37 130 l-69 0 -54 -57 -54 -58 0 177 c0 212 2 208 -101 208 -52 0 -71
-4 -75 -15 -5 -13 -8 -13 -27 0 -21 15 -137 22 -150 9z m136 -33 c4 -4 8 -151
8 -327 l0 -319 -52 -3 c-28 -2 -56 1 -61 6 -6 6 -25 4 -51 -5 -33 -11 -50 -12
-86 -3 -97 24 -155 101 -155 205 0 72 20 112 77 159 34 27 46 31 100 31 34 0
72 -4 85 -8 l23 -9 -1 139 c-1 76 -1 140 -1 143 1 8 105 -1 114 -9z m177 1
c21 -17 21 -22 18 -215 -2 -108 0 -197 4 -197 4 0 11 6 15 14 4 8 37 44 72 81
l64 66 51 -3 c72 -4 72 -24 -1 -99 -32 -33 -59 -63 -61 -68 -1 -4 34 -51 79
-105 47 -58 78 -103 75 -112 -4 -10 -22 -14 -60 -14 l-54 0 -77 91 c-42 50
-81 99 -88 110 -6 10 -14 19 -17 19 -3 0 -5 -48 -5 -107 l0 -108 -60 0 -60 0
-5 325 c-3 179 -4 328 -2 333 6 15 90 7 112 -11z"/>
<path d="M574 876 c-89 -39 -54 -176 45 -176 68 0 71 4 71 87 l0 74 -35 15
c-41 17 -42 17 -81 0z m71 -28 c22 -10 25 -17 25 -64 0 -47 -2 -52 -25 -58
-15 -4 -37 0 -54 8 -49 26 -55 73 -15 105 31 24 35 25 69 9z"/>
</g>
</svg>
