<?xml version="1.0" standalone="no"?>
<!DOCTYPE svg PUBLIC "-//W3C//DTD SVG 20010904//EN"
 "http://www.w3.org/TR/2001/REC-SVG-20010904/DTD/svg10.dtd">
<svg version="1.0" xmlns="http://www.w3.org/2000/svg"
 width="180.000000pt" height="180.000000pt" viewBox="0 0 180.000000 180.000000"
 preserveAspectRatio="xMidYMid meet">
<metadata>
Created by potrace 1.16, written by Peter Selinger 2001-2019
</metadata>
<g transform="translate(0.000000,180.000000) scale(0.100000,-0.100000)"
fill="#000000" stroke="none">
<path d="M920 1579 c-202 -34 -514 -303 -639 -550 -100 -198 -73 -379 82 -558
245 -283 495 -324 771 -127 145 103 313 287 381 417 128 245 60 490 -194 693
-133 108 -264 148 -401 125z m222 -49 c146 -54 338 -249 389 -395 25 -73 25
-183 -1 -267 -50 -161 -260 -402 -467 -535 -148 -95 -297 -108 -440 -38 -63
31 -98 58 -185 144 -90 90 -113 120 -144 186 -52 107 -58 206 -21 312 83 240
424 566 642 613 60 13 163 4 227 -20z"/>
<path d="M662 1237 c-29 -31 -30 -99 -2 -127 29 -29 110 -28 136 1 29 32 26
105 -5 130 -34 28 -101 26 -129 -4z m108 -17 c40 -40 15 -110 -41 -110 -28 0
-69 39 -69 67 0 21 46 63 70 63 11 0 29 -9 40 -20z"/>
<path d="M978 1133 c-8 -10 -36 -49 -61 -88 -26 -38 -57 -83 -70 -99 l-24 -30
-7 37 c-6 34 -9 36 -53 43 -25 4 -62 3 -82 -2 l-36 -9 -3 -194 c-3 -240 -3
-241 93 -241 53 0 66 3 75 19 5 11 10 74 10 141 0 107 2 121 16 116 9 -3 22
-6 30 -6 11 0 14 -18 14 -80 0 -91 15 -137 55 -168 23 -18 41 -22 106 -22 109
0 119 12 98 109 -10 48 -12 50 -47 53 l-37 3 -3 53 -3 52 34 0 c49 0 58 17 55
97 l-3 68 -42 9 -42 10 -3 70 c-3 68 -4 71 -29 74 -15 2 -31 -4 -41 -15z m50
-91 l-3 -71 45 -3 44 -3 -1 -55 -1 -55 -43 -3 -44 -3 3 -77 c3 -42 9 -80 16
-84 6 -5 23 -5 38 -2 25 5 27 3 34 -41 9 -61 -2 -70 -81 -70 -56 0 -68 3 -90
26 -29 29 -51 133 -42 206 l5 43 -34 0 c-45 0 -45 23 -1 81 19 24 57 79 86
123 35 51 56 75 63 68 5 -5 8 -42 6 -80z m-240 -269 l-3 -198 -40 -3 c-73 -5
-74 -1 -75 203 -1 99 -1 183 0 188 0 4 27 7 60 7 l60 0 -2 -197z"/>
</g>
</svg>
