<?xml version="1.0" standalone="no"?>
<!DOCTYPE svg PUBLIC "-//W3C//DTD SVG 20010904//EN"
 "http://www.w3.org/TR/2001/REC-SVG-20010904/DTD/svg10.dtd">
<svg version="1.0" xmlns="http://www.w3.org/2000/svg"
 width="180.000000pt" height="180.000000pt" viewBox="0 0 180.000000 180.000000"
 preserveAspectRatio="xMidYMid meet">
<metadata>
Created by potrace 1.16, written by Peter Selinger 2001-2019
</metadata>
<g transform="translate(0.000000,180.000000) scale(0.100000,-0.100000)"
fill="#000000" stroke="none">
<path d="M920 1579 c-201 -33 -514 -303 -639 -550 -100 -198 -73 -379 82 -558
211 -243 422 -307 650 -198 128 61 279 189 399 337 226 281 223 533 -9 768
-165 167 -315 229 -483 201z m222 -49 c147 -55 338 -249 389 -395 25 -73 25
-183 -1 -267 -50 -162 -260 -402 -470 -537 -145 -94 -295 -106 -437 -36 -63
31 -98 58 -185 144 -90 90 -113 120 -144 186 -74 155 -56 293 62 472 104 159
342 373 470 424 111 44 216 47 316 9z"/>
<path d="M490 1101 c-6 -12 -10 -97 -10 -206 0 -109 4 -194 10 -206 9 -16 22
-19 73 -19 34 0 67 4 74 8 8 5 13 48 15 132 3 124 3 125 29 134 14 5 38 6 52
2 25 -6 25 -7 29 -126 2 -74 7 -123 15 -131 14 -14 102 -24 137 -15 24 6 26
10 26 69 l0 62 19 -30 c43 -70 108 -105 196 -105 134 0 224 90 225 223 0 137
-88 227 -223 227 -100 0 -171 -40 -209 -120 l-15 -31 -6 29 c-8 39 -53 91 -94
108 -40 17 -143 18 -178 2 -19 -9 -28 -9 -37 0 -7 7 -36 12 -65 12 -41 0 -54
-4 -63 -19z m110 -32 c0 -24 2 -24 42 1 75 45 180 31 232 -31 31 -36 35 -60
38 -217 l3 -123 -60 3 -60 3 -5 123 c-4 107 -8 126 -24 138 -26 19 -81 18
-111 -2 -24 -16 -25 -20 -25 -140 l0 -124 -60 0 -60 0 0 194 0 195 38 3 c46 4
52 2 52 -23z m613 20 c43 -11 101 -59 122 -98 78 -152 -64 -334 -226 -291
-154 41 -208 218 -101 332 56 59 126 79 205 57z"/>
<path d="M1111 976 c-55 -30 -65 -90 -22 -138 67 -75 182 -7 150 89 -17 53
-78 77 -128 49z m93 -49 c19 -26 19 -30 5 -55 -8 -15 -27 -31 -43 -37 -25 -8
-31 -6 -52 18 -30 35 -30 54 -2 84 29 31 65 27 92 -10z"/>
</g>
</svg>
