<?xml version="1.0" standalone="no"?>
<!DOCTYPE svg PUBLIC "-//W3C//DTD SVG 20010904//EN"
 "http://www.w3.org/TR/2001/REC-SVG-20010904/DTD/svg10.dtd">
<svg version="1.0" xmlns="http://www.w3.org/2000/svg"
 width="256.000000pt" height="256.000000pt" viewBox="0 0 256.000000 256.000000"
 preserveAspectRatio="xMidYMid meet">
<metadata>
Created by potrace 1.16, written by Peter Selinger 2001-2019
</metadata>
<g transform="translate(0.000000,256.000000) scale(0.100000,-0.100000)"
fill="#000000" stroke="none">
<path d="M995 2148 c-3 -13 -4 -75 -3 -138 l3 -115 129 -3 c97 -2 131 1 138
10 13 21 10 242 -4 256 -8 8 -53 12 -135 12 -119 0 -123 -1 -128 -22z m229 -4
c13 -5 16 -25 16 -120 l0 -114 -110 0 -110 0 0 114 c0 82 4 116 13 119 18 8
172 8 191 1z"/>
<path d="M1001 1806 c-8 -9 -11 -55 -9 -137 l3 -124 135 0 135 0 3 124 c2 82
-1 128 -9 137 -9 11 -41 14 -129 14 -88 0 -120 -3 -129 -14z m239 -131 l0
-115 -110 0 -110 0 0 115 0 115 110 0 110 0 0 -115z"/>
<path d="M1352 1812 c-9 -6 -12 -41 -10 -138 l3 -129 133 -3 133 -3 -3 138 -3
138 -120 3 c-66 1 -126 -2 -133 -6z m238 -137 l0 -116 -112 3 -113 3 -3 113
-3 112 116 0 115 0 0 -115z"/>
<path d="M652 1323 l3 -138 110 -3 c168 -4 156 -16 153 141 l-3 132 -133 3
-133 3 3 -138z m246 0 l3 -113 -116 0 -115 0 0 115 0 116 113 -3 112 -3 3
-112z"/>
<path d="M997 1454 c-13 -13 -8 -249 5 -262 18 -18 242 -16 257 2 8 9 11 55 9
137 l-3 124 -131 3 c-71 1 -133 -1 -137 -4z m243 -129 l0 -115 -110 0 -110 0
0 115 0 115 110 0 110 0 0 -115z"/>
<path d="M1347 1453 c-4 -3 -7 -64 -7 -134 0 -152 -12 -141 155 -137 l110 3 3
138 3 137 -129 0 c-71 0 -132 -3 -135 -7z m243 -128 l0 -115 -115 0 -115 0 0
108 c0 60 3 112 7 115 3 4 55 7 115 7 l108 0 0 -115z"/>
<path d="M655 1101 c-6 -6 -8 -61 -5 -138 l5 -128 130 0 130 0 0 135 0 135
-125 3 c-72 1 -130 -2 -135 -7z m243 -128 c3 -132 11 -126 -133 -121 l-90 3
-3 118 -3 118 113 -3 113 -3 3 -112z"/>
<path d="M997 1104 c-9 -9 -9 -236 -1 -258 5 -13 27 -16 135 -16 152 0 141
-13 137 160 l-3 115 -131 3 c-71 1 -133 -1 -137 -4z m241 -131 l-3 -118 -105
0 -105 0 -3 118 -3 117 111 0 111 0 -3 -117z"/>
<path d="M1344 1097 c-2 -7 -3 -69 -2 -138 l3 -124 130 0 130 0 0 135 0 135
-128 3 c-99 2 -129 0 -133 -11z m244 -124 l-3 -118 -90 -3 c-142 -5 -135 -11
-135 117 0 59 3 111 7 114 3 4 55 7 115 7 l109 0 -3 -117z"/>
<path d="M1694 1097 c-2 -7 -3 -69 -2 -138 l3 -124 130 0 130 0 0 135 0 135
-128 3 c-99 2 -129 0 -133 -11z m244 -124 c3 -132 11 -126 -133 -121 l-90 3
-3 104 c-1 58 0 111 2 118 4 11 30 13 113 11 l108 -3 3 -112z"/>
<path d="M657 754 c-4 -4 -7 -67 -7 -141 l0 -134 133 3 132 3 0 135 0 135
-126 3 c-69 1 -128 -1 -132 -4z m241 -136 l-3 -113 -112 -3 -113 -3 0 116 0
115 115 0 116 0 -3 -112z"/>
<path d="M1001 746 c-8 -9 -11 -55 -9 -137 l3 -124 135 0 135 0 3 124 c2 82
-1 128 -9 137 -9 11 -41 14 -129 14 -88 0 -120 -3 -129 -14z m239 -131 l0
-115 -110 0 -110 0 0 115 0 115 110 0 110 0 0 -115z"/>
<path d="M1344 747 c-2 -7 -3 -69 -2 -138 l3 -124 133 -3 133 -3 -3 138 -3
138 -128 3 c-99 2 -129 0 -133 -11z m246 -132 l0 -116 -112 3 -113 3 -3 113
-3 112 116 0 115 0 0 -115z"/>
<path d="M1694 747 c-2 -7 -3 -69 -2 -138 l3 -124 130 0 130 0 0 135 0 135
-128 3 c-99 2 -129 0 -133 -11z m244 -129 l-3 -113 -112 -3 -113 -3 0 116 0
115 115 0 116 0 -3 -112z"/>
</g>
</svg>
