<?xml version="1.0" standalone="no"?>
<!DOCTYPE svg PUBLIC "-//W3C//DTD SVG 20010904//EN"
 "http://www.w3.org/TR/2001/REC-SVG-20010904/DTD/svg10.dtd">
<svg version="1.0" xmlns="http://www.w3.org/2000/svg"
 width="256.000000pt" height="256.000000pt" viewBox="0 0 256.000000 256.000000"
 preserveAspectRatio="xMidYMid meet">
<metadata>
Created by potrace 1.16, written by Peter Selinger 2001-2019
</metadata>
<g transform="translate(0.000000,256.000000) scale(0.100000,-0.100000)"
fill="#000000" stroke="none">
<path d="M826 2544 c-13 -13 -16 -46 -16 -203 0 -134 4 -192 13 -204 11 -16
33 -17 207 -15 l195 3 3 204 c2 142 -1 208 -9 217 -17 21 -31 17 -19 -5 6 -12
10 -98 10 -211 l0 -191 -192 3 -193 3 -3 190 c-2 187 -2 190 20 207 13 10 18
18 11 18 -6 0 -19 -7 -27 -16z"/>
<path d="M826 2014 c-23 -23 -24 -379 0 -412 15 -21 20 -22 199 -22 172 0 185
1 195 19 15 29 13 404 -2 419 -8 8 -66 12 -194 12 -153 0 -185 -3 -198 -16z
m379 -214 l0 -205 -184 -3 c-160 -2 -183 -1 -178 13 4 8 1 14 -6 12 -9 -1 -13
44 -15 183 -1 101 0 190 3 197 3 11 45 13 192 11 l188 -3 0 -205z"/>
<path d="M1346 2014 c-13 -13 -16 -46 -16 -208 0 -174 2 -195 18 -209 27 -25
362 -25 386 -1 14 13 16 47 16 213 0 140 -3 200 -12 209 -8 8 -66 12 -194 12
-153 0 -185 -3 -198 -16z m382 -184 c2 -96 0 -190 -3 -207 l-6 -33 -177 0
c-125 0 -182 4 -190 12 -13 13 -18 389 -5 402 4 3 90 5 192 4 l186 -3 3 -175z"/>
<path d="M310 1480 c-19 -19 -20 -33 -20 -213 0 -137 3 -196 12 -205 17 -17
379 -17 396 0 9 9 12 68 12 205 0 251 17 233 -210 233 -157 0 -172 -2 -190
-20z m365 -7 c0 -6 3 -15 8 -19 4 -4 7 -92 7 -196 l0 -188 -190 0 -190 0 0
184 c0 102 4 196 10 211 l10 25 172 -2 c124 -2 173 -6 173 -15z"/>
<path d="M830 1480 c-19 -19 -20 -33 -20 -207 1 -141 4 -192 14 -205 12 -16
34 -18 198 -18 130 0 188 4 196 12 9 9 12 70 12 215 0 190 -1 203 -19 213 -12
6 -92 10 -190 10 -158 0 -173 -2 -191 -20z m375 -200 l0 -205 -190 0 -190 0 0
195 c0 151 3 194 13 193 6 -2 11 0 11 5 -1 4 -1 10 0 15 0 4 81 6 179 5 l177
-3 0 -205z"/>
<path d="M1350 1480 c-19 -19 -20 -33 -20 -206 0 -109 4 -193 10 -205 10 -18
23 -19 198 -19 133 0 192 4 200 12 9 9 12 70 12 211 0 179 -2 201 -17 213 -13
10 -63 13 -190 14 -160 0 -175 -2 -193 -20z m375 -200 l0 -205 -190 0 -190 0
0 195 c0 151 3 194 13 193 6 -2 11 0 11 5 -1 4 -1 10 0 15 0 4 81 6 179 5
l177 -3 0 -205z"/>
<path d="M318 976 c-16 -8 -28 -12 -28 -8 0 4 -5 0 -10 -8 -5 -8 -10 -101 -10
-208 0 -256 -20 -236 235 -240 l194 -3 16 25 c14 21 16 52 13 215 -4 251 11
235 -216 239 -132 2 -173 -1 -194 -12z m376 -22 c13 -13 16 -46 16 -200 0
-109 -4 -193 -10 -205 -10 -18 -23 -19 -200 -19 -177 0 -190 1 -200 19 -6 12
-10 96 -10 205 0 154 3 187 16 200 23 24 365 24 388 0z"/>
<path d="M826 974 c-9 -24 -7 -29 6 -16 15 15 350 17 379 2 18 -10 19 -23 19
-208 0 -108 -4 -203 -8 -210 -7 -9 -54 -12 -203 -10 l-194 3 -5 205 -5 205 -5
-208 c-3 -125 -1 -212 5 -218 5 -5 98 -9 212 -9 l203 0 10 26 c6 14 10 115 10
224 0 194 -1 199 -22 214 -34 24 -393 24 -402 0z"/>
<path d="M1346 974 c-9 -24 -7 -29 6 -16 15 15 350 17 379 2 18 -10 19 -23 19
-208 0 -108 -4 -203 -9 -210 -6 -10 -52 -13 -209 -10 -132 2 -201 0 -199 -7 2
-6 84 -11 210 -13 l207 -2 10 25 c6 15 10 116 10 225 0 194 -1 199 -22 214
-34 24 -393 24 -402 0z"/>
<path d="M1860 970 c-19 -19 -20 -33 -20 -206 0 -150 3 -192 16 -220 l16 -34
197 0 c140 0 200 3 209 12 9 9 12 72 12 223 0 193 -2 213 -18 228 -16 15 -46
17 -205 17 -174 0 -188 -1 -207 -20z m399 -14 c8 -9 11 -75 9 -217 l-3 -204
-189 -3 c-130 -2 -193 1 -202 9 -22 18 -20 391 2 413 22 22 365 24 383 2z"/>
<path d="M1334 745 c0 -110 2 -156 3 -103 2 53 2 143 0 200 -1 57 -3 13 -3
-97z"/>
<path d="M296 414 c-10 -27 -7 -402 4 -409 7 -4 10 65 10 199 l0 206 190 0
191 0 -3 -205 c-2 -134 0 -204 7 -202 11 4 20 365 10 405 -5 22 -6 22 -204 22
-172 0 -200 -2 -205 -16z"/>
<path d="M820 411 c-11 -22 -14 -379 -2 -398 4 -6 7 80 7 190 l0 202 190 0
190 0 2 -197 c1 -109 5 -199 10 -200 9 -3 17 365 8 400 -5 22 -6 22 -200 22
-182 0 -195 -1 -205 -19z"/>
<path d="M1342 418 c-13 -13 -18 -384 -4 -405 4 -6 6 80 4 192 l-3 203 196 2
196 1 -3 -206 c-2 -133 0 -204 7 -202 6 2 10 82 10 213 l0 209 -195 3 c-144 2
-199 -1 -208 -10z"/>
<path d="M1872 422 c-16 -10 -13 -413 3 -419 7 -2 9 68 7 202 l-3 204 193 -2
193 -2 0 -202 c0 -110 3 -196 7 -190 13 21 9 392 -4 405 -14 14 -374 17 -396
4z"/>
</g>
</svg>
