<?xml version="1.0" standalone="no"?>
<!DOCTYPE svg PUBLIC "-//W3C//DTD SVG 20010904//EN"
 "http://www.w3.org/TR/2001/REC-SVG-20010904/DTD/svg10.dtd">
<svg version="1.0" xmlns="http://www.w3.org/2000/svg"
 width="144.000000pt" height="144.000000pt" viewBox="0 0 144.000000 144.000000"
 preserveAspectRatio="xMidYMid meet">
<metadata>
Created by potrace 1.16, written by Peter Selinger 2001-2019
</metadata>
<g transform="translate(0.000000,144.000000) scale(0.100000,-0.100000)"
fill="#000000" stroke="none">
<path d="M431 1139 c0 -166 -2 -304 -5 -307 -3 -3 -6 5 -6 17 0 21 -2 22 -137
19 l-138 -3 -3 -433 c-1 -286 1 -432 8 -432 6 0 10 47 10 125 l0 125 120 0
120 0 0 -125 0 -125 25 0 24 0 3 122 3 123 123 3 122 3 0 -126 c0 -123 0 -125
23 -125 22 0 22 2 22 122 l0 123 123 3 122 3 0 -126 c0 -78 4 -125 10 -125 7
0 9 195 8 582 l-3 583 -137 3 c-102 2 -138 -1 -138 -9 0 -7 -3 -10 -6 -6 -3 3
-5 69 -5 146 1 90 -2 141 -8 141 -6 0 -11 -50 -13 -127 l-3 -128 -120 0 -120
0 -3 128 c-1 74 -7 127 -12 127 -6 0 -10 -112 -9 -301z m264 -122 l0 -128
-120 0 -120 0 -3 117 c-1 65 0 124 2 131 4 11 32 13 123 11 l118 -3 0 -128z
m290 0 l0 -128 -117 -2 c-90 -2 -119 1 -123 11 -8 21 -6 238 2 246 4 3 59 5
122 4 l116 -3 0 -128z m-255 -159 c0 -18 -2 -20 -9 -8 -6 8 -7 18 -5 22 9 14
14 9 14 -14z m-332 -140 l-3 -133 -115 0 -115 0 -3 119 c-1 66 0 126 2 133 4
10 35 13 121 13 l116 0 -3 -132z m297 -3 l0 -130 -120 0 -120 0 -3 119 c-1 66
0 126 2 133 4 11 32 13 123 11 l118 -3 0 -130z m290 0 l0 -130 -109 -3 c-71
-2 -113 1 -122 9 -10 8 -14 39 -14 119 0 60 3 116 6 124 5 14 23 16 123 14
l116 -3 0 -130z m-552 -135 c3 -11 1 -23 -4 -26 -5 -3 -9 6 -9 20 0 31 6 34
13 6z m-33 -160 l0 -130 -120 0 -120 0 0 130 0 130 120 0 120 0 0 -130z m300
0 l0 -131 -122 3 -123 3 -3 114 c-1 63 0 121 2 128 4 10 36 13 126 13 l120 0
0 -130z m290 0 l0 -131 -121 3 -121 3 0 123 c1 67 1 124 1 127 1 3 55 5 121 5
l120 0 0 -130z m-559 -167 c-9 -16 -10 -14 -11 12 0 21 3 26 11 18 8 -8 8 -16
0 -30z m299 11 c0 -8 -5 -12 -10 -9 -6 4 -8 11 -5 16 9 14 15 11 15 -7z"/>
<path d="M1020 285 c0 -179 4 -285 10 -285 6 0 10 50 10 125 l0 126 123 -3
122 -3 3 -123 c1 -69 7 -122 12 -122 6 0 9 108 7 283 l-2 282 -142 3 -143 3 0
-286z m265 135 l0 -125 -122 -3 -123 -3 0 131 0 131 123 -3 122 -3 0 -125z"/>
</g>
</svg>
