<?xml version="1.0" standalone="no"?>
<!DOCTYPE svg PUBLIC "-//W3C//DTD SVG 20010904//EN"
 "http://www.w3.org/TR/2001/REC-SVG-20010904/DTD/svg10.dtd">
<svg version="1.0" xmlns="http://www.w3.org/2000/svg"
 width="100.000000pt" height="100.000000pt" viewBox="0 0 100.000000 100.000000"
 preserveAspectRatio="xMidYMid meet">
<metadata>
Created by potrace 1.16, written by Peter Selinger 2001-2019
</metadata>
<g transform="translate(0.000000,100.000000) scale(0.100000,-0.100000)"
fill="#000000" stroke="none">
<path d="M250 940 c-21 -21 -27 -50 -10 -50 6 0 10 11 10 25 l0 25 193 0 c127
0 187 4 177 10 -8 5 -90 10 -182 10 -155 0 -170 -2 -188 -20z"/>
<path d="M778 943 c18 -2 45 -2 60 0 15 2 0 4 -33 4 -33 0 -45 -2 -27 -4z"/>
<path d="M622 910 c0 -14 2 -19 5 -12 2 6 2 18 0 25 -3 6 -5 1 -5 -13z"/>
<path d="M871 904 c0 -11 3 -14 6 -6 3 7 2 16 -1 19 -3 4 -6 -2 -5 -13z"/>
<path d="M250 840 c0 -27 -3 -30 -30 -30 l-30 0 0 -125 0 -125 -65 0 c-64 0
-65 0 -65 -27 1 -25 2 -26 14 -10 15 20 52 23 60 5 5 -10 7 -10 12 0 9 18 21
15 27 -8 5 -18 0 -20 -54 -20 -59 0 -59 0 -59 -30 l0 -30 65 0 c58 0 65 -2 65
-20 0 -23 -34 -28 -44 -7 -5 10 -7 10 -12 0 -8 -19 -45 -16 -60 5 -12 15 -13
14 -14 -10 l0 -28 115 0 115 0 0 -25 c0 -14 -4 -25 -10 -25 -5 0 -10 7 -10 15
0 8 -4 15 -10 15 -5 0 -10 -7 -10 -15 0 -8 -9 -15 -20 -15 -11 0 -20 6 -20 14
0 8 -4 18 -10 21 -6 4 -10 -7 -10 -24 l0 -31 60 0 60 0 0 35 c0 32 2 35 30 35
26 0 30 4 30 28 -1 24 -2 25 -14 10 -17 -23 -46 -23 -46 -1 0 14 -3 13 -20 -5
-27 -29 -40 -28 -40 3 0 21 5 25 30 25 27 0 30 3 30 30 0 27 3 30 30 30 27 0
30 -3 30 -30 0 -28 3 -30 35 -30 32 0 35 2 35 30 l0 30 90 0 90 0 0 -60 0 -60
-30 0 c-28 0 -30 -3 -30 -35 0 -32 -2 -35 -30 -35 -27 0 -30 -3 -30 -30 0 -27
-3 -30 -30 -30 -27 0 -30 -3 -30 -30 l0 -30 -85 0 c-54 0 -85 -4 -85 -11 0 -6
9 -8 20 -4 18 6 20 2 20 -44 l0 -51 -50 0 c-38 0 -50 4 -50 15 0 8 -4 15 -10
15 -5 0 -10 -7 -10 -15 0 -8 -9 -15 -20 -15 -11 0 -20 7 -20 15 0 8 -4 15 -10
15 -5 0 -10 -11 -10 -25 l0 -25 120 0 120 0 0 31 c0 17 -4 28 -10 24 -6 -3
-10 -13 -10 -21 0 -8 -7 -14 -15 -14 -9 0 -15 9 -15 25 0 16 6 25 15 25 18 0
20 16 3 23 -10 4 -9 8 2 16 23 16 30 13 30 -14 0 -24 2 -25 65 -25 64 0 65 0
65 27 l0 27 -20 -22 c-27 -29 -40 -28 -40 3 0 24 3 25 60 25 l60 0 0 30 0 30
95 0 95 0 0 65 c0 63 -1 65 -25 65 -14 0 -25 -4 -25 -10 0 -5 7 -10 15 -10 18
0 21 -46 3 -53 -10 -4 -10 -6 0 -6 21 -2 13 -31 -8 -31 -13 0 -20 7 -20 20 0
15 -7 20 -25 20 -14 0 -25 -4 -25 -10 0 -5 7 -10 15 -10 8 0 15 -4 15 -10 0
-5 -11 -10 -25 -10 -14 0 -25 6 -25 13 0 8 -2 9 -8 1 -4 -6 -17 -14 -29 -18
-20 -6 -23 -4 -23 18 0 22 4 26 30 26 28 0 30 3 30 35 0 33 2 35 35 35 32 0
35 2 35 30 l0 30 125 0 125 0 0 60 0 60 -190 0 -190 0 0 35 c0 32 2 35 30 35
27 0 30 3 30 30 0 28 3 30 35 30 32 0 35 2 35 30 l0 30 90 0 90 0 0 30 0 30
-155 0 -155 0 0 25 c0 19 4 23 18 18 9 -4 22 -14 29 -22 11 -14 12 -12 13 12
l0 27 -185 0 -185 0 0 -30z m60 -5 c0 -20 -5 -25 -24 -25 -19 0 -23 4 -19 19
3 11 12 22 22 24 9 3 17 5 19 6 1 0 2 -10 2 -24z m60 5 c0 -5 -9 -10 -20 -10
-11 0 -20 5 -20 10 0 6 9 10 20 10 11 0 20 -4 20 -10z m50 0 c0 -5 -7 -10 -15
-10 -8 0 -15 5 -15 10 0 6 7 10 15 10 8 0 15 -4 15 -10z m60 0 c0 -5 -9 -10
-20 -10 -11 0 -20 5 -20 10 0 6 9 10 20 10 11 0 20 -4 20 -10z m60 1 c0 -5 -7
-12 -16 -15 -22 -9 -24 -8 -24 9 0 8 9 15 20 15 11 0 20 -4 20 -9z m20 -51 c0
-25 -28 -26 -46 -2 -13 16 -13 16 -14 -3 0 -16 -7 -20 -37 -20 -37 0 -38 -1
-38 -38 0 -31 -3 -37 -21 -37 -17 0 -20 5 -16 30 3 18 0 30 -7 30 -6 0 -11 9
-11 20 0 11 -4 20 -10 20 -5 0 -10 -4 -10 -9 0 -5 -9 -11 -20 -14 -16 -4 -20
0 -20 19 l0 24 125 0 c118 0 125 -1 125 -20z m60 -45 c0 -50 -2 -55 -23 -55
-20 0 -22 4 -18 48 3 43 13 61 34 62 4 0 7 -25 7 -55z m-330 35 c0 -5 -18 -10
-40 -10 -22 0 -40 5 -40 10 0 6 18 10 40 10 22 0 40 -4 40 -10z m380 0 c0 -5
-7 -10 -15 -10 -8 0 -15 5 -15 10 0 6 7 10 15 10 8 0 15 -4 15 -10z m60 0 c0
-5 -9 -10 -20 -10 -11 0 -20 5 -20 10 0 6 9 10 20 10 11 0 20 -4 20 -10z m60
0 c0 -5 -9 -10 -20 -10 -11 0 -20 5 -20 10 0 6 9 10 20 10 11 0 20 -4 20 -10z
m60 0 c0 -5 -9 -10 -20 -10 -11 0 -20 5 -20 10 0 6 9 10 20 10 11 0 20 -4 20
-10z m-620 -50 c0 -11 -4 -20 -10 -20 -5 0 -10 9 -10 20 0 11 5 20 10 20 6 0
10 -9 10 -20z m140 -40 l0 -60 -60 0 -60 0 0 60 0 60 60 0 60 0 0 -60z m190
30 c0 -27 -3 -30 -30 -30 -26 0 -30 -4 -30 -27 1 -24 2 -26 13 -12 7 8 20 18
30 22 13 5 17 1 17 -18 0 -21 -5 -25 -30 -25 -28 0 -30 -3 -30 -35 l0 -35 -95
0 -95 0 0 -30 c0 -23 -4 -30 -20 -30 -25 0 -26 28 -2 46 15 12 14 13 -10 14
-16 0 -28 5 -28 10 0 6 -8 10 -19 10 -12 0 -20 9 -23 25 -4 19 -1 25 13 25 10
0 21 -4 24 -10 3 -5 19 -10 36 -10 20 0 29 -5 30 -17 1 -16 2 -16 6 -2 2 9 15
19 29 22 18 3 24 0 24 -14 0 -11 5 -19 10 -19 6 0 10 7 10 15 0 8 4 15 9 15 5
0 16 3 25 6 12 4 16 0 16 -15 0 -12 5 -21 10 -21 6 0 10 5 10 11 0 7 8 18 18
25 15 12 14 13 -10 14 -27 0 -28 1 -28 60 l0 60 60 0 60 0 0 -30z m110 10 c0
-11 -7 -20 -15 -20 -8 0 -15 9 -15 20 0 11 7 20 15 20 8 0 15 -9 15 -20z
m-440 -60 c0 -11 -4 -20 -10 -20 -5 0 -10 9 -10 20 0 11 5 20 10 20 6 0 10 -9
10 -20z m193 -20 c4 -15 0 -20 -14 -20 -12 0 -19 7 -19 20 0 11 6 20 14 20 7
0 16 -9 19 -20z m177 10 c0 -5 -4 -10 -10 -10 -5 0 -10 5 -10 10 0 6 5 10 10
10 6 0 10 -4 10 -10z m-60 -65 c0 -8 -4 -15 -10 -15 -5 0 -10 7 -10 15 0 8 5
15 10 15 6 0 10 -7 10 -15z m-290 -95 l0 -60 -30 0 -30 0 0 60 0 60 30 0 30 0
0 -60z m300 56 c0 -18 -15 -36 -31 -36 -12 0 -19 7 -19 20 0 15 7 20 25 20 14
0 25 -2 25 -4z m50 -27 c0 -5 -9 -9 -20 -9 -11 0 -20 6 -20 14 0 9 7 12 20 9
11 -3 20 -9 20 -14z m150 4 c0 -7 5 -13 10 -13 6 0 10 5 10 10 0 6 18 10 40
10 l40 0 0 -40 c0 -33 -3 -40 -20 -40 -13 0 -20 7 -20 20 0 15 -7 20 -27 20
-25 -1 -26 -2 -10 -14 22 -17 22 -22 -3 -29 -16 -4 -20 0 -20 19 0 20 -5 24
-30 24 -27 0 -30 -3 -30 -30 0 -26 -3 -30 -29 -30 -24 0 -28 4 -24 19 3 11 15
22 26 27 19 6 18 8 -10 11 -25 3 -33 9 -33 24 0 25 38 26 56 2 13 -17 13 -17
14 2 0 15 7 20 30 20 17 0 30 -5 30 -12z m-380 -7 c0 -9 -7 -12 -20 -9 -11 3
-20 9 -20 14 0 5 9 9 20 9 11 0 20 -6 20 -14z m70 4 c0 -5 -11 -10 -25 -10
-14 0 -25 5 -25 10 0 6 11 10 25 10 14 0 25 -4 25 -10z m40 0 c0 -5 -4 -10
-10 -10 -5 0 -10 5 -10 10 0 6 5 10 10 10 6 0 10 -4 10 -10z m440 -30 c0 -36
-2 -40 -25 -40 -22 0 -25 4 -25 40 0 36 3 40 25 40 23 0 25 -4 25 -40z m-500
-20 c0 -11 -7 -20 -15 -20 -8 0 -15 9 -15 20 0 11 7 20 15 20 8 0 15 -9 15
-20z m-310 -10 c0 -5 -7 -10 -15 -10 -8 0 -15 5 -15 10 0 6 7 10 15 10 8 0 15
-4 15 -10z m60 0 c0 -5 -9 -10 -20 -10 -11 0 -20 5 -20 10 0 6 9 10 20 10 11
0 20 -4 20 -10z m120 0 c0 -5 -4 -10 -10 -10 -5 0 -10 5 -10 10 0 6 5 10 10
10 6 0 10 -4 10 -10z m440 0 c0 -5 -4 -10 -10 -10 -5 0 -10 5 -10 10 0 6 5 10
10 10 6 0 10 -4 10 -10z m-500 -60 c0 -5 -4 -10 -10 -10 -5 0 -10 5 -10 10 0
6 5 10 10 10 6 0 10 -4 10 -10z m440 0 c0 -5 -7 -10 -15 -10 -8 0 -15 5 -15
10 0 6 7 10 15 10 8 0 15 -4 15 -10z m-70 -65 c0 -8 -4 -15 -10 -15 -5 0 -10
7 -10 15 0 8 5 15 10 15 6 0 10 -7 10 -15z m-60 -65 c0 -5 -4 -10 -10 -10 -5
0 -10 5 -10 10 0 6 5 10 10 10 6 0 10 -4 10 -10z m10 -37 c0 -14 -15 -29 -32
-36 -14 -5 -18 -1 -18 18 0 20 5 25 25 25 14 0 25 -3 25 -7z m-70 -23 c0 -5
-4 -10 -10 -10 -5 0 -10 5 -10 10 0 6 5 10 10 10 6 0 10 -4 10 -10z m-60 -60
c0 -5 -7 -10 -15 -10 -8 0 -15 5 -15 10 0 6 7 10 15 10 8 0 15 -4 15 -10z"/>
<path d="M310 710 c0 -15 7 -20 27 -20 l27 0 -22 20 c-12 11 -24 20 -27 20 -3
0 -5 -9 -5 -20z"/>
<path d="M270 684 c0 -10 31 -36 37 -31 10 10 -6 37 -22 37 -8 0 -15 -3 -15
-6z"/>
<path d="M480 720 c0 -5 5 -10 10 -10 6 0 10 5 10 10 0 6 -4 10 -10 10 -5 0
-10 -4 -10 -10z"/>
<path d="M460 680 c0 -5 5 -10 10 -10 6 0 10 5 10 10 0 6 -4 10 -10 10 -5 0
-10 -4 -10 -10z"/>
<path d="M208 488 c9 -9 15 -9 24 0 9 9 7 12 -12 12 -19 0 -21 -3 -12 -12z"/>
<path d="M640 860 c0 -5 9 -10 19 -10 11 0 22 -6 24 -12 3 -7 6 -3 6 10 1 17
-5 22 -24 22 -14 0 -25 -4 -25 -10z"/>
<path d="M750 850 c0 -11 5 -20 10 -20 6 0 10 5 10 10 0 14 37 12 43 -2 4 -10
8 -9 17 2 9 11 13 12 17 3 8 -20 23 -15 23 7 0 18 -7 20 -60 20 -53 0 -60 -2
-60 -20z"/>
<path d="M900 863 c8 -3 21 -12 28 -21 10 -14 12 -13 12 6 0 18 -6 22 -27 21
-16 0 -21 -3 -13 -6z"/>
<path d="M960 820 c0 -5 9 -10 20 -10 11 0 20 5 20 10 0 6 -9 10 -20 10 -11 0
-20 -4 -20 -10z"/>
<path d="M890 800 c0 -5 7 -10 15 -10 8 0 15 -4 15 -10 0 -5 -6 -10 -14 -10
-8 0 -18 -4 -21 -10 -4 -6 7 -10 24 -10 28 0 31 3 31 30 0 25 -4 30 -25 30
-14 0 -25 -4 -25 -10z"/>
<path d="M88 753 c7 -3 16 -2 19 1 4 3 -2 6 -13 5 -11 0 -14 -3 -6 -6z"/>
<path d="M52 720 c0 -19 2 -27 5 -17 2 9 2 25 0 35 -3 9 -5 1 -5 -18z"/>
<path d="M130 690 c0 -59 1 -60 28 -60 23 1 25 2 11 13 -23 18 -31 47 -14 47
18 0 20 17 3 23 -9 3 -7 10 7 21 20 15 19 15 -7 16 -27 0 -28 -1 -28 -60z"/>
<path d="M960 740 c0 -5 9 -10 20 -10 11 0 20 5 20 10 0 6 -9 10 -20 10 -11 0
-20 -4 -20 -10z"/>
<path d="M850 720 c0 -6 -30 -10 -70 -10 -40 0 -70 -4 -70 -10 0 -6 33 -10 80
-10 73 0 80 2 80 20 0 11 -4 20 -10 20 -5 0 -10 -4 -10 -10z"/>
<path d="M53 625 c0 -27 2 -38 4 -22 2 15 2 37 0 50 -2 12 -4 0 -4 -28z"/>
<path d="M670 660 c0 -5 -7 -10 -15 -10 -8 0 -15 -4 -15 -10 0 -5 11 -10 25
-10 18 0 25 5 25 20 0 11 -4 20 -10 20 -5 0 -10 -4 -10 -10z"/>
<path d="M750 650 c0 -11 4 -20 9 -20 5 0 7 9 4 20 -3 11 -7 20 -9 20 -2 0 -4
-9 -4 -20z"/>
<path d="M870 640 c0 -5 14 -10 32 -10 36 0 35 4 -4 14 -17 4 -28 2 -28 -4z"/>
<path d="M88 633 c7 -3 16 -2 19 1 4 3 -2 6 -13 5 -11 0 -14 -3 -6 -6z"/>
<path d="M603 604 c-3 -8 -1 -20 6 -27 8 -8 11 -4 11 16 0 30 -7 35 -17 11z"/>
<path d="M690 601 c0 -12 5 -21 10 -21 6 0 10 6 10 14 0 8 -4 18 -10 21 -5 3
-10 -3 -10 -14z"/>
<path d="M942 600 c0 -14 2 -19 5 -12 2 6 2 18 0 25 -3 6 -5 1 -5 -13z"/>
<path d="M110 595 c0 -8 5 -15 10 -15 6 0 10 7 10 15 0 8 -4 15 -10 15 -5 0
-10 -7 -10 -15z"/>
<path d="M7 563 c7 -2 19 -2 26 0 6 3 1 5 -13 5 -14 0 -19 -2 -13 -5z"/>
<path d="M0 510 c0 -5 9 -10 20 -10 11 0 20 5 20 10 0 6 -9 10 -20 10 -11 0
-20 -4 -20 -10z"/>
<path d="M466 459 c-19 -19 -19 -19 7 -19 20 0 27 5 27 20 0 25 -9 25 -34 -1z"/>
<path d="M560 470 c0 -5 5 -10 10 -10 6 0 10 5 10 10 0 6 -4 10 -10 10 -5 0
-10 -4 -10 -10z"/>
<path d="M325 450 c-3 -5 3 -10 15 -10 12 0 18 5 15 10 -3 6 -10 10 -15 10 -5
0 -12 -4 -15 -10z"/>
<path d="M0 430 c0 -5 9 -10 20 -10 11 0 20 5 20 10 0 6 -9 10 -20 10 -11 0
-20 -4 -20 -10z"/>
<path d="M560 413 c1 -24 3 -26 13 -13 7 8 19 21 27 28 12 10 9 12 -13 12 -23
0 -27 -4 -27 -27z"/>
<path d="M420 406 c0 -8 7 -22 16 -30 17 -18 44 -21 44 -6 0 6 -9 10 -20 10
-13 0 -20 7 -20 20 0 11 -4 20 -10 20 -5 0 -10 -6 -10 -14z"/>
<path d="M730 411 c0 -6 5 -13 10 -16 6 -3 10 1 10 9 0 9 -4 16 -10 16 -5 0
-10 -4 -10 -9z"/>
<path d="M810 404 c0 -8 5 -12 10 -9 6 3 10 10 10 16 0 5 -4 9 -10 9 -5 0 -10
-7 -10 -16z"/>
<path d="M940 400 c0 -11 5 -20 10 -20 6 0 10 9 10 20 0 11 -4 20 -10 20 -5 0
-10 -9 -10 -20z"/>
<path d="M0 370 c0 -5 9 -10 20 -10 15 0 20 -7 20 -25 0 -14 5 -25 10 -25 15
0 12 39 -4 56 -17 16 -46 19 -46 4z"/>
<path d="M500 349 c0 -17 4 -28 10 -24 6 3 10 11 10 17 0 6 8 17 18 24 15 12
14 13 -10 14 -25 0 -28 -4 -28 -31z"/>
<path d="M770 370 c0 -5 5 -10 10 -10 6 0 10 -7 10 -15 0 -8 -4 -15 -10 -15
-5 0 -10 -4 -10 -10 0 -5 9 -10 20 -10 16 0 20 7 20 35 0 28 -4 35 -20 35 -11
0 -20 -4 -20 -10z"/>
<path d="M878 373 c12 -2 30 -2 40 0 9 3 -1 5 -23 4 -22 0 -30 -2 -17 -4z"/>
<path d="M370 339 c0 -11 5 -17 10 -14 6 3 10 13 10 21 0 8 -4 14 -10 14 -5 0
-10 -9 -10 -21z"/>
<path d="M670 346 c0 -8 5 -18 10 -21 6 -3 10 3 10 14 0 12 -4 21 -10 21 -5 0
-10 -6 -10 -14z"/>
<path d="M93 303 c15 -2 39 -2 55 0 15 2 2 4 -28 4 -30 0 -43 -2 -27 -4z"/>
<path d="M330 300 c0 -5 7 -10 15 -10 25 0 17 -17 -10 -22 -20 -4 -25 -1 -25
16 -1 21 -1 21 -15 2 -15 -20 -15 -20 -30 0 -14 18 -14 18 -15 -8 0 -27 -1
-28 -60 -28 l-60 0 0 -60 0 -60 30 0 c30 0 30 0 30 56 0 47 3 55 16 50 9 -3
18 -6 20 -6 2 0 4 -16 4 -36 0 -23 -6 -42 -17 -50 -16 -12 -15 -13 10 -14 26
0 27 1 27 60 l0 60 60 0 c53 0 60 -2 60 -20 0 -11 5 -20 10 -20 6 0 10 5 10
10 0 6 7 10 15 10 8 0 15 5 15 10 0 6 -11 10 -25 10 -21 0 -25 5 -25 30 0 23
-4 30 -20 30 -11 0 -20 -4 -20 -10z m-160 -90 c0 -11 -4 -20 -10 -20 -5 0 -10
9 -10 20 0 11 5 20 10 20 6 0 10 -9 10 -20z m0 -50 c0 -5 -4 -10 -10 -10 -5 0
-10 5 -10 10 0 6 5 10 10 10 6 0 10 -4 10 -10z"/>
<path d="M440 283 c1 -24 3 -26 13 -13 7 8 19 21 27 28 12 10 9 12 -13 12 -23
0 -27 -4 -27 -27z"/>
<path d="M811 274 c0 -11 3 -14 6 -6 3 7 2 16 -1 19 -3 4 -6 -2 -5 -13z"/>
<path d="M7 253 c7 -2 19 -2 26 0 6 3 1 5 -13 5 -14 0 -19 -2 -13 -5z"/>
<path d="M60 190 c0 -57 1 -60 25 -60 14 0 25 5 25 10 0 6 -7 10 -15 10 -11 0
-15 11 -15 40 0 29 4 40 15 40 8 0 15 5 15 10 0 6 -11 10 -25 10 -24 0 -25 -3
-25 -60z"/>
<path d="M778 243 c7 -3 16 -2 19 1 4 3 -2 6 -13 5 -11 0 -14 -3 -6 -6z"/>
<path d="M620 210 c0 -16 7 -20 35 -20 28 0 35 4 35 20 0 11 -4 20 -10 20 -5
0 -10 -4 -10 -10 0 -5 -7 -10 -15 -10 -8 0 -15 5 -15 10 0 6 -4 10 -10 10 -5
0 -10 -9 -10 -20z"/>
<path d="M750 210 c0 -15 -7 -20 -26 -20 -14 0 -23 -4 -19 -10 9 -15 23 -12
45 10 22 22 26 40 10 40 -5 0 -10 -9 -10 -20z"/>
<path d="M573 175 c-7 -8 -13 -21 -13 -30 0 -8 -7 -15 -16 -15 -22 0 -44 -25
-44 -49 0 -17 -6 -21 -30 -21 -25 0 -30 4 -30 25 0 14 -4 25 -10 25 -16 0 -12
-26 9 -51 16 -20 22 -22 45 -11 14 6 28 22 32 36 4 16 15 26 35 30 19 4 27 10
23 20 -3 8 5 23 17 35 16 14 18 21 8 21 -8 -1 -20 -7 -26 -15z"/>
<path d="M0 120 c0 -5 9 -10 19 -10 11 0 23 5 26 10 4 6 -5 10 -19 10 -14 0
-26 -4 -26 -10z"/>
<path d="M268 118 c9 -9 15 -9 24 0 9 9 7 12 -12 12 -19 0 -21 -3 -12 -12z"/>
<path d="M52 90 c0 -14 2 -19 5 -12 2 6 2 18 0 25 -3 6 -5 1 -5 -13z"/>
<path d="M78 53 c6 -2 18 -2 25 0 6 3 1 5 -13 5 -14 0 -19 -2 -12 -5z"/>
<path d="M117 43 c-11 -10 -8 -43 3 -43 6 0 10 11 10 25 0 26 -2 29 -13 18z"/>
<path d="M372 20 c0 -14 2 -19 5 -12 2 6 2 18 0 25 -3 6 -5 1 -5 -13z"/>
</g>
</svg>
