<?xml version="1.0" standalone="no"?>
<!DOCTYPE svg PUBLIC "-//W3C//DTD SVG 20010904//EN"
 "http://www.w3.org/TR/2001/REC-SVG-20010904/DTD/svg10.dtd">
<svg version="1.0" xmlns="http://www.w3.org/2000/svg"
 width="100.000000pt" height="100.000000pt" viewBox="0 0 100.000000 100.000000"
 preserveAspectRatio="xMidYMid meet">
<metadata>
Created by potrace 1.16, written by Peter Selinger 2001-2019
</metadata>
<g transform="translate(0.000000,100.000000) scale(0.100000,-0.100000)"
fill="#000000" stroke="none">
<path d="M100 810 l0 -140 120 0 120 0 0 -310 0 -310 150 0 150 0 0 310 0 310
130 0 130 0 0 140 0 140 -400 0 -400 0 0 -140z m780 0 l0 -120 -130 0 -130 0
0 -310 0 -310 -130 0 -130 0 0 310 0 310 -120 0 -120 0 0 120 0 120 380 0 380
0 0 -120z"/>
</g>
</svg>
