<?xml version="1.0" standalone="no"?>
<!DOCTYPE svg PUBLIC "-//W3C//DTD SVG 20010904//EN"
 "http://www.w3.org/TR/2001/REC-SVG-20010904/DTD/svg10.dtd">
<svg version="1.0" xmlns="http://www.w3.org/2000/svg"
 width="76.000000pt" height="76.000000pt" viewBox="0 0 76.000000 76.000000"
 preserveAspectRatio="xMidYMid meet">
<metadata>
Created by potrace 1.16, written by Peter Selinger 2001-2019
</metadata>
<g transform="translate(0.000000,76.000000) scale(0.100000,-0.100000)"
fill="#000000" stroke="none">
<path d="M0 720 c0 -6 119 -10 338 -10 311 0 340 -2 380 -20 53 -24 60 -2 7
23 -31 15 -78 17 -380 17 -223 0 -345 -4 -345 -10z"/>
<path d="M0 615 c0 -17 4 -35 8 -40 5 -6 19 -35 32 -65 41 -99 53 -110 120
-110 l60 0 2 -182 3 -183 38 -3 c40 -3 57 0 217 41 l95 24 3 152 3 152 62 -7
c47 -5 65 -3 74 7 19 23 43 101 43 139 -1 29 -5 22 -28 -45 l-27 -80 -73 3
-72 4 0 -154 0 -153 -133 -33 c-72 -18 -144 -32 -159 -32 l-28 0 0 185 0 184
-66 3 c-75 3 -69 -3 -139 148 -29 63 -35 70 -35 45z"/>
<path d="M114 618 c-5 -7 -3 -8 6 -3 10 6 12 4 7 -9 -5 -11 -3 -15 5 -10 8 5
9 2 5 -10 -4 -9 -3 -15 1 -12 4 2 16 -13 26 -35 l19 -39 79 0 78 0 0 -176 0
-175 23 7 c12 4 38 10 57 13 l35 6 3 120 c3 114 2 120 -21 139 -13 12 -32 26
-42 32 -10 6 -21 16 -23 23 -3 9 27 11 130 9 113 -3 134 -1 135 12 2 21 10 61
18 86 5 17 2 23 -17 27 -44 12 -516 8 -524 -5z m503 -16 c7 -5 9 -19 4 -42
l-7 -35 -206 -3 c-204 -2 -206 -2 -220 20 -8 13 -18 33 -22 46 l-7 22 223 0
c123 0 228 -4 235 -8z m-211 -173 l34 -21 0 -109 c0 -109 0 -109 -24 -109 -13
0 -31 -3 -40 -6 -14 -5 -16 10 -16 130 0 75 3 136 6 136 4 0 22 -9 40 -21z"/>
<path d="M666 562 c-4 -13 -5 -26 -2 -29 10 -11 18 4 14 29 l-4 23 -8 -23z"/>
<path d="M338 83 c7 -3 16 -2 19 1 4 3 -2 6 -13 5 -11 0 -14 -3 -6 -6z"/>
</g>
</svg>
