<?xml version="1.0" standalone="no"?>
<!DOCTYPE svg PUBLIC "-//W3C//DTD SVG 20010904//EN"
 "http://www.w3.org/TR/2001/REC-SVG-20010904/DTD/svg10.dtd">
<svg version="1.0" xmlns="http://www.w3.org/2000/svg"
 width="192.000000pt" height="192.000000pt" viewBox="0 0 192.000000 192.000000"
 preserveAspectRatio="xMidYMid meet">
<metadata>
Created by potrace 1.16, written by Peter Selinger 2001-2019
</metadata>
<g transform="translate(0.000000,192.000000) scale(0.100000,-0.100000)"
fill="#000000" stroke="none">
<path d="M740 1401 c-158 -35 -285 -98 -375 -186 -206 -201 -137 -471 157
-619 152 -76 220 -90 438 -90 218 0 286 14 438 90 236 118 331 313 243 499
-61 130 -222 245 -416 296 -116 31 -367 36 -485 10z m369 -17 c2 -2 -28 -4
-67 -4 -69 0 -72 -1 -72 -23 0 -14 12 -32 29 -45 35 -26 70 -95 92 -182 l16
-65 54 1 c63 2 157 35 198 70 57 48 49 124 -18 170 -52 35 -30 30 53 -13 86
-45 192 -147 226 -218 32 -69 32 -161 0 -230 -34 -71 -140 -173 -226 -218 -93
-48 -105 -47 -24 1 124 76 199 173 219 287 23 126 -34 291 -97 283 -20 -2 -28
-11 -34 -35 -16 -60 -113 -120 -256 -156 l-87 -23 -7 -92 c-7 -108 -36 -209
-77 -274 -16 -25 -31 -57 -33 -70 -2 -19 -9 -23 -38 -23 -29 0 -36 4 -38 23
-2 13 -17 45 -33 70 -41 65 -70 166 -77 274 l-7 92 -87 23 c-143 36 -240 96
-256 156 -6 24 -14 33 -34 35 -63 8 -120 -157 -97 -283 20 -114 95 -211 219
-287 81 -48 69 -49 -24 -1 -86 45 -192 147 -226 218 -32 69 -32 161 0 230 34
71 140 173 226 218 83 43 105 48 53 13 -67 -46 -75 -122 -18 -170 41 -35 135
-68 198 -70 l54 -1 16 65 c22 87 57 156 92 182 17 13 29 31 29 45 0 22 -4 23
-72 25 l-73 1 65 7 c61 6 230 2 239 -6z m-316 -11 c-7 -2 -19 -2 -25 0 -7 3
-2 5 12 5 14 0 19 -2 13 -5z m360 0 c-7 -2 -19 -2 -25 0 -7 3 -2 5 12 5 14 0
19 -2 13 -5z m-416 -9 c-3 -3 -12 -4 -19 -1 -8 3 -5 6 6 6 11 1 17 -2 13 -5z
m470 0 c-3 -3 -12 -4 -19 -1 -8 3 -5 6 6 6 11 1 17 -2 13 -5z m-321 -47 c-42
-43 -72 -110 -91 -204 -4 -18 -7 -33 -8 -33 -14 0 -141 42 -165 54 -43 22 -72
55 -72 82 0 64 175 135 352 143 27 1 27 1 -16 -42z m209 32 c159 -22 275 -78
275 -133 0 -27 -29 -60 -72 -82 -24 -12 -151 -54 -165 -54 -1 0 -4 15 -8 33
-19 94 -49 161 -91 204 -48 47 -48 48 61 32z m-622 -260 c42 -43 156 -95 238
-111 l66 -12 6 -82 c10 -135 48 -255 101 -312 l21 -24 -40 7 c-188 31 -332 99
-420 196 -104 116 -120 266 -41 398 l20 35 8 -31 c5 -18 23 -46 41 -64z m1070
11 c31 -70 30 -179 -4 -251 -72 -152 -237 -253 -484 -294 l-40 -7 21 24 c53
57 91 177 101 312 l6 82 66 12 c133 25 265 108 278 175 6 28 7 29 21 11 7 -10
23 -39 35 -64z"/>
<path d="M895 1244 c-29 -31 -55 -104 -55 -154 0 -35 2 -38 38 -44 20 -3 57
-6 82 -6 25 0 62 3 83 6 35 6 37 9 37 44 0 50 -26 123 -55 154 -18 20 -34 26
-65 26 -31 0 -47 -6 -65 -26z m97 -14 c26 -20 50 -69 63 -127 l7 -33 -102 0
-102 0 7 33 c13 58 37 107 63 127 13 11 28 20 32 20 4 0 19 -9 32 -20z"/>
<path d="M832 897 c9 -135 61 -227 128 -227 67 0 119 92 128 227 l5 83 -133 0
-133 0 5 -83z m232 13 c-17 -128 -58 -210 -104 -210 -46 0 -87 82 -104 210
l-6 45 110 0 110 0 -6 -45z"/>
</g>
</svg>
