<?xml version="1.0" standalone="no"?>
<!DOCTYPE svg PUBLIC "-//W3C//DTD SVG 20010904//EN"
 "http://www.w3.org/TR/2001/REC-SVG-20010904/DTD/svg10.dtd">
<svg version="1.0" xmlns="http://www.w3.org/2000/svg"
 width="180.000000pt" height="180.000000pt" viewBox="0 0 180.000000 180.000000"
 preserveAspectRatio="xMidYMid meet">
<metadata>
Created by potrace 1.16, written by Peter Selinger 2001-2019
</metadata>
<g transform="translate(0.000000,180.000000) scale(0.100000,-0.100000)"
fill="#000000" stroke="none">
<path d="M530 1470 c-23 -7 -23 -8 -3 -9 12 -1 25 4 28 9 3 6 5 10 3 9 -2 -1
-14 -5 -28 -9z"/>
<path d="M800 1463 c-317 -30 -564 -163 -653 -351 -28 -58 -32 -78 -32 -147 0
-70 4 -89 32 -146 107 -218 429 -365 768 -353 269 10 488 88 627 225 97 95
123 155 123 279 0 85 -3 101 -29 149 -119 229 -483 378 -836 344z m160 -33 c0
-13 -52 -26 -85 -22 -27 4 -28 5 -10 13 14 7 8 7 -20 3 -73 -11 -90 -11 -110
-3 -14 7 -6 8 25 4 25 -3 39 -2 33 3 -7 4 27 9 77 9 50 1 90 -2 90 -7z m47 -5
c0 -8 -8 -15 -18 -15 -12 0 -16 5 -13 15 4 8 12 15 18 15 7 0 13 -7 13 -15z
m-307 -19 c0 -8 -13 -16 -30 -18 -20 -3 -30 0 -30 8 0 11 9 15 53 23 4 0 7 -5
7 -13z m440 -3 c19 -9 51 -17 70 -19 51 -3 52 -3 45 -13 -7 -12 -39 -8 -80 8
-16 7 -55 15 -85 18 -30 3 -58 8 -62 12 -16 15 79 10 112 -6z m-510 -13 c0 -9
-24 -14 -34 -7 -2 1 -13 -6 -25 -17 -16 -14 -29 -17 -58 -13 -22 4 -32 3 -24
-2 8 -5 9 -11 3 -15 -5 -3 -13 1 -16 9 -7 20 16 29 54 22 22 -5 28 -3 24 8 -4
9 4 15 28 18 18 2 36 5 41 5 4 1 7 -2 7 -8z m275 -20 c-19 -7 -19 -7 2 -21 16
-10 19 -16 11 -26 -6 -7 -15 -13 -20 -13 -6 0 -4 7 3 16 12 15 11 16 -9 10
-14 -5 -22 -3 -22 4 0 6 5 8 10 5 6 -3 10 -1 10 4 0 6 -8 12 -17 12 -17 1 -17
2 0 6 9 2 17 9 17 14 0 6 -5 7 -12 3 -7 -4 -8 -3 -4 4 5 9 12 9 29 0 21 -11
21 -11 2 -18z m-55 12 c0 -5 -11 -15 -25 -22 -33 -18 -81 -116 -99 -200 -13
-63 -14 -65 -42 -62 -16 2 -63 15 -105 28 -77 24 -139 70 -139 102 0 26 65 79
125 102 33 12 105 30 160 40 119 22 125 22 125 12z m210 -12 c175 -29 295 -98
275 -160 -10 -31 -71 -66 -153 -89 -41 -11 -82 -23 -91 -26 -14 -4 -19 6 -30
59 -17 87 -61 177 -102 210 l-34 27 35 -5 c19 -3 64 -11 100 -16z m224 -11
c-4 -8 1 -9 17 -4 20 5 21 4 9 -5 -12 -10 -11 -11 8 -7 12 3 22 1 22 -4 0 -5
9 -9 20 -9 11 0 20 -4 20 -8 0 -10 50 -37 63 -34 4 1 8 -5 8 -13 1 -8 2 -21 3
-27 0 -7 11 -13 22 -14 33 -2 48 -14 34 -28 -9 -8 -14 -8 -17 2 -6 15 -43 16
-43 1 0 -6 7 -8 16 -5 14 5 15 4 4 -9 -7 -8 -16 -12 -21 -9 -5 3 -6 -1 -3 -9
3 -10 -4 -18 -23 -25 -15 -6 -22 -11 -15 -11 6 -1 12 -5 12 -11 0 -6 -9 -6
-25 0 -27 10 -41 -1 -31 -25 3 -8 2 -14 -2 -13 -4 1 -16 -3 -27 -9 -32 -18
-60 -20 -60 -4 0 8 -6 16 -13 19 -9 3 -11 -3 -6 -22 5 -20 2 -26 -10 -26 -9 0
-16 4 -16 9 0 5 -15 11 -32 15 -25 5 -30 9 -18 16 9 6 19 5 28 -2 10 -9 16 -9
21 1 5 7 24 16 42 20 19 4 33 13 32 19 -2 7 3 12 11 12 8 0 24 14 37 31 17 24
20 38 14 67 -4 20 -7 45 -7 54 1 10 -4 21 -10 24 -6 4 -8 2 -4 -4 3 -6 1 -14
-5 -18 -9 -5 -10 0 -7 14 4 15 2 22 -9 22 -23 0 -54 20 -48 31 4 5 8 9 11 9 3
0 2 -5 -2 -11z m-820 -18 c3 -5 0 -13 -7 -19 -10 -8 -13 -6 -13 9 0 20 11 25
20 10z m-44 -66 c-7 -8 -8 -20 -4 -26 5 -9 2 -10 -9 -6 -14 5 -17 0 -17 -26
l1 -32 14 25 c17 29 19 22 5 -15 -7 -17 -7 -24 0 -20 6 3 10 1 10 -5 0 -6 5
-8 10 -5 6 3 10 2 10 -3 0 -5 11 -15 25 -22 13 -7 22 -17 18 -23 -3 -5 3 -6
16 -2 11 3 21 2 21 -3 0 -12 80 -33 93 -25 6 3 7 1 3 -5 -5 -9 11 -12 57 -12
63 0 65 1 76 30 13 39 19 38 17 -2 l-1 -33 130 0 c107 0 129 3 127 14 -2 8 3
18 10 22 10 7 10 9 1 9 -7 0 -13 9 -13 20 0 11 5 20 11 20 6 0 9 -7 6 -15 -4
-8 -2 -17 4 -21 7 -4 6 -10 -1 -19 -15 -18 9 -25 75 -23 29 1 63 -5 80 -14
l30 -16 -25 -6 c-14 -3 -47 -10 -75 -15 -27 -5 -65 -14 -82 -19 -20 -6 -33 -7
-33 -1 0 12 -248 6 -259 -7 -5 -5 -11 -18 -14 -29 -2 -11 -3 -7 -2 8 2 35 -8
40 -109 57 -56 10 -74 16 -60 21 13 5 14 8 4 8 -13 1 -13 2 0 11 8 5 11 10 6
10 -5 0 -18 -8 -28 -17 -14 -13 -21 -14 -30 -5 -7 7 -20 12 -30 12 -10 0 -18
4 -18 8 0 9 -59 36 -78 35 -10 -1 -10 2 -1 13 10 12 9 18 -1 27 -9 8 -11 8 -7
1 4 -7 0 -14 -8 -17 -9 -4 -12 -1 -8 9 3 7 1 14 -5 14 -6 0 -15 14 -21 31 -9
26 -15 30 -33 26 -22 -6 -22 -6 2 13 14 10 36 22 48 25 29 7 68 42 59 52 -4 3
-7 1 -7 -6 0 -7 -4 -10 -10 -6 -5 3 -2 13 8 23 16 16 17 16 20 -6 2 -13 -2
-29 -8 -37z m459 39 c3 -4 -2 -4 -12 -1 -12 5 -27 -2 -44 -19 -30 -30 -42 -27
-13 3 10 12 16 24 12 28 -4 3 6 4 22 1 16 -3 31 -8 35 -12z m90 -13 c9 -6 10
-11 2 -15 -6 -4 -11 -2 -11 4 0 6 -4 8 -10 5 -5 -3 -10 -1 -10 4 0 13 10 14
29 2z m-592 -18 c2 -6 -2 -13 -9 -16 -9 -3 -14 3 -14 14 0 20 17 21 23 2z
m550 -8 c19 -13 73 -151 73 -186 0 -5 -46 -9 -105 -9 l-105 0 6 43 c7 49 38
123 61 149 20 22 42 23 70 3z m-599 -17 c-3 -7 -10 -13 -17 -13 -7 0 -21 -11
-31 -25 -10 -14 -21 -22 -24 -19 -7 7 53 69 66 69 5 0 8 -6 6 -12z m659 -10
c-3 -8 -6 -5 -6 6 -1 11 2 17 5 13 3 -3 4 -12 1 -19z m-192 -6 c-5 -4 -10 -11
-10 -17 0 -5 -4 -25 -9 -42 -12 -49 -25 -49 -15 0 13 60 17 67 31 67 8 0 9 -3
3 -8z m215 -18 c0 -14 -4 -23 -9 -20 -5 3 -7 15 -4 26 7 28 13 25 13 -6z
m-690 -51 c0 -64 127 -136 297 -169 l91 -17 1 -73 c3 -135 65 -313 118 -337
37 -16 27 -28 -19 -21 -239 32 -380 89 -486 196 -122 123 -139 261 -48 400 35
54 46 59 46 21z m1253 -29 c-7 -18 -23 -8 -23 14 0 13 -2 14 -9 4 -7 -11 -9
-10 -14 3 -5 11 -3 14 5 9 8 -5 9 -1 4 12 -6 16 -3 15 18 -5 13 -13 22 -29 19
-37z m-543 36 c0 -5 -5 -10 -11 -10 -5 0 -7 5 -4 10 3 6 8 10 11 10 2 0 4 -4
4 -10z m-790 -20 c0 -11 -4 -20 -8 -20 -4 0 -8 9 -8 20 0 11 4 20 8 20 4 0 8
-9 8 -20z m1288 -55 c22 -42 27 -62 27 -130 0 -72 -3 -85 -33 -137 -43 -74
-112 -135 -209 -186 -92 -47 -155 -67 -278 -87 -117 -19 -115 -20 -74 14 20
17 47 55 62 88 28 62 57 206 57 279 0 40 2 44 24 44 42 0 212 47 264 74 57 29
89 59 104 96 11 28 12 27 56 -55z m-1328 10 c-7 -14 -17 -25 -22 -25 -14 0 -9
18 7 24 8 3 15 13 15 22 0 10 3 14 7 11 3 -4 0 -18 -7 -32z m1402 6 c7 10 8 8
3 -8 -3 -13 -2 -23 3 -23 13 0 34 -59 26 -72 -3 -5 -1 -15 6 -23 7 -9 9 -30 5
-59 -7 -45 -7 -45 -28 -26 -11 11 -24 17 -29 14 -4 -3 -8 0 -8 5 0 6 4 11 9
11 5 0 7 10 3 22 -3 14 -2 19 6 14 8 -5 12 0 12 13 0 10 -6 21 -12 24 -8 2
-13 21 -12 50 1 38 -2 45 -13 36 -9 -9 -13 -8 -13 0 0 6 5 11 10 11 6 0 11 8
11 18 1 15 2 14 6 -2 4 -15 7 -16 15 -5z m-202 -6 c0 -12 -19 -12 -23 0 -4 9
-1 12 9 8 7 -3 14 -7 14 -8z m-1210 -60 c0 -7 -6 -18 -14 -24 -10 -9 -15 -8
-20 4 -3 8 -3 21 0 29 7 17 34 10 34 -9z m-3 -69 c-3 -19 1 -59 10 -88 8 -29
14 -63 14 -75 0 -16 4 -21 14 -17 8 4 15 2 15 -4 0 -20 -29 -21 -35 -1 -4 12
-16 30 -26 40 -10 10 -19 28 -19 39 0 11 -4 20 -10 20 -5 0 -10 4 -10 10 0 5
6 7 14 4 8 -3 17 0 22 7 4 7 3 10 -3 6 -5 -3 -15 10 -22 30 -12 33 -12 38 5
50 29 21 37 15 31 -21z m570 -33 c-3 -10 -5 -4 -5 12 0 17 2 24 5 18 2 -7 2
-21 0 -30z m301 9 c2 -12 -2 -22 -8 -22 -6 0 -8 5 -5 10 4 6 1 18 -7 27 -11
14 -11 16 2 11 8 -2 16 -14 18 -26z m-64 -19 c-20 -152 -46 -225 -90 -245 -21
-10 -28 -8 -49 12 -29 27 -61 122 -70 208 l-7 62 110 0 111 0 -5 -37z m-233
-50 c1 -46 3 -56 23 -112 9 -24 14 -46 11 -49 -3 -3 -5 1 -6 9 0 8 -4 6 -9 -6
l-9 -20 -1 20 c-2 11 -2 26 -1 33 1 6 -3 12 -9 12 -5 0 -10 15 -10 33 0 17 -4
49 -9 69 -5 20 -6 39 -3 42 14 14 22 3 23 -31z m282 13 c7 -17 -3 -96 -13 -96
-3 0 -5 -13 -2 -30 3 -22 0 -30 -11 -30 -14 0 -34 -52 -29 -73 5 -18 -66 -90
-80 -81 -7 4 -8 3 -4 -5 4 -6 12 -8 18 -5 7 4 8 2 4 -4 -11 -18 -36 -14 -36 4
0 10 -5 14 -16 10 -16 -6 -40 14 -67 56 -16 26 -16 27 5 23 11 -3 17 -1 14 3
-4 4 -12 8 -17 8 -5 1 -13 2 -19 3 -5 0 -10 6 -10 11 0 16 33 7 48 -12 16 -22
111 -26 113 -5 0 10 2 10 6 0 2 -7 9 -13 14 -13 6 0 5 8 -1 20 -9 16 -8 20 5
20 9 0 15 9 15 25 0 14 4 25 8 25 4 0 9 8 10 18 4 38 20 116 21 105 2 -18 21
-16 21 2 0 8 -4 15 -10 15 -5 0 -10 5 -10 10 0 15 17 12 23 -4z m558 -18 c1
-21 2 -21 7 -3 4 19 5 19 11 1 4 -10 0 -34 -8 -52 -19 -40 -35 -46 -20 -8 12
33 5 43 -11 14 -6 -12 -9 -33 -5 -48 6 -23 4 -24 -10 -12 -18 15 -13 54 11 81
8 9 12 24 8 33 -3 9 -1 16 5 16 6 0 12 -10 12 -22z m-48 -118 c4 -17 2 -18
-14 -9 -22 11 -25 29 -5 29 7 0 16 -9 19 -20z m-1273 -31 c12 -22 19 -46 17
-52 -5 -15 -37 46 -37 70 0 15 -2 15 -9 3 -6 -8 -7 -18 -5 -22 3 -4 3 -8 0 -8
-3 0 -10 10 -17 21 -7 13 -7 19 -1 15 6 -3 13 -2 17 4 10 16 13 13 35 -31z
m1254 13 c2 -4 -2 -18 -10 -32 -8 -16 -14 -19 -14 -10 -1 11 -3 10 -9 -3 -6
-17 -8 -17 -20 -3 -11 14 -11 16 4 16 12 0 15 5 11 18 -5 14 -3 13 10 -3 16
-20 16 -20 9 3 -6 21 8 32 19 14z m-58 -64 c10 -13 12 -17 4 -10 -19 16 -35
16 -21 -1 15 -19 3 -28 -19 -15 -16 10 -16 12 -1 29 9 9 16 18 17 18 0 1 9 -9
20 -21z m-1142 -9 c-5 -8 49 -40 63 -38 25 4 35 -2 24 -14 -6 -8 -10 -16 -8
-18 1 -2 -2 0 -8 6 -5 5 -28 20 -50 32 -42 23 -55 40 -31 40 8 0 13 -4 10 -8z
m1060 -21 c-5 -8 0 -9 14 -6 12 4 22 2 22 -3 0 -5 -4 -9 -9 -9 -5 0 -17 -7
-26 -16 -9 -9 -19 -13 -23 -10 -3 4 -1 11 6 15 7 4 12 12 11 17 -2 14 0 24 7
24 3 0 2 -5 -2 -12z m-48 -43 c-11 -8 -14 -15 -7 -15 7 0 9 -5 5 -11 -4 -7 -9
-8 -13 -1 -4 6 -15 6 -29 1 -13 -5 -21 -13 -18 -18 3 -5 -4 -7 -16 -3 -14 3
-19 2 -14 -6 5 -8 -5 -12 -31 -12 -21 0 -47 -6 -58 -14 -11 -7 -30 -12 -42
-11 -12 1 -20 -2 -17 -7 3 -4 -4 -8 -15 -8 -12 0 -21 4 -21 8 0 10 39 30 60
31 42 2 90 14 90 22 0 5 10 9 23 9 12 1 42 12 67 25 51 28 64 31 36 10z m-859
-20 c-1 -5 11 -9 27 -8 35 3 23 -14 -14 -19 -17 -2 -24 1 -22 11 2 9 -3 11
-13 7 -22 -8 -42 4 -24 14 18 11 48 8 46 -5z m85 -29 c18 -17 58 -30 58 -18 0
5 12 7 28 4 l27 -6 -32 -8 c-23 -6 -43 -4 -68 6 -20 9 -43 13 -53 9 -13 -4
-13 -2 3 10 24 20 21 20 37 3z m354 -41 c7 -28 16 -31 36 -12 18 18 72 32 63
16 -5 -7 -1 -9 12 -5 13 4 20 2 20 -8 0 -7 -10 -14 -21 -14 -12 0 -70 -3 -131
-6 -85 -4 -101 -3 -70 5 22 5 49 10 60 10 16 0 17 2 5 9 -8 5 -18 6 -24 3 -5
-3 -6 -1 -2 5 4 6 14 8 23 5 11 -5 14 -3 9 6 -5 7 -17 10 -28 8 -15 -4 -17 -3
-8 9 16 19 48 1 56 -31z m-127 -1 c14 -14 -30 -24 -79 -18 -69 8 -84 17 -45
25 31 7 115 2 124 -7z"/>
<path d="M740 1329 c0 -5 -4 -7 -10 -4 -5 3 -10 1 -10 -4 0 -16 16 -13 30 4 9
10 9 15 1 15 -6 0 -11 -5 -11 -11z"/>
<path d="M521 1223 c-18 -19 -11 -22 17 -8 16 9 19 14 10 17 -7 3 -19 -1 -27
-9z"/>
<path d="M540 1185 c0 -8 4 -15 10 -15 5 0 7 7 4 15 -4 8 -8 15 -10 15 -2 0
-4 -7 -4 -15z"/>
<path d="M635 1150 c-3 -6 1 -7 9 -4 18 7 21 14 7 14 -6 0 -13 -4 -16 -10z"/>
<path d="M665 1140 c-3 -5 -1 -10 4 -10 6 0 11 5 11 10 0 6 -2 10 -4 10 -3 0
-8 -4 -11 -10z"/>
<path d="M1078 1323 c7 -3 16 -2 19 1 4 3 -2 6 -13 5 -11 0 -14 -3 -6 -6z"/>
<path d="M1205 1280 c-3 -6 1 -7 9 -4 18 7 21 14 7 14 -6 0 -13 -4 -16 -10z"/>
<path d="M1253 1263 c4 -3 5 -9 2 -14 -4 -5 1 -6 9 -3 11 4 16 0 16 -10 0 -9
4 -16 8 -16 12 0 9 37 -3 37 -5 0 -17 3 -25 5 -8 3 -12 3 -7 1z"/>
<path d="M1095 1230 c3 -5 8 -10 11 -10 2 0 4 5 4 10 0 6 -5 10 -11 10 -5 0
-7 -4 -4 -10z"/>
<path d="M1071 1225 c1 -19 18 -51 18 -35 0 8 -4 22 -9 30 -5 8 -9 11 -9 5z"/>
<path d="M1097 1177 c-4 -10 -2 -17 4 -17 6 0 8 -8 4 -17 -4 -13 -3 -15 5 -7
7 7 7 19 2 34 -7 19 -10 21 -15 7z"/>
<path d="M1430 1249 c0 -5 5 -7 10 -4 6 3 10 8 10 11 0 2 -4 4 -10 4 -5 0 -10
-5 -10 -11z"/>
<path d="M491 1101 c-11 -7 -9 -11 8 -21 12 -6 27 -9 34 -6 7 2 5 5 -5 5 -9 1
-18 8 -20 16 -2 10 -8 12 -17 6z"/>
<path d="M870 1211 c0 -5 5 -13 10 -16 6 -3 10 -2 10 4 0 5 -4 13 -10 16 -5 3
-10 2 -10 -4z"/>
<path d="M860 1185 c0 -5 5 -17 10 -25 5 -8 10 -10 10 -5 0 6 -5 17 -10 25 -5
8 -10 11 -10 5z"/>
<path d="M830 1160 c0 -5 5 -10 11 -10 5 0 7 5 4 10 -3 6 -8 10 -11 10 -2 0
-4 -4 -4 -10z"/>
<path d="M826 1123 c-6 -14 -5 -15 5 -6 7 7 10 15 7 18 -3 3 -9 -2 -12 -12z"/>
<path d="M294 1088 c-3 -4 2 -8 10 -8 8 0 17 4 20 8 3 5 -2 9 -10 9 -8 0 -17
-4 -20 -9z"/>
<path d="M408 1023 c7 -3 16 -2 19 1 4 3 -2 6 -13 5 -11 0 -14 -3 -6 -6z"/>
<path d="M615 960 c22 -10 47 -19 55 -19 22 -1 -31 25 -66 32 -24 5 -22 3 11
-13z"/>
<path d="M590 936 c0 -2 11 -6 25 -8 13 -3 22 -1 19 3 -5 9 -44 13 -44 5z"/>
<path d="M289 888 c-3 -22 -1 -34 4 -29 5 5 7 21 5 37 -3 27 -4 26 -9 -8z"/>
<path d="M652 830 c0 -19 2 -27 5 -17 2 9 2 25 0 35 -3 9 -5 1 -5 -18z"/>
<path d="M385 740 c10 -11 22 -20 27 -20 4 0 -1 9 -12 20 -11 11 -23 20 -27
20 -3 0 2 -9 12 -20z"/>
<path d="M435 700 c3 -5 8 -10 11 -10 2 0 4 5 4 10 0 6 -5 10 -11 10 -5 0 -7
-4 -4 -10z"/>
<path d="M588 673 c7 -3 16 -2 19 1 4 3 -2 6 -13 5 -11 0 -14 -3 -6 -6z"/>
<path d="M610 660 c-8 -5 -10 -10 -5 -10 6 0 17 5 25 10 8 5 11 10 5 10 -5 0
-17 -5 -25 -10z"/>
<path d="M730 640 c0 -5 5 -10 11 -10 5 0 7 5 4 10 -3 6 -8 10 -11 10 -2 0 -4
-4 -4 -10z"/>
<path d="M568 633 c7 -3 16 -2 19 1 4 3 -2 6 -13 5 -11 0 -14 -3 -6 -6z"/>
<path d="M1419 1036 c8 -10 9 -16 1 -19 -6 -3 -5 -4 2 -3 19 4 20 23 2 30 -14
5 -15 4 -5 -8z"/>
<path d="M1375 1020 c-3 -6 1 -7 9 -4 18 7 21 14 7 14 -6 0 -13 -4 -16 -10z"/>
<path d="M1178 953 c7 -3 16 -2 19 1 4 3 -2 6 -13 5 -11 0 -14 -3 -6 -6z"/>
<path d="M1120 940 c0 -5 5 -10 11 -10 5 0 7 5 4 10 -3 6 -8 10 -11 10 -2 0
-4 -4 -4 -10z"/>
<path d="M1178 933 c7 -3 16 -2 19 1 4 3 -2 6 -13 5 -11 0 -14 -3 -6 -6z"/>
<path d="M1100 871 c0 -6 5 -13 10 -16 6 -3 10 1 10 9 0 9 -4 16 -10 16 -5 0
-10 -4 -10 -9z"/>
<path d="M1440 836 c0 -2 6 -9 13 -15 10 -8 14 -7 14 4 0 8 -6 15 -14 15 -7 0
-13 -2 -13 -4z"/>
<path d="M1101 804 c0 -11 3 -14 6 -6 3 7 2 16 -1 19 -3 4 -6 -2 -5 -13z"/>
<path d="M1097 750 c8 -29 25 -37 21 -9 -1 12 -8 24 -15 26 -7 3 -9 -3 -6 -17z"/>
<path d="M1361 744 c0 -11 3 -14 6 -6 3 7 2 16 -1 19 -3 4 -6 -2 -5 -13z"/>
<path d="M1390 740 c-9 -6 -10 -10 -3 -10 6 0 15 5 18 10 8 12 4 12 -15 0z"/>
<path d="M1090 689 c0 -5 5 -7 10 -4 6 3 10 8 10 11 0 2 -4 4 -10 4 -5 0 -10
-5 -10 -11z"/>
<path d="M1228 673 c7 -3 16 -2 19 1 4 3 -2 6 -13 5 -11 0 -14 -3 -6 -6z"/>
<path d="M1120 660 c0 -5 5 -10 11 -10 5 0 7 5 4 10 -3 6 -8 10 -11 10 -2 0
-4 -4 -4 -10z"/>
<path d="M1189 656 c10 -12 61 -11 61 1 0 3 -11 3 -25 1 -14 -3 -25 -1 -25 3
0 5 -5 9 -11 9 -8 0 -8 -4 0 -14z"/>
<path d="M1120 620 c0 -5 5 -10 10 -10 6 0 10 5 10 10 0 6 -4 10 -10 10 -5 0
-10 -4 -10 -10z"/>
<path d="M1015 600 c-3 -5 1 -10 10 -10 9 0 13 5 10 10 -3 6 -8 10 -10 10 -2
0 -7 -4 -10 -10z"/>
<path d="M1591 1058 c-1 -23 15 -32 23 -12 3 8 2 13 -3 9 -5 -3 -12 1 -14 7
-4 8 -6 7 -6 -4z"/>
<path d="M1620 969 c0 -5 5 -7 10 -4 6 3 10 8 10 11 0 2 -4 4 -10 4 -5 0 -10
-5 -10 -11z"/>
<path d="M160 978 c0 -19 2 -20 10 -8 13 19 13 30 0 30 -5 0 -10 -10 -10 -22z"/>
<path d="M180 849 c0 -5 5 -7 10 -4 6 3 10 8 10 11 0 2 -4 4 -10 4 -5 0 -10
-5 -10 -11z"/>
<path d="M880 941 c0 -5 9 -7 20 -4 11 3 20 7 20 9 0 2 -9 4 -20 4 -11 0 -20
-4 -20 -9z"/>
<path d="M828 923 c6 -2 18 -2 25 0 6 3 1 5 -13 5 -14 0 -19 -2 -12 -5z"/>
<path d="M938 923 c7 -3 16 -2 19 1 4 3 -2 6 -13 5 -11 0 -14 -3 -6 -6z"/>
<path d="M856 785 c-9 -26 -7 -32 5 -12 6 10 9 21 6 23 -2 3 -7 -2 -11 -11z"/>
<path d="M915 770 c-3 -5 -1 -10 4 -10 6 0 11 5 11 10 0 6 -2 10 -4 10 -3 0
-8 -4 -11 -10z"/>
<path d="M876 738 c3 -4 11 -5 19 -1 21 7 19 12 -4 10 -11 0 -18 -5 -15 -9z"/>
<path d="M1240 1456 c0 -2 9 -6 20 -9 11 -3 18 -1 14 4 -5 9 -34 13 -34 5z"/>
<path d="M518 1443 c7 -3 16 -2 19 1 4 3 -2 6 -13 5 -11 0 -14 -3 -6 -6z"/>
<path d="M320 1391 c0 -10 19 -25 25 -20 1 2 -3 10 -11 17 -8 7 -14 8 -14 3z"/>
<path d="M1440 1389 c0 -5 5 -7 10 -4 6 3 10 8 10 11 0 2 -4 4 -10 4 -5 0 -10
-5 -10 -11z"/>
<path d="M1480 1391 c0 -6 5 -13 10 -16 6 -3 10 1 10 9 0 9 -4 16 -10 16 -5 0
-10 -4 -10 -9z"/>
<path d="M1460 1350 c0 -5 5 -10 10 -10 6 0 10 5 10 10 0 6 -4 10 -10 10 -5 0
-10 -4 -10 -10z"/>
<path d="M1527 1303 c3 -7 6 -13 8 -13 1 0 7 6 13 13 8 10 6 13 -7 13 -11 0
-17 -6 -14 -13z"/>
<path d="M1586 1305 c4 -8 8 -15 10 -15 2 0 4 7 4 15 0 8 -4 15 -10 15 -5 0
-7 -7 -4 -15z"/>
<path d="M240 1299 c0 -5 5 -7 10 -4 6 3 10 8 10 11 0 2 -4 4 -10 4 -5 0 -10
-5 -10 -11z"/>
<path d="M1557 1293 c-4 -3 -7 -11 -7 -17 0 -6 5 -5 12 2 6 6 9 14 7 17 -3 3
-9 2 -12 -2z"/>
<path d="M1590 1246 c0 -2 7 -9 15 -16 9 -7 15 -8 15 -2 0 5 -7 12 -15 16 -8
3 -15 4 -15 2z"/>
<path d="M1640 1210 c0 -13 18 -22 24 -11 3 5 -1 11 -9 15 -8 3 -15 1 -15 -4z"/>
<path d="M1667 1171 c-4 -17 -3 -21 5 -13 5 5 8 16 6 23 -3 8 -7 3 -11 -10z"/>
<path d="M88 1153 c7 -3 16 -2 19 1 4 3 -2 6 -13 5 -11 0 -14 -3 -6 -6z"/>
<path d="M80 1115 c0 -8 2 -15 4 -15 2 0 6 7 10 15 3 8 1 15 -4 15 -6 0 -10
-7 -10 -15z"/>
<path d="M84 827 c3 -10 6 -24 7 -30 0 -7 5 -1 10 12 5 13 7 26 4 29 -3 3 -5
-1 -5 -9 0 -12 -2 -11 -11 1 -9 12 -10 12 -5 -3z"/>
<path d="M1666 774 c-3 -8 -10 -12 -16 -9 -6 4 -7 -1 -3 -11 6 -16 7 -15 20 2
13 17 17 34 9 34 -2 0 -7 -7 -10 -16z"/>
<path d="M1628 723 c7 -3 16 -2 19 1 4 3 -2 6 -13 5 -11 0 -14 -3 -6 -6z"/>
<path d="M1580 680 c-9 -6 -10 -10 -3 -10 6 0 15 5 18 10 8 12 4 12 -15 0z"/>
<path d="M1565 640 c-10 -11 -15 -20 -11 -20 11 0 39 30 34 36 -3 2 -13 -5
-23 -16z"/>
<path d="M247 623 c-10 -9 -9 -23 1 -23 5 0 9 7 9 15 0 17 -1 18 -10 8z"/>
<path d="M1587 623 c-4 -3 -7 -11 -7 -17 0 -6 5 -5 12 2 6 6 9 14 7 17 -3 3
-9 2 -12 -2z"/>
<path d="M1520 616 c0 -2 7 -7 16 -10 8 -3 12 -2 9 4 -6 10 -25 14 -25 6z"/>
<path d="M334 556 c11 -9 27 -16 35 -15 14 0 14 1 1 6 -8 3 -24 10 -35 15 -20
9 -20 9 -1 -6z"/>
<path d="M1395 541 c-3 -5 -1 -12 5 -16 5 -3 10 1 10 9 0 18 -6 21 -15 7z"/>
<path d="M327 529 c7 -7 15 -10 18 -7 3 3 -2 9 -12 12 -14 6 -15 5 -6 -5z"/>
<path d="M380 530 c-8 -5 -10 -10 -5 -10 6 0 17 5 25 10 8 5 11 10 5 10 -5 0
-17 -5 -25 -10z"/>
<path d="M528 483 c7 -3 16 -2 19 1 4 3 -2 6 -13 5 -11 0 -14 -3 -6 -6z"/>
<path d="M1210 480 c-8 -5 -10 -10 -5 -10 6 0 17 5 25 10 8 5 11 10 5 10 -5 0
-17 -5 -25 -10z"/>
<path d="M1270 480 c0 -5 -10 -11 -22 -11 -21 -1 -21 -2 -3 -6 11 -3 23 -10
26 -15 4 -6 7 2 7 16 0 14 -2 26 -4 26 -2 0 -4 -4 -4 -10z"/>
<path d="M550 460 c8 -5 20 -10 25 -10 6 0 3 5 -5 10 -8 5 -19 10 -25 10 -5 0
-3 -5 5 -10z"/>
<path d="M480 449 c0 -5 5 -7 10 -4 6 3 10 8 10 11 0 2 -4 4 -10 4 -5 0 -10
-5 -10 -11z"/>
<path d="M640 450 c0 -5 14 -10 32 -10 36 0 35 4 -4 14 -17 4 -28 2 -28 -4z"/>
<path d="M1116 451 c-3 -4 6 -8 20 -9 13 -1 24 0 24 2 0 7 -40 14 -44 7z"/>
</g>
</svg>
