<?xml version="1.0" standalone="no"?>
<!DOCTYPE svg PUBLIC "-//W3C//DTD SVG 20010904//EN"
 "http://www.w3.org/TR/2001/REC-SVG-20010904/DTD/svg10.dtd">
<svg version="1.0" xmlns="http://www.w3.org/2000/svg"
 width="100.000000pt" height="61.000000pt" viewBox="0 0 100.000000 61.000000"
 preserveAspectRatio="xMidYMid meet">
<metadata>
Created by potrace 1.16, written by Peter Selinger 2001-2019
</metadata>
<g transform="translate(0.000000,61.000000) scale(0.100000,-0.100000)"
fill="#000000" stroke="none">
<path d="M157 602 c-92 -2 -117 -6 -117 -16 0 -8 -3 -21 -6 -30 -5 -14 10 -16
125 -16 118 0 131 2 130 18 -2 45 -8 47 -132 44z m2 -30 c41 -2 77 1 80 6 4 6
11 4 19 -5 12 -12 0 -14 -91 -12 -88 1 -105 4 -100 16 3 8 9 11 12 6 3 -4 39
-9 80 -11z"/>
<path d="M320 570 l0 -30 128 0 127 1 -33 29 c-31 29 -36 30 -127 30 l-95 0 0
-30z m185 1 c1 -3 -36 -6 -83 -7 -58 0 -75 2 -52 7 41 8 130 8 135 0z"/>
<path d="M610 570 l0 -30 75 0 c41 0 75 3 75 8 0 4 -3 17 -6 30 -6 20 -12 22
-75 22 l-69 0 0 -30z m98 -7 c-16 -2 -40 -2 -55 0 -16 2 -3 4 27 4 30 0 43 -2
28 -4z"/>
<path d="M850 570 l0 -30 73 0 74 0 0 30 0 30 -74 0 -73 0 0 -30z m108 -7
c-15 -2 -42 -2 -60 0 -18 2 -6 4 27 4 33 0 48 -2 33 -4z"/>
<path d="M790 560 c0 -6 7 -10 15 -10 8 0 15 2 15 4 0 2 -7 6 -15 10 -8 3 -15
1 -15 -4z"/>
<path d="M20 491 c0 -11 -3 -26 -6 -35 -5 -12 0 -16 22 -16 22 0 33 8 47 31
20 35 43 34 39 -3 -2 -23 1 -25 38 -25 37 0 40 2 40 28 0 37 14 37 42 -1 28
-38 74 -43 64 -7 -3 12 -6 28 -6 35 0 9 -35 12 -140 12 -131 0 -140 -1 -140
-19z m160 -21 c0 -5 -7 -7 -15 -4 -8 4 -15 8 -15 10 0 2 7 4 15 4 8 0 15 -4
15 -10z"/>
<path d="M350 475 c0 -34 1 -35 41 -35 39 0 41 1 36 26 -3 16 0 28 9 31 26 10
65 -7 74 -32 8 -21 16 -25 51 -25 38 0 41 2 35 23 -3 12 -6 28 -6 35 0 9 -31
12 -120 12 l-120 0 0 -35z m57 -1 c-3 -3 -12 -4 -19 -1 -8 3 -5 6 6 6 11 1 17
-2 13 -5z m150 0 c-3 -3 -12 -4 -19 -1 -8 3 -5 6 6 6 11 1 17 -2 13 -5z"/>
<path d="M644 494 c3 -9 6 -24 6 -34 0 -17 7 -19 60 -17 33 1 60 5 60 10 0 4
0 18 0 32 0 24 -2 25 -66 25 -56 0 -65 -2 -60 -16z m66 -24 c0 -5 -2 -10 -4
-10 -3 0 -8 5 -11 10 -3 6 -1 10 4 10 6 0 11 -4 11 -10z"/>
<path d="M840 491 c0 -11 -3 -26 -6 -34 -4 -13 6 -15 59 -15 l65 1 4 33 4 34
-63 0 c-55 0 -63 -2 -63 -19z m55 -10 c3 -5 1 -12 -5 -16 -5 -3 -10 1 -10 9 0
18 6 21 15 7z m42 -7 c-3 -3 -12 -4 -19 -1 -8 3 -5 6 6 6 11 1 17 -2 13 -5z"/>
<path d="M790 479 c0 -5 5 -7 10 -4 6 3 10 8 10 11 0 2 -4 4 -10 4 -5 0 -10
-5 -10 -11z"/>
<path d="M465 440 c3 -5 14 -10 23 -10 15 0 15 2 2 10 -20 13 -33 13 -25 0z"/>
<path d="M293 412 c-13 -2 -23 -10 -23 -18 0 -18 11 -18 36 0 22 17 18 23 -13
18z"/>
<path d="M744 412 c-27 -3 -30 -6 -26 -28 4 -20 10 -24 38 -24 32 0 34 2 28
28 -4 15 -7 27 -8 27 -1 0 -15 -1 -32 -3z"/>
<path d="M923 413 c-27 -4 -33 -9 -33 -29 0 -21 5 -24 35 -24 32 0 35 2 35 30
0 17 -1 29 -2 28 -2 0 -18 -3 -35 -5z"/>
<path d="M20 390 c18 -13 27 -15 32 -7 14 21 8 27 -24 27 l-33 0 25 -20z"/>
<path d="M120 385 c0 -22 4 -25 40 -25 36 0 40 3 40 25 0 23 -4 25 -40 25 -36
0 -40 -2 -40 -25z"/>
<path d="M350 385 c0 -22 4 -25 40 -25 36 0 40 3 40 25 0 23 -4 25 -40 25 -36
0 -40 -2 -40 -25z"/>
<path d="M528 385 c4 -22 10 -25 43 -25 35 0 39 3 39 25 0 23 -4 25 -44 25
-41 0 -43 -1 -38 -25z"/>
<path d="M650 385 c0 -20 5 -25 25 -25 20 0 25 5 25 25 0 20 -5 25 -25 25 -20
0 -25 -5 -25 -25z"/>
<path d="M822 385 c-1 -20 3 -25 22 -25 17 0 25 7 28 25 5 22 2 25 -21 25 -21
0 -27 -5 -29 -25z"/>
<path d="M450 389 c0 -5 5 -7 10 -4 6 3 10 8 10 11 0 2 -4 4 -10 4 -5 0 -10
-5 -10 -11z"/>
<path d="M471 367 c-8 -10 -7 -14 4 -14 8 0 15 6 15 14 0 7 -2 13 -4 13 -2 0
-9 -6 -15 -13z"/>
<path d="M87 349 c4 -13 8 -18 11 -10 2 7 -1 18 -6 23 -8 8 -9 4 -5 -13z"/>
<path d="M991 354 c0 -11 3 -14 6 -6 3 7 2 16 -1 19 -3 4 -6 -2 -5 -13z"/>
<path d="M453 325 c-3 -9 -3 -18 -1 -21 3 -3 8 4 11 16 6 23 -1 27 -10 5z"/>
<path d="M487 318 c4 -19 3 -20 -6 -8 -9 13 -11 13 -11 -1 0 -17 28 -34 38
-24 3 3 1 5 -5 5 -6 0 -9 8 -6 19 3 10 0 22 -5 25 -6 4 -8 -3 -5 -16z"/>
<path d="M120 305 c0 -22 4 -25 40 -25 36 0 40 3 40 25 0 23 -4 25 -40 25 -36
0 -40 -2 -40 -25z"/>
<path d="M350 305 c0 -22 4 -25 40 -25 36 0 40 3 40 25 0 23 -4 25 -40 25 -36
0 -40 -2 -40 -25z"/>
<path d="M534 305 c1 -22 6 -25 37 -25 31 0 37 4 41 25 5 23 3 25 -37 25 -39
0 -43 -2 -41 -25z"/>
<path d="M650 305 c0 -20 5 -25 25 -25 20 0 25 5 25 25 0 20 -5 25 -25 25 -20
0 -25 -5 -25 -25z"/>
<path d="M724 314 c3 -9 6 -20 6 -25 0 -5 16 -9 36 -9 29 0 35 3 30 16 -3 9
-6 20 -6 25 0 5 -16 9 -36 9 -29 0 -35 -3 -30 -16z"/>
<path d="M820 321 c0 -5 -3 -16 -6 -25 -5 -12 0 -16 19 -16 18 0 26 6 29 25 4
21 1 25 -18 25 -13 0 -24 -4 -24 -9z"/>
<path d="M884 305 c-2 -23 2 -25 37 -25 35 0 39 3 39 25 0 22 -4 25 -37 25
-33 0 -38 -3 -39 -25z"/>
<path d="M268 293 c6 -2 18 -2 25 0 6 3 1 5 -13 5 -14 0 -19 -2 -12 -5z"/>
<path d="M320 281 c0 -6 4 -13 10 -16 6 -3 7 1 4 9 -7 18 -14 21 -14 7z"/>
<path d="M476 255 c-3 -8 -1 -15 4 -15 6 0 10 7 10 15 0 8 -2 15 -4 15 -2 0
-6 -7 -10 -15z"/>
<path d="M120 217 c0 -31 1 -32 40 -32 39 0 40 1 40 32 0 32 -1 33 -40 33 -39
0 -40 -1 -40 -33z"/>
<path d="M352 218 c3 -29 6 -32 38 -32 32 0 35 3 38 32 3 31 2 32 -38 32 -40
0 -41 -1 -38 -32z m45 -4 c-3 -3 -12 -4 -19 -1 -8 3 -5 6 6 6 11 1 17 -2 13
-5z"/>
<path d="M530 225 c0 -14 0 -28 0 -32 0 -5 17 -8 38 -8 34 0 37 2 40 33 3 31
2 32 -37 32 -37 0 -41 -2 -41 -25z m41 -18 c-10 -9 -11 -8 -5 6 3 10 9 15 12
12 3 -3 0 -11 -7 -18z"/>
<path d="M650 216 c0 -31 3 -35 25 -33 14 1 25 5 25 10 0 4 0 18 0 32 0 20 -5
25 -25 25 -22 0 -25 -4 -25 -34z"/>
<path d="M742 218 c3 -32 4 -33 52 -32 48 1 50 3 54 33 l3 31 -56 0 -56 0 3
-32z m88 2 c0 -5 -5 -10 -11 -10 -5 0 -7 5 -4 10 3 6 8 10 11 10 2 0 4 -4 4
-10z"/>
<path d="M889 245 c-1 -3 -1 -17 -2 -32 -1 -25 2 -27 36 -28 36 -2 37 0 37 32
0 31 -2 33 -35 33 -19 0 -35 -2 -36 -5z"/>
<path d="M470 215 c0 -8 5 -15 11 -15 5 0 8 4 5 9 -4 5 0 12 6 14 8 3 6 6 -4
6 -10 1 -18 -6 -18 -14z"/>
<path d="M85 210 c-3 -5 -1 -10 4 -10 6 0 11 5 11 10 0 6 -2 10 -4 10 -3 0 -8
-4 -11 -10z"/>
<path d="M464 170 c0 -9 5 -17 11 -17 6 0 11 8 11 17 0 9 -5 17 -11 17 -6 0
-11 -8 -11 -17z"/>
<path d="M85 160 c-3 -5 -1 -10 4 -10 6 0 11 5 11 10 0 6 -2 10 -4 10 -3 0 -8
-4 -11 -10z"/>
<path d="M225 160 c-3 -5 -1 -10 4 -10 6 0 11 5 11 10 0 6 -2 10 -4 10 -3 0
-8 -4 -11 -10z"/>
<path d="M124 151 c-2 -2 -4 -15 -4 -28 0 -16 -6 -23 -20 -23 -11 0 -20 -3
-20 -7 0 -5 36 -8 79 -8 44 0 77 3 74 8 -2 4 -11 7 -19 7 -9 0 -14 10 -14 28
0 24 -3 27 -36 27 -20 0 -38 -2 -40 -4z m56 -25 c0 -3 -4 -8 -10 -11 -5 -3
-10 -1 -10 4 0 6 5 11 10 11 6 0 10 -2 10 -4z"/>
<path d="M355 150 c-7 -12 -9 -59 -2 -60 4 0 56 0 116 0 105 0 109 1 114 23 4
12 5 26 4 32 -4 16 -70 4 -86 -16 -9 -11 -29 -21 -46 -22 -25 -2 -29 2 -30 22
0 20 -5 24 -33 25 -19 1 -35 -1 -37 -4z m209 -32 c-3 -4 -15 -8 -27 -8 -15 0
-18 3 -9 8 17 11 43 11 36 0z"/>
<path d="M648 123 c-4 -29 -1 -32 30 -35 33 -4 51 5 32 17 -5 3 -10 16 -10 28
0 17 -6 22 -24 22 -20 0 -25 -6 -28 -32z"/>
<path d="M753 147 c-3 -5 -2 -19 1 -33 5 -20 13 -24 41 -24 21 0 35 5 35 13 0
6 3 21 6 33 5 18 1 20 -36 20 -23 -1 -44 -5 -47 -9z m52 -27 c3 -5 -1 -10 -10
-10 -9 0 -13 5 -10 10 3 6 8 10 10 10 2 0 7 -4 10 -10z"/>
<path d="M920 150 c-29 -4 -35 -9 -37 -32 -1 -24 2 -26 44 -30 24 -2 47 0 49
4 3 5 1 8 -5 8 -5 0 -11 12 -13 28 -3 25 -6 27 -38 22z m20 -30 c0 -5 -4 -10
-10 -10 -5 0 -10 5 -10 10 0 6 5 10 10 10 6 0 10 -4 10 -10z"/>
<path d="M89 56 c0 0 -2 -11 -3 -24 -3 -21 0 -22 76 -22 76 0 78 1 78 24 0 23
-3 24 -75 24 -41 -1 -75 -1 -76 -2z"/>
<path d="M320 29 l0 -26 84 3 c60 1 94 7 115 20 17 10 31 21 31 24 0 4 -52 6
-115 6 l-115 0 0 -27z m128 -6 c-10 -2 -28 -2 -40 0 -13 2 -5 4 17 4 22 1 32
-1 23 -4z"/>
<path d="M610 30 c0 -24 2 -25 65 -25 64 0 65 0 65 27 0 26 -1 26 -65 25 -63
-1 -65 -2 -65 -27z m88 -7 c-10 -2 -28 -2 -40 0 -13 2 -5 4 17 4 22 1 32 -1
23 -4z"/>
<path d="M768 55 c-3 -3 -3 -17 0 -31 7 -36 46 -30 50 9 3 23 0 27 -21 27 -13
0 -26 -2 -29 -5z"/>
<path d="M850 31 c0 -26 1 -26 70 -26 47 0 70 4 70 12 0 6 2 18 5 25 4 11 -10
14 -70 15 -75 1 -75 1 -75 -26z m93 -8 c-13 -2 -33 -2 -45 0 -13 2 -3 4 22 4
25 0 35 -2 23 -4z"/>
</g>
</svg>
