<?xml version="1.0" standalone="no"?>
<!DOCTYPE svg PUBLIC "-//W3C//DTD SVG 20010904//EN"
 "http://www.w3.org/TR/2001/REC-SVG-20010904/DTD/svg10.dtd">
<svg version="1.0" xmlns="http://www.w3.org/2000/svg"
 width="180.000000pt" height="180.000000pt" viewBox="0 0 180.000000 180.000000"
 preserveAspectRatio="xMidYMid meet">
<metadata>
Created by potrace 1.16, written by Peter Selinger 2001-2019
</metadata>
<g transform="translate(0.000000,180.000000) scale(0.100000,-0.100000)"
fill="#000000" stroke="none">
<path d="M845 1411 c-69 -32 -105 -86 -105 -157 0 -32 2 -34 33 -34 29 0 34 5
55 49 14 31 35 57 56 70 32 20 47 21 405 21 405 0 409 0 449 -57 10 -16 23
-41 29 -57 14 -46 33 -45 26 1 -8 55 -39 101 -84 123 -36 19 -60 20 -421 20
-373 0 -384 -1 -418 -21 -40 -24 -60 -50 -76 -93 -13 -36 -34 -46 -34 -16 0
12 4 19 9 16 5 -4 7 2 4 12 -6 26 42 81 92 103 37 17 73 19 428 19 419 0 410
1 474 -54 13 -11 26 -16 30 -12 12 12 -11 39 -53 63 -39 22 -42 22 -449 22
-378 1 -413 -1 -450 -18z"/>
<path d="M0 1270 c0 -6 110 -10 310 -10 l310 0 0 -75 0 -75 -110 0 -110 0 0
-285 0 -285 -105 0 -105 0 0 285 0 285 -95 0 c-57 0 -95 -4 -95 -10 0 -6 35
-10 85 -10 l85 0 0 -285 0 -285 125 0 125 0 0 285 0 285 110 0 110 0 0 95 0
95 -320 0 c-207 0 -320 -4 -320 -10z"/>
<path d="M288 1242 c-181 -1 -288 -6 -288 -12 0 -6 103 -10 280 -10 l280 0 0
-35 0 -35 -86 0 c-135 0 -124 26 -124 -300 l0 -280 -49 0 -50 0 -3 280 c-3
236 -5 282 -18 290 -20 13 -230 13 -230 0 0 -6 36 -10 88 -10 48 0 97 -3 110
-6 l22 -6 0 -278 0 -278 76 -4 c49 -2 78 1 81 8 2 6 3 133 1 282 l-3 271 24 6
c13 3 63 5 110 4 l86 -2 0 58 c0 32 -4 59 -10 59 -5 1 -139 0 -297 -2z"/>
<path d="M887 1204 c-4 -4 -7 -144 -7 -310 0 -290 1 -304 19 -314 25 -13 426
-13 568 0 111 10 147 23 186 69 34 41 47 109 47 246 0 138 -13 205 -48 247
-51 61 -64 62 -427 66 -182 2 -334 0 -338 -4z m697 -50 c70 -36 81 -73 81
-259 0 -143 -2 -164 -21 -200 -12 -22 -35 -48 -53 -59 -42 -24 -178 -35 -458
-36 l-223 0 0 291 0 290 318 -3 c298 -3 319 -4 356 -24z"/>
<path d="M1080 894 l0 -146 190 4 c228 4 221 0 228 116 6 102 -8 147 -50 161
-17 6 -105 11 -199 11 l-169 0 0 -146z m372 98 c8 -8 14 -45 16 -91 4 -70 2
-81 -17 -100 -20 -20 -32 -21 -181 -21 l-160 0 0 116 0 115 165 -3 c117 -2
168 -7 177 -16z"/>
<path d="M204 835 c0 -154 2 -216 3 -137 2 79 2 205 0 280 -1 75 -3 11 -3
-143z"/>
<path d="M1770 543 c-20 -55 -36 -76 -72 -101 -26 -17 -38 -32 -38 -48 0 -22
4 -24 48 -24 38 0 53 5 70 23 12 13 22 32 22 42 0 16 -6 13 -34 -14 -25 -24
-41 -32 -62 -29 l-29 3 40 21 c45 23 70 61 78 117 7 43 -9 50 -23 10z"/>
<path d="M743 504 c5 -50 11 -61 47 -95 35 -33 48 -39 86 -39 40 0 44 2 44 24
0 16 -12 31 -35 47 -21 14 -45 43 -58 72 -20 43 -25 47 -56 47 l-34 0 6 -56z
m42 3 c-1 -14 2 -25 5 -24 3 1 21 -15 39 -35 18 -21 39 -38 46 -38 8 0 17 -4
20 -10 3 -6 -5 -10 -19 -10 -37 0 -103 67 -112 114 -5 31 -4 38 7 34 8 -3 14
-17 14 -31z"/>
<path d="M800 446 c0 -2 8 -10 18 -17 15 -13 16 -12 3 4 -13 16 -21 21 -21 13z"/>
</g>
</svg>
