<?xml version="1.0" standalone="no"?>
<!DOCTYPE svg PUBLIC "-//W3C//DTD SVG 20010904//EN"
 "http://www.w3.org/TR/2001/REC-SVG-20010904/DTD/svg10.dtd">
<svg version="1.0" xmlns="http://www.w3.org/2000/svg"
 width="100.000000pt" height="100.000000pt" viewBox="0 0 100.000000 100.000000"
 preserveAspectRatio="xMidYMid meet">
<metadata>
Created by potrace 1.16, written by Peter Selinger 2001-2019
</metadata>
<g transform="translate(0.000000,100.000000) scale(0.100000,-0.100000)"
fill="#000000" stroke="none">
<path d="M60 985 c0 -8 4 -15 10 -15 5 0 7 7 4 15 -4 8 -8 15 -10 15 -2 0 -4
-7 -4 -15z"/>
<path d="M110 989 c0 -5 -4 -7 -10 -4 -5 3 -10 1 -10 -4 0 -6 6 -11 14 -11 9
0 16 -13 19 -32 3 -25 4 -22 5 15 1 26 -2 47 -8 47 -5 0 -10 -5 -10 -11z"/>
<path d="M190 970 c0 -20 5 -30 15 -30 8 0 15 5 15 10 0 6 -5 10 -12 10 -9 0
-9 3 0 12 16 16 15 28 -3 28 -10 0 -15 -10 -15 -30z"/>
<path d="M440 970 c0 -20 5 -30 15 -30 10 0 15 10 15 30 0 20 -5 30 -15 30
-10 0 -15 -10 -15 -30z"/>
<path d="M530 970 c0 -20 5 -30 15 -30 10 0 15 10 15 30 0 20 -5 30 -15 30
-10 0 -15 -10 -15 -30z"/>
<path d="M780 992 c0 -4 5 -13 12 -20 9 -9 9 -12 0 -12 -7 0 -12 -4 -12 -10 0
-5 7 -10 15 -10 10 0 15 10 15 30 0 20 -5 30 -15 30 -8 0 -15 -4 -15 -8z"/>
<path d="M872 953 c1 -37 2 -40 5 -15 3 19 10 32 19 32 8 0 14 5 14 11 0 5 -4
7 -10 4 -5 -3 -10 -1 -10 4 0 6 -4 11 -10 11 -5 0 -9 -21 -8 -47z"/>
<path d="M926 985 c-3 -8 -1 -15 4 -15 6 0 10 7 10 15 0 8 -2 15 -4 15 -2 0
-6 -7 -10 -15z"/>
<path d="M0 955 c0 -8 7 -15 15 -15 8 0 15 7 15 15 0 8 -7 15 -15 15 -8 0 -15
-7 -15 -15z"/>
<path d="M340 955 c0 -8 7 -15 15 -15 8 0 15 7 15 15 0 8 -7 15 -15 15 -8 0
-15 -7 -15 -15z"/>
<path d="M620 955 c0 -8 9 -15 20 -15 11 0 20 7 20 15 0 8 -9 15 -20 15 -11 0
-20 -7 -20 -15z"/>
<path d="M970 955 c0 -8 7 -15 15 -15 8 0 15 7 15 15 0 8 -7 15 -15 15 -8 0
-15 -7 -15 -15z"/>
<path d="M90 930 c0 -11 4 -20 9 -20 5 0 7 9 4 20 -3 11 -7 20 -9 20 -2 0 -4
-9 -4 -20z"/>
<path d="M897 930 c-3 -11 -1 -20 4 -20 5 0 9 9 9 20 0 11 -2 20 -4 20 -2 0
-6 -9 -9 -20z"/>
<path d="M151 924 c0 -11 3 -14 6 -6 3 7 2 16 -1 19 -3 4 -6 -2 -5 -13z"/>
<path d="M841 924 c0 -11 3 -14 6 -6 3 7 2 16 -1 19 -3 4 -6 -2 -5 -13z"/>
<path d="M60 899 c0 -5 5 -7 10 -4 6 3 10 8 10 11 0 2 -4 4 -10 4 -5 0 -10 -5
-10 -11z"/>
<path d="M925 900 c3 -5 8 -10 11 -10 2 0 4 5 4 10 0 6 -5 10 -11 10 -5 0 -7
-4 -4 -10z"/>
<path d="M115 880 c-3 -5 -1 -10 4 -10 6 0 11 5 11 10 0 6 -2 10 -4 10 -3 0
-8 -4 -11 -10z"/>
<path d="M340 880 c0 -6 7 -10 15 -10 8 0 15 2 15 4 0 2 -7 6 -15 10 -8 3 -15
1 -15 -4z"/>
<path d="M635 880 c-19 -8 -19 -9 3 -9 12 -1 22 4 22 9 0 6 -1 10 -2 9 -2 0
-12 -4 -23 -9z"/>
<path d="M870 880 c0 -5 5 -10 11 -10 5 0 7 5 4 10 -3 6 -8 10 -11 10 -2 0 -4
-4 -4 -10z"/>
<path d="M30 855 c0 -8 7 -15 15 -15 8 0 15 7 15 15 0 8 -7 15 -15 15 -8 0
-15 -7 -15 -15z"/>
<path d="M161 854 c0 -11 3 -14 6 -6 3 7 2 16 -1 19 -3 4 -6 -2 -5 -13z"/>
<path d="M190 855 c0 -10 10 -15 30 -15 20 0 30 5 30 15 0 10 -10 15 -30 15
-20 0 -30 -5 -30 -15z"/>
<path d="M483 863 c9 -2 25 -2 35 0 9 3 1 5 -18 5 -19 0 -27 -2 -17 -5z"/>
<path d="M750 855 c0 -10 10 -15 30 -15 20 0 30 5 30 15 0 10 -10 15 -30 15
-20 0 -30 -5 -30 -15z"/>
<path d="M831 854 c0 -11 3 -14 6 -6 3 7 2 16 -1 19 -3 4 -6 -2 -5 -13z"/>
<path d="M940 855 c0 -8 7 -15 15 -15 8 0 15 7 15 15 0 8 -7 15 -15 15 -8 0
-15 -7 -15 -15z"/>
<path d="M293 833 c9 -2 23 -2 30 0 6 3 -1 5 -18 5 -16 0 -22 -2 -12 -5z"/>
<path d="M340 831 c0 -12 37 -21 88 -21 40 0 42 -1 42 -30 0 -27 3 -30 30 -30
27 0 30 3 30 30 0 27 3 30 34 30 47 0 96 11 96 21 0 5 -72 9 -160 9 -88 0
-160 -4 -160 -9z m180 -36 c0 -8 -9 -15 -20 -15 -11 0 -20 7 -20 15 0 8 9 15
20 15 11 0 20 -7 20 -15z"/>
<path d="M683 833 c9 -2 23 -2 30 0 6 3 -1 5 -18 5 -16 0 -22 -2 -12 -5z"/>
<path d="M0 798 c0 -13 8 -18 30 -18 20 0 30 5 30 15 0 13 -3 13 -20 3 -17
-11 -22 -10 -30 2 -8 13 -10 12 -10 -2z"/>
<path d="M250 800 c0 -5 7 -7 15 -4 8 4 15 1 15 -5 0 -6 -13 -11 -30 -11 -16
0 -30 -5 -30 -11 0 -6 7 -9 15 -5 8 3 15 1 15 -4 0 -6 -13 -10 -30 -10 -20 0
-30 -5 -30 -15 0 -8 -7 -15 -15 -15 -12 0 -15 -16 -16 -77 -1 -56 -3 -68 -8
-43 -4 19 -6 47 -5 63 0 15 -3 27 -8 27 -4 0 -8 -36 -8 -80 0 -45 4 -80 10
-80 5 0 7 7 4 15 -4 8 -1 15 5 15 6 0 11 -13 11 -30 0 -20 5 -30 15 -30 8 0
15 -7 15 -15 0 -8 7 -15 15 -15 8 0 15 -7 15 -15 0 -10 10 -15 30 -15 17 0 30
5 30 11 0 6 7 9 15 5 8 -3 15 -1 15 4 0 6 -13 10 -30 10 -20 0 -30 5 -30 15 0
8 -7 15 -15 15 -10 0 -15 10 -15 30 0 17 -5 30 -11 30 -6 0 -9 -7 -5 -15 3 -8
1 -15 -4 -15 -6 0 -10 33 -10 74 0 41 -2 80 -3 88 -2 7 -2 10 0 6 3 -5 16 -8
31 -8 25 0 25 1 6 15 -19 14 -18 14 4 15 18 0 22 -5 22 -30 0 -27 3 -30 30
-30 17 0 30 -5 30 -11 0 -6 -7 -9 -15 -5 -8 3 -15 1 -15 -4 0 -6 29 -10 65
-10 l65 0 0 -80 c0 -52 4 -80 11 -80 6 0 9 7 5 15 -3 8 -2 15 3 15 5 0 9 6 8
13 0 6 1 27 1 45 l2 32 60 0 60 0 1 -32 c1 -18 1 -39 0 -45 -1 -7 3 -13 10
-13 6 0 9 -6 6 -12 -7 -19 10 -58 25 -57 10 0 10 2 1 6 -9 3 -13 33 -13 99 l0
94 65 0 c36 0 65 4 65 10 0 5 -7 7 -15 4 -8 -4 -15 -1 -15 5 0 6 14 11 30 11
20 0 30 5 30 15 0 10 10 15 29 15 16 0 31 3 34 8 2 4 2 1 0 -6 -1 -8 -3 -47
-3 -88 0 -41 -4 -74 -10 -74 -5 0 -7 7 -4 15 4 8 1 15 -5 15 -6 0 -11 -13 -11
-30 0 -20 -5 -30 -15 -30 -8 0 -15 -7 -15 -15 0 -8 -7 -15 -15 -15 -8 0 -15
-7 -15 -15 0 -11 12 -15 45 -15 25 0 45 4 45 10 0 5 -7 7 -15 4 -8 -4 -15 -1
-15 5 0 6 7 11 15 11 8 0 15 7 15 15 0 8 7 15 15 15 10 0 15 10 15 30 0 17 5
30 11 30 6 0 9 -7 5 -15 -3 -8 -1 -15 4 -15 6 0 10 35 10 80 0 92 -14 109 -18
23 -5 -85 -12 -78 -12 10 0 62 -3 77 -15 77 -8 0 -15 7 -15 15 0 10 -10 15
-30 15 -16 0 -30 4 -30 10 0 5 7 7 15 4 8 -4 15 -1 15 5 0 6 -13 11 -30 11
-16 0 -30 5 -30 11 0 6 7 9 15 5 8 -3 15 -1 15 4 0 6 -29 10 -65 10 -41 0 -65
-4 -65 -11 0 -6 -7 -9 -15 -5 -8 3 -15 1 -15 -4 0 -6 23 -10 50 -10 l50 0 0
-45 0 -45 -65 0 c-59 0 -84 -11 -52 -23 6 -3 -26 -5 -73 -5 -47 0 -79 2 -72 5
31 12 6 23 -53 23 l-65 0 0 45 0 45 50 0 c29 0 50 5 50 11 0 6 -9 8 -20 4 -11
-4 -20 -2 -20 4 0 7 -24 11 -60 11 -33 0 -60 -4 -60 -10z m47 -80 c-1 -16 -7
-32 -12 -34 -7 -2 -9 9 -7 30 5 42 22 45 19 4z m425 -4 c2 -21 0 -32 -7 -30
-12 5 -18 64 -6 64 5 0 11 -15 13 -34z m62 -7 c-8 -14 -31 -11 -37 4 -4 10 2
13 19 9 13 -2 21 -8 18 -13z m-374 -40 c0 -5 -9 -9 -20 -9 -11 0 -20 4 -20 8
0 4 9 8 20 9 11 1 20 -2 20 -8z m210 1 c0 -5 -7 -10 -15 -10 -8 0 -15 5 -15
10 0 6 7 10 15 10 8 0 15 -4 15 -10z m-265 -10 c-3 -5 -11 -10 -16 -10 -6 0
-7 5 -4 10 3 6 11 10 16 10 6 0 7 -4 4 -10z m310 0 c3 -5 2 -10 -4 -10 -5 0
-13 5 -16 10 -3 6 -2 10 4 10 5 0 13 -4 16 -10z m-100 -42 c-4 -9 -26 -13 -65
-13 -39 0 -61 4 -65 13 -3 9 14 12 65 12 51 0 68 -3 65 -12z"/>
<path d="M940 795 c0 -10 10 -15 30 -15 22 0 30 5 30 18 0 14 -2 15 -10 2 -8
-12 -13 -13 -30 -2 -17 10 -20 10 -20 -3z"/>
<path d="M440 743 c0 -35 5 -55 17 -64 15 -13 16 -9 11 39 -7 74 -28 93 -28
25z"/>
<path d="M542 767 c-6 -16 -12 -45 -12 -65 0 -33 1 -35 16 -21 11 11 14 30 12
65 -3 48 -4 49 -16 21z"/>
<path d="M190 769 c0 -5 5 -7 10 -4 6 3 10 8 10 11 0 2 -4 4 -10 4 -5 0 -10
-5 -10 -11z"/>
<path d="M795 770 c3 -5 8 -10 11 -10 2 0 4 5 4 10 0 6 -5 10 -11 10 -5 0 -7
-4 -4 -10z"/>
<path d="M60 735 c0 -8 -7 -15 -15 -15 -10 0 -15 -10 -15 -30 0 -20 5 -30 15
-30 10 0 15 10 15 30 0 20 5 30 15 30 8 0 15 7 15 15 0 8 -7 15 -15 15 -8 0
-15 -7 -15 -15z"/>
<path d="M370 735 c0 -8 -5 -15 -12 -15 -6 0 -9 -2 -6 -5 3 -3 13 -3 22 1 17
7 22 34 6 34 -5 0 -10 -7 -10 -15z"/>
<path d="M410 724 c0 -14 4 -23 9 -20 5 3 7 15 4 26 -7 28 -13 25 -13 -6z"/>
<path d="M577 730 c-3 -11 -1 -23 4 -26 5 -3 9 6 9 20 0 31 -6 34 -13 6z"/>
<path d="M614 730 c1 -8 10 -16 21 -17 15 -1 15 0 3 3 -9 3 -19 11 -21 17 -2
7 -3 5 -3 -3z"/>
<path d="M910 735 c0 -8 7 -15 15 -15 10 0 15 -10 15 -30 0 -20 5 -30 15 -30
10 0 15 10 15 30 0 20 -5 30 -15 30 -8 0 -15 7 -15 15 0 8 -7 15 -15 15 -8 0
-15 -7 -15 -15z"/>
<path d="M991 674 c0 -11 3 -14 6 -6 3 7 2 16 -1 19 -3 4 -6 -2 -5 -13z"/>
<path d="M205 670 c-3 -5 -1 -10 4 -10 6 0 11 5 11 10 0 6 -2 10 -4 10 -3 0
-8 -4 -11 -10z"/>
<path d="M780 670 c0 -5 5 -10 11 -10 5 0 7 5 4 10 -3 6 -8 10 -11 10 -2 0 -4
-4 -4 -10z"/>
<path d="M90 645 c0 -8 -7 -15 -15 -15 -10 0 -15 -11 -15 -35 0 -24 5 -35 15
-35 18 0 20 16 3 23 -10 4 -10 6 0 6 6 1 12 10 12 21 0 11 5 20 10 20 6 0 10
7 10 15 0 8 -4 15 -10 15 -5 0 -10 -7 -10 -15z"/>
<path d="M890 645 c0 -8 5 -15 10 -15 6 0 10 7 10 15 0 8 -4 15 -10 15 -5 0
-10 -7 -10 -15z"/>
<path d="M238 633 c-10 -2 -18 -11 -18 -18 0 -7 -2 -19 -3 -27 -2 -7 -2 -10 0
-5 8 14 33 7 33 -9 0 -10 6 -14 15 -10 10 3 15 -1 15 -13 0 -11 -4 -21 -9 -23
-4 -1 -5 -12 0 -23 7 -19 8 -19 8 3 1 13 7 22 16 22 10 0 15 10 15 30 0 26 4
30 27 30 29 0 24 12 -7 17 -11 2 -20 -2 -20 -7 0 -6 -13 -10 -30 -10 -23 0
-30 5 -30 19 0 11 6 22 13 24 15 7 -2 6 -25 0z"/>
<path d="M738 634 c6 -3 12 -14 12 -25 0 -14 -7 -19 -30 -19 -16 0 -30 4 -30
9 0 11 -49 11 -56 0 -3 -5 9 -9 25 -9 28 0 31 -3 31 -30 0 -20 5 -30 15 -30 9
0 15 -10 16 -22 1 -16 3 -18 6 -6 2 9 12 19 21 21 12 3 10 5 -5 6 -16 1 -23 7
-23 21 0 13 5 18 15 14 9 -4 15 0 15 10 0 19 26 22 34 4 3 -7 3 1 -1 17 -7 36
-3 31 -33 39 -14 3 -19 3 -12 0z"/>
<path d="M3 610 c2 -26 27 -26 27 0 0 11 -6 20 -14 20 -9 0 -14 -9 -13 -20z"/>
<path d="M920 620 c0 -5 5 -10 10 -10 6 0 10 5 10 10 0 6 -4 10 -10 10 -5 0
-10 -4 -10 -10z"/>
<path d="M970 614 c0 -14 3 -14 15 -4 8 7 15 14 15 16 0 2 -7 4 -15 4 -8 0
-15 -7 -15 -16z"/>
<path d="M370 605 c0 -8 7 -15 16 -15 14 0 14 3 4 15 -7 8 -14 15 -16 15 -2 0
-4 -7 -4 -15z"/>
<path d="M606 611 c-4 -7 -5 -15 -2 -18 9 -9 19 4 14 18 -4 11 -6 11 -12 0z"/>
<path d="M910 575 c0 -8 7 -15 15 -15 8 0 15 7 15 15 0 8 -7 15 -15 15 -8 0
-15 -7 -15 -15z"/>
<path d="M970 575 c0 -8 7 -15 15 -15 8 0 15 7 15 15 0 8 -7 15 -15 15 -8 0
-15 -7 -15 -15z"/>
<path d="M5 570 c-3 -5 1 -10 9 -10 9 0 16 5 16 10 0 6 -4 10 -9 10 -6 0 -13
-4 -16 -10z"/>
<path d="M456 560 c-10 -29 -13 -48 -15 -107 l-1 -43 -42 0 c-51 0 -88 -9 -88
-21 0 -5 93 -8 208 -7 114 0 192 3 175 5 -18 2 -33 8 -33 14 0 5 -22 9 -50 9
l-50 0 -1 43 c-2 64 -7 95 -18 114 -8 14 -10 5 -11 -39 0 -57 0 -58 -30 -58
-28 0 -29 1 -32 58 -2 47 -5 53 -12 32z m14 -141 c0 -11 -4 -17 -10 -14 -5 3
-10 13 -10 21 0 8 5 14 10 14 6 0 10 -9 10 -21z m80 7 c0 -8 -4 -18 -10 -21
-5 -3 -10 3 -10 14 0 12 5 21 10 21 6 0 10 -6 10 -14z m-40 -12 c0 -8 -4 -12
-10 -9 -5 3 -10 10 -10 16 0 5 5 9 10 9 6 0 10 -7 10 -16z"/>
<path d="M358 563 c-22 -5 -24 -33 -3 -33 8 0 15 6 15 14 0 8 6 17 13 19 15 7
-2 6 -25 0z"/>
<path d="M618 548 c5 -21 42 -25 42 -4 0 7 -11 16 -24 18 -19 4 -22 1 -18 -14z"/>
<path d="M30 515 c0 -8 7 -15 15 -15 8 0 15 -7 15 -15 0 -8 7 -15 15 -15 8 0
15 -7 15 -15 0 -8 9 -15 19 -15 10 0 21 7 25 15 4 11 -1 15 -19 15 -36 0 -33
30 3 31 16 1 20 3 10 6 -10 2 -18 9 -18 14 0 5 -4 9 -10 9 -5 0 -10 -7 -10
-15 0 -8 -7 -15 -15 -15 -8 0 -15 7 -15 15 0 8 -7 15 -15 15 -8 0 -15 -7 -15
-15z"/>
<path d="M890 515 c0 -8 5 -15 10 -15 6 0 10 -7 10 -15 0 -10 10 -15 33 -14
20 1 25 3 13 6 -23 6 -46 27 -46 42 0 6 -4 11 -10 11 -5 0 -10 -7 -10 -15z"/>
<path d="M940 515 c0 -8 7 -15 15 -15 8 0 15 7 15 15 0 8 -7 15 -15 15 -8 0
-15 -7 -15 -15z"/>
<path d="M367 489 c6 -22 23 -26 23 -5 0 8 -6 16 -14 19 -10 4 -12 0 -9 -14z"/>
<path d="M613 495 c-3 -9 -3 -18 -1 -21 3 -3 8 4 11 16 6 23 -1 27 -10 5z"/>
<path d="M310 496 c0 -2 7 -9 15 -16 12 -10 15 -10 15 4 0 9 -7 16 -15 16 -8
0 -15 -2 -15 -4z"/>
<path d="M488 493 c6 -2 18 -2 25 0 6 3 1 5 -13 5 -14 0 -19 -2 -12 -5z"/>
<path d="M660 484 c0 -14 3 -14 15 -4 8 7 15 14 15 16 0 2 -7 4 -15 4 -8 0
-15 -7 -15 -16z"/>
<path d="M160 480 c0 -5 5 -10 11 -10 5 0 7 5 4 10 -3 6 -8 10 -11 10 -2 0 -4
-4 -4 -10z"/>
<path d="M0 455 c0 -8 7 -15 15 -15 8 0 15 -7 15 -15 0 -8 7 -15 15 -15 8 0
15 7 15 15 0 8 -7 15 -15 15 -8 0 -15 7 -15 15 0 8 -7 15 -15 15 -8 0 -15 -7
-15 -15z"/>
<path d="M690 459 c0 -5 5 -7 10 -4 6 3 10 8 10 11 0 2 -4 4 -10 4 -5 0 -10
-5 -10 -11z"/>
<path d="M847 463 c-12 -11 -8 -23 8 -23 8 0 15 7 15 15 0 16 -12 20 -23 8z"/>
<path d="M190 450 c0 -5 5 -10 11 -10 5 0 7 5 4 10 -3 6 -8 10 -11 10 -2 0 -4
-4 -4 -10z"/>
<path d="M410 450 c0 -6 -28 -10 -65 -10 -36 0 -65 -4 -65 -10 0 -5 -7 -7 -15
-4 -8 4 -15 1 -15 -5 0 -25 159 1 168 27 2 7 1 12 -2 12 -3 0 -6 -4 -6 -10z"/>
<path d="M130 425 c0 -8 7 -15 15 -15 8 0 15 7 15 15 0 8 -7 15 -15 15 -8 0
-15 -7 -15 -15z"/>
<path d="M620 429 c0 -6 9 -9 20 -6 11 3 20 1 20 -4 0 -5 20 -9 45 -9 26 0 45
5 45 11 0 6 -7 9 -15 5 -8 -3 -15 -1 -15 4 0 6 -22 10 -50 10 -30 0 -50 -4
-50 -11z"/>
<path d="M910 410 c0 -20 5 -30 15 -30 8 0 15 -9 15 -20 0 -16 -7 -20 -35 -20
-28 0 -35 4 -35 20 0 11 -7 20 -15 20 -8 0 -15 6 -15 14 0 8 -13 15 -33 18
-29 3 -33 1 -29 -14 3 -12 -1 -18 -12 -18 -27 0 -19 -37 10 -44 15 -4 29 -5
32 -1 3 3 -2 5 -11 5 -10 0 -17 8 -17 20 0 16 7 20 30 20 23 0 30 -4 30 -20 0
-14 9 -21 34 -26 51 -9 96 3 96 27 0 10 7 19 15 19 8 0 15 7 15 15 0 8 -7 15
-15 15 -8 0 -15 -7 -15 -15 0 -8 -7 -15 -15 -15 -10 0 -15 10 -15 30 0 20 -5
30 -15 30 -10 0 -15 -10 -15 -30z"/>
<path d="M138 383 c7 -3 16 -2 19 1 4 3 -2 6 -13 5 -11 0 -14 -3 -6 -6z"/>
<path d="M268 383 c-10 -2 -18 -13 -18 -23 0 -20 34 -32 68 -23 25 6 30 23 7
23 -8 0 -15 -4 -15 -10 0 -5 -7 -10 -16 -10 -12 0 -15 7 -12 25 3 14 5 24 4
24 0 -1 -9 -3 -18 -6z"/>
<path d="M190 360 c0 -11 7 -20 15 -20 8 0 15 9 15 20 0 11 -7 20 -15 20 -8 0
-15 -9 -15 -20z"/>
<path d="M410 349 c0 -5 34 -9 75 -9 43 0 75 4 75 10 0 5 -32 9 -75 9 -41 -1
-75 -5 -75 -10z"/>
<path d="M577 353 c-8 -12 30 -29 40 -19 4 3 -1 6 -9 6 -9 0 -18 5 -20 12 -3
9 -6 9 -11 1z"/>
<path d="M660 351 c0 -5 -8 -11 -17 -13 -10 -2 5 -4 32 -4 28 0 42 2 33 4 -10
2 -18 8 -18 13 0 5 -7 9 -15 9 -8 0 -15 -4 -15 -9z"/>
<path d="M38 333 c7 -3 16 -2 19 1 4 3 -2 6 -13 5 -11 0 -14 -3 -6 -6z"/>
<path d="M138 333 c7 -3 16 -2 19 1 4 3 -2 6 -13 5 -11 0 -14 -3 -6 -6z"/>
<path d="M0 300 c0 -6 27 -10 62 -10 34 0 59 -3 55 -6 -3 -4 -31 -7 -62 -7
-38 -1 -55 -5 -55 -14 0 -8 12 -13 30 -13 30 0 30 0 30 -57 0 -64 -16 -63 -23
2 -3 36 -4 35 -5 -12 -2 -53 -2 -53 28 -53 l30 0 0 60 c0 56 1 60 24 60 19 0
22 4 18 25 -3 20 -1 24 12 19 9 -3 16 -1 16 5 0 7 -28 11 -80 11 -47 0 -80 -4
-80 -10z"/>
<path d="M190 299 c0 -6 7 -9 15 -5 8 3 15 0 15 -5 0 -7 9 -9 22 -6 20 6 20 5
3 -11 -13 -13 -19 -14 -22 -4 -3 6 -18 12 -34 12 -29 0 -29 0 -29 -60 0 -47 3
-60 15 -60 19 0 22 86 3 92 -9 3 -9 6 0 12 7 4 12 2 12 -3 0 -6 20 -11 45 -11
l45 0 0 -45 c0 -33 4 -45 15 -45 12 0 15 13 15 60 0 47 -3 60 -15 60 -8 0 -15
7 -15 15 0 11 -12 15 -45 15 -26 0 -45 -5 -45 -11z"/>
<path d="M305 300 c3 -5 13 -6 22 -3 14 6 15 1 8 -38 -11 -68 -13 -99 -3 -99
4 0 8 20 8 45 0 33 4 45 15 45 8 0 15 5 15 11 0 6 9 8 20 4 11 -4 20 -2 20 4
0 6 -9 11 -20 11 -11 0 -20 7 -20 15 0 11 -11 15 -36 15 -20 0 -33 -4 -29 -10z"/>
<path d="M440 300 c0 -6 8 -10 17 -8 23 4 43 -37 43 -89 0 -32 4 -43 15 -43 8
0 15 -7 15 -15 0 -12 14 -15 65 -15 l65 0 1 58 c1 52 2 54 9 22 5 -19 6 -38 4
-42 -3 -5 0 -8 5 -8 6 0 11 20 11 45 0 43 1 45 30 45 30 0 30 0 30 -57 0 -67
-17 -62 -23 7 -3 42 -4 41 -5 -12 l-2 -58 30 0 30 0 0 76 0 76 -35 -4 c-36 -4
-49 6 -17 14 30 8 67 -7 64 -25 -2 -12 4 -17 23 -17 23 0 25 -3 25 -45 l0 -45
65 0 65 0 0 45 c0 33 -4 45 -15 45 -11 0 -15 -11 -15 -41 0 -36 -2 -40 -15
-29 -8 7 -15 23 -15 37 0 13 -4 22 -9 18 -5 -3 -12 -1 -16 5 -4 6 6 10 24 10
21 0 31 5 31 15 0 10 -11 15 -35 15 -32 0 -35 -2 -35 -30 0 -16 5 -30 10 -30
12 0 13 -37 1 -44 -5 -3 -11 12 -15 34 -3 22 -11 40 -17 40 -5 0 -9 6 -8 13 6
45 2 47 -76 47 l-75 0 0 -30 c0 -20 -5 -30 -15 -30 -8 0 -15 7 -15 15 0 19
-60 21 -79 3 -11 -10 -14 -10 -18 0 -3 6 -18 12 -34 12 -19 0 -29 5 -29 15 0
10 -10 15 -30 15 -16 0 -30 -5 -30 -10z m390 -26 c0 -8 -4 -14 -10 -14 -5 0
-10 9 -10 21 0 11 5 17 10 14 6 -3 10 -13 10 -21z m-300 -14 c0 -5 20 -10 45
-10 l45 0 0 -44 c0 -24 3 -46 8 -49 4 -2 1 -2 -6 0 -8 1 -25 3 -38 3 -22 0
-24 4 -24 43 -1 33 -3 38 -11 24 -5 -9 -8 -20 -6 -25 3 -4 -1 -12 -8 -19 -10
-10 -12 -4 -8 28 5 32 3 39 -11 39 -10 0 -14 5 -11 10 3 6 10 10 16 10 5 0 9
-4 9 -10z m117 -32 c-3 -8 -6 -5 -6 6 -1 11 2 17 5 13 3 -3 4 -12 1 -19z"/>
<path d="M588 183 c7 -3 16 -2 19 1 4 3 -2 6 -13 5 -11 0 -14 -3 -6 -6z"/>
<path d="M530 299 c0 -6 6 -9 14 -6 8 3 16 1 18 -4 4 -13 58 -1 58 12 0 5 -20
9 -45 9 -26 0 -45 -5 -45 -11z"/>
<path d="M630 306 c0 -2 7 -6 15 -10 8 -3 15 -1 15 4 0 6 -7 10 -15 10 -8 0
-15 -2 -15 -4z"/>
<path d="M870 302 c0 -4 16 -8 35 -8 19 0 35 4 35 8 0 4 -16 8 -35 8 -19 0
-35 -4 -35 -8z"/>
<path d="M440 265 c0 -10 -11 -15 -35 -15 l-35 0 0 -60 0 -60 35 0 c35 0 35 0
35 45 0 33 4 45 15 45 10 0 15 10 15 30 0 20 -5 30 -15 30 -8 0 -15 -7 -15
-15z m-28 -80 c-5 -56 -19 -59 -24 -5 -2 29 0 40 12 44 8 2 15 4 15 5 0 0 -1
-19 -3 -44z"/>
<path d="M991 264 c0 -11 3 -14 6 -6 3 7 2 16 -1 19 -3 4 -6 -2 -5 -13z"/>
<path d="M132 210 c0 -14 2 -19 5 -12 2 6 2 18 0 25 -3 6 -5 1 -5 -13z"/>
<path d="M208 205 c-6 -30 -3 -43 8 -33 3 4 4 19 2 35 l-3 28 -7 -30z"/>
<path d="M230 186 c0 -9 30 -14 35 -6 4 6 -3 10 -14 10 -12 0 -21 -2 -21 -4z"/>
<path d="M810 160 c0 -27 3 -30 30 -30 37 0 39 15 4 24 -17 5 -24 12 -20 21 3
8 1 15 -4 15 -6 0 -10 -13 -10 -30z"/>
<path d="M985 180 c3 -5 8 -10 11 -10 2 0 4 5 4 10 0 6 -5 10 -11 10 -5 0 -7
-4 -4 -10z"/>
<path d="M470 157 c0 -14 -7 -32 -15 -41 -19 -18 -20 -56 -1 -56 9 0 15 19 20
56 4 31 4 59 1 62 -3 3 -5 -6 -5 -21z"/>
<path d="M123 163 c-15 -6 -17 -33 -3 -33 6 0 10 -16 10 -35 0 -24 5 -35 15
-35 10 0 15 -10 15 -30 0 -20 5 -30 15 -30 10 0 15 10 15 30 0 20 -5 30 -15
30 -10 0 -15 10 -15 30 0 17 -7 33 -17 38 -10 6 -14 16 -10 26 4 9 5 16 4 15
-1 0 -8 -3 -14 -6z"/>
<path d="M190 145 c0 -12 13 -15 60 -15 37 0 60 4 60 11 0 6 -7 9 -15 5 -8 -3
-15 -1 -15 4 0 6 -20 10 -45 10 -33 0 -45 -4 -45 -15z"/>
<path d="M970 150 c0 -5 -7 -7 -15 -4 -8 4 -15 1 -15 -5 0 -6 14 -11 30 -11
20 0 30 5 30 15 0 8 -7 15 -15 15 -8 0 -15 -4 -15 -10z"/>
<path d="M160 140 c0 -5 5 -10 11 -10 5 0 7 5 4 10 -3 6 -8 10 -11 10 -2 0 -4
-4 -4 -10z"/>
<path d="M898 133 c7 -3 16 -2 19 1 4 3 -2 6 -13 5 -11 0 -14 -3 -6 -6z"/>
<path d="M340 111 c0 -12 -6 -21 -15 -21 -8 0 -15 5 -15 10 0 6 -7 10 -15 10
-8 0 -15 -4 -15 -10 0 -5 7 -10 15 -10 8 0 15 -7 15 -15 0 -8 -7 -15 -15 -15
-8 0 -15 -7 -15 -15 0 -8 7 -15 15 -15 8 0 15 -7 15 -15 0 -8 7 -15 15 -15 8
0 15 7 15 15 0 8 -7 15 -15 15 -8 0 -15 7 -15 15 0 8 7 15 15 15 8 0 15 7 15
15 0 8 7 15 15 15 8 0 15 4 15 9 0 5 -7 14 -15 21 -13 10 -15 9 -15 -9z"/>
<path d="M60 100 c0 -5 7 -10 15 -10 8 0 15 5 15 10 0 6 -7 10 -15 10 -8 0
-15 -4 -15 -10z"/>
<path d="M190 100 c0 -5 7 -10 15 -10 8 0 15 5 15 10 0 6 -7 10 -15 10 -8 0
-15 -4 -15 -10z"/>
<path d="M500 100 c0 -5 7 -10 16 -10 8 0 12 5 9 10 -3 6 -10 10 -16 10 -5 0
-9 -4 -9 -10z"/>
<path d="M590 100 c0 -5 7 -10 15 -10 8 0 15 5 15 10 0 6 -7 10 -15 10 -8 0
-15 -4 -15 -10z"/>
<path d="M750 100 c0 -5 7 -10 15 -10 8 0 15 5 15 10 0 6 -7 10 -15 10 -8 0
-15 -4 -15 -10z"/>
<path d="M12 70 c11 -17 10 -22 -2 -30 -13 -8 -12 -10 3 -10 9 0 17 -7 17 -15
0 -8 7 -15 15 -15 8 0 15 7 15 15 0 8 -7 15 -15 15 -10 0 -15 10 -15 30 0 20
-5 30 -15 30 -13 0 -13 -3 -3 -20z"/>
<path d="M662 72 c4 -15 1 -18 -18 -14 -17 3 -24 0 -24 -12 0 -9 -7 -16 -15
-16 -8 0 -15 7 -15 15 0 10 -10 15 -30 15 -20 0 -30 -5 -30 -15 0 -10 10 -15
30 -15 20 0 30 -5 30 -15 0 -8 7 -15 15 -15 8 0 15 7 15 15 0 10 11 15 35 15
24 0 35 -5 35 -15 0 -8 7 -15 15 -15 8 0 15 7 15 15 0 8 -7 15 -15 15 -10 0
-15 10 -15 30 0 21 -5 30 -16 30 -11 0 -15 -6 -12 -18z"/>
<path d="M810 75 c0 -8 7 -15 15 -15 8 0 15 7 15 15 0 8 -7 15 -15 15 -8 0
-15 -7 -15 -15z"/>
<path d="M251 44 c0 -11 3 -14 6 -6 3 7 2 16 -1 19 -3 4 -6 -2 -5 -13z"/>
<path d="M370 44 c0 -9 7 -14 17 -12 25 5 28 28 4 28 -12 0 -21 -6 -21 -16z"/>
<path d="M750 45 c0 -8 7 -15 15 -15 8 0 15 -7 15 -15 0 -8 7 -15 15 -15 8 0
15 7 15 15 0 8 -7 15 -15 15 -8 0 -15 7 -15 15 0 8 -7 15 -15 15 -8 0 -15 -7
-15 -15z"/>
<path d="M910 45 c0 -10 -11 -15 -35 -15 -22 0 -35 -5 -35 -13 0 -8 13 -13 35
-13 22 0 35 5 35 13 0 7 7 13 15 13 8 0 15 7 15 15 0 8 -7 15 -15 15 -8 0 -15
-7 -15 -15z"/>
<path d="M970 45 c0 -8 7 -15 15 -15 8 0 15 7 15 15 0 8 -7 15 -15 15 -8 0
-15 -7 -15 -15z"/>
<path d="M410 15 c0 -8 7 -15 15 -15 8 0 15 7 15 15 0 8 -7 15 -15 15 -8 0
-15 -7 -15 -15z"/>
<path d="M470 15 c0 -8 7 -15 15 -15 8 0 15 7 15 15 0 8 -7 15 -15 15 -8 0
-15 -7 -15 -15z"/>
</g>
</svg>
