<?xml version="1.0" standalone="no"?>
<!DOCTYPE svg PUBLIC "-//W3C//DTD SVG 20010904//EN"
 "http://www.w3.org/TR/2001/REC-SVG-20010904/DTD/svg10.dtd">
<svg version="1.0" xmlns="http://www.w3.org/2000/svg"
 width="100.000000pt" height="100.000000pt" viewBox="0 0 100.000000 100.000000"
 preserveAspectRatio="xMidYMid meet">
<metadata>
Created by potrace 1.16, written by Peter Selinger 2001-2019
</metadata>
<g transform="translate(0.000000,100.000000) scale(0.100000,-0.100000)"
fill="#000000" stroke="none">
<path d="M260 845 c0 -10 -10 -15 -30 -15 -20 0 -30 -5 -30 -15 0 -10 -10 -15
-30 -15 -20 0 -30 -5 -30 -15 0 -8 -7 -15 -15 -15 -8 0 -15 -7 -15 -15 0 -8
-9 -15 -20 -15 -11 0 -20 -7 -20 -15 0 -8 -7 -15 -15 -15 -8 0 -15 -7 -15 -15
0 -8 -7 -15 -15 -15 -13 0 -15 -23 -15 -145 0 -122 2 -145 15 -145 10 0 15
-11 15 -35 0 -24 5 -35 15 -35 8 0 15 -7 15 -15 0 -8 9 -15 20 -15 11 0 20 -7
20 -15 0 -10 10 -15 30 -15 20 0 30 -5 30 -15 0 -8 7 -15 15 -15 8 0 15 -7 15
-15 0 -11 12 -15 45 -15 33 0 45 -4 45 -15 0 -13 30 -15 210 -15 180 0 210 2
210 15 0 11 12 15 45 15 33 0 45 4 45 15 0 8 7 15 15 15 8 0 15 7 15 15 0 10
10 15 30 15 20 0 30 5 30 15 0 8 9 15 20 15 11 0 20 7 20 15 0 8 7 15 15 15 8
0 15 9 15 20 0 11 7 20 15 20 13 0 15 24 15 160 0 136 -2 160 -15 160 -8 0
-15 7 -15 15 0 8 -7 15 -15 15 -8 0 -15 7 -15 15 0 8 -9 15 -20 15 -11 0 -20
7 -20 15 0 8 -7 15 -15 15 -8 0 -15 7 -15 15 0 10 -10 15 -30 15 -20 0 -30 5
-30 15 0 10 -10 15 -30 15 -20 0 -30 5 -30 15 0 13 -33 15 -240 15 -207 0
-240 -2 -240 -15z m460 -20 c0 -10 10 -15 30 -15 20 0 30 -5 30 -15 0 -10 10
-15 30 -15 20 0 30 -5 30 -15 0 -8 7 -15 15 -15 8 0 15 -7 15 -15 0 -8 9 -15
20 -15 11 0 20 -7 20 -15 0 -8 7 -15 15 -15 8 0 15 -7 15 -15 0 -8 7 -15 15
-15 13 0 15 -22 15 -140 0 -118 -2 -140 -15 -140 -8 0 -15 -9 -15 -20 0 -11
-7 -20 -15 -20 -8 0 -15 -7 -15 -15 0 -8 -9 -15 -20 -15 -11 0 -20 -7 -20 -15
0 -10 -10 -15 -30 -15 -20 0 -30 -5 -30 -15 0 -8 -7 -15 -15 -15 -8 0 -15 -7
-15 -15 0 -11 -12 -15 -45 -15 -33 0 -45 -4 -45 -15 0 -13 -28 -15 -190 -15
-162 0 -190 2 -190 15 0 11 -12 15 -45 15 -33 0 -45 4 -45 15 0 8 -7 15 -15
15 -8 0 -15 7 -15 15 0 10 -10 15 -30 15 -20 0 -30 5 -30 15 0 8 -9 15 -20 15
-11 0 -20 7 -20 15 0 8 -7 15 -15 15 -10 0 -15 11 -15 35 0 24 -5 35 -15 35
-13 0 -15 21 -15 125 0 104 2 125 15 125 8 0 15 7 15 15 0 8 7 15 15 15 8 0
15 7 15 15 0 8 9 15 20 15 11 0 20 7 20 15 0 8 7 15 15 15 8 0 15 7 15 15 0
10 10 15 30 15 20 0 30 5 30 15 0 10 10 15 30 15 20 0 30 5 30 15 0 13 31 15
220 15 189 0 220 -2 220 -15z"/>
<path d="M361 810 c63 -6 112 -31 90 -44 -5 -4 -11 -2 -13 2 -1 5 -50 11 -108
14 -58 2 -93 2 -77 0 15 -2 27 -8 27 -14 0 -5 7 -8 15 -4 8 3 15 0 15 -6 0 -7
-22 -9 -67 -6 -38 3 -58 3 -45 1 20 -4 22 -10 22 -64 l0 -59 52 0 c59 0 61 7
3 13 -40 4 -40 4 -40 48 0 36 3 43 18 41 9 -2 33 5 53 14 38 18 76 21 132 9
26 -6 32 -4 32 9 0 11 9 16 30 16 20 0 30 -5 30 -15 0 -8 5 -15 11 -15 6 0 8
7 5 15 -4 11 3 19 21 26 14 5 23 12 20 15 -3 3 -70 7 -149 9 -94 1 -120 0 -77
-5z m169 -8 c0 -5 -13 -9 -30 -9 -16 0 -30 4 -30 9 0 4 14 8 30 8 17 0 30 -4
30 -8z"/>
<path d="M633 813 c15 -2 37 -2 50 0 12 2 0 4 -28 4 -27 0 -38 -2 -22 -4z"/>
<path d="M643 783 c-67 -3 -83 -7 -83 -19 0 -12 5 -14 18 -8 24 11 90 8 106
-5 7 -6 28 -13 47 -15 33 -3 34 -5 34 -47 0 -43 0 -43 -40 -47 -58 -6 -57 -12
2 -12 29 0 53 -5 55 -11 2 -6 2 21 0 60 -4 60 -2 71 12 71 9 0 16 -7 16 -15 0
-8 7 -15 15 -15 8 0 15 -9 15 -20 0 -13 5 -18 15 -14 9 4 15 0 15 -10 0 -9 -7
-16 -15 -16 -8 0 -15 -7 -15 -15 0 -8 -7 -15 -15 -15 -8 0 -15 -9 -15 -20 0
-16 -7 -20 -30 -20 -16 0 -30 -5 -30 -11 0 -6 7 -9 15 -5 8 3 15 1 15 -4 0 -6
-35 -10 -80 -10 -44 0 -80 -4 -80 -8 0 -4 16 -7 35 -7 19 1 35 -2 35 -7 0 -4
-16 -8 -35 -8 -24 0 -35 -5 -35 -15 0 -20 18 -19 55 3 25 15 108 42 129 42 3
0 6 -7 6 -15 0 -11 -12 -15 -45 -15 -33 0 -45 -4 -45 -15 0 -10 -10 -15 -30
-15 -27 0 -30 -3 -30 -30 0 -23 -4 -30 -20 -30 -18 0 -20 -7 -20 -65 0 -51 -3
-65 -15 -65 -8 0 -15 -7 -15 -15 0 -8 7 -15 15 -15 8 0 15 7 15 15 0 11 12 15
50 15 38 0 50 4 50 15 0 10 10 15 30 15 23 0 30 4 30 20 0 11 7 20 15 20 8 0
15 7 15 15 0 8 7 15 15 15 11 0 15 12 15 45 0 33 4 45 15 45 8 0 15 7 15 15 0
8 -7 15 -15 15 -8 0 -15 7 -15 15 0 8 -7 15 -15 15 -8 0 -15 7 -15 15 0 10 10
15 30 15 28 0 30 3 30 35 0 28 4 35 20 35 11 0 20 -7 20 -15 0 -8 -5 -15 -11
-15 -6 0 -8 -9 -4 -20 5 -14 2 -20 -9 -20 -10 0 -16 -9 -16 -25 0 -14 5 -25
10 -25 15 0 12 -60 -2 -61 -7 0 -4 -4 7 -9 16 -7 17 -9 3 -9 -19 -1 -31 -31
-22 -55 7 -18 20 -21 29 -6 3 6 -1 10 -9 10 -9 0 -16 7 -16 15 0 8 9 15 20 15
16 0 20 -7 20 -30 0 -50 26 -37 34 16 8 63 7 156 -2 171 -4 6 -5 -27 -3 -73 3
-72 1 -84 -13 -84 -14 0 -16 15 -16 95 0 78 3 95 15 95 22 0 18 18 -7 31 -13
7 -42 31 -66 55 -44 42 -44 42 -103 37 -40 -4 -59 -2 -59 5 0 6 7 9 15 6 8 -4
15 -1 15 4 0 6 10 13 23 15 25 5 29 5 -100 0z m177 -313 c0 -29 -4 -40 -15
-40 -8 0 -15 -7 -15 -15 0 -8 -7 -15 -15 -15 -8 0 -15 -9 -15 -20 0 -16 -7
-20 -30 -20 -20 0 -30 -5 -30 -15 0 -10 -10 -15 -30 -15 -29 0 -30 2 -30 45 0
38 3 45 20 45 16 0 20 7 20 30 0 27 3 30 30 30 20 0 30 5 30 15 0 11 11 15 40
15 l40 0 0 -40z"/>
<path d="M340 735 c0 -11 -12 -15 -45 -15 -43 0 -45 -1 -45 -30 0 -29 2 -30
45 -30 33 0 45 -4 45 -15 0 -8 7 -15 15 -15 11 0 15 12 15 45 0 38 3 45 20 45
11 0 20 7 20 15 0 10 -11 15 -35 15 -24 0 -35 -5 -35 -15z m10 -45 c0 -5 -18
-10 -40 -10 -22 0 -40 5 -40 10 0 6 18 10 40 10 22 0 40 -4 40 -10z"/>
<path d="M590 735 c0 -8 7 -15 15 -15 11 0 15 -12 15 -45 0 -38 3 -45 20 -45
11 0 20 7 20 15 0 11 12 15 45 15 43 0 45 1 45 30 0 29 -2 30 -45 30 -33 0
-45 4 -45 15 0 10 -11 15 -35 15 -24 0 -35 -5 -35 -15z m140 -45 c0 -5 -20
-10 -45 -10 -25 0 -45 5 -45 10 0 6 20 10 45 10 25 0 45 -4 45 -10z"/>
<path d="M163 732 c-14 -2 -20 -8 -16 -18 3 -9 -2 -14 -16 -14 -12 0 -20 -4
-18 -8 1 -5 -13 -21 -30 -36 -33 -28 -33 -28 -33 -121 0 -68 4 -96 14 -104 8
-7 17 -30 21 -52 4 -24 12 -39 21 -39 8 0 23 -9 34 -20 11 -11 28 -20 39 -20
10 0 26 -12 36 -26 9 -14 23 -23 30 -20 8 3 31 -3 52 -13 43 -21 107 -37 84
-22 -8 5 -12 15 -9 22 4 11 -6 13 -45 10 -45 -3 -49 -1 -45 16 4 16 0 18 -29
15 -25 -3 -33 0 -33 11 0 9 8 17 18 20 9 2 -4 2 -30 -1 -40 -4 -48 -2 -48 12
0 9 -7 16 -15 16 -8 0 -15 9 -15 20 0 13 -7 20 -20 20 -16 0 -20 7 -20 30 0
23 4 30 20 30 11 0 20 -7 20 -15 0 -8 4 -15 9 -15 17 0 -2 42 -23 50 -17 7
-18 9 -3 9 14 1 17 11 17 61 0 48 -3 60 -16 60 -11 0 -14 6 -9 20 4 11 2 20
-4 20 -6 0 -11 7 -11 15 0 8 9 15 20 15 16 0 20 -7 20 -35 0 -24 5 -35 15 -35
8 0 15 8 15 18 0 10 6 5 16 -15 9 -17 25 -34 37 -38 29 -10 157 -12 157 -2 0
4 -34 7 -75 7 -48 0 -75 4 -75 11 0 6 7 9 15 5 8 -3 15 -1 15 4 0 6 -13 10
-30 10 -23 0 -30 4 -30 20 0 11 -7 20 -15 20 -8 0 -15 7 -15 15 0 8 -7 15 -15
15 -8 0 -15 7 -15 15 0 8 7 15 15 15 8 0 15 7 15 15 0 8 7 15 15 15 10 0 15
-10 15 -30 0 -16 4 -30 9 -30 10 0 6 43 -6 62 -4 7 -18 12 -30 10z m-73 -197
c0 -78 -3 -95 -15 -95 -12 0 -15 17 -15 95 0 78 3 95 15 95 12 0 15 -17 15
-95z"/>
<path d="M429 718 c-4 -16 -2 -28 2 -28 5 0 9 -22 9 -50 l0 -50 60 0 60 0 0
49 c0 27 4 51 8 53 5 2 5 14 1 28 l-7 25 -1 -27 c-1 -29 -31 -41 -31 -13 0 10
-10 15 -30 15 -23 0 -30 -4 -30 -20 0 -17 7 -20 39 -20 42 0 42 0 32 -62 0 -5
-19 -8 -40 -8 -42 0 -51 11 -47 54 2 14 0 26 -5 26 -4 0 -9 12 -11 28 l-3 27
-6 -27z"/>
<path d="M795 700 c-3 -5 1 -10 10 -10 9 0 13 5 10 10 -3 6 -8 10 -10 10 -2 0
-7 -4 -10 -10z"/>
<path d="M390 655 l0 -45 -55 0 c-30 0 -55 -4 -55 -10 0 -6 28 -10 65 -10 l65
0 0 55 c0 30 -4 55 -10 55 -5 0 -10 -20 -10 -45z"/>
<path d="M590 647 l0 -57 71 0 c44 0 68 4 64 10 -3 6 -32 10 -64 10 l-58 0 -1
42 c-3 63 -12 59 -12 -5z"/>
<path d="M470 645 c0 -10 10 -15 30 -15 20 0 30 5 30 15 0 10 -10 15 -30 15
-20 0 -30 -5 -30 -15z"/>
<path d="M463 563 c15 -2 37 -2 50 0 12 2 0 4 -28 4 -27 0 -38 -2 -22 -4z"/>
<path d="M160 485 c0 -60 3 -75 15 -75 8 0 15 -7 15 -15 0 -10 10 -15 30 -15
23 0 30 -4 30 -20 0 -11 7 -20 15 -20 8 0 15 -7 15 -15 0 -11 12 -15 45 -15
33 0 45 -4 45 -15 0 -8 9 -15 20 -15 11 0 20 7 20 15 0 8 -9 15 -20 15 -18 0
-20 7 -20 65 0 51 -3 65 -15 65 -10 0 -15 10 -15 30 0 27 -3 30 -30 30 -20 0
-30 5 -30 15 0 11 -12 15 -45 15 -33 0 -45 4 -45 15 0 8 -7 15 -15 15 -12 0
-15 -15 -15 -75z m100 10 c0 -10 10 -15 30 -15 27 0 30 -3 30 -30 0 -20 5 -30
15 -30 11 0 15 -12 15 -45 0 -41 -2 -45 -25 -45 -16 0 -25 6 -25 15 0 8 -7 15
-15 15 -8 0 -15 9 -15 20 0 16 -7 20 -30 20 -20 0 -30 5 -30 15 0 8 -7 15 -15
15 -11 0 -15 11 -15 40 l0 40 40 0 c29 0 40 -4 40 -15z"/>
<path d="M327 515 c19 -8 33 -22 36 -37 3 -15 5 -10 6 15 1 36 0 37 -36 37
l-38 -1 32 -14z"/>
<path d="M388 438 c3 -77 7 -94 23 -106 21 -15 25 -52 7 -70 -9 -9 -5 -12 20
-12 22 0 32 5 32 15 0 8 -7 15 -15 15 -11 0 -15 12 -15 50 0 29 -5 50 -11 50
-6 0 -8 -9 -4 -20 4 -11 2 -20 -4 -20 -7 0 -11 34 -11 95 0 69 -3 95 -12 95
-10 0 -12 -23 -10 -92z"/>
<path d="M442 468 c1 -58 2 -59 5 -15 4 41 8 49 31 58 45 17 70 -2 75 -58 3
-44 4 -43 5 15 l2 62 -60 0 -60 0 2 -62z"/>
<path d="M590 435 c0 -61 -4 -95 -11 -95 -6 0 -8 9 -4 20 4 11 2 20 -4 20 -6
0 -11 -21 -11 -50 0 -38 -4 -50 -15 -50 -8 0 -15 -7 -15 -15 0 -10 10 -15 30
-15 28 0 29 2 18 20 -10 16 -9 25 5 49 12 20 18 55 19 120 2 50 0 91 -4 91 -5
0 -8 -43 -8 -95z"/>
<path d="M470 455 c0 -43 1 -45 30 -45 29 0 30 2 30 45 0 43 -1 45 -30 45 -29
0 -30 -2 -30 -45z m40 0 c0 -14 -4 -25 -10 -25 -5 0 -10 11 -10 25 0 14 5 25
10 25 6 0 10 -11 10 -25z"/>
<path d="M620 475 c0 -8 4 -15 10 -15 5 0 7 7 4 15 -4 8 -8 15 -10 15 -2 0 -4
-7 -4 -15z"/>
<path d="M470 388 c0 -5 14 -8 30 -8 17 0 30 3 30 8 0 4 -13 7 -30 7 -16 0
-30 -3 -30 -7z"/>
<path d="M836 377 c3 -10 9 -15 12 -12 3 3 0 11 -7 18 -10 9 -11 8 -5 -6z"/>
<path d="M870 360 c0 -11 -7 -20 -15 -20 -8 0 -15 -7 -15 -15 0 -10 -10 -15
-30 -15 -21 0 -30 -5 -30 -16 0 -12 -8 -15 -33 -12 -29 3 -33 1 -29 -15 4 -17
-1 -18 -49 -17 -72 2 -77 1 -59 -10 13 -9 13 -11 0 -20 -10 -6 -3 -8 25 -3 22
3 44 10 50 14 5 5 17 9 27 9 10 0 18 5 18 11 0 6 8 8 19 4 14 -4 25 1 36 18
10 15 30 28 50 31 21 4 35 13 35 21 0 8 9 15 20 15 13 0 20 7 20 20 0 13 -7
20 -20 20 -13 0 -20 -7 -20 -20z"/>
<path d="M467 351 c-3 -14 0 -17 14 -14 15 4 17 8 8 19 -15 18 -16 18 -22 -5z"/>
<path d="M190 350 c0 -5 7 -10 15 -10 8 0 15 5 15 10 0 6 -7 10 -15 10 -8 0
-15 -4 -15 -10z"/>
<path d="M510 356 c0 -2 7 -9 15 -16 13 -11 14 -10 9 4 -5 14 -24 23 -24 12z"/>
<path d="M800 353 c0 -15 18 -35 23 -27 3 5 -1 15 -9 22 -8 7 -14 9 -14 5z"/>
<path d="M455 300 c3 -5 8 -10 11 -10 2 0 4 5 4 10 0 6 -5 10 -11 10 -5 0 -7
-4 -4 -10z"/>
<path d="M482 304 c10 -10 58 -12 64 -3 3 5 -12 9 -32 9 -21 0 -35 -3 -32 -6z"/>
<path d="M318 283 c6 -2 18 -2 25 0 6 3 1 5 -13 5 -14 0 -19 -2 -12 -5z"/>
<path d="M653 283 c9 -2 23 -2 30 0 6 3 -1 5 -18 5 -16 0 -22 -2 -12 -5z"/>
<path d="M488 243 c6 -2 18 -2 25 0 6 3 1 5 -13 5 -14 0 -19 -2 -12 -5z"/>
<path d="M453 213 c26 -2 68 -2 95 0 26 2 4 3 -48 3 -52 0 -74 -1 -47 -3z"/>
</g>
</svg>
