<?xml version="1.0" standalone="no"?>
<!DOCTYPE svg PUBLIC "-//W3C//DTD SVG 20010904//EN"
 "http://www.w3.org/TR/2001/REC-SVG-20010904/DTD/svg10.dtd">
<svg version="1.0" xmlns="http://www.w3.org/2000/svg"
 width="256.000000pt" height="256.000000pt" viewBox="0 0 256.000000 256.000000"
 preserveAspectRatio="xMidYMid meet">
<metadata>
Created by potrace 1.16, written by Peter Selinger 2001-2019
</metadata>
<g transform="translate(0.000000,256.000000) scale(0.100000,-0.100000)"
fill="#000000" stroke="none">
<path d="M1190 2189 c-215 -18 -442 -114 -569 -239 -78 -77 -158 -205 -168
-270 -13 -79 -11 -228 4 -275 21 -66 61 -151 79 -166 8 -6 14 -17 15 -23 1
-20 143 -137 224 -185 44 -25 107 -55 140 -65 33 -10 71 -23 85 -28 28 -12 29
-12 190 -30 63 -7 133 -10 155 -6 22 3 76 12 119 18 183 27 363 115 487 239
298 296 195 731 -221 934 -89 44 -238 85 -335 92 -38 3 -81 7 -95 9 -14 1 -63
-1 -110 -5z m350 -53 c280 -77 488 -260 546 -482 68 -262 -130 -549 -461 -667
-128 -46 -208 -59 -345 -59 -184 0 -340 40 -486 124 -81 47 -222 163 -223 184
-1 6 -7 17 -15 23 -22 18 -63 109 -80 177 -44 172 14 345 165 494 110 109 286
191 499 234 14 2 88 3 165 1 112 -3 159 -9 235 -29z"/>
<path d="M1087 2099 c-92 -12 -212 -63 -259 -110 -33 -32 -38 -43 -38 -84 0
-68 29 -109 101 -145 57 -29 155 -60 190 -60 13 0 20 12 25 48 18 125 83 265
137 297 39 23 69 13 109 -38 49 -60 88 -160 102 -259 5 -36 12 -48 25 -48 34
0 133 31 189 59 76 38 102 75 102 142 0 46 -4 55 -38 88 -34 33 -56 45 -162
87 -77 31 -327 43 -483 23z m392 -26 c3 -4 15 -8 26 -7 11 0 34 -5 50 -12 102
-41 124 -53 158 -86 44 -43 47 -84 10 -134 -25 -33 -129 -86 -200 -102 l-42
-10 -7 47 c-16 107 -61 217 -112 271 -32 33 -46 40 -76 40 -64 0 -101 -32
-144 -125 -22 -48 -49 -136 -56 -186 l-7 -47 -42 10 c-23 5 -73 23 -110 40
-113 52 -146 124 -87 191 25 28 122 83 164 92 6 1 18 5 27 9 9 4 20 6 25 5 5
-1 16 1 24 4 28 12 95 15 244 12 82 -2 152 -7 155 -12z"/>
<path d="M1217 1918 c-28 -37 -53 -110 -63 -180 l-6 -48 132 0 132 0 -7 48
c-19 134 -66 212 -130 212 -27 0 -39 -7 -58 -32z m108 -24 c23 -26 42 -77 55
-146 l7 -38 -107 0 -107 0 4 28 c9 55 36 128 59 159 28 38 55 37 89 -3z"/>
<path d="M610 1818 c-43 -71 -55 -127 -54 -253 2 -132 14 -180 76 -283 91
-150 303 -275 509 -298 58 -7 59 -6 59 19 0 14 -11 47 -24 74 -52 102 -82 230
-92 388 l-7 101 -93 28 c-90 27 -168 70 -228 125 -34 31 -76 95 -76 116 0 30
-49 18 -70 -17z m75 -57 c51 -81 154 -149 281 -187 51 -16 93 -33 92 -39 -4
-19 13 -200 22 -235 5 -19 11 -51 13 -71 2 -20 8 -42 11 -48 4 -6 9 -20 11
-30 2 -10 17 -47 34 -81 17 -34 31 -64 31 -66 0 -7 -65 5 -147 27 -146 38
-312 157 -381 271 -58 97 -74 153 -75 263 -2 106 12 167 55 235 19 30 23 32
26 16 2 -11 14 -36 27 -55z"/>
<path d="M1880 1835 c0 -21 -41 -84 -76 -116 -60 -55 -138 -98 -228 -125 l-93
-28 -7 -101 c-10 -158 -40 -286 -92 -388 -13 -27 -24 -60 -24 -74 0 -25 1 -26
59 -19 153 17 300 84 413 186 107 98 164 215 174 360 8 103 -6 186 -44 260
-22 44 -32 56 -54 58 -20 2 -28 -1 -28 -13z m81 -103 c18 -46 23 -77 23 -165
0 -60 -4 -111 -9 -115 -6 -4 -12 -18 -13 -32 -8 -52 -67 -146 -137 -215 -84
-83 -195 -147 -298 -174 -83 -22 -147 -34 -147 -27 0 2 11 26 24 53 52 102 82
230 92 388 l7 101 93 28 c90 27 168 70 228 125 36 33 76 95 76 118 1 29 35
-19 61 -85z"/>
<path d="M1140 1508 c0 -51 24 -188 41 -238 6 -19 23 -50 36 -67 20 -27 31
-33 63 -33 32 0 43 5 63 33 40 55 77 202 77 305 l0 42 -140 0 -140 0 0 -42z
m260 0 c0 -38 -21 -152 -38 -203 -20 -63 -57 -115 -82 -115 -22 0 -62 50 -79
100 -14 40 -41 184 -41 218 0 22 2 22 120 22 116 0 120 -1 120 -22z"/>
<path d="M710 759 c-90 -36 -137 -184 -91 -284 70 -151 238 -158 312 -13 25
49 27 152 5 200 -21 43 -62 87 -93 99 -31 12 -101 11 -133 -2z m123 -24 c82
-40 122 -168 79 -252 -23 -43 -69 -87 -103 -98 -58 -19 -133 29 -170 110 -25
53 -24 90 5 150 43 93 114 126 189 90z"/>
<path d="M722 694 c-35 -24 -52 -68 -52 -131 0 -89 36 -132 108 -133 35 0 49
6 73 29 27 27 29 35 29 106 0 78 -17 125 -46 125 -8 0 -14 5 -14 10 0 16 -73
12 -98 -6z m78 -14 c0 -5 6 -10 14 -10 25 0 46 -47 46 -105 0 -49 -4 -60 -29
-86 -44 -44 -84 -37 -124 21 -33 48 -15 139 35 174 25 18 58 21 58 6z"/>
<path d="M1375 757 c-87 -40 -130 -178 -86 -279 22 -51 88 -113 130 -121 79
-16 166 49 196 145 25 79 9 151 -50 216 -39 43 -45 46 -101 49 -36 2 -71 -2
-89 -10z m170 -60 c24 -26 45 -62 52 -90 11 -41 11 -53 -7 -100 -29 -78 -87
-127 -149 -127 -24 0 -43 12 -79 48 -62 60 -81 114 -64 179 25 92 91 147 167
139 32 -4 48 -14 80 -49z"/>
<path d="M1391 694 c-65 -46 -69 -207 -6 -248 14 -9 43 -16 65 -16 33 0 48 6
71 29 27 27 29 35 29 101 0 76 -16 122 -49 140 -29 15 -84 12 -110 -6z m105
-29 c14 -14 22 -30 19 -35 -3 -6 -1 -10 4 -10 7 0 11 -23 11 -56 0 -48 -4 -59
-29 -85 -36 -35 -69 -37 -104 -5 -50 46 -45 153 10 195 34 28 59 26 89 -4z"/>
<path d="M310 720 c0 -43 1 -43 67 -42 l33 0 2 -157 3 -156 40 0 40 0 3 156 2
157 33 0 c66 -1 67 -1 67 42 l0 40 -145 0 -145 0 0 -40z m270 0 c0 -17 -7 -20
-50 -20 l-49 0 -3 -157 c-3 -150 -4 -158 -23 -158 -19 0 -20 8 -23 158 l-3
157 -49 0 c-43 0 -50 3 -50 20 0 19 7 20 125 20 118 0 125 -1 125 -20z"/>
<path d="M950 746 c0 -7 26 -60 58 -117 53 -97 57 -110 62 -184 l5 -80 38 -3
37 -3 0 78 c0 50 5 86 14 98 17 26 116 212 116 219 0 3 -22 6 -50 6 -30 0 -50
-4 -50 -11 0 -6 -10 -25 -22 -42 -13 -18 -22 -33 -21 -34 1 -2 -4 -17 -11 -35
l-14 -32 -36 77 -35 77 -46 0 c-31 0 -45 -4 -45 -14z m105 -81 c29 -61 39 -75
57 -75 19 1 30 15 58 75 24 51 41 75 53 75 9 0 17 -2 17 -5 0 -6 -80 -156 -96
-180 -9 -12 -14 -48 -14 -98 0 -69 -2 -78 -17 -75 -15 3 -19 17 -23 83 -5 73
-10 88 -58 178 -49 89 -52 97 -33 97 17 0 29 -16 56 -75z"/>
<path d="M1630 721 c0 -42 7 -47 60 -47 l35 1 5 -155 5 -155 40 0 40 0 3 156
2 157 33 0 c66 -1 67 -1 67 42 l0 40 -145 0 -145 0 0 -39z m270 -1 c0 -17 -7
-20 -50 -20 l-49 0 -3 -157 c-3 -150 -4 -158 -23 -158 -19 0 -20 8 -23 158
l-3 157 -49 0 c-43 0 -50 3 -50 20 0 19 7 20 125 20 118 0 125 -1 125 -20z"/>
<path d="M1978 658 c-20 -57 -50 -142 -68 -190 -17 -49 -28 -93 -25 -99 4 -5
26 -9 48 -7 40 3 43 6 56 46 l13 43 64 -2 c54 -2 64 -5 66 -21 0 -10 1 -24 2
-30 1 -7 8 -18 16 -25 17 -14 86 -17 94 -4 3 5 -5 38 -18 72 -13 35 -43 121
-66 192 l-43 127 -52 0 -52 0 -35 -102z m174 -80 c31 -90 59 -171 63 -180 5
-14 2 -18 -13 -18 -25 0 -40 18 -48 58 l-6 32 -84 0 -83 0 -11 -39 c-7 -27
-17 -41 -32 -44 -12 -4 -24 -5 -26 -3 -1 2 9 37 23 77 15 41 43 120 62 177 36
101 37 102 68 102 l32 0 55 -162z"/>
<path d="M2026 602 c-25 -91 -25 -92 39 -92 64 0 67 7 38 97 -14 42 -22 53
-39 53 -17 0 -24 -11 -38 -58z m74 -67 c0 0 -15 0 -34 -1 l-34 0 14 45 c8 25
14 51 14 56 1 6 10 -15 20 -45 11 -30 20 -54 20 -55z"/>
</g>
</svg>
