<?xml version="1.0" standalone="no"?>
<!DOCTYPE svg PUBLIC "-//W3C//DTD SVG 20010904//EN"
 "http://www.w3.org/TR/2001/REC-SVG-20010904/DTD/svg10.dtd">
<svg version="1.0" xmlns="http://www.w3.org/2000/svg"
 width="180.000000pt" height="180.000000pt" viewBox="0 0 180.000000 180.000000"
 preserveAspectRatio="xMidYMid meet">
<metadata>
Created by potrace 1.16, written by Peter Selinger 2001-2019
</metadata>
<g transform="translate(0.000000,180.000000) scale(0.100000,-0.100000)"
fill="#000000" stroke="none">
<path d="M90 1776 c-49 -34 -80 -72 -87 -109 -6 -29 -5 -31 10 -18 9 7 17 18
17 22 0 20 66 80 113 104 l51 25 -35 0 c-20 0 -49 -10 -69 -24z"/>
<path d="M1657 1774 c46 -23 97 -70 130 -121 11 -16 12 -16 12 8 2 53 -98 139
-160 139 -33 0 -33 0 18 -26z"/>
<path d="M750 1389 c-250 -32 -490 -169 -565 -323 -132 -270 80 -536 500 -628
36 -8 125 -13 225 -12 136 0 181 4 253 22 393 98 586 356 459 615 -114 231
-497 375 -872 326z m340 -71 c134 -24 226 -70 244 -121 19 -54 -49 -109 -180
-145 l-71 -20 -13 57 c-16 74 -54 154 -91 191 -38 38 -101 42 -143 9 -32 -25
-78 -114 -95 -184 -7 -27 -15 -55 -16 -62 -5 -14 -147 27 -200 59 -97 57 -62
141 77 186 149 49 327 60 488 30z m335 -93 c29 -20 59 -42 65 -50 11 -13 8
-15 -19 -15 -21 0 -31 -5 -31 -15 0 -28 -82 -105 -144 -135 -33 -16 -97 -39
-140 -50 -44 -11 -81 -22 -84 -25 -2 -2 -8 -50 -12 -107 -9 -118 -36 -212 -80
-281 -16 -26 -30 -59 -30 -72 0 -23 -4 -25 -45 -25 -42 0 -45 2 -45 26 0 14
-11 40 -24 57 -52 68 -95 225 -96 349 0 55 -1 58 -27 63 -178 38 -283 92 -330
173 -34 57 -69 59 -106 3 -67 -101 -73 -243 -17 -358 38 -77 115 -158 190
-201 71 -41 55 -41 -21 -1 -90 48 -183 138 -220 214 -28 58 -31 71 -27 142 4
101 32 158 115 239 52 51 181 134 208 134 3 0 -10 -15 -29 -34 -30 -28 -36
-40 -36 -74 0 -72 62 -124 187 -156 93 -24 121 -22 129 12 40 182 117 275 189
228 28 -19 80 -120 98 -196 13 -51 16 -55 46 -58 61 -6 214 52 254 96 44 48
26 136 -33 167 -17 9 -30 17 -30 20 0 9 94 -36 145 -70z m186 -213 c40 -108
13 -226 -75 -329 -37 -42 -177 -143 -199 -143 -7 0 11 15 39 34 66 44 145 132
174 193 18 36 25 71 28 139 5 100 -5 144 -45 209 l-24 40 40 -43 c22 -24 50
-69 62 -100z m-1271 113 c0 -22 77 -102 125 -130 51 -31 113 -53 190 -69 59
-12 60 -12 57 -44 -11 -109 56 -340 111 -384 12 -9 19 -19 17 -22 -6 -5 -174
27 -228 45 -109 35 -228 117 -287 197 -49 65 -79 168 -72 240 8 79 87 230 87
167z m1186 -70 c31 -64 33 -171 5 -245 -43 -112 -149 -212 -289 -270 -63 -27
-262 -74 -271 -64 -2 2 5 14 17 27 55 58 102 216 102 345 0 66 2 72 21 72 35
0 141 30 194 56 68 32 134 90 152 133 15 34 16 35 30 16 8 -11 26 -42 39 -70z"/>
<path d="M841 1212 c-34 -33 -73 -134 -69 -176 4 -37 23 -44 124 -45 95 -1
132 7 140 31 9 31 -33 152 -65 187 -39 42 -91 43 -130 3z m108 -28 c25 -32 64
-133 57 -149 -3 -9 -35 -13 -103 -13 -54 0 -101 2 -105 5 -12 6 38 133 63 159
29 31 62 31 88 -2z"/>
<path d="M763 847 c7 -96 34 -178 74 -219 35 -37 99 -40 131 -5 33 35 62 110
74 195 17 117 23 112 -143 112 l-142 0 6 -83z m253 3 c-16 -134 -62 -220 -117
-220 -22 0 -34 8 -49 33 -23 37 -56 144 -63 202 l-4 40 119 0 120 0 -6 -55z"/>
<path d="M0 146 c-1 -56 97 -146 158 -146 l36 0 -53 26 c-28 15 -64 42 -79 61
-63 82 -61 80 -62 59z"/>
<path d="M1755 109 c-27 -35 -58 -62 -94 -81 l-53 -28 34 0 c61 0 166 98 156
146 -2 12 -15 1 -43 -37z"/>
</g>
</svg>
