<?xml version="1.0" standalone="no"?>
<!DOCTYPE svg PUBLIC "-//W3C//DTD SVG 20010904//EN"
 "http://www.w3.org/TR/2001/REC-SVG-20010904/DTD/svg10.dtd">
<svg version="1.0" xmlns="http://www.w3.org/2000/svg"
 width="100.000000pt" height="100.000000pt" viewBox="0 0 100.000000 100.000000"
 preserveAspectRatio="xMidYMid meet">
<metadata>
Created by potrace 1.16, written by Peter Selinger 2001-2019
</metadata>
<g transform="translate(0.000000,100.000000) scale(0.100000,-0.100000)"
fill="#000000" stroke="none">
<path d="M468 863 c17 -2 47 -2 65 0 17 2 3 4 -33 4 -36 0 -50 -2 -32 -4z"/>
<path d="M365 830 c62 -8 315 -4 323 5 3 3 -82 4 -189 4 -138 -2 -177 -4 -134
-9z"/>
<path d="M250 802 c0 -9 10 -11 128 -18 69 -5 92 -9 92 -20 0 -8 -7 -14 -16
-14 -14 0 -16 -7 -11 -39 4 -32 2 -38 -8 -28 -7 7 -10 18 -8 24 3 7 0 13 -6
13 -7 0 -11 -24 -11 -65 l0 -65 -65 0 c-41 0 -65 4 -65 11 0 6 7 9 15 5 8 -3
15 -1 15 4 0 5 6 7 14 4 8 -3 17 -1 21 5 4 7 -11 11 -44 11 -39 0 -51 4 -51
15 0 8 -7 15 -15 15 -10 0 -15 10 -15 30 0 20 5 30 15 30 8 0 15 7 15 15 0 11
-12 15 -45 15 -26 0 -45 -5 -45 -11 0 -6 7 -9 15 -5 8 3 15 1 15 -4 0 -6 -13
-10 -30 -10 -20 0 -30 -5 -30 -15 0 -8 -9 -15 -20 -15 -11 0 -20 -7 -20 -15 0
-8 -7 -15 -15 -15 -10 0 -15 -11 -15 -35 0 -19 -5 -35 -11 -35 -6 0 -8 9 -4
20 4 11 2 20 -4 20 -7 0 -11 -43 -11 -125 0 -69 4 -125 8 -125 5 0 8 14 7 30
-1 17 2 30 7 30 4 0 8 -22 8 -50 0 -29 5 -50 11 -50 6 0 8 9 4 20 -4 11 -2 20
4 20 6 0 11 -9 11 -20 0 -13 7 -20 20 -20 11 0 20 5 20 12 0 6 2 9 5 6 13 -12
-8 -38 -26 -33 -11 4 -19 2 -19 -5 0 -8 14 -11 39 -8 29 2 37 0 33 -10 -2 -7
-11 -11 -18 -8 -8 3 -14 1 -14 -4 0 -6 20 -10 45 -10 25 0 45 4 45 10 0 5 7 7
15 4 8 -4 15 -1 15 5 0 6 -13 11 -30 11 -20 0 -30 5 -30 15 0 8 -7 15 -15 15
-8 0 -15 9 -15 20 0 11 -7 20 -15 20 -10 0 -15 10 -15 30 0 21 -5 30 -16 30
-14 0 -14 -3 -4 -15 10 -12 10 -15 -3 -15 -13 0 -16 19 -19 113 -3 113 -3 113
20 109 15 -3 22 0 22 12 0 9 7 16 15 16 10 0 15 -11 15 -35 0 -32 2 -35 30
-35 17 0 30 -4 30 -10 0 -5 -7 -7 -15 -4 -8 4 -15 1 -15 -5 0 -7 24 -11 63
-12 39 0 55 -3 43 -8 -11 -4 -32 -7 -48 -6 -15 1 -28 -2 -28 -7 0 -4 34 -8 75
-8 l75 0 0 -110 c0 -60 4 -110 9 -110 5 0 9 17 10 38 1 74 4 92 12 92 5 0 9
12 9 26 0 14 -4 23 -10 19 -5 -3 -10 -1 -10 4 0 6 9 11 19 11 17 0 18 -4 10
-37 -12 -51 -11 -183 0 -183 6 0 10 8 11 18 0 9 3 59 6 110 l6 92 58 0 58 0 6
-92 c3 -51 6 -101 6 -110 1 -10 5 -18 11 -18 12 0 12 177 -1 201 -8 15 -7 19
4 19 8 0 14 -8 14 -17 -1 -28 13 -167 18 -172 2 -2 4 46 4 107 l0 112 65 0
c41 0 65 4 65 11 0 6 -6 9 -12 6 -7 -2 -22 -1 -33 4 -13 5 1 8 43 8 38 1 62 5
62 12 0 6 -7 9 -15 5 -8 -3 -15 -1 -15 4 0 6 14 10 30 10 27 0 30 3 30 34 0
26 5 35 22 39 12 4 24 4 27 2 2 -3 -1 -5 -7 -5 -7 0 -12 -7 -12 -15 0 -17 36
-21 42 -5 2 6 3 -45 3 -113 0 -114 -1 -123 -18 -119 -14 3 -15 7 -6 18 6 8 7
14 3 14 -5 0 -9 29 -8 65 1 36 -2 68 -7 71 -5 3 -9 -40 -9 -95 0 -83 -3 -101
-15 -101 -8 0 -15 -9 -15 -20 0 -11 -7 -20 -15 -20 -8 0 -15 -7 -15 -15 0 -10
-10 -15 -30 -15 -16 0 -30 -5 -30 -11 0 -6 7 -9 15 -5 8 3 15 1 15 -4 0 -6 20
-10 45 -10 25 0 45 4 45 10 0 5 -7 7 -15 4 -8 -4 -15 -1 -15 5 0 6 7 11 16 11
12 0 15 7 10 28 -3 15 -3 21 0 15 9 -21 44 -15 44 7 0 11 5 20 11 20 6 0 8 -9
4 -20 -3 -11 -2 -20 3 -20 6 0 10 64 9 160 0 125 -3 160 -14 160 -7 0 -13 7
-13 15 0 8 -9 15 -20 15 -11 0 -20 7 -20 15 0 10 -10 15 -30 15 -16 0 -30 4
-30 10 0 5 7 7 15 4 8 -4 15 -1 15 5 0 6 -19 11 -45 11 -33 0 -45 -4 -45 -15
0 -8 7 -15 15 -15 10 0 15 -10 15 -30 0 -20 -5 -30 -15 -30 -8 0 -15 -7 -15
-15 0 -12 -14 -15 -62 -16 -50 0 -58 -2 -40 -10 13 -5 28 -7 33 -3 5 3 9 1 9
-5 0 -6 7 -8 15 -5 8 4 15 1 15 -5 0 -7 -24 -11 -65 -11 l-65 0 0 65 c0 41 -4
65 -11 65 -6 0 -9 -6 -6 -13 2 -6 -1 -17 -8 -24 -10 -10 -12 -4 -8 28 5 32 3
39 -11 39 -9 0 -16 7 -16 15 0 12 14 15 65 15 36 0 65 -4 65 -9 0 -5 -14 -9
-30 -9 -17 1 -35 -3 -40 -8 -5 -5 30 -6 88 -3 112 8 102 6 102 20 0 8 -19 10
-57 7 -57 -5 -57 -5 -25 9 18 7 37 11 43 8 5 -4 9 -1 9 4 0 8 -81 11 -250 11
-137 0 -250 -4 -250 -8z m264 -37 c4 -10 -1 -15 -14 -15 -13 0 -18 5 -14 15 4
8 10 15 14 15 4 0 10 -7 14 -15z m21 -47 c-7 -17 -62 -20 -68 -3 -3 7 7 9 29
7 23 -3 34 0 34 9 0 7 2 10 5 7 3 -3 3 -12 0 -20z m-375 -18 c0 -5 -5 -10 -11
-10 -5 0 -7 5 -4 10 3 6 8 10 11 10 2 0 4 -4 4 -10z m695 0 c3 -5 1 -10 -4
-10 -6 0 -11 5 -11 10 0 6 2 10 4 10 3 0 8 -4 11 -10z m-663 -42 c-6 -6 -7 0
-4 19 5 21 7 23 10 9 2 -10 0 -22 -6 -28z m620 17 c3 -13 1 -22 -3 -19 -9 5
-13 44 -5 44 2 0 6 -11 8 -25z m-281 -27 c2 -30 3 -35 6 -15 6 39 23 33 23 -8
l0 -35 -60 0 -60 0 0 35 c0 41 17 47 23 8 3 -20 4 -15 6 15 1 40 3 42 31 42
28 0 30 -2 31 -42z m-296 -8 c3 -5 1 -10 -4 -10 -6 0 -11 5 -11 10 0 6 2 10 4
10 3 0 8 -4 11 -10z m545 0 c0 -5 -5 -10 -11 -10 -5 0 -7 5 -4 10 3 6 8 10 11
10 2 0 4 -4 4 -10z m-590 -26 c0 -8 -4 -12 -10 -9 -5 3 -10 10 -10 16 0 5 5 9
10 9 6 0 10 -7 10 -16z m640 7 c0 -6 -4 -13 -10 -16 -5 -3 -10 1 -10 9 0 9 5
16 10 16 6 0 10 -4 10 -9z m-571 -32 c-22 -13 -31 -11 -17 5 7 8 17 12 22 9 4
-3 2 -9 -5 -14z m506 -8 c-6 -5 -25 10 -25 20 0 5 6 4 14 -3 8 -7 12 -15 11
-17z m-695 -66 c0 -22 -4 -45 -8 -52 -4 -6 -7 17 -7 52 0 35 3 58 7 52 4 -7 8
-30 8 -52z m490 53 c0 -4 -27 -8 -60 -8 -33 0 -60 3 -60 8 0 4 27 8 60 8 33 0
60 -3 60 -8z m-135 -3 c-25 -9 -107 -12 -94 -4 8 5 34 8 59 8 25 0 41 -2 35
-4z m244 -4 c8 -5 -5 -7 -35 -4 -68 6 -77 11 -24 12 25 0 51 -3 59 -8z m-62
-37 c-7 -7 -209 -5 -216 2 -2 2 47 4 109 4 62 0 111 -3 107 -6z"/>
<path d="M490 620 c0 -5 5 -10 10 -10 6 0 10 5 10 10 0 6 -4 10 -10 10 -5 0
-10 -4 -10 -10z"/>
<path d="M220 772 c0 -15 37 -22 117 -22 48 0 73 -4 76 -12 4 -10 6 -10 6 0 1
15 -10 20 -59 27 -90 14 -140 17 -140 7z"/>
<path d="M130 739 c0 -5 5 -7 10 -4 6 3 10 8 10 11 0 2 -4 4 -10 4 -5 0 -10
-5 -10 -11z"/>
<path d="M855 740 c3 -5 8 -10 11 -10 2 0 4 5 4 10 0 6 -5 10 -11 10 -5 0 -7
-4 -4 -10z"/>
<path d="M265 730 c-3 -5 -1 -10 4 -10 6 0 11 5 11 10 0 6 -2 10 -4 10 -3 0
-8 -4 -11 -10z"/>
<path d="M720 730 c0 -5 5 -10 11 -10 5 0 7 5 4 10 -3 6 -8 10 -11 10 -2 0 -4
-4 -4 -10z"/>
<path d="M90 710 c0 -5 7 -7 15 -4 8 4 15 8 15 10 0 2 -7 4 -15 4 -8 0 -15 -4
-15 -10z"/>
<path d="M370 709 c0 -5 5 -7 10 -4 6 3 10 8 10 11 0 2 -4 4 -10 4 -5 0 -10
-5 -10 -11z"/>
<path d="M880 716 c0 -2 7 -6 15 -10 8 -3 15 -1 15 4 0 6 -7 10 -15 10 -8 0
-15 -2 -15 -4z"/>
<path d="M242 690 c0 -14 2 -19 5 -12 2 6 2 18 0 25 -3 6 -5 1 -5 -13z"/>
<path d="M752 690 c0 -14 2 -19 5 -12 2 6 2 18 0 25 -3 6 -5 1 -5 -13z"/>
<path d="M60 679 c0 -5 5 -7 10 -4 6 3 10 8 10 11 0 2 -4 4 -10 4 -5 0 -10 -5
-10 -11z"/>
<path d="M370 644 c0 -42 2 -45 16 -33 9 7 12 15 6 17 -5 1 -8 16 -6 32 2 17
-1 30 -6 30 -6 0 -10 -21 -10 -46z"/>
<path d="M612 665 c0 -16 2 -22 5 -12 2 9 2 23 0 30 -3 6 -5 -1 -5 -18z"/>
<path d="M925 680 c3 -5 8 -10 11 -10 2 0 4 5 4 10 0 6 -5 10 -11 10 -5 0 -7
-4 -4 -10z"/>
<path d="M30 649 c0 -5 5 -7 10 -4 6 3 10 8 10 11 0 2 -4 4 -10 4 -5 0 -10 -5
-10 -11z"/>
<path d="M952 612 c-8 -108 -3 -232 11 -232 4 0 7 63 7 140 0 77 -3 140 -7
140 -5 0 -10 -21 -11 -48z"/>
<path d="M600 620 c0 -5 5 -10 10 -10 6 0 10 5 10 10 0 6 -4 10 -10 10 -5 0
-10 -4 -10 -10z"/>
<path d="M116 611 c-4 -7 -5 -15 -2 -18 9 -9 19 4 14 18 -4 11 -6 11 -12 0z"/>
<path d="M870 606 c0 -9 5 -16 10 -16 6 0 10 4 10 9 0 6 -4 13 -10 16 -5 3
-10 -1 -10 -9z"/>
<path d="M119 578 c-7 -11 -4 -120 3 -124 4 -3 8 24 8 60 0 55 -4 77 -11 64z"/>
<path d="M295 510 l-50 -7 58 -1 c37 -1 56 2 52 8 -3 6 -7 9 -8 8 -1 0 -24 -4
-52 -8z"/>
<path d="M637 508 c-7 -4 9 -8 36 -8 26 0 47 2 47 4 0 8 -71 12 -83 4z"/>
<path d="M460 430 c-2 -30 -3 -63 -2 -72 1 -10 -3 -18 -8 -18 -6 0 -10 -27
-10 -60 0 -47 -3 -60 -15 -60 -18 0 -20 16 -2 23 17 8 -124 8 -150 1 -13 -4
-23 -11 -23 -16 0 -7 29 -9 78 -6 74 5 76 5 38 -8 -21 -8 -42 -11 -47 -8 -5 3
-9 0 -9 -5 0 -8 63 -11 193 -10 135 0 185 3 168 10 -14 5 -30 8 -35 6 -6 -3
-16 1 -22 7 -8 8 9 10 63 8 44 -3 73 0 73 6 0 15 -37 22 -115 22 -47 0 -65 -3
-55 -10 23 -15 6 -21 -62 -23 l-63 -2 0 33 c-1 17 3 32 7 32 4 0 8 -13 8 -30
0 -27 3 -30 30 -30 27 0 30 3 30 30 0 17 5 30 11 30 5 0 7 -4 4 -10 -3 -5 -1
-18 4 -27 8 -14 10 -5 11 40 0 33 -4 57 -11 57 -5 0 -8 3 -6 8 3 4 1 36 -3 72
l-7 65 -2 -87 -1 -88 -30 0 -29 0 -4 88 c-2 70 -4 76 -7 32z m53 -147 c-7 -2
-19 -2 -25 0 -7 3 -2 5 12 5 14 0 19 -2 13 -5z"/>
<path d="M490 370 c0 -5 5 -10 10 -10 6 0 10 5 10 10 0 6 -4 10 -10 10 -5 0
-10 -4 -10 -10z"/>
<path d="M810 369 c0 -5 5 -7 10 -4 6 3 10 8 10 11 0 2 -4 4 -10 4 -5 0 -10
-5 -10 -11z"/>
<path d="M205 330 c3 -5 8 -10 11 -10 2 0 4 5 4 10 0 6 -5 10 -11 10 -5 0 -7
-4 -4 -10z"/>
<path d="M480 336 c0 -9 30 -14 35 -6 4 6 -3 10 -14 10 -12 0 -21 -2 -21 -4z"/>
<path d="M780 329 c0 -5 5 -7 10 -4 6 3 10 8 10 11 0 2 -4 4 -10 4 -5 0 -10
-5 -10 -11z"/>
<path d="M60 320 c0 -5 5 -10 11 -10 5 0 7 5 4 10 -3 6 -8 10 -11 10 -2 0 -4
-4 -4 -10z"/>
<path d="M885 320 c-3 -5 1 -10 9 -10 9 0 16 5 16 10 0 6 -4 10 -9 10 -6 0
-13 -4 -16 -10z"/>
<path d="M370 290 c0 -5 5 -10 11 -10 5 0 7 5 4 10 -3 6 -8 10 -11 10 -2 0 -4
-4 -4 -10z"/>
<path d="M610 291 c0 -10 19 -25 25 -20 1 2 -3 10 -11 17 -8 7 -14 8 -14 3z"/>
<path d="M220 272 c0 -5 -13 -8 -30 -7 -16 1 -30 -2 -30 -7 0 -4 27 -8 60 -8
33 0 60 4 60 10 0 5 7 7 15 4 8 -4 15 -1 15 5 0 6 -19 11 -45 11 -25 0 -45 -4
-45 -8z"/>
<path d="M690 269 c0 -6 7 -9 15 -5 8 3 15 1 15 -4 0 -6 27 -10 60 -10 33 0
60 4 60 8 0 5 -13 8 -30 7 -16 -1 -30 2 -30 7 0 4 -20 8 -45 8 -26 0 -45 -5
-45 -11z"/>
<path d="M378 163 c7 -3 16 -2 19 1 4 3 -2 6 -13 5 -11 0 -14 -3 -6 -6z"/>
<path d="M453 163 c26 -2 68 -2 95 0 26 2 4 3 -48 3 -52 0 -74 -1 -47 -3z"/>
</g>
</svg>
