<?xml version="1.0" standalone="no"?>
<!DOCTYPE svg PUBLIC "-//W3C//DTD SVG 20010904//EN"
 "http://www.w3.org/TR/2001/REC-SVG-20010904/DTD/svg10.dtd">
<svg version="1.0" xmlns="http://www.w3.org/2000/svg"
 width="100.000000pt" height="100.000000pt" viewBox="0 0 100.000000 100.000000"
 preserveAspectRatio="xMidYMid meet">
<metadata>
Created by potrace 1.16, written by Peter Selinger 2001-2019
</metadata>
<g transform="translate(0.000000,100.000000) scale(0.100000,-0.100000)"
fill="#000000" stroke="none">
<path d="M203 993 c-20 -3 -33 -10 -33 -19 0 -9 -11 -14 -30 -14 -20 0 -30 -5
-30 -15 0 -8 -9 -15 -20 -15 -13 0 -20 -7 -20 -20 0 -11 -7 -20 -15 -20 -8 0
-15 -7 -15 -15 0 -8 -7 -15 -15 -15 -9 0 -15 -9 -15 -24 0 -13 -3 -31 -6 -40
-4 -11 -1 -16 10 -16 11 0 16 9 16 30 0 20 5 30 15 30 8 0 15 7 15 15 0 8 7
15 15 15 8 0 15 9 15 20 0 13 7 20 20 20 11 0 20 7 20 15 0 10 10 15 30 15 20
0 30 5 30 15 0 10 10 15 30 15 20 0 30 5 30 15 0 8 -3 14 -7 13 -5 0 -23 -3
-40 -5z"/>
<path d="M750 986 c0 -11 9 -16 30 -16 20 0 30 -5 30 -15 0 -10 10 -15 30 -15
20 0 30 -5 30 -15 0 -8 9 -15 20 -15 13 0 20 -7 20 -20 0 -11 7 -20 15 -20 8
0 15 -7 15 -15 0 -8 7 -15 15 -15 10 0 15 -10 15 -30 0 -21 5 -30 16 -30 11 0
14 5 10 16 -3 9 -6 27 -6 40 0 15 -6 24 -15 24 -8 0 -15 7 -15 15 0 8 -7 15
-15 15 -8 0 -15 9 -15 20 0 13 -7 20 -20 20 -11 0 -20 7 -20 15 0 10 -10 15
-30 15 -20 0 -30 5 -30 15 0 9 -9 15 -24 15 -13 0 -31 3 -40 6 -11 4 -16 1
-16 -10z"/>
<path d="M483 773 c9 -2 25 -2 35 0 9 3 1 5 -18 5 -19 0 -27 -2 -17 -5z"/>
<path d="M375 735 c22 -8 52 -14 68 -14 23 -1 27 -5 27 -31 0 -27 3 -30 30
-30 27 0 30 3 30 30 0 24 4 30 23 30 12 0 42 7 67 14 43 14 37 15 -120 14
-150 0 -161 -1 -125 -13z m138 -12 c-7 -2 -19 -2 -25 0 -7 3 -2 5 12 5 14 0
19 -2 13 -5z m-3 -23 c0 -5 -4 -10 -10 -10 -5 0 -10 5 -10 10 0 6 5 10 10 10
6 0 10 -4 10 -10z"/>
<path d="M280 711 c0 -13 38 -21 103 -21 l57 0 0 -49 c0 -31 5 -53 15 -61 13
-11 15 -6 15 34 0 25 -5 46 -10 46 -6 0 -10 8 -8 17 2 10 -7 22 -22 30 -28 14
-150 18 -150 4z"/>
<path d="M570 707 c-15 -8 -24 -20 -22 -30 2 -9 -2 -17 -8 -17 -5 0 -10 -21
-10 -46 0 -40 2 -45 15 -34 10 8 15 30 15 61 l0 49 58 0 c64 0 102 8 102 21 0
14 -122 10 -150 -4z"/>
<path d="M220 679 c0 -6 7 -9 15 -5 8 3 15 1 15 -4 0 -6 -13 -10 -30 -10 -20
0 -30 -5 -30 -15 0 -8 -7 -15 -15 -15 -10 0 -15 -11 -15 -35 0 -19 -5 -35 -11
-35 -6 0 -9 7 -5 15 3 8 1 15 -4 15 -6 0 -10 -39 -10 -90 0 -124 21 -118 24 7
0 24 4 37 8 30 4 -7 5 -45 2 -84 -6 -64 -5 -73 10 -73 9 0 16 -8 16 -20 0 -16
7 -20 30 -20 21 0 30 5 30 16 0 14 3 14 15 4 12 -10 15 -10 15 4 0 19 -56 23
-62 4 -3 -9 -6 -9 -12 0 -4 7 -2 12 3 12 6 0 11 14 11 30 0 17 -5 30 -11 30
-6 0 -9 -6 -6 -13 6 -16 -20 -41 -28 -27 -3 6 -1 10 5 10 9 0 11 29 8 100 -1
55 -1 96 0 90 2 -5 17 -10 33 -10 19 0 29 -5 29 -15 0 -8 7 -15 15 -15 8 0 15
-5 15 -11 0 -6 -7 -9 -15 -5 -8 3 -15 1 -15 -4 0 -6 35 -10 80 -10 44 0 80 -3
80 -7 0 -5 -22 -8 -50 -7 -27 0 -50 -4 -50 -8 0 -4 23 -8 50 -8 l50 0 0 -80
c0 -44 3 -80 8 -80 4 0 8 10 9 23 1 12 5 48 9 80 l6 57 58 0 58 0 6 -57 c4
-32 8 -68 9 -80 1 -13 5 -23 10 -23 4 0 7 36 7 80 l0 80 50 0 c28 0 50 4 50 8
0 5 -22 8 -50 8 -28 -1 -50 2 -50 6 0 5 36 8 80 8 45 0 80 4 80 10 0 5 -7 7
-15 4 -8 -4 -15 -1 -15 5 0 6 7 11 15 11 8 0 15 7 15 15 0 10 10 15 29 15 16
0 31 5 33 10 2 6 1 -35 0 -90 -3 -71 -1 -100 8 -100 6 0 8 -4 5 -10 -8 -14
-34 11 -28 27 3 7 0 13 -6 13 -15 0 -14 -57 1 -62 9 -3 9 -6 0 -12 -7 -4 -12
-2 -12 3 0 6 -13 11 -30 11 -21 0 -30 -5 -30 -16 0 -14 3 -14 15 -4 12 10 15
10 15 -4 0 -11 9 -16 30 -16 23 0 30 4 30 20 0 12 7 20 16 20 15 0 16 9 10 73
-3 39 -2 77 2 84 4 7 8 -6 8 -30 3 -125 24 -131 24 -7 0 51 -4 90 -10 90 -5 0
-7 -7 -4 -15 4 -8 1 -15 -5 -15 -6 0 -11 16 -11 35 0 24 -5 35 -15 35 -8 0
-15 7 -15 15 0 10 -10 15 -30 15 -16 0 -30 4 -30 10 0 5 7 7 15 4 8 -4 15 -1
15 5 0 6 -19 11 -45 11 -33 0 -45 -4 -45 -15 0 -8 7 -15 15 -15 10 0 15 -11
15 -35 l0 -35 -56 0 c-32 0 -53 -4 -49 -10 3 -5 12 -7 19 -4 7 3 29 -2 47 -11
19 -8 26 -13 16 -10 -10 3 -39 5 -63 5 l-44 0 -1 53 c0 44 -2 48 -10 28 -5
-14 -8 -30 -5 -37 3 -7 0 -15 -7 -18 -9 -3 -8 -8 3 -15 11 -8 -7 -11 -70 -11
-63 0 -81 3 -70 11 11 7 12 12 3 15 -7 3 -10 11 -7 18 3 7 0 23 -5 37 -8 20
-10 16 -10 -28 l-1 -53 -44 0 c-24 0 -53 -3 -63 -6 -17 -5 -17 -5 -1 6 10 6
34 13 55 16 59 7 52 14 -15 14 l-62 0 0 35 c0 24 5 35 15 35 8 0 15 7 15 15 0
11 -12 15 -45 15 -26 0 -45 -5 -45 -11z m0 -51 c0 -18 -2 -20 -9 -8 -6 8 -7
18 -5 22 9 14 14 9 14 -14z m573 -3 c-7 -21 -13 -19 -13 6 0 11 4 18 10 14 5
-3 7 -12 3 -20z m-540 -6 c-4 -15 -9 -17 -17 -9 -8 8 -7 13 4 20 8 5 16 10 17
10 0 0 -1 -9 -4 -21z m517 1 c0 -19 -18 -19 -23 -1 -3 14 -1 18 9 14 8 -3 14
-9 14 -13z m-210 -87 c0 -5 -27 -8 -60 -8 -33 0 -60 3 -60 8 0 4 27 7 60 7 33
0 60 -3 60 -7z"/>
<path d="M325 670 c-3 -5 -1 -10 4 -10 6 0 11 5 11 10 0 6 -2 10 -4 10 -3 0
-8 -4 -11 -10z"/>
<path d="M660 670 c0 -5 5 -10 11 -10 5 0 7 5 4 10 -3 6 -8 10 -11 10 -2 0 -4
-4 -4 -10z"/>
<path d="M294 629 c-3 -6 -1 -16 5 -22 8 -8 11 -5 11 11 0 24 -5 28 -16 11z"/>
<path d="M488 633 c6 -2 18 -2 25 0 6 3 1 5 -13 5 -14 0 -19 -2 -12 -5z"/>
<path d="M690 620 c0 -19 3 -21 12 -12 9 9 9 15 0 24 -9 9 -12 7 -12 -12z"/>
<path d="M215 570 c-3 -5 1 -10 10 -10 9 0 13 5 10 10 -3 6 -8 10 -10 10 -2 0
-7 -4 -10 -10z"/>
<path d="M765 570 c-3 -5 1 -10 10 -10 9 0 13 5 10 10 -3 6 -8 10 -10 10 -2 0
-7 -4 -10 -10z"/>
<path d="M90 549 c0 -5 5 -7 10 -4 6 3 10 8 10 11 0 2 -4 4 -10 4 -5 0 -10 -5
-10 -11z"/>
<path d="M895 550 c3 -5 8 -10 11 -10 2 0 4 5 4 10 0 6 -5 10 -11 10 -5 0 -7
-4 -4 -10z"/>
<path d="M90 500 c0 -16 5 -30 10 -30 6 0 10 14 10 30 0 17 -4 30 -10 30 -5 0
-10 -13 -10 -30z"/>
<path d="M890 500 c0 -16 5 -30 10 -30 6 0 10 14 10 30 0 17 -4 30 -10 30 -5
0 -10 -13 -10 -30z"/>
<path d="M211 494 c0 -11 3 -14 6 -6 3 7 2 16 -1 19 -3 4 -6 -2 -5 -13z"/>
<path d="M781 494 c0 -11 3 -14 6 -6 3 7 2 16 -1 19 -3 4 -6 -2 -5 -13z"/>
<path d="M370 445 c0 -19 4 -35 9 -35 5 0 8 16 8 35 -1 19 -5 35 -9 35 -4 0
-8 -16 -8 -35z"/>
<path d="M460 460 c-2 -14 -3 -31 -3 -37 1 -7 -3 -13 -8 -13 -5 0 -9 -29 -9
-64 l0 -63 -52 -15 c-53 -16 -53 -16 112 -16 165 0 165 0 113 15 l-53 16 0 63
c0 38 -4 64 -11 64 -5 0 -8 4 -5 8 3 5 1 22 -4 38 -7 25 -8 23 -9 -23 -1 -52
-2 -53 -30 -53 -29 0 -30 2 -34 53 -2 28 -5 41 -7 27z m77 -125 c22 -58 18
-65 -37 -65 -54 0 -56 2 -39 59 9 30 15 37 37 36 21 0 30 -7 39 -30z"/>
<path d="M470 310 c0 -27 3 -30 30 -30 27 0 30 3 30 30 0 27 -3 30 -30 30 -27
0 -30 -3 -30 -30z m40 0 c0 -5 -4 -10 -10 -10 -5 0 -10 5 -10 10 0 6 5 10 10
10 6 0 10 -4 10 -10z"/>
<path d="M488 473 c6 -2 18 -2 25 0 6 3 1 5 -13 5 -14 0 -19 -2 -12 -5z"/>
<path d="M613 445 c0 -22 2 -30 4 -17 2 12 2 30 0 40 -3 9 -5 -1 -4 -23z"/>
<path d="M90 450 c0 -5 5 -10 11 -10 5 0 7 5 4 10 -3 6 -8 10 -11 10 -2 0 -4
-4 -4 -10z"/>
<path d="M895 450 c-3 -5 -1 -10 4 -10 6 0 11 5 11 10 0 6 -2 10 -4 10 -3 0
-8 -4 -11 -10z"/>
<path d="M235 400 c3 -5 8 -10 11 -10 2 0 4 5 4 10 0 6 -5 10 -11 10 -5 0 -7
-4 -4 -10z"/>
<path d="M750 399 c0 -5 5 -7 10 -4 6 3 10 8 10 11 0 2 -4 4 -10 4 -5 0 -10
-5 -10 -11z"/>
<path d="M250 330 c0 -5 -7 -7 -15 -4 -8 4 -15 1 -15 -5 0 -6 19 -11 45 -11
26 0 45 5 45 11 0 6 7 9 15 5 8 -3 15 -1 15 4 0 6 -20 10 -45 10 -25 0 -45 -4
-45 -10z"/>
<path d="M660 330 c0 -5 7 -7 15 -4 8 4 15 1 15 -5 0 -6 19 -11 45 -11 26 0
45 5 45 11 0 6 -7 9 -15 5 -8 -3 -15 -1 -15 4 0 6 -20 10 -45 10 -25 0 -45 -4
-45 -10z"/>
<path d="M298 303 c-39 -10 -15 -23 43 -23 40 0 65 5 75 15 14 13 9 15 -43 14
-32 -1 -66 -3 -75 -6z"/>
<path d="M584 295 c16 -16 136 -22 136 -6 0 13 -37 21 -98 21 -48 0 -52 -2
-38 -15z"/>
<path d="M483 223 c9 -2 25 -2 35 0 9 3 1 5 -18 5 -19 0 -27 -2 -17 -5z"/>
<path d="M4 204 c3 -9 6 -27 6 -40 0 -15 6 -24 15 -24 8 0 15 -7 15 -15 0 -8
7 -15 15 -15 8 0 15 -9 15 -20 0 -13 7 -20 20 -20 11 0 20 -7 20 -15 0 -10 10
-15 30 -15 20 0 30 -5 30 -15 0 -9 9 -15 24 -15 13 0 31 -3 40 -6 11 -4 16 -1
16 10 0 11 -9 16 -30 16 -20 0 -30 5 -30 15 0 10 -10 15 -30 15 -20 0 -30 5
-30 15 0 8 -9 15 -20 15 -13 0 -20 7 -20 20 0 11 -7 20 -15 20 -8 0 -15 7 -15
15 0 8 -7 15 -15 15 -10 0 -15 10 -15 30 0 21 -5 30 -16 30 -11 0 -14 -5 -10
-16z"/>
<path d="M970 190 c0 -20 -5 -30 -15 -30 -8 0 -15 -7 -15 -15 0 -8 -7 -15 -15
-15 -8 0 -15 -9 -15 -20 0 -13 -7 -20 -20 -20 -11 0 -20 -7 -20 -15 0 -10 -10
-15 -30 -15 -20 0 -30 -5 -30 -15 0 -10 -10 -15 -30 -15 -21 0 -30 -5 -30 -16
0 -11 5 -14 16 -10 9 3 27 6 40 6 15 0 24 6 24 15 0 10 10 15 30 15 20 0 30 5
30 15 0 8 9 15 20 15 13 0 20 7 20 20 0 11 7 20 15 20 8 0 15 7 15 15 0 8 7
15 15 15 9 0 15 9 15 24 0 13 3 31 6 40 4 11 1 16 -10 16 -11 0 -16 -9 -16
-30z"/>
</g>
</svg>
