<?xml version="1.0" standalone="no"?>
<!DOCTYPE svg PUBLIC "-//W3C//DTD SVG 20010904//EN"
 "http://www.w3.org/TR/2001/REC-SVG-20010904/DTD/svg10.dtd">
<svg version="1.0" xmlns="http://www.w3.org/2000/svg"
 width="100.000000pt" height="100.000000pt" viewBox="0 0 100.000000 100.000000"
 preserveAspectRatio="xMidYMid meet">
<metadata>
Created by potrace 1.16, written by Peter Selinger 2001-2019
</metadata>
<g transform="translate(0.000000,100.000000) scale(0.100000,-0.100000)"
fill="#000000" stroke="none">
<path d="M7 993 c-12 -11 -8 -23 8 -23 8 0 15 7 15 15 0 16 -12 20 -23 8z"/>
<path d="M314 833 c10 -11 336 -12 361 -2 11 4 -64 8 -174 8 -107 1 -191 -2
-187 -6z"/>
<path d="M220 802 c0 -5 42 -8 93 -8 52 1 105 -2 118 -5 13 -4 -42 -7 -123 -8
-97 -1 -148 -5 -148 -12 0 -5 5 -7 11 -3 6 3 15 1 19 -6 6 -9 13 -9 28 -1 28
15 51 14 67 -3 12 -12 9 -13 -25 -9 -33 5 -40 3 -40 -11 0 -9 -7 -16 -15 -16
-8 0 -15 7 -15 15 0 10 -10 15 -30 15 -20 0 -30 -5 -30 -15 0 -8 -9 -15 -20
-15 -11 0 -20 -7 -20 -15 0 -8 -7 -15 -15 -15 -10 0 -15 -10 -15 -30 0 -16 5
-30 10 -30 9 0 14 14 12 32 -1 3 5 9 13 12 9 3 15 -1 15 -9 0 -8 5 -15 10 -15
6 0 10 9 10 20 0 12 7 20 16 20 11 0 15 6 11 19 -3 14 0 17 14 14 15 -4 19
-15 19 -49 0 -34 4 -44 16 -44 12 0 15 -7 12 -22 -4 -22 -1 -23 44 -20 32 3
48 8 48 18 0 8 6 11 15 8 45 -18 -22 -54 -98 -54 -19 0 -37 -5 -39 -12 -3 -9
-6 -9 -12 0 -4 7 -2 12 3 12 6 0 11 7 11 15 0 17 -21 20 -36 5 -7 -7 -19 -7
-35 -1 -23 9 -23 10 9 10 25 1 32 5 32 21 0 16 -7 20 -35 20 -33 0 -35 -2 -35
-35 0 -21 5 -35 13 -35 8 0 12 -19 12 -60 0 -41 -4 -60 -12 -60 -8 0 -13 -13
-13 -30 0 -20 -5 -30 -15 -30 -10 0 -15 -11 -15 -35 0 -24 5 -35 15 -35 8 0
15 -7 15 -15 0 -8 9 -15 20 -15 11 0 20 -7 20 -15 0 -10 10 -15 30 -15 21 0
30 5 30 16 0 12 -7 15 -27 10 -16 -3 -22 -3 -15 0 17 8 15 34 -3 34 -8 0 -15
7 -15 15 0 8 7 15 15 15 8 0 15 9 15 20 0 11 -7 20 -15 20 -8 0 -15 -8 -15
-19 0 -12 -9 -20 -23 -23 -20 -4 -23 -1 -19 19 3 14 11 23 23 23 17 0 19 9 19
90 0 73 3 90 15 90 8 0 15 -7 15 -15 0 -19 86 -22 92 -3 3 8 33 14 81 16 l77
4 0 64 c0 57 -2 64 -20 64 -17 0 -20 -7 -20 -49 0 -39 4 -51 18 -55 10 -3 6
-4 -8 -3 -20 2 -24 7 -23 25 3 20 -1 22 -52 22 -42 0 -55 3 -55 15 0 8 -5 15
-11 15 -6 0 -17 7 -25 15 -14 13 -13 15 10 15 16 0 26 6 26 15 0 11 12 15 45
15 25 0 45 4 45 10 0 5 -7 7 -15 4 -8 -4 -15 -1 -15 5 0 7 28 11 80 11 64 0
80 3 80 15 0 10 10 15 30 15 20 0 30 -5 30 -15 0 -12 17 -15 89 -15 49 0 100
4 113 8 13 5 34 5 48 1 14 -4 21 -7 16 -8 -5 -1 -3 -8 5 -17 8 -10 22 -13 38
-10 14 3 20 3 14 0 -18 -8 -16 -34 2 -34 9 0 15 -9 15 -24 0 -19 4 -22 25 -18
15 2 25 0 25 -7 0 -6 5 -11 10 -11 6 0 10 14 10 30 0 20 -5 30 -15 30 -8 0
-15 7 -15 15 0 8 -9 15 -20 15 -11 0 -20 7 -20 15 0 10 -10 15 -30 15 -16 0
-30 5 -30 11 0 6 7 9 15 5 8 -3 15 -1 15 5 0 7 -48 10 -145 7 -80 -1 -145 0
-145 5 0 4 30 7 68 8 141 2 162 3 162 11 0 4 -126 8 -280 8 -154 0 -280 -4
-280 -8z m697 -138 c-3 -3 -12 -4 -19 -1 -8 3 -5 6 6 6 11 1 17 -2 13 -5z"/>
<path d="M488 753 c6 -2 18 -2 25 0 6 3 1 5 -13 5 -14 0 -19 -2 -12 -5z"/>
<path d="M690 735 l-35 -13 63 -1 c49 -1 62 2 62 14 0 19 -41 19 -90 0z"/>
<path d="M410 715 c0 -16 6 -25 15 -25 8 0 15 -4 15 -10 0 -5 7 -7 15 -4 8 4
15 1 15 -5 0 -6 14 -11 30 -11 28 0 30 -3 30 -35 0 -32 -2 -35 -30 -35 -28 0
-30 3 -30 35 0 24 -5 35 -15 35 -11 0 -15 -12 -15 -50 l0 -50 60 0 60 0 0 66
0 66 -29 -7 c-16 -3 -32 -2 -35 3 -3 6 3 8 14 5 14 -4 20 0 20 11 0 10 -9 16
-24 16 -13 0 -30 2 -38 3 -7 2 -10 2 -5 0 13 -8 7 -33 -8 -33 -8 0 -15 9 -15
19 0 10 -7 21 -15 25 -11 4 -15 -1 -15 -19z"/>
<path d="M560 715 c0 -26 25 -35 32 -13 3 7 3 -15 0 -50 -4 -52 -2 -62 12 -62
9 0 16 8 16 17 0 13 3 14 11 6 9 -9 8 -16 -5 -28 -9 -9 -19 -14 -24 -11 -4 2
-14 1 -22 -5 -10 -6 9 -9 57 -9 39 0 80 -3 90 -6 16 -6 16 -5 -1 8 -21 16 -31
48 -15 48 5 0 9 -4 9 -10 0 -5 14 -10 30 -10 23 0 30 4 30 20 0 18 -7 20 -80
20 l-80 0 0 45 c0 33 -4 45 -15 45 -8 0 -15 5 -15 10 0 6 -7 10 -15 10 -9 0
-15 -9 -15 -25z m130 -109 c0 -8 -7 -16 -15 -20 -10 -4 -15 1 -15 14 0 11 7
20 15 20 8 0 15 -6 15 -14z"/>
<path d="M365 714 c9 -9 19 -13 23 -10 3 4 0 11 -8 16 -24 15 -33 11 -15 -6z"/>
<path d="M780 710 c0 -5 -7 -7 -15 -4 -8 4 -15 1 -15 -5 0 -6 14 -11 30 -11
20 0 30 5 30 15 0 8 -7 15 -15 15 -8 0 -15 -4 -15 -10z"/>
<path d="M151 661 c-8 -5 -9 -11 -3 -15 5 -3 12 1 16 9 6 17 6 18 -13 6z"/>
<path d="M768 663 c-10 -2 -18 -9 -18 -14 0 -6 5 -7 11 -4 5 4 19 -4 30 -17
l21 -23 -4 29 c-3 31 -11 37 -40 29z"/>
<path d="M841 654 c0 -11 3 -14 6 -6 3 7 2 16 -1 19 -3 4 -6 -2 -5 -13z"/>
<path d="M30 625 c0 -24 -5 -35 -15 -35 -8 0 -15 -4 -15 -8 0 -4 9 -8 20 -8
11 0 20 4 20 8 0 4 5 8 10 8 6 0 10 -32 10 -75 0 -60 3 -75 15 -75 12 0 15 13
15 60 0 37 -4 60 -11 60 -6 0 -9 7 -5 15 3 8 1 15 -4 15 -6 0 -10 9 -10 20 0
11 -5 20 -11 20 -6 0 -9 7 -5 15 3 8 1 15 -4 15 -6 0 -10 -16 -10 -35z"/>
<path d="M953 646 c3 -8 2 -16 -3 -18 -5 -2 -2 -30 5 -63 l13 -60 1 78 c1 50
-3 77 -10 77 -6 0 -9 -6 -6 -14z"/>
<path d="M491 624 c0 -11 3 -14 6 -6 3 7 2 16 -1 19 -3 4 -6 -2 -5 -13z"/>
<path d="M840 610 c0 -11 -7 -20 -15 -20 -18 0 -20 -26 -2 -33 6 -3 -7 -2 -30
0 -35 5 -43 3 -43 -11 0 -12 10 -16 45 -16 33 0 45 4 45 15 0 10 11 15 35 15
l35 0 0 -75 c0 -63 -3 -75 -16 -75 -14 0 -14 3 -4 15 7 8 8 15 3 15 -5 0 -8
23 -7 50 1 28 -3 50 -7 50 -5 0 -9 -36 -9 -80 0 -64 -3 -80 -15 -80 -8 0 -15
-9 -15 -20 0 -11 -7 -20 -15 -20 -8 0 -15 -7 -15 -15 0 -10 -10 -15 -30 -15
-16 0 -30 -4 -30 -10 0 -5 7 -7 15 -4 11 4 15 0 15 -17 0 -22 15 -18 15 4 1 7
7 11 14 9 7 -1 15 7 18 18 3 11 10 17 15 14 5 -3 12 3 15 15 3 12 12 21 19 21
8 0 14 4 14 8 0 5 10 19 23 32 18 21 23 38 26 107 2 69 1 83 -12 83 -8 0 -17
-5 -19 -12 -3 -7 -14 -9 -30 -5 -21 6 -24 11 -20 32 2 15 0 25 -7 25 -6 0 -11
-9 -11 -20z"/>
<path d="M870 610 c0 -13 7 -20 20 -20 13 0 20 7 20 20 0 13 -7 20 -20 20 -13
0 -20 -7 -20 -20z"/>
<path d="M985 580 c3 -5 8 -10 11 -10 2 0 4 5 4 10 0 6 -5 10 -11 10 -5 0 -7
-4 -4 -10z"/>
<path d="M4 500 c-1 -44 3 -60 13 -60 7 0 13 -5 13 -11 0 -6 -7 -9 -15 -5 -8
3 -15 1 -15 -4 0 -6 7 -10 15 -10 10 0 15 -11 15 -35 0 -19 5 -35 11 -35 6 0
8 9 4 20 -3 11 -2 20 3 20 5 0 12 9 15 20 3 11 1 18 -4 14 -5 -3 -9 2 -9 10 0
9 -4 16 -10 16 -6 0 -10 27 -10 60 0 42 -4 60 -13 60 -9 0 -13 -18 -13 -60z"/>
<path d="M238 523 c-10 -2 -18 -9 -18 -15 0 -6 25 -8 64 -6 49 2 62 0 58 -10
-2 -7 -10 -11 -16 -9 -6 2 -20 1 -31 -4 -14 -5 -7 -8 28 -8 46 -1 47 0 47 29
0 30 0 30 -57 29 -32 -1 -66 -3 -75 -6z"/>
<path d="M385 520 c3 -5 10 -10 16 -10 5 0 9 5 9 10 0 6 -7 10 -16 10 -8 0
-12 -4 -9 -10z"/>
<path d="M440 523 c0 -5 27 -8 60 -8 33 0 60 3 60 8 0 4 -27 7 -60 7 -33 0
-60 -3 -60 -7z"/>
<path d="M578 523 c7 -3 16 -2 19 1 4 3 -2 6 -13 5 -11 0 -14 -3 -6 -6z"/>
<path d="M620 500 c0 -30 1 -30 53 -29 36 0 46 3 32 8 -11 5 -23 7 -28 4 -4
-2 -13 2 -21 9 -11 11 -2 13 56 10 41 -3 68 0 68 6 0 14 -36 22 -102 22 -58 0
-58 0 -58 -30z"/>
<path d="M390 468 c0 -25 -3 -29 -10 -18 -7 10 -10 -14 -10 -77 0 -62 4 -93
11 -93 6 0 9 6 6 14 -5 13 31 31 42 21 2 -3 -1 -5 -7 -5 -7 0 -12 -13 -12 -30
l0 -30 -110 0 c-74 0 -110 -4 -110 -11 0 -6 -7 -9 -15 -5 -8 3 -15 0 -15 -6 0
-7 19 -8 58 -4 31 3 91 8 132 9 69 3 75 5 81 28 13 44 10 79 -6 79 -12 0 -15
16 -15 80 0 47 -4 80 -10 80 -5 0 -10 -15 -10 -32z"/>
<path d="M440 485 c0 -12 13 -15 60 -15 47 0 60 3 60 15 0 12 -13 15 -60 15
-47 0 -60 -3 -60 -15z"/>
<path d="M570 491 c0 -5 6 -14 14 -20 12 -10 13 -8 9 8 -5 21 -23 30 -23 12z"/>
<path d="M970 496 c0 -2 7 -6 15 -10 8 -3 15 -1 15 4 0 6 -7 10 -15 10 -8 0
-15 -2 -15 -4z"/>
<path d="M440 409 c0 -45 2 -49 15 -35 8 8 15 31 15 50 0 25 -4 36 -15 36 -11
0 -15 -12 -15 -51z"/>
<path d="M646 451 c-9 -14 -3 -111 6 -111 4 0 8 27 8 60 0 59 -3 69 -14 51z"/>
<path d="M985 450 c-3 -5 -1 -10 4 -10 6 0 11 5 11 10 0 6 -2 10 -4 10 -3 0
-8 -4 -11 -10z"/>
<path d="M343 415 c0 -22 2 -30 4 -17 2 12 2 30 0 40 -3 9 -5 -1 -4 -23z"/>
<path d="M530 394 c0 -53 0 -54 -30 -54 -16 0 -30 -4 -30 -10 0 -14 15 -13 54
4 31 13 34 18 37 63 3 41 1 49 -13 50 -15 2 -18 -7 -18 -53z"/>
<path d="M590 375 c0 -36 4 -65 10 -65 5 0 7 -7 4 -15 -4 -8 -1 -15 5 -15 7 0
11 28 11 80 0 64 -3 80 -15 80 -12 0 -15 -14 -15 -65z"/>
<path d="M943 393 c2 -27 3 -40 0 -30 -6 24 -33 22 -33 -3 0 -13 -7 -20 -20
-20 -11 0 -20 -7 -20 -15 0 -8 -7 -15 -16 -15 -11 0 -15 -6 -11 -19 3 -14 0
-17 -14 -14 -13 4 -19 0 -19 -11 0 -11 9 -16 30 -16 20 0 30 5 30 15 0 8 9 15
20 15 11 0 20 7 20 15 0 8 7 15 15 15 8 0 15 7 15 15 0 8 7 15 15 15 11 0 15
12 15 50 0 40 -3 50 -16 50 -14 0 -16 -8 -11 -47z"/>
<path d="M985 420 c-3 -5 -1 -10 4 -10 6 0 11 5 11 10 0 6 -2 10 -4 10 -3 0
-8 -4 -11 -10z"/>
<path d="M145 400 c3 -5 8 -10 11 -10 2 0 4 5 4 10 0 6 -5 10 -11 10 -5 0 -7
-4 -4 -10z"/>
<path d="M472 368 c6 -18 25 -20 31 -3 5 10 0 15 -14 15 -12 0 -19 -5 -17 -12z"/>
<path d="M160 327 c0 -8 12 -19 26 -25 14 -7 23 -16 19 -21 -3 -5 -1 -12 5
-16 5 -3 10 3 10 15 0 12 5 18 10 15 6 -4 8 -11 5 -16 -4 -5 2 -9 12 -10 10 0
26 -2 37 -4 10 -2 28 0 40 5 16 7 10 9 -26 9 -36 1 -48 5 -48 16 0 10 -10 15
-30 15 -20 0 -30 5 -30 15 0 8 -7 15 -15 15 -8 0 -15 -6 -15 -13z"/>
<path d="M205 330 c3 -5 8 -10 11 -10 2 0 4 5 4 10 0 6 -5 10 -11 10 -5 0 -7
-4 -4 -10z"/>
<path d="M560 329 c0 -5 5 -7 10 -4 6 3 10 8 10 11 0 2 -4 4 -10 4 -5 0 -10
-5 -10 -11z"/>
<path d="M473 303 c9 -2 23 -2 30 0 6 3 -1 5 -18 5 -16 0 -22 -2 -12 -5z"/>
<path d="M564 273 c4 -21 8 -47 9 -58 2 -18 10 -20 105 -23 71 -2 102 1 102 9
0 6 -7 9 -15 5 -8 -3 -15 -1 -15 4 0 6 -35 10 -80 10 l-80 0 0 45 c0 35 -4 45
-16 45 -14 0 -15 -7 -10 -37z"/>
<path d="M444 273 c11 -11 96 -12 102 -1 3 4 -21 8 -52 8 -32 0 -54 -3 -50 -7z"/>
<path d="M675 271 c19 -8 85 -4 94 4 2 3 -22 5 -55 4 -38 0 -52 -3 -39 -8z"/>
<path d="M442 220 c1 -18 6 -30 15 -30 8 0 13 12 13 30 0 19 -5 30 -14 30 -10
0 -14 -10 -14 -30z"/>
<path d="M530 220 c0 -39 24 -39 27 0 2 21 -2 30 -12 30 -10 0 -15 -10 -15
-30z"/>
<path d="M610 240 c8 -6 38 -10 65 -10 28 0 76 -3 108 -6 42 -5 57 -3 57 6 0
7 -7 10 -15 6 -8 -3 -15 -1 -15 4 0 6 -45 10 -107 10 -75 0 -103 -3 -93 -10z"/>
<path d="M250 208 c0 -6 -7 -8 -15 -4 -8 3 -15 1 -15 -4 0 -6 44 -10 104 -10
84 0 105 3 110 15 5 14 -7 16 -89 14 -55 -1 -95 -6 -95 -11z"/>
<path d="M485 210 c4 -6 11 -8 16 -5 14 9 11 15 -7 15 -8 0 -12 -5 -9 -10z"/>
<path d="M470 187 c-3 -3 -45 -7 -93 -9 -162 -9 -102 -18 123 -18 212 0 271 5
164 15 -156 13 -190 15 -194 12z"/>
<path d="M453 133 c26 -2 68 -2 95 0 26 2 4 3 -48 3 -52 0 -74 -1 -47 -3z"/>
</g>
</svg>
