<?xml version="1.0" standalone="no"?>
<!DOCTYPE svg PUBLIC "-//W3C//DTD SVG 20010904//EN"
 "http://www.w3.org/TR/2001/REC-SVG-20010904/DTD/svg10.dtd">
<svg version="1.0" xmlns="http://www.w3.org/2000/svg"
 width="180.000000pt" height="180.000000pt" viewBox="0 0 180.000000 180.000000"
 preserveAspectRatio="xMidYMid meet">
<metadata>
Created by potrace 1.16, written by Peter Selinger 2001-2019
</metadata>
<g transform="translate(0.000000,180.000000) scale(0.100000,-0.100000)"
fill="#000000" stroke="none">
<path d="M645 1488 c-132 -17 -348 -97 -424 -157 -21 -17 -42 -31 -46 -31 -13
0 -129 -125 -152 -164 -13 -21 -23 -52 -23 -69 l0 -32 18 32 c51 92 65 112
116 161 30 28 58 52 61 52 4 0 25 14 46 31 81 64 291 140 440 158 189 24 456
10 594 -31 101 -30 239 -92 284 -127 21 -17 42 -31 46 -31 3 0 31 -24 61 -52
51 -49 65 -69 116 -161 l18 -32 0 32 c0 17 -10 48 -22 69 -24 39 -140 164
-153 164 -4 0 -25 14 -46 31 -81 64 -291 140 -440 158 -99 13 -393 12 -494 -1z"/>
<path d="M705 1370 c-76 -13 -198 -50 -223 -66 -41 -27 -82 -70 -82 -88 0 -43
77 -98 177 -127 102 -29 98 -31 117 63 15 79 54 161 99 209 17 18 17 19 -15
18 -18 -1 -51 -5 -73 -9z m15 -67 c-19 -30 -36 -79 -46 -129 l-16 -82 -65 19
c-72 20 -105 38 -144 78 l-27 26 41 37 c22 20 52 41 66 46 55 21 167 50 193
51 l27 1 -29 -47z"/>
<path d="M1006 1362 c46 -49 84 -130 100 -210 19 -94 15 -92 117 -63 100 29
177 84 177 128 0 20 -73 88 -109 101 -61 23 -181 51 -240 58 l-65 7 20 -21z
m162 -33 c113 -31 125 -37 169 -77 l41 -37 -27 -26 c-39 -40 -72 -58 -144 -78
l-65 -19 -16 82 c-10 50 -27 99 -46 129 -28 44 -28 47 -9 47 12 0 55 -9 97
-21z"/>
<path d="M862 1217 c-24 -25 -65 -144 -58 -164 7 -18 185 -18 192 0 7 20 -34
139 -58 164 -12 13 -29 23 -38 23 -9 0 -26 -10 -38 -23z m61 -24 c16 -18 47
-97 47 -120 0 -9 -21 -13 -70 -13 -78 0 -78 0 -54 70 15 43 40 80 54 80 4 0
14 -8 23 -17z"/>
<path d="M186 1063 c-49 -119 -44 -210 19 -333 27 -51 138 -170 160 -170 8 0
15 -4 15 -9 0 -11 125 -81 144 -81 7 0 27 -7 44 -16 42 -20 200 -59 209 -51 3
4 -3 17 -14 30 -25 26 -59 100 -66 142 -3 17 -12 66 -21 110 -8 44 -15 107
-16 140 l0 60 -57 13 c-61 14 -127 35 -180 58 -17 8 -36 14 -43 14 -23 0 -130
92 -148 126 l-18 35 -28 -68z m172 -113 c8 0 28 -6 45 -14 53 -23 119 -44 180
-58 l57 -13 0 -60 c1 -33 8 -96 16 -140 9 -44 18 -93 21 -110 2 -16 13 -49 24
-72 10 -24 19 -45 19 -47 0 -7 -99 23 -134 40 -16 8 -35 14 -42 14 -19 0 -144
70 -144 81 0 5 -7 9 -15 9 -22 0 -133 119 -160 170 -56 110 -64 183 -28 271
l15 38 66 -54 c37 -30 73 -55 80 -55z"/>
<path d="M1568 1097 c-17 -35 -125 -127 -150 -127 -7 0 -24 -6 -38 -13 -33
-17 -110 -42 -182 -58 l-58 -14 0 -60 c-1 -33 -8 -96 -16 -140 -9 -44 -18 -93
-21 -110 -6 -41 -47 -128 -67 -144 -51 -42 16 -37 169 14 103 34 215 89 215
106 0 5 7 9 15 9 26 0 136 123 166 186 60 125 62 210 7 332 l-24 53 -16 -34z
m53 -133 c21 -93 -30 -219 -131 -321 -33 -35 -67 -63 -75 -63 -8 0 -15 -4 -15
-9 0 -16 -112 -72 -215 -106 -55 -19 -101 -32 -103 -30 -2 1 6 22 17 46 10 24
22 58 24 74 3 17 12 66 21 110 8 44 15 107 16 140 l0 60 58 14 c72 16 149 41
182 58 14 7 32 13 40 13 8 0 44 24 80 54 63 51 65 52 77 32 7 -12 17 -44 24
-72z"/>
<path d="M787 833 c15 -121 75 -253 113 -253 38 0 98 132 113 253 l7 47 -120
0 -120 0 7 -47z m203 3 c0 -39 -48 -182 -70 -208 l-20 -23 -20 23 c-22 26 -70
169 -70 208 0 24 1 24 90 24 89 0 90 0 90 -24z"/>
<path d="M0 723 c0 -17 10 -49 23 -69 27 -45 128 -146 193 -193 45 -32 208
-106 284 -129 179 -55 621 -55 800 0 76 23 239 97 284 129 65 47 166 148 194
193 12 20 22 52 22 69 l0 32 -18 -32 c-9 -17 -27 -49 -38 -70 -23 -39 -93
-107 -178 -169 -46 -34 -207 -108 -286 -132 -176 -54 -584 -54 -760 0 -194 59
-405 196 -464 301 -11 21 -29 53 -38 70 l-18 32 0 -32z"/>
</g>
</svg>
