<?xml version="1.0" standalone="no"?>
<!DOCTYPE svg PUBLIC "-//W3C//DTD SVG 20010904//EN"
 "http://www.w3.org/TR/2001/REC-SVG-20010904/DTD/svg10.dtd">
<svg version="1.0" xmlns="http://www.w3.org/2000/svg"
 width="100.000000pt" height="100.000000pt" viewBox="0 0 100.000000 100.000000"
 preserveAspectRatio="xMidYMid meet">
<metadata>
Created by potrace 1.16, written by Peter Selinger 2001-2019
</metadata>
<g transform="translate(0.000000,100.000000) scale(0.100000,-0.100000)"
fill="#000000" stroke="none">
<path d="M250 990 c0 -5 -8 -10 -18 -10 -10 0 -24 -9 -32 -20 -8 -11 -21 -20
-30 -20 -9 0 -22 -9 -30 -20 -8 -11 -20 -20 -27 -20 -7 0 -13 -6 -13 -13 0 -7
-9 -19 -20 -27 -11 -8 -20 -21 -20 -30 0 -9 -9 -22 -20 -30 -11 -8 -20 -22
-20 -32 0 -10 -4 -18 -10 -18 -5 0 -10 -18 -10 -40 0 -22 5 -40 10 -40 6 0 10
14 10 30 0 17 5 30 10 30 6 0 10 8 10 18 0 10 9 24 20 32 11 8 20 21 20 30 0
9 9 22 20 30 11 8 20 20 20 27 0 7 6 13 13 13 7 0 19 9 27 20 8 11 21 20 30
20 9 0 22 9 30 20 8 11 22 20 32 20 10 0 18 5 18 10 0 6 14 10 30 10 17 0 30
5 30 10 0 6 -18 10 -40 10 -22 0 -40 -4 -40 -10z"/>
<path d="M670 990 c0 -5 14 -10 30 -10 17 0 30 -4 30 -10 0 -5 8 -10 18 -10
10 0 24 -9 32 -20 8 -11 21 -20 30 -20 9 0 22 -9 30 -20 8 -11 20 -20 27 -20
7 0 13 -6 13 -13 0 -7 9 -19 20 -27 11 -8 20 -21 20 -30 0 -9 9 -22 20 -30 11
-8 20 -22 20 -32 0 -10 5 -18 10 -18 6 0 10 -13 10 -30 0 -16 5 -30 10 -30 6
0 10 18 10 40 0 22 -4 40 -10 40 -5 0 -10 8 -10 18 0 10 -9 24 -20 32 -11 8
-20 21 -20 30 0 9 -9 22 -20 30 -11 8 -20 20 -20 27 0 7 -6 13 -13 13 -7 0
-19 9 -27 20 -8 11 -21 20 -30 20 -9 0 -22 9 -30 20 -8 11 -22 20 -32 20 -10
0 -18 5 -18 10 0 6 -18 10 -40 10 -22 0 -40 -4 -40 -10z"/>
<path d="M440 740 c18 -6 7 -8 -42 -9 -38 -1 -68 -5 -68 -11 0 -5 -15 -10 -32
-10 -25 0 -29 -3 -18 -10 11 -7 6 -10 -20 -10 -26 0 -31 -3 -20 -10 13 -8 12
-10 -3 -10 -19 0 -67 -42 -67 -60 0 -5 -4 -10 -10 -10 -6 0 -10 -39 -10 -98 0
-86 2 -99 20 -112 11 -8 20 -18 20 -23 0 -15 28 -37 47 -37 15 0 16 -2 3 -10
-11 -7 -6 -10 20 -10 26 0 31 -3 20 -10 -11 -7 -7 -10 18 -10 17 0 32 -4 32
-10 0 -6 30 -11 68 -11 55 -1 61 -3 32 -9 -23 -5 0 -7 70 -7 70 0 93 2 70 7
-29 6 -23 8 33 9 37 0 67 5 67 11 0 6 15 10 33 10 24 0 28 3 17 10 -11 7 -6
10 20 10 26 0 31 3 20 10 -13 8 -12 10 3 10 19 0 47 22 47 37 0 5 9 15 20 23
18 13 20 26 20 112 0 59 -4 98 -10 98 -5 0 -10 5 -10 10 0 18 -48 60 -67 60
-15 0 -16 2 -3 10 11 7 6 10 -20 10 -26 0 -31 3 -20 10 11 7 7 10 -17 10 -18
0 -33 5 -33 10 0 6 -30 10 -67 11 -50 1 -61 3 -43 9 17 5 -3 8 -60 8 -57 0
-77 -3 -60 -8z m40 -38 c0 -4 -9 -14 -20 -22 -11 -8 -20 -24 -20 -35 0 -16 -2
-17 -10 -5 -7 11 -10 2 -10 -32 l0 -48 -37 0 c-28 0 -34 3 -23 10 12 8 9 10
-13 10 -37 0 -57 21 -57 59 0 25 4 31 23 31 18 0 19 2 7 10 -11 7 -1 10 35 11
37 0 45 3 30 9 -14 6 -4 9 38 9 31 1 57 -3 57 -7z m30 -2 c0 -5 -4 -10 -10
-10 -5 0 -10 5 -10 10 0 6 5 10 10 10 6 0 10 -4 10 -10z m100 0 c-11 -7 -1
-10 35 -10 36 0 46 -3 35 -10 -12 -8 -11 -10 8 -10 18 0 22 -6 22 -31 0 -39
-20 -59 -62 -60 -27 0 -30 -2 -13 -9 16 -7 13 -9 -17 -9 l-38 -1 0 48 c0 34
-3 43 -10 32 -8 -12 -10 -11 -10 5 0 11 -9 27 -20 35 -32 23 -24 30 33 30 37
0 48 -3 37 -10z m-84 -64 c8 -8 14 -26 14 -41 0 -15 4 -24 10 -20 6 3 10 1 10
-4 0 -7 -24 -11 -60 -11 -36 0 -60 4 -60 11 0 5 5 7 10 4 6 -4 10 5 10 20 0
47 37 70 66 41z m-296 -16 c0 -5 -4 -10 -10 -10 -5 0 -10 5 -10 10 0 6 5 10
10 10 6 0 10 -4 10 -10z m560 0 c0 -5 -4 -10 -10 -10 -5 0 -10 5 -10 10 0 6 5
10 10 10 6 0 10 -4 10 -10z m-560 -40 c0 -14 7 -20 23 -20 18 0 19 -2 7 -10
-11 -7 -6 -10 20 -10 26 0 31 -3 20 -10 -11 -7 -3 -10 30 -10 33 0 41 -3 30
-10 -11 -7 -5 -10 23 -10 l37 0 0 -75 c0 -43 4 -75 10 -75 6 0 10 -9 10 -20 0
-11 5 -20 10 -20 6 0 10 -4 10 -10 0 -5 -21 -10 -47 -9 -36 0 -43 3 -28 9 15
6 7 9 -30 9 -36 1 -46 4 -35 11 12 8 11 10 -7 10 -13 0 -23 5 -23 10 0 6 -9
10 -20 10 -22 0 -27 15 -7 23 7 3 4 6 -6 6 -23 1 -47 24 -47 45 0 9 -4 16 -10
16 -15 0 -12 128 3 145 17 20 27 18 27 -5z m566 6 c16 -17 20 -146 4 -146 -5
0 -10 -7 -10 -16 0 -21 -24 -44 -47 -45 -10 0 -13 -3 -5 -6 19 -8 14 -23 -8
-23 -11 0 -20 -4 -20 -10 0 -5 -10 -10 -22 -10 -19 0 -20 -2 -8 -10 11 -7 1
-10 -35 -10 -36 0 -46 -3 -35 -10 11 -7 4 -10 -27 -10 -24 0 -43 5 -43 10 0 6
5 10 10 10 6 0 10 9 10 20 0 11 5 20 10 20 6 0 10 32 10 75 l0 75 38 1 c37 1
37 1 7 9 -24 6 -19 8 30 9 43 1 56 4 45 11 -11 7 -6 10 20 10 26 0 31 3 20 10
-12 8 -11 10 8 10 15 0 22 6 22 20 0 24 6 25 26 6z m-309 -42 c-3 -3 -12 -4
-19 -1 -8 3 -5 6 6 6 11 1 17 -2 13 -5z m50 0 c-3 -3 -12 -4 -19 -1 -8 3 -5 6
6 6 11 1 17 -2 13 -5z m-360 -51 c-3 -10 -5 -2 -5 17 0 19 2 27 5 18 2 -10 2
-26 0 -35z m650 0 c-3 -10 -5 -2 -5 17 0 19 2 27 5 18 2 -10 2 -26 0 -35z
m-267 -25 c0 -25 -3 -29 -10 -18 -7 11 -10 4 -10 -27 l0 -43 -40 0 -40 0 0 43
c0 31 -3 38 -10 27 -7 -11 -10 -7 -10 18 l0 32 60 0 60 0 0 -32z m-40 -108 c0
-5 -9 -10 -20 -10 -11 0 -20 5 -20 10 0 6 9 10 20 10 11 0 20 -4 20 -10z m-8
-42 c-9 -9 -15 -9 -24 0 -9 9 -7 12 12 12 19 0 21 -3 12 -12z m6 -55 c-10 -2
-26 -2 -35 0 -10 3 -2 5 17 5 19 0 27 -2 18 -5z"/>
<path d="M402 465 c0 -16 2 -22 5 -12 2 9 2 23 0 30 -3 6 -5 -1 -5 -18z"/>
<path d="M592 465 c0 -16 2 -22 5 -12 2 9 2 23 0 30 -3 6 -5 -1 -5 -18z"/>
<path d="M120 500 c0 -59 3 -80 10 -70 5 8 10 40 10 70 0 30 -5 62 -10 70 -7
10 -10 -11 -10 -70z"/>
<path d="M866 564 c-9 -25 -7 -117 4 -134 7 -10 10 11 10 68 0 82 -3 95 -14
66z"/>
<path d="M0 290 c0 -22 5 -40 10 -40 6 0 10 -8 10 -18 0 -10 9 -24 20 -32 11
-8 20 -21 20 -30 0 -9 9 -22 20 -30 11 -8 20 -20 20 -27 0 -7 6 -13 13 -13 7
0 19 -9 27 -20 8 -11 21 -20 30 -20 9 0 22 -9 30 -20 8 -11 22 -20 32 -20 10
0 18 -4 18 -10 0 -5 18 -10 40 -10 22 0 40 5 40 10 0 6 -13 10 -30 10 -16 0
-30 5 -30 10 0 6 -8 10 -18 10 -10 0 -24 9 -32 20 -8 11 -21 20 -30 20 -9 0
-22 9 -30 20 -8 11 -20 20 -27 20 -7 0 -13 6 -13 13 0 7 -9 19 -20 27 -11 8
-20 21 -20 30 0 9 -9 22 -20 30 -11 8 -20 22 -20 32 0 10 -4 18 -10 18 -5 0
-10 14 -10 30 0 17 -4 30 -10 30 -5 0 -10 -18 -10 -40z"/>
<path d="M980 300 c0 -16 -4 -30 -10 -30 -5 0 -10 -8 -10 -18 0 -10 -9 -24
-20 -32 -11 -8 -20 -21 -20 -30 0 -9 -9 -22 -20 -30 -11 -8 -20 -20 -20 -27 0
-7 -6 -13 -13 -13 -7 0 -19 -9 -27 -20 -8 -11 -21 -20 -30 -20 -9 0 -22 -9
-30 -20 -8 -11 -22 -20 -32 -20 -10 0 -18 -4 -18 -10 0 -5 -13 -10 -30 -10
-16 0 -30 -4 -30 -10 0 -5 18 -10 40 -10 22 0 40 5 40 10 0 6 8 10 18 10 10 0
24 9 32 20 8 11 21 20 30 20 9 0 22 9 30 20 8 11 20 20 27 20 7 0 13 6 13 13
0 7 9 19 20 27 11 8 20 21 20 30 0 9 9 22 20 30 11 8 20 22 20 32 0 10 5 18
10 18 6 0 10 18 10 40 0 22 -4 40 -10 40 -5 0 -10 -13 -10 -30z"/>
</g>
</svg>
