<?xml version="1.0" standalone="no"?>
<!DOCTYPE svg PUBLIC "-//W3C//DTD SVG 20010904//EN"
 "http://www.w3.org/TR/2001/REC-SVG-20010904/DTD/svg10.dtd">
<svg version="1.0" xmlns="http://www.w3.org/2000/svg"
 width="192.000000pt" height="192.000000pt" viewBox="0 0 192.000000 192.000000"
 preserveAspectRatio="xMidYMid meet">
<metadata>
Created by potrace 1.16, written by Peter Selinger 2001-2019
</metadata>
<g transform="translate(0.000000,192.000000) scale(0.100000,-0.100000)"
fill="#000000" stroke="none">
<path d="M745 1544 c-257 -38 -472 -162 -572 -329 -53 -89 -65 -142 -61 -273
3 -108 6 -122 36 -186 62 -132 218 -261 392 -325 142 -52 172 -56 420 -56 248
0 278 4 420 56 197 73 363 222 413 373 22 66 23 246 2 307 -71 202 -238 337
-510 411 -57 16 -112 20 -290 23 -121 2 -233 1 -250 -1z m418 -39 c201 -30
352 -100 468 -215 116 -114 156 -215 146 -364 -6 -93 -50 -192 -117 -269 -85
-96 -250 -185 -427 -229 -76 -20 -113 -23 -278 -22 -172 0 -199 3 -287 27
-425 114 -626 416 -481 725 42 91 159 200 275 256 195 95 452 129 701 91z"/>
<path d="M733 1486 c-103 -20 -196 -52 -284 -97 -84 -44 -189 -132 -188 -157
0 -13 2 -12 9 4 9 24 76 83 117 105 15 7 30 16 33 19 3 3 37 20 77 37 98 44
225 75 271 68 23 -4 32 -3 24 2 -7 6 50 8 141 7 276 -5 501 -70 564 -163 30
-44 29 -69 -2 -116 -15 -20 -23 -40 -20 -43 11 -11 55 42 61 74 8 42 -1 68
-39 112 l-32 36 34 -20 c66 -37 166 -146 202 -219 32 -65 34 -76 34 -170 0
-91 -3 -106 -31 -165 -17 -36 -54 -90 -83 -120 -45 -47 -47 -48 -14 -8 93 110
136 270 104 383 -19 69 -34 78 -24 15 4 -30 8 -88 7 -127 -3 -245 -278 -453
-636 -482 -256 -21 -487 37 -656 164 -110 83 -168 186 -182 325 l-7 75 -1 -70
c-3 -132 54 -242 177 -342 59 -49 59 -55 -1 -17 -64 41 -143 124 -174 185 -40
78 -46 211 -14 307 12 37 26 71 31 77 5 5 9 17 9 28 0 11 4 15 12 11 7 -4 8
-3 4 4 -12 19 -16 15 -46 -51 -89 -190 -54 -375 97 -518 152 -143 378 -219
653 -219 274 0 495 74 649 216 119 110 165 236 143 387 -25 167 -124 289 -303
376 -159 76 -238 93 -459 97 -128 2 -207 -1 -257 -10z"/>
<path d="M765 1435 c-221 -42 -345 -108 -345 -184 0 -34 34 -72 86 -99 47 -23
178 -56 196 -49 7 3 2 6 -12 6 -38 2 -189 57 -212 78 -11 10 -27 31 -35 47
-15 29 -15 30 18 58 73 61 204 111 326 122 32 3 50 3 41 0 -10 -3 -18 -9 -18
-14 0 -5 -17 -12 -37 -16 -32 -5 -111 -27 -183 -50 -8 -3 -4 2 10 10 32 20 19
20 -26 1 -20 -8 -33 -19 -30 -24 3 -5 -7 -16 -22 -25 l-27 -17 24 20 c13 12
18 21 12 21 -21 0 -61 -48 -61 -73 0 -49 83 -93 223 -117 68 -12 85 -25 45
-33 -18 -3 -17 -5 7 -6 30 -1 30 -1 46 83 9 46 28 109 42 140 14 31 24 56 22
56 -10 0 -50 -91 -71 -160 -13 -42 -23 -64 -23 -49 -1 35 35 145 65 197 34 58
64 75 134 76 76 1 105 -19 147 -104 34 -68 68 -190 52 -190 -5 0 -9 7 -9 14 0
26 -49 171 -65 191 -8 11 -3 -9 11 -43 14 -35 30 -97 37 -138 11 -74 12 -74
42 -73 23 1 25 3 8 6 -43 8 -23 21 50 33 86 15 163 44 195 72 30 29 29 71 -4
97 -35 27 -53 27 -23 0 l24 -20 -27 17 c-15 9 -25 20 -22 25 3 5 -16 18 -41
29 -59 25 -83 26 -30 1 47 -23 43 -27 -6 -7 -19 8 -68 22 -109 32 -41 10 -82
24 -90 32 -13 13 -8 14 35 8 131 -19 246 -62 317 -119 46 -36 58 -31 24 10
-33 39 -142 88 -252 114 -120 27 -348 34 -459 14z m5 -85 c0 -6 -6 -26 -14
-44 -8 -19 -19 -59 -26 -89 l-11 -55 -69 18 c-72 19 -131 47 -137 67 -6 18 55
55 141 84 88 30 116 35 116 19z m486 -16 c87 -28 157 -69 151 -87 -6 -20 -64
-48 -136 -67 l-69 -17 -11 58 c-7 33 -19 75 -26 94 -8 19 -15 37 -15 40 0 10
28 5 106 -21z"/>
<path d="M675 1380 c-13 -6 -15 -9 -5 -9 8 0 22 4 30 9 18 12 2 12 -25 0z"/>
<path d="M1220 1380 c8 -5 22 -9 30 -9 10 0 8 3 -5 9 -27 12 -43 12 -25 0z"/>
<path d="M930 1350 c0 -5 19 -10 43 -10 31 0 38 3 27 10 -20 13 -70 13 -70 0z"/>
<path d="M917 1302 c-23 -25 -45 -82 -61 -157 l-14 -65 120 0 c109 0 119 2
114 18 -3 9 -10 39 -16 65 -13 61 -36 116 -57 139 -21 23 -65 23 -86 0z m64
-2 c10 -6 25 -23 33 -38 19 -37 47 -134 37 -127 -5 2 -13 24 -19 48 -15 56
-48 99 -75 95 -27 -4 -55 -44 -72 -104 -7 -27 -14 -39 -14 -27 -2 36 39 132
62 148 26 18 23 18 48 5z m4 -106 c8 -20 15 -38 15 -40 0 -2 -18 -4 -40 -4
-27 0 -38 4 -35 13 28 81 37 85 60 31z m70 -94 c-3 -5 -46 -10 -96 -10 -53 0
-89 4 -89 10 0 6 39 10 96 10 61 0 93 -4 89 -10z"/>
<path d="M392 1240 c0 -19 2 -27 5 -17 2 9 2 25 0 35 -3 9 -5 1 -5 -18z"/>
<path d="M1476 1232 c-20 -39 -45 -59 -112 -87 -32 -14 -45 -23 -29 -20 75 15
165 81 165 121 0 21 -8 17 -24 -14z"/>
<path d="M297 1160 c-69 -138 -72 -252 -10 -374 32 -63 122 -152 191 -189 62
-34 68 -30 11 8 -161 106 -247 265 -221 405 11 60 48 157 57 148 3 -3 -4 -31
-15 -64 -92 -262 96 -494 465 -575 l90 -19 -67 5 c-57 5 -141 25 -243 59 -11
3 3 -5 32 -19 182 -90 564 -90 746 0 29 14 43 22 32 19 -99 -33 -183 -54 -237
-58 -69 -6 -61 -3 81 29 166 38 331 156 393 282 28 57 32 75 31 141 -1 52 -8
97 -22 136 -12 33 -19 61 -17 64 10 9 46 -79 57 -141 23 -124 -25 -243 -143
-352 -32 -30 -73 -62 -89 -70 -16 -9 -29 -18 -29 -21 0 -16 112 59 162 108
139 135 162 304 66 490 l-32 63 -6 -38 c-9 -50 -56 -97 -134 -136 -66 -32
-209 -71 -263 -71 -35 0 -44 -14 -17 -24 13 -5 15 -18 9 -84 -4 -42 -15 -114
-26 -159 -10 -46 -16 -91 -13 -100 4 -13 3 -14 -3 -5 -7 9 -15 2 -28 -28 -10
-22 -24 -45 -32 -51 -7 -6 -2 9 12 33 35 63 63 182 69 291 l5 92 -13 -107
c-22 -166 -73 -304 -128 -343 -29 -20 -82 -19 -114 1 -56 37 -105 168 -129
345 l-14 104 5 -92 c6 -108 34 -228 68 -290 14 -24 20 -41 14 -37 -36 23 -89
203 -104 356 -5 57 -4 69 10 74 27 10 18 24 -16 24 -55 0 -198 39 -264 71 -78
39 -125 86 -133 136 l-7 38 -37 -75z m1277 -59 c14 -22 -149 -121 -173 -106
-6 3 -31 0 -57 -6 -31 -8 -42 -14 -31 -18 9 -3 -16 -7 -56 -7 -79 -2 -70 3 55
30 81 18 204 72 227 99 15 19 27 21 35 8z m-1210 -8 c4 -5 11 -8 14 -8 4 -1
36 -16 72 -34 36 -19 115 -46 175 -61 l110 -28 -72 2 c-40 0 -65 4 -56 7 11 4
0 10 -31 18 -26 6 -51 9 -56 6 -13 -8 -62 14 -55 25 3 6 -1 7 -10 4 -15 -6
-82 33 -106 62 -12 14 2 20 15 7z m76 -96 c74 -33 109 -45 188 -62 l82 -18 0
-53 c0 -63 23 -179 50 -251 11 -29 17 -53 14 -53 -42 0 -191 62 -269 112 -128
83 -210 247 -175 352 l12 37 31 -24 c18 -13 48 -31 67 -40z m1160 -28 c1 -114
-87 -239 -225 -322 -51 -30 -198 -87 -226 -87 -5 0 0 24 11 53 28 75 42 141
49 227 l6 75 85 21 c113 29 190 59 236 93 l39 28 12 -26 c7 -14 12 -42 13 -62z
m-1035 11 c13 -6 15 -9 5 -9 -8 0 -22 4 -30 9 -18 12 -2 12 25 0z m815 0 c-8
-5 -22 -9 -30 -9 -10 0 -8 3 5 9 27 12 43 12 25 0z m-673 -36 c-3 -3 -12 -4
-19 -1 -8 3 -5 6 6 6 11 1 17 -2 13 -5z m-292 -224 c21 -22 37 -40 34 -40 -3
0 -23 18 -44 40 -21 22 -37 40 -34 40 3 0 23 -18 44 -40z m1135 37 c0 -2 -19
-21 -42 -42 l-43 -40 40 43 c36 39 45 47 45 39z m-746 -173 c3 -8 2 -12 -4 -9
-6 3 -10 10 -10 16 0 14 7 11 14 -7z m312 -21 c-8 -15 -15 -25 -16 -21 0 12
23 58 27 54 3 -2 -2 -17 -11 -33z"/>
<path d="M1510 1059 c-22 -18 -22 -19 -3 -10 12 6 25 16 28 21 9 15 3 12 -25
-11z"/>
<path d="M1435 1021 c-22 -11 -37 -20 -34 -20 10 -1 79 29 79 34 0 7 0 7 -45
-14z"/>
<path d="M410 1056 c0 -3 9 -10 20 -16 11 -6 20 -8 20 -6 0 3 -9 10 -20 16
-11 6 -20 8 -20 6z"/>
<path d="M490 1010 c8 -5 20 -10 25 -10 6 0 3 5 -5 10 -8 5 -19 10 -25 10 -5
0 -3 -5 5 -10z"/>
<path d="M1278 1113 c7 -3 16 -2 19 1 4 3 -2 6 -13 5 -11 0 -14 -3 -6 -6z"/>
<path d="M1228 1103 c7 -3 16 -2 19 1 4 3 -2 6 -13 5 -11 0 -14 -3 -6 -6z"/>
<path d="M841 940 c1 -23 3 -28 6 -12 7 35 19 26 21 -15 3 -63 33 -172 54
-198 48 -61 105 4 123 142 3 26 9 59 12 73 l6 25 7 -25 c7 -23 8 -22 9 10 l1
35 -120 0 -120 0 1 -35z m199 10 c0 -6 -33 -10 -80 -10 -47 0 -80 4 -80 10 0
6 33 10 80 10 47 0 80 -4 80 -10z m-34 -82 c-8 -51 -36 -128 -46 -128 -10 0
-38 77 -46 128 l-7 42 53 0 53 0 -7 -42z"/>
<path d="M851 864 c0 -11 3 -14 6 -6 3 7 2 16 -1 19 -3 4 -6 -2 -5 -13z"/>
<path d="M1022 675 c-39 -56 -70 -60 -113 -14 -25 26 -29 28 -29 12 0 -31 42
-63 81 -63 39 0 70 26 89 74 16 44 7 41 -28 -9z"/>
<path d="M927 669 c12 -12 24 -21 27 -18 2 2 -8 13 -22 23 l-27 19 22 -24z"/>
<path d="M1005 570 c-3 -5 -1 -10 4 -10 6 0 11 5 11 10 0 6 -2 10 -4 10 -3 0
-8 -4 -11 -10z"/>
</g>
</svg>
