<?xml version="1.0" standalone="no"?>
<!DOCTYPE svg PUBLIC "-//W3C//DTD SVG 20010904//EN"
 "http://www.w3.org/TR/2001/REC-SVG-20010904/DTD/svg10.dtd">
<svg version="1.0" xmlns="http://www.w3.org/2000/svg"
 width="256.000000pt" height="256.000000pt" viewBox="0 0 256.000000 256.000000"
 preserveAspectRatio="xMidYMid meet">
<metadata>
Created by potrace 1.16, written by Peter Selinger 2001-2019
</metadata>
<g transform="translate(0.000000,256.000000) scale(0.100000,-0.100000)"
fill="#000000" stroke="none">
<path d="M150 2539 c-72 -32 -120 -88 -144 -166 -12 -39 19 -27 33 13 19 52
75 109 126 131 25 10 45 24 45 31 0 16 -7 15 -60 -9z"/>
<path d="M2350 2548 c0 -7 20 -21 45 -31 51 -22 107 -79 126 -131 14 -40 45
-52 33 -13 -21 69 -68 128 -124 157 -55 27 -80 33 -80 18z"/>
<path d="M924 2321 c-47 -21 -74 -54 -74 -89 0 -55 -71 -128 -176 -180 -81
-41 -102 -83 -130 -255 -16 -98 -33 -127 -111 -179 -55 -39 -70 -104 -33 -150
26 -33 92 -64 157 -73 39 -5 54 -12 58 -26 13 -39 46 -59 99 -59 70 0 159 -44
269 -133 l89 -72 -128 -5 c-112 -4 -136 -8 -178 -30 -75 -37 -90 -65 -91 -158
0 -42 4 -89 8 -104 7 -27 5 -29 -38 -40 -62 -17 -134 -92 -165 -173 -18 -48
-22 -80 -23 -161 0 -112 8 -136 56 -161 27 -15 54 -18 162 -16 131 3 235 -13
485 -75 51 -13 121 -16 335 -17 252 0 275 2 348 23 44 12 93 30 110 39 18 9
51 15 73 14 34 -1 47 4 70 28 46 45 47 49 83 186 18 72 47 180 63 240 35 132
48 309 29 407 -22 114 -239 496 -389 683 -31 39 -94 108 -141 154 -75 74 -117
107 -220 173 -15 10 -78 35 -140 57 -112 40 -171 74 -192 112 -29 55 -182 78
-265 40z m79 -8 c-7 -2 -19 -2 -25 0 -7 3 -2 5 12 5 14 0 19 -2 13 -5z m80 0
c-7 -2 -19 -2 -25 0 -7 3 -2 5 12 5 14 0 19 -2 13 -5z m87 -43 c0 -15 -5 -12
-26 11 -19 22 -19 22 4 10 12 -6 22 -16 22 -21z m-55 2 c40 -25 84 -90 92
-136 5 -29 1 -44 -17 -68 -14 -19 -19 -33 -12 -40 14 -14 49 36 57 83 7 39 7
40 43 33 155 -28 305 -115 437 -255 98 -104 234 -295 413 -579 83 -133 123
-329 92 -461 -67 -295 -124 -497 -147 -528 -25 -32 -27 -33 -34 -13 -8 21 -9
21 -64 -12 -198 -120 -563 -124 -1030 -11 -114 28 -271 38 -329 22 -25 -7 -28
-6 -21 10 4 10 11 30 16 46 39 121 55 159 73 169 9 5 27 31 40 57 14 26 32 53
40 60 9 8 16 26 16 42 0 24 6 30 38 40 49 14 94 2 181 -50 110 -66 306 -86
406 -42 73 32 306 266 290 291 -4 6 -54 -38 -118 -103 -62 -63 -134 -127 -162
-143 -46 -27 -58 -29 -150 -29 -116 1 -167 15 -294 81 -80 43 -86 44 -146 38
-56 -6 -64 -4 -73 13 -11 20 -3 45 32 95 30 43 12 65 -26 31 -25 -22 -36 -8
-13 17 16 18 17 24 6 42 -12 19 -10 23 10 40 43 33 95 40 229 33 142 -8 182 2
220 55 23 32 15 48 -12 23 -32 -29 -31 -5 1 34 30 37 41 73 21 73 -6 0 -23
-18 -38 -40 -15 -21 -33 -41 -40 -44 -6 -3 -75 39 -151 93 -131 93 -142 99
-202 106 -68 8 -129 28 -129 43 0 11 30 38 50 44 8 3 25 1 38 -3 12 -5 22 -7
22 -5 0 2 -13 36 -30 74 -16 39 -36 105 -43 147 -7 42 -16 73 -20 69 -13 -14
-7 -79 15 -152 28 -95 20 -105 -85 -110 -65 -3 -74 -2 -93 20 -12 12 -24 40
-28 60 -6 34 -3 41 42 91 52 57 65 92 78 212 12 108 40 155 114 187 93 40 178
130 184 194 3 31 10 41 37 56 45 24 134 24 174 0z m-225 -24 c0 -18 -2 -20 -9
-8 -6 8 -7 18 -5 22 9 14 14 9 14 -14z m345 -55 c-5 -15 12 -18 17 -4 2 5 11
4 20 -3 15 -11 13 -13 -18 -14 -28 -1 -35 2 -30 13 3 8 2 15 -2 15 -4 0 -16
13 -27 28 l-20 27 32 -25 c18 -14 30 -31 28 -37z m-374 -26 c-10 -9 -11 -8 -5
6 3 10 9 15 12 12 3 -3 0 -11 -7 -18z m657 -77 c45 -27 40 -34 -5 -8 -47 27
-49 28 -37 28 5 0 24 -9 42 -20z m-718 6 c0 -2 -7 -7 -16 -10 -8 -3 -12 -2 -9
4 6 10 25 14 25 6z m-40 -26 c0 -5 -5 -10 -11 -10 -5 0 -7 5 -4 10 3 6 8 10
11 10 2 0 4 -4 4 -10z m1008 -192 c22 -31 8 -20 -43 34 -44 45 -45 48 -10 18
22 -18 46 -42 53 -52z m-1172 23 c-6 -27 -15 -53 -20 -58 -5 -5 -6 2 -2 17 4
14 9 40 13 58 3 17 9 32 13 32 4 0 2 -22 -4 -49z m1254 -120 c0 -8 -11 0 -25
19 -14 19 -25 36 -25 39 0 2 11 -6 25 -19 14 -13 25 -30 25 -39z m-1275 -8
c-4 -32 -11 -62 -17 -68 -7 -7 -8 0 -5 20 3 17 8 47 12 68 10 59 18 43 10 -20z
m1316 -36 c12 -22 12 -22 -10 -3 -11 11 -21 23 -21 28 0 14 19 -1 31 -25z m59
-79 c18 -29 36 -55 39 -58 12 -9 52 -82 47 -87 -5 -5 -96 134 -96 147 0 6 -3
10 -8 10 -4 0 -13 9 -20 20 -7 11 -8 20 -3 20 5 0 24 -24 41 -52z m-1409 13
c-6 -10 -23 -26 -38 -36 -26 -16 -25 -15 6 19 39 40 46 44 32 17z m-89 -81
c-16 -10 -32 -24 -34 -32 -7 -20 9 -80 23 -89 8 -4 11 -11 7 -14 -10 -10 -48
46 -48 71 0 27 57 97 72 88 5 -3 -4 -14 -20 -24z m18 -60 c0 -43 -13 -52 -30
-20 -8 14 -8 26 0 40 17 32 30 23 30 -20z m1601 -57 c7 -16 15 -31 17 -35 2
-5 0 -8 -5 -8 -5 0 -17 16 -26 35 -20 41 -7 48 14 8z m-1595 -12 c-4 -5 7 -12
24 -16 16 -4 30 -11 30 -16 0 -12 -17 -12 -25 1 -4 6 -10 8 -14 6 -12 -8 -34
11 -27 23 4 6 9 11 12 11 3 0 3 -4 0 -9z m142 -37 c24 -5 29 -10 24 -26 -4
-18 -6 -18 -14 -4 -5 9 -22 16 -38 16 -16 0 -32 5 -35 10 -7 11 18 13 63 4z
m1497 -34 c22 -42 18 -51 -5 -12 -20 33 -24 42 -15 42 2 0 11 -13 20 -30z
m-1455 -40 c0 -5 -2 -10 -4 -10 -3 0 -8 5 -11 10 -3 6 -1 10 4 10 6 0 11 -4
11 -10z m30 -10 c0 -5 -4 -10 -10 -10 -5 0 -10 5 -10 10 0 6 5 10 10 10 6 0
10 -4 10 -10z m180 -40 c8 -5 12 -11 10 -14 -3 -2 -14 2 -24 10 -22 15 -10 19
14 4z m75 -58 c-3 -3 -11 0 -18 7 -9 10 -8 11 6 5 10 -3 15 -9 12 -12z m50
-32 c3 -5 2 -10 -4 -10 -5 0 -13 5 -16 10 -3 6 -2 10 4 10 5 0 13 -4 16 -10z
m1235 -42 c19 -42 26 -78 14 -65 -9 8 -42 107 -37 107 2 0 13 -19 23 -42z
m-1180 -3 c7 -8 8 -15 2 -15 -5 0 -15 7 -22 15 -7 8 -8 15 -2 15 5 0 15 -7 22
-15z m60 -48 c0 -4 -9 -3 -20 3 -11 6 -20 15 -20 20 0 6 9 5 20 -2 11 -7 20
-16 20 -21z m43 -12 c4 -8 2 -17 -3 -20 -6 -4 -10 1 -10 10 0 9 -4 13 -10 10
-5 -3 -10 -1 -10 4 0 16 27 13 33 -4z m-33 -35 c-18 -12 -91 -13 -117 -2 -11
4 7 9 52 12 76 5 87 4 65 -10z m-263 4 c-3 -3 -12 -4 -19 -1 -8 3 -5 6 6 6 11
1 17 -2 13 -5z m1403 -41 c0 -43 -5 -41 -13 5 -4 18 -2 32 3 32 6 0 10 -16 10
-37z m-1536 -48 c-1 -20 -4 -38 -8 -42 -3 -3 -6 -20 -6 -36 0 -23 4 -28 16
-23 13 5 15 2 9 -16 -5 -13 -8 -40 -8 -60 1 -34 -12 -55 -15 -25 -1 6 -6 35
-12 62 -11 51 -6 126 11 158 13 23 14 22 13 -18z m1536 -91 c0 -19 -4 -33 -8
-30 -8 5 -4 66 4 66 2 0 4 -16 4 -36z m-19 -101 c-10 -17 -10 -16 -11 3 0 23
13 41 18 25 2 -6 -1 -18 -7 -28z m-8 -55 c-3 -18 -12 -46 -20 -63 -7 -16 -11
-23 -9 -14 2 9 8 37 11 63 4 25 11 46 16 46 5 0 6 -15 2 -32z m-1553 12 c0 -5
-6 -10 -13 -10 -7 0 -18 -9 -24 -19 -11 -17 -53 -26 -53 -11 0 6 42 34 52 35
3 0 10 3 14 8 11 10 24 9 24 -3z m70 -25 c0 -17 -33 -75 -43 -75 -4 0 -18 -25
-32 -55 -13 -30 -31 -58 -39 -61 -8 -3 -20 -28 -26 -55 -7 -27 -16 -52 -21
-55 -5 -3 -9 -15 -9 -28 0 -21 -45 -75 -54 -65 -2 2 -7 14 -10 26 -6 19 -2 25
18 33 23 8 26 15 26 60 0 45 3 52 25 60 21 8 25 16 25 49 0 30 4 40 20 44 15
4 20 14 20 39 1 38 17 63 57 88 30 19 43 17 43 -5z m-190 -54 c-11 -21 -30
-37 -30 -25 0 8 30 44 37 44 2 0 -1 -9 -7 -19z m36 -30 c-15 -15 -24 -34 -21
-42 3 -8 -8 -36 -25 -62 -16 -26 -30 -61 -30 -77 0 -17 -5 -30 -11 -30 -18 0
-5 91 21 145 28 57 82 123 88 105 2 -6 -8 -24 -22 -39z m-83 -51 c-9 -22 -18
-38 -21 -36 -6 7 19 76 28 76 5 0 1 -18 -7 -40z m1684 18 c-3 -8 -6 -5 -6 6
-1 11 2 17 5 13 3 -3 4 -12 1 -19z m-34 -130 c-3 -16 -9 -28 -14 -28 -5 0 -6
7 -4 15 3 8 7 22 10 31 8 26 14 12 8 -18z m-1672 -50 c1 -57 9 -101 21 -115 6
-7 8 -16 5 -19 -3 -3 -12 5 -20 18 -18 29 -32 148 -17 148 5 0 10 -15 11 -32z
m1646 -30 c-3 -8 -6 -5 -6 6 -1 11 2 17 5 13 3 -3 4 -12 1 -19z m-10 -60 c-3
-7 -5 -2 -5 12 0 14 2 19 5 13 2 -7 2 -19 0 -25z m-1561 -33 c-6 -16 4 -18 94
-16 40 1 42 0 20 -10 -14 -6 -45 -8 -70 -5 -25 3 -53 6 -62 6 -10 1 -18 5 -18
10 0 5 8 14 18 19 23 14 25 13 18 -4z m1538 1 c-10 -25 -54 -48 -80 -42 -36 9
-29 26 9 19 24 -4 37 0 51 16 22 25 27 26 20 7z m-1254 -26 c12 -8 12 -10 -5
-9 -11 0 -29 4 -40 9 -18 8 -18 9 5 9 14 0 32 -4 40 -9z m70 -16 c0 -2 -7 -4
-15 -4 -8 0 -15 4 -15 10 0 5 7 7 15 4 8 -4 15 -8 15 -10z m97 -20 c-3 -3 -12
-4 -19 -1 -8 3 -5 6 6 6 11 1 17 -2 13 -5z m50 -10 c-3 -3 -12 -4 -19 -1 -8 3
-5 6 6 6 11 1 17 -2 13 -5z m813 -8 c0 -3 -4 -8 -10 -11 -5 -3 -10 -1 -10 4 0
6 5 11 10 11 6 0 10 -2 10 -4z m-715 -16 c3 -5 2 -10 -4 -10 -5 0 -13 5 -16
10 -3 6 -2 10 4 10 5 0 13 -4 16 -10z m670 0 c-3 -5 -11 -10 -16 -10 -6 0 -7
5 -4 10 3 6 11 10 16 10 6 0 7 -4 4 -10z m-605 -10 c12 -8 11 -10 -7 -10 -13
0 -23 5 -23 10 0 13 11 13 30 0z m175 -15 c6 -2 -21 -4 -58 -4 -38 -1 -66 3
-63 8 5 7 96 5 121 -4z m372 9 c-3 -3 -12 -4 -19 -1 -8 3 -5 6 6 6 11 1 17 -2
13 -5z m-79 -11 c-10 -2 -26 -2 -35 0 -10 3 -2 5 17 5 19 0 27 -2 18 -5z"/>
<path d="M949 2189 c-9 -18 -8 -24 5 -31 10 -6 16 -22 16 -47 0 -20 7 -46 15
-57 15 -19 15 -19 35 5 29 34 27 101 -3 129 -29 28 -53 28 -68 1z m61 -72 c0
-51 -7 -44 -19 17 -7 39 -6 45 5 35 8 -6 14 -30 14 -52z"/>
<path d="M630 1840 c0 -52 18 -89 48 -97 57 -14 65 51 12 107 -40 43 -60 40
-60 -10z m62 -42 c2 -9 0 -17 -4 -17 -24 -2 -28 2 -28 31 0 28 2 30 14 18 8
-8 16 -23 18 -32z"/>
<path d="M6 198 c24 -79 72 -135 144 -167 44 -20 60 -21 1130 -21 1070 0 1086
1 1130 21 72 32 120 88 144 167 12 38 -19 26 -33 -14 -19 -52 -69 -104 -126
-130 l-50 -24 -1065 0 -1065 0 -50 24 c-57 26 -107 78 -126 130 -14 40 -45 52
-33 14z"/>
</g>
</svg>
