<?xml version="1.0" standalone="no"?>
<!DOCTYPE svg PUBLIC "-//W3C//DTD SVG 20010904//EN"
 "http://www.w3.org/TR/2001/REC-SVG-20010904/DTD/svg10.dtd">
<svg version="1.0" xmlns="http://www.w3.org/2000/svg"
 width="256.000000pt" height="256.000000pt" viewBox="0 0 256.000000 256.000000"
 preserveAspectRatio="xMidYMid meet">
<metadata>
Created by potrace 1.16, written by Peter Selinger 2001-2019
</metadata>
<g transform="translate(0.000000,256.000000) scale(0.100000,-0.100000)"
fill="#000000" stroke="none">
<path d="M1030 2070 c-8 -5 -29 -10 -47 -10 -17 0 -34 -4 -37 -9 -3 -5 -24 -7
-46 -4 -26 4 -40 2 -40 -6 0 -6 3 -11 8 -11 4 0 38 -3 77 -7 62 -5 68 -4 57
10 -12 14 -8 16 30 21 96 12 116 12 111 0 -3 -9 32 -12 136 -12 78 0 141 4
141 9 0 10 77 12 133 3 20 -4 37 -10 37 -14 0 -5 -9 -6 -20 -3 -12 3 -20 0
-20 -7 0 -8 21 -10 78 -6 42 2 78 5 80 5 1 1 2 6 2 12 0 8 -15 10 -45 7 -25
-3 -45 -2 -45 2 0 15 -87 22 -330 26 -148 2 -251 0 -260 -6z"/>
<path d="M1033 2037 c4 -14 87 -21 87 -7 0 6 -3 10 -7 11 -58 8 -84 7 -80 -4z"/>
<path d="M1495 2040 c-11 -4 -30 -6 -42 -3 -13 3 -23 1 -23 -5 0 -5 20 -12 44
-13 24 -2 42 -1 39 4 -2 4 1 7 6 7 6 0 11 5 11 10 0 12 -8 12 -35 0z"/>
<path d="M812 2018 c-6 -6 -12 -15 -12 -19 0 -10 71 -5 88 5 7 4 12 2 12 -3 0
-6 5 -11 11 -11 8 0 8 4 0 14 -13 15 -28 16 -49 2 -8 -5 -11 -3 -10 5 4 17
-25 22 -40 7z"/>
<path d="M1715 2020 c-4 -6 -10 -8 -15 -5 -4 3 -12 -1 -18 -8 -8 -9 -1 -12 28
-12 21 0 41 3 44 6 13 12 55 -3 49 -17 -3 -8 -2 -14 3 -13 5 1 17 -1 28 -6 11
-5 21 -3 26 5 5 8 15 10 26 6 15 -6 16 -9 4 -16 -11 -7 -8 -11 15 -20 21 -8
30 -8 36 1 8 14 -49 49 -79 49 -10 0 -23 5 -28 10 -6 6 -27 12 -48 14 -20 2
-39 6 -43 10 -9 9 -21 7 -28 -4z"/>
<path d="M753 2013 c-13 -2 -23 -9 -23 -15 0 -5 -7 -7 -15 -4 -15 5 -54 -10
-66 -27 -3 -4 -10 -7 -15 -6 -19 3 -32 -2 -54 -21 -20 -18 -21 -20 -5 -26 17
-7 38 13 29 28 -3 4 13 6 36 3 35 -5 41 -3 38 12 -3 16 4 18 46 15 44 -3 48
-2 37 12 -12 14 -10 16 8 16 11 0 21 5 21 10 0 6 -3 9 -7 9 -5 -1 -18 -4 -30
-6z"/>
<path d="M1170 1995 c-11 -13 5 -15 131 -13 l144 2 -130 6 -130 6 105 5 105 5
-106 2 c-84 2 -109 -1 -119 -13z"/>
<path d="M1635 2000 c3 -5 10 -10 16 -10 5 0 9 5 9 10 0 6 -7 10 -16 10 -8 0
-12 -4 -9 -10z"/>
<path d="M955 1979 c5 -7 54 -4 61 4 3 3 -11 4 -30 4 -19 -1 -33 -4 -31 -8z"/>
<path d="M1498 1983 c7 -3 16 -2 19 1 4 3 -2 6 -13 5 -11 0 -14 -3 -6 -6z"/>
<path d="M1576 1978 c3 -5 10 -5 16 -2 7 5 9 1 5 -9 -5 -13 1 -15 28 -14 18 1
31 6 28 10 -3 5 -14 7 -24 4 -12 -3 -19 0 -19 8 0 8 -9 13 -19 12 -11 0 -17
-5 -15 -9z"/>
<path d="M1777 1983 c-4 -3 -7 -11 -7 -17 0 -6 5 -5 12 2 6 6 9 14 7 17 -3 3
-9 2 -12 -2z"/>
<path d="M695 1961 c-3 -5 -1 -12 5 -16 5 -3 10 1 10 9 0 18 -6 21 -15 7z"/>
<path d="M916 1962 c-2 -4 12 -9 32 -10 29 -1 33 1 17 8 -26 11 -43 12 -49 2z"/>
<path d="M823 1953 c9 -2 23 -2 30 0 6 3 -1 5 -18 5 -16 0 -22 -2 -12 -5z"/>
<path d="M1688 1953 c12 -2 32 -2 45 0 12 2 2 4 -23 4 -25 0 -35 -2 -22 -4z"/>
<path d="M1110 1940 c-25 -4 -51 -5 -57 -3 -7 3 -13 -1 -13 -8 0 -10 -15 -14
-57 -13 -33 0 -68 -5 -80 -13 -12 -7 -32 -13 -44 -13 -34 0 -129 -34 -126 -45
2 -5 17 -10 33 -11 47 -2 52 -6 14 -13 -26 -5 -39 -2 -50 11 -13 16 -18 16
-40 3 -14 -8 -32 -18 -40 -22 -33 -16 -80 -72 -86 -101 -5 -24 -1 -41 17 -67
33 -47 53 -49 27 -2 -30 55 -10 102 64 150 32 20 54 22 64 5 4 -7 3 -8 -5 -4
-11 7 -92 -48 -90 -62 1 -4 0 -9 -1 -12 -12 -32 4 -95 21 -84 5 3 6 -1 3 -9
-3 -8 2 -17 10 -20 11 -4 16 -1 16 11 -1 21 -23 52 -39 52 -8 0 -8 6 1 22 18
32 78 89 88 83 4 -3 13 2 20 10 7 8 23 15 37 15 13 0 31 7 39 15 9 8 32 15 53
15 20 0 41 4 46 9 6 5 36 11 68 13 45 3 60 1 65 -10 3 -8 -2 -19 -11 -24 -10
-5 -17 -18 -17 -28 0 -11 -4 -20 -10 -20 -5 0 -10 -9 -10 -21 0 -11 -7 -27
-15 -35 -8 -9 -15 -25 -15 -38 0 -12 -5 -27 -12 -34 -15 -15 -4 -26 18 -18 13
5 15 14 11 41 -3 20 -2 33 3 30 11 -7 50 70 50 97 0 10 7 18 15 18 8 0 15 6
15 13 0 7 19 32 43 54 32 31 51 41 70 39 15 -2 25 2 24 8 -5 27 -31 30 -117
16z m0 -30 c0 -5 -11 -9 -25 -8 -14 1 -25 6 -25 10 0 4 11 8 25 8 14 0 25 -4
25 -10z m-132 -23 c11 2 23 -1 28 -8 5 -9 2 -11 -9 -6 -9 3 -19 2 -22 -3 -3
-6 -16 -5 -31 0 -14 6 -30 8 -35 4 -5 -3 -9 -1 -9 4 0 17 12 21 35 12 13 -5
32 -6 43 -3z m79 -3 c-3 -3 -12 -4 -19 -1 -8 3 -5 6 6 6 11 1 17 -2 13 -5z
m-160 -28 c3 -3 -12 -6 -35 -6 -23 0 -45 0 -49 -1 -4 0 -9 3 -10 8 -3 9 85 9
94 -1z"/>
<path d="M1355 1940 c-9 -14 3 -30 23 -30 9 0 28 -12 43 -26 25 -24 38 -27
116 -32 48 -2 90 -8 91 -13 2 -5 21 -9 42 -9 21 0 45 -7 54 -15 8 -8 28 -15
45 -15 17 0 31 -4 31 -10 0 -5 11 -12 25 -16 14 -3 25 -10 25 -15 0 -5 5 -9
11 -9 18 0 38 -32 39 -62 0 -33 -29 -66 -65 -72 -14 -3 -34 -14 -43 -25 -10
-12 -31 -22 -51 -23 -18 -1 -36 -8 -38 -15 -4 -9 -10 -10 -24 -3 -14 8 -27 6
-48 -5 -17 -8 -39 -15 -49 -15 -33 0 -45 -63 -15 -74 10 -4 14 -4 11 0 -14 13
13 44 37 44 14 0 25 5 25 10 0 6 -6 10 -12 10 -21 0 14 20 35 20 10 0 15 -4
12 -10 -8 -12 35 -13 54 -1 7 5 11 13 7 19 -4 7 9 9 39 7 25 -2 45 0 45 6 0 5
-4 9 -10 9 -5 0 -10 4 -10 10 0 5 12 7 28 4 22 -4 34 1 61 30 34 36 35 38 29
124 -1 6 -9 12 -19 12 -23 0 -33 29 -12 37 10 4 24 -3 39 -20 12 -14 25 -23
28 -20 3 4 7 -5 8 -18 1 -13 2 -33 3 -44 1 -11 -5 -31 -12 -43 -8 -13 -12 -26
-9 -29 10 -10 46 29 46 49 0 10 4 18 9 18 5 0 4 17 -2 38 -12 39 -45 77 -81
93 -11 5 -35 18 -52 28 -18 11 -45 21 -60 23 -16 1 -32 7 -36 12 -3 5 -22 10
-42 10 -20 1 -36 6 -36 11 0 6 -4 3 -9 -5 -15 -22 -4 -30 40 -30 22 0 38 -3
35 -8 -2 -4 -25 -6 -50 -4 -25 2 -43 8 -40 13 6 11 -5 12 -70 9 -33 -1 -46 1
-42 9 4 6 30 10 62 8 38 -1 54 2 54 10 0 13 -6 14 -95 17 -27 0 -53 5 -57 10
-3 5 -19 10 -35 12 -15 1 -49 5 -75 9 -27 3 -49 1 -53 -5z m145 -30 c0 -5 -12
-10 -26 -10 -14 0 -23 4 -19 10 3 6 15 10 26 10 10 0 19 -4 19 -10z m27 -26
c-3 -3 -12 -4 -19 -1 -8 3 -5 6 6 6 11 1 17 -2 13 -5z m303 -54 c0 -6 -16 -10
-35 -10 -19 0 -35 4 -35 8 0 5 16 9 35 10 19 1 35 -3 35 -8z m50 -31 c0 -10
-12 -11 -34 -3 -9 3 -14 10 -11 14 6 10 45 1 45 -11z m-30 -199 c0 -5 -5 -10
-11 -10 -5 0 -7 5 -4 10 3 6 8 10 11 10 2 0 4 -4 4 -10z"/>
<path d="M1954 1938 c-4 -6 0 -14 7 -19 8 -5 15 -4 17 1 5 13 42 13 42 0 0 -5
-4 -10 -10 -10 -5 0 -10 -4 -10 -10 0 -5 9 -10 21 -10 11 0 18 4 15 9 -4 5 3
7 14 4 15 -4 19 -11 15 -24 -4 -13 -1 -19 9 -19 9 0 16 5 16 10 0 6 5 10 10
10 6 0 10 -10 10 -21 0 -19 4 -21 31 -15 27 5 30 4 24 -14 -6 -19 2 -24 42
-23 6 0 9 -6 5 -16 -5 -13 -3 -14 10 -4 17 15 29 7 21 -13 -3 -8 1 -14 11 -14
8 0 30 -16 48 -35 17 -20 38 -33 45 -31 7 3 15 0 19 -6 5 -7 2 -8 -6 -3 -8 5
-5 -5 6 -24 10 -17 21 -31 25 -31 3 0 23 -25 43 -55 20 -30 41 -55 47 -55 6 0
8 -7 5 -16 -4 -9 -2 -22 4 -29 5 -7 11 -24 12 -39 1 -14 6 -26 10 -26 4 0 5
-8 1 -17 -5 -15 -3 -15 9 1 14 18 15 8 16 -109 0 -86 4 -131 11 -133 16 -5 15
226 -1 261 -7 15 -16 27 -20 27 -5 0 -8 9 -8 20 0 21 -56 123 -71 128 -5 2 -9
9 -9 15 -1 18 -49 69 -59 63 -5 -4 -7 3 -4 13 3 11 -4 28 -16 40 -19 19 -25
19 -22 -1 0 -5 -3 -8 -9 -8 -5 0 -10 9 -10 20 0 11 -7 20 -15 20 -8 0 -15 5
-15 10 0 6 -7 10 -15 10 -8 0 -15 7 -15 15 0 8 -18 23 -40 32 -22 10 -40 23
-40 29 0 7 -7 15 -16 18 -24 9 -36 7 -28 -6 4 -7 3 -8 -4 -4 -6 4 -9 13 -5 21
3 10 -1 15 -12 15 -19 0 -76 29 -87 45 -9 13 -67 15 -74 3z"/>
<path d="M739 1933 c-1 -5 -1 -11 0 -15 0 -5 -4 -8 -11 -8 -6 0 -8 -3 -5 -6 4
-4 14 -1 23 7 9 7 34 14 57 16 62 5 58 13 -6 13 -31 0 -58 -3 -58 -7z"/>
<path d="M1285 1930 c-4 -6 -11 -8 -16 -5 -5 4 -9 2 -9 -3 0 -6 7 -13 16 -16
10 -4 13 -2 8 6 -5 7 -2 9 9 5 11 -4 14 -2 10 9 -6 17 -10 17 -18 4z"/>
<path d="M1711 1935 c3 -2 24 -6 46 -8 23 -2 48 -9 57 -16 9 -8 19 -11 23 -7
3 3 1 6 -5 6 -7 0 -12 7 -12 15 0 12 -13 15 -57 15 -31 0 -54 -2 -52 -5z"/>
<path d="M520 1919 c0 -6 -9 -8 -20 -4 -11 3 -20 2 -20 -3 0 -9 32 -22 57 -22
6 0 11 9 10 20 -1 20 -27 29 -27 9z"/>
<path d="M656 1895 c-4 -11 1 -15 19 -15 13 0 27 4 30 10 3 6 -1 7 -9 4 -9 -3
-16 -1 -16 5 0 16 -17 13 -24 -4z"/>
<path d="M458 1893 c-9 -2 -24 -15 -32 -28 -10 -15 -22 -22 -31 -19 -8 4 -15
2 -15 -3 0 -5 -23 -20 -51 -33 -29 -13 -54 -31 -56 -41 -3 -11 -9 -19 -14 -19
-5 0 -26 -18 -46 -41 -21 -23 -53 -56 -70 -75 -18 -18 -33 -38 -33 -44 0 -6
-11 -22 -23 -36 -28 -30 -72 -147 -63 -169 3 -9 0 -15 -9 -15 -12 0 -15 -19
-15 -100 0 -55 4 -100 9 -100 5 0 11 -13 14 -28 4 -17 12 -29 22 -29 11 0 13
6 9 20 -12 38 -7 297 6 312 7 8 10 22 6 30 -3 9 -2 14 3 11 11 -7 36 22 27 31
-4 4 -11 1 -16 -7 -6 -8 -10 -11 -10 -7 0 5 14 22 30 37 19 18 28 34 24 44 -4
11 -2 15 7 13 8 -2 11 -2 7 0 -4 3 -2 10 5 18 7 7 16 11 20 8 12 -7 36 29 29
46 -4 10 -1 12 8 6 9 -5 11 -4 6 3 -4 7 -1 12 8 12 9 0 25 9 36 20 11 11 25
20 31 20 7 0 9 9 6 21 -3 12 -3 18 0 15 4 -3 12 3 20 14 8 11 19 20 25 20 7 0
3 -6 -8 -14 -10 -8 -16 -18 -12 -22 4 -4 18 4 31 17 12 14 31 28 40 32 10 4
16 11 13 16 -3 5 3 7 14 4 14 -4 22 2 30 21 10 27 26 34 32 14 2 -6 10 -8 16
-4 26 16 5 36 -30 29z m-421 -632 c-2 -116 -17 -107 -17 10 0 54 4 88 9 84 6
-3 9 -45 8 -94z"/>
<path d="M1310 1886 c0 -2 13 -6 29 -8 17 -2 28 -1 25 4 -5 8 -54 12 -54 4z"/>
<path d="M1871 1886 c7 -7 69 -15 65 -7 -3 4 -19 8 -37 9 -18 1 -31 1 -28 -2z"/>
<path d="M535 1850 c4 -6 10 -8 15 -5 4 3 11 -1 13 -7 4 -10 6 -9 6 1 1 10 4
11 15 2 10 -8 16 -9 21 -1 3 5 16 11 28 11 18 1 18 2 4 6 -10 3 -24 0 -32 -7
-9 -7 -15 -8 -20 0 -3 5 -17 10 -31 10 -15 0 -23 -4 -19 -10z"/>
<path d="M1170 1845 c7 -8 16 -12 21 -9 13 8 1 24 -18 24 -13 0 -13 -3 -3 -15z"/>
<path d="M1350 1850 c-21 -7 -17 -8 18 -7 23 0 42 4 42 9 0 10 -26 9 -60 -2z"/>
<path d="M1935 1850 c28 -12 37 -12 30 0 -3 6 -16 10 -28 9 -21 0 -21 -1 -2
-9z"/>
<path d="M1980 1852 c0 -4 11 -8 25 -8 14 0 25 4 25 8 0 4 -11 8 -25 8 -14 0
-25 -4 -25 -8z"/>
<path d="M1268 1843 c7 -3 16 -2 19 1 4 3 -2 6 -13 5 -11 0 -14 -3 -6 -6z"/>
<path d="M1473 1828 c2 -7 10 -12 16 -10 6 1 11 -4 11 -12 0 -8 7 -17 16 -20
10 -4 13 -13 9 -27 -4 -11 0 -35 10 -55 9 -19 17 -43 18 -53 0 -11 7 -17 14
-14 9 4 11 -7 6 -46 -5 -47 -4 -51 16 -51 14 0 21 6 21 20 0 11 -4 20 -10 20
-5 0 -10 15 -10 33 0 18 -7 42 -15 53 -8 10 -15 31 -15 47 0 15 -4 27 -10 27
-5 0 -10 10 -10 23 0 12 -11 35 -25 50 -27 28 -50 36 -42 15z"/>
<path d="M1140 1819 c0 -5 5 -7 10 -4 6 3 10 8 10 11 0 2 -4 4 -10 4 -5 0 -10
-5 -10 -11z"/>
<path d="M1263 1823 c9 -2 25 -2 35 0 9 3 1 5 -18 5 -19 0 -27 -2 -17 -5z"/>
<path d="M1405 1820 c3 -5 8 -10 11 -10 2 0 4 5 4 10 0 6 -5 10 -11 10 -5 0
-7 -4 -4 -10z"/>
<path d="M2041 1827 c2 -1 12 -9 22 -16 14 -12 17 -11 17 3 0 10 -8 16 -22 16
-12 0 -19 -1 -17 -3z"/>
<path d="M1200 1810 c0 -5 5 -10 11 -10 5 0 7 5 4 10 -3 6 -8 10 -11 10 -2 0
-4 -4 -4 -10z"/>
<path d="M2005 1810 c4 -6 11 -8 16 -5 14 9 11 15 -7 15 -8 0 -12 -5 -9 -10z"/>
<path d="M1250 1770 c-40 -21 -90 -73 -90 -94 0 -8 6 -19 14 -23 9 -5 11 -15
5 -28 -8 -19 -8 -19 -15 3 -7 23 -24 30 -24 9 0 -6 4 -27 10 -46 8 -29 7 -34
-10 -38 -15 -4 -20 -14 -20 -39 0 -30 3 -34 35 -40 39 -7 270 -2 279 7 8 7
-16 79 -26 79 -4 0 -8 8 -8 18 0 9 -11 40 -24 67 -18 36 -26 46 -31 34 -3 -9
3 -33 14 -53 12 -20 21 -47 21 -60 0 -13 7 -29 15 -36 9 -7 14 -15 11 -17 -2
-2 -56 -5 -119 -6 -105 -2 -116 0 -121 17 -3 11 -9 15 -18 11 -7 -4 2 6 20 23
20 19 32 41 32 56 0 14 5 26 10 26 6 0 10 7 10 15 0 8 6 15 13 15 7 0 18 9 25
20 10 17 10 20 -4 20 -9 0 -25 -10 -35 -22 -26 -29 -36 -16 -12 16 22 31 42
40 58 26 9 -8 15 -8 20 0 10 17 52 6 73 -18 29 -34 35 -26 10 13 -13 19 -31
35 -40 35 -10 0 -18 4 -18 9 0 18 -26 18 -60 1z"/>
<path d="M1495 1770 c3 -5 10 -10 16 -10 5 0 9 5 9 10 0 6 -7 10 -16 10 -8 0
-12 -4 -9 -10z"/>
<path d="M2145 1769 c-4 -6 -13 -8 -21 -5 -8 3 -14 -1 -14 -9 0 -8 -5 -15 -11
-15 -5 0 -7 -5 -3 -11 5 -8 9 -7 15 4 9 16 49 12 49 -4 0 -5 7 -9 15 -9 9 0
18 -7 21 -15 4 -8 12 -15 20 -15 8 0 14 -7 14 -15 0 -8 7 -15 15 -15 8 0 15 3
15 8 0 11 -44 47 -54 44 -5 -2 -6 7 -3 18 4 16 2 19 -7 11 -9 -7 -17 -5 -28 9
-16 17 -16 19 0 23 16 4 16 5 0 6 -9 0 -20 -4 -23 -10z"/>
<path d="M384 1740 c-16 -16 -35 -30 -41 -30 -7 0 -13 -5 -13 -11 0 -6 -9 -9
-19 -6 -14 3 -18 1 -14 -9 3 -8 10 -11 17 -7 6 3 0 -5 -14 -18 -13 -13 -29
-22 -35 -21 -5 2 -7 1 -3 -3 4 -4 -4 -19 -17 -33 -13 -14 -22 -29 -19 -34 3
-4 -2 -11 -10 -14 -9 -3 -16 -12 -16 -19 0 -7 -7 -18 -15 -25 -8 -7 -13 -16
-10 -20 2 -4 -2 -16 -10 -26 -8 -10 -15 -29 -15 -41 0 -28 -10 -54 -19 -49 -4
3 -7 -38 -7 -90 0 -90 7 -117 21 -74 3 11 5 54 4 96 -2 50 1 78 9 82 6 4 12
22 14 40 1 17 8 34 15 36 7 3 13 15 13 26 0 11 5 20 10 20 6 0 10 9 10 20 0
11 7 23 15 26 8 4 15 12 15 20 0 8 5 14 10 14 6 0 10 7 10 15 0 8 6 15 14 15
8 0 18 9 21 20 3 11 10 20 14 20 4 0 26 18 49 40 22 22 48 40 56 40 21 0 29
17 10 24 -9 3 -17 6 -18 6 -2 0 -16 -13 -32 -30z"/>
<path d="M1293 1713 c-8 -3 -5 -11 8 -24 21 -21 42 -18 33 6 -6 16 -24 24 -41
18z"/>
<path d="M352 1636 c-40 -40 -72 -78 -72 -85 0 -6 -4 -11 -10 -11 -5 0 -10 -6
-10 -14 0 -7 -7 -19 -15 -26 -8 -7 -15 -23 -15 -35 0 -13 -5 -25 -10 -27 -6
-2 -12 -19 -13 -38 -1 -19 -7 -40 -13 -47 -6 -6 -12 -41 -13 -77 -1 -52 2 -67
16 -75 11 -6 13 -11 5 -11 -9 0 -10 -5 -2 -19 5 -11 10 -29 10 -40 0 -12 5
-21 10 -21 6 0 10 -9 10 -19 0 -11 5 -23 10 -26 6 -3 10 5 10 19 0 13 -4 26
-9 28 -5 2 -11 24 -14 51 -3 26 -10 53 -14 60 -11 17 -12 80 -1 94 5 7 12 27
15 45 7 44 70 173 102 208 13 13 14 11 8 -20 l-7 -35 45 50 c24 28 45 45 45
40 0 -6 -27 -38 -60 -73 -33 -34 -60 -68 -60 -76 0 -7 -6 -18 -13 -24 -7 -6
-14 -23 -15 -39 -1 -15 -6 -29 -12 -31 -5 -2 -7 -27 -4 -57 3 -30 0 -56 -5
-60 -6 -3 -8 -11 -6 -18 2 -7 6 -24 9 -39 4 -16 13 -28 21 -28 17 0 20 25 5
35 -11 7 -10 114 2 121 4 3 8 22 8 43 0 22 6 44 15 51 8 7 15 21 15 31 0 11 5
19 10 19 6 0 10 5 10 11 0 6 14 24 30 41 17 16 30 36 30 44 0 22 28 16 41 -8
13 -24 93 -108 103 -108 3 0 6 7 6 15 0 17 -35 55 -50 55 -5 0 -10 6 -10 13 0
8 -10 19 -22 25 -13 6 -17 11 -9 11 11 1 10 5 -3 20 -12 13 -17 36 -17 75 0
31 -4 56 -8 56 -4 0 -39 -33 -79 -74z m38 -31 c-7 -9 -15 -13 -18 -10 -3 2 1
11 8 20 7 9 15 13 18 10 3 -2 -1 -11 -8 -20z"/>
<path d="M2117 1703 c-4 -3 -2 -12 4 -19 11 -14 -9 -124 -23 -124 -5 0 -8 -7
-8 -15 0 -8 -5 -15 -11 -15 -5 0 -8 -4 -5 -9 8 -12 -42 -44 -58 -38 -9 4 -11
-2 -8 -19 2 -13 6 -24 8 -24 9 0 99 97 110 118 l12 23 36 -38 c20 -21 36 -43
36 -50 0 -6 6 -18 13 -25 19 -20 38 -61 40 -86 0 -12 4 -22 8 -22 11 0 29 -60
29 -96 0 -19 4 -34 10 -34 5 0 7 -7 4 -15 -4 -8 -1 -15 4 -15 11 0 9 51 -3 90
-5 17 -4 21 6 15 11 -6 12 -5 2 6 -7 7 -13 26 -13 41 0 16 -7 31 -15 34 -8 4
-15 17 -15 30 0 13 -9 32 -21 42 -15 15 -18 26 -13 48 6 25 5 27 -8 17 -12
-11 -22 -5 -56 34 -23 25 -40 48 -38 50 2 2 19 -14 38 -37 41 -47 51 -50 42
-14 -5 19 -4 25 5 20 6 -4 11 -14 11 -22 0 -8 7 -14 15 -14 8 0 15 -6 15 -13
0 -7 14 -39 30 -70 17 -32 30 -67 30 -77 0 -10 4 -20 9 -22 10 -3 14 -53 12
-146 -1 -33 -5 -51 -11 -47 -6 4 -10 -8 -10 -29 0 -20 5 -36 10 -36 6 0 10 13
10 29 0 16 7 34 16 41 12 11 14 30 11 104 -4 81 -22 172 -37 186 -3 3 -13 21
-23 40 -19 37 -49 74 -129 158 -50 52 -59 58 -71 45z m73 -104 c0 -6 -4 -7
-10 -4 -5 3 -10 11 -10 16 0 6 5 7 10 4 6 -3 10 -11 10 -16z"/>
<path d="M470 1668 c0 -23 3 -29 9 -19 8 12 4 51 -5 51 -2 0 -4 -15 -4 -32z"/>
<path d="M2077 1688 c-14 -36 -15 -45 -7 -59 12 -19 23 10 18 48 -3 22 -6 24
-11 11z"/>
<path d="M1092 1640 c0 -14 2 -19 5 -12 2 6 2 18 0 25 -3 6 -5 1 -5 -13z"/>
<path d="M2255 1650 c-3 -6 1 -13 9 -16 8 -3 18 -15 21 -25 5 -15 10 -17 19
-9 10 8 12 5 8 -15 -2 -14 0 -25 6 -25 6 0 14 -9 17 -20 4 -11 11 -18 16 -15
5 4 9 -5 9 -18 0 -14 7 -28 16 -31 8 -3 13 -10 10 -14 -3 -5 1 -21 9 -36 10
-18 15 -69 17 -153 2 -73 7 -128 13 -130 13 -4 13 97 1 116 -5 8 -5 12 0 8 24
-14 -5 170 -32 203 -7 8 -14 24 -16 35 -1 11 -9 26 -16 34 -7 7 -11 20 -8 27
3 8 0 11 -10 7 -7 -3 -15 0 -15 6 -4 32 -6 36 -17 34 -7 -2 -12 2 -12 8 0 11
-24 39 -34 39 -3 0 -8 -5 -11 -10z"/>
<path d="M703 1604 c0 -9 12 -21 26 -27 14 -6 29 -16 33 -21 4 -6 19 -5 40 1
32 11 32 11 6 12 -16 1 -28 6 -28 11 0 6 -11 10 -24 10 -13 0 -26 7 -30 15 -7
20 -23 19 -23 -1z"/>
<path d="M950 1607 c0 -7 5 -18 10 -23 18 -18 0 -47 -24 -39 -36 12 -96 13
-96 3 0 -6 -7 -8 -15 -5 -8 4 -17 2 -20 -3 -4 -6 2 -10 12 -10 10 0 29 -3 42
-7 17 -4 22 -3 17 5 -9 15 33 16 54 1 13 -9 13 -10 -2 -6 -9 3 -24 -1 -35 -9
-17 -13 -17 -14 2 -12 11 1 35 0 53 0 28 -2 32 -6 32 -28 0 -22 2 -25 15 -14
16 14 20 40 6 40 -12 0 -20 36 -14 60 3 11 12 20 19 20 8 0 14 4 14 9 0 11
-31 24 -38 16 -3 -3 0 -5 7 -5 7 0 9 -4 6 -10 -10 -17 -25 -11 -25 10 0 11 -4
20 -10 20 -5 0 -10 -6 -10 -13z"/>
<path d="M190 1591 c0 -6 4 -13 10 -16 6 -3 7 1 4 9 -7 18 -14 21 -14 7z"/>
<path d="M1918 1593 c7 -3 16 -2 19 1 4 3 -2 6 -13 5 -11 0 -14 -3 -6 -6z"/>
<path d="M1067 1583 c-11 -10 -8 -63 3 -63 6 0 10 16 10 35 0 36 -2 40 -13 28z"/>
<path d="M1646 1515 c4 -8 11 -15 16 -15 6 0 5 6 -2 15 -7 8 -14 15 -16 15 -2
0 -1 -7 2 -15z"/>
<path d="M130 1499 c0 -5 5 -7 10 -4 6 3 10 8 10 11 0 2 -4 4 -10 4 -5 0 -10
-5 -10 -11z"/>
<path d="M1079 1488 c14 -19 32 -15 30 5 0 8 -2 8 -6 -1 -4 -10 -8 -10 -21 0
-15 12 -16 11 -3 -4z"/>
<path d="M735 1470 c-16 -7 -17 -9 -3 -9 9 -1 20 4 23 9 7 11 7 11 -20 0z"/>
<path d="M2441 1464 c0 -11 3 -14 6 -6 3 7 2 16 -1 19 -3 4 -6 -2 -5 -13z"/>
<path d="M587 1455 c-8 -8 -17 -11 -21 -8 -3 4 -6 1 -6 -5 0 -14 54 -52 82
-57 13 -3 24 -9 26 -15 2 -5 8 -10 14 -10 6 0 8 7 5 15 -4 8 -2 17 3 20 6 4
10 0 10 -7 0 -10 2 -10 9 1 5 8 18 12 30 8 14 -3 21 0 21 9 0 15 -51 20 -64 7
-13 -14 -66 -10 -66 4 0 7 -9 13 -20 13 -27 0 -25 14 3 28 16 8 18 11 5 11 -9
1 -23 -6 -31 -14z"/>
<path d="M1930 1460 c0 -5 9 -10 21 -10 11 0 17 -4 14 -10 -3 -5 -15 -10 -25
-10 -12 0 -17 -5 -14 -13 3 -10 -4 -14 -26 -14 -16 0 -30 4 -30 9 0 11 -42 10
-60 -2 -11 -7 -5 -10 23 -10 26 0 37 -4 37 -15 0 -15 -47 -14 -72 1 -18 12
-40 14 -60 8 -33 -10 -19 -22 25 -21 23 0 41 -2 40 -6 -2 -4 -3 -10 -3 -14 0
-17 -72 -8 -85 10 -10 14 -14 15 -18 5 -3 -7 -6 -8 -6 -3 -1 12 -102 7 -115
-5 -4 -4 1 -17 13 -29 21 -21 29 -51 13 -51 -4 0 -6 -21 -4 -46 3 -35 7 -44
19 -40 9 4 13 1 10 -6 -2 -7 -10 -12 -18 -11 -11 2 -14 -12 -15 -58 0 -52 -4
-64 -24 -79 l-23 -18 21 -11 c25 -13 24 -14 27 14 4 30 31 76 39 67 4 -4 7 -2
6 3 -1 6 -2 52 -1 103 1 89 2 93 26 104 19 8 22 14 13 20 -7 4 -21 5 -30 2
-12 -4 -18 0 -18 11 0 14 6 16 28 11 15 -4 35 -7 45 -7 9 0 17 -5 17 -10 0 -6
-5 -7 -12 -3 -7 4 -8 3 -4 -4 9 -14 53 -16 58 -2 2 5 18 10 35 12 18 1 35 8
37 15 3 7 16 13 29 13 14 0 30 7 37 15 7 8 16 13 20 10 5 -3 15 2 23 10 9 8
22 15 30 15 22 0 28 27 11 45 -17 17 -54 20 -54 5z m-303 -222 c-3 -7 -5 -2
-5 12 0 14 2 19 5 13 2 -7 2 -19 0 -25z"/>
<path d="M106 1445 c-3 -8 -1 -15 4 -15 6 0 10 7 10 15 0 8 -2 15 -4 15 -2 0
-6 -7 -10 -15z"/>
<path d="M645 1441 c-3 -6 -5 -11 -3 -12 27 -6 38 -5 35 4 -5 15 -24 20 -32 8z"/>
<path d="M1720 1439 c0 -5 9 -9 20 -9 11 0 20 2 20 4 0 2 -9 6 -20 9 -11 3
-20 1 -20 -4z"/>
<path d="M1885 1440 c-3 -5 1 -10 9 -10 9 0 16 5 16 10 0 6 -4 10 -9 10 -6 0
-13 -4 -16 -10z"/>
<path d="M1208 1433 c39 -2 105 -2 145 0 39 1 7 3 -73 3 -80 0 -112 -2 -72 -3z"/>
<path d="M909 1419 c-8 -5 -9 -9 -4 -9 6 0 21 -3 34 -7 17 -4 22 -2 19 7 -5
16 -31 21 -49 9z"/>
<path d="M1615 1420 c-8 -13 8 -18 29 -10 19 6 19 7 -2 12 -12 4 -24 2 -27 -2z"/>
<path d="M2458 1387 c-3 -25 0 -33 9 -30 15 6 17 32 4 52 -6 9 -10 3 -13 -22z"/>
<path d="M1134 1399 c-3 -6 -17 -9 -30 -6 -13 2 -21 0 -18 -4 3 -5 42 -8 87
-7 69 1 73 2 24 5 -33 2 -55 8 -52 14 4 5 4 9 1 9 -3 0 -8 -5 -12 -11z"/>
<path d="M1314 1402 c3 -5 0 -13 -6 -15 -7 -3 28 -5 77 -5 50 0 84 2 77 5 -6
2 -9 10 -6 16 5 8 2 8 -7 0 -7 -7 -24 -13 -37 -13 -16 0 -21 4 -16 13 6 9 4 9
-8 -1 -16 -13 -44 -12 -67 2 -9 6 -12 5 -7 -2z"/>
<path d="M81 1365 c1 -40 1 -40 11 -12 7 21 7 32 -1 40 -8 8 -11 0 -10 -28z"/>
<path d="M769 1396 c-6 -8 -5 -36 2 -36 4 0 6 -7 3 -15 -4 -10 0 -15 15 -15
12 0 21 -4 21 -10 0 -5 11 -10 25 -10 14 0 25 5 25 12 0 6 -3 9 -6 5 -4 -3
-13 0 -20 8 -8 7 -23 11 -34 8 -16 -4 -19 -2 -14 11 5 13 37 22 67 17 4 0 7 4
7 9 0 6 -8 11 -17 12 -36 3 -73 5 -74 4z"/>
<path d="M720 1368 c0 -17 12 -32 28 -35 13 -3 15 7 6 31 -7 19 -34 22 -34 4z"/>
<path d="M853 1363 c-7 -2 -13 -8 -13 -13 0 -11 49 -19 56 -9 7 12 44 11 44
-1 0 -6 -12 -15 -26 -20 -26 -10 -26 -11 -8 -28 12 -11 20 -32 20 -57 5 -148
16 -238 29 -252 14 -13 20 -45 16 -85 -1 -9 3 -19 9 -23 5 -3 10 -19 10 -35 0
-16 7 -35 15 -44 8 -8 15 -20 15 -26 0 -6 11 -26 24 -43 12 -18 27 -39 31 -47
8 -13 7 -13 -8 -1 -15 12 -17 11 -17 -3 0 -12 -5 -16 -19 -11 -10 3 -41 -3
-67 -14 l-49 -20 38 0 c21 -1 36 3 33 8 -4 5 26 7 70 5 53 -3 81 0 92 8 13 11
15 9 10 -14 -6 -34 7 -38 135 -38 83 0 100 3 116 19 21 21 137 36 147 19 3 -4
24 -8 47 -7 23 0 35 3 27 6 -8 2 -25 9 -37 15 -12 6 -31 8 -42 5 -15 -3 -21 0
-21 10 0 12 -7 14 -27 8 -26 -6 -27 -6 -10 13 9 10 17 23 17 29 0 6 7 16 15
23 8 7 15 21 15 31 0 11 5 19 10 19 6 0 10 11 10 24 0 13 7 29 15 36 9 8 15
30 15 56 0 24 5 44 10 44 6 0 10 11 10 25 0 14 -3 25 -7 25 -19 -1 -28 -18
-31 -55 -2 -22 -9 -44 -15 -50 -7 -5 -12 -16 -13 -22 -1 -7 -2 -22 -2 -33 -1
-11 -8 -20 -16 -20 -9 0 -12 -7 -9 -19 2 -10 -2 -25 -11 -33 -8 -9 -12 -18 -9
-22 4 -3 1 -6 -6 -6 -7 0 -10 -4 -6 -9 3 -6 -1 -13 -8 -18 -7 -4 -17 -17 -20
-27 -4 -10 -10 -16 -14 -13 -3 4 -12 2 -20 -4 -9 -9 -13 -8 -13 0 0 9 -5 9
-21 1 -15 -9 -24 -8 -37 2 -11 9 -14 10 -8 1 5 -10 -3 -13 -29 -13 -20 0 -34
4 -31 8 3 5 -1 9 -9 9 -8 0 -12 -4 -9 -9 3 -4 -2 -8 -11 -8 -9 0 -14 4 -11 8
3 5 -1 9 -9 9 -8 0 -12 -4 -9 -9 3 -4 0 -8 -5 -8 -6 0 -11 5 -11 11 0 5 -5 7
-11 3 -17 -10 11 -25 46 -23 93 4 139 -1 127 -13 -8 -8 -41 -12 -87 -12 -68 0
-78 3 -103 27 -16 15 -31 25 -34 21 -8 -7 -58 25 -58 38 0 5 -7 16 -15 25 -8
8 -13 18 -10 23 3 4 -2 10 -10 14 -8 3 -15 15 -15 27 0 12 -11 45 -24 73 -14
28 -26 67 -27 86 -2 19 -11 44 -20 55 -19 21 -34 145 -18 145 4 0 7 36 6 80
-1 56 2 81 11 85 6 2 12 13 12 23 0 16 -8 19 -57 20 -32 0 -64 -2 -70 -5z"/>
<path d="M1044 1260 c0 -52 1 -74 3 -47 2 26 2 68 0 95 -2 26 -3 4 -3 -48z"/>
<path d="M1085 1340 c-2 -3 1 -29 7 -59 5 -29 7 -59 4 -67 -3 -8 -2 -14 2 -14
4 0 8 -12 7 -27 0 -14 6 -28 13 -30 9 -4 10 2 2 22 -8 21 -7 26 2 22 9 -3 12
-20 10 -48 -4 -57 4 -86 23 -86 17 0 20 18 6 32 -5 6 -11 47 -13 93 l-3 82 47
0 c37 0 48 4 48 16 0 8 4 13 9 10 5 -4 12 0 14 6 4 10 6 10 6 1 1 -7 6 -13 12
-13 5 0 7 6 3 13 -6 9 -5 9 8 0 8 -7 18 -9 23 -5 4 4 6 0 3 -8 -2 -8 -19 -16
-36 -18 -40 -4 -42 -22 -3 -22 17 0 31 6 35 16 3 9 11 12 18 8 7 -4 29 -7 49
-6 l37 3 -5 -48 c-2 -26 -10 -58 -16 -71 -8 -17 -8 -31 0 -52 9 -23 8 -32 -3
-41 -8 -6 -14 -24 -14 -39 0 -15 -7 -33 -15 -40 -8 -7 -15 -21 -15 -31 0 -11
-3 -19 -8 -19 -13 0 -32 -39 -22 -45 14 -9 51 37 45 56 -4 11 1 18 15 22 17 4
19 11 16 41 -3 23 -1 35 6 33 6 -1 17 17 24 41 18 60 24 102 14 102 -12 0 -23
-37 -15 -50 3 -5 1 -18 -4 -27 -8 -15 -10 -11 -11 20 0 24 7 44 20 57 15 15
20 33 20 75 0 40 4 57 15 61 22 9 19 44 -4 44 -11 0 -22 -4 -25 -8 -3 -5 -28
-6 -55 -2 -28 3 -54 3 -58 -1 -10 -10 -64 -13 -83 -6 -21 8 -151 14 -155 7z
m159 -29 c10 -15 -31 -20 -122 -12 -7 1 -10 6 -7 11 8 12 122 13 129 1z m182
-4 c-22 -16 -98 -16 -104 1 -3 9 13 12 59 12 54 0 60 -2 45 -13z m-304 -62 c3
-13 1 -22 -3 -19 -9 5 -13 44 -5 44 2 0 6 -11 8 -25z"/>
<path d="M2513 1275 c0 -33 2 -45 4 -27 2 18 2 45 0 60 -2 15 -4 0 -4 -33z"/>
<path d="M2278 1304 c-10 -9 -9 -83 1 -109 5 -12 3 -25 -6 -33 -7 -7 -13 -24
-13 -37 0 -13 -4 -27 -10 -30 -5 -3 -10 -13 -10 -21 0 -15 -23 -43 -87 -109
-29 -29 -44 -65 -27 -65 4 0 22 14 41 30 18 17 31 30 27 30 -4 0 1 8 10 19 9
10 16 25 14 32 -2 8 3 13 10 11 8 -1 19 11 25 28 6 16 15 30 19 30 4 0 8 9 8
20 0 12 7 32 16 45 12 18 13 29 6 38 -6 7 -12 39 -14 71 -2 32 -6 54 -10 50z"/>
<path d="M82 1275 c0 -16 2 -22 5 -12 2 9 2 23 0 30 -3 6 -5 -1 -5 -18z"/>
<path d="M220 1276 c0 -8 5 -18 10 -21 6 -3 10 1 10 9 0 8 -4 18 -10 21 -5 3
-10 -1 -10 -9z"/>
<path d="M1478 1180 c-2 -82 -6 -114 -15 -113 -8 2 -11 -12 -10 -42 1 -30 -2
-45 -10 -45 -12 0 -17 -20 -16 -57 1 -7 -3 -10 -8 -7 -5 3 -14 -8 -21 -23 -20
-45 -70 -91 -106 -96 -27 -4 -40 0 -68 26 -41 35 -94 122 -94 154 0 12 -5 25
-11 29 -7 4 -10 1 -7 -7 3 -8 1 -22 -4 -32 -11 -21 8 -51 25 -40 6 3 7 1 3 -6
-4 -6 -11 -9 -15 -7 -4 3 -21 1 -37 -4 -27 -9 -27 -9 -4 -9 42 2 50 -1 50 -15
0 -9 -12 -12 -36 -11 -32 1 -34 0 -19 -11 10 -8 23 -10 28 -7 12 7 58 11 51 4
-2 -2 3 -12 11 -21 13 -14 13 -17 0 -17 -8 0 -11 5 -8 10 3 6 -1 6 -12 0 -10
-6 -27 -8 -39 -5 -12 3 -17 1 -13 -4 4 -5 22 -9 40 -9 48 -2 77 -14 77 -33 0
-15 -2 -15 -10 -2 -9 13 -10 13 -10 0 0 -13 -1 -13 -10 0 -8 13 -10 13 -10 -2
0 -9 5 -20 10 -23 6 -3 10 -2 10 2 0 13 77 16 84 4 4 -5 2 -12 -4 -16 -6 -4
-8 -10 -5 -14 2 -5 -25 -7 -60 -6 -36 1 -65 -2 -65 -7 0 -4 26 -9 58 -9 31 -1
68 -3 81 -4 13 -1 39 1 57 5 19 4 34 4 34 0 0 -11 33 -5 37 6 2 6 -18 9 -44 9
-27 -1 -54 3 -62 9 -11 8 -13 8 -8 0 4 -7 1 -14 -7 -17 -17 -7 -15 15 3 37 14
17 91 19 91 3 0 -5 5 -5 10 -2 6 3 10 14 10 23 0 13 -2 14 -9 3 -7 -11 -9 -11
-14 0 -4 11 -6 11 -6 1 -1 -14 -21 -7 -21 7 0 14 45 29 78 26 18 -1 32 1 32 6
0 9 -14 12 -42 10 -22 -3 -24 15 -2 23 9 3 14 13 11 21 -7 16 22 29 46 20 8
-4 18 -2 22 4 4 7 -4 11 -19 11 -17 0 -26 6 -26 15 0 12 7 14 28 9 24 -7 26
-6 14 9 -8 9 -20 13 -30 9 -16 -5 -16 -5 0 11 9 9 26 17 37 17 12 0 21 4 21 9
0 6 -9 8 -20 6 -11 -2 -23 1 -26 7 -9 13 15 28 35 21 14 -4 14 -3 1 5 -8 6
-18 8 -22 6 -4 -3 -8 0 -8 5 0 6 10 11 23 12 21 1 21 1 -3 9 -22 6 -23 8 -7
15 15 6 16 10 5 16 -10 7 -8 9 6 9 20 0 20 0 0 16 -10 8 -14 13 -7 10 12 -6
12 11 0 31 -5 7 1 13 15 16 23 4 23 4 1 6 -18 1 -21 6 -17 35 2 19 0 45 -5 58
-7 16 -10 -9 -13 -92z"/>
<path d="M993 1235 c0 -27 2 -38 4 -22 2 15 2 37 0 50 -2 12 -4 0 -4 -28z"/>
<path d="M80 1230 c0 -5 5 -10 11 -10 5 0 7 5 4 10 -3 6 -8 10 -11 10 -2 0 -4
-4 -4 -10z"/>
<path d="M87 1193 c-10 -10 -8 -43 2 -43 15 0 23 18 11 25 -6 4 -8 11 -5 16 7
10 1 12 -8 2z"/>
<path d="M149 1173 c-6 -33 -3 -65 4 -70 5 -3 3 -9 -4 -14 -11 -7 -11 -9 2 -9
9 0 19 -10 23 -22 4 -17 8 -20 17 -11 12 12 3 53 -12 53 -5 0 -9 15 -9 34 0
30 -18 62 -21 39z"/>
<path d="M963 1096 c4 -65 11 -86 23 -73 4 4 1 13 -6 22 -10 12 -10 15 4 15
11 0 14 4 10 12 -5 7 -8 28 -9 47 0 19 -6 36 -13 39 -9 3 -11 -12 -9 -62z"/>
<path d="M1038 1153 c7 -3 16 -2 19 1 4 3 -2 6 -13 5 -11 0 -14 -3 -6 -6z"/>
<path d="M2460 1140 c0 -11 2 -20 4 -20 2 0 6 9 9 20 3 11 1 20 -4 20 -5 0 -9
-9 -9 -20z"/>
<path d="M260 1142 c0 -4 4 -12 9 -17 5 -6 11 -19 13 -30 2 -11 10 -20 17 -20
8 0 19 -18 25 -40 7 -22 18 -40 26 -41 30 -2 35 -4 23 -12 -9 -6 -4 -18 18
-45 17 -20 35 -34 40 -31 6 4 4 13 -5 23 -9 10 -16 23 -16 29 0 7 -4 12 -10
12 -5 0 -10 8 -10 19 0 10 -9 21 -19 24 -10 2 -27 22 -36 43 -39 87 -45 98
-45 87 0 -7 -5 -13 -11 -13 -5 0 -7 5 -4 10 3 6 1 10 -4 10 -6 0 -11 -4 -11
-8z"/>
<path d="M1559 1143 c0 -5 -2 -16 -4 -25 -2 -10 0 -20 4 -22 4 -3 8 9 9 25 1
16 0 29 -3 29 -3 0 -5 -3 -6 -7z"/>
<path d="M2389 1143 c-1 -5 -3 -19 -4 -33 -1 -13 -8 -26 -14 -28 -6 -2 -11
-10 -11 -18 0 -23 -62 -103 -129 -168 -95 -92 -119 -111 -153 -122 -10 -4 -18
-10 -18 -14 0 -4 -8 -10 -17 -14 -10 -3 -25 -9 -33 -14 -37 -22 -61 -32 -74
-32 -7 0 -19 -7 -26 -15 -7 -8 -21 -15 -32 -15 -11 0 -26 -7 -34 -15 -9 -8
-29 -15 -45 -15 -16 0 -29 -4 -29 -10 0 -5 -14 -10 -31 -10 -17 0 -40 -5 -52
-12 -12 -7 -47 -15 -77 -19 -30 -4 -68 -10 -85 -14 -48 -12 -481 -11 -496 1
-8 6 -32 12 -54 13 -22 1 -59 8 -83 16 -23 8 -56 15 -72 15 -17 0 -30 5 -30
10 0 6 -13 10 -29 10 -16 0 -34 7 -41 15 -7 8 -25 15 -40 15 -16 0 -30 5 -32
11 -2 5 -10 11 -18 12 -8 2 -22 7 -30 12 -26 17 -54 33 -90 51 -19 10 -53 31
-75 46 -56 40 -185 168 -185 184 0 7 -6 17 -13 21 -8 4 -17 17 -21 27 -5 14
-10 16 -18 8 -6 -6 -17 -8 -24 -5 -8 3 -14 0 -14 -6 0 -6 3 -10 7 -10 21 3 33
-2 33 -15 0 -9 -7 -13 -20 -11 -11 2 -20 0 -20 -6 0 -8 21 -13 46 -10 7 1 14
-7 16 -17 4 -15 0 -18 -21 -15 -25 3 -25 3 -3 -6 12 -6 28 -8 35 -5 8 3 20 -2
27 -11 7 -9 9 -15 4 -14 -18 3 -34 -1 -34 -10 0 -5 12 -8 28 -7 15 0 28 -3 30
-9 1 -5 -2 -10 -7 -10 -5 0 -13 -4 -18 -8 -4 -5 7 -7 25 -4 25 4 35 1 42 -14
8 -14 7 -19 -2 -19 -9 0 -9 -3 2 -9 8 -6 18 -7 23 -4 4 2 20 -8 35 -23 15 -15
21 -24 15 -20 -8 4 -13 2 -13 -4 0 -7 7 -9 16 -6 19 7 57 -11 49 -24 -3 -6 0
-7 8 -4 8 3 18 0 23 -7 5 -8 3 -10 -6 -4 -8 5 -11 4 -7 -3 4 -5 17 -8 28 -5
14 4 25 0 31 -11 5 -9 18 -16 28 -16 11 0 20 -6 20 -13 0 -8 22 -19 51 -26 28
-8 63 -20 78 -27 14 -8 36 -14 49 -14 12 0 22 -4 22 -10 0 -5 10 -10 23 -10
13 0 29 -6 36 -12 11 -10 13 -10 7 0 -4 6 -3 12 3 12 5 0 11 -5 13 -11 8 -23
131 -32 418 -32 277 0 404 9 419 30 3 5 22 10 41 12 19 1 40 7 47 13 7 5 18 8
25 5 7 -2 25 4 40 14 14 11 38 20 53 21 14 1 31 8 36 15 6 6 17 9 25 6 8 -3
14 1 14 8 0 13 55 38 88 41 7 1 10 8 7 16 -4 10 0 13 15 9 11 -3 17 -1 14 4
-3 6 8 15 25 22 17 6 31 15 31 20 0 4 5 5 10 2 6 -4 9 -1 8 7 -2 8 9 14 30 16
34 3 39 11 20 30 -9 9 -9 12 0 12 7 0 22 11 34 25 12 14 32 25 45 25 14 0 21
4 18 10 -4 6 -11 8 -16 5 -5 -4 -9 -1 -9 4 0 6 7 11 16 11 9 0 12 5 8 13 -5 8
-2 7 10 -2 12 -10 20 -11 27 -4 8 8 7 13 0 17 -6 4 -11 1 -11 -6 0 -10 -3 -9
-9 2 -14 20 -3 32 27 28 14 -2 27 2 29 9 3 8 -3 11 -16 8 -25 -5 -27 7 -4 26
19 16 22 16 35 -3 8 -10 9 -10 5 2 -2 8 -9 15 -14 15 -27 0 -23 15 3 16 l29 1
-30 8 c-25 6 -27 8 -12 15 9 4 26 5 37 2 11 -3 18 -1 14 4 -3 5 -12 9 -20 9
-9 0 -14 8 -13 18 3 29 -1 42 -11 42 -5 0 -11 -3 -11 -7z"/>
<path d="M2510 1133 c0 -11 -5 -24 -11 -30 -16 -16 4 -23 24 -8 11 7 17 21 15
31 -4 24 -28 30 -28 7z"/>
<path d="M105 1130 c3 -5 8 -10 11 -10 2 0 4 5 4 10 0 6 -5 10 -11 10 -5 0 -7
-4 -4 -10z"/>
<path d="M49 1093 c-15 -4 -14 -9 7 -46 13 -23 27 -50 30 -59 4 -10 10 -18 15
-18 5 0 9 -7 9 -15 0 -19 143 -163 199 -200 22 -15 41 -32 41 -36 0 -5 9 -9
19 -9 10 0 22 -7 25 -16 3 -8 10 -13 15 -10 5 3 14 -1 21 -9 7 -8 21 -15 32
-15 10 0 21 -7 24 -15 4 -8 14 -15 24 -15 11 0 22 -5 25 -10 3 -5 17 -10 31
-10 14 0 27 -7 30 -15 4 -8 19 -15 34 -15 16 0 31 -4 34 -9 4 -5 24 -12 46
-16 22 -4 40 -11 40 -16 0 -5 18 -9 39 -9 22 0 46 -6 53 -13 20 -19 86 -22
478 -22 332 0 368 2 393 18 14 9 43 17 62 17 20 0 43 6 51 14 7 8 25 13 38 12
14 -2 27 3 30 10 3 8 17 14 31 14 15 0 33 7 41 15 9 8 24 15 34 15 10 0 22 5
25 10 3 6 15 10 26 10 11 0 22 7 25 15 4 8 17 15 30 15 13 0 24 3 24 8 0 4 17
16 38 27 20 11 41 25 45 32 4 7 15 13 22 13 8 0 15 6 15 14 0 22 -17 28 -24
10 -3 -9 -13 -14 -20 -11 -8 3 -17 -1 -20 -8 -3 -8 -21 -21 -39 -29 -19 -8
-38 -19 -41 -25 -4 -6 -18 -11 -31 -11 -12 0 -25 -7 -29 -15 -3 -8 -9 -14 -13
-14 -4 1 -24 -5 -44 -14 -20 -9 -42 -17 -50 -19 -8 -2 -16 -6 -19 -9 -3 -4
-16 -9 -30 -10 -14 -2 -28 -8 -31 -12 -4 -5 -23 -9 -43 -10 -26 -1 -35 -5 -32
-14 4 -10 -8 -13 -45 -13 -28 0 -48 -4 -45 -9 3 -5 -15 -7 -40 -6 -34 3 -43 0
-35 -8 7 -9 -58 -12 -272 -11 -155 0 -286 2 -292 3 -16 5 -88 0 -110 -6 -18
-5 -19 -4 -5 12 14 17 13 18 -7 13 -13 -4 -23 -3 -23 1 0 4 -8 8 -17 8 -81 -1
-115 4 -110 16 3 8 -7 12 -30 13 -19 0 -38 5 -41 10 -4 5 -20 10 -37 12 -16 2
-36 9 -43 15 -8 6 -23 13 -35 14 -12 2 -24 8 -28 14 -3 6 -9 11 -12 11 -20 0
-47 12 -47 21 0 6 -3 8 -6 4 -4 -3 -30 6 -58 20 -28 15 -57 26 -63 25 -7 -2
-13 7 -13 18 0 12 -4 19 -9 15 -6 -3 -14 2 -19 11 -5 9 -11 15 -13 14 -13 -5
-59 22 -59 35 0 8 -6 15 -14 15 -8 0 -33 23 -56 50 -23 28 -47 47 -53 43 -6
-4 -8 0 -4 10 3 10 2 17 -3 17 -6 0 -10 7 -10 15 0 8 -9 19 -19 25 -12 6 -18
18 -16 30 2 11 -2 20 -8 20 -7 0 -14 12 -15 27 -2 31 -2 30 -23 26z m126 -193
c3 -6 -1 -7 -9 -4 -18 7 -21 14 -7 14 6 0 13 -4 16 -10z"/>
<path d="M2308 1070 c-7 -24 -3 -38 8 -28 3 4 4 17 2 30 l-3 23 -7 -25z"/>
<path d="M1040 1058 c0 -5 13 -7 30 -6 16 1 27 4 24 7 -8 8 -54 7 -54 -1z"/>
<path d="M2480 1050 c0 -11 -9 -29 -20 -40 -12 -12 -18 -25 -15 -30 4 -6 -2
-10 -12 -10 -17 -1 -17 -1 0 -11 22 -13 37 -4 37 22 0 10 4 19 10 19 5 0 12
11 16 25 3 14 10 25 15 25 5 0 9 5 9 10 0 6 -9 10 -20 10 -13 0 -20 -7 -20
-20z"/>
<path d="M138 1053 c7 -3 16 -2 19 1 4 3 -2 6 -13 5 -11 0 -14 -3 -6 -6z"/>
<path d="M260 1036 c0 -9 5 -16 10 -16 6 0 10 4 10 9 0 6 -4 13 -10 16 -5 3
-10 -1 -10 -9z"/>
<path d="M1610 1030 c0 -11 5 -20 10 -20 6 0 10 9 10 20 0 11 -4 20 -10 20 -5
0 -10 -9 -10 -20z"/>
<path d="M2280 1025 c1 -26 2 -28 11 -12 8 14 8 22 0 30 -8 8 -11 3 -11 -18z"/>
<path d="M135 1030 c-3 -5 -1 -10 4 -10 6 0 11 5 11 10 0 6 -2 10 -4 10 -3 0
-8 -4 -11 -10z"/>
<path d="M1044 1029 c-2 -4 4 -6 13 -4 10 1 24 -2 31 -8 8 -7 12 -5 12 5 0 14
-47 20 -56 7z"/>
<path d="M1150 1028 c0 -7 7 -26 15 -42 8 -15 15 -35 15 -43 0 -8 9 -17 19
-20 11 -3 18 -10 15 -16 -5 -15 13 -44 22 -34 4 3 1 15 -7 24 -11 15 -11 16 1
6 17 -16 30 -17 30 -3 0 6 -8 14 -17 17 -22 8 -43 28 -43 41 0 14 -30 71 -41
77 -5 4 -9 0 -9 -7z"/>
<path d="M291 994 c0 -11 3 -14 6 -6 3 7 2 16 -1 19 -3 4 -6 -2 -5 -13z"/>
<path d="M1030 1001 c0 -7 -5 -9 -12 -5 -7 5 -8 3 -3 -5 5 -9 10 -10 18 -2 6
6 8 14 4 18 -4 3 -7 1 -7 -6z"/>
<path d="M2260 1008 c-1 -5 -3 -12 -4 -16 0 -5 -9 -17 -19 -26 -10 -10 -16
-20 -13 -23 9 -10 47 39 43 55 -3 9 -6 14 -7 10z"/>
<path d="M1054 989 c-2 -4 0 -10 5 -13 5 -4 12 -2 16 3 3 6 13 7 22 4 10 -4
14 -2 9 5 -7 12 -45 12 -52 1z"/>
<path d="M310 971 c0 -13 67 -81 79 -81 6 0 -6 15 -24 34 -19 18 -35 38 -35
45 0 6 -4 11 -10 11 -5 0 -10 -4 -10 -9z"/>
<path d="M1516 962 c-3 -5 1 -9 9 -9 8 0 12 4 9 9 -3 4 -7 8 -9 8 -2 0 -6 -4
-9 -8z"/>
<path d="M426 952 c-3 -5 3 -17 14 -27 10 -9 16 -23 14 -30 -3 -8 4 -16 17
-20 13 -4 32 -19 42 -32 14 -18 22 -21 32 -13 9 8 15 8 20 0 3 -5 1 -10 -4
-10 -6 0 -11 -5 -11 -11 0 -8 12 -10 35 -6 29 5 35 3 33 -10 -2 -9 3 -18 10
-20 6 -3 12 0 12 6 0 6 6 8 14 5 9 -3 12 -12 9 -21 -5 -13 0 -15 32 -9 33 7
37 6 27 -7 -10 -12 -8 -16 9 -20 12 -3 36 -3 53 0 31 6 31 6 12 -15 -10 -12
-21 -20 -25 -18 -3 2 -15 0 -26 -5 -18 -7 -17 -8 7 -8 15 -1 33 5 40 13 10 10
17 11 32 2 14 -8 20 -8 23 2 3 6 16 12 29 12 13 0 24 5 24 10 0 13 -37 13 -45
0 -4 -7 -14 -5 -28 5 -12 8 -30 15 -40 15 -10 0 -31 9 -47 20 -15 11 -30 17
-32 14 -3 -2 -27 7 -53 21 -26 14 -52 25 -58 25 -5 0 -18 11 -29 25 -11 14
-26 25 -34 25 -19 0 -64 29 -64 42 0 15 -38 50 -44 40z m112 -117 c-3 -3 -9 2
-12 12 -6 14 -5 15 5 6 7 -7 10 -15 7 -18z"/>
<path d="M1070 950 c-8 -5 -11 -12 -7 -16 4 -4 13 -2 19 4 15 15 7 24 -12 12z"/>
<path d="M2338 860 c-43 -43 -78 -83 -78 -89 0 -17 9 -13 34 14 13 14 29 25
36 25 7 0 10 8 7 19 -3 15 0 17 16 13 17 -4 19 -1 15 16 -4 14 -2 20 4 16 8
-5 68 49 68 62 0 18 -37 -9 -102 -76z"/>
<path d="M2200 919 c0 -5 5 -7 10 -4 6 3 10 8 10 11 0 2 -4 4 -10 4 -5 0 -10
-5 -10 -11z"/>
<path d="M1535 910 c3 -5 8 -10 11 -10 2 0 4 5 4 10 0 6 -5 10 -11 10 -5 0 -7
-4 -4 -10z"/>
<path d="M2076 904 c-9 -8 -16 -19 -16 -22 0 -4 -10 -12 -22 -17 -12 -6 -23
-18 -24 -27 -3 -22 24 -24 32 -3 4 8 13 15 21 15 10 0 14 7 10 19 -3 12 1 22
10 25 8 3 12 2 9 -3 -3 -5 1 -11 9 -15 16 -6 19 3 9 28 -8 20 -18 20 -38 0z"/>
<path d="M1256 875 c-6 -18 16 -30 39 -21 20 7 8 36 -15 36 -10 0 -21 -7 -24
-15z"/>
<path d="M1443 866 c5 -16 22 -17 40 -4 15 12 14 13 -13 13 -17 1 -29 -4 -27
-9z"/>
<path d="M2145 870 c-3 -5 -1 -10 4 -10 6 0 11 5 11 10 0 6 -2 10 -4 10 -3 0
-8 -4 -11 -10z"/>
<path d="M2270 872 c0 -4 10 -9 22 -9 18 -2 20 0 8 7 -18 12 -30 13 -30 2z"/>
<path d="M440 839 c0 -5 5 -7 10 -4 6 3 10 8 10 11 0 2 -4 4 -10 4 -5 0 -10
-5 -10 -11z"/>
<path d="M2100 839 c0 -5 5 -7 10 -4 6 3 10 8 10 11 0 2 -4 4 -10 4 -5 0 -10
-5 -10 -11z"/>
<path d="M1975 827 c-17 -22 -17 -40 0 -33 9 3 19 6 21 6 2 0 4 9 4 20 0 23
-10 25 -25 7z"/>
<path d="M1935 810 c-4 -13 -15 -20 -31 -20 -13 0 -24 -4 -24 -10 0 -5 -11
-10 -24 -10 -14 0 -31 -7 -40 -15 -8 -8 -25 -15 -38 -15 -13 0 -33 -6 -44 -14
-14 -10 -23 -11 -32 -4 -9 8 -16 8 -24 0 -7 -7 -20 -12 -30 -12 -10 0 -18 -5
-18 -11 0 -7 -16 -8 -45 -3 -30 4 -45 3 -45 -5 0 -6 13 -11 29 -11 17 0 32 -4
36 -10 3 -5 13 -6 21 -3 9 3 25 6 37 7 11 1 22 7 25 15 3 8 0 11 -7 7 -6 -4
-11 -2 -11 3 0 15 37 14 42 0 3 -9 12 -9 34 -1 16 6 23 11 17 11 -7 1 -13 5
-13 11 0 5 22 8 51 6 36 -3 48 -1 40 7 -16 16 -14 27 5 27 9 0 12 -5 8 -12 -5
-8 -2 -9 10 -5 10 4 22 7 28 7 6 0 8 6 5 14 -4 11 1 14 21 13 22 -2 26 2 28
26 3 32 -2 35 -11 7z"/>
<path d="M478 813 c7 -3 16 -2 19 1 4 3 -2 6 -13 5 -11 0 -14 -3 -6 -6z"/>
<path d="M2068 813 c7 -3 16 -2 19 1 4 3 -2 6 -13 5 -11 0 -14 -3 -6 -6z"/>
<path d="M1055 790 c-3 -5 -2 -10 4 -10 5 0 13 5 16 10 3 6 2 10 -4 10 -5 0
-13 -4 -16 -10z"/>
<path d="M1124 778 c3 -17 36 -23 36 -8 0 7 -6 10 -14 7 -8 -3 -17 -2 -20 4
-2 5 -3 4 -2 -3z"/>
<path d="M1416 783 c-11 -11 -6 -23 9 -23 8 0 15 4 15 9 0 13 -16 22 -24 14z"/>
<path d="M2028 783 c7 -3 16 -2 19 1 4 3 -2 6 -13 5 -11 0 -14 -3 -6 -6z"/>
<path d="M568 763 c7 -3 16 -2 19 1 4 3 -2 6 -13 5 -11 0 -14 -3 -6 -6z"/>
<path d="M1978 763 c7 -3 16 -2 19 1 4 3 -2 6 -13 5 -11 0 -14 -3 -6 -6z"/>
<path d="M618 733 c6 -2 18 -2 25 0 6 3 1 5 -13 5 -14 0 -19 -2 -12 -5z"/>
<path d="M1928 733 c7 -3 16 -2 19 1 4 3 -2 6 -13 5 -11 0 -14 -3 -6 -6z"/>
<path d="M670 710 c0 -5 6 -10 14 -10 8 0 18 5 21 10 3 6 -3 10 -14 10 -12 0
-21 -4 -21 -10z"/>
<path d="M1860 710 c0 -5 4 -10 9 -10 6 0 13 5 16 10 3 6 -1 10 -9 10 -9 0
-16 -4 -16 -10z"/>
<path d="M900 696 c0 -8 -4 -18 -10 -21 -6 -4 -7 1 -3 11 5 13 -2 12 -35 -7
-46 -26 -33 -38 20 -20 17 6 62 14 99 18 40 3 66 10 62 16 -3 5 -26 7 -54 3
-31 -4 -49 -3 -49 4 0 5 -7 10 -15 10 -8 0 -15 -6 -15 -14z"/>
<path d="M1780 690 c0 -5 12 -10 28 -9 24 0 25 1 7 9 -27 12 -35 12 -35 0z"/>
<path d="M1695 660 c3 -5 17 -10 31 -10 14 0 22 4 19 10 -3 6 -17 10 -31 10
-14 0 -22 -4 -19 -10z"/>
<path d="M1085 609 c-15 -6 -11 -8 19 -8 22 -1 36 2 32 6 -10 10 -29 11 -51 2z"/>
<path d="M1420 609 c0 -5 14 -9 32 -9 37 0 34 7 -5 14 -15 2 -27 0 -27 -5z"/>
</g>
</svg>
