<?xml version="1.0" standalone="no"?>
<!DOCTYPE svg PUBLIC "-//W3C//DTD SVG 20010904//EN"
 "http://www.w3.org/TR/2001/REC-SVG-20010904/DTD/svg10.dtd">
<svg version="1.0" xmlns="http://www.w3.org/2000/svg"
 width="256.000000pt" height="256.000000pt" viewBox="0 0 256.000000 256.000000"
 preserveAspectRatio="xMidYMid meet">
<metadata>
Created by potrace 1.16, written by Peter Selinger 2001-2019
</metadata>
<g transform="translate(0.000000,256.000000) scale(0.100000,-0.100000)"
fill="#000000" stroke="none">
<path d="M1045 2541 c-237 -53 -446 -190 -572 -377 -54 -80 -76 -124 -109
-224 -25 -77 -28 -99 -28 -225 0 -131 2 -146 32 -235 72 -218 218 -387 434
-503 158 -85 334 -123 528 -113 168 8 264 33 408 104 318 157 505 457 489 782
-6 127 -24 198 -78 307 -118 243 -357 426 -629 483 -30 6 -65 13 -77 16 -15 3
-23 0 -23 -9 0 -8 26 -17 69 -25 272 -51 520 -239 640 -485 135 -275 97 -558
-109 -815 -91 -113 -299 -253 -435 -292 -174 -50 -312 -61 -455 -36 -361 63
-637 288 -742 606 -29 85 -32 107 -32 215 0 104 4 131 28 205 33 100 55 144
109 224 127 187 355 336 580 378 41 8 67 17 67 25 0 16 5 16 -95 -6z"/>
<path d="M1040 2441 c-207 -49 -320 -138 -320 -254 0 -61 14 -94 58 -140 43
-44 106 -80 195 -107 102 -32 102 -33 116 63 25 172 79 321 140 386 17 18 31
42 31 52 0 17 -8 19 -72 18 -40 0 -107 -9 -148 -18z m168 -33 c-59 -64 -113
-212 -139 -383 -6 -44 -13 -81 -13 -82 -1 -1 -30 6 -63 17 -158 49 -253 135
-253 227 0 40 43 104 93 140 81 59 244 110 354 112 l51 1 -30 -32z"/>
<path d="M1300 2439 c0 -12 10 -29 23 -39 56 -45 125 -226 148 -395 14 -98 13
-98 116 -65 170 53 253 131 253 238 0 109 -70 180 -235 241 -56 20 -176 41
-241 41 -58 0 -64 -2 -64 -21z m182 -14 c208 -43 338 -138 338 -247 0 -61 -55
-128 -143 -174 -42 -22 -168 -67 -173 -61 -1 1 -7 40 -13 86 -25 170 -92 347
-149 392 l-25 19 46 0 c25 0 79 -7 119 -15z"/>
<path d="M1220 2230 c-40 -43 -89 -207 -90 -297 l0 -33 151 0 152 0 -8 72 c-9
99 -49 219 -84 257 -39 42 -83 42 -121 1z m101 -21 c31 -34 72 -149 83 -236
l7 -53 -132 0 -131 0 7 43 c20 128 65 244 103 267 26 14 32 13 63 -21z"/>
<path d="M527 2082 c-43 -95 -59 -170 -64 -298 -6 -141 11 -248 58 -357 108
-255 352 -436 637 -472 50 -7 52 -6 52 17 0 14 -13 49 -29 79 -60 111 -95 274
-113 526 l-11 163 -56 15 c-103 30 -236 101 -296 159 -60 59 -105 141 -105
194 0 27 -4 32 -24 32 -19 0 -28 -11 -49 -58z m83 -92 c52 -101 208 -208 371
-255 l56 -15 11 -163 c18 -248 53 -412 111 -522 14 -27 27 -53 29 -56 5 -10
-97 9 -167 32 -214 68 -393 231 -480 436 -82 192 -79 425 7 618 l27 60 6 -46
c4 -25 17 -65 29 -89z"/>
<path d="M1966 2108 c-49 -171 -160 -271 -380 -343 l-83 -27 -7 -124 c-14
-255 -57 -457 -121 -571 -14 -25 -25 -57 -25 -70 0 -24 2 -25 53 -18 145 18
311 89 420 180 79 65 170 183 209 271 51 114 63 176 63 339 0 157 -11 220 -56
325 -17 40 -26 50 -46 50 -13 0 -25 -6 -27 -12z m91 -168 c25 -90 25 -300 0
-389 -70 -256 -265 -459 -518 -540 -57 -19 -169 -42 -169 -36 0 1 11 23 25 48
64 114 107 316 121 571 l7 124 83 27 c94 31 158 62 227 112 77 56 112 109 154
233 7 20 47 -66 70 -150z"/>
<path d="M1124 1623 c13 -189 47 -330 92 -378 33 -36 96 -35 130 2 43 47 79
190 90 368 l7 105 -163 0 -163 0 7 -97z m292 -5 c-19 -230 -72 -378 -136 -378
-64 0 -114 142 -136 383 l-6 77 142 0 143 0 -7 -82z"/>
<path d="M578 630 c-44 -13 -96 -49 -120 -83 -118 -164 -92 -412 54 -517 46
-34 58 -37 58 -15 0 8 -4 15 -8 15 -5 0 -27 16 -50 35 -77 66 -122 202 -101
303 21 104 67 178 133 217 55 32 92 32 147 -4 60 -38 106 -111 124 -200 14
-63 14 -78 0 -140 -19 -83 -60 -151 -114 -188 -37 -26 -53 -53 -32 -53 21 0
97 69 123 110 15 25 35 80 45 122 15 71 15 83 0 159 -11 59 -26 96 -51 135
-53 79 -143 124 -208 104z"/>
<path d="M1495 635 c-5 -2 -22 -6 -38 -9 -33 -8 -98 -65 -127 -111 -49 -80
-65 -222 -35 -322 20 -69 73 -143 121 -170 45 -26 54 -28 54 -10 0 6 -17 21
-37 32 -20 11 -51 42 -70 68 -99 146 -79 337 47 451 67 61 133 60 201 -1 130
-118 141 -341 23 -472 -25 -28 -54 -53 -64 -56 -17 -6 -29 -35 -15 -35 19 0
69 36 103 75 145 165 84 495 -102 550 -27 8 -50 15 -50 14 -1 0 -5 -2 -11 -4z"/>
<path d="M0 610 c0 -6 65 -10 175 -10 l175 0 0 -45 0 -45 -65 0 -65 0 0 -240
0 -240 -35 0 -35 0 0 240 0 240 -75 0 c-43 0 -75 -4 -75 -10 0 -6 28 -10 65
-10 l65 0 0 -240 0 -240 55 0 55 0 0 240 0 240 65 0 65 0 0 65 0 65 -185 0
c-117 0 -185 -4 -185 -10z"/>
<path d="M840 612 c0 -5 38 -92 85 -193 l85 -184 0 -112 0 -113 50 0 50 0 0
106 0 106 60 134 c33 73 73 161 90 195 16 35 30 64 30 66 0 2 -27 3 -61 3
l-60 0 -26 -57 c-14 -32 -38 -89 -53 -126 l-27 -68 -53 125 -53 126 -58 0
c-33 0 -59 -4 -59 -8z m150 -137 c44 -105 55 -125 74 -125 17 0 26 13 45 62
13 34 36 90 52 125 26 57 31 63 59 63 16 0 30 -1 30 -3 0 -1 -36 -81 -80 -177
l-80 -175 0 -107 0 -108 -30 0 -30 0 0 111 0 112 -71 156 c-39 86 -76 164 -81
174 -7 15 -4 17 25 17 l34 0 53 -125z"/>
<path d="M1750 555 l0 -65 70 0 70 0 0 -240 0 -240 50 0 50 0 0 240 0 240 70
0 70 0 0 65 0 65 -190 0 -190 0 0 -65z m360 0 l0 -45 -70 0 -70 0 0 -240 0
-240 -30 0 -30 0 0 240 0 240 -70 0 -70 0 0 45 0 45 170 0 170 0 0 -45z"/>
<path d="M2260 598 c-7 -17 -100 -333 -167 -571 -5 -15 2 -17 56 -17 38 0 61
4 61 11 0 6 7 35 16 65 l15 54 90 0 c58 0 89 -4 89 -11 0 -6 7 -35 16 -65 l15
-54 55 0 c40 0 54 4 54 14 0 8 -16 70 -36 138 -20 67 -58 197 -84 288 l-47
165 -62 3 c-56 3 -62 1 -71 -20z m127 -53 c8 -27 43 -149 78 -270 36 -121 65
-226 65 -233 0 -7 -13 -12 -29 -12 -27 0 -31 5 -45 54 -9 30 -16 59 -16 65 0
7 -37 11 -109 11 l-110 0 -15 -54 c-9 -30 -16 -59 -16 -65 0 -6 -16 -11 -36
-11 -25 0 -35 4 -31 12 2 7 37 126 76 263 39 138 76 260 81 273 9 20 16 23 52
20 40 -3 41 -4 55 -53z"/>
<path d="M2300 465 c0 -8 -11 -54 -25 -101 -37 -128 -39 -124 50 -124 l75 0 0
28 c0 23 -20 109 -46 195 -7 21 -54 24 -54 2z m56 -101 c13 -49 24 -92 24 -96
0 -5 -24 -8 -54 -8 l-55 0 20 68 c11 37 22 82 26 100 3 18 8 31 10 28 2 -2 15
-44 29 -92z"/>
<path d="M575 523 c-32 -8 -74 -54 -85 -92 -13 -47 -13 -186 0 -233 6 -20 24
-51 41 -68 26 -25 38 -30 81 -30 98 0 138 60 138 207 0 102 -13 153 -49 187
-26 25 -87 39 -126 29z m108 -51 c34 -37 47 -83 47 -163 0 -116 -46 -189 -118
-189 -39 0 -87 47 -102 98 -13 47 -13 146 0 193 25 88 117 121 173 61z"/>
<path d="M1450 512 c-53 -26 -73 -71 -78 -171 -5 -107 10 -165 53 -208 29 -29
40 -33 83 -33 68 0 106 32 128 108 22 75 15 192 -15 250 -34 67 -102 89 -171
54z m95 -16 c97 -41 114 -275 24 -350 -43 -37 -83 -34 -124 7 -42 42 -59 102
-53 189 6 80 30 126 78 150 42 21 33 21 75 4z"/>
</g>
</svg>
