<?xml version="1.0" standalone="no"?>
<!DOCTYPE svg PUBLIC "-//W3C//DTD SVG 20010904//EN"
 "http://www.w3.org/TR/2001/REC-SVG-20010904/DTD/svg10.dtd">
<svg version="1.0" xmlns="http://www.w3.org/2000/svg"
 width="180.000000pt" height="180.000000pt" viewBox="0 0 180.000000 180.000000"
 preserveAspectRatio="xMidYMid meet">
<metadata>
Created by potrace 1.16, written by Peter Selinger 2001-2019
</metadata>
<g transform="translate(0.000000,180.000000) scale(0.100000,-0.100000)"
fill="#000000" stroke="none">
<path d="M790 1333 c-64 -6 -174 -34 -240 -60 -432 -172 -432 -574 0 -746 114
-45 203 -61 350 -61 147 0 236 16 350 61 432 172 432 574 0 746 -36 14 -96 33
-135 42 -66 15 -249 25 -325 18z m173 -30 c-35 -2 -91 -2 -125 0 -35 2 -7 3
62 3 69 0 97 -1 63 -3z m-200 -10 c-7 -2 -21 -2 -30 0 -10 3 -4 5 12 5 17 0
24 -2 18 -5z m310 0 c-7 -2 -21 -2 -30 0 -10 3 -4 5 12 5 17 0 24 -2 18 -5z
m32 -38 c136 -31 205 -85 176 -138 -17 -31 -88 -71 -164 -90 -64 -17 -61 -19
-72 48 -17 103 -85 195 -145 195 -60 0 -128 -92 -145 -195 -11 -67 -8 -65 -71
-48 -103 26 -174 74 -174 116 0 49 113 105 255 127 82 12 255 5 340 -15z
m-562 -25 c-39 -23 -53 -48 -53 -93 0 -45 29 -80 87 -105 58 -24 156 -47 175
-40 7 3 19 32 26 64 15 71 57 150 95 178 l27 20 28 -20 c37 -28 79 -107 94
-178 7 -32 19 -61 26 -64 39 -15 211 46 242 86 39 49 15 139 -41 157 -11 4
-18 9 -15 12 7 7 119 -54 157 -87 29 -25 31 -29 14 -30 -15 0 -25 -11 -33 -35
-24 -64 -114 -119 -253 -153 l-74 -18 -6 -90 c-4 -49 -12 -109 -19 -134 -14
-51 -54 -135 -70 -145 -5 -3 -10 -19 -10 -36 0 -27 -2 -29 -40 -29 -38 0 -40
2 -40 29 0 17 -5 33 -10 36 -16 10 -56 94 -70 145 -7 25 -15 85 -19 134 l-6
90 -74 18 c-139 34 -229 89 -253 153 -8 24 -18 35 -33 35 -17 1 -16 5 14 29
34 30 138 90 156 91 6 0 -4 -9 -22 -20z m-206 -157 c-30 -54 -32 -65 -32 -153
0 -84 3 -102 28 -153 35 -70 109 -145 182 -183 29 -16 52 -30 50 -32 -13 -14
-179 97 -228 152 -83 94 -106 214 -58 306 20 38 79 120 87 120 1 0 -12 -26
-29 -57z m1180 -58 c52 -97 32 -214 -54 -311 -49 -55 -215 -166 -228 -152 -2
2 21 16 50 32 73 38 147 113 182 183 25 51 28 69 28 153 0 88 -2 99 -32 155
l-33 60 30 -35 c17 -19 43 -57 57 -85z m-1076 5 c17 -17 48 -39 68 -49 47 -24
166 -61 197 -61 20 0 24 -5 25 -32 1 -88 29 -229 55 -281 9 -18 28 -45 43 -61
23 -25 24 -28 6 -23 -11 3 -41 8 -68 12 -26 3 -79 17 -119 31 -279 94 -396
319 -274 523 l20 35 8 -31 c5 -18 22 -46 39 -63z m1010 12 c66 -150 -9 -324
-183 -426 -56 -32 -172 -73 -235 -81 -27 -4 -57 -9 -68 -12 -18 -5 -17 -2 6
23 15 16 34 43 43 61 26 52 54 193 55 281 1 27 5 32 25 32 42 0 180 48 225 78
47 32 81 76 81 107 l1 20 15 -20 c9 -11 25 -39 35 -63z"/>
<path d="M826 1153 c-28 -40 -52 -132 -43 -157 5 -13 25 -16 117 -16 92 0 112
3 117 16 9 25 -15 117 -43 157 -23 34 -28 37 -74 37 -46 0 -51 -3 -74 -37z
m114 -8 c30 -32 63 -128 47 -136 -14 -8 -173 -7 -180 1 -3 3 2 29 12 58 20 57
55 102 81 102 9 0 27 -11 40 -25z"/>
<path d="M774 906 c-9 -24 15 -154 38 -208 23 -54 41 -68 88 -68 47 0 65 14
89 69 22 52 46 194 36 211 -4 6 -57 10 -126 10 -95 0 -121 -3 -125 -14z m226
-48 c0 -87 -58 -208 -100 -208 -42 0 -100 121 -100 208 l0 37 100 0 100 0 0
-37z"/>
</g>
</svg>
