<?xml version="1.0" standalone="no"?>
<!DOCTYPE svg PUBLIC "-//W3C//DTD SVG 20010904//EN"
 "http://www.w3.org/TR/2001/REC-SVG-20010904/DTD/svg10.dtd">
<svg version="1.0" xmlns="http://www.w3.org/2000/svg"
 width="200.000000pt" height="213.000000pt" viewBox="0 0 200.000000 213.000000"
 preserveAspectRatio="xMidYMid meet">
<metadata>
Created by potrace 1.16, written by Peter Selinger 2001-2019
</metadata>
<g transform="translate(0.000000,213.000000) scale(0.100000,-0.100000)"
fill="#000000" stroke="none">
<path d="M650 2120 c-47 -8 -179 -58 -202 -77 -7 -6 -27 -18 -45 -27 -52 -26
-152 -126 -199 -197 -24 -36 -44 -70 -44 -74 0 -4 -6 -21 -14 -38 -38 -88 -41
-103 -40 -262 1 -151 3 -163 28 -217 14 -31 26 -60 26 -64 0 -30 181 -234 208
-234 23 0 25 -31 3 -60 -11 -16 -21 -34 -21 -40 0 -6 -6 -18 -12 -25 -31 -34
-38 -45 -38 -56 0 -16 -122 -159 -172 -202 -24 -21 -51 -44 -60 -52 -10 -8
-22 -15 -27 -15 -15 0 -41 -42 -41 -65 1 -17 4 -15 28 13 15 18 35 32 45 32
10 0 16 4 12 10 -3 5 7 16 22 24 45 23 213 209 213 235 0 7 6 19 13 26 29 34
37 45 37 55 0 9 35 65 50 80 8 8 7 50 -1 45 -4 -3 -12 2 -19 10 -7 8 -15 13
-19 11 -16 -10 -201 200 -201 228 0 4 -12 33 -26 64 -24 53 -26 68 -27 198 -1
139 2 156 39 241 8 17 14 34 14 38 0 4 20 38 44 74 47 72 148 171 199 197 18
9 39 22 47 28 20 17 178 77 193 74 7 -1 36 4 65 10 63 14 112 16 112 3 0 -5
-26 -12 -57 -15 -285 -34 -511 -195 -606 -434 -29 -73 -31 -84 -30 -212 0
-128 2 -139 31 -208 47 -111 101 -179 206 -260 54 -42 58 -47 53 -79 -7 -42
-93 -186 -163 -275 -30 -36 -84 -93 -121 -125 -37 -32 -87 -77 -111 -100 l-44
-42 30 -43 c86 -123 273 -258 399 -287 46 -11 56 -11 99 8 86 38 225 198 379
436 123 190 127 195 156 216 41 29 76 25 98 -12 20 -33 38 -142 24 -146 -4 -2
-7 -23 -5 -48 2 -25 0 -45 -4 -45 -5 0 -9 -35 -10 -77 0 -43 -4 -112 -9 -155
-7 -74 -7 -77 18 -102 14 -14 39 -27 54 -27 128 -7 429 21 485 44 30 13 38 24
60 88 54 154 110 408 139 634 6 50 15 114 20 144 5 30 9 74 9 98 0 24 3 43 8
43 4 0 8 46 8 103 1 56 5 198 9 316 9 247 6 259 -74 310 -110 70 -390 178
-513 197 -21 4 -38 11 -38 16 0 5 -4 7 -8 4 -13 -8 -142 16 -142 26 0 6 24 7
58 3 106 -11 132 -17 127 -26 -4 -5 0 -6 7 -4 8 3 33 -1 57 -10 24 -8 54 -15
68 -15 16 0 22 -4 17 -12 -4 -7 -3 -8 5 -4 16 10 53 -3 45 -16 -4 -6 -3 -8 3
-5 14 9 95 -17 86 -28 -4 -4 -3 -5 4 -1 6 3 27 0 45 -8 18 -8 50 -22 71 -31
22 -9 35 -21 31 -27 -4 -7 -2 -8 4 -4 7 4 18 4 25 -1 6 -4 15 -8 18 -8 4 0 28
-15 53 -33 73 -52 78 -75 73 -292 -6 -251 -24 -504 -42 -625 -9 -55 -20 -136
-25 -180 -9 -86 -34 -218 -48 -257 -5 -12 -7 -28 -5 -35 6 -17 -42 -187 -92
-322 -26 -71 -33 -73 -398 -101 -129 -10 -207 -2 -207 21 0 6 -4 8 -9 5 -14
-9 -34 69 -28 115 3 24 11 103 16 174 6 72 14 142 17 157 9 42 -13 132 -36
146 -16 10 -25 8 -55 -9 -19 -12 -35 -24 -35 -28 0 -4 -10 -19 -22 -34 -13
-16 -36 -52 -53 -81 -49 -85 -97 -156 -106 -156 -5 0 -9 -6 -9 -14 0 -8 -6
-21 -13 -28 -7 -7 -36 -46 -66 -85 -29 -40 -56 -73 -59 -73 -4 -1 -23 -21 -42
-45 -19 -25 -39 -45 -45 -45 -6 0 -16 -9 -22 -20 -7 -10 -32 -29 -55 -40 l-43
-21 45 5 c32 3 51 12 67 30 12 14 26 26 30 26 4 0 24 20 43 45 19 24 38 44 42
45 3 0 30 33 59 73 30 39 59 78 66 85 7 7 13 20 13 28 0 8 4 14 9 14 9 0 56
70 106 156 87 150 135 183 152 101 9 -43 1 -196 -17 -320 -13 -91 -13 -160 2
-194 31 -70 78 -73 510 -34 110 10 143 26 163 82 45 124 89 277 99 344 3 22
12 72 21 110 8 39 20 108 25 155 5 47 16 130 25 185 22 140 37 463 33 704 l-3
203 -40 34 c-39 33 -132 82 -230 121 -122 50 -187 73 -203 73 -9 0 -52 11 -95
25 -97 31 -337 48 -337 24 0 -11 -24 -14 -120 -14 -89 0 -120 3 -120 13 0 14
-123 15 -200 2z m533 -16 c-3 -8 -12 -13 -20 -10 -8 3 -26 6 -39 6 -13 0 -24
5 -24 10 0 6 20 10 45 10 36 0 43 -3 38 -16z m4 -39 c264 -35 607 -156 712
-251 l46 -42 0 -178 c0 -245 -28 -576 -71 -854 -19 -123 -72 -353 -105 -456
-36 -112 -42 -123 -72 -137 -36 -17 -215 -36 -379 -40 -159 -3 -154 -14 -125
283 28 283 8 351 -102 341 -45 -4 -74 -36 -196 -220 -176 -266 -293 -403 -382
-450 -75 -39 -223 35 -388 194 -47 45 -85 89 -85 98 0 9 21 33 48 54 26 20 90
81 142 133 89 91 141 163 211 300 27 51 30 118 6 131 -43 24 -122 96 -162 147
-60 75 -94 148 -113 243 -14 65 -14 90 -5 158 42 288 288 508 614 550 106 14
281 12 406 -4z"/>
<path d="M1092 1823 c-29 -30 -63 -72 -112 -140 l-30 -43 -145 0 c-141 0 -145
-1 -160 -24 -23 -35 -12 -64 66 -163 42 -54 69 -98 69 -113 0 -13 -19 -73 -41
-134 -33 -86 -40 -115 -33 -135 15 -41 62 -39 189 8 59 23 115 41 124 41 10 0
57 -34 107 -75 95 -81 122 -94 158 -77 26 12 36 59 36 176 0 39 3 81 6 93 4
14 44 47 108 89 114 75 126 87 126 125 0 37 -23 52 -153 95 -59 20 -116 44
-126 55 -9 10 -30 60 -46 111 -17 50 -38 102 -48 115 -25 31 -62 29 -95 -4z
m118 -121 c37 -109 50 -128 100 -150 19 -8 38 -19 42 -26 6 -8 8 -8 8 1 0 7
21 3 60 -13 33 -13 66 -24 74 -24 18 0 46 -38 40 -54 -2 -6 -54 -44 -114 -85
-123 -82 -115 -67 -124 -232 -3 -52 -8 -103 -12 -112 -10 -27 -47 -20 -88 18
-21 19 -41 35 -43 35 -3 0 -25 18 -51 40 -25 22 -56 43 -69 46 -15 4 -61 -9
-127 -35 -58 -22 -119 -42 -137 -43 -27 -3 -32 1 -35 21 -3 14 12 66 32 115
56 137 54 153 -33 267 -74 96 -87 131 -56 143 9 4 71 6 138 6 66 -1 127 -1
136 -1 9 1 49 44 89 96 40 53 80 100 89 105 26 14 46 -14 81 -118z"/>
<path d="M1125 1792 c2 -3 -24 -39 -58 -81 -112 -136 -83 -123 -244 -119 -90
2 -140 -1 -139 -7 3 -18 27 -56 47 -76 11 -11 17 -24 14 -29 -4 -6 0 -10 7
-10 17 0 63 -67 72 -104 7 -30 -13 -117 -40 -169 -8 -16 -14 -35 -14 -43 0 -8
-4 -14 -10 -14 -5 0 -10 -14 -10 -30 0 -28 2 -30 28 -24 15 4 42 16 60 26 18
10 39 18 46 18 8 0 38 11 68 25 55 26 83 32 74 16 -4 -5 3 -7 13 -4 11 3 28
-4 40 -16 12 -12 24 -21 29 -21 4 0 19 -12 34 -27 57 -60 114 -98 123 -83 4 6
10 63 14 128 4 64 13 127 19 139 7 12 33 34 57 49 25 14 45 30 45 35 0 5 9 9
20 9 10 0 23 6 27 13 4 7 20 20 35 29 27 17 33 56 7 50 -14 -4 -83 18 -144 44
-22 10 -44 17 -48 16 -28 -7 -97 92 -97 140 0 29 -50 125 -65 125 -8 0 -13 -2
-10 -5z m37 -85 c9 -23 19 -55 23 -72 3 -16 17 -49 31 -72 19 -33 33 -44 71
-56 141 -45 187 -64 166 -71 -12 -4 -24 -13 -27 -21 -3 -8 -15 -15 -26 -15
-11 0 -20 -4 -20 -9 0 -5 -21 -21 -46 -36 -58 -34 -74 -70 -75 -172 -1 -43 -4
-91 -8 -107 l-6 -29 -29 24 c-16 13 -41 36 -55 52 -14 15 -29 27 -33 27 -5 0
-17 9 -27 19 -29 29 -88 37 -136 19 -22 -9 -56 -21 -75 -28 -19 -7 -53 -21
-74 -32 -21 -10 -41 -16 -44 -13 -3 3 0 5 6 5 7 0 12 6 12 14 0 8 6 27 14 43
53 103 56 209 9 272 -15 20 -31 41 -35 46 -4 6 -19 24 -34 40 l-26 30 134 3
c151 3 129 -8 227 115 30 37 57 67 60 67 3 0 13 -19 23 -43z"/>
<path d="M0 295 c0 -25 12 -43 63 -91 78 -75 162 -144 176 -144 6 0 11 -3 11
-7 0 -30 159 -69 175 -43 5 9 4 11 -4 6 -18 -12 -151 38 -151 56 0 5 -5 8 -10
8 -26 0 -223 178 -248 225 -10 18 -11 17 -12 -10z"/>
</g>
</svg>
