<?xml version="1.0" standalone="no"?>
<!DOCTYPE svg PUBLIC "-//W3C//DTD SVG 20010904//EN"
 "http://www.w3.org/TR/2001/REC-SVG-20010904/DTD/svg10.dtd">
<svg version="1.0" xmlns="http://www.w3.org/2000/svg"
 width="64.000000pt" height="64.000000pt" viewBox="0 0 64.000000 64.000000"
 preserveAspectRatio="xMidYMid meet">
<metadata>
Created by potrace 1.16, written by Peter Selinger 2001-2019
</metadata>
<g transform="translate(0.000000,64.000000) scale(0.100000,-0.100000)"
fill="#000000" stroke="none">
<path d="M143 530 c-17 -10 -37 -28 -43 -39 -6 -12 -18 -21 -26 -21 -33 0 -74
-30 -74 -55 l0 -24 25 25 c13 13 38 27 55 31 17 3 35 14 41 25 16 30 70 58
114 58 42 0 102 -29 111 -55 4 -9 19 -15 35 -15 41 0 92 -23 115 -52 11 -14
36 -30 56 -37 21 -7 49 -26 63 -42 25 -30 25 -30 25 -6 0 29 -24 53 -71 69
-19 6 -43 23 -53 36 -23 29 -74 52 -115 52 -16 0 -31 6 -35 15 -20 52 -159 74
-223 35z"/>
<path d="M188 474 c-15 -8 -31 -26 -34 -39 -5 -20 -13 -25 -36 -25 -34 0 -78
-39 -78 -70 0 -11 11 -32 25 -45 23 -24 30 -25 148 -25 99 0 127 3 137 15 17
20 43 19 63 -3 20 -22 22 -43 5 -60 -15 -15 -64 -16 -73 -2 -4 6 -60 10 -136
10 -136 0 -176 10 -198 47 -9 15 -10 14 -11 -9 0 -30 39 -58 83 -58 19 0 26
-8 36 -40 8 -28 23 -47 44 -61 30 -18 47 -19 229 -17 192 3 197 4 222 27 14
14 26 35 26 48 0 21 -3 20 -34 -15 l-34 -37 -175 -3 c-199 -4 -228 3 -253 63
-8 19 -14 37 -14 40 0 3 45 5 100 5 77 0 107 -4 126 -17 24 -15 27 -15 52 4
35 26 39 56 12 83 -17 17 -28 20 -48 15 -15 -4 -72 -9 -127 -12 l-100 -3 28
25 c15 14 35 25 42 25 8 0 21 15 29 33 7 19 25 43 40 54 l26 21 -26 21 c-31
25 -58 26 -96 5z m72 -24 c0 -5 -5 -12 -11 -16 -6 -3 -17 -20 -23 -36 -7 -16
-28 -37 -46 -46 -18 -9 -38 -26 -44 -37 -6 -11 -12 -22 -13 -24 -6 -11 -53 32
-53 49 0 24 37 50 71 50 20 0 28 6 33 25 10 38 86 68 86 35z"/>
</g>
</svg>
