<?xml version="1.0" standalone="no"?>
<!DOCTYPE svg PUBLIC "-//W3C//DTD SVG 20010904//EN"
 "http://www.w3.org/TR/2001/REC-SVG-20010904/DTD/svg10.dtd">
<svg version="1.0" xmlns="http://www.w3.org/2000/svg"
 width="50.000000pt" height="50.000000pt" viewBox="0 0 50.000000 50.000000"
 preserveAspectRatio="xMidYMid meet">
<metadata>
Created by potrace 1.16, written by Peter Selinger 2001-2019
</metadata>
<g transform="translate(0.000000,50.000000) scale(0.100000,-0.100000)"
fill="#000000" stroke="none">
<path d="M162 428 l-2 -78 -55 0 c-46 0 -55 -3 -55 -17 0 -15 -2 -16 -10 -3
-7 11 -10 5 -10 -22 0 -21 -4 -38 -10 -38 -5 0 -9 -17 -9 -37 l2 -38 7 35 c7
33 7 32 9 -17 0 -28 6 -55 11 -58 12 -7 13 -25 2 -25 -5 0 -15 11 -22 25 -7
14 -15 23 -18 21 -6 -6 31 -66 40 -66 4 0 8 5 8 11 0 6 9 9 20 6 13 -3 25 2
34 15 10 14 15 16 19 6 4 -9 6 -7 6 5 1 9 -2 17 -7 17 -4 0 -6 20 -4 45 6 69
22 54 22 -20 l0 -65 34 0 c44 0 51 12 48 84 -3 44 0 57 10 54 16 -6 20 -97 5
-116 -5 -7 -7 -15 -3 -19 3 -3 6 -1 6 5 0 9 5 9 20 0 11 -7 18 -19 15 -25 -2
-7 0 -13 5 -13 6 0 10 8 11 18 0 14 2 14 9 -3 5 -11 9 -14 9 -7 1 9 6 10 19 3
19 -10 52 -9 91 4 13 4 21 3 18 -2 -3 -5 3 -10 14 -10 24 -2 37 23 20 40 -13
13 -15 31 -2 23 4 -3 8 24 7 59 -1 36 -5 65 -10 65 -4 0 -6 10 -3 21 10 39
-49 81 -104 73 -25 -4 -30 -2 -19 5 8 6 24 11 35 11 13 0 16 3 9 10 -13 13
-64 -7 -64 -25 0 -23 -25 -33 -85 -36 l-60 -3 -6 80 -5 79 -2 -77z m258 -88
c21 -21 25 -46 11 -69 -6 -10 -5 -22 5 -35 19 -28 18 -49 -7 -80 -23 -29 -79
-36 -101 -13 -6 8 -22 11 -35 9 -22 -4 -23 -2 -23 61 0 55 -3 68 -19 77 -33
17 -51 -12 -51 -81 0 -52 -2 -59 -20 -59 -17 0 -19 8 -22 68 l-3 67 -30 0 -30
0 -3 -74 c-3 -72 -3 -73 -22 -56 -16 14 -20 31 -20 79 0 34 4 67 9 75 11 17
86 24 113 10 14 -8 23 -8 31 0 16 16 63 13 82 -5 9 -9 19 -29 22 -45 3 -16 9
-26 13 -24 5 3 3 18 -3 34 -24 63 54 110 103 61z m48 -105 c-3 -3 -9 2 -12 12
-6 14 -5 15 5 6 7 -7 10 -15 7 -18z m-2 -122 c-10 -10 -19 5 -10 18 6 11 8 11
12 0 2 -7 1 -15 -2 -18z"/>
<path d="M354 316 c-9 -24 4 -48 23 -44 12 2 18 12 18 28 0 29 -32 41 -41 16z"/>
<path d="M344 215 c-14 -37 26 -69 53 -42 22 22 8 57 -23 57 -14 0 -27 -7 -30
-15z"/>
<path d="M408 393 c6 -2 18 -2 25 0 6 3 1 5 -13 5 -14 0 -19 -2 -12 -5z"/>
<path d="M450 381 c0 -5 5 -13 10 -16 6 -3 10 -2 10 4 0 5 -4 13 -10 16 -5 3
-10 2 -10 -4z"/>
<path d="M11 314 c0 -11 3 -14 6 -6 3 7 2 16 -1 19 -3 4 -6 -2 -5 -13z"/>
<path d="M109 113 c-13 -16 -12 -17 3 -5 13 10 17 10 21 0 2 -7 7 -10 11 -7 4
3 0 11 -7 18 -11 9 -17 7 -28 -6z"/>
<path d="M206 121 c-3 -5 1 -11 9 -15 9 -3 15 0 15 9 0 16 -16 20 -24 6z"/>
<path d="M240 121 c0 -5 5 -13 10 -16 6 -3 10 -2 10 4 0 5 -4 13 -10 16 -5 3
-10 2 -10 -4z"/>
<path d="M68 103 c7 -3 16 -2 19 1 4 3 -2 6 -13 5 -11 0 -14 -3 -6 -6z"/>
<path d="M163 40 c0 -25 2 -35 4 -22 2 12 2 32 0 45 -2 12 -4 2 -4 -23z"/>
</g>
</svg>
