<?xml version="1.0" standalone="no"?>
<!DOCTYPE svg PUBLIC "-//W3C//DTD SVG 20010904//EN"
 "http://www.w3.org/TR/2001/REC-SVG-20010904/DTD/svg10.dtd">
<svg version="1.0" xmlns="http://www.w3.org/2000/svg"
 width="100.000000pt" height="100.000000pt" viewBox="0 0 100.000000 100.000000"
 preserveAspectRatio="xMidYMid meet">
<metadata>
Created by potrace 1.16, written by Peter Selinger 2001-2019
</metadata>
<g transform="translate(0.000000,100.000000) scale(0.100000,-0.100000)"
fill="#000000" stroke="none">
<path d="M93 993 c-13 -2 -23 -11 -23 -19 0 -8 -7 -14 -15 -14 -8 0 -15 -7
-15 -15 0 -8 -7 -15 -15 -15 -8 0 -15 -6 -15 -14 0 -8 -3 -21 -6 -30 -4 -11
-1 -16 10 -16 9 0 16 8 16 20 0 11 7 20 15 20 8 0 15 7 15 15 0 8 7 15 15 15
8 0 15 7 15 15 0 8 9 15 20 15 11 0 20 7 20 15 0 8 -3 14 -7 14 -5 -1 -18 -4
-30 -6z"/>
<path d="M870 986 c0 -9 8 -16 20 -16 11 0 20 -7 20 -15 0 -8 7 -15 15 -15 8
0 15 -7 15 -15 0 -8 7 -15 15 -15 8 0 15 -9 15 -20 0 -12 7 -20 16 -20 11 0
14 5 10 16 -3 9 -6 22 -6 30 0 8 -7 14 -15 14 -8 0 -15 7 -15 15 0 8 -7 15
-15 15 -8 0 -15 7 -15 15 0 8 -6 15 -14 15 -8 0 -21 3 -30 6 -11 4 -16 1 -16
-10z"/>
<path d="M440 902 c0 -5 20 -10 45 -10 25 -1 45 2 45 8 0 5 -20 10 -45 10 -25
0 -45 -4 -45 -8z"/>
<path d="M410 860 c0 -5 7 -7 15 -4 8 4 15 1 15 -5 0 -6 -7 -11 -15 -11 -12 0
-15 -15 -15 -75 0 -60 3 -75 15 -75 11 0 15 -12 15 -50 l0 -50 -65 0 -65 0 0
-30 0 -30 65 0 65 0 0 -140 0 -140 -35 0 c-41 0 -47 17 -7 23 19 3 14 4 -15 6
-31 1 -43 5 -43 16 0 8 -7 15 -15 15 -8 0 -15 7 -15 15 0 8 -7 15 -15 15 -11
0 -15 13 -16 53 0 43 -2 48 -10 29 -5 -13 -7 -28 -3 -33 3 -5 0 -9 -5 -9 -6 0
-11 20 -11 45 0 43 -1 45 -30 45 l-30 0 0 -82 c0 -114 15 -91 19 30 1 17 4 32
9 32 4 0 6 -38 4 -85 -3 -60 0 -85 8 -85 7 0 10 7 6 15 -3 8 -1 15 4 15 6 0
10 -13 10 -30 0 -20 5 -30 15 -30 8 0 15 -7 15 -15 0 -8 7 -15 15 -15 8 0 15
-7 15 -15 0 -10 10 -15 30 -15 17 0 30 -4 30 -10 0 -5 -7 -7 -15 -4 -8 4 -15
1 -15 -5 0 -8 50 -11 160 -11 107 0 160 4 160 11 0 6 -9 8 -20 4 -11 -4 -20
-2 -20 4 0 6 16 11 35 11 24 0 35 5 35 15 0 8 7 15 15 15 10 0 15 10 15 30 0
17 4 30 10 30 5 0 7 -7 4 -15 -4 -8 -1 -15 6 -15 8 0 11 21 8 70 -2 38 1 65 5
61 5 -5 9 -29 10 -55 4 -86 17 -47 17 49 l0 95 -30 0 -30 0 0 -65 c0 -39 -4
-65 -11 -65 -6 0 -8 9 -4 20 4 11 2 20 -4 20 -6 0 -11 -16 -11 -35 0 -24 -5
-35 -15 -35 -8 0 -15 -7 -15 -15 0 -11 -11 -15 -41 -15 -26 0 -38 -4 -34 -11
4 -6 13 -8 21 -5 8 3 14 1 14 -4 0 -6 -13 -10 -30 -10 l-30 0 -2 138 c0 85 -3
120 -7 92 -4 -25 -7 -87 -6 -137 0 -51 -3 -93 -7 -93 -5 0 -8 63 -8 140 l0
140 65 0 65 0 0 30 0 30 -65 0 -65 0 0 50 c0 49 -1 50 -30 50 -29 0 -30 -1
-30 -50 0 -27 -4 -50 -9 -50 -9 0 -8 63 3 97 4 12 12 20 19 18 7 -2 25 -6 40
-10 20 -4 27 -10 23 -20 -3 -8 -1 -15 4 -15 6 0 10 7 10 15 0 8 7 15 15 15 12
0 15 15 15 75 0 60 -3 75 -15 75 -8 0 -15 7 -15 15 0 12 -15 15 -75 15 -42 0
-75 -4 -75 -10z m129 -23 c-16 -16 -66 -19 -72 -4 -3 9 5 12 29 9 22 -3 34 0
34 7 0 7 4 9 10 6 6 -4 6 -10 -1 -18z m33 -25 c-15 -5 -16 -92 -1 -92 5 0 7
-4 4 -10 -12 -20 -31 14 -31 54 1 43 14 68 31 58 5 -3 4 -7 -3 -10z m-42 -47
l0 -45 -45 0 -45 0 0 45 0 45 45 0 45 0 0 -45z m20 -535 c22 0 40 -5 40 -11 0
-6 -9 -8 -22 -3 -21 6 -21 6 -5 -10 9 -10 17 -18 17 -19 0 -1 -35 -2 -77 -1
-49 0 -78 5 -81 12 -2 7 5 12 15 13 13 1 11 3 -7 9 l-25 8 28 1 28 1 -3 150
c-2 83 0 150 5 150 4 0 8 -55 8 -122 1 -94 3 -112 9 -78 7 37 10 114 10 220 0
8 3 40 7 70 6 38 9 -12 11 -167 l2 -223 40 0z m-80 334 c0 -8 -5 -12 -10 -9
-6 4 -8 11 -5 16 9 14 15 11 15 -7z m160 2 c8 -2 -11 -4 -42 -5 -32 0 -58 2
-58 7 0 7 64 6 100 -2z m-207 -3 c-13 -2 -35 -2 -50 0 -16 2 -5 4 22 4 28 0
40 -2 28 -4z m327 -113 c0 -5 -5 -10 -11 -10 -5 0 -7 5 -4 10 3 6 8 10 11 10
2 0 4 -4 4 -10z m-500 -117 c-11 -17 -11 -17 -6 0 3 10 6 24 7 30 0 9 2 9 5 0
3 -7 0 -20 -6 -30z m45 -13 c3 -5 1 -10 -4 -10 -6 0 -11 5 -11 10 0 6 2 10 4
10 3 0 8 -4 11 -10z m30 -30 c3 -5 1 -10 -4 -10 -6 0 -11 5 -11 10 0 6 2 10 4
10 3 0 8 -4 11 -10z m340 -40 c-3 -5 -10 -10 -16 -10 -5 0 -9 5 -9 10 0 6 7
10 16 10 8 0 12 -4 9 -10z m45 -4 c0 -3 -4 -8 -10 -11 -5 -3 -10 -1 -10 4 0 6
5 11 10 11 6 0 10 -2 10 -4z m-310 -26 c0 -5 -9 -10 -20 -10 -11 0 -20 5 -20
10 0 6 9 10 20 10 11 0 20 -4 20 -10z m240 0 c0 -5 -4 -10 -9 -10 -6 0 -13 5
-16 10 -3 6 1 10 9 10 9 0 16 -4 16 -10z m40 -4 c0 -3 -4 -8 -10 -11 -5 -3
-10 -1 -10 4 0 6 5 11 10 11 6 0 10 -2 10 -4z m-273 -32 c-3 -3 -12 -4 -19 -1
-8 3 -5 6 6 6 11 1 17 -2 13 -5z"/>
<path d="M370 765 c0 -48 4 -75 11 -75 6 0 9 7 5 15 -3 8 -2 15 2 15 4 0 8 20
8 45 0 25 -4 45 -8 45 -4 0 -5 7 -2 15 4 8 1 15 -5 15 -7 0 -11 -27 -11 -75z"/>
<path d="M613 765 c0 -27 2 -38 4 -22 2 15 2 37 0 50 -2 12 -4 0 -4 -28z"/>
<path d="M341 764 c0 -11 3 -14 6 -6 3 7 2 16 -1 19 -3 4 -6 -2 -5 -13z"/>
<path d="M410 670 c0 -5 5 -10 11 -10 5 0 7 5 4 10 -3 6 -8 10 -11 10 -2 0 -4
-4 -4 -10z"/>
<path d="M552 630 c0 -14 2 -19 5 -12 2 6 2 18 0 25 -3 6 -5 1 -5 -13z"/>
<path d="M340 622 c0 -4 18 -7 40 -7 22 0 40 3 40 7 0 5 -18 8 -40 8 -22 0
-40 -3 -40 -8z"/>
<path d="M580 622 c0 -4 9 -8 20 -9 11 -1 20 2 20 8 0 5 -9 9 -20 9 -11 0 -20
-4 -20 -8z"/>
<path d="M645 620 c3 -5 8 -10 11 -10 2 0 4 5 4 10 0 6 -5 10 -11 10 -5 0 -7
-4 -4 -10z"/>
<path d="M282 560 c0 -19 2 -27 5 -17 2 9 2 25 0 35 -3 9 -5 1 -5 -18z"/>
<path d="M674 560 c-1 -17 3 -30 7 -30 5 0 9 14 9 30 0 39 -15 39 -16 0z"/>
<path d="M338 503 c18 -2 45 -2 60 0 15 2 0 4 -33 4 -33 0 -45 -2 -27 -4z"/>
<path d="M598 503 c12 -2 32 -2 45 0 12 2 2 4 -23 4 -25 0 -35 -2 -22 -4z"/>
<path d="M203 493 c9 -2 25 -2 35 0 9 3 1 5 -18 5 -19 0 -27 -2 -17 -5z"/>
<path d="M758 493 c7 -3 16 -2 19 1 4 3 -2 6 -13 5 -11 0 -14 -3 -6 -6z"/>
<path d="M414 385 c0 -55 1 -76 3 -47 2 29 2 74 0 100 -2 26 -3 2 -3 -53z"/>
<path d="M162 440 c0 -19 2 -27 5 -17 2 9 2 25 0 35 -3 9 -5 1 -5 -18z"/>
<path d="M798 423 c5 -83 9 -90 11 -20 0 37 -2 67 -7 67 -4 0 -6 -21 -4 -47z"/>
<path d="M301 364 c0 -11 3 -14 6 -6 3 7 2 16 -1 19 -3 4 -6 -2 -5 -13z"/>
<path d="M660 329 c0 -5 5 -7 10 -4 6 3 10 8 10 11 0 2 -4 4 -10 4 -5 0 -10
-5 -10 -11z"/>
<path d="M620 300 c0 -5 4 -10 9 -10 6 0 13 5 16 10 3 6 -1 10 -9 10 -9 0 -16
-4 -16 -10z"/>
<path d="M220 260 c0 -5 5 -10 11 -10 5 0 7 5 4 10 -3 6 -8 10 -11 10 -2 0 -4
-4 -4 -10z"/>
<path d="M250 230 c0 -5 5 -10 11 -10 5 0 7 5 4 10 -3 6 -8 10 -11 10 -2 0 -4
-4 -4 -10z"/>
<path d="M280 200 c0 -5 5 -10 11 -10 5 0 7 5 4 10 -3 6 -8 10 -11 10 -2 0 -4
-4 -4 -10z"/>
<path d="M390 139 c-14 -4 24 -7 89 -8 63 -1 111 2 107 6 -9 10 -165 11 -196
2z"/>
<path d="M4 114 c3 -9 6 -22 6 -30 0 -8 7 -14 15 -14 8 0 15 -7 15 -15 0 -8 7
-15 15 -15 8 0 15 -7 15 -15 0 -8 6 -15 14 -15 8 0 21 -3 30 -6 11 -4 16 -1
16 10 0 9 -8 16 -20 16 -11 0 -20 7 -20 15 0 8 -7 15 -15 15 -8 0 -15 7 -15
15 0 8 -7 15 -15 15 -8 0 -15 9 -15 20 0 12 -7 20 -16 20 -11 0 -14 -5 -10
-16z"/>
<path d="M970 110 c0 -11 -7 -20 -15 -20 -8 0 -15 -7 -15 -15 0 -8 -7 -15 -15
-15 -8 0 -15 -7 -15 -15 0 -8 -9 -15 -20 -15 -12 0 -20 -7 -20 -16 0 -11 5
-14 16 -10 9 3 22 6 30 6 8 0 14 7 14 15 0 8 7 15 15 15 8 0 15 7 15 15 0 8 7
15 15 15 8 0 15 6 15 14 0 8 3 21 6 30 4 11 1 16 -10 16 -9 0 -16 -8 -16 -20z"/>
</g>
</svg>
