<?xml version="1.0" standalone="no"?>
<!DOCTYPE svg PUBLIC "-//W3C//DTD SVG 20010904//EN"
 "http://www.w3.org/TR/2001/REC-SVG-20010904/DTD/svg10.dtd">
<svg version="1.0" xmlns="http://www.w3.org/2000/svg"
 width="192.000000pt" height="192.000000pt" viewBox="0 0 192.000000 192.000000"
 preserveAspectRatio="xMidYMid meet">
<metadata>
Created by potrace 1.16, written by Peter Selinger 2001-2019
</metadata>
<g transform="translate(0.000000,192.000000) scale(0.100000,-0.100000)"
fill="#000000" stroke="none">
<path d="M92 1428 c-19 -19 -14 -54 29 -197 22 -75 50 -167 61 -206 23 -81 51
-172 102 -336 20 -64 36 -123 36 -131 0 -8 10 -24 23 -36 23 -21 31 -22 265
-22 l241 0 11 -40 c19 -70 17 -70 366 -70 283 0 314 2 332 18 12 10 41 78 70
162 78 228 166 477 202 575 20 54 34 110 34 140 l1 50 -281 3 c-322 3 -296 10
-334 -96 -16 -44 -26 -60 -34 -52 -6 6 -98 10 -256 10 l-247 0 -29 102 c-16
57 -37 111 -46 120 -16 16 -43 18 -276 18 -187 0 -261 -3 -270 -12z m518 -18
c17 -9 32 -50 76 -202 4 -12 0 -18 -10 -18 -9 0 -13 -6 -10 -13 4 -12 -130
-415 -196 -590 -18 -46 -11 -66 9 -28 6 10 51 134 101 276 49 142 91 260 93
262 2 2 41 -121 86 -272 45 -152 84 -282 87 -290 5 -13 -25 -15 -227 -15 -225
0 -233 1 -256 22 -13 12 -23 28 -23 36 0 8 -16 67 -36 131 -51 164 -79 255
-102 336 -11 39 -39 132 -62 208 -33 110 -39 141 -30 153 10 11 55 14 247 14
138 0 242 -4 253 -10z m1234 -125 c-1 -16 -16 -70 -34 -120 -38 -103 -129
-363 -202 -575 -29 -84 -58 -152 -70 -163 -18 -15 -49 -17 -315 -17 l-294 0
-24 25 c-14 13 -26 32 -26 42 -1 10 -3 32 -5 48 -2 17 -46 169 -97 340 l-93
310 249 3 c175 2 254 -1 263 -9 8 -6 19 -29 24 -50 10 -36 3 -59 -96 -341 -58
-167 -112 -313 -120 -325 -13 -21 -13 -23 5 -23 14 0 23 12 34 43 8 23 36 101
62 172 25 72 57 162 70 200 13 39 35 103 50 143 23 61 25 78 16 101 -10 23 -7
40 20 112 49 130 20 120 323 117 l261 -3 -1 -30z"/>
</g>
</svg>
