<?xml version="1.0" standalone="no"?>
<!DOCTYPE svg PUBLIC "-//W3C//DTD SVG 20010904//EN"
 "http://www.w3.org/TR/2001/REC-SVG-20010904/DTD/svg10.dtd">
<svg version="1.0" xmlns="http://www.w3.org/2000/svg"
 width="100.000000pt" height="100.000000pt" viewBox="0 0 100.000000 100.000000"
 preserveAspectRatio="xMidYMid meet">
<metadata>
Created by potrace 1.16, written by Peter Selinger 2001-2019
</metadata>
<g transform="translate(0.000000,100.000000) scale(0.100000,-0.100000)"
fill="#000000" stroke="none">
<path d="M263 993 c-20 -3 -33 -10 -33 -19 0 -9 -11 -14 -30 -14 -20 0 -30 -5
-30 -15 0 -8 -7 -15 -15 -15 -8 0 -15 -9 -15 -20 0 -11 -7 -20 -15 -20 -8 0
-15 -7 -15 -15 0 -8 -9 -15 -20 -15 -11 0 -20 -7 -20 -15 0 -8 -7 -15 -15 -15
-10 0 -15 -10 -15 -30 0 -20 -5 -30 -15 -30 -9 0 -15 -9 -15 -24 0 -13 -3 -31
-6 -40 -4 -11 -1 -16 10 -16 11 0 16 9 16 30 0 20 5 30 15 30 10 0 15 10 15
30 0 20 5 30 15 30 8 0 15 7 15 15 0 8 9 15 20 15 11 0 20 7 20 15 0 8 7 15
15 15 8 0 15 9 15 20 0 11 7 20 15 20 8 0 15 7 15 15 0 10 10 15 30 15 20 0
30 5 30 15 0 10 10 15 30 15 20 0 30 5 30 15 0 8 -3 14 -7 13 -5 0 -23 -3 -40
-5z"/>
<path d="M331 984 c0 -11 3 -14 6 -6 3 7 2 16 -1 19 -3 4 -6 -2 -5 -13z"/>
<path d="M661 984 c0 -11 3 -14 6 -6 3 7 2 16 -1 19 -3 4 -6 -2 -5 -13z"/>
<path d="M690 986 c0 -11 9 -16 30 -16 20 0 30 -5 30 -15 0 -10 10 -15 30 -15
20 0 30 -5 30 -15 0 -8 7 -15 15 -15 8 0 15 -9 15 -20 0 -11 7 -20 15 -20 8 0
15 -7 15 -15 0 -8 9 -15 20 -15 11 0 20 -7 20 -15 0 -8 7 -15 15 -15 10 0 15
-10 15 -30 0 -20 5 -30 15 -30 10 0 15 -10 15 -30 0 -21 5 -30 16 -30 11 0 14
5 10 16 -3 9 -6 27 -6 40 0 15 -6 24 -15 24 -10 0 -15 10 -15 30 0 20 -5 30
-15 30 -8 0 -15 7 -15 15 0 8 -9 15 -20 15 -11 0 -20 7 -20 15 0 8 -7 15 -15
15 -8 0 -15 9 -15 20 0 11 -7 20 -15 20 -8 0 -15 7 -15 15 0 10 -10 15 -30 15
-20 0 -30 5 -30 15 0 9 -9 15 -24 15 -13 0 -31 3 -40 6 -11 4 -16 1 -16 -10z"/>
<path d="M698 803 c7 -3 16 -2 19 1 4 3 -2 6 -13 5 -11 0 -14 -3 -6 -6z"/>
<path d="M193 774 c3 -3 32 -8 64 -11 85 -7 78 -13 -15 -13 -66 0 -82 -3 -82
-15 0 -8 -7 -15 -15 -15 -8 0 -15 -7 -15 -15 0 -8 -9 -15 -20 -15 -16 0 -20
-7 -20 -30 0 -16 -4 -30 -10 -30 -5 0 -7 7 -4 15 4 8 1 15 -5 15 -7 0 -11 -36
-11 -110 0 -64 4 -110 10 -110 5 0 7 7 4 15 -4 8 -1 15 5 15 6 0 11 -13 11
-30 0 -23 4 -30 20 -30 11 0 20 -7 20 -15 0 -10 10 -15 30 -15 21 0 30 -5 30
-16 0 -14 -3 -14 -15 -4 -12 10 -15 10 -15 -4 0 -14 18 -16 140 -16 133 0 140
1 140 20 0 11 7 20 15 20 13 0 15 26 15 170 0 118 -3 170 -11 170 -6 0 -9 -7
-5 -15 3 -8 1 -15 -4 -15 -6 0 -10 14 -10 30 0 29 -1 30 -52 31 -45 0 -49 2
-29 10 14 5 31 7 38 5 7 -3 13 -1 13 4 0 6 -46 10 -112 10 -61 0 -109 -3 -105
-6z m-3 -44 c0 -5 -5 -10 -11 -10 -5 0 -7 5 -4 10 3 6 8 10 11 10 2 0 4 -4 4
-10z m235 0 c3 -5 1 -10 -4 -10 -6 0 -11 5 -11 10 0 6 2 10 4 10 3 0 8 -4 11
-10z m-35 -15 c0 -8 6 -15 14 -15 8 0 17 -11 20 -25 4 -14 11 -25 16 -25 6 0
10 -50 10 -125 l0 -125 -26 0 c-17 0 -28 -6 -31 -20 -5 -18 -14 -20 -94 -20
-82 0 -89 2 -89 20 0 11 -4 20 -10 20 -13 0 -50 37 -50 50 0 6 -9 10 -20 10
-15 0 -20 7 -20 25 0 14 -7 28 -15 31 -19 8 -19 50 0 58 9 3 15 18 15 36 0 20
5 30 15 30 9 0 19 8 22 18 10 25 29 42 47 42 9 0 16 7 16 15 0 12 17 15 90 15
73 0 90 -3 90 -15z m-303 -117 c-3 -8 -6 -5 -6 6 -1 11 2 17 5 13 3 -3 4 -12
1 -19z m43 -168 c0 -5 -2 -10 -4 -10 -3 0 -8 5 -11 10 -3 6 -1 10 4 10 6 0 11
-4 11 -10z"/>
<path d="M590 769 c0 -5 4 -8 8 -5 5 3 22 1 38 -4 25 -7 23 -8 -23 -9 -40 -1
-53 -5 -53 -16 0 -8 -7 -15 -15 -15 -13 0 -15 -26 -15 -170 0 -144 2 -170 15
-170 8 0 15 -9 15 -20 0 -19 7 -20 140 -20 122 0 140 2 140 16 0 14 -3 14 -15
4 -12 -10 -15 -10 -15 4 0 11 9 16 30 16 20 0 30 5 30 15 0 8 9 15 20 15 16 0
20 7 20 30 0 17 5 30 11 30 6 0 9 -7 5 -15 -3 -8 -1 -15 4 -15 6 0 10 46 10
110 0 74 -4 110 -11 110 -6 0 -9 -7 -5 -15 3 -8 1 -15 -4 -15 -6 0 -10 14 -10
30 0 23 -4 30 -20 30 -11 0 -20 7 -20 15 0 8 -7 15 -15 15 -8 0 -15 7 -15 15
0 12 -14 15 -62 16 -59 1 -61 2 -23 9 22 4 43 6 48 3 4 -2 7 1 7 6 0 7 -39 11
-110 11 -71 0 -110 -4 -110 -11z m114 -24 c3 -10 19 -15 46 -15 29 0 40 -4 40
-15 0 -10 10 -15 30 -15 26 0 30 -4 30 -26 0 -17 6 -28 20 -31 14 -4 20 -14
20 -34 0 -17 6 -32 15 -35 8 -4 15 -17 15 -30 0 -15 -6 -24 -15 -24 -10 0 -15
-10 -15 -30 0 -23 -4 -30 -20 -30 -11 0 -20 -7 -20 -15 0 -8 -7 -15 -15 -15
-8 0 -15 -7 -15 -15 0 -8 -7 -15 -15 -15 -8 0 -23 -9 -32 -20 -15 -17 -30 -20
-90 -20 -59 0 -73 3 -73 15 0 9 -8 19 -17 22 -39 15 -43 29 -43 152 0 101 2
121 15 121 8 0 15 7 15 15 0 8 7 15 15 15 8 0 15 7 15 15 0 10 11 15 35 15 24
0 35 5 35 15 0 8 4 15 9 15 5 0 11 -7 15 -15z m-114 -15 c0 -5 -5 -10 -11 -10
-5 0 -7 5 -4 10 3 6 8 10 11 10 2 0 4 -4 4 -10z m-30 -30 c0 -5 -5 -10 -11
-10 -5 0 -7 5 -4 10 3 6 8 10 11 10 2 0 4 -4 4 -10z m357 -102 c-3 -8 -6 -5
-6 6 -1 11 2 17 5 13 3 -3 4 -12 1 -19z m-27 -168 c0 -5 -4 -10 -10 -10 -5 0
-10 5 -10 10 0 6 5 10 10 10 6 0 10 -4 10 -10z"/>
<path d="M90 709 c0 -5 5 -7 10 -4 6 3 10 8 10 11 0 2 -4 4 -10 4 -5 0 -10 -5
-10 -11z"/>
<path d="M895 710 c3 -5 8 -10 11 -10 2 0 4 5 4 10 0 6 -5 10 -11 10 -5 0 -7
-4 -4 -10z"/>
<path d="M8 663 c7 -3 16 -2 19 1 4 3 -2 6 -13 5 -11 0 -14 -3 -6 -6z"/>
<path d="M978 663 c7 -3 16 -2 19 1 4 3 -2 6 -13 5 -11 0 -14 -3 -6 -6z"/>
<path d="M490 650 c0 -5 5 -10 10 -10 6 0 10 5 10 10 0 6 -4 10 -10 10 -5 0
-10 -4 -10 -10z"/>
<path d="M488 618 c9 -9 15 -9 24 0 9 9 7 12 -12 12 -19 0 -21 -3 -12 -12z"/>
<path d="M32 560 c0 -19 2 -27 5 -17 2 9 2 25 0 35 -3 9 -5 1 -5 -18z"/>
<path d="M494 570 c0 -11 3 -20 7 -20 4 0 9 9 12 20 3 12 0 20 -7 20 -6 0 -12
-9 -12 -20z"/>
<path d="M962 560 c0 -19 2 -27 5 -17 2 9 2 25 0 35 -3 9 -5 1 -5 -18z"/>
<path d="M490 510 c0 -5 5 -10 10 -10 6 0 10 5 10 10 0 6 -4 10 -10 10 -5 0
-10 -4 -10 -10z"/>
<path d="M490 480 c0 -5 7 -10 16 -10 8 0 12 5 9 10 -3 6 -10 10 -16 10 -5 0
-9 -4 -9 -10z"/>
<path d="M485 450 c-3 -5 1 -10 10 -10 9 0 13 5 10 10 -3 6 -8 10 -10 10 -2 0
-7 -4 -10 -10z"/>
<path d="M485 420 c-3 -5 1 -10 10 -10 9 0 13 5 10 10 -3 6 -8 10 -10 10 -2 0
-7 -4 -10 -10z"/>
<path d="M458 358 c-4 -10 -3 -18 2 -18 6 0 10 -20 10 -45 0 -43 1 -45 30 -45
27 0 30 3 30 30 0 24 -4 30 -21 30 -11 0 -18 4 -14 10 3 5 12 7 19 4 13 -5 31
24 21 34 -3 3 -5 0 -5 -6 0 -20 -58 -14 -62 6 -3 16 -4 16 -10 0z m57 -68 c3
-5 -1 -10 -9 -10 -9 0 -16 5 -16 10 0 6 4 10 9 10 6 0 13 -4 16 -10z"/>
<path d="M8 333 c7 -3 16 -2 19 1 4 3 -2 6 -13 5 -11 0 -14 -3 -6 -6z"/>
<path d="M978 333 c7 -3 16 -2 19 1 4 3 -2 6 -13 5 -11 0 -14 -3 -6 -6z"/>
<path d="M552 310 c0 -14 2 -19 5 -12 2 6 2 18 0 25 -3 6 -5 1 -5 -13z"/>
<path d="M208 313 c-10 -3 -18 -11 -18 -19 0 -9 -11 -14 -30 -14 -20 0 -30 -5
-30 -15 0 -10 10 -15 30 -15 20 0 30 -5 30 -15 0 -13 41 -15 310 -15 269 0
310 2 310 15 0 10 10 15 30 15 20 0 30 5 30 15 0 10 -10 15 -30 15 -20 0 -30
5 -30 15 0 9 -9 15 -24 15 -13 0 -31 3 -40 6 -11 4 -16 1 -16 -10 0 -10 -9
-16 -25 -16 -16 0 -25 6 -25 15 0 10 -10 15 -30 15 -16 0 -30 -4 -30 -9 0 -5
9 -7 20 -4 14 4 20 0 20 -11 0 -13 -11 -16 -50 -16 -38 0 -50 -4 -50 -15 0
-11 12 -15 50 -15 38 0 50 4 50 15 0 12 14 15 70 15 58 0 68 -3 64 -15 -7 -18
6 -15 -99 -23 -103 -7 -247 -7 -387 -1 -82 3 -97 7 -101 22 -4 15 2 17 49 17
45 0 54 -3 54 -17 0 -15 2 -16 10 -3 8 12 12 12 18 2 11 -16 104 -13 109 4 2
7 -31 13 -98 17 -67 4 -105 11 -113 20 -6 7 -19 12 -28 10z"/>
<path d="M278 313 c17 -2 47 -2 65 0 17 2 3 4 -33 4 -36 0 -50 -2 -32 -4z"/>
<path d="M388 313 c7 -3 16 -2 19 1 4 3 -2 6 -13 5 -11 0 -14 -3 -6 -6z"/>
<path d="M590 309 c0 -5 5 -7 10 -4 6 3 10 8 10 11 0 2 -4 4 -10 4 -5 0 -10
-5 -10 -11z"/>
<path d="M4 294 c3 -9 6 -27 6 -40 0 -15 6 -24 15 -24 10 0 15 -10 15 -30 0
-20 5 -30 15 -30 8 0 15 -7 15 -15 0 -8 9 -15 20 -15 11 0 20 -7 20 -15 0 -8
7 -15 15 -15 8 0 15 -9 15 -20 0 -11 7 -20 15 -20 8 0 15 -7 15 -15 0 -10 10
-15 30 -15 20 0 30 -5 30 -15 0 -9 9 -15 24 -15 13 0 31 -3 40 -6 11 -4 16 -1
16 10 0 11 -9 16 -30 16 -20 0 -30 5 -30 15 0 10 -10 15 -30 15 -20 0 -30 5
-30 15 0 8 -7 15 -15 15 -8 0 -15 9 -15 20 0 11 -7 20 -15 20 -8 0 -15 7 -15
15 0 8 -9 15 -20 15 -11 0 -20 7 -20 15 0 8 -7 15 -15 15 -10 0 -15 10 -15 30
0 20 -5 30 -15 30 -10 0 -15 10 -15 30 0 21 -5 30 -16 30 -11 0 -14 -5 -10
-16z"/>
<path d="M970 280 c0 -20 -5 -30 -15 -30 -10 0 -15 -10 -15 -30 0 -20 -5 -30
-15 -30 -8 0 -15 -7 -15 -15 0 -8 -9 -15 -20 -15 -11 0 -20 -7 -20 -15 0 -8
-7 -15 -15 -15 -8 0 -15 -9 -15 -20 0 -11 -7 -20 -15 -20 -8 0 -15 -7 -15 -15
0 -10 -10 -15 -30 -15 -20 0 -30 -5 -30 -15 0 -10 -10 -15 -30 -15 -21 0 -30
-5 -30 -16 0 -11 5 -14 16 -10 9 3 27 6 40 6 15 0 24 6 24 15 0 10 10 15 30
15 20 0 30 5 30 15 0 8 7 15 15 15 8 0 15 9 15 20 0 11 7 20 15 20 8 0 15 7
15 15 0 8 9 15 20 15 11 0 20 7 20 15 0 8 7 15 15 15 10 0 15 10 15 30 0 20 5
30 15 30 9 0 15 9 15 24 0 13 3 31 6 40 4 11 1 16 -10 16 -11 0 -16 -9 -16
-30z"/>
<path d="M198 193 c7 -3 16 -2 19 1 4 3 -2 6 -13 5 -11 0 -14 -3 -6 -6z"/>
<path d="M331 14 c0 -11 3 -14 6 -6 3 7 2 16 -1 19 -3 4 -6 -2 -5 -13z"/>
<path d="M661 14 c0 -11 3 -14 6 -6 3 7 2 16 -1 19 -3 4 -6 -2 -5 -13z"/>
</g>
</svg>
