<?xml version="1.0" standalone="no"?>
<!DOCTYPE svg PUBLIC "-//W3C//DTD SVG 20010904//EN"
 "http://www.w3.org/TR/2001/REC-SVG-20010904/DTD/svg10.dtd">
<svg version="1.0" xmlns="http://www.w3.org/2000/svg"
 width="96.000000pt" height="88.000000pt" viewBox="0 0 96.000000 88.000000"
 preserveAspectRatio="xMidYMid meet">
<metadata>
Created by potrace 1.16, written by Peter Selinger 2001-2019
</metadata>
<g transform="translate(0.000000,88.000000) scale(0.100000,-0.100000)"
fill="#000000" stroke="none">
<path d="M5 858 c-3 -13 -4 -210 -3 -438 3 -384 4 -415 20 -418 16 -3 16 -1 3
32 -12 29 -15 102 -15 408 0 354 1 375 20 406 20 32 20 32 0 32 -12 0 -22 -9
-25 -22z"/>
<path d="M923 868 c9 -7 21 -24 26 -38 9 -23 10 -22 10 13 1 34 -1 37 -26 37
-24 0 -25 -2 -10 -12z"/>
<path d="M373 795 c-170 -46 -273 -200 -260 -388 10 -141 81 -247 206 -306 50
-23 68 -26 166 -26 130 1 176 17 253 89 72 67 105 141 110 247 5 100 -11 169
-57 241 -79 124 -259 186 -418 143z m209 -25 c58 -17 150 -84 185 -137 121
-182 54 -419 -146 -511 -47 -22 -70 -27 -141 -26 -72 0 -94 4 -142 27 -146 71
-222 214 -196 372 18 115 104 223 211 264 58 22 168 27 229 11z"/>
<path d="M692 646 c-6 -14 -24 -34 -40 -46 l-30 -22 24 -35 c44 -66 44 -146 0
-214 l-26 -38 26 -30 c14 -17 33 -31 42 -31 11 -1 0 -17 -33 -47 -42 -39 -45
-43 -16 -27 53 30 124 115 145 173 27 77 19 189 -19 259 -15 28 -36 58 -45 67
-15 14 -18 13 -28 -9z m57 -92 c44 -85 31 -208 -31 -287 -13 -18 -15 -18 -37
0 l-23 19 21 42 c24 48 28 158 7 207 -11 26 -10 33 3 52 22 30 31 25 60 -33z"/>
<path d="M217 621 c-42 -63 -60 -133 -54 -207 5 -67 41 -157 76 -188 18 -16
19 -15 40 20 12 20 30 38 41 41 25 7 25 5 -4 48 -65 95 -30 222 75 276 22 11
39 22 39 24 0 7 -70 -22 -86 -35 -8 -7 -13 -6 -17 5 -6 14 -64 55 -78 55 -4 0
-18 -18 -32 -39z m67 -16 c18 -14 18 -15 -3 -64 -25 -59 -28 -145 -6 -198 14
-33 14 -38 -1 -55 -10 -10 -21 -18 -26 -18 -5 0 -21 26 -35 57 -41 89 -33 185
23 271 17 26 22 26 48 7z"/>
<path d="M402 593 c-52 -25 -85 -76 -90 -139 -6 -67 9 -103 58 -148 93 -84
245 -38 279 86 22 77 -18 166 -90 203 -37 20 -116 19 -157 -2z m138 -23 c80
-41 112 -135 68 -200 -68 -99 -174 -106 -243 -15 -57 74 -33 168 55 213 54 27
70 27 120 2z"/>
<path d="M950 48 c0 -6 -7 -20 -17 -30 -15 -17 -15 -18 5 -18 18 0 22 6 22 30
0 17 -2 30 -5 30 -3 0 -5 -5 -5 -12z"/>
</g>
</svg>
