<?xml version="1.0" standalone="no"?>
<!DOCTYPE svg PUBLIC "-//W3C//DTD SVG 20010904//EN"
 "http://www.w3.org/TR/2001/REC-SVG-20010904/DTD/svg10.dtd">
<svg version="1.0" xmlns="http://www.w3.org/2000/svg"
 width="180.000000pt" height="180.000000pt" viewBox="0 0 180.000000 180.000000"
 preserveAspectRatio="xMidYMid meet">
<metadata>
Created by potrace 1.16, written by Peter Selinger 2001-2019
</metadata>
<g transform="translate(0.000000,180.000000) scale(0.100000,-0.100000)"
fill="#000000" stroke="none">
<path d="M1425 1751 c-18 -16 -99 -57 -179 -90 -234 -97 -481 -150 -805 -172
l-181 -12 0 -171 0 -171 245 3 245 3 0 -556 0 -555 158 0 157 0 -3 555 -2 556
240 -3 240 -3 0 149 0 148 -415 -3 c-228 -2 -415 -2 -415 1 0 3 43 11 96 19
207 27 551 147 682 237 2 1 -5 18 -14 38 -18 36 -32 44 -49 27z m18 -52 c-22
-22 -225 -114 -320 -145 -109 -35 -364 -94 -410 -94 -21 0 -24 -4 -21 -27 l3
-28 413 -3 412 -2 0 -120 0 -120 -240 0 -240 0 0 -550 0 -550 -130 0 -130 0 0
534 c0 294 -3 541 -6 550 -5 14 -36 16 -245 16 l-239 0 0 149 0 148 153 7
c338 15 723 108 940 227 46 25 82 30 60 8z"/>
<path d="M1380 99 c0 -5 7 -9 15 -9 11 0 13 -8 9 -30 -4 -19 -2 -30 5 -30 6 0
11 14 11 30 0 21 5 30 16 30 8 0 13 4 10 8 -7 12 -66 13 -66 1z"/>
<path d="M1458 70 c-2 -22 0 -40 4 -40 5 0 8 12 8 28 1 26 1 26 15 8 15 -20
15 -20 31 0 15 18 15 18 11 -8 -2 -16 0 -28 4 -28 5 0 9 18 9 40 0 42 -12 52
-29 23 -10 -17 -12 -17 -25 0 -19 25 -23 22 -28 -23z"/>
</g>
</svg>
