<?xml version="1.0" standalone="no"?>
<!DOCTYPE svg PUBLIC "-//W3C//DTD SVG 20010904//EN"
 "http://www.w3.org/TR/2001/REC-SVG-20010904/DTD/svg10.dtd">
<svg version="1.0" xmlns="http://www.w3.org/2000/svg"
 width="192.000000pt" height="192.000000pt" viewBox="0 0 192.000000 192.000000"
 preserveAspectRatio="xMidYMid meet">
<metadata>
Created by potrace 1.16, written by Peter Selinger 2001-2019
</metadata>
<g transform="translate(0.000000,192.000000) scale(0.100000,-0.100000)"
fill="#000000" stroke="none">
<path d="M1366 1823 c-3 -7 4 -18 16 -24 16 -9 19 -8 13 2 -6 9 -3 10 10 5 15
-5 16 -4 6 8 -10 11 -8 15 6 19 10 2 3 4 -14 3 -18 0 -35 -7 -37 -13z"/>
<path d="M1437 1821 c-10 -12 -9 -13 2 -6 9 5 19 2 29 -11 13 -18 14 -18 7 4
-4 13 -2 22 4 22 6 0 11 -5 11 -11 0 -5 5 -7 10 -4 6 3 10 -2 10 -11 0 -10 3
-15 6 -11 3 3 3 14 0 24 -8 24 -61 26 -79 4z"/>
<path d="M1392 1765 c-173 -108 -499 -191 -850 -217 l-162 -12 0 -155 0 -156
220 3 221 3 -3 -500 -3 -501 145 0 145 0 -3 500 -3 501 216 -3 215 -3 0 135 0
135 -357 -3 c-354 -2 -409 -6 -368 -22 13 -6 15 -9 5 -9 -13 -1 -13 -2 0 -11
22 -14 30 -12 23 7 -6 15 2 16 78 10 46 -4 200 -7 342 -7 l257 0 0 -102 0
-103 -194 2 c-172 2 -197 0 -216 -15 -21 -17 -21 -22 -27 -500 l-6 -482 -93 0
c-80 0 -93 2 -97 18 -4 16 -5 16 -6 0 0 -10 -7 -18 -13 -18 -10 0 -13 102 -13
475 0 470 0 475 20 470 11 -3 14 -2 7 1 -10 5 -10 9 0 22 12 15 11 16 -5 3
-27 -21 -33 -4 -7 19 13 11 19 20 13 20 -5 0 -13 -3 -16 -6 -9 -9 -447 -11
-447 -2 0 4 17 9 38 11 l37 4 -37 1 -38 2 0 119 0 118 122 6 c68 3 132 8 143
12 17 6 18 5 5 -5 -12 -10 -10 -10 10 -4 14 4 42 7 62 7 21 -1 35 3 32 8 -5 9
17 12 101 11 48 0 48 0 15 8 l-35 8 45 0 c75 0 77 1 60 12 -11 8 -8 9 13 4 15
-3 33 -2 40 4 6 5 28 13 47 17 19 4 40 11 45 15 6 4 24 1 40 -7 l30 -14 -37 6
c-31 5 -38 3 -38 -11 0 -11 -5 -14 -17 -10 -9 4 -30 2 -47 -3 -17 -5 -44 -12
-59 -15 -15 -4 -26 -10 -23 -14 2 -4 -21 -8 -52 -10 -30 -2 -63 -7 -72 -12
-11 -6 -21 -5 -28 2 -9 9 -12 9 -12 1 0 -6 -13 -16 -30 -22 -16 -5 -30 -15
-30 -20 0 -15 30 -14 35 2 3 7 28 13 68 13 127 3 375 77 549 165 54 27 98 51
98 54 0 5 -41 75 -43 74 -1 -1 -26 -16 -55 -34z m58 -20 c-5 -7 -6 -15 -2 -20
4 -4 -4 -2 -18 5 -35 18 -39 24 -11 15 14 -4 21 -3 18 2 -4 5 0 10 8 10 10 0
12 -4 5 -12z m-35 -25 c13 -5 14 -9 5 -9 -8 0 -24 4 -35 9 -13 5 -14 9 -5 9 8
0 24 -4 35 -9z m-25 -21 c12 -8 10 -9 -9 -4 -16 5 -21 4 -17 -4 4 -6 2 -11 -3
-11 -12 0 -14 13 -4 23 9 9 15 9 33 -4z m-53 -13 c0 -21 -89 -60 -117 -51 -15
5 -20 3 -16 -3 11 -18 -8 -21 -39 -6 -28 12 -28 13 -3 8 18 -4 29 -1 36 11 7
14 13 15 30 6 30 -16 39 -14 16 4 -18 14 -17 14 11 5 28 -9 29 -9 10 5 -19 15
-17 15 18 10 31 -5 36 -4 31 9 -4 10 -1 16 8 16 8 0 15 -6 15 -14z"/>
<path d="M1238 1743 c6 -2 18 -2 25 0 6 3 1 5 -13 5 -14 0 -19 -2 -12 -5z"/>
<path d="M1500 1731 c0 -6 4 -13 10 -16 6 -3 7 1 4 9 -7 18 -14 21 -14 7z"/>
<path d="M1485 1701 c-3 -5 -2 -12 3 -15 5 -3 9 1 9 9 0 17 -3 19 -12 6z"/>
<path d="M960 1669 c0 -5 5 -7 10 -4 6 3 10 8 10 11 0 2 -4 4 -10 4 -5 0 -10
-5 -10 -11z"/>
<path d="M995 1664 c-42 -22 -42 -24 -4 -23 26 0 30 2 14 8 -18 7 -17 8 6 14
13 3 36 4 49 1 22 -4 23 -3 5 5 -28 13 -36 13 -70 -5z"/>
<path d="M918 1663 c7 -3 16 -2 19 1 4 3 -2 6 -13 5 -11 0 -14 -3 -6 -6z"/>
<path d="M880 1635 c0 -8 4 -15 10 -15 5 0 7 7 4 15 -4 8 -8 15 -10 15 -2 0
-4 -7 -4 -15z"/>
<path d="M928 1633 c7 -3 16 -2 19 1 4 3 -2 6 -13 5 -11 0 -14 -3 -6 -6z"/>
<path d="M1410 1630 c-25 -6 -25 -6 -3 -12 13 -3 26 -2 29 4 9 14 2 16 -26 8z"/>
<path d="M1355 1610 c-3 -6 1 -7 9 -4 18 7 21 14 7 14 -6 0 -13 -4 -16 -10z"/>
<path d="M323 1568 c-2 -27 0 -29 7 -13 11 26 12 45 2 45 -4 0 -8 -15 -9 -32z"/>
<path d="M365 1590 c-25 -11 1 -11 35 0 20 6 21 8 5 8 -11 0 -29 -3 -40 -8z"/>
<path d="M432 1580 c-29 -4 -56 -11 -59 -14 -7 -7 73 2 127 14 46 11 4 10 -68
0z"/>
<path d="M678 1583 c7 -3 16 -2 19 1 4 3 -2 6 -13 5 -11 0 -14 -3 -6 -6z"/>
<path d="M1241 1559 c-13 -5 -33 -7 -45 -4 -19 5 -20 5 -3 -5 21 -13 87 -5 87
10 0 12 -8 12 -39 -1z"/>
<path d="M348 1530 c2 -16 6 -30 8 -30 2 0 4 14 4 30 0 17 -4 30 -8 30 -5 0
-7 -13 -4 -30z"/>
<path d="M1150 1533 c0 -5 12 -9 27 -10 19 -1 22 1 12 8 -17 11 -39 12 -39 2z"/>
<path d="M728 1523 c6 -2 18 -2 25 0 6 3 1 5 -13 5 -14 0 -19 -2 -12 -5z"/>
<path d="M1228 1523 c7 -3 16 -2 19 1 4 3 -2 6 -13 5 -11 0 -14 -3 -6 -6z"/>
<path d="M1566 1453 c-10 -62 -7 -183 4 -183 6 0 12 6 15 13 8 25 10 175 2
164 -5 -7 -6 0 -3 16 4 15 2 27 -3 27 -4 0 -11 -17 -15 -37z m11 -135 c-2 -24
-4 -5 -4 42 0 47 2 66 4 43 2 -24 2 -62 0 -85z"/>
<path d="M720 1470 c0 -5 5 -10 11 -10 5 0 7 5 4 10 -3 6 -8 10 -11 10 -2 0
-4 -4 -4 -10z"/>
<path d="M880 1450 c-20 -6 -21 -8 -5 -8 11 0 29 3 40 8 25 11 -1 11 -35 0z"/>
<path d="M321 1264 c0 -11 3 -14 6 -6 3 7 2 16 -1 19 -3 4 -6 -2 -5 -13z"/>
<path d="M765 1270 c28 -4 53 -5 57 -1 4 3 -19 7 -50 8 l-57 1 50 -8z"/>
<path d="M1095 1264 c-16 -8 -37 -22 -45 -30 -8 -9 3 -6 25 7 22 12 60 26 85
30 l45 6 -40 2 c-22 0 -53 -6 -70 -15z"/>
<path d="M1584 1257 c-6 -7 -9 -18 -6 -25 6 -20 17 -13 18 13 1 14 1 25 0 25
0 -1 -6 -6 -12 -13z"/>
<path d="M333 1245 c-10 -11 -10 -15 0 -19 9 -3 8 -8 -3 -16 -13 -10 -13 -11
0 -7 8 2 16 16 17 30 2 31 2 31 -14 12z"/>
<path d="M1550 1221 c0 -5 5 -13 10 -16 6 -3 10 -2 10 4 0 5 -4 13 -10 16 -5
3 -10 2 -10 -4z"/>
<path d="M1044 640 c0 -179 2 -252 3 -162 2 89 2 235 0 325 -1 89 -3 16 -3
-163z"/>
<path d="M1556 304 c-9 -24 -7 -28 9 -14 17 14 20 30 6 30 -5 0 -12 -7 -15
-16z"/>
<path d="M1384 298 c-3 -4 2 -8 12 -8 12 0 15 -7 12 -30 -3 -20 0 -30 9 -30 8
0 13 12 13 30 0 18 5 30 13 30 9 0 12 -9 9 -29 -2 -16 1 -32 7 -35 7 -5 11 5
11 26 l1 33 14 -25 c11 -19 14 -21 15 -7 0 9 5 17 11 17 6 0 9 -9 6 -20 -3
-13 0 -20 9 -20 10 0 12 9 7 33 -7 40 -9 42 -26 29 -9 -7 -17 -8 -23 -2 -12
12 -93 19 -100 8z"/>
<path d="M1571 255 c-11 -19 -31 -39 -45 -45 -26 -9 -44 -30 -27 -30 6 0 11 5
11 11 0 5 4 8 8 5 11 -7 76 56 80 77 4 26 -4 21 -27 -18z"/>
<path d="M1487 223 c-4 -3 -7 -11 -7 -17 0 -6 5 -5 12 2 6 6 9 14 7 17 -3 3
-9 2 -12 -2z"/>
<path d="M1363 195 c0 -17 4 -21 17 -18 10 3 21 0 24 -6 9 -14 26 -14 26 -1 0
6 -6 10 -13 10 -7 0 -23 9 -34 19 -20 19 -20 19 -20 -4z"/>
<path d="M1417 213 c-9 -2 -15 -9 -12 -14 9 -14 22 -11 29 6 3 8 4 14 3 14 -1
-1 -10 -3 -20 -6z"/>
<path d="M1565 200 c-10 -11 -24 -20 -31 -20 -7 0 -15 -4 -18 -8 -12 -20 33
-5 60 20 16 15 24 28 18 28 -6 0 -19 -9 -29 -20z"/>
<path d="M810 200 c-12 -8 -11 -10 7 -10 12 0 25 5 28 10 8 13 -15 13 -35 0z"/>
<path d="M1075 200 c3 -5 16 -10 28 -10 18 0 19 2 7 10 -20 13 -43 13 -35 0z"/>
<path d="M1448 193 c-4 -15 -1 -23 13 -26 12 -3 19 0 19 10 0 8 -4 12 -9 8 -5
-3 -11 3 -13 12 -3 15 -5 15 -10 -4z"/>
<path d="M865 190 c-3 -5 -20 -10 -37 -10 -42 0 -29 -12 16 -14 19 -1 34 3 33
9 -1 6 32 10 86 10 48 0 87 3 87 8 0 11 -178 8 -185 -3z"/>
<path d="M1590 182 c0 -6 -8 -13 -17 -15 -16 -4 -16 -5 -1 -6 18 -1 34 16 24
26 -3 4 -6 1 -6 -5z"/>
<path d="M1050 170 c-10 -6 -2 -7 25 -3 49 7 58 13 19 13 -16 0 -36 -5 -44
-10z"/>
</g>
</svg>
