<?xml version="1.0" standalone="no"?>
<!DOCTYPE svg PUBLIC "-//W3C//DTD SVG 20010904//EN"
 "http://www.w3.org/TR/2001/REC-SVG-20010904/DTD/svg10.dtd">
<svg version="1.0" xmlns="http://www.w3.org/2000/svg"
 width="64.000000pt" height="64.000000pt" viewBox="0 0 64.000000 64.000000"
 preserveAspectRatio="xMidYMid meet">
<metadata>
Created by potrace 1.16, written by Peter Selinger 2001-2019
</metadata>
<g transform="translate(0.000000,64.000000) scale(0.100000,-0.100000)"
fill="#000000" stroke="none">
<path d="M114 607 c-67 -46 -114 -117 -113 -171 l1 -41 9 31 c23 79 124 180
203 203 l31 9 -41 1 c-32 1 -53 -7 -90 -32z"/>
<path d="M433 625 c82 -30 162 -110 192 -192 l14 -38 0 41 c2 82 -121 205
-203 203 l-41 0 38 -14z"/>
<path d="M240 573 c-41 -14 -80 -35 -80 -43 0 -6 -6 -10 -14 -10 -16 0 -46
-42 -46 -65 0 -8 -4 -15 -10 -15 -13 0 -32 -70 -28 -105 3 -28 6 -30 43 -31
35 0 40 -3 43 -25 2 -21 1 -22 -8 -6 -6 9 -22 17 -34 17 -20 0 -25 -6 -30 -44
-8 -53 16 -109 63 -149 39 -32 134 -46 160 -23 16 14 19 14 40 0 52 -37 171
12 210 87 29 54 20 129 -15 129 -13 0 -28 -8 -33 -17 -9 -15 -10 -14 -11 9 0
27 1 27 45 21 l45 -6 0 39 c-1 22 -9 57 -20 79 -11 22 -19 46 -20 52 0 20 -57
69 -106 92 -42 20 -153 28 -194 14z m54 -29 c8 -22 8 -26 -3 -20 -5 4 -11 2
-13 -3 -1 -4 -13 -11 -24 -15 -16 -5 -23 -2 -27 14 -7 27 11 36 28 14 14 -18
14 -18 15 4 0 25 15 30 24 6z m33 2 c-3 -8 -1 -17 6 -20 7 -2 4 -5 -5 -5 -12
-1 -18 6 -18 19 0 11 5 20 11 20 6 0 9 -6 6 -14z m81 -2 c18 -8 32 -21 32 -29
0 -16 -27 -28 -35 -15 -4 6 -14 10 -25 10 -22 0 -33 23 -17 39 13 13 8 14 45
-5z m-191 -30 c3 -9 -3 -23 -16 -35 -19 -18 -23 -18 -42 -6 -11 8 -16 18 -11
21 6 3 13 -1 16 -10 3 -8 10 -12 16 -9 6 4 8 11 4 16 -8 13 3 39 16 39 6 0 13
-7 17 -16z m247 -16 c-5 -7 -1 -9 9 -5 20 7 22 -4 5 -21 -9 -9 -9 -12 -1 -12
7 0 15 5 19 11 7 11 24 -6 24 -24 0 -14 -44 -3 -67 17 -18 15 -20 22 -10 37 6
10 15 15 19 13 5 -3 5 -10 2 -16z m-100 -39 c12 -10 -37 -23 -69 -17 -14 3
-22 1 -19 -4 4 -6 0 -21 -7 -35 -9 -17 -19 -23 -34 -19 -18 5 -19 4 -3 -8 15
-11 16 -18 7 -45 -6 -17 -16 -31 -21 -31 -7 0 -7 -4 0 -12 5 -7 12 -24 15 -38
l4 -25 2 27 c1 25 2 26 36 15 29 -9 35 -15 35 -39 0 -26 -3 -29 -22 -23 -18 5
-20 4 -8 -4 19 -13 45 -14 90 -1 32 9 36 14 38 47 3 34 15 52 35 53 15 0 6
-49 -12 -62 -10 -7 -18 -17 -17 -23 0 -5 -15 -18 -34 -28 -117 -60 -257 84
-196 201 38 73 136 112 180 71z m-230 -4 c-4 -8 -1 -15 5 -15 6 0 11 5 11 11
0 5 5 7 10 4 15 -9 2 -25 -21 -25 -12 0 -19 7 -19 20 0 11 4 20 10 20 5 0 7
-7 4 -15z m274 -7 c7 -7 12 -19 12 -27 0 -11 -4 -10 -20 4 -21 19 -26 35 -12
35 4 0 13 -5 20 -12z m-2 -39 c3 -6 1 -16 -5 -22 -8 -8 -15 -6 -26 9 -22 29
-20 47 4 34 11 -5 23 -15 27 -21z m-96 -14 c0 -36 -5 -41 -28 -26 -10 6 -11
13 -1 34 17 37 29 34 29 -8z m49 9 c13 -30 14 -29 -15 -38 -20 -6 -22 -3 -22
29 0 42 19 47 37 9z m172 17 c-12 -8 -51 -4 -51 5 0 2 15 4 33 4 22 0 28 -3
18 -9z m-391 -21 c0 -10 -42 -21 -50 -13 -3 3 1 8 8 10 6 3 10 8 7 13 -3 4 4
6 15 3 11 -3 20 -9 20 -13z m324 -65 c4 -43 3 -50 -3 -25 -5 19 -13 48 -20 63
-15 39 -14 55 3 37 8 -8 17 -42 20 -75z m91 28 c7 -41 6 -44 -23 -36 -25 6
-30 23 -7 23 8 0 15 9 15 20 0 11 -4 20 -10 20 -5 0 -10 -7 -10 -17 0 -21 -13
-9 -17 16 -2 14 3 17 21 14 18 -4 26 -14 31 -40z m-120 -14 c7 -31 -11 -58
-26 -41 -14 16 -19 60 -6 65 22 10 25 7 32 -24z m-314 11 c21 0 7 -28 -16 -32
-14 -3 -25 -1 -25 3 0 5 10 10 23 10 l22 2 -22 4 c-13 2 -23 9 -23 15 0 5 7 7
16 4 9 -3 20 -6 25 -6z m189 -47 c0 -33 -2 -34 -32 -31 -30 3 -33 6 -29 33 4
41 7 43 36 37 21 -4 25 -10 25 -39z m75 17 c8 -38 0 -50 -34 -50 -24 0 -27 4
-27 35 0 26 5 35 21 38 11 2 23 5 27 6 3 0 9 -12 13 -29z m-260 -113 c1 -17 7
-33 14 -35 7 -2 9 7 4 30 -8 43 2 34 20 -19 l15 -43 -27 6 c-20 4 -23 3 -11
-5 8 -6 25 -11 38 -11 20 0 21 3 12 20 -14 26 -4 25 30 -3 24 -21 37 -24 104
-22 63 1 80 5 99 23 29 27 41 28 27 2 -9 -17 -8 -20 12 -20 13 0 30 5 38 11
12 8 9 9 -12 5 l-27 -6 16 45 c17 51 28 60 18 15 -7 -33 5 -39 25 -15 11 13
10 14 -4 9 -16 -6 -16 -4 -1 32 8 21 18 40 21 43 11 11 -2 -88 -14 -101 -6 -8
-9 -17 -6 -21 3 -3 -6 -13 -20 -22 -19 -13 -36 -15 -68 -10 -31 4 -39 3 -28
-4 8 -6 26 -11 40 -12 25 0 25 0 3 -11 -17 -8 -31 -6 -65 11 l-43 22 30 -25
c35 -30 25 -35 -12 -6 -32 25 -45 25 -68 0 -10 -11 -23 -20 -28 -20 -6 0 -2
10 9 21 l19 22 -33 -17 c-25 -13 -40 -15 -60 -7 l-27 9 25 2 c14 1 34 6 45 11
14 6 7 7 -23 3 -31 -4 -50 -1 -68 11 -14 9 -23 19 -20 22 3 4 0 13 -6 21 -7 8
-14 35 -15 61 -2 38 -1 43 8 27 7 -10 13 -33 14 -49z m267 23 c-3 -21 -10 -30
-22 -30 -10 0 -25 -2 -33 -5 -10 -4 -14 2 -14 24 0 22 6 31 21 34 49 10 53 8
48 -23z"/>
<path d="M370 530 c0 -5 7 -10 15 -10 8 0 15 5 15 10 0 6 -7 10 -15 10 -8 0
-15 -4 -15 -10z"/>
<path d="M410 514 c0 -8 5 -12 10 -9 6 3 10 10 10 16 0 5 -4 9 -10 9 -5 0 -10
-7 -10 -16z"/>
<path d="M190 511 c0 -5 5 -13 10 -16 6 -3 10 -2 10 4 0 5 -4 13 -10 16 -5 3
-10 2 -10 -4z"/>
<path d="M0 204 c0 -86 118 -204 204 -204 l41 1 -46 18 c-87 34 -154 102 -185
188 l-13 38 -1 -41z"/>
<path d="M627 213 c-19 -73 -111 -167 -194 -198 l-38 -14 40 0 c85 -2 210 125
203 205 l-3 39 -8 -32z"/>
</g>
</svg>
