<?xml version="1.0" standalone="no"?>
<!DOCTYPE svg PUBLIC "-//W3C//DTD SVG 20010904//EN"
 "http://www.w3.org/TR/2001/REC-SVG-20010904/DTD/svg10.dtd">
<svg version="1.0" xmlns="http://www.w3.org/2000/svg"
 width="192.000000pt" height="192.000000pt" viewBox="0 0 192.000000 192.000000"
 preserveAspectRatio="xMidYMid meet">
<metadata>
Created by potrace 1.16, written by Peter Selinger 2001-2019
</metadata>
<g transform="translate(0.000000,192.000000) scale(0.100000,-0.100000)"
fill="#000000" stroke="none">
<path d="M10 960 l0 -950 950 0 950 0 0 950 0 950 -950 0 -950 0 0 -950z
m1878 3 c1 -508 -1 -924 -5 -924 -29 -5 -1843 -5 -1844 0 -1 3 -3 418 -5 921
-2 617 1 917 7 921 6 3 423 6 927 5 l917 -1 3 -922z"/>
<path d="M910 1528 c-1 -20 -2 -21 -11 -5 -13 22 -69 24 -69 2 0 -13 -7 -15
-35 -9 -40 7 -95 -11 -95 -32 0 -9 -11 -14 -28 -14 -34 0 -62 -27 -62 -59 0
-18 -4 -21 -20 -16 -20 6 -60 -10 -60 -25 0 -4 -14 -22 -31 -39 -26 -27 -30
-37 -27 -71 3 -36 1 -40 -20 -40 -21 0 -30 -10 -36 -42 -2 -7 -6 -21 -10 -30
-4 -9 -9 -22 -10 -30 -2 -7 -6 -20 -10 -29 -4 -9 -6 -43 -4 -75 l3 -59 60 2
c72 3 80 11 89 96 4 34 12 67 18 74 6 7 8 24 6 37 -4 19 0 26 18 30 13 4 28
16 34 27 14 25 87 99 98 99 5 0 17 9 26 19 9 10 27 21 39 24 12 3 41 13 65 21
24 9 67 17 95 17 29 1 62 5 74 10 15 5 25 3 33 -7 7 -7 25 -14 41 -14 16 0 38
-9 49 -20 11 -11 27 -20 36 -20 17 0 154 -131 154 -148 0 -6 6 -17 13 -24 20
-19 57 -141 57 -184 0 -36 0 -37 35 -31 20 3 35 2 35 -4 0 -6 17 -9 37 -7 46
4 50 17 33 113 -15 81 -25 105 -45 105 -10 0 -12 9 -8 34 4 28 2 34 -16 39
-16 4 -21 13 -21 37 0 22 -9 41 -30 62 -16 16 -30 34 -30 39 0 5 -13 12 -29
15 -21 4 -31 13 -33 28 -2 13 -11 22 -26 24 -12 2 -33 14 -47 28 -15 14 -36
24 -53 24 -17 0 -32 6 -36 15 -4 11 -21 15 -59 15 -47 0 -55 -3 -67 -25 -19
-36 -38 -32 -36 8 1 31 0 32 -41 35 -39 3 -43 1 -43 -20z m62 -10 c-13 -13
-17 -78 -4 -78 4 0 13 5 20 12 9 9 12 8 12 -5 0 -13 -9 -17 -32 -17 -33 0 -33
0 -33 50 0 46 2 50 25 50 19 0 21 -3 12 -12z m-79 -43 c14 -25 24 -45 22 -45
-2 0 -10 -3 -18 -6 -10 -4 -15 1 -14 13 1 10 -5 18 -13 18 -8 0 -15 -9 -15
-19 0 -11 -6 -21 -13 -24 -15 -5 -15 -5 -1 58 6 27 14 50 19 50 5 0 20 -20 33
-45z m244 20 c8 -23 -7 -33 -18 -12 -8 13 -14 15 -30 7 -21 -12 -25 -40 -7
-58 8 -8 15 -9 25 -1 10 9 13 8 13 -5 0 -19 -40 -22 -58 -4 -15 15 -15 61 0
76 17 17 67 15 75 -3z m-348 -4 c7 -5 11 -15 9 -22 -3 -8 2 -19 9 -24 17 -13
8 -41 -15 -49 -9 -3 -23 -9 -31 -12 -9 -4 -12 -2 -9 7 3 8 -3 30 -13 50 -18
36 -18 36 4 47 28 13 29 14 46 3z m431 -29 c45 -37 -3 -108 -56 -83 -32 14
-33 64 -2 85 28 20 31 20 58 -2z m-510 -32 c25 -25 25 -41 1 -71 -16 -20 -22
-22 -45 -11 -34 15 -44 56 -21 82 23 25 40 25 65 0z m580 -54 c-9 -25 -8 -27
7 -21 29 12 56 11 60 -2 3 -7 -1 -13 -9 -13 -7 0 -22 -13 -33 -29 -14 -22 -23
-27 -32 -19 -10 8 -8 14 10 29 16 14 18 18 7 19 -9 0 -22 -6 -29 -12 -11 -11
-13 -7 -7 21 5 29 4 32 -9 21 -8 -7 -15 -19 -15 -27 0 -12 -3 -13 -15 -3 -12
10 -10 15 15 37 17 14 30 32 30 41 0 15 2 15 15 1 13 -12 14 -21 5 -43z m-693
-36 c27 -33 43 -38 43 -15 0 8 5 15 10 15 16 0 11 -26 -9 -44 -17 -16 -20 -15
-55 20 -20 20 -33 40 -30 45 8 14 13 11 41 -21z m823 -68 c0 -17 -26 -26 -47
-16 -16 7 -15 8 5 11 12 3 22 11 22 19 0 20 -33 2 -55 -29 -13 -19 -17 -20
-25 -7 -13 21 -12 30 3 30 8 0 24 11 37 25 l24 26 18 -23 c10 -13 18 -29 18
-36z m-870 38 c0 -5 -6 -10 -14 -10 -19 0 -29 -30 -15 -46 13 -16 45 -19 53
-5 3 5 -1 12 -10 15 -13 5 -14 9 -4 21 11 14 14 13 27 -5 20 -29 1 -60 -37
-60 -49 0 -69 47 -37 88 11 14 37 16 37 2z m873 -134 c-25 -29 -41 -40 -45
-32 -12 18 -9 26 8 26 9 0 14 7 12 18 -2 11 -11 16 -25 14 -12 -2 -24 2 -28 8
-4 6 15 10 55 10 l61 0 -38 -44z m-920 -7 c46 -16 47 -25 2 -33 -45 -9 -55
-26 -16 -26 31 0 43 -21 21 -35 -5 -3 -10 -2 -10 4 0 9 -56 27 -72 23 -5 -1
-8 4 -8 12 0 8 19 21 43 29 l42 15 -32 7 c-18 4 -33 11 -33 15 0 12 13 21 19
12 3 -5 23 -15 44 -23z m981 -35 c21 -20 21 -64 1 -64 -11 0 -14 7 -9 25 6 23
3 25 -25 25 -17 0 -31 -2 -31 -4 0 -2 -3 -11 -6 -20 -4 -11 -1 -16 11 -16 9 0
15 -6 13 -12 -9 -26 -33 -13 -36 18 -5 54 47 84 82 48z m-983 -96 c9 -16 3
-47 -10 -49 -3 -1 -25 -3 -48 -3 -34 -2 -43 1 -43 15 0 14 6 15 41 9 31 -6 42
-4 46 7 8 20 1 24 -46 26 -22 1 -41 2 -41 3 0 1 3 9 6 17 4 12 12 13 46 3 22
-7 44 -20 49 -28z m1009 -7 c0 -16 3 -36 6 -45 4 -12 0 -16 -16 -16 -19 0 -20
2 -10 15 11 13 8 15 -22 15 -19 0 -39 -5 -46 -12 -9 -9 -12 -4 -11 23 0 18 3
28 6 22 6 -15 69 -17 78 -3 3 6 1 10 -4 10 -6 0 -11 5 -11 10 0 6 7 10 15 10
10 0 15 -10 15 -29z"/>
<path d="M752 1469 c2 -7 10 -15 17 -17 8 -3 12 1 9 9 -2 7 -10 15 -17 17 -8
3 -12 -1 -9 -9z"/>
<path d="M770 1425 c0 -9 5 -15 11 -13 6 2 11 8 11 13 0 5 -5 11 -11 13 -6 2
-11 -4 -11 -13z"/>
<path d="M1170 1445 c-16 -19 -9 -49 12 -53 19 -4 42 33 34 54 -7 18 -30 18
-46 -1z"/>
<path d="M655 1420 c-9 -15 4 -47 22 -54 26 -10 38 9 25 39 -12 25 -36 33 -47
15z"/>
<path d="M1405 1200 c4 -6 11 -8 16 -5 14 9 11 15 -7 15 -8 0 -12 -5 -9 -10z"/>
<path d="M888 1349 c-31 -4 -77 -18 -102 -30 -62 -29 -139 -107 -173 -177 -25
-52 -28 -67 -28 -167 0 -105 2 -114 33 -177 38 -77 99 -136 182 -176 48 -23
68 -26 155 -27 88 0 107 3 156 26 64 30 139 93 139 118 0 9 7 25 15 35 8 11
15 28 15 38 0 10 7 18 15 18 19 0 45 89 45 157 0 29 -4 53 -10 53 -5 0 -10 17
-10 38 0 46 -39 123 -71 139 -13 7 -27 21 -31 32 -8 22 -79 71 -103 71 -9 0
-28 6 -43 14 -37 18 -116 25 -184 15z m164 -40 c50 -27 -13 -69 -104 -69 -29
0 -66 7 -82 15 -34 18 -36 18 -36 4 0 -5 13 -15 29 -20 l30 -11 -28 -38 c-16
-22 -34 -53 -41 -70 -15 -36 -28 -37 -64 -9 -15 12 -30 19 -33 15 -9 -9 15
-33 48 -46 22 -9 28 -17 23 -29 -13 -33 -34 -117 -34 -140 0 -23 -1 -23 -26
-7 -14 10 -30 16 -36 14 -7 -3 5 -14 25 -27 35 -22 37 -25 37 -76 0 -30 5 -57
11 -61 7 -4 9 10 4 50 -4 31 -6 56 -4 56 2 0 35 -6 72 -14 38 -8 75 -12 83 -9
11 4 14 -10 14 -74 l0 -80 -57 3 c-43 3 -51 1 -33 -5 14 -5 42 -9 63 -10 33
-1 37 -4 37 -27 0 -26 -1 -27 -47 -20 -69 9 -144 49 -196 105 -55 59 -81 108
-96 183 -30 142 53 310 187 378 69 36 203 46 254 19z m100 -42 c32 -25 44 -41
46 -65 2 -18 -1 -32 -7 -32 -6 0 -11 4 -11 9 0 5 -20 24 -45 42 -29 22 -44 42
-45 57 0 30 11 28 62 -11z m-19 -75 c45 -45 47 -49 30 -63 -52 -43 -52 -43
-63 -14 -6 16 -24 47 -40 71 -28 42 -27 51 10 53 9 1 37 -21 63 -47z m-184 -9
c0 -21 -3 -57 -6 -81 l-6 -44 -51 7 c-65 9 -69 12 -52 38 7 12 25 43 40 70 21
36 32 47 52 47 22 0 24 -4 23 -37z m102 -25 c19 -35 35 -66 37 -70 3 -6 -85
-28 -113 -28 -12 0 -15 17 -15 80 l0 80 29 0 c24 0 33 -8 62 -62z m206 10 c29
-49 40 -90 33 -123 -7 -37 -22 -35 -33 5 -4 17 -16 44 -26 60 -17 29 -18 90
-1 90 4 0 17 -15 27 -32z m-11 -177 c3 -21 -3 -32 -38 -58 l-43 -32 -18 72
c-10 40 -19 77 -20 84 -1 6 14 22 33 36 l35 24 23 -50 c13 -28 25 -62 28 -76z
m-350 51 c25 -4 45 -10 44 -14 0 -5 0 -46 0 -91 l0 -84 -58 8 c-75 10 -113 25
-108 41 3 7 12 46 21 86 15 64 20 72 37 66 11 -3 40 -9 64 -12z m218 -40 c9
-32 16 -72 16 -89 0 -29 -3 -31 -57 -42 -116 -22 -106 -29 -105 74 l1 90 52 8
c29 4 55 10 58 12 12 12 20 1 35 -53z m196 -47 c-5 -39 -13 -81 -19 -95 -8
-20 -10 -13 -10 43 -1 43 5 79 15 98 8 17 17 29 19 27 2 -2 0 -35 -5 -73z
m-50 -76 c0 -64 -9 -81 -67 -120 -45 -32 -46 -32 -40 -8 4 13 7 45 7 71 0 44
3 49 43 76 23 17 45 31 50 31 4 1 7 -22 7 -50z m-120 -43 c0 -13 -3 -44 -6
-70 -7 -46 -7 -46 -58 -61 -28 -7 -64 -15 -81 -17 l-30 -3 0 75 1 74 52 3 c29
2 62 8 74 13 37 14 48 11 48 -14z m55 -121 c-58 -51 -78 -61 -73 -39 3 17 81
72 103 73 6 0 -8 -15 -30 -34z m-85 -33 c0 -21 -29 -44 -65 -52 -69 -16 -85
-13 -85 15 0 23 4 25 43 26 23 0 51 4 62 9 26 11 45 12 45 2z"/>
<path d="M424 845 c-3 -19 -3 -51 0 -70 4 -22 3 -35 -4 -35 -20 0 -9 -58 20
-101 16 -24 30 -54 30 -65 0 -24 42 -70 71 -79 10 -4 19 -12 19 -20 0 -7 25
-26 55 -40 42 -21 66 -26 104 -23 39 2 52 -1 60 -14 19 -30 62 -21 109 22 56
51 81 51 136 0 47 -44 88 -52 107 -22 8 13 21 16 56 13 55 -4 128 22 150 55 8
13 21 24 28 24 20 0 85 65 85 84 0 10 11 36 24 59 29 51 41 103 27 112 -6 3
-11 35 -11 71 0 62 -1 64 -25 64 -20 0 -30 -9 -47 -45 -16 -33 -28 -45 -47
-47 -20 -2 -32 -15 -51 -55 -14 -30 -33 -54 -45 -57 -11 -3 -44 -28 -74 -55
-30 -27 -71 -54 -91 -60 -46 -14 -252 -14 -300 -1 -20 5 -65 34 -100 65 -36
30 -73 55 -82 55 -10 0 -18 5 -18 11 0 7 -10 32 -22 56 -17 33 -30 46 -51 50
-21 4 -32 15 -44 44 -12 30 -21 39 -39 39 -19 0 -24 -7 -30 -35z m72 -76 c19
-42 34 -82 34 -88 0 -22 -21 -10 -50 31 -26 35 -30 49 -29 102 0 34 3 54 6 46
3 -8 21 -49 39 -91z m965 -9 c-6 -20 -27 -51 -47 -70 -34 -33 -36 -34 -29 -10
4 14 20 54 35 90 16 36 32 74 36 85 13 32 18 -53 5 -95z m-902 -17 c10 -21 26
-64 35 -95 9 -31 21 -60 26 -63 26 -16 5 -22 -37 -9 -62 19 -87 36 -123 86
-44 60 -36 75 14 26 45 -44 100 -88 110 -88 4 0 0 10 -8 23 -8 12 -20 45 -26
72 -6 28 -13 58 -16 68 -9 30 5 18 25 -20z m810 -30 c-6 -32 -18 -68 -25 -80
-8 -12 -14 -25 -14 -28 0 -14 121 79 140 108 19 28 20 29 15 7 -10 -35 -53
-96 -82 -115 -30 -20 -110 -45 -117 -37 -4 3 0 12 8 21 8 9 23 43 34 76 40
123 63 149 41 48z m-642 -147 c12 -10 37 -22 55 -26 l33 -7 -45 -14 c-25 -7
-77 -14 -117 -14 -63 0 -76 3 -114 30 -48 34 -70 69 -24 39 15 -10 66 -23 113
-31 115 -17 125 -16 76 6 -25 11 -49 33 -62 55 -34 57 -26 64 21 20 23 -22 52
-48 64 -58z m547 41 c-16 -23 -45 -50 -64 -60 l-35 -17 50 6 c100 11 155 24
180 40 29 19 34 5 7 -19 -55 -50 -148 -68 -240 -46 -60 15 -71 25 -34 32 16 3
58 31 93 61 35 30 66 52 68 50 3 -2 -9 -23 -25 -47z m-147 -104 c66 -27 120
-33 166 -20 40 11 25 -9 -21 -29 -54 -23 -131 -14 -183 20 -45 30 -99 50 -99
37 0 -5 12 -14 28 -20 46 -20 98 -68 86 -81 -8 -8 -21 -1 -48 25 -21 20 -51
42 -68 51 -38 20 -69 8 -129 -47 -31 -28 -46 -36 -53 -28 -12 12 25 47 84 79
32 17 33 19 11 20 -13 0 -47 -15 -75 -32 -44 -29 -59 -33 -116 -33 -52 0 -72
5 -100 23 l-35 24 30 -8 c50 -14 117 -7 180 20 51 21 76 24 170 24 93 0 118
-3 172 -25z"/>
</g>
</svg>
