<?xml version="1.0" standalone="no"?>
<!DOCTYPE svg PUBLIC "-//W3C//DTD SVG 20010904//EN"
 "http://www.w3.org/TR/2001/REC-SVG-20010904/DTD/svg10.dtd">
<svg version="1.0" xmlns="http://www.w3.org/2000/svg"
 width="327.000000pt" height="114.000000pt" viewBox="0 0 327.000000 114.000000"
 preserveAspectRatio="xMidYMid meet">
<metadata>
Created by potrace 1.16, written by Peter Selinger 2001-2019
</metadata>
<g transform="translate(0.000000,114.000000) scale(0.100000,-0.100000)"
fill="#000000" stroke="none">
<path d="M610 790 l0 -150 -35 0 c-28 0 -35 4 -35 19 0 21 -19 31 -55 31 -14
0 -29 9 -35 20 -7 14 -21 20 -44 20 -25 0 -35 5 -39 20 -4 15 -14 20 -40 20
-27 0 -37 5 -42 20 -6 18 -15 20 -86 20 l-79 0 0 -250 0 -250 79 0 c71 0 80 2
86 20 4 14 15 20 36 20 18 0 33 7 41 20 9 13 24 20 46 20 25 0 35 6 44 25 9
19 19 25 44 25 24 0 34 5 39 20 5 15 15 20 41 20 l34 0 0 -117 c0 -158 2 -163
55 -163 36 0 44 4 49 22 3 13 6 179 6 371 l0 347 -55 0 -55 0 0 -150z m90
-205 l0 -335 -35 0 -35 0 0 335 0 335 35 0 35 0 0 -335z m-435 186 c4 -14 17
-21 42 -23 20 -2 39 -9 41 -17 3 -10 -1 -12 -17 -8 -17 4 -21 2 -17 -9 3 -8 1
-14 -4 -14 -6 0 -10 -7 -10 -15 0 -10 -10 -15 -29 -15 -18 0 -35 -8 -44 -20
-8 -11 -28 -23 -45 -26 -48 -10 -38 -24 13 -20 25 2 48 -1 52 -7 3 -6 1 -7 -5
-3 -7 4 -12 3 -12 -3 0 -5 -12 -12 -27 -14 -16 -2 -9 -4 15 -3 23 1 42 -2 42
-6 0 -13 -25 -22 -55 -21 -24 1 -25 0 -6 -4 13 -3 32 -15 42 -26 l18 -22 1 23
c0 28 27 40 47 20 12 -13 13 -19 1 -37 -8 -13 -20 -20 -30 -17 -11 2 -18 -1
-18 -10 0 -8 5 -14 11 -14 20 0 39 -26 27 -38 -7 -7 -8 -15 -4 -19 4 -4 11 -1
16 7 7 10 10 11 10 3 0 -7 7 -13 16 -13 14 0 14 -3 4 -15 -7 -8 -25 -15 -41
-15 -19 0 -30 -6 -34 -20 -5 -17 -15 -20 -66 -20 l-59 0 0 230 0 230 59 0 c50
0 61 -3 66 -19z m163 -77 c11 -19 4 -64 -10 -64 -5 0 -8 8 -6 18 4 27 -19 51
-42 45 -11 -3 -20 -9 -20 -14 0 -5 -7 -9 -15 -9 -12 0 -12 3 2 20 21 25 78 27
91 4z m-40 -26 c7 -7 12 -26 12 -44 0 -17 7 -37 15 -44 14 -11 14 -15 0 -37
-9 -13 -13 -28 -10 -32 11 -18 -14 -61 -36 -61 -25 0 -21 -23 6 -28 10 -3 15
0 11 7 -5 7 -1 9 8 5 16 -6 20 4 17 39 -3 23 6 22 19 -3 18 -34 -4 -62 -48
-58 -36 3 -37 4 -37 43 0 34 3 40 23 43 12 2 22 10 22 19 0 11 -7 14 -23 11
-20 -4 -22 0 -22 32 0 36 1 37 26 30 22 -7 26 -5 22 10 -3 11 -13 16 -27 15
-16 -2 -22 3 -23 18 -2 21 13 47 26 47 4 0 12 -5 19 -12z m116 -4 c9 -3 16
-15 16 -25 0 -15 7 -19 39 -19 36 0 40 -3 46 -30 4 -16 4 -44 0 -60 -6 -26
-11 -30 -41 -30 -21 0 -34 5 -34 13 0 7 -11 14 -25 15 -16 1 -25 -3 -25 -12 0
-8 -3 -22 -7 -31 -5 -15 -3 -16 17 -5 18 10 20 14 9 22 -12 8 -11 9 1 5 8 -2
15 -12 15 -23 0 -14 -8 -20 -31 -22 -27 -3 -33 1 -39 25 -5 15 -7 33 -5 38 6
24 5 61 -4 73 -5 7 -4 12 3 12 6 0 11 14 11 30 0 31 17 38 54 24z m-195 -36
c11 -17 10 -23 -2 -36 -9 -8 -22 -12 -30 -9 -15 5 -26 44 -20 64 6 16 37 5 52
-19z m12 9 c-10 -9 -11 -8 -5 6 3 10 9 15 12 12 3 -3 0 -11 -7 -18z m9 -167
c0 -5 -2 -10 -4 -10 -3 0 -8 5 -11 10 -3 6 -1 10 4 10 6 0 11 -4 11 -10z m358
-247 c-10 -2 -28 -2 -40 0 -13 2 -5 4 17 4 22 1 32 -1 23 -4z"/>
<path d="M156 772 c-3 -4 4 -9 15 -9 23 -2 25 3 4 10 -8 4 -16 3 -19 -1z"/>
<path d="M215 743 c3 -12 1 -23 -4 -23 -5 0 -11 -9 -14 -20 -4 -15 -10 -18
-24 -13 -10 3 -15 3 -12 -1 10 -11 59 -17 80 -11 12 4 19 16 19 31 0 17 -4 23
-12 18 -8 -5 -9 -2 -5 9 3 10 2 17 -4 17 -6 0 -8 4 -5 8 3 5 -2 9 -10 9 -11 0
-14 -7 -9 -24z m35 -37 c0 -2 -7 -7 -16 -10 -8 -3 -12 -2 -9 4 6 10 25 14 25
6z"/>
<path d="M168 643 c7 -3 16 -2 19 1 4 3 -2 6 -13 5 -11 0 -14 -3 -6 -6z"/>
<path d="M150 510 c0 -5 4 -10 10 -10 5 0 7 -7 4 -15 -4 -9 0 -15 10 -15 9 0
16 5 16 10 0 19 27 10 37 -12 10 -22 11 -22 19 -4 4 10 3 26 -3 34 -10 17 -93
28 -93 12z"/>
<path d="M160 440 c0 -5 5 -10 11 -10 5 0 7 5 4 10 -3 6 -8 10 -11 10 -2 0 -4
-4 -4 -10z"/>
<path d="M217 433 c-2 -5 -5 -24 -5 -44 -1 -25 3 -36 13 -36 8 0 12 4 9 9 -3
4 0 8 6 8 6 0 8 5 5 10 -11 17 5 32 21 19 18 -14 18 0 0 24 -13 17 -41 23 -49
10z m33 -9 c0 -8 -19 -13 -24 -6 -3 5 1 9 9 9 8 0 15 -2 15 -3z"/>
<path d="M157 367 c-8 -21 2 -27 28 -16 16 6 16 8 3 8 -9 1 -18 6 -20 13 -3 8
-7 6 -11 -5z"/>
<path d="M460 635 c0 -7 30 -13 34 -7 3 4 -4 9 -15 9 -10 1 -19 0 -19 -2z"/>
<path d="M550 585 c0 -8 2 -15 4 -15 2 0 11 -3 20 -6 23 -9 20 9 -4 24 -17 10
-20 10 -20 -3z"/>
<path d="M550 534 c0 -14 3 -15 18 -3 9 7 19 15 21 16 2 2 -5 3 -17 3 -14 0
-22 -6 -22 -16z"/>
<path d="M1776 769 c-14 -17 -26 -35 -26 -40 0 -5 -108 -9 -260 -9 l-260 0 0
-37 0 -38 -16 30 c-8 16 -21 33 -27 37 -7 4 -69 8 -139 8 l-128 0 0 -102 c0
-113 -7 -151 -24 -145 -7 2 -13 48 -16 123 l-5 119 -67 3 -68 3 0 -171 c0 -98
4 -180 10 -191 19 -34 64 -49 150 -49 73 0 114 10 131 33 3 5 9 -1 12 -13 5
-19 11 -21 69 -18 61 3 63 4 66 32 l4 29 19 -32 19 -31 130 0 130 0 0 135 c0
128 1 135 20 135 19 0 20 -7 20 -135 l0 -136 68 3 67 3 3 133 c2 107 5 132 17
132 12 0 15 -25 17 -132 l3 -133 128 -3 c82 -2 127 1 127 8 0 5 7 10 15 10 8
0 15 -4 15 -10 0 -6 60 -10 160 -10 l160 0 0 38 0 37 16 -30 c8 -16 21 -33 27
-37 7 -4 67 -8 135 -8 117 0 122 1 122 21 l0 20 29 -20 c26 -19 44 -21 168
-21 l140 0 12 40 c6 22 18 40 25 40 13 0 36 -41 36 -65 0 -12 15 -15 70 -15
l70 0 0 69 c0 42 -6 84 -17 107 -9 22 -31 82 -48 134 l-33 95 -71 3 -71 3 -14
-33 c-8 -18 -15 -26 -15 -16 -3 61 -250 66 -274 6 -3 -7 -6 -1 -6 15 l-1 27
-125 0 -125 0 0 -32 0 -33 -20 32 -19 32 -157 0 c-93 0 -164 -4 -176 -10 -26
-14 -38 2 -38 54 l0 37 -69 0 c-65 0 -71 -2 -95 -31z m142 -29 c-2 -22 0 -40
4 -40 5 0 8 -13 8 -30 0 -16 -4 -30 -9 -30 -13 0 -30 54 -27 84 2 17 -2 26
-10 26 -8 0 -14 -7 -14 -15 0 -8 4 -15 9 -15 4 0 7 -12 5 -27 -5 -47 5 -71 27
-66 10 3 19 1 19 -5 0 -12 -34 -22 -81 -22 -28 0 -38 -5 -42 -20 -5 -18 0 -20
54 -20 52 0 59 2 59 20 0 14 5 18 16 13 9 -3 14 -13 11 -24 -3 -11 -1 -19 4
-19 5 0 9 9 9 20 0 11 7 20 15 20 9 0 15 9 15 25 0 14 5 25 11 25 7 0 9 -11 6
-30 -5 -23 -3 -30 9 -30 8 0 13 4 10 8 -2 4 0 14 6 22 8 12 9 12 4 -2 -3 -10
-1 -18 4 -18 4 0 2 -14 -7 -31 -20 -40 -10 -94 22 -115 22 -14 26 -14 47 0 12
9 35 16 50 16 27 0 28 2 28 55 0 53 -1 55 -28 55 -15 0 -37 7 -49 15 -12 9
-27 14 -34 13 -6 -2 -14 3 -16 11 -4 9 0 11 16 6 11 -3 21 -2 21 3 0 5 -9 12
-20 15 -12 3 -20 14 -20 26 0 22 -19 30 -21 9 0 -10 -2 -10 -6 0 -2 6 -9 12
-14 12 -4 0 -5 -7 -2 -17 4 -11 3 -14 -5 -9 -7 4 -19 0 -28 -8 -20 -20 -40
-10 -23 11 34 40 151 59 201 32 14 -8 23 -8 31 0 6 6 33 11 59 11 44 0 49 -3
71 -37 12 -21 29 -51 37 -68 15 -30 15 -29 18 38 l3 68 47 -3 47 -3 3 -174 c3
-192 3 -191 -60 -191 -43 0 -57 12 -95 82 l-28 52 -3 -67 -3 -67 -49 0 c-37 0
-50 4 -50 14 0 10 8 13 25 10 18 -3 25 0 25 11 0 9 -9 15 -26 15 -14 0 -23 4
-20 9 3 4 -7 6 -22 2 -25 -5 -26 -6 -4 -9 13 -2 21 -9 19 -15 -3 -7 -10 -11
-16 -9 -7 1 -10 -2 -7 -7 3 -5 -1 -12 -10 -15 -24 -9 -142 -7 -148 3 -3 5 2 8
11 7 10 0 18 7 20 19 1 12 0 14 -3 4 -6 -20 -58 -23 -74 -3 -7 7 -9 22 -6 31
6 14 9 15 16 3 8 -13 40 -24 40 -14 0 8 -34 58 -49 74 -13 13 -14 13 -8 -2 3
-10 2 -18 -3 -18 -6 0 -10 -25 -10 -55 l0 -56 -107 3 -108 3 -3 133 -3 132
-34 0 -34 0 -3 -132 -3 -133 -47 -3 -48 -3 0 135 0 136 -29 0 c-28 0 -30 3
-33 43 -2 23 -7 41 -12 39 -6 -1 -9 -76 -7 -178 l3 -175 -49 3 -48 3 0 180 0
180 203 3 c111 1 202 6 202 11 0 5 12 23 26 40 22 27 32 31 76 31 l50 0 -4
-40z m-1060 -160 c2 -88 6 -118 19 -132 43 -47 63 -1 63 142 l0 110 50 0 50 0
0 -145 c0 -87 -4 -145 -10 -145 -5 0 -7 -6 -5 -12 5 -16 -12 -38 -43 -55 -30
-18 -137 -16 -172 2 -16 8 -34 24 -40 34 -5 11 -10 86 -10 171 l0 151 48 -3
47 -3 3 -115z m315 105 c9 -8 28 -40 44 -71 l28 -56 3 71 3 71 45 0 44 0 -2
-182 -3 -183 -46 -3 c-51 -3 -54 -1 -94 76 -15 29 -29 52 -30 50 -2 -2 -5 -30
-7 -63 l-4 -60 -45 0 -44 0 -3 170 c-1 93 0 175 2 182 7 18 91 17 109 -2z
m1408 -57 c1 -69 2 -71 11 -35 11 41 39 77 75 95 31 17 129 15 164 -4 28 -14
30 -19 27 -62 -3 -41 -6 -47 -28 -51 -14 -1 -39 5 -57 14 -29 16 -33 16 -48 1
-24 -23 -36 -73 -24 -102 14 -38 37 -57 57 -48 9 4 20 6 25 6 4 -1 7 3 7 8 0
6 11 10 24 10 16 0 27 7 31 21 5 15 10 18 18 10 6 -6 16 -11 22 -11 5 0 2 5
-7 11 -20 11 -23 30 -9 57 5 9 21 46 34 82 l25 65 52 0 52 0 32 -95 c18 -52
40 -112 49 -134 10 -21 17 -60 17 -87 l0 -49 -50 0 c-37 0 -50 4 -50 15 0 35
-23 65 -51 65 -33 0 -59 9 -59 21 0 5 28 9 61 9 48 0 59 -3 51 -13 -7 -8 -6
-18 4 -31 13 -18 14 -17 14 16 0 42 -6 45 -86 40 -38 -3 -54 -8 -54 -18 0 -8
-7 -14 -15 -14 -11 0 -14 7 -9 25 5 21 3 24 -12 19 -11 -4 -26 -13 -35 -21 -9
-7 -19 -10 -22 -6 -4 3 -7 1 -7 -5 0 -7 7 -13 15 -13 8 -1 20 -3 25 -4 6 -1
17 -3 25 -4 11 -1 14 -8 9 -27 -6 -25 -5 -25 16 -14 16 9 19 14 11 20 -9 5 -6
9 8 13 24 6 25 4 9 -40 -11 -31 -15 -33 -59 -33 -39 0 -49 4 -54 20 -3 11 -3
25 1 31 5 9 0 10 -17 5 -13 -4 -36 -7 -51 -7 -15 1 -29 -3 -33 -9 -4 -6 7 -10
27 -10 18 0 42 -7 52 -15 18 -14 13 -15 -52 -15 -61 0 -75 3 -99 25 -25 22
-26 25 -8 26 11 1 23 1 28 0 14 -2 7 19 -13 39 -12 12 -25 18 -30 15 -15 -9
-12 -25 4 -25 8 0 18 -4 21 -10 4 -6 -4 -9 -17 -7 -15 1 -27 12 -35 32 -11 28
-12 26 -12 -32 l-1 -63 -50 0 -50 0 0 185 0 185 50 0 50 0 1 -72z m-447 -78
c23 0 26 -4 26 -35 0 -31 -3 -35 -26 -35 -14 0 -34 -4 -44 -10 -22 -12 -42 9
-42 45 0 36 20 57 42 45 10 -6 30 -10 44 -10z m705 -6 c2 -2 -2 -16 -8 -33
-10 -23 -21 -30 -53 -35 -43 -7 -58 2 -58 36 0 42 10 49 64 42 28 -4 53 -8 55
-10z m31 -108 c0 -2 -7 -7 -16 -10 -8 -3 -12 -2 -9 4 6 10 25 14 25 6z"/>
<path d="M1809 725 c-1 -3 -3 -9 -4 -15 -1 -5 -3 -14 -4 -20 0 -5 -8 -10 -16
-10 -8 0 -15 -5 -15 -11 0 -7 7 -8 18 -4 9 4 27 10 39 12 12 3 24 12 28 20 5
13 3 14 -11 3 -13 -12 -17 -11 -24 0 -6 9 -4 17 3 22 9 6 9 8 0 8 -7 0 -14 -2
-14 -5z"/>
<path d="M2110 665 c17 -20 30 -19 30 3 0 14 -2 15 -10 2 -6 -10 -10 -11 -10
-2 0 6 -5 12 -11 12 -8 0 -8 -5 1 -15z"/>
<path d="M2196 673 c-4 -4 -13 -8 -19 -8 -19 0 -20 -20 -1 -24 10 -2 22 3 28
11 6 8 18 17 26 21 11 4 9 6 -6 6 -11 1 -24 -2 -28 -6z"/>
<path d="M2434 515 c0 -77 2 -107 3 -67 2 40 2 103 0 140 -2 37 -3 4 -3 -73z"/>
<path d="M2286 632 c-2 -4 -2 -12 2 -17 10 -14 32 -17 32 -5 0 6 -7 10 -16 10
-8 0 -12 5 -9 10 3 6 4 10 1 10 -3 0 -7 -4 -10 -8z"/>
<path d="M2110 621 c0 -24 13 -38 31 -34 29 8 25 43 -6 43 -14 0 -25 -4 -25
-9z"/>
<path d="M2001 554 c0 -11 3 -14 6 -6 3 7 2 16 -1 19 -3 4 -6 -2 -5 -13z"/>
<path d="M2260 560 c-12 -7 -10 -11 10 -19 18 -7 20 -10 8 -10 -10 -1 -18 -5
-18 -10 0 -5 11 -8 25 -7 29 1 32 17 9 40 -18 19 -15 18 -34 6z"/>
<path d="M2360 539 c0 -6 -7 -9 -15 -5 -17 6 -20 -11 -6 -33 5 -8 16 -11 25
-8 9 4 16 1 16 -5 0 -6 3 -9 6 -5 9 8 -6 67 -17 67 -5 0 -9 -5 -9 -11z"/>
<path d="M1980 485 c0 -17 6 -25 17 -25 13 0 14 3 6 11 -6 6 -9 18 -6 25 3 8
0 14 -6 14 -6 0 -11 -11 -11 -25z"/>
<path d="M1810 455 c0 -24 3 -25 55 -25 52 0 55 1 55 25 0 24 -3 25 -55 25
-52 0 -55 -1 -55 -25z m78 -2 c-10 -2 -28 -2 -40 0 -13 2 -5 4 17 4 22 1 32
-1 23 -4z"/>
<path d="M2311 446 c7 -14 17 -22 25 -19 8 3 14 -1 14 -8 0 -7 2 -10 5 -7 4 3
3 17 -1 32 -4 19 -13 26 -30 26 -21 0 -23 -2 -13 -24z"/>
<path d="M2140 431 c0 -6 5 -13 10 -16 6 -3 10 1 10 9 0 9 -4 16 -10 16 -5 0
-10 -4 -10 -9z"/>
<path d="M2050 399 c0 -5 11 -9 25 -9 33 0 33 15 0 16 -14 1 -25 -2 -25 -7z"/>
<path d="M2371 377 c13 -13 28 -20 33 -16 13 12 -13 39 -37 39 -19 0 -19 -1 4
-23z"/>
<path d="M2045 369 c-4 -5 10 -9 29 -9 19 0 38 -4 41 -10 3 -5 12 -10 18 -10
8 0 7 3 -2 9 -7 5 -11 13 -7 19 3 6 -10 10 -34 10 -22 0 -42 -3 -45 -9z"/>
<path d="M946 434 c-4 -9 -4 -19 -1 -22 2 -3 7 3 11 12 4 9 4 19 1 22 -2 3 -7
-3 -11 -12z"/>
<path d="M990 410 c0 -16 4 -30 9 -30 5 0 7 9 4 21 -4 12 0 25 8 30 11 7 10 9
-3 9 -13 0 -18 -8 -18 -30z"/>
<path d="M795 390 c3 -5 11 -10 16 -10 6 0 7 5 4 10 -3 6 -11 10 -16 10 -6 0
-7 -4 -4 -10z"/>
<path d="M1200 580 c-9 -6 -10 -10 -3 -10 6 0 15 5 18 10 8 12 4 12 -15 0z"/>
<path d="M1176 484 c-5 -14 -4 -15 9 -4 13 11 15 9 16 -11 0 -22 1 -23 9 -4
13 30 12 35 -9 35 -10 0 -22 -7 -25 -16z"/>
<path d="M1113 370 c-1 -11 2 -20 8 -20 5 0 9 9 9 20 0 11 -4 20 -8 20 -4 0
-8 -9 -9 -20z"/>
<path d="M1290 380 c0 -5 7 -10 15 -10 8 0 15 5 15 10 0 6 -7 10 -15 10 -8 0
-15 -4 -15 -10z"/>
<path d="M2700 669 c0 -5 -4 -7 -10 -4 -5 3 -10 1 -10 -4 0 -6 9 -11 20 -11
11 0 20 7 20 15 0 8 -4 15 -10 15 -5 0 -10 -5 -10 -11z"/>
<path d="M2766 666 c3 -8 16 -17 30 -20 29 -8 32 -26 4 -26 -14 0 -18 -5 -13
-16 4 -11 8 -12 13 -4 5 8 10 6 15 -7 6 -17 8 -17 15 3 11 28 6 60 -9 57 -6
-2 -11 2 -11 8 0 5 -4 7 -10 4 -5 -3 -10 -1 -10 4 0 6 -7 11 -15 11 -8 0 -12
-6 -9 -14z"/>
<path d="M2945 670 c-3 -5 -1 -10 4 -10 6 0 11 5 11 10 0 6 -2 10 -4 10 -3 0
-8 -4 -11 -10z"/>
<path d="M2991 674 c11 -3 15 -13 11 -29 -4 -25 11 -34 23 -15 3 6 2 10 -3 10
-6 0 -9 8 -8 17 0 10 -7 18 -19 20 -12 1 -14 0 -4 -3z"/>
<path d="M2641 639 c-13 -10 -17 -19 -10 -19 8 0 5 -6 -7 -15 -19 -14 -18 -14
4 -15 15 0 22 6 22 18 0 10 5 23 12 30 20 20 4 21 -21 1z"/>
<path d="M2730 620 c0 -5 7 -10 15 -10 8 0 15 5 15 10 0 6 -7 10 -15 10 -8 0
-15 -4 -15 -10z"/>
<path d="M2925 620 c3 -5 8 -10 11 -10 2 0 4 5 4 10 0 6 -5 10 -11 10 -5 0 -7
-4 -4 -10z"/>
<path d="M2670 600 c0 -11 5 -20 10 -20 6 0 9 6 8 13 -2 6 3 11 10 9 8 -1 11
2 7 8 -11 18 -35 11 -35 -10z"/>
<path d="M2919 593 c-1 -5 -1 -11 0 -15 0 -5 -3 -8 -7 -8 -5 0 -9 -6 -9 -14 0
-8 6 -12 14 -9 7 3 13 9 13 13 0 5 3 15 6 24 3 9 1 16 -5 16 -6 0 -12 -3 -12
-7z"/>
<path d="M2960 578 c0 -11 12 -10 30 2 12 7 10 9 -8 7 -12 0 -22 -5 -22 -9z"/>
<path d="M3031 568 c0 -22 16 -68 19 -58 8 28 8 50 0 50 -5 0 -7 7 -4 15 4 8
1 15 -5 15 -6 0 -11 -10 -10 -22z"/>
<path d="M2665 560 c3 -5 8 -10 11 -10 2 0 4 5 4 10 0 6 -5 10 -11 10 -5 0 -7
-4 -4 -10z"/>
<path d="M2968 553 c6 -2 18 -2 25 0 6 3 1 5 -13 5 -14 0 -19 -2 -12 -5z"/>
<path d="M2647 533 c-4 -3 -7 -17 -7 -30 0 -23 23 -32 35 -13 3 6 1 10 -4 10
-15 0 -14 27 2 33 8 4 6 6 -4 6 -9 1 -19 -2 -22 -6z"/>
<path d="M2948 534 c-10 -10 4 -44 18 -44 8 0 17 0 21 0 5 0 9 11 10 25 1 20
-3 25 -21 25 -12 0 -25 -3 -28 -6z"/>
<path d="M3070 469 c0 -5 5 -7 10 -4 6 3 10 8 10 11 0 2 -4 4 -10 4 -5 0 -10
-5 -10 -11z"/>
<path d="M3076 428 c8 -27 27 -42 33 -27 2 6 -3 15 -10 20 -12 7 -11 9 1 9 13
0 13 1 0 10 -24 16 -32 12 -24 -12z"/>
<path d="M2675 369 c-5 -8 -4 -10 3 -5 7 4 12 3 12 -3 0 -5 -6 -12 -12 -14
-10 -4 -10 -6 -1 -6 17 -1 27 19 15 31 -6 6 -12 6 -17 -3z"/>
</g>
</svg>
