<?xml version="1.0" standalone="no"?>
<!DOCTYPE svg PUBLIC "-//W3C//DTD SVG 20010904//EN"
 "http://www.w3.org/TR/2001/REC-SVG-20010904/DTD/svg10.dtd">
<svg version="1.0" xmlns="http://www.w3.org/2000/svg"
 width="192.000000pt" height="192.000000pt" viewBox="0 0 192.000000 192.000000"
 preserveAspectRatio="xMidYMid meet">
<metadata>
Created by potrace 1.16, written by Peter Selinger 2001-2019
</metadata>
<g transform="translate(0.000000,192.000000) scale(0.100000,-0.100000)"
fill="#000000" stroke="none">
<path d="M0 1870 c0 -54 10 -77 53 -123 15 -17 27 -34 27 -38 0 -8 20 -36 48
-64 6 -8 12 -16 12 -20 0 -3 11 -18 25 -33 14 -15 25 -31 25 -37 0 -6 9 -17
20 -25 11 -8 20 -19 20 -25 0 -10 24 -41 75 -98 14 -15 25 -32 25 -37 0 -6 5
-10 10 -10 6 0 10 -5 10 -11 0 -6 6 -16 13 -23 6 -8 19 -24 27 -36 14 -20 36
-49 60 -77 5 -7 10 -17 10 -23 0 -5 4 -10 8 -10 4 0 16 -14 26 -30 9 -17 28
-41 42 -55 13 -13 24 -28 24 -33 0 -5 14 -23 30 -40 17 -18 30 -36 30 -41 0
-5 6 -12 12 -14 10 -4 10 -6 1 -6 -7 -1 -13 -7 -13 -13 0 -7 -14 -27 -30 -45
-17 -18 -30 -36 -30 -41 0 -5 -13 -23 -30 -40 -16 -18 -30 -34 -30 -37 0 -3
-9 -16 -21 -28 -12 -12 -33 -40 -47 -62 -14 -22 -28 -42 -32 -45 -4 -3 -13
-15 -19 -28 -14 -27 -36 -54 -69 -89 -12 -13 -22 -27 -22 -32 0 -4 -8 -16 -18
-27 -10 -10 -29 -35 -42 -54 -13 -19 -32 -44 -42 -54 -10 -11 -20 -28 -24 -38
-3 -10 -10 -18 -15 -18 -5 0 -9 -5 -9 -11 0 -6 -6 -16 -13 -24 -19 -20 -40
-47 -67 -85 -13 -19 -27 -37 -31 -40 -17 -14 -29 -54 -29 -99 l0 -51 289 0
289 0 18 28 c9 15 26 34 36 43 10 9 18 21 18 28 0 6 5 11 10 11 6 0 10 6 10
13 0 7 9 19 20 27 11 8 20 20 20 27 0 7 3 13 8 13 4 0 18 17 32 38 14 20 27
39 31 42 3 3 14 21 25 40 10 19 28 44 39 56 11 12 39 47 63 78 24 31 49 56 55
56 7 0 22 -16 35 -35 12 -19 27 -35 32 -35 6 0 10 -6 10 -14 0 -7 12 -26 28
-43 15 -16 36 -45 46 -64 11 -18 22 -36 25 -39 4 -3 17 -22 31 -42 14 -21 28
-38 33 -38 4 0 7 -6 7 -13 0 -7 9 -19 20 -27 11 -8 20 -20 20 -27 0 -7 5 -13
10 -13 6 0 10 -6 10 -13 0 -7 9 -19 20 -27 11 -8 20 -20 20 -28 0 -40 18 -42
319 -42 l291 0 0 51 c0 45 -12 85 -29 99 -4 3 -18 21 -31 40 -27 38 -48 65
-67 85 -7 8 -13 18 -13 24 0 6 -4 11 -9 11 -5 0 -12 8 -15 18 -4 10 -14 27
-24 38 -10 10 -28 35 -42 54 -13 19 -27 37 -30 40 -3 3 -21 25 -40 50 -19 25
-38 47 -42 48 -4 2 -8 8 -8 13 0 6 -5 15 -10 22 -22 26 -140 188 -140 193 0 2
-14 18 -30 36 -16 17 -30 35 -30 41 0 5 -13 22 -29 38 -43 41 -46 61 -14 100
15 19 31 36 35 37 5 2 8 9 8 16 0 7 14 27 30 44 16 18 30 36 30 41 0 5 4 11 8
13 4 2 33 39 64 83 32 44 62 85 68 92 5 7 10 16 10 22 0 5 4 11 8 13 4 2 23
23 42 48 19 25 37 47 40 50 3 3 17 21 30 40 13 19 27 37 30 40 4 3 15 20 25
38 11 17 23 32 27 32 4 0 8 5 8 11 0 6 6 16 13 24 27 28 47 56 47 64 0 4 13
22 29 38 42 45 51 66 51 122 l0 51 -293 0 -294 0 -14 -27 c-8 -16 -22 -35 -31
-44 -10 -9 -18 -21 -18 -28 0 -6 -4 -11 -10 -11 -5 0 -10 -6 -10 -13 0 -7 -9
-19 -20 -27 -11 -8 -20 -20 -20 -27 0 -7 -3 -13 -7 -13 -5 0 -19 -17 -33 -38
-24 -35 -29 -42 -58 -76 -6 -8 -12 -19 -12 -24 0 -4 -8 -17 -17 -28 -10 -10
-30 -35 -44 -54 -15 -19 -39 -48 -53 -65 l-26 -30 -40 44 c-22 24 -40 47 -40
51 0 4 -12 20 -27 37 -16 16 -37 45 -47 64 -11 18 -22 36 -25 39 -4 3 -17 22
-31 42 -14 21 -28 38 -32 38 -5 0 -8 6 -8 13 0 7 -9 19 -20 27 -11 8 -20 20
-20 27 0 7 -4 13 -10 13 -5 0 -10 5 -10 11 0 7 -8 19 -18 28 -9 9 -23 28 -31
44 l-14 27 -294 0 -293 0 0 -50z m581 3 c8 -16 22 -35 31 -44 10 -9 18 -21 18
-28 0 -6 5 -11 10 -11 6 0 10 -6 10 -13 0 -7 9 -19 20 -27 11 -8 20 -20 20
-27 0 -7 3 -13 8 -13 4 0 18 -17 32 -38 14 -20 27 -39 31 -42 3 -3 14 -21 25
-39 10 -19 31 -48 47 -64 15 -17 27 -34 27 -38 0 -5 20 -29 44 -54 58 -59 73
-54 155 55 14 19 34 44 44 54 9 11 17 24 17 28 0 5 6 16 12 24 29 34 34 41 58
76 14 21 28 38 33 38 4 0 7 6 7 13 0 7 9 19 20 27 11 8 20 20 20 27 0 7 5 13
10 13 6 0 10 5 10 11 0 7 8 19 18 28 9 9 23 28 31 44 l14 27 273 0 c175 0 275
-4 279 -10 11 -18 -15 -77 -51 -116 -19 -21 -34 -42 -34 -47 0 -4 -6 -14 -12
-22 -29 -30 -48 -56 -48 -65 0 -6 -4 -10 -8 -10 -4 0 -16 -15 -27 -32 -10 -18
-21 -35 -25 -38 -3 -3 -17 -21 -30 -40 -13 -19 -27 -37 -30 -40 -3 -3 -21 -25
-40 -50 -19 -25 -38 -46 -42 -48 -4 -2 -8 -8 -8 -13 0 -6 -5 -15 -10 -22 -6
-7 -36 -48 -68 -92 -31 -44 -60 -81 -64 -83 -4 -2 -8 -8 -8 -13 0 -5 -14 -23
-30 -41 -16 -17 -30 -35 -30 -40 0 -5 -13 -23 -29 -40 -48 -52 -57 -74 -40
-105 8 -15 26 -39 42 -54 15 -14 27 -31 27 -36 0 -6 13 -24 30 -41 16 -18 30
-34 30 -36 0 -5 118 -167 140 -193 5 -7 10 -16 10 -22 0 -5 4 -11 8 -13 4 -1
23 -23 42 -48 19 -25 37 -47 40 -50 3 -3 17 -21 30 -40 14 -19 32 -44 42 -54
10 -11 20 -28 24 -38 3 -10 10 -18 15 -18 5 0 9 -4 9 -10 0 -9 7 -18 53 -73
10 -12 26 -34 35 -49 9 -16 19 -28 23 -28 3 0 14 -18 24 -39 32 -73 39 -71
-265 -71 -281 0 -300 3 -300 42 0 8 -9 20 -20 28 -11 8 -20 20 -20 27 0 7 -4
13 -10 13 -5 0 -10 6 -10 13 0 7 -9 19 -20 27 -11 8 -20 20 -20 27 0 7 -3 13
-7 13 -5 0 -19 17 -33 38 -14 20 -27 39 -31 42 -3 3 -14 21 -25 39 -10 19 -31
48 -46 64 -16 17 -28 36 -28 43 0 8 -4 14 -10 14 -5 0 -20 15 -32 34 -12 19
-30 39 -40 45 -22 14 -42 -2 -101 -79 -23 -30 -49 -62 -57 -70 -8 -8 -24 -31
-34 -50 -11 -19 -22 -37 -25 -40 -4 -3 -17 -22 -31 -42 -14 -21 -28 -38 -32
-38 -5 0 -8 -6 -8 -13 0 -7 -9 -19 -20 -27 -11 -8 -20 -20 -20 -27 0 -7 -4
-13 -10 -13 -5 0 -10 -5 -10 -11 0 -7 -8 -19 -18 -28 -10 -9 -27 -28 -36 -44
l-18 -27 -269 0 c-180 0 -270 4 -274 11 -8 12 22 99 34 99 4 0 14 12 23 28 9
15 25 37 35 49 46 55 53 64 53 73 0 6 4 10 9 10 5 0 12 8 15 18 4 10 14 27 24
38 10 10 29 35 42 54 13 19 32 44 42 54 10 11 18 23 18 27 0 5 10 19 22 32 33
35 55 62 69 89 6 13 15 25 19 28 4 3 18 23 32 45 14 22 35 50 47 62 12 12 21
25 21 28 0 3 14 19 30 37 17 17 30 35 30 40 0 5 13 23 30 41 16 18 30 38 30
45 0 6 5 12 10 12 6 0 10 11 10 25 0 14 -4 25 -10 25 -5 0 -10 5 -10 10 0 6
-13 24 -30 42 -16 17 -30 35 -30 40 0 5 -11 20 -24 33 -14 14 -33 38 -42 55
-10 16 -22 30 -26 30 -4 0 -8 5 -8 10 0 6 -5 16 -10 23 -24 28 -46 57 -60 77
-8 12 -21 28 -27 36 -7 7 -13 17 -13 23 0 6 -4 11 -10 11 -5 0 -10 4 -10 10 0
5 -11 22 -25 37 -51 57 -75 88 -75 98 0 6 -9 17 -20 25 -11 8 -20 19 -20 25 0
6 -11 22 -25 37 -14 15 -25 30 -25 33 0 4 -6 12 -12 20 -28 28 -48 56 -48 64
0 4 -12 21 -27 38 -40 42 -53 68 -53 103 l0 30 273 0 274 0 14 -27z"/>
<path d="M865 1390 c-8 -36 -16 -21 120 -205 130 -176 151 -195 211 -195 36 0
74 18 74 35 0 2 -24 1 -54 -2 -52 -5 -56 -4 -88 28 -19 19 -61 72 -93 119 -33
47 -62 87 -65 90 -4 3 -21 26 -39 53 -17 26 -36 47 -41 47 -5 0 -7 14 -3 30 7
40 -13 40 -22 0z"/>
<path d="M680 976 c0 -2 9 -6 20 -9 11 -3 20 -1 20 4 0 5 -9 9 -20 9 -11 0
-20 -2 -20 -4z"/>
<path d="M1185 934 c-8 -8 -15 -19 -15 -24 0 -14 18 -21 25 -10 3 5 11 10 16
10 6 0 7 -4 4 -10 -3 -5 -3 -10 2 -10 4 0 14 -14 21 -30 8 -17 18 -28 23 -24
5 3 9 -1 9 -9 0 -8 14 -29 30 -47 17 -18 30 -34 30 -36 0 -6 72 -106 92 -128
10 -11 18 -26 18 -33 0 -7 5 -13 10 -13 6 0 10 -5 10 -11 0 -7 8 -19 18 -28 9
-9 33 -40 52 -68 19 -29 38 -53 43 -53 4 0 7 -7 7 -15 0 -9 7 -18 15 -21 8 -4
15 -10 15 -15 0 -13 103 -149 112 -149 5 0 8 -5 8 -10 0 -19 43 -69 53 -63 6
3 7 1 3 -5 -3 -6 -1 -16 6 -24 7 -7 19 -25 27 -41 19 -35 51 -37 51 -1 0 14
-4 23 -10 19 -5 -3 -10 1 -10 10 0 9 -4 13 -10 10 -5 -3 -10 3 -10 14 0 12 -4
21 -10 21 -5 0 -9 3 -9 8 3 19 -2 25 -11 12 -8 -12 -10 -10 -10 8 0 13 -4 20
-10 17 -5 -3 -10 3 -10 15 0 14 -4 19 -12 14 -8 -5 -9 -2 -5 10 6 14 3 17 -9
12 -12 -4 -14 -1 -9 14 7 22 -10 28 -19 8 -4 -7 -4 -3 -2 10 3 14 -1 22 -10
22 -8 0 -11 6 -8 15 5 11 2 13 -10 9 -12 -5 -15 -2 -10 10 4 11 1 16 -11 16
-11 0 -15 5 -11 15 3 8 1 15 -4 15 -6 0 -10 7 -10 16 0 8 -4 12 -10 9 -5 -3
-10 1 -10 10 0 9 -4 13 -10 10 -5 -3 -10 3 -10 15 0 12 -4 18 -10 15 -6 -3
-10 4 -10 17 0 18 -2 20 -10 8 -8 -12 -10 -10 -10 10 0 20 -2 22 -10 10 -8
-12 -10 -10 -10 8 0 15 -4 21 -12 16 -8 -5 -9 0 -6 14 6 23 -7 31 -15 10 -3
-7 -6 -3 -6 10 -1 15 -5 21 -13 16 -8 -5 -9 0 -6 14 4 15 2 22 -8 22 -8 0 -11
6 -7 17 5 13 2 15 -11 10 -13 -5 -17 -3 -13 7 3 8 -1 17 -9 20 -9 3 -12 10 -9
16 3 5 0 7 -9 4 -11 -4 -13 0 -9 14 3 14 -1 22 -16 27 -12 4 -21 15 -21 26 0
11 -4 17 -10 14 -5 -3 -10 1 -10 10 0 9 -4 13 -10 10 -6 -3 -10 4 -11 17 0 13
-3 17 -6 11 -9 -25 -23 -13 -13 12 7 19 6 23 -5 18 -10 -3 -15 1 -15 12 0 9
-4 13 -10 10 -5 -3 -10 -1 -10 5 0 7 -6 10 -13 7 -10 -4 -13 2 -9 20 4 20 2
24 -8 18 -9 -6 -12 -4 -8 7 4 8 -2 19 -13 26 -14 9 -21 8 -34 -4z"/>
<path d="M1144 878 c-3 -12 -15 -31 -25 -42 -11 -11 -19 -28 -19 -38 0 -11 -4
-17 -9 -13 -5 3 -20 -9 -32 -27 -13 -18 -32 -42 -41 -53 -10 -10 -16 -25 -14
-32 3 -7 -1 -10 -10 -6 -7 3 -14 1 -14 -4 0 -5 -16 -28 -35 -50 -38 -45 -44
-63 -19 -63 8 0 13 4 10 9 -6 10 63 23 77 14 5 -3 3 -10 -4 -15 -10 -7 -9 -9
7 -5 17 4 20 0 16 -21 -5 -25 -5 -25 15 -6 24 23 15 38 -33 56 -39 14 -42 25
-14 61 11 14 20 30 20 35 0 5 7 12 15 16 8 3 15 12 15 20 0 7 7 16 15 20 8 3
15 12 15 20 0 7 7 16 15 20 8 3 15 12 15 21 0 8 3 15 8 15 10 0 52 63 52 78 0
20 -18 13 -26 -10z"/>
<path d="M805 863 c40 -50 56 -67 49 -53 -14 28 -48 70 -56 70 -4 0 -1 -8 7
-17z"/>
<path d="M871 788 c-1 -9 4 -20 9 -23 6 -4 8 -10 6 -14 -3 -4 10 -23 29 -41
28 -27 33 -29 28 -12 -3 12 -8 20 -12 18 -8 -5 -25 15 -29 34 -2 8 -7 17 -11
20 -5 3 -11 12 -14 20 -4 12 -6 12 -6 -2z"/>
<path d="M1057 523 c-4 -3 -7 -16 -6 -27 0 -12 3 -15 6 -8 2 6 9 12 14 12 4 0
5 -7 2 -17 -4 -11 -3 -14 5 -9 8 5 12 -2 12 -20 0 -15 3 -25 6 -21 11 11 44
-35 49 -68 0 -5 6 -9 13 -8 7 2 9 -4 5 -14 -4 -11 -3 -14 5 -9 18 11 39 -16
35 -42 -2 -14 1 -21 7 -17 5 3 10 -1 10 -10 0 -11 5 -15 14 -12 11 4 13 1 9
-10 -4 -11 -2 -14 5 -9 8 5 12 0 12 -14 0 -12 5 -18 10 -15 6 3 10 -1 10 -10
0 -9 5 -13 10 -10 6 3 10 -3 10 -14 0 -12 5 -21 10 -21 6 0 10 -7 10 -16 0 -8
5 -12 10 -9 6 3 10 -1 10 -9 0 -9 5 -16 11 -16 6 0 8 -9 3 -22 -6 -20 -5 -21
10 -9 14 12 16 11 16 -9 0 -18 3 -20 14 -11 11 9 15 9 19 -1 4 -9 6 -8 6 3 1
14 -31 64 -50 79 -3 3 -11 15 -18 28 -7 12 -16 20 -21 17 -6 -3 -8 0 -5 7 3 7
-15 36 -40 63 -24 28 -45 55 -45 60 0 6 -11 22 -24 36 -13 14 -29 35 -35 47
-7 13 -16 20 -22 17 -5 -4 -9 3 -9 14 0 12 -5 21 -11 21 -5 0 -7 5 -4 10 3 6
1 10 -5 10 -6 0 -20 16 -31 35 -21 35 -30 41 -42 28z"/>
</g>
</svg>
