<?xml version="1.0" standalone="no"?>
<!DOCTYPE svg PUBLIC "-//W3C//DTD SVG 20010904//EN"
 "http://www.w3.org/TR/2001/REC-SVG-20010904/DTD/svg10.dtd">
<svg version="1.0" xmlns="http://www.w3.org/2000/svg"
 width="180.000000pt" height="180.000000pt" viewBox="0 0 180.000000 180.000000"
 preserveAspectRatio="xMidYMid meet">
<metadata>
Created by potrace 1.16, written by Peter Selinger 2001-2019
</metadata>
<g transform="translate(0.000000,180.000000) scale(0.100000,-0.100000)"
fill="#000000" stroke="none">
<path d="M349 1035 l76 -215 49 2 49 3 70 178 70 178 436 -1 436 -1 3 35 3 36
-474 0 -474 0 -59 -150 -58 -150 -48 138 c-26 75 -48 143 -48 150 0 8 -17 12
-53 12 l-54 0 76 -215z m4 183 c2 -7 26 -73 52 -146 45 -126 49 -133 73 -130
23 3 31 18 81 146 l56 142 447 0 c390 0 448 -2 448 -15 0 -13 -58 -15 -436
-17 l-437 -3 -69 -178 c-67 -170 -71 -178 -96 -175 -21 3 -29 13 -48 68 -12
36 -42 122 -67 193 -41 114 -44 127 -28 127 11 0 21 -6 24 -12z"/>
<path d="M950 970 l0 -155 40 0 40 0 0 79 0 79 56 -77 c53 -73 57 -76 95 -76
l40 0 -3 151 -3 151 -44 2 -43 2 4 -83 c2 -46 1 -83 -4 -83 -4 0 -8 4 -8 8 0
4 -20 41 -44 81 -43 72 -45 74 -85 75 l-41 1 0 -155z m110 50 c37 -59 53 -76
73 -78 l27 -3 0 80 c0 65 3 81 15 81 13 0 15 -21 15 -130 0 -103 -3 -130 -14
-130 -7 0 -37 34 -67 75 -40 56 -59 75 -76 75 -22 0 -23 -4 -23 -75 0 -60 -3
-75 -15 -75 -13 0 -15 21 -15 131 0 158 8 163 80 49z"/>
<path d="M1312 1110 c-63 -39 -62 -114 3 -144 18 -9 37 -16 42 -16 4 0 25 -5
46 -11 31 -8 38 -14 35 -32 -4 -30 -75 -38 -95 -11 -16 22 -93 29 -93 9 0 -26
52 -75 90 -85 85 -23 166 14 176 80 8 51 -22 84 -94 105 -70 21 -87 32 -71 51
16 20 65 17 81 -3 11 -16 33 -19 81 -14 5 1 0 14 -9 31 -35 58 -129 78 -192
40z m74 -19 c-55 -7 -72 -25 -63 -63 6 -21 18 -28 69 -43 89 -24 111 -49 92
-100 -9 -22 -57 -45 -96 -45 -33 0 -105 36 -94 47 3 3 15 -2 25 -11 48 -43
151 -25 151 27 0 36 -13 47 -79 67 -100 30 -122 60 -76 105 19 20 33 25 72 23
l48 -1 -49 -6z m75 -18 c13 -16 12 -17 -3 -4 -17 13 -22 21 -14 21 2 0 10 -8
17 -17z"/>
<path d="M660 983 c-30 -76 -57 -143 -62 -149 -12 -17 -3 -20 46 -16 37 3 45
8 48 25 3 19 10 22 61 25 53 3 58 1 66 -21 8 -21 18 -26 55 -29 25 -2 46 -3
46 -3 0 0 -25 68 -54 150 l-54 150 -49 3 -49 3 -54 -138z m130 113 c0 -2 20
-60 45 -130 34 -97 41 -126 30 -126 -8 0 -17 11 -21 25 -6 24 -9 25 -85 25
-76 0 -80 -1 -89 -25 -9 -22 -30 -35 -30 -18 0 4 21 62 47 130 45 116 49 123
75 123 16 0 28 -2 28 -4z"/>
<path d="M717 987 c-27 -85 -26 -87 39 -87 l57 0 -6 43 c-8 67 -23 97 -50 97
-19 0 -26 -9 -40 -53z m56 -4 c3 -16 9 -36 12 -45 6 -15 1 -18 -27 -18 l-35 0
16 49 c16 54 25 57 34 14z"/>
<path d="M1514 839 c-10 -17 13 -36 27 -22 12 12 4 33 -11 33 -5 0 -12 -5 -16
-11z"/>
<path d="M50 670 c0 -20 5 -30 15 -30 10 0 15 10 15 30 0 20 -5 30 -15 30 -10
0 -15 -10 -15 -30z"/>
<path d="M93 673 c5 -39 27 -42 27 -4 0 21 -5 31 -15 31 -11 0 -15 -8 -12 -27z"/>
<path d="M165 675 c-14 -13 -25 -33 -25 -45 0 -29 44 -70 75 -70 32 0 75 41
75 73 0 31 -39 67 -74 67 -15 0 -37 -10 -51 -25z m73 -17 c30 -30 0 -78 -37
-58 -32 17 -21 70 14 70 6 0 16 -5 23 -12z"/>
<path d="M310 630 c0 -63 2 -70 20 -70 15 0 20 7 20 25 0 22 4 25 35 25 24 0
35 5 35 15 0 10 -11 15 -35 15 -24 0 -35 5 -35 14 0 11 9 13 35 9 31 -5 35 -3
35 16 0 19 -6 21 -55 21 l-55 0 0 -70z"/>
<path d="M440 630 c0 -63 2 -70 20 -70 15 0 20 7 20 25 0 22 4 25 35 25 24 0
35 5 35 15 0 10 -11 15 -35 15 -24 0 -35 5 -35 15 0 10 10 14 37 12 29 -1 38
2 41 16 3 15 -5 17 -57 17 l-61 0 0 -70z"/>
<path d="M620 679 c0 -16 4 -19 20 -14 18 6 20 2 20 -49 0 -49 2 -56 20 -56
18 0 20 7 20 56 0 51 2 55 20 49 16 -5 20 -2 20 14 0 19 -6 21 -60 21 -54 0
-60 -2 -60 -21z"/>
<path d="M760 630 c0 -63 2 -70 20 -70 15 0 20 7 20 29 0 25 4 29 25 27 20 -1
25 -6 25 -28 0 -21 5 -28 20 -28 18 0 20 7 20 70 0 63 -2 70 -20 70 -15 0 -20
-7 -20 -25 0 -20 -5 -25 -25 -25 -20 0 -25 5 -25 25 0 18 -5 25 -20 25 -18 0
-20 -7 -20 -70z"/>
<path d="M910 630 l0 -70 61 0 c52 0 60 2 57 17 -3 14 -11 17 -41 15 -28 -3
-37 0 -37 12 0 12 10 16 35 16 24 0 35 5 35 14 0 11 -9 13 -35 9 -29 -5 -35
-2 -35 11 0 14 8 17 37 14 30 -2 38 1 41 15 3 15 -5 17 -57 17 l-61 0 0 -70z"/>
<path d="M1104 633 c17 -52 27 -68 42 -68 13 0 22 11 29 39 12 43 19 40 30
-12 5 -26 11 -32 27 -30 14 2 26 21 43 71 l24 67 -24 0 c-19 0 -24 -7 -30 -40
-8 -47 -20 -45 -29 5 -10 52 -41 48 -57 -7 l-13 -43 -9 43 c-8 34 -14 42 -33
42 l-23 0 23 -67z"/>
<path d="M1310 638 c-14 -35 -26 -66 -28 -70 -2 -5 5 -8 16 -8 11 0 22 7 26
15 3 8 17 15 31 15 14 0 28 -7 31 -15 4 -8 15 -15 26 -15 12 0 18 5 15 13 -44
111 -53 127 -72 127 -15 0 -26 -15 -45 -62z m60 -14 c0 -8 -7 -14 -15 -14 -15
0 -21 21 -9 33 10 9 24 -2 24 -19z"/>
<path d="M1450 629 l0 -70 53 3 c38 2 52 7 52 18 0 11 -10 15 -32 14 l-33 -2
0 54 c0 47 -2 54 -20 54 -18 0 -20 -7 -20 -71z"/>
<path d="M1575 630 l0 -70 53 0 c46 0 52 2 52 21 0 19 -4 21 -35 16 l-35 -6 0
55 c0 45 -3 54 -18 54 -15 0 -17 -10 -17 -70z"/>
<path d="M1670 669 c0 -38 22 -35 27 4 3 19 -1 27 -12 27 -10 0 -15 -10 -15
-31z"/>
<path d="M1710 670 c0 -20 5 -30 15 -30 10 0 15 10 15 30 0 20 -5 30 -15 30
-10 0 -15 -10 -15 -30z"/>
</g>
</svg>
