<?xml version="1.0" standalone="no"?>
<!DOCTYPE svg PUBLIC "-//W3C//DTD SVG 20010904//EN"
 "http://www.w3.org/TR/2001/REC-SVG-20010904/DTD/svg10.dtd">
<svg version="1.0" xmlns="http://www.w3.org/2000/svg"
 width="64.000000pt" height="64.000000pt" viewBox="0 0 64.000000 64.000000"
 preserveAspectRatio="xMidYMid meet">
<metadata>
Created by potrace 1.16, written by Peter Selinger 2001-2019
</metadata>
<g transform="translate(0.000000,64.000000) scale(0.100000,-0.100000)"
fill="#000000" stroke="none">
<path d="M50 517 c0 -28 98 -320 145 -433 14 -33 15 -34 72 -34 32 0 63 4 69
8 5 4 33 86 60 182 l50 175 97 3 c125 4 128 22 3 22 -52 0 -101 2 -108 5 -11
4 -23 -28 -51 -127 -21 -73 -45 -157 -53 -185 l-16 -53 -46 0 -47 0 -75 212
c-41 116 -76 215 -78 220 -2 4 19 8 46 8 l50 0 46 -132 c26 -73 50 -142 55
-152 5 -14 19 25 46 132 l38 152 144 0 c120 0 143 2 143 15 0 13 -23 15 -151
15 l-150 0 -13 -32 c-8 -18 -22 -68 -32 -111 -10 -42 -21 -74 -25 -70 -4 5
-21 48 -38 97 -18 50 -37 96 -43 103 -6 8 -34 13 -74 13 l-64 0 0 -33z"/>
</g>
</svg>
