<?xml version="1.0" standalone="no"?>
<!DOCTYPE svg PUBLIC "-//W3C//DTD SVG 20010904//EN"
 "http://www.w3.org/TR/2001/REC-SVG-20010904/DTD/svg10.dtd">
<svg version="1.0" xmlns="http://www.w3.org/2000/svg"
 width="100.000000pt" height="100.000000pt" viewBox="0 0 100.000000 100.000000"
 preserveAspectRatio="xMidYMid meet">
<metadata>
Created by potrace 1.16, written by Peter Selinger 2001-2019
</metadata>
<g transform="translate(0.000000,100.000000) scale(0.100000,-0.100000)"
fill="#000000" stroke="none">
<path d="M330 989 c0 -5 5 -7 10 -4 6 3 10 8 10 11 0 2 -4 4 -10 4 -5 0 -10
-5 -10 -11z"/>
<path d="M0 956 c0 -9 5 -16 10 -16 6 0 10 4 10 9 0 6 -4 13 -10 16 -5 3 -10
-1 -10 -9z"/>
<path d="M30 935 c0 -24 5 -35 15 -35 10 0 15 -10 15 -30 0 -16 5 -30 10 -30
6 0 10 -16 10 -35 0 -19 5 -35 11 -35 6 0 8 9 4 20 -4 11 -2 20 4 20 6 0 11
-16 11 -35 0 -24 5 -35 15 -35 10 0 15 -10 15 -30 0 -20 5 -30 15 -30 10 0 15
-11 15 -35 0 -19 5 -35 10 -35 6 0 10 -13 10 -30 0 -16 4 -30 10 -30 5 0 7 7
4 15 -4 8 -1 15 5 15 6 0 11 -13 11 -30 0 -20 5 -30 15 -30 10 0 15 -11 15
-35 0 -19 5 -35 11 -35 6 0 9 7 5 15 -3 8 -1 15 4 15 6 0 10 -20 10 -45 0 -25
4 -45 10 -45 5 0 7 7 4 15 -4 8 -1 15 5 15 6 0 11 -16 11 -35 0 -19 5 -35 10
-35 6 0 10 -13 10 -30 0 -20 5 -30 15 -30 10 0 15 -10 15 -30 0 -16 5 -30 11
-30 6 0 9 7 5 15 -3 8 -1 15 4 15 6 0 10 -22 10 -50 0 -27 4 -50 10 -50 5 0 7
7 4 15 -4 8 -1 15 5 15 6 0 11 -13 11 -30 0 -16 5 -30 10 -30 6 0 10 -16 10
-35 0 -24 5 -35 15 -35 10 0 15 -10 15 -30 0 -20 5 -30 15 -30 18 0 20 16 3
23 -7 3 -1 6 15 6 24 1 27 5 27 36 0 24 5 35 15 35 10 0 15 10 15 30 0 17 5
30 10 30 6 0 10 23 10 50 0 28 -4 50 -10 50 -5 0 -10 14 -10 30 0 20 -5 30
-15 30 -10 0 -15 11 -15 35 0 19 -5 35 -11 35 -6 0 -9 -9 -6 -20 3 -11 1 -20
-4 -20 -5 0 -9 23 -9 50 0 28 -4 50 -10 50 -5 0 -7 -7 -4 -15 4 -8 1 -15 -5
-15 -6 0 -11 14 -11 30 0 20 -5 30 -15 30 -10 0 -15 11 -15 35 0 19 -4 35 -10
35 -5 0 -10 14 -10 30 0 17 -5 30 -11 30 -6 0 -9 -7 -5 -15 3 -8 1 -15 -4 -15
-6 0 -10 23 -10 50 0 28 -4 50 -10 50 -5 0 -7 -7 -4 -15 4 -8 1 -15 -5 -15 -6
0 -11 14 -11 30 0 20 -5 30 -15 30 -10 0 -15 10 -15 30 0 17 -4 30 -10 30 -5
0 -10 16 -10 35 0 19 -4 35 -10 35 -5 0 -7 -7 -4 -15 4 -8 1 -15 -5 -15 -6 0
-11 14 -11 30 0 20 -5 30 -15 30 -10 0 -15 11 -15 35 0 24 -5 35 -15 35 -8 0
-15 7 -15 15 0 12 -17 15 -95 15 l-95 0 0 -35z m170 -20 c0 -24 5 -35 15 -35
9 0 15 -9 15 -25 0 -13 6 -28 13 -32 8 -4 17 -16 20 -26 4 -10 11 -15 17 -12
6 4 10 -8 10 -29 0 -20 5 -36 10 -36 6 0 10 -13 10 -30 0 -20 5 -30 15 -30 10
0 15 -10 15 -30 0 -18 6 -33 15 -36 8 -4 15 -12 15 -20 0 -8 7 -14 15 -14 10
0 15 -10 15 -30 0 -16 5 -30 10 -30 6 0 10 -14 10 -30 0 -17 6 -33 14 -36 8
-3 17 -16 20 -30 4 -13 11 -24 16 -24 6 0 10 -11 10 -25 0 -16 6 -25 15 -25
10 0 15 -10 15 -30 0 -19 5 -30 14 -30 8 0 16 -13 18 -30 7 -45 -2 -90 -18
-90 -9 0 -14 -12 -14 -35 0 -19 -4 -35 -10 -35 -5 0 -10 9 -10 20 0 11 -7 20
-15 20 -10 0 -15 10 -15 30 0 17 -4 30 -10 30 -5 0 -10 9 -10 19 0 11 -7 26
-15 35 -8 8 -15 22 -15 30 0 9 -7 16 -15 16 -10 0 -15 10 -15 30 0 20 -5 30
-15 30 -9 0 -15 9 -15 23 0 31 -22 77 -37 77 -8 0 -13 13 -13 30 0 20 -5 30
-15 30 -10 0 -15 11 -15 35 0 24 -5 35 -15 35 -9 0 -15 9 -15 25 0 14 -7 28
-15 31 -8 4 -15 15 -15 25 0 10 -4 19 -10 19 -5 0 -10 14 -10 30 0 20 -5 30
-15 30 -9 0 -15 9 -15 25 0 14 -7 28 -15 31 -8 4 -15 14 -15 24 0 10 -7 25
-15 34 -8 8 -15 22 -15 30 0 9 -4 16 -10 16 -5 0 -10 14 -10 30 l0 30 60 0 60
0 0 -35z m-143 3 c-3 -8 -6 -5 -6 6 -1 11 2 17 5 13 3 -3 4 -12 1 -19z m177
-3 c3 -8 1 -15 -4 -15 -6 0 -10 7 -10 15 0 8 2 15 4 15 2 0 6 -7 10 -15z m-64
-215 c0 -5 -2 -10 -4 -10 -3 0 -8 5 -11 10 -3 6 -1 10 4 10 6 0 11 -4 11 -10z
m300 -615 c0 -19 -6 -19 -14 0 -3 8 -1 15 4 15 6 0 10 -7 10 -15z m50 -29 c0
-3 -4 -8 -10 -11 -5 -3 -10 -1 -10 4 0 6 5 11 10 11 6 0 10 -2 10 -4z"/>
<path d="M330 954 c0 -10 6 -14 15 -10 12 4 15 -3 15 -34 0 -22 4 -40 10 -40
5 0 7 7 4 15 -4 8 -1 15 5 15 6 0 11 -13 11 -30 0 -20 5 -30 15 -30 10 0 15
-11 15 -35 l0 -35 135 0 c116 0 135 -2 135 -16 0 -8 -4 -12 -10 -9 -5 3 -10
-3 -10 -14 0 -12 -7 -21 -15 -21 -10 0 -15 -10 -15 -30 0 -20 -5 -30 -15 -30
-10 0 -15 -11 -15 -35 0 -19 -4 -35 -10 -35 -5 0 -7 7 -4 15 4 8 1 15 -5 15
-6 0 -11 -13 -11 -30 0 -16 -4 -30 -10 -30 -5 0 -10 -17 -9 -37 1 -34 2 -35 9
-13 7 22 8 21 9 -12 1 -27 6 -38 16 -38 10 0 15 -10 15 -30 0 -16 5 -30 11
-30 6 0 9 7 5 15 -3 8 -1 15 4 15 6 0 10 -16 10 -35 0 -24 5 -35 15 -35 8 0
15 9 15 20 0 11 5 20 10 20 6 0 10 14 10 30 0 17 4 30 10 30 5 0 7 -7 4 -15
-4 -8 -1 -15 5 -15 6 0 11 14 11 30 0 20 5 30 15 30 10 0 15 11 15 35 0 24 5
35 15 35 10 0 15 10 15 30 0 17 5 30 11 30 6 0 9 -7 5 -15 -3 -8 -1 -15 4 -15
6 0 10 16 10 35 0 19 5 35 10 35 6 0 10 14 10 30 0 20 5 30 15 30 10 0 15 10
15 30 0 17 5 30 11 30 6 0 9 -7 5 -15 -3 -8 -1 -15 4 -15 6 0 10 23 10 50 0
28 4 50 10 50 5 0 7 -7 4 -15 -4 -8 -1 -15 5 -15 6 0 11 14 11 30 0 17 5 30
10 30 6 0 10 16 10 35 0 24 5 35 15 35 8 0 15 7 15 15 0 13 -42 15 -320 15
-287 0 -320 -2 -320 -16z m590 -18 c0 -8 -4 -18 -10 -21 -5 -3 -10 -17 -10
-31 0 -15 -6 -24 -15 -24 -8 0 -15 -6 -15 -14 0 -19 -32 -79 -47 -89 -7 -4
-13 -19 -13 -32 0 -14 -4 -25 -10 -25 -5 0 -10 -16 -10 -35 0 -24 -5 -35 -15
-35 -8 0 -15 -6 -15 -14 0 -7 -7 -19 -15 -26 -8 -7 -15 -21 -15 -31 0 -11 -7
-19 -15 -19 -10 0 -15 -11 -15 -35 0 -24 -5 -35 -15 -35 -8 0 -15 -9 -15 -19
0 -14 -5 -18 -20 -14 -13 4 -20 14 -20 29 0 14 -7 27 -15 30 -9 4 -15 19 -15
35 0 19 5 29 15 29 8 0 15 6 15 14 0 7 7 19 15 26 8 7 15 23 15 35 0 13 7 25
15 29 8 3 15 17 15 31 0 14 5 25 11 25 6 0 9 21 7 53 l-3 52 -132 3 c-122 2
-133 4 -133 21 0 10 -7 24 -15 31 -8 7 -15 19 -15 26 0 8 -7 14 -15 14 -8 0
-15 7 -15 15 0 13 37 15 270 15 228 0 270 -2 270 -14z m-230 -138 c0 -10 -31
-12 -130 -10 -73 2 -130 7 -130 13 0 5 55 9 130 9 97 0 130 -3 130 -12z m44
-293 c-4 -8 -8 -15 -10 -15 -2 0 -4 7 -4 15 0 8 4 15 10 15 5 0 7 -7 4 -15z"/>
<path d="M956 915 c-3 -8 -1 -15 4 -15 6 0 10 7 10 15 0 8 -2 15 -4 15 -2 0
-6 -7 -10 -15z"/>
<path d="M265 890 c3 -5 8 -10 11 -10 2 0 4 5 4 10 0 6 -5 10 -11 10 -5 0 -7
-4 -4 -10z"/>
<path d="M390 820 c0 -5 5 -10 11 -10 5 0 7 5 4 10 -3 6 -8 10 -11 10 -2 0 -4
-4 -4 -10z"/>
<path d="M110 720 c0 -5 5 -10 11 -10 5 0 7 5 4 10 -3 6 -8 10 -11 10 -2 0 -4
-4 -4 -10z"/>
<path d="M610 669 c0 -5 5 -7 10 -4 6 3 10 8 10 11 0 2 -4 4 -10 4 -5 0 -10
-5 -10 -11z"/>
<path d="M765 530 c-3 -5 -1 -10 4 -10 6 0 11 5 11 10 0 6 -2 10 -4 10 -3 0
-8 -4 -11 -10z"/>
<path d="M456 505 c4 -8 8 -15 10 -15 2 0 4 7 4 15 0 8 -4 15 -10 15 -5 0 -7
-7 -4 -15z"/>
<path d="M221 494 c0 -11 3 -14 6 -6 3 7 2 16 -1 19 -3 4 -6 -2 -5 -13z"/>
<path d="M640 330 c0 -5 7 -10 15 -10 8 0 15 5 15 10 0 6 -7 10 -15 10 -8 0
-15 -4 -15 -10z"/>
<path d="M590 210 c0 -11 5 -20 10 -20 6 0 10 9 10 20 0 11 -4 20 -10 20 -5 0
-10 -9 -10 -20z"/>
<path d="M551 74 c0 -11 3 -14 6 -6 3 7 2 16 -1 19 -3 4 -6 -2 -5 -13z"/>
</g>
</svg>
