<?xml version="1.0" standalone="no"?>
<!DOCTYPE svg PUBLIC "-//W3C//DTD SVG 20010904//EN"
 "http://www.w3.org/TR/2001/REC-SVG-20010904/DTD/svg10.dtd">
<svg version="1.0" xmlns="http://www.w3.org/2000/svg"
 width="180.000000pt" height="180.000000pt" viewBox="0 0 180.000000 180.000000"
 preserveAspectRatio="xMidYMid meet">
<metadata>
Created by potrace 1.16, written by Peter Selinger 2001-2019
</metadata>
<g transform="translate(0.000000,180.000000) scale(0.100000,-0.100000)"
fill="#000000" stroke="none">
<path d="M73 684 c-3 -9 29 -140 72 -290 l78 -274 106 0 c58 0 115 3 127 6 18
5 30 37 80 217 l59 211 3 -217 2 -217 211 0 c223 0 261 6 291 49 15 22 16 21
22 -14 l7 -36 102 3 102 3 3 98 3 97 64 0 65 0 0 -100 0 -100 105 0 105 0 0
290 0 291 -102 -3 -103 -3 -3 -97 -3 -98 -64 0 -64 0 -3 98 -3 97 -102 3 -103
3 -6 -41 -7 -41 -17 29 c-31 50 -49 53 -375 50 l-299 -3 -32 -110 c-18 -60
-34 -103 -37 -95 -4 8 -17 54 -31 102 -14 49 -28 92 -31 98 -3 6 -52 10 -111
10 -88 0 -106 -3 -111 -16z m224 -90 c31 -108 123 -441 123 -448 0 -3 -40 -6
-89 -6 l-89 0 -7 37 c-6 32 -126 449 -140 484 -4 11 12 14 87 13 l92 -2 23
-78z m299 69 c-6 -15 -133 -480 -139 -508 -5 -25 -6 -23 -46 122 -17 61 -31
122 -31 135 0 15 66 263 70 263 0 0 34 0 75 0 55 0 74 -3 71 -12z m194 -255
l0 -268 -82 0 -83 0 2 267 c2 148 3 268 3 268 0 0 36 0 80 0 l80 0 0 -267z
m150 262 c80 0 91 -2 119 -26 57 -48 50 -126 -17 -170 l-33 -23 33 -16 c55
-26 73 -60 73 -137 0 -63 -2 -69 -35 -103 -44 -45 -85 -57 -184 -53 l-78 3 -2
63 -1 62 68 0 c54 0 71 4 87 20 26 26 25 45 -1 71 -18 18 -30 20 -86 17 l-66
-3 0 54 0 55 55 -3 c53 -2 88 13 88 39 0 26 -35 41 -88 39 l-54 -3 0 57 c0 31
1 60 1 63 1 3 8 3 17 0 9 -3 55 -6 104 -6z m370 -262 l0 -268 -80 0 -80 0 0
268 0 267 80 0 80 0 0 -267z m350 0 l0 -268 -86 0 -85 0 2 103 2 102 -79 1
-79 1 -3 67 -3 66 83 0 83 0 -3 97 -4 98 86 0 86 0 0 -267z m-740 112 c0 -5
-22 -10 -50 -10 -27 0 -50 5 -50 10 0 6 23 10 50 10 28 0 50 -4 50 -10z m200
-57 c0 -45 -1 -46 -19 -29 -18 17 -18 19 -3 47 10 16 18 29 20 29 1 0 2 -21 2
-47z m-171 -126 c18 -23 -9 -37 -71 -37 -55 0 -58 1 -58 25 0 24 3 25 59 25
36 0 63 -5 70 -13z"/>
</g>
</svg>
