<?xml version="1.0" standalone="no"?>
<!DOCTYPE svg PUBLIC "-//W3C//DTD SVG 20010904//EN"
 "http://www.w3.org/TR/2001/REC-SVG-20010904/DTD/svg10.dtd">
<svg version="1.0" xmlns="http://www.w3.org/2000/svg"
 width="250.000000pt" height="250.000000pt" viewBox="0 0 250.000000 250.000000"
 preserveAspectRatio="xMidYMid meet">
<metadata>
Created by potrace 1.16, written by Peter Selinger 2001-2019
</metadata>
<g transform="translate(0.000000,250.000000) scale(0.100000,-0.100000)"
fill="#000000" stroke="none">
<path d="M682 1917 l-562 -562 52 -52 53 -53 -53 -53 -52 -52 565 -565 565
-565 565 565 565 565 -52 52 -52 53 52 53 52 52 -563 563 c-309 309 -564 562
-567 562 -3 0 -258 -253 -568 -563z m1105 -19 c293 -293 533 -537 533 -543 0
-5 -21 -31 -47 -57 l-47 -48 47 -48 c26 -26 47 -52 47 -57 0 -6 -241 -251
-535 -545 l-535 -535 -535 535 c-294 294 -535 539 -535 545 0 5 21 31 47 57
l47 48 -47 48 c-26 26 -47 52 -47 57 0 10 1060 1075 1070 1075 3 0 245 -240
537 -532z"/>
<path d="M728 1876 l-518 -521 520 -520 520 -520 520 520 520 520 -518 521
c-284 286 -519 521 -522 521 -3 0 -238 -235 -522 -521z m882 119 l355 -355
-45 0 -45 0 -300 300 c-234 234 -305 300 -325 300 -20 0 -91 -66 -325 -300
l-300 -300 -45 0 -45 0 355 355 c195 195 357 355 360 355 3 0 165 -160 360
-355z m-50 -80 l305 -305 77 0 78 0 0 -77 0 -77 52 -53 52 -53 -52 -53 -52
-53 0 -67 0 -67 -67 0 -68 0 -317 -317 -318 -318 -318 318 -317 317 -68 0 -67
0 0 67 0 67 -52 53 -52 53 52 53 52 53 0 77 0 77 78 0 77 0 305 305 c168 168
307 305 310 305 3 0 142 -137 310 -305z m-1154 -494 c-60 -60 -60 -83 -1 -141
39 -38 45 -50 45 -84 l0 -41 -100 100 -100 100 97 98 98 98 3 -42 c3 -38 -1
-46 -42 -88z m1747 -164 l-98 -98 -3 37 c-3 32 2 43 42 83 60 60 60 83 1 141
-40 39 -45 49 -45 89 l0 46 100 -100 100 -100 -97 -98z m-1238 -487 c241 -241
315 -310 335 -310 19 0 94 69 336 311 305 305 311 310 347 307 l37 -3 -360
-360 -360 -360 -363 363 -362 362 40 0 c39 0 47 -7 350 -310z"/>
<path d="M959 1895 l-285 -285 576 0 576 0 -283 283 c-156 155 -287 283 -291
284 -4 2 -136 -125 -293 -282z m546 -5 l250 -250 -505 0 -505 0 250 250 c137
138 252 250 255 250 3 0 118 -112 255 -250z"/>
<path d="M524 1563 c3 -10 24 -92 46 -183 23 -91 45 -182 51 -202 l10 -38 64
0 c36 0 65 2 65 5 0 8 117 398 125 418 6 15 0 17 -64 17 l-70 0 -10 -37 c-5
-21 -15 -67 -22 -103 -6 -36 -14 -72 -17 -80 -4 -14 -22 69 -38 178 l-7 42
-69 0 c-61 0 -69 -2 -64 -17z m130 -121 c19 -99 21 -103 45 -100 22 3 27 11
41 78 31 139 25 130 71 130 31 0 40 -3 36 -14 -4 -11 -31 -102 -103 -348 -4
-14 -16 -18 -49 -18 -51 0 -39 -27 -99 217 -20 78 -36 147 -36 153 0 7 15 10
37 8 l38 -3 19 -103z"/>
<path d="M935 1360 l0 -220 118 0 117 0 0 53 0 52 -55 -3 -55 -4 0 36 c0 36 0
36 43 36 l42 0 -1 52 -2 52 -41 -3 c-40 -2 -41 -2 -41 31 l0 33 55 -3 55 -4 0
56 0 56 -117 0 -118 0 0 -220z m215 165 c0 -24 -3 -25 -55 -25 l-55 0 0 -55 0
-55 40 0 c38 0 40 -2 40 -30 0 -28 -2 -30 -40 -30 l-40 0 0 -55 0 -55 55 0
c52 0 55 -1 55 -25 0 -25 0 -25 -95 -25 l-95 0 0 190 0 190 95 0 c95 0 95 0
95 -25z"/>
<path d="M1250 1360 l0 -220 65 0 65 0 0 88 0 87 38 -85 38 -85 70 -3 71 -3
-58 113 -57 113 49 104 c27 57 49 105 49 107 0 2 -29 4 -65 4 -59 0 -66 -2
-75 -22 -5 -13 -20 -50 -34 -83 l-26 -60 0 83 0 82 -65 0 -65 0 0 -220z m110
120 c0 -67 1 -70 24 -70 19 0 28 12 54 70 30 68 32 70 67 70 l35 0 -40 -80
c-22 -44 -40 -89 -40 -100 0 -11 20 -61 45 -110 l45 -90 -35 0 c-34 0 -37 3
-72 75 -30 61 -42 75 -60 75 -22 0 -23 -4 -23 -75 l0 -75 -40 0 -40 0 0 190 0
190 40 0 40 0 0 -70z"/>
<path d="M1668 1360 l-56 -220 69 0 c38 0 68 3 68 8 -7 43 1 52 46 52 45 0 53
-9 46 -52 0 -5 31 -8 70 -8 62 0 70 2 65 18 -6 19 -96 411 -96 418 0 2 -35 4
-78 4 l-77 0 -57 -220z m192 186 c0 -2 18 -83 40 -180 22 -96 40 -180 40 -186
0 -5 -16 -10 -35 -10 -29 0 -36 4 -41 25 -6 23 -10 25 -69 25 -59 0 -63 -2
-69 -25 -5 -21 -12 -25 -42 -25 -30 0 -36 3 -32 18 2 9 24 95 48 190 l45 172
57 0 c32 0 58 -2 58 -4z"/>
<path d="M1776 1478 c-8 -28 -26 -147 -26 -172 0 -24 3 -26 44 -26 25 0 47 4
51 9 5 8 -7 107 -21 179 -5 24 -42 32 -48 10z m38 -98 l6 -75 -25 0 c-21 0
-25 4 -20 20 3 11 8 51 12 89 7 82 18 68 27 -34z"/>
<path d="M439 1379 l-26 -28 33 -32 34 -33 0 62 c0 34 -3 61 -7 61 -5 -1 -20
-14 -34 -30z"/>
<path d="M2020 1348 l0 -62 34 33 33 32 -29 30 c-16 16 -31 29 -34 29 -2 0 -4
-28 -4 -62z"/>
<path d="M953 813 l297 -298 297 298 298 297 -595 0 -595 0 298 -297z m559 5
l-262 -263 -262 263 -263 262 525 0 525 0 -263 -262z"/>
<path d="M252 1188 l-42 -43 520 -520 520 -520 520 520 520 520 -42 43 -43 42
-477 -477 -478 -478 -478 478 -477 477 -43 -42z m998 -928 c20 0 125 101 490
465 l466 466 22 -23 21 -24 -499 -499 -500 -500 -500 500 -499 499 21 24 22
23 466 -466 c365 -364 470 -465 490 -465z"/>
</g>
</svg>
