<?xml version="1.0" standalone="no"?>
<!DOCTYPE svg PUBLIC "-//W3C//DTD SVG 20010904//EN"
 "http://www.w3.org/TR/2001/REC-SVG-20010904/DTD/svg10.dtd">
<svg version="1.0" xmlns="http://www.w3.org/2000/svg"
 width="256.000000pt" height="256.000000pt" viewBox="0 0 256.000000 256.000000"
 preserveAspectRatio="xMidYMid meet">
<metadata>
Created by potrace 1.16, written by Peter Selinger 2001-2019
</metadata>
<g transform="translate(0.000000,256.000000) scale(0.100000,-0.100000)"
fill="#000000" stroke="none">
<path d="M1289 2309 c-9 -5 -9 -9 -2 -9 6 0 18 -3 27 -6 9 -3 16 -2 16 4 0 15
-25 21 -41 11z"/>
<path d="M1332 2270 c-19 -30 -14 -36 8 -10 22 25 24 30 12 30 -4 0 -13 -9
-20 -20z"/>
<path d="M841 1805 l-444 -446 41 -42 42 -43 -42 -41 -42 -42 98 -95 c54 -53
95 -100 91 -106 -3 -6 -11 -8 -16 -4 -6 3 -5 -3 3 -15 7 -12 17 -21 22 -21 4
0 3 6 -3 14 -8 9 -8 16 -2 20 6 4 165 -149 353 -339 l344 -345 121 122 c145
148 178 179 171 157 -4 -9 -1 -16 7 -16 10 0 11 5 5 17 -8 14 6 33 67 94 51
50 79 72 84 64 5 -7 0 -18 -12 -26 -20 -14 -25 -32 -9 -32 6 0 10 7 10 15 0 8
7 15 15 15 18 0 18 5 5 29 -8 16 25 53 207 236 l216 217 -41 41 -42 41 41 42
41 42 -444 446 -443 447 -444 -446z m1250 -489 l-41 -40 42 -43 42 -43 -424
-425 -425 -425 -425 425 -424 425 42 43 42 43 -42 42 -42 42 424 425 425 426
423 -427 423 -428 -40 -40z"/>
<path d="M875 1770 l-410 -410 405 -407 c223 -224 406 -409 408 -412 2 -3 188
180 415 407 l412 412 -410 410 -410 410 -410 -410z m415 350 c-6 -11 -15 -18
-20 -15 -5 3 -11 1 -14 -4 -6 -10 19 -9 29 1 12 12 64 -24 84 -57 11 -19 27
-35 34 -35 8 0 22 -9 32 -20 15 -17 16 -23 5 -33 -7 -7 -10 -7 -7 -1 4 6 -2
19 -13 29 -11 10 -20 15 -20 10 0 -4 -8 -1 -17 6 -16 13 -17 12 -4 -3 7 -10
18 -15 24 -11 6 4 7 1 2 -7 -6 -9 -4 -11 5 -5 9 6 11 4 5 -5 -5 -9 -4 -11 4
-6 7 5 10 2 9 -6 -2 -8 4 -12 16 -10 11 2 15 -1 11 -8 -3 -6 -3 -10 2 -9 23 4
41 -5 77 -36 22 -19 36 -38 33 -42 -4 -3 -13 2 -20 12 -12 15 -14 16 -14 1 0
-9 4 -16 9 -16 5 0 6 -5 2 -11 -5 -8 -1 -8 14 0 15 8 23 7 36 -8 9 -9 16 -25
16 -34 0 -9 4 -18 9 -21 5 -4 7 4 3 16 -5 21 -4 22 11 9 14 -11 15 -16 5 -29
-11 -13 -10 -15 4 -9 12 4 23 -1 33 -16 18 -26 20 -51 3 -41 -8 4 -10 3 -5 -2
5 -5 14 -9 20 -9 7 -1 11 -6 10 -11 -1 -6 5 -11 13 -11 17 0 19 14 2 19 -6 2
-12 12 -14 22 -1 10 1 15 5 10 58 -64 83 -96 72 -89 -10 5 -12 4 -7 -3 4 -7 2
-20 -3 -29 -6 -10 -11 -12 -11 -5 0 6 -3 11 -7 10 -5 -2 -9 2 -11 7 -7 20 -35
44 -45 38 -5 -3 -7 -1 -4 4 8 13 -17 36 -27 25 -4 -4 -7 -2 -6 3 5 22 -1 35
-12 33 -8 -2 -12 5 -10 16 2 12 -1 16 -9 10 -7 -4 -10 -3 -6 3 3 5 -3 17 -14
26 -10 9 -19 14 -19 12 0 -3 -9 -1 -20 5 -12 7 -17 16 -13 27 4 10 2 14 -4 10
-14 -9 -37 19 -27 34 5 9 2 10 -9 6 -10 -3 -17 -2 -17 2 0 5 4 11 10 13 15 5
-4 28 -29 33 -14 3 -20 0 -16 -8 4 -7 0 -4 -8 6 -8 10 -19 16 -23 15 -5 -2
-10 2 -12 7 -7 20 -35 44 -45 38 -6 -3 -7 -1 -3 5 3 6 -9 23 -28 38 -27 22
-33 32 -25 45 6 13 5 17 -6 15 -8 -1 -18 -6 -22 -11 -4 -4 -2 -5 6 0 10 6 12
4 7 -4 -6 -9 -13 -8 -28 6 -16 14 -20 14 -16 3 6 -18 -18 -44 -32 -35 -5 3
-10 1 -10 -4 0 -6 -5 -11 -10 -11 -19 0 1 50 34 84 36 39 63 48 46 16z m35
-10 c3 -5 2 -10 -4 -10 -5 0 -13 5 -16 10 -3 6 -2 10 4 10 5 0 13 -4 16 -10z
m-135 -75 c-10 -12 -9 -16 4 -21 9 -3 13 -10 10 -15 -3 -5 -10 -7 -15 -4 -5 3
-6 -1 -3 -10 5 -11 2 -14 -12 -8 -14 5 -16 3 -11 -11 5 -14 3 -17 -8 -12 -8 3
-15 2 -15 -2 0 -5 -7 -17 -16 -28 -13 -16 -15 -16 -10 -2 3 10 0 20 -6 24 -7
5 -8 2 -3 -6 5 -8 4 -11 -3 -7 -6 5 -8 0 -5 -13 5 -21 -12 -29 -19 -9 -2 7 -8
6 -16 -4 -11 -12 -10 -15 4 -13 9 0 19 -5 22 -13 3 -10 0 -12 -12 -8 -9 4 -16
1 -17 -6 0 -7 -4 -3 -8 7 -7 19 -8 19 -13 -2 -4 -12 -2 -22 4 -22 5 0 6 -5 3
-11 -5 -6 -12 -4 -20 8 -13 17 -14 16 -8 -4 3 -14 1 -23 -6 -23 -6 0 -11 5
-11 11 0 8 -5 8 -15 -1 -8 -7 -15 -10 -15 -8 0 7 225 234 229 231 2 -1 -2 -9
-9 -18z m638 -475 l62 0 0 -62 c0 -59 2 -64 40 -103 l40 -41 -40 -39 c-38 -37
-40 -43 -40 -97 l0 -58 -57 0 -58 0 -245 -245 -246 -246 -244 246 -244 245
-58 0 -58 0 0 57 c0 53 -3 60 -40 98 l-40 41 40 39 c38 37 40 42 40 102 l0 63
63 0 62 0 240 240 240 240 240 -240 240 -240 63 0z m-423 470 c3 -5 2 -10 -4
-10 -5 0 -13 5 -16 10 -3 6 -2 10 4 10 5 0 13 -4 16 -10z m81 -87 c-7 -7 -26
7 -26 19 0 6 6 6 15 -2 9 -7 13 -15 11 -17z m9 -62 c-9 -16 -25 -3 -18 15 4
10 9 12 15 6 6 -6 7 -15 3 -21z m-487 -80 c2 -6 -3 -9 -12 -5 -9 3 -16 1 -16
-4 0 -6 -10 -9 -22 -7 -21 4 -21 3 -6 -9 10 -7 15 -16 11 -19 -3 -4 -12 1 -20
11 -8 9 -11 11 -8 4 11 -22 -3 -62 -20 -56 -9 4 -15 0 -15 -9 0 -8 -8 -21 -17
-28 -15 -12 -16 -12 -10 3 3 10 1 20 -5 24 -7 4 -8 3 -4 -5 4 -6 4 -11 -1 -10
-20 3 -23 -2 -9 -17 14 -14 14 -17 1 -30 -8 -9 -20 -12 -27 -8 -8 5 -9 2 -5
-9 7 -20 3 -21 -25 -6 -11 6 -18 7 -15 2 4 -5 0 -10 -8 -10 -11 0 -12 4 -4 14
6 7 15 11 19 8 5 -3 11 -1 15 5 3 5 1 10 -4 10 -6 0 9 20 34 44 32 31 52 42
69 41 17 -2 23 1 19 10 -2 8 -11 11 -19 8 -8 -3 0 10 18 29 33 34 78 44 86 19z
m816 -213 c-3 -5 -14 -8 -25 -8 -21 0 -25 20 -7 38 9 9 14 7 24 -6 7 -9 10
-20 8 -24z m-1014 11 c0 -10 -27 -19 -56 -19 -15 0 -22 5 -18 13 5 14 74 20
74 6z m-156 -119 c0 -15 -9 -38 -19 -51 -13 -17 -16 -19 -11 -5 6 16 4 17 -9
6 -9 -7 -13 -20 -10 -28 3 -9 0 -12 -8 -9 -25 10 -10 -52 24 -94 35 -44 49
-102 18 -74 -8 8 -19 12 -23 8 -4 -5 -6 -3 -4 3 2 7 -23 38 -55 69 l-58 57 22
24 c18 20 25 22 37 11 13 -10 15 -9 9 5 -4 11 -2 17 6 15 7 -1 11 7 9 18 -2
16 -1 17 7 5 9 -12 11 -11 11 8 0 13 4 21 9 17 10 -6 34 29 26 37 -3 3 1 5 8
5 7 0 12 -12 11 -27z m1370 -73 c3 3 6 2 6 -4 0 -6 -6 -16 -14 -22 -17 -15
-41 -4 -71 30 -11 12 -15 19 -8 16 6 -4 14 -3 18 3 5 8 -5 14 -25 12 -3 0 -6
14 -7 31 l-1 31 48 -52 c26 -28 50 -49 54 -45z m21 -27 c-3 -5 -1 -10 4 -10 8
0 7 -7 -1 -19 -7 -11 -17 -19 -22 -18 -6 1 -12 -8 -14 -20 -3 -23 -13 -29 -25
-16 -4 3 -1 13 6 21 9 13 9 14 0 8 -9 -5 -13 -1 -13 11 0 10 15 25 33 35 39
20 40 20 32 8z m-70 -69 c-3 -5 -1 -12 5 -16 15 -9 12 -25 -5 -25 -8 0 -15 -7
-15 -15 0 -8 -9 -19 -20 -25 -18 -9 -20 -8 -18 17 2 35 15 53 34 46 10 -4 12
0 8 11 -3 9 -1 16 6 16 6 0 9 -4 5 -9z m-1168 -203 c20 -22 29 -41 27 -55 -2
-12 1 -25 6 -28 6 -3 7 1 4 9 -7 18 21 23 31 6 4 -6 11 -8 16 -5 5 4 6 -2 2
-12 -3 -10 -3 -15 2 -11 7 7 35 -14 35 -26 0 -9 62 -66 71 -66 5 0 9 -4 9 -10
0 -5 11 -20 25 -34 14 -14 25 -22 25 -19 0 3 7 0 15 -7 12 -10 13 -15 4 -20
-15 -10 -2 -31 15 -24 15 6 42 -23 32 -33 -16 -17 -38 -9 -61 21 -29 38 -31
48 -10 40 8 -4 15 -2 15 4 0 11 -18 11 -37 -1 -11 -7 -27 8 -28 26 0 4 -4 7
-9 6 -5 0 -16 11 -26 25 -9 15 -19 24 -22 21 -3 -3 -11 1 -17 9 -9 11 -9 16 0
22 8 4 9 3 5 -4 -5 -8 -1 -10 9 -5 13 4 14 8 4 13 -7 5 -18 6 -25 3 -12 -4
-54 30 -54 45 0 4 -3 7 -7 7 -5 0 -19 8 -33 18 -13 9 -21 17 -17 17 4 0 0 11
-9 25 -9 14 -20 22 -25 20 -4 -3 -13 3 -18 14 -8 14 -8 21 2 25 6 3 2 3 -10 1
-12 -3 -24 -1 -28 5 -4 6 5 10 22 10 20 0 39 -11 60 -32z m1008 22 c3 -6 0
-13 -9 -16 -8 -3 -12 -12 -10 -19 3 -7 0 -16 -6 -20 -7 -4 -10 -1 -8 7 2 7 -1
13 -7 13 -5 0 -8 -7 -7 -17 2 -9 -6 -23 -17 -30 -12 -8 -18 -19 -13 -24 4 -4
-2 -2 -12 6 -17 14 -18 13 -12 -7 4 -12 2 -24 -4 -28 -9 -6 -15 8 -11 28 1 5
-3 6 -9 2 -6 -4 -8 -14 -6 -23 7 -23 -9 -47 -25 -37 -9 6 -11 3 -5 -10 6 -16
4 -16 -10 -4 -15 12 -16 12 -10 -8 4 -12 2 -24 -4 -28 -7 -4 -10 -1 -8 6 1 8
-2 14 -7 14 -6 0 -9 -4 -7 -9 1 -4 0 -17 -3 -27 -5 -15 -12 -18 -28 -13 -20 6
-21 5 -7 -12 14 -18 14 -18 -4 -4 -17 14 -18 13 -12 -7 4 -12 2 -24 -4 -28 -7
-4 -10 -1 -8 8 2 9 -1 16 -7 15 -5 0 -9 -5 -7 -10 5 -19 -8 -45 -23 -45 -9 0
-14 5 -12 11 3 6 9 10 15 9 5 -1 8 6 5 16 -3 12 5 26 21 38 14 11 22 23 18 27
-3 4 1 4 11 0 13 -4 16 -2 12 9 -6 15 54 60 81 60 7 0 11 4 8 8 -2 5 -12 5
-22 2 -15 -6 -15 -5 -3 10 13 16 14 16 27 0 12 -16 13 -14 9 14 -2 18 0 32 3
32 18 -3 35 2 29 8 -4 3 0 15 9 25 16 17 18 17 31 0 13 -16 14 -16 9 3 -6 22
5 47 20 44 21 -4 28 2 14 11 -13 8 -13 10 2 10 9 0 20 -5 23 -10z m28 -5 c-3
-9 -8 -14 -10 -11 -3 3 -2 9 2 15 9 16 15 13 8 -4z m-348 -295 c-3 -5 -11 -10
-16 -10 -6 0 -7 5 -4 10 3 6 11 10 16 10 6 0 7 -4 4 -10z m-14 -61 c-17 -16
-46 -14 -58 4 -3 5 -1 7 4 4 6 -4 14 0 17 9 3 8 10 12 16 9 5 -3 10 -1 10 5 0
7 5 6 14 -2 12 -11 12 -15 -3 -29z m-328 -2 c8 -21 -8 -38 -27 -31 -16 6 -16
8 0 25 20 23 20 23 27 6z m272 -17 c4 -6 11 -8 16 -5 5 4 9 1 9 -4 0 -6 -7
-12 -15 -12 -28 -3 -33 -4 -40 -10 -3 -4 -1 -10 6 -15 8 -5 10 -3 4 6 -6 9 -4
11 4 5 9 -5 -4 -25 -45 -66 -37 -37 -62 -55 -68 -49 -6 6 -16 5 -27 -1 -15 -7
-17 -6 -13 6 4 8 11 15 16 15 6 0 5 6 -2 15 -7 8 -10 16 -6 16 23 5 33 4 52
-2 25 -9 45 7 37 29 -4 8 0 20 9 26 8 6 20 21 27 34 13 24 26 28 36 12z m-247
-6 c-8 -8 35 -51 46 -46 5 3 6 0 2 -7 -11 -16 1 -44 15 -35 8 4 7 9 -2 16 -12
8 -12 9 0 6 18 -5 21 -56 3 -63 -7 -2 -11 -1 -8 4 3 4 -3 16 -14 26 -11 10
-20 15 -20 10 0 -4 -10 5 -22 21 -13 16 -26 31 -31 33 -8 3 21 41 31 41 3 0 3
-3 0 -6z m162 -58 c0 -2 -8 -10 -17 -17 -16 -13 -17 -12 -4 4 13 16 21 21 21
13z m-58 -108 c-7 -7 -12 -8 -12 -2 0 14 12 26 19 19 2 -3 -1 -11 -7 -17z"/>
<path d="M1231 2077 c-6 -8 -8 -17 -4 -20 12 -12 19 -7 19 13 0 24 0 24 -15 7z"/>
<path d="M1340 2055 c0 -15 18 -40 24 -34 3 3 -1 14 -9 25 -8 10 -14 15 -15 9z"/>
<path d="M1576 1815 c4 -8 10 -15 15 -15 4 0 6 7 3 15 -4 8 -10 15 -15 15 -4
0 -6 -7 -3 -15z"/>
<path d="M1655 1740 c3 -5 8 -10 11 -10 2 0 4 5 4 10 0 6 -5 10 -11 10 -5 0
-7 -4 -4 -10z"/>
<path d="M1729 1646 c12 -12 18 -26 14 -31 -5 -4 -3 -5 4 -2 22 13 6 49 -23
53 -13 2 -11 -2 5 -20z"/>
<path d="M1151 1999 c-13 -11 -22 -22 -19 -24 2 -3 15 6 28 20 28 30 24 32 -9
4z"/>
<path d="M1055 1784 l-220 -224 450 0 451 0 -226 225 c-124 124 -228 225 -230
224 -3 -1 -104 -102 -225 -225z m250 178 c-3 -3 0 -11 6 -18 8 -10 6 -12 -10
-9 -12 2 -26 7 -31 10 -5 3 -7 0 -4 -8 3 -9 17 -13 35 -12 21 2 35 -4 49 -22
11 -15 24 -22 31 -17 7 4 9 3 6 -3 -3 -5 27 -42 69 -82 41 -40 72 -76 69 -81
-3 -5 -1 -11 5 -15 6 -4 8 -10 5 -15 -3 -5 3 -7 13 -5 22 4 89 -61 84 -82 -2
-7 2 -13 8 -13 5 0 10 5 10 11 0 5 5 7 10 4 27 -17 -13 -23 -160 -24 -124 -1
-160 1 -160 11 0 10 -3 9 -9 -1 -9 -14 -36 -12 -75 4 -14 6 -17 5 -12 -3 5 -9
-23 -12 -109 -12 -75 0 -114 4 -110 10 4 6 -6 10 -22 9 -25 0 -26 -1 -8 -9 18
-8 18 -9 -5 -9 -15 -1 -32 5 -39 12 -11 10 -13 10 -7 0 5 -9 -2 -13 -25 -13
l-32 0 39 38 c21 20 53 48 70 62 16 14 23 21 15 15 -9 -5 20 26 64 70 44 44
84 80 90 80 5 0 10 5 10 10 0 14 56 70 70 70 5 0 10 6 10 13 0 7 6 16 13 21
14 8 45 11 37 3z m255 -266 c0 -5 -7 -3 -15 4 -8 7 -12 17 -9 22 7 10 24 -9
24 -26z"/>
<path d="M1186 1857 c3 -10 9 -15 12 -12 3 3 0 11 -7 18 -10 9 -11 8 -5 -6z"/>
<path d="M1365 1860 c-3 -5 -5 -10 -3 -11 33 -8 38 -7 27 7 -14 17 -16 17 -24
4z"/>
<path d="M1095 1780 c-10 -11 -13 -20 -7 -20 7 0 12 5 12 11 0 5 5 7 10 4 6
-3 10 1 10 9 0 21 -3 20 -25 -4z"/>
<path d="M1442 1783 c2 -9 11 -17 21 -19 18 -2 18 -2 1 17 -21 23 -26 24 -22
2z"/>
<path d="M934 1618 l-19 -23 23 19 c21 18 27 26 19 26 -2 0 -12 -10 -23 -22z"/>
<path d="M1606 1621 c-4 -5 -2 -12 3 -15 5 -4 12 -2 15 3 4 5 2 12 -3 15 -5 4
-12 2 -15 -3z"/>
<path d="M873 1447 c-19 -95 -17 -97 -42 26 l-12 57 -50 0 c-28 0 -49 -5 -49
-11 0 -9 41 -179 71 -291 10 -37 11 -38 59 -38 l48 0 16 48 c19 60 86 288 86
293 0 2 -25 4 -54 4 l-55 0 -18 -88z m-97 -6 c-3 -4 -1 -13 3 -20 5 -7 8 -1 9
18 0 17 -4 33 -9 36 -14 10 -11 35 6 35 9 0 12 -6 8 -17 -4 -9 -2 -14 3 -11 9
6 14 -20 15 -80 0 -18 5 -30 10 -27 5 4 9 -3 9 -14 0 -14 8 -21 27 -23 19 -2
29 -10 34 -28 4 -15 7 -18 8 -8 1 9 -4 28 -11 42 -9 21 -8 34 5 67 9 23 14 46
11 50 -13 21 8 49 35 49 l28 0 -16 -54 c-16 -56 -34 -57 -24 -1 3 16 3 27 -1
24 -3 -3 -8 -32 -10 -65 -3 -38 -1 -52 4 -39 6 13 9 15 9 5 0 -8 -3 -21 -8
-29 -6 -10 -11 -6 -20 15 l-11 29 7 -30 c11 -52 9 -90 -5 -87 -8 1 -10 -2 -7
-8 4 -6 4 -22 1 -36 -5 -19 -13 -24 -36 -24 -17 0 -30 2 -30 5 0 3 -16 66 -35
141 -38 145 -43 179 -20 125 8 -18 13 -36 11 -40z"/>
<path d="M941 1484 c0 -11 3 -14 6 -6 3 7 2 16 -1 19 -3 4 -6 -2 -5 -13z"/>
<path d="M1715 1532 l-60 -3 -38 -147 c-21 -81 -40 -157 -43 -169 -6 -22 -3
-23 50 -23 54 0 56 1 56 26 0 20 4 25 16 20 9 -3 24 -6 35 -6 12 0 19 -7 19
-20 0 -18 7 -20 54 -20 l54 0 -15 68 c-9 37 -27 114 -42 172 l-26 105 -60 -3z
m52 -59 c5 -21 9 -73 9 -115 -1 -43 3 -78 8 -78 4 0 6 26 2 58 -4 42 -3 49 4
28 5 -15 11 -48 13 -72 2 -24 9 -50 15 -56 19 -19 14 -28 -18 -28 -19 0 -30 5
-30 14 0 17 -29 75 -31 61 -1 -5 -1 -13 0 -17 0 -5 -15 -8 -34 -8 -27 0 -37
-6 -49 -27 -17 -32 -20 -26 -6 11 6 16 17 26 29 26 11 0 22 4 25 8 4 7 -5 8
-46 3 -3 -1 -12 -18 -19 -38 -12 -37 -13 -37 -20 -13 -12 42 -10 50 9 43 15
-6 15 -5 4 10 -8 9 -12 22 -9 29 3 8 6 5 8 -7 2 -17 9 19 23 117 2 14 8 32 12
40 5 7 7 21 6 31 -3 14 4 17 41 17 42 0 44 -1 54 -37z m-160 -255 c-3 -8 -6
-5 -6 6 -1 11 2 17 5 13 3 -3 4 -12 1 -19z"/>
<path d="M1677 1453 c-3 -5 -3 -25 -1 -46 2 -21 -1 -48 -6 -60 -8 -18 -9 -16
-5 13 5 32 4 33 -5 10 -14 -32 -4 -74 16 -66 8 3 12 2 9 -3 -5 -10 73 -7 82 3
3 2 1 11 -3 18 -5 7 -9 20 -11 28 -13 94 -14 98 -36 104 -29 8 -35 7 -40 -1z
m51 -80 c9 -51 8 -53 -13 -53 -21 0 -21 2 -12 62 11 68 12 68 25 -9z"/>
<path d="M1750 1439 c0 -11 4 -18 10 -14 5 3 7 12 3 20 -7 21 -13 19 -13 -6z"/>
<path d="M1040 1360 l0 -170 93 0 92 0 -1 42 -1 42 -45 -3 c-44 -2 -45 -1 -41
23 4 21 11 26 34 26 28 0 29 2 29 43 0 42 -1 43 -29 39 -24 -3 -29 0 -33 22
-5 25 -3 26 41 26 l46 0 0 40 0 40 -92 0 -93 0 0 -170z m106 135 c17 -17 49
-21 39 -5 -4 6 -10 8 -15 5 -5 -3 -12 0 -15 6 -5 7 1 9 16 7 13 -1 25 -11 27
-20 3 -14 -3 -18 -28 -18 -18 0 -33 6 -36 15 -4 8 -10 12 -16 9 -5 -3 -4 -12
4 -22 9 -11 9 -14 1 -9 -9 6 -12 -21 -11 -112 1 -112 2 -120 19 -111 27 15 69
12 69 -4 0 -19 -22 -26 -86 -26 l-54 0 0 150 0 150 36 0 c19 0 42 -7 50 -15z
m-6 -137 c0 -26 -9 -19 -15 11 -2 12 0 19 6 16 5 -4 9 -16 9 -27z m38 10 c-2
-6 -10 -13 -16 -14 -9 -2 -9 -1 -1 3 8 4 7 8 -2 14 -11 7 -10 9 4 9 10 0 17
-5 15 -12z"/>
<path d="M1084 1360 c0 -80 2 -112 3 -72 2 39 2 105 0 145 -1 39 -3 7 -3 -73z"/>
<path d="M1145 1230 c-13 -5 -14 -9 -5 -9 8 0 24 4 35 9 13 5 14 9 5 9 -8 0
-24 -4 -35 -9z"/>
<path d="M1285 1360 l0 -170 54 0 54 0 -5 65 c-3 36 -2 63 1 60 4 -2 18 -31
32 -65 l24 -60 52 0 c29 0 53 2 53 5 0 3 -18 42 -41 87 l-41 83 40 83 40 82
-54 0 c-50 0 -55 -2 -65 -27 -6 -15 -22 -50 -36 -78 -25 -50 -30 -75 -32 -167
-1 -44 -3 -48 -26 -48 l-25 0 0 150 0 150 25 0 c24 0 25 -3 25 -57 0 -73 19
-59 27 21 l6 56 -54 0 -54 0 0 -170z m209 119 c-8 -15 -18 -30 -23 -34 -6 -3
-8 -12 -4 -20 3 -9 -1 -15 -11 -15 -19 0 -19 -1 -6 -35 9 -24 8 -25 -10 -15
-11 6 -20 15 -20 21 0 6 5 7 12 3 7 -4 8 -3 4 5 -4 6 -12 9 -17 6 -14 -9 -11
0 13 47 28 55 27 55 39 38 8 -12 9 -10 4 7 -5 17 -2 22 14 20 18 -1 18 -3 5
-28z m-51 -163 c-3 -11 -1 -16 5 -12 5 3 17 -3 27 -14 10 -12 13 -20 7 -20 -7
0 -12 -5 -12 -11 0 -6 7 -9 15 -5 8 3 15 1 15 -4 0 -6 -4 -10 -10 -10 -5 0
-10 -5 -10 -11 0 -6 7 -9 15 -6 8 4 17 2 20 -4 4 -5 -6 -8 -24 -7 -25 2 -30 6
-25 20 3 10 1 18 -3 18 -12 0 -47 71 -44 89 1 8 -2 10 -11 5 -24 -16 -35 -12
-32 12 4 44 15 47 45 12 18 -21 26 -40 22 -52z"/>
<path d="M1451 1463 c-1 -6 -4 -20 -7 -30 -5 -17 -5 -17 6 0 6 10 9 23 6 30
-3 9 -5 9 -5 0z"/>
<path d="M1386 1355 c4 -8 8 -15 10 -15 2 0 4 7 4 15 0 8 -4 15 -10 15 -5 0
-7 -7 -4 -15z"/>
<path d="M1455 1280 c3 -5 8 -10 11 -10 2 0 4 5 4 10 0 6 -5 10 -11 10 -5 0
-7 -4 -4 -10z"/>
<path d="M1344 1385 c0 -55 1 -76 3 -47 2 29 2 74 0 100 -2 26 -3 2 -3 -53z"/>
<path d="M1550 1449 c0 -5 5 -7 10 -4 6 3 10 8 10 11 0 2 -4 4 -10 4 -5 0 -10
-5 -10 -11z"/>
<path d="M1830 1435 c0 -2 6 -8 13 -14 10 -8 14 -7 14 2 0 8 -6 14 -14 14 -7
0 -13 -1 -13 -2z"/>
<path d="M654 1382 l-22 -28 24 -27 24 -28 0 55 c0 31 -1 56 -2 55 -2 0 -13
-12 -24 -27z"/>
<path d="M1851 1377 c-13 -21 -12 -21 5 -5 10 10 16 20 13 22 -3 3 -11 -5 -18
-17z"/>
<path d="M1890 1353 l0 -46 25 23 25 24 -22 23 c-12 13 -23 23 -25 23 -2 0 -3
-21 -3 -47z"/>
<path d="M1000 1293 c-3 -56 -1 -99 3 -94 4 4 6 50 5 102 l-3 94 -5 -102z"/>
<path d="M1230 1339 c0 -13 5 -31 10 -39 7 -11 8 -5 4 20 -8 43 -14 51 -14 19z"/>
<path d="M703 1325 c0 -8 4 -12 9 -9 5 3 6 10 3 15 -9 13 -12 11 -12 -6z"/>
<path d="M1540 1300 c0 -16 3 -30 8 -30 4 0 7 14 7 30 0 17 -3 30 -7 30 -5 0
-8 -13 -8 -30z"/>
<path d="M947 1261 c-4 -17 -3 -21 5 -13 5 5 8 16 6 23 -3 8 -7 3 -11 -10z"/>
<path d="M721 1254 c0 -11 3 -14 6 -6 3 7 2 16 -1 19 -3 4 -6 -2 -5 -13z"/>
<path d="M745 1240 c-3 -5 -1 -10 4 -10 6 0 11 5 11 10 0 6 -2 10 -4 10 -3 0
-8 -4 -11 -10z"/>
<path d="M1341 1234 c0 -11 3 -14 6 -6 3 7 2 16 -1 19 -3 4 -6 -2 -5 -13z"/>
<path d="M947 1215 c-4 -8 -3 -16 1 -19 4 -3 9 4 9 15 2 23 -3 25 -10 4z"/>
<path d="M820 1165 c0 0 104 -105 232 -233 l231 -233 234 233 233 233 -465 0
c-256 0 -465 0 -465 0z m111 -42 c1 -10 1 -21 1 -24 -1 -3 5 -6 13 -6 7 0 13
8 12 18 -1 10 -5 15 -9 13 -4 -3 -8 0 -8 5 0 14 256 15 265 1 3 -5 11 -10 16
-10 6 0 8 4 4 9 -8 14 78 10 87 -3 5 -7 11 -7 20 2 14 14 32 16 23 2 -3 -5 -2
-10 4 -10 5 0 13 5 16 10 3 6 17 10 31 10 13 0 24 -4 24 -10 0 -14 33 -13 65
2 21 9 31 9 46 0 11 -7 25 -9 32 -5 13 9 130 12 121 4 -3 -3 -13 -6 -22 -6 -9
0 -16 -6 -14 -14 3 -12 1 -12 -14 0 -15 12 -16 12 -10 -8 4 -12 2 -24 -4 -28
-7 -4 -10 -1 -9 6 3 19 -11 49 -23 49 -5 0 -6 -5 -2 -12 16 -25 12 -58 -7 -71
-10 -8 -16 -18 -11 -23 4 -4 -1 -2 -10 5 -14 10 -18 11 -18 1 0 -10 -3 -10
-14 -1 -12 10 -14 7 -11 -18 3 -22 -2 -34 -15 -44 -11 -8 -17 -18 -12 -23 4
-4 -1 -2 -10 5 -12 9 -18 10 -18 2 0 -6 -6 -10 -12 -9 -8 2 -12 -5 -10 -18 3
-24 -15 -42 -46 -47 -12 -2 -27 -8 -33 -14 -9 -9 -7 -11 4 -9 9 1 20 5 23 9 4
4 12 7 17 7 6 0 2 -8 -9 -19 -10 -10 -25 -16 -32 -13 -8 2 -10 -1 -7 -11 4
-10 -3 -18 -24 -25 -17 -6 -31 -8 -31 -5 0 3 -6 0 -14 -6 -10 -8 -16 -9 -21
-1 -3 5 -12 10 -18 10 -7 -1 -2 -9 10 -19 12 -10 19 -22 15 -26 -4 -5 -1 -5 6
-1 7 4 9 12 6 18 -5 7 -2 8 6 3 8 -5 11 -4 7 1 -3 5 3 10 14 10 17 0 16 -3 -8
-23 -28 -25 -43 -29 -43 -12 0 5 -4 7 -10 4 -6 -4 -7 1 -3 11 5 14 3 16 -11
11 -9 -4 -15 -3 -12 2 3 5 -6 16 -19 25 -15 10 -23 22 -19 28 5 7 2 9 -9 5
-12 -4 -14 -2 -10 10 5 13 2 15 -12 9 -11 -4 -16 -4 -12 0 10 10 -23 45 -35
38 -6 -4 -7 3 -3 17 7 21 6 22 -9 10 -14 -12 -16 -12 -10 3 3 9 10 16 16 16 5
0 6 5 3 10 -8 14 -26 13 -22 -1 1 -6 -4 -14 -11 -16 -7 -3 -11 -1 -10 4 2 5
-25 37 -60 71 -35 34 -60 62 -55 62 4 0 -3 6 -16 13 -24 12 -40 57 -21 57 6 0
11 -8 11 -17z m542 10 c-7 -2 -19 -2 -25 0 -7 3 -2 5 12 5 14 0 19 -2 13 -5z
m87 -124 c0 -15 -18 -19 -23 -6 -3 8 1 14 9 14 8 0 14 -4 14 -8z m-80 -80 c0
-15 -18 -19 -23 -6 -3 8 1 14 9 14 8 0 14 -4 14 -8z"/>
<path d="M1008 1123 c7 -3 16 -2 19 1 4 3 -2 6 -13 5 -11 0 -14 -3 -6 -6z"/>
<path d="M1013 1025 c0 -8 4 -12 9 -9 4 3 8 -3 8 -12 0 -10 3 -15 6 -11 8 7
-5 47 -15 47 -4 0 -8 -7 -8 -15z"/>
<path d="M1180 865 c7 -9 15 -13 17 -11 7 7 -7 26 -19 26 -6 0 -6 -6 2 -15z"/>
<path d="M826 1672 c-3 -6 -1 -14 5 -17 14 -9 20 -2 10 14 -6 8 -11 9 -15 3z"/>
<path d="M536 1391 c-4 -5 -3 -17 1 -28 6 -16 5 -17 -13 -4 -10 8 -7 2 8 -14
30 -32 37 -31 44 11 2 16 1 24 -4 17 -10 -15 -37 0 -28 16 4 6 5 11 2 11 -3 0
-7 -4 -10 -9z m28 -52 c-3 -5 -10 -7 -15 -3 -5 3 -7 10 -3 15 3 5 10 7 15 3 5
-3 7 -10 3 -15z"/>
<path d="M581 1314 c0 -11 3 -14 6 -6 3 7 2 16 -1 19 -3 4 -6 -2 -5 -13z"/>
<path d="M597 1296 c-7 -18 28 -52 38 -37 6 11 5 12 -17 15 -7 1 -12 9 -10 19
3 21 -4 23 -11 3z"/>
<path d="M1935 1460 c3 -5 11 -10 16 -10 6 0 7 5 4 10 -3 6 -11 10 -16 10 -6
0 -7 -4 -4 -10z"/>
<path d="M1962 1421 c-10 -6 -10 -11 3 -21 12 -10 15 -10 16 1 0 8 4 5 8 -5 4
-12 10 -15 14 -9 9 15 -26 44 -41 34z"/>
<path d="M2012 1354 c-13 -6 -20 -14 -15 -17 8 -5 50 20 42 26 -2 2 -15 -2
-27 -9z"/>
<path d="M1939 1283 c0 -4 -2 -16 -4 -25 -2 -10 1 -18 7 -18 6 0 8 6 5 14 -3
8 -1 16 6 19 8 2 8 5 -1 11 -7 4 -12 4 -13 -1z"/>
<path d="M790 1102 c6 -13 14 -21 18 -18 3 4 -2 14 -12 24 -18 16 -18 16 -6
-6z"/>
<path d="M815 1071 c-3 -5 -2 -12 3 -15 5 -3 9 1 9 9 0 17 -3 19 -12 6z"/>
<path d="M856 1023 c-4 -10 -4 -14 0 -10 4 4 14 1 22 -6 13 -10 14 -9 3 11
-14 27 -17 27 -25 5z"/>
<path d="M895 991 c-3 -6 4 -15 15 -21 20 -11 21 -10 10 9 -12 23 -16 25 -25
12z"/>
<path d="M966 916 c3 -8 17 -22 30 -31 14 -9 22 -20 19 -25 -3 -5 0 -12 6 -16
8 -4 9 -3 5 4 -4 7 -3 12 3 12 5 0 -6 16 -26 35 -40 39 -45 42 -37 21z"/>
<path d="M1079 787 c15 -15 43 -18 38 -4 -2 7 -14 13 -26 13 -16 1 -19 -2 -12
-9z"/>
<path d="M1721 1061 c-9 -6 -10 -11 -2 -15 6 -4 11 -2 11 4 0 6 5 8 12 4 7 -4
8 -3 4 4 -8 14 -7 14 -25 3z"/>
<path d="M1583 912 c1 -14 5 -18 11 -12 7 7 6 14 -1 21 -9 9 -12 7 -10 -9z"/>
<path d="M1456 778 c3 -5 10 -6 15 -3 13 9 11 12 -6 12 -8 0 -12 -4 -9 -9z"/>
<path d="M1364 689 c-8 -14 14 -19 25 -6 8 10 7 14 -5 14 -8 0 -17 -4 -20 -8z"/>
<path d="M1300 630 c-11 -7 -12 -12 -4 -20 8 -8 14 -7 23 4 14 17 1 28 -19 16z"/>
<path d="M1173 705 c0 -8 4 -12 9 -9 4 3 8 -2 8 -11 0 -9 4 -13 10 -10 6 4 5
13 -3 25 -14 24 -24 26 -24 5z"/>
<path d="M500 1225 l-34 -36 409 -409 410 -410 410 410 410 410 -35 35 -35 35
-375 -375 -375 -375 -375 375 -376 375 -34 -35z m1534 -7 c-5 -8 -2 -9 10 -5
9 4 15 3 11 -2 -3 -5 -2 -11 2 -14 5 -2 3 -2 -4 -1 -17 4 -28 -17 -14 -26 9
-5 8 -10 -4 -20 -8 -7 -15 -9 -15 -5 0 5 -8 -2 -19 -13 -19 -22 -37 -30 -26
-12 3 6 1 10 -5 10 -6 0 -8 -10 -4 -25 4 -15 2 -25 -5 -25 -6 0 -11 7 -11 16
0 8 -4 13 -10 9 -5 -3 -7 -12 -4 -19 3 -8 -6 -25 -20 -39 -14 -15 -26 -29 -26
-32 0 -4 -6 -12 -13 -19 -11 -11 -16 -11 -31 0 -17 12 -17 14 -2 29 9 10 23
14 31 11 8 -3 17 -1 20 5 4 5 -1 12 -10 15 -12 5 -13 9 -4 21 11 12 14 12 21
-2 5 -8 14 -13 20 -9 6 4 5 10 -3 15 -11 7 -8 14 14 30 15 11 25 24 22 29 -3
4 2 13 10 20 13 11 14 10 10 -2 -4 -9 0 -15 8 -15 9 0 12 7 9 19 -2 10 1 18 7
18 6 0 16 11 21 25 5 14 12 25 15 25 4 0 3 -5 -1 -12z m-1458 -30 c2 1 4 -1 5
-5 1 -16 32 -42 42 -36 5 3 7 1 4 -4 -8 -13 17 -36 28 -25 5 4 5 2 2 -4 -4 -6
5 -22 18 -34 14 -13 25 -20 25 -16 0 4 5 4 10 1 6 -4 8 -11 4 -16 -4 -6 -10
-6 -18 0 -7 6 -17 7 -21 3 -5 -4 -5 -1 0 7 6 10 4 12 -5 6 -9 -6 -11 -4 -5 6
7 11 6 12 -7 2 -15 -13 -28 -8 -28 10 0 5 8 6 17 3 9 -4 4 6 -13 21 -16 15
-33 26 -37 25 -5 -1 -5 3 -1 9 5 8 3 9 -6 4 -9 -6 -11 -4 -5 5 5 8 4 11 -3 6
-7 -4 -10 1 -7 14 3 16 1 19 -12 12 -9 -6 -24 -5 -38 2 -21 9 -21 12 -6 22 13
10 20 9 35 -4 10 -9 20 -16 22 -14z m-41 -18 c3 -5 2 -10 -4 -10 -5 0 -13 5
-16 10 -3 6 -2 10 4 10 5 0 13 -4 16 -10z m31 -9 c-3 -4 3 -16 14 -26 11 -10
20 -14 20 -10 0 5 6 0 14 -10 18 -25 10 -51 -11 -34 -11 10 -11 14 -1 20 10 7
10 9 -1 9 -8 0 -23 7 -33 17 -20 18 -24 43 -7 43 5 0 8 -4 5 -9z m114 -117
c26 -6 70 -28 71 -35 1 -5 2 -14 3 -19 0 -6 7 -15 15 -19 13 -9 9 -13 -21 -24
-12 -4 -15 -2 -11 8 3 9 -4 18 -19 24 -25 10 -57 41 -41 41 5 0 13 -3 17 -7
11 -11 36 -12 36 -1 0 6 -7 8 -15 5 -8 -4 -17 -1 -21 4 -3 6 -15 9 -25 6 -11
-3 -17 -1 -13 4 3 5 0 9 -6 9 -6 0 -8 5 -5 10 4 6 12 7 18 3 7 -4 14 -8 17 -9z
m1161 -59 c5 4 9 1 9 -5 0 -6 -11 -16 -25 -22 -14 -6 -25 -18 -25 -26 0 -12
-3 -12 -15 -2 -19 16 -20 34 -1 27 8 -3 22 0 32 7 13 10 14 15 4 21 -9 6 -11
4 -5 -5 6 -10 4 -12 -9 -7 -11 5 -15 3 -10 -5 5 -7 3 -8 -5 -4 -9 6 -8 13 5
27 16 17 19 18 27 4 4 -8 12 -13 18 -10z m-1019 -63 c-3 -10 -1 -13 7 -8 6 4
10 4 9 -1 -2 -4 2 -10 7 -12 6 -3 27 -21 49 -40 21 -20 42 -35 46 -34 5 1 7
-4 6 -13 -2 -16 -21 -20 -21 -5 0 5 -3 12 -7 16 -10 11 -4 -18 10 -40 6 -11
12 -14 12 -7 0 32 54 -3 56 -37 1 -26 15 -51 25 -45 5 3 9 10 9 15 0 6 -4 8
-9 4 -5 -3 -12 -1 -16 5 -10 17 15 11 41 -9 25 -20 21 -38 -5 -19 -13 10 -14
10 -3 -2 15 -17 16 -30 2 -30 -5 0 -10 7 -10 15 0 8 -6 12 -14 9 -7 -3 -20 6
-30 20 -18 28 -21 40 -8 32 5 -3 9 1 9 9 0 8 -5 11 -11 7 -6 -3 -18 -7 -26 -9
-11 -1 -9 3 4 13 11 7 16 17 13 21 -4 4 -13 1 -19 -5 -17 -17 -24 -15 -43 14
-14 21 -14 28 -3 42 11 15 11 15 -3 5 -16 -13 -29 -8 -29 10 0 5 7 6 16 3 9
-3 12 -2 9 5 -4 6 -14 8 -22 5 -8 -3 -11 -2 -8 3 8 15 -9 21 -25 9 -13 -8 -13
-9 0 -5 10 3 16 -2 16 -14 0 -17 -2 -17 -18 -2 -10 9 -16 18 -14 20 8 8 -27
42 -37 36 -5 -3 -4 3 1 14 9 15 8 20 -3 20 -8 0 -12 -4 -9 -9 6 -10 -10 -11
-20 -1 -3 4 3 12 16 19 26 14 59 -1 50 -24z m949 6 c1 -7 0 -17 -1 -23 -1 -5
-3 -15 -3 -22 0 -7 -5 -11 -11 -10 -6 1 -10 -4 -8 -11 1 -8 -1 -11 -6 -8 -5 3
-22 -9 -38 -25 -16 -17 -39 -35 -52 -40 -13 -5 -20 -13 -17 -19 3 -5 -3 -17
-14 -27 -11 -9 -17 -21 -14 -27 4 -6 -1 -5 -10 3 -11 9 -17 10 -17 2 0 -6 -4
-11 -9 -11 -4 0 -7 10 -6 23 3 31 3 31 20 17 9 -7 19 -10 22 -6 4 4 1 11 -7
16 -8 5 -11 12 -7 16 3 4 13 2 20 -4 10 -9 14 -8 14 3 0 8 -4 12 -9 9 -12 -8
-9 9 5 27 7 9 18 14 26 11 9 -3 11 0 6 9 -6 11 -5 12 6 2 22 -21 34 -15 14 7
-14 16 -15 20 -4 20 8 0 21 -6 29 -12 12 -11 12 -10 0 5 -12 16 -12 20 1 28
19 12 29 11 29 -2 0 -5 -5 -7 -12 -3 -7 5 -8 3 -3 -6 6 -10 11 -9 21 5 7 10
11 22 7 28 -3 6 -1 7 5 4 6 -5 8 0 5 13 -3 11 0 20 6 20 6 0 12 -6 12 -12z
m-35 -17 c0 -11 -5 -17 -13 -14 -10 4 -11 9 -2 19 15 18 15 18 15 -5z m-181
-212 c-2 -18 -10 -36 -19 -41 -9 -5 -14 -13 -11 -19 3 -5 0 -6 -7 -4 -8 3 -22
-1 -33 -9 -14 -11 -16 -15 -6 -16 8 0 3 -10 -14 -24 -25 -22 -62 -26 -50 -5 3
4 12 6 20 2 8 -3 15 0 15 7 0 6 -4 9 -9 6 -5 -3 -11 1 -15 9 -3 9 0 15 9 15 8
0 21 13 29 28 8 16 22 35 32 43 16 13 16 12 5 -10 -8 -15 -9 -21 -2 -17 6 4
11 2 11 -4 0 -6 5 -8 10 -5 6 3 10 11 10 16 0 6 -5 7 -11 3 -8 -5 -8 -1 0 13
6 11 7 24 3 28 -4 5 -1 5 6 1 6 -4 12 -2 12 3 0 6 4 11 9 11 5 0 7 -14 6 -31z
m-477 -41 c-2 -12 3 -23 12 -25 13 -4 13 -3 0 6 -19 14 -5 14 21 1 20 -11 26
-32 8 -27 -6 1 -14 -4 -16 -11 -4 -11 -1 -12 15 -3 24 13 52 5 52 -16 0 -9 -5
-11 -12 -6 -7 4 -24 8 -38 8 -18 0 -25 5 -23 18 1 13 -4 17 -15 12 -9 -3 -13
-3 -9 1 4 4 -1 13 -10 19 -15 11 -15 15 -4 29 18 22 23 20 19 -6z m337 -68
c-3 -5 -11 -10 -16 -10 -6 0 -7 5 -4 10 3 6 11 10 16 10 6 0 7 -4 4 -10z
m-260 -20 c4 -6 11 -8 16 -4 10 6 39 -13 39 -26 0 -3 -7 -7 -15 -7 -8 0 -12 4
-9 8 2 4 0 10 -5 13 -5 4 -12 2 -15 -3 -4 -5 -2 -12 4 -16 5 -3 10 -11 10 -17
0 -6 -9 -3 -20 7 -11 10 -17 22 -14 26 3 5 0 9 -5 9 -6 0 -11 5 -11 10 0 13
17 13 25 0z m262 -13 c4 -6 0 -8 -9 -4 -9 3 -20 1 -26 -5 -6 -6 -12 -6 -17 3
-6 8 -4 10 5 4 10 -6 12 -4 7 7 -4 12 -1 14 14 11 11 -3 22 -10 26 -16z m-37
-54 c-22 -20 -37 -40 -33 -46 3 -6 1 -7 -4 -4 -11 7 -40 -20 -43 -38 -3 -16
-6 -16 -20 1 -11 13 -11 17 -1 24 9 5 10 10 3 14 -6 4 -8 14 -5 24 4 13 2 13
-10 -3 l-16 -20 -1 20 c0 16 -2 17 -10 5 -9 -15 7 -33 22 -24 4 3 5 -2 2 -11
-6 -14 -8 -14 -25 1 -10 9 -16 21 -13 25 3 5 0 9 -5 9 -6 0 -11 4 -11 10 0 5
7 7 15 4 8 -4 15 -1 15 6 0 8 -9 10 -25 6 -28 -7 -34 8 -8 19 11 4 23 -1 33
-12 23 -29 92 -25 105 5 5 12 15 20 22 18 7 -3 15 -1 18 4 3 5 12 7 20 4 11
-4 4 -16 -25 -41z m-40 23 c0 -2 -8 -10 -17 -17 -16 -13 -17 -12 -4 4 13 16
21 21 21 13z"/>
<path d="M2006 1162 c-3 -5 1 -9 9 -9 8 0 15 4 15 9 0 4 -4 8 -9 8 -6 0 -12
-4 -15 -8z"/>
<path d="M1855 1021 c-6 -11 9 -23 19 -14 9 9 7 23 -3 23 -6 0 -12 -4 -16 -9z"/>
<path d="M736 991 c-3 -5 2 -15 12 -22 15 -12 16 -12 5 2 -7 9 -10 19 -6 22 3
4 4 7 0 7 -3 0 -8 -4 -11 -9z"/>
<path d="M815 900 c10 -11 20 -20 23 -20 3 0 -3 9 -13 20 -10 11 -20 20 -23
20 -3 0 3 -9 13 -20z"/>
<path d="M1630 799 c0 -5 5 -7 10 -4 6 3 10 8 10 11 0 2 -4 4 -10 4 -5 0 -10
-5 -10 -11z"/>
<path d="M1535 701 c-3 -5 -2 -12 3 -15 5 -3 9 1 9 9 0 17 -3 19 -12 6z"/>
<path d="M1466 631 c-14 -15 -15 -21 -4 -27 7 -4 10 -3 5 1 -4 5 0 17 10 27 9
10 14 18 11 18 -3 0 -13 -9 -22 -19z"/>
<path d="M1340 493 c-12 -15 -24 -27 -26 -25 -12 7 -25 0 -21 -12 3 -7 1 -18
-5 -24 -6 -6 -6 -12 1 -17 6 -3 10 -2 9 3 -2 6 14 29 36 52 21 22 36 43 33 46
-2 3 -15 -8 -27 -23z"/>
<path d="M1346 2243 c-9 -10 4 -23 23 -23 24 0 55 -35 48 -55 -4 -8 -2 -15 4
-15 6 0 9 12 7 26 -2 18 -15 35 -39 50 -20 13 -39 20 -43 17z"/>
<path d="M1410 2233 c8 -3 19 -11 23 -17 6 -7 7 -6 4 4 -2 8 -12 16 -23 17
-13 2 -15 1 -4 -4z"/>
<path d="M1380 2185 c7 -9 15 -13 17 -11 7 7 -7 26 -19 26 -6 0 -6 -6 2 -15z"/>
<path d="M1123 2139 c-2 -23 3 -25 10 -4 4 8 3 16 -1 19 -4 3 -9 -4 -9 -15z"/>
<path d="M1477 2153 c-9 -2 -15 -9 -11 -14 4 -6 11 -5 20 2 8 6 18 9 21 5 4
-4 1 -11 -7 -16 -8 -5 -11 -12 -7 -17 9 -8 28 17 24 31 -4 12 -17 15 -40 9z"/>
<path d="M1455 2110 c3 -5 8 -10 11 -10 2 0 4 5 4 10 0 6 -5 10 -11 10 -5 0
-7 -4 -4 -10z"/>
<path d="M1510 2089 c0 -6 -7 -8 -17 -4 -15 5 -14 3 2 -13 19 -18 45 -19 45
-1 0 4 -7 6 -15 3 -11 -5 -13 -2 -9 10 3 9 3 16 0 16 -3 0 -6 -5 -6 -11z"/>
<path d="M1050 2070 c-8 -5 -12 -11 -10 -14 3 -2 14 2 24 10 22 15 10 19 -14
4z"/>
<path d="M1590 2059 c0 -6 -7 -8 -16 -5 -8 3 -22 0 -29 -8 -12 -12 -12 -16 2
-28 15 -11 16 -11 10 5 -5 13 -3 17 5 15 7 -3 15 -15 18 -29 4 -16 14 -25 30
-27 14 -2 29 -8 35 -13 15 -15 28 -10 15 6 -7 8 -26 15 -43 15 -29 0 -29 1
-24 40 3 22 3 40 1 40 -2 0 -4 -5 -4 -11z"/>
<path d="M967 1993 c-4 -3 -7 -11 -7 -17 0 -6 5 -5 12 2 6 6 9 14 7 17 -3 3
-9 2 -12 -2z"/>
<path d="M1641 1934 c0 -11 3 -14 6 -6 3 7 2 16 -1 19 -3 4 -6 -2 -5 -13z"/>
<path d="M1667 1926 c-7 -18 1 -26 28 -26 11 0 26 -5 33 -12 6 -6 15 -8 19 -4
11 10 -18 26 -49 26 -20 0 -26 4 -22 15 4 8 4 15 1 15 -3 0 -7 -6 -10 -14z"/>
<path d="M887 1913 c-4 -3 -7 -11 -7 -17 0 -6 5 -5 12 2 6 6 9 14 7 17 -3 3
-9 2 -12 -2z"/>
<path d="M1708 1862 c9 -10 19 -14 21 -9 2 5 -3 13 -10 18 -24 15 -30 10 -11
-9z"/>
<path d="M807 1833 c-4 -3 -7 -11 -7 -17 0 -6 5 -5 12 2 6 6 9 14 7 17 -3 3
-9 2 -12 -2z"/>
<path d="M1747 1828 c2 -5 17 -8 34 -8 16 0 29 -4 29 -10 0 -5 8 -10 18 -9 14
0 13 3 -6 16 -23 16 -84 25 -75 11z"/>
<path d="M1786 1786 c10 -8 21 -12 24 -10 5 6 -21 24 -34 24 -6 0 -1 -6 10
-14z"/>
<path d="M1821 1757 c-13 -21 -12 -21 5 -5 10 10 16 20 13 22 -3 3 -11 -5 -18
-17z"/>
<path d="M1836 1742 c-3 -5 8 -6 25 -4 17 3 29 0 29 -7 0 -6 8 -11 18 -11 15
1 15 2 -2 15 -21 16 -62 20 -70 7z"/>
<path d="M1866 1706 c10 -8 21 -12 24 -10 5 6 -21 24 -34 24 -6 0 -1 -6 10
-14z"/>
<path d="M1907 1684 c-12 -12 4 -24 34 -24 16 0 29 -4 29 -10 0 -5 8 -10 18
-10 31 1 -18 30 -51 30 -16 0 -26 4 -22 10 7 11 2 13 -8 4z"/>
<path d="M643 1665 c-3 -9 -3 -18 -1 -21 3 -3 8 4 11 16 6 23 -1 27 -10 5z"/>
<path d="M1946 1626 c10 -8 21 -12 24 -10 5 6 -21 24 -34 24 -6 0 -1 -6 10
-14z"/>
<path d="M1981 1601 c-18 -12 5 -26 37 -22 13 1 31 -3 40 -11 15 -12 16 -11 3
5 -10 13 -24 17 -43 15 -21 -4 -27 -1 -24 9 6 15 5 16 -13 4z"/>
<path d="M563 1583 c-3 -8 -3 -17 1 -20 3 -4 6 1 6 11 0 9 4 15 9 11 5 -3 12
-2 15 3 3 5 -2 9 -10 9 -9 0 -18 -7 -21 -14z"/>
<path d="M2041 1528 c23 -25 36 -32 59 -30 17 2 30 -1 30 -7 0 -6 5 -11 11
-11 8 0 8 5 -1 15 -7 8 -24 15 -39 15 -31 0 -45 9 -54 33 -3 9 -13 17 -21 17
-10 0 -5 -11 15 -32z"/>
<path d="M2116 1453 c13 -14 27 -23 31 -20 3 4 1 7 -5 7 -7 0 -12 6 -12 14 0
8 -7 17 -16 20 -25 9 -25 8 2 -21z"/>
<path d="M405 1419 c-11 -16 -1 -19 13 -3 7 8 8 14 3 14 -5 0 -13 -5 -16 -11z"/>
<path d="M2156 1421 c-3 -4 5 -6 18 -4 13 3 27 0 30 -6 4 -6 15 -11 24 -11 13
0 13 2 -4 15 -21 16 -60 20 -68 6z"/>
<path d="M2183 1389 c12 -7 16 -18 12 -37 l-5 -27 11 29 c11 28 1 46 -26 46
-5 -1 -2 -5 8 -11z"/>
<path d="M2225 1359 c-4 -12 -3 -25 2 -30 6 -6 10 2 10 21 0 35 -3 38 -12 9z"/>
<path d="M2200 1309 c0 -5 5 -7 10 -4 6 3 10 8 10 11 0 2 -4 4 -10 4 -5 0 -10
-5 -10 -11z"/>
<path d="M409 1308 c-1 -2 -2 -19 -3 -40 -2 -35 -2 -36 21 -21 25 17 22 36 -5
26 -14 -6 -15 -4 -4 9 9 11 10 18 2 23 -5 3 -10 5 -11 3z"/>
<path d="M2222 1294 c-7 -8 -8 -14 -3 -14 10 0 25 19 20 25 -2 1 -10 -3 -17
-11z"/>
<path d="M2138 1281 c-16 -18 -15 -20 2 -18 11 1 16 6 12 16 -4 11 0 13 16 9
12 -4 22 -2 22 3 0 16 -35 9 -52 -10z"/>
<path d="M2210 1188 c0 -7 -3 -23 -6 -34 -3 -13 0 -23 8 -26 10 -4 12 4 10 33
-4 36 -12 54 -12 27z"/>
<path d="M420 1120 c0 -5 5 -10 10 -10 6 0 10 5 10 10 0 6 -4 10 -10 10 -5 0
-10 -4 -10 -10z"/>
<path d="M2106 1091 c-20 -22 -14 -41 12 -41 14 0 14 2 3 9 -20 13 -5 30 22
24 23 -6 23 -5 -4 15 -13 10 -19 8 -33 -7z"/>
<path d="M430 1091 c0 -11 31 -24 39 -16 3 3 -1 10 -9 15 -19 12 -30 12 -30 1z"/>
<path d="M415 1060 c-3 -5 -1 -10 4 -10 6 0 11 5 11 10 0 6 -2 10 -4 10 -3 0
-8 -4 -11 -10z"/>
<path d="M2066 1062 c-2 -4 -1 -14 3 -21 6 -9 11 -10 15 -2 4 6 2 11 -4 11 -6
0 -8 5 -5 10 3 6 4 10 1 10 -3 0 -7 -4 -10 -8z"/>
<path d="M455 1050 c-3 -5 -1 -10 4 -10 6 0 11 5 11 10 0 6 -2 10 -4 10 -3 0
-8 -4 -11 -10z"/>
<path d="M485 1050 c-4 -6 -4 -14 -1 -17 3 -4 6 0 6 8 0 12 2 12 10 -1 5 -8
12 -12 15 -9 3 4 -1 12 -9 18 -10 9 -16 9 -21 1z"/>
<path d="M2158 1043 c7 -3 16 -2 19 1 4 3 -2 6 -13 5 -11 0 -14 -3 -6 -6z"/>
<path d="M2040 1021 c0 -9 30 -24 36 -18 2 1 -6 8 -16 15 -11 7 -20 8 -20 3z"/>
<path d="M506 1011 c-3 -5 4 -11 16 -14 30 -8 35 -1 9 12 -11 6 -22 7 -25 2z"/>
<path d="M2016 1002 c-10 -16 1 -32 22 -32 11 0 13 3 6 8 -6 4 -13 14 -16 22
-3 10 -6 11 -12 2z"/>
<path d="M495 970 c3 -5 8 -10 11 -10 2 0 4 5 4 10 0 6 -5 10 -11 10 -5 0 -7
-4 -4 -10z"/>
<path d="M530 970 c0 -5 5 -10 10 -10 6 0 10 5 10 10 0 6 -4 10 -10 10 -5 0
-10 -4 -10 -10z"/>
<path d="M1986 967 c3 -10 9 -15 12 -12 3 3 0 11 -7 18 -10 9 -11 8 -5 -6z"/>
<path d="M1960 940 c0 -5 5 -10 11 -10 5 0 7 5 4 10 -3 6 -8 10 -11 10 -2 0
-4 -4 -4 -10z"/>
<path d="M590 932 c0 -6 9 -12 20 -15 11 -3 20 -3 20 -1 0 2 -9 8 -20 14 -11
6 -20 7 -20 2z"/>
<path d="M1937 923 c-4 -3 -7 -11 -7 -17 0 -6 5 -5 12 2 6 6 9 14 7 17 -3 3
-9 2 -12 -2z"/>
<path d="M575 900 c-3 -5 -1 -10 4 -10 6 0 11 5 11 10 0 6 -2 10 -4 10 -3 0
-8 -4 -11 -10z"/>
<path d="M643 894 c0 -7 4 -11 9 -8 4 3 8 0 8 -5 0 -6 5 -11 11 -11 8 0 9 4 0
13 -6 8 -9 16 -6 19 3 2 -1 5 -8 5 -8 0 -14 -6 -14 -13z"/>
<path d="M1899 893 c-13 -16 -12 -17 4 -4 9 7 17 15 17 17 0 8 -8 3 -21 -13z"/>
<path d="M1960 900 c-13 -8 -13 -10 2 -10 9 0 20 5 23 10 8 13 -5 13 -25 0z"/>
<path d="M610 890 c0 -5 5 -10 10 -10 6 0 10 5 10 10 0 6 -4 10 -10 10 -5 0
-10 -4 -10 -10z"/>
<path d="M1880 860 c0 -5 5 -10 11 -10 5 0 7 5 4 10 -3 6 -8 10 -11 10 -2 0
-4 -4 -4 -10z"/>
<path d="M670 852 c0 -6 9 -12 20 -15 11 -3 20 -3 20 -1 0 2 -9 8 -20 14 -11
6 -20 7 -20 2z"/>
<path d="M1857 843 c-4 -3 -7 -11 -7 -17 0 -6 5 -5 12 2 6 6 9 14 7 17 -3 3
-9 2 -12 -2z"/>
<path d="M655 820 c-3 -5 -1 -10 4 -10 6 0 11 5 11 10 0 6 -2 10 -4 10 -3 0
-8 -4 -11 -10z"/>
<path d="M733 808 c7 -10 16 -18 21 -18 4 0 3 6 -3 13 -6 8 -9 16 -6 19 3 2
-1 5 -9 5 -11 0 -12 -4 -3 -19z"/>
<path d="M1880 820 c-13 -8 -13 -10 2 -10 9 0 20 5 23 10 8 13 -5 13 -25 0z"/>
<path d="M695 810 c-3 -5 -1 -10 4 -10 6 0 11 5 11 10 0 6 -2 10 -4 10 -3 0
-8 -4 -11 -10z"/>
<path d="M1806 795 c-18 -28 -20 -35 -7 -35 5 0 12 12 16 27 4 19 9 23 14 14
5 -8 11 -9 15 -3 14 22 -23 19 -38 -3z"/>
<path d="M750 770 c0 -5 7 -10 16 -10 11 0 14 -6 9 -20 -4 -11 -2 -20 4 -20
17 0 13 47 -5 54 -21 8 -24 8 -24 -4z"/>
<path d="M730 741 c0 -6 5 -13 10 -16 6 -3 10 1 10 9 0 9 -4 16 -10 16 -5 0
-10 -4 -10 -9z"/>
<path d="M800 745 c0 -13 20 -35 32 -35 4 0 8 5 8 11 0 5 -4 8 -9 4 -6 -3 -14
3 -20 12 -6 10 -11 13 -11 8z"/>
<path d="M1795 740 c-3 -5 1 -10 10 -10 9 0 13 5 10 10 -3 6 -8 10 -10 10 -2
0 -7 -4 -10 -10z"/>
<path d="M830 690 c0 -5 7 -10 16 -10 11 0 14 -6 9 -20 -7 -23 0 -26 19 -8 11
11 10 16 -7 30 -22 20 -37 23 -37 8z"/>
<path d="M1751 684 c0 -11 3 -14 6 -6 3 7 2 16 -1 19 -3 4 -6 -2 -5 -13z"/>
<path d="M815 661 c-3 -5 -1 -12 5 -16 5 -3 10 1 10 9 0 18 -6 21 -15 7z"/>
<path d="M1715 660 c-3 -5 1 -10 10 -10 9 0 13 5 10 10 -3 6 -8 10 -10 10 -2
0 -7 -4 -10 -10z"/>
<path d="M895 640 c3 -5 11 -10 16 -10 6 0 7 5 4 10 -3 6 -11 10 -16 10 -6 0
-7 -4 -4 -10z"/>
<path d="M1636 621 c-4 -7 -5 -15 -2 -18 9 -9 19 4 14 18 -4 11 -6 11 -12 0z"/>
<path d="M910 612 c0 -6 9 -12 20 -15 11 -3 20 -3 20 -1 0 2 -9 8 -20 14 -11
6 -20 7 -20 2z"/>
<path d="M895 580 c-3 -5 -1 -10 4 -10 6 0 11 5 11 10 0 6 -2 10 -4 10 -3 0
-8 -4 -11 -10z"/>
<path d="M1640 580 c0 -5 5 -10 11 -10 5 0 7 5 4 10 -3 6 -8 10 -11 10 -2 0
-4 -4 -4 -10z"/>
<path d="M935 570 c-3 -5 -1 -10 4 -10 6 0 11 5 11 10 0 6 -2 10 -4 10 -3 0
-8 -4 -11 -10z"/>
<path d="M970 560 c20 -13 33 -13 25 0 -3 6 -14 10 -23 10 -15 0 -15 -2 -2
-10z"/>
<path d="M1556 541 c-4 -7 -5 -15 -2 -18 9 -9 19 4 14 18 -4 11 -6 11 -12 0z"/>
<path d="M996 531 c-3 -5 3 -11 15 -14 16 -4 18 -3 8 9 -13 16 -16 17 -23 5z"/>
<path d="M1591 524 c0 -11 3 -14 6 -6 3 7 2 16 -1 19 -3 4 -6 -2 -5 -13z"/>
<path d="M975 500 c-3 -5 -1 -10 4 -10 6 0 11 5 11 10 0 6 -2 10 -4 10 -3 0
-8 -4 -11 -10z"/>
<path d="M1560 500 c0 -5 5 -10 11 -10 5 0 7 5 4 10 -3 6 -8 10 -11 10 -2 0
-4 -4 -4 -10z"/>
<path d="M1015 490 c-3 -5 -1 -10 4 -10 6 0 11 5 11 10 0 6 -2 10 -4 10 -3 0
-8 -4 -11 -10z"/>
<path d="M1050 480 c8 -5 20 -10 25 -10 6 0 3 5 -5 10 -8 5 -19 10 -25 10 -5
0 -3 -5 5 -10z"/>
<path d="M1070 452 c0 -5 10 -12 22 -15 18 -5 19 -8 8 -21 -7 -10 -8 -16 -2
-16 6 0 13 6 15 13 3 6 6 -4 7 -23 2 -33 3 -33 10 -10 8 23 9 24 15 5 3 -11
18 -26 32 -32 l26 -13 -24 27 c-51 56 -109 102 -109 85z"/>
<path d="M1477 453 c-4 -3 -7 -11 -7 -17 0 -6 5 -5 12 2 6 6 9 14 7 17 -3 3
-9 2 -12 -2z"/>
<path d="M1050 420 c0 -5 5 -10 10 -10 6 0 10 5 10 10 0 6 -4 10 -10 10 -5 0
-10 -4 -10 -10z"/>
<path d="M1440 420 c0 -5 5 -10 10 -10 6 0 10 5 10 10 0 6 -4 10 -10 10 -5 0
-10 -4 -10 -10z"/>
<path d="M1402 380 c-7 -11 -8 -20 -3 -20 9 0 24 30 18 36 -1 2 -8 -6 -15 -16z"/>
<path d="M1395 340 c-3 -5 1 -10 10 -10 9 0 13 5 10 10 -3 6 -8 10 -10 10 -2
0 -7 -4 -10 -10z"/>
<path d="M1201 314 c0 -11 3 -14 6 -6 3 7 2 16 -1 19 -3 4 -6 -2 -5 -13z"/>
<path d="M1328 310 c-16 -26 -73 -27 -87 -2 -10 16 -10 16 -11 0 0 -9 5 -20
11 -23 17 -11 83 -8 87 4 2 6 10 18 19 26 8 8 10 15 4 15 -6 0 -16 -9 -23 -20z"/>
<path d="M1205 270 c9 -14 83 -32 105 -25 34 11 22 21 -21 17 -22 -3 -46 1
-52 7 -14 14 -40 15 -32 1z"/>
</g>
</svg>
