<?xml version="1.0" standalone="no"?>
<!DOCTYPE svg PUBLIC "-//W3C//DTD SVG 20010904//EN"
 "http://www.w3.org/TR/2001/REC-SVG-20010904/DTD/svg10.dtd">
<svg version="1.0" xmlns="http://www.w3.org/2000/svg"
 width="180.000000pt" height="180.000000pt" viewBox="0 0 180.000000 180.000000"
 preserveAspectRatio="xMidYMid meet">
<metadata>
Created by potrace 1.16, written by Peter Selinger 2001-2019
</metadata>
<g transform="translate(0.000000,180.000000) scale(0.100000,-0.100000)"
fill="#000000" stroke="none">
<path d="M821 1414 c-204 -191 -323 -396 -352 -601 -40 -289 186 -532 476
-510 126 9 238 71 317 175 67 88 92 175 86 294 -3 49 -10 94 -15 99 -10 10
-121 -49 -143 -76 -23 -27 7 -22 63 11 39 23 59 30 62 21 13 -42 14 -95 5
-149 -41 -225 -255 -381 -472 -347 -56 9 -237 85 -238 99 0 3 28 4 63 2 181
-12 374 103 459 273 61 121 71 251 31 415 -16 66 -71 200 -82 200 -3 0 -11
-10 -17 -23 -6 -12 -28 -52 -48 -90 -24 -42 -36 -74 -31 -84 5 -13 15 -1 44
50 54 97 55 97 80 30 45 -122 60 -251 43 -377 l-7 -48 -157 -92 c-180 -105
-205 -121 -197 -130 3 -4 77 34 163 83 86 49 156 86 156 82 0 -18 -65 -104
-107 -141 -68 -60 -126 -90 -218 -112 -67 -17 -95 -19 -136 -12 l-51 9 73 42
c219 125 314 353 288 695 -8 108 -32 246 -48 276 -6 10 -31 -9 -90 -64z m92
-71 c15 -86 32 -227 30 -250 -1 -15 -341 -601 -353 -608 -14 -8 -68 96 -86
166 -40 156 30 372 186 575 49 62 187 204 199 204 5 0 16 -39 24 -87z m22
-360 c-21 -147 -73 -267 -153 -355 -51 -55 -118 -105 -128 -96 -4 4 277 497
284 498 2 0 0 -21 -3 -47z"/>
</g>
</svg>
