<?xml version="1.0" standalone="no"?>
<!DOCTYPE svg PUBLIC "-//W3C//DTD SVG 20010904//EN"
 "http://www.w3.org/TR/2001/REC-SVG-20010904/DTD/svg10.dtd">
<svg version="1.0" xmlns="http://www.w3.org/2000/svg"
 width="64.000000pt" height="64.000000pt" viewBox="0 0 64.000000 64.000000"
 preserveAspectRatio="xMidYMid meet">
<metadata>
Created by potrace 1.16, written by Peter Selinger 2001-2019
</metadata>
<g transform="translate(0.000000,64.000000) scale(0.100000,-0.100000)"
fill="#000000" stroke="none">
<path d="M152 622 c-49 -26 -108 -88 -131 -136 -18 -36 -21 -62 -21 -164 0
-142 8 -169 71 -237 54 -58 105 -85 161 -84 l43 0 -40 13 c-22 7 -54 20 -71
29 -49 25 -121 112 -139 168 -24 70 -17 188 13 250 39 80 124 149 207 170 27
6 25 7 -15 8 -25 0 -60 -8 -78 -17z"/>
<path d="M417 626 c109 -34 185 -117 213 -231 7 -28 8 -27 9 13 2 77 -45 151
-128 204 -33 21 -57 28 -90 27 l-46 0 42 -13z"/>
<path d="M233 559 c-168 -83 -162 -322 9 -393 55 -23 59 -20 33 27 -46 79 -23
167 43 167 86 0 106 -113 34 -194 -17 -19 -16 -19 18 -12 138 26 210 199 135
321 -58 93 -179 130 -272 84z m182 -33 c57 -34 98 -102 98 -161 0 -51 -39
-123 -83 -155 l-29 -21 11 31 c16 47 4 121 -22 142 -33 27 -113 25 -140 -4
-18 -20 -21 -33 -18 -91 2 -37 0 -67 -3 -67 -4 0 -23 18 -42 39 -42 47 -62
105 -53 155 9 49 62 115 116 144 55 29 100 26 165 -12z"/>
<path d="M622 226 c-28 -106 -123 -194 -237 -219 -11 -3 0 -5 23 -6 55 -1 106
22 157 74 53 53 77 104 73 158 l-3 42 -13 -49z"/>
</g>
</svg>
