<?xml version="1.0" standalone="no"?>
<!DOCTYPE svg PUBLIC "-//W3C//DTD SVG 20010904//EN"
 "http://www.w3.org/TR/2001/REC-SVG-20010904/DTD/svg10.dtd">
<svg version="1.0" xmlns="http://www.w3.org/2000/svg"
 width="192.000000pt" height="192.000000pt" viewBox="0 0 192.000000 192.000000"
 preserveAspectRatio="xMidYMid meet">
<metadata>
Created by potrace 1.16, written by Peter Selinger 2001-2019
</metadata>
<g transform="translate(0.000000,192.000000) scale(0.100000,-0.100000)"
fill="#000000" stroke="none">
<path d="M95 1853 c-11 -3 -23 -10 -27 -17 -10 -14 -9 -288 0 -341 6 -31 12
-41 30 -43 20 -3 22 -9 22 -60 0 -31 3 -74 6 -94 6 -32 11 -38 30 -38 24 0 24
-1 24 -109 0 -84 3 -111 15 -121 8 -7 15 -27 15 -45 0 -18 6 -38 14 -44 7 -6
16 -37 20 -68 6 -48 4 -59 -14 -75 -35 -32 -26 -75 24 -122 23 -23 46 -49 49
-58 4 -11 17 -18 32 -18 29 0 34 -23 10 -46 -8 -9 -15 -30 -15 -48 0 -19 7
-39 15 -46 8 -7 15 -27 15 -44 0 -36 15 -56 42 -56 22 0 24 -26 3 -46 -10 -10
-15 -35 -15 -76 0 -57 2 -62 43 -104 41 -43 44 -44 106 -44 48 0 70 5 84 18
17 15 49 17 344 17 299 0 325 -1 334 -17 6 -12 22 -18 44 -18 26 0 43 10 80
45 39 38 46 51 43 78 -2 18 3 36 10 42 8 6 16 40 19 75 4 36 13 71 21 79 8 9
12 27 10 48 -3 21 0 33 8 33 12 0 22 63 27 180 2 52 4 55 30 58 l27 3 0 89 c0
84 1 89 22 92 28 4 36 31 37 127 1 66 4 76 27 96 23 20 26 31 31 121 6 91 8
101 32 121 23 21 26 31 30 107 3 77 5 85 24 88 24 3 34 31 36 93 1 22 8 49 16
59 22 29 18 67 -10 101 l-25 30 -249 0 c-137 0 -253 -3 -257 -8 -4 -4 -9 -32
-12 -62 -4 -49 -7 -55 -27 -55 -19 0 -23 -7 -29 -46 -3 -26 -6 -72 -6 -102 0
-46 -4 -58 -25 -76 -16 -14 -28 -37 -32 -62 -4 -21 -12 -45 -20 -52 -7 -7 -13
-30 -13 -51 0 -20 -5 -42 -12 -49 -6 -6 -13 -56 -16 -117 -4 -101 -6 -105 -27
-105 -19 0 -23 -7 -29 -46 -3 -26 -6 -72 -6 -102 0 -47 -4 -58 -27 -78 -23
-20 -28 -32 -31 -91 -3 -37 -10 -73 -18 -80 -7 -7 -33 -13 -58 -13 -38 0 -46
4 -52 23 -4 12 -18 32 -31 45 -22 20 -23 24 -9 38 20 19 21 68 1 84 -7 6 -17
31 -21 55 -4 30 -13 49 -29 59 -19 13 -23 25 -28 110 -5 84 -9 100 -31 127
-21 24 -26 41 -26 82 0 29 -7 65 -15 81 -8 15 -15 38 -15 51 0 12 -7 28 -15
35 -8 7 -15 29 -15 49 0 20 -3 53 -6 74 -5 30 -11 37 -29 37 -21 0 -23 4 -27
106 -4 81 -9 109 -22 122 -15 15 -45 17 -239 19 -122 1 -231 -1 -242 -4z m461
-35 c13 -13 18 -41 22 -122 4 -102 6 -106 27 -106 18 0 24 -7 29 -37 3 -21 6
-54 6 -74 0 -20 7 -42 15 -49 8 -7 15 -23 15 -35 0 -13 7 -36 15 -51 8 -16 15
-52 15 -81 0 -41 5 -58 26 -82 22 -27 26 -43 31 -127 5 -84 9 -97 28 -110 15
-10 25 -29 29 -57 4 -23 14 -49 22 -58 14 -16 10 -49 -7 -49 -19 0 -8 -52 15
-73 13 -12 26 -32 30 -44 7 -21 14 -23 72 -23 40 0 70 5 78 13 8 7 15 43 18
80 3 59 8 71 31 91 23 20 27 31 27 78 0 30 3 76 6 102 6 40 10 46 30 46 23 0
24 3 25 83 2 104 9 137 34 151 11 6 22 12 24 13 2 2 -4 12 -13 22 -17 19 -15
61 3 61 5 0 11 19 14 42 4 27 14 49 31 63 22 19 26 31 26 77 0 30 3 76 6 102
6 39 10 46 29 46 20 0 23 6 27 55 3 30 8 58 12 62 9 10 353 17 419 9 44 -6 58
-12 76 -37 21 -28 21 -32 7 -54 -9 -13 -16 -41 -17 -62 -2 -60 -13 -88 -36
-91 -19 -3 -21 -11 -24 -88 -4 -76 -7 -86 -30 -107 -24 -20 -26 -30 -32 -121
-5 -89 -8 -101 -30 -120 -22 -19 -25 -31 -29 -112 -6 -101 -10 -114 -39 -114
-17 0 -19 -8 -20 -77 -1 -43 -1 -83 0 -90 1 -6 -11 -13 -26 -15 -27 -3 -28 -6
-30 -58 -2 -30 -5 -83 -9 -117 -5 -54 -8 -62 -30 -67 -28 -7 -30 -18 -9 -36
19 -15 19 -25 1 -42 -7 -8 -16 -42 -19 -76 -7 -73 -11 -82 -38 -82 -23 0 -25
-22 -4 -40 22 -19 19 -27 -31 -75 -50 -49 -68 -55 -83 -27 -9 16 -36 17 -354
17 -314 0 -347 -2 -364 -17 -13 -12 -36 -18 -64 -18 -39 0 -49 5 -86 44 -36
37 -43 51 -43 84 0 23 7 47 15 56 8 8 15 31 15 50 0 29 -4 36 -19 36 -24 0
-35 16 -37 53 -1 15 -9 36 -19 47 -17 19 -13 60 6 60 5 0 9 18 9 40 0 36 -2
40 -25 40 -15 0 -28 7 -32 17 -3 10 -26 36 -49 59 -24 22 -44 46 -44 52 0 20
31 42 61 42 34 0 39 17 7 22 -20 3 -24 12 -33 69 -5 36 -16 73 -23 82 -14 17
-8 57 9 57 5 0 9 5 9 10 0 6 -9 10 -19 10 -11 0 -23 6 -28 13 -9 13 -9 14 -11
140 -2 84 -3 87 -26 87 -19 0 -24 6 -30 38 -3 20 -6 63 -6 94 0 51 -2 57 -22
60 -18 2 -24 12 -30 43 -9 53 -10 287 0 301 12 20 42 23 249 21 175 -2 205 -4
219 -19z"/>
</g>
</svg>
