<?xml version="1.0" standalone="no"?>
<!DOCTYPE svg PUBLIC "-//W3C//DTD SVG 20010904//EN"
 "http://www.w3.org/TR/2001/REC-SVG-20010904/DTD/svg10.dtd">
<svg version="1.0" xmlns="http://www.w3.org/2000/svg"
 width="200.000000pt" height="200.000000pt" viewBox="0 0 200.000000 200.000000"
 preserveAspectRatio="xMidYMid meet">
<metadata>
Created by potrace 1.16, written by Peter Selinger 2001-2019
</metadata>
<g transform="translate(0.000000,200.000000) scale(0.100000,-0.100000)"
fill="#000000" stroke="none">
<path d="M675 1976 c-80 -26 -199 -84 -265 -129 -68 -47 -197 -175 -245 -242
-103 -145 -166 -312 -164 -434 l2 -76 7 55 c20 150 81 300 175 435 48 67 177
195 246 242 114 79 299 151 419 163 l65 7 -85 1 c-64 1 -103 -5 -155 -22z"/>
<path d="M1150 1990 c120 -12 305 -84 419 -163 75 -51 209 -186 255 -256 95
-143 149 -282 163 -416 7 -75 13 -68 13 17 0 174 -114 403 -282 564 -97 93
-144 127 -253 182 -121 60 -202 82 -299 81 l-81 -2 65 -7z"/>
<path d="M1236 1574 c-218 -43 -520 -191 -674 -329 -54 -49 -68 -89 -35 -102
18 -7 39 4 181 100 291 196 601 289 749 225 105 -46 135 -120 93 -230 -34 -91
-27 -108 49 -108 43 0 62 17 86 74 72 171 18 320 -132 366 -77 24 -211 26
-317 4z m326 -36 c56 -24 101 -71 118 -124 25 -76 -11 -228 -60 -254 -31 -17
-74 -4 -65 18 28 65 47 152 41 186 -10 51 -69 109 -136 131 -78 26 -237 17
-350 -20 -157 -51 -343 -148 -492 -257 -97 -71 -116 -57 -24 17 203 163 491
295 708 325 89 12 203 3 260 -22z"/>
<path d="M0 828 c0 -177 115 -404 292 -574 86 -83 135 -117 243 -172 118 -59
203 -82 294 -81 l76 2 -67 7 c-37 5 -72 11 -78 15 -5 3 -20 8 -31 10 -65 13
-219 84 -298 137 -66 46 -185 163 -241 238 -90 121 -165 303 -177 425 -7 84
-13 81 -13 -7z"/>
<path d="M1991 870 c-12 -149 -81 -325 -181 -460 -56 -75 -175 -192 -241 -238
-79 -53 -233 -124 -298 -137 -11 -2 -26 -7 -31 -10 -6 -4 -41 -10 -78 -15
l-67 -7 76 -2 c91 -1 176 22 294 81 108 55 157 89 243 172 181 174 297 407
289 577 -1 41 -4 58 -6 39z"/>
<path d="M303 643 c-17 -6 -16 -68 1 -102 21 -40 87 -96 132 -112 25 -9 83
-14 164 -14 153 1 234 21 398 101 l113 55 -3 37 -3 37 -52 3 c-42 2 -61 -2
-105 -27 -72 -40 -207 -86 -296 -101 -134 -22 -227 6 -264 79 -24 47 -48 60
-85 44z m785 -34 c2 -10 -25 -30 -85 -61 -266 -139 -532 -154 -638 -37 -53 59
-70 109 -36 109 11 0 23 -12 31 -30 16 -39 61 -77 108 -90 119 -33 342 13 512
105 50 27 103 29 108 4z"/>
</g>
</svg>
