<?xml version="1.0" standalone="no"?>
<!DOCTYPE svg PUBLIC "-//W3C//DTD SVG 20010904//EN"
 "http://www.w3.org/TR/2001/REC-SVG-20010904/DTD/svg10.dtd">
<svg version="1.0" xmlns="http://www.w3.org/2000/svg"
 width="128.000000pt" height="128.000000pt" viewBox="0 0 128.000000 128.000000"
 preserveAspectRatio="xMidYMid meet">
<metadata>
Created by potrace 1.16, written by Peter Selinger 2001-2019
</metadata>
<g transform="translate(0.000000,128.000000) scale(0.100000,-0.100000)"
fill="#000000" stroke="none">
<path d="M175 740 c-40 -16 -70 -59 -70 -101 0 -31 7 -46 32 -71 27 -27 41
-32 91 -36 42 -3 68 1 90 12 43 22 41 40 -2 19 -62 -29 -126 9 -126 76 1 51
39 91 87 91 40 0 47 -16 23 -50 -12 -17 -21 -33 -19 -35 2 -2 23 8 47 22 35
21 40 28 30 40 -31 38 -129 56 -183 33z m-10 -101 c0 -59 0 -60 -17 -38 -22
26 -23 48 -2 77 8 12 16 22 17 22 1 0 2 -27 2 -61z"/>
<path d="M420 695 l-35 -13 45 -3 c37 -3 46 -8 48 -26 3 -20 1 -21 -27 -10
-26 10 -34 8 -58 -9 -35 -26 -40 -57 -14 -83 24 -24 69 -27 97 -6 25 19 34 19
34 0 0 -10 10 -15 34 -15 l34 0 -24 80 c-12 44 -26 85 -29 90 -8 14 -63 11
-105 -5z m116 -133 c-5 -5 -26 59 -25 77 0 9 7 -4 14 -29 8 -24 13 -46 11 -48z
m-51 28 c0 -18 -6 -26 -23 -28 -13 -2 -25 3 -28 12 -10 26 4 48 28 44 17 -2
23 -10 23 -28z"/>
<path d="M580 695 c-25 -14 -25 -14 -2 -15 21 0 22 -4 22 -75 l0 -75 30 0 29
0 3 73 c2 56 6 72 18 72 12 0 15 -15 15 -73 l0 -72 33 0 32 0 0 85 c0 96 -8
108 -64 87 -20 -8 -34 -8 -40 -2 -14 14 -47 12 -76 -5z m60 -75 c0 -33 -4 -60
-10 -60 -6 0 -10 27 -10 60 0 33 4 60 10 60 6 0 10 -27 10 -60z m100 0 c0 -33
-4 -60 -10 -60 -6 0 -10 27 -10 60 0 33 4 60 10 60 6 0 10 -27 10 -60z"/>
<path d="M832 703 c-18 -7 -42 -57 -42 -88 0 -40 50 -85 95 -85 78 0 116 99
60 155 -23 24 -77 33 -113 18z m70 -77 c13 -48 16 -72 8 -80 -15 -15 -36 11
-49 66 -16 67 -14 90 5 86 11 -2 23 -26 36 -72z m44 -14 c-9 -8 -14 0 -21 33
l-6 30 16 -28 c9 -16 14 -31 11 -35z m-107 -20 c1 -7 -3 -10 -9 -7 -5 3 -10
18 -9 33 0 24 1 25 9 7 5 -11 9 -26 9 -33z"/>
<path d="M995 695 c-27 -12 -28 -13 -7 -14 21 -1 22 -5 22 -76 l0 -75 33 0 32
0 0 72 c0 58 3 73 15 73 12 0 16 -16 18 -72 l3 -73 29 0 30 0 0 85 c0 96 -8
108 -64 87 -20 -8 -34 -8 -40 -2 -13 13 -35 12 -71 -5z m55 -75 c0 -33 -4 -60
-10 -60 -6 0 -10 27 -10 60 0 33 4 60 10 60 6 0 10 -27 10 -60z m100 0 c0 -33
-4 -60 -10 -60 -6 0 -10 27 -10 60 0 33 4 60 10 60 6 0 10 -27 10 -60z"/>
</g>
</svg>
