<?xml version="1.0" standalone="no"?>
<!DOCTYPE svg PUBLIC "-//W3C//DTD SVG 20010904//EN"
 "http://www.w3.org/TR/2001/REC-SVG-20010904/DTD/svg10.dtd">
<svg version="1.0" xmlns="http://www.w3.org/2000/svg"
 width="256.000000pt" height="256.000000pt" viewBox="0 0 256.000000 256.000000"
 preserveAspectRatio="xMidYMid meet">
<metadata>
Created by potrace 1.16, written by Peter Selinger 2001-2019
</metadata>
<g transform="translate(0.000000,256.000000) scale(0.100000,-0.100000)"
fill="#000000" stroke="none">
<path d="M1364 2303 c-6 -5 -14 -19 -18 -33 -4 -14 -45 -104 -91 -200 -47 -96
-92 -204 -101 -240 -22 -82 -21 -225 1 -300 9 -30 16 -60 17 -67 1 -6 7 -9 14
-6 8 3 14 -10 19 -36 4 -23 10 -41 14 -41 5 0 7 -55 6 -122 -2 -129 -10 -160
-86 -348 -31 -76 -30 -228 0 -355 12 -49 27 -145 33 -212 l11 -123 33 0 c20 0
34 6 38 16 5 14 -11 201 -19 214 -8 13 -45 264 -45 305 0 61 18 140 47 205 43
97 63 204 59 313 -2 53 -8 103 -13 110 -6 6 -9 41 -7 77 1 36 -4 90 -12 121
-32 130 -16 208 87 427 74 157 107 257 93 280 -12 18 -62 27 -80 15z m62 -55
c-4 -24 -11 -44 -16 -46 -6 -2 -10 -14 -10 -27 0 -13 -5 -27 -10 -30 -6 -4 -8
-10 -5 -15 2 -4 -6 -24 -20 -44 -32 -47 -57 -96 -49 -96 3 0 -4 -15 -16 -34
-11 -19 -33 -67 -47 -108 -34 -93 -36 -202 -5 -297 23 -70 19 -85 -21 -89 -25
-2 -56 23 -44 35 4 3 2 13 -5 20 -8 10 -12 61 -12 146 -1 145 8 182 81 337 20
41 35 79 34 83 -1 5 4 5 10 1 9 -5 10 -2 6 9 -5 13 0 15 27 13 23 -3 33 1 33
10 0 16 -23 19 -32 4 -4 -6 -11 -8 -16 -4 -6 3 1 25 16 51 14 25 25 53 25 63
0 9 3 20 8 24 4 4 8 12 8 17 1 5 2 11 3 14 0 3 15 5 32 5 31 0 32 0 25 -42z
m-165 -806 c1 -4 3 -22 5 -40 2 -30 1 -31 -14 -14 -10 9 -14 13 -9 8 13 -17 7
-28 -7 -13 -12 12 -21 40 -17 57 2 8 41 10 42 2z m15 -117 c6 -20 7 -35 2 -35
-5 0 -7 -4 -4 -8 3 -5 -1 -9 -9 -9 -8 0 -12 4 -9 9 3 4 0 8 -7 8 -7 0 -4 7 7
16 10 8 14 13 8 10 -11 -5 -24 14 -24 35 0 24 26 5 36 -26z m6 -111 c3 -26 0
-38 -13 -45 -12 -6 -20 -5 -25 3 -4 7 -3 8 4 4 7 -4 12 -2 12 4 0 6 5 8 12 4
7 -4 8 -3 4 5 -4 6 -12 9 -17 6 -10 -7 -13 48 -3 58 12 12 22 -3 26 -39z m-12
-83 c-4 -16 -5 -33 -2 -37 4 -5 -1 -2 -11 5 -15 12 -17 12 -14 0 2 -8 2 -11 0
-6 -8 13 -22 -3 -17 -18 3 -8 12 -11 21 -8 9 4 14 2 11 -3 -9 -17 -21 -49 -25
-68 -2 -11 -6 -22 -10 -25 -3 -3 -4 3 -1 15 3 12 0 21 -6 21 -6 0 -12 -14 -13
-31 -2 -34 -25 -135 -34 -151 -3 -5 -5 -27 -4 -48 1 -23 -4 -42 -14 -50 -12
-9 -13 -9 -7 1 4 6 2 12 -3 12 -6 0 -11 11 -11 25 0 14 4 25 9 25 6 0 8 -9 6
-20 -2 -11 0 -22 4 -24 4 -3 7 7 5 22 -1 15 -3 27 -4 27 -1 0 -3 13 -5 30 -1
16 11 60 27 97 15 37 28 71 27 75 -3 18 2 34 9 30 4 -3 8 9 8 26 2 43 24 95
44 101 8 2 16 4 17 5 1 0 -2 -12 -7 -28z m-109 -438 c13 -16 12 -17 -3 -4 -10
7 -18 15 -18 17 0 8 8 3 21 -13z m34 -165 c28 -145 38 -277 20 -278 -5 0 -13
37 -17 83 -5 68 -29 220 -52 329 -2 10 1 15 9 12 7 -3 24 -64 40 -146z"/>
<path d="M1373 2243 c-3 -10 -7 -21 -9 -24 -2 -3 3 -6 11 -6 8 0 15 5 15 11 0
6 5 4 10 -4 5 -8 10 -10 10 -4 0 5 -6 16 -12 23 -10 11 -10 13 0 7 6 -4 12 -2
12 3 0 18 -30 12 -37 -6z"/>
<path d="M1350 2159 c0 -5 5 -7 10 -4 6 3 10 8 10 11 0 2 -4 4 -10 4 -5 0 -10
-5 -10 -11z"/>
<path d="M1300 2050 c-9 -6 -10 -10 -3 -10 6 0 15 5 18 10 8 12 4 12 -15 0z"/>
<path d="M1251 1924 c0 -11 3 -14 6 -6 3 7 2 16 -1 19 -3 4 -6 -2 -5 -13z"/>
<path d="M1185 1620 c-3 -5 1 -10 10 -10 9 0 13 5 10 10 -3 6 -8 10 -10 10 -2
0 -7 -4 -10 -10z"/>
<path d="M1190 1586 c0 -2 7 -6 15 -10 8 -3 15 -1 15 4 0 6 -7 10 -15 10 -8 0
-15 -2 -15 -4z"/>
<path d="M1190 1556 c0 -2 9 -6 20 -9 11 -3 20 -1 20 4 0 5 -9 9 -20 9 -11 0
-20 -2 -20 -4z"/>
<path d="M1200 1526 c0 -9 30 -14 35 -6 4 6 -3 10 -14 10 -12 0 -21 -2 -21 -4z"/>
<path d="M1199 1494 c-8 -10 -4 -12 22 -9 41 6 46 11 14 17 -14 3 -30 -1 -36
-8z"/>
<path d="M1202 2280 c-12 -11 -25 -33 -29 -48 -3 -15 -39 -93 -78 -174 -94
-191 -117 -264 -118 -370 0 -79 24 -209 44 -234 5 -6 6 -14 2 -17 -3 -4 1 -7
10 -7 23 0 32 -55 31 -195 0 -119 -1 -121 -49 -245 -57 -150 -68 -244 -41
-375 30 -147 46 -260 46 -327 l0 -68 35 0 35 0 0 86 c0 56 -10 132 -27 213
-18 89 -26 157 -26 231 -1 95 2 112 30 180 59 144 73 204 73 314 0 55 -4 118
-9 138 -5 22 -5 40 1 46 6 6 0 51 -16 124 -14 64 -26 129 -26 145 0 50 29 144
77 248 84 184 122 280 123 306 0 50 -48 66 -88 29z m68 -22 c0 -37 -12 -68
-22 -62 -6 4 -8 -2 -3 -15 4 -14 2 -21 -6 -21 -7 0 -9 -3 -6 -6 3 -4 1 -16 -5
-28 -7 -11 -11 -24 -10 -28 1 -5 -3 -8 -9 -8 -5 0 -8 -4 -5 -8 2 -4 -9 -28
-25 -52 -16 -24 -32 -55 -36 -69 -3 -15 -12 -35 -19 -46 -47 -74 -67 -224 -43
-325 6 -25 12 -52 14 -61 2 -9 8 -34 14 -54 6 -21 8 -42 5 -47 -8 -12 -48 -10
-62 4 -17 17 -15 33 2 18 8 -6 25 -10 38 -7 22 4 22 4 -2 6 -39 3 -55 21 -68
81 -32 139 -25 230 26 370 25 68 121 273 131 280 4 3 8 16 8 28 3 38 31 72 58
72 19 0 25 -5 25 -22z m-160 -860 c0 -11 -22 -10 -40 2 -11 8 -9 9 13 8 15 -1
27 -6 27 -10z m5 -156 c0 -115 -9 -159 -55 -267 -60 -142 -63 -264 -14 -475 8
-36 17 -109 21 -162 5 -87 4 -98 -11 -98 -13 0 -16 12 -16 68 0 66 -13 155
-45 322 -10 52 -15 111 -12 150 4 63 14 97 72 245 24 61 28 87 31 206 2 76 4
141 4 145 0 4 6 2 13 -5 8 -8 12 -49 12 -129z"/>
<path d="M1203 2221 c-10 -15 -10 -21 0 -24 18 -6 47 11 47 28 0 22 -33 18
-47 -4z"/>
<path d="M1163 2108 c-11 -19 -13 -39 -2 -32 5 3 6 11 2 17 -4 7 0 6 10 -2 15
-12 17 -11 17 8 0 23 -14 28 -27 9z"/>
<path d="M1075 1901 c-3 -5 -2 -12 3 -15 5 -3 9 1 9 9 0 17 -3 19 -12 6z"/>
<path d="M1035 1580 c3 -5 10 -10 16 -10 5 0 9 5 9 10 0 6 -7 10 -16 10 -8 0
-12 -4 -9 -10z"/>
<path d="M1040 1540 c0 -5 7 -7 15 -4 8 4 15 8 15 10 0 2 -7 4 -15 4 -8 0 -15
-4 -15 -10z"/>
<path d="M1045 1509 c7 -11 35 -12 35 -1 0 4 -9 8 -20 9 -11 1 -18 -2 -15 -8z"/>
<path d="M1054 1482 c4 -3 14 -7 22 -8 9 -1 13 0 10 4 -4 3 -14 7 -22 8 -9 1
-13 0 -10 -4z"/>
<path d="M1517 2282 c-10 -10 -17 -21 -17 -25 0 -3 -38 -84 -85 -181 -130
-269 -145 -347 -103 -543 21 -101 33 -126 40 -80 2 15 10 22 25 22 12 0 24 3
27 6 3 3 -9 5 -27 5 l-32 -1 -18 85 c-28 135 -10 247 64 393 16 33 26 64 22
69 -3 6 -1 8 4 5 10 -6 50 79 45 96 -1 4 3 7 9 7 5 0 7 5 4 10 -3 6 -1 10 6
10 7 0 9 3 6 7 -4 3 1 12 11 19 13 9 20 10 31 1 11 -9 13 -9 8 -1 -4 7 0 14 8
18 20 7 19 36 0 36 -14 0 -20 -13 -15 -35 1 -5 -2 -7 -6 -3 -4 4 -13 3 -20 -3
-9 -8 -9 1 3 30 9 22 20 38 26 34 6 -3 7 -1 3 5 -5 8 2 12 18 12 23 0 26 -4
26 -33 0 -18 -7 -43 -16 -55 -8 -12 -12 -22 -8 -22 3 0 1 -6 -5 -13 -6 -8 -8
-17 -4 -20 3 -4 1 -7 -6 -7 -7 0 -10 -4 -7 -9 3 -4 -8 -29 -25 -55 -16 -26
-25 -45 -19 -41 6 3 -4 -18 -21 -47 -17 -29 -32 -57 -33 -63 -1 -5 -7 -19 -13
-30 -52 -95 -55 -252 -7 -378 17 -46 17 -50 2 -41 -10 6 -10 5 -1 -7 8 -9 9
-20 3 -29 -6 -8 -10 -19 -10 -25 0 -5 5 -3 10 5 7 10 10 11 10 2 0 -16 -25
-26 -41 -17 -8 6 -7 10 2 16 11 7 10 9 -3 9 -10 0 -18 4 -18 9 0 5 8 12 18 14
13 4 11 5 -5 6 -26 1 -26 0 -9 -95 22 -122 4 -250 -55 -385 -58 -134 -59 -235
-8 -488 11 -51 22 -131 26 -177 l6 -84 29 0 c18 0 31 6 35 17 8 20 -16 210
-47 383 -27 146 -22 198 36 352 51 137 65 233 53 353 -5 44 -11 88 -13 97 -2
10 0 21 5 24 11 6 7 28 -15 103 -20 67 -21 214 -2 267 7 22 39 95 71 164 105
228 121 280 93 308 -18 18 -53 15 -71 -6z m-88 -1014 c3 -85 -17 -214 -39
-243 -4 -5 -10 -19 -13 -30 -3 -11 -14 -44 -25 -73 -40 -103 -37 -193 12 -468
20 -106 24 -206 10 -211 -7 -2 -13 27 -18 82 -3 48 -10 105 -16 128 -19 89
-50 277 -50 309 0 45 34 173 54 203 40 61 75 283 58 362 -10 44 -5 60 12 43 6
-6 13 -52 15 -102z"/>
<path d="M1506 2148 c3 -5 10 -6 15 -3 13 9 11 12 -6 12 -8 0 -12 -4 -9 -9z"/>
<path d="M1475 2094 c-16 -25 -16 -25 4 -14 12 6 21 17 21 25 0 21 -5 19 -25
-11z"/>
<path d="M1385 1901 c-3 -5 -2 -12 3 -15 5 -3 9 1 9 9 0 17 -3 19 -12 6z"/>
<path d="M1344 1726 c1 -8 5 -18 8 -22 4 -3 5 1 4 10 -1 8 -5 18 -8 22 -4 3
-5 -1 -4 -10z"/>
<path d="M1346 1623 c-6 -14 -5 -15 5 -6 7 7 10 15 7 18 -3 3 -9 -2 -12 -12z"/>
<path d="M1345 1580 c4 -6 11 -8 16 -5 14 9 11 15 -7 15 -8 0 -12 -5 -9 -10z"/>
<path d="M1356 1552 c-3 -5 1 -9 9 -9 8 0 12 4 9 9 -3 4 -7 8 -9 8 -2 0 -6 -4
-9 -8z"/>
<path d="M1461 1384 c0 -11 3 -14 6 -6 3 7 2 16 -1 19 -3 4 -6 -2 -5 -13z"/>
<path d="M1203 1250 c0 -36 2 -50 4 -32 2 17 2 47 0 65 -2 17 -4 3 -4 -33z"/>
<path d="M1163 1245 c0 -33 2 -45 4 -27 2 18 2 45 0 60 -2 15 -4 0 -4 -33z"/>
<path d="M1053 750 c0 -30 2 -43 4 -27 2 15 2 39 0 55 -2 15 -4 2 -4 -28z"/>
<path d="M1061 634 c0 -11 3 -14 6 -6 3 7 2 16 -1 19 -3 4 -6 -2 -5 -13z"/>
<path d="M1261 604 c0 -11 3 -14 6 -6 3 7 2 16 -1 19 -3 4 -6 -2 -5 -13z"/>
<path d="M1113 290 c0 -47 2 -66 4 -42 2 23 2 61 0 85 -2 23 -4 4 -4 -43z"/>
<path d="M1153 260 c0 -25 2 -35 4 -22 2 12 2 32 0 45 -2 12 -4 2 -4 -23z"/>
</g>
</svg>
