<?xml version="1.0" standalone="no"?>
<!DOCTYPE svg PUBLIC "-//W3C//DTD SVG 20010904//EN"
 "http://www.w3.org/TR/2001/REC-SVG-20010904/DTD/svg10.dtd">
<svg version="1.0" xmlns="http://www.w3.org/2000/svg"
 width="192.000000pt" height="192.000000pt" viewBox="0 0 192.000000 192.000000"
 preserveAspectRatio="xMidYMid meet">
<metadata>
Created by potrace 1.16, written by Peter Selinger 2001-2019
</metadata>
<g transform="translate(0.000000,192.000000) scale(0.100000,-0.100000)"
fill="#000000" stroke="none">
<path d="M596 1744 c-18 -17 -21 -123 -6 -159 8 -19 9 -19 9 2 1 16 6 20 21
16 28 -7 26 -41 -2 -46 l-23 -4 23 -2 c25 -1 31 -31 6 -31 -22 0 -44 -25 -44
-49 0 -12 -8 -21 -22 -24 l-23 -4 23 -2 c15 -1 22 -7 22 -21 0 -26 -40 -28
-41 -2 0 15 -1 15 -8 -2 -4 -11 -16 -23 -27 -27 -17 -7 -17 -8 -1 -8 25 -1 23
-41 -3 -41 -12 0 -20 7 -21 18 0 15 -1 15 -8 -2 -4 -11 -16 -23 -27 -27 -17
-7 -17 -8 -1 -8 10 -1 17 -9 17 -21 0 -26 -40 -28 -41 -2 -1 28 -17 -17 -18
-50 -1 -24 -5 -28 -31 -28 -26 0 -30 -3 -30 -29 0 -24 -5 -30 -30 -34 -29 -6
-30 -8 -30 -61 0 -52 -1 -55 -27 -58 l-28 -3 -3 -221 c-1 -124 2 -232 7 -245
9 -23 10 -23 10 -2 1 16 6 20 21 16 28 -7 26 -41 -2 -46 -23 -4 -23 -4 -1 -6
17 -1 22 -8 25 -33 2 -28 8 -34 31 -36 23 -3 27 -8 27 -33 0 -26 3 -29 30 -29
27 0 30 -3 30 -30 0 -27 3 -30 29 -30 25 0 30 -4 33 -27 3 -26 6 -28 60 -31
53 -3 57 -5 60 -30 3 -27 4 -27 91 -30 66 -2 87 -6 87 -17 0 -7 7 -21 16 -29
12 -13 38 -16 132 -15 64 1 128 5 142 9 15 5 -33 8 -122 9 -141 1 -148 2 -148
21 0 17 7 20 49 20 30 0 52 -5 55 -12 5 -11 7 -11 12 0 3 6 18 12 34 12 16 0
31 -6 34 -12 5 -11 7 -11 12 0 3 6 14 12 24 12 10 0 21 -6 23 -12 4 -10 6 -10
6 0 1 19 49 15 54 -6 4 -16 5 -16 6 1 1 15 12 17 80 17 95 0 111 5 111 36 0
21 5 23 58 26 54 3 57 4 60 30 3 23 9 28 30 29 33 1 77 17 50 18 -11 1 -18 9
-18 21 0 26 40 28 41 3 0 -16 1 -16 8 1 4 11 16 23 27 27 17 7 17 8 2 8 -11 1
-18 9 -18 21 0 26 40 28 41 3 1 -28 17 16 18 49 1 21 6 27 29 30 25 3 27 6 30
60 3 53 5 57 30 60 l27 3 0 225 0 225 -27 3 c-25 3 -27 7 -30 60 -3 54 -5 57
-30 60 -25 3 -28 7 -28 43 0 50 -15 79 -40 79 -13 0 -20 7 -20 18 0 23 -19 42
-42 42 -11 0 -18 7 -18 18 0 23 -19 42 -42 42 -11 0 -18 7 -18 20 0 25 -29 40
-79 40 -36 0 -40 3 -43 28 -2 22 -8 28 -35 30 -23 2 -33 9 -36 25 l-4 22 -2
-22 c-1 -16 -7 -23 -21 -23 -26 0 -28 40 -2 41 43 1 -27 18 -80 18 -54 1 -58
3 -58 25 0 31 -15 36 -110 36 -66 0 -79 3 -83 18 -4 16 -5 16 -6 0 0 -10 -8
-18 -17 -18 -9 0 -23 8 -30 18 -13 16 -13 16 -14 0 0 -21 -35 -25 -44 -5 -5
10 -7 10 -12 0 -8 -18 -62 -16 -66 2 -2 11 -9 8 -27 -10 -18 -20 -20 -25 -7
-25 11 0 16 -9 16 -30 0 -23 -4 -30 -20 -30 -18 0 -20 7 -20 60 l0 60 118 1
c74 0 110 4 97 9 -11 5 -61 9 -112 9 -71 1 -95 -3 -107 -15z m364 -88 c0 -19
-4 -23 -20 -19 -11 3 -20 9 -20 14 0 5 -4 9 -10 9 -5 0 -10 -6 -10 -14 0 -9
-7 -12 -20 -9 -11 3 -20 9 -20 14 0 5 -4 9 -10 9 -5 0 -10 -6 -10 -14 0 -9 -7
-12 -20 -9 -11 3 -20 9 -20 14 0 5 -4 9 -10 9 -5 0 -10 -9 -10 -20 0 -19 7
-20 180 -20 173 0 180 -1 180 -20 0 -25 -28 -26 -46 -2 -12 16 -13 15 -14 -5
0 -16 -5 -20 -20 -16 -11 3 -20 9 -20 14 0 5 -4 9 -10 9 -5 0 -10 -9 -10 -20
0 -19 -7 -20 -120 -20 l-120 0 0 -210 0 -210 -60 0 -60 0 0 30 c0 27 -3 30
-30 30 -27 0 -30 -3 -30 -30 0 -27 -3 -30 -30 -30 l-30 0 0 -120 0 -120 -60 0
-60 0 0 -60 0 -60 90 0 90 0 0 28 c-1 24 -2 25 -14 10 -15 -21 -42 -24 -50 -5
-5 10 -7 9 -12 0 -9 -21 -44 -16 -44 7 0 18 8 20 148 23 93 2 139 6 125 11
-13 5 -23 13 -23 20 0 8 -2 8 -8 0 -4 -6 -19 -13 -34 -16 -24 -5 -28 -2 -28
18 0 23 4 24 60 24 l60 0 0 -60 0 -60 30 0 30 0 0 -120 c0 -113 1 -120 20
-120 24 0 25 6 5 26 -21 22 -19 34 8 34 22 1 22 1 2 16 -17 13 -18 16 -5 25
11 8 12 12 3 16 -16 6 -18 103 -3 103 6 0 10 -13 10 -30 0 -26 4 -30 26 -30
15 0 33 -8 40 -17 12 -16 13 -15 14 10 0 23 -4 27 -30 27 l-30 0 0 300 0 300
60 0 60 0 0 30 0 30 90 0 c89 0 90 0 90 -25 0 -19 -4 -23 -17 -18 -10 4 -23
14 -30 22 -11 14 -12 13 -13 -7 0 -19 -4 -21 -27 -16 -16 4 -31 12 -35 17 -6
10 -38 -13 -38 -27 0 -3 50 -6 110 -6 l110 0 0 -30 c0 -27 3 -30 30 -30 27 0
30 -3 30 -30 0 -27 3 -30 30 -30 l30 0 0 -60 0 -60 -30 0 c-27 0 -30 3 -30 30
l0 30 -150 0 -150 0 0 56 c0 36 -4 53 -10 49 -6 -4 -8 -15 -5 -26 4 -13 2 -19
-9 -19 -19 0 -21 -16 -3 -24 10 -5 10 -7 0 -12 -20 -9 -15 -24 7 -24 16 0 20
-7 20 -30 0 -27 -3 -30 -30 -30 l-30 0 0 116 c0 74 -4 113 -10 109 -5 -3 -10
-28 -10 -56 0 -40 -3 -49 -17 -49 -16 -1 -16 -2 2 -16 17 -13 18 -16 5 -25
-11 -8 -12 -12 -2 -16 18 -7 15 -34 -5 -49 -16 -12 -15 -13 10 -14 23 0 27 -4
27 -30 0 -23 -4 -30 -20 -30 -22 0 -27 -15 -7 -23 9 -4 8 -8 -3 -17 -11 -9
-12 -13 -2 -17 18 -7 15 -34 -5 -49 -16 -12 -15 -13 10 -14 26 0 27 1 27 60
l0 60 180 0 180 0 0 -30 c0 -29 1 -30 50 -30 46 0 66 12 38 23 -9 3 -7 10 7
21 20 15 19 15 -7 16 -24 0 -28 4 -28 30 0 27 3 30 30 30 l30 0 0 -240 0 -240
-25 0 c-19 0 -23 4 -18 18 4 9 14 22 22 29 14 11 12 12 -11 13 -27 0 -28 -1
-28 -60 l0 -60 -55 0 c-30 0 -55 -4 -55 -10 0 -5 7 -10 15 -10 18 0 20 -16 3
-24 -10 -5 -10 -7 0 -12 19 -9 14 -41 -8 -47 -19 -5 -20 0 -20 109 l0 114 -30
0 c-25 0 -30 4 -30 25 0 19 4 23 18 18 9 -4 22 -14 29 -22 11 -14 12 -12 13
12 l0 27 -146 0 c-94 0 -143 -4 -139 -10 3 -5 15 -10 25 -10 10 0 21 -6 23
-12 4 -9 8 -10 14 -2 14 19 43 25 43 9 0 -8 5 -15 10 -15 6 0 10 5 10 10 0 18
40 11 40 -7 1 -17 1 -17 14 0 17 22 22 22 29 -3 5 -19 0 -20 -139 -20 l-144 0
0 -90 0 -90 28 0 c23 1 25 2 11 13 -8 7 -18 20 -22 30 -5 13 -1 17 18 17 21 0
25 -5 25 -30 l0 -30 60 0 60 0 0 -30 0 -30 120 0 120 0 0 30 c0 27 3 30 30 30
27 0 30 3 30 30 0 27 3 30 30 30 27 0 30 3 30 30 0 27 3 30 30 30 l30 0 0 90
c0 83 1 90 20 90 25 0 26 -28 3 -46 -17 -12 -16 -13 4 -14 16 0 20 -5 16 -20
-3 -11 -9 -20 -14 -20 -5 0 -9 -4 -9 -10 0 -5 9 -10 20 -10 19 0 20 -7 20 -90
0 -89 0 -90 -25 -90 -19 0 -23 4 -18 17 4 10 14 23 22 30 14 11 12 12 -11 13
-21 0 -28 5 -28 20 0 24 -6 25 -26 6 -19 -20 -18 -26 6 -26 18 0 20 -7 20 -60
l0 -60 -60 0 c-59 0 -60 -1 -60 -27 1 -24 2 -26 13 -12 7 8 20 18 30 22 13 5
17 1 17 -18 0 -25 -1 -25 -90 -25 -83 0 -90 1 -90 20 0 25 -5 25 -32 0 l-22
-20 27 0 c20 0 27 -5 27 -20 0 -11 5 -20 10 -20 6 0 10 4 10 9 0 5 9 11 20 14
15 4 20 0 20 -14 0 -10 5 -19 10 -19 6 0 10 7 10 15 0 8 9 15 20 15 13 0 20
-7 20 -20 0 -19 -7 -20 -180 -20 -173 0 -180 -1 -180 -20 0 -24 6 -25 26 -5
20 19 34 19 34 0 0 -8 5 -15 10 -15 6 0 10 5 10 10 0 14 37 12 44 -2 5 -11 7
-11 12 0 9 19 44 15 44 -5 1 -17 1 -17 14 0 18 23 46 22 46 -3 0 -20 -7 -20
-330 -20 -323 0 -330 0 -330 20 0 25 28 26 46 3 13 -17 13 -17 14 0 0 20 35
24 44 5 5 -11 7 -11 12 0 7 14 44 16 44 2 0 -5 5 -10 10 -10 6 0 10 7 10 15 0
19 14 19 34 0 20 -20 26 -19 26 5 0 15 7 20 28 21 16 1 20 3 10 6 -10 2 -18
11 -18 19 0 8 -4 14 -10 14 -5 0 -10 -9 -10 -20 0 -19 -7 -20 -180 -20 -173 0
-180 1 -180 20 0 13 7 20 20 20 11 0 20 -7 20 -15 0 -8 5 -15 10 -15 6 0 10 9
10 20 0 24 13 26 34 5 20 -20 26 -19 26 5 0 19 -7 20 -90 20 -89 0 -90 0 -90
25 0 19 4 23 18 18 9 -4 22 -14 29 -22 11 -14 12 -12 13 12 0 23 -4 27 -30 27
-27 0 -30 3 -30 30 0 26 -4 30 -27 30 -24 -1 -26 -2 -12 -13 8 -7 18 -20 22
-29 5 -14 1 -18 -18 -18 -24 0 -25 3 -25 60 0 57 -1 60 -25 60 -14 0 -25 -4
-25 -10 0 -5 6 -10 14 -10 7 0 16 -9 19 -20 4 -16 0 -20 -19 -20 l-24 0 0 300
0 300 25 0 c19 0 23 -4 18 -17 -4 -10 -14 -23 -22 -30 -14 -11 -12 -12 12 -13
l27 0 0 90 c0 88 0 90 24 90 19 0 23 -4 19 -20 -3 -11 -12 -20 -19 -20 -8 0
-14 -4 -14 -10 0 -5 11 -10 25 -10 24 0 25 3 25 60 0 57 1 60 25 60 19 0 23
-4 18 -17 -4 -10 -14 -23 -22 -30 -14 -11 -12 -12 12 -13 26 0 27 1 27 60 l0
60 30 0 c27 0 30 3 30 30 0 27 3 30 30 30 27 0 30 3 30 30 0 27 3 30 30 30
l30 0 0 120 0 120 150 0 150 0 0 -24z m60 4 c0 -13 -7 -20 -19 -20 -10 0 -21
9 -24 20 -4 16 0 20 19 20 17 0 24 -6 24 -20z m240 -124 c0 -19 -4 -23 -20
-19 -11 3 -20 12 -20 19 0 8 -4 14 -10 14 -5 0 -10 -11 -10 -25 0 -24 3 -25
60 -25 57 0 60 -1 60 -25 0 -19 -4 -23 -17 -18 -10 4 -23 14 -30 22 -11 14
-12 12 -13 -11 0 -21 -5 -27 -25 -30 l-24 -3 24 -24 25 -23 0 26 c0 25 2 26
60 26 l60 0 0 -30 c0 -27 3 -30 30 -30 27 0 30 -3 30 -30 0 -27 3 -30 30 -30
l30 0 0 -60 c0 -53 -2 -60 -20 -60 -11 0 -20 -2 -20 -5 0 -3 9 -15 20 -27 l20
-22 0 27 c0 23 4 27 28 27 23 1 25 2 11 13 -8 7 -18 20 -22 30 -5 13 -1 17 18
17 25 0 25 -1 25 -90 0 -83 -1 -90 -20 -90 -24 0 -25 -6 -5 -26 8 -9 15 -20
15 -25 0 -5 -7 -9 -15 -9 -8 0 -15 -4 -15 -10 0 -5 5 -10 10 -10 14 0 12 -37
-2 -44 -10 -5 -10 -7 0 -12 20 -10 15 -44 -8 -44 -19 0 -20 7 -20 120 l0 120
-30 0 -30 0 0 60 c0 53 2 60 20 60 11 0 20 2 20 5 0 3 -9 15 -20 27 l-20 22 0
-27 c0 -23 -4 -27 -30 -27 -27 0 -30 3 -30 30 0 23 4 30 20 30 24 0 25 6 6 26
-20 19 -26 18 -26 -6 0 -16 -7 -20 -30 -20 -27 0 -30 3 -30 30 0 26 4 30 27
30 l27 0 -22 20 c-12 11 -24 20 -27 20 -3 0 -5 -9 -5 -20 0 -18 -7 -20 -60
-20 l-60 0 0 30 0 30 -90 0 c-83 0 -90 1 -90 20 0 13 7 20 20 20 11 0 20 -7
20 -15 0 -8 5 -15 10 -15 6 0 10 9 10 20 0 22 26 17 47 -9 11 -14 12 -12 13
12 0 23 4 27 27 27 l27 0 -22 20 c-12 11 -24 20 -27 20 -3 0 -5 -9 -5 -20 0
-19 -7 -20 -150 -20 l-150 0 0 -180 0 -180 -25 0 c-19 0 -23 4 -18 18 4 9 14
22 22 29 14 11 14 12 -4 13 -18 0 -20 6 -16 57 1 32 8 61 15 65 8 6 8 8 -1 8
-7 0 -13 11 -13 25 0 14 6 25 13 26 10 0 10 2 0 6 -8 3 -13 23 -13 48 0 25 5
46 13 49 10 5 10 7 0 12 -7 3 -13 14 -13 25 0 25 40 27 40 2 1 -16 2 -16 16 2
13 17 16 18 25 5 8 -11 12 -12 16 -2 6 14 43 16 43 2 0 -5 5 -10 10 -10 6 0
10 7 10 15 0 8 4 15 9 15 5 0 16 -7 25 -15 20 -20 26 -19 26 5 0 19 7 20 120
20 l120 0 0 -24z m-620 -56 c0 -13 -7 -20 -20 -20 -13 0 -20 7 -20 20 0 13 7
20 20 20 13 0 20 -7 20 -20z m740 0 c0 -13 -7 -20 -20 -20 -13 0 -20 7 -20 20
0 13 7 20 20 20 13 0 20 -7 20 -20z m-429 -22 l2 -23 4 23 c6 29 43 31 43 2 0
-12 -7 -20 -17 -21 -17 -1 -17 -2 0 -6 25 -7 21 -30 -8 -37 -15 -4 -27 -16
-31 -31 -5 -19 -13 -25 -35 -25 l-29 0 0 -120 c0 -114 -1 -120 -20 -120 -31 0
-45 -40 -33 -92 l11 -43 1 58 c1 50 3 57 21 57 16 0 20 -7 20 -30 0 -17 -5
-30 -12 -31 -10 0 -10 -2 0 -6 19 -8 15 -53 -5 -54 -17 -1 -17 -2 0 -6 29 -8
19 -31 -15 -34 -18 -2 -77 -3 -130 -1 l-98 3 0 40 c0 36 2 39 28 40 15 0 36 4
47 9 15 6 6 9 -32 9 -46 1 -51 3 -46 21 7 25 43 27 43 3 1 -17 1 -17 14 0 7 9
21 17 30 17 9 0 16 -8 17 -17 0 -16 1 -16 8 1 4 11 16 23 27 27 17 7 17 8 2 8
-26 1 -24 41 2 41 14 0 20 -7 21 -22 l2 -23 4 22 c3 16 13 23 36 25 l32 3 3
178 2 177 45 0 c40 0 45 -3 46 -22z m489 -38 c0 -13 -7 -20 -20 -20 -13 0 -20
7 -20 20 0 13 7 20 20 20 13 0 20 -7 20 -20z m-320 -11 c0 -5 -22 -9 -50 -9
-33 0 -50 4 -50 13 0 8 15 11 50 9 27 -2 50 -8 50 -13z m60 2 c0 -5 -9 -11
-20 -14 -13 -3 -20 0 -20 9 0 8 9 14 20 14 11 0 20 -4 20 -9z m-180 -51 c0
-13 -7 -20 -20 -20 -13 0 -20 7 -20 20 0 13 7 20 20 20 13 0 20 -7 20 -20z
m500 0 c0 -13 -7 -20 -20 -20 -13 0 -20 7 -20 20 0 13 7 20 20 20 13 0 20 -7
20 -20z m-197 -21 c4 -15 0 -19 -19 -19 -19 0 -24 5 -24 24 0 19 4 23 19 19
11 -3 21 -13 24 -24z m-63 11 c0 -5 -4 -10 -10 -10 -5 0 -10 5 -10 10 0 6 5
10 10 10 6 0 10 -4 10 -10z m320 -50 c0 -13 -7 -20 -20 -20 -13 0 -20 7 -20
20 0 13 7 20 20 20 13 0 20 -7 20 -20z m-260 -10 c0 -5 -4 -10 -10 -10 -5 0
-10 5 -10 10 0 6 5 10 10 10 6 0 10 -4 10 -10z m60 -11 c0 -14 -5 -19 -17 -17
-26 5 -29 38 -4 38 15 0 21 -6 21 -21z m63 -60 c4 -15 0 -19 -19 -19 -19 0
-24 5 -24 24 0 19 4 23 19 19 11 -3 21 -13 24 -24z m-63 11 c0 -5 -4 -10 -10
-10 -5 0 -10 5 -10 10 0 6 5 10 10 10 6 0 10 -4 10 -10z m260 -360 c0 -323 0
-330 -20 -330 -13 0 -20 7 -20 20 0 11 7 20 15 20 8 0 15 5 15 10 0 6 -9 10
-20 10 -24 0 -26 13 -5 34 20 20 19 26 -5 26 -19 0 -20 7 -20 210 0 203 1 210
20 210 11 0 20 5 20 10 0 6 -4 10 -9 10 -5 0 -11 9 -14 20 -4 15 0 20 14 20
10 0 19 5 19 10 0 6 -7 10 -15 10 -8 0 -15 9 -15 20 0 13 7 20 20 20 20 0 20
-7 20 -330z m-977 290 c3 -13 0 -20 -9 -20 -8 0 -14 9 -14 20 0 11 4 20 9 20
5 0 11 -9 14 -20z m777 10 c0 -5 -4 -10 -10 -10 -5 0 -10 5 -10 10 0 6 5 10
10 10 6 0 10 -4 10 -10z m-1080 -49 c0 -10 -9 -21 -20 -24 -16 -4 -20 0 -20
19 0 17 6 24 20 24 13 0 20 -7 20 -19z m1100 -5 c0 -19 -4 -23 -20 -19 -11 3
-20 14 -20 24 0 12 7 19 20 19 14 0 20 -7 20 -24z m-780 -1 c0 -8 3 -15 6 -15
3 0 12 7 20 15 22 22 34 18 34 -10 0 -25 -1 -25 -84 -25 -78 0 -84 1 -79 19 4
15 16 21 47 24 22 2 44 4 49 5 4 1 7 -5 7 -13z m543 -9 c6 -8 10 -7 14 2 8 19
23 14 23 -8 0 -11 -6 -20 -12 -21 -10 0 -10 -2 0 -6 19 -7 14 -30 -8 -36 -16
-4 -20 0 -20 19 0 23 -2 24 -84 24 -79 0 -84 1 -79 20 6 22 38 27 46 8 4 -10
8 -9 16 2 9 13 12 12 25 -5 15 -20 15 -20 16 1 0 18 5 20 28 16 15 -3 31 -10
35 -16z m83 16 c19 -13 25 -42 9 -42 -8 0 -15 -4 -15 -10 0 -5 18 -10 40 -10
36 0 40 -2 40 -25 0 -14 5 -25 10 -25 6 0 10 -7 10 -15 0 -8 -9 -15 -20 -15
-16 0 -20 7 -20 31 0 30 -1 31 -40 27 l-40 -4 0 48 c0 47 5 55 26 40z m194
-22 c0 -11 -4 -20 -10 -20 -5 0 -10 9 -10 20 0 11 5 20 10 20 6 0 10 -9 10
-20z m200 -230 c0 -203 -1 -210 -20 -210 -23 0 -28 34 -7 44 10 5 10 7 0 12
-7 3 -13 14 -13 24 0 10 6 21 13 24 10 5 10 7 0 12 -9 4 -13 33 -13 94 0 61 4
90 13 94 10 5 10 7 0 12 -20 9 -16 44 5 44 16 1 16 1 0 14 -24 18 -23 46 2 46
19 0 20 -7 20 -210z m-1080 145 c0 -48 -2 -55 -20 -55 -17 0 -20 7 -20 49 0
39 4 51 18 54 9 3 18 5 20 6 1 0 2 -24 2 -54z m420 36 c0 -14 -5 -18 -20 -14
-25 7 -26 20 -2 26 9 3 18 5 20 6 1 0 2 -8 2 -18z m60 -1 c0 -5 -9 -10 -20
-10 -11 0 -20 5 -20 10 0 6 9 10 20 10 11 0 20 -4 20 -10z m60 0 c0 -5 -11
-10 -25 -10 -14 0 -25 5 -25 10 0 6 11 10 25 10 14 0 25 -4 25 -10z m40 0 c0
-5 -7 -10 -15 -10 -8 0 -15 5 -15 10 0 6 7 10 15 10 8 0 15 -4 15 -10z m300
-10 c0 -11 -4 -20 -10 -20 -5 0 -10 9 -10 20 0 11 5 20 10 20 6 0 10 -9 10
-20z m-1200 -36 c0 -9 -8 -23 -17 -30 -17 -13 -17 -13 0 -14 20 0 24 -35 5
-44 -10 -5 -10 -7 0 -12 8 -4 12 -33 12 -94 0 -61 -4 -90 -12 -94 -10 -5 -10
-7 0 -12 19 -9 15 -44 -5 -44 -17 -1 -17 -1 0 -14 23 -18 22 -46 -3 -46 -19 0
-20 7 -20 210 0 203 1 210 20 210 12 0 20 -7 20 -16z m1200 -14 c0 -5 -4 -10
-10 -10 -5 0 -10 5 -10 10 0 6 5 10 10 10 6 0 10 -4 10 -10z m10 -34 c0 -2 -3
-11 -6 -20 -9 -23 -24 -20 -24 4 0 11 7 20 15 20 8 0 15 -2 15 -4z m-890 -31
c0 -18 -5 -25 -20 -25 -25 0 -27 37 -2 43 9 3 18 5 20 6 1 0 2 -10 2 -24z m43
-45 c-3 -11 -14 -20 -24 -20 -12 0 -19 7 -19 20 0 14 7 20 24 20 19 0 23 -4
19 -20z m177 0 c0 -11 -4 -20 -10 -20 -5 0 -10 9 -10 20 0 11 5 20 10 20 6 0
10 -9 10 -20z m63 3 c-4 -10 -11 -22 -17 -26 -8 -6 -7 -10 2 -14 6 -2 12 -18
12 -34 0 -22 -5 -29 -20 -29 -18 0 -20 7 -20 60 0 57 1 60 25 60 19 0 23 -4
18 -17z m617 -43 c0 -52 -2 -60 -19 -60 -16 0 -20 9 -23 60 -3 57 -2 60 20 60
20 0 22 -4 22 -60z m40 30 c0 -11 -4 -20 -10 -20 -5 0 -10 9 -10 20 0 11 5 20
10 20 6 0 10 -9 10 -20z m-1060 -3 c0 -18 -24 -67 -32 -67 -5 0 -8 18 -8 40 0
33 3 40 20 40 11 0 20 -6 20 -13z m60 3 c0 -5 -9 -10 -20 -10 -11 0 -20 5 -20
10 0 6 9 10 20 10 11 0 20 -4 20 -10z m40 0 c0 -5 -4 -10 -10 -10 -5 0 -10 5
-10 10 0 6 5 10 10 10 6 0 10 -4 10 -10z m243 -50 c-3 -11 -9 -20 -14 -20 -5
0 -9 9 -9 20 0 11 6 20 14 20 9 0 12 -7 9 -20z m717 0 c0 -11 -4 -20 -9 -20
-5 0 -11 9 -14 20 -3 13 0 20 9 20 8 0 14 -9 14 -20z m-56 -76 c9 -22 8 -24
-9 -24 -8 0 -15 9 -15 20 0 24 15 27 24 4z m-4 -54 c0 -5 -4 -10 -10 -10 -5 0
-10 5 -10 10 0 6 5 10 10 10 6 0 10 -4 10 -10z m0 -50 c0 -11 -4 -20 -10 -20
-5 0 -10 9 -10 20 0 11 5 20 10 20 6 0 10 -9 10 -20z m-530 -10 c0 -5 -7 -10
-15 -10 -8 0 -15 5 -15 10 0 6 7 10 15 10 8 0 15 -4 15 -10z m131 -12 l2 -23
4 23 c4 19 11 22 49 22 38 0 44 -3 44 -21 0 -14 10 -24 30 -32 26 -10 30 -17
30 -47 0 -30 -4 -37 -30 -47 -20 -8 -30 -18 -30 -32 0 -18 -6 -21 -40 -21 -38
0 -40 2 -40 30 l0 30 -60 0 -60 0 0 46 c0 34 3 45 13 41 8 -3 29 -2 48 3 31 7
28 8 -23 9 -51 1 -58 3 -58 21 0 18 7 20 60 20 55 0 60 -2 61 -22z m159 2 c0
-13 -7 -20 -20 -20 -13 0 -20 7 -20 20 0 13 7 20 20 20 13 0 20 -7 20 -20z
m-280 -40 c0 -13 -7 -20 -20 -20 -13 0 -20 7 -20 20 0 13 7 20 20 20 13 0 20
-7 20 -20z m460 -10 c0 -5 -4 -10 -10 -10 -5 0 -10 5 -10 10 0 6 5 10 10 10 6
0 10 -4 10 -10z m-60 -60 c0 -5 -9 -10 -20 -10 -11 0 -20 5 -20 10 0 6 9 10
20 10 11 0 20 -4 20 -10z m-120 -50 c0 -13 -7 -20 -20 -20 -13 0 -20 7 -20 20
0 13 7 20 20 20 13 0 20 -7 20 -20z"/>
<path d="M735 1630 c-3 -5 3 -10 15 -10 12 0 18 5 15 10 -3 6 -10 10 -15 10
-5 0 -12 -4 -15 -10z"/>
<path d="M680 1610 c0 -5 5 -10 10 -10 14 0 12 -37 -2 -43 -10 -4 -9 -8 2 -17
11 -9 12 -13 3 -17 -17 -6 -16 -23 1 -23 9 0 12 -7 9 -20 -3 -11 -9 -20 -14
-20 -5 0 -9 -4 -9 -10 0 -5 9 -10 20 -10 19 0 20 7 20 90 0 83 -1 90 -20 90
-11 0 -20 -4 -20 -10z"/>
<path d="M780 1590 c0 -5 5 -10 10 -10 6 0 10 5 10 10 0 6 -4 10 -10 10 -5 0
-10 -4 -10 -10z"/>
<path d="M960 1590 c0 -5 5 -10 10 -10 6 0 10 5 10 10 0 6 -4 10 -10 10 -5 0
-10 -4 -10 -10z"/>
<path d="M631 1405 l-23 -25 26 0 c21 0 26 5 26 25 0 30 1 30 -29 0z"/>
<path d="M571 1345 l-23 -25 26 0 c21 0 26 5 26 25 0 30 1 30 -29 0z"/>
<path d="M511 1285 l-23 -25 26 0 c21 0 26 5 26 25 0 30 1 30 -29 0z"/>
<path d="M591 1288 c0 -9 -9 -19 -18 -21 -14 -4 -12 -5 5 -6 15 -1 22 -7 22
-21 0 -11 5 -20 10 -20 6 0 10 5 10 10 0 6 18 10 40 10 22 0 40 -4 40 -10 0
-5 5 -10 10 -10 6 0 10 9 10 20 0 18 -7 20 -59 20 -54 0 -60 2 -64 23 -3 13
-5 15 -6 5z"/>
<path d="M993 1285 c-18 -20 -16 -25 7 -25 13 0 20 7 20 20 0 23 -10 25 -27 5z"/>
<path d="M1200 1280 c0 -13 7 -20 20 -20 24 0 25 6 6 26 -20 19 -26 18 -26 -6z"/>
<path d="M531 1228 c0 -9 -9 -19 -18 -21 -14 -4 -12 -5 5 -6 15 -1 22 -7 22
-21 0 -24 6 -25 26 -6 19 20 18 26 -5 26 -12 0 -21 8 -24 23 -3 13 -5 15 -6 5z"/>
<path d="M1260 1220 c0 -13 7 -20 20 -20 24 0 25 6 6 26 -20 19 -26 18 -26 -6z"/>
<path d="M680 1190 c0 -5 4 -10 9 -10 6 0 13 5 16 10 3 6 -1 10 -9 10 -9 0
-16 -4 -16 -10z"/>
<path d="M720 1180 c0 -11 2 -20 5 -20 3 0 15 9 27 20 l22 20 -27 0 c-20 0
-27 -5 -27 -20z"/>
<path d="M453 1165 c-18 -20 -16 -25 7 -25 13 0 20 7 20 20 0 23 -10 25 -27 5z"/>
<path d="M1320 1165 c0 -16 27 -32 37 -22 5 6 -21 37 -31 37 -3 0 -6 -7 -6
-15z"/>
<path d="M397 1110 c-22 -26 -21 -30 3 -30 15 0 20 7 20 25 0 30 -1 30 -23 5z"/>
<path d="M480 1000 c0 -11 2 -20 4 -20 2 0 6 9 9 20 3 11 1 20 -4 20 -5 0 -9
-9 -9 -20z"/>
<path d="M337 990 c-22 -26 -21 -30 3 -30 15 0 20 7 20 25 0 30 -1 30 -23 5z"/>
<path d="M986 979 c-19 -19 -19 -19 7 -19 20 0 27 5 27 20 0 25 -9 25 -34 -1z"/>
<path d="M1140 987 c0 -8 -14 -11 -46 -8 -25 2 -51 -2 -57 -8 -8 -8 12 -11 76
-11 80 0 87 2 87 20 0 22 -15 27 -24 8 -5 -10 -7 -10 -12 0 -7 16 -24 16 -24
-1z"/>
<path d="M1238 963 c12 -2 32 -2 45 0 12 2 2 4 -23 4 -25 0 -35 -2 -22 -4z"/>
<path d="M420 933 c1 -24 2 -26 13 -12 20 26 45 30 49 9 3 -18 5 -17 27 5 l23
25 -56 0 c-55 0 -56 -1 -56 -27z"/>
<path d="M1380 920 c0 -13 7 -20 20 -20 24 0 25 6 6 26 -20 19 -26 18 -26 -6z"/>
<path d="M360 840 c0 -53 2 -60 20 -60 11 0 20 5 20 10 0 6 -4 10 -10 10 -5 0
-10 18 -10 40 0 22 5 40 10 40 6 0 10 5 10 10 0 6 -9 10 -20 10 -18 0 -20 -7
-20 -60z"/>
<path d="M933 865 c-18 -20 -16 -25 7 -25 13 0 20 7 20 20 0 23 -10 25 -27 5z"/>
<path d="M626 799 c-19 -19 -19 -19 7 -19 20 0 27 5 27 20 0 25 -9 25 -34 -1z"/>
<path d="M720 800 c0 -13 7 -20 20 -20 24 0 25 6 6 26 -20 19 -26 18 -26 -6z"/>
<path d="M920 774 c0 -3 6 -12 14 -20 20 -19 26 -18 26 6 0 13 -7 20 -20 20
-11 0 -20 -3 -20 -6z"/>
<path d="M1140 760 c0 -11 5 -20 10 -20 6 0 10 5 10 10 0 14 27 12 33 -2 3 -7
6 -3 6 10 1 18 -4 22 -29 22 -23 0 -30 -4 -30 -20z"/>
<path d="M1229 771 c7 -5 17 -15 22 -22 6 -10 9 -8 9 9 0 16 -6 22 -22 22 -17
0 -19 -3 -9 -9z"/>
<path d="M780 748 c0 -24 4 -28 27 -28 22 0 25 2 13 13 -8 6 -20 19 -27 27
-10 13 -12 11 -13 -12z"/>
<path d="M360 743 c0 -17 6 -23 23 -23 16 0 18 3 8 9 -7 5 -17 15 -22 22 -6
10 -9 8 -9 -8z"/>
<path d="M420 740 c0 -16 7 -20 30 -20 23 0 30 4 30 20 0 22 -15 27 -24 8 -5
-10 -7 -10 -12 0 -9 19 -24 14 -24 -8z"/>
<path d="M1380 700 c0 -24 6 -25 26 -6 19 20 18 26 -6 26 -13 0 -20 -7 -20
-20z"/>
<path d="M320 654 c0 -7 27 -34 34 -34 3 0 6 9 6 20 0 13 -7 20 -20 20 -11 0
-20 -3 -20 -6z"/>
<path d="M1280 650 c0 -5 5 -10 10 -10 14 0 12 -38 -2 -42 -9 -3 -8 -9 4 -21
21 -21 28 -21 28 -1 0 11 6 14 20 9 11 -4 20 -2 20 4 0 6 -9 11 -20 11 -16 0
-20 7 -20 30 0 23 -4 30 -20 30 -11 0 -20 -4 -20 -10z"/>
<path d="M320 595 c0 -3 9 -15 20 -27 l20 -22 0 27 c0 20 -5 27 -20 27 -11 0
-20 -2 -20 -5z"/>
<path d="M1520 590 c0 -5 5 -10 10 -10 6 0 10 5 10 10 0 6 -4 10 -10 10 -5 0
-10 -4 -10 -10z"/>
<path d="M380 534 c0 -3 6 -12 14 -20 20 -19 26 -18 26 6 0 13 -7 20 -20 20
-11 0 -20 -3 -20 -6z"/>
<path d="M540 480 c0 -53 -2 -60 -20 -60 -24 0 -25 -6 -6 -26 20 -19 26 -18
26 6 0 15 7 20 28 20 24 1 25 2 10 14 -23 17 -24 81 -2 90 9 3 18 6 20 6 2 0
4 -25 4 -55 l0 -55 60 0 c57 0 60 -1 60 -25 0 -19 -4 -23 -17 -18 -10 4 -23
14 -30 22 -11 14 -12 12 -13 -11 l0 -28 270 0 c263 0 270 0 270 20 0 11 -4 20
-10 20 -5 0 -10 -4 -10 -10 0 -18 -40 -11 -40 8 -1 16 -1 16 -14 0 -18 -24
-42 -23 -49 2 -3 12 -14 20 -25 20 -15 0 -19 5 -15 20 3 11 0 20 -6 20 -6 0
-11 -9 -11 -20 0 -19 -7 -20 -150 -20 -143 0 -150 1 -150 20 0 13 7 20 20 20
11 0 20 -7 20 -15 0 -8 5 -15 10 -15 6 0 10 9 10 19 0 14 5 18 20 14 11 -3 20
-9 20 -14 0 -5 5 -9 10 -9 6 0 10 7 10 16 0 11 6 13 19 9 11 -3 22 -1 26 5 4
7 -40 10 -134 10 -78 0 -141 3 -141 8 0 4 5 14 10 22 8 13 11 12 24 -5 15 -19
15 -19 16 8 0 26 -1 27 -60 27 l-60 0 0 -60z m120 -30 c0 -5 -9 -10 -20 -10
-11 0 -20 5 -20 10 0 6 9 10 20 10 11 0 20 -4 20 -10z m40 0 c0 -5 -4 -10 -10
-10 -5 0 -10 5 -10 10 0 6 5 10 10 10 6 0 10 -4 10 -10z m80 -55 c0 -8 -9 -15
-20 -15 -22 0 -27 15 -7 23 21 9 27 7 27 -8z m240 0 c0 -10 -10 -15 -30 -15
-38 0 -39 17 -2 23 15 2 28 5 30 6 1 0 2 -6 2 -14z m-180 -5 c0 -5 -9 -10 -20
-10 -11 0 -20 5 -20 10 0 6 9 10 20 10 11 0 20 -4 20 -10z m40 0 c0 -5 -7 -10
-15 -10 -8 0 -15 5 -15 10 0 6 7 10 15 10 8 0 15 -4 15 -10z m60 0 c0 -5 -9
-10 -20 -10 -11 0 -20 5 -20 10 0 6 9 10 20 10 11 0 20 -4 20 -10z m130 0 c0
-5 -7 -10 -15 -10 -8 0 -15 5 -15 10 0 6 7 10 15 10 8 0 15 -4 15 -10z"/>
<path d="M680 534 c0 -7 27 -34 34 -34 3 0 6 9 6 20 0 13 -7 20 -20 20 -11 0
-20 -3 -20 -6z"/>
<path d="M1411 505 l-23 -25 25 0 c20 0 26 -6 29 -25 l3 -24 24 24 23 25 -25
0 c-20 0 -26 6 -29 25 l-3 24 -24 -24z"/>
<path d="M449 471 c7 -5 17 -15 22 -22 6 -10 9 -8 9 9 0 16 -6 22 -22 22 -17
0 -19 -3 -9 -9z"/>
<path d="M960 444 c0 -8 5 -12 10 -9 6 3 10 10 10 16 0 5 -4 9 -10 9 -5 0 -10
-7 -10 -16z"/>
<path d="M1351 444 c-7 -8 -11 -17 -8 -20 8 -9 37 8 37 22 0 18 -11 17 -29 -2z"/>
<path d="M600 390 c0 -5 5 -10 10 -10 6 0 10 5 10 10 0 6 -4 10 -10 10 -5 0
-10 -4 -10 -10z"/>
<path d="M1320 390 c0 -5 5 -10 10 -10 6 0 10 5 10 10 0 6 -4 10 -10 10 -5 0
-10 -4 -10 -10z"/>
<path d="M640 330 c0 -5 5 -10 10 -10 6 0 10 5 10 10 0 6 -4 10 -10 10 -5 0
-10 -4 -10 -10z"/>
<path d="M780 330 c0 -5 5 -10 10 -10 6 0 10 5 10 10 0 6 -4 10 -10 10 -5 0
-10 -4 -10 -10z"/>
<path d="M901 323 c-1 -19 4 -23 29 -23 25 0 30 4 29 23 0 12 -3 16 -6 10 -2
-7 -13 -13 -23 -13 -10 0 -21 6 -23 13 -3 6 -6 2 -6 -10z"/>
<path d="M1000 331 c0 -6 5 -13 10 -16 6 -3 10 1 10 9 0 9 -4 16 -10 16 -5 0
-10 -4 -10 -9z"/>
<path d="M1060 330 c0 -5 5 -10 10 -10 6 0 10 5 10 10 0 6 -4 10 -10 10 -5 0
-10 -4 -10 -10z"/>
<path d="M1200 330 c0 -5 5 -10 10 -10 6 0 10 5 10 10 0 6 -4 10 -10 10 -5 0
-10 -4 -10 -10z"/>
<path d="M1520 1150 c0 -5 5 -10 10 -10 6 0 10 5 10 10 0 6 -4 10 -10 10 -5 0
-10 -4 -10 -10z"/>
<path d="M1580 1030 c0 -5 5 -10 10 -10 6 0 10 5 10 10 0 6 -4 10 -10 10 -5 0
-10 -4 -10 -10z"/>
<path d="M1580 710 c0 -5 5 -10 10 -10 6 0 10 5 10 10 0 6 -4 10 -10 10 -5 0
-10 -4 -10 -10z"/>
</g>
</svg>
