<?xml version="1.0" standalone="no"?>
<!DOCTYPE svg PUBLIC "-//W3C//DTD SVG 20010904//EN"
 "http://www.w3.org/TR/2001/REC-SVG-20010904/DTD/svg10.dtd">
<svg version="1.0" xmlns="http://www.w3.org/2000/svg"
 width="180.000000pt" height="180.000000pt" viewBox="0 0 180.000000 180.000000"
 preserveAspectRatio="xMidYMid meet">
<metadata>
Created by potrace 1.16, written by Peter Selinger 2001-2019
</metadata>
<g transform="translate(0.000000,180.000000) scale(0.100000,-0.100000)"
fill="#000000" stroke="none">
<path d="M592 1598 c-18 -18 -14 -63 8 -100 41 -67 35 -76 -156 -280 -92 -97
-163 -205 -195 -294 -32 -87 -32 -254 -1 -346 68 -198 225 -323 456 -364 266
-47 536 27 702 191 80 79 126 158 150 262 22 92 14 254 -16 343 -94 280 -389
505 -761 580 -115 23 -170 25 -187 8z m183 -35 c232 -45 494 -193 616 -349
110 -140 152 -252 152 -404 0 -161 -46 -273 -159 -387 -79 -79 -227 -154 -353
-179 -113 -22 -309 -15 -401 14 -141 46 -262 143 -323 260 -46 88 -61 160 -55
263 9 153 72 265 257 462 153 162 162 184 116 272 -20 37 -23 50 -14 61 13 15
21 15 164 -13z"/>
<path d="M756 1339 c3 -74 7 -155 9 -182 l3 -47 -49 -21 c-27 -12 -62 -37 -79
-55 -33 -38 -42 -41 -59 -20 -16 19 0 51 42 88 18 14 29 29 26 33 -13 12 -78
-37 -88 -66 -5 -16 -16 -29 -23 -29 -9 0 -14 -21 -16 -73 -4 -79 -12 -97 -37
-77 -10 8 -15 9 -15 1 0 -6 -18 -20 -40 -31 -40 -20 -40 -21 -40 -80 0 -57 1
-60 25 -60 13 0 28 7 33 16 7 12 18 15 43 12 27 -4 45 2 86 28 95 61 153 62
153 4 0 -22 11 -41 40 -70 40 -40 48 -66 30 -100 -8 -14 -5 -25 13 -47 13 -15
26 -36 30 -46 3 -9 11 -17 17 -17 5 0 10 -7 10 -15 0 -8 9 -24 21 -36 16 -16
31 -20 67 -17 59 4 66 -11 18 -36 -35 -17 -45 -17 -134 -6 -70 9 -122 24 -185
51 -79 33 -91 36 -113 24 l-25 -13 58 -36 c94 -59 178 -81 313 -81 181 0 313
50 426 161 79 77 116 160 122 278 2 52 -1 116 -8 149 -47 228 -283 437 -589
521 -36 10 -71 20 -78 23 -11 4 -12 -20 -7 -128z m114 66 c80 -27 212 -86 207
-92 -2 -2 -27 2 -55 8 -59 14 -77 6 -87 -42 -5 -21 -12 -29 -29 -29 -37 0 -54
-22 -59 -73 -4 -38 -1 -50 14 -60 17 -12 17 -16 4 -33 -8 -10 -15 -27 -15 -36
0 -10 -9 -27 -21 -39 -16 -16 -19 -27 -14 -52 4 -18 11 -36 16 -41 16 -17 10
-47 -12 -65 -17 -13 -21 -28 -21 -70 0 -50 -1 -51 -19 -35 -11 9 -19 27 -19
38 0 12 -7 32 -16 45 -15 21 -22 23 -67 18 -31 -4 -72 -20 -107 -40 -42 -26
-64 -33 -88 -29 -18 2 -39 -1 -47 -8 -13 -10 -15 -9 -15 12 0 22 4 24 35 20
32 -4 36 -2 41 25 3 16 15 33 27 38 18 8 23 21 27 65 l5 55 40 -3 c35 -3 43 1
62 27 12 16 48 41 79 56 l57 27 -7 169 c-5 99 -4 169 1 169 5 0 42 -11 83 -25z
m227 -136 c65 -25 140 -83 193 -150 41 -53 43 -69 8 -69 -17 0 -18 -2 -8 -15
8 -10 21 -13 33 -9 12 4 23 1 28 -7 9 -15 12 -109 4 -109 -3 0 -29 18 -57 40
-28 23 -55 39 -61 37 -14 -4 -21 -27 -9 -27 6 0 33 -16 62 -35 29 -19 60 -35
70 -35 15 0 20 -11 26 -46 11 -74 -3 -153 -41 -230 -34 -70 -105 -149 -127
-142 -18 6 -36 72 -24 91 8 13 4 23 -17 45 -15 15 -27 36 -27 45 0 22 -53 23
-94 2 -56 -30 -113 -37 -153 -20 -55 23 -71 46 -79 113 -5 51 -3 63 12 78 11
11 24 32 29 48 7 22 28 39 80 68 79 42 85 44 85 23 0 -11 12 -15 50 -15 36 0
50 4 50 14 0 8 15 17 34 20 23 4 37 14 41 27 10 30 -8 44 -34 28 -16 -11 -23
-11 -33 -1 -19 19 -30 14 -18 -8 14 -27 1 -25 -51 5 -50 28 -69 31 -69 11 0
-8 -12 -16 -27 -18 -20 -2 -29 -11 -38 -38 -9 -26 -20 -38 -46 -47 -39 -13
-52 -5 -47 28 2 18 10 25 31 27 31 4 35 16 10 31 -17 9 -17 10 0 28 9 11 17
25 17 31 0 7 5 12 10 12 6 0 10 11 10 24 0 19 -4 22 -24 19 -13 -3 -27 0 -30
6 -4 6 -3 11 3 11 5 0 9 12 8 27 -2 24 2 28 41 36 31 6 42 13 42 27 0 42 11
52 48 45 19 -4 59 -16 89 -26z m-27 -269 c29 -16 31 -19 13 -20 -12 0 -25 5
-29 11 -3 6 -24 9 -45 7 -49 -4 -31 13 21 20 3 1 21 -7 40 -18z m339 -100 c1
-13 0 -13 -9 0 -5 8 -9 24 -9 35 l0 20 9 -20 c5 -11 9 -27 9 -35z m-929 -42
c0 -22 -17 -41 -29 -34 -8 5 -8 13 -1 27 12 21 30 26 30 7z m937 -60 c-2 -13
-4 -5 -4 17 -1 22 1 32 4 23 2 -10 2 -28 0 -40z m-292 -177 c3 -11 12 -22 20
-25 9 -3 15 -19 15 -39 0 -42 26 -107 43 -107 33 -2 -155 -80 -192 -80 -11 0
-9 5 7 16 16 11 22 24 20 42 -3 25 -7 27 -57 30 -51 3 -81 18 -81 42 0 6 -7
13 -15 16 -8 4 -15 11 -15 16 0 5 -9 23 -21 39 -11 16 -18 36 -15 44 4 12 11
12 43 -2 46 -19 151 -12 186 12 29 20 54 19 62 -4z m-292 -258 c-7 -2 -21 -2
-30 0 -10 3 -4 5 12 5 17 0 24 -2 18 -5z"/>
</g>
</svg>
