<?xml version="1.0" standalone="no"?>
<!DOCTYPE svg PUBLIC "-//W3C//DTD SVG 20010904//EN"
 "http://www.w3.org/TR/2001/REC-SVG-20010904/DTD/svg10.dtd">
<svg version="1.0" xmlns="http://www.w3.org/2000/svg"
 width="180.000000pt" height="180.000000pt" viewBox="0 0 180.000000 180.000000"
 preserveAspectRatio="xMidYMid meet">
<metadata>
Created by potrace 1.16, written by Peter Selinger 2001-2019
</metadata>
<g transform="translate(0.000000,180.000000) scale(0.100000,-0.100000)"
fill="#000000" stroke="none">
<path d="M860 1365 l-42 -55 -94 0 -93 0 -43 -56 c-24 -32 -62 -81 -85 -110
-24 -30 -43 -56 -43 -59 0 -3 29 -5 64 -5 l65 0 -52 -70 c-47 -63 -55 -70 -87
-70 -32 -1 -41 -8 -110 -97 -41 -53 -77 -100 -79 -105 -2 -5 47 -8 113 -6 64
2 116 1 116 -1 0 -2 -22 -32 -50 -67 -28 -35 -50 -67 -50 -70 0 -4 23 -4 50
-1 28 3 50 4 50 2 0 -3 -38 -52 -84 -109 l-84 -104 91 -4 c51 -2 126 -2 167 0
l75 4 54 69 54 69 142 0 142 0 87 110 86 110 -60 0 c-33 0 -60 4 -60 10 0 6 4
10 9 10 5 0 37 38 72 85 l62 85 62 0 62 0 86 110 c48 61 87 112 87 115 0 2
-41 6 -90 7 l-90 3 70 88 c38 48 70 89 70 90 0 1 -59 1 -131 -1 l-132 -4 32
41 33 41 -200 0 -200 0 -42 -55z m378 15 c-12 -19 -24 -20 -175 -20 -90 0
-163 4 -163 8 0 27 30 32 187 32 161 0 163 0 151 -20z m-38 -45 c0 -3 -9 -15
-19 -27 -18 -19 -31 -20 -189 -22 l-169 -1 20 28 21 27 168 0 c92 0 168 -2
168 -5z m154 -13 c60 -2 105 -7 99 -10 -5 -4 -27 -29 -47 -56 -22 -29 -36 -42
-34 -30 2 14 -4 20 -20 22 -13 2 -21 9 -19 15 2 6 -5 19 -15 29 -25 25 -88 24
-116 -2 -32 -30 -27 -45 7 -21 34 25 72 31 78 13 3 -8 -1 -10 -12 -6 -10 4
-28 -2 -45 -15 -32 -23 -39 -25 -59 -12 -12 8 -9 15 12 41 15 17 27 36 27 42
0 6 7 7 18 2 9 -4 66 -10 126 -12z m-590 -77 l-48 -55 -79 0 c-62 0 -77 3 -70
13 5 6 25 31 43 55 l33 42 84 0 84 0 -47 -55z m371 6 c-4 -7 -55 -11 -135 -11
-128 0 -129 0 -150 -27 -17 -22 -29 -27 -66 -28 -24 0 -44 1 -44 3 0 2 12 19
26 37 l26 35 172 2 c94 2 173 2 175 1 1 -1 0 -6 -4 -12z m180 -2 c-4 -5 -16
-9 -28 -9 -21 1 -21 1 -3 15 20 15 41 11 31 -6z m-178 -47 c-29 -31 -35 -52
-13 -52 7 0 56 16 107 36 130 49 137 51 121 32 -7 -8 -40 -26 -75 -38 -34 -12
-69 -29 -78 -36 -15 -14 -129 -21 -129 -8 0 8 61 87 74 96 23 16 18 -4 -7 -30z
m-162 -2 c21 -16 41 -30 44 -30 3 0 18 14 33 32 14 18 30 30 33 26 4 -4 -10
-27 -30 -52 l-37 -46 -109 0 c-80 0 -109 3 -109 13 -1 7 -6 5 -14 -5 -10 -14
-28 -18 -86 -18 -45 0 -80 -5 -89 -13 -10 -8 -33 -11 -63 -7 l-48 5 26 33 25
32 119 0 c65 0 121 -4 124 -8 3 -5 31 -10 63 -10 l58 -2 -30 25 c-16 13 -26
27 -22 31 4 4 23 -7 41 -25 19 -18 42 -31 51 -29 14 2 6 12 -30 41 l-48 37 30
0 c19 0 45 -12 68 -30z m324 26 c-2 -3 -42 -18 -89 -35 -46 -17 -79 -26 -73
-20 12 12 130 58 152 58 8 1 12 -1 10 -3z m-269 -10 c0 -11 -19 -15 -25 -6 -3
5 1 10 9 10 9 0 16 -2 16 -4z m320 -35 c0 -5 -7 -12 -16 -15 -14 -5 -15 -4 -4
9 14 17 20 19 20 6z m-60 -40 c0 -5 -9 -13 -20 -16 -11 -3 -20 -10 -20 -14 0
-4 -14 -22 -31 -41 -17 -19 -28 -29 -24 -22 15 30 -13 7 -50 -40 -23 -31 -33
-49 -23 -45 10 3 20 2 23 -3 4 -6 -6 -10 -22 -10 -21 0 -35 -10 -56 -40 -16
-22 -35 -40 -43 -40 -17 0 -23 -8 80 124 32 42 56 80 52 84 -4 4 -11 0 -16 -8
-5 -8 -56 -76 -114 -150 l-106 -135 -220 -5 c-121 -3 -220 -4 -220 -2 0 6 86
119 135 176 28 34 59 73 69 89 l18 27 217 2 c138 1 196 4 161 8 l-55 7 72 0
c63 0 74 3 95 25 12 14 32 28 43 31 34 8 55 7 55 -2z m130 2 c0 -1 -36 -47
-81 -103 l-80 -100 -50 0 c-27 0 -49 2 -49 5 0 3 36 49 81 104 l80 99 50 -2
c27 0 49 -2 49 -3z m80 -11 c0 -5 -10 -18 -22 -29 -13 -12 -43 -49 -68 -83
-40 -54 -81 -83 -97 -67 -3 3 23 41 58 84 35 43 65 81 65 85 1 5 2 10 3 13 2
9 61 5 61 -3z m-745 -31 c-16 -14 -146 -30 -142 -17 3 9 45 17 132 24 11 1 15
-2 10 -7z m257 -3 c-9 -9 -15 -9 -24 0 -9 9 -7 12 12 12 19 0 21 -3 12 -12z
m-84 -15 c-32 -2 -84 -2 -115 0 -32 2 -6 3 57 3 63 0 89 -1 58 -3z m-273 -56
c-12 -19 -26 -26 -61 -29 -49 -4 -51 -2 -26 29 11 15 30 23 57 25 22 2 41 2
43 1 2 -1 -4 -12 -13 -26z m-60 -67 c-3 -5 -22 -10 -41 -10 -21 0 -33 4 -29
10 3 6 22 10 41 10 21 0 33 -4 29 -10z m-35 -27 c0 -4 -14 -22 -32 -40 -18
-18 -27 -33 -20 -33 9 0 9 -5 0 -20 -7 -11 -20 -20 -28 -20 -8 0 -24 -14 -35
-31 -21 -31 -53 -55 -62 -45 -3 3 6 21 21 41 l27 35 -47 0 c-46 0 -47 0 -29
20 13 14 31 20 64 20 40 0 48 4 66 31 22 34 75 64 75 42z m634 -13 c18 0 18
-1 1 -20 -14 -16 -31 -20 -74 -20 -51 1 -54 2 -37 15 11 8 16 15 12 15 -4 0
-4 5 0 11 4 7 21 9 43 5 20 -3 45 -6 55 -6z m-736 -20 c-7 -11 -21 -20 -30
-20 -16 0 -16 3 -6 20 7 11 21 20 30 20 16 0 16 -3 6 -20z m712 -47 c0 -5 -14
-22 -30 -40 -27 -30 -33 -32 -105 -34 -54 -1 -78 -6 -82 -15 -4 -11 -31 -14
-111 -14 -95 0 -108 -2 -129 -22 -31 -29 -29 -38 8 -38 l30 0 -33 -39 c-30
-36 -37 -39 -101 -46 -73 -7 -90 -2 -65 18 8 6 36 40 63 75 l48 62 127 0 c101
0 130 3 140 15 7 8 16 13 20 10 5 -3 24 13 42 35 33 40 33 40 106 40 39 0 72
-3 72 -7z m-806 -78 c-4 -8 -17 -15 -31 -15 -22 0 -24 2 -13 15 7 8 21 15 31
15 12 0 16 -5 13 -15z m239 -22 c-24 -2 -62 -2 -85 0 -24 2 -5 4 42 4 47 0 66
-2 43 -4z m-21 -50 c-11 -16 -30 -38 -41 -50 -13 -14 -18 -28 -14 -39 5 -14 2
-16 -18 -10 -13 4 -34 10 -46 13 -22 5 -22 6 13 49 20 24 33 44 30 44 -4 0 -4
5 -1 10 3 6 26 10 51 10 l45 0 -19 -27z m282 12 c-6 -16 -59 -20 -101 -9 -40
11 -14 24 47 24 49 0 58 -3 54 -15z m254 9 l61 -7 -42 -51 c-23 -28 -44 -53
-47 -56 -3 -3 -16 -20 -29 -37 -20 -30 -27 -33 -72 -33 l-51 0 30 25 c17 14
39 25 49 25 11 0 28 9 37 19 23 26 14 97 -14 106 -27 9 -69 -5 -81 -26 -6 -12
-21 -19 -38 -19 -40 0 -57 -36 -43 -89 l10 -41 -58 0 c-32 0 -66 -3 -76 -7
-10 -4 17 39 61 95 l78 102 82 0 c45 0 109 -3 143 -6z m-78 -30 c0 -3 -10 -14
-22 -25 l-23 -18 29 -1 c28 0 29 0 11 -20 -10 -11 -29 -20 -41 -20 -14 0 -30
-10 -40 -25 -9 -14 -25 -25 -35 -25 -23 0 -24 8 -2 32 15 17 15 18 -5 18 -12
0 -22 4 -22 8 0 16 25 32 51 32 17 0 32 9 43 25 14 22 56 36 56 19z m-200 -11
c-1 -5 -15 -24 -33 -43 -26 -30 -37 -35 -61 -30 l-28 5 21 19 c12 11 21 27 21
38 0 14 8 18 40 18 22 0 40 -3 40 -7z m-148 -111 c-9 -9 -46 -54 -81 -100
l-63 -82 -49 0 c-27 0 -49 3 -49 6 0 3 34 47 75 99 74 93 75 94 122 97 61 4
66 1 45 -20z m68 10 c0 -5 -9 -17 -20 -27 -11 -10 -19 -26 -18 -35 2 -9 -11
-33 -29 -53 -17 -20 -35 -43 -41 -52 -5 -11 -18 -15 -34 -13 -26 3 -25 5 38
83 35 44 64 86 64 93 0 6 9 12 20 12 11 0 20 -4 20 -8z m-217 -15 c-34 -56
-131 -167 -145 -167 -10 0 -18 2 -18 5 0 17 138 175 153 175 12 0 15 -4 10
-13z"/>
<path d="M795 1220 c-3 -5 -2 -10 4 -10 5 0 13 5 16 10 3 6 2 10 -4 10 -5 0
-13 -4 -16 -10z"/>
<path d="M728 1143 c6 -2 18 -2 25 0 6 3 1 5 -13 5 -14 0 -19 -2 -12 -5z"/>
<path d="M710 1030 c-7 -4 -21 -33 -31 -64 -15 -49 -15 -56 -2 -56 19 0 153
107 153 122 0 12 -43 -14 -81 -48 -35 -33 -41 -30 -24 10 15 36 9 51 -15 36z"/>
<path d="M811 980 c-57 -66 -66 -107 -12 -52 18 17 34 32 36 32 2 0 5 -10 7
-22 2 -19 10 -23 44 -25 35 -2 45 2 58 22 10 15 27 25 48 27 18 2 31 8 29 13
-2 6 -12 9 -23 7 -10 -2 -18 1 -18 6 0 12 25 22 55 22 13 0 27 5 30 10 4 6
-11 10 -38 10 -41 0 -47 -3 -88 -55 l-44 -55 -13 26 c-12 22 -12 28 0 35 7 5
18 9 23 9 16 1 60 38 54 45 -4 3 -30 -8 -58 -24 -48 -29 -70 -29 -36 -1 8 7
15 16 15 21 0 20 -20 6 -69 -51z"/>
<path d="M927 884 c-4 -5 -38 -7 -75 -6 -41 1 -62 -2 -53 -7 10 -6 6 -13 -18
-27 -39 -23 -39 -34 -1 -34 30 0 41 15 18 23 -7 2 2 11 20 21 33 17 44 8 17
-14 -21 -17 -19 -30 4 -30 24 0 36 16 19 23 -8 3 -6 6 4 6 11 1 15 6 12 16 -4
10 0 15 15 15 25 0 27 -12 6 -30 -8 -7 -15 -16 -15 -21 0 -12 37 -11 45 1 3 6
1 10 -6 10 -8 0 -6 7 5 19 17 19 19 51 3 35z"/>
<path d="M551 849 c-13 -17 -20 -33 -17 -37 4 -3 13 3 21 14 13 17 14 17 15 2
0 -21 20 -25 20 -4 0 7 7 19 15 26 22 18 18 30 -8 30 -14 0 -32 -12 -46 -31z
m49 11 c0 -5 -4 -10 -10 -10 -5 0 -10 5 -10 10 0 6 5 10 10 10 6 0 10 -4 10
-10z"/>
<path d="M623 850 c-29 -36 -29 -40 2 -40 26 0 34 15 13 23 -7 3 -3 6 9 6 15
1 21 6 17 15 -3 8 2 16 13 19 13 3 11 5 -7 5 -16 1 -33 -9 -47 -28z"/>
<path d="M685 850 c-16 -16 -25 -33 -21 -37 4 -4 16 3 26 17 l20 25 0 -22 c0
-32 10 -29 43 12 29 37 27 47 -5 18 -17 -15 -18 -15 -18 0 0 25 -13 21 -45
-13z"/>
<path d="M628 563 c7 -3 16 -2 19 1 4 3 -2 6 -13 5 -11 0 -14 -3 -6 -6z"/>
</g>
</svg>
