<?xml version="1.0" standalone="no"?>
<!DOCTYPE svg PUBLIC "-//W3C//DTD SVG 20010904//EN"
 "http://www.w3.org/TR/2001/REC-SVG-20010904/DTD/svg10.dtd">
<svg version="1.0" xmlns="http://www.w3.org/2000/svg"
 width="180.000000pt" height="180.000000pt" viewBox="0 0 180.000000 180.000000"
 preserveAspectRatio="xMidYMid meet">
<metadata>
Created by potrace 1.16, written by Peter Selinger 2001-2019
</metadata>
<g transform="translate(0.000000,180.000000) scale(0.100000,-0.100000)"
fill="#000000" stroke="none">
<path d="M88 1462 c-3 -10 -1 -28 3 -41 7 -17 15 -22 37 -20 60 7 95 -41 170
-231 16 -41 39 -97 51 -125 28 -62 32 -72 117 -270 25 -60 56 -130 67 -155 11
-25 34 -81 52 -125 75 -183 70 -175 112 -175 36 0 39 2 56 48 10 26 26 65 36
87 43 94 108 248 135 320 7 17 13 9 38 -45 16 -36 36 -78 43 -95 16 -39 102
-241 121 -282 12 -29 18 -33 51 -33 37 0 38 1 62 63 13 34 30 78 38 97 20 47
25 60 68 175 21 55 44 114 51 132 8 17 14 36 14 42 0 6 11 34 24 63 14 29 45
109 70 178 24 69 52 139 60 155 9 17 16 36 16 43 0 7 4 20 9 30 45 91 50 97
82 102 34 5 50 30 41 63 -4 16 -18 17 -166 15 -160 -3 -161 -3 -164 -26 -5
-36 16 -54 61 -50 61 4 64 -12 29 -117 -17 -50 -36 -103 -43 -120 -7 -16 -13
-32 -14 -35 -1 -3 -4 -12 -7 -20 -22 -57 -87 -240 -93 -260 -4 -14 -18 -49
-31 -78 -13 -29 -24 -59 -24 -67 0 -7 -5 -17 -10 -20 -6 -4 -8 -11 -5 -16 4
-5 2 -9 -4 -9 -6 0 -14 15 -19 33 -9 31 -54 139 -91 222 -84 186 -83 153 -8
317 14 29 30 67 36 83 6 17 22 43 34 59 19 24 32 29 68 30 43 1 44 1 47 39 l3
37 -361 0 -361 0 3 -37 c3 -33 7 -38 28 -39 58 -3 61 -7 139 -199 22 -55 49
-118 59 -140 43 -88 62 -135 62 -150 0 -14 -28 -84 -51 -127 -5 -10 -9 -25 -9
-33 0 -8 -4 -15 -10 -15 -5 0 -10 -8 -10 -18 0 -10 -4 -22 -9 -27 -14 -16 -23
-72 -12 -79 9 -6 27 30 23 47 -1 4 3 7 8 7 6 0 10 11 10 25 0 14 5 25 10 25 6
0 10 7 10 15 0 9 7 27 16 40 9 14 12 25 8 25 -5 0 -4 4 2 8 13 9 44 86 44 110
0 19 -70 184 -82 193 -5 3 -10 14 -13 25 -3 18 -69 181 -95 236 -17 36 -55 61
-80 53 -14 -4 -20 -2 -20 9 0 18 9 18 190 17 58 0 187 -1 286 -1 159 0 183 -2
188 -16 5 -14 1 -16 -32 -11 -27 5 -45 2 -61 -10 -23 -15 -112 -192 -147 -289
-17 -48 -17 -50 6 -99 13 -28 22 -53 22 -57 -1 -5 3 -8 9 -8 5 0 8 -4 5 -9 -3
-4 1 -17 9 -27 8 -10 15 -27 15 -36 0 -10 5 -18 10 -18 6 0 10 -6 10 -14 0
-15 53 -152 76 -197 20 -40 55 -32 74 18 8 22 35 94 59 159 24 66 74 201 112
302 38 101 72 200 75 221 8 53 -11 70 -71 63 -36 -4 -45 -2 -43 9 4 19 53 25
171 21 80 -3 97 -6 97 -19 0 -11 -7 -14 -25 -10 -44 8 -53 -11 -216 -438 -30
-77 -54 -142 -54 -145 0 -3 -3 -10 -7 -16 -4 -6 -23 -55 -43 -110 -41 -114
-90 -240 -117 -301 -10 -24 -18 -48 -18 -54 0 -15 -42 -7 -51 11 -4 8 -47 109
-96 225 -86 204 -89 210 -118 212 -28 2 -32 -2 -48 -45 -10 -26 -52 -129 -95
-229 -90 -213 -97 -219 -143 -113 -93 215 -209 492 -209 501 0 5 -5 9 -12 9
-6 0 -8 3 -5 6 4 4 1 19 -7 33 -22 43 -42 91 -85 196 -68 170 -88 209 -121
239 -25 22 -38 27 -61 22 -22 -4 -29 -2 -29 9 0 17 12 18 356 15 29 0 41 -4
41 -15 0 -11 -11 -15 -39 -15 -38 0 -38 0 -38 -41 0 -38 25 -112 82 -239 14
-30 45 -102 68 -160 24 -58 47 -106 52 -108 4 -2 8 -10 8 -18 0 -8 4 -22 9
-32 6 -9 27 -61 48 -114 21 -54 41 -98 46 -98 16 0 5 55 -23 120 -16 38 -30
71 -30 75 0 3 -13 33 -30 66 -16 32 -46 101 -66 152 -20 50 -44 110 -54 132
-61 136 -72 164 -77 202 -6 42 -5 43 24 43 36 0 56 20 51 52 l-3 23 -226 3
c-211 2 -227 1 -231 -16z"/>
<path d="M922 1409 c-17 -26 -15 -65 5 -102 9 -18 18 -34 18 -37 0 -3 10 -26
22 -51 16 -37 25 -46 44 -44 20 1 29 14 56 81 37 90 42 148 16 160 -10 4 -48
9 -84 10 -55 1 -68 -1 -77 -17z m142 -16 c20 -11 19 -12 -6 -80 -15 -37 -31
-81 -35 -96 l-9 -29 -11 24 c-64 132 -73 161 -59 177 17 19 90 21 120 4z"/>
</g>
</svg>
