<?xml version="1.0" standalone="no"?>
<!DOCTYPE svg PUBLIC "-//W3C//DTD SVG 20010904//EN"
 "http://www.w3.org/TR/2001/REC-SVG-20010904/DTD/svg10.dtd">
<svg version="1.0" xmlns="http://www.w3.org/2000/svg"
 width="200.000000pt" height="200.000000pt" viewBox="0 0 200.000000 200.000000"
 preserveAspectRatio="xMidYMid meet">
<metadata>
Created by potrace 1.16, written by Peter Selinger 2001-2019
</metadata>
<g transform="translate(0.000000,200.000000) scale(0.100000,-0.100000)"
fill="#000000" stroke="none">
<path d="M1490 1825 c7 -9 15 -13 17 -11 7 7 -7 26 -19 26 -6 0 -6 -6 2 -15z"/>
<path d="M1710 1830 c0 -5 5 -10 10 -10 6 0 10 5 10 10 0 6 -4 10 -10 10 -5 0
-10 -4 -10 -10z"/>
<path d="M1444 1791 c1 -16 4 -32 7 -35 3 -4 5 7 4 24 -1 17 -4 33 -7 36 -3 3
-5 -8 -4 -25z"/>
<path d="M1514 1777 c-72 -66 -51 -181 38 -215 50 -19 100 -9 137 29 83 82 23
219 -96 219 -35 0 -50 -6 -79 -33z m149 -8 c15 -11 32 -37 38 -59 10 -32 9
-44 -7 -76 -47 -96 -187 -73 -201 32 -6 47 16 95 51 113 36 17 91 13 119 -10z"/>
<path d="M1544 1757 c-3 -8 -4 -45 -2 -83 3 -73 21 -95 26 -31 4 47 23 48 52
2 12 -19 28 -35 36 -35 19 0 18 13 -5 42 -20 24 -20 25 0 41 25 22 24 42 -3
61 -28 20 -97 21 -104 3z m86 -37 c0 -16 -7 -20 -30 -20 -23 0 -30 4 -30 20 0
16 7 20 30 20 23 0 30 -4 30 -20z"/>
<path d="M1747 1785 c-4 -8 -2 -17 3 -20 6 -4 10 3 10 14 0 25 -6 27 -13 6z"/>
<path d="M856 1734 c-189 -46 -355 -206 -412 -399 -25 -85 -23 -219 5 -312 26
-86 102 -205 169 -263 60 -53 190 -116 266 -129 195 -35 376 20 520 161 39 37
67 70 64 74 -15 14 -112 -21 -188 -67 -101 -61 -156 -80 -247 -87 -150 -10
-290 44 -388 149 -141 153 -170 363 -75 550 38 73 138 164 227 207 76 36 81
37 193 37 95 0 125 -4 174 -22 150 -57 261 -183 302 -342 15 -58 14 -64 -3
-94 -22 -38 -77 -77 -108 -77 -11 0 -29 6 -39 13 -17 12 -15 18 28 82 37 56
46 77 46 113 0 100 -39 107 -121 23 -64 -65 -101 -130 -103 -178 -1 -25 -12
-41 -60 -83 -98 -85 -121 -52 -58 82 21 46 58 114 81 151 23 38 39 72 36 77
-3 4 -19 13 -36 19 -29 10 -34 8 -66 -27 -204 -215 -336 -332 -378 -332 -15 0
-17 7 -12 46 4 35 12 53 33 71 157 133 214 197 214 240 0 47 -80 57 -146 18
-53 -31 -168 -156 -196 -214 -29 -60 -30 -164 -2 -212 25 -42 78 -79 114 -79
35 0 106 47 164 110 26 28 48 50 49 50 1 0 2 -29 2 -64 0 -54 4 -68 24 -90 15
-15 35 -26 51 -26 30 0 119 56 191 120 l47 42 44 -16 c106 -35 256 57 289 177
22 84 -45 240 -151 348 -138 141 -349 200 -544 153z m174 -14 c-11 -7 -4 -9
25 -8 22 0 51 -2 65 -5 14 -4 38 -9 53 -13 19 -4 27 -11 23 -20 -3 -7 0 -16 6
-20 7 -4 8 -3 4 4 -4 7 -1 12 9 12 11 0 15 -5 11 -15 -4 -12 0 -14 19 -9 17 4
25 2 25 -7 0 -12 2 -12 9 0 6 9 11 10 15 2 4 -6 12 -9 17 -5 5 3 8 2 7 -3 -2
-8 58 -73 64 -68 2 1 20 -20 41 -46 20 -27 32 -48 25 -47 -7 2 -16 8 -20 13
-5 6 -8 5 -8 -2 0 -7 14 -19 30 -28 31 -16 42 -32 14 -21 -10 4 -14 1 -12 -6
3 -7 11 -13 19 -13 22 0 30 -19 11 -26 -13 -5 -24 6 -44 42 -15 26 -25 54 -22
62 3 8 0 18 -7 23 -7 4 -10 3 -5 -4 3 -6 2 -13 -4 -17 -5 -3 -10 0 -10 8 0 8
-7 17 -15 21 -9 3 -12 12 -8 21 4 12 1 16 -13 13 -11 -2 -18 2 -17 10 3 11
-10 16 -30 13 -5 -1 -5 4 -1 10 5 8 2 10 -8 6 -10 -3 -18 1 -21 13 -3 11 -13
18 -23 18 -11 -1 -39 8 -64 20 -80 38 -144 49 -218 39 -37 -5 -80 -10 -97 -11
-16 0 -34 -6 -40 -12 -14 -15 -68 -36 -60 -24 3 5 -1 10 -10 10 -11 0 -15 -5
-12 -14 4 -10 1 -13 -9 -9 -7 3 -14 0 -14 -6 0 -6 -3 -10 -7 -10 -20 3 -31 -2
-29 -13 0 -7 -3 -13 -9 -13 -5 0 -10 8 -10 18 -2 21 28 41 66 46 5 0 7 6 3 13
-4 7 -3 8 4 4 7 -4 12 -2 12 4 0 6 5 8 11 4 6 -3 15 0 20 7 6 10 9 11 9 2 0
-7 5 -13 11 -13 6 0 8 7 5 16 -5 12 -2 15 11 10 9 -4 20 -1 24 6 5 7 30 12 63
12 30 0 52 4 50 8 -3 4 14 8 38 8 31 0 39 -3 28 -10z m-373 -127 c-4 -3 -2
-12 5 -20 6 -8 7 -13 2 -12 -24 4 -36 -2 -30 -17 3 -8 2 -13 -3 -10 -4 3 -17
-1 -27 -9 -19 -15 -19 -15 0 -8 19 6 19 6 0 -13 -10 -11 -27 -31 -37 -44 l-18
-25 6 35 c3 25 2 31 -5 20 -5 -8 -10 -10 -10 -4 0 18 12 24 26 13 8 -7 14 -6
20 2 4 8 3 9 -4 5 -7 -4 -12 -4 -12 1 0 14 15 29 35 37 16 6 17 9 5 16 -14 9
-13 11 10 14 5 0 15 7 22 14 6 6 14 12 17 12 2 0 1 -3 -2 -7z m-116 -191 c-6
-2 -11 -12 -11 -23 0 -10 -6 -19 -14 -19 -9 0 -12 -8 -8 -26 3 -16 1 -24 -4
-21 -6 3 -11 -13 -12 -36 -3 -56 -9 -140 -12 -152 -1 -5 -2 -23 0 -40 1 -26 3
-27 10 -10 8 18 9 18 8 -5 0 -35 -13 -77 -19 -65 -3 6 -6 23 -7 39 -1 16 -6
34 -11 40 -10 12 -7 196 4 239 6 22 10 26 17 15 7 -9 8 -7 5 10 -4 17 -1 22
15 22 10 0 16 5 13 10 -4 6 -11 8 -16 5 -10 -7 -11 -3 -3 18 3 9 13 13 25 10
11 -3 19 0 19 6 0 7 -4 9 -10 6 -12 -7 -13 6 -3 31 5 15 9 11 16 -16 6 -23 5
-36 -2 -38z m344 18 c11 -17 -28 -72 -47 -67 -20 6 -43 -17 -33 -33 5 -7 12
-5 21 7 7 10 14 13 14 7 0 -14 -14 -25 -63 -53 -43 -24 -51 -26 -41 -9 4 7 3
8 -4 4 -14 -9 -3 -38 12 -30 6 3 0 -4 -14 -15 -14 -12 -30 -25 -37 -31 -13
-11 -40 -9 -60 3 -6 4 -19 0 -27 -9 -9 -8 -16 -11 -16 -5 0 5 5 13 10 16 6 4
7 11 4 17 -5 7 0 9 14 6 12 -4 22 -2 22 3 0 5 -6 9 -12 9 -7 0 -1 12 15 25 15
13 27 27 27 30 -1 25 1 29 10 15 9 -13 14 -7 11 13 -2 12 17 8 22 -5 2 -7 3
-4 1 7 -4 23 37 60 65 60 9 0 15 6 13 14 -2 8 3 18 10 22 18 12 76 11 83 -1z
m-100 -20 c3 -6 -1 -7 -9 -4 -18 7 -21 14 -7 14 6 0 13 -4 16 -10z m340 -10
c3 -5 1 -18 -5 -27 -11 -16 -11 -16 -6 -1 3 10 0 20 -6 24 -7 5 -8 2 -3 -6 5
-9 4 -11 -4 -6 -6 4 -9 12 -6 17 8 12 22 12 30 -1z m-27 -51 c0 -18 -5 -32
-14 -36 -8 -3 -14 -14 -14 -25 0 -10 -5 -16 -10 -13 -6 4 -8 11 -5 16 4 5 1 9
-5 9 -7 0 -9 -8 -5 -19 7 -23 -7 -59 -34 -88 -21 -22 -29 -49 -12 -38 6 3 3
-15 -5 -39 -20 -57 -8 -82 41 -88 31 -4 41 1 83 44 26 26 54 48 62 48 11 0 15
11 14 45 0 29 4 45 12 45 7 0 10 8 7 19 -3 13 4 29 19 44 13 13 23 28 22 33
-2 5 14 23 35 39 21 17 37 33 35 36 -2 4 7 6 19 5 26 -1 29 -14 16 -68 -8 -29
-13 -36 -27 -31 -15 6 -15 5 -3 -10 22 -27 6 -31 -19 -5 -16 17 -20 19 -14 5
4 -12 2 -17 -7 -15 -9 2 -13 -5 -12 -19 2 -15 -3 -23 -12 -23 -8 0 -15 7 -15
15 0 8 -4 15 -10 15 -31 0 6 -40 39 -43 20 -1 31 -17 12 -17 -13 0 -10 -52 5
-67 7 -7 25 -13 39 -13 39 0 26 -24 -15 -28 -20 -2 -36 2 -41 10 -14 23 -81
17 -102 -9 -10 -13 -27 -23 -38 -23 -13 0 -19 -6 -17 -17 2 -14 -3 -17 -22
-15 -20 2 -22 1 -10 -8 13 -9 13 -11 0 -19 -8 -6 -17 -7 -20 -3 -10 13 -29 12
-24 -2 3 -7 -1 -17 -8 -23 -20 -16 -87 -23 -94 -11 -4 6 -3 8 3 5 5 -3 9 4 7
16 -4 33 -5 34 -13 13 -5 -12 -7 -1 -8 32 0 36 3 49 12 46 17 -7 39 50 31 82
-5 19 -2 30 10 38 15 11 15 13 0 13 -17 0 -31 -31 -21 -47 4 -6 2 -16 -3 -23
-5 -7 -8 -20 -7 -30 2 -10 -2 -16 -8 -14 -7 2 -12 10 -12 18 0 8 -10 14 -23
14 -23 0 -42 19 -42 43 0 7 4 11 9 7 5 -3 19 6 30 21 13 16 25 23 33 18 9 -6
9 -3 -1 9 -12 15 -12 17 4 10 15 -5 17 -3 12 11 -4 9 -3 15 2 12 4 -3 16 3 26
14 10 11 15 20 10 20 -4 0 -2 7 5 15 7 8 16 12 21 9 5 -3 14 7 21 21 7 16 17
24 26 20 10 -4 13 0 9 14 -3 13 0 18 8 15 6 -3 12 -19 13 -35z m417 23 c3 -8
3 -17 0 -20 -3 -3 -5 0 -5 6 0 7 -4 12 -8 12 -4 0 -8 -9 -8 -20 0 -12 6 -19
15 -17 16 2 25 -49 15 -92 -9 -39 -25 -3 -17 38 3 21 2 32 -4 28 -10 -6 -36
61 -28 73 8 12 34 7 40 -8z m-214 -121 c6 10 9 8 9 -7 0 -32 -25 -37 -26 -5
-1 14 1 20 3 12 5 -11 7 -11 14 0z m203 -56 c-4 -8 -11 -12 -17 -8 -8 5 -7 8
1 11 7 2 9 9 6 14 -4 7 -2 8 4 4 6 -4 9 -13 6 -21z m-851 -3 c3 7 3 -3 0 -22
-9 -66 -9 -105 0 -117 11 -15 67 -18 67 -3 0 5 7 6 17 3 11 -4 14 -3 9 5 -5 8
0 12 13 12 12 0 24 1 29 3 4 1 7 -11 8 -26 1 -21 -3 -27 -14 -22 -10 4 -12 0
-8 -11 5 -12 2 -15 -9 -10 -9 3 -23 -3 -32 -14 -18 -21 -67 -27 -78 -10 -4 6
-11 7 -17 4 -6 -4 -8 1 -3 15 5 16 3 20 -8 15 -22 -8 -46 54 -45 116 1 54 1
55 14 25 l13 -30 1 27 c0 14 3 34 7 44 6 16 7 16 19 0 9 -13 13 -14 17 -4z
m817 -42 c0 -5 -2 -10 -4 -10 -3 0 -8 5 -11 10 -3 6 -1 10 4 10 6 0 11 -4 11
-10z m-596 -15 c3 -8 1 -15 -5 -15 -6 0 -9 -7 -5 -15 8 -23 -7 -18 -23 6 -11
18 -11 23 1 30 19 12 25 11 32 -6z m556 -10 c-7 -8 -19 -15 -27 -15 -8 0 -11
-4 -8 -10 7 -11 -8 -14 -19 -3 -4 4 8 15 26 24 42 22 43 22 28 4z m-587 -36
c3 -10 0 -22 -5 -26 -7 -3 -8 -1 -4 5 4 7 3 12 -3 12 -5 0 -11 -5 -13 -11 -2
-6 -12 0 -23 12 l-20 22 23 -6 c17 -4 22 -2 18 8 -3 9 0 12 9 9 7 -3 15 -14
18 -25z m-323 -90 c0 -23 4 -38 10 -34 5 3 6 13 3 23 -3 9 -3 14 1 11 4 -4 9
-17 11 -30 3 -13 10 -26 15 -27 7 -3 7 -9 -1 -18 -7 -8 -9 -17 -5 -21 3 -3 6
-1 6 5 0 6 10 1 23 -11 13 -12 21 -28 19 -34 -2 -8 4 -13 16 -13 22 0 39 -18
36 -37 -4 -27 -5 -27 -19 2 l-14 30 4 -27 c5 -37 -3 -36 -16 2 -6 17 -15 30
-20 30 -5 0 -9 6 -9 14 0 8 -5 18 -12 22 -6 4 -8 3 -5 -3 3 -5 0 -10 -8 -10
-8 0 -13 3 -12 6 3 14 -25 81 -34 81 -6 0 -8 4 -5 9 4 5 2 11 -3 13 -12 4 -2
58 10 58 5 0 9 -18 9 -41z m886 -164 c-11 -8 -23 -15 -28 -15 -4 0 -8 -6 -8
-13 0 -7 -12 -14 -26 -15 -17 -1 -24 2 -21 11 2 6 10 12 18 12 8 0 19 5 24 12
8 9 27 17 55 22 3 0 -4 -6 -14 -14z m-706 -53 c8 2 20 -10 28 -26 10 -20 17
-25 22 -16 4 7 15 10 25 7 9 -4 13 -12 9 -19 -5 -8 -2 -9 9 -5 9 3 35 0 58 -8
23 -8 58 -15 78 -15 28 0 33 -3 21 -11 -12 -8 -10 -9 8 -4 13 4 54 7 91 8 38
1 64 5 58 9 -7 4 3 8 21 8 29 0 31 -2 20 -19 -13 -22 -65 -35 -93 -25 -10 4
-16 3 -13 -2 4 -5 -21 -8 -58 -6 -35 2 -64 7 -64 11 0 10 -86 33 -107 28 -12
-3 -10 -5 9 -6 33 -1 58 -11 58 -22 0 -10 -54 6 -95 29 -16 9 -46 24 -65 35
-19 10 -26 15 -15 12 19 -6 19 -5 2 12 -14 15 -19 15 -26 4 -12 -18 -25 4 -16
27 5 12 8 13 14 4 4 -7 14 -12 21 -10z m628 -10 c3 -11 0 -12 -17 -3 -12 7
-21 8 -21 2 0 -5 6 -11 13 -14 6 -2 -7 -10 -30 -17 -23 -7 -41 -17 -40 -23 1
-5 -4 -12 -12 -15 -8 -3 -11 0 -7 7 5 7 -3 11 -21 11 -28 1 -28 1 7 17 19 8
43 15 52 15 10 0 21 4 24 10 5 7 2 8 -7 4 -8 -4 -5 0 6 9 22 18 46 16 53 -3z
m-128 -71 c0 -9 -24 -21 -43 -21 -6 0 -2 7 9 15 22 17 34 19 34 6z"/>
<path d="M910 1700 c0 -5 7 -7 15 -4 8 4 15 8 15 10 0 2 -7 4 -15 4 -8 0 -15
-4 -15 -10z"/>
<path d="M1280 1626 c0 -2 16 -14 35 -26 19 -12 32 -27 29 -32 -5 -7 -2 -8 6
-3 10 6 4 15 -21 36 -31 26 -49 35 -49 25z"/>
<path d="M1376 1542 c-3 -5 1 -9 9 -9 8 0 12 4 9 9 -3 4 -7 8 -9 8 -2 0 -6 -4
-9 -8z"/>
<path d="M472 1300 c0 -14 2 -19 5 -12 2 6 2 18 0 25 -3 6 -5 1 -5 -13z"/>
<path d="M471 1234 c0 -11 3 -14 6 -6 3 7 2 16 -1 19 -3 4 -6 -2 -5 -13z"/>
<path d="M462 1170 c0 -19 2 -27 5 -17 2 9 2 25 0 35 -3 9 -5 1 -5 -18z"/>
<path d="M1006 1292 c-3 -5 1 -9 9 -9 8 0 12 4 9 9 -3 4 -7 8 -9 8 -2 0 -6 -4
-9 -8z"/>
<path d="M1255 1269 c-11 -17 1 -21 15 -4 8 9 8 15 2 15 -6 0 -14 -5 -17 -11z"/>
<path d="M1154 1086 c-10 -8 -16 -17 -13 -20 3 -3 14 1 25 8 10 8 16 17 13 20
-3 3 -14 -1 -25 -8z"/>
<path d="M1298 1083 c6 -2 18 -2 25 0 6 3 1 5 -13 5 -14 0 -19 -2 -12 -5z"/>
<path d="M950 1039 c0 -5 5 -7 10 -4 6 3 10 8 10 11 0 2 -4 4 -10 4 -5 0 -10
-5 -10 -11z"/>
<path d="M621 1144 c0 -11 3 -14 6 -6 3 7 2 16 -1 19 -3 4 -6 -2 -5 -13z"/>
<path d="M605 1030 c3 -5 10 -10 16 -10 5 0 9 5 9 10 0 6 -7 10 -16 10 -8 0
-12 -4 -9 -10z"/>
<path d="M734 1025 c-14 -11 -15 -14 -4 -14 8 0 24 6 34 14 15 11 16 15 5 15
-8 0 -24 -7 -35 -15z"/>
<path d="M795 700 c-3 -6 1 -7 9 -4 18 7 21 14 7 14 -6 0 -13 -4 -16 -10z"/>
<path d="M1441 1724 c0 -11 3 -14 6 -6 3 7 2 16 -1 19 -3 4 -6 -2 -5 -13z"/>
<path d="M1751 1724 c0 -11 3 -14 6 -6 3 7 2 16 -1 19 -3 4 -6 -2 -5 -13z"/>
<path d="M583 1656 c12 -14 24 -23 26 -20 5 5 -30 44 -40 44 -4 0 2 -11 14
-24z"/>
<path d="M615 1660 c3 -5 8 -10 11 -10 2 0 4 5 4 10 0 6 -5 10 -11 10 -5 0 -7
-4 -4 -10z"/>
<path d="M564 1630 c0 -13 4 -16 10 -10 7 7 7 13 0 20 -6 6 -10 3 -10 -10z"/>
<path d="M993 1633 c9 -2 23 -2 30 0 6 3 -1 5 -18 5 -16 0 -22 -2 -12 -5z"/>
<path d="M1426 1627 c3 -10 9 -15 12 -12 3 3 0 11 -7 18 -10 9 -11 8 -5 -6z"/>
<path d="M1050 1610 c8 -5 24 -10 34 -10 26 0 18 6 -19 14 -22 5 -26 4 -15 -4z"/>
<path d="M1745 1601 c-3 -5 -1 -12 5 -16 5 -3 10 1 10 9 0 18 -6 21 -15 7z"/>
<path d="M492 1575 c6 -13 15 -22 19 -19 5 2 1 14 -9 24 -22 26 -24 25 -10 -5z"/>
<path d="M780 1560 c0 -5 5 -10 11 -10 5 0 7 5 4 10 -3 6 -8 10 -11 10 -2 0
-4 -4 -4 -10z"/>
<path d="M1200 1539 c0 -5 5 -7 10 -4 6 3 10 8 10 11 0 2 -4 4 -10 4 -5 0 -10
-5 -10 -11z"/>
<path d="M783 1525 c0 -8 4 -15 9 -15 4 0 8 4 8 9 0 6 -4 12 -8 15 -5 3 -9 -1
-9 -9z"/>
<path d="M1520 1530 c0 -5 5 -10 11 -10 5 0 7 5 4 10 -3 6 -8 10 -11 10 -2 0
-4 -4 -4 -10z"/>
<path d="M1720 1530 c0 -5 5 -10 11 -10 5 0 7 5 4 10 -3 6 -8 10 -11 10 -2 0
-4 -4 -4 -10z"/>
<path d="M721 1504 c13 -16 29 -19 29 -5 0 5 -9 11 -21 14 -16 4 -18 3 -8 -9z"/>
<path d="M860 1496 c0 -9 30 -14 35 -6 4 6 -3 10 -14 10 -12 0 -21 -2 -21 -4z"/>
<path d="M680 1476 c0 -9 5 -16 10 -16 6 0 10 4 10 9 0 6 -4 13 -10 16 -5 3
-10 -1 -10 -9z"/>
<path d="M1280 1480 c0 -5 5 -10 11 -10 5 0 7 5 4 10 -3 6 -8 10 -11 10 -2 0
-4 -4 -4 -10z"/>
<path d="M725 1469 c-4 -6 -5 -12 -2 -15 2 -3 7 2 10 11 7 17 1 20 -8 4z"/>
<path d="M946 1467 c3 -10 9 -15 12 -12 3 3 0 11 -7 18 -10 9 -11 8 -5 -6z"/>
<path d="M1310 1453 c0 -19 21 -27 33 -13 9 10 9 11 -2 5 -8 -4 -17 -2 -22 6
-6 9 -9 10 -9 2z"/>
<path d="M660 1430 c0 -5 5 -10 11 -10 5 0 7 5 4 10 -3 6 -8 10 -11 10 -2 0
-4 -4 -4 -10z"/>
<path d="M946 1428 c3 -5 10 -6 15 -3 13 9 11 12 -6 12 -8 0 -12 -4 -9 -9z"/>
<path d="M982 1420 c-7 -11 -8 -20 -3 -20 9 0 24 30 18 36 -1 2 -8 -6 -15 -16z"/>
<path d="M1228 1433 c25 -5 30 -31 7 -39 -8 -4 -15 -11 -15 -17 0 -6 10 -2 21
10 26 26 19 54 -13 52 l-23 -2 23 -4z"/>
<path d="M1555 1430 c4 -6 11 -8 16 -5 14 9 11 15 -7 15 -8 0 -12 -5 -9 -10z"/>
<path d="M407 1411 c-4 -17 -3 -21 5 -13 5 5 8 16 6 23 -3 8 -7 3 -11 -10z"/>
<path d="M1571 1394 c0 -11 3 -14 6 -6 3 7 2 16 -1 19 -3 4 -6 -2 -5 -13z"/>
<path d="M650 1390 c0 -5 5 -10 11 -10 5 0 7 5 4 10 -3 6 -8 10 -11 10 -2 0
-4 -4 -4 -10z"/>
<path d="M601 1367 c-13 -21 -12 -21 5 -5 10 10 16 20 13 22 -3 3 -11 -5 -18
-17z"/>
<path d="M997 1383 c-4 -3 -7 -11 -7 -17 0 -6 5 -5 12 2 6 6 9 14 7 17 -3 3
-9 2 -12 -2z"/>
<path d="M1193 1350 c-1 -11 2 -22 6 -24 4 -3 7 4 6 14 -2 27 -10 33 -12 10z"/>
<path d="M960 1351 c0 -6 4 -13 10 -16 6 -3 7 1 4 9 -7 18 -14 21 -14 7z"/>
<path d="M1581 1334 c0 -11 3 -14 6 -6 3 7 2 16 -1 19 -3 4 -6 -2 -5 -13z"/>
<path d="M906 1325 c-9 -26 -7 -32 5 -12 6 10 9 21 6 23 -2 3 -7 -2 -11 -11z"/>
<path d="M1157 1313 c-4 -3 -7 -11 -7 -17 0 -6 5 -5 12 2 6 6 9 14 7 17 -3 3
-9 2 -12 -2z"/>
<path d="M1582 1280 c0 -14 2 -19 5 -12 2 6 2 18 0 25 -3 6 -5 1 -5 -13z"/>
<path d="M893 1275 c0 -8 4 -12 9 -9 4 3 8 9 8 15 0 5 -4 9 -8 9 -5 0 -9 -7
-9 -15z"/>
<path d="M830 1236 c0 -2 8 -10 18 -17 15 -13 16 -12 3 4 -13 16 -21 21 -21
13z"/>
<path d="M1401 1228 c-1 -9 4 -20 9 -23 6 -4 7 -11 4 -17 -4 -7 -2 -8 4 -4 7
4 17 17 22 29 11 21 10 21 -4 3 -15 -19 -16 -18 -25 5 -7 16 -10 19 -10 7z"/>
<path d="M1130 1209 c0 -5 -4 -8 -9 -4 -5 3 -12 1 -15 -4 -4 -5 2 -8 11 -7 15
3 33 26 19 26 -3 0 -6 -5 -6 -11z"/>
<path d="M1570 1168 c-12 -24 -16 -38 -9 -31 10 10 15 9 26 -5 13 -15 13 -15
4 5 -13 26 -14 36 -3 30 4 -3 7 6 7 19 0 13 -1 24 -1 24 -1 0 -12 -19 -24 -42z"/>
<path d="M750 1160 c0 -5 5 -10 10 -10 6 0 10 5 10 10 0 6 -4 10 -10 10 -5 0
-10 -4 -10 -10z"/>
<path d="M1346 1153 c-6 -14 -5 -15 5 -6 7 7 10 15 7 18 -3 3 -9 -2 -12 -12z"/>
<path d="M1511 1054 c0 -11 3 -14 6 -6 3 7 2 16 -1 19 -3 4 -6 -2 -5 -13z"/>
<path d="M1178 989 c-10 -10 -13 -19 -8 -19 6 0 13 -1 17 -2 3 -2 8 7 9 20 4
26 4 26 -18 1z"/>
<path d="M866 981 c-3 -5 2 -15 12 -22 15 -12 16 -12 5 2 -7 9 -10 19 -6 22 3
4 4 7 0 7 -3 0 -8 -4 -11 -9z"/>
<path d="M410 940 c0 -5 5 -10 11 -10 5 0 7 5 4 10 -3 6 -8 10 -11 10 -2 0 -4
-4 -4 -10z"/>
<path d="M400 901 c0 -6 5 -13 10 -16 6 -3 10 1 10 9 0 9 -4 16 -10 16 -5 0
-10 -4 -10 -9z"/>
<path d="M436 895 c4 -8 11 -15 16 -15 6 0 5 6 -2 15 -7 8 -14 15 -16 15 -2 0
-1 -7 2 -15z"/>
<path d="M666 902 c-3 -5 1 -9 9 -9 8 0 12 4 9 9 -3 4 -7 8 -9 8 -2 0 -6 -4
-9 -8z"/>
<path d="M729 893 c-13 -15 -12 -15 6 -6 11 6 27 13 35 16 10 4 8 6 -6 6 -12
1 -28 -6 -35 -16z"/>
<path d="M886 891 c8 -8 43 -8 38 0 -2 4 -13 7 -24 6 -10 -1 -17 -3 -14 -6z"/>
<path d="M1050 896 c0 -2 7 -7 16 -10 8 -3 12 -2 9 4 -6 10 -25 14 -25 6z"/>
<path d="M1090 896 c0 -2 7 -7 16 -10 8 -3 12 -2 9 4 -6 10 -25 14 -25 6z"/>
<path d="M695 860 c10 -11 20 -20 23 -20 3 0 -3 9 -13 20 -10 11 -20 20 -23
20 -3 0 3 -9 13 -20z"/>
<path d="M1495 870 c-3 -6 1 -7 9 -4 18 7 21 14 7 14 -6 0 -13 -4 -16 -10z"/>
<path d="M1491 826 c-9 -10 -8 -15 2 -19 8 -3 13 3 14 14 2 23 -1 24 -16 5z"/>
<path d="M1040 780 c0 -5 5 -10 10 -10 6 0 10 5 10 10 0 6 -4 10 -10 10 -5 0
-10 -4 -10 -10z"/>
<path d="M1105 770 c-3 -5 1 -10 10 -10 9 0 13 5 10 10 -3 6 -8 10 -10 10 -2
0 -7 -4 -10 -10z"/>
<path d="M1430 742 c0 -6 -8 -9 -17 -6 -15 5 -16 4 -3 -5 16 -11 40 3 27 16
-4 3 -7 1 -7 -5z"/>
<path d="M595 730 c-3 -5 -1 -10 4 -10 6 0 11 5 11 10 0 6 -2 10 -4 10 -3 0
-8 -4 -11 -10z"/>
<path d="M645 670 c-8 -13 20 -24 36 -15 8 6 7 10 -2 16 -18 11 -26 11 -34 -1z"/>
<path d="M1345 660 c-3 -5 -1 -10 4 -10 6 0 11 5 11 10 0 6 -2 10 -4 10 -3 0
-8 -4 -11 -10z"/>
<path d="M1248 643 c7 -3 16 -2 19 1 4 3 -2 6 -13 5 -11 0 -14 -3 -6 -6z"/>
<path d="M838 583 c6 -2 18 -2 25 0 6 3 1 5 -13 5 -14 0 -19 -2 -12 -5z"/>
<path d="M1138 583 c6 -2 18 -2 25 0 6 3 1 5 -13 5 -14 0 -19 -2 -12 -5z"/>
<path d="M1420 550 c8 -5 20 -10 25 -10 6 0 3 5 -5 10 -8 5 -19 10 -25 10 -5
0 -3 -5 5 -10z"/>
<path d="M1588 553 c7 -3 16 -2 19 1 4 3 -2 6 -13 5 -11 0 -14 -3 -6 -6z"/>
<path d="M715 541 c-3 -5 -2 -12 3 -15 5 -3 9 1 9 9 0 17 -3 19 -12 6z"/>
<path d="M750 540 c-8 -5 -10 -10 -5 -10 6 0 17 5 25 10 8 5 11 10 5 10 -5 0
-17 -5 -25 -10z"/>
<path d="M1378 543 c7 -3 16 -2 19 1 4 3 -2 6 -13 5 -11 0 -14 -3 -6 -6z"/>
<path d="M350 419 c0 -99 2 -110 24 -136 24 -28 30 -29 131 -23 11 0 35 -2 53
-6 46 -9 88 11 101 48 6 17 11 75 11 129 l0 97 -42 -3 -42 -3 1 -96 c1 -88 0
-96 -18 -96 -17 0 -19 8 -19 98 l0 97 -40 0 -40 1 0 -98 c0 -92 -1 -98 -21
-98 -19 0 -20 5 -18 96 l2 96 -42 2 -41 2 0 -107z m58 4 c-1 -43 1 -84 6 -92
6 -9 5 -12 -1 -8 -6 4 -13 1 -16 -7 -4 -10 0 -12 14 -9 10 3 19 1 19 -5 0 -6
10 -7 28 -3 15 5 26 14 24 20 -1 7 2 10 8 6 6 -3 7 -11 4 -17 -4 -6 -1 -9 5
-7 7 3 12 8 12 12 -1 4 -1 16 -1 28 0 11 -4 17 -10 14 -14 -9 -12 19 2 33 9 9
9 12 0 12 -7 0 -12 15 -12 38 0 43 13 68 29 58 13 -9 14 -85 1 -106 -5 -8 -5
-17 -1 -20 5 -3 11 -16 12 -30 2 -14 11 -30 19 -37 13 -10 13 -14 1 -25 -12
-11 -13 -10 -8 3 4 14 -1 16 -26 14 -18 -1 -43 -5 -57 -9 -14 -4 -37 -3 -52 3
-24 9 -25 13 -27 93 -2 86 4 118 21 118 5 0 8 -33 6 -77z m234 20 c-2 -29 -7
-53 -10 -53 -4 0 -6 20 -4 45 3 28 0 45 -7 45 -6 0 -11 4 -11 8 0 4 8 8 18 8
14 0 16 -8 14 -53z m-25 -20 c-3 -10 -5 -4 -5 12 0 17 2 24 5 18 2 -7 2 -21 0
-30z m21 -85 c-2 -24 -9 -43 -17 -46 -8 -3 -11 0 -7 7 5 7 1 9 -8 5 -9 -3 -13
-10 -10 -15 3 -5 -2 -9 -10 -9 -26 0 -18 27 9 34 16 4 22 11 19 21 -4 8 -1 15
5 15 6 0 11 5 11 11 0 5 -4 7 -10 4 -5 -3 -10 -1 -10 4 0 6 7 11 16 11 12 0
14 -9 12 -42z"/>
<path d="M818 521 c-77 -11 -124 -71 -115 -146 8 -75 46 -108 135 -118 l42 -5
0 39 c0 36 -2 39 -29 39 -16 0 -36 3 -45 6 -31 12 -16 24 29 24 43 0 45 1 45
30 0 29 -2 30 -46 30 -40 0 -45 2 -34 15 7 8 28 15 46 15 33 0 34 1 34 40 0
22 -3 39 -7 39 -5 -1 -29 -5 -55 -8z m42 -28 c0 -5 -18 -16 -41 -25 -35 -15
-40 -21 -37 -45 2 -17 8 -27 16 -25 8 1 11 -2 7 -8 -3 -5 -18 -7 -33 -4 -19 4
-23 3 -13 -4 7 -5 10 -15 6 -22 -4 -7 -2 -16 6 -21 11 -7 11 -9 -3 -9 -10 0
-19 11 -23 30 -4 17 -11 30 -16 30 -6 0 -7 5 -4 10 4 6 10 8 14 6 4 -3 13 0
21 5 13 8 12 9 -2 7 -9 -2 -17 2 -16 7 0 6 5 9 10 7 6 -2 8 4 5 13 -4 9 -1 15
9 15 9 0 12 5 8 12 -4 6 -3 8 4 5 14 -9 43 3 36 14 -3 5 6 9 20 9 14 0 26 -3
26 -7z m-5 -103 c-3 -5 -14 -10 -23 -10 -15 0 -15 2 -2 10 20 13 33 13 25 0z
m-40 -90 l50 -19 -37 -1 c-21 0 -38 5 -38 10 0 6 -10 15 -22 20 -13 5 -18 9
-13 9 6 1 33 -8 60 -19z"/>
<path d="M920 398 c0 -70 -1 -131 -2 -135 -2 -4 16 -7 40 -8 l42 -1 0 98 c0
79 3 98 14 98 19 0 46 -39 46 -65 -1 -22 -22 -55 -36 -55 -5 0 -8 -17 -8 -37
1 -34 4 -38 25 -34 37 5 58 20 79 54 39 63 15 174 -43 196 -12 5 -52 10 -89
13 l-68 4 0 -128z m44 85 c-7 20 -2 21 66 6 40 -8 51 -15 56 -34 3 -13 11 -22
17 -19 8 3 12 -10 13 -38 1 -31 -1 -37 -8 -25 -5 10 -6 22 -2 29 5 8 2 9 -9 5
-13 -5 -17 -1 -17 16 0 26 -13 49 -26 46 -5 -1 -11 -1 -14 1 -3 1 -18 3 -33 5
-22 3 -27 0 -23 -11 3 -8 2 -14 -2 -14 -4 0 -7 -38 -6 -85 1 -74 -1 -85 -16
-85 -15 0 -18 11 -19 76 -1 59 1 75 12 71 7 -3 13 2 13 13 0 10 -6 16 -13 13
-9 -4 -13 4 -13 23 0 27 1 27 15 8 13 -16 14 -16 9 -1z m129 -156 c-7 -5 -11
-12 -8 -17 3 -5 0 -12 -6 -16 -8 -4 -9 -3 -5 4 9 16 -7 15 -22 0 -9 -9 -12 -9
-12 0 0 7 5 12 11 12 5 0 7 5 3 12 -4 7 -3 8 4 4 7 -4 14 7 18 30 l7 37 12
-29 c10 -24 9 -31 -2 -37z"/>
<path d="M963 370 c0 -25 2 -35 4 -22 2 12 2 32 0 45 -2 12 -4 2 -4 -23z"/>
<path d="M1230 508 c-91 -61 -89 -182 3 -238 113 -69 242 47 197 177 -25 72
-135 105 -200 61z m68 -7 c-2 -5 6 -16 17 -25 20 -15 20 -15 -1 -10 -12 3 -33
1 -45 -6 -23 -11 -23 -10 -5 4 12 10 15 16 7 16 -11 0 -11 3 -1 15 14 17 31
20 28 6z m66 -17 c9 -8 16 -20 16 -25 0 -6 5 -7 11 -3 7 4 6 -2 -2 -17 -11
-21 -11 -23 3 -11 13 10 16 9 21 -7 3 -14 1 -18 -9 -14 -10 4 -12 0 -8 -11 3
-9 10 -13 15 -10 12 7 11 -17 -1 -36 -9 -13 -10 -13 -11 0 0 10 -3 8 -9 -5 -7
-16 -9 -10 -11 25 -1 25 -1 53 -1 63 1 10 -2 15 -8 12 -6 -3 -7 1 -4 10 4 9 3
15 -2 13 -5 -2 -20 5 -34 15 -24 16 -24 17 -3 17 12 0 29 -7 37 -16z m-129
-38 c-8 -19 -12 -43 -8 -52 5 -13 3 -16 -10 -11 -9 3 -17 2 -17 -2 0 -5 7 -11
15 -15 8 -3 15 -13 15 -21 0 -10 5 -13 12 -9 6 4 8 3 4 -4 -3 -6 3 -13 14 -17
11 -3 20 -10 20 -14 0 -4 13 -6 30 -3 16 2 28 8 25 12 -3 5 -1 11 5 15 5 3 10
1 10 -4 0 -6 4 -11 10 -11 5 0 6 8 3 18 -6 16 -6 16 10 0 9 -9 17 -20 17 -24
0 -4 -3 -5 -6 -1 -4 3 -12 0 -20 -7 -15 -16 -94 -20 -94 -5 0 5 -6 9 -12 7
-26 -5 -59 22 -53 43 4 11 2 19 -4 19 -18 0 -13 42 7 57 9 8 11 12 5 8 -17 -8
-16 1 3 30 24 36 35 30 19 -9z m105 -16 c11 -11 20 -29 20 -40 0 -24 -34 -60
-57 -60 -46 0 -69 66 -36 102 21 24 48 23 73 -2z"/>
<path d="M1210 332 c0 -4 10 -13 23 -21 22 -14 22 -14 3 8 -20 22 -26 25 -26
13z"/>
<path d="M1301 384 c0 -11 3 -14 6 -6 3 7 2 16 -1 19 -3 4 -6 -2 -5 -13z"/>
<path d="M1565 520 c-69 -6 -83 -13 -96 -47 -12 -31 8 -71 50 -98 44 -29 40
-45 -12 -45 l-44 0 2 -37 1 -38 64 3 c36 2 75 10 87 18 48 30 37 93 -22 132
-45 29 -44 42 3 42 37 0 38 1 39 35 1 19 -2 36 -5 38 -4 1 -34 0 -67 -3z m-47
-32 c-2 -7 2 -12 9 -13 15 0 30 -15 15 -15 -19 0 -1 -33 37 -69 25 -23 36 -42
36 -61 0 -16 -3 -26 -7 -24 -3 2 -8 0 -10 -6 -5 -15 -108 -26 -108 -11 0 7 6
11 13 10 6 -2 27 1 44 5 36 8 40 30 11 63 -8 10 -13 24 -11 31 3 7 -1 11 -9
10 -8 -2 -12 5 -10 19 3 23 -13 40 -23 23 -3 -5 -1 -10 5 -10 6 0 8 -5 5 -10
-4 -6 -11 -8 -16 -5 -12 8 -12 45 1 45 6 0 9 3 9 8 -2 12 1 22 6 22 3 0 4 -5
3 -12z m92 -2 c0 -18 -37 -17 -65 1 -18 12 -15 13 23 13 30 0 42 -4 42 -14z"/>
<path d="M1560 375 c7 -9 15 -13 17 -11 7 7 -7 26 -19 26 -6 0 -6 -6 2 -15z"/>
<path d="M1590 350 c0 -5 5 -10 10 -10 6 0 10 5 10 10 0 6 -4 10 -10 10 -5 0
-10 -4 -10 -10z"/>
<path d="M690 499 c0 -5 5 -7 10 -4 6 3 10 8 10 11 0 2 -4 4 -10 4 -5 0 -10
-5 -10 -11z"/>
<path d="M323 279 c0 -22 5 -36 13 -36 7 0 11 4 7 9 -3 5 -9 22 -13 36 -7 25
-8 24 -7 -9z"/>
<path d="M670 266 c0 -8 4 -17 9 -20 5 -4 7 3 4 14 -6 23 -13 26 -13 6z"/>
<path d="M1146 271 c-3 -5 1 -14 8 -20 12 -10 13 -8 9 8 -6 23 -9 25 -17 12z"/>
<path d="M1660 258 c-12 -22 -12 -22 6 -6 10 10 15 20 12 24 -4 3 -12 -5 -18
-18z"/>
<path d="M704 259 c1 -7 13 -14 27 -16 18 -2 20 -1 9 6 -8 5 -17 8 -21 5 -4
-2 -10 1 -12 6 -3 6 -4 5 -3 -1z"/>
<path d="M1181 263 c-1 -17 16 -25 25 -12 4 7 3 9 -4 5 -5 -3 -13 0 -15 6 -4
9 -6 10 -6 1z"/>
</g>
</svg>
