<?xml version="1.0" standalone="no"?>
<!DOCTYPE svg PUBLIC "-//W3C//DTD SVG 20010904//EN"
 "http://www.w3.org/TR/2001/REC-SVG-20010904/DTD/svg10.dtd">
<svg version="1.0" xmlns="http://www.w3.org/2000/svg"
 width="100.000000pt" height="100.000000pt" viewBox="0 0 100.000000 100.000000"
 preserveAspectRatio="xMidYMid meet">
<metadata>
Created by potrace 1.16, written by Peter Selinger 2001-2019
</metadata>
<g transform="translate(0.000000,100.000000) scale(0.100000,-0.100000)"
fill="#000000" stroke="none">
<path d="M170 981 c0 -14 -8 -21 -27 -23 l-28 -3 -3 -477 c-1 -317 1 -478 8
-478 7 0 10 160 10 470 l0 470 30 0 c27 0 30 3 30 30 0 17 -4 30 -10 30 -5 0
-10 -9 -10 -19z"/>
<path d="M310 970 c0 -27 3 -30 30 -30 l30 0 0 -125 0 -125 35 0 c32 0 35 2
35 30 l0 30 60 0 60 0 0 -30 c0 -27 3 -30 30 -30 l30 0 0 125 0 125 35 0 c32
0 35 2 35 30 0 17 -4 30 -10 30 -5 0 -10 -9 -10 -19 0 -15 -8 -21 -32 -23
l-33 -3 -3 -122 c-1 -68 -7 -123 -12 -123 -5 0 -10 12 -12 28 -3 27 -4 27 -78
27 -74 0 -75 0 -78 -27 -2 -16 -9 -28 -17 -28 -11 0 -15 25 -17 123 l-3 122
-27 3 c-20 2 -28 9 -28 23 0 10 -4 19 -10 19 -5 0 -10 -13 -10 -30z"/>
<path d="M810 970 c0 -27 3 -30 30 -30 l30 0 0 -470 c0 -310 3 -470 10 -470 7
0 9 161 8 478 l-3 477 -27 3 c-20 2 -28 9 -28 23 0 10 -4 19 -10 19 -5 0 -10
-13 -10 -30z"/>
<path d="M750 595 l0 -215 30 0 30 0 0 215 0 215 -30 0 -30 0 0 -215z m40 0
c0 -123 -4 -195 -10 -195 -6 0 -10 72 -10 195 0 123 4 195 10 195 6 0 10 -72
10 -195z"/>
</g>
</svg>
