<?xml version="1.0" standalone="no"?>
<!DOCTYPE svg PUBLIC "-//W3C//DTD SVG 20010904//EN"
 "http://www.w3.org/TR/2001/REC-SVG-20010904/DTD/svg10.dtd">
<svg version="1.0" xmlns="http://www.w3.org/2000/svg"
 width="50.000000pt" height="50.000000pt" viewBox="0 0 50.000000 50.000000"
 preserveAspectRatio="xMidYMid meet">
<metadata>
Created by potrace 1.16, written by Peter Selinger 2001-2019
</metadata>
<g transform="translate(0.000000,50.000000) scale(0.100000,-0.100000)"
fill="#000000" stroke="none">
<path d="M22 484 c-14 -9 -22 -25 -21 -42 0 -15 3 -21 6 -14 3 8 26 27 51 43
45 29 45 29 16 29 -16 0 -40 -7 -52 -16z"/>
<path d="M185 490 c4 -6 1 -18 -6 -26 -10 -13 -14 -13 -29 1 -15 13 -19 13
-38 -5 -12 -12 -22 -23 -22 -26 0 -9 44 -43 56 -44 6 0 19 -9 28 -19 23 -26
45 -17 88 35 28 34 38 40 52 32 10 -5 37 -8 62 -6 24 2 44 0 44 -4 0 -5 -8 -8
-17 -8 -9 0 -14 -2 -11 -5 3 -3 -7 -19 -23 -35 -16 -16 -29 -35 -29 -43 0 -8
-7 -17 -15 -21 -27 -10 -16 -26 19 -26 19 0 38 -4 41 -10 3 -6 17 -10 31 -10
13 0 24 -5 24 -11 0 -5 4 -7 10 -4 5 3 10 21 10 39 0 25 -5 35 -20 39 -24 6
-26 25 -4 34 30 11 49 -12 55 -68 6 -51 6 -51 5 16 l-1 70 -40 6 c-22 3 -34 7
-27 8 6 0 12 14 12 31 0 27 -3 30 -32 30 -18 0 -55 3 -83 6 -49 6 -50 6 -80
-35 -28 -38 -55 -53 -55 -31 0 6 -8 10 -19 10 -10 0 -24 6 -30 14 -9 11 -6 12
14 8 14 -2 32 1 40 8 20 17 20 60 -1 60 -8 0 -12 -5 -9 -10z m215 -155 c0 -14
5 -25 12 -25 6 0 9 -2 6 -5 -3 -3 -17 -1 -31 6 -22 10 -24 14 -14 30 16 26 27
24 27 -6z"/>
<path d="M0 373 c0 -22 9 -39 33 -60 25 -21 35 -41 39 -69 3 -22 17 -66 32
-97 29 -65 31 -76 14 -112 -13 -30 -5 -43 16 -25 33 27 31 77 -8 159 -21 45
-36 92 -36 114 0 26 -4 37 -15 37 -8 0 -28 19 -45 42 l-30 41 0 -30z"/>
<path d="M488 208 c-2 -19 -11 -24 -48 -29 -31 -5 -49 -3 -59 6 -12 11 -19 9
-42 -15 -16 -16 -29 -39 -29 -52 0 -27 41 -118 53 -118 12 0 -2 59 -21 92 -21
37 -3 58 50 58 57 0 108 26 108 56 0 30 -8 31 -12 2z"/>
</g>
</svg>
