<?xml version="1.0" standalone="no"?>
<!DOCTYPE svg PUBLIC "-//W3C//DTD SVG 20010904//EN"
 "http://www.w3.org/TR/2001/REC-SVG-20010904/DTD/svg10.dtd">
<svg version="1.0" xmlns="http://www.w3.org/2000/svg"
 width="64.000000pt" height="64.000000pt" viewBox="0 0 64.000000 64.000000"
 preserveAspectRatio="xMidYMid meet">
<metadata>
Created by potrace 1.16, written by Peter Selinger 2001-2019
</metadata>
<g transform="translate(0.000000,64.000000) scale(0.100000,-0.100000)"
fill="#000000" stroke="none">
<path d="M147 625 c-82 -43 -147 -127 -146 -189 l0 -41 14 38 c32 85 108 160
195 190 l45 16 -40 0 c-22 1 -53 -6 -68 -14z"/>
<path d="M433 620 c92 -36 157 -102 188 -193 l18 -52 1 45 c0 98 -120 221
-214 220 l-41 -1 48 -19z"/>
<path d="M421 511 l4 -91 -92 0 c-50 0 -98 3 -107 6 -13 5 -16 22 -16 85 0 46
-4 79 -10 79 -6 0 -10 -30 -10 -70 l0 -70 -69 0 c-39 0 -73 -4 -76 -10 -4 -6
25 -10 79 -10 l86 0 0 -110 0 -110 -91 0 c-57 0 -88 -4 -84 -10 3 -5 40 -10
81 -10 l74 0 0 -67 c0 -38 5 -75 10 -83 7 -10 10 14 10 78 l0 92 105 0 105 0
0 -91 c0 -68 3 -90 13 -87 8 3 13 31 15 81 l3 77 74 0 c41 0 77 5 80 10 4 6
-28 10 -90 10 l-96 0 3 103 3 102 88 3 c64 2 87 6 84 15 -2 7 -30 13 -75 15
l-71 3 -3 71 c-2 49 -7 73 -17 76 -10 3 -12 -13 -10 -87z m-21 -191 l0 -80
-80 0 -80 0 0 80 0 80 80 0 80 0 0 -80z"/>
<path d="M632 237 c-7 -69 -115 -192 -195 -220 l-42 -15 40 -1 c44 -1 69 12
128 68 52 49 79 103 74 149 -2 20 -4 29 -5 19z"/>
<path d="M0 199 c0 -83 120 -199 204 -199 l41 1 -36 13 c-88 31 -145 84 -185
171 l-24 50 0 -36z"/>
</g>
</svg>
