<?xml version="1.0" standalone="no"?>
<!DOCTYPE svg PUBLIC "-//W3C//DTD SVG 20010904//EN"
 "http://www.w3.org/TR/2001/REC-SVG-20010904/DTD/svg10.dtd">
<svg version="1.0" xmlns="http://www.w3.org/2000/svg"
 width="192.000000pt" height="192.000000pt" viewBox="0 0 192.000000 192.000000"
 preserveAspectRatio="xMidYMid meet">
<metadata>
Created by potrace 1.16, written by Peter Selinger 2001-2019
</metadata>
<g transform="translate(0.000000,192.000000) scale(0.100000,-0.100000)"
fill="#000000" stroke="none">
<path d="M10 960 c0 -633 3 -960 10 -960 7 0 10 327 10 960 0 633 -3 960 -10
960 -7 0 -10 -327 -10 -960z"/>
<path d="M948 1624 c-5 -7 -15 -65 -23 -130 -36 -271 -60 -294 -348 -328 -144
-17 -165 -36 -31 -30 118 6 223 27 282 56 73 35 104 107 123 287 11 109 10
165 -3 145z"/>
<path d="M980 1555 c1 -98 21 -217 48 -277 32 -74 93 -107 242 -132 69 -12
210 -16 210 -6 0 10 -7 11 -178 34 -73 10 -133 24 -168 40 -75 35 -97 84 -120
266 -10 74 -21 139 -26 145 -4 5 -8 -27 -8 -70z"/>
<path d="M1370 1109 c-233 -15 -325 -63 -349 -181 -21 -101 -31 -234 -37 -463
-7 -319 10 -271 30 85 18 302 26 362 54 419 30 61 142 102 325 117 43 4 80 11
83 16 9 14 7 14 -106 7z"/>
<path d="M460 1102 c8 -5 63 -14 122 -21 123 -14 191 -32 239 -64 68 -45 80
-101 104 -506 9 -156 19 -259 26 -265 19 -18 -8 558 -31 661 -25 109 -62 147
-176 178 -64 17 -309 32 -284 17z"/>
</g>
</svg>
