<?xml version="1.0" standalone="no"?>
<!DOCTYPE svg PUBLIC "-//W3C//DTD SVG 20010904//EN"
 "http://www.w3.org/TR/2001/REC-SVG-20010904/DTD/svg10.dtd">
<svg version="1.0" xmlns="http://www.w3.org/2000/svg"
 width="196.000000pt" height="196.000000pt" viewBox="0 0 196.000000 196.000000"
 preserveAspectRatio="xMidYMid meet">
<metadata>
Created by potrace 1.16, written by Peter Selinger 2001-2019
</metadata>
<g transform="translate(0.000000,196.000000) scale(0.100000,-0.100000)"
fill="#000000" stroke="none">
<path d="M720 1950 c-14 -4 -49 -16 -79 -25 -130 -40 -299 -146 -384 -240 -10
-11 -31 -34 -47 -51 -112 -124 -211 -343 -209 -463 1 -31 3 -47 6 -36 46 210
117 362 223 479 16 17 37 40 47 51 31 35 126 111 183 146 112 71 209 107 360
134 l75 13 -75 0 c-41 0 -86 -3 -100 -8z"/>
<path d="M1125 1949 c168 -31 262 -66 388 -146 38 -24 83 -57 100 -73 18 -15
41 -37 52 -47 20 -18 84 -90 118 -131 56 -70 138 -260 165 -382 l10 -45 1 55
c2 86 -85 302 -157 392 -32 41 -97 113 -117 131 -11 10 -34 32 -52 47 -37 34
-152 109 -203 132 -119 55 -209 78 -293 77 l-62 -1 50 -9z"/>
<path d="M950 1628 c0 -29 -7 -100 -15 -156 -20 -139 -48 -192 -121 -228 -56
-28 -199 -54 -294 -54 -49 0 -92 -13 -80 -23 11 -8 265 13 322 28 113 29 153
69 183 181 21 76 33 304 17 304 -8 0 -12 -20 -12 -52z"/>
<path d="M990 1588 c1 -160 30 -278 83 -335 42 -47 177 -78 370 -85 73 -3 96
3 61 16 -9 3 -37 6 -64 6 -70 0 -197 18 -255 37 -70 22 -100 46 -125 99 -24
49 -50 196 -50 286 0 31 -4 60 -10 63 -6 4 -10 -27 -10 -87z"/>
<path d="M440 1144 c0 -5 62 -15 138 -22 232 -20 290 -49 316 -157 19 -77 32
-208 47 -477 7 -120 16 -218 21 -218 16 0 2 370 -22 585 -22 194 -53 241 -182
270 -84 19 -318 33 -318 19z"/>
<path d="M1284 1139 c-151 -19 -204 -47 -232 -122 -32 -84 -62 -403 -62 -652
0 -172 17 -90 29 145 24 454 44 536 138 575 38 16 138 32 261 41 51 4 95 11
98 15 6 11 -148 10 -232 -2z"/>
<path d="M1 778 c-3 -154 142 -419 306 -561 148 -127 340 -218 458 -216 l50 1
-40 10 c-189 46 -313 109 -448 225 -154 133 -270 337 -315 553 l-10 45 -1 -57z"/>
<path d="M1932 725 c-78 -332 -355 -612 -689 -697 -80 -21 -85 -23 -48 -26 69
-6 220 47 330 117 61 38 134 99 189 155 140 146 253 380 244 505 -3 41 -5 38
-26 -54z"/>
</g>
</svg>
