<?xml version="1.0" standalone="no"?>
<!DOCTYPE svg PUBLIC "-//W3C//DTD SVG 20010904//EN"
 "http://www.w3.org/TR/2001/REC-SVG-20010904/DTD/svg10.dtd">
<svg version="1.0" xmlns="http://www.w3.org/2000/svg"
 width="100.000000pt" height="100.000000pt" viewBox="0 0 100.000000 100.000000"
 preserveAspectRatio="xMidYMid meet">
<metadata>
Created by potrace 1.16, written by Peter Selinger 2001-2019
</metadata>
<g transform="translate(0.000000,100.000000) scale(0.100000,-0.100000)"
fill="#000000" stroke="none">
<path d="M30 983 c0 -10 26 -13 110 -13 61 0 110 -4 110 -8 0 -5 -13 -8 -28
-7 -16 1 -37 -2 -48 -6 -11 -4 21 -8 76 -9 70 -1 89 -4 72 -11 -13 -5 -28 -7
-33 -3 -5 3 -9 0 -9 -5 0 -7 26 -11 65 -11 49 0 65 -3 65 -14 0 -9 -7 -12 -20
-9 -11 3 -20 0 -20 -6 0 -7 20 -11 50 -11 38 0 50 -4 50 -15 0 -10 10 -15 30
-15 17 0 30 -5 30 -11 0 -6 -7 -9 -15 -5 -8 3 -15 1 -15 -4 0 -6 20 -10 45
-10 25 0 45 -4 45 -10 0 -5 -7 -7 -15 -4 -8 4 -15 1 -15 -5 0 -6 14 -11 30
-11 17 0 30 -5 30 -11 0 -6 -7 -9 -15 -5 -8 3 -15 1 -15 -4 0 -6 23 -10 50
-10 28 0 50 -4 50 -10 0 -5 -7 -7 -15 -4 -8 4 -15 1 -15 -5 0 -6 14 -11 30
-11 17 0 30 -5 30 -11 0 -6 -7 -9 -15 -5 -8 3 -15 1 -15 -4 0 -6 14 -10 30
-10 20 0 30 -5 30 -15 0 -8 7 -15 15 -15 8 0 15 -7 15 -15 0 -8 7 -15 15 -15
8 0 15 -9 15 -20 0 -11 7 -20 15 -20 8 0 15 -7 15 -15 0 -8 7 -15 15 -15 8 0
15 -7 15 -15 0 -8 9 -15 20 -15 11 0 20 -7 20 -15 0 -8 7 -15 15 -15 8 0 15
-7 15 -15 0 -8 7 -15 15 -15 10 0 15 -10 15 -30 0 -20 5 -30 15 -30 8 0 15 5
15 10 0 6 -6 10 -12 10 -10 0 -10 2 -1 8 15 10 4 65 -12 58 -8 -3 -11 2 -8 15
6 22 -22 28 -31 7 -3 -7 -3 -1 0 15 5 20 2 27 -9 27 -8 0 -17 -5 -19 -12 -3
-9 -6 -9 -12 0 -4 7 -2 12 3 12 19 0 12 28 -9 33 -11 3 -20 12 -20 21 0 9 -4
16 -8 16 -5 0 -8 34 -6 75 2 44 -1 75 -6 75 -6 0 -10 -26 -10 -59 0 -47 -3
-60 -17 -63 -16 -4 -18 3 -15 74 l4 78 -31 0 c-21 0 -31 5 -31 15 0 10 10 15
30 15 28 0 30 3 30 35 0 26 4 35 16 35 11 0 15 -6 11 -20 -4 -15 0 -20 14 -20
10 0 19 -7 19 -15 0 -8 9 -15 20 -15 11 0 20 -7 20 -15 0 -8 -9 -15 -20 -15
-18 0 -20 -7 -20 -86 0 -54 4 -83 10 -79 6 3 10 30 10 60 0 47 3 55 23 61 l22
8 -25 7 c-23 6 -22 7 10 8 35 2 70 20 70 38 0 5 -12 16 -27 24 -16 8 -34 20
-41 27 -7 6 -17 12 -22 12 -4 0 -10 9 -13 20 -3 11 -11 19 -18 18 -7 -2 -13 3
-14 10 0 13 -9 16 -28 9 -9 -4 -9 -6 1 -6 17 -1 15 -21 -3 -21 -9 0 -15 9 -15
21 0 19 -1 19 -16 5 -9 -9 -13 -24 -9 -35 4 -13 0 -20 -16 -24 -11 -3 -18 -10
-14 -16 3 -6 -2 -11 -13 -11 -11 0 -25 -7 -32 -15 -14 -17 -10 -50 8 -51 6 -1
22 -2 35 -4 12 -1 16 -4 10 -7 -20 -8 -16 -36 5 -31 13 4 18 -2 19 -25 2 -24
0 -27 -12 -17 -8 6 -19 9 -25 5 -5 -3 -10 1 -10 9 0 9 -7 16 -15 16 -8 0 -15
6 -15 14 0 17 -24 27 -53 22 -12 -1 -16 -1 -9 1 6 3 12 11 12 19 0 11 -6 13
-21 9 -15 -5 -25 -1 -36 15 -12 16 -22 20 -42 15 -17 -4 -22 -3 -12 4 19 13
-22 34 -52 27 -12 -3 -16 -3 -9 0 6 3 12 15 11 27 0 12 -3 16 -6 10 -2 -7 -11
-13 -18 -13 -7 0 -16 6 -18 13 -4 9 -8 9 -15 -2 -7 -9 -12 -10 -16 -2 -4 6 -2
11 3 11 6 0 11 6 11 13 0 8 -13 13 -37 12 -24 0 -43 6 -50 16 -8 11 -25 15
-54 14 -22 -1 -36 1 -29 5 25 15 -12 22 -126 24 -88 2 -114 -1 -114 -11z m840
-89 c0 -8 -4 -12 -10 -9 -5 3 -10 10 -10 16 0 5 5 9 10 9 6 0 10 -7 10 -16z
m-70 -28 c0 -3 -4 -8 -10 -11 -5 -3 -10 -1 -10 4 0 6 5 11 10 11 6 0 10 -2 10
-4z m110 -6 c0 -5 -4 -10 -9 -10 -6 0 -13 5 -16 10 -3 6 1 10 9 10 9 0 16 -4
16 -10z m-170 -35 c0 -8 -4 -15 -10 -15 -5 0 -10 7 -10 15 0 8 5 15 10 15 6 0
10 -7 10 -15z m200 0 c0 -8 -4 -15 -10 -15 -5 0 -10 7 -10 15 0 8 5 15 10 15
6 0 10 -7 10 -15z m30 0 c0 -8 -4 -15 -10 -15 -5 0 -10 7 -10 15 0 8 5 15 10
15 6 0 10 -7 10 -15z m-175 -35 c3 -5 1 -10 -4 -10 -6 0 -11 5 -11 10 0 6 2
10 4 10 3 0 8 -4 11 -10z m45 -175 c0 -8 -2 -15 -4 -15 -2 0 -6 7 -10 15 -3 8
-1 15 4 15 6 0 10 -7 10 -15z m30 -35 c0 -5 -2 -10 -4 -10 -3 0 -8 5 -11 10
-3 6 -1 10 4 10 6 0 11 -4 11 -10z"/>
<path d="M340 880 c0 -5 5 -10 10 -10 6 0 10 5 10 10 0 6 -4 10 -10 10 -5 0
-10 -4 -10 -10z"/>
<path d="M440 850 c0 -5 5 -10 11 -10 5 0 7 5 4 10 -3 6 -8 10 -11 10 -2 0 -4
-4 -4 -10z"/>
<path d="M840 850 c0 -5 5 -10 11 -10 5 0 7 5 4 10 -3 6 -8 10 -11 10 -2 0 -4
-4 -4 -10z"/>
<path d="M840 799 c0 -5 5 -7 10 -4 6 3 10 8 10 11 0 2 -4 4 -10 4 -5 0 -10
-5 -10 -11z"/>
<path d="M750 640 c0 -5 5 -10 11 -10 5 0 7 5 4 10 -3 6 -8 10 -11 10 -2 0 -4
-4 -4 -10z"/>
<path d="M940 450 c0 -5 5 -10 11 -10 5 0 7 5 4 10 -3 6 -8 10 -11 10 -2 0 -4
-4 -4 -10z"/>
<path d="M978 383 c7 -3 16 -2 19 1 4 3 -2 6 -13 5 -11 0 -14 -3 -6 -6z"/>
</g>
</svg>
