<?xml version="1.0" standalone="no"?>
<!DOCTYPE svg PUBLIC "-//W3C//DTD SVG 20010904//EN"
 "http://www.w3.org/TR/2001/REC-SVG-20010904/DTD/svg10.dtd">
<svg version="1.0" xmlns="http://www.w3.org/2000/svg"
 width="256.000000pt" height="256.000000pt" viewBox="0 0 256.000000 256.000000"
 preserveAspectRatio="xMidYMid meet">
<metadata>
Created by potrace 1.16, written by Peter Selinger 2001-2019
</metadata>
<g transform="translate(0.000000,256.000000) scale(0.100000,-0.100000)"
fill="#000000" stroke="none">
<path d="M21 1335 c-2 -676 -5 -1251 -6 -1277 -1 -29 2 -48 9 -48 8 0 10 313
8 1102 -1 607 -3 1182 -5 1278 -1 96 -4 -378 -6 -1055z"/>
<path d="M1260 2125 c0 -26 -5 -45 -11 -45 -7 0 -9 -12 -6 -32 11 -69 -27
-283 -59 -335 -8 -12 -14 -30 -14 -40 0 -13 -3 -14 -12 -5 -15 15 -38 16 -38
2 0 -6 3 -9 8 -9 22 4 21 -3 -5 -25 -47 -39 -71 -47 -121 -42 -33 4 -38 3 -17
-2 29 -8 29 -8 7 -16 -28 -9 -115 -11 -162 -2 -26 4 -30 3 -15 -3 11 -5 34
-10 50 -11 33 -2 -140 -28 -195 -30 -19 0 -53 -9 -75 -20 -24 -12 -30 -18 -15
-14 14 3 72 10 130 15 142 13 272 35 347 60 99 33 150 94 181 219 15 61 42
270 42 328 0 34 3 43 10 32 5 -8 10 -40 10 -70 0 -72 35 -293 54 -348 30 -83
88 -139 170 -164 116 -34 419 -74 457 -60 18 7 2 12 -67 20 -50 7 -102 12
-117 12 -14 0 -29 5 -32 11 -4 6 -19 7 -36 4 -35 -8 -40 11 -6 25 18 8 16 9
-12 4 -21 -4 -31 -2 -27 4 3 5 -11 4 -32 -3 -28 -10 -50 -11 -90 -3 l-54 11 5
36 c3 20 3 28 1 19 -3 -10 -10 -18 -15 -18 -5 0 -9 -7 -9 -15 0 -11 -9 -6 -29
14 -16 16 -32 27 -36 23 -3 -3 -3 2 1 12 6 15 4 17 -6 11 -8 -5 -11 -4 -7 2 9
14 -12 83 -25 83 -7 0 -7 -4 -1 -12 10 -13 24 -58 18 -58 -7 0 -33 60 -39 87
-10 43 -15 75 -21 113 -4 27 -3 30 4 15 8 -17 10 -17 10 -3 1 9 -3 19 -8 22
-10 7 -20 67 -27 163 -6 79 -8 83 -40 83 -22 0 -24 -4 -24 -45z m420 -555 c0
-5 -12 -10 -27 -9 -25 0 -26 1 -8 9 27 12 35 12 35 0z"/>
<path d="M1232 2135 c0 -16 2 -22 5 -12 2 9 2 23 0 30 -3 6 -5 -1 -5 -18z"/>
<path d="M1342 2140 c0 -14 2 -19 5 -12 2 6 2 18 0 25 -3 6 -5 1 -5 -13z"/>
<path d="M1202 2080 c0 -19 2 -27 5 -17 2 9 2 25 0 35 -3 9 -5 1 -5 -18z"/>
<path d="M1346 2085 c-3 -9 -5 -35 -5 -58 2 -40 2 -39 9 13 7 59 6 71 -4 45z"/>
<path d="M1222 2060 c0 -14 2 -19 5 -12 2 6 2 18 0 25 -3 6 -5 1 -5 -13z"/>
<path d="M1210 1985 c0 -14 4 -25 9 -25 5 0 11 11 13 25 4 17 1 25 -8 25 -8 0
-14 -11 -14 -25z"/>
<path d="M1351 1964 c0 -11 3 -14 6 -6 3 7 2 16 -1 19 -3 4 -6 -2 -5 -13z"/>
<path d="M1213 1880 c0 -25 2 -35 4 -22 2 12 2 32 0 45 -2 12 -4 2 -4 -23z"/>
<path d="M1291 1844 c0 -11 3 -14 6 -6 3 7 2 16 -1 19 -3 4 -6 -2 -5 -13z"/>
<path d="M1275 1759 c-18 -9 -18 -9 3 -5 18 3 22 -1 23 -22 2 -26 2 -26 6 -3
6 30 -6 41 -32 30z"/>
<path d="M1257 1713 c3 -7 9 -10 14 -7 14 8 11 21 -5 21 -8 0 -12 -6 -9 -14z"/>
<path d="M1432 1710 c0 -14 2 -19 5 -12 2 6 2 18 0 25 -3 6 -5 1 -5 -13z"/>
<path d="M1243 1683 c9 -2 25 -2 35 0 9 3 1 5 -18 5 -19 0 -27 -2 -17 -5z"/>
<path d="M1450 1672 c0 -12 19 -26 26 -19 2 2 -2 10 -11 17 -9 8 -15 8 -15 2z"/>
<path d="M1185 1610 c-3 -5 -1 -10 4 -10 6 0 11 5 11 10 0 6 -2 10 -4 10 -3 0
-8 -4 -11 -10z"/>
<path d="M778 1593 c7 -3 16 -2 19 1 4 3 -2 6 -13 5 -11 0 -14 -3 -6 -6z"/>
<path d="M1568 1593 c7 -3 16 -2 19 1 4 3 -2 6 -13 5 -11 0 -14 -3 -6 -6z"/>
<path d="M1610 1590 c-18 -12 -2 -12 25 0 13 6 15 9 5 9 -8 0 -22 -4 -30 -9z"/>
<path d="M888 1583 c7 -3 16 -2 19 1 4 3 -2 6 -13 5 -11 0 -14 -3 -6 -6z"/>
<path d="M1798 1573 c7 -3 16 -2 19 1 4 3 -2 6 -13 5 -11 0 -14 -3 -6 -6z"/>
<path d="M728 1563 c6 -2 18 -2 25 0 6 3 1 5 -13 5 -14 0 -19 -2 -12 -5z"/>
<path d="M1441 1548 l-1 -27 29 17 c33 18 35 30 3 13 -17 -9 -21 -8 -25 7 -3
10 -5 7 -6 -10z"/>
<path d="M1513 1535 c0 -8 4 -12 9 -9 5 3 6 10 3 15 -9 13 -12 11 -12 -6z"/>
<path d="M1065 1530 c3 -5 18 -10 32 -10 32 0 28 5 -10 14 -19 4 -26 3 -22 -4z"/>
<path d="M1594 1512 c5 -8 -1 -12 -16 -13 -18 -1 -19 -2 -4 -6 23 -6 43 12 25
22 -8 5 -10 4 -5 -3z"/>
<path d="M1670 1500 c-18 -12 -2 -12 25 0 13 6 15 9 5 9 -8 0 -22 -4 -30 -9z"/>
<path d="M1031 1484 c0 -11 3 -14 6 -6 3 7 2 16 -1 19 -3 4 -6 -2 -5 -13z"/>
<path d="M600 1482 c0 -5 53 -14 118 -21 64 -7 138 -14 163 -17 47 -5 147 -29
156 -37 13 -13 -17 -14 -41 -1 -33 16 -36 17 -36 6 0 -13 62 -32 79 -23 9 4
26 3 40 -5 21 -11 22 -13 5 -17 -11 -3 -3 -4 16 -4 30 2 35 -1 35 -20 0 -12 4
-25 8 -29 4 -4 7 -2 7 5 0 7 5 9 10 6 6 -4 8 -16 4 -27 -4 -12 -2 -18 4 -14
12 7 34 -70 36 -123 0 -22 4 -37 8 -35 4 3 6 -46 4 -108 -2 -79 0 -98 5 -63 5
35 6 16 4 -60 -2 -75 0 -97 5 -70 9 45 5 -149 -5 -200 -3 -20 -1 -17 8 10 13
38 14 29 21 -137 5 -112 12 -178 19 -178 12 0 4 243 -18 580 -19 289 -42 407
-89 459 -32 35 -122 77 -206 95 -145 31 -360 47 -360 28z"/>
<path d="M1628 1483 c7 -3 16 -2 19 1 4 3 -2 6 -13 5 -11 0 -14 -3 -6 -6z"/>
<path d="M1766 1479 c-209 -24 -340 -78 -380 -158 -37 -72 -57 -237 -75 -626
-16 -327 -17 -375 -9 -375 5 0 8 8 9 18 0 15 1 15 8 -2 4 -11 7 37 7 105 -1
177 16 489 25 459 4 -14 5 8 3 49 -7 120 31 361 58 361 11 0 10 -17 -2 -25 -5
-3 -10 -14 -9 -23 0 -11 4 -9 11 8 10 24 10 24 18 5 6 -13 7 -5 5 27 -3 43 -2
47 25 58 16 7 35 8 42 4 10 -6 11 -5 1 8 -17 20 -7 28 31 22 17 -2 25 -2 18 2
-6 3 -10 10 -6 15 6 11 41 12 47 2 2 -5 3 -3 1 3 -3 13 139 39 156 29 5 -3 10
-1 10 4 0 6 17 11 38 11 27 0 33 -3 22 -10 -12 -7 -8 -10 15 -10 20 0 26 3 17
9 -21 13 30 23 78 15 33 -5 40 -4 40 10 0 13 -11 16 -67 15 -38 -1 -99 -5
-137 -10z m-338 -164 c-3 -3 -9 2 -12 12 -6 14 -5 15 5 6 7 -7 10 -15 7 -18z"/>
<path d="M591 1456 c2 -2 22 -6 44 -9 28 -5 34 -4 20 3 -19 8 -73 14 -64 6z"/>
<path d="M1871 1456 c2 -2 20 -6 39 -10 25 -4 31 -3 20 4 -14 9 -69 15 -59 6z"/>
<path d="M1175 1430 c-3 -6 1 -7 9 -4 18 7 21 14 7 14 -6 0 -13 -4 -16 -10z"/>
<path d="M1361 1424 c0 -11 3 -14 6 -6 3 7 2 16 -1 19 -3 4 -6 -2 -5 -13z"/>
<path d="M1388 1433 c7 -3 16 -2 19 1 4 3 -2 6 -13 5 -11 0 -14 -3 -6 -6z"/>
<path d="M1387 1403 c-4 -3 -7 -11 -7 -17 0 -6 5 -5 12 2 6 6 9 14 7 17 -3 3
-9 2 -12 -2z"/>
<path d="M960 1382 c0 -13 47 -28 57 -18 4 3 -3 6 -13 6 -11 0 -25 5 -32 12
-9 9 -12 9 -12 0z"/>
<path d="M1524 1375 c11 -8 26 -15 33 -15 22 0 14 8 -19 19 -30 10 -31 9 -14
-4z"/>
<path d="M1250 1340 c0 -5 5 -10 10 -10 6 0 10 5 10 10 0 6 -4 10 -10 10 -5 0
-10 -4 -10 -10z"/>
<path d="M1230 1315 c0 -5 5 -17 10 -25 5 -8 10 -10 10 -5 0 6 -5 17 -10 25
-5 8 -10 11 -10 5z"/>
<path d="M1271 1304 c0 -11 3 -14 6 -6 3 7 2 16 -1 19 -3 4 -6 -2 -5 -13z"/>
<path d="M1125 1290 c-3 -5 -1 -10 4 -10 6 0 11 5 11 10 0 6 -2 10 -4 10 -3 0
-8 -4 -11 -10z"/>
<path d="M1301 1225 c-1 -23 -4 -27 -11 -15 -5 8 -10 11 -10 5 0 -5 4 -17 9
-24 8 -12 11 -9 16 12 4 14 5 32 2 39 -3 7 -6 0 -6 -17z"/>
<path d="M1386 1225 c-9 -26 -7 -32 5 -12 6 10 9 21 6 23 -2 3 -7 -2 -11 -11z"/>
<path d="M1431 1214 c0 -11 3 -14 6 -6 3 7 2 16 -1 19 -3 4 -6 -2 -5 -13z"/>
<path d="M1270 1125 c-7 -9 -10 -18 -6 -22 3 -3 6 -1 6 5 0 7 7 12 15 12 8 0
15 5 15 10 0 15 -16 12 -30 -5z"/>
<path d="M1293 1075 c0 -22 2 -30 4 -17 2 12 2 30 0 40 -3 9 -5 -1 -4 -23z"/>
<path d="M1211 760 c-1 -14 -4 -36 -6 -50 l-6 -25 11 25 c6 13 9 36 7 50 l-4
25 -2 -25z"/>
<path d="M1342 640 c0 -19 2 -27 5 -17 2 9 2 25 0 35 -3 9 -5 1 -5 -18z"/>
<path d="M1201 574 c0 -11 3 -14 6 -6 3 7 2 16 -1 19 -3 4 -6 -2 -5 -13z"/>
<path d="M1233 500 c0 -41 2 -58 4 -37 2 20 2 54 0 75 -2 20 -4 3 -4 -38z"/>
<path d="M1333 510 c0 -30 2 -43 4 -27 2 15 2 39 0 55 -2 15 -4 2 -4 -28z"/>
<path d="M1352 540 c0 -14 2 -19 5 -12 2 6 2 18 0 25 -3 6 -5 1 -5 -13z"/>
<path d="M1202 480 c0 -14 2 -19 5 -12 2 6 2 18 0 25 -3 6 -5 1 -5 -13z"/>
<path d="M1347 443 c-4 -20 -3 -42 1 -49 4 -8 9 8 10 36 2 59 -3 65 -11 13z"/>
<path d="M1351 344 c0 -11 3 -14 6 -6 3 7 2 16 -1 19 -3 4 -6 -2 -5 -13z"/>
<path d="M50 20 c0 -5 5 -10 10 -10 6 0 10 5 10 10 0 6 -4 10 -10 10 -5 0 -10
-4 -10 -10z"/>
<path d="M80 23 c0 -7 1225 -7 2135 0 193 1 -209 3 -892 5 -684 1 -1243 -1
-1243 -5z"/>
</g>
</svg>
