<?xml version="1.0" standalone="no"?>
<!DOCTYPE svg PUBLIC "-//W3C//DTD SVG 20010904//EN"
 "http://www.w3.org/TR/2001/REC-SVG-20010904/DTD/svg10.dtd">
<svg version="1.0" xmlns="http://www.w3.org/2000/svg"
 width="180.000000pt" height="180.000000pt" viewBox="0 0 180.000000 180.000000"
 preserveAspectRatio="xMidYMid meet">
<metadata>
Created by potrace 1.16, written by Peter Selinger 2001-2019
</metadata>
<g transform="translate(0.000000,180.000000) scale(0.100000,-0.100000)"
fill="#000000" stroke="none">
<path d="M857 1498 c-20 -163 -30 -199 -68 -242 -40 -46 -86 -62 -226 -81
-146 -20 -163 -23 -163 -33 0 -4 42 -4 93 -1 185 14 288 45 326 98 35 49 71
222 71 342 0 92 -17 49 -33 -83z"/>
<path d="M911 1528 c12 -192 41 -280 107 -325 43 -28 153 -53 270 -60 100 -6
136 -23 50 -23 -135 -1 -275 -35 -332 -82 -63 -52 -82 -165 -92 -553 -6 -258
9 -297 20 -50 17 385 36 528 77 571 42 45 115 66 324 92 52 6 60 10 63 29 4
26 2 26 -138 43 -255 31 -293 68 -320 312 -14 125 -18 148 -28 148 -4 0 -4
-46 -1 -102z"/>
<path d="M400 1111 c0 -5 35 -12 78 -16 169 -15 284 -52 317 -101 29 -45 44
-153 60 -439 9 -165 20 -284 27 -290 19 -18 -8 542 -32 660 -23 110 -79 151
-244 180 -98 17 -206 20 -206 6z"/>
</g>
</svg>
