<?xml version="1.0" standalone="no"?>
<!DOCTYPE svg PUBLIC "-//W3C//DTD SVG 20010904//EN"
 "http://www.w3.org/TR/2001/REC-SVG-20010904/DTD/svg10.dtd">
<svg version="1.0" xmlns="http://www.w3.org/2000/svg"
 width="192.000000pt" height="192.000000pt" viewBox="0 0 192.000000 192.000000"
 preserveAspectRatio="xMidYMid meet">
<metadata>
Created by potrace 1.16, written by Peter Selinger 2001-2019
</metadata>
<g transform="translate(0.000000,192.000000) scale(0.100000,-0.100000)"
fill="#000000" stroke="none">
<path d="M976 1560 c27 -254 32 -279 66 -330 13 -19 43 -44 68 -57 47 -23 206
-53 285 -53 25 0 45 -4 45 -10 0 -5 -24 -10 -54 -10 -70 0 -221 -27 -262 -46
-83 -39 -107 -94 -123 -279 -17 -193 -24 -455 -12 -455 6 0 12 15 12 33 l2 32
6 -35 c4 -19 6 27 5 102 -2 75 1 149 6 165 6 19 9 22 9 9 1 -11 3 -17 6 -15 2
3 0 36 -6 73 -5 38 -6 74 -1 80 4 6 9 41 10 78 2 41 10 84 23 112 21 48 31 60
22 26 -3 -11 0 -20 6 -20 6 0 10 3 10 8 -1 4 -1 16 0 27 2 29 79 59 134 52 23
-3 51 -2 62 3 15 7 10 8 -20 5 -33 -4 -30 -2 15 10 39 10 66 11 95 5 51 -12
55 -12 55 -1 0 5 -8 12 -17 14 -14 4 -12 5 5 6 14 1 22 7 22 19 0 27 -14 41
-35 38 -11 -2 -23 2 -27 8 -5 7 -8 7 -8 1 0 -12 -80 -7 -96 6 -6 5 -36 10 -67
11 -30 1 -53 6 -50 11 3 4 19 5 36 1 18 -3 29 -3 25 1 -4 4 -31 10 -60 14 -44
5 -53 10 -54 26 -3 54 -3 55 -38 55 -28 0 -35 4 -42 28 -10 36 -14 225 -4 192
6 -18 8 -20 9 -7 1 10 -5 28 -11 40 -12 21 -13 20 -19 -18 l-6 -40 -2 42 c0
23 -4 49 -8 59 -4 12 -3 15 5 10 7 -4 12 -3 12 3 0 5 -8 9 -19 8 -15 -1 -18
-8 -15 -37z m125 -306 c10 -13 10 -17 -2 -24 -10 -7 -15 -5 -17 5 -2 9 -8 13
-13 10 -10 -7 -12 8 -2 18 10 11 19 8 34 -9z"/>
<path d="M948 1574 c-5 -4 -8 -20 -8 -36 0 -16 -3 -27 -7 -25 -5 3 -9 -33 -11
-79 -2 -92 -17 -148 -32 -124 -6 10 -10 0 -12 -30 -3 -43 -4 -45 -32 -43 -22
2 -26 -1 -18 -9 18 -18 14 -30 -6 -26 -11 2 -25 -2 -33 -8 -35 -27 -129 -45
-129 -24 0 6 -4 10 -10 10 -5 0 -10 -6 -10 -14 0 -15 -73 -29 -78 -14 -2 4
-13 8 -23 8 -12 0 -17 -5 -14 -10 4 -7 -3 -8 -22 -4 -25 7 -27 6 -14 -9 17
-21 66 -22 185 -2 207 34 242 66 272 253 15 97 16 201 2 186z"/>
<path d="M889 1480 c-5 -60 4 -149 14 -133 4 7 5 29 1 49 -5 25 -3 39 7 44 9
6 10 12 2 22 -6 7 -13 24 -15 38 -3 17 -5 11 -9 -20z"/>
<path d="M957 1300 c-3 -11 -1 -20 4 -20 5 0 9 9 9 20 0 11 -2 20 -4 20 -2 0
-6 -9 -9 -20z"/>
<path d="M808 1273 c7 -3 16 -2 19 1 4 3 -2 6 -13 5 -11 0 -14 -3 -6 -6z"/>
<path d="M971 1234 c0 -11 3 -14 6 -6 3 7 2 16 -1 19 -3 4 -6 -2 -5 -13z"/>
<path d="M935 1210 c-3 -5 -1 -10 4 -10 6 0 11 5 11 10 0 6 -2 10 -4 10 -3 0
-8 -4 -11 -10z"/>
<path d="M985 1210 c-3 -5 -1 -10 4 -10 6 0 11 5 11 10 0 6 -2 10 -4 10 -3 0
-8 -4 -11 -10z"/>
<path d="M488 1193 c7 -3 16 -2 19 1 4 3 -2 6 -13 5 -11 0 -14 -3 -6 -6z"/>
<path d="M678 1193 c12 -2 20 -9 17 -14 -4 -5 1 -9 9 -9 9 0 16 4 16 9 0 11
-26 21 -48 20 -10 -1 -8 -4 6 -6z"/>
<path d="M1253 1193 c9 -2 23 -2 30 0 6 3 -1 5 -18 5 -16 0 -22 -2 -12 -5z"/>
<path d="M560 1180 c0 -5 4 -10 9 -10 6 0 13 5 16 10 3 6 -1 10 -9 10 -9 0
-16 -4 -16 -10z"/>
<path d="M1320 1180 c20 -13 40 -13 40 0 0 6 -12 10 -27 10 -22 0 -25 -2 -13
-10z"/>
<path d="M850 1130 c0 -6 4 -10 9 -10 5 0 12 -8 14 -17 4 -14 5 -13 6 3 0 12
-6 24 -14 28 -8 3 -15 1 -15 -4z"/>
<path d="M1078 1133 c7 -3 16 -2 19 1 4 3 -2 6 -13 5 -11 0 -14 -3 -6 -6z"/>
<path d="M1121 1114 c0 -11 3 -14 6 -6 3 7 2 16 -1 19 -3 4 -6 -2 -5 -13z"/>
<path d="M500 1092 c0 -6 30 -13 68 -16 138 -13 242 -39 242 -63 0 -10 6 -13
16 -9 9 3 25 0 36 -8 20 -14 20 -14 -1 -21 -11 -3 -29 -1 -41 5 -13 7 -20 7
-20 0 0 -10 11 -13 60 -14 18 -1 25 -7 26 -21 1 -11 2 -24 4 -30 1 -5 1 -18 0
-29 -1 -11 3 -15 9 -12 7 5 11 -5 11 -27 0 -55 -12 -127 -20 -122 -5 3 -6 -5
-2 -17 5 -20 7 -19 18 12 l12 35 1 -37 c1 -20 -3 -47 -7 -60 -4 -13 -5 -39 -1
-58 4 -22 7 -28 9 -15 4 29 17 -107 19 -197 0 -46 6 -80 13 -84 12 -8 4 303
-13 481 -20 202 -47 247 -175 285 -83 24 -264 40 -264 22z"/>
<path d="M480 1069 c0 -5 19 -9 42 -9 49 0 47 5 -4 13 -21 3 -38 2 -38 -4z"/>
<path d="M650 1050 c34 -11 60 -11 35 0 -11 5 -29 8 -40 8 -16 0 -15 -2 5 -8z"/>
<path d="M1340 1049 c-18 -5 -6 -7 39 -8 35 -1 62 1 60 3 -10 8 -76 12 -99 5z"/>
<path d="M553 1043 c9 -2 25 -2 35 0 9 3 1 5 -18 5 -19 0 -27 -2 -17 -5z"/>
<path d="M931 1035 c1 -19 18 -51 18 -35 0 8 -4 22 -9 30 -5 8 -9 11 -9 5z"/>
<path d="M958 1015 c2 -14 6 -25 8 -25 2 0 4 11 4 25 0 14 -4 25 -9 25 -4 0
-6 -11 -3 -25z"/>
<path d="M985 1030 c3 -5 8 -10 11 -10 2 0 4 5 4 10 0 6 -5 10 -11 10 -5 0 -7
-4 -4 -10z"/>
<path d="M1021 1024 c0 -11 3 -14 6 -6 3 7 2 16 -1 19 -3 4 -6 -2 -5 -13z"/>
<path d="M840 990 c0 -5 5 -10 11 -10 5 0 7 5 4 10 -3 6 -8 10 -11 10 -2 0 -4
-4 -4 -10z"/>
<path d="M950 973 c0 -15 29 -49 30 -35 0 7 -7 20 -15 28 -8 9 -15 11 -15 7z"/>
<path d="M991 934 c0 -11 3 -14 6 -6 3 7 2 16 -1 19 -3 4 -6 -2 -5 -13z"/>
<path d="M970 876 c0 -31 6 -34 13 -6 3 11 1 23 -4 26 -5 3 -9 -6 -9 -20z"/>
<path d="M893 825 c0 -22 2 -30 4 -17 2 12 2 30 0 40 -3 9 -5 -1 -4 -23z"/>
<path d="M882 660 c0 -14 2 -19 5 -12 2 6 2 18 0 25 -3 6 -5 1 -5 -13z"/>
<path d="M882 560 c0 -19 2 -27 5 -17 2 9 2 25 0 35 -3 9 -5 1 -5 -18z"/>
<path d="M1021 574 c0 -11 3 -14 6 -6 3 7 2 16 -1 19 -3 4 -6 -2 -5 -13z"/>
<path d="M913 440 c0 -25 2 -35 4 -22 2 12 2 32 0 45 -2 12 -4 2 -4 -23z"/>
<path d="M1032 460 c0 -14 2 -19 5 -12 2 6 2 18 0 25 -3 6 -5 1 -5 -13z"/>
<path d="M975 290 c-3 -5 -1 -10 4 -10 6 0 11 5 11 10 0 6 -2 10 -4 10 -3 0
-8 -4 -11 -10z"/>
</g>
</svg>
