<?xml version="1.0" standalone="no"?>
<!DOCTYPE svg PUBLIC "-//W3C//DTD SVG 20010904//EN"
 "http://www.w3.org/TR/2001/REC-SVG-20010904/DTD/svg10.dtd">
<svg version="1.0" xmlns="http://www.w3.org/2000/svg"
 width="180.000000pt" height="180.000000pt" viewBox="0 0 180.000000 180.000000"
 preserveAspectRatio="xMidYMid meet">
<metadata>
Created by potrace 1.16, written by Peter Selinger 2001-2019
</metadata>
<g transform="translate(0.000000,180.000000) scale(0.100000,-0.100000)"
fill="#000000" stroke="none">
<path d="M320 1275 l0 -245 575 0 575 0 0 245 0 245 -241 0 -240 0 2 -96 2
-95 -97 -2 -96 -2 0 98 0 97 -240 0 -240 0 0 -245z m460 120 l0 -96 118 3 117
3 3 93 3 92 215 0 214 0 -2 -217 -3 -218 -550 0 -550 0 -3 218 -2 217 220 0
220 0 0 -95z"/>
<path d="M324 774 c19 -182 134 -349 306 -443 21 -11 157 -61 167 -61 2 0 3
44 3 98 l0 97 95 0 95 0 0 -99 0 -98 25 6 c159 40 305 150 384 291 33 58 71
185 71 236 l0 29 -576 2 -576 3 6 -61z m1116 7 c0 -77 -73 -236 -143 -310 -64
-67 -180 -140 -264 -165 -23 -7 -23 -6 -23 88 l0 96 -115 0 -115 0 0 -90 c0
-108 2 -107 -115 -51 -97 47 -190 131 -240 216 -39 65 -75 170 -75 216 l0 29
545 0 545 0 0 -29z"/>
</g>
</svg>
