<?xml version="1.0" standalone="no"?>
<!DOCTYPE svg PUBLIC "-//W3C//DTD SVG 20010904//EN"
 "http://www.w3.org/TR/2001/REC-SVG-20010904/DTD/svg10.dtd">
<svg version="1.0" xmlns="http://www.w3.org/2000/svg"
 width="152.000000pt" height="152.000000pt" viewBox="0 0 152.000000 152.000000"
 preserveAspectRatio="xMidYMid meet">
<metadata>
Created by potrace 1.16, written by Peter Selinger 2001-2019
</metadata>
<g transform="translate(0.000000,152.000000) scale(0.100000,-0.100000)"
fill="#000000" stroke="none">
<path d="M140 1173 l0 -268 620 2 621 3 2 265 2 265 -260 0 -260 0 3 -105 4
-105 -106 0 -106 0 0 105 0 105 -260 0 -260 0 0 -267z m490 143 c0 -122 -7
-116 130 -116 137 0 130 -6 130 116 l0 104 235 0 235 0 0 -245 0 -245 -600 0
-600 0 0 245 0 245 235 0 235 0 0 -104z"/>
<path d="M140 663 c1 -71 29 -173 72 -255 74 -143 204 -253 364 -308 88 -30
84 -34 84 85 l0 105 106 0 106 0 -4 -105 c-2 -81 0 -105 10 -105 33 0 144 46
209 86 169 105 281 290 295 489 l3 40 -623 3 -622 2 0 -37z m1215 -35 c-32
-210 -175 -397 -366 -482 -107 -47 -99 -52 -99 64 l0 101 -127 -3 -128 -3 -3
-97 -3 -98 -65 25 c-178 67 -331 234 -379 415 -8 30 -15 70 -15 88 l0 32 596
0 596 0 -7 -42z"/>
</g>
</svg>
