<?xml version="1.0" standalone="no"?>
<!DOCTYPE svg PUBLIC "-//W3C//DTD SVG 20010904//EN"
 "http://www.w3.org/TR/2001/REC-SVG-20010904/DTD/svg10.dtd">
<svg version="1.0" xmlns="http://www.w3.org/2000/svg"
 width="256.000000pt" height="256.000000pt" viewBox="0 0 256.000000 256.000000"
 preserveAspectRatio="xMidYMid meet">
<metadata>
Created by potrace 1.16, written by Peter Selinger 2001-2019
</metadata>
<g transform="translate(0.000000,256.000000) scale(0.100000,-0.100000)"
fill="#000000" stroke="none">
<path d="M440 1833 l0 -358 835 2 836 3 2 355 2 355 -350 0 -350 0 3 -140 3
-140 -143 0 -143 0 3 140 4 140 -351 0 -351 0 0 -357z m670 197 l0 -140 165 0
165 0 0 140 0 140 325 0 325 0 0 -335 0 -335 -815 0 -815 0 0 335 0 335 325 0
325 0 0 -140z"/>
<path d="M444 1116 c9 -100 30 -176 72 -265 114 -242 339 -422 592 -476 l33
-7 -3 141 -3 141 138 0 137 0 0 -145 c0 -80 2 -145 4 -145 2 0 46 14 98 31
331 108 560 389 592 727 l7 72 -837 0 -837 0 7 -74z m1634 -13 c-41 -312 -263
-580 -567 -684 -85 -30 -81 -36 -81 116 l0 135 -160 0 -159 0 -3 -135 -3 -134
-82 28 c-206 71 -397 245 -488 443 -26 58 -58 172 -70 251 l-7 47 814 0 815 0
-9 -67z"/>
</g>
</svg>
