<?xml version="1.0" standalone="no"?>
<!DOCTYPE svg PUBLIC "-//W3C//DTD SVG 20010904//EN"
 "http://www.w3.org/TR/2001/REC-SVG-20010904/DTD/svg10.dtd">
<svg version="1.0" xmlns="http://www.w3.org/2000/svg"
 width="180.000000pt" height="180.000000pt" viewBox="0 0 180.000000 180.000000"
 preserveAspectRatio="xMidYMid meet">
<metadata>
Created by potrace 1.16, written by Peter Selinger 2001-2019
</metadata>
<g transform="translate(0.000000,180.000000) scale(0.100000,-0.100000)"
fill="#000000" stroke="none">
<path d="M300 1253 l0 -258 600 0 600 0 0 258 0 257 -250 0 -250 0 0 -100 0
-100 -100 0 -100 0 0 100 0 100 -250 0 -250 0 0 -257z m470 143 c0 -46 3 -91
6 -100 9 -24 239 -24 248 0 3 9 6 54 6 100 l0 84 220 0 220 0 0 -230 0 -230
-570 0 -570 0 0 230 0 230 220 0 220 0 0 -84z"/>
<path d="M300 755 c0 -109 69 -270 156 -364 86 -93 209 -167 316 -188 l28 -5
0 101 0 101 100 0 100 0 0 -101 0 -102 28 6 c107 21 230 95 316 188 87 94 156
255 156 364 l0 35 -600 0 -600 0 0 -35z m1170 -18 c0 -49 -27 -133 -68 -211
-64 -122 -194 -232 -331 -281 l-40 -14 -3 92 -3 92 -125 0 -125 0 -3 -92 -3
-92 -40 14 c-137 49 -267 159 -331 281 -41 78 -68 162 -68 211 l0 33 570 0
570 0 0 -33z"/>
</g>
</svg>
