<?xml version="1.0" standalone="no"?>
<!DOCTYPE svg PUBLIC "-//W3C//DTD SVG 20010904//EN"
 "http://www.w3.org/TR/2001/REC-SVG-20010904/DTD/svg10.dtd">
<svg version="1.0" xmlns="http://www.w3.org/2000/svg"
 width="256.000000pt" height="256.000000pt" viewBox="0 0 256.000000 256.000000"
 preserveAspectRatio="xMidYMid meet">
<metadata>
Created by potrace 1.16, written by Peter Selinger 2001-2019
</metadata>
<g transform="translate(0.000000,256.000000) scale(0.100000,-0.100000)"
fill="#000000" stroke="none">
<path d="M602 1730 l3 -290 678 0 677 0 3 290 2 290 -285 0 -285 0 3 -115 3
-115 -115 0 -116 0 0 115 0 115 -285 0 -285 0 2 -290z m538 162 c0 -71 4 -112
12 -120 13 -13 222 -18 252 -6 13 5 16 25 16 120 l0 114 260 0 260 0 0 -270 0
-270 -655 0 -655 0 0 270 0 270 255 0 255 0 0 -108z"/>
<path d="M605 1143 c24 -231 161 -434 365 -542 49 -26 170 -71 192 -71 4 0 8
52 8 115 l0 115 116 0 115 0 -3 -115 c-2 -77 1 -115 8 -115 23 0 160 51 203
77 206 119 340 327 353 548 l2 50 -683 3 -683 2 7 -67z m1328 -10 c-29 -231
-190 -440 -411 -534 -105 -45 -102 -46 -102 75 0 122 8 116 -143 116 -138 0
-137 1 -137 -121 l0 -101 -27 6 c-16 4 -66 25 -113 48 -111 53 -237 176 -293
285 -36 70 -77 202 -77 250 l0 23 655 0 655 0 -7 -47z"/>
</g>
</svg>
