<?xml version="1.0" standalone="no"?>
<!DOCTYPE svg PUBLIC "-//W3C//DTD SVG 20010904//EN"
 "http://www.w3.org/TR/2001/REC-SVG-20010904/DTD/svg10.dtd">
<svg version="1.0" xmlns="http://www.w3.org/2000/svg"
 width="256.000000pt" height="256.000000pt" viewBox="0 0 256.000000 256.000000"
 preserveAspectRatio="xMidYMid meet">
<metadata>
Created by potrace 1.16, written by Peter Selinger 2001-2019
</metadata>
<g transform="translate(0.000000,256.000000) scale(0.100000,-0.100000)"
fill="#000000" stroke="none">
<path d="M240 2423 c0 -2 0 -203 0 -448 l-1 -445 1046 -3 1045 -2 0 450 0 450
-435 0 -435 0 0 -177 0 -178 -177 0 -178 0 3 177 3 178 -436 0 c-239 0 -435
-1 -435 -2z m840 -198 l0 -175 200 0 200 0 0 175 0 175 415 0 415 0 0 -425 0
-425 -1025 0 -1025 0 0 425 0 425 410 0 410 0 0 -175z"/>
<path d="M237 1118 c11 -154 45 -292 100 -403 75 -150 224 -322 358 -412 111
-75 265 -142 383 -168 l33 -7 -3 176 -3 176 178 0 177 0 0 -175 c0 -96 2 -175
4 -175 2 0 43 11 91 25 431 125 738 496 772 932 l6 83 -1050 0 -1050 0 4 -52z
m2068 -20 c-17 -148 -47 -253 -107 -373 -127 -255 -351 -446 -628 -536 l-85
-27 -5 171 -5 172 -195 0 -195 0 -5 -172 -5 -172 -90 30 c-367 123 -646 440
-710 808 -8 46 -15 99 -15 117 l0 34 1025 0 1026 0 -6 -52z"/>
</g>
</svg>
