<?xml version="1.0" standalone="no"?>
<!DOCTYPE svg PUBLIC "-//W3C//DTD SVG 20010904//EN"
 "http://www.w3.org/TR/2001/REC-SVG-20010904/DTD/svg10.dtd">
<svg version="1.0" xmlns="http://www.w3.org/2000/svg"
 width="256.000000pt" height="256.000000pt" viewBox="0 0 256.000000 256.000000"
 preserveAspectRatio="xMidYMid meet">
<metadata>
Created by potrace 1.16, written by Peter Selinger 2001-2019
</metadata>
<g transform="translate(0.000000,256.000000) scale(0.100000,-0.100000)"
fill="#000000" stroke="none">
<path d="M1133 2244 c-72 -47 -95 -124 -53 -177 l21 -26 -23 -12 c-83 -43
-177 -155 -205 -246 -22 -75 -35 -333 -18 -396 7 -29 12 -54 9 -56 -7 -7 -60
32 -102 78 -54 57 -99 147 -114 228 -14 74 0 171 34 236 25 49 108 139 156
169 62 38 17 30 -49 -8 -204 -120 -287 -323 -234 -573 8 -39 12 -83 9 -99 -13
-67 60 -254 129 -329 46 -50 89 -66 174 -67 99 0 106 16 70 156 -8 32 -12 60
-8 62 4 3 33 -46 65 -108 64 -128 142 -222 209 -255 93 -45 240 -51 289 -11
l22 18 -21 48 c-59 133 -66 247 -19 317 26 38 51 45 76 22 29 -27 34 -87 15
-191 -21 -108 -13 -144 36 -164 58 -25 187 17 239 77 124 141 213 526 169 735
-16 75 -25 78 -32 11 -15 -162 -138 -285 -302 -300 -51 -5 -70 -11 -95 -34
-36 -33 -43 -34 -105 -14 -30 11 -61 14 -93 9 -46 -6 -50 -4 -75 26 -15 17
-27 35 -27 40 0 4 -32 21 -72 36 -142 54 -205 152 -196 305 4 65 11 91 41 151
52 104 69 121 101 107 21 -10 30 -8 58 10 18 11 54 31 80 44 86 43 93 58 58
126 -30 59 -63 81 -124 81 -39 0 -62 -7 -93 -26z m155 -19 c33 -27 57 -77 49
-99 -3 -8 -27 -24 -52 -35 -25 -11 -59 -30 -76 -41 -21 -16 -37 -20 -59 -15
-17 4 -30 11 -30 17 0 5 -9 21 -20 35 -27 34 -25 55 7 94 60 71 129 88 181 44z
m-236 -262 c-43 -62 -66 -144 -66 -238 0 -78 3 -97 27 -147 35 -72 91 -120
176 -153 44 -17 72 -34 83 -53 37 -57 75 -105 92 -114 10 -6 40 -11 66 -12 48
-1 49 -1 30 -21 -53 -58 -50 -248 6 -357 15 -30 15 -32 -2 -45 -25 -18 -150
-17 -207 3 -90 31 -185 142 -267 312 -30 65 -37 73 -60 70 -22 -3 -25 -7 -24
-43 0 -22 9 -66 19 -98 16 -50 16 -60 4 -68 -19 -12 -112 -11 -146 2 -94 35
-193 219 -193 361 -1 40 -7 100 -15 133 -28 114 -15 216 39 323 31 62 42 65
21 7 -31 -86 -14 -239 37 -340 47 -93 136 -175 190 -175 32 0 36 17 17 80 -8
26 -9 85 -2 203 9 150 12 170 38 222 15 32 54 84 86 116 64 64 81 75 51 32z
m932 -578 c-29 -174 -93 -345 -160 -425 -56 -66 -190 -103 -229 -63 -15 14
-16 27 -9 82 5 36 9 103 9 147 0 95 -16 124 -69 124 l-30 0 22 16 c12 8 20 20
17 25 -4 5 3 9 14 9 11 0 35 13 53 29 26 22 47 29 96 34 125 13 241 99 279
209 l18 49 3 -68 c2 -37 -4 -113 -14 -168z m-537 -72 c71 -6 73 -7 57 -24 -24
-27 -103 -26 -138 2 -29 23 -35 45 -10 35 10 -4 50 -9 91 -13z"/>
<path d="M1800 2182 c-40 -21 -87 -99 -77 -126 4 -9 21 -23 39 -31 18 -7 54
-32 80 -54 25 -23 54 -41 65 -41 50 0 123 77 123 131 0 39 -40 91 -90 117 -54
27 -94 28 -140 4z m142 -34 c79 -55 76 -129 -5 -178 l-30 -19 -46 40 c-25 23
-60 47 -78 54 -18 8 -33 19 -33 25 0 30 47 83 89 102 23 10 72 -1 103 -24z"/>
<path d="M1242 1773 c-112 -55 -106 -222 8 -223 29 0 42 9 87 56 63 66 69 103
27 153 -30 36 -69 40 -122 14z m102 -34 c14 -17 26 -37 26 -45 0 -19 -103
-124 -123 -124 -19 0 -67 56 -67 78 0 33 57 98 100 115 28 11 38 7 64 -24z"/>
<path d="M1640 1737 c-13 -7 -34 -30 -46 -51 l-22 -39 30 -56 c57 -103 76
-114 143 -87 26 11 36 24 46 54 22 75 -11 150 -77 178 -40 17 -43 17 -74 1z
m89 -43 c61 -51 58 -154 -5 -170 -37 -9 -53 3 -90 67 -24 42 -29 58 -21 74 29
61 67 70 116 29z"/>
<path d="M1353 1464 c-24 -11 -13 -34 23 -49 21 -8 42 -22 48 -31 11 -14 15
-14 41 0 17 8 42 18 58 21 32 6 35 30 6 45 -23 13 -157 23 -176 14z m151 -31
c6 -4 -5 -10 -24 -14 -25 -5 -43 -2 -70 12 l-35 20 59 -6 c32 -3 64 -9 70 -12z"/>
<path d="M787 912 c-45 -49 16 -122 75 -91 29 15 38 28 38 55 0 48 -79 73
-113 36z m74 -2 c21 -12 25 -50 7 -68 -17 -17 -54 -15 -72 4 -21 20 -20 30 4
54 23 23 33 24 61 10z"/>
<path d="M807 887 c-3 -8 -2 -19 1 -24 10 -16 44 -20 49 -6 3 7 -3 9 -16 6
-15 -4 -21 -1 -21 12 0 12 6 16 20 12 11 -3 20 -1 20 4 0 14 -47 10 -53 -4z"/>
<path d="M1903 785 c-32 -23 -35 -54 -8 -81 32 -32 68 -31 94 2 27 34 26 40
-4 69 -28 29 -51 31 -82 10z m77 -20 c29 -35 -17 -83 -60 -62 -47 24 -33 77
20 77 15 0 33 -7 40 -15z"/>
<path d="M1921 738 c2 -30 2 -31 6 -5 4 26 26 40 22 15 -3 -23 1 -38 9 -38 4
0 8 12 7 28 0 20 -6 28 -22 30 -20 3 -23 -1 -22 -30z"/>
<path d="M563 635 c-3 -9 23 -90 57 -180 56 -148 65 -165 86 -165 19 0 30 13
59 77 20 43 38 88 41 100 4 13 9 23 13 23 3 0 22 -44 42 -98 31 -85 39 -97 61
-100 23 -3 29 8 98 162 40 91 70 172 67 180 -4 9 -15 16 -26 16 -22 0 -38 -26
-76 -119 l-22 -53 -29 83 -29 84 -53 3 c-64 4 -85 -9 -72 -43 6 -16 5 -35 -4
-57 -7 -18 -16 -42 -21 -53 -5 -16 -12 -4 -32 55 -14 41 -30 81 -35 88 -16 18
-117 16 -125 -3z m99 -17 c9 -7 26 -43 38 -80 19 -59 25 -68 45 -68 13 0 29 8
34 18 6 9 11 14 11 11 0 -8 -75 -177 -82 -184 -7 -8 -119 295 -113 306 9 13
48 11 67 -3z m216 4 c6 -5 23 -39 35 -78 20 -58 28 -69 48 -72 22 -3 29 5 58
73 19 42 35 74 37 72 2 -2 -26 -72 -63 -155 -37 -84 -70 -149 -73 -145 -4 5
-22 50 -41 101 -32 87 -35 92 -62 92 -24 0 -28 3 -21 18 4 9 8 33 8 52 1 19 6
38 11 42 13 10 47 10 63 0z"/>
<path d="M1133 643 c-7 -2 -13 -10 -13 -16 0 -7 28 -85 62 -175 58 -155 63
-163 86 -160 21 3 32 17 63 88 21 47 40 94 44 105 4 14 13 -3 34 -60 49 -135
48 -135 74 -135 21 0 32 18 97 164 40 91 70 172 67 180 -4 9 -16 16 -27 16
-17 0 -29 -16 -56 -74 -19 -41 -34 -81 -35 -88 0 -7 -15 25 -32 72 l-33 85
-59 0 -60 0 -1 -45 c0 -25 -9 -63 -18 -84 l-18 -39 -25 74 c-13 40 -29 79 -35
86 -10 13 -90 17 -115 6z m89 -25 c8 -7 26 -43 38 -80 20 -58 27 -68 47 -68
19 0 29 10 45 46 11 26 18 59 16 75 -4 24 0 31 18 35 45 11 62 -4 87 -79 20
-62 27 -72 49 -75 22 -3 28 5 58 73 18 41 35 74 37 71 2 -2 -26 -72 -63 -155
-37 -83 -71 -148 -74 -144 -7 8 -39 89 -63 161 -8 24 -16 32 -34 32 -18 0 -28
-10 -42 -42 -10 -24 -31 -70 -45 -103 l-27 -60 -19 45 c-55 132 -101 261 -95
270 9 14 48 13 67 -2z"/>
<path d="M1695 637 c-3 -7 -4 -87 -3 -177 l3 -165 65 0 65 0 0 80 0 80 65 5
c57 4 65 8 65 25 0 18 -8 20 -65 23 l-65 3 3 42 4 43 64 -4 c86 -6 116 2 112
31 -3 21 -7 22 -156 25 -119 2 -154 0 -157 -11z m200 -16 l-90 -6 -3 -62 -3
-63 68 -2 68 -2 -67 -3 -68 -4 0 -84 0 -85 -40 0 -40 0 0 153 c0 85 3 157 7
160 3 4 63 6 132 5 l126 -2 -90 -5z"/>
</g>
</svg>
