<?xml version="1.0" standalone="no"?>
<!DOCTYPE svg PUBLIC "-//W3C//DTD SVG 20010904//EN"
 "http://www.w3.org/TR/2001/REC-SVG-20010904/DTD/svg10.dtd">
<svg version="1.0" xmlns="http://www.w3.org/2000/svg"
 width="152.000000pt" height="152.000000pt" viewBox="0 0 152.000000 152.000000"
 preserveAspectRatio="xMidYMid meet">
<metadata>
Created by potrace 1.16, written by Peter Selinger 2001-2019
</metadata>
<g transform="translate(0.000000,152.000000) scale(0.100000,-0.100000)"
fill="#000000" stroke="none">
<path d="M700 1449 c-65 -26 -95 -90 -65 -136 16 -23 16 -27 2 -35 -43 -24
-79 -65 -108 -124 -30 -61 -33 -74 -37 -193 -3 -89 -1 -134 8 -150 20 -39 1
-36 -41 5 -85 83 -117 206 -84 320 13 47 28 70 71 113 30 30 52 56 50 59 -10
9 -108 -72 -137 -114 -62 -91 -73 -168 -52 -364 13 -125 43 -209 94 -262 33
-35 40 -38 93 -38 69 0 76 10 54 91 -9 32 -13 60 -10 63 3 3 26 -38 52 -92 49
-102 93 -156 147 -178 42 -18 134 -18 158 0 19 14 19 15 1 53 -37 75 -31 231
8 246 38 15 55 -55 38 -155 -12 -78 0 -102 53 -106 64 -4 114 31 153 108 61
122 95 324 78 463 -9 69 -26 75 -26 10 -1 -110 -96 -213 -197 -213 -14 0 -37
-10 -49 -21 -21 -20 -27 -21 -68 -9 -24 6 -52 9 -62 6 -22 -7 -37 2 -52 29 -6
11 -37 34 -69 50 -49 25 -62 38 -86 85 -25 49 -28 63 -24 123 6 94 51 182 93
182 16 1 45 12 65 25 20 14 45 30 55 36 16 10 17 15 6 52 -12 39 -52 83 -76
81 -6 0 -22 -5 -36 -10z m51 -32 c14 -11 39 -49 39 -60 0 -6 -99 -67 -109 -67
-4 0 -13 15 -19 34 -15 40 -5 63 37 89 31 20 32 20 52 4z m-182 -292 c-24
-125 29 -243 125 -280 31 -12 49 -29 71 -65 21 -34 40 -53 62 -60 29 -10 31
-14 23 -36 -15 -37 -12 -122 5 -187 8 -32 15 -60 15 -61 0 -12 -57 -15 -91 -6
-65 18 -112 70 -166 181 -43 90 -50 100 -73 97 -27 -3 -29 -14 -19 -113 4 -40
4 -40 -29 -39 -50 3 -78 28 -112 100 -31 65 -35 87 -57 313 -7 73 11 80 19 7
11 -97 98 -216 158 -216 33 0 38 17 22 75 -5 17 -6 80 -2 141 5 85 12 122 30
158 12 26 24 46 25 44 2 -2 -1 -26 -6 -53z m611 -382 c-36 -150 -81 -231 -147
-259 -61 -26 -77 -4 -62 88 12 73 4 133 -21 158 -17 17 -17 19 9 38 15 11 51
25 81 31 66 14 114 43 137 83 l18 30 3 -41 c2 -22 -6 -79 -18 -128z m-270 20
c8 -7 -24 -23 -46 -23 -12 0 -32 9 -45 20 l-24 20 55 -6 c30 -4 57 -9 60 -11z"/>
<path d="M1076 1373 c-36 -35 -45 -74 -21 -87 10 -6 35 -26 55 -43 21 -18 44
-33 52 -33 20 0 67 48 74 75 12 50 -50 115 -109 115 -13 0 -36 -12 -51 -27z
m108 -34 c32 -37 32 -41 3 -75 l-23 -27 -25 24 c-13 13 -34 31 -47 39 l-24 15
22 28 c29 36 62 35 94 -4z"/>
<path d="M719 1081 c-50 -50 -33 -141 25 -141 10 0 36 19 57 42 30 33 37 48
32 68 -15 64 -66 78 -114 31z m79 -28 c2 -13 -9 -34 -27 -55 -30 -32 -32 -32
-46 -14 -20 26 -19 29 11 66 30 35 57 36 62 3z"/>
<path d="M971 1054 c-25 -32 -26 -41 -5 -85 35 -71 67 -86 104 -49 32 32 27
94 -9 131 -36 36 -63 37 -90 3z m69 -24 c22 -22 27 -69 8 -88 -19 -19 -26 -15
-48 28 -16 31 -18 45 -10 60 13 25 25 25 50 0z"/>
<path d="M800 868 c1 -17 68 -59 75 -47 4 5 15 9 26 9 24 0 37 29 18 41 -22
14 -119 11 -119 -3z"/>
<path d="M452 488 c-27 -27 -6 -68 35 -68 29 0 48 33 33 60 -12 22 -49 27 -68
8z m56 -26 c4 -28 -24 -41 -44 -20 -20 20 -7 50 20 46 13 -2 22 -12 24 -26z"/>
<path d="M465 470 c-8 -12 2 -30 17 -30 7 0 6 5 -1 14 -10 11 -8 15 6 19 16 4
16 5 1 6 -9 0 -20 -3 -23 -9z"/>
<path d="M1152 398 c-34 -34 6 -90 48 -68 35 19 20 80 -20 80 -9 0 -21 -5 -28
-12z m48 -13 c17 -20 5 -45 -20 -45 -11 0 -23 7 -26 15 -6 15 11 45 26 45 4 0
13 -7 20 -15z"/>
<path d="M1170 370 c0 -11 4 -20 9 -20 11 0 22 26 14 34 -12 12 -23 5 -23 -14z"/>
<path d="M310 288 c0 -34 78 -243 90 -243 12 0 39 58 65 140 5 15 13 -1 33
-60 16 -46 33 -80 40 -80 13 0 102 211 102 242 0 8 -7 13 -17 11 -12 -2 -26
-25 -40 -63 -12 -34 -23 -54 -26 -45 -3 8 -11 37 -17 63 -13 48 -13 48 -52 45
-40 -3 -40 -3 -43 -50 -4 -75 -17 -79 -35 -13 l-17 60 -41 3 c-30 2 -42 -1
-42 -10z m75 -68 c10 -29 23 -50 31 -50 17 0 17 0 0 -41 -10 -24 -16 -29 -20
-19 -39 101 -54 160 -41 160 7 0 21 -22 30 -50z m135 3 c7 -27 19 -53 27 -59
11 -9 11 -17 2 -40 l-11 -29 -20 58 c-12 36 -25 57 -35 57 -10 0 -13 6 -9 16
3 9 6 22 6 30 0 8 6 14 14 14 8 0 19 -20 26 -47z"/>
<path d="M666 291 c-6 -9 61 -219 77 -239 16 -20 31 1 60 83 14 39 27 63 30
55 2 -8 13 -44 24 -80 11 -39 25 -65 33 -65 15 0 113 232 104 246 -3 5 -11 9
-19 9 -11 0 -24 -27 -52 -110 -3 -8 -13 12 -22 45 l-18 60 -43 3 c-41 3 -42 2
-38 -23 5 -26 -10 -85 -23 -85 -3 0 -12 25 -19 55 -13 55 -13 55 -51 55 -21 0
-40 -4 -43 -9z m73 -74 c8 -26 20 -47 28 -47 16 0 16 -18 -1 -49 -12 -22 -14
-20 -40 56 -30 91 -30 96 -14 91 7 -3 19 -26 27 -51z m136 3 c9 -27 22 -53 29
-57 10 -7 10 -14 0 -38 l-12 -30 -12 30 c-6 17 -14 42 -17 58 -3 15 -12 27
-19 27 -9 0 -14 11 -14 30 0 48 26 36 45 -20z"/>
<path d="M1024 287 c-2 -7 -3 -62 -2 -122 3 -118 11 -134 61 -121 25 6 27 10
27 66 l0 60 39 0 c41 0 60 13 39 26 -7 5 -27 7 -45 5 -31 -2 -33 -1 -33 31 l0
33 57 0 c45 0 58 3 58 15 0 21 -193 28 -201 7z m56 -117 c0 -82 -3 -100 -15
-100 -12 0 -15 18 -15 100 0 82 3 100 15 100 12 0 15 -18 15 -100z"/>
</g>
</svg>
