<?xml version="1.0" standalone="no"?>
<!DOCTYPE svg PUBLIC "-//W3C//DTD SVG 20010904//EN"
 "http://www.w3.org/TR/2001/REC-SVG-20010904/DTD/svg10.dtd">
<svg version="1.0" xmlns="http://www.w3.org/2000/svg"
 width="100.000000pt" height="100.000000pt" viewBox="0 0 100.000000 100.000000"
 preserveAspectRatio="xMidYMid meet">
<metadata>
Created by potrace 1.16, written by Peter Selinger 2001-2019
</metadata>
<g transform="translate(0.000000,100.000000) scale(0.100000,-0.100000)"
fill="#000000" stroke="none">
<path d="M161 938 c0 -38 2 -68 7 -68 4 0 6 21 4 48 -5 82 -9 89 -11 20z"/>
<path d="M220 945 c0 -42 3 -55 15 -55 12 0 15 13 15 55 0 42 -3 55 -15 55
-12 0 -15 -13 -15 -55z"/>
<path d="M275 921 c0 -46 1 -76 3 -67 3 11 14 16 41 16 36 0 37 1 33 35 -4 32
-7 35 -37 35 -31 0 -34 3 -37 33 -2 17 -4 -6 -3 -52z m65 -17 c0 -14 -4 -23
-10 -19 -6 4 -8 11 -5 16 4 5 1 9 -4 9 -6 0 -11 -7 -11 -16 0 -8 -4 -12 -10
-9 -16 10 -12 33 8 38 31 8 32 7 32 -19z"/>
<path d="M410 989 c0 -5 5 -7 10 -4 6 3 10 8 10 11 0 2 -4 4 -10 4 -5 0 -10
-5 -10 -11z"/>
<path d="M440 985 c0 -10 -11 -15 -35 -15 l-35 0 0 -80 0 -80 50 0 c38 0 50 4
50 15 0 10 10 15 30 15 17 0 30 4 30 10 0 5 -7 7 -15 4 -8 -4 -15 -1 -15 5 0
6 14 11 30 11 28 0 30 3 30 35 0 19 -5 35 -11 35 -7 0 -9 -10 -5 -24 3 -14 2
-28 -4 -31 -6 -4 -10 11 -10 39 0 34 -4 46 -15 46 -8 0 -15 7 -15 15 0 8 -4
15 -10 15 -5 0 -10 -7 -10 -15 0 -8 -4 -15 -10 -15 -5 0 -10 7 -10 15 0 8 -4
15 -10 15 -5 0 -10 -7 -10 -15z m-30 -35 c0 -5 -7 -10 -16 -10 -8 0 -12 5 -9
10 3 6 10 10 16 10 5 0 9 -4 9 -10z m92 -32 c-4 -29 -17 -37 -25 -15 -3 6 -6
2 -6 -10 -1 -12 5 -24 12 -26 6 -3 -4 -3 -23 0 -19 4 -36 10 -38 15 -2 4 -10
8 -18 8 -8 0 -14 7 -14 15 0 8 9 15 19 15 10 0 21 6 24 14 4 9 18 14 39 13 31
-2 33 -4 30 -29z m-92 -62 c0 -8 12 -17 28 -19 22 -3 20 -4 -10 -6 -32 -1 -38
2 -38 19 0 11 5 20 10 20 6 0 10 -6 10 -14z"/>
<path d="M810 976 c0 -19 5 -23 30 -22 37 1 40 16 4 16 -19 0 -25 4 -20 15 3
8 1 15 -4 15 -6 0 -10 -11 -10 -24z"/>
<path d="M855 990 c3 -5 8 -10 11 -10 2 0 4 5 4 10 0 6 -5 10 -11 10 -5 0 -7
-4 -4 -10z"/>
<path d="M894 980 c0 -11 4 -20 8 -20 4 0 8 9 8 20 0 11 -4 20 -8 20 -4 0 -8
-9 -8 -20z"/>
<path d="M583 928 c2 -7 16 -12 31 -10 19 2 26 -2 26 -14 0 -12 -6 -15 -24
-12 -15 3 -27 0 -30 -8 -4 -10 5 -14 34 -14 39 0 40 1 40 35 0 34 -1 35 -41
35 -28 0 -39 -4 -36 -12z"/>
<path d="M780 893 c0 -35 -3 -44 -10 -33 -5 8 -7 23 -4 33 3 9 1 17 -5 17 -6
0 -11 -16 -11 -35 0 -24 5 -35 15 -35 8 0 15 -7 15 -15 0 -10 10 -15 30 -15
17 0 30 -4 30 -10 0 -5 -7 -7 -15 -4 -8 4 -15 1 -15 -5 0 -7 20 -11 50 -11 38
0 50 4 50 15 0 8 7 15 15 15 11 0 15 12 15 50 0 38 -4 50 -15 50 -8 0 -15 7
-15 15 0 12 -14 15 -65 15 l-65 0 0 -47z m60 17 c16 0 30 4 32 10 2 6 8 6 18
0 13 -8 12 -10 -2 -10 -22 0 -24 -35 -3 -44 8 -3 15 -10 15 -16 0 -5 -7 -10
-15 -10 -18 0 -20 -26 -2 -33 6 -3 7 -6 1 -6 -22 -2 -74 56 -74 82 0 15 -5 27
-11 27 -5 0 -7 5 -3 12 6 9 9 9 12 0 2 -7 16 -12 32 -12z m84 -25 c3 -8 1 -15
-4 -15 -6 0 -10 7 -10 15 0 8 2 15 4 15 2 0 6 -7 10 -15z m-114 -55 c0 -5 -2
-10 -4 -10 -3 0 -8 5 -11 10 -3 6 -1 10 4 10 6 0 11 -4 11 -10z"/>
<path d="M705 900 c4 -6 11 -8 16 -5 14 9 11 15 -7 15 -8 0 -12 -5 -9 -10z"/>
<path d="M224 848 c3 -13 6 -26 6 -30 0 -5 5 -8 10 -8 6 0 10 14 10 30 0 21
-5 30 -16 30 -12 0 -15 -6 -10 -22z"/>
<path d="M660 855 c0 -10 11 -15 35 -15 24 0 35 5 35 15 0 10 -11 15 -35 15
-24 0 -35 -5 -35 -15z"/>
<path d="M190 825 c0 -8 7 -15 15 -15 8 0 15 7 15 15 0 8 -7 15 -15 15 -8 0
-15 -7 -15 -15z"/>
<path d="M340 829 c0 -5 5 -7 10 -4 6 3 10 8 10 11 0 2 -4 4 -10 4 -5 0 -10
-5 -10 -11z"/>
<path d="M500 767 c7 -69 30 -75 30 -9 0 39 -4 51 -18 54 -15 4 -17 -1 -12
-45z"/>
<path d="M160 795 c0 -8 4 -15 10 -15 5 0 7 -7 4 -15 -4 -8 -1 -15 5 -15 6 0
11 14 11 30 0 20 -5 30 -15 30 -8 0 -15 -7 -15 -15z"/>
<path d="M310 799 c0 -5 5 -7 10 -4 6 3 10 8 10 11 0 2 -4 4 -10 4 -5 0 -10
-5 -10 -11z"/>
<path d="M340 795 c0 -8 -7 -15 -15 -15 -8 0 -15 -7 -15 -15 0 -8 -7 -15 -15
-15 -13 0 -15 -21 -13 -132 1 -73 3 -116 5 -95 2 20 8 37 14 37 5 0 9 36 9 80
0 50 -4 80 -11 80 -5 0 -7 5 -3 11 17 28 27 -29 21 -128 -4 -63 -2 -103 4
-103 5 0 14 -11 21 -25 6 -13 24 -28 39 -34 16 -5 29 -15 29 -20 0 -6 11 -11
25 -11 17 0 29 -8 37 -25 6 -14 15 -25 20 -25 4 0 8 -9 8 -20 0 -23 31 -58 47
-53 16 6 24 -60 19 -156 -5 -89 -8 -99 -28 -84 -7 5 -28 9 -45 9 -26 -1 -32 2
-28 15 4 12 0 16 -12 15 -13 -1 -17 5 -15 22 3 24 -23 32 -31 10 -2 -8 -8 -9
-13 -4 -5 5 -4 11 4 13 16 6 16 30 0 36 -10 4 -9 8 2 16 12 9 11 11 -7 11 -12
0 -23 -6 -26 -12 -3 -7 -3 4 -1 25 2 32 -3 44 -32 75 -28 30 -38 35 -51 26
-22 -14 -34 -59 -30 -111 3 -32 0 -43 -10 -43 -8 0 -12 4 -9 9 8 13 -21 34
-38 28 -10 -4 -13 -1 -9 9 3 8 -2 20 -11 27 -9 7 -17 29 -18 49 -3 36 -22 52
-30 26 -3 -9 -6 -9 -12 0 -4 7 -2 12 3 12 7 0 11 23 11 56 0 34 -4 53 -10 49
-6 -3 -10 1 -10 9 0 21 26 21 34 0 3 -8 10 -13 15 -10 5 3 7 -4 3 -16 -4 -17
-2 -20 15 -16 16 4 19 1 15 -18 -3 -17 0 -24 12 -24 9 0 16 5 16 10 0 6 12 10
26 10 18 0 24 4 21 13 -3 8 -1 20 4 28 6 10 9 2 9 -23 0 -36 -2 -38 -30 -38
-21 0 -30 -5 -30 -16 0 -13 6 -15 28 -9 15 3 29 11 30 16 2 5 9 9 16 9 19 0
17 68 -2 83 -19 13 -19 18 -22 162 -4 174 -19 149 -19 -32 -1 -147 -3 -173
-16 -173 -8 0 -15 7 -15 15 0 8 -7 15 -15 15 -10 0 -15 10 -15 30 0 17 -4 30
-10 30 -5 0 -7 -7 -4 -15 4 -8 1 -15 -5 -15 -7 0 -11 27 -11 75 l0 75 28 0
c21 0 24 2 12 10 -13 8 -13 10 2 10 9 0 19 -8 21 -17 3 -11 5 -7 6 10 1 24 -3
27 -28 27 -20 0 -31 -6 -34 -17 -3 -11 -5 -8 -6 9 -1 20 3 26 14 22 8 -4 15
-1 15 5 0 6 -7 11 -15 11 -12 0 -15 13 -15 60 0 47 -3 60 -15 60 -10 0 -15
-10 -15 -30 0 -16 4 -30 9 -30 12 0 12 -205 1 -234 -6 -13 -9 26 -9 107 -1
110 -3 127 -17 127 -14 0 -14 3 -4 15 10 12 10 15 -4 15 -13 0 -16 -14 -17
-82 -1 -73 -2 -77 -9 -38 -4 25 -6 48 -3 53 2 4 -1 7 -6 7 -7 0 -11 -63 -11
-190 0 -104 3 -190 8 -190 7 0 10 58 11 218 1 39 5 52 16 52 8 0 15 -4 15 -10
0 -5 -4 -10 -10 -10 -6 0 -10 -63 -10 -170 0 -118 3 -170 11 -170 6 0 9 7 5
15 -3 8 -1 15 4 15 5 0 7 7 4 15 -4 8 -1 15 5 15 6 0 11 -19 11 -45 0 -33 4
-45 15 -45 8 0 15 -7 15 -15 0 -8 7 -15 15 -15 8 0 15 -7 15 -15 0 -12 13 -15
60 -15 l60 0 -1 43 c0 23 -3 36 -6 30 -11 -28 -23 -11 -23 32 0 33 4 45 15 45
18 0 20 -16 3 -23 -10 -4 -10 -6 0 -6 6 -1 12 -8 12 -16 0 -8 7 -15 15 -15 11
0 15 -12 15 -45 0 -25 4 -45 10 -45 5 0 7 7 4 15 -4 8 -1 15 5 15 6 0 11 -16
11 -35 0 -28 4 -35 20 -35 11 0 20 -7 20 -15 0 -8 7 -15 15 -15 8 0 15 -7 15
-15 0 -12 14 -15 70 -15 58 0 68 -3 64 -15 -4 -8 -1 -15 5 -15 6 0 11 7 11 15
0 8 4 15 10 15 5 0 7 -7 4 -15 -4 -8 -1 -15 5 -15 7 0 11 37 11 112 0 126 -7
142 -11 25 -5 -117 -19 -92 -19 33 l0 110 35 0 35 0 0 -110 c0 -67 -4 -110
-10 -110 -5 0 -10 -7 -10 -15 0 -8 5 -15 10 -15 6 0 10 7 10 15 0 8 7 15 15
15 8 0 15 -7 15 -15 0 -10 10 -15 30 -15 17 0 30 5 30 11 0 6 -6 9 -13 6 -8
-3 -20 -1 -28 4 -9 6 6 9 44 9 44 0 57 3 57 15 0 8 7 15 15 15 11 0 15 12 15
50 0 28 4 50 10 50 5 0 7 -7 4 -15 -4 -8 -1 -15 5 -15 7 0 11 27 11 75 0 57
-3 75 -14 75 -10 0 -13 -15 -12 -56 1 -30 0 -51 -2 -45 -9 26 -29 9 -27 -24 0
-19 -3 -35 -7 -35 -4 0 -18 -15 -30 -33 -15 -21 -30 -31 -43 -29 -19 3 -20 10
-18 112 1 87 -1 110 -12 110 -7 0 -15 -5 -17 -12 -3 -9 -6 -9 -12 0 -4 7 -2
12 3 12 15 0 14 27 -1 33 -8 2 -9 8 -4 13 5 5 11 4 13 -3 5 -15 33 -17 33 -3
0 6 5 10 11 10 5 0 7 -4 4 -10 -3 -5 -2 -10 4 -10 5 0 12 6 14 13 4 9 8 8 17
-3 9 -13 10 -12 8 5 -2 15 -13 22 -43 26 -26 5 -15 6 33 4 66 -2 73 0 69 16
-3 11 0 16 8 13 7 -3 20 2 29 11 14 15 16 15 16 1 0 -9 -4 -16 -10 -16 -5 0
-10 -16 -10 -35 0 -21 5 -35 13 -35 8 0 7 -4 -3 -10 -11 -7 -12 -12 -3 -18 6
-4 10 -20 9 -35 -2 -15 0 -27 5 -27 5 0 6 -7 3 -15 -4 -8 -1 -15 5 -15 7 0 11
44 11 140 0 96 -4 140 -11 140 -6 0 -9 7 -5 15 3 8 1 15 -3 15 -5 0 -7 8 -4
19 3 10 0 22 -6 25 -7 5 -11 -11 -11 -48 0 -43 -3 -56 -15 -56 -8 0 -15 -7
-15 -15 0 -12 -15 -15 -75 -15 -41 0 -75 -3 -75 -7 0 -5 27 -7 60 -6 33 1 60
-3 60 -8 0 -5 -27 -9 -60 -9 -47 0 -60 -3 -60 -15 0 -12 -15 -15 -77 -15 l-78
0 29 -25 c33 -29 37 -30 30 -11 -4 10 5 15 30 18 25 3 36 0 36 -9 0 -7 -9 -13
-20 -13 -11 0 -20 -7 -20 -15 0 -8 9 -15 20 -15 11 0 20 -4 20 -10 0 -5 -9
-10 -20 -10 -11 0 -20 5 -20 10 0 6 -20 10 -45 10 -45 0 -45 0 -45 35 0 24 -5
35 -15 35 -10 0 -15 10 -15 30 0 29 -2 30 -45 30 -25 0 -45 4 -45 8 0 5 14 8
30 7 17 -1 30 2 30 7 0 4 -22 8 -50 8 l-50 0 0 45 c0 25 5 45 10 45 6 0 10 7
10 15 0 8 -4 15 -9 15 -6 0 -12 17 -14 38 -3 26 -4 19 -5 -23 -2 -84 -5 -105
-14 -105 -4 0 -8 56 -8 125 0 69 4 125 8 125 5 0 9 -14 10 -31 2 -62 12 -41
12 24 0 53 -3 67 -15 67 -8 0 -15 -7 -15 -15z m145 -375 c3 -5 1 -10 -4 -10
-6 0 -11 5 -11 10 0 6 2 10 4 10 3 0 8 -4 11 -10z m205 -247 c0 -58 -2 -104
-5 -102 -9 9 -12 209 -3 209 4 0 8 -48 8 -107z m-350 67 c0 -5 -2 -10 -4 -10
-3 0 -8 5 -11 10 -3 6 -1 10 4 10 6 0 11 -4 11 -10z m-53 -82 c-3 -8 -6 -5 -6
6 -1 11 2 17 5 13 3 -3 4 -12 1 -19z m543 -37 c0 -6 -4 -13 -10 -16 -5 -3 -10
1 -10 9 0 9 5 16 10 16 6 0 10 -4 10 -9z m-30 -35 c0 -3 -4 -8 -10 -11 -5 -3
-10 -1 -10 4 0 6 5 11 10 11 6 0 10 -2 10 -4z"/>
<path d="M551 794 c0 -11 3 -14 6 -6 3 7 2 16 -1 19 -3 4 -6 -2 -5 -13z"/>
<path d="M205 790 c-3 -5 -1 -10 4 -10 6 0 11 5 11 10 0 6 -2 10 -4 10 -3 0
-8 -4 -11 -10z"/>
<path d="M385 790 c-3 -5 1 -10 9 -10 9 0 16 5 16 10 0 6 -4 10 -9 10 -6 0
-13 -4 -16 -10z"/>
<path d="M925 790 c-3 -5 -1 -10 4 -10 6 0 11 5 11 10 0 6 -2 10 -4 10 -3 0
-8 -4 -11 -10z"/>
<path d="M444 776 c-3 -8 -12 -12 -20 -9 -10 4 -14 -2 -14 -20 0 -14 -3 -27
-7 -30 -5 -2 -2 -2 5 0 8 1 27 3 43 3 19 0 28 4 23 11 -3 6 -15 9 -25 6 -10
-3 -22 -1 -25 4 -3 5 6 9 20 9 19 0 26 5 26 20 0 23 -18 27 -26 6z"/>
<path d="M690 769 c0 -5 5 -7 10 -4 6 3 10 8 10 11 0 2 -4 4 -10 4 -5 0 -10
-5 -10 -11z"/>
<path d="M720 770 c0 -5 7 -10 15 -10 8 0 15 5 15 10 0 6 -7 10 -15 10 -8 0
-15 -4 -15 -10z"/>
<path d="M840 760 c0 -5 7 -10 15 -10 8 0 15 5 15 10 0 6 -7 10 -15 10 -8 0
-15 -4 -15 -10z"/>
<path d="M890 760 c-13 -8 -12 -10 3 -10 9 0 17 5 17 10 0 12 -1 12 -20 0z"/>
<path d="M552 740 c0 -14 2 -19 5 -12 2 6 2 18 0 25 -3 6 -5 1 -5 -13z"/>
<path d="M693 715 c0 -22 2 -30 4 -17 2 12 2 30 0 40 -3 9 -5 -1 -4 -23z"/>
<path d="M722 713 c4 -52 28 -56 28 -4 0 30 -4 41 -16 41 -11 0 -14 -9 -12
-37z"/>
<path d="M772 720 c0 -19 2 -27 5 -17 2 9 2 25 0 35 -3 9 -5 1 -5 -18z"/>
<path d="M796 741 c-4 -7 -5 -15 -2 -18 9 -9 19 4 14 18 -4 11 -6 11 -12 0z"/>
<path d="M840 715 c0 -22 4 -25 35 -25 32 0 35 3 35 28 l0 27 -20 -25 c-15
-19 -20 -21 -20 -9 0 9 -7 19 -15 23 -11 4 -15 -1 -15 -19z"/>
<path d="M198 713 c7 -3 16 -2 19 1 4 3 -2 6 -13 5 -11 0 -14 -3 -6 -6z"/>
<path d="M188 683 c6 -2 18 -2 25 0 6 3 1 5 -13 5 -14 0 -19 -2 -12 -5z"/>
<path d="M388 663 c3 -15 12 -34 21 -43 13 -13 14 -13 8 3 -4 10 -7 30 -7 43
0 14 -6 24 -14 24 -9 0 -12 -8 -8 -27z"/>
<path d="M470 683 c0 -5 14 -9 30 -10 17 -1 30 2 30 7 0 6 -13 10 -30 10 -16
0 -30 -3 -30 -7z"/>
<path d="M545 680 c3 -5 8 -10 11 -10 2 0 4 5 4 10 0 6 -5 10 -11 10 -5 0 -7
-4 -4 -10z"/>
<path d="M208 653 c7 -3 16 -2 19 1 4 3 -2 6 -13 5 -11 0 -14 -3 -6 -6z"/>
<path d="M440 595 l0 -65 45 0 c33 0 45 4 45 15 0 8 7 15 15 15 11 0 15 12 15
50 l0 50 -60 0 -60 0 0 -65z m30 45 c0 -5 -5 -10 -11 -10 -5 0 -7 5 -4 10 3 6
8 10 11 10 2 0 4 -4 4 -10z m75 0 c3 -5 1 -10 -4 -10 -6 0 -11 5 -11 10 0 6 2
10 4 10 3 0 8 -4 11 -10z m-31 -27 c-4 -10 -8 -27 -8 -38 -1 -13 -8 -20 -21
-20 -15 0 -20 7 -21 28 -1 17 4 27 12 27 8 0 14 5 14 10 0 6 7 10 16 10 12 0
14 -5 8 -17z m36 -27 c0 -3 -4 -8 -10 -11 -5 -3 -10 -1 -10 4 0 6 5 11 10 11
6 0 10 -2 10 -4z"/>
<path d="M690 649 c0 -5 5 -7 10 -4 6 3 10 8 10 11 0 2 -4 4 -10 4 -5 0 -10
-5 -10 -11z"/>
<path d="M720 651 c0 -5 6 -12 13 -14 6 -3 0 -6 -15 -6 -28 -1 -28 -2 -28 -66
0 -41 4 -65 11 -65 6 0 9 7 5 15 -3 8 -1 15 4 15 6 0 10 -13 10 -30 0 -27 3
-30 30 -30 l30 0 0 80 c0 64 -3 80 -15 80 -8 0 -15 7 -15 15 0 8 -7 15 -15 15
-8 0 -15 -4 -15 -9z m15 -61 c7 0 15 5 17 11 2 6 3 -8 3 -30 0 -42 -11 -54
-22 -25 -4 10 -8 12 -12 5 -4 -6 -7 6 -7 26 0 20 2 31 4 25 2 -7 10 -12 17
-12z m30 -100 c-3 -5 -12 -7 -20 -3 -21 7 -19 13 6 13 11 0 18 -4 14 -10z"/>
<path d="M765 650 c3 -5 8 -10 11 -10 2 0 4 5 4 10 0 6 -5 10 -11 10 -5 0 -7
-4 -4 -10z"/>
<path d="M840 625 c0 -32 2 -35 30 -35 17 0 30 5 30 10 0 6 3 10 8 10 4 0 7
-26 7 -57 0 -80 14 -265 20 -271 3 -3 5 74 5 171 l0 177 -46 0 c-25 0 -43 3
-41 8 3 4 24 7 46 6 23 0 41 3 41 8 0 4 -22 8 -50 8 l-50 0 0 -35z"/>
<path d="M581 608 c0 -22 1 -22 9 -3 7 17 9 17 9 3 1 -25 21 -23 21 2 0 13 -7
20 -20 20 -14 0 -20 -6 -19 -22z"/>
<path d="M661 614 c0 -11 3 -14 6 -6 3 7 2 16 -1 19 -3 4 -6 -2 -5 -13z"/>
<path d="M410 575 c0 -8 5 -15 10 -15 6 0 10 7 10 15 0 8 -4 15 -10 15 -5 0
-10 -7 -10 -15z"/>
<path d="M660 575 c0 -8 5 -15 10 -15 6 0 10 7 10 15 0 8 -4 15 -10 15 -5 0
-10 -7 -10 -15z"/>
<path d="M793 545 c0 -25 4 -45 8 -45 5 0 9 20 9 45 0 25 -4 45 -9 45 -4 0 -8
-20 -8 -45z"/>
<path d="M595 570 c-19 -8 -19 -9 3 -9 12 -1 22 4 22 9 0 6 -1 10 -2 9 -2 0
-12 -4 -23 -9z"/>
<path d="M833 555 c-3 -9 -3 -18 -1 -21 3 -3 8 4 11 16 6 23 -1 27 -10 5z"/>
<path d="M190 545 c0 -9 9 -15 25 -15 16 0 25 6 25 15 0 9 -9 15 -25 15 -16 0
-25 -6 -25 -15z"/>
<path d="M653 534 c-15 -15 -17 -44 -4 -44 7 0 23 51 18 56 -1 1 -8 -4 -14
-12z"/>
<path d="M558 513 c4 -24 22 -32 22 -11 0 9 3 9 12 0 17 -17 28 -15 28 7 0 14
-9 20 -33 23 -30 3 -33 1 -29 -19z"/>
<path d="M190 504 c0 -8 5 -12 10 -9 6 4 8 11 5 16 -9 14 -15 11 -15 -7z"/>
<path d="M220 478 c-3 -26 -1 -43 3 -39 5 5 7 26 5 47 l-3 39 -5 -47z"/>
<path d="M440 508 c0 -5 14 -8 30 -8 17 0 30 4 30 10 0 5 -13 8 -30 7 -16 -1
-30 -5 -30 -9z"/>
<path d="M385 490 c3 -5 10 -10 16 -10 5 0 9 5 9 10 0 6 -7 10 -16 10 -8 0
-12 -4 -9 -10z"/>
<path d="M485 470 c3 -5 8 -10 11 -10 2 0 4 5 4 10 0 6 -5 10 -11 10 -5 0 -7
-4 -4 -10z"/>
<path d="M530 440 c0 -16 -5 -30 -11 -30 -5 0 -7 -5 -3 -12 5 -8 13 0 23 22
13 31 15 33 19 13 3 -20 9 -23 53 -23 48 0 49 1 49 30 l0 30 -65 0 -65 0 0
-30z m114 11 c3 -5 -1 -11 -9 -15 -9 -3 -15 0 -15 9 0 16 16 20 24 6z m-34 -5
c0 -2 -7 -6 -15 -10 -8 -3 -15 -1 -15 4 0 6 7 10 15 10 8 0 15 -2 15 -4z"/>
<path d="M545 330 c3 -5 8 -10 11 -10 2 0 4 5 4 10 0 6 -5 10 -11 10 -5 0 -7
-4 -4 -10z"/>
<path d="M610 257 c0 -8 7 -17 15 -21 8 -3 15 -3 15 0 0 3 -7 12 -15 20 -13
13 -15 13 -15 1z"/>
<path d="M547 233 c-11 -10 -8 -73 3 -73 6 0 10 18 10 40 0 41 -2 45 -13 33z"/>
<path d="M895 200 c-3 -5 -1 -10 4 -10 6 0 11 5 11 10 0 6 -2 10 -4 10 -3 0
-8 -4 -11 -10z"/>
<path d="M918 163 c7 -3 16 -2 19 1 4 3 -2 6 -13 5 -11 0 -14 -3 -6 -6z"/>
<path d="M160 140 c0 -5 5 -10 11 -10 5 0 7 5 4 10 -3 6 -8 10 -11 10 -2 0 -4
-4 -4 -10z"/>
<path d="M190 55 c0 -32 3 -56 6 -52 3 3 6 26 6 52 0 26 -3 49 -6 53 -3 3 -6
-21 -6 -53z"/>
<path d="M220 53 c0 -33 4 -53 11 -53 8 0 10 15 7 45 -5 39 -3 45 14 45 15 0
17 -3 8 -19 -15 -30 -13 -71 5 -71 11 0 15 13 15 54 0 54 0 55 -30 54 -29 -1
-30 -2 -30 -55z"/>
<path d="M303 55 c0 -33 2 -45 4 -27 2 18 2 45 0 60 -2 15 -4 0 -4 -33z"/>
<path d="M370 70 c0 -5 7 -10 16 -10 8 0 12 5 9 10 -3 6 -10 10 -16 10 -5 0
-9 -4 -9 -10z"/>
<path d="M410 40 c0 -5 5 -10 11 -10 5 0 7 5 4 10 -3 6 -8 10 -11 10 -2 0 -4
-4 -4 -10z"/>
<path d="M796 21 c-4 -7 -5 -15 -2 -18 9 -9 19 4 14 18 -4 11 -6 11 -12 0z"/>
<path d="M470 10 c0 -5 5 -10 11 -10 5 0 7 5 4 10 -3 6 -8 10 -11 10 -2 0 -4
-4 -4 -10z"/>
<path d="M500 10 c0 -5 5 -10 11 -10 5 0 7 5 4 10 -3 6 -8 10 -11 10 -2 0 -4
-4 -4 -10z"/>
<path d="M530 10 c0 -6 7 -10 15 -10 8 0 15 2 15 4 0 2 -7 6 -15 10 -8 3 -15
1 -15 -4z"/>
<path d="M645 10 c-3 -5 -1 -10 4 -10 6 0 11 5 11 10 0 6 -2 10 -4 10 -3 0 -8
-4 -11 -10z"/>
<path d="M690 10 c0 -5 7 -10 16 -10 8 0 12 5 9 10 -3 6 -10 10 -16 10 -5 0
-9 -4 -9 -10z"/>
<path d="M735 10 c-3 -5 -1 -10 4 -10 6 0 11 5 11 10 0 6 -2 10 -4 10 -3 0 -8
-4 -11 -10z"/>
</g>
</svg>
