<?xml version="1.0" standalone="no"?>
<!DOCTYPE svg PUBLIC "-//W3C//DTD SVG 20010904//EN"
 "http://www.w3.org/TR/2001/REC-SVG-20010904/DTD/svg10.dtd">
<svg version="1.0" xmlns="http://www.w3.org/2000/svg"
 width="62.000000pt" height="62.000000pt" viewBox="0 0 62.000000 62.000000"
 preserveAspectRatio="xMidYMid meet">
<metadata>
Created by potrace 1.16, written by Peter Selinger 2001-2019
</metadata>
<g transform="translate(0.000000,62.000000) scale(0.100000,-0.100000)"
fill="#000000" stroke="none">
<path d="M231 584 c-17 -13 -22 -24 -19 -46 4 -22 -3 -36 -27 -63 -39 -40 -52
-87 -50 -178 2 -81 -9 -82 -49 -4 -38 73 -31 130 21 188 46 51 29 51 -21 0
-36 -37 -74 -130 -61 -151 2 -4 7 -38 10 -75 10 -121 46 -171 118 -166 16 1
18 7 12 41 -4 22 -4 40 -1 40 3 0 14 -21 26 -47 12 -26 31 -58 42 -70 25 -26
78 -44 109 -36 17 5 20 11 15 32 -17 68 -17 107 -3 126 23 30 32 11 32 -63 l0
-67 35 2 c44 2 73 35 96 106 20 64 32 237 15 237 -6 0 -11 -16 -11 -36 0 -44
-53 -104 -93 -104 -14 0 -29 -5 -33 -11 -4 -7 -21 -9 -40 -6 -19 3 -34 2 -34
-4 0 -5 9 -9 21 -9 11 0 17 -4 14 -10 -12 -19 -34 -10 -54 24 -12 18 -35 39
-52 46 -36 16 -59 56 -59 107 0 46 32 109 53 105 8 -1 20 5 27 13 7 8 18 15
25 15 19 0 24 21 12 45 -19 38 -41 43 -76 19z m39 -44 c-21 -14 -30 -12 -30 4
0 18 22 27 35 14 6 -6 5 -12 -5 -18z m-65 -265 c15 -11 46 -39 70 -62 40 -39
43 -45 47 -107 2 -42 0 -66 -7 -66 -29 0 -75 43 -100 94 -22 45 -32 56 -51 56
-21 0 -24 -5 -24 -40 0 -38 -1 -40 -21 -30 -24 13 -58 83 -59 119 l0 24 21
-27 c14 -17 30 -26 50 -26 l29 0 1 78 c1 63 3 71 9 42 5 -19 20 -44 35 -55z
m300 -57 c-11 -51 -40 -111 -64 -132 -11 -11 -23 -17 -25 -15 -3 2 -6 36 -7
74 -3 70 -2 70 27 79 16 4 36 12 44 17 27 14 32 10 25 -23z"/>
<path d="M457 552 c-24 -26 -20 -44 14 -71 29 -22 31 -23 49 -6 25 23 26 57 2
78 -24 22 -45 21 -65 -1z m51 -36 c3 -15 1 -16 -17 -5 -11 7 -17 17 -14 22 8
13 28 2 31 -17z"/>
<path d="M256 388 c-20 -28 -20 -52 -1 -68 22 -19 67 24 63 60 -4 34 -41 39
-62 8z"/>
<path d="M394 373 c-8 -14 -7 -25 6 -47 9 -16 20 -31 25 -33 19 -5 38 15 38
41 0 49 -46 75 -69 39z m40 -29 c3 -8 2 -12 -4 -9 -6 3 -10 10 -10 16 0 14 7
11 14 -7z"/>
<path d="M300 275 c0 -2 9 -9 20 -15 23 -12 64 -4 55 11 -6 9 -75 13 -75 4z"/>
</g>
</svg>
