<?xml version="1.0" standalone="no"?>
<!DOCTYPE svg PUBLIC "-//W3C//DTD SVG 20010904//EN"
 "http://www.w3.org/TR/2001/REC-SVG-20010904/DTD/svg10.dtd">
<svg version="1.0" xmlns="http://www.w3.org/2000/svg"
 width="256.000000pt" height="256.000000pt" viewBox="0 0 256.000000 256.000000"
 preserveAspectRatio="xMidYMid meet">
<metadata>
Created by potrace 1.16, written by Peter Selinger 2001-2019
</metadata>
<g transform="translate(0.000000,256.000000) scale(0.100000,-0.100000)"
fill="#000000" stroke="none">
<path d="M1919 2333 l-187 -3 -628 -1052 c-346 -578 -630 -1055 -632 -1060 -2
-4 77 -8 175 -8 l178 0 31 53 c52 88 1224 2028 1241 2053 8 13 14 23 12 22 -2
-2 -88 -4 -190 -5z m-28 -300 c-92 -153 -269 -447 -394 -653 -124 -206 -329
-546 -455 -755 l-230 -380 -147 -3 c-81 -1 -145 1 -143 6 1 5 279 471 617
1035 l614 1027 153 0 153 0 -168 -277z"/>
<path d="M592 1992 c13 -29 392 -652 397 -652 5 1 171 260 179 282 2 4 -47 91
-109 193 l-112 185 -179 0 c-99 0 -178 -3 -176 -8z m442 -187 c94 -155 105
-178 95 -197 -38 -72 -142 -219 -148 -212 -5 5 -79 128 -166 274 -87 146 -165
275 -173 288 l-14 22 150 0 150 0 106 -175z"/>
<path d="M1425 963 c-38 -65 -77 -130 -87 -146 l-19 -27 102 -168 c56 -92 114
-186 128 -209 l26 -43 173 0 c95 0 171 3 169 7 -9 16 -420 698 -422 701 -1 2
-33 -50 -70 -115z m256 -245 c100 -167 184 -306 186 -310 2 -5 -60 -8 -139 -8
l-143 1 -95 157 c-52 86 -105 172 -117 192 l-22 36 55 95 c64 109 83 139 88
139 2 0 86 -136 187 -302z"/>
</g>
</svg>
