<?xml version="1.0" standalone="no"?>
<!DOCTYPE svg PUBLIC "-//W3C//DTD SVG 20010904//EN"
 "http://www.w3.org/TR/2001/REC-SVG-20010904/DTD/svg10.dtd">
<svg version="1.0" xmlns="http://www.w3.org/2000/svg"
 width="180.000000pt" height="180.000000pt" viewBox="0 0 180.000000 180.000000"
 preserveAspectRatio="xMidYMid meet">
<metadata>
Created by potrace 1.16, written by Peter Selinger 2001-2019
</metadata>
<g transform="translate(0.000000,180.000000) scale(0.100000,-0.100000)"
fill="#000000" stroke="none">
<path d="M174 1769 c-69 -44 -91 -66 -135 -133 -31 -47 -39 -68 -39 -105 l1
-46 17 50 c40 115 141 215 255 250 l42 14 -46 0 c-34 1 -57 -7 -95 -30z"/>
<path d="M1527 1785 c114 -35 215 -135 255 -250 l17 -50 1 46 c0 34 -8 58 -31
95 -44 69 -66 91 -133 135 -48 32 -68 39 -105 38 l-46 0 42 -14z"/>
<path d="M247 1273 c-16 -15 0 -42 118 -199 l126 -166 -63 -82 c-34 -44 -91
-117 -125 -161 -35 -44 -63 -90 -63 -102 0 -23 2 -23 139 -23 l138 0 70 95
c68 92 83 103 83 62 0 -11 25 -51 55 -88 l56 -69 134 0 c130 0 135 1 135 21 0
11 -30 60 -66 107 -37 48 -89 118 -118 155 -47 63 -54 68 -83 65 -31 -4 -33
-2 -32 27 0 16 3 24 6 18 2 -7 17 -13 31 -13 22 0 39 16 91 85 l64 85 298 0
c357 0 339 -6 339 115 l0 75 -398 0 -398 0 -39 -52 c-22 -29 -47 -61 -55 -71
-8 -9 -17 -32 -20 -49 -5 -32 -6 -31 -83 70 l-78 102 -128 0 c-70 0 -131 -3
-134 -7z m351 -157 c61 -79 115 -153 121 -164 26 -49 15 -74 -106 -235 l-118
-157 -118 0 -117 0 95 122 c52 68 111 146 131 175 l37 52 -18 28 c-10 15 -70
94 -132 176 l-113 147 115 0 114 0 109 -144z m379 66 c-34 -43 -89 -115 -122
-160 -33 -45 -62 -81 -65 -81 -10 0 -100 134 -100 149 0 9 26 51 57 93 l57 77
118 0 118 0 -63 -78z m583 23 c0 -42 -5 -60 -20 -75 -19 -19 -33 -20 -295 -20
l-275 0 56 75 56 75 239 0 239 0 0 -55z m-655 -480 c59 -77 112 -146 118 -152
7 -10 -15 -13 -105 -13 l-115 0 -56 71 c-32 40 -57 82 -57 94 0 22 89 147 101
143 4 -2 55 -66 114 -143z"/>
<path d="M1165 1037 c-4 -13 -5 -120 -3 -239 4 -266 0 -258 123 -258 66 0 84
3 89 16 8 20 8 468 0 488 -5 13 -24 16 -105 16 -95 0 -99 -1 -104 -23z m185
-237 l0 -240 -62 0 c-100 0 -98 -6 -98 257 l0 223 80 0 80 0 0 -240z"/>
<path d="M1 269 c-1 -37 6 -57 38 -105 44 -67 66 -89 135 -133 37 -23 61 -31
95 -31 l46 1 -50 17 c-115 40 -215 141 -250 255 l-14 42 0 -46z"/>
<path d="M1792 294 c-3 -31 -48 -116 -87 -161 -41 -48 -119 -100 -178 -118
l-42 -14 46 0 c111 -2 276 165 266 271 -2 24 -4 34 -5 22z"/>
</g>
</svg>
