<?xml version="1.0" standalone="no"?>
<!DOCTYPE svg PUBLIC "-//W3C//DTD SVG 20010904//EN"
 "http://www.w3.org/TR/2001/REC-SVG-20010904/DTD/svg10.dtd">
<svg version="1.0" xmlns="http://www.w3.org/2000/svg"
 width="256.000000pt" height="256.000000pt" viewBox="0 0 256.000000 256.000000"
 preserveAspectRatio="xMidYMid meet">
<metadata>
Created by potrace 1.16, written by Peter Selinger 2001-2019
</metadata>
<g transform="translate(0.000000,256.000000) scale(0.100000,-0.100000)"
fill="#000000" stroke="none">
<path d="M369 2550 c-137 -41 -264 -149 -323 -273 -39 -83 -53 -131 -36 -125
7 2 20 27 30 57 28 77 65 135 125 196 50 50 148 107 214 124 13 4 26 12 29 19
4 13 -2 14 -39 2z"/>
<path d="M2152 2549 c2 -6 24 -18 48 -27 82 -31 148 -71 200 -123 50 -50 117
-166 129 -223 4 -16 12 -31 19 -34 20 -6 3 56 -40 141 -50 100 -129 179 -229
228 -84 41 -133 56 -127 38z"/>
<path d="M485 2202 c-2 -3 164 -238 208 -292 6 -9 28 -38 47 -65 19 -28 38
-54 42 -60 5 -5 34 -46 65 -90 31 -44 60 -81 64 -83 5 -2 9 -8 9 -13 0 -5 27
-46 60 -91 33 -45 60 -85 60 -90 0 -18 18 -6 46 33 16 22 34 46 39 52 6 7 32
40 59 75 l47 62 -176 280 -176 279 -195 3 c-108 2 -197 2 -199 0z m490 -209
c65 -104 142 -224 171 -269 l52 -81 -70 -92 c-38 -50 -73 -89 -78 -86 -10 6
-510 701 -510 709 0 3 71 6 159 6 l158 0 118 -187z"/>
<path d="M1678 2128 c-31 -50 -203 -298 -216 -314 -5 -6 -31 -44 -58 -85 -27
-41 -52 -76 -55 -79 -3 -3 -50 -71 -105 -151 -54 -80 -125 -182 -156 -228 -32
-45 -58 -87 -58 -92 0 -5 -3 -9 -7 -9 -5 0 -21 -21 -38 -48 -16 -26 -34 -52
-40 -58 -6 -6 -31 -42 -55 -80 -25 -38 -50 -74 -55 -80 -6 -6 -31 -42 -55 -80
-25 -38 -47 -71 -50 -74 -13 -11 -100 -142 -100 -150 0 -4 -3 -10 -8 -12 -7
-3 -152 -206 -152 -214 0 -2 88 -4 195 -4 l194 0 41 59 c22 33 40 62 40 65 0
3 16 28 35 55 19 26 35 52 35 55 0 4 11 22 25 40 14 18 25 38 25 44 0 6 4 12
8 14 9 4 215 324 225 351 9 24 26 21 36 -5 5 -13 28 -49 50 -81 23 -32 41 -61
41 -64 0 -3 15 -26 33 -52 18 -25 36 -53 40 -61 3 -8 64 -105 134 -215 l129
-200 204 -3 204 -2 -32 33 c-18 18 -32 36 -32 40 0 4 -37 59 -82 122 -46 62
-119 165 -163 227 -44 62 -83 118 -88 123 -4 6 -68 96 -142 202 l-135 192 80
113 c44 62 90 126 103 142 12 16 24 34 27 40 3 6 31 46 63 88 31 42 57 81 57
87 0 5 4 11 8 13 4 2 60 77 124 168 64 91 124 173 132 183 9 9 16 19 16 22 0
3 -89 5 -198 5 l-197 0 -27 -42z m362 7 c0 -5 -175 -252 -472 -668 -54 -75
-98 -147 -98 -158 0 -17 230 -353 413 -604 52 -72 217 -308 217 -312 0 -2 -72
-3 -160 -3 l-159 0 -44 67 c-24 38 -108 169 -187 293 -78 124 -159 251 -179
282 -41 65 -68 74 -98 34 -10 -14 -62 -93 -115 -178 -54 -84 -146 -229 -205
-323 l-108 -170 -163 -3 c-157 -2 -163 -2 -153 16 6 11 61 93 124 183 62 90
144 209 182 264 38 55 143 208 234 340 90 132 192 279 225 327 34 48 86 124
116 168 30 44 82 120 116 168 33 48 90 131 128 185 l67 97 159 0 c88 0 160 -2
160 -5z"/>
<path d="M2537 413 c-4 -3 -7 -15 -7 -25 0 -10 -18 -54 -40 -97 -62 -124 -150
-201 -290 -253 -51 -18 -69 -43 -23 -32 65 15 178 81 234 136 60 59 130 179
142 246 6 30 -1 41 -16 25z"/>
<path d="M6 383 c4 -15 22 -61 41 -101 49 -102 137 -191 235 -236 90 -41 132
-52 126 -34 -3 7 -13 15 -24 17 -10 2 -51 18 -89 36 -120 55 -230 186 -264
312 -10 38 -34 44 -25 6z"/>
</g>
</svg>
