<?xml version="1.0" standalone="no"?>
<!DOCTYPE svg PUBLIC "-//W3C//DTD SVG 20010904//EN"
 "http://www.w3.org/TR/2001/REC-SVG-20010904/DTD/svg10.dtd">
<svg version="1.0" xmlns="http://www.w3.org/2000/svg"
 width="180.000000pt" height="180.000000pt" viewBox="0 0 180.000000 180.000000"
 preserveAspectRatio="xMidYMid meet">
<metadata>
Created by potrace 1.16, written by Peter Selinger 2001-2019
</metadata>
<g transform="translate(0.000000,180.000000) scale(0.100000,-0.100000)"
fill="#000000" stroke="none">
<path d="M577 1445 c-10 -9 -17 -23 -17 -31 0 -8 65 -126 145 -262 121 -207
145 -254 145 -288 0 -33 -21 -76 -125 -253 -69 -117 -125 -224 -125 -237 0
-36 29 -44 152 -44 128 0 175 10 206 43 12 12 78 119 147 237 116 198 126 218
122 256 -5 52 -287 536 -330 568 -25 18 -45 21 -166 24 -118 3 -140 1 -154
-13z m297 -33 c37 -23 326 -513 326 -554 0 -41 -240 -446 -281 -475 -29 -21
-44 -23 -150 -23 -152 0 -156 2 -128 49 12 20 69 117 127 216 102 174 105 182
106 240 0 59 -1 62 -143 302 -78 134 -140 247 -136 253 4 6 56 10 128 10 98 0
128 -3 151 -18z"/>
<path d="M1048 1449 c-33 -19 -40 -46 -22 -81 38 -74 217 -374 228 -381 6 -4
24 -6 41 -5 28 3 39 18 149 206 127 217 134 242 80 262 -34 13 -454 12 -476
-1z m475 -39 c7 -12 -2 -35 -35 -90 -25 -41 -76 -127 -113 -190 -72 -122 -82
-135 -102 -119 -6 6 -62 96 -123 200 -92 156 -109 193 -99 205 18 22 457 16
472 -6z"/>
<path d="M1603 1453 c-22 -8 -15 -51 9 -59 28 -9 52 20 37 47 -10 19 -22 22
-46 12z m34 -19 c8 -21 -13 -42 -28 -27 -13 13 -5 43 11 43 6 0 13 -7 17 -16z"/>
<path d="M1610 1425 c0 -8 5 -15 10 -15 6 0 10 7 10 15 0 8 -4 15 -10 15 -5 0
-10 -7 -10 -15z"/>
<path d="M297 934 c-10 -11 -8 -222 2 -228 5 -4 16 -3 25 0 12 5 16 20 16 65
0 56 1 59 25 59 23 0 24 -4 27 -62 3 -55 5 -63 23 -63 18 0 20 8 23 62 4 85
-8 106 -58 101 -38 -3 -39 -3 -42 32 -3 33 -24 51 -41 34z"/>
<path d="M180 890 c0 -11 -4 -20 -10 -20 -5 0 -10 -9 -10 -20 0 -11 5 -20 10
-20 6 0 10 -24 10 -54 0 -61 14 -79 57 -74 38 4 45 38 9 38 -24 0 -26 3 -26
45 0 41 2 45 25 45 18 0 25 5 25 20 0 15 -7 20 -25 20 -18 0 -25 5 -25 20 0
13 -7 20 -20 20 -13 0 -20 -7 -20 -20z"/>
<path d="M488 860 c-22 -14 -33 -84 -18 -120 9 -21 21 -31 45 -36 48 -9 79 -1
83 19 3 15 -3 18 -39 15 -39 -2 -52 6 -50 28 1 4 22 8 49 8 l47 1 -3 35 c-2
19 -9 41 -14 48 -12 14 -76 16 -100 2z m72 -40 c0 -16 -7 -20 -30 -20 -32 0
-33 1 -24 24 9 24 54 21 54 -4z"/>
<path d="M1160 627 c0 -6 12 -24 27 -39 25 -26 26 -30 11 -44 -24 -25 -61 -9
-54 22 8 30 -10 32 -20 2 -7 -25 25 -58 57 -58 21 0 42 33 43 70 1 14 6 25 13
25 18 0 27 14 12 19 -38 12 -89 14 -89 3z m45 -17 c3 -5 1 -10 -4 -10 -6 0
-11 5 -11 10 0 6 2 10 4 10 3 0 8 -4 11 -10z"/>
<path d="M1090 513 c0 -3 8 -15 18 -26 17 -19 16 -20 -11 -15 -15 3 -30 2 -32
-2 -6 -10 65 -64 73 -55 4 4 -2 13 -12 21 -19 14 -19 14 2 14 25 0 28 10 10
28 -9 9 -9 12 -1 12 7 0 15 -4 18 -10 8 -13 25 -13 25 0 0 5 -16 17 -36 25
-40 16 -54 19 -54 8z"/>
<path d="M1051 440 c-1 -9 4 -21 11 -28 9 -9 6 -12 -15 -12 -15 0 -27 -4 -27
-10 0 -5 15 -10 34 -10 19 0 38 -5 41 -10 4 -6 11 -8 16 -4 6 3 0 16 -13 28
-13 12 -28 31 -35 42 -9 15 -12 16 -12 4z"/>
</g>
</svg>
