<?xml version="1.0" standalone="no"?>
<!DOCTYPE svg PUBLIC "-//W3C//DTD SVG 20010904//EN"
 "http://www.w3.org/TR/2001/REC-SVG-20010904/DTD/svg10.dtd">
<svg version="1.0" xmlns="http://www.w3.org/2000/svg"
 width="192.000000pt" height="192.000000pt" viewBox="0 0 192.000000 192.000000"
 preserveAspectRatio="xMidYMid meet">
<metadata>
Created by potrace 1.16, written by Peter Selinger 2001-2019
</metadata>
<g transform="translate(0.000000,192.000000) scale(0.100000,-0.100000)"
fill="#000000" stroke="none">
<path d="M570 1622 c-22 -7 -25 -14 -28 -67 -3 -53 9 -104 31 -130 8 -10 86
-144 118 -203 9 -18 23 -39 29 -47 6 -8 28 -45 47 -82 19 -37 41 -75 48 -83
23 -26 46 -94 40 -117 -3 -12 -27 -58 -53 -101 -27 -44 -54 -94 -62 -111 -7
-17 -16 -31 -21 -31 -5 0 -9 -5 -9 -10 0 -6 -20 -43 -44 -83 -72 -120 -86
-152 -86 -206 0 -80 3 -81 209 -81 177 0 228 7 263 38 12 10 29 12 60 8 99
-15 113 -13 116 15 2 17 11 29 23 32 11 3 19 14 19 26 0 11 8 28 18 38 9 10
26 35 36 56 11 20 23 37 28 37 4 0 8 13 8 29 0 16 6 31 15 35 10 3 15 19 15
44 0 36 -3 40 -31 46 -17 3 -43 6 -56 6 -14 0 -23 3 -21 8 17 41 65 128 71
130 12 6 8 167 -5 180 -9 9 2 12 49 12 61 0 62 0 90 43 15 23 44 71 62 107 19
36 38 67 42 70 4 3 24 39 45 80 21 41 41 77 45 80 3 3 16 24 28 48 19 38 25
42 59 42 56 1 72 18 72 78 0 51 0 51 -39 63 -26 8 -48 9 -68 2 -15 -5 -39 -6
-53 -2 -32 9 -547 9 -580 0 -14 -4 -29 -16 -35 -26 -23 -46 -26 -47 -49 -22
-44 47 -61 51 -246 54 -96 1 -186 -1 -200 -5z m378 -31 c39 -21 60 -47 99
-123 21 -40 41 -75 44 -78 3 -3 23 -36 44 -75 21 -38 47 -81 57 -94 10 -13 18
-28 18 -33 0 -6 8 -22 19 -36 10 -15 39 -65 65 -111 40 -72 46 -91 46 -141 0
-32 -3 -60 -7 -62 -5 -1 -19 -25 -33 -53 -13 -27 -42 -79 -63 -115 -46 -76
-54 -91 -34 -67 8 9 19 17 26 17 6 0 11 9 11 20 0 16 7 20 34 20 62 0 96 -11
96 -32 0 -10 -7 -21 -15 -24 -9 -4 -15 -19 -15 -35 0 -16 -4 -29 -8 -29 -5 0
-17 -17 -28 -37 -10 -21 -27 -46 -36 -56 -10 -10 -18 -27 -18 -38 0 -12 -8
-23 -19 -26 -12 -3 -21 -15 -23 -32 -2 -20 -8 -25 -23 -23 -11 2 -39 6 -62 9
-37 4 -43 8 -43 29 0 12 6 27 13 31 8 4 17 22 21 38 5 26 5 28 -6 10 -6 -11
-16 -24 -21 -30 -4 -5 -18 -28 -31 -50 -34 -63 -57 -70 -252 -73 -148 -3 -174
-1 -188 13 -34 35 -19 84 70 232 24 40 44 77 44 83 0 5 4 10 9 10 5 0 14 14
21 31 8 17 36 68 63 113 27 44 52 98 54 118 6 38 -16 109 -42 138 -7 8 -29 46
-48 83 -19 37 -41 74 -47 82 -6 8 -20 29 -29 47 -32 59 -110 193 -118 203 -20
23 -34 75 -31 111 2 31 8 40 28 46 42 12 332 4 358 -11z m743 -10 c10 -13 19
-36 19 -53 0 -26 -33 -106 -49 -118 -4 -3 -24 -39 -45 -80 -21 -41 -41 -77
-45 -80 -4 -3 -23 -34 -42 -70 -18 -36 -47 -84 -62 -108 -29 -42 -30 -43 -80
-40 -37 2 -53 8 -61 22 -6 11 -18 28 -27 38 -8 10 -28 46 -45 80 -16 35 -34
68 -40 73 -13 12 -105 174 -134 236 -21 46 -21 47 -2 80 10 18 29 37 43 41 13
3 143 6 287 5 l264 -2 19 -24z m129 -25 c0 -42 -36 -65 -75 -48 -20 9 -25 19
-25 47 0 42 28 58 72 43 23 -8 28 -16 28 -42z"/>
<path d="M1250 566 c0 -8 5 -18 10 -21 6 -3 10 3 10 14 0 12 -4 21 -10 21 -5
0 -10 -6 -10 -14z"/>
<path d="M1148 521 c-23 -42 -23 -48 -8 -44 11 3 16 11 13 23 -3 12 3 23 16
32 12 7 21 18 21 25 0 27 -18 11 -42 -36z"/>
<path d="M248 1026 c-10 -7 -19 -28 -19 -47 -2 -30 -2 -31 -6 -6 -4 26 -7 27
-59 27 -51 0 -54 -1 -54 -25 0 -14 -7 -28 -15 -31 -21 -8 -21 -92 0 -100 11
-5 15 -22 15 -69 0 -39 5 -67 13 -73 8 -7 101 -11 264 -11 203 0 254 3 263 14
8 10 11 49 8 115 -4 128 -8 132 -128 129 -47 -1 -104 -1 -127 0 -42 1 -43 2
-43 34 0 18 -5 38 -12 45 -16 16 -79 15 -100 -2z m80 -18 c7 -7 12 -27 12 -45
0 -32 2 -33 38 -33 56 0 62 -12 62 -116 0 -98 -5 -110 -45 -100 -22 6 -24 12
-27 73 -2 42 -8 68 -15 71 -10 3 -13 -14 -13 -61 0 -40 -5 -68 -12 -74 -19
-14 -168 -15 -184 -2 -9 7 -14 33 -14 74 0 47 -4 64 -15 69 -8 3 -15 16 -15
30 0 13 7 26 15 30 8 3 15 17 15 31 0 22 4 25 35 25 31 0 35 -3 35 -25 0 -20
5 -25 25 -25 21 0 25 5 25 31 0 47 49 76 78 47z m288 -92 c16 -12 19 -28 21
-98 0 -46 -4 -89 -9 -95 -15 -18 -129 -17 -153 1 -16 11 -20 29 -23 89 -4 66
-2 77 17 96 25 25 115 30 147 7z"/>
<path d="M200 825 c0 -31 3 -35 25 -35 22 0 25 4 25 35 0 31 -3 35 -25 35 -22
0 -25 -4 -25 -35z m27 -7 c-3 -8 -6 -5 -6 6 -1 11 2 17 5 13 3 -3 4 -12 1 -19z"/>
<path d="M548 783 c7 -3 16 -2 19 1 4 3 -2 6 -13 5 -11 0 -14 -3 -6 -6z"/>
</g>
</svg>
