<?xml version="1.0" standalone="no"?>
<!DOCTYPE svg PUBLIC "-//W3C//DTD SVG 20010904//EN"
 "http://www.w3.org/TR/2001/REC-SVG-20010904/DTD/svg10.dtd">
<svg version="1.0" xmlns="http://www.w3.org/2000/svg"
 width="82.000000pt" height="63.000000pt" viewBox="0 0 82.000000 63.000000"
 preserveAspectRatio="xMidYMid meet">
<metadata>
Created by potrace 1.16, written by Peter Selinger 2001-2019
</metadata>
<g transform="translate(0.000000,63.000000) scale(0.100000,-0.100000)"
fill="#000000" stroke="none">
<path d="M193 598 c3 -18 40 -93 82 -166 l77 -133 -71 -123 c-69 -121 -87
-176 -56 -176 8 0 12 6 9 14 -3 8 26 70 65 138 39 68 71 134 71 148 0 14 -34
83 -76 155 -42 72 -76 140 -76 153 0 13 -7 22 -16 22 -11 0 -13 -8 -9 -32z"/>
<path d="M443 578 c77 -122 147 -256 147 -282 0 -33 -132 -270 -158 -286 -12
-7 1 -9 49 -10 64 0 66 1 82 33 33 61 52 92 60 95 4 2 7 17 7 33 0 23 -4 29
-21 29 -18 0 -20 4 -14 23 4 12 10 46 12 75 4 47 7 52 28 52 27 0 41 18 111
142 27 49 55 88 62 88 6 0 12 5 12 10 0 6 -7 10 -16 10 -9 0 -18 9 -21 20 -8
28 -21 25 -16 -4 3 -16 -11 -51 -43 -107 -70 -123 -82 -139 -109 -139 -20 0
-34 19 -89 117 -40 72 -64 125 -60 135 4 15 -1 18 -25 18 l-31 0 33 -52z m167
-415 c2 -2 0 -7 -5 -11 -10 -7 -29 -38 -62 -100 -13 -24 -23 -32 -45 -32 -15
0 -28 5 -28 10 0 6 5 10 11 10 5 0 7 5 4 10 -7 12 13 42 24 36 3 -2 7 8 8 22
0 14 9 32 19 39 10 7 14 13 10 13 -4 0 -4 5 -1 10 6 9 52 4 65 -7z"/>
<path d="M545 130 c-3 -5 1 -10 10 -10 9 0 13 5 10 10 -3 6 -8 10 -10 10 -2 0
-7 -4 -10 -10z"/>
<path d="M27 353 c-15 -2 -27 -11 -27 -18 0 -9 6 -12 15 -9 8 3 21 -1 30 -9
17 -18 20 -37 5 -37 -5 0 -10 -9 -10 -20 0 -11 5 -20 10 -20 6 0 10 -9 10 -20
0 -25 -35 -27 -49 -2 -9 15 -10 14 -11 -9 l0 -26 133 1 132 1 3 58 c4 78 -5
87 -84 87 -50 0 -64 3 -64 15 0 15 -29 18 -93 8z m73 -28 c0 -8 8 -15 18 -15
10 0 23 -5 30 -12 9 -9 15 -9 24 0 16 16 53 15 67 -2 6 -7 10 -31 8 -52 -3
-38 -4 -39 -37 -37 -19 2 -47 3 -62 3 -24 0 -28 4 -28 30 0 16 -4 30 -10 30
-5 0 -10 -13 -10 -30 0 -20 -5 -30 -15 -30 -12 0 -15 14 -15 65 0 51 3 65 15
65 8 0 15 -7 15 -15z"/>
<path d="M208 233 c7 -3 16 -2 19 1 4 3 -2 6 -13 5 -11 0 -14 -3 -6 -6z"/>
</g>
</svg>
