<?xml version="1.0" standalone="no"?>
<!DOCTYPE svg PUBLIC "-//W3C//DTD SVG 20010904//EN"
 "http://www.w3.org/TR/2001/REC-SVG-20010904/DTD/svg10.dtd">
<svg version="1.0" xmlns="http://www.w3.org/2000/svg"
 width="192.000000pt" height="192.000000pt" viewBox="0 0 192.000000 192.000000"
 preserveAspectRatio="xMidYMid meet">
<metadata>
Created by potrace 1.16, written by Peter Selinger 2001-2019
</metadata>
<g transform="translate(0.000000,192.000000) scale(0.100000,-0.100000)"
fill="#000000" stroke="none">
<path d="M590 1621 c0 -5 -9 -11 -20 -14 -17 -4 -20 -14 -20 -63 0 -47 7 -72
38 -133 20 -42 45 -85 54 -95 10 -11 22 -34 29 -53 6 -18 15 -33 20 -33 5 0
25 -32 44 -72 19 -39 38 -74 43 -77 13 -9 82 -149 82 -167 0 -20 -69 -164 -87
-183 -8 -7 -28 -42 -45 -77 -17 -35 -34 -64 -37 -64 -4 0 -18 -25 -31 -55 -13
-30 -28 -55 -32 -55 -4 0 -17 -19 -29 -42 -16 -32 -20 -54 -17 -96 3 -31 11
-58 19 -63 18 -11 345 -12 386 0 17 5 41 19 53 31 18 18 29 21 61 16 130 -20
119 -21 119 8 0 19 5 26 20 26 14 0 20 7 20 23 0 27 10 41 33 50 9 3 17 14 17
23 0 9 9 27 20 41 11 14 20 39 20 54 0 22 5 29 20 29 17 0 20 7 20 44 0 41 -2
44 -31 50 -17 3 -44 6 -60 6 -35 0 -36 9 -8 41 44 50 61 107 57 201 l-3 88 47
0 c54 0 89 25 113 83 8 19 18 37 22 39 5 1 25 37 47 78 21 41 42 77 47 80 9 6
59 104 59 116 0 5 13 24 28 42 22 25 35 32 64 32 44 0 58 19 58 77 0 62 -67
98 -107 58 -15 -16 -54 -11 -61 6 -5 13 -542 12 -542 -1 0 -5 -9 -10 -19 -10
-26 0 -51 -37 -51 -75 l-1 -30 -14 32 c-15 36 -67 73 -102 73 -12 0 -25 5 -28
10 -8 12 -315 14 -315 1z m295 -21 c3 -5 16 -10 28 -10 33 0 86 -36 100 -67 6
-16 17 -34 23 -40 7 -7 27 -44 45 -83 19 -38 37 -70 41 -70 5 0 25 -34 45 -76
20 -43 44 -85 54 -95 11 -11 19 -26 19 -34 0 -8 9 -24 20 -35 40 -40 70 -116
70 -179 0 -60 -24 -133 -52 -162 -8 -8 -25 -36 -39 -64 -13 -27 -30 -56 -36
-63 -7 -7 -27 -42 -45 -78 -17 -35 -35 -64 -39 -64 -3 0 -16 -23 -29 -51 -26
-61 -79 -117 -123 -130 -39 -11 -327 -12 -345 -1 -24 16 -26 76 -3 120 12 23
25 42 29 42 4 0 19 25 32 55 13 30 27 55 31 55 3 0 20 29 37 64 17 35 37 70
45 77 27 28 87 167 87 203 0 33 -61 173 -82 187 -5 3 -24 38 -43 77 -19 40
-39 72 -44 72 -5 0 -14 15 -20 33 -7 19 -19 42 -29 53 -9 10 -34 53 -54 95
-44 87 -51 148 -18 156 11 3 20 9 20 14 0 13 267 11 275 -1z m755 1 c0 -5 12
-12 27 -16 15 -3 31 -12 35 -18 16 -25 8 -74 -17 -103 -14 -16 -25 -33 -25
-38 0 -12 -50 -110 -59 -116 -5 -3 -26 -39 -47 -80 -22 -41 -42 -77 -47 -78
-4 -2 -14 -20 -22 -39 -23 -53 -59 -83 -103 -83 -33 0 -40 5 -64 44 -16 24
-28 48 -28 55 0 6 -4 11 -8 11 -4 0 -26 35 -47 78 -22 42 -45 80 -51 84 -6 4
-17 22 -24 40 -7 18 -18 38 -25 43 -16 14 -65 120 -65 142 0 28 28 63 51 63
10 0 19 5 19 10 0 6 90 10 250 10 140 0 250 -4 250 -9z m150 -8 c35 -31 19
-93 -25 -93 -42 0 -60 58 -27 91 22 23 27 23 52 2z m-451 -939 c24 -5 31 -12
31 -30 0 -17 -6 -24 -20 -24 -16 0 -20 -7 -20 -30 0 -19 -9 -40 -25 -56 -14
-13 -22 -31 -19 -39 4 -9 -1 -18 -12 -22 -24 -9 -34 -23 -34 -50 0 -26 -19
-30 -53 -12 -21 12 -21 11 -4 -8 9 -11 17 -28 17 -37 0 -14 -5 -17 -22 -11
-13 4 -40 9 -60 12 -39 5 -52 28 -23 39 8 4 15 17 15 29 0 29 25 55 53 55 16
0 18 3 9 12 -19 19 -15 48 8 48 15 0 20 7 20 28 0 15 4 33 9 41 13 20 44 6 37
-16 -3 -10 -2 -24 3 -32 7 -11 11 -11 23 -1 12 11 10 17 -9 38 -13 14 -23 36
-23 48 0 21 5 24 34 24 18 0 48 -3 65 -6z"/>
<path d="M247 1024 c-4 -4 -7 -22 -7 -41 0 -18 -4 -33 -10 -33 -5 0 -10 11
-10 25 0 24 -3 25 -55 25 -52 0 -55 -1 -55 -24 0 -14 -4 -28 -10 -31 -5 -3
-10 -28 -10 -56 0 -27 5 -49 10 -49 6 0 10 -26 10 -59 0 -36 5 -63 13 -69 13
-11 473 -16 510 -6 15 5 17 19 17 102 0 132 -7 142 -104 142 -39 0 -77 -5 -83
-11 -8 -8 -13 -8 -17 0 -4 6 -25 11 -46 11 -38 0 -39 1 -42 38 l-3 37 -50 3
c-28 2 -54 0 -58 -4z m91 -56 c3 -37 4 -38 41 -38 55 0 62 -14 59 -117 l-3
-88 -30 0 c-30 0 -30 1 -35 64 -7 90 -30 95 -30 7 0 -36 -1 -66 -2 -67 -2 0
-43 -3 -92 -5 -57 -3 -94 0 -102 7 -9 7 -14 33 -14 70 0 33 -4 59 -10 59 -5 0
-10 13 -10 29 0 17 5 33 10 36 6 3 10 17 10 31 0 21 5 24 35 24 31 0 35 -3 35
-25 0 -15 6 -25 14 -25 8 0 21 -3 30 -6 13 -5 16 1 16 33 0 48 6 55 45 51 27
-3 30 -7 33 -40z m276 -60 c16 -23 21 -73 10 -102 -4 -11 -19 -16 -52 -16 -57
0 -47 -13 10 -14 33 -1 43 -5 46 -20 5 -26 -14 -36 -71 -36 -48 0 -85 13 -99
34 -4 6 -8 39 -8 73 0 81 20 103 96 103 43 0 56 -4 68 -22z"/>
<path d="M223 863 c-19 -4 -23 -11 -23 -44 0 -37 2 -39 30 -39 29 0 30 2 30
45 0 25 -3 44 -7 44 -5 -1 -18 -4 -30 -6z m17 -43 c0 -11 -4 -20 -10 -20 -5 0
-10 9 -10 20 0 11 5 20 10 20 6 0 10 -9 10 -20z"/>
<path d="M525 860 c-4 -6 6 -10 22 -10 22 0 25 2 13 10 -19 12 -27 12 -35 0z"/>
</g>
</svg>
