<?xml version="1.0" standalone="no"?>
<!DOCTYPE svg PUBLIC "-//W3C//DTD SVG 20010904//EN"
 "http://www.w3.org/TR/2001/REC-SVG-20010904/DTD/svg10.dtd">
<svg version="1.0" xmlns="http://www.w3.org/2000/svg"
 width="180.000000pt" height="180.000000pt" viewBox="0 0 180.000000 180.000000"
 preserveAspectRatio="xMidYMid meet">
<metadata>
Created by potrace 1.16, written by Peter Selinger 2001-2019
</metadata>
<g transform="translate(0.000000,180.000000) scale(0.100000,-0.100000)"
fill="#000000" stroke="none">
<path d="M457 1602 c-11 -12 -17 -36 -17 -66 0 -42 11 -66 88 -199 49 -84 93
-161 100 -172 6 -11 31 -54 55 -95 82 -141 97 -171 97 -200 0 -28 -16 -58
-203 -382 -83 -143 -97 -174 -97 -212 0 -75 2 -76 237 -76 203 0 207 0 250 26
40 23 49 25 128 18 l85 -7 0 25 c0 17 7 27 20 31 14 3 20 14 20 31 0 14 9 34
20 43 11 10 20 23 20 30 0 7 4 13 10 13 15 0 40 56 40 90 0 24 4 30 21 30 17
0 20 5 17 38 l-3 37 -63 10 -62 10 47 80 c47 78 48 82 48 161 0 54 -5 86 -14
97 -12 16 -8 17 51 17 75 0 74 -1 138 110 24 41 54 92 67 112 12 21 23 40 23
42 0 3 26 49 58 103 32 54 61 106 65 115 4 11 20 18 49 20 32 2 44 8 46 21 3
16 1 17 -16 8 -28 -15 -58 -14 -75 4 -13 12 -15 10 -21 -16 -3 -16 -33 -74
-66 -129 -33 -56 -60 -103 -60 -106 0 -2 -11 -21 -23 -42 -13 -20 -43 -71 -67
-112 -62 -107 -66 -110 -120 -110 -25 0 -54 6 -63 13 -9 6 -40 55 -70 107
-114 200 -141 247 -178 309 -45 76 -49 112 -14 146 l24 25 296 0 296 0 24 -25
c17 -16 25 -19 25 -10 0 30 74 47 98 23 9 -9 12 -7 12 9 0 21 0 21 -385 22
l-385 2 -25 -25 c-14 -14 -25 -35 -25 -47 0 -21 -1 -20 -22 6 -44 56 -83 65
-294 65 -172 0 -193 -2 -207 -18z m418 -21 c52 -23 60 -34 135 -166 67 -117
132 -229 225 -390 53 -91 59 -106 59 -160 1 -54 -4 -68 -40 -130 -106 -178
-113 -193 -93 -188 12 3 19 14 19 29 0 22 4 24 43 23 66 -2 101 -12 105 -32 2
-12 -3 -17 -17 -17 -17 0 -21 -6 -21 -30 0 -39 -26 -90 -46 -90 -8 0 -12 -5
-8 -11 3 -6 -8 -24 -25 -39 -17 -16 -26 -30 -19 -32 7 -3 9 -12 5 -22 -6 -14
-15 -17 -39 -14 -26 4 -28 3 -15 -7 10 -7 17 -20 17 -29 0 -16 -8 -17 -67 -11
-38 4 -71 9 -75 12 -17 10 -6 32 16 35 22 3 23 5 11 21 -12 16 -15 14 -41 -27
-50 -79 -73 -86 -287 -86 -201 0 -217 4 -217 56 0 13 44 100 97 192 53 92 121
210 151 262 82 141 81 144 -45 360 -24 41 -49 84 -55 95 -7 11 -51 88 -100
172 -91 156 -102 191 -71 225 14 16 34 18 187 18 144 0 177 -3 211 -19z"/>
<path d="M1197 511 c-6 -25 10 -38 26 -22 8 8 7 15 -5 27 -14 14 -16 14 -21
-5z"/>
<path d="M1082 441 c-24 -40 -41 -75 -38 -78 3 -3 11 6 17 21 7 14 20 26 30
26 13 0 16 6 12 21 -4 14 0 27 11 35 10 7 16 20 14 30 -2 11 -18 -8 -46 -55z"/>
<path d="M127 983 c-4 -3 -8 -25 -8 -47 -2 -30 -3 -34 -6 -13 -4 26 -7 27 -59
27 -30 0 -54 -4 -54 -10 0 -5 20 -10 45 -10 41 0 45 -2 45 -25 0 -20 5 -25 24
-25 22 0 25 5 28 43 3 42 3 42 46 45 l42 3 0 -40 c0 -41 0 -41 38 -41 21 0 47
-7 59 -15 19 -13 24 -13 50 0 15 8 50 15 76 15 66 0 97 -30 97 -95 l0 -45 -62
0 c-47 0 -59 -3 -50 -12 6 -6 33 -12 59 -12 44 -1 48 -3 48 -26 0 -21 -6 -26
-45 -32 -54 -10 -109 -2 -132 19 -16 15 -18 15 -18 0 0 -13 -10 -17 -45 -17
l-44 0 -3 73 c-2 39 -7 72 -13 72 -5 0 -11 -33 -13 -72 l-3 -73 -104 0 c-89 0
-106 3 -114 18 -9 15 -10 13 -11 -9 l0 -26 246 -5 c136 -2 263 -2 283 1 l36 6
3 103 c3 99 2 103 -23 128 -25 25 -31 26 -118 23 -51 -1 -111 -2 -134 -1 l-43
2 0 40 0 40 -58 0 c-32 0 -62 -3 -65 -7z"/>
<path d="M440 820 c0 -5 5 -10 11 -10 5 0 7 5 4 10 -3 6 -8 10 -11 10 -2 0 -4
-4 -4 -10z"/>
<path d="M90 775 c0 -41 2 -45 25 -45 23 0 25 4 25 45 0 41 -2 45 -25 45 -23
0 -25 -4 -25 -45z m27 -12 c-3 -10 -5 -4 -5 12 0 17 2 24 5 18 2 -7 2 -21 0
-30z"/>
</g>
</svg>
