<?xml version="1.0" standalone="no"?>
<!DOCTYPE svg PUBLIC "-//W3C//DTD SVG 20010904//EN"
 "http://www.w3.org/TR/2001/REC-SVG-20010904/DTD/svg10.dtd">
<svg version="1.0" xmlns="http://www.w3.org/2000/svg"
 width="192.000000pt" height="192.000000pt" viewBox="0 0 192.000000 192.000000"
 preserveAspectRatio="xMidYMid meet">
<metadata>
Created by potrace 1.16, written by Peter Selinger 2001-2019
</metadata>
<g transform="translate(0.000000,192.000000) scale(0.100000,-0.100000)"
fill="#000000" stroke="none">
<path d="M1172 1568 c-6 -7 -13 -30 -17 -50 l-7 -37 -77 -3 -76 -3 0 -70 0
-70 74 -3 73 -3 -5 -37 c-35 -236 -54 -311 -119 -458 -24 -56 -38 -103 -36
-120 3 -29 3 -29 80 -32 l78 -3 29 46 c44 69 92 213 112 333 l12 72 174 0
c195 0 187 5 125 -72 l-29 -37 -42 49 -42 50 -85 0 -84 0 0 -29 c0 -30 92
-181 111 -181 20 0 7 -18 -29 -44 -25 -17 -51 -26 -76 -26 -64 0 -76 -13 -76
-78 0 -32 5 -63 12 -70 7 -7 38 -12 69 -12 60 0 132 26 202 74 l38 26 52 -35
c29 -19 67 -37 85 -41 18 -4 35 -11 38 -15 8 -14 148 -11 162 3 16 16 16 120
0 136 -7 7 -31 12 -55 12 -38 0 -142 44 -143 60 0 3 10 16 23 30 46 52 104
147 120 197 24 73 22 109 -8 138 l-24 25 -246 0 c-238 0 -245 1 -245 20 0 20
7 20 294 20 198 0 297 4 301 11 4 6 5 11 4 12 -2 1 -141 0 -309 -3 l-305 -5
-3 -37 -3 -38 240 0 c132 0 251 -4 265 -10 34 -12 41 -46 23 -108 -20 -67 -30
-84 -93 -169 -30 -40 -54 -79 -54 -87 0 -24 90 -70 150 -76 l55 -5 0 -55 0
-55 -52 -3 c-63 -4 -155 25 -217 67 -25 17 -49 31 -55 31 -5 0 -30 -13 -53
-29 -93 -63 -227 -93 -242 -55 -10 26 -7 79 6 92 7 7 31 12 53 12 31 0 53 8
83 30 47 34 52 58 20 86 -27 24 -98 133 -98 151 0 10 18 13 68 13 l69 0 42
-50 c23 -27 48 -50 55 -50 17 0 96 108 96 131 0 19 -9 19 -192 17 l-192 -3 -8
-45 c-28 -155 -93 -343 -132 -383 -23 -23 -124 -24 -132 -2 -4 9 12 57 34 108
23 50 50 123 62 160 25 82 53 242 54 312 l1 50 -72 3 -73 3 0 54 0 55 79 0 79
0 6 44 c8 49 18 56 77 56 61 0 79 -14 79 -60 l0 -40 295 0 c190 0 295 4 295
10 0 6 -102 10 -285 10 l-285 0 0 33 c0 51 -24 67 -102 67 -40 0 -70 -5 -76
-12z"/>
<path d="M67 1512 c-15 -16 -17 -51 -17 -285 0 -244 -11 -406 -30 -432 -4 -5
-10 -22 -14 -37 -9 -39 11 -35 27 5 27 63 37 190 37 456 0 215 3 271 14 280 9
8 127 10 417 9 l404 -3 3 -397 2 -398 -22 -5 c-13 -3 -66 -5 -118 -3 l-95 3 0
55 0 55 48 3 48 3 -3 57 -3 57 -97 3 -98 3 0 -84 c0 -51 -5 -88 -12 -95 -16
-16 -120 -16 -136 0 -7 7 -12 44 -12 95 l0 84 -102 -3 -103 -3 -6 -65 c-10
-92 -27 -148 -49 -160 -26 -14 -113 -13 -128 2 -17 17 -28 2 -12 -17 19 -23
141 -21 163 3 25 27 37 69 44 148 l6 74 83 0 84 0 0 -85 c0 -100 5 -105 100
-105 95 0 100 5 100 105 l0 85 80 0 80 0 0 -40 c0 -40 0 -40 -39 -40 -52 0
-63 -16 -59 -92 l3 -63 124 -3 c82 -2 128 1 137 9 19 16 21 808 2 827 -9 9
-117 12 -423 12 -386 0 -413 -1 -428 -18z"/>
<path d="M220 1335 l0 -56 93 3 92 3 3 53 3 52 -95 0 -96 0 0 -55z m170 0 l0
-35 -75 0 -75 0 0 35 0 35 75 0 75 0 0 -35z"/>
<path d="M570 1335 l0 -56 98 3 97 3 0 50 0 50 -97 3 -98 3 0 -56z m178 -2 l3
-33 -80 0 -81 0 0 35 0 36 78 -3 77 -3 3 -32z"/>
<path d="M220 1110 l0 -50 95 0 95 0 0 50 0 50 -95 0 -95 0 0 -50z m170 0 l0
-30 -75 0 -75 0 0 30 0 30 75 0 75 0 0 -30z"/>
<path d="M570 1110 l0 -50 100 0 100 0 0 50 0 50 -100 0 -100 0 0 -50z m180 0
l0 -30 -80 0 -80 0 0 30 0 30 80 0 80 0 0 -30z"/>
</g>
</svg>
