<?xml version="1.0" standalone="no"?>
<!DOCTYPE svg PUBLIC "-//W3C//DTD SVG 20010904//EN"
 "http://www.w3.org/TR/2001/REC-SVG-20010904/DTD/svg10.dtd">
<svg version="1.0" xmlns="http://www.w3.org/2000/svg"
 width="96.000000pt" height="96.000000pt" viewBox="0 0 96.000000 96.000000"
 preserveAspectRatio="xMidYMid meet">
<metadata>
Created by potrace 1.16, written by Peter Selinger 2001-2019
</metadata>
<g transform="translate(0.000000,96.000000) scale(0.100000,-0.100000)"
fill="#000000" stroke="none">
<path d="M390 889 c-30 -5 -57 -13 -60 -17 -3 -4 -24 -7 -47 -7 -45 0 -55 -8
-26 -19 15 -6 15 -9 3 -16 -8 -5 -17 -7 -20 -5 -9 6 -105 -96 -124 -130 -14
-27 -15 -28 -13 -6 1 13 -4 26 -10 28 -7 3 -13 0 -13 -7 0 -6 5 -8 11 -4 8 4
9 -1 4 -17 -18 -57 -18 -55 -6 -39 7 9 11 10 11 3 0 -6 -4 -14 -9 -17 -5 -4
-15 -39 -21 -79 -13 -75 -1 -210 20 -231 6 -6 10 -15 10 -20 0 -6 -5 -4 -11 4
-8 11 -9 9 -3 -10 4 -14 9 -31 12 -39 3 -9 1 -12 -6 -7 -7 4 -12 2 -12 -4 0
-7 6 -10 13 -7 6 2 11 15 10 28 -2 22 -1 21 13 -6 9 -16 25 -40 36 -51 10 -12
18 -28 16 -35 -2 -8 3 -13 11 -11 7 2 23 -6 35 -17 11 -11 23 -20 26 -19 8 0
84 -36 90 -43 3 -4 39 -12 80 -19 57 -9 90 -9 140 0 74 13 101 18 113 19 5 1
5 6 2 11 -8 13 11 13 36 0 15 -8 19 -7 19 4 0 10 -6 13 -15 10 -31 -12 -13 12
25 34 22 12 40 28 40 35 0 7 7 4 15 -7 13 -17 14 -16 11 9 -2 17 5 35 18 49
12 12 26 31 33 42 11 18 11 18 22 -6 10 -24 10 -23 8 10 -1 19 -6 38 -12 43
-6 4 -4 11 5 17 20 13 22 271 3 278 -7 2 -13 10 -13 18 0 23 -39 94 -56 101
-8 3 -14 10 -13 17 3 27 -2 35 -18 29 -9 -4 -14 -2 -10 3 3 6 -11 19 -31 29
-55 29 -100 58 -77 51 11 -4 16 -3 11 1 -4 4 -17 9 -29 10 -12 0 -49 6 -82 12
-68 12 -88 12 -165 0z m223 -43 c167 -69 251 -191 251 -366 0 -64 -6 -99 -23
-142 -113 -290 -503 -337 -682 -81 -53 76 -72 147 -67 246 5 96 35 168 99 241
101 114 284 158 422 102z"/>
<path d="M364 792 c-66 -27 -121 -70 -158 -125 -46 -69 -59 -119 -54 -208 4
-90 31 -151 94 -213 65 -65 123 -90 221 -94 71 -4 88 -1 142 23 74 34 150 110
177 180 26 67 26 183 0 250 -26 68 -98 142 -171 176 -50 24 -73 29 -135 28
-46 0 -91 -7 -116 -17z m109 -9 c-7 -2 -21 -2 -30 0 -10 3 -4 5 12 5 17 0 24
-2 18 -5z m54 1 c-3 -3 -12 -4 -19 -1 -8 3 -5 6 6 6 11 1 17 -2 13 -5z m50
-44 c107 -37 176 -134 177 -250 1 -36 -5 -85 -13 -109 l-15 -43 -50 7 c-28 3
-71 17 -95 31 -24 13 -46 22 -50 19 -4 -2 -8 2 -8 10 0 8 4 12 9 8 16 -9 65
46 87 98 24 55 37 157 23 178 -8 11 -16 11 -47 1 -80 -27 -155 -98 -176 -171
l-12 -38 -32 35 c-32 34 -105 73 -137 74 -27 0 -22 13 28 69 88 98 189 124
311 81z m30 -86 c-3 -3 -12 -4 -19 -1 -8 3 -5 6 6 6 11 1 17 -2 13 -5z m-22
-95 c-16 -48 -83 -129 -106 -129 -38 0 43 -90 105 -115 48 -20 129 -31 106
-14 -12 9 -12 10 -1 7 22 -6 25 -28 4 -28 -11 0 -28 -8 -39 -18 -32 -30 -92
-53 -151 -59 l-56 -6 5 144 c4 130 7 149 29 189 29 54 112 122 117 96 2 -9 -4
-39 -13 -67z m-375 16 c0 -8 -4 -17 -10 -20 -6 -4 -10 5 -10 20 0 15 4 24 10
20 6 -3 10 -12 10 -20z m68 -54 c87 -45 122 -111 122 -231 0 -44 -2 -80 -5
-80 -17 0 -85 43 -113 71 -52 51 -75 104 -80 187 -4 69 -4 72 17 72 12 0 38
-9 59 -19z m509 -48 c-3 -10 -5 -4 -5 12 0 17 2 24 5 18 2 -7 2 -21 0 -30z
m-360 -93 l1 -65 -8 51 c-4 28 -12 60 -18 71 -13 24 -5 38 12 20 6 -7 12 -41
13 -77z m210 -56 c-3 -3 -12 -4 -19 -1 -8 3 -5 6 6 6 11 1 17 -2 13 -5z m-202
-134 c8 -13 -5 -13 -25 0 -13 8 -13 10 2 10 9 0 20 -4 23 -10z m92 -16 c-3 -3
-12 -4 -19 -1 -8 3 -5 6 6 6 11 1 17 -2 13 -5z"/>
<path d="M542 721 c2 -7 7 -12 11 -12 12 1 9 15 -3 20 -7 2 -11 -2 -8 -8z"/>
<path d="M385 700 c-3 -5 -1 -10 4 -10 6 0 11 5 11 10 0 6 -2 10 -4 10 -3 0
-8 -4 -11 -10z"/>
<path d="M280 638 c0 -9 -6 -19 -12 -21 -10 -4 -10 -6 0 -6 14 -1 28 26 18 36
-3 4 -6 -1 -6 -9z"/>
<path d="M311 634 c0 -11 3 -14 6 -6 3 7 2 16 -1 19 -3 4 -6 -2 -5 -13z"/>
<path d="M400 626 c0 -4 7 -14 15 -22 8 -9 15 -11 15 -6 0 5 -7 15 -15 22 -8
7 -15 9 -15 6z"/>
<path d="M670 600 c0 -11 2 -20 4 -20 2 0 6 9 9 20 3 11 1 20 -4 20 -5 0 -9
-9 -9 -20z"/>
<path d="M630 441 c0 -7 -4 -9 -10 -6 -6 4 -7 -1 -3 -11 6 -15 7 -15 15 1 6 9
7 19 4 22 -3 4 -6 1 -6 -6z"/>
<path d="M231 444 c0 -11 3 -14 6 -6 3 7 2 16 -1 19 -3 4 -6 -2 -5 -13z"/>
<path d="M323 414 c-13 -14 -18 -24 -11 -22 10 4 45 48 37 48 -2 0 -14 -12
-26 -26z"/>
<path d="M361 364 c0 -11 3 -14 6 -6 3 7 2 16 -1 19 -3 4 -6 -2 -5 -13z"/>
<path d="M320 360 c-1 -3 -4 -15 -5 -28 -1 -15 1 -20 7 -14 6 6 8 18 5 28 -3
11 -6 17 -7 14z"/>
<path d="M832 430 c0 -19 2 -27 5 -17 2 9 2 25 0 35 -3 9 -5 1 -5 -18z"/>
<path d="M694 873 c15 -4 16 -7 5 -14 -11 -7 -10 -9 4 -9 24 0 16 24 -9 27
-18 2 -18 2 0 -4z"/>
<path d="M871 703 c-1 -6 -4 -20 -7 -30 -5 -17 -5 -17 6 0 6 10 9 23 6 30 -3
9 -5 9 -5 0z"/>
<path d="M840 250 c0 -5 5 -10 11 -10 5 0 7 5 4 10 -3 6 -8 10 -11 10 -2 0 -4
-4 -4 -10z"/>
<path d="M246 102 c-3 -5 0 -9 7 -9 7 0 26 -3 42 -6 19 -5 25 -4 15 2 -26 15
-58 22 -64 13z"/>
</g>
</svg>
