<?xml version="1.0" standalone="no"?>
<!DOCTYPE svg PUBLIC "-//W3C//DTD SVG 20010904//EN"
 "http://www.w3.org/TR/2001/REC-SVG-20010904/DTD/svg10.dtd">
<svg version="1.0" xmlns="http://www.w3.org/2000/svg"
 width="100.000000pt" height="100.000000pt" viewBox="0 0 100.000000 100.000000"
 preserveAspectRatio="xMidYMid meet">
<metadata>
Created by potrace 1.16, written by Peter Selinger 2001-2019
</metadata>
<g transform="translate(0.000000,100.000000) scale(0.100000,-0.100000)"
fill="#000000" stroke="none">
<path d="M320 960 c0 -27 -3 -30 -30 -30 -23 0 -30 -4 -30 -20 0 -11 -7 -20
-15 -20 -8 0 -15 -7 -15 -15 0 -10 -10 -15 -30 -15 -20 0 -30 -5 -30 -15 0 -8
-7 -15 -15 -15 -10 0 -15 -10 -15 -30 0 -20 -5 -30 -15 -30 -8 0 -15 -7 -15
-15 0 -8 -9 -15 -20 -15 -16 0 -20 -7 -20 -30 0 -20 -5 -30 -15 -30 -8 0 -15
-7 -15 -15 0 -8 -7 -15 -15 -15 -13 0 -15 -25 -15 -165 l0 -165 30 0 c27 0 30
-3 30 -30 0 -23 4 -30 20 -30 16 0 20 -7 20 -30 0 -20 5 -30 15 -30 8 0 15 -7
15 -15 0 -8 7 -15 15 -15 8 0 15 -7 15 -15 0 -8 7 -15 15 -15 8 0 15 -7 15
-15 0 -10 10 -15 30 -15 23 0 30 -4 30 -20 0 -16 7 -20 30 -20 27 0 30 -3 30
-30 l0 -30 180 0 180 0 0 30 c0 27 3 30 30 30 23 0 30 4 30 20 0 16 7 20 30
20 20 0 30 5 30 15 0 8 7 15 15 15 8 0 15 7 15 15 0 8 7 15 15 15 8 0 15 7 15
15 0 8 7 15 15 15 10 0 15 10 15 30 0 23 4 30 20 30 16 0 20 7 20 30 0 27 3
30 30 30 l30 0 0 180 0 180 -30 0 c-27 0 -30 3 -30 30 0 23 -4 30 -20 30 -16
0 -20 7 -20 30 0 20 -5 30 -15 30 -8 0 -15 7 -15 15 0 8 -7 15 -15 15 -8 0
-15 7 -15 15 0 8 -7 15 -15 15 -8 0 -15 7 -15 15 0 10 -10 15 -30 15 -23 0
-30 4 -30 20 0 16 -7 20 -30 20 -27 0 -30 3 -30 30 l0 30 -180 0 -180 0 0 -30z
m340 -20 c0 -27 3 -30 30 -30 23 0 30 -4 30 -20 0 -16 7 -20 30 -20 20 0 30
-5 30 -15 0 -8 7 -15 15 -15 8 0 15 -7 15 -15 0 -8 7 -15 15 -15 8 0 15 -7 15
-15 0 -8 7 -15 15 -15 10 0 15 -10 15 -30 0 -23 4 -30 20 -30 16 0 20 -7 20
-30 0 -27 3 -30 30 -30 l30 0 0 -160 0 -160 -30 0 c-27 0 -30 -3 -30 -30 0
-23 -4 -30 -20 -30 -16 0 -20 -7 -20 -30 0 -20 -5 -30 -15 -30 -8 0 -15 -7
-15 -15 0 -8 -7 -15 -15 -15 -8 0 -15 -7 -15 -15 0 -8 -7 -15 -15 -15 -8 0
-15 -7 -15 -15 0 -10 -10 -15 -30 -15 -23 0 -30 -4 -30 -20 0 -16 -7 -20 -30
-20 -27 0 -30 -3 -30 -30 l0 -30 -160 0 -160 0 0 30 c0 27 -3 30 -30 30 -23 0
-30 4 -30 20 0 16 -7 20 -30 20 -20 0 -30 5 -30 15 0 8 -7 15 -15 15 -8 0 -15
7 -15 15 0 8 -7 15 -15 15 -8 0 -15 7 -15 15 0 8 -7 15 -15 15 -10 0 -15 10
-15 30 0 23 -4 30 -20 30 -16 0 -20 7 -20 30 0 27 -3 30 -30 30 l-30 0 0 145
c0 122 2 145 15 145 8 0 15 7 15 15 0 8 7 15 15 15 10 0 15 10 15 30 0 23 4
30 20 30 11 0 20 7 20 15 0 8 7 15 15 15 10 0 15 10 15 30 0 20 5 30 15 30 8
0 15 7 15 15 0 10 10 15 30 15 20 0 30 5 30 15 0 8 7 15 15 15 8 0 15 9 15 20
0 16 7 20 30 20 27 0 30 3 30 30 l0 30 160 0 160 0 0 -30z"/>
<path d="M367 943 c-4 -3 -7 -12 -7 -20 0 -10 28 -13 130 -13 97 0 130 -3 131
-12 0 -7 5 -3 12 10 8 19 8 25 -3 32 -9 6 -17 5 -21 -2 -9 -15 -204 -15 -222
0 -8 7 -17 9 -20 5z"/>
<path d="M453 943 c26 -2 68 -2 95 0 26 2 4 3 -48 3 -52 0 -74 -1 -47 -3z"/>
<path d="M300 880 c0 -5 11 -10 25 -10 14 0 25 5 25 10 0 6 -11 10 -25 10 -14
0 -25 -4 -25 -10z"/>
<path d="M640 880 c0 -5 14 -10 30 -10 17 0 30 5 30 10 0 6 -13 10 -30 10 -16
0 -30 -4 -30 -10z"/>
<path d="M370 855 c0 -10 -10 -15 -30 -15 -20 0 -30 -5 -30 -15 0 -8 -7 -15
-15 -15 -8 0 -15 -7 -15 -15 0 -10 -10 -15 -30 -15 -27 0 -30 -3 -30 -30 0
-20 -5 -30 -15 -30 -8 0 -15 -7 -15 -15 0 -8 -7 -15 -15 -15 -11 0 -15 -12
-15 -50 0 -38 -4 -50 -15 -50 -12 0 -15 -18 -15 -105 0 -87 3 -105 15 -105 10
0 15 -11 15 -35 0 -24 5 -35 15 -35 10 0 15 -10 15 -30 0 -20 5 -30 15 -30 8
0 15 -7 15 -15 0 -8 7 -15 15 -15 8 0 15 -7 15 -15 0 -10 10 -15 30 -15 20 0
30 -5 30 -15 0 -10 10 -15 30 -15 20 0 30 -5 30 -15 0 -13 21 -15 125 -15 104
0 125 2 125 15 0 10 11 15 35 15 24 0 35 5 35 15 0 10 10 15 30 15 20 0 30 5
30 15 0 8 7 15 15 15 8 0 15 7 15 15 0 8 7 15 15 15 10 0 15 10 15 30 0 20 5
30 15 30 10 0 15 11 15 35 0 24 5 35 15 35 13 0 15 21 15 125 0 104 -2 125
-15 125 -10 0 -15 10 -15 30 0 20 -5 30 -15 30 -10 0 -15 10 -15 30 0 20 -5
30 -15 30 -8 0 -15 7 -15 15 0 8 -7 15 -15 15 -8 0 -15 7 -15 15 0 10 -10 15
-30 15 -20 0 -30 5 -30 15 0 10 -11 15 -35 15 -24 0 -35 5 -35 15 0 13 -21 15
-125 15 -104 0 -125 -2 -125 -15z m230 -15 c0 -6 -42 -10 -105 -10 -63 0 -105
4 -105 10 0 6 42 10 105 10 63 0 105 -4 105 -10z m-210 -30 c0 -5 -13 -10 -30
-10 -16 0 -30 5 -30 10 0 6 14 10 30 10 17 0 30 -4 30 -10z m280 0 c0 -5 -7
-10 -15 -10 -8 0 -15 5 -15 10 0 6 7 10 15 10 8 0 15 -4 15 -10z m-50 -15 c0
-8 9 -15 20 -15 11 0 20 -7 20 -15 0 -8 -9 -15 -20 -15 -11 0 -20 -7 -20 -15
0 -10 -10 -15 -30 -15 -20 0 -30 -5 -30 -15 0 -8 -7 -15 -15 -15 -8 0 -15 -7
-15 -15 0 -8 -7 -15 -15 -15 -8 0 -15 -7 -15 -15 0 -8 -7 -15 -15 -15 -8 0
-15 -9 -15 -20 0 -11 -7 -20 -15 -20 -10 0 -15 -10 -15 -30 0 -28 -3 -30 -35
-30 -24 0 -35 5 -35 15 0 8 -7 15 -15 15 -8 0 -15 7 -15 15 0 10 -10 15 -30
15 -23 0 -30 4 -30 20 0 11 -7 20 -15 20 -11 0 -15 12 -15 45 0 33 4 45 15 45
8 0 15 7 15 15 0 10 10 15 30 15 20 0 30 5 30 15 0 10 11 15 35 15 24 0 35 5
35 15 0 12 18 15 105 15 87 0 105 -3 105 -15z m-300 -15 c0 -5 -4 -10 -10 -10
-5 0 -10 5 -10 10 0 6 5 10 10 10 6 0 10 -4 10 -10z m410 -5 c0 -8 7 -15 15
-15 8 0 15 -4 15 -10 0 -5 -18 -10 -40 -10 -36 0 -40 3 -40 25 0 20 5 25 25
25 16 0 25 -6 25 -15z m-470 -25 c0 -5 -4 -10 -10 -10 -5 0 -10 5 -10 10 0 6
5 10 10 10 6 0 10 -4 10 -10z m410 -110 c0 -73 -3 -90 -15 -90 -12 0 -15 14
-15 65 l0 65 -30 0 c-16 0 -30 5 -30 10 0 6 14 10 30 10 20 0 30 5 30 15 0 8
7 15 15 15 12 0 15 -17 15 -90z m120 80 c0 -5 -4 -10 -10 -10 -5 0 -10 5 -10
10 0 6 5 10 10 10 6 0 10 -4 10 -10z m-40 -15 c0 -8 7 -15 15 -15 10 0 15 -10
15 -30 0 -20 5 -30 15 -30 13 0 15 -21 15 -125 0 -104 -2 -125 -15 -125 -8 0
-15 -9 -15 -20 0 -18 -7 -20 -60 -20 -53 0 -60 2 -60 20 0 16 -7 20 -35 20
-32 0 -35 2 -35 30 0 20 5 30 15 30 8 0 15 7 15 15 0 8 9 15 20 15 16 0 20 7
20 30 0 20 5 30 15 30 12 0 15 17 15 95 l0 95 30 0 c20 0 30 -5 30 -15z m-520
-50 c0 -33 4 -45 15 -45 8 0 15 -7 15 -15 0 -10 -10 -15 -30 -15 -20 0 -30 -5
-30 -15 0 -8 -7 -15 -15 -15 -12 0 -15 -15 -15 -75 0 -43 -4 -75 -10 -75 -6 0
-10 35 -10 85 0 69 3 85 15 85 11 0 15 12 15 50 0 38 4 50 15 50 8 0 15 7 15
15 0 8 5 15 10 15 6 0 10 -20 10 -45z m590 5 c0 -5 -4 -10 -10 -10 -5 0 -10 5
-10 10 0 6 5 10 10 10 6 0 10 -4 10 -10z m-200 -50 c0 -38 -4 -50 -15 -50 -10
0 -15 -10 -15 -30 0 -20 -5 -30 -15 -30 -8 0 -15 -7 -15 -15 0 -11 -12 -15
-45 -15 -33 0 -45 4 -45 15 0 8 7 15 15 15 10 0 15 10 15 30 0 20 5 30 15 30
10 0 15 11 15 35 0 24 5 35 15 35 8 0 15 7 15 15 0 10 10 15 30 15 29 0 30 -1
30 -50z m-110 -15 c0 -8 -4 -15 -10 -15 -5 0 -10 7 -10 15 0 8 5 15 10 15 6 0
10 -7 10 -15z m340 -90 c0 -63 -4 -105 -10 -105 -6 0 -10 42 -10 105 0 63 4
105 10 105 6 0 10 -42 10 -105z m-530 55 c0 -5 -11 -10 -25 -10 -14 0 -25 5
-25 10 0 6 11 10 25 10 14 0 25 -4 25 -10z m160 -15 c0 -14 -4 -25 -10 -25 -5
0 -10 11 -10 25 0 14 5 25 10 25 6 0 10 -11 10 -25z m-230 0 c0 -10 10 -15 30
-15 20 0 30 -5 30 -15 0 -8 7 -15 15 -15 8 0 15 -7 15 -15 0 -8 7 -15 15 -15
8 0 15 -7 15 -15 0 -8 9 -15 20 -15 19 0 20 -7 20 -110 l0 -110 -50 0 c-38 0
-50 4 -50 15 0 8 -7 15 -15 15 -8 0 -15 7 -15 15 0 8 -7 15 -15 15 -10 0 -15
10 -15 30 0 20 -5 30 -15 30 -10 0 -15 11 -15 35 0 24 -5 35 -15 35 -12 0 -15
13 -15 60 0 47 3 60 15 60 8 0 15 7 15 15 0 8 7 15 15 15 8 0 15 -7 15 -15z
m100 -15 c0 -5 -4 -10 -10 -10 -5 0 -10 5 -10 10 0 6 5 10 10 10 6 0 10 -4 10
-10z m290 -15 c0 -16 -6 -25 -15 -25 -9 0 -15 9 -15 25 0 16 6 25 15 25 9 0
15 -9 15 -25z m-190 -35 l0 -30 60 0 c57 0 60 -1 60 -25 0 -24 -3 -25 -60 -25
l-60 0 0 -100 c0 -82 3 -100 15 -100 8 0 15 -7 15 -15 0 -12 13 -15 60 -15 33
0 60 -4 60 -10 0 -6 -42 -10 -105 -10 -87 0 -105 3 -105 15 0 10 -10 15 -30
15 -16 0 -30 5 -30 10 0 6 23 10 50 10 l50 0 0 130 c0 123 -1 130 -20 130 -11
0 -20 7 -20 15 0 8 -7 15 -15 15 -8 0 -15 5 -15 10 0 6 20 10 45 10 43 0 45
-1 45 -30z m150 -10 c0 -5 -4 -10 -10 -10 -5 0 -10 5 -10 10 0 6 5 10 10 10 6
0 10 -4 10 -10z m-400 -110 c0 -16 -4 -30 -10 -30 -5 0 -10 14 -10 30 0 17 5
30 10 30 6 0 10 -13 10 -30z m360 0 c0 -11 7 -20 15 -20 8 0 15 -7 15 -15 0
-10 11 -15 35 -15 24 0 35 -5 35 -15 0 -8 7 -15 15 -15 10 0 15 -10 15 -30 0
-28 -3 -30 -35 -30 -24 0 -35 -5 -35 -15 0 -12 -13 -15 -60 -15 -47 0 -60 3
-60 15 0 8 -7 15 -15 15 -12 0 -15 16 -15 80 l0 80 45 0 c38 0 45 -3 45 -20z
m80 -15 c0 -8 -7 -15 -15 -15 -8 0 -15 7 -15 15 0 8 7 15 15 15 8 0 15 -7 15
-15z m180 0 c0 -8 -4 -15 -10 -15 -5 0 -10 7 -10 15 0 8 5 15 10 15 6 0 10 -7
10 -15z m-590 -50 c0 -14 -4 -25 -10 -25 -5 0 -10 11 -10 25 0 14 5 25 10 25
6 0 10 -11 10 -25z m560 0 c0 -16 -6 -25 -15 -25 -8 0 -15 -7 -15 -15 0 -8 -7
-15 -15 -15 -8 0 -15 -7 -15 -15 0 -8 -4 -15 -10 -15 -5 0 -10 20 -10 45 0 33
-4 45 -15 45 -8 0 -15 5 -15 10 0 6 25 10 55 10 52 0 55 -1 55 -25z m-530 -45
c0 -5 -4 -10 -10 -10 -5 0 -10 5 -10 10 0 6 5 10 10 10 6 0 10 -4 10 -10z m30
-30 c0 -5 -4 -10 -10 -10 -5 0 -10 5 -10 10 0 6 5 10 10 10 6 0 10 -4 10 -10z
m380 -30 c0 -5 -7 -10 -15 -10 -8 0 -15 5 -15 10 0 6 7 10 15 10 8 0 15 -4 15
-10z"/>
<path d="M430 770 c0 -5 16 -7 35 -5 20 3 35 0 35 -5 0 -6 22 -10 50 -10 40 0
48 3 44 15 -5 12 -24 15 -85 15 -43 0 -79 -4 -79 -10z"/>
<path d="M361 734 c0 -11 3 -14 6 -6 3 7 2 16 -1 19 -3 4 -6 -2 -5 -13z"/>
<path d="M492 733 c-6 -2 -9 -9 -6 -14 3 -6 -5 -7 -20 -3 -20 5 -26 2 -26 -10
0 -9 5 -16 11 -16 5 0 7 -5 4 -10 -4 -6 -13 -7 -23 -1 -15 8 -17 4 -14 -30 5
-47 22 -63 22 -19 0 24 4 30 18 28 12 -2 16 3 14 15 -2 13 2 17 15 15 12 -2
17 2 15 15 -2 12 4 17 18 17 12 0 18 5 15 10 -7 11 -22 12 -43 3z"/>
<path d="M307 724 c-11 -11 -8 -24 5 -21 6 1 15 -9 19 -23 7 -22 8 -21 6 9 -2
33 -16 49 -30 35z"/>
<path d="M276 693 c-13 -14 -5 -33 14 -33 11 0 20 6 20 14 0 15 -24 28 -34 19z"/>
<path d="M378 653 c6 -2 18 -2 25 0 6 3 1 5 -13 5 -14 0 -19 -2 -12 -5z"/>
<path d="M300 640 c0 -5 9 -10 20 -10 11 0 20 -5 20 -12 0 -6 2 -9 5 -6 3 3 3
13 -1 22 -7 17 -44 23 -44 6z"/>
<path d="M367 610 c-4 -16 0 -20 19 -20 17 0 24 6 24 20 0 13 -7 20 -19 20
-10 0 -21 -9 -24 -20z"/>
<path d="M385 570 c-3 -5 3 -10 15 -10 12 0 18 5 15 10 -3 6 -10 10 -15 10 -5
0 -12 -4 -15 -10z"/>
<path d="M720 595 c0 -79 -3 -96 -14 -92 -9 4 -16 -3 -19 -19 -3 -16 0 -24 9
-24 8 0 14 5 14 11 0 6 7 17 15 25 10 11 15 37 15 85 0 44 4 68 10 64 18 -11
10 11 -10 30 -20 18 -20 17 -20 -80z"/>
<path d="M750 580 c0 -28 3 -50 8 -50 4 0 8 -14 9 -30 1 -17 -3 -30 -9 -30 -7
0 -6 -5 2 -15 9 -10 9 -15 1 -15 -6 0 -11 -9 -11 -21 0 -15 -5 -19 -15 -15 -8
3 -15 1 -15 -3 0 -5 -9 -7 -20 -4 -11 3 -20 0 -20 -6 0 -15 73 -14 88 1 8 8
12 49 12 119 0 86 -3 108 -15 113 -12 4 -15 -4 -15 -44z"/>
<path d="M643 437 c-36 -16 -28 -34 12 -29 20 2 35 10 35 17 0 18 -21 24 -47
12z"/>
<path d="M561 608 c-5 -13 -6 -29 -4 -35 3 -7 -2 -16 -12 -19 -9 -4 -14 -12
-11 -20 3 -7 0 -14 -6 -16 -6 -2 -9 -10 -6 -18 3 -10 10 -7 26 10 12 13 19 28
15 33 -3 6 1 15 9 21 21 15 29 66 11 66 -7 0 -17 -10 -22 -22z"/>
<path d="M220 470 c0 -37 8 -49 23 -33 4 3 2 12 -4 20 -9 9 -8 13 0 13 6 0 11
9 11 20 0 11 -7 20 -15 20 -11 0 -15 -11 -15 -40z"/>
<path d="M266 502 c-3 -5 0 -21 7 -36 16 -35 45 -35 35 2 -1 4 -9 6 -17 4 -9
-2 -12 2 -8 12 7 17 -8 32 -17 18z"/>
<path d="M321 441 c-8 -5 -11 -16 -6 -30 10 -31 25 -26 25 9 0 33 0 33 -19 21z"/>
<path d="M356 408 c-3 -13 -7 -48 -9 -78 -2 -30 -5 -61 -8 -69 -2 -8 4 -17 14
-19 15 -3 17 6 17 92 0 94 -5 118 -14 74z"/>
<path d="M241 403 c-2 -21 11 -43 25 -43 8 0 14 5 14 10 0 6 -6 10 -14 10 -8
0 -17 8 -19 18 -3 9 -5 12 -6 5z"/>
<path d="M281 331 c-7 -5 -10 -14 -6 -20 5 -9 10 -9 21 0 26 22 14 38 -15 20z"/>
<path d="M304 299 c-3 -6 -1 -16 5 -22 9 -9 14 -8 21 3 5 8 10 18 10 23 0 11
-28 8 -36 -4z"/>
<path d="M500 290 c0 -27 5 -50 10 -50 6 0 10 16 10 36 0 23 6 42 18 50 15 12
14 13 -10 14 -27 0 -28 -2 -28 -50z"/>
<path d="M543 313 c-8 -3 -13 -23 -13 -49 0 -42 1 -44 31 -44 17 0 38 8 47 17
16 15 15 16 -18 11 l-35 -6 3 39 c2 21 3 39 1 38 -2 0 -10 -3 -16 -6z"/>
<path d="M570 272 c0 -12 68 -13 75 -2 4 6 -11 10 -34 10 -23 0 -41 -4 -41 -8z"/>
<path d="M645 250 c-3 -5 -1 -10 4 -10 6 0 11 5 11 10 0 6 -2 10 -4 10 -3 0
-8 -4 -11 -10z"/>
<path d="M270 839 c0 -5 5 -7 10 -4 6 3 10 8 10 11 0 2 -4 4 -10 4 -5 0 -10
-5 -10 -11z"/>
<path d="M715 840 c4 -6 11 -8 16 -5 14 9 11 15 -7 15 -8 0 -12 -5 -9 -10z"/>
<path d="M751 838 c0 -10 8 -22 19 -28 14 -7 20 -7 20 0 0 5 -6 10 -14 10 -8
0 -17 8 -19 18 -4 16 -5 16 -6 0z"/>
<path d="M228 823 c-10 -3 -18 -11 -18 -19 0 -8 -6 -14 -14 -14 -17 0 -27 -33
-15 -51 6 -10 9 -8 9 9 0 25 29 58 57 64 10 2 14 6 8 9 -5 3 -18 4 -27 2z"/>
<path d="M810 770 c6 -11 15 -20 20 -20 5 0 11 -12 13 -27 l4 -28 2 28 c0 16
-5 30 -14 33 -8 4 -15 12 -15 20 0 8 -5 14 -10 14 -7 0 -7 -6 0 -20z"/>
<path d="M110 670 c0 -19 -5 -30 -14 -30 -20 0 -26 -32 -26 -138 0 -51 -4 -91
-9 -88 -9 6 -6 -42 4 -52 16 -16 25 33 25 146 0 74 4 122 10 122 6 0 10 -4 10
-10 0 -5 5 -10 10 -10 6 0 10 20 10 45 0 25 -4 45 -10 45 -5 0 -10 -13 -10
-30z"/>
<path d="M870 669 c0 -17 4 -28 10 -24 6 3 10 17 10 31 0 13 -4 24 -10 24 -5
0 -10 -14 -10 -31z"/>
<path d="M898 634 c9 -4 12 -40 12 -129 0 -115 -1 -124 -20 -130 -15 -5 -20
-15 -20 -41 0 -19 5 -34 11 -34 7 0 9 10 6 25 -4 26 16 47 39 38 12 -4 28 26
19 35 -3 3 -5 0 -5 -6 0 -7 -4 -12 -8 -12 -7 0 -9 153 -3 230 1 21 3 22 12 10
9 -13 10 -13 6 0 -2 8 -17 16 -33 17 -16 1 -23 0 -16 -3z"/>
<path d="M944 500 c0 -52 1 -74 3 -47 2 26 2 68 0 95 -2 26 -3 4 -3 -48z"/>
<path d="M53 500 c0 -36 2 -50 4 -32 2 17 2 47 0 65 -2 17 -4 3 -4 -33z"/>
<path d="M108 339 c2 -22 9 -39 16 -39 16 0 8 67 -8 73 -8 3 -10 -8 -8 -34z"/>
<path d="M151 280 c-1 -18 11 -37 38 -63 22 -20 42 -37 46 -37 4 0 -11 18 -33
39 -22 22 -42 50 -45 63 -4 22 -4 22 -6 -2z"/>
<path d="M840 290 c-7 -18 -5 -49 3 -41 5 5 7 17 4 27 -3 11 -6 17 -7 14z"/>
<path d="M775 190 c-3 -5 -1 -10 4 -10 6 0 11 5 11 10 0 6 -2 10 -4 10 -3 0
-8 -4 -11 -10z"/>
<path d="M248 158 c6 -6 18 -8 28 -6 14 3 12 5 -9 10 -19 3 -25 2 -19 -4z"/>
<path d="M730 160 c-23 -7 -23 -8 -3 -9 12 -1 25 4 28 9 3 6 5 10 3 9 -2 -1
-14 -5 -28 -9z"/>
<path d="M300 126 c0 -6 11 -13 25 -14 14 -1 25 2 25 7 0 5 -11 11 -25 13 -15
3 -25 1 -25 -6z"/>
<path d="M630 110 c-13 -18 -26 -20 -142 -20 -70 0 -128 -3 -128 -7 0 -5 58
-8 130 -7 71 0 130 -3 130 -8 0 -4 -5 -8 -12 -8 -6 0 -9 -2 -6 -5 9 -9 39 7
35 19 -9 23 12 43 38 39 15 -3 25 -1 25 6 0 19 -55 12 -70 -9z"/>
<path d="M453 53 c26 -2 68 -2 95 0 26 2 4 3 -48 3 -52 0 -74 -1 -47 -3z"/>
</g>
</svg>
