<?xml version="1.0" standalone="no"?>
<!DOCTYPE svg PUBLIC "-//W3C//DTD SVG 20010904//EN"
 "http://www.w3.org/TR/2001/REC-SVG-20010904/DTD/svg10.dtd">
<svg version="1.0" xmlns="http://www.w3.org/2000/svg"
 width="100.000000pt" height="100.000000pt" viewBox="0 0 100.000000 100.000000"
 preserveAspectRatio="xMidYMid meet">
<metadata>
Created by potrace 1.16, written by Peter Selinger 2001-2019
</metadata>
<g transform="translate(0.000000,100.000000) scale(0.100000,-0.100000)"
fill="#000000" stroke="none">
<path d="M291 841 c-11 -7 -9 -10 10 -14 17 -3 13 -5 -13 -6 -27 -1 -38 -6
-38 -16 0 -8 -9 -15 -20 -15 -13 0 -20 -7 -20 -20 0 -11 -7 -20 -15 -20 -10 0
-15 -11 -16 -37 -1 -33 -2 -34 -8 -13 -14 51 -21 -10 -21 -185 0 -175 8 -241
21 -180 6 27 7 26 8 -12 1 -31 5 -43 16 -43 8 0 15 -7 15 -15 0 -8 9 -15 20
-15 13 0 20 -7 20 -20 0 -16 7 -20 38 -21 32 -1 33 -2 12 -8 -51 -14 10 -21
185 -21 175 0 241 8 180 21 -27 6 -26 7 13 8 35 1 42 4 42 21 0 11 7 20 15 20
8 0 15 7 15 15 0 8 9 15 20 15 17 0 20 7 21 43 1 38 2 39 8 12 13 -61 21 5 21
180 0 175 -7 236 -21 185 -6 -21 -7 -20 -8 13 -1 30 -5 37 -21 37 -13 0 -20 7
-20 20 0 11 -7 20 -15 20 -8 0 -15 7 -15 15 0 11 -12 15 -42 16 -39 1 -40 2
-13 8 25 5 27 8 12 14 -27 10 -369 8 -386 -2z m309 -26 c-47 -18 -174 -18
-230 -1 -43 14 -38 15 110 15 141 -1 152 -2 120 -14z m-310 -19 c0 -3 -4 -8
-10 -11 -5 -3 -10 -1 -10 4 0 6 5 11 10 11 6 0 10 -2 10 -4z m190 -8 c30 -1
85 3 123 7 58 7 67 6 67 -9 0 -9 7 -16 15 -16 8 0 15 -9 15 -20 0 -11 7 -20
15 -20 8 0 15 -7 15 -15 0 -8 9 -15 20 -15 17 0 20 -7 20 -50 0 -27 -4 -50 -9
-50 -5 0 -9 -38 -9 -85 0 -47 4 -85 9 -85 5 0 9 -22 9 -50 0 -43 -3 -50 -20
-50 -11 0 -20 -7 -20 -15 0 -8 -7 -15 -15 -15 -8 0 -15 -7 -15 -15 0 -8 -7
-15 -15 -15 -8 0 -15 -9 -15 -20 0 -17 -7 -20 -50 -20 -27 0 -50 4 -50 9 0 5
-38 9 -85 9 -47 0 -85 -4 -85 -9 0 -5 -22 -9 -50 -9 -43 0 -50 3 -50 20 0 11
-7 20 -15 20 -8 0 -15 7 -15 15 0 8 -9 15 -20 15 -11 0 -20 7 -20 15 0 8 -7
15 -16 15 -15 0 -16 9 -9 68 9 82 9 157 0 240 -6 53 -5 62 9 62 9 0 16 7 16
15 0 8 9 15 20 15 13 0 20 7 20 20 0 11 7 20 15 20 8 0 15 7 15 16 0 14 9 15
63 9 34 -4 87 -7 117 -7z m220 2 c0 -5 -2 -10 -4 -10 -3 0 -8 5 -11 10 -3 6
-1 10 4 10 6 0 11 -4 11 -10z m-450 -30 c0 -5 -4 -10 -10 -10 -5 0 -10 5 -10
10 0 6 5 10 10 10 6 0 10 -4 10 -10z m-30 -34 c0 -3 -4 -8 -10 -11 -5 -3 -10
-1 -10 4 0 6 5 11 10 11 6 0 10 -2 10 -4z m550 -6 c0 -5 -2 -10 -4 -10 -3 0
-8 5 -11 10 -3 6 -1 10 4 10 6 0 11 -4 11 -10z m-571 -210 c0 -41 -7 -91 -14
-110 -12 -32 -13 -21 -14 120 0 148 1 153 15 110 7 -25 13 -79 13 -120z m600
8 c0 -140 -2 -150 -14 -118 -17 44 -19 166 -3 225 7 25 13 45 15 45 2 0 3 -69
2 -152z m-584 -208 c3 -5 1 -10 -4 -10 -6 0 -11 5 -11 10 0 6 2 10 4 10 3 0 8
-4 11 -10z m555 0 c0 -5 -5 -10 -11 -10 -5 0 -7 5 -4 10 3 6 8 10 11 10 2 0 4
-4 4 -10z m-485 -70 c3 -5 1 -10 -4 -10 -6 0 -11 5 -11 10 0 6 2 10 4 10 3 0
8 -4 11 -10z m415 0 c0 -5 -5 -10 -11 -10 -5 0 -7 5 -4 10 3 6 8 10 11 10 2 0
4 -4 4 -10z m-100 -25 c32 -12 21 -13 -120 -13 -142 0 -152 1 -115 13 52 17
191 17 235 0z"/>
<path d="M320 772 c16 -6 12 -42 -5 -42 -8 0 -15 -7 -15 -15 0 -8 -7 -15 -15
-15 -8 0 -15 -7 -15 -15 0 -17 -36 -21 -42 -5 -1 5 -3 -70 -3 -167 0 -97 1
-169 3 -160 5 25 42 22 42 -3 0 -11 7 -20 15 -20 8 0 15 -7 15 -15 0 -8 7 -15
15 -15 18 0 20 -27 3 -33 -7 -2 -9 -8 -5 -13 4 -5 12 -3 16 4 11 18 291 18
302 0 7 -10 11 -10 21 0 9 9 9 12 -5 12 -9 0 -17 7 -17 15 0 8 9 15 20 15 11
0 20 7 20 15 0 8 7 15 15 15 10 0 15 11 15 35 l0 35 -50 0 c-56 0 -68 16 -17
23 17 2 2 5 -35 5 -44 1 -68 -2 -70 -10 -3 -9 -6 -9 -12 0 -4 7 -2 12 3 12 6
0 11 9 11 20 0 11 7 20 16 20 8 0 13 -4 9 -9 -3 -5 -1 -12 5 -16 6 -4 10 6 10
24 0 21 5 31 15 31 13 0 15 11 13 57 -2 36 -8 58 -17 61 -10 3 -12 -7 -10 -45
4 -47 3 -49 -18 -45 -16 3 -23 0 -23 -12 0 -9 -7 -16 -15 -16 -11 0 -15 -12
-15 -51 l0 -52 44 5 c39 5 43 4 30 -9 -8 -8 -21 -12 -29 -9 -8 3 -15 1 -15 -4
0 -6 23 -10 50 -10 43 0 50 -3 50 -20 0 -16 -7 -20 -30 -20 -16 0 -30 -5 -30
-11 0 -5 5 -7 10 -4 6 3 17 0 25 -9 9 -9 11 -17 5 -21 -5 -3 -10 -1 -10 4 0 7
-26 11 -65 11 l-65 0 0 135 c0 118 -2 135 -16 135 -14 0 -14 3 -4 15 10 12 10
15 -4 15 -12 0 -16 -9 -16 -35 0 -24 -5 -35 -15 -35 -8 0 -15 9 -15 20 0 16
-7 20 -35 20 -24 0 -35 -5 -35 -15 0 -8 -6 -12 -14 -9 -8 3 -17 1 -21 -5 -4
-7 8 -11 34 -11 30 0 41 -4 41 -15 0 -8 7 -15 15 -15 12 0 15 -16 15 -85 l0
-85 -35 0 c-28 0 -35 4 -35 20 0 11 -7 20 -15 20 -10 0 -15 10 -15 30 0 17 -5
30 -11 30 -5 0 -7 -5 -4 -10 10 -17 -24 -45 -38 -31 -8 8 -7 11 6 11 15 0 17
12 17 85 l0 85 30 0 c17 0 30 5 30 11 0 6 9 8 20 4 11 -4 20 -2 20 4 0 6 -21
11 -50 11 -38 0 -50 4 -50 15 0 8 -7 15 -16 15 -14 0 -14 2 -3 16 10 13 14 13
18 3 2 -8 10 -20 18 -27 11 -11 13 -8 13 17 0 21 5 31 15 31 8 0 15 7 15 15 0
10 11 15 35 15 19 0 35 4 35 10 0 5 -7 7 -15 4 -8 -4 -15 -1 -15 4 0 6 -7 12
-17 14 -15 3 -15 4 0 17 15 12 17 11 17 -3 0 -14 16 -16 115 -16 102 0 115 2
115 17 0 14 2 15 13 4 10 -11 10 -14 0 -18 -24 -9 -14 -33 14 -33 25 0 26 -1
8 -14 -21 -15 -29 -87 -15 -133 6 -21 8 -11 9 45 1 65 3 72 21 72 16 0 20 -7
20 -35 0 -19 4 -35 10 -35 5 0 7 7 4 15 -4 8 -1 15 5 15 6 0 11 8 11 18 0 14
2 15 10 2 6 -10 6 -16 0 -18 -13 -5 -13 -232 0 -232 5 0 7 -7 4 -15 -4 -8 -1
-15 5 -15 6 0 11 -8 11 -17 0 -14 2 -15 13 -4 10 11 10 14 0 18 -10 3 -13 43
-13 153 0 110 3 149 13 153 7 2 8 8 3 13 -5 5 -11 4 -13 -3 -6 -18 -33 -16
-33 2 0 8 -7 15 -15 15 -8 0 -15 7 -15 15 0 8 -9 15 -20 15 -25 0 -28 37 -3
42 9 2 -63 3 -160 3 -97 0 -172 -1 -167 -3z m177 -18 c-3 -3 -12 -4 -19 -1 -8
3 -5 6 6 6 11 1 17 -2 13 -5z m-250 -246 c-3 -8 -6 -5 -6 6 -1 11 2 17 5 13 3
-3 4 -12 1 -19z m203 -13 c0 -8 -4 -15 -9 -15 -5 0 -11 7 -15 15 -3 9 0 15 9
15 8 0 15 -7 15 -15z m-20 -110 l0 -85 -29 0 c-16 0 -31 -4 -33 -10 -2 -6 -8
-6 -18 0 -13 8 -12 10 3 10 9 0 17 5 17 10 0 6 9 10 20 10 16 0 20 7 21 40 1
22 2 56 3 75 0 19 4 35 9 35 4 0 7 -38 7 -85z m250 -25 c0 -5 -7 -10 -15 -10
-8 0 -15 5 -15 10 0 6 7 10 15 10 8 0 15 -4 15 -10z"/>
<path d="M570 690 c0 -16 -7 -20 -35 -20 -28 0 -35 -4 -35 -20 0 -11 -7 -20
-15 -20 -10 0 -15 -10 -15 -30 0 -16 5 -30 11 -30 6 0 8 -8 4 -19 -3 -11 0
-21 7 -24 10 -3 12 6 10 34 -3 32 -1 39 13 39 13 0 16 6 11 28 -3 15 -3 21 0
15 3 -7 21 -13 40 -13 32 0 34 2 34 34 0 21 -6 36 -15 40 -10 4 -15 -1 -15
-14z"/>
<path d="M530 689 c0 -5 5 -7 10 -4 6 3 10 8 10 11 0 2 -4 4 -10 4 -5 0 -10
-5 -10 -11z"/>
<path d="M470 659 c0 -5 5 -7 10 -4 6 3 10 8 10 11 0 2 -4 4 -10 4 -5 0 -10
-5 -10 -11z"/>
<path d="M321 634 c0 -11 3 -14 6 -6 3 7 2 16 -1 19 -3 4 -6 -2 -5 -13z"/>
<path d="M430 619 c0 -5 5 -7 10 -4 6 3 10 8 10 11 0 2 -4 4 -10 4 -5 0 -10
-5 -10 -11z"/>
<path d="M527 559 c3 -10 9 -16 14 -13 13 8 11 21 -5 27 -10 4 -12 0 -9 -14z"/>
<path d="M291 454 c0 -11 3 -14 6 -6 3 7 2 16 -1 19 -3 4 -6 -2 -5 -13z"/>
<path d="M670 419 c0 -5 5 -7 10 -4 6 3 10 8 10 11 0 2 -4 4 -10 4 -5 0 -10
-5 -10 -11z"/>
<path d="M350 360 c0 -5 5 -10 10 -10 6 0 10 5 10 10 0 6 -4 10 -10 10 -5 0
-10 -4 -10 -10z"/>
<path d="M538 323 c7 -3 16 -2 19 1 4 3 -2 6 -13 5 -11 0 -14 -3 -6 -6z"/>
</g>
</svg>
