<?xml version="1.0" standalone="no"?>
<!DOCTYPE svg PUBLIC "-//W3C//DTD SVG 20010904//EN"
 "http://www.w3.org/TR/2001/REC-SVG-20010904/DTD/svg10.dtd">
<svg version="1.0" xmlns="http://www.w3.org/2000/svg"
 width="192.000000pt" height="192.000000pt" viewBox="0 0 192.000000 192.000000"
 preserveAspectRatio="xMidYMid meet">
<metadata>
Created by potrace 1.16, written by Peter Selinger 2001-2019
</metadata>
<g transform="translate(0.000000,192.000000) scale(0.100000,-0.100000)"
fill="#000000" stroke="none">
<path d="M150 1813 c-27 -10 -65 -37 -97 -69 -45 -45 -53 -58 -53 -91 l0 -38
21 43 c27 55 98 116 156 136 59 20 156 20 215 0 56 -19 115 -68 152 -127 40
-62 76 -77 191 -77 115 0 151 15 191 77 60 96 146 143 259 143 121 0 221 -61
265 -162 19 -44 22 -65 18 -142 -3 -76 -8 -98 -30 -131 -78 -123 -207 -171
-347 -129 -57 16 -132 77 -157 126 -8 15 -33 40 -56 56 -38 25 -49 27 -143 27
-94 0 -105 -2 -143 -27 -23 -16 -48 -41 -56 -56 -27 -52 -100 -110 -162 -128
-71 -20 -165 -14 -224 16 -48 25 -111 87 -133 132 l-17 33 0 -31 c0 -50 54
-113 135 -156 56 -29 182 -36 259 -14 62 18 135 76 162 128 8 15 33 40 55 55
36 24 51 27 124 27 73 0 88 -3 124 -27 22 -15 47 -40 55 -55 25 -49 100 -110
157 -126 115 -34 250 -12 321 52 78 71 92 103 96 228 4 98 1 117 -18 163 -27
63 -93 123 -157 145 -60 21 -195 21 -255 0 -56 -19 -115 -68 -152 -127 -37
-59 -78 -77 -171 -77 -93 0 -134 18 -171 77 -37 59 -96 108 -152 127 -59 21
-202 20 -262 -1z"/>
<path d="M1140 1520 l0 -50 45 0 45 0 0 50 0 50 -45 0 -45 0 0 -50z m70 0 c0
-25 -4 -30 -25 -30 -21 0 -25 5 -25 30 0 25 4 30 25 30 21 0 25 -5 25 -30z"/>
<path d="M601 1251 c-56 -23 -127 -90 -152 -144 -14 -33 -19 -66 -19 -146 0
-123 16 -168 86 -235 55 -54 120 -76 220 -76 127 0 203 38 268 136 45 66 89
88 181 88 92 0 136 -22 181 -88 65 -98 141 -136 269 -136 101 0 165 22 221 75
49 47 64 73 64 112 0 27 -1 26 -21 -12 -51 -97 -151 -155 -264 -155 -107 0
-188 44 -249 136 -48 71 -87 88 -201 88 -114 0 -153 -17 -201 -88 -19 -28 -48
-62 -66 -76 -109 -86 -285 -79 -382 16 -66 64 -86 114 -86 215 0 102 19 148
83 211 56 54 121 78 207 77 107 -1 182 -42 244 -135 48 -71 87 -88 201 -88
114 0 153 17 201 88 62 93 137 134 244 135 118 2 217 -55 269 -154 20 -38 21
-39 21 -12 0 39 -15 65 -64 112 -57 54 -120 75 -226 74 -129 0 -198 -36 -264
-135 -45 -66 -89 -88 -181 -88 -92 0 -136 22 -181 88 -67 101 -135 135 -269
135 -64 0 -103 -5 -134 -18z"/>
<path d="M690 960 l0 -50 45 0 45 0 0 50 0 50 -45 0 -45 0 0 -50z m70 0 c0
-25 -4 -30 -25 -30 -21 0 -25 5 -25 30 0 25 4 30 25 30 21 0 25 -5 25 -30z"/>
<path d="M185 701 c-93 -24 -185 -112 -185 -175 l0 -31 17 33 c22 45 84 107
135 134 61 32 204 32 263 1 41 -22 99 -79 128 -124 9 -15 33 -37 54 -50 33
-21 50 -24 138 -24 88 0 105 3 138 24 21 13 45 35 54 50 28 45 87 102 126 122
94 49 242 30 319 -39 73 -66 91 -105 96 -208 4 -77 1 -98 -18 -142 -44 -101
-144 -162 -265 -162 -113 0 -199 47 -259 143 -40 62 -76 77 -191 77 -115 0
-151 -15 -191 -77 -37 -59 -96 -108 -152 -127 -59 -20 -156 -20 -215 0 -58 20
-129 81 -156 136 l-21 43 0 -38 c0 -33 8 -46 53 -91 65 -66 120 -86 232 -86
134 0 215 42 279 143 37 59 78 77 171 77 93 0 134 -18 171 -77 37 -59 96 -108
152 -127 60 -21 195 -21 255 0 64 22 130 82 157 145 19 46 22 65 18 163 -3 99
-7 116 -29 151 -42 65 -102 112 -166 131 -75 22 -202 15 -258 -14 -41 -21 -99
-77 -128 -123 -31 -52 -82 -73 -172 -73 -90 0 -141 21 -172 73 -29 46 -87 102
-128 123 -44 23 -193 34 -250 19z"/>
<path d="M1140 400 l0 -50 45 0 45 0 0 50 0 50 -45 0 -45 0 0 -50z m70 0 c0
-25 -4 -30 -25 -30 -21 0 -25 5 -25 30 0 25 4 30 25 30 21 0 25 -5 25 -30z"/>
</g>
</svg>
