<?xml version="1.0" standalone="no"?>
<!DOCTYPE svg PUBLIC "-//W3C//DTD SVG 20010904//EN"
 "http://www.w3.org/TR/2001/REC-SVG-20010904/DTD/svg10.dtd">
<svg version="1.0" xmlns="http://www.w3.org/2000/svg"
 width="128.000000pt" height="128.000000pt" viewBox="0 0 128.000000 128.000000"
 preserveAspectRatio="xMidYMid meet">
<metadata>
Created by potrace 1.16, written by Peter Selinger 2001-2019
</metadata>
<g transform="translate(0.000000,128.000000) scale(0.100000,-0.100000)"
fill="#000000" stroke="none">
<path d="M605 1149 c-19 -17 -35 -38 -35 -48 0 -32 -17 -41 -114 -55 l-98 -15
-33 35 c-28 29 -39 34 -78 34 -34 0 -53 -6 -74 -24 -24 -21 -28 -31 -28 -80 0
-77 24 -101 101 -101 48 0 59 4 79 27 13 15 25 32 27 38 2 6 46 17 98 25 118
18 120 18 120 1 0 -7 9 -25 20 -38 l19 -25 -86 -192 -87 -191 -60 0 c-111 0
-166 -57 -166 -170 0 -75 21 -119 72 -150 46 -28 150 -28 196 0 27 17 64 63
74 92 2 4 36 2 77 -5 l74 -12 11 -46 c26 -100 94 -149 209 -149 77 0 111 11
151 48 43 40 66 98 66 167 0 123 -72 203 -192 212 -108 9 -184 -31 -223 -117
-16 -35 -22 -40 -44 -36 -14 3 -48 8 -74 12 -32 4 -50 12 -53 23 -3 9 -14 35
-26 58 l-20 42 85 193 85 193 45 7 c87 12 117 50 117 149 0 56 -3 64 -34 95
-32 32 -38 34 -100 34 -59 0 -69 -3 -101 -31z m181 -23 c28 -28 34 -42 34 -75
0 -23 -7 -55 -15 -70 -18 -35 -78 -65 -115 -58 -26 6 -28 3 -122 -211 l-96
-217 20 -22 c11 -11 26 -38 33 -60 12 -37 15 -38 76 -49 115 -21 124 -19 144
26 52 116 192 153 295 79 98 -71 105 -216 14 -301 -37 -35 -74 -48 -131 -48
-94 0 -165 57 -189 149 l-11 46 -64 11 c-112 20 -121 19 -144 -23 -76 -141
-285 -92 -285 67 0 54 27 102 72 131 26 15 46 19 92 17 l60 -3 94 208 94 209
-20 21 c-12 12 -25 34 -30 48 l-10 26 -123 -18 c-68 -10 -125 -23 -127 -29
-12 -35 -51 -64 -86 -64 -76 0 -110 90 -52 140 39 34 72 31 113 -13 l35 -36
116 16 c113 17 132 25 132 58 0 10 16 31 35 48 29 25 45 31 81 31 39 0 51 -5
80 -34z"/>
</g>
</svg>
