<?xml version="1.0" standalone="no"?>
<!DOCTYPE svg PUBLIC "-//W3C//DTD SVG 20010904//EN"
 "http://www.w3.org/TR/2001/REC-SVG-20010904/DTD/svg10.dtd">
<svg version="1.0" xmlns="http://www.w3.org/2000/svg"
 width="192.000000pt" height="192.000000pt" viewBox="0 0 192.000000 192.000000"
 preserveAspectRatio="xMidYMid meet">
<metadata>
Created by potrace 1.16, written by Peter Selinger 2001-2019
</metadata>
<g transform="translate(0.000000,192.000000) scale(0.100000,-0.100000)"
fill="#000000" stroke="none">
<path d="M60 1890 c0 -27 -3 -30 -30 -30 -17 0 -30 -4 -30 -10 0 -5 18 -10 40
-10 l40 0 0 40 c0 22 -4 40 -10 40 -5 0 -10 -13 -10 -30z"/>
<path d="M1840 1880 l0 -40 40 0 c22 0 40 5 40 10 0 6 -13 10 -30 10 -27 0
-30 3 -30 30 0 17 -4 30 -10 30 -5 0 -10 -18 -10 -40z"/>
<path d="M295 1215 c-2 -5 -6 -27 -9 -48 l-5 -39 135 4 c74 2 133 1 132 -2 -2
-3 -61 -60 -133 -126 -246 -228 -233 -214 -239 -266 l-6 -48 313 0 314 0 16
79 c17 77 19 79 74 123 l58 45 46 -121 47 -121 76 -3 c42 -2 76 -1 76 1 0 6
-119 280 -130 299 -14 25 -16 23 48 67 31 22 75 54 97 71 108 80 113 83 142
72 16 -6 110 -9 225 -8 189 1 196 0 180 -17 -8 -10 -27 -17 -41 -16 -14 1 -53
1 -87 1 -56 -2 -61 -4 -59 -24 2 -23 -13 -69 -33 -106 -7 -12 -10 -26 -8 -31
3 -5 -1 -25 -9 -45 -8 -19 -15 -47 -15 -61 0 -15 -4 -24 -9 -21 -4 3 -6 -6 -3
-19 2 -15 0 -25 -7 -25 -6 0 -11 -8 -11 -17 0 -10 -5 -35 -11 -55 -9 -33 -14
-38 -39 -38 -34 0 -36 7 -14 58 9 20 17 44 18 52 3 23 15 65 47 170 32 105 36
145 15 153 -23 9 -187 10 -218 2 -59 -15 -23 -25 90 -25 l119 0 -25 -82 c-13
-46 -28 -96 -32 -113 -27 -98 -40 -145 -54 -184 -9 -24 -16 -48 -16 -53 0 -5
28 -8 61 -6 l62 3 19 70 c26 95 33 119 58 200 12 39 27 90 34 115 l12 45 87 3
c94 3 98 5 112 69 l6 32 -318 0 -318 1 -115 -91 c-63 -50 -126 -101 -141 -115
-25 -24 -56 -34 -44 -13 4 5 20 57 35 114 l28 104 -66 -2 c-58 -2 -67 -5 -70
-22 -1 -11 -21 -101 -43 -200 -22 -99 -42 -189 -44 -200 -4 -19 -12 -20 -190
-20 -102 0 -185 3 -185 6 0 4 12 15 28 25 15 9 102 86 193 171 117 107 168
161 172 181 3 15 8 34 11 42 5 13 -22 15 -215 15 -139 0 -223 -4 -224 -10z
m394 -46 c-6 -13 -40 -49 -76 -79 -61 -52 -156 -139 -213 -195 -14 -14 -31
-25 -38 -25 -24 0 -7 35 33 69 22 18 46 42 53 52 7 11 18 17 23 14 5 -4 9 -2
9 3 0 6 22 31 49 57 38 36 47 51 43 71 -3 16 -12 25 -26 26 -11 0 -25 2 -31 3
-5 2 -49 3 -97 4 -50 0 -88 5 -88 11 0 7 352 21 368 14 1 -1 -2 -12 -9 -25z
m188 -1 c-3 -13 -9 -41 -12 -63 -4 -22 -14 -46 -23 -52 -9 -7 -11 -13 -5 -13
6 0 9 -13 7 -29 -3 -24 1 -30 19 -33 23 -4 77 17 77 30 0 4 17 18 38 32 20 14
48 35 62 48 14 12 28 22 32 22 3 0 20 14 37 31 30 29 51 32 51 5 0 -12 -70
-66 -85 -66 -3 0 -15 -9 -27 -20 -17 -15 -20 -27 -15 -60 4 -35 68 -198 98
-253 9 -16 6 -18 -32 -15 -42 3 -42 3 -65 68 -13 36 -33 86 -45 111 -19 42
-24 46 -59 47 -31 1 -40 -2 -45 -18 -4 -11 -13 -20 -21 -20 -8 0 -17 -7 -20
-15 -4 -8 -12 -15 -18 -15 -7 0 -18 -19 -25 -42 -7 -24 -17 -61 -24 -82 l-12
-40 -273 1 c-150 0 -275 3 -278 5 -11 11 18 60 53 91 20 17 44 40 54 50 14 16
17 16 22 3 8 -20 -1 -43 -19 -50 -17 -7 -19 -50 -1 -62 6 -5 99 -8 205 -6
l193 3 10 27 c6 15 23 87 38 160 15 73 31 129 36 125 4 -4 5 -3 2 4 -4 6 -2
34 5 62 11 47 14 51 41 51 25 0 28 -3 24 -22z m339 7 c-21 -16 -56 -20 -56 -7
0 16 13 22 44 22 29 -1 30 -1 12 -15z"/>
<path d="M831 684 c0 -11 3 -14 6 -6 3 7 2 16 -1 19 -3 4 -6 -2 -5 -13z"/>
<path d="M0 70 c0 -5 13 -10 30 -10 27 0 30 -3 30 -30 0 -17 5 -30 10 -30 6 0
10 18 10 40 l0 40 -40 0 c-22 0 -40 -4 -40 -10z"/>
<path d="M1840 40 c0 -22 5 -40 10 -40 6 0 10 13 10 30 0 27 3 30 30 30 17 0
30 5 30 10 0 6 -18 10 -40 10 l-40 0 0 -40z"/>
</g>
</svg>
